0, 0, Header, 1, 5, 480
1, 0, Start_track
1, 0, Title_t, "tchaikovsky concerto1 mv2"
1, 0, Copyright_t, "Adaptation for Disklavier pianos, by: Robert C. Kuhmann (c) 2012."
1, 0, Text_t, "Seq. (c) by: Segundo G. Yogore,  2007\012"
1, 0, Time_signature, 6, 3, 12, 8
1, 0, Key_signature, -5, "major"
1, 0, Tempo, 895522
1, 14640, Tempo, 937500
1, 14880, Tempo, 983607
1, 15120, Tempo, 1034483
1, 15360, Tempo, 1111111
1, 15600, Tempo, 1176471
1, 15840, Tempo, 1250000
1, 16080, Tempo, 1333333
1, 16320, Tempo, 1463415
1, 17280, Tempo, 895522
1, 25440, Tempo, 937500
1, 25680, Tempo, 983607
1, 25920, Tempo, 1034483
1, 26160, Tempo, 1111111
1, 26400, Tempo, 1176471
1, 26640, Tempo, 1250000
1, 26880, Tempo, 1333333
1, 27120, Tempo, 1463415
1, 27600, Tempo, 895522
1, 81840, Tempo, 937500
1, 82080, Time_signature, 7, 3, 12, 8
1, 82080, Tempo, 983607
1, 82320, Tempo, 1034483
1, 82560, Tempo, 1111111
1, 82800, Tempo, 1176471
1, 83040, Tempo, 1250000
1, 83280, Tempo, 1333333
1, 83520, Tempo, 1463415
1, 83760, Time_signature, 6, 3, 12, 8
1, 83760, Key_signature, -1, "major"
1, 83760, Tempo, 342857
1, 198960, Time_signature, 8, 3, 12, 8
1, 198960, Tempo, 895522
1, 200880, Time_signature, 6, 3, 12, 8
1, 209520, Time_signature, 8, 3, 12, 8
1, 211440, Time_signature, 6, 3, 12, 8
1, 211440, Key_signature, -5, "major"
1, 231120, Tempo, 937500
1, 231360, Tempo, 983607
1, 231600, Tempo, 1034483
1, 231840, Tempo, 1111111
1, 232080, Tempo, 1176471
1, 232320, Tempo, 1250000
1, 232560, Tempo, 1333333
1, 232800, Tempo, 1463415
1, 233040, Tempo, 895522
1, 233040, End_track
2, 0, Start_track
2, 0, Title_t, "Grand Piano"
2, 0, Program_c, 0, 0
2, 0, Control_c, 0, 7, 115
2, 0, Control_c, 0, 10, 86
2, 17280, Note_on_c, 0, 80, 80
2, 18000, Note_on_c, 0, 80, 0
2, 18000, Note_on_c, 0, 75, 80
2, 18480, Note_on_c, 0, 75, 0
2, 18480, Note_on_c, 0, 82, 80
2, 18720, Note_on_c, 0, 82, 0
2, 18720, Note_on_c, 0, 80, 80
2, 20160, Note_on_c, 0, 80, 0
2, 20160, Note_on_c, 0, 73, 80
2, 20400, Note_on_c, 0, 73, 0
2, 20400, Note_on_c, 0, 72, 80
2, 20640, Note_on_c, 0, 72, 0
2, 20640, Note_on_c, 0, 70, 80
2, 20880, Note_on_c, 0, 70, 0
2, 20880, Note_on_c, 0, 75, 80
2, 21360, Note_on_c, 0, 75, 0
2, 21360, Note_on_c, 0, 75, 80
2, 21600, Note_on_c, 0, 75, 0
2, 21600, Note_on_c, 0, 68, 80
2, 23040, Note_on_c, 0, 68, 0
2, 23040, Note_on_c, 0, 68, 80
2, 23280, Note_on_c, 0, 68, 0
2, 23280, Note_on_c, 0, 70, 80
2, 23520, Note_on_c, 0, 70, 0
2, 23520, Note_on_c, 0, 73, 80
2, 23760, Note_on_c, 0, 73, 0
2, 23760, Note_on_c, 0, 75, 80
2, 24240, Note_on_c, 0, 75, 0
2, 24240, Note_on_c, 0, 75, 80
2, 24480, Note_on_c, 0, 75, 0
2, 24480, Note_on_c, 0, 73, 80
2, 24720, Note_on_c, 0, 73, 0
2, 24720, Note_on_c, 0, 75, 80
2, 24960, Note_on_c, 0, 75, 0
2, 24960, Note_on_c, 0, 77, 80
2, 25200, Note_on_c, 0, 77, 0
2, 25200, Note_on_c, 0, 78, 80
2, 25680, Note_on_c, 0, 78, 0
2, 25680, Note_on_c, 0, 78, 80
2, 25920, Note_on_c, 0, 78, 0
2, 25920, Note_on_c, 0, 65, 80
2, 25920, Note_on_c, 0, 77, 80
2, 26160, Note_on_c, 0, 77, 0
2, 26160, Note_on_c, 0, 65, 0
2, 26160, Note_on_c, 0, 66, 80
2, 26160, Note_on_c, 0, 78, 80
2, 26400, Note_on_c, 0, 78, 0
2, 26400, Note_on_c, 0, 66, 0
2, 26400, Note_on_c, 0, 68, 80
2, 26400, Note_on_c, 0, 80, 80
2, 26640, Note_on_c, 0, 80, 0
2, 26640, Note_on_c, 0, 68, 0
2, 26640, Note_on_c, 0, 70, 80
2, 26640, Note_on_c, 0, 82, 80
2, 26880, Note_on_c, 0, 82, 0
2, 26880, Note_on_c, 0, 70, 0
2, 26880, Note_on_c, 0, 73, 80
2, 26880, Note_on_c, 0, 85, 80
2, 27120, Note_on_c, 0, 85, 0
2, 27120, Note_on_c, 0, 73, 0
2, 27120, Note_on_c, 0, 72, 80
2, 27120, Note_on_c, 0, 84, 80
2, 27360, Note_on_c, 0, 84, 0
2, 27360, Note_on_c, 0, 72, 0
2, 27360, Note_on_c, 0, 72, 80
2, 27360, Note_on_c, 0, 77, 80
2, 27360, Note_on_c, 0, 84, 80
2, 27600, Note_on_c, 0, 84, 0
2, 27600, Note_on_c, 0, 77, 0
2, 27600, Note_on_c, 0, 72, 0
2, 28080, Control_c, 0, 64, 127
2, 28080, Note_on_c, 0, 59, 67
2, 28200, Note_on_c, 0, 59, 0
2, 28200, Note_on_c, 0, 60, 67
2, 28320, Note_on_c, 0, 60, 0
2, 28320, Note_on_c, 0, 65, 67
2, 28440, Note_on_c, 0, 65, 0
2, 28440, Note_on_c, 0, 69, 67
2, 28560, Note_on_c, 0, 69, 0
2, 28560, Note_on_c, 0, 72, 67
2, 28680, Note_on_c, 0, 72, 0
2, 28680, Control_c, 0, 64, 0
2, 28680, Note_on_c, 0, 77, 67
2, 28800, Note_on_c, 0, 77, 0
2, 31440, Note_on_c, 0, 69, 67
2, 31440, Note_on_c, 0, 77, 67
2, 31680, Note_on_c, 0, 77, 0
2, 31680, Note_on_c, 0, 69, 0
2, 31680, Note_on_c, 0, 70, 67
2, 31680, Note_on_c, 0, 74, 67
2, 32160, Note_on_c, 0, 74, 0
2, 32160, Note_on_c, 0, 70, 0
2, 32160, Note_on_c, 0, 68, 67
2, 32160, Note_on_c, 0, 76, 67
2, 32400, Note_on_c, 0, 76, 0
2, 32400, Note_on_c, 0, 68, 0
2, 32400, Note_on_c, 0, 69, 67
2, 32400, Note_on_c, 0, 72, 67
2, 32880, Note_on_c, 0, 72, 0
2, 32880, Note_on_c, 0, 69, 0
2, 32880, Note_on_c, 0, 62, 67
2, 32880, Note_on_c, 0, 65, 67
2, 33120, Note_on_c, 0, 65, 0
2, 33120, Note_on_c, 0, 62, 0
2, 33120, Note_on_c, 0, 61, 67
2, 33120, Note_on_c, 0, 64, 67
2, 33120, Note_on_c, 0, 70, 67
2, 33360, Note_on_c, 0, 70, 0
2, 33360, Note_on_c, 0, 64, 0
2, 33360, Note_on_c, 0, 61, 0
2, 33600, Note_on_c, 0, 61, 67
2, 33600, Note_on_c, 0, 64, 67
2, 33600, Note_on_c, 0, 70, 67
2, 33840, Note_on_c, 0, 70, 0
2, 33840, Note_on_c, 0, 64, 0
2, 33840, Note_on_c, 0, 61, 0
2, 34080, Note_on_c, 0, 58, 67
2, 34080, Note_on_c, 0, 60, 67
2, 34320, Note_on_c, 0, 60, 0
2, 34320, Note_on_c, 0, 58, 0
2, 34320, Note_on_c, 0, 57, 67
2, 34320, Note_on_c, 0, 61, 67
2, 34560, Note_on_c, 0, 61, 0
2, 34560, Note_on_c, 0, 57, 0
2, 34560, Note_on_c, 0, 57, 67
2, 34560, Note_on_c, 0, 62, 67
2, 34800, Note_on_c, 0, 62, 0
2, 34800, Note_on_c, 0, 57, 0
2, 40080, Note_on_c, 0, 81, 67
2, 40320, Note_on_c, 0, 81, 0
2, 40320, Note_on_c, 0, 81, 67
2, 40320, Note_on_c, 0, 83, 67
2, 40440, Note_on_c, 0, 83, 0
2, 40440, Note_on_c, 0, 81, 0
2, 40440, Note_on_c, 0, 79, 67
2, 40440, Note_on_c, 0, 85, 67
2, 40560, Note_on_c, 0, 85, 0
2, 40560, Note_on_c, 0, 79, 0
2, 40560, Note_on_c, 0, 78, 67
2, 40560, Note_on_c, 0, 86, 67
2, 40680, Note_on_c, 0, 86, 0
2, 40680, Note_on_c, 0, 78, 0
2, 40680, Note_on_c, 0, 79, 67
2, 40680, Note_on_c, 0, 85, 67
2, 40800, Note_on_c, 0, 85, 0
2, 40800, Note_on_c, 0, 79, 0
2, 40800, Note_on_c, 0, 81, 67
2, 40800, Note_on_c, 0, 86, 67
2, 40920, Note_on_c, 0, 86, 0
2, 40920, Note_on_c, 0, 81, 0
2, 40920, Note_on_c, 0, 78, 67
2, 40920, Note_on_c, 0, 83, 67
2, 41040, Note_on_c, 0, 83, 0
2, 41040, Note_on_c, 0, 78, 0
2, 41040, Note_on_c, 0, 79, 67
2, 41040, Note_on_c, 0, 81, 67
2, 41400, Note_on_c, 0, 81, 0
2, 41400, Note_on_c, 0, 79, 0
2, 41400, Note_on_c, 0, 79, 67
2, 41400, Note_on_c, 0, 81, 67
2, 41640, Note_on_c, 0, 81, 0
2, 41640, Note_on_c, 0, 79, 0
2, 41640, Note_on_c, 0, 79, 67
2, 41640, Note_on_c, 0, 81, 67
2, 41760, Note_on_c, 0, 81, 0
2, 41760, Note_on_c, 0, 79, 0
2, 41760, Note_on_c, 0, 81, 67
2, 41760, Note_on_c, 0, 83, 67
2, 41880, Note_on_c, 0, 83, 0
2, 41880, Note_on_c, 0, 81, 0
2, 41880, Note_on_c, 0, 79, 67
2, 41880, Note_on_c, 0, 85, 67
2, 42000, Note_on_c, 0, 85, 0
2, 42000, Note_on_c, 0, 79, 0
2, 42000, Note_on_c, 0, 78, 67
2, 42000, Note_on_c, 0, 86, 67
2, 42120, Note_on_c, 0, 86, 0
2, 42120, Note_on_c, 0, 78, 0
2, 42120, Note_on_c, 0, 79, 67
2, 42120, Note_on_c, 0, 85, 67
2, 42240, Note_on_c, 0, 85, 0
2, 42240, Note_on_c, 0, 79, 0
2, 42240, Note_on_c, 0, 81, 67
2, 42240, Note_on_c, 0, 86, 67
2, 42360, Note_on_c, 0, 86, 0
2, 42360, Note_on_c, 0, 81, 0
2, 42360, Note_on_c, 0, 78, 67
2, 42360, Note_on_c, 0, 83, 67
2, 42480, Note_on_c, 0, 83, 0
2, 42480, Note_on_c, 0, 78, 0
2, 42480, Note_on_c, 0, 79, 67
2, 42480, Note_on_c, 0, 81, 67
2, 42840, Note_on_c, 0, 81, 0
2, 42840, Note_on_c, 0, 79, 0
2, 42840, Note_on_c, 0, 79, 67
2, 42840, Note_on_c, 0, 81, 67
2, 43080, Note_on_c, 0, 81, 0
2, 43080, Note_on_c, 0, 79, 0
2, 43080, Note_on_c, 0, 79, 67
2, 43080, Note_on_c, 0, 81, 67
2, 43200, Note_on_c, 0, 81, 0
2, 43200, Note_on_c, 0, 79, 0
2, 43200, Note_on_c, 0, 78, 67
2, 43320, Note_on_c, 0, 78, 0
2, 43320, Note_on_c, 0, 76, 67
2, 43320, Note_on_c, 0, 81, 67
2, 43440, Note_on_c, 0, 81, 0
2, 43440, Note_on_c, 0, 76, 0
2, 43440, Note_on_c, 0, 74, 67
2, 43440, Note_on_c, 0, 83, 67
2, 43560, Note_on_c, 0, 74, 0
2, 43560, Note_on_c, 0, 73, 67
2, 43680, Note_on_c, 0, 73, 0
2, 43680, Note_on_c, 0, 83, 0
2, 43680, Note_on_c, 0, 71, 67
2, 43680, Note_on_c, 0, 74, 67
2, 43800, Note_on_c, 0, 71, 0
2, 43800, Note_on_c, 0, 69, 67
2, 43920, Note_on_c, 0, 69, 0
2, 43920, Note_on_c, 0, 74, 0
2, 43920, Note_on_c, 0, 76, 67
2, 44040, Note_on_c, 0, 76, 0
2, 44040, Note_on_c, 0, 74, 67
2, 44040, Note_on_c, 0, 79, 67
2, 44160, Note_on_c, 0, 79, 0
2, 44160, Note_on_c, 0, 74, 0
2, 44160, Note_on_c, 0, 73, 67
2, 44160, Note_on_c, 0, 81, 67
2, 44280, Note_on_c, 0, 73, 0
2, 44280, Note_on_c, 0, 71, 67
2, 44400, Note_on_c, 0, 71, 0
2, 44400, Note_on_c, 0, 81, 0
2, 44400, Note_on_c, 0, 69, 67
2, 44400, Note_on_c, 0, 73, 67
2, 44520, Note_on_c, 0, 69, 0
2, 44520, Note_on_c, 0, 67, 67
2, 44640, Note_on_c, 0, 67, 0
2, 44640, Note_on_c, 0, 73, 0
2, 44640, Note_on_c, 0, 78, 67
2, 44760, Note_on_c, 0, 78, 0
2, 44760, Note_on_c, 0, 76, 67
2, 44760, Note_on_c, 0, 81, 67
2, 44880, Note_on_c, 0, 81, 0
2, 44880, Note_on_c, 0, 76, 0
2, 44880, Note_on_c, 0, 74, 67
2, 44880, Note_on_c, 0, 83, 67
2, 45000, Note_on_c, 0, 74, 0
2, 45000, Note_on_c, 0, 73, 67
2, 45120, Note_on_c, 0, 73, 0
2, 45120, Note_on_c, 0, 83, 0
2, 45120, Note_on_c, 0, 71, 67
2, 45120, Note_on_c, 0, 74, 67
2, 45240, Note_on_c, 0, 71, 0
2, 45240, Note_on_c, 0, 69, 67
2, 45360, Note_on_c, 0, 69, 0
2, 45360, Note_on_c, 0, 74, 0
2, 45360, Note_on_c, 0, 76, 67
2, 45480, Note_on_c, 0, 76, 0
2, 45480, Note_on_c, 0, 74, 67
2, 45480, Note_on_c, 0, 79, 67
2, 45600, Note_on_c, 0, 79, 0
2, 45600, Note_on_c, 0, 74, 0
2, 45600, Note_on_c, 0, 73, 67
2, 45600, Note_on_c, 0, 81, 67
2, 45720, Note_on_c, 0, 73, 0
2, 45720, Note_on_c, 0, 71, 67
2, 45840, Note_on_c, 0, 71, 0
2, 45840, Note_on_c, 0, 81, 0
2, 45840, Note_on_c, 0, 69, 67
2, 45840, Note_on_c, 0, 73, 67
2, 45960, Note_on_c, 0, 69, 0
2, 45960, Note_on_c, 0, 67, 67
2, 46080, Note_on_c, 0, 67, 0
2, 46080, Note_on_c, 0, 73, 0
2, 46080, Note_on_c, 0, 69, 67
2, 46080, Note_on_c, 0, 74, 67
2, 46200, Note_on_c, 0, 74, 0
2, 46200, Note_on_c, 0, 69, 0
2, 46200, Note_on_c, 0, 67, 67
2, 46200, Note_on_c, 0, 73, 67
2, 46320, Note_on_c, 0, 73, 0
2, 46320, Note_on_c, 0, 67, 0
2, 46320, Note_on_c, 0, 66, 67
2, 46320, Note_on_c, 0, 71, 67
2, 46440, Note_on_c, 0, 71, 0
2, 46440, Note_on_c, 0, 66, 0
2, 46440, Note_on_c, 0, 64, 67
2, 46440, Note_on_c, 0, 69, 67
2, 46560, Note_on_c, 0, 69, 0
2, 46560, Note_on_c, 0, 64, 0
2, 46560, Note_on_c, 0, 62, 67
2, 46560, Note_on_c, 0, 67, 67
2, 46680, Note_on_c, 0, 67, 0
2, 46680, Note_on_c, 0, 62, 0
2, 46680, Note_on_c, 0, 61, 67
2, 46680, Note_on_c, 0, 66, 67
2, 46800, Note_on_c, 0, 66, 0
2, 46800, Note_on_c, 0, 61, 0
2, 46800, Note_on_c, 0, 59, 67
2, 46800, Note_on_c, 0, 64, 67
2, 46920, Note_on_c, 0, 64, 0
2, 46920, Note_on_c, 0, 59, 0
2, 46920, Note_on_c, 0, 61, 67
2, 46920, Note_on_c, 0, 66, 67
2, 47040, Note_on_c, 0, 66, 0
2, 47040, Note_on_c, 0, 61, 0
2, 47040, Note_on_c, 0, 62, 67
2, 47040, Note_on_c, 0, 67, 67
2, 47160, Note_on_c, 0, 67, 0
2, 47160, Note_on_c, 0, 62, 0
2, 47160, Note_on_c, 0, 64, 67
2, 47160, Note_on_c, 0, 69, 67
2, 47280, Note_on_c, 0, 69, 0
2, 47280, Note_on_c, 0, 64, 0
2, 47280, Note_on_c, 0, 66, 67
2, 47280, Note_on_c, 0, 71, 67
2, 47400, Note_on_c, 0, 71, 0
2, 47400, Note_on_c, 0, 66, 0
2, 47400, Note_on_c, 0, 67, 67
2, 47400, Note_on_c, 0, 73, 67
2, 47520, Note_on_c, 0, 73, 0
2, 47520, Note_on_c, 0, 67, 0
2, 47520, Note_on_c, 0, 69, 67
2, 47520, Note_on_c, 0, 74, 67
2, 47640, Note_on_c, 0, 74, 0
2, 47640, Note_on_c, 0, 69, 0
2, 47640, Note_on_c, 0, 67, 67
2, 47640, Note_on_c, 0, 73, 67
2, 47760, Note_on_c, 0, 73, 0
2, 47760, Note_on_c, 0, 67, 0
2, 47760, Note_on_c, 0, 66, 67
2, 47760, Note_on_c, 0, 71, 67
2, 47880, Note_on_c, 0, 71, 0
2, 47880, Note_on_c, 0, 66, 0
2, 47880, Note_on_c, 0, 64, 67
2, 47880, Note_on_c, 0, 69, 67
2, 48000, Note_on_c, 0, 69, 0
2, 48000, Note_on_c, 0, 64, 0
2, 48000, Note_on_c, 0, 62, 67
2, 48000, Note_on_c, 0, 67, 67
2, 48120, Note_on_c, 0, 67, 0
2, 48120, Note_on_c, 0, 62, 0
2, 48120, Note_on_c, 0, 61, 67
2, 48120, Note_on_c, 0, 66, 67
2, 48240, Note_on_c, 0, 66, 0
2, 48240, Note_on_c, 0, 61, 0
2, 48240, Note_on_c, 0, 59, 67
2, 48240, Note_on_c, 0, 64, 67
2, 48360, Note_on_c, 0, 64, 0
2, 48360, Note_on_c, 0, 59, 0
2, 48360, Note_on_c, 0, 61, 67
2, 48360, Note_on_c, 0, 66, 67
2, 48480, Note_on_c, 0, 66, 0
2, 48480, Note_on_c, 0, 61, 0
2, 48480, Note_on_c, 0, 62, 67
2, 48480, Note_on_c, 0, 67, 67
2, 48600, Note_on_c, 0, 67, 0
2, 48600, Note_on_c, 0, 62, 0
2, 48600, Note_on_c, 0, 64, 67
2, 48600, Note_on_c, 0, 69, 67
2, 48720, Note_on_c, 0, 69, 0
2, 48720, Note_on_c, 0, 64, 0
2, 48720, Note_on_c, 0, 66, 67
2, 48720, Note_on_c, 0, 71, 67
2, 48840, Note_on_c, 0, 71, 0
2, 48840, Note_on_c, 0, 66, 0
2, 48840, Note_on_c, 0, 67, 67
2, 48840, Note_on_c, 0, 73, 67
2, 48960, Note_on_c, 0, 73, 0
2, 48960, Note_on_c, 0, 67, 0
2, 48960, Note_on_c, 0, 69, 67
2, 48960, Note_on_c, 0, 74, 67
2, 49080, Note_on_c, 0, 74, 0
2, 49080, Note_on_c, 0, 69, 0
2, 49080, Note_on_c, 0, 71, 67
2, 49080, Note_on_c, 0, 76, 67
2, 49200, Note_on_c, 0, 76, 0
2, 49200, Note_on_c, 0, 71, 0
2, 49200, Note_on_c, 0, 73, 67
2, 49200, Note_on_c, 0, 78, 67
2, 49320, Note_on_c, 0, 78, 0
2, 49320, Note_on_c, 0, 73, 0
2, 49320, Note_on_c, 0, 74, 67
2, 49320, Note_on_c, 0, 79, 67
2, 49440, Note_on_c, 0, 79, 0
2, 49440, Note_on_c, 0, 74, 0
2, 49440, Note_on_c, 0, 76, 67
2, 49440, Note_on_c, 0, 81, 67
2, 49560, Note_on_c, 0, 81, 0
2, 49560, Note_on_c, 0, 76, 0
2, 49560, Note_on_c, 0, 78, 67
2, 49560, Note_on_c, 0, 83, 67
2, 49680, Note_on_c, 0, 83, 0
2, 49680, Note_on_c, 0, 78, 0
2, 49680, Note_on_c, 0, 79, 67
2, 49680, Note_on_c, 0, 85, 67
2, 49800, Note_on_c, 0, 85, 0
2, 49800, Note_on_c, 0, 79, 0
2, 49800, Note_on_c, 0, 85, 67
2, 49800, Note_on_c, 0, 88, 67
2, 49920, Note_on_c, 0, 88, 0
2, 49920, Note_on_c, 0, 85, 0
2, 49920, Note_on_c, 0, 79, 67
2, 49920, Note_on_c, 0, 85, 67
2, 50040, Note_on_c, 0, 85, 0
2, 50040, Note_on_c, 0, 79, 0
2, 50040, Note_on_c, 0, 79, 67
2, 50040, Note_on_c, 0, 83, 67
2, 50063, Note_on_c, 0, 83, 0
2, 50063, Note_on_c, 0, 79, 0
2, 50160, Note_on_c, 0, 79, 67
2, 50160, Note_on_c, 0, 81, 67
2, 50183, Note_on_c, 0, 81, 0
2, 50183, Note_on_c, 0, 79, 0
2, 50280, Note_on_c, 0, 79, 67
2, 50280, Note_on_c, 0, 83, 67
2, 50303, Note_on_c, 0, 83, 0
2, 50303, Note_on_c, 0, 79, 0
2, 50400, Note_on_c, 0, 79, 67
2, 50400, Note_on_c, 0, 85, 67
2, 50520, Note_on_c, 0, 85, 0
2, 50520, Note_on_c, 0, 79, 0
2, 50520, Note_on_c, 0, 85, 67
2, 50520, Note_on_c, 0, 88, 67
2, 50640, Note_on_c, 0, 88, 0
2, 50640, Note_on_c, 0, 85, 0
2, 50640, Note_on_c, 0, 79, 67
2, 50640, Note_on_c, 0, 85, 67
2, 50760, Note_on_c, 0, 85, 0
2, 50760, Note_on_c, 0, 79, 0
2, 50760, Note_on_c, 0, 79, 67
2, 50760, Note_on_c, 0, 83, 67
2, 50783, Note_on_c, 0, 83, 0
2, 50783, Note_on_c, 0, 79, 0
2, 50880, Note_on_c, 0, 79, 67
2, 50880, Note_on_c, 0, 81, 67
2, 50903, Note_on_c, 0, 81, 0
2, 50903, Note_on_c, 0, 79, 0
2, 51000, Note_on_c, 0, 79, 67
2, 51000, Note_on_c, 0, 83, 67
2, 51023, Note_on_c, 0, 83, 0
2, 51023, Note_on_c, 0, 79, 0
2, 51120, Note_on_c, 0, 79, 67
2, 51120, Note_on_c, 0, 85, 67
2, 51240, Note_on_c, 0, 85, 0
2, 51240, Note_on_c, 0, 79, 0
2, 51240, Note_on_c, 0, 85, 67
2, 51240, Note_on_c, 0, 88, 67
2, 51360, Note_on_c, 0, 88, 0
2, 51360, Note_on_c, 0, 85, 0
2, 51360, Note_on_c, 0, 79, 67
2, 51360, Note_on_c, 0, 85, 67
2, 51480, Note_on_c, 0, 85, 0
2, 51480, Note_on_c, 0, 79, 0
2, 51480, Note_on_c, 0, 79, 67
2, 51480, Note_on_c, 0, 83, 67
2, 51503, Note_on_c, 0, 83, 0
2, 51503, Note_on_c, 0, 79, 0
2, 51600, Note_on_c, 0, 79, 67
2, 51600, Note_on_c, 0, 81, 67
2, 51623, Note_on_c, 0, 81, 0
2, 51623, Note_on_c, 0, 79, 0
2, 51720, Note_on_c, 0, 79, 67
2, 51720, Note_on_c, 0, 83, 67
2, 51743, Note_on_c, 0, 83, 0
2, 51743, Note_on_c, 0, 79, 0
2, 51840, Note_on_c, 0, 79, 67
2, 51840, Note_on_c, 0, 81, 67
2, 51863, Note_on_c, 0, 81, 0
2, 51863, Note_on_c, 0, 79, 0
2, 51960, Note_on_c, 0, 79, 67
2, 51960, Note_on_c, 0, 83, 67
2, 51983, Note_on_c, 0, 83, 0
2, 51983, Note_on_c, 0, 79, 0
2, 52080, Note_on_c, 0, 79, 67
2, 52080, Note_on_c, 0, 81, 67
2, 52103, Note_on_c, 0, 81, 0
2, 52103, Note_on_c, 0, 79, 0
2, 52200, Note_on_c, 0, 79, 67
2, 52200, Note_on_c, 0, 83, 67
2, 52223, Note_on_c, 0, 83, 0
2, 52223, Note_on_c, 0, 79, 0
2, 52320, Note_on_c, 0, 79, 67
2, 52320, Note_on_c, 0, 81, 67
2, 52343, Note_on_c, 0, 81, 0
2, 52343, Note_on_c, 0, 79, 0
2, 52440, Note_on_c, 0, 79, 67
2, 52440, Note_on_c, 0, 83, 67
2, 52463, Note_on_c, 0, 83, 0
2, 52463, Note_on_c, 0, 79, 0
2, 52560, Note_on_c, 0, 79, 67
2, 52560, Note_on_c, 0, 81, 67
2, 52583, Note_on_c, 0, 81, 0
2, 52583, Note_on_c, 0, 79, 0
2, 52680, Note_on_c, 0, 79, 67
2, 52680, Note_on_c, 0, 83, 67
2, 52703, Note_on_c, 0, 83, 0
2, 52703, Note_on_c, 0, 79, 0
2, 52800, Note_on_c, 0, 79, 67
2, 52800, Note_on_c, 0, 81, 67
2, 52823, Note_on_c, 0, 81, 0
2, 52823, Note_on_c, 0, 79, 0
2, 52920, Note_on_c, 0, 79, 67
2, 52920, Note_on_c, 0, 83, 67
2, 52943, Note_on_c, 0, 83, 0
2, 52943, Note_on_c, 0, 79, 0
2, 53040, Note_on_c, 0, 79, 67
2, 53040, Note_on_c, 0, 81, 67
2, 53063, Note_on_c, 0, 81, 0
2, 53063, Note_on_c, 0, 79, 0
2, 53160, Note_on_c, 0, 79, 67
2, 53160, Note_on_c, 0, 83, 67
2, 53183, Note_on_c, 0, 83, 0
2, 53183, Note_on_c, 0, 79, 0
2, 53280, Note_on_c, 0, 78, 67
2, 53280, Note_on_c, 0, 81, 67
2, 53303, Note_on_c, 0, 81, 0
2, 53303, Note_on_c, 0, 78, 0
2, 53400, Note_on_c, 0, 74, 67
2, 53400, Note_on_c, 0, 78, 67
2, 53400, Note_on_c, 0, 83, 67
2, 53423, Note_on_c, 0, 83, 0
2, 53423, Note_on_c, 0, 78, 0
2, 53423, Note_on_c, 0, 74, 0
2, 53520, Note_on_c, 0, 74, 67
2, 53520, Note_on_c, 0, 78, 67
2, 53520, Note_on_c, 0, 81, 67
2, 53543, Note_on_c, 0, 81, 0
2, 53543, Note_on_c, 0, 78, 0
2, 53543, Note_on_c, 0, 74, 0
2, 53640, Note_on_c, 0, 74, 67
2, 53640, Note_on_c, 0, 78, 67
2, 53640, Note_on_c, 0, 83, 67
2, 53663, Note_on_c, 0, 83, 0
2, 53663, Note_on_c, 0, 78, 0
2, 53663, Note_on_c, 0, 74, 0
2, 53760, Note_on_c, 0, 74, 67
2, 53760, Note_on_c, 0, 78, 67
2, 53760, Note_on_c, 0, 81, 67
2, 53783, Note_on_c, 0, 81, 0
2, 53783, Note_on_c, 0, 78, 0
2, 53783, Note_on_c, 0, 74, 0
2, 53880, Note_on_c, 0, 74, 67
2, 53880, Note_on_c, 0, 78, 67
2, 53880, Note_on_c, 0, 83, 67
2, 53903, Note_on_c, 0, 83, 0
2, 53903, Note_on_c, 0, 78, 0
2, 53903, Note_on_c, 0, 74, 0
2, 54000, Note_on_c, 0, 74, 67
2, 54000, Note_on_c, 0, 78, 67
2, 54000, Note_on_c, 0, 81, 67
2, 54023, Note_on_c, 0, 81, 0
2, 54023, Note_on_c, 0, 78, 0
2, 54023, Note_on_c, 0, 74, 0
2, 54720, Note_on_c, 0, 50, 67
2, 54720, Note_on_c, 0, 54, 67
2, 54720, Note_on_c, 0, 57, 67
2, 54743, Note_on_c, 0, 57, 0
2, 54743, Note_on_c, 0, 54, 0
2, 54743, Note_on_c, 0, 50, 0
2, 54840, Note_on_c, 0, 50, 67
2, 54840, Note_on_c, 0, 54, 67
2, 54840, Note_on_c, 0, 59, 67
2, 54863, Note_on_c, 0, 59, 0
2, 54863, Note_on_c, 0, 54, 0
2, 54863, Note_on_c, 0, 50, 0
2, 54960, Note_on_c, 0, 50, 67
2, 54960, Note_on_c, 0, 54, 67
2, 54960, Note_on_c, 0, 57, 67
2, 54983, Note_on_c, 0, 57, 0
2, 54983, Note_on_c, 0, 54, 0
2, 54983, Note_on_c, 0, 50, 0
2, 55080, Note_on_c, 0, 50, 67
2, 55080, Note_on_c, 0, 54, 67
2, 55080, Note_on_c, 0, 59, 67
2, 55103, Note_on_c, 0, 59, 0
2, 55103, Note_on_c, 0, 54, 0
2, 55103, Note_on_c, 0, 50, 0
2, 55200, Note_on_c, 0, 50, 67
2, 55200, Note_on_c, 0, 54, 67
2, 55200, Note_on_c, 0, 57, 67
2, 55223, Note_on_c, 0, 57, 0
2, 55223, Note_on_c, 0, 54, 0
2, 55223, Note_on_c, 0, 50, 0
2, 55320, Note_on_c, 0, 50, 67
2, 55320, Note_on_c, 0, 54, 67
2, 55320, Note_on_c, 0, 59, 67
2, 55343, Note_on_c, 0, 59, 0
2, 55343, Note_on_c, 0, 54, 0
2, 55343, Note_on_c, 0, 50, 0
2, 55440, Note_on_c, 0, 50, 67
2, 55440, Note_on_c, 0, 54, 67
2, 55440, Note_on_c, 0, 57, 67
2, 55463, Note_on_c, 0, 57, 0
2, 55463, Note_on_c, 0, 54, 0
2, 55463, Note_on_c, 0, 50, 0
2, 56160, Note_on_c, 0, 50, 67
2, 56160, Note_on_c, 0, 54, 67
2, 56160, Note_on_c, 0, 57, 67
2, 56183, Note_on_c, 0, 57, 0
2, 56183, Note_on_c, 0, 54, 0
2, 56183, Note_on_c, 0, 50, 0
2, 56280, Note_on_c, 0, 50, 67
2, 56280, Note_on_c, 0, 54, 67
2, 56280, Note_on_c, 0, 59, 67
2, 56303, Note_on_c, 0, 59, 0
2, 56303, Note_on_c, 0, 54, 0
2, 56303, Note_on_c, 0, 50, 0
2, 56400, Note_on_c, 0, 50, 67
2, 56400, Note_on_c, 0, 54, 67
2, 56400, Note_on_c, 0, 57, 67
2, 56423, Note_on_c, 0, 57, 0
2, 56423, Note_on_c, 0, 54, 0
2, 56423, Note_on_c, 0, 50, 0
2, 56520, Note_on_c, 0, 50, 67
2, 56520, Note_on_c, 0, 54, 67
2, 56520, Note_on_c, 0, 59, 67
2, 56543, Note_on_c, 0, 59, 0
2, 56543, Note_on_c, 0, 54, 0
2, 56543, Note_on_c, 0, 50, 0
2, 56640, Note_on_c, 0, 50, 67
2, 56640, Note_on_c, 0, 54, 67
2, 56640, Note_on_c, 0, 57, 67
2, 56663, Note_on_c, 0, 57, 0
2, 56663, Note_on_c, 0, 54, 0
2, 56663, Note_on_c, 0, 50, 0
2, 56760, Note_on_c, 0, 50, 67
2, 56760, Note_on_c, 0, 54, 67
2, 56760, Note_on_c, 0, 59, 67
2, 56783, Note_on_c, 0, 59, 0
2, 56783, Note_on_c, 0, 54, 0
2, 56783, Note_on_c, 0, 50, 0
2, 56880, Note_on_c, 0, 50, 67
2, 56880, Note_on_c, 0, 54, 67
2, 56880, Note_on_c, 0, 57, 67
2, 56903, Note_on_c, 0, 57, 0
2, 56903, Note_on_c, 0, 54, 0
2, 56903, Note_on_c, 0, 50, 0
2, 57600, Note_on_c, 0, 61, 93
2, 58320, Note_on_c, 0, 61, 0
2, 58320, Note_on_c, 0, 60, 67
2, 58560, Note_on_c, 0, 60, 0
2, 59040, Note_on_c, 0, 61, 67
2, 59040, Note_on_c, 0, 65, 67
2, 59040, Note_on_c, 0, 68, 67
2, 59063, Note_on_c, 0, 68, 0
2, 59063, Note_on_c, 0, 65, 0
2, 59063, Note_on_c, 0, 61, 0
2, 59160, Note_on_c, 0, 61, 67
2, 59160, Note_on_c, 0, 65, 67
2, 59160, Note_on_c, 0, 70, 67
2, 59183, Note_on_c, 0, 70, 0
2, 59183, Note_on_c, 0, 65, 0
2, 59183, Note_on_c, 0, 61, 0
2, 59280, Note_on_c, 0, 61, 67
2, 59280, Note_on_c, 0, 65, 67
2, 59280, Note_on_c, 0, 68, 67
2, 59303, Note_on_c, 0, 68, 0
2, 59303, Note_on_c, 0, 65, 0
2, 59303, Note_on_c, 0, 61, 0
2, 59400, Note_on_c, 0, 61, 67
2, 59400, Note_on_c, 0, 65, 67
2, 59400, Note_on_c, 0, 70, 67
2, 59423, Note_on_c, 0, 70, 0
2, 59423, Note_on_c, 0, 65, 0
2, 59423, Note_on_c, 0, 61, 0
2, 59520, Note_on_c, 0, 61, 67
2, 59520, Note_on_c, 0, 65, 67
2, 59520, Note_on_c, 0, 68, 67
2, 59543, Note_on_c, 0, 68, 0
2, 59543, Note_on_c, 0, 65, 0
2, 59543, Note_on_c, 0, 61, 0
2, 59640, Note_on_c, 0, 61, 67
2, 59640, Note_on_c, 0, 65, 67
2, 59640, Note_on_c, 0, 70, 67
2, 59663, Note_on_c, 0, 70, 0
2, 59663, Note_on_c, 0, 65, 0
2, 59663, Note_on_c, 0, 61, 0
2, 59760, Note_on_c, 0, 60, 67
2, 59760, Note_on_c, 0, 66, 67
2, 59760, Note_on_c, 0, 68, 67
2, 59783, Note_on_c, 0, 68, 0
2, 59783, Note_on_c, 0, 66, 0
2, 59783, Note_on_c, 0, 60, 0
2, 59880, Note_on_c, 0, 60, 67
2, 59880, Note_on_c, 0, 66, 67
2, 59880, Note_on_c, 0, 70, 67
2, 59903, Note_on_c, 0, 70, 0
2, 59903, Note_on_c, 0, 66, 0
2, 59903, Note_on_c, 0, 60, 0
2, 60000, Note_on_c, 0, 60, 67
2, 60000, Note_on_c, 0, 66, 67
2, 60000, Note_on_c, 0, 68, 67
2, 60023, Note_on_c, 0, 68, 0
2, 60023, Note_on_c, 0, 66, 0
2, 60023, Note_on_c, 0, 60, 0
2, 60120, Note_on_c, 0, 60, 67
2, 60120, Note_on_c, 0, 66, 67
2, 60120, Note_on_c, 0, 69, 67
2, 60143, Note_on_c, 0, 69, 0
2, 60143, Note_on_c, 0, 66, 0
2, 60143, Note_on_c, 0, 60, 0
2, 60240, Note_on_c, 0, 63, 67
2, 60240, Note_on_c, 0, 66, 67
2, 60240, Note_on_c, 0, 70, 67
2, 60263, Note_on_c, 0, 70, 0
2, 60263, Note_on_c, 0, 66, 0
2, 60263, Note_on_c, 0, 63, 0
2, 60360, Note_on_c, 0, 63, 67
2, 60360, Note_on_c, 0, 66, 67
2, 60360, Note_on_c, 0, 72, 67
2, 60383, Note_on_c, 0, 72, 0
2, 60383, Note_on_c, 0, 66, 0
2, 60383, Note_on_c, 0, 63, 0
2, 60480, Note_on_c, 0, 65, 67
2, 60480, Note_on_c, 0, 68, 67
2, 60480, Note_on_c, 0, 73, 67
2, 60503, Note_on_c, 0, 73, 0
2, 60503, Note_on_c, 0, 68, 0
2, 60503, Note_on_c, 0, 65, 0
2, 60600, Note_on_c, 0, 65, 67
2, 60600, Note_on_c, 0, 68, 67
2, 60623, Note_on_c, 0, 68, 0
2, 60623, Note_on_c, 0, 65, 0
2, 60720, Note_on_c, 0, 65, 67
2, 60720, Note_on_c, 0, 68, 67
2, 60720, Note_on_c, 0, 70, 67
2, 60743, Note_on_c, 0, 70, 0
2, 60743, Note_on_c, 0, 68, 0
2, 60743, Note_on_c, 0, 65, 0
2, 60840, Note_on_c, 0, 65, 67
2, 60840, Note_on_c, 0, 68, 67
2, 60840, Note_on_c, 0, 72, 67
2, 60863, Note_on_c, 0, 72, 0
2, 60863, Note_on_c, 0, 68, 0
2, 60863, Note_on_c, 0, 65, 0
2, 60960, Note_on_c, 0, 65, 67
2, 60960, Note_on_c, 0, 68, 67
2, 60960, Note_on_c, 0, 73, 67
2, 60983, Note_on_c, 0, 73, 0
2, 60983, Note_on_c, 0, 68, 0
2, 60983, Note_on_c, 0, 65, 0
2, 61080, Note_on_c, 0, 65, 67
2, 61080, Note_on_c, 0, 68, 67
2, 61080, Note_on_c, 0, 77, 67
2, 61103, Note_on_c, 0, 77, 0
2, 61103, Note_on_c, 0, 68, 0
2, 61103, Note_on_c, 0, 65, 0
2, 61200, Note_on_c, 0, 66, 67
2, 61200, Note_on_c, 0, 72, 67
2, 61200, Note_on_c, 0, 75, 67
2, 61223, Note_on_c, 0, 75, 0
2, 61223, Note_on_c, 0, 72, 0
2, 61223, Note_on_c, 0, 66, 0
2, 61320, Note_on_c, 0, 66, 67
2, 61320, Note_on_c, 0, 72, 67
2, 61320, Note_on_c, 0, 74, 67
2, 61343, Note_on_c, 0, 74, 0
2, 61343, Note_on_c, 0, 72, 0
2, 61343, Note_on_c, 0, 66, 0
2, 61440, Note_on_c, 0, 66, 67
2, 61440, Note_on_c, 0, 72, 67
2, 61440, Note_on_c, 0, 75, 67
2, 61463, Note_on_c, 0, 75, 0
2, 61463, Note_on_c, 0, 72, 0
2, 61463, Note_on_c, 0, 66, 0
2, 61560, Note_on_c, 0, 66, 67
2, 61560, Note_on_c, 0, 72, 67
2, 61560, Note_on_c, 0, 77, 67
2, 61583, Note_on_c, 0, 77, 0
2, 61583, Note_on_c, 0, 72, 0
2, 61583, Note_on_c, 0, 66, 0
2, 61680, Note_on_c, 0, 66, 67
2, 61680, Note_on_c, 0, 72, 67
2, 61680, Note_on_c, 0, 74, 67
2, 61703, Note_on_c, 0, 74, 0
2, 61703, Note_on_c, 0, 72, 0
2, 61703, Note_on_c, 0, 66, 0
2, 61800, Note_on_c, 0, 66, 67
2, 61800, Note_on_c, 0, 72, 67
2, 61800, Note_on_c, 0, 75, 67
2, 61823, Note_on_c, 0, 75, 0
2, 61823, Note_on_c, 0, 72, 0
2, 61823, Note_on_c, 0, 66, 0
2, 61920, Note_on_c, 0, 65, 67
2, 61920, Note_on_c, 0, 73, 67
2, 61943, Note_on_c, 0, 73, 0
2, 61943, Note_on_c, 0, 65, 0
2, 62040, Note_on_c, 0, 65, 67
2, 62040, Note_on_c, 0, 67, 67
2, 62063, Note_on_c, 0, 67, 0
2, 62063, Note_on_c, 0, 65, 0
2, 62160, Note_on_c, 0, 65, 67
2, 62160, Note_on_c, 0, 68, 67
2, 62183, Note_on_c, 0, 68, 0
2, 62183, Note_on_c, 0, 65, 0
2, 62280, Note_on_c, 0, 65, 67
2, 62280, Note_on_c, 0, 69, 67
2, 62303, Note_on_c, 0, 69, 0
2, 62303, Note_on_c, 0, 65, 0
2, 62400, Note_on_c, 0, 61, 67
2, 62400, Note_on_c, 0, 65, 67
2, 62400, Note_on_c, 0, 70, 67
2, 62423, Note_on_c, 0, 70, 0
2, 62423, Note_on_c, 0, 65, 0
2, 62423, Note_on_c, 0, 61, 0
2, 62520, Note_on_c, 0, 61, 67
2, 62520, Note_on_c, 0, 65, 67
2, 62520, Note_on_c, 0, 73, 67
2, 62543, Note_on_c, 0, 73, 0
2, 62543, Note_on_c, 0, 65, 0
2, 62543, Note_on_c, 0, 61, 0
2, 62640, Note_on_c, 0, 60, 67
2, 62640, Note_on_c, 0, 66, 67
2, 62640, Note_on_c, 0, 68, 67
2, 62663, Note_on_c, 0, 68, 0
2, 62663, Note_on_c, 0, 66, 0
2, 62663, Note_on_c, 0, 60, 0
2, 62760, Note_on_c, 0, 60, 67
2, 62760, Note_on_c, 0, 66, 67
2, 62760, Note_on_c, 0, 67, 67
2, 62783, Note_on_c, 0, 67, 0
2, 62783, Note_on_c, 0, 66, 0
2, 62783, Note_on_c, 0, 60, 0
2, 62880, Note_on_c, 0, 60, 67
2, 62880, Note_on_c, 0, 66, 67
2, 62880, Note_on_c, 0, 68, 67
2, 62903, Note_on_c, 0, 68, 0
2, 62903, Note_on_c, 0, 66, 0
2, 62903, Note_on_c, 0, 60, 0
2, 63000, Note_on_c, 0, 60, 67
2, 63000, Note_on_c, 0, 66, 67
2, 63000, Note_on_c, 0, 69, 67
2, 63023, Note_on_c, 0, 69, 0
2, 63023, Note_on_c, 0, 66, 0
2, 63023, Note_on_c, 0, 60, 0
2, 63120, Note_on_c, 0, 60, 67
2, 63120, Note_on_c, 0, 66, 67
2, 63120, Note_on_c, 0, 70, 67
2, 63143, Note_on_c, 0, 70, 0
2, 63143, Note_on_c, 0, 66, 0
2, 63143, Note_on_c, 0, 60, 0
2, 63240, Note_on_c, 0, 60, 67
2, 63240, Note_on_c, 0, 66, 67
2, 63240, Note_on_c, 0, 72, 67
2, 63263, Note_on_c, 0, 72, 0
2, 63263, Note_on_c, 0, 66, 0
2, 63263, Note_on_c, 0, 60, 0
2, 63360, Note_on_c, 0, 65, 67
2, 63360, Note_on_c, 0, 68, 67
2, 63360, Note_on_c, 0, 73, 67
2, 63383, Note_on_c, 0, 73, 0
2, 63383, Note_on_c, 0, 68, 0
2, 63383, Note_on_c, 0, 65, 0
2, 63480, Note_on_c, 0, 65, 67
2, 63480, Note_on_c, 0, 68, 67
2, 63480, Note_on_c, 0, 72, 67
2, 63503, Note_on_c, 0, 72, 0
2, 63503, Note_on_c, 0, 68, 0
2, 63503, Note_on_c, 0, 65, 0
2, 63600, Note_on_c, 0, 65, 67
2, 63600, Note_on_c, 0, 68, 67
2, 63600, Note_on_c, 0, 70, 67
2, 63623, Note_on_c, 0, 70, 0
2, 63623, Note_on_c, 0, 68, 0
2, 63623, Note_on_c, 0, 65, 0
2, 63720, Note_on_c, 0, 65, 67
2, 63720, Note_on_c, 0, 68, 67
2, 63720, Note_on_c, 0, 72, 67
2, 63743, Note_on_c, 0, 72, 0
2, 63743, Note_on_c, 0, 68, 0
2, 63743, Note_on_c, 0, 65, 0
2, 63840, Note_on_c, 0, 65, 67
2, 63840, Note_on_c, 0, 68, 67
2, 63840, Note_on_c, 0, 73, 67
2, 63863, Note_on_c, 0, 73, 0
2, 63863, Note_on_c, 0, 68, 0
2, 63863, Note_on_c, 0, 65, 0
2, 63960, Note_on_c, 0, 65, 67
2, 63960, Note_on_c, 0, 68, 67
2, 63960, Note_on_c, 0, 77, 67
2, 63983, Note_on_c, 0, 77, 0
2, 63983, Note_on_c, 0, 68, 0
2, 63983, Note_on_c, 0, 65, 0
2, 64080, Note_on_c, 0, 66, 67
2, 64080, Note_on_c, 0, 72, 67
2, 64080, Note_on_c, 0, 75, 67
2, 64103, Note_on_c, 0, 75, 0
2, 64103, Note_on_c, 0, 72, 0
2, 64103, Note_on_c, 0, 66, 0
2, 64200, Note_on_c, 0, 66, 67
2, 64200, Note_on_c, 0, 72, 67
2, 64200, Note_on_c, 0, 74, 67
2, 64223, Note_on_c, 0, 74, 0
2, 64223, Note_on_c, 0, 72, 0
2, 64223, Note_on_c, 0, 66, 0
2, 64320, Note_on_c, 0, 66, 67
2, 64320, Note_on_c, 0, 72, 67
2, 64320, Note_on_c, 0, 75, 67
2, 64343, Note_on_c, 0, 75, 0
2, 64343, Note_on_c, 0, 72, 0
2, 64343, Note_on_c, 0, 66, 0
2, 64440, Note_on_c, 0, 66, 67
2, 64440, Note_on_c, 0, 72, 67
2, 64440, Note_on_c, 0, 77, 67
2, 64463, Note_on_c, 0, 77, 0
2, 64463, Note_on_c, 0, 72, 0
2, 64463, Note_on_c, 0, 66, 0
2, 64560, Note_on_c, 0, 66, 67
2, 64560, Note_on_c, 0, 72, 67
2, 64560, Note_on_c, 0, 74, 67
2, 64583, Note_on_c, 0, 74, 0
2, 64583, Note_on_c, 0, 72, 0
2, 64583, Note_on_c, 0, 66, 0
2, 64680, Note_on_c, 0, 66, 67
2, 64680, Note_on_c, 0, 72, 67
2, 64680, Note_on_c, 0, 75, 67
2, 64703, Note_on_c, 0, 75, 0
2, 64703, Note_on_c, 0, 72, 0
2, 64703, Note_on_c, 0, 66, 0
2, 64800, Note_on_c, 0, 65, 67
2, 64800, Note_on_c, 0, 73, 67
2, 64800, Note_on_c, 0, 77, 67
2, 64823, Note_on_c, 0, 77, 0
2, 64823, Note_on_c, 0, 73, 0
2, 64823, Note_on_c, 0, 65, 0
2, 64920, Note_on_c, 0, 64, 67
2, 64920, Note_on_c, 0, 73, 67
2, 64920, Note_on_c, 0, 76, 67
2, 64943, Note_on_c, 0, 76, 0
2, 64943, Note_on_c, 0, 73, 0
2, 64943, Note_on_c, 0, 64, 0
2, 65040, Note_on_c, 0, 65, 67
2, 65040, Note_on_c, 0, 73, 67
2, 65040, Note_on_c, 0, 77, 67
2, 65063, Note_on_c, 0, 77, 0
2, 65063, Note_on_c, 0, 73, 0
2, 65063, Note_on_c, 0, 65, 0
2, 65160, Note_on_c, 0, 66, 67
2, 65160, Note_on_c, 0, 73, 67
2, 65160, Note_on_c, 0, 78, 67
2, 65183, Note_on_c, 0, 78, 0
2, 65183, Note_on_c, 0, 73, 0
2, 65183, Note_on_c, 0, 66, 0
2, 65280, Note_on_c, 0, 64, 67
2, 65280, Note_on_c, 0, 73, 67
2, 65280, Note_on_c, 0, 76, 67
2, 65303, Note_on_c, 0, 76, 0
2, 65303, Note_on_c, 0, 73, 0
2, 65303, Note_on_c, 0, 64, 0
2, 65400, Note_on_c, 0, 65, 67
2, 65400, Note_on_c, 0, 73, 67
2, 65400, Note_on_c, 0, 77, 67
2, 65423, Note_on_c, 0, 77, 0
2, 65423, Note_on_c, 0, 73, 0
2, 65423, Note_on_c, 0, 65, 0
2, 65520, Note_on_c, 0, 68, 80
2, 65520, Note_on_c, 0, 75, 80
2, 65520, Note_on_c, 0, 78, 80
2, 65520, Note_on_c, 0, 80, 80
2, 65543, Note_on_c, 0, 80, 0
2, 65543, Note_on_c, 0, 68, 0
2, 65543, Note_on_c, 0, 75, 0
2, 65543, Note_on_c, 0, 78, 0
2, 65640, Note_on_c, 0, 67, 80
2, 65640, Note_on_c, 0, 75, 80
2, 65640, Note_on_c, 0, 78, 80
2, 65640, Note_on_c, 0, 79, 80
2, 65663, Note_on_c, 0, 79, 0
2, 65663, Note_on_c, 0, 67, 0
2, 65663, Note_on_c, 0, 75, 0
2, 65663, Note_on_c, 0, 78, 0
2, 65760, Note_on_c, 0, 68, 80
2, 65760, Note_on_c, 0, 75, 80
2, 65760, Note_on_c, 0, 78, 80
2, 65760, Note_on_c, 0, 80, 80
2, 65783, Note_on_c, 0, 80, 0
2, 65783, Note_on_c, 0, 68, 0
2, 65783, Note_on_c, 0, 75, 0
2, 65783, Note_on_c, 0, 78, 0
2, 65880, Note_on_c, 0, 70, 80
2, 65880, Note_on_c, 0, 75, 80
2, 65880, Note_on_c, 0, 78, 80
2, 65880, Note_on_c, 0, 82, 80
2, 65903, Note_on_c, 0, 82, 0
2, 65903, Note_on_c, 0, 70, 0
2, 65903, Note_on_c, 0, 75, 0
2, 65903, Note_on_c, 0, 78, 0
2, 66000, Note_on_c, 0, 67, 80
2, 66000, Note_on_c, 0, 75, 80
2, 66000, Note_on_c, 0, 78, 80
2, 66000, Note_on_c, 0, 79, 80
2, 66023, Note_on_c, 0, 79, 0
2, 66023, Note_on_c, 0, 67, 0
2, 66023, Note_on_c, 0, 75, 0
2, 66023, Note_on_c, 0, 78, 0
2, 66120, Note_on_c, 0, 68, 80
2, 66120, Note_on_c, 0, 75, 80
2, 66120, Note_on_c, 0, 78, 80
2, 66120, Note_on_c, 0, 80, 80
2, 66143, Note_on_c, 0, 80, 0
2, 66143, Note_on_c, 0, 68, 0
2, 66143, Note_on_c, 0, 75, 0
2, 66143, Note_on_c, 0, 78, 0
2, 66240, Note_on_c, 0, 64, 80
2, 66240, Note_on_c, 0, 68, 80
2, 66240, Note_on_c, 0, 73, 80
2, 66240, Note_on_c, 0, 76, 80
2, 66263, Note_on_c, 0, 76, 0
2, 66263, Note_on_c, 0, 64, 0
2, 66263, Note_on_c, 0, 68, 0
2, 66263, Note_on_c, 0, 73, 0
2, 66360, Note_on_c, 0, 65, 80
2, 66360, Note_on_c, 0, 68, 80
2, 66360, Note_on_c, 0, 73, 80
2, 66360, Note_on_c, 0, 77, 80
2, 66383, Note_on_c, 0, 77, 0
2, 66383, Note_on_c, 0, 65, 0
2, 66383, Note_on_c, 0, 68, 0
2, 66383, Note_on_c, 0, 73, 0
2, 66480, Note_on_c, 0, 68, 80
2, 66480, Note_on_c, 0, 73, 80
2, 66480, Note_on_c, 0, 80, 80
2, 66503, Note_on_c, 0, 80, 0
2, 66503, Note_on_c, 0, 73, 0
2, 66503, Note_on_c, 0, 68, 0
2, 66600, Note_on_c, 0, 66, 80
2, 66600, Note_on_c, 0, 73, 80
2, 66600, Note_on_c, 0, 78, 80
2, 66623, Note_on_c, 0, 78, 0
2, 66623, Note_on_c, 0, 73, 0
2, 66623, Note_on_c, 0, 66, 0
2, 66720, Note_on_c, 0, 65, 80
2, 66720, Note_on_c, 0, 68, 80
2, 66720, Note_on_c, 0, 73, 80
2, 66720, Note_on_c, 0, 77, 80
2, 66743, Note_on_c, 0, 77, 0
2, 66743, Note_on_c, 0, 65, 0
2, 66743, Note_on_c, 0, 68, 0
2, 66743, Note_on_c, 0, 73, 0
2, 66840, Note_on_c, 0, 61, 80
2, 66840, Note_on_c, 0, 68, 80
2, 66840, Note_on_c, 0, 73, 80
2, 66863, Note_on_c, 0, 73, 0
2, 66863, Note_on_c, 0, 68, 0
2, 66863, Note_on_c, 0, 61, 0
2, 66960, Note_on_c, 0, 63, 80
2, 66960, Note_on_c, 0, 66, 80
2, 66960, Note_on_c, 0, 73, 80
2, 66960, Note_on_c, 0, 75, 80
2, 66983, Note_on_c, 0, 75, 0
2, 66983, Note_on_c, 0, 63, 0
2, 66983, Note_on_c, 0, 66, 0
2, 66983, Note_on_c, 0, 73, 0
2, 67080, Note_on_c, 0, 66, 80
2, 67080, Note_on_c, 0, 73, 80
2, 67080, Note_on_c, 0, 78, 80
2, 67103, Note_on_c, 0, 78, 0
2, 67103, Note_on_c, 0, 73, 0
2, 67103, Note_on_c, 0, 66, 0
2, 67200, Note_on_c, 0, 73, 80
2, 67200, Note_on_c, 0, 78, 80
2, 67200, Note_on_c, 0, 85, 80
2, 67223, Note_on_c, 0, 85, 0
2, 67223, Note_on_c, 0, 78, 0
2, 67223, Note_on_c, 0, 73, 0
2, 67320, Note_on_c, 0, 69, 80
2, 67320, Note_on_c, 0, 73, 80
2, 67320, Note_on_c, 0, 81, 80
2, 67343, Note_on_c, 0, 81, 0
2, 67343, Note_on_c, 0, 73, 0
2, 67343, Note_on_c, 0, 69, 0
2, 67440, Note_on_c, 0, 68, 80
2, 67440, Note_on_c, 0, 73, 80
2, 67440, Note_on_c, 0, 80, 80
2, 67463, Note_on_c, 0, 80, 0
2, 67463, Note_on_c, 0, 73, 0
2, 67463, Note_on_c, 0, 68, 0
2, 67560, Note_on_c, 0, 66, 80
2, 67560, Note_on_c, 0, 73, 80
2, 67560, Note_on_c, 0, 78, 80
2, 67583, Note_on_c, 0, 78, 0
2, 67583, Note_on_c, 0, 73, 0
2, 67583, Note_on_c, 0, 66, 0
2, 67680, Note_on_c, 0, 73, 80
2, 67680, Note_on_c, 0, 85, 80
2, 67800, Note_on_c, 0, 85, 0
2, 67800, Note_on_c, 0, 73, 0
2, 67800, Note_on_c, 0, 75, 80
2, 67800, Note_on_c, 0, 87, 80
2, 67920, Note_on_c, 0, 87, 0
2, 67920, Note_on_c, 0, 75, 0
2, 67920, Note_on_c, 0, 73, 80
2, 67920, Note_on_c, 0, 85, 80
2, 68040, Note_on_c, 0, 85, 0
2, 68040, Note_on_c, 0, 73, 0
2, 68040, Note_on_c, 0, 75, 80
2, 68040, Note_on_c, 0, 87, 80
2, 68160, Note_on_c, 0, 87, 0
2, 68160, Note_on_c, 0, 75, 0
2, 68160, Note_on_c, 0, 73, 80
2, 68160, Note_on_c, 0, 85, 80
2, 68240, Note_on_c, 0, 85, 0
2, 68240, Note_on_c, 0, 73, 0
2, 68240, Note_on_c, 0, 75, 80
2, 68240, Note_on_c, 0, 87, 80
2, 68319, Note_on_c, 0, 87, 0
2, 68319, Note_on_c, 0, 75, 0
2, 68319, Note_on_c, 0, 73, 80
2, 68319, Note_on_c, 0, 85, 80
2, 68400, Note_on_c, 0, 85, 0
2, 68400, Note_on_c, 0, 73, 0
2, 68400, Note_on_c, 0, 75, 80
2, 68400, Note_on_c, 0, 87, 80
2, 68480, Note_on_c, 0, 87, 0
2, 68480, Note_on_c, 0, 75, 0
2, 68480, Note_on_c, 0, 73, 80
2, 68480, Note_on_c, 0, 85, 80
2, 68559, Note_on_c, 0, 85, 0
2, 68559, Note_on_c, 0, 73, 0
2, 68559, Note_on_c, 0, 75, 80
2, 68559, Note_on_c, 0, 87, 80
2, 68640, Note_on_c, 0, 87, 0
2, 68640, Note_on_c, 0, 75, 0
2, 68640, Note_on_c, 0, 73, 80
2, 68640, Note_on_c, 0, 85, 80
2, 68720, Note_on_c, 0, 85, 0
2, 68720, Note_on_c, 0, 73, 0
2, 68720, Note_on_c, 0, 75, 80
2, 68720, Note_on_c, 0, 87, 80
2, 68799, Note_on_c, 0, 87, 0
2, 68799, Note_on_c, 0, 75, 0
2, 68799, Note_on_c, 0, 73, 80
2, 68799, Note_on_c, 0, 85, 80
2, 68880, Note_on_c, 0, 85, 0
2, 68880, Note_on_c, 0, 73, 0
2, 68880, Note_on_c, 0, 75, 80
2, 68880, Note_on_c, 0, 87, 80
2, 68960, Note_on_c, 0, 87, 0
2, 68960, Note_on_c, 0, 75, 0
2, 68960, Note_on_c, 0, 73, 80
2, 68960, Note_on_c, 0, 85, 80
2, 69039, Note_on_c, 0, 85, 0
2, 69039, Note_on_c, 0, 73, 0
2, 69039, Note_on_c, 0, 75, 80
2, 69039, Note_on_c, 0, 87, 80
2, 69120, Note_on_c, 0, 87, 0
2, 69120, Note_on_c, 0, 75, 0
2, 69120, Note_on_c, 0, 85, 80
2, 69159, Note_on_c, 0, 85, 0
2, 69159, Note_on_c, 0, 87, 80
2, 69200, Note_on_c, 0, 87, 0
2, 69200, Note_on_c, 0, 85, 80
2, 69240, Note_on_c, 0, 85, 0
2, 69240, Note_on_c, 0, 87, 80
2, 69279, Note_on_c, 0, 87, 0
2, 69279, Note_on_c, 0, 85, 80
2, 69320, Note_on_c, 0, 85, 0
2, 69320, Note_on_c, 0, 87, 80
2, 69360, Note_on_c, 0, 87, 0
2, 69360, Note_on_c, 0, 85, 80
2, 69399, Note_on_c, 0, 85, 0
2, 69399, Note_on_c, 0, 87, 80
2, 69440, Note_on_c, 0, 87, 0
2, 69440, Note_on_c, 0, 85, 80
2, 69480, Note_on_c, 0, 85, 0
2, 69480, Note_on_c, 0, 87, 80
2, 69519, Note_on_c, 0, 87, 0
2, 69519, Note_on_c, 0, 85, 80
2, 69560, Note_on_c, 0, 85, 0
2, 69560, Note_on_c, 0, 87, 80
2, 69600, Note_on_c, 0, 87, 0
2, 69600, Note_on_c, 0, 85, 80
2, 69639, Note_on_c, 0, 85, 0
2, 69639, Note_on_c, 0, 87, 80
2, 69680, Note_on_c, 0, 87, 0
2, 69680, Note_on_c, 0, 85, 80
2, 69720, Note_on_c, 0, 85, 0
2, 69720, Note_on_c, 0, 87, 80
2, 69759, Note_on_c, 0, 87, 0
2, 69759, Note_on_c, 0, 84, 80
2, 69800, Note_on_c, 0, 84, 0
2, 69800, Note_on_c, 0, 85, 80
2, 69840, Note_on_c, 0, 85, 0
2, 69840, Note_on_c, 0, 92, 80
2, 69900, Note_on_c, 0, 92, 0
2, 69900, Note_on_c, 0, 90, 80
2, 69960, Note_on_c, 0, 90, 0
2, 69960, Note_on_c, 0, 89, 80
2, 70020, Note_on_c, 0, 89, 0
2, 70020, Note_on_c, 0, 87, 80
2, 70080, Note_on_c, 0, 87, 0
2, 70080, Note_on_c, 0, 85, 67
2, 70140, Note_on_c, 0, 85, 0
2, 70140, Note_on_c, 0, 84, 67
2, 70200, Note_on_c, 0, 84, 0
2, 70200, Note_on_c, 0, 82, 67
2, 70260, Note_on_c, 0, 82, 0
2, 70260, Note_on_c, 0, 80, 67
2, 70320, Note_on_c, 0, 80, 0
2, 70320, Note_on_c, 0, 84, 67
2, 70359, Note_on_c, 0, 84, 0
2, 70359, Note_on_c, 0, 82, 67
2, 70400, Note_on_c, 0, 82, 0
2, 70400, Note_on_c, 0, 80, 67
2, 70440, Note_on_c, 0, 80, 0
2, 70440, Note_on_c, 0, 78, 67
2, 70479, Note_on_c, 0, 78, 0
2, 70479, Note_on_c, 0, 77, 67
2, 70520, Note_on_c, 0, 77, 0
2, 70520, Note_on_c, 0, 75, 67
2, 70560, Note_on_c, 0, 75, 0
2, 70680, Control_c, 0, 64, 127
2, 70680, Note_on_c, 0, 73, 54
2, 70680, Note_on_c, 0, 77, 54
2, 70680, Note_on_c, 0, 80, 54
2, 70920, Note_on_c, 0, 80, 0
2, 70920, Note_on_c, 0, 77, 0
2, 70920, Note_on_c, 0, 73, 0
2, 70920, Note_on_c, 0, 68, 54
2, 70920, Note_on_c, 0, 73, 54
2, 70920, Note_on_c, 0, 77, 54
2, 71160, Note_on_c, 0, 77, 0
2, 71160, Note_on_c, 0, 73, 0
2, 71160, Note_on_c, 0, 68, 0
2, 71160, Note_on_c, 0, 65, 54
2, 71160, Note_on_c, 0, 68, 54
2, 71160, Note_on_c, 0, 73, 54
2, 71280, Note_on_c, 0, 73, 0
2, 71280, Note_on_c, 0, 68, 0
2, 71280, Note_on_c, 0, 65, 0
2, 71280, Control_c, 0, 64, 0
2, 71400, Control_c, 0, 64, 127
2, 71400, Note_on_c, 0, 72, 54
2, 71400, Note_on_c, 0, 78, 54
2, 71400, Note_on_c, 0, 80, 54
2, 71640, Note_on_c, 0, 80, 0
2, 71640, Note_on_c, 0, 78, 0
2, 71640, Note_on_c, 0, 72, 0
2, 71640, Note_on_c, 0, 68, 54
2, 71640, Note_on_c, 0, 72, 54
2, 71640, Note_on_c, 0, 78, 54
2, 71880, Note_on_c, 0, 78, 0
2, 71880, Note_on_c, 0, 72, 0
2, 71880, Note_on_c, 0, 68, 0
2, 71880, Note_on_c, 0, 66, 54
2, 71880, Note_on_c, 0, 68, 54
2, 71880, Note_on_c, 0, 72, 54
2, 72000, Note_on_c, 0, 72, 0
2, 72000, Note_on_c, 0, 68, 0
2, 72000, Note_on_c, 0, 66, 0
2, 72000, Control_c, 0, 64, 0
2, 72120, Control_c, 0, 64, 127
2, 72120, Note_on_c, 0, 73, 54
2, 72120, Note_on_c, 0, 77, 54
2, 72120, Note_on_c, 0, 80, 54
2, 72360, Note_on_c, 0, 80, 0
2, 72360, Note_on_c, 0, 77, 0
2, 72360, Note_on_c, 0, 73, 0
2, 72360, Note_on_c, 0, 68, 54
2, 72360, Note_on_c, 0, 73, 54
2, 72360, Note_on_c, 0, 77, 54
2, 72600, Note_on_c, 0, 77, 0
2, 72600, Note_on_c, 0, 73, 0
2, 72600, Note_on_c, 0, 68, 0
2, 72600, Note_on_c, 0, 65, 54
2, 72600, Note_on_c, 0, 68, 54
2, 72600, Note_on_c, 0, 73, 54
2, 72720, Note_on_c, 0, 73, 0
2, 72720, Note_on_c, 0, 68, 0
2, 72720, Note_on_c, 0, 65, 0
2, 72720, Control_c, 0, 64, 0
2, 72840, Control_c, 0, 64, 127
2, 72840, Note_on_c, 0, 72, 54
2, 72840, Note_on_c, 0, 78, 54
2, 72840, Note_on_c, 0, 80, 54
2, 73080, Note_on_c, 0, 80, 0
2, 73080, Note_on_c, 0, 78, 0
2, 73080, Note_on_c, 0, 72, 0
2, 73080, Note_on_c, 0, 68, 54
2, 73080, Note_on_c, 0, 72, 54
2, 73080, Note_on_c, 0, 78, 54
2, 73320, Note_on_c, 0, 78, 0
2, 73320, Note_on_c, 0, 72, 0
2, 73320, Note_on_c, 0, 68, 0
2, 73320, Control_c, 0, 64, 0
2, 73320, Note_on_c, 0, 66, 54
2, 73320, Note_on_c, 0, 68, 54
2, 73320, Note_on_c, 0, 72, 54
2, 73440, Note_on_c, 0, 72, 0
2, 73440, Note_on_c, 0, 68, 0
2, 73440, Note_on_c, 0, 66, 0
2, 73560, Control_c, 0, 64, 127
2, 73560, Note_on_c, 0, 77, 54
2, 73560, Note_on_c, 0, 80, 54
2, 73800, Note_on_c, 0, 80, 0
2, 73800, Note_on_c, 0, 77, 0
2, 73800, Note_on_c, 0, 68, 54
2, 73800, Note_on_c, 0, 77, 54
2, 74040, Note_on_c, 0, 77, 0
2, 74040, Note_on_c, 0, 68, 0
2, 74040, Note_on_c, 0, 65, 54
2, 74040, Note_on_c, 0, 68, 54
2, 74040, Note_on_c, 0, 73, 54
2, 74160, Note_on_c, 0, 73, 0
2, 74160, Note_on_c, 0, 68, 0
2, 74160, Note_on_c, 0, 65, 0
2, 74160, Control_c, 0, 64, 0
2, 74280, Control_c, 0, 64, 127
2, 74280, Note_on_c, 0, 72, 54
2, 74280, Note_on_c, 0, 78, 54
2, 74280, Note_on_c, 0, 80, 54
2, 74520, Note_on_c, 0, 80, 0
2, 74520, Note_on_c, 0, 78, 0
2, 74520, Note_on_c, 0, 72, 0
2, 74520, Note_on_c, 0, 68, 54
2, 74520, Note_on_c, 0, 72, 54
2, 74520, Note_on_c, 0, 78, 54
2, 74760, Note_on_c, 0, 78, 0
2, 74760, Note_on_c, 0, 72, 0
2, 74760, Note_on_c, 0, 68, 0
2, 74760, Control_c, 0, 64, 0
2, 74760, Note_on_c, 0, 66, 54
2, 74760, Note_on_c, 0, 68, 54
2, 74760, Note_on_c, 0, 72, 54
2, 74880, Note_on_c, 0, 72, 0
2, 74880, Note_on_c, 0, 68, 0
2, 74880, Note_on_c, 0, 66, 0
2, 75000, Control_c, 0, 64, 127
2, 75000, Note_on_c, 0, 73, 54
2, 75000, Note_on_c, 0, 77, 54
2, 75000, Note_on_c, 0, 80, 54
2, 75240, Note_on_c, 0, 80, 0
2, 75240, Note_on_c, 0, 77, 0
2, 75240, Note_on_c, 0, 73, 0
2, 75240, Note_on_c, 0, 68, 54
2, 75240, Note_on_c, 0, 73, 54
2, 75240, Note_on_c, 0, 77, 54
2, 75480, Note_on_c, 0, 77, 0
2, 75480, Note_on_c, 0, 73, 0
2, 75480, Note_on_c, 0, 68, 0
2, 75480, Note_on_c, 0, 65, 54
2, 75480, Note_on_c, 0, 68, 54
2, 75480, Note_on_c, 0, 73, 54
2, 75600, Note_on_c, 0, 73, 0
2, 75600, Note_on_c, 0, 68, 0
2, 75600, Note_on_c, 0, 65, 0
2, 75600, Control_c, 0, 64, 0
2, 75720, Control_c, 0, 64, 127
2, 75720, Note_on_c, 0, 72, 54
2, 75720, Note_on_c, 0, 78, 54
2, 75720, Note_on_c, 0, 80, 54
2, 75960, Note_on_c, 0, 80, 0
2, 75960, Note_on_c, 0, 78, 0
2, 75960, Note_on_c, 0, 72, 0
2, 75960, Note_on_c, 0, 68, 54
2, 75960, Note_on_c, 0, 72, 54
2, 75960, Note_on_c, 0, 78, 54
2, 76200, Note_on_c, 0, 78, 0
2, 76200, Note_on_c, 0, 72, 0
2, 76200, Note_on_c, 0, 68, 0
2, 76200, Note_on_c, 0, 66, 54
2, 76200, Note_on_c, 0, 68, 54
2, 76200, Note_on_c, 0, 72, 54
2, 76320, Note_on_c, 0, 72, 0
2, 76320, Note_on_c, 0, 68, 0
2, 76320, Note_on_c, 0, 66, 0
2, 76320, Control_c, 0, 64, 0
2, 76440, Control_c, 0, 64, 127
2, 76440, Note_on_c, 0, 73, 67
2, 76440, Note_on_c, 0, 77, 67
2, 76440, Note_on_c, 0, 80, 67
2, 76680, Note_on_c, 0, 80, 0
2, 76680, Note_on_c, 0, 77, 0
2, 76680, Note_on_c, 0, 73, 0
2, 76680, Note_on_c, 0, 68, 67
2, 76680, Note_on_c, 0, 73, 67
2, 76680, Note_on_c, 0, 77, 67
2, 76920, Note_on_c, 0, 77, 0
2, 76920, Note_on_c, 0, 73, 0
2, 76920, Note_on_c, 0, 68, 0
2, 76920, Note_on_c, 0, 65, 67
2, 76920, Note_on_c, 0, 68, 67
2, 76920, Note_on_c, 0, 73, 67
2, 77040, Note_on_c, 0, 73, 0
2, 77040, Note_on_c, 0, 68, 0
2, 77040, Note_on_c, 0, 65, 0
2, 77040, Control_c, 0, 64, 0
2, 77160, Control_c, 0, 64, 127
2, 77160, Note_on_c, 0, 75, 67
2, 77160, Note_on_c, 0, 78, 67
2, 77160, Note_on_c, 0, 80, 67
2, 77400, Note_on_c, 0, 80, 0
2, 77400, Note_on_c, 0, 78, 0
2, 77400, Note_on_c, 0, 75, 0
2, 77400, Note_on_c, 0, 68, 67
2, 77400, Note_on_c, 0, 72, 67
2, 77400, Note_on_c, 0, 78, 67
2, 77640, Note_on_c, 0, 78, 0
2, 77640, Note_on_c, 0, 72, 0
2, 77640, Note_on_c, 0, 68, 0
2, 77640, Control_c, 0, 64, 0
2, 77640, Note_on_c, 0, 66, 67
2, 77640, Note_on_c, 0, 68, 67
2, 77640, Note_on_c, 0, 75, 67
2, 77760, Note_on_c, 0, 75, 0
2, 77760, Note_on_c, 0, 68, 0
2, 77760, Note_on_c, 0, 66, 0
2, 77760, Control_c, 0, 64, 0
2, 77880, Control_c, 0, 64, 127
2, 77880, Note_on_c, 0, 73, 67
2, 77880, Note_on_c, 0, 77, 67
2, 77880, Note_on_c, 0, 80, 67
2, 78120, Note_on_c, 0, 80, 0
2, 78120, Note_on_c, 0, 77, 0
2, 78120, Note_on_c, 0, 73, 0
2, 78120, Note_on_c, 0, 68, 67
2, 78120, Note_on_c, 0, 73, 67
2, 78120, Note_on_c, 0, 77, 67
2, 78360, Note_on_c, 0, 77, 0
2, 78360, Note_on_c, 0, 73, 0
2, 78360, Note_on_c, 0, 68, 0
2, 78360, Note_on_c, 0, 65, 67
2, 78360, Note_on_c, 0, 68, 67
2, 78360, Note_on_c, 0, 73, 67
2, 78480, Note_on_c, 0, 73, 0
2, 78480, Note_on_c, 0, 68, 0
2, 78480, Note_on_c, 0, 65, 0
2, 78480, Control_c, 0, 64, 0
2, 78600, Control_c, 0, 64, 127
2, 78600, Note_on_c, 0, 78, 67
2, 78600, Note_on_c, 0, 85, 67
2, 78840, Note_on_c, 0, 85, 0
2, 78840, Note_on_c, 0, 78, 0
2, 78840, Note_on_c, 0, 73, 67
2, 78840, Note_on_c, 0, 78, 67
2, 79080, Note_on_c, 0, 78, 0
2, 79080, Note_on_c, 0, 73, 0
2, 79080, Control_c, 0, 64, 0
2, 79080, Note_on_c, 0, 66, 67
2, 79080, Note_on_c, 0, 73, 67
2, 79200, Note_on_c, 0, 73, 0
2, 79200, Note_on_c, 0, 66, 0
2, 79320, Control_c, 0, 64, 127
2, 79320, Note_on_c, 0, 77, 67
2, 79320, Note_on_c, 0, 80, 67
2, 79320, Note_on_c, 0, 85, 67
2, 79560, Note_on_c, 0, 85, 0
2, 79560, Note_on_c, 0, 80, 0
2, 79560, Note_on_c, 0, 77, 0
2, 79560, Note_on_c, 0, 73, 67
2, 79560, Note_on_c, 0, 80, 67
2, 79800, Note_on_c, 0, 80, 0
2, 79800, Note_on_c, 0, 73, 0
2, 79800, Note_on_c, 0, 68, 67
2, 79800, Note_on_c, 0, 73, 67
2, 79920, Note_on_c, 0, 73, 0
2, 79920, Note_on_c, 0, 68, 0
2, 79920, Control_c, 0, 64, 0
2, 80040, Control_c, 0, 64, 127
2, 80040, Note_on_c, 0, 76, 67
2, 80040, Note_on_c, 0, 82, 67
2, 80040, Note_on_c, 0, 85, 67
2, 80280, Note_on_c, 0, 85, 0
2, 80280, Note_on_c, 0, 82, 0
2, 80280, Note_on_c, 0, 76, 0
2, 80280, Note_on_c, 0, 70, 67
2, 80280, Note_on_c, 0, 76, 67
2, 80280, Note_on_c, 0, 82, 67
2, 80520, Note_on_c, 0, 82, 0
2, 80520, Note_on_c, 0, 76, 0
2, 80520, Note_on_c, 0, 70, 0
2, 80520, Control_c, 0, 64, 0
2, 80520, Note_on_c, 0, 70, 67
2, 80520, Note_on_c, 0, 72, 67
2, 80520, Note_on_c, 0, 76, 67
2, 80640, Note_on_c, 0, 76, 0
2, 80640, Note_on_c, 0, 72, 0
2, 80640, Note_on_c, 0, 70, 0
2, 80640, Control_c, 0, 64, 127
2, 80640, Note_on_c, 0, 69, 67
2, 80640, Note_on_c, 0, 72, 67
2, 80640, Note_on_c, 0, 77, 67
2, 80880, Note_on_c, 0, 77, 0
2, 80880, Note_on_c, 0, 72, 0
2, 80880, Note_on_c, 0, 69, 0
2, 81360, Note_on_c, 0, 64, 67
2, 81480, Note_on_c, 0, 64, 0
2, 81480, Note_on_c, 0, 65, 67
2, 81600, Note_on_c, 0, 65, 0
2, 81600, Note_on_c, 0, 69, 67
2, 81720, Note_on_c, 0, 69, 0
2, 81720, Note_on_c, 0, 72, 67
2, 81840, Note_on_c, 0, 72, 0
2, 81840, Note_on_c, 0, 76, 67
2, 81960, Note_on_c, 0, 76, 0
2, 81960, Control_c, 0, 64, 0
2, 81960, Note_on_c, 0, 77, 67
2, 82000, Note_on_c, 0, 69, 67
2, 82040, Note_on_c, 0, 77, 67
2, 82080, Note_on_c, 0, 77, 0
2, 82080, Control_c, 0, 64, 127
2, 82080, Note_on_c, 0, 84, 67
2, 82440, Note_on_c, 0, 84, 0
2, 82440, Note_on_c, 0, 77, 0
2, 82440, Note_on_c, 0, 69, 0
2, 82440, Note_on_c, 0, 69, 67
2, 82440, Note_on_c, 0, 72, 67
2, 82560, Note_on_c, 0, 72, 0
2, 82560, Note_on_c, 0, 69, 0
2, 82560, Note_on_c, 0, 72, 67
2, 82560, Note_on_c, 0, 77, 67
2, 82680, Note_on_c, 0, 77, 0
2, 82680, Note_on_c, 0, 72, 0
2, 82680, Note_on_c, 0, 77, 67
2, 82680, Note_on_c, 0, 81, 67
2, 82800, Note_on_c, 0, 81, 0
2, 82800, Note_on_c, 0, 77, 0
2, 82800, Note_on_c, 0, 81, 67
2, 82800, Note_on_c, 0, 84, 67
2, 82920, Note_on_c, 0, 84, 0
2, 82920, Note_on_c, 0, 81, 0
2, 82920, Note_on_c, 0, 84, 67
2, 82920, Note_on_c, 0, 89, 67
2, 83040, Note_on_c, 0, 89, 0
2, 83040, Note_on_c, 0, 84, 0
2, 83040, Note_on_c, 0, 89, 67
2, 83040, Note_on_c, 0, 93, 67
2, 83160, Note_on_c, 0, 93, 0
2, 83160, Note_on_c, 0, 89, 0
2, 83160, Note_on_c, 0, 93, 67
2, 83160, Note_on_c, 0, 96, 67
2, 83280, Note_on_c, 0, 96, 0
2, 83280, Note_on_c, 0, 93, 0
2, 83280, Control_c, 0, 64, 0
2, 83280, Note_on_c, 0, 96, 67
2, 83280, Note_on_c, 0, 101, 67
2, 83760, Note_on_c, 0, 101, 0
2, 83760, Note_on_c, 0, 96, 0
2, 85920, Note_on_c, 0, 57, 93
2, 85920, Note_on_c, 0, 60, 93
2, 85920, Note_on_c, 0, 64, 93
2, 86160, Note_on_c, 0, 64, 0
2, 86160, Note_on_c, 0, 65, 67
2, 86400, Note_on_c, 0, 65, 0
2, 86400, Note_on_c, 0, 60, 0
2, 86400, Note_on_c, 0, 57, 0
2, 86400, Note_on_c, 0, 69, 93
2, 86400, Note_on_c, 0, 77, 93
2, 86640, Note_on_c, 0, 77, 0
2, 86640, Note_on_c, 0, 69, 0
2, 86640, Note_on_c, 0, 70, 67
2, 86640, Note_on_c, 0, 74, 67
2, 86880, Note_on_c, 0, 74, 0
2, 86880, Note_on_c, 0, 70, 0
2, 86880, Note_on_c, 0, 66, 67
2, 86880, Note_on_c, 0, 72, 67
2, 86927, Note_on_c, 0, 72, 0
2, 86927, Note_on_c, 0, 66, 0
2, 87120, Note_on_c, 0, 68, 93
2, 87120, Note_on_c, 0, 76, 93
2, 87360, Note_on_c, 0, 76, 0
2, 87360, Note_on_c, 0, 68, 0
2, 87360, Note_on_c, 0, 69, 67
2, 87360, Note_on_c, 0, 72, 67
2, 87600, Note_on_c, 0, 72, 0
2, 87600, Note_on_c, 0, 69, 0
2, 87600, Note_on_c, 0, 57, 67
2, 87600, Note_on_c, 0, 60, 67
2, 87600, Note_on_c, 0, 64, 67
2, 87600, Note_on_c, 0, 67, 67
2, 87647, Note_on_c, 0, 67, 0
2, 87647, Note_on_c, 0, 57, 0
2, 87647, Note_on_c, 0, 60, 0
2, 87647, Note_on_c, 0, 64, 0
2, 87840, Note_on_c, 0, 62, 67
2, 87840, Note_on_c, 0, 65, 67
2, 88080, Note_on_c, 0, 65, 0
2, 88080, Note_on_c, 0, 62, 0
2, 88080, Note_on_c, 0, 61, 67
2, 88080, Note_on_c, 0, 64, 67
2, 88080, Note_on_c, 0, 70, 67
2, 88320, Note_on_c, 0, 70, 0
2, 88320, Note_on_c, 0, 64, 0
2, 88320, Note_on_c, 0, 61, 0
2, 88320, Note_on_c, 0, 54, 93
2, 88320, Note_on_c, 0, 60, 93
2, 88320, Note_on_c, 0, 63, 93
2, 88560, Note_on_c, 0, 63, 0
2, 88560, Note_on_c, 0, 60, 0
2, 88560, Note_on_c, 0, 54, 0
2, 88560, Note_on_c, 0, 61, 67
2, 88560, Note_on_c, 0, 64, 67
2, 88560, Note_on_c, 0, 70, 67
2, 88800, Note_on_c, 0, 70, 0
2, 88800, Note_on_c, 0, 64, 0
2, 88800, Note_on_c, 0, 61, 0
2, 89040, Note_on_c, 0, 56, 93
2, 89040, Note_on_c, 0, 61, 93
2, 89280, Note_on_c, 0, 61, 0
2, 89280, Note_on_c, 0, 56, 0
2, 89280, Note_on_c, 0, 57, 67
2, 89280, Note_on_c, 0, 60, 67
2, 89520, Note_on_c, 0, 60, 0
2, 89520, Note_on_c, 0, 57, 0
2, 89520, Note_on_c, 0, 55, 67
2, 89640, Note_on_c, 0, 55, 0
2, 89640, Note_on_c, 0, 56, 67
2, 89760, Note_on_c, 0, 56, 0
2, 89760, Note_on_c, 0, 64, 67
2, 89880, Note_on_c, 0, 64, 0
2, 89880, Note_on_c, 0, 65, 67
2, 90000, Note_on_c, 0, 65, 0
2, 90000, Note_on_c, 0, 67, 67
2, 90120, Note_on_c, 0, 67, 0
2, 90120, Note_on_c, 0, 68, 67
2, 90240, Note_on_c, 0, 68, 0
2, 90240, Note_on_c, 0, 76, 67
2, 90360, Note_on_c, 0, 76, 0
2, 90360, Note_on_c, 0, 77, 67
2, 90480, Note_on_c, 0, 77, 0
2, 90480, Note_on_c, 0, 71, 67
2, 90600, Note_on_c, 0, 71, 0
2, 90600, Note_on_c, 0, 72, 67
2, 90720, Note_on_c, 0, 72, 0
2, 90720, Note_on_c, 0, 80, 67
2, 90840, Note_on_c, 0, 80, 0
2, 90840, Note_on_c, 0, 81, 67
2, 90960, Note_on_c, 0, 81, 0
2, 90960, Control_c, 0, 64, 127
2, 90960, Note_on_c, 0, 79, 67
2, 91080, Note_on_c, 0, 79, 0
2, 91080, Note_on_c, 0, 80, 67
2, 91200, Note_on_c, 0, 80, 0
2, 91200, Note_on_c, 0, 88, 93
2, 91320, Note_on_c, 0, 88, 0
2, 91320, Note_on_c, 0, 89, 67
2, 91440, Note_on_c, 0, 89, 0
2, 91440, Note_on_c, 0, 91, 93
2, 91560, Note_on_c, 0, 91, 0
2, 91560, Note_on_c, 0, 92, 67
2, 91680, Note_on_c, 0, 92, 0
2, 91680, Note_on_c, 0, 94, 67
2, 91800, Note_on_c, 0, 94, 0
2, 91800, Note_on_c, 0, 95, 67
2, 91920, Note_on_c, 0, 95, 0
2, 91920, Control_c, 0, 64, 0
2, 91920, Note_on_c, 0, 89, 67
2, 91920, Note_on_c, 0, 93, 67
2, 91920, Note_on_c, 0, 101, 67
2, 92160, Note_on_c, 0, 101, 0
2, 92160, Note_on_c, 0, 93, 0
2, 92160, Note_on_c, 0, 89, 0
2, 92160, Note_on_c, 0, 81, 67
2, 92160, Note_on_c, 0, 89, 67
2, 92400, Note_on_c, 0, 89, 0
2, 92400, Note_on_c, 0, 81, 0
2, 92400, Note_on_c, 0, 82, 67
2, 92400, Note_on_c, 0, 86, 67
2, 92640, Note_on_c, 0, 86, 0
2, 92640, Note_on_c, 0, 82, 0
2, 92640, Note_on_c, 0, 78, 67
2, 92640, Note_on_c, 0, 84, 67
2, 92687, Note_on_c, 0, 84, 0
2, 92687, Note_on_c, 0, 78, 0
2, 92880, Note_on_c, 0, 80, 93
2, 92880, Note_on_c, 0, 88, 93
2, 93120, Note_on_c, 0, 88, 0
2, 93120, Note_on_c, 0, 80, 0
2, 93120, Note_on_c, 0, 81, 67
2, 93120, Note_on_c, 0, 84, 67
2, 93360, Note_on_c, 0, 84, 0
2, 93360, Note_on_c, 0, 81, 0
2, 93360, Note_on_c, 0, 69, 67
2, 93360, Note_on_c, 0, 72, 67
2, 93360, Note_on_c, 0, 76, 67
2, 93360, Note_on_c, 0, 79, 67
2, 93407, Note_on_c, 0, 79, 0
2, 93407, Note_on_c, 0, 69, 0
2, 93407, Note_on_c, 0, 72, 0
2, 93407, Note_on_c, 0, 76, 0
2, 93600, Note_on_c, 0, 74, 67
2, 93600, Note_on_c, 0, 77, 67
2, 93840, Note_on_c, 0, 77, 0
2, 93840, Note_on_c, 0, 74, 0
2, 93840, Note_on_c, 0, 73, 67
2, 93840, Note_on_c, 0, 76, 67
2, 93840, Note_on_c, 0, 82, 67
2, 93887, Note_on_c, 0, 82, 0
2, 93887, Note_on_c, 0, 76, 0
2, 93887, Note_on_c, 0, 73, 0
2, 94080, Note_on_c, 0, 66, 67
2, 94080, Note_on_c, 0, 72, 67
2, 94080, Note_on_c, 0, 75, 67
2, 94127, Note_on_c, 0, 75, 0
2, 94127, Note_on_c, 0, 72, 0
2, 94127, Note_on_c, 0, 66, 0
2, 94320, Note_on_c, 0, 73, 67
2, 94320, Note_on_c, 0, 76, 67
2, 94320, Note_on_c, 0, 82, 67
2, 94367, Note_on_c, 0, 82, 0
2, 94367, Note_on_c, 0, 76, 0
2, 94367, Note_on_c, 0, 73, 0
2, 94560, Note_on_c, 0, 61, 67
2, 94560, Note_on_c, 0, 65, 67
2, 94560, Note_on_c, 0, 71, 67
2, 94607, Note_on_c, 0, 71, 0
2, 94607, Note_on_c, 0, 65, 0
2, 94607, Note_on_c, 0, 61, 0
2, 94800, Note_on_c, 0, 68, 93
2, 94800, Note_on_c, 0, 73, 93
2, 95040, Note_on_c, 0, 73, 0
2, 95040, Note_on_c, 0, 68, 0
2, 95040, Note_on_c, 0, 69, 67
2, 95040, Note_on_c, 0, 72, 67
2, 95280, Note_on_c, 0, 72, 0
2, 95280, Note_on_c, 0, 69, 0
2, 95280, Note_on_c, 0, 66, 67
2, 95400, Note_on_c, 0, 66, 0
2, 95400, Note_on_c, 0, 67, 67
2, 95520, Note_on_c, 0, 67, 0
2, 95520, Note_on_c, 0, 75, 67
2, 95640, Note_on_c, 0, 75, 0
2, 95640, Note_on_c, 0, 76, 67
2, 95760, Note_on_c, 0, 76, 0
2, 95760, Note_on_c, 0, 63, 67
2, 95880, Note_on_c, 0, 63, 0
2, 95880, Note_on_c, 0, 64, 67
2, 96000, Note_on_c, 0, 64, 0
2, 96000, Note_on_c, 0, 72, 67
2, 96120, Note_on_c, 0, 72, 0
2, 96120, Note_on_c, 0, 73, 67
2, 96240, Note_on_c, 0, 73, 0
2, 96240, Note_on_c, 0, 60, 67
2, 96360, Note_on_c, 0, 60, 0
2, 96360, Note_on_c, 0, 61, 67
2, 96480, Note_on_c, 0, 61, 0
2, 96480, Note_on_c, 0, 68, 67
2, 96600, Note_on_c, 0, 68, 0
2, 96600, Note_on_c, 0, 69, 67
2, 96720, Note_on_c, 0, 69, 0
2, 96720, Control_c, 0, 64, 127
2, 96720, Note_on_c, 0, 53, 67
2, 96840, Note_on_c, 0, 53, 0
2, 96840, Note_on_c, 0, 59, 67
2, 96960, Note_on_c, 0, 59, 0
2, 96960, Note_on_c, 0, 64, 67
2, 97080, Note_on_c, 0, 64, 0
2, 97080, Note_on_c, 0, 65, 67
2, 97200, Note_on_c, 0, 65, 0
2, 97200, Note_on_c, 0, 65, 67
2, 97320, Note_on_c, 0, 65, 0
2, 97320, Note_on_c, 0, 71, 67
2, 97440, Note_on_c, 0, 71, 0
2, 97440, Note_on_c, 0, 76, 67
2, 97560, Note_on_c, 0, 76, 0
2, 97560, Note_on_c, 0, 77, 67
2, 97680, Note_on_c, 0, 77, 0
2, 97680, Note_on_c, 0, 75, 67
2, 97800, Note_on_c, 0, 75, 0
2, 97800, Note_on_c, 0, 76, 67
2, 97920, Note_on_c, 0, 76, 0
2, 97920, Control_c, 0, 64, 0
2, 97920, Note_on_c, 0, 81, 67
2, 98160, Note_on_c, 0, 81, 0
2, 98400, Control_c, 0, 64, 127
2, 98400, Note_on_c, 0, 69, 80
2, 98400, Note_on_c, 0, 81, 80
2, 98520, Note_on_c, 0, 81, 0
2, 98520, Note_on_c, 0, 69, 0
2, 98520, Note_on_c, 0, 70, 80
2, 98640, Note_on_c, 0, 70, 0
2, 98640, Note_on_c, 0, 71, 80
2, 98640, Note_on_c, 0, 83, 80
2, 98760, Note_on_c, 0, 83, 0
2, 98760, Note_on_c, 0, 71, 0
2, 98760, Note_on_c, 0, 72, 80
2, 98880, Note_on_c, 0, 72, 0
2, 98880, Note_on_c, 0, 73, 80
2, 98880, Note_on_c, 0, 85, 80
2, 99000, Note_on_c, 0, 85, 0
2, 99000, Note_on_c, 0, 73, 0
2, 99000, Note_on_c, 0, 74, 80
2, 99120, Note_on_c, 0, 74, 0
2, 99120, Note_on_c, 0, 75, 80
2, 99120, Note_on_c, 0, 87, 80
2, 99240, Note_on_c, 0, 87, 0
2, 99240, Note_on_c, 0, 75, 0
2, 99240, Note_on_c, 0, 76, 80
2, 99360, Note_on_c, 0, 76, 0
2, 99360, Control_c, 0, 64, 0
2, 99360, Note_on_c, 0, 77, 80
2, 99360, Note_on_c, 0, 89, 80
2, 99600, Note_on_c, 0, 89, 0
2, 99600, Note_on_c, 0, 77, 0
2, 99600, Note_on_c, 0, 71, 80
2, 99720, Note_on_c, 0, 71, 0
2, 99720, Note_on_c, 0, 77, 80
2, 99840, Note_on_c, 0, 77, 0
2, 99840, Note_on_c, 0, 76, 80
2, 99960, Note_on_c, 0, 76, 0
2, 99960, Note_on_c, 0, 82, 80
2, 100080, Note_on_c, 0, 82, 0
2, 100080, Note_on_c, 0, 81, 80
2, 100200, Note_on_c, 0, 81, 0
2, 100200, Note_on_c, 0, 87, 80
2, 100320, Note_on_c, 0, 87, 0
2, 100320, Note_on_c, 0, 80, 80
2, 100440, Note_on_c, 0, 80, 0
2, 100440, Note_on_c, 0, 86, 80
2, 100560, Note_on_c, 0, 86, 0
2, 100560, Note_on_c, 0, 79, 80
2, 100680, Note_on_c, 0, 79, 0
2, 100680, Note_on_c, 0, 85, 80
2, 100680, Note_on_c, 0, 91, 80
2, 100800, Note_on_c, 0, 91, 0
2, 100800, Note_on_c, 0, 85, 0
2, 100800, Note_on_c, 0, 84, 80
2, 100920, Note_on_c, 0, 84, 0
2, 100920, Note_on_c, 0, 90, 80
2, 100920, Note_on_c, 0, 96, 80
2, 101040, Note_on_c, 0, 96, 0
2, 101040, Note_on_c, 0, 90, 0
2, 101040, Note_on_c, 0, 83, 80
2, 101040, Note_on_c, 0, 89, 80
2, 101040, Note_on_c, 0, 95, 80
2, 101087, Note_on_c, 0, 95, 0
2, 101087, Note_on_c, 0, 89, 0
2, 101087, Note_on_c, 0, 83, 0
2, 101280, Note_on_c, 0, 74, 67
2, 101280, Note_on_c, 0, 79, 67
2, 101400, Note_on_c, 0, 79, 0
2, 101400, Note_on_c, 0, 80, 67
2, 101520, Note_on_c, 0, 80, 0
2, 101520, Note_on_c, 0, 79, 67
2, 101640, Note_on_c, 0, 79, 0
2, 101640, Note_on_c, 0, 80, 67
2, 101760, Note_on_c, 0, 80, 0
2, 101760, Note_on_c, 0, 74, 0
2, 101760, Note_on_c, 0, 74, 67
2, 101760, Note_on_c, 0, 79, 67
2, 101880, Note_on_c, 0, 79, 0
2, 101880, Note_on_c, 0, 80, 67
2, 102000, Note_on_c, 0, 80, 0
2, 102000, Note_on_c, 0, 79, 67
2, 102120, Note_on_c, 0, 79, 0
2, 102120, Note_on_c, 0, 80, 67
2, 102240, Note_on_c, 0, 80, 0
2, 102240, Note_on_c, 0, 74, 0
2, 102240, Note_on_c, 0, 73, 67
2, 102240, Note_on_c, 0, 80, 67
2, 102360, Note_on_c, 0, 80, 0
2, 102360, Note_on_c, 0, 81, 67
2, 102480, Note_on_c, 0, 81, 0
2, 102480, Note_on_c, 0, 73, 0
2, 102480, Control_c, 0, 64, 127
2, 102480, Note_on_c, 0, 83, 67
2, 102600, Note_on_c, 0, 83, 0
2, 102600, Note_on_c, 0, 81, 67
2, 102720, Note_on_c, 0, 81, 0
2, 102720, Note_on_c, 0, 78, 67
2, 102840, Note_on_c, 0, 78, 0
2, 102840, Note_on_c, 0, 76, 67
2, 102960, Note_on_c, 0, 76, 0
2, 102960, Note_on_c, 0, 73, 67
2, 103080, Note_on_c, 0, 73, 0
2, 103080, Note_on_c, 0, 69, 67
2, 103200, Note_on_c, 0, 69, 0
2, 103200, Note_on_c, 0, 66, 67
2, 103320, Note_on_c, 0, 66, 0
2, 103320, Note_on_c, 0, 64, 67
2, 103440, Note_on_c, 0, 64, 0
2, 103440, Note_on_c, 0, 61, 67
2, 103560, Note_on_c, 0, 61, 0
2, 103560, Note_on_c, 0, 57, 67
2, 103680, Note_on_c, 0, 57, 0
2, 103680, Note_on_c, 0, 54, 67
2, 103800, Note_on_c, 0, 54, 0
2, 103800, Control_c, 0, 64, 0
2, 103800, Note_on_c, 0, 52, 67
2, 103920, Note_on_c, 0, 52, 0
2, 104160, Control_c, 0, 64, 127
2, 104160, Note_on_c, 0, 69, 80
2, 104160, Note_on_c, 0, 81, 80
2, 104280, Note_on_c, 0, 81, 0
2, 104280, Note_on_c, 0, 69, 0
2, 104280, Note_on_c, 0, 70, 80
2, 104400, Note_on_c, 0, 70, 0
2, 104400, Note_on_c, 0, 71, 80
2, 104400, Note_on_c, 0, 83, 80
2, 104520, Note_on_c, 0, 83, 0
2, 104520, Note_on_c, 0, 71, 0
2, 104520, Note_on_c, 0, 72, 80
2, 104640, Note_on_c, 0, 72, 0
2, 104640, Note_on_c, 0, 73, 93
2, 104640, Note_on_c, 0, 85, 93
2, 104760, Note_on_c, 0, 85, 0
2, 104760, Note_on_c, 0, 73, 0
2, 104760, Note_on_c, 0, 74, 93
2, 104880, Note_on_c, 0, 74, 0
2, 104880, Note_on_c, 0, 75, 93
2, 104880, Note_on_c, 0, 87, 93
2, 105000, Note_on_c, 0, 87, 0
2, 105000, Note_on_c, 0, 75, 0
2, 105000, Note_on_c, 0, 76, 93
2, 105120, Note_on_c, 0, 76, 0
2, 105120, Control_c, 0, 64, 0
2, 105120, Note_on_c, 0, 77, 93
2, 105120, Note_on_c, 0, 89, 93
2, 105167, Note_on_c, 0, 89, 0
2, 105167, Note_on_c, 0, 77, 0
2, 105360, Note_on_c, 0, 59, 67
2, 105480, Note_on_c, 0, 59, 0
2, 105480, Note_on_c, 0, 65, 67
2, 105600, Note_on_c, 0, 65, 0
2, 105600, Note_on_c, 0, 64, 67
2, 105720, Note_on_c, 0, 64, 0
2, 105720, Note_on_c, 0, 70, 67
2, 105840, Note_on_c, 0, 70, 0
2, 105840, Note_on_c, 0, 69, 67
2, 105960, Note_on_c, 0, 69, 0
2, 105960, Note_on_c, 0, 75, 67
2, 106080, Note_on_c, 0, 75, 0
2, 106080, Note_on_c, 0, 68, 67
2, 106200, Note_on_c, 0, 68, 0
2, 106200, Note_on_c, 0, 74, 67
2, 106320, Note_on_c, 0, 74, 0
2, 106320, Note_on_c, 0, 67, 67
2, 106440, Note_on_c, 0, 67, 0
2, 106440, Note_on_c, 0, 73, 67
2, 106440, Note_on_c, 0, 79, 67
2, 106560, Note_on_c, 0, 79, 0
2, 106560, Note_on_c, 0, 73, 0
2, 106560, Note_on_c, 0, 72, 67
2, 106680, Note_on_c, 0, 72, 0
2, 106680, Note_on_c, 0, 78, 67
2, 106680, Note_on_c, 0, 84, 67
2, 106800, Note_on_c, 0, 84, 0
2, 106800, Note_on_c, 0, 78, 0
2, 106800, Note_on_c, 0, 71, 67
2, 106800, Note_on_c, 0, 77, 67
2, 106800, Note_on_c, 0, 83, 67
2, 106847, Note_on_c, 0, 83, 0
2, 106847, Note_on_c, 0, 77, 0
2, 106847, Note_on_c, 0, 71, 0
2, 107040, Note_on_c, 0, 62, 67
2, 107040, Note_on_c, 0, 67, 67
2, 107160, Note_on_c, 0, 67, 0
2, 107160, Note_on_c, 0, 68, 67
2, 107280, Note_on_c, 0, 68, 0
2, 107280, Note_on_c, 0, 67, 67
2, 107400, Note_on_c, 0, 67, 0
2, 107400, Note_on_c, 0, 68, 67
2, 107520, Note_on_c, 0, 68, 0
2, 107520, Note_on_c, 0, 62, 0
2, 107520, Note_on_c, 0, 62, 67
2, 107520, Note_on_c, 0, 67, 67
2, 107640, Note_on_c, 0, 67, 0
2, 107640, Note_on_c, 0, 68, 67
2, 107760, Note_on_c, 0, 68, 0
2, 107760, Note_on_c, 0, 67, 67
2, 107880, Note_on_c, 0, 67, 0
2, 107880, Note_on_c, 0, 68, 67
2, 108000, Note_on_c, 0, 68, 0
2, 108000, Note_on_c, 0, 62, 0
2, 108000, Note_on_c, 0, 61, 67
2, 108000, Note_on_c, 0, 68, 67
2, 108120, Note_on_c, 0, 68, 0
2, 108120, Note_on_c, 0, 69, 67
2, 108240, Note_on_c, 0, 69, 0
2, 108240, Note_on_c, 0, 61, 0
2, 108240, Control_c, 0, 64, 127
2, 108240, Note_on_c, 0, 71, 67
2, 108360, Note_on_c, 0, 71, 0
2, 108360, Note_on_c, 0, 69, 67
2, 108480, Note_on_c, 0, 69, 0
2, 108480, Note_on_c, 0, 66, 67
2, 108600, Note_on_c, 0, 66, 0
2, 108600, Note_on_c, 0, 64, 67
2, 108720, Note_on_c, 0, 64, 0
2, 108720, Note_on_c, 0, 61, 67
2, 108840, Note_on_c, 0, 61, 0
2, 108840, Note_on_c, 0, 57, 67
2, 108960, Note_on_c, 0, 57, 0
2, 108960, Note_on_c, 0, 54, 67
2, 109080, Note_on_c, 0, 54, 0
2, 109080, Note_on_c, 0, 52, 67
2, 109200, Note_on_c, 0, 52, 0
2, 109200, Note_on_c, 0, 49, 67
2, 109320, Note_on_c, 0, 49, 0
2, 109320, Note_on_c, 0, 45, 67
2, 109440, Note_on_c, 0, 45, 0
2, 109440, Note_on_c, 0, 33, 67
2, 109440, Note_on_c, 0, 37, 67
2, 109440, Note_on_c, 0, 42, 67
2, 109560, Note_on_c, 0, 42, 0
2, 109560, Note_on_c, 0, 37, 0
2, 109560, Note_on_c, 0, 33, 0
2, 109560, Control_c, 0, 64, 0
2, 109560, Note_on_c, 0, 40, 67
2, 109680, Note_on_c, 0, 40, 0
2, 109680, Control_c, 0, 64, 127
2, 109680, Note_on_c, 0, 74, 67
2, 109800, Note_on_c, 0, 74, 0
2, 109800, Note_on_c, 0, 73, 67
2, 109920, Note_on_c, 0, 73, 0
2, 109920, Note_on_c, 0, 69, 67
2, 110040, Note_on_c, 0, 69, 0
2, 110040, Note_on_c, 0, 64, 67
2, 110160, Note_on_c, 0, 64, 0
2, 110160, Note_on_c, 0, 62, 67
2, 110280, Note_on_c, 0, 62, 0
2, 110280, Note_on_c, 0, 61, 67
2, 110400, Note_on_c, 0, 61, 0
2, 110400, Note_on_c, 0, 59, 67
2, 110520, Note_on_c, 0, 59, 0
2, 110520, Note_on_c, 0, 57, 67
2, 110640, Note_on_c, 0, 57, 0
2, 110640, Note_on_c, 0, 54, 67
2, 110760, Note_on_c, 0, 54, 0
2, 110760, Note_on_c, 0, 52, 67
2, 110880, Note_on_c, 0, 52, 0
2, 110880, Note_on_c, 0, 49, 67
2, 111000, Note_on_c, 0, 49, 0
2, 111000, Control_c, 0, 64, 0
2, 111000, Note_on_c, 0, 45, 67
2, 111120, Note_on_c, 0, 45, 0
2, 111120, Control_c, 0, 64, 127
2, 111120, Note_on_c, 0, 78, 67
2, 111240, Note_on_c, 0, 78, 0
2, 111240, Note_on_c, 0, 76, 67
2, 111360, Note_on_c, 0, 76, 0
2, 111360, Note_on_c, 0, 73, 67
2, 111480, Note_on_c, 0, 73, 0
2, 111480, Note_on_c, 0, 69, 67
2, 111600, Note_on_c, 0, 69, 0
2, 111600, Note_on_c, 0, 66, 67
2, 111720, Note_on_c, 0, 66, 0
2, 111720, Note_on_c, 0, 64, 67
2, 111840, Note_on_c, 0, 64, 0
2, 111840, Note_on_c, 0, 62, 67
2, 111960, Note_on_c, 0, 62, 0
2, 111960, Note_on_c, 0, 61, 67
2, 112080, Note_on_c, 0, 61, 0
2, 112080, Note_on_c, 0, 57, 67
2, 112200, Note_on_c, 0, 57, 0
2, 112200, Note_on_c, 0, 52, 67
2, 112320, Note_on_c, 0, 52, 0
2, 112320, Note_on_c, 0, 49, 67
2, 112440, Note_on_c, 0, 49, 0
2, 112440, Control_c, 0, 64, 0
2, 112440, Note_on_c, 0, 45, 67
2, 112560, Note_on_c, 0, 45, 0
2, 112560, Control_c, 0, 64, 127
2, 112560, Note_on_c, 0, 83, 67
2, 112680, Note_on_c, 0, 83, 0
2, 112680, Note_on_c, 0, 81, 67
2, 112800, Note_on_c, 0, 81, 0
2, 112800, Note_on_c, 0, 79, 67
2, 112920, Note_on_c, 0, 79, 0
2, 112920, Note_on_c, 0, 76, 67
2, 113040, Note_on_c, 0, 76, 0
2, 113040, Note_on_c, 0, 71, 67
2, 113160, Note_on_c, 0, 71, 0
2, 113160, Note_on_c, 0, 69, 67
2, 113280, Note_on_c, 0, 69, 0
2, 113280, Note_on_c, 0, 67, 67
2, 113400, Note_on_c, 0, 67, 0
2, 113400, Note_on_c, 0, 64, 67
2, 113520, Note_on_c, 0, 64, 0
2, 113520, Note_on_c, 0, 59, 67
2, 113640, Note_on_c, 0, 59, 0
2, 113640, Note_on_c, 0, 57, 67
2, 113760, Note_on_c, 0, 57, 0
2, 113760, Note_on_c, 0, 55, 67
2, 113880, Note_on_c, 0, 55, 0
2, 113880, Control_c, 0, 64, 0
2, 113880, Note_on_c, 0, 52, 67
2, 114000, Note_on_c, 0, 52, 0
2, 115680, Note_on_c, 0, 68, 67
2, 115680, Note_on_c, 0, 80, 67
2, 115800, Note_on_c, 0, 80, 0
2, 115800, Note_on_c, 0, 68, 0
2, 115800, Note_on_c, 0, 69, 67
2, 115800, Note_on_c, 0, 81, 67
2, 115920, Note_on_c, 0, 81, 0
2, 115920, Note_on_c, 0, 69, 0
2, 115920, Note_on_c, 0, 68, 67
2, 115920, Note_on_c, 0, 80, 67
2, 116040, Note_on_c, 0, 80, 0
2, 116040, Note_on_c, 0, 68, 0
2, 116040, Note_on_c, 0, 69, 67
2, 116040, Note_on_c, 0, 81, 67
2, 116160, Note_on_c, 0, 81, 0
2, 116160, Note_on_c, 0, 69, 0
2, 116400, Note_on_c, 0, 68, 67
2, 116400, Note_on_c, 0, 80, 67
2, 116520, Note_on_c, 0, 80, 0
2, 116520, Note_on_c, 0, 68, 0
2, 116520, Note_on_c, 0, 69, 67
2, 116520, Note_on_c, 0, 81, 67
2, 116640, Note_on_c, 0, 81, 0
2, 116640, Note_on_c, 0, 69, 0
2, 116640, Note_on_c, 0, 68, 67
2, 116640, Note_on_c, 0, 80, 67
2, 116760, Note_on_c, 0, 80, 0
2, 116760, Note_on_c, 0, 68, 0
2, 116760, Note_on_c, 0, 69, 67
2, 116760, Note_on_c, 0, 81, 67
2, 116880, Note_on_c, 0, 81, 0
2, 116880, Note_on_c, 0, 69, 0
2, 117120, Note_on_c, 0, 68, 67
2, 117120, Note_on_c, 0, 80, 67
2, 117240, Note_on_c, 0, 80, 0
2, 117240, Note_on_c, 0, 68, 0
2, 117240, Note_on_c, 0, 69, 67
2, 117240, Note_on_c, 0, 81, 67
2, 117360, Note_on_c, 0, 81, 0
2, 117360, Note_on_c, 0, 69, 0
2, 117360, Note_on_c, 0, 68, 67
2, 117360, Note_on_c, 0, 80, 67
2, 117480, Note_on_c, 0, 80, 0
2, 117480, Note_on_c, 0, 68, 0
2, 117480, Note_on_c, 0, 69, 67
2, 117480, Note_on_c, 0, 81, 67
2, 117600, Note_on_c, 0, 81, 0
2, 117600, Note_on_c, 0, 69, 0
2, 117840, Note_on_c, 0, 68, 67
2, 117840, Note_on_c, 0, 80, 67
2, 117960, Note_on_c, 0, 80, 0
2, 117960, Note_on_c, 0, 68, 0
2, 117960, Note_on_c, 0, 69, 67
2, 117960, Note_on_c, 0, 81, 67
2, 118080, Note_on_c, 0, 81, 0
2, 118080, Note_on_c, 0, 69, 0
2, 118080, Note_on_c, 0, 68, 67
2, 118080, Note_on_c, 0, 80, 67
2, 118200, Note_on_c, 0, 80, 0
2, 118200, Note_on_c, 0, 68, 0
2, 118200, Note_on_c, 0, 69, 67
2, 118200, Note_on_c, 0, 81, 67
2, 118320, Note_on_c, 0, 81, 0
2, 118320, Note_on_c, 0, 69, 0
2, 118560, Note_on_c, 0, 68, 67
2, 118560, Note_on_c, 0, 80, 67
2, 118680, Note_on_c, 0, 80, 0
2, 118680, Note_on_c, 0, 68, 0
2, 118680, Note_on_c, 0, 69, 67
2, 118680, Note_on_c, 0, 81, 67
2, 118800, Note_on_c, 0, 81, 0
2, 118800, Note_on_c, 0, 69, 0
2, 118800, Note_on_c, 0, 68, 67
2, 118800, Note_on_c, 0, 80, 67
2, 118920, Note_on_c, 0, 80, 0
2, 118920, Note_on_c, 0, 68, 0
2, 118920, Note_on_c, 0, 69, 67
2, 118920, Note_on_c, 0, 81, 67
2, 119040, Note_on_c, 0, 81, 0
2, 119040, Note_on_c, 0, 69, 0
2, 119280, Note_on_c, 0, 68, 67
2, 119280, Note_on_c, 0, 80, 67
2, 119400, Note_on_c, 0, 80, 0
2, 119400, Note_on_c, 0, 68, 0
2, 119400, Note_on_c, 0, 69, 67
2, 119400, Note_on_c, 0, 81, 67
2, 119520, Note_on_c, 0, 81, 0
2, 119520, Note_on_c, 0, 69, 0
2, 119520, Note_on_c, 0, 68, 67
2, 119520, Note_on_c, 0, 80, 67
2, 119640, Note_on_c, 0, 80, 0
2, 119640, Note_on_c, 0, 68, 0
2, 119640, Note_on_c, 0, 69, 67
2, 119640, Note_on_c, 0, 81, 67
2, 119760, Note_on_c, 0, 81, 0
2, 119760, Note_on_c, 0, 69, 0
2, 120000, Note_on_c, 0, 68, 67
2, 120000, Note_on_c, 0, 80, 67
2, 120120, Note_on_c, 0, 80, 0
2, 120120, Note_on_c, 0, 68, 0
2, 120120, Note_on_c, 0, 69, 67
2, 120120, Note_on_c, 0, 81, 67
2, 120240, Note_on_c, 0, 81, 0
2, 120240, Note_on_c, 0, 69, 0
2, 120240, Note_on_c, 0, 68, 67
2, 120240, Note_on_c, 0, 80, 67
2, 120360, Note_on_c, 0, 80, 0
2, 120360, Note_on_c, 0, 68, 0
2, 120360, Note_on_c, 0, 69, 67
2, 120360, Note_on_c, 0, 81, 67
2, 120480, Note_on_c, 0, 81, 0
2, 120480, Note_on_c, 0, 69, 0
2, 120720, Note_on_c, 0, 68, 67
2, 120720, Note_on_c, 0, 80, 67
2, 120840, Note_on_c, 0, 80, 0
2, 120840, Note_on_c, 0, 68, 0
2, 120840, Note_on_c, 0, 69, 67
2, 120840, Note_on_c, 0, 81, 67
2, 120960, Note_on_c, 0, 81, 0
2, 120960, Note_on_c, 0, 69, 0
2, 120960, Note_on_c, 0, 68, 67
2, 120960, Note_on_c, 0, 80, 67
2, 121080, Note_on_c, 0, 80, 0
2, 121080, Note_on_c, 0, 68, 0
2, 121080, Note_on_c, 0, 69, 67
2, 121080, Note_on_c, 0, 81, 67
2, 121200, Note_on_c, 0, 81, 0
2, 121200, Note_on_c, 0, 69, 0
2, 121440, Note_on_c, 0, 68, 67
2, 121440, Note_on_c, 0, 80, 67
2, 121560, Note_on_c, 0, 80, 0
2, 121560, Note_on_c, 0, 68, 0
2, 121560, Note_on_c, 0, 69, 67
2, 121560, Note_on_c, 0, 81, 67
2, 121680, Note_on_c, 0, 81, 0
2, 121680, Note_on_c, 0, 69, 0
2, 121680, Note_on_c, 0, 68, 67
2, 121680, Note_on_c, 0, 80, 67
2, 121800, Note_on_c, 0, 80, 0
2, 121800, Note_on_c, 0, 68, 0
2, 121800, Note_on_c, 0, 69, 67
2, 121800, Note_on_c, 0, 81, 67
2, 121920, Note_on_c, 0, 81, 0
2, 121920, Note_on_c, 0, 69, 0
2, 122160, Note_on_c, 0, 68, 67
2, 122160, Note_on_c, 0, 80, 67
2, 122280, Note_on_c, 0, 80, 0
2, 122280, Note_on_c, 0, 68, 0
2, 122280, Note_on_c, 0, 69, 67
2, 122280, Note_on_c, 0, 81, 67
2, 122400, Note_on_c, 0, 81, 0
2, 122400, Note_on_c, 0, 69, 0
2, 122400, Note_on_c, 0, 68, 67
2, 122400, Note_on_c, 0, 80, 67
2, 122520, Note_on_c, 0, 80, 0
2, 122520, Note_on_c, 0, 68, 0
2, 122520, Note_on_c, 0, 69, 67
2, 122520, Note_on_c, 0, 81, 67
2, 122640, Note_on_c, 0, 81, 0
2, 122640, Note_on_c, 0, 69, 0
2, 122880, Note_on_c, 0, 68, 67
2, 122880, Note_on_c, 0, 80, 67
2, 123000, Note_on_c, 0, 80, 0
2, 123000, Note_on_c, 0, 68, 0
2, 123000, Note_on_c, 0, 69, 67
2, 123000, Note_on_c, 0, 81, 67
2, 123120, Note_on_c, 0, 81, 0
2, 123120, Note_on_c, 0, 69, 0
2, 123120, Note_on_c, 0, 68, 67
2, 123120, Note_on_c, 0, 80, 67
2, 123240, Note_on_c, 0, 80, 0
2, 123240, Note_on_c, 0, 68, 0
2, 123240, Note_on_c, 0, 69, 67
2, 123240, Note_on_c, 0, 81, 67
2, 123360, Note_on_c, 0, 81, 0
2, 123360, Note_on_c, 0, 69, 0
2, 123600, Note_on_c, 0, 68, 67
2, 123600, Note_on_c, 0, 80, 67
2, 123720, Note_on_c, 0, 80, 0
2, 123720, Note_on_c, 0, 68, 0
2, 123720, Note_on_c, 0, 69, 67
2, 123720, Note_on_c, 0, 81, 67
2, 123840, Note_on_c, 0, 81, 0
2, 123840, Note_on_c, 0, 69, 0
2, 123840, Note_on_c, 0, 68, 67
2, 123840, Note_on_c, 0, 80, 67
2, 123960, Note_on_c, 0, 80, 0
2, 123960, Note_on_c, 0, 68, 0
2, 123960, Note_on_c, 0, 69, 67
2, 123960, Note_on_c, 0, 81, 67
2, 124080, Note_on_c, 0, 81, 0
2, 124080, Note_on_c, 0, 69, 0
2, 124320, Note_on_c, 0, 68, 67
2, 124320, Note_on_c, 0, 80, 67
2, 124440, Note_on_c, 0, 80, 0
2, 124440, Note_on_c, 0, 68, 0
2, 124440, Note_on_c, 0, 69, 67
2, 124440, Note_on_c, 0, 81, 67
2, 124560, Note_on_c, 0, 81, 0
2, 124560, Note_on_c, 0, 69, 0
2, 124560, Note_on_c, 0, 68, 67
2, 124560, Note_on_c, 0, 80, 67
2, 124680, Note_on_c, 0, 80, 0
2, 124680, Note_on_c, 0, 68, 0
2, 124680, Note_on_c, 0, 69, 67
2, 124680, Note_on_c, 0, 81, 67
2, 124800, Note_on_c, 0, 81, 0
2, 124800, Note_on_c, 0, 69, 0
2, 125040, Note_on_c, 0, 68, 67
2, 125040, Note_on_c, 0, 80, 67
2, 125160, Note_on_c, 0, 80, 0
2, 125160, Note_on_c, 0, 68, 0
2, 125160, Note_on_c, 0, 69, 67
2, 125160, Note_on_c, 0, 81, 67
2, 125280, Note_on_c, 0, 81, 0
2, 125280, Note_on_c, 0, 69, 0
2, 125280, Note_on_c, 0, 68, 67
2, 125280, Note_on_c, 0, 80, 67
2, 125400, Note_on_c, 0, 80, 0
2, 125400, Note_on_c, 0, 68, 0
2, 125400, Note_on_c, 0, 69, 67
2, 125400, Note_on_c, 0, 81, 67
2, 125520, Note_on_c, 0, 81, 0
2, 125520, Note_on_c, 0, 69, 0
2, 125760, Note_on_c, 0, 68, 67
2, 125760, Note_on_c, 0, 80, 67
2, 125880, Note_on_c, 0, 80, 0
2, 125880, Note_on_c, 0, 68, 0
2, 125880, Note_on_c, 0, 69, 67
2, 125880, Note_on_c, 0, 81, 67
2, 126000, Note_on_c, 0, 81, 0
2, 126000, Note_on_c, 0, 69, 0
2, 126000, Note_on_c, 0, 68, 67
2, 126000, Note_on_c, 0, 80, 67
2, 126120, Note_on_c, 0, 80, 0
2, 126120, Note_on_c, 0, 68, 0
2, 126120, Note_on_c, 0, 69, 67
2, 126120, Note_on_c, 0, 81, 67
2, 126240, Note_on_c, 0, 81, 0
2, 126240, Note_on_c, 0, 69, 0
2, 126480, Note_on_c, 0, 65, 67
2, 126480, Note_on_c, 0, 77, 67
2, 126600, Note_on_c, 0, 77, 0
2, 126600, Note_on_c, 0, 65, 0
2, 126600, Note_on_c, 0, 65, 67
2, 126600, Note_on_c, 0, 77, 67
2, 126720, Note_on_c, 0, 77, 0
2, 126720, Note_on_c, 0, 65, 0
2, 126720, Note_on_c, 0, 61, 67
2, 126720, Note_on_c, 0, 73, 67
2, 126840, Note_on_c, 0, 73, 0
2, 126840, Note_on_c, 0, 61, 0
2, 126840, Note_on_c, 0, 62, 67
2, 126840, Note_on_c, 0, 74, 67
2, 126960, Note_on_c, 0, 74, 0
2, 126960, Note_on_c, 0, 62, 0
2, 127200, Note_on_c, 0, 65, 67
2, 127200, Note_on_c, 0, 77, 67
2, 127320, Note_on_c, 0, 77, 0
2, 127320, Note_on_c, 0, 65, 0
2, 127320, Note_on_c, 0, 66, 67
2, 127320, Note_on_c, 0, 78, 67
2, 127440, Note_on_c, 0, 78, 0
2, 127440, Note_on_c, 0, 66, 0
2, 127440, Note_on_c, 0, 65, 67
2, 127440, Note_on_c, 0, 77, 67
2, 127560, Note_on_c, 0, 77, 0
2, 127560, Note_on_c, 0, 65, 0
2, 127560, Note_on_c, 0, 66, 67
2, 127560, Note_on_c, 0, 78, 67
2, 127680, Note_on_c, 0, 78, 0
2, 127680, Note_on_c, 0, 66, 0
2, 127920, Note_on_c, 0, 57, 67
2, 127920, Note_on_c, 0, 69, 67
2, 128040, Note_on_c, 0, 69, 0
2, 128040, Note_on_c, 0, 57, 0
2, 128040, Note_on_c, 0, 58, 67
2, 128040, Note_on_c, 0, 70, 67
2, 128160, Note_on_c, 0, 70, 0
2, 128160, Note_on_c, 0, 58, 0
2, 128160, Note_on_c, 0, 61, 67
2, 128160, Note_on_c, 0, 73, 67
2, 128280, Note_on_c, 0, 73, 0
2, 128280, Note_on_c, 0, 61, 0
2, 128280, Note_on_c, 0, 62, 67
2, 128280, Note_on_c, 0, 74, 67
2, 128400, Note_on_c, 0, 74, 0
2, 128400, Note_on_c, 0, 62, 0
2, 128640, Note_on_c, 0, 60, 67
2, 128640, Note_on_c, 0, 72, 67
2, 128760, Note_on_c, 0, 72, 0
2, 128760, Note_on_c, 0, 60, 0
2, 128760, Note_on_c, 0, 61, 67
2, 128760, Note_on_c, 0, 73, 67
2, 128880, Note_on_c, 0, 73, 0
2, 128880, Note_on_c, 0, 61, 0
2, 128880, Note_on_c, 0, 60, 67
2, 128880, Note_on_c, 0, 72, 67
2, 129000, Note_on_c, 0, 72, 0
2, 129000, Note_on_c, 0, 60, 0
2, 129000, Note_on_c, 0, 61, 67
2, 129000, Note_on_c, 0, 73, 67
2, 129120, Note_on_c, 0, 73, 0
2, 129120, Note_on_c, 0, 61, 0
2, 129360, Note_on_c, 0, 63, 67
2, 129360, Note_on_c, 0, 75, 67
2, 129480, Note_on_c, 0, 75, 0
2, 129480, Note_on_c, 0, 63, 0
2, 129480, Note_on_c, 0, 64, 67
2, 129480, Note_on_c, 0, 76, 67
2, 129600, Note_on_c, 0, 76, 0
2, 129600, Note_on_c, 0, 64, 0
2, 129600, Note_on_c, 0, 63, 67
2, 129600, Note_on_c, 0, 75, 67
2, 129720, Note_on_c, 0, 75, 0
2, 129720, Note_on_c, 0, 63, 0
2, 129720, Note_on_c, 0, 64, 67
2, 129720, Note_on_c, 0, 76, 67
2, 129840, Note_on_c, 0, 76, 0
2, 129840, Note_on_c, 0, 64, 0
2, 130080, Note_on_c, 0, 65, 67
2, 130080, Note_on_c, 0, 77, 67
2, 130200, Note_on_c, 0, 77, 0
2, 130200, Note_on_c, 0, 65, 0
2, 130200, Note_on_c, 0, 66, 67
2, 130200, Note_on_c, 0, 78, 67
2, 130320, Note_on_c, 0, 78, 0
2, 130320, Note_on_c, 0, 66, 0
2, 130320, Note_on_c, 0, 65, 67
2, 130320, Note_on_c, 0, 77, 67
2, 130440, Note_on_c, 0, 77, 0
2, 130440, Note_on_c, 0, 65, 0
2, 130440, Note_on_c, 0, 66, 67
2, 130440, Note_on_c, 0, 78, 67
2, 130560, Note_on_c, 0, 78, 0
2, 130560, Note_on_c, 0, 66, 0
2, 130800, Note_on_c, 0, 57, 67
2, 130800, Note_on_c, 0, 69, 67
2, 130920, Note_on_c, 0, 69, 0
2, 130920, Note_on_c, 0, 57, 0
2, 130920, Note_on_c, 0, 58, 67
2, 130920, Note_on_c, 0, 70, 67
2, 131040, Note_on_c, 0, 70, 0
2, 131040, Note_on_c, 0, 58, 0
2, 131040, Note_on_c, 0, 61, 67
2, 131040, Note_on_c, 0, 73, 67
2, 131160, Note_on_c, 0, 73, 0
2, 131160, Note_on_c, 0, 61, 0
2, 131160, Note_on_c, 0, 62, 67
2, 131160, Note_on_c, 0, 74, 67
2, 131280, Note_on_c, 0, 74, 0
2, 131280, Note_on_c, 0, 62, 0
2, 131520, Note_on_c, 0, 60, 67
2, 131520, Note_on_c, 0, 72, 67
2, 131640, Note_on_c, 0, 72, 0
2, 131640, Note_on_c, 0, 60, 0
2, 131640, Note_on_c, 0, 61, 67
2, 131640, Note_on_c, 0, 73, 67
2, 131760, Note_on_c, 0, 73, 0
2, 131760, Note_on_c, 0, 61, 0
2, 131760, Note_on_c, 0, 60, 67
2, 131760, Note_on_c, 0, 72, 67
2, 131880, Note_on_c, 0, 72, 0
2, 131880, Note_on_c, 0, 60, 0
2, 131880, Note_on_c, 0, 61, 67
2, 131880, Note_on_c, 0, 73, 67
2, 132000, Note_on_c, 0, 73, 0
2, 132000, Note_on_c, 0, 61, 0
2, 132240, Note_on_c, 0, 63, 67
2, 132240, Note_on_c, 0, 75, 67
2, 132360, Note_on_c, 0, 75, 0
2, 132360, Note_on_c, 0, 63, 0
2, 132360, Note_on_c, 0, 64, 67
2, 132360, Note_on_c, 0, 76, 67
2, 132480, Note_on_c, 0, 76, 0
2, 132480, Note_on_c, 0, 64, 0
2, 132480, Note_on_c, 0, 63, 67
2, 132480, Note_on_c, 0, 75, 67
2, 132600, Note_on_c, 0, 75, 0
2, 132600, Note_on_c, 0, 63, 0
2, 132600, Note_on_c, 0, 64, 67
2, 132600, Note_on_c, 0, 76, 67
2, 132720, Note_on_c, 0, 76, 0
2, 132720, Note_on_c, 0, 64, 0
2, 132960, Note_on_c, 0, 61, 67
2, 132960, Note_on_c, 0, 73, 67
2, 133080, Note_on_c, 0, 73, 0
2, 133080, Note_on_c, 0, 61, 0
2, 133080, Note_on_c, 0, 62, 67
2, 133080, Note_on_c, 0, 74, 67
2, 133200, Note_on_c, 0, 74, 0
2, 133200, Note_on_c, 0, 62, 0
2, 133200, Note_on_c, 0, 61, 67
2, 133200, Note_on_c, 0, 73, 67
2, 133320, Note_on_c, 0, 73, 0
2, 133320, Note_on_c, 0, 61, 0
2, 133320, Note_on_c, 0, 62, 67
2, 133320, Note_on_c, 0, 74, 67
2, 133440, Note_on_c, 0, 74, 0
2, 133440, Note_on_c, 0, 62, 0
2, 133680, Note_on_c, 0, 61, 67
2, 133680, Note_on_c, 0, 73, 67
2, 133800, Note_on_c, 0, 73, 0
2, 133800, Note_on_c, 0, 61, 0
2, 133800, Note_on_c, 0, 62, 67
2, 133800, Note_on_c, 0, 74, 67
2, 133920, Note_on_c, 0, 74, 0
2, 133920, Note_on_c, 0, 62, 0
2, 133920, Note_on_c, 0, 65, 67
2, 133920, Note_on_c, 0, 77, 67
2, 134040, Note_on_c, 0, 77, 0
2, 134040, Note_on_c, 0, 65, 0
2, 134040, Note_on_c, 0, 66, 67
2, 134040, Note_on_c, 0, 78, 67
2, 134160, Note_on_c, 0, 78, 0
2, 134160, Note_on_c, 0, 66, 0
2, 134400, Note_on_c, 0, 63, 67
2, 134400, Note_on_c, 0, 75, 67
2, 134520, Note_on_c, 0, 75, 0
2, 134520, Note_on_c, 0, 63, 0
2, 134520, Note_on_c, 0, 64, 67
2, 134520, Note_on_c, 0, 76, 67
2, 134640, Note_on_c, 0, 76, 0
2, 134640, Note_on_c, 0, 64, 0
2, 134640, Note_on_c, 0, 63, 67
2, 134640, Note_on_c, 0, 75, 67
2, 134760, Note_on_c, 0, 75, 0
2, 134760, Note_on_c, 0, 63, 0
2, 134760, Note_on_c, 0, 64, 67
2, 134760, Note_on_c, 0, 76, 67
2, 134880, Note_on_c, 0, 76, 0
2, 134880, Note_on_c, 0, 64, 0
2, 135120, Note_on_c, 0, 66, 67
2, 135120, Note_on_c, 0, 78, 67
2, 135240, Note_on_c, 0, 78, 0
2, 135240, Note_on_c, 0, 66, 0
2, 135240, Note_on_c, 0, 67, 67
2, 135240, Note_on_c, 0, 79, 67
2, 135360, Note_on_c, 0, 79, 0
2, 135360, Note_on_c, 0, 67, 0
2, 135360, Note_on_c, 0, 66, 67
2, 135360, Note_on_c, 0, 78, 67
2, 135480, Note_on_c, 0, 78, 0
2, 135480, Note_on_c, 0, 66, 0
2, 135480, Note_on_c, 0, 67, 67
2, 135480, Note_on_c, 0, 79, 67
2, 135600, Note_on_c, 0, 79, 0
2, 135600, Note_on_c, 0, 67, 0
2, 135840, Note_on_c, 0, 61, 67
2, 135840, Note_on_c, 0, 73, 67
2, 135960, Note_on_c, 0, 73, 0
2, 135960, Note_on_c, 0, 61, 0
2, 135960, Note_on_c, 0, 62, 67
2, 135960, Note_on_c, 0, 74, 67
2, 136080, Note_on_c, 0, 74, 0
2, 136080, Note_on_c, 0, 62, 0
2, 136080, Note_on_c, 0, 61, 67
2, 136080, Note_on_c, 0, 73, 67
2, 136200, Note_on_c, 0, 73, 0
2, 136200, Note_on_c, 0, 61, 0
2, 136200, Note_on_c, 0, 62, 67
2, 136200, Note_on_c, 0, 74, 67
2, 136320, Note_on_c, 0, 74, 0
2, 136320, Note_on_c, 0, 62, 0
2, 136560, Note_on_c, 0, 61, 67
2, 136560, Note_on_c, 0, 73, 67
2, 136680, Note_on_c, 0, 73, 0
2, 136680, Note_on_c, 0, 61, 0
2, 136680, Note_on_c, 0, 62, 67
2, 136680, Note_on_c, 0, 74, 67
2, 136800, Note_on_c, 0, 74, 0
2, 136800, Note_on_c, 0, 62, 0
2, 136800, Note_on_c, 0, 65, 67
2, 136800, Note_on_c, 0, 77, 67
2, 136920, Note_on_c, 0, 77, 0
2, 136920, Note_on_c, 0, 65, 0
2, 136920, Note_on_c, 0, 66, 67
2, 136920, Note_on_c, 0, 78, 67
2, 137040, Note_on_c, 0, 78, 0
2, 137040, Note_on_c, 0, 66, 0
2, 137280, Note_on_c, 0, 63, 67
2, 137280, Note_on_c, 0, 75, 67
2, 137400, Note_on_c, 0, 75, 0
2, 137400, Note_on_c, 0, 63, 0
2, 137400, Note_on_c, 0, 64, 67
2, 137400, Note_on_c, 0, 76, 67
2, 137520, Note_on_c, 0, 76, 0
2, 137520, Note_on_c, 0, 64, 0
2, 137520, Note_on_c, 0, 63, 67
2, 137520, Note_on_c, 0, 75, 67
2, 137640, Note_on_c, 0, 75, 0
2, 137640, Note_on_c, 0, 63, 0
2, 137640, Note_on_c, 0, 64, 67
2, 137640, Note_on_c, 0, 76, 67
2, 137760, Note_on_c, 0, 76, 0
2, 137760, Note_on_c, 0, 64, 0
2, 138000, Note_on_c, 0, 66, 67
2, 138000, Note_on_c, 0, 78, 67
2, 138120, Note_on_c, 0, 78, 0
2, 138120, Note_on_c, 0, 66, 0
2, 138120, Note_on_c, 0, 67, 67
2, 138120, Note_on_c, 0, 79, 67
2, 138240, Note_on_c, 0, 79, 0
2, 138240, Note_on_c, 0, 67, 0
2, 138240, Note_on_c, 0, 66, 67
2, 138240, Note_on_c, 0, 78, 67
2, 138360, Note_on_c, 0, 78, 0
2, 138360, Note_on_c, 0, 66, 0
2, 138360, Note_on_c, 0, 67, 67
2, 138360, Note_on_c, 0, 79, 67
2, 138480, Note_on_c, 0, 79, 0
2, 138480, Note_on_c, 0, 67, 0
2, 138600, Note_on_c, 0, 69, 67
2, 138623, Note_on_c, 0, 69, 0
2, 138720, Note_on_c, 0, 81, 67
2, 138743, Note_on_c, 0, 81, 0
2, 138840, Note_on_c, 0, 81, 67
2, 138863, Note_on_c, 0, 81, 0
2, 138960, Note_on_c, 0, 93, 67
2, 138983, Note_on_c, 0, 93, 0
2, 139080, Note_on_c, 0, 81, 67
2, 139103, Note_on_c, 0, 81, 0
2, 139320, Note_on_c, 0, 57, 67
2, 139343, Note_on_c, 0, 57, 0
2, 139440, Note_on_c, 0, 69, 67
2, 139463, Note_on_c, 0, 69, 0
2, 139560, Note_on_c, 0, 69, 67
2, 139583, Note_on_c, 0, 69, 0
2, 139680, Note_on_c, 0, 81, 67
2, 139703, Note_on_c, 0, 81, 0
2, 139800, Note_on_c, 0, 69, 67
2, 139823, Note_on_c, 0, 69, 0
2, 140040, Note_on_c, 0, 69, 67
2, 140063, Note_on_c, 0, 69, 0
2, 140160, Note_on_c, 0, 81, 67
2, 140183, Note_on_c, 0, 81, 0
2, 140280, Note_on_c, 0, 81, 67
2, 140303, Note_on_c, 0, 81, 0
2, 140400, Note_on_c, 0, 93, 67
2, 140423, Note_on_c, 0, 93, 0
2, 140520, Note_on_c, 0, 81, 67
2, 140543, Note_on_c, 0, 81, 0
2, 140760, Note_on_c, 0, 57, 67
2, 140783, Note_on_c, 0, 57, 0
2, 140880, Note_on_c, 0, 69, 67
2, 140903, Note_on_c, 0, 69, 0
2, 141000, Note_on_c, 0, 69, 67
2, 141023, Note_on_c, 0, 69, 0
2, 141120, Note_on_c, 0, 81, 67
2, 141143, Note_on_c, 0, 81, 0
2, 141240, Note_on_c, 0, 69, 67
2, 141263, Note_on_c, 0, 69, 0
2, 141480, Note_on_c, 0, 65, 67
2, 141600, Note_on_c, 0, 65, 0
2, 141600, Note_on_c, 0, 64, 67
2, 141720, Note_on_c, 0, 64, 0
2, 141720, Note_on_c, 0, 63, 67
2, 141840, Note_on_c, 0, 63, 0
2, 141840, Note_on_c, 0, 62, 67
2, 141960, Note_on_c, 0, 62, 0
2, 141960, Note_on_c, 0, 74, 67
2, 142080, Note_on_c, 0, 74, 0
2, 142080, Note_on_c, 0, 73, 67
2, 142200, Note_on_c, 0, 73, 0
2, 142200, Note_on_c, 0, 74, 67
2, 142320, Note_on_c, 0, 74, 0
2, 142320, Note_on_c, 0, 62, 67
2, 142440, Note_on_c, 0, 62, 0
2, 142440, Note_on_c, 0, 65, 67
2, 142560, Note_on_c, 0, 65, 0
2, 142560, Note_on_c, 0, 70, 67
2, 142680, Note_on_c, 0, 70, 0
2, 142680, Note_on_c, 0, 74, 67
2, 142800, Note_on_c, 0, 74, 0
2, 142800, Note_on_c, 0, 75, 67
2, 142920, Note_on_c, 0, 75, 0
2, 142920, Note_on_c, 0, 71, 67
2, 143040, Note_on_c, 0, 71, 0
2, 143040, Note_on_c, 0, 72, 67
2, 143160, Note_on_c, 0, 72, 0
2, 143160, Note_on_c, 0, 74, 67
2, 143280, Note_on_c, 0, 74, 0
2, 143280, Note_on_c, 0, 75, 67
2, 143400, Note_on_c, 0, 75, 0
2, 143400, Note_on_c, 0, 76, 67
2, 143520, Note_on_c, 0, 76, 0
2, 143520, Note_on_c, 0, 77, 67
2, 143640, Note_on_c, 0, 77, 0
2, 143640, Note_on_c, 0, 76, 67
2, 143760, Note_on_c, 0, 76, 0
2, 143760, Note_on_c, 0, 77, 67
2, 143880, Note_on_c, 0, 77, 0
2, 143880, Note_on_c, 0, 74, 67
2, 144000, Note_on_c, 0, 74, 0
2, 144000, Note_on_c, 0, 75, 67
2, 144120, Note_on_c, 0, 75, 0
2, 144120, Note_on_c, 0, 74, 67
2, 144240, Note_on_c, 0, 74, 0
2, 144240, Note_on_c, 0, 75, 67
2, 144360, Note_on_c, 0, 75, 0
2, 144360, Note_on_c, 0, 71, 67
2, 144480, Note_on_c, 0, 71, 0
2, 144480, Note_on_c, 0, 72, 67
2, 144600, Note_on_c, 0, 72, 0
2, 144600, Note_on_c, 0, 74, 67
2, 144720, Note_on_c, 0, 74, 0
2, 144720, Note_on_c, 0, 75, 67
2, 144840, Note_on_c, 0, 75, 0
2, 144840, Note_on_c, 0, 76, 67
2, 144960, Note_on_c, 0, 76, 0
2, 144960, Note_on_c, 0, 77, 67
2, 145080, Note_on_c, 0, 77, 0
2, 145080, Note_on_c, 0, 76, 67
2, 145200, Note_on_c, 0, 76, 0
2, 145200, Note_on_c, 0, 77, 67
2, 145320, Note_on_c, 0, 77, 0
2, 145320, Note_on_c, 0, 74, 67
2, 145440, Note_on_c, 0, 74, 0
2, 145440, Note_on_c, 0, 75, 93
2, 145560, Note_on_c, 0, 75, 0
2, 145560, Note_on_c, 0, 73, 67
2, 145680, Note_on_c, 0, 73, 0
2, 145680, Note_on_c, 0, 75, 93
2, 145800, Note_on_c, 0, 75, 0
2, 145800, Note_on_c, 0, 73, 67
2, 145920, Note_on_c, 0, 73, 0
2, 145920, Note_on_c, 0, 75, 67
2, 146040, Note_on_c, 0, 75, 0
2, 146040, Note_on_c, 0, 74, 67
2, 146160, Note_on_c, 0, 74, 0
2, 146160, Note_on_c, 0, 69, 67
2, 146280, Note_on_c, 0, 69, 0
2, 146280, Note_on_c, 0, 70, 67
2, 146400, Note_on_c, 0, 70, 0
2, 146400, Note_on_c, 0, 73, 67
2, 146520, Note_on_c, 0, 73, 0
2, 146520, Note_on_c, 0, 74, 67
2, 146640, Note_on_c, 0, 74, 0
2, 146640, Note_on_c, 0, 73, 67
2, 146760, Note_on_c, 0, 73, 0
2, 146760, Note_on_c, 0, 74, 67
2, 146880, Note_on_c, 0, 74, 0
2, 146880, Note_on_c, 0, 69, 67
2, 147000, Note_on_c, 0, 69, 0
2, 147000, Note_on_c, 0, 70, 67
2, 147120, Note_on_c, 0, 70, 0
2, 147120, Note_on_c, 0, 69, 67
2, 147240, Note_on_c, 0, 69, 0
2, 147240, Note_on_c, 0, 68, 67
2, 147360, Note_on_c, 0, 68, 0
2, 147360, Note_on_c, 0, 69, 67
2, 147480, Note_on_c, 0, 69, 0
2, 147480, Note_on_c, 0, 65, 67
2, 147600, Note_on_c, 0, 65, 0
2, 147600, Note_on_c, 0, 62, 67
2, 147720, Note_on_c, 0, 62, 0
2, 147720, Note_on_c, 0, 74, 67
2, 147840, Note_on_c, 0, 74, 0
2, 147840, Note_on_c, 0, 73, 67
2, 147960, Note_on_c, 0, 73, 0
2, 147960, Note_on_c, 0, 74, 67
2, 148080, Note_on_c, 0, 74, 0
2, 148080, Note_on_c, 0, 62, 67
2, 148200, Note_on_c, 0, 62, 0
2, 148200, Note_on_c, 0, 65, 67
2, 148320, Note_on_c, 0, 65, 0
2, 148320, Note_on_c, 0, 70, 67
2, 148440, Note_on_c, 0, 70, 0
2, 148440, Note_on_c, 0, 74, 67
2, 148560, Note_on_c, 0, 74, 0
2, 148560, Note_on_c, 0, 75, 67
2, 148680, Note_on_c, 0, 75, 0
2, 148680, Note_on_c, 0, 71, 67
2, 148800, Note_on_c, 0, 71, 0
2, 148800, Note_on_c, 0, 72, 67
2, 148920, Note_on_c, 0, 72, 0
2, 148920, Note_on_c, 0, 74, 67
2, 149040, Note_on_c, 0, 74, 0
2, 149040, Note_on_c, 0, 75, 67
2, 149160, Note_on_c, 0, 75, 0
2, 149160, Note_on_c, 0, 76, 67
2, 149280, Note_on_c, 0, 76, 0
2, 149280, Note_on_c, 0, 77, 67
2, 149400, Note_on_c, 0, 77, 0
2, 149400, Note_on_c, 0, 76, 67
2, 149520, Note_on_c, 0, 76, 0
2, 149520, Note_on_c, 0, 77, 67
2, 149640, Note_on_c, 0, 77, 0
2, 149640, Note_on_c, 0, 74, 67
2, 149760, Note_on_c, 0, 74, 0
2, 149760, Note_on_c, 0, 75, 67
2, 149880, Note_on_c, 0, 75, 0
2, 149880, Note_on_c, 0, 74, 67
2, 150000, Note_on_c, 0, 74, 0
2, 150000, Note_on_c, 0, 75, 67
2, 150120, Note_on_c, 0, 75, 0
2, 150120, Note_on_c, 0, 71, 67
2, 150240, Note_on_c, 0, 71, 0
2, 150240, Note_on_c, 0, 72, 67
2, 150360, Note_on_c, 0, 72, 0
2, 150360, Note_on_c, 0, 74, 67
2, 150480, Note_on_c, 0, 74, 0
2, 150480, Note_on_c, 0, 75, 67
2, 150600, Note_on_c, 0, 75, 0
2, 150600, Note_on_c, 0, 76, 67
2, 150720, Note_on_c, 0, 76, 0
2, 150720, Note_on_c, 0, 77, 67
2, 150840, Note_on_c, 0, 77, 0
2, 150840, Note_on_c, 0, 76, 67
2, 150960, Note_on_c, 0, 76, 0
2, 150960, Note_on_c, 0, 77, 67
2, 151080, Note_on_c, 0, 77, 0
2, 151080, Note_on_c, 0, 74, 67
2, 151200, Note_on_c, 0, 74, 0
2, 151200, Note_on_c, 0, 75, 67
2, 151320, Note_on_c, 0, 75, 0
2, 151320, Note_on_c, 0, 73, 67
2, 151440, Note_on_c, 0, 73, 0
2, 151440, Note_on_c, 0, 75, 67
2, 151560, Note_on_c, 0, 75, 0
2, 151560, Note_on_c, 0, 73, 67
2, 151680, Note_on_c, 0, 73, 0
2, 151680, Note_on_c, 0, 75, 67
2, 151800, Note_on_c, 0, 75, 0
2, 151800, Note_on_c, 0, 74, 67
2, 151920, Note_on_c, 0, 74, 0
2, 151920, Note_on_c, 0, 69, 67
2, 152040, Note_on_c, 0, 69, 0
2, 152040, Note_on_c, 0, 70, 67
2, 152160, Note_on_c, 0, 70, 0
2, 152160, Note_on_c, 0, 73, 67
2, 152280, Note_on_c, 0, 73, 0
2, 152280, Note_on_c, 0, 74, 67
2, 152400, Note_on_c, 0, 74, 0
2, 152400, Note_on_c, 0, 73, 67
2, 152520, Note_on_c, 0, 73, 0
2, 152520, Note_on_c, 0, 74, 67
2, 152640, Note_on_c, 0, 74, 0
2, 152640, Note_on_c, 0, 69, 67
2, 152760, Note_on_c, 0, 69, 0
2, 152760, Note_on_c, 0, 70, 67
2, 152880, Note_on_c, 0, 70, 0
2, 152880, Note_on_c, 0, 62, 67
2, 152880, Note_on_c, 0, 74, 67
2, 153000, Note_on_c, 0, 74, 0
2, 153000, Note_on_c, 0, 62, 0
2, 153000, Note_on_c, 0, 50, 67
2, 153120, Note_on_c, 0, 50, 0
2, 153120, Note_on_c, 0, 74, 67
2, 153240, Note_on_c, 0, 74, 0
2, 153240, Note_on_c, 0, 86, 67
2, 153360, Note_on_c, 0, 86, 0
2, 153360, Note_on_c, 0, 62, 67
2, 153480, Note_on_c, 0, 62, 0
2, 153480, Note_on_c, 0, 74, 67
2, 153600, Note_on_c, 0, 74, 0
2, 153600, Note_on_c, 0, 74, 67
2, 153720, Note_on_c, 0, 74, 0
2, 153720, Note_on_c, 0, 86, 67
2, 153840, Note_on_c, 0, 86, 0
2, 153840, Note_on_c, 0, 67, 67
2, 153960, Note_on_c, 0, 67, 0
2, 153960, Note_on_c, 0, 79, 67
2, 154080, Note_on_c, 0, 79, 0
2, 154080, Note_on_c, 0, 79, 67
2, 154200, Note_on_c, 0, 79, 0
2, 154200, Note_on_c, 0, 91, 67
2, 154320, Note_on_c, 0, 91, 0
2, 154320, Control_c, 0, 64, 127
2, 154320, Note_on_c, 0, 74, 67
2, 154440, Note_on_c, 0, 74, 0
2, 154440, Note_on_c, 0, 86, 67
2, 154560, Note_on_c, 0, 86, 0
2, 154560, Note_on_c, 0, 86, 67
2, 154680, Note_on_c, 0, 86, 0
2, 154680, Note_on_c, 0, 98, 67
2, 154800, Note_on_c, 0, 98, 0
2, 154800, Note_on_c, 0, 74, 67
2, 154920, Note_on_c, 0, 74, 0
2, 154920, Note_on_c, 0, 86, 67
2, 155040, Note_on_c, 0, 86, 0
2, 155040, Note_on_c, 0, 86, 67
2, 155160, Note_on_c, 0, 86, 0
2, 155160, Note_on_c, 0, 98, 67
2, 155280, Note_on_c, 0, 98, 0
2, 155280, Note_on_c, 0, 74, 67
2, 155400, Note_on_c, 0, 74, 0
2, 155400, Note_on_c, 0, 86, 67
2, 155520, Note_on_c, 0, 86, 0
2, 155520, Note_on_c, 0, 86, 67
2, 155640, Note_on_c, 0, 86, 0
2, 155640, Note_on_c, 0, 98, 67
2, 155760, Note_on_c, 0, 98, 0
2, 155760, Note_on_c, 0, 62, 67
2, 155880, Note_on_c, 0, 62, 0
2, 155880, Note_on_c, 0, 74, 67
2, 156000, Note_on_c, 0, 74, 0
2, 156000, Note_on_c, 0, 74, 67
2, 156120, Note_on_c, 0, 74, 0
2, 156120, Note_on_c, 0, 86, 67
2, 156240, Note_on_c, 0, 86, 0
2, 156240, Note_on_c, 0, 62, 67
2, 156360, Note_on_c, 0, 62, 0
2, 156360, Note_on_c, 0, 74, 67
2, 156480, Note_on_c, 0, 74, 0
2, 156480, Note_on_c, 0, 74, 67
2, 156600, Note_on_c, 0, 74, 0
2, 156600, Note_on_c, 0, 86, 67
2, 156720, Note_on_c, 0, 86, 0
2, 156720, Note_on_c, 0, 67, 67
2, 156840, Note_on_c, 0, 67, 0
2, 156840, Note_on_c, 0, 79, 67
2, 156960, Note_on_c, 0, 79, 0
2, 156960, Note_on_c, 0, 79, 67
2, 157080, Note_on_c, 0, 79, 0
2, 157080, Control_c, 0, 64, 0
2, 157080, Note_on_c, 0, 91, 67
2, 157200, Note_on_c, 0, 91, 0
2, 157200, Control_c, 0, 64, 127
2, 157200, Note_on_c, 0, 74, 67
2, 157320, Note_on_c, 0, 74, 0
2, 157320, Note_on_c, 0, 86, 67
2, 157440, Note_on_c, 0, 86, 0
2, 157440, Note_on_c, 0, 86, 67
2, 157560, Note_on_c, 0, 86, 0
2, 157560, Note_on_c, 0, 98, 67
2, 157680, Note_on_c, 0, 98, 0
2, 157680, Note_on_c, 0, 74, 67
2, 157800, Note_on_c, 0, 74, 0
2, 157800, Note_on_c, 0, 86, 67
2, 157920, Note_on_c, 0, 86, 0
2, 157920, Note_on_c, 0, 86, 67
2, 158040, Note_on_c, 0, 86, 0
2, 158040, Note_on_c, 0, 98, 67
2, 158160, Note_on_c, 0, 98, 0
2, 158160, Note_on_c, 0, 74, 67
2, 158280, Note_on_c, 0, 74, 0
2, 158280, Note_on_c, 0, 86, 67
2, 158400, Note_on_c, 0, 86, 0
2, 158400, Note_on_c, 0, 86, 67
2, 158520, Note_on_c, 0, 86, 0
2, 158520, Note_on_c, 0, 98, 67
2, 158640, Note_on_c, 0, 98, 0
2, 158640, Control_c, 0, 64, 0
2, 158640, Note_on_c, 0, 79, 67
2, 158640, Note_on_c, 0, 91, 67
2, 158640, Note_on_c, 0, 103, 67
2, 158880, Note_on_c, 0, 103, 0
2, 158880, Note_on_c, 0, 91, 0
2, 158880, Note_on_c, 0, 79, 0
2, 164160, Note_on_c, 0, 69, 67
2, 164160, Note_on_c, 0, 77, 67
2, 164400, Note_on_c, 0, 77, 0
2, 164400, Note_on_c, 0, 69, 0
2, 164400, Note_on_c, 0, 70, 67
2, 164400, Note_on_c, 0, 74, 67
2, 164640, Note_on_c, 0, 74, 0
2, 164640, Note_on_c, 0, 70, 0
2, 164640, Note_on_c, 0, 66, 67
2, 164640, Note_on_c, 0, 72, 67
2, 164687, Note_on_c, 0, 72, 0
2, 164687, Note_on_c, 0, 66, 0
2, 164880, Note_on_c, 0, 68, 93
2, 164880, Note_on_c, 0, 76, 93
2, 165120, Note_on_c, 0, 76, 0
2, 165120, Note_on_c, 0, 68, 0
2, 165120, Note_on_c, 0, 69, 67
2, 165120, Note_on_c, 0, 72, 67
2, 165360, Note_on_c, 0, 72, 0
2, 165360, Note_on_c, 0, 69, 0
2, 165360, Note_on_c, 0, 57, 67
2, 165360, Note_on_c, 0, 60, 67
2, 165360, Note_on_c, 0, 64, 67
2, 165360, Note_on_c, 0, 67, 67
2, 165407, Note_on_c, 0, 67, 0
2, 165407, Note_on_c, 0, 57, 0
2, 165407, Note_on_c, 0, 60, 0
2, 165407, Note_on_c, 0, 64, 0
2, 165600, Note_on_c, 0, 62, 67
2, 165600, Note_on_c, 0, 65, 67
2, 165840, Note_on_c, 0, 65, 0
2, 165840, Note_on_c, 0, 62, 0
2, 165840, Note_on_c, 0, 61, 67
2, 165840, Note_on_c, 0, 64, 67
2, 165840, Note_on_c, 0, 70, 67
2, 166080, Note_on_c, 0, 70, 0
2, 166080, Note_on_c, 0, 64, 0
2, 166080, Note_on_c, 0, 61, 0
2, 166080, Note_on_c, 0, 54, 93
2, 166080, Note_on_c, 0, 60, 93
2, 166080, Note_on_c, 0, 63, 93
2, 166320, Note_on_c, 0, 63, 0
2, 166320, Note_on_c, 0, 60, 0
2, 166320, Note_on_c, 0, 54, 0
2, 166320, Note_on_c, 0, 61, 67
2, 166320, Note_on_c, 0, 64, 67
2, 166320, Note_on_c, 0, 70, 67
2, 166560, Note_on_c, 0, 70, 0
2, 166560, Note_on_c, 0, 64, 0
2, 166560, Note_on_c, 0, 61, 0
2, 166800, Note_on_c, 0, 56, 93
2, 166800, Note_on_c, 0, 61, 93
2, 167040, Note_on_c, 0, 61, 0
2, 167040, Note_on_c, 0, 56, 0
2, 167040, Note_on_c, 0, 57, 67
2, 167040, Note_on_c, 0, 60, 67
2, 167280, Note_on_c, 0, 60, 0
2, 167280, Note_on_c, 0, 57, 0
2, 167280, Note_on_c, 0, 55, 67
2, 167400, Note_on_c, 0, 55, 0
2, 167400, Note_on_c, 0, 56, 67
2, 167520, Note_on_c, 0, 56, 0
2, 167520, Note_on_c, 0, 64, 67
2, 167640, Note_on_c, 0, 64, 0
2, 167640, Note_on_c, 0, 65, 67
2, 167760, Note_on_c, 0, 65, 0
2, 167760, Note_on_c, 0, 67, 67
2, 167880, Note_on_c, 0, 67, 0
2, 167880, Note_on_c, 0, 68, 67
2, 168000, Note_on_c, 0, 68, 0
2, 168000, Note_on_c, 0, 76, 67
2, 168120, Note_on_c, 0, 76, 0
2, 168120, Note_on_c, 0, 77, 67
2, 168240, Note_on_c, 0, 77, 0
2, 168240, Note_on_c, 0, 71, 67
2, 168360, Note_on_c, 0, 71, 0
2, 168360, Note_on_c, 0, 72, 67
2, 168480, Note_on_c, 0, 72, 0
2, 168480, Note_on_c, 0, 80, 67
2, 168600, Note_on_c, 0, 80, 0
2, 168600, Note_on_c, 0, 81, 67
2, 168720, Note_on_c, 0, 81, 0
2, 168720, Control_c, 0, 64, 127
2, 168720, Note_on_c, 0, 79, 67
2, 168840, Note_on_c, 0, 79, 0
2, 168840, Note_on_c, 0, 80, 67
2, 168960, Note_on_c, 0, 80, 0
2, 168960, Note_on_c, 0, 88, 93
2, 169080, Note_on_c, 0, 88, 0
2, 169080, Note_on_c, 0, 89, 67
2, 169200, Note_on_c, 0, 89, 0
2, 169200, Note_on_c, 0, 91, 93
2, 169320, Note_on_c, 0, 91, 0
2, 169320, Note_on_c, 0, 92, 67
2, 169440, Note_on_c, 0, 92, 0
2, 169440, Note_on_c, 0, 94, 67
2, 169560, Note_on_c, 0, 94, 0
2, 169560, Note_on_c, 0, 95, 67
2, 169680, Note_on_c, 0, 95, 0
2, 169680, Control_c, 0, 64, 0
2, 169680, Note_on_c, 0, 89, 67
2, 169680, Note_on_c, 0, 93, 67
2, 169680, Note_on_c, 0, 101, 67
2, 169920, Note_on_c, 0, 101, 0
2, 169920, Note_on_c, 0, 93, 0
2, 169920, Note_on_c, 0, 89, 0
2, 169920, Note_on_c, 0, 81, 67
2, 169920, Note_on_c, 0, 89, 67
2, 170160, Note_on_c, 0, 89, 0
2, 170160, Note_on_c, 0, 81, 0
2, 170160, Note_on_c, 0, 82, 67
2, 170160, Note_on_c, 0, 86, 67
2, 170400, Note_on_c, 0, 86, 0
2, 170400, Note_on_c, 0, 82, 0
2, 170400, Note_on_c, 0, 78, 67
2, 170400, Note_on_c, 0, 84, 67
2, 170447, Note_on_c, 0, 84, 0
2, 170447, Note_on_c, 0, 78, 0
2, 170640, Note_on_c, 0, 80, 93
2, 170640, Note_on_c, 0, 88, 93
2, 170880, Note_on_c, 0, 88, 0
2, 170880, Note_on_c, 0, 80, 0
2, 170880, Note_on_c, 0, 81, 67
2, 170880, Note_on_c, 0, 84, 67
2, 171120, Note_on_c, 0, 84, 0
2, 171120, Note_on_c, 0, 81, 0
2, 171120, Note_on_c, 0, 69, 67
2, 171120, Note_on_c, 0, 72, 67
2, 171120, Note_on_c, 0, 76, 67
2, 171120, Note_on_c, 0, 79, 67
2, 171167, Note_on_c, 0, 79, 0
2, 171167, Note_on_c, 0, 69, 0
2, 171167, Note_on_c, 0, 72, 0
2, 171167, Note_on_c, 0, 76, 0
2, 171360, Note_on_c, 0, 74, 67
2, 171360, Note_on_c, 0, 77, 67
2, 171600, Note_on_c, 0, 77, 0
2, 171600, Note_on_c, 0, 74, 0
2, 171600, Note_on_c, 0, 73, 67
2, 171600, Note_on_c, 0, 76, 67
2, 171600, Note_on_c, 0, 82, 67
2, 171647, Note_on_c, 0, 82, 0
2, 171647, Note_on_c, 0, 76, 0
2, 171647, Note_on_c, 0, 73, 0
2, 171840, Note_on_c, 0, 66, 67
2, 171840, Note_on_c, 0, 72, 67
2, 171840, Note_on_c, 0, 75, 67
2, 171887, Note_on_c, 0, 75, 0
2, 171887, Note_on_c, 0, 72, 0
2, 171887, Note_on_c, 0, 66, 0
2, 172080, Note_on_c, 0, 73, 67
2, 172080, Note_on_c, 0, 76, 67
2, 172080, Note_on_c, 0, 82, 67
2, 172127, Note_on_c, 0, 82, 0
2, 172127, Note_on_c, 0, 76, 0
2, 172127, Note_on_c, 0, 73, 0
2, 172320, Note_on_c, 0, 61, 67
2, 172320, Note_on_c, 0, 65, 67
2, 172320, Note_on_c, 0, 71, 67
2, 172367, Note_on_c, 0, 71, 0
2, 172367, Note_on_c, 0, 65, 0
2, 172367, Note_on_c, 0, 61, 0
2, 172560, Note_on_c, 0, 68, 93
2, 172560, Note_on_c, 0, 73, 93
2, 172800, Note_on_c, 0, 73, 0
2, 172800, Note_on_c, 0, 68, 0
2, 172800, Note_on_c, 0, 69, 67
2, 172800, Note_on_c, 0, 72, 67
2, 173040, Note_on_c, 0, 72, 0
2, 173040, Note_on_c, 0, 69, 0
2, 173040, Note_on_c, 0, 66, 67
2, 173160, Note_on_c, 0, 66, 0
2, 173160, Note_on_c, 0, 67, 67
2, 173280, Note_on_c, 0, 67, 0
2, 173280, Note_on_c, 0, 75, 67
2, 173400, Note_on_c, 0, 75, 0
2, 173400, Note_on_c, 0, 76, 67
2, 173520, Note_on_c, 0, 76, 0
2, 173520, Note_on_c, 0, 63, 67
2, 173640, Note_on_c, 0, 63, 0
2, 173640, Note_on_c, 0, 64, 67
2, 173760, Note_on_c, 0, 64, 0
2, 173760, Note_on_c, 0, 72, 67
2, 173880, Note_on_c, 0, 72, 0
2, 173880, Note_on_c, 0, 73, 67
2, 174000, Note_on_c, 0, 73, 0
2, 174000, Note_on_c, 0, 60, 67
2, 174120, Note_on_c, 0, 60, 0
2, 174120, Note_on_c, 0, 61, 67
2, 174240, Note_on_c, 0, 61, 0
2, 174240, Note_on_c, 0, 68, 67
2, 174360, Note_on_c, 0, 68, 0
2, 174360, Note_on_c, 0, 69, 67
2, 174480, Note_on_c, 0, 69, 0
2, 174480, Control_c, 0, 64, 127
2, 174480, Note_on_c, 0, 53, 67
2, 174600, Note_on_c, 0, 53, 0
2, 174600, Note_on_c, 0, 59, 67
2, 174720, Note_on_c, 0, 59, 0
2, 174720, Note_on_c, 0, 64, 67
2, 174840, Note_on_c, 0, 64, 0
2, 174840, Note_on_c, 0, 65, 67
2, 174960, Note_on_c, 0, 65, 0
2, 174960, Note_on_c, 0, 65, 67
2, 175080, Note_on_c, 0, 65, 0
2, 175080, Note_on_c, 0, 71, 67
2, 175200, Note_on_c, 0, 71, 0
2, 175200, Note_on_c, 0, 76, 67
2, 175320, Note_on_c, 0, 76, 0
2, 175320, Note_on_c, 0, 77, 67
2, 175440, Note_on_c, 0, 77, 0
2, 175440, Note_on_c, 0, 75, 67
2, 175560, Note_on_c, 0, 75, 0
2, 175560, Note_on_c, 0, 76, 67
2, 175680, Note_on_c, 0, 76, 0
2, 175680, Control_c, 0, 64, 0
2, 175680, Note_on_c, 0, 81, 67
2, 175920, Note_on_c, 0, 81, 0
2, 176160, Control_c, 0, 64, 127
2, 176160, Note_on_c, 0, 69, 80
2, 176160, Note_on_c, 0, 81, 80
2, 176280, Note_on_c, 0, 81, 0
2, 176280, Note_on_c, 0, 69, 0
2, 176280, Note_on_c, 0, 70, 80
2, 176400, Note_on_c, 0, 70, 0
2, 176400, Note_on_c, 0, 71, 80
2, 176400, Note_on_c, 0, 83, 80
2, 176520, Note_on_c, 0, 83, 0
2, 176520, Note_on_c, 0, 71, 0
2, 176520, Note_on_c, 0, 72, 80
2, 176640, Note_on_c, 0, 72, 0
2, 176640, Note_on_c, 0, 73, 80
2, 176640, Note_on_c, 0, 85, 80
2, 176760, Note_on_c, 0, 85, 0
2, 176760, Note_on_c, 0, 73, 0
2, 176760, Note_on_c, 0, 74, 80
2, 176880, Note_on_c, 0, 74, 0
2, 176880, Note_on_c, 0, 75, 80
2, 176880, Note_on_c, 0, 87, 80
2, 177000, Note_on_c, 0, 87, 0
2, 177000, Note_on_c, 0, 75, 0
2, 177000, Note_on_c, 0, 76, 80
2, 177120, Note_on_c, 0, 76, 0
2, 177120, Control_c, 0, 64, 0
2, 177120, Note_on_c, 0, 77, 80
2, 177120, Note_on_c, 0, 89, 80
2, 177360, Note_on_c, 0, 89, 0
2, 177360, Note_on_c, 0, 77, 0
2, 177360, Note_on_c, 0, 71, 80
2, 177480, Note_on_c, 0, 71, 0
2, 177480, Note_on_c, 0, 77, 80
2, 177600, Note_on_c, 0, 77, 0
2, 177600, Note_on_c, 0, 76, 80
2, 177720, Note_on_c, 0, 76, 0
2, 177720, Note_on_c, 0, 82, 80
2, 177840, Note_on_c, 0, 82, 0
2, 177840, Note_on_c, 0, 81, 80
2, 177960, Note_on_c, 0, 81, 0
2, 177960, Note_on_c, 0, 87, 80
2, 178080, Note_on_c, 0, 87, 0
2, 178080, Note_on_c, 0, 80, 80
2, 178200, Note_on_c, 0, 80, 0
2, 178200, Note_on_c, 0, 86, 80
2, 178320, Note_on_c, 0, 86, 0
2, 178320, Note_on_c, 0, 79, 80
2, 178440, Note_on_c, 0, 79, 0
2, 178440, Note_on_c, 0, 85, 80
2, 178440, Note_on_c, 0, 91, 80
2, 178560, Note_on_c, 0, 91, 0
2, 178560, Note_on_c, 0, 85, 0
2, 178560, Note_on_c, 0, 84, 80
2, 178680, Note_on_c, 0, 84, 0
2, 178680, Note_on_c, 0, 90, 80
2, 178680, Note_on_c, 0, 96, 80
2, 178800, Note_on_c, 0, 96, 0
2, 178800, Note_on_c, 0, 90, 0
2, 178800, Note_on_c, 0, 83, 80
2, 178800, Note_on_c, 0, 89, 80
2, 178800, Note_on_c, 0, 95, 80
2, 178847, Note_on_c, 0, 95, 0
2, 178847, Note_on_c, 0, 89, 0
2, 178847, Note_on_c, 0, 83, 0
2, 179040, Note_on_c, 0, 74, 67
2, 179040, Note_on_c, 0, 79, 67
2, 179160, Note_on_c, 0, 79, 0
2, 179160, Note_on_c, 0, 80, 67
2, 179280, Note_on_c, 0, 80, 0
2, 179280, Note_on_c, 0, 79, 67
2, 179400, Note_on_c, 0, 79, 0
2, 179400, Note_on_c, 0, 80, 67
2, 179520, Note_on_c, 0, 80, 0
2, 179520, Note_on_c, 0, 74, 0
2, 179520, Note_on_c, 0, 74, 67
2, 179520, Note_on_c, 0, 79, 67
2, 179640, Note_on_c, 0, 79, 0
2, 179640, Note_on_c, 0, 80, 67
2, 179760, Note_on_c, 0, 80, 0
2, 179760, Note_on_c, 0, 79, 67
2, 179880, Note_on_c, 0, 79, 0
2, 179880, Note_on_c, 0, 80, 67
2, 180000, Note_on_c, 0, 80, 0
2, 180000, Note_on_c, 0, 74, 0
2, 180000, Note_on_c, 0, 73, 67
2, 180000, Note_on_c, 0, 80, 67
2, 180120, Note_on_c, 0, 80, 0
2, 180120, Note_on_c, 0, 81, 67
2, 180240, Note_on_c, 0, 81, 0
2, 180240, Note_on_c, 0, 73, 0
2, 180240, Control_c, 0, 64, 127
2, 180240, Note_on_c, 0, 83, 67
2, 180360, Note_on_c, 0, 83, 0
2, 180360, Note_on_c, 0, 81, 67
2, 180480, Note_on_c, 0, 81, 0
2, 180480, Note_on_c, 0, 78, 67
2, 180600, Note_on_c, 0, 78, 0
2, 180600, Note_on_c, 0, 76, 67
2, 180720, Note_on_c, 0, 76, 0
2, 180720, Note_on_c, 0, 73, 67
2, 180840, Note_on_c, 0, 73, 0
2, 180840, Note_on_c, 0, 69, 67
2, 180960, Note_on_c, 0, 69, 0
2, 180960, Note_on_c, 0, 66, 67
2, 181080, Note_on_c, 0, 66, 0
2, 181080, Note_on_c, 0, 64, 67
2, 181200, Note_on_c, 0, 64, 0
2, 181200, Note_on_c, 0, 61, 67
2, 181320, Note_on_c, 0, 61, 0
2, 181320, Note_on_c, 0, 57, 67
2, 181440, Note_on_c, 0, 57, 0
2, 181440, Note_on_c, 0, 54, 67
2, 181560, Note_on_c, 0, 54, 0
2, 181560, Control_c, 0, 64, 0
2, 181560, Note_on_c, 0, 52, 67
2, 181680, Note_on_c, 0, 52, 0
2, 181920, Control_c, 0, 64, 127
2, 181920, Note_on_c, 0, 69, 80
2, 181920, Note_on_c, 0, 81, 80
2, 182040, Note_on_c, 0, 81, 0
2, 182040, Note_on_c, 0, 69, 0
2, 182040, Note_on_c, 0, 70, 80
2, 182160, Note_on_c, 0, 70, 0
2, 182160, Note_on_c, 0, 71, 80
2, 182160, Note_on_c, 0, 83, 80
2, 182280, Note_on_c, 0, 83, 0
2, 182280, Note_on_c, 0, 71, 0
2, 182280, Note_on_c, 0, 72, 80
2, 182400, Note_on_c, 0, 72, 0
2, 182400, Note_on_c, 0, 73, 93
2, 182400, Note_on_c, 0, 85, 93
2, 182520, Note_on_c, 0, 85, 0
2, 182520, Note_on_c, 0, 73, 0
2, 182520, Note_on_c, 0, 74, 93
2, 182640, Note_on_c, 0, 74, 0
2, 182640, Note_on_c, 0, 75, 93
2, 182640, Note_on_c, 0, 87, 93
2, 182760, Note_on_c, 0, 87, 0
2, 182760, Note_on_c, 0, 75, 0
2, 182760, Note_on_c, 0, 76, 93
2, 182880, Note_on_c, 0, 76, 0
2, 182880, Control_c, 0, 64, 0
2, 182880, Note_on_c, 0, 77, 93
2, 182880, Note_on_c, 0, 89, 93
2, 182927, Note_on_c, 0, 89, 0
2, 182927, Note_on_c, 0, 77, 0
2, 183120, Note_on_c, 0, 59, 67
2, 183240, Note_on_c, 0, 59, 0
2, 183240, Note_on_c, 0, 65, 67
2, 183360, Note_on_c, 0, 65, 0
2, 183360, Note_on_c, 0, 64, 67
2, 183480, Note_on_c, 0, 64, 0
2, 183480, Note_on_c, 0, 70, 67
2, 183600, Note_on_c, 0, 70, 0
2, 183600, Note_on_c, 0, 69, 67
2, 183720, Note_on_c, 0, 69, 0
2, 183720, Note_on_c, 0, 75, 67
2, 183840, Note_on_c, 0, 75, 0
2, 183840, Note_on_c, 0, 68, 67
2, 183960, Note_on_c, 0, 68, 0
2, 183960, Note_on_c, 0, 74, 67
2, 184080, Note_on_c, 0, 74, 0
2, 184080, Note_on_c, 0, 67, 67
2, 184200, Note_on_c, 0, 67, 0
2, 184200, Note_on_c, 0, 73, 67
2, 184200, Note_on_c, 0, 79, 67
2, 184320, Note_on_c, 0, 79, 0
2, 184320, Note_on_c, 0, 73, 0
2, 184320, Note_on_c, 0, 72, 67
2, 184440, Note_on_c, 0, 72, 0
2, 184440, Note_on_c, 0, 78, 67
2, 184440, Note_on_c, 0, 84, 67
2, 184560, Note_on_c, 0, 84, 0
2, 184560, Note_on_c, 0, 78, 0
2, 184560, Note_on_c, 0, 71, 67
2, 184560, Note_on_c, 0, 77, 67
2, 184560, Note_on_c, 0, 83, 67
2, 184607, Note_on_c, 0, 83, 0
2, 184607, Note_on_c, 0, 77, 0
2, 184607, Note_on_c, 0, 71, 0
2, 184800, Note_on_c, 0, 62, 67
2, 184800, Note_on_c, 0, 67, 67
2, 184920, Note_on_c, 0, 67, 0
2, 184920, Note_on_c, 0, 68, 67
2, 185040, Note_on_c, 0, 68, 0
2, 185040, Note_on_c, 0, 67, 67
2, 185160, Note_on_c, 0, 67, 0
2, 185160, Note_on_c, 0, 68, 67
2, 185280, Note_on_c, 0, 68, 0
2, 185280, Note_on_c, 0, 62, 0
2, 185280, Note_on_c, 0, 62, 67
2, 185280, Note_on_c, 0, 67, 67
2, 185400, Note_on_c, 0, 67, 0
2, 185400, Note_on_c, 0, 68, 67
2, 185520, Note_on_c, 0, 68, 0
2, 185520, Note_on_c, 0, 67, 67
2, 185640, Note_on_c, 0, 67, 0
2, 185640, Note_on_c, 0, 68, 67
2, 185760, Note_on_c, 0, 68, 0
2, 185760, Note_on_c, 0, 62, 0
2, 185760, Note_on_c, 0, 61, 67
2, 185760, Note_on_c, 0, 68, 67
2, 185880, Note_on_c, 0, 68, 0
2, 185880, Note_on_c, 0, 69, 67
2, 186000, Note_on_c, 0, 69, 0
2, 186000, Note_on_c, 0, 61, 0
2, 186000, Control_c, 0, 64, 127
2, 186000, Note_on_c, 0, 71, 67
2, 186120, Note_on_c, 0, 71, 0
2, 186120, Note_on_c, 0, 69, 67
2, 186240, Note_on_c, 0, 69, 0
2, 186240, Note_on_c, 0, 66, 67
2, 186360, Note_on_c, 0, 66, 0
2, 186360, Note_on_c, 0, 64, 67
2, 186480, Note_on_c, 0, 64, 0
2, 186480, Note_on_c, 0, 61, 67
2, 186600, Note_on_c, 0, 61, 0
2, 186600, Note_on_c, 0, 57, 67
2, 186720, Note_on_c, 0, 57, 0
2, 186720, Note_on_c, 0, 54, 67
2, 186840, Note_on_c, 0, 54, 0
2, 186840, Note_on_c, 0, 52, 67
2, 186960, Note_on_c, 0, 52, 0
2, 186960, Note_on_c, 0, 49, 67
2, 187080, Note_on_c, 0, 49, 0
2, 187080, Note_on_c, 0, 45, 67
2, 187200, Note_on_c, 0, 45, 0
2, 187200, Note_on_c, 0, 33, 67
2, 187200, Note_on_c, 0, 37, 67
2, 187200, Note_on_c, 0, 42, 67
2, 187320, Note_on_c, 0, 42, 0
2, 187320, Note_on_c, 0, 37, 0
2, 187320, Note_on_c, 0, 33, 0
2, 187320, Control_c, 0, 64, 0
2, 187320, Note_on_c, 0, 40, 67
2, 187440, Note_on_c, 0, 40, 0
2, 187440, Control_c, 0, 64, 127
2, 187440, Note_on_c, 0, 74, 67
2, 187560, Note_on_c, 0, 74, 0
2, 187560, Note_on_c, 0, 73, 67
2, 187680, Note_on_c, 0, 73, 0
2, 187680, Note_on_c, 0, 69, 67
2, 187800, Note_on_c, 0, 69, 0
2, 187800, Note_on_c, 0, 64, 67
2, 187920, Note_on_c, 0, 64, 0
2, 187920, Note_on_c, 0, 62, 67
2, 188040, Note_on_c, 0, 62, 0
2, 188040, Note_on_c, 0, 61, 67
2, 188160, Note_on_c, 0, 61, 0
2, 188160, Note_on_c, 0, 59, 67
2, 188280, Note_on_c, 0, 59, 0
2, 188280, Note_on_c, 0, 57, 67
2, 188400, Note_on_c, 0, 57, 0
2, 188400, Note_on_c, 0, 54, 67
2, 188520, Note_on_c, 0, 54, 0
2, 188520, Note_on_c, 0, 52, 67
2, 188640, Note_on_c, 0, 52, 0
2, 188640, Note_on_c, 0, 49, 67
2, 188760, Note_on_c, 0, 49, 0
2, 188760, Control_c, 0, 64, 0
2, 188760, Note_on_c, 0, 45, 67
2, 188880, Note_on_c, 0, 45, 0
2, 188880, Control_c, 0, 64, 127
2, 188880, Note_on_c, 0, 78, 67
2, 189000, Note_on_c, 0, 78, 0
2, 189000, Note_on_c, 0, 76, 67
2, 189120, Note_on_c, 0, 76, 0
2, 189120, Note_on_c, 0, 73, 67
2, 189240, Note_on_c, 0, 73, 0
2, 189240, Note_on_c, 0, 69, 67
2, 189360, Note_on_c, 0, 69, 0
2, 189360, Note_on_c, 0, 66, 67
2, 189480, Note_on_c, 0, 66, 0
2, 189480, Note_on_c, 0, 64, 67
2, 189600, Note_on_c, 0, 64, 0
2, 189600, Note_on_c, 0, 62, 67
2, 189720, Note_on_c, 0, 62, 0
2, 189720, Note_on_c, 0, 61, 67
2, 189840, Note_on_c, 0, 61, 0
2, 189840, Note_on_c, 0, 57, 67
2, 189960, Note_on_c, 0, 57, 0
2, 189960, Note_on_c, 0, 52, 67
2, 190080, Note_on_c, 0, 52, 0
2, 190080, Note_on_c, 0, 49, 67
2, 190200, Note_on_c, 0, 49, 0
2, 190200, Control_c, 0, 64, 0
2, 190200, Note_on_c, 0, 45, 67
2, 190320, Note_on_c, 0, 45, 0
2, 190320, Control_c, 0, 64, 127
2, 190320, Note_on_c, 0, 83, 67
2, 190440, Note_on_c, 0, 83, 0
2, 190440, Note_on_c, 0, 81, 67
2, 190560, Note_on_c, 0, 81, 0
2, 190560, Note_on_c, 0, 76, 67
2, 190680, Note_on_c, 0, 76, 0
2, 190680, Note_on_c, 0, 73, 67
2, 190800, Note_on_c, 0, 73, 0
2, 190800, Note_on_c, 0, 71, 67
2, 190920, Note_on_c, 0, 71, 0
2, 190920, Note_on_c, 0, 69, 67
2, 191040, Note_on_c, 0, 69, 0
2, 191040, Note_on_c, 0, 64, 67
2, 191160, Note_on_c, 0, 64, 0
2, 191160, Note_on_c, 0, 61, 67
2, 191280, Note_on_c, 0, 61, 0
2, 191280, Note_on_c, 0, 57, 67
2, 191400, Note_on_c, 0, 57, 0
2, 191400, Note_on_c, 0, 52, 67
2, 191520, Note_on_c, 0, 52, 0
2, 191520, Note_on_c, 0, 49, 67
2, 191640, Note_on_c, 0, 49, 0
2, 191640, Control_c, 0, 64, 0
2, 191640, Note_on_c, 0, 45, 67
2, 191760, Note_on_c, 0, 45, 0
2, 191760, Control_c, 0, 64, 127
2, 191760, Note_on_c, 0, 71, 67
2, 191880, Note_on_c, 0, 71, 0
2, 191880, Note_on_c, 0, 69, 67
2, 192000, Note_on_c, 0, 69, 0
2, 192000, Note_on_c, 0, 64, 67
2, 192120, Note_on_c, 0, 64, 0
2, 192120, Note_on_c, 0, 61, 67
2, 192240, Note_on_c, 0, 61, 0
2, 194640, Note_on_c, 0, 95, 67
2, 194687, Note_on_c, 0, 95, 0
2, 194687, Note_on_c, 0, 93, 67
2, 194736, Note_on_c, 0, 93, 0
2, 194736, Note_on_c, 0, 90, 67
2, 194783, Note_on_c, 0, 90, 0
2, 194783, Note_on_c, 0, 87, 67
2, 194832, Note_on_c, 0, 87, 0
2, 194832, Note_on_c, 0, 85, 67
2, 194880, Note_on_c, 0, 85, 0
2, 194880, Note_on_c, 0, 83, 67
2, 194927, Note_on_c, 0, 83, 0
2, 194927, Note_on_c, 0, 81, 67
2, 194976, Note_on_c, 0, 81, 0
2, 194976, Note_on_c, 0, 78, 67
2, 195023, Note_on_c, 0, 78, 0
2, 195023, Note_on_c, 0, 75, 67
2, 195072, Note_on_c, 0, 75, 0
2, 195072, Note_on_c, 0, 73, 67
2, 195120, Note_on_c, 0, 73, 0
2, 195120, Note_on_c, 0, 92, 67
2, 195167, Note_on_c, 0, 92, 0
2, 195167, Note_on_c, 0, 90, 67
2, 195216, Note_on_c, 0, 90, 0
2, 195216, Note_on_c, 0, 87, 67
2, 195263, Note_on_c, 0, 87, 0
2, 195263, Note_on_c, 0, 85, 67
2, 195312, Note_on_c, 0, 85, 0
2, 195312, Note_on_c, 0, 81, 67
2, 195360, Note_on_c, 0, 81, 0
2, 195360, Note_on_c, 0, 80, 67
2, 195407, Note_on_c, 0, 80, 0
2, 195407, Note_on_c, 0, 78, 67
2, 195456, Note_on_c, 0, 78, 0
2, 195456, Note_on_c, 0, 75, 67
2, 195503, Note_on_c, 0, 75, 0
2, 195503, Note_on_c, 0, 73, 67
2, 195552, Note_on_c, 0, 73, 0
2, 195552, Note_on_c, 0, 69, 67
2, 195600, Note_on_c, 0, 69, 0
2, 195600, Note_on_c, 0, 87, 67
2, 195647, Note_on_c, 0, 87, 0
2, 195647, Note_on_c, 0, 85, 67
2, 195696, Note_on_c, 0, 85, 0
2, 195696, Note_on_c, 0, 81, 67
2, 195743, Note_on_c, 0, 81, 0
2, 195743, Note_on_c, 0, 80, 67
2, 195792, Note_on_c, 0, 80, 0
2, 195792, Note_on_c, 0, 78, 67
2, 195840, Note_on_c, 0, 78, 0
2, 195840, Note_on_c, 0, 75, 67
2, 195887, Note_on_c, 0, 75, 0
2, 195887, Note_on_c, 0, 73, 67
2, 195936, Note_on_c, 0, 73, 0
2, 195936, Note_on_c, 0, 69, 67
2, 195983, Note_on_c, 0, 69, 0
2, 195983, Note_on_c, 0, 68, 67
2, 196032, Note_on_c, 0, 68, 0
2, 196032, Note_on_c, 0, 66, 67
2, 196080, Note_on_c, 0, 66, 0
2, 196080, Note_on_c, 0, 83, 67
2, 196127, Note_on_c, 0, 83, 0
2, 196127, Note_on_c, 0, 81, 67
2, 196176, Note_on_c, 0, 81, 0
2, 196176, Note_on_c, 0, 78, 67
2, 196223, Note_on_c, 0, 78, 0
2, 196223, Note_on_c, 0, 75, 67
2, 196272, Note_on_c, 0, 75, 0
2, 196272, Note_on_c, 0, 73, 67
2, 196320, Note_on_c, 0, 73, 0
2, 196320, Note_on_c, 0, 71, 67
2, 196367, Note_on_c, 0, 71, 0
2, 196367, Note_on_c, 0, 69, 67
2, 196416, Note_on_c, 0, 69, 0
2, 196416, Note_on_c, 0, 66, 67
2, 196463, Note_on_c, 0, 66, 0
2, 196463, Note_on_c, 0, 63, 67
2, 196512, Note_on_c, 0, 63, 0
2, 196512, Note_on_c, 0, 61, 67
2, 196560, Note_on_c, 0, 61, 0
2, 196560, Note_on_c, 0, 80, 67
2, 196607, Note_on_c, 0, 80, 0
2, 196607, Note_on_c, 0, 78, 67
2, 196656, Note_on_c, 0, 78, 0
2, 196656, Note_on_c, 0, 75, 67
2, 196703, Note_on_c, 0, 75, 0
2, 196703, Note_on_c, 0, 73, 67
2, 196752, Note_on_c, 0, 73, 0
2, 196752, Note_on_c, 0, 69, 67
2, 196800, Note_on_c, 0, 69, 0
2, 196800, Note_on_c, 0, 68, 67
2, 196847, Note_on_c, 0, 68, 0
2, 196847, Note_on_c, 0, 66, 67
2, 196896, Note_on_c, 0, 66, 0
2, 196896, Note_on_c, 0, 63, 67
2, 196943, Note_on_c, 0, 63, 0
2, 196943, Note_on_c, 0, 61, 67
2, 196992, Note_on_c, 0, 61, 0
2, 196992, Note_on_c, 0, 57, 67
2, 197040, Note_on_c, 0, 57, 0
2, 197040, Note_on_c, 0, 75, 67
2, 197087, Note_on_c, 0, 75, 0
2, 197087, Note_on_c, 0, 73, 67
2, 197136, Note_on_c, 0, 73, 0
2, 197136, Note_on_c, 0, 69, 67
2, 197183, Note_on_c, 0, 69, 0
2, 197183, Note_on_c, 0, 68, 67
2, 197232, Note_on_c, 0, 68, 0
2, 197232, Note_on_c, 0, 66, 67
2, 197280, Note_on_c, 0, 66, 0
2, 197280, Note_on_c, 0, 63, 67
2, 197327, Note_on_c, 0, 63, 0
2, 197327, Note_on_c, 0, 61, 67
2, 197376, Note_on_c, 0, 61, 0
2, 197376, Note_on_c, 0, 57, 67
2, 197423, Note_on_c, 0, 57, 0
2, 197423, Note_on_c, 0, 56, 67
2, 197472, Note_on_c, 0, 56, 0
2, 197472, Note_on_c, 0, 54, 67
2, 197520, Note_on_c, 0, 54, 0
2, 197520, Note_on_c, 0, 71, 67
2, 197567, Note_on_c, 0, 71, 0
2, 197567, Note_on_c, 0, 69, 67
2, 197616, Note_on_c, 0, 69, 0
2, 197616, Note_on_c, 0, 66, 67
2, 197663, Note_on_c, 0, 66, 0
2, 197663, Note_on_c, 0, 63, 67
2, 197712, Note_on_c, 0, 63, 0
2, 197712, Note_on_c, 0, 61, 67
2, 197760, Note_on_c, 0, 61, 0
2, 197760, Note_on_c, 0, 59, 67
2, 197807, Note_on_c, 0, 59, 0
2, 197807, Note_on_c, 0, 57, 67
2, 197856, Note_on_c, 0, 57, 0
2, 197856, Note_on_c, 0, 54, 67
2, 197903, Note_on_c, 0, 54, 0
2, 197903, Note_on_c, 0, 51, 67
2, 197952, Note_on_c, 0, 51, 0
2, 197952, Note_on_c, 0, 49, 67
2, 198000, Note_on_c, 0, 49, 0
2, 198000, Note_on_c, 0, 68, 67
2, 198047, Note_on_c, 0, 68, 0
2, 198047, Note_on_c, 0, 66, 67
2, 198096, Note_on_c, 0, 66, 0
2, 198096, Note_on_c, 0, 63, 67
2, 198143, Note_on_c, 0, 63, 0
2, 198143, Note_on_c, 0, 61, 67
2, 198192, Note_on_c, 0, 61, 0
2, 198192, Note_on_c, 0, 57, 67
2, 198240, Note_on_c, 0, 57, 0
2, 198240, Note_on_c, 0, 56, 67
2, 198287, Note_on_c, 0, 56, 0
2, 198287, Note_on_c, 0, 54, 67
2, 198336, Note_on_c, 0, 54, 0
2, 198336, Note_on_c, 0, 51, 67
2, 198383, Note_on_c, 0, 51, 0
2, 198383, Note_on_c, 0, 49, 67
2, 198432, Note_on_c, 0, 49, 0
2, 198432, Note_on_c, 0, 45, 67
2, 198480, Note_on_c, 0, 45, 0
2, 198480, Note_on_c, 0, 63, 67
2, 198527, Note_on_c, 0, 63, 0
2, 198527, Note_on_c, 0, 61, 67
2, 198576, Note_on_c, 0, 61, 0
2, 198576, Note_on_c, 0, 57, 67
2, 198623, Note_on_c, 0, 57, 0
2, 198623, Note_on_c, 0, 56, 67
2, 198672, Note_on_c, 0, 56, 0
2, 198672, Note_on_c, 0, 54, 67
2, 198720, Note_on_c, 0, 54, 0
2, 198720, Note_on_c, 0, 51, 67
2, 198780, Note_on_c, 0, 51, 0
2, 198780, Note_on_c, 0, 49, 67
2, 198840, Note_on_c, 0, 49, 0
2, 198840, Note_on_c, 0, 45, 67
2, 198900, Note_on_c, 0, 45, 0
2, 198900, Note_on_c, 0, 44, 67
2, 198960, Note_on_c, 0, 44, 0
2, 198960, Note_on_c, 0, 42, 67
2, 199020, Note_on_c, 0, 42, 0
2, 199020, Note_on_c, 0, 45, 67
2, 199080, Note_on_c, 0, 45, 0
2, 199080, Note_on_c, 0, 49, 67
2, 199140, Note_on_c, 0, 49, 0
2, 199140, Note_on_c, 0, 51, 67
2, 199200, Note_on_c, 0, 51, 0
2, 199200, Note_on_c, 0, 54, 67
2, 199440, Note_on_c, 0, 54, 0
2, 199440, Note_on_c, 0, 57, 67
2, 199500, Note_on_c, 0, 57, 0
2, 199500, Note_on_c, 0, 61, 67
2, 199560, Note_on_c, 0, 61, 0
2, 199560, Note_on_c, 0, 63, 67
2, 199620, Note_on_c, 0, 63, 0
2, 199620, Note_on_c, 0, 66, 67
2, 199680, Note_on_c, 0, 66, 0
2, 199680, Note_on_c, 0, 71, 67
2, 200640, Note_on_c, 0, 71, 0
2, 200640, Control_c, 0, 64, 0
2, 200640, Note_on_c, 0, 69, 67
2, 200800, Note_on_c, 0, 61, 67
2, 200840, Note_on_c, 0, 63, 67
2, 200880, Note_on_c, 0, 69, 0
2, 200880, Note_on_c, 0, 68, 67
2, 201600, Note_on_c, 0, 68, 0
2, 201600, Note_on_c, 0, 63, 0
2, 201600, Note_on_c, 0, 61, 0
2, 201600, Note_on_c, 0, 62, 67
2, 201840, Note_on_c, 0, 62, 0
2, 201840, Note_on_c, 0, 63, 67
2, 202080, Note_on_c, 0, 63, 0
2, 202080, Note_on_c, 0, 69, 67
2, 202240, Note_on_c, 0, 60, 67
2, 202280, Note_on_c, 0, 63, 67
2, 202320, Note_on_c, 0, 69, 0
2, 202320, Note_on_c, 0, 68, 67
2, 202800, Note_on_c, 0, 68, 0
2, 202800, Note_on_c, 0, 63, 0
2, 202800, Note_on_c, 0, 60, 0
2, 202800, Note_on_c, 0, 67, 67
2, 203520, Note_on_c, 0, 67, 0
2, 203520, Note_on_c, 0, 68, 67
2, 204240, Note_on_c, 0, 68, 0
2, 204240, Note_on_c, 0, 70, 67
2, 204960, Note_on_c, 0, 70, 0
2, 204960, Note_on_c, 0, 71, 67
2, 205200, Note_on_c, 0, 71, 0
2, 205200, Note_on_c, 0, 72, 67
2, 205247, Note_on_c, 0, 72, 0
2, 205440, Note_on_c, 0, 73, 67
2, 205487, Note_on_c, 0, 73, 0
2, 205680, Note_on_c, 0, 75, 67
2, 205727, Note_on_c, 0, 75, 0
2, 205920, Note_on_c, 0, 77, 67
2, 205967, Note_on_c, 0, 77, 0
2, 206160, Note_on_c, 0, 78, 67
2, 206207, Note_on_c, 0, 78, 0
2, 206400, Note_on_c, 0, 79, 67
2, 206447, Note_on_c, 0, 79, 0
2, 206640, Note_on_c, 0, 84, 67
2, 207120, Note_on_c, 0, 84, 0
2, 207120, Note_on_c, 0, 81, 67
2, 207600, Note_on_c, 0, 81, 0
2, 207600, Note_on_c, 0, 83, 67
2, 207840, Note_on_c, 0, 83, 0
2, 207840, Control_c, 0, 64, 127
2, 207840, Note_on_c, 0, 81, 67
2, 208080, Note_on_c, 0, 81, 0
2, 208080, Note_on_c, 0, 83, 67
2, 208160, Note_on_c, 0, 83, 0
2, 208160, Note_on_c, 0, 81, 67
2, 208239, Note_on_c, 0, 81, 0
2, 208239, Note_on_c, 0, 83, 67
2, 208320, Note_on_c, 0, 83, 0
2, 208320, Note_on_c, 0, 81, 67
2, 208400, Note_on_c, 0, 81, 0
2, 208400, Note_on_c, 0, 83, 67
2, 208479, Note_on_c, 0, 83, 0
2, 208479, Note_on_c, 0, 81, 67
2, 208560, Note_on_c, 0, 81, 0
2, 208560, Note_on_c, 0, 83, 67
2, 208640, Note_on_c, 0, 83, 0
2, 208640, Note_on_c, 0, 81, 67
2, 208719, Note_on_c, 0, 81, 0
2, 208719, Note_on_c, 0, 83, 67
2, 208800, Note_on_c, 0, 83, 0
2, 208800, Note_on_c, 0, 81, 67
2, 208839, Note_on_c, 0, 81, 0
2, 208839, Note_on_c, 0, 83, 67
2, 208880, Note_on_c, 0, 83, 0
2, 208880, Note_on_c, 0, 81, 67
2, 208920, Note_on_c, 0, 81, 0
2, 208920, Note_on_c, 0, 83, 67
2, 208959, Note_on_c, 0, 83, 0
2, 208959, Note_on_c, 0, 81, 67
2, 209000, Note_on_c, 0, 81, 0
2, 209000, Note_on_c, 0, 83, 67
2, 209040, Note_on_c, 0, 83, 0
2, 209040, Note_on_c, 0, 81, 67
2, 209079, Note_on_c, 0, 81, 0
2, 209079, Note_on_c, 0, 83, 67
2, 209120, Note_on_c, 0, 83, 0
2, 209120, Note_on_c, 0, 81, 67
2, 209160, Note_on_c, 0, 81, 0
2, 209160, Note_on_c, 0, 83, 67
2, 209199, Note_on_c, 0, 83, 0
2, 209199, Note_on_c, 0, 81, 67
2, 209240, Note_on_c, 0, 81, 0
2, 209240, Note_on_c, 0, 83, 67
2, 209280, Note_on_c, 0, 83, 0
2, 209280, Note_on_c, 0, 81, 67
2, 209319, Note_on_c, 0, 81, 0
2, 209319, Note_on_c, 0, 83, 67
2, 209360, Note_on_c, 0, 83, 0
2, 209360, Note_on_c, 0, 81, 67
2, 209400, Note_on_c, 0, 81, 0
2, 209400, Note_on_c, 0, 83, 67
2, 209439, Note_on_c, 0, 83, 0
2, 209439, Note_on_c, 0, 81, 67
2, 209480, Note_on_c, 0, 81, 0
2, 209480, Note_on_c, 0, 83, 67
2, 209520, Note_on_c, 0, 83, 0
2, 209520, Note_on_c, 0, 81, 67
2, 209559, Note_on_c, 0, 81, 0
2, 209559, Note_on_c, 0, 83, 67
2, 209600, Note_on_c, 0, 83, 0
2, 209600, Note_on_c, 0, 81, 67
2, 209640, Note_on_c, 0, 81, 0
2, 209640, Note_on_c, 0, 80, 67
2, 209679, Note_on_c, 0, 80, 0
2, 209679, Note_on_c, 0, 81, 67
2, 209720, Note_on_c, 0, 81, 0
2, 209720, Note_on_c, 0, 85, 67
2, 209760, Note_on_c, 0, 85, 0
2, 209760, Note_on_c, 0, 87, 67
2, 209799, Note_on_c, 0, 87, 0
2, 209799, Note_on_c, 0, 90, 67
2, 209840, Note_on_c, 0, 90, 0
2, 209840, Note_on_c, 0, 95, 67
2, 209880, Note_on_c, 0, 95, 0
2, 209880, Note_on_c, 0, 93, 67
2, 209919, Note_on_c, 0, 93, 0
2, 209919, Note_on_c, 0, 92, 67
2, 209960, Note_on_c, 0, 92, 0
2, 209960, Note_on_c, 0, 90, 67
2, 210000, Note_on_c, 0, 90, 0
2, 210000, Note_on_c, 0, 88, 67
2, 210039, Note_on_c, 0, 88, 0
2, 210039, Note_on_c, 0, 87, 67
2, 210080, Note_on_c, 0, 87, 0
2, 210080, Note_on_c, 0, 85, 67
2, 210120, Note_on_c, 0, 85, 0
2, 210120, Note_on_c, 0, 83, 67
2, 210159, Note_on_c, 0, 83, 0
2, 210159, Note_on_c, 0, 81, 67
2, 210200, Note_on_c, 0, 81, 0
2, 210200, Note_on_c, 0, 80, 67
2, 210240, Note_on_c, 0, 80, 0
2, 210240, Note_on_c, 0, 78, 67
2, 210279, Note_on_c, 0, 78, 0
2, 210279, Note_on_c, 0, 76, 67
2, 210320, Note_on_c, 0, 76, 0
2, 210320, Note_on_c, 0, 75, 67
2, 210360, Note_on_c, 0, 75, 0
2, 210360, Note_on_c, 0, 74, 67
2, 210399, Note_on_c, 0, 74, 0
2, 210399, Note_on_c, 0, 75, 67
2, 210440, Note_on_c, 0, 75, 0
2, 210440, Note_on_c, 0, 76, 67
2, 210480, Note_on_c, 0, 76, 0
2, 210480, Note_on_c, 0, 77, 67
2, 210540, Note_on_c, 0, 77, 0
2, 210540, Note_on_c, 0, 78, 67
2, 210600, Note_on_c, 0, 78, 0
2, 210600, Note_on_c, 0, 79, 67
2, 210660, Note_on_c, 0, 79, 0
2, 210660, Note_on_c, 0, 81, 67
2, 210720, Note_on_c, 0, 81, 0
2, 210720, Note_on_c, 0, 83, 67
2, 211200, Note_on_c, 0, 83, 0
2, 211200, Note_on_c, 0, 81, 67
2, 211320, Control_c, 0, 64, 0
2, 211440, Note_on_c, 0, 81, 0
2, 211440, Note_on_c, 0, 80, 67
2, 212160, Note_on_c, 0, 80, 0
2, 212160, Note_on_c, 0, 75, 67
2, 212640, Note_on_c, 0, 75, 0
2, 212640, Note_on_c, 0, 82, 67
2, 212880, Note_on_c, 0, 82, 0
2, 212880, Note_on_c, 0, 79, 67
2, 212919, Note_on_c, 0, 79, 0
2, 212919, Note_on_c, 0, 80, 67
2, 212960, Note_on_c, 0, 80, 0
2, 212960, Note_on_c, 0, 82, 67
2, 213000, Note_on_c, 0, 82, 0
2, 213000, Note_on_c, 0, 80, 67
2, 213039, Note_on_c, 0, 80, 0
2, 213039, Note_on_c, 0, 82, 67
2, 213080, Note_on_c, 0, 82, 0
2, 213080, Note_on_c, 0, 80, 67
2, 213120, Note_on_c, 0, 80, 0
2, 213120, Note_on_c, 0, 82, 67
2, 213159, Note_on_c, 0, 82, 0
2, 213159, Note_on_c, 0, 80, 67
2, 213200, Note_on_c, 0, 80, 0
2, 213200, Note_on_c, 0, 82, 67
2, 213240, Note_on_c, 0, 82, 0
2, 213240, Note_on_c, 0, 80, 67
2, 213279, Note_on_c, 0, 80, 0
2, 213279, Note_on_c, 0, 82, 67
2, 213320, Note_on_c, 0, 82, 0
2, 213320, Note_on_c, 0, 80, 67
2, 213360, Note_on_c, 0, 80, 0
2, 213360, Note_on_c, 0, 82, 67
2, 213399, Note_on_c, 0, 82, 0
2, 213399, Note_on_c, 0, 80, 67
2, 213440, Note_on_c, 0, 80, 0
2, 213440, Note_on_c, 0, 82, 67
2, 213480, Note_on_c, 0, 82, 0
2, 213480, Note_on_c, 0, 80, 67
2, 213519, Note_on_c, 0, 80, 0
2, 213519, Note_on_c, 0, 82, 67
2, 213560, Note_on_c, 0, 82, 0
2, 213560, Note_on_c, 0, 80, 67
2, 213600, Note_on_c, 0, 80, 0
2, 213600, Note_on_c, 0, 82, 67
2, 213639, Note_on_c, 0, 82, 0
2, 213639, Note_on_c, 0, 80, 67
2, 213680, Note_on_c, 0, 80, 0
2, 213680, Note_on_c, 0, 82, 67
2, 213720, Note_on_c, 0, 82, 0
2, 213720, Note_on_c, 0, 80, 67
2, 213759, Note_on_c, 0, 80, 0
2, 213759, Note_on_c, 0, 82, 67
2, 213800, Note_on_c, 0, 82, 0
2, 213800, Note_on_c, 0, 80, 67
2, 213840, Note_on_c, 0, 80, 0
2, 213840, Note_on_c, 0, 82, 67
2, 213879, Note_on_c, 0, 82, 0
2, 213879, Note_on_c, 0, 80, 67
2, 213920, Note_on_c, 0, 80, 0
2, 213920, Note_on_c, 0, 82, 67
2, 213960, Note_on_c, 0, 82, 0
2, 213960, Note_on_c, 0, 80, 67
2, 213999, Note_on_c, 0, 80, 0
2, 213999, Note_on_c, 0, 82, 67
2, 214040, Note_on_c, 0, 82, 0
2, 214040, Note_on_c, 0, 80, 67
2, 214080, Note_on_c, 0, 80, 0
2, 214080, Note_on_c, 0, 82, 67
2, 214119, Note_on_c, 0, 82, 0
2, 214119, Note_on_c, 0, 80, 67
2, 214160, Note_on_c, 0, 80, 0
2, 214160, Note_on_c, 0, 82, 67
2, 214200, Note_on_c, 0, 82, 0
2, 214200, Note_on_c, 0, 80, 67
2, 214239, Note_on_c, 0, 80, 0
2, 214239, Note_on_c, 0, 79, 67
2, 214280, Note_on_c, 0, 79, 0
2, 214280, Note_on_c, 0, 80, 67
2, 214320, Note_on_c, 0, 80, 0
2, 214320, Note_on_c, 0, 73, 67
2, 214560, Note_on_c, 0, 73, 0
2, 214560, Note_on_c, 0, 72, 67
2, 214800, Note_on_c, 0, 72, 0
2, 214800, Note_on_c, 0, 70, 67
2, 215040, Note_on_c, 0, 70, 0
2, 215040, Note_on_c, 0, 75, 67
2, 215520, Note_on_c, 0, 75, 0
2, 215520, Note_on_c, 0, 75, 67
2, 215760, Note_on_c, 0, 75, 0
2, 215760, Note_on_c, 0, 68, 67
2, 217200, Note_on_c, 0, 68, 0
2, 217200, Note_on_c, 0, 68, 67
2, 217440, Note_on_c, 0, 68, 0
2, 217440, Note_on_c, 0, 70, 67
2, 217680, Note_on_c, 0, 70, 0
2, 217680, Note_on_c, 0, 73, 67
2, 217920, Note_on_c, 0, 73, 0
2, 217920, Note_on_c, 0, 75, 67
2, 218400, Note_on_c, 0, 75, 0
2, 218400, Note_on_c, 0, 75, 67
2, 218640, Note_on_c, 0, 75, 0
2, 218640, Note_on_c, 0, 73, 67
2, 218880, Note_on_c, 0, 73, 0
2, 218880, Note_on_c, 0, 75, 67
2, 219120, Note_on_c, 0, 75, 0
2, 219120, Note_on_c, 0, 77, 80
2, 219360, Note_on_c, 0, 77, 0
2, 219360, Note_on_c, 0, 78, 80
2, 219840, Note_on_c, 0, 78, 0
2, 219840, Note_on_c, 0, 78, 80
2, 220080, Note_on_c, 0, 78, 0
2, 220080, Note_on_c, 0, 77, 80
2, 220320, Note_on_c, 0, 77, 0
2, 220320, Note_on_c, 0, 78, 80
2, 220560, Note_on_c, 0, 78, 0
2, 220560, Note_on_c, 0, 80, 80
2, 220800, Note_on_c, 0, 80, 0
2, 220800, Note_on_c, 0, 81, 80
2, 221280, Note_on_c, 0, 81, 0
2, 221280, Note_on_c, 0, 81, 67
2, 221520, Note_on_c, 0, 81, 0
2, 221520, Note_on_c, 0, 69, 67
2, 221640, Note_on_c, 0, 69, 0
2, 221640, Note_on_c, 0, 74, 67
2, 221760, Note_on_c, 0, 74, 0
2, 221760, Note_on_c, 0, 75, 67
2, 221880, Note_on_c, 0, 75, 0
2, 221880, Note_on_c, 0, 77, 67
2, 222000, Note_on_c, 0, 77, 0
2, 222000, Note_on_c, 0, 78, 67
2, 222120, Note_on_c, 0, 78, 0
2, 222120, Note_on_c, 0, 79, 67
2, 222240, Note_on_c, 0, 79, 0
2, 222240, Note_on_c, 0, 80, 67
2, 222320, Note_on_c, 0, 80, 0
2, 222320, Note_on_c, 0, 82, 67
2, 222399, Note_on_c, 0, 82, 0
2, 222399, Note_on_c, 0, 84, 67
2, 222480, Note_on_c, 0, 84, 0
2, 222480, Note_on_c, 0, 86, 67
2, 222560, Note_on_c, 0, 86, 0
2, 222560, Note_on_c, 0, 87, 67
2, 222639, Note_on_c, 0, 87, 0
2, 222639, Note_on_c, 0, 89, 67
2, 222720, Note_on_c, 0, 89, 0
2, 222720, Note_on_c, 0, 90, 67
2, 222800, Note_on_c, 0, 90, 0
2, 222800, Note_on_c, 0, 91, 67
2, 222879, Note_on_c, 0, 91, 0
2, 222879, Note_on_c, 0, 92, 67
2, 222960, Note_on_c, 0, 92, 0
2, 222960, Note_on_c, 0, 92, 54
2, 222999, Note_on_c, 0, 92, 0
2, 222999, Note_on_c, 0, 94, 54
2, 223040, Note_on_c, 0, 94, 0
2, 223040, Note_on_c, 0, 92, 54
2, 223080, Note_on_c, 0, 92, 0
2, 223080, Note_on_c, 0, 94, 54
2, 223119, Note_on_c, 0, 94, 0
2, 223119, Note_on_c, 0, 92, 54
2, 223160, Note_on_c, 0, 92, 0
2, 223160, Note_on_c, 0, 94, 54
2, 223200, Note_on_c, 0, 94, 0
2, 223200, Note_on_c, 0, 92, 54
2, 223239, Note_on_c, 0, 92, 0
2, 223239, Note_on_c, 0, 94, 54
2, 223280, Note_on_c, 0, 94, 0
2, 223280, Note_on_c, 0, 92, 54
2, 223320, Note_on_c, 0, 92, 0
2, 223320, Note_on_c, 0, 94, 54
2, 223359, Note_on_c, 0, 94, 0
2, 223359, Note_on_c, 0, 92, 54
2, 223400, Note_on_c, 0, 92, 0
2, 223400, Note_on_c, 0, 94, 54
2, 223440, Note_on_c, 0, 94, 0
2, 223440, Note_on_c, 0, 92, 54
2, 223479, Note_on_c, 0, 92, 0
2, 223479, Note_on_c, 0, 94, 54
2, 223520, Note_on_c, 0, 94, 0
2, 223520, Note_on_c, 0, 92, 54
2, 223560, Note_on_c, 0, 92, 0
2, 223560, Note_on_c, 0, 94, 54
2, 223599, Note_on_c, 0, 94, 0
2, 223599, Note_on_c, 0, 92, 54
2, 223640, Note_on_c, 0, 92, 0
2, 223640, Note_on_c, 0, 94, 54
2, 223680, Note_on_c, 0, 94, 0
2, 223680, Note_on_c, 0, 92, 54
2, 223719, Note_on_c, 0, 92, 0
2, 223719, Note_on_c, 0, 94, 54
2, 223760, Note_on_c, 0, 94, 0
2, 223760, Note_on_c, 0, 92, 54
2, 223800, Note_on_c, 0, 92, 0
2, 223800, Note_on_c, 0, 94, 54
2, 223839, Note_on_c, 0, 94, 0
2, 223839, Note_on_c, 0, 92, 54
2, 223880, Note_on_c, 0, 92, 0
2, 223880, Note_on_c, 0, 94, 54
2, 223920, Note_on_c, 0, 94, 0
2, 223920, Note_on_c, 0, 92, 54
2, 223959, Note_on_c, 0, 92, 0
2, 223959, Note_on_c, 0, 94, 54
2, 224000, Note_on_c, 0, 94, 0
2, 224000, Note_on_c, 0, 92, 54
2, 224040, Note_on_c, 0, 92, 0
2, 224040, Note_on_c, 0, 94, 54
2, 224079, Note_on_c, 0, 94, 0
2, 224079, Note_on_c, 0, 92, 54
2, 224120, Note_on_c, 0, 92, 0
2, 224120, Note_on_c, 0, 94, 54
2, 224160, Note_on_c, 0, 94, 0
2, 224160, Note_on_c, 0, 92, 54
2, 224199, Note_on_c, 0, 92, 0
2, 224199, Note_on_c, 0, 94, 54
2, 224240, Note_on_c, 0, 94, 0
2, 224240, Note_on_c, 0, 92, 54
2, 224280, Note_on_c, 0, 92, 0
2, 224280, Note_on_c, 0, 94, 54
2, 224319, Note_on_c, 0, 94, 0
2, 224319, Note_on_c, 0, 92, 54
2, 224360, Note_on_c, 0, 92, 0
2, 224360, Note_on_c, 0, 94, 54
2, 224400, Note_on_c, 0, 94, 0
2, 224400, Note_on_c, 0, 92, 54
2, 224439, Note_on_c, 0, 92, 0
2, 224439, Note_on_c, 0, 94, 54
2, 224480, Note_on_c, 0, 94, 0
2, 224480, Note_on_c, 0, 92, 54
2, 224520, Note_on_c, 0, 92, 0
2, 224520, Note_on_c, 0, 94, 54
2, 224559, Note_on_c, 0, 94, 0
2, 224559, Note_on_c, 0, 92, 54
2, 224600, Note_on_c, 0, 92, 0
2, 224600, Note_on_c, 0, 94, 54
2, 224640, Note_on_c, 0, 94, 0
2, 224640, Note_on_c, 0, 92, 54
2, 224679, Note_on_c, 0, 92, 0
2, 224679, Note_on_c, 0, 94, 54
2, 224720, Note_on_c, 0, 94, 0
2, 224720, Note_on_c, 0, 92, 54
2, 224760, Note_on_c, 0, 92, 0
2, 224760, Note_on_c, 0, 94, 54
2, 224799, Note_on_c, 0, 94, 0
2, 224799, Note_on_c, 0, 92, 54
2, 224840, Note_on_c, 0, 92, 0
2, 224840, Note_on_c, 0, 94, 54
2, 224880, Note_on_c, 0, 94, 0
2, 224880, Note_on_c, 0, 92, 54
2, 224919, Note_on_c, 0, 92, 0
2, 224919, Note_on_c, 0, 94, 54
2, 224960, Note_on_c, 0, 94, 0
2, 224960, Note_on_c, 0, 92, 54
2, 225000, Note_on_c, 0, 92, 0
2, 225000, Note_on_c, 0, 94, 54
2, 225039, Note_on_c, 0, 94, 0
2, 225039, Note_on_c, 0, 92, 54
2, 225080, Note_on_c, 0, 92, 0
2, 225080, Note_on_c, 0, 94, 54
2, 225120, Note_on_c, 0, 94, 0
2, 225120, Note_on_c, 0, 92, 54
2, 225159, Note_on_c, 0, 92, 0
2, 225159, Note_on_c, 0, 94, 54
2, 225200, Note_on_c, 0, 94, 0
2, 225200, Note_on_c, 0, 92, 54
2, 225240, Note_on_c, 0, 92, 0
2, 225240, Note_on_c, 0, 94, 54
2, 225279, Note_on_c, 0, 94, 0
2, 225279, Note_on_c, 0, 92, 54
2, 225320, Note_on_c, 0, 92, 0
2, 225320, Note_on_c, 0, 94, 54
2, 225360, Note_on_c, 0, 94, 0
2, 225360, Note_on_c, 0, 92, 54
2, 225399, Note_on_c, 0, 92, 0
2, 225399, Note_on_c, 0, 94, 54
2, 225440, Note_on_c, 0, 94, 0
2, 225440, Note_on_c, 0, 92, 54
2, 225480, Note_on_c, 0, 92, 0
2, 225480, Note_on_c, 0, 94, 54
2, 225519, Note_on_c, 0, 94, 0
2, 225519, Note_on_c, 0, 92, 54
2, 225560, Note_on_c, 0, 92, 0
2, 225560, Note_on_c, 0, 94, 54
2, 225600, Note_on_c, 0, 94, 0
2, 225600, Note_on_c, 0, 92, 54
2, 225639, Note_on_c, 0, 92, 0
2, 225639, Note_on_c, 0, 94, 54
2, 225680, Note_on_c, 0, 94, 0
2, 225680, Note_on_c, 0, 92, 54
2, 225720, Note_on_c, 0, 92, 0
2, 225720, Note_on_c, 0, 94, 54
2, 225759, Note_on_c, 0, 94, 0
2, 225759, Note_on_c, 0, 91, 54
2, 225800, Note_on_c, 0, 91, 0
2, 225800, Note_on_c, 0, 92, 54
2, 225840, Note_on_c, 0, 92, 0
2, 225840, Note_on_c, 0, 97, 54
2, 225879, Note_on_c, 0, 97, 0
2, 225879, Note_on_c, 0, 99, 54
2, 225920, Note_on_c, 0, 99, 0
2, 225920, Note_on_c, 0, 97, 54
2, 225960, Note_on_c, 0, 97, 0
2, 225960, Note_on_c, 0, 99, 54
2, 225999, Note_on_c, 0, 99, 0
2, 225999, Note_on_c, 0, 97, 54
2, 226040, Note_on_c, 0, 97, 0
2, 226040, Note_on_c, 0, 99, 54
2, 226080, Note_on_c, 0, 99, 0
2, 226080, Note_on_c, 0, 97, 54
2, 226119, Note_on_c, 0, 97, 0
2, 226119, Note_on_c, 0, 99, 54
2, 226160, Note_on_c, 0, 99, 0
2, 226160, Note_on_c, 0, 97, 54
2, 226200, Note_on_c, 0, 97, 0
2, 226200, Note_on_c, 0, 99, 54
2, 226239, Note_on_c, 0, 99, 0
2, 226239, Note_on_c, 0, 97, 54
2, 226280, Note_on_c, 0, 97, 0
2, 226280, Note_on_c, 0, 99, 54
2, 226320, Note_on_c, 0, 99, 0
2, 226320, Note_on_c, 0, 97, 54
2, 226359, Note_on_c, 0, 97, 0
2, 226359, Note_on_c, 0, 99, 54
2, 226400, Note_on_c, 0, 99, 0
2, 226400, Note_on_c, 0, 97, 54
2, 226440, Note_on_c, 0, 97, 0
2, 226440, Note_on_c, 0, 99, 54
2, 226479, Note_on_c, 0, 99, 0
2, 226479, Note_on_c, 0, 96, 54
2, 226520, Note_on_c, 0, 96, 0
2, 226520, Note_on_c, 0, 97, 54
2, 226560, Note_on_c, 0, 97, 0
2, 226560, Note_on_c, 0, 99, 67
2, 226680, Note_on_c, 0, 99, 0
2, 226680, Note_on_c, 0, 82, 67
2, 226800, Note_on_c, 0, 82, 0
2, 226800, Note_on_c, 0, 84, 67
2, 226920, Note_on_c, 0, 84, 0
2, 226920, Note_on_c, 0, 87, 67
2, 227040, Note_on_c, 0, 87, 0
2, 227040, Note_on_c, 0, 90, 67
2, 227160, Note_on_c, 0, 90, 0
2, 227160, Note_on_c, 0, 94, 67
2, 227280, Note_on_c, 0, 94, 0
2, 227280, Note_on_c, 0, 96, 67
2, 227400, Note_on_c, 0, 96, 0
2, 227400, Note_on_c, 0, 93, 67
2, 227520, Note_on_c, 0, 93, 0
2, 227520, Note_on_c, 0, 89, 67
2, 227640, Note_on_c, 0, 89, 0
2, 227640, Note_on_c, 0, 90, 67
2, 227760, Note_on_c, 0, 90, 0
2, 227760, Note_on_c, 0, 89, 67
2, 227880, Note_on_c, 0, 89, 0
2, 227880, Note_on_c, 0, 84, 67
2, 228000, Note_on_c, 0, 84, 0
2, 228000, Note_on_c, 0, 82, 67
2, 228120, Note_on_c, 0, 82, 0
2, 228120, Note_on_c, 0, 89, 67
2, 228240, Note_on_c, 0, 89, 0
2, 228240, Note_on_c, 0, 86, 67
2, 228360, Note_on_c, 0, 86, 0
2, 228360, Note_on_c, 0, 83, 67
2, 228480, Note_on_c, 0, 83, 0
2, 228480, Note_on_c, 0, 82, 67
2, 228600, Note_on_c, 0, 82, 0
2, 228600, Note_on_c, 0, 77, 67
2, 228720, Note_on_c, 0, 77, 0
2, 228720, Note_on_c, 0, 82, 67
2, 228840, Note_on_c, 0, 82, 0
2, 228840, Note_on_c, 0, 86, 67
2, 228960, Note_on_c, 0, 86, 0
2, 228960, Note_on_c, 0, 89, 67
2, 229080, Note_on_c, 0, 89, 0
2, 229080, Note_on_c, 0, 86, 67
2, 229200, Note_on_c, 0, 86, 0
2, 229200, Note_on_c, 0, 82, 67
2, 229320, Note_on_c, 0, 82, 0
2, 229320, Note_on_c, 0, 77, 67
2, 229440, Note_on_c, 0, 77, 0
2, 229440, Note_on_c, 0, 82, 67
2, 229560, Note_on_c, 0, 82, 0
2, 229560, Note_on_c, 0, 83, 67
2, 229680, Note_on_c, 0, 83, 0
2, 229680, Note_on_c, 0, 82, 67
2, 229800, Note_on_c, 0, 82, 0
2, 229800, Note_on_c, 0, 78, 67
2, 229920, Note_on_c, 0, 78, 0
2, 229920, Note_on_c, 0, 75, 67
2, 230040, Note_on_c, 0, 75, 0
2, 230040, Note_on_c, 0, 70, 67
2, 230160, Note_on_c, 0, 70, 0
2, 230160, Note_on_c, 0, 68, 67
2, 230400, Note_on_c, 0, 68, 0
2, 232960, Note_on_c, 0, 65, 67
2, 233000, Note_on_c, 0, 73, 67
2, 233040, Note_on_c, 0, 80, 67
2, 233680, Note_on_c, 0, 66, 67
2, 233720, Note_on_c, 0, 72, 67
2, 233760, Note_on_c, 0, 80, 0
2, 233760, Note_on_c, 0, 65, 0
2, 233760, Note_on_c, 0, 73, 0
2, 233760, Note_on_c, 0, 75, 67
2, 234240, Note_on_c, 0, 75, 0
2, 234240, Note_on_c, 0, 66, 0
2, 234240, Note_on_c, 0, 72, 0
2, 234240, Note_on_c, 0, 80, 67
2, 234400, Note_on_c, 0, 65, 67
2, 234440, Note_on_c, 0, 73, 67
2, 234480, Note_on_c, 0, 80, 0
2, 234480, Note_on_c, 0, 80, 67
2, 234630, Note_on_c, 0, 68, 67
2, 234660, Note_on_c, 0, 73, 67
2, 234690, Note_on_c, 0, 77, 67
2, 234720, Note_on_c, 0, 80, 0
2, 234720, Note_on_c, 0, 65, 0
2, 234720, Note_on_c, 0, 73, 0
2, 234720, Note_on_c, 0, 80, 67
2, 234870, Note_on_c, 0, 73, 67
2, 234900, Note_on_c, 0, 77, 67
2, 234930, Note_on_c, 0, 80, 67
2, 234960, Note_on_c, 0, 80, 0
2, 234960, Note_on_c, 0, 68, 0
2, 234960, Note_on_c, 0, 77, 0
2, 234960, Note_on_c, 0, 73, 0
2, 234960, Note_on_c, 0, 85, 67
2, 235110, Note_on_c, 0, 73, 67
2, 235140, Note_on_c, 0, 76, 67
2, 235170, Note_on_c, 0, 81, 67
2, 235200, Note_on_c, 0, 85, 0
2, 235200, Note_on_c, 0, 80, 0
2, 235200, Note_on_c, 0, 77, 0
2, 235200, Note_on_c, 0, 73, 0
2, 235200, Note_on_c, 0, 85, 67
2, 235350, Note_on_c, 0, 76, 67
2, 235380, Note_on_c, 0, 81, 67
2, 235410, Note_on_c, 0, 85, 67
2, 235440, Note_on_c, 0, 85, 0
2, 235440, Note_on_c, 0, 81, 0
2, 235440, Note_on_c, 0, 76, 0
2, 235440, Note_on_c, 0, 73, 0
2, 235440, Note_on_c, 0, 88, 67
2, 235590, Note_on_c, 0, 81, 67
2, 235620, Note_on_c, 0, 85, 67
2, 235650, Note_on_c, 0, 88, 67
2, 235680, Note_on_c, 0, 88, 0
2, 235680, Note_on_c, 0, 85, 0
2, 235680, Note_on_c, 0, 81, 0
2, 235680, Note_on_c, 0, 76, 0
2, 235680, Note_on_c, 0, 93, 67
2, 235840, Note_on_c, 0, 65, 67
2, 235880, Note_on_c, 0, 73, 67
2, 235920, Note_on_c, 0, 93, 0
2, 235920, Note_on_c, 0, 88, 0
2, 235920, Note_on_c, 0, 85, 0
2, 235920, Note_on_c, 0, 81, 0
2, 235920, Note_on_c, 0, 80, 67
2, 236560, Note_on_c, 0, 66, 67
2, 236600, Note_on_c, 0, 72, 67
2, 236640, Note_on_c, 0, 80, 0
2, 236640, Note_on_c, 0, 65, 0
2, 236640, Note_on_c, 0, 73, 0
2, 236640, Note_on_c, 0, 75, 67
2, 237120, Note_on_c, 0, 75, 0
2, 237120, Note_on_c, 0, 66, 0
2, 237120, Note_on_c, 0, 72, 0
2, 237120, Note_on_c, 0, 80, 67
2, 237280, Note_on_c, 0, 65, 67
2, 237320, Note_on_c, 0, 73, 67
2, 237360, Note_on_c, 0, 80, 0
2, 237360, Note_on_c, 0, 80, 67
2, 237510, Note_on_c, 0, 68, 67
2, 237540, Note_on_c, 0, 73, 67
2, 237570, Note_on_c, 0, 77, 67
2, 237600, Note_on_c, 0, 80, 0
2, 237600, Note_on_c, 0, 65, 0
2, 237600, Note_on_c, 0, 73, 0
2, 237600, Note_on_c, 0, 80, 67
2, 237750, Note_on_c, 0, 73, 67
2, 237780, Note_on_c, 0, 77, 67
2, 237810, Note_on_c, 0, 80, 67
2, 237840, Note_on_c, 0, 80, 0
2, 237840, Note_on_c, 0, 68, 0
2, 237840, Note_on_c, 0, 77, 0
2, 237840, Note_on_c, 0, 73, 0
2, 237840, Note_on_c, 0, 85, 67
2, 237990, Note_on_c, 0, 73, 67
2, 238020, Note_on_c, 0, 76, 67
2, 238050, Note_on_c, 0, 81, 67
2, 238080, Note_on_c, 0, 85, 0
2, 238080, Note_on_c, 0, 80, 0
2, 238080, Note_on_c, 0, 77, 0
2, 238080, Note_on_c, 0, 73, 0
2, 238080, Note_on_c, 0, 85, 67
2, 238230, Note_on_c, 0, 76, 67
2, 238260, Note_on_c, 0, 81, 67
2, 238290, Note_on_c, 0, 85, 67
2, 238320, Note_on_c, 0, 85, 0
2, 238320, Note_on_c, 0, 81, 0
2, 238320, Note_on_c, 0, 76, 0
2, 238320, Note_on_c, 0, 73, 0
2, 238320, Note_on_c, 0, 88, 67
2, 238470, Note_on_c, 0, 81, 67
2, 238500, Note_on_c, 0, 85, 67
2, 238530, Note_on_c, 0, 88, 67
2, 238560, Note_on_c, 0, 88, 0
2, 238560, Note_on_c, 0, 85, 0
2, 238560, Note_on_c, 0, 81, 0
2, 238560, Note_on_c, 0, 76, 0
2, 238560, Note_on_c, 0, 93, 67
2, 238710, Note_on_c, 0, 80, 67
2, 238740, Note_on_c, 0, 85, 67
2, 238770, Note_on_c, 0, 89, 67
2, 238800, Note_on_c, 0, 93, 0
2, 238800, Note_on_c, 0, 88, 0
2, 238800, Note_on_c, 0, 85, 0
2, 238800, Note_on_c, 0, 81, 0
2, 238800, Control_c, 0, 64, 127
2, 238800, Note_on_c, 0, 92, 67
2, 238960, Note_on_c, 0, 56, 67
2, 239000, Note_on_c, 0, 61, 67
2, 239040, Note_on_c, 0, 92, 0
2, 239040, Note_on_c, 0, 89, 0
2, 239040, Note_on_c, 0, 85, 0
2, 239040, Note_on_c, 0, 80, 0
2, 239040, Note_on_c, 0, 65, 67
2, 239200, Note_on_c, 0, 61, 67
2, 239240, Note_on_c, 0, 65, 67
2, 239280, Note_on_c, 0, 65, 0
2, 239280, Note_on_c, 0, 56, 0
2, 239280, Note_on_c, 0, 61, 0
2, 239280, Note_on_c, 0, 68, 67
2, 239440, Note_on_c, 0, 65, 67
2, 239480, Note_on_c, 0, 68, 67
2, 239520, Note_on_c, 0, 68, 0
2, 239520, Note_on_c, 0, 65, 0
2, 239520, Note_on_c, 0, 61, 0
2, 239520, Note_on_c, 0, 73, 67
2, 239680, Note_on_c, 0, 68, 67
2, 239720, Note_on_c, 0, 73, 67
2, 239760, Note_on_c, 0, 73, 0
2, 239760, Note_on_c, 0, 68, 0
2, 239760, Note_on_c, 0, 65, 0
2, 239760, Note_on_c, 0, 77, 67
2, 239920, Note_on_c, 0, 73, 67
2, 239960, Note_on_c, 0, 77, 67
2, 240000, Note_on_c, 0, 77, 0
2, 240000, Note_on_c, 0, 73, 0
2, 240000, Note_on_c, 0, 68, 0
2, 240000, Note_on_c, 0, 80, 67
2, 240160, Note_on_c, 0, 77, 67
2, 240200, Note_on_c, 0, 80, 67
2, 240240, Note_on_c, 0, 80, 0
2, 240240, Note_on_c, 0, 77, 0
2, 240240, Note_on_c, 0, 73, 0
2, 240240, Note_on_c, 0, 85, 67
2, 240400, Note_on_c, 0, 80, 67
2, 240440, Note_on_c, 0, 85, 67
2, 240480, Note_on_c, 0, 85, 0
2, 240480, Note_on_c, 0, 80, 0
2, 240480, Note_on_c, 0, 77, 0
2, 240480, Note_on_c, 0, 89, 67
2, 240640, Note_on_c, 0, 85, 67
2, 240680, Note_on_c, 0, 89, 67
2, 240720, Note_on_c, 0, 89, 0
2, 240720, Note_on_c, 0, 85, 0
2, 240720, Note_on_c, 0, 80, 0
2, 240720, Note_on_c, 0, 92, 67
2, 240880, Note_on_c, 0, 89, 67
2, 240920, Note_on_c, 0, 92, 67
2, 240960, Note_on_c, 0, 92, 0
2, 240960, Note_on_c, 0, 89, 0
2, 240960, Note_on_c, 0, 85, 0
2, 240960, Note_on_c, 0, 97, 67
2, 241200, Note_on_c, 0, 97, 0
2, 241200, Note_on_c, 0, 89, 0
2, 241200, Note_on_c, 0, 92, 0
2, 241584, Note_on_c, 0, 68, 67
2, 241608, Note_on_c, 0, 73, 67
2, 241632, Note_on_c, 0, 77, 67
2, 241656, Note_on_c, 0, 80, 67
2, 241680, Note_on_c, 0, 85, 67
2, 241920, Note_on_c, 0, 85, 0
2, 241920, Note_on_c, 0, 77, 0
2, 241920, Note_on_c, 0, 68, 0
2, 241920, Note_on_c, 0, 73, 0
2, 241920, Note_on_c, 0, 80, 0
2, 243840, Note_on_c, 0, 53, 54
2, 243840, Note_on_c, 0, 56, 54
2, 243840, Note_on_c, 0, 61, 54
2, 243840, Note_on_c, 0, 65, 54
2, 244320, Note_on_c, 0, 65, 0
2, 244320, Note_on_c, 0, 53, 0
2, 244320, Note_on_c, 0, 56, 0
2, 244320, Note_on_c, 0, 61, 0
2, 244560, Note_on_c, 0, 53, 54
2, 244560, Note_on_c, 0, 56, 54
2, 244560, Note_on_c, 0, 61, 54
2, 245040, Note_on_c, 0, 61, 0
2, 245040, Note_on_c, 0, 56, 0
2, 245040, Note_on_c, 0, 53, 0
2, 247200, Control_c, 0, 64, 0
2, 247200, End_track
3, 0, Start_track
3, 0, Title_t, "Grand Piano"
3, 0, Program_c, 0, 0
3, 0, Control_c, 0, 7, 115
3, 0, Control_c, 0, 10, 47
3, 17280, Control_c, 0, 64, 127
3, 17280, Note_on_c, 0, 49, 54
3, 17520, Note_on_c, 0, 49, 0
3, 17520, Note_on_c, 0, 56, 54
3, 17760, Note_on_c, 0, 56, 0
3, 17760, Note_on_c, 0, 61, 54
3, 18000, Note_on_c, 0, 61, 0
3, 18000, Control_c, 0, 64, 0
3, 18000, Note_on_c, 0, 66, 54
3, 18240, Note_on_c, 0, 66, 0
3, 18720, Control_c, 0, 64, 127
3, 18720, Note_on_c, 0, 49, 54
3, 18960, Note_on_c, 0, 49, 0
3, 18960, Note_on_c, 0, 56, 54
3, 19200, Note_on_c, 0, 56, 0
3, 19200, Note_on_c, 0, 61, 54
3, 19440, Note_on_c, 0, 61, 0
3, 19440, Control_c, 0, 64, 0
3, 19440, Note_on_c, 0, 66, 54
3, 19680, Note_on_c, 0, 66, 0
3, 20160, Control_c, 0, 64, 127
3, 20160, Note_on_c, 0, 49, 54
3, 20400, Note_on_c, 0, 49, 0
3, 20400, Note_on_c, 0, 56, 54
3, 20640, Note_on_c, 0, 56, 0
3, 20640, Note_on_c, 0, 61, 54
3, 20880, Note_on_c, 0, 61, 0
3, 20880, Control_c, 0, 64, 0
3, 20880, Note_on_c, 0, 66, 54
3, 21120, Note_on_c, 0, 66, 0
3, 21600, Control_c, 0, 64, 127
3, 21600, Note_on_c, 0, 49, 54
3, 21840, Note_on_c, 0, 49, 0
3, 21840, Note_on_c, 0, 56, 54
3, 22080, Note_on_c, 0, 56, 0
3, 22080, Note_on_c, 0, 61, 54
3, 22320, Note_on_c, 0, 61, 0
3, 22320, Control_c, 0, 64, 0
3, 22320, Note_on_c, 0, 66, 54
3, 22560, Note_on_c, 0, 66, 0
3, 23040, Note_on_c, 0, 49, 54
3, 23040, Note_on_c, 0, 56, 54
3, 23040, Note_on_c, 0, 61, 54
3, 23040, Note_on_c, 0, 65, 54
3, 23520, Note_on_c, 0, 65, 0
3, 23520, Note_on_c, 0, 49, 0
3, 23520, Note_on_c, 0, 56, 0
3, 23520, Note_on_c, 0, 61, 0
3, 23760, Note_on_c, 0, 48, 54
3, 23760, Note_on_c, 0, 56, 54
3, 23760, Note_on_c, 0, 63, 54
3, 23760, Note_on_c, 0, 68, 54
3, 24240, Note_on_c, 0, 68, 0
3, 24240, Note_on_c, 0, 48, 0
3, 24240, Note_on_c, 0, 56, 0
3, 24240, Note_on_c, 0, 63, 0
3, 24480, Note_on_c, 0, 46, 67
3, 24480, Note_on_c, 0, 53, 67
3, 24480, Note_on_c, 0, 58, 67
3, 24480, Note_on_c, 0, 65, 67
3, 24480, Note_on_c, 0, 70, 67
3, 24960, Note_on_c, 0, 70, 0
3, 24960, Note_on_c, 0, 58, 0
3, 24960, Note_on_c, 0, 46, 0
3, 24960, Note_on_c, 0, 53, 0
3, 24960, Note_on_c, 0, 65, 0
3, 25200, Note_on_c, 0, 45, 67
3, 25200, Note_on_c, 0, 54, 67
3, 25200, Note_on_c, 0, 61, 67
3, 25200, Note_on_c, 0, 66, 67
3, 25200, Note_on_c, 0, 73, 67
3, 25680, Note_on_c, 0, 73, 0
3, 25680, Note_on_c, 0, 61, 0
3, 25680, Note_on_c, 0, 45, 0
3, 25680, Note_on_c, 0, 54, 0
3, 25680, Note_on_c, 0, 66, 0
3, 25920, Note_on_c, 0, 56, 67
3, 25920, Note_on_c, 0, 61, 67
3, 25920, Note_on_c, 0, 73, 67
3, 26640, Note_on_c, 0, 73, 0
3, 26640, Note_on_c, 0, 61, 0
3, 26640, Note_on_c, 0, 56, 0
3, 26640, Note_on_c, 0, 54, 67
3, 26640, Note_on_c, 0, 58, 67
3, 26640, Note_on_c, 0, 64, 67
3, 26640, Note_on_c, 0, 76, 67
3, 27360, Note_on_c, 0, 76, 0
3, 27360, Note_on_c, 0, 54, 0
3, 27360, Note_on_c, 0, 58, 0
3, 27360, Note_on_c, 0, 64, 0
3, 27360, Note_on_c, 0, 53, 67
3, 27360, Note_on_c, 0, 57, 67
3, 27360, Note_on_c, 0, 60, 67
3, 27360, Note_on_c, 0, 65, 67
3, 27600, Note_on_c, 0, 65, 0
3, 27600, Note_on_c, 0, 53, 0
3, 27600, Note_on_c, 0, 57, 0
3, 27600, Note_on_c, 0, 60, 0
3, 27600, Control_c, 0, 64, 127
3, 27600, Note_on_c, 0, 41, 67
3, 27720, Note_on_c, 0, 41, 0
3, 27720, Note_on_c, 0, 48, 67
3, 27840, Note_on_c, 0, 48, 0
3, 27840, Note_on_c, 0, 53, 67
3, 27960, Note_on_c, 0, 53, 0
3, 27960, Note_on_c, 0, 57, 67
3, 28080, Note_on_c, 0, 57, 0
3, 28560, Control_c, 0, 64, 0
3, 31920, Note_on_c, 0, 66, 67
3, 31920, Note_on_c, 0, 72, 67
3, 31967, Note_on_c, 0, 72, 0
3, 31967, Note_on_c, 0, 66, 0
3, 32640, Note_on_c, 0, 57, 67
3, 32640, Note_on_c, 0, 60, 67
3, 32640, Note_on_c, 0, 64, 67
3, 32640, Note_on_c, 0, 67, 67
3, 32687, Note_on_c, 0, 67, 0
3, 32687, Note_on_c, 0, 57, 0
3, 32687, Note_on_c, 0, 60, 0
3, 32687, Note_on_c, 0, 64, 0
3, 33360, Note_on_c, 0, 56, 67
3, 33360, Note_on_c, 0, 62, 67
3, 33360, Note_on_c, 0, 65, 67
3, 33407, Note_on_c, 0, 65, 0
3, 33407, Note_on_c, 0, 62, 0
3, 33407, Note_on_c, 0, 56, 0
3, 33840, Note_on_c, 0, 52, 67
3, 33840, Note_on_c, 0, 55, 67
3, 33840, Note_on_c, 0, 62, 67
3, 33887, Note_on_c, 0, 62, 0
3, 33887, Note_on_c, 0, 55, 0
3, 33887, Note_on_c, 0, 52, 0
3, 34320, Note_on_c, 0, 45, 67
3, 34320, Note_on_c, 0, 52, 67
3, 34560, Note_on_c, 0, 52, 0
3, 34560, Note_on_c, 0, 45, 0
3, 34560, Note_on_c, 0, 38, 67
3, 34560, Note_on_c, 0, 45, 67
3, 34560, Note_on_c, 0, 50, 67
3, 34800, Note_on_c, 0, 50, 0
3, 34800, Note_on_c, 0, 45, 0
3, 34800, Note_on_c, 0, 38, 0
3, 40080, Note_on_c, 0, 79, 54
3, 40320, Note_on_c, 0, 79, 0
3, 40320, Note_on_c, 0, 78, 54
3, 40440, Note_on_c, 0, 78, 0
3, 40440, Note_on_c, 0, 76, 54
3, 40560, Note_on_c, 0, 76, 0
3, 40560, Note_on_c, 0, 74, 54
3, 40680, Note_on_c, 0, 74, 0
3, 40680, Note_on_c, 0, 76, 54
3, 40800, Note_on_c, 0, 76, 0
3, 40800, Note_on_c, 0, 78, 54
3, 40920, Note_on_c, 0, 78, 0
3, 40920, Note_on_c, 0, 74, 54
3, 41040, Note_on_c, 0, 74, 0
3, 41040, Note_on_c, 0, 73, 54
3, 41160, Note_on_c, 0, 73, 0
3, 41160, Note_on_c, 0, 74, 54
3, 41280, Note_on_c, 0, 74, 0
3, 41280, Note_on_c, 0, 71, 54
3, 41400, Note_on_c, 0, 71, 0
3, 41400, Note_on_c, 0, 74, 54
3, 41520, Note_on_c, 0, 74, 0
3, 41520, Note_on_c, 0, 72, 54
3, 41640, Note_on_c, 0, 72, 0
3, 41640, Note_on_c, 0, 73, 54
3, 41760, Note_on_c, 0, 73, 0
3, 41760, Note_on_c, 0, 78, 54
3, 41880, Note_on_c, 0, 78, 0
3, 41880, Note_on_c, 0, 76, 54
3, 42000, Note_on_c, 0, 76, 0
3, 42000, Note_on_c, 0, 74, 54
3, 42120, Note_on_c, 0, 74, 0
3, 42120, Note_on_c, 0, 76, 54
3, 42240, Note_on_c, 0, 76, 0
3, 42240, Note_on_c, 0, 78, 54
3, 42360, Note_on_c, 0, 78, 0
3, 42360, Note_on_c, 0, 74, 54
3, 42480, Note_on_c, 0, 74, 0
3, 42480, Note_on_c, 0, 73, 54
3, 42600, Note_on_c, 0, 73, 0
3, 42600, Note_on_c, 0, 74, 54
3, 42720, Note_on_c, 0, 74, 0
3, 42720, Note_on_c, 0, 71, 54
3, 42840, Note_on_c, 0, 71, 0
3, 42840, Note_on_c, 0, 74, 54
3, 42960, Note_on_c, 0, 74, 0
3, 42960, Note_on_c, 0, 72, 54
3, 43080, Note_on_c, 0, 72, 0
3, 43080, Note_on_c, 0, 73, 54
3, 43200, Note_on_c, 0, 73, 0
3, 43200, Note_on_c, 0, 74, 54
3, 43320, Note_on_c, 0, 74, 0
3, 43320, Note_on_c, 0, 73, 54
3, 43440, Note_on_c, 0, 73, 0
3, 43440, Note_on_c, 0, 71, 54
3, 43560, Note_on_c, 0, 71, 0
3, 43560, Note_on_c, 0, 69, 54
3, 43680, Note_on_c, 0, 69, 0
3, 43680, Note_on_c, 0, 67, 54
3, 43800, Note_on_c, 0, 67, 0
3, 43800, Note_on_c, 0, 66, 54
3, 43920, Note_on_c, 0, 66, 0
3, 43920, Note_on_c, 0, 73, 54
3, 44040, Note_on_c, 0, 73, 0
3, 44040, Note_on_c, 0, 71, 54
3, 44160, Note_on_c, 0, 71, 0
3, 44160, Note_on_c, 0, 69, 54
3, 44280, Note_on_c, 0, 69, 0
3, 44280, Note_on_c, 0, 67, 54
3, 44400, Note_on_c, 0, 67, 0
3, 44400, Note_on_c, 0, 66, 54
3, 44520, Note_on_c, 0, 66, 0
3, 44520, Note_on_c, 0, 64, 54
3, 44640, Note_on_c, 0, 64, 0
3, 44640, Note_on_c, 0, 74, 54
3, 44760, Note_on_c, 0, 74, 0
3, 44760, Note_on_c, 0, 73, 54
3, 44880, Note_on_c, 0, 73, 0
3, 44880, Note_on_c, 0, 71, 54
3, 45000, Note_on_c, 0, 71, 0
3, 45000, Note_on_c, 0, 69, 54
3, 45120, Note_on_c, 0, 69, 0
3, 45120, Note_on_c, 0, 67, 54
3, 45240, Note_on_c, 0, 67, 0
3, 45240, Note_on_c, 0, 66, 54
3, 45360, Note_on_c, 0, 66, 0
3, 45360, Note_on_c, 0, 73, 54
3, 45480, Note_on_c, 0, 73, 0
3, 45480, Note_on_c, 0, 71, 54
3, 45600, Note_on_c, 0, 71, 0
3, 45600, Note_on_c, 0, 69, 54
3, 45720, Note_on_c, 0, 69, 0
3, 45720, Note_on_c, 0, 67, 54
3, 45840, Note_on_c, 0, 67, 0
3, 45840, Note_on_c, 0, 66, 54
3, 45960, Note_on_c, 0, 66, 0
3, 45960, Note_on_c, 0, 64, 54
3, 46080, Note_on_c, 0, 64, 0
3, 46080, Note_on_c, 0, 66, 54
3, 46200, Note_on_c, 0, 66, 0
3, 46200, Note_on_c, 0, 64, 54
3, 46320, Note_on_c, 0, 64, 0
3, 46320, Note_on_c, 0, 62, 54
3, 46440, Note_on_c, 0, 62, 0
3, 46440, Note_on_c, 0, 61, 54
3, 46560, Note_on_c, 0, 61, 0
3, 46560, Note_on_c, 0, 59, 54
3, 46680, Note_on_c, 0, 59, 0
3, 46680, Note_on_c, 0, 57, 54
3, 46800, Note_on_c, 0, 57, 0
3, 46800, Note_on_c, 0, 55, 54
3, 46920, Note_on_c, 0, 55, 0
3, 46920, Note_on_c, 0, 57, 54
3, 47040, Note_on_c, 0, 57, 0
3, 47040, Note_on_c, 0, 59, 54
3, 47160, Note_on_c, 0, 59, 0
3, 47160, Note_on_c, 0, 61, 54
3, 47280, Note_on_c, 0, 61, 0
3, 47280, Note_on_c, 0, 62, 54
3, 47400, Note_on_c, 0, 62, 0
3, 47400, Note_on_c, 0, 64, 54
3, 47520, Note_on_c, 0, 64, 0
3, 47520, Note_on_c, 0, 66, 54
3, 47640, Note_on_c, 0, 66, 0
3, 47640, Note_on_c, 0, 64, 54
3, 47760, Note_on_c, 0, 64, 0
3, 47760, Note_on_c, 0, 62, 54
3, 47880, Note_on_c, 0, 62, 0
3, 47880, Note_on_c, 0, 61, 54
3, 48000, Note_on_c, 0, 61, 0
3, 48000, Note_on_c, 0, 59, 54
3, 48120, Note_on_c, 0, 59, 0
3, 48120, Note_on_c, 0, 57, 54
3, 48240, Note_on_c, 0, 57, 0
3, 48240, Note_on_c, 0, 55, 54
3, 48360, Note_on_c, 0, 55, 0
3, 48360, Note_on_c, 0, 57, 54
3, 48480, Note_on_c, 0, 57, 0
3, 48480, Note_on_c, 0, 59, 54
3, 48600, Note_on_c, 0, 59, 0
3, 48600, Note_on_c, 0, 61, 54
3, 48720, Note_on_c, 0, 61, 0
3, 48720, Note_on_c, 0, 62, 54
3, 48840, Note_on_c, 0, 62, 0
3, 48840, Note_on_c, 0, 64, 54
3, 48960, Note_on_c, 0, 64, 0
3, 48960, Note_on_c, 0, 66, 54
3, 49080, Note_on_c, 0, 66, 0
3, 49080, Note_on_c, 0, 67, 54
3, 49200, Note_on_c, 0, 67, 0
3, 49200, Note_on_c, 0, 69, 54
3, 49320, Note_on_c, 0, 69, 0
3, 49320, Note_on_c, 0, 71, 54
3, 49440, Note_on_c, 0, 71, 0
3, 49440, Note_on_c, 0, 73, 54
3, 49560, Note_on_c, 0, 73, 0
3, 49560, Note_on_c, 0, 74, 54
3, 49680, Note_on_c, 0, 74, 0
3, 49680, Note_on_c, 0, 76, 54
3, 49800, Note_on_c, 0, 76, 0
3, 49800, Note_on_c, 0, 79, 54
3, 49920, Note_on_c, 0, 79, 0
3, 49920, Note_on_c, 0, 76, 54
3, 50040, Note_on_c, 0, 76, 0
3, 50040, Note_on_c, 0, 74, 54
3, 50063, Note_on_c, 0, 74, 0
3, 50160, Note_on_c, 0, 73, 54
3, 50183, Note_on_c, 0, 73, 0
3, 50280, Note_on_c, 0, 74, 54
3, 50303, Note_on_c, 0, 74, 0
3, 50400, Note_on_c, 0, 76, 54
3, 50520, Note_on_c, 0, 76, 0
3, 50520, Note_on_c, 0, 79, 54
3, 50640, Note_on_c, 0, 79, 0
3, 50640, Note_on_c, 0, 76, 54
3, 50760, Note_on_c, 0, 76, 0
3, 50760, Note_on_c, 0, 74, 54
3, 50880, Note_on_c, 0, 74, 0
3, 50880, Note_on_c, 0, 73, 54
3, 50903, Note_on_c, 0, 73, 0
3, 51000, Note_on_c, 0, 74, 54
3, 51023, Note_on_c, 0, 74, 0
3, 51120, Note_on_c, 0, 76, 54
3, 51240, Note_on_c, 0, 76, 0
3, 51240, Note_on_c, 0, 79, 54
3, 51360, Note_on_c, 0, 79, 0
3, 51360, Note_on_c, 0, 76, 54
3, 51480, Note_on_c, 0, 76, 0
3, 51480, Note_on_c, 0, 74, 54
3, 51600, Note_on_c, 0, 74, 0
3, 51600, Note_on_c, 0, 73, 54
3, 51623, Note_on_c, 0, 73, 0
3, 51720, Note_on_c, 0, 74, 54
3, 51743, Note_on_c, 0, 74, 0
3, 51840, Note_on_c, 0, 73, 54
3, 51863, Note_on_c, 0, 73, 0
3, 51960, Note_on_c, 0, 73, 54
3, 51983, Note_on_c, 0, 73, 0
3, 52080, Note_on_c, 0, 73, 54
3, 52103, Note_on_c, 0, 73, 0
3, 52200, Note_on_c, 0, 73, 54
3, 52223, Note_on_c, 0, 73, 0
3, 52320, Note_on_c, 0, 73, 54
3, 52343, Note_on_c, 0, 73, 0
3, 52440, Note_on_c, 0, 73, 54
3, 52463, Note_on_c, 0, 73, 0
3, 52560, Note_on_c, 0, 73, 54
3, 52583, Note_on_c, 0, 73, 0
3, 52680, Note_on_c, 0, 73, 54
3, 52703, Note_on_c, 0, 73, 0
3, 52800, Note_on_c, 0, 73, 54
3, 52823, Note_on_c, 0, 73, 0
3, 52920, Note_on_c, 0, 73, 54
3, 52943, Note_on_c, 0, 73, 0
3, 53040, Note_on_c, 0, 73, 54
3, 53063, Note_on_c, 0, 73, 0
3, 53160, Note_on_c, 0, 73, 54
3, 53183, Note_on_c, 0, 73, 0
3, 53280, Note_on_c, 0, 74, 67
3, 53303, Note_on_c, 0, 74, 0
3, 54000, Note_on_c, 0, 62, 67
3, 54000, Note_on_c, 0, 66, 67
3, 54000, Note_on_c, 0, 69, 67
3, 54023, Note_on_c, 0, 69, 0
3, 54023, Note_on_c, 0, 66, 0
3, 54023, Note_on_c, 0, 62, 0
3, 54120, Note_on_c, 0, 62, 67
3, 54120, Note_on_c, 0, 66, 67
3, 54120, Note_on_c, 0, 71, 67
3, 54143, Note_on_c, 0, 71, 0
3, 54143, Note_on_c, 0, 66, 0
3, 54143, Note_on_c, 0, 62, 0
3, 54240, Note_on_c, 0, 62, 67
3, 54240, Note_on_c, 0, 66, 67
3, 54240, Note_on_c, 0, 69, 67
3, 54263, Note_on_c, 0, 69, 0
3, 54263, Note_on_c, 0, 66, 0
3, 54263, Note_on_c, 0, 62, 0
3, 54360, Note_on_c, 0, 62, 67
3, 54360, Note_on_c, 0, 66, 67
3, 54360, Note_on_c, 0, 71, 67
3, 54383, Note_on_c, 0, 71, 0
3, 54383, Note_on_c, 0, 66, 0
3, 54383, Note_on_c, 0, 62, 0
3, 54480, Note_on_c, 0, 62, 67
3, 54480, Note_on_c, 0, 66, 67
3, 54480, Note_on_c, 0, 69, 67
3, 54503, Note_on_c, 0, 69, 0
3, 54503, Note_on_c, 0, 66, 0
3, 54503, Note_on_c, 0, 62, 0
3, 54600, Note_on_c, 0, 62, 67
3, 54600, Note_on_c, 0, 66, 67
3, 54600, Note_on_c, 0, 71, 67
3, 54623, Note_on_c, 0, 71, 0
3, 54623, Note_on_c, 0, 66, 0
3, 54623, Note_on_c, 0, 62, 0
3, 54720, Note_on_c, 0, 62, 67
3, 54720, Note_on_c, 0, 66, 67
3, 54720, Note_on_c, 0, 69, 67
3, 54743, Note_on_c, 0, 69, 0
3, 54743, Note_on_c, 0, 66, 0
3, 54743, Note_on_c, 0, 62, 0
3, 55440, Note_on_c, 0, 38, 67
3, 55440, Note_on_c, 0, 42, 67
3, 55440, Note_on_c, 0, 45, 67
3, 55463, Note_on_c, 0, 45, 0
3, 55463, Note_on_c, 0, 42, 0
3, 55463, Note_on_c, 0, 38, 0
3, 55560, Note_on_c, 0, 38, 67
3, 55560, Note_on_c, 0, 42, 67
3, 55560, Note_on_c, 0, 47, 67
3, 55583, Note_on_c, 0, 47, 0
3, 55583, Note_on_c, 0, 42, 0
3, 55583, Note_on_c, 0, 38, 0
3, 55680, Note_on_c, 0, 38, 67
3, 55680, Note_on_c, 0, 42, 67
3, 55680, Note_on_c, 0, 45, 67
3, 55703, Note_on_c, 0, 45, 0
3, 55703, Note_on_c, 0, 42, 0
3, 55703, Note_on_c, 0, 38, 0
3, 55800, Note_on_c, 0, 38, 67
3, 55800, Note_on_c, 0, 42, 67
3, 55800, Note_on_c, 0, 47, 67
3, 55823, Note_on_c, 0, 47, 0
3, 55823, Note_on_c, 0, 42, 0
3, 55823, Note_on_c, 0, 38, 0
3, 55920, Note_on_c, 0, 38, 67
3, 55920, Note_on_c, 0, 42, 67
3, 55920, Note_on_c, 0, 45, 67
3, 55943, Note_on_c, 0, 45, 0
3, 55943, Note_on_c, 0, 42, 0
3, 55943, Note_on_c, 0, 38, 0
3, 56040, Note_on_c, 0, 38, 67
3, 56040, Note_on_c, 0, 42, 67
3, 56040, Note_on_c, 0, 47, 67
3, 56063, Note_on_c, 0, 47, 0
3, 56063, Note_on_c, 0, 42, 0
3, 56063, Note_on_c, 0, 38, 0
3, 56160, Note_on_c, 0, 38, 67
3, 56160, Note_on_c, 0, 42, 67
3, 56160, Note_on_c, 0, 45, 67
3, 56183, Note_on_c, 0, 45, 0
3, 56183, Note_on_c, 0, 42, 0
3, 56183, Note_on_c, 0, 38, 0
3, 56880, Note_on_c, 0, 62, 67
3, 56880, Note_on_c, 0, 66, 67
3, 56880, Note_on_c, 0, 69, 67
3, 56903, Note_on_c, 0, 69, 0
3, 56903, Note_on_c, 0, 66, 0
3, 56903, Note_on_c, 0, 62, 0
3, 57000, Note_on_c, 0, 62, 67
3, 57000, Note_on_c, 0, 66, 67
3, 57000, Note_on_c, 0, 71, 67
3, 57023, Note_on_c, 0, 71, 0
3, 57023, Note_on_c, 0, 66, 0
3, 57023, Note_on_c, 0, 62, 0
3, 57120, Note_on_c, 0, 62, 67
3, 57120, Note_on_c, 0, 66, 67
3, 57120, Note_on_c, 0, 69, 67
3, 57143, Note_on_c, 0, 69, 0
3, 57143, Note_on_c, 0, 66, 0
3, 57143, Note_on_c, 0, 62, 0
3, 57240, Note_on_c, 0, 62, 67
3, 57240, Note_on_c, 0, 66, 67
3, 57240, Note_on_c, 0, 71, 67
3, 57263, Note_on_c, 0, 71, 0
3, 57263, Note_on_c, 0, 66, 0
3, 57263, Note_on_c, 0, 62, 0
3, 57360, Note_on_c, 0, 62, 67
3, 57360, Note_on_c, 0, 66, 67
3, 57360, Note_on_c, 0, 69, 67
3, 57383, Note_on_c, 0, 69, 0
3, 57383, Note_on_c, 0, 66, 0
3, 57383, Note_on_c, 0, 62, 0
3, 57480, Note_on_c, 0, 62, 67
3, 57480, Note_on_c, 0, 66, 67
3, 57480, Note_on_c, 0, 71, 67
3, 57503, Note_on_c, 0, 71, 0
3, 57503, Note_on_c, 0, 66, 0
3, 57503, Note_on_c, 0, 62, 0
3, 57600, Note_on_c, 0, 62, 67
3, 57600, Note_on_c, 0, 66, 67
3, 57600, Note_on_c, 0, 69, 67
3, 57623, Note_on_c, 0, 69, 0
3, 57623, Note_on_c, 0, 66, 0
3, 57623, Note_on_c, 0, 62, 0
3, 57720, Note_on_c, 0, 62, 67
3, 57720, Note_on_c, 0, 66, 67
3, 57720, Note_on_c, 0, 71, 67
3, 57743, Note_on_c, 0, 71, 0
3, 57743, Note_on_c, 0, 66, 0
3, 57743, Note_on_c, 0, 62, 0
3, 57840, Note_on_c, 0, 62, 67
3, 57840, Note_on_c, 0, 66, 67
3, 57840, Note_on_c, 0, 69, 67
3, 57863, Note_on_c, 0, 69, 0
3, 57863, Note_on_c, 0, 66, 0
3, 57863, Note_on_c, 0, 62, 0
3, 57960, Note_on_c, 0, 62, 67
3, 57960, Note_on_c, 0, 66, 67
3, 57960, Note_on_c, 0, 71, 67
3, 57983, Note_on_c, 0, 71, 0
3, 57983, Note_on_c, 0, 66, 0
3, 57983, Note_on_c, 0, 62, 0
3, 58080, Note_on_c, 0, 62, 67
3, 58080, Note_on_c, 0, 66, 67
3, 58080, Note_on_c, 0, 69, 67
3, 58103, Note_on_c, 0, 69, 0
3, 58103, Note_on_c, 0, 66, 0
3, 58103, Note_on_c, 0, 62, 0
3, 58200, Note_on_c, 0, 62, 67
3, 58200, Note_on_c, 0, 66, 67
3, 58200, Note_on_c, 0, 71, 67
3, 58223, Note_on_c, 0, 71, 0
3, 58223, Note_on_c, 0, 66, 0
3, 58223, Note_on_c, 0, 62, 0
3, 58320, Note_on_c, 0, 63, 54
3, 58320, Note_on_c, 0, 66, 54
3, 58320, Note_on_c, 0, 68, 54
3, 58343, Note_on_c, 0, 68, 0
3, 58343, Note_on_c, 0, 66, 0
3, 58343, Note_on_c, 0, 63, 0
3, 58440, Note_on_c, 0, 63, 54
3, 58440, Note_on_c, 0, 66, 54
3, 58440, Note_on_c, 0, 70, 54
3, 58463, Note_on_c, 0, 70, 0
3, 58463, Note_on_c, 0, 66, 0
3, 58463, Note_on_c, 0, 63, 0
3, 58560, Note_on_c, 0, 63, 54
3, 58560, Note_on_c, 0, 66, 54
3, 58560, Note_on_c, 0, 68, 54
3, 58583, Note_on_c, 0, 68, 0
3, 58583, Note_on_c, 0, 66, 0
3, 58583, Note_on_c, 0, 63, 0
3, 58680, Note_on_c, 0, 63, 54
3, 58680, Note_on_c, 0, 66, 54
3, 58680, Note_on_c, 0, 70, 54
3, 58703, Note_on_c, 0, 70, 0
3, 58703, Note_on_c, 0, 66, 0
3, 58703, Note_on_c, 0, 63, 0
3, 58800, Note_on_c, 0, 63, 54
3, 58800, Note_on_c, 0, 66, 54
3, 58800, Note_on_c, 0, 68, 54
3, 58823, Note_on_c, 0, 68, 0
3, 58823, Note_on_c, 0, 66, 0
3, 58823, Note_on_c, 0, 63, 0
3, 58920, Note_on_c, 0, 63, 54
3, 58920, Note_on_c, 0, 66, 54
3, 58920, Note_on_c, 0, 70, 54
3, 58943, Note_on_c, 0, 70, 0
3, 58943, Note_on_c, 0, 66, 0
3, 58943, Note_on_c, 0, 63, 0
3, 59280, Note_on_c, 0, 49, 54
3, 59280, Note_on_c, 0, 56, 54
3, 59327, Note_on_c, 0, 56, 0
3, 59327, Note_on_c, 0, 49, 0
3, 59520, Note_on_c, 0, 37, 54
3, 59520, Note_on_c, 0, 44, 54
3, 59567, Note_on_c, 0, 44, 0
3, 59567, Note_on_c, 0, 37, 0
3, 60000, Note_on_c, 0, 49, 54
3, 60000, Note_on_c, 0, 56, 54
3, 60047, Note_on_c, 0, 56, 0
3, 60047, Note_on_c, 0, 49, 0
3, 60240, Note_on_c, 0, 37, 54
3, 60240, Note_on_c, 0, 44, 54
3, 60287, Note_on_c, 0, 44, 0
3, 60287, Note_on_c, 0, 37, 0
3, 60720, Note_on_c, 0, 49, 54
3, 60720, Note_on_c, 0, 56, 54
3, 60767, Note_on_c, 0, 56, 0
3, 60767, Note_on_c, 0, 49, 0
3, 60960, Note_on_c, 0, 37, 54
3, 60960, Note_on_c, 0, 44, 54
3, 61007, Note_on_c, 0, 44, 0
3, 61007, Note_on_c, 0, 37, 0
3, 61440, Note_on_c, 0, 49, 54
3, 61440, Note_on_c, 0, 56, 54
3, 61487, Note_on_c, 0, 56, 0
3, 61487, Note_on_c, 0, 49, 0
3, 61680, Note_on_c, 0, 37, 54
3, 61680, Note_on_c, 0, 44, 54
3, 61727, Note_on_c, 0, 44, 0
3, 61727, Note_on_c, 0, 37, 0
3, 62160, Note_on_c, 0, 49, 54
3, 62160, Note_on_c, 0, 56, 54
3, 62207, Note_on_c, 0, 56, 0
3, 62207, Note_on_c, 0, 49, 0
3, 62400, Note_on_c, 0, 37, 54
3, 62400, Note_on_c, 0, 44, 54
3, 62447, Note_on_c, 0, 44, 0
3, 62447, Note_on_c, 0, 37, 0
3, 62880, Note_on_c, 0, 49, 54
3, 62880, Note_on_c, 0, 56, 54
3, 62927, Note_on_c, 0, 56, 0
3, 62927, Note_on_c, 0, 49, 0
3, 63120, Note_on_c, 0, 37, 54
3, 63120, Note_on_c, 0, 44, 54
3, 63167, Note_on_c, 0, 44, 0
3, 63167, Note_on_c, 0, 37, 0
3, 63600, Note_on_c, 0, 49, 54
3, 63600, Note_on_c, 0, 56, 54
3, 63647, Note_on_c, 0, 56, 0
3, 63647, Note_on_c, 0, 49, 0
3, 63840, Note_on_c, 0, 37, 54
3, 63840, Note_on_c, 0, 44, 54
3, 63887, Note_on_c, 0, 44, 0
3, 63887, Note_on_c, 0, 37, 0
3, 64320, Note_on_c, 0, 49, 54
3, 64320, Note_on_c, 0, 56, 54
3, 64367, Note_on_c, 0, 56, 0
3, 64367, Note_on_c, 0, 49, 0
3, 64560, Note_on_c, 0, 37, 54
3, 64560, Note_on_c, 0, 44, 54
3, 64607, Note_on_c, 0, 44, 0
3, 64607, Note_on_c, 0, 37, 0
3, 65040, Note_on_c, 0, 49, 54
3, 65040, Note_on_c, 0, 56, 54
3, 65087, Note_on_c, 0, 56, 0
3, 65087, Note_on_c, 0, 49, 0
3, 65280, Note_on_c, 0, 37, 54
3, 65280, Note_on_c, 0, 44, 54
3, 65327, Note_on_c, 0, 44, 0
3, 65327, Note_on_c, 0, 37, 0
3, 65760, Note_on_c, 0, 48, 67
3, 65760, Note_on_c, 0, 56, 67
3, 65807, Note_on_c, 0, 56, 0
3, 65807, Note_on_c, 0, 48, 0
3, 66000, Note_on_c, 0, 36, 67
3, 66000, Note_on_c, 0, 44, 67
3, 66047, Note_on_c, 0, 44, 0
3, 66047, Note_on_c, 0, 36, 0
3, 66480, Note_on_c, 0, 47, 67
3, 66480, Note_on_c, 0, 56, 67
3, 66527, Note_on_c, 0, 56, 0
3, 66527, Note_on_c, 0, 47, 0
3, 66720, Note_on_c, 0, 35, 67
3, 66720, Note_on_c, 0, 44, 67
3, 66767, Note_on_c, 0, 44, 0
3, 66767, Note_on_c, 0, 35, 0
3, 67200, Note_on_c, 0, 45, 67
3, 67200, Note_on_c, 0, 54, 67
3, 67247, Note_on_c, 0, 54, 0
3, 67247, Note_on_c, 0, 45, 0
3, 67440, Note_on_c, 0, 33, 67
3, 67440, Note_on_c, 0, 42, 67
3, 67487, Note_on_c, 0, 42, 0
3, 67487, Note_on_c, 0, 33, 0
3, 67920, Note_on_c, 0, 44, 67
3, 67920, Note_on_c, 0, 56, 67
3, 67967, Note_on_c, 0, 56, 0
3, 67967, Note_on_c, 0, 44, 0
3, 68160, Note_on_c, 0, 32, 67
3, 68160, Note_on_c, 0, 44, 67
3, 68207, Note_on_c, 0, 44, 0
3, 68207, Note_on_c, 0, 32, 0
3, 68640, Note_on_c, 0, 30, 67
3, 68640, Note_on_c, 0, 42, 67
3, 68687, Note_on_c, 0, 42, 0
3, 68687, Note_on_c, 0, 30, 0
3, 68880, Note_on_c, 0, 31, 67
3, 68880, Note_on_c, 0, 43, 67
3, 68927, Note_on_c, 0, 43, 0
3, 68927, Note_on_c, 0, 31, 0
3, 69120, Note_on_c, 0, 73, 67
3, 69159, Note_on_c, 0, 73, 0
3, 69159, Note_on_c, 0, 75, 67
3, 69200, Note_on_c, 0, 75, 0
3, 69200, Note_on_c, 0, 73, 67
3, 69240, Note_on_c, 0, 73, 0
3, 69240, Note_on_c, 0, 75, 67
3, 69279, Note_on_c, 0, 75, 0
3, 69279, Note_on_c, 0, 73, 67
3, 69320, Note_on_c, 0, 73, 0
3, 69320, Note_on_c, 0, 75, 67
3, 69360, Note_on_c, 0, 75, 0
3, 69360, Note_on_c, 0, 73, 67
3, 69399, Note_on_c, 0, 73, 0
3, 69399, Note_on_c, 0, 75, 67
3, 69440, Note_on_c, 0, 75, 0
3, 69440, Note_on_c, 0, 73, 67
3, 69480, Note_on_c, 0, 73, 0
3, 69480, Note_on_c, 0, 75, 67
3, 69519, Note_on_c, 0, 75, 0
3, 69519, Note_on_c, 0, 73, 67
3, 69560, Note_on_c, 0, 73, 0
3, 69560, Note_on_c, 0, 75, 67
3, 69600, Note_on_c, 0, 75, 0
3, 69600, Note_on_c, 0, 73, 67
3, 69639, Note_on_c, 0, 73, 0
3, 69639, Note_on_c, 0, 75, 67
3, 69680, Note_on_c, 0, 75, 0
3, 69680, Note_on_c, 0, 73, 67
3, 69720, Note_on_c, 0, 73, 0
3, 69720, Note_on_c, 0, 75, 67
3, 69759, Note_on_c, 0, 75, 0
3, 69759, Note_on_c, 0, 72, 67
3, 69800, Note_on_c, 0, 72, 0
3, 69800, Note_on_c, 0, 73, 67
3, 69840, Note_on_c, 0, 73, 0
3, 69840, Note_on_c, 0, 80, 67
3, 69900, Note_on_c, 0, 80, 0
3, 69900, Note_on_c, 0, 78, 67
3, 69960, Note_on_c, 0, 78, 0
3, 69960, Note_on_c, 0, 77, 67
3, 70020, Note_on_c, 0, 77, 0
3, 70020, Note_on_c, 0, 75, 67
3, 70080, Note_on_c, 0, 75, 0
3, 70080, Note_on_c, 0, 73, 67
3, 70140, Note_on_c, 0, 73, 0
3, 70140, Note_on_c, 0, 72, 67
3, 70200, Note_on_c, 0, 72, 0
3, 70200, Note_on_c, 0, 70, 67
3, 70260, Note_on_c, 0, 70, 0
3, 70260, Note_on_c, 0, 68, 67
3, 70320, Note_on_c, 0, 68, 0
3, 70320, Note_on_c, 0, 72, 67
3, 70359, Note_on_c, 0, 72, 0
3, 70359, Note_on_c, 0, 70, 67
3, 70400, Note_on_c, 0, 70, 0
3, 70400, Note_on_c, 0, 68, 67
3, 70440, Note_on_c, 0, 68, 0
3, 70440, Note_on_c, 0, 66, 67
3, 70479, Note_on_c, 0, 66, 0
3, 70479, Note_on_c, 0, 65, 67
3, 70520, Note_on_c, 0, 65, 0
3, 70520, Note_on_c, 0, 63, 67
3, 70560, Note_on_c, 0, 63, 0
3, 70680, Control_c, 0, 64, 127
3, 70680, Note_on_c, 0, 61, 54
3, 70680, Note_on_c, 0, 65, 54
3, 70680, Note_on_c, 0, 68, 54
3, 70920, Note_on_c, 0, 68, 0
3, 70920, Note_on_c, 0, 65, 0
3, 70920, Note_on_c, 0, 61, 0
3, 70920, Note_on_c, 0, 56, 54
3, 70920, Note_on_c, 0, 61, 54
3, 70920, Note_on_c, 0, 65, 54
3, 71160, Note_on_c, 0, 65, 0
3, 71160, Note_on_c, 0, 61, 0
3, 71160, Note_on_c, 0, 56, 0
3, 71160, Note_on_c, 0, 53, 54
3, 71160, Note_on_c, 0, 56, 54
3, 71160, Note_on_c, 0, 61, 54
3, 71280, Note_on_c, 0, 61, 0
3, 71280, Note_on_c, 0, 56, 0
3, 71280, Note_on_c, 0, 53, 0
3, 71280, Control_c, 0, 64, 0
3, 71400, Control_c, 0, 64, 127
3, 71400, Note_on_c, 0, 60, 54
3, 71400, Note_on_c, 0, 66, 54
3, 71400, Note_on_c, 0, 68, 54
3, 71640, Note_on_c, 0, 68, 0
3, 71640, Note_on_c, 0, 66, 0
3, 71640, Note_on_c, 0, 60, 0
3, 71640, Note_on_c, 0, 56, 54
3, 71640, Note_on_c, 0, 60, 54
3, 71640, Note_on_c, 0, 66, 54
3, 71880, Note_on_c, 0, 66, 0
3, 71880, Note_on_c, 0, 60, 0
3, 71880, Note_on_c, 0, 56, 0
3, 71880, Note_on_c, 0, 54, 54
3, 71880, Note_on_c, 0, 56, 54
3, 71880, Note_on_c, 0, 60, 54
3, 72000, Note_on_c, 0, 60, 0
3, 72000, Note_on_c, 0, 56, 0
3, 72000, Note_on_c, 0, 54, 0
3, 72000, Control_c, 0, 64, 0
3, 72120, Control_c, 0, 64, 127
3, 72120, Note_on_c, 0, 61, 54
3, 72120, Note_on_c, 0, 65, 54
3, 72120, Note_on_c, 0, 68, 54
3, 72360, Note_on_c, 0, 68, 0
3, 72360, Note_on_c, 0, 65, 0
3, 72360, Note_on_c, 0, 61, 0
3, 72360, Note_on_c, 0, 56, 54
3, 72360, Note_on_c, 0, 61, 54
3, 72360, Note_on_c, 0, 65, 54
3, 72600, Note_on_c, 0, 65, 0
3, 72600, Note_on_c, 0, 61, 0
3, 72600, Note_on_c, 0, 56, 0
3, 72600, Note_on_c, 0, 53, 54
3, 72600, Note_on_c, 0, 56, 54
3, 72600, Note_on_c, 0, 61, 54
3, 72720, Note_on_c, 0, 61, 0
3, 72720, Note_on_c, 0, 56, 0
3, 72720, Note_on_c, 0, 53, 0
3, 72720, Control_c, 0, 64, 0
3, 72840, Control_c, 0, 64, 127
3, 72840, Note_on_c, 0, 60, 54
3, 72840, Note_on_c, 0, 66, 54
3, 72840, Note_on_c, 0, 68, 54
3, 73080, Note_on_c, 0, 68, 0
3, 73080, Note_on_c, 0, 66, 0
3, 73080, Note_on_c, 0, 60, 0
3, 73080, Note_on_c, 0, 56, 54
3, 73080, Note_on_c, 0, 60, 54
3, 73080, Note_on_c, 0, 66, 54
3, 73320, Note_on_c, 0, 66, 0
3, 73320, Note_on_c, 0, 60, 0
3, 73320, Note_on_c, 0, 56, 0
3, 73320, Control_c, 0, 64, 0
3, 73320, Note_on_c, 0, 54, 54
3, 73320, Note_on_c, 0, 56, 54
3, 73320, Note_on_c, 0, 60, 54
3, 73440, Note_on_c, 0, 60, 0
3, 73440, Note_on_c, 0, 56, 0
3, 73440, Note_on_c, 0, 54, 0
3, 73560, Control_c, 0, 64, 127
3, 73560, Note_on_c, 0, 65, 54
3, 73560, Note_on_c, 0, 68, 54
3, 73800, Note_on_c, 0, 68, 0
3, 73800, Note_on_c, 0, 65, 0
3, 73800, Note_on_c, 0, 56, 54
3, 73800, Note_on_c, 0, 65, 54
3, 74040, Note_on_c, 0, 65, 0
3, 74040, Note_on_c, 0, 56, 0
3, 74040, Note_on_c, 0, 53, 54
3, 74040, Note_on_c, 0, 56, 54
3, 74040, Note_on_c, 0, 61, 54
3, 74160, Note_on_c, 0, 61, 0
3, 74160, Note_on_c, 0, 56, 0
3, 74160, Note_on_c, 0, 53, 0
3, 74160, Control_c, 0, 64, 0
3, 74280, Control_c, 0, 64, 127
3, 74280, Note_on_c, 0, 60, 54
3, 74280, Note_on_c, 0, 66, 54
3, 74280, Note_on_c, 0, 68, 54
3, 74520, Note_on_c, 0, 68, 0
3, 74520, Note_on_c, 0, 66, 0
3, 74520, Note_on_c, 0, 60, 0
3, 74520, Note_on_c, 0, 56, 54
3, 74520, Note_on_c, 0, 60, 54
3, 74520, Note_on_c, 0, 66, 54
3, 74760, Note_on_c, 0, 66, 0
3, 74760, Note_on_c, 0, 60, 0
3, 74760, Note_on_c, 0, 56, 0
3, 74760, Control_c, 0, 64, 0
3, 74760, Note_on_c, 0, 54, 54
3, 74760, Note_on_c, 0, 56, 54
3, 74760, Note_on_c, 0, 60, 54
3, 74880, Note_on_c, 0, 60, 0
3, 74880, Note_on_c, 0, 56, 0
3, 74880, Note_on_c, 0, 54, 0
3, 75000, Control_c, 0, 64, 127
3, 75000, Note_on_c, 0, 61, 54
3, 75000, Note_on_c, 0, 65, 54
3, 75000, Note_on_c, 0, 68, 54
3, 75240, Note_on_c, 0, 68, 0
3, 75240, Note_on_c, 0, 65, 0
3, 75240, Note_on_c, 0, 61, 0
3, 75240, Note_on_c, 0, 56, 54
3, 75240, Note_on_c, 0, 61, 54
3, 75240, Note_on_c, 0, 65, 54
3, 75480, Note_on_c, 0, 65, 0
3, 75480, Note_on_c, 0, 61, 0
3, 75480, Note_on_c, 0, 56, 0
3, 75480, Note_on_c, 0, 53, 54
3, 75480, Note_on_c, 0, 56, 54
3, 75480, Note_on_c, 0, 61, 54
3, 75600, Note_on_c, 0, 61, 0
3, 75600, Note_on_c, 0, 56, 0
3, 75600, Note_on_c, 0, 53, 0
3, 75600, Control_c, 0, 64, 0
3, 75720, Control_c, 0, 64, 127
3, 75720, Note_on_c, 0, 60, 54
3, 75720, Note_on_c, 0, 66, 54
3, 75720, Note_on_c, 0, 68, 54
3, 75960, Note_on_c, 0, 68, 0
3, 75960, Note_on_c, 0, 66, 0
3, 75960, Note_on_c, 0, 60, 0
3, 75960, Note_on_c, 0, 56, 54
3, 75960, Note_on_c, 0, 60, 54
3, 75960, Note_on_c, 0, 66, 54
3, 76200, Note_on_c, 0, 66, 0
3, 76200, Note_on_c, 0, 60, 0
3, 76200, Note_on_c, 0, 56, 0
3, 76200, Note_on_c, 0, 54, 54
3, 76200, Note_on_c, 0, 56, 54
3, 76200, Note_on_c, 0, 60, 54
3, 76320, Note_on_c, 0, 60, 0
3, 76320, Note_on_c, 0, 56, 0
3, 76320, Note_on_c, 0, 54, 0
3, 76320, Control_c, 0, 64, 0
3, 76440, Control_c, 0, 64, 127
3, 76440, Note_on_c, 0, 61, 67
3, 76440, Note_on_c, 0, 65, 67
3, 76440, Note_on_c, 0, 68, 67
3, 76680, Note_on_c, 0, 68, 0
3, 76680, Note_on_c, 0, 65, 0
3, 76680, Note_on_c, 0, 61, 0
3, 76680, Note_on_c, 0, 56, 67
3, 76680, Note_on_c, 0, 61, 67
3, 76680, Note_on_c, 0, 65, 67
3, 76920, Note_on_c, 0, 65, 0
3, 76920, Note_on_c, 0, 61, 0
3, 76920, Note_on_c, 0, 56, 0
3, 76920, Note_on_c, 0, 53, 67
3, 76920, Note_on_c, 0, 56, 67
3, 76920, Note_on_c, 0, 61, 67
3, 77040, Note_on_c, 0, 61, 0
3, 77040, Note_on_c, 0, 56, 0
3, 77040, Note_on_c, 0, 53, 0
3, 77040, Control_c, 0, 64, 0
3, 77160, Control_c, 0, 64, 127
3, 77160, Note_on_c, 0, 63, 67
3, 77160, Note_on_c, 0, 66, 67
3, 77160, Note_on_c, 0, 68, 67
3, 77400, Note_on_c, 0, 68, 0
3, 77400, Note_on_c, 0, 66, 0
3, 77400, Note_on_c, 0, 63, 0
3, 77400, Note_on_c, 0, 56, 67
3, 77400, Note_on_c, 0, 60, 67
3, 77400, Note_on_c, 0, 66, 67
3, 77640, Note_on_c, 0, 66, 0
3, 77640, Note_on_c, 0, 60, 0
3, 77640, Note_on_c, 0, 56, 0
3, 77640, Control_c, 0, 64, 0
3, 77640, Note_on_c, 0, 54, 67
3, 77640, Note_on_c, 0, 56, 67
3, 77640, Note_on_c, 0, 63, 67
3, 77760, Note_on_c, 0, 63, 0
3, 77760, Note_on_c, 0, 56, 0
3, 77760, Note_on_c, 0, 54, 0
3, 77760, Control_c, 0, 64, 0
3, 77880, Control_c, 0, 64, 127
3, 77880, Note_on_c, 0, 61, 67
3, 77880, Note_on_c, 0, 65, 67
3, 77880, Note_on_c, 0, 68, 67
3, 78120, Note_on_c, 0, 68, 0
3, 78120, Note_on_c, 0, 65, 0
3, 78120, Note_on_c, 0, 61, 0
3, 78120, Note_on_c, 0, 56, 67
3, 78120, Note_on_c, 0, 61, 67
3, 78120, Note_on_c, 0, 65, 67
3, 78360, Note_on_c, 0, 65, 0
3, 78360, Note_on_c, 0, 61, 0
3, 78360, Note_on_c, 0, 56, 0
3, 78360, Note_on_c, 0, 53, 67
3, 78360, Note_on_c, 0, 56, 67
3, 78360, Note_on_c, 0, 61, 67
3, 78480, Note_on_c, 0, 61, 0
3, 78480, Note_on_c, 0, 56, 0
3, 78480, Note_on_c, 0, 53, 0
3, 78480, Control_c, 0, 64, 0
3, 78600, Control_c, 0, 64, 127
3, 78600, Note_on_c, 0, 66, 67
3, 78600, Note_on_c, 0, 73, 67
3, 78840, Note_on_c, 0, 73, 0
3, 78840, Note_on_c, 0, 66, 0
3, 78840, Note_on_c, 0, 61, 67
3, 78840, Note_on_c, 0, 66, 67
3, 79080, Note_on_c, 0, 66, 0
3, 79080, Note_on_c, 0, 61, 0
3, 79080, Control_c, 0, 64, 0
3, 79080, Note_on_c, 0, 54, 67
3, 79080, Note_on_c, 0, 61, 67
3, 79200, Note_on_c, 0, 61, 0
3, 79200, Note_on_c, 0, 54, 0
3, 79320, Control_c, 0, 64, 127
3, 79320, Note_on_c, 0, 65, 67
3, 79320, Note_on_c, 0, 68, 67
3, 79320, Note_on_c, 0, 73, 67
3, 79560, Note_on_c, 0, 73, 0
3, 79560, Note_on_c, 0, 68, 0
3, 79560, Note_on_c, 0, 65, 0
3, 79560, Note_on_c, 0, 61, 67
3, 79560, Note_on_c, 0, 68, 67
3, 79800, Note_on_c, 0, 68, 0
3, 79800, Note_on_c, 0, 61, 0
3, 79800, Note_on_c, 0, 56, 67
3, 79800, Note_on_c, 0, 61, 67
3, 79920, Note_on_c, 0, 61, 0
3, 79920, Note_on_c, 0, 56, 0
3, 79920, Control_c, 0, 64, 0
3, 80040, Control_c, 0, 64, 127
3, 80040, Note_on_c, 0, 64, 67
3, 80040, Note_on_c, 0, 70, 67
3, 80040, Note_on_c, 0, 73, 67
3, 80280, Note_on_c, 0, 73, 0
3, 80280, Note_on_c, 0, 70, 0
3, 80280, Note_on_c, 0, 64, 0
3, 80280, Note_on_c, 0, 58, 67
3, 80280, Note_on_c, 0, 64, 67
3, 80280, Note_on_c, 0, 70, 67
3, 80520, Note_on_c, 0, 70, 0
3, 80520, Note_on_c, 0, 64, 0
3, 80520, Note_on_c, 0, 58, 0
3, 80520, Control_c, 0, 64, 0
3, 80520, Note_on_c, 0, 58, 67
3, 80520, Note_on_c, 0, 60, 67
3, 80520, Note_on_c, 0, 64, 67
3, 80640, Note_on_c, 0, 64, 0
3, 80640, Note_on_c, 0, 60, 0
3, 80640, Note_on_c, 0, 58, 0
3, 80640, Control_c, 0, 64, 127
3, 80640, Note_on_c, 0, 57, 67
3, 80640, Note_on_c, 0, 60, 67
3, 80640, Note_on_c, 0, 65, 67
3, 80880, Note_on_c, 0, 65, 0
3, 80880, Note_on_c, 0, 60, 0
3, 80880, Note_on_c, 0, 57, 0
3, 80880, Note_on_c, 0, 48, 67
3, 81000, Note_on_c, 0, 48, 0
3, 81000, Note_on_c, 0, 53, 67
3, 81120, Note_on_c, 0, 53, 0
3, 81120, Note_on_c, 0, 57, 67
3, 81240, Note_on_c, 0, 57, 0
3, 81240, Note_on_c, 0, 60, 67
3, 81360, Note_on_c, 0, 60, 0
3, 81840, Control_c, 0, 64, 0
3, 82080, Control_c, 0, 64, 127
3, 82080, Note_on_c, 0, 53, 67
3, 82200, Note_on_c, 0, 53, 0
3, 82200, Note_on_c, 0, 57, 67
3, 82320, Note_on_c, 0, 57, 0
3, 82320, Note_on_c, 0, 60, 67
3, 82440, Note_on_c, 0, 60, 0
3, 82440, Note_on_c, 0, 65, 67
3, 82560, Note_on_c, 0, 65, 0
3, 82560, Note_on_c, 0, 69, 67
3, 82680, Note_on_c, 0, 69, 0
3, 82680, Note_on_c, 0, 72, 67
3, 82800, Note_on_c, 0, 72, 0
3, 82800, Note_on_c, 0, 77, 67
3, 82920, Note_on_c, 0, 77, 0
3, 82920, Note_on_c, 0, 81, 67
3, 83040, Note_on_c, 0, 81, 0
3, 83040, Note_on_c, 0, 84, 67
3, 83160, Note_on_c, 0, 84, 0
3, 83160, Note_on_c, 0, 89, 67
3, 83280, Note_on_c, 0, 89, 0
3, 83280, Control_c, 0, 64, 0
3, 83280, Note_on_c, 0, 93, 67
3, 83760, Note_on_c, 0, 93, 0
3, 84000, Note_on_c, 0, 41, 93
3, 84000, Note_on_c, 0, 45, 93
3, 84000, Note_on_c, 0, 47, 93
3, 84240, Note_on_c, 0, 47, 0
3, 84240, Note_on_c, 0, 48, 67
3, 84480, Note_on_c, 0, 48, 0
3, 84480, Note_on_c, 0, 45, 0
3, 84480, Note_on_c, 0, 41, 0
3, 84480, Note_on_c, 0, 53, 93
3, 84480, Note_on_c, 0, 56, 93
3, 84720, Note_on_c, 0, 56, 0
3, 84720, Note_on_c, 0, 57, 67
3, 84960, Note_on_c, 0, 57, 0
3, 84960, Note_on_c, 0, 53, 0
3, 84960, Note_on_c, 0, 48, 93
3, 84960, Note_on_c, 0, 53, 93
3, 84960, Note_on_c, 0, 56, 93
3, 85200, Note_on_c, 0, 56, 0
3, 85200, Note_on_c, 0, 57, 67
3, 85440, Note_on_c, 0, 57, 0
3, 85440, Note_on_c, 0, 53, 0
3, 85440, Note_on_c, 0, 48, 0
3, 85440, Note_on_c, 0, 53, 93
3, 85440, Note_on_c, 0, 57, 93
3, 85440, Note_on_c, 0, 59, 93
3, 85680, Note_on_c, 0, 59, 0
3, 85680, Note_on_c, 0, 60, 67
3, 85920, Note_on_c, 0, 60, 0
3, 85920, Note_on_c, 0, 57, 0
3, 85920, Note_on_c, 0, 53, 0
3, 88800, Note_on_c, 0, 49, 67
3, 88800, Note_on_c, 0, 53, 67
3, 88800, Note_on_c, 0, 59, 67
3, 89040, Note_on_c, 0, 59, 0
3, 89040, Note_on_c, 0, 53, 0
3, 89040, Note_on_c, 0, 49, 0
3, 89040, Note_on_c, 0, 41, 93
3, 89040, Note_on_c, 0, 47, 93
3, 89280, Note_on_c, 0, 47, 0
3, 89280, Note_on_c, 0, 48, 67
3, 89520, Note_on_c, 0, 48, 0
3, 89520, Note_on_c, 0, 41, 0
3, 89520, Note_on_c, 0, 49, 67
3, 89520, Note_on_c, 0, 53, 67
3, 89760, Note_on_c, 0, 53, 0
3, 89760, Note_on_c, 0, 49, 0
3, 89760, Note_on_c, 0, 59, 67
3, 90000, Note_on_c, 0, 59, 0
3, 90000, Note_on_c, 0, 61, 67
3, 90000, Note_on_c, 0, 65, 67
3, 90240, Note_on_c, 0, 65, 0
3, 90240, Note_on_c, 0, 61, 0
3, 90240, Note_on_c, 0, 71, 67
3, 90480, Note_on_c, 0, 71, 0
3, 90480, Note_on_c, 0, 65, 67
3, 90480, Note_on_c, 0, 69, 67
3, 90720, Note_on_c, 0, 69, 0
3, 90720, Note_on_c, 0, 65, 0
3, 90720, Note_on_c, 0, 77, 67
3, 90960, Note_on_c, 0, 77, 0
3, 90960, Control_c, 0, 64, 127
3, 90960, Note_on_c, 0, 73, 67
3, 90960, Note_on_c, 0, 77, 67
3, 91200, Note_on_c, 0, 77, 0
3, 91200, Note_on_c, 0, 73, 0
3, 91200, Note_on_c, 0, 83, 67
3, 91440, Note_on_c, 0, 83, 0
3, 91440, Note_on_c, 0, 85, 67
3, 91440, Note_on_c, 0, 89, 67
3, 91680, Note_on_c, 0, 89, 0
3, 91680, Note_on_c, 0, 85, 0
3, 91920, Control_c, 0, 64, 0
3, 91920, Note_on_c, 0, 77, 67
3, 91920, Note_on_c, 0, 84, 67
3, 91967, Note_on_c, 0, 84, 0
3, 91967, Note_on_c, 0, 77, 0
3, 94800, Note_on_c, 0, 53, 67
3, 94800, Note_on_c, 0, 59, 67
3, 95040, Note_on_c, 0, 59, 0
3, 95040, Note_on_c, 0, 60, 67
3, 95280, Note_on_c, 0, 60, 0
3, 95280, Note_on_c, 0, 53, 0
3, 95280, Note_on_c, 0, 58, 67
3, 95280, Note_on_c, 0, 62, 67
3, 95520, Note_on_c, 0, 62, 0
3, 95520, Note_on_c, 0, 58, 0
3, 95520, Note_on_c, 0, 70, 67
3, 95520, Note_on_c, 0, 74, 67
3, 95760, Note_on_c, 0, 74, 0
3, 95760, Note_on_c, 0, 70, 0
3, 95760, Note_on_c, 0, 57, 67
3, 95760, Note_on_c, 0, 61, 67
3, 96000, Note_on_c, 0, 61, 0
3, 96000, Note_on_c, 0, 57, 0
3, 96000, Note_on_c, 0, 69, 67
3, 96240, Note_on_c, 0, 69, 0
3, 96240, Note_on_c, 0, 52, 67
3, 96240, Note_on_c, 0, 57, 67
3, 96480, Note_on_c, 0, 57, 0
3, 96480, Note_on_c, 0, 52, 0
3, 96480, Note_on_c, 0, 64, 67
3, 96480, Note_on_c, 0, 67, 67
3, 96720, Note_on_c, 0, 67, 0
3, 96720, Note_on_c, 0, 64, 0
3, 96720, Control_c, 0, 64, 127
3, 96720, Note_on_c, 0, 44, 67
3, 96720, Note_on_c, 0, 50, 67
3, 96960, Note_on_c, 0, 50, 0
3, 96960, Note_on_c, 0, 44, 0
3, 96960, Note_on_c, 0, 62, 67
3, 97200, Note_on_c, 0, 62, 0
3, 97200, Note_on_c, 0, 56, 67
3, 97200, Note_on_c, 0, 62, 67
3, 97440, Note_on_c, 0, 62, 0
3, 97440, Note_on_c, 0, 56, 0
3, 97440, Note_on_c, 0, 74, 67
3, 97680, Note_on_c, 0, 74, 0
3, 97680, Note_on_c, 0, 57, 67
3, 97680, Note_on_c, 0, 64, 67
3, 97680, Note_on_c, 0, 69, 67
3, 97920, Note_on_c, 0, 69, 0
3, 97920, Note_on_c, 0, 64, 0
3, 97920, Note_on_c, 0, 57, 0
3, 97920, Control_c, 0, 64, 0
3, 99600, Note_on_c, 0, 68, 67
3, 99600, Note_on_c, 0, 74, 67
3, 99840, Note_on_c, 0, 74, 0
3, 99840, Note_on_c, 0, 68, 0
3, 99840, Note_on_c, 0, 67, 67
3, 99840, Note_on_c, 0, 73, 67
3, 100080, Note_on_c, 0, 73, 0
3, 100080, Note_on_c, 0, 67, 0
3, 100080, Note_on_c, 0, 66, 67
3, 100080, Note_on_c, 0, 72, 67
3, 100320, Note_on_c, 0, 72, 0
3, 100320, Note_on_c, 0, 66, 0
3, 100320, Note_on_c, 0, 65, 67
3, 100320, Note_on_c, 0, 71, 67
3, 100560, Note_on_c, 0, 71, 0
3, 100560, Note_on_c, 0, 65, 0
3, 100560, Note_on_c, 0, 64, 67
3, 100560, Note_on_c, 0, 70, 67
3, 100800, Note_on_c, 0, 70, 0
3, 100800, Note_on_c, 0, 64, 0
3, 100800, Note_on_c, 0, 63, 67
3, 100800, Note_on_c, 0, 69, 67
3, 101040, Note_on_c, 0, 69, 0
3, 101040, Note_on_c, 0, 63, 0
3, 101040, Note_on_c, 0, 57, 67
3, 101040, Note_on_c, 0, 62, 67
3, 101040, Note_on_c, 0, 69, 67
3, 101280, Note_on_c, 0, 69, 0
3, 101280, Note_on_c, 0, 62, 0
3, 101280, Note_on_c, 0, 57, 0
3, 101280, Note_on_c, 0, 71, 80
3, 101280, Note_on_c, 0, 76, 80
3, 101520, Note_on_c, 0, 76, 0
3, 101520, Note_on_c, 0, 77, 54
3, 101760, Note_on_c, 0, 77, 0
3, 101760, Note_on_c, 0, 71, 0
3, 101760, Note_on_c, 0, 64, 80
3, 101760, Note_on_c, 0, 70, 80
3, 102000, Note_on_c, 0, 70, 0
3, 102000, Note_on_c, 0, 71, 54
3, 102240, Note_on_c, 0, 71, 0
3, 102240, Note_on_c, 0, 64, 0
3, 102240, Note_on_c, 0, 57, 54
3, 102240, Note_on_c, 0, 64, 54
3, 102480, Note_on_c, 0, 64, 0
3, 102480, Note_on_c, 0, 57, 0
3, 103680, Note_on_c, 0, 45, 54
3, 103680, Note_on_c, 0, 49, 54
3, 103920, Note_on_c, 0, 49, 0
3, 103920, Note_on_c, 0, 45, 0
3, 105360, Note_on_c, 0, 56, 54
3, 105360, Note_on_c, 0, 62, 54
3, 105600, Note_on_c, 0, 62, 0
3, 105600, Note_on_c, 0, 56, 0
3, 105600, Note_on_c, 0, 55, 54
3, 105600, Note_on_c, 0, 61, 54
3, 105840, Note_on_c, 0, 61, 0
3, 105840, Note_on_c, 0, 55, 0
3, 105840, Note_on_c, 0, 54, 54
3, 105840, Note_on_c, 0, 60, 54
3, 106080, Note_on_c, 0, 60, 0
3, 106080, Note_on_c, 0, 54, 0
3, 106080, Note_on_c, 0, 53, 54
3, 106080, Note_on_c, 0, 59, 54
3, 106320, Note_on_c, 0, 59, 0
3, 106320, Note_on_c, 0, 53, 0
3, 106320, Note_on_c, 0, 52, 54
3, 106320, Note_on_c, 0, 58, 54
3, 106560, Note_on_c, 0, 58, 0
3, 106560, Note_on_c, 0, 52, 0
3, 106560, Note_on_c, 0, 51, 54
3, 106560, Note_on_c, 0, 57, 54
3, 106800, Note_on_c, 0, 57, 0
3, 106800, Note_on_c, 0, 51, 0
3, 106800, Note_on_c, 0, 45, 54
3, 106800, Note_on_c, 0, 50, 54
3, 106800, Note_on_c, 0, 57, 54
3, 106847, Note_on_c, 0, 57, 0
3, 106847, Note_on_c, 0, 50, 0
3, 106847, Note_on_c, 0, 45, 0
3, 107040, Note_on_c, 0, 59, 80
3, 107040, Note_on_c, 0, 64, 80
3, 107280, Note_on_c, 0, 64, 0
3, 107280, Note_on_c, 0, 65, 54
3, 107520, Note_on_c, 0, 65, 0
3, 107520, Note_on_c, 0, 59, 0
3, 107520, Note_on_c, 0, 52, 80
3, 107520, Note_on_c, 0, 58, 80
3, 107760, Note_on_c, 0, 58, 0
3, 107760, Note_on_c, 0, 59, 54
3, 108000, Note_on_c, 0, 59, 0
3, 108000, Note_on_c, 0, 52, 0
3, 108000, Note_on_c, 0, 45, 54
3, 108000, Note_on_c, 0, 52, 54
3, 108240, Note_on_c, 0, 52, 0
3, 108240, Note_on_c, 0, 45, 0
3, 114000, Note_on_c, 0, 50, 54
3, 114120, Note_on_c, 0, 50, 0
3, 114120, Note_on_c, 0, 49, 54
3, 114240, Note_on_c, 0, 49, 0
3, 114240, Note_on_c, 0, 47, 54
3, 114360, Note_on_c, 0, 47, 0
3, 114360, Note_on_c, 0, 45, 54
3, 114480, Note_on_c, 0, 45, 0
3, 114480, Note_on_c, 0, 44, 54
3, 114600, Note_on_c, 0, 44, 0
3, 114600, Note_on_c, 0, 45, 54
3, 114720, Note_on_c, 0, 45, 0
3, 114720, Note_on_c, 0, 46, 54
3, 114840, Note_on_c, 0, 46, 0
3, 114840, Note_on_c, 0, 45, 54
3, 114960, Note_on_c, 0, 45, 0
3, 114960, Note_on_c, 0, 47, 54
3, 115080, Note_on_c, 0, 47, 0
3, 115080, Note_on_c, 0, 45, 54
3, 115200, Note_on_c, 0, 45, 0
3, 115200, Note_on_c, 0, 46, 54
3, 115320, Note_on_c, 0, 46, 0
3, 115320, Note_on_c, 0, 45, 54
3, 115440, Note_on_c, 0, 45, 0
3, 115680, Note_on_c, 0, 62, 54
3, 115680, Note_on_c, 0, 66, 54
3, 115680, Note_on_c, 0, 74, 54
3, 115680, Note_on_c, 0, 78, 54
3, 115920, Note_on_c, 0, 78, 0
3, 115920, Note_on_c, 0, 62, 0
3, 115920, Note_on_c, 0, 66, 0
3, 115920, Note_on_c, 0, 74, 0
3, 115920, Note_on_c, 0, 62, 54
3, 115920, Note_on_c, 0, 66, 54
3, 115920, Note_on_c, 0, 74, 54
3, 115920, Note_on_c, 0, 78, 54
3, 116160, Note_on_c, 0, 78, 0
3, 116160, Note_on_c, 0, 62, 0
3, 116160, Note_on_c, 0, 66, 0
3, 116160, Note_on_c, 0, 74, 0
3, 116400, Note_on_c, 0, 62, 54
3, 116400, Note_on_c, 0, 66, 54
3, 116400, Note_on_c, 0, 74, 54
3, 116400, Note_on_c, 0, 78, 54
3, 116640, Note_on_c, 0, 78, 0
3, 116640, Note_on_c, 0, 62, 0
3, 116640, Note_on_c, 0, 66, 0
3, 116640, Note_on_c, 0, 74, 0
3, 116640, Note_on_c, 0, 62, 54
3, 116640, Note_on_c, 0, 66, 54
3, 116640, Note_on_c, 0, 74, 54
3, 116640, Note_on_c, 0, 78, 54
3, 116880, Note_on_c, 0, 78, 0
3, 116880, Note_on_c, 0, 62, 0
3, 116880, Note_on_c, 0, 66, 0
3, 116880, Note_on_c, 0, 74, 0
3, 117120, Note_on_c, 0, 64, 54
3, 117120, Note_on_c, 0, 67, 54
3, 117120, Note_on_c, 0, 76, 54
3, 117120, Note_on_c, 0, 79, 54
3, 117360, Note_on_c, 0, 79, 0
3, 117360, Note_on_c, 0, 64, 0
3, 117360, Note_on_c, 0, 67, 0
3, 117360, Note_on_c, 0, 76, 0
3, 117360, Note_on_c, 0, 64, 54
3, 117360, Note_on_c, 0, 67, 54
3, 117360, Note_on_c, 0, 76, 54
3, 117360, Note_on_c, 0, 79, 54
3, 117600, Note_on_c, 0, 79, 0
3, 117600, Note_on_c, 0, 64, 0
3, 117600, Note_on_c, 0, 67, 0
3, 117600, Note_on_c, 0, 76, 0
3, 117840, Note_on_c, 0, 64, 54
3, 117840, Note_on_c, 0, 67, 54
3, 117840, Note_on_c, 0, 76, 54
3, 117840, Note_on_c, 0, 79, 54
3, 118080, Note_on_c, 0, 79, 0
3, 118080, Note_on_c, 0, 64, 0
3, 118080, Note_on_c, 0, 67, 0
3, 118080, Note_on_c, 0, 76, 0
3, 118080, Note_on_c, 0, 64, 54
3, 118080, Note_on_c, 0, 67, 54
3, 118080, Note_on_c, 0, 76, 54
3, 118080, Note_on_c, 0, 79, 54
3, 118320, Note_on_c, 0, 79, 0
3, 118320, Note_on_c, 0, 64, 0
3, 118320, Note_on_c, 0, 67, 0
3, 118320, Note_on_c, 0, 76, 0
3, 118560, Note_on_c, 0, 64, 54
3, 118560, Note_on_c, 0, 67, 54
3, 118560, Note_on_c, 0, 76, 54
3, 118560, Note_on_c, 0, 79, 54
3, 118800, Note_on_c, 0, 79, 0
3, 118800, Note_on_c, 0, 64, 0
3, 118800, Note_on_c, 0, 67, 0
3, 118800, Note_on_c, 0, 76, 0
3, 118800, Note_on_c, 0, 64, 54
3, 118800, Note_on_c, 0, 67, 54
3, 118800, Note_on_c, 0, 76, 54
3, 118800, Note_on_c, 0, 79, 54
3, 119040, Note_on_c, 0, 79, 0
3, 119040, Note_on_c, 0, 64, 0
3, 119040, Note_on_c, 0, 67, 0
3, 119040, Note_on_c, 0, 76, 0
3, 119280, Note_on_c, 0, 64, 54
3, 119280, Note_on_c, 0, 67, 54
3, 119280, Note_on_c, 0, 76, 54
3, 119280, Note_on_c, 0, 79, 54
3, 119520, Note_on_c, 0, 79, 0
3, 119520, Note_on_c, 0, 64, 0
3, 119520, Note_on_c, 0, 67, 0
3, 119520, Note_on_c, 0, 76, 0
3, 119520, Note_on_c, 0, 64, 54
3, 119520, Note_on_c, 0, 67, 54
3, 119520, Note_on_c, 0, 76, 54
3, 119520, Note_on_c, 0, 79, 54
3, 119760, Note_on_c, 0, 79, 0
3, 119760, Note_on_c, 0, 64, 0
3, 119760, Note_on_c, 0, 67, 0
3, 119760, Note_on_c, 0, 76, 0
3, 120000, Note_on_c, 0, 62, 54
3, 120000, Note_on_c, 0, 66, 54
3, 120000, Note_on_c, 0, 74, 54
3, 120000, Note_on_c, 0, 78, 54
3, 120240, Note_on_c, 0, 78, 0
3, 120240, Note_on_c, 0, 62, 0
3, 120240, Note_on_c, 0, 66, 0
3, 120240, Note_on_c, 0, 74, 0
3, 120240, Note_on_c, 0, 62, 54
3, 120240, Note_on_c, 0, 66, 54
3, 120240, Note_on_c, 0, 74, 54
3, 120240, Note_on_c, 0, 78, 54
3, 120480, Note_on_c, 0, 78, 0
3, 120480, Note_on_c, 0, 62, 0
3, 120480, Note_on_c, 0, 66, 0
3, 120480, Note_on_c, 0, 74, 0
3, 120720, Note_on_c, 0, 62, 54
3, 120720, Note_on_c, 0, 66, 54
3, 120720, Note_on_c, 0, 74, 54
3, 120720, Note_on_c, 0, 78, 54
3, 120960, Note_on_c, 0, 78, 0
3, 120960, Note_on_c, 0, 62, 0
3, 120960, Note_on_c, 0, 66, 0
3, 120960, Note_on_c, 0, 74, 0
3, 120960, Note_on_c, 0, 62, 54
3, 120960, Note_on_c, 0, 66, 54
3, 120960, Note_on_c, 0, 74, 54
3, 120960, Note_on_c, 0, 78, 54
3, 121200, Note_on_c, 0, 78, 0
3, 121200, Note_on_c, 0, 62, 0
3, 121200, Note_on_c, 0, 66, 0
3, 121200, Note_on_c, 0, 74, 0
3, 121440, Note_on_c, 0, 62, 54
3, 121440, Note_on_c, 0, 66, 54
3, 121440, Note_on_c, 0, 74, 54
3, 121440, Note_on_c, 0, 78, 54
3, 121680, Note_on_c, 0, 78, 0
3, 121680, Note_on_c, 0, 62, 0
3, 121680, Note_on_c, 0, 66, 0
3, 121680, Note_on_c, 0, 74, 0
3, 121680, Note_on_c, 0, 62, 54
3, 121680, Note_on_c, 0, 66, 54
3, 121680, Note_on_c, 0, 74, 54
3, 121680, Note_on_c, 0, 78, 54
3, 121920, Note_on_c, 0, 78, 0
3, 121920, Note_on_c, 0, 62, 0
3, 121920, Note_on_c, 0, 66, 0
3, 121920, Note_on_c, 0, 74, 0
3, 122160, Note_on_c, 0, 62, 54
3, 122160, Note_on_c, 0, 66, 54
3, 122160, Note_on_c, 0, 74, 54
3, 122160, Note_on_c, 0, 78, 54
3, 122400, Note_on_c, 0, 78, 0
3, 122400, Note_on_c, 0, 62, 0
3, 122400, Note_on_c, 0, 66, 0
3, 122400, Note_on_c, 0, 74, 0
3, 122400, Note_on_c, 0, 62, 54
3, 122400, Note_on_c, 0, 66, 54
3, 122400, Note_on_c, 0, 74, 54
3, 122400, Note_on_c, 0, 78, 54
3, 122640, Note_on_c, 0, 78, 0
3, 122640, Note_on_c, 0, 62, 0
3, 122640, Note_on_c, 0, 66, 0
3, 122640, Note_on_c, 0, 74, 0
3, 122880, Note_on_c, 0, 64, 54
3, 122880, Note_on_c, 0, 67, 54
3, 122880, Note_on_c, 0, 76, 54
3, 122880, Note_on_c, 0, 79, 54
3, 123120, Note_on_c, 0, 79, 0
3, 123120, Note_on_c, 0, 64, 0
3, 123120, Note_on_c, 0, 67, 0
3, 123120, Note_on_c, 0, 76, 0
3, 123120, Note_on_c, 0, 64, 54
3, 123120, Note_on_c, 0, 67, 54
3, 123120, Note_on_c, 0, 76, 54
3, 123120, Note_on_c, 0, 79, 54
3, 123360, Note_on_c, 0, 79, 0
3, 123360, Note_on_c, 0, 64, 0
3, 123360, Note_on_c, 0, 67, 0
3, 123360, Note_on_c, 0, 76, 0
3, 123600, Note_on_c, 0, 64, 54
3, 123600, Note_on_c, 0, 67, 54
3, 123600, Note_on_c, 0, 76, 54
3, 123600, Note_on_c, 0, 79, 54
3, 123840, Note_on_c, 0, 79, 0
3, 123840, Note_on_c, 0, 64, 0
3, 123840, Note_on_c, 0, 67, 0
3, 123840, Note_on_c, 0, 76, 0
3, 123840, Note_on_c, 0, 64, 54
3, 123840, Note_on_c, 0, 67, 54
3, 123840, Note_on_c, 0, 76, 54
3, 123840, Note_on_c, 0, 79, 54
3, 124080, Note_on_c, 0, 79, 0
3, 124080, Note_on_c, 0, 64, 0
3, 124080, Note_on_c, 0, 67, 0
3, 124080, Note_on_c, 0, 76, 0
3, 124320, Note_on_c, 0, 64, 54
3, 124320, Note_on_c, 0, 67, 54
3, 124320, Note_on_c, 0, 76, 54
3, 124320, Note_on_c, 0, 79, 54
3, 124560, Note_on_c, 0, 79, 0
3, 124560, Note_on_c, 0, 64, 0
3, 124560, Note_on_c, 0, 67, 0
3, 124560, Note_on_c, 0, 76, 0
3, 124560, Note_on_c, 0, 64, 54
3, 124560, Note_on_c, 0, 67, 54
3, 124560, Note_on_c, 0, 76, 54
3, 124560, Note_on_c, 0, 79, 54
3, 124800, Note_on_c, 0, 79, 0
3, 124800, Note_on_c, 0, 64, 0
3, 124800, Note_on_c, 0, 67, 0
3, 124800, Note_on_c, 0, 76, 0
3, 125040, Note_on_c, 0, 64, 54
3, 125040, Note_on_c, 0, 67, 54
3, 125040, Note_on_c, 0, 76, 54
3, 125040, Note_on_c, 0, 79, 54
3, 125280, Note_on_c, 0, 79, 0
3, 125280, Note_on_c, 0, 64, 0
3, 125280, Note_on_c, 0, 67, 0
3, 125280, Note_on_c, 0, 76, 0
3, 125280, Note_on_c, 0, 64, 54
3, 125280, Note_on_c, 0, 67, 54
3, 125280, Note_on_c, 0, 76, 54
3, 125280, Note_on_c, 0, 79, 54
3, 125520, Note_on_c, 0, 79, 0
3, 125520, Note_on_c, 0, 64, 0
3, 125520, Note_on_c, 0, 67, 0
3, 125520, Note_on_c, 0, 76, 0
3, 125760, Note_on_c, 0, 62, 54
3, 125760, Note_on_c, 0, 66, 54
3, 125760, Note_on_c, 0, 74, 54
3, 125760, Note_on_c, 0, 78, 54
3, 126000, Note_on_c, 0, 78, 0
3, 126000, Note_on_c, 0, 62, 0
3, 126000, Note_on_c, 0, 66, 0
3, 126000, Note_on_c, 0, 74, 0
3, 126000, Note_on_c, 0, 62, 54
3, 126000, Note_on_c, 0, 66, 54
3, 126000, Note_on_c, 0, 74, 54
3, 126000, Note_on_c, 0, 78, 54
3, 126240, Note_on_c, 0, 78, 0
3, 126240, Note_on_c, 0, 62, 0
3, 126240, Note_on_c, 0, 66, 0
3, 126240, Note_on_c, 0, 74, 0
3, 126480, Note_on_c, 0, 57, 54
3, 126480, Note_on_c, 0, 62, 54
3, 126480, Note_on_c, 0, 69, 54
3, 126480, Note_on_c, 0, 74, 54
3, 126720, Note_on_c, 0, 74, 0
3, 126720, Note_on_c, 0, 57, 0
3, 126720, Note_on_c, 0, 62, 0
3, 126720, Note_on_c, 0, 69, 0
3, 126720, Note_on_c, 0, 57, 54
3, 126720, Note_on_c, 0, 69, 54
3, 126960, Note_on_c, 0, 69, 0
3, 126960, Note_on_c, 0, 57, 0
3, 127200, Note_on_c, 0, 59, 54
3, 127200, Note_on_c, 0, 71, 54
3, 127440, Note_on_c, 0, 71, 0
3, 127440, Note_on_c, 0, 59, 0
3, 127440, Note_on_c, 0, 59, 54
3, 127440, Note_on_c, 0, 71, 54
3, 127680, Note_on_c, 0, 71, 0
3, 127680, Note_on_c, 0, 59, 0
3, 127920, Note_on_c, 0, 54, 54
3, 127920, Note_on_c, 0, 66, 54
3, 128160, Note_on_c, 0, 66, 0
3, 128160, Note_on_c, 0, 54, 0
3, 128160, Note_on_c, 0, 59, 54
3, 128160, Note_on_c, 0, 71, 54
3, 128400, Note_on_c, 0, 71, 0
3, 128400, Note_on_c, 0, 59, 0
3, 128640, Note_on_c, 0, 54, 54
3, 128640, Note_on_c, 0, 66, 54
3, 128880, Note_on_c, 0, 66, 0
3, 128880, Note_on_c, 0, 54, 0
3, 128880, Note_on_c, 0, 54, 54
3, 128880, Note_on_c, 0, 66, 54
3, 129120, Note_on_c, 0, 66, 0
3, 129120, Note_on_c, 0, 54, 0
3, 129360, Note_on_c, 0, 61, 54
3, 129360, Note_on_c, 0, 73, 54
3, 129600, Note_on_c, 0, 73, 0
3, 129600, Note_on_c, 0, 61, 0
3, 129600, Note_on_c, 0, 61, 54
3, 129600, Note_on_c, 0, 73, 54
3, 129840, Note_on_c, 0, 73, 0
3, 129840, Note_on_c, 0, 61, 0
3, 130080, Note_on_c, 0, 59, 54
3, 130080, Note_on_c, 0, 71, 54
3, 130320, Note_on_c, 0, 71, 0
3, 130320, Note_on_c, 0, 59, 0
3, 130320, Note_on_c, 0, 59, 54
3, 130320, Note_on_c, 0, 71, 54
3, 130560, Note_on_c, 0, 71, 0
3, 130560, Note_on_c, 0, 59, 0
3, 130800, Note_on_c, 0, 54, 54
3, 130800, Note_on_c, 0, 66, 54
3, 131040, Note_on_c, 0, 66, 0
3, 131040, Note_on_c, 0, 54, 0
3, 131040, Note_on_c, 0, 59, 54
3, 131040, Note_on_c, 0, 71, 54
3, 131280, Note_on_c, 0, 71, 0
3, 131280, Note_on_c, 0, 59, 0
3, 131520, Note_on_c, 0, 54, 54
3, 131520, Note_on_c, 0, 66, 54
3, 131760, Note_on_c, 0, 66, 0
3, 131760, Note_on_c, 0, 54, 0
3, 131760, Note_on_c, 0, 54, 54
3, 131760, Note_on_c, 0, 66, 54
3, 132000, Note_on_c, 0, 66, 0
3, 132000, Note_on_c, 0, 54, 0
3, 132240, Note_on_c, 0, 57, 54
3, 132240, Note_on_c, 0, 69, 54
3, 132480, Note_on_c, 0, 69, 0
3, 132480, Note_on_c, 0, 57, 0
3, 132480, Note_on_c, 0, 57, 54
3, 132480, Note_on_c, 0, 69, 54
3, 132720, Note_on_c, 0, 69, 0
3, 132720, Note_on_c, 0, 57, 0
3, 132960, Note_on_c, 0, 57, 54
3, 132960, Note_on_c, 0, 69, 54
3, 133200, Note_on_c, 0, 69, 0
3, 133200, Note_on_c, 0, 57, 0
3, 133200, Note_on_c, 0, 57, 54
3, 133200, Note_on_c, 0, 69, 54
3, 133440, Note_on_c, 0, 69, 0
3, 133440, Note_on_c, 0, 57, 0
3, 133680, Note_on_c, 0, 57, 54
3, 133680, Note_on_c, 0, 69, 54
3, 133920, Note_on_c, 0, 69, 0
3, 133920, Note_on_c, 0, 57, 0
3, 133920, Note_on_c, 0, 62, 54
3, 133920, Note_on_c, 0, 74, 54
3, 134160, Note_on_c, 0, 74, 0
3, 134160, Note_on_c, 0, 62, 0
3, 134400, Note_on_c, 0, 57, 54
3, 134400, Note_on_c, 0, 69, 54
3, 134640, Note_on_c, 0, 69, 0
3, 134640, Note_on_c, 0, 57, 0
3, 134640, Note_on_c, 0, 57, 54
3, 134640, Note_on_c, 0, 69, 54
3, 134880, Note_on_c, 0, 69, 0
3, 134880, Note_on_c, 0, 57, 0
3, 135120, Note_on_c, 0, 64, 54
3, 135120, Note_on_c, 0, 76, 54
3, 135360, Note_on_c, 0, 76, 0
3, 135360, Note_on_c, 0, 64, 0
3, 135360, Note_on_c, 0, 64, 54
3, 135360, Note_on_c, 0, 76, 54
3, 135600, Note_on_c, 0, 76, 0
3, 135600, Note_on_c, 0, 64, 0
3, 135840, Note_on_c, 0, 57, 54
3, 135840, Note_on_c, 0, 69, 54
3, 136080, Note_on_c, 0, 69, 0
3, 136080, Note_on_c, 0, 57, 0
3, 136080, Note_on_c, 0, 57, 54
3, 136080, Note_on_c, 0, 69, 54
3, 136320, Note_on_c, 0, 69, 0
3, 136320, Note_on_c, 0, 57, 0
3, 136560, Note_on_c, 0, 57, 54
3, 136560, Note_on_c, 0, 69, 54
3, 136800, Note_on_c, 0, 69, 0
3, 136800, Note_on_c, 0, 57, 0
3, 136800, Note_on_c, 0, 62, 54
3, 136800, Note_on_c, 0, 74, 54
3, 137040, Note_on_c, 0, 74, 0
3, 137040, Note_on_c, 0, 62, 0
3, 137280, Note_on_c, 0, 57, 54
3, 137280, Note_on_c, 0, 69, 54
3, 137520, Note_on_c, 0, 69, 0
3, 137520, Note_on_c, 0, 57, 0
3, 137520, Note_on_c, 0, 57, 54
3, 137520, Note_on_c, 0, 69, 54
3, 137760, Note_on_c, 0, 69, 0
3, 137760, Note_on_c, 0, 57, 0
3, 138000, Note_on_c, 0, 64, 54
3, 138000, Note_on_c, 0, 76, 54
3, 138240, Note_on_c, 0, 76, 0
3, 138240, Note_on_c, 0, 64, 0
3, 138240, Note_on_c, 0, 64, 54
3, 138240, Note_on_c, 0, 76, 54
3, 138480, Note_on_c, 0, 76, 0
3, 138480, Note_on_c, 0, 64, 0
3, 141480, Note_on_c, 0, 53, 67
3, 141600, Note_on_c, 0, 53, 0
3, 141600, Note_on_c, 0, 52, 67
3, 141720, Note_on_c, 0, 52, 0
3, 141720, Note_on_c, 0, 51, 67
3, 141840, Note_on_c, 0, 51, 0
3, 141840, Note_on_c, 0, 50, 67
3, 141960, Note_on_c, 0, 50, 0
3, 141960, Note_on_c, 0, 62, 67
3, 142080, Note_on_c, 0, 62, 0
3, 142080, Note_on_c, 0, 61, 67
3, 142200, Note_on_c, 0, 61, 0
3, 142200, Note_on_c, 0, 62, 67
3, 142320, Note_on_c, 0, 62, 0
3, 142320, Note_on_c, 0, 50, 67
3, 142440, Note_on_c, 0, 50, 0
3, 142440, Note_on_c, 0, 53, 67
3, 142560, Note_on_c, 0, 53, 0
3, 142560, Note_on_c, 0, 58, 67
3, 142680, Note_on_c, 0, 58, 0
3, 142680, Note_on_c, 0, 62, 67
3, 142800, Note_on_c, 0, 62, 0
3, 142800, Note_on_c, 0, 63, 67
3, 142920, Note_on_c, 0, 63, 0
3, 142920, Note_on_c, 0, 59, 67
3, 143040, Note_on_c, 0, 59, 0
3, 143040, Note_on_c, 0, 60, 67
3, 143160, Note_on_c, 0, 60, 0
3, 143160, Note_on_c, 0, 62, 67
3, 143280, Note_on_c, 0, 62, 0
3, 143280, Note_on_c, 0, 63, 67
3, 143400, Note_on_c, 0, 63, 0
3, 143400, Note_on_c, 0, 64, 67
3, 143520, Note_on_c, 0, 64, 0
3, 143520, Note_on_c, 0, 65, 67
3, 143640, Note_on_c, 0, 65, 0
3, 143640, Note_on_c, 0, 64, 67
3, 143760, Note_on_c, 0, 64, 0
3, 143760, Note_on_c, 0, 65, 67
3, 143880, Note_on_c, 0, 65, 0
3, 143880, Note_on_c, 0, 62, 67
3, 144000, Note_on_c, 0, 62, 0
3, 144000, Note_on_c, 0, 63, 67
3, 144120, Note_on_c, 0, 63, 0
3, 144120, Note_on_c, 0, 62, 67
3, 144240, Note_on_c, 0, 62, 0
3, 144240, Note_on_c, 0, 63, 67
3, 144360, Note_on_c, 0, 63, 0
3, 144360, Note_on_c, 0, 59, 67
3, 144480, Note_on_c, 0, 59, 0
3, 144480, Note_on_c, 0, 60, 67
3, 144600, Note_on_c, 0, 60, 0
3, 144600, Note_on_c, 0, 62, 67
3, 144720, Note_on_c, 0, 62, 0
3, 144720, Note_on_c, 0, 63, 67
3, 144840, Note_on_c, 0, 63, 0
3, 144840, Note_on_c, 0, 64, 67
3, 144960, Note_on_c, 0, 64, 0
3, 144960, Note_on_c, 0, 65, 67
3, 145080, Note_on_c, 0, 65, 0
3, 145080, Note_on_c, 0, 64, 67
3, 145200, Note_on_c, 0, 64, 0
3, 145200, Note_on_c, 0, 65, 67
3, 145320, Note_on_c, 0, 65, 0
3, 145320, Note_on_c, 0, 62, 67
3, 145440, Note_on_c, 0, 62, 0
3, 145440, Note_on_c, 0, 63, 93
3, 145560, Note_on_c, 0, 63, 0
3, 145560, Note_on_c, 0, 61, 67
3, 145680, Note_on_c, 0, 61, 0
3, 145680, Note_on_c, 0, 63, 93
3, 145800, Note_on_c, 0, 63, 0
3, 145800, Note_on_c, 0, 61, 67
3, 145920, Note_on_c, 0, 61, 0
3, 145920, Note_on_c, 0, 63, 67
3, 146040, Note_on_c, 0, 63, 0
3, 146040, Note_on_c, 0, 62, 67
3, 146160, Note_on_c, 0, 62, 0
3, 146160, Note_on_c, 0, 57, 67
3, 146280, Note_on_c, 0, 57, 0
3, 146280, Note_on_c, 0, 58, 67
3, 146400, Note_on_c, 0, 58, 0
3, 146400, Note_on_c, 0, 61, 67
3, 146520, Note_on_c, 0, 61, 0
3, 146520, Note_on_c, 0, 62, 67
3, 146640, Note_on_c, 0, 62, 0
3, 146640, Note_on_c, 0, 61, 67
3, 146760, Note_on_c, 0, 61, 0
3, 146760, Note_on_c, 0, 62, 67
3, 146880, Note_on_c, 0, 62, 0
3, 146880, Note_on_c, 0, 57, 67
3, 147000, Note_on_c, 0, 57, 0
3, 147000, Note_on_c, 0, 58, 67
3, 147120, Note_on_c, 0, 58, 0
3, 147120, Note_on_c, 0, 57, 67
3, 147240, Note_on_c, 0, 57, 0
3, 147240, Note_on_c, 0, 56, 67
3, 147360, Note_on_c, 0, 56, 0
3, 147360, Note_on_c, 0, 57, 67
3, 147480, Note_on_c, 0, 57, 0
3, 147480, Note_on_c, 0, 53, 67
3, 147600, Note_on_c, 0, 53, 0
3, 147600, Note_on_c, 0, 50, 67
3, 147720, Note_on_c, 0, 50, 0
3, 147720, Note_on_c, 0, 62, 67
3, 147840, Note_on_c, 0, 62, 0
3, 147840, Note_on_c, 0, 61, 67
3, 147960, Note_on_c, 0, 61, 0
3, 147960, Note_on_c, 0, 62, 67
3, 148080, Note_on_c, 0, 62, 0
3, 148080, Note_on_c, 0, 50, 67
3, 148200, Note_on_c, 0, 50, 0
3, 148200, Note_on_c, 0, 53, 67
3, 148320, Note_on_c, 0, 53, 0
3, 148320, Note_on_c, 0, 58, 67
3, 148440, Note_on_c, 0, 58, 0
3, 148440, Note_on_c, 0, 62, 67
3, 148560, Note_on_c, 0, 62, 0
3, 148560, Note_on_c, 0, 63, 67
3, 148680, Note_on_c, 0, 63, 0
3, 148680, Note_on_c, 0, 59, 67
3, 148800, Note_on_c, 0, 59, 0
3, 148800, Note_on_c, 0, 60, 67
3, 148920, Note_on_c, 0, 60, 0
3, 148920, Note_on_c, 0, 62, 67
3, 149040, Note_on_c, 0, 62, 0
3, 149040, Note_on_c, 0, 63, 67
3, 149160, Note_on_c, 0, 63, 0
3, 149160, Note_on_c, 0, 64, 67
3, 149280, Note_on_c, 0, 64, 0
3, 149280, Note_on_c, 0, 65, 67
3, 149400, Note_on_c, 0, 65, 0
3, 149400, Note_on_c, 0, 64, 67
3, 149520, Note_on_c, 0, 64, 0
3, 149520, Note_on_c, 0, 65, 67
3, 149640, Note_on_c, 0, 65, 0
3, 149640, Note_on_c, 0, 62, 67
3, 149760, Note_on_c, 0, 62, 0
3, 149760, Note_on_c, 0, 63, 67
3, 149880, Note_on_c, 0, 63, 0
3, 149880, Note_on_c, 0, 62, 67
3, 150000, Note_on_c, 0, 62, 0
3, 150000, Note_on_c, 0, 63, 67
3, 150120, Note_on_c, 0, 63, 0
3, 150120, Note_on_c, 0, 59, 67
3, 150240, Note_on_c, 0, 59, 0
3, 150240, Note_on_c, 0, 60, 67
3, 150360, Note_on_c, 0, 60, 0
3, 150360, Note_on_c, 0, 62, 67
3, 150480, Note_on_c, 0, 62, 0
3, 150480, Note_on_c, 0, 63, 67
3, 150600, Note_on_c, 0, 63, 0
3, 150600, Note_on_c, 0, 64, 67
3, 150720, Note_on_c, 0, 64, 0
3, 150720, Note_on_c, 0, 65, 67
3, 150840, Note_on_c, 0, 65, 0
3, 150840, Note_on_c, 0, 64, 67
3, 150960, Note_on_c, 0, 64, 0
3, 150960, Note_on_c, 0, 65, 67
3, 151080, Note_on_c, 0, 65, 0
3, 151080, Note_on_c, 0, 62, 67
3, 151200, Note_on_c, 0, 62, 0
3, 151200, Note_on_c, 0, 63, 67
3, 151320, Note_on_c, 0, 63, 0
3, 151320, Note_on_c, 0, 61, 67
3, 151440, Note_on_c, 0, 61, 0
3, 151440, Note_on_c, 0, 63, 67
3, 151560, Note_on_c, 0, 63, 0
3, 151560, Note_on_c, 0, 61, 67
3, 151680, Note_on_c, 0, 61, 0
3, 151680, Note_on_c, 0, 63, 67
3, 151800, Note_on_c, 0, 63, 0
3, 151800, Note_on_c, 0, 62, 67
3, 151920, Note_on_c, 0, 62, 0
3, 151920, Note_on_c, 0, 57, 67
3, 152040, Note_on_c, 0, 57, 0
3, 152040, Note_on_c, 0, 58, 67
3, 152160, Note_on_c, 0, 58, 0
3, 152160, Note_on_c, 0, 61, 67
3, 152280, Note_on_c, 0, 61, 0
3, 152280, Note_on_c, 0, 62, 67
3, 152400, Note_on_c, 0, 62, 0
3, 152400, Note_on_c, 0, 61, 67
3, 152520, Note_on_c, 0, 61, 0
3, 152520, Note_on_c, 0, 62, 67
3, 152640, Note_on_c, 0, 62, 0
3, 152640, Note_on_c, 0, 57, 67
3, 152760, Note_on_c, 0, 57, 0
3, 152760, Note_on_c, 0, 58, 67
3, 152880, Note_on_c, 0, 58, 0
3, 166560, Note_on_c, 0, 49, 67
3, 166560, Note_on_c, 0, 53, 67
3, 166560, Note_on_c, 0, 59, 67
3, 166800, Note_on_c, 0, 59, 0
3, 166800, Note_on_c, 0, 53, 0
3, 166800, Note_on_c, 0, 49, 0
3, 166800, Note_on_c, 0, 41, 93
3, 166800, Note_on_c, 0, 47, 93
3, 167040, Note_on_c, 0, 47, 0
3, 167040, Note_on_c, 0, 48, 67
3, 167280, Note_on_c, 0, 48, 0
3, 167280, Note_on_c, 0, 41, 0
3, 167280, Note_on_c, 0, 49, 67
3, 167280, Note_on_c, 0, 53, 67
3, 167520, Note_on_c, 0, 53, 0
3, 167520, Note_on_c, 0, 49, 0
3, 167520, Note_on_c, 0, 59, 67
3, 167760, Note_on_c, 0, 59, 0
3, 167760, Note_on_c, 0, 61, 67
3, 167760, Note_on_c, 0, 65, 67
3, 168000, Note_on_c, 0, 65, 0
3, 168000, Note_on_c, 0, 61, 0
3, 168000, Note_on_c, 0, 71, 67
3, 168240, Note_on_c, 0, 71, 0
3, 168240, Note_on_c, 0, 65, 67
3, 168240, Note_on_c, 0, 69, 67
3, 168480, Note_on_c, 0, 69, 0
3, 168480, Note_on_c, 0, 65, 0
3, 168480, Note_on_c, 0, 77, 67
3, 168720, Note_on_c, 0, 77, 0
3, 168720, Control_c, 0, 64, 127
3, 168720, Note_on_c, 0, 73, 67
3, 168720, Note_on_c, 0, 77, 67
3, 168960, Note_on_c, 0, 77, 0
3, 168960, Note_on_c, 0, 73, 0
3, 168960, Note_on_c, 0, 83, 67
3, 169200, Note_on_c, 0, 83, 0
3, 169200, Note_on_c, 0, 85, 67
3, 169200, Note_on_c, 0, 89, 67
3, 169440, Note_on_c, 0, 89, 0
3, 169440, Note_on_c, 0, 85, 0
3, 169680, Control_c, 0, 64, 0
3, 169680, Note_on_c, 0, 77, 67
3, 169680, Note_on_c, 0, 84, 67
3, 169727, Note_on_c, 0, 84, 0
3, 169727, Note_on_c, 0, 77, 0
3, 172560, Note_on_c, 0, 53, 67
3, 172560, Note_on_c, 0, 59, 67
3, 172800, Note_on_c, 0, 59, 0
3, 172800, Note_on_c, 0, 60, 67
3, 173040, Note_on_c, 0, 60, 0
3, 173040, Note_on_c, 0, 53, 0
3, 173040, Note_on_c, 0, 58, 67
3, 173040, Note_on_c, 0, 62, 67
3, 173280, Note_on_c, 0, 62, 0
3, 173280, Note_on_c, 0, 58, 0
3, 173280, Note_on_c, 0, 70, 67
3, 173280, Note_on_c, 0, 74, 67
3, 173520, Note_on_c, 0, 74, 0
3, 173520, Note_on_c, 0, 70, 0
3, 173520, Note_on_c, 0, 57, 67
3, 173520, Note_on_c, 0, 61, 67
3, 173760, Note_on_c, 0, 61, 0
3, 173760, Note_on_c, 0, 57, 0
3, 173760, Note_on_c, 0, 69, 67
3, 174000, Note_on_c, 0, 69, 0
3, 174000, Note_on_c, 0, 52, 67
3, 174000, Note_on_c, 0, 57, 67
3, 174240, Note_on_c, 0, 57, 0
3, 174240, Note_on_c, 0, 52, 0
3, 174240, Note_on_c, 0, 64, 67
3, 174240, Note_on_c, 0, 67, 67
3, 174480, Note_on_c, 0, 67, 0
3, 174480, Note_on_c, 0, 64, 0
3, 174480, Control_c, 0, 64, 127
3, 174480, Note_on_c, 0, 44, 67
3, 174480, Note_on_c, 0, 50, 67
3, 174720, Note_on_c, 0, 50, 0
3, 174720, Note_on_c, 0, 44, 0
3, 174720, Note_on_c, 0, 62, 67
3, 174960, Note_on_c, 0, 62, 0
3, 174960, Note_on_c, 0, 56, 67
3, 174960, Note_on_c, 0, 62, 67
3, 175200, Note_on_c, 0, 62, 0
3, 175200, Note_on_c, 0, 56, 0
3, 175200, Note_on_c, 0, 74, 67
3, 175440, Note_on_c, 0, 74, 0
3, 175440, Note_on_c, 0, 57, 67
3, 175440, Note_on_c, 0, 64, 67
3, 175440, Note_on_c, 0, 69, 67
3, 175680, Note_on_c, 0, 69, 0
3, 175680, Note_on_c, 0, 64, 0
3, 175680, Note_on_c, 0, 57, 0
3, 175680, Control_c, 0, 64, 0
3, 177360, Note_on_c, 0, 68, 67
3, 177360, Note_on_c, 0, 74, 67
3, 177600, Note_on_c, 0, 74, 0
3, 177600, Note_on_c, 0, 68, 0
3, 177600, Note_on_c, 0, 67, 67
3, 177600, Note_on_c, 0, 73, 67
3, 177840, Note_on_c, 0, 73, 0
3, 177840, Note_on_c, 0, 67, 0
3, 177840, Note_on_c, 0, 66, 67
3, 177840, Note_on_c, 0, 72, 67
3, 178080, Note_on_c, 0, 72, 0
3, 178080, Note_on_c, 0, 66, 0
3, 178080, Note_on_c, 0, 65, 67
3, 178080, Note_on_c, 0, 71, 67
3, 178320, Note_on_c, 0, 71, 0
3, 178320, Note_on_c, 0, 65, 0
3, 178320, Note_on_c, 0, 64, 67
3, 178320, Note_on_c, 0, 70, 67
3, 178560, Note_on_c, 0, 70, 0
3, 178560, Note_on_c, 0, 64, 0
3, 178560, Note_on_c, 0, 63, 67
3, 178560, Note_on_c, 0, 69, 67
3, 178800, Note_on_c, 0, 69, 0
3, 178800, Note_on_c, 0, 63, 0
3, 178800, Note_on_c, 0, 57, 67
3, 178800, Note_on_c, 0, 62, 67
3, 178800, Note_on_c, 0, 69, 67
3, 179040, Note_on_c, 0, 69, 0
3, 179040, Note_on_c, 0, 62, 0
3, 179040, Note_on_c, 0, 57, 0
3, 179040, Note_on_c, 0, 71, 80
3, 179040, Note_on_c, 0, 76, 80
3, 179280, Note_on_c, 0, 76, 0
3, 179280, Note_on_c, 0, 77, 54
3, 179520, Note_on_c, 0, 77, 0
3, 179520, Note_on_c, 0, 71, 0
3, 179520, Note_on_c, 0, 64, 80
3, 179520, Note_on_c, 0, 70, 80
3, 179760, Note_on_c, 0, 70, 0
3, 179760, Note_on_c, 0, 71, 54
3, 180000, Note_on_c, 0, 71, 0
3, 180000, Note_on_c, 0, 64, 0
3, 180000, Note_on_c, 0, 57, 54
3, 180000, Note_on_c, 0, 64, 54
3, 180240, Note_on_c, 0, 64, 0
3, 180240, Note_on_c, 0, 57, 0
3, 181440, Note_on_c, 0, 45, 54
3, 181440, Note_on_c, 0, 49, 54
3, 181680, Note_on_c, 0, 49, 0
3, 181680, Note_on_c, 0, 45, 0
3, 183120, Note_on_c, 0, 56, 54
3, 183120, Note_on_c, 0, 62, 54
3, 183360, Note_on_c, 0, 62, 0
3, 183360, Note_on_c, 0, 56, 0
3, 183360, Note_on_c, 0, 55, 54
3, 183360, Note_on_c, 0, 61, 54
3, 183600, Note_on_c, 0, 61, 0
3, 183600, Note_on_c, 0, 55, 0
3, 183600, Note_on_c, 0, 54, 54
3, 183600, Note_on_c, 0, 60, 54
3, 183840, Note_on_c, 0, 60, 0
3, 183840, Note_on_c, 0, 54, 0
3, 183840, Note_on_c, 0, 53, 54
3, 183840, Note_on_c, 0, 59, 54
3, 184080, Note_on_c, 0, 59, 0
3, 184080, Note_on_c, 0, 53, 0
3, 184080, Note_on_c, 0, 52, 54
3, 184080, Note_on_c, 0, 58, 54
3, 184320, Note_on_c, 0, 58, 0
3, 184320, Note_on_c, 0, 52, 0
3, 184320, Note_on_c, 0, 51, 54
3, 184320, Note_on_c, 0, 57, 54
3, 184560, Note_on_c, 0, 57, 0
3, 184560, Note_on_c, 0, 51, 0
3, 184560, Note_on_c, 0, 45, 54
3, 184560, Note_on_c, 0, 50, 54
3, 184560, Note_on_c, 0, 57, 54
3, 184607, Note_on_c, 0, 57, 0
3, 184607, Note_on_c, 0, 50, 0
3, 184607, Note_on_c, 0, 45, 0
3, 184800, Note_on_c, 0, 59, 80
3, 184800, Note_on_c, 0, 64, 80
3, 185040, Note_on_c, 0, 64, 0
3, 185040, Note_on_c, 0, 65, 54
3, 185280, Note_on_c, 0, 65, 0
3, 185280, Note_on_c, 0, 59, 0
3, 185280, Note_on_c, 0, 52, 80
3, 185280, Note_on_c, 0, 58, 80
3, 185520, Note_on_c, 0, 58, 0
3, 185520, Note_on_c, 0, 59, 54
3, 185760, Note_on_c, 0, 59, 0
3, 185760, Note_on_c, 0, 52, 0
3, 185760, Note_on_c, 0, 45, 54
3, 185760, Note_on_c, 0, 52, 54
3, 186000, Note_on_c, 0, 52, 0
3, 186000, Note_on_c, 0, 45, 0
3, 192240, Note_on_c, 0, 59, 54
3, 192360, Note_on_c, 0, 59, 0
3, 192360, Note_on_c, 0, 57, 54
3, 192480, Note_on_c, 0, 57, 0
3, 192480, Note_on_c, 0, 52, 54
3, 192600, Note_on_c, 0, 52, 0
3, 192600, Note_on_c, 0, 49, 54
3, 192720, Note_on_c, 0, 49, 0
3, 192720, Note_on_c, 0, 45, 54
3, 192840, Note_on_c, 0, 45, 0
3, 192840, Note_on_c, 0, 40, 54
3, 192960, Note_on_c, 0, 40, 0
3, 192960, Note_on_c, 0, 37, 54
3, 193080, Note_on_c, 0, 37, 0
3, 193080, Control_c, 0, 64, 0
3, 193080, Note_on_c, 0, 33, 54
3, 193200, Note_on_c, 0, 33, 0
3, 193200, Control_c, 0, 64, 127
3, 193200, Note_on_c, 0, 30, 93
3, 193320, Note_on_c, 0, 30, 0
3, 193320, Note_on_c, 0, 38, 93
3, 193440, Note_on_c, 0, 38, 0
3, 193440, Note_on_c, 0, 39, 93
3, 193560, Note_on_c, 0, 39, 0
3, 193560, Note_on_c, 0, 45, 93
3, 193680, Note_on_c, 0, 45, 0
3, 193680, Note_on_c, 0, 49, 93
3, 193800, Note_on_c, 0, 49, 0
3, 193800, Note_on_c, 0, 51, 93
3, 193920, Note_on_c, 0, 51, 0
3, 193920, Note_on_c, 0, 54, 93
3, 193975, Note_on_c, 0, 54, 0
3, 193975, Note_on_c, 0, 57, 93
3, 194030, Note_on_c, 0, 57, 0
3, 194030, Note_on_c, 0, 61, 93
3, 194085, Note_on_c, 0, 61, 0
3, 194085, Note_on_c, 0, 63, 93
3, 194141, Note_on_c, 0, 63, 0
3, 194141, Note_on_c, 0, 66, 93
3, 194197, Note_on_c, 0, 66, 0
3, 194197, Note_on_c, 0, 69, 93
3, 194252, Note_on_c, 0, 69, 0
3, 194252, Note_on_c, 0, 73, 93
3, 194307, Note_on_c, 0, 73, 0
3, 194307, Note_on_c, 0, 75, 93
3, 194362, Note_on_c, 0, 75, 0
3, 194362, Note_on_c, 0, 78, 93
3, 194418, Note_on_c, 0, 78, 0
3, 194418, Note_on_c, 0, 81, 93
3, 194474, Note_on_c, 0, 81, 0
3, 194474, Note_on_c, 0, 85, 93
3, 194529, Note_on_c, 0, 85, 0
3, 194529, Note_on_c, 0, 87, 93
3, 194584, Note_on_c, 0, 87, 0
3, 194584, Note_on_c, 0, 90, 93
3, 194640, Note_on_c, 0, 90, 0
3, 200790, Note_on_c, 0, 44, 54
3, 200820, Note_on_c, 0, 51, 54
3, 200850, Note_on_c, 0, 54, 54
3, 200880, Control_c, 0, 64, 127
3, 200880, Note_on_c, 0, 56, 54
3, 201120, Note_on_c, 0, 56, 0
3, 201120, Note_on_c, 0, 44, 0
3, 201120, Note_on_c, 0, 51, 0
3, 201120, Note_on_c, 0, 54, 0
3, 201600, Control_c, 0, 64, 0
3, 202230, Note_on_c, 0, 44, 54
3, 202260, Note_on_c, 0, 51, 54
3, 202290, Note_on_c, 0, 54, 54
3, 202320, Control_c, 0, 64, 127
3, 202320, Note_on_c, 0, 56, 54
3, 202560, Note_on_c, 0, 56, 0
3, 202560, Note_on_c, 0, 44, 0
3, 202560, Note_on_c, 0, 51, 0
3, 202560, Note_on_c, 0, 54, 0
3, 202800, Control_c, 0, 64, 0
3, 217200, Note_on_c, 0, 56, 67
3, 217440, Note_on_c, 0, 56, 0
3, 217440, Note_on_c, 0, 58, 67
3, 217680, Note_on_c, 0, 58, 0
3, 217680, Note_on_c, 0, 61, 67
3, 217920, Note_on_c, 0, 61, 0
3, 217920, Note_on_c, 0, 63, 67
3, 218400, Note_on_c, 0, 63, 0
3, 218400, Note_on_c, 0, 63, 67
3, 218640, Note_on_c, 0, 63, 0
3, 218640, Note_on_c, 0, 61, 67
3, 218880, Note_on_c, 0, 61, 0
3, 218880, Note_on_c, 0, 63, 67
3, 219120, Note_on_c, 0, 63, 0
3, 219120, Note_on_c, 0, 65, 80
3, 219360, Note_on_c, 0, 65, 0
3, 219360, Note_on_c, 0, 66, 80
3, 219840, Note_on_c, 0, 66, 0
3, 219840, Note_on_c, 0, 66, 80
3, 220080, Note_on_c, 0, 66, 0
3, 220080, Note_on_c, 0, 65, 80
3, 220320, Note_on_c, 0, 65, 0
3, 220320, Note_on_c, 0, 66, 80
3, 220560, Note_on_c, 0, 66, 0
3, 220560, Note_on_c, 0, 68, 80
3, 220800, Note_on_c, 0, 68, 0
3, 220800, Note_on_c, 0, 69, 80
3, 221280, Note_on_c, 0, 69, 0
3, 221280, Note_on_c, 0, 69, 67
3, 221520, Note_on_c, 0, 69, 0
3, 221520, Note_on_c, 0, 57, 67
3, 221640, Note_on_c, 0, 57, 0
3, 221640, Note_on_c, 0, 62, 67
3, 221760, Note_on_c, 0, 62, 0
3, 221760, Note_on_c, 0, 63, 67
3, 221880, Note_on_c, 0, 63, 0
3, 221880, Note_on_c, 0, 65, 67
3, 222000, Note_on_c, 0, 65, 0
3, 222000, Note_on_c, 0, 66, 67
3, 222120, Note_on_c, 0, 66, 0
3, 222120, Note_on_c, 0, 67, 67
3, 222240, Note_on_c, 0, 67, 0
3, 222240, Note_on_c, 0, 68, 67
3, 222320, Note_on_c, 0, 68, 0
3, 222320, Note_on_c, 0, 70, 67
3, 222399, Note_on_c, 0, 70, 0
3, 222399, Note_on_c, 0, 72, 67
3, 222480, Note_on_c, 0, 72, 0
3, 222480, Note_on_c, 0, 74, 67
3, 222560, Note_on_c, 0, 74, 0
3, 222560, Note_on_c, 0, 75, 67
3, 222639, Note_on_c, 0, 75, 0
3, 222639, Note_on_c, 0, 77, 67
3, 222720, Note_on_c, 0, 77, 0
3, 222720, Note_on_c, 0, 78, 67
3, 222800, Note_on_c, 0, 78, 0
3, 222800, Note_on_c, 0, 79, 67
3, 222879, Note_on_c, 0, 79, 0
3, 222879, Note_on_c, 0, 80, 67
3, 222960, Note_on_c, 0, 80, 0
3, 222960, Note_on_c, 0, 80, 54
3, 222999, Note_on_c, 0, 80, 0
3, 222999, Note_on_c, 0, 82, 54
3, 223040, Note_on_c, 0, 82, 0
3, 223040, Note_on_c, 0, 80, 54
3, 223080, Note_on_c, 0, 80, 0
3, 223080, Note_on_c, 0, 82, 54
3, 223119, Note_on_c, 0, 82, 0
3, 223119, Note_on_c, 0, 80, 54
3, 223160, Note_on_c, 0, 80, 0
3, 223160, Note_on_c, 0, 82, 54
3, 223200, Note_on_c, 0, 82, 0
3, 223200, Note_on_c, 0, 80, 54
3, 223239, Note_on_c, 0, 80, 0
3, 223239, Note_on_c, 0, 82, 54
3, 223280, Note_on_c, 0, 82, 0
3, 223280, Note_on_c, 0, 80, 54
3, 223320, Note_on_c, 0, 80, 0
3, 223320, Note_on_c, 0, 82, 54
3, 223359, Note_on_c, 0, 82, 0
3, 223359, Note_on_c, 0, 80, 54
3, 223400, Note_on_c, 0, 80, 0
3, 223400, Note_on_c, 0, 82, 54
3, 223440, Note_on_c, 0, 82, 0
3, 223440, Note_on_c, 0, 80, 54
3, 223479, Note_on_c, 0, 80, 0
3, 223479, Note_on_c, 0, 82, 54
3, 223520, Note_on_c, 0, 82, 0
3, 223520, Note_on_c, 0, 80, 54
3, 223560, Note_on_c, 0, 80, 0
3, 223560, Note_on_c, 0, 82, 54
3, 223599, Note_on_c, 0, 82, 0
3, 223599, Note_on_c, 0, 80, 54
3, 223640, Note_on_c, 0, 80, 0
3, 223640, Note_on_c, 0, 82, 54
3, 223680, Note_on_c, 0, 82, 0
3, 223680, Note_on_c, 0, 80, 54
3, 223719, Note_on_c, 0, 80, 0
3, 223719, Note_on_c, 0, 82, 54
3, 223760, Note_on_c, 0, 82, 0
3, 223760, Note_on_c, 0, 80, 54
3, 223800, Note_on_c, 0, 80, 0
3, 223800, Note_on_c, 0, 82, 54
3, 223839, Note_on_c, 0, 82, 0
3, 223839, Note_on_c, 0, 80, 54
3, 223880, Note_on_c, 0, 80, 0
3, 223880, Note_on_c, 0, 82, 54
3, 223920, Note_on_c, 0, 82, 0
3, 223920, Note_on_c, 0, 80, 54
3, 223959, Note_on_c, 0, 80, 0
3, 223959, Note_on_c, 0, 82, 54
3, 224000, Note_on_c, 0, 82, 0
3, 224000, Note_on_c, 0, 80, 54
3, 224040, Note_on_c, 0, 80, 0
3, 224040, Note_on_c, 0, 82, 54
3, 224079, Note_on_c, 0, 82, 0
3, 224079, Note_on_c, 0, 80, 54
3, 224120, Note_on_c, 0, 80, 0
3, 224120, Note_on_c, 0, 82, 54
3, 224160, Note_on_c, 0, 82, 0
3, 224160, Note_on_c, 0, 80, 54
3, 224199, Note_on_c, 0, 80, 0
3, 224199, Note_on_c, 0, 82, 54
3, 224240, Note_on_c, 0, 82, 0
3, 224240, Note_on_c, 0, 80, 54
3, 224280, Note_on_c, 0, 80, 0
3, 224280, Note_on_c, 0, 82, 54
3, 224319, Note_on_c, 0, 82, 0
3, 224319, Note_on_c, 0, 80, 54
3, 224360, Note_on_c, 0, 80, 0
3, 224360, Note_on_c, 0, 82, 54
3, 224400, Note_on_c, 0, 82, 0
3, 224400, Note_on_c, 0, 80, 54
3, 224439, Note_on_c, 0, 80, 0
3, 224439, Note_on_c, 0, 82, 54
3, 224480, Note_on_c, 0, 82, 0
3, 224480, Note_on_c, 0, 80, 54
3, 224520, Note_on_c, 0, 80, 0
3, 224520, Note_on_c, 0, 82, 54
3, 224559, Note_on_c, 0, 82, 0
3, 224559, Note_on_c, 0, 80, 54
3, 224600, Note_on_c, 0, 80, 0
3, 224600, Note_on_c, 0, 82, 54
3, 224640, Note_on_c, 0, 82, 0
3, 224640, Note_on_c, 0, 80, 54
3, 224679, Note_on_c, 0, 80, 0
3, 224679, Note_on_c, 0, 82, 54
3, 224720, Note_on_c, 0, 82, 0
3, 224720, Note_on_c, 0, 80, 54
3, 224760, Note_on_c, 0, 80, 0
3, 224760, Note_on_c, 0, 82, 54
3, 224799, Note_on_c, 0, 82, 0
3, 224799, Note_on_c, 0, 80, 54
3, 224840, Note_on_c, 0, 80, 0
3, 224840, Note_on_c, 0, 82, 54
3, 224880, Note_on_c, 0, 82, 0
3, 224880, Note_on_c, 0, 80, 54
3, 224919, Note_on_c, 0, 80, 0
3, 224919, Note_on_c, 0, 82, 54
3, 224960, Note_on_c, 0, 82, 0
3, 224960, Note_on_c, 0, 80, 54
3, 225000, Note_on_c, 0, 80, 0
3, 225000, Note_on_c, 0, 82, 54
3, 225039, Note_on_c, 0, 82, 0
3, 225039, Note_on_c, 0, 80, 54
3, 225080, Note_on_c, 0, 80, 0
3, 225080, Note_on_c, 0, 82, 54
3, 225120, Note_on_c, 0, 82, 0
3, 225120, Note_on_c, 0, 80, 54
3, 225159, Note_on_c, 0, 80, 0
3, 225159, Note_on_c, 0, 82, 54
3, 225200, Note_on_c, 0, 82, 0
3, 225200, Note_on_c, 0, 80, 54
3, 225240, Note_on_c, 0, 80, 0
3, 225240, Note_on_c, 0, 82, 54
3, 225279, Note_on_c, 0, 82, 0
3, 225279, Note_on_c, 0, 80, 54
3, 225320, Note_on_c, 0, 80, 0
3, 225320, Note_on_c, 0, 82, 54
3, 225360, Note_on_c, 0, 82, 0
3, 225360, Note_on_c, 0, 80, 54
3, 225399, Note_on_c, 0, 80, 0
3, 225399, Note_on_c, 0, 82, 54
3, 225440, Note_on_c, 0, 82, 0
3, 225440, Note_on_c, 0, 80, 54
3, 225480, Note_on_c, 0, 80, 0
3, 225480, Note_on_c, 0, 82, 54
3, 225519, Note_on_c, 0, 82, 0
3, 225519, Note_on_c, 0, 80, 54
3, 225560, Note_on_c, 0, 80, 0
3, 225560, Note_on_c, 0, 82, 54
3, 225600, Note_on_c, 0, 82, 0
3, 225600, Note_on_c, 0, 80, 54
3, 225639, Note_on_c, 0, 80, 0
3, 225639, Note_on_c, 0, 82, 54
3, 225680, Note_on_c, 0, 82, 0
3, 225680, Note_on_c, 0, 80, 54
3, 225720, Note_on_c, 0, 80, 0
3, 225720, Note_on_c, 0, 82, 54
3, 225759, Note_on_c, 0, 82, 0
3, 225759, Note_on_c, 0, 79, 54
3, 225800, Note_on_c, 0, 79, 0
3, 225800, Note_on_c, 0, 80, 54
3, 225840, Note_on_c, 0, 80, 0
3, 225840, Note_on_c, 0, 85, 54
3, 225879, Note_on_c, 0, 85, 0
3, 225879, Note_on_c, 0, 87, 54
3, 225920, Note_on_c, 0, 87, 0
3, 225920, Note_on_c, 0, 85, 54
3, 225960, Note_on_c, 0, 85, 0
3, 225960, Note_on_c, 0, 87, 54
3, 225999, Note_on_c, 0, 87, 0
3, 225999, Note_on_c, 0, 85, 54
3, 226040, Note_on_c, 0, 85, 0
3, 226040, Note_on_c, 0, 87, 54
3, 226080, Note_on_c, 0, 87, 0
3, 226080, Note_on_c, 0, 85, 54
3, 226119, Note_on_c, 0, 85, 0
3, 226119, Note_on_c, 0, 87, 54
3, 226160, Note_on_c, 0, 87, 0
3, 226160, Note_on_c, 0, 85, 54
3, 226200, Note_on_c, 0, 85, 0
3, 226200, Note_on_c, 0, 87, 54
3, 226239, Note_on_c, 0, 87, 0
3, 226239, Note_on_c, 0, 85, 54
3, 226280, Note_on_c, 0, 85, 0
3, 226280, Note_on_c, 0, 87, 54
3, 226320, Note_on_c, 0, 87, 0
3, 226320, Note_on_c, 0, 85, 54
3, 226359, Note_on_c, 0, 85, 0
3, 226359, Note_on_c, 0, 87, 54
3, 226400, Note_on_c, 0, 87, 0
3, 226400, Note_on_c, 0, 85, 54
3, 226440, Note_on_c, 0, 85, 0
3, 226440, Note_on_c, 0, 87, 54
3, 226479, Note_on_c, 0, 87, 0
3, 226479, Note_on_c, 0, 84, 54
3, 226520, Note_on_c, 0, 84, 0
3, 226520, Note_on_c, 0, 85, 54
3, 226560, Note_on_c, 0, 85, 0
3, 226560, Note_on_c, 0, 87, 67
3, 226680, Note_on_c, 0, 87, 0
3, 226680, Note_on_c, 0, 70, 67
3, 226800, Note_on_c, 0, 70, 0
3, 226800, Note_on_c, 0, 72, 67
3, 226920, Note_on_c, 0, 72, 0
3, 226920, Note_on_c, 0, 75, 67
3, 227040, Note_on_c, 0, 75, 0
3, 227040, Note_on_c, 0, 78, 67
3, 227160, Note_on_c, 0, 78, 0
3, 227160, Note_on_c, 0, 82, 67
3, 227280, Note_on_c, 0, 82, 0
3, 227280, Note_on_c, 0, 84, 67
3, 227400, Note_on_c, 0, 84, 0
3, 227400, Note_on_c, 0, 81, 67
3, 227520, Note_on_c, 0, 81, 0
3, 227520, Note_on_c, 0, 77, 67
3, 227640, Note_on_c, 0, 77, 0
3, 227640, Note_on_c, 0, 78, 67
3, 227760, Note_on_c, 0, 78, 0
3, 227760, Note_on_c, 0, 77, 67
3, 227880, Note_on_c, 0, 77, 0
3, 227880, Note_on_c, 0, 72, 67
3, 228000, Note_on_c, 0, 72, 0
3, 228000, Note_on_c, 0, 70, 67
3, 228120, Note_on_c, 0, 70, 0
3, 228120, Note_on_c, 0, 77, 67
3, 228240, Note_on_c, 0, 77, 0
3, 228240, Note_on_c, 0, 74, 67
3, 228360, Note_on_c, 0, 74, 0
3, 228360, Note_on_c, 0, 71, 67
3, 228480, Note_on_c, 0, 71, 0
3, 228480, Note_on_c, 0, 70, 67
3, 228600, Note_on_c, 0, 70, 0
3, 228600, Note_on_c, 0, 65, 67
3, 228720, Note_on_c, 0, 65, 0
3, 228720, Note_on_c, 0, 70, 67
3, 228840, Note_on_c, 0, 70, 0
3, 228840, Note_on_c, 0, 74, 67
3, 228960, Note_on_c, 0, 74, 0
3, 228960, Note_on_c, 0, 77, 67
3, 229080, Note_on_c, 0, 77, 0
3, 229080, Note_on_c, 0, 74, 67
3, 229200, Note_on_c, 0, 74, 0
3, 229200, Note_on_c, 0, 70, 67
3, 229320, Note_on_c, 0, 70, 0
3, 229320, Note_on_c, 0, 65, 67
3, 229440, Note_on_c, 0, 65, 0
3, 229440, Note_on_c, 0, 70, 67
3, 229560, Note_on_c, 0, 70, 0
3, 229560, Note_on_c, 0, 71, 67
3, 229680, Note_on_c, 0, 71, 0
3, 229680, Note_on_c, 0, 70, 67
3, 229800, Note_on_c, 0, 70, 0
3, 229800, Note_on_c, 0, 66, 67
3, 229920, Note_on_c, 0, 66, 0
3, 229920, Note_on_c, 0, 63, 67
3, 230040, Note_on_c, 0, 63, 0
3, 230040, Note_on_c, 0, 58, 67
3, 230160, Note_on_c, 0, 58, 0
3, 230160, Note_on_c, 0, 56, 67
3, 230400, Note_on_c, 0, 56, 0
3, 233040, Control_c, 0, 64, 127
3, 233040, Note_on_c, 0, 49, 54
3, 233040, Note_on_c, 0, 56, 54
3, 233280, Note_on_c, 0, 56, 0
3, 233280, Note_on_c, 0, 49, 0
3, 233280, Note_on_c, 0, 56, 54
3, 233280, Note_on_c, 0, 61, 54
3, 233280, Note_on_c, 0, 65, 54
3, 233520, Note_on_c, 0, 65, 0
3, 233520, Note_on_c, 0, 61, 0
3, 233520, Note_on_c, 0, 56, 0
3, 233520, Control_c, 0, 64, 0
3, 233520, Note_on_c, 0, 61, 54
3, 233520, Note_on_c, 0, 65, 54
3, 233520, Note_on_c, 0, 68, 54
3, 233760, Note_on_c, 0, 68, 0
3, 233760, Note_on_c, 0, 65, 0
3, 233760, Note_on_c, 0, 61, 0
3, 233760, Control_c, 0, 64, 127
3, 233760, Note_on_c, 0, 49, 54
3, 233760, Note_on_c, 0, 56, 54
3, 234000, Note_on_c, 0, 56, 0
3, 234000, Note_on_c, 0, 49, 0
3, 234000, Note_on_c, 0, 56, 54
3, 234000, Note_on_c, 0, 63, 54
3, 234000, Note_on_c, 0, 66, 54
3, 234240, Note_on_c, 0, 66, 0
3, 234240, Note_on_c, 0, 63, 0
3, 234240, Note_on_c, 0, 56, 0
3, 234240, Control_c, 0, 64, 0
3, 234240, Note_on_c, 0, 60, 54
3, 234240, Note_on_c, 0, 66, 54
3, 234240, Note_on_c, 0, 68, 54
3, 234420, Note_on_c, 0, 49, 54
3, 234480, Note_on_c, 0, 68, 0
3, 234480, Note_on_c, 0, 60, 0
3, 234480, Note_on_c, 0, 66, 0
3, 234480, Control_c, 0, 64, 127
3, 234480, Note_on_c, 0, 56, 54
3, 234630, Note_on_c, 0, 53, 54
3, 234660, Note_on_c, 0, 56, 54
3, 234690, Note_on_c, 0, 61, 54
3, 234720, Note_on_c, 0, 56, 0
3, 234720, Note_on_c, 0, 49, 0
3, 234720, Note_on_c, 0, 65, 54
3, 234870, Note_on_c, 0, 56, 54
3, 234900, Note_on_c, 0, 61, 54
3, 234930, Note_on_c, 0, 65, 54
3, 234960, Note_on_c, 0, 65, 0
3, 234960, Note_on_c, 0, 56, 0
3, 234960, Note_on_c, 0, 61, 0
3, 234960, Note_on_c, 0, 53, 0
3, 234960, Control_c, 0, 64, 0
3, 234960, Note_on_c, 0, 68, 54
3, 235110, Note_on_c, 0, 57, 54
3, 235140, Note_on_c, 0, 61, 54
3, 235170, Note_on_c, 0, 64, 54
3, 235200, Note_on_c, 0, 68, 0
3, 235200, Note_on_c, 0, 65, 0
3, 235200, Note_on_c, 0, 61, 0
3, 235200, Note_on_c, 0, 56, 0
3, 235200, Control_c, 0, 64, 127
3, 235200, Note_on_c, 0, 69, 54
3, 235350, Note_on_c, 0, 61, 54
3, 235380, Note_on_c, 0, 64, 54
3, 235410, Note_on_c, 0, 69, 54
3, 235440, Note_on_c, 0, 69, 0
3, 235440, Note_on_c, 0, 64, 0
3, 235440, Note_on_c, 0, 61, 0
3, 235440, Note_on_c, 0, 57, 0
3, 235440, Note_on_c, 0, 73, 54
3, 235590, Note_on_c, 0, 64, 54
3, 235620, Note_on_c, 0, 69, 54
3, 235650, Note_on_c, 0, 73, 54
3, 235680, Note_on_c, 0, 73, 0
3, 235680, Note_on_c, 0, 69, 0
3, 235680, Note_on_c, 0, 64, 0
3, 235680, Note_on_c, 0, 61, 0
3, 235680, Control_c, 0, 64, 0
3, 235680, Note_on_c, 0, 76, 54
3, 235920, Note_on_c, 0, 76, 0
3, 235920, Note_on_c, 0, 69, 0
3, 235920, Note_on_c, 0, 64, 0
3, 235920, Note_on_c, 0, 73, 0
3, 235920, Control_c, 0, 64, 127
3, 235920, Note_on_c, 0, 49, 54
3, 235920, Note_on_c, 0, 56, 54
3, 236160, Note_on_c, 0, 56, 0
3, 236160, Note_on_c, 0, 49, 0
3, 236160, Note_on_c, 0, 56, 54
3, 236160, Note_on_c, 0, 61, 54
3, 236160, Note_on_c, 0, 65, 54
3, 236400, Note_on_c, 0, 65, 0
3, 236400, Note_on_c, 0, 61, 0
3, 236400, Note_on_c, 0, 56, 0
3, 236400, Control_c, 0, 64, 0
3, 236400, Note_on_c, 0, 61, 54
3, 236400, Note_on_c, 0, 65, 54
3, 236400, Note_on_c, 0, 68, 54
3, 236640, Note_on_c, 0, 68, 0
3, 236640, Note_on_c, 0, 65, 0
3, 236640, Note_on_c, 0, 61, 0
3, 236640, Control_c, 0, 64, 127
3, 236640, Note_on_c, 0, 49, 54
3, 236640, Note_on_c, 0, 56, 54
3, 236880, Note_on_c, 0, 56, 0
3, 236880, Note_on_c, 0, 49, 0
3, 236880, Note_on_c, 0, 56, 54
3, 236880, Note_on_c, 0, 63, 54
3, 236880, Note_on_c, 0, 66, 54
3, 237120, Note_on_c, 0, 66, 0
3, 237120, Note_on_c, 0, 63, 0
3, 237120, Note_on_c, 0, 56, 0
3, 237120, Control_c, 0, 64, 0
3, 237120, Note_on_c, 0, 60, 54
3, 237120, Note_on_c, 0, 66, 54
3, 237120, Note_on_c, 0, 68, 54
3, 237300, Note_on_c, 0, 49, 54
3, 237360, Note_on_c, 0, 68, 0
3, 237360, Note_on_c, 0, 60, 0
3, 237360, Note_on_c, 0, 66, 0
3, 237360, Control_c, 0, 64, 127
3, 237360, Note_on_c, 0, 56, 54
3, 237510, Note_on_c, 0, 53, 54
3, 237540, Note_on_c, 0, 56, 54
3, 237570, Note_on_c, 0, 61, 54
3, 237600, Note_on_c, 0, 56, 0
3, 237600, Note_on_c, 0, 49, 0
3, 237600, Note_on_c, 0, 65, 54
3, 237750, Note_on_c, 0, 56, 54
3, 237780, Note_on_c, 0, 61, 54
3, 237810, Note_on_c, 0, 65, 54
3, 237840, Note_on_c, 0, 65, 0
3, 237840, Note_on_c, 0, 56, 0
3, 237840, Note_on_c, 0, 61, 0
3, 237840, Note_on_c, 0, 53, 0
3, 237840, Control_c, 0, 64, 0
3, 237840, Note_on_c, 0, 68, 54
3, 237990, Note_on_c, 0, 57, 54
3, 238020, Note_on_c, 0, 61, 54
3, 238050, Note_on_c, 0, 64, 54
3, 238080, Note_on_c, 0, 68, 0
3, 238080, Note_on_c, 0, 65, 0
3, 238080, Note_on_c, 0, 61, 0
3, 238080, Note_on_c, 0, 56, 0
3, 238080, Control_c, 0, 64, 127
3, 238080, Note_on_c, 0, 69, 54
3, 238230, Note_on_c, 0, 61, 54
3, 238260, Note_on_c, 0, 64, 54
3, 238290, Note_on_c, 0, 69, 54
3, 238320, Note_on_c, 0, 69, 0
3, 238320, Note_on_c, 0, 64, 0
3, 238320, Note_on_c, 0, 61, 0
3, 238320, Note_on_c, 0, 57, 0
3, 238320, Note_on_c, 0, 73, 54
3, 238470, Note_on_c, 0, 64, 54
3, 238500, Note_on_c, 0, 69, 54
3, 238530, Note_on_c, 0, 73, 54
3, 238560, Note_on_c, 0, 73, 0
3, 238560, Note_on_c, 0, 69, 0
3, 238560, Note_on_c, 0, 64, 0
3, 238560, Note_on_c, 0, 61, 0
3, 238560, Control_c, 0, 64, 0
3, 238560, Note_on_c, 0, 76, 54
3, 238710, Note_on_c, 0, 65, 54
3, 238740, Note_on_c, 0, 68, 54
3, 238770, Note_on_c, 0, 73, 54
3, 238800, Note_on_c, 0, 76, 0
3, 238800, Note_on_c, 0, 73, 0
3, 238800, Note_on_c, 0, 69, 0
3, 238800, Note_on_c, 0, 64, 0
3, 238800, Control_c, 0, 64, 127
3, 238800, Note_on_c, 0, 77, 54
3, 238960, Note_on_c, 0, 44, 54
3, 239000, Note_on_c, 0, 49, 54
3, 239040, Note_on_c, 0, 77, 0
3, 239040, Note_on_c, 0, 73, 0
3, 239040, Note_on_c, 0, 68, 0
3, 239040, Note_on_c, 0, 65, 0
3, 239040, Note_on_c, 0, 53, 54
3, 239200, Note_on_c, 0, 49, 54
3, 239240, Note_on_c, 0, 53, 54
3, 239280, Note_on_c, 0, 53, 0
3, 239280, Note_on_c, 0, 44, 0
3, 239280, Note_on_c, 0, 49, 0
3, 239280, Note_on_c, 0, 56, 54
3, 239440, Note_on_c, 0, 53, 54
3, 239480, Note_on_c, 0, 56, 54
3, 239520, Note_on_c, 0, 56, 0
3, 239520, Note_on_c, 0, 53, 0
3, 239520, Note_on_c, 0, 49, 0
3, 239520, Note_on_c, 0, 61, 54
3, 239680, Note_on_c, 0, 56, 54
3, 239720, Note_on_c, 0, 61, 54
3, 239760, Note_on_c, 0, 61, 0
3, 239760, Note_on_c, 0, 56, 0
3, 239760, Note_on_c, 0, 53, 0
3, 239760, Note_on_c, 0, 65, 54
3, 239920, Note_on_c, 0, 61, 54
3, 239960, Note_on_c, 0, 65, 54
3, 240000, Note_on_c, 0, 65, 0
3, 240000, Note_on_c, 0, 61, 0
3, 240000, Note_on_c, 0, 56, 0
3, 240000, Note_on_c, 0, 68, 54
3, 240160, Note_on_c, 0, 65, 54
3, 240200, Note_on_c, 0, 68, 54
3, 240240, Note_on_c, 0, 68, 0
3, 240240, Note_on_c, 0, 65, 0
3, 240240, Note_on_c, 0, 61, 0
3, 240240, Note_on_c, 0, 73, 54
3, 240400, Note_on_c, 0, 68, 54
3, 240440, Note_on_c, 0, 73, 54
3, 240480, Note_on_c, 0, 73, 0
3, 240480, Note_on_c, 0, 68, 0
3, 240480, Note_on_c, 0, 65, 0
3, 240480, Note_on_c, 0, 77, 54
3, 240640, Note_on_c, 0, 73, 54
3, 240680, Note_on_c, 0, 77, 54
3, 240720, Note_on_c, 0, 77, 0
3, 240720, Note_on_c, 0, 73, 0
3, 240720, Note_on_c, 0, 68, 0
3, 240720, Note_on_c, 0, 80, 54
3, 240880, Note_on_c, 0, 77, 54
3, 240920, Note_on_c, 0, 80, 54
3, 240960, Note_on_c, 0, 80, 0
3, 240960, Note_on_c, 0, 77, 0
3, 240960, Note_on_c, 0, 73, 0
3, 240960, Note_on_c, 0, 85, 54
3, 241200, Note_on_c, 0, 85, 0
3, 241200, Note_on_c, 0, 77, 0
3, 241200, Note_on_c, 0, 80, 0
3, 241590, Note_on_c, 0, 49, 54
3, 241620, Note_on_c, 0, 56, 54
3, 241650, Note_on_c, 0, 61, 54
3, 241680, Note_on_c, 0, 65, 54
3, 241920, Note_on_c, 0, 65, 0
3, 241920, Note_on_c, 0, 49, 0
3, 241920, Note_on_c, 0, 56, 0
3, 241920, Note_on_c, 0, 61, 0
3, 243840, Note_on_c, 0, 37, 54
3, 243840, Note_on_c, 0, 49, 54
3, 244320, Note_on_c, 0, 49, 0
3, 244320, Note_on_c, 0, 37, 0
3, 244560, Note_on_c, 0, 37, 54
3, 244560, Note_on_c, 0, 44, 54
3, 244560, Note_on_c, 0, 49, 54
3, 245040, Note_on_c, 0, 49, 0
3, 245040, Note_on_c, 0, 44, 0
3, 245040, Note_on_c, 0, 37, 0
3, 245040, End_track
4, 0, Start_track
4, 0, Title_t, "Grand Piano"
4, 0, Program_c, 0, 0
4, 0, Control_c, 0, 7, 115
4, 0, Control_c, 0, 10, 79
4, 5760, Note_on_c, 0, 80, 67
4, 6480, Note_on_c, 0, 80, 0
4, 6480, Note_on_c, 0, 75, 67
4, 6960, Note_on_c, 0, 75, 0
4, 6960, Note_on_c, 0, 77, 67
4, 7200, Note_on_c, 0, 77, 0
4, 7200, Note_on_c, 0, 80, 67
4, 8640, Note_on_c, 0, 80, 0
4, 8640, Note_on_c, 0, 73, 67
4, 8880, Note_on_c, 0, 73, 0
4, 8880, Note_on_c, 0, 72, 67
4, 9120, Note_on_c, 0, 72, 0
4, 9120, Note_on_c, 0, 70, 67
4, 9360, Note_on_c, 0, 70, 0
4, 9360, Note_on_c, 0, 75, 67
4, 9840, Note_on_c, 0, 75, 0
4, 9840, Note_on_c, 0, 75, 67
4, 10080, Note_on_c, 0, 75, 0
4, 10080, Note_on_c, 0, 68, 67
4, 11520, Note_on_c, 0, 68, 0
4, 11520, Note_on_c, 0, 68, 67
4, 11760, Note_on_c, 0, 68, 0
4, 11760, Note_on_c, 0, 70, 67
4, 12000, Note_on_c, 0, 70, 0
4, 12000, Note_on_c, 0, 73, 80
4, 12240, Note_on_c, 0, 73, 0
4, 12240, Note_on_c, 0, 75, 80
4, 12720, Note_on_c, 0, 75, 0
4, 12720, Note_on_c, 0, 75, 80
4, 12960, Note_on_c, 0, 75, 0
4, 12960, Note_on_c, 0, 73, 80
4, 13200, Note_on_c, 0, 73, 0
4, 13200, Note_on_c, 0, 75, 80
4, 13440, Note_on_c, 0, 75, 0
4, 13440, Note_on_c, 0, 77, 80
4, 13680, Note_on_c, 0, 77, 0
4, 13680, Note_on_c, 0, 78, 80
4, 14160, Note_on_c, 0, 78, 0
4, 14160, Note_on_c, 0, 78, 80
4, 14400, Note_on_c, 0, 78, 0
4, 14400, Note_on_c, 0, 77, 80
4, 14640, Note_on_c, 0, 77, 0
4, 14640, Note_on_c, 0, 78, 80
4, 14880, Note_on_c, 0, 78, 0
4, 14880, Note_on_c, 0, 80, 80
4, 15120, Note_on_c, 0, 80, 0
4, 15120, Note_on_c, 0, 81, 80
4, 15600, Note_on_c, 0, 81, 0
4, 15600, Note_on_c, 0, 81, 80
4, 15840, Note_on_c, 0, 81, 0
4, 15840, Note_on_c, 0, 69, 67
4, 17040, Note_on_c, 0, 69, 0
4, 17040, Note_on_c, 0, 68, 67
4, 17280, Note_on_c, 0, 68, 0
4, 17280, Note_on_c, 0, 65, 54
4, 17280, Note_on_c, 0, 68, 54
4, 17280, Note_on_c, 0, 73, 54
4, 17520, Note_on_c, 0, 73, 0
4, 17520, Note_on_c, 0, 68, 0
4, 17520, Note_on_c, 0, 65, 0
4, 17520, Note_on_c, 0, 63, 54
4, 17520, Note_on_c, 0, 66, 54
4, 17520, Note_on_c, 0, 72, 54
4, 17760, Note_on_c, 0, 72, 0
4, 17760, Note_on_c, 0, 66, 0
4, 17760, Note_on_c, 0, 63, 0
4, 17760, Note_on_c, 0, 61, 54
4, 17760, Note_on_c, 0, 65, 54
4, 17760, Note_on_c, 0, 70, 54
4, 18000, Note_on_c, 0, 70, 0
4, 18000, Note_on_c, 0, 65, 0
4, 18000, Note_on_c, 0, 61, 0
4, 18000, Note_on_c, 0, 60, 54
4, 18000, Note_on_c, 0, 63, 54
4, 18000, Note_on_c, 0, 68, 54
4, 18720, Note_on_c, 0, 68, 0
4, 18720, Note_on_c, 0, 63, 0
4, 18720, Note_on_c, 0, 60, 0
4, 18720, Note_on_c, 0, 65, 54
4, 18720, Note_on_c, 0, 68, 54
4, 18720, Note_on_c, 0, 73, 54
4, 18960, Note_on_c, 0, 73, 0
4, 18960, Note_on_c, 0, 68, 0
4, 18960, Note_on_c, 0, 65, 0
4, 18960, Note_on_c, 0, 63, 54
4, 18960, Note_on_c, 0, 66, 54
4, 18960, Note_on_c, 0, 72, 54
4, 19200, Note_on_c, 0, 72, 0
4, 19200, Note_on_c, 0, 66, 0
4, 19200, Note_on_c, 0, 63, 0
4, 19200, Note_on_c, 0, 61, 54
4, 19200, Note_on_c, 0, 65, 54
4, 19200, Note_on_c, 0, 70, 54
4, 19440, Note_on_c, 0, 70, 0
4, 19440, Note_on_c, 0, 65, 0
4, 19440, Note_on_c, 0, 61, 0
4, 19440, Note_on_c, 0, 60, 54
4, 19440, Note_on_c, 0, 63, 54
4, 19440, Note_on_c, 0, 68, 54
4, 20160, Note_on_c, 0, 68, 0
4, 20160, Note_on_c, 0, 63, 0
4, 20160, Note_on_c, 0, 60, 0
4, 20160, Note_on_c, 0, 65, 54
4, 20160, Note_on_c, 0, 68, 54
4, 20160, Note_on_c, 0, 73, 54
4, 20400, Note_on_c, 0, 73, 0
4, 20400, Note_on_c, 0, 68, 0
4, 20400, Note_on_c, 0, 65, 0
4, 20400, Note_on_c, 0, 63, 54
4, 20400, Note_on_c, 0, 66, 54
4, 20400, Note_on_c, 0, 72, 54
4, 20640, Note_on_c, 0, 72, 0
4, 20640, Note_on_c, 0, 66, 0
4, 20640, Note_on_c, 0, 63, 0
4, 20640, Note_on_c, 0, 61, 54
4, 20640, Note_on_c, 0, 65, 54
4, 20640, Note_on_c, 0, 70, 54
4, 20880, Note_on_c, 0, 70, 0
4, 20880, Note_on_c, 0, 65, 0
4, 20880, Note_on_c, 0, 61, 0
4, 20880, Note_on_c, 0, 60, 54
4, 20880, Note_on_c, 0, 63, 54
4, 20880, Note_on_c, 0, 68, 54
4, 21600, Note_on_c, 0, 68, 0
4, 21600, Note_on_c, 0, 63, 0
4, 21600, Note_on_c, 0, 60, 0
4, 21600, Note_on_c, 0, 65, 54
4, 21600, Note_on_c, 0, 68, 54
4, 21600, Note_on_c, 0, 73, 54
4, 21840, Note_on_c, 0, 73, 0
4, 21840, Note_on_c, 0, 68, 0
4, 21840, Note_on_c, 0, 65, 0
4, 21840, Note_on_c, 0, 63, 54
4, 21840, Note_on_c, 0, 66, 54
4, 21840, Note_on_c, 0, 72, 54
4, 22080, Note_on_c, 0, 72, 0
4, 22080, Note_on_c, 0, 66, 0
4, 22080, Note_on_c, 0, 63, 0
4, 22080, Note_on_c, 0, 61, 54
4, 22080, Note_on_c, 0, 65, 54
4, 22080, Note_on_c, 0, 70, 54
4, 22320, Note_on_c, 0, 70, 0
4, 22320, Note_on_c, 0, 65, 0
4, 22320, Note_on_c, 0, 61, 0
4, 22320, Note_on_c, 0, 60, 54
4, 22320, Note_on_c, 0, 63, 54
4, 22320, Note_on_c, 0, 68, 54
4, 22800, Note_on_c, 0, 68, 0
4, 22800, Note_on_c, 0, 63, 0
4, 22800, Note_on_c, 0, 60, 0
4, 22800, Note_on_c, 0, 58, 54
4, 22800, Note_on_c, 0, 61, 54
4, 22800, Note_on_c, 0, 66, 54
4, 23040, Note_on_c, 0, 66, 0
4, 23040, Note_on_c, 0, 61, 0
4, 23040, Note_on_c, 0, 58, 0
4, 23040, Note_on_c, 0, 56, 54
4, 23040, Note_on_c, 0, 61, 54
4, 23040, Note_on_c, 0, 65, 54
4, 23760, Note_on_c, 0, 65, 0
4, 23760, Note_on_c, 0, 61, 0
4, 23760, Note_on_c, 0, 56, 0
4, 23760, Note_on_c, 0, 56, 54
4, 24000, Note_on_c, 0, 56, 0
4, 24000, Note_on_c, 0, 58, 54
4, 24240, Note_on_c, 0, 58, 0
4, 24240, Note_on_c, 0, 60, 54
4, 24480, Note_on_c, 0, 60, 0
4, 24480, Note_on_c, 0, 61, 54
4, 24960, Note_on_c, 0, 61, 0
4, 24960, Note_on_c, 0, 61, 54
4, 25200, Note_on_c, 0, 61, 0
4, 25200, Note_on_c, 0, 63, 54
4, 25200, Note_on_c, 0, 66, 54
4, 25440, Note_on_c, 0, 66, 0
4, 25440, Note_on_c, 0, 63, 0
4, 25440, Note_on_c, 0, 65, 54
4, 25680, Note_on_c, 0, 65, 0
4, 25680, Note_on_c, 0, 63, 54
4, 25680, Note_on_c, 0, 66, 54
4, 25920, Note_on_c, 0, 66, 0
4, 25920, Note_on_c, 0, 63, 0
4, 25920, Note_on_c, 0, 68, 54
4, 26160, Note_on_c, 0, 68, 0
4, 26160, Note_on_c, 0, 66, 54
4, 26400, Note_on_c, 0, 66, 0
4, 26400, Note_on_c, 0, 65, 54
4, 26400, Note_on_c, 0, 68, 54
4, 26640, Note_on_c, 0, 68, 0
4, 26640, Note_on_c, 0, 65, 0
4, 26640, Note_on_c, 0, 58, 54
4, 26640, Note_on_c, 0, 64, 54
4, 26640, Note_on_c, 0, 70, 54
4, 27360, Note_on_c, 0, 70, 0
4, 27360, Note_on_c, 0, 64, 0
4, 27360, Note_on_c, 0, 58, 0
4, 27360, Note_on_c, 0, 60, 54
4, 27360, Note_on_c, 0, 65, 54
4, 27360, Note_on_c, 0, 69, 54
4, 28080, Note_on_c, 0, 69, 0
4, 28080, Note_on_c, 0, 65, 0
4, 28080, Note_on_c, 0, 60, 0
4, 28560, Note_on_c, 0, 69, 54
4, 28560, Note_on_c, 0, 77, 54
4, 28800, Note_on_c, 0, 77, 0
4, 28800, Note_on_c, 0, 69, 0
4, 28800, Note_on_c, 0, 70, 54
4, 28800, Note_on_c, 0, 74, 54
4, 29280, Note_on_c, 0, 74, 0
4, 29280, Note_on_c, 0, 70, 0
4, 29280, Note_on_c, 0, 68, 54
4, 29280, Note_on_c, 0, 76, 54
4, 29520, Note_on_c, 0, 76, 0
4, 29520, Note_on_c, 0, 68, 0
4, 29520, Note_on_c, 0, 69, 54
4, 29520, Note_on_c, 0, 72, 54
4, 30000, Note_on_c, 0, 72, 0
4, 30000, Note_on_c, 0, 69, 0
4, 30000, Note_on_c, 0, 62, 54
4, 30000, Note_on_c, 0, 65, 54
4, 30240, Note_on_c, 0, 65, 0
4, 30240, Note_on_c, 0, 62, 0
4, 30240, Note_on_c, 0, 61, 54
4, 30240, Note_on_c, 0, 64, 54
4, 30240, Note_on_c, 0, 70, 54
4, 30480, Note_on_c, 0, 70, 0
4, 30480, Note_on_c, 0, 64, 0
4, 30480, Note_on_c, 0, 61, 0
4, 30720, Note_on_c, 0, 61, 54
4, 30720, Note_on_c, 0, 64, 54
4, 30720, Note_on_c, 0, 70, 54
4, 30960, Note_on_c, 0, 70, 0
4, 30960, Note_on_c, 0, 64, 0
4, 30960, Note_on_c, 0, 61, 0
4, 31200, Note_on_c, 0, 56, 54
4, 31200, Note_on_c, 0, 61, 54
4, 31440, Note_on_c, 0, 61, 0
4, 31440, Note_on_c, 0, 56, 0
4, 31440, Note_on_c, 0, 57, 54
4, 31440, Note_on_c, 0, 60, 54
4, 31680, Note_on_c, 0, 60, 0
4, 31680, Note_on_c, 0, 57, 0
4, 34320, Note_on_c, 0, 79, 54
4, 34320, Note_on_c, 0, 81, 54
4, 34560, Note_on_c, 0, 81, 0
4, 34560, Note_on_c, 0, 79, 0
4, 34560, Note_on_c, 0, 78, 54
4, 34560, Note_on_c, 0, 81, 54
4, 34560, Note_on_c, 0, 83, 54
4, 34680, Note_on_c, 0, 83, 0
4, 34680, Note_on_c, 0, 81, 0
4, 34680, Note_on_c, 0, 78, 0
4, 34680, Note_on_c, 0, 76, 54
4, 34680, Note_on_c, 0, 79, 54
4, 34680, Note_on_c, 0, 85, 54
4, 34800, Note_on_c, 0, 85, 0
4, 34800, Note_on_c, 0, 79, 0
4, 34800, Note_on_c, 0, 76, 0
4, 34800, Note_on_c, 0, 74, 54
4, 34800, Note_on_c, 0, 78, 54
4, 34800, Note_on_c, 0, 86, 54
4, 34920, Note_on_c, 0, 86, 0
4, 34920, Note_on_c, 0, 78, 0
4, 34920, Note_on_c, 0, 74, 0
4, 34920, Note_on_c, 0, 76, 54
4, 34920, Note_on_c, 0, 79, 54
4, 34920, Note_on_c, 0, 85, 54
4, 35040, Note_on_c, 0, 85, 0
4, 35040, Note_on_c, 0, 79, 0
4, 35040, Note_on_c, 0, 76, 0
4, 35040, Note_on_c, 0, 78, 54
4, 35040, Note_on_c, 0, 81, 54
4, 35040, Note_on_c, 0, 86, 54
4, 35160, Note_on_c, 0, 86, 0
4, 35160, Note_on_c, 0, 81, 0
4, 35160, Note_on_c, 0, 78, 0
4, 35160, Note_on_c, 0, 74, 54
4, 35160, Note_on_c, 0, 78, 54
4, 35160, Note_on_c, 0, 83, 54
4, 35280, Note_on_c, 0, 83, 0
4, 35280, Note_on_c, 0, 78, 0
4, 35280, Note_on_c, 0, 74, 0
4, 35280, Note_on_c, 0, 73, 54
4, 35280, Note_on_c, 0, 79, 54
4, 35280, Note_on_c, 0, 81, 54
4, 35400, Note_on_c, 0, 73, 0
4, 35400, Note_on_c, 0, 74, 54
4, 35520, Note_on_c, 0, 74, 0
4, 35520, Note_on_c, 0, 71, 54
4, 35640, Note_on_c, 0, 71, 0
4, 35640, Note_on_c, 0, 74, 54
4, 35760, Note_on_c, 0, 74, 0
4, 35760, Note_on_c, 0, 72, 54
4, 35880, Note_on_c, 0, 72, 0
4, 35880, Note_on_c, 0, 73, 54
4, 36000, Note_on_c, 0, 73, 0
4, 36000, Note_on_c, 0, 81, 0
4, 36000, Note_on_c, 0, 79, 0
4, 36000, Note_on_c, 0, 74, 54
4, 36000, Note_on_c, 0, 78, 54
4, 36000, Note_on_c, 0, 83, 54
4, 36120, Note_on_c, 0, 83, 0
4, 36120, Note_on_c, 0, 78, 0
4, 36120, Note_on_c, 0, 74, 0
4, 36120, Note_on_c, 0, 76, 54
4, 36120, Note_on_c, 0, 79, 54
4, 36120, Note_on_c, 0, 85, 54
4, 36240, Note_on_c, 0, 85, 0
4, 36240, Note_on_c, 0, 79, 0
4, 36240, Note_on_c, 0, 76, 0
4, 36240, Note_on_c, 0, 78, 54
4, 36240, Note_on_c, 0, 81, 54
4, 36240, Note_on_c, 0, 86, 54
4, 36360, Note_on_c, 0, 86, 0
4, 36360, Note_on_c, 0, 81, 0
4, 36360, Note_on_c, 0, 78, 0
4, 36360, Note_on_c, 0, 76, 54
4, 36360, Note_on_c, 0, 79, 54
4, 36360, Note_on_c, 0, 85, 54
4, 36480, Note_on_c, 0, 85, 0
4, 36480, Note_on_c, 0, 79, 0
4, 36480, Note_on_c, 0, 76, 0
4, 36480, Note_on_c, 0, 78, 54
4, 36480, Note_on_c, 0, 81, 54
4, 36480, Note_on_c, 0, 86, 54
4, 36600, Note_on_c, 0, 86, 0
4, 36600, Note_on_c, 0, 81, 0
4, 36600, Note_on_c, 0, 78, 0
4, 36600, Note_on_c, 0, 74, 54
4, 36600, Note_on_c, 0, 78, 54
4, 36600, Note_on_c, 0, 83, 54
4, 36720, Note_on_c, 0, 83, 0
4, 36720, Note_on_c, 0, 78, 0
4, 36720, Note_on_c, 0, 74, 0
4, 36720, Note_on_c, 0, 73, 54
4, 36720, Note_on_c, 0, 79, 54
4, 36720, Note_on_c, 0, 81, 54
4, 36840, Note_on_c, 0, 73, 0
4, 36840, Note_on_c, 0, 74, 54
4, 36960, Note_on_c, 0, 74, 0
4, 36960, Note_on_c, 0, 71, 54
4, 37080, Note_on_c, 0, 71, 0
4, 37080, Note_on_c, 0, 74, 54
4, 37200, Note_on_c, 0, 74, 0
4, 37200, Note_on_c, 0, 72, 54
4, 37320, Note_on_c, 0, 72, 0
4, 37320, Note_on_c, 0, 73, 54
4, 37440, Note_on_c, 0, 73, 0
4, 37440, Note_on_c, 0, 81, 0
4, 37440, Note_on_c, 0, 79, 0
4, 37440, Note_on_c, 0, 74, 54
4, 37440, Note_on_c, 0, 78, 54
4, 37560, Note_on_c, 0, 78, 0
4, 37560, Note_on_c, 0, 74, 0
4, 37560, Note_on_c, 0, 73, 54
4, 37560, Note_on_c, 0, 76, 54
4, 37560, Note_on_c, 0, 81, 54
4, 37680, Note_on_c, 0, 81, 0
4, 37680, Note_on_c, 0, 76, 0
4, 37680, Note_on_c, 0, 73, 0
4, 37680, Note_on_c, 0, 71, 54
4, 37680, Note_on_c, 0, 74, 54
4, 37680, Note_on_c, 0, 83, 54
4, 37800, Note_on_c, 0, 74, 0
4, 37800, Note_on_c, 0, 71, 0
4, 37800, Note_on_c, 0, 69, 54
4, 37800, Note_on_c, 0, 73, 54
4, 37920, Note_on_c, 0, 73, 0
4, 37920, Note_on_c, 0, 69, 0
4, 37920, Note_on_c, 0, 83, 0
4, 37920, Note_on_c, 0, 67, 54
4, 37920, Note_on_c, 0, 71, 54
4, 37920, Note_on_c, 0, 74, 54
4, 38040, Note_on_c, 0, 71, 0
4, 38040, Note_on_c, 0, 67, 0
4, 38040, Note_on_c, 0, 66, 54
4, 38040, Note_on_c, 0, 69, 54
4, 38160, Note_on_c, 0, 69, 0
4, 38160, Note_on_c, 0, 66, 0
4, 38160, Note_on_c, 0, 74, 0
4, 38160, Note_on_c, 0, 73, 54
4, 38160, Note_on_c, 0, 76, 54
4, 38280, Note_on_c, 0, 76, 0
4, 38280, Note_on_c, 0, 73, 0
4, 38280, Note_on_c, 0, 71, 54
4, 38280, Note_on_c, 0, 74, 54
4, 38280, Note_on_c, 0, 79, 54
4, 38400, Note_on_c, 0, 79, 0
4, 38400, Note_on_c, 0, 74, 0
4, 38400, Note_on_c, 0, 71, 0
4, 38400, Note_on_c, 0, 69, 54
4, 38400, Note_on_c, 0, 73, 54
4, 38400, Note_on_c, 0, 81, 54
4, 38520, Note_on_c, 0, 73, 0
4, 38520, Note_on_c, 0, 69, 0
4, 38520, Note_on_c, 0, 67, 54
4, 38520, Note_on_c, 0, 71, 54
4, 38640, Note_on_c, 0, 71, 0
4, 38640, Note_on_c, 0, 67, 0
4, 38640, Note_on_c, 0, 81, 0
4, 38640, Note_on_c, 0, 66, 54
4, 38640, Note_on_c, 0, 69, 54
4, 38640, Note_on_c, 0, 73, 54
4, 38760, Note_on_c, 0, 69, 0
4, 38760, Note_on_c, 0, 66, 0
4, 38760, Note_on_c, 0, 64, 54
4, 38760, Note_on_c, 0, 67, 54
4, 38880, Note_on_c, 0, 67, 0
4, 38880, Note_on_c, 0, 64, 0
4, 38880, Note_on_c, 0, 73, 0
4, 38880, Note_on_c, 0, 62, 54
4, 38880, Note_on_c, 0, 66, 54
4, 38880, Note_on_c, 0, 71, 54
4, 39000, Note_on_c, 0, 71, 0
4, 39000, Note_on_c, 0, 66, 0
4, 39000, Note_on_c, 0, 62, 0
4, 39000, Note_on_c, 0, 61, 54
4, 39000, Note_on_c, 0, 64, 54
4, 39000, Note_on_c, 0, 73, 54
4, 39120, Note_on_c, 0, 73, 0
4, 39120, Note_on_c, 0, 64, 0
4, 39120, Note_on_c, 0, 61, 0
4, 39120, Note_on_c, 0, 59, 54
4, 39120, Note_on_c, 0, 62, 54
4, 39120, Note_on_c, 0, 74, 54
4, 39240, Note_on_c, 0, 74, 0
4, 39240, Note_on_c, 0, 62, 0
4, 39240, Note_on_c, 0, 59, 0
4, 39240, Note_on_c, 0, 57, 54
4, 39240, Note_on_c, 0, 61, 54
4, 39240, Note_on_c, 0, 66, 54
4, 39360, Note_on_c, 0, 66, 0
4, 39360, Note_on_c, 0, 61, 0
4, 39360, Note_on_c, 0, 57, 0
4, 39360, Note_on_c, 0, 57, 54
4, 39360, Note_on_c, 0, 61, 54
4, 39360, Note_on_c, 0, 66, 54
4, 39480, Note_on_c, 0, 66, 0
4, 39480, Note_on_c, 0, 61, 0
4, 39480, Note_on_c, 0, 57, 0
4, 39480, Note_on_c, 0, 55, 54
4, 39480, Note_on_c, 0, 59, 54
4, 39480, Note_on_c, 0, 64, 54
4, 39600, Note_on_c, 0, 64, 0
4, 39600, Note_on_c, 0, 59, 0
4, 39600, Note_on_c, 0, 55, 0
4, 39600, Note_on_c, 0, 55, 54
4, 39600, Note_on_c, 0, 59, 54
4, 39600, Note_on_c, 0, 64, 54
4, 39720, Note_on_c, 0, 64, 0
4, 39720, Note_on_c, 0, 59, 0
4, 39720, Note_on_c, 0, 55, 0
4, 39720, Note_on_c, 0, 64, 54
4, 39720, Note_on_c, 0, 67, 54
4, 39720, Note_on_c, 0, 71, 54
4, 39840, Note_on_c, 0, 71, 0
4, 39840, Note_on_c, 0, 67, 0
4, 39840, Note_on_c, 0, 64, 0
4, 39840, Note_on_c, 0, 64, 54
4, 39840, Note_on_c, 0, 67, 54
4, 39840, Note_on_c, 0, 71, 54
4, 39960, Note_on_c, 0, 71, 0
4, 39960, Note_on_c, 0, 67, 0
4, 39960, Note_on_c, 0, 64, 0
4, 39960, Note_on_c, 0, 62, 54
4, 39960, Note_on_c, 0, 64, 54
4, 40080, Note_on_c, 0, 64, 0
4, 40080, Note_on_c, 0, 62, 0
4, 40080, Note_on_c, 0, 59, 54
4, 40080, Note_on_c, 0, 67, 54
4, 40200, Note_on_c, 0, 67, 0
4, 40200, Note_on_c, 0, 59, 0
4, 40200, Note_on_c, 0, 59, 54
4, 40200, Note_on_c, 0, 61, 54
4, 40320, Note_on_c, 0, 61, 0
4, 40320, Note_on_c, 0, 59, 0
4, 40320, Note_on_c, 0, 57, 54
4, 40320, Note_on_c, 0, 62, 54
4, 40560, Note_on_c, 0, 62, 0
4, 40560, Note_on_c, 0, 57, 0
4, 46080, Note_on_c, 0, 69, 80
4, 46800, Note_on_c, 0, 69, 0
4, 46800, Note_on_c, 0, 64, 80
4, 47280, Note_on_c, 0, 64, 0
4, 47280, Note_on_c, 0, 71, 80
4, 47520, Note_on_c, 0, 71, 0
4, 47520, Note_on_c, 0, 69, 80
4, 47520, Note_on_c, 0, 81, 80
4, 47760, Note_on_c, 0, 69, 0
4, 48240, Note_on_c, 0, 81, 0
4, 48240, Note_on_c, 0, 76, 80
4, 48720, Note_on_c, 0, 76, 0
4, 48720, Note_on_c, 0, 83, 80
4, 48960, Note_on_c, 0, 83, 0
4, 48960, Note_on_c, 0, 69, 80
4, 48960, Note_on_c, 0, 81, 80
4, 49200, Note_on_c, 0, 81, 0
4, 49680, Note_on_c, 0, 69, 0
4, 49680, Note_on_c, 0, 64, 80
4, 50160, Note_on_c, 0, 64, 0
4, 50160, Note_on_c, 0, 71, 80
4, 50400, Note_on_c, 0, 71, 0
4, 50400, Note_on_c, 0, 57, 80
4, 50400, Note_on_c, 0, 69, 80
4, 50640, Note_on_c, 0, 69, 0
4, 51120, Note_on_c, 0, 57, 0
4, 51120, Note_on_c, 0, 52, 80
4, 51600, Note_on_c, 0, 52, 0
4, 51600, Note_on_c, 0, 59, 80
4, 51840, Note_on_c, 0, 59, 0
4, 51840, Note_on_c, 0, 57, 80
4, 52080, Note_on_c, 0, 57, 0
4, 59040, Note_on_c, 0, 68, 80
4, 59760, Note_on_c, 0, 68, 0
4, 59760, Note_on_c, 0, 63, 80
4, 60240, Note_on_c, 0, 63, 0
4, 60240, Note_on_c, 0, 70, 80
4, 60480, Note_on_c, 0, 70, 0
4, 60480, Note_on_c, 0, 68, 80
4, 61920, Note_on_c, 0, 68, 0
4, 61920, Note_on_c, 0, 61, 80
4, 62160, Note_on_c, 0, 61, 0
4, 62160, Note_on_c, 0, 60, 80
4, 62400, Note_on_c, 0, 60, 0
4, 62400, Note_on_c, 0, 58, 80
4, 62640, Note_on_c, 0, 58, 0
4, 62640, Note_on_c, 0, 63, 80
4, 63120, Note_on_c, 0, 63, 0
4, 63120, Note_on_c, 0, 63, 80
4, 63360, Note_on_c, 0, 63, 0
4, 63360, Note_on_c, 0, 56, 80
4, 64800, Note_on_c, 0, 56, 0
4, 64800, Control_c, 0, 64, 127
4, 64800, Note_on_c, 0, 56, 80
4, 65040, Note_on_c, 0, 56, 0
4, 65040, Note_on_c, 0, 58, 80
4, 65280, Note_on_c, 0, 58, 0
4, 65280, Note_on_c, 0, 61, 80
4, 65520, Note_on_c, 0, 61, 0
4, 65520, Note_on_c, 0, 63, 80
4, 66000, Note_on_c, 0, 63, 0
4, 66000, Control_c, 0, 64, 0
4, 66000, Note_on_c, 0, 63, 93
4, 66240, Note_on_c, 0, 63, 0
4, 66240, Control_c, 0, 64, 127
4, 66240, Note_on_c, 0, 61, 93
4, 66480, Note_on_c, 0, 61, 0
4, 66480, Note_on_c, 0, 63, 93
4, 66720, Note_on_c, 0, 63, 0
4, 66720, Note_on_c, 0, 65, 93
4, 66960, Note_on_c, 0, 65, 0
4, 66960, Note_on_c, 0, 66, 93
4, 67440, Note_on_c, 0, 66, 0
4, 67440, Control_c, 0, 64, 0
4, 67440, Note_on_c, 0, 66, 93
4, 67680, Note_on_c, 0, 66, 0
4, 67680, Control_c, 0, 64, 127
4, 67680, Note_on_c, 0, 61, 93
4, 67680, Note_on_c, 0, 65, 93
4, 67920, Note_on_c, 0, 65, 0
4, 67920, Note_on_c, 0, 61, 0
4, 67920, Note_on_c, 0, 66, 93
4, 68160, Note_on_c, 0, 66, 0
4, 68160, Note_on_c, 0, 68, 93
4, 68400, Note_on_c, 0, 68, 0
4, 68400, Note_on_c, 0, 69, 93
4, 68880, Note_on_c, 0, 69, 0
4, 68880, Control_c, 0, 64, 0
4, 68880, Note_on_c, 0, 69, 93
4, 69120, Note_on_c, 0, 69, 0
4, 69120, Note_on_c, 0, 57, 93
4, 69840, Note_on_c, 0, 57, 0
4, 69840, Note_on_c, 0, 56, 80
4, 70560, Note_on_c, 0, 56, 0
4, 70560, Note_on_c, 0, 80, 80
4, 71280, Note_on_c, 0, 80, 0
4, 71280, Note_on_c, 0, 75, 80
4, 71760, Note_on_c, 0, 75, 0
4, 71760, Note_on_c, 0, 82, 80
4, 72000, Note_on_c, 0, 82, 0
4, 72000, Note_on_c, 0, 80, 80
4, 73440, Note_on_c, 0, 80, 0
4, 73440, Note_on_c, 0, 73, 80
4, 73680, Note_on_c, 0, 73, 0
4, 73680, Note_on_c, 0, 72, 80
4, 73920, Note_on_c, 0, 72, 0
4, 73920, Note_on_c, 0, 70, 80
4, 74160, Note_on_c, 0, 70, 0
4, 74160, Note_on_c, 0, 75, 80
4, 74640, Note_on_c, 0, 75, 0
4, 74640, Note_on_c, 0, 75, 80
4, 74880, Note_on_c, 0, 75, 0
4, 74880, Note_on_c, 0, 68, 80
4, 76320, Note_on_c, 0, 68, 0
4, 76320, Note_on_c, 0, 68, 93
4, 76560, Note_on_c, 0, 68, 0
4, 76560, Note_on_c, 0, 70, 93
4, 76800, Note_on_c, 0, 70, 0
4, 76800, Note_on_c, 0, 73, 93
4, 77040, Note_on_c, 0, 73, 0
4, 77040, Note_on_c, 0, 75, 93
4, 77520, Note_on_c, 0, 75, 0
4, 77520, Note_on_c, 0, 75, 93
4, 77760, Note_on_c, 0, 75, 0
4, 77760, Note_on_c, 0, 73, 93
4, 78000, Note_on_c, 0, 73, 0
4, 78000, Note_on_c, 0, 75, 93
4, 78240, Note_on_c, 0, 75, 0
4, 78240, Note_on_c, 0, 77, 93
4, 78480, Note_on_c, 0, 77, 0
4, 78480, Note_on_c, 0, 63, 93
4, 78480, Note_on_c, 0, 78, 93
4, 78720, Note_on_c, 0, 63, 0
4, 78720, Note_on_c, 0, 65, 93
4, 78960, Note_on_c, 0, 65, 0
4, 78960, Note_on_c, 0, 78, 0
4, 78960, Note_on_c, 0, 66, 93
4, 78960, Note_on_c, 0, 78, 93
4, 79200, Note_on_c, 0, 78, 0
4, 79200, Note_on_c, 0, 66, 0
4, 79200, Note_on_c, 0, 68, 93
4, 79200, Note_on_c, 0, 73, 93
4, 79200, Note_on_c, 0, 77, 93
4, 79440, Note_on_c, 0, 77, 0
4, 79440, Note_on_c, 0, 73, 0
4, 79440, Note_on_c, 0, 68, 0
4, 79440, Note_on_c, 0, 68, 93
4, 79440, Note_on_c, 0, 73, 93
4, 79440, Note_on_c, 0, 78, 93
4, 79680, Note_on_c, 0, 78, 0
4, 79680, Note_on_c, 0, 73, 0
4, 79680, Note_on_c, 0, 68, 0
4, 79680, Note_on_c, 0, 80, 93
4, 79920, Note_on_c, 0, 80, 0
4, 79920, Note_on_c, 0, 70, 93
4, 79920, Note_on_c, 0, 76, 93
4, 79920, Note_on_c, 0, 82, 93
4, 80160, Note_on_c, 0, 82, 0
4, 80160, Note_on_c, 0, 76, 0
4, 80160, Note_on_c, 0, 70, 0
4, 80160, Note_on_c, 0, 73, 93
4, 80160, Note_on_c, 0, 76, 93
4, 80160, Note_on_c, 0, 85, 93
4, 80400, Note_on_c, 0, 85, 0
4, 80400, Note_on_c, 0, 73, 0
4, 80400, Note_on_c, 0, 72, 93
4, 80400, Note_on_c, 0, 84, 93
4, 80640, Note_on_c, 0, 84, 0
4, 80640, Note_on_c, 0, 72, 0
4, 80640, Note_on_c, 0, 76, 0
4, 80640, Note_on_c, 0, 72, 93
4, 80640, Note_on_c, 0, 77, 93
4, 80640, Note_on_c, 0, 84, 93
4, 82080, Note_on_c, 0, 84, 0
4, 82080, Note_on_c, 0, 77, 0
4, 82080, Note_on_c, 0, 72, 0
4, 82080, Note_on_c, 0, 65, 67
4, 82080, Note_on_c, 0, 69, 67
4, 82080, Note_on_c, 0, 72, 67
4, 82080, Note_on_c, 0, 77, 67
4, 82320, Note_on_c, 0, 77, 0
4, 82320, Note_on_c, 0, 65, 0
4, 82320, Note_on_c, 0, 69, 0
4, 82320, Note_on_c, 0, 72, 0
4, 98160, Control_c, 0, 64, 127
4, 98160, Note_on_c, 0, 71, 80
4, 98160, Note_on_c, 0, 74, 80
4, 98160, Note_on_c, 0, 77, 80
4, 98160, Note_on_c, 0, 83, 80
4, 98207, Note_on_c, 0, 83, 0
4, 98207, Note_on_c, 0, 71, 0
4, 98207, Note_on_c, 0, 74, 0
4, 98207, Note_on_c, 0, 77, 0
4, 98640, Control_c, 0, 64, 0
4, 101040, Note_on_c, 0, 71, 80
4, 101040, Note_on_c, 0, 74, 80
4, 101040, Note_on_c, 0, 77, 80
4, 101040, Note_on_c, 0, 83, 80
4, 101087, Note_on_c, 0, 83, 0
4, 101087, Note_on_c, 0, 71, 0
4, 101087, Note_on_c, 0, 74, 0
4, 101087, Note_on_c, 0, 77, 0
4, 103920, Control_c, 0, 64, 127
4, 103920, Note_on_c, 0, 59, 80
4, 103920, Note_on_c, 0, 62, 80
4, 103920, Note_on_c, 0, 65, 80
4, 103920, Note_on_c, 0, 71, 80
4, 103967, Note_on_c, 0, 71, 0
4, 103967, Note_on_c, 0, 59, 0
4, 103967, Note_on_c, 0, 62, 0
4, 103967, Note_on_c, 0, 65, 0
4, 104400, Control_c, 0, 64, 0
4, 106800, Control_c, 0, 64, 127
4, 106800, Note_on_c, 0, 59, 80
4, 106800, Note_on_c, 0, 62, 80
4, 106800, Note_on_c, 0, 65, 80
4, 106800, Note_on_c, 0, 71, 80
4, 106847, Note_on_c, 0, 71, 0
4, 106847, Note_on_c, 0, 59, 0
4, 106847, Note_on_c, 0, 62, 0
4, 106847, Note_on_c, 0, 65, 0
4, 107280, Control_c, 0, 64, 0
4, 115200, Note_on_c, 0, 66, 67
4, 115200, Note_on_c, 0, 78, 67
4, 115440, Note_on_c, 0, 78, 0
4, 115440, Note_on_c, 0, 66, 0
4, 115440, Note_on_c, 0, 64, 67
4, 115440, Note_on_c, 0, 76, 67
4, 115920, Note_on_c, 0, 76, 0
4, 115920, Note_on_c, 0, 64, 0
4, 115920, Note_on_c, 0, 62, 67
4, 115920, Note_on_c, 0, 74, 67
4, 116160, Note_on_c, 0, 74, 0
4, 116160, Note_on_c, 0, 62, 0
4, 116160, Note_on_c, 0, 61, 67
4, 116160, Note_on_c, 0, 73, 67
4, 116400, Note_on_c, 0, 73, 0
4, 116400, Note_on_c, 0, 61, 0
4, 116400, Note_on_c, 0, 62, 67
4, 116400, Note_on_c, 0, 74, 67
4, 116640, Note_on_c, 0, 74, 0
4, 116640, Note_on_c, 0, 62, 0
4, 116640, Note_on_c, 0, 59, 67
4, 116640, Note_on_c, 0, 71, 67
4, 116880, Note_on_c, 0, 71, 0
4, 116880, Note_on_c, 0, 59, 0
4, 116880, Note_on_c, 0, 59, 67
4, 116880, Note_on_c, 0, 71, 67
4, 117360, Note_on_c, 0, 71, 0
4, 117360, Note_on_c, 0, 59, 0
4, 117360, Note_on_c, 0, 52, 67
4, 117360, Note_on_c, 0, 64, 67
4, 117600, Note_on_c, 0, 64, 0
4, 117600, Note_on_c, 0, 52, 0
4, 117600, Note_on_c, 0, 61, 67
4, 117600, Note_on_c, 0, 73, 67
4, 118080, Note_on_c, 0, 73, 0
4, 118080, Note_on_c, 0, 61, 0
4, 118080, Note_on_c, 0, 59, 67
4, 118080, Note_on_c, 0, 71, 67
4, 118320, Note_on_c, 0, 71, 0
4, 118320, Note_on_c, 0, 59, 0
4, 118320, Note_on_c, 0, 59, 67
4, 118320, Note_on_c, 0, 71, 67
4, 118800, Note_on_c, 0, 71, 0
4, 118800, Note_on_c, 0, 59, 0
4, 118800, Note_on_c, 0, 52, 67
4, 118800, Note_on_c, 0, 64, 67
4, 119040, Note_on_c, 0, 64, 0
4, 119040, Note_on_c, 0, 52, 0
4, 119040, Note_on_c, 0, 61, 67
4, 119040, Note_on_c, 0, 73, 67
4, 119520, Note_on_c, 0, 73, 0
4, 119520, Note_on_c, 0, 61, 0
4, 119520, Note_on_c, 0, 59, 67
4, 119520, Note_on_c, 0, 71, 67
4, 119760, Note_on_c, 0, 71, 0
4, 119760, Note_on_c, 0, 59, 0
4, 119760, Note_on_c, 0, 59, 67
4, 119760, Note_on_c, 0, 71, 67
4, 120240, Note_on_c, 0, 71, 0
4, 120240, Note_on_c, 0, 59, 0
4, 120240, Note_on_c, 0, 54, 67
4, 120240, Note_on_c, 0, 66, 67
4, 120480, Note_on_c, 0, 66, 0
4, 120480, Note_on_c, 0, 54, 0
4, 120480, Note_on_c, 0, 59, 67
4, 120480, Note_on_c, 0, 71, 67
4, 120720, Note_on_c, 0, 71, 0
4, 120720, Note_on_c, 0, 59, 0
4, 120720, Note_on_c, 0, 57, 67
4, 120720, Note_on_c, 0, 69, 67
4, 120960, Note_on_c, 0, 69, 0
4, 120960, Note_on_c, 0, 57, 0
4, 120960, Note_on_c, 0, 66, 67
4, 120960, Note_on_c, 0, 78, 67
4, 121200, Note_on_c, 0, 78, 0
4, 121200, Note_on_c, 0, 66, 0
4, 121200, Note_on_c, 0, 64, 67
4, 121200, Note_on_c, 0, 76, 67
4, 121680, Note_on_c, 0, 76, 0
4, 121680, Note_on_c, 0, 64, 0
4, 121680, Note_on_c, 0, 62, 67
4, 121680, Note_on_c, 0, 74, 67
4, 121920, Note_on_c, 0, 74, 0
4, 121920, Note_on_c, 0, 62, 0
4, 121920, Note_on_c, 0, 61, 67
4, 121920, Note_on_c, 0, 73, 67
4, 122160, Note_on_c, 0, 73, 0
4, 122160, Note_on_c, 0, 61, 0
4, 122160, Note_on_c, 0, 62, 67
4, 122160, Note_on_c, 0, 74, 67
4, 122400, Note_on_c, 0, 74, 0
4, 122400, Note_on_c, 0, 62, 0
4, 122400, Note_on_c, 0, 59, 67
4, 122400, Note_on_c, 0, 71, 67
4, 122640, Note_on_c, 0, 71, 0
4, 122640, Note_on_c, 0, 59, 0
4, 122640, Note_on_c, 0, 59, 67
4, 122640, Note_on_c, 0, 71, 67
4, 123120, Note_on_c, 0, 71, 0
4, 123120, Note_on_c, 0, 59, 0
4, 123120, Note_on_c, 0, 52, 67
4, 123120, Note_on_c, 0, 64, 67
4, 123360, Note_on_c, 0, 64, 0
4, 123360, Note_on_c, 0, 52, 0
4, 123360, Note_on_c, 0, 61, 67
4, 123360, Note_on_c, 0, 73, 67
4, 123840, Note_on_c, 0, 73, 0
4, 123840, Note_on_c, 0, 61, 0
4, 123840, Note_on_c, 0, 59, 67
4, 123840, Note_on_c, 0, 71, 67
4, 124080, Note_on_c, 0, 71, 0
4, 124080, Note_on_c, 0, 59, 0
4, 124080, Note_on_c, 0, 59, 67
4, 124080, Note_on_c, 0, 71, 67
4, 124560, Note_on_c, 0, 71, 0
4, 124560, Note_on_c, 0, 59, 0
4, 124560, Note_on_c, 0, 52, 67
4, 124560, Note_on_c, 0, 64, 67
4, 124800, Note_on_c, 0, 64, 0
4, 124800, Note_on_c, 0, 52, 0
4, 124800, Note_on_c, 0, 61, 67
4, 124800, Note_on_c, 0, 73, 67
4, 125280, Note_on_c, 0, 73, 0
4, 125280, Note_on_c, 0, 61, 0
4, 125280, Note_on_c, 0, 59, 67
4, 125280, Note_on_c, 0, 71, 67
4, 125520, Note_on_c, 0, 71, 0
4, 125520, Note_on_c, 0, 59, 0
4, 125520, Note_on_c, 0, 59, 67
4, 125520, Note_on_c, 0, 71, 67
4, 126000, Note_on_c, 0, 71, 0
4, 126000, Note_on_c, 0, 59, 0
4, 126000, Note_on_c, 0, 54, 67
4, 126000, Note_on_c, 0, 66, 67
4, 126240, Note_on_c, 0, 66, 0
4, 126240, Note_on_c, 0, 54, 0
4, 126240, Note_on_c, 0, 59, 67
4, 126240, Note_on_c, 0, 71, 67
4, 126480, Note_on_c, 0, 71, 0
4, 126480, Note_on_c, 0, 59, 0
4, 126480, Note_on_c, 0, 57, 67
4, 126480, Note_on_c, 0, 69, 67
4, 126720, Note_on_c, 0, 69, 0
4, 126720, Note_on_c, 0, 57, 0
4, 126720, Note_on_c, 0, 66, 67
4, 126720, Note_on_c, 0, 78, 67
4, 126960, Note_on_c, 0, 78, 0
4, 126960, Note_on_c, 0, 66, 0
4, 126960, Note_on_c, 0, 64, 67
4, 126960, Note_on_c, 0, 76, 67
4, 127440, Note_on_c, 0, 76, 0
4, 127440, Note_on_c, 0, 64, 0
4, 127440, Note_on_c, 0, 62, 67
4, 127440, Note_on_c, 0, 74, 67
4, 127680, Note_on_c, 0, 74, 0
4, 127680, Note_on_c, 0, 62, 0
4, 127680, Note_on_c, 0, 61, 67
4, 127680, Note_on_c, 0, 73, 67
4, 128160, Note_on_c, 0, 73, 0
4, 128160, Note_on_c, 0, 61, 0
4, 128160, Note_on_c, 0, 59, 67
4, 128160, Note_on_c, 0, 71, 67
4, 128160, Note_on_c, 0, 79, 67
4, 128160, Note_on_c, 0, 91, 67
4, 128400, Note_on_c, 0, 91, 0
4, 128400, Note_on_c, 0, 59, 0
4, 128400, Note_on_c, 0, 71, 0
4, 128400, Note_on_c, 0, 79, 0
4, 128400, Note_on_c, 0, 59, 67
4, 128400, Note_on_c, 0, 71, 67
4, 128400, Note_on_c, 0, 78, 67
4, 128400, Note_on_c, 0, 90, 67
4, 128640, Note_on_c, 0, 71, 0
4, 128640, Note_on_c, 0, 59, 0
4, 128640, Note_on_c, 0, 57, 67
4, 128640, Note_on_c, 0, 69, 67
4, 128880, Note_on_c, 0, 69, 0
4, 128880, Note_on_c, 0, 90, 0
4, 128880, Note_on_c, 0, 78, 0
4, 128880, Note_on_c, 0, 57, 0
4, 128880, Note_on_c, 0, 58, 67
4, 128880, Note_on_c, 0, 70, 67
4, 128880, Note_on_c, 0, 76, 67
4, 128880, Note_on_c, 0, 88, 67
4, 129120, Note_on_c, 0, 88, 0
4, 129120, Note_on_c, 0, 58, 0
4, 129120, Note_on_c, 0, 70, 0
4, 129120, Note_on_c, 0, 76, 0
4, 129120, Note_on_c, 0, 54, 67
4, 129120, Note_on_c, 0, 66, 67
4, 129120, Note_on_c, 0, 74, 67
4, 129120, Note_on_c, 0, 86, 67
4, 129360, Note_on_c, 0, 86, 0
4, 129360, Note_on_c, 0, 74, 0
4, 129360, Note_on_c, 0, 68, 67
4, 129360, Note_on_c, 0, 80, 67
4, 129600, Note_on_c, 0, 80, 0
4, 129600, Note_on_c, 0, 68, 0
4, 129600, Note_on_c, 0, 54, 0
4, 129600, Note_on_c, 0, 70, 67
4, 129600, Note_on_c, 0, 78, 67
4, 129600, Note_on_c, 0, 82, 67
4, 129840, Note_on_c, 0, 82, 0
4, 129840, Note_on_c, 0, 66, 0
4, 129840, Note_on_c, 0, 70, 0
4, 129840, Note_on_c, 0, 78, 0
4, 129840, Note_on_c, 0, 64, 67
4, 129840, Note_on_c, 0, 71, 67
4, 129840, Note_on_c, 0, 76, 67
4, 129840, Note_on_c, 0, 83, 67
4, 130080, Note_on_c, 0, 83, 0
4, 130080, Note_on_c, 0, 71, 0
4, 130320, Note_on_c, 0, 76, 0
4, 130320, Note_on_c, 0, 64, 0
4, 130320, Note_on_c, 0, 62, 67
4, 130320, Note_on_c, 0, 74, 67
4, 130560, Note_on_c, 0, 74, 0
4, 130560, Note_on_c, 0, 62, 0
4, 130560, Note_on_c, 0, 61, 67
4, 130560, Note_on_c, 0, 73, 67
4, 131040, Note_on_c, 0, 73, 0
4, 131040, Note_on_c, 0, 61, 0
4, 131040, Note_on_c, 0, 59, 67
4, 131040, Note_on_c, 0, 71, 67
4, 131040, Note_on_c, 0, 79, 67
4, 131040, Note_on_c, 0, 91, 67
4, 131280, Note_on_c, 0, 91, 0
4, 131280, Note_on_c, 0, 59, 0
4, 131280, Note_on_c, 0, 71, 0
4, 131280, Note_on_c, 0, 79, 0
4, 131280, Note_on_c, 0, 59, 67
4, 131280, Note_on_c, 0, 71, 67
4, 131280, Note_on_c, 0, 78, 67
4, 131280, Note_on_c, 0, 90, 67
4, 131520, Note_on_c, 0, 71, 0
4, 131520, Note_on_c, 0, 59, 0
4, 131520, Note_on_c, 0, 57, 67
4, 131520, Note_on_c, 0, 69, 67
4, 131760, Note_on_c, 0, 69, 0
4, 131760, Note_on_c, 0, 90, 0
4, 131760, Note_on_c, 0, 78, 0
4, 131760, Note_on_c, 0, 57, 0
4, 131760, Note_on_c, 0, 58, 67
4, 131760, Note_on_c, 0, 70, 67
4, 131760, Note_on_c, 0, 76, 67
4, 131760, Note_on_c, 0, 88, 67
4, 132000, Note_on_c, 0, 88, 0
4, 132000, Note_on_c, 0, 58, 0
4, 132000, Note_on_c, 0, 70, 0
4, 132000, Note_on_c, 0, 76, 0
4, 132000, Note_on_c, 0, 59, 67
4, 132000, Note_on_c, 0, 71, 67
4, 132000, Note_on_c, 0, 74, 67
4, 132000, Note_on_c, 0, 86, 67
4, 132240, Note_on_c, 0, 86, 0
4, 132240, Note_on_c, 0, 74, 0
4, 132240, Note_on_c, 0, 59, 0
4, 132240, Note_on_c, 0, 57, 67
4, 132240, Note_on_c, 0, 69, 67
4, 132240, Note_on_c, 0, 83, 67
4, 132480, Note_on_c, 0, 83, 0
4, 132480, Note_on_c, 0, 71, 0
4, 132480, Note_on_c, 0, 57, 0
4, 132480, Note_on_c, 0, 69, 0
4, 132480, Note_on_c, 0, 69, 67
4, 132480, Note_on_c, 0, 73, 67
4, 132480, Note_on_c, 0, 81, 67
4, 132480, Note_on_c, 0, 85, 67
4, 132720, Note_on_c, 0, 85, 0
4, 132720, Note_on_c, 0, 69, 0
4, 132720, Note_on_c, 0, 73, 0
4, 132720, Note_on_c, 0, 81, 0
4, 132720, Note_on_c, 0, 67, 67
4, 132720, Note_on_c, 0, 74, 67
4, 132720, Note_on_c, 0, 79, 67
4, 132720, Note_on_c, 0, 86, 67
4, 133200, Note_on_c, 0, 86, 0
4, 133200, Note_on_c, 0, 67, 0
4, 133200, Note_on_c, 0, 74, 0
4, 133200, Note_on_c, 0, 79, 0
4, 133200, Note_on_c, 0, 66, 67
4, 133200, Note_on_c, 0, 78, 67
4, 133440, Note_on_c, 0, 78, 0
4, 133440, Note_on_c, 0, 66, 0
4, 133440, Note_on_c, 0, 64, 67
4, 133440, Note_on_c, 0, 76, 67
4, 133920, Note_on_c, 0, 76, 0
4, 133920, Note_on_c, 0, 64, 0
4, 133920, Note_on_c, 0, 62, 67
4, 133920, Note_on_c, 0, 71, 67
4, 133920, Note_on_c, 0, 74, 67
4, 133920, Note_on_c, 0, 83, 67
4, 134160, Note_on_c, 0, 83, 0
4, 134160, Note_on_c, 0, 62, 0
4, 134160, Note_on_c, 0, 71, 0
4, 134160, Note_on_c, 0, 74, 0
4, 134160, Note_on_c, 0, 62, 67
4, 134160, Note_on_c, 0, 69, 67
4, 134160, Note_on_c, 0, 74, 67
4, 134160, Note_on_c, 0, 81, 67
4, 134400, Note_on_c, 0, 74, 0
4, 134400, Note_on_c, 0, 62, 0
4, 134400, Note_on_c, 0, 60, 67
4, 134400, Note_on_c, 0, 72, 67
4, 134640, Note_on_c, 0, 72, 0
4, 134640, Note_on_c, 0, 81, 0
4, 134640, Note_on_c, 0, 69, 0
4, 134640, Note_on_c, 0, 60, 0
4, 134640, Note_on_c, 0, 61, 67
4, 134640, Note_on_c, 0, 67, 67
4, 134640, Note_on_c, 0, 73, 67
4, 134640, Note_on_c, 0, 79, 67
4, 134880, Note_on_c, 0, 79, 0
4, 134880, Note_on_c, 0, 61, 0
4, 134880, Note_on_c, 0, 67, 0
4, 134880, Note_on_c, 0, 73, 0
4, 134880, Note_on_c, 0, 57, 67
4, 134880, Note_on_c, 0, 66, 67
4, 134880, Note_on_c, 0, 69, 67
4, 134880, Note_on_c, 0, 78, 67
4, 135120, Note_on_c, 0, 78, 0
4, 135120, Note_on_c, 0, 66, 0
4, 135120, Note_on_c, 0, 59, 67
4, 135120, Note_on_c, 0, 71, 67
4, 135360, Note_on_c, 0, 71, 0
4, 135360, Note_on_c, 0, 57, 0
4, 135360, Note_on_c, 0, 69, 0
4, 135360, Note_on_c, 0, 59, 0
4, 135360, Note_on_c, 0, 61, 67
4, 135360, Note_on_c, 0, 69, 67
4, 135360, Note_on_c, 0, 73, 67
4, 135360, Note_on_c, 0, 81, 67
4, 135600, Note_on_c, 0, 81, 0
4, 135600, Note_on_c, 0, 61, 0
4, 135600, Note_on_c, 0, 69, 0
4, 135600, Note_on_c, 0, 73, 0
4, 135600, Note_on_c, 0, 62, 67
4, 135600, Note_on_c, 0, 67, 67
4, 135600, Note_on_c, 0, 74, 67
4, 135600, Note_on_c, 0, 79, 67
4, 136080, Note_on_c, 0, 79, 0
4, 136080, Note_on_c, 0, 62, 0
4, 136080, Note_on_c, 0, 67, 0
4, 136080, Note_on_c, 0, 74, 0
4, 136080, Note_on_c, 0, 66, 67
4, 136080, Note_on_c, 0, 78, 67
4, 136320, Note_on_c, 0, 78, 0
4, 136320, Note_on_c, 0, 66, 0
4, 136320, Note_on_c, 0, 64, 67
4, 136320, Note_on_c, 0, 76, 67
4, 136800, Note_on_c, 0, 76, 0
4, 136800, Note_on_c, 0, 64, 0
4, 136800, Note_on_c, 0, 62, 67
4, 136800, Note_on_c, 0, 71, 67
4, 136800, Note_on_c, 0, 74, 67
4, 136800, Note_on_c, 0, 83, 67
4, 137040, Note_on_c, 0, 83, 0
4, 137040, Note_on_c, 0, 62, 0
4, 137040, Note_on_c, 0, 71, 0
4, 137040, Note_on_c, 0, 74, 0
4, 137040, Note_on_c, 0, 62, 67
4, 137040, Note_on_c, 0, 69, 67
4, 137040, Note_on_c, 0, 74, 67
4, 137040, Note_on_c, 0, 81, 67
4, 137280, Note_on_c, 0, 74, 0
4, 137280, Note_on_c, 0, 62, 0
4, 137280, Note_on_c, 0, 60, 67
4, 137280, Note_on_c, 0, 72, 67
4, 137520, Note_on_c, 0, 72, 0
4, 137520, Note_on_c, 0, 81, 0
4, 137520, Note_on_c, 0, 69, 0
4, 137520, Note_on_c, 0, 60, 0
4, 137520, Note_on_c, 0, 61, 67
4, 137520, Note_on_c, 0, 67, 67
4, 137520, Note_on_c, 0, 73, 67
4, 137520, Note_on_c, 0, 79, 67
4, 137760, Note_on_c, 0, 79, 0
4, 137760, Note_on_c, 0, 61, 0
4, 137760, Note_on_c, 0, 67, 0
4, 137760, Note_on_c, 0, 73, 0
4, 137760, Note_on_c, 0, 57, 67
4, 137760, Note_on_c, 0, 66, 67
4, 137760, Note_on_c, 0, 69, 67
4, 137760, Note_on_c, 0, 78, 67
4, 138000, Note_on_c, 0, 78, 0
4, 138000, Note_on_c, 0, 66, 0
4, 138000, Note_on_c, 0, 59, 67
4, 138000, Note_on_c, 0, 71, 67
4, 138240, Note_on_c, 0, 71, 0
4, 138240, Note_on_c, 0, 57, 0
4, 138240, Note_on_c, 0, 69, 0
4, 138240, Note_on_c, 0, 59, 0
4, 138240, Note_on_c, 0, 61, 67
4, 138240, Note_on_c, 0, 69, 67
4, 138240, Note_on_c, 0, 73, 67
4, 138240, Note_on_c, 0, 81, 67
4, 138480, Note_on_c, 0, 81, 0
4, 138480, Note_on_c, 0, 61, 0
4, 138480, Note_on_c, 0, 69, 0
4, 138480, Note_on_c, 0, 73, 0
4, 138480, Note_on_c, 0, 62, 67
4, 138480, Note_on_c, 0, 67, 67
4, 138480, Note_on_c, 0, 74, 67
4, 138480, Note_on_c, 0, 79, 67
4, 138960, Note_on_c, 0, 79, 0
4, 138960, Note_on_c, 0, 62, 0
4, 138960, Note_on_c, 0, 67, 0
4, 138960, Note_on_c, 0, 74, 0
4, 138960, Note_on_c, 0, 66, 67
4, 138960, Note_on_c, 0, 78, 67
4, 139200, Note_on_c, 0, 78, 0
4, 139200, Note_on_c, 0, 66, 0
4, 139200, Note_on_c, 0, 64, 67
4, 139200, Note_on_c, 0, 76, 67
4, 139440, Note_on_c, 0, 78, 67
4, 139440, Note_on_c, 0, 90, 67
4, 139680, Note_on_c, 0, 90, 0
4, 139680, Note_on_c, 0, 64, 0
4, 139680, Note_on_c, 0, 76, 0
4, 139680, Note_on_c, 0, 78, 0
4, 139680, Note_on_c, 0, 62, 67
4, 139680, Note_on_c, 0, 74, 67
4, 139920, Note_on_c, 0, 74, 0
4, 139920, Note_on_c, 0, 62, 0
4, 139920, Note_on_c, 0, 63, 67
4, 139920, Note_on_c, 0, 75, 67
4, 139920, Note_on_c, 0, 79, 67
4, 139920, Note_on_c, 0, 91, 67
4, 140400, Note_on_c, 0, 91, 0
4, 140400, Note_on_c, 0, 63, 0
4, 140400, Note_on_c, 0, 75, 0
4, 140400, Note_on_c, 0, 79, 0
4, 140400, Note_on_c, 0, 76, 67
4, 140400, Note_on_c, 0, 88, 67
4, 140640, Note_on_c, 0, 88, 0
4, 140640, Note_on_c, 0, 76, 0
4, 140640, Note_on_c, 0, 67, 67
4, 140640, Note_on_c, 0, 75, 67
4, 140640, Note_on_c, 0, 87, 67
4, 140880, Note_on_c, 0, 67, 0
4, 140880, Note_on_c, 0, 66, 67
4, 141120, Note_on_c, 0, 66, 0
4, 141120, Note_on_c, 0, 87, 0
4, 141120, Note_on_c, 0, 75, 0
4, 141120, Note_on_c, 0, 69, 67
4, 141120, Note_on_c, 0, 74, 67
4, 141120, Note_on_c, 0, 81, 67
4, 141120, Note_on_c, 0, 86, 67
4, 141360, Note_on_c, 0, 86, 0
4, 141360, Note_on_c, 0, 69, 0
4, 141360, Note_on_c, 0, 74, 0
4, 141360, Note_on_c, 0, 81, 0
4, 141360, Note_on_c, 0, 69, 67
4, 141360, Note_on_c, 0, 72, 67
4, 141360, Note_on_c, 0, 81, 67
4, 141360, Note_on_c, 0, 84, 67
4, 141840, Note_on_c, 0, 84, 0
4, 141840, Note_on_c, 0, 69, 0
4, 141840, Note_on_c, 0, 72, 0
4, 141840, Note_on_c, 0, 81, 0
4, 141840, Note_on_c, 0, 70, 67
4, 141840, Note_on_c, 0, 82, 67
4, 142080, Note_on_c, 0, 82, 0
4, 142080, Note_on_c, 0, 70, 0
4, 142080, Note_on_c, 0, 69, 67
4, 142080, Note_on_c, 0, 81, 67
4, 142320, Note_on_c, 0, 81, 0
4, 142320, Note_on_c, 0, 69, 0
4, 142320, Note_on_c, 0, 70, 67
4, 142320, Note_on_c, 0, 82, 67
4, 142560, Note_on_c, 0, 82, 0
4, 142560, Note_on_c, 0, 70, 0
4, 142560, Note_on_c, 0, 67, 67
4, 142560, Note_on_c, 0, 79, 67
4, 142800, Note_on_c, 0, 79, 0
4, 142800, Note_on_c, 0, 67, 0
4, 142800, Note_on_c, 0, 67, 67
4, 142800, Note_on_c, 0, 79, 67
4, 143280, Note_on_c, 0, 79, 0
4, 143280, Note_on_c, 0, 67, 0
4, 143280, Note_on_c, 0, 60, 67
4, 143280, Note_on_c, 0, 72, 67
4, 143520, Note_on_c, 0, 72, 0
4, 143520, Note_on_c, 0, 60, 0
4, 143520, Note_on_c, 0, 69, 67
4, 143520, Note_on_c, 0, 81, 67
4, 144000, Note_on_c, 0, 81, 0
4, 144000, Note_on_c, 0, 69, 0
4, 144000, Note_on_c, 0, 67, 67
4, 144000, Note_on_c, 0, 79, 67
4, 144240, Note_on_c, 0, 79, 0
4, 144240, Note_on_c, 0, 67, 0
4, 144240, Note_on_c, 0, 67, 67
4, 144240, Note_on_c, 0, 79, 67
4, 144720, Note_on_c, 0, 79, 0
4, 144720, Note_on_c, 0, 67, 0
4, 144720, Note_on_c, 0, 60, 67
4, 144720, Note_on_c, 0, 72, 67
4, 144960, Note_on_c, 0, 72, 0
4, 144960, Note_on_c, 0, 60, 0
4, 144960, Note_on_c, 0, 69, 67
4, 144960, Note_on_c, 0, 81, 67
4, 145440, Note_on_c, 0, 81, 0
4, 145440, Note_on_c, 0, 69, 0
4, 145440, Note_on_c, 0, 67, 67
4, 145440, Note_on_c, 0, 79, 67
4, 145680, Note_on_c, 0, 79, 0
4, 145680, Note_on_c, 0, 67, 0
4, 145680, Note_on_c, 0, 67, 67
4, 145680, Note_on_c, 0, 79, 67
4, 146160, Note_on_c, 0, 79, 0
4, 146160, Note_on_c, 0, 67, 0
4, 146160, Note_on_c, 0, 62, 67
4, 146160, Note_on_c, 0, 74, 67
4, 146400, Note_on_c, 0, 74, 0
4, 146400, Note_on_c, 0, 62, 0
4, 146400, Note_on_c, 0, 67, 67
4, 146400, Note_on_c, 0, 79, 67
4, 146640, Note_on_c, 0, 79, 0
4, 146640, Note_on_c, 0, 67, 0
4, 146640, Note_on_c, 0, 65, 67
4, 146640, Note_on_c, 0, 77, 67
4, 146880, Note_on_c, 0, 77, 0
4, 146880, Note_on_c, 0, 65, 0
4, 146880, Note_on_c, 0, 74, 67
4, 146880, Note_on_c, 0, 86, 67
4, 147120, Note_on_c, 0, 86, 0
4, 147120, Note_on_c, 0, 74, 0
4, 147120, Note_on_c, 0, 72, 67
4, 147120, Note_on_c, 0, 84, 67
4, 147600, Note_on_c, 0, 84, 0
4, 147600, Note_on_c, 0, 72, 0
4, 147600, Note_on_c, 0, 70, 67
4, 147600, Note_on_c, 0, 82, 67
4, 147840, Note_on_c, 0, 82, 0
4, 147840, Note_on_c, 0, 70, 0
4, 147840, Note_on_c, 0, 69, 67
4, 147840, Note_on_c, 0, 81, 67
4, 148080, Note_on_c, 0, 81, 0
4, 148080, Note_on_c, 0, 69, 0
4, 148080, Note_on_c, 0, 70, 67
4, 148080, Note_on_c, 0, 82, 67
4, 148320, Note_on_c, 0, 82, 0
4, 148320, Note_on_c, 0, 70, 0
4, 148320, Note_on_c, 0, 67, 67
4, 148320, Note_on_c, 0, 79, 67
4, 148560, Note_on_c, 0, 79, 0
4, 148560, Note_on_c, 0, 67, 0
4, 148560, Note_on_c, 0, 67, 67
4, 148560, Note_on_c, 0, 79, 67
4, 149040, Note_on_c, 0, 79, 0
4, 149040, Note_on_c, 0, 67, 0
4, 149040, Note_on_c, 0, 60, 67
4, 149040, Note_on_c, 0, 72, 67
4, 149280, Note_on_c, 0, 72, 0
4, 149280, Note_on_c, 0, 60, 0
4, 149280, Note_on_c, 0, 69, 67
4, 149280, Note_on_c, 0, 81, 67
4, 149760, Note_on_c, 0, 81, 0
4, 149760, Note_on_c, 0, 69, 0
4, 149760, Note_on_c, 0, 67, 67
4, 149760, Note_on_c, 0, 79, 67
4, 150000, Note_on_c, 0, 79, 0
4, 150000, Note_on_c, 0, 67, 0
4, 150000, Note_on_c, 0, 67, 67
4, 150000, Note_on_c, 0, 79, 67
4, 150480, Note_on_c, 0, 79, 0
4, 150480, Note_on_c, 0, 67, 0
4, 150480, Note_on_c, 0, 60, 67
4, 150480, Note_on_c, 0, 72, 67
4, 150720, Note_on_c, 0, 72, 0
4, 150720, Note_on_c, 0, 60, 0
4, 150720, Note_on_c, 0, 69, 67
4, 150720, Note_on_c, 0, 81, 67
4, 151200, Note_on_c, 0, 81, 0
4, 151200, Note_on_c, 0, 69, 0
4, 151200, Note_on_c, 0, 67, 67
4, 151200, Note_on_c, 0, 79, 67
4, 151440, Note_on_c, 0, 79, 0
4, 151440, Note_on_c, 0, 67, 0
4, 151440, Note_on_c, 0, 67, 67
4, 151440, Note_on_c, 0, 79, 67
4, 151920, Note_on_c, 0, 79, 0
4, 151920, Note_on_c, 0, 67, 0
4, 151920, Note_on_c, 0, 62, 67
4, 151920, Note_on_c, 0, 74, 67
4, 152160, Note_on_c, 0, 74, 0
4, 152160, Note_on_c, 0, 62, 0
4, 152160, Note_on_c, 0, 67, 67
4, 152160, Note_on_c, 0, 79, 67
4, 152400, Note_on_c, 0, 79, 0
4, 152400, Note_on_c, 0, 67, 0
4, 152400, Note_on_c, 0, 65, 67
4, 152400, Note_on_c, 0, 77, 67
4, 152640, Note_on_c, 0, 77, 0
4, 152640, Note_on_c, 0, 65, 0
4, 152640, Note_on_c, 0, 74, 67
4, 152640, Note_on_c, 0, 86, 67
4, 152880, Note_on_c, 0, 86, 0
4, 152880, Note_on_c, 0, 74, 0
4, 152880, Note_on_c, 0, 72, 67
4, 152880, Note_on_c, 0, 74, 67
4, 152880, Note_on_c, 0, 84, 67
4, 153360, Note_on_c, 0, 84, 0
4, 153360, Note_on_c, 0, 74, 0
4, 153360, Note_on_c, 0, 72, 0
4, 153360, Note_on_c, 0, 70, 67
4, 153360, Note_on_c, 0, 82, 67
4, 153600, Note_on_c, 0, 82, 0
4, 153600, Note_on_c, 0, 70, 0
4, 153600, Note_on_c, 0, 69, 67
4, 153600, Note_on_c, 0, 74, 67
4, 153600, Note_on_c, 0, 81, 67
4, 153840, Note_on_c, 0, 81, 0
4, 153840, Note_on_c, 0, 74, 0
4, 153840, Note_on_c, 0, 69, 0
4, 153840, Note_on_c, 0, 72, 67
4, 154080, Note_on_c, 0, 72, 0
4, 154080, Note_on_c, 0, 67, 67
4, 154080, Note_on_c, 0, 70, 67
4, 154080, Note_on_c, 0, 79, 67
4, 154080, Note_on_c, 0, 87, 67
4, 154320, Note_on_c, 0, 87, 0
4, 154320, Note_on_c, 0, 67, 0
4, 154320, Note_on_c, 0, 70, 0
4, 154320, Note_on_c, 0, 79, 0
4, 154320, Note_on_c, 0, 67, 67
4, 154320, Note_on_c, 0, 69, 67
4, 154320, Note_on_c, 0, 79, 67
4, 154320, Note_on_c, 0, 86, 67
4, 154560, Note_on_c, 0, 79, 0
4, 154560, Note_on_c, 0, 67, 0
4, 154560, Note_on_c, 0, 69, 0
4, 154560, Note_on_c, 0, 65, 67
4, 154560, Note_on_c, 0, 77, 67
4, 154800, Note_on_c, 0, 77, 0
4, 154800, Note_on_c, 0, 65, 0
4, 154800, Note_on_c, 0, 86, 0
4, 154800, Note_on_c, 0, 66, 67
4, 154800, Note_on_c, 0, 78, 67
4, 154800, Note_on_c, 0, 84, 67
4, 155040, Note_on_c, 0, 84, 0
4, 155040, Note_on_c, 0, 78, 0
4, 155040, Note_on_c, 0, 66, 0
4, 155040, Note_on_c, 0, 62, 67
4, 155040, Note_on_c, 0, 64, 67
4, 155040, Note_on_c, 0, 74, 67
4, 155040, Note_on_c, 0, 82, 67
4, 155280, Note_on_c, 0, 82, 0
4, 155280, Note_on_c, 0, 62, 0
4, 155280, Note_on_c, 0, 64, 0
4, 155280, Note_on_c, 0, 74, 0
4, 155280, Note_on_c, 0, 67, 67
4, 155280, Note_on_c, 0, 76, 67
4, 155520, Note_on_c, 0, 76, 0
4, 155520, Note_on_c, 0, 67, 0
4, 155520, Note_on_c, 0, 74, 67
4, 155520, Note_on_c, 0, 78, 67
4, 155520, Note_on_c, 0, 86, 67
4, 155760, Note_on_c, 0, 86, 0
4, 155760, Note_on_c, 0, 78, 0
4, 155760, Note_on_c, 0, 74, 0
4, 155760, Note_on_c, 0, 72, 67
4, 155760, Note_on_c, 0, 74, 67
4, 155760, Note_on_c, 0, 84, 67
4, 156240, Note_on_c, 0, 84, 0
4, 156240, Note_on_c, 0, 74, 0
4, 156240, Note_on_c, 0, 72, 0
4, 156240, Note_on_c, 0, 70, 67
4, 156240, Note_on_c, 0, 82, 67
4, 156480, Note_on_c, 0, 82, 0
4, 156480, Note_on_c, 0, 70, 0
4, 156480, Note_on_c, 0, 69, 67
4, 156480, Note_on_c, 0, 74, 67
4, 156480, Note_on_c, 0, 81, 67
4, 156720, Note_on_c, 0, 81, 0
4, 156720, Note_on_c, 0, 74, 0
4, 156720, Note_on_c, 0, 69, 0
4, 156720, Note_on_c, 0, 72, 67
4, 156960, Note_on_c, 0, 72, 0
4, 156960, Note_on_c, 0, 67, 67
4, 156960, Note_on_c, 0, 70, 67
4, 156960, Note_on_c, 0, 79, 67
4, 156960, Note_on_c, 0, 87, 67
4, 157200, Note_on_c, 0, 87, 0
4, 157200, Note_on_c, 0, 67, 0
4, 157200, Note_on_c, 0, 70, 0
4, 157200, Note_on_c, 0, 79, 0
4, 157200, Note_on_c, 0, 67, 67
4, 157200, Note_on_c, 0, 69, 67
4, 157200, Note_on_c, 0, 79, 67
4, 157200, Note_on_c, 0, 86, 67
4, 157440, Note_on_c, 0, 79, 0
4, 157440, Note_on_c, 0, 67, 0
4, 157440, Note_on_c, 0, 69, 0
4, 157440, Note_on_c, 0, 65, 67
4, 157440, Note_on_c, 0, 77, 67
4, 157680, Note_on_c, 0, 77, 0
4, 157680, Note_on_c, 0, 65, 0
4, 157680, Note_on_c, 0, 86, 0
4, 157680, Note_on_c, 0, 66, 67
4, 157680, Note_on_c, 0, 78, 67
4, 157680, Note_on_c, 0, 84, 67
4, 157920, Note_on_c, 0, 84, 0
4, 157920, Note_on_c, 0, 78, 0
4, 157920, Note_on_c, 0, 66, 0
4, 157920, Note_on_c, 0, 62, 67
4, 157920, Note_on_c, 0, 64, 67
4, 157920, Note_on_c, 0, 74, 67
4, 157920, Note_on_c, 0, 82, 67
4, 158160, Note_on_c, 0, 82, 0
4, 158160, Note_on_c, 0, 62, 0
4, 158160, Note_on_c, 0, 64, 0
4, 158160, Note_on_c, 0, 74, 0
4, 158160, Note_on_c, 0, 67, 67
4, 158160, Note_on_c, 0, 76, 67
4, 158400, Note_on_c, 0, 76, 0
4, 158400, Note_on_c, 0, 67, 0
4, 158400, Note_on_c, 0, 74, 67
4, 158400, Note_on_c, 0, 78, 67
4, 158400, Note_on_c, 0, 86, 67
4, 158640, Note_on_c, 0, 86, 0
4, 158640, Note_on_c, 0, 78, 0
4, 158640, Note_on_c, 0, 74, 0
4, 158640, Note_on_c, 0, 72, 67
4, 158640, Note_on_c, 0, 79, 67
4, 158640, Note_on_c, 0, 84, 67
4, 159120, Note_on_c, 0, 84, 0
4, 159120, Note_on_c, 0, 79, 0
4, 159120, Note_on_c, 0, 72, 0
4, 159120, Note_on_c, 0, 70, 67
4, 159120, Note_on_c, 0, 82, 67
4, 159360, Note_on_c, 0, 82, 0
4, 159360, Note_on_c, 0, 70, 0
4, 159360, Note_on_c, 0, 69, 67
4, 159360, Note_on_c, 0, 81, 67
4, 159840, Note_on_c, 0, 81, 0
4, 159840, Note_on_c, 0, 69, 0
4, 159840, Note_on_c, 0, 67, 67
4, 159840, Note_on_c, 0, 79, 67
4, 160080, Note_on_c, 0, 79, 0
4, 160080, Note_on_c, 0, 67, 0
4, 160080, Note_on_c, 0, 70, 67
4, 160080, Note_on_c, 0, 82, 67
4, 160560, Note_on_c, 0, 82, 0
4, 160560, Note_on_c, 0, 70, 0
4, 160560, Note_on_c, 0, 67, 67
4, 160560, Note_on_c, 0, 79, 67
4, 160800, Note_on_c, 0, 79, 0
4, 160800, Note_on_c, 0, 67, 0
4, 160800, Note_on_c, 0, 65, 67
4, 160800, Note_on_c, 0, 77, 67
4, 161280, Note_on_c, 0, 77, 0
4, 161280, Note_on_c, 0, 65, 0
4, 161280, Note_on_c, 0, 63, 67
4, 161280, Note_on_c, 0, 75, 67
4, 161520, Note_on_c, 0, 75, 0
4, 161520, Note_on_c, 0, 63, 0
4, 161520, Note_on_c, 0, 70, 67
4, 161520, Note_on_c, 0, 82, 67
4, 162000, Note_on_c, 0, 82, 0
4, 162000, Note_on_c, 0, 70, 0
4, 162000, Note_on_c, 0, 73, 67
4, 162240, Note_on_c, 0, 73, 0
4, 162240, Note_on_c, 0, 72, 67
4, 162720, Note_on_c, 0, 72, 0
4, 162720, Note_on_c, 0, 70, 67
4, 162960, Note_on_c, 0, 70, 0
4, 162960, Note_on_c, 0, 69, 67
4, 163440, Note_on_c, 0, 69, 0
4, 163440, Note_on_c, 0, 70, 67
4, 163680, Note_on_c, 0, 70, 0
4, 163680, Note_on_c, 0, 58, 67
4, 163680, Note_on_c, 0, 63, 67
4, 163920, Note_on_c, 0, 63, 0
4, 163920, Note_on_c, 0, 64, 67
4, 164160, Note_on_c, 0, 64, 0
4, 164160, Note_on_c, 0, 58, 0
4, 164160, Note_on_c, 0, 57, 67
4, 164160, Note_on_c, 0, 65, 67
4, 164400, Note_on_c, 0, 65, 0
4, 164400, Note_on_c, 0, 57, 0
4, 175920, Control_c, 0, 64, 127
4, 175920, Note_on_c, 0, 71, 80
4, 175920, Note_on_c, 0, 74, 80
4, 175920, Note_on_c, 0, 77, 80
4, 175920, Note_on_c, 0, 83, 80
4, 175967, Note_on_c, 0, 83, 0
4, 175967, Note_on_c, 0, 71, 0
4, 175967, Note_on_c, 0, 74, 0
4, 175967, Note_on_c, 0, 77, 0
4, 176400, Control_c, 0, 64, 0
4, 178800, Note_on_c, 0, 71, 80
4, 178800, Note_on_c, 0, 74, 80
4, 178800, Note_on_c, 0, 77, 80
4, 178800, Note_on_c, 0, 83, 80
4, 178847, Note_on_c, 0, 83, 0
4, 178847, Note_on_c, 0, 71, 0
4, 178847, Note_on_c, 0, 74, 0
4, 178847, Note_on_c, 0, 77, 0
4, 181680, Control_c, 0, 64, 127
4, 181680, Note_on_c, 0, 59, 80
4, 181680, Note_on_c, 0, 62, 80
4, 181680, Note_on_c, 0, 65, 80
4, 181680, Note_on_c, 0, 71, 80
4, 181727, Note_on_c, 0, 71, 0
4, 181727, Note_on_c, 0, 59, 0
4, 181727, Note_on_c, 0, 62, 0
4, 181727, Note_on_c, 0, 65, 0
4, 182160, Control_c, 0, 64, 0
4, 184560, Control_c, 0, 64, 127
4, 184560, Note_on_c, 0, 59, 80
4, 184560, Note_on_c, 0, 62, 80
4, 184560, Note_on_c, 0, 65, 80
4, 184560, Note_on_c, 0, 71, 80
4, 184607, Note_on_c, 0, 71, 0
4, 184607, Note_on_c, 0, 59, 0
4, 184607, Note_on_c, 0, 62, 0
4, 184607, Note_on_c, 0, 65, 0
4, 185040, Control_c, 0, 64, 0
4, 193200, Note_on_c, 0, 69, 80
4, 193200, Note_on_c, 0, 73, 80
4, 193200, Note_on_c, 0, 75, 80
4, 193200, Note_on_c, 0, 81, 80
4, 193680, Note_on_c, 0, 81, 0
4, 193680, Note_on_c, 0, 69, 0
4, 193680, Note_on_c, 0, 73, 0
4, 193680, Note_on_c, 0, 75, 0
4, 211440, Note_on_c, 0, 53, 54
4, 211440, Note_on_c, 0, 61, 54
4, 211680, Note_on_c, 0, 61, 0
4, 211680, Note_on_c, 0, 53, 0
4, 211680, Note_on_c, 0, 56, 54
4, 211680, Note_on_c, 0, 65, 54
4, 211920, Note_on_c, 0, 65, 0
4, 211920, Note_on_c, 0, 56, 0
4, 211920, Note_on_c, 0, 58, 54
4, 211920, Note_on_c, 0, 66, 54
4, 212160, Note_on_c, 0, 66, 0
4, 212160, Note_on_c, 0, 58, 0
4, 212160, Note_on_c, 0, 60, 54
4, 212160, Note_on_c, 0, 68, 54
4, 212400, Note_on_c, 0, 68, 0
4, 212400, Note_on_c, 0, 60, 0
4, 212400, Note_on_c, 0, 61, 54
4, 212400, Note_on_c, 0, 70, 54
4, 212640, Note_on_c, 0, 70, 0
4, 212640, Note_on_c, 0, 61, 0
4, 212640, Note_on_c, 0, 63, 54
4, 212640, Note_on_c, 0, 72, 54
4, 212880, Note_on_c, 0, 72, 0
4, 212880, Note_on_c, 0, 63, 0
4, 212880, Note_on_c, 0, 65, 54
4, 212880, Note_on_c, 0, 73, 54
4, 213120, Note_on_c, 0, 73, 0
4, 213120, Note_on_c, 0, 65, 0
4, 213120, Note_on_c, 0, 63, 54
4, 213120, Note_on_c, 0, 72, 54
4, 213360, Note_on_c, 0, 72, 0
4, 213360, Note_on_c, 0, 63, 0
4, 213360, Note_on_c, 0, 61, 54
4, 213360, Note_on_c, 0, 70, 54
4, 213600, Note_on_c, 0, 70, 0
4, 213600, Note_on_c, 0, 61, 0
4, 213600, Note_on_c, 0, 60, 54
4, 213600, Note_on_c, 0, 68, 54
4, 213840, Note_on_c, 0, 68, 0
4, 213840, Note_on_c, 0, 60, 0
4, 213840, Note_on_c, 0, 59, 54
4, 213840, Note_on_c, 0, 67, 54
4, 214080, Note_on_c, 0, 67, 0
4, 214080, Note_on_c, 0, 59, 0
4, 214080, Note_on_c, 0, 58, 54
4, 214080, Note_on_c, 0, 66, 54
4, 214320, Note_on_c, 0, 66, 0
4, 214320, Note_on_c, 0, 58, 0
4, 214320, Note_on_c, 0, 56, 54
4, 214320, Note_on_c, 0, 65, 54
4, 214560, Note_on_c, 0, 65, 0
4, 214560, Note_on_c, 0, 56, 0
4, 214560, Note_on_c, 0, 54, 54
4, 214560, Note_on_c, 0, 63, 54
4, 214800, Note_on_c, 0, 63, 0
4, 214800, Note_on_c, 0, 54, 0
4, 214800, Note_on_c, 0, 53, 54
4, 214800, Note_on_c, 0, 61, 54
4, 215040, Note_on_c, 0, 61, 0
4, 215040, Note_on_c, 0, 53, 0
4, 215040, Note_on_c, 0, 51, 54
4, 215040, Note_on_c, 0, 60, 54
4, 215280, Note_on_c, 0, 60, 0
4, 215280, Note_on_c, 0, 51, 0
4, 215280, Note_on_c, 0, 49, 54
4, 215280, Note_on_c, 0, 58, 54
4, 215520, Note_on_c, 0, 58, 0
4, 215520, Note_on_c, 0, 49, 0
4, 215520, Note_on_c, 0, 51, 54
4, 215520, Note_on_c, 0, 60, 54
4, 215760, Note_on_c, 0, 60, 0
4, 215760, Note_on_c, 0, 51, 0
4, 215760, Note_on_c, 0, 53, 54
4, 215760, Note_on_c, 0, 61, 54
4, 216000, Note_on_c, 0, 61, 0
4, 216000, Note_on_c, 0, 53, 0
4, 216000, Note_on_c, 0, 54, 54
4, 216000, Note_on_c, 0, 63, 54
4, 216240, Note_on_c, 0, 63, 0
4, 216240, Note_on_c, 0, 54, 0
4, 216240, Note_on_c, 0, 56, 54
4, 216240, Note_on_c, 0, 65, 54
4, 216480, Note_on_c, 0, 65, 0
4, 216480, Note_on_c, 0, 56, 0
4, 216480, Note_on_c, 0, 58, 54
4, 216480, Note_on_c, 0, 66, 54
4, 216720, Note_on_c, 0, 66, 0
4, 216720, Note_on_c, 0, 58, 0
4, 216720, Note_on_c, 0, 60, 54
4, 216720, Note_on_c, 0, 68, 54
4, 216960, Note_on_c, 0, 68, 0
4, 216960, Note_on_c, 0, 60, 0
4, 216960, Note_on_c, 0, 58, 54
4, 216960, Note_on_c, 0, 66, 54
4, 217200, Note_on_c, 0, 66, 0
4, 217200, Note_on_c, 0, 58, 0
4, 217200, Note_on_c, 0, 56, 54
4, 217200, Note_on_c, 0, 65, 54
4, 217440, Note_on_c, 0, 65, 0
4, 217440, Note_on_c, 0, 56, 0
4, 217440, Note_on_c, 0, 54, 54
4, 217440, Note_on_c, 0, 63, 54
4, 217680, Note_on_c, 0, 63, 0
4, 217680, Note_on_c, 0, 54, 0
4, 217680, Note_on_c, 0, 53, 54
4, 217680, Note_on_c, 0, 61, 54
4, 217920, Note_on_c, 0, 61, 0
4, 217920, Note_on_c, 0, 53, 0
4, 217920, Note_on_c, 0, 56, 54
4, 217920, Note_on_c, 0, 68, 54
4, 218160, Note_on_c, 0, 68, 0
4, 218160, Note_on_c, 0, 56, 0
4, 218160, Note_on_c, 0, 58, 54
4, 218160, Note_on_c, 0, 67, 54
4, 218400, Note_on_c, 0, 67, 0
4, 218400, Note_on_c, 0, 58, 0
4, 218400, Note_on_c, 0, 60, 54
4, 218400, Note_on_c, 0, 66, 54
4, 218640, Note_on_c, 0, 66, 0
4, 218640, Note_on_c, 0, 60, 0
4, 218640, Note_on_c, 0, 56, 54
4, 218640, Note_on_c, 0, 65, 54
4, 218880, Note_on_c, 0, 65, 0
4, 218880, Note_on_c, 0, 56, 0
4, 218880, Note_on_c, 0, 54, 54
4, 218880, Note_on_c, 0, 63, 54
4, 219120, Note_on_c, 0, 63, 0
4, 219120, Note_on_c, 0, 54, 0
4, 219120, Note_on_c, 0, 53, 54
4, 219120, Note_on_c, 0, 61, 54
4, 219360, Note_on_c, 0, 61, 0
4, 219360, Note_on_c, 0, 53, 0
4, 219360, Note_on_c, 0, 51, 54
4, 219360, Note_on_c, 0, 66, 54
4, 219600, Note_on_c, 0, 66, 0
4, 219600, Note_on_c, 0, 51, 0
4, 219600, Note_on_c, 0, 53, 54
4, 219600, Note_on_c, 0, 65, 54
4, 219840, Note_on_c, 0, 65, 0
4, 219840, Note_on_c, 0, 53, 0
4, 219840, Note_on_c, 0, 54, 54
4, 219840, Note_on_c, 0, 63, 54
4, 220080, Note_on_c, 0, 63, 0
4, 220080, Note_on_c, 0, 54, 0
4, 220080, Note_on_c, 0, 56, 54
4, 220080, Note_on_c, 0, 61, 54
4, 220320, Note_on_c, 0, 61, 0
4, 220320, Note_on_c, 0, 56, 0
4, 220320, Note_on_c, 0, 54, 54
4, 220320, Note_on_c, 0, 63, 54
4, 220560, Note_on_c, 0, 63, 0
4, 220560, Note_on_c, 0, 54, 0
4, 220560, Note_on_c, 0, 53, 54
4, 220560, Note_on_c, 0, 65, 54
4, 220800, Note_on_c, 0, 65, 0
4, 220800, Note_on_c, 0, 53, 0
4, 220800, Note_on_c, 0, 51, 54
4, 220800, Note_on_c, 0, 66, 54
4, 221040, Note_on_c, 0, 66, 0
4, 221040, Note_on_c, 0, 51, 0
4, 221040, Note_on_c, 0, 53, 54
4, 221040, Note_on_c, 0, 65, 54
4, 221280, Note_on_c, 0, 65, 0
4, 221280, Note_on_c, 0, 53, 0
4, 221280, Note_on_c, 0, 54, 54
4, 221280, Note_on_c, 0, 63, 54
4, 221520, Note_on_c, 0, 63, 0
4, 221520, Note_on_c, 0, 54, 0
4, 221520, Note_on_c, 0, 57, 54
4, 221520, Note_on_c, 0, 63, 54
4, 221520, Note_on_c, 0, 69, 54
4, 222240, Note_on_c, 0, 69, 0
4, 222240, Note_on_c, 0, 63, 0
4, 222240, Note_on_c, 0, 57, 0
4, 222240, Note_on_c, 0, 56, 54
4, 222240, Note_on_c, 0, 63, 54
4, 222240, Note_on_c, 0, 68, 54
4, 222720, Note_on_c, 0, 68, 0
4, 222720, Note_on_c, 0, 63, 0
4, 222720, Note_on_c, 0, 56, 0
4, 222960, Note_on_c, 0, 80, 80
4, 223680, Note_on_c, 0, 80, 0
4, 223680, Note_on_c, 0, 75, 80
4, 224160, Note_on_c, 0, 75, 0
4, 224160, Note_on_c, 0, 82, 80
4, 224400, Note_on_c, 0, 82, 0
4, 224400, Note_on_c, 0, 80, 80
4, 225840, Note_on_c, 0, 80, 0
4, 225840, Note_on_c, 0, 73, 80
4, 226080, Note_on_c, 0, 73, 0
4, 226080, Note_on_c, 0, 75, 80
4, 226320, Note_on_c, 0, 75, 0
4, 226320, Note_on_c, 0, 77, 80
4, 226560, Note_on_c, 0, 77, 0
4, 226560, Note_on_c, 0, 78, 80
4, 227040, Note_on_c, 0, 78, 0
4, 227040, Note_on_c, 0, 78, 80
4, 227280, Note_on_c, 0, 78, 0
4, 227280, Note_on_c, 0, 72, 80
4, 227520, Note_on_c, 0, 72, 0
4, 227520, Note_on_c, 0, 73, 80
4, 227760, Note_on_c, 0, 73, 0
4, 227760, Note_on_c, 0, 75, 80
4, 228000, Note_on_c, 0, 75, 0
4, 228000, Note_on_c, 0, 77, 80
4, 228480, Note_on_c, 0, 77, 0
4, 228480, Note_on_c, 0, 77, 80
4, 228720, Note_on_c, 0, 77, 0
4, 228720, Note_on_c, 0, 70, 80
4, 228720, Note_on_c, 0, 74, 80
4, 228960, Note_on_c, 0, 74, 0
4, 228960, Note_on_c, 0, 70, 0
4, 228960, Note_on_c, 0, 72, 80
4, 229200, Note_on_c, 0, 72, 0
4, 229200, Note_on_c, 0, 74, 80
4, 229440, Note_on_c, 0, 74, 0
4, 229440, Note_on_c, 0, 63, 80
4, 229440, Note_on_c, 0, 75, 80
4, 229680, Note_on_c, 0, 75, 0
4, 229680, Note_on_c, 0, 63, 0
4, 229680, Note_on_c, 0, 77, 80
4, 229920, Note_on_c, 0, 77, 0
4, 229920, Note_on_c, 0, 70, 80
4, 229920, Note_on_c, 0, 78, 80
4, 230160, Note_on_c, 0, 78, 0
4, 230160, Note_on_c, 0, 70, 0
4, 230160, Note_on_c, 0, 80, 80
4, 230400, Note_on_c, 0, 80, 0
4, 230400, Note_on_c, 0, 82, 80
4, 230640, Note_on_c, 0, 82, 0
4, 230640, Note_on_c, 0, 84, 93
4, 230880, Note_on_c, 0, 84, 0
4, 230880, Note_on_c, 0, 85, 93
4, 231720, Note_on_c, 0, 85, 0
4, 231720, Note_on_c, 0, 80, 93
4, 231840, Note_on_c, 0, 80, 0
4, 231840, Note_on_c, 0, 82, 93
4, 231960, Note_on_c, 0, 82, 0
4, 231960, Note_on_c, 0, 80, 93
4, 232080, Note_on_c, 0, 80, 0
4, 232080, Note_on_c, 0, 77, 93
4, 232200, Note_on_c, 0, 77, 0
4, 232200, Note_on_c, 0, 73, 80
4, 232320, Note_on_c, 0, 73, 0
4, 232320, Note_on_c, 0, 65, 80
4, 232320, Note_on_c, 0, 68, 80
4, 232440, Note_on_c, 0, 68, 0
4, 232440, Note_on_c, 0, 65, 0
4, 232440, Note_on_c, 0, 67, 80
4, 232560, Note_on_c, 0, 67, 0
4, 232560, Note_on_c, 0, 68, 80
4, 232680, Note_on_c, 0, 68, 0
4, 232680, Note_on_c, 0, 70, 80
4, 232800, Note_on_c, 0, 70, 0
4, 232800, Note_on_c, 0, 63, 80
4, 232800, Note_on_c, 0, 68, 80
4, 232800, Note_on_c, 0, 71, 80
4, 232920, Note_on_c, 0, 71, 0
4, 232920, Note_on_c, 0, 68, 0
4, 232920, Note_on_c, 0, 63, 0
4, 232920, Note_on_c, 0, 72, 80
4, 233040, Note_on_c, 0, 72, 0
4, 233040, Note_on_c, 0, 61, 80
4, 233040, Note_on_c, 0, 68, 80
4, 233040, Note_on_c, 0, 73, 80
4, 233280, Note_on_c, 0, 73, 0
4, 233280, Note_on_c, 0, 68, 0
4, 233280, Note_on_c, 0, 61, 0
4, 234480, Note_on_c, 0, 61, 67
4, 234480, Note_on_c, 0, 65, 67
4, 234480, Note_on_c, 0, 68, 67
4, 234480, Note_on_c, 0, 73, 67
4, 235200, Note_on_c, 0, 73, 0
4, 235200, Note_on_c, 0, 61, 0
4, 235200, Note_on_c, 0, 65, 0
4, 235200, Note_on_c, 0, 68, 0
4, 235200, Note_on_c, 0, 61, 67
4, 235200, Note_on_c, 0, 64, 67
4, 235200, Note_on_c, 0, 67, 67
4, 235680, Note_on_c, 0, 67, 0
4, 235680, Note_on_c, 0, 64, 0
4, 235680, Note_on_c, 0, 61, 0
4, 235680, Note_on_c, 0, 73, 67
4, 235920, Note_on_c, 0, 73, 0
4, 235920, Note_on_c, 0, 61, 67
4, 235920, Note_on_c, 0, 65, 67
4, 235920, Note_on_c, 0, 68, 67
4, 235920, Note_on_c, 0, 73, 67
4, 236160, Note_on_c, 0, 73, 0
4, 236160, Note_on_c, 0, 61, 0
4, 236160, Note_on_c, 0, 65, 0
4, 236160, Note_on_c, 0, 68, 0
4, 237360, Note_on_c, 0, 61, 67
4, 237360, Note_on_c, 0, 65, 67
4, 237360, Note_on_c, 0, 68, 67
4, 237360, Note_on_c, 0, 73, 67
4, 238080, Note_on_c, 0, 73, 0
4, 238080, Note_on_c, 0, 61, 0
4, 238080, Note_on_c, 0, 65, 0
4, 238080, Note_on_c, 0, 68, 0
4, 238080, Note_on_c, 0, 61, 67
4, 238080, Note_on_c, 0, 64, 67
4, 238080, Note_on_c, 0, 67, 67
4, 238560, Note_on_c, 0, 67, 0
4, 238560, Note_on_c, 0, 64, 0
4, 238560, Note_on_c, 0, 61, 0
4, 238560, Note_on_c, 0, 73, 67
4, 238800, Note_on_c, 0, 73, 0
4, 238800, Control_c, 0, 64, 127
4, 238800, Note_on_c, 0, 73, 67
4, 238800, Note_on_c, 0, 77, 67
4, 238800, Note_on_c, 0, 80, 67
4, 239520, Note_on_c, 0, 80, 0
4, 239520, Note_on_c, 0, 77, 0
4, 239520, Note_on_c, 0, 73, 0
4, 239520, Note_on_c, 0, 68, 67
4, 239520, Note_on_c, 0, 73, 67
4, 240000, Note_on_c, 0, 73, 0
4, 240000, Note_on_c, 0, 68, 0
4, 240000, Note_on_c, 0, 73, 67
4, 240000, Note_on_c, 0, 77, 67
4, 240000, Note_on_c, 0, 80, 67
4, 240240, Note_on_c, 0, 80, 0
4, 240240, Note_on_c, 0, 77, 0
4, 240240, Note_on_c, 0, 73, 0
4, 240240, Note_on_c, 0, 73, 67
4, 240240, Note_on_c, 0, 77, 67
4, 240240, Note_on_c, 0, 80, 67
4, 241200, Note_on_c, 0, 80, 0
4, 241200, Note_on_c, 0, 77, 0
4, 241200, Note_on_c, 0, 73, 0
4, 241200, Control_c, 0, 64, 0
4, 241200, Note_on_c, 0, 85, 67
4, 241200, Note_on_c, 0, 89, 67
4, 241200, Note_on_c, 0, 92, 67
4, 241247, Note_on_c, 0, 92, 0
4, 241247, Note_on_c, 0, 89, 0
4, 241247, Note_on_c, 0, 85, 0
4, 241440, Note_on_c, 0, 80, 67
4, 241440, Note_on_c, 0, 85, 67
4, 241440, Note_on_c, 0, 89, 67
4, 241487, Note_on_c, 0, 89, 0
4, 241487, Note_on_c, 0, 85, 0
4, 241487, Note_on_c, 0, 80, 0
4, 241680, Note_on_c, 0, 77, 67
4, 241680, Note_on_c, 0, 80, 67
4, 241680, Note_on_c, 0, 85, 67
4, 241727, Note_on_c, 0, 85, 0
4, 241727, Note_on_c, 0, 80, 0
4, 241727, Note_on_c, 0, 77, 0
4, 241920, Note_on_c, 0, 73, 67
4, 241920, Note_on_c, 0, 77, 67
4, 241920, Note_on_c, 0, 80, 67
4, 241967, Note_on_c, 0, 80, 0
4, 241967, Note_on_c, 0, 77, 0
4, 241967, Note_on_c, 0, 73, 0
4, 242160, Note_on_c, 0, 73, 67
4, 242160, Note_on_c, 0, 77, 67
4, 242207, Note_on_c, 0, 77, 0
4, 242207, Note_on_c, 0, 73, 0
4, 242400, Note_on_c, 0, 68, 67
4, 242400, Note_on_c, 0, 73, 67
4, 242447, Note_on_c, 0, 73, 0
4, 242447, Note_on_c, 0, 68, 0
4, 242640, Note_on_c, 0, 61, 67
4, 242640, Note_on_c, 0, 68, 67
4, 242687, Note_on_c, 0, 68, 0
4, 242687, Note_on_c, 0, 61, 0
4, 242880, Control_c, 0, 64, 127
4, 242880, Note_on_c, 0, 68, 93
4, 243120, Note_on_c, 0, 68, 0
4, 243120, Note_on_c, 0, 73, 67
4, 243120, Note_on_c, 0, 77, 67
4, 243120, Note_on_c, 0, 80, 67
4, 244560, Note_on_c, 0, 80, 0
4, 244560, Note_on_c, 0, 77, 0
4, 244560, Note_on_c, 0, 73, 0
4, 246960, Control_c, 0, 64, 0
4, 246960, End_track
5, 0, Start_track
5, 0, Title_t, "Grand Piano"
5, 0, Program_c, 0, 0
5, 0, Control_c, 0, 7, 115
5, 0, Control_c, 0, 10, 41
5, 0, Note_on_c, 0, 61, 54
5, 0, Note_on_c, 0, 65, 54
5, 0, Note_on_c, 0, 68, 54
5, 480, Note_on_c, 0, 68, 0
5, 480, Note_on_c, 0, 65, 0
5, 480, Note_on_c, 0, 61, 0
5, 720, Note_on_c, 0, 61, 54
5, 720, Note_on_c, 0, 66, 54
5, 720, Note_on_c, 0, 68, 54
5, 1200, Note_on_c, 0, 68, 0
5, 1200, Note_on_c, 0, 66, 0
5, 1200, Note_on_c, 0, 61, 0
5, 1440, Note_on_c, 0, 61, 54
5, 1440, Note_on_c, 0, 65, 54
5, 1440, Note_on_c, 0, 68, 54
5, 1920, Note_on_c, 0, 68, 0
5, 1920, Note_on_c, 0, 65, 0
5, 1920, Note_on_c, 0, 61, 0
5, 2160, Note_on_c, 0, 61, 54
5, 2160, Note_on_c, 0, 63, 54
5, 2160, Note_on_c, 0, 66, 54
5, 2160, Note_on_c, 0, 68, 54
5, 2640, Note_on_c, 0, 68, 0
5, 2640, Note_on_c, 0, 61, 0
5, 2640, Note_on_c, 0, 63, 0
5, 2640, Note_on_c, 0, 66, 0
5, 2880, Note_on_c, 0, 61, 54
5, 2880, Note_on_c, 0, 65, 54
5, 2880, Note_on_c, 0, 68, 54
5, 3360, Note_on_c, 0, 68, 0
5, 3360, Note_on_c, 0, 65, 0
5, 3360, Note_on_c, 0, 61, 0
5, 3600, Note_on_c, 0, 61, 54
5, 3600, Note_on_c, 0, 66, 54
5, 3600, Note_on_c, 0, 68, 54
5, 4080, Note_on_c, 0, 68, 0
5, 4080, Note_on_c, 0, 66, 0
5, 4080, Note_on_c, 0, 61, 0
5, 4320, Note_on_c, 0, 61, 54
5, 4320, Note_on_c, 0, 65, 54
5, 4320, Note_on_c, 0, 68, 54
5, 4800, Note_on_c, 0, 68, 0
5, 4800, Note_on_c, 0, 65, 0
5, 4800, Note_on_c, 0, 61, 0
5, 5040, Note_on_c, 0, 61, 54
5, 5040, Note_on_c, 0, 63, 54
5, 5040, Note_on_c, 0, 66, 54
5, 5040, Note_on_c, 0, 68, 54
5, 5520, Note_on_c, 0, 68, 0
5, 5520, Note_on_c, 0, 61, 0
5, 5520, Note_on_c, 0, 63, 0
5, 5520, Note_on_c, 0, 66, 0
5, 5760, Note_on_c, 0, 61, 54
5, 5760, Note_on_c, 0, 65, 54
5, 5760, Note_on_c, 0, 68, 54
5, 6240, Note_on_c, 0, 68, 0
5, 6240, Note_on_c, 0, 65, 0
5, 6240, Note_on_c, 0, 61, 0
5, 6480, Note_on_c, 0, 61, 54
5, 6480, Note_on_c, 0, 66, 54
5, 6480, Note_on_c, 0, 68, 54
5, 6960, Note_on_c, 0, 68, 0
5, 6960, Note_on_c, 0, 66, 0
5, 6960, Note_on_c, 0, 61, 0
5, 7200, Note_on_c, 0, 61, 54
5, 7200, Note_on_c, 0, 65, 54
5, 7200, Note_on_c, 0, 68, 54
5, 7680, Note_on_c, 0, 68, 0
5, 7680, Note_on_c, 0, 65, 0
5, 7680, Note_on_c, 0, 61, 0
5, 7920, Note_on_c, 0, 61, 54
5, 7920, Note_on_c, 0, 63, 54
5, 7920, Note_on_c, 0, 66, 54
5, 7920, Note_on_c, 0, 68, 54
5, 8400, Note_on_c, 0, 68, 0
5, 8400, Note_on_c, 0, 61, 0
5, 8400, Note_on_c, 0, 63, 0
5, 8400, Note_on_c, 0, 66, 0
5, 8640, Note_on_c, 0, 61, 54
5, 8640, Note_on_c, 0, 65, 54
5, 8640, Note_on_c, 0, 68, 54
5, 9120, Note_on_c, 0, 68, 0
5, 9120, Note_on_c, 0, 65, 0
5, 9120, Note_on_c, 0, 61, 0
5, 9360, Note_on_c, 0, 61, 54
5, 9360, Note_on_c, 0, 66, 54
5, 9360, Note_on_c, 0, 68, 54
5, 9840, Note_on_c, 0, 68, 0
5, 9840, Note_on_c, 0, 66, 0
5, 9840, Note_on_c, 0, 61, 0
5, 10080, Note_on_c, 0, 61, 54
5, 10080, Note_on_c, 0, 65, 54
5, 10560, Note_on_c, 0, 65, 0
5, 10560, Note_on_c, 0, 61, 0
5, 10800, Note_on_c, 0, 61, 54
5, 10800, Note_on_c, 0, 63, 54
5, 10800, Note_on_c, 0, 66, 54
5, 11280, Note_on_c, 0, 66, 0
5, 11280, Note_on_c, 0, 63, 0
5, 11280, Note_on_c, 0, 61, 0
5, 11520, Note_on_c, 0, 61, 54
5, 11520, Note_on_c, 0, 65, 54
5, 12000, Note_on_c, 0, 65, 0
5, 12000, Note_on_c, 0, 61, 0
5, 12240, Note_on_c, 0, 60, 54
5, 12240, Note_on_c, 0, 63, 54
5, 12240, Note_on_c, 0, 66, 54
5, 12240, Note_on_c, 0, 68, 54
5, 12720, Note_on_c, 0, 68, 0
5, 12720, Note_on_c, 0, 60, 0
5, 12720, Note_on_c, 0, 63, 0
5, 12720, Note_on_c, 0, 66, 0
5, 12960, Note_on_c, 0, 59, 54
5, 12960, Note_on_c, 0, 61, 54
5, 12960, Note_on_c, 0, 65, 54
5, 12960, Note_on_c, 0, 68, 54
5, 13440, Note_on_c, 0, 68, 0
5, 13440, Note_on_c, 0, 59, 0
5, 13440, Note_on_c, 0, 61, 0
5, 13440, Note_on_c, 0, 65, 0
5, 13680, Note_on_c, 0, 57, 54
5, 13680, Note_on_c, 0, 61, 54
5, 13680, Note_on_c, 0, 66, 54
5, 14160, Note_on_c, 0, 66, 0
5, 14160, Note_on_c, 0, 61, 0
5, 14160, Note_on_c, 0, 57, 0
5, 14400, Note_on_c, 0, 56, 54
5, 14400, Note_on_c, 0, 61, 54
5, 14400, Note_on_c, 0, 65, 54
5, 14880, Note_on_c, 0, 65, 0
5, 14880, Note_on_c, 0, 61, 0
5, 14880, Note_on_c, 0, 56, 0
5, 15120, Note_on_c, 0, 54, 54
5, 15120, Note_on_c, 0, 61, 54
5, 15120, Note_on_c, 0, 63, 54
5, 15600, Note_on_c, 0, 63, 0
5, 15600, Note_on_c, 0, 61, 0
5, 15600, Note_on_c, 0, 54, 0
5, 15840, Note_on_c, 0, 61, 54
5, 15840, Note_on_c, 0, 63, 54
5, 15840, Note_on_c, 0, 66, 54
5, 16320, Note_on_c, 0, 66, 0
5, 16320, Note_on_c, 0, 63, 0
5, 16320, Note_on_c, 0, 61, 0
5, 16560, Note_on_c, 0, 60, 54
5, 16560, Note_on_c, 0, 63, 54
5, 16560, Note_on_c, 0, 66, 54
5, 17040, Note_on_c, 0, 66, 0
5, 17040, Note_on_c, 0, 63, 0
5, 17040, Note_on_c, 0, 60, 0
5, 17280, Note_on_c, 0, 49, 54
5, 17280, Note_on_c, 0, 56, 54
5, 18000, Note_on_c, 0, 56, 0
5, 18000, Note_on_c, 0, 49, 0
5, 18000, Note_on_c, 0, 66, 80
5, 18720, Note_on_c, 0, 66, 0
5, 18720, Note_on_c, 0, 49, 54
5, 18720, Note_on_c, 0, 56, 54
5, 19440, Note_on_c, 0, 56, 0
5, 19440, Note_on_c, 0, 49, 0
5, 19440, Note_on_c, 0, 66, 80
5, 20160, Note_on_c, 0, 66, 0
5, 20160, Note_on_c, 0, 49, 54
5, 20160, Note_on_c, 0, 56, 54
5, 20880, Note_on_c, 0, 56, 0
5, 20880, Note_on_c, 0, 49, 0
5, 20880, Note_on_c, 0, 66, 80
5, 21600, Note_on_c, 0, 66, 0
5, 21600, Note_on_c, 0, 49, 54
5, 21600, Note_on_c, 0, 56, 54
5, 23040, Note_on_c, 0, 56, 0
5, 23040, Note_on_c, 0, 49, 0
5, 23040, Note_on_c, 0, 49, 54
5, 23760, Note_on_c, 0, 49, 0
5, 23760, Note_on_c, 0, 48, 54
5, 23760, Note_on_c, 0, 56, 54
5, 23760, Note_on_c, 0, 63, 54
5, 23760, Note_on_c, 0, 68, 54
5, 24480, Note_on_c, 0, 68, 0
5, 24480, Note_on_c, 0, 48, 0
5, 24480, Note_on_c, 0, 56, 0
5, 24480, Note_on_c, 0, 63, 0
5, 24480, Note_on_c, 0, 46, 54
5, 24480, Note_on_c, 0, 58, 54
5, 24480, Note_on_c, 0, 65, 54
5, 24480, Note_on_c, 0, 70, 54
5, 25200, Note_on_c, 0, 70, 0
5, 25200, Note_on_c, 0, 46, 0
5, 25200, Note_on_c, 0, 58, 0
5, 25200, Note_on_c, 0, 65, 0
5, 25200, Note_on_c, 0, 45, 54
5, 25200, Note_on_c, 0, 57, 54
5, 25200, Note_on_c, 0, 61, 54
5, 25200, Note_on_c, 0, 73, 54
5, 25920, Note_on_c, 0, 73, 0
5, 25920, Note_on_c, 0, 45, 0
5, 25920, Note_on_c, 0, 57, 0
5, 25920, Note_on_c, 0, 61, 0
5, 25920, Note_on_c, 0, 44, 54
5, 25920, Note_on_c, 0, 56, 54
5, 25920, Note_on_c, 0, 61, 54
5, 25920, Note_on_c, 0, 73, 54
5, 26640, Note_on_c, 0, 73, 0
5, 26640, Note_on_c, 0, 44, 0
5, 26640, Note_on_c, 0, 56, 0
5, 26640, Note_on_c, 0, 61, 0
5, 26640, Note_on_c, 0, 42, 54
5, 26640, Note_on_c, 0, 54, 54
5, 27360, Note_on_c, 0, 54, 0
5, 27360, Note_on_c, 0, 42, 0
5, 29040, Note_on_c, 0, 66, 54
5, 29040, Note_on_c, 0, 72, 54
5, 29087, Note_on_c, 0, 72, 0
5, 29087, Note_on_c, 0, 66, 0
5, 29760, Note_on_c, 0, 57, 54
5, 29760, Note_on_c, 0, 60, 54
5, 29760, Note_on_c, 0, 64, 54
5, 29760, Note_on_c, 0, 67, 54
5, 29807, Note_on_c, 0, 67, 0
5, 29807, Note_on_c, 0, 57, 0
5, 29807, Note_on_c, 0, 60, 0
5, 29807, Note_on_c, 0, 64, 0
5, 30480, Note_on_c, 0, 54, 54
5, 30480, Note_on_c, 0, 60, 54
5, 30480, Note_on_c, 0, 63, 54
5, 30527, Note_on_c, 0, 63, 0
5, 30527, Note_on_c, 0, 60, 0
5, 30527, Note_on_c, 0, 54, 0
5, 30960, Note_on_c, 0, 49, 54
5, 30960, Note_on_c, 0, 53, 54
5, 30960, Note_on_c, 0, 59, 54
5, 31007, Note_on_c, 0, 59, 0
5, 31007, Note_on_c, 0, 53, 0
5, 31007, Note_on_c, 0, 49, 0
5, 31200, Note_on_c, 0, 41, 54
5, 31200, Note_on_c, 0, 47, 54
5, 31440, Note_on_c, 0, 47, 0
5, 31440, Note_on_c, 0, 48, 54
5, 31680, Note_on_c, 0, 48, 0
5, 31680, Note_on_c, 0, 41, 0
5, 34560, Note_on_c, 0, 38, 54
5, 34560, Note_on_c, 0, 45, 54
5, 35040, Note_on_c, 0, 45, 0
5, 35040, Note_on_c, 0, 38, 0
5, 35040, Note_on_c, 0, 38, 54
5, 35040, Note_on_c, 0, 45, 54
5, 35520, Note_on_c, 0, 45, 0
5, 35520, Note_on_c, 0, 38, 0
5, 35520, Note_on_c, 0, 38, 54
5, 35520, Note_on_c, 0, 45, 54
5, 36000, Note_on_c, 0, 45, 0
5, 36000, Note_on_c, 0, 38, 0
5, 36000, Note_on_c, 0, 38, 54
5, 36000, Note_on_c, 0, 45, 54
5, 36480, Note_on_c, 0, 45, 0
5, 36480, Note_on_c, 0, 38, 0
5, 36480, Note_on_c, 0, 38, 54
5, 36480, Note_on_c, 0, 45, 54
5, 36960, Note_on_c, 0, 45, 0
5, 36960, Note_on_c, 0, 38, 0
5, 36960, Note_on_c, 0, 38, 54
5, 36960, Note_on_c, 0, 45, 54
5, 37440, Note_on_c, 0, 45, 0
5, 37440, Note_on_c, 0, 38, 0
5, 37440, Note_on_c, 0, 38, 54
5, 37440, Note_on_c, 0, 45, 54
5, 37920, Note_on_c, 0, 45, 0
5, 37920, Note_on_c, 0, 38, 0
5, 37920, Note_on_c, 0, 38, 54
5, 37920, Note_on_c, 0, 45, 54
5, 38400, Note_on_c, 0, 45, 0
5, 38400, Note_on_c, 0, 38, 0
5, 38400, Note_on_c, 0, 38, 54
5, 38400, Note_on_c, 0, 45, 54
5, 38880, Note_on_c, 0, 45, 0
5, 38880, Note_on_c, 0, 38, 0
5, 38880, Note_on_c, 0, 38, 54
5, 38880, Note_on_c, 0, 45, 54
5, 39360, Note_on_c, 0, 45, 0
5, 39360, Note_on_c, 0, 38, 0
5, 39360, Note_on_c, 0, 38, 54
5, 39360, Note_on_c, 0, 45, 54
5, 39840, Note_on_c, 0, 45, 0
5, 39840, Note_on_c, 0, 38, 0
5, 39840, Note_on_c, 0, 38, 54
5, 39840, Note_on_c, 0, 45, 54
5, 40320, Note_on_c, 0, 45, 0
5, 40320, Note_on_c, 0, 38, 0
5, 40320, Note_on_c, 0, 38, 54
5, 40320, Note_on_c, 0, 45, 54
5, 40800, Note_on_c, 0, 45, 0
5, 40800, Note_on_c, 0, 38, 0
5, 40800, Note_on_c, 0, 38, 54
5, 40800, Note_on_c, 0, 45, 54
5, 41280, Note_on_c, 0, 45, 0
5, 41280, Note_on_c, 0, 38, 0
5, 41280, Note_on_c, 0, 38, 54
5, 41280, Note_on_c, 0, 45, 54
5, 41760, Note_on_c, 0, 45, 0
5, 41760, Note_on_c, 0, 38, 0
5, 41760, Note_on_c, 0, 38, 54
5, 41760, Note_on_c, 0, 45, 54
5, 42240, Note_on_c, 0, 45, 0
5, 42240, Note_on_c, 0, 38, 0
5, 42240, Note_on_c, 0, 38, 54
5, 42240, Note_on_c, 0, 45, 54
5, 42720, Note_on_c, 0, 45, 0
5, 42720, Note_on_c, 0, 38, 0
5, 42720, Note_on_c, 0, 38, 54
5, 42720, Note_on_c, 0, 45, 54
5, 43200, Note_on_c, 0, 45, 0
5, 43200, Note_on_c, 0, 38, 0
5, 43200, Note_on_c, 0, 38, 54
5, 43200, Note_on_c, 0, 45, 54
5, 43680, Note_on_c, 0, 45, 0
5, 43680, Note_on_c, 0, 38, 0
5, 43680, Note_on_c, 0, 38, 54
5, 43680, Note_on_c, 0, 45, 54
5, 44160, Note_on_c, 0, 45, 0
5, 44160, Note_on_c, 0, 38, 0
5, 44160, Note_on_c, 0, 38, 54
5, 44160, Note_on_c, 0, 45, 54
5, 44640, Note_on_c, 0, 45, 0
5, 44640, Note_on_c, 0, 38, 0
5, 44640, Note_on_c, 0, 38, 54
5, 44640, Note_on_c, 0, 45, 54
5, 45120, Note_on_c, 0, 45, 0
5, 45120, Note_on_c, 0, 38, 0
5, 45120, Note_on_c, 0, 38, 54
5, 45120, Note_on_c, 0, 45, 54
5, 45600, Note_on_c, 0, 45, 0
5, 45600, Note_on_c, 0, 38, 0
5, 45600, Note_on_c, 0, 38, 54
5, 45600, Note_on_c, 0, 45, 54
5, 46080, Note_on_c, 0, 45, 0
5, 46080, Note_on_c, 0, 38, 0
5, 46080, Note_on_c, 0, 38, 54
5, 46080, Note_on_c, 0, 45, 54
5, 47520, Note_on_c, 0, 45, 0
5, 47520, Note_on_c, 0, 38, 0
5, 47520, Note_on_c, 0, 38, 54
5, 47520, Note_on_c, 0, 45, 54
5, 48960, Note_on_c, 0, 45, 0
5, 48960, Note_on_c, 0, 38, 0
5, 48960, Note_on_c, 0, 38, 54
5, 48960, Note_on_c, 0, 45, 54
5, 50400, Note_on_c, 0, 45, 0
5, 50400, Note_on_c, 0, 38, 0
5, 50400, Control_c, 0, 64, 127
5, 50400, Note_on_c, 0, 38, 54
5, 50400, Note_on_c, 0, 45, 54
5, 51360, Note_on_c, 0, 45, 0
5, 51360, Note_on_c, 0, 38, 0
5, 52800, Control_c, 0, 64, 0
5, 64800, Note_on_c, 0, 49, 54
5, 65520, Note_on_c, 0, 49, 0
5, 65520, Note_on_c, 0, 48, 54
5, 66240, Note_on_c, 0, 48, 0
5, 66240, Note_on_c, 0, 47, 80
5, 66960, Note_on_c, 0, 47, 0
5, 66960, Note_on_c, 0, 45, 80
5, 67680, Note_on_c, 0, 45, 0
5, 67680, Note_on_c, 0, 44, 80
5, 67680, Note_on_c, 0, 56, 80
5, 67920, Note_on_c, 0, 56, 0
5, 67920, Note_on_c, 0, 51, 80
5, 68160, Note_on_c, 0, 51, 0
5, 68160, Note_on_c, 0, 53, 80
5, 68400, Note_on_c, 0, 53, 0
5, 68400, Note_on_c, 0, 44, 0
5, 68400, Note_on_c, 0, 42, 80
5, 68400, Note_on_c, 0, 54, 80
5, 68880, Note_on_c, 0, 54, 0
5, 68880, Note_on_c, 0, 42, 0
5, 68880, Note_on_c, 0, 43, 80
5, 68880, Note_on_c, 0, 52, 80
5, 69120, Note_on_c, 0, 52, 0
5, 69120, Note_on_c, 0, 43, 0
5, 69360, Note_on_c, 0, 43, 67
5, 69360, Note_on_c, 0, 52, 67
5, 69360, Note_on_c, 0, 61, 67
5, 69600, Note_on_c, 0, 61, 0
5, 69600, Note_on_c, 0, 52, 0
5, 69600, Note_on_c, 0, 43, 0
5, 69600, Note_on_c, 0, 43, 67
5, 69600, Note_on_c, 0, 52, 67
5, 69600, Note_on_c, 0, 61, 67
5, 69840, Note_on_c, 0, 61, 0
5, 69840, Note_on_c, 0, 52, 0
5, 69840, Note_on_c, 0, 43, 0
5, 70080, Note_on_c, 0, 44, 67
5, 70080, Note_on_c, 0, 51, 67
5, 70320, Note_on_c, 0, 51, 0
5, 70320, Note_on_c, 0, 44, 0
5, 70320, Note_on_c, 0, 44, 67
5, 70320, Note_on_c, 0, 51, 67
5, 70470, Note_on_c, 0, 37, 67
5, 70500, Note_on_c, 0, 44, 67
5, 70530, Note_on_c, 0, 49, 67
5, 70560, Note_on_c, 0, 51, 0
5, 70560, Note_on_c, 0, 44, 0
5, 70560, Control_c, 0, 64, 127
5, 70560, Note_on_c, 0, 53, 54
5, 70800, Note_on_c, 0, 53, 0
5, 70800, Note_on_c, 0, 49, 0
5, 70800, Note_on_c, 0, 37, 0
5, 70800, Note_on_c, 0, 44, 0
5, 70800, Note_on_c, 0, 49, 54
5, 70800, Note_on_c, 0, 56, 54
5, 71040, Note_on_c, 0, 56, 0
5, 71040, Note_on_c, 0, 49, 0
5, 71040, Note_on_c, 0, 49, 54
5, 71040, Note_on_c, 0, 56, 54
5, 71280, Note_on_c, 0, 56, 0
5, 71280, Note_on_c, 0, 49, 0
5, 71520, Note_on_c, 0, 49, 54
5, 71520, Note_on_c, 0, 56, 54
5, 71760, Note_on_c, 0, 56, 0
5, 71760, Note_on_c, 0, 49, 0
5, 71760, Control_c, 0, 64, 0
5, 71760, Note_on_c, 0, 49, 54
5, 71760, Note_on_c, 0, 56, 54
5, 72000, Note_on_c, 0, 56, 0
5, 72000, Note_on_c, 0, 49, 0
5, 72000, Control_c, 0, 64, 127
5, 72000, Note_on_c, 0, 53, 67
5, 72240, Note_on_c, 0, 53, 0
5, 72240, Note_on_c, 0, 49, 67
5, 72240, Note_on_c, 0, 56, 67
5, 72480, Note_on_c, 0, 56, 0
5, 72480, Note_on_c, 0, 49, 0
5, 72480, Note_on_c, 0, 49, 67
5, 72480, Note_on_c, 0, 56, 67
5, 72480, Note_on_c, 0, 61, 67
5, 72720, Note_on_c, 0, 61, 0
5, 72720, Note_on_c, 0, 56, 0
5, 72720, Note_on_c, 0, 49, 0
5, 72720, Note_on_c, 0, 63, 67
5, 72960, Note_on_c, 0, 63, 0
5, 72960, Note_on_c, 0, 49, 67
5, 72960, Note_on_c, 0, 56, 67
5, 72960, Note_on_c, 0, 62, 67
5, 73200, Note_on_c, 0, 62, 0
5, 73200, Note_on_c, 0, 56, 0
5, 73200, Note_on_c, 0, 49, 0
5, 73200, Control_c, 0, 64, 0
5, 73200, Note_on_c, 0, 49, 67
5, 73200, Note_on_c, 0, 56, 67
5, 73200, Note_on_c, 0, 63, 67
5, 73440, Note_on_c, 0, 63, 0
5, 73440, Note_on_c, 0, 56, 0
5, 73440, Note_on_c, 0, 49, 0
5, 73440, Control_c, 0, 64, 127
5, 73440, Note_on_c, 0, 65, 54
5, 73680, Note_on_c, 0, 65, 0
5, 73680, Note_on_c, 0, 49, 54
5, 73680, Note_on_c, 0, 56, 54
5, 73920, Note_on_c, 0, 56, 0
5, 73920, Note_on_c, 0, 49, 0
5, 73920, Control_c, 0, 64, 0
5, 73920, Note_on_c, 0, 49, 54
5, 73920, Note_on_c, 0, 56, 54
5, 74160, Note_on_c, 0, 56, 0
5, 74160, Note_on_c, 0, 49, 0
5, 74160, Control_c, 0, 64, 127
5, 74160, Note_on_c, 0, 66, 54
5, 74400, Note_on_c, 0, 66, 0
5, 74400, Note_on_c, 0, 49, 54
5, 74400, Note_on_c, 0, 56, 54
5, 74640, Note_on_c, 0, 56, 0
5, 74640, Note_on_c, 0, 49, 0
5, 74640, Control_c, 0, 64, 0
5, 74640, Note_on_c, 0, 49, 54
5, 74640, Note_on_c, 0, 54, 54
5, 74640, Note_on_c, 0, 56, 54
5, 74880, Note_on_c, 0, 56, 0
5, 74880, Note_on_c, 0, 54, 0
5, 74880, Note_on_c, 0, 49, 0
5, 74880, Control_c, 0, 64, 127
5, 74880, Note_on_c, 0, 53, 67
5, 75120, Note_on_c, 0, 53, 0
5, 75120, Note_on_c, 0, 49, 67
5, 75120, Note_on_c, 0, 56, 67
5, 75360, Note_on_c, 0, 56, 0
5, 75360, Note_on_c, 0, 49, 0
5, 75360, Note_on_c, 0, 49, 67
5, 75360, Note_on_c, 0, 56, 67
5, 75360, Note_on_c, 0, 61, 67
5, 75600, Note_on_c, 0, 61, 0
5, 75600, Note_on_c, 0, 56, 0
5, 75600, Note_on_c, 0, 49, 0
5, 75600, Note_on_c, 0, 63, 67
5, 75840, Note_on_c, 0, 63, 0
5, 75840, Note_on_c, 0, 49, 67
5, 75840, Note_on_c, 0, 56, 67
5, 75840, Note_on_c, 0, 62, 67
5, 76080, Note_on_c, 0, 62, 0
5, 76080, Note_on_c, 0, 56, 0
5, 76080, Note_on_c, 0, 49, 0
5, 76080, Control_c, 0, 64, 0
5, 76080, Note_on_c, 0, 49, 67
5, 76080, Note_on_c, 0, 56, 67
5, 76080, Note_on_c, 0, 63, 67
5, 76320, Note_on_c, 0, 63, 0
5, 76320, Note_on_c, 0, 56, 0
5, 76320, Note_on_c, 0, 49, 0
5, 76320, Control_c, 0, 64, 127
5, 76320, Note_on_c, 0, 56, 67
5, 76560, Note_on_c, 0, 56, 0
5, 76560, Note_on_c, 0, 49, 67
5, 76800, Note_on_c, 0, 49, 0
5, 76800, Control_c, 0, 64, 0
5, 76800, Note_on_c, 0, 49, 67
5, 77040, Note_on_c, 0, 49, 0
5, 77040, Control_c, 0, 64, 127
5, 77040, Note_on_c, 0, 48, 80
5, 77040, Note_on_c, 0, 60, 80
5, 77280, Note_on_c, 0, 60, 0
5, 77280, Note_on_c, 0, 48, 0
5, 77280, Note_on_c, 0, 61, 80
5, 77520, Note_on_c, 0, 61, 0
5, 77520, Control_c, 0, 64, 0
5, 77520, Note_on_c, 0, 63, 80
5, 77760, Note_on_c, 0, 63, 0
5, 77760, Note_on_c, 0, 47, 67
5, 77760, Note_on_c, 0, 56, 67
5, 77760, Note_on_c, 0, 61, 67
5, 78240, Note_on_c, 0, 61, 0
5, 78240, Note_on_c, 0, 56, 0
5, 78240, Note_on_c, 0, 47, 0
5, 78240, Note_on_c, 0, 61, 67
5, 78480, Note_on_c, 0, 61, 0
5, 78480, Note_on_c, 0, 45, 67
5, 78480, Note_on_c, 0, 54, 67
5, 79200, Note_on_c, 0, 54, 0
5, 79200, Note_on_c, 0, 45, 0
5, 79200, Note_on_c, 0, 44, 67
5, 79200, Note_on_c, 0, 56, 67
5, 79440, Note_on_c, 0, 56, 0
5, 79440, Note_on_c, 0, 44, 0
5, 79440, Note_on_c, 0, 56, 67
5, 79440, Note_on_c, 0, 61, 67
5, 79440, Note_on_c, 0, 66, 67
5, 79680, Note_on_c, 0, 66, 0
5, 79680, Note_on_c, 0, 61, 0
5, 79680, Note_on_c, 0, 56, 0
5, 79680, Note_on_c, 0, 65, 67
5, 79920, Note_on_c, 0, 65, 0
5, 79920, Note_on_c, 0, 42, 67
5, 79920, Note_on_c, 0, 54, 67
5, 80160, Note_on_c, 0, 54, 0
5, 80160, Note_on_c, 0, 42, 0
5, 80160, Note_on_c, 0, 54, 67
5, 80160, Note_on_c, 0, 58, 67
5, 80160, Note_on_c, 0, 64, 67
5, 80640, Note_on_c, 0, 64, 0
5, 80640, Note_on_c, 0, 58, 0
5, 80640, Note_on_c, 0, 54, 0
5, 80640, Note_on_c, 0, 53, 67
5, 80640, Note_on_c, 0, 57, 67
5, 80640, Note_on_c, 0, 65, 67
5, 82080, Note_on_c, 0, 65, 0
5, 82080, Note_on_c, 0, 57, 0
5, 82080, Note_on_c, 0, 53, 0
5, 82080, Note_on_c, 0, 53, 67
5, 82080, Note_on_c, 0, 60, 67
5, 82320, Note_on_c, 0, 60, 0
5, 82320, Note_on_c, 0, 53, 0
5, 98160, Control_c, 0, 64, 127
5, 98160, Note_on_c, 0, 57, 80
5, 98160, Note_on_c, 0, 62, 80
5, 98160, Note_on_c, 0, 65, 80
5, 98207, Note_on_c, 0, 65, 0
5, 98207, Note_on_c, 0, 62, 0
5, 98207, Note_on_c, 0, 57, 0
5, 98640, Control_c, 0, 64, 0
5, 101040, Note_on_c, 0, 55, 80
5, 101040, Note_on_c, 0, 62, 80
5, 101040, Note_on_c, 0, 65, 80
5, 101087, Note_on_c, 0, 65, 0
5, 101087, Note_on_c, 0, 62, 0
5, 101087, Note_on_c, 0, 55, 0
5, 103920, Control_c, 0, 64, 127
5, 103920, Note_on_c, 0, 45, 80
5, 103920, Note_on_c, 0, 50, 80
5, 103920, Note_on_c, 0, 53, 80
5, 103967, Note_on_c, 0, 53, 0
5, 103967, Note_on_c, 0, 50, 0
5, 103967, Note_on_c, 0, 45, 0
5, 104400, Control_c, 0, 64, 0
5, 106800, Control_c, 0, 64, 127
5, 106800, Note_on_c, 0, 45, 80
5, 106800, Note_on_c, 0, 50, 80
5, 106800, Note_on_c, 0, 53, 80
5, 106847, Note_on_c, 0, 53, 0
5, 106847, Note_on_c, 0, 50, 0
5, 106847, Note_on_c, 0, 45, 0
5, 107280, Control_c, 0, 64, 0
5, 115440, Note_on_c, 0, 50, 54
5, 115536, Note_on_c, 0, 50, 0
5, 116160, Note_on_c, 0, 45, 54
5, 116256, Note_on_c, 0, 45, 0
5, 116880, Note_on_c, 0, 49, 54
5, 116976, Note_on_c, 0, 49, 0
5, 117600, Note_on_c, 0, 45, 54
5, 117696, Note_on_c, 0, 45, 0
5, 118320, Note_on_c, 0, 49, 54
5, 118416, Note_on_c, 0, 49, 0
5, 119040, Note_on_c, 0, 45, 54
5, 119136, Note_on_c, 0, 45, 0
5, 119760, Note_on_c, 0, 50, 54
5, 119856, Note_on_c, 0, 50, 0
5, 120480, Note_on_c, 0, 45, 54
5, 120576, Note_on_c, 0, 45, 0
5, 121200, Note_on_c, 0, 50, 54
5, 121296, Note_on_c, 0, 50, 0
5, 121920, Note_on_c, 0, 45, 54
5, 122016, Note_on_c, 0, 45, 0
5, 122640, Note_on_c, 0, 49, 54
5, 122736, Note_on_c, 0, 49, 0
5, 123360, Note_on_c, 0, 45, 54
5, 123456, Note_on_c, 0, 45, 0
5, 124080, Note_on_c, 0, 49, 54
5, 124176, Note_on_c, 0, 49, 0
5, 124800, Note_on_c, 0, 45, 54
5, 124896, Note_on_c, 0, 45, 0
5, 125520, Note_on_c, 0, 50, 54
5, 125616, Note_on_c, 0, 50, 0
5, 126240, Note_on_c, 0, 38, 54
5, 126336, Note_on_c, 0, 38, 0
5, 126960, Note_on_c, 0, 47, 54
5, 127056, Note_on_c, 0, 47, 0
5, 127680, Note_on_c, 0, 42, 54
5, 127776, Note_on_c, 0, 42, 0
5, 128400, Note_on_c, 0, 49, 54
5, 128496, Note_on_c, 0, 49, 0
5, 129120, Note_on_c, 0, 42, 54
5, 129216, Note_on_c, 0, 42, 0
5, 129840, Note_on_c, 0, 47, 54
5, 129936, Note_on_c, 0, 47, 0
5, 130560, Note_on_c, 0, 42, 54
5, 130656, Note_on_c, 0, 42, 0
5, 131280, Note_on_c, 0, 49, 54
5, 131376, Note_on_c, 0, 49, 0
5, 131760, Note_on_c, 0, 42, 54
5, 131807, Note_on_c, 0, 42, 0
5, 132000, Note_on_c, 0, 45, 54
5, 132096, Note_on_c, 0, 45, 0
5, 132720, Note_on_c, 0, 50, 54
5, 132816, Note_on_c, 0, 50, 0
5, 133440, Note_on_c, 0, 45, 54
5, 133536, Note_on_c, 0, 45, 0
5, 134160, Note_on_c, 0, 52, 54
5, 134256, Note_on_c, 0, 52, 0
5, 134880, Note_on_c, 0, 45, 54
5, 134976, Note_on_c, 0, 45, 0
5, 135600, Note_on_c, 0, 50, 54
5, 135696, Note_on_c, 0, 50, 0
5, 136320, Note_on_c, 0, 45, 54
5, 136416, Note_on_c, 0, 45, 0
5, 137040, Note_on_c, 0, 52, 54
5, 137136, Note_on_c, 0, 52, 0
5, 137760, Note_on_c, 0, 45, 54
5, 137856, Note_on_c, 0, 45, 0
5, 138480, Note_on_c, 0, 50, 54
5, 138576, Note_on_c, 0, 50, 0
5, 139200, Note_on_c, 0, 45, 54
5, 139296, Note_on_c, 0, 45, 0
5, 139920, Note_on_c, 0, 48, 54
5, 140016, Note_on_c, 0, 48, 0
5, 140640, Note_on_c, 0, 41, 54
5, 140640, Note_on_c, 0, 55, 54
5, 140687, Note_on_c, 0, 55, 0
5, 140687, Note_on_c, 0, 41, 0
5, 140880, Note_on_c, 0, 54, 54
5, 141120, Note_on_c, 0, 54, 0
5, 141120, Note_on_c, 0, 53, 54
5, 141120, Note_on_c, 0, 65, 54
5, 141360, Note_on_c, 0, 65, 0
5, 141360, Note_on_c, 0, 53, 0
5, 141360, Note_on_c, 0, 46, 54
5, 141360, Note_on_c, 0, 55, 54
5, 141456, Note_on_c, 0, 55, 0
5, 141456, Note_on_c, 0, 46, 0
5, 142080, Note_on_c, 0, 41, 54
5, 142176, Note_on_c, 0, 41, 0
5, 142800, Note_on_c, 0, 45, 54
5, 142896, Note_on_c, 0, 45, 0
5, 143520, Note_on_c, 0, 41, 54
5, 143616, Note_on_c, 0, 41, 0
5, 144240, Note_on_c, 0, 45, 54
5, 144336, Note_on_c, 0, 45, 0
5, 144960, Note_on_c, 0, 41, 54
5, 145056, Note_on_c, 0, 41, 0
5, 145680, Note_on_c, 0, 46, 54
5, 145776, Note_on_c, 0, 46, 0
5, 146400, Note_on_c, 0, 41, 54
5, 146496, Note_on_c, 0, 41, 0
5, 147120, Note_on_c, 0, 46, 54
5, 147216, Note_on_c, 0, 46, 0
5, 147840, Note_on_c, 0, 41, 54
5, 147936, Note_on_c, 0, 41, 0
5, 148560, Note_on_c, 0, 45, 54
5, 148656, Note_on_c, 0, 45, 0
5, 149280, Note_on_c, 0, 41, 54
5, 149376, Note_on_c, 0, 41, 0
5, 150000, Note_on_c, 0, 45, 54
5, 150096, Note_on_c, 0, 45, 0
5, 150720, Note_on_c, 0, 41, 54
5, 150816, Note_on_c, 0, 41, 0
5, 151440, Note_on_c, 0, 46, 54
5, 151536, Note_on_c, 0, 46, 0
5, 152160, Note_on_c, 0, 34, 54
5, 152256, Note_on_c, 0, 34, 0
5, 152880, Note_on_c, 0, 43, 54
5, 152880, Note_on_c, 0, 55, 54
5, 152976, Note_on_c, 0, 55, 0
5, 152976, Note_on_c, 0, 43, 0
5, 153600, Note_on_c, 0, 38, 54
5, 153696, Note_on_c, 0, 38, 0
5, 154320, Note_on_c, 0, 45, 54
5, 154320, Note_on_c, 0, 57, 54
5, 154416, Note_on_c, 0, 57, 0
5, 154416, Note_on_c, 0, 45, 0
5, 155040, Note_on_c, 0, 38, 54
5, 155040, Note_on_c, 0, 50, 54
5, 155136, Note_on_c, 0, 50, 0
5, 155136, Note_on_c, 0, 38, 0
5, 155760, Note_on_c, 0, 43, 54
5, 155760, Note_on_c, 0, 55, 54
5, 155856, Note_on_c, 0, 55, 0
5, 155856, Note_on_c, 0, 43, 0
5, 156480, Note_on_c, 0, 38, 54
5, 156480, Note_on_c, 0, 50, 54
5, 156576, Note_on_c, 0, 50, 0
5, 156576, Note_on_c, 0, 38, 0
5, 157200, Note_on_c, 0, 45, 54
5, 157200, Note_on_c, 0, 57, 54
5, 157296, Note_on_c, 0, 57, 0
5, 157296, Note_on_c, 0, 45, 0
5, 157920, Note_on_c, 0, 38, 54
5, 157920, Note_on_c, 0, 50, 54
5, 158016, Note_on_c, 0, 50, 0
5, 158016, Note_on_c, 0, 38, 0
5, 158640, Note_on_c, 0, 43, 54
5, 158640, Note_on_c, 0, 55, 54
5, 158880, Note_on_c, 0, 55, 0
5, 158880, Note_on_c, 0, 43, 0
5, 158880, Note_on_c, 0, 55, 54
5, 158880, Note_on_c, 0, 58, 54
5, 158880, Note_on_c, 0, 63, 54
5, 159120, Note_on_c, 0, 63, 0
5, 159120, Note_on_c, 0, 58, 0
5, 159120, Note_on_c, 0, 55, 0
5, 159120, Note_on_c, 0, 62, 54
5, 159360, Note_on_c, 0, 62, 0
5, 159600, Note_on_c, 0, 55, 54
5, 159600, Note_on_c, 0, 58, 54
5, 159600, Note_on_c, 0, 63, 54
5, 159840, Note_on_c, 0, 63, 0
5, 159840, Note_on_c, 0, 58, 0
5, 159840, Note_on_c, 0, 55, 0
5, 159840, Note_on_c, 0, 62, 54
5, 160080, Note_on_c, 0, 62, 0
5, 160320, Note_on_c, 0, 55, 54
5, 160320, Note_on_c, 0, 58, 54
5, 160320, Note_on_c, 0, 62, 54
5, 160560, Note_on_c, 0, 62, 0
5, 160560, Note_on_c, 0, 58, 0
5, 160560, Note_on_c, 0, 55, 0
5, 160560, Note_on_c, 0, 63, 54
5, 160800, Note_on_c, 0, 63, 0
5, 161040, Note_on_c, 0, 55, 54
5, 161040, Note_on_c, 0, 58, 54
5, 161040, Note_on_c, 0, 62, 54
5, 161280, Note_on_c, 0, 62, 0
5, 161280, Note_on_c, 0, 58, 0
5, 161280, Note_on_c, 0, 55, 0
5, 161280, Note_on_c, 0, 63, 54
5, 161520, Note_on_c, 0, 63, 0
5, 161760, Note_on_c, 0, 54, 54
5, 161760, Note_on_c, 0, 58, 54
5, 161760, Note_on_c, 0, 63, 54
5, 162000, Note_on_c, 0, 63, 0
5, 162000, Note_on_c, 0, 58, 0
5, 162000, Note_on_c, 0, 54, 0
5, 162000, Note_on_c, 0, 64, 54
5, 162240, Note_on_c, 0, 64, 0
5, 162480, Note_on_c, 0, 54, 54
5, 162480, Note_on_c, 0, 58, 54
5, 162480, Note_on_c, 0, 63, 54
5, 162720, Note_on_c, 0, 63, 0
5, 162720, Note_on_c, 0, 58, 0
5, 162720, Note_on_c, 0, 54, 0
5, 162720, Note_on_c, 0, 64, 54
5, 162960, Note_on_c, 0, 64, 0
5, 163200, Note_on_c, 0, 49, 54
5, 163200, Note_on_c, 0, 54, 54
5, 163200, Note_on_c, 0, 60, 54
5, 163440, Note_on_c, 0, 60, 0
5, 163440, Note_on_c, 0, 54, 0
5, 163440, Note_on_c, 0, 49, 0
5, 163440, Note_on_c, 0, 61, 54
5, 163680, Note_on_c, 0, 61, 0
5, 163680, Note_on_c, 0, 42, 54
5, 163680, Note_on_c, 0, 48, 54
5, 164160, Note_on_c, 0, 48, 0
5, 164160, Note_on_c, 0, 42, 0
5, 164160, Note_on_c, 0, 41, 54
5, 164400, Note_on_c, 0, 41, 0
5, 175920, Control_c, 0, 64, 127
5, 175920, Note_on_c, 0, 57, 80
5, 175920, Note_on_c, 0, 62, 80
5, 175920, Note_on_c, 0, 65, 80
5, 175967, Note_on_c, 0, 65, 0
5, 175967, Note_on_c, 0, 62, 0
5, 175967, Note_on_c, 0, 57, 0
5, 176400, Control_c, 0, 64, 0
5, 178800, Note_on_c, 0, 55, 80
5, 178800, Note_on_c, 0, 62, 80
5, 178800, Note_on_c, 0, 65, 80
5, 178847, Note_on_c, 0, 65, 0
5, 178847, Note_on_c, 0, 62, 0
5, 178847, Note_on_c, 0, 55, 0
5, 181680, Control_c, 0, 64, 127
5, 181680, Note_on_c, 0, 45, 80
5, 181680, Note_on_c, 0, 50, 80
5, 181680, Note_on_c, 0, 53, 80
5, 181727, Note_on_c, 0, 53, 0
5, 181727, Note_on_c, 0, 50, 0
5, 181727, Note_on_c, 0, 45, 0
5, 182160, Control_c, 0, 64, 0
5, 184560, Control_c, 0, 64, 127
5, 184560, Note_on_c, 0, 45, 80
5, 184560, Note_on_c, 0, 50, 80
5, 184560, Note_on_c, 0, 53, 80
5, 184607, Note_on_c, 0, 53, 0
5, 184607, Note_on_c, 0, 50, 0
5, 184607, Note_on_c, 0, 45, 0
5, 185040, Control_c, 0, 64, 0
5, 193200, Note_on_c, 0, 42, 67
5, 193200, Note_on_c, 0, 49, 67
5, 193200, Note_on_c, 0, 51, 67
5, 193200, Note_on_c, 0, 54, 67
5, 193680, Note_on_c, 0, 54, 0
5, 193680, Note_on_c, 0, 42, 0
5, 193680, Note_on_c, 0, 49, 0
5, 193680, Note_on_c, 0, 51, 0
5, 211440, Note_on_c, 0, 49, 54
5, 211440, Note_on_c, 0, 61, 54
5, 212160, Note_on_c, 0, 61, 0
5, 212160, Note_on_c, 0, 49, 0
5, 212160, Note_on_c, 0, 56, 54
5, 212160, Note_on_c, 0, 68, 54
5, 212880, Note_on_c, 0, 68, 0
5, 212880, Note_on_c, 0, 56, 0
5, 212880, Note_on_c, 0, 49, 54
5, 212880, Note_on_c, 0, 56, 54
5, 212880, Note_on_c, 0, 68, 54
5, 213600, Note_on_c, 0, 68, 0
5, 213600, Note_on_c, 0, 56, 0
5, 213600, Note_on_c, 0, 56, 54
5, 213600, Note_on_c, 0, 68, 54
5, 214320, Note_on_c, 0, 68, 0
5, 214320, Note_on_c, 0, 56, 0
5, 214320, Note_on_c, 0, 49, 0
5, 214320, Note_on_c, 0, 49, 54
5, 214320, Note_on_c, 0, 68, 54
5, 217200, Note_on_c, 0, 68, 0
5, 217200, Note_on_c, 0, 49, 0
5, 217200, Note_on_c, 0, 49, 54
5, 217200, Note_on_c, 0, 68, 54
5, 217920, Note_on_c, 0, 68, 0
5, 217920, Note_on_c, 0, 49, 0
5, 217920, Note_on_c, 0, 48, 54
5, 217920, Note_on_c, 0, 68, 54
5, 218640, Note_on_c, 0, 68, 0
5, 218640, Note_on_c, 0, 48, 0
5, 218640, Note_on_c, 0, 47, 54
5, 218640, Note_on_c, 0, 68, 54
5, 219360, Note_on_c, 0, 68, 0
5, 219360, Note_on_c, 0, 47, 0
5, 219360, Note_on_c, 0, 45, 54
5, 219360, Note_on_c, 0, 61, 54
5, 219360, Note_on_c, 0, 73, 54
5, 220080, Note_on_c, 0, 73, 0
5, 220080, Note_on_c, 0, 61, 0
5, 220080, Note_on_c, 0, 45, 0
5, 220080, Note_on_c, 0, 44, 54
5, 220080, Note_on_c, 0, 61, 54
5, 220080, Note_on_c, 0, 73, 54
5, 220800, Note_on_c, 0, 73, 0
5, 220800, Note_on_c, 0, 61, 0
5, 220800, Note_on_c, 0, 44, 0
5, 220800, Note_on_c, 0, 42, 54
5, 221520, Note_on_c, 0, 42, 0
5, 221520, Note_on_c, 0, 49, 54
5, 221520, Note_on_c, 0, 54, 54
5, 222240, Note_on_c, 0, 49, 0
5, 222240, Note_on_c, 0, 48, 54
5, 222720, Note_on_c, 0, 48, 0
5, 222720, Note_on_c, 0, 54, 0
5, 222960, Control_c, 0, 64, 127
5, 222960, Note_on_c, 0, 49, 54
5, 223200, Note_on_c, 0, 49, 0
5, 223200, Note_on_c, 0, 56, 54
5, 223200, Note_on_c, 0, 61, 54
5, 223200, Note_on_c, 0, 65, 54
5, 223440, Note_on_c, 0, 65, 0
5, 223440, Note_on_c, 0, 61, 0
5, 223440, Note_on_c, 0, 56, 0
5, 223440, Control_c, 0, 64, 0
5, 223440, Note_on_c, 0, 61, 54
5, 223440, Note_on_c, 0, 65, 54
5, 223440, Note_on_c, 0, 68, 54
5, 223680, Note_on_c, 0, 68, 0
5, 223680, Note_on_c, 0, 65, 0
5, 223680, Note_on_c, 0, 61, 0
5, 223680, Control_c, 0, 64, 127
5, 223680, Note_on_c, 0, 48, 54
5, 223920, Note_on_c, 0, 48, 0
5, 223920, Note_on_c, 0, 56, 54
5, 223920, Note_on_c, 0, 63, 54
5, 223920, Note_on_c, 0, 66, 54
5, 224160, Note_on_c, 0, 66, 0
5, 224160, Note_on_c, 0, 63, 0
5, 224160, Note_on_c, 0, 56, 0
5, 224160, Control_c, 0, 64, 0
5, 224160, Note_on_c, 0, 63, 54
5, 224160, Note_on_c, 0, 66, 54
5, 224160, Note_on_c, 0, 68, 54
5, 224400, Note_on_c, 0, 68, 0
5, 224400, Note_on_c, 0, 66, 0
5, 224400, Note_on_c, 0, 63, 0
5, 224400, Control_c, 0, 64, 127
5, 224400, Note_on_c, 0, 47, 54
5, 224640, Note_on_c, 0, 47, 0
5, 224640, Note_on_c, 0, 56, 54
5, 224640, Note_on_c, 0, 61, 54
5, 224640, Note_on_c, 0, 65, 54
5, 224880, Note_on_c, 0, 65, 0
5, 224880, Note_on_c, 0, 61, 0
5, 224880, Note_on_c, 0, 56, 0
5, 224880, Note_on_c, 0, 61, 54
5, 224880, Note_on_c, 0, 65, 54
5, 224880, Note_on_c, 0, 68, 54
5, 225120, Note_on_c, 0, 68, 0
5, 225120, Note_on_c, 0, 65, 0
5, 225120, Note_on_c, 0, 61, 0
5, 225360, Note_on_c, 0, 56, 54
5, 225360, Note_on_c, 0, 61, 54
5, 225360, Note_on_c, 0, 65, 54
5, 225600, Note_on_c, 0, 65, 0
5, 225600, Note_on_c, 0, 61, 0
5, 225600, Note_on_c, 0, 56, 0
5, 225600, Control_c, 0, 64, 0
5, 225600, Note_on_c, 0, 61, 54
5, 225600, Note_on_c, 0, 65, 54
5, 225600, Note_on_c, 0, 68, 54
5, 225840, Note_on_c, 0, 68, 0
5, 225840, Note_on_c, 0, 65, 0
5, 225840, Note_on_c, 0, 61, 0
5, 225840, Control_c, 0, 64, 127
5, 225840, Note_on_c, 0, 46, 54
5, 226080, Note_on_c, 0, 46, 0
5, 226080, Note_on_c, 0, 54, 54
5, 226080, Note_on_c, 0, 61, 54
5, 226080, Note_on_c, 0, 63, 54
5, 226320, Note_on_c, 0, 63, 0
5, 226320, Note_on_c, 0, 61, 0
5, 226320, Note_on_c, 0, 54, 0
5, 226320, Note_on_c, 0, 61, 54
5, 226320, Note_on_c, 0, 63, 54
5, 226320, Note_on_c, 0, 66, 54
5, 226560, Note_on_c, 0, 66, 0
5, 226560, Note_on_c, 0, 63, 0
5, 226560, Note_on_c, 0, 61, 0
5, 226560, Control_c, 0, 64, 0
5, 226800, Note_on_c, 0, 54, 54
5, 226800, Note_on_c, 0, 60, 54
5, 226800, Note_on_c, 0, 63, 54
5, 227040, Note_on_c, 0, 63, 0
5, 227040, Note_on_c, 0, 60, 0
5, 227040, Note_on_c, 0, 54, 0
5, 227040, Note_on_c, 0, 60, 54
5, 227040, Note_on_c, 0, 63, 54
5, 227040, Note_on_c, 0, 66, 54
5, 227280, Note_on_c, 0, 66, 0
5, 227280, Note_on_c, 0, 63, 0
5, 227280, Note_on_c, 0, 60, 0
5, 227280, Control_c, 0, 64, 127
5, 227280, Note_on_c, 0, 45, 54
5, 227520, Note_on_c, 0, 45, 0
5, 227520, Note_on_c, 0, 53, 54
5, 227520, Note_on_c, 0, 60, 54
5, 227520, Note_on_c, 0, 63, 54
5, 227760, Note_on_c, 0, 63, 0
5, 227760, Note_on_c, 0, 60, 0
5, 227760, Note_on_c, 0, 53, 0
5, 227760, Control_c, 0, 64, 0
5, 227760, Note_on_c, 0, 60, 54
5, 227760, Note_on_c, 0, 63, 54
5, 227760, Note_on_c, 0, 65, 54
5, 228000, Note_on_c, 0, 65, 0
5, 228000, Note_on_c, 0, 63, 0
5, 228000, Note_on_c, 0, 60, 0
5, 228000, Control_c, 0, 64, 127
5, 228000, Note_on_c, 0, 44, 54
5, 228240, Note_on_c, 0, 44, 0
5, 228240, Note_on_c, 0, 53, 54
5, 228240, Note_on_c, 0, 58, 54
5, 228240, Note_on_c, 0, 62, 54
5, 228480, Note_on_c, 0, 62, 0
5, 228480, Note_on_c, 0, 58, 0
5, 228480, Note_on_c, 0, 53, 0
5, 228480, Control_c, 0, 64, 0
5, 228480, Note_on_c, 0, 58, 54
5, 228480, Note_on_c, 0, 62, 54
5, 228480, Note_on_c, 0, 65, 54
5, 228720, Note_on_c, 0, 65, 0
5, 228720, Note_on_c, 0, 62, 0
5, 228720, Note_on_c, 0, 58, 0
5, 228720, Control_c, 0, 64, 127
5, 228720, Note_on_c, 0, 44, 54
5, 228960, Note_on_c, 0, 44, 0
5, 228960, Note_on_c, 0, 53, 54
5, 228960, Note_on_c, 0, 58, 54
5, 228960, Note_on_c, 0, 62, 54
5, 229200, Note_on_c, 0, 62, 0
5, 229200, Note_on_c, 0, 58, 0
5, 229200, Note_on_c, 0, 53, 0
5, 229200, Control_c, 0, 64, 0
5, 229200, Note_on_c, 0, 58, 54
5, 229200, Note_on_c, 0, 62, 54
5, 229200, Note_on_c, 0, 65, 54
5, 229440, Note_on_c, 0, 65, 0
5, 229440, Note_on_c, 0, 62, 0
5, 229440, Note_on_c, 0, 58, 0
5, 229440, Control_c, 0, 64, 127
5, 229440, Note_on_c, 0, 42, 54
5, 229680, Note_on_c, 0, 42, 0
5, 229680, Note_on_c, 0, 54, 54
5, 229680, Note_on_c, 0, 58, 54
5, 229920, Note_on_c, 0, 58, 0
5, 229920, Note_on_c, 0, 54, 0
5, 229920, Control_c, 0, 64, 0
5, 229920, Note_on_c, 0, 58, 54
5, 229920, Note_on_c, 0, 63, 54
5, 229920, Note_on_c, 0, 66, 54
5, 230160, Note_on_c, 0, 66, 0
5, 230160, Note_on_c, 0, 63, 0
5, 230160, Note_on_c, 0, 58, 0
5, 230160, Control_c, 0, 64, 127
5, 230160, Note_on_c, 0, 41, 54
5, 230400, Note_on_c, 0, 41, 0
5, 230400, Note_on_c, 0, 56, 54
5, 230400, Note_on_c, 0, 61, 54
5, 230400, Note_on_c, 0, 65, 54
5, 230640, Note_on_c, 0, 65, 0
5, 230640, Note_on_c, 0, 61, 0
5, 230640, Note_on_c, 0, 56, 0
5, 230640, Control_c, 0, 64, 0
5, 230640, Note_on_c, 0, 61, 54
5, 230640, Note_on_c, 0, 65, 54
5, 230880, Note_on_c, 0, 65, 0
5, 230880, Note_on_c, 0, 61, 0
5, 230880, Control_c, 0, 64, 127
5, 230880, Note_on_c, 0, 39, 54
5, 230880, Note_on_c, 0, 70, 54
5, 231120, Note_on_c, 0, 70, 0
5, 231120, Note_on_c, 0, 39, 0
5, 231120, Note_on_c, 0, 58, 67
5, 231120, Note_on_c, 0, 61, 67
5, 231120, Note_on_c, 0, 66, 67
5, 231360, Note_on_c, 0, 66, 0
5, 231360, Note_on_c, 0, 61, 0
5, 231360, Note_on_c, 0, 58, 0
5, 231360, Control_c, 0, 64, 0
5, 231360, Note_on_c, 0, 61, 67
5, 231360, Note_on_c, 0, 63, 67
5, 231360, Note_on_c, 0, 66, 67
5, 231360, Note_on_c, 0, 70, 67
5, 231600, Note_on_c, 0, 70, 0
5, 231600, Note_on_c, 0, 61, 0
5, 231600, Note_on_c, 0, 63, 0
5, 231600, Note_on_c, 0, 66, 0
5, 231600, Control_c, 0, 64, 127
5, 231600, Note_on_c, 0, 41, 54
5, 231600, Note_on_c, 0, 65, 54
5, 231840, Note_on_c, 0, 65, 0
5, 231840, Note_on_c, 0, 41, 0
5, 231840, Note_on_c, 0, 56, 54
5, 231840, Note_on_c, 0, 61, 54
5, 231840, Note_on_c, 0, 65, 54
5, 232080, Note_on_c, 0, 65, 0
5, 232080, Note_on_c, 0, 61, 0
5, 232080, Note_on_c, 0, 56, 0
5, 232080, Control_c, 0, 64, 0
5, 232080, Note_on_c, 0, 61, 54
5, 232080, Note_on_c, 0, 65, 54
5, 232080, Note_on_c, 0, 68, 54
5, 232320, Note_on_c, 0, 68, 0
5, 232320, Note_on_c, 0, 65, 0
5, 232320, Note_on_c, 0, 61, 0
5, 232320, Control_c, 0, 64, 127
5, 232320, Note_on_c, 0, 44, 54
5, 232560, Note_on_c, 0, 44, 0
5, 232560, Note_on_c, 0, 56, 54
5, 232560, Note_on_c, 0, 60, 54
5, 232800, Note_on_c, 0, 60, 0
5, 232800, Note_on_c, 0, 56, 0
5, 232800, Control_c, 0, 64, 0
5, 232800, Note_on_c, 0, 54, 54
5, 232800, Note_on_c, 0, 56, 54
5, 233040, Note_on_c, 0, 56, 0
5, 233040, Note_on_c, 0, 54, 0
5, 233040, Note_on_c, 0, 49, 54
5, 233040, Note_on_c, 0, 53, 54
5, 233040, Note_on_c, 0, 56, 54
5, 233280, Note_on_c, 0, 56, 0
5, 233280, Note_on_c, 0, 53, 0
5, 233280, Note_on_c, 0, 49, 0
5, 234480, Note_on_c, 0, 49, 54
5, 234480, Note_on_c, 0, 56, 54
5, 235200, Note_on_c, 0, 56, 0
5, 235200, Note_on_c, 0, 49, 0
5, 235200, Note_on_c, 0, 45, 54
5, 235200, Note_on_c, 0, 57, 54
5, 235920, Note_on_c, 0, 57, 0
5, 235920, Note_on_c, 0, 45, 0
5, 235920, Note_on_c, 0, 49, 54
5, 235920, Note_on_c, 0, 56, 54
5, 236160, Note_on_c, 0, 56, 0
5, 236160, Note_on_c, 0, 49, 0
5, 237360, Note_on_c, 0, 49, 54
5, 237360, Note_on_c, 0, 56, 54
5, 238080, Note_on_c, 0, 56, 0
5, 238080, Note_on_c, 0, 49, 0
5, 238080, Note_on_c, 0, 45, 54
5, 238080, Note_on_c, 0, 57, 54
5, 238800, Note_on_c, 0, 57, 0
5, 238800, Note_on_c, 0, 45, 0
5, 238800, Note_on_c, 0, 61, 54
5, 238800, Note_on_c, 0, 65, 54
5, 238800, Note_on_c, 0, 68, 54
5, 240240, Note_on_c, 0, 68, 0
5, 240240, Note_on_c, 0, 65, 0
5, 240240, Note_on_c, 0, 61, 0
5, 240240, Control_c, 0, 64, 127
5, 240240, Note_on_c, 0, 61, 54
5, 240240, Note_on_c, 0, 65, 54
5, 240240, Note_on_c, 0, 68, 54
5, 241590, Note_on_c, 0, 49, 54
5, 241620, Note_on_c, 0, 56, 54
5, 241650, Note_on_c, 0, 61, 54
5, 241680, Note_on_c, 0, 68, 0
5, 241680, Note_on_c, 0, 61, 0
5, 241680, Note_on_c, 0, 65, 0
5, 241680, Note_on_c, 0, 68, 54
5, 242400, Note_on_c, 0, 68, 0
5, 242400, Note_on_c, 0, 61, 0
5, 242400, Note_on_c, 0, 56, 0
5, 242400, Note_on_c, 0, 49, 0
5, 242400, Note_on_c, 0, 65, 80
5, 242880, Note_on_c, 0, 65, 0
5, 242880, Note_on_c, 0, 56, 54
5, 242880, Note_on_c, 0, 61, 54
5, 242880, Note_on_c, 0, 65, 54
5, 243120, Note_on_c, 0, 65, 0
5, 243120, Note_on_c, 0, 61, 0
5, 243120, Note_on_c, 0, 56, 0
5, 243120, Note_on_c, 0, 49, 54
5, 243120, Note_on_c, 0, 53, 54
5, 243120, Note_on_c, 0, 56, 54
5, 243120, Note_on_c, 0, 61, 54
5, 243840, Note_on_c, 0, 61, 0
5, 243840, Note_on_c, 0, 49, 0
5, 243840, Note_on_c, 0, 53, 0
5, 243840, Note_on_c, 0, 56, 0
5, 245280, Note_on_c, 0, 37, 54
5, 245280, Note_on_c, 0, 49, 54
5, 245760, Note_on_c, 0, 49, 0
5, 245760, Note_on_c, 0, 37, 0
5, 246000, Note_on_c, 0, 37, 54
5, 246000, Note_on_c, 0, 49, 54
5, 246480, Note_on_c, 0, 49, 0
5, 246480, Note_on_c, 0, 37, 0
5, 247200, Control_c, 0, 64, 0
5, 247200, End_track
0, 0, End_of_file
