0, 0, Header, 1, 5, 480
1, 0, Start_track
1, 0, Title_t, "tchaikovsky concerto no2 mv1"
1, 0, Copyright_t, "Adaptation for Disklavier pianos, by: Robert C. Kuhmann (c) 2012."
1, 0, Text_t, "Seq. (c) by: Segundo G. Yogore,  2007,  dody@pldtdsl.net\012"
1, 0, Time_signature, 2, 2, 24, 8
1, 0, Key_signature, 1, "major"
1, 0, Tempo, 375000
1, 960, Time_signature, 4, 2, 24, 8
1, 54720, Time_signature, 2, 2, 24, 8
1, 56640, Time_signature, 4, 2, 24, 8
1, 146880, Time_signature, 6, 2, 24, 8
1, 149760, Time_signature, 4, 2, 24, 8
1, 149760, Key_signature, -3, "major"
1, 326400, Tempo, 352941
1, 330240, Time_signature, 2, 2, 24, 8
1, 332160, Time_signature, 4, 2, 24, 8
1, 336000, Tempo, 333333
1, 351360, Time_signature, 2, 2, 24, 8
1, 353280, Time_signature, 4, 2, 24, 8
1, 355200, Tempo, 315789
1, 372720, Tempo, 326087
1, 372960, Tempo, 337079
1, 373200, Tempo, 348837
1, 373440, Tempo, 365854
1, 373680, Tempo, 379747
1, 373920, Tempo, 394737
1, 374160, Tempo, 410959
1, 374400, Tempo, 434783
1, 384000, Time_signature, 6, 2, 24, 8
1, 386880, Time_signature, 4, 2, 24, 8
1, 386880, Key_signature, 0, "major"
1, 386880, Tempo, 375000
1, 513600, Tempo, 400000
1, 548400, Tempo, 375000
1, 552000, Tempo, 400000
1, 557760, Time_signature, 2, 2, 24, 8
1, 559680, Time_signature, 4, 2, 24, 8
1, 663360, Tempo, 705882
1, 684480, Time_signature, 2, 2, 24, 8
1, 686400, Time_signature, 4, 2, 24, 8
1, 703680, Time_signature, 2, 2, 24, 8
1, 705600, Time_signature, 4, 2, 24, 8
1, 711360, Time_signature, 5, 2, 24, 8
1, 713760, Time_signature, 2, 2, 24, 8
1, 723600, Tempo, 681818
1, 723840, Tempo, 659341
1, 724080, Tempo, 638298
1, 724320, Time_signature, 1, 2, 24, 8
1, 724320, Tempo, 612245
1, 724560, Tempo, 594059
1, 724800, Time_signature, 6, 2, 24, 8
1, 724800, Tempo, 368098
1, 725040, Tempo, 361446
1, 725280, Tempo, 352941
1, 727680, Time_signature, 4, 2, 24, 8
1, 766320, Tempo, 365854
1, 766560, Tempo, 379747
1, 766800, Tempo, 394737
1, 767040, Tempo, 416667
1, 767280, Tempo, 434783
1, 767520, Tempo, 454545
1, 767760, Tempo, 476190
1, 768000, Tempo, 508475
1, 769920, Time_signature, 16, 4, 6, 8
1, 769920, Tempo, 800000
1, 771840, Time_signature, 12, 4, 6, 8
1, 783360, Time_signature, 16, 4, 6, 8
1, 785280, Tempo, 631579
1, 787200, Tempo, 521739
1, 789120, Time_signature, 12, 4, 6, 8
1, 789120, Tempo, 444444
1, 864000, Time_signature, 4, 2, 24, 8
1, 864000, Tempo, 375000
1, 908160, Key_signature, 1, "major"
1, 956160, Time_signature, 6, 2, 24, 8
1, 959040, Time_signature, 4, 2, 24, 8
1, 959040, Key_signature, -2, "major"
1, 1093440, Tempo, 352941
1, 1103040, Tempo, 333333
1, 1122240, Tempo, 315789
1, 1139760, Tempo, 326087
1, 1140000, Tempo, 337079
1, 1140240, Tempo, 348837
1, 1140480, Tempo, 365854
1, 1140720, Tempo, 379747
1, 1140960, Tempo, 394737
1, 1141200, Tempo, 410959
1, 1141440, Tempo, 434783
1, 1151040, Time_signature, 6, 2, 24, 8
1, 1153920, Time_signature, 4, 2, 24, 8
1, 1153920, Key_signature, 1, "major"
1, 1153920, Tempo, 375000
1, 1175040, Time_signature, 6, 2, 24, 8
1, 1177920, Time_signature, 4, 2, 24, 8
1, 1177920, Tempo, 333333
1, 1185600, Tempo, 333333
1, 1229760, Time_signature, 11, 2, 24, 8
1, 1229760, End_track
2, 0, Start_track
2, 0, Title_t, "Grand Piano"
2, 0, Program_c, 0, 0
2, 0, Control_c, 0, 7, 115
2, 0, Control_c, 0, 10, 86
2, 15840, Note_on_c, 0, 67, 96
2, 15840, Note_on_c, 0, 71, 96
2, 15840, Note_on_c, 0, 74, 96
2, 15840, Note_on_c, 0, 79, 96
2, 16320, Note_on_c, 0, 79, 0
2, 16320, Note_on_c, 0, 67, 0
2, 16320, Note_on_c, 0, 71, 0
2, 16320, Note_on_c, 0, 74, 0
2, 16320, Note_on_c, 0, 66, 96
2, 16320, Note_on_c, 0, 72, 96
2, 16320, Note_on_c, 0, 74, 96
2, 16320, Note_on_c, 0, 78, 96
2, 16560, Note_on_c, 0, 78, 0
2, 16560, Note_on_c, 0, 66, 0
2, 16560, Note_on_c, 0, 72, 0
2, 16560, Note_on_c, 0, 74, 0
2, 16560, Note_on_c, 0, 64, 96
2, 16560, Note_on_c, 0, 74, 96
2, 16560, Note_on_c, 0, 76, 96
2, 16800, Note_on_c, 0, 76, 0
2, 16800, Note_on_c, 0, 74, 0
2, 16800, Note_on_c, 0, 64, 0
2, 16800, Note_on_c, 0, 66, 96
2, 16800, Note_on_c, 0, 72, 96
2, 16800, Note_on_c, 0, 74, 96
2, 16800, Note_on_c, 0, 78, 96
2, 17760, Note_on_c, 0, 78, 0
2, 17760, Note_on_c, 0, 66, 0
2, 17760, Note_on_c, 0, 72, 0
2, 17760, Note_on_c, 0, 74, 0
2, 17760, Note_on_c, 0, 67, 96
2, 17760, Note_on_c, 0, 71, 96
2, 17760, Note_on_c, 0, 74, 96
2, 17760, Note_on_c, 0, 79, 96
2, 18240, Note_on_c, 0, 79, 0
2, 18240, Note_on_c, 0, 67, 0
2, 18240, Note_on_c, 0, 71, 0
2, 18240, Note_on_c, 0, 74, 0
2, 18240, Note_on_c, 0, 69, 96
2, 18240, Note_on_c, 0, 74, 96
2, 18240, Note_on_c, 0, 81, 96
2, 18720, Note_on_c, 0, 81, 0
2, 18720, Note_on_c, 0, 74, 0
2, 18720, Note_on_c, 0, 69, 0
2, 18720, Note_on_c, 0, 62, 96
2, 19200, Note_on_c, 0, 62, 0
2, 19680, Note_on_c, 0, 71, 96
2, 19680, Note_on_c, 0, 74, 96
2, 19680, Note_on_c, 0, 79, 96
2, 19680, Note_on_c, 0, 83, 96
2, 20160, Note_on_c, 0, 83, 0
2, 20160, Note_on_c, 0, 71, 0
2, 20160, Note_on_c, 0, 74, 0
2, 20160, Note_on_c, 0, 79, 0
2, 20160, Note_on_c, 0, 72, 96
2, 20160, Note_on_c, 0, 79, 96
2, 20160, Note_on_c, 0, 84, 96
2, 20640, Note_on_c, 0, 84, 0
2, 20640, Note_on_c, 0, 79, 0
2, 20640, Note_on_c, 0, 72, 0
2, 20640, Note_on_c, 0, 71, 96
2, 20640, Note_on_c, 0, 74, 96
2, 20640, Note_on_c, 0, 79, 96
2, 20640, Note_on_c, 0, 83, 96
2, 21120, Note_on_c, 0, 83, 0
2, 21120, Note_on_c, 0, 71, 0
2, 21120, Note_on_c, 0, 74, 0
2, 21120, Note_on_c, 0, 79, 0
2, 21120, Note_on_c, 0, 72, 96
2, 21120, Note_on_c, 0, 79, 96
2, 21120, Note_on_c, 0, 84, 96
2, 21600, Note_on_c, 0, 84, 0
2, 21600, Note_on_c, 0, 79, 0
2, 21600, Note_on_c, 0, 72, 0
2, 21600, Note_on_c, 0, 74, 96
2, 21600, Note_on_c, 0, 81, 96
2, 21600, Note_on_c, 0, 86, 96
2, 22080, Note_on_c, 0, 86, 0
2, 22080, Note_on_c, 0, 81, 0
2, 22080, Note_on_c, 0, 74, 0
2, 22080, Note_on_c, 0, 71, 96
2, 22080, Note_on_c, 0, 74, 96
2, 22080, Note_on_c, 0, 79, 96
2, 22080, Note_on_c, 0, 83, 96
2, 22320, Note_on_c, 0, 83, 0
2, 22320, Note_on_c, 0, 71, 0
2, 22320, Note_on_c, 0, 74, 0
2, 22320, Note_on_c, 0, 79, 0
2, 22320, Note_on_c, 0, 67, 96
2, 22320, Note_on_c, 0, 74, 96
2, 22320, Note_on_c, 0, 79, 96
2, 22560, Note_on_c, 0, 79, 0
2, 22560, Note_on_c, 0, 74, 0
2, 22560, Note_on_c, 0, 67, 0
2, 22560, Note_on_c, 0, 69, 96
2, 22560, Note_on_c, 0, 74, 96
2, 22560, Note_on_c, 0, 78, 96
2, 22560, Note_on_c, 0, 81, 96
2, 23520, Note_on_c, 0, 81, 0
2, 23520, Note_on_c, 0, 69, 0
2, 23520, Note_on_c, 0, 74, 0
2, 23520, Note_on_c, 0, 78, 0
2, 23520, Note_on_c, 0, 67, 96
2, 23520, Note_on_c, 0, 71, 96
2, 23520, Note_on_c, 0, 74, 96
2, 23520, Note_on_c, 0, 79, 96
2, 24000, Note_on_c, 0, 79, 0
2, 24000, Note_on_c, 0, 67, 0
2, 24000, Note_on_c, 0, 71, 0
2, 24000, Note_on_c, 0, 74, 0
2, 24000, Note_on_c, 0, 66, 96
2, 24000, Note_on_c, 0, 72, 96
2, 24000, Note_on_c, 0, 74, 96
2, 24000, Note_on_c, 0, 78, 96
2, 24240, Note_on_c, 0, 78, 0
2, 24240, Note_on_c, 0, 66, 0
2, 24240, Note_on_c, 0, 72, 0
2, 24240, Note_on_c, 0, 74, 0
2, 24240, Note_on_c, 0, 64, 96
2, 24240, Note_on_c, 0, 74, 96
2, 24240, Note_on_c, 0, 76, 96
2, 24480, Note_on_c, 0, 76, 0
2, 24480, Note_on_c, 0, 74, 0
2, 24480, Note_on_c, 0, 64, 0
2, 24480, Note_on_c, 0, 66, 96
2, 24480, Note_on_c, 0, 72, 96
2, 24480, Note_on_c, 0, 74, 96
2, 24480, Note_on_c, 0, 78, 96
2, 25440, Note_on_c, 0, 78, 0
2, 25440, Note_on_c, 0, 66, 0
2, 25440, Note_on_c, 0, 72, 0
2, 25440, Note_on_c, 0, 74, 0
2, 25440, Note_on_c, 0, 67, 96
2, 25440, Note_on_c, 0, 71, 96
2, 25440, Note_on_c, 0, 74, 96
2, 25440, Note_on_c, 0, 79, 96
2, 25920, Note_on_c, 0, 79, 0
2, 25920, Note_on_c, 0, 67, 0
2, 25920, Note_on_c, 0, 71, 0
2, 25920, Note_on_c, 0, 74, 0
2, 25920, Note_on_c, 0, 69, 96
2, 25920, Note_on_c, 0, 72, 96
2, 25920, Note_on_c, 0, 76, 96
2, 25920, Note_on_c, 0, 81, 96
2, 26400, Note_on_c, 0, 81, 0
2, 26400, Note_on_c, 0, 69, 0
2, 26400, Note_on_c, 0, 72, 0
2, 26400, Note_on_c, 0, 76, 0
2, 26400, Note_on_c, 0, 60, 96
2, 26880, Note_on_c, 0, 60, 0
2, 26880, Note_on_c, 0, 59, 96
2, 27360, Note_on_c, 0, 59, 0
2, 27360, Note_on_c, 0, 71, 96
2, 27360, Note_on_c, 0, 75, 96
2, 27360, Note_on_c, 0, 78, 96
2, 27360, Note_on_c, 0, 83, 96
2, 27750, Note_on_c, 0, 64, 96
2, 27780, Note_on_c, 0, 67, 96
2, 27810, Note_on_c, 0, 71, 96
2, 27840, Note_on_c, 0, 83, 0
2, 27840, Note_on_c, 0, 78, 0
2, 27840, Note_on_c, 0, 71, 0
2, 27840, Note_on_c, 0, 75, 0
2, 27840, Note_on_c, 0, 76, 96
2, 28230, Note_on_c, 0, 64, 96
2, 28260, Note_on_c, 0, 69, 96
2, 28290, Note_on_c, 0, 72, 96
2, 28320, Note_on_c, 0, 76, 0
2, 28320, Note_on_c, 0, 71, 0
2, 28320, Note_on_c, 0, 67, 0
2, 28320, Note_on_c, 0, 64, 0
2, 28320, Note_on_c, 0, 76, 96
2, 28710, Note_on_c, 0, 64, 96
2, 28740, Note_on_c, 0, 67, 96
2, 28770, Note_on_c, 0, 71, 96
2, 28800, Note_on_c, 0, 76, 0
2, 28800, Note_on_c, 0, 72, 0
2, 28800, Note_on_c, 0, 69, 0
2, 28800, Note_on_c, 0, 64, 0
2, 28800, Note_on_c, 0, 76, 96
2, 29190, Note_on_c, 0, 64, 96
2, 29220, Note_on_c, 0, 69, 96
2, 29250, Note_on_c, 0, 72, 96
2, 29280, Note_on_c, 0, 76, 0
2, 29280, Note_on_c, 0, 71, 0
2, 29280, Note_on_c, 0, 67, 0
2, 29280, Note_on_c, 0, 64, 0
2, 29280, Note_on_c, 0, 76, 96
2, 29670, Note_on_c, 0, 64, 96
2, 29700, Note_on_c, 0, 67, 96
2, 29730, Note_on_c, 0, 71, 96
2, 29760, Note_on_c, 0, 76, 0
2, 29760, Note_on_c, 0, 72, 0
2, 29760, Note_on_c, 0, 69, 0
2, 29760, Note_on_c, 0, 64, 0
2, 29760, Note_on_c, 0, 76, 96
2, 30240, Note_on_c, 0, 76, 0
2, 30240, Note_on_c, 0, 67, 0
2, 30240, Note_on_c, 0, 64, 0
2, 30240, Note_on_c, 0, 71, 0
2, 30240, Note_on_c, 0, 76, 96
2, 30240, Note_on_c, 0, 79, 96
2, 30240, Note_on_c, 0, 83, 96
2, 30240, Note_on_c, 0, 88, 96
2, 30720, Note_on_c, 0, 88, 0
2, 30720, Note_on_c, 0, 76, 0
2, 30720, Note_on_c, 0, 79, 0
2, 30720, Note_on_c, 0, 83, 0
2, 31560, Note_on_c, 0, 83, 96
2, 31620, Note_on_c, 0, 83, 0
2, 31620, Note_on_c, 0, 84, 96
2, 31680, Note_on_c, 0, 84, 0
2, 31680, Note_on_c, 0, 71, 83
2, 31680, Note_on_c, 0, 83, 83
2, 31920, Note_on_c, 0, 83, 0
2, 31920, Note_on_c, 0, 71, 0
2, 31920, Note_on_c, 0, 69, 83
2, 31920, Note_on_c, 0, 81, 83
2, 32160, Note_on_c, 0, 81, 0
2, 32160, Note_on_c, 0, 69, 0
2, 32160, Note_on_c, 0, 71, 83
2, 32160, Note_on_c, 0, 83, 83
2, 33120, Note_on_c, 0, 83, 0
2, 33120, Note_on_c, 0, 71, 0
2, 33120, Note_on_c, 0, 69, 83
2, 33120, Note_on_c, 0, 81, 83
2, 33600, Note_on_c, 0, 81, 0
2, 33600, Note_on_c, 0, 69, 0
2, 33600, Note_on_c, 0, 71, 83
2, 33600, Note_on_c, 0, 76, 83
2, 33600, Note_on_c, 0, 79, 83
2, 33600, Note_on_c, 0, 83, 83
2, 34080, Note_on_c, 0, 83, 0
2, 34080, Note_on_c, 0, 71, 0
2, 34080, Note_on_c, 0, 76, 0
2, 34080, Note_on_c, 0, 79, 0
2, 34080, Control_c, 0, 64, 127
2, 34080, Note_on_c, 0, 64, 83
2, 34148, Note_on_c, 0, 64, 0
2, 34148, Note_on_c, 0, 66, 83
2, 34217, Note_on_c, 0, 66, 0
2, 34217, Note_on_c, 0, 67, 83
2, 34285, Note_on_c, 0, 67, 0
2, 34285, Note_on_c, 0, 69, 83
2, 34354, Note_on_c, 0, 69, 0
2, 34354, Note_on_c, 0, 71, 83
2, 34422, Note_on_c, 0, 71, 0
2, 34422, Note_on_c, 0, 73, 83
2, 34491, Note_on_c, 0, 73, 0
2, 34491, Note_on_c, 0, 75, 83
2, 34560, Note_on_c, 0, 75, 0
2, 34560, Note_on_c, 0, 76, 83
2, 34800, Note_on_c, 0, 76, 0
2, 34800, Control_c, 0, 64, 0
2, 35040, Note_on_c, 0, 76, 83
2, 35040, Note_on_c, 0, 88, 83
2, 35400, Note_on_c, 0, 83, 83
2, 35460, Note_on_c, 0, 83, 0
2, 35460, Note_on_c, 0, 84, 83
2, 35520, Note_on_c, 0, 84, 0
2, 35520, Note_on_c, 0, 88, 0
2, 35520, Note_on_c, 0, 76, 0
2, 35520, Note_on_c, 0, 71, 83
2, 35520, Note_on_c, 0, 83, 83
2, 35760, Note_on_c, 0, 83, 0
2, 35760, Note_on_c, 0, 71, 0
2, 35760, Note_on_c, 0, 69, 83
2, 35760, Note_on_c, 0, 81, 83
2, 36000, Note_on_c, 0, 81, 0
2, 36000, Note_on_c, 0, 69, 0
2, 36000, Note_on_c, 0, 71, 83
2, 36000, Note_on_c, 0, 83, 83
2, 36960, Note_on_c, 0, 83, 0
2, 36960, Note_on_c, 0, 71, 0
2, 36960, Note_on_c, 0, 69, 83
2, 36960, Note_on_c, 0, 81, 83
2, 37440, Note_on_c, 0, 81, 0
2, 37440, Note_on_c, 0, 69, 0
2, 47040, Control_c, 0, 64, 127
2, 47040, Note_on_c, 0, 52, 70
2, 47108, Note_on_c, 0, 52, 0
2, 47108, Note_on_c, 0, 55, 70
2, 47177, Note_on_c, 0, 55, 0
2, 47177, Note_on_c, 0, 59, 70
2, 47245, Note_on_c, 0, 59, 0
2, 47245, Note_on_c, 0, 64, 70
2, 47314, Note_on_c, 0, 64, 0
2, 47314, Note_on_c, 0, 67, 70
2, 47382, Note_on_c, 0, 67, 0
2, 47382, Note_on_c, 0, 71, 70
2, 47451, Note_on_c, 0, 71, 0
2, 47451, Control_c, 0, 64, 0
2, 47451, Note_on_c, 0, 76, 70
2, 47520, Note_on_c, 0, 76, 0
2, 47520, Control_c, 0, 64, 127
2, 47520, Note_on_c, 0, 79, 70
2, 47588, Note_on_c, 0, 79, 0
2, 47588, Note_on_c, 0, 76, 70
2, 47657, Note_on_c, 0, 76, 0
2, 47657, Note_on_c, 0, 71, 70
2, 47725, Note_on_c, 0, 71, 0
2, 47725, Note_on_c, 0, 67, 70
2, 47794, Note_on_c, 0, 67, 0
2, 47794, Note_on_c, 0, 64, 70
2, 47862, Note_on_c, 0, 64, 0
2, 47862, Note_on_c, 0, 59, 70
2, 47931, Note_on_c, 0, 59, 0
2, 47931, Control_c, 0, 64, 0
2, 47931, Note_on_c, 0, 55, 70
2, 48000, Note_on_c, 0, 55, 0
2, 48000, Control_c, 0, 64, 127
2, 48000, Note_on_c, 0, 52, 70
2, 48068, Note_on_c, 0, 52, 0
2, 48068, Note_on_c, 0, 54, 70
2, 48137, Note_on_c, 0, 54, 0
2, 48137, Note_on_c, 0, 60, 70
2, 48205, Note_on_c, 0, 60, 0
2, 48205, Note_on_c, 0, 64, 70
2, 48274, Note_on_c, 0, 64, 0
2, 48274, Note_on_c, 0, 66, 70
2, 48342, Note_on_c, 0, 66, 0
2, 48342, Note_on_c, 0, 72, 70
2, 48411, Note_on_c, 0, 72, 0
2, 48411, Control_c, 0, 64, 0
2, 48411, Note_on_c, 0, 76, 70
2, 48480, Note_on_c, 0, 76, 0
2, 48480, Control_c, 0, 64, 127
2, 48480, Note_on_c, 0, 78, 70
2, 48548, Note_on_c, 0, 78, 0
2, 48548, Note_on_c, 0, 76, 70
2, 48617, Note_on_c, 0, 76, 0
2, 48617, Note_on_c, 0, 72, 70
2, 48685, Note_on_c, 0, 72, 0
2, 48685, Note_on_c, 0, 66, 70
2, 48754, Note_on_c, 0, 66, 0
2, 48754, Note_on_c, 0, 64, 70
2, 48822, Note_on_c, 0, 64, 0
2, 48822, Note_on_c, 0, 60, 70
2, 48891, Note_on_c, 0, 60, 0
2, 48891, Control_c, 0, 64, 0
2, 48891, Note_on_c, 0, 54, 70
2, 48960, Note_on_c, 0, 54, 0
2, 48960, Control_c, 0, 64, 127
2, 48960, Note_on_c, 0, 52, 70
2, 49028, Note_on_c, 0, 52, 0
2, 49028, Note_on_c, 0, 55, 70
2, 49097, Note_on_c, 0, 55, 0
2, 49097, Note_on_c, 0, 59, 70
2, 49165, Note_on_c, 0, 59, 0
2, 49165, Note_on_c, 0, 64, 70
2, 49234, Note_on_c, 0, 64, 0
2, 49234, Note_on_c, 0, 67, 70
2, 49302, Note_on_c, 0, 67, 0
2, 49302, Note_on_c, 0, 71, 70
2, 49371, Note_on_c, 0, 71, 0
2, 49371, Control_c, 0, 64, 0
2, 49371, Note_on_c, 0, 76, 70
2, 49440, Note_on_c, 0, 76, 0
2, 49440, Control_c, 0, 64, 127
2, 49440, Note_on_c, 0, 79, 70
2, 49487, Note_on_c, 0, 79, 0
2, 49487, Note_on_c, 0, 76, 70
2, 49536, Note_on_c, 0, 76, 0
2, 49536, Note_on_c, 0, 71, 70
2, 49583, Note_on_c, 0, 71, 0
2, 49583, Note_on_c, 0, 67, 70
2, 49632, Note_on_c, 0, 67, 0
2, 49632, Note_on_c, 0, 64, 70
2, 49680, Note_on_c, 0, 64, 0
2, 49680, Note_on_c, 0, 59, 70
2, 49727, Note_on_c, 0, 59, 0
2, 49727, Note_on_c, 0, 55, 70
2, 49776, Note_on_c, 0, 55, 0
2, 49776, Note_on_c, 0, 52, 70
2, 49823, Note_on_c, 0, 52, 0
2, 49823, Note_on_c, 0, 47, 70
2, 49872, Note_on_c, 0, 47, 0
2, 49872, Note_on_c, 0, 43, 70
2, 49920, Note_on_c, 0, 43, 0
2, 49920, Note_on_c, 0, 40, 70
2, 50160, Note_on_c, 0, 40, 0
2, 50160, Control_c, 0, 64, 0
2, 50880, Control_c, 0, 64, 127
2, 50880, Note_on_c, 0, 52, 70
2, 50948, Note_on_c, 0, 52, 0
2, 50948, Note_on_c, 0, 55, 70
2, 51017, Note_on_c, 0, 55, 0
2, 51017, Note_on_c, 0, 59, 70
2, 51085, Note_on_c, 0, 59, 0
2, 51085, Note_on_c, 0, 64, 70
2, 51154, Note_on_c, 0, 64, 0
2, 51154, Note_on_c, 0, 67, 70
2, 51222, Note_on_c, 0, 67, 0
2, 51222, Note_on_c, 0, 71, 70
2, 51291, Note_on_c, 0, 71, 0
2, 51291, Control_c, 0, 64, 0
2, 51291, Note_on_c, 0, 76, 70
2, 51360, Note_on_c, 0, 76, 0
2, 51360, Control_c, 0, 64, 127
2, 51360, Note_on_c, 0, 79, 70
2, 51428, Note_on_c, 0, 79, 0
2, 51428, Note_on_c, 0, 76, 70
2, 51497, Note_on_c, 0, 76, 0
2, 51497, Note_on_c, 0, 71, 70
2, 51565, Note_on_c, 0, 71, 0
2, 51565, Note_on_c, 0, 67, 70
2, 51634, Note_on_c, 0, 67, 0
2, 51634, Note_on_c, 0, 64, 70
2, 51702, Note_on_c, 0, 64, 0
2, 51702, Note_on_c, 0, 59, 70
2, 51771, Note_on_c, 0, 59, 0
2, 51771, Control_c, 0, 64, 0
2, 51771, Note_on_c, 0, 55, 70
2, 51840, Note_on_c, 0, 55, 0
2, 51840, Control_c, 0, 64, 127
2, 51840, Note_on_c, 0, 52, 70
2, 51908, Note_on_c, 0, 52, 0
2, 51908, Note_on_c, 0, 54, 70
2, 51977, Note_on_c, 0, 54, 0
2, 51977, Note_on_c, 0, 60, 70
2, 52045, Note_on_c, 0, 60, 0
2, 52045, Note_on_c, 0, 64, 70
2, 52114, Note_on_c, 0, 64, 0
2, 52114, Note_on_c, 0, 66, 70
2, 52182, Note_on_c, 0, 66, 0
2, 52182, Note_on_c, 0, 72, 70
2, 52251, Note_on_c, 0, 72, 0
2, 52251, Control_c, 0, 64, 0
2, 52251, Note_on_c, 0, 76, 70
2, 52320, Note_on_c, 0, 76, 0
2, 52320, Control_c, 0, 64, 127
2, 52320, Note_on_c, 0, 78, 70
2, 52388, Note_on_c, 0, 78, 0
2, 52388, Note_on_c, 0, 76, 70
2, 52457, Note_on_c, 0, 76, 0
2, 52457, Note_on_c, 0, 72, 70
2, 52525, Note_on_c, 0, 72, 0
2, 52525, Note_on_c, 0, 66, 70
2, 52594, Note_on_c, 0, 66, 0
2, 52594, Note_on_c, 0, 64, 70
2, 52662, Note_on_c, 0, 64, 0
2, 52662, Note_on_c, 0, 60, 70
2, 52731, Note_on_c, 0, 60, 0
2, 52731, Control_c, 0, 64, 0
2, 52731, Note_on_c, 0, 54, 70
2, 52800, Note_on_c, 0, 54, 0
2, 52800, Control_c, 0, 64, 127
2, 52800, Note_on_c, 0, 52, 70
2, 52868, Note_on_c, 0, 52, 0
2, 52868, Note_on_c, 0, 55, 70
2, 52937, Note_on_c, 0, 55, 0
2, 52937, Note_on_c, 0, 59, 70
2, 53005, Note_on_c, 0, 59, 0
2, 53005, Note_on_c, 0, 64, 70
2, 53074, Note_on_c, 0, 64, 0
2, 53074, Note_on_c, 0, 67, 70
2, 53142, Note_on_c, 0, 67, 0
2, 53142, Note_on_c, 0, 71, 70
2, 53211, Note_on_c, 0, 71, 0
2, 53211, Control_c, 0, 64, 0
2, 53211, Note_on_c, 0, 76, 70
2, 53280, Note_on_c, 0, 76, 0
2, 53280, Control_c, 0, 64, 127
2, 53280, Note_on_c, 0, 79, 70
2, 53327, Note_on_c, 0, 79, 0
2, 53327, Note_on_c, 0, 76, 70
2, 53376, Note_on_c, 0, 76, 0
2, 53376, Note_on_c, 0, 71, 70
2, 53423, Note_on_c, 0, 71, 0
2, 53423, Note_on_c, 0, 67, 70
2, 53472, Note_on_c, 0, 67, 0
2, 53472, Note_on_c, 0, 64, 70
2, 53520, Note_on_c, 0, 64, 0
2, 53520, Note_on_c, 0, 59, 70
2, 53567, Note_on_c, 0, 59, 0
2, 53567, Note_on_c, 0, 55, 70
2, 53616, Note_on_c, 0, 55, 0
2, 53616, Note_on_c, 0, 52, 70
2, 53663, Note_on_c, 0, 52, 0
2, 53663, Note_on_c, 0, 47, 70
2, 53712, Note_on_c, 0, 47, 0
2, 53712, Note_on_c, 0, 43, 70
2, 53760, Note_on_c, 0, 43, 0
2, 53760, Note_on_c, 0, 40, 70
2, 54000, Note_on_c, 0, 40, 0
2, 54000, Control_c, 0, 64, 0
2, 54480, Control_c, 0, 64, 127
2, 54480, Note_on_c, 0, 64, 70
2, 54540, Note_on_c, 0, 64, 0
2, 54540, Note_on_c, 0, 67, 70
2, 54600, Note_on_c, 0, 67, 0
2, 54600, Note_on_c, 0, 71, 70
2, 54660, Note_on_c, 0, 71, 0
2, 54660, Control_c, 0, 64, 0
2, 54660, Note_on_c, 0, 76, 70
2, 54720, Note_on_c, 0, 76, 0
2, 54960, Control_c, 0, 64, 127
2, 54960, Note_on_c, 0, 66, 70
2, 55020, Note_on_c, 0, 66, 0
2, 55020, Note_on_c, 0, 71, 70
2, 55080, Note_on_c, 0, 71, 0
2, 55080, Note_on_c, 0, 74, 70
2, 55140, Note_on_c, 0, 74, 0
2, 55140, Control_c, 0, 64, 0
2, 55140, Note_on_c, 0, 78, 70
2, 55200, Note_on_c, 0, 78, 0
2, 55200, Control_c, 0, 64, 127
2, 55200, Note_on_c, 0, 55, 70
2, 55280, Note_on_c, 0, 55, 0
2, 55280, Note_on_c, 0, 59, 70
2, 55359, Note_on_c, 0, 59, 0
2, 55359, Note_on_c, 0, 62, 70
2, 55440, Note_on_c, 0, 62, 0
2, 55440, Note_on_c, 0, 67, 70
2, 55520, Note_on_c, 0, 67, 0
2, 55520, Note_on_c, 0, 71, 70
2, 55599, Note_on_c, 0, 71, 0
2, 55599, Control_c, 0, 64, 0
2, 55599, Note_on_c, 0, 74, 70
2, 55680, Note_on_c, 0, 74, 0
2, 55680, Control_c, 0, 64, 127
2, 55680, Note_on_c, 0, 49, 70
2, 55740, Note_on_c, 0, 49, 0
2, 55740, Note_on_c, 0, 55, 70
2, 55800, Note_on_c, 0, 55, 0
2, 55800, Note_on_c, 0, 59, 70
2, 55860, Note_on_c, 0, 59, 0
2, 55860, Note_on_c, 0, 61, 70
2, 55920, Note_on_c, 0, 61, 0
2, 55920, Note_on_c, 0, 64, 70
2, 55980, Note_on_c, 0, 64, 0
2, 55980, Note_on_c, 0, 67, 70
2, 56040, Note_on_c, 0, 67, 0
2, 56040, Note_on_c, 0, 71, 70
2, 56100, Note_on_c, 0, 71, 0
2, 56100, Control_c, 0, 64, 0
2, 56100, Note_on_c, 0, 76, 70
2, 56160, Note_on_c, 0, 76, 0
2, 56160, Control_c, 0, 64, 127
2, 56160, Note_on_c, 0, 54, 70
2, 56240, Note_on_c, 0, 54, 0
2, 56240, Note_on_c, 0, 58, 70
2, 56319, Note_on_c, 0, 58, 0
2, 56319, Note_on_c, 0, 61, 70
2, 56400, Note_on_c, 0, 61, 0
2, 56400, Note_on_c, 0, 66, 70
2, 56480, Note_on_c, 0, 66, 0
2, 56480, Note_on_c, 0, 70, 70
2, 56559, Note_on_c, 0, 70, 0
2, 56559, Control_c, 0, 64, 0
2, 56559, Note_on_c, 0, 73, 70
2, 56640, Note_on_c, 0, 73, 0
2, 56640, Control_c, 0, 64, 127
2, 56640, Note_on_c, 0, 47, 70
2, 56700, Note_on_c, 0, 47, 0
2, 56700, Note_on_c, 0, 50, 70
2, 56760, Note_on_c, 0, 50, 0
2, 56760, Note_on_c, 0, 54, 70
2, 56820, Note_on_c, 0, 54, 0
2, 56820, Note_on_c, 0, 59, 70
2, 56880, Note_on_c, 0, 59, 0
2, 56880, Note_on_c, 0, 62, 70
2, 56940, Note_on_c, 0, 62, 0
2, 56940, Note_on_c, 0, 66, 70
2, 57000, Note_on_c, 0, 66, 0
2, 57000, Note_on_c, 0, 71, 70
2, 57060, Note_on_c, 0, 71, 0
2, 57060, Control_c, 0, 64, 0
2, 57060, Note_on_c, 0, 74, 70
2, 57120, Note_on_c, 0, 74, 0
2, 57120, Control_c, 0, 64, 127
2, 57120, Note_on_c, 0, 50, 70
2, 57200, Note_on_c, 0, 50, 0
2, 57200, Note_on_c, 0, 54, 70
2, 57279, Note_on_c, 0, 54, 0
2, 57279, Note_on_c, 0, 59, 70
2, 57360, Note_on_c, 0, 59, 0
2, 57360, Note_on_c, 0, 62, 70
2, 57440, Note_on_c, 0, 62, 0
2, 57440, Note_on_c, 0, 66, 70
2, 57519, Note_on_c, 0, 66, 0
2, 57519, Control_c, 0, 64, 0
2, 57519, Note_on_c, 0, 71, 70
2, 57600, Note_on_c, 0, 71, 0
2, 57600, Control_c, 0, 64, 127
2, 57600, Note_on_c, 0, 52, 70
2, 57680, Note_on_c, 0, 52, 0
2, 57680, Note_on_c, 0, 55, 70
2, 57759, Note_on_c, 0, 55, 0
2, 57759, Note_on_c, 0, 59, 70
2, 57840, Note_on_c, 0, 59, 0
2, 57840, Note_on_c, 0, 64, 70
2, 57920, Note_on_c, 0, 64, 0
2, 57920, Note_on_c, 0, 67, 70
2, 57999, Note_on_c, 0, 67, 0
2, 57999, Control_c, 0, 64, 0
2, 57999, Note_on_c, 0, 71, 70
2, 58080, Note_on_c, 0, 71, 0
2, 58080, Control_c, 0, 64, 127
2, 58080, Note_on_c, 0, 43, 70
2, 58140, Note_on_c, 0, 43, 0
2, 58140, Note_on_c, 0, 49, 70
2, 58200, Note_on_c, 0, 49, 0
2, 58200, Note_on_c, 0, 52, 70
2, 58260, Note_on_c, 0, 52, 0
2, 58260, Note_on_c, 0, 55, 70
2, 58320, Note_on_c, 0, 55, 0
2, 58320, Note_on_c, 0, 59, 70
2, 58380, Note_on_c, 0, 59, 0
2, 58380, Note_on_c, 0, 61, 70
2, 58440, Note_on_c, 0, 61, 0
2, 58440, Note_on_c, 0, 64, 70
2, 58500, Note_on_c, 0, 64, 0
2, 58500, Control_c, 0, 64, 0
2, 58500, Note_on_c, 0, 71, 70
2, 58560, Note_on_c, 0, 71, 0
2, 65280, Control_c, 0, 64, 0
2, 65880, Note_on_c, 0, 70, 70
2, 66000, Note_on_c, 0, 70, 0
2, 66000, Note_on_c, 0, 71, 70
2, 66120, Note_on_c, 0, 71, 0
2, 66120, Note_on_c, 0, 83, 70
2, 66240, Note_on_c, 0, 83, 0
2, 66240, Note_on_c, 0, 79, 70
2, 66360, Note_on_c, 0, 79, 0
2, 66360, Note_on_c, 0, 67, 70
2, 66480, Note_on_c, 0, 67, 0
2, 66480, Note_on_c, 0, 71, 70
2, 66600, Note_on_c, 0, 71, 0
2, 66600, Note_on_c, 0, 79, 70
2, 66720, Note_on_c, 0, 79, 0
2, 66720, Note_on_c, 0, 75, 70
2, 66840, Note_on_c, 0, 75, 0
2, 66840, Note_on_c, 0, 63, 70
2, 66960, Note_on_c, 0, 63, 0
2, 66960, Note_on_c, 0, 71, 70
2, 67080, Note_on_c, 0, 71, 0
2, 67080, Note_on_c, 0, 75, 70
2, 67200, Note_on_c, 0, 75, 0
2, 67200, Note_on_c, 0, 76, 70
2, 67320, Note_on_c, 0, 76, 0
2, 67320, Note_on_c, 0, 63, 70
2, 67440, Note_on_c, 0, 63, 0
2, 67440, Note_on_c, 0, 64, 70
2, 67560, Note_on_c, 0, 64, 0
2, 67560, Note_on_c, 0, 71, 70
2, 67680, Note_on_c, 0, 71, 0
2, 67680, Note_on_c, 0, 76, 70
2, 67800, Note_on_c, 0, 76, 0
2, 67800, Note_on_c, 0, 64, 70
2, 67920, Note_on_c, 0, 64, 0
2, 67920, Note_on_c, 0, 71, 70
2, 68040, Note_on_c, 0, 71, 0
2, 68040, Note_on_c, 0, 76, 70
2, 68160, Note_on_c, 0, 76, 0
2, 68160, Note_on_c, 0, 72, 70
2, 68280, Note_on_c, 0, 72, 0
2, 68280, Note_on_c, 0, 60, 70
2, 68400, Note_on_c, 0, 60, 0
2, 68400, Note_on_c, 0, 64, 70
2, 68520, Note_on_c, 0, 64, 0
2, 68520, Note_on_c, 0, 72, 70
2, 68640, Note_on_c, 0, 72, 0
2, 68640, Note_on_c, 0, 69, 70
2, 68760, Note_on_c, 0, 69, 0
2, 68760, Note_on_c, 0, 57, 70
2, 68880, Note_on_c, 0, 57, 0
2, 68880, Note_on_c, 0, 64, 70
2, 69000, Note_on_c, 0, 64, 0
2, 69000, Note_on_c, 0, 69, 70
2, 69120, Note_on_c, 0, 69, 0
2, 73560, Note_on_c, 0, 70, 70
2, 73680, Note_on_c, 0, 70, 0
2, 73680, Note_on_c, 0, 71, 70
2, 73800, Note_on_c, 0, 71, 0
2, 73800, Note_on_c, 0, 83, 70
2, 73920, Note_on_c, 0, 83, 0
2, 73920, Note_on_c, 0, 79, 70
2, 74040, Note_on_c, 0, 79, 0
2, 74040, Note_on_c, 0, 67, 70
2, 74160, Note_on_c, 0, 67, 0
2, 74160, Note_on_c, 0, 71, 70
2, 74280, Note_on_c, 0, 71, 0
2, 74280, Note_on_c, 0, 79, 70
2, 74400, Note_on_c, 0, 79, 0
2, 74400, Note_on_c, 0, 75, 70
2, 74520, Note_on_c, 0, 75, 0
2, 74520, Note_on_c, 0, 63, 70
2, 74640, Note_on_c, 0, 63, 0
2, 74640, Note_on_c, 0, 71, 70
2, 74760, Note_on_c, 0, 71, 0
2, 74760, Note_on_c, 0, 75, 70
2, 74880, Note_on_c, 0, 75, 0
2, 74880, Note_on_c, 0, 76, 70
2, 75000, Note_on_c, 0, 76, 0
2, 75000, Note_on_c, 0, 63, 70
2, 75120, Note_on_c, 0, 63, 0
2, 75120, Note_on_c, 0, 64, 70
2, 75240, Note_on_c, 0, 64, 0
2, 75240, Note_on_c, 0, 71, 70
2, 75360, Note_on_c, 0, 71, 0
2, 75360, Note_on_c, 0, 76, 70
2, 75480, Note_on_c, 0, 76, 0
2, 75480, Note_on_c, 0, 64, 70
2, 75600, Note_on_c, 0, 64, 0
2, 75600, Note_on_c, 0, 71, 70
2, 75720, Note_on_c, 0, 71, 0
2, 75720, Note_on_c, 0, 76, 70
2, 75840, Note_on_c, 0, 76, 0
2, 75840, Note_on_c, 0, 72, 70
2, 75960, Note_on_c, 0, 72, 0
2, 75960, Note_on_c, 0, 60, 70
2, 76080, Note_on_c, 0, 60, 0
2, 76080, Note_on_c, 0, 69, 70
2, 76200, Note_on_c, 0, 69, 0
2, 76200, Note_on_c, 0, 72, 70
2, 76320, Note_on_c, 0, 72, 0
2, 76320, Note_on_c, 0, 73, 70
2, 76440, Note_on_c, 0, 73, 0
2, 76440, Note_on_c, 0, 61, 70
2, 76560, Note_on_c, 0, 61, 0
2, 76560, Note_on_c, 0, 67, 70
2, 76680, Note_on_c, 0, 67, 0
2, 76680, Note_on_c, 0, 73, 70
2, 76800, Note_on_c, 0, 73, 0
2, 76800, Control_c, 0, 64, 127
2, 76800, Note_on_c, 0, 74, 70
2, 76920, Note_on_c, 0, 74, 0
2, 81120, Control_c, 0, 64, 0
2, 81240, Note_on_c, 0, 73, 83
2, 81360, Note_on_c, 0, 73, 0
2, 81360, Note_on_c, 0, 74, 83
2, 81480, Note_on_c, 0, 74, 0
2, 81480, Note_on_c, 0, 86, 83
2, 81600, Note_on_c, 0, 86, 0
2, 81600, Note_on_c, 0, 82, 83
2, 81720, Note_on_c, 0, 82, 0
2, 81720, Note_on_c, 0, 70, 83
2, 81840, Note_on_c, 0, 70, 0
2, 81840, Note_on_c, 0, 74, 83
2, 81960, Note_on_c, 0, 74, 0
2, 81960, Note_on_c, 0, 82, 83
2, 82080, Note_on_c, 0, 82, 0
2, 82080, Note_on_c, 0, 78, 83
2, 82200, Note_on_c, 0, 78, 0
2, 82200, Note_on_c, 0, 66, 83
2, 82320, Note_on_c, 0, 66, 0
2, 82320, Note_on_c, 0, 74, 83
2, 82440, Note_on_c, 0, 74, 0
2, 82440, Note_on_c, 0, 78, 83
2, 82560, Note_on_c, 0, 78, 0
2, 82560, Note_on_c, 0, 79, 83
2, 82680, Note_on_c, 0, 79, 0
2, 82680, Note_on_c, 0, 66, 83
2, 82800, Note_on_c, 0, 66, 0
2, 82800, Note_on_c, 0, 67, 83
2, 82920, Note_on_c, 0, 67, 0
2, 82920, Note_on_c, 0, 74, 83
2, 83040, Note_on_c, 0, 74, 0
2, 83040, Note_on_c, 0, 79, 83
2, 83160, Note_on_c, 0, 79, 0
2, 83160, Note_on_c, 0, 67, 83
2, 83280, Note_on_c, 0, 67, 0
2, 83280, Note_on_c, 0, 74, 83
2, 83400, Note_on_c, 0, 74, 0
2, 83400, Note_on_c, 0, 79, 83
2, 83520, Note_on_c, 0, 79, 0
2, 83520, Note_on_c, 0, 75, 83
2, 83640, Note_on_c, 0, 75, 0
2, 83640, Note_on_c, 0, 63, 83
2, 83760, Note_on_c, 0, 63, 0
2, 83760, Note_on_c, 0, 67, 83
2, 83880, Note_on_c, 0, 67, 0
2, 83880, Note_on_c, 0, 75, 83
2, 84000, Note_on_c, 0, 75, 0
2, 84000, Note_on_c, 0, 72, 83
2, 84120, Note_on_c, 0, 72, 0
2, 84120, Note_on_c, 0, 60, 83
2, 84240, Note_on_c, 0, 60, 0
2, 84240, Note_on_c, 0, 67, 83
2, 84360, Note_on_c, 0, 67, 0
2, 84360, Note_on_c, 0, 72, 83
2, 84480, Note_on_c, 0, 72, 0
2, 88800, Control_c, 0, 64, 0
2, 88920, Note_on_c, 0, 73, 83
2, 89040, Note_on_c, 0, 73, 0
2, 89040, Note_on_c, 0, 74, 83
2, 89160, Note_on_c, 0, 74, 0
2, 89160, Note_on_c, 0, 86, 83
2, 89280, Note_on_c, 0, 86, 0
2, 89280, Note_on_c, 0, 82, 83
2, 89400, Note_on_c, 0, 82, 0
2, 89400, Note_on_c, 0, 70, 83
2, 89520, Note_on_c, 0, 70, 0
2, 89520, Note_on_c, 0, 74, 83
2, 89640, Note_on_c, 0, 74, 0
2, 89640, Note_on_c, 0, 82, 83
2, 89760, Note_on_c, 0, 82, 0
2, 89760, Note_on_c, 0, 78, 83
2, 89880, Note_on_c, 0, 78, 0
2, 89880, Note_on_c, 0, 66, 83
2, 90000, Note_on_c, 0, 66, 0
2, 90000, Note_on_c, 0, 74, 83
2, 90120, Note_on_c, 0, 74, 0
2, 90120, Note_on_c, 0, 78, 83
2, 90240, Note_on_c, 0, 78, 0
2, 90240, Note_on_c, 0, 79, 83
2, 90360, Note_on_c, 0, 79, 0
2, 90360, Note_on_c, 0, 66, 83
2, 90480, Note_on_c, 0, 66, 0
2, 90480, Note_on_c, 0, 67, 83
2, 90600, Note_on_c, 0, 67, 0
2, 90600, Note_on_c, 0, 74, 83
2, 90720, Note_on_c, 0, 74, 0
2, 90720, Note_on_c, 0, 79, 83
2, 90840, Note_on_c, 0, 79, 0
2, 90840, Note_on_c, 0, 67, 83
2, 90960, Note_on_c, 0, 67, 0
2, 90960, Note_on_c, 0, 74, 83
2, 91080, Note_on_c, 0, 74, 0
2, 91080, Note_on_c, 0, 79, 83
2, 91200, Note_on_c, 0, 79, 0
2, 91200, Note_on_c, 0, 76, 83
2, 91320, Note_on_c, 0, 76, 0
2, 91320, Note_on_c, 0, 64, 83
2, 91440, Note_on_c, 0, 64, 0
2, 91440, Note_on_c, 0, 67, 83
2, 91560, Note_on_c, 0, 67, 0
2, 91560, Note_on_c, 0, 76, 83
2, 91680, Note_on_c, 0, 76, 0
2, 91680, Note_on_c, 0, 71, 83
2, 91800, Note_on_c, 0, 71, 0
2, 91800, Note_on_c, 0, 62, 83
2, 91920, Note_on_c, 0, 62, 0
2, 91920, Note_on_c, 0, 67, 83
2, 92040, Note_on_c, 0, 67, 0
2, 92040, Note_on_c, 0, 71, 83
2, 92160, Note_on_c, 0, 71, 0
2, 92160, Note_on_c, 0, 72, 83
2, 92280, Note_on_c, 0, 72, 0
2, 92280, Note_on_c, 0, 71, 83
2, 92400, Note_on_c, 0, 71, 0
2, 92400, Note_on_c, 0, 72, 83
2, 92520, Note_on_c, 0, 72, 0
2, 92520, Note_on_c, 0, 79, 83
2, 92640, Note_on_c, 0, 79, 0
2, 92640, Note_on_c, 0, 84, 83
2, 92760, Note_on_c, 0, 84, 0
2, 92760, Note_on_c, 0, 72, 83
2, 92880, Note_on_c, 0, 72, 0
2, 92880, Note_on_c, 0, 79, 83
2, 93000, Note_on_c, 0, 79, 0
2, 93000, Note_on_c, 0, 84, 83
2, 93120, Note_on_c, 0, 84, 0
2, 93120, Note_on_c, 0, 81, 83
2, 93240, Note_on_c, 0, 81, 0
2, 93240, Note_on_c, 0, 69, 83
2, 93360, Note_on_c, 0, 69, 0
2, 93360, Note_on_c, 0, 72, 83
2, 93480, Note_on_c, 0, 72, 0
2, 93480, Note_on_c, 0, 81, 83
2, 93600, Note_on_c, 0, 81, 0
2, 93600, Note_on_c, 0, 76, 83
2, 93720, Note_on_c, 0, 76, 0
2, 93720, Note_on_c, 0, 64, 83
2, 93840, Note_on_c, 0, 64, 0
2, 93840, Note_on_c, 0, 72, 83
2, 93960, Note_on_c, 0, 72, 0
2, 93960, Note_on_c, 0, 76, 83
2, 94080, Note_on_c, 0, 76, 0
2, 94080, Note_on_c, 0, 77, 83
2, 94200, Note_on_c, 0, 77, 0
2, 94200, Note_on_c, 0, 64, 83
2, 94320, Note_on_c, 0, 64, 0
2, 94320, Note_on_c, 0, 65, 83
2, 94440, Note_on_c, 0, 65, 0
2, 94440, Note_on_c, 0, 72, 83
2, 94560, Note_on_c, 0, 72, 0
2, 94560, Note_on_c, 0, 77, 83
2, 94680, Note_on_c, 0, 77, 0
2, 94680, Note_on_c, 0, 65, 83
2, 94800, Note_on_c, 0, 65, 0
2, 94800, Note_on_c, 0, 72, 83
2, 94920, Note_on_c, 0, 72, 0
2, 94920, Note_on_c, 0, 77, 83
2, 95040, Note_on_c, 0, 77, 0
2, 95040, Note_on_c, 0, 74, 83
2, 95160, Note_on_c, 0, 74, 0
2, 95160, Note_on_c, 0, 62, 83
2, 95280, Note_on_c, 0, 62, 0
2, 95280, Note_on_c, 0, 65, 83
2, 95400, Note_on_c, 0, 65, 0
2, 95400, Note_on_c, 0, 74, 83
2, 95520, Note_on_c, 0, 74, 0
2, 95520, Note_on_c, 0, 69, 83
2, 95640, Note_on_c, 0, 69, 0
2, 95640, Note_on_c, 0, 60, 83
2, 95760, Note_on_c, 0, 60, 0
2, 95760, Note_on_c, 0, 65, 83
2, 95880, Note_on_c, 0, 65, 0
2, 95880, Note_on_c, 0, 69, 83
2, 96000, Note_on_c, 0, 69, 0
2, 96000, Note_on_c, 0, 70, 83
2, 96120, Note_on_c, 0, 70, 0
2, 96120, Note_on_c, 0, 71, 83
2, 96240, Note_on_c, 0, 71, 0
2, 96240, Note_on_c, 0, 77, 83
2, 96360, Note_on_c, 0, 77, 0
2, 96360, Note_on_c, 0, 80, 83
2, 96480, Note_on_c, 0, 80, 0
2, 96480, Note_on_c, 0, 71, 109
2, 96480, Note_on_c, 0, 83, 109
2, 96600, Note_on_c, 0, 83, 0
2, 96600, Note_on_c, 0, 71, 0
2, 96600, Note_on_c, 0, 80, 83
2, 96720, Note_on_c, 0, 80, 0
2, 96720, Note_on_c, 0, 77, 83
2, 96840, Note_on_c, 0, 77, 0
2, 96840, Note_on_c, 0, 71, 83
2, 96960, Note_on_c, 0, 71, 0
2, 96960, Note_on_c, 0, 71, 83
2, 97080, Note_on_c, 0, 71, 0
2, 97080, Note_on_c, 0, 68, 83
2, 97200, Note_on_c, 0, 68, 0
2, 97200, Note_on_c, 0, 65, 83
2, 97320, Note_on_c, 0, 65, 0
2, 97320, Note_on_c, 0, 59, 83
2, 97440, Note_on_c, 0, 59, 0
2, 97440, Note_on_c, 0, 59, 83
2, 97560, Note_on_c, 0, 59, 0
2, 97560, Note_on_c, 0, 56, 83
2, 97680, Note_on_c, 0, 56, 0
2, 97680, Note_on_c, 0, 53, 83
2, 97800, Note_on_c, 0, 53, 0
2, 97800, Note_on_c, 0, 47, 83
2, 97920, Note_on_c, 0, 47, 0
2, 97920, Note_on_c, 0, 53, 83
2, 97920, Note_on_c, 0, 56, 83
2, 97920, Note_on_c, 0, 58, 83
2, 98160, Note_on_c, 0, 58, 0
2, 98160, Note_on_c, 0, 56, 0
2, 98160, Note_on_c, 0, 53, 0
2, 98160, Note_on_c, 0, 58, 83
2, 98160, Note_on_c, 0, 70, 83
2, 98400, Note_on_c, 0, 70, 0
2, 98400, Note_on_c, 0, 58, 0
2, 98400, Note_on_c, 0, 59, 83
2, 98400, Note_on_c, 0, 70, 83
2, 98400, Note_on_c, 0, 71, 83
2, 98640, Note_on_c, 0, 71, 0
2, 98640, Note_on_c, 0, 70, 0
2, 98640, Note_on_c, 0, 59, 0
2, 98640, Note_on_c, 0, 60, 83
2, 98640, Note_on_c, 0, 70, 83
2, 98640, Note_on_c, 0, 72, 83
2, 98880, Note_on_c, 0, 72, 0
2, 98880, Note_on_c, 0, 70, 0
2, 98880, Note_on_c, 0, 60, 0
2, 98880, Note_on_c, 0, 61, 83
2, 98880, Note_on_c, 0, 70, 83
2, 98880, Note_on_c, 0, 73, 83
2, 99360, Note_on_c, 0, 73, 0
2, 99360, Note_on_c, 0, 70, 0
2, 99360, Note_on_c, 0, 61, 0
2, 99360, Note_on_c, 0, 62, 83
2, 99360, Note_on_c, 0, 70, 83
2, 99360, Note_on_c, 0, 74, 83
2, 99840, Note_on_c, 0, 74, 0
2, 99840, Note_on_c, 0, 70, 0
2, 99840, Note_on_c, 0, 62, 0
2, 99840, Note_on_c, 0, 63, 83
2, 99840, Note_on_c, 0, 70, 83
2, 99840, Note_on_c, 0, 75, 83
2, 100080, Note_on_c, 0, 75, 0
2, 100080, Note_on_c, 0, 70, 0
2, 100080, Note_on_c, 0, 63, 0
2, 100080, Note_on_c, 0, 75, 83
2, 100200, Note_on_c, 0, 75, 0
2, 100200, Note_on_c, 0, 82, 83
2, 100320, Note_on_c, 0, 82, 0
2, 100320, Note_on_c, 0, 73, 109
2, 100320, Note_on_c, 0, 85, 109
2, 100440, Note_on_c, 0, 85, 0
2, 100440, Note_on_c, 0, 73, 0
2, 100440, Note_on_c, 0, 82, 83
2, 100560, Note_on_c, 0, 82, 0
2, 100560, Note_on_c, 0, 79, 83
2, 100680, Note_on_c, 0, 79, 0
2, 100680, Note_on_c, 0, 73, 83
2, 100800, Note_on_c, 0, 73, 0
2, 100800, Note_on_c, 0, 73, 83
2, 100920, Note_on_c, 0, 73, 0
2, 100920, Note_on_c, 0, 70, 83
2, 101040, Note_on_c, 0, 70, 0
2, 101040, Note_on_c, 0, 67, 83
2, 101160, Note_on_c, 0, 67, 0
2, 101160, Note_on_c, 0, 61, 83
2, 101280, Note_on_c, 0, 61, 0
2, 101280, Note_on_c, 0, 61, 83
2, 101400, Note_on_c, 0, 61, 0
2, 101400, Note_on_c, 0, 58, 83
2, 101520, Note_on_c, 0, 58, 0
2, 101520, Note_on_c, 0, 55, 83
2, 101640, Note_on_c, 0, 55, 0
2, 101640, Note_on_c, 0, 49, 83
2, 101760, Note_on_c, 0, 49, 0
2, 101760, Note_on_c, 0, 55, 83
2, 101760, Note_on_c, 0, 58, 83
2, 101760, Note_on_c, 0, 60, 83
2, 102000, Note_on_c, 0, 60, 0
2, 102000, Note_on_c, 0, 58, 0
2, 102000, Note_on_c, 0, 55, 0
2, 102000, Note_on_c, 0, 60, 83
2, 102000, Note_on_c, 0, 72, 83
2, 102240, Note_on_c, 0, 72, 0
2, 102240, Note_on_c, 0, 60, 0
2, 102240, Note_on_c, 0, 61, 83
2, 102240, Note_on_c, 0, 72, 83
2, 102240, Note_on_c, 0, 73, 83
2, 102480, Note_on_c, 0, 73, 0
2, 102480, Note_on_c, 0, 72, 0
2, 102480, Note_on_c, 0, 61, 0
2, 102480, Note_on_c, 0, 62, 83
2, 102480, Note_on_c, 0, 72, 83
2, 102480, Note_on_c, 0, 74, 83
2, 102720, Note_on_c, 0, 74, 0
2, 102720, Note_on_c, 0, 72, 0
2, 102720, Note_on_c, 0, 62, 0
2, 102720, Note_on_c, 0, 63, 83
2, 102720, Note_on_c, 0, 72, 83
2, 102720, Note_on_c, 0, 75, 83
2, 103200, Note_on_c, 0, 75, 0
2, 103200, Note_on_c, 0, 72, 0
2, 103200, Note_on_c, 0, 63, 0
2, 103200, Note_on_c, 0, 64, 83
2, 103200, Note_on_c, 0, 72, 83
2, 103200, Note_on_c, 0, 76, 83
2, 103680, Note_on_c, 0, 76, 0
2, 103680, Note_on_c, 0, 72, 0
2, 103680, Note_on_c, 0, 64, 0
2, 103680, Note_on_c, 0, 65, 96
2, 103680, Note_on_c, 0, 72, 96
2, 103680, Note_on_c, 0, 77, 96
2, 103920, Note_on_c, 0, 77, 0
2, 103920, Note_on_c, 0, 72, 0
2, 103920, Note_on_c, 0, 65, 0
2, 103920, Note_on_c, 0, 77, 96
2, 104040, Note_on_c, 0, 77, 0
2, 104040, Note_on_c, 0, 84, 96
2, 104160, Note_on_c, 0, 84, 0
2, 104160, Note_on_c, 0, 75, 122
2, 104160, Note_on_c, 0, 87, 122
2, 104280, Note_on_c, 0, 87, 0
2, 104280, Note_on_c, 0, 75, 0
2, 104280, Note_on_c, 0, 84, 96
2, 104400, Note_on_c, 0, 84, 0
2, 104400, Note_on_c, 0, 81, 96
2, 104520, Note_on_c, 0, 81, 0
2, 104520, Note_on_c, 0, 75, 96
2, 104640, Note_on_c, 0, 75, 0
2, 104640, Note_on_c, 0, 75, 96
2, 104760, Note_on_c, 0, 75, 0
2, 104760, Note_on_c, 0, 72, 96
2, 104880, Note_on_c, 0, 72, 0
2, 104880, Note_on_c, 0, 69, 96
2, 105000, Note_on_c, 0, 69, 0
2, 105000, Note_on_c, 0, 63, 96
2, 105120, Note_on_c, 0, 63, 0
2, 105120, Note_on_c, 0, 69, 96
2, 105240, Note_on_c, 0, 69, 0
2, 105240, Note_on_c, 0, 72, 96
2, 105360, Note_on_c, 0, 72, 0
2, 105360, Note_on_c, 0, 75, 96
2, 105480, Note_on_c, 0, 75, 0
2, 105480, Note_on_c, 0, 81, 96
2, 105600, Note_on_c, 0, 81, 0
2, 105600, Note_on_c, 0, 69, 96
2, 105720, Note_on_c, 0, 69, 0
2, 105720, Note_on_c, 0, 74, 96
2, 105840, Note_on_c, 0, 74, 0
2, 105840, Note_on_c, 0, 81, 96
2, 105960, Note_on_c, 0, 81, 0
2, 105960, Note_on_c, 0, 86, 96
2, 106080, Note_on_c, 0, 86, 0
2, 106080, Note_on_c, 0, 77, 122
2, 106080, Note_on_c, 0, 89, 122
2, 106200, Note_on_c, 0, 89, 0
2, 106200, Note_on_c, 0, 77, 0
2, 106200, Note_on_c, 0, 86, 96
2, 106320, Note_on_c, 0, 86, 0
2, 106320, Note_on_c, 0, 83, 96
2, 106440, Note_on_c, 0, 83, 0
2, 106440, Note_on_c, 0, 77, 96
2, 106560, Note_on_c, 0, 77, 0
2, 106560, Note_on_c, 0, 77, 96
2, 106680, Note_on_c, 0, 77, 0
2, 106680, Note_on_c, 0, 74, 96
2, 106800, Note_on_c, 0, 74, 0
2, 106800, Note_on_c, 0, 71, 96
2, 106920, Note_on_c, 0, 71, 0
2, 106920, Note_on_c, 0, 65, 96
2, 107040, Note_on_c, 0, 65, 0
2, 107040, Note_on_c, 0, 71, 96
2, 107160, Note_on_c, 0, 71, 0
2, 107160, Note_on_c, 0, 74, 96
2, 107280, Note_on_c, 0, 74, 0
2, 107280, Note_on_c, 0, 77, 96
2, 107400, Note_on_c, 0, 77, 0
2, 107400, Note_on_c, 0, 83, 96
2, 107520, Note_on_c, 0, 83, 0
2, 107520, Note_on_c, 0, 71, 96
2, 107640, Note_on_c, 0, 71, 0
2, 107640, Note_on_c, 0, 76, 96
2, 107760, Note_on_c, 0, 76, 0
2, 107760, Note_on_c, 0, 83, 96
2, 107880, Note_on_c, 0, 83, 0
2, 107880, Note_on_c, 0, 88, 96
2, 108000, Note_on_c, 0, 88, 0
2, 108000, Note_on_c, 0, 79, 122
2, 108000, Note_on_c, 0, 91, 122
2, 108120, Note_on_c, 0, 91, 0
2, 108120, Note_on_c, 0, 79, 0
2, 108120, Note_on_c, 0, 88, 96
2, 108240, Note_on_c, 0, 88, 0
2, 108240, Note_on_c, 0, 85, 96
2, 108360, Note_on_c, 0, 85, 0
2, 108360, Note_on_c, 0, 79, 96
2, 108480, Note_on_c, 0, 79, 0
2, 108480, Note_on_c, 0, 78, 96
2, 108600, Note_on_c, 0, 78, 0
2, 108600, Note_on_c, 0, 76, 96
2, 108720, Note_on_c, 0, 76, 0
2, 108720, Note_on_c, 0, 73, 96
2, 108840, Note_on_c, 0, 73, 0
2, 108840, Note_on_c, 0, 66, 96
2, 108960, Note_on_c, 0, 66, 0
2, 108960, Note_on_c, 0, 81, 122
2, 108960, Note_on_c, 0, 93, 122
2, 109080, Note_on_c, 0, 93, 0
2, 109080, Note_on_c, 0, 81, 0
2, 109080, Note_on_c, 0, 90, 96
2, 109200, Note_on_c, 0, 90, 0
2, 109200, Note_on_c, 0, 87, 96
2, 109320, Note_on_c, 0, 87, 0
2, 109320, Note_on_c, 0, 81, 96
2, 109440, Note_on_c, 0, 81, 0
2, 109440, Note_on_c, 0, 80, 96
2, 109560, Note_on_c, 0, 80, 0
2, 109560, Note_on_c, 0, 78, 96
2, 109680, Note_on_c, 0, 78, 0
2, 109680, Note_on_c, 0, 75, 96
2, 109800, Note_on_c, 0, 75, 0
2, 109800, Note_on_c, 0, 68, 96
2, 109920, Note_on_c, 0, 68, 0
2, 109920, Note_on_c, 0, 83, 122
2, 109920, Note_on_c, 0, 95, 122
2, 110040, Note_on_c, 0, 95, 0
2, 110040, Note_on_c, 0, 83, 0
2, 110040, Note_on_c, 0, 92, 96
2, 110160, Note_on_c, 0, 92, 0
2, 110160, Note_on_c, 0, 89, 96
2, 110280, Note_on_c, 0, 89, 0
2, 110280, Note_on_c, 0, 83, 96
2, 110400, Note_on_c, 0, 83, 0
2, 110400, Note_on_c, 0, 82, 96
2, 110520, Note_on_c, 0, 82, 0
2, 110520, Note_on_c, 0, 80, 96
2, 110640, Note_on_c, 0, 80, 0
2, 110640, Note_on_c, 0, 77, 96
2, 110760, Note_on_c, 0, 77, 0
2, 110760, Note_on_c, 0, 70, 96
2, 110880, Note_on_c, 0, 70, 0
2, 110880, Note_on_c, 0, 84, 122
2, 110880, Note_on_c, 0, 96, 122
2, 111000, Note_on_c, 0, 96, 0
2, 111000, Note_on_c, 0, 84, 0
2, 111000, Note_on_c, 0, 93, 96
2, 111120, Note_on_c, 0, 93, 0
2, 111120, Note_on_c, 0, 90, 96
2, 111240, Note_on_c, 0, 90, 0
2, 111240, Note_on_c, 0, 84, 96
2, 111360, Note_on_c, 0, 84, 0
2, 111360, Note_on_c, 0, 83, 96
2, 111480, Note_on_c, 0, 83, 0
2, 111480, Note_on_c, 0, 81, 96
2, 111600, Note_on_c, 0, 81, 0
2, 111600, Note_on_c, 0, 78, 96
2, 111720, Note_on_c, 0, 78, 0
2, 111720, Note_on_c, 0, 71, 96
2, 111840, Note_on_c, 0, 71, 0
2, 111840, Note_on_c, 0, 83, 122
2, 111840, Note_on_c, 0, 95, 122
2, 111960, Note_on_c, 0, 95, 0
2, 111960, Note_on_c, 0, 83, 0
2, 111960, Note_on_c, 0, 93, 96
2, 112080, Note_on_c, 0, 93, 0
2, 112080, Note_on_c, 0, 90, 96
2, 112200, Note_on_c, 0, 90, 0
2, 112200, Note_on_c, 0, 83, 96
2, 112320, Note_on_c, 0, 83, 0
2, 112320, Note_on_c, 0, 83, 96
2, 112440, Note_on_c, 0, 83, 0
2, 112440, Note_on_c, 0, 81, 96
2, 112560, Note_on_c, 0, 81, 0
2, 112560, Note_on_c, 0, 78, 96
2, 112680, Note_on_c, 0, 78, 0
2, 112680, Note_on_c, 0, 71, 96
2, 112800, Note_on_c, 0, 71, 0
2, 112800, Note_on_c, 0, 71, 96
2, 112920, Note_on_c, 0, 71, 0
2, 112920, Note_on_c, 0, 69, 96
2, 113040, Note_on_c, 0, 69, 0
2, 113040, Note_on_c, 0, 66, 96
2, 113160, Note_on_c, 0, 66, 0
2, 113160, Note_on_c, 0, 59, 96
2, 113280, Note_on_c, 0, 59, 0
2, 113280, Note_on_c, 0, 72, 96
2, 113400, Note_on_c, 0, 72, 0
2, 113400, Note_on_c, 0, 69, 96
2, 113520, Note_on_c, 0, 69, 0
2, 113520, Note_on_c, 0, 66, 96
2, 113640, Note_on_c, 0, 66, 0
2, 113640, Note_on_c, 0, 60, 96
2, 113760, Note_on_c, 0, 60, 0
2, 113760, Note_on_c, 0, 84, 122
2, 113760, Note_on_c, 0, 96, 122
2, 113880, Note_on_c, 0, 96, 0
2, 113880, Note_on_c, 0, 84, 0
2, 113880, Note_on_c, 0, 93, 96
2, 114000, Note_on_c, 0, 93, 0
2, 114000, Note_on_c, 0, 90, 96
2, 114120, Note_on_c, 0, 90, 0
2, 114120, Note_on_c, 0, 84, 96
2, 114240, Note_on_c, 0, 84, 0
2, 114240, Note_on_c, 0, 84, 96
2, 114360, Note_on_c, 0, 84, 0
2, 114360, Note_on_c, 0, 81, 96
2, 114480, Note_on_c, 0, 81, 0
2, 114480, Note_on_c, 0, 78, 96
2, 114600, Note_on_c, 0, 78, 0
2, 114600, Note_on_c, 0, 72, 96
2, 114720, Note_on_c, 0, 72, 0
2, 114720, Note_on_c, 0, 72, 96
2, 114840, Note_on_c, 0, 72, 0
2, 114840, Note_on_c, 0, 69, 96
2, 114960, Note_on_c, 0, 69, 0
2, 114960, Note_on_c, 0, 66, 96
2, 115080, Note_on_c, 0, 66, 0
2, 115080, Note_on_c, 0, 60, 96
2, 115200, Note_on_c, 0, 60, 0
2, 115200, Note_on_c, 0, 73, 96
2, 115320, Note_on_c, 0, 73, 0
2, 115320, Note_on_c, 0, 70, 96
2, 115440, Note_on_c, 0, 70, 0
2, 115440, Note_on_c, 0, 67, 96
2, 115560, Note_on_c, 0, 67, 0
2, 115560, Note_on_c, 0, 61, 96
2, 115680, Note_on_c, 0, 61, 0
2, 115680, Note_on_c, 0, 85, 122
2, 115680, Note_on_c, 0, 97, 122
2, 115800, Note_on_c, 0, 97, 0
2, 115800, Note_on_c, 0, 85, 0
2, 115800, Note_on_c, 0, 94, 96
2, 115920, Note_on_c, 0, 94, 0
2, 115920, Note_on_c, 0, 91, 96
2, 116040, Note_on_c, 0, 91, 0
2, 116040, Note_on_c, 0, 85, 96
2, 116160, Note_on_c, 0, 85, 0
2, 116160, Note_on_c, 0, 85, 96
2, 116280, Note_on_c, 0, 85, 0
2, 116280, Note_on_c, 0, 82, 96
2, 116400, Note_on_c, 0, 82, 0
2, 116400, Note_on_c, 0, 79, 96
2, 116520, Note_on_c, 0, 79, 0
2, 116520, Note_on_c, 0, 73, 96
2, 116640, Note_on_c, 0, 73, 0
2, 116640, Note_on_c, 0, 73, 96
2, 116760, Note_on_c, 0, 73, 0
2, 116760, Note_on_c, 0, 70, 96
2, 116880, Note_on_c, 0, 70, 0
2, 116880, Note_on_c, 0, 67, 96
2, 117000, Note_on_c, 0, 67, 0
2, 117000, Note_on_c, 0, 61, 96
2, 117120, Note_on_c, 0, 61, 0
2, 117120, Note_on_c, 0, 79, 96
2, 117240, Note_on_c, 0, 79, 0
2, 117240, Note_on_c, 0, 73, 96
2, 117360, Note_on_c, 0, 73, 0
2, 117360, Note_on_c, 0, 70, 96
2, 117480, Note_on_c, 0, 70, 0
2, 117480, Note_on_c, 0, 67, 96
2, 117600, Note_on_c, 0, 67, 0
2, 117600, Note_on_c, 0, 82, 96
2, 117720, Note_on_c, 0, 82, 0
2, 117720, Note_on_c, 0, 79, 96
2, 117840, Note_on_c, 0, 79, 0
2, 117840, Note_on_c, 0, 73, 96
2, 117960, Note_on_c, 0, 73, 0
2, 117960, Note_on_c, 0, 70, 96
2, 118080, Note_on_c, 0, 70, 0
2, 118080, Note_on_c, 0, 85, 96
2, 118200, Note_on_c, 0, 85, 0
2, 118200, Note_on_c, 0, 82, 96
2, 118320, Note_on_c, 0, 82, 0
2, 118320, Note_on_c, 0, 79, 96
2, 118440, Note_on_c, 0, 79, 0
2, 118440, Note_on_c, 0, 73, 96
2, 118560, Note_on_c, 0, 73, 0
2, 118560, Note_on_c, 0, 91, 96
2, 118680, Note_on_c, 0, 91, 0
2, 118680, Note_on_c, 0, 85, 96
2, 118800, Note_on_c, 0, 85, 0
2, 118800, Note_on_c, 0, 81, 96
2, 118920, Note_on_c, 0, 81, 0
2, 118920, Note_on_c, 0, 79, 96
2, 119040, Note_on_c, 0, 79, 0
2, 119040, Note_on_c, 0, 90, 96
2, 119160, Note_on_c, 0, 90, 0
2, 119160, Note_on_c, 0, 86, 96
2, 119280, Note_on_c, 0, 86, 0
2, 119280, Note_on_c, 0, 81, 96
2, 119400, Note_on_c, 0, 81, 0
2, 119400, Note_on_c, 0, 78, 96
2, 119520, Note_on_c, 0, 78, 0
2, 119520, Note_on_c, 0, 103, 122
2, 119640, Note_on_c, 0, 103, 0
2, 119640, Note_on_c, 0, 97, 96
2, 119760, Note_on_c, 0, 97, 0
2, 119760, Note_on_c, 0, 93, 96
2, 119880, Note_on_c, 0, 93, 0
2, 119880, Note_on_c, 0, 91, 96
2, 120000, Note_on_c, 0, 91, 0
2, 120000, Note_on_c, 0, 102, 96
2, 120120, Note_on_c, 0, 102, 0
2, 120120, Note_on_c, 0, 98, 96
2, 120240, Note_on_c, 0, 98, 0
2, 120240, Note_on_c, 0, 93, 96
2, 120360, Note_on_c, 0, 93, 0
2, 120360, Note_on_c, 0, 90, 96
2, 120480, Note_on_c, 0, 90, 0
2, 120480, Note_on_c, 0, 97, 96
2, 120600, Note_on_c, 0, 97, 0
2, 120600, Note_on_c, 0, 93, 96
2, 120720, Note_on_c, 0, 93, 0
2, 120720, Note_on_c, 0, 91, 96
2, 120840, Note_on_c, 0, 91, 0
2, 120840, Note_on_c, 0, 85, 96
2, 120960, Note_on_c, 0, 85, 0
2, 120960, Note_on_c, 0, 98, 96
2, 121080, Note_on_c, 0, 98, 0
2, 121080, Note_on_c, 0, 93, 96
2, 121200, Note_on_c, 0, 93, 0
2, 121200, Note_on_c, 0, 90, 96
2, 121320, Note_on_c, 0, 90, 0
2, 121320, Note_on_c, 0, 86, 96
2, 121440, Note_on_c, 0, 86, 0
2, 121440, Note_on_c, 0, 91, 122
2, 121560, Note_on_c, 0, 91, 0
2, 121560, Note_on_c, 0, 85, 96
2, 121680, Note_on_c, 0, 85, 0
2, 121680, Note_on_c, 0, 81, 96
2, 121800, Note_on_c, 0, 81, 0
2, 121800, Note_on_c, 0, 79, 96
2, 121920, Note_on_c, 0, 79, 0
2, 121920, Note_on_c, 0, 90, 96
2, 122040, Note_on_c, 0, 90, 0
2, 122040, Note_on_c, 0, 86, 96
2, 122160, Note_on_c, 0, 86, 0
2, 122160, Note_on_c, 0, 81, 96
2, 122280, Note_on_c, 0, 81, 0
2, 122280, Note_on_c, 0, 78, 96
2, 122400, Note_on_c, 0, 78, 0
2, 122400, Note_on_c, 0, 85, 96
2, 122520, Note_on_c, 0, 85, 0
2, 122520, Note_on_c, 0, 81, 96
2, 122640, Note_on_c, 0, 81, 0
2, 122640, Note_on_c, 0, 79, 96
2, 122760, Note_on_c, 0, 79, 0
2, 122760, Note_on_c, 0, 73, 96
2, 122880, Note_on_c, 0, 73, 0
2, 122880, Note_on_c, 0, 86, 96
2, 123000, Note_on_c, 0, 86, 0
2, 123000, Note_on_c, 0, 81, 96
2, 123120, Note_on_c, 0, 81, 0
2, 123120, Note_on_c, 0, 78, 96
2, 123240, Note_on_c, 0, 78, 0
2, 123240, Note_on_c, 0, 74, 96
2, 123360, Note_on_c, 0, 74, 0
2, 123360, Note_on_c, 0, 79, 122
2, 123480, Note_on_c, 0, 79, 0
2, 123480, Note_on_c, 0, 73, 96
2, 123600, Note_on_c, 0, 73, 0
2, 123600, Note_on_c, 0, 69, 96
2, 123720, Note_on_c, 0, 69, 0
2, 123720, Note_on_c, 0, 67, 96
2, 123840, Note_on_c, 0, 67, 0
2, 123840, Note_on_c, 0, 78, 96
2, 123960, Note_on_c, 0, 78, 0
2, 123960, Note_on_c, 0, 74, 96
2, 124080, Note_on_c, 0, 74, 0
2, 124080, Note_on_c, 0, 69, 96
2, 124200, Note_on_c, 0, 69, 0
2, 124200, Note_on_c, 0, 66, 96
2, 124320, Note_on_c, 0, 66, 0
2, 124320, Note_on_c, 0, 73, 96
2, 124440, Note_on_c, 0, 73, 0
2, 124440, Note_on_c, 0, 69, 96
2, 124560, Note_on_c, 0, 69, 0
2, 124560, Note_on_c, 0, 67, 96
2, 124680, Note_on_c, 0, 67, 0
2, 124680, Note_on_c, 0, 61, 96
2, 124800, Note_on_c, 0, 61, 0
2, 124800, Note_on_c, 0, 74, 96
2, 124920, Note_on_c, 0, 74, 0
2, 124920, Note_on_c, 0, 69, 96
2, 125040, Note_on_c, 0, 69, 0
2, 125040, Note_on_c, 0, 66, 96
2, 125160, Note_on_c, 0, 66, 0
2, 125160, Note_on_c, 0, 62, 96
2, 125280, Note_on_c, 0, 62, 0
2, 125280, Note_on_c, 0, 67, 122
2, 125400, Note_on_c, 0, 67, 0
2, 125400, Note_on_c, 0, 61, 96
2, 125520, Note_on_c, 0, 61, 0
2, 125520, Note_on_c, 0, 57, 96
2, 125640, Note_on_c, 0, 57, 0
2, 125640, Note_on_c, 0, 55, 96
2, 125760, Note_on_c, 0, 55, 0
2, 125760, Note_on_c, 0, 66, 96
2, 125880, Note_on_c, 0, 66, 0
2, 125880, Note_on_c, 0, 62, 96
2, 126000, Note_on_c, 0, 62, 0
2, 126000, Note_on_c, 0, 57, 96
2, 126120, Note_on_c, 0, 57, 0
2, 126120, Note_on_c, 0, 54, 96
2, 126240, Note_on_c, 0, 54, 0
2, 126240, Note_on_c, 0, 61, 96
2, 126360, Note_on_c, 0, 61, 0
2, 126360, Note_on_c, 0, 57, 96
2, 126480, Note_on_c, 0, 57, 0
2, 126480, Note_on_c, 0, 55, 96
2, 126600, Note_on_c, 0, 55, 0
2, 126600, Note_on_c, 0, 49, 96
2, 126720, Note_on_c, 0, 49, 0
2, 126720, Note_on_c, 0, 62, 96
2, 126840, Note_on_c, 0, 62, 0
2, 126840, Note_on_c, 0, 57, 96
2, 126960, Note_on_c, 0, 57, 0
2, 126960, Note_on_c, 0, 54, 96
2, 127080, Note_on_c, 0, 54, 0
2, 127080, Note_on_c, 0, 50, 96
2, 127200, Note_on_c, 0, 50, 0
2, 127200, Note_on_c, 0, 67, 122
2, 127320, Note_on_c, 0, 67, 0
2, 127320, Note_on_c, 0, 61, 96
2, 127440, Note_on_c, 0, 61, 0
2, 127440, Note_on_c, 0, 57, 96
2, 127560, Note_on_c, 0, 57, 0
2, 127560, Note_on_c, 0, 55, 96
2, 127680, Note_on_c, 0, 55, 0
2, 127680, Note_on_c, 0, 66, 96
2, 127800, Note_on_c, 0, 66, 0
2, 127800, Note_on_c, 0, 62, 96
2, 127920, Note_on_c, 0, 62, 0
2, 127920, Note_on_c, 0, 57, 96
2, 128040, Note_on_c, 0, 57, 0
2, 128040, Note_on_c, 0, 54, 96
2, 128160, Note_on_c, 0, 54, 0
2, 128160, Note_on_c, 0, 61, 96
2, 128280, Note_on_c, 0, 61, 0
2, 128280, Note_on_c, 0, 57, 96
2, 128400, Note_on_c, 0, 57, 0
2, 128400, Note_on_c, 0, 55, 96
2, 128520, Note_on_c, 0, 55, 0
2, 128520, Note_on_c, 0, 49, 96
2, 128640, Note_on_c, 0, 49, 0
2, 128640, Note_on_c, 0, 62, 96
2, 128760, Note_on_c, 0, 62, 0
2, 128760, Note_on_c, 0, 57, 96
2, 128880, Note_on_c, 0, 57, 0
2, 128880, Note_on_c, 0, 54, 96
2, 129000, Note_on_c, 0, 54, 0
2, 129000, Note_on_c, 0, 50, 96
2, 129120, Note_on_c, 0, 50, 0
2, 129120, Note_on_c, 0, 67, 122
2, 129240, Note_on_c, 0, 67, 0
2, 129240, Note_on_c, 0, 61, 96
2, 129360, Note_on_c, 0, 61, 0
2, 129360, Note_on_c, 0, 57, 96
2, 129480, Note_on_c, 0, 57, 0
2, 129480, Note_on_c, 0, 55, 96
2, 129600, Note_on_c, 0, 55, 0
2, 129600, Note_on_c, 0, 66, 96
2, 129720, Note_on_c, 0, 66, 0
2, 129720, Note_on_c, 0, 60, 96
2, 129840, Note_on_c, 0, 60, 0
2, 129840, Note_on_c, 0, 57, 96
2, 129960, Note_on_c, 0, 57, 0
2, 129960, Note_on_c, 0, 54, 96
2, 130080, Note_on_c, 0, 54, 0
2, 130080, Note_on_c, 0, 69, 122
2, 130200, Note_on_c, 0, 69, 0
2, 130200, Note_on_c, 0, 66, 96
2, 130320, Note_on_c, 0, 66, 0
2, 130320, Note_on_c, 0, 60, 96
2, 130440, Note_on_c, 0, 60, 0
2, 130440, Note_on_c, 0, 57, 96
2, 130560, Note_on_c, 0, 57, 0
2, 130560, Note_on_c, 0, 66, 96
2, 130680, Note_on_c, 0, 66, 0
2, 130680, Note_on_c, 0, 60, 96
2, 130800, Note_on_c, 0, 60, 0
2, 130800, Note_on_c, 0, 57, 96
2, 130920, Note_on_c, 0, 57, 0
2, 130920, Note_on_c, 0, 54, 96
2, 131040, Note_on_c, 0, 54, 0
2, 131040, Note_on_c, 0, 72, 122
2, 131160, Note_on_c, 0, 72, 0
2, 131160, Note_on_c, 0, 69, 96
2, 131280, Note_on_c, 0, 69, 0
2, 131280, Note_on_c, 0, 66, 96
2, 131400, Note_on_c, 0, 66, 0
2, 131400, Note_on_c, 0, 60, 96
2, 131520, Note_on_c, 0, 60, 0
2, 131520, Note_on_c, 0, 69, 96
2, 131640, Note_on_c, 0, 69, 0
2, 131640, Note_on_c, 0, 66, 96
2, 131760, Note_on_c, 0, 66, 0
2, 131760, Note_on_c, 0, 60, 96
2, 131880, Note_on_c, 0, 60, 0
2, 131880, Note_on_c, 0, 57, 96
2, 132000, Note_on_c, 0, 57, 0
2, 132000, Note_on_c, 0, 78, 122
2, 132120, Note_on_c, 0, 78, 0
2, 132120, Note_on_c, 0, 72, 96
2, 132240, Note_on_c, 0, 72, 0
2, 132240, Note_on_c, 0, 69, 96
2, 132360, Note_on_c, 0, 69, 0
2, 132360, Note_on_c, 0, 66, 96
2, 132480, Note_on_c, 0, 66, 0
2, 132480, Note_on_c, 0, 72, 96
2, 132600, Note_on_c, 0, 72, 0
2, 132600, Note_on_c, 0, 69, 96
2, 132720, Note_on_c, 0, 69, 0
2, 132720, Note_on_c, 0, 66, 96
2, 132840, Note_on_c, 0, 66, 0
2, 132840, Note_on_c, 0, 60, 96
2, 132960, Note_on_c, 0, 60, 0
2, 132960, Note_on_c, 0, 81, 122
2, 133080, Note_on_c, 0, 81, 0
2, 133080, Note_on_c, 0, 78, 96
2, 133200, Note_on_c, 0, 78, 0
2, 133200, Note_on_c, 0, 72, 96
2, 133320, Note_on_c, 0, 72, 0
2, 133320, Note_on_c, 0, 69, 96
2, 133440, Note_on_c, 0, 69, 0
2, 133440, Note_on_c, 0, 78, 96
2, 133560, Note_on_c, 0, 78, 0
2, 133560, Note_on_c, 0, 72, 96
2, 133680, Note_on_c, 0, 72, 0
2, 133680, Note_on_c, 0, 69, 96
2, 133800, Note_on_c, 0, 69, 0
2, 133800, Note_on_c, 0, 66, 96
2, 133920, Note_on_c, 0, 66, 0
2, 133920, Note_on_c, 0, 72, 122
2, 133920, Note_on_c, 0, 84, 122
2, 134040, Note_on_c, 0, 84, 0
2, 134040, Note_on_c, 0, 72, 0
2, 134040, Note_on_c, 0, 81, 96
2, 134160, Note_on_c, 0, 81, 0
2, 134160, Note_on_c, 0, 78, 96
2, 134280, Note_on_c, 0, 78, 0
2, 134280, Note_on_c, 0, 72, 96
2, 134400, Note_on_c, 0, 72, 0
2, 134400, Note_on_c, 0, 69, 122
2, 134400, Note_on_c, 0, 81, 122
2, 134520, Note_on_c, 0, 81, 0
2, 134520, Note_on_c, 0, 69, 0
2, 134520, Note_on_c, 0, 78, 96
2, 134640, Note_on_c, 0, 78, 0
2, 134640, Note_on_c, 0, 72, 96
2, 134760, Note_on_c, 0, 72, 0
2, 134760, Note_on_c, 0, 69, 96
2, 134880, Note_on_c, 0, 69, 0
2, 134880, Note_on_c, 0, 66, 122
2, 134880, Note_on_c, 0, 78, 122
2, 135000, Note_on_c, 0, 78, 0
2, 135000, Note_on_c, 0, 66, 0
2, 135000, Note_on_c, 0, 72, 96
2, 135120, Note_on_c, 0, 72, 0
2, 135120, Note_on_c, 0, 69, 96
2, 135240, Note_on_c, 0, 69, 0
2, 135240, Note_on_c, 0, 66, 96
2, 135360, Note_on_c, 0, 66, 0
2, 135360, Note_on_c, 0, 60, 122
2, 135360, Note_on_c, 0, 72, 122
2, 135480, Note_on_c, 0, 72, 0
2, 135480, Note_on_c, 0, 60, 0
2, 135480, Note_on_c, 0, 69, 96
2, 135600, Note_on_c, 0, 69, 0
2, 135600, Note_on_c, 0, 66, 96
2, 135720, Note_on_c, 0, 66, 0
2, 135720, Note_on_c, 0, 60, 96
2, 135840, Note_on_c, 0, 60, 0
2, 135840, Note_on_c, 0, 57, 122
2, 135840, Note_on_c, 0, 69, 122
2, 135960, Note_on_c, 0, 69, 0
2, 135960, Note_on_c, 0, 57, 0
2, 135960, Note_on_c, 0, 66, 96
2, 136080, Note_on_c, 0, 66, 0
2, 136080, Note_on_c, 0, 60, 96
2, 136200, Note_on_c, 0, 60, 0
2, 136200, Note_on_c, 0, 57, 96
2, 136320, Note_on_c, 0, 57, 0
2, 136320, Note_on_c, 0, 54, 122
2, 136320, Note_on_c, 0, 66, 122
2, 136440, Note_on_c, 0, 66, 0
2, 136440, Note_on_c, 0, 54, 0
2, 136440, Note_on_c, 0, 60, 96
2, 136560, Note_on_c, 0, 60, 0
2, 136560, Note_on_c, 0, 57, 96
2, 136680, Note_on_c, 0, 57, 0
2, 136680, Note_on_c, 0, 54, 96
2, 136800, Note_on_c, 0, 54, 0
2, 136800, Note_on_c, 0, 66, 122
2, 136920, Note_on_c, 0, 66, 0
2, 136920, Note_on_c, 0, 60, 96
2, 137040, Note_on_c, 0, 60, 0
2, 137040, Note_on_c, 0, 57, 96
2, 137160, Note_on_c, 0, 57, 0
2, 137160, Note_on_c, 0, 54, 96
2, 137280, Note_on_c, 0, 54, 0
2, 137280, Note_on_c, 0, 66, 122
2, 137400, Note_on_c, 0, 66, 0
2, 137400, Note_on_c, 0, 60, 96
2, 137520, Note_on_c, 0, 60, 0
2, 137520, Note_on_c, 0, 57, 96
2, 137640, Note_on_c, 0, 57, 0
2, 137640, Note_on_c, 0, 54, 96
2, 137760, Note_on_c, 0, 54, 0
2, 137760, Note_on_c, 0, 66, 122
2, 137880, Note_on_c, 0, 66, 0
2, 137880, Note_on_c, 0, 60, 96
2, 138000, Note_on_c, 0, 60, 0
2, 138000, Note_on_c, 0, 57, 96
2, 138120, Note_on_c, 0, 57, 0
2, 138120, Note_on_c, 0, 54, 96
2, 138240, Note_on_c, 0, 54, 0
2, 138240, Note_on_c, 0, 66, 122
2, 138360, Note_on_c, 0, 66, 0
2, 138360, Note_on_c, 0, 60, 96
2, 138480, Note_on_c, 0, 60, 0
2, 138480, Note_on_c, 0, 57, 96
2, 138600, Note_on_c, 0, 57, 0
2, 138600, Note_on_c, 0, 54, 96
2, 138720, Note_on_c, 0, 54, 0
2, 138720, Note_on_c, 0, 66, 122
2, 138840, Note_on_c, 0, 66, 0
2, 138840, Note_on_c, 0, 60, 96
2, 138960, Note_on_c, 0, 60, 0
2, 138960, Note_on_c, 0, 57, 96
2, 139080, Note_on_c, 0, 57, 0
2, 139080, Note_on_c, 0, 54, 96
2, 139200, Note_on_c, 0, 54, 0
2, 139200, Note_on_c, 0, 54, 96
2, 139200, Note_on_c, 0, 57, 96
2, 139200, Note_on_c, 0, 60, 96
2, 139200, Note_on_c, 0, 66, 96
2, 139680, Note_on_c, 0, 66, 0
2, 139680, Note_on_c, 0, 54, 0
2, 139680, Note_on_c, 0, 57, 0
2, 139680, Note_on_c, 0, 60, 0
2, 139680, Note_on_c, 0, 54, 96
2, 139680, Note_on_c, 0, 57, 96
2, 139680, Note_on_c, 0, 60, 96
2, 139680, Note_on_c, 0, 66, 96
2, 140160, Note_on_c, 0, 66, 0
2, 140160, Note_on_c, 0, 54, 0
2, 140160, Note_on_c, 0, 57, 0
2, 140160, Note_on_c, 0, 60, 0
2, 140160, Note_on_c, 0, 54, 96
2, 140160, Note_on_c, 0, 57, 96
2, 140160, Note_on_c, 0, 60, 96
2, 140160, Note_on_c, 0, 66, 96
2, 140640, Note_on_c, 0, 66, 0
2, 140640, Note_on_c, 0, 54, 0
2, 140640, Note_on_c, 0, 57, 0
2, 140640, Note_on_c, 0, 60, 0
2, 140640, Note_on_c, 0, 54, 96
2, 140640, Note_on_c, 0, 57, 96
2, 140640, Note_on_c, 0, 60, 96
2, 140640, Note_on_c, 0, 66, 96
2, 141120, Note_on_c, 0, 66, 0
2, 141120, Note_on_c, 0, 54, 0
2, 141120, Note_on_c, 0, 57, 0
2, 141120, Note_on_c, 0, 60, 0
2, 141120, Note_on_c, 0, 54, 96
2, 141120, Note_on_c, 0, 57, 96
2, 141120, Note_on_c, 0, 60, 96
2, 141120, Note_on_c, 0, 66, 96
2, 141440, Note_on_c, 0, 66, 0
2, 141440, Note_on_c, 0, 54, 0
2, 141440, Note_on_c, 0, 57, 0
2, 141440, Note_on_c, 0, 60, 0
2, 141440, Note_on_c, 0, 54, 96
2, 141440, Note_on_c, 0, 57, 96
2, 141440, Note_on_c, 0, 60, 96
2, 141440, Note_on_c, 0, 66, 96
2, 141759, Note_on_c, 0, 66, 0
2, 141759, Note_on_c, 0, 54, 0
2, 141759, Note_on_c, 0, 57, 0
2, 141759, Note_on_c, 0, 60, 0
2, 141759, Note_on_c, 0, 54, 96
2, 141759, Note_on_c, 0, 57, 96
2, 141759, Note_on_c, 0, 60, 96
2, 141759, Note_on_c, 0, 66, 96
2, 142080, Note_on_c, 0, 66, 0
2, 142080, Note_on_c, 0, 54, 0
2, 142080, Note_on_c, 0, 57, 0
2, 142080, Note_on_c, 0, 60, 0
2, 142080, Note_on_c, 0, 54, 96
2, 142080, Note_on_c, 0, 57, 96
2, 142080, Note_on_c, 0, 60, 96
2, 142080, Note_on_c, 0, 66, 96
2, 142400, Note_on_c, 0, 66, 0
2, 142400, Note_on_c, 0, 54, 0
2, 142400, Note_on_c, 0, 57, 0
2, 142400, Note_on_c, 0, 60, 0
2, 142400, Note_on_c, 0, 54, 96
2, 142400, Note_on_c, 0, 57, 96
2, 142400, Note_on_c, 0, 60, 96
2, 142400, Note_on_c, 0, 66, 96
2, 142719, Note_on_c, 0, 66, 0
2, 142719, Note_on_c, 0, 54, 0
2, 142719, Note_on_c, 0, 57, 0
2, 142719, Note_on_c, 0, 60, 0
2, 142719, Note_on_c, 0, 54, 96
2, 142719, Note_on_c, 0, 57, 96
2, 142719, Note_on_c, 0, 60, 96
2, 142719, Note_on_c, 0, 66, 96
2, 143040, Note_on_c, 0, 66, 0
2, 143040, Note_on_c, 0, 54, 0
2, 143040, Note_on_c, 0, 57, 0
2, 143040, Note_on_c, 0, 60, 0
2, 143040, Note_on_c, 0, 54, 96
2, 143040, Note_on_c, 0, 57, 96
2, 143040, Note_on_c, 0, 60, 96
2, 143040, Note_on_c, 0, 66, 96
2, 144480, Note_on_c, 0, 66, 0
2, 144480, Note_on_c, 0, 54, 0
2, 144480, Note_on_c, 0, 57, 0
2, 144480, Note_on_c, 0, 60, 0
2, 144480, Note_on_c, 0, 54, 96
2, 144480, Note_on_c, 0, 57, 96
2, 144480, Note_on_c, 0, 60, 96
2, 144480, Note_on_c, 0, 66, 96
2, 144960, Note_on_c, 0, 66, 0
2, 144960, Note_on_c, 0, 54, 0
2, 144960, Note_on_c, 0, 57, 0
2, 144960, Note_on_c, 0, 60, 0
2, 144960, Note_on_c, 0, 54, 96
2, 144960, Note_on_c, 0, 57, 96
2, 144960, Note_on_c, 0, 60, 96
2, 144960, Note_on_c, 0, 66, 96
2, 147840, Note_on_c, 0, 66, 0
2, 147840, Note_on_c, 0, 54, 0
2, 147840, Note_on_c, 0, 57, 0
2, 147840, Note_on_c, 0, 60, 0
2, 168960, Control_c, 0, 64, 127
2, 168960, Note_on_c, 0, 62, 57
2, 168960, Note_on_c, 0, 70, 57
2, 169440, Note_on_c, 0, 70, 0
2, 169440, Note_on_c, 0, 62, 0
2, 169440, Note_on_c, 0, 77, 57
2, 169920, Note_on_c, 0, 77, 0
2, 169920, Note_on_c, 0, 74, 57
2, 170400, Note_on_c, 0, 74, 0
2, 170400, Note_on_c, 0, 72, 57
2, 170640, Note_on_c, 0, 72, 0
2, 170640, Control_c, 0, 64, 0
2, 170640, Note_on_c, 0, 74, 57
2, 170880, Note_on_c, 0, 74, 0
2, 170880, Note_on_c, 0, 51, 57
2, 170880, Note_on_c, 0, 58, 57
2, 170880, Note_on_c, 0, 68, 57
2, 170880, Note_on_c, 0, 70, 57
2, 172320, Note_on_c, 0, 70, 0
2, 172320, Note_on_c, 0, 51, 0
2, 172320, Note_on_c, 0, 58, 0
2, 172320, Note_on_c, 0, 68, 0
2, 172320, Note_on_c, 0, 68, 57
2, 172800, Note_on_c, 0, 68, 0
2, 172800, Control_c, 0, 64, 127
2, 172800, Note_on_c, 0, 67, 57
2, 173040, Note_on_c, 0, 67, 0
2, 173040, Note_on_c, 0, 70, 57
2, 173280, Note_on_c, 0, 70, 0
2, 173280, Note_on_c, 0, 75, 70
2, 173520, Note_on_c, 0, 75, 0
2, 173520, Control_c, 0, 64, 0
2, 173520, Note_on_c, 0, 79, 70
2, 173760, Note_on_c, 0, 79, 0
2, 173760, Note_on_c, 0, 82, 96
2, 174480, Note_on_c, 0, 82, 0
2, 174480, Note_on_c, 0, 79, 70
2, 174720, Note_on_c, 0, 79, 0
2, 174720, Note_on_c, 0, 70, 70
2, 174720, Note_on_c, 0, 78, 70
2, 174960, Note_on_c, 0, 78, 0
2, 174960, Note_on_c, 0, 79, 70
2, 175200, Note_on_c, 0, 79, 0
2, 175200, Note_on_c, 0, 75, 70
2, 175440, Note_on_c, 0, 70, 0
2, 175440, Note_on_c, 0, 67, 57
2, 175680, Note_on_c, 0, 67, 0
2, 175680, Note_on_c, 0, 66, 57
2, 175920, Note_on_c, 0, 66, 0
2, 175920, Note_on_c, 0, 67, 57
2, 176160, Note_on_c, 0, 67, 0
2, 176160, Note_on_c, 0, 75, 0
2, 176160, Note_on_c, 0, 63, 57
2, 176640, Note_on_c, 0, 63, 0
2, 176640, Control_c, 0, 64, 127
2, 176640, Note_on_c, 0, 62, 57
2, 176640, Note_on_c, 0, 70, 57
2, 177120, Note_on_c, 0, 70, 0
2, 177120, Note_on_c, 0, 62, 0
2, 177120, Note_on_c, 0, 77, 57
2, 177600, Note_on_c, 0, 77, 0
2, 177600, Note_on_c, 0, 74, 57
2, 178080, Note_on_c, 0, 74, 0
2, 178080, Note_on_c, 0, 72, 57
2, 178320, Note_on_c, 0, 72, 0
2, 178320, Control_c, 0, 64, 0
2, 178320, Note_on_c, 0, 74, 57
2, 178560, Note_on_c, 0, 74, 0
2, 178560, Note_on_c, 0, 51, 57
2, 178560, Note_on_c, 0, 58, 57
2, 178560, Note_on_c, 0, 68, 57
2, 178560, Note_on_c, 0, 70, 57
2, 180000, Note_on_c, 0, 70, 0
2, 180000, Note_on_c, 0, 51, 0
2, 180000, Note_on_c, 0, 58, 0
2, 180000, Note_on_c, 0, 68, 0
2, 180000, Note_on_c, 0, 68, 57
2, 180480, Note_on_c, 0, 68, 0
2, 180480, Control_c, 0, 64, 127
2, 180480, Note_on_c, 0, 67, 57
2, 180720, Note_on_c, 0, 67, 0
2, 180720, Note_on_c, 0, 63, 57
2, 180960, Note_on_c, 0, 63, 0
2, 180960, Note_on_c, 0, 67, 70
2, 181200, Note_on_c, 0, 67, 0
2, 181200, Control_c, 0, 64, 0
2, 181200, Note_on_c, 0, 70, 70
2, 181440, Note_on_c, 0, 70, 0
2, 181440, Note_on_c, 0, 66, 96
2, 181440, Note_on_c, 0, 75, 96
2, 182160, Note_on_c, 0, 75, 0
2, 182160, Note_on_c, 0, 66, 0
2, 182160, Note_on_c, 0, 72, 57
2, 182400, Note_on_c, 0, 72, 0
2, 182400, Note_on_c, 0, 66, 57
2, 182400, Note_on_c, 0, 69, 57
2, 182640, Note_on_c, 0, 69, 0
2, 182640, Note_on_c, 0, 66, 0
2, 182640, Note_on_c, 0, 72, 57
2, 182880, Note_on_c, 0, 72, 0
2, 182880, Note_on_c, 0, 67, 57
2, 182880, Note_on_c, 0, 70, 57
2, 183360, Note_on_c, 0, 70, 0
2, 183360, Note_on_c, 0, 67, 0
2, 183360, Note_on_c, 0, 54, 57
2, 183360, Note_on_c, 0, 63, 57
2, 183840, Note_on_c, 0, 63, 0
2, 183840, Note_on_c, 0, 54, 0
2, 183840, Note_on_c, 0, 58, 57
2, 183840, Note_on_c, 0, 63, 57
2, 184320, Note_on_c, 0, 63, 0
2, 184320, Note_on_c, 0, 58, 0
2, 184320, Control_c, 0, 64, 127
2, 184320, Note_on_c, 0, 62, 57
2, 184320, Note_on_c, 0, 70, 57
2, 184800, Note_on_c, 0, 70, 0
2, 184800, Note_on_c, 0, 62, 0
2, 184800, Note_on_c, 0, 77, 57
2, 185280, Note_on_c, 0, 77, 0
2, 185280, Note_on_c, 0, 74, 57
2, 185760, Note_on_c, 0, 74, 0
2, 185760, Note_on_c, 0, 72, 57
2, 186000, Note_on_c, 0, 72, 0
2, 186000, Control_c, 0, 64, 0
2, 186000, Note_on_c, 0, 74, 57
2, 186240, Note_on_c, 0, 74, 0
2, 186240, Note_on_c, 0, 51, 57
2, 186240, Note_on_c, 0, 58, 57
2, 186240, Note_on_c, 0, 68, 57
2, 186240, Note_on_c, 0, 70, 57
2, 187680, Note_on_c, 0, 70, 0
2, 187680, Note_on_c, 0, 51, 0
2, 187680, Note_on_c, 0, 58, 0
2, 187680, Note_on_c, 0, 68, 0
2, 187680, Note_on_c, 0, 68, 57
2, 188160, Note_on_c, 0, 68, 0
2, 188160, Control_c, 0, 64, 127
2, 188160, Note_on_c, 0, 67, 57
2, 188400, Note_on_c, 0, 67, 0
2, 188400, Note_on_c, 0, 70, 57
2, 188640, Note_on_c, 0, 70, 0
2, 188640, Note_on_c, 0, 75, 70
2, 188880, Note_on_c, 0, 75, 0
2, 188880, Control_c, 0, 64, 0
2, 188880, Note_on_c, 0, 79, 70
2, 189120, Note_on_c, 0, 79, 0
2, 189120, Note_on_c, 0, 82, 96
2, 189840, Note_on_c, 0, 82, 0
2, 189840, Note_on_c, 0, 79, 70
2, 190080, Note_on_c, 0, 79, 0
2, 190080, Note_on_c, 0, 70, 70
2, 190080, Note_on_c, 0, 78, 70
2, 190320, Note_on_c, 0, 78, 0
2, 190320, Note_on_c, 0, 79, 70
2, 190560, Note_on_c, 0, 79, 0
2, 190560, Note_on_c, 0, 75, 70
2, 190800, Note_on_c, 0, 70, 0
2, 190800, Note_on_c, 0, 67, 57
2, 191040, Note_on_c, 0, 67, 0
2, 191040, Note_on_c, 0, 66, 57
2, 191280, Note_on_c, 0, 66, 0
2, 191280, Note_on_c, 0, 67, 57
2, 191520, Note_on_c, 0, 67, 0
2, 191520, Note_on_c, 0, 75, 0
2, 191520, Note_on_c, 0, 63, 57
2, 192000, Note_on_c, 0, 63, 0
2, 192000, Control_c, 0, 64, 127
2, 192000, Note_on_c, 0, 62, 57
2, 192000, Note_on_c, 0, 70, 57
2, 192480, Note_on_c, 0, 70, 0
2, 192480, Note_on_c, 0, 62, 0
2, 192480, Note_on_c, 0, 77, 57
2, 192960, Note_on_c, 0, 77, 0
2, 192960, Note_on_c, 0, 74, 57
2, 193440, Note_on_c, 0, 74, 0
2, 193440, Note_on_c, 0, 72, 57
2, 193680, Note_on_c, 0, 72, 0
2, 193680, Control_c, 0, 64, 0
2, 193680, Note_on_c, 0, 74, 57
2, 193920, Note_on_c, 0, 74, 0
2, 193920, Note_on_c, 0, 51, 57
2, 193920, Note_on_c, 0, 58, 57
2, 193920, Note_on_c, 0, 68, 57
2, 193920, Note_on_c, 0, 70, 57
2, 195360, Note_on_c, 0, 70, 0
2, 195360, Note_on_c, 0, 51, 0
2, 195360, Note_on_c, 0, 58, 0
2, 195360, Note_on_c, 0, 68, 0
2, 195360, Note_on_c, 0, 68, 57
2, 195840, Note_on_c, 0, 68, 0
2, 195840, Control_c, 0, 64, 127
2, 195840, Note_on_c, 0, 67, 57
2, 196080, Note_on_c, 0, 67, 0
2, 196080, Note_on_c, 0, 70, 57
2, 196320, Note_on_c, 0, 70, 0
2, 196320, Note_on_c, 0, 75, 70
2, 196560, Note_on_c, 0, 75, 0
2, 196560, Control_c, 0, 64, 0
2, 196560, Note_on_c, 0, 79, 70
2, 196720, Note_on_c, 0, 65, 70
2, 196760, Note_on_c, 0, 71, 70
2, 196800, Note_on_c, 0, 79, 0
2, 196800, Note_on_c, 0, 80, 70
2, 197520, Note_on_c, 0, 80, 0
2, 197520, Note_on_c, 0, 71, 0
2, 197520, Note_on_c, 0, 65, 0
2, 197520, Note_on_c, 0, 79, 70
2, 197760, Note_on_c, 0, 79, 0
2, 197760, Control_c, 0, 64, 127
2, 197760, Note_on_c, 0, 63, 57
2, 198000, Note_on_c, 0, 63, 0
2, 198000, Note_on_c, 0, 67, 57
2, 198240, Note_on_c, 0, 67, 0
2, 198240, Note_on_c, 0, 72, 70
2, 198480, Note_on_c, 0, 72, 0
2, 198480, Control_c, 0, 64, 0
2, 198480, Note_on_c, 0, 75, 70
2, 198640, Note_on_c, 0, 63, 70
2, 198680, Note_on_c, 0, 68, 70
2, 198720, Note_on_c, 0, 75, 0
2, 198720, Note_on_c, 0, 77, 70
2, 199440, Note_on_c, 0, 77, 0
2, 199440, Note_on_c, 0, 68, 0
2, 199440, Note_on_c, 0, 63, 0
2, 199440, Note_on_c, 0, 75, 70
2, 199680, Note_on_c, 0, 75, 0
2, 199680, Control_c, 0, 64, 127
2, 199680, Note_on_c, 0, 62, 57
2, 199920, Note_on_c, 0, 62, 0
2, 199920, Note_on_c, 0, 65, 57
2, 200160, Note_on_c, 0, 65, 0
2, 200160, Note_on_c, 0, 70, 70
2, 200400, Note_on_c, 0, 70, 0
2, 200400, Control_c, 0, 64, 0
2, 200400, Note_on_c, 0, 74, 70
2, 200640, Note_on_c, 0, 74, 0
2, 200640, Note_on_c, 0, 62, 96
2, 200640, Note_on_c, 0, 65, 96
2, 200640, Note_on_c, 0, 72, 96
2, 201360, Note_on_c, 0, 72, 0
2, 201360, Note_on_c, 0, 65, 0
2, 201360, Note_on_c, 0, 62, 0
2, 201360, Note_on_c, 0, 70, 70
2, 201600, Note_on_c, 0, 70, 0
2, 201600, Control_c, 0, 64, 127
2, 201600, Note_on_c, 0, 62, 57
2, 201840, Note_on_c, 0, 62, 0
2, 201840, Note_on_c, 0, 67, 57
2, 202080, Note_on_c, 0, 67, 0
2, 202080, Note_on_c, 0, 70, 70
2, 202320, Note_on_c, 0, 70, 0
2, 202320, Control_c, 0, 64, 0
2, 202320, Note_on_c, 0, 74, 70
2, 202560, Note_on_c, 0, 74, 0
2, 202560, Note_on_c, 0, 62, 96
2, 202560, Note_on_c, 0, 68, 96
2, 202560, Note_on_c, 0, 72, 96
2, 203280, Note_on_c, 0, 72, 0
2, 203280, Note_on_c, 0, 68, 0
2, 203280, Note_on_c, 0, 62, 0
2, 203280, Note_on_c, 0, 70, 70
2, 203520, Note_on_c, 0, 70, 0
2, 203520, Control_c, 0, 64, 127
2, 203520, Note_on_c, 0, 72, 57
2, 204000, Note_on_c, 0, 72, 0
2, 204000, Note_on_c, 0, 77, 57
2, 204480, Note_on_c, 0, 77, 0
2, 204480, Note_on_c, 0, 74, 57
2, 204960, Note_on_c, 0, 74, 0
2, 204960, Note_on_c, 0, 72, 57
2, 205200, Note_on_c, 0, 72, 0
2, 205200, Control_c, 0, 64, 0
2, 205200, Note_on_c, 0, 74, 57
2, 205440, Note_on_c, 0, 74, 0
2, 205440, Note_on_c, 0, 63, 83
2, 205440, Note_on_c, 0, 67, 83
2, 205440, Note_on_c, 0, 72, 83
2, 206400, Note_on_c, 0, 72, 0
2, 206400, Note_on_c, 0, 67, 0
2, 206400, Note_on_c, 0, 63, 0
2, 206400, Note_on_c, 0, 70, 57
2, 207360, Note_on_c, 0, 70, 0
2, 207360, Control_c, 0, 64, 127
2, 207360, Note_on_c, 0, 72, 57
2, 207840, Note_on_c, 0, 72, 0
2, 207840, Note_on_c, 0, 77, 57
2, 208320, Note_on_c, 0, 77, 0
2, 208320, Note_on_c, 0, 74, 57
2, 208800, Note_on_c, 0, 74, 0
2, 208800, Note_on_c, 0, 72, 57
2, 209040, Note_on_c, 0, 72, 0
2, 209040, Control_c, 0, 64, 0
2, 209040, Note_on_c, 0, 74, 57
2, 209280, Note_on_c, 0, 74, 0
2, 209280, Note_on_c, 0, 63, 83
2, 209280, Note_on_c, 0, 67, 83
2, 209280, Note_on_c, 0, 72, 83
2, 210240, Note_on_c, 0, 72, 0
2, 210240, Note_on_c, 0, 67, 0
2, 210240, Note_on_c, 0, 63, 0
2, 210240, Note_on_c, 0, 70, 57
2, 211200, Note_on_c, 0, 70, 0
2, 211200, Control_c, 0, 64, 127
2, 211200, Note_on_c, 0, 70, 57
2, 211680, Note_on_c, 0, 70, 0
2, 211680, Note_on_c, 0, 75, 57
2, 212160, Note_on_c, 0, 75, 0
2, 212160, Note_on_c, 0, 72, 70
2, 212640, Note_on_c, 0, 72, 0
2, 212640, Note_on_c, 0, 70, 70
2, 212880, Note_on_c, 0, 70, 0
2, 212880, Control_c, 0, 64, 0
2, 212880, Note_on_c, 0, 72, 70
2, 213120, Note_on_c, 0, 72, 0
2, 213120, Note_on_c, 0, 60, 96
2, 213120, Note_on_c, 0, 63, 96
2, 213120, Note_on_c, 0, 70, 96
2, 214080, Note_on_c, 0, 70, 0
2, 214080, Note_on_c, 0, 63, 0
2, 214080, Note_on_c, 0, 60, 0
2, 214080, Note_on_c, 0, 69, 70
2, 215040, Note_on_c, 0, 69, 0
2, 215040, Control_c, 0, 64, 127
2, 215040, Note_on_c, 0, 68, 70
2, 215520, Note_on_c, 0, 68, 0
2, 215520, Note_on_c, 0, 73, 70
2, 216000, Note_on_c, 0, 73, 0
2, 216000, Note_on_c, 0, 70, 70
2, 216480, Note_on_c, 0, 70, 0
2, 216480, Note_on_c, 0, 68, 70
2, 216720, Note_on_c, 0, 68, 0
2, 216720, Control_c, 0, 64, 0
2, 216720, Note_on_c, 0, 70, 70
2, 216960, Note_on_c, 0, 70, 0
2, 216960, Note_on_c, 0, 58, 96
2, 216960, Note_on_c, 0, 61, 96
2, 216960, Note_on_c, 0, 68, 96
2, 217920, Note_on_c, 0, 68, 0
2, 217920, Note_on_c, 0, 61, 0
2, 217920, Note_on_c, 0, 58, 0
2, 217920, Note_on_c, 0, 67, 70
2, 218880, Note_on_c, 0, 67, 0
2, 218880, Note_on_c, 0, 67, 57
2, 219120, Note_on_c, 0, 67, 0
2, 219120, Note_on_c, 0, 74, 57
2, 219600, Note_on_c, 0, 74, 0
2, 219600, Note_on_c, 0, 67, 70
2, 219840, Note_on_c, 0, 67, 0
2, 219840, Note_on_c, 0, 70, 96
2, 220560, Note_on_c, 0, 70, 0
2, 220560, Note_on_c, 0, 69, 70
2, 220800, Note_on_c, 0, 69, 0
2, 220800, Note_on_c, 0, 67, 57
2, 221040, Note_on_c, 0, 67, 0
2, 221040, Note_on_c, 0, 74, 57
2, 221520, Note_on_c, 0, 74, 0
2, 221520, Note_on_c, 0, 67, 70
2, 221760, Note_on_c, 0, 67, 0
2, 221760, Note_on_c, 0, 70, 96
2, 222480, Note_on_c, 0, 70, 0
2, 222480, Note_on_c, 0, 69, 70
2, 222720, Note_on_c, 0, 69, 0
2, 222720, Note_on_c, 0, 67, 57
2, 222960, Note_on_c, 0, 67, 0
2, 222960, Note_on_c, 0, 74, 57
2, 223440, Note_on_c, 0, 74, 0
2, 223440, Note_on_c, 0, 67, 70
2, 223680, Note_on_c, 0, 67, 0
2, 223680, Note_on_c, 0, 58, 96
2, 223680, Note_on_c, 0, 65, 96
2, 224640, Note_on_c, 0, 65, 0
2, 224640, Note_on_c, 0, 58, 0
2, 224640, Note_on_c, 0, 64, 57
2, 224880, Note_on_c, 0, 64, 0
2, 224880, Note_on_c, 0, 72, 57
2, 225360, Note_on_c, 0, 72, 0
2, 225360, Note_on_c, 0, 64, 70
2, 225600, Note_on_c, 0, 64, 0
2, 225600, Note_on_c, 0, 57, 70
2, 225600, Note_on_c, 0, 63, 70
2, 226560, Note_on_c, 0, 63, 0
2, 226560, Note_on_c, 0, 57, 0
2, 226560, Control_c, 0, 64, 127
2, 226560, Note_on_c, 0, 56, 57
2, 226560, Note_on_c, 0, 62, 57
2, 226719, Note_on_c, 0, 62, 0
2, 226719, Note_on_c, 0, 56, 0
2, 226719, Note_on_c, 0, 58, 57
2, 226880, Note_on_c, 0, 58, 0
2, 226880, Note_on_c, 0, 58, 57
2, 227040, Note_on_c, 0, 58, 0
2, 227199, Note_on_c, 0, 58, 57
2, 227199, Note_on_c, 0, 70, 57
2, 227360, Note_on_c, 0, 70, 0
2, 227360, Note_on_c, 0, 58, 0
2, 227360, Note_on_c, 0, 58, 57
2, 227360, Note_on_c, 0, 70, 57
2, 227520, Note_on_c, 0, 70, 0
2, 227520, Note_on_c, 0, 58, 0
2, 227679, Note_on_c, 0, 70, 57
2, 227679, Note_on_c, 0, 82, 57
2, 227840, Note_on_c, 0, 82, 0
2, 227840, Note_on_c, 0, 70, 0
2, 227840, Note_on_c, 0, 70, 57
2, 227840, Note_on_c, 0, 82, 57
2, 228000, Note_on_c, 0, 82, 0
2, 228000, Note_on_c, 0, 70, 0
2, 228000, Note_on_c, 0, 70, 57
2, 228159, Note_on_c, 0, 70, 0
2, 228159, Note_on_c, 0, 82, 57
2, 228159, Note_on_c, 0, 94, 57
2, 228320, Note_on_c, 0, 94, 0
2, 228320, Note_on_c, 0, 82, 0
2, 228320, Note_on_c, 0, 82, 57
2, 228320, Note_on_c, 0, 94, 57
2, 228480, Note_on_c, 0, 94, 0
2, 228480, Note_on_c, 0, 82, 0
2, 228480, Note_on_c, 0, 82, 57
2, 228639, Note_on_c, 0, 82, 0
2, 228639, Note_on_c, 0, 82, 57
2, 228639, Note_on_c, 0, 94, 57
2, 228800, Note_on_c, 0, 94, 0
2, 228800, Note_on_c, 0, 82, 0
2, 228800, Note_on_c, 0, 82, 57
2, 228800, Note_on_c, 0, 94, 57
2, 228960, Note_on_c, 0, 94, 0
2, 228960, Note_on_c, 0, 82, 0
2, 228960, Note_on_c, 0, 70, 57
2, 229119, Note_on_c, 0, 70, 0
2, 229119, Note_on_c, 0, 70, 57
2, 229119, Note_on_c, 0, 82, 57
2, 229280, Note_on_c, 0, 82, 0
2, 229280, Note_on_c, 0, 70, 0
2, 229280, Note_on_c, 0, 70, 57
2, 229280, Note_on_c, 0, 82, 57
2, 229440, Note_on_c, 0, 82, 0
2, 229440, Note_on_c, 0, 70, 0
2, 229440, Note_on_c, 0, 58, 57
2, 229599, Note_on_c, 0, 58, 0
2, 229599, Note_on_c, 0, 58, 57
2, 229599, Note_on_c, 0, 70, 57
2, 229760, Note_on_c, 0, 70, 0
2, 229760, Note_on_c, 0, 58, 0
2, 229760, Note_on_c, 0, 58, 57
2, 229760, Note_on_c, 0, 70, 57
2, 229920, Note_on_c, 0, 70, 0
2, 229920, Note_on_c, 0, 58, 0
2, 230079, Note_on_c, 0, 58, 57
2, 230240, Note_on_c, 0, 58, 0
2, 230240, Control_c, 0, 64, 0
2, 230240, Note_on_c, 0, 58, 57
2, 230400, Note_on_c, 0, 58, 0
2, 230400, Control_c, 0, 64, 127
2, 230559, Note_on_c, 0, 58, 57
2, 230720, Note_on_c, 0, 58, 0
2, 230720, Note_on_c, 0, 58, 57
2, 230880, Note_on_c, 0, 58, 0
2, 231039, Note_on_c, 0, 58, 57
2, 231039, Note_on_c, 0, 70, 57
2, 231200, Note_on_c, 0, 70, 0
2, 231200, Note_on_c, 0, 58, 0
2, 231200, Note_on_c, 0, 58, 57
2, 231200, Note_on_c, 0, 70, 57
2, 231360, Note_on_c, 0, 70, 0
2, 231360, Note_on_c, 0, 58, 0
2, 231519, Note_on_c, 0, 70, 57
2, 231519, Note_on_c, 0, 82, 57
2, 231680, Note_on_c, 0, 82, 0
2, 231680, Note_on_c, 0, 70, 0
2, 231680, Note_on_c, 0, 70, 57
2, 231680, Note_on_c, 0, 82, 57
2, 231840, Note_on_c, 0, 82, 0
2, 231840, Note_on_c, 0, 70, 0
2, 231840, Note_on_c, 0, 70, 57
2, 231999, Note_on_c, 0, 70, 0
2, 231999, Note_on_c, 0, 82, 57
2, 231999, Note_on_c, 0, 94, 57
2, 232160, Note_on_c, 0, 94, 0
2, 232160, Note_on_c, 0, 82, 0
2, 232160, Note_on_c, 0, 82, 57
2, 232160, Note_on_c, 0, 94, 57
2, 232320, Note_on_c, 0, 94, 0
2, 232320, Note_on_c, 0, 82, 0
2, 232320, Note_on_c, 0, 82, 57
2, 232479, Note_on_c, 0, 82, 0
2, 232479, Note_on_c, 0, 82, 57
2, 232479, Note_on_c, 0, 94, 57
2, 232640, Note_on_c, 0, 94, 0
2, 232640, Note_on_c, 0, 82, 0
2, 232640, Note_on_c, 0, 82, 57
2, 232640, Note_on_c, 0, 94, 57
2, 232800, Note_on_c, 0, 94, 0
2, 232800, Note_on_c, 0, 82, 0
2, 232800, Note_on_c, 0, 70, 57
2, 232959, Note_on_c, 0, 70, 0
2, 232959, Note_on_c, 0, 70, 57
2, 232959, Note_on_c, 0, 82, 57
2, 233120, Note_on_c, 0, 82, 0
2, 233120, Note_on_c, 0, 70, 0
2, 233120, Note_on_c, 0, 70, 57
2, 233120, Note_on_c, 0, 82, 57
2, 233280, Note_on_c, 0, 82, 0
2, 233280, Note_on_c, 0, 70, 0
2, 233280, Note_on_c, 0, 58, 57
2, 233439, Note_on_c, 0, 58, 0
2, 233439, Note_on_c, 0, 58, 57
2, 233439, Note_on_c, 0, 70, 57
2, 233600, Note_on_c, 0, 70, 0
2, 233600, Note_on_c, 0, 58, 0
2, 233600, Note_on_c, 0, 58, 57
2, 233600, Note_on_c, 0, 70, 57
2, 233760, Note_on_c, 0, 70, 0
2, 233760, Note_on_c, 0, 58, 0
2, 233919, Note_on_c, 0, 58, 57
2, 234080, Note_on_c, 0, 58, 0
2, 234080, Control_c, 0, 64, 0
2, 234080, Note_on_c, 0, 58, 57
2, 234240, Note_on_c, 0, 58, 0
2, 234240, Control_c, 0, 64, 127
2, 234399, Note_on_c, 0, 58, 57
2, 234560, Note_on_c, 0, 58, 0
2, 234560, Note_on_c, 0, 58, 57
2, 234720, Note_on_c, 0, 58, 0
2, 234879, Note_on_c, 0, 58, 57
2, 234879, Note_on_c, 0, 70, 57
2, 235040, Note_on_c, 0, 70, 0
2, 235040, Note_on_c, 0, 58, 0
2, 235040, Note_on_c, 0, 58, 57
2, 235040, Note_on_c, 0, 70, 57
2, 235200, Note_on_c, 0, 70, 0
2, 235200, Note_on_c, 0, 58, 0
2, 235359, Note_on_c, 0, 70, 57
2, 235359, Note_on_c, 0, 82, 57
2, 235520, Note_on_c, 0, 82, 0
2, 235520, Note_on_c, 0, 70, 0
2, 235520, Note_on_c, 0, 70, 57
2, 235520, Note_on_c, 0, 82, 57
2, 235680, Note_on_c, 0, 82, 0
2, 235680, Note_on_c, 0, 70, 0
2, 235680, Note_on_c, 0, 70, 57
2, 235839, Note_on_c, 0, 70, 0
2, 235839, Note_on_c, 0, 82, 57
2, 235839, Note_on_c, 0, 94, 57
2, 236000, Note_on_c, 0, 94, 0
2, 236000, Note_on_c, 0, 82, 0
2, 236000, Note_on_c, 0, 82, 57
2, 236000, Note_on_c, 0, 94, 57
2, 236160, Note_on_c, 0, 94, 0
2, 236160, Note_on_c, 0, 82, 0
2, 236160, Note_on_c, 0, 82, 57
2, 236319, Note_on_c, 0, 82, 0
2, 236319, Note_on_c, 0, 82, 57
2, 236319, Note_on_c, 0, 94, 57
2, 236480, Note_on_c, 0, 94, 0
2, 236480, Note_on_c, 0, 82, 0
2, 236480, Note_on_c, 0, 82, 57
2, 236480, Note_on_c, 0, 94, 57
2, 236640, Note_on_c, 0, 94, 0
2, 236640, Note_on_c, 0, 82, 0
2, 236640, Note_on_c, 0, 70, 57
2, 236799, Note_on_c, 0, 70, 0
2, 236799, Note_on_c, 0, 70, 57
2, 236799, Note_on_c, 0, 82, 57
2, 236960, Note_on_c, 0, 82, 0
2, 236960, Note_on_c, 0, 70, 0
2, 236960, Note_on_c, 0, 70, 57
2, 236960, Note_on_c, 0, 82, 57
2, 237120, Note_on_c, 0, 82, 0
2, 237120, Note_on_c, 0, 70, 0
2, 237120, Note_on_c, 0, 58, 57
2, 237279, Note_on_c, 0, 58, 0
2, 237279, Note_on_c, 0, 58, 57
2, 237279, Note_on_c, 0, 70, 57
2, 237440, Note_on_c, 0, 70, 0
2, 237440, Note_on_c, 0, 58, 0
2, 237440, Note_on_c, 0, 58, 57
2, 237440, Note_on_c, 0, 70, 57
2, 237600, Note_on_c, 0, 70, 0
2, 237600, Note_on_c, 0, 58, 0
2, 237759, Note_on_c, 0, 58, 57
2, 237920, Note_on_c, 0, 58, 0
2, 237920, Control_c, 0, 64, 0
2, 237920, Note_on_c, 0, 58, 57
2, 238080, Note_on_c, 0, 58, 0
2, 238080, Control_c, 0, 64, 127
2, 238239, Note_on_c, 0, 58, 57
2, 238400, Note_on_c, 0, 58, 0
2, 238400, Note_on_c, 0, 58, 57
2, 238560, Note_on_c, 0, 58, 0
2, 238719, Note_on_c, 0, 58, 57
2, 238719, Note_on_c, 0, 70, 57
2, 238880, Note_on_c, 0, 70, 0
2, 238880, Note_on_c, 0, 58, 0
2, 238880, Note_on_c, 0, 58, 57
2, 238880, Note_on_c, 0, 70, 57
2, 239040, Note_on_c, 0, 70, 0
2, 239040, Note_on_c, 0, 58, 0
2, 239040, Note_on_c, 0, 59, 57
2, 239199, Note_on_c, 0, 59, 0
2, 239199, Note_on_c, 0, 71, 57
2, 239199, Note_on_c, 0, 83, 57
2, 239360, Note_on_c, 0, 83, 0
2, 239360, Note_on_c, 0, 71, 0
2, 239360, Note_on_c, 0, 71, 57
2, 239360, Note_on_c, 0, 83, 57
2, 239520, Note_on_c, 0, 83, 0
2, 239520, Note_on_c, 0, 71, 0
2, 239520, Note_on_c, 0, 71, 70
2, 239679, Note_on_c, 0, 71, 0
2, 239679, Note_on_c, 0, 83, 70
2, 239679, Note_on_c, 0, 95, 70
2, 239840, Note_on_c, 0, 95, 0
2, 239840, Note_on_c, 0, 83, 0
2, 239840, Note_on_c, 0, 83, 70
2, 239840, Note_on_c, 0, 95, 70
2, 240000, Note_on_c, 0, 95, 0
2, 240000, Note_on_c, 0, 83, 0
2, 240000, Note_on_c, 0, 70, 70
2, 240159, Note_on_c, 0, 70, 0
2, 240159, Note_on_c, 0, 82, 70
2, 240159, Note_on_c, 0, 94, 70
2, 240320, Note_on_c, 0, 94, 0
2, 240320, Note_on_c, 0, 82, 0
2, 240320, Note_on_c, 0, 82, 70
2, 240320, Note_on_c, 0, 94, 70
2, 240480, Note_on_c, 0, 94, 0
2, 240480, Note_on_c, 0, 82, 0
2, 240480, Note_on_c, 0, 58, 70
2, 240639, Note_on_c, 0, 58, 0
2, 240639, Note_on_c, 0, 70, 70
2, 240639, Note_on_c, 0, 82, 70
2, 240800, Note_on_c, 0, 82, 0
2, 240800, Note_on_c, 0, 70, 0
2, 240800, Note_on_c, 0, 70, 70
2, 240800, Note_on_c, 0, 82, 70
2, 240960, Note_on_c, 0, 82, 0
2, 240960, Note_on_c, 0, 70, 0
2, 240960, Note_on_c, 0, 58, 57
2, 241119, Note_on_c, 0, 58, 0
2, 241119, Note_on_c, 0, 58, 57
2, 241119, Note_on_c, 0, 70, 57
2, 241280, Note_on_c, 0, 70, 0
2, 241280, Note_on_c, 0, 58, 0
2, 241280, Note_on_c, 0, 58, 57
2, 241280, Note_on_c, 0, 70, 57
2, 241440, Note_on_c, 0, 70, 0
2, 241440, Note_on_c, 0, 58, 0
2, 241599, Note_on_c, 0, 58, 57
2, 241760, Note_on_c, 0, 58, 0
2, 241760, Control_c, 0, 64, 0
2, 241760, Note_on_c, 0, 58, 57
2, 241920, Note_on_c, 0, 58, 0
2, 241920, Control_c, 0, 64, 127
2, 242079, Note_on_c, 0, 58, 57
2, 242240, Note_on_c, 0, 58, 0
2, 242240, Note_on_c, 0, 58, 57
2, 242400, Note_on_c, 0, 58, 0
2, 242559, Note_on_c, 0, 58, 57
2, 242559, Note_on_c, 0, 70, 57
2, 242720, Note_on_c, 0, 70, 0
2, 242720, Note_on_c, 0, 58, 0
2, 242720, Note_on_c, 0, 58, 57
2, 242720, Note_on_c, 0, 70, 57
2, 242880, Note_on_c, 0, 70, 0
2, 242880, Note_on_c, 0, 58, 0
2, 242880, Note_on_c, 0, 59, 57
2, 243039, Note_on_c, 0, 59, 0
2, 243039, Note_on_c, 0, 71, 57
2, 243039, Note_on_c, 0, 83, 57
2, 243200, Note_on_c, 0, 83, 0
2, 243200, Note_on_c, 0, 71, 0
2, 243200, Note_on_c, 0, 71, 57
2, 243200, Note_on_c, 0, 83, 57
2, 243360, Note_on_c, 0, 83, 0
2, 243360, Note_on_c, 0, 71, 0
2, 243360, Note_on_c, 0, 71, 70
2, 243519, Note_on_c, 0, 71, 0
2, 243519, Note_on_c, 0, 83, 70
2, 243519, Note_on_c, 0, 95, 70
2, 243680, Note_on_c, 0, 95, 0
2, 243680, Note_on_c, 0, 83, 0
2, 243680, Note_on_c, 0, 83, 70
2, 243680, Note_on_c, 0, 95, 70
2, 243840, Note_on_c, 0, 95, 0
2, 243840, Note_on_c, 0, 83, 0
2, 243840, Note_on_c, 0, 70, 70
2, 243999, Note_on_c, 0, 70, 0
2, 243999, Note_on_c, 0, 82, 70
2, 243999, Note_on_c, 0, 94, 70
2, 244160, Note_on_c, 0, 94, 0
2, 244160, Note_on_c, 0, 82, 0
2, 244160, Note_on_c, 0, 82, 70
2, 244160, Note_on_c, 0, 94, 70
2, 244320, Note_on_c, 0, 94, 0
2, 244320, Note_on_c, 0, 82, 0
2, 244320, Note_on_c, 0, 58, 70
2, 244479, Note_on_c, 0, 58, 0
2, 244479, Note_on_c, 0, 70, 70
2, 244479, Note_on_c, 0, 82, 70
2, 244640, Note_on_c, 0, 82, 0
2, 244640, Note_on_c, 0, 70, 0
2, 244640, Note_on_c, 0, 70, 70
2, 244640, Note_on_c, 0, 82, 70
2, 244800, Note_on_c, 0, 82, 0
2, 244800, Note_on_c, 0, 70, 0
2, 244800, Note_on_c, 0, 58, 57
2, 244959, Note_on_c, 0, 58, 0
2, 244959, Note_on_c, 0, 58, 57
2, 244959, Note_on_c, 0, 70, 57
2, 245120, Note_on_c, 0, 70, 0
2, 245120, Note_on_c, 0, 58, 0
2, 245120, Note_on_c, 0, 58, 57
2, 245120, Note_on_c, 0, 70, 57
2, 245280, Note_on_c, 0, 70, 0
2, 245280, Note_on_c, 0, 58, 0
2, 245439, Note_on_c, 0, 58, 57
2, 245600, Note_on_c, 0, 58, 0
2, 245600, Control_c, 0, 64, 0
2, 245600, Note_on_c, 0, 58, 57
2, 245760, Note_on_c, 0, 58, 0
2, 245760, Control_c, 0, 64, 127
2, 245919, Note_on_c, 0, 58, 70
2, 246080, Note_on_c, 0, 58, 0
2, 246080, Note_on_c, 0, 58, 70
2, 246240, Note_on_c, 0, 58, 0
2, 246399, Note_on_c, 0, 58, 70
2, 246399, Note_on_c, 0, 70, 70
2, 246560, Note_on_c, 0, 70, 0
2, 246560, Note_on_c, 0, 58, 0
2, 246560, Note_on_c, 0, 58, 70
2, 246560, Note_on_c, 0, 70, 70
2, 246720, Note_on_c, 0, 70, 0
2, 246720, Note_on_c, 0, 58, 0
2, 246720, Note_on_c, 0, 59, 70
2, 246879, Note_on_c, 0, 59, 0
2, 246879, Note_on_c, 0, 71, 70
2, 246879, Note_on_c, 0, 83, 70
2, 247040, Note_on_c, 0, 83, 0
2, 247040, Note_on_c, 0, 71, 0
2, 247040, Note_on_c, 0, 71, 70
2, 247040, Note_on_c, 0, 83, 70
2, 247200, Note_on_c, 0, 83, 0
2, 247200, Note_on_c, 0, 71, 0
2, 247200, Note_on_c, 0, 71, 70
2, 247359, Note_on_c, 0, 71, 0
2, 247359, Note_on_c, 0, 83, 70
2, 247359, Note_on_c, 0, 95, 70
2, 247520, Note_on_c, 0, 95, 0
2, 247520, Note_on_c, 0, 83, 0
2, 247520, Note_on_c, 0, 83, 70
2, 247520, Note_on_c, 0, 95, 70
2, 247680, Note_on_c, 0, 95, 0
2, 247680, Note_on_c, 0, 83, 0
2, 247680, Control_c, 0, 64, 127
2, 247839, Note_on_c, 0, 58, 57
2, 248000, Note_on_c, 0, 58, 0
2, 248000, Note_on_c, 0, 58, 57
2, 248160, Note_on_c, 0, 58, 0
2, 248319, Note_on_c, 0, 58, 57
2, 248319, Note_on_c, 0, 70, 57
2, 248480, Note_on_c, 0, 70, 0
2, 248480, Note_on_c, 0, 58, 0
2, 248480, Note_on_c, 0, 58, 57
2, 248480, Note_on_c, 0, 70, 57
2, 248640, Note_on_c, 0, 70, 0
2, 248640, Note_on_c, 0, 58, 0
2, 248640, Note_on_c, 0, 59, 57
2, 248799, Note_on_c, 0, 59, 0
2, 248799, Note_on_c, 0, 71, 57
2, 248799, Note_on_c, 0, 83, 57
2, 248960, Note_on_c, 0, 83, 0
2, 248960, Note_on_c, 0, 71, 0
2, 248960, Note_on_c, 0, 71, 57
2, 248960, Note_on_c, 0, 83, 57
2, 249120, Note_on_c, 0, 83, 0
2, 249120, Note_on_c, 0, 71, 0
2, 249120, Note_on_c, 0, 71, 70
2, 249279, Note_on_c, 0, 71, 0
2, 249279, Note_on_c, 0, 83, 70
2, 249279, Note_on_c, 0, 95, 70
2, 249440, Note_on_c, 0, 95, 0
2, 249440, Note_on_c, 0, 83, 0
2, 249440, Note_on_c, 0, 83, 70
2, 249440, Note_on_c, 0, 95, 70
2, 249600, Note_on_c, 0, 95, 0
2, 249600, Note_on_c, 0, 83, 0
2, 249600, Note_on_c, 0, 70, 70
2, 249759, Note_on_c, 0, 70, 0
2, 249759, Note_on_c, 0, 82, 70
2, 249759, Note_on_c, 0, 94, 70
2, 249920, Note_on_c, 0, 94, 0
2, 249920, Note_on_c, 0, 82, 0
2, 249920, Note_on_c, 0, 82, 70
2, 249920, Note_on_c, 0, 94, 70
2, 250080, Note_on_c, 0, 94, 0
2, 250080, Note_on_c, 0, 82, 0
2, 250080, Note_on_c, 0, 58, 70
2, 250239, Note_on_c, 0, 58, 0
2, 250239, Note_on_c, 0, 70, 70
2, 250239, Note_on_c, 0, 82, 70
2, 250400, Note_on_c, 0, 82, 0
2, 250400, Note_on_c, 0, 70, 0
2, 250400, Note_on_c, 0, 70, 70
2, 250400, Note_on_c, 0, 82, 70
2, 250560, Note_on_c, 0, 82, 0
2, 250560, Note_on_c, 0, 70, 0
2, 250560, Note_on_c, 0, 58, 70
2, 250719, Note_on_c, 0, 58, 0
2, 250719, Note_on_c, 0, 58, 70
2, 250719, Note_on_c, 0, 70, 70
2, 250880, Note_on_c, 0, 70, 0
2, 250880, Note_on_c, 0, 58, 0
2, 250880, Note_on_c, 0, 58, 70
2, 250880, Note_on_c, 0, 70, 70
2, 251040, Note_on_c, 0, 70, 0
2, 251040, Note_on_c, 0, 58, 0
2, 251199, Note_on_c, 0, 58, 70
2, 251360, Note_on_c, 0, 58, 0
2, 251360, Control_c, 0, 64, 0
2, 251360, Note_on_c, 0, 58, 70
2, 251520, Note_on_c, 0, 58, 0
2, 251520, Control_c, 0, 64, 127
2, 251520, Note_on_c, 0, 38, 70
2, 251520, Note_on_c, 0, 41, 70
2, 251520, Note_on_c, 0, 47, 70
2, 251679, Note_on_c, 0, 47, 0
2, 251679, Note_on_c, 0, 41, 0
2, 251679, Note_on_c, 0, 38, 0
2, 251679, Note_on_c, 0, 50, 70
2, 251679, Note_on_c, 0, 53, 70
2, 251679, Note_on_c, 0, 59, 70
2, 251840, Note_on_c, 0, 59, 0
2, 251840, Note_on_c, 0, 53, 0
2, 251840, Note_on_c, 0, 50, 0
2, 251840, Note_on_c, 0, 50, 70
2, 251840, Note_on_c, 0, 53, 70
2, 251840, Note_on_c, 0, 59, 70
2, 252000, Note_on_c, 0, 59, 0
2, 252000, Note_on_c, 0, 53, 0
2, 252000, Note_on_c, 0, 50, 0
2, 252000, Note_on_c, 0, 50, 70
2, 252000, Note_on_c, 0, 53, 70
2, 252000, Note_on_c, 0, 59, 70
2, 252159, Note_on_c, 0, 59, 0
2, 252159, Note_on_c, 0, 53, 0
2, 252159, Note_on_c, 0, 50, 0
2, 252159, Note_on_c, 0, 62, 70
2, 252159, Note_on_c, 0, 65, 70
2, 252159, Note_on_c, 0, 71, 70
2, 252320, Note_on_c, 0, 71, 0
2, 252320, Note_on_c, 0, 65, 0
2, 252320, Note_on_c, 0, 62, 0
2, 252320, Note_on_c, 0, 62, 70
2, 252320, Note_on_c, 0, 65, 70
2, 252320, Note_on_c, 0, 71, 70
2, 252480, Note_on_c, 0, 71, 0
2, 252480, Note_on_c, 0, 65, 0
2, 252480, Note_on_c, 0, 62, 0
2, 252480, Note_on_c, 0, 62, 70
2, 252480, Note_on_c, 0, 65, 70
2, 252480, Note_on_c, 0, 71, 70
2, 252639, Note_on_c, 0, 71, 0
2, 252639, Note_on_c, 0, 65, 0
2, 252639, Note_on_c, 0, 62, 0
2, 252639, Note_on_c, 0, 74, 70
2, 252639, Note_on_c, 0, 77, 70
2, 252639, Note_on_c, 0, 83, 70
2, 252800, Note_on_c, 0, 83, 0
2, 252800, Note_on_c, 0, 77, 0
2, 252800, Note_on_c, 0, 74, 0
2, 252800, Note_on_c, 0, 74, 70
2, 252800, Note_on_c, 0, 77, 70
2, 252800, Note_on_c, 0, 83, 70
2, 252960, Note_on_c, 0, 83, 0
2, 252960, Note_on_c, 0, 77, 0
2, 252960, Note_on_c, 0, 74, 0
2, 252960, Note_on_c, 0, 74, 70
2, 252960, Note_on_c, 0, 77, 70
2, 252960, Note_on_c, 0, 83, 70
2, 253119, Note_on_c, 0, 83, 0
2, 253119, Note_on_c, 0, 77, 0
2, 253119, Note_on_c, 0, 74, 0
2, 253119, Note_on_c, 0, 86, 70
2, 253119, Note_on_c, 0, 89, 70
2, 253119, Note_on_c, 0, 95, 70
2, 253280, Note_on_c, 0, 95, 0
2, 253280, Note_on_c, 0, 89, 0
2, 253280, Note_on_c, 0, 86, 0
2, 253280, Control_c, 0, 64, 0
2, 253280, Note_on_c, 0, 86, 70
2, 253280, Note_on_c, 0, 89, 70
2, 253280, Note_on_c, 0, 95, 70
2, 253440, Note_on_c, 0, 95, 0
2, 253440, Note_on_c, 0, 89, 0
2, 253440, Note_on_c, 0, 86, 0
2, 253440, Control_c, 0, 64, 127
2, 253440, Note_on_c, 0, 38, 70
2, 253440, Note_on_c, 0, 41, 70
2, 253440, Note_on_c, 0, 47, 70
2, 253599, Note_on_c, 0, 47, 0
2, 253599, Note_on_c, 0, 41, 0
2, 253599, Note_on_c, 0, 38, 0
2, 253599, Note_on_c, 0, 50, 70
2, 253599, Note_on_c, 0, 53, 70
2, 253599, Note_on_c, 0, 59, 70
2, 253760, Note_on_c, 0, 59, 0
2, 253760, Note_on_c, 0, 53, 0
2, 253760, Note_on_c, 0, 50, 0
2, 253760, Note_on_c, 0, 50, 70
2, 253760, Note_on_c, 0, 53, 70
2, 253760, Note_on_c, 0, 59, 70
2, 253920, Note_on_c, 0, 59, 0
2, 253920, Note_on_c, 0, 53, 0
2, 253920, Note_on_c, 0, 50, 0
2, 253920, Note_on_c, 0, 50, 70
2, 253920, Note_on_c, 0, 53, 70
2, 253920, Note_on_c, 0, 59, 70
2, 254079, Note_on_c, 0, 59, 0
2, 254079, Note_on_c, 0, 53, 0
2, 254079, Note_on_c, 0, 50, 0
2, 254079, Note_on_c, 0, 62, 70
2, 254079, Note_on_c, 0, 65, 70
2, 254079, Note_on_c, 0, 71, 70
2, 254240, Note_on_c, 0, 71, 0
2, 254240, Note_on_c, 0, 65, 0
2, 254240, Note_on_c, 0, 62, 0
2, 254240, Note_on_c, 0, 62, 70
2, 254240, Note_on_c, 0, 65, 70
2, 254240, Note_on_c, 0, 71, 70
2, 254400, Note_on_c, 0, 71, 0
2, 254400, Note_on_c, 0, 65, 0
2, 254400, Note_on_c, 0, 62, 0
2, 254400, Note_on_c, 0, 62, 70
2, 254400, Note_on_c, 0, 65, 70
2, 254400, Note_on_c, 0, 71, 70
2, 254559, Note_on_c, 0, 71, 0
2, 254559, Note_on_c, 0, 65, 0
2, 254559, Note_on_c, 0, 62, 0
2, 254559, Note_on_c, 0, 74, 70
2, 254559, Note_on_c, 0, 77, 70
2, 254559, Note_on_c, 0, 83, 70
2, 254720, Note_on_c, 0, 83, 0
2, 254720, Note_on_c, 0, 77, 0
2, 254720, Note_on_c, 0, 74, 0
2, 254720, Note_on_c, 0, 74, 70
2, 254720, Note_on_c, 0, 77, 70
2, 254720, Note_on_c, 0, 83, 70
2, 254880, Note_on_c, 0, 83, 0
2, 254880, Note_on_c, 0, 77, 0
2, 254880, Note_on_c, 0, 74, 0
2, 254880, Note_on_c, 0, 74, 70
2, 254880, Note_on_c, 0, 77, 70
2, 254880, Note_on_c, 0, 83, 70
2, 255039, Note_on_c, 0, 83, 0
2, 255039, Note_on_c, 0, 77, 0
2, 255039, Note_on_c, 0, 74, 0
2, 255039, Note_on_c, 0, 86, 70
2, 255039, Note_on_c, 0, 89, 70
2, 255039, Note_on_c, 0, 95, 70
2, 255200, Note_on_c, 0, 95, 0
2, 255200, Note_on_c, 0, 89, 0
2, 255200, Note_on_c, 0, 86, 0
2, 255200, Control_c, 0, 64, 0
2, 255200, Note_on_c, 0, 86, 70
2, 255200, Note_on_c, 0, 89, 70
2, 255200, Note_on_c, 0, 95, 70
2, 255360, Note_on_c, 0, 95, 0
2, 255360, Note_on_c, 0, 89, 0
2, 255360, Note_on_c, 0, 86, 0
2, 256320, Note_on_c, 0, 62, 70
2, 256320, Note_on_c, 0, 65, 70
2, 256320, Note_on_c, 0, 71, 70
2, 256440, Note_on_c, 0, 71, 0
2, 256440, Note_on_c, 0, 65, 0
2, 256440, Note_on_c, 0, 62, 0
2, 256440, Note_on_c, 0, 62, 70
2, 256440, Note_on_c, 0, 65, 70
2, 256440, Note_on_c, 0, 71, 70
2, 256560, Note_on_c, 0, 71, 0
2, 256560, Note_on_c, 0, 65, 0
2, 256560, Note_on_c, 0, 62, 0
2, 256560, Note_on_c, 0, 74, 70
2, 256560, Note_on_c, 0, 77, 70
2, 256560, Note_on_c, 0, 83, 70
2, 256680, Note_on_c, 0, 83, 0
2, 256680, Note_on_c, 0, 77, 0
2, 256680, Note_on_c, 0, 74, 0
2, 256680, Note_on_c, 0, 74, 70
2, 256680, Note_on_c, 0, 77, 70
2, 256680, Note_on_c, 0, 83, 70
2, 256800, Note_on_c, 0, 83, 0
2, 256800, Note_on_c, 0, 77, 0
2, 256800, Note_on_c, 0, 74, 0
2, 256800, Note_on_c, 0, 74, 70
2, 256800, Note_on_c, 0, 77, 70
2, 256800, Note_on_c, 0, 83, 70
2, 256920, Note_on_c, 0, 83, 0
2, 256920, Note_on_c, 0, 77, 0
2, 256920, Note_on_c, 0, 74, 0
2, 256920, Note_on_c, 0, 74, 70
2, 256920, Note_on_c, 0, 77, 70
2, 256920, Note_on_c, 0, 83, 70
2, 257040, Note_on_c, 0, 83, 0
2, 257040, Note_on_c, 0, 77, 0
2, 257040, Note_on_c, 0, 74, 0
2, 257040, Note_on_c, 0, 86, 70
2, 257040, Note_on_c, 0, 89, 70
2, 257040, Note_on_c, 0, 95, 70
2, 257160, Note_on_c, 0, 95, 0
2, 257160, Note_on_c, 0, 89, 0
2, 257160, Note_on_c, 0, 86, 0
2, 257160, Control_c, 0, 64, 0
2, 257160, Note_on_c, 0, 86, 70
2, 257160, Note_on_c, 0, 89, 70
2, 257160, Note_on_c, 0, 95, 70
2, 257280, Note_on_c, 0, 95, 0
2, 257280, Note_on_c, 0, 89, 0
2, 257280, Note_on_c, 0, 86, 0
2, 258240, Note_on_c, 0, 62, 70
2, 258240, Note_on_c, 0, 65, 70
2, 258240, Note_on_c, 0, 71, 70
2, 258360, Note_on_c, 0, 71, 0
2, 258360, Note_on_c, 0, 65, 0
2, 258360, Note_on_c, 0, 62, 0
2, 258360, Note_on_c, 0, 62, 70
2, 258360, Note_on_c, 0, 65, 70
2, 258360, Note_on_c, 0, 71, 70
2, 258480, Note_on_c, 0, 71, 0
2, 258480, Note_on_c, 0, 65, 0
2, 258480, Note_on_c, 0, 62, 0
2, 258480, Note_on_c, 0, 74, 70
2, 258480, Note_on_c, 0, 77, 70
2, 258480, Note_on_c, 0, 83, 70
2, 258600, Note_on_c, 0, 83, 0
2, 258600, Note_on_c, 0, 77, 0
2, 258600, Note_on_c, 0, 74, 0
2, 258600, Note_on_c, 0, 74, 70
2, 258600, Note_on_c, 0, 77, 70
2, 258600, Note_on_c, 0, 83, 70
2, 258720, Note_on_c, 0, 83, 0
2, 258720, Note_on_c, 0, 77, 0
2, 258720, Note_on_c, 0, 74, 0
2, 258720, Note_on_c, 0, 74, 70
2, 258720, Note_on_c, 0, 77, 70
2, 258720, Note_on_c, 0, 83, 70
2, 258840, Note_on_c, 0, 83, 0
2, 258840, Note_on_c, 0, 77, 0
2, 258840, Note_on_c, 0, 74, 0
2, 258840, Note_on_c, 0, 74, 70
2, 258840, Note_on_c, 0, 77, 70
2, 258840, Note_on_c, 0, 83, 70
2, 258960, Note_on_c, 0, 83, 0
2, 258960, Note_on_c, 0, 77, 0
2, 258960, Note_on_c, 0, 74, 0
2, 258960, Note_on_c, 0, 86, 70
2, 258960, Note_on_c, 0, 89, 70
2, 258960, Note_on_c, 0, 95, 70
2, 259080, Note_on_c, 0, 95, 0
2, 259080, Note_on_c, 0, 89, 0
2, 259080, Note_on_c, 0, 86, 0
2, 259080, Control_c, 0, 64, 0
2, 259080, Note_on_c, 0, 86, 70
2, 259080, Note_on_c, 0, 89, 70
2, 259080, Note_on_c, 0, 95, 70
2, 259200, Note_on_c, 0, 95, 0
2, 259200, Note_on_c, 0, 89, 0
2, 259200, Note_on_c, 0, 86, 0
2, 261120, Note_on_c, 0, 50, 83
2, 261120, Note_on_c, 0, 53, 83
2, 261120, Note_on_c, 0, 59, 83
2, 261240, Note_on_c, 0, 59, 0
2, 261240, Note_on_c, 0, 53, 0
2, 261240, Note_on_c, 0, 50, 0
2, 261240, Note_on_c, 0, 62, 83
2, 261240, Note_on_c, 0, 65, 83
2, 261240, Note_on_c, 0, 71, 83
2, 261360, Note_on_c, 0, 71, 0
2, 261360, Note_on_c, 0, 65, 0
2, 261360, Note_on_c, 0, 62, 0
2, 261360, Note_on_c, 0, 53, 83
2, 261360, Note_on_c, 0, 59, 83
2, 261360, Note_on_c, 0, 62, 83
2, 261480, Note_on_c, 0, 62, 0
2, 261480, Note_on_c, 0, 59, 0
2, 261480, Note_on_c, 0, 53, 0
2, 261480, Note_on_c, 0, 65, 83
2, 261480, Note_on_c, 0, 71, 83
2, 261480, Note_on_c, 0, 74, 83
2, 261600, Note_on_c, 0, 74, 0
2, 261600, Note_on_c, 0, 71, 0
2, 261600, Note_on_c, 0, 65, 0
2, 261600, Note_on_c, 0, 59, 83
2, 261600, Note_on_c, 0, 62, 83
2, 261600, Note_on_c, 0, 65, 83
2, 261720, Note_on_c, 0, 65, 0
2, 261720, Note_on_c, 0, 62, 0
2, 261720, Note_on_c, 0, 59, 0
2, 261720, Note_on_c, 0, 71, 83
2, 261720, Note_on_c, 0, 74, 83
2, 261720, Note_on_c, 0, 77, 83
2, 261840, Note_on_c, 0, 77, 0
2, 261840, Note_on_c, 0, 74, 0
2, 261840, Note_on_c, 0, 71, 0
2, 261840, Note_on_c, 0, 62, 83
2, 261840, Note_on_c, 0, 65, 83
2, 261840, Note_on_c, 0, 71, 83
2, 261960, Note_on_c, 0, 71, 0
2, 261960, Note_on_c, 0, 65, 0
2, 261960, Note_on_c, 0, 62, 0
2, 261960, Note_on_c, 0, 74, 83
2, 261960, Note_on_c, 0, 77, 83
2, 261960, Note_on_c, 0, 83, 83
2, 262080, Note_on_c, 0, 83, 0
2, 262080, Note_on_c, 0, 77, 0
2, 262080, Note_on_c, 0, 74, 0
2, 262080, Note_on_c, 0, 65, 83
2, 262080, Note_on_c, 0, 71, 83
2, 262080, Note_on_c, 0, 74, 83
2, 262200, Note_on_c, 0, 74, 0
2, 262200, Note_on_c, 0, 71, 0
2, 262200, Note_on_c, 0, 65, 0
2, 262200, Note_on_c, 0, 77, 83
2, 262200, Note_on_c, 0, 83, 83
2, 262200, Note_on_c, 0, 86, 83
2, 262320, Note_on_c, 0, 86, 0
2, 262320, Note_on_c, 0, 83, 0
2, 262320, Note_on_c, 0, 77, 0
2, 262320, Note_on_c, 0, 71, 83
2, 262320, Note_on_c, 0, 74, 83
2, 262320, Note_on_c, 0, 77, 83
2, 262440, Note_on_c, 0, 77, 0
2, 262440, Note_on_c, 0, 74, 0
2, 262440, Note_on_c, 0, 71, 0
2, 262440, Note_on_c, 0, 83, 83
2, 262440, Note_on_c, 0, 86, 83
2, 262440, Note_on_c, 0, 89, 83
2, 262560, Note_on_c, 0, 89, 0
2, 262560, Note_on_c, 0, 86, 0
2, 262560, Note_on_c, 0, 83, 0
2, 262560, Note_on_c, 0, 74, 83
2, 262560, Note_on_c, 0, 77, 83
2, 262560, Note_on_c, 0, 83, 83
2, 262680, Note_on_c, 0, 83, 0
2, 262680, Note_on_c, 0, 77, 0
2, 262680, Note_on_c, 0, 74, 0
2, 262680, Note_on_c, 0, 86, 83
2, 262680, Note_on_c, 0, 89, 83
2, 262680, Note_on_c, 0, 95, 83
2, 262800, Note_on_c, 0, 95, 0
2, 262800, Note_on_c, 0, 89, 0
2, 262800, Note_on_c, 0, 86, 0
2, 262800, Note_on_c, 0, 74, 83
2, 262800, Note_on_c, 0, 77, 83
2, 262800, Note_on_c, 0, 84, 83
2, 262920, Note_on_c, 0, 84, 0
2, 262920, Note_on_c, 0, 77, 0
2, 262920, Note_on_c, 0, 74, 0
2, 262920, Note_on_c, 0, 83, 83
2, 262920, Note_on_c, 0, 86, 83
2, 262920, Note_on_c, 0, 92, 83
2, 263040, Note_on_c, 0, 92, 0
2, 263040, Note_on_c, 0, 86, 0
2, 263040, Note_on_c, 0, 83, 0
2, 263040, Note_on_c, 0, 68, 83
2, 263040, Note_on_c, 0, 71, 83
2, 263040, Note_on_c, 0, 77, 83
2, 263160, Note_on_c, 0, 77, 0
2, 263160, Note_on_c, 0, 71, 0
2, 263160, Note_on_c, 0, 68, 0
2, 263160, Note_on_c, 0, 80, 83
2, 263160, Note_on_c, 0, 83, 83
2, 263160, Note_on_c, 0, 89, 83
2, 263280, Note_on_c, 0, 89, 0
2, 263280, Note_on_c, 0, 83, 0
2, 263280, Note_on_c, 0, 80, 0
2, 263280, Note_on_c, 0, 65, 83
2, 263280, Note_on_c, 0, 68, 83
2, 263280, Note_on_c, 0, 75, 83
2, 263400, Note_on_c, 0, 75, 0
2, 263400, Note_on_c, 0, 68, 0
2, 263400, Note_on_c, 0, 65, 0
2, 263400, Note_on_c, 0, 77, 83
2, 263400, Note_on_c, 0, 80, 83
2, 263400, Note_on_c, 0, 87, 83
2, 263520, Note_on_c, 0, 87, 0
2, 263520, Note_on_c, 0, 80, 0
2, 263520, Note_on_c, 0, 77, 0
2, 263520, Note_on_c, 0, 65, 83
2, 263520, Note_on_c, 0, 68, 83
2, 263520, Note_on_c, 0, 74, 83
2, 263640, Note_on_c, 0, 74, 0
2, 263640, Note_on_c, 0, 68, 0
2, 263640, Note_on_c, 0, 65, 0
2, 263640, Note_on_c, 0, 77, 83
2, 263640, Note_on_c, 0, 80, 83
2, 263640, Note_on_c, 0, 86, 83
2, 263760, Note_on_c, 0, 86, 0
2, 263760, Note_on_c, 0, 80, 0
2, 263760, Note_on_c, 0, 77, 0
2, 263760, Note_on_c, 0, 65, 83
2, 263760, Note_on_c, 0, 68, 83
2, 263760, Note_on_c, 0, 72, 83
2, 263880, Note_on_c, 0, 72, 0
2, 263880, Note_on_c, 0, 68, 0
2, 263880, Note_on_c, 0, 65, 0
2, 263880, Note_on_c, 0, 77, 83
2, 263880, Note_on_c, 0, 80, 83
2, 263880, Note_on_c, 0, 84, 83
2, 264000, Note_on_c, 0, 84, 0
2, 264000, Note_on_c, 0, 80, 0
2, 264000, Note_on_c, 0, 77, 0
2, 264000, Note_on_c, 0, 65, 83
2, 264000, Note_on_c, 0, 68, 83
2, 264000, Note_on_c, 0, 71, 83
2, 264120, Note_on_c, 0, 71, 0
2, 264120, Note_on_c, 0, 68, 0
2, 264120, Note_on_c, 0, 65, 0
2, 264120, Note_on_c, 0, 77, 83
2, 264120, Note_on_c, 0, 80, 83
2, 264120, Note_on_c, 0, 83, 83
2, 264240, Note_on_c, 0, 83, 0
2, 264240, Note_on_c, 0, 80, 0
2, 264240, Note_on_c, 0, 77, 0
2, 264240, Note_on_c, 0, 65, 83
2, 264240, Note_on_c, 0, 68, 83
2, 264240, Note_on_c, 0, 74, 83
2, 264360, Note_on_c, 0, 74, 0
2, 264360, Note_on_c, 0, 68, 0
2, 264360, Note_on_c, 0, 65, 0
2, 264360, Note_on_c, 0, 77, 83
2, 264360, Note_on_c, 0, 80, 83
2, 264360, Note_on_c, 0, 86, 83
2, 264480, Note_on_c, 0, 86, 0
2, 264480, Note_on_c, 0, 80, 0
2, 264480, Note_on_c, 0, 77, 0
2, 264480, Note_on_c, 0, 62, 83
2, 264480, Note_on_c, 0, 65, 83
2, 264480, Note_on_c, 0, 71, 83
2, 264600, Note_on_c, 0, 71, 0
2, 264600, Note_on_c, 0, 65, 0
2, 264600, Note_on_c, 0, 62, 0
2, 264600, Note_on_c, 0, 74, 83
2, 264600, Note_on_c, 0, 77, 83
2, 264600, Note_on_c, 0, 83, 83
2, 264720, Note_on_c, 0, 83, 0
2, 264720, Note_on_c, 0, 77, 0
2, 264720, Note_on_c, 0, 74, 0
2, 264720, Note_on_c, 0, 59, 83
2, 264720, Note_on_c, 0, 62, 83
2, 264720, Note_on_c, 0, 68, 83
2, 264840, Note_on_c, 0, 68, 0
2, 264840, Note_on_c, 0, 62, 0
2, 264840, Note_on_c, 0, 59, 0
2, 264840, Note_on_c, 0, 71, 83
2, 264840, Note_on_c, 0, 74, 83
2, 264840, Note_on_c, 0, 80, 83
2, 264960, Note_on_c, 0, 80, 0
2, 264960, Note_on_c, 0, 74, 0
2, 264960, Note_on_c, 0, 71, 0
2, 264960, Note_on_c, 0, 56, 83
2, 264960, Note_on_c, 0, 59, 83
2, 264960, Note_on_c, 0, 65, 83
2, 265080, Note_on_c, 0, 65, 0
2, 265080, Note_on_c, 0, 59, 0
2, 265080, Note_on_c, 0, 56, 0
2, 265080, Note_on_c, 0, 68, 83
2, 265080, Note_on_c, 0, 71, 83
2, 265080, Note_on_c, 0, 77, 83
2, 265200, Note_on_c, 0, 77, 0
2, 265200, Note_on_c, 0, 71, 0
2, 265200, Note_on_c, 0, 68, 0
2, 265200, Note_on_c, 0, 53, 83
2, 265200, Note_on_c, 0, 56, 83
2, 265200, Note_on_c, 0, 63, 83
2, 265320, Note_on_c, 0, 63, 0
2, 265320, Note_on_c, 0, 56, 0
2, 265320, Note_on_c, 0, 53, 0
2, 265320, Note_on_c, 0, 65, 83
2, 265320, Note_on_c, 0, 68, 83
2, 265320, Note_on_c, 0, 75, 83
2, 265440, Note_on_c, 0, 75, 0
2, 265440, Note_on_c, 0, 68, 0
2, 265440, Note_on_c, 0, 65, 0
2, 265440, Note_on_c, 0, 53, 83
2, 265440, Note_on_c, 0, 56, 83
2, 265440, Note_on_c, 0, 62, 83
2, 265560, Note_on_c, 0, 62, 0
2, 265560, Note_on_c, 0, 56, 0
2, 265560, Note_on_c, 0, 53, 0
2, 265560, Note_on_c, 0, 65, 83
2, 265560, Note_on_c, 0, 68, 83
2, 265560, Note_on_c, 0, 74, 83
2, 265680, Note_on_c, 0, 74, 0
2, 265680, Note_on_c, 0, 68, 0
2, 265680, Note_on_c, 0, 65, 0
2, 265680, Note_on_c, 0, 53, 83
2, 265680, Note_on_c, 0, 56, 83
2, 265680, Note_on_c, 0, 60, 83
2, 265800, Note_on_c, 0, 60, 0
2, 265800, Note_on_c, 0, 56, 0
2, 265800, Note_on_c, 0, 53, 0
2, 265800, Note_on_c, 0, 65, 83
2, 265800, Note_on_c, 0, 68, 83
2, 265800, Note_on_c, 0, 72, 83
2, 265920, Note_on_c, 0, 72, 0
2, 265920, Note_on_c, 0, 68, 0
2, 265920, Note_on_c, 0, 65, 0
2, 265920, Note_on_c, 0, 53, 83
2, 265920, Note_on_c, 0, 56, 83
2, 265920, Note_on_c, 0, 59, 83
2, 266040, Note_on_c, 0, 59, 0
2, 266040, Note_on_c, 0, 56, 0
2, 266040, Note_on_c, 0, 53, 0
2, 266040, Note_on_c, 0, 65, 83
2, 266040, Note_on_c, 0, 68, 83
2, 266040, Note_on_c, 0, 71, 83
2, 266160, Note_on_c, 0, 71, 0
2, 266160, Note_on_c, 0, 68, 0
2, 266160, Note_on_c, 0, 65, 0
2, 266160, Note_on_c, 0, 53, 83
2, 266160, Note_on_c, 0, 56, 83
2, 266160, Note_on_c, 0, 62, 83
2, 266280, Note_on_c, 0, 62, 0
2, 266280, Note_on_c, 0, 56, 0
2, 266280, Note_on_c, 0, 53, 0
2, 266280, Note_on_c, 0, 65, 83
2, 266280, Note_on_c, 0, 68, 83
2, 266280, Note_on_c, 0, 74, 83
2, 266400, Note_on_c, 0, 74, 0
2, 266400, Note_on_c, 0, 68, 0
2, 266400, Note_on_c, 0, 65, 0
2, 266400, Note_on_c, 0, 50, 83
2, 266400, Note_on_c, 0, 53, 83
2, 266400, Note_on_c, 0, 59, 83
2, 266520, Note_on_c, 0, 59, 0
2, 266520, Note_on_c, 0, 53, 0
2, 266520, Note_on_c, 0, 50, 0
2, 266520, Note_on_c, 0, 62, 83
2, 266520, Note_on_c, 0, 65, 83
2, 266520, Note_on_c, 0, 71, 83
2, 266640, Note_on_c, 0, 71, 0
2, 266640, Note_on_c, 0, 65, 0
2, 266640, Note_on_c, 0, 62, 0
2, 266640, Note_on_c, 0, 47, 83
2, 266640, Note_on_c, 0, 50, 83
2, 266640, Note_on_c, 0, 56, 83
2, 266760, Note_on_c, 0, 56, 0
2, 266760, Note_on_c, 0, 50, 0
2, 266760, Note_on_c, 0, 47, 0
2, 266760, Note_on_c, 0, 59, 83
2, 266760, Note_on_c, 0, 62, 83
2, 266760, Note_on_c, 0, 68, 83
2, 266880, Note_on_c, 0, 68, 0
2, 266880, Note_on_c, 0, 62, 0
2, 266880, Note_on_c, 0, 59, 0
2, 271200, Note_on_c, 0, 50, 83
2, 271200, Note_on_c, 0, 53, 83
2, 271200, Note_on_c, 0, 60, 83
2, 271320, Note_on_c, 0, 60, 0
2, 271320, Note_on_c, 0, 53, 0
2, 271320, Note_on_c, 0, 50, 0
2, 271320, Note_on_c, 0, 62, 83
2, 271320, Note_on_c, 0, 65, 83
2, 271320, Note_on_c, 0, 72, 83
2, 271440, Note_on_c, 0, 72, 0
2, 271440, Note_on_c, 0, 65, 0
2, 271440, Note_on_c, 0, 62, 0
2, 271440, Note_on_c, 0, 50, 83
2, 271440, Note_on_c, 0, 53, 83
2, 271440, Note_on_c, 0, 59, 83
2, 271560, Note_on_c, 0, 59, 0
2, 271560, Note_on_c, 0, 53, 0
2, 271560, Note_on_c, 0, 50, 0
2, 271560, Note_on_c, 0, 62, 83
2, 271560, Note_on_c, 0, 65, 83
2, 271560, Note_on_c, 0, 71, 83
2, 271680, Note_on_c, 0, 71, 0
2, 271680, Note_on_c, 0, 65, 0
2, 271680, Note_on_c, 0, 62, 0
2, 271680, Note_on_c, 0, 53, 83
2, 271680, Note_on_c, 0, 56, 83
2, 271680, Note_on_c, 0, 63, 83
2, 271800, Note_on_c, 0, 63, 0
2, 271800, Note_on_c, 0, 56, 0
2, 271800, Note_on_c, 0, 53, 0
2, 271800, Note_on_c, 0, 65, 83
2, 271800, Note_on_c, 0, 68, 83
2, 271800, Note_on_c, 0, 75, 83
2, 271920, Note_on_c, 0, 75, 0
2, 271920, Note_on_c, 0, 68, 0
2, 271920, Note_on_c, 0, 65, 0
2, 271920, Note_on_c, 0, 53, 83
2, 271920, Note_on_c, 0, 56, 83
2, 271920, Note_on_c, 0, 62, 83
2, 272040, Note_on_c, 0, 62, 0
2, 272040, Note_on_c, 0, 56, 0
2, 272040, Note_on_c, 0, 53, 0
2, 272040, Note_on_c, 0, 65, 83
2, 272040, Note_on_c, 0, 68, 83
2, 272040, Note_on_c, 0, 74, 83
2, 272160, Note_on_c, 0, 74, 0
2, 272160, Note_on_c, 0, 68, 0
2, 272160, Note_on_c, 0, 65, 0
2, 272160, Note_on_c, 0, 50, 83
2, 272160, Note_on_c, 0, 53, 83
2, 272160, Note_on_c, 0, 60, 83
2, 272280, Note_on_c, 0, 60, 0
2, 272280, Note_on_c, 0, 53, 0
2, 272280, Note_on_c, 0, 50, 0
2, 272280, Note_on_c, 0, 62, 83
2, 272280, Note_on_c, 0, 65, 83
2, 272280, Note_on_c, 0, 72, 83
2, 272400, Note_on_c, 0, 72, 0
2, 272400, Note_on_c, 0, 65, 0
2, 272400, Note_on_c, 0, 62, 0
2, 272400, Note_on_c, 0, 50, 83
2, 272400, Note_on_c, 0, 53, 83
2, 272400, Note_on_c, 0, 59, 83
2, 272520, Note_on_c, 0, 59, 0
2, 272520, Note_on_c, 0, 53, 0
2, 272520, Note_on_c, 0, 50, 0
2, 272520, Note_on_c, 0, 62, 83
2, 272520, Note_on_c, 0, 65, 83
2, 272520, Note_on_c, 0, 71, 83
2, 272640, Note_on_c, 0, 71, 0
2, 272640, Note_on_c, 0, 65, 0
2, 272640, Note_on_c, 0, 62, 0
2, 272640, Note_on_c, 0, 53, 83
2, 272640, Note_on_c, 0, 56, 83
2, 272640, Note_on_c, 0, 63, 83
2, 272760, Note_on_c, 0, 63, 0
2, 272760, Note_on_c, 0, 56, 0
2, 272760, Note_on_c, 0, 53, 0
2, 272760, Note_on_c, 0, 65, 83
2, 272760, Note_on_c, 0, 68, 83
2, 272760, Note_on_c, 0, 75, 83
2, 272880, Note_on_c, 0, 75, 0
2, 272880, Note_on_c, 0, 68, 0
2, 272880, Note_on_c, 0, 65, 0
2, 272880, Note_on_c, 0, 53, 83
2, 272880, Note_on_c, 0, 56, 83
2, 272880, Note_on_c, 0, 62, 83
2, 273000, Note_on_c, 0, 62, 0
2, 273000, Note_on_c, 0, 56, 0
2, 273000, Note_on_c, 0, 53, 0
2, 273000, Note_on_c, 0, 65, 83
2, 273000, Note_on_c, 0, 68, 83
2, 273000, Note_on_c, 0, 74, 83
2, 273120, Note_on_c, 0, 74, 0
2, 273120, Note_on_c, 0, 68, 0
2, 273120, Note_on_c, 0, 65, 0
2, 273120, Note_on_c, 0, 50, 83
2, 273120, Note_on_c, 0, 53, 83
2, 273120, Note_on_c, 0, 60, 83
2, 273240, Note_on_c, 0, 60, 0
2, 273240, Note_on_c, 0, 53, 0
2, 273240, Note_on_c, 0, 50, 0
2, 273240, Note_on_c, 0, 62, 83
2, 273240, Note_on_c, 0, 65, 83
2, 273240, Note_on_c, 0, 72, 83
2, 273360, Note_on_c, 0, 72, 0
2, 273360, Note_on_c, 0, 65, 0
2, 273360, Note_on_c, 0, 62, 0
2, 273360, Note_on_c, 0, 50, 83
2, 273360, Note_on_c, 0, 53, 83
2, 273360, Note_on_c, 0, 59, 83
2, 273480, Note_on_c, 0, 59, 0
2, 273480, Note_on_c, 0, 53, 0
2, 273480, Note_on_c, 0, 50, 0
2, 273480, Note_on_c, 0, 62, 83
2, 273480, Note_on_c, 0, 65, 83
2, 273480, Note_on_c, 0, 71, 83
2, 273600, Note_on_c, 0, 71, 0
2, 273600, Note_on_c, 0, 65, 0
2, 273600, Note_on_c, 0, 62, 0
2, 273600, Note_on_c, 0, 53, 83
2, 273600, Note_on_c, 0, 56, 83
2, 273600, Note_on_c, 0, 63, 83
2, 273720, Note_on_c, 0, 63, 0
2, 273720, Note_on_c, 0, 56, 0
2, 273720, Note_on_c, 0, 53, 0
2, 273720, Note_on_c, 0, 65, 83
2, 273720, Note_on_c, 0, 68, 83
2, 273720, Note_on_c, 0, 75, 83
2, 273840, Note_on_c, 0, 75, 0
2, 273840, Note_on_c, 0, 68, 0
2, 273840, Note_on_c, 0, 65, 0
2, 273840, Note_on_c, 0, 53, 83
2, 273840, Note_on_c, 0, 56, 83
2, 273840, Note_on_c, 0, 62, 83
2, 273960, Note_on_c, 0, 62, 0
2, 273960, Note_on_c, 0, 56, 0
2, 273960, Note_on_c, 0, 53, 0
2, 273960, Note_on_c, 0, 65, 83
2, 273960, Note_on_c, 0, 68, 83
2, 273960, Note_on_c, 0, 74, 83
2, 274080, Note_on_c, 0, 74, 0
2, 274080, Note_on_c, 0, 68, 0
2, 274080, Note_on_c, 0, 65, 0
2, 274080, Note_on_c, 0, 56, 83
2, 274080, Note_on_c, 0, 59, 83
2, 274080, Note_on_c, 0, 67, 83
2, 274200, Note_on_c, 0, 67, 0
2, 274200, Note_on_c, 0, 59, 0
2, 274200, Note_on_c, 0, 56, 0
2, 274200, Note_on_c, 0, 68, 83
2, 274200, Note_on_c, 0, 71, 83
2, 274200, Note_on_c, 0, 79, 83
2, 274320, Note_on_c, 0, 79, 0
2, 274320, Note_on_c, 0, 71, 0
2, 274320, Note_on_c, 0, 68, 0
2, 274320, Note_on_c, 0, 56, 83
2, 274320, Note_on_c, 0, 59, 83
2, 274320, Note_on_c, 0, 65, 83
2, 274440, Note_on_c, 0, 65, 0
2, 274440, Note_on_c, 0, 59, 0
2, 274440, Note_on_c, 0, 56, 0
2, 274440, Note_on_c, 0, 68, 83
2, 274440, Note_on_c, 0, 71, 83
2, 274440, Note_on_c, 0, 77, 83
2, 274560, Note_on_c, 0, 77, 0
2, 274560, Note_on_c, 0, 71, 0
2, 274560, Note_on_c, 0, 68, 0
2, 274560, Note_on_c, 0, 59, 83
2, 274560, Note_on_c, 0, 62, 83
2, 274560, Note_on_c, 0, 68, 83
2, 274680, Note_on_c, 0, 68, 0
2, 274680, Note_on_c, 0, 62, 0
2, 274680, Note_on_c, 0, 59, 0
2, 274680, Note_on_c, 0, 71, 83
2, 274680, Note_on_c, 0, 74, 83
2, 274680, Note_on_c, 0, 80, 83
2, 274800, Note_on_c, 0, 80, 0
2, 274800, Note_on_c, 0, 74, 0
2, 274800, Note_on_c, 0, 71, 0
2, 274800, Note_on_c, 0, 59, 83
2, 274800, Note_on_c, 0, 62, 83
2, 274800, Note_on_c, 0, 67, 83
2, 274920, Note_on_c, 0, 67, 0
2, 274920, Note_on_c, 0, 62, 0
2, 274920, Note_on_c, 0, 59, 0
2, 274920, Note_on_c, 0, 71, 83
2, 274920, Note_on_c, 0, 74, 83
2, 274920, Note_on_c, 0, 79, 83
2, 275040, Note_on_c, 0, 79, 0
2, 275040, Note_on_c, 0, 74, 0
2, 275040, Note_on_c, 0, 71, 0
2, 275040, Note_on_c, 0, 62, 83
2, 275040, Note_on_c, 0, 65, 83
2, 275040, Note_on_c, 0, 72, 83
2, 275160, Note_on_c, 0, 72, 0
2, 275160, Note_on_c, 0, 65, 0
2, 275160, Note_on_c, 0, 62, 0
2, 275160, Note_on_c, 0, 74, 83
2, 275160, Note_on_c, 0, 77, 83
2, 275160, Note_on_c, 0, 84, 83
2, 275280, Note_on_c, 0, 84, 0
2, 275280, Note_on_c, 0, 77, 0
2, 275280, Note_on_c, 0, 74, 0
2, 275280, Note_on_c, 0, 62, 83
2, 275280, Note_on_c, 0, 65, 83
2, 275280, Note_on_c, 0, 71, 83
2, 275400, Note_on_c, 0, 71, 0
2, 275400, Note_on_c, 0, 65, 0
2, 275400, Note_on_c, 0, 62, 0
2, 275400, Note_on_c, 0, 74, 83
2, 275400, Note_on_c, 0, 77, 83
2, 275400, Note_on_c, 0, 83, 83
2, 275520, Note_on_c, 0, 83, 0
2, 275520, Note_on_c, 0, 77, 0
2, 275520, Note_on_c, 0, 74, 0
2, 275520, Note_on_c, 0, 65, 83
2, 275520, Note_on_c, 0, 68, 83
2, 275520, Note_on_c, 0, 75, 83
2, 275640, Note_on_c, 0, 75, 0
2, 275640, Note_on_c, 0, 68, 0
2, 275640, Note_on_c, 0, 65, 0
2, 275640, Note_on_c, 0, 77, 83
2, 275640, Note_on_c, 0, 80, 83
2, 275640, Note_on_c, 0, 87, 83
2, 275760, Note_on_c, 0, 87, 0
2, 275760, Note_on_c, 0, 80, 0
2, 275760, Note_on_c, 0, 77, 0
2, 275760, Note_on_c, 0, 65, 83
2, 275760, Note_on_c, 0, 68, 83
2, 275760, Note_on_c, 0, 74, 83
2, 275880, Note_on_c, 0, 74, 0
2, 275880, Note_on_c, 0, 68, 0
2, 275880, Note_on_c, 0, 65, 0
2, 275880, Note_on_c, 0, 77, 83
2, 275880, Note_on_c, 0, 80, 83
2, 275880, Note_on_c, 0, 86, 83
2, 276000, Note_on_c, 0, 86, 0
2, 276000, Note_on_c, 0, 80, 0
2, 276000, Note_on_c, 0, 77, 0
2, 276000, Note_on_c, 0, 62, 83
2, 276000, Note_on_c, 0, 65, 83
2, 276000, Note_on_c, 0, 72, 83
2, 276120, Note_on_c, 0, 72, 0
2, 276120, Note_on_c, 0, 65, 0
2, 276120, Note_on_c, 0, 62, 0
2, 276120, Note_on_c, 0, 74, 83
2, 276120, Note_on_c, 0, 77, 83
2, 276120, Note_on_c, 0, 84, 83
2, 276240, Note_on_c, 0, 84, 0
2, 276240, Note_on_c, 0, 77, 0
2, 276240, Note_on_c, 0, 74, 0
2, 276240, Note_on_c, 0, 62, 83
2, 276240, Note_on_c, 0, 65, 83
2, 276240, Note_on_c, 0, 71, 83
2, 276360, Note_on_c, 0, 71, 0
2, 276360, Note_on_c, 0, 65, 0
2, 276360, Note_on_c, 0, 62, 0
2, 276360, Note_on_c, 0, 74, 83
2, 276360, Note_on_c, 0, 77, 83
2, 276360, Note_on_c, 0, 83, 83
2, 276480, Note_on_c, 0, 83, 0
2, 276480, Note_on_c, 0, 77, 0
2, 276480, Note_on_c, 0, 74, 0
2, 276480, Note_on_c, 0, 65, 83
2, 276480, Note_on_c, 0, 68, 83
2, 276480, Note_on_c, 0, 75, 83
2, 276600, Note_on_c, 0, 75, 0
2, 276600, Note_on_c, 0, 68, 0
2, 276600, Note_on_c, 0, 65, 0
2, 276600, Note_on_c, 0, 77, 83
2, 276600, Note_on_c, 0, 80, 83
2, 276600, Note_on_c, 0, 87, 83
2, 276720, Note_on_c, 0, 87, 0
2, 276720, Note_on_c, 0, 80, 0
2, 276720, Note_on_c, 0, 77, 0
2, 276720, Note_on_c, 0, 65, 83
2, 276720, Note_on_c, 0, 68, 83
2, 276720, Note_on_c, 0, 74, 83
2, 276840, Note_on_c, 0, 74, 0
2, 276840, Note_on_c, 0, 68, 0
2, 276840, Note_on_c, 0, 65, 0
2, 276840, Note_on_c, 0, 77, 83
2, 276840, Note_on_c, 0, 80, 83
2, 276840, Note_on_c, 0, 86, 83
2, 276960, Note_on_c, 0, 86, 0
2, 276960, Note_on_c, 0, 80, 0
2, 276960, Note_on_c, 0, 77, 0
2, 276960, Note_on_c, 0, 62, 83
2, 276960, Note_on_c, 0, 65, 83
2, 276960, Note_on_c, 0, 72, 83
2, 277080, Note_on_c, 0, 72, 0
2, 277080, Note_on_c, 0, 65, 0
2, 277080, Note_on_c, 0, 62, 0
2, 277080, Note_on_c, 0, 74, 83
2, 277080, Note_on_c, 0, 77, 83
2, 277080, Note_on_c, 0, 84, 83
2, 277200, Note_on_c, 0, 84, 0
2, 277200, Note_on_c, 0, 77, 0
2, 277200, Note_on_c, 0, 74, 0
2, 277200, Note_on_c, 0, 62, 83
2, 277200, Note_on_c, 0, 65, 83
2, 277200, Note_on_c, 0, 71, 83
2, 277320, Note_on_c, 0, 71, 0
2, 277320, Note_on_c, 0, 65, 0
2, 277320, Note_on_c, 0, 62, 0
2, 277320, Note_on_c, 0, 74, 83
2, 277320, Note_on_c, 0, 77, 83
2, 277320, Note_on_c, 0, 83, 83
2, 277440, Note_on_c, 0, 83, 0
2, 277440, Note_on_c, 0, 77, 0
2, 277440, Note_on_c, 0, 74, 0
2, 277440, Note_on_c, 0, 65, 83
2, 277440, Note_on_c, 0, 68, 83
2, 277440, Note_on_c, 0, 75, 83
2, 277560, Note_on_c, 0, 75, 0
2, 277560, Note_on_c, 0, 68, 0
2, 277560, Note_on_c, 0, 65, 0
2, 277560, Note_on_c, 0, 77, 83
2, 277560, Note_on_c, 0, 80, 83
2, 277560, Note_on_c, 0, 87, 83
2, 277680, Note_on_c, 0, 87, 0
2, 277680, Note_on_c, 0, 80, 0
2, 277680, Note_on_c, 0, 77, 0
2, 277680, Note_on_c, 0, 65, 83
2, 277680, Note_on_c, 0, 68, 83
2, 277680, Note_on_c, 0, 74, 83
2, 277800, Note_on_c, 0, 74, 0
2, 277800, Note_on_c, 0, 68, 0
2, 277800, Note_on_c, 0, 65, 0
2, 277800, Note_on_c, 0, 77, 83
2, 277800, Note_on_c, 0, 80, 83
2, 277800, Note_on_c, 0, 86, 83
2, 277920, Note_on_c, 0, 86, 0
2, 277920, Note_on_c, 0, 80, 0
2, 277920, Note_on_c, 0, 77, 0
2, 277920, Note_on_c, 0, 68, 83
2, 277920, Note_on_c, 0, 71, 83
2, 277920, Note_on_c, 0, 79, 83
2, 278040, Note_on_c, 0, 79, 0
2, 278040, Note_on_c, 0, 71, 0
2, 278040, Note_on_c, 0, 68, 0
2, 278040, Note_on_c, 0, 80, 83
2, 278040, Note_on_c, 0, 83, 83
2, 278040, Note_on_c, 0, 91, 83
2, 278160, Note_on_c, 0, 91, 0
2, 278160, Note_on_c, 0, 83, 0
2, 278160, Note_on_c, 0, 80, 0
2, 278160, Note_on_c, 0, 68, 83
2, 278160, Note_on_c, 0, 71, 83
2, 278160, Note_on_c, 0, 77, 83
2, 278280, Note_on_c, 0, 77, 0
2, 278280, Note_on_c, 0, 71, 0
2, 278280, Note_on_c, 0, 68, 0
2, 278280, Note_on_c, 0, 80, 83
2, 278280, Note_on_c, 0, 83, 83
2, 278280, Note_on_c, 0, 89, 83
2, 278400, Note_on_c, 0, 89, 0
2, 278400, Note_on_c, 0, 83, 0
2, 278400, Note_on_c, 0, 80, 0
2, 278400, Note_on_c, 0, 71, 83
2, 278400, Note_on_c, 0, 74, 83
2, 278400, Note_on_c, 0, 80, 83
2, 278520, Note_on_c, 0, 80, 0
2, 278520, Note_on_c, 0, 74, 0
2, 278520, Note_on_c, 0, 71, 0
2, 278520, Note_on_c, 0, 83, 83
2, 278520, Note_on_c, 0, 86, 83
2, 278520, Note_on_c, 0, 92, 83
2, 278640, Note_on_c, 0, 92, 0
2, 278640, Note_on_c, 0, 86, 0
2, 278640, Note_on_c, 0, 83, 0
2, 278640, Note_on_c, 0, 71, 83
2, 278640, Note_on_c, 0, 74, 83
2, 278640, Note_on_c, 0, 79, 83
2, 278760, Note_on_c, 0, 79, 0
2, 278760, Note_on_c, 0, 74, 0
2, 278760, Note_on_c, 0, 71, 0
2, 278760, Note_on_c, 0, 83, 83
2, 278760, Note_on_c, 0, 86, 83
2, 278760, Note_on_c, 0, 91, 83
2, 278880, Note_on_c, 0, 91, 0
2, 278880, Note_on_c, 0, 86, 0
2, 278880, Note_on_c, 0, 83, 0
2, 278880, Note_on_c, 0, 74, 83
2, 278880, Note_on_c, 0, 77, 83
2, 278880, Note_on_c, 0, 84, 83
2, 279000, Note_on_c, 0, 84, 0
2, 279000, Note_on_c, 0, 77, 0
2, 279000, Note_on_c, 0, 74, 0
2, 279000, Note_on_c, 0, 86, 83
2, 279000, Note_on_c, 0, 89, 83
2, 279000, Note_on_c, 0, 96, 83
2, 279120, Note_on_c, 0, 96, 0
2, 279120, Note_on_c, 0, 89, 0
2, 279120, Note_on_c, 0, 86, 0
2, 279120, Note_on_c, 0, 74, 83
2, 279120, Note_on_c, 0, 77, 83
2, 279120, Note_on_c, 0, 83, 83
2, 279240, Note_on_c, 0, 83, 0
2, 279240, Note_on_c, 0, 77, 0
2, 279240, Note_on_c, 0, 74, 0
2, 279240, Note_on_c, 0, 86, 83
2, 279240, Note_on_c, 0, 89, 83
2, 279240, Note_on_c, 0, 95, 83
2, 279360, Note_on_c, 0, 95, 0
2, 279360, Note_on_c, 0, 89, 0
2, 279360, Note_on_c, 0, 86, 0
2, 279360, Note_on_c, 0, 77, 96
2, 279360, Note_on_c, 0, 80, 96
2, 279360, Note_on_c, 0, 87, 96
2, 279480, Note_on_c, 0, 87, 0
2, 279480, Note_on_c, 0, 80, 0
2, 279480, Note_on_c, 0, 77, 0
2, 279480, Note_on_c, 0, 89, 96
2, 279480, Note_on_c, 0, 92, 96
2, 279480, Note_on_c, 0, 99, 96
2, 279600, Note_on_c, 0, 99, 0
2, 279600, Note_on_c, 0, 92, 0
2, 279600, Note_on_c, 0, 89, 0
2, 279600, Note_on_c, 0, 77, 96
2, 279600, Note_on_c, 0, 80, 96
2, 279600, Note_on_c, 0, 86, 96
2, 279720, Note_on_c, 0, 86, 0
2, 279720, Note_on_c, 0, 80, 0
2, 279720, Note_on_c, 0, 77, 0
2, 279720, Note_on_c, 0, 89, 96
2, 279720, Note_on_c, 0, 92, 96
2, 279720, Note_on_c, 0, 98, 96
2, 279840, Note_on_c, 0, 98, 0
2, 279840, Note_on_c, 0, 92, 0
2, 279840, Note_on_c, 0, 89, 0
2, 279840, Note_on_c, 0, 80, 96
2, 279840, Note_on_c, 0, 83, 96
2, 279840, Note_on_c, 0, 91, 96
2, 279960, Note_on_c, 0, 91, 0
2, 279960, Note_on_c, 0, 83, 0
2, 279960, Note_on_c, 0, 80, 0
2, 279960, Note_on_c, 0, 92, 96
2, 279960, Note_on_c, 0, 95, 96
2, 279960, Note_on_c, 0, 103, 96
2, 280080, Note_on_c, 0, 103, 0
2, 280080, Note_on_c, 0, 95, 0
2, 280080, Note_on_c, 0, 92, 0
2, 280080, Note_on_c, 0, 80, 96
2, 280080, Note_on_c, 0, 83, 96
2, 280080, Note_on_c, 0, 89, 96
2, 280200, Note_on_c, 0, 89, 0
2, 280200, Note_on_c, 0, 83, 0
2, 280200, Note_on_c, 0, 80, 0
2, 280200, Note_on_c, 0, 92, 96
2, 280200, Note_on_c, 0, 95, 96
2, 280200, Note_on_c, 0, 101, 96
2, 280320, Note_on_c, 0, 101, 0
2, 280320, Note_on_c, 0, 95, 0
2, 280320, Note_on_c, 0, 92, 0
2, 280320, Note_on_c, 0, 77, 96
2, 280320, Note_on_c, 0, 80, 96
2, 280320, Note_on_c, 0, 87, 96
2, 280440, Note_on_c, 0, 87, 0
2, 280440, Note_on_c, 0, 80, 0
2, 280440, Note_on_c, 0, 77, 0
2, 280440, Note_on_c, 0, 89, 96
2, 280440, Note_on_c, 0, 92, 96
2, 280440, Note_on_c, 0, 99, 96
2, 280560, Note_on_c, 0, 99, 0
2, 280560, Note_on_c, 0, 92, 0
2, 280560, Note_on_c, 0, 89, 0
2, 280560, Note_on_c, 0, 77, 96
2, 280560, Note_on_c, 0, 80, 96
2, 280560, Note_on_c, 0, 86, 96
2, 280680, Note_on_c, 0, 86, 0
2, 280680, Note_on_c, 0, 80, 0
2, 280680, Note_on_c, 0, 77, 0
2, 280680, Note_on_c, 0, 89, 96
2, 280680, Note_on_c, 0, 92, 96
2, 280680, Note_on_c, 0, 98, 96
2, 280800, Note_on_c, 0, 98, 0
2, 280800, Note_on_c, 0, 92, 0
2, 280800, Note_on_c, 0, 89, 0
2, 280800, Note_on_c, 0, 74, 96
2, 280800, Note_on_c, 0, 77, 96
2, 280800, Note_on_c, 0, 84, 96
2, 280920, Note_on_c, 0, 84, 0
2, 280920, Note_on_c, 0, 77, 0
2, 280920, Note_on_c, 0, 74, 0
2, 280920, Note_on_c, 0, 86, 96
2, 280920, Note_on_c, 0, 89, 96
2, 280920, Note_on_c, 0, 96, 96
2, 281040, Note_on_c, 0, 96, 0
2, 281040, Note_on_c, 0, 89, 0
2, 281040, Note_on_c, 0, 86, 0
2, 281040, Note_on_c, 0, 74, 96
2, 281040, Note_on_c, 0, 77, 96
2, 281040, Note_on_c, 0, 83, 96
2, 281160, Note_on_c, 0, 83, 0
2, 281160, Note_on_c, 0, 77, 0
2, 281160, Note_on_c, 0, 74, 0
2, 281160, Note_on_c, 0, 86, 96
2, 281160, Note_on_c, 0, 89, 96
2, 281160, Note_on_c, 0, 95, 96
2, 281280, Note_on_c, 0, 95, 0
2, 281280, Note_on_c, 0, 89, 0
2, 281280, Note_on_c, 0, 86, 0
2, 281280, Note_on_c, 0, 71, 83
2, 281280, Note_on_c, 0, 74, 83
2, 281280, Note_on_c, 0, 80, 83
2, 281400, Note_on_c, 0, 80, 0
2, 281400, Note_on_c, 0, 74, 0
2, 281400, Note_on_c, 0, 71, 0
2, 281400, Note_on_c, 0, 83, 83
2, 281400, Note_on_c, 0, 86, 83
2, 281400, Note_on_c, 0, 92, 83
2, 281520, Note_on_c, 0, 92, 0
2, 281520, Note_on_c, 0, 86, 0
2, 281520, Note_on_c, 0, 83, 0
2, 281520, Note_on_c, 0, 71, 83
2, 281520, Note_on_c, 0, 74, 83
2, 281520, Note_on_c, 0, 79, 83
2, 281640, Note_on_c, 0, 79, 0
2, 281640, Note_on_c, 0, 74, 0
2, 281640, Note_on_c, 0, 71, 0
2, 281640, Note_on_c, 0, 83, 83
2, 281640, Note_on_c, 0, 86, 83
2, 281640, Note_on_c, 0, 91, 83
2, 281760, Note_on_c, 0, 91, 0
2, 281760, Note_on_c, 0, 86, 0
2, 281760, Note_on_c, 0, 83, 0
2, 281760, Note_on_c, 0, 68, 83
2, 281760, Note_on_c, 0, 71, 83
2, 281760, Note_on_c, 0, 77, 83
2, 281880, Note_on_c, 0, 77, 0
2, 281880, Note_on_c, 0, 71, 0
2, 281880, Note_on_c, 0, 68, 0
2, 281880, Note_on_c, 0, 80, 83
2, 281880, Note_on_c, 0, 83, 83
2, 281880, Note_on_c, 0, 89, 83
2, 282000, Note_on_c, 0, 89, 0
2, 282000, Note_on_c, 0, 83, 0
2, 282000, Note_on_c, 0, 80, 0
2, 282000, Note_on_c, 0, 68, 83
2, 282000, Note_on_c, 0, 71, 83
2, 282000, Note_on_c, 0, 75, 83
2, 282120, Note_on_c, 0, 75, 0
2, 282120, Note_on_c, 0, 71, 0
2, 282120, Note_on_c, 0, 68, 0
2, 282120, Note_on_c, 0, 80, 83
2, 282120, Note_on_c, 0, 83, 83
2, 282120, Note_on_c, 0, 87, 83
2, 282240, Note_on_c, 0, 87, 0
2, 282240, Note_on_c, 0, 83, 0
2, 282240, Note_on_c, 0, 80, 0
2, 282240, Note_on_c, 0, 65, 83
2, 282240, Note_on_c, 0, 68, 83
2, 282240, Note_on_c, 0, 74, 83
2, 282360, Note_on_c, 0, 74, 0
2, 282360, Note_on_c, 0, 68, 0
2, 282360, Note_on_c, 0, 65, 0
2, 282360, Note_on_c, 0, 77, 83
2, 282360, Note_on_c, 0, 80, 83
2, 282360, Note_on_c, 0, 86, 83
2, 282480, Note_on_c, 0, 86, 0
2, 282480, Note_on_c, 0, 80, 0
2, 282480, Note_on_c, 0, 77, 0
2, 282480, Note_on_c, 0, 65, 83
2, 282480, Note_on_c, 0, 68, 83
2, 282480, Note_on_c, 0, 72, 83
2, 282600, Note_on_c, 0, 72, 0
2, 282600, Note_on_c, 0, 68, 0
2, 282600, Note_on_c, 0, 65, 0
2, 282600, Note_on_c, 0, 77, 83
2, 282600, Note_on_c, 0, 80, 83
2, 282600, Note_on_c, 0, 84, 83
2, 282720, Note_on_c, 0, 84, 0
2, 282720, Note_on_c, 0, 80, 0
2, 282720, Note_on_c, 0, 77, 0
2, 282720, Note_on_c, 0, 62, 83
2, 282720, Note_on_c, 0, 65, 83
2, 282720, Note_on_c, 0, 71, 83
2, 282840, Note_on_c, 0, 71, 0
2, 282840, Note_on_c, 0, 65, 0
2, 282840, Note_on_c, 0, 62, 0
2, 282840, Note_on_c, 0, 74, 83
2, 282840, Note_on_c, 0, 77, 83
2, 282840, Note_on_c, 0, 83, 83
2, 282960, Note_on_c, 0, 83, 0
2, 282960, Note_on_c, 0, 77, 0
2, 282960, Note_on_c, 0, 74, 0
2, 282960, Note_on_c, 0, 62, 83
2, 282960, Note_on_c, 0, 65, 83
2, 282960, Note_on_c, 0, 70, 83
2, 283080, Note_on_c, 0, 70, 0
2, 283080, Note_on_c, 0, 65, 0
2, 283080, Note_on_c, 0, 62, 0
2, 283080, Note_on_c, 0, 74, 83
2, 283080, Note_on_c, 0, 77, 83
2, 283080, Note_on_c, 0, 82, 83
2, 283200, Note_on_c, 0, 82, 0
2, 283200, Note_on_c, 0, 77, 0
2, 283200, Note_on_c, 0, 74, 0
2, 283200, Note_on_c, 0, 62, 70
2, 283200, Note_on_c, 0, 65, 70
2, 283200, Note_on_c, 0, 69, 70
2, 283320, Note_on_c, 0, 69, 0
2, 283320, Note_on_c, 0, 65, 0
2, 283320, Note_on_c, 0, 62, 0
2, 283320, Note_on_c, 0, 74, 70
2, 283320, Note_on_c, 0, 77, 70
2, 283320, Note_on_c, 0, 81, 70
2, 283440, Note_on_c, 0, 81, 0
2, 283440, Note_on_c, 0, 77, 0
2, 283440, Note_on_c, 0, 74, 0
2, 283440, Note_on_c, 0, 62, 70
2, 283440, Note_on_c, 0, 65, 70
2, 283440, Note_on_c, 0, 68, 70
2, 283560, Note_on_c, 0, 68, 0
2, 283560, Note_on_c, 0, 65, 0
2, 283560, Note_on_c, 0, 62, 0
2, 283560, Note_on_c, 0, 74, 70
2, 283560, Note_on_c, 0, 77, 70
2, 283560, Note_on_c, 0, 80, 70
2, 283680, Note_on_c, 0, 80, 0
2, 283680, Note_on_c, 0, 77, 0
2, 283680, Note_on_c, 0, 74, 0
2, 283800, Note_on_c, 0, 79, 96
2, 283920, Note_on_c, 0, 79, 0
2, 283920, Note_on_c, 0, 74, 70
2, 284040, Note_on_c, 0, 74, 0
2, 284040, Note_on_c, 0, 71, 70
2, 284160, Note_on_c, 0, 71, 0
2, 284280, Note_on_c, 0, 80, 96
2, 284400, Note_on_c, 0, 80, 0
2, 284400, Note_on_c, 0, 75, 70
2, 284520, Note_on_c, 0, 75, 0
2, 284520, Note_on_c, 0, 72, 70
2, 284640, Note_on_c, 0, 72, 0
2, 284760, Note_on_c, 0, 79, 96
2, 284880, Note_on_c, 0, 79, 0
2, 284880, Note_on_c, 0, 75, 70
2, 285000, Note_on_c, 0, 75, 0
2, 285000, Note_on_c, 0, 72, 70
2, 285120, Note_on_c, 0, 72, 0
2, 285240, Note_on_c, 0, 69, 96
2, 285360, Note_on_c, 0, 69, 0
2, 285360, Note_on_c, 0, 67, 70
2, 285480, Note_on_c, 0, 67, 0
2, 285480, Note_on_c, 0, 63, 70
2, 285600, Note_on_c, 0, 63, 0
2, 285600, Note_on_c, 0, 71, 96
2, 285720, Note_on_c, 0, 71, 0
2, 285720, Note_on_c, 0, 63, 70
2, 285720, Note_on_c, 0, 67, 70
2, 285840, Note_on_c, 0, 67, 0
2, 285840, Note_on_c, 0, 63, 0
2, 285840, Note_on_c, 0, 72, 96
2, 285960, Note_on_c, 0, 72, 0
2, 285960, Note_on_c, 0, 63, 70
2, 285960, Note_on_c, 0, 67, 70
2, 286080, Note_on_c, 0, 67, 0
2, 286080, Note_on_c, 0, 63, 0
2, 286080, Note_on_c, 0, 75, 96
2, 286200, Note_on_c, 0, 75, 0
2, 286200, Note_on_c, 0, 71, 70
2, 286320, Note_on_c, 0, 71, 0
2, 286320, Note_on_c, 0, 65, 70
2, 286440, Note_on_c, 0, 65, 0
2, 286440, Note_on_c, 0, 71, 70
2, 286560, Note_on_c, 0, 71, 0
2, 286560, Control_c, 0, 64, 127
2, 286560, Note_on_c, 0, 74, 70
2, 286680, Note_on_c, 0, 74, 0
2, 286680, Note_on_c, 0, 77, 70
2, 286800, Note_on_c, 0, 77, 0
2, 286800, Note_on_c, 0, 71, 70
2, 286800, Note_on_c, 0, 83, 70
2, 286920, Note_on_c, 0, 83, 0
2, 286920, Note_on_c, 0, 71, 0
2, 286920, Note_on_c, 0, 74, 70
2, 286920, Note_on_c, 0, 86, 70
2, 287040, Note_on_c, 0, 86, 0
2, 287040, Note_on_c, 0, 74, 0
2, 287040, Note_on_c, 0, 77, 70
2, 287040, Note_on_c, 0, 89, 70
2, 287160, Note_on_c, 0, 89, 0
2, 287160, Note_on_c, 0, 77, 0
2, 287160, Note_on_c, 0, 74, 70
2, 287160, Note_on_c, 0, 86, 70
2, 287280, Note_on_c, 0, 86, 0
2, 287280, Note_on_c, 0, 74, 0
2, 287280, Note_on_c, 0, 71, 70
2, 287280, Note_on_c, 0, 83, 70
2, 287400, Note_on_c, 0, 83, 0
2, 287400, Note_on_c, 0, 71, 0
2, 287400, Control_c, 0, 64, 0
2, 287400, Note_on_c, 0, 77, 70
2, 287520, Note_on_c, 0, 77, 0
2, 287640, Note_on_c, 0, 79, 96
2, 287760, Note_on_c, 0, 79, 0
2, 287760, Note_on_c, 0, 74, 70
2, 287880, Note_on_c, 0, 74, 0
2, 287880, Note_on_c, 0, 71, 70
2, 288000, Note_on_c, 0, 71, 0
2, 288120, Note_on_c, 0, 80, 96
2, 288240, Note_on_c, 0, 80, 0
2, 288240, Note_on_c, 0, 75, 70
2, 288360, Note_on_c, 0, 75, 0
2, 288360, Note_on_c, 0, 72, 70
2, 288480, Note_on_c, 0, 72, 0
2, 288600, Note_on_c, 0, 79, 96
2, 288720, Note_on_c, 0, 79, 0
2, 288720, Note_on_c, 0, 75, 70
2, 288840, Note_on_c, 0, 75, 0
2, 288840, Note_on_c, 0, 72, 70
2, 288960, Note_on_c, 0, 72, 0
2, 289080, Note_on_c, 0, 69, 96
2, 289200, Note_on_c, 0, 69, 0
2, 289200, Note_on_c, 0, 67, 70
2, 289320, Note_on_c, 0, 67, 0
2, 289320, Note_on_c, 0, 63, 70
2, 289440, Note_on_c, 0, 63, 0
2, 289440, Note_on_c, 0, 71, 96
2, 289560, Note_on_c, 0, 71, 0
2, 289560, Note_on_c, 0, 63, 70
2, 289560, Note_on_c, 0, 67, 70
2, 289680, Note_on_c, 0, 67, 0
2, 289680, Note_on_c, 0, 63, 0
2, 289680, Note_on_c, 0, 72, 96
2, 289800, Note_on_c, 0, 72, 0
2, 289800, Note_on_c, 0, 63, 70
2, 289800, Note_on_c, 0, 67, 70
2, 289920, Note_on_c, 0, 67, 0
2, 289920, Note_on_c, 0, 63, 0
2, 289920, Note_on_c, 0, 75, 96
2, 290040, Note_on_c, 0, 75, 0
2, 290040, Note_on_c, 0, 71, 70
2, 290160, Note_on_c, 0, 71, 0
2, 290160, Note_on_c, 0, 65, 70
2, 290280, Note_on_c, 0, 65, 0
2, 290280, Note_on_c, 0, 71, 70
2, 290400, Note_on_c, 0, 71, 0
2, 290400, Control_c, 0, 64, 127
2, 290400, Note_on_c, 0, 74, 70
2, 290520, Note_on_c, 0, 74, 0
2, 290520, Note_on_c, 0, 77, 70
2, 290640, Note_on_c, 0, 77, 0
2, 290640, Note_on_c, 0, 71, 70
2, 290640, Note_on_c, 0, 83, 70
2, 290760, Note_on_c, 0, 83, 0
2, 290760, Note_on_c, 0, 71, 0
2, 290760, Note_on_c, 0, 74, 70
2, 290760, Note_on_c, 0, 86, 70
2, 290880, Note_on_c, 0, 86, 0
2, 290880, Note_on_c, 0, 74, 0
2, 290880, Note_on_c, 0, 77, 70
2, 290880, Note_on_c, 0, 89, 70
2, 291000, Note_on_c, 0, 89, 0
2, 291000, Note_on_c, 0, 77, 0
2, 291000, Note_on_c, 0, 74, 70
2, 291000, Note_on_c, 0, 86, 70
2, 291120, Note_on_c, 0, 86, 0
2, 291120, Note_on_c, 0, 74, 0
2, 291120, Note_on_c, 0, 71, 70
2, 291120, Note_on_c, 0, 83, 70
2, 291240, Note_on_c, 0, 83, 0
2, 291240, Note_on_c, 0, 71, 0
2, 291240, Control_c, 0, 64, 0
2, 291240, Note_on_c, 0, 77, 70
2, 291360, Note_on_c, 0, 77, 0
2, 291480, Note_on_c, 0, 79, 96
2, 291600, Note_on_c, 0, 79, 0
2, 291600, Note_on_c, 0, 74, 70
2, 291720, Note_on_c, 0, 74, 0
2, 291720, Note_on_c, 0, 71, 70
2, 291840, Note_on_c, 0, 71, 0
2, 291960, Note_on_c, 0, 80, 96
2, 292080, Note_on_c, 0, 80, 0
2, 292080, Note_on_c, 0, 75, 70
2, 292200, Note_on_c, 0, 75, 0
2, 292200, Note_on_c, 0, 72, 70
2, 292320, Note_on_c, 0, 72, 0
2, 292440, Note_on_c, 0, 79, 96
2, 292560, Note_on_c, 0, 79, 0
2, 292560, Note_on_c, 0, 75, 70
2, 292680, Note_on_c, 0, 75, 0
2, 292680, Note_on_c, 0, 72, 70
2, 292800, Note_on_c, 0, 72, 0
2, 292920, Note_on_c, 0, 69, 96
2, 293040, Note_on_c, 0, 69, 0
2, 293040, Note_on_c, 0, 67, 70
2, 293160, Note_on_c, 0, 67, 0
2, 293160, Note_on_c, 0, 63, 70
2, 293280, Note_on_c, 0, 63, 0
2, 293280, Note_on_c, 0, 71, 96
2, 293400, Note_on_c, 0, 71, 0
2, 293400, Note_on_c, 0, 63, 70
2, 293400, Note_on_c, 0, 67, 70
2, 293520, Note_on_c, 0, 67, 0
2, 293520, Note_on_c, 0, 63, 0
2, 293520, Note_on_c, 0, 72, 96
2, 293640, Note_on_c, 0, 72, 0
2, 293640, Note_on_c, 0, 63, 70
2, 293640, Note_on_c, 0, 67, 70
2, 293760, Note_on_c, 0, 67, 0
2, 293760, Note_on_c, 0, 63, 0
2, 293760, Note_on_c, 0, 74, 96
2, 293880, Note_on_c, 0, 74, 0
2, 293880, Note_on_c, 0, 69, 70
2, 294000, Note_on_c, 0, 69, 0
2, 294000, Note_on_c, 0, 63, 70
2, 294120, Note_on_c, 0, 63, 0
2, 294120, Note_on_c, 0, 69, 70
2, 294240, Note_on_c, 0, 69, 0
2, 294240, Control_c, 0, 64, 127
2, 294240, Note_on_c, 0, 72, 96
2, 294360, Note_on_c, 0, 72, 0
2, 294360, Note_on_c, 0, 75, 70
2, 294480, Note_on_c, 0, 75, 0
2, 294480, Note_on_c, 0, 69, 70
2, 294480, Note_on_c, 0, 81, 70
2, 294600, Note_on_c, 0, 81, 0
2, 294600, Note_on_c, 0, 69, 0
2, 294600, Note_on_c, 0, 72, 70
2, 294600, Note_on_c, 0, 84, 70
2, 294720, Note_on_c, 0, 84, 0
2, 294720, Note_on_c, 0, 72, 0
2, 294720, Note_on_c, 0, 75, 70
2, 294720, Note_on_c, 0, 87, 70
2, 294840, Note_on_c, 0, 87, 0
2, 294840, Note_on_c, 0, 75, 0
2, 294840, Note_on_c, 0, 72, 70
2, 294840, Note_on_c, 0, 84, 70
2, 294960, Note_on_c, 0, 84, 0
2, 294960, Note_on_c, 0, 72, 0
2, 294960, Note_on_c, 0, 69, 70
2, 294960, Note_on_c, 0, 81, 70
2, 295080, Note_on_c, 0, 81, 0
2, 295080, Note_on_c, 0, 69, 0
2, 295080, Control_c, 0, 64, 0
2, 295080, Note_on_c, 0, 75, 70
2, 295200, Note_on_c, 0, 75, 0
2, 295320, Note_on_c, 0, 77, 96
2, 295440, Note_on_c, 0, 77, 0
2, 295440, Note_on_c, 0, 75, 70
2, 295560, Note_on_c, 0, 75, 0
2, 295560, Note_on_c, 0, 72, 70
2, 295680, Note_on_c, 0, 72, 0
2, 295800, Note_on_c, 0, 79, 96
2, 295920, Note_on_c, 0, 79, 0
2, 295920, Note_on_c, 0, 74, 70
2, 296040, Note_on_c, 0, 74, 0
2, 296040, Note_on_c, 0, 70, 70
2, 296160, Note_on_c, 0, 70, 0
2, 296280, Note_on_c, 0, 77, 96
2, 296400, Note_on_c, 0, 77, 0
2, 296400, Note_on_c, 0, 74, 70
2, 296520, Note_on_c, 0, 74, 0
2, 296520, Note_on_c, 0, 70, 70
2, 296640, Note_on_c, 0, 70, 0
2, 296760, Note_on_c, 0, 67, 96
2, 296880, Note_on_c, 0, 67, 0
2, 296880, Note_on_c, 0, 65, 70
2, 297000, Note_on_c, 0, 65, 0
2, 297000, Note_on_c, 0, 62, 70
2, 297120, Note_on_c, 0, 62, 0
2, 297120, Note_on_c, 0, 69, 96
2, 297240, Note_on_c, 0, 69, 0
2, 297240, Note_on_c, 0, 62, 70
2, 297240, Note_on_c, 0, 65, 70
2, 297360, Note_on_c, 0, 65, 0
2, 297360, Note_on_c, 0, 62, 0
2, 297360, Note_on_c, 0, 70, 96
2, 297480, Note_on_c, 0, 70, 0
2, 297480, Note_on_c, 0, 62, 70
2, 297480, Note_on_c, 0, 65, 70
2, 297600, Note_on_c, 0, 65, 0
2, 297600, Note_on_c, 0, 62, 0
2, 297600, Note_on_c, 0, 74, 96
2, 297720, Note_on_c, 0, 74, 0
2, 297720, Note_on_c, 0, 69, 70
2, 297840, Note_on_c, 0, 69, 0
2, 297840, Note_on_c, 0, 63, 70
2, 297960, Note_on_c, 0, 63, 0
2, 297960, Note_on_c, 0, 69, 70
2, 298080, Note_on_c, 0, 69, 0
2, 298080, Control_c, 0, 64, 127
2, 298080, Note_on_c, 0, 72, 96
2, 298200, Note_on_c, 0, 72, 0
2, 298200, Note_on_c, 0, 75, 70
2, 298320, Note_on_c, 0, 75, 0
2, 298320, Note_on_c, 0, 69, 70
2, 298320, Note_on_c, 0, 81, 70
2, 298440, Note_on_c, 0, 81, 0
2, 298440, Note_on_c, 0, 69, 0
2, 298440, Note_on_c, 0, 72, 70
2, 298440, Note_on_c, 0, 84, 70
2, 298560, Note_on_c, 0, 84, 0
2, 298560, Note_on_c, 0, 72, 0
2, 298560, Note_on_c, 0, 75, 70
2, 298560, Note_on_c, 0, 87, 70
2, 298680, Note_on_c, 0, 87, 0
2, 298680, Note_on_c, 0, 75, 0
2, 298680, Note_on_c, 0, 72, 70
2, 298680, Note_on_c, 0, 84, 70
2, 298800, Note_on_c, 0, 84, 0
2, 298800, Note_on_c, 0, 72, 0
2, 298800, Note_on_c, 0, 69, 70
2, 298800, Note_on_c, 0, 81, 70
2, 298920, Note_on_c, 0, 81, 0
2, 298920, Note_on_c, 0, 69, 0
2, 298920, Control_c, 0, 64, 0
2, 298920, Note_on_c, 0, 75, 70
2, 299040, Note_on_c, 0, 75, 0
2, 299160, Note_on_c, 0, 77, 96
2, 299280, Note_on_c, 0, 77, 0
2, 299280, Note_on_c, 0, 75, 70
2, 299400, Note_on_c, 0, 75, 0
2, 299400, Note_on_c, 0, 72, 70
2, 299520, Note_on_c, 0, 72, 0
2, 299640, Note_on_c, 0, 79, 96
2, 299760, Note_on_c, 0, 79, 0
2, 299760, Note_on_c, 0, 74, 70
2, 299880, Note_on_c, 0, 74, 0
2, 299880, Note_on_c, 0, 70, 70
2, 300000, Note_on_c, 0, 70, 0
2, 300120, Note_on_c, 0, 77, 96
2, 300240, Note_on_c, 0, 77, 0
2, 300240, Note_on_c, 0, 74, 70
2, 300360, Note_on_c, 0, 74, 0
2, 300360, Note_on_c, 0, 70, 70
2, 300480, Note_on_c, 0, 70, 0
2, 300600, Note_on_c, 0, 62, 70
2, 300600, Note_on_c, 0, 70, 70
2, 300720, Note_on_c, 0, 70, 0
2, 300720, Note_on_c, 0, 62, 0
2, 300840, Note_on_c, 0, 70, 70
2, 300840, Note_on_c, 0, 74, 70
2, 300960, Note_on_c, 0, 74, 0
2, 300960, Note_on_c, 0, 70, 0
2, 301080, Note_on_c, 0, 77, 96
2, 301200, Note_on_c, 0, 77, 0
2, 301200, Note_on_c, 0, 74, 70
2, 301320, Note_on_c, 0, 74, 0
2, 301320, Note_on_c, 0, 70, 70
2, 301440, Note_on_c, 0, 70, 0
2, 301560, Note_on_c, 0, 79, 96
2, 301680, Note_on_c, 0, 79, 0
2, 301680, Note_on_c, 0, 74, 70
2, 301800, Note_on_c, 0, 74, 0
2, 301800, Note_on_c, 0, 70, 70
2, 301920, Note_on_c, 0, 70, 0
2, 302040, Note_on_c, 0, 77, 96
2, 302160, Note_on_c, 0, 77, 0
2, 302160, Note_on_c, 0, 74, 70
2, 302280, Note_on_c, 0, 74, 0
2, 302280, Note_on_c, 0, 70, 70
2, 302400, Note_on_c, 0, 70, 0
2, 302520, Note_on_c, 0, 62, 70
2, 302520, Note_on_c, 0, 70, 70
2, 302640, Note_on_c, 0, 70, 0
2, 302640, Note_on_c, 0, 62, 0
2, 302760, Note_on_c, 0, 70, 70
2, 302760, Note_on_c, 0, 74, 70
2, 302880, Note_on_c, 0, 74, 0
2, 302880, Note_on_c, 0, 70, 0
2, 303000, Note_on_c, 0, 77, 96
2, 303120, Note_on_c, 0, 77, 0
2, 303120, Note_on_c, 0, 74, 70
2, 303240, Note_on_c, 0, 74, 0
2, 303240, Note_on_c, 0, 70, 70
2, 303360, Note_on_c, 0, 70, 0
2, 303480, Note_on_c, 0, 80, 96
2, 303600, Note_on_c, 0, 80, 0
2, 303600, Note_on_c, 0, 74, 70
2, 303720, Note_on_c, 0, 74, 0
2, 303720, Note_on_c, 0, 71, 70
2, 303840, Note_on_c, 0, 71, 0
2, 303960, Note_on_c, 0, 79, 96
2, 304080, Note_on_c, 0, 79, 0
2, 304080, Note_on_c, 0, 74, 70
2, 304200, Note_on_c, 0, 74, 0
2, 304200, Note_on_c, 0, 71, 70
2, 304320, Note_on_c, 0, 71, 0
2, 304440, Note_on_c, 0, 62, 70
2, 304440, Note_on_c, 0, 71, 70
2, 304560, Note_on_c, 0, 71, 0
2, 304560, Note_on_c, 0, 62, 0
2, 304680, Note_on_c, 0, 71, 70
2, 304680, Note_on_c, 0, 74, 70
2, 304800, Note_on_c, 0, 74, 0
2, 304800, Note_on_c, 0, 71, 0
2, 304920, Note_on_c, 0, 79, 96
2, 305040, Note_on_c, 0, 79, 0
2, 305040, Note_on_c, 0, 74, 70
2, 305160, Note_on_c, 0, 74, 0
2, 305160, Note_on_c, 0, 71, 70
2, 305280, Note_on_c, 0, 71, 0
2, 305400, Note_on_c, 0, 82, 96
2, 305520, Note_on_c, 0, 82, 0
2, 305520, Note_on_c, 0, 76, 70
2, 305640, Note_on_c, 0, 76, 0
2, 305640, Note_on_c, 0, 73, 70
2, 305760, Note_on_c, 0, 73, 0
2, 305880, Note_on_c, 0, 81, 96
2, 306000, Note_on_c, 0, 81, 0
2, 306000, Note_on_c, 0, 76, 70
2, 306120, Note_on_c, 0, 76, 0
2, 306120, Note_on_c, 0, 73, 70
2, 306240, Note_on_c, 0, 73, 0
2, 306360, Note_on_c, 0, 64, 70
2, 306360, Note_on_c, 0, 67, 70
2, 306360, Note_on_c, 0, 73, 70
2, 306600, Note_on_c, 0, 73, 0
2, 306600, Note_on_c, 0, 67, 0
2, 306600, Note_on_c, 0, 64, 0
2, 306600, Note_on_c, 0, 67, 70
2, 306600, Note_on_c, 0, 73, 70
2, 306600, Note_on_c, 0, 76, 70
2, 306840, Note_on_c, 0, 76, 0
2, 306840, Note_on_c, 0, 73, 0
2, 306840, Note_on_c, 0, 67, 0
2, 306840, Note_on_c, 0, 81, 96
2, 306960, Note_on_c, 0, 81, 0
2, 306960, Note_on_c, 0, 76, 70
2, 307080, Note_on_c, 0, 76, 0
2, 307080, Note_on_c, 0, 73, 70
2, 307200, Note_on_c, 0, 73, 0
2, 307320, Note_on_c, 0, 82, 109
2, 307440, Note_on_c, 0, 82, 0
2, 307440, Note_on_c, 0, 77, 83
2, 307560, Note_on_c, 0, 77, 0
2, 307560, Note_on_c, 0, 74, 83
2, 307680, Note_on_c, 0, 74, 0
2, 307800, Note_on_c, 0, 81, 96
2, 307920, Note_on_c, 0, 81, 0
2, 307920, Note_on_c, 0, 77, 70
2, 308040, Note_on_c, 0, 77, 0
2, 308040, Note_on_c, 0, 74, 70
2, 308160, Note_on_c, 0, 74, 0
2, 308280, Note_on_c, 0, 71, 70
2, 308400, Note_on_c, 0, 71, 0
2, 308400, Note_on_c, 0, 69, 70
2, 308520, Note_on_c, 0, 69, 0
2, 308520, Note_on_c, 0, 65, 70
2, 308640, Note_on_c, 0, 65, 0
2, 308640, Note_on_c, 0, 73, 96
2, 308760, Note_on_c, 0, 73, 0
2, 308760, Note_on_c, 0, 65, 70
2, 308760, Note_on_c, 0, 69, 70
2, 308880, Note_on_c, 0, 69, 0
2, 308880, Note_on_c, 0, 65, 0
2, 308880, Note_on_c, 0, 74, 96
2, 309000, Note_on_c, 0, 74, 0
2, 309000, Note_on_c, 0, 65, 70
2, 309000, Note_on_c, 0, 69, 70
2, 309120, Note_on_c, 0, 69, 0
2, 309120, Note_on_c, 0, 65, 0
2, 309120, Note_on_c, 0, 77, 96
2, 309240, Note_on_c, 0, 77, 0
2, 309240, Note_on_c, 0, 73, 70
2, 309360, Note_on_c, 0, 73, 0
2, 309360, Note_on_c, 0, 67, 70
2, 309480, Note_on_c, 0, 67, 0
2, 309480, Note_on_c, 0, 73, 70
2, 309600, Note_on_c, 0, 73, 0
2, 309600, Control_c, 0, 64, 127
2, 309600, Note_on_c, 0, 76, 96
2, 309720, Note_on_c, 0, 76, 0
2, 309720, Note_on_c, 0, 79, 70
2, 309840, Note_on_c, 0, 79, 0
2, 309840, Note_on_c, 0, 73, 70
2, 309840, Note_on_c, 0, 85, 70
2, 309960, Note_on_c, 0, 85, 0
2, 309960, Note_on_c, 0, 73, 0
2, 309960, Note_on_c, 0, 76, 70
2, 309960, Note_on_c, 0, 88, 70
2, 310080, Note_on_c, 0, 88, 0
2, 310080, Note_on_c, 0, 76, 0
2, 310080, Note_on_c, 0, 79, 70
2, 310080, Note_on_c, 0, 91, 70
2, 310200, Note_on_c, 0, 91, 0
2, 310200, Note_on_c, 0, 79, 0
2, 310200, Note_on_c, 0, 76, 70
2, 310200, Note_on_c, 0, 88, 70
2, 310320, Note_on_c, 0, 88, 0
2, 310320, Note_on_c, 0, 76, 0
2, 310320, Note_on_c, 0, 73, 70
2, 310320, Note_on_c, 0, 85, 70
2, 310440, Note_on_c, 0, 85, 0
2, 310440, Note_on_c, 0, 73, 0
2, 310440, Control_c, 0, 64, 0
2, 310440, Note_on_c, 0, 79, 70
2, 310560, Note_on_c, 0, 79, 0
2, 310680, Note_on_c, 0, 81, 96
2, 310800, Note_on_c, 0, 81, 0
2, 310800, Note_on_c, 0, 76, 70
2, 310920, Note_on_c, 0, 76, 0
2, 310920, Note_on_c, 0, 73, 70
2, 311040, Note_on_c, 0, 73, 0
2, 311160, Note_on_c, 0, 82, 109
2, 311280, Note_on_c, 0, 82, 0
2, 311280, Note_on_c, 0, 77, 83
2, 311400, Note_on_c, 0, 77, 0
2, 311400, Note_on_c, 0, 74, 83
2, 311520, Note_on_c, 0, 74, 0
2, 311640, Note_on_c, 0, 81, 96
2, 311760, Note_on_c, 0, 81, 0
2, 311760, Note_on_c, 0, 77, 70
2, 311880, Note_on_c, 0, 77, 0
2, 311880, Note_on_c, 0, 74, 70
2, 312000, Note_on_c, 0, 74, 0
2, 312120, Note_on_c, 0, 71, 70
2, 312240, Note_on_c, 0, 71, 0
2, 312240, Note_on_c, 0, 69, 70
2, 312360, Note_on_c, 0, 69, 0
2, 312360, Note_on_c, 0, 65, 70
2, 312480, Note_on_c, 0, 65, 0
2, 312480, Note_on_c, 0, 73, 96
2, 312600, Note_on_c, 0, 73, 0
2, 312600, Note_on_c, 0, 65, 70
2, 312600, Note_on_c, 0, 69, 70
2, 312720, Note_on_c, 0, 69, 0
2, 312720, Note_on_c, 0, 65, 0
2, 312720, Note_on_c, 0, 74, 96
2, 312840, Note_on_c, 0, 74, 0
2, 312840, Note_on_c, 0, 65, 70
2, 312840, Note_on_c, 0, 69, 70
2, 312960, Note_on_c, 0, 69, 0
2, 312960, Note_on_c, 0, 65, 0
2, 312960, Control_c, 0, 64, 127
2, 312960, Note_on_c, 0, 76, 96
2, 313080, Note_on_c, 0, 76, 0
2, 313080, Note_on_c, 0, 71, 70
2, 313200, Note_on_c, 0, 71, 0
2, 313200, Note_on_c, 0, 65, 70
2, 313320, Note_on_c, 0, 65, 0
2, 313320, Control_c, 0, 64, 0
2, 313320, Note_on_c, 0, 71, 70
2, 313440, Note_on_c, 0, 71, 0
2, 313440, Control_c, 0, 64, 127
2, 313440, Note_on_c, 0, 74, 96
2, 313560, Note_on_c, 0, 74, 0
2, 313560, Note_on_c, 0, 77, 70
2, 313680, Note_on_c, 0, 77, 0
2, 313680, Note_on_c, 0, 71, 70
2, 313680, Note_on_c, 0, 83, 70
2, 313800, Note_on_c, 0, 83, 0
2, 313800, Note_on_c, 0, 71, 0
2, 313800, Note_on_c, 0, 74, 70
2, 313800, Note_on_c, 0, 86, 70
2, 313920, Note_on_c, 0, 86, 0
2, 313920, Note_on_c, 0, 74, 0
2, 313920, Note_on_c, 0, 77, 70
2, 313920, Note_on_c, 0, 89, 70
2, 314040, Note_on_c, 0, 89, 0
2, 314040, Note_on_c, 0, 77, 0
2, 314040, Note_on_c, 0, 74, 70
2, 314040, Note_on_c, 0, 86, 70
2, 314160, Note_on_c, 0, 86, 0
2, 314160, Note_on_c, 0, 74, 0
2, 314160, Note_on_c, 0, 71, 70
2, 314160, Note_on_c, 0, 83, 70
2, 314280, Note_on_c, 0, 83, 0
2, 314280, Note_on_c, 0, 71, 0
2, 314280, Control_c, 0, 64, 0
2, 314280, Note_on_c, 0, 77, 70
2, 314400, Note_on_c, 0, 77, 0
2, 314520, Note_on_c, 0, 79, 96
2, 314640, Note_on_c, 0, 79, 0
2, 314640, Note_on_c, 0, 77, 70
2, 314760, Note_on_c, 0, 77, 0
2, 314760, Note_on_c, 0, 74, 70
2, 314880, Note_on_c, 0, 74, 0
2, 315000, Note_on_c, 0, 81, 96
2, 315120, Note_on_c, 0, 81, 0
2, 315120, Note_on_c, 0, 76, 70
2, 315240, Note_on_c, 0, 76, 0
2, 315240, Note_on_c, 0, 72, 70
2, 315360, Note_on_c, 0, 72, 0
2, 315480, Note_on_c, 0, 79, 96
2, 315600, Note_on_c, 0, 79, 0
2, 315600, Note_on_c, 0, 76, 70
2, 315720, Note_on_c, 0, 76, 0
2, 315720, Note_on_c, 0, 72, 70
2, 315840, Note_on_c, 0, 72, 0
2, 315960, Note_on_c, 0, 69, 96
2, 316080, Note_on_c, 0, 69, 0
2, 316080, Note_on_c, 0, 67, 70
2, 316200, Note_on_c, 0, 67, 0
2, 316200, Note_on_c, 0, 64, 70
2, 316320, Note_on_c, 0, 64, 0
2, 316320, Note_on_c, 0, 71, 96
2, 316440, Note_on_c, 0, 71, 0
2, 316440, Note_on_c, 0, 64, 70
2, 316440, Note_on_c, 0, 67, 70
2, 316560, Note_on_c, 0, 67, 0
2, 316560, Note_on_c, 0, 64, 0
2, 316560, Note_on_c, 0, 72, 96
2, 316680, Note_on_c, 0, 72, 0
2, 316680, Note_on_c, 0, 64, 70
2, 316680, Note_on_c, 0, 67, 70
2, 316800, Note_on_c, 0, 67, 0
2, 316800, Note_on_c, 0, 64, 0
2, 316800, Control_c, 0, 64, 127
2, 316800, Note_on_c, 0, 76, 96
2, 316920, Note_on_c, 0, 76, 0
2, 316920, Note_on_c, 0, 71, 70
2, 317040, Note_on_c, 0, 71, 0
2, 317040, Note_on_c, 0, 65, 70
2, 317160, Note_on_c, 0, 65, 0
2, 317160, Control_c, 0, 64, 0
2, 317160, Note_on_c, 0, 71, 70
2, 317280, Note_on_c, 0, 71, 0
2, 317280, Control_c, 0, 64, 127
2, 317280, Note_on_c, 0, 74, 96
2, 317400, Note_on_c, 0, 74, 0
2, 317400, Note_on_c, 0, 77, 70
2, 317520, Note_on_c, 0, 77, 0
2, 317520, Note_on_c, 0, 71, 70
2, 317520, Note_on_c, 0, 83, 70
2, 317640, Note_on_c, 0, 83, 0
2, 317640, Note_on_c, 0, 71, 0
2, 317640, Note_on_c, 0, 74, 70
2, 317640, Note_on_c, 0, 86, 70
2, 317760, Note_on_c, 0, 86, 0
2, 317760, Note_on_c, 0, 74, 0
2, 317760, Note_on_c, 0, 77, 70
2, 317760, Note_on_c, 0, 89, 70
2, 317880, Note_on_c, 0, 89, 0
2, 317880, Note_on_c, 0, 77, 0
2, 317880, Note_on_c, 0, 74, 70
2, 317880, Note_on_c, 0, 86, 70
2, 318000, Note_on_c, 0, 86, 0
2, 318000, Note_on_c, 0, 74, 0
2, 318000, Note_on_c, 0, 71, 70
2, 318000, Note_on_c, 0, 83, 70
2, 318120, Note_on_c, 0, 83, 0
2, 318120, Note_on_c, 0, 71, 0
2, 318120, Control_c, 0, 64, 0
2, 318120, Note_on_c, 0, 77, 70
2, 318240, Note_on_c, 0, 77, 0
2, 318360, Note_on_c, 0, 79, 96
2, 318480, Note_on_c, 0, 79, 0
2, 318480, Note_on_c, 0, 77, 70
2, 318600, Note_on_c, 0, 77, 0
2, 318600, Note_on_c, 0, 74, 70
2, 318720, Note_on_c, 0, 74, 0
2, 318840, Note_on_c, 0, 81, 96
2, 318960, Note_on_c, 0, 81, 0
2, 318960, Note_on_c, 0, 76, 70
2, 319080, Note_on_c, 0, 76, 0
2, 319080, Note_on_c, 0, 72, 70
2, 319200, Note_on_c, 0, 72, 0
2, 319320, Note_on_c, 0, 79, 96
2, 319440, Note_on_c, 0, 79, 0
2, 319440, Note_on_c, 0, 76, 70
2, 319560, Note_on_c, 0, 76, 0
2, 319560, Note_on_c, 0, 72, 70
2, 319680, Note_on_c, 0, 72, 0
2, 319800, Note_on_c, 0, 64, 70
2, 319800, Note_on_c, 0, 72, 70
2, 320040, Note_on_c, 0, 72, 0
2, 320040, Note_on_c, 0, 64, 0
2, 320040, Note_on_c, 0, 72, 70
2, 320040, Note_on_c, 0, 76, 70
2, 320280, Note_on_c, 0, 76, 0
2, 320280, Note_on_c, 0, 72, 0
2, 320280, Note_on_c, 0, 79, 96
2, 320400, Note_on_c, 0, 79, 0
2, 320400, Note_on_c, 0, 76, 70
2, 320520, Note_on_c, 0, 76, 0
2, 320520, Note_on_c, 0, 72, 70
2, 320640, Note_on_c, 0, 72, 0
2, 320760, Note_on_c, 0, 81, 109
2, 320880, Note_on_c, 0, 81, 0
2, 320880, Note_on_c, 0, 76, 83
2, 321000, Note_on_c, 0, 76, 0
2, 321000, Note_on_c, 0, 72, 83
2, 321120, Note_on_c, 0, 72, 0
2, 321240, Note_on_c, 0, 79, 109
2, 321360, Note_on_c, 0, 79, 0
2, 321360, Note_on_c, 0, 76, 83
2, 321480, Note_on_c, 0, 76, 0
2, 321480, Note_on_c, 0, 72, 83
2, 321600, Note_on_c, 0, 72, 0
2, 321720, Note_on_c, 0, 64, 83
2, 321720, Note_on_c, 0, 72, 83
2, 321960, Note_on_c, 0, 72, 0
2, 321960, Note_on_c, 0, 64, 0
2, 321960, Note_on_c, 0, 72, 83
2, 321960, Note_on_c, 0, 76, 83
2, 322200, Note_on_c, 0, 76, 0
2, 322200, Note_on_c, 0, 72, 0
2, 322200, Note_on_c, 0, 79, 109
2, 322320, Note_on_c, 0, 79, 0
2, 322320, Note_on_c, 0, 76, 83
2, 322440, Note_on_c, 0, 76, 0
2, 322440, Note_on_c, 0, 72, 83
2, 322560, Note_on_c, 0, 72, 0
2, 322680, Note_on_c, 0, 82, 109
2, 322800, Note_on_c, 0, 82, 0
2, 322800, Note_on_c, 0, 76, 83
2, 322920, Note_on_c, 0, 76, 0
2, 322920, Note_on_c, 0, 73, 83
2, 323040, Note_on_c, 0, 73, 0
2, 323160, Note_on_c, 0, 81, 109
2, 323280, Note_on_c, 0, 81, 0
2, 323280, Note_on_c, 0, 76, 83
2, 323400, Note_on_c, 0, 76, 0
2, 323400, Note_on_c, 0, 73, 83
2, 323520, Note_on_c, 0, 73, 0
2, 323640, Note_on_c, 0, 64, 83
2, 323640, Note_on_c, 0, 67, 83
2, 323640, Note_on_c, 0, 73, 83
2, 323880, Note_on_c, 0, 73, 0
2, 323880, Note_on_c, 0, 67, 0
2, 323880, Note_on_c, 0, 64, 0
2, 323880, Note_on_c, 0, 67, 83
2, 323880, Note_on_c, 0, 73, 83
2, 323880, Note_on_c, 0, 76, 83
2, 324120, Note_on_c, 0, 76, 0
2, 324120, Note_on_c, 0, 73, 0
2, 324120, Note_on_c, 0, 67, 0
2, 324120, Note_on_c, 0, 81, 109
2, 324240, Note_on_c, 0, 81, 0
2, 324240, Note_on_c, 0, 76, 83
2, 324360, Note_on_c, 0, 76, 0
2, 324360, Note_on_c, 0, 73, 83
2, 324480, Note_on_c, 0, 73, 0
2, 324600, Note_on_c, 0, 82, 109
2, 324720, Note_on_c, 0, 82, 0
2, 324720, Note_on_c, 0, 76, 83
2, 324840, Note_on_c, 0, 76, 0
2, 324840, Note_on_c, 0, 73, 83
2, 324960, Note_on_c, 0, 73, 0
2, 325080, Note_on_c, 0, 81, 109
2, 325200, Note_on_c, 0, 81, 0
2, 325200, Note_on_c, 0, 76, 83
2, 325320, Note_on_c, 0, 76, 0
2, 325320, Note_on_c, 0, 73, 83
2, 325440, Note_on_c, 0, 73, 0
2, 325560, Note_on_c, 0, 64, 83
2, 325560, Note_on_c, 0, 67, 83
2, 325560, Note_on_c, 0, 73, 83
2, 325800, Note_on_c, 0, 73, 0
2, 325800, Note_on_c, 0, 67, 0
2, 325800, Note_on_c, 0, 64, 0
2, 325800, Note_on_c, 0, 67, 83
2, 325800, Note_on_c, 0, 73, 83
2, 325800, Note_on_c, 0, 76, 83
2, 326040, Note_on_c, 0, 76, 0
2, 326040, Note_on_c, 0, 73, 0
2, 326040, Note_on_c, 0, 67, 0
2, 326040, Note_on_c, 0, 81, 109
2, 326160, Note_on_c, 0, 81, 0
2, 326160, Note_on_c, 0, 76, 83
2, 326280, Note_on_c, 0, 76, 0
2, 326280, Note_on_c, 0, 73, 83
2, 326400, Note_on_c, 0, 73, 0
2, 326520, Note_on_c, 0, 82, 109
2, 326640, Note_on_c, 0, 82, 0
2, 326640, Note_on_c, 0, 77, 83
2, 326760, Note_on_c, 0, 77, 0
2, 326760, Note_on_c, 0, 74, 83
2, 326880, Note_on_c, 0, 74, 0
2, 327000, Note_on_c, 0, 81, 109
2, 327120, Note_on_c, 0, 81, 0
2, 327120, Note_on_c, 0, 77, 83
2, 327240, Note_on_c, 0, 77, 0
2, 327240, Note_on_c, 0, 74, 83
2, 327360, Note_on_c, 0, 74, 0
2, 327480, Note_on_c, 0, 65, 83
2, 327480, Note_on_c, 0, 74, 83
2, 327720, Note_on_c, 0, 74, 0
2, 327720, Note_on_c, 0, 65, 0
2, 327720, Note_on_c, 0, 74, 83
2, 327720, Note_on_c, 0, 77, 83
2, 327960, Note_on_c, 0, 77, 0
2, 327960, Note_on_c, 0, 74, 0
2, 327960, Note_on_c, 0, 81, 109
2, 328080, Note_on_c, 0, 81, 0
2, 328080, Note_on_c, 0, 77, 83
2, 328200, Note_on_c, 0, 77, 0
2, 328200, Note_on_c, 0, 74, 83
2, 328320, Note_on_c, 0, 74, 0
2, 328440, Note_on_c, 0, 84, 109
2, 328560, Note_on_c, 0, 84, 0
2, 328560, Note_on_c, 0, 78, 83
2, 328680, Note_on_c, 0, 78, 0
2, 328680, Note_on_c, 0, 75, 83
2, 328800, Note_on_c, 0, 75, 0
2, 328920, Note_on_c, 0, 83, 109
2, 329040, Note_on_c, 0, 83, 0
2, 329040, Note_on_c, 0, 78, 83
2, 329160, Note_on_c, 0, 78, 0
2, 329160, Note_on_c, 0, 75, 83
2, 329280, Note_on_c, 0, 75, 0
2, 329400, Note_on_c, 0, 66, 83
2, 329400, Note_on_c, 0, 69, 83
2, 329400, Note_on_c, 0, 75, 83
2, 329640, Note_on_c, 0, 75, 0
2, 329640, Note_on_c, 0, 69, 0
2, 329640, Note_on_c, 0, 66, 0
2, 329640, Note_on_c, 0, 69, 83
2, 329640, Note_on_c, 0, 75, 83
2, 329640, Note_on_c, 0, 78, 83
2, 329880, Note_on_c, 0, 78, 0
2, 329880, Note_on_c, 0, 75, 0
2, 329880, Note_on_c, 0, 69, 0
2, 329880, Note_on_c, 0, 83, 109
2, 330000, Note_on_c, 0, 83, 0
2, 330000, Note_on_c, 0, 78, 83
2, 330120, Note_on_c, 0, 78, 0
2, 330120, Note_on_c, 0, 75, 83
2, 330240, Note_on_c, 0, 75, 0
2, 330360, Note_on_c, 0, 84, 109
2, 330480, Note_on_c, 0, 84, 0
2, 330480, Note_on_c, 0, 79, 83
2, 330600, Note_on_c, 0, 79, 0
2, 330600, Note_on_c, 0, 76, 83
2, 330720, Note_on_c, 0, 76, 0
2, 330840, Note_on_c, 0, 83, 109
2, 330960, Note_on_c, 0, 83, 0
2, 330960, Note_on_c, 0, 79, 83
2, 331080, Note_on_c, 0, 79, 0
2, 331080, Note_on_c, 0, 76, 83
2, 331200, Note_on_c, 0, 76, 0
2, 331320, Note_on_c, 0, 67, 83
2, 331320, Note_on_c, 0, 76, 83
2, 331560, Note_on_c, 0, 76, 0
2, 331560, Note_on_c, 0, 67, 0
2, 331560, Note_on_c, 0, 76, 83
2, 331560, Note_on_c, 0, 79, 83
2, 331800, Note_on_c, 0, 79, 0
2, 331800, Note_on_c, 0, 76, 0
2, 331800, Note_on_c, 0, 83, 109
2, 331920, Note_on_c, 0, 83, 0
2, 331920, Note_on_c, 0, 79, 83
2, 332040, Note_on_c, 0, 79, 0
2, 332040, Note_on_c, 0, 76, 83
2, 332160, Note_on_c, 0, 76, 0
2, 332280, Note_on_c, 0, 86, 109
2, 332400, Note_on_c, 0, 86, 0
2, 332400, Note_on_c, 0, 80, 83
2, 332520, Note_on_c, 0, 80, 0
2, 332520, Note_on_c, 0, 77, 83
2, 332640, Note_on_c, 0, 77, 0
2, 332760, Note_on_c, 0, 85, 109
2, 332880, Note_on_c, 0, 85, 0
2, 332880, Note_on_c, 0, 80, 83
2, 333000, Note_on_c, 0, 80, 0
2, 333000, Note_on_c, 0, 77, 83
2, 333120, Note_on_c, 0, 77, 0
2, 333240, Note_on_c, 0, 68, 83
2, 333240, Note_on_c, 0, 71, 83
2, 333240, Note_on_c, 0, 77, 83
2, 333480, Note_on_c, 0, 77, 0
2, 333480, Note_on_c, 0, 71, 0
2, 333480, Note_on_c, 0, 68, 0
2, 333480, Note_on_c, 0, 71, 83
2, 333480, Note_on_c, 0, 77, 83
2, 333480, Note_on_c, 0, 80, 83
2, 333720, Note_on_c, 0, 80, 0
2, 333720, Note_on_c, 0, 77, 0
2, 333720, Note_on_c, 0, 71, 0
2, 333720, Note_on_c, 0, 85, 109
2, 333840, Note_on_c, 0, 85, 0
2, 333840, Note_on_c, 0, 80, 83
2, 333960, Note_on_c, 0, 80, 0
2, 333960, Note_on_c, 0, 77, 83
2, 334080, Note_on_c, 0, 77, 0
2, 334200, Note_on_c, 0, 86, 109
2, 334320, Note_on_c, 0, 86, 0
2, 334320, Note_on_c, 0, 81, 83
2, 334440, Note_on_c, 0, 81, 0
2, 334440, Note_on_c, 0, 78, 83
2, 334560, Note_on_c, 0, 78, 0
2, 334680, Note_on_c, 0, 85, 109
2, 334800, Note_on_c, 0, 85, 0
2, 334800, Note_on_c, 0, 81, 83
2, 334920, Note_on_c, 0, 81, 0
2, 334920, Note_on_c, 0, 78, 83
2, 335040, Note_on_c, 0, 78, 0
2, 335160, Note_on_c, 0, 69, 83
2, 335160, Note_on_c, 0, 78, 83
2, 335400, Note_on_c, 0, 78, 0
2, 335400, Note_on_c, 0, 69, 0
2, 335400, Note_on_c, 0, 78, 83
2, 335400, Note_on_c, 0, 81, 83
2, 335520, Note_on_c, 0, 81, 0
2, 335520, Note_on_c, 0, 78, 0
2, 335520, Control_c, 0, 64, 127
2, 335520, Note_on_c, 0, 73, 109
2, 335520, Note_on_c, 0, 85, 109
2, 335640, Note_on_c, 0, 85, 0
2, 335640, Note_on_c, 0, 73, 0
2, 335640, Note_on_c, 0, 81, 83
2, 335760, Note_on_c, 0, 81, 0
2, 335760, Note_on_c, 0, 78, 83
2, 335880, Note_on_c, 0, 78, 0
2, 335880, Control_c, 0, 64, 0
2, 335880, Note_on_c, 0, 73, 83
2, 336000, Note_on_c, 0, 73, 0
2, 336000, Note_on_c, 0, 72, 109
2, 336000, Note_on_c, 0, 84, 109
2, 336240, Note_on_c, 0, 84, 0
2, 336240, Note_on_c, 0, 72, 0
2, 336240, Note_on_c, 0, 71, 109
2, 336240, Note_on_c, 0, 83, 109
2, 336480, Note_on_c, 0, 83, 0
2, 336480, Note_on_c, 0, 71, 0
2, 336480, Note_on_c, 0, 84, 109
2, 336600, Note_on_c, 0, 84, 0
2, 336600, Note_on_c, 0, 81, 83
2, 336720, Note_on_c, 0, 81, 0
2, 336720, Note_on_c, 0, 78, 83
2, 336840, Note_on_c, 0, 78, 0
2, 336840, Note_on_c, 0, 72, 83
2, 336960, Note_on_c, 0, 72, 0
2, 336960, Note_on_c, 0, 69, 83
2, 337080, Note_on_c, 0, 69, 0
2, 337080, Note_on_c, 0, 72, 83
2, 337200, Note_on_c, 0, 72, 0
2, 337200, Note_on_c, 0, 78, 83
2, 337320, Note_on_c, 0, 78, 0
2, 337320, Note_on_c, 0, 81, 83
2, 337440, Note_on_c, 0, 81, 0
2, 337440, Note_on_c, 0, 73, 109
2, 337440, Note_on_c, 0, 85, 109
2, 337560, Note_on_c, 0, 85, 0
2, 337560, Note_on_c, 0, 73, 0
2, 337560, Note_on_c, 0, 81, 83
2, 337680, Note_on_c, 0, 81, 0
2, 337680, Note_on_c, 0, 78, 83
2, 337800, Note_on_c, 0, 78, 0
2, 337800, Note_on_c, 0, 73, 83
2, 337920, Note_on_c, 0, 73, 0
2, 337920, Note_on_c, 0, 75, 109
2, 337920, Note_on_c, 0, 87, 109
2, 338040, Note_on_c, 0, 87, 0
2, 338040, Note_on_c, 0, 75, 0
2, 338040, Note_on_c, 0, 81, 83
2, 338160, Note_on_c, 0, 81, 0
2, 338160, Note_on_c, 0, 78, 83
2, 338280, Note_on_c, 0, 78, 0
2, 338280, Note_on_c, 0, 75, 83
2, 338400, Note_on_c, 0, 75, 0
2, 338400, Note_on_c, 0, 78, 109
2, 338520, Note_on_c, 0, 78, 0
2, 338520, Note_on_c, 0, 75, 83
2, 338640, Note_on_c, 0, 75, 0
2, 338640, Note_on_c, 0, 69, 83
2, 338760, Note_on_c, 0, 69, 0
2, 338760, Note_on_c, 0, 66, 83
2, 338880, Note_on_c, 0, 66, 0
2, 338880, Note_on_c, 0, 69, 83
2, 339000, Note_on_c, 0, 69, 0
2, 339000, Note_on_c, 0, 72, 83
2, 339120, Note_on_c, 0, 72, 0
2, 339120, Note_on_c, 0, 78, 83
2, 339240, Note_on_c, 0, 78, 0
2, 339240, Note_on_c, 0, 81, 83
2, 339360, Note_on_c, 0, 81, 0
2, 339360, Note_on_c, 0, 75, 109
2, 339360, Note_on_c, 0, 87, 109
2, 339480, Note_on_c, 0, 87, 0
2, 339480, Note_on_c, 0, 75, 0
2, 339480, Note_on_c, 0, 83, 83
2, 339600, Note_on_c, 0, 83, 0
2, 339600, Note_on_c, 0, 80, 83
2, 339720, Note_on_c, 0, 80, 0
2, 339720, Note_on_c, 0, 75, 83
2, 339840, Note_on_c, 0, 75, 0
2, 339840, Note_on_c, 0, 74, 109
2, 339840, Note_on_c, 0, 86, 109
2, 340080, Note_on_c, 0, 86, 0
2, 340080, Note_on_c, 0, 74, 0
2, 340080, Note_on_c, 0, 73, 109
2, 340080, Note_on_c, 0, 85, 109
2, 340320, Note_on_c, 0, 85, 0
2, 340320, Note_on_c, 0, 73, 0
2, 340320, Note_on_c, 0, 74, 109
2, 340320, Note_on_c, 0, 86, 109
2, 340440, Note_on_c, 0, 86, 0
2, 340440, Note_on_c, 0, 74, 0
2, 340440, Note_on_c, 0, 83, 83
2, 340560, Note_on_c, 0, 83, 0
2, 340560, Note_on_c, 0, 80, 83
2, 340680, Note_on_c, 0, 80, 0
2, 340680, Note_on_c, 0, 74, 83
2, 340800, Note_on_c, 0, 74, 0
2, 340800, Note_on_c, 0, 71, 83
2, 340920, Note_on_c, 0, 71, 0
2, 340920, Note_on_c, 0, 74, 83
2, 341040, Note_on_c, 0, 74, 0
2, 341040, Note_on_c, 0, 80, 83
2, 341160, Note_on_c, 0, 80, 0
2, 341160, Note_on_c, 0, 83, 83
2, 341280, Note_on_c, 0, 83, 0
2, 341280, Note_on_c, 0, 75, 109
2, 341280, Note_on_c, 0, 87, 109
2, 341400, Note_on_c, 0, 87, 0
2, 341400, Note_on_c, 0, 75, 0
2, 341400, Note_on_c, 0, 83, 83
2, 341520, Note_on_c, 0, 83, 0
2, 341520, Note_on_c, 0, 80, 83
2, 341640, Note_on_c, 0, 80, 0
2, 341640, Note_on_c, 0, 75, 83
2, 341760, Note_on_c, 0, 75, 0
2, 341760, Note_on_c, 0, 77, 109
2, 341760, Note_on_c, 0, 89, 109
2, 341880, Note_on_c, 0, 89, 0
2, 341880, Note_on_c, 0, 77, 0
2, 341880, Note_on_c, 0, 83, 83
2, 342000, Note_on_c, 0, 83, 0
2, 342000, Note_on_c, 0, 80, 83
2, 342120, Note_on_c, 0, 80, 0
2, 342120, Note_on_c, 0, 77, 83
2, 342240, Note_on_c, 0, 77, 0
2, 342240, Note_on_c, 0, 80, 83
2, 342360, Note_on_c, 0, 80, 0
2, 342360, Note_on_c, 0, 77, 83
2, 342480, Note_on_c, 0, 77, 0
2, 342480, Note_on_c, 0, 71, 83
2, 342600, Note_on_c, 0, 71, 0
2, 342600, Note_on_c, 0, 68, 83
2, 342720, Note_on_c, 0, 68, 0
2, 342720, Note_on_c, 0, 71, 83
2, 342840, Note_on_c, 0, 71, 0
2, 342840, Note_on_c, 0, 77, 83
2, 342960, Note_on_c, 0, 77, 0
2, 342960, Note_on_c, 0, 80, 83
2, 343080, Note_on_c, 0, 80, 0
2, 343080, Note_on_c, 0, 83, 83
2, 343200, Note_on_c, 0, 83, 0
2, 343200, Note_on_c, 0, 77, 109
2, 343200, Note_on_c, 0, 89, 109
2, 343320, Note_on_c, 0, 89, 0
2, 343320, Note_on_c, 0, 77, 0
2, 343320, Note_on_c, 0, 85, 83
2, 343440, Note_on_c, 0, 85, 0
2, 343440, Note_on_c, 0, 82, 83
2, 343560, Note_on_c, 0, 82, 0
2, 343560, Note_on_c, 0, 77, 83
2, 343680, Note_on_c, 0, 77, 0
2, 343680, Note_on_c, 0, 76, 109
2, 343680, Note_on_c, 0, 88, 109
2, 343920, Note_on_c, 0, 88, 0
2, 343920, Note_on_c, 0, 76, 0
2, 343920, Note_on_c, 0, 75, 109
2, 343920, Note_on_c, 0, 87, 109
2, 344160, Note_on_c, 0, 87, 0
2, 344160, Note_on_c, 0, 75, 0
2, 344160, Note_on_c, 0, 76, 109
2, 344160, Note_on_c, 0, 88, 109
2, 344280, Note_on_c, 0, 88, 0
2, 344280, Note_on_c, 0, 76, 0
2, 344280, Note_on_c, 0, 85, 83
2, 344400, Note_on_c, 0, 85, 0
2, 344400, Note_on_c, 0, 82, 83
2, 344520, Note_on_c, 0, 82, 0
2, 344520, Note_on_c, 0, 76, 83
2, 344640, Note_on_c, 0, 76, 0
2, 344640, Note_on_c, 0, 73, 83
2, 344760, Note_on_c, 0, 73, 0
2, 344760, Note_on_c, 0, 76, 83
2, 344880, Note_on_c, 0, 76, 0
2, 344880, Note_on_c, 0, 82, 83
2, 345000, Note_on_c, 0, 82, 0
2, 345000, Note_on_c, 0, 85, 83
2, 345120, Note_on_c, 0, 85, 0
2, 345120, Note_on_c, 0, 79, 109
2, 345120, Note_on_c, 0, 91, 109
2, 345240, Note_on_c, 0, 91, 0
2, 345240, Note_on_c, 0, 79, 0
2, 345240, Note_on_c, 0, 85, 83
2, 345360, Note_on_c, 0, 85, 0
2, 345360, Note_on_c, 0, 82, 83
2, 345480, Note_on_c, 0, 82, 0
2, 345480, Note_on_c, 0, 79, 83
2, 345600, Note_on_c, 0, 79, 0
2, 345600, Note_on_c, 0, 78, 109
2, 345600, Note_on_c, 0, 90, 109
2, 345840, Note_on_c, 0, 90, 0
2, 345840, Note_on_c, 0, 78, 0
2, 345840, Note_on_c, 0, 77, 109
2, 345840, Note_on_c, 0, 89, 109
2, 346080, Note_on_c, 0, 89, 0
2, 346080, Note_on_c, 0, 77, 0
2, 346080, Note_on_c, 0, 78, 109
2, 346080, Note_on_c, 0, 90, 109
2, 346200, Note_on_c, 0, 90, 0
2, 346200, Note_on_c, 0, 78, 0
2, 346200, Note_on_c, 0, 87, 83
2, 346320, Note_on_c, 0, 87, 0
2, 346320, Note_on_c, 0, 84, 83
2, 346440, Note_on_c, 0, 84, 0
2, 346440, Note_on_c, 0, 78, 83
2, 346560, Note_on_c, 0, 78, 0
2, 346560, Note_on_c, 0, 75, 83
2, 346680, Note_on_c, 0, 75, 0
2, 346680, Note_on_c, 0, 78, 83
2, 346800, Note_on_c, 0, 78, 0
2, 346800, Note_on_c, 0, 84, 83
2, 346920, Note_on_c, 0, 84, 0
2, 346920, Note_on_c, 0, 87, 83
2, 347040, Note_on_c, 0, 87, 0
2, 347040, Note_on_c, 0, 81, 109
2, 347040, Note_on_c, 0, 93, 109
2, 347160, Note_on_c, 0, 93, 0
2, 347160, Note_on_c, 0, 81, 0
2, 347160, Note_on_c, 0, 87, 83
2, 347280, Note_on_c, 0, 87, 0
2, 347280, Note_on_c, 0, 84, 83
2, 347400, Note_on_c, 0, 84, 0
2, 347400, Note_on_c, 0, 81, 83
2, 347520, Note_on_c, 0, 81, 0
2, 347520, Note_on_c, 0, 80, 109
2, 347520, Note_on_c, 0, 92, 109
2, 347760, Note_on_c, 0, 92, 0
2, 347760, Note_on_c, 0, 80, 0
2, 347760, Note_on_c, 0, 79, 109
2, 347760, Note_on_c, 0, 91, 109
2, 348000, Note_on_c, 0, 91, 0
2, 348000, Note_on_c, 0, 79, 0
2, 348000, Note_on_c, 0, 80, 109
2, 348000, Note_on_c, 0, 92, 109
2, 348120, Note_on_c, 0, 92, 0
2, 348120, Note_on_c, 0, 80, 0
2, 348120, Note_on_c, 0, 89, 83
2, 348240, Note_on_c, 0, 89, 0
2, 348240, Note_on_c, 0, 86, 83
2, 348360, Note_on_c, 0, 86, 0
2, 348360, Note_on_c, 0, 80, 83
2, 348480, Note_on_c, 0, 80, 0
2, 348480, Note_on_c, 0, 81, 109
2, 348480, Note_on_c, 0, 93, 109
2, 348720, Note_on_c, 0, 93, 0
2, 348720, Note_on_c, 0, 81, 0
2, 348720, Note_on_c, 0, 80, 109
2, 348720, Note_on_c, 0, 92, 109
2, 348960, Note_on_c, 0, 92, 0
2, 348960, Note_on_c, 0, 80, 0
2, 348960, Note_on_c, 0, 81, 109
2, 348960, Note_on_c, 0, 93, 109
2, 349080, Note_on_c, 0, 93, 0
2, 349080, Note_on_c, 0, 81, 0
2, 349080, Note_on_c, 0, 89, 83
2, 349200, Note_on_c, 0, 89, 0
2, 349200, Note_on_c, 0, 87, 83
2, 349320, Note_on_c, 0, 87, 0
2, 349320, Note_on_c, 0, 81, 83
2, 349440, Note_on_c, 0, 81, 0
2, 349440, Note_on_c, 0, 82, 109
2, 349440, Note_on_c, 0, 94, 109
2, 349680, Note_on_c, 0, 94, 0
2, 349680, Note_on_c, 0, 82, 0
2, 349680, Note_on_c, 0, 81, 109
2, 349680, Note_on_c, 0, 93, 109
2, 349920, Note_on_c, 0, 93, 0
2, 349920, Note_on_c, 0, 81, 0
2, 349920, Note_on_c, 0, 82, 109
2, 349920, Note_on_c, 0, 94, 109
2, 350040, Note_on_c, 0, 94, 0
2, 350040, Note_on_c, 0, 82, 0
2, 350040, Note_on_c, 0, 91, 83
2, 350160, Note_on_c, 0, 91, 0
2, 350160, Note_on_c, 0, 88, 83
2, 350280, Note_on_c, 0, 88, 0
2, 350280, Note_on_c, 0, 82, 83
2, 350400, Note_on_c, 0, 82, 0
2, 350400, Note_on_c, 0, 83, 109
2, 350400, Note_on_c, 0, 95, 109
2, 350640, Note_on_c, 0, 95, 0
2, 350640, Note_on_c, 0, 83, 0
2, 350640, Note_on_c, 0, 82, 109
2, 350640, Note_on_c, 0, 94, 109
2, 350880, Note_on_c, 0, 94, 0
2, 350880, Note_on_c, 0, 82, 0
2, 350880, Note_on_c, 0, 83, 109
2, 350880, Note_on_c, 0, 95, 109
2, 351000, Note_on_c, 0, 95, 0
2, 351000, Note_on_c, 0, 83, 0
2, 351000, Note_on_c, 0, 92, 83
2, 351120, Note_on_c, 0, 92, 0
2, 351120, Note_on_c, 0, 89, 83
2, 351240, Note_on_c, 0, 89, 0
2, 351240, Note_on_c, 0, 83, 83
2, 351360, Note_on_c, 0, 83, 0
2, 351360, Note_on_c, 0, 84, 109
2, 351360, Note_on_c, 0, 96, 109
2, 351600, Note_on_c, 0, 96, 0
2, 351600, Note_on_c, 0, 84, 0
2, 351600, Note_on_c, 0, 83, 109
2, 351600, Note_on_c, 0, 95, 109
2, 351840, Note_on_c, 0, 95, 0
2, 351840, Note_on_c, 0, 83, 0
2, 351840, Note_on_c, 0, 84, 109
2, 351840, Note_on_c, 0, 96, 109
2, 351960, Note_on_c, 0, 96, 0
2, 351960, Note_on_c, 0, 84, 0
2, 351960, Note_on_c, 0, 93, 83
2, 352080, Note_on_c, 0, 93, 0
2, 352080, Note_on_c, 0, 90, 83
2, 352200, Note_on_c, 0, 90, 0
2, 352200, Note_on_c, 0, 84, 83
2, 352320, Note_on_c, 0, 84, 0
2, 352320, Note_on_c, 0, 80, 83
2, 352440, Note_on_c, 0, 80, 0
2, 352440, Note_on_c, 0, 84, 83
2, 352560, Note_on_c, 0, 84, 0
2, 352560, Note_on_c, 0, 90, 83
2, 352680, Note_on_c, 0, 90, 0
2, 352680, Note_on_c, 0, 93, 83
2, 352800, Note_on_c, 0, 93, 0
2, 352800, Note_on_c, 0, 84, 109
2, 352800, Note_on_c, 0, 96, 109
2, 352920, Note_on_c, 0, 96, 0
2, 352920, Note_on_c, 0, 84, 0
2, 352920, Note_on_c, 0, 93, 83
2, 353040, Note_on_c, 0, 93, 0
2, 353040, Note_on_c, 0, 90, 83
2, 353160, Note_on_c, 0, 90, 0
2, 353160, Note_on_c, 0, 84, 83
2, 353280, Note_on_c, 0, 84, 0
2, 353280, Note_on_c, 0, 87, 109
2, 353280, Note_on_c, 0, 99, 109
2, 353520, Note_on_c, 0, 99, 0
2, 353520, Note_on_c, 0, 87, 0
2, 353520, Note_on_c, 0, 86, 109
2, 353520, Note_on_c, 0, 98, 109
2, 353760, Note_on_c, 0, 98, 0
2, 353760, Note_on_c, 0, 86, 0
2, 353760, Note_on_c, 0, 87, 109
2, 353760, Note_on_c, 0, 99, 109
2, 353880, Note_on_c, 0, 99, 0
2, 353880, Note_on_c, 0, 87, 0
2, 353880, Note_on_c, 0, 96, 83
2, 354000, Note_on_c, 0, 96, 0
2, 354000, Note_on_c, 0, 90, 83
2, 354120, Note_on_c, 0, 90, 0
2, 354120, Note_on_c, 0, 87, 83
2, 354240, Note_on_c, 0, 87, 0
2, 354240, Note_on_c, 0, 84, 83
2, 354360, Note_on_c, 0, 84, 0
2, 354360, Note_on_c, 0, 87, 83
2, 354480, Note_on_c, 0, 87, 0
2, 354480, Note_on_c, 0, 90, 83
2, 354600, Note_on_c, 0, 90, 0
2, 354600, Note_on_c, 0, 96, 83
2, 354720, Note_on_c, 0, 96, 0
2, 354720, Note_on_c, 0, 87, 109
2, 354720, Note_on_c, 0, 99, 109
2, 355080, Note_on_c, 0, 99, 0
2, 355080, Note_on_c, 0, 87, 0
2, 355080, Note_on_c, 0, 90, 109
2, 355080, Note_on_c, 0, 102, 109
2, 355200, Note_on_c, 0, 102, 0
2, 355200, Note_on_c, 0, 90, 0
2, 355200, Note_on_c, 0, 91, 109
2, 355200, Note_on_c, 0, 103, 109
2, 355320, Note_on_c, 0, 103, 0
2, 355320, Note_on_c, 0, 91, 0
2, 355440, Note_on_c, 0, 96, 83
2, 355440, Note_on_c, 0, 99, 83
2, 355440, Note_on_c, 0, 103, 83
2, 355560, Note_on_c, 0, 103, 0
2, 355560, Note_on_c, 0, 99, 0
2, 355560, Note_on_c, 0, 96, 0
2, 355680, Note_on_c, 0, 91, 83
2, 355680, Note_on_c, 0, 96, 83
2, 355680, Note_on_c, 0, 99, 83
2, 355800, Note_on_c, 0, 99, 0
2, 355800, Note_on_c, 0, 96, 0
2, 355800, Note_on_c, 0, 91, 0
2, 355920, Note_on_c, 0, 87, 83
2, 355920, Note_on_c, 0, 91, 83
2, 355920, Note_on_c, 0, 96, 83
2, 356040, Note_on_c, 0, 96, 0
2, 356040, Note_on_c, 0, 91, 0
2, 356040, Note_on_c, 0, 87, 0
2, 356160, Note_on_c, 0, 84, 83
2, 356160, Note_on_c, 0, 87, 83
2, 356160, Note_on_c, 0, 91, 83
2, 356280, Note_on_c, 0, 91, 0
2, 356280, Note_on_c, 0, 87, 0
2, 356280, Note_on_c, 0, 84, 0
2, 356400, Note_on_c, 0, 79, 83
2, 356400, Note_on_c, 0, 84, 83
2, 356400, Note_on_c, 0, 87, 83
2, 356520, Note_on_c, 0, 87, 0
2, 356520, Note_on_c, 0, 84, 0
2, 356520, Note_on_c, 0, 79, 0
2, 356640, Note_on_c, 0, 75, 83
2, 356640, Note_on_c, 0, 79, 83
2, 356640, Note_on_c, 0, 84, 83
2, 356760, Note_on_c, 0, 84, 0
2, 356760, Note_on_c, 0, 79, 0
2, 356760, Note_on_c, 0, 75, 0
2, 356880, Note_on_c, 0, 72, 83
2, 356880, Note_on_c, 0, 75, 83
2, 356880, Note_on_c, 0, 79, 83
2, 357000, Note_on_c, 0, 79, 0
2, 357000, Note_on_c, 0, 75, 0
2, 357000, Note_on_c, 0, 72, 0
2, 357120, Note_on_c, 0, 67, 83
2, 357120, Note_on_c, 0, 72, 83
2, 357120, Note_on_c, 0, 75, 83
2, 357240, Note_on_c, 0, 75, 0
2, 357240, Note_on_c, 0, 72, 0
2, 357240, Note_on_c, 0, 67, 0
2, 357360, Note_on_c, 0, 63, 83
2, 357360, Note_on_c, 0, 67, 83
2, 357360, Note_on_c, 0, 72, 83
2, 357480, Note_on_c, 0, 72, 0
2, 357480, Note_on_c, 0, 67, 0
2, 357480, Note_on_c, 0, 63, 0
2, 357600, Note_on_c, 0, 67, 83
2, 357600, Note_on_c, 0, 72, 83
2, 357600, Note_on_c, 0, 75, 83
2, 357720, Note_on_c, 0, 75, 0
2, 357720, Note_on_c, 0, 72, 0
2, 357720, Note_on_c, 0, 67, 0
2, 357840, Note_on_c, 0, 72, 83
2, 357840, Note_on_c, 0, 75, 83
2, 357840, Note_on_c, 0, 79, 83
2, 357960, Note_on_c, 0, 79, 0
2, 357960, Note_on_c, 0, 75, 0
2, 357960, Note_on_c, 0, 72, 0
2, 358080, Note_on_c, 0, 75, 83
2, 358080, Note_on_c, 0, 79, 83
2, 358080, Note_on_c, 0, 84, 83
2, 358200, Note_on_c, 0, 84, 0
2, 358200, Note_on_c, 0, 79, 0
2, 358200, Note_on_c, 0, 75, 0
2, 358320, Note_on_c, 0, 67, 83
2, 358320, Note_on_c, 0, 72, 83
2, 358320, Note_on_c, 0, 75, 83
2, 358440, Note_on_c, 0, 75, 0
2, 358440, Note_on_c, 0, 72, 0
2, 358440, Note_on_c, 0, 67, 0
2, 358560, Note_on_c, 0, 72, 83
2, 358560, Note_on_c, 0, 75, 83
2, 358560, Note_on_c, 0, 79, 83
2, 358680, Note_on_c, 0, 79, 0
2, 358680, Note_on_c, 0, 75, 0
2, 358680, Note_on_c, 0, 72, 0
2, 358800, Note_on_c, 0, 75, 83
2, 358800, Note_on_c, 0, 79, 83
2, 358800, Note_on_c, 0, 84, 83
2, 358920, Note_on_c, 0, 84, 0
2, 358920, Note_on_c, 0, 79, 0
2, 358920, Note_on_c, 0, 75, 0
2, 359040, Note_on_c, 0, 79, 83
2, 359040, Note_on_c, 0, 84, 83
2, 359040, Note_on_c, 0, 87, 83
2, 359160, Note_on_c, 0, 87, 0
2, 359160, Note_on_c, 0, 84, 0
2, 359160, Note_on_c, 0, 79, 0
2, 359280, Note_on_c, 0, 84, 83
2, 359280, Note_on_c, 0, 87, 83
2, 359280, Note_on_c, 0, 91, 83
2, 359400, Note_on_c, 0, 91, 0
2, 359400, Note_on_c, 0, 87, 0
2, 359400, Note_on_c, 0, 84, 0
2, 359520, Note_on_c, 0, 79, 83
2, 359520, Note_on_c, 0, 84, 83
2, 359520, Note_on_c, 0, 87, 83
2, 359640, Note_on_c, 0, 87, 0
2, 359640, Note_on_c, 0, 84, 0
2, 359640, Note_on_c, 0, 79, 0
2, 359760, Note_on_c, 0, 75, 83
2, 359760, Note_on_c, 0, 79, 83
2, 359760, Note_on_c, 0, 84, 83
2, 359880, Note_on_c, 0, 84, 0
2, 359880, Note_on_c, 0, 79, 0
2, 359880, Note_on_c, 0, 75, 0
2, 360000, Note_on_c, 0, 72, 83
2, 360000, Note_on_c, 0, 75, 83
2, 360000, Note_on_c, 0, 79, 83
2, 360120, Note_on_c, 0, 79, 0
2, 360120, Note_on_c, 0, 75, 0
2, 360120, Note_on_c, 0, 72, 0
2, 360240, Note_on_c, 0, 67, 83
2, 360240, Note_on_c, 0, 72, 83
2, 360240, Note_on_c, 0, 75, 83
2, 360360, Note_on_c, 0, 75, 0
2, 360360, Note_on_c, 0, 72, 0
2, 360360, Note_on_c, 0, 67, 0
2, 360480, Note_on_c, 0, 63, 83
2, 360480, Note_on_c, 0, 67, 83
2, 360480, Note_on_c, 0, 72, 83
2, 360600, Note_on_c, 0, 72, 0
2, 360600, Note_on_c, 0, 67, 0
2, 360600, Note_on_c, 0, 63, 0
2, 360720, Note_on_c, 0, 60, 83
2, 360720, Note_on_c, 0, 63, 83
2, 360720, Note_on_c, 0, 67, 83
2, 360840, Note_on_c, 0, 67, 0
2, 360840, Note_on_c, 0, 63, 0
2, 360840, Note_on_c, 0, 60, 0
2, 360960, Note_on_c, 0, 55, 83
2, 360960, Note_on_c, 0, 60, 83
2, 360960, Note_on_c, 0, 63, 83
2, 361080, Note_on_c, 0, 63, 0
2, 361080, Note_on_c, 0, 60, 0
2, 361080, Note_on_c, 0, 55, 0
2, 361200, Note_on_c, 0, 51, 83
2, 361200, Note_on_c, 0, 55, 83
2, 361200, Note_on_c, 0, 60, 83
2, 361320, Note_on_c, 0, 60, 0
2, 361320, Note_on_c, 0, 55, 0
2, 361320, Note_on_c, 0, 51, 0
2, 361440, Note_on_c, 0, 55, 83
2, 361440, Note_on_c, 0, 60, 83
2, 361440, Note_on_c, 0, 63, 83
2, 361560, Note_on_c, 0, 63, 0
2, 361560, Note_on_c, 0, 60, 0
2, 361560, Note_on_c, 0, 55, 0
2, 361680, Note_on_c, 0, 60, 83
2, 361680, Note_on_c, 0, 63, 83
2, 361680, Note_on_c, 0, 67, 83
2, 361800, Note_on_c, 0, 67, 0
2, 361800, Note_on_c, 0, 63, 0
2, 361800, Note_on_c, 0, 60, 0
2, 361920, Note_on_c, 0, 63, 83
2, 361920, Note_on_c, 0, 67, 83
2, 361920, Note_on_c, 0, 72, 83
2, 362040, Note_on_c, 0, 72, 0
2, 362040, Note_on_c, 0, 67, 0
2, 362040, Note_on_c, 0, 63, 0
2, 362160, Note_on_c, 0, 55, 83
2, 362160, Note_on_c, 0, 60, 83
2, 362160, Note_on_c, 0, 63, 83
2, 362280, Note_on_c, 0, 63, 0
2, 362280, Note_on_c, 0, 60, 0
2, 362280, Note_on_c, 0, 55, 0
2, 362400, Note_on_c, 0, 60, 83
2, 362400, Note_on_c, 0, 63, 83
2, 362400, Note_on_c, 0, 67, 83
2, 362520, Note_on_c, 0, 67, 0
2, 362520, Note_on_c, 0, 63, 0
2, 362520, Note_on_c, 0, 60, 0
2, 362640, Note_on_c, 0, 63, 83
2, 362640, Note_on_c, 0, 67, 83
2, 362640, Note_on_c, 0, 72, 83
2, 362760, Note_on_c, 0, 72, 0
2, 362760, Note_on_c, 0, 67, 0
2, 362760, Note_on_c, 0, 63, 0
2, 362880, Note_on_c, 0, 67, 83
2, 362880, Note_on_c, 0, 72, 83
2, 362880, Note_on_c, 0, 75, 83
2, 363000, Note_on_c, 0, 75, 0
2, 363000, Note_on_c, 0, 72, 0
2, 363000, Note_on_c, 0, 67, 0
2, 363120, Note_on_c, 0, 72, 83
2, 363120, Note_on_c, 0, 75, 83
2, 363120, Note_on_c, 0, 79, 83
2, 363240, Note_on_c, 0, 79, 0
2, 363240, Note_on_c, 0, 75, 0
2, 363240, Note_on_c, 0, 72, 0
2, 363360, Note_on_c, 0, 67, 83
2, 363360, Note_on_c, 0, 72, 83
2, 363360, Note_on_c, 0, 75, 83
2, 363480, Note_on_c, 0, 75, 0
2, 363480, Note_on_c, 0, 72, 0
2, 363480, Note_on_c, 0, 67, 0
2, 363600, Note_on_c, 0, 63, 83
2, 363600, Note_on_c, 0, 67, 83
2, 363600, Note_on_c, 0, 72, 83
2, 363720, Note_on_c, 0, 72, 0
2, 363720, Note_on_c, 0, 67, 0
2, 363720, Note_on_c, 0, 63, 0
2, 363840, Note_on_c, 0, 60, 83
2, 363840, Note_on_c, 0, 63, 83
2, 363840, Note_on_c, 0, 67, 83
2, 363960, Note_on_c, 0, 67, 0
2, 363960, Note_on_c, 0, 63, 0
2, 363960, Note_on_c, 0, 60, 0
2, 364080, Note_on_c, 0, 55, 83
2, 364080, Note_on_c, 0, 60, 83
2, 364080, Note_on_c, 0, 63, 83
2, 364200, Note_on_c, 0, 63, 0
2, 364200, Note_on_c, 0, 60, 0
2, 364200, Note_on_c, 0, 55, 0
2, 364320, Note_on_c, 0, 51, 83
2, 364320, Note_on_c, 0, 55, 83
2, 364320, Note_on_c, 0, 60, 83
2, 364440, Note_on_c, 0, 60, 0
2, 364440, Note_on_c, 0, 55, 0
2, 364440, Note_on_c, 0, 51, 0
2, 364560, Note_on_c, 0, 48, 83
2, 364560, Note_on_c, 0, 51, 83
2, 364560, Note_on_c, 0, 55, 83
2, 364680, Note_on_c, 0, 55, 0
2, 364680, Note_on_c, 0, 51, 0
2, 364680, Note_on_c, 0, 48, 0
2, 364800, Note_on_c, 0, 43, 83
2, 364800, Note_on_c, 0, 48, 83
2, 364800, Note_on_c, 0, 51, 83
2, 364920, Note_on_c, 0, 51, 0
2, 364920, Note_on_c, 0, 48, 0
2, 364920, Note_on_c, 0, 43, 0
2, 365040, Note_on_c, 0, 60, 83
2, 365040, Note_on_c, 0, 63, 83
2, 365040, Note_on_c, 0, 67, 83
2, 365160, Note_on_c, 0, 67, 0
2, 365160, Note_on_c, 0, 63, 0
2, 365160, Note_on_c, 0, 60, 0
2, 365280, Note_on_c, 0, 55, 83
2, 365280, Note_on_c, 0, 60, 83
2, 365280, Note_on_c, 0, 63, 83
2, 365400, Note_on_c, 0, 63, 0
2, 365400, Note_on_c, 0, 60, 0
2, 365400, Note_on_c, 0, 55, 0
2, 365520, Note_on_c, 0, 51, 83
2, 365520, Note_on_c, 0, 55, 83
2, 365520, Note_on_c, 0, 60, 83
2, 365640, Note_on_c, 0, 60, 0
2, 365640, Note_on_c, 0, 55, 0
2, 365640, Note_on_c, 0, 51, 0
2, 365760, Note_on_c, 0, 48, 83
2, 365760, Note_on_c, 0, 51, 83
2, 365760, Note_on_c, 0, 55, 83
2, 365880, Note_on_c, 0, 55, 0
2, 365880, Note_on_c, 0, 51, 0
2, 365880, Note_on_c, 0, 48, 0
2, 366000, Note_on_c, 0, 43, 83
2, 366000, Note_on_c, 0, 48, 83
2, 366000, Note_on_c, 0, 51, 83
2, 366120, Note_on_c, 0, 51, 0
2, 366120, Note_on_c, 0, 48, 0
2, 366120, Note_on_c, 0, 43, 0
2, 366240, Note_on_c, 0, 39, 83
2, 366240, Note_on_c, 0, 43, 83
2, 366240, Note_on_c, 0, 48, 83
2, 366360, Note_on_c, 0, 48, 0
2, 366360, Note_on_c, 0, 43, 0
2, 366360, Note_on_c, 0, 39, 0
2, 366480, Note_on_c, 0, 36, 83
2, 366480, Note_on_c, 0, 39, 83
2, 366480, Note_on_c, 0, 43, 83
2, 366600, Note_on_c, 0, 43, 0
2, 366600, Note_on_c, 0, 39, 0
2, 366600, Note_on_c, 0, 36, 0
2, 366720, Note_on_c, 0, 36, 83
2, 366720, Note_on_c, 0, 39, 83
2, 366751, Note_on_c, 0, 39, 0
2, 366751, Note_on_c, 0, 36, 0
2, 366879, Note_on_c, 0, 43, 83
2, 366911, Note_on_c, 0, 43, 0
2, 367040, Note_on_c, 0, 44, 83
2, 367072, Note_on_c, 0, 44, 0
2, 367200, Note_on_c, 0, 45, 83
2, 367231, Note_on_c, 0, 45, 0
2, 367359, Note_on_c, 0, 46, 83
2, 367391, Note_on_c, 0, 46, 0
2, 367520, Note_on_c, 0, 47, 83
2, 367552, Note_on_c, 0, 47, 0
2, 367680, Note_on_c, 0, 48, 83
2, 367711, Note_on_c, 0, 48, 0
2, 367839, Note_on_c, 0, 48, 83
2, 367871, Note_on_c, 0, 48, 0
2, 368000, Note_on_c, 0, 50, 83
2, 368032, Note_on_c, 0, 50, 0
2, 368160, Note_on_c, 0, 51, 83
2, 368191, Note_on_c, 0, 51, 0
2, 368319, Note_on_c, 0, 53, 83
2, 368351, Note_on_c, 0, 53, 0
2, 368480, Note_on_c, 0, 54, 83
2, 368512, Note_on_c, 0, 54, 0
2, 368640, Note_on_c, 0, 55, 83
2, 368671, Note_on_c, 0, 55, 0
2, 368799, Note_on_c, 0, 55, 83
2, 368831, Note_on_c, 0, 55, 0
2, 368960, Note_on_c, 0, 56, 83
2, 368992, Note_on_c, 0, 56, 0
2, 369120, Note_on_c, 0, 57, 83
2, 369151, Note_on_c, 0, 57, 0
2, 369279, Note_on_c, 0, 58, 83
2, 369311, Note_on_c, 0, 58, 0
2, 369440, Note_on_c, 0, 59, 83
2, 369472, Note_on_c, 0, 59, 0
2, 369600, Note_on_c, 0, 60, 83
2, 369631, Note_on_c, 0, 60, 0
2, 369759, Note_on_c, 0, 60, 83
2, 369791, Note_on_c, 0, 60, 0
2, 369920, Note_on_c, 0, 62, 83
2, 369952, Note_on_c, 0, 62, 0
2, 370080, Note_on_c, 0, 63, 83
2, 370111, Note_on_c, 0, 63, 0
2, 370239, Note_on_c, 0, 65, 83
2, 370271, Note_on_c, 0, 65, 0
2, 370400, Note_on_c, 0, 66, 83
2, 370432, Note_on_c, 0, 66, 0
2, 370560, Note_on_c, 0, 67, 83
2, 370591, Note_on_c, 0, 67, 0
2, 370719, Note_on_c, 0, 67, 83
2, 370751, Note_on_c, 0, 67, 0
2, 370880, Note_on_c, 0, 56, 83
2, 370880, Note_on_c, 0, 68, 83
2, 370912, Note_on_c, 0, 68, 0
2, 370912, Note_on_c, 0, 56, 0
2, 371040, Note_on_c, 0, 57, 83
2, 371040, Note_on_c, 0, 69, 83
2, 371071, Note_on_c, 0, 69, 0
2, 371071, Note_on_c, 0, 57, 0
2, 371199, Note_on_c, 0, 58, 83
2, 371199, Note_on_c, 0, 70, 83
2, 371231, Note_on_c, 0, 70, 0
2, 371231, Note_on_c, 0, 58, 0
2, 371360, Note_on_c, 0, 59, 83
2, 371360, Note_on_c, 0, 71, 83
2, 371392, Note_on_c, 0, 71, 0
2, 371392, Note_on_c, 0, 59, 0
2, 371520, Note_on_c, 0, 60, 83
2, 371520, Note_on_c, 0, 72, 83
2, 371551, Note_on_c, 0, 72, 0
2, 371551, Note_on_c, 0, 60, 0
2, 371679, Note_on_c, 0, 60, 83
2, 371679, Note_on_c, 0, 72, 83
2, 371711, Note_on_c, 0, 72, 0
2, 371711, Note_on_c, 0, 60, 0
2, 371840, Note_on_c, 0, 62, 83
2, 371840, Note_on_c, 0, 74, 83
2, 371872, Note_on_c, 0, 74, 0
2, 371872, Note_on_c, 0, 62, 0
2, 372000, Note_on_c, 0, 63, 83
2, 372000, Note_on_c, 0, 75, 83
2, 372031, Note_on_c, 0, 75, 0
2, 372031, Note_on_c, 0, 63, 0
2, 372159, Note_on_c, 0, 65, 83
2, 372159, Note_on_c, 0, 77, 83
2, 372191, Note_on_c, 0, 77, 0
2, 372191, Note_on_c, 0, 65, 0
2, 372320, Note_on_c, 0, 66, 83
2, 372320, Note_on_c, 0, 78, 83
2, 372352, Note_on_c, 0, 78, 0
2, 372352, Note_on_c, 0, 66, 0
2, 372480, Note_on_c, 0, 67, 83
2, 372480, Note_on_c, 0, 79, 83
2, 372511, Note_on_c, 0, 79, 0
2, 372511, Note_on_c, 0, 67, 0
2, 372639, Note_on_c, 0, 67, 83
2, 372639, Note_on_c, 0, 79, 83
2, 372671, Note_on_c, 0, 79, 0
2, 372671, Note_on_c, 0, 67, 0
2, 372800, Note_on_c, 0, 68, 83
2, 372800, Note_on_c, 0, 80, 83
2, 372832, Note_on_c, 0, 80, 0
2, 372832, Note_on_c, 0, 68, 0
2, 372960, Note_on_c, 0, 69, 83
2, 372960, Note_on_c, 0, 81, 83
2, 372991, Note_on_c, 0, 81, 0
2, 372991, Note_on_c, 0, 69, 0
2, 373119, Note_on_c, 0, 70, 83
2, 373119, Note_on_c, 0, 82, 83
2, 373151, Note_on_c, 0, 82, 0
2, 373151, Note_on_c, 0, 70, 0
2, 373280, Note_on_c, 0, 71, 83
2, 373280, Note_on_c, 0, 83, 83
2, 373312, Note_on_c, 0, 83, 0
2, 373312, Note_on_c, 0, 71, 0
2, 373440, Note_on_c, 0, 72, 83
2, 373440, Note_on_c, 0, 84, 83
2, 373471, Note_on_c, 0, 84, 0
2, 373471, Note_on_c, 0, 72, 0
2, 373599, Note_on_c, 0, 72, 83
2, 373599, Note_on_c, 0, 84, 83
2, 373631, Note_on_c, 0, 84, 0
2, 373631, Note_on_c, 0, 72, 0
2, 373760, Note_on_c, 0, 74, 83
2, 373760, Note_on_c, 0, 86, 83
2, 373792, Note_on_c, 0, 86, 0
2, 373792, Note_on_c, 0, 74, 0
2, 373920, Note_on_c, 0, 75, 83
2, 373920, Note_on_c, 0, 87, 83
2, 373951, Note_on_c, 0, 87, 0
2, 373951, Note_on_c, 0, 75, 0
2, 374079, Note_on_c, 0, 77, 83
2, 374079, Note_on_c, 0, 89, 83
2, 374111, Note_on_c, 0, 89, 0
2, 374111, Note_on_c, 0, 77, 0
2, 374240, Note_on_c, 0, 78, 83
2, 374240, Note_on_c, 0, 90, 83
2, 374272, Note_on_c, 0, 90, 0
2, 374272, Note_on_c, 0, 78, 0
2, 374400, Note_on_c, 0, 79, 109
2, 374400, Note_on_c, 0, 84, 109
2, 374400, Note_on_c, 0, 87, 109
2, 374400, Note_on_c, 0, 91, 109
2, 374880, Note_on_c, 0, 91, 0
2, 374880, Note_on_c, 0, 79, 0
2, 374880, Note_on_c, 0, 84, 0
2, 374880, Note_on_c, 0, 87, 0
2, 374880, Note_on_c, 0, 67, 109
2, 374880, Note_on_c, 0, 72, 109
2, 374880, Note_on_c, 0, 75, 109
2, 374880, Note_on_c, 0, 79, 109
2, 375360, Note_on_c, 0, 79, 0
2, 375360, Note_on_c, 0, 67, 0
2, 375360, Note_on_c, 0, 72, 0
2, 375360, Note_on_c, 0, 75, 0
2, 375360, Note_on_c, 0, 80, 109
2, 375360, Note_on_c, 0, 83, 109
2, 375360, Note_on_c, 0, 86, 109
2, 375360, Note_on_c, 0, 92, 109
2, 376479, Note_on_c, 0, 92, 0
2, 376479, Note_on_c, 0, 80, 0
2, 376479, Note_on_c, 0, 83, 0
2, 376479, Note_on_c, 0, 86, 0
2, 376479, Note_on_c, 0, 79, 83
2, 376479, Note_on_c, 0, 91, 83
2, 376640, Note_on_c, 0, 91, 0
2, 376640, Note_on_c, 0, 79, 0
2, 376640, Note_on_c, 0, 78, 83
2, 376640, Note_on_c, 0, 90, 83
2, 376800, Note_on_c, 0, 90, 0
2, 376800, Note_on_c, 0, 78, 0
2, 376800, Note_on_c, 0, 77, 109
2, 376800, Note_on_c, 0, 80, 109
2, 376800, Note_on_c, 0, 83, 109
2, 376800, Note_on_c, 0, 89, 109
2, 376959, Note_on_c, 0, 89, 0
2, 376959, Note_on_c, 0, 77, 0
2, 376959, Note_on_c, 0, 80, 0
2, 376959, Note_on_c, 0, 83, 0
2, 376959, Note_on_c, 0, 76, 83
2, 376959, Note_on_c, 0, 88, 83
2, 377120, Note_on_c, 0, 88, 0
2, 377120, Note_on_c, 0, 76, 0
2, 377120, Note_on_c, 0, 75, 83
2, 377120, Note_on_c, 0, 87, 83
2, 377280, Note_on_c, 0, 87, 0
2, 377280, Note_on_c, 0, 75, 0
2, 377280, Note_on_c, 0, 74, 109
2, 377280, Note_on_c, 0, 77, 109
2, 377280, Note_on_c, 0, 80, 109
2, 377280, Note_on_c, 0, 86, 109
2, 377439, Note_on_c, 0, 86, 0
2, 377439, Note_on_c, 0, 74, 0
2, 377439, Note_on_c, 0, 77, 0
2, 377439, Note_on_c, 0, 80, 0
2, 377439, Note_on_c, 0, 73, 83
2, 377439, Note_on_c, 0, 85, 83
2, 377600, Note_on_c, 0, 85, 0
2, 377600, Note_on_c, 0, 73, 0
2, 377600, Note_on_c, 0, 72, 83
2, 377600, Note_on_c, 0, 84, 83
2, 377760, Note_on_c, 0, 84, 0
2, 377760, Note_on_c, 0, 72, 0
2, 377760, Note_on_c, 0, 71, 109
2, 377760, Note_on_c, 0, 74, 109
2, 377760, Note_on_c, 0, 77, 109
2, 377760, Note_on_c, 0, 83, 109
2, 377919, Note_on_c, 0, 83, 0
2, 377919, Note_on_c, 0, 71, 0
2, 377919, Note_on_c, 0, 74, 0
2, 377919, Note_on_c, 0, 77, 0
2, 377919, Note_on_c, 0, 70, 83
2, 377919, Note_on_c, 0, 82, 83
2, 378080, Note_on_c, 0, 82, 0
2, 378080, Note_on_c, 0, 70, 0
2, 378080, Note_on_c, 0, 69, 83
2, 378080, Note_on_c, 0, 81, 83
2, 378240, Note_on_c, 0, 81, 0
2, 378240, Note_on_c, 0, 69, 0
2, 378240, Note_on_c, 0, 68, 109
2, 378240, Note_on_c, 0, 71, 109
2, 378240, Note_on_c, 0, 74, 109
2, 378240, Note_on_c, 0, 80, 109
2, 378399, Note_on_c, 0, 80, 0
2, 378399, Note_on_c, 0, 68, 0
2, 378399, Note_on_c, 0, 71, 0
2, 378399, Note_on_c, 0, 74, 0
2, 378399, Note_on_c, 0, 67, 83
2, 378399, Note_on_c, 0, 79, 83
2, 378560, Note_on_c, 0, 79, 0
2, 378560, Note_on_c, 0, 67, 0
2, 378560, Note_on_c, 0, 66, 83
2, 378560, Note_on_c, 0, 78, 83
2, 378720, Note_on_c, 0, 78, 0
2, 378720, Note_on_c, 0, 66, 0
2, 378720, Note_on_c, 0, 65, 109
2, 378720, Note_on_c, 0, 68, 109
2, 378720, Note_on_c, 0, 71, 109
2, 378720, Note_on_c, 0, 77, 109
2, 378879, Note_on_c, 0, 77, 0
2, 378879, Note_on_c, 0, 65, 0
2, 378879, Note_on_c, 0, 68, 0
2, 378879, Note_on_c, 0, 71, 0
2, 378879, Note_on_c, 0, 64, 83
2, 378879, Note_on_c, 0, 76, 83
2, 379040, Note_on_c, 0, 76, 0
2, 379040, Note_on_c, 0, 64, 0
2, 379040, Note_on_c, 0, 63, 83
2, 379040, Note_on_c, 0, 75, 83
2, 379200, Note_on_c, 0, 75, 0
2, 379200, Note_on_c, 0, 63, 0
2, 379200, Note_on_c, 0, 62, 109
2, 379200, Note_on_c, 0, 65, 109
2, 379200, Note_on_c, 0, 68, 109
2, 379200, Note_on_c, 0, 74, 109
2, 379359, Note_on_c, 0, 74, 0
2, 379359, Note_on_c, 0, 62, 0
2, 379359, Note_on_c, 0, 65, 0
2, 379359, Note_on_c, 0, 68, 0
2, 379359, Note_on_c, 0, 61, 83
2, 379359, Note_on_c, 0, 73, 83
2, 379520, Note_on_c, 0, 73, 0
2, 379520, Note_on_c, 0, 61, 0
2, 379520, Note_on_c, 0, 60, 83
2, 379520, Note_on_c, 0, 72, 83
2, 379680, Note_on_c, 0, 72, 0
2, 379680, Note_on_c, 0, 60, 0
2, 379680, Note_on_c, 0, 59, 109
2, 379680, Note_on_c, 0, 62, 109
2, 379680, Note_on_c, 0, 65, 109
2, 379680, Note_on_c, 0, 71, 109
2, 379839, Note_on_c, 0, 71, 0
2, 379839, Note_on_c, 0, 59, 0
2, 379839, Note_on_c, 0, 62, 0
2, 379839, Note_on_c, 0, 65, 0
2, 379839, Note_on_c, 0, 58, 83
2, 379839, Note_on_c, 0, 70, 83
2, 380000, Note_on_c, 0, 70, 0
2, 380000, Note_on_c, 0, 58, 0
2, 380000, Note_on_c, 0, 57, 83
2, 380000, Note_on_c, 0, 69, 83
2, 380160, Note_on_c, 0, 69, 0
2, 380160, Note_on_c, 0, 57, 0
2, 380160, Note_on_c, 0, 56, 109
2, 380160, Note_on_c, 0, 59, 109
2, 380160, Note_on_c, 0, 62, 109
2, 380160, Note_on_c, 0, 68, 109
2, 380319, Note_on_c, 0, 68, 0
2, 380319, Note_on_c, 0, 56, 0
2, 380319, Note_on_c, 0, 59, 0
2, 380319, Note_on_c, 0, 62, 0
2, 380319, Note_on_c, 0, 54, 83
2, 380319, Note_on_c, 0, 66, 83
2, 380480, Note_on_c, 0, 66, 0
2, 380480, Note_on_c, 0, 54, 0
2, 380480, Note_on_c, 0, 55, 83
2, 380480, Note_on_c, 0, 67, 83
2, 380640, Note_on_c, 0, 67, 0
2, 380640, Note_on_c, 0, 55, 0
2, 380640, Note_on_c, 0, 58, 83
2, 380640, Note_on_c, 0, 70, 83
2, 380799, Note_on_c, 0, 70, 0
2, 380799, Note_on_c, 0, 58, 0
2, 380799, Note_on_c, 0, 59, 83
2, 380799, Note_on_c, 0, 71, 83
2, 380960, Note_on_c, 0, 71, 0
2, 380960, Note_on_c, 0, 59, 0
2, 380960, Note_on_c, 0, 61, 83
2, 380960, Note_on_c, 0, 73, 83
2, 381120, Note_on_c, 0, 73, 0
2, 381120, Note_on_c, 0, 61, 0
2, 381120, Note_on_c, 0, 62, 83
2, 381120, Note_on_c, 0, 74, 83
2, 381279, Note_on_c, 0, 74, 0
2, 381279, Note_on_c, 0, 62, 0
2, 381279, Note_on_c, 0, 58, 83
2, 381279, Note_on_c, 0, 70, 83
2, 381440, Note_on_c, 0, 70, 0
2, 381440, Note_on_c, 0, 58, 0
2, 381440, Note_on_c, 0, 59, 83
2, 381440, Note_on_c, 0, 71, 83
2, 381600, Note_on_c, 0, 71, 0
2, 381600, Note_on_c, 0, 59, 0
2, 381600, Note_on_c, 0, 61, 83
2, 381600, Note_on_c, 0, 73, 83
2, 381759, Note_on_c, 0, 73, 0
2, 381759, Note_on_c, 0, 61, 0
2, 381759, Note_on_c, 0, 62, 83
2, 381759, Note_on_c, 0, 74, 83
2, 381920, Note_on_c, 0, 74, 0
2, 381920, Note_on_c, 0, 62, 0
2, 381920, Note_on_c, 0, 66, 83
2, 381920, Note_on_c, 0, 78, 83
2, 382080, Note_on_c, 0, 78, 0
2, 382080, Note_on_c, 0, 66, 0
2, 382080, Note_on_c, 0, 67, 83
2, 382080, Note_on_c, 0, 79, 83
2, 382239, Note_on_c, 0, 79, 0
2, 382239, Note_on_c, 0, 67, 0
2, 382239, Note_on_c, 0, 70, 83
2, 382239, Note_on_c, 0, 82, 83
2, 382400, Note_on_c, 0, 82, 0
2, 382400, Note_on_c, 0, 70, 0
2, 382400, Note_on_c, 0, 71, 83
2, 382400, Note_on_c, 0, 83, 83
2, 382560, Note_on_c, 0, 83, 0
2, 382560, Note_on_c, 0, 71, 0
2, 382560, Note_on_c, 0, 73, 83
2, 382560, Note_on_c, 0, 85, 83
2, 382719, Note_on_c, 0, 85, 0
2, 382719, Note_on_c, 0, 73, 0
2, 382719, Note_on_c, 0, 74, 83
2, 382719, Note_on_c, 0, 86, 83
2, 382880, Note_on_c, 0, 86, 0
2, 382880, Note_on_c, 0, 74, 0
2, 382880, Note_on_c, 0, 78, 83
2, 382880, Note_on_c, 0, 90, 83
2, 383040, Note_on_c, 0, 90, 0
2, 383040, Note_on_c, 0, 78, 0
2, 383040, Note_on_c, 0, 79, 83
2, 383040, Note_on_c, 0, 91, 83
2, 383199, Note_on_c, 0, 91, 0
2, 383199, Note_on_c, 0, 79, 0
2, 383199, Note_on_c, 0, 82, 83
2, 383199, Note_on_c, 0, 94, 83
2, 383360, Note_on_c, 0, 94, 0
2, 383360, Note_on_c, 0, 82, 0
2, 383360, Note_on_c, 0, 83, 83
2, 383360, Note_on_c, 0, 95, 83
2, 383520, Note_on_c, 0, 95, 0
2, 383520, Note_on_c, 0, 83, 0
2, 383520, Note_on_c, 0, 85, 83
2, 383520, Note_on_c, 0, 97, 83
2, 383679, Note_on_c, 0, 97, 0
2, 383679, Note_on_c, 0, 85, 0
2, 383679, Note_on_c, 0, 86, 83
2, 383679, Note_on_c, 0, 98, 83
2, 383840, Note_on_c, 0, 98, 0
2, 383840, Note_on_c, 0, 86, 0
2, 383840, Note_on_c, 0, 91, 109
2, 383840, Note_on_c, 0, 103, 109
2, 384000, Note_on_c, 0, 103, 0
2, 384000, Note_on_c, 0, 91, 0
2, 479040, Control_c, 0, 64, 127
2, 479040, Note_on_c, 0, 67, 57
2, 479520, Note_on_c, 0, 67, 0
2, 479520, Note_on_c, 0, 74, 57
2, 480000, Note_on_c, 0, 74, 0
2, 480000, Note_on_c, 0, 71, 57
2, 480480, Note_on_c, 0, 71, 0
2, 480480, Note_on_c, 0, 70, 57
2, 480720, Note_on_c, 0, 70, 0
2, 480720, Control_c, 0, 64, 0
2, 480720, Note_on_c, 0, 71, 57
2, 480960, Note_on_c, 0, 71, 0
2, 480960, Note_on_c, 0, 48, 57
2, 480960, Note_on_c, 0, 55, 57
2, 480960, Note_on_c, 0, 65, 57
2, 480960, Note_on_c, 0, 67, 57
2, 482880, Note_on_c, 0, 55, 0
2, 482880, Note_on_c, 0, 48, 0
2, 483360, Note_on_c, 0, 65, 0
2, 483360, Note_on_c, 0, 67, 0
2, 486240, Control_c, 0, 64, 127
2, 486240, Note_on_c, 0, 53, 57
2, 486300, Note_on_c, 0, 53, 0
2, 486300, Note_on_c, 0, 55, 57
2, 486360, Note_on_c, 0, 55, 0
2, 486360, Note_on_c, 0, 59, 57
2, 486420, Note_on_c, 0, 59, 0
2, 486420, Note_on_c, 0, 62, 57
2, 486480, Note_on_c, 0, 62, 0
2, 486480, Note_on_c, 0, 67, 57
2, 486540, Note_on_c, 0, 67, 0
2, 486540, Note_on_c, 0, 71, 57
2, 486600, Note_on_c, 0, 71, 0
2, 486600, Note_on_c, 0, 74, 57
2, 486660, Note_on_c, 0, 74, 0
2, 486660, Control_c, 0, 64, 0
2, 486660, Note_on_c, 0, 79, 57
2, 486720, Note_on_c, 0, 79, 0
2, 486720, Control_c, 0, 64, 127
2, 486720, Note_on_c, 0, 72, 57
2, 487200, Note_on_c, 0, 72, 0
2, 487200, Note_on_c, 0, 79, 57
2, 487680, Note_on_c, 0, 79, 0
2, 487680, Note_on_c, 0, 76, 57
2, 488160, Note_on_c, 0, 76, 0
2, 488160, Note_on_c, 0, 75, 57
2, 488400, Note_on_c, 0, 75, 0
2, 488400, Control_c, 0, 64, 0
2, 488400, Note_on_c, 0, 76, 57
2, 488640, Note_on_c, 0, 76, 0
2, 488640, Control_c, 0, 64, 127
2, 488640, Note_on_c, 0, 60, 57
2, 489120, Note_on_c, 0, 60, 0
2, 489120, Note_on_c, 0, 67, 57
2, 489600, Note_on_c, 0, 67, 0
2, 489600, Note_on_c, 0, 64, 57
2, 490080, Note_on_c, 0, 64, 0
2, 490080, Note_on_c, 0, 63, 57
2, 490320, Note_on_c, 0, 63, 0
2, 490320, Control_c, 0, 64, 0
2, 490320, Note_on_c, 0, 64, 57
2, 490560, Note_on_c, 0, 64, 0
2, 490560, Note_on_c, 0, 60, 57
2, 491040, Note_on_c, 0, 60, 0
2, 492000, Note_on_c, 0, 54, 57
2, 492240, Note_on_c, 0, 54, 0
2, 492240, Note_on_c, 0, 55, 57
2, 492480, Note_on_c, 0, 55, 0
2, 492480, Note_on_c, 0, 52, 57
2, 492960, Note_on_c, 0, 52, 0
2, 493920, Control_c, 0, 64, 127
2, 493920, Note_on_c, 0, 60, 57
2, 493988, Note_on_c, 0, 60, 0
2, 493988, Note_on_c, 0, 64, 57
2, 494057, Note_on_c, 0, 64, 0
2, 494057, Note_on_c, 0, 67, 57
2, 494125, Note_on_c, 0, 67, 0
2, 494125, Note_on_c, 0, 72, 57
2, 494194, Note_on_c, 0, 72, 0
2, 494194, Note_on_c, 0, 76, 57
2, 494262, Note_on_c, 0, 76, 0
2, 494262, Note_on_c, 0, 79, 57
2, 494331, Note_on_c, 0, 79, 0
2, 494331, Control_c, 0, 64, 0
2, 494331, Note_on_c, 0, 84, 57
2, 494400, Note_on_c, 0, 84, 0
2, 494400, Control_c, 0, 64, 127
2, 494400, Note_on_c, 0, 89, 57
2, 494520, Note_on_c, 0, 89, 0
2, 494520, Note_on_c, 0, 91, 57
2, 494640, Note_on_c, 0, 91, 0
2, 494640, Note_on_c, 0, 89, 57
2, 494760, Note_on_c, 0, 89, 0
2, 494760, Note_on_c, 0, 91, 57
2, 494880, Note_on_c, 0, 91, 0
2, 494880, Note_on_c, 0, 89, 57
2, 495000, Note_on_c, 0, 89, 0
2, 495000, Note_on_c, 0, 91, 57
2, 495120, Note_on_c, 0, 91, 0
2, 495120, Note_on_c, 0, 89, 57
2, 495240, Note_on_c, 0, 89, 0
2, 495240, Note_on_c, 0, 91, 57
2, 495360, Note_on_c, 0, 91, 0
2, 495360, Note_on_c, 0, 89, 57
2, 495480, Note_on_c, 0, 89, 0
2, 495480, Note_on_c, 0, 91, 57
2, 495600, Note_on_c, 0, 91, 0
2, 495600, Note_on_c, 0, 89, 57
2, 495720, Note_on_c, 0, 89, 0
2, 495720, Note_on_c, 0, 91, 57
2, 495840, Note_on_c, 0, 91, 0
2, 495840, Note_on_c, 0, 89, 57
2, 495960, Note_on_c, 0, 89, 0
2, 495960, Note_on_c, 0, 91, 57
2, 496080, Note_on_c, 0, 91, 0
2, 496080, Note_on_c, 0, 89, 57
2, 496200, Note_on_c, 0, 89, 0
2, 496200, Note_on_c, 0, 91, 57
2, 496320, Note_on_c, 0, 91, 0
2, 496320, Note_on_c, 0, 89, 57
2, 496440, Note_on_c, 0, 89, 0
2, 496440, Note_on_c, 0, 91, 57
2, 496560, Note_on_c, 0, 91, 0
2, 496560, Note_on_c, 0, 89, 57
2, 496680, Note_on_c, 0, 89, 0
2, 496680, Note_on_c, 0, 91, 57
2, 496800, Note_on_c, 0, 91, 0
2, 496800, Note_on_c, 0, 89, 57
2, 496920, Note_on_c, 0, 89, 0
2, 496920, Note_on_c, 0, 91, 57
2, 497040, Note_on_c, 0, 91, 0
2, 497040, Note_on_c, 0, 89, 57
2, 497160, Note_on_c, 0, 89, 0
2, 497160, Note_on_c, 0, 91, 57
2, 497280, Note_on_c, 0, 91, 0
2, 497280, Note_on_c, 0, 89, 57
2, 497400, Note_on_c, 0, 89, 0
2, 497400, Note_on_c, 0, 91, 57
2, 497520, Note_on_c, 0, 91, 0
2, 497520, Note_on_c, 0, 89, 57
2, 497640, Note_on_c, 0, 89, 0
2, 497640, Note_on_c, 0, 91, 57
2, 497760, Note_on_c, 0, 91, 0
2, 497760, Note_on_c, 0, 89, 57
2, 497880, Note_on_c, 0, 89, 0
2, 497880, Note_on_c, 0, 91, 57
2, 498000, Note_on_c, 0, 91, 0
2, 498000, Note_on_c, 0, 89, 57
2, 498120, Note_on_c, 0, 89, 0
2, 498120, Note_on_c, 0, 91, 57
2, 498240, Note_on_c, 0, 91, 0
2, 498240, Note_on_c, 0, 89, 57
2, 498360, Note_on_c, 0, 89, 0
2, 498360, Note_on_c, 0, 91, 57
2, 498395, Control_c, 0, 64, 127
2, 498480, Note_on_c, 0, 91, 0
2, 498480, Note_on_c, 0, 89, 57
2, 498600, Note_on_c, 0, 89, 0
2, 498600, Note_on_c, 0, 91, 57
2, 498720, Note_on_c, 0, 91, 0
2, 498720, Note_on_c, 0, 89, 57
2, 498840, Note_on_c, 0, 89, 0
2, 498840, Note_on_c, 0, 91, 57
2, 498960, Note_on_c, 0, 91, 0
2, 498960, Note_on_c, 0, 89, 57
2, 499080, Note_on_c, 0, 89, 0
2, 499080, Note_on_c, 0, 91, 57
2, 499200, Note_on_c, 0, 91, 0
2, 499200, Note_on_c, 0, 89, 57
2, 499320, Note_on_c, 0, 89, 0
2, 499320, Note_on_c, 0, 91, 57
2, 499440, Note_on_c, 0, 91, 0
2, 499440, Note_on_c, 0, 89, 57
2, 499560, Note_on_c, 0, 89, 0
2, 499560, Note_on_c, 0, 91, 57
2, 499680, Note_on_c, 0, 91, 0
2, 499680, Note_on_c, 0, 89, 57
2, 499800, Note_on_c, 0, 89, 0
2, 499800, Note_on_c, 0, 91, 57
2, 499920, Note_on_c, 0, 91, 0
2, 499920, Note_on_c, 0, 89, 57
2, 500040, Note_on_c, 0, 89, 0
2, 500040, Note_on_c, 0, 91, 57
2, 500160, Note_on_c, 0, 91, 0
2, 500160, Note_on_c, 0, 89, 57
2, 500280, Note_on_c, 0, 89, 0
2, 500280, Note_on_c, 0, 91, 57
2, 500400, Note_on_c, 0, 91, 0
2, 500400, Note_on_c, 0, 89, 57
2, 500520, Note_on_c, 0, 89, 0
2, 500520, Note_on_c, 0, 91, 57
2, 500640, Note_on_c, 0, 91, 0
2, 500640, Note_on_c, 0, 89, 57
2, 500760, Note_on_c, 0, 89, 0
2, 500760, Note_on_c, 0, 91, 57
2, 500880, Note_on_c, 0, 91, 0
2, 500880, Note_on_c, 0, 89, 57
2, 501000, Note_on_c, 0, 89, 0
2, 501000, Note_on_c, 0, 91, 57
2, 501120, Note_on_c, 0, 91, 0
2, 501120, Note_on_c, 0, 89, 70
2, 501240, Note_on_c, 0, 89, 0
2, 501240, Note_on_c, 0, 91, 70
2, 501360, Note_on_c, 0, 91, 0
2, 501360, Note_on_c, 0, 89, 70
2, 501480, Note_on_c, 0, 89, 0
2, 501480, Note_on_c, 0, 91, 70
2, 501600, Note_on_c, 0, 91, 0
2, 501600, Note_on_c, 0, 89, 70
2, 501720, Note_on_c, 0, 89, 0
2, 501720, Note_on_c, 0, 91, 70
2, 501840, Note_on_c, 0, 91, 0
2, 501840, Control_c, 0, 64, 0
2, 501840, Note_on_c, 0, 88, 70
2, 501960, Note_on_c, 0, 88, 0
2, 501960, Note_on_c, 0, 89, 70
2, 502080, Note_on_c, 0, 89, 0
2, 502080, Note_on_c, 0, 96, 70
2, 502400, Note_on_c, 0, 96, 0
2, 502400, Note_on_c, 0, 93, 70
2, 502719, Note_on_c, 0, 93, 0
2, 502719, Note_on_c, 0, 90, 70
2, 503040, Note_on_c, 0, 90, 0
2, 503040, Note_on_c, 0, 87, 70
2, 503360, Note_on_c, 0, 87, 0
2, 503360, Note_on_c, 0, 85, 70
2, 503679, Note_on_c, 0, 85, 0
2, 503679, Note_on_c, 0, 84, 70
2, 504000, Note_on_c, 0, 84, 0
2, 504000, Note_on_c, 0, 90, 70
2, 504320, Note_on_c, 0, 90, 0
2, 504320, Note_on_c, 0, 87, 70
2, 504639, Note_on_c, 0, 87, 0
2, 504639, Note_on_c, 0, 85, 70
2, 504960, Note_on_c, 0, 85, 0
2, 504960, Note_on_c, 0, 84, 70
2, 505280, Note_on_c, 0, 84, 0
2, 505280, Note_on_c, 0, 82, 70
2, 505599, Note_on_c, 0, 82, 0
2, 505599, Note_on_c, 0, 81, 70
2, 505920, Note_on_c, 0, 81, 0
2, 505920, Control_c, 0, 64, 127
2, 505920, Note_on_c, 0, 84, 70
2, 506240, Note_on_c, 0, 84, 0
2, 506240, Note_on_c, 0, 81, 70
2, 506559, Note_on_c, 0, 81, 0
2, 506559, Note_on_c, 0, 78, 70
2, 506880, Note_on_c, 0, 78, 0
2, 506880, Note_on_c, 0, 75, 70
2, 507200, Note_on_c, 0, 75, 0
2, 507200, Note_on_c, 0, 73, 70
2, 507519, Note_on_c, 0, 73, 0
2, 507519, Control_c, 0, 64, 0
2, 507519, Note_on_c, 0, 72, 70
2, 507840, Note_on_c, 0, 72, 0
2, 507840, Control_c, 0, 64, 127
2, 507840, Note_on_c, 0, 78, 70
2, 508160, Note_on_c, 0, 78, 0
2, 508160, Note_on_c, 0, 75, 70
2, 508479, Note_on_c, 0, 75, 0
2, 508479, Note_on_c, 0, 73, 70
2, 508800, Note_on_c, 0, 73, 0
2, 508800, Note_on_c, 0, 72, 70
2, 509120, Note_on_c, 0, 72, 0
2, 509120, Note_on_c, 0, 70, 70
2, 509439, Note_on_c, 0, 70, 0
2, 509439, Control_c, 0, 64, 0
2, 509439, Note_on_c, 0, 69, 70
2, 509760, Note_on_c, 0, 69, 0
2, 509760, Control_c, 0, 64, 127
2, 509760, Note_on_c, 0, 72, 70
2, 510000, Note_on_c, 0, 72, 0
2, 510000, Note_on_c, 0, 69, 70
2, 510240, Note_on_c, 0, 69, 0
2, 510240, Note_on_c, 0, 66, 70
2, 510480, Note_on_c, 0, 66, 0
2, 510480, Control_c, 0, 64, 0
2, 510480, Note_on_c, 0, 65, 70
2, 510720, Note_on_c, 0, 65, 0
2, 510720, Control_c, 0, 64, 127
2, 510720, Note_on_c, 0, 66, 70
2, 510960, Note_on_c, 0, 66, 0
2, 510960, Note_on_c, 0, 63, 70
2, 511200, Note_on_c, 0, 63, 0
2, 511200, Note_on_c, 0, 61, 70
2, 511440, Note_on_c, 0, 61, 0
2, 511440, Control_c, 0, 64, 0
2, 511440, Note_on_c, 0, 60, 70
2, 511680, Note_on_c, 0, 60, 0
2, 511680, Control_c, 0, 64, 127
2, 511680, Note_on_c, 0, 63, 70
2, 511920, Note_on_c, 0, 63, 0
2, 511920, Note_on_c, 0, 60, 70
2, 512160, Note_on_c, 0, 60, 0
2, 512160, Note_on_c, 0, 58, 70
2, 512400, Note_on_c, 0, 58, 0
2, 512400, Control_c, 0, 64, 0
2, 512400, Note_on_c, 0, 57, 70
2, 512640, Note_on_c, 0, 57, 0
2, 512640, Control_c, 0, 64, 127
2, 512640, Note_on_c, 0, 60, 70
2, 512736, Note_on_c, 0, 60, 0
2, 512736, Note_on_c, 0, 57, 70
2, 512832, Note_on_c, 0, 57, 0
2, 512832, Note_on_c, 0, 54, 70
2, 512927, Note_on_c, 0, 54, 0
2, 512927, Note_on_c, 0, 53, 70
2, 513023, Note_on_c, 0, 53, 0
2, 513023, Note_on_c, 0, 51, 70
2, 513120, Note_on_c, 0, 51, 0
2, 513120, Note_on_c, 0, 49, 70
2, 513216, Note_on_c, 0, 49, 0
2, 513216, Note_on_c, 0, 48, 70
2, 513312, Note_on_c, 0, 48, 0
2, 513312, Note_on_c, 0, 46, 70
2, 513407, Note_on_c, 0, 46, 0
2, 513407, Note_on_c, 0, 44, 70
2, 513503, Note_on_c, 0, 44, 0
2, 513503, Control_c, 0, 64, 0
2, 513503, Note_on_c, 0, 42, 70
2, 513600, Note_on_c, 0, 42, 0
2, 514080, Note_on_c, 0, 66, 70
2, 514080, Note_on_c, 0, 72, 70
2, 514560, Note_on_c, 0, 72, 0
2, 514560, Note_on_c, 0, 66, 0
2, 514560, Note_on_c, 0, 63, 70
2, 514560, Note_on_c, 0, 69, 70
2, 515040, Note_on_c, 0, 69, 0
2, 515040, Note_on_c, 0, 63, 0
2, 515040, Note_on_c, 0, 61, 70
2, 515040, Note_on_c, 0, 67, 70
2, 515280, Note_on_c, 0, 67, 0
2, 515280, Note_on_c, 0, 61, 0
2, 515280, Note_on_c, 0, 63, 70
2, 515280, Note_on_c, 0, 69, 70
2, 515520, Note_on_c, 0, 69, 0
2, 515520, Note_on_c, 0, 63, 0
2, 515520, Note_on_c, 0, 60, 70
2, 515520, Note_on_c, 0, 65, 70
2, 515760, Note_on_c, 0, 65, 0
2, 515760, Note_on_c, 0, 60, 0
2, 516000, Note_on_c, 0, 66, 96
2, 516047, Note_on_c, 0, 66, 0
2, 516240, Control_c, 0, 64, 127
2, 516240, Note_on_c, 0, 65, 70
2, 516360, Note_on_c, 0, 65, 0
2, 516360, Note_on_c, 0, 63, 70
2, 516480, Note_on_c, 0, 63, 0
2, 516480, Note_on_c, 0, 61, 70
2, 516560, Note_on_c, 0, 61, 0
2, 516560, Note_on_c, 0, 60, 70
2, 516639, Note_on_c, 0, 60, 0
2, 516639, Note_on_c, 0, 58, 70
2, 516720, Note_on_c, 0, 58, 0
2, 516720, Note_on_c, 0, 57, 70
2, 516800, Note_on_c, 0, 57, 0
2, 516800, Note_on_c, 0, 54, 70
2, 516879, Note_on_c, 0, 54, 0
2, 516879, Note_on_c, 0, 53, 70
2, 516960, Note_on_c, 0, 53, 0
2, 516960, Note_on_c, 0, 51, 70
2, 517040, Note_on_c, 0, 51, 0
2, 517040, Note_on_c, 0, 49, 70
2, 517119, Note_on_c, 0, 49, 0
2, 517119, Note_on_c, 0, 48, 70
2, 517200, Note_on_c, 0, 48, 0
2, 517200, Note_on_c, 0, 46, 70
2, 517280, Note_on_c, 0, 46, 0
2, 517280, Note_on_c, 0, 45, 70
2, 517359, Note_on_c, 0, 45, 0
2, 517359, Note_on_c, 0, 42, 70
2, 517440, Note_on_c, 0, 42, 0
2, 517440, Control_c, 0, 64, 0
2, 517440, Note_on_c, 0, 41, 70
2, 517920, Note_on_c, 0, 41, 0
2, 517920, Note_on_c, 0, 70, 83
2, 517920, Note_on_c, 0, 73, 83
2, 518400, Note_on_c, 0, 73, 0
2, 518400, Note_on_c, 0, 70, 0
2, 518400, Note_on_c, 0, 65, 83
2, 518400, Note_on_c, 0, 70, 83
2, 518880, Note_on_c, 0, 70, 0
2, 518880, Note_on_c, 0, 65, 0
2, 518880, Note_on_c, 0, 63, 83
2, 518880, Note_on_c, 0, 69, 83
2, 519120, Note_on_c, 0, 69, 0
2, 519120, Note_on_c, 0, 63, 0
2, 519120, Note_on_c, 0, 65, 83
2, 519120, Note_on_c, 0, 70, 83
2, 519360, Note_on_c, 0, 70, 0
2, 519360, Note_on_c, 0, 65, 0
2, 519360, Note_on_c, 0, 61, 83
2, 519360, Note_on_c, 0, 65, 83
2, 519840, Note_on_c, 0, 65, 0
2, 519840, Note_on_c, 0, 61, 0
2, 519840, Note_on_c, 0, 66, 109
2, 519887, Note_on_c, 0, 66, 0
2, 520080, Control_c, 0, 64, 127
2, 520080, Note_on_c, 0, 65, 83
2, 520200, Note_on_c, 0, 65, 0
2, 520200, Note_on_c, 0, 63, 83
2, 520320, Note_on_c, 0, 63, 0
2, 520320, Note_on_c, 0, 61, 83
2, 520400, Note_on_c, 0, 61, 0
2, 520400, Note_on_c, 0, 60, 83
2, 520479, Note_on_c, 0, 60, 0
2, 520479, Note_on_c, 0, 58, 83
2, 520560, Note_on_c, 0, 58, 0
2, 520560, Note_on_c, 0, 57, 83
2, 520640, Note_on_c, 0, 57, 0
2, 520640, Note_on_c, 0, 54, 83
2, 520719, Note_on_c, 0, 54, 0
2, 520719, Note_on_c, 0, 53, 83
2, 520800, Note_on_c, 0, 53, 0
2, 520800, Note_on_c, 0, 51, 83
2, 520880, Note_on_c, 0, 51, 0
2, 520880, Note_on_c, 0, 49, 83
2, 520959, Note_on_c, 0, 49, 0
2, 520959, Note_on_c, 0, 48, 83
2, 521040, Note_on_c, 0, 48, 0
2, 521040, Note_on_c, 0, 46, 83
2, 521120, Note_on_c, 0, 46, 0
2, 521120, Note_on_c, 0, 45, 83
2, 521199, Note_on_c, 0, 45, 0
2, 521199, Note_on_c, 0, 42, 83
2, 521280, Note_on_c, 0, 42, 0
2, 521280, Control_c, 0, 64, 0
2, 521280, Note_on_c, 0, 41, 83
2, 521760, Note_on_c, 0, 41, 0
2, 521760, Note_on_c, 0, 70, 83
2, 521760, Note_on_c, 0, 76, 83
2, 522240, Note_on_c, 0, 76, 0
2, 522240, Note_on_c, 0, 70, 0
2, 522240, Note_on_c, 0, 67, 83
2, 522240, Note_on_c, 0, 73, 83
2, 522720, Note_on_c, 0, 73, 0
2, 522720, Note_on_c, 0, 67, 0
2, 522720, Note_on_c, 0, 64, 83
2, 522720, Note_on_c, 0, 72, 83
2, 522960, Note_on_c, 0, 72, 0
2, 522960, Note_on_c, 0, 64, 0
2, 522960, Note_on_c, 0, 67, 83
2, 522960, Note_on_c, 0, 73, 83
2, 523200, Note_on_c, 0, 73, 0
2, 523200, Note_on_c, 0, 67, 0
2, 523200, Note_on_c, 0, 61, 83
2, 523200, Note_on_c, 0, 70, 83
2, 523680, Note_on_c, 0, 70, 0
2, 523680, Note_on_c, 0, 61, 0
2, 523680, Note_on_c, 0, 70, 109
2, 523727, Note_on_c, 0, 70, 0
2, 523920, Control_c, 0, 64, 127
2, 523920, Note_on_c, 0, 68, 83
2, 524040, Note_on_c, 0, 68, 0
2, 524040, Note_on_c, 0, 67, 83
2, 524160, Note_on_c, 0, 67, 0
2, 524160, Note_on_c, 0, 65, 83
2, 524228, Note_on_c, 0, 65, 0
2, 524228, Note_on_c, 0, 64, 83
2, 524297, Note_on_c, 0, 64, 0
2, 524297, Note_on_c, 0, 61, 83
2, 524365, Note_on_c, 0, 61, 0
2, 524365, Note_on_c, 0, 60, 83
2, 524434, Note_on_c, 0, 60, 0
2, 524434, Note_on_c, 0, 58, 83
2, 524502, Note_on_c, 0, 58, 0
2, 524502, Note_on_c, 0, 56, 83
2, 524571, Note_on_c, 0, 56, 0
2, 524571, Note_on_c, 0, 55, 83
2, 524640, Note_on_c, 0, 55, 0
2, 524640, Note_on_c, 0, 53, 83
2, 524708, Note_on_c, 0, 53, 0
2, 524708, Note_on_c, 0, 52, 83
2, 524777, Note_on_c, 0, 52, 0
2, 524777, Note_on_c, 0, 49, 83
2, 524845, Note_on_c, 0, 49, 0
2, 524845, Note_on_c, 0, 48, 83
2, 524914, Note_on_c, 0, 48, 0
2, 524914, Note_on_c, 0, 46, 83
2, 524982, Note_on_c, 0, 46, 0
2, 524982, Note_on_c, 0, 44, 83
2, 525051, Note_on_c, 0, 44, 0
2, 525051, Control_c, 0, 64, 0
2, 525051, Note_on_c, 0, 43, 83
2, 525120, Note_on_c, 0, 43, 0
2, 525120, Note_on_c, 0, 41, 83
2, 525520, Note_on_c, 0, 70, 83
2, 525560, Note_on_c, 0, 76, 83
2, 525600, Note_on_c, 0, 41, 0
2, 525600, Note_on_c, 0, 82, 83
2, 526000, Note_on_c, 0, 67, 83
2, 526040, Note_on_c, 0, 73, 83
2, 526080, Note_on_c, 0, 82, 0
2, 526080, Note_on_c, 0, 70, 0
2, 526080, Note_on_c, 0, 76, 0
2, 526080, Note_on_c, 0, 79, 83
2, 526480, Note_on_c, 0, 70, 83
2, 526520, Note_on_c, 0, 76, 83
2, 526560, Note_on_c, 0, 79, 0
2, 526560, Note_on_c, 0, 73, 0
2, 526560, Note_on_c, 0, 67, 0
2, 526560, Note_on_c, 0, 82, 83
2, 526710, Note_on_c, 0, 73, 83
2, 526740, Note_on_c, 0, 76, 83
2, 526770, Note_on_c, 0, 82, 83
2, 526800, Note_on_c, 0, 82, 0
2, 526800, Note_on_c, 0, 76, 0
2, 526800, Note_on_c, 0, 70, 0
2, 526800, Note_on_c, 0, 85, 83
2, 526950, Note_on_c, 0, 72, 83
2, 526980, Note_on_c, 0, 77, 83
2, 527010, Note_on_c, 0, 81, 83
2, 527040, Note_on_c, 0, 85, 0
2, 527040, Note_on_c, 0, 73, 0
2, 527040, Note_on_c, 0, 82, 0
2, 527040, Note_on_c, 0, 76, 0
2, 527040, Note_on_c, 0, 84, 83
2, 527520, Note_on_c, 0, 84, 0
2, 527520, Note_on_c, 0, 77, 0
2, 527520, Note_on_c, 0, 72, 0
2, 527520, Note_on_c, 0, 81, 0
2, 527520, Note_on_c, 0, 84, 109
2, 527567, Note_on_c, 0, 84, 0
2, 527760, Note_on_c, 0, 82, 83
2, 527880, Note_on_c, 0, 82, 0
2, 527880, Note_on_c, 0, 81, 83
2, 528000, Note_on_c, 0, 81, 0
2, 528000, Control_c, 0, 64, 127
2, 528000, Note_on_c, 0, 78, 83
2, 528043, Note_on_c, 0, 78, 0
2, 528043, Note_on_c, 0, 77, 83
2, 528087, Note_on_c, 0, 77, 0
2, 528087, Note_on_c, 0, 75, 83
2, 528130, Note_on_c, 0, 75, 0
2, 528130, Note_on_c, 0, 73, 83
2, 528174, Note_on_c, 0, 73, 0
2, 528174, Note_on_c, 0, 72, 83
2, 528217, Note_on_c, 0, 72, 0
2, 528217, Note_on_c, 0, 70, 83
2, 528262, Note_on_c, 0, 70, 0
2, 528262, Note_on_c, 0, 69, 83
2, 528305, Note_on_c, 0, 69, 0
2, 528305, Note_on_c, 0, 66, 83
2, 528349, Note_on_c, 0, 66, 0
2, 528349, Note_on_c, 0, 65, 83
2, 528392, Note_on_c, 0, 65, 0
2, 528392, Note_on_c, 0, 63, 83
2, 528436, Note_on_c, 0, 63, 0
2, 528436, Note_on_c, 0, 61, 83
2, 528480, Note_on_c, 0, 61, 0
2, 528480, Note_on_c, 0, 60, 83
2, 528523, Note_on_c, 0, 60, 0
2, 528523, Note_on_c, 0, 58, 83
2, 528567, Note_on_c, 0, 58, 0
2, 528567, Note_on_c, 0, 57, 83
2, 528610, Note_on_c, 0, 57, 0
2, 528610, Note_on_c, 0, 54, 83
2, 528654, Note_on_c, 0, 54, 0
2, 528654, Note_on_c, 0, 53, 83
2, 528697, Note_on_c, 0, 53, 0
2, 528697, Note_on_c, 0, 51, 83
2, 528742, Note_on_c, 0, 51, 0
2, 528742, Note_on_c, 0, 49, 83
2, 528785, Note_on_c, 0, 49, 0
2, 528785, Note_on_c, 0, 48, 83
2, 528829, Note_on_c, 0, 48, 0
2, 528829, Note_on_c, 0, 46, 83
2, 528872, Note_on_c, 0, 46, 0
2, 528872, Note_on_c, 0, 45, 83
2, 528916, Note_on_c, 0, 45, 0
2, 528916, Note_on_c, 0, 42, 83
2, 528960, Note_on_c, 0, 42, 0
2, 528960, Control_c, 0, 64, 0
2, 528960, Note_on_c, 0, 41, 83
2, 529440, Note_on_c, 0, 41, 0
2, 529440, Note_on_c, 0, 66, 70
2, 529440, Note_on_c, 0, 72, 70
2, 529920, Note_on_c, 0, 72, 0
2, 529920, Note_on_c, 0, 66, 0
2, 529920, Note_on_c, 0, 63, 70
2, 529920, Note_on_c, 0, 69, 70
2, 530400, Note_on_c, 0, 69, 0
2, 530400, Note_on_c, 0, 63, 0
2, 530400, Note_on_c, 0, 61, 70
2, 530400, Note_on_c, 0, 67, 70
2, 530640, Note_on_c, 0, 67, 0
2, 530640, Note_on_c, 0, 61, 0
2, 530640, Note_on_c, 0, 63, 70
2, 530640, Note_on_c, 0, 69, 70
2, 530880, Note_on_c, 0, 69, 0
2, 530880, Note_on_c, 0, 63, 0
2, 530880, Note_on_c, 0, 60, 70
2, 530880, Note_on_c, 0, 65, 70
2, 531120, Note_on_c, 0, 65, 0
2, 531120, Note_on_c, 0, 60, 0
2, 531360, Note_on_c, 0, 66, 96
2, 531407, Note_on_c, 0, 66, 0
2, 531600, Control_c, 0, 64, 127
2, 531600, Note_on_c, 0, 65, 70
2, 531720, Note_on_c, 0, 65, 0
2, 531720, Note_on_c, 0, 63, 70
2, 531840, Note_on_c, 0, 63, 0
2, 531840, Note_on_c, 0, 61, 70
2, 531920, Note_on_c, 0, 61, 0
2, 531920, Note_on_c, 0, 60, 70
2, 531999, Note_on_c, 0, 60, 0
2, 531999, Note_on_c, 0, 58, 70
2, 532080, Note_on_c, 0, 58, 0
2, 532080, Note_on_c, 0, 57, 70
2, 532160, Note_on_c, 0, 57, 0
2, 532160, Note_on_c, 0, 54, 70
2, 532239, Note_on_c, 0, 54, 0
2, 532239, Note_on_c, 0, 53, 70
2, 532320, Note_on_c, 0, 53, 0
2, 532320, Note_on_c, 0, 51, 70
2, 532400, Note_on_c, 0, 51, 0
2, 532400, Note_on_c, 0, 49, 70
2, 532479, Note_on_c, 0, 49, 0
2, 532479, Note_on_c, 0, 48, 70
2, 532560, Note_on_c, 0, 48, 0
2, 532560, Note_on_c, 0, 46, 70
2, 532640, Note_on_c, 0, 46, 0
2, 532640, Note_on_c, 0, 45, 70
2, 532719, Note_on_c, 0, 45, 0
2, 532719, Note_on_c, 0, 42, 70
2, 532800, Note_on_c, 0, 42, 0
2, 532800, Control_c, 0, 64, 0
2, 532800, Note_on_c, 0, 41, 70
2, 533280, Note_on_c, 0, 41, 0
2, 533280, Note_on_c, 0, 70, 83
2, 533280, Note_on_c, 0, 73, 83
2, 533760, Note_on_c, 0, 73, 0
2, 533760, Note_on_c, 0, 70, 0
2, 533760, Note_on_c, 0, 65, 83
2, 533760, Note_on_c, 0, 70, 83
2, 534240, Note_on_c, 0, 70, 0
2, 534240, Note_on_c, 0, 65, 0
2, 534240, Note_on_c, 0, 63, 83
2, 534240, Note_on_c, 0, 69, 83
2, 534480, Note_on_c, 0, 69, 0
2, 534480, Note_on_c, 0, 63, 0
2, 534480, Note_on_c, 0, 65, 83
2, 534480, Note_on_c, 0, 70, 83
2, 534720, Note_on_c, 0, 70, 0
2, 534720, Note_on_c, 0, 65, 0
2, 534720, Note_on_c, 0, 61, 83
2, 534720, Note_on_c, 0, 65, 83
2, 535200, Note_on_c, 0, 65, 0
2, 535200, Note_on_c, 0, 61, 0
2, 535200, Note_on_c, 0, 66, 109
2, 535247, Note_on_c, 0, 66, 0
2, 535440, Control_c, 0, 64, 127
2, 535440, Note_on_c, 0, 65, 83
2, 535560, Note_on_c, 0, 65, 0
2, 535560, Note_on_c, 0, 63, 83
2, 535680, Note_on_c, 0, 63, 0
2, 535680, Note_on_c, 0, 61, 83
2, 535760, Note_on_c, 0, 61, 0
2, 535760, Note_on_c, 0, 60, 83
2, 535839, Note_on_c, 0, 60, 0
2, 535839, Note_on_c, 0, 58, 83
2, 535920, Note_on_c, 0, 58, 0
2, 535920, Note_on_c, 0, 57, 83
2, 536000, Note_on_c, 0, 57, 0
2, 536000, Note_on_c, 0, 54, 83
2, 536079, Note_on_c, 0, 54, 0
2, 536079, Note_on_c, 0, 53, 83
2, 536160, Note_on_c, 0, 53, 0
2, 536160, Note_on_c, 0, 51, 83
2, 536240, Note_on_c, 0, 51, 0
2, 536240, Note_on_c, 0, 49, 83
2, 536319, Note_on_c, 0, 49, 0
2, 536319, Note_on_c, 0, 48, 83
2, 536400, Note_on_c, 0, 48, 0
2, 536400, Note_on_c, 0, 46, 83
2, 536480, Note_on_c, 0, 46, 0
2, 536480, Note_on_c, 0, 45, 83
2, 536559, Note_on_c, 0, 45, 0
2, 536559, Note_on_c, 0, 42, 83
2, 536640, Note_on_c, 0, 42, 0
2, 536640, Control_c, 0, 64, 0
2, 536640, Note_on_c, 0, 41, 83
2, 537120, Note_on_c, 0, 41, 0
2, 537120, Note_on_c, 0, 70, 83
2, 537120, Note_on_c, 0, 76, 83
2, 537600, Note_on_c, 0, 76, 0
2, 537600, Note_on_c, 0, 70, 0
2, 537600, Note_on_c, 0, 67, 83
2, 537600, Note_on_c, 0, 73, 83
2, 538080, Note_on_c, 0, 73, 0
2, 538080, Note_on_c, 0, 67, 0
2, 538080, Note_on_c, 0, 64, 83
2, 538080, Note_on_c, 0, 72, 83
2, 538320, Note_on_c, 0, 72, 0
2, 538320, Note_on_c, 0, 64, 0
2, 538320, Note_on_c, 0, 67, 83
2, 538320, Note_on_c, 0, 73, 83
2, 538560, Note_on_c, 0, 73, 0
2, 538560, Note_on_c, 0, 67, 0
2, 538560, Note_on_c, 0, 61, 83
2, 538560, Note_on_c, 0, 70, 83
2, 539040, Note_on_c, 0, 70, 0
2, 539040, Note_on_c, 0, 61, 0
2, 539040, Note_on_c, 0, 70, 109
2, 539087, Note_on_c, 0, 70, 0
2, 539280, Control_c, 0, 64, 127
2, 539280, Note_on_c, 0, 68, 83
2, 539400, Note_on_c, 0, 68, 0
2, 539400, Note_on_c, 0, 67, 83
2, 539520, Note_on_c, 0, 67, 0
2, 539520, Note_on_c, 0, 65, 83
2, 539588, Note_on_c, 0, 65, 0
2, 539588, Note_on_c, 0, 64, 83
2, 539657, Note_on_c, 0, 64, 0
2, 539657, Note_on_c, 0, 61, 83
2, 539725, Note_on_c, 0, 61, 0
2, 539725, Note_on_c, 0, 60, 83
2, 539794, Note_on_c, 0, 60, 0
2, 539794, Note_on_c, 0, 58, 83
2, 539862, Note_on_c, 0, 58, 0
2, 539862, Note_on_c, 0, 56, 83
2, 539931, Note_on_c, 0, 56, 0
2, 539931, Note_on_c, 0, 55, 83
2, 540000, Note_on_c, 0, 55, 0
2, 540000, Note_on_c, 0, 53, 83
2, 540068, Note_on_c, 0, 53, 0
2, 540068, Note_on_c, 0, 52, 83
2, 540137, Note_on_c, 0, 52, 0
2, 540137, Note_on_c, 0, 49, 83
2, 540205, Note_on_c, 0, 49, 0
2, 540205, Note_on_c, 0, 48, 83
2, 540274, Note_on_c, 0, 48, 0
2, 540274, Note_on_c, 0, 46, 83
2, 540342, Note_on_c, 0, 46, 0
2, 540342, Note_on_c, 0, 44, 83
2, 540411, Note_on_c, 0, 44, 0
2, 540411, Control_c, 0, 64, 0
2, 540411, Note_on_c, 0, 43, 83
2, 540480, Note_on_c, 0, 43, 0
2, 540480, Note_on_c, 0, 41, 83
2, 540960, Note_on_c, 0, 41, 0
2, 540960, Note_on_c, 0, 67, 83
2, 540960, Note_on_c, 0, 70, 83
2, 540960, Note_on_c, 0, 79, 83
2, 541440, Note_on_c, 0, 79, 0
2, 541440, Note_on_c, 0, 70, 0
2, 541440, Note_on_c, 0, 67, 0
2, 541440, Note_on_c, 0, 64, 83
2, 541440, Note_on_c, 0, 70, 83
2, 541440, Note_on_c, 0, 76, 83
2, 541920, Note_on_c, 0, 76, 0
2, 541920, Note_on_c, 0, 70, 0
2, 541920, Note_on_c, 0, 64, 0
2, 541920, Note_on_c, 0, 63, 83
2, 541920, Note_on_c, 0, 67, 83
2, 541920, Note_on_c, 0, 75, 83
2, 542160, Note_on_c, 0, 75, 0
2, 542160, Note_on_c, 0, 67, 0
2, 542160, Note_on_c, 0, 63, 0
2, 542160, Note_on_c, 0, 64, 83
2, 542160, Note_on_c, 0, 67, 83
2, 542160, Note_on_c, 0, 76, 83
2, 542400, Note_on_c, 0, 76, 0
2, 542400, Note_on_c, 0, 67, 0
2, 542400, Note_on_c, 0, 64, 0
2, 542400, Note_on_c, 0, 61, 83
2, 542400, Note_on_c, 0, 67, 83
2, 542400, Note_on_c, 0, 73, 83
2, 542880, Note_on_c, 0, 73, 0
2, 542880, Note_on_c, 0, 67, 0
2, 542880, Note_on_c, 0, 61, 0
2, 542880, Note_on_c, 0, 79, 109
2, 542927, Note_on_c, 0, 79, 0
2, 543120, Note_on_c, 0, 77, 83
2, 543240, Note_on_c, 0, 77, 0
2, 543240, Note_on_c, 0, 76, 83
2, 543360, Note_on_c, 0, 76, 0
2, 543360, Control_c, 0, 64, 127
2, 543360, Note_on_c, 0, 73, 83
2, 543413, Note_on_c, 0, 73, 0
2, 543413, Note_on_c, 0, 72, 83
2, 543466, Note_on_c, 0, 72, 0
2, 543466, Note_on_c, 0, 70, 83
2, 543519, Note_on_c, 0, 70, 0
2, 543519, Note_on_c, 0, 68, 83
2, 543573, Note_on_c, 0, 68, 0
2, 543573, Note_on_c, 0, 67, 83
2, 543626, Note_on_c, 0, 67, 0
2, 543626, Note_on_c, 0, 65, 83
2, 543680, Note_on_c, 0, 65, 0
2, 543680, Note_on_c, 0, 64, 83
2, 543733, Note_on_c, 0, 64, 0
2, 543733, Note_on_c, 0, 61, 83
2, 543786, Note_on_c, 0, 61, 0
2, 543786, Note_on_c, 0, 60, 83
2, 543840, Note_on_c, 0, 60, 0
2, 543840, Note_on_c, 0, 58, 83
2, 543887, Note_on_c, 0, 58, 0
2, 543887, Note_on_c, 0, 56, 83
2, 543936, Note_on_c, 0, 56, 0
2, 543936, Note_on_c, 0, 55, 83
2, 543983, Note_on_c, 0, 55, 0
2, 543983, Note_on_c, 0, 53, 83
2, 544032, Note_on_c, 0, 53, 0
2, 544032, Note_on_c, 0, 52, 83
2, 544080, Note_on_c, 0, 52, 0
2, 544080, Note_on_c, 0, 49, 83
2, 544127, Note_on_c, 0, 49, 0
2, 544127, Note_on_c, 0, 48, 83
2, 544176, Note_on_c, 0, 48, 0
2, 544176, Note_on_c, 0, 46, 83
2, 544223, Note_on_c, 0, 46, 0
2, 544223, Note_on_c, 0, 44, 83
2, 544272, Note_on_c, 0, 44, 0
2, 544272, Note_on_c, 0, 43, 83
2, 544320, Note_on_c, 0, 43, 0
2, 544320, Control_c, 0, 64, 0
2, 544320, Note_on_c, 0, 41, 83
2, 544720, Note_on_c, 0, 70, 83
2, 544760, Note_on_c, 0, 76, 83
2, 544800, Note_on_c, 0, 41, 0
2, 544800, Control_c, 0, 64, 127
2, 544800, Note_on_c, 0, 82, 83
2, 545200, Note_on_c, 0, 67, 83
2, 545240, Note_on_c, 0, 73, 83
2, 545280, Note_on_c, 0, 82, 0
2, 545280, Note_on_c, 0, 70, 0
2, 545280, Note_on_c, 0, 76, 0
2, 545280, Note_on_c, 0, 79, 83
2, 545760, Note_on_c, 0, 79, 0
2, 545760, Note_on_c, 0, 67, 0
2, 545760, Note_on_c, 0, 73, 0
2, 545760, Note_on_c, 0, 66, 83
2, 545760, Note_on_c, 0, 73, 83
2, 545760, Note_on_c, 0, 78, 83
2, 546000, Note_on_c, 0, 78, 0
2, 546000, Note_on_c, 0, 73, 0
2, 546000, Note_on_c, 0, 66, 0
2, 546000, Control_c, 0, 64, 0
2, 546000, Note_on_c, 0, 67, 83
2, 546000, Note_on_c, 0, 73, 83
2, 546000, Note_on_c, 0, 79, 83
2, 546240, Note_on_c, 0, 79, 0
2, 546240, Note_on_c, 0, 73, 0
2, 546240, Note_on_c, 0, 67, 0
2, 546240, Note_on_c, 0, 64, 83
2, 546240, Note_on_c, 0, 70, 83
2, 546240, Note_on_c, 0, 76, 83
2, 546640, Note_on_c, 0, 73, 83
2, 546680, Note_on_c, 0, 79, 83
2, 546720, Note_on_c, 0, 76, 0
2, 546720, Note_on_c, 0, 64, 0
2, 546720, Note_on_c, 0, 70, 0
2, 546720, Control_c, 0, 64, 127
2, 546720, Note_on_c, 0, 85, 83
2, 547120, Note_on_c, 0, 70, 83
2, 547160, Note_on_c, 0, 76, 83
2, 547200, Note_on_c, 0, 85, 0
2, 547200, Note_on_c, 0, 79, 0
2, 547200, Note_on_c, 0, 73, 0
2, 547200, Note_on_c, 0, 82, 83
2, 547680, Note_on_c, 0, 82, 0
2, 547680, Note_on_c, 0, 70, 0
2, 547680, Note_on_c, 0, 76, 0
2, 547680, Note_on_c, 0, 69, 83
2, 547680, Note_on_c, 0, 75, 83
2, 547680, Note_on_c, 0, 81, 83
2, 547920, Note_on_c, 0, 81, 0
2, 547920, Note_on_c, 0, 75, 0
2, 547920, Note_on_c, 0, 69, 0
2, 547920, Control_c, 0, 64, 0
2, 547920, Note_on_c, 0, 70, 83
2, 547920, Note_on_c, 0, 76, 83
2, 547920, Note_on_c, 0, 82, 83
2, 548160, Note_on_c, 0, 82, 0
2, 548160, Note_on_c, 0, 76, 0
2, 548160, Note_on_c, 0, 70, 0
2, 548160, Note_on_c, 0, 67, 83
2, 548160, Note_on_c, 0, 73, 83
2, 548160, Note_on_c, 0, 79, 83
2, 548400, Note_on_c, 0, 79, 0
2, 548400, Note_on_c, 0, 73, 0
2, 548400, Note_on_c, 0, 67, 0
2, 548400, Note_on_c, 0, 76, 83
2, 548400, Note_on_c, 0, 82, 83
2, 548400, Note_on_c, 0, 88, 83
2, 548640, Note_on_c, 0, 88, 0
2, 548640, Note_on_c, 0, 82, 0
2, 548640, Note_on_c, 0, 76, 0
2, 548640, Note_on_c, 0, 75, 83
2, 548640, Note_on_c, 0, 81, 83
2, 548640, Note_on_c, 0, 87, 83
2, 548880, Note_on_c, 0, 87, 0
2, 548880, Note_on_c, 0, 81, 0
2, 548880, Note_on_c, 0, 75, 0
2, 548880, Note_on_c, 0, 76, 83
2, 548880, Note_on_c, 0, 82, 83
2, 548880, Note_on_c, 0, 88, 83
2, 549120, Note_on_c, 0, 88, 0
2, 549120, Note_on_c, 0, 82, 0
2, 549120, Note_on_c, 0, 76, 0
2, 549120, Note_on_c, 0, 73, 83
2, 549120, Note_on_c, 0, 79, 83
2, 549120, Note_on_c, 0, 85, 83
2, 549360, Note_on_c, 0, 85, 0
2, 549360, Note_on_c, 0, 79, 0
2, 549360, Note_on_c, 0, 73, 0
2, 549360, Note_on_c, 0, 79, 83
2, 549360, Note_on_c, 0, 85, 83
2, 549360, Note_on_c, 0, 91, 83
2, 549600, Note_on_c, 0, 91, 0
2, 549600, Note_on_c, 0, 85, 0
2, 549600, Note_on_c, 0, 79, 0
2, 549600, Note_on_c, 0, 78, 83
2, 549600, Note_on_c, 0, 84, 83
2, 549600, Note_on_c, 0, 90, 83
2, 549840, Note_on_c, 0, 90, 0
2, 549840, Note_on_c, 0, 84, 0
2, 549840, Note_on_c, 0, 78, 0
2, 549840, Note_on_c, 0, 79, 83
2, 549840, Note_on_c, 0, 85, 83
2, 549840, Note_on_c, 0, 91, 83
2, 550080, Note_on_c, 0, 91, 0
2, 550080, Note_on_c, 0, 85, 0
2, 550080, Note_on_c, 0, 79, 0
2, 550080, Note_on_c, 0, 76, 83
2, 550080, Note_on_c, 0, 82, 83
2, 550080, Note_on_c, 0, 88, 83
2, 550320, Note_on_c, 0, 88, 0
2, 550320, Note_on_c, 0, 82, 0
2, 550320, Note_on_c, 0, 76, 0
2, 550320, Note_on_c, 0, 82, 83
2, 550320, Note_on_c, 0, 88, 83
2, 550320, Note_on_c, 0, 94, 83
2, 550560, Note_on_c, 0, 94, 0
2, 550560, Note_on_c, 0, 88, 0
2, 550560, Note_on_c, 0, 82, 0
2, 550560, Note_on_c, 0, 81, 83
2, 550560, Note_on_c, 0, 87, 83
2, 550560, Note_on_c, 0, 93, 83
2, 550800, Note_on_c, 0, 93, 0
2, 550800, Note_on_c, 0, 87, 0
2, 550800, Note_on_c, 0, 81, 0
2, 550800, Note_on_c, 0, 82, 83
2, 550800, Note_on_c, 0, 88, 83
2, 550800, Note_on_c, 0, 94, 83
2, 551040, Note_on_c, 0, 94, 0
2, 551040, Note_on_c, 0, 88, 0
2, 551040, Note_on_c, 0, 82, 0
2, 551040, Note_on_c, 0, 79, 83
2, 551040, Note_on_c, 0, 85, 83
2, 551040, Note_on_c, 0, 91, 83
2, 551280, Note_on_c, 0, 91, 0
2, 551280, Note_on_c, 0, 85, 0
2, 551280, Note_on_c, 0, 79, 0
2, 551280, Note_on_c, 0, 85, 83
2, 551280, Note_on_c, 0, 91, 83
2, 551280, Note_on_c, 0, 97, 83
2, 551520, Note_on_c, 0, 97, 0
2, 551520, Note_on_c, 0, 91, 0
2, 551520, Note_on_c, 0, 85, 0
2, 551520, Note_on_c, 0, 84, 83
2, 551520, Note_on_c, 0, 90, 83
2, 551520, Note_on_c, 0, 96, 83
2, 551760, Note_on_c, 0, 96, 0
2, 551760, Note_on_c, 0, 90, 0
2, 551760, Note_on_c, 0, 84, 0
2, 551760, Note_on_c, 0, 85, 83
2, 551760, Note_on_c, 0, 91, 83
2, 551760, Note_on_c, 0, 97, 83
2, 552000, Note_on_c, 0, 97, 0
2, 552000, Note_on_c, 0, 91, 0
2, 552000, Note_on_c, 0, 85, 0
2, 552000, Note_on_c, 0, 82, 83
2, 552000, Note_on_c, 0, 88, 83
2, 552000, Note_on_c, 0, 94, 83
2, 552480, Note_on_c, 0, 94, 0
2, 552480, Note_on_c, 0, 88, 0
2, 552480, Note_on_c, 0, 82, 0
2, 552480, Note_on_c, 0, 103, 122
2, 552527, Note_on_c, 0, 103, 0
2, 552720, Control_c, 0, 64, 127
2, 552720, Note_on_c, 0, 101, 96
2, 552840, Note_on_c, 0, 101, 0
2, 552840, Note_on_c, 0, 100, 96
2, 552960, Note_on_c, 0, 100, 0
2, 552960, Note_on_c, 0, 97, 96
2, 553040, Note_on_c, 0, 97, 0
2, 553040, Note_on_c, 0, 96, 96
2, 553119, Note_on_c, 0, 96, 0
2, 553119, Note_on_c, 0, 94, 96
2, 553200, Note_on_c, 0, 94, 0
2, 553200, Note_on_c, 0, 92, 96
2, 553280, Note_on_c, 0, 92, 0
2, 553280, Note_on_c, 0, 91, 96
2, 553359, Note_on_c, 0, 91, 0
2, 553359, Note_on_c, 0, 89, 96
2, 553440, Note_on_c, 0, 89, 0
2, 553440, Note_on_c, 0, 88, 96
2, 553536, Note_on_c, 0, 88, 0
2, 553536, Note_on_c, 0, 85, 96
2, 553632, Note_on_c, 0, 85, 0
2, 553632, Note_on_c, 0, 84, 96
2, 553727, Note_on_c, 0, 84, 0
2, 553727, Note_on_c, 0, 82, 96
2, 553823, Note_on_c, 0, 82, 0
2, 553823, Note_on_c, 0, 80, 96
2, 553920, Note_on_c, 0, 80, 0
2, 553920, Note_on_c, 0, 79, 96
2, 554000, Note_on_c, 0, 79, 0
2, 554000, Note_on_c, 0, 77, 96
2, 554079, Note_on_c, 0, 77, 0
2, 554079, Note_on_c, 0, 76, 96
2, 554160, Note_on_c, 0, 76, 0
2, 554160, Note_on_c, 0, 73, 96
2, 554240, Note_on_c, 0, 73, 0
2, 554240, Note_on_c, 0, 72, 96
2, 554319, Note_on_c, 0, 72, 0
2, 554319, Note_on_c, 0, 70, 96
2, 554400, Note_on_c, 0, 70, 0
2, 554400, Note_on_c, 0, 68, 96
2, 554480, Note_on_c, 0, 68, 0
2, 554480, Note_on_c, 0, 67, 96
2, 554559, Note_on_c, 0, 67, 0
2, 554559, Note_on_c, 0, 65, 96
2, 554640, Note_on_c, 0, 65, 0
2, 554640, Note_on_c, 0, 64, 96
2, 554720, Note_on_c, 0, 64, 0
2, 554720, Note_on_c, 0, 61, 96
2, 554799, Note_on_c, 0, 61, 0
2, 554799, Note_on_c, 0, 60, 96
2, 554880, Note_on_c, 0, 60, 0
2, 554880, Note_on_c, 0, 58, 96
2, 554960, Note_on_c, 0, 58, 0
2, 554960, Note_on_c, 0, 56, 96
2, 555039, Note_on_c, 0, 56, 0
2, 555039, Note_on_c, 0, 55, 96
2, 555120, Note_on_c, 0, 55, 0
2, 555120, Note_on_c, 0, 53, 96
2, 555200, Note_on_c, 0, 53, 0
2, 555200, Note_on_c, 0, 52, 96
2, 555279, Note_on_c, 0, 52, 0
2, 555279, Note_on_c, 0, 49, 96
2, 555360, Note_on_c, 0, 49, 0
2, 555360, Note_on_c, 0, 48, 96
2, 555440, Note_on_c, 0, 48, 0
2, 555440, Note_on_c, 0, 46, 96
2, 555519, Note_on_c, 0, 46, 0
2, 555519, Note_on_c, 0, 44, 96
2, 555600, Note_on_c, 0, 44, 0
2, 555600, Note_on_c, 0, 43, 96
2, 555720, Note_on_c, 0, 43, 0
2, 555720, Control_c, 0, 64, 0
2, 555720, Note_on_c, 0, 41, 96
2, 555840, Note_on_c, 0, 41, 0
2, 555840, Control_c, 0, 64, 127
2, 555840, Note_on_c, 0, 40, 83
2, 555900, Note_on_c, 0, 40, 0
2, 555900, Note_on_c, 0, 41, 83
2, 555960, Note_on_c, 0, 41, 0
2, 555960, Note_on_c, 0, 43, 83
2, 556020, Note_on_c, 0, 43, 0
2, 556020, Note_on_c, 0, 44, 83
2, 556080, Note_on_c, 0, 44, 0
2, 556080, Note_on_c, 0, 46, 96
2, 556140, Note_on_c, 0, 46, 0
2, 556140, Note_on_c, 0, 48, 96
2, 556200, Note_on_c, 0, 48, 0
2, 556200, Note_on_c, 0, 49, 96
2, 556260, Note_on_c, 0, 49, 0
2, 556260, Control_c, 0, 64, 0
2, 556260, Note_on_c, 0, 51, 96
2, 556320, Note_on_c, 0, 51, 0
2, 556320, Control_c, 0, 64, 127
2, 556320, Note_on_c, 0, 52, 96
2, 556400, Note_on_c, 0, 52, 0
2, 556400, Note_on_c, 0, 51, 96
2, 556479, Note_on_c, 0, 51, 0
2, 556479, Note_on_c, 0, 49, 96
2, 556560, Note_on_c, 0, 49, 0
2, 556560, Note_on_c, 0, 48, 83
2, 556640, Note_on_c, 0, 48, 0
2, 556640, Note_on_c, 0, 46, 83
2, 556719, Note_on_c, 0, 46, 0
2, 556719, Control_c, 0, 64, 0
2, 556719, Note_on_c, 0, 44, 83
2, 556800, Note_on_c, 0, 44, 0
2, 556800, Control_c, 0, 64, 127
2, 556800, Note_on_c, 0, 43, 83
2, 556868, Note_on_c, 0, 43, 0
2, 556868, Note_on_c, 0, 44, 83
2, 556937, Note_on_c, 0, 44, 0
2, 556937, Note_on_c, 0, 46, 83
2, 557005, Note_on_c, 0, 46, 0
2, 557005, Note_on_c, 0, 48, 83
2, 557074, Note_on_c, 0, 48, 0
2, 557074, Note_on_c, 0, 49, 96
2, 557142, Note_on_c, 0, 49, 0
2, 557142, Note_on_c, 0, 52, 96
2, 557211, Note_on_c, 0, 52, 0
2, 557211, Control_c, 0, 64, 0
2, 557211, Note_on_c, 0, 53, 96
2, 557280, Note_on_c, 0, 53, 0
2, 557280, Control_c, 0, 64, 127
2, 557280, Note_on_c, 0, 55, 96
2, 557376, Note_on_c, 0, 55, 0
2, 557376, Note_on_c, 0, 53, 96
2, 557472, Note_on_c, 0, 53, 0
2, 557472, Note_on_c, 0, 52, 83
2, 557567, Note_on_c, 0, 52, 0
2, 557567, Note_on_c, 0, 49, 83
2, 557663, Note_on_c, 0, 49, 0
2, 557663, Control_c, 0, 64, 0
2, 557663, Note_on_c, 0, 48, 83
2, 557760, Note_on_c, 0, 48, 0
2, 557760, Control_c, 0, 64, 127
2, 557760, Note_on_c, 0, 46, 83
2, 557820, Note_on_c, 0, 46, 0
2, 557820, Note_on_c, 0, 48, 83
2, 557880, Note_on_c, 0, 48, 0
2, 557880, Note_on_c, 0, 49, 83
2, 557940, Note_on_c, 0, 49, 0
2, 557940, Note_on_c, 0, 51, 83
2, 558000, Note_on_c, 0, 51, 0
2, 558000, Note_on_c, 0, 52, 96
2, 558060, Note_on_c, 0, 52, 0
2, 558060, Note_on_c, 0, 53, 96
2, 558120, Note_on_c, 0, 53, 0
2, 558120, Note_on_c, 0, 55, 96
2, 558180, Note_on_c, 0, 55, 0
2, 558180, Control_c, 0, 64, 0
2, 558180, Note_on_c, 0, 56, 96
2, 558240, Note_on_c, 0, 56, 0
2, 558240, Control_c, 0, 64, 127
2, 558240, Note_on_c, 0, 58, 96
2, 558320, Note_on_c, 0, 58, 0
2, 558320, Note_on_c, 0, 56, 96
2, 558399, Note_on_c, 0, 56, 0
2, 558399, Note_on_c, 0, 55, 96
2, 558480, Note_on_c, 0, 55, 0
2, 558480, Note_on_c, 0, 53, 83
2, 558560, Note_on_c, 0, 53, 0
2, 558560, Note_on_c, 0, 52, 83
2, 558639, Note_on_c, 0, 52, 0
2, 558639, Control_c, 0, 64, 0
2, 558639, Note_on_c, 0, 51, 83
2, 558720, Note_on_c, 0, 51, 0
2, 558720, Control_c, 0, 64, 127
2, 558720, Note_on_c, 0, 49, 83
2, 558788, Note_on_c, 0, 49, 0
2, 558788, Note_on_c, 0, 51, 83
2, 558857, Note_on_c, 0, 51, 0
2, 558857, Note_on_c, 0, 53, 83
2, 558925, Note_on_c, 0, 53, 0
2, 558925, Note_on_c, 0, 55, 83
2, 558994, Note_on_c, 0, 55, 0
2, 558994, Note_on_c, 0, 56, 96
2, 559062, Note_on_c, 0, 56, 0
2, 559062, Note_on_c, 0, 58, 96
2, 559131, Note_on_c, 0, 58, 0
2, 559131, Control_c, 0, 64, 0
2, 559131, Note_on_c, 0, 60, 96
2, 559200, Note_on_c, 0, 60, 0
2, 559200, Control_c, 0, 64, 127
2, 559200, Note_on_c, 0, 61, 96
2, 559280, Note_on_c, 0, 61, 0
2, 559280, Note_on_c, 0, 60, 96
2, 559359, Note_on_c, 0, 60, 0
2, 559359, Note_on_c, 0, 58, 96
2, 559440, Note_on_c, 0, 58, 0
2, 559440, Note_on_c, 0, 56, 83
2, 559520, Note_on_c, 0, 56, 0
2, 559520, Note_on_c, 0, 55, 83
2, 559599, Note_on_c, 0, 55, 0
2, 559599, Control_c, 0, 64, 0
2, 559599, Note_on_c, 0, 53, 83
2, 559680, Note_on_c, 0, 53, 0
2, 559680, Control_c, 0, 64, 127
2, 559680, Note_on_c, 0, 52, 83
2, 559740, Note_on_c, 0, 52, 0
2, 559740, Note_on_c, 0, 53, 83
2, 559800, Note_on_c, 0, 53, 0
2, 559800, Note_on_c, 0, 55, 83
2, 559860, Note_on_c, 0, 55, 0
2, 559860, Note_on_c, 0, 56, 83
2, 559920, Note_on_c, 0, 56, 0
2, 559920, Note_on_c, 0, 58, 96
2, 559980, Note_on_c, 0, 58, 0
2, 559980, Note_on_c, 0, 60, 96
2, 560040, Note_on_c, 0, 60, 0
2, 560040, Note_on_c, 0, 61, 96
2, 560100, Note_on_c, 0, 61, 0
2, 560100, Control_c, 0, 64, 0
2, 560100, Note_on_c, 0, 63, 96
2, 560160, Note_on_c, 0, 63, 0
2, 560160, Control_c, 0, 64, 127
2, 560160, Note_on_c, 0, 64, 96
2, 560220, Note_on_c, 0, 64, 0
2, 560220, Note_on_c, 0, 60, 96
2, 560280, Note_on_c, 0, 60, 0
2, 560280, Note_on_c, 0, 61, 96
2, 560340, Note_on_c, 0, 61, 0
2, 560340, Note_on_c, 0, 63, 96
2, 560400, Note_on_c, 0, 63, 0
2, 560400, Note_on_c, 0, 64, 96
2, 560460, Note_on_c, 0, 64, 0
2, 560460, Note_on_c, 0, 65, 96
2, 560520, Note_on_c, 0, 65, 0
2, 560520, Note_on_c, 0, 67, 96
2, 560580, Note_on_c, 0, 67, 0
2, 560580, Control_c, 0, 64, 0
2, 560580, Note_on_c, 0, 68, 96
2, 560640, Note_on_c, 0, 68, 0
2, 560640, Control_c, 0, 64, 127
2, 560640, Note_on_c, 0, 70, 96
2, 560708, Note_on_c, 0, 70, 0
2, 560708, Note_on_c, 0, 64, 96
2, 560777, Note_on_c, 0, 64, 0
2, 560777, Note_on_c, 0, 65, 96
2, 560845, Note_on_c, 0, 65, 0
2, 560845, Note_on_c, 0, 67, 96
2, 560914, Note_on_c, 0, 67, 0
2, 560914, Note_on_c, 0, 68, 96
2, 560982, Note_on_c, 0, 68, 0
2, 560982, Note_on_c, 0, 70, 96
2, 561051, Note_on_c, 0, 70, 0
2, 561051, Control_c, 0, 64, 0
2, 561051, Note_on_c, 0, 72, 96
2, 561120, Note_on_c, 0, 72, 0
2, 561120, Control_c, 0, 64, 127
2, 561120, Note_on_c, 0, 73, 96
2, 561188, Note_on_c, 0, 73, 0
2, 561188, Note_on_c, 0, 67, 96
2, 561257, Note_on_c, 0, 67, 0
2, 561257, Note_on_c, 0, 68, 96
2, 561325, Note_on_c, 0, 68, 0
2, 561325, Note_on_c, 0, 70, 96
2, 561394, Note_on_c, 0, 70, 0
2, 561394, Note_on_c, 0, 72, 96
2, 561462, Note_on_c, 0, 72, 0
2, 561462, Note_on_c, 0, 73, 96
2, 561531, Note_on_c, 0, 73, 0
2, 561531, Control_c, 0, 64, 0
2, 561531, Note_on_c, 0, 75, 96
2, 561600, Note_on_c, 0, 75, 0
2, 561600, Control_c, 0, 64, 127
2, 561600, Note_on_c, 0, 76, 96
2, 561660, Note_on_c, 0, 76, 0
2, 561660, Note_on_c, 0, 72, 96
2, 561720, Note_on_c, 0, 72, 0
2, 561720, Note_on_c, 0, 73, 96
2, 561780, Note_on_c, 0, 73, 0
2, 561780, Note_on_c, 0, 75, 96
2, 561840, Note_on_c, 0, 75, 0
2, 561840, Note_on_c, 0, 76, 96
2, 561900, Note_on_c, 0, 76, 0
2, 561900, Note_on_c, 0, 77, 96
2, 561960, Note_on_c, 0, 77, 0
2, 561960, Note_on_c, 0, 79, 96
2, 562020, Note_on_c, 0, 79, 0
2, 562020, Control_c, 0, 64, 0
2, 562020, Note_on_c, 0, 80, 96
2, 562080, Note_on_c, 0, 80, 0
2, 562080, Control_c, 0, 64, 127
2, 562080, Note_on_c, 0, 82, 96
2, 562148, Note_on_c, 0, 82, 0
2, 562148, Note_on_c, 0, 76, 96
2, 562217, Note_on_c, 0, 76, 0
2, 562217, Note_on_c, 0, 77, 96
2, 562285, Note_on_c, 0, 77, 0
2, 562285, Note_on_c, 0, 79, 96
2, 562354, Note_on_c, 0, 79, 0
2, 562354, Note_on_c, 0, 80, 96
2, 562422, Note_on_c, 0, 80, 0
2, 562422, Note_on_c, 0, 82, 96
2, 562491, Note_on_c, 0, 82, 0
2, 562491, Control_c, 0, 64, 0
2, 562491, Note_on_c, 0, 84, 96
2, 562560, Note_on_c, 0, 84, 0
2, 562560, Control_c, 0, 64, 127
2, 562560, Note_on_c, 0, 85, 96
2, 562628, Note_on_c, 0, 85, 0
2, 562628, Note_on_c, 0, 79, 96
2, 562697, Note_on_c, 0, 79, 0
2, 562697, Note_on_c, 0, 80, 96
2, 562765, Note_on_c, 0, 80, 0
2, 562765, Note_on_c, 0, 82, 96
2, 562834, Note_on_c, 0, 82, 0
2, 562834, Note_on_c, 0, 84, 96
2, 562902, Note_on_c, 0, 84, 0
2, 562902, Note_on_c, 0, 85, 96
2, 562971, Note_on_c, 0, 85, 0
2, 562971, Control_c, 0, 64, 0
2, 562971, Note_on_c, 0, 87, 96
2, 563040, Note_on_c, 0, 87, 0
2, 563040, Control_c, 0, 64, 127
2, 563040, Note_on_c, 0, 88, 96
2, 563100, Note_on_c, 0, 88, 0
2, 563100, Note_on_c, 0, 84, 96
2, 563160, Note_on_c, 0, 84, 0
2, 563160, Note_on_c, 0, 85, 96
2, 563220, Note_on_c, 0, 85, 0
2, 563220, Note_on_c, 0, 87, 96
2, 563280, Note_on_c, 0, 87, 0
2, 563280, Note_on_c, 0, 88, 96
2, 563340, Note_on_c, 0, 88, 0
2, 563340, Note_on_c, 0, 89, 96
2, 563400, Note_on_c, 0, 89, 0
2, 563400, Note_on_c, 0, 91, 96
2, 563460, Note_on_c, 0, 91, 0
2, 563460, Control_c, 0, 64, 0
2, 563460, Note_on_c, 0, 92, 96
2, 563520, Note_on_c, 0, 92, 0
2, 563520, Note_on_c, 0, 94, 83
2, 563640, Note_on_c, 0, 94, 0
2, 563640, Note_on_c, 0, 96, 83
2, 563760, Note_on_c, 0, 96, 0
2, 563760, Note_on_c, 0, 94, 83
2, 563880, Note_on_c, 0, 94, 0
2, 563880, Note_on_c, 0, 96, 83
2, 564000, Note_on_c, 0, 96, 0
2, 564000, Note_on_c, 0, 94, 83
2, 564120, Note_on_c, 0, 94, 0
2, 564120, Note_on_c, 0, 96, 83
2, 564240, Note_on_c, 0, 96, 0
2, 564240, Note_on_c, 0, 94, 83
2, 564360, Note_on_c, 0, 94, 0
2, 564360, Note_on_c, 0, 96, 83
2, 564480, Note_on_c, 0, 96, 0
2, 564480, Note_on_c, 0, 94, 83
2, 564600, Note_on_c, 0, 94, 0
2, 564600, Note_on_c, 0, 96, 83
2, 564720, Note_on_c, 0, 96, 0
2, 564720, Note_on_c, 0, 94, 83
2, 564840, Note_on_c, 0, 94, 0
2, 564840, Note_on_c, 0, 96, 83
2, 564960, Note_on_c, 0, 96, 0
2, 564960, Note_on_c, 0, 94, 83
2, 565080, Note_on_c, 0, 94, 0
2, 565080, Note_on_c, 0, 96, 83
2, 565200, Note_on_c, 0, 96, 0
2, 565200, Note_on_c, 0, 94, 83
2, 565320, Note_on_c, 0, 94, 0
2, 565320, Note_on_c, 0, 96, 83
2, 565440, Note_on_c, 0, 96, 0
2, 565440, Note_on_c, 0, 94, 83
2, 565560, Note_on_c, 0, 94, 0
2, 565560, Note_on_c, 0, 96, 83
2, 565680, Note_on_c, 0, 96, 0
2, 565680, Note_on_c, 0, 94, 83
2, 565800, Note_on_c, 0, 94, 0
2, 565800, Note_on_c, 0, 96, 83
2, 565920, Note_on_c, 0, 96, 0
2, 565920, Note_on_c, 0, 94, 83
2, 566040, Note_on_c, 0, 94, 0
2, 566040, Note_on_c, 0, 96, 83
2, 566160, Note_on_c, 0, 96, 0
2, 566160, Note_on_c, 0, 94, 83
2, 566280, Note_on_c, 0, 94, 0
2, 566280, Note_on_c, 0, 96, 83
2, 566400, Note_on_c, 0, 96, 0
2, 566400, Note_on_c, 0, 94, 83
2, 566520, Note_on_c, 0, 94, 0
2, 566520, Note_on_c, 0, 96, 83
2, 566640, Note_on_c, 0, 96, 0
2, 566640, Note_on_c, 0, 94, 83
2, 566760, Note_on_c, 0, 94, 0
2, 566760, Note_on_c, 0, 96, 83
2, 566880, Note_on_c, 0, 96, 0
2, 566880, Note_on_c, 0, 94, 83
2, 567000, Note_on_c, 0, 94, 0
2, 567000, Note_on_c, 0, 96, 83
2, 567120, Note_on_c, 0, 96, 0
2, 567120, Note_on_c, 0, 93, 83
2, 567240, Note_on_c, 0, 93, 0
2, 567240, Note_on_c, 0, 94, 83
2, 567360, Note_on_c, 0, 94, 0
2, 567360, Note_on_c, 0, 99, 83
2, 567840, Note_on_c, 0, 99, 0
2, 569439, Note_on_c, 0, 58, 96
2, 569439, Note_on_c, 0, 70, 96
2, 569600, Note_on_c, 0, 70, 0
2, 569600, Note_on_c, 0, 58, 0
2, 569600, Note_on_c, 0, 60, 96
2, 569600, Note_on_c, 0, 72, 96
2, 569760, Note_on_c, 0, 72, 0
2, 569760, Note_on_c, 0, 60, 0
2, 569760, Note_on_c, 0, 62, 96
2, 569760, Note_on_c, 0, 74, 96
2, 569919, Note_on_c, 0, 74, 0
2, 569919, Note_on_c, 0, 62, 0
2, 569919, Note_on_c, 0, 63, 96
2, 569919, Note_on_c, 0, 75, 96
2, 570080, Note_on_c, 0, 75, 0
2, 570080, Note_on_c, 0, 63, 0
2, 570080, Note_on_c, 0, 65, 96
2, 570080, Note_on_c, 0, 77, 96
2, 570240, Note_on_c, 0, 77, 0
2, 570240, Note_on_c, 0, 65, 0
2, 570240, Note_on_c, 0, 67, 96
2, 570240, Note_on_c, 0, 79, 96
2, 570399, Note_on_c, 0, 79, 0
2, 570399, Note_on_c, 0, 67, 0
2, 570399, Note_on_c, 0, 63, 96
2, 570399, Note_on_c, 0, 75, 96
2, 570560, Note_on_c, 0, 75, 0
2, 570560, Note_on_c, 0, 63, 0
2, 570560, Note_on_c, 0, 65, 96
2, 570560, Note_on_c, 0, 77, 96
2, 570720, Note_on_c, 0, 77, 0
2, 570720, Note_on_c, 0, 65, 0
2, 570720, Note_on_c, 0, 67, 96
2, 570720, Note_on_c, 0, 79, 96
2, 570879, Note_on_c, 0, 79, 0
2, 570879, Note_on_c, 0, 67, 0
2, 570879, Note_on_c, 0, 68, 96
2, 570879, Note_on_c, 0, 80, 96
2, 571040, Note_on_c, 0, 80, 0
2, 571040, Note_on_c, 0, 68, 0
2, 571040, Note_on_c, 0, 70, 96
2, 571040, Note_on_c, 0, 82, 96
2, 571200, Note_on_c, 0, 82, 0
2, 571200, Note_on_c, 0, 70, 0
2, 571200, Note_on_c, 0, 70, 96
2, 571200, Note_on_c, 0, 82, 96
2, 571359, Note_on_c, 0, 82, 0
2, 571359, Note_on_c, 0, 70, 0
2, 571359, Note_on_c, 0, 69, 96
2, 571359, Note_on_c, 0, 81, 96
2, 571520, Note_on_c, 0, 81, 0
2, 571520, Note_on_c, 0, 69, 0
2, 571520, Note_on_c, 0, 70, 96
2, 571520, Note_on_c, 0, 82, 96
2, 571680, Note_on_c, 0, 82, 0
2, 571680, Note_on_c, 0, 70, 0
2, 571680, Note_on_c, 0, 70, 96
2, 571680, Note_on_c, 0, 82, 96
2, 571839, Note_on_c, 0, 82, 0
2, 571839, Note_on_c, 0, 70, 0
2, 571839, Note_on_c, 0, 69, 96
2, 571839, Note_on_c, 0, 81, 96
2, 572000, Note_on_c, 0, 81, 0
2, 572000, Note_on_c, 0, 69, 0
2, 572000, Note_on_c, 0, 70, 96
2, 572000, Note_on_c, 0, 82, 96
2, 572160, Note_on_c, 0, 82, 0
2, 572160, Note_on_c, 0, 70, 0
2, 572160, Note_on_c, 0, 70, 96
2, 572160, Note_on_c, 0, 82, 96
2, 572319, Note_on_c, 0, 82, 0
2, 572319, Note_on_c, 0, 70, 0
2, 572319, Note_on_c, 0, 69, 96
2, 572319, Note_on_c, 0, 81, 96
2, 572480, Note_on_c, 0, 81, 0
2, 572480, Note_on_c, 0, 69, 0
2, 572480, Note_on_c, 0, 70, 96
2, 572480, Note_on_c, 0, 82, 96
2, 572640, Note_on_c, 0, 82, 0
2, 572640, Note_on_c, 0, 70, 0
2, 572640, Note_on_c, 0, 70, 96
2, 572640, Note_on_c, 0, 82, 96
2, 572799, Note_on_c, 0, 82, 0
2, 572799, Note_on_c, 0, 70, 0
2, 572799, Note_on_c, 0, 69, 96
2, 572799, Note_on_c, 0, 81, 96
2, 572960, Note_on_c, 0, 81, 0
2, 572960, Note_on_c, 0, 69, 0
2, 572960, Note_on_c, 0, 70, 96
2, 572960, Note_on_c, 0, 82, 96
2, 573120, Note_on_c, 0, 82, 0
2, 573120, Note_on_c, 0, 70, 0
2, 573120, Note_on_c, 0, 70, 96
2, 573120, Note_on_c, 0, 82, 96
2, 573279, Note_on_c, 0, 82, 0
2, 573279, Note_on_c, 0, 70, 0
2, 573279, Note_on_c, 0, 72, 96
2, 573279, Note_on_c, 0, 84, 96
2, 573440, Note_on_c, 0, 84, 0
2, 573440, Note_on_c, 0, 72, 0
2, 573440, Note_on_c, 0, 73, 96
2, 573440, Note_on_c, 0, 85, 96
2, 573600, Note_on_c, 0, 85, 0
2, 573600, Note_on_c, 0, 73, 0
2, 573600, Note_on_c, 0, 74, 96
2, 573600, Note_on_c, 0, 86, 96
2, 573759, Note_on_c, 0, 86, 0
2, 573759, Note_on_c, 0, 74, 0
2, 573759, Note_on_c, 0, 75, 96
2, 573759, Note_on_c, 0, 87, 96
2, 573920, Note_on_c, 0, 87, 0
2, 573920, Note_on_c, 0, 75, 0
2, 573920, Note_on_c, 0, 76, 96
2, 573920, Note_on_c, 0, 88, 96
2, 574080, Note_on_c, 0, 88, 0
2, 574080, Note_on_c, 0, 76, 0
2, 574080, Note_on_c, 0, 77, 96
2, 574080, Note_on_c, 0, 89, 96
2, 574239, Note_on_c, 0, 89, 0
2, 574239, Note_on_c, 0, 77, 0
2, 574239, Note_on_c, 0, 79, 96
2, 574239, Note_on_c, 0, 91, 96
2, 574400, Note_on_c, 0, 91, 0
2, 574400, Note_on_c, 0, 79, 0
2, 574400, Note_on_c, 0, 80, 96
2, 574400, Note_on_c, 0, 92, 96
2, 574560, Note_on_c, 0, 92, 0
2, 574560, Note_on_c, 0, 80, 0
2, 574560, Note_on_c, 0, 82, 96
2, 574560, Note_on_c, 0, 94, 96
2, 574719, Note_on_c, 0, 94, 0
2, 574719, Note_on_c, 0, 82, 0
2, 574719, Note_on_c, 0, 81, 96
2, 574719, Note_on_c, 0, 93, 96
2, 574880, Note_on_c, 0, 93, 0
2, 574880, Note_on_c, 0, 81, 0
2, 574880, Note_on_c, 0, 82, 96
2, 574880, Note_on_c, 0, 94, 96
2, 575040, Note_on_c, 0, 94, 0
2, 575040, Note_on_c, 0, 82, 0
2, 577119, Note_on_c, 0, 58, 96
2, 577119, Note_on_c, 0, 70, 96
2, 577280, Note_on_c, 0, 70, 0
2, 577280, Note_on_c, 0, 58, 0
2, 577280, Note_on_c, 0, 60, 96
2, 577280, Note_on_c, 0, 72, 96
2, 577440, Note_on_c, 0, 72, 0
2, 577440, Note_on_c, 0, 60, 0
2, 577440, Note_on_c, 0, 62, 96
2, 577440, Note_on_c, 0, 74, 96
2, 577599, Note_on_c, 0, 74, 0
2, 577599, Note_on_c, 0, 62, 0
2, 577599, Note_on_c, 0, 63, 96
2, 577599, Note_on_c, 0, 75, 96
2, 577760, Note_on_c, 0, 75, 0
2, 577760, Note_on_c, 0, 63, 0
2, 577760, Note_on_c, 0, 65, 96
2, 577760, Note_on_c, 0, 77, 96
2, 577920, Note_on_c, 0, 77, 0
2, 577920, Note_on_c, 0, 65, 0
2, 577920, Note_on_c, 0, 67, 96
2, 577920, Note_on_c, 0, 79, 96
2, 578079, Note_on_c, 0, 79, 0
2, 578079, Note_on_c, 0, 67, 0
2, 578079, Note_on_c, 0, 68, 96
2, 578079, Note_on_c, 0, 80, 96
2, 578240, Note_on_c, 0, 80, 0
2, 578240, Note_on_c, 0, 68, 0
2, 578240, Note_on_c, 0, 70, 96
2, 578240, Note_on_c, 0, 82, 96
2, 578400, Note_on_c, 0, 82, 0
2, 578400, Note_on_c, 0, 70, 0
2, 578400, Note_on_c, 0, 72, 96
2, 578400, Note_on_c, 0, 84, 96
2, 578559, Note_on_c, 0, 84, 0
2, 578559, Note_on_c, 0, 72, 0
2, 578559, Note_on_c, 0, 74, 96
2, 578559, Note_on_c, 0, 86, 96
2, 578720, Note_on_c, 0, 86, 0
2, 578720, Note_on_c, 0, 74, 0
2, 578720, Note_on_c, 0, 75, 96
2, 578720, Note_on_c, 0, 87, 96
2, 578880, Note_on_c, 0, 87, 0
2, 578880, Note_on_c, 0, 75, 0
2, 578880, Note_on_c, 0, 77, 96
2, 578880, Note_on_c, 0, 89, 96
2, 579039, Note_on_c, 0, 89, 0
2, 579039, Note_on_c, 0, 77, 0
2, 579039, Note_on_c, 0, 76, 96
2, 579039, Note_on_c, 0, 88, 96
2, 579200, Note_on_c, 0, 88, 0
2, 579200, Note_on_c, 0, 76, 0
2, 579200, Note_on_c, 0, 77, 96
2, 579200, Note_on_c, 0, 89, 96
2, 579360, Note_on_c, 0, 89, 0
2, 579360, Note_on_c, 0, 77, 0
2, 579360, Note_on_c, 0, 77, 96
2, 579360, Note_on_c, 0, 89, 96
2, 579519, Note_on_c, 0, 89, 0
2, 579519, Note_on_c, 0, 77, 0
2, 579519, Note_on_c, 0, 76, 96
2, 579519, Note_on_c, 0, 88, 96
2, 579680, Note_on_c, 0, 88, 0
2, 579680, Note_on_c, 0, 76, 0
2, 579680, Note_on_c, 0, 77, 96
2, 579680, Note_on_c, 0, 89, 96
2, 579840, Note_on_c, 0, 89, 0
2, 579840, Note_on_c, 0, 77, 0
2, 579840, Note_on_c, 0, 77, 96
2, 579840, Note_on_c, 0, 89, 96
2, 579999, Note_on_c, 0, 89, 0
2, 579999, Note_on_c, 0, 77, 0
2, 579999, Note_on_c, 0, 76, 96
2, 579999, Note_on_c, 0, 88, 96
2, 580160, Note_on_c, 0, 88, 0
2, 580160, Note_on_c, 0, 76, 0
2, 580160, Note_on_c, 0, 77, 96
2, 580160, Note_on_c, 0, 89, 96
2, 580320, Note_on_c, 0, 89, 0
2, 580320, Note_on_c, 0, 77, 0
2, 580320, Note_on_c, 0, 77, 96
2, 580320, Note_on_c, 0, 89, 96
2, 580479, Note_on_c, 0, 89, 0
2, 580479, Note_on_c, 0, 77, 0
2, 580479, Note_on_c, 0, 79, 96
2, 580479, Note_on_c, 0, 91, 96
2, 580640, Note_on_c, 0, 91, 0
2, 580640, Note_on_c, 0, 79, 0
2, 580640, Note_on_c, 0, 81, 96
2, 580640, Note_on_c, 0, 93, 96
2, 580800, Note_on_c, 0, 93, 0
2, 580800, Note_on_c, 0, 81, 0
2, 580800, Note_on_c, 0, 82, 96
2, 580800, Note_on_c, 0, 94, 96
2, 580959, Note_on_c, 0, 94, 0
2, 580959, Note_on_c, 0, 82, 0
2, 580959, Note_on_c, 0, 80, 96
2, 580959, Note_on_c, 0, 92, 96
2, 581120, Note_on_c, 0, 92, 0
2, 581120, Note_on_c, 0, 80, 0
2, 581120, Note_on_c, 0, 79, 96
2, 581120, Note_on_c, 0, 91, 96
2, 581280, Note_on_c, 0, 91, 0
2, 581280, Note_on_c, 0, 79, 0
2, 581280, Note_on_c, 0, 77, 96
2, 581280, Note_on_c, 0, 89, 96
2, 581439, Note_on_c, 0, 89, 0
2, 581439, Note_on_c, 0, 77, 0
2, 581439, Note_on_c, 0, 75, 96
2, 581439, Note_on_c, 0, 87, 96
2, 581600, Note_on_c, 0, 87, 0
2, 581600, Note_on_c, 0, 75, 0
2, 581600, Note_on_c, 0, 74, 96
2, 581600, Note_on_c, 0, 86, 96
2, 581760, Note_on_c, 0, 86, 0
2, 581760, Note_on_c, 0, 74, 0
2, 581760, Note_on_c, 0, 72, 96
2, 581760, Note_on_c, 0, 84, 96
2, 581919, Note_on_c, 0, 84, 0
2, 581919, Note_on_c, 0, 72, 0
2, 581919, Note_on_c, 0, 70, 96
2, 581919, Note_on_c, 0, 82, 96
2, 582080, Note_on_c, 0, 82, 0
2, 582080, Note_on_c, 0, 70, 0
2, 582080, Note_on_c, 0, 69, 96
2, 582080, Note_on_c, 0, 81, 96
2, 582240, Note_on_c, 0, 81, 0
2, 582240, Note_on_c, 0, 69, 0
2, 582240, Note_on_c, 0, 68, 96
2, 582240, Note_on_c, 0, 80, 96
2, 582399, Note_on_c, 0, 80, 0
2, 582399, Note_on_c, 0, 68, 0
2, 582399, Note_on_c, 0, 67, 96
2, 582399, Note_on_c, 0, 79, 96
2, 582560, Note_on_c, 0, 79, 0
2, 582560, Note_on_c, 0, 67, 0
2, 582560, Note_on_c, 0, 65, 96
2, 582560, Note_on_c, 0, 77, 96
2, 582720, Note_on_c, 0, 77, 0
2, 582720, Note_on_c, 0, 65, 0
2, 582720, Note_on_c, 0, 63, 96
2, 582720, Note_on_c, 0, 75, 96
2, 582960, Note_on_c, 0, 75, 0
2, 582960, Note_on_c, 0, 63, 0
2, 584799, Note_on_c, 0, 58, 96
2, 584799, Note_on_c, 0, 70, 96
2, 584960, Note_on_c, 0, 70, 0
2, 584960, Note_on_c, 0, 58, 0
2, 584960, Note_on_c, 0, 60, 96
2, 584960, Note_on_c, 0, 72, 96
2, 585120, Note_on_c, 0, 72, 0
2, 585120, Note_on_c, 0, 60, 0
2, 585120, Note_on_c, 0, 62, 96
2, 585120, Note_on_c, 0, 74, 96
2, 585279, Note_on_c, 0, 74, 0
2, 585279, Note_on_c, 0, 62, 0
2, 585279, Note_on_c, 0, 63, 96
2, 585279, Note_on_c, 0, 75, 96
2, 585440, Note_on_c, 0, 75, 0
2, 585440, Note_on_c, 0, 63, 0
2, 585440, Note_on_c, 0, 65, 96
2, 585440, Note_on_c, 0, 77, 96
2, 585600, Note_on_c, 0, 77, 0
2, 585600, Note_on_c, 0, 65, 0
2, 585600, Note_on_c, 0, 67, 96
2, 585600, Note_on_c, 0, 79, 96
2, 585759, Note_on_c, 0, 79, 0
2, 585759, Note_on_c, 0, 67, 0
2, 585759, Note_on_c, 0, 63, 96
2, 585759, Note_on_c, 0, 75, 96
2, 585920, Note_on_c, 0, 75, 0
2, 585920, Note_on_c, 0, 63, 0
2, 585920, Note_on_c, 0, 65, 96
2, 585920, Note_on_c, 0, 77, 96
2, 586080, Note_on_c, 0, 77, 0
2, 586080, Note_on_c, 0, 65, 0
2, 586080, Note_on_c, 0, 67, 96
2, 586080, Note_on_c, 0, 79, 96
2, 586239, Note_on_c, 0, 79, 0
2, 586239, Note_on_c, 0, 67, 0
2, 586239, Note_on_c, 0, 68, 96
2, 586239, Note_on_c, 0, 80, 96
2, 586400, Note_on_c, 0, 80, 0
2, 586400, Note_on_c, 0, 68, 0
2, 586400, Note_on_c, 0, 70, 96
2, 586400, Note_on_c, 0, 82, 96
2, 586560, Note_on_c, 0, 82, 0
2, 586560, Note_on_c, 0, 70, 0
2, 586560, Note_on_c, 0, 70, 96
2, 586560, Note_on_c, 0, 82, 96
2, 586719, Note_on_c, 0, 82, 0
2, 586719, Note_on_c, 0, 70, 0
2, 586719, Note_on_c, 0, 69, 96
2, 586719, Note_on_c, 0, 81, 96
2, 586880, Note_on_c, 0, 81, 0
2, 586880, Note_on_c, 0, 69, 0
2, 586880, Note_on_c, 0, 70, 96
2, 586880, Note_on_c, 0, 82, 96
2, 587040, Note_on_c, 0, 82, 0
2, 587040, Note_on_c, 0, 70, 0
2, 587040, Note_on_c, 0, 70, 96
2, 587040, Note_on_c, 0, 82, 96
2, 587199, Note_on_c, 0, 82, 0
2, 587199, Note_on_c, 0, 70, 0
2, 587199, Note_on_c, 0, 69, 96
2, 587199, Note_on_c, 0, 81, 96
2, 587360, Note_on_c, 0, 81, 0
2, 587360, Note_on_c, 0, 69, 0
2, 587360, Note_on_c, 0, 70, 96
2, 587360, Note_on_c, 0, 82, 96
2, 587520, Note_on_c, 0, 82, 0
2, 587520, Note_on_c, 0, 70, 0
2, 587520, Note_on_c, 0, 70, 96
2, 587520, Note_on_c, 0, 82, 96
2, 587679, Note_on_c, 0, 82, 0
2, 587679, Note_on_c, 0, 70, 0
2, 587679, Note_on_c, 0, 69, 96
2, 587679, Note_on_c, 0, 81, 96
2, 587840, Note_on_c, 0, 81, 0
2, 587840, Note_on_c, 0, 69, 0
2, 587840, Note_on_c, 0, 70, 96
2, 587840, Note_on_c, 0, 82, 96
2, 588000, Note_on_c, 0, 82, 0
2, 588000, Note_on_c, 0, 70, 0
2, 588000, Note_on_c, 0, 70, 96
2, 588000, Note_on_c, 0, 82, 96
2, 588159, Note_on_c, 0, 82, 0
2, 588159, Note_on_c, 0, 70, 0
2, 588159, Note_on_c, 0, 69, 96
2, 588159, Note_on_c, 0, 81, 96
2, 588320, Note_on_c, 0, 81, 0
2, 588320, Note_on_c, 0, 69, 0
2, 588320, Note_on_c, 0, 70, 96
2, 588320, Note_on_c, 0, 82, 96
2, 588480, Note_on_c, 0, 82, 0
2, 588480, Note_on_c, 0, 70, 0
2, 588480, Note_on_c, 0, 70, 96
2, 588480, Note_on_c, 0, 82, 96
2, 588639, Note_on_c, 0, 82, 0
2, 588639, Note_on_c, 0, 70, 0
2, 588639, Note_on_c, 0, 72, 96
2, 588639, Note_on_c, 0, 84, 96
2, 588800, Note_on_c, 0, 84, 0
2, 588800, Note_on_c, 0, 72, 0
2, 588800, Note_on_c, 0, 73, 96
2, 588800, Note_on_c, 0, 85, 96
2, 588960, Note_on_c, 0, 85, 0
2, 588960, Note_on_c, 0, 73, 0
2, 588960, Note_on_c, 0, 74, 96
2, 588960, Note_on_c, 0, 86, 96
2, 589119, Note_on_c, 0, 86, 0
2, 589119, Note_on_c, 0, 74, 0
2, 589119, Note_on_c, 0, 75, 96
2, 589119, Note_on_c, 0, 87, 96
2, 589280, Note_on_c, 0, 87, 0
2, 589280, Note_on_c, 0, 75, 0
2, 589280, Note_on_c, 0, 76, 96
2, 589280, Note_on_c, 0, 88, 96
2, 589440, Note_on_c, 0, 88, 0
2, 589440, Note_on_c, 0, 76, 0
2, 589440, Note_on_c, 0, 77, 96
2, 589440, Note_on_c, 0, 89, 96
2, 589599, Note_on_c, 0, 89, 0
2, 589599, Note_on_c, 0, 77, 0
2, 589599, Note_on_c, 0, 79, 96
2, 589599, Note_on_c, 0, 91, 96
2, 589760, Note_on_c, 0, 91, 0
2, 589760, Note_on_c, 0, 79, 0
2, 589760, Note_on_c, 0, 80, 96
2, 589760, Note_on_c, 0, 92, 96
2, 589920, Note_on_c, 0, 92, 0
2, 589920, Note_on_c, 0, 80, 0
2, 589920, Note_on_c, 0, 82, 96
2, 589920, Note_on_c, 0, 94, 96
2, 590079, Note_on_c, 0, 94, 0
2, 590079, Note_on_c, 0, 82, 0
2, 590079, Note_on_c, 0, 81, 96
2, 590079, Note_on_c, 0, 93, 96
2, 590240, Note_on_c, 0, 93, 0
2, 590240, Note_on_c, 0, 81, 0
2, 590240, Note_on_c, 0, 82, 96
2, 590240, Note_on_c, 0, 94, 96
2, 590400, Note_on_c, 0, 94, 0
2, 590400, Note_on_c, 0, 82, 0
2, 592320, Note_on_c, 0, 60, 96
2, 592320, Note_on_c, 0, 72, 96
2, 592479, Note_on_c, 0, 72, 0
2, 592479, Note_on_c, 0, 60, 0
2, 592479, Note_on_c, 0, 62, 96
2, 592479, Note_on_c, 0, 74, 96
2, 592640, Note_on_c, 0, 74, 0
2, 592640, Note_on_c, 0, 62, 0
2, 592640, Note_on_c, 0, 64, 96
2, 592640, Note_on_c, 0, 76, 96
2, 592800, Note_on_c, 0, 76, 0
2, 592800, Note_on_c, 0, 64, 0
2, 592800, Note_on_c, 0, 65, 96
2, 592800, Note_on_c, 0, 77, 96
2, 592959, Note_on_c, 0, 77, 0
2, 592959, Note_on_c, 0, 65, 0
2, 592959, Note_on_c, 0, 68, 96
2, 592959, Note_on_c, 0, 80, 96
2, 593120, Note_on_c, 0, 80, 0
2, 593120, Note_on_c, 0, 68, 0
2, 593120, Note_on_c, 0, 70, 96
2, 593120, Note_on_c, 0, 82, 96
2, 593280, Note_on_c, 0, 82, 0
2, 593280, Note_on_c, 0, 70, 0
2, 593280, Note_on_c, 0, 72, 96
2, 593280, Note_on_c, 0, 84, 96
2, 593439, Note_on_c, 0, 84, 0
2, 593439, Note_on_c, 0, 72, 0
2, 593439, Note_on_c, 0, 74, 96
2, 593439, Note_on_c, 0, 86, 96
2, 593600, Note_on_c, 0, 86, 0
2, 593600, Note_on_c, 0, 74, 0
2, 593600, Note_on_c, 0, 76, 96
2, 593600, Note_on_c, 0, 88, 96
2, 593760, Note_on_c, 0, 88, 0
2, 593760, Note_on_c, 0, 76, 0
2, 593760, Note_on_c, 0, 77, 96
2, 593760, Note_on_c, 0, 89, 96
2, 593919, Note_on_c, 0, 89, 0
2, 593919, Note_on_c, 0, 77, 0
2, 593919, Note_on_c, 0, 79, 96
2, 593919, Note_on_c, 0, 91, 96
2, 594080, Note_on_c, 0, 91, 0
2, 594080, Note_on_c, 0, 79, 0
2, 594080, Note_on_c, 0, 80, 96
2, 594080, Note_on_c, 0, 92, 96
2, 594240, Note_on_c, 0, 92, 0
2, 594240, Note_on_c, 0, 80, 0
2, 594240, Note_on_c, 0, 82, 96
2, 594240, Note_on_c, 0, 94, 96
2, 594399, Note_on_c, 0, 94, 0
2, 594399, Note_on_c, 0, 82, 0
2, 594399, Note_on_c, 0, 81, 96
2, 594399, Note_on_c, 0, 93, 96
2, 594560, Note_on_c, 0, 93, 0
2, 594560, Note_on_c, 0, 81, 0
2, 594560, Note_on_c, 0, 82, 96
2, 594560, Note_on_c, 0, 94, 96
2, 594720, Note_on_c, 0, 94, 0
2, 594720, Note_on_c, 0, 82, 0
2, 594720, Note_on_c, 0, 82, 96
2, 594720, Note_on_c, 0, 94, 96
2, 594879, Note_on_c, 0, 94, 0
2, 594879, Note_on_c, 0, 82, 0
2, 594879, Note_on_c, 0, 79, 96
2, 594879, Note_on_c, 0, 91, 96
2, 595040, Note_on_c, 0, 91, 0
2, 595040, Note_on_c, 0, 79, 0
2, 595040, Note_on_c, 0, 77, 96
2, 595040, Note_on_c, 0, 89, 96
2, 595200, Note_on_c, 0, 89, 0
2, 595200, Note_on_c, 0, 77, 0
2, 595200, Note_on_c, 0, 75, 96
2, 595200, Note_on_c, 0, 87, 96
2, 595359, Note_on_c, 0, 87, 0
2, 595359, Note_on_c, 0, 75, 0
2, 595359, Note_on_c, 0, 74, 96
2, 595359, Note_on_c, 0, 86, 96
2, 595520, Note_on_c, 0, 86, 0
2, 595520, Note_on_c, 0, 74, 0
2, 595520, Note_on_c, 0, 72, 96
2, 595520, Note_on_c, 0, 84, 96
2, 595680, Note_on_c, 0, 84, 0
2, 595680, Note_on_c, 0, 72, 0
2, 595680, Note_on_c, 0, 70, 96
2, 595680, Note_on_c, 0, 82, 96
2, 595839, Note_on_c, 0, 82, 0
2, 595839, Note_on_c, 0, 70, 0
2, 595839, Note_on_c, 0, 72, 96
2, 595839, Note_on_c, 0, 84, 96
2, 596000, Note_on_c, 0, 84, 0
2, 596000, Note_on_c, 0, 72, 0
2, 596000, Note_on_c, 0, 74, 96
2, 596000, Note_on_c, 0, 86, 96
2, 596160, Note_on_c, 0, 86, 0
2, 596160, Note_on_c, 0, 74, 0
2, 596160, Note_on_c, 0, 75, 96
2, 596160, Note_on_c, 0, 87, 96
2, 596319, Note_on_c, 0, 87, 0
2, 596319, Note_on_c, 0, 75, 0
2, 596319, Note_on_c, 0, 70, 96
2, 596319, Note_on_c, 0, 82, 96
2, 596480, Note_on_c, 0, 82, 0
2, 596480, Note_on_c, 0, 70, 0
2, 596480, Note_on_c, 0, 67, 96
2, 596480, Note_on_c, 0, 79, 96
2, 596640, Note_on_c, 0, 79, 0
2, 596640, Note_on_c, 0, 67, 0
2, 596640, Note_on_c, 0, 63, 96
2, 596640, Note_on_c, 0, 75, 96
2, 596799, Note_on_c, 0, 75, 0
2, 596799, Note_on_c, 0, 63, 0
2, 596799, Note_on_c, 0, 70, 96
2, 596960, Note_on_c, 0, 70, 0
2, 596960, Note_on_c, 0, 67, 96
2, 597120, Note_on_c, 0, 67, 0
2, 597120, Note_on_c, 0, 63, 96
2, 597600, Note_on_c, 0, 63, 0
2, 665280, Note_on_c, 0, 66, 70
2, 665280, Note_on_c, 0, 78, 70
2, 666240, Note_on_c, 0, 78, 0
2, 666240, Note_on_c, 0, 66, 0
2, 666240, Note_on_c, 0, 64, 70
2, 666240, Note_on_c, 0, 76, 70
2, 666480, Note_on_c, 0, 76, 0
2, 666480, Note_on_c, 0, 64, 0
2, 666480, Note_on_c, 0, 62, 70
2, 666480, Note_on_c, 0, 74, 70
2, 666720, Note_on_c, 0, 74, 0
2, 666720, Note_on_c, 0, 62, 0
2, 666720, Note_on_c, 0, 61, 70
2, 666720, Note_on_c, 0, 73, 70
2, 666960, Note_on_c, 0, 73, 0
2, 666960, Note_on_c, 0, 61, 0
2, 666960, Note_on_c, 0, 59, 70
2, 666960, Note_on_c, 0, 71, 70
2, 667200, Note_on_c, 0, 71, 0
2, 667200, Note_on_c, 0, 59, 0
2, 667200, Note_on_c, 0, 57, 70
2, 667200, Note_on_c, 0, 66, 70
2, 667200, Note_on_c, 0, 69, 70
2, 668160, Note_on_c, 0, 69, 0
2, 668160, Note_on_c, 0, 66, 0
2, 668160, Note_on_c, 0, 57, 0
2, 668160, Note_on_c, 0, 64, 96
2, 668400, Note_on_c, 0, 64, 0
2, 668400, Note_on_c, 0, 62, 96
2, 668640, Note_on_c, 0, 62, 0
2, 668640, Note_on_c, 0, 59, 70
2, 668640, Note_on_c, 0, 62, 70
2, 668640, Note_on_c, 0, 65, 70
2, 668640, Note_on_c, 0, 68, 70
2, 668880, Note_on_c, 0, 68, 0
2, 668880, Note_on_c, 0, 59, 0
2, 668880, Note_on_c, 0, 62, 0
2, 668880, Note_on_c, 0, 65, 0
2, 668880, Note_on_c, 0, 57, 70
2, 668880, Note_on_c, 0, 62, 70
2, 668880, Note_on_c, 0, 66, 70
2, 668880, Note_on_c, 0, 69, 70
2, 669120, Note_on_c, 0, 69, 0
2, 669120, Note_on_c, 0, 57, 0
2, 669120, Note_on_c, 0, 62, 0
2, 669120, Note_on_c, 0, 66, 0
2, 669120, Note_on_c, 0, 66, 96
2, 669120, Note_on_c, 0, 78, 96
2, 669600, Note_on_c, 0, 78, 0
2, 669600, Note_on_c, 0, 66, 0
2, 669600, Note_on_c, 0, 68, 70
2, 669840, Note_on_c, 0, 68, 0
2, 669840, Note_on_c, 0, 69, 70
2, 670080, Note_on_c, 0, 69, 0
2, 670080, Note_on_c, 0, 70, 70
2, 670320, Note_on_c, 0, 70, 0
2, 670320, Note_on_c, 0, 71, 83
2, 670560, Note_on_c, 0, 71, 0
2, 670560, Note_on_c, 0, 64, 109
2, 670560, Note_on_c, 0, 72, 109
2, 670560, Note_on_c, 0, 76, 109
2, 670800, Note_on_c, 0, 76, 0
2, 670800, Note_on_c, 0, 72, 0
2, 670800, Note_on_c, 0, 64, 0
2, 670800, Note_on_c, 0, 73, 83
2, 671040, Note_on_c, 0, 73, 0
2, 671040, Note_on_c, 0, 62, 83
2, 671040, Note_on_c, 0, 74, 83
2, 671063, Note_on_c, 0, 74, 0
2, 671063, Note_on_c, 0, 62, 0
2, 671160, Note_on_c, 0, 64, 83
2, 671160, Note_on_c, 0, 69, 83
2, 671183, Note_on_c, 0, 69, 0
2, 671183, Note_on_c, 0, 64, 0
2, 671280, Note_on_c, 0, 66, 83
2, 671280, Note_on_c, 0, 74, 83
2, 671303, Note_on_c, 0, 74, 0
2, 671303, Note_on_c, 0, 66, 0
2, 671400, Note_on_c, 0, 69, 83
2, 671400, Note_on_c, 0, 76, 83
2, 671423, Note_on_c, 0, 76, 0
2, 671423, Note_on_c, 0, 69, 0
2, 671520, Note_on_c, 0, 74, 83
2, 671520, Note_on_c, 0, 78, 83
2, 671543, Note_on_c, 0, 78, 0
2, 671543, Note_on_c, 0, 74, 0
2, 671640, Note_on_c, 0, 76, 83
2, 671640, Note_on_c, 0, 81, 83
2, 671663, Note_on_c, 0, 81, 0
2, 671663, Note_on_c, 0, 76, 0
2, 671760, Note_on_c, 0, 78, 83
2, 671760, Note_on_c, 0, 86, 83
2, 671783, Note_on_c, 0, 86, 0
2, 671783, Note_on_c, 0, 78, 0
2, 671880, Note_on_c, 0, 81, 83
2, 671880, Note_on_c, 0, 88, 83
2, 671903, Note_on_c, 0, 88, 0
2, 671903, Note_on_c, 0, 81, 0
2, 672000, Note_on_c, 0, 86, 83
2, 672000, Note_on_c, 0, 90, 83
2, 672023, Note_on_c, 0, 90, 0
2, 672023, Note_on_c, 0, 86, 0
2, 672120, Note_on_c, 0, 88, 83
2, 672120, Note_on_c, 0, 93, 83
2, 672143, Note_on_c, 0, 93, 0
2, 672143, Note_on_c, 0, 88, 0
2, 672240, Note_on_c, 0, 90, 83
2, 672240, Note_on_c, 0, 98, 83
2, 672263, Note_on_c, 0, 98, 0
2, 672263, Note_on_c, 0, 90, 0
2, 672360, Note_on_c, 0, 93, 83
2, 672360, Note_on_c, 0, 100, 83
2, 672383, Note_on_c, 0, 100, 0
2, 672383, Note_on_c, 0, 93, 0
2, 672480, Note_on_c, 0, 98, 83
2, 672480, Note_on_c, 0, 102, 83
2, 672527, Note_on_c, 0, 102, 0
2, 672527, Note_on_c, 0, 98, 0
2, 672960, Note_on_c, 0, 66, 70
2, 672960, Note_on_c, 0, 78, 70
2, 673920, Note_on_c, 0, 78, 0
2, 673920, Note_on_c, 0, 66, 0
2, 673920, Note_on_c, 0, 64, 70
2, 673920, Note_on_c, 0, 76, 70
2, 674160, Note_on_c, 0, 76, 0
2, 674160, Note_on_c, 0, 64, 0
2, 674160, Note_on_c, 0, 62, 70
2, 674160, Note_on_c, 0, 74, 70
2, 674400, Note_on_c, 0, 74, 0
2, 674400, Note_on_c, 0, 62, 0
2, 674400, Note_on_c, 0, 61, 70
2, 674400, Note_on_c, 0, 73, 70
2, 674640, Note_on_c, 0, 73, 0
2, 674640, Note_on_c, 0, 61, 0
2, 674640, Note_on_c, 0, 59, 70
2, 674640, Note_on_c, 0, 71, 70
2, 674880, Note_on_c, 0, 71, 0
2, 674880, Note_on_c, 0, 59, 0
2, 674880, Note_on_c, 0, 58, 96
2, 674880, Note_on_c, 0, 67, 96
2, 674880, Note_on_c, 0, 70, 96
2, 675840, Note_on_c, 0, 70, 0
2, 675840, Note_on_c, 0, 67, 0
2, 675840, Note_on_c, 0, 58, 0
2, 675840, Note_on_c, 0, 66, 96
2, 676080, Note_on_c, 0, 66, 0
2, 676080, Note_on_c, 0, 64, 96
2, 676320, Note_on_c, 0, 64, 0
2, 676320, Note_on_c, 0, 57, 70
2, 676320, Note_on_c, 0, 62, 70
2, 676320, Note_on_c, 0, 69, 70
2, 676560, Note_on_c, 0, 69, 0
2, 676560, Note_on_c, 0, 62, 0
2, 676560, Note_on_c, 0, 57, 0
2, 676560, Note_on_c, 0, 58, 70
2, 676560, Note_on_c, 0, 61, 70
2, 676560, Note_on_c, 0, 70, 70
2, 676800, Note_on_c, 0, 70, 0
2, 676800, Note_on_c, 0, 61, 0
2, 676800, Note_on_c, 0, 58, 0
2, 676800, Note_on_c, 0, 67, 70
2, 676800, Note_on_c, 0, 79, 70
2, 677280, Note_on_c, 0, 79, 0
2, 677280, Note_on_c, 0, 67, 0
2, 677280, Note_on_c, 0, 69, 70
2, 677520, Note_on_c, 0, 69, 0
2, 677520, Note_on_c, 0, 70, 70
2, 677760, Note_on_c, 0, 70, 0
2, 677760, Note_on_c, 0, 71, 70
2, 678000, Note_on_c, 0, 71, 0
2, 678000, Note_on_c, 0, 73, 83
2, 678240, Note_on_c, 0, 73, 0
2, 678240, Note_on_c, 0, 66, 109
2, 678240, Note_on_c, 0, 74, 109
2, 678240, Note_on_c, 0, 78, 109
2, 678480, Note_on_c, 0, 78, 0
2, 678480, Note_on_c, 0, 74, 0
2, 678480, Note_on_c, 0, 66, 0
2, 678480, Note_on_c, 0, 76, 83
2, 678720, Note_on_c, 0, 76, 0
2, 678720, Note_on_c, 0, 66, 83
2, 678720, Note_on_c, 0, 74, 83
2, 678720, Note_on_c, 0, 78, 83
2, 678743, Note_on_c, 0, 78, 0
2, 678743, Note_on_c, 0, 74, 0
2, 678743, Note_on_c, 0, 66, 0
2, 678840, Note_on_c, 0, 66, 83
2, 678840, Note_on_c, 0, 73, 83
2, 678863, Note_on_c, 0, 73, 0
2, 678863, Note_on_c, 0, 66, 0
2, 678960, Note_on_c, 0, 71, 83
2, 678960, Note_on_c, 0, 74, 83
2, 678983, Note_on_c, 0, 74, 0
2, 678983, Note_on_c, 0, 71, 0
2, 679080, Note_on_c, 0, 73, 83
2, 679080, Note_on_c, 0, 78, 83
2, 679103, Note_on_c, 0, 78, 0
2, 679103, Note_on_c, 0, 73, 0
2, 679200, Note_on_c, 0, 74, 83
2, 679200, Note_on_c, 0, 83, 83
2, 679223, Note_on_c, 0, 83, 0
2, 679223, Note_on_c, 0, 74, 0
2, 679320, Note_on_c, 0, 78, 83
2, 679320, Note_on_c, 0, 85, 83
2, 679343, Note_on_c, 0, 85, 0
2, 679343, Note_on_c, 0, 78, 0
2, 679440, Note_on_c, 0, 83, 83
2, 679440, Note_on_c, 0, 86, 83
2, 679463, Note_on_c, 0, 86, 0
2, 679463, Note_on_c, 0, 83, 0
2, 679560, Note_on_c, 0, 85, 83
2, 679560, Note_on_c, 0, 90, 83
2, 679583, Note_on_c, 0, 90, 0
2, 679583, Note_on_c, 0, 85, 0
2, 679680, Note_on_c, 0, 86, 83
2, 679680, Note_on_c, 0, 95, 83
2, 679703, Note_on_c, 0, 95, 0
2, 679703, Note_on_c, 0, 86, 0
2, 679800, Note_on_c, 0, 90, 83
2, 679800, Note_on_c, 0, 97, 83
2, 679823, Note_on_c, 0, 97, 0
2, 679823, Note_on_c, 0, 90, 0
2, 679920, Note_on_c, 0, 95, 83
2, 679920, Note_on_c, 0, 98, 83
2, 679943, Note_on_c, 0, 98, 0
2, 679943, Note_on_c, 0, 95, 0
2, 680040, Note_on_c, 0, 97, 83
2, 680040, Note_on_c, 0, 100, 83
2, 680063, Note_on_c, 0, 100, 0
2, 680063, Note_on_c, 0, 97, 0
2, 680160, Note_on_c, 0, 98, 83
2, 680160, Note_on_c, 0, 102, 83
2, 680256, Note_on_c, 0, 102, 0
2, 680256, Note_on_c, 0, 98, 0
2, 680640, Note_on_c, 0, 66, 96
2, 680640, Note_on_c, 0, 71, 96
2, 680640, Note_on_c, 0, 74, 96
2, 680640, Note_on_c, 0, 78, 96
2, 681000, Note_on_c, 0, 78, 0
2, 681000, Note_on_c, 0, 66, 0
2, 681000, Note_on_c, 0, 71, 0
2, 681000, Note_on_c, 0, 74, 0
2, 681000, Note_on_c, 0, 56, 70
2, 681000, Note_on_c, 0, 68, 70
2, 681120, Note_on_c, 0, 68, 0
2, 681120, Note_on_c, 0, 56, 0
2, 681120, Note_on_c, 0, 56, 70
2, 681120, Note_on_c, 0, 62, 70
2, 681120, Note_on_c, 0, 68, 70
2, 682080, Note_on_c, 0, 68, 0
2, 682080, Note_on_c, 0, 62, 0
2, 682080, Note_on_c, 0, 56, 0
2, 682080, Note_on_c, 0, 57, 70
2, 682080, Note_on_c, 0, 62, 70
2, 682080, Note_on_c, 0, 69, 70
2, 682560, Note_on_c, 0, 69, 0
2, 682560, Note_on_c, 0, 62, 0
2, 682560, Note_on_c, 0, 57, 0
2, 682560, Note_on_c, 0, 58, 83
2, 682560, Note_on_c, 0, 62, 83
2, 682560, Note_on_c, 0, 70, 83
2, 683040, Note_on_c, 0, 70, 0
2, 683040, Note_on_c, 0, 62, 0
2, 683040, Note_on_c, 0, 58, 0
2, 683040, Note_on_c, 0, 59, 83
2, 683040, Note_on_c, 0, 62, 83
2, 683040, Note_on_c, 0, 71, 83
2, 683520, Note_on_c, 0, 71, 0
2, 683520, Note_on_c, 0, 62, 0
2, 683520, Note_on_c, 0, 59, 0
2, 683520, Note_on_c, 0, 86, 109
2, 683520, Note_on_c, 0, 90, 109
2, 683760, Note_on_c, 0, 90, 0
2, 683760, Note_on_c, 0, 86, 0
2, 683760, Note_on_c, 0, 85, 83
2, 683760, Note_on_c, 0, 88, 83
2, 683775, Note_on_c, 0, 88, 0
2, 683775, Note_on_c, 0, 85, 0
2, 683840, Note_on_c, 0, 83, 83
2, 683840, Note_on_c, 0, 86, 83
2, 683856, Note_on_c, 0, 86, 0
2, 683856, Note_on_c, 0, 83, 0
2, 683919, Note_on_c, 0, 81, 83
2, 683919, Note_on_c, 0, 85, 83
2, 683935, Note_on_c, 0, 85, 0
2, 683935, Note_on_c, 0, 81, 0
2, 684000, Note_on_c, 0, 80, 83
2, 684000, Note_on_c, 0, 83, 83
2, 684015, Note_on_c, 0, 83, 0
2, 684015, Note_on_c, 0, 80, 0
2, 684080, Note_on_c, 0, 78, 83
2, 684080, Note_on_c, 0, 81, 83
2, 684096, Note_on_c, 0, 81, 0
2, 684096, Note_on_c, 0, 78, 0
2, 684159, Note_on_c, 0, 76, 83
2, 684159, Note_on_c, 0, 80, 83
2, 684175, Note_on_c, 0, 80, 0
2, 684175, Note_on_c, 0, 76, 0
2, 684240, Note_on_c, 0, 74, 83
2, 684240, Note_on_c, 0, 78, 83
2, 684255, Note_on_c, 0, 78, 0
2, 684255, Note_on_c, 0, 74, 0
2, 684320, Note_on_c, 0, 73, 83
2, 684320, Note_on_c, 0, 76, 83
2, 684336, Note_on_c, 0, 76, 0
2, 684336, Note_on_c, 0, 73, 0
2, 684399, Note_on_c, 0, 72, 83
2, 684399, Note_on_c, 0, 75, 83
2, 684415, Note_on_c, 0, 75, 0
2, 684415, Note_on_c, 0, 72, 0
2, 684480, Note_on_c, 0, 66, 109
2, 684480, Note_on_c, 0, 71, 109
2, 684480, Note_on_c, 0, 74, 109
2, 684480, Note_on_c, 0, 78, 109
2, 684840, Note_on_c, 0, 78, 0
2, 684840, Note_on_c, 0, 66, 0
2, 684840, Note_on_c, 0, 71, 0
2, 684840, Note_on_c, 0, 74, 0
2, 684840, Note_on_c, 0, 56, 83
2, 684840, Note_on_c, 0, 68, 83
2, 684960, Note_on_c, 0, 68, 0
2, 684960, Note_on_c, 0, 56, 0
2, 684960, Note_on_c, 0, 56, 83
2, 684960, Note_on_c, 0, 62, 83
2, 684960, Note_on_c, 0, 68, 83
2, 685920, Note_on_c, 0, 68, 0
2, 685920, Note_on_c, 0, 62, 0
2, 685920, Note_on_c, 0, 56, 0
2, 685920, Note_on_c, 0, 57, 83
2, 685920, Note_on_c, 0, 62, 83
2, 685920, Note_on_c, 0, 69, 83
2, 686400, Note_on_c, 0, 69, 0
2, 686400, Note_on_c, 0, 62, 0
2, 686400, Note_on_c, 0, 57, 0
2, 686400, Note_on_c, 0, 58, 83
2, 686400, Note_on_c, 0, 62, 83
2, 686400, Note_on_c, 0, 70, 83
2, 686880, Note_on_c, 0, 70, 0
2, 686880, Note_on_c, 0, 62, 0
2, 686880, Note_on_c, 0, 58, 0
2, 686880, Note_on_c, 0, 59, 83
2, 686880, Note_on_c, 0, 62, 83
2, 686880, Note_on_c, 0, 71, 83
2, 687360, Note_on_c, 0, 71, 0
2, 687360, Note_on_c, 0, 62, 0
2, 687360, Note_on_c, 0, 59, 0
2, 687360, Note_on_c, 0, 92, 109
2, 687360, Note_on_c, 0, 95, 109
2, 687600, Note_on_c, 0, 95, 0
2, 687600, Note_on_c, 0, 92, 0
2, 687600, Note_on_c, 0, 90, 83
2, 687600, Note_on_c, 0, 93, 83
2, 687680, Note_on_c, 0, 93, 0
2, 687680, Note_on_c, 0, 90, 0
2, 687680, Note_on_c, 0, 88, 83
2, 687680, Note_on_c, 0, 92, 83
2, 687759, Note_on_c, 0, 92, 0
2, 687759, Note_on_c, 0, 88, 0
2, 687759, Note_on_c, 0, 86, 83
2, 687759, Note_on_c, 0, 90, 83
2, 687840, Note_on_c, 0, 90, 0
2, 687840, Note_on_c, 0, 86, 0
2, 687840, Control_c, 0, 64, 127
2, 687840, Note_on_c, 0, 85, 83
2, 687840, Note_on_c, 0, 88, 83
2, 687893, Note_on_c, 0, 88, 0
2, 687893, Note_on_c, 0, 85, 0
2, 687893, Note_on_c, 0, 83, 83
2, 687893, Note_on_c, 0, 86, 83
2, 687946, Note_on_c, 0, 86, 0
2, 687946, Note_on_c, 0, 83, 0
2, 687946, Note_on_c, 0, 81, 83
2, 687946, Note_on_c, 0, 85, 83
2, 687999, Note_on_c, 0, 85, 0
2, 687999, Note_on_c, 0, 81, 0
2, 687999, Note_on_c, 0, 80, 83
2, 687999, Note_on_c, 0, 83, 83
2, 688053, Note_on_c, 0, 83, 0
2, 688053, Note_on_c, 0, 80, 0
2, 688053, Note_on_c, 0, 78, 83
2, 688053, Note_on_c, 0, 81, 83
2, 688106, Note_on_c, 0, 81, 0
2, 688106, Note_on_c, 0, 78, 0
2, 688106, Note_on_c, 0, 76, 83
2, 688106, Note_on_c, 0, 80, 83
2, 688160, Note_on_c, 0, 80, 0
2, 688160, Note_on_c, 0, 76, 0
2, 688160, Note_on_c, 0, 74, 83
2, 688160, Note_on_c, 0, 78, 83
2, 688213, Note_on_c, 0, 78, 0
2, 688213, Note_on_c, 0, 74, 0
2, 688213, Note_on_c, 0, 73, 83
2, 688213, Note_on_c, 0, 76, 83
2, 688266, Note_on_c, 0, 76, 0
2, 688266, Note_on_c, 0, 73, 0
2, 688266, Control_c, 0, 64, 0
2, 688266, Note_on_c, 0, 71, 83
2, 688266, Note_on_c, 0, 74, 83
2, 688320, Note_on_c, 0, 74, 0
2, 688320, Note_on_c, 0, 71, 0
2, 688320, Note_on_c, 0, 64, 109
2, 688320, Note_on_c, 0, 70, 109
2, 688320, Note_on_c, 0, 76, 109
2, 688800, Note_on_c, 0, 76, 0
2, 688800, Note_on_c, 0, 70, 0
2, 688800, Note_on_c, 0, 64, 0
2, 688800, Note_on_c, 0, 64, 109
2, 688800, Note_on_c, 0, 70, 109
2, 689280, Note_on_c, 0, 70, 0
2, 689280, Note_on_c, 0, 64, 0
2, 689520, Control_c, 0, 64, 127
2, 689520, Note_on_c, 0, 67, 83
2, 689520, Note_on_c, 0, 73, 83
2, 689520, Note_on_c, 0, 79, 83
2, 689760, Note_on_c, 0, 79, 0
2, 689760, Note_on_c, 0, 73, 0
2, 689760, Note_on_c, 0, 67, 0
2, 689760, Note_on_c, 0, 67, 83
2, 689760, Note_on_c, 0, 73, 83
2, 689760, Note_on_c, 0, 79, 83
2, 690000, Note_on_c, 0, 79, 0
2, 690000, Note_on_c, 0, 73, 0
2, 690000, Note_on_c, 0, 67, 0
2, 690000, Control_c, 0, 64, 0
2, 690000, Note_on_c, 0, 67, 83
2, 690000, Note_on_c, 0, 73, 83
2, 690000, Note_on_c, 0, 79, 83
2, 690047, Note_on_c, 0, 79, 0
2, 690047, Note_on_c, 0, 73, 0
2, 690047, Note_on_c, 0, 67, 0
2, 690240, Note_on_c, 0, 67, 109
2, 690240, Note_on_c, 0, 73, 109
2, 690240, Note_on_c, 0, 79, 109
2, 690720, Note_on_c, 0, 79, 0
2, 690720, Note_on_c, 0, 73, 0
2, 690720, Note_on_c, 0, 67, 0
2, 690720, Note_on_c, 0, 66, 109
2, 690720, Note_on_c, 0, 73, 109
2, 690720, Note_on_c, 0, 78, 109
2, 691200, Note_on_c, 0, 78, 0
2, 691200, Note_on_c, 0, 73, 0
2, 691200, Note_on_c, 0, 66, 0
2, 691200, Note_on_c, 0, 88, 109
2, 691200, Note_on_c, 0, 91, 109
2, 691440, Note_on_c, 0, 91, 0
2, 691440, Note_on_c, 0, 88, 0
2, 691440, Note_on_c, 0, 86, 83
2, 691440, Note_on_c, 0, 90, 83
2, 691455, Note_on_c, 0, 90, 0
2, 691455, Note_on_c, 0, 86, 0
2, 691520, Note_on_c, 0, 85, 83
2, 691520, Note_on_c, 0, 88, 83
2, 691536, Note_on_c, 0, 88, 0
2, 691536, Note_on_c, 0, 85, 0
2, 691599, Note_on_c, 0, 83, 83
2, 691599, Note_on_c, 0, 86, 83
2, 691615, Note_on_c, 0, 86, 0
2, 691615, Note_on_c, 0, 83, 0
2, 691680, Note_on_c, 0, 82, 83
2, 691680, Note_on_c, 0, 85, 83
2, 691695, Note_on_c, 0, 85, 0
2, 691695, Note_on_c, 0, 82, 0
2, 691760, Note_on_c, 0, 79, 83
2, 691760, Note_on_c, 0, 83, 83
2, 691776, Note_on_c, 0, 83, 0
2, 691776, Note_on_c, 0, 79, 0
2, 691839, Note_on_c, 0, 78, 83
2, 691839, Note_on_c, 0, 82, 83
2, 691855, Note_on_c, 0, 82, 0
2, 691855, Note_on_c, 0, 78, 0
2, 691920, Note_on_c, 0, 76, 83
2, 691920, Note_on_c, 0, 79, 83
2, 691935, Note_on_c, 0, 79, 0
2, 691935, Note_on_c, 0, 76, 0
2, 692000, Note_on_c, 0, 74, 83
2, 692000, Note_on_c, 0, 78, 83
2, 692016, Note_on_c, 0, 78, 0
2, 692016, Note_on_c, 0, 74, 0
2, 692079, Note_on_c, 0, 73, 83
2, 692079, Note_on_c, 0, 76, 83
2, 692095, Note_on_c, 0, 76, 0
2, 692095, Note_on_c, 0, 73, 0
2, 692160, Note_on_c, 0, 66, 109
2, 692160, Note_on_c, 0, 72, 109
2, 692160, Note_on_c, 0, 78, 109
2, 692640, Note_on_c, 0, 78, 0
2, 692640, Note_on_c, 0, 72, 0
2, 692640, Note_on_c, 0, 66, 0
2, 692640, Note_on_c, 0, 66, 109
2, 692640, Note_on_c, 0, 72, 109
2, 693120, Note_on_c, 0, 72, 0
2, 693120, Note_on_c, 0, 66, 0
2, 693360, Control_c, 0, 64, 127
2, 693360, Note_on_c, 0, 69, 83
2, 693360, Note_on_c, 0, 75, 83
2, 693360, Note_on_c, 0, 81, 83
2, 693407, Note_on_c, 0, 81, 0
2, 693407, Note_on_c, 0, 75, 0
2, 693407, Note_on_c, 0, 69, 0
2, 693600, Note_on_c, 0, 69, 83
2, 693600, Note_on_c, 0, 75, 83
2, 693600, Note_on_c, 0, 81, 83
2, 693647, Note_on_c, 0, 81, 0
2, 693647, Note_on_c, 0, 75, 0
2, 693647, Note_on_c, 0, 69, 0
2, 693840, Control_c, 0, 64, 0
2, 693840, Note_on_c, 0, 69, 83
2, 693840, Note_on_c, 0, 75, 83
2, 693840, Note_on_c, 0, 81, 83
2, 693887, Note_on_c, 0, 81, 0
2, 693887, Note_on_c, 0, 75, 0
2, 693887, Note_on_c, 0, 69, 0
2, 694080, Note_on_c, 0, 69, 109
2, 694080, Note_on_c, 0, 75, 109
2, 694080, Note_on_c, 0, 81, 109
2, 694560, Note_on_c, 0, 81, 0
2, 694560, Note_on_c, 0, 75, 0
2, 694560, Note_on_c, 0, 69, 0
2, 694560, Note_on_c, 0, 68, 109
2, 694560, Note_on_c, 0, 75, 109
2, 694560, Note_on_c, 0, 80, 109
2, 695040, Note_on_c, 0, 80, 0
2, 695040, Note_on_c, 0, 75, 0
2, 695040, Note_on_c, 0, 68, 0
2, 695120, Note_on_c, 0, 68, 83
2, 695120, Note_on_c, 0, 72, 83
2, 695136, Note_on_c, 0, 72, 0
2, 695136, Note_on_c, 0, 68, 0
2, 695199, Note_on_c, 0, 70, 83
2, 695199, Note_on_c, 0, 73, 83
2, 695215, Note_on_c, 0, 73, 0
2, 695215, Note_on_c, 0, 70, 0
2, 695280, Note_on_c, 0, 72, 83
2, 695280, Note_on_c, 0, 75, 83
2, 695295, Note_on_c, 0, 75, 0
2, 695295, Note_on_c, 0, 72, 0
2, 695360, Note_on_c, 0, 73, 83
2, 695360, Note_on_c, 0, 76, 83
2, 695376, Note_on_c, 0, 76, 0
2, 695376, Note_on_c, 0, 73, 0
2, 695439, Note_on_c, 0, 75, 83
2, 695439, Note_on_c, 0, 78, 83
2, 695455, Note_on_c, 0, 78, 0
2, 695455, Note_on_c, 0, 75, 0
2, 695520, Note_on_c, 0, 76, 83
2, 695520, Note_on_c, 0, 80, 83
2, 695535, Note_on_c, 0, 80, 0
2, 695535, Note_on_c, 0, 76, 0
2, 695600, Note_on_c, 0, 80, 83
2, 695600, Note_on_c, 0, 84, 83
2, 695616, Note_on_c, 0, 84, 0
2, 695616, Note_on_c, 0, 80, 0
2, 695679, Note_on_c, 0, 82, 96
2, 695679, Note_on_c, 0, 85, 96
2, 695695, Note_on_c, 0, 85, 0
2, 695695, Note_on_c, 0, 82, 0
2, 695760, Note_on_c, 0, 84, 96
2, 695760, Note_on_c, 0, 87, 96
2, 695775, Note_on_c, 0, 87, 0
2, 695775, Note_on_c, 0, 84, 0
2, 695840, Note_on_c, 0, 85, 96
2, 695840, Note_on_c, 0, 88, 96
2, 695856, Note_on_c, 0, 88, 0
2, 695856, Note_on_c, 0, 85, 0
2, 695919, Note_on_c, 0, 87, 96
2, 695919, Note_on_c, 0, 90, 96
2, 695935, Note_on_c, 0, 90, 0
2, 695935, Note_on_c, 0, 87, 0
2, 696000, Note_on_c, 0, 80, 122
2, 696000, Note_on_c, 0, 85, 122
2, 696000, Note_on_c, 0, 88, 122
2, 696000, Note_on_c, 0, 92, 122
2, 696960, Note_on_c, 0, 92, 0
2, 696960, Note_on_c, 0, 80, 0
2, 696960, Note_on_c, 0, 85, 0
2, 696960, Note_on_c, 0, 88, 0
2, 696960, Note_on_c, 0, 78, 96
2, 696960, Note_on_c, 0, 90, 96
2, 697200, Note_on_c, 0, 90, 0
2, 697200, Note_on_c, 0, 78, 0
2, 697200, Note_on_c, 0, 76, 96
2, 697200, Note_on_c, 0, 88, 96
2, 697440, Note_on_c, 0, 88, 0
2, 697440, Note_on_c, 0, 76, 0
2, 697440, Note_on_c, 0, 75, 96
2, 697440, Note_on_c, 0, 87, 96
2, 697680, Note_on_c, 0, 87, 0
2, 697680, Note_on_c, 0, 75, 0
2, 697680, Note_on_c, 0, 73, 96
2, 697680, Note_on_c, 0, 85, 96
2, 697920, Note_on_c, 0, 85, 0
2, 697920, Note_on_c, 0, 73, 0
2, 697920, Note_on_c, 0, 71, 96
2, 697920, Note_on_c, 0, 83, 96
2, 698400, Note_on_c, 0, 83, 0
2, 698400, Note_on_c, 0, 71, 0
2, 698400, Note_on_c, 0, 70, 96
2, 698400, Note_on_c, 0, 82, 96
2, 698880, Note_on_c, 0, 82, 0
2, 698880, Note_on_c, 0, 70, 0
2, 699000, Note_on_c, 0, 70, 96
2, 699000, Note_on_c, 0, 82, 96
2, 699120, Note_on_c, 0, 82, 0
2, 699120, Note_on_c, 0, 70, 0
2, 699120, Note_on_c, 0, 68, 96
2, 699120, Note_on_c, 0, 80, 96
2, 699240, Note_on_c, 0, 80, 0
2, 699240, Note_on_c, 0, 68, 0
2, 699240, Note_on_c, 0, 70, 96
2, 699240, Note_on_c, 0, 82, 96
2, 699360, Note_on_c, 0, 82, 0
2, 699360, Note_on_c, 0, 70, 0
2, 699360, Note_on_c, 0, 71, 96
2, 699360, Note_on_c, 0, 83, 96
2, 699440, Note_on_c, 0, 83, 0
2, 699440, Note_on_c, 0, 71, 0
2, 699440, Note_on_c, 0, 70, 96
2, 699440, Note_on_c, 0, 82, 96
2, 699519, Note_on_c, 0, 82, 0
2, 699519, Note_on_c, 0, 70, 0
2, 699519, Note_on_c, 0, 71, 96
2, 699519, Note_on_c, 0, 83, 96
2, 699600, Note_on_c, 0, 83, 0
2, 699600, Note_on_c, 0, 71, 0
2, 699600, Note_on_c, 0, 73, 96
2, 699600, Note_on_c, 0, 85, 96
2, 699680, Note_on_c, 0, 85, 0
2, 699680, Note_on_c, 0, 73, 0
2, 699680, Note_on_c, 0, 74, 96
2, 699680, Note_on_c, 0, 86, 96
2, 699759, Note_on_c, 0, 86, 0
2, 699759, Note_on_c, 0, 74, 0
2, 699759, Note_on_c, 0, 76, 96
2, 699759, Note_on_c, 0, 88, 96
2, 699840, Note_on_c, 0, 88, 0
2, 699840, Note_on_c, 0, 76, 0
2, 699840, Note_on_c, 0, 78, 96
2, 699840, Note_on_c, 0, 83, 96
2, 699840, Note_on_c, 0, 86, 96
2, 699840, Note_on_c, 0, 90, 96
2, 700800, Note_on_c, 0, 90, 0
2, 700800, Note_on_c, 0, 78, 0
2, 700800, Note_on_c, 0, 83, 0
2, 700800, Note_on_c, 0, 86, 0
2, 700800, Note_on_c, 0, 76, 96
2, 700800, Note_on_c, 0, 88, 96
2, 701040, Note_on_c, 0, 88, 0
2, 701040, Note_on_c, 0, 76, 0
2, 701040, Note_on_c, 0, 74, 96
2, 701040, Note_on_c, 0, 86, 96
2, 701280, Note_on_c, 0, 86, 0
2, 701280, Note_on_c, 0, 74, 0
2, 701280, Note_on_c, 0, 73, 96
2, 701280, Note_on_c, 0, 85, 96
2, 701520, Note_on_c, 0, 85, 0
2, 701520, Note_on_c, 0, 73, 0
2, 701520, Note_on_c, 0, 71, 96
2, 701520, Note_on_c, 0, 83, 96
2, 701760, Note_on_c, 0, 83, 0
2, 701760, Note_on_c, 0, 71, 0
2, 701760, Note_on_c, 0, 69, 96
2, 701760, Note_on_c, 0, 81, 96
2, 702240, Note_on_c, 0, 81, 0
2, 702240, Note_on_c, 0, 69, 0
2, 702240, Note_on_c, 0, 68, 96
2, 702240, Note_on_c, 0, 80, 96
2, 702720, Note_on_c, 0, 80, 0
2, 702720, Note_on_c, 0, 68, 0
2, 702840, Note_on_c, 0, 68, 96
2, 702840, Note_on_c, 0, 80, 96
2, 702960, Note_on_c, 0, 80, 0
2, 702960, Note_on_c, 0, 68, 0
2, 702960, Note_on_c, 0, 66, 96
2, 702960, Note_on_c, 0, 78, 96
2, 703080, Note_on_c, 0, 78, 0
2, 703080, Note_on_c, 0, 66, 0
2, 703080, Note_on_c, 0, 68, 96
2, 703080, Note_on_c, 0, 80, 96
2, 703200, Note_on_c, 0, 80, 0
2, 703200, Note_on_c, 0, 68, 0
2, 703200, Note_on_c, 0, 69, 96
2, 703200, Note_on_c, 0, 81, 96
2, 703280, Note_on_c, 0, 81, 0
2, 703280, Note_on_c, 0, 69, 0
2, 703280, Note_on_c, 0, 68, 96
2, 703280, Note_on_c, 0, 80, 96
2, 703359, Note_on_c, 0, 80, 0
2, 703359, Note_on_c, 0, 68, 0
2, 703359, Note_on_c, 0, 69, 96
2, 703359, Note_on_c, 0, 81, 96
2, 703440, Note_on_c, 0, 81, 0
2, 703440, Note_on_c, 0, 69, 0
2, 703440, Note_on_c, 0, 71, 96
2, 703440, Note_on_c, 0, 83, 96
2, 703520, Note_on_c, 0, 83, 0
2, 703520, Note_on_c, 0, 71, 0
2, 703520, Note_on_c, 0, 72, 96
2, 703520, Note_on_c, 0, 84, 96
2, 703599, Note_on_c, 0, 84, 0
2, 703599, Note_on_c, 0, 72, 0
2, 703599, Note_on_c, 0, 74, 96
2, 703599, Note_on_c, 0, 86, 96
2, 703680, Note_on_c, 0, 86, 0
2, 703680, Note_on_c, 0, 74, 0
2, 703680, Note_on_c, 0, 76, 122
2, 703680, Note_on_c, 0, 88, 122
2, 704240, Note_on_c, 0, 88, 0
2, 704240, Note_on_c, 0, 76, 0
2, 704240, Note_on_c, 0, 76, 122
2, 704240, Note_on_c, 0, 88, 122
2, 704319, Note_on_c, 0, 88, 0
2, 704319, Note_on_c, 0, 76, 0
2, 704319, Note_on_c, 0, 77, 122
2, 704319, Note_on_c, 0, 89, 122
2, 704400, Note_on_c, 0, 89, 0
2, 704400, Note_on_c, 0, 77, 0
2, 704400, Note_on_c, 0, 76, 122
2, 704400, Note_on_c, 0, 88, 122
2, 704480, Note_on_c, 0, 88, 0
2, 704480, Note_on_c, 0, 76, 0
2, 704480, Note_on_c, 0, 75, 122
2, 704480, Note_on_c, 0, 87, 122
2, 704559, Note_on_c, 0, 87, 0
2, 704559, Note_on_c, 0, 75, 0
2, 704559, Note_on_c, 0, 76, 122
2, 704559, Note_on_c, 0, 88, 122
2, 704640, Note_on_c, 0, 88, 0
2, 704640, Note_on_c, 0, 76, 0
2, 704640, Note_on_c, 0, 81, 122
2, 704640, Note_on_c, 0, 93, 122
2, 705279, Note_on_c, 0, 93, 0
2, 705279, Note_on_c, 0, 81, 0
2, 705279, Note_on_c, 0, 79, 122
2, 705279, Note_on_c, 0, 91, 122
2, 705440, Note_on_c, 0, 91, 0
2, 705440, Note_on_c, 0, 79, 0
2, 705440, Note_on_c, 0, 72, 122
2, 705440, Note_on_c, 0, 84, 122
2, 705600, Note_on_c, 0, 84, 0
2, 705600, Note_on_c, 0, 72, 0
2, 705600, Note_on_c, 0, 79, 122
2, 705600, Note_on_c, 0, 91, 122
2, 705759, Note_on_c, 0, 91, 0
2, 705759, Note_on_c, 0, 79, 0
2, 705759, Note_on_c, 0, 77, 96
2, 705759, Note_on_c, 0, 89, 96
2, 705920, Note_on_c, 0, 89, 0
2, 705920, Note_on_c, 0, 77, 0
2, 705920, Note_on_c, 0, 72, 96
2, 705920, Note_on_c, 0, 84, 96
2, 706080, Note_on_c, 0, 84, 0
2, 706080, Note_on_c, 0, 72, 0
2, 706080, Note_on_c, 0, 76, 96
2, 706080, Note_on_c, 0, 88, 96
2, 706239, Note_on_c, 0, 88, 0
2, 706239, Note_on_c, 0, 76, 0
2, 706239, Note_on_c, 0, 75, 96
2, 706239, Note_on_c, 0, 87, 96
2, 706400, Note_on_c, 0, 87, 0
2, 706400, Note_on_c, 0, 75, 0
2, 706400, Note_on_c, 0, 69, 96
2, 706400, Note_on_c, 0, 81, 96
2, 706560, Note_on_c, 0, 81, 0
2, 706560, Note_on_c, 0, 69, 0
2, 706560, Note_on_c, 0, 74, 96
2, 706560, Note_on_c, 0, 86, 96
2, 706719, Note_on_c, 0, 86, 0
2, 706719, Note_on_c, 0, 74, 0
2, 706719, Note_on_c, 0, 72, 96
2, 706719, Note_on_c, 0, 84, 96
2, 706880, Note_on_c, 0, 84, 0
2, 706880, Note_on_c, 0, 72, 0
2, 706880, Note_on_c, 0, 65, 96
2, 706880, Note_on_c, 0, 77, 96
2, 707040, Note_on_c, 0, 77, 0
2, 707040, Note_on_c, 0, 65, 0
2, 707040, Note_on_c, 0, 71, 96
2, 707040, Note_on_c, 0, 83, 96
2, 707199, Note_on_c, 0, 83, 0
2, 707199, Note_on_c, 0, 71, 0
2, 707199, Note_on_c, 0, 69, 96
2, 707199, Note_on_c, 0, 81, 96
2, 707360, Note_on_c, 0, 81, 0
2, 707360, Note_on_c, 0, 69, 0
2, 707360, Note_on_c, 0, 63, 96
2, 707360, Note_on_c, 0, 75, 96
2, 707520, Note_on_c, 0, 75, 0
2, 707520, Note_on_c, 0, 63, 0
2, 707520, Note_on_c, 0, 64, 96
2, 707520, Note_on_c, 0, 76, 96
2, 707760, Note_on_c, 0, 76, 0
2, 707760, Note_on_c, 0, 64, 0
2, 707760, Note_on_c, 0, 65, 96
2, 707760, Note_on_c, 0, 77, 96
2, 708000, Note_on_c, 0, 77, 0
2, 708000, Note_on_c, 0, 65, 0
2, 708000, Note_on_c, 0, 66, 96
2, 708000, Note_on_c, 0, 78, 96
2, 708240, Note_on_c, 0, 78, 0
2, 708240, Note_on_c, 0, 66, 0
2, 708240, Note_on_c, 0, 67, 96
2, 708240, Note_on_c, 0, 79, 96
2, 708480, Note_on_c, 0, 79, 0
2, 708480, Note_on_c, 0, 67, 0
2, 708480, Note_on_c, 0, 68, 70
2, 708480, Note_on_c, 0, 80, 70
2, 708600, Note_on_c, 0, 80, 0
2, 708600, Note_on_c, 0, 68, 0
2, 708600, Note_on_c, 0, 69, 70
2, 708600, Note_on_c, 0, 81, 70
2, 708720, Note_on_c, 0, 81, 0
2, 708720, Note_on_c, 0, 69, 0
2, 708720, Note_on_c, 0, 71, 70
2, 708720, Note_on_c, 0, 83, 70
2, 708840, Note_on_c, 0, 83, 0
2, 708840, Note_on_c, 0, 71, 0
2, 708840, Note_on_c, 0, 72, 70
2, 708840, Note_on_c, 0, 84, 70
2, 708960, Note_on_c, 0, 84, 0
2, 708960, Note_on_c, 0, 72, 0
2, 708960, Note_on_c, 0, 69, 83
2, 708960, Note_on_c, 0, 81, 83
2, 709040, Note_on_c, 0, 81, 0
2, 709040, Note_on_c, 0, 69, 0
2, 709040, Note_on_c, 0, 71, 83
2, 709040, Note_on_c, 0, 83, 83
2, 709119, Note_on_c, 0, 83, 0
2, 709119, Note_on_c, 0, 71, 0
2, 709119, Note_on_c, 0, 72, 83
2, 709119, Note_on_c, 0, 84, 83
2, 709200, Note_on_c, 0, 84, 0
2, 709200, Note_on_c, 0, 72, 0
2, 709200, Note_on_c, 0, 73, 96
2, 709200, Note_on_c, 0, 85, 96
2, 709280, Note_on_c, 0, 85, 0
2, 709280, Note_on_c, 0, 73, 0
2, 709280, Note_on_c, 0, 74, 96
2, 709280, Note_on_c, 0, 86, 96
2, 709359, Note_on_c, 0, 86, 0
2, 709359, Note_on_c, 0, 74, 0
2, 709359, Note_on_c, 0, 75, 96
2, 709359, Note_on_c, 0, 87, 96
2, 709440, Note_on_c, 0, 87, 0
2, 709440, Note_on_c, 0, 75, 0
2, 709440, Note_on_c, 0, 76, 96
2, 709440, Note_on_c, 0, 81, 96
2, 709440, Note_on_c, 0, 84, 96
2, 709440, Note_on_c, 0, 88, 96
2, 709800, Note_on_c, 0, 88, 0
2, 709800, Note_on_c, 0, 76, 0
2, 709800, Note_on_c, 0, 81, 0
2, 709800, Note_on_c, 0, 84, 0
2, 709800, Control_c, 0, 64, 127
2, 709800, Note_on_c, 0, 81, 96
2, 709800, Note_on_c, 0, 84, 96
2, 709800, Note_on_c, 0, 89, 96
2, 709800, Note_on_c, 0, 93, 96
2, 709920, Note_on_c, 0, 93, 0
2, 709920, Note_on_c, 0, 81, 0
2, 709920, Note_on_c, 0, 84, 0
2, 709920, Note_on_c, 0, 89, 0
2, 709920, Note_on_c, 0, 81, 96
2, 709920, Note_on_c, 0, 84, 96
2, 709920, Note_on_c, 0, 89, 96
2, 709920, Note_on_c, 0, 93, 96
2, 710640, Note_on_c, 0, 93, 0
2, 710640, Note_on_c, 0, 81, 0
2, 710640, Note_on_c, 0, 84, 0
2, 710640, Note_on_c, 0, 89, 0
2, 711120, Control_c, 0, 64, 0
2, 711420, Control_c, 0, 64, 127
2, 711420, Note_on_c, 0, 53, 96
2, 711480, Note_on_c, 0, 53, 0
2, 711480, Note_on_c, 0, 57, 96
2, 711540, Note_on_c, 0, 57, 0
2, 711540, Note_on_c, 0, 60, 96
2, 711600, Note_on_c, 0, 60, 0
2, 711600, Note_on_c, 0, 65, 96
2, 711660, Note_on_c, 0, 65, 0
2, 711660, Note_on_c, 0, 69, 96
2, 711720, Note_on_c, 0, 69, 0
2, 711720, Note_on_c, 0, 72, 96
2, 711780, Note_on_c, 0, 72, 0
2, 711780, Note_on_c, 0, 77, 96
2, 711840, Note_on_c, 0, 77, 0
2, 711840, Note_on_c, 0, 81, 96
2, 711900, Note_on_c, 0, 81, 0
2, 711900, Note_on_c, 0, 84, 96
2, 711960, Note_on_c, 0, 84, 0
2, 711960, Note_on_c, 0, 89, 96
2, 712020, Note_on_c, 0, 89, 0
2, 712020, Note_on_c, 0, 93, 96
2, 712080, Note_on_c, 0, 93, 0
2, 712080, Note_on_c, 0, 96, 96
2, 712140, Note_on_c, 0, 96, 0
2, 712140, Note_on_c, 0, 93, 122
2, 712140, Note_on_c, 0, 101, 122
2, 712620, Note_on_c, 0, 101, 0
2, 712620, Note_on_c, 0, 93, 0
2, 712680, Control_c, 0, 64, 0
2, 713520, Note_on_c, 0, 81, 57
2, 713535, Note_on_c, 0, 81, 0
2, 713600, Note_on_c, 0, 89, 57
2, 713679, Note_on_c, 0, 89, 0
2, 713679, Note_on_c, 0, 96, 57
2, 713760, Note_on_c, 0, 96, 0
2, 713760, Note_on_c, 0, 99, 57
2, 713775, Note_on_c, 0, 99, 0
2, 713840, Note_on_c, 0, 86, 57
2, 713840, Note_on_c, 0, 93, 57
2, 713919, Note_on_c, 0, 93, 0
2, 713919, Note_on_c, 0, 86, 0
2, 713919, Note_on_c, 0, 84, 57
2, 714000, Note_on_c, 0, 84, 0
2, 714000, Note_on_c, 0, 77, 57
2, 714000, Note_on_c, 0, 83, 57
2, 714015, Note_on_c, 0, 83, 0
2, 714015, Note_on_c, 0, 77, 0
2, 714080, Note_on_c, 0, 82, 57
2, 714080, Note_on_c, 0, 87, 57
2, 714159, Note_on_c, 0, 87, 0
2, 714159, Note_on_c, 0, 82, 0
2, 714159, Note_on_c, 0, 81, 57
2, 714240, Note_on_c, 0, 81, 0
2, 714240, Note_on_c, 0, 72, 57
2, 714240, Note_on_c, 0, 76, 57
2, 714240, Note_on_c, 0, 80, 57
2, 714255, Note_on_c, 0, 80, 0
2, 714255, Note_on_c, 0, 76, 0
2, 714255, Note_on_c, 0, 72, 0
2, 714320, Note_on_c, 0, 81, 57
2, 714399, Note_on_c, 0, 81, 0
2, 714399, Note_on_c, 0, 84, 57
2, 714399, Note_on_c, 0, 88, 57
2, 714480, Note_on_c, 0, 88, 0
2, 714480, Note_on_c, 0, 84, 0
2, 714480, Note_on_c, 0, 83, 57
2, 714495, Note_on_c, 0, 83, 0
2, 714560, Note_on_c, 0, 84, 57
2, 714639, Note_on_c, 0, 84, 0
2, 714639, Note_on_c, 0, 88, 57
2, 714639, Note_on_c, 0, 93, 57
2, 714720, Note_on_c, 0, 93, 0
2, 714720, Note_on_c, 0, 88, 0
2, 714720, Note_on_c, 0, 87, 57
2, 714735, Note_on_c, 0, 87, 0
2, 714800, Note_on_c, 0, 88, 57
2, 714879, Note_on_c, 0, 88, 0
2, 714879, Note_on_c, 0, 93, 57
2, 714879, Note_on_c, 0, 96, 57
2, 714960, Note_on_c, 0, 96, 0
2, 714960, Note_on_c, 0, 93, 0
2, 714960, Note_on_c, 0, 92, 57
2, 714975, Note_on_c, 0, 92, 0
2, 715040, Note_on_c, 0, 93, 57
2, 715119, Note_on_c, 0, 93, 0
2, 715119, Note_on_c, 0, 96, 57
2, 715119, Note_on_c, 0, 100, 57
2, 715200, Note_on_c, 0, 100, 0
2, 715200, Note_on_c, 0, 96, 0
2, 715200, Note_on_c, 0, 95, 57
2, 715215, Note_on_c, 0, 95, 0
2, 715280, Note_on_c, 0, 96, 57
2, 715359, Note_on_c, 0, 96, 0
2, 715359, Note_on_c, 0, 100, 57
2, 715359, Note_on_c, 0, 105, 57
2, 715440, Note_on_c, 0, 105, 0
2, 715440, Note_on_c, 0, 100, 0
2, 715440, Note_on_c, 0, 99, 57
2, 715455, Note_on_c, 0, 99, 0
2, 715520, Note_on_c, 0, 101, 57
2, 715599, Note_on_c, 0, 101, 0
2, 715599, Note_on_c, 0, 93, 57
2, 715599, Note_on_c, 0, 100, 57
2, 715680, Note_on_c, 0, 100, 0
2, 715680, Note_on_c, 0, 93, 0
2, 715680, Note_on_c, 0, 104, 57
2, 715695, Note_on_c, 0, 104, 0
2, 715760, Note_on_c, 0, 107, 57
2, 715839, Note_on_c, 0, 107, 0
2, 715839, Note_on_c, 0, 96, 57
2, 715839, Note_on_c, 0, 105, 57
2, 715920, Note_on_c, 0, 105, 0
2, 715920, Note_on_c, 0, 96, 0
2, 715920, Note_on_c, 0, 99, 57
2, 715935, Note_on_c, 0, 99, 0
2, 716000, Note_on_c, 0, 101, 57
2, 716079, Note_on_c, 0, 101, 0
2, 716079, Note_on_c, 0, 93, 57
2, 716079, Note_on_c, 0, 100, 57
2, 716160, Note_on_c, 0, 100, 0
2, 716160, Note_on_c, 0, 93, 0
2, 716160, Note_on_c, 0, 92, 57
2, 716175, Note_on_c, 0, 92, 0
2, 716240, Note_on_c, 0, 95, 57
2, 716319, Note_on_c, 0, 95, 0
2, 716319, Note_on_c, 0, 84, 57
2, 716319, Note_on_c, 0, 93, 57
2, 716400, Note_on_c, 0, 93, 0
2, 716400, Note_on_c, 0, 84, 0
2, 716400, Note_on_c, 0, 87, 57
2, 716415, Note_on_c, 0, 87, 0
2, 716480, Note_on_c, 0, 89, 57
2, 716559, Note_on_c, 0, 89, 0
2, 716559, Note_on_c, 0, 81, 57
2, 716559, Note_on_c, 0, 88, 57
2, 716640, Note_on_c, 0, 88, 0
2, 716640, Note_on_c, 0, 81, 0
2, 716640, Note_on_c, 0, 92, 57
2, 716655, Note_on_c, 0, 92, 0
2, 716720, Note_on_c, 0, 95, 57
2, 716799, Note_on_c, 0, 95, 0
2, 716799, Note_on_c, 0, 84, 57
2, 716799, Note_on_c, 0, 93, 57
2, 716880, Note_on_c, 0, 93, 0
2, 716880, Note_on_c, 0, 84, 0
2, 716880, Note_on_c, 0, 87, 57
2, 716895, Note_on_c, 0, 87, 0
2, 716960, Note_on_c, 0, 89, 57
2, 717039, Note_on_c, 0, 89, 0
2, 717039, Note_on_c, 0, 81, 57
2, 717039, Note_on_c, 0, 88, 57
2, 717120, Note_on_c, 0, 88, 0
2, 717120, Note_on_c, 0, 81, 0
2, 717120, Note_on_c, 0, 80, 57
2, 717135, Note_on_c, 0, 80, 0
2, 717200, Note_on_c, 0, 83, 57
2, 717279, Note_on_c, 0, 83, 0
2, 717279, Note_on_c, 0, 72, 57
2, 717279, Note_on_c, 0, 81, 57
2, 717360, Note_on_c, 0, 81, 0
2, 717360, Note_on_c, 0, 72, 0
2, 717360, Note_on_c, 0, 69, 57
2, 717375, Note_on_c, 0, 69, 0
2, 717440, Note_on_c, 0, 77, 57
2, 717519, Note_on_c, 0, 77, 0
2, 717519, Note_on_c, 0, 84, 57
2, 717600, Note_on_c, 0, 84, 0
2, 717600, Note_on_c, 0, 75, 57
2, 717615, Note_on_c, 0, 75, 0
2, 717680, Note_on_c, 0, 74, 57
2, 717680, Note_on_c, 0, 81, 57
2, 717759, Note_on_c, 0, 81, 0
2, 717759, Note_on_c, 0, 74, 0
2, 717759, Note_on_c, 0, 72, 57
2, 717840, Note_on_c, 0, 72, 0
2, 717840, Note_on_c, 0, 65, 57
2, 717840, Note_on_c, 0, 71, 57
2, 717855, Note_on_c, 0, 71, 0
2, 717855, Note_on_c, 0, 65, 0
2, 717920, Note_on_c, 0, 70, 57
2, 717920, Note_on_c, 0, 75, 57
2, 717999, Note_on_c, 0, 75, 0
2, 717999, Note_on_c, 0, 70, 0
2, 717999, Note_on_c, 0, 69, 57
2, 718080, Note_on_c, 0, 69, 0
2, 718080, Note_on_c, 0, 60, 57
2, 718080, Note_on_c, 0, 64, 57
2, 718080, Note_on_c, 0, 68, 57
2, 718095, Note_on_c, 0, 68, 0
2, 718095, Note_on_c, 0, 64, 0
2, 718095, Note_on_c, 0, 60, 0
2, 718160, Note_on_c, 0, 69, 57
2, 718239, Note_on_c, 0, 69, 0
2, 718239, Note_on_c, 0, 72, 57
2, 718239, Note_on_c, 0, 76, 57
2, 718320, Note_on_c, 0, 76, 0
2, 718320, Note_on_c, 0, 72, 0
2, 718320, Note_on_c, 0, 71, 57
2, 718335, Note_on_c, 0, 71, 0
2, 718400, Note_on_c, 0, 72, 57
2, 718479, Note_on_c, 0, 72, 0
2, 718479, Note_on_c, 0, 76, 57
2, 718479, Note_on_c, 0, 81, 57
2, 718560, Note_on_c, 0, 81, 0
2, 718560, Note_on_c, 0, 76, 0
2, 718560, Note_on_c, 0, 75, 57
2, 718575, Note_on_c, 0, 75, 0
2, 718640, Note_on_c, 0, 76, 57
2, 718719, Note_on_c, 0, 76, 0
2, 718719, Note_on_c, 0, 81, 57
2, 718719, Note_on_c, 0, 84, 57
2, 718800, Note_on_c, 0, 84, 0
2, 718800, Note_on_c, 0, 81, 0
2, 718800, Note_on_c, 0, 80, 57
2, 718815, Note_on_c, 0, 80, 0
2, 718880, Note_on_c, 0, 81, 57
2, 718959, Note_on_c, 0, 81, 0
2, 718959, Note_on_c, 0, 84, 57
2, 718959, Note_on_c, 0, 88, 57
2, 719040, Note_on_c, 0, 88, 0
2, 719040, Note_on_c, 0, 84, 0
2, 719040, Note_on_c, 0, 83, 57
2, 719055, Note_on_c, 0, 83, 0
2, 719120, Note_on_c, 0, 84, 57
2, 719199, Note_on_c, 0, 84, 0
2, 719199, Note_on_c, 0, 88, 57
2, 719199, Note_on_c, 0, 93, 57
2, 719280, Note_on_c, 0, 93, 0
2, 719280, Note_on_c, 0, 88, 0
2, 719280, Note_on_c, 0, 87, 57
2, 719295, Note_on_c, 0, 87, 0
2, 719360, Note_on_c, 0, 89, 57
2, 719439, Note_on_c, 0, 89, 0
2, 719439, Note_on_c, 0, 81, 57
2, 719439, Note_on_c, 0, 88, 57
2, 719520, Note_on_c, 0, 88, 0
2, 719520, Note_on_c, 0, 81, 0
2, 719520, Note_on_c, 0, 92, 57
2, 719535, Note_on_c, 0, 92, 0
2, 719600, Note_on_c, 0, 95, 57
2, 719679, Note_on_c, 0, 95, 0
2, 719679, Note_on_c, 0, 84, 57
2, 719679, Note_on_c, 0, 93, 57
2, 719760, Note_on_c, 0, 93, 0
2, 719760, Note_on_c, 0, 84, 0
2, 719760, Note_on_c, 0, 87, 57
2, 719775, Note_on_c, 0, 87, 0
2, 719840, Note_on_c, 0, 89, 57
2, 719919, Note_on_c, 0, 89, 0
2, 719919, Note_on_c, 0, 81, 57
2, 719919, Note_on_c, 0, 88, 57
2, 720000, Note_on_c, 0, 88, 0
2, 720000, Note_on_c, 0, 81, 0
2, 720000, Note_on_c, 0, 80, 57
2, 720015, Note_on_c, 0, 80, 0
2, 720080, Note_on_c, 0, 83, 57
2, 720159, Note_on_c, 0, 83, 0
2, 720159, Note_on_c, 0, 72, 57
2, 720159, Note_on_c, 0, 81, 57
2, 720240, Note_on_c, 0, 81, 0
2, 720240, Note_on_c, 0, 72, 0
2, 720240, Note_on_c, 0, 75, 57
2, 720255, Note_on_c, 0, 75, 0
2, 720320, Note_on_c, 0, 77, 57
2, 720399, Note_on_c, 0, 77, 0
2, 720399, Note_on_c, 0, 69, 57
2, 720399, Note_on_c, 0, 76, 57
2, 720480, Note_on_c, 0, 76, 0
2, 720480, Note_on_c, 0, 69, 0
2, 720480, Note_on_c, 0, 80, 57
2, 720495, Note_on_c, 0, 80, 0
2, 720560, Note_on_c, 0, 83, 57
2, 720639, Note_on_c, 0, 83, 0
2, 720639, Note_on_c, 0, 72, 57
2, 720639, Note_on_c, 0, 81, 57
2, 720720, Note_on_c, 0, 81, 0
2, 720720, Note_on_c, 0, 72, 0
2, 720720, Note_on_c, 0, 75, 57
2, 720735, Note_on_c, 0, 75, 0
2, 720800, Note_on_c, 0, 77, 57
2, 720879, Note_on_c, 0, 77, 0
2, 720879, Note_on_c, 0, 69, 57
2, 720879, Note_on_c, 0, 76, 57
2, 720960, Note_on_c, 0, 76, 0
2, 720960, Note_on_c, 0, 69, 0
2, 720960, Note_on_c, 0, 68, 57
2, 720975, Note_on_c, 0, 68, 0
2, 721040, Note_on_c, 0, 71, 57
2, 721119, Note_on_c, 0, 71, 0
2, 721119, Note_on_c, 0, 60, 57
2, 721119, Note_on_c, 0, 69, 57
2, 721200, Note_on_c, 0, 69, 0
2, 721200, Note_on_c, 0, 60, 0
2, 721200, Note_on_c, 0, 75, 57
2, 721215, Note_on_c, 0, 75, 0
2, 721280, Note_on_c, 0, 77, 57
2, 721359, Note_on_c, 0, 77, 0
2, 721359, Note_on_c, 0, 69, 57
2, 721359, Note_on_c, 0, 76, 57
2, 721440, Note_on_c, 0, 76, 0
2, 721440, Note_on_c, 0, 69, 0
2, 721440, Note_on_c, 0, 71, 70
2, 721455, Note_on_c, 0, 71, 0
2, 721520, Note_on_c, 0, 74, 70
2, 721599, Note_on_c, 0, 74, 0
2, 721599, Note_on_c, 0, 64, 70
2, 721599, Note_on_c, 0, 72, 70
2, 721680, Note_on_c, 0, 72, 0
2, 721680, Note_on_c, 0, 64, 0
2, 721680, Note_on_c, 0, 68, 70
2, 721695, Note_on_c, 0, 68, 0
2, 721760, Note_on_c, 0, 71, 70
2, 721839, Note_on_c, 0, 71, 0
2, 721839, Note_on_c, 0, 60, 70
2, 721839, Note_on_c, 0, 69, 70
2, 721920, Note_on_c, 0, 69, 0
2, 721920, Note_on_c, 0, 60, 0
2, 721920, Note_on_c, 0, 63, 70
2, 721935, Note_on_c, 0, 63, 0
2, 722000, Note_on_c, 0, 65, 70
2, 722079, Note_on_c, 0, 65, 0
2, 722079, Note_on_c, 0, 57, 70
2, 722079, Note_on_c, 0, 64, 70
2, 722160, Note_on_c, 0, 64, 0
2, 722160, Note_on_c, 0, 57, 0
2, 722160, Note_on_c, 0, 71, 70
2, 722175, Note_on_c, 0, 71, 0
2, 722240, Note_on_c, 0, 74, 70
2, 722319, Note_on_c, 0, 74, 0
2, 722319, Note_on_c, 0, 64, 70
2, 722319, Note_on_c, 0, 72, 70
2, 722400, Note_on_c, 0, 72, 0
2, 722400, Note_on_c, 0, 64, 0
2, 722400, Note_on_c, 0, 68, 70
2, 722415, Note_on_c, 0, 68, 0
2, 722480, Note_on_c, 0, 71, 70
2, 722559, Note_on_c, 0, 71, 0
2, 722559, Note_on_c, 0, 60, 70
2, 722559, Note_on_c, 0, 69, 70
2, 722640, Note_on_c, 0, 69, 0
2, 722640, Note_on_c, 0, 60, 0
2, 722640, Note_on_c, 0, 63, 70
2, 722655, Note_on_c, 0, 63, 0
2, 722720, Note_on_c, 0, 65, 70
2, 722799, Note_on_c, 0, 65, 0
2, 722799, Note_on_c, 0, 57, 70
2, 722799, Note_on_c, 0, 64, 70
2, 722880, Note_on_c, 0, 64, 0
2, 722880, Note_on_c, 0, 57, 0
2, 722880, Note_on_c, 0, 59, 70
2, 722895, Note_on_c, 0, 59, 0
2, 722960, Note_on_c, 0, 62, 70
2, 723039, Note_on_c, 0, 62, 0
2, 723039, Note_on_c, 0, 60, 70
2, 723120, Note_on_c, 0, 60, 0
2, 723120, Note_on_c, 0, 56, 70
2, 723135, Note_on_c, 0, 56, 0
2, 723200, Note_on_c, 0, 59, 70
2, 723279, Note_on_c, 0, 59, 0
2, 723279, Note_on_c, 0, 57, 70
2, 723360, Note_on_c, 0, 57, 0
2, 723360, Note_on_c, 0, 51, 83
2, 723375, Note_on_c, 0, 51, 0
2, 723440, Note_on_c, 0, 53, 83
2, 723519, Note_on_c, 0, 53, 0
2, 723519, Note_on_c, 0, 52, 83
2, 723600, Note_on_c, 0, 52, 0
2, 723600, Note_on_c, 0, 47, 83
2, 723615, Note_on_c, 0, 47, 0
2, 723680, Note_on_c, 0, 50, 83
2, 723759, Note_on_c, 0, 50, 0
2, 723759, Note_on_c, 0, 48, 83
2, 723840, Note_on_c, 0, 48, 0
2, 723840, Note_on_c, 0, 44, 83
2, 723855, Note_on_c, 0, 44, 0
2, 723920, Note_on_c, 0, 47, 83
2, 723999, Note_on_c, 0, 47, 0
2, 723999, Note_on_c, 0, 45, 83
2, 724080, Note_on_c, 0, 45, 0
2, 724080, Note_on_c, 0, 39, 83
2, 724095, Note_on_c, 0, 39, 0
2, 724160, Note_on_c, 0, 41, 83
2, 724239, Note_on_c, 0, 41, 0
2, 724239, Note_on_c, 0, 40, 83
2, 724320, Note_on_c, 0, 40, 0
2, 724320, Note_on_c, 0, 35, 83
2, 724335, Note_on_c, 0, 35, 0
2, 724400, Note_on_c, 0, 38, 83
2, 724479, Note_on_c, 0, 38, 0
2, 724479, Note_on_c, 0, 36, 83
2, 724560, Note_on_c, 0, 36, 0
2, 724560, Note_on_c, 0, 32, 83
2, 724575, Note_on_c, 0, 32, 0
2, 724640, Note_on_c, 0, 35, 83
2, 724719, Note_on_c, 0, 35, 0
2, 724719, Note_on_c, 0, 33, 83
2, 724800, Note_on_c, 0, 33, 0
2, 724800, Control_c, 0, 64, 127
2, 724800, Note_on_c, 0, 28, 83
2, 726360, Note_on_c, 0, 28, 0
2, 726360, Note_on_c, 0, 33, 83
2, 726480, Note_on_c, 0, 33, 0
2, 726480, Note_on_c, 0, 36, 83
2, 726600, Note_on_c, 0, 36, 0
2, 726600, Note_on_c, 0, 40, 83
2, 726720, Note_on_c, 0, 40, 0
2, 726720, Note_on_c, 0, 45, 83
2, 726780, Note_on_c, 0, 45, 0
2, 726780, Note_on_c, 0, 48, 83
2, 726840, Note_on_c, 0, 48, 0
2, 726840, Note_on_c, 0, 52, 83
2, 726900, Note_on_c, 0, 52, 0
2, 726900, Note_on_c, 0, 57, 83
2, 726960, Note_on_c, 0, 57, 0
2, 726960, Note_on_c, 0, 60, 83
2, 727020, Note_on_c, 0, 60, 0
2, 727020, Note_on_c, 0, 64, 83
2, 727080, Note_on_c, 0, 64, 0
2, 727080, Note_on_c, 0, 69, 83
2, 727140, Note_on_c, 0, 69, 0
2, 727140, Note_on_c, 0, 72, 83
2, 727200, Note_on_c, 0, 72, 0
2, 727200, Control_c, 0, 64, 0
2, 727200, Note_on_c, 0, 76, 109
2, 727680, Note_on_c, 0, 76, 0
2, 727680, Note_on_c, 0, 69, 109
2, 727680, Note_on_c, 0, 72, 109
2, 727680, Note_on_c, 0, 75, 109
2, 727920, Note_on_c, 0, 75, 0
2, 727920, Note_on_c, 0, 72, 0
2, 727920, Note_on_c, 0, 69, 0
2, 727920, Note_on_c, 0, 69, 109
2, 727920, Note_on_c, 0, 72, 109
2, 727920, Note_on_c, 0, 74, 109
2, 728160, Note_on_c, 0, 74, 0
2, 728160, Note_on_c, 0, 72, 0
2, 728160, Note_on_c, 0, 69, 0
2, 728160, Note_on_c, 0, 69, 109
2, 728160, Note_on_c, 0, 72, 109
2, 728160, Note_on_c, 0, 75, 109
2, 729120, Note_on_c, 0, 75, 0
2, 729120, Note_on_c, 0, 72, 0
2, 729120, Note_on_c, 0, 69, 0
2, 729120, Note_on_c, 0, 69, 109
2, 729120, Note_on_c, 0, 72, 109
2, 729120, Note_on_c, 0, 76, 109
2, 729600, Note_on_c, 0, 76, 0
2, 729600, Note_on_c, 0, 72, 0
2, 729600, Note_on_c, 0, 69, 0
2, 729600, Note_on_c, 0, 69, 109
2, 729600, Note_on_c, 0, 72, 109
2, 729600, Note_on_c, 0, 77, 109
2, 730080, Note_on_c, 0, 77, 0
2, 730080, Note_on_c, 0, 72, 0
2, 730080, Note_on_c, 0, 69, 0
2, 730080, Note_on_c, 0, 63, 109
2, 730560, Note_on_c, 0, 63, 0
2, 730560, Note_on_c, 0, 62, 109
2, 731040, Note_on_c, 0, 62, 0
2, 731040, Note_on_c, 0, 66, 109
2, 731040, Note_on_c, 0, 69, 109
2, 731040, Note_on_c, 0, 72, 109
2, 731040, Note_on_c, 0, 78, 109
2, 731520, Note_on_c, 0, 78, 0
2, 731520, Note_on_c, 0, 66, 0
2, 731520, Note_on_c, 0, 69, 0
2, 731520, Note_on_c, 0, 72, 0
2, 731520, Note_on_c, 0, 69, 109
2, 731520, Note_on_c, 0, 73, 109
2, 731520, Note_on_c, 0, 78, 109
2, 731520, Note_on_c, 0, 81, 109
2, 732000, Note_on_c, 0, 81, 0
2, 732000, Note_on_c, 0, 69, 0
2, 732000, Note_on_c, 0, 73, 0
2, 732000, Note_on_c, 0, 78, 0
2, 732000, Note_on_c, 0, 61, 109
2, 732480, Note_on_c, 0, 61, 0
2, 732480, Note_on_c, 0, 60, 109
2, 732960, Note_on_c, 0, 60, 0
2, 732960, Note_on_c, 0, 69, 109
2, 732960, Note_on_c, 0, 75, 109
2, 732960, Note_on_c, 0, 78, 109
2, 732960, Note_on_c, 0, 81, 109
2, 733440, Note_on_c, 0, 81, 0
2, 733440, Note_on_c, 0, 69, 0
2, 733440, Note_on_c, 0, 75, 0
2, 733440, Note_on_c, 0, 78, 0
2, 733440, Note_on_c, 0, 75, 109
2, 733440, Note_on_c, 0, 78, 109
2, 733440, Note_on_c, 0, 81, 109
2, 733440, Note_on_c, 0, 87, 109
2, 733920, Note_on_c, 0, 87, 0
2, 733920, Note_on_c, 0, 75, 0
2, 733920, Note_on_c, 0, 78, 0
2, 733920, Note_on_c, 0, 81, 0
2, 733920, Note_on_c, 0, 59, 109
2, 734400, Note_on_c, 0, 59, 0
2, 734400, Note_on_c, 0, 58, 109
2, 734880, Note_on_c, 0, 58, 0
2, 734880, Note_on_c, 0, 70, 109
2, 734880, Note_on_c, 0, 75, 109
2, 734880, Note_on_c, 0, 78, 109
2, 734880, Note_on_c, 0, 82, 109
2, 735360, Note_on_c, 0, 82, 0
2, 735360, Note_on_c, 0, 70, 0
2, 735360, Note_on_c, 0, 75, 0
2, 735360, Note_on_c, 0, 78, 0
2, 735360, Note_on_c, 0, 69, 109
2, 735360, Note_on_c, 0, 75, 109
2, 735360, Note_on_c, 0, 78, 109
2, 735360, Note_on_c, 0, 81, 109
2, 735600, Note_on_c, 0, 81, 0
2, 735600, Note_on_c, 0, 69, 0
2, 735600, Note_on_c, 0, 75, 0
2, 735600, Note_on_c, 0, 78, 0
2, 735600, Note_on_c, 0, 68, 109
2, 735600, Note_on_c, 0, 75, 109
2, 735600, Note_on_c, 0, 78, 109
2, 735600, Note_on_c, 0, 80, 109
2, 735840, Note_on_c, 0, 80, 0
2, 735840, Note_on_c, 0, 68, 0
2, 735840, Note_on_c, 0, 75, 0
2, 735840, Note_on_c, 0, 78, 0
2, 735840, Note_on_c, 0, 69, 109
2, 735840, Note_on_c, 0, 75, 109
2, 735840, Note_on_c, 0, 78, 109
2, 735840, Note_on_c, 0, 81, 109
2, 736800, Note_on_c, 0, 81, 0
2, 736800, Note_on_c, 0, 69, 0
2, 736800, Note_on_c, 0, 75, 0
2, 736800, Note_on_c, 0, 78, 0
2, 736800, Note_on_c, 0, 70, 109
2, 736800, Note_on_c, 0, 75, 109
2, 736800, Note_on_c, 0, 78, 109
2, 736800, Note_on_c, 0, 82, 109
2, 737280, Note_on_c, 0, 82, 0
2, 737280, Note_on_c, 0, 70, 0
2, 737280, Note_on_c, 0, 75, 0
2, 737280, Note_on_c, 0, 78, 0
2, 737280, Note_on_c, 0, 71, 109
2, 737280, Note_on_c, 0, 75, 109
2, 737280, Note_on_c, 0, 78, 109
2, 737280, Note_on_c, 0, 83, 109
2, 737760, Note_on_c, 0, 83, 0
2, 737760, Note_on_c, 0, 71, 0
2, 737760, Note_on_c, 0, 75, 0
2, 737760, Note_on_c, 0, 78, 0
2, 737760, Note_on_c, 0, 57, 109
2, 738240, Note_on_c, 0, 57, 0
2, 738240, Note_on_c, 0, 56, 109
2, 738720, Note_on_c, 0, 56, 0
2, 738720, Note_on_c, 0, 72, 109
2, 738720, Note_on_c, 0, 75, 109
2, 738720, Note_on_c, 0, 78, 109
2, 738720, Note_on_c, 0, 84, 109
2, 739200, Note_on_c, 0, 84, 0
2, 739200, Note_on_c, 0, 72, 0
2, 739200, Note_on_c, 0, 75, 0
2, 739200, Note_on_c, 0, 78, 0
2, 739200, Note_on_c, 0, 75, 109
2, 739200, Note_on_c, 0, 79, 109
2, 739200, Note_on_c, 0, 84, 109
2, 739200, Note_on_c, 0, 87, 109
2, 739680, Note_on_c, 0, 87, 0
2, 739680, Note_on_c, 0, 75, 0
2, 739680, Note_on_c, 0, 79, 0
2, 739680, Note_on_c, 0, 84, 0
2, 739680, Note_on_c, 0, 55, 109
2, 740160, Note_on_c, 0, 55, 0
2, 740160, Note_on_c, 0, 54, 109
2, 740640, Note_on_c, 0, 54, 0
2, 740640, Note_on_c, 0, 75, 109
2, 740640, Note_on_c, 0, 81, 109
2, 740640, Note_on_c, 0, 84, 109
2, 740640, Note_on_c, 0, 87, 109
2, 741120, Note_on_c, 0, 87, 0
2, 741120, Note_on_c, 0, 75, 0
2, 741120, Note_on_c, 0, 81, 0
2, 741120, Note_on_c, 0, 84, 0
2, 741120, Note_on_c, 0, 81, 109
2, 741120, Note_on_c, 0, 84, 109
2, 741120, Note_on_c, 0, 87, 109
2, 741120, Note_on_c, 0, 93, 109
2, 741600, Note_on_c, 0, 93, 0
2, 741600, Note_on_c, 0, 81, 0
2, 741600, Note_on_c, 0, 84, 0
2, 741600, Note_on_c, 0, 87, 0
2, 741600, Note_on_c, 0, 53, 109
2, 742080, Note_on_c, 0, 53, 0
2, 742080, Note_on_c, 0, 52, 109
2, 742560, Note_on_c, 0, 52, 0
2, 742560, Note_on_c, 0, 76, 109
2, 742560, Note_on_c, 0, 81, 109
2, 742560, Note_on_c, 0, 84, 109
2, 742560, Note_on_c, 0, 87, 109
2, 743040, Note_on_c, 0, 87, 0
2, 743040, Note_on_c, 0, 76, 0
2, 743040, Note_on_c, 0, 81, 0
2, 743040, Note_on_c, 0, 84, 0
2, 743040, Note_on_c, 0, 75, 109
2, 743040, Note_on_c, 0, 81, 109
2, 743040, Note_on_c, 0, 84, 109
2, 743040, Note_on_c, 0, 87, 109
2, 743280, Note_on_c, 0, 87, 0
2, 743280, Note_on_c, 0, 75, 0
2, 743280, Note_on_c, 0, 81, 0
2, 743280, Note_on_c, 0, 84, 0
2, 743280, Note_on_c, 0, 74, 109
2, 743280, Note_on_c, 0, 81, 109
2, 743280, Note_on_c, 0, 84, 109
2, 743280, Note_on_c, 0, 86, 109
2, 743520, Note_on_c, 0, 86, 0
2, 743520, Note_on_c, 0, 74, 0
2, 743520, Note_on_c, 0, 81, 0
2, 743520, Note_on_c, 0, 84, 0
2, 743520, Note_on_c, 0, 75, 109
2, 743520, Note_on_c, 0, 81, 109
2, 743520, Note_on_c, 0, 84, 109
2, 743520, Note_on_c, 0, 87, 109
2, 744000, Note_on_c, 0, 87, 0
2, 744000, Note_on_c, 0, 75, 0
2, 744000, Note_on_c, 0, 81, 0
2, 744000, Note_on_c, 0, 84, 0
2, 744000, Note_on_c, 0, 65, 109
2, 744480, Note_on_c, 0, 65, 0
2, 744480, Note_on_c, 0, 75, 109
2, 744480, Note_on_c, 0, 81, 109
2, 744480, Note_on_c, 0, 84, 109
2, 744480, Note_on_c, 0, 87, 109
2, 744960, Note_on_c, 0, 87, 0
2, 744960, Note_on_c, 0, 75, 0
2, 744960, Note_on_c, 0, 81, 0
2, 744960, Note_on_c, 0, 84, 0
2, 744960, Note_on_c, 0, 64, 109
2, 745440, Note_on_c, 0, 64, 0
2, 745440, Note_on_c, 0, 76, 109
2, 745440, Note_on_c, 0, 81, 109
2, 745440, Note_on_c, 0, 84, 109
2, 745440, Note_on_c, 0, 88, 109
2, 745920, Note_on_c, 0, 88, 0
2, 745920, Note_on_c, 0, 76, 0
2, 745920, Note_on_c, 0, 81, 0
2, 745920, Note_on_c, 0, 84, 0
2, 745920, Note_on_c, 0, 63, 109
2, 746400, Note_on_c, 0, 63, 0
2, 746400, Note_on_c, 0, 77, 109
2, 746400, Note_on_c, 0, 81, 109
2, 746400, Note_on_c, 0, 84, 109
2, 746400, Note_on_c, 0, 89, 109
2, 746880, Note_on_c, 0, 89, 0
2, 746880, Note_on_c, 0, 77, 0
2, 746880, Note_on_c, 0, 81, 0
2, 746880, Note_on_c, 0, 84, 0
2, 746880, Note_on_c, 0, 75, 109
2, 746880, Note_on_c, 0, 81, 109
2, 746880, Note_on_c, 0, 84, 109
2, 746880, Note_on_c, 0, 87, 109
2, 747120, Note_on_c, 0, 87, 0
2, 747120, Note_on_c, 0, 75, 0
2, 747120, Note_on_c, 0, 81, 0
2, 747120, Note_on_c, 0, 84, 0
2, 747120, Note_on_c, 0, 74, 109
2, 747120, Note_on_c, 0, 81, 109
2, 747120, Note_on_c, 0, 84, 109
2, 747120, Note_on_c, 0, 86, 109
2, 747360, Note_on_c, 0, 86, 0
2, 747360, Note_on_c, 0, 74, 0
2, 747360, Note_on_c, 0, 81, 0
2, 747360, Note_on_c, 0, 84, 0
2, 747360, Note_on_c, 0, 75, 109
2, 747360, Note_on_c, 0, 81, 109
2, 747360, Note_on_c, 0, 84, 109
2, 747360, Note_on_c, 0, 87, 109
2, 747840, Note_on_c, 0, 87, 0
2, 747840, Note_on_c, 0, 75, 0
2, 747840, Note_on_c, 0, 81, 0
2, 747840, Note_on_c, 0, 84, 0
2, 747840, Note_on_c, 0, 65, 109
2, 748320, Note_on_c, 0, 65, 0
2, 748320, Note_on_c, 0, 75, 109
2, 748320, Note_on_c, 0, 81, 109
2, 748320, Note_on_c, 0, 84, 109
2, 748320, Note_on_c, 0, 87, 109
2, 748800, Note_on_c, 0, 87, 0
2, 748800, Note_on_c, 0, 75, 0
2, 748800, Note_on_c, 0, 81, 0
2, 748800, Note_on_c, 0, 84, 0
2, 748800, Note_on_c, 0, 64, 109
2, 749280, Note_on_c, 0, 64, 0
2, 749280, Note_on_c, 0, 76, 109
2, 749280, Note_on_c, 0, 81, 109
2, 749280, Note_on_c, 0, 84, 109
2, 749280, Note_on_c, 0, 88, 109
2, 749760, Note_on_c, 0, 88, 0
2, 749760, Note_on_c, 0, 76, 0
2, 749760, Note_on_c, 0, 81, 0
2, 749760, Note_on_c, 0, 84, 0
2, 749760, Note_on_c, 0, 63, 109
2, 750240, Note_on_c, 0, 63, 0
2, 750240, Note_on_c, 0, 77, 109
2, 750240, Note_on_c, 0, 81, 109
2, 750240, Note_on_c, 0, 84, 109
2, 750240, Note_on_c, 0, 89, 109
2, 750720, Note_on_c, 0, 89, 0
2, 750720, Note_on_c, 0, 77, 0
2, 750720, Note_on_c, 0, 81, 0
2, 750720, Note_on_c, 0, 84, 0
2, 750720, Note_on_c, 0, 72, 109
2, 750720, Note_on_c, 0, 78, 109
2, 750720, Note_on_c, 0, 81, 109
2, 750720, Note_on_c, 0, 84, 109
2, 750960, Note_on_c, 0, 84, 0
2, 750960, Note_on_c, 0, 72, 0
2, 750960, Note_on_c, 0, 78, 0
2, 750960, Note_on_c, 0, 81, 0
2, 750960, Note_on_c, 0, 71, 109
2, 750960, Note_on_c, 0, 78, 109
2, 750960, Note_on_c, 0, 81, 109
2, 750960, Note_on_c, 0, 83, 109
2, 751200, Note_on_c, 0, 83, 0
2, 751200, Note_on_c, 0, 71, 0
2, 751200, Note_on_c, 0, 78, 0
2, 751200, Note_on_c, 0, 81, 0
2, 751200, Note_on_c, 0, 72, 109
2, 751200, Note_on_c, 0, 78, 109
2, 751200, Note_on_c, 0, 81, 109
2, 751200, Note_on_c, 0, 84, 109
2, 751680, Note_on_c, 0, 84, 0
2, 751680, Note_on_c, 0, 72, 0
2, 751680, Note_on_c, 0, 78, 0
2, 751680, Note_on_c, 0, 81, 0
2, 751680, Note_on_c, 0, 62, 109
2, 752160, Note_on_c, 0, 62, 0
2, 752160, Note_on_c, 0, 72, 109
2, 752160, Note_on_c, 0, 78, 109
2, 752160, Note_on_c, 0, 81, 109
2, 752160, Note_on_c, 0, 84, 109
2, 752640, Note_on_c, 0, 84, 0
2, 752640, Note_on_c, 0, 72, 0
2, 752640, Note_on_c, 0, 78, 0
2, 752640, Note_on_c, 0, 81, 0
2, 752640, Note_on_c, 0, 61, 109
2, 753120, Note_on_c, 0, 61, 0
2, 753120, Note_on_c, 0, 73, 109
2, 753120, Note_on_c, 0, 78, 109
2, 753120, Note_on_c, 0, 81, 109
2, 753120, Note_on_c, 0, 85, 109
2, 753600, Note_on_c, 0, 85, 0
2, 753600, Note_on_c, 0, 73, 0
2, 753600, Note_on_c, 0, 78, 0
2, 753600, Note_on_c, 0, 81, 0
2, 753600, Note_on_c, 0, 60, 109
2, 754080, Note_on_c, 0, 60, 0
2, 754080, Note_on_c, 0, 74, 109
2, 754080, Note_on_c, 0, 78, 109
2, 754080, Note_on_c, 0, 81, 109
2, 754080, Note_on_c, 0, 86, 109
2, 754560, Note_on_c, 0, 86, 0
2, 754560, Note_on_c, 0, 74, 0
2, 754560, Note_on_c, 0, 78, 0
2, 754560, Note_on_c, 0, 81, 0
2, 754560, Note_on_c, 0, 72, 109
2, 754560, Note_on_c, 0, 78, 109
2, 754560, Note_on_c, 0, 81, 109
2, 754560, Note_on_c, 0, 84, 109
2, 754800, Note_on_c, 0, 84, 0
2, 754800, Note_on_c, 0, 72, 0
2, 754800, Note_on_c, 0, 78, 0
2, 754800, Note_on_c, 0, 81, 0
2, 754800, Note_on_c, 0, 71, 109
2, 754800, Note_on_c, 0, 78, 109
2, 754800, Note_on_c, 0, 81, 109
2, 754800, Note_on_c, 0, 83, 109
2, 755040, Note_on_c, 0, 83, 0
2, 755040, Note_on_c, 0, 71, 0
2, 755040, Note_on_c, 0, 78, 0
2, 755040, Note_on_c, 0, 81, 0
2, 755040, Note_on_c, 0, 72, 109
2, 755040, Note_on_c, 0, 78, 109
2, 755040, Note_on_c, 0, 81, 109
2, 755040, Note_on_c, 0, 84, 109
2, 755520, Note_on_c, 0, 84, 0
2, 755520, Note_on_c, 0, 72, 0
2, 755520, Note_on_c, 0, 78, 0
2, 755520, Note_on_c, 0, 81, 0
2, 755520, Note_on_c, 0, 62, 109
2, 756000, Note_on_c, 0, 62, 0
2, 756000, Note_on_c, 0, 72, 109
2, 756000, Note_on_c, 0, 78, 109
2, 756000, Note_on_c, 0, 81, 109
2, 756000, Note_on_c, 0, 84, 109
2, 756480, Note_on_c, 0, 84, 0
2, 756480, Note_on_c, 0, 72, 0
2, 756480, Note_on_c, 0, 78, 0
2, 756480, Note_on_c, 0, 81, 0
2, 756480, Note_on_c, 0, 61, 109
2, 756960, Note_on_c, 0, 61, 0
2, 756960, Note_on_c, 0, 73, 109
2, 756960, Note_on_c, 0, 78, 109
2, 756960, Note_on_c, 0, 81, 109
2, 756960, Note_on_c, 0, 85, 109
2, 757440, Note_on_c, 0, 85, 0
2, 757440, Note_on_c, 0, 73, 0
2, 757440, Note_on_c, 0, 78, 0
2, 757440, Note_on_c, 0, 81, 0
2, 757440, Note_on_c, 0, 60, 109
2, 757920, Note_on_c, 0, 60, 0
2, 757920, Note_on_c, 0, 74, 109
2, 757920, Note_on_c, 0, 78, 109
2, 757920, Note_on_c, 0, 81, 109
2, 757920, Note_on_c, 0, 86, 109
2, 758400, Note_on_c, 0, 86, 0
2, 758400, Note_on_c, 0, 74, 0
2, 758400, Note_on_c, 0, 78, 0
2, 758400, Note_on_c, 0, 81, 0
2, 758400, Note_on_c, 0, 68, 109
2, 758400, Note_on_c, 0, 74, 109
2, 758400, Note_on_c, 0, 77, 109
2, 758400, Note_on_c, 0, 80, 109
2, 758640, Note_on_c, 0, 80, 0
2, 758640, Note_on_c, 0, 68, 0
2, 758640, Note_on_c, 0, 74, 0
2, 758640, Note_on_c, 0, 77, 0
2, 758640, Note_on_c, 0, 67, 109
2, 758640, Note_on_c, 0, 74, 109
2, 758640, Note_on_c, 0, 77, 109
2, 758640, Note_on_c, 0, 79, 109
2, 758880, Note_on_c, 0, 79, 0
2, 758880, Note_on_c, 0, 67, 0
2, 758880, Note_on_c, 0, 74, 0
2, 758880, Note_on_c, 0, 77, 0
2, 758880, Note_on_c, 0, 68, 109
2, 758880, Note_on_c, 0, 74, 109
2, 758880, Note_on_c, 0, 77, 109
2, 758880, Note_on_c, 0, 80, 109
2, 759360, Note_on_c, 0, 80, 0
2, 759360, Note_on_c, 0, 68, 0
2, 759360, Note_on_c, 0, 74, 0
2, 759360, Note_on_c, 0, 77, 0
2, 759360, Note_on_c, 0, 59, 109
2, 759840, Note_on_c, 0, 59, 0
2, 759840, Note_on_c, 0, 74, 109
2, 759840, Note_on_c, 0, 77, 109
2, 759840, Note_on_c, 0, 80, 109
2, 759840, Note_on_c, 0, 86, 109
2, 760320, Note_on_c, 0, 86, 0
2, 760320, Note_on_c, 0, 74, 0
2, 760320, Note_on_c, 0, 77, 0
2, 760320, Note_on_c, 0, 80, 0
2, 760320, Note_on_c, 0, 68, 109
2, 760320, Note_on_c, 0, 74, 109
2, 760320, Note_on_c, 0, 77, 109
2, 760320, Note_on_c, 0, 80, 109
2, 760560, Note_on_c, 0, 80, 0
2, 760560, Note_on_c, 0, 68, 0
2, 760560, Note_on_c, 0, 74, 0
2, 760560, Note_on_c, 0, 77, 0
2, 760560, Note_on_c, 0, 67, 109
2, 760560, Note_on_c, 0, 74, 109
2, 760560, Note_on_c, 0, 77, 109
2, 760560, Note_on_c, 0, 79, 109
2, 760800, Note_on_c, 0, 79, 0
2, 760800, Note_on_c, 0, 67, 0
2, 760800, Note_on_c, 0, 74, 0
2, 760800, Note_on_c, 0, 77, 0
2, 760800, Note_on_c, 0, 68, 109
2, 760800, Note_on_c, 0, 74, 109
2, 760800, Note_on_c, 0, 77, 109
2, 760800, Note_on_c, 0, 80, 109
2, 761280, Note_on_c, 0, 80, 0
2, 761280, Note_on_c, 0, 68, 0
2, 761280, Note_on_c, 0, 74, 0
2, 761280, Note_on_c, 0, 77, 0
2, 761280, Note_on_c, 0, 58, 109
2, 761760, Note_on_c, 0, 58, 0
2, 761760, Note_on_c, 0, 74, 109
2, 761760, Note_on_c, 0, 77, 109
2, 761760, Note_on_c, 0, 80, 109
2, 761760, Note_on_c, 0, 86, 109
2, 762240, Note_on_c, 0, 86, 0
2, 762240, Note_on_c, 0, 74, 0
2, 762240, Note_on_c, 0, 77, 0
2, 762240, Note_on_c, 0, 80, 0
2, 762240, Note_on_c, 0, 69, 109
2, 762240, Note_on_c, 0, 74, 109
2, 762240, Note_on_c, 0, 77, 109
2, 762240, Note_on_c, 0, 81, 109
2, 762480, Note_on_c, 0, 81, 0
2, 762480, Note_on_c, 0, 69, 0
2, 762480, Note_on_c, 0, 74, 0
2, 762480, Note_on_c, 0, 77, 0
2, 762480, Note_on_c, 0, 68, 109
2, 762480, Note_on_c, 0, 74, 109
2, 762480, Note_on_c, 0, 77, 109
2, 762480, Note_on_c, 0, 80, 109
2, 762720, Note_on_c, 0, 80, 0
2, 762720, Note_on_c, 0, 68, 0
2, 762720, Note_on_c, 0, 74, 0
2, 762720, Note_on_c, 0, 77, 0
2, 762720, Note_on_c, 0, 69, 109
2, 762720, Note_on_c, 0, 74, 109
2, 762720, Note_on_c, 0, 77, 109
2, 762720, Note_on_c, 0, 81, 109
2, 763200, Note_on_c, 0, 81, 0
2, 763200, Note_on_c, 0, 69, 0
2, 763200, Note_on_c, 0, 74, 0
2, 763200, Note_on_c, 0, 77, 0
2, 763200, Note_on_c, 0, 57, 109
2, 763680, Note_on_c, 0, 57, 0
2, 763680, Note_on_c, 0, 74, 109
2, 763680, Note_on_c, 0, 77, 109
2, 763680, Note_on_c, 0, 81, 109
2, 763680, Note_on_c, 0, 86, 109
2, 764160, Note_on_c, 0, 86, 0
2, 764160, Note_on_c, 0, 74, 0
2, 764160, Note_on_c, 0, 77, 0
2, 764160, Note_on_c, 0, 81, 0
2, 764160, Note_on_c, 0, 56, 109
2, 764640, Note_on_c, 0, 56, 0
2, 764640, Note_on_c, 0, 74, 109
2, 764640, Note_on_c, 0, 77, 109
2, 764640, Note_on_c, 0, 82, 109
2, 764640, Note_on_c, 0, 86, 109
2, 765120, Note_on_c, 0, 86, 0
2, 765120, Note_on_c, 0, 74, 0
2, 765120, Note_on_c, 0, 77, 0
2, 765120, Note_on_c, 0, 82, 0
2, 765120, Note_on_c, 0, 55, 109
2, 765600, Note_on_c, 0, 55, 0
2, 765600, Note_on_c, 0, 74, 109
2, 765600, Note_on_c, 0, 77, 109
2, 765600, Note_on_c, 0, 83, 109
2, 765600, Note_on_c, 0, 86, 109
2, 766080, Note_on_c, 0, 86, 0
2, 766080, Note_on_c, 0, 74, 0
2, 766080, Note_on_c, 0, 77, 0
2, 766080, Note_on_c, 0, 83, 0
2, 766080, Note_on_c, 0, 54, 109
2, 766400, Note_on_c, 0, 54, 0
2, 766400, Note_on_c, 0, 74, 83
2, 766400, Note_on_c, 0, 78, 83
2, 766400, Note_on_c, 0, 83, 83
2, 766400, Note_on_c, 0, 86, 83
2, 766719, Note_on_c, 0, 86, 0
2, 766719, Note_on_c, 0, 74, 0
2, 766719, Note_on_c, 0, 78, 0
2, 766719, Note_on_c, 0, 83, 0
2, 766719, Note_on_c, 0, 71, 83
2, 766719, Note_on_c, 0, 74, 83
2, 766719, Note_on_c, 0, 78, 83
2, 766719, Note_on_c, 0, 83, 83
2, 767040, Note_on_c, 0, 83, 0
2, 767040, Note_on_c, 0, 71, 0
2, 767040, Note_on_c, 0, 74, 0
2, 767040, Note_on_c, 0, 78, 0
2, 767040, Note_on_c, 0, 66, 83
2, 767040, Note_on_c, 0, 71, 83
2, 767040, Note_on_c, 0, 74, 83
2, 767040, Note_on_c, 0, 78, 83
2, 767360, Note_on_c, 0, 78, 0
2, 767360, Note_on_c, 0, 66, 0
2, 767360, Note_on_c, 0, 71, 0
2, 767360, Note_on_c, 0, 74, 0
2, 767360, Note_on_c, 0, 62, 83
2, 767360, Note_on_c, 0, 66, 83
2, 767360, Note_on_c, 0, 71, 83
2, 767360, Note_on_c, 0, 74, 83
2, 767679, Note_on_c, 0, 74, 0
2, 767679, Note_on_c, 0, 62, 0
2, 767679, Note_on_c, 0, 66, 0
2, 767679, Note_on_c, 0, 71, 0
2, 767679, Note_on_c, 0, 59, 83
2, 767679, Note_on_c, 0, 62, 83
2, 767679, Note_on_c, 0, 66, 83
2, 767679, Note_on_c, 0, 71, 83
2, 768000, Note_on_c, 0, 71, 0
2, 768000, Note_on_c, 0, 59, 0
2, 768000, Note_on_c, 0, 62, 0
2, 768000, Note_on_c, 0, 66, 0
2, 768000, Note_on_c, 0, 59, 83
2, 768000, Note_on_c, 0, 62, 83
2, 768000, Note_on_c, 0, 66, 83
2, 768320, Note_on_c, 0, 66, 0
2, 768320, Note_on_c, 0, 62, 0
2, 768320, Note_on_c, 0, 59, 0
2, 768320, Note_on_c, 0, 62, 83
2, 768320, Note_on_c, 0, 66, 83
2, 768320, Note_on_c, 0, 71, 83
2, 768320, Note_on_c, 0, 74, 83
2, 768639, Note_on_c, 0, 74, 0
2, 768639, Note_on_c, 0, 62, 0
2, 768639, Note_on_c, 0, 66, 0
2, 768639, Note_on_c, 0, 71, 0
2, 768639, Note_on_c, 0, 59, 83
2, 768639, Note_on_c, 0, 62, 83
2, 768639, Note_on_c, 0, 66, 83
2, 768639, Note_on_c, 0, 71, 83
2, 768960, Note_on_c, 0, 71, 0
2, 768960, Note_on_c, 0, 59, 0
2, 768960, Note_on_c, 0, 62, 0
2, 768960, Note_on_c, 0, 66, 0
2, 768960, Note_on_c, 0, 54, 83
2, 768960, Note_on_c, 0, 59, 83
2, 768960, Note_on_c, 0, 62, 83
2, 768960, Note_on_c, 0, 66, 83
2, 769280, Note_on_c, 0, 66, 0
2, 769280, Note_on_c, 0, 54, 0
2, 769280, Note_on_c, 0, 59, 0
2, 769280, Note_on_c, 0, 62, 0
2, 769280, Note_on_c, 0, 50, 83
2, 769280, Note_on_c, 0, 54, 83
2, 769280, Note_on_c, 0, 59, 83
2, 769280, Note_on_c, 0, 62, 83
2, 769599, Note_on_c, 0, 62, 0
2, 769599, Note_on_c, 0, 50, 0
2, 769599, Note_on_c, 0, 54, 0
2, 769599, Note_on_c, 0, 59, 0
2, 769599, Note_on_c, 0, 47, 83
2, 769599, Note_on_c, 0, 50, 83
2, 769599, Note_on_c, 0, 54, 83
2, 769599, Note_on_c, 0, 59, 83
2, 769920, Note_on_c, 0, 59, 0
2, 769920, Note_on_c, 0, 47, 0
2, 769920, Note_on_c, 0, 50, 0
2, 769920, Note_on_c, 0, 54, 0
2, 769920, Note_on_c, 0, 47, 83
2, 769920, Note_on_c, 0, 50, 83
2, 769920, Note_on_c, 0, 54, 83
2, 771240, Note_on_c, 0, 54, 0
2, 771240, Note_on_c, 0, 50, 0
2, 771240, Note_on_c, 0, 47, 0
2, 771240, Control_c, 0, 64, 127
2, 771240, Note_on_c, 0, 47, 57
2, 771360, Note_on_c, 0, 47, 0
2, 771360, Note_on_c, 0, 50, 57
2, 771480, Note_on_c, 0, 50, 0
2, 771480, Note_on_c, 0, 49, 57
2, 771600, Note_on_c, 0, 49, 0
2, 771600, Note_on_c, 0, 50, 57
2, 771780, Note_on_c, 0, 50, 0
2, 771780, Control_c, 0, 64, 0
2, 771780, Note_on_c, 0, 55, 57
2, 771840, Note_on_c, 0, 55, 0
2, 771840, Note_on_c, 0, 55, 57
2, 772080, Note_on_c, 0, 55, 0
2, 772080, Note_on_c, 0, 56, 44
2, 772320, Note_on_c, 0, 56, 0
2, 772320, Note_on_c, 0, 57, 44
2, 772560, Note_on_c, 0, 57, 0
2, 772560, Note_on_c, 0, 58, 57
2, 772800, Note_on_c, 0, 58, 0
2, 772800, Note_on_c, 0, 62, 83
2, 772920, Note_on_c, 0, 53, 57
2, 772920, Note_on_c, 0, 53, 57
2, 772920, Note_on_c, 0, 58, 57
2, 773040, Note_on_c, 0, 58, 0
2, 773040, Note_on_c, 0, 62, 0
2, 773040, Note_on_c, 0, 53, 0
2, 773040, Note_on_c, 0, 53, 0
2, 773040, Note_on_c, 0, 61, 57
2, 773220, Note_on_c, 0, 61, 0
2, 773220, Note_on_c, 0, 62, 44
2, 773280, Note_on_c, 0, 62, 0
2, 773280, Control_c, 0, 64, 127
2, 773280, Note_on_c, 0, 61, 57
2, 773520, Note_on_c, 0, 61, 0
2, 773520, Note_on_c, 0, 59, 57
2, 773760, Note_on_c, 0, 59, 0
2, 773760, Note_on_c, 0, 61, 57
2, 773880, Note_on_c, 0, 61, 0
2, 773880, Control_c, 0, 64, 0
2, 773880, Note_on_c, 0, 62, 57
2, 774000, Note_on_c, 0, 62, 0
2, 774000, Control_c, 0, 64, 127
2, 774000, Note_on_c, 0, 67, 57
2, 774060, Note_on_c, 0, 67, 0
2, 774060, Note_on_c, 0, 65, 57
2, 774120, Note_on_c, 0, 65, 0
2, 774120, Note_on_c, 0, 66, 57
2, 774180, Note_on_c, 0, 66, 0
2, 774180, Note_on_c, 0, 70, 57
2, 774240, Note_on_c, 0, 70, 0
2, 774240, Note_on_c, 0, 71, 57
2, 774300, Note_on_c, 0, 71, 0
2, 774300, Control_c, 0, 64, 0
2, 774300, Note_on_c, 0, 74, 57
2, 774360, Note_on_c, 0, 74, 0
2, 774360, Note_on_c, 0, 78, 57
2, 774420, Note_on_c, 0, 78, 0
2, 774420, Note_on_c, 0, 79, 57
2, 774480, Note_on_c, 0, 79, 0
2, 774480, Note_on_c, 0, 78, 57
2, 774540, Note_on_c, 0, 78, 0
2, 774540, Note_on_c, 0, 79, 57
2, 774600, Note_on_c, 0, 79, 0
2, 774600, Note_on_c, 0, 77, 70
2, 774660, Note_on_c, 0, 77, 0
2, 774660, Note_on_c, 0, 78, 70
2, 774720, Note_on_c, 0, 78, 0
2, 774720, Control_c, 0, 64, 127
2, 774720, Note_on_c, 0, 83, 70
2, 775080, Note_on_c, 0, 83, 0
2, 775080, Note_on_c, 0, 78, 70
2, 775110, Note_on_c, 0, 78, 0
2, 775110, Note_on_c, 0, 74, 70
2, 775140, Note_on_c, 0, 74, 0
2, 775140, Note_on_c, 0, 71, 70
2, 775170, Note_on_c, 0, 71, 0
2, 775170, Note_on_c, 0, 66, 70
2, 775200, Note_on_c, 0, 66, 0
2, 775200, Note_on_c, 0, 62, 70
2, 775230, Note_on_c, 0, 62, 0
2, 775230, Note_on_c, 0, 59, 70
2, 775260, Note_on_c, 0, 59, 0
2, 775260, Note_on_c, 0, 54, 70
2, 775290, Note_on_c, 0, 54, 0
2, 775290, Note_on_c, 0, 50, 70
2, 775320, Note_on_c, 0, 50, 0
2, 775320, Note_on_c, 0, 47, 70
2, 775350, Note_on_c, 0, 47, 0
2, 775350, Note_on_c, 0, 42, 70
2, 775380, Note_on_c, 0, 42, 0
2, 775380, Note_on_c, 0, 38, 70
2, 775410, Note_on_c, 0, 38, 0
2, 775410, Control_c, 0, 64, 0
2, 775410, Note_on_c, 0, 35, 70
2, 775440, Note_on_c, 0, 35, 0
2, 775440, Control_c, 0, 64, 127
2, 775440, Note_on_c, 0, 30, 70
2, 775560, Note_on_c, 0, 30, 0
2, 775560, Note_on_c, 0, 35, 70
2, 775680, Note_on_c, 0, 35, 0
2, 775680, Note_on_c, 0, 38, 70
2, 775800, Note_on_c, 0, 38, 0
2, 775800, Control_c, 0, 64, 0
2, 775800, Note_on_c, 0, 42, 57
2, 775920, Note_on_c, 0, 42, 0
2, 775920, Note_on_c, 0, 35, 57
2, 776040, Note_on_c, 0, 35, 0
2, 776040, Note_on_c, 0, 38, 57
2, 776160, Note_on_c, 0, 38, 0
2, 777000, Control_c, 0, 64, 127
2, 777000, Note_on_c, 0, 47, 57
2, 777120, Note_on_c, 0, 47, 0
2, 777120, Note_on_c, 0, 50, 57
2, 777240, Note_on_c, 0, 50, 0
2, 777240, Note_on_c, 0, 49, 57
2, 777360, Note_on_c, 0, 49, 0
2, 777360, Note_on_c, 0, 50, 57
2, 777540, Note_on_c, 0, 50, 0
2, 777540, Control_c, 0, 64, 0
2, 777540, Note_on_c, 0, 55, 57
2, 777600, Note_on_c, 0, 55, 0
2, 777600, Note_on_c, 0, 55, 57
2, 777840, Note_on_c, 0, 55, 0
2, 777840, Note_on_c, 0, 56, 44
2, 778080, Note_on_c, 0, 56, 0
2, 778080, Note_on_c, 0, 57, 44
2, 778320, Note_on_c, 0, 57, 0
2, 778320, Note_on_c, 0, 58, 57
2, 778560, Note_on_c, 0, 58, 0
2, 778560, Note_on_c, 0, 62, 83
2, 778680, Note_on_c, 0, 53, 57
2, 778680, Note_on_c, 0, 53, 57
2, 778680, Note_on_c, 0, 58, 57
2, 778800, Note_on_c, 0, 58, 0
2, 778800, Note_on_c, 0, 62, 0
2, 778800, Note_on_c, 0, 53, 0
2, 778800, Note_on_c, 0, 53, 0
2, 778800, Note_on_c, 0, 61, 57
2, 778980, Note_on_c, 0, 61, 0
2, 778980, Note_on_c, 0, 62, 44
2, 779040, Note_on_c, 0, 62, 0
2, 779040, Note_on_c, 0, 61, 57
2, 779280, Note_on_c, 0, 61, 0
2, 779280, Note_on_c, 0, 59, 57
2, 779520, Note_on_c, 0, 59, 0
2, 779520, Note_on_c, 0, 61, 57
2, 779640, Note_on_c, 0, 61, 0
2, 779640, Note_on_c, 0, 62, 57
2, 780360, Note_on_c, 0, 62, 0
2, 780360, Note_on_c, 0, 67, 44
2, 780420, Note_on_c, 0, 67, 0
2, 780420, Note_on_c, 0, 65, 44
2, 780480, Note_on_c, 0, 65, 0
2, 780480, Note_on_c, 0, 66, 44
2, 780540, Note_on_c, 0, 66, 0
2, 780540, Note_on_c, 0, 73, 44
2, 780600, Note_on_c, 0, 73, 0
2, 780600, Note_on_c, 0, 70, 44
2, 780660, Note_on_c, 0, 70, 0
2, 780660, Note_on_c, 0, 71, 44
2, 780720, Note_on_c, 0, 71, 0
2, 780720, Note_on_c, 0, 76, 44
2, 780780, Note_on_c, 0, 76, 0
2, 780780, Note_on_c, 0, 73, 44
2, 780840, Note_on_c, 0, 73, 0
2, 780840, Note_on_c, 0, 74, 44
2, 780900, Note_on_c, 0, 74, 0
2, 780900, Note_on_c, 0, 79, 44
2, 780960, Note_on_c, 0, 79, 0
2, 780960, Note_on_c, 0, 77, 44
2, 781020, Note_on_c, 0, 77, 0
2, 781020, Note_on_c, 0, 78, 57
2, 781080, Note_on_c, 0, 78, 0
2, 781080, Note_on_c, 0, 85, 57
2, 781140, Note_on_c, 0, 85, 0
2, 781140, Note_on_c, 0, 82, 57
2, 781200, Note_on_c, 0, 82, 0
2, 781200, Note_on_c, 0, 83, 57
2, 781260, Note_on_c, 0, 83, 0
2, 781260, Note_on_c, 0, 88, 57
2, 781320, Note_on_c, 0, 88, 0
2, 781320, Note_on_c, 0, 85, 57
2, 781380, Note_on_c, 0, 85, 0
2, 781380, Note_on_c, 0, 86, 57
2, 781440, Note_on_c, 0, 86, 0
2, 781440, Note_on_c, 0, 91, 57
2, 781500, Note_on_c, 0, 91, 0
2, 781500, Note_on_c, 0, 89, 70
2, 781560, Note_on_c, 0, 89, 0
2, 781560, Note_on_c, 0, 90, 70
2, 781620, Note_on_c, 0, 90, 0
2, 781620, Note_on_c, 0, 97, 70
2, 781680, Note_on_c, 0, 97, 0
2, 781680, Note_on_c, 0, 94, 70
2, 781740, Note_on_c, 0, 94, 0
2, 781740, Note_on_c, 0, 95, 70
2, 781800, Note_on_c, 0, 95, 0
2, 781800, Note_on_c, 0, 100, 70
2, 781860, Note_on_c, 0, 100, 0
2, 781860, Note_on_c, 0, 97, 70
2, 781920, Note_on_c, 0, 97, 0
2, 781920, Note_on_c, 0, 98, 83
2, 781980, Note_on_c, 0, 98, 0
2, 781980, Control_c, 0, 64, 127
2, 781980, Note_on_c, 0, 103, 83
2, 782640, Note_on_c, 0, 103, 0
2, 782640, Note_on_c, 0, 102, 83
2, 782670, Note_on_c, 0, 102, 0
2, 782670, Note_on_c, 0, 98, 83
2, 782700, Note_on_c, 0, 98, 0
2, 782700, Note_on_c, 0, 95, 83
2, 782730, Note_on_c, 0, 95, 0
2, 782730, Note_on_c, 0, 91, 83
2, 782760, Note_on_c, 0, 91, 0
2, 782760, Note_on_c, 0, 90, 83
2, 782790, Note_on_c, 0, 90, 0
2, 782790, Note_on_c, 0, 86, 83
2, 782820, Note_on_c, 0, 86, 0
2, 782820, Note_on_c, 0, 83, 83
2, 782850, Note_on_c, 0, 83, 0
2, 782850, Note_on_c, 0, 79, 83
2, 782880, Note_on_c, 0, 79, 0
2, 782880, Note_on_c, 0, 78, 83
2, 782910, Note_on_c, 0, 78, 0
2, 782910, Note_on_c, 0, 74, 83
2, 782940, Note_on_c, 0, 74, 0
2, 782940, Note_on_c, 0, 71, 83
2, 782970, Note_on_c, 0, 71, 0
2, 782970, Note_on_c, 0, 67, 83
2, 783000, Note_on_c, 0, 67, 0
2, 783000, Note_on_c, 0, 66, 83
2, 783030, Note_on_c, 0, 66, 0
2, 783030, Note_on_c, 0, 62, 83
2, 783060, Note_on_c, 0, 62, 0
2, 783060, Note_on_c, 0, 59, 83
2, 783090, Note_on_c, 0, 59, 0
2, 783090, Note_on_c, 0, 55, 83
2, 783120, Note_on_c, 0, 55, 0
2, 783120, Note_on_c, 0, 54, 83
2, 783150, Note_on_c, 0, 54, 0
2, 783150, Note_on_c, 0, 50, 83
2, 783180, Note_on_c, 0, 50, 0
2, 783180, Note_on_c, 0, 47, 83
2, 783210, Note_on_c, 0, 47, 0
2, 783210, Note_on_c, 0, 43, 83
2, 783240, Note_on_c, 0, 43, 0
2, 783240, Note_on_c, 0, 42, 83
2, 783270, Note_on_c, 0, 42, 0
2, 783270, Note_on_c, 0, 38, 83
2, 783300, Note_on_c, 0, 38, 0
2, 783300, Control_c, 0, 64, 0
2, 783300, Note_on_c, 0, 35, 83
2, 783360, Note_on_c, 0, 35, 0
2, 783360, Note_on_c, 0, 30, 70
2, 783480, Note_on_c, 0, 30, 0
2, 783480, Note_on_c, 0, 42, 70
2, 783600, Note_on_c, 0, 42, 0
2, 783600, Note_on_c, 0, 47, 70
2, 783600, Note_on_c, 0, 50, 70
2, 783720, Note_on_c, 0, 50, 0
2, 783720, Note_on_c, 0, 47, 0
2, 783720, Note_on_c, 0, 49, 70
2, 783840, Note_on_c, 0, 49, 0
2, 783840, Note_on_c, 0, 50, 70
2, 783840, Note_on_c, 0, 54, 70
2, 784020, Note_on_c, 0, 54, 0
2, 784020, Note_on_c, 0, 50, 0
2, 784020, Note_on_c, 0, 55, 70
2, 784080, Note_on_c, 0, 55, 0
2, 784080, Note_on_c, 0, 55, 83
2, 784200, Note_on_c, 0, 55, 0
2, 784200, Note_on_c, 0, 56, 83
2, 784200, Note_on_c, 0, 59, 83
2, 784200, Note_on_c, 0, 62, 83
2, 784320, Note_on_c, 0, 62, 0
2, 784320, Note_on_c, 0, 59, 0
2, 784320, Note_on_c, 0, 56, 0
2, 784320, Note_on_c, 0, 57, 83
2, 784440, Note_on_c, 0, 57, 0
2, 784440, Note_on_c, 0, 58, 83
2, 784440, Note_on_c, 0, 61, 83
2, 784440, Note_on_c, 0, 64, 83
2, 784440, Note_on_c, 0, 66, 83
2, 784560, Note_on_c, 0, 66, 0
2, 784560, Note_on_c, 0, 58, 0
2, 784560, Note_on_c, 0, 61, 0
2, 784560, Note_on_c, 0, 64, 0
2, 784560, Note_on_c, 0, 59, 83
2, 784680, Note_on_c, 0, 59, 0
2, 784680, Note_on_c, 0, 61, 83
2, 784680, Note_on_c, 0, 64, 83
2, 784680, Note_on_c, 0, 66, 83
2, 784800, Note_on_c, 0, 66, 0
2, 784800, Note_on_c, 0, 64, 0
2, 784800, Note_on_c, 0, 61, 0
2, 785280, Note_on_c, 0, 30, 57
2, 785400, Note_on_c, 0, 30, 0
2, 785400, Note_on_c, 0, 42, 57
2, 785520, Note_on_c, 0, 42, 0
2, 785520, Note_on_c, 0, 47, 57
2, 785520, Note_on_c, 0, 50, 57
2, 785640, Note_on_c, 0, 50, 0
2, 785640, Note_on_c, 0, 47, 0
2, 785640, Note_on_c, 0, 49, 57
2, 785760, Note_on_c, 0, 49, 0
2, 785760, Note_on_c, 0, 50, 57
2, 785760, Note_on_c, 0, 54, 57
2, 785940, Note_on_c, 0, 54, 0
2, 785940, Note_on_c, 0, 50, 0
2, 785940, Note_on_c, 0, 55, 57
2, 786000, Note_on_c, 0, 55, 0
2, 786000, Note_on_c, 0, 55, 70
2, 786120, Note_on_c, 0, 55, 0
2, 786120, Note_on_c, 0, 56, 70
2, 786120, Note_on_c, 0, 59, 70
2, 786120, Note_on_c, 0, 62, 70
2, 786240, Note_on_c, 0, 62, 0
2, 786240, Note_on_c, 0, 59, 0
2, 786240, Note_on_c, 0, 56, 0
2, 786240, Note_on_c, 0, 57, 70
2, 786360, Note_on_c, 0, 57, 0
2, 786360, Note_on_c, 0, 58, 70
2, 786360, Note_on_c, 0, 61, 70
2, 786360, Note_on_c, 0, 64, 70
2, 786360, Note_on_c, 0, 66, 70
2, 786480, Note_on_c, 0, 66, 0
2, 786480, Note_on_c, 0, 58, 0
2, 786480, Note_on_c, 0, 61, 0
2, 786480, Note_on_c, 0, 64, 0
2, 786480, Note_on_c, 0, 59, 70
2, 786600, Note_on_c, 0, 59, 0
2, 786600, Note_on_c, 0, 61, 70
2, 786600, Note_on_c, 0, 64, 70
2, 786600, Note_on_c, 0, 66, 70
2, 786720, Note_on_c, 0, 66, 0
2, 786720, Note_on_c, 0, 64, 0
2, 786720, Note_on_c, 0, 61, 0
2, 787200, Note_on_c, 0, 30, 44
2, 787320, Note_on_c, 0, 30, 0
2, 787320, Note_on_c, 0, 42, 44
2, 787440, Note_on_c, 0, 42, 0
2, 787440, Note_on_c, 0, 47, 44
2, 787440, Note_on_c, 0, 50, 44
2, 787560, Note_on_c, 0, 50, 0
2, 787560, Note_on_c, 0, 47, 0
2, 787560, Note_on_c, 0, 49, 44
2, 787680, Note_on_c, 0, 49, 0
2, 787680, Note_on_c, 0, 50, 44
2, 787680, Note_on_c, 0, 54, 44
2, 787860, Note_on_c, 0, 54, 0
2, 787860, Note_on_c, 0, 50, 0
2, 787860, Note_on_c, 0, 55, 44
2, 787920, Note_on_c, 0, 55, 0
2, 787920, Note_on_c, 0, 55, 57
2, 788040, Note_on_c, 0, 55, 0
2, 788040, Note_on_c, 0, 56, 57
2, 788040, Note_on_c, 0, 59, 57
2, 788040, Note_on_c, 0, 62, 57
2, 788160, Note_on_c, 0, 62, 0
2, 788160, Note_on_c, 0, 59, 0
2, 788160, Note_on_c, 0, 56, 0
2, 788160, Note_on_c, 0, 57, 57
2, 788280, Note_on_c, 0, 57, 0
2, 788280, Note_on_c, 0, 58, 57
2, 788280, Note_on_c, 0, 61, 57
2, 788280, Note_on_c, 0, 64, 57
2, 788280, Note_on_c, 0, 66, 57
2, 788400, Note_on_c, 0, 66, 0
2, 788400, Note_on_c, 0, 58, 0
2, 788400, Note_on_c, 0, 61, 0
2, 788400, Note_on_c, 0, 64, 0
2, 788400, Note_on_c, 0, 59, 57
2, 788520, Note_on_c, 0, 59, 0
2, 788520, Note_on_c, 0, 61, 57
2, 788520, Note_on_c, 0, 64, 57
2, 788520, Note_on_c, 0, 66, 57
2, 788640, Note_on_c, 0, 66, 0
2, 788640, Note_on_c, 0, 64, 0
2, 788640, Note_on_c, 0, 61, 0
2, 789120, Note_on_c, 0, 30, 44
2, 789240, Note_on_c, 0, 30, 0
2, 789240, Note_on_c, 0, 42, 44
2, 789360, Note_on_c, 0, 42, 0
2, 789360, Note_on_c, 0, 47, 44
2, 789360, Note_on_c, 0, 50, 44
2, 789383, Note_on_c, 0, 50, 0
2, 789383, Note_on_c, 0, 47, 0
2, 789480, Note_on_c, 0, 49, 44
2, 789503, Note_on_c, 0, 49, 0
2, 789600, Note_on_c, 0, 50, 44
2, 789600, Note_on_c, 0, 54, 44
2, 789623, Note_on_c, 0, 54, 0
2, 789623, Note_on_c, 0, 50, 0
2, 789720, Note_on_c, 0, 55, 44
2, 789743, Note_on_c, 0, 55, 0
2, 789840, Note_on_c, 0, 55, 57
2, 789863, Note_on_c, 0, 55, 0
2, 789960, Note_on_c, 0, 56, 57
2, 789960, Note_on_c, 0, 59, 57
2, 789960, Note_on_c, 0, 62, 57
2, 789983, Note_on_c, 0, 62, 0
2, 789983, Note_on_c, 0, 59, 0
2, 789983, Note_on_c, 0, 56, 0
2, 790080, Note_on_c, 0, 57, 57
2, 790103, Note_on_c, 0, 57, 0
2, 790200, Note_on_c, 0, 58, 57
2, 790200, Note_on_c, 0, 61, 57
2, 790200, Note_on_c, 0, 64, 57
2, 790200, Note_on_c, 0, 66, 57
2, 790223, Note_on_c, 0, 66, 0
2, 790223, Note_on_c, 0, 58, 0
2, 790223, Note_on_c, 0, 61, 0
2, 790223, Note_on_c, 0, 64, 0
2, 790320, Note_on_c, 0, 59, 57
2, 790343, Note_on_c, 0, 59, 0
2, 790440, Note_on_c, 0, 61, 57
2, 790440, Note_on_c, 0, 64, 57
2, 790440, Note_on_c, 0, 66, 57
2, 790463, Note_on_c, 0, 66, 0
2, 790463, Note_on_c, 0, 64, 0
2, 790463, Note_on_c, 0, 61, 0
2, 790560, Note_on_c, 0, 50, 57
2, 790560, Note_on_c, 0, 54, 57
2, 790560, Note_on_c, 0, 61, 57
2, 790583, Note_on_c, 0, 61, 0
2, 790583, Note_on_c, 0, 54, 0
2, 790583, Note_on_c, 0, 50, 0
2, 790680, Note_on_c, 0, 59, 57
2, 790680, Note_on_c, 0, 62, 57
2, 790680, Note_on_c, 0, 66, 57
2, 790703, Note_on_c, 0, 66, 0
2, 790703, Note_on_c, 0, 62, 0
2, 790703, Note_on_c, 0, 59, 0
2, 790800, Note_on_c, 0, 47, 57
2, 790800, Note_on_c, 0, 50, 57
2, 790800, Note_on_c, 0, 57, 57
2, 790823, Note_on_c, 0, 57, 0
2, 790823, Note_on_c, 0, 50, 0
2, 790823, Note_on_c, 0, 47, 0
2, 790920, Note_on_c, 0, 47, 57
2, 790920, Note_on_c, 0, 50, 57
2, 790920, Note_on_c, 0, 57, 57
2, 790943, Note_on_c, 0, 57, 0
2, 790943, Note_on_c, 0, 50, 0
2, 790943, Note_on_c, 0, 47, 0
2, 791040, Note_on_c, 0, 55, 57
2, 791040, Note_on_c, 0, 59, 57
2, 791040, Note_on_c, 0, 62, 57
2, 791063, Note_on_c, 0, 62, 0
2, 791063, Note_on_c, 0, 59, 0
2, 791063, Note_on_c, 0, 55, 0
2, 791160, Note_on_c, 0, 47, 57
2, 791160, Note_on_c, 0, 50, 57
2, 791160, Note_on_c, 0, 54, 57
2, 791183, Note_on_c, 0, 54, 0
2, 791183, Note_on_c, 0, 50, 0
2, 791183, Note_on_c, 0, 47, 0
2, 791280, Note_on_c, 0, 47, 44
2, 791280, Note_on_c, 0, 50, 44
2, 791280, Note_on_c, 0, 54, 44
2, 791303, Note_on_c, 0, 54, 0
2, 791303, Note_on_c, 0, 50, 0
2, 791303, Note_on_c, 0, 47, 0
2, 791400, Note_on_c, 0, 52, 44
2, 791400, Note_on_c, 0, 54, 44
2, 791400, Note_on_c, 0, 59, 44
2, 791423, Note_on_c, 0, 59, 0
2, 791423, Note_on_c, 0, 54, 0
2, 791423, Note_on_c, 0, 52, 0
2, 791520, Note_on_c, 0, 42, 44
2, 791520, Note_on_c, 0, 47, 44
2, 791520, Note_on_c, 0, 50, 44
2, 791543, Note_on_c, 0, 50, 0
2, 791543, Note_on_c, 0, 47, 0
2, 791543, Note_on_c, 0, 42, 0
2, 791640, Note_on_c, 0, 50, 44
2, 791640, Note_on_c, 0, 54, 44
2, 791640, Note_on_c, 0, 59, 44
2, 791663, Note_on_c, 0, 59, 0
2, 791663, Note_on_c, 0, 54, 0
2, 791663, Note_on_c, 0, 50, 0
2, 791760, Note_on_c, 0, 42, 44
2, 791760, Note_on_c, 0, 47, 44
2, 791760, Note_on_c, 0, 49, 44
2, 791783, Note_on_c, 0, 49, 0
2, 791783, Note_on_c, 0, 47, 0
2, 791783, Note_on_c, 0, 42, 0
2, 791880, Note_on_c, 0, 50, 44
2, 791880, Note_on_c, 0, 54, 44
2, 791880, Note_on_c, 0, 59, 44
2, 791903, Note_on_c, 0, 59, 0
2, 791903, Note_on_c, 0, 54, 0
2, 791903, Note_on_c, 0, 50, 0
2, 792000, Note_on_c, 0, 30, 44
2, 792120, Note_on_c, 0, 30, 0
2, 792120, Note_on_c, 0, 42, 44
2, 792240, Note_on_c, 0, 42, 0
2, 792240, Note_on_c, 0, 47, 44
2, 792240, Note_on_c, 0, 50, 44
2, 792263, Note_on_c, 0, 50, 0
2, 792263, Note_on_c, 0, 47, 0
2, 792360, Note_on_c, 0, 49, 44
2, 792383, Note_on_c, 0, 49, 0
2, 792480, Note_on_c, 0, 50, 44
2, 792480, Note_on_c, 0, 54, 44
2, 792503, Note_on_c, 0, 54, 0
2, 792503, Note_on_c, 0, 50, 0
2, 792600, Note_on_c, 0, 55, 44
2, 792623, Note_on_c, 0, 55, 0
2, 792720, Note_on_c, 0, 55, 57
2, 792743, Note_on_c, 0, 55, 0
2, 792840, Note_on_c, 0, 56, 57
2, 792840, Note_on_c, 0, 59, 57
2, 792840, Note_on_c, 0, 62, 57
2, 792863, Note_on_c, 0, 62, 0
2, 792863, Note_on_c, 0, 59, 0
2, 792863, Note_on_c, 0, 56, 0
2, 792960, Note_on_c, 0, 57, 57
2, 792983, Note_on_c, 0, 57, 0
2, 793080, Note_on_c, 0, 58, 57
2, 793080, Note_on_c, 0, 61, 57
2, 793080, Note_on_c, 0, 64, 57
2, 793080, Note_on_c, 0, 66, 57
2, 793103, Note_on_c, 0, 66, 0
2, 793103, Note_on_c, 0, 58, 0
2, 793103, Note_on_c, 0, 61, 0
2, 793103, Note_on_c, 0, 64, 0
2, 793200, Note_on_c, 0, 59, 57
2, 793223, Note_on_c, 0, 59, 0
2, 793320, Note_on_c, 0, 61, 57
2, 793320, Note_on_c, 0, 64, 57
2, 793320, Note_on_c, 0, 66, 57
2, 793343, Note_on_c, 0, 66, 0
2, 793343, Note_on_c, 0, 64, 0
2, 793343, Note_on_c, 0, 61, 0
2, 793440, Note_on_c, 0, 50, 57
2, 793440, Note_on_c, 0, 54, 57
2, 793440, Note_on_c, 0, 61, 57
2, 793463, Note_on_c, 0, 61, 0
2, 793463, Note_on_c, 0, 54, 0
2, 793463, Note_on_c, 0, 50, 0
2, 793560, Note_on_c, 0, 59, 57
2, 793560, Note_on_c, 0, 62, 57
2, 793560, Note_on_c, 0, 66, 57
2, 793583, Note_on_c, 0, 66, 0
2, 793583, Note_on_c, 0, 62, 0
2, 793583, Note_on_c, 0, 59, 0
2, 793680, Note_on_c, 0, 47, 57
2, 793680, Note_on_c, 0, 50, 57
2, 793680, Note_on_c, 0, 57, 57
2, 793703, Note_on_c, 0, 57, 0
2, 793703, Note_on_c, 0, 50, 0
2, 793703, Note_on_c, 0, 47, 0
2, 793800, Note_on_c, 0, 47, 57
2, 793800, Note_on_c, 0, 50, 57
2, 793800, Note_on_c, 0, 57, 57
2, 793823, Note_on_c, 0, 57, 0
2, 793823, Note_on_c, 0, 50, 0
2, 793823, Note_on_c, 0, 47, 0
2, 793920, Note_on_c, 0, 55, 57
2, 793920, Note_on_c, 0, 59, 57
2, 793920, Note_on_c, 0, 62, 57
2, 793943, Note_on_c, 0, 62, 0
2, 793943, Note_on_c, 0, 59, 0
2, 793943, Note_on_c, 0, 55, 0
2, 794040, Note_on_c, 0, 47, 57
2, 794040, Note_on_c, 0, 50, 57
2, 794040, Note_on_c, 0, 54, 57
2, 794063, Note_on_c, 0, 54, 0
2, 794063, Note_on_c, 0, 50, 0
2, 794063, Note_on_c, 0, 47, 0
2, 794160, Note_on_c, 0, 47, 44
2, 794160, Note_on_c, 0, 50, 44
2, 794160, Note_on_c, 0, 54, 44
2, 794183, Note_on_c, 0, 54, 0
2, 794183, Note_on_c, 0, 50, 0
2, 794183, Note_on_c, 0, 47, 0
2, 794280, Note_on_c, 0, 52, 44
2, 794280, Note_on_c, 0, 54, 44
2, 794280, Note_on_c, 0, 59, 44
2, 794303, Note_on_c, 0, 59, 0
2, 794303, Note_on_c, 0, 54, 0
2, 794303, Note_on_c, 0, 52, 0
2, 794400, Note_on_c, 0, 42, 44
2, 794400, Note_on_c, 0, 47, 44
2, 794400, Note_on_c, 0, 50, 44
2, 794423, Note_on_c, 0, 50, 0
2, 794423, Note_on_c, 0, 47, 0
2, 794423, Note_on_c, 0, 42, 0
2, 794520, Note_on_c, 0, 50, 44
2, 794520, Note_on_c, 0, 54, 44
2, 794520, Note_on_c, 0, 59, 44
2, 794543, Note_on_c, 0, 59, 0
2, 794543, Note_on_c, 0, 54, 0
2, 794543, Note_on_c, 0, 50, 0
2, 794640, Note_on_c, 0, 42, 44
2, 794640, Note_on_c, 0, 47, 44
2, 794640, Note_on_c, 0, 49, 44
2, 794663, Note_on_c, 0, 49, 0
2, 794663, Note_on_c, 0, 47, 0
2, 794663, Note_on_c, 0, 42, 0
2, 794760, Note_on_c, 0, 50, 44
2, 794760, Note_on_c, 0, 54, 44
2, 794760, Note_on_c, 0, 59, 44
2, 794783, Note_on_c, 0, 59, 0
2, 794783, Note_on_c, 0, 54, 0
2, 794783, Note_on_c, 0, 50, 0
2, 794880, Note_on_c, 0, 30, 44
2, 795000, Note_on_c, 0, 30, 0
2, 795000, Note_on_c, 0, 42, 44
2, 795120, Note_on_c, 0, 42, 0
2, 795120, Note_on_c, 0, 48, 44
2, 795120, Note_on_c, 0, 51, 44
2, 795240, Note_on_c, 0, 51, 0
2, 795240, Note_on_c, 0, 48, 0
2, 795240, Note_on_c, 0, 50, 44
2, 795360, Note_on_c, 0, 50, 0
2, 795360, Note_on_c, 0, 51, 44
2, 795360, Note_on_c, 0, 54, 44
2, 795480, Note_on_c, 0, 54, 0
2, 795480, Note_on_c, 0, 51, 0
2, 795480, Note_on_c, 0, 57, 44
2, 795600, Note_on_c, 0, 57, 0
2, 795600, Note_on_c, 0, 57, 57
2, 795720, Note_on_c, 0, 57, 0
2, 795720, Note_on_c, 0, 58, 57
2, 795720, Note_on_c, 0, 61, 57
2, 795720, Note_on_c, 0, 64, 57
2, 795840, Note_on_c, 0, 64, 0
2, 795840, Note_on_c, 0, 61, 0
2, 795840, Note_on_c, 0, 58, 0
2, 795840, Note_on_c, 0, 59, 57
2, 795960, Note_on_c, 0, 59, 0
2, 795960, Note_on_c, 0, 60, 57
2, 795960, Note_on_c, 0, 63, 57
2, 795960, Note_on_c, 0, 66, 57
2, 795960, Note_on_c, 0, 68, 57
2, 796080, Note_on_c, 0, 68, 0
2, 796080, Note_on_c, 0, 60, 0
2, 796080, Note_on_c, 0, 63, 0
2, 796080, Note_on_c, 0, 66, 0
2, 796080, Note_on_c, 0, 61, 57
2, 796200, Note_on_c, 0, 61, 0
2, 796200, Note_on_c, 0, 63, 57
2, 796200, Note_on_c, 0, 66, 57
2, 796200, Note_on_c, 0, 68, 57
2, 796320, Note_on_c, 0, 68, 0
2, 796320, Note_on_c, 0, 66, 0
2, 796320, Note_on_c, 0, 63, 0
2, 796320, Note_on_c, 0, 52, 57
2, 796320, Note_on_c, 0, 56, 57
2, 796320, Note_on_c, 0, 63, 57
2, 796440, Note_on_c, 0, 63, 0
2, 796440, Note_on_c, 0, 56, 0
2, 796440, Note_on_c, 0, 52, 0
2, 796440, Note_on_c, 0, 61, 57
2, 796440, Note_on_c, 0, 64, 57
2, 796440, Note_on_c, 0, 68, 57
2, 796560, Note_on_c, 0, 68, 0
2, 796560, Note_on_c, 0, 64, 0
2, 796560, Note_on_c, 0, 61, 0
2, 796560, Note_on_c, 0, 49, 57
2, 796560, Note_on_c, 0, 52, 57
2, 796560, Note_on_c, 0, 59, 57
2, 796680, Note_on_c, 0, 59, 0
2, 796680, Note_on_c, 0, 52, 0
2, 796680, Note_on_c, 0, 49, 0
2, 796680, Note_on_c, 0, 49, 57
2, 796680, Note_on_c, 0, 52, 57
2, 796680, Note_on_c, 0, 59, 57
2, 796800, Note_on_c, 0, 59, 0
2, 796800, Note_on_c, 0, 52, 0
2, 796800, Note_on_c, 0, 49, 0
2, 796800, Note_on_c, 0, 57, 57
2, 796800, Note_on_c, 0, 61, 57
2, 796800, Note_on_c, 0, 64, 57
2, 796920, Note_on_c, 0, 64, 0
2, 796920, Note_on_c, 0, 61, 0
2, 796920, Note_on_c, 0, 57, 0
2, 796920, Note_on_c, 0, 49, 57
2, 796920, Note_on_c, 0, 52, 57
2, 796920, Note_on_c, 0, 56, 57
2, 797040, Note_on_c, 0, 56, 0
2, 797040, Note_on_c, 0, 52, 0
2, 797040, Note_on_c, 0, 49, 0
2, 797040, Note_on_c, 0, 49, 44
2, 797040, Note_on_c, 0, 52, 44
2, 797040, Note_on_c, 0, 56, 44
2, 797160, Note_on_c, 0, 56, 0
2, 797160, Note_on_c, 0, 52, 0
2, 797160, Note_on_c, 0, 49, 0
2, 797160, Note_on_c, 0, 54, 44
2, 797160, Note_on_c, 0, 56, 44
2, 797160, Note_on_c, 0, 61, 44
2, 797280, Note_on_c, 0, 61, 0
2, 797280, Note_on_c, 0, 56, 0
2, 797280, Note_on_c, 0, 54, 0
2, 797280, Note_on_c, 0, 44, 44
2, 797280, Note_on_c, 0, 49, 44
2, 797280, Note_on_c, 0, 52, 44
2, 797400, Note_on_c, 0, 52, 0
2, 797400, Note_on_c, 0, 49, 0
2, 797400, Note_on_c, 0, 44, 0
2, 797400, Note_on_c, 0, 52, 44
2, 797400, Note_on_c, 0, 56, 44
2, 797400, Note_on_c, 0, 61, 44
2, 797520, Note_on_c, 0, 61, 0
2, 797520, Note_on_c, 0, 56, 0
2, 797520, Note_on_c, 0, 52, 0
2, 797520, Note_on_c, 0, 44, 44
2, 797520, Note_on_c, 0, 49, 44
2, 797520, Note_on_c, 0, 51, 44
2, 797640, Note_on_c, 0, 51, 0
2, 797640, Note_on_c, 0, 49, 0
2, 797640, Note_on_c, 0, 44, 0
2, 797640, Note_on_c, 0, 52, 44
2, 797640, Note_on_c, 0, 56, 44
2, 797640, Note_on_c, 0, 61, 44
2, 797760, Note_on_c, 0, 61, 0
2, 797760, Note_on_c, 0, 56, 0
2, 797760, Note_on_c, 0, 52, 0
2, 797760, Note_on_c, 0, 30, 44
2, 797880, Note_on_c, 0, 30, 0
2, 797880, Note_on_c, 0, 42, 44
2, 798000, Note_on_c, 0, 42, 0
2, 798000, Note_on_c, 0, 48, 44
2, 798000, Note_on_c, 0, 51, 44
2, 798120, Note_on_c, 0, 51, 0
2, 798120, Note_on_c, 0, 48, 0
2, 798120, Note_on_c, 0, 50, 44
2, 798240, Note_on_c, 0, 50, 0
2, 798240, Note_on_c, 0, 51, 44
2, 798240, Note_on_c, 0, 54, 44
2, 798360, Note_on_c, 0, 54, 0
2, 798360, Note_on_c, 0, 51, 0
2, 798360, Note_on_c, 0, 57, 44
2, 798480, Note_on_c, 0, 57, 0
2, 798480, Note_on_c, 0, 57, 57
2, 798600, Note_on_c, 0, 57, 0
2, 798600, Note_on_c, 0, 58, 57
2, 798600, Note_on_c, 0, 61, 57
2, 798600, Note_on_c, 0, 64, 57
2, 798720, Note_on_c, 0, 64, 0
2, 798720, Note_on_c, 0, 61, 0
2, 798720, Note_on_c, 0, 58, 0
2, 798720, Note_on_c, 0, 59, 57
2, 798840, Note_on_c, 0, 59, 0
2, 798840, Note_on_c, 0, 60, 57
2, 798840, Note_on_c, 0, 63, 57
2, 798840, Note_on_c, 0, 66, 57
2, 798840, Note_on_c, 0, 68, 57
2, 798960, Note_on_c, 0, 68, 0
2, 798960, Note_on_c, 0, 60, 0
2, 798960, Note_on_c, 0, 63, 0
2, 798960, Note_on_c, 0, 66, 0
2, 798960, Note_on_c, 0, 61, 57
2, 799080, Note_on_c, 0, 61, 0
2, 799080, Note_on_c, 0, 63, 57
2, 799080, Note_on_c, 0, 66, 57
2, 799080, Note_on_c, 0, 68, 57
2, 799200, Note_on_c, 0, 68, 0
2, 799200, Note_on_c, 0, 66, 0
2, 799200, Note_on_c, 0, 63, 0
2, 799200, Note_on_c, 0, 52, 57
2, 799200, Note_on_c, 0, 56, 57
2, 799200, Note_on_c, 0, 63, 57
2, 799320, Note_on_c, 0, 63, 0
2, 799320, Note_on_c, 0, 56, 0
2, 799320, Note_on_c, 0, 52, 0
2, 799320, Note_on_c, 0, 61, 57
2, 799320, Note_on_c, 0, 64, 57
2, 799320, Note_on_c, 0, 68, 57
2, 799440, Note_on_c, 0, 68, 0
2, 799440, Note_on_c, 0, 64, 0
2, 799440, Note_on_c, 0, 61, 0
2, 799440, Note_on_c, 0, 49, 57
2, 799440, Note_on_c, 0, 52, 57
2, 799440, Note_on_c, 0, 59, 57
2, 799560, Note_on_c, 0, 59, 0
2, 799560, Note_on_c, 0, 52, 0
2, 799560, Note_on_c, 0, 49, 0
2, 799560, Note_on_c, 0, 49, 57
2, 799560, Note_on_c, 0, 52, 57
2, 799560, Note_on_c, 0, 59, 57
2, 799680, Note_on_c, 0, 59, 0
2, 799680, Note_on_c, 0, 52, 0
2, 799680, Note_on_c, 0, 49, 0
2, 799680, Note_on_c, 0, 57, 57
2, 799680, Note_on_c, 0, 61, 57
2, 799680, Note_on_c, 0, 64, 57
2, 799800, Note_on_c, 0, 64, 0
2, 799800, Note_on_c, 0, 61, 0
2, 799800, Note_on_c, 0, 57, 0
2, 799800, Note_on_c, 0, 49, 57
2, 799800, Note_on_c, 0, 52, 57
2, 799800, Note_on_c, 0, 56, 57
2, 799920, Note_on_c, 0, 56, 0
2, 799920, Note_on_c, 0, 52, 0
2, 799920, Note_on_c, 0, 49, 0
2, 799920, Note_on_c, 0, 49, 44
2, 799920, Note_on_c, 0, 52, 44
2, 799920, Note_on_c, 0, 56, 44
2, 800040, Note_on_c, 0, 56, 0
2, 800040, Note_on_c, 0, 52, 0
2, 800040, Note_on_c, 0, 49, 0
2, 800040, Note_on_c, 0, 54, 44
2, 800040, Note_on_c, 0, 56, 44
2, 800040, Note_on_c, 0, 61, 44
2, 800160, Note_on_c, 0, 61, 0
2, 800160, Note_on_c, 0, 56, 0
2, 800160, Note_on_c, 0, 54, 0
2, 800160, Note_on_c, 0, 44, 44
2, 800160, Note_on_c, 0, 49, 44
2, 800160, Note_on_c, 0, 52, 44
2, 800280, Note_on_c, 0, 52, 0
2, 800280, Note_on_c, 0, 49, 0
2, 800280, Note_on_c, 0, 44, 0
2, 800280, Note_on_c, 0, 52, 44
2, 800280, Note_on_c, 0, 56, 44
2, 800280, Note_on_c, 0, 61, 44
2, 800400, Note_on_c, 0, 61, 0
2, 800400, Note_on_c, 0, 56, 0
2, 800400, Note_on_c, 0, 52, 0
2, 800400, Note_on_c, 0, 44, 44
2, 800400, Note_on_c, 0, 49, 44
2, 800400, Note_on_c, 0, 51, 44
2, 800520, Note_on_c, 0, 51, 0
2, 800520, Note_on_c, 0, 49, 0
2, 800520, Note_on_c, 0, 44, 0
2, 800520, Note_on_c, 0, 52, 44
2, 800520, Note_on_c, 0, 56, 44
2, 800520, Note_on_c, 0, 61, 44
2, 800640, Note_on_c, 0, 61, 0
2, 800640, Note_on_c, 0, 56, 0
2, 800640, Note_on_c, 0, 52, 0
2, 800640, Note_on_c, 0, 30, 44
2, 800760, Note_on_c, 0, 30, 0
2, 800760, Note_on_c, 0, 42, 44
2, 800880, Note_on_c, 0, 42, 0
2, 800880, Note_on_c, 0, 49, 44
2, 800880, Note_on_c, 0, 52, 44
2, 800880, Note_on_c, 0, 56, 44
2, 801000, Note_on_c, 0, 56, 0
2, 801000, Note_on_c, 0, 52, 0
2, 801000, Note_on_c, 0, 49, 0
2, 801000, Note_on_c, 0, 48, 44
2, 801120, Note_on_c, 0, 48, 0
2, 801120, Note_on_c, 0, 49, 44
2, 801120, Note_on_c, 0, 52, 44
2, 801120, Note_on_c, 0, 56, 44
2, 801240, Note_on_c, 0, 56, 0
2, 801240, Note_on_c, 0, 52, 0
2, 801240, Note_on_c, 0, 49, 0
2, 801240, Note_on_c, 0, 51, 44
2, 801360, Note_on_c, 0, 51, 0
2, 801360, Note_on_c, 0, 51, 57
2, 801480, Note_on_c, 0, 51, 0
2, 801480, Note_on_c, 0, 52, 57
2, 801480, Note_on_c, 0, 56, 57
2, 801480, Note_on_c, 0, 61, 57
2, 801600, Note_on_c, 0, 61, 0
2, 801600, Note_on_c, 0, 56, 0
2, 801600, Note_on_c, 0, 52, 0
2, 801600, Note_on_c, 0, 55, 57
2, 801720, Note_on_c, 0, 55, 0
2, 801720, Note_on_c, 0, 56, 57
2, 801720, Note_on_c, 0, 61, 57
2, 801720, Note_on_c, 0, 64, 57
2, 801840, Note_on_c, 0, 64, 0
2, 801840, Note_on_c, 0, 61, 0
2, 801840, Note_on_c, 0, 56, 0
2, 801840, Note_on_c, 0, 60, 57
2, 801960, Note_on_c, 0, 60, 0
2, 801960, Note_on_c, 0, 61, 57
2, 801960, Note_on_c, 0, 64, 57
2, 801960, Note_on_c, 0, 68, 57
2, 802080, Note_on_c, 0, 68, 0
2, 802080, Note_on_c, 0, 64, 0
2, 802080, Note_on_c, 0, 61, 0
2, 802080, Note_on_c, 0, 30, 44
2, 802200, Note_on_c, 0, 30, 0
2, 802200, Note_on_c, 0, 42, 44
2, 802320, Note_on_c, 0, 42, 0
2, 802320, Note_on_c, 0, 49, 44
2, 802320, Note_on_c, 0, 52, 44
2, 802320, Note_on_c, 0, 56, 44
2, 802440, Note_on_c, 0, 56, 0
2, 802440, Note_on_c, 0, 52, 0
2, 802440, Note_on_c, 0, 49, 0
2, 802440, Note_on_c, 0, 48, 44
2, 802560, Note_on_c, 0, 48, 0
2, 802560, Note_on_c, 0, 49, 44
2, 802560, Note_on_c, 0, 52, 44
2, 802560, Note_on_c, 0, 56, 44
2, 802680, Note_on_c, 0, 56, 0
2, 802680, Note_on_c, 0, 52, 0
2, 802680, Note_on_c, 0, 49, 0
2, 802680, Note_on_c, 0, 51, 44
2, 802800, Note_on_c, 0, 51, 0
2, 802800, Note_on_c, 0, 51, 57
2, 802920, Note_on_c, 0, 51, 0
2, 802920, Note_on_c, 0, 52, 57
2, 802920, Note_on_c, 0, 56, 57
2, 802920, Note_on_c, 0, 61, 57
2, 803040, Note_on_c, 0, 61, 0
2, 803040, Note_on_c, 0, 56, 0
2, 803040, Note_on_c, 0, 52, 0
2, 803040, Note_on_c, 0, 55, 57
2, 803160, Note_on_c, 0, 55, 0
2, 803160, Note_on_c, 0, 56, 57
2, 803160, Note_on_c, 0, 61, 57
2, 803160, Note_on_c, 0, 64, 57
2, 803280, Note_on_c, 0, 64, 0
2, 803280, Note_on_c, 0, 61, 0
2, 803280, Note_on_c, 0, 56, 0
2, 803280, Note_on_c, 0, 60, 57
2, 803400, Note_on_c, 0, 60, 0
2, 803400, Note_on_c, 0, 61, 57
2, 803400, Note_on_c, 0, 64, 57
2, 803400, Note_on_c, 0, 68, 57
2, 803520, Note_on_c, 0, 68, 0
2, 803520, Note_on_c, 0, 64, 0
2, 803520, Note_on_c, 0, 61, 0
2, 803520, Note_on_c, 0, 30, 44
2, 803640, Note_on_c, 0, 30, 0
2, 803640, Note_on_c, 0, 42, 44
2, 803760, Note_on_c, 0, 42, 0
2, 803760, Note_on_c, 0, 49, 44
2, 803760, Note_on_c, 0, 52, 44
2, 803760, Note_on_c, 0, 58, 44
2, 803880, Note_on_c, 0, 58, 0
2, 803880, Note_on_c, 0, 52, 0
2, 803880, Note_on_c, 0, 49, 0
2, 803880, Note_on_c, 0, 48, 44
2, 804000, Note_on_c, 0, 48, 0
2, 804000, Note_on_c, 0, 49, 44
2, 804000, Note_on_c, 0, 52, 44
2, 804000, Note_on_c, 0, 58, 44
2, 804120, Note_on_c, 0, 58, 0
2, 804120, Note_on_c, 0, 52, 0
2, 804120, Note_on_c, 0, 49, 0
2, 804120, Note_on_c, 0, 51, 44
2, 804240, Note_on_c, 0, 51, 0
2, 804240, Note_on_c, 0, 51, 57
2, 804360, Note_on_c, 0, 51, 0
2, 804360, Note_on_c, 0, 52, 57
2, 804360, Note_on_c, 0, 58, 57
2, 804360, Note_on_c, 0, 61, 57
2, 804480, Note_on_c, 0, 61, 0
2, 804480, Note_on_c, 0, 58, 0
2, 804480, Note_on_c, 0, 52, 0
2, 804480, Note_on_c, 0, 57, 57
2, 804600, Note_on_c, 0, 57, 0
2, 804600, Note_on_c, 0, 58, 57
2, 804600, Note_on_c, 0, 61, 57
2, 804600, Note_on_c, 0, 64, 57
2, 804720, Note_on_c, 0, 64, 0
2, 804720, Note_on_c, 0, 61, 0
2, 804720, Note_on_c, 0, 58, 0
2, 804720, Note_on_c, 0, 60, 57
2, 804840, Note_on_c, 0, 60, 0
2, 804840, Note_on_c, 0, 61, 57
2, 804840, Note_on_c, 0, 64, 57
2, 804840, Note_on_c, 0, 70, 57
2, 804960, Note_on_c, 0, 70, 0
2, 804960, Note_on_c, 0, 64, 0
2, 804960, Note_on_c, 0, 61, 0
2, 804960, Note_on_c, 0, 30, 44
2, 805080, Note_on_c, 0, 30, 0
2, 805080, Note_on_c, 0, 42, 44
2, 805200, Note_on_c, 0, 42, 0
2, 805200, Note_on_c, 0, 49, 44
2, 805200, Note_on_c, 0, 52, 44
2, 805200, Note_on_c, 0, 58, 44
2, 805320, Note_on_c, 0, 58, 0
2, 805320, Note_on_c, 0, 52, 0
2, 805320, Note_on_c, 0, 49, 0
2, 805320, Note_on_c, 0, 48, 44
2, 805440, Note_on_c, 0, 48, 0
2, 805440, Note_on_c, 0, 49, 44
2, 805440, Note_on_c, 0, 52, 44
2, 805440, Note_on_c, 0, 58, 44
2, 805560, Note_on_c, 0, 58, 0
2, 805560, Note_on_c, 0, 52, 0
2, 805560, Note_on_c, 0, 49, 0
2, 805560, Note_on_c, 0, 51, 44
2, 805680, Note_on_c, 0, 51, 0
2, 805680, Note_on_c, 0, 51, 57
2, 805800, Note_on_c, 0, 51, 0
2, 805800, Note_on_c, 0, 52, 57
2, 805800, Note_on_c, 0, 58, 57
2, 805800, Note_on_c, 0, 61, 57
2, 805920, Note_on_c, 0, 61, 0
2, 805920, Note_on_c, 0, 58, 0
2, 805920, Note_on_c, 0, 52, 0
2, 805920, Note_on_c, 0, 57, 57
2, 806040, Note_on_c, 0, 57, 0
2, 806040, Note_on_c, 0, 58, 57
2, 806040, Note_on_c, 0, 61, 57
2, 806040, Note_on_c, 0, 64, 57
2, 806160, Note_on_c, 0, 64, 0
2, 806160, Note_on_c, 0, 61, 0
2, 806160, Note_on_c, 0, 58, 0
2, 806160, Note_on_c, 0, 60, 57
2, 806280, Note_on_c, 0, 60, 0
2, 806280, Note_on_c, 0, 61, 57
2, 806280, Note_on_c, 0, 64, 57
2, 806280, Note_on_c, 0, 70, 57
2, 806400, Note_on_c, 0, 70, 0
2, 806400, Note_on_c, 0, 64, 0
2, 806400, Note_on_c, 0, 61, 0
2, 806400, Note_on_c, 0, 29, 44
2, 806520, Note_on_c, 0, 29, 0
2, 806520, Note_on_c, 0, 41, 44
2, 806640, Note_on_c, 0, 41, 0
2, 806640, Note_on_c, 0, 46, 44
2, 806640, Note_on_c, 0, 49, 44
2, 806760, Note_on_c, 0, 49, 0
2, 806760, Note_on_c, 0, 46, 0
2, 806760, Note_on_c, 0, 48, 44
2, 806880, Note_on_c, 0, 48, 0
2, 806880, Note_on_c, 0, 49, 44
2, 806880, Note_on_c, 0, 53, 44
2, 807000, Note_on_c, 0, 53, 0
2, 807000, Note_on_c, 0, 49, 0
2, 807000, Note_on_c, 0, 54, 44
2, 807120, Note_on_c, 0, 54, 0
2, 807120, Note_on_c, 0, 54, 57
2, 807240, Note_on_c, 0, 54, 0
2, 807240, Note_on_c, 0, 55, 57
2, 807240, Note_on_c, 0, 58, 57
2, 807240, Note_on_c, 0, 61, 57
2, 807360, Note_on_c, 0, 61, 0
2, 807360, Note_on_c, 0, 58, 0
2, 807360, Note_on_c, 0, 55, 0
2, 807360, Note_on_c, 0, 56, 57
2, 807480, Note_on_c, 0, 56, 0
2, 807480, Note_on_c, 0, 57, 57
2, 807480, Note_on_c, 0, 60, 57
2, 807480, Note_on_c, 0, 63, 57
2, 807480, Note_on_c, 0, 65, 57
2, 807600, Note_on_c, 0, 65, 0
2, 807600, Note_on_c, 0, 57, 0
2, 807600, Note_on_c, 0, 60, 0
2, 807600, Note_on_c, 0, 63, 0
2, 807600, Note_on_c, 0, 58, 57
2, 807720, Note_on_c, 0, 58, 0
2, 807720, Note_on_c, 0, 60, 57
2, 807720, Note_on_c, 0, 63, 57
2, 807720, Note_on_c, 0, 65, 57
2, 807840, Note_on_c, 0, 65, 0
2, 807840, Note_on_c, 0, 63, 0
2, 807840, Note_on_c, 0, 60, 0
2, 807840, Note_on_c, 0, 49, 57
2, 807840, Note_on_c, 0, 53, 57
2, 807840, Note_on_c, 0, 60, 57
2, 807960, Note_on_c, 0, 60, 0
2, 807960, Note_on_c, 0, 53, 0
2, 807960, Note_on_c, 0, 49, 0
2, 807960, Note_on_c, 0, 58, 57
2, 807960, Note_on_c, 0, 61, 57
2, 807960, Note_on_c, 0, 65, 57
2, 808080, Note_on_c, 0, 65, 0
2, 808080, Note_on_c, 0, 61, 0
2, 808080, Note_on_c, 0, 58, 0
2, 808080, Note_on_c, 0, 46, 57
2, 808080, Note_on_c, 0, 49, 57
2, 808080, Note_on_c, 0, 56, 57
2, 808200, Note_on_c, 0, 56, 0
2, 808200, Note_on_c, 0, 49, 0
2, 808200, Note_on_c, 0, 46, 0
2, 808200, Note_on_c, 0, 46, 57
2, 808200, Note_on_c, 0, 49, 57
2, 808200, Note_on_c, 0, 56, 57
2, 808320, Note_on_c, 0, 56, 0
2, 808320, Note_on_c, 0, 49, 0
2, 808320, Note_on_c, 0, 46, 0
2, 808320, Note_on_c, 0, 54, 57
2, 808320, Note_on_c, 0, 58, 57
2, 808320, Note_on_c, 0, 61, 57
2, 808440, Note_on_c, 0, 61, 0
2, 808440, Note_on_c, 0, 58, 0
2, 808440, Note_on_c, 0, 54, 0
2, 808440, Note_on_c, 0, 46, 57
2, 808440, Note_on_c, 0, 49, 57
2, 808440, Note_on_c, 0, 53, 57
2, 808560, Note_on_c, 0, 53, 0
2, 808560, Note_on_c, 0, 49, 0
2, 808560, Note_on_c, 0, 46, 0
2, 808560, Note_on_c, 0, 46, 44
2, 808560, Note_on_c, 0, 49, 44
2, 808560, Note_on_c, 0, 53, 44
2, 808680, Note_on_c, 0, 53, 0
2, 808680, Note_on_c, 0, 49, 0
2, 808680, Note_on_c, 0, 46, 0
2, 808680, Note_on_c, 0, 51, 44
2, 808680, Note_on_c, 0, 53, 44
2, 808680, Note_on_c, 0, 58, 44
2, 808800, Note_on_c, 0, 58, 0
2, 808800, Note_on_c, 0, 53, 0
2, 808800, Note_on_c, 0, 51, 0
2, 808800, Note_on_c, 0, 41, 44
2, 808800, Note_on_c, 0, 46, 44
2, 808800, Note_on_c, 0, 49, 44
2, 808920, Note_on_c, 0, 49, 0
2, 808920, Note_on_c, 0, 46, 0
2, 808920, Note_on_c, 0, 41, 0
2, 808920, Note_on_c, 0, 49, 44
2, 808920, Note_on_c, 0, 53, 44
2, 808920, Note_on_c, 0, 58, 44
2, 809040, Note_on_c, 0, 58, 0
2, 809040, Note_on_c, 0, 53, 0
2, 809040, Note_on_c, 0, 49, 0
2, 809040, Note_on_c, 0, 41, 44
2, 809040, Note_on_c, 0, 46, 44
2, 809040, Note_on_c, 0, 48, 44
2, 809160, Note_on_c, 0, 48, 0
2, 809160, Note_on_c, 0, 46, 0
2, 809160, Note_on_c, 0, 41, 0
2, 809160, Note_on_c, 0, 49, 44
2, 809160, Note_on_c, 0, 53, 44
2, 809160, Note_on_c, 0, 58, 44
2, 809280, Note_on_c, 0, 58, 0
2, 809280, Note_on_c, 0, 53, 0
2, 809280, Note_on_c, 0, 49, 0
2, 809280, Note_on_c, 0, 29, 44
2, 809400, Note_on_c, 0, 29, 0
2, 809400, Note_on_c, 0, 41, 44
2, 809520, Note_on_c, 0, 41, 0
2, 809520, Note_on_c, 0, 46, 44
2, 809520, Note_on_c, 0, 49, 44
2, 809640, Note_on_c, 0, 49, 0
2, 809640, Note_on_c, 0, 46, 0
2, 809640, Note_on_c, 0, 48, 44
2, 809760, Note_on_c, 0, 48, 0
2, 809760, Note_on_c, 0, 49, 44
2, 809760, Note_on_c, 0, 53, 44
2, 809880, Note_on_c, 0, 53, 0
2, 809880, Note_on_c, 0, 49, 0
2, 809880, Note_on_c, 0, 54, 44
2, 810000, Note_on_c, 0, 54, 0
2, 810000, Note_on_c, 0, 54, 57
2, 810120, Note_on_c, 0, 54, 0
2, 810120, Note_on_c, 0, 55, 57
2, 810120, Note_on_c, 0, 58, 57
2, 810120, Note_on_c, 0, 61, 57
2, 810240, Note_on_c, 0, 61, 0
2, 810240, Note_on_c, 0, 58, 0
2, 810240, Note_on_c, 0, 55, 0
2, 810240, Note_on_c, 0, 56, 57
2, 810360, Note_on_c, 0, 56, 0
2, 810360, Note_on_c, 0, 57, 57
2, 810360, Note_on_c, 0, 60, 57
2, 810360, Note_on_c, 0, 63, 57
2, 810360, Note_on_c, 0, 65, 57
2, 810480, Note_on_c, 0, 65, 0
2, 810480, Note_on_c, 0, 57, 0
2, 810480, Note_on_c, 0, 60, 0
2, 810480, Note_on_c, 0, 63, 0
2, 810480, Note_on_c, 0, 58, 57
2, 810600, Note_on_c, 0, 58, 0
2, 810600, Note_on_c, 0, 60, 57
2, 810600, Note_on_c, 0, 63, 57
2, 810600, Note_on_c, 0, 65, 57
2, 810720, Note_on_c, 0, 65, 0
2, 810720, Note_on_c, 0, 63, 0
2, 810720, Note_on_c, 0, 60, 0
2, 810720, Note_on_c, 0, 49, 57
2, 810720, Note_on_c, 0, 53, 57
2, 810720, Note_on_c, 0, 60, 57
2, 810840, Note_on_c, 0, 60, 0
2, 810840, Note_on_c, 0, 53, 0
2, 810840, Note_on_c, 0, 49, 0
2, 810840, Note_on_c, 0, 58, 57
2, 810840, Note_on_c, 0, 61, 57
2, 810840, Note_on_c, 0, 65, 57
2, 810960, Note_on_c, 0, 65, 0
2, 810960, Note_on_c, 0, 61, 0
2, 810960, Note_on_c, 0, 58, 0
2, 810960, Note_on_c, 0, 46, 57
2, 810960, Note_on_c, 0, 49, 57
2, 810960, Note_on_c, 0, 56, 57
2, 811080, Note_on_c, 0, 56, 0
2, 811080, Note_on_c, 0, 49, 0
2, 811080, Note_on_c, 0, 46, 0
2, 811080, Note_on_c, 0, 46, 57
2, 811080, Note_on_c, 0, 49, 57
2, 811080, Note_on_c, 0, 56, 57
2, 811200, Note_on_c, 0, 56, 0
2, 811200, Note_on_c, 0, 49, 0
2, 811200, Note_on_c, 0, 46, 0
2, 811200, Note_on_c, 0, 54, 57
2, 811200, Note_on_c, 0, 58, 57
2, 811200, Note_on_c, 0, 61, 57
2, 811320, Note_on_c, 0, 61, 0
2, 811320, Note_on_c, 0, 58, 0
2, 811320, Note_on_c, 0, 54, 0
2, 811320, Note_on_c, 0, 46, 57
2, 811320, Note_on_c, 0, 49, 57
2, 811320, Note_on_c, 0, 53, 57
2, 811440, Note_on_c, 0, 53, 0
2, 811440, Note_on_c, 0, 49, 0
2, 811440, Note_on_c, 0, 46, 0
2, 811440, Note_on_c, 0, 46, 44
2, 811440, Note_on_c, 0, 49, 44
2, 811440, Note_on_c, 0, 53, 44
2, 811560, Note_on_c, 0, 53, 0
2, 811560, Note_on_c, 0, 49, 0
2, 811560, Note_on_c, 0, 46, 0
2, 811560, Note_on_c, 0, 51, 44
2, 811560, Note_on_c, 0, 53, 44
2, 811560, Note_on_c, 0, 58, 44
2, 811680, Note_on_c, 0, 58, 0
2, 811680, Note_on_c, 0, 53, 0
2, 811680, Note_on_c, 0, 51, 0
2, 811680, Note_on_c, 0, 41, 44
2, 811680, Note_on_c, 0, 46, 44
2, 811680, Note_on_c, 0, 49, 44
2, 811800, Note_on_c, 0, 49, 0
2, 811800, Note_on_c, 0, 46, 0
2, 811800, Note_on_c, 0, 41, 0
2, 811800, Note_on_c, 0, 49, 44
2, 811800, Note_on_c, 0, 53, 44
2, 811800, Note_on_c, 0, 58, 44
2, 811920, Note_on_c, 0, 58, 0
2, 811920, Note_on_c, 0, 53, 0
2, 811920, Note_on_c, 0, 49, 0
2, 811920, Note_on_c, 0, 41, 44
2, 811920, Note_on_c, 0, 46, 44
2, 811920, Note_on_c, 0, 48, 44
2, 812040, Note_on_c, 0, 48, 0
2, 812040, Note_on_c, 0, 46, 0
2, 812040, Note_on_c, 0, 41, 0
2, 812040, Note_on_c, 0, 49, 44
2, 812040, Note_on_c, 0, 53, 44
2, 812040, Note_on_c, 0, 58, 44
2, 812160, Note_on_c, 0, 58, 0
2, 812160, Note_on_c, 0, 53, 0
2, 812160, Note_on_c, 0, 49, 0
2, 812160, Note_on_c, 0, 29, 44
2, 812280, Note_on_c, 0, 29, 0
2, 812280, Note_on_c, 0, 41, 44
2, 812400, Note_on_c, 0, 41, 0
2, 812400, Note_on_c, 0, 47, 44
2, 812400, Note_on_c, 0, 50, 44
2, 812520, Note_on_c, 0, 50, 0
2, 812520, Note_on_c, 0, 47, 0
2, 812520, Note_on_c, 0, 49, 44
2, 812640, Note_on_c, 0, 49, 0
2, 812640, Note_on_c, 0, 50, 44
2, 812640, Note_on_c, 0, 53, 44
2, 812760, Note_on_c, 0, 53, 0
2, 812760, Note_on_c, 0, 50, 0
2, 812760, Note_on_c, 0, 56, 44
2, 812880, Note_on_c, 0, 56, 0
2, 812880, Note_on_c, 0, 56, 57
2, 813000, Note_on_c, 0, 56, 0
2, 813000, Note_on_c, 0, 57, 57
2, 813000, Note_on_c, 0, 60, 57
2, 813000, Note_on_c, 0, 63, 57
2, 813120, Note_on_c, 0, 63, 0
2, 813120, Note_on_c, 0, 60, 0
2, 813120, Note_on_c, 0, 57, 0
2, 813120, Note_on_c, 0, 58, 57
2, 813240, Note_on_c, 0, 58, 0
2, 813240, Note_on_c, 0, 59, 57
2, 813240, Note_on_c, 0, 62, 57
2, 813240, Note_on_c, 0, 65, 57
2, 813240, Note_on_c, 0, 67, 57
2, 813360, Note_on_c, 0, 67, 0
2, 813360, Note_on_c, 0, 59, 0
2, 813360, Note_on_c, 0, 62, 0
2, 813360, Note_on_c, 0, 65, 0
2, 813360, Note_on_c, 0, 60, 57
2, 813480, Note_on_c, 0, 60, 0
2, 813480, Note_on_c, 0, 62, 57
2, 813480, Note_on_c, 0, 65, 57
2, 813480, Note_on_c, 0, 67, 57
2, 813600, Note_on_c, 0, 67, 0
2, 813600, Note_on_c, 0, 65, 0
2, 813600, Note_on_c, 0, 62, 0
2, 813600, Note_on_c, 0, 51, 57
2, 813600, Note_on_c, 0, 55, 57
2, 813600, Note_on_c, 0, 62, 57
2, 813720, Note_on_c, 0, 62, 0
2, 813720, Note_on_c, 0, 55, 0
2, 813720, Note_on_c, 0, 51, 0
2, 813720, Note_on_c, 0, 60, 57
2, 813720, Note_on_c, 0, 63, 57
2, 813720, Note_on_c, 0, 67, 57
2, 813840, Note_on_c, 0, 67, 0
2, 813840, Note_on_c, 0, 63, 0
2, 813840, Note_on_c, 0, 60, 0
2, 813840, Note_on_c, 0, 48, 57
2, 813840, Note_on_c, 0, 51, 57
2, 813840, Note_on_c, 0, 58, 57
2, 813960, Note_on_c, 0, 58, 0
2, 813960, Note_on_c, 0, 51, 0
2, 813960, Note_on_c, 0, 48, 0
2, 813960, Note_on_c, 0, 48, 57
2, 813960, Note_on_c, 0, 51, 57
2, 813960, Note_on_c, 0, 58, 57
2, 814080, Note_on_c, 0, 58, 0
2, 814080, Note_on_c, 0, 51, 0
2, 814080, Note_on_c, 0, 48, 0
2, 814080, Note_on_c, 0, 56, 57
2, 814080, Note_on_c, 0, 60, 57
2, 814080, Note_on_c, 0, 63, 57
2, 814200, Note_on_c, 0, 63, 0
2, 814200, Note_on_c, 0, 60, 0
2, 814200, Note_on_c, 0, 56, 0
2, 814200, Note_on_c, 0, 48, 57
2, 814200, Note_on_c, 0, 51, 57
2, 814200, Note_on_c, 0, 55, 57
2, 814320, Note_on_c, 0, 55, 0
2, 814320, Note_on_c, 0, 51, 0
2, 814320, Note_on_c, 0, 48, 0
2, 814320, Note_on_c, 0, 48, 44
2, 814320, Note_on_c, 0, 51, 44
2, 814320, Note_on_c, 0, 55, 44
2, 814440, Note_on_c, 0, 55, 0
2, 814440, Note_on_c, 0, 51, 0
2, 814440, Note_on_c, 0, 48, 0
2, 814440, Note_on_c, 0, 53, 44
2, 814440, Note_on_c, 0, 55, 44
2, 814440, Note_on_c, 0, 60, 44
2, 814560, Note_on_c, 0, 60, 0
2, 814560, Note_on_c, 0, 55, 0
2, 814560, Note_on_c, 0, 53, 0
2, 814560, Note_on_c, 0, 43, 44
2, 814560, Note_on_c, 0, 48, 44
2, 814560, Note_on_c, 0, 51, 44
2, 814680, Note_on_c, 0, 51, 0
2, 814680, Note_on_c, 0, 48, 0
2, 814680, Note_on_c, 0, 43, 0
2, 814680, Note_on_c, 0, 51, 44
2, 814680, Note_on_c, 0, 55, 44
2, 814680, Note_on_c, 0, 60, 44
2, 814800, Note_on_c, 0, 60, 0
2, 814800, Note_on_c, 0, 55, 0
2, 814800, Note_on_c, 0, 51, 0
2, 814800, Note_on_c, 0, 43, 44
2, 814800, Note_on_c, 0, 48, 44
2, 814800, Note_on_c, 0, 50, 44
2, 814920, Note_on_c, 0, 50, 0
2, 814920, Note_on_c, 0, 48, 0
2, 814920, Note_on_c, 0, 43, 0
2, 814920, Note_on_c, 0, 51, 44
2, 814920, Note_on_c, 0, 55, 44
2, 814920, Note_on_c, 0, 60, 44
2, 815040, Note_on_c, 0, 60, 0
2, 815040, Note_on_c, 0, 55, 0
2, 815040, Note_on_c, 0, 51, 0
2, 815040, Note_on_c, 0, 29, 44
2, 815160, Note_on_c, 0, 29, 0
2, 815160, Note_on_c, 0, 41, 44
2, 815280, Note_on_c, 0, 41, 0
2, 815280, Note_on_c, 0, 47, 44
2, 815280, Note_on_c, 0, 50, 44
2, 815400, Note_on_c, 0, 50, 0
2, 815400, Note_on_c, 0, 47, 0
2, 815400, Note_on_c, 0, 49, 44
2, 815520, Note_on_c, 0, 49, 0
2, 815520, Note_on_c, 0, 50, 44
2, 815520, Note_on_c, 0, 53, 44
2, 815640, Note_on_c, 0, 53, 0
2, 815640, Note_on_c, 0, 50, 0
2, 815640, Note_on_c, 0, 56, 44
2, 815760, Note_on_c, 0, 56, 0
2, 815760, Note_on_c, 0, 56, 57
2, 815880, Note_on_c, 0, 56, 0
2, 815880, Note_on_c, 0, 57, 57
2, 815880, Note_on_c, 0, 60, 57
2, 815880, Note_on_c, 0, 63, 57
2, 816000, Note_on_c, 0, 63, 0
2, 816000, Note_on_c, 0, 60, 0
2, 816000, Note_on_c, 0, 57, 0
2, 816000, Note_on_c, 0, 58, 57
2, 816120, Note_on_c, 0, 58, 0
2, 816120, Note_on_c, 0, 59, 57
2, 816120, Note_on_c, 0, 62, 57
2, 816120, Note_on_c, 0, 65, 57
2, 816120, Note_on_c, 0, 67, 57
2, 816240, Note_on_c, 0, 67, 0
2, 816240, Note_on_c, 0, 59, 0
2, 816240, Note_on_c, 0, 62, 0
2, 816240, Note_on_c, 0, 65, 0
2, 816240, Note_on_c, 0, 60, 57
2, 816360, Note_on_c, 0, 60, 0
2, 816360, Note_on_c, 0, 62, 57
2, 816360, Note_on_c, 0, 65, 57
2, 816360, Note_on_c, 0, 67, 57
2, 816480, Note_on_c, 0, 67, 0
2, 816480, Note_on_c, 0, 65, 0
2, 816480, Note_on_c, 0, 62, 0
2, 816480, Note_on_c, 0, 51, 57
2, 816480, Note_on_c, 0, 55, 57
2, 816480, Note_on_c, 0, 62, 57
2, 816600, Note_on_c, 0, 62, 0
2, 816600, Note_on_c, 0, 55, 0
2, 816600, Note_on_c, 0, 51, 0
2, 816600, Note_on_c, 0, 60, 57
2, 816600, Note_on_c, 0, 63, 57
2, 816600, Note_on_c, 0, 67, 57
2, 816720, Note_on_c, 0, 67, 0
2, 816720, Note_on_c, 0, 63, 0
2, 816720, Note_on_c, 0, 60, 0
2, 816720, Note_on_c, 0, 48, 57
2, 816720, Note_on_c, 0, 51, 57
2, 816720, Note_on_c, 0, 58, 57
2, 816840, Note_on_c, 0, 58, 0
2, 816840, Note_on_c, 0, 51, 0
2, 816840, Note_on_c, 0, 48, 0
2, 816840, Note_on_c, 0, 48, 57
2, 816840, Note_on_c, 0, 51, 57
2, 816840, Note_on_c, 0, 58, 57
2, 816960, Note_on_c, 0, 58, 0
2, 816960, Note_on_c, 0, 51, 0
2, 816960, Note_on_c, 0, 48, 0
2, 816960, Note_on_c, 0, 56, 57
2, 816960, Note_on_c, 0, 60, 57
2, 816960, Note_on_c, 0, 63, 57
2, 817080, Note_on_c, 0, 63, 0
2, 817080, Note_on_c, 0, 60, 0
2, 817080, Note_on_c, 0, 56, 0
2, 817080, Note_on_c, 0, 48, 57
2, 817080, Note_on_c, 0, 51, 57
2, 817080, Note_on_c, 0, 55, 57
2, 817200, Note_on_c, 0, 55, 0
2, 817200, Note_on_c, 0, 51, 0
2, 817200, Note_on_c, 0, 48, 0
2, 817200, Note_on_c, 0, 48, 44
2, 817200, Note_on_c, 0, 51, 44
2, 817200, Note_on_c, 0, 55, 44
2, 817320, Note_on_c, 0, 55, 0
2, 817320, Note_on_c, 0, 51, 0
2, 817320, Note_on_c, 0, 48, 0
2, 817320, Note_on_c, 0, 53, 44
2, 817320, Note_on_c, 0, 55, 44
2, 817320, Note_on_c, 0, 60, 44
2, 817440, Note_on_c, 0, 60, 0
2, 817440, Note_on_c, 0, 55, 0
2, 817440, Note_on_c, 0, 53, 0
2, 817440, Note_on_c, 0, 43, 44
2, 817440, Note_on_c, 0, 48, 44
2, 817440, Note_on_c, 0, 51, 44
2, 817560, Note_on_c, 0, 51, 0
2, 817560, Note_on_c, 0, 48, 0
2, 817560, Note_on_c, 0, 43, 0
2, 817560, Note_on_c, 0, 51, 44
2, 817560, Note_on_c, 0, 55, 44
2, 817560, Note_on_c, 0, 60, 44
2, 817680, Note_on_c, 0, 60, 0
2, 817680, Note_on_c, 0, 55, 0
2, 817680, Note_on_c, 0, 51, 0
2, 817680, Note_on_c, 0, 43, 44
2, 817680, Note_on_c, 0, 48, 44
2, 817680, Note_on_c, 0, 50, 44
2, 817800, Note_on_c, 0, 50, 0
2, 817800, Note_on_c, 0, 48, 0
2, 817800, Note_on_c, 0, 43, 0
2, 817800, Note_on_c, 0, 51, 44
2, 817800, Note_on_c, 0, 55, 44
2, 817800, Note_on_c, 0, 60, 44
2, 817920, Note_on_c, 0, 60, 0
2, 817920, Note_on_c, 0, 55, 0
2, 817920, Note_on_c, 0, 51, 0
2, 817920, Note_on_c, 0, 29, 57
2, 818040, Note_on_c, 0, 29, 0
2, 818040, Note_on_c, 0, 41, 57
2, 818160, Note_on_c, 0, 41, 0
2, 818160, Note_on_c, 0, 48, 57
2, 818160, Note_on_c, 0, 51, 57
2, 818160, Note_on_c, 0, 55, 57
2, 818280, Note_on_c, 0, 55, 0
2, 818280, Note_on_c, 0, 51, 0
2, 818280, Note_on_c, 0, 48, 0
2, 818280, Note_on_c, 0, 47, 57
2, 818400, Note_on_c, 0, 47, 0
2, 818400, Note_on_c, 0, 48, 57
2, 818400, Note_on_c, 0, 51, 57
2, 818400, Note_on_c, 0, 55, 57
2, 818520, Note_on_c, 0, 55, 0
2, 818520, Note_on_c, 0, 51, 0
2, 818520, Note_on_c, 0, 48, 0
2, 818520, Note_on_c, 0, 50, 57
2, 818640, Note_on_c, 0, 50, 0
2, 818640, Note_on_c, 0, 50, 70
2, 818760, Note_on_c, 0, 50, 0
2, 818760, Note_on_c, 0, 51, 70
2, 818760, Note_on_c, 0, 55, 70
2, 818760, Note_on_c, 0, 60, 70
2, 818880, Note_on_c, 0, 60, 0
2, 818880, Note_on_c, 0, 55, 0
2, 818880, Note_on_c, 0, 51, 0
2, 818880, Note_on_c, 0, 54, 70
2, 819000, Note_on_c, 0, 54, 0
2, 819000, Note_on_c, 0, 55, 70
2, 819000, Note_on_c, 0, 60, 70
2, 819000, Note_on_c, 0, 63, 70
2, 819120, Note_on_c, 0, 63, 0
2, 819120, Note_on_c, 0, 60, 0
2, 819120, Note_on_c, 0, 55, 0
2, 819120, Note_on_c, 0, 59, 70
2, 819240, Note_on_c, 0, 59, 0
2, 819240, Note_on_c, 0, 60, 70
2, 819240, Note_on_c, 0, 63, 70
2, 819240, Note_on_c, 0, 67, 70
2, 819360, Note_on_c, 0, 67, 0
2, 819360, Note_on_c, 0, 63, 0
2, 819360, Note_on_c, 0, 60, 0
2, 819360, Note_on_c, 0, 29, 57
2, 819480, Note_on_c, 0, 29, 0
2, 819480, Note_on_c, 0, 41, 57
2, 819600, Note_on_c, 0, 41, 0
2, 819600, Note_on_c, 0, 48, 57
2, 819600, Note_on_c, 0, 51, 57
2, 819600, Note_on_c, 0, 55, 57
2, 819720, Note_on_c, 0, 55, 0
2, 819720, Note_on_c, 0, 51, 0
2, 819720, Note_on_c, 0, 48, 0
2, 819720, Note_on_c, 0, 47, 57
2, 819840, Note_on_c, 0, 47, 0
2, 819840, Note_on_c, 0, 48, 57
2, 819840, Note_on_c, 0, 51, 57
2, 819840, Note_on_c, 0, 55, 57
2, 819960, Note_on_c, 0, 55, 0
2, 819960, Note_on_c, 0, 51, 0
2, 819960, Note_on_c, 0, 48, 0
2, 819960, Note_on_c, 0, 50, 57
2, 820080, Note_on_c, 0, 50, 0
2, 820080, Note_on_c, 0, 50, 70
2, 820200, Note_on_c, 0, 50, 0
2, 820200, Note_on_c, 0, 51, 70
2, 820200, Note_on_c, 0, 55, 70
2, 820200, Note_on_c, 0, 60, 70
2, 820320, Note_on_c, 0, 60, 0
2, 820320, Note_on_c, 0, 55, 0
2, 820320, Note_on_c, 0, 51, 0
2, 820320, Note_on_c, 0, 54, 70
2, 820440, Note_on_c, 0, 54, 0
2, 820440, Note_on_c, 0, 55, 70
2, 820440, Note_on_c, 0, 60, 70
2, 820440, Note_on_c, 0, 63, 70
2, 820560, Note_on_c, 0, 63, 0
2, 820560, Note_on_c, 0, 60, 0
2, 820560, Note_on_c, 0, 55, 0
2, 820560, Note_on_c, 0, 59, 70
2, 820680, Note_on_c, 0, 59, 0
2, 820680, Note_on_c, 0, 60, 70
2, 820680, Note_on_c, 0, 63, 70
2, 820680, Note_on_c, 0, 67, 70
2, 820800, Note_on_c, 0, 67, 0
2, 820800, Note_on_c, 0, 63, 0
2, 820800, Note_on_c, 0, 60, 0
2, 820800, Note_on_c, 0, 29, 70
2, 820920, Note_on_c, 0, 29, 0
2, 820920, Note_on_c, 0, 41, 70
2, 821040, Note_on_c, 0, 41, 0
2, 821040, Note_on_c, 0, 48, 70
2, 821040, Note_on_c, 0, 51, 70
2, 821040, Note_on_c, 0, 57, 70
2, 821160, Note_on_c, 0, 57, 0
2, 821160, Note_on_c, 0, 51, 0
2, 821160, Note_on_c, 0, 48, 0
2, 821160, Note_on_c, 0, 47, 70
2, 821280, Note_on_c, 0, 47, 0
2, 821280, Note_on_c, 0, 48, 70
2, 821280, Note_on_c, 0, 51, 70
2, 821280, Note_on_c, 0, 57, 70
2, 821400, Note_on_c, 0, 57, 0
2, 821400, Note_on_c, 0, 51, 0
2, 821400, Note_on_c, 0, 48, 0
2, 821400, Note_on_c, 0, 50, 70
2, 821520, Note_on_c, 0, 50, 0
2, 821520, Note_on_c, 0, 50, 70
2, 821640, Note_on_c, 0, 50, 0
2, 821640, Note_on_c, 0, 51, 70
2, 821640, Note_on_c, 0, 57, 70
2, 821640, Note_on_c, 0, 60, 70
2, 821760, Note_on_c, 0, 60, 0
2, 821760, Note_on_c, 0, 57, 0
2, 821760, Note_on_c, 0, 51, 0
2, 821760, Note_on_c, 0, 56, 70
2, 821880, Note_on_c, 0, 56, 0
2, 821880, Note_on_c, 0, 57, 70
2, 821880, Note_on_c, 0, 60, 70
2, 821880, Note_on_c, 0, 63, 70
2, 822000, Note_on_c, 0, 63, 0
2, 822000, Note_on_c, 0, 60, 0
2, 822000, Note_on_c, 0, 57, 0
2, 822000, Note_on_c, 0, 59, 70
2, 822120, Note_on_c, 0, 59, 0
2, 822120, Note_on_c, 0, 60, 70
2, 822120, Note_on_c, 0, 63, 70
2, 822120, Note_on_c, 0, 69, 70
2, 822240, Note_on_c, 0, 69, 0
2, 822240, Note_on_c, 0, 63, 0
2, 822240, Note_on_c, 0, 60, 0
2, 822240, Note_on_c, 0, 29, 70
2, 822360, Note_on_c, 0, 29, 0
2, 822360, Note_on_c, 0, 41, 70
2, 822480, Note_on_c, 0, 41, 0
2, 822480, Note_on_c, 0, 48, 70
2, 822480, Note_on_c, 0, 51, 70
2, 822480, Note_on_c, 0, 57, 70
2, 822600, Note_on_c, 0, 57, 0
2, 822600, Note_on_c, 0, 51, 0
2, 822600, Note_on_c, 0, 48, 0
2, 822600, Note_on_c, 0, 47, 70
2, 822720, Note_on_c, 0, 47, 0
2, 822720, Note_on_c, 0, 48, 70
2, 822720, Note_on_c, 0, 51, 70
2, 822720, Note_on_c, 0, 57, 70
2, 822840, Note_on_c, 0, 57, 0
2, 822840, Note_on_c, 0, 51, 0
2, 822840, Note_on_c, 0, 48, 0
2, 822840, Note_on_c, 0, 50, 70
2, 822960, Note_on_c, 0, 50, 0
2, 822960, Note_on_c, 0, 50, 70
2, 823080, Note_on_c, 0, 50, 0
2, 823080, Note_on_c, 0, 51, 70
2, 823080, Note_on_c, 0, 57, 70
2, 823080, Note_on_c, 0, 60, 70
2, 823200, Note_on_c, 0, 60, 0
2, 823200, Note_on_c, 0, 57, 0
2, 823200, Note_on_c, 0, 51, 0
2, 823200, Note_on_c, 0, 56, 70
2, 823320, Note_on_c, 0, 56, 0
2, 823320, Note_on_c, 0, 57, 70
2, 823320, Note_on_c, 0, 60, 70
2, 823320, Note_on_c, 0, 63, 70
2, 823440, Note_on_c, 0, 63, 0
2, 823440, Note_on_c, 0, 60, 0
2, 823440, Note_on_c, 0, 57, 0
2, 823440, Note_on_c, 0, 59, 70
2, 823560, Note_on_c, 0, 59, 0
2, 823560, Note_on_c, 0, 60, 70
2, 823560, Note_on_c, 0, 63, 70
2, 823560, Note_on_c, 0, 69, 70
2, 823680, Note_on_c, 0, 69, 0
2, 823680, Note_on_c, 0, 63, 0
2, 823680, Note_on_c, 0, 60, 0
2, 823920, Note_on_c, 0, 57, 70
2, 823920, Note_on_c, 0, 60, 70
2, 823920, Note_on_c, 0, 64, 70
2, 824040, Note_on_c, 0, 64, 0
2, 824040, Note_on_c, 0, 60, 0
2, 824040, Note_on_c, 0, 57, 0
2, 824040, Note_on_c, 0, 57, 70
2, 824040, Note_on_c, 0, 60, 70
2, 824040, Note_on_c, 0, 63, 70
2, 824160, Note_on_c, 0, 63, 0
2, 824160, Note_on_c, 0, 60, 0
2, 824160, Note_on_c, 0, 57, 0
2, 824160, Note_on_c, 0, 64, 70
2, 824160, Note_on_c, 0, 69, 70
2, 824160, Note_on_c, 0, 72, 70
2, 824280, Note_on_c, 0, 72, 0
2, 824280, Note_on_c, 0, 69, 0
2, 824280, Note_on_c, 0, 64, 0
2, 824280, Note_on_c, 0, 69, 70
2, 824280, Note_on_c, 0, 72, 70
2, 824280, Note_on_c, 0, 75, 70
2, 824400, Note_on_c, 0, 75, 0
2, 824400, Note_on_c, 0, 72, 0
2, 824400, Note_on_c, 0, 69, 0
2, 824400, Note_on_c, 0, 76, 70
2, 824400, Note_on_c, 0, 81, 70
2, 824400, Note_on_c, 0, 84, 70
2, 824520, Note_on_c, 0, 84, 0
2, 824520, Note_on_c, 0, 81, 0
2, 824520, Note_on_c, 0, 76, 0
2, 824520, Note_on_c, 0, 76, 70
2, 824520, Note_on_c, 0, 81, 70
2, 824520, Note_on_c, 0, 84, 70
2, 824640, Note_on_c, 0, 84, 0
2, 824640, Note_on_c, 0, 81, 0
2, 824640, Note_on_c, 0, 76, 0
2, 824640, Note_on_c, 0, 64, 70
2, 824640, Note_on_c, 0, 69, 70
2, 824640, Note_on_c, 0, 71, 70
2, 824760, Note_on_c, 0, 71, 0
2, 824760, Note_on_c, 0, 69, 0
2, 824760, Note_on_c, 0, 64, 0
2, 824760, Note_on_c, 0, 72, 70
2, 824760, Note_on_c, 0, 76, 70
2, 824760, Note_on_c, 0, 81, 70
2, 824880, Note_on_c, 0, 81, 0
2, 824880, Note_on_c, 0, 76, 0
2, 824880, Note_on_c, 0, 72, 0
2, 824880, Note_on_c, 0, 72, 70
2, 824880, Note_on_c, 0, 76, 70
2, 824880, Note_on_c, 0, 81, 70
2, 825000, Note_on_c, 0, 81, 0
2, 825000, Note_on_c, 0, 76, 0
2, 825000, Note_on_c, 0, 72, 0
2, 825000, Note_on_c, 0, 60, 70
2, 825000, Note_on_c, 0, 64, 70
2, 825000, Note_on_c, 0, 68, 70
2, 825120, Note_on_c, 0, 68, 0
2, 825120, Note_on_c, 0, 64, 0
2, 825120, Note_on_c, 0, 60, 0
2, 825120, Note_on_c, 0, 69, 70
2, 825120, Note_on_c, 0, 72, 70
2, 825120, Note_on_c, 0, 76, 70
2, 825240, Note_on_c, 0, 76, 0
2, 825240, Note_on_c, 0, 72, 0
2, 825240, Note_on_c, 0, 69, 0
2, 825360, Note_on_c, 0, 64, 70
2, 825360, Note_on_c, 0, 69, 70
2, 825360, Note_on_c, 0, 72, 70
2, 825480, Note_on_c, 0, 72, 0
2, 825480, Note_on_c, 0, 69, 0
2, 825480, Note_on_c, 0, 64, 0
2, 825600, Note_on_c, 0, 60, 70
2, 825600, Note_on_c, 0, 64, 70
2, 825600, Note_on_c, 0, 69, 70
2, 825720, Note_on_c, 0, 69, 0
2, 825720, Note_on_c, 0, 64, 0
2, 825720, Note_on_c, 0, 60, 0
2, 825840, Note_on_c, 0, 64, 70
2, 825840, Note_on_c, 0, 69, 70
2, 825840, Note_on_c, 0, 72, 70
2, 825960, Note_on_c, 0, 72, 0
2, 825960, Note_on_c, 0, 69, 0
2, 825960, Note_on_c, 0, 64, 0
2, 826080, Note_on_c, 0, 60, 70
2, 826080, Note_on_c, 0, 64, 70
2, 826080, Note_on_c, 0, 69, 70
2, 826200, Note_on_c, 0, 69, 0
2, 826200, Note_on_c, 0, 64, 0
2, 826200, Note_on_c, 0, 60, 0
2, 826800, Note_on_c, 0, 57, 70
2, 826800, Note_on_c, 0, 60, 70
2, 826800, Note_on_c, 0, 65, 70
2, 826920, Note_on_c, 0, 65, 0
2, 826920, Note_on_c, 0, 60, 0
2, 826920, Note_on_c, 0, 57, 0
2, 826920, Note_on_c, 0, 57, 70
2, 826920, Note_on_c, 0, 60, 70
2, 826920, Note_on_c, 0, 64, 70
2, 827040, Note_on_c, 0, 64, 0
2, 827040, Note_on_c, 0, 60, 0
2, 827040, Note_on_c, 0, 57, 0
2, 827040, Note_on_c, 0, 65, 70
2, 827040, Note_on_c, 0, 69, 70
2, 827040, Note_on_c, 0, 72, 70
2, 827160, Note_on_c, 0, 72, 0
2, 827160, Note_on_c, 0, 69, 0
2, 827160, Note_on_c, 0, 65, 0
2, 827160, Note_on_c, 0, 69, 70
2, 827160, Note_on_c, 0, 72, 70
2, 827160, Note_on_c, 0, 76, 70
2, 827280, Note_on_c, 0, 76, 0
2, 827280, Note_on_c, 0, 72, 0
2, 827280, Note_on_c, 0, 69, 0
2, 827280, Note_on_c, 0, 77, 70
2, 827280, Note_on_c, 0, 81, 70
2, 827280, Note_on_c, 0, 84, 70
2, 827400, Note_on_c, 0, 84, 0
2, 827400, Note_on_c, 0, 81, 0
2, 827400, Note_on_c, 0, 77, 0
2, 827400, Note_on_c, 0, 77, 70
2, 827400, Note_on_c, 0, 81, 70
2, 827400, Note_on_c, 0, 84, 70
2, 827520, Note_on_c, 0, 84, 0
2, 827520, Note_on_c, 0, 81, 0
2, 827520, Note_on_c, 0, 77, 0
2, 827520, Note_on_c, 0, 65, 70
2, 827520, Note_on_c, 0, 69, 70
2, 827520, Note_on_c, 0, 71, 70
2, 827640, Note_on_c, 0, 71, 0
2, 827640, Note_on_c, 0, 69, 0
2, 827640, Note_on_c, 0, 65, 0
2, 827640, Note_on_c, 0, 72, 70
2, 827640, Note_on_c, 0, 77, 70
2, 827640, Note_on_c, 0, 81, 70
2, 827760, Note_on_c, 0, 81, 0
2, 827760, Note_on_c, 0, 77, 0
2, 827760, Note_on_c, 0, 72, 0
2, 827760, Note_on_c, 0, 72, 70
2, 827760, Note_on_c, 0, 77, 70
2, 827760, Note_on_c, 0, 81, 70
2, 827880, Note_on_c, 0, 81, 0
2, 827880, Note_on_c, 0, 77, 0
2, 827880, Note_on_c, 0, 72, 0
2, 827880, Note_on_c, 0, 60, 70
2, 827880, Note_on_c, 0, 65, 70
2, 827880, Note_on_c, 0, 68, 70
2, 828000, Note_on_c, 0, 68, 0
2, 828000, Note_on_c, 0, 65, 0
2, 828000, Note_on_c, 0, 60, 0
2, 828000, Note_on_c, 0, 69, 70
2, 828000, Note_on_c, 0, 72, 70
2, 828000, Note_on_c, 0, 77, 70
2, 828120, Note_on_c, 0, 77, 0
2, 828120, Note_on_c, 0, 72, 0
2, 828120, Note_on_c, 0, 69, 0
2, 828120, Note_on_c, 0, 57, 70
2, 828120, Note_on_c, 0, 60, 70
2, 828120, Note_on_c, 0, 64, 70
2, 828240, Note_on_c, 0, 64, 0
2, 828240, Note_on_c, 0, 60, 0
2, 828240, Note_on_c, 0, 57, 0
2, 828240, Note_on_c, 0, 65, 70
2, 828240, Note_on_c, 0, 69, 70
2, 828240, Note_on_c, 0, 72, 70
2, 828360, Note_on_c, 0, 72, 0
2, 828360, Note_on_c, 0, 69, 0
2, 828360, Note_on_c, 0, 65, 0
2, 828480, Note_on_c, 0, 60, 70
2, 828480, Note_on_c, 0, 65, 70
2, 828480, Note_on_c, 0, 69, 70
2, 828600, Note_on_c, 0, 69, 0
2, 828600, Note_on_c, 0, 65, 0
2, 828600, Note_on_c, 0, 60, 0
2, 828720, Note_on_c, 0, 65, 70
2, 828720, Note_on_c, 0, 69, 70
2, 828720, Note_on_c, 0, 72, 70
2, 828840, Note_on_c, 0, 72, 0
2, 828840, Note_on_c, 0, 69, 0
2, 828840, Note_on_c, 0, 65, 0
2, 828960, Note_on_c, 0, 60, 70
2, 828960, Note_on_c, 0, 65, 70
2, 828960, Note_on_c, 0, 69, 70
2, 829080, Note_on_c, 0, 69, 0
2, 829080, Note_on_c, 0, 65, 0
2, 829080, Note_on_c, 0, 60, 0
2, 829200, Note_on_c, 0, 57, 70
2, 829200, Note_on_c, 0, 60, 70
2, 829200, Note_on_c, 0, 65, 70
2, 829320, Note_on_c, 0, 65, 0
2, 829320, Note_on_c, 0, 60, 0
2, 829320, Note_on_c, 0, 57, 0
2, 829320, Note_on_c, 0, 53, 70
2, 829440, Note_on_c, 0, 53, 0
2, 829560, Note_on_c, 0, 57, 70
2, 829560, Note_on_c, 0, 60, 70
2, 829560, Note_on_c, 0, 66, 70
2, 829680, Note_on_c, 0, 66, 0
2, 829680, Note_on_c, 0, 60, 0
2, 829680, Note_on_c, 0, 57, 0
2, 829800, Note_on_c, 0, 60, 70
2, 829800, Note_on_c, 0, 66, 70
2, 829800, Note_on_c, 0, 69, 70
2, 829920, Note_on_c, 0, 69, 0
2, 829920, Note_on_c, 0, 66, 0
2, 829920, Note_on_c, 0, 60, 0
2, 830040, Note_on_c, 0, 66, 70
2, 830040, Note_on_c, 0, 69, 70
2, 830040, Note_on_c, 0, 72, 70
2, 830160, Note_on_c, 0, 72, 0
2, 830160, Note_on_c, 0, 69, 0
2, 830160, Note_on_c, 0, 66, 0
2, 830280, Note_on_c, 0, 69, 70
2, 830280, Note_on_c, 0, 72, 70
2, 830280, Note_on_c, 0, 78, 70
2, 830400, Note_on_c, 0, 78, 0
2, 830400, Note_on_c, 0, 72, 0
2, 830400, Note_on_c, 0, 69, 0
2, 830400, Note_on_c, 0, 60, 70
2, 830400, Note_on_c, 0, 66, 70
2, 830400, Note_on_c, 0, 69, 70
2, 830520, Note_on_c, 0, 69, 0
2, 830520, Note_on_c, 0, 66, 0
2, 830520, Note_on_c, 0, 60, 0
2, 830520, Note_on_c, 0, 72, 70
2, 830520, Note_on_c, 0, 78, 70
2, 830520, Note_on_c, 0, 81, 70
2, 830640, Note_on_c, 0, 81, 0
2, 830640, Note_on_c, 0, 78, 0
2, 830640, Note_on_c, 0, 72, 0
2, 830640, Note_on_c, 0, 66, 70
2, 830640, Note_on_c, 0, 69, 70
2, 830640, Note_on_c, 0, 72, 70
2, 830760, Note_on_c, 0, 72, 0
2, 830760, Note_on_c, 0, 69, 0
2, 830760, Note_on_c, 0, 66, 0
2, 830760, Note_on_c, 0, 78, 70
2, 830760, Note_on_c, 0, 81, 70
2, 830760, Note_on_c, 0, 84, 70
2, 830880, Note_on_c, 0, 84, 0
2, 830880, Note_on_c, 0, 81, 0
2, 830880, Note_on_c, 0, 78, 0
2, 831000, Note_on_c, 0, 58, 70
2, 831000, Note_on_c, 0, 61, 70
2, 831000, Note_on_c, 0, 67, 70
2, 831120, Note_on_c, 0, 67, 0
2, 831120, Note_on_c, 0, 61, 0
2, 831120, Note_on_c, 0, 58, 0
2, 831240, Note_on_c, 0, 61, 70
2, 831240, Note_on_c, 0, 67, 70
2, 831240, Note_on_c, 0, 70, 70
2, 831360, Note_on_c, 0, 70, 0
2, 831360, Note_on_c, 0, 67, 0
2, 831360, Note_on_c, 0, 61, 0
2, 831480, Note_on_c, 0, 67, 70
2, 831480, Note_on_c, 0, 70, 70
2, 831480, Note_on_c, 0, 73, 70
2, 831600, Note_on_c, 0, 73, 0
2, 831600, Note_on_c, 0, 70, 0
2, 831600, Note_on_c, 0, 67, 0
2, 831600, Note_on_c, 0, 58, 70
2, 831600, Note_on_c, 0, 61, 70
2, 831600, Note_on_c, 0, 67, 70
2, 831720, Note_on_c, 0, 67, 0
2, 831720, Note_on_c, 0, 61, 0
2, 831720, Note_on_c, 0, 58, 0
2, 831720, Note_on_c, 0, 70, 70
2, 831720, Note_on_c, 0, 73, 70
2, 831720, Note_on_c, 0, 79, 70
2, 831840, Note_on_c, 0, 79, 0
2, 831840, Note_on_c, 0, 73, 0
2, 831840, Note_on_c, 0, 70, 0
2, 831840, Note_on_c, 0, 61, 70
2, 831840, Note_on_c, 0, 67, 70
2, 831840, Note_on_c, 0, 70, 70
2, 831960, Note_on_c, 0, 70, 0
2, 831960, Note_on_c, 0, 67, 0
2, 831960, Note_on_c, 0, 61, 0
2, 831960, Note_on_c, 0, 73, 70
2, 831960, Note_on_c, 0, 79, 70
2, 831960, Note_on_c, 0, 82, 70
2, 832080, Note_on_c, 0, 82, 0
2, 832080, Note_on_c, 0, 79, 0
2, 832080, Note_on_c, 0, 73, 0
2, 832080, Note_on_c, 0, 67, 70
2, 832080, Note_on_c, 0, 70, 70
2, 832080, Note_on_c, 0, 73, 70
2, 832200, Note_on_c, 0, 73, 0
2, 832200, Note_on_c, 0, 70, 0
2, 832200, Note_on_c, 0, 67, 0
2, 832200, Note_on_c, 0, 79, 70
2, 832200, Note_on_c, 0, 82, 70
2, 832200, Note_on_c, 0, 85, 70
2, 832320, Note_on_c, 0, 85, 0
2, 832320, Note_on_c, 0, 82, 0
2, 832320, Note_on_c, 0, 79, 0
2, 832440, Note_on_c, 0, 59, 70
2, 832440, Note_on_c, 0, 65, 70
2, 832440, Note_on_c, 0, 68, 70
2, 832560, Note_on_c, 0, 68, 0
2, 832560, Note_on_c, 0, 65, 0
2, 832560, Note_on_c, 0, 59, 0
2, 832680, Note_on_c, 0, 65, 70
2, 832680, Note_on_c, 0, 68, 70
2, 832680, Note_on_c, 0, 71, 70
2, 832800, Note_on_c, 0, 71, 0
2, 832800, Note_on_c, 0, 68, 0
2, 832800, Note_on_c, 0, 65, 0
2, 832920, Note_on_c, 0, 68, 70
2, 832920, Note_on_c, 0, 71, 70
2, 832920, Note_on_c, 0, 77, 70
2, 833040, Note_on_c, 0, 77, 0
2, 833040, Note_on_c, 0, 71, 0
2, 833040, Note_on_c, 0, 68, 0
2, 833040, Note_on_c, 0, 59, 70
2, 833040, Note_on_c, 0, 65, 70
2, 833040, Note_on_c, 0, 68, 70
2, 833160, Note_on_c, 0, 68, 0
2, 833160, Note_on_c, 0, 65, 0
2, 833160, Note_on_c, 0, 59, 0
2, 833160, Note_on_c, 0, 71, 70
2, 833160, Note_on_c, 0, 77, 70
2, 833160, Note_on_c, 0, 80, 70
2, 833280, Note_on_c, 0, 80, 0
2, 833280, Note_on_c, 0, 77, 0
2, 833280, Note_on_c, 0, 71, 0
2, 833280, Note_on_c, 0, 65, 70
2, 833280, Note_on_c, 0, 68, 70
2, 833280, Note_on_c, 0, 71, 70
2, 833400, Note_on_c, 0, 71, 0
2, 833400, Note_on_c, 0, 68, 0
2, 833400, Note_on_c, 0, 65, 0
2, 833400, Note_on_c, 0, 77, 70
2, 833400, Note_on_c, 0, 80, 70
2, 833400, Note_on_c, 0, 83, 70
2, 833520, Note_on_c, 0, 83, 0
2, 833520, Note_on_c, 0, 80, 0
2, 833520, Note_on_c, 0, 77, 0
2, 833520, Note_on_c, 0, 68, 70
2, 833520, Note_on_c, 0, 71, 70
2, 833520, Note_on_c, 0, 77, 70
2, 833640, Note_on_c, 0, 77, 0
2, 833640, Note_on_c, 0, 71, 0
2, 833640, Note_on_c, 0, 68, 0
2, 833640, Note_on_c, 0, 80, 70
2, 833640, Note_on_c, 0, 83, 70
2, 833640, Note_on_c, 0, 89, 70
2, 833760, Note_on_c, 0, 89, 0
2, 833760, Note_on_c, 0, 83, 0
2, 833760, Note_on_c, 0, 80, 0
2, 833880, Note_on_c, 0, 60, 70
2, 833880, Note_on_c, 0, 66, 70
2, 833880, Note_on_c, 0, 69, 70
2, 834000, Note_on_c, 0, 69, 0
2, 834000, Note_on_c, 0, 66, 0
2, 834000, Note_on_c, 0, 60, 0
2, 834120, Note_on_c, 0, 66, 70
2, 834120, Note_on_c, 0, 69, 70
2, 834120, Note_on_c, 0, 72, 70
2, 834240, Note_on_c, 0, 72, 0
2, 834240, Note_on_c, 0, 69, 0
2, 834240, Note_on_c, 0, 66, 0
2, 834360, Note_on_c, 0, 69, 70
2, 834360, Note_on_c, 0, 72, 70
2, 834360, Note_on_c, 0, 78, 70
2, 834480, Note_on_c, 0, 78, 0
2, 834480, Note_on_c, 0, 72, 0
2, 834480, Note_on_c, 0, 69, 0
2, 834480, Note_on_c, 0, 60, 70
2, 834480, Note_on_c, 0, 66, 70
2, 834480, Note_on_c, 0, 69, 70
2, 834600, Note_on_c, 0, 69, 0
2, 834600, Note_on_c, 0, 66, 0
2, 834600, Note_on_c, 0, 60, 0
2, 834600, Note_on_c, 0, 72, 70
2, 834600, Note_on_c, 0, 78, 70
2, 834600, Note_on_c, 0, 81, 70
2, 834720, Note_on_c, 0, 81, 0
2, 834720, Note_on_c, 0, 78, 0
2, 834720, Note_on_c, 0, 72, 0
2, 834720, Note_on_c, 0, 66, 70
2, 834720, Note_on_c, 0, 69, 70
2, 834720, Note_on_c, 0, 72, 70
2, 834840, Note_on_c, 0, 72, 0
2, 834840, Note_on_c, 0, 69, 0
2, 834840, Note_on_c, 0, 66, 0
2, 834840, Note_on_c, 0, 78, 70
2, 834840, Note_on_c, 0, 81, 70
2, 834840, Note_on_c, 0, 84, 70
2, 834960, Note_on_c, 0, 84, 0
2, 834960, Note_on_c, 0, 81, 0
2, 834960, Note_on_c, 0, 78, 0
2, 834960, Note_on_c, 0, 69, 70
2, 834960, Note_on_c, 0, 72, 70
2, 834960, Note_on_c, 0, 78, 70
2, 835080, Note_on_c, 0, 78, 0
2, 835080, Note_on_c, 0, 72, 0
2, 835080, Note_on_c, 0, 69, 0
2, 835080, Note_on_c, 0, 81, 70
2, 835080, Note_on_c, 0, 84, 70
2, 835080, Note_on_c, 0, 90, 70
2, 835200, Note_on_c, 0, 90, 0
2, 835200, Note_on_c, 0, 84, 0
2, 835200, Note_on_c, 0, 81, 0
2, 835200, Note_on_c, 0, 72, 70
2, 835200, Note_on_c, 0, 78, 70
2, 835200, Note_on_c, 0, 81, 70
2, 835320, Note_on_c, 0, 81, 0
2, 835320, Note_on_c, 0, 78, 0
2, 835320, Note_on_c, 0, 72, 0
2, 835320, Note_on_c, 0, 84, 70
2, 835320, Note_on_c, 0, 90, 70
2, 835320, Note_on_c, 0, 93, 70
2, 835440, Note_on_c, 0, 93, 0
2, 835440, Note_on_c, 0, 90, 0
2, 835440, Note_on_c, 0, 84, 0
2, 835440, Note_on_c, 0, 69, 70
2, 835440, Note_on_c, 0, 72, 70
2, 835440, Note_on_c, 0, 78, 70
2, 835560, Note_on_c, 0, 78, 0
2, 835560, Note_on_c, 0, 72, 0
2, 835560, Note_on_c, 0, 69, 0
2, 835560, Note_on_c, 0, 81, 70
2, 835560, Note_on_c, 0, 84, 70
2, 835560, Note_on_c, 0, 90, 70
2, 835680, Note_on_c, 0, 90, 0
2, 835680, Note_on_c, 0, 84, 0
2, 835680, Note_on_c, 0, 81, 0
2, 835680, Note_on_c, 0, 72, 70
2, 835680, Note_on_c, 0, 78, 70
2, 835680, Note_on_c, 0, 81, 70
2, 835800, Note_on_c, 0, 81, 0
2, 835800, Note_on_c, 0, 78, 0
2, 835800, Note_on_c, 0, 72, 0
2, 835800, Note_on_c, 0, 84, 70
2, 835800, Note_on_c, 0, 90, 70
2, 835800, Note_on_c, 0, 93, 70
2, 835920, Note_on_c, 0, 93, 0
2, 835920, Note_on_c, 0, 90, 0
2, 835920, Note_on_c, 0, 84, 0
2, 835920, Note_on_c, 0, 78, 70
2, 835920, Note_on_c, 0, 81, 70
2, 835920, Note_on_c, 0, 84, 70
2, 836040, Note_on_c, 0, 84, 0
2, 836040, Note_on_c, 0, 81, 0
2, 836040, Note_on_c, 0, 78, 0
2, 836040, Note_on_c, 0, 90, 70
2, 836040, Note_on_c, 0, 93, 70
2, 836040, Note_on_c, 0, 96, 70
2, 836160, Note_on_c, 0, 96, 0
2, 836160, Note_on_c, 0, 93, 0
2, 836160, Note_on_c, 0, 90, 0
2, 836160, Note_on_c, 0, 72, 70
2, 836160, Note_on_c, 0, 78, 70
2, 836160, Note_on_c, 0, 81, 70
2, 836280, Note_on_c, 0, 81, 0
2, 836280, Note_on_c, 0, 78, 0
2, 836280, Note_on_c, 0, 72, 0
2, 836280, Note_on_c, 0, 84, 70
2, 836280, Note_on_c, 0, 90, 70
2, 836280, Note_on_c, 0, 93, 70
2, 836400, Note_on_c, 0, 93, 0
2, 836400, Note_on_c, 0, 90, 0
2, 836400, Note_on_c, 0, 84, 0
2, 836400, Note_on_c, 0, 78, 70
2, 836400, Note_on_c, 0, 81, 70
2, 836400, Note_on_c, 0, 84, 70
2, 836520, Note_on_c, 0, 84, 0
2, 836520, Note_on_c, 0, 81, 0
2, 836520, Note_on_c, 0, 78, 0
2, 836520, Note_on_c, 0, 90, 70
2, 836520, Note_on_c, 0, 93, 70
2, 836520, Note_on_c, 0, 96, 70
2, 836640, Note_on_c, 0, 96, 0
2, 836640, Note_on_c, 0, 93, 0
2, 836640, Note_on_c, 0, 90, 0
2, 836640, Note_on_c, 0, 81, 70
2, 836640, Note_on_c, 0, 84, 70
2, 836640, Note_on_c, 0, 90, 70
2, 836760, Note_on_c, 0, 90, 0
2, 836760, Note_on_c, 0, 84, 0
2, 836760, Note_on_c, 0, 81, 0
2, 836760, Note_on_c, 0, 93, 70
2, 836760, Note_on_c, 0, 96, 70
2, 836760, Note_on_c, 0, 102, 70
2, 836880, Note_on_c, 0, 102, 0
2, 836880, Note_on_c, 0, 96, 0
2, 836880, Note_on_c, 0, 93, 0
2, 836880, Note_on_c, 0, 78, 70
2, 836880, Note_on_c, 0, 81, 70
2, 836880, Note_on_c, 0, 84, 70
2, 837000, Note_on_c, 0, 84, 0
2, 837000, Note_on_c, 0, 81, 0
2, 837000, Note_on_c, 0, 78, 0
2, 837000, Note_on_c, 0, 90, 70
2, 837000, Note_on_c, 0, 93, 70
2, 837000, Note_on_c, 0, 96, 70
2, 837120, Note_on_c, 0, 96, 0
2, 837120, Note_on_c, 0, 93, 0
2, 837120, Note_on_c, 0, 90, 0
2, 837120, Note_on_c, 0, 81, 70
2, 837120, Note_on_c, 0, 84, 70
2, 837120, Note_on_c, 0, 90, 70
2, 837240, Note_on_c, 0, 90, 0
2, 837240, Note_on_c, 0, 84, 0
2, 837240, Note_on_c, 0, 81, 0
2, 837240, Note_on_c, 0, 93, 70
2, 837240, Note_on_c, 0, 96, 70
2, 837240, Note_on_c, 0, 102, 70
2, 837360, Note_on_c, 0, 102, 0
2, 837360, Note_on_c, 0, 96, 0
2, 837360, Note_on_c, 0, 93, 0
2, 837360, Note_on_c, 0, 84, 70
2, 837360, Note_on_c, 0, 90, 70
2, 837360, Note_on_c, 0, 93, 70
2, 837480, Note_on_c, 0, 93, 0
2, 837480, Note_on_c, 0, 90, 0
2, 837480, Note_on_c, 0, 84, 0
2, 837480, Note_on_c, 0, 96, 70
2, 837480, Note_on_c, 0, 102, 70
2, 837480, Note_on_c, 0, 105, 70
2, 837600, Note_on_c, 0, 105, 0
2, 837600, Note_on_c, 0, 102, 0
2, 837600, Note_on_c, 0, 96, 0
2, 837600, Note_on_c, 0, 81, 70
2, 837600, Note_on_c, 0, 84, 70
2, 837600, Note_on_c, 0, 90, 70
2, 837720, Note_on_c, 0, 90, 0
2, 837720, Note_on_c, 0, 84, 0
2, 837720, Note_on_c, 0, 81, 0
2, 837720, Note_on_c, 0, 93, 70
2, 837720, Note_on_c, 0, 96, 70
2, 837720, Note_on_c, 0, 102, 70
2, 837840, Note_on_c, 0, 102, 0
2, 837840, Note_on_c, 0, 96, 0
2, 837840, Note_on_c, 0, 93, 0
2, 837840, Note_on_c, 0, 84, 70
2, 837840, Note_on_c, 0, 90, 70
2, 837840, Note_on_c, 0, 93, 70
2, 837960, Note_on_c, 0, 93, 0
2, 837960, Note_on_c, 0, 90, 0
2, 837960, Note_on_c, 0, 84, 0
2, 837960, Note_on_c, 0, 96, 70
2, 837960, Note_on_c, 0, 102, 70
2, 837960, Note_on_c, 0, 105, 70
2, 838080, Note_on_c, 0, 105, 0
2, 838080, Note_on_c, 0, 102, 0
2, 838080, Note_on_c, 0, 96, 0
2, 838080, Note_on_c, 0, 81, 70
2, 838080, Note_on_c, 0, 84, 70
2, 838080, Note_on_c, 0, 91, 70
2, 838200, Note_on_c, 0, 91, 0
2, 838200, Note_on_c, 0, 84, 0
2, 838200, Note_on_c, 0, 81, 0
2, 838200, Note_on_c, 0, 93, 70
2, 838200, Note_on_c, 0, 96, 70
2, 838200, Note_on_c, 0, 103, 70
2, 838320, Note_on_c, 0, 103, 0
2, 838320, Note_on_c, 0, 96, 0
2, 838320, Note_on_c, 0, 93, 0
2, 838320, Note_on_c, 0, 75, 96
2, 838440, Note_on_c, 0, 75, 0
2, 838440, Note_on_c, 0, 81, 70
2, 838440, Note_on_c, 0, 84, 70
2, 838440, Note_on_c, 0, 91, 70
2, 838560, Note_on_c, 0, 91, 0
2, 838560, Note_on_c, 0, 84, 0
2, 838560, Note_on_c, 0, 81, 0
2, 838560, Note_on_c, 0, 81, 70
2, 838560, Note_on_c, 0, 84, 70
2, 838560, Note_on_c, 0, 91, 70
2, 838680, Note_on_c, 0, 91, 0
2, 838680, Note_on_c, 0, 84, 0
2, 838680, Note_on_c, 0, 81, 0
2, 838680, Note_on_c, 0, 93, 70
2, 838680, Note_on_c, 0, 96, 70
2, 838680, Note_on_c, 0, 103, 70
2, 838800, Note_on_c, 0, 103, 0
2, 838800, Note_on_c, 0, 96, 0
2, 838800, Note_on_c, 0, 93, 0
2, 838800, Note_on_c, 0, 81, 70
2, 838800, Note_on_c, 0, 84, 70
2, 838800, Note_on_c, 0, 90, 70
2, 838920, Note_on_c, 0, 90, 0
2, 838920, Note_on_c, 0, 84, 0
2, 838920, Note_on_c, 0, 81, 0
2, 838920, Note_on_c, 0, 93, 70
2, 838920, Note_on_c, 0, 96, 70
2, 838920, Note_on_c, 0, 102, 70
2, 839040, Note_on_c, 0, 102, 0
2, 839040, Note_on_c, 0, 96, 0
2, 839040, Note_on_c, 0, 93, 0
2, 839040, Note_on_c, 0, 78, 70
2, 839040, Note_on_c, 0, 81, 70
2, 839040, Note_on_c, 0, 85, 70
2, 839160, Note_on_c, 0, 85, 0
2, 839160, Note_on_c, 0, 81, 0
2, 839160, Note_on_c, 0, 78, 0
2, 839160, Note_on_c, 0, 86, 70
2, 839160, Note_on_c, 0, 90, 70
2, 839160, Note_on_c, 0, 93, 70
2, 839160, Note_on_c, 0, 98, 70
2, 839280, Note_on_c, 0, 98, 0
2, 839280, Note_on_c, 0, 86, 0
2, 839280, Note_on_c, 0, 90, 0
2, 839280, Note_on_c, 0, 93, 0
2, 839280, Note_on_c, 0, 74, 70
2, 839280, Note_on_c, 0, 78, 70
2, 839280, Note_on_c, 0, 80, 70
2, 839400, Note_on_c, 0, 80, 0
2, 839400, Note_on_c, 0, 78, 0
2, 839400, Note_on_c, 0, 74, 0
2, 839400, Note_on_c, 0, 81, 70
2, 839400, Note_on_c, 0, 86, 70
2, 839400, Note_on_c, 0, 90, 70
2, 839400, Note_on_c, 0, 93, 70
2, 839520, Note_on_c, 0, 93, 0
2, 839520, Note_on_c, 0, 81, 0
2, 839520, Note_on_c, 0, 86, 0
2, 839520, Note_on_c, 0, 90, 0
2, 839520, Note_on_c, 0, 74, 70
2, 839520, Note_on_c, 0, 78, 70
2, 839520, Note_on_c, 0, 80, 70
2, 839640, Note_on_c, 0, 80, 0
2, 839640, Note_on_c, 0, 78, 0
2, 839640, Note_on_c, 0, 74, 0
2, 839640, Note_on_c, 0, 81, 70
2, 839640, Note_on_c, 0, 86, 70
2, 839640, Note_on_c, 0, 90, 70
2, 839640, Note_on_c, 0, 93, 70
2, 839760, Note_on_c, 0, 93, 0
2, 839760, Note_on_c, 0, 81, 0
2, 839760, Note_on_c, 0, 86, 0
2, 839760, Note_on_c, 0, 90, 0
2, 839760, Note_on_c, 0, 69, 70
2, 839760, Note_on_c, 0, 74, 70
2, 839760, Note_on_c, 0, 77, 70
2, 839880, Note_on_c, 0, 77, 0
2, 839880, Note_on_c, 0, 74, 0
2, 839880, Note_on_c, 0, 69, 0
2, 839880, Note_on_c, 0, 78, 70
2, 839880, Note_on_c, 0, 81, 70
2, 839880, Note_on_c, 0, 86, 70
2, 839880, Note_on_c, 0, 90, 70
2, 840000, Note_on_c, 0, 90, 0
2, 840000, Note_on_c, 0, 78, 0
2, 840000, Note_on_c, 0, 81, 0
2, 840000, Note_on_c, 0, 86, 0
2, 840000, Note_on_c, 0, 66, 70
2, 840000, Note_on_c, 0, 69, 70
2, 840000, Note_on_c, 0, 73, 70
2, 840120, Note_on_c, 0, 73, 0
2, 840120, Note_on_c, 0, 69, 0
2, 840120, Note_on_c, 0, 66, 0
2, 840120, Note_on_c, 0, 74, 70
2, 840120, Note_on_c, 0, 78, 70
2, 840120, Note_on_c, 0, 81, 70
2, 840120, Note_on_c, 0, 86, 70
2, 840240, Note_on_c, 0, 86, 0
2, 840240, Note_on_c, 0, 74, 0
2, 840240, Note_on_c, 0, 78, 0
2, 840240, Note_on_c, 0, 81, 0
2, 840240, Note_on_c, 0, 69, 70
2, 840240, Note_on_c, 0, 74, 70
2, 840240, Note_on_c, 0, 77, 70
2, 840360, Note_on_c, 0, 77, 0
2, 840360, Note_on_c, 0, 74, 0
2, 840360, Note_on_c, 0, 69, 0
2, 840360, Note_on_c, 0, 78, 70
2, 840360, Note_on_c, 0, 81, 70
2, 840360, Note_on_c, 0, 86, 70
2, 840360, Note_on_c, 0, 90, 70
2, 840480, Note_on_c, 0, 90, 0
2, 840480, Note_on_c, 0, 78, 0
2, 840480, Note_on_c, 0, 81, 0
2, 840480, Note_on_c, 0, 86, 0
2, 840480, Note_on_c, 0, 66, 70
2, 840480, Note_on_c, 0, 69, 70
2, 840480, Note_on_c, 0, 73, 70
2, 840600, Note_on_c, 0, 73, 0
2, 840600, Note_on_c, 0, 69, 0
2, 840600, Note_on_c, 0, 66, 0
2, 840600, Note_on_c, 0, 74, 70
2, 840600, Note_on_c, 0, 78, 70
2, 840600, Note_on_c, 0, 81, 70
2, 840600, Note_on_c, 0, 86, 70
2, 840720, Note_on_c, 0, 86, 0
2, 840720, Note_on_c, 0, 74, 0
2, 840720, Note_on_c, 0, 78, 0
2, 840720, Note_on_c, 0, 81, 0
2, 840720, Note_on_c, 0, 62, 70
2, 840720, Note_on_c, 0, 66, 70
2, 840720, Note_on_c, 0, 68, 70
2, 840840, Note_on_c, 0, 68, 0
2, 840840, Note_on_c, 0, 66, 0
2, 840840, Note_on_c, 0, 62, 0
2, 840840, Note_on_c, 0, 69, 70
2, 840840, Note_on_c, 0, 74, 70
2, 840840, Note_on_c, 0, 78, 70
2, 840840, Note_on_c, 0, 81, 70
2, 840960, Note_on_c, 0, 81, 0
2, 840960, Note_on_c, 0, 69, 0
2, 840960, Note_on_c, 0, 74, 0
2, 840960, Note_on_c, 0, 78, 0
2, 840960, Note_on_c, 0, 69, 70
2, 840960, Note_on_c, 0, 72, 70
2, 840960, Note_on_c, 0, 79, 70
2, 841080, Note_on_c, 0, 79, 0
2, 841080, Note_on_c, 0, 72, 0
2, 841080, Note_on_c, 0, 69, 0
2, 841080, Note_on_c, 0, 81, 70
2, 841080, Note_on_c, 0, 84, 70
2, 841080, Note_on_c, 0, 91, 70
2, 841200, Note_on_c, 0, 91, 0
2, 841200, Note_on_c, 0, 84, 0
2, 841200, Note_on_c, 0, 81, 0
2, 841200, Note_on_c, 0, 63, 96
2, 841320, Note_on_c, 0, 63, 0
2, 841320, Note_on_c, 0, 69, 70
2, 841320, Note_on_c, 0, 72, 70
2, 841320, Note_on_c, 0, 79, 70
2, 841440, Note_on_c, 0, 79, 0
2, 841440, Note_on_c, 0, 72, 0
2, 841440, Note_on_c, 0, 69, 0
2, 841440, Note_on_c, 0, 69, 70
2, 841440, Note_on_c, 0, 72, 70
2, 841440, Note_on_c, 0, 79, 70
2, 841560, Note_on_c, 0, 79, 0
2, 841560, Note_on_c, 0, 72, 0
2, 841560, Note_on_c, 0, 69, 0
2, 841560, Note_on_c, 0, 81, 70
2, 841560, Note_on_c, 0, 84, 70
2, 841560, Note_on_c, 0, 91, 70
2, 841680, Note_on_c, 0, 91, 0
2, 841680, Note_on_c, 0, 84, 0
2, 841680, Note_on_c, 0, 81, 0
2, 841680, Note_on_c, 0, 69, 70
2, 841680, Note_on_c, 0, 72, 70
2, 841680, Note_on_c, 0, 78, 70
2, 841800, Note_on_c, 0, 78, 0
2, 841800, Note_on_c, 0, 72, 0
2, 841800, Note_on_c, 0, 69, 0
2, 841800, Note_on_c, 0, 81, 70
2, 841800, Note_on_c, 0, 84, 70
2, 841800, Note_on_c, 0, 90, 70
2, 841920, Note_on_c, 0, 90, 0
2, 841920, Note_on_c, 0, 84, 0
2, 841920, Note_on_c, 0, 81, 0
2, 841920, Note_on_c, 0, 66, 70
2, 841920, Note_on_c, 0, 69, 70
2, 841920, Note_on_c, 0, 73, 70
2, 842040, Note_on_c, 0, 73, 0
2, 842040, Note_on_c, 0, 69, 0
2, 842040, Note_on_c, 0, 66, 0
2, 842040, Note_on_c, 0, 74, 70
2, 842040, Note_on_c, 0, 78, 70
2, 842040, Note_on_c, 0, 81, 70
2, 842040, Note_on_c, 0, 86, 70
2, 842160, Note_on_c, 0, 86, 0
2, 842160, Note_on_c, 0, 74, 0
2, 842160, Note_on_c, 0, 78, 0
2, 842160, Note_on_c, 0, 81, 0
2, 842160, Note_on_c, 0, 62, 70
2, 842160, Note_on_c, 0, 66, 70
2, 842160, Note_on_c, 0, 68, 70
2, 842280, Note_on_c, 0, 68, 0
2, 842280, Note_on_c, 0, 66, 0
2, 842280, Note_on_c, 0, 62, 0
2, 842280, Note_on_c, 0, 69, 70
2, 842280, Note_on_c, 0, 74, 70
2, 842280, Note_on_c, 0, 78, 70
2, 842280, Note_on_c, 0, 81, 70
2, 842400, Note_on_c, 0, 81, 0
2, 842400, Note_on_c, 0, 69, 0
2, 842400, Note_on_c, 0, 74, 0
2, 842400, Note_on_c, 0, 78, 0
2, 842400, Note_on_c, 0, 62, 70
2, 842400, Note_on_c, 0, 66, 70
2, 842400, Note_on_c, 0, 68, 70
2, 842520, Note_on_c, 0, 68, 0
2, 842520, Note_on_c, 0, 66, 0
2, 842520, Note_on_c, 0, 62, 0
2, 842520, Note_on_c, 0, 69, 70
2, 842520, Note_on_c, 0, 74, 70
2, 842520, Note_on_c, 0, 78, 70
2, 842520, Note_on_c, 0, 81, 70
2, 842640, Note_on_c, 0, 81, 0
2, 842640, Note_on_c, 0, 69, 0
2, 842640, Note_on_c, 0, 74, 0
2, 842640, Note_on_c, 0, 78, 0
2, 842640, Note_on_c, 0, 57, 70
2, 842640, Note_on_c, 0, 62, 70
2, 842640, Note_on_c, 0, 65, 70
2, 842760, Note_on_c, 0, 65, 0
2, 842760, Note_on_c, 0, 62, 0
2, 842760, Note_on_c, 0, 57, 0
2, 842760, Note_on_c, 0, 66, 70
2, 842760, Note_on_c, 0, 69, 70
2, 842760, Note_on_c, 0, 74, 70
2, 842760, Note_on_c, 0, 78, 70
2, 842880, Note_on_c, 0, 78, 0
2, 842880, Note_on_c, 0, 66, 0
2, 842880, Note_on_c, 0, 69, 0
2, 842880, Note_on_c, 0, 74, 0
2, 843000, Note_on_c, 0, 62, 70
2, 843000, Note_on_c, 0, 66, 70
2, 843000, Note_on_c, 0, 69, 70
2, 843000, Note_on_c, 0, 74, 70
2, 843120, Note_on_c, 0, 74, 0
2, 843120, Note_on_c, 0, 62, 0
2, 843120, Note_on_c, 0, 66, 0
2, 843120, Note_on_c, 0, 69, 0
2, 843240, Note_on_c, 0, 66, 70
2, 843240, Note_on_c, 0, 69, 70
2, 843240, Note_on_c, 0, 74, 70
2, 843240, Note_on_c, 0, 78, 70
2, 843360, Note_on_c, 0, 78, 0
2, 843360, Note_on_c, 0, 66, 0
2, 843360, Note_on_c, 0, 69, 0
2, 843360, Note_on_c, 0, 74, 0
2, 843480, Note_on_c, 0, 62, 70
2, 843480, Note_on_c, 0, 66, 70
2, 843480, Note_on_c, 0, 69, 70
2, 843480, Note_on_c, 0, 74, 70
2, 843600, Note_on_c, 0, 74, 0
2, 843600, Note_on_c, 0, 62, 0
2, 843600, Note_on_c, 0, 66, 0
2, 843600, Note_on_c, 0, 69, 0
2, 843720, Note_on_c, 0, 57, 70
2, 843720, Note_on_c, 0, 62, 70
2, 843720, Note_on_c, 0, 66, 70
2, 843720, Note_on_c, 0, 69, 70
2, 843840, Note_on_c, 0, 69, 0
2, 843840, Note_on_c, 0, 57, 0
2, 843840, Note_on_c, 0, 62, 0
2, 843840, Note_on_c, 0, 66, 0
2, 843960, Note_on_c, 0, 69, 70
2, 843960, Note_on_c, 0, 72, 70
2, 843960, Note_on_c, 0, 79, 70
2, 844080, Note_on_c, 0, 79, 0
2, 844080, Note_on_c, 0, 72, 0
2, 844080, Note_on_c, 0, 69, 0
2, 844200, Note_on_c, 0, 57, 70
2, 844200, Note_on_c, 0, 60, 70
2, 844200, Note_on_c, 0, 67, 70
2, 844320, Note_on_c, 0, 67, 0
2, 844320, Note_on_c, 0, 60, 0
2, 844320, Note_on_c, 0, 57, 0
2, 844320, Note_on_c, 0, 57, 70
2, 844320, Note_on_c, 0, 60, 70
2, 844320, Note_on_c, 0, 67, 70
2, 844440, Note_on_c, 0, 67, 0
2, 844440, Note_on_c, 0, 60, 0
2, 844440, Note_on_c, 0, 57, 0
2, 844440, Note_on_c, 0, 69, 70
2, 844440, Note_on_c, 0, 72, 70
2, 844440, Note_on_c, 0, 79, 70
2, 844560, Note_on_c, 0, 79, 0
2, 844560, Note_on_c, 0, 72, 0
2, 844560, Note_on_c, 0, 69, 0
2, 844560, Note_on_c, 0, 57, 70
2, 844560, Note_on_c, 0, 60, 70
2, 844560, Note_on_c, 0, 66, 70
2, 844680, Note_on_c, 0, 66, 0
2, 844680, Note_on_c, 0, 60, 0
2, 844680, Note_on_c, 0, 57, 0
2, 844680, Note_on_c, 0, 69, 70
2, 844680, Note_on_c, 0, 72, 70
2, 844680, Note_on_c, 0, 78, 70
2, 844800, Note_on_c, 0, 78, 0
2, 844800, Note_on_c, 0, 72, 0
2, 844800, Note_on_c, 0, 69, 0
2, 844920, Note_on_c, 0, 62, 70
2, 844920, Note_on_c, 0, 66, 70
2, 844920, Note_on_c, 0, 69, 70
2, 844920, Note_on_c, 0, 74, 70
2, 845040, Note_on_c, 0, 74, 0
2, 845040, Note_on_c, 0, 62, 0
2, 845040, Note_on_c, 0, 66, 0
2, 845040, Note_on_c, 0, 69, 0
2, 845160, Note_on_c, 0, 57, 70
2, 845160, Note_on_c, 0, 62, 70
2, 845160, Note_on_c, 0, 66, 70
2, 845160, Note_on_c, 0, 69, 70
2, 845280, Note_on_c, 0, 69, 0
2, 845280, Note_on_c, 0, 57, 0
2, 845280, Note_on_c, 0, 62, 0
2, 845280, Note_on_c, 0, 66, 0
2, 845400, Note_on_c, 0, 57, 70
2, 845400, Note_on_c, 0, 60, 70
2, 845400, Note_on_c, 0, 67, 70
2, 845520, Note_on_c, 0, 67, 0
2, 845520, Note_on_c, 0, 60, 0
2, 845520, Note_on_c, 0, 57, 0
2, 851880, Note_on_c, 0, 62, 70
2, 851880, Note_on_c, 0, 66, 70
2, 851880, Note_on_c, 0, 69, 70
2, 852000, Note_on_c, 0, 69, 0
2, 852000, Note_on_c, 0, 66, 0
2, 852000, Note_on_c, 0, 62, 0
2, 852120, Note_on_c, 0, 57, 70
2, 852120, Note_on_c, 0, 62, 70
2, 852120, Note_on_c, 0, 66, 70
2, 852240, Note_on_c, 0, 66, 0
2, 852240, Note_on_c, 0, 62, 0
2, 852240, Note_on_c, 0, 57, 0
2, 852360, Note_on_c, 0, 62, 70
2, 852360, Note_on_c, 0, 66, 70
2, 852360, Note_on_c, 0, 69, 70
2, 852480, Note_on_c, 0, 69, 0
2, 852480, Note_on_c, 0, 66, 0
2, 852480, Note_on_c, 0, 62, 0
2, 852600, Note_on_c, 0, 57, 70
2, 852600, Note_on_c, 0, 62, 70
2, 852600, Note_on_c, 0, 66, 70
2, 852720, Note_on_c, 0, 66, 0
2, 852720, Note_on_c, 0, 62, 0
2, 852720, Note_on_c, 0, 57, 0
2, 852840, Note_on_c, 0, 62, 70
2, 852840, Note_on_c, 0, 66, 70
2, 852840, Note_on_c, 0, 69, 70
2, 852960, Note_on_c, 0, 69, 0
2, 852960, Note_on_c, 0, 66, 0
2, 852960, Note_on_c, 0, 62, 0
2, 852960, Note_on_c, 0, 57, 70
2, 852960, Note_on_c, 0, 62, 70
2, 852960, Note_on_c, 0, 65, 70
2, 853080, Note_on_c, 0, 65, 0
2, 853080, Note_on_c, 0, 62, 0
2, 853080, Note_on_c, 0, 57, 0
2, 853080, Note_on_c, 0, 66, 70
2, 853080, Note_on_c, 0, 69, 70
2, 853080, Note_on_c, 0, 74, 70
2, 853200, Note_on_c, 0, 74, 0
2, 853200, Note_on_c, 0, 69, 0
2, 853200, Note_on_c, 0, 66, 0
2, 853200, Note_on_c, 0, 57, 70
2, 853200, Note_on_c, 0, 62, 70
2, 853200, Note_on_c, 0, 65, 70
2, 853320, Note_on_c, 0, 65, 0
2, 853320, Note_on_c, 0, 62, 0
2, 853320, Note_on_c, 0, 57, 0
2, 853320, Note_on_c, 0, 66, 70
2, 853320, Note_on_c, 0, 69, 70
2, 853320, Note_on_c, 0, 74, 70
2, 853440, Note_on_c, 0, 74, 0
2, 853440, Note_on_c, 0, 69, 0
2, 853440, Note_on_c, 0, 66, 0
2, 853440, Note_on_c, 0, 54, 70
2, 853440, Note_on_c, 0, 57, 70
2, 853440, Note_on_c, 0, 61, 70
2, 853560, Note_on_c, 0, 61, 0
2, 853560, Note_on_c, 0, 57, 0
2, 853560, Note_on_c, 0, 54, 0
2, 853560, Note_on_c, 0, 62, 70
2, 853560, Note_on_c, 0, 66, 70
2, 853560, Note_on_c, 0, 69, 70
2, 853680, Note_on_c, 0, 69, 0
2, 853680, Note_on_c, 0, 66, 0
2, 853680, Note_on_c, 0, 62, 0
2, 853680, Note_on_c, 0, 57, 70
2, 853680, Note_on_c, 0, 62, 70
2, 853680, Note_on_c, 0, 65, 70
2, 853800, Note_on_c, 0, 65, 0
2, 853800, Note_on_c, 0, 62, 0
2, 853800, Note_on_c, 0, 57, 0
2, 853800, Note_on_c, 0, 66, 70
2, 853800, Note_on_c, 0, 69, 70
2, 853800, Note_on_c, 0, 74, 70
2, 853920, Note_on_c, 0, 74, 0
2, 853920, Note_on_c, 0, 69, 0
2, 853920, Note_on_c, 0, 66, 0
2, 853920, Note_on_c, 0, 62, 70
2, 853920, Note_on_c, 0, 66, 70
2, 853920, Note_on_c, 0, 68, 70
2, 854040, Note_on_c, 0, 68, 0
2, 854040, Note_on_c, 0, 66, 0
2, 854040, Note_on_c, 0, 62, 0
2, 854040, Note_on_c, 0, 69, 70
2, 854040, Note_on_c, 0, 74, 70
2, 854040, Note_on_c, 0, 78, 70
2, 854160, Note_on_c, 0, 78, 0
2, 854160, Note_on_c, 0, 74, 0
2, 854160, Note_on_c, 0, 69, 0
2, 854160, Note_on_c, 0, 57, 70
2, 854160, Note_on_c, 0, 62, 70
2, 854160, Note_on_c, 0, 65, 70
2, 854280, Note_on_c, 0, 65, 0
2, 854280, Note_on_c, 0, 62, 0
2, 854280, Note_on_c, 0, 57, 0
2, 854280, Note_on_c, 0, 66, 70
2, 854280, Note_on_c, 0, 69, 70
2, 854280, Note_on_c, 0, 74, 70
2, 854400, Note_on_c, 0, 74, 0
2, 854400, Note_on_c, 0, 69, 0
2, 854400, Note_on_c, 0, 66, 0
2, 854400, Note_on_c, 0, 62, 70
2, 854400, Note_on_c, 0, 66, 70
2, 854400, Note_on_c, 0, 68, 70
2, 854520, Note_on_c, 0, 68, 0
2, 854520, Note_on_c, 0, 66, 0
2, 854520, Note_on_c, 0, 62, 0
2, 854520, Note_on_c, 0, 69, 70
2, 854520, Note_on_c, 0, 74, 70
2, 854520, Note_on_c, 0, 78, 70
2, 854640, Note_on_c, 0, 78, 0
2, 854640, Note_on_c, 0, 74, 0
2, 854640, Note_on_c, 0, 69, 0
2, 854640, Note_on_c, 0, 66, 70
2, 854640, Note_on_c, 0, 69, 70
2, 854640, Note_on_c, 0, 73, 70
2, 854760, Note_on_c, 0, 73, 0
2, 854760, Note_on_c, 0, 69, 0
2, 854760, Note_on_c, 0, 66, 0
2, 854760, Note_on_c, 0, 74, 70
2, 854760, Note_on_c, 0, 78, 70
2, 854760, Note_on_c, 0, 81, 70
2, 854880, Note_on_c, 0, 81, 0
2, 854880, Note_on_c, 0, 78, 0
2, 854880, Note_on_c, 0, 74, 0
2, 854880, Note_on_c, 0, 62, 70
2, 854880, Note_on_c, 0, 66, 70
2, 854880, Note_on_c, 0, 68, 70
2, 855000, Note_on_c, 0, 68, 0
2, 855000, Note_on_c, 0, 66, 0
2, 855000, Note_on_c, 0, 62, 0
2, 855000, Note_on_c, 0, 69, 70
2, 855000, Note_on_c, 0, 74, 70
2, 855000, Note_on_c, 0, 78, 70
2, 855120, Note_on_c, 0, 78, 0
2, 855120, Note_on_c, 0, 74, 0
2, 855120, Note_on_c, 0, 69, 0
2, 855120, Note_on_c, 0, 66, 70
2, 855120, Note_on_c, 0, 69, 70
2, 855120, Note_on_c, 0, 73, 70
2, 855240, Note_on_c, 0, 73, 0
2, 855240, Note_on_c, 0, 69, 0
2, 855240, Note_on_c, 0, 66, 0
2, 855240, Note_on_c, 0, 74, 70
2, 855240, Note_on_c, 0, 78, 70
2, 855240, Note_on_c, 0, 81, 70
2, 855360, Note_on_c, 0, 81, 0
2, 855360, Note_on_c, 0, 78, 0
2, 855360, Note_on_c, 0, 74, 0
2, 855360, Note_on_c, 0, 62, 70
2, 855360, Note_on_c, 0, 66, 70
2, 855360, Note_on_c, 0, 68, 70
2, 855480, Note_on_c, 0, 68, 0
2, 855480, Note_on_c, 0, 66, 0
2, 855480, Note_on_c, 0, 62, 0
2, 855480, Note_on_c, 0, 69, 70
2, 855480, Note_on_c, 0, 74, 70
2, 855480, Note_on_c, 0, 78, 70
2, 855600, Note_on_c, 0, 78, 0
2, 855600, Note_on_c, 0, 74, 0
2, 855600, Note_on_c, 0, 69, 0
2, 855600, Note_on_c, 0, 66, 70
2, 855600, Note_on_c, 0, 69, 70
2, 855600, Note_on_c, 0, 73, 70
2, 855720, Note_on_c, 0, 73, 0
2, 855720, Note_on_c, 0, 69, 0
2, 855720, Note_on_c, 0, 66, 0
2, 855720, Note_on_c, 0, 74, 70
2, 855720, Note_on_c, 0, 78, 70
2, 855720, Note_on_c, 0, 81, 70
2, 855840, Note_on_c, 0, 81, 0
2, 855840, Note_on_c, 0, 78, 0
2, 855840, Note_on_c, 0, 74, 0
2, 855840, Note_on_c, 0, 69, 70
2, 855840, Note_on_c, 0, 74, 70
2, 855840, Note_on_c, 0, 77, 70
2, 855960, Note_on_c, 0, 77, 0
2, 855960, Note_on_c, 0, 74, 0
2, 855960, Note_on_c, 0, 69, 0
2, 855960, Note_on_c, 0, 78, 70
2, 855960, Note_on_c, 0, 81, 70
2, 855960, Note_on_c, 0, 86, 70
2, 856080, Note_on_c, 0, 86, 0
2, 856080, Note_on_c, 0, 81, 0
2, 856080, Note_on_c, 0, 78, 0
2, 856080, Note_on_c, 0, 69, 70
2, 856080, Note_on_c, 0, 74, 70
2, 856080, Note_on_c, 0, 77, 70
2, 856200, Note_on_c, 0, 77, 0
2, 856200, Note_on_c, 0, 74, 0
2, 856200, Note_on_c, 0, 69, 0
2, 856200, Note_on_c, 0, 78, 70
2, 856200, Note_on_c, 0, 81, 70
2, 856200, Note_on_c, 0, 86, 70
2, 856320, Note_on_c, 0, 86, 0
2, 856320, Note_on_c, 0, 81, 0
2, 856320, Note_on_c, 0, 78, 0
2, 856320, Note_on_c, 0, 66, 70
2, 856320, Note_on_c, 0, 69, 70
2, 856320, Note_on_c, 0, 73, 70
2, 856440, Note_on_c, 0, 73, 0
2, 856440, Note_on_c, 0, 69, 0
2, 856440, Note_on_c, 0, 66, 0
2, 856440, Note_on_c, 0, 74, 70
2, 856440, Note_on_c, 0, 78, 70
2, 856440, Note_on_c, 0, 81, 70
2, 856560, Note_on_c, 0, 81, 0
2, 856560, Note_on_c, 0, 78, 0
2, 856560, Note_on_c, 0, 74, 0
2, 856560, Note_on_c, 0, 69, 70
2, 856560, Note_on_c, 0, 74, 70
2, 856560, Note_on_c, 0, 77, 70
2, 856680, Note_on_c, 0, 77, 0
2, 856680, Note_on_c, 0, 74, 0
2, 856680, Note_on_c, 0, 69, 0
2, 856680, Note_on_c, 0, 78, 70
2, 856680, Note_on_c, 0, 81, 70
2, 856680, Note_on_c, 0, 86, 70
2, 856800, Note_on_c, 0, 86, 0
2, 856800, Note_on_c, 0, 81, 0
2, 856800, Note_on_c, 0, 78, 0
2, 856800, Note_on_c, 0, 74, 70
2, 856800, Note_on_c, 0, 78, 70
2, 856800, Note_on_c, 0, 80, 70
2, 856920, Note_on_c, 0, 80, 0
2, 856920, Note_on_c, 0, 78, 0
2, 856920, Note_on_c, 0, 74, 0
2, 856920, Note_on_c, 0, 81, 70
2, 856920, Note_on_c, 0, 86, 70
2, 856920, Note_on_c, 0, 90, 70
2, 857040, Note_on_c, 0, 90, 0
2, 857040, Note_on_c, 0, 86, 0
2, 857040, Note_on_c, 0, 81, 0
2, 857040, Note_on_c, 0, 69, 70
2, 857040, Note_on_c, 0, 74, 70
2, 857040, Note_on_c, 0, 77, 70
2, 857160, Note_on_c, 0, 77, 0
2, 857160, Note_on_c, 0, 74, 0
2, 857160, Note_on_c, 0, 69, 0
2, 857160, Note_on_c, 0, 78, 70
2, 857160, Note_on_c, 0, 81, 70
2, 857160, Note_on_c, 0, 86, 70
2, 857280, Note_on_c, 0, 86, 0
2, 857280, Note_on_c, 0, 81, 0
2, 857280, Note_on_c, 0, 78, 0
2, 857280, Note_on_c, 0, 74, 70
2, 857280, Note_on_c, 0, 78, 70
2, 857280, Note_on_c, 0, 80, 70
2, 857400, Note_on_c, 0, 80, 0
2, 857400, Note_on_c, 0, 78, 0
2, 857400, Note_on_c, 0, 74, 0
2, 857400, Note_on_c, 0, 81, 70
2, 857400, Note_on_c, 0, 86, 70
2, 857400, Note_on_c, 0, 90, 70
2, 857520, Note_on_c, 0, 90, 0
2, 857520, Note_on_c, 0, 86, 0
2, 857520, Note_on_c, 0, 81, 0
2, 857520, Note_on_c, 0, 78, 70
2, 857520, Note_on_c, 0, 81, 70
2, 857520, Note_on_c, 0, 85, 70
2, 857640, Note_on_c, 0, 85, 0
2, 857640, Note_on_c, 0, 81, 0
2, 857640, Note_on_c, 0, 78, 0
2, 857640, Note_on_c, 0, 86, 70
2, 857640, Note_on_c, 0, 90, 70
2, 857640, Note_on_c, 0, 93, 70
2, 857760, Note_on_c, 0, 93, 0
2, 857760, Note_on_c, 0, 90, 0
2, 857760, Note_on_c, 0, 86, 0
2, 857760, Note_on_c, 0, 74, 70
2, 857760, Note_on_c, 0, 78, 70
2, 857760, Note_on_c, 0, 80, 70
2, 857880, Note_on_c, 0, 80, 0
2, 857880, Note_on_c, 0, 78, 0
2, 857880, Note_on_c, 0, 74, 0
2, 857880, Note_on_c, 0, 81, 70
2, 857880, Note_on_c, 0, 86, 70
2, 857880, Note_on_c, 0, 90, 70
2, 858000, Note_on_c, 0, 90, 0
2, 858000, Note_on_c, 0, 86, 0
2, 858000, Note_on_c, 0, 81, 0
2, 858000, Note_on_c, 0, 78, 70
2, 858000, Note_on_c, 0, 81, 70
2, 858000, Note_on_c, 0, 85, 70
2, 858120, Note_on_c, 0, 85, 0
2, 858120, Note_on_c, 0, 81, 0
2, 858120, Note_on_c, 0, 78, 0
2, 858120, Note_on_c, 0, 86, 70
2, 858120, Note_on_c, 0, 90, 70
2, 858120, Note_on_c, 0, 93, 70
2, 858240, Note_on_c, 0, 93, 0
2, 858240, Note_on_c, 0, 90, 0
2, 858240, Note_on_c, 0, 86, 0
2, 858240, Control_c, 0, 64, 127
2, 858240, Note_on_c, 0, 78, 83
2, 858240, Note_on_c, 0, 81, 83
2, 858240, Note_on_c, 0, 85, 83
2, 858360, Note_on_c, 0, 85, 0
2, 858360, Note_on_c, 0, 81, 0
2, 858360, Note_on_c, 0, 78, 0
2, 858360, Note_on_c, 0, 86, 83
2, 858360, Note_on_c, 0, 90, 83
2, 858360, Note_on_c, 0, 93, 83
2, 858360, Note_on_c, 0, 98, 83
2, 858480, Note_on_c, 0, 98, 0
2, 858480, Note_on_c, 0, 86, 0
2, 858480, Note_on_c, 0, 90, 0
2, 858480, Note_on_c, 0, 93, 0
2, 858480, Note_on_c, 0, 78, 83
2, 858480, Note_on_c, 0, 81, 83
2, 858480, Note_on_c, 0, 85, 83
2, 858600, Note_on_c, 0, 85, 0
2, 858600, Note_on_c, 0, 81, 0
2, 858600, Note_on_c, 0, 78, 0
2, 858600, Note_on_c, 0, 86, 83
2, 858600, Note_on_c, 0, 90, 83
2, 858600, Note_on_c, 0, 93, 83
2, 858600, Note_on_c, 0, 98, 83
2, 858720, Note_on_c, 0, 98, 0
2, 858720, Note_on_c, 0, 86, 0
2, 858720, Note_on_c, 0, 90, 0
2, 858720, Note_on_c, 0, 93, 0
2, 858720, Note_on_c, 0, 78, 83
2, 858720, Note_on_c, 0, 81, 83
2, 858720, Note_on_c, 0, 85, 83
2, 858840, Note_on_c, 0, 85, 0
2, 858840, Note_on_c, 0, 81, 0
2, 858840, Note_on_c, 0, 78, 0
2, 858840, Note_on_c, 0, 86, 83
2, 858840, Note_on_c, 0, 90, 83
2, 858840, Note_on_c, 0, 93, 83
2, 858840, Note_on_c, 0, 98, 83
2, 858960, Note_on_c, 0, 98, 0
2, 858960, Note_on_c, 0, 86, 0
2, 858960, Note_on_c, 0, 90, 0
2, 858960, Note_on_c, 0, 93, 0
2, 858960, Note_on_c, 0, 78, 83
2, 858960, Note_on_c, 0, 81, 83
2, 858960, Note_on_c, 0, 85, 83
2, 859080, Note_on_c, 0, 85, 0
2, 859080, Note_on_c, 0, 81, 0
2, 859080, Note_on_c, 0, 78, 0
2, 859080, Note_on_c, 0, 86, 83
2, 859080, Note_on_c, 0, 90, 83
2, 859080, Note_on_c, 0, 93, 83
2, 859080, Note_on_c, 0, 98, 83
2, 859200, Note_on_c, 0, 98, 0
2, 859200, Note_on_c, 0, 86, 0
2, 859200, Note_on_c, 0, 90, 0
2, 859200, Note_on_c, 0, 93, 0
2, 859200, Note_on_c, 0, 78, 83
2, 859200, Note_on_c, 0, 81, 83
2, 859200, Note_on_c, 0, 85, 83
2, 859320, Note_on_c, 0, 85, 0
2, 859320, Note_on_c, 0, 81, 0
2, 859320, Note_on_c, 0, 78, 0
2, 859320, Note_on_c, 0, 86, 83
2, 859320, Note_on_c, 0, 90, 83
2, 859320, Note_on_c, 0, 93, 83
2, 859320, Note_on_c, 0, 98, 83
2, 859440, Note_on_c, 0, 98, 0
2, 859440, Note_on_c, 0, 86, 0
2, 859440, Note_on_c, 0, 90, 0
2, 859440, Note_on_c, 0, 93, 0
2, 859440, Note_on_c, 0, 78, 83
2, 859440, Note_on_c, 0, 81, 83
2, 859440, Note_on_c, 0, 85, 83
2, 859560, Note_on_c, 0, 85, 0
2, 859560, Note_on_c, 0, 81, 0
2, 859560, Note_on_c, 0, 78, 0
2, 859560, Note_on_c, 0, 86, 83
2, 859560, Note_on_c, 0, 90, 83
2, 859560, Note_on_c, 0, 93, 83
2, 859560, Note_on_c, 0, 98, 83
2, 859680, Note_on_c, 0, 98, 0
2, 859680, Note_on_c, 0, 86, 0
2, 859680, Note_on_c, 0, 90, 0
2, 859680, Note_on_c, 0, 93, 0
2, 859680, Note_on_c, 0, 78, 83
2, 859680, Note_on_c, 0, 81, 83
2, 859680, Note_on_c, 0, 85, 83
2, 859800, Note_on_c, 0, 85, 0
2, 859800, Note_on_c, 0, 81, 0
2, 859800, Note_on_c, 0, 78, 0
2, 859800, Note_on_c, 0, 86, 83
2, 859800, Note_on_c, 0, 90, 83
2, 859800, Note_on_c, 0, 93, 83
2, 859800, Note_on_c, 0, 98, 83
2, 859920, Note_on_c, 0, 98, 0
2, 859920, Note_on_c, 0, 86, 0
2, 859920, Note_on_c, 0, 90, 0
2, 859920, Note_on_c, 0, 93, 0
2, 859920, Note_on_c, 0, 78, 83
2, 859920, Note_on_c, 0, 81, 83
2, 859920, Note_on_c, 0, 85, 83
2, 860040, Note_on_c, 0, 85, 0
2, 860040, Note_on_c, 0, 81, 0
2, 860040, Note_on_c, 0, 78, 0
2, 860040, Note_on_c, 0, 86, 83
2, 860040, Note_on_c, 0, 90, 83
2, 860040, Note_on_c, 0, 93, 83
2, 860040, Note_on_c, 0, 98, 83
2, 860160, Note_on_c, 0, 98, 0
2, 860160, Note_on_c, 0, 86, 0
2, 860160, Note_on_c, 0, 90, 0
2, 860160, Note_on_c, 0, 93, 0
2, 860160, Note_on_c, 0, 78, 83
2, 860160, Note_on_c, 0, 81, 83
2, 860160, Note_on_c, 0, 85, 83
2, 860280, Note_on_c, 0, 85, 0
2, 860280, Note_on_c, 0, 81, 0
2, 860280, Note_on_c, 0, 78, 0
2, 860280, Note_on_c, 0, 86, 83
2, 860280, Note_on_c, 0, 90, 83
2, 860280, Note_on_c, 0, 93, 83
2, 860280, Note_on_c, 0, 98, 83
2, 860400, Note_on_c, 0, 98, 0
2, 860400, Note_on_c, 0, 86, 0
2, 860400, Note_on_c, 0, 90, 0
2, 860400, Note_on_c, 0, 93, 0
2, 860400, Note_on_c, 0, 78, 83
2, 860400, Note_on_c, 0, 81, 83
2, 860400, Note_on_c, 0, 85, 83
2, 860520, Note_on_c, 0, 85, 0
2, 860520, Note_on_c, 0, 81, 0
2, 860520, Note_on_c, 0, 78, 0
2, 860520, Note_on_c, 0, 86, 83
2, 860520, Note_on_c, 0, 90, 83
2, 860520, Note_on_c, 0, 93, 83
2, 860520, Note_on_c, 0, 98, 83
2, 860640, Note_on_c, 0, 98, 0
2, 860640, Note_on_c, 0, 86, 0
2, 860640, Note_on_c, 0, 90, 0
2, 860640, Note_on_c, 0, 93, 0
2, 860640, Note_on_c, 0, 78, 83
2, 860640, Note_on_c, 0, 81, 83
2, 860640, Note_on_c, 0, 85, 83
2, 860760, Note_on_c, 0, 85, 0
2, 860760, Note_on_c, 0, 81, 0
2, 860760, Note_on_c, 0, 78, 0
2, 860760, Note_on_c, 0, 86, 83
2, 860760, Note_on_c, 0, 90, 83
2, 860760, Note_on_c, 0, 93, 83
2, 860760, Note_on_c, 0, 98, 83
2, 860880, Note_on_c, 0, 98, 0
2, 860880, Note_on_c, 0, 86, 0
2, 860880, Note_on_c, 0, 90, 0
2, 860880, Note_on_c, 0, 93, 0
2, 860880, Note_on_c, 0, 78, 83
2, 860880, Note_on_c, 0, 81, 83
2, 860880, Note_on_c, 0, 85, 83
2, 861000, Note_on_c, 0, 85, 0
2, 861000, Note_on_c, 0, 81, 0
2, 861000, Note_on_c, 0, 78, 0
2, 861000, Note_on_c, 0, 86, 83
2, 861000, Note_on_c, 0, 90, 83
2, 861000, Note_on_c, 0, 93, 83
2, 861000, Note_on_c, 0, 98, 83
2, 861120, Note_on_c, 0, 98, 0
2, 861120, Note_on_c, 0, 86, 0
2, 861120, Note_on_c, 0, 90, 0
2, 861120, Note_on_c, 0, 93, 0
2, 861120, Note_on_c, 0, 78, 83
2, 861120, Note_on_c, 0, 81, 83
2, 861120, Note_on_c, 0, 85, 83
2, 861200, Note_on_c, 0, 85, 0
2, 861200, Note_on_c, 0, 81, 0
2, 861200, Note_on_c, 0, 78, 0
2, 861200, Note_on_c, 0, 86, 83
2, 861200, Note_on_c, 0, 90, 83
2, 861200, Note_on_c, 0, 93, 83
2, 861200, Note_on_c, 0, 98, 83
2, 861279, Note_on_c, 0, 98, 0
2, 861279, Note_on_c, 0, 86, 0
2, 861279, Note_on_c, 0, 90, 0
2, 861279, Note_on_c, 0, 93, 0
2, 861279, Note_on_c, 0, 78, 83
2, 861279, Note_on_c, 0, 81, 83
2, 861279, Note_on_c, 0, 85, 83
2, 861360, Note_on_c, 0, 85, 0
2, 861360, Note_on_c, 0, 81, 0
2, 861360, Note_on_c, 0, 78, 0
2, 861360, Note_on_c, 0, 86, 83
2, 861360, Note_on_c, 0, 90, 83
2, 861360, Note_on_c, 0, 93, 83
2, 861360, Note_on_c, 0, 98, 83
2, 861420, Note_on_c, 0, 98, 0
2, 861420, Note_on_c, 0, 86, 0
2, 861420, Note_on_c, 0, 90, 0
2, 861420, Note_on_c, 0, 93, 0
2, 861420, Note_on_c, 0, 78, 83
2, 861420, Note_on_c, 0, 81, 83
2, 861420, Note_on_c, 0, 85, 83
2, 861480, Note_on_c, 0, 85, 0
2, 861480, Note_on_c, 0, 81, 0
2, 861480, Note_on_c, 0, 78, 0
2, 861480, Note_on_c, 0, 86, 83
2, 861480, Note_on_c, 0, 90, 83
2, 861480, Note_on_c, 0, 93, 83
2, 861480, Note_on_c, 0, 98, 83
2, 861540, Note_on_c, 0, 98, 0
2, 861540, Note_on_c, 0, 86, 0
2, 861540, Note_on_c, 0, 90, 0
2, 861540, Note_on_c, 0, 93, 0
2, 861540, Note_on_c, 0, 78, 83
2, 861540, Note_on_c, 0, 81, 83
2, 861540, Note_on_c, 0, 85, 83
2, 861600, Note_on_c, 0, 85, 0
2, 861600, Note_on_c, 0, 81, 0
2, 861600, Note_on_c, 0, 78, 0
2, 861600, Note_on_c, 0, 86, 83
2, 861600, Note_on_c, 0, 90, 83
2, 861600, Note_on_c, 0, 93, 83
2, 861600, Note_on_c, 0, 98, 83
2, 861660, Note_on_c, 0, 98, 0
2, 861660, Note_on_c, 0, 86, 0
2, 861660, Note_on_c, 0, 90, 0
2, 861660, Note_on_c, 0, 93, 0
2, 861660, Note_on_c, 0, 78, 83
2, 861660, Note_on_c, 0, 81, 83
2, 861660, Note_on_c, 0, 85, 83
2, 861720, Note_on_c, 0, 85, 0
2, 861720, Note_on_c, 0, 81, 0
2, 861720, Note_on_c, 0, 78, 0
2, 861720, Note_on_c, 0, 86, 83
2, 861720, Note_on_c, 0, 90, 83
2, 861720, Note_on_c, 0, 93, 83
2, 861720, Note_on_c, 0, 98, 83
2, 861780, Note_on_c, 0, 98, 0
2, 861780, Note_on_c, 0, 86, 0
2, 861780, Note_on_c, 0, 90, 0
2, 861780, Note_on_c, 0, 93, 0
2, 861780, Note_on_c, 0, 78, 83
2, 861780, Note_on_c, 0, 81, 83
2, 861780, Note_on_c, 0, 85, 83
2, 861840, Note_on_c, 0, 85, 0
2, 861840, Note_on_c, 0, 81, 0
2, 861840, Note_on_c, 0, 78, 0
2, 861840, Note_on_c, 0, 86, 83
2, 861840, Note_on_c, 0, 90, 83
2, 861840, Note_on_c, 0, 93, 83
2, 861840, Note_on_c, 0, 98, 83
2, 861900, Note_on_c, 0, 98, 0
2, 861900, Note_on_c, 0, 86, 0
2, 861900, Note_on_c, 0, 90, 0
2, 861900, Note_on_c, 0, 93, 0
2, 861900, Note_on_c, 0, 78, 83
2, 861900, Note_on_c, 0, 81, 83
2, 861900, Note_on_c, 0, 85, 83
2, 861960, Note_on_c, 0, 85, 0
2, 861960, Note_on_c, 0, 81, 0
2, 861960, Note_on_c, 0, 78, 0
2, 861960, Note_on_c, 0, 86, 83
2, 861960, Note_on_c, 0, 90, 83
2, 861960, Note_on_c, 0, 93, 83
2, 861960, Note_on_c, 0, 98, 83
2, 862020, Note_on_c, 0, 98, 0
2, 862020, Note_on_c, 0, 86, 0
2, 862020, Note_on_c, 0, 90, 0
2, 862020, Note_on_c, 0, 93, 0
2, 862020, Note_on_c, 0, 78, 83
2, 862020, Note_on_c, 0, 81, 83
2, 862020, Note_on_c, 0, 85, 83
2, 862080, Note_on_c, 0, 85, 0
2, 862080, Note_on_c, 0, 81, 0
2, 862080, Note_on_c, 0, 78, 0
2, 862080, Note_on_c, 0, 86, 83
2, 862080, Note_on_c, 0, 90, 83
2, 862080, Note_on_c, 0, 93, 83
2, 862080, Note_on_c, 0, 98, 83
2, 862140, Note_on_c, 0, 98, 0
2, 862140, Note_on_c, 0, 86, 0
2, 862140, Note_on_c, 0, 90, 0
2, 862140, Note_on_c, 0, 93, 0
2, 862140, Note_on_c, 0, 78, 83
2, 862140, Note_on_c, 0, 81, 83
2, 862140, Note_on_c, 0, 85, 83
2, 862200, Note_on_c, 0, 85, 0
2, 862200, Note_on_c, 0, 81, 0
2, 862200, Note_on_c, 0, 78, 0
2, 862200, Note_on_c, 0, 86, 83
2, 862200, Note_on_c, 0, 90, 83
2, 862200, Note_on_c, 0, 93, 83
2, 862200, Note_on_c, 0, 98, 83
2, 862260, Note_on_c, 0, 98, 0
2, 862260, Note_on_c, 0, 86, 0
2, 862260, Note_on_c, 0, 90, 0
2, 862260, Note_on_c, 0, 93, 0
2, 862260, Note_on_c, 0, 78, 83
2, 862260, Note_on_c, 0, 81, 83
2, 862260, Note_on_c, 0, 85, 83
2, 862320, Note_on_c, 0, 85, 0
2, 862320, Note_on_c, 0, 81, 0
2, 862320, Note_on_c, 0, 78, 0
2, 862320, Note_on_c, 0, 86, 83
2, 862320, Note_on_c, 0, 90, 83
2, 862320, Note_on_c, 0, 93, 83
2, 862320, Note_on_c, 0, 98, 83
2, 862380, Note_on_c, 0, 98, 0
2, 862380, Note_on_c, 0, 86, 0
2, 862380, Note_on_c, 0, 90, 0
2, 862380, Note_on_c, 0, 93, 0
2, 862380, Note_on_c, 0, 78, 83
2, 862380, Note_on_c, 0, 81, 83
2, 862380, Note_on_c, 0, 85, 83
2, 862440, Note_on_c, 0, 85, 0
2, 862440, Note_on_c, 0, 81, 0
2, 862440, Note_on_c, 0, 78, 0
2, 862440, Note_on_c, 0, 86, 83
2, 862440, Note_on_c, 0, 90, 83
2, 862440, Note_on_c, 0, 93, 83
2, 862440, Note_on_c, 0, 98, 83
2, 862500, Note_on_c, 0, 98, 0
2, 862500, Note_on_c, 0, 86, 0
2, 862500, Note_on_c, 0, 90, 0
2, 862500, Note_on_c, 0, 93, 0
2, 862500, Note_on_c, 0, 78, 83
2, 862500, Note_on_c, 0, 81, 83
2, 862500, Note_on_c, 0, 85, 83
2, 862560, Note_on_c, 0, 85, 0
2, 862560, Note_on_c, 0, 81, 0
2, 862560, Note_on_c, 0, 78, 0
2, 862560, Note_on_c, 0, 86, 83
2, 862560, Note_on_c, 0, 90, 83
2, 862560, Note_on_c, 0, 93, 83
2, 862560, Note_on_c, 0, 98, 83
2, 862620, Note_on_c, 0, 98, 0
2, 862620, Note_on_c, 0, 86, 0
2, 862620, Note_on_c, 0, 90, 0
2, 862620, Note_on_c, 0, 93, 0
2, 862620, Note_on_c, 0, 78, 83
2, 862620, Note_on_c, 0, 81, 83
2, 862620, Note_on_c, 0, 85, 83
2, 862680, Note_on_c, 0, 85, 0
2, 862680, Note_on_c, 0, 81, 0
2, 862680, Note_on_c, 0, 78, 0
2, 862680, Note_on_c, 0, 86, 83
2, 862680, Note_on_c, 0, 90, 83
2, 862680, Note_on_c, 0, 93, 83
2, 862680, Note_on_c, 0, 98, 83
2, 862740, Note_on_c, 0, 98, 0
2, 862740, Note_on_c, 0, 86, 0
2, 862740, Note_on_c, 0, 90, 0
2, 862740, Note_on_c, 0, 93, 0
2, 862740, Note_on_c, 0, 78, 83
2, 862740, Note_on_c, 0, 81, 83
2, 862740, Note_on_c, 0, 85, 83
2, 862800, Note_on_c, 0, 85, 0
2, 862800, Note_on_c, 0, 81, 0
2, 862800, Note_on_c, 0, 78, 0
2, 862800, Note_on_c, 0, 86, 83
2, 862800, Note_on_c, 0, 90, 83
2, 862800, Note_on_c, 0, 93, 83
2, 862800, Note_on_c, 0, 98, 83
2, 862860, Note_on_c, 0, 98, 0
2, 862860, Note_on_c, 0, 86, 0
2, 862860, Note_on_c, 0, 90, 0
2, 862860, Note_on_c, 0, 93, 0
2, 862860, Note_on_c, 0, 78, 83
2, 862860, Note_on_c, 0, 81, 83
2, 862860, Note_on_c, 0, 85, 83
2, 862920, Note_on_c, 0, 85, 0
2, 862920, Note_on_c, 0, 81, 0
2, 862920, Note_on_c, 0, 78, 0
2, 862920, Note_on_c, 0, 86, 83
2, 862920, Note_on_c, 0, 90, 83
2, 862920, Note_on_c, 0, 93, 83
2, 862920, Note_on_c, 0, 98, 83
2, 862980, Note_on_c, 0, 98, 0
2, 862980, Note_on_c, 0, 86, 0
2, 862980, Note_on_c, 0, 90, 0
2, 862980, Note_on_c, 0, 93, 0
2, 862980, Note_on_c, 0, 78, 83
2, 862980, Note_on_c, 0, 81, 83
2, 862980, Note_on_c, 0, 85, 83
2, 863040, Note_on_c, 0, 85, 0
2, 863040, Note_on_c, 0, 81, 0
2, 863040, Note_on_c, 0, 78, 0
2, 863040, Note_on_c, 0, 86, 83
2, 863040, Note_on_c, 0, 90, 83
2, 863040, Note_on_c, 0, 93, 83
2, 863040, Note_on_c, 0, 98, 83
2, 863100, Note_on_c, 0, 98, 0
2, 863100, Note_on_c, 0, 86, 0
2, 863100, Note_on_c, 0, 90, 0
2, 863100, Note_on_c, 0, 93, 0
2, 863100, Note_on_c, 0, 78, 83
2, 863100, Note_on_c, 0, 81, 83
2, 863100, Note_on_c, 0, 85, 83
2, 863160, Note_on_c, 0, 85, 0
2, 863160, Note_on_c, 0, 81, 0
2, 863160, Note_on_c, 0, 78, 0
2, 863160, Note_on_c, 0, 86, 83
2, 863160, Note_on_c, 0, 90, 83
2, 863160, Note_on_c, 0, 93, 83
2, 863160, Note_on_c, 0, 98, 83
2, 863220, Note_on_c, 0, 98, 0
2, 863220, Note_on_c, 0, 86, 0
2, 863220, Note_on_c, 0, 90, 0
2, 863220, Note_on_c, 0, 93, 0
2, 863220, Note_on_c, 0, 78, 83
2, 863220, Note_on_c, 0, 81, 83
2, 863220, Note_on_c, 0, 85, 83
2, 863280, Note_on_c, 0, 85, 0
2, 863280, Note_on_c, 0, 81, 0
2, 863280, Note_on_c, 0, 78, 0
2, 863280, Note_on_c, 0, 86, 83
2, 863280, Note_on_c, 0, 90, 83
2, 863280, Note_on_c, 0, 93, 83
2, 863280, Note_on_c, 0, 98, 83
2, 863340, Note_on_c, 0, 98, 0
2, 863340, Note_on_c, 0, 86, 0
2, 863340, Note_on_c, 0, 90, 0
2, 863340, Note_on_c, 0, 93, 0
2, 863340, Note_on_c, 0, 78, 83
2, 863340, Note_on_c, 0, 81, 83
2, 863340, Note_on_c, 0, 85, 83
2, 863400, Note_on_c, 0, 85, 0
2, 863400, Note_on_c, 0, 81, 0
2, 863400, Note_on_c, 0, 78, 0
2, 863400, Note_on_c, 0, 86, 83
2, 863400, Note_on_c, 0, 90, 83
2, 863400, Note_on_c, 0, 93, 83
2, 863400, Note_on_c, 0, 98, 83
2, 863460, Note_on_c, 0, 98, 0
2, 863460, Note_on_c, 0, 86, 0
2, 863460, Note_on_c, 0, 90, 0
2, 863460, Note_on_c, 0, 93, 0
2, 863460, Note_on_c, 0, 78, 83
2, 863460, Note_on_c, 0, 81, 83
2, 863460, Note_on_c, 0, 85, 83
2, 863520, Note_on_c, 0, 85, 0
2, 863520, Note_on_c, 0, 81, 0
2, 863520, Note_on_c, 0, 78, 0
2, 863520, Note_on_c, 0, 86, 83
2, 863520, Note_on_c, 0, 90, 83
2, 863520, Note_on_c, 0, 93, 83
2, 863520, Note_on_c, 0, 98, 83
2, 863580, Note_on_c, 0, 98, 0
2, 863580, Note_on_c, 0, 86, 0
2, 863580, Note_on_c, 0, 90, 0
2, 863580, Note_on_c, 0, 93, 0
2, 863580, Note_on_c, 0, 78, 83
2, 863580, Note_on_c, 0, 81, 83
2, 863580, Note_on_c, 0, 85, 83
2, 863640, Note_on_c, 0, 85, 0
2, 863640, Note_on_c, 0, 81, 0
2, 863640, Note_on_c, 0, 78, 0
2, 863640, Note_on_c, 0, 86, 83
2, 863640, Note_on_c, 0, 90, 83
2, 863640, Note_on_c, 0, 93, 83
2, 863640, Note_on_c, 0, 98, 83
2, 863700, Note_on_c, 0, 98, 0
2, 863700, Note_on_c, 0, 86, 0
2, 863700, Note_on_c, 0, 90, 0
2, 863700, Note_on_c, 0, 93, 0
2, 863700, Note_on_c, 0, 78, 83
2, 863700, Note_on_c, 0, 81, 83
2, 863700, Note_on_c, 0, 85, 83
2, 863760, Note_on_c, 0, 85, 0
2, 863760, Note_on_c, 0, 81, 0
2, 863760, Note_on_c, 0, 78, 0
2, 863760, Note_on_c, 0, 86, 83
2, 863760, Note_on_c, 0, 90, 83
2, 863760, Note_on_c, 0, 93, 83
2, 863760, Note_on_c, 0, 98, 83
2, 863820, Note_on_c, 0, 98, 0
2, 863820, Note_on_c, 0, 86, 0
2, 863820, Note_on_c, 0, 90, 0
2, 863820, Note_on_c, 0, 93, 0
2, 863820, Note_on_c, 0, 78, 83
2, 863820, Note_on_c, 0, 81, 83
2, 863820, Note_on_c, 0, 85, 83
2, 863880, Note_on_c, 0, 85, 0
2, 863880, Note_on_c, 0, 81, 0
2, 863880, Note_on_c, 0, 78, 0
2, 863880, Note_on_c, 0, 86, 83
2, 863880, Note_on_c, 0, 90, 83
2, 863880, Note_on_c, 0, 93, 83
2, 863880, Note_on_c, 0, 98, 83
2, 863940, Note_on_c, 0, 98, 0
2, 863940, Note_on_c, 0, 86, 0
2, 863940, Note_on_c, 0, 90, 0
2, 863940, Note_on_c, 0, 93, 0
2, 863940, Note_on_c, 0, 78, 83
2, 863940, Note_on_c, 0, 81, 83
2, 863940, Note_on_c, 0, 85, 83
2, 864000, Note_on_c, 0, 85, 0
2, 864000, Note_on_c, 0, 81, 0
2, 864000, Note_on_c, 0, 78, 0
2, 864000, Control_c, 0, 64, 0
2, 864000, Note_on_c, 0, 86, 83
2, 864000, Note_on_c, 0, 90, 83
2, 864000, Note_on_c, 0, 93, 83
2, 864000, Note_on_c, 0, 98, 83
2, 864480, Note_on_c, 0, 98, 0
2, 864480, Note_on_c, 0, 86, 0
2, 864480, Note_on_c, 0, 90, 0
2, 864480, Note_on_c, 0, 93, 0
2, 864480, Control_c, 0, 64, 127
2, 864480, Note_on_c, 0, 50, 83
2, 864548, Note_on_c, 0, 50, 0
2, 864548, Note_on_c, 0, 52, 83
2, 864617, Note_on_c, 0, 52, 0
2, 864617, Note_on_c, 0, 54, 83
2, 864685, Note_on_c, 0, 54, 0
2, 864685, Note_on_c, 0, 55, 83
2, 864754, Note_on_c, 0, 55, 0
2, 864754, Note_on_c, 0, 57, 83
2, 864822, Note_on_c, 0, 57, 0
2, 864822, Note_on_c, 0, 59, 83
2, 864891, Note_on_c, 0, 59, 0
2, 864891, Note_on_c, 0, 61, 83
2, 864960, Note_on_c, 0, 61, 0
2, 864960, Control_c, 0, 64, 0
2, 864960, Note_on_c, 0, 62, 83
2, 865360, Note_on_c, 0, 66, 83
2, 865400, Note_on_c, 0, 69, 83
2, 865440, Note_on_c, 0, 62, 0
2, 865440, Note_on_c, 0, 74, 83
2, 865840, Note_on_c, 0, 67, 83
2, 865880, Note_on_c, 0, 70, 83
2, 865920, Note_on_c, 0, 74, 0
2, 865920, Note_on_c, 0, 66, 0
2, 865920, Note_on_c, 0, 69, 0
2, 865920, Note_on_c, 0, 75, 83
2, 866400, Note_on_c, 0, 75, 0
2, 866400, Note_on_c, 0, 67, 0
2, 866400, Note_on_c, 0, 70, 0
2, 866400, Control_c, 0, 64, 127
2, 866400, Note_on_c, 0, 50, 83
2, 866468, Note_on_c, 0, 50, 0
2, 866468, Note_on_c, 0, 52, 83
2, 866537, Note_on_c, 0, 52, 0
2, 866537, Note_on_c, 0, 54, 83
2, 866605, Note_on_c, 0, 54, 0
2, 866605, Note_on_c, 0, 55, 83
2, 866674, Note_on_c, 0, 55, 0
2, 866674, Note_on_c, 0, 57, 83
2, 866742, Note_on_c, 0, 57, 0
2, 866742, Note_on_c, 0, 59, 83
2, 866811, Note_on_c, 0, 59, 0
2, 866811, Note_on_c, 0, 61, 83
2, 866880, Note_on_c, 0, 61, 0
2, 866880, Control_c, 0, 64, 0
2, 866880, Note_on_c, 0, 62, 83
2, 867280, Note_on_c, 0, 67, 83
2, 867320, Note_on_c, 0, 70, 83
2, 867360, Note_on_c, 0, 62, 0
2, 867360, Note_on_c, 0, 75, 83
2, 867760, Note_on_c, 0, 68, 83
2, 867800, Note_on_c, 0, 71, 83
2, 867840, Note_on_c, 0, 75, 0
2, 867840, Note_on_c, 0, 67, 0
2, 867840, Note_on_c, 0, 70, 0
2, 867840, Note_on_c, 0, 76, 83
2, 868320, Note_on_c, 0, 76, 0
2, 868320, Note_on_c, 0, 68, 0
2, 868320, Note_on_c, 0, 71, 0
2, 868320, Control_c, 0, 64, 127
2, 868320, Note_on_c, 0, 50, 83
2, 868388, Note_on_c, 0, 50, 0
2, 868388, Note_on_c, 0, 52, 83
2, 868457, Note_on_c, 0, 52, 0
2, 868457, Note_on_c, 0, 54, 83
2, 868525, Note_on_c, 0, 54, 0
2, 868525, Note_on_c, 0, 55, 83
2, 868594, Note_on_c, 0, 55, 0
2, 868594, Note_on_c, 0, 57, 83
2, 868662, Note_on_c, 0, 57, 0
2, 868662, Note_on_c, 0, 59, 83
2, 868731, Note_on_c, 0, 59, 0
2, 868731, Note_on_c, 0, 61, 83
2, 868800, Note_on_c, 0, 61, 0
2, 868800, Control_c, 0, 64, 0
2, 868800, Note_on_c, 0, 62, 83
2, 869200, Note_on_c, 0, 68, 83
2, 869240, Note_on_c, 0, 71, 83
2, 869280, Note_on_c, 0, 62, 0
2, 869280, Note_on_c, 0, 76, 83
2, 869680, Note_on_c, 0, 69, 83
2, 869720, Note_on_c, 0, 72, 83
2, 869760, Note_on_c, 0, 76, 0
2, 869760, Note_on_c, 0, 68, 0
2, 869760, Note_on_c, 0, 71, 0
2, 869760, Note_on_c, 0, 77, 83
2, 870000, Note_on_c, 0, 77, 0
2, 870000, Note_on_c, 0, 69, 0
2, 870000, Note_on_c, 0, 72, 0
2, 870000, Note_on_c, 0, 68, 83
2, 870000, Note_on_c, 0, 71, 83
2, 870000, Note_on_c, 0, 76, 83
2, 870240, Note_on_c, 0, 76, 0
2, 870240, Note_on_c, 0, 71, 0
2, 870240, Note_on_c, 0, 68, 0
2, 870240, Note_on_c, 0, 69, 83
2, 870240, Note_on_c, 0, 72, 83
2, 870240, Note_on_c, 0, 77, 83
2, 870720, Note_on_c, 0, 77, 0
2, 870720, Note_on_c, 0, 72, 0
2, 870720, Note_on_c, 0, 69, 0
2, 870720, Note_on_c, 0, 62, 109
2, 871200, Note_on_c, 0, 62, 0
2, 871200, Note_on_c, 0, 70, 109
2, 871200, Note_on_c, 0, 73, 109
2, 871200, Note_on_c, 0, 78, 109
2, 871600, Note_on_c, 0, 71, 83
2, 871640, Note_on_c, 0, 74, 83
2, 871680, Note_on_c, 0, 78, 0
2, 871680, Note_on_c, 0, 70, 0
2, 871680, Note_on_c, 0, 73, 0
2, 871680, Note_on_c, 0, 79, 83
2, 872160, Note_on_c, 0, 79, 0
2, 872160, Note_on_c, 0, 71, 0
2, 872160, Note_on_c, 0, 74, 0
2, 872160, Control_c, 0, 64, 127
2, 872160, Note_on_c, 0, 50, 83
2, 872228, Note_on_c, 0, 50, 0
2, 872228, Note_on_c, 0, 52, 83
2, 872297, Note_on_c, 0, 52, 0
2, 872297, Note_on_c, 0, 54, 83
2, 872365, Note_on_c, 0, 54, 0
2, 872365, Note_on_c, 0, 55, 83
2, 872434, Note_on_c, 0, 55, 0
2, 872434, Note_on_c, 0, 57, 83
2, 872502, Note_on_c, 0, 57, 0
2, 872502, Note_on_c, 0, 59, 83
2, 872571, Note_on_c, 0, 59, 0
2, 872571, Note_on_c, 0, 61, 83
2, 872640, Note_on_c, 0, 61, 0
2, 872640, Control_c, 0, 64, 0
2, 872640, Note_on_c, 0, 62, 83
2, 873040, Note_on_c, 0, 72, 83
2, 873080, Note_on_c, 0, 75, 83
2, 873120, Note_on_c, 0, 62, 0
2, 873120, Note_on_c, 0, 80, 83
2, 873600, Note_on_c, 0, 80, 0
2, 873600, Note_on_c, 0, 75, 0
2, 873600, Note_on_c, 0, 72, 0
2, 873600, Note_on_c, 0, 73, 109
2, 873600, Note_on_c, 0, 76, 109
2, 873600, Note_on_c, 0, 81, 109
2, 874080, Note_on_c, 0, 81, 0
2, 874080, Note_on_c, 0, 76, 0
2, 874080, Note_on_c, 0, 73, 0
2, 874080, Control_c, 0, 64, 127
2, 874080, Note_on_c, 0, 50, 83
2, 874148, Note_on_c, 0, 50, 0
2, 874148, Note_on_c, 0, 52, 83
2, 874217, Note_on_c, 0, 52, 0
2, 874217, Note_on_c, 0, 54, 83
2, 874285, Note_on_c, 0, 54, 0
2, 874285, Note_on_c, 0, 55, 83
2, 874354, Note_on_c, 0, 55, 0
2, 874354, Note_on_c, 0, 57, 83
2, 874422, Note_on_c, 0, 57, 0
2, 874422, Note_on_c, 0, 59, 83
2, 874491, Note_on_c, 0, 59, 0
2, 874491, Note_on_c, 0, 61, 83
2, 874560, Note_on_c, 0, 61, 0
2, 874560, Control_c, 0, 64, 0
2, 874560, Note_on_c, 0, 62, 83
2, 875040, Note_on_c, 0, 62, 0
2, 875040, Note_on_c, 0, 73, 109
2, 875040, Note_on_c, 0, 76, 109
2, 875040, Note_on_c, 0, 81, 109
2, 875520, Note_on_c, 0, 81, 0
2, 875520, Note_on_c, 0, 76, 0
2, 875520, Note_on_c, 0, 73, 0
2, 875520, Note_on_c, 0, 74, 109
2, 875520, Note_on_c, 0, 77, 109
2, 875520, Note_on_c, 0, 82, 109
2, 876000, Note_on_c, 0, 82, 0
2, 876000, Note_on_c, 0, 77, 0
2, 876000, Note_on_c, 0, 74, 0
2, 876000, Control_c, 0, 64, 127
2, 876000, Note_on_c, 0, 50, 83
2, 876068, Note_on_c, 0, 50, 0
2, 876068, Note_on_c, 0, 52, 83
2, 876137, Note_on_c, 0, 52, 0
2, 876137, Note_on_c, 0, 54, 83
2, 876205, Note_on_c, 0, 54, 0
2, 876205, Note_on_c, 0, 55, 83
2, 876274, Note_on_c, 0, 55, 0
2, 876274, Note_on_c, 0, 57, 83
2, 876342, Note_on_c, 0, 57, 0
2, 876342, Note_on_c, 0, 59, 83
2, 876411, Note_on_c, 0, 59, 0
2, 876411, Note_on_c, 0, 61, 83
2, 876480, Note_on_c, 0, 61, 0
2, 876480, Control_c, 0, 64, 0
2, 876480, Note_on_c, 0, 62, 83
2, 876960, Note_on_c, 0, 62, 0
2, 876960, Note_on_c, 0, 75, 109
2, 876960, Note_on_c, 0, 78, 109
2, 876960, Note_on_c, 0, 83, 109
2, 877440, Note_on_c, 0, 83, 0
2, 877440, Note_on_c, 0, 78, 0
2, 877440, Note_on_c, 0, 75, 0
2, 877440, Note_on_c, 0, 76, 109
2, 877440, Note_on_c, 0, 79, 109
2, 877440, Note_on_c, 0, 84, 109
2, 877680, Note_on_c, 0, 84, 0
2, 877680, Note_on_c, 0, 79, 0
2, 877680, Note_on_c, 0, 76, 0
2, 877680, Note_on_c, 0, 75, 109
2, 877680, Note_on_c, 0, 78, 109
2, 877680, Note_on_c, 0, 83, 109
2, 877920, Note_on_c, 0, 83, 0
2, 877920, Note_on_c, 0, 78, 0
2, 877920, Note_on_c, 0, 75, 0
2, 877920, Note_on_c, 0, 76, 109
2, 877920, Note_on_c, 0, 79, 109
2, 877920, Note_on_c, 0, 84, 109
2, 878400, Note_on_c, 0, 84, 0
2, 878400, Note_on_c, 0, 79, 0
2, 878400, Note_on_c, 0, 76, 0
2, 878400, Note_on_c, 0, 62, 109
2, 878880, Note_on_c, 0, 62, 0
2, 878880, Note_on_c, 0, 76, 109
2, 878880, Note_on_c, 0, 79, 109
2, 878880, Note_on_c, 0, 85, 109
2, 879360, Note_on_c, 0, 85, 0
2, 879360, Note_on_c, 0, 79, 0
2, 879360, Note_on_c, 0, 76, 0
2, 879360, Note_on_c, 0, 78, 109
2, 879360, Note_on_c, 0, 81, 109
2, 879360, Note_on_c, 0, 86, 109
2, 879840, Note_on_c, 0, 86, 0
2, 879840, Note_on_c, 0, 81, 0
2, 879840, Note_on_c, 0, 78, 0
2, 879840, Note_on_c, 0, 50, 109
2, 879999, Note_on_c, 0, 50, 0
2, 879999, Note_on_c, 0, 52, 109
2, 880160, Note_on_c, 0, 52, 0
2, 880160, Note_on_c, 0, 54, 109
2, 880320, Note_on_c, 0, 54, 0
2, 880320, Note_on_c, 0, 55, 109
2, 880440, Note_on_c, 0, 55, 0
2, 880440, Note_on_c, 0, 57, 109
2, 880560, Note_on_c, 0, 57, 0
2, 880560, Note_on_c, 0, 59, 109
2, 880680, Note_on_c, 0, 59, 0
2, 880680, Note_on_c, 0, 61, 109
2, 880800, Note_on_c, 0, 61, 0
2, 880800, Note_on_c, 0, 62, 109
2, 880959, Note_on_c, 0, 62, 0
2, 880959, Note_on_c, 0, 64, 109
2, 881120, Note_on_c, 0, 64, 0
2, 881120, Note_on_c, 0, 66, 109
2, 881280, Note_on_c, 0, 66, 0
2, 881280, Note_on_c, 0, 67, 83
2, 881400, Note_on_c, 0, 67, 0
2, 881400, Note_on_c, 0, 69, 83
2, 881520, Note_on_c, 0, 69, 0
2, 881520, Note_on_c, 0, 71, 83
2, 881640, Note_on_c, 0, 71, 0
2, 881640, Note_on_c, 0, 73, 83
2, 881760, Note_on_c, 0, 73, 0
2, 881760, Control_c, 0, 64, 127
2, 881760, Note_on_c, 0, 74, 83
2, 881828, Note_on_c, 0, 74, 0
2, 881828, Note_on_c, 0, 76, 83
2, 881897, Note_on_c, 0, 76, 0
2, 881897, Note_on_c, 0, 78, 83
2, 881965, Note_on_c, 0, 78, 0
2, 881965, Note_on_c, 0, 79, 83
2, 882034, Note_on_c, 0, 79, 0
2, 882034, Note_on_c, 0, 81, 83
2, 882102, Note_on_c, 0, 81, 0
2, 882102, Note_on_c, 0, 83, 83
2, 882171, Note_on_c, 0, 83, 0
2, 882171, Note_on_c, 0, 85, 83
2, 882240, Note_on_c, 0, 85, 0
2, 882240, Control_c, 0, 64, 0
2, 882240, Note_on_c, 0, 86, 83
2, 882720, Note_on_c, 0, 86, 0
2, 882720, Note_on_c, 0, 74, 109
2, 882720, Note_on_c, 0, 78, 109
2, 882720, Note_on_c, 0, 81, 109
2, 882720, Note_on_c, 0, 86, 109
2, 883200, Note_on_c, 0, 86, 0
2, 883200, Note_on_c, 0, 74, 0
2, 883200, Note_on_c, 0, 78, 0
2, 883200, Note_on_c, 0, 81, 0
2, 883200, Note_on_c, 0, 78, 109
2, 883200, Note_on_c, 0, 81, 109
2, 883200, Note_on_c, 0, 86, 109
2, 883200, Note_on_c, 0, 90, 109
2, 883680, Note_on_c, 0, 90, 0
2, 883680, Note_on_c, 0, 78, 0
2, 883680, Note_on_c, 0, 81, 0
2, 883680, Note_on_c, 0, 86, 0
2, 883680, Note_on_c, 0, 50, 109
2, 883839, Note_on_c, 0, 50, 0
2, 883839, Note_on_c, 0, 52, 109
2, 884000, Note_on_c, 0, 52, 0
2, 884000, Note_on_c, 0, 54, 109
2, 884160, Note_on_c, 0, 54, 0
2, 884160, Note_on_c, 0, 55, 109
2, 884280, Note_on_c, 0, 55, 0
2, 884280, Note_on_c, 0, 57, 109
2, 884400, Note_on_c, 0, 57, 0
2, 884400, Note_on_c, 0, 59, 109
2, 884520, Note_on_c, 0, 59, 0
2, 884520, Note_on_c, 0, 61, 109
2, 884640, Note_on_c, 0, 61, 0
2, 884640, Note_on_c, 0, 62, 109
2, 884799, Note_on_c, 0, 62, 0
2, 884799, Note_on_c, 0, 64, 109
2, 884960, Note_on_c, 0, 64, 0
2, 884960, Note_on_c, 0, 66, 109
2, 885120, Note_on_c, 0, 66, 0
2, 885120, Note_on_c, 0, 67, 83
2, 885240, Note_on_c, 0, 67, 0
2, 885240, Note_on_c, 0, 69, 83
2, 885360, Note_on_c, 0, 69, 0
2, 885360, Note_on_c, 0, 71, 83
2, 885480, Note_on_c, 0, 71, 0
2, 885480, Note_on_c, 0, 73, 83
2, 885600, Note_on_c, 0, 73, 0
2, 885600, Control_c, 0, 64, 127
2, 885600, Note_on_c, 0, 74, 83
2, 885668, Note_on_c, 0, 74, 0
2, 885668, Note_on_c, 0, 76, 83
2, 885737, Note_on_c, 0, 76, 0
2, 885737, Note_on_c, 0, 78, 83
2, 885805, Note_on_c, 0, 78, 0
2, 885805, Note_on_c, 0, 79, 83
2, 885874, Note_on_c, 0, 79, 0
2, 885874, Note_on_c, 0, 81, 83
2, 885942, Note_on_c, 0, 81, 0
2, 885942, Note_on_c, 0, 83, 83
2, 886011, Note_on_c, 0, 83, 0
2, 886011, Note_on_c, 0, 85, 83
2, 886080, Note_on_c, 0, 85, 0
2, 886080, Control_c, 0, 64, 0
2, 886080, Note_on_c, 0, 86, 83
2, 886560, Note_on_c, 0, 86, 0
2, 886560, Note_on_c, 0, 78, 109
2, 886560, Note_on_c, 0, 81, 109
2, 886560, Note_on_c, 0, 86, 109
2, 886560, Note_on_c, 0, 90, 109
2, 887040, Note_on_c, 0, 90, 0
2, 887040, Note_on_c, 0, 78, 0
2, 887040, Note_on_c, 0, 81, 0
2, 887040, Note_on_c, 0, 86, 0
2, 887040, Note_on_c, 0, 81, 109
2, 887040, Note_on_c, 0, 84, 109
2, 887040, Note_on_c, 0, 90, 109
2, 887040, Note_on_c, 0, 93, 109
2, 887280, Note_on_c, 0, 93, 0
2, 887280, Note_on_c, 0, 81, 0
2, 887280, Note_on_c, 0, 84, 0
2, 887280, Note_on_c, 0, 90, 0
2, 887280, Note_on_c, 0, 80, 109
2, 887280, Note_on_c, 0, 84, 109
2, 887280, Note_on_c, 0, 90, 109
2, 887280, Note_on_c, 0, 92, 109
2, 887520, Note_on_c, 0, 92, 0
2, 887520, Note_on_c, 0, 80, 0
2, 887520, Note_on_c, 0, 84, 0
2, 887520, Note_on_c, 0, 90, 0
2, 887520, Note_on_c, 0, 81, 109
2, 887520, Note_on_c, 0, 84, 109
2, 887520, Note_on_c, 0, 90, 109
2, 887520, Note_on_c, 0, 93, 109
2, 888000, Note_on_c, 0, 93, 0
2, 888000, Note_on_c, 0, 81, 0
2, 888000, Note_on_c, 0, 84, 0
2, 888000, Note_on_c, 0, 90, 0
2, 888000, Note_on_c, 0, 62, 109
2, 888480, Note_on_c, 0, 62, 0
2, 888480, Note_on_c, 0, 78, 109
2, 888480, Note_on_c, 0, 81, 109
2, 888480, Note_on_c, 0, 86, 109
2, 888480, Note_on_c, 0, 90, 109
2, 888960, Note_on_c, 0, 90, 0
2, 888960, Note_on_c, 0, 78, 0
2, 888960, Note_on_c, 0, 81, 0
2, 888960, Note_on_c, 0, 86, 0
2, 888960, Note_on_c, 0, 81, 109
2, 888960, Note_on_c, 0, 84, 109
2, 888960, Note_on_c, 0, 90, 109
2, 888960, Note_on_c, 0, 93, 109
2, 889200, Note_on_c, 0, 93, 0
2, 889200, Note_on_c, 0, 81, 0
2, 889200, Note_on_c, 0, 84, 0
2, 889200, Note_on_c, 0, 90, 0
2, 889200, Note_on_c, 0, 80, 109
2, 889200, Note_on_c, 0, 84, 109
2, 889200, Note_on_c, 0, 90, 109
2, 889200, Note_on_c, 0, 92, 109
2, 889440, Note_on_c, 0, 92, 0
2, 889440, Note_on_c, 0, 80, 0
2, 889440, Note_on_c, 0, 84, 0
2, 889440, Note_on_c, 0, 90, 0
2, 889440, Note_on_c, 0, 81, 109
2, 889440, Note_on_c, 0, 84, 109
2, 889440, Note_on_c, 0, 90, 109
2, 889440, Note_on_c, 0, 93, 109
2, 889920, Note_on_c, 0, 93, 0
2, 889920, Note_on_c, 0, 81, 0
2, 889920, Note_on_c, 0, 84, 0
2, 889920, Note_on_c, 0, 90, 0
2, 890880, Note_on_c, 0, 57, 83
2, 890880, Note_on_c, 0, 69, 83
2, 891000, Note_on_c, 0, 69, 0
2, 891000, Note_on_c, 0, 57, 0
2, 891000, Note_on_c, 0, 49, 83
2, 891120, Note_on_c, 0, 49, 0
2, 891120, Note_on_c, 0, 61, 83
2, 891120, Note_on_c, 0, 73, 83
2, 891240, Note_on_c, 0, 73, 0
2, 891240, Note_on_c, 0, 61, 0
2, 891240, Note_on_c, 0, 50, 83
2, 891360, Note_on_c, 0, 50, 0
2, 891360, Note_on_c, 0, 62, 83
2, 891360, Note_on_c, 0, 74, 83
2, 891480, Note_on_c, 0, 74, 0
2, 891480, Note_on_c, 0, 62, 0
2, 891480, Note_on_c, 0, 53, 83
2, 891600, Note_on_c, 0, 53, 0
2, 891600, Note_on_c, 0, 65, 83
2, 891600, Note_on_c, 0, 77, 83
2, 891720, Note_on_c, 0, 77, 0
2, 891720, Note_on_c, 0, 65, 0
2, 891720, Note_on_c, 0, 54, 83
2, 891840, Note_on_c, 0, 54, 0
2, 891840, Note_on_c, 0, 66, 83
2, 891840, Note_on_c, 0, 78, 83
2, 891960, Note_on_c, 0, 78, 0
2, 891960, Note_on_c, 0, 66, 0
2, 891960, Note_on_c, 0, 56, 83
2, 892080, Note_on_c, 0, 56, 0
2, 892080, Note_on_c, 0, 68, 83
2, 892080, Note_on_c, 0, 80, 83
2, 892200, Note_on_c, 0, 80, 0
2, 892200, Note_on_c, 0, 68, 0
2, 892200, Note_on_c, 0, 57, 83
2, 892320, Note_on_c, 0, 57, 0
2, 892320, Note_on_c, 0, 69, 83
2, 892320, Note_on_c, 0, 81, 83
2, 892440, Note_on_c, 0, 81, 0
2, 892440, Note_on_c, 0, 69, 0
2, 892440, Note_on_c, 0, 61, 83
2, 892560, Note_on_c, 0, 61, 0
2, 892560, Note_on_c, 0, 73, 83
2, 892560, Note_on_c, 0, 85, 83
2, 892680, Note_on_c, 0, 85, 0
2, 892680, Note_on_c, 0, 73, 0
2, 892680, Note_on_c, 0, 62, 83
2, 892800, Note_on_c, 0, 62, 0
2, 892800, Note_on_c, 0, 74, 83
2, 892800, Note_on_c, 0, 86, 83
2, 892920, Note_on_c, 0, 86, 0
2, 892920, Note_on_c, 0, 74, 0
2, 892920, Note_on_c, 0, 65, 83
2, 893040, Note_on_c, 0, 65, 0
2, 893040, Note_on_c, 0, 77, 83
2, 893040, Note_on_c, 0, 89, 83
2, 893160, Note_on_c, 0, 89, 0
2, 893160, Note_on_c, 0, 77, 0
2, 893160, Note_on_c, 0, 66, 83
2, 893280, Note_on_c, 0, 66, 0
2, 893280, Note_on_c, 0, 78, 83
2, 893280, Note_on_c, 0, 90, 83
2, 893400, Note_on_c, 0, 90, 0
2, 893400, Note_on_c, 0, 78, 0
2, 893400, Note_on_c, 0, 69, 83
2, 893520, Note_on_c, 0, 69, 0
2, 893520, Note_on_c, 0, 81, 83
2, 893520, Note_on_c, 0, 93, 83
2, 893640, Note_on_c, 0, 93, 0
2, 893640, Note_on_c, 0, 81, 0
2, 893640, Note_on_c, 0, 74, 83
2, 893760, Note_on_c, 0, 74, 0
2, 893760, Note_on_c, 0, 86, 83
2, 893760, Note_on_c, 0, 98, 83
2, 894240, Note_on_c, 0, 98, 0
2, 894240, Note_on_c, 0, 86, 0
2, 894240, Note_on_c, 0, 81, 109
2, 894240, Note_on_c, 0, 84, 109
2, 894240, Note_on_c, 0, 90, 109
2, 894240, Note_on_c, 0, 93, 109
2, 894720, Note_on_c, 0, 93, 0
2, 894720, Note_on_c, 0, 81, 0
2, 894720, Note_on_c, 0, 84, 0
2, 894720, Note_on_c, 0, 90, 0
2, 894720, Note_on_c, 0, 84, 109
2, 894720, Note_on_c, 0, 90, 109
2, 894720, Note_on_c, 0, 93, 109
2, 894720, Note_on_c, 0, 96, 109
2, 894960, Note_on_c, 0, 96, 0
2, 894960, Note_on_c, 0, 84, 0
2, 894960, Note_on_c, 0, 90, 0
2, 894960, Note_on_c, 0, 93, 0
2, 894960, Note_on_c, 0, 83, 109
2, 894960, Note_on_c, 0, 90, 109
2, 894960, Note_on_c, 0, 93, 109
2, 894960, Note_on_c, 0, 95, 109
2, 895200, Note_on_c, 0, 95, 0
2, 895200, Note_on_c, 0, 83, 0
2, 895200, Note_on_c, 0, 90, 0
2, 895200, Note_on_c, 0, 93, 0
2, 895200, Note_on_c, 0, 84, 109
2, 895200, Note_on_c, 0, 90, 109
2, 895200, Note_on_c, 0, 93, 109
2, 895200, Note_on_c, 0, 96, 109
2, 895680, Note_on_c, 0, 96, 0
2, 895680, Note_on_c, 0, 84, 0
2, 895680, Note_on_c, 0, 90, 0
2, 895680, Note_on_c, 0, 93, 0
2, 895680, Note_on_c, 0, 62, 109
2, 896160, Note_on_c, 0, 62, 0
2, 896160, Note_on_c, 0, 81, 109
2, 896160, Note_on_c, 0, 84, 109
2, 896160, Note_on_c, 0, 90, 109
2, 896160, Note_on_c, 0, 93, 109
2, 896640, Note_on_c, 0, 93, 0
2, 896640, Note_on_c, 0, 81, 0
2, 896640, Note_on_c, 0, 84, 0
2, 896640, Note_on_c, 0, 90, 0
2, 896640, Note_on_c, 0, 84, 83
2, 896640, Note_on_c, 0, 90, 83
2, 896640, Note_on_c, 0, 93, 83
2, 896640, Note_on_c, 0, 96, 83
2, 896880, Note_on_c, 0, 96, 0
2, 896880, Note_on_c, 0, 84, 0
2, 896880, Note_on_c, 0, 90, 0
2, 896880, Note_on_c, 0, 93, 0
2, 896880, Note_on_c, 0, 83, 83
2, 896880, Note_on_c, 0, 90, 83
2, 896880, Note_on_c, 0, 93, 83
2, 896880, Note_on_c, 0, 95, 83
2, 897120, Note_on_c, 0, 95, 0
2, 897120, Note_on_c, 0, 83, 0
2, 897120, Note_on_c, 0, 90, 0
2, 897120, Note_on_c, 0, 93, 0
2, 897120, Note_on_c, 0, 84, 83
2, 897120, Note_on_c, 0, 90, 83
2, 897120, Note_on_c, 0, 93, 83
2, 897120, Note_on_c, 0, 96, 83
2, 897600, Note_on_c, 0, 96, 0
2, 897600, Note_on_c, 0, 84, 0
2, 897600, Note_on_c, 0, 90, 0
2, 897600, Note_on_c, 0, 93, 0
2, 898560, Note_on_c, 0, 57, 83
2, 898560, Note_on_c, 0, 69, 83
2, 898680, Note_on_c, 0, 69, 0
2, 898680, Note_on_c, 0, 57, 0
2, 898680, Note_on_c, 0, 49, 83
2, 898800, Note_on_c, 0, 49, 0
2, 898800, Note_on_c, 0, 61, 83
2, 898800, Note_on_c, 0, 73, 83
2, 898920, Note_on_c, 0, 73, 0
2, 898920, Note_on_c, 0, 61, 0
2, 898920, Note_on_c, 0, 50, 83
2, 899040, Note_on_c, 0, 50, 0
2, 899040, Note_on_c, 0, 62, 83
2, 899040, Note_on_c, 0, 74, 83
2, 899160, Note_on_c, 0, 74, 0
2, 899160, Note_on_c, 0, 62, 0
2, 899160, Note_on_c, 0, 53, 83
2, 899280, Note_on_c, 0, 53, 0
2, 899280, Note_on_c, 0, 65, 83
2, 899280, Note_on_c, 0, 77, 83
2, 899400, Note_on_c, 0, 77, 0
2, 899400, Note_on_c, 0, 65, 0
2, 899400, Note_on_c, 0, 54, 83
2, 899520, Note_on_c, 0, 54, 0
2, 899520, Note_on_c, 0, 66, 83
2, 899520, Note_on_c, 0, 78, 83
2, 899640, Note_on_c, 0, 78, 0
2, 899640, Note_on_c, 0, 66, 0
2, 899640, Note_on_c, 0, 56, 83
2, 899760, Note_on_c, 0, 56, 0
2, 899760, Note_on_c, 0, 68, 83
2, 899760, Note_on_c, 0, 80, 83
2, 899880, Note_on_c, 0, 80, 0
2, 899880, Note_on_c, 0, 68, 0
2, 899880, Note_on_c, 0, 57, 83
2, 900000, Note_on_c, 0, 57, 0
2, 900000, Note_on_c, 0, 69, 83
2, 900000, Note_on_c, 0, 81, 83
2, 900120, Note_on_c, 0, 81, 0
2, 900120, Note_on_c, 0, 69, 0
2, 900120, Note_on_c, 0, 61, 83
2, 900240, Note_on_c, 0, 61, 0
2, 900240, Note_on_c, 0, 73, 83
2, 900240, Note_on_c, 0, 85, 83
2, 900360, Note_on_c, 0, 85, 0
2, 900360, Note_on_c, 0, 73, 0
2, 900360, Note_on_c, 0, 62, 83
2, 900480, Note_on_c, 0, 62, 0
2, 900480, Note_on_c, 0, 74, 83
2, 900480, Note_on_c, 0, 86, 83
2, 900600, Note_on_c, 0, 86, 0
2, 900600, Note_on_c, 0, 74, 0
2, 900600, Note_on_c, 0, 65, 83
2, 900720, Note_on_c, 0, 65, 0
2, 900720, Note_on_c, 0, 77, 83
2, 900720, Note_on_c, 0, 89, 83
2, 900840, Note_on_c, 0, 89, 0
2, 900840, Note_on_c, 0, 77, 0
2, 900840, Note_on_c, 0, 66, 83
2, 900960, Note_on_c, 0, 66, 0
2, 900960, Note_on_c, 0, 78, 83
2, 900960, Note_on_c, 0, 90, 83
2, 901080, Note_on_c, 0, 90, 0
2, 901080, Note_on_c, 0, 78, 0
2, 901080, Note_on_c, 0, 69, 83
2, 901200, Note_on_c, 0, 69, 0
2, 901200, Note_on_c, 0, 81, 83
2, 901200, Note_on_c, 0, 93, 83
2, 901320, Note_on_c, 0, 93, 0
2, 901320, Note_on_c, 0, 81, 0
2, 901320, Note_on_c, 0, 74, 83
2, 901440, Note_on_c, 0, 74, 0
2, 901440, Note_on_c, 0, 86, 83
2, 901440, Note_on_c, 0, 98, 83
2, 901560, Note_on_c, 0, 98, 0
2, 901560, Note_on_c, 0, 86, 0
2, 901560, Note_on_c, 0, 77, 83
2, 901680, Note_on_c, 0, 77, 0
2, 901680, Note_on_c, 0, 86, 83
2, 901680, Note_on_c, 0, 98, 83
2, 901800, Note_on_c, 0, 98, 0
2, 901800, Note_on_c, 0, 86, 0
2, 901800, Note_on_c, 0, 77, 83
2, 901920, Note_on_c, 0, 77, 0
2, 901920, Note_on_c, 0, 86, 83
2, 901920, Note_on_c, 0, 98, 83
2, 902040, Note_on_c, 0, 98, 0
2, 902040, Note_on_c, 0, 86, 0
2, 902040, Note_on_c, 0, 78, 83
2, 902160, Note_on_c, 0, 78, 0
2, 902160, Note_on_c, 0, 86, 83
2, 902160, Note_on_c, 0, 98, 83
2, 902280, Note_on_c, 0, 98, 0
2, 902280, Note_on_c, 0, 86, 0
2, 902280, Note_on_c, 0, 79, 83
2, 902400, Note_on_c, 0, 79, 0
2, 902400, Note_on_c, 0, 86, 83
2, 902400, Note_on_c, 0, 98, 83
2, 902520, Note_on_c, 0, 98, 0
2, 902520, Note_on_c, 0, 86, 0
2, 902520, Note_on_c, 0, 80, 83
2, 902640, Note_on_c, 0, 80, 0
2, 902640, Note_on_c, 0, 86, 83
2, 902640, Note_on_c, 0, 98, 83
2, 902760, Note_on_c, 0, 98, 0
2, 902760, Note_on_c, 0, 86, 0
2, 902760, Note_on_c, 0, 81, 83
2, 902880, Note_on_c, 0, 81, 0
2, 902880, Note_on_c, 0, 86, 83
2, 902880, Note_on_c, 0, 98, 83
2, 903000, Note_on_c, 0, 98, 0
2, 903000, Note_on_c, 0, 86, 0
2, 903000, Note_on_c, 0, 82, 83
2, 903120, Note_on_c, 0, 82, 0
2, 903120, Note_on_c, 0, 86, 83
2, 903120, Note_on_c, 0, 98, 83
2, 903240, Note_on_c, 0, 98, 0
2, 903240, Note_on_c, 0, 86, 0
2, 903240, Note_on_c, 0, 83, 83
2, 903360, Note_on_c, 0, 83, 0
2, 903360, Note_on_c, 0, 86, 83
2, 903360, Note_on_c, 0, 98, 83
2, 903480, Note_on_c, 0, 98, 0
2, 903480, Note_on_c, 0, 86, 0
2, 903480, Note_on_c, 0, 84, 83
2, 903600, Note_on_c, 0, 84, 0
2, 903600, Note_on_c, 0, 86, 83
2, 903600, Note_on_c, 0, 98, 83
2, 903720, Note_on_c, 0, 98, 0
2, 903720, Note_on_c, 0, 86, 0
2, 903720, Note_on_c, 0, 85, 83
2, 903840, Note_on_c, 0, 85, 0
2, 903840, Note_on_c, 0, 86, 83
2, 903840, Note_on_c, 0, 98, 83
2, 903960, Note_on_c, 0, 98, 0
2, 903960, Note_on_c, 0, 86, 0
2, 903960, Note_on_c, 0, 86, 83
2, 904080, Note_on_c, 0, 86, 0
2, 904080, Note_on_c, 0, 86, 83
2, 904080, Note_on_c, 0, 98, 83
2, 904200, Note_on_c, 0, 98, 0
2, 904200, Note_on_c, 0, 86, 0
2, 904200, Note_on_c, 0, 88, 83
2, 904320, Note_on_c, 0, 88, 0
2, 904320, Note_on_c, 0, 86, 83
2, 904320, Note_on_c, 0, 98, 83
2, 904440, Note_on_c, 0, 98, 0
2, 904440, Note_on_c, 0, 86, 0
2, 904440, Note_on_c, 0, 89, 83
2, 904560, Note_on_c, 0, 89, 0
2, 904560, Note_on_c, 0, 86, 83
2, 904560, Note_on_c, 0, 98, 83
2, 904680, Note_on_c, 0, 98, 0
2, 904680, Note_on_c, 0, 86, 0
2, 904680, Note_on_c, 0, 90, 83
2, 904800, Note_on_c, 0, 90, 0
2, 904800, Note_on_c, 0, 86, 83
2, 904800, Note_on_c, 0, 98, 83
2, 904920, Note_on_c, 0, 98, 0
2, 904920, Note_on_c, 0, 86, 0
2, 904920, Note_on_c, 0, 91, 83
2, 905040, Note_on_c, 0, 91, 0
2, 905040, Note_on_c, 0, 86, 83
2, 905040, Note_on_c, 0, 98, 83
2, 905160, Note_on_c, 0, 98, 0
2, 905160, Note_on_c, 0, 86, 0
2, 905160, Note_on_c, 0, 92, 83
2, 905280, Note_on_c, 0, 92, 0
2, 905280, Note_on_c, 0, 86, 83
2, 905280, Note_on_c, 0, 98, 83
2, 905400, Note_on_c, 0, 98, 0
2, 905400, Note_on_c, 0, 86, 0
2, 905400, Note_on_c, 0, 93, 83
2, 905520, Note_on_c, 0, 93, 0
2, 905520, Note_on_c, 0, 86, 83
2, 905520, Note_on_c, 0, 98, 83
2, 905640, Note_on_c, 0, 98, 0
2, 905640, Note_on_c, 0, 86, 0
2, 905640, Note_on_c, 0, 94, 83
2, 905760, Note_on_c, 0, 94, 0
2, 905760, Note_on_c, 0, 86, 83
2, 905760, Note_on_c, 0, 98, 83
2, 905880, Note_on_c, 0, 98, 0
2, 905880, Note_on_c, 0, 86, 0
2, 905880, Note_on_c, 0, 95, 83
2, 906000, Note_on_c, 0, 95, 0
2, 906000, Note_on_c, 0, 86, 83
2, 906000, Note_on_c, 0, 98, 83
2, 906120, Note_on_c, 0, 98, 0
2, 906120, Note_on_c, 0, 86, 0
2, 906120, Note_on_c, 0, 96, 83
2, 906240, Note_on_c, 0, 96, 0
2, 906240, Control_c, 0, 64, 127
2, 906240, Note_on_c, 0, 86, 83
2, 906240, Note_on_c, 0, 98, 83
2, 906360, Note_on_c, 0, 98, 0
2, 906360, Note_on_c, 0, 86, 0
2, 906360, Note_on_c, 0, 97, 83
2, 906480, Note_on_c, 0, 97, 0
2, 906480, Note_on_c, 0, 86, 83
2, 906480, Note_on_c, 0, 98, 83
2, 906600, Note_on_c, 0, 98, 0
2, 906600, Note_on_c, 0, 86, 0
2, 906600, Note_on_c, 0, 97, 83
2, 906720, Note_on_c, 0, 97, 0
2, 906720, Note_on_c, 0, 86, 83
2, 906720, Note_on_c, 0, 98, 83
2, 906840, Note_on_c, 0, 98, 0
2, 906840, Note_on_c, 0, 86, 0
2, 906840, Note_on_c, 0, 97, 83
2, 906960, Note_on_c, 0, 97, 0
2, 906960, Note_on_c, 0, 86, 83
2, 906960, Note_on_c, 0, 98, 83
2, 907080, Note_on_c, 0, 98, 0
2, 907080, Note_on_c, 0, 86, 0
2, 907080, Note_on_c, 0, 97, 83
2, 907200, Note_on_c, 0, 97, 0
2, 907200, Note_on_c, 0, 86, 83
2, 907200, Note_on_c, 0, 98, 83
2, 907320, Note_on_c, 0, 98, 0
2, 907320, Note_on_c, 0, 86, 0
2, 907320, Note_on_c, 0, 97, 83
2, 907440, Note_on_c, 0, 97, 0
2, 907440, Note_on_c, 0, 86, 83
2, 907440, Note_on_c, 0, 98, 83
2, 907560, Note_on_c, 0, 98, 0
2, 907560, Note_on_c, 0, 86, 0
2, 907560, Note_on_c, 0, 97, 83
2, 907680, Note_on_c, 0, 97, 0
2, 907680, Note_on_c, 0, 86, 83
2, 907680, Note_on_c, 0, 98, 83
2, 907800, Note_on_c, 0, 98, 0
2, 907800, Note_on_c, 0, 86, 0
2, 907800, Note_on_c, 0, 97, 83
2, 907920, Note_on_c, 0, 97, 0
2, 907920, Note_on_c, 0, 86, 83
2, 907920, Note_on_c, 0, 98, 83
2, 908040, Note_on_c, 0, 98, 0
2, 908040, Note_on_c, 0, 86, 0
2, 908040, Note_on_c, 0, 97, 83
2, 908160, Note_on_c, 0, 97, 0
2, 908160, Note_on_c, 0, 86, 83
2, 908160, Note_on_c, 0, 98, 83
2, 908280, Note_on_c, 0, 98, 0
2, 908280, Note_on_c, 0, 86, 0
2, 908280, Note_on_c, 0, 97, 83
2, 908400, Note_on_c, 0, 97, 0
2, 908400, Note_on_c, 0, 86, 83
2, 908400, Note_on_c, 0, 98, 83
2, 908520, Note_on_c, 0, 98, 0
2, 908520, Note_on_c, 0, 86, 0
2, 908520, Note_on_c, 0, 97, 83
2, 908640, Note_on_c, 0, 97, 0
2, 908640, Note_on_c, 0, 86, 83
2, 908640, Note_on_c, 0, 98, 83
2, 908760, Note_on_c, 0, 98, 0
2, 908760, Note_on_c, 0, 86, 0
2, 908760, Note_on_c, 0, 97, 83
2, 908880, Note_on_c, 0, 97, 0
2, 908880, Note_on_c, 0, 86, 83
2, 908880, Note_on_c, 0, 98, 83
2, 909000, Note_on_c, 0, 98, 0
2, 909000, Note_on_c, 0, 86, 0
2, 909000, Note_on_c, 0, 97, 83
2, 909120, Note_on_c, 0, 97, 0
2, 909120, Note_on_c, 0, 86, 83
2, 909120, Note_on_c, 0, 98, 83
2, 909240, Note_on_c, 0, 98, 0
2, 909240, Note_on_c, 0, 86, 0
2, 909240, Note_on_c, 0, 97, 83
2, 909360, Note_on_c, 0, 97, 0
2, 909360, Note_on_c, 0, 86, 83
2, 909360, Note_on_c, 0, 98, 83
2, 909480, Note_on_c, 0, 98, 0
2, 909480, Note_on_c, 0, 86, 0
2, 909480, Note_on_c, 0, 97, 83
2, 909600, Note_on_c, 0, 97, 0
2, 909600, Note_on_c, 0, 86, 83
2, 909600, Note_on_c, 0, 98, 83
2, 909720, Note_on_c, 0, 98, 0
2, 909720, Note_on_c, 0, 86, 0
2, 909720, Note_on_c, 0, 97, 83
2, 909840, Note_on_c, 0, 97, 0
2, 909840, Note_on_c, 0, 86, 83
2, 909840, Note_on_c, 0, 98, 83
2, 909960, Note_on_c, 0, 98, 0
2, 909960, Note_on_c, 0, 86, 0
2, 909960, Note_on_c, 0, 97, 83
2, 910080, Note_on_c, 0, 97, 0
2, 910080, Note_on_c, 0, 86, 83
2, 910080, Note_on_c, 0, 98, 83
2, 910200, Note_on_c, 0, 98, 0
2, 910200, Note_on_c, 0, 86, 0
2, 910200, Note_on_c, 0, 97, 83
2, 910320, Note_on_c, 0, 97, 0
2, 910320, Note_on_c, 0, 86, 83
2, 910320, Note_on_c, 0, 98, 83
2, 910440, Note_on_c, 0, 98, 0
2, 910440, Note_on_c, 0, 86, 0
2, 910440, Note_on_c, 0, 97, 83
2, 910560, Note_on_c, 0, 97, 0
2, 910560, Note_on_c, 0, 86, 83
2, 910560, Note_on_c, 0, 98, 83
2, 910680, Note_on_c, 0, 98, 0
2, 910680, Note_on_c, 0, 86, 0
2, 910680, Note_on_c, 0, 97, 83
2, 910800, Note_on_c, 0, 97, 0
2, 910800, Note_on_c, 0, 86, 83
2, 910800, Note_on_c, 0, 98, 83
2, 910920, Note_on_c, 0, 98, 0
2, 910920, Note_on_c, 0, 86, 0
2, 910920, Note_on_c, 0, 97, 83
2, 911040, Note_on_c, 0, 97, 0
2, 911040, Note_on_c, 0, 86, 83
2, 911040, Note_on_c, 0, 98, 83
2, 911160, Note_on_c, 0, 98, 0
2, 911160, Note_on_c, 0, 86, 0
2, 911160, Note_on_c, 0, 97, 83
2, 911280, Note_on_c, 0, 97, 0
2, 911280, Note_on_c, 0, 86, 83
2, 911280, Note_on_c, 0, 98, 83
2, 911400, Note_on_c, 0, 98, 0
2, 911400, Note_on_c, 0, 86, 0
2, 911400, Note_on_c, 0, 97, 83
2, 911520, Note_on_c, 0, 97, 0
2, 911520, Note_on_c, 0, 86, 83
2, 911520, Note_on_c, 0, 98, 83
2, 911640, Note_on_c, 0, 98, 0
2, 911640, Note_on_c, 0, 86, 0
2, 911640, Note_on_c, 0, 97, 83
2, 911760, Note_on_c, 0, 97, 0
2, 911760, Note_on_c, 0, 86, 83
2, 911760, Note_on_c, 0, 98, 83
2, 911880, Note_on_c, 0, 98, 0
2, 911880, Note_on_c, 0, 86, 0
2, 911880, Note_on_c, 0, 97, 83
2, 912000, Note_on_c, 0, 97, 0
2, 912000, Note_on_c, 0, 86, 83
2, 912000, Note_on_c, 0, 98, 83
2, 912120, Note_on_c, 0, 98, 0
2, 912120, Note_on_c, 0, 86, 0
2, 912120, Note_on_c, 0, 97, 83
2, 912240, Note_on_c, 0, 97, 0
2, 912240, Note_on_c, 0, 86, 83
2, 912240, Note_on_c, 0, 98, 83
2, 912360, Note_on_c, 0, 98, 0
2, 912360, Note_on_c, 0, 86, 0
2, 912360, Note_on_c, 0, 97, 83
2, 912480, Note_on_c, 0, 97, 0
2, 912480, Note_on_c, 0, 86, 83
2, 912480, Note_on_c, 0, 98, 83
2, 912600, Note_on_c, 0, 98, 0
2, 912600, Note_on_c, 0, 86, 0
2, 912600, Note_on_c, 0, 97, 83
2, 912720, Note_on_c, 0, 97, 0
2, 912720, Note_on_c, 0, 86, 83
2, 912720, Note_on_c, 0, 98, 83
2, 912840, Note_on_c, 0, 98, 0
2, 912840, Note_on_c, 0, 86, 0
2, 912840, Note_on_c, 0, 97, 83
2, 912960, Note_on_c, 0, 97, 0
2, 912960, Note_on_c, 0, 86, 83
2, 912960, Note_on_c, 0, 98, 83
2, 913080, Note_on_c, 0, 98, 0
2, 913080, Note_on_c, 0, 86, 0
2, 913080, Note_on_c, 0, 97, 83
2, 913200, Note_on_c, 0, 97, 0
2, 913200, Note_on_c, 0, 86, 83
2, 913200, Note_on_c, 0, 98, 83
2, 913320, Note_on_c, 0, 98, 0
2, 913320, Note_on_c, 0, 86, 0
2, 913320, Note_on_c, 0, 97, 83
2, 913440, Note_on_c, 0, 97, 0
2, 913440, Note_on_c, 0, 86, 83
2, 913440, Note_on_c, 0, 98, 83
2, 913560, Note_on_c, 0, 98, 0
2, 913560, Note_on_c, 0, 86, 0
2, 913560, Note_on_c, 0, 97, 83
2, 913680, Note_on_c, 0, 97, 0
2, 913680, Control_c, 0, 64, 0
2, 913680, Note_on_c, 0, 86, 83
2, 913680, Note_on_c, 0, 98, 83
2, 913800, Note_on_c, 0, 98, 0
2, 913800, Note_on_c, 0, 86, 0
2, 913800, Note_on_c, 0, 102, 83
2, 913920, Note_on_c, 0, 102, 0
2, 913920, Note_on_c, 0, 91, 83
2, 913920, Note_on_c, 0, 103, 83
2, 914040, Note_on_c, 0, 103, 0
2, 914040, Note_on_c, 0, 91, 0
2, 914040, Note_on_c, 0, 102, 83
2, 914160, Note_on_c, 0, 102, 0
2, 914160, Note_on_c, 0, 91, 83
2, 914160, Note_on_c, 0, 103, 83
2, 914280, Note_on_c, 0, 103, 0
2, 914280, Note_on_c, 0, 91, 0
2, 914280, Note_on_c, 0, 102, 83
2, 914400, Note_on_c, 0, 102, 0
2, 914400, Note_on_c, 0, 91, 83
2, 914400, Note_on_c, 0, 103, 83
2, 914520, Note_on_c, 0, 103, 0
2, 914520, Note_on_c, 0, 91, 0
2, 914520, Note_on_c, 0, 102, 83
2, 914640, Note_on_c, 0, 102, 0
2, 914640, Note_on_c, 0, 91, 83
2, 914640, Note_on_c, 0, 103, 83
2, 914760, Note_on_c, 0, 103, 0
2, 914760, Note_on_c, 0, 91, 0
2, 914760, Note_on_c, 0, 102, 83
2, 914880, Note_on_c, 0, 102, 0
2, 914880, Note_on_c, 0, 91, 83
2, 914880, Note_on_c, 0, 103, 83
2, 915000, Note_on_c, 0, 103, 0
2, 915000, Note_on_c, 0, 91, 0
2, 915000, Note_on_c, 0, 102, 83
2, 915120, Note_on_c, 0, 102, 0
2, 915120, Note_on_c, 0, 91, 83
2, 915120, Note_on_c, 0, 103, 83
2, 915240, Note_on_c, 0, 103, 0
2, 915240, Note_on_c, 0, 91, 0
2, 915240, Note_on_c, 0, 97, 83
2, 915360, Note_on_c, 0, 97, 0
2, 915360, Note_on_c, 0, 86, 83
2, 915360, Note_on_c, 0, 98, 83
2, 915480, Note_on_c, 0, 98, 0
2, 915480, Note_on_c, 0, 86, 0
2, 915480, Note_on_c, 0, 97, 83
2, 915600, Note_on_c, 0, 97, 0
2, 915600, Note_on_c, 0, 86, 83
2, 915600, Note_on_c, 0, 98, 83
2, 915720, Note_on_c, 0, 98, 0
2, 915720, Note_on_c, 0, 86, 0
2, 915720, Note_on_c, 0, 97, 83
2, 915840, Note_on_c, 0, 97, 0
2, 915840, Note_on_c, 0, 86, 83
2, 915840, Note_on_c, 0, 98, 83
2, 915960, Note_on_c, 0, 98, 0
2, 915960, Note_on_c, 0, 86, 0
2, 915960, Note_on_c, 0, 97, 83
2, 916080, Note_on_c, 0, 97, 0
2, 916080, Note_on_c, 0, 86, 83
2, 916080, Note_on_c, 0, 98, 83
2, 916200, Note_on_c, 0, 98, 0
2, 916200, Note_on_c, 0, 86, 0
2, 916200, Note_on_c, 0, 97, 83
2, 916320, Note_on_c, 0, 97, 0
2, 916320, Note_on_c, 0, 86, 83
2, 916320, Note_on_c, 0, 98, 83
2, 916351, Note_on_c, 0, 98, 0
2, 916351, Note_on_c, 0, 86, 0
2, 916479, Note_on_c, 0, 93, 83
2, 916511, Note_on_c, 0, 93, 0
2, 916640, Note_on_c, 0, 90, 83
2, 916672, Note_on_c, 0, 90, 0
2, 916800, Note_on_c, 0, 86, 83
2, 916831, Note_on_c, 0, 86, 0
2, 916959, Note_on_c, 0, 81, 83
2, 916991, Note_on_c, 0, 81, 0
2, 917120, Note_on_c, 0, 78, 83
2, 917152, Note_on_c, 0, 78, 0
2, 917280, Note_on_c, 0, 74, 83
2, 917376, Note_on_c, 0, 74, 0
2, 978240, Control_c, 0, 64, 127
2, 978240, Note_on_c, 0, 65, 70
2, 978240, Note_on_c, 0, 72, 70
2, 978240, Note_on_c, 0, 75, 70
2, 978240, Note_on_c, 0, 77, 70
2, 978720, Note_on_c, 0, 77, 0
2, 978720, Note_on_c, 0, 65, 0
2, 978720, Note_on_c, 0, 72, 0
2, 978720, Note_on_c, 0, 75, 0
2, 978720, Note_on_c, 0, 72, 70
2, 978720, Note_on_c, 0, 84, 70
2, 979200, Note_on_c, 0, 84, 0
2, 979200, Note_on_c, 0, 72, 0
2, 979200, Note_on_c, 0, 69, 70
2, 979200, Note_on_c, 0, 81, 70
2, 979680, Note_on_c, 0, 81, 0
2, 979680, Note_on_c, 0, 69, 0
2, 979680, Note_on_c, 0, 67, 70
2, 979680, Note_on_c, 0, 79, 70
2, 979920, Note_on_c, 0, 79, 0
2, 979920, Note_on_c, 0, 67, 0
2, 979920, Control_c, 0, 64, 0
2, 979920, Note_on_c, 0, 69, 70
2, 979920, Note_on_c, 0, 81, 70
2, 980160, Note_on_c, 0, 81, 0
2, 980160, Note_on_c, 0, 69, 0
2, 980160, Note_on_c, 0, 65, 70
2, 980160, Note_on_c, 0, 77, 70
2, 981600, Note_on_c, 0, 77, 0
2, 981600, Note_on_c, 0, 65, 0
2, 981600, Note_on_c, 0, 63, 70
2, 981600, Note_on_c, 0, 75, 70
2, 982080, Note_on_c, 0, 75, 0
2, 982080, Note_on_c, 0, 63, 0
2, 982080, Control_c, 0, 64, 127
2, 982080, Note_on_c, 0, 62, 70
2, 982080, Note_on_c, 0, 74, 70
2, 982320, Note_on_c, 0, 74, 0
2, 982320, Note_on_c, 0, 62, 0
2, 982320, Note_on_c, 0, 65, 70
2, 982320, Note_on_c, 0, 77, 70
2, 982560, Note_on_c, 0, 77, 0
2, 982560, Note_on_c, 0, 65, 0
2, 982560, Note_on_c, 0, 70, 83
2, 982560, Note_on_c, 0, 82, 83
2, 982800, Note_on_c, 0, 82, 0
2, 982800, Note_on_c, 0, 70, 0
2, 982800, Control_c, 0, 64, 0
2, 982800, Note_on_c, 0, 74, 83
2, 982800, Note_on_c, 0, 86, 83
2, 983040, Note_on_c, 0, 86, 0
2, 983040, Note_on_c, 0, 74, 0
2, 983040, Note_on_c, 0, 77, 109
2, 983040, Note_on_c, 0, 89, 109
2, 983760, Note_on_c, 0, 89, 0
2, 983760, Note_on_c, 0, 77, 0
2, 983760, Note_on_c, 0, 74, 83
2, 983760, Note_on_c, 0, 86, 83
2, 984000, Note_on_c, 0, 86, 0
2, 984000, Note_on_c, 0, 74, 0
2, 984000, Note_on_c, 0, 73, 83
2, 984000, Note_on_c, 0, 85, 83
2, 984240, Note_on_c, 0, 85, 0
2, 984240, Note_on_c, 0, 73, 0
2, 984240, Note_on_c, 0, 74, 83
2, 984240, Note_on_c, 0, 86, 83
2, 984480, Note_on_c, 0, 86, 0
2, 984480, Note_on_c, 0, 74, 0
2, 984480, Note_on_c, 0, 70, 83
2, 984480, Note_on_c, 0, 82, 83
2, 984960, Note_on_c, 0, 82, 0
2, 984960, Note_on_c, 0, 70, 0
2, 985920, Control_c, 0, 64, 127
2, 985920, Note_on_c, 0, 65, 70
2, 985920, Note_on_c, 0, 72, 70
2, 985920, Note_on_c, 0, 75, 70
2, 985920, Note_on_c, 0, 77, 70
2, 986400, Note_on_c, 0, 77, 0
2, 986400, Note_on_c, 0, 65, 0
2, 986400, Note_on_c, 0, 72, 0
2, 986400, Note_on_c, 0, 75, 0
2, 986400, Note_on_c, 0, 72, 70
2, 986400, Note_on_c, 0, 84, 70
2, 986880, Note_on_c, 0, 84, 0
2, 986880, Note_on_c, 0, 72, 0
2, 986880, Note_on_c, 0, 69, 70
2, 986880, Note_on_c, 0, 81, 70
2, 987360, Note_on_c, 0, 81, 0
2, 987360, Note_on_c, 0, 69, 0
2, 987360, Note_on_c, 0, 67, 70
2, 987360, Note_on_c, 0, 79, 70
2, 987600, Note_on_c, 0, 79, 0
2, 987600, Note_on_c, 0, 67, 0
2, 987600, Control_c, 0, 64, 0
2, 987600, Note_on_c, 0, 69, 70
2, 987600, Note_on_c, 0, 81, 70
2, 987840, Note_on_c, 0, 81, 0
2, 987840, Note_on_c, 0, 69, 0
2, 987840, Note_on_c, 0, 65, 70
2, 987840, Note_on_c, 0, 77, 70
2, 989280, Note_on_c, 0, 77, 0
2, 989280, Note_on_c, 0, 65, 0
2, 989280, Note_on_c, 0, 63, 70
2, 989280, Note_on_c, 0, 75, 70
2, 989760, Note_on_c, 0, 75, 0
2, 989760, Note_on_c, 0, 63, 0
2, 989760, Control_c, 0, 64, 127
2, 989760, Note_on_c, 0, 62, 70
2, 989760, Note_on_c, 0, 74, 70
2, 990000, Note_on_c, 0, 74, 0
2, 990000, Note_on_c, 0, 62, 0
2, 990000, Note_on_c, 0, 58, 70
2, 990000, Note_on_c, 0, 70, 70
2, 990240, Note_on_c, 0, 70, 0
2, 990240, Note_on_c, 0, 58, 0
2, 990240, Note_on_c, 0, 62, 83
2, 990240, Note_on_c, 0, 74, 83
2, 990480, Note_on_c, 0, 74, 0
2, 990480, Note_on_c, 0, 62, 0
2, 990480, Control_c, 0, 64, 0
2, 990480, Note_on_c, 0, 65, 83
2, 990480, Note_on_c, 0, 77, 83
2, 990720, Note_on_c, 0, 77, 0
2, 990720, Note_on_c, 0, 65, 0
2, 990720, Note_on_c, 0, 70, 109
2, 990720, Note_on_c, 0, 82, 109
2, 991440, Note_on_c, 0, 82, 0
2, 991440, Note_on_c, 0, 70, 0
2, 991440, Note_on_c, 0, 67, 83
2, 991440, Note_on_c, 0, 79, 83
2, 991680, Note_on_c, 0, 79, 0
2, 991680, Note_on_c, 0, 67, 0
2, 991680, Note_on_c, 0, 63, 83
2, 991680, Note_on_c, 0, 75, 83
2, 991920, Note_on_c, 0, 75, 0
2, 991920, Note_on_c, 0, 63, 0
2, 991920, Note_on_c, 0, 67, 83
2, 991920, Note_on_c, 0, 79, 83
2, 992160, Note_on_c, 0, 79, 0
2, 992160, Note_on_c, 0, 67, 0
2, 992160, Note_on_c, 0, 65, 83
2, 992160, Note_on_c, 0, 77, 83
2, 992640, Note_on_c, 0, 77, 0
2, 992640, Note_on_c, 0, 65, 0
2, 993600, Control_c, 0, 64, 127
2, 993600, Note_on_c, 0, 34, 70
2, 993600, Note_on_c, 0, 46, 70
2, 993759, Note_on_c, 0, 46, 0
2, 993759, Note_on_c, 0, 34, 0
2, 993759, Note_on_c, 0, 53, 70
2, 993759, Note_on_c, 0, 65, 70
2, 993920, Note_on_c, 0, 65, 0
2, 993920, Note_on_c, 0, 53, 0
2, 993920, Note_on_c, 0, 53, 70
2, 993920, Note_on_c, 0, 65, 70
2, 994080, Note_on_c, 0, 65, 0
2, 994080, Note_on_c, 0, 53, 0
2, 994080, Note_on_c, 0, 53, 70
2, 994239, Note_on_c, 0, 53, 0
2, 994239, Note_on_c, 0, 65, 70
2, 994239, Note_on_c, 0, 77, 70
2, 994400, Note_on_c, 0, 77, 0
2, 994400, Note_on_c, 0, 65, 0
2, 994400, Note_on_c, 0, 65, 70
2, 994400, Note_on_c, 0, 77, 70
2, 994560, Note_on_c, 0, 77, 0
2, 994560, Note_on_c, 0, 65, 0
2, 994560, Note_on_c, 0, 65, 70
2, 994719, Note_on_c, 0, 65, 0
2, 994719, Note_on_c, 0, 77, 70
2, 994719, Note_on_c, 0, 89, 70
2, 994880, Note_on_c, 0, 89, 0
2, 994880, Note_on_c, 0, 77, 0
2, 994880, Note_on_c, 0, 77, 70
2, 994880, Note_on_c, 0, 89, 70
2, 995040, Note_on_c, 0, 89, 0
2, 995040, Note_on_c, 0, 77, 0
2, 995040, Note_on_c, 0, 77, 70
2, 995199, Note_on_c, 0, 77, 0
2, 995199, Note_on_c, 0, 89, 70
2, 995199, Note_on_c, 0, 101, 70
2, 995360, Note_on_c, 0, 101, 0
2, 995360, Note_on_c, 0, 89, 0
2, 995360, Note_on_c, 0, 89, 70
2, 995360, Note_on_c, 0, 101, 70
2, 995520, Note_on_c, 0, 101, 0
2, 995520, Note_on_c, 0, 89, 0
2, 995520, Note_on_c, 0, 89, 70
2, 995679, Note_on_c, 0, 89, 0
2, 995679, Note_on_c, 0, 89, 70
2, 995679, Note_on_c, 0, 101, 70
2, 995840, Note_on_c, 0, 101, 0
2, 995840, Note_on_c, 0, 89, 0
2, 995840, Note_on_c, 0, 89, 70
2, 995840, Note_on_c, 0, 101, 70
2, 996000, Note_on_c, 0, 101, 0
2, 996000, Note_on_c, 0, 89, 0
2, 996000, Note_on_c, 0, 77, 70
2, 996159, Note_on_c, 0, 77, 0
2, 996159, Note_on_c, 0, 77, 70
2, 996159, Note_on_c, 0, 89, 70
2, 996320, Note_on_c, 0, 89, 0
2, 996320, Note_on_c, 0, 77, 0
2, 996320, Note_on_c, 0, 77, 70
2, 996320, Note_on_c, 0, 89, 70
2, 996480, Note_on_c, 0, 89, 0
2, 996480, Note_on_c, 0, 77, 0
2, 996480, Note_on_c, 0, 65, 70
2, 996639, Note_on_c, 0, 65, 0
2, 996639, Note_on_c, 0, 65, 70
2, 996639, Note_on_c, 0, 77, 70
2, 996800, Note_on_c, 0, 77, 0
2, 996800, Note_on_c, 0, 65, 0
2, 996800, Note_on_c, 0, 65, 70
2, 996800, Note_on_c, 0, 77, 70
2, 996960, Note_on_c, 0, 77, 0
2, 996960, Note_on_c, 0, 65, 0
2, 996960, Note_on_c, 0, 53, 70
2, 997119, Note_on_c, 0, 53, 0
2, 997119, Note_on_c, 0, 53, 70
2, 997119, Note_on_c, 0, 65, 70
2, 997280, Note_on_c, 0, 65, 0
2, 997280, Note_on_c, 0, 53, 0
2, 997280, Control_c, 0, 64, 0
2, 997280, Note_on_c, 0, 53, 70
2, 997280, Note_on_c, 0, 65, 70
2, 997440, Note_on_c, 0, 65, 0
2, 997440, Note_on_c, 0, 53, 0
2, 997440, Control_c, 0, 64, 127
2, 997440, Note_on_c, 0, 34, 70
2, 997440, Note_on_c, 0, 46, 70
2, 997599, Note_on_c, 0, 46, 0
2, 997599, Note_on_c, 0, 34, 0
2, 997599, Note_on_c, 0, 53, 70
2, 997599, Note_on_c, 0, 65, 70
2, 997760, Note_on_c, 0, 65, 0
2, 997760, Note_on_c, 0, 53, 0
2, 997760, Note_on_c, 0, 53, 70
2, 997760, Note_on_c, 0, 65, 70
2, 997920, Note_on_c, 0, 65, 0
2, 997920, Note_on_c, 0, 53, 0
2, 997920, Note_on_c, 0, 53, 70
2, 998079, Note_on_c, 0, 53, 0
2, 998079, Note_on_c, 0, 65, 70
2, 998079, Note_on_c, 0, 77, 70
2, 998240, Note_on_c, 0, 77, 0
2, 998240, Note_on_c, 0, 65, 0
2, 998240, Note_on_c, 0, 65, 70
2, 998240, Note_on_c, 0, 77, 70
2, 998400, Note_on_c, 0, 77, 0
2, 998400, Note_on_c, 0, 65, 0
2, 998400, Note_on_c, 0, 65, 70
2, 998559, Note_on_c, 0, 65, 0
2, 998559, Note_on_c, 0, 77, 70
2, 998559, Note_on_c, 0, 89, 70
2, 998720, Note_on_c, 0, 89, 0
2, 998720, Note_on_c, 0, 77, 0
2, 998720, Note_on_c, 0, 77, 70
2, 998720, Note_on_c, 0, 89, 70
2, 998880, Note_on_c, 0, 89, 0
2, 998880, Note_on_c, 0, 77, 0
2, 998880, Note_on_c, 0, 77, 70
2, 999039, Note_on_c, 0, 77, 0
2, 999039, Note_on_c, 0, 89, 70
2, 999039, Note_on_c, 0, 101, 70
2, 999200, Note_on_c, 0, 101, 0
2, 999200, Note_on_c, 0, 89, 0
2, 999200, Note_on_c, 0, 89, 70
2, 999200, Note_on_c, 0, 101, 70
2, 999360, Note_on_c, 0, 101, 0
2, 999360, Note_on_c, 0, 89, 0
2, 999360, Note_on_c, 0, 89, 70
2, 999519, Note_on_c, 0, 89, 0
2, 999519, Note_on_c, 0, 89, 70
2, 999519, Note_on_c, 0, 101, 70
2, 999680, Note_on_c, 0, 101, 0
2, 999680, Note_on_c, 0, 89, 0
2, 999680, Note_on_c, 0, 89, 70
2, 999680, Note_on_c, 0, 101, 70
2, 999840, Note_on_c, 0, 101, 0
2, 999840, Note_on_c, 0, 89, 0
2, 999840, Note_on_c, 0, 77, 70
2, 999999, Note_on_c, 0, 77, 0
2, 999999, Note_on_c, 0, 77, 70
2, 999999, Note_on_c, 0, 89, 70
2, 1000160, Note_on_c, 0, 89, 0
2, 1000160, Note_on_c, 0, 77, 0
2, 1000160, Note_on_c, 0, 77, 70
2, 1000160, Note_on_c, 0, 89, 70
2, 1000320, Note_on_c, 0, 89, 0
2, 1000320, Note_on_c, 0, 77, 0
2, 1000320, Note_on_c, 0, 65, 70
2, 1000479, Note_on_c, 0, 65, 0
2, 1000479, Note_on_c, 0, 65, 70
2, 1000479, Note_on_c, 0, 77, 70
2, 1000640, Note_on_c, 0, 77, 0
2, 1000640, Note_on_c, 0, 65, 0
2, 1000640, Note_on_c, 0, 65, 70
2, 1000640, Note_on_c, 0, 77, 70
2, 1000800, Note_on_c, 0, 77, 0
2, 1000800, Note_on_c, 0, 65, 0
2, 1000800, Note_on_c, 0, 53, 70
2, 1000959, Note_on_c, 0, 53, 0
2, 1000959, Note_on_c, 0, 53, 70
2, 1000959, Note_on_c, 0, 65, 70
2, 1001120, Note_on_c, 0, 65, 0
2, 1001120, Note_on_c, 0, 53, 0
2, 1001120, Control_c, 0, 64, 0
2, 1001120, Note_on_c, 0, 53, 70
2, 1001120, Note_on_c, 0, 65, 70
2, 1001280, Note_on_c, 0, 65, 0
2, 1001280, Note_on_c, 0, 53, 0
2, 1001280, Control_c, 0, 64, 127
2, 1001280, Note_on_c, 0, 34, 70
2, 1001280, Note_on_c, 0, 46, 70
2, 1001439, Note_on_c, 0, 46, 0
2, 1001439, Note_on_c, 0, 34, 0
2, 1001439, Note_on_c, 0, 53, 70
2, 1001439, Note_on_c, 0, 65, 70
2, 1001600, Note_on_c, 0, 65, 0
2, 1001600, Note_on_c, 0, 53, 0
2, 1001600, Note_on_c, 0, 53, 70
2, 1001600, Note_on_c, 0, 65, 70
2, 1001760, Note_on_c, 0, 65, 0
2, 1001760, Note_on_c, 0, 53, 0
2, 1001760, Note_on_c, 0, 53, 70
2, 1001919, Note_on_c, 0, 53, 0
2, 1001919, Note_on_c, 0, 65, 70
2, 1001919, Note_on_c, 0, 77, 70
2, 1002080, Note_on_c, 0, 77, 0
2, 1002080, Note_on_c, 0, 65, 0
2, 1002080, Note_on_c, 0, 65, 70
2, 1002080, Note_on_c, 0, 77, 70
2, 1002240, Note_on_c, 0, 77, 0
2, 1002240, Note_on_c, 0, 65, 0
2, 1002240, Note_on_c, 0, 65, 70
2, 1002399, Note_on_c, 0, 65, 0
2, 1002399, Note_on_c, 0, 77, 70
2, 1002399, Note_on_c, 0, 89, 70
2, 1002560, Note_on_c, 0, 89, 0
2, 1002560, Note_on_c, 0, 77, 0
2, 1002560, Note_on_c, 0, 77, 70
2, 1002560, Note_on_c, 0, 89, 70
2, 1002720, Note_on_c, 0, 89, 0
2, 1002720, Note_on_c, 0, 77, 0
2, 1002720, Note_on_c, 0, 77, 70
2, 1002879, Note_on_c, 0, 77, 0
2, 1002879, Note_on_c, 0, 89, 70
2, 1002879, Note_on_c, 0, 101, 70
2, 1003040, Note_on_c, 0, 101, 0
2, 1003040, Note_on_c, 0, 89, 0
2, 1003040, Note_on_c, 0, 89, 70
2, 1003040, Note_on_c, 0, 101, 70
2, 1003200, Note_on_c, 0, 101, 0
2, 1003200, Note_on_c, 0, 89, 0
2, 1003200, Note_on_c, 0, 89, 70
2, 1003359, Note_on_c, 0, 89, 0
2, 1003359, Note_on_c, 0, 89, 70
2, 1003359, Note_on_c, 0, 101, 70
2, 1003520, Note_on_c, 0, 101, 0
2, 1003520, Note_on_c, 0, 89, 0
2, 1003520, Note_on_c, 0, 89, 70
2, 1003520, Note_on_c, 0, 101, 70
2, 1003680, Note_on_c, 0, 101, 0
2, 1003680, Note_on_c, 0, 89, 0
2, 1003680, Note_on_c, 0, 77, 70
2, 1003839, Note_on_c, 0, 77, 0
2, 1003839, Note_on_c, 0, 77, 70
2, 1003839, Note_on_c, 0, 89, 70
2, 1004000, Note_on_c, 0, 89, 0
2, 1004000, Note_on_c, 0, 77, 0
2, 1004000, Note_on_c, 0, 77, 70
2, 1004000, Note_on_c, 0, 89, 70
2, 1004160, Note_on_c, 0, 89, 0
2, 1004160, Note_on_c, 0, 77, 0
2, 1004160, Note_on_c, 0, 65, 70
2, 1004319, Note_on_c, 0, 65, 0
2, 1004319, Note_on_c, 0, 65, 70
2, 1004319, Note_on_c, 0, 77, 70
2, 1004480, Note_on_c, 0, 77, 0
2, 1004480, Note_on_c, 0, 65, 0
2, 1004480, Note_on_c, 0, 65, 70
2, 1004480, Note_on_c, 0, 77, 70
2, 1004640, Note_on_c, 0, 77, 0
2, 1004640, Note_on_c, 0, 65, 0
2, 1004640, Note_on_c, 0, 53, 70
2, 1004799, Note_on_c, 0, 53, 0
2, 1004799, Note_on_c, 0, 53, 70
2, 1004799, Note_on_c, 0, 65, 70
2, 1004960, Note_on_c, 0, 65, 0
2, 1004960, Note_on_c, 0, 53, 0
2, 1004960, Control_c, 0, 64, 0
2, 1004960, Note_on_c, 0, 53, 70
2, 1004960, Note_on_c, 0, 65, 70
2, 1005120, Note_on_c, 0, 65, 0
2, 1005120, Note_on_c, 0, 53, 0
2, 1005120, Control_c, 0, 64, 127
2, 1005120, Note_on_c, 0, 34, 70
2, 1005120, Note_on_c, 0, 46, 70
2, 1005279, Note_on_c, 0, 46, 0
2, 1005279, Note_on_c, 0, 34, 0
2, 1005279, Note_on_c, 0, 53, 70
2, 1005279, Note_on_c, 0, 65, 70
2, 1005440, Note_on_c, 0, 65, 0
2, 1005440, Note_on_c, 0, 53, 0
2, 1005440, Note_on_c, 0, 53, 70
2, 1005440, Note_on_c, 0, 65, 70
2, 1005600, Note_on_c, 0, 65, 0
2, 1005600, Note_on_c, 0, 53, 0
2, 1005600, Note_on_c, 0, 53, 70
2, 1005759, Note_on_c, 0, 53, 0
2, 1005759, Note_on_c, 0, 65, 70
2, 1005759, Note_on_c, 0, 77, 70
2, 1005920, Note_on_c, 0, 77, 0
2, 1005920, Note_on_c, 0, 65, 0
2, 1005920, Note_on_c, 0, 65, 70
2, 1005920, Note_on_c, 0, 77, 70
2, 1006080, Note_on_c, 0, 77, 0
2, 1006080, Note_on_c, 0, 65, 0
2, 1006080, Note_on_c, 0, 66, 70
2, 1006239, Note_on_c, 0, 66, 0
2, 1006239, Note_on_c, 0, 78, 70
2, 1006239, Note_on_c, 0, 90, 70
2, 1006400, Note_on_c, 0, 90, 0
2, 1006400, Note_on_c, 0, 78, 0
2, 1006400, Note_on_c, 0, 78, 70
2, 1006400, Note_on_c, 0, 90, 70
2, 1006560, Note_on_c, 0, 90, 0
2, 1006560, Note_on_c, 0, 78, 0
2, 1006560, Note_on_c, 0, 78, 70
2, 1006719, Note_on_c, 0, 78, 0
2, 1006719, Note_on_c, 0, 90, 70
2, 1006719, Note_on_c, 0, 102, 70
2, 1006880, Note_on_c, 0, 102, 0
2, 1006880, Note_on_c, 0, 90, 0
2, 1006880, Note_on_c, 0, 90, 70
2, 1006880, Note_on_c, 0, 102, 70
2, 1007040, Note_on_c, 0, 102, 0
2, 1007040, Note_on_c, 0, 90, 0
2, 1007040, Note_on_c, 0, 77, 70
2, 1007199, Note_on_c, 0, 77, 0
2, 1007199, Note_on_c, 0, 89, 70
2, 1007199, Note_on_c, 0, 101, 70
2, 1007360, Note_on_c, 0, 101, 0
2, 1007360, Note_on_c, 0, 89, 0
2, 1007360, Note_on_c, 0, 89, 70
2, 1007360, Note_on_c, 0, 101, 70
2, 1007520, Note_on_c, 0, 101, 0
2, 1007520, Note_on_c, 0, 89, 0
2, 1007520, Note_on_c, 0, 65, 70
2, 1007679, Note_on_c, 0, 65, 0
2, 1007679, Note_on_c, 0, 77, 70
2, 1007679, Note_on_c, 0, 89, 70
2, 1007840, Note_on_c, 0, 89, 0
2, 1007840, Note_on_c, 0, 77, 0
2, 1007840, Note_on_c, 0, 77, 70
2, 1007840, Note_on_c, 0, 89, 70
2, 1008000, Note_on_c, 0, 89, 0
2, 1008000, Note_on_c, 0, 77, 0
2, 1008000, Note_on_c, 0, 65, 70
2, 1008159, Note_on_c, 0, 65, 0
2, 1008159, Note_on_c, 0, 65, 70
2, 1008159, Note_on_c, 0, 77, 70
2, 1008320, Note_on_c, 0, 77, 0
2, 1008320, Note_on_c, 0, 65, 0
2, 1008320, Note_on_c, 0, 65, 70
2, 1008320, Note_on_c, 0, 77, 70
2, 1008480, Note_on_c, 0, 77, 0
2, 1008480, Note_on_c, 0, 65, 0
2, 1008480, Note_on_c, 0, 53, 70
2, 1008639, Note_on_c, 0, 53, 0
2, 1008639, Note_on_c, 0, 53, 70
2, 1008639, Note_on_c, 0, 65, 70
2, 1008800, Note_on_c, 0, 65, 0
2, 1008800, Note_on_c, 0, 53, 0
2, 1008800, Control_c, 0, 64, 0
2, 1008800, Note_on_c, 0, 53, 70
2, 1008800, Note_on_c, 0, 65, 70
2, 1008960, Note_on_c, 0, 65, 0
2, 1008960, Note_on_c, 0, 53, 0
2, 1008960, Control_c, 0, 64, 127
2, 1008960, Note_on_c, 0, 34, 70
2, 1008960, Note_on_c, 0, 46, 70
2, 1009119, Note_on_c, 0, 46, 0
2, 1009119, Note_on_c, 0, 34, 0
2, 1009119, Note_on_c, 0, 53, 70
2, 1009119, Note_on_c, 0, 65, 70
2, 1009280, Note_on_c, 0, 65, 0
2, 1009280, Note_on_c, 0, 53, 0
2, 1009280, Note_on_c, 0, 53, 70
2, 1009280, Note_on_c, 0, 65, 70
2, 1009440, Note_on_c, 0, 65, 0
2, 1009440, Note_on_c, 0, 53, 0
2, 1009440, Note_on_c, 0, 53, 70
2, 1009599, Note_on_c, 0, 53, 0
2, 1009599, Note_on_c, 0, 65, 70
2, 1009599, Note_on_c, 0, 77, 70
2, 1009760, Note_on_c, 0, 77, 0
2, 1009760, Note_on_c, 0, 65, 0
2, 1009760, Note_on_c, 0, 65, 70
2, 1009760, Note_on_c, 0, 77, 70
2, 1009920, Note_on_c, 0, 77, 0
2, 1009920, Note_on_c, 0, 65, 0
2, 1009920, Note_on_c, 0, 66, 70
2, 1010079, Note_on_c, 0, 66, 0
2, 1010079, Note_on_c, 0, 78, 70
2, 1010079, Note_on_c, 0, 90, 70
2, 1010240, Note_on_c, 0, 90, 0
2, 1010240, Note_on_c, 0, 78, 0
2, 1010240, Note_on_c, 0, 78, 70
2, 1010240, Note_on_c, 0, 90, 70
2, 1010400, Note_on_c, 0, 90, 0
2, 1010400, Note_on_c, 0, 78, 0
2, 1010400, Note_on_c, 0, 78, 70
2, 1010559, Note_on_c, 0, 78, 0
2, 1010559, Note_on_c, 0, 90, 70
2, 1010559, Note_on_c, 0, 102, 70
2, 1010720, Note_on_c, 0, 102, 0
2, 1010720, Note_on_c, 0, 90, 0
2, 1010720, Note_on_c, 0, 90, 70
2, 1010720, Note_on_c, 0, 102, 70
2, 1010880, Note_on_c, 0, 102, 0
2, 1010880, Note_on_c, 0, 90, 0
2, 1010880, Note_on_c, 0, 77, 70
2, 1011039, Note_on_c, 0, 77, 0
2, 1011039, Note_on_c, 0, 89, 70
2, 1011039, Note_on_c, 0, 101, 70
2, 1011200, Note_on_c, 0, 101, 0
2, 1011200, Note_on_c, 0, 89, 0
2, 1011200, Note_on_c, 0, 89, 70
2, 1011200, Note_on_c, 0, 101, 70
2, 1011360, Note_on_c, 0, 101, 0
2, 1011360, Note_on_c, 0, 89, 0
2, 1011360, Note_on_c, 0, 65, 70
2, 1011519, Note_on_c, 0, 65, 0
2, 1011519, Note_on_c, 0, 77, 70
2, 1011519, Note_on_c, 0, 89, 70
2, 1011680, Note_on_c, 0, 89, 0
2, 1011680, Note_on_c, 0, 77, 0
2, 1011680, Note_on_c, 0, 77, 70
2, 1011680, Note_on_c, 0, 89, 70
2, 1011840, Note_on_c, 0, 89, 0
2, 1011840, Note_on_c, 0, 77, 0
2, 1011840, Note_on_c, 0, 65, 70
2, 1011999, Note_on_c, 0, 65, 0
2, 1011999, Note_on_c, 0, 65, 70
2, 1011999, Note_on_c, 0, 77, 70
2, 1012160, Note_on_c, 0, 77, 0
2, 1012160, Note_on_c, 0, 65, 0
2, 1012160, Note_on_c, 0, 65, 70
2, 1012160, Note_on_c, 0, 77, 70
2, 1012320, Note_on_c, 0, 77, 0
2, 1012320, Note_on_c, 0, 65, 0
2, 1012320, Note_on_c, 0, 53, 70
2, 1012479, Note_on_c, 0, 53, 0
2, 1012479, Note_on_c, 0, 53, 70
2, 1012479, Note_on_c, 0, 65, 70
2, 1012640, Note_on_c, 0, 65, 0
2, 1012640, Note_on_c, 0, 53, 0
2, 1012640, Control_c, 0, 64, 0
2, 1012640, Note_on_c, 0, 53, 70
2, 1012640, Note_on_c, 0, 65, 70
2, 1012800, Note_on_c, 0, 65, 0
2, 1012800, Note_on_c, 0, 53, 0
2, 1012800, Control_c, 0, 64, 127
2, 1012800, Note_on_c, 0, 34, 70
2, 1012800, Note_on_c, 0, 46, 70
2, 1012959, Note_on_c, 0, 46, 0
2, 1012959, Note_on_c, 0, 34, 0
2, 1012959, Note_on_c, 0, 53, 70
2, 1012959, Note_on_c, 0, 65, 70
2, 1013120, Note_on_c, 0, 65, 0
2, 1013120, Note_on_c, 0, 53, 0
2, 1013120, Note_on_c, 0, 53, 70
2, 1013120, Note_on_c, 0, 65, 70
2, 1013280, Note_on_c, 0, 65, 0
2, 1013280, Note_on_c, 0, 53, 0
2, 1013280, Note_on_c, 0, 53, 70
2, 1013439, Note_on_c, 0, 53, 0
2, 1013439, Note_on_c, 0, 65, 70
2, 1013439, Note_on_c, 0, 77, 70
2, 1013600, Note_on_c, 0, 77, 0
2, 1013600, Note_on_c, 0, 65, 0
2, 1013600, Note_on_c, 0, 65, 70
2, 1013600, Note_on_c, 0, 77, 70
2, 1013760, Note_on_c, 0, 77, 0
2, 1013760, Note_on_c, 0, 65, 0
2, 1013760, Note_on_c, 0, 66, 70
2, 1013919, Note_on_c, 0, 66, 0
2, 1013919, Note_on_c, 0, 78, 70
2, 1013919, Note_on_c, 0, 90, 70
2, 1014080, Note_on_c, 0, 90, 0
2, 1014080, Note_on_c, 0, 78, 0
2, 1014080, Note_on_c, 0, 78, 70
2, 1014080, Note_on_c, 0, 90, 70
2, 1014240, Note_on_c, 0, 90, 0
2, 1014240, Note_on_c, 0, 78, 0
2, 1014240, Note_on_c, 0, 78, 70
2, 1014399, Note_on_c, 0, 78, 0
2, 1014399, Note_on_c, 0, 90, 70
2, 1014399, Note_on_c, 0, 102, 70
2, 1014560, Note_on_c, 0, 102, 0
2, 1014560, Note_on_c, 0, 90, 0
2, 1014560, Note_on_c, 0, 90, 70
2, 1014560, Note_on_c, 0, 102, 70
2, 1014720, Note_on_c, 0, 102, 0
2, 1014720, Note_on_c, 0, 90, 0
2, 1014720, Control_c, 0, 64, 127
2, 1014720, Note_on_c, 0, 34, 70
2, 1014720, Note_on_c, 0, 46, 70
2, 1014879, Note_on_c, 0, 46, 0
2, 1014879, Note_on_c, 0, 34, 0
2, 1014879, Note_on_c, 0, 53, 70
2, 1014879, Note_on_c, 0, 65, 70
2, 1015040, Note_on_c, 0, 65, 0
2, 1015040, Note_on_c, 0, 53, 0
2, 1015040, Note_on_c, 0, 53, 70
2, 1015040, Note_on_c, 0, 65, 70
2, 1015200, Note_on_c, 0, 65, 0
2, 1015200, Note_on_c, 0, 53, 0
2, 1015200, Note_on_c, 0, 53, 70
2, 1015359, Note_on_c, 0, 53, 0
2, 1015359, Note_on_c, 0, 65, 70
2, 1015359, Note_on_c, 0, 77, 70
2, 1015520, Note_on_c, 0, 77, 0
2, 1015520, Note_on_c, 0, 65, 0
2, 1015520, Note_on_c, 0, 65, 70
2, 1015520, Note_on_c, 0, 77, 70
2, 1015680, Note_on_c, 0, 77, 0
2, 1015680, Note_on_c, 0, 65, 0
2, 1015680, Note_on_c, 0, 66, 70
2, 1015839, Note_on_c, 0, 66, 0
2, 1015839, Note_on_c, 0, 78, 70
2, 1015839, Note_on_c, 0, 90, 70
2, 1016000, Note_on_c, 0, 90, 0
2, 1016000, Note_on_c, 0, 78, 0
2, 1016000, Note_on_c, 0, 78, 70
2, 1016000, Note_on_c, 0, 90, 70
2, 1016160, Note_on_c, 0, 90, 0
2, 1016160, Note_on_c, 0, 78, 0
2, 1016160, Note_on_c, 0, 78, 70
2, 1016319, Note_on_c, 0, 78, 0
2, 1016319, Note_on_c, 0, 90, 70
2, 1016319, Note_on_c, 0, 102, 70
2, 1016480, Note_on_c, 0, 102, 0
2, 1016480, Note_on_c, 0, 90, 0
2, 1016480, Note_on_c, 0, 90, 70
2, 1016480, Note_on_c, 0, 102, 70
2, 1016640, Note_on_c, 0, 102, 0
2, 1016640, Note_on_c, 0, 90, 0
2, 1016640, Note_on_c, 0, 77, 70
2, 1016799, Note_on_c, 0, 77, 0
2, 1016799, Note_on_c, 0, 89, 70
2, 1016799, Note_on_c, 0, 101, 70
2, 1016960, Note_on_c, 0, 101, 0
2, 1016960, Note_on_c, 0, 89, 0
2, 1016960, Note_on_c, 0, 89, 70
2, 1016960, Note_on_c, 0, 101, 70
2, 1017120, Note_on_c, 0, 101, 0
2, 1017120, Note_on_c, 0, 89, 0
2, 1017120, Note_on_c, 0, 65, 70
2, 1017279, Note_on_c, 0, 65, 0
2, 1017279, Note_on_c, 0, 77, 70
2, 1017279, Note_on_c, 0, 89, 70
2, 1017440, Note_on_c, 0, 89, 0
2, 1017440, Note_on_c, 0, 77, 0
2, 1017440, Note_on_c, 0, 77, 70
2, 1017440, Note_on_c, 0, 89, 70
2, 1017600, Note_on_c, 0, 89, 0
2, 1017600, Note_on_c, 0, 77, 0
2, 1017600, Note_on_c, 0, 65, 70
2, 1017759, Note_on_c, 0, 65, 0
2, 1017759, Note_on_c, 0, 65, 70
2, 1017759, Note_on_c, 0, 77, 70
2, 1017920, Note_on_c, 0, 77, 0
2, 1017920, Note_on_c, 0, 65, 0
2, 1017920, Note_on_c, 0, 65, 70
2, 1017920, Note_on_c, 0, 77, 70
2, 1018080, Note_on_c, 0, 77, 0
2, 1018080, Note_on_c, 0, 65, 0
2, 1018080, Note_on_c, 0, 53, 70
2, 1018239, Note_on_c, 0, 53, 0
2, 1018239, Note_on_c, 0, 53, 70
2, 1018239, Note_on_c, 0, 65, 70
2, 1018400, Note_on_c, 0, 65, 0
2, 1018400, Note_on_c, 0, 53, 0
2, 1018400, Control_c, 0, 64, 0
2, 1018400, Note_on_c, 0, 53, 70
2, 1018400, Note_on_c, 0, 65, 70
2, 1018560, Note_on_c, 0, 65, 0
2, 1018560, Note_on_c, 0, 53, 0
2, 1018560, Control_c, 0, 64, 127
2, 1019520, Note_on_c, 0, 57, 70
2, 1019520, Note_on_c, 0, 60, 70
2, 1019520, Note_on_c, 0, 66, 70
2, 1019679, Note_on_c, 0, 66, 0
2, 1019679, Note_on_c, 0, 60, 0
2, 1019679, Note_on_c, 0, 57, 0
2, 1019679, Note_on_c, 0, 69, 70
2, 1019679, Note_on_c, 0, 72, 70
2, 1019679, Note_on_c, 0, 78, 70
2, 1019840, Note_on_c, 0, 78, 0
2, 1019840, Note_on_c, 0, 72, 0
2, 1019840, Note_on_c, 0, 69, 0
2, 1019840, Note_on_c, 0, 69, 70
2, 1019840, Note_on_c, 0, 72, 70
2, 1019840, Note_on_c, 0, 78, 70
2, 1020000, Note_on_c, 0, 78, 0
2, 1020000, Note_on_c, 0, 72, 0
2, 1020000, Note_on_c, 0, 69, 0
2, 1020000, Note_on_c, 0, 69, 70
2, 1020000, Note_on_c, 0, 72, 70
2, 1020000, Note_on_c, 0, 78, 70
2, 1020159, Note_on_c, 0, 78, 0
2, 1020159, Note_on_c, 0, 72, 0
2, 1020159, Note_on_c, 0, 69, 0
2, 1020159, Note_on_c, 0, 81, 70
2, 1020159, Note_on_c, 0, 84, 70
2, 1020159, Note_on_c, 0, 90, 70
2, 1020320, Note_on_c, 0, 90, 0
2, 1020320, Note_on_c, 0, 84, 0
2, 1020320, Note_on_c, 0, 81, 0
2, 1020320, Control_c, 0, 64, 0
2, 1020320, Note_on_c, 0, 81, 70
2, 1020320, Note_on_c, 0, 84, 70
2, 1020320, Note_on_c, 0, 90, 70
2, 1020480, Note_on_c, 0, 90, 0
2, 1020480, Note_on_c, 0, 84, 0
2, 1020480, Note_on_c, 0, 81, 0
2, 1020480, Control_c, 0, 64, 127
2, 1021440, Note_on_c, 0, 57, 70
2, 1021440, Note_on_c, 0, 60, 70
2, 1021440, Note_on_c, 0, 66, 70
2, 1021599, Note_on_c, 0, 66, 0
2, 1021599, Note_on_c, 0, 60, 0
2, 1021599, Note_on_c, 0, 57, 0
2, 1021599, Note_on_c, 0, 69, 70
2, 1021599, Note_on_c, 0, 72, 70
2, 1021599, Note_on_c, 0, 78, 70
2, 1021760, Note_on_c, 0, 78, 0
2, 1021760, Note_on_c, 0, 72, 0
2, 1021760, Note_on_c, 0, 69, 0
2, 1021760, Note_on_c, 0, 69, 70
2, 1021760, Note_on_c, 0, 72, 70
2, 1021760, Note_on_c, 0, 78, 70
2, 1021920, Note_on_c, 0, 78, 0
2, 1021920, Note_on_c, 0, 72, 0
2, 1021920, Note_on_c, 0, 69, 0
2, 1021920, Note_on_c, 0, 69, 70
2, 1021920, Note_on_c, 0, 72, 70
2, 1021920, Note_on_c, 0, 78, 70
2, 1022079, Note_on_c, 0, 78, 0
2, 1022079, Note_on_c, 0, 72, 0
2, 1022079, Note_on_c, 0, 69, 0
2, 1022079, Note_on_c, 0, 81, 70
2, 1022079, Note_on_c, 0, 84, 70
2, 1022079, Note_on_c, 0, 90, 70
2, 1022240, Note_on_c, 0, 90, 0
2, 1022240, Note_on_c, 0, 84, 0
2, 1022240, Note_on_c, 0, 81, 0
2, 1022240, Control_c, 0, 64, 0
2, 1022240, Note_on_c, 0, 81, 70
2, 1022240, Note_on_c, 0, 84, 70
2, 1022240, Note_on_c, 0, 90, 70
2, 1022400, Note_on_c, 0, 90, 0
2, 1022400, Note_on_c, 0, 84, 0
2, 1022400, Note_on_c, 0, 81, 0
2, 1022400, Control_c, 0, 64, 127
2, 1023600, Note_on_c, 0, 69, 70
2, 1023600, Note_on_c, 0, 72, 70
2, 1023600, Note_on_c, 0, 78, 70
2, 1023720, Note_on_c, 0, 78, 0
2, 1023720, Note_on_c, 0, 72, 0
2, 1023720, Note_on_c, 0, 69, 0
2, 1023720, Note_on_c, 0, 69, 70
2, 1023720, Note_on_c, 0, 72, 70
2, 1023720, Note_on_c, 0, 78, 70
2, 1023840, Note_on_c, 0, 78, 0
2, 1023840, Note_on_c, 0, 72, 0
2, 1023840, Note_on_c, 0, 69, 0
2, 1023840, Note_on_c, 0, 69, 70
2, 1023840, Note_on_c, 0, 72, 70
2, 1023840, Note_on_c, 0, 78, 70
2, 1023960, Note_on_c, 0, 78, 0
2, 1023960, Note_on_c, 0, 72, 0
2, 1023960, Note_on_c, 0, 69, 0
2, 1023960, Note_on_c, 0, 69, 70
2, 1023960, Note_on_c, 0, 72, 70
2, 1023960, Note_on_c, 0, 78, 70
2, 1024080, Note_on_c, 0, 78, 0
2, 1024080, Note_on_c, 0, 72, 0
2, 1024080, Note_on_c, 0, 69, 0
2, 1024080, Note_on_c, 0, 81, 70
2, 1024080, Note_on_c, 0, 84, 70
2, 1024080, Note_on_c, 0, 90, 70
2, 1024200, Note_on_c, 0, 90, 0
2, 1024200, Note_on_c, 0, 84, 0
2, 1024200, Note_on_c, 0, 81, 0
2, 1024200, Note_on_c, 0, 81, 70
2, 1024200, Note_on_c, 0, 84, 70
2, 1024200, Note_on_c, 0, 90, 70
2, 1024320, Note_on_c, 0, 90, 0
2, 1024320, Note_on_c, 0, 84, 0
2, 1024320, Note_on_c, 0, 81, 0
2, 1024320, Control_c, 0, 64, 127
2, 1025520, Note_on_c, 0, 69, 70
2, 1025520, Note_on_c, 0, 72, 70
2, 1025520, Note_on_c, 0, 78, 70
2, 1025640, Note_on_c, 0, 78, 0
2, 1025640, Note_on_c, 0, 72, 0
2, 1025640, Note_on_c, 0, 69, 0
2, 1025640, Note_on_c, 0, 69, 70
2, 1025640, Note_on_c, 0, 72, 70
2, 1025640, Note_on_c, 0, 78, 70
2, 1025760, Note_on_c, 0, 78, 0
2, 1025760, Note_on_c, 0, 72, 0
2, 1025760, Note_on_c, 0, 69, 0
2, 1025760, Note_on_c, 0, 69, 70
2, 1025760, Note_on_c, 0, 72, 70
2, 1025760, Note_on_c, 0, 78, 70
2, 1025880, Note_on_c, 0, 78, 0
2, 1025880, Note_on_c, 0, 72, 0
2, 1025880, Note_on_c, 0, 69, 0
2, 1025880, Note_on_c, 0, 69, 70
2, 1025880, Note_on_c, 0, 72, 70
2, 1025880, Note_on_c, 0, 78, 70
2, 1026000, Note_on_c, 0, 78, 0
2, 1026000, Note_on_c, 0, 72, 0
2, 1026000, Note_on_c, 0, 69, 0
2, 1026000, Note_on_c, 0, 81, 70
2, 1026000, Note_on_c, 0, 84, 70
2, 1026000, Note_on_c, 0, 90, 70
2, 1026120, Note_on_c, 0, 90, 0
2, 1026120, Note_on_c, 0, 84, 0
2, 1026120, Note_on_c, 0, 81, 0
2, 1026120, Note_on_c, 0, 81, 70
2, 1026120, Note_on_c, 0, 84, 70
2, 1026120, Note_on_c, 0, 90, 70
2, 1026240, Note_on_c, 0, 90, 0
2, 1026240, Note_on_c, 0, 84, 0
2, 1026240, Note_on_c, 0, 81, 0
2, 1028640, Note_on_c, 0, 54, 70
2, 1028640, Note_on_c, 0, 57, 70
2, 1028640, Note_on_c, 0, 60, 70
2, 1028760, Note_on_c, 0, 60, 0
2, 1028760, Note_on_c, 0, 57, 0
2, 1028760, Note_on_c, 0, 54, 0
2, 1028760, Note_on_c, 0, 66, 70
2, 1028760, Note_on_c, 0, 69, 70
2, 1028760, Note_on_c, 0, 72, 70
2, 1028880, Note_on_c, 0, 72, 0
2, 1028880, Note_on_c, 0, 69, 0
2, 1028880, Note_on_c, 0, 66, 0
2, 1028880, Note_on_c, 0, 57, 70
2, 1028880, Note_on_c, 0, 60, 70
2, 1028880, Note_on_c, 0, 66, 70
2, 1029000, Note_on_c, 0, 66, 0
2, 1029000, Note_on_c, 0, 60, 0
2, 1029000, Note_on_c, 0, 57, 0
2, 1029000, Note_on_c, 0, 69, 70
2, 1029000, Note_on_c, 0, 72, 70
2, 1029000, Note_on_c, 0, 78, 70
2, 1029120, Note_on_c, 0, 78, 0
2, 1029120, Note_on_c, 0, 72, 0
2, 1029120, Note_on_c, 0, 69, 0
2, 1029120, Note_on_c, 0, 60, 70
2, 1029120, Note_on_c, 0, 66, 70
2, 1029120, Note_on_c, 0, 69, 70
2, 1029240, Note_on_c, 0, 69, 0
2, 1029240, Note_on_c, 0, 66, 0
2, 1029240, Note_on_c, 0, 60, 0
2, 1029240, Note_on_c, 0, 72, 70
2, 1029240, Note_on_c, 0, 78, 70
2, 1029240, Note_on_c, 0, 81, 70
2, 1029360, Note_on_c, 0, 81, 0
2, 1029360, Note_on_c, 0, 78, 0
2, 1029360, Note_on_c, 0, 72, 0
2, 1029360, Note_on_c, 0, 66, 70
2, 1029360, Note_on_c, 0, 69, 70
2, 1029360, Note_on_c, 0, 72, 70
2, 1029480, Note_on_c, 0, 72, 0
2, 1029480, Note_on_c, 0, 69, 0
2, 1029480, Note_on_c, 0, 66, 0
2, 1029480, Note_on_c, 0, 78, 70
2, 1029480, Note_on_c, 0, 81, 70
2, 1029480, Note_on_c, 0, 84, 70
2, 1029600, Note_on_c, 0, 84, 0
2, 1029600, Note_on_c, 0, 81, 0
2, 1029600, Note_on_c, 0, 78, 0
2, 1029600, Note_on_c, 0, 69, 70
2, 1029600, Note_on_c, 0, 72, 70
2, 1029600, Note_on_c, 0, 78, 70
2, 1029720, Note_on_c, 0, 78, 0
2, 1029720, Note_on_c, 0, 72, 0
2, 1029720, Note_on_c, 0, 69, 0
2, 1029720, Note_on_c, 0, 81, 70
2, 1029720, Note_on_c, 0, 84, 70
2, 1029720, Note_on_c, 0, 90, 70
2, 1029840, Note_on_c, 0, 90, 0
2, 1029840, Note_on_c, 0, 84, 0
2, 1029840, Note_on_c, 0, 81, 0
2, 1029840, Note_on_c, 0, 66, 70
2, 1029840, Note_on_c, 0, 69, 70
2, 1029840, Note_on_c, 0, 75, 70
2, 1029960, Note_on_c, 0, 75, 0
2, 1029960, Note_on_c, 0, 69, 0
2, 1029960, Note_on_c, 0, 66, 0
2, 1029960, Control_c, 0, 64, 0
2, 1029960, Note_on_c, 0, 78, 70
2, 1029960, Note_on_c, 0, 81, 70
2, 1029960, Note_on_c, 0, 87, 70
2, 1030080, Note_on_c, 0, 87, 0
2, 1030080, Note_on_c, 0, 81, 0
2, 1030080, Note_on_c, 0, 78, 0
2, 1030080, Note_on_c, 0, 63, 70
2, 1030080, Note_on_c, 0, 66, 70
2, 1030080, Note_on_c, 0, 72, 70
2, 1030200, Note_on_c, 0, 72, 0
2, 1030200, Note_on_c, 0, 66, 0
2, 1030200, Note_on_c, 0, 63, 0
2, 1030200, Note_on_c, 0, 75, 70
2, 1030200, Note_on_c, 0, 78, 70
2, 1030200, Note_on_c, 0, 84, 70
2, 1030320, Note_on_c, 0, 84, 0
2, 1030320, Note_on_c, 0, 78, 0
2, 1030320, Note_on_c, 0, 75, 0
2, 1030320, Note_on_c, 0, 60, 70
2, 1030320, Note_on_c, 0, 63, 70
2, 1030320, Note_on_c, 0, 70, 70
2, 1030440, Note_on_c, 0, 70, 0
2, 1030440, Note_on_c, 0, 63, 0
2, 1030440, Note_on_c, 0, 60, 0
2, 1030440, Note_on_c, 0, 72, 70
2, 1030440, Note_on_c, 0, 75, 70
2, 1030440, Note_on_c, 0, 82, 70
2, 1030560, Note_on_c, 0, 82, 0
2, 1030560, Note_on_c, 0, 75, 0
2, 1030560, Note_on_c, 0, 72, 0
2, 1030560, Note_on_c, 0, 60, 70
2, 1030560, Note_on_c, 0, 63, 70
2, 1030560, Note_on_c, 0, 69, 70
2, 1030680, Note_on_c, 0, 69, 0
2, 1030680, Note_on_c, 0, 63, 0
2, 1030680, Note_on_c, 0, 60, 0
2, 1030680, Note_on_c, 0, 72, 70
2, 1030680, Note_on_c, 0, 75, 70
2, 1030680, Note_on_c, 0, 81, 70
2, 1030800, Note_on_c, 0, 81, 0
2, 1030800, Note_on_c, 0, 75, 0
2, 1030800, Note_on_c, 0, 72, 0
2, 1030800, Note_on_c, 0, 60, 70
2, 1030800, Note_on_c, 0, 63, 70
2, 1030800, Note_on_c, 0, 67, 70
2, 1030920, Note_on_c, 0, 67, 0
2, 1030920, Note_on_c, 0, 63, 0
2, 1030920, Note_on_c, 0, 60, 0
2, 1030920, Note_on_c, 0, 72, 70
2, 1030920, Note_on_c, 0, 75, 70
2, 1030920, Note_on_c, 0, 79, 70
2, 1031040, Note_on_c, 0, 79, 0
2, 1031040, Note_on_c, 0, 75, 0
2, 1031040, Note_on_c, 0, 72, 0
2, 1031040, Note_on_c, 0, 60, 70
2, 1031040, Note_on_c, 0, 63, 70
2, 1031040, Note_on_c, 0, 66, 70
2, 1031160, Note_on_c, 0, 66, 0
2, 1031160, Note_on_c, 0, 63, 0
2, 1031160, Note_on_c, 0, 60, 0
2, 1031160, Note_on_c, 0, 72, 70
2, 1031160, Note_on_c, 0, 75, 70
2, 1031160, Note_on_c, 0, 78, 70
2, 1031280, Note_on_c, 0, 78, 0
2, 1031280, Note_on_c, 0, 75, 0
2, 1031280, Note_on_c, 0, 72, 0
2, 1031280, Note_on_c, 0, 60, 70
2, 1031280, Note_on_c, 0, 63, 70
2, 1031280, Note_on_c, 0, 69, 70
2, 1031400, Note_on_c, 0, 69, 0
2, 1031400, Note_on_c, 0, 63, 0
2, 1031400, Note_on_c, 0, 60, 0
2, 1031400, Note_on_c, 0, 72, 70
2, 1031400, Note_on_c, 0, 75, 70
2, 1031400, Note_on_c, 0, 81, 70
2, 1031520, Note_on_c, 0, 81, 0
2, 1031520, Note_on_c, 0, 75, 0
2, 1031520, Note_on_c, 0, 72, 0
2, 1031520, Note_on_c, 0, 57, 70
2, 1031520, Note_on_c, 0, 60, 70
2, 1031520, Note_on_c, 0, 66, 70
2, 1031640, Note_on_c, 0, 66, 0
2, 1031640, Note_on_c, 0, 60, 0
2, 1031640, Note_on_c, 0, 57, 0
2, 1031640, Note_on_c, 0, 69, 70
2, 1031640, Note_on_c, 0, 72, 70
2, 1031640, Note_on_c, 0, 78, 70
2, 1031760, Note_on_c, 0, 78, 0
2, 1031760, Note_on_c, 0, 72, 0
2, 1031760, Note_on_c, 0, 69, 0
2, 1031760, Note_on_c, 0, 54, 70
2, 1031760, Note_on_c, 0, 57, 70
2, 1031760, Note_on_c, 0, 63, 70
2, 1031880, Note_on_c, 0, 63, 0
2, 1031880, Note_on_c, 0, 57, 0
2, 1031880, Note_on_c, 0, 54, 0
2, 1031880, Note_on_c, 0, 66, 70
2, 1031880, Note_on_c, 0, 69, 70
2, 1031880, Note_on_c, 0, 75, 70
2, 1032000, Note_on_c, 0, 75, 0
2, 1032000, Note_on_c, 0, 69, 0
2, 1032000, Note_on_c, 0, 66, 0
2, 1041600, Note_on_c, 0, 54, 70
2, 1041600, Note_on_c, 0, 57, 70
2, 1041600, Note_on_c, 0, 63, 70
2, 1041720, Note_on_c, 0, 63, 0
2, 1041720, Note_on_c, 0, 57, 0
2, 1041720, Note_on_c, 0, 54, 0
2, 1041720, Note_on_c, 0, 66, 70
2, 1041720, Note_on_c, 0, 69, 70
2, 1041720, Note_on_c, 0, 75, 70
2, 1041840, Note_on_c, 0, 75, 0
2, 1041840, Note_on_c, 0, 69, 0
2, 1041840, Note_on_c, 0, 66, 0
2, 1041840, Note_on_c, 0, 54, 70
2, 1041840, Note_on_c, 0, 57, 70
2, 1041840, Note_on_c, 0, 62, 70
2, 1041960, Note_on_c, 0, 62, 0
2, 1041960, Note_on_c, 0, 57, 0
2, 1041960, Note_on_c, 0, 54, 0
2, 1041960, Note_on_c, 0, 66, 70
2, 1041960, Note_on_c, 0, 69, 70
2, 1041960, Note_on_c, 0, 74, 70
2, 1042080, Note_on_c, 0, 74, 0
2, 1042080, Note_on_c, 0, 69, 0
2, 1042080, Note_on_c, 0, 66, 0
2, 1042080, Note_on_c, 0, 57, 70
2, 1042080, Note_on_c, 0, 60, 70
2, 1042080, Note_on_c, 0, 67, 70
2, 1042200, Note_on_c, 0, 67, 0
2, 1042200, Note_on_c, 0, 60, 0
2, 1042200, Note_on_c, 0, 57, 0
2, 1042200, Note_on_c, 0, 69, 70
2, 1042200, Note_on_c, 0, 72, 70
2, 1042200, Note_on_c, 0, 79, 70
2, 1042320, Note_on_c, 0, 79, 0
2, 1042320, Note_on_c, 0, 72, 0
2, 1042320, Note_on_c, 0, 69, 0
2, 1042320, Note_on_c, 0, 57, 70
2, 1042320, Note_on_c, 0, 60, 70
2, 1042320, Note_on_c, 0, 66, 70
2, 1042440, Note_on_c, 0, 66, 0
2, 1042440, Note_on_c, 0, 60, 0
2, 1042440, Note_on_c, 0, 57, 0
2, 1042440, Note_on_c, 0, 69, 70
2, 1042440, Note_on_c, 0, 72, 70
2, 1042440, Note_on_c, 0, 78, 70
2, 1042560, Note_on_c, 0, 78, 0
2, 1042560, Note_on_c, 0, 72, 0
2, 1042560, Note_on_c, 0, 69, 0
2, 1042560, Note_on_c, 0, 60, 70
2, 1042560, Note_on_c, 0, 63, 70
2, 1042560, Note_on_c, 0, 70, 70
2, 1042680, Note_on_c, 0, 70, 0
2, 1042680, Note_on_c, 0, 63, 0
2, 1042680, Note_on_c, 0, 60, 0
2, 1042680, Note_on_c, 0, 72, 70
2, 1042680, Note_on_c, 0, 75, 70
2, 1042680, Note_on_c, 0, 82, 70
2, 1042800, Note_on_c, 0, 82, 0
2, 1042800, Note_on_c, 0, 75, 0
2, 1042800, Note_on_c, 0, 72, 0
2, 1042800, Note_on_c, 0, 60, 70
2, 1042800, Note_on_c, 0, 63, 70
2, 1042800, Note_on_c, 0, 69, 70
2, 1042920, Note_on_c, 0, 69, 0
2, 1042920, Note_on_c, 0, 63, 0
2, 1042920, Note_on_c, 0, 60, 0
2, 1042920, Note_on_c, 0, 72, 70
2, 1042920, Note_on_c, 0, 75, 70
2, 1042920, Note_on_c, 0, 81, 70
2, 1043040, Note_on_c, 0, 81, 0
2, 1043040, Note_on_c, 0, 75, 0
2, 1043040, Note_on_c, 0, 72, 0
2, 1043040, Note_on_c, 0, 57, 70
2, 1043040, Note_on_c, 0, 60, 70
2, 1043040, Note_on_c, 0, 67, 70
2, 1043160, Note_on_c, 0, 67, 0
2, 1043160, Note_on_c, 0, 60, 0
2, 1043160, Note_on_c, 0, 57, 0
2, 1043160, Note_on_c, 0, 69, 70
2, 1043160, Note_on_c, 0, 72, 70
2, 1043160, Note_on_c, 0, 79, 70
2, 1043280, Note_on_c, 0, 79, 0
2, 1043280, Note_on_c, 0, 72, 0
2, 1043280, Note_on_c, 0, 69, 0
2, 1043280, Note_on_c, 0, 57, 70
2, 1043280, Note_on_c, 0, 60, 70
2, 1043280, Note_on_c, 0, 66, 70
2, 1043400, Note_on_c, 0, 66, 0
2, 1043400, Note_on_c, 0, 60, 0
2, 1043400, Note_on_c, 0, 57, 0
2, 1043400, Note_on_c, 0, 69, 70
2, 1043400, Note_on_c, 0, 72, 70
2, 1043400, Note_on_c, 0, 78, 70
2, 1043520, Note_on_c, 0, 78, 0
2, 1043520, Note_on_c, 0, 72, 0
2, 1043520, Note_on_c, 0, 69, 0
2, 1043520, Note_on_c, 0, 60, 70
2, 1043520, Note_on_c, 0, 63, 70
2, 1043520, Note_on_c, 0, 70, 70
2, 1043640, Note_on_c, 0, 70, 0
2, 1043640, Note_on_c, 0, 63, 0
2, 1043640, Note_on_c, 0, 60, 0
2, 1043640, Note_on_c, 0, 72, 70
2, 1043640, Note_on_c, 0, 75, 70
2, 1043640, Note_on_c, 0, 82, 70
2, 1043760, Note_on_c, 0, 82, 0
2, 1043760, Note_on_c, 0, 75, 0
2, 1043760, Note_on_c, 0, 72, 0
2, 1043760, Note_on_c, 0, 60, 70
2, 1043760, Note_on_c, 0, 63, 70
2, 1043760, Note_on_c, 0, 69, 70
2, 1043880, Note_on_c, 0, 69, 0
2, 1043880, Note_on_c, 0, 63, 0
2, 1043880, Note_on_c, 0, 60, 0
2, 1043880, Note_on_c, 0, 72, 70
2, 1043880, Note_on_c, 0, 75, 70
2, 1043880, Note_on_c, 0, 81, 70
2, 1044000, Note_on_c, 0, 81, 0
2, 1044000, Note_on_c, 0, 75, 0
2, 1044000, Note_on_c, 0, 72, 0
2, 1044000, Note_on_c, 0, 57, 70
2, 1044000, Note_on_c, 0, 60, 70
2, 1044000, Note_on_c, 0, 67, 70
2, 1044120, Note_on_c, 0, 67, 0
2, 1044120, Note_on_c, 0, 60, 0
2, 1044120, Note_on_c, 0, 57, 0
2, 1044120, Note_on_c, 0, 69, 70
2, 1044120, Note_on_c, 0, 72, 70
2, 1044120, Note_on_c, 0, 79, 70
2, 1044240, Note_on_c, 0, 79, 0
2, 1044240, Note_on_c, 0, 72, 0
2, 1044240, Note_on_c, 0, 69, 0
2, 1044240, Note_on_c, 0, 57, 70
2, 1044240, Note_on_c, 0, 60, 70
2, 1044240, Note_on_c, 0, 66, 70
2, 1044360, Note_on_c, 0, 66, 0
2, 1044360, Note_on_c, 0, 60, 0
2, 1044360, Note_on_c, 0, 57, 0
2, 1044360, Note_on_c, 0, 69, 70
2, 1044360, Note_on_c, 0, 72, 70
2, 1044360, Note_on_c, 0, 78, 70
2, 1044480, Note_on_c, 0, 78, 0
2, 1044480, Note_on_c, 0, 72, 0
2, 1044480, Note_on_c, 0, 69, 0
2, 1044480, Note_on_c, 0, 60, 70
2, 1044480, Note_on_c, 0, 63, 70
2, 1044480, Note_on_c, 0, 70, 70
2, 1044600, Note_on_c, 0, 70, 0
2, 1044600, Note_on_c, 0, 63, 0
2, 1044600, Note_on_c, 0, 60, 0
2, 1044600, Note_on_c, 0, 72, 70
2, 1044600, Note_on_c, 0, 75, 70
2, 1044600, Note_on_c, 0, 82, 70
2, 1044720, Note_on_c, 0, 82, 0
2, 1044720, Note_on_c, 0, 75, 0
2, 1044720, Note_on_c, 0, 72, 0
2, 1044720, Note_on_c, 0, 60, 70
2, 1044720, Note_on_c, 0, 63, 70
2, 1044720, Note_on_c, 0, 69, 70
2, 1044840, Note_on_c, 0, 69, 0
2, 1044840, Note_on_c, 0, 63, 0
2, 1044840, Note_on_c, 0, 60, 0
2, 1044840, Note_on_c, 0, 72, 70
2, 1044840, Note_on_c, 0, 75, 70
2, 1044840, Note_on_c, 0, 81, 70
2, 1044960, Note_on_c, 0, 81, 0
2, 1044960, Note_on_c, 0, 75, 0
2, 1044960, Note_on_c, 0, 72, 0
2, 1044960, Note_on_c, 0, 63, 70
2, 1044960, Note_on_c, 0, 66, 70
2, 1044960, Note_on_c, 0, 74, 70
2, 1045080, Note_on_c, 0, 74, 0
2, 1045080, Note_on_c, 0, 66, 0
2, 1045080, Note_on_c, 0, 63, 0
2, 1045080, Note_on_c, 0, 75, 70
2, 1045080, Note_on_c, 0, 78, 70
2, 1045080, Note_on_c, 0, 86, 70
2, 1045200, Note_on_c, 0, 86, 0
2, 1045200, Note_on_c, 0, 78, 0
2, 1045200, Note_on_c, 0, 75, 0
2, 1045200, Note_on_c, 0, 63, 70
2, 1045200, Note_on_c, 0, 66, 70
2, 1045200, Note_on_c, 0, 72, 70
2, 1045320, Note_on_c, 0, 72, 0
2, 1045320, Note_on_c, 0, 66, 0
2, 1045320, Note_on_c, 0, 63, 0
2, 1045320, Note_on_c, 0, 75, 70
2, 1045320, Note_on_c, 0, 78, 70
2, 1045320, Note_on_c, 0, 84, 70
2, 1045440, Note_on_c, 0, 84, 0
2, 1045440, Note_on_c, 0, 78, 0
2, 1045440, Note_on_c, 0, 75, 0
2, 1045440, Note_on_c, 0, 66, 70
2, 1045440, Note_on_c, 0, 69, 70
2, 1045440, Note_on_c, 0, 75, 70
2, 1045560, Note_on_c, 0, 75, 0
2, 1045560, Note_on_c, 0, 69, 0
2, 1045560, Note_on_c, 0, 66, 0
2, 1045560, Note_on_c, 0, 78, 70
2, 1045560, Note_on_c, 0, 81, 70
2, 1045560, Note_on_c, 0, 87, 70
2, 1045680, Note_on_c, 0, 87, 0
2, 1045680, Note_on_c, 0, 81, 0
2, 1045680, Note_on_c, 0, 78, 0
2, 1045680, Note_on_c, 0, 66, 70
2, 1045680, Note_on_c, 0, 69, 70
2, 1045680, Note_on_c, 0, 74, 70
2, 1045800, Note_on_c, 0, 74, 0
2, 1045800, Note_on_c, 0, 69, 0
2, 1045800, Note_on_c, 0, 66, 0
2, 1045800, Note_on_c, 0, 78, 70
2, 1045800, Note_on_c, 0, 81, 70
2, 1045800, Note_on_c, 0, 86, 70
2, 1045920, Note_on_c, 0, 86, 0
2, 1045920, Note_on_c, 0, 81, 0
2, 1045920, Note_on_c, 0, 78, 0
2, 1045920, Note_on_c, 0, 69, 70
2, 1045920, Note_on_c, 0, 72, 70
2, 1045920, Note_on_c, 0, 79, 70
2, 1046040, Note_on_c, 0, 79, 0
2, 1046040, Note_on_c, 0, 72, 0
2, 1046040, Note_on_c, 0, 69, 0
2, 1046040, Note_on_c, 0, 81, 70
2, 1046040, Note_on_c, 0, 84, 70
2, 1046040, Note_on_c, 0, 91, 70
2, 1046160, Note_on_c, 0, 91, 0
2, 1046160, Note_on_c, 0, 84, 0
2, 1046160, Note_on_c, 0, 81, 0
2, 1046160, Note_on_c, 0, 69, 70
2, 1046160, Note_on_c, 0, 72, 70
2, 1046160, Note_on_c, 0, 78, 70
2, 1046280, Note_on_c, 0, 78, 0
2, 1046280, Note_on_c, 0, 72, 0
2, 1046280, Note_on_c, 0, 69, 0
2, 1046280, Note_on_c, 0, 81, 70
2, 1046280, Note_on_c, 0, 84, 70
2, 1046280, Note_on_c, 0, 90, 70
2, 1046400, Note_on_c, 0, 90, 0
2, 1046400, Note_on_c, 0, 84, 0
2, 1046400, Note_on_c, 0, 81, 0
2, 1046400, Note_on_c, 0, 72, 70
2, 1046400, Note_on_c, 0, 75, 70
2, 1046400, Note_on_c, 0, 82, 70
2, 1046520, Note_on_c, 0, 82, 0
2, 1046520, Note_on_c, 0, 75, 0
2, 1046520, Note_on_c, 0, 72, 0
2, 1046520, Note_on_c, 0, 84, 70
2, 1046520, Note_on_c, 0, 87, 70
2, 1046520, Note_on_c, 0, 94, 70
2, 1046640, Note_on_c, 0, 94, 0
2, 1046640, Note_on_c, 0, 87, 0
2, 1046640, Note_on_c, 0, 84, 0
2, 1046640, Note_on_c, 0, 72, 70
2, 1046640, Note_on_c, 0, 75, 70
2, 1046640, Note_on_c, 0, 81, 70
2, 1046760, Note_on_c, 0, 81, 0
2, 1046760, Note_on_c, 0, 75, 0
2, 1046760, Note_on_c, 0, 72, 0
2, 1046760, Note_on_c, 0, 84, 70
2, 1046760, Note_on_c, 0, 87, 70
2, 1046760, Note_on_c, 0, 93, 70
2, 1046880, Note_on_c, 0, 93, 0
2, 1046880, Note_on_c, 0, 87, 0
2, 1046880, Note_on_c, 0, 84, 0
2, 1046880, Note_on_c, 0, 75, 70
2, 1046880, Note_on_c, 0, 78, 70
2, 1046880, Note_on_c, 0, 86, 70
2, 1047000, Note_on_c, 0, 86, 0
2, 1047000, Note_on_c, 0, 78, 0
2, 1047000, Note_on_c, 0, 75, 0
2, 1047000, Note_on_c, 0, 87, 70
2, 1047000, Note_on_c, 0, 90, 70
2, 1047000, Note_on_c, 0, 98, 70
2, 1047120, Note_on_c, 0, 98, 0
2, 1047120, Note_on_c, 0, 90, 0
2, 1047120, Note_on_c, 0, 87, 0
2, 1047120, Note_on_c, 0, 75, 70
2, 1047120, Note_on_c, 0, 78, 70
2, 1047120, Note_on_c, 0, 84, 70
2, 1047240, Note_on_c, 0, 84, 0
2, 1047240, Note_on_c, 0, 78, 0
2, 1047240, Note_on_c, 0, 75, 0
2, 1047240, Note_on_c, 0, 87, 70
2, 1047240, Note_on_c, 0, 90, 70
2, 1047240, Note_on_c, 0, 96, 70
2, 1047360, Note_on_c, 0, 96, 0
2, 1047360, Note_on_c, 0, 90, 0
2, 1047360, Note_on_c, 0, 87, 0
2, 1047360, Note_on_c, 0, 72, 70
2, 1047360, Note_on_c, 0, 75, 70
2, 1047360, Note_on_c, 0, 82, 70
2, 1047480, Note_on_c, 0, 82, 0
2, 1047480, Note_on_c, 0, 75, 0
2, 1047480, Note_on_c, 0, 72, 0
2, 1047480, Note_on_c, 0, 84, 70
2, 1047480, Note_on_c, 0, 87, 70
2, 1047480, Note_on_c, 0, 94, 70
2, 1047600, Note_on_c, 0, 94, 0
2, 1047600, Note_on_c, 0, 87, 0
2, 1047600, Note_on_c, 0, 84, 0
2, 1047600, Note_on_c, 0, 72, 70
2, 1047600, Note_on_c, 0, 75, 70
2, 1047600, Note_on_c, 0, 81, 70
2, 1047720, Note_on_c, 0, 81, 0
2, 1047720, Note_on_c, 0, 75, 0
2, 1047720, Note_on_c, 0, 72, 0
2, 1047720, Note_on_c, 0, 84, 70
2, 1047720, Note_on_c, 0, 87, 70
2, 1047720, Note_on_c, 0, 93, 70
2, 1047840, Note_on_c, 0, 93, 0
2, 1047840, Note_on_c, 0, 87, 0
2, 1047840, Note_on_c, 0, 84, 0
2, 1047840, Note_on_c, 0, 69, 70
2, 1047840, Note_on_c, 0, 72, 70
2, 1047840, Note_on_c, 0, 79, 70
2, 1047960, Note_on_c, 0, 79, 0
2, 1047960, Note_on_c, 0, 72, 0
2, 1047960, Note_on_c, 0, 69, 0
2, 1047960, Note_on_c, 0, 81, 70
2, 1047960, Note_on_c, 0, 84, 70
2, 1047960, Note_on_c, 0, 91, 70
2, 1048080, Note_on_c, 0, 91, 0
2, 1048080, Note_on_c, 0, 84, 0
2, 1048080, Note_on_c, 0, 81, 0
2, 1048080, Note_on_c, 0, 69, 70
2, 1048080, Note_on_c, 0, 72, 70
2, 1048080, Note_on_c, 0, 78, 70
2, 1048200, Note_on_c, 0, 78, 0
2, 1048200, Note_on_c, 0, 72, 0
2, 1048200, Note_on_c, 0, 69, 0
2, 1048200, Note_on_c, 0, 81, 70
2, 1048200, Note_on_c, 0, 84, 70
2, 1048200, Note_on_c, 0, 90, 70
2, 1048320, Note_on_c, 0, 90, 0
2, 1048320, Note_on_c, 0, 84, 0
2, 1048320, Note_on_c, 0, 81, 0
2, 1048320, Note_on_c, 0, 66, 70
2, 1048320, Note_on_c, 0, 69, 70
2, 1048320, Note_on_c, 0, 75, 70
2, 1048440, Note_on_c, 0, 75, 0
2, 1048440, Note_on_c, 0, 69, 0
2, 1048440, Note_on_c, 0, 66, 0
2, 1048440, Note_on_c, 0, 78, 70
2, 1048440, Note_on_c, 0, 81, 70
2, 1048440, Note_on_c, 0, 87, 70
2, 1048560, Note_on_c, 0, 87, 0
2, 1048560, Note_on_c, 0, 81, 0
2, 1048560, Note_on_c, 0, 78, 0
2, 1048560, Note_on_c, 0, 66, 70
2, 1048560, Note_on_c, 0, 69, 70
2, 1048560, Note_on_c, 0, 74, 70
2, 1048680, Note_on_c, 0, 74, 0
2, 1048680, Note_on_c, 0, 69, 0
2, 1048680, Note_on_c, 0, 66, 0
2, 1048680, Note_on_c, 0, 78, 70
2, 1048680, Note_on_c, 0, 81, 70
2, 1048680, Note_on_c, 0, 86, 70
2, 1048800, Note_on_c, 0, 86, 0
2, 1048800, Note_on_c, 0, 81, 0
2, 1048800, Note_on_c, 0, 78, 0
2, 1048800, Note_on_c, 0, 63, 70
2, 1048800, Note_on_c, 0, 66, 70
2, 1048800, Note_on_c, 0, 72, 70
2, 1048920, Note_on_c, 0, 72, 0
2, 1048920, Note_on_c, 0, 66, 0
2, 1048920, Note_on_c, 0, 63, 0
2, 1048920, Note_on_c, 0, 75, 70
2, 1048920, Note_on_c, 0, 78, 70
2, 1048920, Note_on_c, 0, 84, 70
2, 1049040, Note_on_c, 0, 84, 0
2, 1049040, Note_on_c, 0, 78, 0
2, 1049040, Note_on_c, 0, 75, 0
2, 1049040, Note_on_c, 0, 63, 70
2, 1049040, Note_on_c, 0, 66, 70
2, 1049040, Note_on_c, 0, 70, 70
2, 1049160, Note_on_c, 0, 70, 0
2, 1049160, Note_on_c, 0, 66, 0
2, 1049160, Note_on_c, 0, 63, 0
2, 1049160, Note_on_c, 0, 75, 70
2, 1049160, Note_on_c, 0, 78, 70
2, 1049160, Note_on_c, 0, 82, 70
2, 1049280, Note_on_c, 0, 82, 0
2, 1049280, Note_on_c, 0, 78, 0
2, 1049280, Note_on_c, 0, 75, 0
2, 1049280, Note_on_c, 0, 60, 70
2, 1049280, Note_on_c, 0, 63, 70
2, 1049280, Note_on_c, 0, 69, 70
2, 1049400, Note_on_c, 0, 69, 0
2, 1049400, Note_on_c, 0, 63, 0
2, 1049400, Note_on_c, 0, 60, 0
2, 1049400, Note_on_c, 0, 72, 70
2, 1049400, Note_on_c, 0, 75, 70
2, 1049400, Note_on_c, 0, 81, 70
2, 1049520, Note_on_c, 0, 81, 0
2, 1049520, Note_on_c, 0, 75, 0
2, 1049520, Note_on_c, 0, 72, 0
2, 1049520, Note_on_c, 0, 60, 70
2, 1049520, Note_on_c, 0, 63, 70
2, 1049520, Note_on_c, 0, 67, 70
2, 1049640, Note_on_c, 0, 67, 0
2, 1049640, Note_on_c, 0, 63, 0
2, 1049640, Note_on_c, 0, 60, 0
2, 1049640, Note_on_c, 0, 72, 70
2, 1049640, Note_on_c, 0, 75, 70
2, 1049640, Note_on_c, 0, 79, 70
2, 1049760, Note_on_c, 0, 79, 0
2, 1049760, Note_on_c, 0, 75, 0
2, 1049760, Note_on_c, 0, 72, 0
2, 1049760, Note_on_c, 0, 57, 70
2, 1049760, Note_on_c, 0, 60, 70
2, 1049760, Note_on_c, 0, 66, 70
2, 1049880, Note_on_c, 0, 66, 0
2, 1049880, Note_on_c, 0, 60, 0
2, 1049880, Note_on_c, 0, 57, 0
2, 1049880, Note_on_c, 0, 69, 70
2, 1049880, Note_on_c, 0, 72, 70
2, 1049880, Note_on_c, 0, 78, 70
2, 1050000, Note_on_c, 0, 78, 0
2, 1050000, Note_on_c, 0, 72, 0
2, 1050000, Note_on_c, 0, 69, 0
2, 1050000, Note_on_c, 0, 57, 70
2, 1050000, Note_on_c, 0, 60, 70
2, 1050000, Note_on_c, 0, 65, 70
2, 1050120, Note_on_c, 0, 65, 0
2, 1050120, Note_on_c, 0, 60, 0
2, 1050120, Note_on_c, 0, 57, 0
2, 1050120, Note_on_c, 0, 69, 70
2, 1050120, Note_on_c, 0, 72, 70
2, 1050120, Note_on_c, 0, 77, 70
2, 1050240, Note_on_c, 0, 77, 0
2, 1050240, Note_on_c, 0, 72, 0
2, 1050240, Note_on_c, 0, 69, 0
2, 1050240, Note_on_c, 0, 57, 70
2, 1050240, Note_on_c, 0, 60, 70
2, 1050240, Note_on_c, 0, 64, 70
2, 1050360, Note_on_c, 0, 64, 0
2, 1050360, Note_on_c, 0, 60, 0
2, 1050360, Note_on_c, 0, 57, 0
2, 1050360, Note_on_c, 0, 69, 70
2, 1050360, Note_on_c, 0, 72, 70
2, 1050360, Note_on_c, 0, 76, 70
2, 1050480, Note_on_c, 0, 76, 0
2, 1050480, Note_on_c, 0, 72, 0
2, 1050480, Note_on_c, 0, 69, 0
2, 1050480, Note_on_c, 0, 57, 70
2, 1050480, Note_on_c, 0, 60, 70
2, 1050480, Note_on_c, 0, 63, 70
2, 1050600, Note_on_c, 0, 63, 0
2, 1050600, Note_on_c, 0, 60, 0
2, 1050600, Note_on_c, 0, 57, 0
2, 1050600, Note_on_c, 0, 69, 70
2, 1050600, Note_on_c, 0, 72, 70
2, 1050600, Note_on_c, 0, 75, 70
2, 1050720, Note_on_c, 0, 75, 0
2, 1050720, Note_on_c, 0, 72, 0
2, 1050720, Note_on_c, 0, 69, 0
2, 1050840, Note_on_c, 0, 74, 96
2, 1050960, Note_on_c, 0, 74, 0
2, 1050960, Note_on_c, 0, 69, 70
2, 1051080, Note_on_c, 0, 69, 0
2, 1051080, Note_on_c, 0, 66, 70
2, 1051200, Note_on_c, 0, 66, 0
2, 1051320, Note_on_c, 0, 75, 96
2, 1051440, Note_on_c, 0, 75, 0
2, 1051440, Note_on_c, 0, 70, 70
2, 1051560, Note_on_c, 0, 70, 0
2, 1051560, Note_on_c, 0, 67, 70
2, 1051680, Note_on_c, 0, 67, 0
2, 1051800, Note_on_c, 0, 74, 96
2, 1051920, Note_on_c, 0, 74, 0
2, 1051920, Note_on_c, 0, 70, 70
2, 1052040, Note_on_c, 0, 70, 0
2, 1052040, Note_on_c, 0, 67, 70
2, 1052160, Note_on_c, 0, 67, 0
2, 1052280, Note_on_c, 0, 64, 96
2, 1052400, Note_on_c, 0, 64, 0
2, 1052400, Note_on_c, 0, 62, 70
2, 1052520, Note_on_c, 0, 62, 0
2, 1052520, Note_on_c, 0, 58, 70
2, 1052640, Note_on_c, 0, 58, 0
2, 1052640, Note_on_c, 0, 66, 96
2, 1052760, Note_on_c, 0, 66, 0
2, 1052760, Note_on_c, 0, 58, 70
2, 1052760, Note_on_c, 0, 62, 70
2, 1052880, Note_on_c, 0, 62, 0
2, 1052880, Note_on_c, 0, 58, 0
2, 1052880, Note_on_c, 0, 67, 96
2, 1053000, Note_on_c, 0, 67, 0
2, 1053000, Note_on_c, 0, 58, 70
2, 1053000, Note_on_c, 0, 62, 70
2, 1053120, Note_on_c, 0, 62, 0
2, 1053120, Note_on_c, 0, 58, 0
2, 1053120, Note_on_c, 0, 70, 96
2, 1053240, Note_on_c, 0, 70, 0
2, 1053240, Note_on_c, 0, 66, 70
2, 1053360, Note_on_c, 0, 66, 0
2, 1053360, Note_on_c, 0, 60, 70
2, 1053480, Note_on_c, 0, 60, 0
2, 1053480, Note_on_c, 0, 66, 70
2, 1053600, Note_on_c, 0, 66, 0
2, 1053600, Note_on_c, 0, 69, 96
2, 1053720, Note_on_c, 0, 69, 0
2, 1053720, Note_on_c, 0, 72, 70
2, 1053840, Note_on_c, 0, 72, 0
2, 1053840, Note_on_c, 0, 66, 70
2, 1053840, Note_on_c, 0, 78, 70
2, 1053960, Note_on_c, 0, 78, 0
2, 1053960, Note_on_c, 0, 66, 0
2, 1053960, Note_on_c, 0, 69, 70
2, 1053960, Note_on_c, 0, 81, 70
2, 1054080, Note_on_c, 0, 81, 0
2, 1054080, Note_on_c, 0, 69, 0
2, 1054080, Note_on_c, 0, 72, 70
2, 1054080, Note_on_c, 0, 84, 70
2, 1054200, Note_on_c, 0, 84, 0
2, 1054200, Note_on_c, 0, 72, 0
2, 1054200, Note_on_c, 0, 69, 70
2, 1054200, Note_on_c, 0, 81, 70
2, 1054320, Note_on_c, 0, 81, 0
2, 1054320, Note_on_c, 0, 69, 0
2, 1054320, Note_on_c, 0, 66, 70
2, 1054320, Note_on_c, 0, 78, 70
2, 1054440, Note_on_c, 0, 78, 0
2, 1054440, Note_on_c, 0, 66, 0
2, 1054440, Note_on_c, 0, 72, 70
2, 1054560, Note_on_c, 0, 72, 0
2, 1054680, Note_on_c, 0, 74, 96
2, 1054800, Note_on_c, 0, 74, 0
2, 1054800, Note_on_c, 0, 69, 70
2, 1054920, Note_on_c, 0, 69, 0
2, 1054920, Note_on_c, 0, 66, 70
2, 1055040, Note_on_c, 0, 66, 0
2, 1055160, Note_on_c, 0, 75, 96
2, 1055280, Note_on_c, 0, 75, 0
2, 1055280, Note_on_c, 0, 70, 70
2, 1055400, Note_on_c, 0, 70, 0
2, 1055400, Note_on_c, 0, 67, 70
2, 1055520, Note_on_c, 0, 67, 0
2, 1055640, Note_on_c, 0, 74, 96
2, 1055760, Note_on_c, 0, 74, 0
2, 1055760, Note_on_c, 0, 70, 70
2, 1055880, Note_on_c, 0, 70, 0
2, 1055880, Note_on_c, 0, 67, 70
2, 1056000, Note_on_c, 0, 67, 0
2, 1056120, Note_on_c, 0, 64, 96
2, 1056240, Note_on_c, 0, 64, 0
2, 1056240, Note_on_c, 0, 62, 70
2, 1056360, Note_on_c, 0, 62, 0
2, 1056360, Note_on_c, 0, 58, 70
2, 1056480, Note_on_c, 0, 58, 0
2, 1056480, Note_on_c, 0, 66, 96
2, 1056600, Note_on_c, 0, 66, 0
2, 1056600, Note_on_c, 0, 58, 70
2, 1056600, Note_on_c, 0, 62, 70
2, 1056720, Note_on_c, 0, 62, 0
2, 1056720, Note_on_c, 0, 58, 0
2, 1056720, Note_on_c, 0, 67, 96
2, 1056840, Note_on_c, 0, 67, 0
2, 1056840, Note_on_c, 0, 58, 70
2, 1056840, Note_on_c, 0, 62, 70
2, 1056960, Note_on_c, 0, 62, 0
2, 1056960, Note_on_c, 0, 58, 0
2, 1056960, Note_on_c, 0, 70, 96
2, 1057080, Note_on_c, 0, 70, 0
2, 1057080, Note_on_c, 0, 66, 70
2, 1057200, Note_on_c, 0, 66, 0
2, 1057200, Note_on_c, 0, 60, 70
2, 1057320, Note_on_c, 0, 60, 0
2, 1057320, Note_on_c, 0, 66, 70
2, 1057440, Note_on_c, 0, 66, 0
2, 1057440, Note_on_c, 0, 69, 96
2, 1057560, Note_on_c, 0, 69, 0
2, 1057560, Note_on_c, 0, 72, 70
2, 1057680, Note_on_c, 0, 72, 0
2, 1057680, Note_on_c, 0, 66, 70
2, 1057680, Note_on_c, 0, 78, 70
2, 1057800, Note_on_c, 0, 78, 0
2, 1057800, Note_on_c, 0, 66, 0
2, 1057800, Note_on_c, 0, 69, 70
2, 1057800, Note_on_c, 0, 81, 70
2, 1057920, Note_on_c, 0, 81, 0
2, 1057920, Note_on_c, 0, 69, 0
2, 1057920, Note_on_c, 0, 72, 70
2, 1057920, Note_on_c, 0, 84, 70
2, 1058040, Note_on_c, 0, 84, 0
2, 1058040, Note_on_c, 0, 72, 0
2, 1058040, Note_on_c, 0, 69, 70
2, 1058040, Note_on_c, 0, 81, 70
2, 1058160, Note_on_c, 0, 81, 0
2, 1058160, Note_on_c, 0, 69, 0
2, 1058160, Note_on_c, 0, 66, 70
2, 1058160, Note_on_c, 0, 78, 70
2, 1058280, Note_on_c, 0, 78, 0
2, 1058280, Note_on_c, 0, 66, 0
2, 1058280, Note_on_c, 0, 72, 70
2, 1058400, Note_on_c, 0, 72, 0
2, 1058520, Note_on_c, 0, 74, 96
2, 1058640, Note_on_c, 0, 74, 0
2, 1058640, Note_on_c, 0, 69, 70
2, 1058760, Note_on_c, 0, 69, 0
2, 1058760, Note_on_c, 0, 66, 70
2, 1058880, Note_on_c, 0, 66, 0
2, 1059000, Note_on_c, 0, 75, 96
2, 1059120, Note_on_c, 0, 75, 0
2, 1059120, Note_on_c, 0, 70, 70
2, 1059240, Note_on_c, 0, 70, 0
2, 1059240, Note_on_c, 0, 67, 70
2, 1059360, Note_on_c, 0, 67, 0
2, 1059480, Note_on_c, 0, 74, 96
2, 1059600, Note_on_c, 0, 74, 0
2, 1059600, Note_on_c, 0, 70, 70
2, 1059720, Note_on_c, 0, 70, 0
2, 1059720, Note_on_c, 0, 67, 70
2, 1059840, Note_on_c, 0, 67, 0
2, 1059960, Note_on_c, 0, 64, 96
2, 1060080, Note_on_c, 0, 64, 0
2, 1060080, Note_on_c, 0, 62, 70
2, 1060200, Note_on_c, 0, 62, 0
2, 1060200, Note_on_c, 0, 58, 70
2, 1060320, Note_on_c, 0, 58, 0
2, 1060320, Note_on_c, 0, 66, 96
2, 1060440, Note_on_c, 0, 66, 0
2, 1060440, Note_on_c, 0, 58, 70
2, 1060440, Note_on_c, 0, 62, 70
2, 1060560, Note_on_c, 0, 62, 0
2, 1060560, Note_on_c, 0, 58, 0
2, 1060560, Note_on_c, 0, 67, 96
2, 1060680, Note_on_c, 0, 67, 0
2, 1060680, Note_on_c, 0, 58, 70
2, 1060680, Note_on_c, 0, 62, 70
2, 1060800, Note_on_c, 0, 62, 0
2, 1060800, Note_on_c, 0, 58, 0
2, 1060800, Note_on_c, 0, 69, 96
2, 1060920, Note_on_c, 0, 69, 0
2, 1060920, Note_on_c, 0, 64, 70
2, 1061040, Note_on_c, 0, 64, 0
2, 1061040, Note_on_c, 0, 58, 70
2, 1061160, Note_on_c, 0, 58, 0
2, 1061160, Note_on_c, 0, 64, 70
2, 1061280, Note_on_c, 0, 64, 0
2, 1061280, Control_c, 0, 64, 127
2, 1061280, Note_on_c, 0, 67, 96
2, 1061400, Note_on_c, 0, 67, 0
2, 1061400, Note_on_c, 0, 70, 70
2, 1061520, Note_on_c, 0, 70, 0
2, 1061520, Note_on_c, 0, 64, 70
2, 1061520, Note_on_c, 0, 76, 70
2, 1061640, Note_on_c, 0, 76, 0
2, 1061640, Note_on_c, 0, 64, 0
2, 1061640, Note_on_c, 0, 67, 70
2, 1061640, Note_on_c, 0, 79, 70
2, 1061760, Note_on_c, 0, 79, 0
2, 1061760, Note_on_c, 0, 67, 0
2, 1061760, Note_on_c, 0, 70, 70
2, 1061760, Note_on_c, 0, 82, 70
2, 1061880, Note_on_c, 0, 82, 0
2, 1061880, Note_on_c, 0, 70, 0
2, 1061880, Note_on_c, 0, 67, 70
2, 1061880, Note_on_c, 0, 79, 70
2, 1062000, Note_on_c, 0, 79, 0
2, 1062000, Note_on_c, 0, 67, 0
2, 1062000, Note_on_c, 0, 64, 70
2, 1062000, Note_on_c, 0, 76, 70
2, 1062120, Note_on_c, 0, 76, 0
2, 1062120, Note_on_c, 0, 64, 0
2, 1062120, Control_c, 0, 64, 0
2, 1062120, Note_on_c, 0, 70, 70
2, 1062240, Note_on_c, 0, 70, 0
2, 1062360, Note_on_c, 0, 72, 96
2, 1062480, Note_on_c, 0, 72, 0
2, 1062480, Note_on_c, 0, 70, 70
2, 1062600, Note_on_c, 0, 70, 0
2, 1062600, Note_on_c, 0, 67, 70
2, 1062720, Note_on_c, 0, 67, 0
2, 1062840, Note_on_c, 0, 74, 96
2, 1062960, Note_on_c, 0, 74, 0
2, 1062960, Note_on_c, 0, 69, 70
2, 1063080, Note_on_c, 0, 69, 0
2, 1063080, Note_on_c, 0, 65, 70
2, 1063200, Note_on_c, 0, 65, 0
2, 1063320, Note_on_c, 0, 72, 96
2, 1063440, Note_on_c, 0, 72, 0
2, 1063440, Note_on_c, 0, 69, 70
2, 1063560, Note_on_c, 0, 69, 0
2, 1063560, Note_on_c, 0, 65, 70
2, 1063680, Note_on_c, 0, 65, 0
2, 1063800, Note_on_c, 0, 62, 96
2, 1063920, Note_on_c, 0, 62, 0
2, 1063920, Note_on_c, 0, 60, 70
2, 1064040, Note_on_c, 0, 60, 0
2, 1064040, Note_on_c, 0, 57, 70
2, 1064160, Note_on_c, 0, 57, 0
2, 1064160, Note_on_c, 0, 64, 96
2, 1064280, Note_on_c, 0, 64, 0
2, 1064280, Note_on_c, 0, 57, 70
2, 1064280, Note_on_c, 0, 60, 70
2, 1064400, Note_on_c, 0, 60, 0
2, 1064400, Note_on_c, 0, 57, 0
2, 1064400, Note_on_c, 0, 65, 96
2, 1064520, Note_on_c, 0, 65, 0
2, 1064520, Note_on_c, 0, 57, 70
2, 1064520, Note_on_c, 0, 60, 70
2, 1064640, Note_on_c, 0, 60, 0
2, 1064640, Note_on_c, 0, 57, 0
2, 1064640, Note_on_c, 0, 69, 96
2, 1064760, Note_on_c, 0, 69, 0
2, 1064760, Note_on_c, 0, 64, 70
2, 1064880, Note_on_c, 0, 64, 0
2, 1064880, Note_on_c, 0, 58, 70
2, 1065000, Note_on_c, 0, 58, 0
2, 1065000, Note_on_c, 0, 64, 70
2, 1065120, Note_on_c, 0, 64, 0
2, 1065120, Control_c, 0, 64, 127
2, 1065120, Note_on_c, 0, 67, 96
2, 1065240, Note_on_c, 0, 67, 0
2, 1065240, Note_on_c, 0, 70, 70
2, 1065360, Note_on_c, 0, 70, 0
2, 1065360, Note_on_c, 0, 64, 70
2, 1065360, Note_on_c, 0, 76, 70
2, 1065480, Note_on_c, 0, 76, 0
2, 1065480, Note_on_c, 0, 64, 0
2, 1065480, Note_on_c, 0, 67, 70
2, 1065480, Note_on_c, 0, 79, 70
2, 1065600, Note_on_c, 0, 79, 0
2, 1065600, Note_on_c, 0, 67, 0
2, 1065600, Note_on_c, 0, 70, 70
2, 1065600, Note_on_c, 0, 82, 70
2, 1065720, Note_on_c, 0, 82, 0
2, 1065720, Note_on_c, 0, 70, 0
2, 1065720, Note_on_c, 0, 67, 70
2, 1065720, Note_on_c, 0, 79, 70
2, 1065840, Note_on_c, 0, 79, 0
2, 1065840, Note_on_c, 0, 67, 0
2, 1065840, Note_on_c, 0, 64, 70
2, 1065840, Note_on_c, 0, 76, 70
2, 1065960, Note_on_c, 0, 76, 0
2, 1065960, Note_on_c, 0, 64, 0
2, 1065960, Control_c, 0, 64, 0
2, 1065960, Note_on_c, 0, 70, 70
2, 1066080, Note_on_c, 0, 70, 0
2, 1066200, Note_on_c, 0, 72, 96
2, 1066320, Note_on_c, 0, 72, 0
2, 1066320, Note_on_c, 0, 70, 70
2, 1066440, Note_on_c, 0, 70, 0
2, 1066440, Note_on_c, 0, 67, 70
2, 1066560, Note_on_c, 0, 67, 0
2, 1066680, Note_on_c, 0, 74, 96
2, 1066800, Note_on_c, 0, 74, 0
2, 1066800, Note_on_c, 0, 69, 70
2, 1066920, Note_on_c, 0, 69, 0
2, 1066920, Note_on_c, 0, 65, 70
2, 1067040, Note_on_c, 0, 65, 0
2, 1067160, Note_on_c, 0, 72, 96
2, 1067280, Note_on_c, 0, 72, 0
2, 1067280, Note_on_c, 0, 69, 70
2, 1067400, Note_on_c, 0, 69, 0
2, 1067400, Note_on_c, 0, 65, 70
2, 1067520, Note_on_c, 0, 65, 0
2, 1067640, Note_on_c, 0, 57, 70
2, 1067640, Note_on_c, 0, 65, 70
2, 1067880, Note_on_c, 0, 65, 0
2, 1067880, Note_on_c, 0, 57, 0
2, 1067880, Note_on_c, 0, 65, 70
2, 1067880, Note_on_c, 0, 69, 70
2, 1068120, Note_on_c, 0, 69, 0
2, 1068120, Note_on_c, 0, 65, 0
2, 1068120, Note_on_c, 0, 72, 96
2, 1068240, Note_on_c, 0, 72, 0
2, 1068240, Note_on_c, 0, 69, 70
2, 1068360, Note_on_c, 0, 69, 0
2, 1068360, Note_on_c, 0, 65, 70
2, 1068480, Note_on_c, 0, 65, 0
2, 1068600, Note_on_c, 0, 74, 96
2, 1068720, Note_on_c, 0, 74, 0
2, 1068720, Note_on_c, 0, 69, 70
2, 1068840, Note_on_c, 0, 69, 0
2, 1068840, Note_on_c, 0, 65, 70
2, 1068960, Note_on_c, 0, 65, 0
2, 1069080, Note_on_c, 0, 72, 96
2, 1069200, Note_on_c, 0, 72, 0
2, 1069200, Note_on_c, 0, 69, 70
2, 1069320, Note_on_c, 0, 69, 0
2, 1069320, Note_on_c, 0, 65, 70
2, 1069440, Note_on_c, 0, 65, 0
2, 1069560, Note_on_c, 0, 57, 70
2, 1069560, Note_on_c, 0, 65, 70
2, 1069800, Note_on_c, 0, 65, 0
2, 1069800, Note_on_c, 0, 57, 0
2, 1069800, Note_on_c, 0, 65, 70
2, 1069800, Note_on_c, 0, 69, 70
2, 1070040, Note_on_c, 0, 69, 0
2, 1070040, Note_on_c, 0, 65, 0
2, 1070040, Note_on_c, 0, 72, 96
2, 1070160, Note_on_c, 0, 72, 0
2, 1070160, Note_on_c, 0, 69, 70
2, 1070280, Note_on_c, 0, 69, 0
2, 1070280, Note_on_c, 0, 65, 70
2, 1070400, Note_on_c, 0, 65, 0
2, 1070520, Note_on_c, 0, 75, 96
2, 1070640, Note_on_c, 0, 75, 0
2, 1070640, Note_on_c, 0, 69, 70
2, 1070760, Note_on_c, 0, 69, 0
2, 1070760, Note_on_c, 0, 66, 70
2, 1070880, Note_on_c, 0, 66, 0
2, 1071000, Note_on_c, 0, 74, 96
2, 1071120, Note_on_c, 0, 74, 0
2, 1071120, Note_on_c, 0, 69, 70
2, 1071240, Note_on_c, 0, 69, 0
2, 1071240, Note_on_c, 0, 66, 70
2, 1071360, Note_on_c, 0, 66, 0
2, 1071480, Note_on_c, 0, 57, 70
2, 1071480, Note_on_c, 0, 66, 70
2, 1071720, Note_on_c, 0, 66, 0
2, 1071720, Note_on_c, 0, 57, 0
2, 1071720, Note_on_c, 0, 66, 70
2, 1071720, Note_on_c, 0, 69, 70
2, 1071960, Note_on_c, 0, 69, 0
2, 1071960, Note_on_c, 0, 66, 0
2, 1071960, Note_on_c, 0, 74, 96
2, 1072080, Note_on_c, 0, 74, 0
2, 1072080, Note_on_c, 0, 69, 70
2, 1072200, Note_on_c, 0, 69, 0
2, 1072200, Note_on_c, 0, 66, 70
2, 1072320, Note_on_c, 0, 66, 0
2, 1072440, Note_on_c, 0, 77, 96
2, 1072560, Note_on_c, 0, 77, 0
2, 1072560, Note_on_c, 0, 71, 70
2, 1072680, Note_on_c, 0, 71, 0
2, 1072680, Note_on_c, 0, 68, 70
2, 1072800, Note_on_c, 0, 68, 0
2, 1072920, Note_on_c, 0, 76, 96
2, 1073040, Note_on_c, 0, 76, 0
2, 1073040, Note_on_c, 0, 71, 70
2, 1073160, Note_on_c, 0, 71, 0
2, 1073160, Note_on_c, 0, 68, 70
2, 1073280, Note_on_c, 0, 68, 0
2, 1073400, Note_on_c, 0, 59, 70
2, 1073400, Note_on_c, 0, 62, 70
2, 1073400, Note_on_c, 0, 68, 70
2, 1073640, Note_on_c, 0, 68, 0
2, 1073640, Note_on_c, 0, 62, 0
2, 1073640, Note_on_c, 0, 59, 0
2, 1073640, Note_on_c, 0, 62, 70
2, 1073640, Note_on_c, 0, 68, 70
2, 1073640, Note_on_c, 0, 71, 70
2, 1073880, Note_on_c, 0, 71, 0
2, 1073880, Note_on_c, 0, 68, 0
2, 1073880, Note_on_c, 0, 62, 0
2, 1073880, Note_on_c, 0, 76, 96
2, 1074000, Note_on_c, 0, 76, 0
2, 1074000, Note_on_c, 0, 71, 70
2, 1074120, Note_on_c, 0, 71, 0
2, 1074120, Note_on_c, 0, 68, 70
2, 1074240, Note_on_c, 0, 68, 0
2, 1074360, Note_on_c, 0, 77, 109
2, 1074480, Note_on_c, 0, 77, 0
2, 1074480, Note_on_c, 0, 72, 83
2, 1074600, Note_on_c, 0, 72, 0
2, 1074600, Note_on_c, 0, 69, 83
2, 1074720, Note_on_c, 0, 69, 0
2, 1074840, Note_on_c, 0, 76, 109
2, 1074960, Note_on_c, 0, 76, 0
2, 1074960, Note_on_c, 0, 72, 83
2, 1075080, Note_on_c, 0, 72, 0
2, 1075080, Note_on_c, 0, 69, 83
2, 1075200, Note_on_c, 0, 69, 0
2, 1075320, Note_on_c, 0, 66, 96
2, 1075440, Note_on_c, 0, 66, 0
2, 1075440, Note_on_c, 0, 64, 70
2, 1075560, Note_on_c, 0, 64, 0
2, 1075560, Note_on_c, 0, 60, 70
2, 1075680, Note_on_c, 0, 60, 0
2, 1075680, Note_on_c, 0, 68, 96
2, 1075800, Note_on_c, 0, 68, 0
2, 1075800, Note_on_c, 0, 60, 70
2, 1075800, Note_on_c, 0, 64, 70
2, 1075920, Note_on_c, 0, 64, 0
2, 1075920, Note_on_c, 0, 60, 0
2, 1075920, Note_on_c, 0, 69, 96
2, 1076040, Note_on_c, 0, 69, 0
2, 1076040, Note_on_c, 0, 60, 70
2, 1076040, Note_on_c, 0, 64, 70
2, 1076160, Note_on_c, 0, 64, 0
2, 1076160, Note_on_c, 0, 60, 0
2, 1076160, Note_on_c, 0, 72, 96
2, 1076280, Note_on_c, 0, 72, 0
2, 1076280, Note_on_c, 0, 68, 70
2, 1076400, Note_on_c, 0, 68, 0
2, 1076400, Note_on_c, 0, 62, 70
2, 1076520, Note_on_c, 0, 62, 0
2, 1076520, Note_on_c, 0, 68, 70
2, 1076640, Note_on_c, 0, 68, 0
2, 1076640, Control_c, 0, 64, 127
2, 1076640, Note_on_c, 0, 71, 96
2, 1076760, Note_on_c, 0, 71, 0
2, 1076760, Note_on_c, 0, 74, 70
2, 1076880, Note_on_c, 0, 74, 0
2, 1076880, Note_on_c, 0, 68, 70
2, 1076880, Note_on_c, 0, 80, 70
2, 1077000, Note_on_c, 0, 80, 0
2, 1077000, Note_on_c, 0, 68, 0
2, 1077000, Note_on_c, 0, 71, 70
2, 1077000, Note_on_c, 0, 83, 70
2, 1077120, Note_on_c, 0, 83, 0
2, 1077120, Note_on_c, 0, 71, 0
2, 1077120, Note_on_c, 0, 74, 70
2, 1077120, Note_on_c, 0, 86, 70
2, 1077240, Note_on_c, 0, 86, 0
2, 1077240, Note_on_c, 0, 74, 0
2, 1077240, Note_on_c, 0, 71, 70
2, 1077240, Note_on_c, 0, 83, 70
2, 1077360, Note_on_c, 0, 83, 0
2, 1077360, Note_on_c, 0, 71, 0
2, 1077360, Note_on_c, 0, 68, 70
2, 1077360, Note_on_c, 0, 80, 70
2, 1077480, Note_on_c, 0, 80, 0
2, 1077480, Note_on_c, 0, 68, 0
2, 1077480, Control_c, 0, 64, 0
2, 1077480, Note_on_c, 0, 74, 70
2, 1077600, Note_on_c, 0, 74, 0
2, 1077720, Note_on_c, 0, 76, 96
2, 1077840, Note_on_c, 0, 76, 0
2, 1077840, Note_on_c, 0, 71, 70
2, 1077960, Note_on_c, 0, 71, 0
2, 1077960, Note_on_c, 0, 68, 70
2, 1078080, Note_on_c, 0, 68, 0
2, 1078200, Note_on_c, 0, 77, 109
2, 1078320, Note_on_c, 0, 77, 0
2, 1078320, Note_on_c, 0, 72, 83
2, 1078440, Note_on_c, 0, 72, 0
2, 1078440, Note_on_c, 0, 69, 83
2, 1078560, Note_on_c, 0, 69, 0
2, 1078680, Note_on_c, 0, 76, 109
2, 1078800, Note_on_c, 0, 76, 0
2, 1078800, Note_on_c, 0, 72, 83
2, 1078920, Note_on_c, 0, 72, 0
2, 1078920, Note_on_c, 0, 69, 83
2, 1079040, Note_on_c, 0, 69, 0
2, 1079160, Note_on_c, 0, 66, 96
2, 1079280, Note_on_c, 0, 66, 0
2, 1079280, Note_on_c, 0, 64, 70
2, 1079400, Note_on_c, 0, 64, 0
2, 1079400, Note_on_c, 0, 60, 70
2, 1079520, Note_on_c, 0, 60, 0
2, 1079520, Note_on_c, 0, 68, 96
2, 1079640, Note_on_c, 0, 68, 0
2, 1079640, Note_on_c, 0, 60, 70
2, 1079640, Note_on_c, 0, 64, 70
2, 1079760, Note_on_c, 0, 64, 0
2, 1079760, Note_on_c, 0, 60, 0
2, 1079760, Note_on_c, 0, 69, 96
2, 1079880, Note_on_c, 0, 69, 0
2, 1079880, Note_on_c, 0, 60, 70
2, 1079880, Note_on_c, 0, 64, 70
2, 1080000, Note_on_c, 0, 64, 0
2, 1080000, Note_on_c, 0, 60, 0
2, 1080000, Note_on_c, 0, 71, 96
2, 1080120, Note_on_c, 0, 71, 0
2, 1080120, Note_on_c, 0, 66, 70
2, 1080240, Note_on_c, 0, 66, 0
2, 1080240, Note_on_c, 0, 60, 70
2, 1080360, Note_on_c, 0, 60, 0
2, 1080360, Note_on_c, 0, 66, 70
2, 1080480, Note_on_c, 0, 66, 0
2, 1080480, Control_c, 0, 64, 127
2, 1080480, Note_on_c, 0, 69, 96
2, 1080600, Note_on_c, 0, 69, 0
2, 1080600, Note_on_c, 0, 72, 70
2, 1080720, Note_on_c, 0, 72, 0
2, 1080720, Note_on_c, 0, 66, 70
2, 1080720, Note_on_c, 0, 78, 70
2, 1080840, Note_on_c, 0, 78, 0
2, 1080840, Note_on_c, 0, 66, 0
2, 1080840, Note_on_c, 0, 69, 70
2, 1080840, Note_on_c, 0, 81, 70
2, 1080960, Note_on_c, 0, 81, 0
2, 1080960, Note_on_c, 0, 69, 0
2, 1080960, Note_on_c, 0, 72, 70
2, 1080960, Note_on_c, 0, 84, 70
2, 1081080, Note_on_c, 0, 84, 0
2, 1081080, Note_on_c, 0, 72, 0
2, 1081080, Note_on_c, 0, 69, 70
2, 1081080, Note_on_c, 0, 81, 70
2, 1081200, Note_on_c, 0, 81, 0
2, 1081200, Note_on_c, 0, 69, 0
2, 1081200, Note_on_c, 0, 66, 70
2, 1081200, Note_on_c, 0, 78, 70
2, 1081320, Note_on_c, 0, 78, 0
2, 1081320, Note_on_c, 0, 66, 0
2, 1081320, Control_c, 0, 64, 0
2, 1081320, Note_on_c, 0, 72, 70
2, 1081440, Note_on_c, 0, 72, 0
2, 1081560, Note_on_c, 0, 74, 96
2, 1081680, Note_on_c, 0, 74, 0
2, 1081680, Note_on_c, 0, 72, 70
2, 1081800, Note_on_c, 0, 72, 0
2, 1081800, Note_on_c, 0, 69, 70
2, 1081920, Note_on_c, 0, 69, 0
2, 1082040, Note_on_c, 0, 76, 96
2, 1082160, Note_on_c, 0, 76, 0
2, 1082160, Note_on_c, 0, 71, 70
2, 1082280, Note_on_c, 0, 71, 0
2, 1082280, Note_on_c, 0, 67, 70
2, 1082400, Note_on_c, 0, 67, 0
2, 1082520, Note_on_c, 0, 74, 96
2, 1082640, Note_on_c, 0, 74, 0
2, 1082640, Note_on_c, 0, 71, 70
2, 1082760, Note_on_c, 0, 71, 0
2, 1082760, Note_on_c, 0, 67, 70
2, 1082880, Note_on_c, 0, 67, 0
2, 1083000, Note_on_c, 0, 64, 96
2, 1083120, Note_on_c, 0, 64, 0
2, 1083120, Note_on_c, 0, 62, 70
2, 1083240, Note_on_c, 0, 62, 0
2, 1083240, Note_on_c, 0, 59, 70
2, 1083360, Note_on_c, 0, 59, 0
2, 1083360, Note_on_c, 0, 66, 96
2, 1083480, Note_on_c, 0, 66, 0
2, 1083480, Note_on_c, 0, 59, 70
2, 1083480, Note_on_c, 0, 62, 70
2, 1083600, Note_on_c, 0, 62, 0
2, 1083600, Note_on_c, 0, 59, 0
2, 1083600, Note_on_c, 0, 67, 96
2, 1083720, Note_on_c, 0, 67, 0
2, 1083720, Note_on_c, 0, 59, 70
2, 1083720, Note_on_c, 0, 62, 70
2, 1083840, Note_on_c, 0, 62, 0
2, 1083840, Note_on_c, 0, 59, 0
2, 1083840, Note_on_c, 0, 71, 96
2, 1083960, Note_on_c, 0, 71, 0
2, 1083960, Note_on_c, 0, 66, 70
2, 1084080, Note_on_c, 0, 66, 0
2, 1084080, Note_on_c, 0, 60, 70
2, 1084200, Note_on_c, 0, 60, 0
2, 1084200, Note_on_c, 0, 66, 70
2, 1084320, Note_on_c, 0, 66, 0
2, 1084320, Control_c, 0, 64, 127
2, 1084320, Note_on_c, 0, 69, 96
2, 1084440, Note_on_c, 0, 69, 0
2, 1084440, Note_on_c, 0, 72, 70
2, 1084560, Note_on_c, 0, 72, 0
2, 1084560, Note_on_c, 0, 66, 70
2, 1084560, Note_on_c, 0, 78, 70
2, 1084680, Note_on_c, 0, 78, 0
2, 1084680, Note_on_c, 0, 66, 0
2, 1084680, Note_on_c, 0, 69, 70
2, 1084680, Note_on_c, 0, 81, 70
2, 1084800, Note_on_c, 0, 81, 0
2, 1084800, Note_on_c, 0, 69, 0
2, 1084800, Note_on_c, 0, 72, 70
2, 1084800, Note_on_c, 0, 84, 70
2, 1084920, Note_on_c, 0, 84, 0
2, 1084920, Note_on_c, 0, 72, 0
2, 1084920, Note_on_c, 0, 69, 70
2, 1084920, Note_on_c, 0, 81, 70
2, 1085040, Note_on_c, 0, 81, 0
2, 1085040, Note_on_c, 0, 69, 0
2, 1085040, Note_on_c, 0, 66, 70
2, 1085040, Note_on_c, 0, 78, 70
2, 1085160, Note_on_c, 0, 78, 0
2, 1085160, Note_on_c, 0, 66, 0
2, 1085160, Control_c, 0, 64, 0
2, 1085160, Note_on_c, 0, 72, 70
2, 1085280, Note_on_c, 0, 72, 0
2, 1085400, Note_on_c, 0, 74, 96
2, 1085520, Note_on_c, 0, 74, 0
2, 1085520, Note_on_c, 0, 69, 70
2, 1085640, Note_on_c, 0, 69, 0
2, 1085640, Note_on_c, 0, 66, 70
2, 1085760, Note_on_c, 0, 66, 0
2, 1085880, Note_on_c, 0, 76, 96
2, 1086000, Note_on_c, 0, 76, 0
2, 1086000, Note_on_c, 0, 71, 70
2, 1086120, Note_on_c, 0, 71, 0
2, 1086120, Note_on_c, 0, 67, 70
2, 1086240, Note_on_c, 0, 67, 0
2, 1086360, Note_on_c, 0, 74, 96
2, 1086480, Note_on_c, 0, 74, 0
2, 1086480, Note_on_c, 0, 71, 70
2, 1086600, Note_on_c, 0, 71, 0
2, 1086600, Note_on_c, 0, 67, 70
2, 1086720, Note_on_c, 0, 67, 0
2, 1086840, Note_on_c, 0, 59, 70
2, 1086840, Note_on_c, 0, 67, 70
2, 1087080, Note_on_c, 0, 67, 0
2, 1087080, Note_on_c, 0, 59, 0
2, 1087080, Note_on_c, 0, 67, 70
2, 1087080, Note_on_c, 0, 71, 70
2, 1087320, Note_on_c, 0, 71, 0
2, 1087320, Note_on_c, 0, 67, 0
2, 1087320, Note_on_c, 0, 74, 96
2, 1087440, Note_on_c, 0, 74, 0
2, 1087440, Note_on_c, 0, 71, 70
2, 1087560, Note_on_c, 0, 71, 0
2, 1087560, Note_on_c, 0, 67, 70
2, 1087680, Note_on_c, 0, 67, 0
2, 1087800, Note_on_c, 0, 76, 96
2, 1087920, Note_on_c, 0, 76, 0
2, 1087920, Note_on_c, 0, 71, 70
2, 1088040, Note_on_c, 0, 71, 0
2, 1088040, Note_on_c, 0, 67, 70
2, 1088160, Note_on_c, 0, 67, 0
2, 1088280, Note_on_c, 0, 74, 96
2, 1088400, Note_on_c, 0, 74, 0
2, 1088400, Note_on_c, 0, 71, 70
2, 1088520, Note_on_c, 0, 71, 0
2, 1088520, Note_on_c, 0, 67, 70
2, 1088640, Note_on_c, 0, 67, 0
2, 1088760, Note_on_c, 0, 59, 70
2, 1088760, Note_on_c, 0, 67, 70
2, 1089000, Note_on_c, 0, 67, 0
2, 1089000, Note_on_c, 0, 59, 0
2, 1089000, Note_on_c, 0, 67, 70
2, 1089000, Note_on_c, 0, 71, 70
2, 1089240, Note_on_c, 0, 71, 0
2, 1089240, Note_on_c, 0, 67, 0
2, 1089240, Note_on_c, 0, 74, 96
2, 1089360, Note_on_c, 0, 74, 0
2, 1089360, Note_on_c, 0, 71, 70
2, 1089480, Note_on_c, 0, 71, 0
2, 1089480, Note_on_c, 0, 67, 70
2, 1089600, Note_on_c, 0, 67, 0
2, 1089720, Note_on_c, 0, 77, 96
2, 1089840, Note_on_c, 0, 77, 0
2, 1089840, Note_on_c, 0, 71, 70
2, 1089960, Note_on_c, 0, 71, 0
2, 1089960, Note_on_c, 0, 68, 70
2, 1090080, Note_on_c, 0, 68, 0
2, 1090200, Note_on_c, 0, 76, 96
2, 1090320, Note_on_c, 0, 76, 0
2, 1090320, Note_on_c, 0, 71, 70
2, 1090440, Note_on_c, 0, 71, 0
2, 1090440, Note_on_c, 0, 68, 70
2, 1090560, Note_on_c, 0, 68, 0
2, 1090680, Note_on_c, 0, 59, 70
2, 1090680, Note_on_c, 0, 62, 70
2, 1090680, Note_on_c, 0, 68, 70
2, 1090920, Note_on_c, 0, 68, 0
2, 1090920, Note_on_c, 0, 62, 0
2, 1090920, Note_on_c, 0, 59, 0
2, 1090920, Note_on_c, 0, 62, 70
2, 1090920, Note_on_c, 0, 68, 70
2, 1090920, Note_on_c, 0, 71, 70
2, 1091160, Note_on_c, 0, 71, 0
2, 1091160, Note_on_c, 0, 68, 0
2, 1091160, Note_on_c, 0, 62, 0
2, 1091160, Note_on_c, 0, 76, 96
2, 1091280, Note_on_c, 0, 76, 0
2, 1091280, Note_on_c, 0, 71, 70
2, 1091400, Note_on_c, 0, 71, 0
2, 1091400, Note_on_c, 0, 68, 70
2, 1091520, Note_on_c, 0, 68, 0
2, 1091640, Note_on_c, 0, 77, 96
2, 1091760, Note_on_c, 0, 77, 0
2, 1091760, Note_on_c, 0, 71, 70
2, 1091880, Note_on_c, 0, 71, 0
2, 1091880, Note_on_c, 0, 68, 70
2, 1092000, Note_on_c, 0, 68, 0
2, 1092120, Note_on_c, 0, 76, 96
2, 1092240, Note_on_c, 0, 76, 0
2, 1092240, Note_on_c, 0, 71, 70
2, 1092360, Note_on_c, 0, 71, 0
2, 1092360, Note_on_c, 0, 68, 70
2, 1092480, Note_on_c, 0, 68, 0
2, 1092600, Note_on_c, 0, 59, 70
2, 1092600, Note_on_c, 0, 62, 70
2, 1092600, Note_on_c, 0, 68, 70
2, 1092840, Note_on_c, 0, 68, 0
2, 1092840, Note_on_c, 0, 62, 0
2, 1092840, Note_on_c, 0, 59, 0
2, 1092840, Note_on_c, 0, 62, 70
2, 1092840, Note_on_c, 0, 68, 70
2, 1092840, Note_on_c, 0, 71, 70
2, 1093080, Note_on_c, 0, 71, 0
2, 1093080, Note_on_c, 0, 68, 0
2, 1093080, Note_on_c, 0, 62, 0
2, 1093080, Note_on_c, 0, 76, 96
2, 1093200, Note_on_c, 0, 76, 0
2, 1093200, Note_on_c, 0, 71, 70
2, 1093320, Note_on_c, 0, 71, 0
2, 1093320, Note_on_c, 0, 68, 70
2, 1093440, Note_on_c, 0, 68, 0
2, 1093560, Note_on_c, 0, 77, 96
2, 1093680, Note_on_c, 0, 77, 0
2, 1093680, Note_on_c, 0, 72, 70
2, 1093800, Note_on_c, 0, 72, 0
2, 1093800, Note_on_c, 0, 69, 70
2, 1093920, Note_on_c, 0, 69, 0
2, 1094040, Note_on_c, 0, 76, 96
2, 1094160, Note_on_c, 0, 76, 0
2, 1094160, Note_on_c, 0, 72, 70
2, 1094280, Note_on_c, 0, 72, 0
2, 1094280, Note_on_c, 0, 69, 70
2, 1094400, Note_on_c, 0, 69, 0
2, 1094520, Note_on_c, 0, 60, 70
2, 1094520, Note_on_c, 0, 69, 70
2, 1094760, Note_on_c, 0, 69, 0
2, 1094760, Note_on_c, 0, 60, 0
2, 1094760, Note_on_c, 0, 69, 70
2, 1094760, Note_on_c, 0, 72, 70
2, 1095000, Note_on_c, 0, 72, 0
2, 1095000, Note_on_c, 0, 69, 0
2, 1095000, Note_on_c, 0, 76, 96
2, 1095120, Note_on_c, 0, 76, 0
2, 1095120, Note_on_c, 0, 72, 70
2, 1095240, Note_on_c, 0, 72, 0
2, 1095240, Note_on_c, 0, 69, 70
2, 1095360, Note_on_c, 0, 69, 0
2, 1095480, Note_on_c, 0, 79, 96
2, 1095600, Note_on_c, 0, 79, 0
2, 1095600, Note_on_c, 0, 73, 70
2, 1095720, Note_on_c, 0, 73, 0
2, 1095720, Note_on_c, 0, 70, 70
2, 1095840, Note_on_c, 0, 70, 0
2, 1095960, Note_on_c, 0, 78, 96
2, 1096080, Note_on_c, 0, 78, 0
2, 1096080, Note_on_c, 0, 73, 70
2, 1096200, Note_on_c, 0, 73, 0
2, 1096200, Note_on_c, 0, 70, 70
2, 1096320, Note_on_c, 0, 70, 0
2, 1096440, Note_on_c, 0, 61, 70
2, 1096440, Note_on_c, 0, 64, 70
2, 1096440, Note_on_c, 0, 70, 70
2, 1096680, Note_on_c, 0, 70, 0
2, 1096680, Note_on_c, 0, 64, 0
2, 1096680, Note_on_c, 0, 61, 0
2, 1096680, Note_on_c, 0, 64, 70
2, 1096680, Note_on_c, 0, 70, 70
2, 1096680, Note_on_c, 0, 73, 70
2, 1096920, Note_on_c, 0, 73, 0
2, 1096920, Note_on_c, 0, 70, 0
2, 1096920, Note_on_c, 0, 64, 0
2, 1096920, Note_on_c, 0, 78, 96
2, 1097040, Note_on_c, 0, 78, 0
2, 1097040, Note_on_c, 0, 73, 70
2, 1097160, Note_on_c, 0, 73, 0
2, 1097160, Note_on_c, 0, 70, 70
2, 1097280, Note_on_c, 0, 70, 0
2, 1097400, Note_on_c, 0, 79, 96
2, 1097520, Note_on_c, 0, 79, 0
2, 1097520, Note_on_c, 0, 74, 70
2, 1097640, Note_on_c, 0, 74, 0
2, 1097640, Note_on_c, 0, 71, 70
2, 1097760, Note_on_c, 0, 71, 0
2, 1097880, Note_on_c, 0, 78, 96
2, 1098000, Note_on_c, 0, 78, 0
2, 1098000, Note_on_c, 0, 74, 70
2, 1098120, Note_on_c, 0, 74, 0
2, 1098120, Note_on_c, 0, 71, 70
2, 1098240, Note_on_c, 0, 71, 0
2, 1098360, Note_on_c, 0, 62, 70
2, 1098360, Note_on_c, 0, 71, 70
2, 1098600, Note_on_c, 0, 71, 0
2, 1098600, Note_on_c, 0, 62, 0
2, 1098600, Note_on_c, 0, 71, 70
2, 1098600, Note_on_c, 0, 74, 70
2, 1098840, Note_on_c, 0, 74, 0
2, 1098840, Note_on_c, 0, 71, 0
2, 1098840, Note_on_c, 0, 78, 96
2, 1098960, Note_on_c, 0, 78, 0
2, 1098960, Note_on_c, 0, 74, 70
2, 1099080, Note_on_c, 0, 74, 0
2, 1099080, Note_on_c, 0, 71, 70
2, 1099200, Note_on_c, 0, 71, 0
2, 1099320, Note_on_c, 0, 81, 96
2, 1099440, Note_on_c, 0, 81, 0
2, 1099440, Note_on_c, 0, 75, 70
2, 1099560, Note_on_c, 0, 75, 0
2, 1099560, Note_on_c, 0, 72, 70
2, 1099680, Note_on_c, 0, 72, 0
2, 1099800, Note_on_c, 0, 80, 96
2, 1099920, Note_on_c, 0, 80, 0
2, 1099920, Note_on_c, 0, 75, 70
2, 1100040, Note_on_c, 0, 75, 0
2, 1100040, Note_on_c, 0, 72, 70
2, 1100160, Note_on_c, 0, 72, 0
2, 1100280, Note_on_c, 0, 63, 70
2, 1100280, Note_on_c, 0, 66, 70
2, 1100280, Note_on_c, 0, 72, 70
2, 1100520, Note_on_c, 0, 72, 0
2, 1100520, Note_on_c, 0, 66, 0
2, 1100520, Note_on_c, 0, 63, 0
2, 1100520, Note_on_c, 0, 66, 70
2, 1100520, Note_on_c, 0, 72, 70
2, 1100520, Note_on_c, 0, 75, 70
2, 1100760, Note_on_c, 0, 75, 0
2, 1100760, Note_on_c, 0, 72, 0
2, 1100760, Note_on_c, 0, 66, 0
2, 1100760, Note_on_c, 0, 80, 96
2, 1100880, Note_on_c, 0, 80, 0
2, 1100880, Note_on_c, 0, 75, 70
2, 1101000, Note_on_c, 0, 75, 0
2, 1101000, Note_on_c, 0, 72, 70
2, 1101120, Note_on_c, 0, 72, 0
2, 1101240, Note_on_c, 0, 81, 96
2, 1101360, Note_on_c, 0, 81, 0
2, 1101360, Note_on_c, 0, 76, 70
2, 1101480, Note_on_c, 0, 76, 0
2, 1101480, Note_on_c, 0, 73, 70
2, 1101600, Note_on_c, 0, 73, 0
2, 1101720, Note_on_c, 0, 80, 96
2, 1101840, Note_on_c, 0, 80, 0
2, 1101840, Note_on_c, 0, 76, 70
2, 1101960, Note_on_c, 0, 76, 0
2, 1101960, Note_on_c, 0, 73, 70
2, 1102080, Note_on_c, 0, 73, 0
2, 1102200, Note_on_c, 0, 64, 70
2, 1102200, Note_on_c, 0, 73, 70
2, 1102440, Note_on_c, 0, 73, 0
2, 1102440, Note_on_c, 0, 64, 0
2, 1102440, Note_on_c, 0, 73, 70
2, 1102440, Note_on_c, 0, 76, 70
2, 1102560, Note_on_c, 0, 76, 0
2, 1102560, Note_on_c, 0, 73, 0
2, 1102560, Note_on_c, 0, 68, 96
2, 1102560, Note_on_c, 0, 80, 96
2, 1102680, Note_on_c, 0, 80, 0
2, 1102680, Note_on_c, 0, 68, 0
2, 1102680, Note_on_c, 0, 76, 70
2, 1102800, Note_on_c, 0, 76, 0
2, 1102800, Note_on_c, 0, 73, 70
2, 1102920, Note_on_c, 0, 73, 0
2, 1102920, Note_on_c, 0, 68, 70
2, 1103040, Note_on_c, 0, 68, 0
2, 1103040, Note_on_c, 0, 67, 96
2, 1103040, Note_on_c, 0, 79, 96
2, 1103280, Note_on_c, 0, 79, 0
2, 1103280, Note_on_c, 0, 67, 0
2, 1103280, Note_on_c, 0, 66, 96
2, 1103280, Note_on_c, 0, 78, 96
2, 1103520, Note_on_c, 0, 78, 0
2, 1103520, Note_on_c, 0, 66, 0
2, 1103520, Note_on_c, 0, 67, 96
2, 1103520, Note_on_c, 0, 79, 96
2, 1103640, Note_on_c, 0, 79, 0
2, 1103640, Note_on_c, 0, 67, 0
2, 1103640, Note_on_c, 0, 76, 70
2, 1103760, Note_on_c, 0, 76, 0
2, 1103760, Note_on_c, 0, 73, 70
2, 1103880, Note_on_c, 0, 73, 0
2, 1103880, Note_on_c, 0, 67, 70
2, 1104000, Note_on_c, 0, 67, 0
2, 1104000, Note_on_c, 0, 64, 70
2, 1104120, Note_on_c, 0, 64, 0
2, 1104120, Note_on_c, 0, 67, 70
2, 1104240, Note_on_c, 0, 67, 0
2, 1104240, Note_on_c, 0, 73, 70
2, 1104360, Note_on_c, 0, 73, 0
2, 1104360, Note_on_c, 0, 76, 70
2, 1104480, Note_on_c, 0, 76, 0
2, 1104480, Note_on_c, 0, 68, 96
2, 1104480, Note_on_c, 0, 80, 96
2, 1104600, Note_on_c, 0, 80, 0
2, 1104600, Note_on_c, 0, 68, 0
2, 1104600, Note_on_c, 0, 76, 70
2, 1104720, Note_on_c, 0, 76, 0
2, 1104720, Note_on_c, 0, 73, 70
2, 1104840, Note_on_c, 0, 73, 0
2, 1104840, Note_on_c, 0, 68, 70
2, 1104960, Note_on_c, 0, 68, 0
2, 1104960, Note_on_c, 0, 70, 96
2, 1104960, Note_on_c, 0, 82, 96
2, 1105080, Note_on_c, 0, 82, 0
2, 1105080, Note_on_c, 0, 70, 0
2, 1105080, Note_on_c, 0, 76, 70
2, 1105200, Note_on_c, 0, 76, 0
2, 1105200, Note_on_c, 0, 73, 70
2, 1105320, Note_on_c, 0, 73, 0
2, 1105320, Note_on_c, 0, 70, 70
2, 1105440, Note_on_c, 0, 70, 0
2, 1105440, Note_on_c, 0, 73, 70
2, 1105560, Note_on_c, 0, 73, 0
2, 1105560, Note_on_c, 0, 70, 70
2, 1105680, Note_on_c, 0, 70, 0
2, 1105680, Note_on_c, 0, 63, 70
2, 1105800, Note_on_c, 0, 63, 0
2, 1105800, Note_on_c, 0, 61, 70
2, 1105920, Note_on_c, 0, 61, 0
2, 1105920, Note_on_c, 0, 63, 70
2, 1106040, Note_on_c, 0, 63, 0
2, 1106040, Note_on_c, 0, 70, 70
2, 1106160, Note_on_c, 0, 70, 0
2, 1106160, Note_on_c, 0, 73, 70
2, 1106280, Note_on_c, 0, 73, 0
2, 1106280, Note_on_c, 0, 76, 70
2, 1106400, Note_on_c, 0, 76, 0
2, 1106400, Note_on_c, 0, 70, 96
2, 1106400, Note_on_c, 0, 82, 96
2, 1106520, Note_on_c, 0, 82, 0
2, 1106520, Note_on_c, 0, 70, 0
2, 1106520, Note_on_c, 0, 78, 70
2, 1106640, Note_on_c, 0, 78, 0
2, 1106640, Note_on_c, 0, 75, 70
2, 1106760, Note_on_c, 0, 75, 0
2, 1106760, Note_on_c, 0, 70, 70
2, 1106880, Note_on_c, 0, 70, 0
2, 1106880, Note_on_c, 0, 69, 96
2, 1106880, Note_on_c, 0, 81, 96
2, 1107120, Note_on_c, 0, 81, 0
2, 1107120, Note_on_c, 0, 69, 0
2, 1107120, Note_on_c, 0, 68, 96
2, 1107120, Note_on_c, 0, 80, 96
2, 1107360, Note_on_c, 0, 80, 0
2, 1107360, Note_on_c, 0, 68, 0
2, 1107360, Note_on_c, 0, 69, 96
2, 1107360, Note_on_c, 0, 81, 96
2, 1107480, Note_on_c, 0, 81, 0
2, 1107480, Note_on_c, 0, 69, 0
2, 1107480, Note_on_c, 0, 78, 70
2, 1107600, Note_on_c, 0, 78, 0
2, 1107600, Note_on_c, 0, 75, 70
2, 1107720, Note_on_c, 0, 75, 0
2, 1107720, Note_on_c, 0, 69, 70
2, 1107840, Note_on_c, 0, 69, 0
2, 1107840, Note_on_c, 0, 66, 70
2, 1107960, Note_on_c, 0, 66, 0
2, 1107960, Note_on_c, 0, 69, 70
2, 1108080, Note_on_c, 0, 69, 0
2, 1108080, Note_on_c, 0, 75, 70
2, 1108200, Note_on_c, 0, 75, 0
2, 1108200, Note_on_c, 0, 78, 70
2, 1108320, Note_on_c, 0, 78, 0
2, 1108320, Note_on_c, 0, 70, 96
2, 1108320, Note_on_c, 0, 82, 96
2, 1108440, Note_on_c, 0, 82, 0
2, 1108440, Note_on_c, 0, 70, 0
2, 1108440, Note_on_c, 0, 78, 70
2, 1108560, Note_on_c, 0, 78, 0
2, 1108560, Note_on_c, 0, 75, 70
2, 1108680, Note_on_c, 0, 75, 0
2, 1108680, Note_on_c, 0, 70, 70
2, 1108800, Note_on_c, 0, 70, 0
2, 1108800, Note_on_c, 0, 72, 96
2, 1108800, Note_on_c, 0, 84, 96
2, 1108920, Note_on_c, 0, 84, 0
2, 1108920, Note_on_c, 0, 72, 0
2, 1108920, Note_on_c, 0, 78, 70
2, 1109040, Note_on_c, 0, 78, 0
2, 1109040, Note_on_c, 0, 75, 70
2, 1109160, Note_on_c, 0, 75, 0
2, 1109160, Note_on_c, 0, 72, 70
2, 1109280, Note_on_c, 0, 72, 0
2, 1109280, Note_on_c, 0, 75, 70
2, 1109400, Note_on_c, 0, 75, 0
2, 1109400, Note_on_c, 0, 72, 70
2, 1109520, Note_on_c, 0, 72, 0
2, 1109520, Note_on_c, 0, 66, 70
2, 1109640, Note_on_c, 0, 66, 0
2, 1109640, Note_on_c, 0, 63, 70
2, 1109760, Note_on_c, 0, 63, 0
2, 1109760, Note_on_c, 0, 66, 70
2, 1109880, Note_on_c, 0, 66, 0
2, 1109880, Note_on_c, 0, 72, 70
2, 1110000, Note_on_c, 0, 72, 0
2, 1110000, Note_on_c, 0, 75, 70
2, 1110120, Note_on_c, 0, 75, 0
2, 1110120, Note_on_c, 0, 78, 70
2, 1110240, Note_on_c, 0, 78, 0
2, 1110240, Note_on_c, 0, 72, 96
2, 1110240, Note_on_c, 0, 84, 96
2, 1110360, Note_on_c, 0, 84, 0
2, 1110360, Note_on_c, 0, 72, 0
2, 1110360, Note_on_c, 0, 80, 70
2, 1110480, Note_on_c, 0, 80, 0
2, 1110480, Note_on_c, 0, 77, 70
2, 1110600, Note_on_c, 0, 77, 0
2, 1110600, Note_on_c, 0, 72, 70
2, 1110720, Note_on_c, 0, 72, 0
2, 1110720, Note_on_c, 0, 71, 96
2, 1110720, Note_on_c, 0, 83, 96
2, 1110960, Note_on_c, 0, 83, 0
2, 1110960, Note_on_c, 0, 71, 0
2, 1110960, Note_on_c, 0, 70, 96
2, 1110960, Note_on_c, 0, 82, 96
2, 1111200, Note_on_c, 0, 82, 0
2, 1111200, Note_on_c, 0, 70, 0
2, 1111200, Note_on_c, 0, 71, 96
2, 1111200, Note_on_c, 0, 83, 96
2, 1111320, Note_on_c, 0, 83, 0
2, 1111320, Note_on_c, 0, 71, 0
2, 1111320, Note_on_c, 0, 80, 70
2, 1111440, Note_on_c, 0, 80, 0
2, 1111440, Note_on_c, 0, 77, 70
2, 1111560, Note_on_c, 0, 77, 0
2, 1111560, Note_on_c, 0, 71, 70
2, 1111680, Note_on_c, 0, 71, 0
2, 1111680, Note_on_c, 0, 68, 70
2, 1111800, Note_on_c, 0, 68, 0
2, 1111800, Note_on_c, 0, 71, 70
2, 1111920, Note_on_c, 0, 71, 0
2, 1111920, Note_on_c, 0, 77, 70
2, 1112040, Note_on_c, 0, 77, 0
2, 1112040, Note_on_c, 0, 80, 70
2, 1112160, Note_on_c, 0, 80, 0
2, 1112160, Note_on_c, 0, 74, 96
2, 1112160, Note_on_c, 0, 86, 96
2, 1112280, Note_on_c, 0, 86, 0
2, 1112280, Note_on_c, 0, 74, 0
2, 1112280, Note_on_c, 0, 80, 70
2, 1112400, Note_on_c, 0, 80, 0
2, 1112400, Note_on_c, 0, 77, 70
2, 1112520, Note_on_c, 0, 77, 0
2, 1112520, Note_on_c, 0, 74, 70
2, 1112640, Note_on_c, 0, 74, 0
2, 1112640, Note_on_c, 0, 73, 96
2, 1112640, Note_on_c, 0, 85, 96
2, 1112880, Note_on_c, 0, 85, 0
2, 1112880, Note_on_c, 0, 73, 0
2, 1112880, Note_on_c, 0, 72, 96
2, 1112880, Note_on_c, 0, 84, 96
2, 1113120, Note_on_c, 0, 84, 0
2, 1113120, Note_on_c, 0, 72, 0
2, 1113120, Note_on_c, 0, 73, 96
2, 1113120, Note_on_c, 0, 85, 96
2, 1113240, Note_on_c, 0, 85, 0
2, 1113240, Note_on_c, 0, 73, 0
2, 1113240, Note_on_c, 0, 82, 70
2, 1113360, Note_on_c, 0, 82, 0
2, 1113360, Note_on_c, 0, 79, 70
2, 1113480, Note_on_c, 0, 79, 0
2, 1113480, Note_on_c, 0, 73, 70
2, 1113600, Note_on_c, 0, 73, 0
2, 1113600, Note_on_c, 0, 70, 70
2, 1113720, Note_on_c, 0, 70, 0
2, 1113720, Note_on_c, 0, 73, 70
2, 1113840, Note_on_c, 0, 73, 0
2, 1113840, Note_on_c, 0, 79, 70
2, 1113960, Note_on_c, 0, 79, 0
2, 1113960, Note_on_c, 0, 82, 70
2, 1114080, Note_on_c, 0, 82, 0
2, 1114080, Note_on_c, 0, 76, 96
2, 1114080, Note_on_c, 0, 88, 96
2, 1114200, Note_on_c, 0, 88, 0
2, 1114200, Note_on_c, 0, 76, 0
2, 1114200, Note_on_c, 0, 82, 70
2, 1114320, Note_on_c, 0, 82, 0
2, 1114320, Note_on_c, 0, 79, 70
2, 1114440, Note_on_c, 0, 79, 0
2, 1114440, Note_on_c, 0, 76, 70
2, 1114560, Note_on_c, 0, 76, 0
2, 1114560, Note_on_c, 0, 75, 96
2, 1114560, Note_on_c, 0, 87, 96
2, 1114800, Note_on_c, 0, 87, 0
2, 1114800, Note_on_c, 0, 75, 0
2, 1114800, Note_on_c, 0, 74, 96
2, 1114800, Note_on_c, 0, 86, 96
2, 1115040, Note_on_c, 0, 86, 0
2, 1115040, Note_on_c, 0, 74, 0
2, 1115040, Note_on_c, 0, 75, 96
2, 1115040, Note_on_c, 0, 87, 96
2, 1115160, Note_on_c, 0, 87, 0
2, 1115160, Note_on_c, 0, 75, 0
2, 1115160, Note_on_c, 0, 84, 70
2, 1115280, Note_on_c, 0, 84, 0
2, 1115280, Note_on_c, 0, 81, 70
2, 1115400, Note_on_c, 0, 81, 0
2, 1115400, Note_on_c, 0, 75, 70
2, 1115520, Note_on_c, 0, 75, 0
2, 1115520, Note_on_c, 0, 76, 96
2, 1115520, Note_on_c, 0, 88, 96
2, 1115760, Note_on_c, 0, 88, 0
2, 1115760, Note_on_c, 0, 76, 0
2, 1115760, Note_on_c, 0, 75, 96
2, 1115760, Note_on_c, 0, 87, 96
2, 1116000, Note_on_c, 0, 87, 0
2, 1116000, Note_on_c, 0, 75, 0
2, 1116000, Note_on_c, 0, 76, 96
2, 1116000, Note_on_c, 0, 88, 96
2, 1116120, Note_on_c, 0, 88, 0
2, 1116120, Note_on_c, 0, 76, 0
2, 1116120, Note_on_c, 0, 85, 70
2, 1116240, Note_on_c, 0, 85, 0
2, 1116240, Note_on_c, 0, 82, 70
2, 1116360, Note_on_c, 0, 82, 0
2, 1116360, Note_on_c, 0, 76, 70
2, 1116480, Note_on_c, 0, 76, 0
2, 1116480, Note_on_c, 0, 77, 96
2, 1116480, Note_on_c, 0, 89, 96
2, 1116720, Note_on_c, 0, 89, 0
2, 1116720, Note_on_c, 0, 77, 0
2, 1116720, Note_on_c, 0, 76, 96
2, 1116720, Note_on_c, 0, 88, 96
2, 1116960, Note_on_c, 0, 88, 0
2, 1116960, Note_on_c, 0, 76, 0
2, 1116960, Note_on_c, 0, 77, 96
2, 1116960, Note_on_c, 0, 89, 96
2, 1117080, Note_on_c, 0, 89, 0
2, 1117080, Note_on_c, 0, 77, 0
2, 1117080, Note_on_c, 0, 86, 70
2, 1117200, Note_on_c, 0, 86, 0
2, 1117200, Note_on_c, 0, 83, 70
2, 1117320, Note_on_c, 0, 83, 0
2, 1117320, Note_on_c, 0, 77, 70
2, 1117440, Note_on_c, 0, 77, 0
2, 1117440, Note_on_c, 0, 78, 96
2, 1117440, Note_on_c, 0, 90, 96
2, 1117680, Note_on_c, 0, 90, 0
2, 1117680, Note_on_c, 0, 78, 0
2, 1117680, Note_on_c, 0, 77, 96
2, 1117680, Note_on_c, 0, 89, 96
2, 1117920, Note_on_c, 0, 89, 0
2, 1117920, Note_on_c, 0, 77, 0
2, 1117920, Note_on_c, 0, 78, 96
2, 1117920, Note_on_c, 0, 90, 96
2, 1118040, Note_on_c, 0, 90, 0
2, 1118040, Note_on_c, 0, 78, 0
2, 1118040, Note_on_c, 0, 87, 70
2, 1118160, Note_on_c, 0, 87, 0
2, 1118160, Note_on_c, 0, 84, 70
2, 1118280, Note_on_c, 0, 84, 0
2, 1118280, Note_on_c, 0, 78, 70
2, 1118400, Note_on_c, 0, 78, 0
2, 1118400, Note_on_c, 0, 79, 96
2, 1118400, Note_on_c, 0, 91, 96
2, 1118640, Note_on_c, 0, 91, 0
2, 1118640, Note_on_c, 0, 79, 0
2, 1118640, Note_on_c, 0, 78, 96
2, 1118640, Note_on_c, 0, 90, 96
2, 1118880, Note_on_c, 0, 90, 0
2, 1118880, Note_on_c, 0, 78, 0
2, 1118880, Note_on_c, 0, 79, 96
2, 1118880, Note_on_c, 0, 91, 96
2, 1119000, Note_on_c, 0, 91, 0
2, 1119000, Note_on_c, 0, 79, 0
2, 1119000, Note_on_c, 0, 88, 70
2, 1119120, Note_on_c, 0, 88, 0
2, 1119120, Note_on_c, 0, 85, 70
2, 1119240, Note_on_c, 0, 85, 0
2, 1119240, Note_on_c, 0, 79, 70
2, 1119360, Note_on_c, 0, 79, 0
2, 1119360, Note_on_c, 0, 76, 70
2, 1119480, Note_on_c, 0, 76, 0
2, 1119480, Note_on_c, 0, 79, 70
2, 1119600, Note_on_c, 0, 79, 0
2, 1119600, Note_on_c, 0, 85, 70
2, 1119720, Note_on_c, 0, 85, 0
2, 1119720, Note_on_c, 0, 88, 70
2, 1119840, Note_on_c, 0, 88, 0
2, 1119840, Note_on_c, 0, 79, 96
2, 1119840, Note_on_c, 0, 91, 96
2, 1119960, Note_on_c, 0, 91, 0
2, 1119960, Note_on_c, 0, 79, 0
2, 1119960, Note_on_c, 0, 88, 70
2, 1120080, Note_on_c, 0, 88, 0
2, 1120080, Note_on_c, 0, 85, 70
2, 1120200, Note_on_c, 0, 85, 0
2, 1120200, Note_on_c, 0, 79, 70
2, 1120320, Note_on_c, 0, 79, 0
2, 1120320, Note_on_c, 0, 82, 96
2, 1120320, Note_on_c, 0, 94, 96
2, 1120560, Note_on_c, 0, 94, 0
2, 1120560, Note_on_c, 0, 82, 0
2, 1120560, Note_on_c, 0, 81, 96
2, 1120560, Note_on_c, 0, 93, 96
2, 1120800, Note_on_c, 0, 93, 0
2, 1120800, Note_on_c, 0, 81, 0
2, 1120800, Note_on_c, 0, 82, 96
2, 1120800, Note_on_c, 0, 94, 96
2, 1120920, Note_on_c, 0, 94, 0
2, 1120920, Note_on_c, 0, 82, 0
2, 1120920, Note_on_c, 0, 91, 70
2, 1121040, Note_on_c, 0, 91, 0
2, 1121040, Note_on_c, 0, 85, 70
2, 1121160, Note_on_c, 0, 85, 0
2, 1121160, Note_on_c, 0, 82, 70
2, 1121280, Note_on_c, 0, 82, 0
2, 1121280, Note_on_c, 0, 79, 70
2, 1121400, Note_on_c, 0, 79, 0
2, 1121400, Note_on_c, 0, 82, 70
2, 1121520, Note_on_c, 0, 82, 0
2, 1121520, Note_on_c, 0, 85, 70
2, 1121640, Note_on_c, 0, 85, 0
2, 1121640, Note_on_c, 0, 91, 70
2, 1121760, Note_on_c, 0, 91, 0
2, 1121760, Note_on_c, 0, 82, 96
2, 1121760, Note_on_c, 0, 94, 96
2, 1122120, Note_on_c, 0, 94, 0
2, 1122120, Note_on_c, 0, 82, 0
2, 1122120, Note_on_c, 0, 85, 96
2, 1122120, Note_on_c, 0, 97, 96
2, 1122240, Note_on_c, 0, 97, 0
2, 1122240, Note_on_c, 0, 85, 0
2, 1122240, Control_c, 0, 64, 127
2, 1122240, Note_on_c, 0, 86, 96
2, 1122240, Note_on_c, 0, 98, 96
2, 1122360, Note_on_c, 0, 98, 0
2, 1122360, Note_on_c, 0, 86, 0
2, 1122360, Note_on_c, 0, 90, 96
2, 1122480, Note_on_c, 0, 90, 0
2, 1122480, Note_on_c, 0, 91, 96
2, 1122480, Note_on_c, 0, 94, 96
2, 1122480, Note_on_c, 0, 98, 96
2, 1122600, Note_on_c, 0, 98, 0
2, 1122600, Note_on_c, 0, 94, 0
2, 1122600, Note_on_c, 0, 91, 0
2, 1122600, Note_on_c, 0, 85, 96
2, 1122720, Note_on_c, 0, 85, 0
2, 1122720, Note_on_c, 0, 86, 96
2, 1122720, Note_on_c, 0, 91, 96
2, 1122720, Note_on_c, 0, 94, 96
2, 1122840, Note_on_c, 0, 94, 0
2, 1122840, Note_on_c, 0, 91, 0
2, 1122840, Note_on_c, 0, 86, 0
2, 1122840, Note_on_c, 0, 81, 96
2, 1122960, Note_on_c, 0, 81, 0
2, 1122960, Note_on_c, 0, 82, 96
2, 1122960, Note_on_c, 0, 86, 96
2, 1122960, Note_on_c, 0, 91, 96
2, 1123080, Note_on_c, 0, 91, 0
2, 1123080, Note_on_c, 0, 86, 0
2, 1123080, Note_on_c, 0, 82, 0
2, 1123080, Note_on_c, 0, 78, 96
2, 1123200, Note_on_c, 0, 78, 0
2, 1123200, Note_on_c, 0, 79, 96
2, 1123200, Note_on_c, 0, 82, 96
2, 1123200, Note_on_c, 0, 86, 96
2, 1123320, Note_on_c, 0, 86, 0
2, 1123320, Note_on_c, 0, 82, 0
2, 1123320, Note_on_c, 0, 79, 0
2, 1123320, Note_on_c, 0, 73, 96
2, 1123440, Note_on_c, 0, 73, 0
2, 1123440, Note_on_c, 0, 74, 96
2, 1123440, Note_on_c, 0, 79, 96
2, 1123440, Note_on_c, 0, 82, 96
2, 1123560, Note_on_c, 0, 82, 0
2, 1123560, Note_on_c, 0, 79, 0
2, 1123560, Note_on_c, 0, 74, 0
2, 1123560, Note_on_c, 0, 69, 96
2, 1123680, Note_on_c, 0, 69, 0
2, 1123680, Note_on_c, 0, 70, 96
2, 1123680, Note_on_c, 0, 74, 96
2, 1123680, Note_on_c, 0, 79, 96
2, 1123800, Note_on_c, 0, 79, 0
2, 1123800, Note_on_c, 0, 74, 0
2, 1123800, Note_on_c, 0, 70, 0
2, 1123800, Note_on_c, 0, 66, 96
2, 1123920, Note_on_c, 0, 66, 0
2, 1123920, Note_on_c, 0, 67, 96
2, 1123920, Note_on_c, 0, 70, 96
2, 1123920, Note_on_c, 0, 74, 96
2, 1124040, Note_on_c, 0, 74, 0
2, 1124040, Note_on_c, 0, 70, 0
2, 1124040, Note_on_c, 0, 67, 0
2, 1124040, Control_c, 0, 64, 0
2, 1124040, Note_on_c, 0, 61, 96
2, 1124160, Note_on_c, 0, 61, 0
2, 1124160, Note_on_c, 0, 62, 96
2, 1124160, Note_on_c, 0, 67, 96
2, 1124160, Note_on_c, 0, 70, 96
2, 1124280, Note_on_c, 0, 70, 0
2, 1124280, Note_on_c, 0, 67, 0
2, 1124280, Note_on_c, 0, 62, 0
2, 1124280, Note_on_c, 0, 57, 96
2, 1124400, Note_on_c, 0, 57, 0
2, 1124400, Note_on_c, 0, 58, 96
2, 1124400, Note_on_c, 0, 62, 96
2, 1124400, Note_on_c, 0, 67, 96
2, 1124520, Note_on_c, 0, 67, 0
2, 1124520, Note_on_c, 0, 62, 0
2, 1124520, Note_on_c, 0, 58, 0
2, 1124640, Note_on_c, 0, 62, 96
2, 1124640, Note_on_c, 0, 67, 96
2, 1124640, Note_on_c, 0, 70, 96
2, 1124760, Note_on_c, 0, 70, 0
2, 1124760, Note_on_c, 0, 67, 0
2, 1124760, Note_on_c, 0, 62, 0
2, 1124880, Note_on_c, 0, 67, 96
2, 1124880, Note_on_c, 0, 70, 96
2, 1124880, Note_on_c, 0, 74, 96
2, 1125000, Note_on_c, 0, 74, 0
2, 1125000, Note_on_c, 0, 70, 0
2, 1125000, Note_on_c, 0, 67, 0
2, 1125120, Note_on_c, 0, 70, 96
2, 1125120, Note_on_c, 0, 74, 96
2, 1125120, Note_on_c, 0, 79, 96
2, 1125240, Note_on_c, 0, 79, 0
2, 1125240, Note_on_c, 0, 74, 0
2, 1125240, Note_on_c, 0, 70, 0
2, 1125360, Note_on_c, 0, 62, 96
2, 1125360, Note_on_c, 0, 67, 96
2, 1125360, Note_on_c, 0, 70, 96
2, 1125480, Note_on_c, 0, 70, 0
2, 1125480, Note_on_c, 0, 67, 0
2, 1125480, Note_on_c, 0, 62, 0
2, 1125600, Note_on_c, 0, 67, 96
2, 1125600, Note_on_c, 0, 70, 96
2, 1125600, Note_on_c, 0, 74, 96
2, 1125720, Note_on_c, 0, 74, 0
2, 1125720, Note_on_c, 0, 70, 0
2, 1125720, Note_on_c, 0, 67, 0
2, 1125840, Note_on_c, 0, 70, 96
2, 1125840, Note_on_c, 0, 74, 96
2, 1125840, Note_on_c, 0, 79, 96
2, 1125960, Note_on_c, 0, 79, 0
2, 1125960, Note_on_c, 0, 74, 0
2, 1125960, Note_on_c, 0, 70, 0
2, 1126080, Note_on_c, 0, 74, 96
2, 1126080, Note_on_c, 0, 79, 96
2, 1126080, Note_on_c, 0, 82, 96
2, 1126200, Note_on_c, 0, 82, 0
2, 1126200, Note_on_c, 0, 79, 0
2, 1126200, Note_on_c, 0, 74, 0
2, 1126200, Note_on_c, 0, 78, 96
2, 1126320, Note_on_c, 0, 78, 0
2, 1126320, Note_on_c, 0, 79, 96
2, 1126320, Note_on_c, 0, 82, 96
2, 1126320, Note_on_c, 0, 86, 96
2, 1126440, Note_on_c, 0, 86, 0
2, 1126440, Note_on_c, 0, 82, 0
2, 1126440, Note_on_c, 0, 79, 0
2, 1126440, Note_on_c, 0, 73, 96
2, 1126560, Note_on_c, 0, 73, 0
2, 1126560, Note_on_c, 0, 74, 96
2, 1126560, Note_on_c, 0, 79, 96
2, 1126560, Note_on_c, 0, 82, 96
2, 1126680, Note_on_c, 0, 82, 0
2, 1126680, Note_on_c, 0, 79, 0
2, 1126680, Note_on_c, 0, 74, 0
2, 1126680, Note_on_c, 0, 69, 96
2, 1126800, Note_on_c, 0, 69, 0
2, 1126800, Note_on_c, 0, 70, 96
2, 1126800, Note_on_c, 0, 74, 96
2, 1126800, Note_on_c, 0, 79, 96
2, 1126920, Note_on_c, 0, 79, 0
2, 1126920, Note_on_c, 0, 74, 0
2, 1126920, Note_on_c, 0, 70, 0
2, 1126920, Note_on_c, 0, 66, 96
2, 1127040, Note_on_c, 0, 66, 0
2, 1127040, Note_on_c, 0, 67, 96
2, 1127040, Note_on_c, 0, 70, 96
2, 1127040, Note_on_c, 0, 74, 96
2, 1127160, Note_on_c, 0, 74, 0
2, 1127160, Note_on_c, 0, 70, 0
2, 1127160, Note_on_c, 0, 67, 0
2, 1127160, Note_on_c, 0, 61, 96
2, 1127280, Note_on_c, 0, 61, 0
2, 1127280, Note_on_c, 0, 62, 96
2, 1127280, Note_on_c, 0, 67, 96
2, 1127280, Note_on_c, 0, 70, 96
2, 1127400, Note_on_c, 0, 70, 0
2, 1127400, Note_on_c, 0, 67, 0
2, 1127400, Note_on_c, 0, 62, 0
2, 1127400, Note_on_c, 0, 57, 96
2, 1127520, Note_on_c, 0, 57, 0
2, 1127520, Note_on_c, 0, 58, 96
2, 1127520, Note_on_c, 0, 62, 96
2, 1127520, Note_on_c, 0, 67, 96
2, 1127640, Note_on_c, 0, 67, 0
2, 1127640, Note_on_c, 0, 62, 0
2, 1127640, Note_on_c, 0, 58, 0
2, 1127640, Note_on_c, 0, 54, 96
2, 1127760, Note_on_c, 0, 54, 0
2, 1127760, Note_on_c, 0, 55, 96
2, 1127760, Note_on_c, 0, 58, 96
2, 1127760, Note_on_c, 0, 62, 96
2, 1127880, Note_on_c, 0, 62, 0
2, 1127880, Note_on_c, 0, 58, 0
2, 1127880, Note_on_c, 0, 55, 0
2, 1127880, Note_on_c, 0, 49, 96
2, 1128000, Note_on_c, 0, 49, 0
2, 1128000, Note_on_c, 0, 50, 96
2, 1128000, Note_on_c, 0, 55, 96
2, 1128000, Note_on_c, 0, 58, 96
2, 1128120, Note_on_c, 0, 58, 0
2, 1128120, Note_on_c, 0, 55, 0
2, 1128120, Note_on_c, 0, 50, 0
2, 1128120, Note_on_c, 0, 45, 96
2, 1128240, Note_on_c, 0, 45, 0
2, 1128240, Note_on_c, 0, 46, 96
2, 1128240, Note_on_c, 0, 50, 96
2, 1128240, Note_on_c, 0, 55, 96
2, 1128360, Note_on_c, 0, 55, 0
2, 1128360, Note_on_c, 0, 50, 0
2, 1128360, Note_on_c, 0, 46, 0
2, 1128360, Note_on_c, 0, 38, 96
2, 1128360, Note_on_c, 0, 43, 96
2, 1128360, Note_on_c, 0, 46, 96
2, 1128480, Note_on_c, 0, 46, 0
2, 1128480, Note_on_c, 0, 43, 0
2, 1128480, Note_on_c, 0, 38, 0
2, 1128480, Note_on_c, 0, 50, 96
2, 1128480, Note_on_c, 0, 55, 96
2, 1128480, Note_on_c, 0, 58, 96
2, 1128600, Note_on_c, 0, 58, 0
2, 1128600, Note_on_c, 0, 55, 0
2, 1128600, Note_on_c, 0, 50, 0
2, 1128600, Note_on_c, 0, 34, 96
2, 1128600, Note_on_c, 0, 38, 96
2, 1128600, Note_on_c, 0, 43, 96
2, 1128720, Note_on_c, 0, 43, 0
2, 1128720, Note_on_c, 0, 38, 0
2, 1128720, Note_on_c, 0, 34, 0
2, 1128720, Note_on_c, 0, 55, 96
2, 1128720, Note_on_c, 0, 58, 96
2, 1128720, Note_on_c, 0, 62, 96
2, 1128840, Note_on_c, 0, 62, 0
2, 1128840, Note_on_c, 0, 58, 0
2, 1128840, Note_on_c, 0, 55, 0
2, 1128960, Note_on_c, 0, 58, 96
2, 1128960, Note_on_c, 0, 62, 96
2, 1128960, Note_on_c, 0, 67, 96
2, 1129080, Note_on_c, 0, 67, 0
2, 1129080, Note_on_c, 0, 62, 0
2, 1129080, Note_on_c, 0, 58, 0
2, 1129200, Note_on_c, 0, 50, 96
2, 1129200, Note_on_c, 0, 55, 96
2, 1129200, Note_on_c, 0, 58, 96
2, 1129320, Note_on_c, 0, 58, 0
2, 1129320, Note_on_c, 0, 55, 0
2, 1129320, Note_on_c, 0, 50, 0
2, 1129440, Note_on_c, 0, 55, 96
2, 1129440, Note_on_c, 0, 58, 96
2, 1129440, Note_on_c, 0, 62, 96
2, 1129560, Note_on_c, 0, 62, 0
2, 1129560, Note_on_c, 0, 58, 0
2, 1129560, Note_on_c, 0, 55, 0
2, 1129680, Note_on_c, 0, 58, 96
2, 1129680, Note_on_c, 0, 62, 96
2, 1129680, Note_on_c, 0, 67, 96
2, 1129800, Note_on_c, 0, 67, 0
2, 1129800, Note_on_c, 0, 62, 0
2, 1129800, Note_on_c, 0, 58, 0
2, 1129920, Note_on_c, 0, 62, 96
2, 1129920, Note_on_c, 0, 67, 96
2, 1129920, Note_on_c, 0, 70, 96
2, 1130040, Note_on_c, 0, 70, 0
2, 1130040, Note_on_c, 0, 67, 0
2, 1130040, Note_on_c, 0, 62, 0
2, 1130040, Note_on_c, 0, 66, 96
2, 1130160, Note_on_c, 0, 66, 0
2, 1130160, Note_on_c, 0, 67, 96
2, 1130160, Note_on_c, 0, 70, 96
2, 1130160, Note_on_c, 0, 74, 96
2, 1130280, Note_on_c, 0, 74, 0
2, 1130280, Note_on_c, 0, 70, 0
2, 1130280, Note_on_c, 0, 67, 0
2, 1130280, Note_on_c, 0, 61, 96
2, 1130400, Note_on_c, 0, 61, 0
2, 1130400, Note_on_c, 0, 62, 96
2, 1130400, Note_on_c, 0, 67, 96
2, 1130400, Note_on_c, 0, 70, 96
2, 1130520, Note_on_c, 0, 70, 0
2, 1130520, Note_on_c, 0, 67, 0
2, 1130520, Note_on_c, 0, 62, 0
2, 1130520, Note_on_c, 0, 57, 96
2, 1130640, Note_on_c, 0, 57, 0
2, 1130640, Note_on_c, 0, 58, 96
2, 1130640, Note_on_c, 0, 62, 96
2, 1130640, Note_on_c, 0, 67, 96
2, 1130760, Note_on_c, 0, 67, 0
2, 1130760, Note_on_c, 0, 62, 0
2, 1130760, Note_on_c, 0, 58, 0
2, 1130760, Note_on_c, 0, 54, 96
2, 1130880, Note_on_c, 0, 54, 0
2, 1130880, Note_on_c, 0, 55, 96
2, 1130880, Note_on_c, 0, 58, 96
2, 1130880, Note_on_c, 0, 62, 96
2, 1131000, Note_on_c, 0, 62, 0
2, 1131000, Note_on_c, 0, 58, 0
2, 1131000, Note_on_c, 0, 55, 0
2, 1131000, Note_on_c, 0, 49, 96
2, 1131120, Note_on_c, 0, 49, 0
2, 1131120, Note_on_c, 0, 50, 96
2, 1131120, Note_on_c, 0, 55, 96
2, 1131120, Note_on_c, 0, 58, 96
2, 1131240, Note_on_c, 0, 58, 0
2, 1131240, Note_on_c, 0, 55, 0
2, 1131240, Note_on_c, 0, 50, 0
2, 1131240, Note_on_c, 0, 45, 96
2, 1131360, Note_on_c, 0, 45, 0
2, 1131360, Note_on_c, 0, 46, 96
2, 1131360, Note_on_c, 0, 50, 96
2, 1131360, Note_on_c, 0, 55, 96
2, 1131480, Note_on_c, 0, 55, 0
2, 1131480, Note_on_c, 0, 50, 0
2, 1131480, Note_on_c, 0, 46, 0
2, 1131480, Note_on_c, 0, 42, 96
2, 1131600, Note_on_c, 0, 42, 0
2, 1131600, Note_on_c, 0, 43, 96
2, 1131600, Note_on_c, 0, 46, 96
2, 1131600, Note_on_c, 0, 50, 96
2, 1131720, Note_on_c, 0, 50, 0
2, 1131720, Note_on_c, 0, 46, 0
2, 1131720, Note_on_c, 0, 43, 0
2, 1131720, Note_on_c, 0, 37, 96
2, 1131840, Note_on_c, 0, 37, 0
2, 1131840, Note_on_c, 0, 38, 96
2, 1131840, Note_on_c, 0, 43, 96
2, 1131840, Note_on_c, 0, 46, 96
2, 1131960, Note_on_c, 0, 46, 0
2, 1131960, Note_on_c, 0, 43, 0
2, 1131960, Note_on_c, 0, 38, 0
2, 1131960, Note_on_c, 0, 54, 96
2, 1132080, Note_on_c, 0, 54, 0
2, 1132080, Note_on_c, 0, 55, 96
2, 1132080, Note_on_c, 0, 58, 96
2, 1132080, Note_on_c, 0, 62, 96
2, 1132200, Note_on_c, 0, 62, 0
2, 1132200, Note_on_c, 0, 58, 0
2, 1132200, Note_on_c, 0, 55, 0
2, 1132200, Note_on_c, 0, 49, 96
2, 1132320, Note_on_c, 0, 49, 0
2, 1132320, Note_on_c, 0, 50, 96
2, 1132320, Note_on_c, 0, 55, 96
2, 1132320, Note_on_c, 0, 58, 96
2, 1132440, Note_on_c, 0, 58, 0
2, 1132440, Note_on_c, 0, 55, 0
2, 1132440, Note_on_c, 0, 50, 0
2, 1132440, Note_on_c, 0, 45, 96
2, 1132560, Note_on_c, 0, 45, 0
2, 1132560, Note_on_c, 0, 46, 96
2, 1132560, Note_on_c, 0, 50, 96
2, 1132560, Note_on_c, 0, 55, 96
2, 1132680, Note_on_c, 0, 55, 0
2, 1132680, Note_on_c, 0, 50, 0
2, 1132680, Note_on_c, 0, 46, 0
2, 1132680, Note_on_c, 0, 42, 96
2, 1132800, Note_on_c, 0, 42, 0
2, 1132800, Note_on_c, 0, 43, 96
2, 1132800, Note_on_c, 0, 46, 96
2, 1132800, Note_on_c, 0, 50, 96
2, 1132920, Note_on_c, 0, 50, 0
2, 1132920, Note_on_c, 0, 46, 0
2, 1132920, Note_on_c, 0, 43, 0
2, 1132920, Note_on_c, 0, 37, 96
2, 1133040, Note_on_c, 0, 37, 0
2, 1133040, Note_on_c, 0, 38, 96
2, 1133040, Note_on_c, 0, 43, 96
2, 1133040, Note_on_c, 0, 46, 96
2, 1133160, Note_on_c, 0, 46, 0
2, 1133160, Note_on_c, 0, 43, 0
2, 1133160, Note_on_c, 0, 38, 0
2, 1133160, Note_on_c, 0, 33, 96
2, 1133280, Note_on_c, 0, 33, 0
2, 1133280, Note_on_c, 0, 34, 96
2, 1133280, Note_on_c, 0, 38, 96
2, 1133280, Note_on_c, 0, 43, 96
2, 1133400, Note_on_c, 0, 43, 0
2, 1133400, Note_on_c, 0, 38, 0
2, 1133400, Note_on_c, 0, 34, 0
2, 1133400, Note_on_c, 0, 30, 96
2, 1133520, Note_on_c, 0, 30, 0
2, 1133520, Note_on_c, 0, 31, 96
2, 1133520, Note_on_c, 0, 34, 96
2, 1133520, Note_on_c, 0, 38, 96
2, 1133640, Note_on_c, 0, 38, 0
2, 1133640, Note_on_c, 0, 34, 0
2, 1133640, Note_on_c, 0, 31, 0
2, 1133640, Note_on_c, 0, 25, 96
2, 1133760, Note_on_c, 0, 25, 0
2, 1133760, Note_on_c, 0, 31, 96
2, 1133760, Note_on_c, 0, 34, 96
2, 1133919, Note_on_c, 0, 34, 0
2, 1133919, Note_on_c, 0, 31, 0
2, 1133919, Note_on_c, 0, 38, 96
2, 1133951, Note_on_c, 0, 38, 0
2, 1134080, Note_on_c, 0, 39, 96
2, 1134112, Note_on_c, 0, 39, 0
2, 1134240, Note_on_c, 0, 40, 96
2, 1134271, Note_on_c, 0, 40, 0
2, 1134399, Note_on_c, 0, 41, 96
2, 1134431, Note_on_c, 0, 41, 0
2, 1134560, Note_on_c, 0, 42, 96
2, 1134592, Note_on_c, 0, 42, 0
2, 1134720, Note_on_c, 0, 43, 96
2, 1134751, Note_on_c, 0, 43, 0
2, 1134879, Note_on_c, 0, 43, 96
2, 1134911, Note_on_c, 0, 43, 0
2, 1135040, Note_on_c, 0, 45, 96
2, 1135072, Note_on_c, 0, 45, 0
2, 1135200, Note_on_c, 0, 46, 96
2, 1135231, Note_on_c, 0, 46, 0
2, 1135359, Note_on_c, 0, 48, 96
2, 1135391, Note_on_c, 0, 48, 0
2, 1135520, Note_on_c, 0, 49, 96
2, 1135552, Note_on_c, 0, 49, 0
2, 1135680, Note_on_c, 0, 50, 96
2, 1135711, Note_on_c, 0, 50, 0
2, 1135839, Note_on_c, 0, 50, 96
2, 1135871, Note_on_c, 0, 50, 0
2, 1136000, Note_on_c, 0, 51, 96
2, 1136032, Note_on_c, 0, 51, 0
2, 1136160, Note_on_c, 0, 52, 96
2, 1136191, Note_on_c, 0, 52, 0
2, 1136319, Note_on_c, 0, 53, 96
2, 1136351, Note_on_c, 0, 53, 0
2, 1136480, Note_on_c, 0, 54, 96
2, 1136512, Note_on_c, 0, 54, 0
2, 1136640, Note_on_c, 0, 55, 96
2, 1136671, Note_on_c, 0, 55, 0
2, 1136799, Note_on_c, 0, 55, 96
2, 1136831, Note_on_c, 0, 55, 0
2, 1136960, Note_on_c, 0, 57, 96
2, 1136992, Note_on_c, 0, 57, 0
2, 1137120, Note_on_c, 0, 58, 96
2, 1137151, Note_on_c, 0, 58, 0
2, 1137279, Note_on_c, 0, 60, 96
2, 1137311, Note_on_c, 0, 60, 0
2, 1137440, Note_on_c, 0, 61, 96
2, 1137472, Note_on_c, 0, 61, 0
2, 1137600, Note_on_c, 0, 62, 96
2, 1137631, Note_on_c, 0, 62, 0
2, 1137759, Note_on_c, 0, 62, 96
2, 1137791, Note_on_c, 0, 62, 0
2, 1137920, Note_on_c, 0, 51, 96
2, 1137920, Note_on_c, 0, 63, 96
2, 1137952, Note_on_c, 0, 63, 0
2, 1137952, Note_on_c, 0, 51, 0
2, 1138080, Note_on_c, 0, 52, 96
2, 1138080, Note_on_c, 0, 64, 96
2, 1138111, Note_on_c, 0, 64, 0
2, 1138111, Note_on_c, 0, 52, 0
2, 1138239, Note_on_c, 0, 53, 96
2, 1138239, Note_on_c, 0, 65, 96
2, 1138271, Note_on_c, 0, 65, 0
2, 1138271, Note_on_c, 0, 53, 0
2, 1138400, Note_on_c, 0, 54, 96
2, 1138400, Note_on_c, 0, 66, 96
2, 1138432, Note_on_c, 0, 66, 0
2, 1138432, Note_on_c, 0, 54, 0
2, 1138560, Note_on_c, 0, 55, 96
2, 1138560, Note_on_c, 0, 67, 96
2, 1138591, Note_on_c, 0, 67, 0
2, 1138591, Note_on_c, 0, 55, 0
2, 1138719, Note_on_c, 0, 55, 96
2, 1138719, Note_on_c, 0, 67, 96
2, 1138751, Note_on_c, 0, 67, 0
2, 1138751, Note_on_c, 0, 55, 0
2, 1138880, Note_on_c, 0, 57, 96
2, 1138880, Note_on_c, 0, 69, 96
2, 1138912, Note_on_c, 0, 69, 0
2, 1138912, Note_on_c, 0, 57, 0
2, 1139040, Note_on_c, 0, 58, 96
2, 1139040, Note_on_c, 0, 70, 96
2, 1139071, Note_on_c, 0, 70, 0
2, 1139071, Note_on_c, 0, 58, 0
2, 1139199, Note_on_c, 0, 60, 96
2, 1139199, Note_on_c, 0, 72, 96
2, 1139231, Note_on_c, 0, 72, 0
2, 1139231, Note_on_c, 0, 60, 0
2, 1139360, Note_on_c, 0, 61, 96
2, 1139360, Note_on_c, 0, 73, 96
2, 1139392, Note_on_c, 0, 73, 0
2, 1139392, Note_on_c, 0, 61, 0
2, 1139520, Note_on_c, 0, 62, 96
2, 1139520, Note_on_c, 0, 74, 96
2, 1139551, Note_on_c, 0, 74, 0
2, 1139551, Note_on_c, 0, 62, 0
2, 1139679, Note_on_c, 0, 62, 96
2, 1139679, Note_on_c, 0, 74, 96
2, 1139711, Note_on_c, 0, 74, 0
2, 1139711, Note_on_c, 0, 62, 0
2, 1139840, Note_on_c, 0, 63, 96
2, 1139840, Note_on_c, 0, 75, 96
2, 1139872, Note_on_c, 0, 75, 0
2, 1139872, Note_on_c, 0, 63, 0
2, 1140000, Note_on_c, 0, 64, 96
2, 1140000, Note_on_c, 0, 76, 96
2, 1140031, Note_on_c, 0, 76, 0
2, 1140031, Note_on_c, 0, 64, 0
2, 1140159, Note_on_c, 0, 65, 96
2, 1140159, Note_on_c, 0, 77, 96
2, 1140191, Note_on_c, 0, 77, 0
2, 1140191, Note_on_c, 0, 65, 0
2, 1140320, Note_on_c, 0, 66, 96
2, 1140320, Note_on_c, 0, 78, 96
2, 1140352, Note_on_c, 0, 78, 0
2, 1140352, Note_on_c, 0, 66, 0
2, 1140480, Note_on_c, 0, 67, 96
2, 1140480, Note_on_c, 0, 79, 96
2, 1140511, Note_on_c, 0, 79, 0
2, 1140511, Note_on_c, 0, 67, 0
2, 1140639, Note_on_c, 0, 67, 96
2, 1140639, Note_on_c, 0, 79, 96
2, 1140671, Note_on_c, 0, 79, 0
2, 1140671, Note_on_c, 0, 67, 0
2, 1140800, Note_on_c, 0, 69, 96
2, 1140800, Note_on_c, 0, 81, 96
2, 1140832, Note_on_c, 0, 81, 0
2, 1140832, Note_on_c, 0, 69, 0
2, 1140960, Note_on_c, 0, 70, 96
2, 1140960, Note_on_c, 0, 82, 96
2, 1140991, Note_on_c, 0, 82, 0
2, 1140991, Note_on_c, 0, 70, 0
2, 1141119, Note_on_c, 0, 72, 96
2, 1141119, Note_on_c, 0, 84, 96
2, 1141151, Note_on_c, 0, 84, 0
2, 1141151, Note_on_c, 0, 72, 0
2, 1141280, Note_on_c, 0, 73, 96
2, 1141280, Note_on_c, 0, 85, 96
2, 1141312, Note_on_c, 0, 85, 0
2, 1141312, Note_on_c, 0, 73, 0
2, 1141440, Note_on_c, 0, 74, 122
2, 1141440, Note_on_c, 0, 79, 122
2, 1141440, Note_on_c, 0, 82, 122
2, 1141440, Note_on_c, 0, 86, 122
2, 1141920, Note_on_c, 0, 86, 0
2, 1141920, Note_on_c, 0, 74, 0
2, 1141920, Note_on_c, 0, 79, 0
2, 1141920, Note_on_c, 0, 82, 0
2, 1141920, Note_on_c, 0, 62, 122
2, 1141920, Note_on_c, 0, 67, 122
2, 1141920, Note_on_c, 0, 70, 122
2, 1141920, Note_on_c, 0, 74, 122
2, 1142400, Note_on_c, 0, 74, 0
2, 1142400, Note_on_c, 0, 62, 0
2, 1142400, Note_on_c, 0, 67, 0
2, 1142400, Note_on_c, 0, 70, 0
2, 1142400, Note_on_c, 0, 75, 122
2, 1142400, Note_on_c, 0, 78, 122
2, 1142400, Note_on_c, 0, 81, 122
2, 1142400, Note_on_c, 0, 87, 122
2, 1143519, Note_on_c, 0, 87, 0
2, 1143519, Note_on_c, 0, 75, 0
2, 1143519, Note_on_c, 0, 78, 0
2, 1143519, Note_on_c, 0, 81, 0
2, 1143519, Note_on_c, 0, 74, 96
2, 1143519, Note_on_c, 0, 86, 96
2, 1143680, Note_on_c, 0, 86, 0
2, 1143680, Note_on_c, 0, 74, 0
2, 1143680, Note_on_c, 0, 73, 96
2, 1143680, Note_on_c, 0, 85, 96
2, 1143840, Note_on_c, 0, 85, 0
2, 1143840, Note_on_c, 0, 73, 0
2, 1143840, Note_on_c, 0, 72, 96
2, 1143840, Note_on_c, 0, 75, 96
2, 1143840, Note_on_c, 0, 78, 96
2, 1143840, Note_on_c, 0, 84, 96
2, 1143999, Note_on_c, 0, 84, 0
2, 1143999, Note_on_c, 0, 72, 0
2, 1143999, Note_on_c, 0, 75, 0
2, 1143999, Note_on_c, 0, 78, 0
2, 1143999, Note_on_c, 0, 71, 96
2, 1143999, Note_on_c, 0, 83, 96
2, 1144160, Note_on_c, 0, 83, 0
2, 1144160, Note_on_c, 0, 71, 0
2, 1144160, Note_on_c, 0, 70, 96
2, 1144160, Note_on_c, 0, 82, 96
2, 1144320, Note_on_c, 0, 82, 0
2, 1144320, Note_on_c, 0, 70, 0
2, 1144320, Note_on_c, 0, 69, 96
2, 1144320, Note_on_c, 0, 72, 96
2, 1144320, Note_on_c, 0, 75, 96
2, 1144320, Note_on_c, 0, 81, 96
2, 1144479, Note_on_c, 0, 81, 0
2, 1144479, Note_on_c, 0, 69, 0
2, 1144479, Note_on_c, 0, 72, 0
2, 1144479, Note_on_c, 0, 75, 0
2, 1144479, Note_on_c, 0, 68, 96
2, 1144479, Note_on_c, 0, 80, 96
2, 1144640, Note_on_c, 0, 80, 0
2, 1144640, Note_on_c, 0, 68, 0
2, 1144640, Note_on_c, 0, 67, 96
2, 1144640, Note_on_c, 0, 79, 96
2, 1144800, Note_on_c, 0, 79, 0
2, 1144800, Note_on_c, 0, 67, 0
2, 1144800, Note_on_c, 0, 66, 96
2, 1144800, Note_on_c, 0, 69, 96
2, 1144800, Note_on_c, 0, 72, 96
2, 1144800, Note_on_c, 0, 78, 96
2, 1144959, Note_on_c, 0, 78, 0
2, 1144959, Note_on_c, 0, 66, 0
2, 1144959, Note_on_c, 0, 69, 0
2, 1144959, Note_on_c, 0, 72, 0
2, 1144959, Note_on_c, 0, 65, 96
2, 1144959, Note_on_c, 0, 77, 96
2, 1145120, Note_on_c, 0, 77, 0
2, 1145120, Note_on_c, 0, 65, 0
2, 1145120, Note_on_c, 0, 64, 96
2, 1145120, Note_on_c, 0, 76, 96
2, 1145280, Note_on_c, 0, 76, 0
2, 1145280, Note_on_c, 0, 64, 0
2, 1145280, Note_on_c, 0, 63, 96
2, 1145280, Note_on_c, 0, 66, 96
2, 1145280, Note_on_c, 0, 69, 96
2, 1145280, Note_on_c, 0, 75, 96
2, 1145439, Note_on_c, 0, 75, 0
2, 1145439, Note_on_c, 0, 63, 0
2, 1145439, Note_on_c, 0, 66, 0
2, 1145439, Note_on_c, 0, 69, 0
2, 1145439, Note_on_c, 0, 62, 96
2, 1145439, Note_on_c, 0, 74, 96
2, 1145600, Note_on_c, 0, 74, 0
2, 1145600, Note_on_c, 0, 62, 0
2, 1145600, Note_on_c, 0, 61, 96
2, 1145600, Note_on_c, 0, 73, 96
2, 1145760, Note_on_c, 0, 73, 0
2, 1145760, Note_on_c, 0, 61, 0
2, 1145760, Note_on_c, 0, 60, 96
2, 1145760, Note_on_c, 0, 63, 96
2, 1145760, Note_on_c, 0, 66, 96
2, 1145760, Note_on_c, 0, 72, 96
2, 1145919, Note_on_c, 0, 72, 0
2, 1145919, Note_on_c, 0, 60, 0
2, 1145919, Note_on_c, 0, 63, 0
2, 1145919, Note_on_c, 0, 66, 0
2, 1145919, Note_on_c, 0, 59, 96
2, 1145919, Note_on_c, 0, 71, 96
2, 1146080, Note_on_c, 0, 71, 0
2, 1146080, Note_on_c, 0, 59, 0
2, 1146080, Note_on_c, 0, 58, 96
2, 1146080, Note_on_c, 0, 70, 96
2, 1146240, Note_on_c, 0, 70, 0
2, 1146240, Note_on_c, 0, 58, 0
2, 1146240, Note_on_c, 0, 57, 96
2, 1146240, Note_on_c, 0, 60, 96
2, 1146240, Note_on_c, 0, 63, 96
2, 1146240, Note_on_c, 0, 69, 96
2, 1146399, Note_on_c, 0, 69, 0
2, 1146399, Note_on_c, 0, 57, 0
2, 1146399, Note_on_c, 0, 60, 0
2, 1146399, Note_on_c, 0, 63, 0
2, 1146399, Note_on_c, 0, 56, 96
2, 1146399, Note_on_c, 0, 68, 96
2, 1146560, Note_on_c, 0, 68, 0
2, 1146560, Note_on_c, 0, 56, 0
2, 1146560, Note_on_c, 0, 55, 96
2, 1146560, Note_on_c, 0, 67, 96
2, 1146720, Note_on_c, 0, 67, 0
2, 1146720, Note_on_c, 0, 55, 0
2, 1146720, Note_on_c, 0, 54, 96
2, 1146720, Note_on_c, 0, 57, 96
2, 1146720, Note_on_c, 0, 60, 96
2, 1146720, Note_on_c, 0, 66, 96
2, 1146879, Note_on_c, 0, 66, 0
2, 1146879, Note_on_c, 0, 54, 0
2, 1146879, Note_on_c, 0, 57, 0
2, 1146879, Note_on_c, 0, 60, 0
2, 1146879, Note_on_c, 0, 53, 96
2, 1146879, Note_on_c, 0, 65, 96
2, 1147040, Note_on_c, 0, 65, 0
2, 1147040, Note_on_c, 0, 53, 0
2, 1147040, Note_on_c, 0, 52, 96
2, 1147040, Note_on_c, 0, 64, 96
2, 1147200, Note_on_c, 0, 64, 0
2, 1147200, Note_on_c, 0, 52, 0
2, 1147200, Note_on_c, 0, 51, 122
2, 1147200, Note_on_c, 0, 54, 122
2, 1147200, Note_on_c, 0, 57, 122
2, 1147200, Note_on_c, 0, 63, 122
2, 1147359, Note_on_c, 0, 63, 0
2, 1147359, Note_on_c, 0, 51, 0
2, 1147359, Note_on_c, 0, 54, 0
2, 1147359, Note_on_c, 0, 57, 0
2, 1147359, Note_on_c, 0, 49, 96
2, 1147359, Note_on_c, 0, 61, 96
2, 1147520, Note_on_c, 0, 61, 0
2, 1147520, Note_on_c, 0, 49, 0
2, 1147520, Note_on_c, 0, 50, 96
2, 1147520, Note_on_c, 0, 62, 96
2, 1147680, Note_on_c, 0, 62, 0
2, 1147680, Note_on_c, 0, 50, 0
2, 1147680, Note_on_c, 0, 53, 96
2, 1147680, Note_on_c, 0, 65, 96
2, 1147839, Note_on_c, 0, 65, 0
2, 1147839, Note_on_c, 0, 53, 0
2, 1147839, Note_on_c, 0, 54, 96
2, 1147839, Note_on_c, 0, 66, 96
2, 1148000, Note_on_c, 0, 66, 0
2, 1148000, Note_on_c, 0, 54, 0
2, 1148000, Note_on_c, 0, 56, 96
2, 1148000, Note_on_c, 0, 68, 96
2, 1148160, Note_on_c, 0, 68, 0
2, 1148160, Note_on_c, 0, 56, 0
2, 1148160, Note_on_c, 0, 57, 96
2, 1148160, Note_on_c, 0, 69, 96
2, 1148319, Note_on_c, 0, 69, 0
2, 1148319, Note_on_c, 0, 57, 0
2, 1148319, Note_on_c, 0, 53, 96
2, 1148319, Note_on_c, 0, 65, 96
2, 1148480, Note_on_c, 0, 65, 0
2, 1148480, Note_on_c, 0, 53, 0
2, 1148480, Note_on_c, 0, 54, 96
2, 1148480, Note_on_c, 0, 66, 96
2, 1148640, Note_on_c, 0, 66, 0
2, 1148640, Note_on_c, 0, 54, 0
2, 1148640, Note_on_c, 0, 56, 96
2, 1148640, Note_on_c, 0, 68, 96
2, 1148799, Note_on_c, 0, 68, 0
2, 1148799, Note_on_c, 0, 56, 0
2, 1148799, Note_on_c, 0, 57, 96
2, 1148799, Note_on_c, 0, 69, 96
2, 1148960, Note_on_c, 0, 69, 0
2, 1148960, Note_on_c, 0, 57, 0
2, 1148960, Note_on_c, 0, 61, 96
2, 1148960, Note_on_c, 0, 73, 96
2, 1149120, Note_on_c, 0, 73, 0
2, 1149120, Note_on_c, 0, 61, 0
2, 1149120, Note_on_c, 0, 62, 96
2, 1149120, Note_on_c, 0, 74, 96
2, 1149279, Note_on_c, 0, 74, 0
2, 1149279, Note_on_c, 0, 62, 0
2, 1149279, Note_on_c, 0, 65, 96
2, 1149279, Note_on_c, 0, 77, 96
2, 1149440, Note_on_c, 0, 77, 0
2, 1149440, Note_on_c, 0, 65, 0
2, 1149440, Note_on_c, 0, 66, 96
2, 1149440, Note_on_c, 0, 78, 96
2, 1149600, Note_on_c, 0, 78, 0
2, 1149600, Note_on_c, 0, 66, 0
2, 1149600, Note_on_c, 0, 68, 96
2, 1149600, Note_on_c, 0, 80, 96
2, 1149759, Note_on_c, 0, 80, 0
2, 1149759, Note_on_c, 0, 68, 0
2, 1149759, Note_on_c, 0, 69, 96
2, 1149759, Note_on_c, 0, 81, 96
2, 1149920, Note_on_c, 0, 81, 0
2, 1149920, Note_on_c, 0, 69, 0
2, 1149920, Note_on_c, 0, 73, 96
2, 1149920, Note_on_c, 0, 85, 96
2, 1150080, Note_on_c, 0, 85, 0
2, 1150080, Note_on_c, 0, 73, 0
2, 1150080, Note_on_c, 0, 74, 96
2, 1150080, Note_on_c, 0, 86, 96
2, 1150239, Note_on_c, 0, 86, 0
2, 1150239, Note_on_c, 0, 74, 0
2, 1150239, Note_on_c, 0, 77, 96
2, 1150239, Note_on_c, 0, 89, 96
2, 1150400, Note_on_c, 0, 89, 0
2, 1150400, Note_on_c, 0, 77, 0
2, 1150400, Note_on_c, 0, 78, 96
2, 1150400, Note_on_c, 0, 90, 96
2, 1150560, Note_on_c, 0, 90, 0
2, 1150560, Note_on_c, 0, 78, 0
2, 1150560, Note_on_c, 0, 80, 96
2, 1150560, Note_on_c, 0, 92, 96
2, 1150719, Note_on_c, 0, 92, 0
2, 1150719, Note_on_c, 0, 80, 0
2, 1150719, Note_on_c, 0, 81, 96
2, 1150719, Note_on_c, 0, 93, 96
2, 1150880, Note_on_c, 0, 93, 0
2, 1150880, Note_on_c, 0, 81, 0
2, 1150880, Note_on_c, 0, 86, 122
2, 1150880, Note_on_c, 0, 98, 122
2, 1151040, Note_on_c, 0, 98, 0
2, 1151040, Note_on_c, 0, 86, 0
2, 1177440, Note_on_c, 0, 61, 57
2, 1177599, Note_on_c, 0, 61, 0
2, 1177599, Note_on_c, 0, 62, 57
2, 1177760, Note_on_c, 0, 62, 0
2, 1177760, Note_on_c, 0, 66, 83
2, 1177920, Note_on_c, 0, 66, 0
2, 1177920, Note_on_c, 0, 67, 96
2, 1178079, Note_on_c, 0, 67, 0
2, 1178079, Note_on_c, 0, 55, 70
2, 1178240, Note_on_c, 0, 55, 0
2, 1178240, Note_on_c, 0, 62, 70
2, 1178400, Note_on_c, 0, 62, 0
2, 1178400, Note_on_c, 0, 69, 96
2, 1178559, Note_on_c, 0, 69, 0
2, 1178559, Note_on_c, 0, 57, 70
2, 1178720, Note_on_c, 0, 57, 0
2, 1178720, Note_on_c, 0, 64, 70
2, 1178880, Note_on_c, 0, 64, 0
2, 1178880, Note_on_c, 0, 66, 96
2, 1179039, Note_on_c, 0, 66, 0
2, 1179039, Note_on_c, 0, 57, 70
2, 1179200, Note_on_c, 0, 57, 0
2, 1179200, Note_on_c, 0, 64, 70
2, 1179360, Note_on_c, 0, 64, 0
2, 1179360, Note_on_c, 0, 65, 70
2, 1179519, Note_on_c, 0, 65, 0
2, 1179519, Note_on_c, 0, 66, 70
2, 1179680, Note_on_c, 0, 66, 0
2, 1179680, Note_on_c, 0, 71, 96
2, 1179840, Note_on_c, 0, 71, 0
2, 1179840, Note_on_c, 0, 67, 96
2, 1179999, Note_on_c, 0, 67, 0
2, 1179999, Note_on_c, 0, 59, 70
2, 1180160, Note_on_c, 0, 59, 0
2, 1180160, Note_on_c, 0, 64, 70
2, 1180320, Note_on_c, 0, 64, 0
2, 1180320, Note_on_c, 0, 68, 70
2, 1180479, Note_on_c, 0, 68, 0
2, 1180479, Note_on_c, 0, 69, 70
2, 1180640, Note_on_c, 0, 69, 0
2, 1180640, Note_on_c, 0, 74, 96
2, 1180800, Note_on_c, 0, 74, 0
2, 1180800, Note_on_c, 0, 71, 96
2, 1180959, Note_on_c, 0, 71, 0
2, 1180959, Note_on_c, 0, 62, 70
2, 1181120, Note_on_c, 0, 62, 0
2, 1181120, Note_on_c, 0, 67, 70
2, 1181280, Note_on_c, 0, 67, 0
2, 1181280, Note_on_c, 0, 70, 70
2, 1181439, Note_on_c, 0, 70, 0
2, 1181439, Note_on_c, 0, 71, 70
2, 1181600, Note_on_c, 0, 71, 0
2, 1181600, Note_on_c, 0, 76, 96
2, 1181760, Note_on_c, 0, 76, 0
2, 1181760, Note_on_c, 0, 72, 96
2, 1181919, Note_on_c, 0, 72, 0
2, 1181919, Note_on_c, 0, 64, 70
2, 1182080, Note_on_c, 0, 64, 0
2, 1182080, Note_on_c, 0, 78, 70
2, 1182240, Note_on_c, 0, 78, 0
2, 1182240, Note_on_c, 0, 73, 96
2, 1182399, Note_on_c, 0, 73, 0
2, 1182399, Note_on_c, 0, 64, 70
2, 1182560, Note_on_c, 0, 64, 0
2, 1182560, Note_on_c, 0, 79, 70
2, 1182720, Note_on_c, 0, 79, 0
2, 1182720, Note_on_c, 0, 74, 96
2, 1182879, Note_on_c, 0, 74, 0
2, 1182879, Note_on_c, 0, 67, 70
2, 1183040, Note_on_c, 0, 67, 0
2, 1183040, Note_on_c, 0, 79, 70
2, 1183200, Note_on_c, 0, 79, 0
2, 1183200, Note_on_c, 0, 75, 96
2, 1183359, Note_on_c, 0, 75, 0
2, 1183359, Note_on_c, 0, 67, 70
2, 1183520, Note_on_c, 0, 67, 0
2, 1183520, Note_on_c, 0, 81, 70
2, 1183680, Note_on_c, 0, 81, 0
2, 1183680, Note_on_c, 0, 76, 96
2, 1183839, Note_on_c, 0, 76, 0
2, 1183839, Note_on_c, 0, 67, 70
2, 1184000, Note_on_c, 0, 67, 0
2, 1184000, Note_on_c, 0, 82, 70
2, 1184160, Note_on_c, 0, 82, 0
2, 1184160, Note_on_c, 0, 74, 96
2, 1184319, Note_on_c, 0, 74, 0
2, 1184319, Note_on_c, 0, 67, 70
2, 1184480, Note_on_c, 0, 67, 0
2, 1184480, Note_on_c, 0, 83, 70
2, 1184640, Note_on_c, 0, 83, 0
2, 1184640, Note_on_c, 0, 72, 96
2, 1184799, Note_on_c, 0, 72, 0
2, 1184799, Note_on_c, 0, 78, 70
2, 1184960, Note_on_c, 0, 78, 0
2, 1184960, Note_on_c, 0, 86, 70
2, 1185120, Note_on_c, 0, 86, 0
2, 1185120, Note_on_c, 0, 73, 70
2, 1185279, Note_on_c, 0, 73, 0
2, 1185279, Note_on_c, 0, 74, 70
2, 1185440, Note_on_c, 0, 74, 0
2, 1185440, Note_on_c, 0, 78, 96
2, 1185600, Note_on_c, 0, 78, 0
2, 1185600, Note_on_c, 0, 79, 96
2, 1185759, Note_on_c, 0, 79, 0
2, 1185759, Note_on_c, 0, 67, 70
2, 1185920, Note_on_c, 0, 67, 0
2, 1185920, Note_on_c, 0, 74, 70
2, 1186080, Note_on_c, 0, 74, 0
2, 1186080, Note_on_c, 0, 81, 96
2, 1186239, Note_on_c, 0, 81, 0
2, 1186239, Note_on_c, 0, 69, 70
2, 1186400, Note_on_c, 0, 69, 0
2, 1186400, Note_on_c, 0, 76, 70
2, 1186560, Note_on_c, 0, 76, 0
2, 1186560, Note_on_c, 0, 78, 96
2, 1186719, Note_on_c, 0, 78, 0
2, 1186719, Note_on_c, 0, 69, 70
2, 1186880, Note_on_c, 0, 69, 0
2, 1186880, Note_on_c, 0, 76, 70
2, 1187040, Note_on_c, 0, 76, 0
2, 1187040, Note_on_c, 0, 77, 70
2, 1187199, Note_on_c, 0, 77, 0
2, 1187199, Note_on_c, 0, 78, 70
2, 1187360, Note_on_c, 0, 78, 0
2, 1187360, Note_on_c, 0, 83, 96
2, 1187520, Note_on_c, 0, 83, 0
2, 1187520, Note_on_c, 0, 79, 96
2, 1187679, Note_on_c, 0, 79, 0
2, 1187679, Note_on_c, 0, 71, 70
2, 1187840, Note_on_c, 0, 71, 0
2, 1187840, Note_on_c, 0, 76, 70
2, 1188000, Note_on_c, 0, 76, 0
2, 1188000, Note_on_c, 0, 80, 83
2, 1188159, Note_on_c, 0, 80, 0
2, 1188159, Note_on_c, 0, 81, 83
2, 1188320, Note_on_c, 0, 81, 0
2, 1188320, Note_on_c, 0, 86, 109
2, 1188480, Note_on_c, 0, 86, 0
2, 1188480, Note_on_c, 0, 83, 109
2, 1188639, Note_on_c, 0, 83, 0
2, 1188639, Note_on_c, 0, 74, 83
2, 1188800, Note_on_c, 0, 74, 0
2, 1188800, Note_on_c, 0, 79, 83
2, 1188960, Note_on_c, 0, 79, 0
2, 1188960, Note_on_c, 0, 82, 83
2, 1189119, Note_on_c, 0, 82, 0
2, 1189119, Note_on_c, 0, 83, 83
2, 1189280, Note_on_c, 0, 83, 0
2, 1189280, Note_on_c, 0, 88, 109
2, 1189440, Note_on_c, 0, 88, 0
2, 1189440, Note_on_c, 0, 84, 109
2, 1189599, Note_on_c, 0, 84, 0
2, 1189599, Note_on_c, 0, 76, 83
2, 1189760, Note_on_c, 0, 76, 0
2, 1189760, Note_on_c, 0, 90, 83
2, 1189920, Note_on_c, 0, 90, 0
2, 1189920, Note_on_c, 0, 85, 109
2, 1190079, Note_on_c, 0, 85, 0
2, 1190079, Note_on_c, 0, 76, 83
2, 1190240, Note_on_c, 0, 76, 0
2, 1190240, Note_on_c, 0, 91, 83
2, 1190400, Note_on_c, 0, 91, 0
2, 1190400, Note_on_c, 0, 86, 109
2, 1190559, Note_on_c, 0, 86, 0
2, 1190559, Note_on_c, 0, 79, 83
2, 1190720, Note_on_c, 0, 79, 0
2, 1190720, Note_on_c, 0, 91, 83
2, 1190880, Note_on_c, 0, 91, 0
2, 1190880, Note_on_c, 0, 85, 109
2, 1191039, Note_on_c, 0, 85, 0
2, 1191039, Note_on_c, 0, 86, 83
2, 1191200, Note_on_c, 0, 86, 0
2, 1191200, Note_on_c, 0, 91, 83
2, 1191360, Note_on_c, 0, 91, 0
2, 1191360, Note_on_c, 0, 87, 109
2, 1191519, Note_on_c, 0, 87, 0
2, 1191519, Note_on_c, 0, 79, 83
2, 1191680, Note_on_c, 0, 79, 0
2, 1191680, Note_on_c, 0, 93, 83
2, 1191840, Note_on_c, 0, 93, 0
2, 1191840, Note_on_c, 0, 88, 109
2, 1191999, Note_on_c, 0, 88, 0
2, 1191999, Note_on_c, 0, 79, 83
2, 1192160, Note_on_c, 0, 79, 0
2, 1192160, Note_on_c, 0, 94, 83
2, 1192320, Note_on_c, 0, 94, 0
2, 1192320, Note_on_c, 0, 90, 109
2, 1192479, Note_on_c, 0, 90, 0
2, 1192479, Note_on_c, 0, 83, 83
2, 1192640, Note_on_c, 0, 83, 0
2, 1192640, Note_on_c, 0, 95, 83
2, 1192800, Note_on_c, 0, 95, 0
2, 1192800, Note_on_c, 0, 89, 83
2, 1192959, Note_on_c, 0, 89, 0
2, 1192959, Note_on_c, 0, 90, 83
2, 1193120, Note_on_c, 0, 90, 0
2, 1193120, Note_on_c, 0, 95, 109
2, 1193280, Note_on_c, 0, 95, 0
2, 1193280, Note_on_c, 0, 91, 109
2, 1193439, Note_on_c, 0, 91, 0
2, 1193439, Note_on_c, 0, 83, 83
2, 1193600, Note_on_c, 0, 83, 0
2, 1193600, Note_on_c, 0, 88, 83
2, 1193760, Note_on_c, 0, 88, 0
2, 1193760, Note_on_c, 0, 92, 83
2, 1193919, Note_on_c, 0, 92, 0
2, 1193919, Note_on_c, 0, 93, 83
2, 1194080, Note_on_c, 0, 93, 0
2, 1194080, Note_on_c, 0, 98, 109
2, 1194240, Note_on_c, 0, 98, 0
2, 1194240, Note_on_c, 0, 95, 109
2, 1194399, Note_on_c, 0, 95, 0
2, 1194399, Note_on_c, 0, 86, 83
2, 1194560, Note_on_c, 0, 86, 0
2, 1194560, Note_on_c, 0, 91, 83
2, 1194720, Note_on_c, 0, 91, 0
2, 1194720, Note_on_c, 0, 94, 83
2, 1194879, Note_on_c, 0, 94, 0
2, 1194879, Note_on_c, 0, 95, 83
2, 1195040, Note_on_c, 0, 95, 0
2, 1195040, Note_on_c, 0, 100, 109
2, 1195200, Note_on_c, 0, 100, 0
2, 1195200, Note_on_c, 0, 96, 109
2, 1195359, Note_on_c, 0, 96, 0
2, 1195359, Note_on_c, 0, 88, 83
2, 1195520, Note_on_c, 0, 88, 0
2, 1195520, Note_on_c, 0, 100, 83
2, 1195680, Note_on_c, 0, 100, 0
2, 1195680, Note_on_c, 0, 96, 109
2, 1195839, Note_on_c, 0, 96, 0
2, 1195839, Note_on_c, 0, 90, 83
2, 1196000, Note_on_c, 0, 90, 0
2, 1196000, Note_on_c, 0, 102, 83
2, 1196160, Note_on_c, 0, 102, 0
2, 1196160, Note_on_c, 0, 95, 109
2, 1196319, Note_on_c, 0, 95, 0
2, 1196319, Note_on_c, 0, 91, 83
2, 1196480, Note_on_c, 0, 91, 0
2, 1196480, Note_on_c, 0, 103, 83
2, 1196640, Note_on_c, 0, 103, 0
2, 1196640, Note_on_c, 0, 99, 83
2, 1196799, Note_on_c, 0, 99, 0
2, 1196799, Note_on_c, 0, 94, 83
2, 1196960, Note_on_c, 0, 94, 0
2, 1196960, Note_on_c, 0, 103, 83
2, 1197120, Note_on_c, 0, 103, 0
2, 1197120, Note_on_c, 0, 98, 96
2, 1197279, Note_on_c, 0, 98, 0
2, 1197279, Note_on_c, 0, 94, 96
2, 1197440, Note_on_c, 0, 94, 0
2, 1197440, Note_on_c, 0, 101, 96
2, 1197600, Note_on_c, 0, 101, 0
2, 1197600, Note_on_c, 0, 96, 96
2, 1197759, Note_on_c, 0, 96, 0
2, 1197759, Note_on_c, 0, 91, 96
2, 1197920, Note_on_c, 0, 91, 0
2, 1197920, Note_on_c, 0, 99, 96
2, 1198080, Note_on_c, 0, 99, 0
2, 1198080, Note_on_c, 0, 95, 96
2, 1198239, Note_on_c, 0, 95, 0
2, 1198239, Note_on_c, 0, 89, 96
2, 1198400, Note_on_c, 0, 89, 0
2, 1198400, Note_on_c, 0, 98, 96
2, 1198560, Note_on_c, 0, 98, 0
2, 1198560, Note_on_c, 0, 93, 96
2, 1198719, Note_on_c, 0, 93, 0
2, 1198719, Note_on_c, 0, 88, 96
2, 1198880, Note_on_c, 0, 88, 0
2, 1198880, Note_on_c, 0, 97, 96
2, 1199040, Note_on_c, 0, 97, 0
2, 1199040, Note_on_c, 0, 93, 96
2, 1199199, Note_on_c, 0, 93, 0
2, 1199199, Note_on_c, 0, 87, 96
2, 1199360, Note_on_c, 0, 87, 0
2, 1199360, Note_on_c, 0, 96, 96
2, 1199520, Note_on_c, 0, 96, 0
2, 1199520, Note_on_c, 0, 91, 96
2, 1199679, Note_on_c, 0, 91, 0
2, 1199679, Note_on_c, 0, 86, 96
2, 1199840, Note_on_c, 0, 86, 0
2, 1199840, Note_on_c, 0, 95, 96
2, 1200000, Note_on_c, 0, 95, 0
2, 1200000, Note_on_c, 0, 90, 96
2, 1200159, Note_on_c, 0, 90, 0
2, 1200159, Note_on_c, 0, 84, 96
2, 1200320, Note_on_c, 0, 84, 0
2, 1200320, Note_on_c, 0, 93, 96
2, 1200480, Note_on_c, 0, 93, 0
2, 1200480, Note_on_c, 0, 88, 96
2, 1200639, Note_on_c, 0, 88, 0
2, 1200639, Note_on_c, 0, 83, 96
2, 1200800, Note_on_c, 0, 83, 0
2, 1200800, Note_on_c, 0, 91, 96
2, 1200960, Note_on_c, 0, 91, 0
2, 1200960, Note_on_c, 0, 86, 96
2, 1201119, Note_on_c, 0, 86, 0
2, 1201119, Note_on_c, 0, 83, 96
2, 1201280, Note_on_c, 0, 83, 0
2, 1201280, Note_on_c, 0, 90, 96
2, 1201440, Note_on_c, 0, 90, 0
2, 1201440, Note_on_c, 0, 84, 96
2, 1201599, Note_on_c, 0, 84, 0
2, 1201599, Note_on_c, 0, 79, 96
2, 1201760, Note_on_c, 0, 79, 0
2, 1201760, Note_on_c, 0, 88, 96
2, 1201920, Note_on_c, 0, 88, 0
2, 1201920, Note_on_c, 0, 83, 96
2, 1202079, Note_on_c, 0, 83, 0
2, 1202079, Note_on_c, 0, 77, 96
2, 1202240, Note_on_c, 0, 77, 0
2, 1202240, Note_on_c, 0, 86, 96
2, 1202400, Note_on_c, 0, 86, 0
2, 1202400, Note_on_c, 0, 81, 96
2, 1202559, Note_on_c, 0, 81, 0
2, 1202559, Note_on_c, 0, 76, 96
2, 1202720, Note_on_c, 0, 76, 0
2, 1202720, Note_on_c, 0, 84, 96
2, 1202880, Note_on_c, 0, 84, 0
2, 1202880, Note_on_c, 0, 79, 96
2, 1203039, Note_on_c, 0, 79, 0
2, 1203039, Note_on_c, 0, 74, 96
2, 1203200, Note_on_c, 0, 74, 0
2, 1203200, Note_on_c, 0, 83, 96
2, 1203360, Note_on_c, 0, 83, 0
2, 1203360, Note_on_c, 0, 81, 96
2, 1203519, Note_on_c, 0, 81, 0
2, 1203519, Note_on_c, 0, 78, 96
2, 1203680, Note_on_c, 0, 78, 0
2, 1203680, Note_on_c, 0, 86, 96
2, 1203840, Note_on_c, 0, 86, 0
2, 1203840, Note_on_c, 0, 83, 96
2, 1203999, Note_on_c, 0, 83, 0
2, 1203999, Note_on_c, 0, 79, 96
2, 1204160, Note_on_c, 0, 79, 0
2, 1204160, Note_on_c, 0, 86, 96
2, 1204320, Note_on_c, 0, 86, 0
2, 1204320, Note_on_c, 0, 87, 96
2, 1204479, Note_on_c, 0, 87, 0
2, 1204479, Note_on_c, 0, 82, 96
2, 1204640, Note_on_c, 0, 82, 0
2, 1204640, Note_on_c, 0, 91, 96
2, 1204800, Note_on_c, 0, 91, 0
2, 1204800, Note_on_c, 0, 86, 96
2, 1204959, Note_on_c, 0, 86, 0
2, 1204959, Note_on_c, 0, 82, 96
2, 1205120, Note_on_c, 0, 82, 0
2, 1205120, Note_on_c, 0, 89, 96
2, 1205280, Note_on_c, 0, 89, 0
2, 1205280, Note_on_c, 0, 84, 96
2, 1205439, Note_on_c, 0, 84, 0
2, 1205439, Note_on_c, 0, 79, 96
2, 1205600, Note_on_c, 0, 79, 0
2, 1205600, Note_on_c, 0, 87, 96
2, 1205760, Note_on_c, 0, 87, 0
2, 1205760, Note_on_c, 0, 83, 96
2, 1205919, Note_on_c, 0, 83, 0
2, 1205919, Note_on_c, 0, 77, 96
2, 1206080, Note_on_c, 0, 77, 0
2, 1206080, Note_on_c, 0, 86, 96
2, 1206240, Note_on_c, 0, 86, 0
2, 1206240, Note_on_c, 0, 81, 96
2, 1206399, Note_on_c, 0, 81, 0
2, 1206399, Note_on_c, 0, 76, 96
2, 1206560, Note_on_c, 0, 76, 0
2, 1206560, Note_on_c, 0, 85, 96
2, 1206720, Note_on_c, 0, 85, 0
2, 1206720, Note_on_c, 0, 81, 96
2, 1206879, Note_on_c, 0, 81, 0
2, 1206879, Note_on_c, 0, 75, 96
2, 1207040, Note_on_c, 0, 75, 0
2, 1207040, Note_on_c, 0, 84, 96
2, 1207200, Note_on_c, 0, 84, 0
2, 1207200, Note_on_c, 0, 79, 96
2, 1207359, Note_on_c, 0, 79, 0
2, 1207359, Note_on_c, 0, 74, 96
2, 1207520, Note_on_c, 0, 74, 0
2, 1207520, Note_on_c, 0, 83, 96
2, 1207680, Note_on_c, 0, 83, 0
2, 1207680, Note_on_c, 0, 78, 96
2, 1207839, Note_on_c, 0, 78, 0
2, 1207839, Note_on_c, 0, 72, 96
2, 1208000, Note_on_c, 0, 72, 0
2, 1208000, Note_on_c, 0, 81, 96
2, 1208160, Note_on_c, 0, 81, 0
2, 1208160, Note_on_c, 0, 76, 96
2, 1208319, Note_on_c, 0, 76, 0
2, 1208319, Note_on_c, 0, 71, 96
2, 1208480, Note_on_c, 0, 71, 0
2, 1208480, Note_on_c, 0, 79, 96
2, 1208640, Note_on_c, 0, 79, 0
2, 1208640, Note_on_c, 0, 74, 96
2, 1208799, Note_on_c, 0, 74, 0
2, 1208799, Note_on_c, 0, 71, 96
2, 1208960, Note_on_c, 0, 71, 0
2, 1208960, Note_on_c, 0, 78, 96
2, 1209120, Note_on_c, 0, 78, 0
2, 1209120, Note_on_c, 0, 72, 96
2, 1209279, Note_on_c, 0, 72, 0
2, 1209279, Note_on_c, 0, 67, 96
2, 1209440, Note_on_c, 0, 67, 0
2, 1209440, Note_on_c, 0, 76, 96
2, 1209600, Note_on_c, 0, 76, 0
2, 1209600, Note_on_c, 0, 71, 96
2, 1209759, Note_on_c, 0, 71, 0
2, 1209759, Note_on_c, 0, 65, 96
2, 1209920, Note_on_c, 0, 65, 0
2, 1209920, Note_on_c, 0, 74, 96
2, 1210080, Note_on_c, 0, 74, 0
2, 1210080, Note_on_c, 0, 69, 96
2, 1210239, Note_on_c, 0, 69, 0
2, 1210239, Note_on_c, 0, 64, 96
2, 1210400, Note_on_c, 0, 64, 0
2, 1210400, Note_on_c, 0, 72, 96
2, 1210560, Note_on_c, 0, 72, 0
2, 1210560, Note_on_c, 0, 67, 96
2, 1210719, Note_on_c, 0, 67, 0
2, 1210719, Note_on_c, 0, 62, 96
2, 1210880, Note_on_c, 0, 62, 0
2, 1210880, Note_on_c, 0, 71, 96
2, 1211040, Note_on_c, 0, 71, 0
2, 1211040, Note_on_c, 0, 69, 96
2, 1211199, Note_on_c, 0, 69, 0
2, 1211199, Note_on_c, 0, 66, 96
2, 1211360, Note_on_c, 0, 66, 0
2, 1211360, Note_on_c, 0, 74, 96
2, 1211520, Note_on_c, 0, 74, 0
2, 1211520, Note_on_c, 0, 71, 96
2, 1211679, Note_on_c, 0, 71, 0
2, 1211679, Note_on_c, 0, 67, 96
2, 1211840, Note_on_c, 0, 67, 0
2, 1211840, Note_on_c, 0, 71, 96
2, 1212000, Note_on_c, 0, 71, 0
2, 1212000, Note_on_c, 0, 74, 96
2, 1212159, Note_on_c, 0, 74, 0
2, 1212159, Note_on_c, 0, 69, 96
2, 1212320, Note_on_c, 0, 69, 0
2, 1212320, Note_on_c, 0, 78, 96
2, 1212480, Note_on_c, 0, 78, 0
2, 1212480, Note_on_c, 0, 74, 83
2, 1212639, Note_on_c, 0, 74, 0
2, 1212639, Note_on_c, 0, 71, 83
2, 1212800, Note_on_c, 0, 71, 0
2, 1212800, Note_on_c, 0, 79, 83
2, 1212960, Note_on_c, 0, 79, 0
2, 1212960, Note_on_c, 0, 74, 83
2, 1213119, Note_on_c, 0, 74, 0
2, 1213119, Note_on_c, 0, 71, 83
2, 1213280, Note_on_c, 0, 71, 0
2, 1213280, Note_on_c, 0, 67, 83
2, 1213440, Note_on_c, 0, 67, 0
2, 1213440, Note_on_c, 0, 71, 83
2, 1213599, Note_on_c, 0, 71, 0
2, 1213599, Note_on_c, 0, 74, 83
2, 1213760, Note_on_c, 0, 74, 0
2, 1213760, Note_on_c, 0, 79, 83
2, 1213920, Note_on_c, 0, 79, 0
2, 1213920, Note_on_c, 0, 78, 83
2, 1214079, Note_on_c, 0, 78, 0
2, 1214079, Note_on_c, 0, 74, 83
2, 1214240, Note_on_c, 0, 74, 0
2, 1214240, Note_on_c, 0, 81, 83
2, 1214400, Note_on_c, 0, 81, 0
2, 1214400, Note_on_c, 0, 79, 83
2, 1214559, Note_on_c, 0, 79, 0
2, 1214559, Note_on_c, 0, 74, 83
2, 1214720, Note_on_c, 0, 74, 0
2, 1214720, Note_on_c, 0, 83, 83
2, 1214880, Note_on_c, 0, 83, 0
2, 1214880, Note_on_c, 0, 79, 83
2, 1215039, Note_on_c, 0, 79, 0
2, 1215039, Note_on_c, 0, 74, 83
2, 1215200, Note_on_c, 0, 74, 0
2, 1215200, Note_on_c, 0, 71, 83
2, 1215360, Note_on_c, 0, 71, 0
2, 1215360, Note_on_c, 0, 74, 83
2, 1215519, Note_on_c, 0, 74, 0
2, 1215519, Note_on_c, 0, 79, 83
2, 1215680, Note_on_c, 0, 79, 0
2, 1215680, Note_on_c, 0, 83, 83
2, 1215840, Note_on_c, 0, 83, 0
2, 1215840, Note_on_c, 0, 81, 83
2, 1215999, Note_on_c, 0, 81, 0
2, 1215999, Note_on_c, 0, 78, 83
2, 1216160, Note_on_c, 0, 78, 0
2, 1216160, Note_on_c, 0, 86, 83
2, 1216320, Note_on_c, 0, 86, 0
2, 1216320, Note_on_c, 0, 83, 83
2, 1216479, Note_on_c, 0, 83, 0
2, 1216479, Note_on_c, 0, 79, 83
2, 1216640, Note_on_c, 0, 79, 0
2, 1216640, Note_on_c, 0, 86, 83
2, 1216800, Note_on_c, 0, 86, 0
2, 1216800, Note_on_c, 0, 83, 83
2, 1216959, Note_on_c, 0, 83, 0
2, 1216959, Note_on_c, 0, 79, 83
2, 1217120, Note_on_c, 0, 79, 0
2, 1217120, Note_on_c, 0, 74, 83
2, 1217280, Note_on_c, 0, 74, 0
2, 1217280, Note_on_c, 0, 79, 83
2, 1217439, Note_on_c, 0, 79, 0
2, 1217439, Note_on_c, 0, 83, 83
2, 1217600, Note_on_c, 0, 83, 0
2, 1217600, Note_on_c, 0, 86, 83
2, 1217760, Note_on_c, 0, 86, 0
2, 1217760, Note_on_c, 0, 90, 83
2, 1217919, Note_on_c, 0, 90, 0
2, 1217919, Note_on_c, 0, 86, 83
2, 1218080, Note_on_c, 0, 86, 0
2, 1218080, Note_on_c, 0, 81, 83
2, 1218240, Note_on_c, 0, 81, 0
2, 1218240, Note_on_c, 0, 91, 83
2, 1218399, Note_on_c, 0, 91, 0
2, 1218399, Note_on_c, 0, 86, 83
2, 1218560, Note_on_c, 0, 86, 0
2, 1218560, Note_on_c, 0, 83, 83
2, 1218720, Note_on_c, 0, 83, 0
2, 1218720, Note_on_c, 0, 79, 83
2, 1218879, Note_on_c, 0, 79, 0
2, 1218879, Note_on_c, 0, 74, 83
2, 1219040, Note_on_c, 0, 74, 0
2, 1219040, Note_on_c, 0, 79, 83
2, 1219200, Note_on_c, 0, 79, 0
2, 1219200, Note_on_c, 0, 83, 83
2, 1219359, Note_on_c, 0, 83, 0
2, 1219359, Note_on_c, 0, 86, 83
2, 1219520, Note_on_c, 0, 86, 0
2, 1219520, Note_on_c, 0, 91, 83
2, 1219680, Note_on_c, 0, 91, 0
2, 1219680, Note_on_c, 0, 93, 83
2, 1219839, Note_on_c, 0, 93, 0
2, 1219839, Note_on_c, 0, 90, 83
2, 1220000, Note_on_c, 0, 90, 0
2, 1220000, Note_on_c, 0, 86, 83
2, 1220160, Note_on_c, 0, 86, 0
2, 1220160, Note_on_c, 0, 95, 96
2, 1220319, Note_on_c, 0, 95, 0
2, 1220319, Note_on_c, 0, 91, 96
2, 1220480, Note_on_c, 0, 91, 0
2, 1220480, Note_on_c, 0, 86, 96
2, 1220640, Note_on_c, 0, 86, 0
2, 1220640, Note_on_c, 0, 93, 96
2, 1220799, Note_on_c, 0, 93, 0
2, 1220799, Note_on_c, 0, 90, 96
2, 1220960, Note_on_c, 0, 90, 0
2, 1220960, Note_on_c, 0, 86, 96
2, 1221120, Note_on_c, 0, 86, 0
2, 1221120, Note_on_c, 0, 95, 96
2, 1221279, Note_on_c, 0, 95, 0
2, 1221279, Note_on_c, 0, 91, 96
2, 1221440, Note_on_c, 0, 91, 0
2, 1221440, Note_on_c, 0, 86, 96
2, 1221600, Note_on_c, 0, 86, 0
2, 1221600, Note_on_c, 0, 98, 96
2, 1221759, Note_on_c, 0, 98, 0
2, 1221759, Note_on_c, 0, 93, 96
2, 1221920, Note_on_c, 0, 93, 0
2, 1221920, Note_on_c, 0, 90, 96
2, 1222080, Note_on_c, 0, 90, 0
2, 1222080, Note_on_c, 0, 98, 96
2, 1222239, Note_on_c, 0, 98, 0
2, 1222239, Note_on_c, 0, 95, 96
2, 1222400, Note_on_c, 0, 95, 0
2, 1222400, Note_on_c, 0, 91, 96
2, 1222560, Note_on_c, 0, 91, 0
2, 1222560, Note_on_c, 0, 98, 96
2, 1222719, Note_on_c, 0, 98, 0
2, 1222719, Note_on_c, 0, 93, 96
2, 1222880, Note_on_c, 0, 93, 0
2, 1222880, Note_on_c, 0, 90, 96
2, 1223040, Note_on_c, 0, 90, 0
2, 1223040, Note_on_c, 0, 98, 96
2, 1223199, Note_on_c, 0, 98, 0
2, 1223199, Note_on_c, 0, 95, 96
2, 1223360, Note_on_c, 0, 95, 0
2, 1223360, Note_on_c, 0, 91, 96
2, 1223520, Note_on_c, 0, 91, 0
2, 1223520, Note_on_c, 0, 102, 96
2, 1223679, Note_on_c, 0, 102, 0
2, 1223679, Note_on_c, 0, 98, 96
2, 1223840, Note_on_c, 0, 98, 0
2, 1223840, Note_on_c, 0, 93, 96
2, 1224000, Note_on_c, 0, 93, 0
2, 1224000, Control_c, 0, 64, 127
2, 1224000, Note_on_c, 0, 103, 96
2, 1224159, Note_on_c, 0, 103, 0
2, 1224159, Note_on_c, 0, 98, 96
2, 1224320, Note_on_c, 0, 98, 0
2, 1224320, Note_on_c, 0, 95, 96
2, 1224480, Note_on_c, 0, 95, 0
2, 1224480, Note_on_c, 0, 91, 96
2, 1224639, Note_on_c, 0, 91, 0
2, 1224639, Note_on_c, 0, 86, 96
2, 1224800, Note_on_c, 0, 86, 0
2, 1224800, Note_on_c, 0, 83, 96
2, 1224960, Note_on_c, 0, 83, 0
2, 1224960, Note_on_c, 0, 91, 96
2, 1225119, Note_on_c, 0, 91, 0
2, 1225119, Note_on_c, 0, 86, 96
2, 1225280, Note_on_c, 0, 86, 0
2, 1225280, Note_on_c, 0, 83, 96
2, 1225440, Note_on_c, 0, 83, 0
2, 1225440, Note_on_c, 0, 79, 96
2, 1225599, Note_on_c, 0, 79, 0
2, 1225599, Note_on_c, 0, 74, 96
2, 1225760, Note_on_c, 0, 74, 0
2, 1225760, Control_c, 0, 64, 0
2, 1225760, Note_on_c, 0, 71, 96
2, 1225920, Note_on_c, 0, 71, 0
2, 1225920, Control_c, 0, 64, 127
2, 1225920, Note_on_c, 0, 79, 96
2, 1226079, Note_on_c, 0, 79, 0
2, 1226079, Note_on_c, 0, 74, 96
2, 1226240, Note_on_c, 0, 74, 0
2, 1226240, Note_on_c, 0, 71, 96
2, 1226400, Note_on_c, 0, 71, 0
2, 1226400, Note_on_c, 0, 67, 96
2, 1226559, Note_on_c, 0, 67, 0
2, 1226559, Note_on_c, 0, 62, 96
2, 1226720, Note_on_c, 0, 62, 0
2, 1226720, Note_on_c, 0, 59, 96
2, 1226880, Note_on_c, 0, 59, 0
2, 1226880, Note_on_c, 0, 67, 96
2, 1227039, Note_on_c, 0, 67, 0
2, 1227039, Note_on_c, 0, 62, 96
2, 1227200, Note_on_c, 0, 62, 0
2, 1227200, Note_on_c, 0, 59, 96
2, 1227360, Note_on_c, 0, 59, 0
2, 1227360, Note_on_c, 0, 55, 96
2, 1227519, Note_on_c, 0, 55, 0
2, 1227519, Note_on_c, 0, 50, 96
2, 1227680, Note_on_c, 0, 50, 0
2, 1227680, Control_c, 0, 64, 0
2, 1227680, Note_on_c, 0, 47, 96
2, 1227840, Note_on_c, 0, 47, 0
2, 1227840, Control_c, 0, 64, 127
2, 1227840, Note_on_c, 0, 43, 96
2, 1227999, Note_on_c, 0, 43, 0
2, 1227999, Note_on_c, 0, 48, 96
2, 1228160, Note_on_c, 0, 48, 0
2, 1228160, Note_on_c, 0, 51, 96
2, 1228320, Note_on_c, 0, 51, 0
2, 1228320, Note_on_c, 0, 55, 96
2, 1228479, Note_on_c, 0, 55, 0
2, 1228479, Note_on_c, 0, 60, 96
2, 1228640, Note_on_c, 0, 60, 0
2, 1228640, Note_on_c, 0, 63, 96
2, 1228800, Note_on_c, 0, 63, 0
2, 1228800, Note_on_c, 0, 67, 96
2, 1228959, Note_on_c, 0, 67, 0
2, 1228959, Note_on_c, 0, 72, 96
2, 1229120, Note_on_c, 0, 72, 0
2, 1229120, Note_on_c, 0, 75, 96
2, 1229280, Note_on_c, 0, 75, 0
2, 1229280, Control_c, 0, 64, 0
2, 1229280, Note_on_c, 0, 81, 96
2, 1229760, Note_on_c, 0, 81, 0
2, 1229760, Note_on_c, 0, 71, 122
2, 1229760, Note_on_c, 0, 74, 122
2, 1229760, Note_on_c, 0, 79, 122
2, 1229760, Note_on_c, 0, 83, 122
2, 1230240, Note_on_c, 0, 83, 0
2, 1230240, Note_on_c, 0, 71, 0
2, 1230240, Note_on_c, 0, 74, 0
2, 1230240, Note_on_c, 0, 79, 0
2, 1230240, Note_on_c, 0, 74, 122
2, 1230240, Note_on_c, 0, 78, 122
2, 1230240, Note_on_c, 0, 81, 122
2, 1230240, Note_on_c, 0, 86, 122
2, 1230720, Note_on_c, 0, 86, 0
2, 1230720, Note_on_c, 0, 74, 0
2, 1230720, Note_on_c, 0, 78, 0
2, 1230720, Note_on_c, 0, 81, 0
2, 1230720, Note_on_c, 0, 71, 122
2, 1230720, Note_on_c, 0, 74, 122
2, 1230720, Note_on_c, 0, 79, 122
2, 1231200, Note_on_c, 0, 79, 0
2, 1231200, Note_on_c, 0, 74, 0
2, 1231200, Note_on_c, 0, 71, 0
2, 1231200, Control_c, 0, 64, 127
2, 1234560, Control_c, 0, 64, 0
2, 1234560, End_track
3, 0, Start_track
3, 0, Title_t, "Grand Piano"
3, 0, Program_c, 0, 0
3, 0, Control_c, 0, 7, 115
3, 0, Control_c, 0, 10, 80
3, 15840, Note_on_c, 0, 43, 88
3, 15840, Note_on_c, 0, 47, 88
3, 15840, Note_on_c, 0, 50, 88
3, 15840, Note_on_c, 0, 55, 88
3, 16320, Note_on_c, 0, 55, 0
3, 16320, Note_on_c, 0, 43, 0
3, 16320, Note_on_c, 0, 47, 0
3, 16320, Note_on_c, 0, 50, 0
3, 16320, Note_on_c, 0, 45, 88
3, 16320, Note_on_c, 0, 48, 88
3, 16320, Note_on_c, 0, 50, 88
3, 16320, Note_on_c, 0, 57, 88
3, 16560, Note_on_c, 0, 57, 0
3, 16560, Note_on_c, 0, 45, 0
3, 16560, Note_on_c, 0, 48, 0
3, 16560, Note_on_c, 0, 50, 0
3, 16560, Note_on_c, 0, 47, 88
3, 16560, Note_on_c, 0, 50, 88
3, 16560, Note_on_c, 0, 59, 88
3, 16800, Note_on_c, 0, 59, 0
3, 16800, Note_on_c, 0, 50, 0
3, 16800, Note_on_c, 0, 47, 0
3, 16800, Note_on_c, 0, 45, 88
3, 16800, Note_on_c, 0, 48, 88
3, 16800, Note_on_c, 0, 50, 88
3, 16800, Note_on_c, 0, 57, 88
3, 17760, Note_on_c, 0, 57, 0
3, 17760, Note_on_c, 0, 45, 0
3, 17760, Note_on_c, 0, 48, 0
3, 17760, Note_on_c, 0, 50, 0
3, 17760, Note_on_c, 0, 43, 88
3, 17760, Note_on_c, 0, 47, 88
3, 17760, Note_on_c, 0, 50, 88
3, 17760, Note_on_c, 0, 55, 88
3, 18240, Note_on_c, 0, 55, 0
3, 18240, Note_on_c, 0, 43, 0
3, 18240, Note_on_c, 0, 47, 0
3, 18240, Note_on_c, 0, 50, 0
3, 18240, Note_on_c, 0, 42, 88
3, 18240, Note_on_c, 0, 45, 88
3, 18240, Note_on_c, 0, 50, 88
3, 18240, Note_on_c, 0, 54, 88
3, 18720, Note_on_c, 0, 54, 0
3, 18720, Note_on_c, 0, 42, 0
3, 18720, Note_on_c, 0, 45, 0
3, 18720, Note_on_c, 0, 50, 0
3, 18720, Note_on_c, 0, 38, 88
3, 18720, Note_on_c, 0, 50, 88
3, 19200, Note_on_c, 0, 50, 0
3, 19200, Note_on_c, 0, 38, 0
3, 19680, Note_on_c, 0, 43, 88
3, 19680, Note_on_c, 0, 47, 88
3, 19680, Note_on_c, 0, 50, 88
3, 19680, Note_on_c, 0, 55, 88
3, 20160, Note_on_c, 0, 55, 0
3, 20160, Note_on_c, 0, 43, 0
3, 20160, Note_on_c, 0, 47, 0
3, 20160, Note_on_c, 0, 50, 0
3, 20160, Note_on_c, 0, 40, 88
3, 20160, Note_on_c, 0, 43, 88
3, 20160, Note_on_c, 0, 48, 88
3, 20160, Note_on_c, 0, 52, 88
3, 20640, Note_on_c, 0, 52, 0
3, 20640, Note_on_c, 0, 40, 0
3, 20640, Note_on_c, 0, 43, 0
3, 20640, Note_on_c, 0, 48, 0
3, 20640, Note_on_c, 0, 43, 88
3, 20640, Note_on_c, 0, 47, 88
3, 20640, Note_on_c, 0, 50, 88
3, 20640, Note_on_c, 0, 55, 88
3, 21120, Note_on_c, 0, 55, 0
3, 21120, Note_on_c, 0, 43, 0
3, 21120, Note_on_c, 0, 47, 0
3, 21120, Note_on_c, 0, 50, 0
3, 21120, Note_on_c, 0, 40, 88
3, 21120, Note_on_c, 0, 43, 88
3, 21120, Note_on_c, 0, 48, 88
3, 21120, Note_on_c, 0, 52, 88
3, 21600, Note_on_c, 0, 52, 0
3, 21600, Note_on_c, 0, 40, 0
3, 21600, Note_on_c, 0, 43, 0
3, 21600, Note_on_c, 0, 48, 0
3, 21600, Note_on_c, 0, 42, 88
3, 21600, Note_on_c, 0, 45, 88
3, 21600, Note_on_c, 0, 50, 88
3, 21600, Note_on_c, 0, 54, 88
3, 22080, Note_on_c, 0, 54, 0
3, 22080, Note_on_c, 0, 42, 0
3, 22080, Note_on_c, 0, 45, 0
3, 22080, Note_on_c, 0, 50, 0
3, 22080, Note_on_c, 0, 43, 88
3, 22080, Note_on_c, 0, 47, 88
3, 22080, Note_on_c, 0, 50, 88
3, 22080, Note_on_c, 0, 55, 88
3, 22320, Note_on_c, 0, 55, 0
3, 22320, Note_on_c, 0, 43, 0
3, 22320, Note_on_c, 0, 47, 0
3, 22320, Note_on_c, 0, 50, 0
3, 22320, Note_on_c, 0, 47, 88
3, 22320, Note_on_c, 0, 50, 88
3, 22320, Note_on_c, 0, 55, 88
3, 22320, Note_on_c, 0, 59, 88
3, 22560, Note_on_c, 0, 59, 0
3, 22560, Note_on_c, 0, 47, 0
3, 22560, Note_on_c, 0, 50, 0
3, 22560, Note_on_c, 0, 55, 0
3, 22560, Note_on_c, 0, 50, 88
3, 22560, Note_on_c, 0, 54, 88
3, 22560, Note_on_c, 0, 57, 88
3, 22560, Note_on_c, 0, 62, 88
3, 23520, Note_on_c, 0, 62, 0
3, 23520, Note_on_c, 0, 50, 0
3, 23520, Note_on_c, 0, 54, 0
3, 23520, Note_on_c, 0, 57, 0
3, 23520, Note_on_c, 0, 43, 88
3, 23520, Note_on_c, 0, 47, 88
3, 23520, Note_on_c, 0, 50, 88
3, 23520, Note_on_c, 0, 55, 88
3, 24000, Note_on_c, 0, 55, 0
3, 24000, Note_on_c, 0, 43, 0
3, 24000, Note_on_c, 0, 47, 0
3, 24000, Note_on_c, 0, 50, 0
3, 24000, Note_on_c, 0, 45, 88
3, 24000, Note_on_c, 0, 48, 88
3, 24000, Note_on_c, 0, 50, 88
3, 24000, Note_on_c, 0, 57, 88
3, 24240, Note_on_c, 0, 57, 0
3, 24240, Note_on_c, 0, 45, 0
3, 24240, Note_on_c, 0, 48, 0
3, 24240, Note_on_c, 0, 50, 0
3, 24240, Note_on_c, 0, 47, 88
3, 24240, Note_on_c, 0, 50, 88
3, 24240, Note_on_c, 0, 59, 88
3, 24480, Note_on_c, 0, 59, 0
3, 24480, Note_on_c, 0, 50, 0
3, 24480, Note_on_c, 0, 47, 0
3, 24480, Note_on_c, 0, 45, 88
3, 24480, Note_on_c, 0, 48, 88
3, 24480, Note_on_c, 0, 50, 88
3, 24480, Note_on_c, 0, 57, 88
3, 25440, Note_on_c, 0, 57, 0
3, 25440, Note_on_c, 0, 45, 0
3, 25440, Note_on_c, 0, 48, 0
3, 25440, Note_on_c, 0, 50, 0
3, 25440, Note_on_c, 0, 43, 88
3, 25440, Note_on_c, 0, 47, 88
3, 25440, Note_on_c, 0, 50, 88
3, 25440, Note_on_c, 0, 55, 88
3, 25920, Note_on_c, 0, 55, 0
3, 25920, Note_on_c, 0, 43, 0
3, 25920, Note_on_c, 0, 47, 0
3, 25920, Note_on_c, 0, 50, 0
3, 25920, Note_on_c, 0, 42, 88
3, 25920, Note_on_c, 0, 45, 88
3, 25920, Note_on_c, 0, 48, 88
3, 25920, Note_on_c, 0, 54, 88
3, 26400, Note_on_c, 0, 54, 0
3, 26400, Note_on_c, 0, 42, 0
3, 26400, Note_on_c, 0, 45, 0
3, 26400, Note_on_c, 0, 48, 0
3, 26400, Note_on_c, 0, 36, 88
3, 26400, Note_on_c, 0, 48, 88
3, 26880, Note_on_c, 0, 48, 0
3, 26880, Note_on_c, 0, 36, 0
3, 26880, Note_on_c, 0, 35, 88
3, 26880, Note_on_c, 0, 47, 88
3, 27360, Note_on_c, 0, 47, 0
3, 27360, Note_on_c, 0, 35, 0
3, 27360, Note_on_c, 0, 47, 88
3, 27360, Note_on_c, 0, 51, 88
3, 27360, Note_on_c, 0, 54, 88
3, 27360, Note_on_c, 0, 59, 88
3, 27750, Note_on_c, 0, 40, 88
3, 27780, Note_on_c, 0, 43, 88
3, 27810, Note_on_c, 0, 47, 88
3, 27840, Note_on_c, 0, 59, 0
3, 27840, Note_on_c, 0, 54, 0
3, 27840, Note_on_c, 0, 47, 0
3, 27840, Note_on_c, 0, 51, 0
3, 27840, Note_on_c, 0, 52, 88
3, 28230, Note_on_c, 0, 45, 88
3, 28260, Note_on_c, 0, 48, 88
3, 28290, Note_on_c, 0, 52, 88
3, 28320, Note_on_c, 0, 52, 0
3, 28320, Note_on_c, 0, 47, 0
3, 28320, Note_on_c, 0, 43, 0
3, 28320, Note_on_c, 0, 40, 0
3, 28320, Note_on_c, 0, 57, 88
3, 28710, Note_on_c, 0, 40, 88
3, 28740, Note_on_c, 0, 43, 88
3, 28770, Note_on_c, 0, 47, 88
3, 28800, Note_on_c, 0, 57, 0
3, 28800, Note_on_c, 0, 52, 0
3, 28800, Note_on_c, 0, 48, 0
3, 28800, Note_on_c, 0, 45, 0
3, 28800, Note_on_c, 0, 52, 88
3, 29190, Note_on_c, 0, 45, 88
3, 29220, Note_on_c, 0, 48, 88
3, 29250, Note_on_c, 0, 52, 88
3, 29280, Note_on_c, 0, 52, 0
3, 29280, Note_on_c, 0, 47, 0
3, 29280, Note_on_c, 0, 43, 0
3, 29280, Note_on_c, 0, 40, 0
3, 29280, Note_on_c, 0, 57, 88
3, 29670, Note_on_c, 0, 40, 88
3, 29700, Note_on_c, 0, 43, 88
3, 29730, Note_on_c, 0, 47, 88
3, 29760, Note_on_c, 0, 57, 0
3, 29760, Note_on_c, 0, 52, 0
3, 29760, Note_on_c, 0, 48, 0
3, 29760, Note_on_c, 0, 45, 0
3, 29760, Note_on_c, 0, 52, 88
3, 30240, Note_on_c, 0, 52, 0
3, 30240, Note_on_c, 0, 43, 0
3, 30240, Note_on_c, 0, 40, 0
3, 30240, Note_on_c, 0, 47, 0
3, 30240, Note_on_c, 0, 52, 88
3, 30240, Note_on_c, 0, 55, 88
3, 30240, Note_on_c, 0, 59, 88
3, 30240, Note_on_c, 0, 64, 88
3, 30720, Note_on_c, 0, 64, 0
3, 30720, Note_on_c, 0, 52, 0
3, 30720, Note_on_c, 0, 55, 0
3, 30720, Note_on_c, 0, 59, 0
3, 31680, Note_on_c, 0, 52, 75
3, 31680, Note_on_c, 0, 55, 75
3, 31680, Note_on_c, 0, 59, 75
3, 31680, Note_on_c, 0, 64, 75
3, 31839, Note_on_c, 0, 64, 0
3, 31839, Note_on_c, 0, 52, 0
3, 31839, Note_on_c, 0, 55, 0
3, 31839, Note_on_c, 0, 59, 0
3, 31839, Note_on_c, 0, 52, 75
3, 31839, Note_on_c, 0, 55, 75
3, 31839, Note_on_c, 0, 59, 75
3, 31839, Note_on_c, 0, 64, 75
3, 32000, Note_on_c, 0, 64, 0
3, 32000, Note_on_c, 0, 52, 0
3, 32000, Note_on_c, 0, 55, 0
3, 32000, Note_on_c, 0, 59, 0
3, 32000, Note_on_c, 0, 52, 75
3, 32000, Note_on_c, 0, 55, 75
3, 32000, Note_on_c, 0, 59, 75
3, 32000, Note_on_c, 0, 64, 75
3, 32160, Note_on_c, 0, 64, 0
3, 32160, Note_on_c, 0, 52, 0
3, 32160, Note_on_c, 0, 55, 0
3, 32160, Note_on_c, 0, 59, 0
3, 32160, Note_on_c, 0, 40, 75
3, 32160, Note_on_c, 0, 52, 75
3, 32319, Note_on_c, 0, 52, 0
3, 32319, Note_on_c, 0, 40, 0
3, 32319, Note_on_c, 0, 40, 75
3, 32319, Note_on_c, 0, 52, 75
3, 32480, Note_on_c, 0, 52, 0
3, 32480, Note_on_c, 0, 40, 0
3, 32480, Note_on_c, 0, 40, 75
3, 32480, Note_on_c, 0, 52, 75
3, 32640, Note_on_c, 0, 52, 0
3, 32640, Note_on_c, 0, 40, 0
3, 32640, Note_on_c, 0, 52, 75
3, 32640, Note_on_c, 0, 54, 75
3, 32640, Note_on_c, 0, 60, 75
3, 32640, Note_on_c, 0, 64, 75
3, 32799, Note_on_c, 0, 64, 0
3, 32799, Note_on_c, 0, 52, 0
3, 32799, Note_on_c, 0, 54, 0
3, 32799, Note_on_c, 0, 60, 0
3, 32799, Note_on_c, 0, 52, 75
3, 32799, Note_on_c, 0, 54, 75
3, 32799, Note_on_c, 0, 60, 75
3, 32799, Note_on_c, 0, 64, 75
3, 32960, Note_on_c, 0, 64, 0
3, 32960, Note_on_c, 0, 52, 0
3, 32960, Note_on_c, 0, 54, 0
3, 32960, Note_on_c, 0, 60, 0
3, 32960, Note_on_c, 0, 52, 75
3, 32960, Note_on_c, 0, 54, 75
3, 32960, Note_on_c, 0, 60, 75
3, 32960, Note_on_c, 0, 64, 75
3, 33120, Note_on_c, 0, 64, 0
3, 33120, Note_on_c, 0, 52, 0
3, 33120, Note_on_c, 0, 54, 0
3, 33120, Note_on_c, 0, 60, 0
3, 33120, Note_on_c, 0, 40, 75
3, 33120, Note_on_c, 0, 52, 75
3, 33279, Note_on_c, 0, 52, 0
3, 33279, Note_on_c, 0, 40, 0
3, 33279, Note_on_c, 0, 40, 75
3, 33279, Note_on_c, 0, 52, 75
3, 33440, Note_on_c, 0, 52, 0
3, 33440, Note_on_c, 0, 40, 0
3, 33440, Note_on_c, 0, 40, 75
3, 33440, Note_on_c, 0, 52, 75
3, 33600, Note_on_c, 0, 52, 0
3, 33600, Note_on_c, 0, 40, 0
3, 33600, Note_on_c, 0, 52, 75
3, 33600, Note_on_c, 0, 55, 75
3, 33600, Note_on_c, 0, 59, 75
3, 33600, Note_on_c, 0, 64, 75
3, 34080, Note_on_c, 0, 64, 0
3, 34080, Note_on_c, 0, 52, 0
3, 34080, Note_on_c, 0, 55, 0
3, 34080, Note_on_c, 0, 59, 0
3, 34080, Control_c, 0, 64, 127
3, 34080, Note_on_c, 0, 40, 75
3, 34148, Note_on_c, 0, 40, 0
3, 34148, Note_on_c, 0, 42, 75
3, 34217, Note_on_c, 0, 42, 0
3, 34217, Note_on_c, 0, 43, 75
3, 34285, Note_on_c, 0, 43, 0
3, 34285, Note_on_c, 0, 45, 75
3, 34354, Note_on_c, 0, 45, 0
3, 34354, Note_on_c, 0, 47, 75
3, 34422, Note_on_c, 0, 47, 0
3, 34422, Note_on_c, 0, 49, 75
3, 34491, Note_on_c, 0, 49, 0
3, 34491, Note_on_c, 0, 51, 75
3, 34560, Note_on_c, 0, 51, 0
3, 34560, Note_on_c, 0, 52, 75
3, 34800, Note_on_c, 0, 52, 0
3, 34800, Control_c, 0, 64, 0
3, 35520, Note_on_c, 0, 52, 75
3, 35520, Note_on_c, 0, 55, 75
3, 35520, Note_on_c, 0, 59, 75
3, 35520, Note_on_c, 0, 64, 75
3, 35679, Note_on_c, 0, 64, 0
3, 35679, Note_on_c, 0, 52, 0
3, 35679, Note_on_c, 0, 55, 0
3, 35679, Note_on_c, 0, 59, 0
3, 35679, Note_on_c, 0, 52, 75
3, 35679, Note_on_c, 0, 55, 75
3, 35679, Note_on_c, 0, 59, 75
3, 35679, Note_on_c, 0, 64, 75
3, 35840, Note_on_c, 0, 64, 0
3, 35840, Note_on_c, 0, 52, 0
3, 35840, Note_on_c, 0, 55, 0
3, 35840, Note_on_c, 0, 59, 0
3, 35840, Note_on_c, 0, 52, 75
3, 35840, Note_on_c, 0, 55, 75
3, 35840, Note_on_c, 0, 59, 75
3, 35840, Note_on_c, 0, 64, 75
3, 36000, Note_on_c, 0, 64, 0
3, 36000, Note_on_c, 0, 52, 0
3, 36000, Note_on_c, 0, 55, 0
3, 36000, Note_on_c, 0, 59, 0
3, 36000, Note_on_c, 0, 40, 75
3, 36000, Note_on_c, 0, 52, 75
3, 36159, Note_on_c, 0, 52, 0
3, 36159, Note_on_c, 0, 40, 0
3, 36159, Note_on_c, 0, 40, 75
3, 36159, Note_on_c, 0, 52, 75
3, 36320, Note_on_c, 0, 52, 0
3, 36320, Note_on_c, 0, 40, 0
3, 36320, Note_on_c, 0, 40, 75
3, 36320, Note_on_c, 0, 52, 75
3, 36480, Note_on_c, 0, 52, 0
3, 36480, Note_on_c, 0, 40, 0
3, 36480, Note_on_c, 0, 52, 75
3, 36480, Note_on_c, 0, 54, 75
3, 36480, Note_on_c, 0, 60, 75
3, 36480, Note_on_c, 0, 64, 75
3, 36639, Note_on_c, 0, 64, 0
3, 36639, Note_on_c, 0, 52, 0
3, 36639, Note_on_c, 0, 54, 0
3, 36639, Note_on_c, 0, 60, 0
3, 36639, Note_on_c, 0, 52, 75
3, 36639, Note_on_c, 0, 54, 75
3, 36639, Note_on_c, 0, 60, 75
3, 36639, Note_on_c, 0, 64, 75
3, 36800, Note_on_c, 0, 64, 0
3, 36800, Note_on_c, 0, 52, 0
3, 36800, Note_on_c, 0, 54, 0
3, 36800, Note_on_c, 0, 60, 0
3, 36800, Note_on_c, 0, 52, 75
3, 36800, Note_on_c, 0, 54, 75
3, 36800, Note_on_c, 0, 60, 75
3, 36800, Note_on_c, 0, 64, 75
3, 36960, Note_on_c, 0, 64, 0
3, 36960, Note_on_c, 0, 52, 0
3, 36960, Note_on_c, 0, 54, 0
3, 36960, Note_on_c, 0, 60, 0
3, 36960, Note_on_c, 0, 40, 75
3, 36960, Note_on_c, 0, 52, 75
3, 37119, Note_on_c, 0, 52, 0
3, 37119, Note_on_c, 0, 40, 0
3, 37119, Note_on_c, 0, 40, 75
3, 37119, Note_on_c, 0, 52, 75
3, 37280, Note_on_c, 0, 52, 0
3, 37280, Note_on_c, 0, 40, 0
3, 37280, Note_on_c, 0, 40, 75
3, 37280, Note_on_c, 0, 52, 75
3, 37440, Note_on_c, 0, 52, 0
3, 37440, Note_on_c, 0, 40, 0
3, 54240, Control_c, 0, 64, 127
3, 54240, Note_on_c, 0, 49, 75
3, 54300, Note_on_c, 0, 49, 0
3, 54300, Note_on_c, 0, 52, 75
3, 54360, Note_on_c, 0, 52, 0
3, 54360, Note_on_c, 0, 55, 75
3, 54420, Note_on_c, 0, 55, 0
3, 54420, Note_on_c, 0, 59, 75
3, 54480, Note_on_c, 0, 59, 0
3, 54600, Control_c, 0, 64, 0
3, 54720, Control_c, 0, 64, 127
3, 54720, Note_on_c, 0, 50, 75
3, 54780, Note_on_c, 0, 50, 0
3, 54780, Note_on_c, 0, 54, 75
3, 54840, Note_on_c, 0, 54, 0
3, 54840, Note_on_c, 0, 59, 75
3, 54900, Note_on_c, 0, 59, 0
3, 54900, Note_on_c, 0, 62, 75
3, 54960, Note_on_c, 0, 62, 0
3, 55080, Control_c, 0, 64, 0
3, 58560, Control_c, 0, 64, 127
3, 58560, Note_on_c, 0, 42, 75
3, 58620, Note_on_c, 0, 42, 0
3, 58620, Note_on_c, 0, 47, 75
3, 58680, Note_on_c, 0, 47, 0
3, 58680, Note_on_c, 0, 50, 75
3, 58740, Note_on_c, 0, 50, 0
3, 58740, Note_on_c, 0, 54, 75
3, 58800, Note_on_c, 0, 54, 0
3, 58800, Note_on_c, 0, 59, 75
3, 58860, Note_on_c, 0, 59, 0
3, 58860, Note_on_c, 0, 62, 75
3, 58920, Note_on_c, 0, 62, 0
3, 58920, Note_on_c, 0, 66, 75
3, 58980, Note_on_c, 0, 66, 0
3, 58980, Control_c, 0, 64, 0
3, 58980, Note_on_c, 0, 71, 75
3, 59040, Note_on_c, 0, 71, 0
3, 59040, Control_c, 0, 64, 127
3, 59040, Note_on_c, 0, 43, 75
3, 59100, Note_on_c, 0, 43, 0
3, 59100, Note_on_c, 0, 47, 75
3, 59160, Note_on_c, 0, 47, 0
3, 59160, Note_on_c, 0, 50, 75
3, 59220, Note_on_c, 0, 50, 0
3, 59220, Note_on_c, 0, 55, 75
3, 59280, Note_on_c, 0, 55, 0
3, 59280, Note_on_c, 0, 59, 75
3, 59340, Note_on_c, 0, 59, 0
3, 59340, Note_on_c, 0, 62, 75
3, 59400, Note_on_c, 0, 62, 0
3, 59400, Note_on_c, 0, 67, 75
3, 59460, Note_on_c, 0, 67, 0
3, 59460, Control_c, 0, 64, 0
3, 59460, Note_on_c, 0, 71, 75
3, 59520, Note_on_c, 0, 71, 0
3, 59520, Control_c, 0, 64, 127
3, 59520, Note_on_c, 0, 40, 75
3, 59580, Note_on_c, 0, 40, 0
3, 59580, Note_on_c, 0, 47, 75
3, 59640, Note_on_c, 0, 47, 0
3, 59640, Note_on_c, 0, 52, 75
3, 59700, Note_on_c, 0, 52, 0
3, 59700, Note_on_c, 0, 55, 75
3, 59760, Note_on_c, 0, 55, 0
3, 59760, Note_on_c, 0, 59, 75
3, 59820, Note_on_c, 0, 59, 0
3, 59820, Note_on_c, 0, 61, 75
3, 59880, Note_on_c, 0, 61, 0
3, 59880, Note_on_c, 0, 67, 75
3, 59940, Note_on_c, 0, 67, 0
3, 59940, Control_c, 0, 64, 0
3, 59940, Note_on_c, 0, 71, 75
3, 60000, Note_on_c, 0, 71, 0
3, 60000, Control_c, 0, 64, 127
3, 60000, Note_on_c, 0, 42, 75
3, 60060, Note_on_c, 0, 42, 0
3, 60060, Note_on_c, 0, 46, 75
3, 60120, Note_on_c, 0, 46, 0
3, 60120, Note_on_c, 0, 49, 75
3, 60180, Note_on_c, 0, 49, 0
3, 60180, Note_on_c, 0, 54, 75
3, 60240, Note_on_c, 0, 54, 0
3, 60240, Note_on_c, 0, 58, 75
3, 60300, Note_on_c, 0, 58, 0
3, 60300, Note_on_c, 0, 61, 75
3, 60360, Note_on_c, 0, 61, 0
3, 60360, Note_on_c, 0, 66, 75
3, 60420, Note_on_c, 0, 66, 0
3, 60420, Control_c, 0, 64, 0
3, 60420, Note_on_c, 0, 70, 75
3, 60480, Note_on_c, 0, 70, 0
3, 60480, Control_c, 0, 64, 127
3, 60480, Note_on_c, 0, 47, 75
3, 60560, Note_on_c, 0, 47, 0
3, 60560, Note_on_c, 0, 50, 75
3, 60639, Note_on_c, 0, 50, 0
3, 60639, Note_on_c, 0, 54, 75
3, 60720, Note_on_c, 0, 54, 0
3, 60720, Note_on_c, 0, 59, 75
3, 60800, Note_on_c, 0, 59, 0
3, 60800, Note_on_c, 0, 62, 75
3, 60879, Note_on_c, 0, 62, 0
3, 60879, Note_on_c, 0, 66, 75
3, 60960, Note_on_c, 0, 66, 0
3, 60960, Note_on_c, 0, 71, 75
3, 61013, Note_on_c, 0, 71, 0
3, 61013, Note_on_c, 0, 66, 75
3, 61066, Note_on_c, 0, 66, 0
3, 61066, Note_on_c, 0, 62, 75
3, 61119, Note_on_c, 0, 62, 0
3, 61119, Note_on_c, 0, 59, 75
3, 61173, Note_on_c, 0, 59, 0
3, 61173, Note_on_c, 0, 54, 75
3, 61226, Note_on_c, 0, 54, 0
3, 61226, Note_on_c, 0, 50, 75
3, 61280, Note_on_c, 0, 50, 0
3, 61280, Note_on_c, 0, 47, 75
3, 61333, Note_on_c, 0, 47, 0
3, 61333, Note_on_c, 0, 42, 75
3, 61386, Note_on_c, 0, 42, 0
3, 61386, Note_on_c, 0, 38, 75
3, 61440, Note_on_c, 0, 38, 0
3, 61440, Control_c, 0, 64, 0
3, 61440, Note_on_c, 0, 35, 75
3, 61680, Note_on_c, 0, 35, 0
3, 65400, Note_on_c, 0, 51, 75
3, 65520, Note_on_c, 0, 51, 0
3, 65520, Note_on_c, 0, 54, 75
3, 65640, Note_on_c, 0, 54, 0
3, 65640, Note_on_c, 0, 59, 75
3, 65760, Note_on_c, 0, 59, 0
3, 65760, Note_on_c, 0, 66, 75
3, 65880, Note_on_c, 0, 66, 0
3, 66240, Note_on_c, 0, 40, 75
3, 66287, Note_on_c, 0, 40, 0
3, 66480, Note_on_c, 0, 47, 75
3, 66480, Note_on_c, 0, 55, 75
3, 66527, Note_on_c, 0, 55, 0
3, 66527, Note_on_c, 0, 47, 0
3, 66720, Note_on_c, 0, 42, 75
3, 66767, Note_on_c, 0, 42, 0
3, 66960, Note_on_c, 0, 47, 75
3, 66960, Note_on_c, 0, 57, 75
3, 67007, Note_on_c, 0, 57, 0
3, 67007, Note_on_c, 0, 47, 0
3, 67200, Note_on_c, 0, 43, 75
3, 67247, Note_on_c, 0, 43, 0
3, 67440, Note_on_c, 0, 52, 75
3, 67440, Note_on_c, 0, 59, 75
3, 67487, Note_on_c, 0, 59, 0
3, 67487, Note_on_c, 0, 52, 0
3, 67680, Note_on_c, 0, 44, 75
3, 67727, Note_on_c, 0, 44, 0
3, 67920, Note_on_c, 0, 52, 75
3, 67920, Note_on_c, 0, 59, 75
3, 67967, Note_on_c, 0, 59, 0
3, 67967, Note_on_c, 0, 52, 0
3, 68160, Note_on_c, 0, 45, 75
3, 68207, Note_on_c, 0, 45, 0
3, 68400, Note_on_c, 0, 52, 75
3, 68400, Note_on_c, 0, 57, 75
3, 68447, Note_on_c, 0, 57, 0
3, 68447, Note_on_c, 0, 52, 0
3, 68640, Note_on_c, 0, 48, 75
3, 68880, Note_on_c, 0, 48, 0
3, 68880, Note_on_c, 0, 54, 75
3, 69120, Note_on_c, 0, 54, 0
3, 69120, Control_c, 0, 64, 127
3, 69120, Note_on_c, 0, 66, 75
3, 69180, Note_on_c, 0, 66, 0
3, 69180, Note_on_c, 0, 63, 75
3, 69240, Note_on_c, 0, 63, 0
3, 69240, Note_on_c, 0, 59, 75
3, 69300, Note_on_c, 0, 59, 0
3, 69300, Note_on_c, 0, 54, 75
3, 69360, Note_on_c, 0, 54, 0
3, 69360, Note_on_c, 0, 51, 75
3, 69420, Note_on_c, 0, 51, 0
3, 69420, Note_on_c, 0, 47, 75
3, 69480, Note_on_c, 0, 47, 0
3, 69480, Note_on_c, 0, 42, 75
3, 69540, Note_on_c, 0, 42, 0
3, 69540, Note_on_c, 0, 39, 75
3, 69600, Note_on_c, 0, 39, 0
3, 69600, Note_on_c, 0, 35, 75
3, 69840, Note_on_c, 0, 35, 0
3, 69840, Control_c, 0, 64, 0
3, 73080, Note_on_c, 0, 51, 75
3, 73200, Note_on_c, 0, 51, 0
3, 73200, Note_on_c, 0, 54, 75
3, 73320, Note_on_c, 0, 54, 0
3, 73320, Note_on_c, 0, 59, 75
3, 73440, Note_on_c, 0, 59, 0
3, 73440, Note_on_c, 0, 66, 75
3, 73560, Note_on_c, 0, 66, 0
3, 73920, Note_on_c, 0, 40, 75
3, 73967, Note_on_c, 0, 40, 0
3, 74160, Note_on_c, 0, 47, 75
3, 74160, Note_on_c, 0, 55, 75
3, 74207, Note_on_c, 0, 55, 0
3, 74207, Note_on_c, 0, 47, 0
3, 74400, Note_on_c, 0, 42, 75
3, 74447, Note_on_c, 0, 42, 0
3, 74640, Note_on_c, 0, 47, 75
3, 74640, Note_on_c, 0, 57, 75
3, 74687, Note_on_c, 0, 57, 0
3, 74687, Note_on_c, 0, 47, 0
3, 74880, Note_on_c, 0, 43, 75
3, 74927, Note_on_c, 0, 43, 0
3, 75120, Note_on_c, 0, 52, 75
3, 75120, Note_on_c, 0, 59, 75
3, 75167, Note_on_c, 0, 59, 0
3, 75167, Note_on_c, 0, 52, 0
3, 75360, Note_on_c, 0, 44, 75
3, 75407, Note_on_c, 0, 44, 0
3, 75600, Note_on_c, 0, 52, 75
3, 75600, Note_on_c, 0, 59, 75
3, 75647, Note_on_c, 0, 59, 0
3, 75647, Note_on_c, 0, 52, 0
3, 75840, Note_on_c, 0, 45, 75
3, 75887, Note_on_c, 0, 45, 0
3, 76080, Note_on_c, 0, 52, 75
3, 76080, Note_on_c, 0, 57, 75
3, 76127, Note_on_c, 0, 57, 0
3, 76127, Note_on_c, 0, 52, 0
3, 76320, Note_on_c, 0, 51, 75
3, 76560, Note_on_c, 0, 51, 0
3, 76560, Note_on_c, 0, 57, 75
3, 76800, Note_on_c, 0, 57, 0
3, 76800, Note_on_c, 0, 66, 75
3, 76800, Note_on_c, 0, 74, 75
3, 76853, Note_on_c, 0, 74, 0
3, 76853, Note_on_c, 0, 66, 0
3, 76853, Note_on_c, 0, 69, 75
3, 76906, Note_on_c, 0, 69, 0
3, 76906, Note_on_c, 0, 66, 75
3, 76959, Note_on_c, 0, 66, 0
3, 76959, Note_on_c, 0, 62, 75
3, 77013, Note_on_c, 0, 62, 0
3, 77013, Note_on_c, 0, 57, 75
3, 77066, Note_on_c, 0, 57, 0
3, 77066, Note_on_c, 0, 54, 75
3, 77120, Note_on_c, 0, 54, 0
3, 77120, Note_on_c, 0, 50, 75
3, 77173, Note_on_c, 0, 50, 0
3, 77173, Note_on_c, 0, 45, 75
3, 77226, Note_on_c, 0, 45, 0
3, 77226, Note_on_c, 0, 42, 75
3, 77280, Note_on_c, 0, 42, 0
3, 77280, Note_on_c, 0, 38, 75
3, 77520, Note_on_c, 0, 38, 0
3, 77520, Control_c, 0, 64, 0
3, 80760, Note_on_c, 0, 54, 88
3, 80880, Note_on_c, 0, 54, 0
3, 80880, Note_on_c, 0, 57, 88
3, 81000, Note_on_c, 0, 57, 0
3, 81000, Note_on_c, 0, 62, 88
3, 81120, Note_on_c, 0, 62, 0
3, 81120, Note_on_c, 0, 69, 88
3, 81240, Note_on_c, 0, 69, 0
3, 81600, Note_on_c, 0, 43, 88
3, 81647, Note_on_c, 0, 43, 0
3, 81840, Note_on_c, 0, 50, 88
3, 81840, Note_on_c, 0, 58, 88
3, 81887, Note_on_c, 0, 58, 0
3, 81887, Note_on_c, 0, 50, 0
3, 82080, Note_on_c, 0, 45, 88
3, 82127, Note_on_c, 0, 45, 0
3, 82320, Note_on_c, 0, 50, 88
3, 82320, Note_on_c, 0, 60, 88
3, 82367, Note_on_c, 0, 60, 0
3, 82367, Note_on_c, 0, 50, 0
3, 82560, Note_on_c, 0, 46, 88
3, 82607, Note_on_c, 0, 46, 0
3, 82800, Note_on_c, 0, 55, 88
3, 82800, Note_on_c, 0, 62, 88
3, 82847, Note_on_c, 0, 62, 0
3, 82847, Note_on_c, 0, 55, 0
3, 83040, Note_on_c, 0, 47, 88
3, 83087, Note_on_c, 0, 47, 0
3, 83280, Note_on_c, 0, 55, 88
3, 83280, Note_on_c, 0, 62, 88
3, 83327, Note_on_c, 0, 62, 0
3, 83327, Note_on_c, 0, 55, 0
3, 83520, Note_on_c, 0, 48, 88
3, 83567, Note_on_c, 0, 48, 0
3, 83760, Note_on_c, 0, 55, 88
3, 83760, Note_on_c, 0, 60, 88
3, 83807, Note_on_c, 0, 60, 0
3, 83807, Note_on_c, 0, 55, 0
3, 84000, Note_on_c, 0, 51, 88
3, 84240, Note_on_c, 0, 51, 0
3, 84240, Note_on_c, 0, 57, 88
3, 84480, Note_on_c, 0, 57, 0
3, 84480, Control_c, 0, 64, 127
3, 84480, Note_on_c, 0, 69, 88
3, 84540, Note_on_c, 0, 69, 0
3, 84540, Note_on_c, 0, 66, 88
3, 84600, Note_on_c, 0, 66, 0
3, 84600, Note_on_c, 0, 62, 88
3, 84660, Note_on_c, 0, 62, 0
3, 84660, Note_on_c, 0, 57, 88
3, 84720, Note_on_c, 0, 57, 0
3, 84720, Note_on_c, 0, 54, 88
3, 84780, Note_on_c, 0, 54, 0
3, 84780, Note_on_c, 0, 50, 88
3, 84840, Note_on_c, 0, 50, 0
3, 84840, Note_on_c, 0, 45, 88
3, 84900, Note_on_c, 0, 45, 0
3, 84900, Note_on_c, 0, 42, 88
3, 84960, Note_on_c, 0, 42, 0
3, 84960, Note_on_c, 0, 38, 88
3, 85200, Note_on_c, 0, 38, 0
3, 85200, Control_c, 0, 64, 0
3, 88440, Note_on_c, 0, 54, 88
3, 88560, Note_on_c, 0, 54, 0
3, 88560, Note_on_c, 0, 57, 88
3, 88680, Note_on_c, 0, 57, 0
3, 88680, Note_on_c, 0, 62, 88
3, 88800, Note_on_c, 0, 62, 0
3, 88800, Note_on_c, 0, 69, 88
3, 88920, Note_on_c, 0, 69, 0
3, 89280, Note_on_c, 0, 43, 88
3, 89327, Note_on_c, 0, 43, 0
3, 89520, Note_on_c, 0, 50, 88
3, 89520, Note_on_c, 0, 58, 88
3, 89567, Note_on_c, 0, 58, 0
3, 89567, Note_on_c, 0, 50, 0
3, 89760, Note_on_c, 0, 45, 88
3, 89807, Note_on_c, 0, 45, 0
3, 90000, Note_on_c, 0, 50, 88
3, 90000, Note_on_c, 0, 60, 88
3, 90047, Note_on_c, 0, 60, 0
3, 90047, Note_on_c, 0, 50, 0
3, 90240, Note_on_c, 0, 46, 88
3, 90287, Note_on_c, 0, 46, 0
3, 90480, Note_on_c, 0, 55, 88
3, 90480, Note_on_c, 0, 62, 88
3, 90527, Note_on_c, 0, 62, 0
3, 90527, Note_on_c, 0, 55, 0
3, 90720, Note_on_c, 0, 47, 88
3, 90767, Note_on_c, 0, 47, 0
3, 90960, Note_on_c, 0, 55, 88
3, 90960, Note_on_c, 0, 62, 88
3, 91007, Note_on_c, 0, 62, 0
3, 91007, Note_on_c, 0, 55, 0
3, 91200, Note_on_c, 0, 48, 88
3, 91247, Note_on_c, 0, 48, 0
3, 91440, Note_on_c, 0, 55, 88
3, 91440, Note_on_c, 0, 60, 88
3, 91487, Note_on_c, 0, 60, 0
3, 91487, Note_on_c, 0, 55, 0
3, 91680, Note_on_c, 0, 50, 88
3, 91727, Note_on_c, 0, 50, 0
3, 91920, Note_on_c, 0, 55, 88
3, 91920, Note_on_c, 0, 59, 88
3, 91967, Note_on_c, 0, 59, 0
3, 91967, Note_on_c, 0, 55, 0
3, 92160, Note_on_c, 0, 52, 88
3, 92207, Note_on_c, 0, 52, 0
3, 92400, Note_on_c, 0, 55, 88
3, 92400, Note_on_c, 0, 60, 88
3, 92447, Note_on_c, 0, 60, 0
3, 92447, Note_on_c, 0, 55, 0
3, 92640, Note_on_c, 0, 40, 88
3, 92687, Note_on_c, 0, 40, 0
3, 92880, Note_on_c, 0, 48, 88
3, 92880, Note_on_c, 0, 55, 88
3, 92927, Note_on_c, 0, 55, 0
3, 92927, Note_on_c, 0, 48, 0
3, 93120, Note_on_c, 0, 41, 88
3, 93167, Note_on_c, 0, 41, 0
3, 93360, Note_on_c, 0, 48, 88
3, 93360, Note_on_c, 0, 57, 88
3, 93407, Note_on_c, 0, 57, 0
3, 93407, Note_on_c, 0, 48, 0
3, 93600, Note_on_c, 0, 43, 88
3, 93647, Note_on_c, 0, 43, 0
3, 93840, Note_on_c, 0, 48, 88
3, 93840, Note_on_c, 0, 58, 88
3, 93887, Note_on_c, 0, 58, 0
3, 93887, Note_on_c, 0, 48, 0
3, 94080, Note_on_c, 0, 44, 88
3, 94127, Note_on_c, 0, 44, 0
3, 94320, Note_on_c, 0, 53, 88
3, 94320, Note_on_c, 0, 60, 88
3, 94367, Note_on_c, 0, 60, 0
3, 94367, Note_on_c, 0, 53, 0
3, 94560, Note_on_c, 0, 45, 88
3, 94607, Note_on_c, 0, 45, 0
3, 94800, Note_on_c, 0, 53, 88
3, 94800, Note_on_c, 0, 60, 88
3, 94847, Note_on_c, 0, 60, 0
3, 94847, Note_on_c, 0, 53, 0
3, 95040, Note_on_c, 0, 46, 88
3, 95087, Note_on_c, 0, 46, 0
3, 95280, Note_on_c, 0, 53, 88
3, 95280, Note_on_c, 0, 58, 88
3, 95327, Note_on_c, 0, 58, 0
3, 95327, Note_on_c, 0, 53, 0
3, 95520, Note_on_c, 0, 48, 88
3, 95567, Note_on_c, 0, 48, 0
3, 95760, Note_on_c, 0, 53, 88
3, 96000, Note_on_c, 0, 50, 88
3, 96240, Note_on_c, 0, 50, 0
3, 96240, Note_on_c, 0, 53, 0
3, 96480, Note_on_c, 0, 51, 114
3, 96480, Note_on_c, 0, 53, 114
3, 96480, Note_on_c, 0, 63, 114
3, 97440, Note_on_c, 0, 63, 0
3, 97440, Note_on_c, 0, 53, 0
3, 97440, Note_on_c, 0, 51, 0
3, 97440, Note_on_c, 0, 39, 88
3, 97440, Note_on_c, 0, 41, 88
3, 97440, Note_on_c, 0, 51, 88
3, 97920, Note_on_c, 0, 51, 0
3, 97920, Note_on_c, 0, 41, 0
3, 97920, Note_on_c, 0, 39, 0
3, 97920, Note_on_c, 0, 38, 88
3, 97920, Note_on_c, 0, 41, 88
3, 97920, Note_on_c, 0, 50, 88
3, 98040, Note_on_c, 0, 50, 0
3, 98040, Note_on_c, 0, 41, 0
3, 98040, Note_on_c, 0, 38, 0
3, 98040, Note_on_c, 0, 37, 88
3, 98160, Note_on_c, 0, 37, 0
3, 98160, Note_on_c, 0, 38, 88
3, 98280, Note_on_c, 0, 38, 0
3, 98280, Note_on_c, 0, 50, 88
3, 98400, Note_on_c, 0, 50, 0
3, 98400, Note_on_c, 0, 38, 88
3, 98520, Note_on_c, 0, 38, 0
3, 98520, Note_on_c, 0, 39, 88
3, 98640, Note_on_c, 0, 39, 0
3, 98640, Note_on_c, 0, 51, 88
3, 98760, Note_on_c, 0, 51, 0
3, 98760, Note_on_c, 0, 39, 88
3, 98880, Note_on_c, 0, 39, 0
3, 98880, Note_on_c, 0, 40, 88
3, 99000, Note_on_c, 0, 40, 0
3, 99000, Note_on_c, 0, 52, 88
3, 99120, Note_on_c, 0, 52, 0
3, 99120, Note_on_c, 0, 40, 88
3, 99240, Note_on_c, 0, 40, 0
3, 99240, Note_on_c, 0, 41, 88
3, 99360, Note_on_c, 0, 41, 0
3, 99360, Note_on_c, 0, 53, 88
3, 99480, Note_on_c, 0, 53, 0
3, 99480, Note_on_c, 0, 41, 88
3, 99600, Note_on_c, 0, 41, 0
3, 99600, Note_on_c, 0, 42, 88
3, 99720, Note_on_c, 0, 42, 0
3, 99720, Note_on_c, 0, 54, 88
3, 99840, Note_on_c, 0, 54, 0
3, 99840, Note_on_c, 0, 43, 88
3, 99840, Note_on_c, 0, 46, 88
3, 99960, Note_on_c, 0, 46, 0
3, 99960, Note_on_c, 0, 43, 0
3, 99960, Note_on_c, 0, 55, 88
3, 100080, Note_on_c, 0, 55, 0
3, 100320, Note_on_c, 0, 53, 114
3, 100320, Note_on_c, 0, 55, 114
3, 100320, Note_on_c, 0, 65, 114
3, 101280, Note_on_c, 0, 65, 0
3, 101280, Note_on_c, 0, 55, 0
3, 101280, Note_on_c, 0, 53, 0
3, 101280, Note_on_c, 0, 41, 88
3, 101280, Note_on_c, 0, 43, 88
3, 101280, Note_on_c, 0, 53, 88
3, 101760, Note_on_c, 0, 53, 0
3, 101760, Note_on_c, 0, 43, 0
3, 101760, Note_on_c, 0, 41, 0
3, 101760, Note_on_c, 0, 40, 88
3, 101760, Note_on_c, 0, 43, 88
3, 101760, Note_on_c, 0, 52, 88
3, 101880, Note_on_c, 0, 52, 0
3, 101880, Note_on_c, 0, 43, 0
3, 101880, Note_on_c, 0, 40, 0
3, 101880, Note_on_c, 0, 39, 88
3, 102000, Note_on_c, 0, 39, 0
3, 102000, Note_on_c, 0, 40, 88
3, 102120, Note_on_c, 0, 40, 0
3, 102120, Note_on_c, 0, 52, 88
3, 102240, Note_on_c, 0, 52, 0
3, 102240, Note_on_c, 0, 40, 88
3, 102360, Note_on_c, 0, 40, 0
3, 102360, Note_on_c, 0, 41, 88
3, 102480, Note_on_c, 0, 41, 0
3, 102480, Note_on_c, 0, 53, 88
3, 102600, Note_on_c, 0, 53, 0
3, 102600, Note_on_c, 0, 41, 88
3, 102720, Note_on_c, 0, 41, 0
3, 102720, Note_on_c, 0, 42, 88
3, 102840, Note_on_c, 0, 42, 0
3, 102840, Note_on_c, 0, 54, 88
3, 102960, Note_on_c, 0, 54, 0
3, 102960, Note_on_c, 0, 42, 88
3, 103080, Note_on_c, 0, 42, 0
3, 103080, Note_on_c, 0, 43, 88
3, 103200, Note_on_c, 0, 43, 0
3, 103200, Note_on_c, 0, 55, 88
3, 103320, Note_on_c, 0, 55, 0
3, 103320, Note_on_c, 0, 43, 88
3, 103440, Note_on_c, 0, 43, 0
3, 103440, Note_on_c, 0, 44, 88
3, 103560, Note_on_c, 0, 44, 0
3, 103560, Note_on_c, 0, 56, 88
3, 103680, Note_on_c, 0, 56, 0
3, 103680, Note_on_c, 0, 45, 101
3, 103680, Note_on_c, 0, 48, 101
3, 103800, Note_on_c, 0, 48, 0
3, 103800, Note_on_c, 0, 45, 0
3, 103800, Note_on_c, 0, 57, 101
3, 103920, Note_on_c, 0, 57, 0
3, 104160, Note_on_c, 0, 55, 127
3, 104160, Note_on_c, 0, 57, 127
3, 104160, Note_on_c, 0, 67, 127
3, 105120, Note_on_c, 0, 67, 0
3, 105120, Note_on_c, 0, 57, 0
3, 105120, Note_on_c, 0, 55, 0
3, 105120, Note_on_c, 0, 43, 101
3, 105120, Note_on_c, 0, 45, 101
3, 105120, Note_on_c, 0, 55, 101
3, 105600, Note_on_c, 0, 55, 0
3, 105600, Note_on_c, 0, 45, 0
3, 105600, Note_on_c, 0, 43, 0
3, 105600, Note_on_c, 0, 42, 101
3, 105600, Note_on_c, 0, 45, 101
3, 105600, Note_on_c, 0, 54, 101
3, 105840, Note_on_c, 0, 54, 0
3, 105840, Note_on_c, 0, 45, 0
3, 105840, Note_on_c, 0, 42, 0
3, 106080, Note_on_c, 0, 57, 127
3, 106080, Note_on_c, 0, 59, 127
3, 106080, Note_on_c, 0, 69, 127
3, 107040, Note_on_c, 0, 69, 0
3, 107040, Note_on_c, 0, 59, 0
3, 107040, Note_on_c, 0, 57, 0
3, 107040, Note_on_c, 0, 45, 101
3, 107040, Note_on_c, 0, 47, 101
3, 107040, Note_on_c, 0, 57, 101
3, 107520, Note_on_c, 0, 57, 0
3, 107520, Note_on_c, 0, 47, 0
3, 107520, Note_on_c, 0, 45, 0
3, 107520, Note_on_c, 0, 44, 101
3, 107520, Note_on_c, 0, 47, 101
3, 107520, Note_on_c, 0, 56, 101
3, 107760, Note_on_c, 0, 56, 0
3, 107760, Note_on_c, 0, 47, 0
3, 107760, Note_on_c, 0, 44, 0
3, 108000, Note_on_c, 0, 47, 127
3, 108000, Note_on_c, 0, 49, 127
3, 108000, Note_on_c, 0, 59, 127
3, 108480, Note_on_c, 0, 59, 0
3, 108480, Note_on_c, 0, 49, 0
3, 108480, Note_on_c, 0, 47, 0
3, 108480, Note_on_c, 0, 46, 101
3, 108480, Note_on_c, 0, 49, 101
3, 108480, Note_on_c, 0, 58, 101
3, 108960, Note_on_c, 0, 58, 0
3, 108960, Note_on_c, 0, 49, 0
3, 108960, Note_on_c, 0, 46, 0
3, 108960, Note_on_c, 0, 49, 127
3, 108960, Note_on_c, 0, 51, 127
3, 108960, Note_on_c, 0, 61, 127
3, 109440, Note_on_c, 0, 61, 0
3, 109440, Note_on_c, 0, 51, 0
3, 109440, Note_on_c, 0, 49, 0
3, 109440, Note_on_c, 0, 48, 101
3, 109440, Note_on_c, 0, 51, 101
3, 109440, Note_on_c, 0, 60, 101
3, 109920, Note_on_c, 0, 60, 0
3, 109920, Note_on_c, 0, 51, 0
3, 109920, Note_on_c, 0, 48, 0
3, 109920, Note_on_c, 0, 51, 127
3, 109920, Note_on_c, 0, 53, 127
3, 109920, Note_on_c, 0, 63, 127
3, 110400, Note_on_c, 0, 63, 0
3, 110400, Note_on_c, 0, 53, 0
3, 110400, Note_on_c, 0, 51, 0
3, 110400, Note_on_c, 0, 50, 101
3, 110400, Note_on_c, 0, 53, 101
3, 110400, Note_on_c, 0, 62, 101
3, 110880, Note_on_c, 0, 62, 0
3, 110880, Note_on_c, 0, 53, 0
3, 110880, Note_on_c, 0, 50, 0
3, 110880, Note_on_c, 0, 52, 127
3, 110880, Note_on_c, 0, 54, 127
3, 110880, Note_on_c, 0, 64, 127
3, 111360, Note_on_c, 0, 64, 0
3, 111360, Note_on_c, 0, 54, 0
3, 111360, Note_on_c, 0, 52, 0
3, 111360, Note_on_c, 0, 51, 101
3, 111360, Note_on_c, 0, 54, 101
3, 111360, Note_on_c, 0, 63, 101
3, 111840, Note_on_c, 0, 63, 0
3, 111840, Note_on_c, 0, 54, 0
3, 111840, Note_on_c, 0, 51, 0
3, 111840, Note_on_c, 0, 39, 127
3, 111840, Note_on_c, 0, 42, 127
3, 111840, Note_on_c, 0, 51, 127
3, 112800, Note_on_c, 0, 51, 0
3, 112800, Note_on_c, 0, 42, 0
3, 112800, Note_on_c, 0, 39, 0
3, 112800, Note_on_c, 0, 51, 101
3, 112800, Note_on_c, 0, 54, 101
3, 112800, Note_on_c, 0, 63, 101
3, 113280, Note_on_c, 0, 63, 0
3, 113280, Note_on_c, 0, 54, 0
3, 113280, Note_on_c, 0, 51, 0
3, 113280, Note_on_c, 0, 51, 101
3, 113280, Note_on_c, 0, 54, 101
3, 113280, Note_on_c, 0, 63, 101
3, 113760, Note_on_c, 0, 63, 0
3, 113760, Note_on_c, 0, 54, 0
3, 113760, Note_on_c, 0, 51, 0
3, 113760, Note_on_c, 0, 39, 127
3, 113760, Note_on_c, 0, 42, 127
3, 113760, Note_on_c, 0, 51, 127
3, 114720, Note_on_c, 0, 51, 0
3, 114720, Note_on_c, 0, 42, 0
3, 114720, Note_on_c, 0, 39, 0
3, 114720, Note_on_c, 0, 51, 101
3, 114720, Note_on_c, 0, 54, 101
3, 114720, Note_on_c, 0, 63, 101
3, 115200, Note_on_c, 0, 63, 0
3, 115200, Note_on_c, 0, 54, 0
3, 115200, Note_on_c, 0, 51, 0
3, 115200, Note_on_c, 0, 51, 101
3, 115200, Note_on_c, 0, 55, 101
3, 115200, Note_on_c, 0, 63, 101
3, 115680, Note_on_c, 0, 63, 0
3, 115680, Note_on_c, 0, 55, 0
3, 115680, Note_on_c, 0, 51, 0
3, 115680, Note_on_c, 0, 39, 127
3, 115680, Note_on_c, 0, 43, 127
3, 115680, Note_on_c, 0, 51, 127
3, 116640, Note_on_c, 0, 51, 0
3, 116640, Note_on_c, 0, 43, 0
3, 116640, Note_on_c, 0, 39, 0
3, 116640, Note_on_c, 0, 51, 101
3, 116640, Note_on_c, 0, 55, 101
3, 116640, Note_on_c, 0, 63, 101
3, 117120, Note_on_c, 0, 63, 0
3, 117120, Note_on_c, 0, 55, 0
3, 117120, Note_on_c, 0, 51, 0
3, 117120, Note_on_c, 0, 46, 101
3, 117120, Note_on_c, 0, 51, 101
3, 117120, Note_on_c, 0, 58, 101
3, 117600, Note_on_c, 0, 58, 0
3, 117600, Note_on_c, 0, 51, 0
3, 117600, Note_on_c, 0, 46, 0
3, 117600, Note_on_c, 0, 43, 101
3, 117600, Note_on_c, 0, 46, 101
3, 117600, Note_on_c, 0, 51, 101
3, 117600, Note_on_c, 0, 55, 101
3, 118080, Note_on_c, 0, 55, 0
3, 118080, Note_on_c, 0, 43, 0
3, 118080, Note_on_c, 0, 46, 0
3, 118080, Note_on_c, 0, 51, 0
3, 118080, Note_on_c, 0, 39, 101
3, 118080, Note_on_c, 0, 43, 101
3, 118080, Note_on_c, 0, 46, 101
3, 118080, Note_on_c, 0, 51, 101
3, 118560, Note_on_c, 0, 51, 0
3, 118560, Note_on_c, 0, 39, 0
3, 118560, Note_on_c, 0, 43, 0
3, 118560, Note_on_c, 0, 46, 0
3, 118560, Note_on_c, 0, 51, 101
3, 118560, Note_on_c, 0, 55, 101
3, 118560, Note_on_c, 0, 57, 101
3, 118560, Note_on_c, 0, 63, 101
3, 119040, Note_on_c, 0, 63, 0
3, 119040, Note_on_c, 0, 51, 0
3, 119040, Note_on_c, 0, 55, 0
3, 119040, Note_on_c, 0, 57, 0
3, 119040, Note_on_c, 0, 50, 101
3, 119040, Note_on_c, 0, 54, 101
3, 119040, Note_on_c, 0, 57, 101
3, 119040, Note_on_c, 0, 62, 101
3, 119520, Note_on_c, 0, 62, 0
3, 119520, Note_on_c, 0, 50, 0
3, 119520, Note_on_c, 0, 54, 0
3, 119520, Note_on_c, 0, 57, 0
3, 119520, Note_on_c, 0, 75, 127
3, 119520, Note_on_c, 0, 81, 127
3, 119760, Note_on_c, 0, 81, 0
3, 119760, Note_on_c, 0, 75, 0
3, 119760, Note_on_c, 0, 87, 101
3, 120000, Note_on_c, 0, 87, 0
3, 120000, Note_on_c, 0, 74, 101
3, 120000, Note_on_c, 0, 81, 101
3, 120240, Note_on_c, 0, 81, 0
3, 120240, Note_on_c, 0, 74, 0
3, 120240, Note_on_c, 0, 86, 101
3, 120480, Note_on_c, 0, 86, 0
3, 120480, Note_on_c, 0, 70, 101
3, 120480, Note_on_c, 0, 76, 101
3, 120480, Note_on_c, 0, 79, 101
3, 120720, Note_on_c, 0, 79, 0
3, 120720, Note_on_c, 0, 76, 0
3, 120720, Note_on_c, 0, 70, 0
3, 120720, Note_on_c, 0, 82, 101
3, 120960, Note_on_c, 0, 82, 0
3, 120960, Note_on_c, 0, 69, 101
3, 120960, Note_on_c, 0, 74, 101
3, 120960, Note_on_c, 0, 78, 101
3, 121200, Note_on_c, 0, 78, 0
3, 121200, Note_on_c, 0, 74, 0
3, 121200, Note_on_c, 0, 69, 0
3, 121200, Note_on_c, 0, 81, 101
3, 121440, Note_on_c, 0, 81, 0
3, 121440, Note_on_c, 0, 63, 127
3, 121440, Note_on_c, 0, 69, 127
3, 121680, Note_on_c, 0, 69, 0
3, 121680, Note_on_c, 0, 63, 0
3, 121680, Note_on_c, 0, 75, 101
3, 121920, Note_on_c, 0, 75, 0
3, 121920, Note_on_c, 0, 62, 101
3, 121920, Note_on_c, 0, 69, 101
3, 122160, Note_on_c, 0, 69, 0
3, 122160, Note_on_c, 0, 62, 0
3, 122160, Note_on_c, 0, 74, 101
3, 122400, Note_on_c, 0, 74, 0
3, 122400, Note_on_c, 0, 58, 101
3, 122400, Note_on_c, 0, 64, 101
3, 122400, Note_on_c, 0, 67, 101
3, 122640, Note_on_c, 0, 67, 0
3, 122640, Note_on_c, 0, 64, 0
3, 122640, Note_on_c, 0, 58, 0
3, 122640, Note_on_c, 0, 70, 101
3, 122880, Note_on_c, 0, 70, 0
3, 122880, Note_on_c, 0, 57, 101
3, 122880, Note_on_c, 0, 62, 101
3, 122880, Note_on_c, 0, 66, 101
3, 123120, Note_on_c, 0, 66, 0
3, 123120, Note_on_c, 0, 62, 0
3, 123120, Note_on_c, 0, 57, 0
3, 123120, Note_on_c, 0, 69, 101
3, 123360, Note_on_c, 0, 69, 0
3, 123360, Note_on_c, 0, 51, 127
3, 123360, Note_on_c, 0, 57, 127
3, 123600, Note_on_c, 0, 57, 0
3, 123600, Note_on_c, 0, 51, 0
3, 123600, Note_on_c, 0, 63, 101
3, 123840, Note_on_c, 0, 63, 0
3, 123840, Note_on_c, 0, 50, 101
3, 123840, Note_on_c, 0, 57, 101
3, 124080, Note_on_c, 0, 57, 0
3, 124080, Note_on_c, 0, 50, 0
3, 124080, Note_on_c, 0, 62, 101
3, 124320, Note_on_c, 0, 62, 0
3, 124320, Note_on_c, 0, 46, 101
3, 124320, Note_on_c, 0, 52, 101
3, 124320, Note_on_c, 0, 55, 101
3, 124560, Note_on_c, 0, 55, 0
3, 124560, Note_on_c, 0, 52, 0
3, 124560, Note_on_c, 0, 46, 0
3, 124560, Note_on_c, 0, 58, 101
3, 124800, Note_on_c, 0, 58, 0
3, 124800, Note_on_c, 0, 45, 101
3, 124800, Note_on_c, 0, 50, 101
3, 124800, Note_on_c, 0, 54, 101
3, 125040, Note_on_c, 0, 54, 0
3, 125040, Note_on_c, 0, 50, 0
3, 125040, Note_on_c, 0, 45, 0
3, 125040, Note_on_c, 0, 57, 101
3, 125280, Note_on_c, 0, 57, 0
3, 125280, Note_on_c, 0, 39, 127
3, 125280, Note_on_c, 0, 45, 127
3, 125520, Note_on_c, 0, 45, 0
3, 125520, Note_on_c, 0, 39, 0
3, 125520, Note_on_c, 0, 51, 101
3, 125760, Note_on_c, 0, 51, 0
3, 125760, Note_on_c, 0, 38, 88
3, 125760, Note_on_c, 0, 45, 88
3, 126000, Note_on_c, 0, 45, 0
3, 126000, Note_on_c, 0, 38, 0
3, 126000, Note_on_c, 0, 50, 88
3, 126240, Note_on_c, 0, 50, 0
3, 126240, Note_on_c, 0, 34, 88
3, 126240, Note_on_c, 0, 40, 88
3, 126240, Note_on_c, 0, 43, 88
3, 126480, Note_on_c, 0, 43, 0
3, 126480, Note_on_c, 0, 40, 0
3, 126480, Note_on_c, 0, 34, 0
3, 126480, Note_on_c, 0, 46, 88
3, 126720, Note_on_c, 0, 46, 0
3, 126720, Note_on_c, 0, 33, 88
3, 126720, Note_on_c, 0, 38, 88
3, 126720, Note_on_c, 0, 42, 88
3, 126960, Note_on_c, 0, 42, 0
3, 126960, Note_on_c, 0, 38, 0
3, 126960, Note_on_c, 0, 33, 0
3, 126960, Note_on_c, 0, 45, 88
3, 127200, Note_on_c, 0, 45, 0
3, 127200, Note_on_c, 0, 39, 114
3, 127200, Note_on_c, 0, 45, 114
3, 127440, Note_on_c, 0, 45, 0
3, 127440, Note_on_c, 0, 39, 0
3, 127440, Note_on_c, 0, 51, 88
3, 127680, Note_on_c, 0, 51, 0
3, 127680, Note_on_c, 0, 38, 88
3, 127680, Note_on_c, 0, 45, 88
3, 127920, Note_on_c, 0, 45, 0
3, 127920, Note_on_c, 0, 38, 0
3, 127920, Note_on_c, 0, 50, 88
3, 128160, Note_on_c, 0, 50, 0
3, 128160, Note_on_c, 0, 34, 88
3, 128160, Note_on_c, 0, 40, 88
3, 128160, Note_on_c, 0, 43, 88
3, 128400, Note_on_c, 0, 43, 0
3, 128400, Note_on_c, 0, 40, 0
3, 128400, Note_on_c, 0, 34, 0
3, 128400, Note_on_c, 0, 46, 88
3, 128640, Note_on_c, 0, 46, 0
3, 128640, Note_on_c, 0, 33, 88
3, 128640, Note_on_c, 0, 38, 88
3, 128640, Note_on_c, 0, 42, 88
3, 128880, Note_on_c, 0, 42, 0
3, 128880, Note_on_c, 0, 38, 0
3, 128880, Note_on_c, 0, 33, 0
3, 128880, Note_on_c, 0, 45, 88
3, 129120, Note_on_c, 0, 45, 0
3, 129120, Note_on_c, 0, 39, 114
3, 129120, Note_on_c, 0, 45, 114
3, 129360, Note_on_c, 0, 45, 0
3, 129360, Note_on_c, 0, 39, 0
3, 129360, Note_on_c, 0, 51, 88
3, 129600, Note_on_c, 0, 51, 0
3, 129600, Note_on_c, 0, 38, 88
3, 129600, Note_on_c, 0, 45, 88
3, 129840, Note_on_c, 0, 45, 0
3, 129840, Note_on_c, 0, 38, 0
3, 129840, Note_on_c, 0, 50, 88
3, 130080, Note_on_c, 0, 50, 0
3, 130080, Note_on_c, 0, 39, 114
3, 130080, Note_on_c, 0, 45, 114
3, 130320, Note_on_c, 0, 45, 0
3, 130320, Note_on_c, 0, 39, 0
3, 130320, Note_on_c, 0, 51, 88
3, 130560, Note_on_c, 0, 51, 0
3, 130560, Note_on_c, 0, 38, 88
3, 130560, Note_on_c, 0, 45, 88
3, 130800, Note_on_c, 0, 45, 0
3, 130800, Note_on_c, 0, 38, 0
3, 130800, Note_on_c, 0, 50, 88
3, 131040, Note_on_c, 0, 50, 0
3, 131040, Note_on_c, 0, 39, 114
3, 131040, Note_on_c, 0, 45, 114
3, 131280, Note_on_c, 0, 45, 0
3, 131280, Note_on_c, 0, 39, 0
3, 131280, Note_on_c, 0, 51, 88
3, 131520, Note_on_c, 0, 51, 0
3, 131520, Note_on_c, 0, 38, 88
3, 131520, Note_on_c, 0, 45, 88
3, 131760, Note_on_c, 0, 45, 0
3, 131760, Note_on_c, 0, 38, 0
3, 131760, Note_on_c, 0, 50, 88
3, 132000, Note_on_c, 0, 50, 0
3, 132000, Note_on_c, 0, 39, 114
3, 132000, Note_on_c, 0, 45, 114
3, 132240, Note_on_c, 0, 45, 0
3, 132240, Note_on_c, 0, 39, 0
3, 132240, Note_on_c, 0, 51, 88
3, 132480, Note_on_c, 0, 51, 0
3, 132480, Note_on_c, 0, 38, 88
3, 132480, Note_on_c, 0, 45, 88
3, 132720, Note_on_c, 0, 45, 0
3, 132720, Note_on_c, 0, 38, 0
3, 132720, Note_on_c, 0, 50, 88
3, 132960, Note_on_c, 0, 50, 0
3, 132960, Note_on_c, 0, 39, 114
3, 132960, Note_on_c, 0, 45, 114
3, 133200, Note_on_c, 0, 45, 0
3, 133200, Note_on_c, 0, 39, 0
3, 133200, Note_on_c, 0, 51, 88
3, 133440, Note_on_c, 0, 51, 0
3, 133440, Note_on_c, 0, 38, 88
3, 133440, Note_on_c, 0, 45, 88
3, 133680, Note_on_c, 0, 45, 0
3, 133680, Note_on_c, 0, 38, 0
3, 133680, Note_on_c, 0, 50, 88
3, 133920, Note_on_c, 0, 50, 0
3, 133920, Note_on_c, 0, 38, 114
3, 133920, Note_on_c, 0, 42, 114
3, 133920, Note_on_c, 0, 45, 114
3, 134160, Note_on_c, 0, 45, 0
3, 134160, Note_on_c, 0, 42, 0
3, 134160, Note_on_c, 0, 38, 0
3, 134160, Note_on_c, 0, 50, 88
3, 134400, Note_on_c, 0, 50, 0
3, 134400, Note_on_c, 0, 38, 114
3, 134400, Note_on_c, 0, 42, 114
3, 134400, Note_on_c, 0, 45, 114
3, 134640, Note_on_c, 0, 45, 0
3, 134640, Note_on_c, 0, 42, 0
3, 134640, Note_on_c, 0, 38, 0
3, 134640, Note_on_c, 0, 50, 88
3, 134880, Note_on_c, 0, 50, 0
3, 134880, Note_on_c, 0, 38, 114
3, 134880, Note_on_c, 0, 42, 114
3, 134880, Note_on_c, 0, 45, 114
3, 135120, Note_on_c, 0, 45, 0
3, 135120, Note_on_c, 0, 42, 0
3, 135120, Note_on_c, 0, 38, 0
3, 135120, Note_on_c, 0, 50, 88
3, 135360, Note_on_c, 0, 50, 0
3, 135360, Note_on_c, 0, 38, 114
3, 135360, Note_on_c, 0, 42, 114
3, 135360, Note_on_c, 0, 45, 114
3, 135600, Note_on_c, 0, 45, 0
3, 135600, Note_on_c, 0, 42, 0
3, 135600, Note_on_c, 0, 38, 0
3, 135600, Note_on_c, 0, 50, 88
3, 135840, Note_on_c, 0, 50, 0
3, 135840, Note_on_c, 0, 38, 114
3, 135840, Note_on_c, 0, 42, 114
3, 135840, Note_on_c, 0, 45, 114
3, 136080, Note_on_c, 0, 45, 0
3, 136080, Note_on_c, 0, 42, 0
3, 136080, Note_on_c, 0, 38, 0
3, 136080, Note_on_c, 0, 50, 88
3, 136320, Note_on_c, 0, 50, 0
3, 136320, Note_on_c, 0, 38, 114
3, 136320, Note_on_c, 0, 42, 114
3, 136320, Note_on_c, 0, 45, 114
3, 136560, Note_on_c, 0, 45, 0
3, 136560, Note_on_c, 0, 42, 0
3, 136560, Note_on_c, 0, 38, 0
3, 136560, Note_on_c, 0, 50, 88
3, 136800, Note_on_c, 0, 50, 0
3, 136800, Note_on_c, 0, 38, 114
3, 136800, Note_on_c, 0, 42, 114
3, 136800, Note_on_c, 0, 45, 114
3, 137040, Note_on_c, 0, 45, 0
3, 137040, Note_on_c, 0, 42, 0
3, 137040, Note_on_c, 0, 38, 0
3, 137040, Note_on_c, 0, 50, 88
3, 137280, Note_on_c, 0, 50, 0
3, 137280, Note_on_c, 0, 38, 114
3, 137280, Note_on_c, 0, 42, 114
3, 137280, Note_on_c, 0, 45, 114
3, 137520, Note_on_c, 0, 45, 0
3, 137520, Note_on_c, 0, 42, 0
3, 137520, Note_on_c, 0, 38, 0
3, 137520, Note_on_c, 0, 50, 88
3, 137760, Note_on_c, 0, 50, 0
3, 137760, Note_on_c, 0, 38, 114
3, 137760, Note_on_c, 0, 42, 114
3, 137760, Note_on_c, 0, 45, 114
3, 138000, Note_on_c, 0, 45, 0
3, 138000, Note_on_c, 0, 42, 0
3, 138000, Note_on_c, 0, 38, 0
3, 138000, Note_on_c, 0, 50, 88
3, 138240, Note_on_c, 0, 50, 0
3, 138240, Note_on_c, 0, 38, 114
3, 138240, Note_on_c, 0, 42, 114
3, 138240, Note_on_c, 0, 45, 114
3, 138480, Note_on_c, 0, 45, 0
3, 138480, Note_on_c, 0, 42, 0
3, 138480, Note_on_c, 0, 38, 0
3, 138480, Note_on_c, 0, 50, 88
3, 138720, Note_on_c, 0, 50, 0
3, 138720, Note_on_c, 0, 38, 114
3, 138720, Note_on_c, 0, 42, 114
3, 138720, Note_on_c, 0, 45, 114
3, 138960, Note_on_c, 0, 45, 0
3, 138960, Note_on_c, 0, 42, 0
3, 138960, Note_on_c, 0, 38, 0
3, 138960, Note_on_c, 0, 50, 88
3, 139200, Note_on_c, 0, 50, 0
3, 139200, Note_on_c, 0, 38, 88
3, 139200, Note_on_c, 0, 42, 88
3, 139200, Note_on_c, 0, 45, 88
3, 139200, Note_on_c, 0, 50, 88
3, 139680, Note_on_c, 0, 50, 0
3, 139680, Note_on_c, 0, 38, 0
3, 139680, Note_on_c, 0, 42, 0
3, 139680, Note_on_c, 0, 45, 0
3, 139680, Note_on_c, 0, 38, 88
3, 139680, Note_on_c, 0, 42, 88
3, 139680, Note_on_c, 0, 45, 88
3, 139680, Note_on_c, 0, 50, 88
3, 140160, Note_on_c, 0, 50, 0
3, 140160, Note_on_c, 0, 38, 0
3, 140160, Note_on_c, 0, 42, 0
3, 140160, Note_on_c, 0, 45, 0
3, 140160, Note_on_c, 0, 38, 88
3, 140160, Note_on_c, 0, 42, 88
3, 140160, Note_on_c, 0, 45, 88
3, 140160, Note_on_c, 0, 50, 88
3, 140640, Note_on_c, 0, 50, 0
3, 140640, Note_on_c, 0, 38, 0
3, 140640, Note_on_c, 0, 42, 0
3, 140640, Note_on_c, 0, 45, 0
3, 140640, Note_on_c, 0, 38, 88
3, 140640, Note_on_c, 0, 42, 88
3, 140640, Note_on_c, 0, 45, 88
3, 140640, Note_on_c, 0, 50, 88
3, 141120, Note_on_c, 0, 50, 0
3, 141120, Note_on_c, 0, 38, 0
3, 141120, Note_on_c, 0, 42, 0
3, 141120, Note_on_c, 0, 45, 0
3, 141120, Note_on_c, 0, 38, 88
3, 141120, Note_on_c, 0, 42, 88
3, 141120, Note_on_c, 0, 45, 88
3, 141120, Note_on_c, 0, 50, 88
3, 141440, Note_on_c, 0, 50, 0
3, 141440, Note_on_c, 0, 38, 0
3, 141440, Note_on_c, 0, 42, 0
3, 141440, Note_on_c, 0, 45, 0
3, 141440, Note_on_c, 0, 38, 88
3, 141440, Note_on_c, 0, 42, 88
3, 141440, Note_on_c, 0, 45, 88
3, 141440, Note_on_c, 0, 50, 88
3, 141759, Note_on_c, 0, 50, 0
3, 141759, Note_on_c, 0, 38, 0
3, 141759, Note_on_c, 0, 42, 0
3, 141759, Note_on_c, 0, 45, 0
3, 141759, Note_on_c, 0, 38, 88
3, 141759, Note_on_c, 0, 42, 88
3, 141759, Note_on_c, 0, 45, 88
3, 141759, Note_on_c, 0, 50, 88
3, 142080, Note_on_c, 0, 50, 0
3, 142080, Note_on_c, 0, 38, 0
3, 142080, Note_on_c, 0, 42, 0
3, 142080, Note_on_c, 0, 45, 0
3, 142080, Note_on_c, 0, 38, 88
3, 142080, Note_on_c, 0, 42, 88
3, 142080, Note_on_c, 0, 45, 88
3, 142080, Note_on_c, 0, 50, 88
3, 142400, Note_on_c, 0, 50, 0
3, 142400, Note_on_c, 0, 38, 0
3, 142400, Note_on_c, 0, 42, 0
3, 142400, Note_on_c, 0, 45, 0
3, 142400, Note_on_c, 0, 38, 88
3, 142400, Note_on_c, 0, 42, 88
3, 142400, Note_on_c, 0, 45, 88
3, 142400, Note_on_c, 0, 50, 88
3, 142719, Note_on_c, 0, 50, 0
3, 142719, Note_on_c, 0, 38, 0
3, 142719, Note_on_c, 0, 42, 0
3, 142719, Note_on_c, 0, 45, 0
3, 142719, Note_on_c, 0, 38, 88
3, 142719, Note_on_c, 0, 42, 88
3, 142719, Note_on_c, 0, 45, 88
3, 142719, Note_on_c, 0, 50, 88
3, 143040, Note_on_c, 0, 50, 0
3, 143040, Note_on_c, 0, 38, 0
3, 143040, Note_on_c, 0, 42, 0
3, 143040, Note_on_c, 0, 45, 0
3, 143040, Note_on_c, 0, 38, 88
3, 143040, Note_on_c, 0, 42, 88
3, 143040, Note_on_c, 0, 45, 88
3, 143040, Note_on_c, 0, 50, 88
3, 144480, Note_on_c, 0, 50, 0
3, 144480, Note_on_c, 0, 38, 0
3, 144480, Note_on_c, 0, 42, 0
3, 144480, Note_on_c, 0, 45, 0
3, 144480, Note_on_c, 0, 38, 88
3, 144480, Note_on_c, 0, 42, 88
3, 144480, Note_on_c, 0, 45, 88
3, 144480, Note_on_c, 0, 50, 88
3, 144960, Note_on_c, 0, 50, 0
3, 144960, Note_on_c, 0, 38, 0
3, 144960, Note_on_c, 0, 42, 0
3, 144960, Note_on_c, 0, 45, 0
3, 144960, Note_on_c, 0, 38, 88
3, 144960, Note_on_c, 0, 42, 88
3, 144960, Note_on_c, 0, 45, 88
3, 144960, Note_on_c, 0, 50, 88
3, 147840, Note_on_c, 0, 50, 0
3, 147840, Note_on_c, 0, 38, 0
3, 147840, Note_on_c, 0, 42, 0
3, 147840, Note_on_c, 0, 45, 0
3, 168960, Note_on_c, 0, 51, 49
3, 168960, Note_on_c, 0, 58, 49
3, 168960, Note_on_c, 0, 68, 49
3, 168960, Note_on_c, 0, 70, 49
3, 170880, Note_on_c, 0, 70, 0
3, 170880, Note_on_c, 0, 51, 0
3, 170880, Note_on_c, 0, 58, 0
3, 170880, Note_on_c, 0, 68, 0
3, 170880, Control_c, 0, 64, 127
3, 170880, Note_on_c, 0, 58, 49
3, 170880, Note_on_c, 0, 62, 49
3, 171360, Note_on_c, 0, 62, 0
3, 171360, Note_on_c, 0, 58, 0
3, 171360, Note_on_c, 0, 65, 49
3, 171840, Note_on_c, 0, 65, 0
3, 171840, Note_on_c, 0, 62, 49
3, 172320, Note_on_c, 0, 62, 0
3, 172320, Note_on_c, 0, 60, 49
3, 172560, Note_on_c, 0, 60, 0
3, 172560, Control_c, 0, 64, 0
3, 172560, Note_on_c, 0, 62, 49
3, 172800, Note_on_c, 0, 62, 0
3, 172800, Note_on_c, 0, 51, 49
3, 172800, Note_on_c, 0, 58, 49
3, 173760, Note_on_c, 0, 58, 0
3, 173760, Note_on_c, 0, 51, 0
3, 173760, Control_c, 0, 64, 127
3, 173760, Note_on_c, 0, 55, 49
3, 174000, Note_on_c, 0, 55, 0
3, 174000, Note_on_c, 0, 58, 49
3, 174240, Note_on_c, 0, 58, 0
3, 174240, Note_on_c, 0, 63, 62
3, 174480, Note_on_c, 0, 63, 0
3, 174480, Control_c, 0, 64, 0
3, 174480, Note_on_c, 0, 67, 62
3, 174720, Note_on_c, 0, 67, 0
3, 174720, Note_on_c, 0, 51, 62
3, 174720, Note_on_c, 0, 58, 62
3, 176640, Note_on_c, 0, 58, 0
3, 176640, Note_on_c, 0, 51, 0
3, 176640, Note_on_c, 0, 51, 49
3, 176640, Note_on_c, 0, 58, 49
3, 176640, Note_on_c, 0, 68, 49
3, 176640, Note_on_c, 0, 70, 49
3, 178560, Note_on_c, 0, 70, 0
3, 178560, Note_on_c, 0, 51, 0
3, 178560, Note_on_c, 0, 58, 0
3, 178560, Note_on_c, 0, 68, 0
3, 178560, Control_c, 0, 64, 127
3, 178560, Note_on_c, 0, 58, 49
3, 178560, Note_on_c, 0, 62, 49
3, 179040, Note_on_c, 0, 62, 0
3, 179040, Note_on_c, 0, 58, 0
3, 179040, Note_on_c, 0, 65, 49
3, 179520, Note_on_c, 0, 65, 0
3, 179520, Note_on_c, 0, 62, 49
3, 180000, Note_on_c, 0, 62, 0
3, 180000, Note_on_c, 0, 60, 49
3, 180240, Note_on_c, 0, 60, 0
3, 180240, Control_c, 0, 64, 0
3, 180240, Note_on_c, 0, 62, 49
3, 180480, Note_on_c, 0, 62, 0
3, 180480, Note_on_c, 0, 51, 49
3, 180480, Note_on_c, 0, 58, 49
3, 181440, Note_on_c, 0, 58, 0
3, 181440, Note_on_c, 0, 51, 0
3, 181440, Control_c, 0, 64, 127
3, 181440, Note_on_c, 0, 51, 49
3, 181440, Note_on_c, 0, 57, 49
3, 181680, Note_on_c, 0, 57, 0
3, 181680, Note_on_c, 0, 51, 0
3, 181680, Note_on_c, 0, 54, 49
3, 181920, Note_on_c, 0, 54, 0
3, 181920, Note_on_c, 0, 57, 62
3, 182160, Note_on_c, 0, 57, 0
3, 182160, Control_c, 0, 64, 0
3, 182160, Note_on_c, 0, 60, 62
3, 182400, Note_on_c, 0, 60, 0
3, 182400, Note_on_c, 0, 51, 88
3, 182400, Note_on_c, 0, 63, 88
3, 183120, Note_on_c, 0, 63, 0
3, 183120, Note_on_c, 0, 51, 0
3, 183120, Note_on_c, 0, 58, 62
3, 183360, Note_on_c, 0, 58, 0
3, 183360, Note_on_c, 0, 51, 62
3, 183360, Note_on_c, 0, 57, 62
3, 183600, Note_on_c, 0, 57, 0
3, 183600, Note_on_c, 0, 51, 0
3, 183600, Note_on_c, 0, 60, 62
3, 183840, Note_on_c, 0, 60, 0
3, 183840, Note_on_c, 0, 51, 62
3, 183840, Note_on_c, 0, 55, 62
3, 184320, Note_on_c, 0, 55, 0
3, 184320, Note_on_c, 0, 51, 0
3, 184320, Note_on_c, 0, 51, 49
3, 184320, Note_on_c, 0, 58, 49
3, 184320, Note_on_c, 0, 68, 49
3, 184320, Note_on_c, 0, 70, 49
3, 186240, Note_on_c, 0, 70, 0
3, 186240, Note_on_c, 0, 51, 0
3, 186240, Note_on_c, 0, 58, 0
3, 186240, Note_on_c, 0, 68, 0
3, 186240, Control_c, 0, 64, 127
3, 186240, Note_on_c, 0, 58, 49
3, 186240, Note_on_c, 0, 62, 49
3, 186720, Note_on_c, 0, 62, 0
3, 186720, Note_on_c, 0, 58, 0
3, 186720, Note_on_c, 0, 65, 49
3, 187200, Note_on_c, 0, 65, 0
3, 187200, Note_on_c, 0, 62, 49
3, 187680, Note_on_c, 0, 62, 0
3, 187680, Note_on_c, 0, 60, 49
3, 187920, Note_on_c, 0, 60, 0
3, 187920, Control_c, 0, 64, 0
3, 187920, Note_on_c, 0, 62, 49
3, 188160, Note_on_c, 0, 62, 0
3, 188160, Note_on_c, 0, 51, 49
3, 188160, Note_on_c, 0, 58, 49
3, 189120, Note_on_c, 0, 58, 0
3, 189120, Note_on_c, 0, 51, 0
3, 189120, Control_c, 0, 64, 127
3, 189120, Note_on_c, 0, 55, 49
3, 189360, Note_on_c, 0, 55, 0
3, 189360, Note_on_c, 0, 58, 49
3, 189600, Note_on_c, 0, 58, 0
3, 189600, Note_on_c, 0, 63, 62
3, 189840, Note_on_c, 0, 63, 0
3, 189840, Control_c, 0, 64, 0
3, 189840, Note_on_c, 0, 67, 62
3, 190080, Note_on_c, 0, 67, 0
3, 190080, Note_on_c, 0, 51, 62
3, 190080, Note_on_c, 0, 58, 62
3, 192000, Note_on_c, 0, 58, 0
3, 192000, Note_on_c, 0, 51, 0
3, 192000, Note_on_c, 0, 51, 49
3, 192000, Note_on_c, 0, 58, 49
3, 192000, Note_on_c, 0, 68, 49
3, 192000, Note_on_c, 0, 70, 49
3, 193920, Note_on_c, 0, 70, 0
3, 193920, Note_on_c, 0, 51, 0
3, 193920, Note_on_c, 0, 58, 0
3, 193920, Note_on_c, 0, 68, 0
3, 193920, Control_c, 0, 64, 127
3, 193920, Note_on_c, 0, 58, 49
3, 193920, Note_on_c, 0, 62, 49
3, 194400, Note_on_c, 0, 62, 0
3, 194400, Note_on_c, 0, 58, 0
3, 194400, Note_on_c, 0, 65, 49
3, 194880, Note_on_c, 0, 65, 0
3, 194880, Note_on_c, 0, 62, 49
3, 195360, Note_on_c, 0, 62, 0
3, 195360, Note_on_c, 0, 60, 49
3, 195600, Note_on_c, 0, 60, 0
3, 195600, Control_c, 0, 64, 0
3, 195600, Note_on_c, 0, 62, 49
3, 195840, Note_on_c, 0, 62, 0
3, 195840, Note_on_c, 0, 51, 49
3, 195840, Note_on_c, 0, 58, 49
3, 196800, Note_on_c, 0, 58, 0
3, 196800, Note_on_c, 0, 51, 0
3, 196800, Control_c, 0, 64, 127
3, 196800, Note_on_c, 0, 50, 62
3, 197040, Note_on_c, 0, 50, 0
3, 197040, Note_on_c, 0, 55, 62
3, 197280, Note_on_c, 0, 55, 0
3, 197280, Note_on_c, 0, 62, 62
3, 197520, Note_on_c, 0, 62, 0
3, 197520, Control_c, 0, 64, 0
3, 197520, Note_on_c, 0, 55, 62
3, 197760, Note_on_c, 0, 48, 49
3, 197760, Note_on_c, 0, 60, 49
3, 198720, Note_on_c, 0, 60, 0
3, 198720, Note_on_c, 0, 48, 0
3, 198720, Note_on_c, 0, 55, 0
3, 198720, Control_c, 0, 64, 127
3, 198720, Note_on_c, 0, 47, 62
3, 198960, Note_on_c, 0, 47, 0
3, 198960, Note_on_c, 0, 53, 62
3, 199200, Note_on_c, 0, 53, 0
3, 199200, Note_on_c, 0, 59, 62
3, 199440, Note_on_c, 0, 59, 0
3, 199440, Control_c, 0, 64, 0
3, 199440, Note_on_c, 0, 53, 62
3, 199680, Note_on_c, 0, 46, 49
3, 199680, Note_on_c, 0, 58, 49
3, 200640, Note_on_c, 0, 58, 0
3, 200640, Note_on_c, 0, 46, 0
3, 200640, Note_on_c, 0, 53, 0
3, 200640, Control_c, 0, 64, 127
3, 200640, Note_on_c, 0, 44, 62
3, 200880, Note_on_c, 0, 44, 0
3, 200880, Note_on_c, 0, 53, 62
3, 201120, Note_on_c, 0, 53, 0
3, 201120, Note_on_c, 0, 58, 62
3, 201360, Note_on_c, 0, 58, 0
3, 201360, Control_c, 0, 64, 0
3, 201360, Note_on_c, 0, 53, 62
3, 201540, Note_on_c, 0, 43, 62
3, 201600, Note_on_c, 0, 53, 0
3, 201600, Note_on_c, 0, 55, 49
3, 201600, Note_on_c, 0, 58, 49
3, 202560, Note_on_c, 0, 58, 0
3, 202560, Note_on_c, 0, 55, 0
3, 202560, Note_on_c, 0, 43, 0
3, 202560, Control_c, 0, 64, 127
3, 202560, Note_on_c, 0, 41, 62
3, 202800, Note_on_c, 0, 41, 0
3, 202800, Note_on_c, 0, 53, 62
3, 203040, Note_on_c, 0, 53, 0
3, 203040, Note_on_c, 0, 58, 62
3, 203280, Note_on_c, 0, 58, 0
3, 203280, Control_c, 0, 64, 0
3, 203280, Note_on_c, 0, 53, 62
3, 203520, Note_on_c, 0, 53, 0
3, 203520, Note_on_c, 0, 56, 49
3, 203520, Note_on_c, 0, 58, 49
3, 203520, Note_on_c, 0, 65, 49
3, 205440, Note_on_c, 0, 65, 0
3, 205440, Note_on_c, 0, 58, 0
3, 205440, Note_on_c, 0, 56, 0
3, 205440, Note_on_c, 0, 55, 49
3, 205440, Note_on_c, 0, 58, 49
3, 205680, Note_on_c, 0, 58, 0
3, 205680, Note_on_c, 0, 55, 0
3, 205680, Control_c, 0, 64, 127
3, 205680, Note_on_c, 0, 51, 49
3, 205920, Note_on_c, 0, 51, 0
3, 205920, Note_on_c, 0, 46, 49
3, 206160, Note_on_c, 0, 46, 0
3, 206160, Note_on_c, 0, 51, 49
3, 206400, Note_on_c, 0, 51, 0
3, 206400, Note_on_c, 0, 55, 49
3, 206640, Note_on_c, 0, 55, 0
3, 206640, Note_on_c, 0, 58, 49
3, 206880, Note_on_c, 0, 58, 0
3, 206880, Note_on_c, 0, 63, 49
3, 207120, Note_on_c, 0, 63, 0
3, 207120, Control_c, 0, 64, 0
3, 207120, Note_on_c, 0, 67, 49
3, 207360, Note_on_c, 0, 67, 0
3, 207360, Note_on_c, 0, 56, 49
3, 207360, Note_on_c, 0, 58, 49
3, 207360, Note_on_c, 0, 65, 49
3, 209280, Note_on_c, 0, 65, 0
3, 209280, Note_on_c, 0, 58, 0
3, 209280, Note_on_c, 0, 56, 0
3, 209280, Note_on_c, 0, 55, 49
3, 209280, Note_on_c, 0, 58, 49
3, 209520, Note_on_c, 0, 58, 0
3, 209520, Note_on_c, 0, 55, 0
3, 209520, Control_c, 0, 64, 127
3, 209520, Note_on_c, 0, 51, 49
3, 209760, Note_on_c, 0, 51, 0
3, 209760, Note_on_c, 0, 46, 49
3, 210000, Note_on_c, 0, 46, 0
3, 210000, Note_on_c, 0, 51, 49
3, 210240, Note_on_c, 0, 51, 0
3, 210240, Note_on_c, 0, 55, 49
3, 210480, Note_on_c, 0, 55, 0
3, 210480, Note_on_c, 0, 58, 49
3, 210720, Note_on_c, 0, 58, 0
3, 210720, Note_on_c, 0, 63, 49
3, 210960, Note_on_c, 0, 63, 0
3, 210960, Control_c, 0, 64, 0
3, 210960, Note_on_c, 0, 67, 49
3, 211200, Note_on_c, 0, 67, 0
3, 211200, Note_on_c, 0, 54, 49
3, 211200, Note_on_c, 0, 58, 49
3, 211200, Note_on_c, 0, 63, 49
3, 213120, Note_on_c, 0, 63, 0
3, 213120, Note_on_c, 0, 58, 0
3, 213120, Note_on_c, 0, 54, 0
3, 213120, Control_c, 0, 64, 127
3, 213120, Note_on_c, 0, 53, 62
3, 213360, Note_on_c, 0, 53, 0
3, 213360, Note_on_c, 0, 48, 62
3, 213600, Note_on_c, 0, 48, 0
3, 213600, Note_on_c, 0, 41, 62
3, 213840, Note_on_c, 0, 41, 0
3, 213840, Note_on_c, 0, 48, 62
3, 214080, Note_on_c, 0, 48, 0
3, 214080, Note_on_c, 0, 53, 62
3, 214320, Note_on_c, 0, 53, 0
3, 214320, Note_on_c, 0, 57, 62
3, 214560, Note_on_c, 0, 57, 0
3, 214560, Note_on_c, 0, 60, 62
3, 214800, Note_on_c, 0, 60, 0
3, 214800, Control_c, 0, 64, 0
3, 214800, Note_on_c, 0, 65, 62
3, 215040, Note_on_c, 0, 65, 0
3, 215040, Note_on_c, 0, 52, 62
3, 215040, Note_on_c, 0, 56, 62
3, 215040, Note_on_c, 0, 61, 62
3, 216960, Note_on_c, 0, 61, 0
3, 216960, Note_on_c, 0, 56, 0
3, 216960, Note_on_c, 0, 52, 0
3, 216960, Control_c, 0, 64, 127
3, 216960, Note_on_c, 0, 51, 62
3, 217200, Note_on_c, 0, 51, 0
3, 217200, Note_on_c, 0, 46, 62
3, 217440, Note_on_c, 0, 46, 0
3, 217440, Note_on_c, 0, 39, 62
3, 217680, Note_on_c, 0, 39, 0
3, 217680, Note_on_c, 0, 46, 62
3, 217920, Note_on_c, 0, 46, 0
3, 217920, Note_on_c, 0, 51, 62
3, 218160, Note_on_c, 0, 51, 0
3, 218160, Note_on_c, 0, 55, 62
3, 218400, Note_on_c, 0, 55, 0
3, 218400, Note_on_c, 0, 58, 62
3, 218640, Note_on_c, 0, 58, 0
3, 218640, Control_c, 0, 64, 0
3, 218640, Note_on_c, 0, 63, 62
3, 218880, Note_on_c, 0, 63, 0
3, 218880, Note_on_c, 0, 50, 49
3, 218880, Note_on_c, 0, 58, 49
3, 218880, Note_on_c, 0, 62, 49
3, 219840, Note_on_c, 0, 62, 0
3, 219840, Note_on_c, 0, 58, 0
3, 219840, Note_on_c, 0, 50, 0
3, 219840, Note_on_c, 0, 50, 62
3, 219840, Note_on_c, 0, 60, 62
3, 219840, Note_on_c, 0, 62, 62
3, 219840, Note_on_c, 0, 66, 62
3, 220800, Note_on_c, 0, 66, 0
3, 220800, Note_on_c, 0, 50, 0
3, 220800, Note_on_c, 0, 60, 0
3, 220800, Note_on_c, 0, 62, 0
3, 220800, Note_on_c, 0, 50, 49
3, 220800, Note_on_c, 0, 58, 49
3, 220800, Note_on_c, 0, 62, 49
3, 221760, Note_on_c, 0, 62, 0
3, 221760, Note_on_c, 0, 58, 0
3, 221760, Note_on_c, 0, 50, 0
3, 221760, Note_on_c, 0, 50, 62
3, 221760, Note_on_c, 0, 60, 62
3, 221760, Note_on_c, 0, 62, 62
3, 221760, Note_on_c, 0, 66, 62
3, 222720, Note_on_c, 0, 66, 0
3, 222720, Note_on_c, 0, 50, 0
3, 222720, Note_on_c, 0, 60, 0
3, 222720, Note_on_c, 0, 62, 0
3, 222720, Note_on_c, 0, 50, 49
3, 222720, Note_on_c, 0, 58, 49
3, 222720, Note_on_c, 0, 62, 49
3, 223680, Note_on_c, 0, 62, 0
3, 223680, Note_on_c, 0, 58, 0
3, 223680, Note_on_c, 0, 50, 0
3, 223680, Note_on_c, 0, 50, 88
3, 223680, Note_on_c, 0, 55, 88
3, 224160, Note_on_c, 0, 50, 0
3, 224160, Note_on_c, 0, 49, 62
3, 224640, Note_on_c, 0, 49, 0
3, 224640, Note_on_c, 0, 55, 0
3, 224640, Note_on_c, 0, 48, 49
3, 224640, Note_on_c, 0, 55, 49
3, 224640, Note_on_c, 0, 58, 49
3, 225600, Note_on_c, 0, 58, 0
3, 225600, Note_on_c, 0, 55, 0
3, 225600, Note_on_c, 0, 48, 0
3, 225600, Note_on_c, 0, 48, 88
3, 225600, Note_on_c, 0, 53, 88
3, 226080, Note_on_c, 0, 48, 0
3, 226080, Note_on_c, 0, 47, 62
3, 226560, Note_on_c, 0, 47, 0
3, 226560, Note_on_c, 0, 53, 0
3, 226560, Control_c, 0, 64, 127
3, 226560, Note_on_c, 0, 39, 62
3, 226560, Note_on_c, 0, 46, 62
3, 227040, Note_on_c, 0, 46, 0
3, 227040, Note_on_c, 0, 39, 0
3, 227040, Note_on_c, 0, 46, 62
3, 227520, Note_on_c, 0, 46, 0
3, 227520, Note_on_c, 0, 58, 62
3, 228000, Note_on_c, 0, 58, 0
3, 229920, Control_c, 0, 64, 0
3, 229920, Note_on_c, 0, 46, 62
3, 230400, Note_on_c, 0, 46, 0
3, 230400, Control_c, 0, 64, 127
3, 230400, Note_on_c, 0, 39, 62
3, 230400, Note_on_c, 0, 46, 62
3, 230880, Note_on_c, 0, 46, 0
3, 230880, Note_on_c, 0, 39, 0
3, 230880, Note_on_c, 0, 46, 62
3, 231360, Note_on_c, 0, 46, 0
3, 231360, Note_on_c, 0, 58, 62
3, 231840, Note_on_c, 0, 58, 0
3, 233760, Control_c, 0, 64, 0
3, 233760, Note_on_c, 0, 46, 62
3, 234240, Note_on_c, 0, 46, 0
3, 234240, Control_c, 0, 64, 127
3, 234240, Note_on_c, 0, 39, 62
3, 234240, Note_on_c, 0, 46, 62
3, 234720, Note_on_c, 0, 46, 0
3, 234720, Note_on_c, 0, 39, 0
3, 234720, Note_on_c, 0, 46, 62
3, 235200, Note_on_c, 0, 46, 0
3, 235200, Note_on_c, 0, 58, 62
3, 235680, Note_on_c, 0, 58, 0
3, 237600, Control_c, 0, 64, 0
3, 237600, Note_on_c, 0, 46, 62
3, 238080, Note_on_c, 0, 46, 0
3, 238080, Control_c, 0, 64, 127
3, 238080, Note_on_c, 0, 39, 62
3, 238080, Note_on_c, 0, 46, 62
3, 238560, Note_on_c, 0, 46, 0
3, 238560, Note_on_c, 0, 39, 0
3, 238560, Note_on_c, 0, 46, 62
3, 239040, Note_on_c, 0, 46, 0
3, 241440, Control_c, 0, 64, 0
3, 241440, Note_on_c, 0, 46, 62
3, 241920, Note_on_c, 0, 46, 0
3, 241920, Control_c, 0, 64, 127
3, 241920, Note_on_c, 0, 39, 62
3, 241920, Note_on_c, 0, 46, 62
3, 242400, Note_on_c, 0, 46, 0
3, 242400, Note_on_c, 0, 39, 0
3, 242400, Note_on_c, 0, 46, 62
3, 242880, Note_on_c, 0, 46, 0
3, 245280, Control_c, 0, 64, 0
3, 245280, Note_on_c, 0, 46, 62
3, 245760, Note_on_c, 0, 46, 0
3, 245760, Control_c, 0, 64, 127
3, 245760, Note_on_c, 0, 39, 75
3, 245760, Note_on_c, 0, 46, 75
3, 246240, Note_on_c, 0, 46, 0
3, 246240, Note_on_c, 0, 39, 0
3, 246240, Note_on_c, 0, 46, 75
3, 246720, Note_on_c, 0, 46, 0
3, 247680, Control_c, 0, 64, 127
3, 247680, Note_on_c, 0, 39, 62
3, 247680, Note_on_c, 0, 46, 62
3, 248160, Note_on_c, 0, 46, 0
3, 248160, Note_on_c, 0, 39, 0
3, 248160, Note_on_c, 0, 46, 62
3, 248640, Note_on_c, 0, 46, 0
3, 251040, Control_c, 0, 64, 0
3, 251040, Note_on_c, 0, 46, 75
3, 251520, Note_on_c, 0, 46, 0
3, 255360, Control_c, 0, 64, 127
3, 255360, Note_on_c, 0, 38, 75
3, 255360, Note_on_c, 0, 41, 75
3, 255360, Note_on_c, 0, 47, 75
3, 255480, Note_on_c, 0, 47, 0
3, 255480, Note_on_c, 0, 41, 0
3, 255480, Note_on_c, 0, 38, 0
3, 255480, Note_on_c, 0, 38, 75
3, 255480, Note_on_c, 0, 41, 75
3, 255480, Note_on_c, 0, 47, 75
3, 255600, Note_on_c, 0, 47, 0
3, 255600, Note_on_c, 0, 41, 0
3, 255600, Note_on_c, 0, 38, 0
3, 255600, Note_on_c, 0, 50, 75
3, 255600, Note_on_c, 0, 53, 75
3, 255600, Note_on_c, 0, 59, 75
3, 255720, Note_on_c, 0, 59, 0
3, 255720, Note_on_c, 0, 53, 0
3, 255720, Note_on_c, 0, 50, 0
3, 255720, Note_on_c, 0, 50, 75
3, 255720, Note_on_c, 0, 53, 75
3, 255720, Note_on_c, 0, 59, 75
3, 255840, Note_on_c, 0, 59, 0
3, 255840, Note_on_c, 0, 53, 0
3, 255840, Note_on_c, 0, 50, 0
3, 255840, Note_on_c, 0, 50, 75
3, 255840, Note_on_c, 0, 53, 75
3, 255840, Note_on_c, 0, 59, 75
3, 255960, Note_on_c, 0, 59, 0
3, 255960, Note_on_c, 0, 53, 0
3, 255960, Note_on_c, 0, 50, 0
3, 255960, Note_on_c, 0, 50, 75
3, 255960, Note_on_c, 0, 53, 75
3, 255960, Note_on_c, 0, 59, 75
3, 256080, Note_on_c, 0, 59, 0
3, 256080, Note_on_c, 0, 53, 0
3, 256080, Note_on_c, 0, 50, 0
3, 256080, Note_on_c, 0, 62, 75
3, 256080, Note_on_c, 0, 65, 75
3, 256080, Note_on_c, 0, 71, 75
3, 256200, Note_on_c, 0, 71, 0
3, 256200, Note_on_c, 0, 65, 0
3, 256200, Note_on_c, 0, 62, 0
3, 256200, Note_on_c, 0, 62, 75
3, 256200, Note_on_c, 0, 65, 75
3, 256200, Note_on_c, 0, 71, 75
3, 256320, Note_on_c, 0, 71, 0
3, 256320, Note_on_c, 0, 65, 0
3, 256320, Note_on_c, 0, 62, 0
3, 256800, Control_c, 0, 64, 0
3, 257280, Control_c, 0, 64, 127
3, 257280, Note_on_c, 0, 38, 75
3, 257280, Note_on_c, 0, 41, 75
3, 257280, Note_on_c, 0, 47, 75
3, 257400, Note_on_c, 0, 47, 0
3, 257400, Note_on_c, 0, 41, 0
3, 257400, Note_on_c, 0, 38, 0
3, 257400, Note_on_c, 0, 38, 75
3, 257400, Note_on_c, 0, 41, 75
3, 257400, Note_on_c, 0, 47, 75
3, 257520, Note_on_c, 0, 47, 0
3, 257520, Note_on_c, 0, 41, 0
3, 257520, Note_on_c, 0, 38, 0
3, 257520, Note_on_c, 0, 50, 75
3, 257520, Note_on_c, 0, 53, 75
3, 257520, Note_on_c, 0, 59, 75
3, 257640, Note_on_c, 0, 59, 0
3, 257640, Note_on_c, 0, 53, 0
3, 257640, Note_on_c, 0, 50, 0
3, 257640, Note_on_c, 0, 50, 75
3, 257640, Note_on_c, 0, 53, 75
3, 257640, Note_on_c, 0, 59, 75
3, 257760, Note_on_c, 0, 59, 0
3, 257760, Note_on_c, 0, 53, 0
3, 257760, Note_on_c, 0, 50, 0
3, 257760, Note_on_c, 0, 50, 75
3, 257760, Note_on_c, 0, 53, 75
3, 257760, Note_on_c, 0, 59, 75
3, 257880, Note_on_c, 0, 59, 0
3, 257880, Note_on_c, 0, 53, 0
3, 257880, Note_on_c, 0, 50, 0
3, 257880, Note_on_c, 0, 50, 75
3, 257880, Note_on_c, 0, 53, 75
3, 257880, Note_on_c, 0, 59, 75
3, 258000, Note_on_c, 0, 59, 0
3, 258000, Note_on_c, 0, 53, 0
3, 258000, Note_on_c, 0, 50, 0
3, 258000, Note_on_c, 0, 62, 75
3, 258000, Note_on_c, 0, 65, 75
3, 258000, Note_on_c, 0, 71, 75
3, 258120, Note_on_c, 0, 71, 0
3, 258120, Note_on_c, 0, 65, 0
3, 258120, Note_on_c, 0, 62, 0
3, 258120, Note_on_c, 0, 62, 75
3, 258120, Note_on_c, 0, 65, 75
3, 258120, Note_on_c, 0, 71, 75
3, 258240, Note_on_c, 0, 71, 0
3, 258240, Note_on_c, 0, 65, 0
3, 258240, Note_on_c, 0, 62, 0
3, 258720, Control_c, 0, 64, 0
3, 259200, Note_on_c, 0, 38, 88
3, 259200, Note_on_c, 0, 41, 88
3, 259200, Note_on_c, 0, 47, 88
3, 259320, Note_on_c, 0, 47, 0
3, 259320, Note_on_c, 0, 41, 0
3, 259320, Note_on_c, 0, 38, 0
3, 259320, Note_on_c, 0, 38, 88
3, 259320, Note_on_c, 0, 41, 88
3, 259320, Note_on_c, 0, 47, 88
3, 259440, Note_on_c, 0, 47, 0
3, 259440, Note_on_c, 0, 41, 0
3, 259440, Note_on_c, 0, 38, 0
3, 259440, Note_on_c, 0, 50, 88
3, 259440, Note_on_c, 0, 53, 88
3, 259440, Note_on_c, 0, 59, 88
3, 259560, Note_on_c, 0, 59, 0
3, 259560, Note_on_c, 0, 53, 0
3, 259560, Note_on_c, 0, 50, 0
3, 259560, Note_on_c, 0, 50, 88
3, 259560, Note_on_c, 0, 53, 88
3, 259560, Note_on_c, 0, 59, 88
3, 259680, Note_on_c, 0, 59, 0
3, 259680, Note_on_c, 0, 53, 0
3, 259680, Note_on_c, 0, 50, 0
3, 259680, Note_on_c, 0, 41, 88
3, 259680, Note_on_c, 0, 47, 88
3, 259680, Note_on_c, 0, 50, 88
3, 259800, Note_on_c, 0, 50, 0
3, 259800, Note_on_c, 0, 47, 0
3, 259800, Note_on_c, 0, 41, 0
3, 259800, Note_on_c, 0, 41, 88
3, 259800, Note_on_c, 0, 47, 88
3, 259800, Note_on_c, 0, 50, 88
3, 259920, Note_on_c, 0, 50, 0
3, 259920, Note_on_c, 0, 47, 0
3, 259920, Note_on_c, 0, 41, 0
3, 259920, Note_on_c, 0, 53, 88
3, 259920, Note_on_c, 0, 59, 88
3, 259920, Note_on_c, 0, 62, 88
3, 260040, Note_on_c, 0, 62, 0
3, 260040, Note_on_c, 0, 59, 0
3, 260040, Note_on_c, 0, 53, 0
3, 260040, Note_on_c, 0, 53, 88
3, 260040, Note_on_c, 0, 59, 88
3, 260040, Note_on_c, 0, 62, 88
3, 260160, Note_on_c, 0, 62, 0
3, 260160, Note_on_c, 0, 59, 0
3, 260160, Note_on_c, 0, 53, 0
3, 260160, Note_on_c, 0, 47, 88
3, 260160, Note_on_c, 0, 50, 88
3, 260160, Note_on_c, 0, 53, 88
3, 260280, Note_on_c, 0, 53, 0
3, 260280, Note_on_c, 0, 50, 0
3, 260280, Note_on_c, 0, 47, 0
3, 260280, Note_on_c, 0, 47, 88
3, 260280, Note_on_c, 0, 50, 88
3, 260280, Note_on_c, 0, 53, 88
3, 260400, Note_on_c, 0, 53, 0
3, 260400, Note_on_c, 0, 50, 0
3, 260400, Note_on_c, 0, 47, 0
3, 260400, Note_on_c, 0, 59, 88
3, 260400, Note_on_c, 0, 62, 88
3, 260400, Note_on_c, 0, 65, 88
3, 260520, Note_on_c, 0, 65, 0
3, 260520, Note_on_c, 0, 62, 0
3, 260520, Note_on_c, 0, 59, 0
3, 260520, Note_on_c, 0, 59, 88
3, 260520, Note_on_c, 0, 62, 88
3, 260520, Note_on_c, 0, 65, 88
3, 260640, Note_on_c, 0, 65, 0
3, 260640, Note_on_c, 0, 62, 0
3, 260640, Note_on_c, 0, 59, 0
3, 260640, Note_on_c, 0, 41, 88
3, 260640, Note_on_c, 0, 47, 88
3, 260640, Note_on_c, 0, 50, 88
3, 260760, Note_on_c, 0, 50, 0
3, 260760, Note_on_c, 0, 47, 0
3, 260760, Note_on_c, 0, 41, 0
3, 260760, Note_on_c, 0, 53, 88
3, 260760, Note_on_c, 0, 59, 88
3, 260760, Note_on_c, 0, 62, 88
3, 260880, Note_on_c, 0, 62, 0
3, 260880, Note_on_c, 0, 59, 0
3, 260880, Note_on_c, 0, 53, 0
3, 260880, Note_on_c, 0, 47, 88
3, 260880, Note_on_c, 0, 50, 88
3, 260880, Note_on_c, 0, 53, 88
3, 261000, Note_on_c, 0, 53, 0
3, 261000, Note_on_c, 0, 50, 0
3, 261000, Note_on_c, 0, 47, 0
3, 261000, Note_on_c, 0, 59, 88
3, 261000, Note_on_c, 0, 62, 88
3, 261000, Note_on_c, 0, 65, 88
3, 261120, Note_on_c, 0, 65, 0
3, 261120, Note_on_c, 0, 62, 0
3, 261120, Note_on_c, 0, 59, 0
3, 266880, Note_on_c, 0, 44, 88
3, 266880, Note_on_c, 0, 47, 88
3, 266880, Note_on_c, 0, 53, 88
3, 267000, Note_on_c, 0, 53, 0
3, 267000, Note_on_c, 0, 47, 0
3, 267000, Note_on_c, 0, 44, 0
3, 267000, Note_on_c, 0, 56, 88
3, 267000, Note_on_c, 0, 59, 88
3, 267000, Note_on_c, 0, 65, 88
3, 267120, Note_on_c, 0, 65, 0
3, 267120, Note_on_c, 0, 59, 0
3, 267120, Note_on_c, 0, 56, 0
3, 267120, Note_on_c, 0, 41, 88
3, 267120, Note_on_c, 0, 44, 88
3, 267120, Note_on_c, 0, 51, 88
3, 267240, Note_on_c, 0, 51, 0
3, 267240, Note_on_c, 0, 44, 0
3, 267240, Note_on_c, 0, 41, 0
3, 267240, Note_on_c, 0, 53, 88
3, 267240, Note_on_c, 0, 56, 88
3, 267240, Note_on_c, 0, 63, 88
3, 267360, Note_on_c, 0, 63, 0
3, 267360, Note_on_c, 0, 56, 0
3, 267360, Note_on_c, 0, 53, 0
3, 267360, Note_on_c, 0, 41, 88
3, 267360, Note_on_c, 0, 44, 88
3, 267360, Note_on_c, 0, 50, 88
3, 267480, Note_on_c, 0, 50, 0
3, 267480, Note_on_c, 0, 44, 0
3, 267480, Note_on_c, 0, 41, 0
3, 267480, Note_on_c, 0, 53, 88
3, 267480, Note_on_c, 0, 56, 88
3, 267480, Note_on_c, 0, 62, 88
3, 267600, Note_on_c, 0, 62, 0
3, 267600, Note_on_c, 0, 56, 0
3, 267600, Note_on_c, 0, 53, 0
3, 267600, Note_on_c, 0, 41, 88
3, 267600, Note_on_c, 0, 44, 88
3, 267600, Note_on_c, 0, 48, 88
3, 267720, Note_on_c, 0, 48, 0
3, 267720, Note_on_c, 0, 44, 0
3, 267720, Note_on_c, 0, 41, 0
3, 267720, Note_on_c, 0, 53, 88
3, 267720, Note_on_c, 0, 56, 88
3, 267720, Note_on_c, 0, 60, 88
3, 267840, Note_on_c, 0, 60, 0
3, 267840, Note_on_c, 0, 56, 0
3, 267840, Note_on_c, 0, 53, 0
3, 267840, Note_on_c, 0, 41, 88
3, 267840, Note_on_c, 0, 44, 88
3, 267840, Note_on_c, 0, 47, 88
3, 267960, Note_on_c, 0, 47, 0
3, 267960, Note_on_c, 0, 44, 0
3, 267960, Note_on_c, 0, 41, 0
3, 267960, Note_on_c, 0, 53, 88
3, 267960, Note_on_c, 0, 56, 88
3, 267960, Note_on_c, 0, 59, 88
3, 268080, Note_on_c, 0, 59, 0
3, 268080, Note_on_c, 0, 56, 0
3, 268080, Note_on_c, 0, 53, 0
3, 268080, Note_on_c, 0, 41, 88
3, 268080, Note_on_c, 0, 44, 88
3, 268080, Note_on_c, 0, 50, 88
3, 268200, Note_on_c, 0, 50, 0
3, 268200, Note_on_c, 0, 44, 0
3, 268200, Note_on_c, 0, 41, 0
3, 268200, Note_on_c, 0, 53, 88
3, 268200, Note_on_c, 0, 56, 88
3, 268200, Note_on_c, 0, 62, 88
3, 268320, Note_on_c, 0, 62, 0
3, 268320, Note_on_c, 0, 56, 0
3, 268320, Note_on_c, 0, 53, 0
3, 268320, Note_on_c, 0, 38, 88
3, 268320, Note_on_c, 0, 41, 88
3, 268320, Note_on_c, 0, 48, 88
3, 268440, Note_on_c, 0, 48, 0
3, 268440, Note_on_c, 0, 41, 0
3, 268440, Note_on_c, 0, 38, 0
3, 268440, Note_on_c, 0, 50, 88
3, 268440, Note_on_c, 0, 53, 88
3, 268440, Note_on_c, 0, 60, 88
3, 268560, Note_on_c, 0, 60, 0
3, 268560, Note_on_c, 0, 53, 0
3, 268560, Note_on_c, 0, 50, 0
3, 268560, Note_on_c, 0, 38, 88
3, 268560, Note_on_c, 0, 41, 88
3, 268560, Note_on_c, 0, 47, 88
3, 268680, Note_on_c, 0, 47, 0
3, 268680, Note_on_c, 0, 41, 0
3, 268680, Note_on_c, 0, 38, 0
3, 268680, Note_on_c, 0, 50, 88
3, 268680, Note_on_c, 0, 53, 88
3, 268680, Note_on_c, 0, 59, 88
3, 268800, Note_on_c, 0, 59, 0
3, 268800, Note_on_c, 0, 53, 0
3, 268800, Note_on_c, 0, 50, 0
3, 268800, Note_on_c, 0, 41, 88
3, 268800, Note_on_c, 0, 44, 88
3, 268800, Note_on_c, 0, 51, 88
3, 268920, Note_on_c, 0, 51, 0
3, 268920, Note_on_c, 0, 44, 0
3, 268920, Note_on_c, 0, 41, 0
3, 268920, Note_on_c, 0, 53, 88
3, 268920, Note_on_c, 0, 56, 88
3, 268920, Note_on_c, 0, 63, 88
3, 269040, Note_on_c, 0, 63, 0
3, 269040, Note_on_c, 0, 56, 0
3, 269040, Note_on_c, 0, 53, 0
3, 269040, Note_on_c, 0, 41, 88
3, 269040, Note_on_c, 0, 44, 88
3, 269040, Note_on_c, 0, 50, 88
3, 269160, Note_on_c, 0, 50, 0
3, 269160, Note_on_c, 0, 44, 0
3, 269160, Note_on_c, 0, 41, 0
3, 269160, Note_on_c, 0, 53, 88
3, 269160, Note_on_c, 0, 56, 88
3, 269160, Note_on_c, 0, 62, 88
3, 269280, Note_on_c, 0, 62, 0
3, 269280, Note_on_c, 0, 56, 0
3, 269280, Note_on_c, 0, 53, 0
3, 269280, Note_on_c, 0, 38, 88
3, 269280, Note_on_c, 0, 41, 88
3, 269280, Note_on_c, 0, 48, 88
3, 269400, Note_on_c, 0, 48, 0
3, 269400, Note_on_c, 0, 41, 0
3, 269400, Note_on_c, 0, 38, 0
3, 269400, Note_on_c, 0, 50, 88
3, 269400, Note_on_c, 0, 53, 88
3, 269400, Note_on_c, 0, 60, 88
3, 269520, Note_on_c, 0, 60, 0
3, 269520, Note_on_c, 0, 53, 0
3, 269520, Note_on_c, 0, 50, 0
3, 269520, Note_on_c, 0, 38, 88
3, 269520, Note_on_c, 0, 41, 88
3, 269520, Note_on_c, 0, 47, 88
3, 269640, Note_on_c, 0, 47, 0
3, 269640, Note_on_c, 0, 41, 0
3, 269640, Note_on_c, 0, 38, 0
3, 269640, Note_on_c, 0, 50, 88
3, 269640, Note_on_c, 0, 53, 88
3, 269640, Note_on_c, 0, 59, 88
3, 269760, Note_on_c, 0, 59, 0
3, 269760, Note_on_c, 0, 53, 0
3, 269760, Note_on_c, 0, 50, 0
3, 269760, Note_on_c, 0, 41, 88
3, 269760, Note_on_c, 0, 44, 88
3, 269760, Note_on_c, 0, 51, 88
3, 269880, Note_on_c, 0, 51, 0
3, 269880, Note_on_c, 0, 44, 0
3, 269880, Note_on_c, 0, 41, 0
3, 269880, Note_on_c, 0, 53, 88
3, 269880, Note_on_c, 0, 56, 88
3, 269880, Note_on_c, 0, 63, 88
3, 270000, Note_on_c, 0, 63, 0
3, 270000, Note_on_c, 0, 56, 0
3, 270000, Note_on_c, 0, 53, 0
3, 270000, Note_on_c, 0, 41, 88
3, 270000, Note_on_c, 0, 44, 88
3, 270000, Note_on_c, 0, 50, 88
3, 270120, Note_on_c, 0, 50, 0
3, 270120, Note_on_c, 0, 44, 0
3, 270120, Note_on_c, 0, 41, 0
3, 270120, Note_on_c, 0, 53, 88
3, 270120, Note_on_c, 0, 56, 88
3, 270120, Note_on_c, 0, 62, 88
3, 270240, Note_on_c, 0, 62, 0
3, 270240, Note_on_c, 0, 56, 0
3, 270240, Note_on_c, 0, 53, 0
3, 270240, Note_on_c, 0, 44, 88
3, 270240, Note_on_c, 0, 47, 88
3, 270240, Note_on_c, 0, 55, 88
3, 270360, Note_on_c, 0, 55, 0
3, 270360, Note_on_c, 0, 47, 0
3, 270360, Note_on_c, 0, 44, 0
3, 270360, Note_on_c, 0, 56, 88
3, 270360, Note_on_c, 0, 59, 88
3, 270360, Note_on_c, 0, 67, 88
3, 270480, Note_on_c, 0, 67, 0
3, 270480, Note_on_c, 0, 59, 0
3, 270480, Note_on_c, 0, 56, 0
3, 270480, Note_on_c, 0, 44, 88
3, 270480, Note_on_c, 0, 47, 88
3, 270480, Note_on_c, 0, 53, 88
3, 270600, Note_on_c, 0, 53, 0
3, 270600, Note_on_c, 0, 47, 0
3, 270600, Note_on_c, 0, 44, 0
3, 270600, Note_on_c, 0, 56, 88
3, 270600, Note_on_c, 0, 59, 88
3, 270600, Note_on_c, 0, 65, 88
3, 270720, Note_on_c, 0, 65, 0
3, 270720, Note_on_c, 0, 59, 0
3, 270720, Note_on_c, 0, 56, 0
3, 270720, Note_on_c, 0, 47, 88
3, 270720, Note_on_c, 0, 50, 88
3, 270720, Note_on_c, 0, 56, 88
3, 270840, Note_on_c, 0, 56, 0
3, 270840, Note_on_c, 0, 50, 0
3, 270840, Note_on_c, 0, 47, 0
3, 270840, Note_on_c, 0, 59, 88
3, 270840, Note_on_c, 0, 62, 88
3, 270840, Note_on_c, 0, 68, 88
3, 270960, Note_on_c, 0, 68, 0
3, 270960, Note_on_c, 0, 62, 0
3, 270960, Note_on_c, 0, 59, 0
3, 270960, Note_on_c, 0, 47, 88
3, 270960, Note_on_c, 0, 50, 88
3, 270960, Note_on_c, 0, 55, 88
3, 271080, Note_on_c, 0, 55, 0
3, 271080, Note_on_c, 0, 50, 0
3, 271080, Note_on_c, 0, 47, 0
3, 271080, Note_on_c, 0, 59, 88
3, 271080, Note_on_c, 0, 62, 88
3, 271080, Note_on_c, 0, 67, 88
3, 271200, Note_on_c, 0, 67, 0
3, 271200, Note_on_c, 0, 62, 0
3, 271200, Note_on_c, 0, 59, 0
3, 283680, Note_on_c, 0, 55, 101
3, 283680, Note_on_c, 0, 67, 101
3, 283920, Note_on_c, 0, 67, 0
3, 283920, Note_on_c, 0, 55, 0
3, 283920, Note_on_c, 0, 59, 75
3, 283920, Note_on_c, 0, 62, 75
3, 284160, Note_on_c, 0, 62, 0
3, 284160, Note_on_c, 0, 59, 0
3, 284160, Note_on_c, 0, 56, 101
3, 284160, Note_on_c, 0, 68, 101
3, 284400, Note_on_c, 0, 68, 0
3, 284400, Note_on_c, 0, 56, 0
3, 284400, Note_on_c, 0, 60, 75
3, 284400, Note_on_c, 0, 63, 75
3, 284640, Note_on_c, 0, 63, 0
3, 284640, Note_on_c, 0, 60, 0
3, 284640, Note_on_c, 0, 55, 101
3, 284640, Note_on_c, 0, 67, 101
3, 284880, Note_on_c, 0, 67, 0
3, 284880, Note_on_c, 0, 55, 0
3, 284880, Note_on_c, 0, 60, 75
3, 284880, Note_on_c, 0, 63, 75
3, 285120, Note_on_c, 0, 63, 0
3, 285120, Note_on_c, 0, 60, 0
3, 285120, Note_on_c, 0, 57, 101
3, 285360, Note_on_c, 0, 57, 0
3, 285360, Note_on_c, 0, 51, 75
3, 285360, Note_on_c, 0, 55, 75
3, 285600, Note_on_c, 0, 55, 0
3, 285600, Note_on_c, 0, 51, 0
3, 285600, Note_on_c, 0, 59, 101
3, 285840, Note_on_c, 0, 59, 0
3, 285840, Note_on_c, 0, 60, 101
3, 286080, Note_on_c, 0, 60, 0
3, 286080, Note_on_c, 0, 63, 101
3, 286320, Note_on_c, 0, 63, 0
3, 286320, Note_on_c, 0, 53, 75
3, 286320, Note_on_c, 0, 59, 75
3, 286560, Note_on_c, 0, 59, 0
3, 286560, Note_on_c, 0, 53, 0
3, 286560, Note_on_c, 0, 62, 75
3, 286800, Note_on_c, 0, 62, 0
3, 287520, Note_on_c, 0, 55, 101
3, 287520, Note_on_c, 0, 67, 101
3, 287760, Note_on_c, 0, 67, 0
3, 287760, Note_on_c, 0, 55, 0
3, 287760, Note_on_c, 0, 59, 75
3, 287760, Note_on_c, 0, 62, 75
3, 288000, Note_on_c, 0, 62, 0
3, 288000, Note_on_c, 0, 59, 0
3, 288000, Note_on_c, 0, 56, 101
3, 288000, Note_on_c, 0, 68, 101
3, 288240, Note_on_c, 0, 68, 0
3, 288240, Note_on_c, 0, 56, 0
3, 288240, Note_on_c, 0, 60, 75
3, 288240, Note_on_c, 0, 63, 75
3, 288480, Note_on_c, 0, 63, 0
3, 288480, Note_on_c, 0, 60, 0
3, 288480, Note_on_c, 0, 55, 101
3, 288480, Note_on_c, 0, 67, 101
3, 288720, Note_on_c, 0, 67, 0
3, 288720, Note_on_c, 0, 55, 0
3, 288720, Note_on_c, 0, 60, 75
3, 288720, Note_on_c, 0, 63, 75
3, 288960, Note_on_c, 0, 63, 0
3, 288960, Note_on_c, 0, 60, 0
3, 288960, Note_on_c, 0, 57, 101
3, 289200, Note_on_c, 0, 57, 0
3, 289200, Note_on_c, 0, 51, 75
3, 289200, Note_on_c, 0, 55, 75
3, 289440, Note_on_c, 0, 55, 0
3, 289440, Note_on_c, 0, 51, 0
3, 289440, Note_on_c, 0, 59, 101
3, 289680, Note_on_c, 0, 59, 0
3, 289680, Note_on_c, 0, 60, 101
3, 289920, Note_on_c, 0, 60, 0
3, 289920, Note_on_c, 0, 63, 101
3, 290160, Note_on_c, 0, 63, 0
3, 290160, Note_on_c, 0, 53, 75
3, 290160, Note_on_c, 0, 59, 75
3, 290400, Note_on_c, 0, 59, 0
3, 290400, Note_on_c, 0, 53, 0
3, 290400, Note_on_c, 0, 62, 75
3, 290640, Note_on_c, 0, 62, 0
3, 291360, Note_on_c, 0, 55, 101
3, 291360, Note_on_c, 0, 67, 101
3, 291600, Note_on_c, 0, 67, 0
3, 291600, Note_on_c, 0, 55, 0
3, 291600, Note_on_c, 0, 59, 75
3, 291600, Note_on_c, 0, 62, 75
3, 291840, Note_on_c, 0, 62, 0
3, 291840, Note_on_c, 0, 59, 0
3, 291840, Note_on_c, 0, 56, 101
3, 291840, Note_on_c, 0, 68, 101
3, 292080, Note_on_c, 0, 68, 0
3, 292080, Note_on_c, 0, 56, 0
3, 292080, Note_on_c, 0, 60, 75
3, 292080, Note_on_c, 0, 63, 75
3, 292320, Note_on_c, 0, 63, 0
3, 292320, Note_on_c, 0, 60, 0
3, 292320, Note_on_c, 0, 55, 75
3, 292320, Note_on_c, 0, 67, 75
3, 292560, Note_on_c, 0, 67, 0
3, 292560, Note_on_c, 0, 55, 0
3, 292560, Note_on_c, 0, 60, 75
3, 292560, Note_on_c, 0, 63, 75
3, 292800, Note_on_c, 0, 63, 0
3, 292800, Note_on_c, 0, 60, 0
3, 292800, Note_on_c, 0, 57, 75
3, 293040, Note_on_c, 0, 57, 0
3, 293040, Note_on_c, 0, 51, 75
3, 293040, Note_on_c, 0, 55, 75
3, 293280, Note_on_c, 0, 55, 0
3, 293280, Note_on_c, 0, 51, 0
3, 293280, Note_on_c, 0, 59, 75
3, 293520, Note_on_c, 0, 59, 0
3, 293520, Note_on_c, 0, 60, 75
3, 293760, Note_on_c, 0, 60, 0
3, 293760, Note_on_c, 0, 62, 101
3, 294000, Note_on_c, 0, 62, 0
3, 294000, Note_on_c, 0, 51, 75
3, 294000, Note_on_c, 0, 57, 75
3, 294240, Note_on_c, 0, 57, 0
3, 294240, Note_on_c, 0, 51, 0
3, 294240, Note_on_c, 0, 60, 75
3, 294480, Note_on_c, 0, 60, 0
3, 295200, Note_on_c, 0, 53, 101
3, 295200, Note_on_c, 0, 65, 101
3, 295440, Note_on_c, 0, 65, 0
3, 295440, Note_on_c, 0, 53, 0
3, 295440, Note_on_c, 0, 60, 75
3, 295440, Note_on_c, 0, 63, 75
3, 295680, Note_on_c, 0, 63, 0
3, 295680, Note_on_c, 0, 60, 0
3, 295680, Note_on_c, 0, 55, 101
3, 295680, Note_on_c, 0, 67, 101
3, 295920, Note_on_c, 0, 67, 0
3, 295920, Note_on_c, 0, 55, 0
3, 295920, Note_on_c, 0, 58, 75
3, 295920, Note_on_c, 0, 62, 75
3, 296160, Note_on_c, 0, 62, 0
3, 296160, Note_on_c, 0, 58, 0
3, 296160, Note_on_c, 0, 53, 75
3, 296160, Note_on_c, 0, 65, 75
3, 296400, Note_on_c, 0, 65, 0
3, 296400, Note_on_c, 0, 53, 0
3, 296400, Note_on_c, 0, 58, 75
3, 296400, Note_on_c, 0, 62, 75
3, 296640, Note_on_c, 0, 62, 0
3, 296640, Note_on_c, 0, 58, 0
3, 296640, Note_on_c, 0, 55, 75
3, 296880, Note_on_c, 0, 55, 0
3, 296880, Note_on_c, 0, 50, 75
3, 296880, Note_on_c, 0, 53, 75
3, 297120, Note_on_c, 0, 53, 0
3, 297120, Note_on_c, 0, 50, 0
3, 297120, Note_on_c, 0, 57, 75
3, 297360, Note_on_c, 0, 57, 0
3, 297360, Note_on_c, 0, 58, 75
3, 297600, Note_on_c, 0, 58, 0
3, 297600, Note_on_c, 0, 62, 101
3, 297840, Note_on_c, 0, 62, 0
3, 297840, Note_on_c, 0, 51, 75
3, 297840, Note_on_c, 0, 57, 75
3, 298080, Note_on_c, 0, 57, 0
3, 298080, Note_on_c, 0, 51, 0
3, 298080, Note_on_c, 0, 60, 75
3, 298320, Note_on_c, 0, 60, 0
3, 299040, Note_on_c, 0, 53, 101
3, 299040, Note_on_c, 0, 65, 101
3, 299280, Note_on_c, 0, 65, 0
3, 299280, Note_on_c, 0, 53, 0
3, 299280, Note_on_c, 0, 60, 75
3, 299280, Note_on_c, 0, 63, 75
3, 299520, Note_on_c, 0, 63, 0
3, 299520, Note_on_c, 0, 60, 0
3, 299520, Note_on_c, 0, 55, 101
3, 299520, Note_on_c, 0, 67, 101
3, 299760, Note_on_c, 0, 67, 0
3, 299760, Note_on_c, 0, 55, 0
3, 299760, Note_on_c, 0, 58, 75
3, 299760, Note_on_c, 0, 62, 75
3, 300000, Note_on_c, 0, 62, 0
3, 300000, Note_on_c, 0, 58, 0
3, 300000, Note_on_c, 0, 53, 75
3, 300000, Note_on_c, 0, 65, 75
3, 300240, Note_on_c, 0, 65, 0
3, 300240, Note_on_c, 0, 53, 0
3, 300240, Note_on_c, 0, 58, 75
3, 300240, Note_on_c, 0, 62, 75
3, 300480, Note_on_c, 0, 62, 0
3, 300480, Note_on_c, 0, 58, 0
3, 300480, Note_on_c, 0, 50, 75
3, 300480, Note_on_c, 0, 58, 75
3, 300720, Note_on_c, 0, 58, 0
3, 300720, Note_on_c, 0, 50, 0
3, 300720, Note_on_c, 0, 58, 75
3, 300720, Note_on_c, 0, 62, 75
3, 300960, Note_on_c, 0, 62, 0
3, 300960, Note_on_c, 0, 58, 0
3, 300960, Note_on_c, 0, 53, 75
3, 300960, Note_on_c, 0, 65, 75
3, 301200, Note_on_c, 0, 65, 0
3, 301200, Note_on_c, 0, 53, 0
3, 301200, Note_on_c, 0, 58, 75
3, 301200, Note_on_c, 0, 62, 75
3, 301440, Note_on_c, 0, 62, 0
3, 301440, Note_on_c, 0, 58, 0
3, 301440, Note_on_c, 0, 55, 101
3, 301440, Note_on_c, 0, 67, 101
3, 301680, Note_on_c, 0, 67, 0
3, 301680, Note_on_c, 0, 55, 0
3, 301680, Note_on_c, 0, 58, 75
3, 301680, Note_on_c, 0, 62, 75
3, 301920, Note_on_c, 0, 62, 0
3, 301920, Note_on_c, 0, 58, 0
3, 301920, Note_on_c, 0, 53, 75
3, 301920, Note_on_c, 0, 65, 75
3, 302160, Note_on_c, 0, 65, 0
3, 302160, Note_on_c, 0, 53, 0
3, 302160, Note_on_c, 0, 58, 75
3, 302160, Note_on_c, 0, 62, 75
3, 302400, Note_on_c, 0, 62, 0
3, 302400, Note_on_c, 0, 58, 0
3, 302400, Note_on_c, 0, 50, 75
3, 302400, Note_on_c, 0, 58, 75
3, 302640, Note_on_c, 0, 58, 0
3, 302640, Note_on_c, 0, 50, 0
3, 302640, Note_on_c, 0, 58, 75
3, 302640, Note_on_c, 0, 62, 75
3, 302880, Note_on_c, 0, 62, 0
3, 302880, Note_on_c, 0, 58, 0
3, 302880, Note_on_c, 0, 53, 75
3, 302880, Note_on_c, 0, 65, 75
3, 303120, Note_on_c, 0, 65, 0
3, 303120, Note_on_c, 0, 53, 0
3, 303120, Note_on_c, 0, 58, 75
3, 303120, Note_on_c, 0, 62, 75
3, 303360, Note_on_c, 0, 62, 0
3, 303360, Note_on_c, 0, 58, 0
3, 303360, Note_on_c, 0, 56, 101
3, 303360, Note_on_c, 0, 68, 101
3, 303600, Note_on_c, 0, 68, 0
3, 303600, Note_on_c, 0, 56, 0
3, 303600, Note_on_c, 0, 59, 75
3, 303600, Note_on_c, 0, 62, 75
3, 303840, Note_on_c, 0, 62, 0
3, 303840, Note_on_c, 0, 59, 0
3, 303840, Note_on_c, 0, 55, 75
3, 303840, Note_on_c, 0, 67, 75
3, 304080, Note_on_c, 0, 67, 0
3, 304080, Note_on_c, 0, 55, 0
3, 304080, Note_on_c, 0, 59, 75
3, 304080, Note_on_c, 0, 62, 75
3, 304320, Note_on_c, 0, 62, 0
3, 304320, Note_on_c, 0, 59, 0
3, 304320, Note_on_c, 0, 50, 75
3, 304320, Note_on_c, 0, 59, 75
3, 304560, Note_on_c, 0, 59, 0
3, 304560, Note_on_c, 0, 50, 0
3, 304560, Note_on_c, 0, 59, 75
3, 304560, Note_on_c, 0, 62, 75
3, 304800, Note_on_c, 0, 62, 0
3, 304800, Note_on_c, 0, 59, 0
3, 304800, Note_on_c, 0, 55, 75
3, 304800, Note_on_c, 0, 67, 75
3, 305040, Note_on_c, 0, 67, 0
3, 305040, Note_on_c, 0, 55, 0
3, 305040, Note_on_c, 0, 59, 75
3, 305040, Note_on_c, 0, 62, 75
3, 305280, Note_on_c, 0, 62, 0
3, 305280, Note_on_c, 0, 59, 0
3, 305280, Note_on_c, 0, 58, 101
3, 305280, Note_on_c, 0, 70, 101
3, 305520, Note_on_c, 0, 70, 0
3, 305520, Note_on_c, 0, 58, 0
3, 305520, Note_on_c, 0, 61, 75
3, 305520, Note_on_c, 0, 64, 75
3, 305760, Note_on_c, 0, 64, 0
3, 305760, Note_on_c, 0, 61, 0
3, 305760, Note_on_c, 0, 57, 75
3, 305760, Note_on_c, 0, 69, 75
3, 306000, Note_on_c, 0, 69, 0
3, 306000, Note_on_c, 0, 57, 0
3, 306000, Note_on_c, 0, 61, 75
3, 306000, Note_on_c, 0, 64, 75
3, 306240, Note_on_c, 0, 64, 0
3, 306240, Note_on_c, 0, 61, 0
3, 306240, Note_on_c, 0, 52, 75
3, 306240, Note_on_c, 0, 55, 75
3, 306240, Note_on_c, 0, 61, 75
3, 306480, Note_on_c, 0, 61, 0
3, 306480, Note_on_c, 0, 55, 0
3, 306480, Note_on_c, 0, 52, 0
3, 306480, Note_on_c, 0, 55, 75
3, 306480, Note_on_c, 0, 61, 75
3, 306480, Note_on_c, 0, 64, 75
3, 306720, Note_on_c, 0, 64, 0
3, 306720, Note_on_c, 0, 61, 0
3, 306720, Note_on_c, 0, 55, 0
3, 306720, Note_on_c, 0, 57, 75
3, 306720, Note_on_c, 0, 69, 75
3, 306960, Note_on_c, 0, 69, 0
3, 306960, Note_on_c, 0, 57, 0
3, 306960, Note_on_c, 0, 61, 75
3, 306960, Note_on_c, 0, 64, 75
3, 307200, Note_on_c, 0, 64, 0
3, 307200, Note_on_c, 0, 61, 0
3, 307200, Note_on_c, 0, 58, 88
3, 307200, Note_on_c, 0, 70, 88
3, 307440, Note_on_c, 0, 70, 0
3, 307440, Note_on_c, 0, 58, 0
3, 307440, Note_on_c, 0, 62, 88
3, 307440, Note_on_c, 0, 65, 88
3, 307680, Note_on_c, 0, 65, 0
3, 307680, Note_on_c, 0, 62, 0
3, 307680, Note_on_c, 0, 57, 75
3, 307680, Note_on_c, 0, 69, 75
3, 307920, Note_on_c, 0, 69, 0
3, 307920, Note_on_c, 0, 57, 0
3, 307920, Note_on_c, 0, 62, 75
3, 307920, Note_on_c, 0, 65, 75
3, 308160, Note_on_c, 0, 65, 0
3, 308160, Note_on_c, 0, 62, 0
3, 308160, Note_on_c, 0, 59, 75
3, 308400, Note_on_c, 0, 59, 0
3, 308400, Note_on_c, 0, 53, 75
3, 308400, Note_on_c, 0, 57, 75
3, 308640, Note_on_c, 0, 57, 0
3, 308640, Note_on_c, 0, 53, 0
3, 308640, Note_on_c, 0, 61, 75
3, 308880, Note_on_c, 0, 61, 0
3, 308880, Note_on_c, 0, 62, 75
3, 309120, Note_on_c, 0, 62, 0
3, 309120, Note_on_c, 0, 65, 101
3, 309360, Note_on_c, 0, 65, 0
3, 309360, Note_on_c, 0, 55, 75
3, 309360, Note_on_c, 0, 61, 75
3, 309600, Note_on_c, 0, 61, 0
3, 309600, Note_on_c, 0, 55, 0
3, 309600, Note_on_c, 0, 64, 75
3, 309840, Note_on_c, 0, 64, 0
3, 310560, Note_on_c, 0, 57, 75
3, 310560, Note_on_c, 0, 69, 75
3, 310800, Note_on_c, 0, 69, 0
3, 310800, Note_on_c, 0, 57, 0
3, 310800, Note_on_c, 0, 61, 75
3, 310800, Note_on_c, 0, 64, 75
3, 311040, Note_on_c, 0, 64, 0
3, 311040, Note_on_c, 0, 61, 0
3, 311040, Note_on_c, 0, 58, 114
3, 311040, Note_on_c, 0, 70, 114
3, 311280, Note_on_c, 0, 70, 0
3, 311280, Note_on_c, 0, 58, 0
3, 311280, Note_on_c, 0, 62, 88
3, 311280, Note_on_c, 0, 65, 88
3, 311520, Note_on_c, 0, 65, 0
3, 311520, Note_on_c, 0, 62, 0
3, 311520, Note_on_c, 0, 57, 75
3, 311520, Note_on_c, 0, 69, 75
3, 311760, Note_on_c, 0, 69, 0
3, 311760, Note_on_c, 0, 57, 0
3, 311760, Note_on_c, 0, 62, 75
3, 311760, Note_on_c, 0, 65, 75
3, 312000, Note_on_c, 0, 65, 0
3, 312000, Note_on_c, 0, 62, 0
3, 312000, Note_on_c, 0, 59, 75
3, 312240, Note_on_c, 0, 59, 0
3, 312240, Note_on_c, 0, 53, 75
3, 312240, Note_on_c, 0, 57, 75
3, 312480, Note_on_c, 0, 57, 0
3, 312480, Note_on_c, 0, 53, 0
3, 312480, Note_on_c, 0, 61, 75
3, 312720, Note_on_c, 0, 61, 0
3, 312720, Note_on_c, 0, 62, 75
3, 312960, Note_on_c, 0, 62, 0
3, 312960, Note_on_c, 0, 64, 101
3, 313200, Note_on_c, 0, 64, 0
3, 313200, Note_on_c, 0, 53, 75
3, 313200, Note_on_c, 0, 59, 75
3, 313440, Note_on_c, 0, 59, 0
3, 313440, Note_on_c, 0, 53, 0
3, 313440, Note_on_c, 0, 62, 75
3, 313680, Note_on_c, 0, 62, 0
3, 314400, Note_on_c, 0, 55, 75
3, 314400, Note_on_c, 0, 67, 75
3, 314640, Note_on_c, 0, 67, 0
3, 314640, Note_on_c, 0, 55, 0
3, 314640, Note_on_c, 0, 62, 75
3, 314640, Note_on_c, 0, 65, 75
3, 314880, Note_on_c, 0, 65, 0
3, 314880, Note_on_c, 0, 62, 0
3, 314880, Note_on_c, 0, 57, 101
3, 314880, Note_on_c, 0, 69, 101
3, 315120, Note_on_c, 0, 69, 0
3, 315120, Note_on_c, 0, 57, 0
3, 315120, Note_on_c, 0, 60, 75
3, 315120, Note_on_c, 0, 64, 75
3, 315360, Note_on_c, 0, 64, 0
3, 315360, Note_on_c, 0, 60, 0
3, 315360, Note_on_c, 0, 55, 75
3, 315360, Note_on_c, 0, 67, 75
3, 315600, Note_on_c, 0, 67, 0
3, 315600, Note_on_c, 0, 55, 0
3, 315600, Note_on_c, 0, 60, 75
3, 315600, Note_on_c, 0, 64, 75
3, 315840, Note_on_c, 0, 64, 0
3, 315840, Note_on_c, 0, 60, 0
3, 315840, Note_on_c, 0, 57, 75
3, 316080, Note_on_c, 0, 57, 0
3, 316080, Note_on_c, 0, 52, 75
3, 316080, Note_on_c, 0, 55, 75
3, 316320, Note_on_c, 0, 55, 0
3, 316320, Note_on_c, 0, 52, 0
3, 316320, Note_on_c, 0, 59, 75
3, 316560, Note_on_c, 0, 59, 0
3, 316560, Note_on_c, 0, 60, 75
3, 316800, Note_on_c, 0, 60, 0
3, 316800, Note_on_c, 0, 64, 101
3, 317040, Note_on_c, 0, 64, 0
3, 317040, Note_on_c, 0, 53, 75
3, 317040, Note_on_c, 0, 59, 75
3, 317280, Note_on_c, 0, 59, 0
3, 317280, Note_on_c, 0, 53, 0
3, 317280, Note_on_c, 0, 62, 75
3, 317520, Note_on_c, 0, 62, 0
3, 318240, Note_on_c, 0, 55, 75
3, 318240, Note_on_c, 0, 67, 75
3, 318480, Note_on_c, 0, 67, 0
3, 318480, Note_on_c, 0, 55, 0
3, 318480, Note_on_c, 0, 62, 75
3, 318480, Note_on_c, 0, 65, 75
3, 318720, Note_on_c, 0, 65, 0
3, 318720, Note_on_c, 0, 62, 0
3, 318720, Note_on_c, 0, 57, 101
3, 318720, Note_on_c, 0, 69, 101
3, 318960, Note_on_c, 0, 69, 0
3, 318960, Note_on_c, 0, 57, 0
3, 318960, Note_on_c, 0, 60, 75
3, 318960, Note_on_c, 0, 64, 75
3, 319200, Note_on_c, 0, 64, 0
3, 319200, Note_on_c, 0, 60, 0
3, 319200, Note_on_c, 0, 55, 75
3, 319200, Note_on_c, 0, 67, 75
3, 319440, Note_on_c, 0, 67, 0
3, 319440, Note_on_c, 0, 55, 0
3, 319440, Note_on_c, 0, 60, 75
3, 319440, Note_on_c, 0, 64, 75
3, 319680, Note_on_c, 0, 64, 0
3, 319680, Note_on_c, 0, 60, 0
3, 319680, Note_on_c, 0, 52, 75
3, 319680, Note_on_c, 0, 60, 75
3, 319920, Note_on_c, 0, 60, 0
3, 319920, Note_on_c, 0, 52, 0
3, 319920, Note_on_c, 0, 60, 75
3, 319920, Note_on_c, 0, 64, 75
3, 320160, Note_on_c, 0, 64, 0
3, 320160, Note_on_c, 0, 60, 0
3, 320160, Note_on_c, 0, 55, 75
3, 320160, Note_on_c, 0, 67, 75
3, 320400, Note_on_c, 0, 67, 0
3, 320400, Note_on_c, 0, 55, 0
3, 320400, Note_on_c, 0, 60, 75
3, 320400, Note_on_c, 0, 64, 75
3, 320640, Note_on_c, 0, 64, 0
3, 320640, Note_on_c, 0, 60, 0
3, 320640, Note_on_c, 0, 57, 114
3, 320640, Note_on_c, 0, 69, 114
3, 320880, Note_on_c, 0, 69, 0
3, 320880, Note_on_c, 0, 57, 0
3, 320880, Note_on_c, 0, 60, 88
3, 320880, Note_on_c, 0, 64, 88
3, 321120, Note_on_c, 0, 64, 0
3, 321120, Note_on_c, 0, 60, 0
3, 321120, Note_on_c, 0, 55, 88
3, 321120, Note_on_c, 0, 67, 88
3, 321360, Note_on_c, 0, 67, 0
3, 321360, Note_on_c, 0, 55, 0
3, 321360, Note_on_c, 0, 60, 88
3, 321360, Note_on_c, 0, 64, 88
3, 321600, Note_on_c, 0, 64, 0
3, 321600, Note_on_c, 0, 60, 0
3, 321600, Note_on_c, 0, 52, 88
3, 321600, Note_on_c, 0, 60, 88
3, 321840, Note_on_c, 0, 60, 0
3, 321840, Note_on_c, 0, 52, 0
3, 321840, Note_on_c, 0, 60, 88
3, 321840, Note_on_c, 0, 64, 88
3, 322080, Note_on_c, 0, 64, 0
3, 322080, Note_on_c, 0, 60, 0
3, 322080, Note_on_c, 0, 55, 88
3, 322080, Note_on_c, 0, 67, 88
3, 322320, Note_on_c, 0, 67, 0
3, 322320, Note_on_c, 0, 55, 0
3, 322320, Note_on_c, 0, 60, 88
3, 322320, Note_on_c, 0, 64, 88
3, 322560, Note_on_c, 0, 64, 0
3, 322560, Note_on_c, 0, 60, 0
3, 322560, Note_on_c, 0, 58, 88
3, 322560, Note_on_c, 0, 70, 88
3, 322800, Note_on_c, 0, 70, 0
3, 322800, Note_on_c, 0, 58, 0
3, 322800, Note_on_c, 0, 61, 88
3, 322800, Note_on_c, 0, 64, 88
3, 323040, Note_on_c, 0, 64, 0
3, 323040, Note_on_c, 0, 61, 0
3, 323040, Note_on_c, 0, 57, 88
3, 323040, Note_on_c, 0, 69, 88
3, 323280, Note_on_c, 0, 69, 0
3, 323280, Note_on_c, 0, 57, 0
3, 323280, Note_on_c, 0, 61, 88
3, 323280, Note_on_c, 0, 64, 88
3, 323520, Note_on_c, 0, 64, 0
3, 323520, Note_on_c, 0, 61, 0
3, 323520, Note_on_c, 0, 52, 88
3, 323520, Note_on_c, 0, 55, 88
3, 323520, Note_on_c, 0, 61, 88
3, 323760, Note_on_c, 0, 61, 0
3, 323760, Note_on_c, 0, 55, 0
3, 323760, Note_on_c, 0, 52, 0
3, 323760, Note_on_c, 0, 55, 88
3, 323760, Note_on_c, 0, 61, 88
3, 323760, Note_on_c, 0, 64, 88
3, 324000, Note_on_c, 0, 64, 0
3, 324000, Note_on_c, 0, 61, 0
3, 324000, Note_on_c, 0, 55, 0
3, 324000, Note_on_c, 0, 57, 88
3, 324000, Note_on_c, 0, 69, 88
3, 324240, Note_on_c, 0, 69, 0
3, 324240, Note_on_c, 0, 57, 0
3, 324240, Note_on_c, 0, 61, 88
3, 324240, Note_on_c, 0, 64, 88
3, 324480, Note_on_c, 0, 64, 0
3, 324480, Note_on_c, 0, 61, 0
3, 324480, Note_on_c, 0, 58, 88
3, 324480, Note_on_c, 0, 70, 88
3, 324720, Note_on_c, 0, 70, 0
3, 324720, Note_on_c, 0, 58, 0
3, 324720, Note_on_c, 0, 61, 88
3, 324720, Note_on_c, 0, 64, 88
3, 324960, Note_on_c, 0, 64, 0
3, 324960, Note_on_c, 0, 61, 0
3, 324960, Note_on_c, 0, 57, 88
3, 324960, Note_on_c, 0, 69, 88
3, 325200, Note_on_c, 0, 69, 0
3, 325200, Note_on_c, 0, 57, 0
3, 325200, Note_on_c, 0, 61, 88
3, 325200, Note_on_c, 0, 64, 88
3, 325440, Note_on_c, 0, 64, 0
3, 325440, Note_on_c, 0, 61, 0
3, 325440, Note_on_c, 0, 52, 88
3, 325440, Note_on_c, 0, 55, 88
3, 325440, Note_on_c, 0, 61, 88
3, 325680, Note_on_c, 0, 61, 0
3, 325680, Note_on_c, 0, 55, 0
3, 325680, Note_on_c, 0, 52, 0
3, 325680, Note_on_c, 0, 55, 88
3, 325680, Note_on_c, 0, 61, 88
3, 325680, Note_on_c, 0, 64, 88
3, 325920, Note_on_c, 0, 64, 0
3, 325920, Note_on_c, 0, 61, 0
3, 325920, Note_on_c, 0, 55, 0
3, 325920, Note_on_c, 0, 57, 88
3, 325920, Note_on_c, 0, 69, 88
3, 326160, Note_on_c, 0, 69, 0
3, 326160, Note_on_c, 0, 57, 0
3, 326160, Note_on_c, 0, 61, 88
3, 326160, Note_on_c, 0, 64, 88
3, 326400, Note_on_c, 0, 64, 0
3, 326400, Note_on_c, 0, 61, 0
3, 326400, Note_on_c, 0, 58, 88
3, 326400, Note_on_c, 0, 70, 88
3, 326640, Note_on_c, 0, 70, 0
3, 326640, Note_on_c, 0, 58, 0
3, 326640, Note_on_c, 0, 62, 88
3, 326640, Note_on_c, 0, 65, 88
3, 326880, Note_on_c, 0, 65, 0
3, 326880, Note_on_c, 0, 62, 0
3, 326880, Note_on_c, 0, 57, 88
3, 326880, Note_on_c, 0, 69, 88
3, 327120, Note_on_c, 0, 69, 0
3, 327120, Note_on_c, 0, 57, 0
3, 327120, Note_on_c, 0, 62, 88
3, 327120, Note_on_c, 0, 65, 88
3, 327360, Note_on_c, 0, 65, 0
3, 327360, Note_on_c, 0, 62, 0
3, 327360, Note_on_c, 0, 53, 88
3, 327360, Note_on_c, 0, 62, 88
3, 327600, Note_on_c, 0, 62, 0
3, 327600, Note_on_c, 0, 53, 0
3, 327600, Note_on_c, 0, 62, 88
3, 327600, Note_on_c, 0, 65, 88
3, 327840, Note_on_c, 0, 65, 0
3, 327840, Note_on_c, 0, 62, 0
3, 327840, Note_on_c, 0, 57, 88
3, 327840, Note_on_c, 0, 69, 88
3, 328080, Note_on_c, 0, 69, 0
3, 328080, Note_on_c, 0, 57, 0
3, 328080, Note_on_c, 0, 62, 88
3, 328080, Note_on_c, 0, 65, 88
3, 328320, Note_on_c, 0, 65, 0
3, 328320, Note_on_c, 0, 62, 0
3, 328320, Note_on_c, 0, 60, 88
3, 328320, Note_on_c, 0, 72, 88
3, 328560, Note_on_c, 0, 72, 0
3, 328560, Note_on_c, 0, 60, 0
3, 328560, Note_on_c, 0, 63, 88
3, 328560, Note_on_c, 0, 66, 88
3, 328800, Note_on_c, 0, 66, 0
3, 328800, Note_on_c, 0, 63, 0
3, 328800, Note_on_c, 0, 59, 88
3, 328800, Note_on_c, 0, 71, 88
3, 329040, Note_on_c, 0, 71, 0
3, 329040, Note_on_c, 0, 59, 0
3, 329040, Note_on_c, 0, 63, 88
3, 329040, Note_on_c, 0, 66, 88
3, 329280, Note_on_c, 0, 66, 0
3, 329280, Note_on_c, 0, 63, 0
3, 329280, Note_on_c, 0, 54, 88
3, 329280, Note_on_c, 0, 57, 88
3, 329280, Note_on_c, 0, 63, 88
3, 329520, Note_on_c, 0, 63, 0
3, 329520, Note_on_c, 0, 57, 0
3, 329520, Note_on_c, 0, 54, 0
3, 329520, Note_on_c, 0, 57, 88
3, 329520, Note_on_c, 0, 63, 88
3, 329520, Note_on_c, 0, 66, 88
3, 329760, Note_on_c, 0, 66, 0
3, 329760, Note_on_c, 0, 63, 0
3, 329760, Note_on_c, 0, 57, 0
3, 329760, Note_on_c, 0, 59, 88
3, 329760, Note_on_c, 0, 71, 88
3, 330000, Note_on_c, 0, 71, 0
3, 330000, Note_on_c, 0, 59, 0
3, 330000, Note_on_c, 0, 63, 88
3, 330000, Note_on_c, 0, 66, 88
3, 330240, Note_on_c, 0, 66, 0
3, 330240, Note_on_c, 0, 63, 0
3, 330240, Note_on_c, 0, 60, 88
3, 330240, Note_on_c, 0, 72, 88
3, 330480, Note_on_c, 0, 72, 0
3, 330480, Note_on_c, 0, 60, 0
3, 330480, Note_on_c, 0, 64, 88
3, 330480, Note_on_c, 0, 67, 88
3, 330720, Note_on_c, 0, 67, 0
3, 330720, Note_on_c, 0, 64, 0
3, 330720, Note_on_c, 0, 59, 88
3, 330720, Note_on_c, 0, 71, 88
3, 330960, Note_on_c, 0, 71, 0
3, 330960, Note_on_c, 0, 59, 0
3, 330960, Note_on_c, 0, 64, 88
3, 330960, Note_on_c, 0, 67, 88
3, 331200, Note_on_c, 0, 67, 0
3, 331200, Note_on_c, 0, 64, 0
3, 331200, Note_on_c, 0, 55, 88
3, 331200, Note_on_c, 0, 64, 88
3, 331440, Note_on_c, 0, 64, 0
3, 331440, Note_on_c, 0, 55, 0
3, 331440, Note_on_c, 0, 64, 88
3, 331440, Note_on_c, 0, 67, 88
3, 331680, Note_on_c, 0, 67, 0
3, 331680, Note_on_c, 0, 64, 0
3, 331680, Note_on_c, 0, 59, 88
3, 331680, Note_on_c, 0, 71, 88
3, 331920, Note_on_c, 0, 71, 0
3, 331920, Note_on_c, 0, 59, 0
3, 331920, Note_on_c, 0, 64, 88
3, 331920, Note_on_c, 0, 67, 88
3, 332160, Note_on_c, 0, 67, 0
3, 332160, Note_on_c, 0, 64, 0
3, 332160, Note_on_c, 0, 62, 88
3, 332160, Note_on_c, 0, 74, 88
3, 332400, Note_on_c, 0, 74, 0
3, 332400, Note_on_c, 0, 62, 0
3, 332400, Note_on_c, 0, 65, 88
3, 332400, Note_on_c, 0, 68, 88
3, 332640, Note_on_c, 0, 68, 0
3, 332640, Note_on_c, 0, 65, 0
3, 332640, Note_on_c, 0, 61, 88
3, 332640, Note_on_c, 0, 73, 88
3, 332880, Note_on_c, 0, 73, 0
3, 332880, Note_on_c, 0, 61, 0
3, 332880, Note_on_c, 0, 65, 88
3, 332880, Note_on_c, 0, 68, 88
3, 333120, Note_on_c, 0, 68, 0
3, 333120, Note_on_c, 0, 65, 0
3, 333120, Note_on_c, 0, 56, 88
3, 333120, Note_on_c, 0, 59, 88
3, 333120, Note_on_c, 0, 65, 88
3, 333360, Note_on_c, 0, 65, 0
3, 333360, Note_on_c, 0, 59, 0
3, 333360, Note_on_c, 0, 56, 0
3, 333360, Note_on_c, 0, 59, 88
3, 333360, Note_on_c, 0, 65, 88
3, 333360, Note_on_c, 0, 68, 88
3, 333600, Note_on_c, 0, 68, 0
3, 333600, Note_on_c, 0, 65, 0
3, 333600, Note_on_c, 0, 59, 0
3, 333600, Note_on_c, 0, 61, 88
3, 333600, Note_on_c, 0, 73, 88
3, 333840, Note_on_c, 0, 73, 0
3, 333840, Note_on_c, 0, 61, 0
3, 333840, Note_on_c, 0, 61, 88
3, 333840, Note_on_c, 0, 65, 88
3, 334080, Note_on_c, 0, 65, 0
3, 334080, Note_on_c, 0, 61, 0
3, 334080, Note_on_c, 0, 62, 88
3, 334080, Note_on_c, 0, 74, 88
3, 334320, Note_on_c, 0, 74, 0
3, 334320, Note_on_c, 0, 62, 0
3, 334320, Note_on_c, 0, 66, 88
3, 334320, Note_on_c, 0, 69, 88
3, 334560, Note_on_c, 0, 69, 0
3, 334560, Note_on_c, 0, 66, 0
3, 334560, Note_on_c, 0, 61, 88
3, 334560, Note_on_c, 0, 73, 88
3, 334800, Note_on_c, 0, 73, 0
3, 334800, Note_on_c, 0, 61, 0
3, 334800, Note_on_c, 0, 66, 88
3, 334800, Note_on_c, 0, 69, 88
3, 335040, Note_on_c, 0, 69, 0
3, 335040, Note_on_c, 0, 66, 0
3, 335040, Note_on_c, 0, 57, 88
3, 335040, Note_on_c, 0, 66, 88
3, 335280, Note_on_c, 0, 66, 0
3, 335280, Note_on_c, 0, 57, 0
3, 335280, Note_on_c, 0, 66, 88
3, 335280, Note_on_c, 0, 69, 88
3, 335520, Note_on_c, 0, 69, 0
3, 335520, Note_on_c, 0, 66, 0
3, 335640, Note_on_c, 0, 69, 88
3, 335760, Note_on_c, 0, 69, 0
3, 335760, Note_on_c, 0, 66, 88
3, 335880, Note_on_c, 0, 66, 0
3, 335880, Note_on_c, 0, 61, 88
3, 336000, Note_on_c, 0, 61, 0
3, 336120, Note_on_c, 0, 69, 88
3, 336360, Note_on_c, 0, 69, 0
3, 336360, Note_on_c, 0, 69, 88
3, 336600, Note_on_c, 0, 69, 0
3, 336600, Note_on_c, 0, 69, 88
3, 336720, Note_on_c, 0, 69, 0
3, 336720, Note_on_c, 0, 66, 88
3, 336840, Note_on_c, 0, 66, 0
3, 336840, Note_on_c, 0, 60, 88
3, 336960, Note_on_c, 0, 60, 0
3, 336960, Note_on_c, 0, 57, 88
3, 337080, Note_on_c, 0, 57, 0
3, 337080, Note_on_c, 0, 60, 88
3, 337200, Note_on_c, 0, 60, 0
3, 337200, Note_on_c, 0, 66, 88
3, 337320, Note_on_c, 0, 66, 0
3, 337320, Note_on_c, 0, 69, 88
3, 337440, Note_on_c, 0, 69, 0
3, 337560, Note_on_c, 0, 69, 88
3, 337680, Note_on_c, 0, 69, 0
3, 337680, Note_on_c, 0, 66, 88
3, 337800, Note_on_c, 0, 66, 0
3, 337800, Note_on_c, 0, 61, 88
3, 337920, Note_on_c, 0, 61, 0
3, 338040, Note_on_c, 0, 69, 88
3, 338160, Note_on_c, 0, 69, 0
3, 338160, Note_on_c, 0, 66, 88
3, 338280, Note_on_c, 0, 66, 0
3, 338280, Note_on_c, 0, 63, 88
3, 338400, Note_on_c, 0, 63, 0
3, 338400, Note_on_c, 0, 66, 88
3, 338520, Note_on_c, 0, 66, 0
3, 338520, Note_on_c, 0, 63, 88
3, 338640, Note_on_c, 0, 63, 0
3, 338640, Note_on_c, 0, 57, 88
3, 338760, Note_on_c, 0, 57, 0
3, 338760, Note_on_c, 0, 54, 88
3, 338880, Note_on_c, 0, 54, 0
3, 338880, Note_on_c, 0, 57, 88
3, 339000, Note_on_c, 0, 57, 0
3, 339000, Note_on_c, 0, 63, 88
3, 339120, Note_on_c, 0, 63, 0
3, 339120, Note_on_c, 0, 66, 88
3, 339240, Note_on_c, 0, 66, 0
3, 339240, Note_on_c, 0, 69, 88
3, 339360, Note_on_c, 0, 69, 0
3, 339480, Note_on_c, 0, 71, 88
3, 339600, Note_on_c, 0, 71, 0
3, 339600, Note_on_c, 0, 68, 88
3, 339720, Note_on_c, 0, 68, 0
3, 339720, Note_on_c, 0, 63, 88
3, 339840, Note_on_c, 0, 63, 0
3, 339960, Note_on_c, 0, 71, 88
3, 340200, Note_on_c, 0, 71, 0
3, 340200, Note_on_c, 0, 71, 88
3, 340440, Note_on_c, 0, 71, 0
3, 340440, Note_on_c, 0, 71, 88
3, 340560, Note_on_c, 0, 71, 0
3, 340560, Note_on_c, 0, 68, 88
3, 340680, Note_on_c, 0, 68, 0
3, 340680, Note_on_c, 0, 62, 88
3, 340800, Note_on_c, 0, 62, 0
3, 340800, Note_on_c, 0, 59, 88
3, 340920, Note_on_c, 0, 59, 0
3, 340920, Note_on_c, 0, 62, 88
3, 341040, Note_on_c, 0, 62, 0
3, 341040, Note_on_c, 0, 68, 88
3, 341160, Note_on_c, 0, 68, 0
3, 341160, Note_on_c, 0, 71, 88
3, 341280, Note_on_c, 0, 71, 0
3, 341400, Note_on_c, 0, 71, 88
3, 341520, Note_on_c, 0, 71, 0
3, 341520, Note_on_c, 0, 68, 88
3, 341640, Note_on_c, 0, 68, 0
3, 341640, Note_on_c, 0, 63, 88
3, 341760, Note_on_c, 0, 63, 0
3, 341880, Note_on_c, 0, 71, 88
3, 342000, Note_on_c, 0, 71, 0
3, 342000, Note_on_c, 0, 68, 88
3, 342120, Note_on_c, 0, 68, 0
3, 342120, Note_on_c, 0, 65, 88
3, 342240, Note_on_c, 0, 65, 0
3, 342240, Note_on_c, 0, 68, 88
3, 342360, Note_on_c, 0, 68, 0
3, 342360, Note_on_c, 0, 65, 88
3, 342480, Note_on_c, 0, 65, 0
3, 342480, Note_on_c, 0, 59, 88
3, 342600, Note_on_c, 0, 59, 0
3, 342600, Note_on_c, 0, 56, 88
3, 342720, Note_on_c, 0, 56, 0
3, 342720, Note_on_c, 0, 59, 88
3, 342840, Note_on_c, 0, 59, 0
3, 342840, Note_on_c, 0, 65, 88
3, 342960, Note_on_c, 0, 65, 0
3, 342960, Note_on_c, 0, 68, 88
3, 343080, Note_on_c, 0, 68, 0
3, 343080, Note_on_c, 0, 71, 88
3, 343200, Note_on_c, 0, 71, 0
3, 343320, Note_on_c, 0, 73, 88
3, 343440, Note_on_c, 0, 73, 0
3, 343440, Note_on_c, 0, 70, 88
3, 343560, Note_on_c, 0, 70, 0
3, 343560, Note_on_c, 0, 65, 88
3, 343680, Note_on_c, 0, 65, 0
3, 343800, Note_on_c, 0, 73, 88
3, 344040, Note_on_c, 0, 73, 0
3, 344040, Note_on_c, 0, 73, 88
3, 344280, Note_on_c, 0, 73, 0
3, 344280, Note_on_c, 0, 73, 88
3, 344400, Note_on_c, 0, 73, 0
3, 344400, Note_on_c, 0, 70, 88
3, 344520, Note_on_c, 0, 70, 0
3, 344520, Note_on_c, 0, 64, 88
3, 344640, Note_on_c, 0, 64, 0
3, 344640, Note_on_c, 0, 61, 88
3, 344760, Note_on_c, 0, 61, 0
3, 344760, Note_on_c, 0, 64, 88
3, 344880, Note_on_c, 0, 64, 0
3, 344880, Note_on_c, 0, 70, 88
3, 345000, Note_on_c, 0, 70, 0
3, 345000, Note_on_c, 0, 73, 88
3, 345120, Note_on_c, 0, 73, 0
3, 345240, Note_on_c, 0, 73, 88
3, 345360, Note_on_c, 0, 73, 0
3, 345360, Note_on_c, 0, 70, 88
3, 345480, Note_on_c, 0, 70, 0
3, 345480, Note_on_c, 0, 67, 88
3, 345600, Note_on_c, 0, 67, 0
3, 345720, Note_on_c, 0, 75, 88
3, 345960, Note_on_c, 0, 75, 0
3, 345960, Note_on_c, 0, 75, 88
3, 346200, Note_on_c, 0, 75, 0
3, 346200, Note_on_c, 0, 75, 88
3, 346320, Note_on_c, 0, 75, 0
3, 346320, Note_on_c, 0, 72, 88
3, 346440, Note_on_c, 0, 72, 0
3, 346440, Note_on_c, 0, 66, 88
3, 346560, Note_on_c, 0, 66, 0
3, 346560, Note_on_c, 0, 63, 88
3, 346680, Note_on_c, 0, 63, 0
3, 346680, Note_on_c, 0, 66, 88
3, 346800, Note_on_c, 0, 66, 0
3, 346800, Note_on_c, 0, 72, 88
3, 346920, Note_on_c, 0, 72, 0
3, 346920, Note_on_c, 0, 75, 88
3, 347040, Note_on_c, 0, 75, 0
3, 347160, Note_on_c, 0, 75, 88
3, 347280, Note_on_c, 0, 75, 0
3, 347280, Note_on_c, 0, 72, 88
3, 347400, Note_on_c, 0, 72, 0
3, 347400, Note_on_c, 0, 69, 88
3, 347520, Note_on_c, 0, 69, 0
3, 347640, Note_on_c, 0, 77, 88
3, 347880, Note_on_c, 0, 77, 0
3, 347880, Note_on_c, 0, 76, 88
3, 348120, Note_on_c, 0, 76, 0
3, 348120, Note_on_c, 0, 77, 88
3, 348240, Note_on_c, 0, 77, 0
3, 348240, Note_on_c, 0, 74, 88
3, 348360, Note_on_c, 0, 74, 0
3, 348360, Note_on_c, 0, 67, 88
3, 348480, Note_on_c, 0, 67, 0
3, 348600, Note_on_c, 0, 78, 88
3, 348840, Note_on_c, 0, 78, 0
3, 348840, Note_on_c, 0, 77, 88
3, 349080, Note_on_c, 0, 77, 0
3, 349080, Note_on_c, 0, 78, 88
3, 349200, Note_on_c, 0, 78, 0
3, 349200, Note_on_c, 0, 75, 88
3, 349320, Note_on_c, 0, 75, 0
3, 349320, Note_on_c, 0, 69, 88
3, 349440, Note_on_c, 0, 69, 0
3, 349560, Note_on_c, 0, 79, 88
3, 349800, Note_on_c, 0, 79, 0
3, 349800, Note_on_c, 0, 78, 88
3, 350040, Note_on_c, 0, 78, 0
3, 350040, Note_on_c, 0, 79, 88
3, 350160, Note_on_c, 0, 79, 0
3, 350160, Note_on_c, 0, 76, 88
3, 350280, Note_on_c, 0, 76, 0
3, 350280, Note_on_c, 0, 70, 88
3, 350400, Note_on_c, 0, 70, 0
3, 350520, Note_on_c, 0, 80, 88
3, 350760, Note_on_c, 0, 80, 0
3, 350760, Note_on_c, 0, 79, 88
3, 351000, Note_on_c, 0, 79, 0
3, 351000, Note_on_c, 0, 80, 88
3, 351120, Note_on_c, 0, 80, 0
3, 351120, Note_on_c, 0, 77, 88
3, 351240, Note_on_c, 0, 77, 0
3, 351240, Note_on_c, 0, 71, 88
3, 351360, Note_on_c, 0, 71, 0
3, 351480, Note_on_c, 0, 81, 88
3, 351720, Note_on_c, 0, 81, 0
3, 351720, Note_on_c, 0, 80, 88
3, 351960, Note_on_c, 0, 80, 0
3, 351960, Note_on_c, 0, 81, 88
3, 352080, Note_on_c, 0, 81, 0
3, 352080, Note_on_c, 0, 78, 88
3, 352200, Note_on_c, 0, 78, 0
3, 352200, Note_on_c, 0, 72, 88
3, 352320, Note_on_c, 0, 72, 0
3, 352320, Note_on_c, 0, 68, 88
3, 352440, Note_on_c, 0, 68, 0
3, 352440, Note_on_c, 0, 72, 88
3, 352560, Note_on_c, 0, 72, 0
3, 352560, Note_on_c, 0, 78, 88
3, 352680, Note_on_c, 0, 78, 0
3, 352680, Note_on_c, 0, 81, 88
3, 352800, Note_on_c, 0, 81, 0
3, 352920, Note_on_c, 0, 81, 88
3, 353040, Note_on_c, 0, 81, 0
3, 353040, Note_on_c, 0, 78, 88
3, 353160, Note_on_c, 0, 78, 0
3, 353160, Note_on_c, 0, 72, 88
3, 353280, Note_on_c, 0, 72, 0
3, 353400, Note_on_c, 0, 84, 88
3, 353640, Note_on_c, 0, 84, 0
3, 353640, Note_on_c, 0, 83, 88
3, 353880, Note_on_c, 0, 83, 0
3, 353880, Note_on_c, 0, 84, 88
3, 354000, Note_on_c, 0, 84, 0
3, 354000, Note_on_c, 0, 78, 88
3, 354120, Note_on_c, 0, 78, 0
3, 354120, Note_on_c, 0, 75, 88
3, 354240, Note_on_c, 0, 75, 0
3, 354240, Note_on_c, 0, 72, 88
3, 354360, Note_on_c, 0, 72, 0
3, 354360, Note_on_c, 0, 75, 88
3, 354480, Note_on_c, 0, 75, 0
3, 354480, Note_on_c, 0, 78, 88
3, 354600, Note_on_c, 0, 78, 0
3, 354600, Note_on_c, 0, 84, 88
3, 354720, Note_on_c, 0, 84, 0
3, 354840, Note_on_c, 0, 84, 88
3, 354960, Note_on_c, 0, 84, 0
3, 354960, Note_on_c, 0, 87, 88
3, 355080, Note_on_c, 0, 87, 0
3, 355320, Note_on_c, 0, 95, 88
3, 355440, Note_on_c, 0, 95, 0
3, 355560, Note_on_c, 0, 90, 88
3, 355680, Note_on_c, 0, 90, 0
3, 355800, Note_on_c, 0, 86, 88
3, 355920, Note_on_c, 0, 86, 0
3, 356040, Note_on_c, 0, 83, 88
3, 356160, Note_on_c, 0, 83, 0
3, 356280, Note_on_c, 0, 78, 88
3, 356400, Note_on_c, 0, 78, 0
3, 356520, Note_on_c, 0, 74, 88
3, 356640, Note_on_c, 0, 74, 0
3, 356760, Note_on_c, 0, 71, 88
3, 356880, Note_on_c, 0, 71, 0
3, 357000, Note_on_c, 0, 66, 88
3, 357120, Note_on_c, 0, 66, 0
3, 357240, Note_on_c, 0, 62, 88
3, 357360, Note_on_c, 0, 62, 0
3, 357480, Note_on_c, 0, 55, 88
3, 357480, Note_on_c, 0, 60, 88
3, 357480, Note_on_c, 0, 63, 88
3, 357600, Note_on_c, 0, 63, 0
3, 357600, Note_on_c, 0, 60, 0
3, 357600, Note_on_c, 0, 55, 0
3, 357720, Note_on_c, 0, 51, 88
3, 357720, Note_on_c, 0, 55, 88
3, 357720, Note_on_c, 0, 60, 88
3, 357840, Note_on_c, 0, 60, 0
3, 357840, Note_on_c, 0, 55, 0
3, 357840, Note_on_c, 0, 51, 0
3, 357960, Note_on_c, 0, 48, 88
3, 357960, Note_on_c, 0, 51, 88
3, 357960, Note_on_c, 0, 55, 88
3, 358080, Note_on_c, 0, 55, 0
3, 358080, Note_on_c, 0, 51, 0
3, 358080, Note_on_c, 0, 48, 0
3, 358200, Note_on_c, 0, 55, 88
3, 358200, Note_on_c, 0, 60, 88
3, 358200, Note_on_c, 0, 63, 88
3, 358320, Note_on_c, 0, 63, 0
3, 358320, Note_on_c, 0, 60, 0
3, 358320, Note_on_c, 0, 55, 0
3, 358440, Note_on_c, 0, 51, 88
3, 358440, Note_on_c, 0, 55, 88
3, 358440, Note_on_c, 0, 60, 88
3, 358560, Note_on_c, 0, 60, 0
3, 358560, Note_on_c, 0, 55, 0
3, 358560, Note_on_c, 0, 51, 0
3, 358680, Note_on_c, 0, 48, 88
3, 358680, Note_on_c, 0, 51, 88
3, 358680, Note_on_c, 0, 55, 88
3, 358800, Note_on_c, 0, 55, 0
3, 358800, Note_on_c, 0, 51, 0
3, 358800, Note_on_c, 0, 48, 0
3, 358920, Note_on_c, 0, 43, 88
3, 358920, Note_on_c, 0, 48, 88
3, 358920, Note_on_c, 0, 51, 88
3, 359040, Note_on_c, 0, 51, 0
3, 359040, Note_on_c, 0, 48, 0
3, 359040, Note_on_c, 0, 43, 0
3, 359160, Note_on_c, 0, 83, 88
3, 359280, Note_on_c, 0, 83, 0
3, 359400, Note_on_c, 0, 78, 88
3, 359520, Note_on_c, 0, 78, 0
3, 359640, Note_on_c, 0, 74, 88
3, 359760, Note_on_c, 0, 74, 0
3, 359880, Note_on_c, 0, 71, 88
3, 360000, Note_on_c, 0, 71, 0
3, 360120, Note_on_c, 0, 66, 88
3, 360240, Note_on_c, 0, 66, 0
3, 360360, Note_on_c, 0, 62, 88
3, 360480, Note_on_c, 0, 62, 0
3, 360600, Note_on_c, 0, 59, 88
3, 360720, Note_on_c, 0, 59, 0
3, 360840, Note_on_c, 0, 54, 88
3, 360960, Note_on_c, 0, 54, 0
3, 361080, Note_on_c, 0, 50, 88
3, 361200, Note_on_c, 0, 50, 0
3, 361320, Note_on_c, 0, 43, 88
3, 361320, Note_on_c, 0, 48, 88
3, 361320, Note_on_c, 0, 51, 88
3, 361440, Note_on_c, 0, 51, 0
3, 361440, Note_on_c, 0, 48, 0
3, 361440, Note_on_c, 0, 43, 0
3, 361560, Note_on_c, 0, 39, 88
3, 361560, Note_on_c, 0, 43, 88
3, 361560, Note_on_c, 0, 48, 88
3, 361680, Note_on_c, 0, 48, 0
3, 361680, Note_on_c, 0, 43, 0
3, 361680, Note_on_c, 0, 39, 0
3, 361800, Note_on_c, 0, 36, 88
3, 361800, Note_on_c, 0, 39, 88
3, 361800, Note_on_c, 0, 43, 88
3, 361920, Note_on_c, 0, 43, 0
3, 361920, Note_on_c, 0, 39, 0
3, 361920, Note_on_c, 0, 36, 0
3, 362040, Note_on_c, 0, 43, 88
3, 362040, Note_on_c, 0, 48, 88
3, 362040, Note_on_c, 0, 51, 88
3, 362160, Note_on_c, 0, 51, 0
3, 362160, Note_on_c, 0, 48, 0
3, 362160, Note_on_c, 0, 43, 0
3, 362280, Note_on_c, 0, 39, 88
3, 362280, Note_on_c, 0, 43, 88
3, 362280, Note_on_c, 0, 48, 88
3, 362400, Note_on_c, 0, 48, 0
3, 362400, Note_on_c, 0, 43, 0
3, 362400, Note_on_c, 0, 39, 0
3, 362520, Note_on_c, 0, 36, 88
3, 362520, Note_on_c, 0, 39, 88
3, 362520, Note_on_c, 0, 43, 88
3, 362640, Note_on_c, 0, 43, 0
3, 362640, Note_on_c, 0, 39, 0
3, 362640, Note_on_c, 0, 36, 0
3, 362760, Note_on_c, 0, 31, 88
3, 362760, Note_on_c, 0, 36, 88
3, 362760, Note_on_c, 0, 39, 88
3, 362880, Note_on_c, 0, 39, 0
3, 362880, Note_on_c, 0, 36, 0
3, 362880, Note_on_c, 0, 31, 0
3, 363000, Note_on_c, 0, 71, 88
3, 363120, Note_on_c, 0, 71, 0
3, 363240, Note_on_c, 0, 66, 88
3, 363360, Note_on_c, 0, 66, 0
3, 363480, Note_on_c, 0, 62, 88
3, 363600, Note_on_c, 0, 62, 0
3, 363720, Note_on_c, 0, 59, 88
3, 363840, Note_on_c, 0, 59, 0
3, 363960, Note_on_c, 0, 54, 88
3, 364080, Note_on_c, 0, 54, 0
3, 364200, Note_on_c, 0, 50, 88
3, 364320, Note_on_c, 0, 50, 0
3, 364440, Note_on_c, 0, 47, 88
3, 364560, Note_on_c, 0, 47, 0
3, 364680, Note_on_c, 0, 42, 88
3, 364800, Note_on_c, 0, 42, 0
3, 364920, Note_on_c, 0, 59, 88
3, 365040, Note_on_c, 0, 59, 0
3, 365160, Note_on_c, 0, 54, 88
3, 365280, Note_on_c, 0, 54, 0
3, 365400, Note_on_c, 0, 50, 88
3, 365520, Note_on_c, 0, 50, 0
3, 365640, Note_on_c, 0, 47, 88
3, 365760, Note_on_c, 0, 47, 0
3, 365880, Note_on_c, 0, 42, 88
3, 366000, Note_on_c, 0, 42, 0
3, 366120, Note_on_c, 0, 38, 88
3, 366240, Note_on_c, 0, 38, 0
3, 366360, Note_on_c, 0, 35, 88
3, 366480, Note_on_c, 0, 35, 0
3, 366600, Note_on_c, 0, 30, 88
3, 366720, Note_on_c, 0, 30, 0
3, 366720, Note_on_c, 0, 31, 88
3, 366767, Note_on_c, 0, 31, 0
3, 366960, Note_on_c, 0, 43, 88
3, 367007, Note_on_c, 0, 43, 0
3, 367200, Note_on_c, 0, 42, 88
3, 367247, Note_on_c, 0, 42, 0
3, 367440, Note_on_c, 0, 41, 88
3, 367487, Note_on_c, 0, 41, 0
3, 367680, Note_on_c, 0, 39, 88
3, 367727, Note_on_c, 0, 39, 0
3, 367920, Note_on_c, 0, 38, 88
3, 367967, Note_on_c, 0, 38, 0
3, 368160, Note_on_c, 0, 36, 88
3, 368207, Note_on_c, 0, 36, 0
3, 368400, Note_on_c, 0, 32, 88
3, 368400, Note_on_c, 0, 44, 88
3, 368447, Note_on_c, 0, 44, 0
3, 368447, Note_on_c, 0, 32, 0
3, 368640, Note_on_c, 0, 31, 88
3, 368640, Note_on_c, 0, 43, 88
3, 368687, Note_on_c, 0, 43, 0
3, 368687, Note_on_c, 0, 31, 0
3, 368880, Note_on_c, 0, 43, 88
3, 368927, Note_on_c, 0, 43, 0
3, 369120, Note_on_c, 0, 42, 88
3, 369120, Note_on_c, 0, 54, 88
3, 369167, Note_on_c, 0, 54, 0
3, 369167, Note_on_c, 0, 42, 0
3, 369360, Note_on_c, 0, 41, 88
3, 369360, Note_on_c, 0, 53, 88
3, 369407, Note_on_c, 0, 53, 0
3, 369407, Note_on_c, 0, 41, 0
3, 369600, Note_on_c, 0, 39, 88
3, 369600, Note_on_c, 0, 51, 88
3, 369647, Note_on_c, 0, 51, 0
3, 369647, Note_on_c, 0, 39, 0
3, 369840, Note_on_c, 0, 38, 88
3, 369840, Note_on_c, 0, 50, 88
3, 369887, Note_on_c, 0, 50, 0
3, 369887, Note_on_c, 0, 38, 0
3, 370080, Note_on_c, 0, 36, 88
3, 370080, Note_on_c, 0, 48, 88
3, 370127, Note_on_c, 0, 48, 0
3, 370127, Note_on_c, 0, 36, 0
3, 370320, Note_on_c, 0, 32, 88
3, 370320, Note_on_c, 0, 44, 88
3, 370367, Note_on_c, 0, 44, 0
3, 370367, Note_on_c, 0, 32, 0
3, 370560, Note_on_c, 0, 31, 88
3, 370560, Note_on_c, 0, 43, 88
3, 370607, Note_on_c, 0, 43, 0
3, 370607, Note_on_c, 0, 31, 0
3, 370800, Note_on_c, 0, 43, 88
3, 370800, Note_on_c, 0, 55, 88
3, 370847, Note_on_c, 0, 55, 0
3, 370847, Note_on_c, 0, 43, 0
3, 371040, Note_on_c, 0, 42, 88
3, 371040, Note_on_c, 0, 54, 88
3, 371087, Note_on_c, 0, 54, 0
3, 371087, Note_on_c, 0, 42, 0
3, 371280, Note_on_c, 0, 41, 88
3, 371280, Note_on_c, 0, 53, 88
3, 371327, Note_on_c, 0, 53, 0
3, 371327, Note_on_c, 0, 41, 0
3, 371520, Note_on_c, 0, 39, 88
3, 371520, Note_on_c, 0, 51, 88
3, 371567, Note_on_c, 0, 51, 0
3, 371567, Note_on_c, 0, 39, 0
3, 371760, Note_on_c, 0, 38, 88
3, 371760, Note_on_c, 0, 50, 88
3, 371807, Note_on_c, 0, 50, 0
3, 371807, Note_on_c, 0, 38, 0
3, 372000, Note_on_c, 0, 36, 88
3, 372000, Note_on_c, 0, 48, 88
3, 372047, Note_on_c, 0, 48, 0
3, 372047, Note_on_c, 0, 36, 0
3, 372240, Note_on_c, 0, 32, 88
3, 372240, Note_on_c, 0, 44, 88
3, 372287, Note_on_c, 0, 44, 0
3, 372287, Note_on_c, 0, 32, 0
3, 372480, Note_on_c, 0, 31, 88
3, 372480, Note_on_c, 0, 43, 88
3, 372527, Note_on_c, 0, 43, 0
3, 372527, Note_on_c, 0, 31, 0
3, 372720, Note_on_c, 0, 43, 88
3, 372720, Note_on_c, 0, 55, 88
3, 372767, Note_on_c, 0, 55, 0
3, 372767, Note_on_c, 0, 43, 0
3, 372960, Note_on_c, 0, 42, 88
3, 372960, Note_on_c, 0, 54, 88
3, 373007, Note_on_c, 0, 54, 0
3, 373007, Note_on_c, 0, 42, 0
3, 373200, Note_on_c, 0, 41, 88
3, 373200, Note_on_c, 0, 53, 88
3, 373247, Note_on_c, 0, 53, 0
3, 373247, Note_on_c, 0, 41, 0
3, 373440, Note_on_c, 0, 39, 88
3, 373440, Note_on_c, 0, 51, 88
3, 373487, Note_on_c, 0, 51, 0
3, 373487, Note_on_c, 0, 39, 0
3, 373680, Note_on_c, 0, 38, 88
3, 373680, Note_on_c, 0, 50, 88
3, 373727, Note_on_c, 0, 50, 0
3, 373727, Note_on_c, 0, 38, 0
3, 373920, Note_on_c, 0, 36, 88
3, 373920, Note_on_c, 0, 48, 88
3, 373967, Note_on_c, 0, 48, 0
3, 373967, Note_on_c, 0, 36, 0
3, 374160, Note_on_c, 0, 32, 88
3, 374160, Note_on_c, 0, 44, 88
3, 374207, Note_on_c, 0, 44, 0
3, 374207, Note_on_c, 0, 32, 0
3, 374400, Note_on_c, 0, 31, 114
3, 374400, Note_on_c, 0, 36, 114
3, 374400, Note_on_c, 0, 39, 114
3, 374400, Note_on_c, 0, 43, 114
3, 374880, Note_on_c, 0, 43, 0
3, 374880, Note_on_c, 0, 31, 0
3, 374880, Note_on_c, 0, 36, 0
3, 374880, Note_on_c, 0, 39, 0
3, 374880, Note_on_c, 0, 43, 114
3, 374880, Note_on_c, 0, 48, 114
3, 374880, Note_on_c, 0, 51, 114
3, 374880, Note_on_c, 0, 55, 114
3, 375360, Note_on_c, 0, 55, 0
3, 375360, Note_on_c, 0, 43, 0
3, 375360, Note_on_c, 0, 48, 0
3, 375360, Note_on_c, 0, 51, 0
3, 375360, Note_on_c, 0, 56, 114
3, 375360, Note_on_c, 0, 59, 114
3, 375360, Note_on_c, 0, 62, 114
3, 375360, Note_on_c, 0, 68, 114
3, 376479, Note_on_c, 0, 68, 0
3, 376479, Note_on_c, 0, 56, 0
3, 376479, Note_on_c, 0, 59, 0
3, 376479, Note_on_c, 0, 62, 0
3, 376479, Note_on_c, 0, 55, 88
3, 376479, Note_on_c, 0, 67, 88
3, 376640, Note_on_c, 0, 67, 0
3, 376640, Note_on_c, 0, 55, 0
3, 376640, Note_on_c, 0, 54, 88
3, 376640, Note_on_c, 0, 66, 88
3, 376800, Note_on_c, 0, 66, 0
3, 376800, Note_on_c, 0, 54, 0
3, 376800, Note_on_c, 0, 53, 114
3, 376800, Note_on_c, 0, 56, 114
3, 376800, Note_on_c, 0, 59, 114
3, 376800, Note_on_c, 0, 65, 114
3, 376959, Note_on_c, 0, 65, 0
3, 376959, Note_on_c, 0, 53, 0
3, 376959, Note_on_c, 0, 56, 0
3, 376959, Note_on_c, 0, 59, 0
3, 376959, Note_on_c, 0, 52, 88
3, 376959, Note_on_c, 0, 64, 88
3, 377120, Note_on_c, 0, 64, 0
3, 377120, Note_on_c, 0, 52, 0
3, 377120, Note_on_c, 0, 51, 88
3, 377120, Note_on_c, 0, 63, 88
3, 377280, Note_on_c, 0, 63, 0
3, 377280, Note_on_c, 0, 51, 0
3, 377280, Note_on_c, 0, 50, 114
3, 377280, Note_on_c, 0, 53, 114
3, 377280, Note_on_c, 0, 56, 114
3, 377280, Note_on_c, 0, 62, 114
3, 377439, Note_on_c, 0, 62, 0
3, 377439, Note_on_c, 0, 50, 0
3, 377439, Note_on_c, 0, 53, 0
3, 377439, Note_on_c, 0, 56, 0
3, 377439, Note_on_c, 0, 49, 88
3, 377439, Note_on_c, 0, 61, 88
3, 377600, Note_on_c, 0, 61, 0
3, 377600, Note_on_c, 0, 49, 0
3, 377600, Note_on_c, 0, 48, 88
3, 377600, Note_on_c, 0, 60, 88
3, 377760, Note_on_c, 0, 60, 0
3, 377760, Note_on_c, 0, 48, 0
3, 377760, Note_on_c, 0, 47, 114
3, 377760, Note_on_c, 0, 50, 114
3, 377760, Note_on_c, 0, 53, 114
3, 377760, Note_on_c, 0, 59, 114
3, 377919, Note_on_c, 0, 59, 0
3, 377919, Note_on_c, 0, 47, 0
3, 377919, Note_on_c, 0, 50, 0
3, 377919, Note_on_c, 0, 53, 0
3, 377919, Note_on_c, 0, 46, 88
3, 377919, Note_on_c, 0, 58, 88
3, 378080, Note_on_c, 0, 58, 0
3, 378080, Note_on_c, 0, 46, 0
3, 378080, Note_on_c, 0, 45, 88
3, 378080, Note_on_c, 0, 57, 88
3, 378240, Note_on_c, 0, 57, 0
3, 378240, Note_on_c, 0, 45, 0
3, 378240, Note_on_c, 0, 44, 114
3, 378240, Note_on_c, 0, 47, 114
3, 378240, Note_on_c, 0, 50, 114
3, 378240, Note_on_c, 0, 56, 114
3, 378399, Note_on_c, 0, 56, 0
3, 378399, Note_on_c, 0, 44, 0
3, 378399, Note_on_c, 0, 47, 0
3, 378399, Note_on_c, 0, 50, 0
3, 378399, Note_on_c, 0, 43, 88
3, 378399, Note_on_c, 0, 55, 88
3, 378560, Note_on_c, 0, 55, 0
3, 378560, Note_on_c, 0, 43, 0
3, 378560, Note_on_c, 0, 42, 88
3, 378560, Note_on_c, 0, 54, 88
3, 378720, Note_on_c, 0, 54, 0
3, 378720, Note_on_c, 0, 42, 0
3, 378720, Note_on_c, 0, 41, 114
3, 378720, Note_on_c, 0, 44, 114
3, 378720, Note_on_c, 0, 47, 114
3, 378720, Note_on_c, 0, 53, 114
3, 378879, Note_on_c, 0, 53, 0
3, 378879, Note_on_c, 0, 41, 0
3, 378879, Note_on_c, 0, 44, 0
3, 378879, Note_on_c, 0, 47, 0
3, 378879, Note_on_c, 0, 40, 88
3, 378879, Note_on_c, 0, 52, 88
3, 379040, Note_on_c, 0, 52, 0
3, 379040, Note_on_c, 0, 40, 0
3, 379040, Note_on_c, 0, 39, 88
3, 379040, Note_on_c, 0, 51, 88
3, 379200, Note_on_c, 0, 51, 0
3, 379200, Note_on_c, 0, 39, 0
3, 379200, Note_on_c, 0, 38, 114
3, 379200, Note_on_c, 0, 41, 114
3, 379200, Note_on_c, 0, 44, 114
3, 379200, Note_on_c, 0, 50, 114
3, 379359, Note_on_c, 0, 50, 0
3, 379359, Note_on_c, 0, 38, 0
3, 379359, Note_on_c, 0, 41, 0
3, 379359, Note_on_c, 0, 44, 0
3, 379359, Note_on_c, 0, 37, 88
3, 379359, Note_on_c, 0, 49, 88
3, 379520, Note_on_c, 0, 49, 0
3, 379520, Note_on_c, 0, 37, 0
3, 379520, Note_on_c, 0, 36, 88
3, 379520, Note_on_c, 0, 48, 88
3, 379680, Note_on_c, 0, 48, 0
3, 379680, Note_on_c, 0, 36, 0
3, 379680, Note_on_c, 0, 35, 114
3, 379680, Note_on_c, 0, 38, 114
3, 379680, Note_on_c, 0, 41, 114
3, 379680, Note_on_c, 0, 47, 114
3, 379839, Note_on_c, 0, 47, 0
3, 379839, Note_on_c, 0, 35, 0
3, 379839, Note_on_c, 0, 38, 0
3, 379839, Note_on_c, 0, 41, 0
3, 379839, Note_on_c, 0, 34, 88
3, 379839, Note_on_c, 0, 46, 88
3, 380000, Note_on_c, 0, 46, 0
3, 380000, Note_on_c, 0, 34, 0
3, 380000, Note_on_c, 0, 33, 88
3, 380000, Note_on_c, 0, 45, 88
3, 380160, Note_on_c, 0, 45, 0
3, 380160, Note_on_c, 0, 33, 0
3, 380160, Note_on_c, 0, 32, 114
3, 380160, Note_on_c, 0, 35, 114
3, 380160, Note_on_c, 0, 38, 114
3, 380160, Note_on_c, 0, 44, 114
3, 380319, Note_on_c, 0, 44, 0
3, 380319, Note_on_c, 0, 32, 0
3, 380319, Note_on_c, 0, 35, 0
3, 380319, Note_on_c, 0, 38, 0
3, 380319, Note_on_c, 0, 30, 88
3, 380319, Note_on_c, 0, 42, 88
3, 380480, Note_on_c, 0, 42, 0
3, 380480, Note_on_c, 0, 30, 0
3, 380480, Note_on_c, 0, 31, 88
3, 380480, Note_on_c, 0, 43, 88
3, 380640, Note_on_c, 0, 43, 0
3, 380640, Note_on_c, 0, 31, 0
3, 380640, Note_on_c, 0, 34, 88
3, 380640, Note_on_c, 0, 46, 88
3, 380799, Note_on_c, 0, 46, 0
3, 380799, Note_on_c, 0, 34, 0
3, 380799, Note_on_c, 0, 35, 88
3, 380799, Note_on_c, 0, 47, 88
3, 380960, Note_on_c, 0, 47, 0
3, 380960, Note_on_c, 0, 35, 0
3, 380960, Note_on_c, 0, 37, 88
3, 380960, Note_on_c, 0, 49, 88
3, 381120, Note_on_c, 0, 49, 0
3, 381120, Note_on_c, 0, 37, 0
3, 381120, Note_on_c, 0, 38, 88
3, 381120, Note_on_c, 0, 50, 88
3, 381279, Note_on_c, 0, 50, 0
3, 381279, Note_on_c, 0, 38, 0
3, 381279, Note_on_c, 0, 34, 88
3, 381279, Note_on_c, 0, 46, 88
3, 381440, Note_on_c, 0, 46, 0
3, 381440, Note_on_c, 0, 34, 0
3, 381440, Note_on_c, 0, 35, 88
3, 381440, Note_on_c, 0, 47, 88
3, 381600, Note_on_c, 0, 47, 0
3, 381600, Note_on_c, 0, 35, 0
3, 381600, Note_on_c, 0, 37, 88
3, 381600, Note_on_c, 0, 49, 88
3, 381759, Note_on_c, 0, 49, 0
3, 381759, Note_on_c, 0, 37, 0
3, 381759, Note_on_c, 0, 38, 88
3, 381759, Note_on_c, 0, 50, 88
3, 381920, Note_on_c, 0, 50, 0
3, 381920, Note_on_c, 0, 38, 0
3, 381920, Note_on_c, 0, 42, 88
3, 381920, Note_on_c, 0, 54, 88
3, 382080, Note_on_c, 0, 54, 0
3, 382080, Note_on_c, 0, 42, 0
3, 382080, Note_on_c, 0, 43, 88
3, 382080, Note_on_c, 0, 55, 88
3, 382239, Note_on_c, 0, 55, 0
3, 382239, Note_on_c, 0, 43, 0
3, 382239, Note_on_c, 0, 46, 88
3, 382239, Note_on_c, 0, 58, 88
3, 382400, Note_on_c, 0, 58, 0
3, 382400, Note_on_c, 0, 46, 0
3, 382400, Note_on_c, 0, 47, 88
3, 382400, Note_on_c, 0, 59, 88
3, 382560, Note_on_c, 0, 59, 0
3, 382560, Note_on_c, 0, 47, 0
3, 382560, Note_on_c, 0, 49, 88
3, 382560, Note_on_c, 0, 61, 88
3, 382719, Note_on_c, 0, 61, 0
3, 382719, Note_on_c, 0, 49, 0
3, 382719, Note_on_c, 0, 50, 88
3, 382719, Note_on_c, 0, 62, 88
3, 382880, Note_on_c, 0, 62, 0
3, 382880, Note_on_c, 0, 50, 0
3, 382880, Note_on_c, 0, 54, 88
3, 382880, Note_on_c, 0, 66, 88
3, 383040, Note_on_c, 0, 66, 0
3, 383040, Note_on_c, 0, 54, 0
3, 383040, Note_on_c, 0, 55, 88
3, 383040, Note_on_c, 0, 67, 88
3, 383199, Note_on_c, 0, 67, 0
3, 383199, Note_on_c, 0, 55, 0
3, 383199, Note_on_c, 0, 58, 88
3, 383199, Note_on_c, 0, 70, 88
3, 383360, Note_on_c, 0, 70, 0
3, 383360, Note_on_c, 0, 58, 0
3, 383360, Note_on_c, 0, 59, 88
3, 383360, Note_on_c, 0, 71, 88
3, 383520, Note_on_c, 0, 71, 0
3, 383520, Note_on_c, 0, 59, 0
3, 383520, Note_on_c, 0, 61, 88
3, 383520, Note_on_c, 0, 73, 88
3, 383679, Note_on_c, 0, 73, 0
3, 383679, Note_on_c, 0, 61, 0
3, 383679, Note_on_c, 0, 62, 88
3, 383679, Note_on_c, 0, 74, 88
3, 383840, Note_on_c, 0, 74, 0
3, 383840, Note_on_c, 0, 62, 0
3, 383840, Note_on_c, 0, 67, 114
3, 383840, Note_on_c, 0, 79, 114
3, 384000, Note_on_c, 0, 79, 0
3, 384000, Note_on_c, 0, 67, 0
3, 479040, Note_on_c, 0, 48, 49
3, 479040, Note_on_c, 0, 55, 49
3, 479040, Note_on_c, 0, 62, 49
3, 479040, Note_on_c, 0, 65, 49
3, 480960, Note_on_c, 0, 65, 0
3, 480960, Note_on_c, 0, 48, 0
3, 480960, Note_on_c, 0, 55, 0
3, 480960, Note_on_c, 0, 62, 0
3, 480960, Control_c, 0, 64, 127
3, 480960, Note_on_c, 0, 55, 49
3, 481440, Note_on_c, 0, 55, 0
3, 481440, Note_on_c, 0, 62, 49
3, 481920, Note_on_c, 0, 62, 0
3, 481920, Note_on_c, 0, 59, 49
3, 482400, Note_on_c, 0, 59, 0
3, 482400, Note_on_c, 0, 58, 49
3, 482640, Note_on_c, 0, 58, 0
3, 482640, Control_c, 0, 64, 0
3, 482640, Note_on_c, 0, 59, 49
3, 482880, Note_on_c, 0, 59, 0
3, 482880, Note_on_c, 0, 48, 49
3, 482880, Note_on_c, 0, 55, 49
3, 483360, Note_on_c, 0, 55, 0
3, 483360, Note_on_c, 0, 48, 0
3, 483360, Note_on_c, 0, 54, 49
3, 483600, Note_on_c, 0, 54, 0
3, 483600, Note_on_c, 0, 55, 49
3, 483840, Note_on_c, 0, 55, 0
3, 483840, Note_on_c, 0, 50, 49
3, 484320, Note_on_c, 0, 50, 0
3, 484320, Note_on_c, 0, 49, 49
3, 484560, Note_on_c, 0, 49, 0
3, 484560, Note_on_c, 0, 50, 49
3, 484800, Note_on_c, 0, 50, 0
3, 484800, Note_on_c, 0, 47, 49
3, 485280, Note_on_c, 0, 47, 0
3, 485280, Note_on_c, 0, 46, 49
3, 485520, Note_on_c, 0, 46, 0
3, 485520, Note_on_c, 0, 47, 49
3, 485760, Note_on_c, 0, 47, 0
3, 485760, Control_c, 0, 64, 127
3, 485760, Note_on_c, 0, 43, 49
3, 485880, Note_on_c, 0, 43, 0
3, 485880, Note_on_c, 0, 36, 49
3, 486000, Note_on_c, 0, 36, 0
3, 486000, Note_on_c, 0, 43, 49
3, 486120, Note_on_c, 0, 43, 0
3, 486120, Note_on_c, 0, 47, 49
3, 486240, Note_on_c, 0, 47, 0
3, 486240, Control_c, 0, 64, 0
3, 486720, Note_on_c, 0, 60, 49
3, 486720, Note_on_c, 0, 67, 49
3, 486720, Note_on_c, 0, 70, 49
3, 486720, Note_on_c, 0, 72, 49
3, 488640, Note_on_c, 0, 72, 0
3, 488640, Note_on_c, 0, 60, 0
3, 488640, Note_on_c, 0, 67, 0
3, 488640, Note_on_c, 0, 70, 0
3, 488640, Note_on_c, 0, 48, 49
3, 488640, Note_on_c, 0, 55, 49
3, 488640, Note_on_c, 0, 70, 49
3, 488640, Note_on_c, 0, 72, 49
3, 490560, Note_on_c, 0, 72, 0
3, 490560, Note_on_c, 0, 48, 0
3, 490560, Note_on_c, 0, 55, 0
3, 490560, Note_on_c, 0, 70, 0
3, 491040, Note_on_c, 0, 59, 49
3, 491280, Note_on_c, 0, 59, 0
3, 491280, Note_on_c, 0, 60, 49
3, 491520, Note_on_c, 0, 60, 0
3, 491520, Note_on_c, 0, 55, 49
3, 492000, Note_on_c, 0, 55, 0
3, 492960, Note_on_c, 0, 51, 49
3, 493200, Note_on_c, 0, 51, 0
3, 493200, Note_on_c, 0, 52, 49
3, 493440, Note_on_c, 0, 52, 0
3, 493440, Control_c, 0, 64, 127
3, 493440, Note_on_c, 0, 48, 49
3, 493560, Note_on_c, 0, 48, 0
3, 493560, Note_on_c, 0, 52, 49
3, 493680, Note_on_c, 0, 52, 0
3, 493680, Note_on_c, 0, 55, 49
3, 493800, Note_on_c, 0, 55, 0
3, 493800, Note_on_c, 0, 58, 49
3, 493920, Note_on_c, 0, 58, 0
3, 493920, Control_c, 0, 64, 0
3, 494400, Control_c, 0, 64, 127
3, 494400, Note_on_c, 0, 77, 62
3, 494520, Note_on_c, 0, 77, 0
3, 494520, Note_on_c, 0, 79, 62
3, 494640, Note_on_c, 0, 79, 0
3, 494640, Note_on_c, 0, 77, 62
3, 494760, Note_on_c, 0, 77, 0
3, 494760, Note_on_c, 0, 79, 62
3, 494880, Note_on_c, 0, 79, 0
3, 494880, Note_on_c, 0, 77, 62
3, 495000, Note_on_c, 0, 77, 0
3, 495000, Note_on_c, 0, 79, 62
3, 495120, Note_on_c, 0, 79, 0
3, 495120, Note_on_c, 0, 77, 62
3, 495240, Note_on_c, 0, 77, 0
3, 495240, Note_on_c, 0, 79, 62
3, 495360, Note_on_c, 0, 79, 0
3, 495360, Note_on_c, 0, 77, 62
3, 495480, Note_on_c, 0, 77, 0
3, 495480, Note_on_c, 0, 79, 62
3, 495600, Note_on_c, 0, 79, 0
3, 495600, Note_on_c, 0, 77, 62
3, 495720, Note_on_c, 0, 77, 0
3, 495720, Note_on_c, 0, 79, 62
3, 495840, Note_on_c, 0, 79, 0
3, 495840, Note_on_c, 0, 77, 62
3, 495960, Note_on_c, 0, 77, 0
3, 495960, Note_on_c, 0, 79, 62
3, 496080, Note_on_c, 0, 79, 0
3, 496080, Note_on_c, 0, 77, 62
3, 496200, Note_on_c, 0, 77, 0
3, 496200, Note_on_c, 0, 79, 62
3, 496320, Note_on_c, 0, 79, 0
3, 496320, Note_on_c, 0, 77, 62
3, 496440, Note_on_c, 0, 77, 0
3, 496440, Note_on_c, 0, 79, 62
3, 496560, Note_on_c, 0, 79, 0
3, 496560, Note_on_c, 0, 77, 62
3, 496680, Note_on_c, 0, 77, 0
3, 496680, Note_on_c, 0, 79, 62
3, 496800, Note_on_c, 0, 79, 0
3, 496800, Note_on_c, 0, 77, 62
3, 496920, Note_on_c, 0, 77, 0
3, 496920, Note_on_c, 0, 79, 62
3, 497040, Note_on_c, 0, 79, 0
3, 497040, Note_on_c, 0, 77, 62
3, 497160, Note_on_c, 0, 77, 0
3, 497160, Note_on_c, 0, 79, 62
3, 497280, Note_on_c, 0, 79, 0
3, 497280, Note_on_c, 0, 77, 62
3, 497400, Note_on_c, 0, 77, 0
3, 497400, Note_on_c, 0, 79, 62
3, 497520, Note_on_c, 0, 79, 0
3, 497520, Note_on_c, 0, 77, 62
3, 497640, Note_on_c, 0, 77, 0
3, 497640, Note_on_c, 0, 79, 62
3, 497760, Note_on_c, 0, 79, 0
3, 497760, Note_on_c, 0, 77, 62
3, 497880, Note_on_c, 0, 77, 0
3, 497880, Note_on_c, 0, 79, 62
3, 498000, Note_on_c, 0, 79, 0
3, 498000, Note_on_c, 0, 77, 62
3, 498120, Note_on_c, 0, 77, 0
3, 498120, Note_on_c, 0, 79, 62
3, 498240, Note_on_c, 0, 79, 0
3, 498240, Note_on_c, 0, 77, 62
3, 498360, Note_on_c, 0, 77, 0
3, 498360, Note_on_c, 0, 79, 62
3, 498395, Control_c, 0, 64, 127
3, 498480, Note_on_c, 0, 79, 0
3, 498480, Note_on_c, 0, 77, 62
3, 498600, Note_on_c, 0, 77, 0
3, 498600, Note_on_c, 0, 79, 62
3, 498720, Note_on_c, 0, 79, 0
3, 498720, Note_on_c, 0, 77, 62
3, 498840, Note_on_c, 0, 77, 0
3, 498840, Note_on_c, 0, 79, 62
3, 498960, Note_on_c, 0, 79, 0
3, 498960, Note_on_c, 0, 77, 62
3, 499080, Note_on_c, 0, 77, 0
3, 499080, Note_on_c, 0, 79, 62
3, 499200, Note_on_c, 0, 79, 0
3, 499200, Note_on_c, 0, 77, 62
3, 499320, Note_on_c, 0, 77, 0
3, 499320, Note_on_c, 0, 79, 62
3, 499440, Note_on_c, 0, 79, 0
3, 499440, Note_on_c, 0, 77, 62
3, 499560, Note_on_c, 0, 77, 0
3, 499560, Note_on_c, 0, 79, 62
3, 499680, Note_on_c, 0, 79, 0
3, 499680, Note_on_c, 0, 77, 62
3, 499800, Note_on_c, 0, 77, 0
3, 499800, Note_on_c, 0, 79, 62
3, 499920, Note_on_c, 0, 79, 0
3, 499920, Note_on_c, 0, 77, 62
3, 500040, Note_on_c, 0, 77, 0
3, 500040, Note_on_c, 0, 79, 62
3, 500160, Note_on_c, 0, 79, 0
3, 500160, Note_on_c, 0, 77, 62
3, 500280, Note_on_c, 0, 77, 0
3, 500280, Note_on_c, 0, 79, 62
3, 500400, Note_on_c, 0, 79, 0
3, 500400, Note_on_c, 0, 77, 62
3, 500520, Note_on_c, 0, 77, 0
3, 500520, Note_on_c, 0, 79, 62
3, 500640, Note_on_c, 0, 79, 0
3, 500640, Note_on_c, 0, 77, 62
3, 500760, Note_on_c, 0, 77, 0
3, 500760, Note_on_c, 0, 79, 62
3, 500880, Note_on_c, 0, 79, 0
3, 500880, Note_on_c, 0, 77, 62
3, 501000, Note_on_c, 0, 77, 0
3, 501000, Note_on_c, 0, 79, 62
3, 501120, Note_on_c, 0, 79, 0
3, 501120, Note_on_c, 0, 77, 75
3, 501240, Note_on_c, 0, 77, 0
3, 501240, Note_on_c, 0, 79, 75
3, 501360, Note_on_c, 0, 79, 0
3, 501360, Note_on_c, 0, 77, 75
3, 501480, Note_on_c, 0, 77, 0
3, 501480, Note_on_c, 0, 79, 75
3, 501600, Note_on_c, 0, 79, 0
3, 501600, Note_on_c, 0, 77, 75
3, 501720, Note_on_c, 0, 77, 0
3, 501720, Control_c, 0, 64, 0
3, 501720, Note_on_c, 0, 79, 75
3, 501840, Note_on_c, 0, 79, 0
3, 501840, Note_on_c, 0, 76, 75
3, 501960, Note_on_c, 0, 76, 0
3, 501960, Note_on_c, 0, 77, 75
3, 502080, Note_on_c, 0, 77, 0
3, 502080, Note_on_c, 0, 84, 75
3, 502400, Note_on_c, 0, 84, 0
3, 502400, Note_on_c, 0, 81, 75
3, 502719, Note_on_c, 0, 81, 0
3, 502719, Note_on_c, 0, 78, 75
3, 503040, Note_on_c, 0, 78, 0
3, 503040, Note_on_c, 0, 75, 75
3, 503360, Note_on_c, 0, 75, 0
3, 503360, Note_on_c, 0, 73, 75
3, 503679, Note_on_c, 0, 73, 0
3, 503679, Note_on_c, 0, 72, 75
3, 504000, Note_on_c, 0, 72, 0
3, 504000, Note_on_c, 0, 78, 75
3, 504320, Note_on_c, 0, 78, 0
3, 504320, Note_on_c, 0, 75, 75
3, 504639, Note_on_c, 0, 75, 0
3, 504639, Note_on_c, 0, 73, 75
3, 504960, Note_on_c, 0, 73, 0
3, 504960, Note_on_c, 0, 72, 75
3, 505280, Note_on_c, 0, 72, 0
3, 505280, Note_on_c, 0, 70, 75
3, 505599, Note_on_c, 0, 70, 0
3, 505599, Note_on_c, 0, 69, 75
3, 505920, Note_on_c, 0, 69, 0
3, 505920, Control_c, 0, 64, 127
3, 505920, Note_on_c, 0, 72, 75
3, 506240, Note_on_c, 0, 72, 0
3, 506240, Note_on_c, 0, 69, 75
3, 506559, Note_on_c, 0, 69, 0
3, 506559, Note_on_c, 0, 66, 75
3, 506880, Note_on_c, 0, 66, 0
3, 506880, Note_on_c, 0, 63, 75
3, 507200, Note_on_c, 0, 63, 0
3, 507200, Note_on_c, 0, 61, 75
3, 507519, Note_on_c, 0, 61, 0
3, 507519, Control_c, 0, 64, 0
3, 507519, Note_on_c, 0, 60, 75
3, 507840, Note_on_c, 0, 60, 0
3, 507840, Control_c, 0, 64, 127
3, 507840, Note_on_c, 0, 66, 75
3, 508160, Note_on_c, 0, 66, 0
3, 508160, Note_on_c, 0, 63, 75
3, 508479, Note_on_c, 0, 63, 0
3, 508479, Note_on_c, 0, 61, 75
3, 508800, Note_on_c, 0, 61, 0
3, 508800, Note_on_c, 0, 60, 75
3, 509120, Note_on_c, 0, 60, 0
3, 509120, Note_on_c, 0, 58, 75
3, 509439, Note_on_c, 0, 58, 0
3, 509439, Control_c, 0, 64, 0
3, 509439, Note_on_c, 0, 57, 75
3, 509760, Note_on_c, 0, 57, 0
3, 509760, Control_c, 0, 64, 127
3, 509760, Note_on_c, 0, 60, 75
3, 510000, Note_on_c, 0, 60, 0
3, 510000, Note_on_c, 0, 57, 75
3, 510240, Note_on_c, 0, 57, 0
3, 510240, Note_on_c, 0, 54, 75
3, 510480, Note_on_c, 0, 54, 0
3, 510480, Control_c, 0, 64, 0
3, 510480, Note_on_c, 0, 53, 75
3, 510720, Note_on_c, 0, 53, 0
3, 510720, Control_c, 0, 64, 127
3, 510720, Note_on_c, 0, 54, 75
3, 510960, Note_on_c, 0, 54, 0
3, 510960, Note_on_c, 0, 51, 75
3, 511200, Note_on_c, 0, 51, 0
3, 511200, Note_on_c, 0, 49, 75
3, 511440, Note_on_c, 0, 49, 0
3, 511440, Control_c, 0, 64, 0
3, 511440, Note_on_c, 0, 48, 75
3, 511680, Note_on_c, 0, 48, 0
3, 511680, Control_c, 0, 64, 127
3, 511680, Note_on_c, 0, 51, 75
3, 511920, Note_on_c, 0, 51, 0
3, 511920, Note_on_c, 0, 48, 75
3, 512160, Note_on_c, 0, 48, 0
3, 512160, Note_on_c, 0, 46, 75
3, 512400, Note_on_c, 0, 46, 0
3, 512400, Control_c, 0, 64, 0
3, 512400, Note_on_c, 0, 45, 75
3, 512640, Note_on_c, 0, 45, 0
3, 512640, Control_c, 0, 64, 127
3, 512640, Note_on_c, 0, 48, 75
3, 512736, Note_on_c, 0, 48, 0
3, 512736, Note_on_c, 0, 45, 75
3, 512832, Note_on_c, 0, 45, 0
3, 512832, Note_on_c, 0, 42, 75
3, 512927, Note_on_c, 0, 42, 0
3, 512927, Note_on_c, 0, 41, 75
3, 513023, Note_on_c, 0, 41, 0
3, 513023, Note_on_c, 0, 39, 75
3, 513120, Note_on_c, 0, 39, 0
3, 513120, Note_on_c, 0, 37, 75
3, 513216, Note_on_c, 0, 37, 0
3, 513216, Note_on_c, 0, 36, 75
3, 513312, Note_on_c, 0, 36, 0
3, 513312, Note_on_c, 0, 34, 75
3, 513407, Note_on_c, 0, 34, 0
3, 513407, Note_on_c, 0, 32, 75
3, 513503, Note_on_c, 0, 32, 0
3, 513503, Control_c, 0, 64, 0
3, 513503, Note_on_c, 0, 30, 75
3, 513600, Note_on_c, 0, 30, 0
3, 513600, Note_on_c, 0, 29, 75
3, 513600, Note_on_c, 0, 41, 75
3, 513840, Note_on_c, 0, 41, 0
3, 513840, Note_on_c, 0, 29, 0
3, 514080, Note_on_c, 0, 53, 75
3, 514080, Note_on_c, 0, 63, 75
3, 514560, Note_on_c, 0, 63, 0
3, 514560, Note_on_c, 0, 53, 0
3, 514560, Note_on_c, 0, 60, 75
3, 515040, Note_on_c, 0, 60, 0
3, 515040, Note_on_c, 0, 58, 75
3, 515280, Note_on_c, 0, 58, 0
3, 515280, Note_on_c, 0, 60, 75
3, 515520, Note_on_c, 0, 60, 0
3, 515520, Note_on_c, 0, 57, 75
3, 515760, Note_on_c, 0, 57, 0
3, 516000, Note_on_c, 0, 54, 101
3, 516047, Note_on_c, 0, 54, 0
3, 516240, Control_c, 0, 64, 127
3, 516240, Note_on_c, 0, 53, 75
3, 516360, Note_on_c, 0, 53, 0
3, 516360, Note_on_c, 0, 51, 75
3, 516480, Note_on_c, 0, 51, 0
3, 516480, Note_on_c, 0, 49, 75
3, 516560, Note_on_c, 0, 49, 0
3, 516560, Note_on_c, 0, 48, 75
3, 516639, Note_on_c, 0, 48, 0
3, 516639, Note_on_c, 0, 46, 75
3, 516720, Note_on_c, 0, 46, 0
3, 516720, Note_on_c, 0, 45, 75
3, 516800, Note_on_c, 0, 45, 0
3, 516800, Note_on_c, 0, 42, 75
3, 516879, Note_on_c, 0, 42, 0
3, 516879, Note_on_c, 0, 41, 75
3, 516960, Note_on_c, 0, 41, 0
3, 516960, Note_on_c, 0, 39, 75
3, 517040, Note_on_c, 0, 39, 0
3, 517040, Note_on_c, 0, 37, 75
3, 517119, Note_on_c, 0, 37, 0
3, 517119, Note_on_c, 0, 36, 75
3, 517200, Note_on_c, 0, 36, 0
3, 517200, Note_on_c, 0, 34, 75
3, 517280, Note_on_c, 0, 34, 0
3, 517280, Note_on_c, 0, 33, 75
3, 517359, Note_on_c, 0, 33, 0
3, 517359, Note_on_c, 0, 30, 75
3, 517440, Note_on_c, 0, 30, 0
3, 517440, Control_c, 0, 64, 0
3, 517440, Note_on_c, 0, 29, 75
3, 517920, Note_on_c, 0, 29, 0
3, 517920, Control_c, 0, 64, 127
3, 517920, Note_on_c, 0, 53, 88
3, 517920, Note_on_c, 0, 65, 88
3, 518400, Note_on_c, 0, 65, 0
3, 518400, Note_on_c, 0, 53, 0
3, 518400, Note_on_c, 0, 61, 88
3, 518880, Note_on_c, 0, 61, 0
3, 518880, Note_on_c, 0, 60, 88
3, 519120, Note_on_c, 0, 60, 0
3, 519120, Control_c, 0, 64, 0
3, 519120, Note_on_c, 0, 61, 88
3, 519360, Note_on_c, 0, 61, 0
3, 519360, Note_on_c, 0, 58, 88
3, 519840, Note_on_c, 0, 58, 0
3, 519840, Note_on_c, 0, 54, 114
3, 519887, Note_on_c, 0, 54, 0
3, 520080, Control_c, 0, 64, 127
3, 520080, Note_on_c, 0, 53, 88
3, 520200, Note_on_c, 0, 53, 0
3, 520200, Note_on_c, 0, 51, 88
3, 520320, Note_on_c, 0, 51, 0
3, 520320, Note_on_c, 0, 49, 88
3, 520400, Note_on_c, 0, 49, 0
3, 520400, Note_on_c, 0, 48, 88
3, 520479, Note_on_c, 0, 48, 0
3, 520479, Note_on_c, 0, 46, 88
3, 520560, Note_on_c, 0, 46, 0
3, 520560, Note_on_c, 0, 45, 88
3, 520640, Note_on_c, 0, 45, 0
3, 520640, Note_on_c, 0, 42, 88
3, 520719, Note_on_c, 0, 42, 0
3, 520719, Note_on_c, 0, 41, 88
3, 520800, Note_on_c, 0, 41, 0
3, 520800, Note_on_c, 0, 39, 88
3, 520880, Note_on_c, 0, 39, 0
3, 520880, Note_on_c, 0, 37, 88
3, 520959, Note_on_c, 0, 37, 0
3, 520959, Note_on_c, 0, 36, 88
3, 521040, Note_on_c, 0, 36, 0
3, 521040, Note_on_c, 0, 34, 88
3, 521120, Note_on_c, 0, 34, 0
3, 521120, Note_on_c, 0, 33, 88
3, 521199, Note_on_c, 0, 33, 0
3, 521199, Note_on_c, 0, 30, 88
3, 521280, Note_on_c, 0, 30, 0
3, 521280, Control_c, 0, 64, 0
3, 521280, Note_on_c, 0, 29, 88
3, 521760, Note_on_c, 0, 29, 0
3, 521760, Note_on_c, 0, 53, 88
3, 521760, Note_on_c, 0, 61, 88
3, 522240, Note_on_c, 0, 61, 0
3, 522240, Note_on_c, 0, 53, 0
3, 522240, Note_on_c, 0, 58, 88
3, 522720, Note_on_c, 0, 58, 0
3, 522720, Note_on_c, 0, 57, 88
3, 522960, Note_on_c, 0, 57, 0
3, 522960, Note_on_c, 0, 58, 88
3, 523200, Note_on_c, 0, 58, 0
3, 523200, Note_on_c, 0, 55, 88
3, 523680, Note_on_c, 0, 55, 0
3, 523680, Note_on_c, 0, 58, 114
3, 523727, Note_on_c, 0, 58, 0
3, 523920, Control_c, 0, 64, 127
3, 523920, Note_on_c, 0, 56, 88
3, 524040, Note_on_c, 0, 56, 0
3, 524040, Note_on_c, 0, 55, 88
3, 524160, Note_on_c, 0, 55, 0
3, 524160, Note_on_c, 0, 53, 88
3, 524228, Note_on_c, 0, 53, 0
3, 524228, Note_on_c, 0, 52, 88
3, 524297, Note_on_c, 0, 52, 0
3, 524297, Note_on_c, 0, 49, 88
3, 524365, Note_on_c, 0, 49, 0
3, 524365, Note_on_c, 0, 48, 88
3, 524434, Note_on_c, 0, 48, 0
3, 524434, Note_on_c, 0, 46, 88
3, 524502, Note_on_c, 0, 46, 0
3, 524502, Note_on_c, 0, 44, 88
3, 524571, Note_on_c, 0, 44, 0
3, 524571, Note_on_c, 0, 43, 88
3, 524640, Note_on_c, 0, 43, 0
3, 524640, Note_on_c, 0, 41, 88
3, 524708, Note_on_c, 0, 41, 0
3, 524708, Note_on_c, 0, 40, 88
3, 524777, Note_on_c, 0, 40, 0
3, 524777, Note_on_c, 0, 37, 88
3, 524845, Note_on_c, 0, 37, 0
3, 524845, Note_on_c, 0, 36, 88
3, 524914, Note_on_c, 0, 36, 0
3, 524914, Note_on_c, 0, 34, 88
3, 524982, Note_on_c, 0, 34, 0
3, 524982, Note_on_c, 0, 32, 88
3, 525051, Note_on_c, 0, 32, 0
3, 525051, Control_c, 0, 64, 0
3, 525051, Note_on_c, 0, 31, 88
3, 525120, Note_on_c, 0, 31, 0
3, 525120, Note_on_c, 0, 29, 88
3, 525510, Note_on_c, 0, 53, 88
3, 525540, Note_on_c, 0, 58, 88
3, 525570, Note_on_c, 0, 61, 88
3, 525600, Note_on_c, 0, 29, 0
3, 525600, Note_on_c, 0, 67, 88
3, 525990, Note_on_c, 0, 53, 88
3, 526020, Note_on_c, 0, 58, 88
3, 526050, Note_on_c, 0, 61, 88
3, 526080, Note_on_c, 0, 67, 0
3, 526080, Note_on_c, 0, 53, 0
3, 526080, Note_on_c, 0, 61, 0
3, 526080, Note_on_c, 0, 58, 0
3, 526080, Note_on_c, 0, 64, 88
3, 526470, Note_on_c, 0, 53, 88
3, 526500, Note_on_c, 0, 58, 88
3, 526530, Note_on_c, 0, 61, 88
3, 526560, Note_on_c, 0, 64, 0
3, 526560, Note_on_c, 0, 61, 0
3, 526560, Note_on_c, 0, 58, 0
3, 526560, Note_on_c, 0, 53, 0
3, 526560, Note_on_c, 0, 67, 88
3, 526710, Note_on_c, 0, 53, 88
3, 526740, Note_on_c, 0, 58, 88
3, 526770, Note_on_c, 0, 61, 88
3, 526800, Note_on_c, 0, 67, 0
3, 526800, Note_on_c, 0, 61, 0
3, 526800, Note_on_c, 0, 58, 0
3, 526800, Note_on_c, 0, 53, 0
3, 526800, Note_on_c, 0, 67, 88
3, 526950, Note_on_c, 0, 53, 88
3, 526980, Note_on_c, 0, 60, 88
3, 527010, Note_on_c, 0, 63, 88
3, 527040, Note_on_c, 0, 67, 0
3, 527040, Note_on_c, 0, 61, 0
3, 527040, Note_on_c, 0, 58, 0
3, 527040, Note_on_c, 0, 53, 0
3, 527040, Note_on_c, 0, 65, 88
3, 527520, Note_on_c, 0, 65, 0
3, 527520, Note_on_c, 0, 60, 0
3, 527520, Note_on_c, 0, 53, 0
3, 527520, Note_on_c, 0, 63, 0
3, 527520, Note_on_c, 0, 72, 114
3, 527567, Note_on_c, 0, 72, 0
3, 527760, Note_on_c, 0, 70, 88
3, 527880, Note_on_c, 0, 70, 0
3, 527880, Note_on_c, 0, 69, 88
3, 528000, Note_on_c, 0, 69, 0
3, 528000, Control_c, 0, 64, 127
3, 528000, Note_on_c, 0, 66, 88
3, 528043, Note_on_c, 0, 66, 0
3, 528043, Note_on_c, 0, 65, 88
3, 528087, Note_on_c, 0, 65, 0
3, 528087, Note_on_c, 0, 63, 88
3, 528130, Note_on_c, 0, 63, 0
3, 528130, Note_on_c, 0, 61, 88
3, 528174, Note_on_c, 0, 61, 0
3, 528174, Note_on_c, 0, 60, 88
3, 528217, Note_on_c, 0, 60, 0
3, 528217, Note_on_c, 0, 58, 88
3, 528262, Note_on_c, 0, 58, 0
3, 528262, Note_on_c, 0, 57, 88
3, 528305, Note_on_c, 0, 57, 0
3, 528305, Note_on_c, 0, 54, 88
3, 528349, Note_on_c, 0, 54, 0
3, 528349, Note_on_c, 0, 53, 88
3, 528392, Note_on_c, 0, 53, 0
3, 528392, Note_on_c, 0, 51, 88
3, 528436, Note_on_c, 0, 51, 0
3, 528436, Note_on_c, 0, 49, 88
3, 528480, Note_on_c, 0, 49, 0
3, 528480, Note_on_c, 0, 48, 88
3, 528523, Note_on_c, 0, 48, 0
3, 528523, Note_on_c, 0, 46, 88
3, 528567, Note_on_c, 0, 46, 0
3, 528567, Note_on_c, 0, 45, 88
3, 528610, Note_on_c, 0, 45, 0
3, 528610, Note_on_c, 0, 42, 88
3, 528654, Note_on_c, 0, 42, 0
3, 528654, Note_on_c, 0, 41, 88
3, 528697, Note_on_c, 0, 41, 0
3, 528697, Note_on_c, 0, 39, 88
3, 528742, Note_on_c, 0, 39, 0
3, 528742, Note_on_c, 0, 37, 88
3, 528785, Note_on_c, 0, 37, 0
3, 528785, Note_on_c, 0, 36, 88
3, 528829, Note_on_c, 0, 36, 0
3, 528829, Note_on_c, 0, 34, 88
3, 528872, Note_on_c, 0, 34, 0
3, 528872, Note_on_c, 0, 33, 88
3, 528916, Note_on_c, 0, 33, 0
3, 528916, Note_on_c, 0, 30, 88
3, 528960, Note_on_c, 0, 30, 0
3, 528960, Control_c, 0, 64, 0
3, 528960, Note_on_c, 0, 29, 88
3, 529440, Note_on_c, 0, 29, 0
3, 529440, Note_on_c, 0, 53, 75
3, 529440, Note_on_c, 0, 63, 75
3, 529920, Note_on_c, 0, 63, 0
3, 529920, Note_on_c, 0, 53, 0
3, 529920, Note_on_c, 0, 60, 75
3, 530400, Note_on_c, 0, 60, 0
3, 530400, Note_on_c, 0, 58, 75
3, 530640, Note_on_c, 0, 58, 0
3, 530640, Note_on_c, 0, 60, 75
3, 530880, Note_on_c, 0, 60, 0
3, 530880, Note_on_c, 0, 57, 75
3, 531120, Note_on_c, 0, 57, 0
3, 531360, Note_on_c, 0, 54, 101
3, 531407, Note_on_c, 0, 54, 0
3, 531600, Control_c, 0, 64, 127
3, 531600, Note_on_c, 0, 53, 75
3, 531720, Note_on_c, 0, 53, 0
3, 531720, Note_on_c, 0, 51, 75
3, 531840, Note_on_c, 0, 51, 0
3, 531840, Note_on_c, 0, 49, 75
3, 531920, Note_on_c, 0, 49, 0
3, 531920, Note_on_c, 0, 48, 75
3, 531999, Note_on_c, 0, 48, 0
3, 531999, Note_on_c, 0, 46, 75
3, 532080, Note_on_c, 0, 46, 0
3, 532080, Note_on_c, 0, 45, 75
3, 532160, Note_on_c, 0, 45, 0
3, 532160, Note_on_c, 0, 42, 75
3, 532239, Note_on_c, 0, 42, 0
3, 532239, Note_on_c, 0, 41, 75
3, 532320, Note_on_c, 0, 41, 0
3, 532320, Note_on_c, 0, 39, 75
3, 532400, Note_on_c, 0, 39, 0
3, 532400, Note_on_c, 0, 37, 75
3, 532479, Note_on_c, 0, 37, 0
3, 532479, Note_on_c, 0, 36, 75
3, 532560, Note_on_c, 0, 36, 0
3, 532560, Note_on_c, 0, 34, 75
3, 532640, Note_on_c, 0, 34, 0
3, 532640, Note_on_c, 0, 33, 75
3, 532719, Note_on_c, 0, 33, 0
3, 532719, Note_on_c, 0, 30, 75
3, 532800, Note_on_c, 0, 30, 0
3, 532800, Control_c, 0, 64, 0
3, 532800, Note_on_c, 0, 29, 75
3, 533280, Note_on_c, 0, 29, 0
3, 533280, Control_c, 0, 64, 127
3, 533280, Note_on_c, 0, 53, 88
3, 533280, Note_on_c, 0, 65, 88
3, 533760, Note_on_c, 0, 65, 0
3, 533760, Note_on_c, 0, 53, 0
3, 533760, Note_on_c, 0, 61, 88
3, 534240, Note_on_c, 0, 61, 0
3, 534240, Note_on_c, 0, 60, 88
3, 534480, Note_on_c, 0, 60, 0
3, 534480, Control_c, 0, 64, 0
3, 534480, Note_on_c, 0, 61, 88
3, 534720, Note_on_c, 0, 61, 0
3, 534720, Note_on_c, 0, 58, 88
3, 535200, Note_on_c, 0, 58, 0
3, 535200, Note_on_c, 0, 54, 114
3, 535247, Note_on_c, 0, 54, 0
3, 535440, Control_c, 0, 64, 127
3, 535440, Note_on_c, 0, 53, 88
3, 535560, Note_on_c, 0, 53, 0
3, 535560, Note_on_c, 0, 51, 88
3, 535680, Note_on_c, 0, 51, 0
3, 535680, Note_on_c, 0, 49, 88
3, 535760, Note_on_c, 0, 49, 0
3, 535760, Note_on_c, 0, 48, 88
3, 535839, Note_on_c, 0, 48, 0
3, 535839, Note_on_c, 0, 46, 88
3, 535920, Note_on_c, 0, 46, 0
3, 535920, Note_on_c, 0, 45, 88
3, 536000, Note_on_c, 0, 45, 0
3, 536000, Note_on_c, 0, 42, 88
3, 536079, Note_on_c, 0, 42, 0
3, 536079, Note_on_c, 0, 41, 88
3, 536160, Note_on_c, 0, 41, 0
3, 536160, Note_on_c, 0, 39, 88
3, 536240, Note_on_c, 0, 39, 0
3, 536240, Note_on_c, 0, 37, 88
3, 536319, Note_on_c, 0, 37, 0
3, 536319, Note_on_c, 0, 36, 88
3, 536400, Note_on_c, 0, 36, 0
3, 536400, Note_on_c, 0, 34, 88
3, 536480, Note_on_c, 0, 34, 0
3, 536480, Note_on_c, 0, 33, 88
3, 536559, Note_on_c, 0, 33, 0
3, 536559, Note_on_c, 0, 30, 88
3, 536640, Note_on_c, 0, 30, 0
3, 536640, Control_c, 0, 64, 0
3, 536640, Note_on_c, 0, 29, 88
3, 537120, Note_on_c, 0, 29, 0
3, 537120, Note_on_c, 0, 53, 88
3, 537120, Note_on_c, 0, 61, 88
3, 537600, Note_on_c, 0, 61, 0
3, 537600, Note_on_c, 0, 53, 0
3, 537600, Note_on_c, 0, 58, 88
3, 538080, Note_on_c, 0, 58, 0
3, 538080, Note_on_c, 0, 57, 88
3, 538320, Note_on_c, 0, 57, 0
3, 538320, Note_on_c, 0, 58, 88
3, 538560, Note_on_c, 0, 58, 0
3, 538560, Note_on_c, 0, 55, 88
3, 539040, Note_on_c, 0, 55, 0
3, 539040, Note_on_c, 0, 58, 114
3, 539087, Note_on_c, 0, 58, 0
3, 539280, Control_c, 0, 64, 127
3, 539280, Note_on_c, 0, 56, 88
3, 539400, Note_on_c, 0, 56, 0
3, 539400, Note_on_c, 0, 55, 88
3, 539520, Note_on_c, 0, 55, 0
3, 539520, Note_on_c, 0, 53, 88
3, 539588, Note_on_c, 0, 53, 0
3, 539588, Note_on_c, 0, 52, 88
3, 539657, Note_on_c, 0, 52, 0
3, 539657, Note_on_c, 0, 49, 88
3, 539725, Note_on_c, 0, 49, 0
3, 539725, Note_on_c, 0, 48, 88
3, 539794, Note_on_c, 0, 48, 0
3, 539794, Note_on_c, 0, 46, 88
3, 539862, Note_on_c, 0, 46, 0
3, 539862, Note_on_c, 0, 44, 88
3, 539931, Note_on_c, 0, 44, 0
3, 539931, Note_on_c, 0, 43, 88
3, 540000, Note_on_c, 0, 43, 0
3, 540000, Note_on_c, 0, 41, 88
3, 540068, Note_on_c, 0, 41, 0
3, 540068, Note_on_c, 0, 40, 88
3, 540137, Note_on_c, 0, 40, 0
3, 540137, Note_on_c, 0, 37, 88
3, 540205, Note_on_c, 0, 37, 0
3, 540205, Note_on_c, 0, 36, 88
3, 540274, Note_on_c, 0, 36, 0
3, 540274, Note_on_c, 0, 34, 88
3, 540342, Note_on_c, 0, 34, 0
3, 540342, Note_on_c, 0, 32, 88
3, 540411, Note_on_c, 0, 32, 0
3, 540411, Control_c, 0, 64, 0
3, 540411, Note_on_c, 0, 31, 88
3, 540480, Note_on_c, 0, 31, 0
3, 540480, Note_on_c, 0, 29, 88
3, 540960, Note_on_c, 0, 29, 0
3, 540960, Note_on_c, 0, 53, 88
3, 540960, Note_on_c, 0, 64, 88
3, 541440, Note_on_c, 0, 64, 0
3, 541440, Note_on_c, 0, 53, 0
3, 541440, Note_on_c, 0, 61, 88
3, 541920, Note_on_c, 0, 61, 0
3, 541920, Note_on_c, 0, 60, 88
3, 542160, Note_on_c, 0, 60, 0
3, 542160, Note_on_c, 0, 61, 88
3, 542400, Note_on_c, 0, 61, 0
3, 542400, Note_on_c, 0, 53, 88
3, 542400, Note_on_c, 0, 58, 88
3, 542880, Note_on_c, 0, 58, 0
3, 542880, Note_on_c, 0, 53, 0
3, 542880, Note_on_c, 0, 67, 114
3, 542927, Note_on_c, 0, 67, 0
3, 543120, Note_on_c, 0, 65, 88
3, 543240, Note_on_c, 0, 65, 0
3, 543240, Note_on_c, 0, 64, 88
3, 543360, Note_on_c, 0, 64, 0
3, 543360, Control_c, 0, 64, 127
3, 543360, Note_on_c, 0, 61, 88
3, 543413, Note_on_c, 0, 61, 0
3, 543413, Note_on_c, 0, 60, 88
3, 543466, Note_on_c, 0, 60, 0
3, 543466, Note_on_c, 0, 58, 88
3, 543519, Note_on_c, 0, 58, 0
3, 543519, Note_on_c, 0, 56, 88
3, 543573, Note_on_c, 0, 56, 0
3, 543573, Note_on_c, 0, 55, 88
3, 543626, Note_on_c, 0, 55, 0
3, 543626, Note_on_c, 0, 53, 88
3, 543680, Note_on_c, 0, 53, 0
3, 543680, Note_on_c, 0, 52, 88
3, 543733, Note_on_c, 0, 52, 0
3, 543733, Note_on_c, 0, 49, 88
3, 543786, Note_on_c, 0, 49, 0
3, 543786, Note_on_c, 0, 48, 88
3, 543840, Note_on_c, 0, 48, 0
3, 543840, Note_on_c, 0, 46, 88
3, 543887, Note_on_c, 0, 46, 0
3, 543887, Note_on_c, 0, 44, 88
3, 543936, Note_on_c, 0, 44, 0
3, 543936, Note_on_c, 0, 43, 88
3, 543983, Note_on_c, 0, 43, 0
3, 543983, Note_on_c, 0, 41, 88
3, 544032, Note_on_c, 0, 41, 0
3, 544032, Note_on_c, 0, 40, 88
3, 544080, Note_on_c, 0, 40, 0
3, 544080, Note_on_c, 0, 37, 88
3, 544127, Note_on_c, 0, 37, 0
3, 544127, Note_on_c, 0, 36, 88
3, 544176, Note_on_c, 0, 36, 0
3, 544176, Note_on_c, 0, 34, 88
3, 544223, Note_on_c, 0, 34, 0
3, 544223, Note_on_c, 0, 32, 88
3, 544272, Note_on_c, 0, 32, 0
3, 544272, Note_on_c, 0, 31, 88
3, 544320, Note_on_c, 0, 31, 0
3, 544320, Control_c, 0, 64, 0
3, 544320, Note_on_c, 0, 29, 88
3, 544710, Note_on_c, 0, 53, 88
3, 544740, Note_on_c, 0, 58, 88
3, 544770, Note_on_c, 0, 61, 88
3, 544800, Note_on_c, 0, 29, 0
3, 544800, Control_c, 0, 64, 127
3, 544800, Note_on_c, 0, 67, 88
3, 545190, Note_on_c, 0, 53, 88
3, 545220, Note_on_c, 0, 58, 88
3, 545250, Note_on_c, 0, 61, 88
3, 545280, Note_on_c, 0, 67, 0
3, 545280, Note_on_c, 0, 53, 0
3, 545280, Note_on_c, 0, 61, 0
3, 545280, Note_on_c, 0, 58, 0
3, 545280, Note_on_c, 0, 64, 88
3, 545760, Note_on_c, 0, 64, 0
3, 545760, Note_on_c, 0, 58, 0
3, 545760, Note_on_c, 0, 53, 0
3, 545760, Note_on_c, 0, 61, 0
3, 545760, Note_on_c, 0, 53, 88
3, 545760, Note_on_c, 0, 58, 88
3, 545760, Note_on_c, 0, 61, 88
3, 545760, Note_on_c, 0, 63, 88
3, 546000, Note_on_c, 0, 63, 0
3, 546000, Note_on_c, 0, 53, 0
3, 546000, Note_on_c, 0, 58, 0
3, 546000, Note_on_c, 0, 61, 0
3, 546000, Control_c, 0, 64, 0
3, 546000, Note_on_c, 0, 53, 88
3, 546000, Note_on_c, 0, 58, 88
3, 546000, Note_on_c, 0, 61, 88
3, 546000, Note_on_c, 0, 64, 88
3, 546240, Note_on_c, 0, 64, 0
3, 546240, Note_on_c, 0, 53, 0
3, 546240, Note_on_c, 0, 58, 0
3, 546240, Note_on_c, 0, 61, 0
3, 546240, Control_c, 0, 64, 127
3, 546240, Note_on_c, 0, 53, 88
3, 546240, Note_on_c, 0, 58, 88
3, 546240, Note_on_c, 0, 61, 88
3, 546630, Note_on_c, 0, 53, 88
3, 546660, Note_on_c, 0, 58, 88
3, 546690, Note_on_c, 0, 61, 88
3, 546720, Note_on_c, 0, 61, 0
3, 546720, Note_on_c, 0, 53, 0
3, 546720, Note_on_c, 0, 58, 0
3, 546720, Control_c, 0, 64, 127
3, 546720, Note_on_c, 0, 70, 88
3, 547110, Note_on_c, 0, 53, 88
3, 547140, Note_on_c, 0, 58, 88
3, 547170, Note_on_c, 0, 61, 88
3, 547200, Note_on_c, 0, 70, 0
3, 547200, Note_on_c, 0, 53, 0
3, 547200, Note_on_c, 0, 61, 0
3, 547200, Note_on_c, 0, 58, 0
3, 547200, Note_on_c, 0, 67, 88
3, 547680, Note_on_c, 0, 67, 0
3, 547680, Note_on_c, 0, 58, 0
3, 547680, Note_on_c, 0, 53, 0
3, 547680, Note_on_c, 0, 61, 0
3, 547680, Note_on_c, 0, 53, 88
3, 547680, Note_on_c, 0, 58, 88
3, 547680, Note_on_c, 0, 61, 88
3, 547680, Note_on_c, 0, 66, 88
3, 547920, Note_on_c, 0, 66, 0
3, 547920, Note_on_c, 0, 53, 0
3, 547920, Note_on_c, 0, 58, 0
3, 547920, Note_on_c, 0, 61, 0
3, 547920, Control_c, 0, 64, 0
3, 547920, Note_on_c, 0, 53, 88
3, 547920, Note_on_c, 0, 58, 88
3, 547920, Note_on_c, 0, 61, 88
3, 547920, Note_on_c, 0, 67, 88
3, 548160, Note_on_c, 0, 67, 0
3, 548160, Note_on_c, 0, 53, 0
3, 548160, Note_on_c, 0, 58, 0
3, 548160, Note_on_c, 0, 61, 0
3, 548160, Note_on_c, 0, 53, 88
3, 548160, Note_on_c, 0, 58, 88
3, 548160, Note_on_c, 0, 61, 88
3, 548160, Note_on_c, 0, 64, 88
3, 548400, Note_on_c, 0, 64, 0
3, 548400, Note_on_c, 0, 53, 0
3, 548400, Note_on_c, 0, 58, 0
3, 548400, Note_on_c, 0, 61, 0
3, 548400, Note_on_c, 0, 61, 88
3, 548400, Note_on_c, 0, 67, 88
3, 548400, Note_on_c, 0, 73, 88
3, 548640, Note_on_c, 0, 73, 0
3, 548640, Note_on_c, 0, 67, 0
3, 548640, Note_on_c, 0, 61, 0
3, 548640, Note_on_c, 0, 60, 88
3, 548640, Note_on_c, 0, 66, 88
3, 548640, Note_on_c, 0, 72, 88
3, 548880, Note_on_c, 0, 72, 0
3, 548880, Note_on_c, 0, 66, 0
3, 548880, Note_on_c, 0, 60, 0
3, 548880, Note_on_c, 0, 61, 88
3, 548880, Note_on_c, 0, 67, 88
3, 548880, Note_on_c, 0, 73, 88
3, 549120, Note_on_c, 0, 73, 0
3, 549120, Note_on_c, 0, 67, 0
3, 549120, Note_on_c, 0, 61, 0
3, 549120, Note_on_c, 0, 58, 88
3, 549120, Note_on_c, 0, 64, 88
3, 549120, Note_on_c, 0, 70, 88
3, 549360, Note_on_c, 0, 70, 0
3, 549360, Note_on_c, 0, 64, 0
3, 549360, Note_on_c, 0, 58, 0
3, 549360, Note_on_c, 0, 64, 88
3, 549360, Note_on_c, 0, 70, 88
3, 549360, Note_on_c, 0, 76, 88
3, 549600, Note_on_c, 0, 76, 0
3, 549600, Note_on_c, 0, 70, 0
3, 549600, Note_on_c, 0, 64, 0
3, 549600, Note_on_c, 0, 63, 88
3, 549600, Note_on_c, 0, 69, 88
3, 549600, Note_on_c, 0, 75, 88
3, 549840, Note_on_c, 0, 75, 0
3, 549840, Note_on_c, 0, 69, 0
3, 549840, Note_on_c, 0, 63, 0
3, 549840, Note_on_c, 0, 64, 88
3, 549840, Note_on_c, 0, 70, 88
3, 549840, Note_on_c, 0, 76, 88
3, 550080, Note_on_c, 0, 76, 0
3, 550080, Note_on_c, 0, 70, 0
3, 550080, Note_on_c, 0, 64, 0
3, 550080, Note_on_c, 0, 61, 88
3, 550080, Note_on_c, 0, 67, 88
3, 550080, Note_on_c, 0, 73, 88
3, 550320, Note_on_c, 0, 73, 0
3, 550320, Note_on_c, 0, 67, 0
3, 550320, Note_on_c, 0, 61, 0
3, 550320, Note_on_c, 0, 67, 88
3, 550320, Note_on_c, 0, 73, 88
3, 550320, Note_on_c, 0, 79, 88
3, 550560, Note_on_c, 0, 79, 0
3, 550560, Note_on_c, 0, 73, 0
3, 550560, Note_on_c, 0, 67, 0
3, 550560, Note_on_c, 0, 66, 88
3, 550560, Note_on_c, 0, 72, 88
3, 550560, Note_on_c, 0, 78, 88
3, 550800, Note_on_c, 0, 78, 0
3, 550800, Note_on_c, 0, 72, 0
3, 550800, Note_on_c, 0, 66, 0
3, 550800, Note_on_c, 0, 67, 88
3, 550800, Note_on_c, 0, 73, 88
3, 550800, Note_on_c, 0, 79, 88
3, 551040, Note_on_c, 0, 79, 0
3, 551040, Note_on_c, 0, 73, 0
3, 551040, Note_on_c, 0, 67, 0
3, 551040, Note_on_c, 0, 64, 88
3, 551040, Note_on_c, 0, 70, 88
3, 551040, Note_on_c, 0, 76, 88
3, 551280, Note_on_c, 0, 76, 0
3, 551280, Note_on_c, 0, 70, 0
3, 551280, Note_on_c, 0, 64, 0
3, 551280, Note_on_c, 0, 70, 88
3, 551280, Note_on_c, 0, 76, 88
3, 551280, Note_on_c, 0, 82, 88
3, 551520, Note_on_c, 0, 82, 0
3, 551520, Note_on_c, 0, 76, 0
3, 551520, Note_on_c, 0, 70, 0
3, 551520, Note_on_c, 0, 69, 88
3, 551520, Note_on_c, 0, 75, 88
3, 551520, Note_on_c, 0, 81, 88
3, 551760, Note_on_c, 0, 81, 0
3, 551760, Note_on_c, 0, 75, 0
3, 551760, Note_on_c, 0, 69, 0
3, 551760, Note_on_c, 0, 70, 88
3, 551760, Note_on_c, 0, 76, 88
3, 551760, Note_on_c, 0, 82, 88
3, 552000, Note_on_c, 0, 82, 0
3, 552000, Note_on_c, 0, 76, 0
3, 552000, Note_on_c, 0, 70, 0
3, 552000, Note_on_c, 0, 67, 88
3, 552000, Note_on_c, 0, 73, 88
3, 552000, Note_on_c, 0, 79, 88
3, 552480, Note_on_c, 0, 79, 0
3, 552480, Note_on_c, 0, 73, 0
3, 552480, Note_on_c, 0, 67, 0
3, 552480, Note_on_c, 0, 91, 127
3, 552527, Note_on_c, 0, 91, 0
3, 552720, Control_c, 0, 64, 127
3, 552720, Note_on_c, 0, 89, 101
3, 552840, Note_on_c, 0, 89, 0
3, 552840, Note_on_c, 0, 88, 101
3, 552960, Note_on_c, 0, 88, 0
3, 552960, Note_on_c, 0, 85, 101
3, 553040, Note_on_c, 0, 85, 0
3, 553040, Note_on_c, 0, 84, 101
3, 553119, Note_on_c, 0, 84, 0
3, 553119, Note_on_c, 0, 82, 101
3, 553200, Note_on_c, 0, 82, 0
3, 553200, Note_on_c, 0, 80, 101
3, 553280, Note_on_c, 0, 80, 0
3, 553280, Note_on_c, 0, 79, 101
3, 553359, Note_on_c, 0, 79, 0
3, 553359, Note_on_c, 0, 77, 101
3, 553440, Note_on_c, 0, 77, 0
3, 553440, Note_on_c, 0, 76, 101
3, 553536, Note_on_c, 0, 76, 0
3, 553536, Note_on_c, 0, 73, 101
3, 553632, Note_on_c, 0, 73, 0
3, 553632, Note_on_c, 0, 72, 101
3, 553727, Note_on_c, 0, 72, 0
3, 553727, Note_on_c, 0, 70, 101
3, 553823, Note_on_c, 0, 70, 0
3, 553823, Note_on_c, 0, 68, 101
3, 553920, Note_on_c, 0, 68, 0
3, 553920, Note_on_c, 0, 67, 101
3, 554000, Note_on_c, 0, 67, 0
3, 554000, Note_on_c, 0, 65, 101
3, 554079, Note_on_c, 0, 65, 0
3, 554079, Note_on_c, 0, 64, 101
3, 554160, Note_on_c, 0, 64, 0
3, 554160, Note_on_c, 0, 61, 101
3, 554240, Note_on_c, 0, 61, 0
3, 554240, Note_on_c, 0, 60, 101
3, 554319, Note_on_c, 0, 60, 0
3, 554319, Note_on_c, 0, 58, 101
3, 554400, Note_on_c, 0, 58, 0
3, 554400, Note_on_c, 0, 56, 101
3, 554480, Note_on_c, 0, 56, 0
3, 554480, Note_on_c, 0, 55, 101
3, 554559, Note_on_c, 0, 55, 0
3, 554559, Note_on_c, 0, 53, 101
3, 554640, Note_on_c, 0, 53, 0
3, 554640, Note_on_c, 0, 52, 101
3, 554720, Note_on_c, 0, 52, 0
3, 554720, Note_on_c, 0, 49, 101
3, 554799, Note_on_c, 0, 49, 0
3, 554799, Note_on_c, 0, 48, 101
3, 554880, Note_on_c, 0, 48, 0
3, 554880, Note_on_c, 0, 46, 101
3, 554960, Note_on_c, 0, 46, 0
3, 554960, Note_on_c, 0, 44, 101
3, 555039, Note_on_c, 0, 44, 0
3, 555039, Note_on_c, 0, 43, 101
3, 555120, Note_on_c, 0, 43, 0
3, 555120, Note_on_c, 0, 41, 101
3, 555200, Note_on_c, 0, 41, 0
3, 555200, Note_on_c, 0, 40, 101
3, 555279, Note_on_c, 0, 40, 0
3, 555279, Note_on_c, 0, 37, 101
3, 555360, Note_on_c, 0, 37, 0
3, 555360, Note_on_c, 0, 36, 101
3, 555440, Note_on_c, 0, 36, 0
3, 555440, Note_on_c, 0, 34, 101
3, 555519, Note_on_c, 0, 34, 0
3, 555519, Note_on_c, 0, 32, 101
3, 555600, Note_on_c, 0, 32, 0
3, 555600, Note_on_c, 0, 31, 101
3, 555720, Note_on_c, 0, 31, 0
3, 555720, Control_c, 0, 64, 0
3, 555720, Note_on_c, 0, 29, 101
3, 555840, Note_on_c, 0, 29, 0
3, 555840, Control_c, 0, 64, 127
3, 555840, Note_on_c, 0, 28, 88
3, 555900, Note_on_c, 0, 28, 0
3, 555900, Note_on_c, 0, 29, 88
3, 555960, Note_on_c, 0, 29, 0
3, 555960, Note_on_c, 0, 31, 88
3, 556020, Note_on_c, 0, 31, 0
3, 556020, Note_on_c, 0, 32, 88
3, 556080, Note_on_c, 0, 32, 0
3, 556080, Note_on_c, 0, 34, 101
3, 556140, Note_on_c, 0, 34, 0
3, 556140, Note_on_c, 0, 36, 101
3, 556200, Note_on_c, 0, 36, 0
3, 556200, Note_on_c, 0, 37, 101
3, 556260, Note_on_c, 0, 37, 0
3, 556260, Control_c, 0, 64, 0
3, 556260, Note_on_c, 0, 39, 101
3, 556320, Note_on_c, 0, 39, 0
3, 556320, Control_c, 0, 64, 127
3, 556320, Note_on_c, 0, 40, 101
3, 556400, Note_on_c, 0, 40, 0
3, 556400, Note_on_c, 0, 39, 101
3, 556479, Note_on_c, 0, 39, 0
3, 556479, Note_on_c, 0, 37, 101
3, 556560, Note_on_c, 0, 37, 0
3, 556560, Note_on_c, 0, 36, 88
3, 556640, Note_on_c, 0, 36, 0
3, 556640, Note_on_c, 0, 34, 88
3, 556719, Note_on_c, 0, 34, 0
3, 556719, Control_c, 0, 64, 0
3, 556719, Note_on_c, 0, 32, 88
3, 556800, Note_on_c, 0, 32, 0
3, 556800, Control_c, 0, 64, 127
3, 556800, Note_on_c, 0, 31, 88
3, 556868, Note_on_c, 0, 31, 0
3, 556868, Note_on_c, 0, 32, 88
3, 556937, Note_on_c, 0, 32, 0
3, 556937, Note_on_c, 0, 34, 88
3, 557005, Note_on_c, 0, 34, 0
3, 557005, Note_on_c, 0, 36, 88
3, 557074, Note_on_c, 0, 36, 0
3, 557074, Note_on_c, 0, 37, 101
3, 557142, Note_on_c, 0, 37, 0
3, 557142, Note_on_c, 0, 40, 101
3, 557211, Note_on_c, 0, 40, 0
3, 557211, Control_c, 0, 64, 0
3, 557211, Note_on_c, 0, 41, 101
3, 557280, Note_on_c, 0, 41, 0
3, 557280, Control_c, 0, 64, 127
3, 557280, Note_on_c, 0, 43, 101
3, 557376, Note_on_c, 0, 43, 0
3, 557376, Note_on_c, 0, 41, 101
3, 557472, Note_on_c, 0, 41, 0
3, 557472, Note_on_c, 0, 40, 88
3, 557567, Note_on_c, 0, 40, 0
3, 557567, Note_on_c, 0, 37, 88
3, 557663, Note_on_c, 0, 37, 0
3, 557663, Control_c, 0, 64, 0
3, 557663, Note_on_c, 0, 36, 88
3, 557760, Note_on_c, 0, 36, 0
3, 557760, Control_c, 0, 64, 127
3, 557760, Note_on_c, 0, 34, 88
3, 557820, Note_on_c, 0, 34, 0
3, 557820, Note_on_c, 0, 36, 88
3, 557880, Note_on_c, 0, 36, 0
3, 557880, Note_on_c, 0, 37, 88
3, 557940, Note_on_c, 0, 37, 0
3, 557940, Note_on_c, 0, 39, 88
3, 558000, Note_on_c, 0, 39, 0
3, 558000, Note_on_c, 0, 40, 101
3, 558060, Note_on_c, 0, 40, 0
3, 558060, Note_on_c, 0, 41, 101
3, 558120, Note_on_c, 0, 41, 0
3, 558120, Note_on_c, 0, 43, 101
3, 558180, Note_on_c, 0, 43, 0
3, 558180, Control_c, 0, 64, 0
3, 558180, Note_on_c, 0, 44, 101
3, 558240, Note_on_c, 0, 44, 0
3, 558240, Control_c, 0, 64, 127
3, 558240, Note_on_c, 0, 46, 101
3, 558320, Note_on_c, 0, 46, 0
3, 558320, Note_on_c, 0, 44, 101
3, 558399, Note_on_c, 0, 44, 0
3, 558399, Note_on_c, 0, 43, 101
3, 558480, Note_on_c, 0, 43, 0
3, 558480, Note_on_c, 0, 41, 88
3, 558560, Note_on_c, 0, 41, 0
3, 558560, Note_on_c, 0, 40, 88
3, 558639, Note_on_c, 0, 40, 0
3, 558639, Control_c, 0, 64, 0
3, 558639, Note_on_c, 0, 39, 88
3, 558720, Note_on_c, 0, 39, 0
3, 558720, Control_c, 0, 64, 127
3, 558720, Note_on_c, 0, 37, 88
3, 558788, Note_on_c, 0, 37, 0
3, 558788, Note_on_c, 0, 39, 88
3, 558857, Note_on_c, 0, 39, 0
3, 558857, Note_on_c, 0, 41, 88
3, 558925, Note_on_c, 0, 41, 0
3, 558925, Note_on_c, 0, 43, 88
3, 558994, Note_on_c, 0, 43, 0
3, 558994, Note_on_c, 0, 44, 101
3, 559062, Note_on_c, 0, 44, 0
3, 559062, Note_on_c, 0, 46, 101
3, 559131, Note_on_c, 0, 46, 0
3, 559131, Control_c, 0, 64, 0
3, 559131, Note_on_c, 0, 48, 101
3, 559200, Note_on_c, 0, 48, 0
3, 559200, Control_c, 0, 64, 127
3, 559200, Note_on_c, 0, 49, 101
3, 559280, Note_on_c, 0, 49, 0
3, 559280, Note_on_c, 0, 48, 101
3, 559359, Note_on_c, 0, 48, 0
3, 559359, Note_on_c, 0, 46, 101
3, 559440, Note_on_c, 0, 46, 0
3, 559440, Note_on_c, 0, 44, 88
3, 559520, Note_on_c, 0, 44, 0
3, 559520, Note_on_c, 0, 43, 88
3, 559599, Note_on_c, 0, 43, 0
3, 559599, Control_c, 0, 64, 0
3, 559599, Note_on_c, 0, 41, 88
3, 559680, Note_on_c, 0, 41, 0
3, 559680, Control_c, 0, 64, 127
3, 559680, Note_on_c, 0, 40, 88
3, 559740, Note_on_c, 0, 40, 0
3, 559740, Note_on_c, 0, 41, 88
3, 559800, Note_on_c, 0, 41, 0
3, 559800, Note_on_c, 0, 43, 88
3, 559860, Note_on_c, 0, 43, 0
3, 559860, Note_on_c, 0, 44, 88
3, 559920, Note_on_c, 0, 44, 0
3, 559920, Note_on_c, 0, 46, 101
3, 559980, Note_on_c, 0, 46, 0
3, 559980, Note_on_c, 0, 48, 101
3, 560040, Note_on_c, 0, 48, 0
3, 560040, Note_on_c, 0, 49, 101
3, 560100, Note_on_c, 0, 49, 0
3, 560100, Control_c, 0, 64, 0
3, 560100, Note_on_c, 0, 51, 101
3, 560160, Note_on_c, 0, 51, 0
3, 560160, Control_c, 0, 64, 127
3, 560160, Note_on_c, 0, 52, 101
3, 560220, Note_on_c, 0, 52, 0
3, 560220, Note_on_c, 0, 48, 101
3, 560280, Note_on_c, 0, 48, 0
3, 560280, Note_on_c, 0, 49, 101
3, 560340, Note_on_c, 0, 49, 0
3, 560340, Note_on_c, 0, 51, 101
3, 560400, Note_on_c, 0, 51, 0
3, 560400, Note_on_c, 0, 52, 101
3, 560460, Note_on_c, 0, 52, 0
3, 560460, Note_on_c, 0, 53, 101
3, 560520, Note_on_c, 0, 53, 0
3, 560520, Note_on_c, 0, 55, 101
3, 560580, Note_on_c, 0, 55, 0
3, 560580, Control_c, 0, 64, 0
3, 560580, Note_on_c, 0, 56, 101
3, 560640, Note_on_c, 0, 56, 0
3, 560640, Control_c, 0, 64, 127
3, 560640, Note_on_c, 0, 58, 101
3, 560708, Note_on_c, 0, 58, 0
3, 560708, Note_on_c, 0, 52, 101
3, 560777, Note_on_c, 0, 52, 0
3, 560777, Note_on_c, 0, 53, 101
3, 560845, Note_on_c, 0, 53, 0
3, 560845, Note_on_c, 0, 55, 101
3, 560914, Note_on_c, 0, 55, 0
3, 560914, Note_on_c, 0, 56, 101
3, 560982, Note_on_c, 0, 56, 0
3, 560982, Note_on_c, 0, 58, 101
3, 561051, Note_on_c, 0, 58, 0
3, 561051, Control_c, 0, 64, 0
3, 561051, Note_on_c, 0, 60, 101
3, 561120, Note_on_c, 0, 60, 0
3, 561120, Control_c, 0, 64, 127
3, 561120, Note_on_c, 0, 61, 101
3, 561188, Note_on_c, 0, 61, 0
3, 561188, Note_on_c, 0, 55, 101
3, 561257, Note_on_c, 0, 55, 0
3, 561257, Note_on_c, 0, 56, 101
3, 561325, Note_on_c, 0, 56, 0
3, 561325, Note_on_c, 0, 58, 101
3, 561394, Note_on_c, 0, 58, 0
3, 561394, Note_on_c, 0, 60, 101
3, 561462, Note_on_c, 0, 60, 0
3, 561462, Note_on_c, 0, 61, 101
3, 561531, Note_on_c, 0, 61, 0
3, 561531, Control_c, 0, 64, 0
3, 561531, Note_on_c, 0, 63, 101
3, 561600, Note_on_c, 0, 63, 0
3, 561600, Control_c, 0, 64, 127
3, 561600, Note_on_c, 0, 64, 101
3, 561660, Note_on_c, 0, 64, 0
3, 561660, Note_on_c, 0, 60, 101
3, 561720, Note_on_c, 0, 60, 0
3, 561720, Note_on_c, 0, 61, 101
3, 561780, Note_on_c, 0, 61, 0
3, 561780, Note_on_c, 0, 63, 101
3, 561840, Note_on_c, 0, 63, 0
3, 561840, Note_on_c, 0, 64, 101
3, 561900, Note_on_c, 0, 64, 0
3, 561900, Note_on_c, 0, 65, 101
3, 561960, Note_on_c, 0, 65, 0
3, 561960, Note_on_c, 0, 67, 101
3, 562020, Note_on_c, 0, 67, 0
3, 562020, Control_c, 0, 64, 0
3, 562020, Note_on_c, 0, 68, 101
3, 562080, Note_on_c, 0, 68, 0
3, 562080, Control_c, 0, 64, 127
3, 562080, Note_on_c, 0, 70, 101
3, 562148, Note_on_c, 0, 70, 0
3, 562148, Note_on_c, 0, 64, 101
3, 562217, Note_on_c, 0, 64, 0
3, 562217, Note_on_c, 0, 65, 101
3, 562285, Note_on_c, 0, 65, 0
3, 562285, Note_on_c, 0, 67, 101
3, 562354, Note_on_c, 0, 67, 0
3, 562354, Note_on_c, 0, 68, 101
3, 562422, Note_on_c, 0, 68, 0
3, 562422, Note_on_c, 0, 70, 101
3, 562491, Note_on_c, 0, 70, 0
3, 562491, Control_c, 0, 64, 0
3, 562491, Note_on_c, 0, 72, 101
3, 562560, Note_on_c, 0, 72, 0
3, 562560, Control_c, 0, 64, 127
3, 562560, Note_on_c, 0, 73, 101
3, 562628, Note_on_c, 0, 73, 0
3, 562628, Note_on_c, 0, 67, 101
3, 562697, Note_on_c, 0, 67, 0
3, 562697, Note_on_c, 0, 68, 101
3, 562765, Note_on_c, 0, 68, 0
3, 562765, Note_on_c, 0, 70, 101
3, 562834, Note_on_c, 0, 70, 0
3, 562834, Note_on_c, 0, 72, 101
3, 562902, Note_on_c, 0, 72, 0
3, 562902, Note_on_c, 0, 73, 101
3, 562971, Note_on_c, 0, 73, 0
3, 562971, Control_c, 0, 64, 0
3, 562971, Note_on_c, 0, 75, 101
3, 563040, Note_on_c, 0, 75, 0
3, 563040, Control_c, 0, 64, 127
3, 563040, Note_on_c, 0, 76, 101
3, 563100, Note_on_c, 0, 76, 0
3, 563100, Note_on_c, 0, 72, 101
3, 563160, Note_on_c, 0, 72, 0
3, 563160, Note_on_c, 0, 73, 101
3, 563220, Note_on_c, 0, 73, 0
3, 563220, Note_on_c, 0, 75, 101
3, 563280, Note_on_c, 0, 75, 0
3, 563280, Note_on_c, 0, 76, 101
3, 563340, Note_on_c, 0, 76, 0
3, 563340, Note_on_c, 0, 77, 101
3, 563400, Note_on_c, 0, 77, 0
3, 563400, Note_on_c, 0, 79, 101
3, 563460, Note_on_c, 0, 79, 0
3, 563460, Control_c, 0, 64, 0
3, 563460, Note_on_c, 0, 80, 101
3, 563520, Note_on_c, 0, 80, 0
3, 563520, Note_on_c, 0, 82, 75
3, 563640, Note_on_c, 0, 82, 0
3, 563640, Note_on_c, 0, 84, 75
3, 563760, Note_on_c, 0, 84, 0
3, 563760, Note_on_c, 0, 82, 75
3, 563880, Note_on_c, 0, 82, 0
3, 563880, Note_on_c, 0, 84, 75
3, 564000, Note_on_c, 0, 84, 0
3, 564000, Note_on_c, 0, 82, 75
3, 564120, Note_on_c, 0, 82, 0
3, 564120, Note_on_c, 0, 84, 75
3, 564240, Note_on_c, 0, 84, 0
3, 564240, Note_on_c, 0, 82, 75
3, 564360, Note_on_c, 0, 82, 0
3, 564360, Note_on_c, 0, 84, 75
3, 564480, Note_on_c, 0, 84, 0
3, 564480, Note_on_c, 0, 82, 75
3, 564600, Note_on_c, 0, 82, 0
3, 564600, Note_on_c, 0, 84, 75
3, 564720, Note_on_c, 0, 84, 0
3, 564720, Note_on_c, 0, 82, 75
3, 564840, Note_on_c, 0, 82, 0
3, 564840, Note_on_c, 0, 84, 75
3, 564960, Note_on_c, 0, 84, 0
3, 564960, Note_on_c, 0, 82, 75
3, 565080, Note_on_c, 0, 82, 0
3, 565080, Note_on_c, 0, 84, 75
3, 565200, Note_on_c, 0, 84, 0
3, 565200, Note_on_c, 0, 82, 75
3, 565320, Note_on_c, 0, 82, 0
3, 565320, Note_on_c, 0, 84, 75
3, 565440, Note_on_c, 0, 84, 0
3, 565440, Note_on_c, 0, 82, 75
3, 565560, Note_on_c, 0, 82, 0
3, 565560, Note_on_c, 0, 84, 75
3, 565680, Note_on_c, 0, 84, 0
3, 565680, Note_on_c, 0, 82, 75
3, 565800, Note_on_c, 0, 82, 0
3, 565800, Note_on_c, 0, 84, 75
3, 565920, Note_on_c, 0, 84, 0
3, 565920, Note_on_c, 0, 82, 75
3, 566040, Note_on_c, 0, 82, 0
3, 566040, Note_on_c, 0, 84, 75
3, 566160, Note_on_c, 0, 84, 0
3, 566160, Note_on_c, 0, 82, 75
3, 566280, Note_on_c, 0, 82, 0
3, 566280, Note_on_c, 0, 84, 75
3, 566400, Note_on_c, 0, 84, 0
3, 566400, Note_on_c, 0, 82, 75
3, 566520, Note_on_c, 0, 82, 0
3, 566520, Note_on_c, 0, 84, 75
3, 566640, Note_on_c, 0, 84, 0
3, 566640, Note_on_c, 0, 82, 75
3, 566760, Note_on_c, 0, 82, 0
3, 566760, Note_on_c, 0, 84, 75
3, 566880, Note_on_c, 0, 84, 0
3, 566880, Note_on_c, 0, 82, 75
3, 567000, Note_on_c, 0, 82, 0
3, 567000, Note_on_c, 0, 84, 75
3, 567120, Note_on_c, 0, 84, 0
3, 567120, Note_on_c, 0, 81, 75
3, 567240, Note_on_c, 0, 81, 0
3, 567240, Note_on_c, 0, 82, 75
3, 567360, Note_on_c, 0, 82, 0
3, 567360, Note_on_c, 0, 87, 88
3, 567840, Note_on_c, 0, 87, 0
3, 569439, Note_on_c, 0, 34, 88
3, 569439, Note_on_c, 0, 46, 88
3, 569600, Note_on_c, 0, 46, 0
3, 569600, Note_on_c, 0, 34, 0
3, 569600, Note_on_c, 0, 36, 88
3, 569600, Note_on_c, 0, 48, 88
3, 569760, Note_on_c, 0, 48, 0
3, 569760, Note_on_c, 0, 36, 0
3, 569760, Note_on_c, 0, 38, 88
3, 569760, Note_on_c, 0, 50, 88
3, 569919, Note_on_c, 0, 50, 0
3, 569919, Note_on_c, 0, 38, 0
3, 569919, Note_on_c, 0, 39, 88
3, 569919, Note_on_c, 0, 51, 88
3, 570080, Note_on_c, 0, 51, 0
3, 570080, Note_on_c, 0, 39, 0
3, 570080, Note_on_c, 0, 41, 88
3, 570080, Note_on_c, 0, 53, 88
3, 570240, Note_on_c, 0, 53, 0
3, 570240, Note_on_c, 0, 41, 0
3, 570240, Note_on_c, 0, 43, 88
3, 570240, Note_on_c, 0, 55, 88
3, 570399, Note_on_c, 0, 55, 0
3, 570399, Note_on_c, 0, 43, 0
3, 570399, Note_on_c, 0, 39, 88
3, 570399, Note_on_c, 0, 51, 88
3, 570560, Note_on_c, 0, 51, 0
3, 570560, Note_on_c, 0, 39, 0
3, 570560, Note_on_c, 0, 41, 88
3, 570560, Note_on_c, 0, 53, 88
3, 570720, Note_on_c, 0, 53, 0
3, 570720, Note_on_c, 0, 41, 0
3, 570720, Note_on_c, 0, 43, 88
3, 570720, Note_on_c, 0, 55, 88
3, 570879, Note_on_c, 0, 55, 0
3, 570879, Note_on_c, 0, 43, 0
3, 570879, Note_on_c, 0, 44, 88
3, 570879, Note_on_c, 0, 56, 88
3, 571040, Note_on_c, 0, 56, 0
3, 571040, Note_on_c, 0, 44, 0
3, 571040, Note_on_c, 0, 46, 88
3, 571040, Note_on_c, 0, 58, 88
3, 571200, Note_on_c, 0, 58, 0
3, 571200, Note_on_c, 0, 46, 0
3, 571200, Note_on_c, 0, 46, 88
3, 571200, Note_on_c, 0, 58, 88
3, 571359, Note_on_c, 0, 58, 0
3, 571359, Note_on_c, 0, 46, 0
3, 571359, Note_on_c, 0, 45, 88
3, 571359, Note_on_c, 0, 57, 88
3, 571520, Note_on_c, 0, 57, 0
3, 571520, Note_on_c, 0, 45, 0
3, 571520, Note_on_c, 0, 46, 88
3, 571520, Note_on_c, 0, 58, 88
3, 571680, Note_on_c, 0, 58, 0
3, 571680, Note_on_c, 0, 46, 0
3, 571680, Note_on_c, 0, 46, 88
3, 571680, Note_on_c, 0, 58, 88
3, 571839, Note_on_c, 0, 58, 0
3, 571839, Note_on_c, 0, 46, 0
3, 571839, Note_on_c, 0, 45, 88
3, 571839, Note_on_c, 0, 57, 88
3, 572000, Note_on_c, 0, 57, 0
3, 572000, Note_on_c, 0, 45, 0
3, 572000, Note_on_c, 0, 46, 88
3, 572000, Note_on_c, 0, 58, 88
3, 572160, Note_on_c, 0, 58, 0
3, 572160, Note_on_c, 0, 46, 0
3, 572160, Note_on_c, 0, 46, 88
3, 572160, Note_on_c, 0, 58, 88
3, 572319, Note_on_c, 0, 58, 0
3, 572319, Note_on_c, 0, 46, 0
3, 572319, Note_on_c, 0, 45, 88
3, 572319, Note_on_c, 0, 57, 88
3, 572480, Note_on_c, 0, 57, 0
3, 572480, Note_on_c, 0, 45, 0
3, 572480, Note_on_c, 0, 46, 88
3, 572480, Note_on_c, 0, 58, 88
3, 572640, Note_on_c, 0, 58, 0
3, 572640, Note_on_c, 0, 46, 0
3, 572640, Note_on_c, 0, 46, 88
3, 572640, Note_on_c, 0, 58, 88
3, 572799, Note_on_c, 0, 58, 0
3, 572799, Note_on_c, 0, 46, 0
3, 572799, Note_on_c, 0, 45, 88
3, 572799, Note_on_c, 0, 57, 88
3, 572960, Note_on_c, 0, 57, 0
3, 572960, Note_on_c, 0, 45, 0
3, 572960, Note_on_c, 0, 46, 88
3, 572960, Note_on_c, 0, 58, 88
3, 573120, Note_on_c, 0, 58, 0
3, 573120, Note_on_c, 0, 46, 0
3, 573120, Note_on_c, 0, 46, 88
3, 573120, Note_on_c, 0, 58, 88
3, 573279, Note_on_c, 0, 58, 0
3, 573279, Note_on_c, 0, 46, 0
3, 573279, Note_on_c, 0, 48, 88
3, 573279, Note_on_c, 0, 60, 88
3, 573440, Note_on_c, 0, 60, 0
3, 573440, Note_on_c, 0, 48, 0
3, 573440, Note_on_c, 0, 49, 88
3, 573440, Note_on_c, 0, 61, 88
3, 573600, Note_on_c, 0, 61, 0
3, 573600, Note_on_c, 0, 49, 0
3, 573600, Note_on_c, 0, 50, 88
3, 573600, Note_on_c, 0, 62, 88
3, 573759, Note_on_c, 0, 62, 0
3, 573759, Note_on_c, 0, 50, 0
3, 573759, Note_on_c, 0, 51, 88
3, 573759, Note_on_c, 0, 63, 88
3, 573920, Note_on_c, 0, 63, 0
3, 573920, Note_on_c, 0, 51, 0
3, 573920, Note_on_c, 0, 52, 88
3, 573920, Note_on_c, 0, 64, 88
3, 574080, Note_on_c, 0, 64, 0
3, 574080, Note_on_c, 0, 52, 0
3, 574080, Note_on_c, 0, 53, 88
3, 574080, Note_on_c, 0, 65, 88
3, 574239, Note_on_c, 0, 65, 0
3, 574239, Note_on_c, 0, 53, 0
3, 574239, Note_on_c, 0, 55, 88
3, 574239, Note_on_c, 0, 67, 88
3, 574400, Note_on_c, 0, 67, 0
3, 574400, Note_on_c, 0, 55, 0
3, 574400, Note_on_c, 0, 56, 88
3, 574400, Note_on_c, 0, 68, 88
3, 574560, Note_on_c, 0, 68, 0
3, 574560, Note_on_c, 0, 56, 0
3, 574560, Note_on_c, 0, 58, 88
3, 574560, Note_on_c, 0, 70, 88
3, 574719, Note_on_c, 0, 70, 0
3, 574719, Note_on_c, 0, 58, 0
3, 574719, Note_on_c, 0, 57, 88
3, 574719, Note_on_c, 0, 69, 88
3, 574880, Note_on_c, 0, 69, 0
3, 574880, Note_on_c, 0, 57, 0
3, 574880, Note_on_c, 0, 58, 88
3, 574880, Note_on_c, 0, 70, 88
3, 575040, Note_on_c, 0, 70, 0
3, 575040, Note_on_c, 0, 58, 0
3, 577119, Note_on_c, 0, 34, 88
3, 577119, Note_on_c, 0, 46, 88
3, 577280, Note_on_c, 0, 46, 0
3, 577280, Note_on_c, 0, 34, 0
3, 577280, Note_on_c, 0, 36, 88
3, 577280, Note_on_c, 0, 48, 88
3, 577440, Note_on_c, 0, 48, 0
3, 577440, Note_on_c, 0, 36, 0
3, 577440, Note_on_c, 0, 38, 88
3, 577440, Note_on_c, 0, 50, 88
3, 577599, Note_on_c, 0, 50, 0
3, 577599, Note_on_c, 0, 38, 0
3, 577599, Note_on_c, 0, 39, 88
3, 577599, Note_on_c, 0, 51, 88
3, 577760, Note_on_c, 0, 51, 0
3, 577760, Note_on_c, 0, 39, 0
3, 577760, Note_on_c, 0, 41, 88
3, 577760, Note_on_c, 0, 53, 88
3, 577920, Note_on_c, 0, 53, 0
3, 577920, Note_on_c, 0, 41, 0
3, 577920, Note_on_c, 0, 43, 88
3, 577920, Note_on_c, 0, 55, 88
3, 578079, Note_on_c, 0, 55, 0
3, 578079, Note_on_c, 0, 43, 0
3, 578079, Note_on_c, 0, 44, 88
3, 578079, Note_on_c, 0, 56, 88
3, 578240, Note_on_c, 0, 56, 0
3, 578240, Note_on_c, 0, 44, 0
3, 578240, Note_on_c, 0, 46, 88
3, 578240, Note_on_c, 0, 58, 88
3, 578400, Note_on_c, 0, 58, 0
3, 578400, Note_on_c, 0, 46, 0
3, 578400, Note_on_c, 0, 48, 88
3, 578400, Note_on_c, 0, 60, 88
3, 578559, Note_on_c, 0, 60, 0
3, 578559, Note_on_c, 0, 48, 0
3, 578559, Note_on_c, 0, 50, 88
3, 578559, Note_on_c, 0, 62, 88
3, 578720, Note_on_c, 0, 62, 0
3, 578720, Note_on_c, 0, 50, 0
3, 578720, Note_on_c, 0, 51, 88
3, 578720, Note_on_c, 0, 63, 88
3, 578880, Note_on_c, 0, 63, 0
3, 578880, Note_on_c, 0, 51, 0
3, 578880, Note_on_c, 0, 53, 88
3, 578880, Note_on_c, 0, 65, 88
3, 579039, Note_on_c, 0, 65, 0
3, 579039, Note_on_c, 0, 53, 0
3, 579039, Note_on_c, 0, 52, 88
3, 579039, Note_on_c, 0, 64, 88
3, 579200, Note_on_c, 0, 64, 0
3, 579200, Note_on_c, 0, 52, 0
3, 579200, Note_on_c, 0, 53, 88
3, 579200, Note_on_c, 0, 65, 88
3, 579360, Note_on_c, 0, 65, 0
3, 579360, Note_on_c, 0, 53, 0
3, 579360, Note_on_c, 0, 53, 88
3, 579360, Note_on_c, 0, 65, 88
3, 579519, Note_on_c, 0, 65, 0
3, 579519, Note_on_c, 0, 53, 0
3, 579519, Note_on_c, 0, 52, 88
3, 579519, Note_on_c, 0, 64, 88
3, 579680, Note_on_c, 0, 64, 0
3, 579680, Note_on_c, 0, 52, 0
3, 579680, Note_on_c, 0, 53, 88
3, 579680, Note_on_c, 0, 65, 88
3, 579840, Note_on_c, 0, 65, 0
3, 579840, Note_on_c, 0, 53, 0
3, 579840, Note_on_c, 0, 53, 88
3, 579840, Note_on_c, 0, 65, 88
3, 579999, Note_on_c, 0, 65, 0
3, 579999, Note_on_c, 0, 53, 0
3, 579999, Note_on_c, 0, 52, 88
3, 579999, Note_on_c, 0, 64, 88
3, 580160, Note_on_c, 0, 64, 0
3, 580160, Note_on_c, 0, 52, 0
3, 580160, Note_on_c, 0, 53, 88
3, 580160, Note_on_c, 0, 65, 88
3, 580320, Note_on_c, 0, 65, 0
3, 580320, Note_on_c, 0, 53, 0
3, 580320, Note_on_c, 0, 53, 88
3, 580320, Note_on_c, 0, 65, 88
3, 580479, Note_on_c, 0, 65, 0
3, 580479, Note_on_c, 0, 53, 0
3, 580479, Note_on_c, 0, 55, 88
3, 580479, Note_on_c, 0, 67, 88
3, 580640, Note_on_c, 0, 67, 0
3, 580640, Note_on_c, 0, 55, 0
3, 580640, Note_on_c, 0, 57, 88
3, 580640, Note_on_c, 0, 69, 88
3, 580800, Note_on_c, 0, 69, 0
3, 580800, Note_on_c, 0, 57, 0
3, 580800, Note_on_c, 0, 58, 88
3, 580800, Note_on_c, 0, 70, 88
3, 580959, Note_on_c, 0, 70, 0
3, 580959, Note_on_c, 0, 58, 0
3, 580959, Note_on_c, 0, 56, 88
3, 580959, Note_on_c, 0, 68, 88
3, 581120, Note_on_c, 0, 68, 0
3, 581120, Note_on_c, 0, 56, 0
3, 581120, Note_on_c, 0, 55, 88
3, 581120, Note_on_c, 0, 67, 88
3, 581280, Note_on_c, 0, 67, 0
3, 581280, Note_on_c, 0, 55, 0
3, 581280, Note_on_c, 0, 53, 88
3, 581280, Note_on_c, 0, 65, 88
3, 581439, Note_on_c, 0, 65, 0
3, 581439, Note_on_c, 0, 53, 0
3, 581439, Note_on_c, 0, 51, 88
3, 581439, Note_on_c, 0, 63, 88
3, 581600, Note_on_c, 0, 63, 0
3, 581600, Note_on_c, 0, 51, 0
3, 581600, Note_on_c, 0, 50, 88
3, 581600, Note_on_c, 0, 62, 88
3, 581760, Note_on_c, 0, 62, 0
3, 581760, Note_on_c, 0, 50, 0
3, 581760, Note_on_c, 0, 48, 88
3, 581760, Note_on_c, 0, 60, 88
3, 581919, Note_on_c, 0, 60, 0
3, 581919, Note_on_c, 0, 48, 0
3, 581919, Note_on_c, 0, 46, 88
3, 581919, Note_on_c, 0, 58, 88
3, 582080, Note_on_c, 0, 58, 0
3, 582080, Note_on_c, 0, 46, 0
3, 582080, Note_on_c, 0, 45, 88
3, 582080, Note_on_c, 0, 57, 88
3, 582240, Note_on_c, 0, 57, 0
3, 582240, Note_on_c, 0, 45, 0
3, 582240, Note_on_c, 0, 44, 88
3, 582240, Note_on_c, 0, 56, 88
3, 582399, Note_on_c, 0, 56, 0
3, 582399, Note_on_c, 0, 44, 0
3, 582399, Note_on_c, 0, 43, 88
3, 582399, Note_on_c, 0, 55, 88
3, 582560, Note_on_c, 0, 55, 0
3, 582560, Note_on_c, 0, 43, 0
3, 582560, Note_on_c, 0, 41, 88
3, 582560, Note_on_c, 0, 53, 88
3, 582720, Note_on_c, 0, 53, 0
3, 582720, Note_on_c, 0, 41, 0
3, 582720, Note_on_c, 0, 39, 88
3, 582720, Note_on_c, 0, 51, 88
3, 582960, Note_on_c, 0, 51, 0
3, 582960, Note_on_c, 0, 39, 0
3, 584799, Note_on_c, 0, 34, 88
3, 584799, Note_on_c, 0, 46, 88
3, 584960, Note_on_c, 0, 46, 0
3, 584960, Note_on_c, 0, 34, 0
3, 584960, Note_on_c, 0, 36, 88
3, 584960, Note_on_c, 0, 48, 88
3, 585120, Note_on_c, 0, 48, 0
3, 585120, Note_on_c, 0, 36, 0
3, 585120, Note_on_c, 0, 38, 88
3, 585120, Note_on_c, 0, 50, 88
3, 585279, Note_on_c, 0, 50, 0
3, 585279, Note_on_c, 0, 38, 0
3, 585279, Note_on_c, 0, 39, 88
3, 585279, Note_on_c, 0, 51, 88
3, 585440, Note_on_c, 0, 51, 0
3, 585440, Note_on_c, 0, 39, 0
3, 585440, Note_on_c, 0, 41, 88
3, 585440, Note_on_c, 0, 53, 88
3, 585600, Note_on_c, 0, 53, 0
3, 585600, Note_on_c, 0, 41, 0
3, 585600, Note_on_c, 0, 43, 88
3, 585600, Note_on_c, 0, 55, 88
3, 585759, Note_on_c, 0, 55, 0
3, 585759, Note_on_c, 0, 43, 0
3, 585759, Note_on_c, 0, 39, 88
3, 585759, Note_on_c, 0, 51, 88
3, 585920, Note_on_c, 0, 51, 0
3, 585920, Note_on_c, 0, 39, 0
3, 585920, Note_on_c, 0, 41, 88
3, 585920, Note_on_c, 0, 53, 88
3, 586080, Note_on_c, 0, 53, 0
3, 586080, Note_on_c, 0, 41, 0
3, 586080, Note_on_c, 0, 43, 88
3, 586080, Note_on_c, 0, 55, 88
3, 586239, Note_on_c, 0, 55, 0
3, 586239, Note_on_c, 0, 43, 0
3, 586239, Note_on_c, 0, 44, 88
3, 586239, Note_on_c, 0, 56, 88
3, 586400, Note_on_c, 0, 56, 0
3, 586400, Note_on_c, 0, 44, 0
3, 586400, Note_on_c, 0, 46, 88
3, 586400, Note_on_c, 0, 58, 88
3, 586560, Note_on_c, 0, 58, 0
3, 586560, Note_on_c, 0, 46, 0
3, 586560, Note_on_c, 0, 46, 88
3, 586560, Note_on_c, 0, 58, 88
3, 586719, Note_on_c, 0, 58, 0
3, 586719, Note_on_c, 0, 46, 0
3, 586719, Note_on_c, 0, 45, 88
3, 586719, Note_on_c, 0, 57, 88
3, 586880, Note_on_c, 0, 57, 0
3, 586880, Note_on_c, 0, 45, 0
3, 586880, Note_on_c, 0, 46, 88
3, 586880, Note_on_c, 0, 58, 88
3, 587040, Note_on_c, 0, 58, 0
3, 587040, Note_on_c, 0, 46, 0
3, 587040, Note_on_c, 0, 46, 88
3, 587040, Note_on_c, 0, 58, 88
3, 587199, Note_on_c, 0, 58, 0
3, 587199, Note_on_c, 0, 46, 0
3, 587199, Note_on_c, 0, 45, 88
3, 587199, Note_on_c, 0, 57, 88
3, 587360, Note_on_c, 0, 57, 0
3, 587360, Note_on_c, 0, 45, 0
3, 587360, Note_on_c, 0, 46, 88
3, 587360, Note_on_c, 0, 58, 88
3, 587520, Note_on_c, 0, 58, 0
3, 587520, Note_on_c, 0, 46, 0
3, 587520, Note_on_c, 0, 46, 88
3, 587520, Note_on_c, 0, 58, 88
3, 587679, Note_on_c, 0, 58, 0
3, 587679, Note_on_c, 0, 46, 0
3, 587679, Note_on_c, 0, 45, 88
3, 587679, Note_on_c, 0, 57, 88
3, 587840, Note_on_c, 0, 57, 0
3, 587840, Note_on_c, 0, 45, 0
3, 587840, Note_on_c, 0, 46, 88
3, 587840, Note_on_c, 0, 58, 88
3, 588000, Note_on_c, 0, 58, 0
3, 588000, Note_on_c, 0, 46, 0
3, 588000, Note_on_c, 0, 46, 88
3, 588000, Note_on_c, 0, 58, 88
3, 588159, Note_on_c, 0, 58, 0
3, 588159, Note_on_c, 0, 46, 0
3, 588159, Note_on_c, 0, 45, 88
3, 588159, Note_on_c, 0, 57, 88
3, 588320, Note_on_c, 0, 57, 0
3, 588320, Note_on_c, 0, 45, 0
3, 588320, Note_on_c, 0, 46, 88
3, 588320, Note_on_c, 0, 58, 88
3, 588480, Note_on_c, 0, 58, 0
3, 588480, Note_on_c, 0, 46, 0
3, 588480, Note_on_c, 0, 46, 88
3, 588480, Note_on_c, 0, 58, 88
3, 588639, Note_on_c, 0, 58, 0
3, 588639, Note_on_c, 0, 46, 0
3, 588639, Note_on_c, 0, 48, 88
3, 588639, Note_on_c, 0, 60, 88
3, 588800, Note_on_c, 0, 60, 0
3, 588800, Note_on_c, 0, 48, 0
3, 588800, Note_on_c, 0, 49, 88
3, 588800, Note_on_c, 0, 61, 88
3, 588960, Note_on_c, 0, 61, 0
3, 588960, Note_on_c, 0, 49, 0
3, 588960, Note_on_c, 0, 50, 88
3, 588960, Note_on_c, 0, 62, 88
3, 589119, Note_on_c, 0, 62, 0
3, 589119, Note_on_c, 0, 50, 0
3, 589119, Note_on_c, 0, 51, 88
3, 589119, Note_on_c, 0, 63, 88
3, 589280, Note_on_c, 0, 63, 0
3, 589280, Note_on_c, 0, 51, 0
3, 589280, Note_on_c, 0, 52, 88
3, 589280, Note_on_c, 0, 64, 88
3, 589440, Note_on_c, 0, 64, 0
3, 589440, Note_on_c, 0, 52, 0
3, 589440, Note_on_c, 0, 53, 88
3, 589440, Note_on_c, 0, 65, 88
3, 589599, Note_on_c, 0, 65, 0
3, 589599, Note_on_c, 0, 53, 0
3, 589599, Note_on_c, 0, 55, 88
3, 589599, Note_on_c, 0, 67, 88
3, 589760, Note_on_c, 0, 67, 0
3, 589760, Note_on_c, 0, 55, 0
3, 589760, Note_on_c, 0, 56, 88
3, 589760, Note_on_c, 0, 68, 88
3, 589920, Note_on_c, 0, 68, 0
3, 589920, Note_on_c, 0, 56, 0
3, 589920, Note_on_c, 0, 58, 88
3, 589920, Note_on_c, 0, 70, 88
3, 590079, Note_on_c, 0, 70, 0
3, 590079, Note_on_c, 0, 58, 0
3, 590079, Note_on_c, 0, 57, 88
3, 590079, Note_on_c, 0, 69, 88
3, 590240, Note_on_c, 0, 69, 0
3, 590240, Note_on_c, 0, 57, 0
3, 590240, Note_on_c, 0, 58, 88
3, 590240, Note_on_c, 0, 70, 88
3, 590400, Note_on_c, 0, 70, 0
3, 590400, Note_on_c, 0, 58, 0
3, 592320, Note_on_c, 0, 36, 88
3, 592320, Note_on_c, 0, 48, 88
3, 592479, Note_on_c, 0, 48, 0
3, 592479, Note_on_c, 0, 36, 0
3, 592479, Note_on_c, 0, 38, 88
3, 592479, Note_on_c, 0, 50, 88
3, 592640, Note_on_c, 0, 50, 0
3, 592640, Note_on_c, 0, 38, 0
3, 592640, Note_on_c, 0, 40, 88
3, 592640, Note_on_c, 0, 52, 88
3, 592800, Note_on_c, 0, 52, 0
3, 592800, Note_on_c, 0, 40, 0
3, 592800, Note_on_c, 0, 41, 88
3, 592800, Note_on_c, 0, 53, 88
3, 592959, Note_on_c, 0, 53, 0
3, 592959, Note_on_c, 0, 41, 0
3, 592959, Note_on_c, 0, 44, 88
3, 592959, Note_on_c, 0, 56, 88
3, 593120, Note_on_c, 0, 56, 0
3, 593120, Note_on_c, 0, 44, 0
3, 593120, Note_on_c, 0, 46, 88
3, 593120, Note_on_c, 0, 58, 88
3, 593280, Note_on_c, 0, 58, 0
3, 593280, Note_on_c, 0, 46, 0
3, 593280, Note_on_c, 0, 48, 88
3, 593280, Note_on_c, 0, 60, 88
3, 593439, Note_on_c, 0, 60, 0
3, 593439, Note_on_c, 0, 48, 0
3, 593439, Note_on_c, 0, 50, 88
3, 593439, Note_on_c, 0, 62, 88
3, 593600, Note_on_c, 0, 62, 0
3, 593600, Note_on_c, 0, 50, 0
3, 593600, Note_on_c, 0, 52, 88
3, 593600, Note_on_c, 0, 64, 88
3, 593760, Note_on_c, 0, 64, 0
3, 593760, Note_on_c, 0, 52, 0
3, 593760, Note_on_c, 0, 53, 88
3, 593760, Note_on_c, 0, 65, 88
3, 593919, Note_on_c, 0, 65, 0
3, 593919, Note_on_c, 0, 53, 0
3, 593919, Note_on_c, 0, 55, 88
3, 593919, Note_on_c, 0, 67, 88
3, 594080, Note_on_c, 0, 67, 0
3, 594080, Note_on_c, 0, 55, 0
3, 594080, Note_on_c, 0, 56, 88
3, 594080, Note_on_c, 0, 68, 88
3, 594240, Note_on_c, 0, 68, 0
3, 594240, Note_on_c, 0, 56, 0
3, 594240, Note_on_c, 0, 58, 88
3, 594240, Note_on_c, 0, 70, 88
3, 594399, Note_on_c, 0, 70, 0
3, 594399, Note_on_c, 0, 58, 0
3, 594399, Note_on_c, 0, 57, 88
3, 594399, Note_on_c, 0, 69, 88
3, 594560, Note_on_c, 0, 69, 0
3, 594560, Note_on_c, 0, 57, 0
3, 594560, Note_on_c, 0, 58, 88
3, 594560, Note_on_c, 0, 70, 88
3, 594720, Note_on_c, 0, 70, 0
3, 594720, Note_on_c, 0, 58, 0
3, 594720, Note_on_c, 0, 58, 88
3, 594720, Note_on_c, 0, 70, 88
3, 594879, Note_on_c, 0, 70, 0
3, 594879, Note_on_c, 0, 58, 0
3, 594879, Note_on_c, 0, 55, 88
3, 594879, Note_on_c, 0, 67, 88
3, 595040, Note_on_c, 0, 67, 0
3, 595040, Note_on_c, 0, 55, 0
3, 595040, Note_on_c, 0, 53, 88
3, 595040, Note_on_c, 0, 65, 88
3, 595200, Note_on_c, 0, 65, 0
3, 595200, Note_on_c, 0, 53, 0
3, 595200, Note_on_c, 0, 51, 88
3, 595200, Note_on_c, 0, 63, 88
3, 595359, Note_on_c, 0, 63, 0
3, 595359, Note_on_c, 0, 51, 0
3, 595359, Note_on_c, 0, 50, 88
3, 595359, Note_on_c, 0, 62, 88
3, 595520, Note_on_c, 0, 62, 0
3, 595520, Note_on_c, 0, 50, 0
3, 595520, Note_on_c, 0, 48, 88
3, 595520, Note_on_c, 0, 60, 88
3, 595680, Note_on_c, 0, 60, 0
3, 595680, Note_on_c, 0, 48, 0
3, 595680, Note_on_c, 0, 46, 88
3, 595680, Note_on_c, 0, 58, 88
3, 595839, Note_on_c, 0, 58, 0
3, 595839, Note_on_c, 0, 46, 0
3, 595839, Note_on_c, 0, 48, 88
3, 595839, Note_on_c, 0, 60, 88
3, 596000, Note_on_c, 0, 60, 0
3, 596000, Note_on_c, 0, 48, 0
3, 596000, Note_on_c, 0, 50, 88
3, 596000, Note_on_c, 0, 62, 88
3, 596160, Note_on_c, 0, 62, 0
3, 596160, Note_on_c, 0, 50, 0
3, 596160, Note_on_c, 0, 51, 88
3, 596160, Note_on_c, 0, 63, 88
3, 596319, Note_on_c, 0, 63, 0
3, 596319, Note_on_c, 0, 51, 0
3, 596319, Note_on_c, 0, 58, 88
3, 596480, Note_on_c, 0, 58, 0
3, 596480, Note_on_c, 0, 55, 88
3, 596640, Note_on_c, 0, 55, 0
3, 596640, Note_on_c, 0, 51, 88
3, 596799, Note_on_c, 0, 51, 0
3, 596799, Note_on_c, 0, 46, 88
3, 596799, Note_on_c, 0, 58, 88
3, 596960, Note_on_c, 0, 58, 0
3, 596960, Note_on_c, 0, 46, 0
3, 596960, Note_on_c, 0, 43, 88
3, 596960, Note_on_c, 0, 55, 88
3, 597120, Note_on_c, 0, 55, 0
3, 597120, Note_on_c, 0, 43, 0
3, 597120, Note_on_c, 0, 39, 88
3, 597120, Note_on_c, 0, 51, 88
3, 597600, Note_on_c, 0, 51, 0
3, 597600, Note_on_c, 0, 39, 0
3, 663360, Control_c, 0, 64, 127
3, 663360, Note_on_c, 0, 38, 75
3, 663519, Note_on_c, 0, 38, 0
3, 663519, Note_on_c, 0, 45, 75
3, 663680, Note_on_c, 0, 45, 0
3, 663680, Note_on_c, 0, 50, 75
3, 663840, Note_on_c, 0, 50, 0
3, 663840, Note_on_c, 0, 57, 75
3, 663999, Note_on_c, 0, 57, 0
3, 663999, Note_on_c, 0, 50, 75
3, 664160, Note_on_c, 0, 50, 0
3, 664160, Control_c, 0, 64, 0
3, 664160, Note_on_c, 0, 45, 75
3, 664320, Note_on_c, 0, 45, 0
3, 664320, Control_c, 0, 64, 127
3, 664320, Note_on_c, 0, 38, 75
3, 664479, Note_on_c, 0, 38, 0
3, 664479, Note_on_c, 0, 45, 75
3, 664640, Note_on_c, 0, 45, 0
3, 664640, Note_on_c, 0, 50, 75
3, 664800, Note_on_c, 0, 50, 0
3, 664800, Note_on_c, 0, 57, 75
3, 664959, Note_on_c, 0, 57, 0
3, 664959, Note_on_c, 0, 50, 75
3, 665120, Note_on_c, 0, 50, 0
3, 665120, Control_c, 0, 64, 0
3, 665120, Note_on_c, 0, 45, 75
3, 665280, Note_on_c, 0, 45, 0
3, 665280, Control_c, 0, 64, 127
3, 665280, Note_on_c, 0, 38, 62
3, 665439, Note_on_c, 0, 38, 0
3, 665439, Note_on_c, 0, 45, 62
3, 665600, Note_on_c, 0, 45, 0
3, 665600, Note_on_c, 0, 50, 62
3, 665760, Note_on_c, 0, 50, 0
3, 665760, Note_on_c, 0, 57, 62
3, 665919, Note_on_c, 0, 57, 0
3, 665919, Note_on_c, 0, 50, 62
3, 666080, Note_on_c, 0, 50, 0
3, 666080, Control_c, 0, 64, 0
3, 666080, Note_on_c, 0, 45, 62
3, 666240, Note_on_c, 0, 45, 0
3, 666240, Control_c, 0, 64, 127
3, 666240, Note_on_c, 0, 38, 62
3, 666399, Note_on_c, 0, 38, 0
3, 666399, Note_on_c, 0, 45, 62
3, 666560, Note_on_c, 0, 45, 0
3, 666560, Note_on_c, 0, 50, 62
3, 666720, Note_on_c, 0, 50, 0
3, 666720, Note_on_c, 0, 57, 62
3, 666879, Note_on_c, 0, 57, 0
3, 666879, Note_on_c, 0, 50, 62
3, 667040, Note_on_c, 0, 50, 0
3, 667040, Control_c, 0, 64, 0
3, 667040, Note_on_c, 0, 45, 62
3, 667200, Note_on_c, 0, 45, 0
3, 667200, Control_c, 0, 64, 127
3, 667200, Note_on_c, 0, 38, 62
3, 667359, Note_on_c, 0, 38, 0
3, 667359, Note_on_c, 0, 45, 62
3, 667520, Note_on_c, 0, 45, 0
3, 667520, Note_on_c, 0, 50, 62
3, 667680, Note_on_c, 0, 50, 0
3, 667680, Note_on_c, 0, 57, 62
3, 667839, Note_on_c, 0, 57, 0
3, 667839, Note_on_c, 0, 50, 62
3, 668000, Note_on_c, 0, 50, 0
3, 668000, Control_c, 0, 64, 0
3, 668000, Note_on_c, 0, 45, 62
3, 668160, Note_on_c, 0, 45, 0
3, 668160, Control_c, 0, 64, 127
3, 668160, Note_on_c, 0, 38, 62
3, 668319, Note_on_c, 0, 38, 0
3, 668319, Note_on_c, 0, 45, 62
3, 668480, Note_on_c, 0, 45, 0
3, 668480, Note_on_c, 0, 50, 62
3, 668640, Note_on_c, 0, 50, 0
3, 668640, Note_on_c, 0, 57, 62
3, 668799, Note_on_c, 0, 57, 0
3, 668799, Note_on_c, 0, 50, 62
3, 668960, Note_on_c, 0, 50, 0
3, 668960, Control_c, 0, 64, 0
3, 668960, Note_on_c, 0, 45, 62
3, 669120, Note_on_c, 0, 45, 0
3, 669120, Control_c, 0, 64, 127
3, 669120, Note_on_c, 0, 38, 62
3, 669279, Note_on_c, 0, 38, 0
3, 669279, Note_on_c, 0, 45, 62
3, 669440, Note_on_c, 0, 45, 0
3, 669440, Note_on_c, 0, 50, 62
3, 669600, Note_on_c, 0, 50, 0
3, 669600, Note_on_c, 0, 57, 62
3, 669759, Note_on_c, 0, 57, 0
3, 669759, Note_on_c, 0, 61, 62
3, 669920, Note_on_c, 0, 61, 0
3, 669920, Note_on_c, 0, 64, 62
3, 670080, Note_on_c, 0, 64, 0
3, 670080, Note_on_c, 0, 67, 62
3, 670239, Note_on_c, 0, 67, 0
3, 670239, Note_on_c, 0, 64, 62
3, 670400, Note_on_c, 0, 64, 0
3, 670400, Note_on_c, 0, 61, 62
3, 670560, Note_on_c, 0, 61, 0
3, 670560, Note_on_c, 0, 55, 62
3, 670719, Note_on_c, 0, 55, 0
3, 670719, Note_on_c, 0, 52, 62
3, 670880, Note_on_c, 0, 52, 0
3, 670880, Control_c, 0, 64, 0
3, 670880, Note_on_c, 0, 45, 62
3, 671040, Note_on_c, 0, 45, 0
3, 671040, Control_c, 0, 64, 127
3, 671040, Note_on_c, 0, 38, 75
3, 671199, Note_on_c, 0, 38, 0
3, 671199, Note_on_c, 0, 45, 75
3, 671360, Note_on_c, 0, 45, 0
3, 671360, Note_on_c, 0, 50, 75
3, 671520, Note_on_c, 0, 50, 0
3, 671520, Note_on_c, 0, 57, 75
3, 671679, Note_on_c, 0, 57, 0
3, 671679, Note_on_c, 0, 62, 75
3, 671840, Note_on_c, 0, 62, 0
3, 671840, Note_on_c, 0, 66, 75
3, 672000, Note_on_c, 0, 66, 0
3, 672000, Note_on_c, 0, 69, 75
3, 672159, Note_on_c, 0, 69, 0
3, 672159, Note_on_c, 0, 66, 75
3, 672320, Note_on_c, 0, 66, 0
3, 672320, Note_on_c, 0, 62, 75
3, 672480, Note_on_c, 0, 62, 0
3, 672480, Note_on_c, 0, 57, 75
3, 672639, Note_on_c, 0, 57, 0
3, 672639, Note_on_c, 0, 50, 75
3, 672800, Note_on_c, 0, 50, 0
3, 672800, Control_c, 0, 64, 0
3, 672800, Note_on_c, 0, 45, 75
3, 672960, Note_on_c, 0, 45, 0
3, 672960, Control_c, 0, 64, 127
3, 672960, Note_on_c, 0, 38, 62
3, 673119, Note_on_c, 0, 38, 0
3, 673119, Note_on_c, 0, 45, 62
3, 673280, Note_on_c, 0, 45, 0
3, 673280, Note_on_c, 0, 50, 62
3, 673440, Note_on_c, 0, 50, 0
3, 673440, Note_on_c, 0, 57, 62
3, 673599, Note_on_c, 0, 57, 0
3, 673599, Note_on_c, 0, 50, 62
3, 673760, Note_on_c, 0, 50, 0
3, 673760, Control_c, 0, 64, 0
3, 673760, Note_on_c, 0, 45, 62
3, 673920, Note_on_c, 0, 45, 0
3, 673920, Control_c, 0, 64, 127
3, 673920, Note_on_c, 0, 38, 62
3, 674079, Note_on_c, 0, 38, 0
3, 674079, Note_on_c, 0, 45, 62
3, 674240, Note_on_c, 0, 45, 0
3, 674240, Note_on_c, 0, 50, 62
3, 674400, Note_on_c, 0, 50, 0
3, 674400, Note_on_c, 0, 57, 62
3, 674559, Note_on_c, 0, 57, 0
3, 674559, Note_on_c, 0, 50, 62
3, 674720, Note_on_c, 0, 50, 0
3, 674720, Control_c, 0, 64, 0
3, 674720, Note_on_c, 0, 45, 62
3, 674880, Note_on_c, 0, 45, 0
3, 674880, Control_c, 0, 64, 127
3, 674880, Note_on_c, 0, 37, 62
3, 675039, Note_on_c, 0, 37, 0
3, 675039, Note_on_c, 0, 42, 62
3, 675200, Note_on_c, 0, 42, 0
3, 675200, Note_on_c, 0, 49, 62
3, 675360, Note_on_c, 0, 49, 0
3, 675360, Note_on_c, 0, 54, 62
3, 675519, Note_on_c, 0, 54, 0
3, 675519, Note_on_c, 0, 49, 62
3, 675680, Note_on_c, 0, 49, 0
3, 675680, Control_c, 0, 64, 0
3, 675680, Note_on_c, 0, 42, 62
3, 675840, Note_on_c, 0, 42, 0
3, 675840, Control_c, 0, 64, 127
3, 675840, Note_on_c, 0, 37, 62
3, 675999, Note_on_c, 0, 37, 0
3, 675999, Note_on_c, 0, 42, 62
3, 676160, Note_on_c, 0, 42, 0
3, 676160, Note_on_c, 0, 49, 62
3, 676320, Note_on_c, 0, 49, 0
3, 676320, Note_on_c, 0, 54, 62
3, 676479, Note_on_c, 0, 54, 0
3, 676479, Note_on_c, 0, 49, 62
3, 676640, Note_on_c, 0, 49, 0
3, 676640, Control_c, 0, 64, 0
3, 676640, Note_on_c, 0, 42, 62
3, 676800, Note_on_c, 0, 42, 0
3, 676800, Control_c, 0, 64, 127
3, 676800, Note_on_c, 0, 30, 62
3, 676959, Note_on_c, 0, 30, 0
3, 676959, Note_on_c, 0, 37, 62
3, 677120, Note_on_c, 0, 37, 0
3, 677120, Note_on_c, 0, 42, 62
3, 677280, Note_on_c, 0, 42, 0
3, 677280, Note_on_c, 0, 49, 62
3, 677439, Note_on_c, 0, 49, 0
3, 677439, Note_on_c, 0, 42, 62
3, 677600, Note_on_c, 0, 42, 0
3, 677600, Note_on_c, 0, 49, 62
3, 677760, Note_on_c, 0, 49, 0
3, 677760, Note_on_c, 0, 54, 62
3, 677919, Note_on_c, 0, 54, 0
3, 677919, Note_on_c, 0, 49, 62
3, 678080, Note_on_c, 0, 49, 0
3, 678080, Note_on_c, 0, 54, 75
3, 678240, Note_on_c, 0, 54, 0
3, 678240, Note_on_c, 0, 58, 75
3, 678399, Note_on_c, 0, 58, 0
3, 678399, Note_on_c, 0, 54, 75
3, 678560, Note_on_c, 0, 54, 0
3, 678560, Control_c, 0, 64, 0
3, 678560, Note_on_c, 0, 58, 75
3, 678720, Note_on_c, 0, 58, 0
3, 678720, Control_c, 0, 64, 127
3, 678720, Note_on_c, 0, 35, 75
3, 678879, Note_on_c, 0, 35, 0
3, 678879, Note_on_c, 0, 42, 75
3, 679040, Note_on_c, 0, 42, 0
3, 679040, Note_on_c, 0, 47, 75
3, 679200, Note_on_c, 0, 47, 0
3, 679200, Note_on_c, 0, 54, 75
3, 679359, Note_on_c, 0, 54, 0
3, 679359, Note_on_c, 0, 47, 75
3, 679520, Note_on_c, 0, 47, 0
3, 679520, Note_on_c, 0, 54, 75
3, 679680, Note_on_c, 0, 54, 0
3, 679680, Note_on_c, 0, 59, 75
3, 679839, Note_on_c, 0, 59, 0
3, 679839, Note_on_c, 0, 54, 75
3, 680000, Note_on_c, 0, 54, 0
3, 680000, Note_on_c, 0, 59, 75
3, 680160, Note_on_c, 0, 59, 0
3, 680160, Note_on_c, 0, 66, 75
3, 680319, Note_on_c, 0, 66, 0
3, 680319, Note_on_c, 0, 59, 75
3, 680480, Note_on_c, 0, 59, 0
3, 680480, Control_c, 0, 64, 0
3, 680480, Note_on_c, 0, 66, 75
3, 680640, Note_on_c, 0, 66, 0
3, 680640, Control_c, 0, 64, 127
3, 680640, Note_on_c, 0, 40, 62
3, 680799, Note_on_c, 0, 40, 0
3, 680799, Note_on_c, 0, 47, 62
3, 680960, Note_on_c, 0, 47, 0
3, 680960, Note_on_c, 0, 52, 62
3, 681120, Note_on_c, 0, 52, 0
3, 681120, Note_on_c, 0, 59, 62
3, 681279, Note_on_c, 0, 59, 0
3, 681279, Note_on_c, 0, 52, 62
3, 681440, Note_on_c, 0, 52, 0
3, 681440, Control_c, 0, 64, 0
3, 681440, Note_on_c, 0, 47, 62
3, 681600, Note_on_c, 0, 47, 0
3, 681600, Note_on_c, 0, 40, 62
3, 681759, Note_on_c, 0, 40, 0
3, 681759, Note_on_c, 0, 47, 62
3, 681920, Note_on_c, 0, 47, 0
3, 681920, Note_on_c, 0, 52, 62
3, 682080, Note_on_c, 0, 52, 0
3, 682080, Note_on_c, 0, 42, 62
3, 682239, Note_on_c, 0, 42, 0
3, 682239, Note_on_c, 0, 52, 62
3, 682400, Note_on_c, 0, 52, 0
3, 682400, Note_on_c, 0, 64, 62
3, 682560, Note_on_c, 0, 64, 0
3, 682560, Note_on_c, 0, 43, 75
3, 682719, Note_on_c, 0, 43, 0
3, 682719, Note_on_c, 0, 52, 75
3, 682880, Note_on_c, 0, 52, 0
3, 682880, Note_on_c, 0, 64, 75
3, 683040, Note_on_c, 0, 64, 0
3, 683040, Note_on_c, 0, 44, 75
3, 683199, Note_on_c, 0, 44, 0
3, 683199, Note_on_c, 0, 52, 75
3, 683360, Note_on_c, 0, 52, 0
3, 683360, Note_on_c, 0, 64, 75
3, 683520, Note_on_c, 0, 64, 0
3, 683520, Control_c, 0, 64, 127
3, 683520, Note_on_c, 0, 59, 75
3, 683520, Note_on_c, 0, 62, 75
3, 683679, Note_on_c, 0, 62, 0
3, 683679, Note_on_c, 0, 59, 0
3, 683679, Note_on_c, 0, 52, 75
3, 683840, Note_on_c, 0, 52, 0
3, 683840, Control_c, 0, 64, 0
3, 683840, Note_on_c, 0, 64, 75
3, 684000, Note_on_c, 0, 64, 0
3, 684000, Control_c, 0, 64, 127
3, 684000, Note_on_c, 0, 59, 75
3, 684000, Note_on_c, 0, 62, 75
3, 684159, Note_on_c, 0, 62, 0
3, 684159, Note_on_c, 0, 59, 0
3, 684159, Note_on_c, 0, 52, 75
3, 684320, Note_on_c, 0, 52, 0
3, 684320, Control_c, 0, 64, 0
3, 684320, Note_on_c, 0, 64, 75
3, 684480, Note_on_c, 0, 64, 0
3, 684480, Control_c, 0, 64, 127
3, 684480, Note_on_c, 0, 40, 75
3, 684639, Note_on_c, 0, 40, 0
3, 684639, Note_on_c, 0, 47, 75
3, 684800, Note_on_c, 0, 47, 0
3, 684800, Note_on_c, 0, 52, 75
3, 684960, Note_on_c, 0, 52, 0
3, 684960, Note_on_c, 0, 59, 75
3, 685119, Note_on_c, 0, 59, 0
3, 685119, Note_on_c, 0, 52, 75
3, 685280, Note_on_c, 0, 52, 0
3, 685280, Control_c, 0, 64, 0
3, 685280, Note_on_c, 0, 47, 75
3, 685440, Note_on_c, 0, 47, 0
3, 685440, Note_on_c, 0, 40, 75
3, 685599, Note_on_c, 0, 40, 0
3, 685599, Note_on_c, 0, 47, 75
3, 685760, Note_on_c, 0, 47, 0
3, 685760, Note_on_c, 0, 52, 75
3, 685920, Note_on_c, 0, 52, 0
3, 685920, Note_on_c, 0, 42, 75
3, 686079, Note_on_c, 0, 42, 0
3, 686079, Note_on_c, 0, 52, 75
3, 686240, Note_on_c, 0, 52, 0
3, 686240, Note_on_c, 0, 64, 75
3, 686400, Note_on_c, 0, 64, 0
3, 686400, Note_on_c, 0, 43, 75
3, 686559, Note_on_c, 0, 43, 0
3, 686559, Note_on_c, 0, 52, 75
3, 686720, Note_on_c, 0, 52, 0
3, 686720, Note_on_c, 0, 64, 75
3, 686880, Note_on_c, 0, 64, 0
3, 686880, Note_on_c, 0, 44, 75
3, 687039, Note_on_c, 0, 44, 0
3, 687039, Note_on_c, 0, 52, 75
3, 687200, Note_on_c, 0, 52, 0
3, 687200, Note_on_c, 0, 64, 75
3, 687360, Note_on_c, 0, 64, 0
3, 687360, Control_c, 0, 64, 127
3, 687360, Note_on_c, 0, 59, 101
3, 687360, Note_on_c, 0, 62, 101
3, 687519, Note_on_c, 0, 62, 0
3, 687519, Note_on_c, 0, 59, 0
3, 687519, Note_on_c, 0, 52, 75
3, 687680, Note_on_c, 0, 52, 0
3, 687680, Control_c, 0, 64, 0
3, 687680, Note_on_c, 0, 64, 75
3, 687840, Note_on_c, 0, 64, 0
3, 687840, Control_c, 0, 64, 127
3, 687840, Note_on_c, 0, 59, 75
3, 687840, Note_on_c, 0, 62, 75
3, 687999, Note_on_c, 0, 62, 0
3, 687999, Note_on_c, 0, 59, 0
3, 687999, Note_on_c, 0, 52, 75
3, 688160, Note_on_c, 0, 52, 0
3, 688160, Control_c, 0, 64, 0
3, 688160, Note_on_c, 0, 64, 75
3, 688320, Note_on_c, 0, 64, 0
3, 688320, Control_c, 0, 64, 127
3, 688320, Note_on_c, 0, 49, 75
3, 688479, Note_on_c, 0, 49, 0
3, 688479, Note_on_c, 0, 54, 75
3, 688640, Note_on_c, 0, 54, 0
3, 688640, Note_on_c, 0, 61, 75
3, 688800, Note_on_c, 0, 61, 0
3, 688800, Note_on_c, 0, 66, 75
3, 688959, Note_on_c, 0, 66, 0
3, 688959, Note_on_c, 0, 61, 75
3, 689120, Note_on_c, 0, 61, 0
3, 689120, Control_c, 0, 64, 0
3, 689120, Note_on_c, 0, 54, 75
3, 689280, Note_on_c, 0, 54, 0
3, 689280, Control_c, 0, 64, 127
3, 689280, Note_on_c, 0, 47, 75
3, 689439, Note_on_c, 0, 47, 0
3, 689439, Note_on_c, 0, 52, 75
3, 689600, Note_on_c, 0, 52, 0
3, 689600, Note_on_c, 0, 59, 75
3, 689760, Note_on_c, 0, 59, 0
3, 689760, Note_on_c, 0, 64, 75
3, 689919, Note_on_c, 0, 64, 0
3, 689919, Note_on_c, 0, 59, 75
3, 690080, Note_on_c, 0, 59, 0
3, 690080, Control_c, 0, 64, 0
3, 690080, Note_on_c, 0, 52, 75
3, 690240, Note_on_c, 0, 52, 0
3, 690240, Control_c, 0, 64, 127
3, 690240, Note_on_c, 0, 46, 101
3, 690399, Note_on_c, 0, 46, 0
3, 690399, Note_on_c, 0, 52, 75
3, 690560, Note_on_c, 0, 52, 0
3, 690560, Note_on_c, 0, 58, 75
3, 690720, Note_on_c, 0, 58, 0
3, 690720, Note_on_c, 0, 64, 75
3, 690879, Note_on_c, 0, 64, 0
3, 690879, Note_on_c, 0, 58, 75
3, 691040, Note_on_c, 0, 58, 0
3, 691040, Control_c, 0, 64, 0
3, 691040, Note_on_c, 0, 64, 75
3, 691200, Note_on_c, 0, 64, 0
3, 691200, Note_on_c, 0, 70, 75
3, 691359, Note_on_c, 0, 70, 0
3, 691359, Note_on_c, 0, 64, 75
3, 691520, Note_on_c, 0, 64, 0
3, 691520, Note_on_c, 0, 58, 75
3, 691680, Note_on_c, 0, 58, 0
3, 691680, Note_on_c, 0, 66, 75
3, 691839, Note_on_c, 0, 66, 0
3, 691839, Note_on_c, 0, 61, 75
3, 692000, Note_on_c, 0, 61, 0
3, 692000, Note_on_c, 0, 54, 75
3, 692160, Note_on_c, 0, 54, 0
3, 692160, Control_c, 0, 64, 127
3, 692160, Note_on_c, 0, 51, 75
3, 692319, Note_on_c, 0, 51, 0
3, 692319, Note_on_c, 0, 57, 75
3, 692480, Note_on_c, 0, 57, 0
3, 692480, Note_on_c, 0, 63, 75
3, 692640, Note_on_c, 0, 63, 0
3, 692640, Note_on_c, 0, 69, 75
3, 692799, Note_on_c, 0, 69, 0
3, 692799, Note_on_c, 0, 63, 75
3, 692960, Note_on_c, 0, 63, 0
3, 692960, Control_c, 0, 64, 0
3, 692960, Note_on_c, 0, 57, 75
3, 693120, Note_on_c, 0, 57, 0
3, 693120, Control_c, 0, 64, 127
3, 693120, Note_on_c, 0, 49, 75
3, 693279, Note_on_c, 0, 49, 0
3, 693279, Note_on_c, 0, 54, 75
3, 693440, Note_on_c, 0, 54, 0
3, 693440, Note_on_c, 0, 61, 75
3, 693600, Note_on_c, 0, 61, 0
3, 693600, Note_on_c, 0, 66, 75
3, 693759, Note_on_c, 0, 66, 0
3, 693759, Note_on_c, 0, 61, 75
3, 693920, Note_on_c, 0, 61, 0
3, 693920, Control_c, 0, 64, 0
3, 693920, Note_on_c, 0, 54, 75
3, 694080, Note_on_c, 0, 54, 0
3, 694080, Control_c, 0, 64, 127
3, 694080, Note_on_c, 0, 48, 101
3, 694239, Note_on_c, 0, 48, 0
3, 694239, Note_on_c, 0, 54, 75
3, 694400, Note_on_c, 0, 54, 0
3, 694400, Note_on_c, 0, 60, 75
3, 694560, Note_on_c, 0, 60, 0
3, 694560, Note_on_c, 0, 66, 75
3, 694719, Note_on_c, 0, 66, 0
3, 694719, Note_on_c, 0, 60, 75
3, 694880, Note_on_c, 0, 60, 0
3, 694880, Control_c, 0, 64, 0
3, 694880, Note_on_c, 0, 54, 75
3, 695040, Note_on_c, 0, 54, 0
3, 695040, Control_c, 0, 64, 127
3, 695040, Note_on_c, 0, 44, 101
3, 695199, Note_on_c, 0, 44, 0
3, 695199, Note_on_c, 0, 51, 75
3, 695360, Note_on_c, 0, 51, 0
3, 695360, Note_on_c, 0, 56, 75
3, 695520, Note_on_c, 0, 56, 0
3, 695520, Note_on_c, 0, 60, 75
3, 695679, Note_on_c, 0, 60, 0
3, 695679, Note_on_c, 0, 63, 88
3, 695840, Note_on_c, 0, 63, 0
3, 695840, Control_c, 0, 64, 0
3, 695840, Note_on_c, 0, 68, 88
3, 696000, Note_on_c, 0, 68, 0
3, 696159, Control_c, 0, 64, 127
3, 696159, Note_on_c, 0, 37, 88
3, 696320, Note_on_c, 0, 37, 0
3, 696320, Note_on_c, 0, 40, 88
3, 696480, Note_on_c, 0, 40, 0
3, 696480, Note_on_c, 0, 44, 88
3, 696639, Note_on_c, 0, 44, 0
3, 696639, Note_on_c, 0, 49, 88
3, 696800, Note_on_c, 0, 49, 0
3, 696800, Note_on_c, 0, 52, 88
3, 696960, Note_on_c, 0, 52, 0
3, 696960, Control_c, 0, 64, 0
3, 696960, Note_on_c, 0, 56, 88
3, 697119, Note_on_c, 0, 56, 0
3, 697119, Control_c, 0, 64, 127
3, 697119, Note_on_c, 0, 49, 88
3, 697280, Note_on_c, 0, 49, 0
3, 697280, Note_on_c, 0, 52, 88
3, 697440, Note_on_c, 0, 52, 0
3, 697440, Note_on_c, 0, 56, 88
3, 697599, Note_on_c, 0, 56, 0
3, 697599, Note_on_c, 0, 61, 88
3, 697760, Note_on_c, 0, 61, 0
3, 697760, Control_c, 0, 64, 0
3, 697760, Note_on_c, 0, 64, 88
3, 697920, Note_on_c, 0, 64, 0
3, 697920, Control_c, 0, 64, 127
3, 697920, Note_on_c, 0, 67, 114
3, 698079, Note_on_c, 0, 67, 0
3, 698079, Note_on_c, 0, 61, 88
3, 698240, Note_on_c, 0, 61, 0
3, 698240, Note_on_c, 0, 54, 88
3, 698400, Note_on_c, 0, 54, 0
3, 698400, Note_on_c, 0, 49, 88
3, 698559, Note_on_c, 0, 49, 0
3, 698559, Note_on_c, 0, 54, 88
3, 698720, Note_on_c, 0, 54, 0
3, 698720, Control_c, 0, 64, 0
3, 698720, Note_on_c, 0, 61, 88
3, 698880, Note_on_c, 0, 61, 0
3, 698880, Note_on_c, 0, 66, 114
3, 699120, Note_on_c, 0, 66, 0
3, 699120, Note_on_c, 0, 64, 114
3, 699360, Note_on_c, 0, 64, 0
3, 699360, Note_on_c, 0, 62, 114
3, 699600, Note_on_c, 0, 62, 0
3, 699600, Note_on_c, 0, 61, 114
3, 699840, Note_on_c, 0, 61, 0
3, 699840, Control_c, 0, 64, 127
3, 699840, Note_on_c, 0, 47, 88
3, 699840, Note_on_c, 0, 50, 88
3, 699840, Note_on_c, 0, 54, 88
3, 699840, Note_on_c, 0, 59, 88
3, 699999, Note_on_c, 0, 59, 0
3, 699999, Note_on_c, 0, 47, 0
3, 699999, Note_on_c, 0, 50, 0
3, 699999, Note_on_c, 0, 54, 0
3, 699999, Note_on_c, 0, 35, 88
3, 700160, Note_on_c, 0, 35, 0
3, 700160, Note_on_c, 0, 38, 88
3, 700320, Note_on_c, 0, 38, 0
3, 700320, Note_on_c, 0, 42, 88
3, 700479, Note_on_c, 0, 42, 0
3, 700479, Note_on_c, 0, 47, 88
3, 700640, Note_on_c, 0, 47, 0
3, 700640, Control_c, 0, 64, 0
3, 700640, Note_on_c, 0, 50, 88
3, 700800, Note_on_c, 0, 50, 0
3, 700800, Control_c, 0, 64, 127
3, 700800, Note_on_c, 0, 54, 88
3, 700959, Note_on_c, 0, 54, 0
3, 700959, Note_on_c, 0, 47, 88
3, 701120, Note_on_c, 0, 47, 0
3, 701120, Note_on_c, 0, 50, 88
3, 701280, Note_on_c, 0, 50, 0
3, 701280, Note_on_c, 0, 54, 88
3, 701439, Note_on_c, 0, 54, 0
3, 701439, Note_on_c, 0, 59, 88
3, 701600, Note_on_c, 0, 59, 0
3, 701600, Control_c, 0, 64, 0
3, 701600, Note_on_c, 0, 62, 88
3, 701760, Note_on_c, 0, 62, 0
3, 701760, Control_c, 0, 64, 127
3, 701760, Note_on_c, 0, 65, 114
3, 701919, Note_on_c, 0, 65, 0
3, 701919, Note_on_c, 0, 59, 88
3, 702080, Note_on_c, 0, 59, 0
3, 702080, Note_on_c, 0, 52, 88
3, 702240, Note_on_c, 0, 52, 0
3, 702240, Note_on_c, 0, 50, 88
3, 702399, Note_on_c, 0, 50, 0
3, 702399, Note_on_c, 0, 52, 88
3, 702560, Note_on_c, 0, 52, 0
3, 702560, Control_c, 0, 64, 0
3, 702560, Note_on_c, 0, 59, 88
3, 702720, Note_on_c, 0, 59, 0
3, 702720, Note_on_c, 0, 64, 114
3, 702960, Note_on_c, 0, 64, 0
3, 702960, Note_on_c, 0, 62, 114
3, 703200, Note_on_c, 0, 62, 0
3, 703200, Note_on_c, 0, 60, 114
3, 703440, Note_on_c, 0, 60, 0
3, 703440, Note_on_c, 0, 59, 114
3, 703680, Note_on_c, 0, 59, 0
3, 703680, Control_c, 0, 64, 127
3, 703680, Note_on_c, 0, 48, 114
3, 703680, Note_on_c, 0, 52, 114
3, 703680, Note_on_c, 0, 57, 114
3, 703839, Note_on_c, 0, 57, 0
3, 703839, Note_on_c, 0, 52, 0
3, 703839, Note_on_c, 0, 48, 0
3, 703839, Note_on_c, 0, 52, 114
3, 703839, Note_on_c, 0, 57, 114
3, 703839, Note_on_c, 0, 60, 114
3, 704000, Note_on_c, 0, 60, 0
3, 704000, Note_on_c, 0, 57, 0
3, 704000, Note_on_c, 0, 52, 0
3, 704000, Note_on_c, 0, 57, 114
3, 704000, Note_on_c, 0, 60, 114
3, 704000, Note_on_c, 0, 64, 114
3, 704160, Note_on_c, 0, 64, 0
3, 704160, Note_on_c, 0, 60, 0
3, 704160, Note_on_c, 0, 57, 0
3, 704160, Control_c, 0, 64, 0
3, 704160, Note_on_c, 0, 60, 114
3, 704160, Note_on_c, 0, 64, 114
3, 704160, Note_on_c, 0, 69, 114
3, 704640, Note_on_c, 0, 69, 0
3, 704640, Note_on_c, 0, 64, 0
3, 704640, Note_on_c, 0, 60, 0
3, 704640, Note_on_c, 0, 48, 114
3, 704640, Note_on_c, 0, 52, 114
3, 704640, Note_on_c, 0, 58, 114
3, 704799, Note_on_c, 0, 58, 0
3, 704799, Note_on_c, 0, 52, 0
3, 704799, Note_on_c, 0, 48, 0
3, 704799, Note_on_c, 0, 52, 114
3, 704799, Note_on_c, 0, 58, 114
3, 704799, Note_on_c, 0, 60, 114
3, 704960, Note_on_c, 0, 60, 0
3, 704960, Note_on_c, 0, 58, 0
3, 704960, Note_on_c, 0, 52, 0
3, 704960, Note_on_c, 0, 58, 114
3, 704960, Note_on_c, 0, 60, 114
3, 704960, Note_on_c, 0, 64, 114
3, 705120, Note_on_c, 0, 64, 0
3, 705120, Note_on_c, 0, 60, 0
3, 705120, Note_on_c, 0, 58, 0
3, 705120, Note_on_c, 0, 60, 114
3, 705120, Note_on_c, 0, 64, 114
3, 705120, Note_on_c, 0, 70, 114
3, 705520, Note_on_c, 0, 53, 88
3, 705560, Note_on_c, 0, 60, 88
3, 705600, Note_on_c, 0, 70, 0
3, 705600, Note_on_c, 0, 60, 0
3, 705600, Note_on_c, 0, 64, 0
3, 705600, Note_on_c, 0, 70, 88
3, 705840, Note_on_c, 0, 70, 0
3, 705840, Note_on_c, 0, 53, 0
3, 705840, Note_on_c, 0, 60, 0
3, 705840, Note_on_c, 0, 69, 88
3, 706080, Note_on_c, 0, 69, 0
3, 706080, Note_on_c, 0, 67, 88
3, 706320, Note_on_c, 0, 67, 0
3, 706320, Note_on_c, 0, 66, 88
3, 706560, Note_on_c, 0, 66, 0
3, 706560, Note_on_c, 0, 65, 88
3, 706800, Note_on_c, 0, 65, 0
3, 706800, Note_on_c, 0, 63, 88
3, 707040, Note_on_c, 0, 63, 0
3, 707040, Note_on_c, 0, 62, 88
3, 707280, Note_on_c, 0, 62, 0
3, 707280, Note_on_c, 0, 60, 88
3, 707520, Note_on_c, 0, 60, 0
3, 707520, Note_on_c, 0, 52, 88
3, 707520, Note_on_c, 0, 57, 88
3, 707520, Note_on_c, 0, 62, 88
3, 707679, Note_on_c, 0, 62, 0
3, 707679, Note_on_c, 0, 57, 0
3, 707679, Note_on_c, 0, 52, 0
3, 707679, Note_on_c, 0, 60, 88
3, 707840, Note_on_c, 0, 60, 0
3, 707840, Note_on_c, 0, 56, 88
3, 708000, Note_on_c, 0, 56, 0
3, 708000, Note_on_c, 0, 59, 88
3, 708159, Note_on_c, 0, 59, 0
3, 708159, Note_on_c, 0, 57, 88
3, 708320, Note_on_c, 0, 57, 0
3, 708320, Note_on_c, 0, 52, 88
3, 708480, Note_on_c, 0, 52, 0
3, 708480, Note_on_c, 0, 53, 62
3, 708639, Note_on_c, 0, 53, 0
3, 708639, Note_on_c, 0, 52, 62
3, 708800, Note_on_c, 0, 52, 0
3, 708800, Note_on_c, 0, 48, 62
3, 708960, Note_on_c, 0, 48, 0
3, 708960, Control_c, 0, 64, 127
3, 708960, Note_on_c, 0, 50, 75
3, 709080, Note_on_c, 0, 50, 0
3, 709080, Note_on_c, 0, 48, 75
3, 709200, Note_on_c, 0, 48, 0
3, 709200, Note_on_c, 0, 45, 88
3, 709320, Note_on_c, 0, 45, 0
3, 709320, Control_c, 0, 64, 0
3, 709320, Note_on_c, 0, 41, 88
3, 709440, Note_on_c, 0, 41, 0
3, 709440, Note_on_c, 0, 40, 88
3, 709440, Note_on_c, 0, 45, 88
3, 709440, Note_on_c, 0, 48, 88
3, 709440, Note_on_c, 0, 52, 88
3, 709800, Note_on_c, 0, 52, 0
3, 709800, Note_on_c, 0, 40, 0
3, 709800, Note_on_c, 0, 45, 0
3, 709800, Note_on_c, 0, 48, 0
3, 709800, Control_c, 0, 64, 127
3, 709800, Note_on_c, 0, 39, 88
3, 709800, Note_on_c, 0, 45, 88
3, 709800, Note_on_c, 0, 48, 88
3, 709800, Note_on_c, 0, 53, 88
3, 709920, Note_on_c, 0, 53, 0
3, 709920, Note_on_c, 0, 39, 0
3, 709920, Note_on_c, 0, 45, 0
3, 709920, Note_on_c, 0, 48, 0
3, 709920, Note_on_c, 0, 39, 88
3, 709920, Note_on_c, 0, 45, 88
3, 709920, Note_on_c, 0, 48, 88
3, 709920, Note_on_c, 0, 53, 88
3, 710640, Note_on_c, 0, 53, 0
3, 710640, Note_on_c, 0, 39, 0
3, 710640, Note_on_c, 0, 45, 0
3, 710640, Note_on_c, 0, 48, 0
3, 710880, Control_c, 0, 64, 0
3, 711360, Control_c, 0, 64, 127
3, 711360, Note_on_c, 0, 39, 88
3, 711420, Note_on_c, 0, 39, 0
3, 711420, Note_on_c, 0, 45, 88
3, 711480, Note_on_c, 0, 45, 0
3, 711480, Note_on_c, 0, 48, 88
3, 711540, Note_on_c, 0, 48, 0
3, 711540, Note_on_c, 0, 53, 88
3, 711600, Note_on_c, 0, 53, 0
3, 711600, Note_on_c, 0, 57, 88
3, 711660, Note_on_c, 0, 57, 0
3, 711660, Note_on_c, 0, 60, 88
3, 711720, Note_on_c, 0, 60, 0
3, 711720, Note_on_c, 0, 65, 88
3, 711780, Note_on_c, 0, 65, 0
3, 711780, Note_on_c, 0, 69, 88
3, 711840, Note_on_c, 0, 69, 0
3, 711840, Note_on_c, 0, 72, 88
3, 711900, Note_on_c, 0, 72, 0
3, 711900, Note_on_c, 0, 77, 88
3, 711960, Note_on_c, 0, 77, 0
3, 711960, Note_on_c, 0, 81, 88
3, 712020, Note_on_c, 0, 81, 0
3, 712020, Note_on_c, 0, 84, 88
3, 712080, Note_on_c, 0, 84, 0
3, 712080, Note_on_c, 0, 89, 88
3, 712140, Note_on_c, 0, 89, 0
3, 712200, Control_c, 0, 64, 0
3, 727200, Note_on_c, 0, 52, 101
3, 727200, Note_on_c, 0, 57, 101
3, 727200, Note_on_c, 0, 60, 101
3, 727200, Note_on_c, 0, 64, 101
3, 727680, Note_on_c, 0, 64, 0
3, 727680, Note_on_c, 0, 52, 0
3, 727680, Note_on_c, 0, 57, 0
3, 727680, Note_on_c, 0, 60, 0
3, 727680, Note_on_c, 0, 53, 101
3, 727680, Note_on_c, 0, 57, 101
3, 727680, Note_on_c, 0, 60, 101
3, 727680, Note_on_c, 0, 65, 101
3, 727920, Note_on_c, 0, 65, 0
3, 727920, Note_on_c, 0, 53, 0
3, 727920, Note_on_c, 0, 57, 0
3, 727920, Note_on_c, 0, 60, 0
3, 727920, Note_on_c, 0, 54, 101
3, 727920, Note_on_c, 0, 57, 101
3, 727920, Note_on_c, 0, 60, 101
3, 727920, Note_on_c, 0, 66, 101
3, 728160, Note_on_c, 0, 66, 0
3, 728160, Note_on_c, 0, 54, 0
3, 728160, Note_on_c, 0, 57, 0
3, 728160, Note_on_c, 0, 60, 0
3, 728160, Note_on_c, 0, 53, 101
3, 728160, Note_on_c, 0, 57, 101
3, 728160, Note_on_c, 0, 60, 101
3, 728160, Note_on_c, 0, 65, 101
3, 729120, Note_on_c, 0, 65, 0
3, 729120, Note_on_c, 0, 53, 0
3, 729120, Note_on_c, 0, 57, 0
3, 729120, Note_on_c, 0, 60, 0
3, 729120, Note_on_c, 0, 52, 101
3, 729120, Note_on_c, 0, 57, 101
3, 729120, Note_on_c, 0, 60, 101
3, 729120, Note_on_c, 0, 64, 101
3, 729600, Note_on_c, 0, 64, 0
3, 729600, Note_on_c, 0, 52, 0
3, 729600, Note_on_c, 0, 57, 0
3, 729600, Note_on_c, 0, 60, 0
3, 729600, Note_on_c, 0, 51, 101
3, 729600, Note_on_c, 0, 57, 101
3, 729600, Note_on_c, 0, 60, 101
3, 729600, Note_on_c, 0, 63, 101
3, 730080, Note_on_c, 0, 63, 0
3, 730080, Note_on_c, 0, 51, 0
3, 730080, Note_on_c, 0, 57, 0
3, 730080, Note_on_c, 0, 60, 0
3, 730080, Note_on_c, 0, 39, 101
3, 730080, Note_on_c, 0, 51, 101
3, 730560, Note_on_c, 0, 51, 0
3, 730560, Note_on_c, 0, 39, 0
3, 730560, Note_on_c, 0, 38, 101
3, 730560, Note_on_c, 0, 50, 101
3, 731040, Note_on_c, 0, 50, 0
3, 731040, Note_on_c, 0, 38, 0
3, 731040, Note_on_c, 0, 50, 101
3, 731040, Note_on_c, 0, 54, 101
3, 731040, Note_on_c, 0, 57, 101
3, 731040, Note_on_c, 0, 62, 101
3, 731520, Note_on_c, 0, 62, 0
3, 731520, Note_on_c, 0, 50, 0
3, 731520, Note_on_c, 0, 54, 0
3, 731520, Note_on_c, 0, 57, 0
3, 731520, Note_on_c, 0, 49, 101
3, 731520, Note_on_c, 0, 54, 101
3, 731520, Note_on_c, 0, 57, 101
3, 731520, Note_on_c, 0, 61, 101
3, 732000, Note_on_c, 0, 61, 0
3, 732000, Note_on_c, 0, 49, 0
3, 732000, Note_on_c, 0, 54, 0
3, 732000, Note_on_c, 0, 57, 0
3, 732000, Note_on_c, 0, 37, 101
3, 732000, Note_on_c, 0, 49, 101
3, 732480, Note_on_c, 0, 49, 0
3, 732480, Note_on_c, 0, 37, 0
3, 732480, Note_on_c, 0, 36, 101
3, 732480, Note_on_c, 0, 48, 101
3, 732960, Note_on_c, 0, 48, 0
3, 732960, Note_on_c, 0, 36, 0
3, 732960, Note_on_c, 0, 48, 101
3, 732960, Note_on_c, 0, 54, 101
3, 732960, Note_on_c, 0, 57, 101
3, 732960, Note_on_c, 0, 60, 101
3, 733440, Note_on_c, 0, 60, 0
3, 733440, Note_on_c, 0, 48, 0
3, 733440, Note_on_c, 0, 54, 0
3, 733440, Note_on_c, 0, 57, 0
3, 733440, Note_on_c, 0, 47, 101
3, 733440, Note_on_c, 0, 54, 101
3, 733440, Note_on_c, 0, 57, 101
3, 733440, Note_on_c, 0, 59, 101
3, 733920, Note_on_c, 0, 59, 0
3, 733920, Note_on_c, 0, 47, 0
3, 733920, Note_on_c, 0, 54, 0
3, 733920, Note_on_c, 0, 57, 0
3, 733920, Note_on_c, 0, 35, 101
3, 733920, Note_on_c, 0, 47, 101
3, 734400, Note_on_c, 0, 47, 0
3, 734400, Note_on_c, 0, 35, 0
3, 734400, Note_on_c, 0, 34, 101
3, 734400, Note_on_c, 0, 46, 101
3, 734880, Note_on_c, 0, 46, 0
3, 734880, Note_on_c, 0, 34, 0
3, 734880, Note_on_c, 0, 46, 101
3, 734880, Note_on_c, 0, 51, 101
3, 734880, Note_on_c, 0, 54, 101
3, 734880, Note_on_c, 0, 58, 101
3, 735360, Note_on_c, 0, 58, 0
3, 735360, Note_on_c, 0, 46, 0
3, 735360, Note_on_c, 0, 51, 0
3, 735360, Note_on_c, 0, 54, 0
3, 735360, Note_on_c, 0, 47, 101
3, 735360, Note_on_c, 0, 51, 101
3, 735360, Note_on_c, 0, 54, 101
3, 735360, Note_on_c, 0, 59, 101
3, 735600, Note_on_c, 0, 59, 0
3, 735600, Note_on_c, 0, 47, 0
3, 735600, Note_on_c, 0, 51, 0
3, 735600, Note_on_c, 0, 54, 0
3, 735600, Note_on_c, 0, 48, 101
3, 735600, Note_on_c, 0, 51, 101
3, 735600, Note_on_c, 0, 54, 101
3, 735600, Note_on_c, 0, 60, 101
3, 735840, Note_on_c, 0, 60, 0
3, 735840, Note_on_c, 0, 48, 0
3, 735840, Note_on_c, 0, 51, 0
3, 735840, Note_on_c, 0, 54, 0
3, 735840, Note_on_c, 0, 47, 101
3, 735840, Note_on_c, 0, 51, 101
3, 735840, Note_on_c, 0, 54, 101
3, 735840, Note_on_c, 0, 59, 101
3, 736800, Note_on_c, 0, 59, 0
3, 736800, Note_on_c, 0, 47, 0
3, 736800, Note_on_c, 0, 51, 0
3, 736800, Note_on_c, 0, 54, 0
3, 736800, Note_on_c, 0, 46, 101
3, 736800, Note_on_c, 0, 51, 101
3, 736800, Note_on_c, 0, 54, 101
3, 736800, Note_on_c, 0, 58, 101
3, 737280, Note_on_c, 0, 58, 0
3, 737280, Note_on_c, 0, 46, 0
3, 737280, Note_on_c, 0, 51, 0
3, 737280, Note_on_c, 0, 54, 0
3, 737280, Note_on_c, 0, 45, 101
3, 737280, Note_on_c, 0, 51, 101
3, 737280, Note_on_c, 0, 54, 101
3, 737280, Note_on_c, 0, 57, 101
3, 737760, Note_on_c, 0, 57, 0
3, 737760, Note_on_c, 0, 45, 0
3, 737760, Note_on_c, 0, 51, 0
3, 737760, Note_on_c, 0, 54, 0
3, 737760, Note_on_c, 0, 33, 101
3, 737760, Note_on_c, 0, 45, 101
3, 738240, Note_on_c, 0, 45, 0
3, 738240, Note_on_c, 0, 33, 0
3, 738240, Note_on_c, 0, 32, 101
3, 738240, Note_on_c, 0, 44, 101
3, 738720, Note_on_c, 0, 44, 0
3, 738720, Note_on_c, 0, 32, 0
3, 738720, Note_on_c, 0, 44, 101
3, 738720, Note_on_c, 0, 48, 101
3, 738720, Note_on_c, 0, 51, 101
3, 738720, Note_on_c, 0, 56, 101
3, 739200, Note_on_c, 0, 56, 0
3, 739200, Note_on_c, 0, 44, 0
3, 739200, Note_on_c, 0, 48, 0
3, 739200, Note_on_c, 0, 51, 0
3, 739200, Note_on_c, 0, 43, 101
3, 739200, Note_on_c, 0, 48, 101
3, 739200, Note_on_c, 0, 51, 101
3, 739200, Note_on_c, 0, 55, 101
3, 739680, Note_on_c, 0, 55, 0
3, 739680, Note_on_c, 0, 43, 0
3, 739680, Note_on_c, 0, 48, 0
3, 739680, Note_on_c, 0, 51, 0
3, 739680, Note_on_c, 0, 31, 101
3, 739680, Note_on_c, 0, 43, 101
3, 740160, Note_on_c, 0, 43, 0
3, 740160, Note_on_c, 0, 31, 0
3, 740160, Note_on_c, 0, 30, 101
3, 740160, Note_on_c, 0, 42, 101
3, 740640, Note_on_c, 0, 42, 0
3, 740640, Note_on_c, 0, 30, 0
3, 740640, Note_on_c, 0, 42, 101
3, 740640, Note_on_c, 0, 48, 101
3, 740640, Note_on_c, 0, 51, 101
3, 740640, Note_on_c, 0, 54, 101
3, 741120, Note_on_c, 0, 54, 0
3, 741120, Note_on_c, 0, 42, 0
3, 741120, Note_on_c, 0, 48, 0
3, 741120, Note_on_c, 0, 51, 0
3, 741120, Note_on_c, 0, 41, 101
3, 741120, Note_on_c, 0, 48, 101
3, 741120, Note_on_c, 0, 51, 101
3, 741120, Note_on_c, 0, 53, 101
3, 741600, Note_on_c, 0, 53, 0
3, 741600, Note_on_c, 0, 41, 0
3, 741600, Note_on_c, 0, 48, 0
3, 741600, Note_on_c, 0, 51, 0
3, 741600, Note_on_c, 0, 29, 101
3, 741600, Note_on_c, 0, 41, 101
3, 742080, Note_on_c, 0, 41, 0
3, 742080, Note_on_c, 0, 29, 0
3, 742080, Note_on_c, 0, 28, 101
3, 742080, Note_on_c, 0, 40, 101
3, 742560, Note_on_c, 0, 40, 0
3, 742560, Note_on_c, 0, 28, 0
3, 742560, Note_on_c, 0, 52, 101
3, 742560, Note_on_c, 0, 57, 101
3, 742560, Note_on_c, 0, 60, 101
3, 742560, Note_on_c, 0, 64, 101
3, 743040, Note_on_c, 0, 64, 0
3, 743040, Note_on_c, 0, 52, 0
3, 743040, Note_on_c, 0, 57, 0
3, 743040, Note_on_c, 0, 60, 0
3, 743040, Note_on_c, 0, 53, 101
3, 743040, Note_on_c, 0, 57, 101
3, 743040, Note_on_c, 0, 60, 101
3, 743040, Note_on_c, 0, 65, 101
3, 743280, Note_on_c, 0, 65, 0
3, 743280, Note_on_c, 0, 53, 0
3, 743280, Note_on_c, 0, 57, 0
3, 743280, Note_on_c, 0, 60, 0
3, 743280, Note_on_c, 0, 54, 101
3, 743280, Note_on_c, 0, 57, 101
3, 743280, Note_on_c, 0, 60, 101
3, 743280, Note_on_c, 0, 66, 101
3, 743520, Note_on_c, 0, 66, 0
3, 743520, Note_on_c, 0, 54, 0
3, 743520, Note_on_c, 0, 57, 0
3, 743520, Note_on_c, 0, 60, 0
3, 743520, Note_on_c, 0, 53, 101
3, 743520, Note_on_c, 0, 57, 101
3, 743520, Note_on_c, 0, 60, 101
3, 743520, Note_on_c, 0, 65, 101
3, 744000, Note_on_c, 0, 65, 0
3, 744000, Note_on_c, 0, 53, 0
3, 744000, Note_on_c, 0, 57, 0
3, 744000, Note_on_c, 0, 60, 0
3, 744000, Note_on_c, 0, 41, 101
3, 744000, Note_on_c, 0, 53, 101
3, 744480, Note_on_c, 0, 53, 0
3, 744480, Note_on_c, 0, 41, 0
3, 744480, Note_on_c, 0, 53, 101
3, 744480, Note_on_c, 0, 57, 101
3, 744480, Note_on_c, 0, 60, 101
3, 744480, Note_on_c, 0, 65, 101
3, 744960, Note_on_c, 0, 65, 0
3, 744960, Note_on_c, 0, 53, 0
3, 744960, Note_on_c, 0, 57, 0
3, 744960, Note_on_c, 0, 60, 0
3, 744960, Note_on_c, 0, 40, 101
3, 744960, Note_on_c, 0, 52, 101
3, 745440, Note_on_c, 0, 52, 0
3, 745440, Note_on_c, 0, 40, 0
3, 745440, Note_on_c, 0, 52, 101
3, 745440, Note_on_c, 0, 57, 101
3, 745440, Note_on_c, 0, 60, 101
3, 745440, Note_on_c, 0, 64, 101
3, 745920, Note_on_c, 0, 64, 0
3, 745920, Note_on_c, 0, 52, 0
3, 745920, Note_on_c, 0, 57, 0
3, 745920, Note_on_c, 0, 60, 0
3, 745920, Note_on_c, 0, 39, 101
3, 745920, Note_on_c, 0, 51, 101
3, 746400, Note_on_c, 0, 51, 0
3, 746400, Note_on_c, 0, 39, 0
3, 746400, Note_on_c, 0, 51, 101
3, 746400, Note_on_c, 0, 57, 101
3, 746400, Note_on_c, 0, 60, 101
3, 746400, Note_on_c, 0, 63, 101
3, 746880, Note_on_c, 0, 63, 0
3, 746880, Note_on_c, 0, 51, 0
3, 746880, Note_on_c, 0, 57, 0
3, 746880, Note_on_c, 0, 60, 0
3, 746880, Note_on_c, 0, 53, 101
3, 746880, Note_on_c, 0, 57, 101
3, 746880, Note_on_c, 0, 60, 101
3, 746880, Note_on_c, 0, 65, 101
3, 747120, Note_on_c, 0, 65, 0
3, 747120, Note_on_c, 0, 53, 0
3, 747120, Note_on_c, 0, 57, 0
3, 747120, Note_on_c, 0, 60, 0
3, 747120, Note_on_c, 0, 54, 101
3, 747120, Note_on_c, 0, 57, 101
3, 747120, Note_on_c, 0, 60, 101
3, 747120, Note_on_c, 0, 66, 101
3, 747360, Note_on_c, 0, 66, 0
3, 747360, Note_on_c, 0, 54, 0
3, 747360, Note_on_c, 0, 57, 0
3, 747360, Note_on_c, 0, 60, 0
3, 747360, Note_on_c, 0, 53, 101
3, 747360, Note_on_c, 0, 57, 101
3, 747360, Note_on_c, 0, 60, 101
3, 747360, Note_on_c, 0, 65, 101
3, 747840, Note_on_c, 0, 65, 0
3, 747840, Note_on_c, 0, 53, 0
3, 747840, Note_on_c, 0, 57, 0
3, 747840, Note_on_c, 0, 60, 0
3, 747840, Note_on_c, 0, 41, 101
3, 747840, Note_on_c, 0, 53, 101
3, 748320, Note_on_c, 0, 53, 0
3, 748320, Note_on_c, 0, 41, 0
3, 748320, Note_on_c, 0, 53, 101
3, 748320, Note_on_c, 0, 57, 101
3, 748320, Note_on_c, 0, 60, 101
3, 748320, Note_on_c, 0, 65, 101
3, 748800, Note_on_c, 0, 65, 0
3, 748800, Note_on_c, 0, 53, 0
3, 748800, Note_on_c, 0, 57, 0
3, 748800, Note_on_c, 0, 60, 0
3, 748800, Note_on_c, 0, 40, 101
3, 748800, Note_on_c, 0, 52, 101
3, 749280, Note_on_c, 0, 52, 0
3, 749280, Note_on_c, 0, 40, 0
3, 749280, Note_on_c, 0, 52, 101
3, 749280, Note_on_c, 0, 57, 101
3, 749280, Note_on_c, 0, 60, 101
3, 749280, Note_on_c, 0, 64, 101
3, 749760, Note_on_c, 0, 64, 0
3, 749760, Note_on_c, 0, 52, 0
3, 749760, Note_on_c, 0, 57, 0
3, 749760, Note_on_c, 0, 60, 0
3, 749760, Note_on_c, 0, 39, 101
3, 749760, Note_on_c, 0, 51, 101
3, 750240, Note_on_c, 0, 51, 0
3, 750240, Note_on_c, 0, 39, 0
3, 750240, Note_on_c, 0, 51, 101
3, 750240, Note_on_c, 0, 57, 101
3, 750240, Note_on_c, 0, 60, 101
3, 750240, Note_on_c, 0, 63, 101
3, 750720, Note_on_c, 0, 63, 0
3, 750720, Note_on_c, 0, 51, 0
3, 750720, Note_on_c, 0, 57, 0
3, 750720, Note_on_c, 0, 60, 0
3, 750720, Note_on_c, 0, 50, 101
3, 750720, Note_on_c, 0, 54, 101
3, 750720, Note_on_c, 0, 57, 101
3, 750720, Note_on_c, 0, 62, 101
3, 750960, Note_on_c, 0, 62, 0
3, 750960, Note_on_c, 0, 50, 0
3, 750960, Note_on_c, 0, 54, 0
3, 750960, Note_on_c, 0, 57, 0
3, 750960, Note_on_c, 0, 51, 101
3, 750960, Note_on_c, 0, 54, 101
3, 750960, Note_on_c, 0, 57, 101
3, 750960, Note_on_c, 0, 63, 101
3, 751200, Note_on_c, 0, 63, 0
3, 751200, Note_on_c, 0, 51, 0
3, 751200, Note_on_c, 0, 54, 0
3, 751200, Note_on_c, 0, 57, 0
3, 751200, Note_on_c, 0, 50, 101
3, 751200, Note_on_c, 0, 54, 101
3, 751200, Note_on_c, 0, 57, 101
3, 751200, Note_on_c, 0, 62, 101
3, 751680, Note_on_c, 0, 62, 0
3, 751680, Note_on_c, 0, 50, 0
3, 751680, Note_on_c, 0, 54, 0
3, 751680, Note_on_c, 0, 57, 0
3, 751680, Note_on_c, 0, 38, 101
3, 751680, Note_on_c, 0, 50, 101
3, 752160, Note_on_c, 0, 50, 0
3, 752160, Note_on_c, 0, 38, 0
3, 752160, Note_on_c, 0, 50, 101
3, 752160, Note_on_c, 0, 54, 101
3, 752160, Note_on_c, 0, 57, 101
3, 752160, Note_on_c, 0, 62, 101
3, 752640, Note_on_c, 0, 62, 0
3, 752640, Note_on_c, 0, 50, 0
3, 752640, Note_on_c, 0, 54, 0
3, 752640, Note_on_c, 0, 57, 0
3, 752640, Note_on_c, 0, 37, 101
3, 752640, Note_on_c, 0, 49, 101
3, 753120, Note_on_c, 0, 49, 0
3, 753120, Note_on_c, 0, 37, 0
3, 753120, Note_on_c, 0, 49, 101
3, 753120, Note_on_c, 0, 54, 101
3, 753120, Note_on_c, 0, 57, 101
3, 753120, Note_on_c, 0, 61, 101
3, 753600, Note_on_c, 0, 61, 0
3, 753600, Note_on_c, 0, 49, 0
3, 753600, Note_on_c, 0, 54, 0
3, 753600, Note_on_c, 0, 57, 0
3, 753600, Note_on_c, 0, 36, 101
3, 753600, Note_on_c, 0, 48, 101
3, 754080, Note_on_c, 0, 48, 0
3, 754080, Note_on_c, 0, 36, 0
3, 754080, Note_on_c, 0, 48, 101
3, 754080, Note_on_c, 0, 54, 101
3, 754080, Note_on_c, 0, 57, 101
3, 754080, Note_on_c, 0, 60, 101
3, 754560, Note_on_c, 0, 60, 0
3, 754560, Note_on_c, 0, 48, 0
3, 754560, Note_on_c, 0, 54, 0
3, 754560, Note_on_c, 0, 57, 0
3, 754560, Note_on_c, 0, 50, 101
3, 754560, Note_on_c, 0, 54, 101
3, 754560, Note_on_c, 0, 57, 101
3, 754560, Note_on_c, 0, 62, 101
3, 754800, Note_on_c, 0, 62, 0
3, 754800, Note_on_c, 0, 50, 0
3, 754800, Note_on_c, 0, 54, 0
3, 754800, Note_on_c, 0, 57, 0
3, 754800, Note_on_c, 0, 51, 101
3, 754800, Note_on_c, 0, 54, 101
3, 754800, Note_on_c, 0, 57, 101
3, 754800, Note_on_c, 0, 63, 101
3, 755040, Note_on_c, 0, 63, 0
3, 755040, Note_on_c, 0, 51, 0
3, 755040, Note_on_c, 0, 54, 0
3, 755040, Note_on_c, 0, 57, 0
3, 755040, Note_on_c, 0, 50, 101
3, 755040, Note_on_c, 0, 54, 101
3, 755040, Note_on_c, 0, 57, 101
3, 755040, Note_on_c, 0, 62, 101
3, 755520, Note_on_c, 0, 62, 0
3, 755520, Note_on_c, 0, 50, 0
3, 755520, Note_on_c, 0, 54, 0
3, 755520, Note_on_c, 0, 57, 0
3, 755520, Note_on_c, 0, 38, 101
3, 755520, Note_on_c, 0, 50, 101
3, 756000, Note_on_c, 0, 50, 0
3, 756000, Note_on_c, 0, 38, 0
3, 756000, Note_on_c, 0, 50, 101
3, 756000, Note_on_c, 0, 54, 101
3, 756000, Note_on_c, 0, 57, 101
3, 756000, Note_on_c, 0, 62, 101
3, 756480, Note_on_c, 0, 62, 0
3, 756480, Note_on_c, 0, 50, 0
3, 756480, Note_on_c, 0, 54, 0
3, 756480, Note_on_c, 0, 57, 0
3, 756480, Note_on_c, 0, 37, 101
3, 756480, Note_on_c, 0, 49, 101
3, 756960, Note_on_c, 0, 49, 0
3, 756960, Note_on_c, 0, 37, 0
3, 756960, Note_on_c, 0, 49, 101
3, 756960, Note_on_c, 0, 54, 101
3, 756960, Note_on_c, 0, 57, 101
3, 756960, Note_on_c, 0, 61, 101
3, 757440, Note_on_c, 0, 61, 0
3, 757440, Note_on_c, 0, 49, 0
3, 757440, Note_on_c, 0, 54, 0
3, 757440, Note_on_c, 0, 57, 0
3, 757440, Note_on_c, 0, 36, 101
3, 757440, Note_on_c, 0, 48, 101
3, 757920, Note_on_c, 0, 48, 0
3, 757920, Note_on_c, 0, 36, 0
3, 757920, Note_on_c, 0, 48, 101
3, 757920, Note_on_c, 0, 54, 101
3, 757920, Note_on_c, 0, 57, 101
3, 757920, Note_on_c, 0, 60, 101
3, 758400, Note_on_c, 0, 60, 0
3, 758400, Note_on_c, 0, 48, 0
3, 758400, Note_on_c, 0, 54, 0
3, 758400, Note_on_c, 0, 57, 0
3, 758400, Note_on_c, 0, 47, 101
3, 758400, Note_on_c, 0, 50, 101
3, 758400, Note_on_c, 0, 53, 101
3, 758400, Note_on_c, 0, 59, 101
3, 758640, Note_on_c, 0, 59, 0
3, 758640, Note_on_c, 0, 47, 0
3, 758640, Note_on_c, 0, 50, 0
3, 758640, Note_on_c, 0, 53, 0
3, 758640, Note_on_c, 0, 48, 101
3, 758640, Note_on_c, 0, 50, 101
3, 758640, Note_on_c, 0, 53, 101
3, 758640, Note_on_c, 0, 60, 101
3, 758880, Note_on_c, 0, 60, 0
3, 758880, Note_on_c, 0, 48, 0
3, 758880, Note_on_c, 0, 50, 0
3, 758880, Note_on_c, 0, 53, 0
3, 758880, Note_on_c, 0, 47, 101
3, 758880, Note_on_c, 0, 50, 101
3, 758880, Note_on_c, 0, 53, 101
3, 758880, Note_on_c, 0, 59, 101
3, 759360, Note_on_c, 0, 59, 0
3, 759360, Note_on_c, 0, 47, 0
3, 759360, Note_on_c, 0, 50, 0
3, 759360, Note_on_c, 0, 53, 0
3, 759360, Note_on_c, 0, 35, 101
3, 759360, Note_on_c, 0, 47, 101
3, 759840, Note_on_c, 0, 47, 0
3, 759840, Note_on_c, 0, 35, 0
3, 759840, Note_on_c, 0, 47, 101
3, 759840, Note_on_c, 0, 50, 101
3, 759840, Note_on_c, 0, 53, 101
3, 759840, Note_on_c, 0, 59, 101
3, 760320, Note_on_c, 0, 59, 0
3, 760320, Note_on_c, 0, 47, 0
3, 760320, Note_on_c, 0, 50, 0
3, 760320, Note_on_c, 0, 53, 0
3, 760320, Note_on_c, 0, 46, 101
3, 760320, Note_on_c, 0, 50, 101
3, 760320, Note_on_c, 0, 53, 101
3, 760320, Note_on_c, 0, 58, 101
3, 760560, Note_on_c, 0, 58, 0
3, 760560, Note_on_c, 0, 46, 0
3, 760560, Note_on_c, 0, 50, 0
3, 760560, Note_on_c, 0, 53, 0
3, 760560, Note_on_c, 0, 47, 101
3, 760560, Note_on_c, 0, 50, 101
3, 760560, Note_on_c, 0, 53, 101
3, 760560, Note_on_c, 0, 59, 101
3, 760800, Note_on_c, 0, 59, 0
3, 760800, Note_on_c, 0, 47, 0
3, 760800, Note_on_c, 0, 50, 0
3, 760800, Note_on_c, 0, 53, 0
3, 760800, Note_on_c, 0, 46, 101
3, 760800, Note_on_c, 0, 50, 101
3, 760800, Note_on_c, 0, 53, 101
3, 760800, Note_on_c, 0, 58, 101
3, 761280, Note_on_c, 0, 58, 0
3, 761280, Note_on_c, 0, 46, 0
3, 761280, Note_on_c, 0, 50, 0
3, 761280, Note_on_c, 0, 53, 0
3, 761280, Note_on_c, 0, 34, 101
3, 761280, Note_on_c, 0, 46, 101
3, 761760, Note_on_c, 0, 46, 0
3, 761760, Note_on_c, 0, 34, 0
3, 761760, Note_on_c, 0, 46, 101
3, 761760, Note_on_c, 0, 50, 101
3, 761760, Note_on_c, 0, 53, 101
3, 761760, Note_on_c, 0, 58, 101
3, 762240, Note_on_c, 0, 58, 0
3, 762240, Note_on_c, 0, 46, 0
3, 762240, Note_on_c, 0, 50, 0
3, 762240, Note_on_c, 0, 53, 0
3, 762240, Note_on_c, 0, 45, 101
3, 762240, Note_on_c, 0, 50, 101
3, 762240, Note_on_c, 0, 53, 101
3, 762240, Note_on_c, 0, 57, 101
3, 762480, Note_on_c, 0, 57, 0
3, 762480, Note_on_c, 0, 45, 0
3, 762480, Note_on_c, 0, 50, 0
3, 762480, Note_on_c, 0, 53, 0
3, 762480, Note_on_c, 0, 46, 101
3, 762480, Note_on_c, 0, 50, 101
3, 762480, Note_on_c, 0, 53, 101
3, 762480, Note_on_c, 0, 58, 101
3, 762720, Note_on_c, 0, 58, 0
3, 762720, Note_on_c, 0, 46, 0
3, 762720, Note_on_c, 0, 50, 0
3, 762720, Note_on_c, 0, 53, 0
3, 762720, Note_on_c, 0, 45, 101
3, 762720, Note_on_c, 0, 50, 101
3, 762720, Note_on_c, 0, 53, 101
3, 762720, Note_on_c, 0, 57, 101
3, 763200, Note_on_c, 0, 57, 0
3, 763200, Note_on_c, 0, 45, 0
3, 763200, Note_on_c, 0, 50, 0
3, 763200, Note_on_c, 0, 53, 0
3, 763200, Note_on_c, 0, 33, 101
3, 763200, Note_on_c, 0, 45, 101
3, 763680, Note_on_c, 0, 45, 0
3, 763680, Note_on_c, 0, 33, 0
3, 763680, Note_on_c, 0, 45, 101
3, 763680, Note_on_c, 0, 50, 101
3, 763680, Note_on_c, 0, 53, 101
3, 763680, Note_on_c, 0, 57, 101
3, 764160, Note_on_c, 0, 57, 0
3, 764160, Note_on_c, 0, 45, 0
3, 764160, Note_on_c, 0, 50, 0
3, 764160, Note_on_c, 0, 53, 0
3, 764160, Note_on_c, 0, 32, 101
3, 764160, Note_on_c, 0, 44, 101
3, 764640, Note_on_c, 0, 44, 0
3, 764640, Note_on_c, 0, 32, 0
3, 764640, Note_on_c, 0, 44, 101
3, 764640, Note_on_c, 0, 50, 101
3, 764640, Note_on_c, 0, 53, 101
3, 764640, Note_on_c, 0, 56, 101
3, 765120, Note_on_c, 0, 56, 0
3, 765120, Note_on_c, 0, 44, 0
3, 765120, Note_on_c, 0, 50, 0
3, 765120, Note_on_c, 0, 53, 0
3, 765120, Note_on_c, 0, 31, 101
3, 765120, Note_on_c, 0, 43, 101
3, 765600, Note_on_c, 0, 43, 0
3, 765600, Note_on_c, 0, 31, 0
3, 765600, Note_on_c, 0, 43, 101
3, 765600, Note_on_c, 0, 50, 101
3, 765600, Note_on_c, 0, 53, 101
3, 765600, Note_on_c, 0, 55, 101
3, 766080, Note_on_c, 0, 55, 0
3, 766080, Note_on_c, 0, 43, 0
3, 766080, Note_on_c, 0, 50, 0
3, 766080, Note_on_c, 0, 53, 0
3, 766080, Note_on_c, 0, 30, 101
3, 766080, Note_on_c, 0, 42, 101
3, 766400, Note_on_c, 0, 42, 0
3, 766400, Note_on_c, 0, 30, 0
3, 766400, Note_on_c, 0, 42, 75
3, 766400, Note_on_c, 0, 47, 75
3, 766400, Note_on_c, 0, 50, 75
3, 766400, Note_on_c, 0, 54, 75
3, 766719, Note_on_c, 0, 54, 0
3, 766719, Note_on_c, 0, 42, 0
3, 766719, Note_on_c, 0, 47, 0
3, 766719, Note_on_c, 0, 50, 0
3, 766719, Note_on_c, 0, 42, 75
3, 766719, Note_on_c, 0, 47, 75
3, 766719, Note_on_c, 0, 50, 75
3, 766719, Note_on_c, 0, 54, 75
3, 767040, Note_on_c, 0, 54, 0
3, 767040, Note_on_c, 0, 42, 0
3, 767040, Note_on_c, 0, 47, 0
3, 767040, Note_on_c, 0, 50, 0
3, 767040, Note_on_c, 0, 42, 75
3, 767040, Note_on_c, 0, 47, 75
3, 767040, Note_on_c, 0, 50, 75
3, 767040, Note_on_c, 0, 54, 75
3, 767360, Note_on_c, 0, 54, 0
3, 767360, Note_on_c, 0, 42, 0
3, 767360, Note_on_c, 0, 47, 0
3, 767360, Note_on_c, 0, 50, 0
3, 767360, Note_on_c, 0, 42, 75
3, 767360, Note_on_c, 0, 47, 75
3, 767360, Note_on_c, 0, 50, 75
3, 767360, Note_on_c, 0, 54, 75
3, 767679, Note_on_c, 0, 54, 0
3, 767679, Note_on_c, 0, 42, 0
3, 767679, Note_on_c, 0, 47, 0
3, 767679, Note_on_c, 0, 50, 0
3, 767679, Note_on_c, 0, 42, 75
3, 767679, Note_on_c, 0, 47, 75
3, 767679, Note_on_c, 0, 50, 75
3, 767679, Note_on_c, 0, 54, 75
3, 768000, Note_on_c, 0, 54, 0
3, 768000, Note_on_c, 0, 42, 0
3, 768000, Note_on_c, 0, 47, 0
3, 768000, Note_on_c, 0, 50, 0
3, 768000, Note_on_c, 0, 42, 75
3, 768000, Note_on_c, 0, 47, 75
3, 768000, Note_on_c, 0, 50, 75
3, 768000, Note_on_c, 0, 54, 75
3, 768320, Note_on_c, 0, 54, 0
3, 768320, Note_on_c, 0, 42, 0
3, 768320, Note_on_c, 0, 47, 0
3, 768320, Note_on_c, 0, 50, 0
3, 768320, Note_on_c, 0, 30, 75
3, 768320, Note_on_c, 0, 35, 75
3, 768320, Note_on_c, 0, 38, 75
3, 768320, Note_on_c, 0, 42, 75
3, 768639, Note_on_c, 0, 42, 0
3, 768639, Note_on_c, 0, 30, 0
3, 768639, Note_on_c, 0, 35, 0
3, 768639, Note_on_c, 0, 38, 0
3, 768639, Note_on_c, 0, 30, 75
3, 768639, Note_on_c, 0, 35, 75
3, 768639, Note_on_c, 0, 38, 75
3, 768639, Note_on_c, 0, 42, 75
3, 768960, Note_on_c, 0, 42, 0
3, 768960, Note_on_c, 0, 30, 0
3, 768960, Note_on_c, 0, 35, 0
3, 768960, Note_on_c, 0, 38, 0
3, 768960, Note_on_c, 0, 30, 75
3, 768960, Note_on_c, 0, 35, 75
3, 768960, Note_on_c, 0, 38, 75
3, 768960, Note_on_c, 0, 42, 75
3, 769280, Note_on_c, 0, 42, 0
3, 769280, Note_on_c, 0, 30, 0
3, 769280, Note_on_c, 0, 35, 0
3, 769280, Note_on_c, 0, 38, 0
3, 769280, Note_on_c, 0, 30, 75
3, 769280, Note_on_c, 0, 35, 75
3, 769280, Note_on_c, 0, 38, 75
3, 769280, Note_on_c, 0, 42, 75
3, 769599, Note_on_c, 0, 42, 0
3, 769599, Note_on_c, 0, 30, 0
3, 769599, Note_on_c, 0, 35, 0
3, 769599, Note_on_c, 0, 38, 0
3, 769599, Note_on_c, 0, 30, 75
3, 769599, Note_on_c, 0, 35, 75
3, 769599, Note_on_c, 0, 38, 75
3, 769599, Note_on_c, 0, 42, 75
3, 769920, Note_on_c, 0, 42, 0
3, 769920, Note_on_c, 0, 30, 0
3, 769920, Note_on_c, 0, 35, 0
3, 769920, Note_on_c, 0, 38, 0
3, 769920, Note_on_c, 0, 30, 75
3, 769920, Note_on_c, 0, 35, 75
3, 769920, Note_on_c, 0, 38, 75
3, 769920, Note_on_c, 0, 42, 75
3, 771240, Note_on_c, 0, 42, 0
3, 771240, Note_on_c, 0, 30, 0
3, 771240, Note_on_c, 0, 35, 0
3, 771240, Note_on_c, 0, 38, 0
3, 771960, Note_on_c, 0, 42, 49
3, 771960, Note_on_c, 0, 49, 49
3, 771960, Note_on_c, 0, 52, 49
3, 772080, Note_on_c, 0, 52, 0
3, 772080, Note_on_c, 0, 49, 0
3, 772080, Note_on_c, 0, 42, 0
3, 772200, Note_on_c, 0, 54, 49
3, 772200, Note_on_c, 0, 61, 49
3, 772200, Note_on_c, 0, 64, 49
3, 772320, Note_on_c, 0, 64, 0
3, 772320, Note_on_c, 0, 61, 0
3, 772320, Note_on_c, 0, 54, 0
3, 772440, Note_on_c, 0, 66, 49
3, 772440, Note_on_c, 0, 73, 49
3, 772440, Note_on_c, 0, 76, 49
3, 772560, Note_on_c, 0, 76, 0
3, 772560, Note_on_c, 0, 73, 0
3, 772560, Note_on_c, 0, 66, 0
3, 772680, Note_on_c, 0, 54, 49
3, 772680, Note_on_c, 0, 61, 49
3, 772680, Note_on_c, 0, 64, 49
3, 772800, Note_on_c, 0, 64, 0
3, 772800, Note_on_c, 0, 61, 0
3, 772800, Note_on_c, 0, 54, 0
3, 772920, Note_on_c, 0, 30, 49
3, 772920, Note_on_c, 0, 42, 49
3, 773040, Note_on_c, 0, 42, 0
3, 773040, Note_on_c, 0, 30, 0
3, 773400, Note_on_c, 0, 54, 62
3, 773400, Note_on_c, 0, 62, 62
3, 773400, Note_on_c, 0, 66, 62
3, 773760, Note_on_c, 0, 66, 0
3, 773760, Note_on_c, 0, 62, 0
3, 773760, Note_on_c, 0, 54, 0
3, 776160, Note_on_c, 0, 42, 62
3, 776280, Note_on_c, 0, 42, 0
3, 776280, Note_on_c, 0, 47, 62
3, 776400, Note_on_c, 0, 47, 0
3, 776400, Control_c, 0, 64, 127
3, 776400, Note_on_c, 0, 38, 62
3, 776520, Note_on_c, 0, 38, 0
3, 776520, Note_on_c, 0, 42, 62
3, 776640, Note_on_c, 0, 42, 0
3, 776640, Note_on_c, 0, 47, 62
3, 776760, Note_on_c, 0, 47, 0
3, 776760, Control_c, 0, 64, 0
3, 776760, Note_on_c, 0, 50, 62
3, 776880, Note_on_c, 0, 50, 0
3, 776880, Note_on_c, 0, 42, 62
3, 777000, Note_on_c, 0, 42, 0
3, 777720, Note_on_c, 0, 42, 49
3, 777720, Note_on_c, 0, 49, 49
3, 777720, Note_on_c, 0, 52, 49
3, 777840, Note_on_c, 0, 52, 0
3, 777840, Note_on_c, 0, 49, 0
3, 777840, Note_on_c, 0, 42, 0
3, 777960, Note_on_c, 0, 54, 49
3, 777960, Note_on_c, 0, 61, 49
3, 777960, Note_on_c, 0, 64, 49
3, 778080, Note_on_c, 0, 64, 0
3, 778080, Note_on_c, 0, 61, 0
3, 778080, Note_on_c, 0, 54, 0
3, 778200, Note_on_c, 0, 66, 49
3, 778200, Note_on_c, 0, 73, 49
3, 778200, Note_on_c, 0, 76, 49
3, 778320, Note_on_c, 0, 76, 0
3, 778320, Note_on_c, 0, 73, 0
3, 778320, Note_on_c, 0, 66, 0
3, 778440, Note_on_c, 0, 54, 49
3, 778440, Note_on_c, 0, 61, 49
3, 778440, Note_on_c, 0, 64, 49
3, 778560, Note_on_c, 0, 64, 0
3, 778560, Note_on_c, 0, 61, 0
3, 778560, Note_on_c, 0, 54, 0
3, 778680, Note_on_c, 0, 30, 49
3, 778680, Note_on_c, 0, 42, 49
3, 778800, Note_on_c, 0, 42, 0
3, 778800, Note_on_c, 0, 30, 0
3, 779160, Note_on_c, 0, 54, 49
3, 779160, Note_on_c, 0, 62, 49
3, 779160, Note_on_c, 0, 66, 49
3, 779640, Note_on_c, 0, 66, 0
3, 779640, Note_on_c, 0, 62, 0
3, 779640, Note_on_c, 0, 54, 0
3, 823680, Note_on_c, 0, 40, 75
3, 823680, Note_on_c, 0, 45, 75
3, 823680, Note_on_c, 0, 48, 75
3, 823800, Note_on_c, 0, 48, 0
3, 823800, Note_on_c, 0, 45, 0
3, 823800, Note_on_c, 0, 40, 0
3, 823800, Note_on_c, 0, 52, 75
3, 823920, Note_on_c, 0, 52, 0
3, 825240, Note_on_c, 0, 57, 75
3, 825240, Note_on_c, 0, 60, 75
3, 825240, Note_on_c, 0, 63, 75
3, 825360, Note_on_c, 0, 63, 0
3, 825360, Note_on_c, 0, 60, 0
3, 825360, Note_on_c, 0, 57, 0
3, 825480, Note_on_c, 0, 52, 75
3, 825480, Note_on_c, 0, 57, 75
3, 825480, Note_on_c, 0, 59, 75
3, 825600, Note_on_c, 0, 59, 0
3, 825600, Note_on_c, 0, 57, 0
3, 825600, Note_on_c, 0, 52, 0
3, 825720, Note_on_c, 0, 57, 75
3, 825720, Note_on_c, 0, 60, 75
3, 825720, Note_on_c, 0, 63, 75
3, 825840, Note_on_c, 0, 63, 0
3, 825840, Note_on_c, 0, 60, 0
3, 825840, Note_on_c, 0, 57, 0
3, 825960, Note_on_c, 0, 52, 75
3, 825960, Note_on_c, 0, 57, 75
3, 825960, Note_on_c, 0, 59, 75
3, 826080, Note_on_c, 0, 59, 0
3, 826080, Note_on_c, 0, 57, 0
3, 826080, Note_on_c, 0, 52, 0
3, 826200, Note_on_c, 0, 48, 75
3, 826200, Note_on_c, 0, 52, 75
3, 826200, Note_on_c, 0, 56, 75
3, 826320, Note_on_c, 0, 56, 0
3, 826320, Note_on_c, 0, 52, 0
3, 826320, Note_on_c, 0, 48, 0
3, 826320, Note_on_c, 0, 57, 75
3, 826320, Note_on_c, 0, 60, 75
3, 826320, Note_on_c, 0, 64, 75
3, 826440, Note_on_c, 0, 64, 0
3, 826440, Note_on_c, 0, 60, 0
3, 826440, Note_on_c, 0, 57, 0
3, 826440, Note_on_c, 0, 52, 75
3, 826560, Note_on_c, 0, 52, 0
3, 826560, Note_on_c, 0, 39, 75
3, 826560, Note_on_c, 0, 45, 75
3, 826560, Note_on_c, 0, 48, 75
3, 826680, Note_on_c, 0, 48, 0
3, 826680, Note_on_c, 0, 45, 0
3, 826680, Note_on_c, 0, 39, 0
3, 826680, Note_on_c, 0, 53, 75
3, 826800, Note_on_c, 0, 53, 0
3, 828360, Note_on_c, 0, 53, 88
3, 828360, Note_on_c, 0, 57, 88
3, 828360, Note_on_c, 0, 59, 88
3, 828480, Note_on_c, 0, 59, 0
3, 828480, Note_on_c, 0, 57, 0
3, 828480, Note_on_c, 0, 53, 0
3, 828600, Note_on_c, 0, 57, 88
3, 828600, Note_on_c, 0, 60, 88
3, 828600, Note_on_c, 0, 64, 88
3, 828720, Note_on_c, 0, 64, 0
3, 828720, Note_on_c, 0, 60, 0
3, 828720, Note_on_c, 0, 57, 0
3, 828840, Note_on_c, 0, 53, 88
3, 828840, Note_on_c, 0, 57, 88
3, 828840, Note_on_c, 0, 59, 88
3, 828960, Note_on_c, 0, 59, 0
3, 828960, Note_on_c, 0, 57, 0
3, 828960, Note_on_c, 0, 53, 0
3, 829080, Note_on_c, 0, 48, 88
3, 829080, Note_on_c, 0, 53, 88
3, 829080, Note_on_c, 0, 56, 88
3, 829200, Note_on_c, 0, 56, 0
3, 829200, Note_on_c, 0, 53, 0
3, 829200, Note_on_c, 0, 48, 0
3, 829440, Note_on_c, 0, 38, 88
3, 829440, Note_on_c, 0, 42, 88
3, 829440, Note_on_c, 0, 45, 88
3, 829440, Note_on_c, 0, 50, 88
3, 829560, Note_on_c, 0, 50, 0
3, 829560, Note_on_c, 0, 38, 0
3, 829560, Note_on_c, 0, 42, 0
3, 829560, Note_on_c, 0, 45, 0
3, 829680, Note_on_c, 0, 50, 88
3, 829680, Note_on_c, 0, 54, 88
3, 829680, Note_on_c, 0, 57, 88
3, 829800, Note_on_c, 0, 57, 0
3, 829800, Note_on_c, 0, 54, 0
3, 829800, Note_on_c, 0, 50, 0
3, 829920, Note_on_c, 0, 54, 88
3, 829920, Note_on_c, 0, 57, 88
3, 829920, Note_on_c, 0, 60, 88
3, 830040, Note_on_c, 0, 60, 0
3, 830040, Note_on_c, 0, 57, 0
3, 830040, Note_on_c, 0, 54, 0
3, 830160, Note_on_c, 0, 57, 88
3, 830160, Note_on_c, 0, 60, 88
3, 830160, Note_on_c, 0, 66, 88
3, 830280, Note_on_c, 0, 66, 0
3, 830280, Note_on_c, 0, 60, 0
3, 830280, Note_on_c, 0, 57, 0
3, 830880, Note_on_c, 0, 38, 88
3, 830880, Note_on_c, 0, 43, 88
3, 830880, Note_on_c, 0, 46, 88
3, 830880, Note_on_c, 0, 50, 88
3, 831000, Note_on_c, 0, 50, 0
3, 831000, Note_on_c, 0, 38, 0
3, 831000, Note_on_c, 0, 43, 0
3, 831000, Note_on_c, 0, 46, 0
3, 831120, Note_on_c, 0, 50, 88
3, 831120, Note_on_c, 0, 55, 88
3, 831120, Note_on_c, 0, 58, 88
3, 831240, Note_on_c, 0, 58, 0
3, 831240, Note_on_c, 0, 55, 0
3, 831240, Note_on_c, 0, 50, 0
3, 831360, Note_on_c, 0, 55, 88
3, 831360, Note_on_c, 0, 58, 88
3, 831360, Note_on_c, 0, 61, 88
3, 831480, Note_on_c, 0, 61, 0
3, 831480, Note_on_c, 0, 58, 0
3, 831480, Note_on_c, 0, 55, 0
3, 832320, Note_on_c, 0, 38, 88
3, 832320, Note_on_c, 0, 44, 88
3, 832320, Note_on_c, 0, 47, 88
3, 832320, Note_on_c, 0, 50, 88
3, 832440, Note_on_c, 0, 50, 0
3, 832440, Note_on_c, 0, 38, 0
3, 832440, Note_on_c, 0, 44, 0
3, 832440, Note_on_c, 0, 47, 0
3, 832560, Note_on_c, 0, 50, 88
3, 832560, Note_on_c, 0, 56, 88
3, 832560, Note_on_c, 0, 59, 88
3, 832680, Note_on_c, 0, 59, 0
3, 832680, Note_on_c, 0, 56, 0
3, 832680, Note_on_c, 0, 50, 0
3, 832800, Note_on_c, 0, 56, 88
3, 832800, Note_on_c, 0, 59, 88
3, 832800, Note_on_c, 0, 65, 88
3, 832920, Note_on_c, 0, 65, 0
3, 832920, Note_on_c, 0, 59, 0
3, 832920, Note_on_c, 0, 56, 0
3, 833760, Note_on_c, 0, 38, 88
3, 833760, Note_on_c, 0, 45, 88
3, 833760, Note_on_c, 0, 48, 88
3, 833760, Note_on_c, 0, 50, 88
3, 833880, Note_on_c, 0, 50, 0
3, 833880, Note_on_c, 0, 38, 0
3, 833880, Note_on_c, 0, 45, 0
3, 833880, Note_on_c, 0, 48, 0
3, 834000, Note_on_c, 0, 50, 88
3, 834000, Note_on_c, 0, 57, 88
3, 834000, Note_on_c, 0, 60, 88
3, 834120, Note_on_c, 0, 60, 0
3, 834120, Note_on_c, 0, 57, 0
3, 834120, Note_on_c, 0, 50, 0
3, 834240, Note_on_c, 0, 57, 88
3, 834240, Note_on_c, 0, 60, 88
3, 834240, Note_on_c, 0, 66, 88
3, 834360, Note_on_c, 0, 66, 0
3, 834360, Note_on_c, 0, 60, 0
3, 834360, Note_on_c, 0, 57, 0
3, 842880, Note_on_c, 0, 54, 88
3, 842880, Note_on_c, 0, 57, 88
3, 842880, Note_on_c, 0, 61, 88
3, 843000, Note_on_c, 0, 61, 0
3, 843000, Note_on_c, 0, 57, 0
3, 843000, Note_on_c, 0, 54, 0
3, 843120, Note_on_c, 0, 57, 88
3, 843120, Note_on_c, 0, 62, 88
3, 843120, Note_on_c, 0, 65, 88
3, 843240, Note_on_c, 0, 65, 0
3, 843240, Note_on_c, 0, 62, 0
3, 843240, Note_on_c, 0, 57, 0
3, 843360, Note_on_c, 0, 54, 88
3, 843360, Note_on_c, 0, 57, 88
3, 843360, Note_on_c, 0, 61, 88
3, 843480, Note_on_c, 0, 61, 0
3, 843480, Note_on_c, 0, 57, 0
3, 843480, Note_on_c, 0, 54, 0
3, 843600, Note_on_c, 0, 50, 88
3, 843600, Note_on_c, 0, 54, 88
3, 843600, Note_on_c, 0, 56, 88
3, 843720, Note_on_c, 0, 56, 0
3, 843720, Note_on_c, 0, 54, 0
3, 843720, Note_on_c, 0, 50, 0
3, 843840, Note_on_c, 0, 57, 88
3, 843840, Note_on_c, 0, 60, 88
3, 843840, Note_on_c, 0, 67, 88
3, 843960, Note_on_c, 0, 67, 0
3, 843960, Note_on_c, 0, 60, 0
3, 843960, Note_on_c, 0, 57, 0
3, 844080, Note_on_c, 0, 51, 114
3, 844200, Note_on_c, 0, 51, 0
3, 844800, Note_on_c, 0, 54, 88
3, 844800, Note_on_c, 0, 57, 88
3, 844800, Note_on_c, 0, 61, 88
3, 844920, Note_on_c, 0, 61, 0
3, 844920, Note_on_c, 0, 57, 0
3, 844920, Note_on_c, 0, 54, 0
3, 845040, Note_on_c, 0, 50, 88
3, 845040, Note_on_c, 0, 54, 88
3, 845040, Note_on_c, 0, 56, 88
3, 845160, Note_on_c, 0, 56, 0
3, 845160, Note_on_c, 0, 54, 0
3, 845160, Note_on_c, 0, 50, 0
3, 845280, Note_on_c, 0, 45, 88
3, 845280, Note_on_c, 0, 48, 88
3, 845280, Note_on_c, 0, 55, 88
3, 845400, Note_on_c, 0, 55, 0
3, 845400, Note_on_c, 0, 48, 0
3, 845400, Note_on_c, 0, 45, 0
3, 845520, Note_on_c, 0, 39, 114
3, 845640, Note_on_c, 0, 39, 0
3, 845640, Note_on_c, 0, 45, 88
3, 845640, Note_on_c, 0, 48, 88
3, 845640, Note_on_c, 0, 55, 88
3, 845760, Note_on_c, 0, 55, 0
3, 845760, Note_on_c, 0, 48, 0
3, 845760, Note_on_c, 0, 45, 0
3, 845760, Note_on_c, 0, 45, 88
3, 845760, Note_on_c, 0, 48, 88
3, 845760, Note_on_c, 0, 55, 88
3, 845880, Note_on_c, 0, 55, 0
3, 845880, Note_on_c, 0, 48, 0
3, 845880, Note_on_c, 0, 45, 0
3, 845880, Note_on_c, 0, 57, 88
3, 845880, Note_on_c, 0, 60, 88
3, 845880, Note_on_c, 0, 67, 88
3, 846000, Note_on_c, 0, 67, 0
3, 846000, Note_on_c, 0, 60, 0
3, 846000, Note_on_c, 0, 57, 0
3, 846000, Note_on_c, 0, 45, 88
3, 846000, Note_on_c, 0, 48, 88
3, 846000, Note_on_c, 0, 54, 88
3, 846120, Note_on_c, 0, 54, 0
3, 846120, Note_on_c, 0, 48, 0
3, 846120, Note_on_c, 0, 45, 0
3, 846120, Note_on_c, 0, 57, 88
3, 846120, Note_on_c, 0, 60, 88
3, 846120, Note_on_c, 0, 66, 88
3, 846240, Note_on_c, 0, 66, 0
3, 846240, Note_on_c, 0, 60, 0
3, 846240, Note_on_c, 0, 57, 0
3, 846240, Note_on_c, 0, 42, 88
3, 846240, Note_on_c, 0, 45, 88
3, 846240, Note_on_c, 0, 49, 88
3, 846360, Note_on_c, 0, 49, 0
3, 846360, Note_on_c, 0, 45, 0
3, 846360, Note_on_c, 0, 42, 0
3, 846360, Note_on_c, 0, 50, 88
3, 846360, Note_on_c, 0, 54, 88
3, 846360, Note_on_c, 0, 57, 88
3, 846360, Note_on_c, 0, 62, 88
3, 846480, Note_on_c, 0, 62, 0
3, 846480, Note_on_c, 0, 50, 0
3, 846480, Note_on_c, 0, 54, 0
3, 846480, Note_on_c, 0, 57, 0
3, 846480, Note_on_c, 0, 38, 88
3, 846480, Note_on_c, 0, 42, 88
3, 846480, Note_on_c, 0, 44, 88
3, 846600, Note_on_c, 0, 44, 0
3, 846600, Note_on_c, 0, 42, 0
3, 846600, Note_on_c, 0, 38, 0
3, 846600, Note_on_c, 0, 45, 88
3, 846600, Note_on_c, 0, 50, 88
3, 846600, Note_on_c, 0, 54, 88
3, 846600, Note_on_c, 0, 57, 88
3, 846720, Note_on_c, 0, 57, 0
3, 846720, Note_on_c, 0, 45, 0
3, 846720, Note_on_c, 0, 50, 0
3, 846720, Note_on_c, 0, 54, 0
3, 846720, Note_on_c, 0, 38, 88
3, 846720, Note_on_c, 0, 42, 88
3, 846720, Note_on_c, 0, 44, 88
3, 846840, Note_on_c, 0, 44, 0
3, 846840, Note_on_c, 0, 42, 0
3, 846840, Note_on_c, 0, 38, 0
3, 846840, Note_on_c, 0, 45, 88
3, 846840, Note_on_c, 0, 50, 88
3, 846840, Note_on_c, 0, 54, 88
3, 846960, Note_on_c, 0, 54, 0
3, 846960, Note_on_c, 0, 50, 0
3, 846960, Note_on_c, 0, 45, 0
3, 846960, Note_on_c, 0, 38, 88
3, 846960, Note_on_c, 0, 42, 88
3, 846960, Note_on_c, 0, 44, 88
3, 847080, Note_on_c, 0, 44, 0
3, 847080, Note_on_c, 0, 42, 0
3, 847080, Note_on_c, 0, 38, 0
3, 847080, Note_on_c, 0, 45, 88
3, 847080, Note_on_c, 0, 50, 88
3, 847080, Note_on_c, 0, 54, 88
3, 847200, Note_on_c, 0, 54, 0
3, 847200, Note_on_c, 0, 50, 0
3, 847200, Note_on_c, 0, 45, 0
3, 847200, Note_on_c, 0, 33, 88
3, 847200, Note_on_c, 0, 38, 88
3, 847200, Note_on_c, 0, 41, 88
3, 847320, Note_on_c, 0, 41, 0
3, 847320, Note_on_c, 0, 38, 0
3, 847320, Note_on_c, 0, 33, 0
3, 847320, Note_on_c, 0, 42, 88
3, 847320, Note_on_c, 0, 45, 88
3, 847320, Note_on_c, 0, 50, 88
3, 847440, Note_on_c, 0, 50, 0
3, 847440, Note_on_c, 0, 45, 0
3, 847440, Note_on_c, 0, 42, 0
3, 847440, Note_on_c, 0, 33, 88
3, 847440, Note_on_c, 0, 38, 88
3, 847440, Note_on_c, 0, 41, 88
3, 847560, Note_on_c, 0, 41, 0
3, 847560, Note_on_c, 0, 38, 0
3, 847560, Note_on_c, 0, 33, 0
3, 847560, Note_on_c, 0, 42, 88
3, 847560, Note_on_c, 0, 45, 88
3, 847560, Note_on_c, 0, 50, 88
3, 847680, Note_on_c, 0, 50, 0
3, 847680, Note_on_c, 0, 45, 0
3, 847680, Note_on_c, 0, 42, 0
3, 847680, Note_on_c, 0, 30, 88
3, 847680, Note_on_c, 0, 33, 88
3, 847680, Note_on_c, 0, 37, 88
3, 847800, Note_on_c, 0, 37, 0
3, 847800, Note_on_c, 0, 33, 0
3, 847800, Note_on_c, 0, 30, 0
3, 847800, Note_on_c, 0, 38, 88
3, 847800, Note_on_c, 0, 42, 88
3, 847800, Note_on_c, 0, 45, 88
3, 847920, Note_on_c, 0, 45, 0
3, 847920, Note_on_c, 0, 42, 0
3, 847920, Note_on_c, 0, 38, 0
3, 847920, Note_on_c, 0, 30, 88
3, 847920, Note_on_c, 0, 33, 88
3, 847920, Note_on_c, 0, 37, 88
3, 848040, Note_on_c, 0, 37, 0
3, 848040, Note_on_c, 0, 33, 0
3, 848040, Note_on_c, 0, 30, 0
3, 848040, Note_on_c, 0, 38, 88
3, 848040, Note_on_c, 0, 42, 88
3, 848040, Note_on_c, 0, 45, 88
3, 848160, Note_on_c, 0, 45, 0
3, 848160, Note_on_c, 0, 42, 0
3, 848160, Note_on_c, 0, 38, 0
3, 848160, Note_on_c, 0, 26, 88
3, 848160, Note_on_c, 0, 30, 88
3, 848160, Note_on_c, 0, 32, 88
3, 848280, Note_on_c, 0, 32, 0
3, 848280, Note_on_c, 0, 30, 0
3, 848280, Note_on_c, 0, 26, 0
3, 848280, Note_on_c, 0, 33, 88
3, 848280, Note_on_c, 0, 38, 88
3, 848280, Note_on_c, 0, 42, 88
3, 848400, Note_on_c, 0, 42, 0
3, 848400, Note_on_c, 0, 38, 0
3, 848400, Note_on_c, 0, 33, 0
3, 848400, Note_on_c, 0, 26, 88
3, 848400, Note_on_c, 0, 30, 88
3, 848400, Note_on_c, 0, 32, 88
3, 848520, Note_on_c, 0, 32, 0
3, 848520, Note_on_c, 0, 30, 0
3, 848520, Note_on_c, 0, 26, 0
3, 848520, Note_on_c, 0, 33, 88
3, 848520, Note_on_c, 0, 38, 88
3, 848520, Note_on_c, 0, 42, 88
3, 848640, Note_on_c, 0, 42, 0
3, 848640, Note_on_c, 0, 38, 0
3, 848640, Note_on_c, 0, 33, 0
3, 848640, Note_on_c, 0, 30, 88
3, 848640, Note_on_c, 0, 33, 88
3, 848640, Note_on_c, 0, 37, 88
3, 848760, Note_on_c, 0, 37, 0
3, 848760, Note_on_c, 0, 33, 0
3, 848760, Note_on_c, 0, 30, 0
3, 848760, Note_on_c, 0, 38, 88
3, 848760, Note_on_c, 0, 42, 88
3, 848760, Note_on_c, 0, 45, 88
3, 848880, Note_on_c, 0, 45, 0
3, 848880, Note_on_c, 0, 42, 0
3, 848880, Note_on_c, 0, 38, 0
3, 848880, Note_on_c, 0, 30, 88
3, 848880, Note_on_c, 0, 33, 88
3, 848880, Note_on_c, 0, 37, 88
3, 849000, Note_on_c, 0, 37, 0
3, 849000, Note_on_c, 0, 33, 0
3, 849000, Note_on_c, 0, 30, 0
3, 849000, Note_on_c, 0, 38, 88
3, 849000, Note_on_c, 0, 42, 88
3, 849000, Note_on_c, 0, 45, 88
3, 849120, Note_on_c, 0, 45, 0
3, 849120, Note_on_c, 0, 42, 0
3, 849120, Note_on_c, 0, 38, 0
3, 849120, Note_on_c, 0, 33, 88
3, 849120, Note_on_c, 0, 38, 88
3, 849120, Note_on_c, 0, 41, 88
3, 849240, Note_on_c, 0, 41, 0
3, 849240, Note_on_c, 0, 38, 0
3, 849240, Note_on_c, 0, 33, 0
3, 849240, Note_on_c, 0, 42, 88
3, 849240, Note_on_c, 0, 45, 88
3, 849240, Note_on_c, 0, 50, 88
3, 849360, Note_on_c, 0, 50, 0
3, 849360, Note_on_c, 0, 45, 0
3, 849360, Note_on_c, 0, 42, 0
3, 849360, Note_on_c, 0, 33, 88
3, 849360, Note_on_c, 0, 38, 88
3, 849360, Note_on_c, 0, 41, 88
3, 849480, Note_on_c, 0, 41, 0
3, 849480, Note_on_c, 0, 38, 0
3, 849480, Note_on_c, 0, 33, 0
3, 849480, Note_on_c, 0, 42, 88
3, 849480, Note_on_c, 0, 45, 88
3, 849480, Note_on_c, 0, 50, 88
3, 849600, Note_on_c, 0, 50, 0
3, 849600, Note_on_c, 0, 45, 0
3, 849600, Note_on_c, 0, 42, 0
3, 849600, Note_on_c, 0, 38, 88
3, 849600, Note_on_c, 0, 42, 88
3, 849600, Note_on_c, 0, 44, 88
3, 849720, Note_on_c, 0, 44, 0
3, 849720, Note_on_c, 0, 42, 0
3, 849720, Note_on_c, 0, 38, 0
3, 849720, Note_on_c, 0, 45, 88
3, 849720, Note_on_c, 0, 50, 88
3, 849720, Note_on_c, 0, 54, 88
3, 849840, Note_on_c, 0, 54, 0
3, 849840, Note_on_c, 0, 50, 0
3, 849840, Note_on_c, 0, 45, 0
3, 849840, Note_on_c, 0, 42, 88
3, 849840, Note_on_c, 0, 45, 88
3, 849840, Note_on_c, 0, 49, 88
3, 849960, Note_on_c, 0, 49, 0
3, 849960, Note_on_c, 0, 45, 0
3, 849960, Note_on_c, 0, 42, 0
3, 849960, Note_on_c, 0, 50, 88
3, 849960, Note_on_c, 0, 54, 88
3, 849960, Note_on_c, 0, 57, 88
3, 850080, Note_on_c, 0, 57, 0
3, 850080, Note_on_c, 0, 54, 0
3, 850080, Note_on_c, 0, 50, 0
3, 850080, Note_on_c, 0, 45, 88
3, 850080, Note_on_c, 0, 50, 88
3, 850080, Note_on_c, 0, 53, 88
3, 850200, Note_on_c, 0, 53, 0
3, 850200, Note_on_c, 0, 50, 0
3, 850200, Note_on_c, 0, 45, 0
3, 850200, Note_on_c, 0, 54, 88
3, 850200, Note_on_c, 0, 57, 88
3, 850200, Note_on_c, 0, 62, 88
3, 850320, Note_on_c, 0, 62, 0
3, 850320, Note_on_c, 0, 57, 0
3, 850320, Note_on_c, 0, 54, 0
3, 850320, Note_on_c, 0, 45, 88
3, 850320, Note_on_c, 0, 50, 88
3, 850320, Note_on_c, 0, 53, 88
3, 850440, Note_on_c, 0, 53, 0
3, 850440, Note_on_c, 0, 50, 0
3, 850440, Note_on_c, 0, 45, 0
3, 850440, Note_on_c, 0, 54, 88
3, 850440, Note_on_c, 0, 57, 88
3, 850440, Note_on_c, 0, 62, 88
3, 850560, Note_on_c, 0, 62, 0
3, 850560, Note_on_c, 0, 57, 0
3, 850560, Note_on_c, 0, 54, 0
3, 850560, Note_on_c, 0, 42, 88
3, 850560, Note_on_c, 0, 45, 88
3, 850560, Note_on_c, 0, 49, 88
3, 850680, Note_on_c, 0, 49, 0
3, 850680, Note_on_c, 0, 45, 0
3, 850680, Note_on_c, 0, 42, 0
3, 850680, Note_on_c, 0, 50, 88
3, 850680, Note_on_c, 0, 54, 88
3, 850680, Note_on_c, 0, 57, 88
3, 850800, Note_on_c, 0, 57, 0
3, 850800, Note_on_c, 0, 54, 0
3, 850800, Note_on_c, 0, 50, 0
3, 850800, Note_on_c, 0, 45, 88
3, 850800, Note_on_c, 0, 50, 88
3, 850800, Note_on_c, 0, 53, 88
3, 850920, Note_on_c, 0, 53, 0
3, 850920, Note_on_c, 0, 50, 0
3, 850920, Note_on_c, 0, 45, 0
3, 850920, Note_on_c, 0, 54, 88
3, 850920, Note_on_c, 0, 57, 88
3, 850920, Note_on_c, 0, 62, 88
3, 851040, Note_on_c, 0, 62, 0
3, 851040, Note_on_c, 0, 57, 0
3, 851040, Note_on_c, 0, 54, 0
3, 851040, Note_on_c, 0, 50, 88
3, 851040, Note_on_c, 0, 54, 88
3, 851040, Note_on_c, 0, 56, 88
3, 851160, Note_on_c, 0, 56, 0
3, 851160, Note_on_c, 0, 54, 0
3, 851160, Note_on_c, 0, 50, 0
3, 851160, Note_on_c, 0, 57, 88
3, 851160, Note_on_c, 0, 62, 88
3, 851160, Note_on_c, 0, 66, 88
3, 851280, Note_on_c, 0, 66, 0
3, 851280, Note_on_c, 0, 62, 0
3, 851280, Note_on_c, 0, 57, 0
3, 851280, Note_on_c, 0, 45, 88
3, 851280, Note_on_c, 0, 50, 88
3, 851280, Note_on_c, 0, 53, 88
3, 851400, Note_on_c, 0, 53, 0
3, 851400, Note_on_c, 0, 50, 0
3, 851400, Note_on_c, 0, 45, 0
3, 851400, Note_on_c, 0, 54, 88
3, 851400, Note_on_c, 0, 57, 88
3, 851400, Note_on_c, 0, 62, 88
3, 851520, Note_on_c, 0, 62, 0
3, 851520, Note_on_c, 0, 57, 0
3, 851520, Note_on_c, 0, 54, 0
3, 851520, Note_on_c, 0, 50, 88
3, 851520, Note_on_c, 0, 54, 88
3, 851520, Note_on_c, 0, 56, 88
3, 851640, Note_on_c, 0, 56, 0
3, 851640, Note_on_c, 0, 54, 0
3, 851640, Note_on_c, 0, 50, 0
3, 851640, Note_on_c, 0, 57, 88
3, 851640, Note_on_c, 0, 62, 88
3, 851640, Note_on_c, 0, 66, 88
3, 851760, Note_on_c, 0, 66, 0
3, 851760, Note_on_c, 0, 62, 0
3, 851760, Note_on_c, 0, 57, 0
3, 851760, Note_on_c, 0, 54, 88
3, 851760, Note_on_c, 0, 57, 88
3, 851760, Note_on_c, 0, 61, 88
3, 851880, Note_on_c, 0, 61, 0
3, 851880, Note_on_c, 0, 57, 0
3, 851880, Note_on_c, 0, 54, 0
3, 852000, Note_on_c, 0, 50, 88
3, 852000, Note_on_c, 0, 54, 88
3, 852000, Note_on_c, 0, 56, 88
3, 852120, Note_on_c, 0, 56, 0
3, 852120, Note_on_c, 0, 54, 0
3, 852120, Note_on_c, 0, 50, 0
3, 852240, Note_on_c, 0, 54, 88
3, 852240, Note_on_c, 0, 57, 88
3, 852240, Note_on_c, 0, 61, 88
3, 852360, Note_on_c, 0, 61, 0
3, 852360, Note_on_c, 0, 57, 0
3, 852360, Note_on_c, 0, 54, 0
3, 852480, Note_on_c, 0, 50, 88
3, 852480, Note_on_c, 0, 54, 88
3, 852480, Note_on_c, 0, 56, 88
3, 852600, Note_on_c, 0, 56, 0
3, 852600, Note_on_c, 0, 54, 0
3, 852600, Note_on_c, 0, 50, 0
3, 852720, Note_on_c, 0, 54, 88
3, 852720, Note_on_c, 0, 57, 88
3, 852720, Note_on_c, 0, 61, 88
3, 852840, Note_on_c, 0, 61, 0
3, 852840, Note_on_c, 0, 57, 0
3, 852840, Note_on_c, 0, 54, 0
3, 864480, Control_c, 0, 64, 127
3, 864480, Note_on_c, 0, 38, 88
3, 864548, Note_on_c, 0, 38, 0
3, 864548, Note_on_c, 0, 40, 88
3, 864617, Note_on_c, 0, 40, 0
3, 864617, Note_on_c, 0, 42, 88
3, 864685, Note_on_c, 0, 42, 0
3, 864685, Note_on_c, 0, 43, 88
3, 864754, Note_on_c, 0, 43, 0
3, 864754, Note_on_c, 0, 45, 88
3, 864822, Note_on_c, 0, 45, 0
3, 864822, Note_on_c, 0, 47, 88
3, 864891, Note_on_c, 0, 47, 0
3, 864891, Note_on_c, 0, 49, 88
3, 864960, Note_on_c, 0, 49, 0
3, 864960, Control_c, 0, 64, 0
3, 864960, Note_on_c, 0, 50, 88
3, 865350, Note_on_c, 0, 50, 88
3, 865380, Note_on_c, 0, 54, 88
3, 865410, Note_on_c, 0, 57, 88
3, 865440, Note_on_c, 0, 50, 0
3, 865440, Note_on_c, 0, 62, 88
3, 865830, Note_on_c, 0, 50, 88
3, 865860, Note_on_c, 0, 55, 88
3, 865890, Note_on_c, 0, 58, 88
3, 865920, Note_on_c, 0, 62, 0
3, 865920, Note_on_c, 0, 50, 0
3, 865920, Note_on_c, 0, 57, 0
3, 865920, Note_on_c, 0, 54, 0
3, 865920, Note_on_c, 0, 63, 88
3, 866400, Note_on_c, 0, 63, 0
3, 866400, Note_on_c, 0, 55, 0
3, 866400, Note_on_c, 0, 50, 0
3, 866400, Note_on_c, 0, 58, 0
3, 866400, Control_c, 0, 64, 127
3, 866400, Note_on_c, 0, 38, 88
3, 866468, Note_on_c, 0, 38, 0
3, 866468, Note_on_c, 0, 40, 88
3, 866537, Note_on_c, 0, 40, 0
3, 866537, Note_on_c, 0, 42, 88
3, 866605, Note_on_c, 0, 42, 0
3, 866605, Note_on_c, 0, 43, 88
3, 866674, Note_on_c, 0, 43, 0
3, 866674, Note_on_c, 0, 45, 88
3, 866742, Note_on_c, 0, 45, 0
3, 866742, Note_on_c, 0, 47, 88
3, 866811, Note_on_c, 0, 47, 0
3, 866811, Note_on_c, 0, 49, 88
3, 866880, Note_on_c, 0, 49, 0
3, 866880, Control_c, 0, 64, 0
3, 866880, Note_on_c, 0, 50, 88
3, 867270, Note_on_c, 0, 50, 88
3, 867300, Note_on_c, 0, 55, 88
3, 867330, Note_on_c, 0, 58, 88
3, 867360, Note_on_c, 0, 50, 0
3, 867360, Note_on_c, 0, 63, 88
3, 867750, Note_on_c, 0, 50, 88
3, 867780, Note_on_c, 0, 56, 88
3, 867810, Note_on_c, 0, 59, 88
3, 867840, Note_on_c, 0, 63, 0
3, 867840, Note_on_c, 0, 50, 0
3, 867840, Note_on_c, 0, 58, 0
3, 867840, Note_on_c, 0, 55, 0
3, 867840, Note_on_c, 0, 64, 88
3, 868320, Note_on_c, 0, 64, 0
3, 868320, Note_on_c, 0, 56, 0
3, 868320, Note_on_c, 0, 50, 0
3, 868320, Note_on_c, 0, 59, 0
3, 868320, Control_c, 0, 64, 127
3, 868320, Note_on_c, 0, 38, 88
3, 868388, Note_on_c, 0, 38, 0
3, 868388, Note_on_c, 0, 40, 88
3, 868457, Note_on_c, 0, 40, 0
3, 868457, Note_on_c, 0, 42, 88
3, 868525, Note_on_c, 0, 42, 0
3, 868525, Note_on_c, 0, 43, 88
3, 868594, Note_on_c, 0, 43, 0
3, 868594, Note_on_c, 0, 45, 88
3, 868662, Note_on_c, 0, 45, 0
3, 868662, Note_on_c, 0, 47, 88
3, 868731, Note_on_c, 0, 47, 0
3, 868731, Note_on_c, 0, 49, 88
3, 868800, Note_on_c, 0, 49, 0
3, 868800, Control_c, 0, 64, 0
3, 868800, Note_on_c, 0, 50, 88
3, 869190, Note_on_c, 0, 50, 88
3, 869220, Note_on_c, 0, 56, 88
3, 869250, Note_on_c, 0, 59, 88
3, 869280, Note_on_c, 0, 50, 0
3, 869280, Note_on_c, 0, 64, 88
3, 869670, Note_on_c, 0, 50, 88
3, 869700, Note_on_c, 0, 57, 88
3, 869730, Note_on_c, 0, 60, 88
3, 869760, Note_on_c, 0, 64, 0
3, 869760, Note_on_c, 0, 50, 0
3, 869760, Note_on_c, 0, 59, 0
3, 869760, Note_on_c, 0, 56, 0
3, 869760, Control_c, 0, 64, 127
3, 869760, Note_on_c, 0, 65, 88
3, 870000, Note_on_c, 0, 65, 0
3, 870000, Note_on_c, 0, 57, 0
3, 870000, Note_on_c, 0, 50, 0
3, 870000, Note_on_c, 0, 60, 0
3, 870000, Note_on_c, 0, 56, 88
3, 870000, Note_on_c, 0, 59, 88
3, 870000, Note_on_c, 0, 64, 88
3, 870240, Note_on_c, 0, 64, 0
3, 870240, Note_on_c, 0, 59, 0
3, 870240, Note_on_c, 0, 56, 0
3, 870240, Note_on_c, 0, 57, 88
3, 870240, Note_on_c, 0, 60, 88
3, 870240, Note_on_c, 0, 65, 88
3, 870720, Note_on_c, 0, 65, 0
3, 870720, Note_on_c, 0, 60, 0
3, 870720, Note_on_c, 0, 57, 0
3, 870720, Note_on_c, 0, 38, 114
3, 870720, Note_on_c, 0, 50, 114
3, 871200, Note_on_c, 0, 50, 0
3, 871200, Note_on_c, 0, 38, 0
3, 871200, Control_c, 0, 64, 0
3, 871200, Note_on_c, 0, 58, 114
3, 871200, Note_on_c, 0, 61, 114
3, 871200, Note_on_c, 0, 66, 114
3, 871590, Note_on_c, 0, 50, 88
3, 871620, Note_on_c, 0, 59, 88
3, 871650, Note_on_c, 0, 62, 88
3, 871680, Note_on_c, 0, 66, 0
3, 871680, Note_on_c, 0, 58, 0
3, 871680, Note_on_c, 0, 61, 0
3, 871680, Note_on_c, 0, 67, 88
3, 872160, Note_on_c, 0, 67, 0
3, 872160, Note_on_c, 0, 62, 0
3, 872160, Note_on_c, 0, 59, 0
3, 872160, Note_on_c, 0, 50, 0
3, 872160, Control_c, 0, 64, 127
3, 872160, Note_on_c, 0, 38, 88
3, 872228, Note_on_c, 0, 38, 0
3, 872228, Note_on_c, 0, 40, 88
3, 872297, Note_on_c, 0, 40, 0
3, 872297, Note_on_c, 0, 42, 88
3, 872365, Note_on_c, 0, 42, 0
3, 872365, Note_on_c, 0, 43, 88
3, 872434, Note_on_c, 0, 43, 0
3, 872434, Note_on_c, 0, 45, 88
3, 872502, Note_on_c, 0, 45, 0
3, 872502, Note_on_c, 0, 47, 88
3, 872571, Note_on_c, 0, 47, 0
3, 872571, Note_on_c, 0, 49, 88
3, 872640, Note_on_c, 0, 49, 0
3, 872640, Control_c, 0, 64, 0
3, 872640, Note_on_c, 0, 50, 88
3, 873040, Note_on_c, 0, 60, 88
3, 873080, Note_on_c, 0, 63, 88
3, 873120, Note_on_c, 0, 50, 0
3, 873120, Note_on_c, 0, 68, 88
3, 873600, Note_on_c, 0, 68, 0
3, 873600, Note_on_c, 0, 63, 0
3, 873600, Note_on_c, 0, 60, 0
3, 873600, Note_on_c, 0, 61, 114
3, 873600, Note_on_c, 0, 64, 114
3, 873600, Note_on_c, 0, 69, 114
3, 874080, Note_on_c, 0, 69, 0
3, 874080, Note_on_c, 0, 64, 0
3, 874080, Note_on_c, 0, 61, 0
3, 874080, Control_c, 0, 64, 127
3, 874080, Note_on_c, 0, 38, 88
3, 874148, Note_on_c, 0, 38, 0
3, 874148, Note_on_c, 0, 40, 88
3, 874217, Note_on_c, 0, 40, 0
3, 874217, Note_on_c, 0, 42, 88
3, 874285, Note_on_c, 0, 42, 0
3, 874285, Note_on_c, 0, 43, 88
3, 874354, Note_on_c, 0, 43, 0
3, 874354, Note_on_c, 0, 45, 88
3, 874422, Note_on_c, 0, 45, 0
3, 874422, Note_on_c, 0, 47, 88
3, 874491, Note_on_c, 0, 47, 0
3, 874491, Note_on_c, 0, 49, 88
3, 874560, Note_on_c, 0, 49, 0
3, 874560, Control_c, 0, 64, 0
3, 874560, Note_on_c, 0, 50, 88
3, 875040, Note_on_c, 0, 50, 0
3, 875040, Note_on_c, 0, 61, 114
3, 875040, Note_on_c, 0, 64, 114
3, 875040, Note_on_c, 0, 69, 114
3, 875520, Note_on_c, 0, 69, 0
3, 875520, Note_on_c, 0, 64, 0
3, 875520, Note_on_c, 0, 61, 0
3, 875520, Note_on_c, 0, 62, 114
3, 875520, Note_on_c, 0, 65, 114
3, 875520, Note_on_c, 0, 70, 114
3, 876000, Note_on_c, 0, 70, 0
3, 876000, Note_on_c, 0, 65, 0
3, 876000, Note_on_c, 0, 62, 0
3, 876000, Control_c, 0, 64, 127
3, 876000, Note_on_c, 0, 38, 88
3, 876068, Note_on_c, 0, 38, 0
3, 876068, Note_on_c, 0, 40, 88
3, 876137, Note_on_c, 0, 40, 0
3, 876137, Note_on_c, 0, 42, 88
3, 876205, Note_on_c, 0, 42, 0
3, 876205, Note_on_c, 0, 43, 88
3, 876274, Note_on_c, 0, 43, 0
3, 876274, Note_on_c, 0, 45, 88
3, 876342, Note_on_c, 0, 45, 0
3, 876342, Note_on_c, 0, 47, 88
3, 876411, Note_on_c, 0, 47, 0
3, 876411, Note_on_c, 0, 49, 88
3, 876480, Note_on_c, 0, 49, 0
3, 876480, Control_c, 0, 64, 0
3, 876480, Note_on_c, 0, 50, 88
3, 876960, Note_on_c, 0, 50, 0
3, 876960, Note_on_c, 0, 63, 114
3, 876960, Note_on_c, 0, 66, 114
3, 876960, Note_on_c, 0, 71, 114
3, 877440, Note_on_c, 0, 71, 0
3, 877440, Note_on_c, 0, 66, 0
3, 877440, Note_on_c, 0, 63, 0
3, 877440, Note_on_c, 0, 64, 114
3, 877440, Note_on_c, 0, 67, 114
3, 877440, Note_on_c, 0, 72, 114
3, 877680, Note_on_c, 0, 72, 0
3, 877680, Note_on_c, 0, 67, 0
3, 877680, Note_on_c, 0, 64, 0
3, 877680, Note_on_c, 0, 63, 114
3, 877680, Note_on_c, 0, 66, 114
3, 877680, Note_on_c, 0, 71, 114
3, 877920, Note_on_c, 0, 71, 0
3, 877920, Note_on_c, 0, 66, 0
3, 877920, Note_on_c, 0, 63, 0
3, 877920, Note_on_c, 0, 64, 114
3, 877920, Note_on_c, 0, 67, 114
3, 877920, Note_on_c, 0, 72, 114
3, 878400, Note_on_c, 0, 72, 0
3, 878400, Note_on_c, 0, 67, 0
3, 878400, Note_on_c, 0, 64, 0
3, 878400, Note_on_c, 0, 38, 114
3, 878400, Note_on_c, 0, 50, 114
3, 878880, Note_on_c, 0, 50, 0
3, 878880, Note_on_c, 0, 38, 0
3, 878880, Note_on_c, 0, 64, 114
3, 878880, Note_on_c, 0, 67, 114
3, 878880, Note_on_c, 0, 73, 114
3, 879360, Note_on_c, 0, 73, 0
3, 879360, Note_on_c, 0, 67, 0
3, 879360, Note_on_c, 0, 64, 0
3, 879360, Note_on_c, 0, 66, 114
3, 879360, Note_on_c, 0, 69, 114
3, 879360, Note_on_c, 0, 74, 114
3, 879840, Note_on_c, 0, 74, 0
3, 879840, Note_on_c, 0, 69, 0
3, 879840, Note_on_c, 0, 66, 0
3, 879840, Note_on_c, 0, 38, 114
3, 879999, Note_on_c, 0, 38, 0
3, 879999, Note_on_c, 0, 40, 114
3, 880160, Note_on_c, 0, 40, 0
3, 880160, Note_on_c, 0, 42, 114
3, 880320, Note_on_c, 0, 42, 0
3, 880320, Note_on_c, 0, 43, 114
3, 880440, Note_on_c, 0, 43, 0
3, 880440, Note_on_c, 0, 45, 114
3, 880560, Note_on_c, 0, 45, 0
3, 880560, Note_on_c, 0, 47, 114
3, 880680, Note_on_c, 0, 47, 0
3, 880680, Note_on_c, 0, 49, 114
3, 880800, Note_on_c, 0, 49, 0
3, 880800, Note_on_c, 0, 50, 114
3, 880959, Note_on_c, 0, 50, 0
3, 880959, Note_on_c, 0, 52, 114
3, 881120, Note_on_c, 0, 52, 0
3, 881120, Note_on_c, 0, 54, 114
3, 881280, Note_on_c, 0, 54, 0
3, 881280, Note_on_c, 0, 55, 88
3, 881400, Note_on_c, 0, 55, 0
3, 881400, Note_on_c, 0, 57, 88
3, 881520, Note_on_c, 0, 57, 0
3, 881520, Note_on_c, 0, 59, 88
3, 881640, Note_on_c, 0, 59, 0
3, 881640, Note_on_c, 0, 61, 88
3, 881760, Note_on_c, 0, 61, 0
3, 881760, Control_c, 0, 64, 127
3, 881760, Note_on_c, 0, 62, 88
3, 881828, Note_on_c, 0, 62, 0
3, 881828, Note_on_c, 0, 64, 88
3, 881897, Note_on_c, 0, 64, 0
3, 881897, Note_on_c, 0, 66, 88
3, 881965, Note_on_c, 0, 66, 0
3, 881965, Note_on_c, 0, 67, 88
3, 882034, Note_on_c, 0, 67, 0
3, 882034, Note_on_c, 0, 69, 88
3, 882102, Note_on_c, 0, 69, 0
3, 882102, Note_on_c, 0, 71, 88
3, 882171, Note_on_c, 0, 71, 0
3, 882171, Note_on_c, 0, 73, 88
3, 882240, Note_on_c, 0, 73, 0
3, 882240, Control_c, 0, 64, 0
3, 882240, Note_on_c, 0, 74, 88
3, 882720, Note_on_c, 0, 74, 0
3, 882720, Note_on_c, 0, 50, 114
3, 882720, Note_on_c, 0, 54, 114
3, 882720, Note_on_c, 0, 60, 114
3, 882720, Note_on_c, 0, 62, 114
3, 883200, Note_on_c, 0, 62, 0
3, 883200, Note_on_c, 0, 50, 0
3, 883200, Note_on_c, 0, 54, 0
3, 883200, Note_on_c, 0, 60, 0
3, 883200, Note_on_c, 0, 50, 114
3, 883200, Note_on_c, 0, 54, 114
3, 883200, Note_on_c, 0, 60, 114
3, 883200, Note_on_c, 0, 62, 114
3, 883680, Note_on_c, 0, 62, 0
3, 883680, Note_on_c, 0, 50, 0
3, 883680, Note_on_c, 0, 54, 0
3, 883680, Note_on_c, 0, 60, 0
3, 883680, Note_on_c, 0, 38, 114
3, 883839, Note_on_c, 0, 38, 0
3, 883839, Note_on_c, 0, 40, 114
3, 884000, Note_on_c, 0, 40, 0
3, 884000, Note_on_c, 0, 42, 114
3, 884160, Note_on_c, 0, 42, 0
3, 884160, Note_on_c, 0, 43, 114
3, 884280, Note_on_c, 0, 43, 0
3, 884280, Note_on_c, 0, 45, 114
3, 884400, Note_on_c, 0, 45, 0
3, 884400, Note_on_c, 0, 47, 114
3, 884520, Note_on_c, 0, 47, 0
3, 884520, Note_on_c, 0, 49, 114
3, 884640, Note_on_c, 0, 49, 0
3, 884640, Note_on_c, 0, 50, 114
3, 884799, Note_on_c, 0, 50, 0
3, 884799, Note_on_c, 0, 52, 114
3, 884960, Note_on_c, 0, 52, 0
3, 884960, Note_on_c, 0, 54, 114
3, 885120, Note_on_c, 0, 54, 0
3, 885120, Note_on_c, 0, 55, 88
3, 885240, Note_on_c, 0, 55, 0
3, 885240, Note_on_c, 0, 57, 88
3, 885360, Note_on_c, 0, 57, 0
3, 885360, Note_on_c, 0, 59, 88
3, 885480, Note_on_c, 0, 59, 0
3, 885480, Note_on_c, 0, 61, 88
3, 885600, Note_on_c, 0, 61, 0
3, 885600, Control_c, 0, 64, 127
3, 885600, Note_on_c, 0, 62, 88
3, 885668, Note_on_c, 0, 62, 0
3, 885668, Note_on_c, 0, 64, 88
3, 885737, Note_on_c, 0, 64, 0
3, 885737, Note_on_c, 0, 66, 88
3, 885805, Note_on_c, 0, 66, 0
3, 885805, Note_on_c, 0, 67, 88
3, 885874, Note_on_c, 0, 67, 0
3, 885874, Note_on_c, 0, 69, 88
3, 885942, Note_on_c, 0, 69, 0
3, 885942, Note_on_c, 0, 71, 88
3, 886011, Note_on_c, 0, 71, 0
3, 886011, Note_on_c, 0, 73, 88
3, 886080, Note_on_c, 0, 73, 0
3, 886080, Control_c, 0, 64, 0
3, 886080, Note_on_c, 0, 74, 88
3, 886560, Note_on_c, 0, 74, 0
3, 886560, Note_on_c, 0, 50, 114
3, 886560, Note_on_c, 0, 54, 114
3, 886560, Note_on_c, 0, 60, 114
3, 886560, Note_on_c, 0, 62, 114
3, 887040, Note_on_c, 0, 62, 0
3, 887040, Note_on_c, 0, 50, 0
3, 887040, Note_on_c, 0, 54, 0
3, 887040, Note_on_c, 0, 60, 0
3, 887040, Note_on_c, 0, 51, 114
3, 887040, Note_on_c, 0, 54, 114
3, 887040, Note_on_c, 0, 60, 114
3, 887040, Note_on_c, 0, 63, 114
3, 887280, Note_on_c, 0, 63, 0
3, 887280, Note_on_c, 0, 51, 0
3, 887280, Note_on_c, 0, 54, 0
3, 887280, Note_on_c, 0, 60, 0
3, 887280, Note_on_c, 0, 51, 114
3, 887280, Note_on_c, 0, 54, 114
3, 887280, Note_on_c, 0, 60, 114
3, 887280, Note_on_c, 0, 63, 114
3, 887520, Note_on_c, 0, 63, 0
3, 887520, Note_on_c, 0, 51, 0
3, 887520, Note_on_c, 0, 54, 0
3, 887520, Note_on_c, 0, 60, 0
3, 887520, Note_on_c, 0, 51, 114
3, 887520, Note_on_c, 0, 54, 114
3, 887520, Note_on_c, 0, 60, 114
3, 887520, Note_on_c, 0, 63, 114
3, 888000, Note_on_c, 0, 63, 0
3, 888000, Note_on_c, 0, 51, 0
3, 888000, Note_on_c, 0, 54, 0
3, 888000, Note_on_c, 0, 60, 0
3, 888000, Note_on_c, 0, 38, 114
3, 888000, Note_on_c, 0, 50, 114
3, 888480, Note_on_c, 0, 50, 0
3, 888480, Note_on_c, 0, 38, 0
3, 888480, Note_on_c, 0, 50, 114
3, 888480, Note_on_c, 0, 54, 114
3, 888480, Note_on_c, 0, 57, 114
3, 888480, Note_on_c, 0, 62, 114
3, 888960, Note_on_c, 0, 62, 0
3, 888960, Note_on_c, 0, 50, 0
3, 888960, Note_on_c, 0, 54, 0
3, 888960, Note_on_c, 0, 57, 0
3, 888960, Note_on_c, 0, 51, 114
3, 888960, Note_on_c, 0, 54, 114
3, 888960, Note_on_c, 0, 60, 114
3, 888960, Note_on_c, 0, 63, 114
3, 889200, Note_on_c, 0, 63, 0
3, 889200, Note_on_c, 0, 51, 0
3, 889200, Note_on_c, 0, 54, 0
3, 889200, Note_on_c, 0, 60, 0
3, 889200, Note_on_c, 0, 51, 114
3, 889200, Note_on_c, 0, 54, 114
3, 889200, Note_on_c, 0, 60, 114
3, 889200, Note_on_c, 0, 63, 114
3, 889440, Note_on_c, 0, 63, 0
3, 889440, Note_on_c, 0, 51, 0
3, 889440, Note_on_c, 0, 54, 0
3, 889440, Note_on_c, 0, 60, 0
3, 889440, Note_on_c, 0, 51, 114
3, 889440, Note_on_c, 0, 54, 114
3, 889440, Note_on_c, 0, 60, 114
3, 889440, Note_on_c, 0, 63, 114
3, 889920, Note_on_c, 0, 63, 0
3, 889920, Note_on_c, 0, 51, 0
3, 889920, Note_on_c, 0, 54, 0
3, 889920, Note_on_c, 0, 60, 0
3, 889920, Note_on_c, 0, 26, 114
3, 889920, Note_on_c, 0, 38, 114
3, 889920, Note_on_c, 0, 50, 114
3, 889920, Note_on_c, 0, 62, 114
3, 890040, Note_on_c, 0, 62, 0
3, 890040, Note_on_c, 0, 26, 0
3, 890040, Note_on_c, 0, 38, 0
3, 890040, Note_on_c, 0, 50, 0
3, 890040, Note_on_c, 0, 41, 88
3, 890160, Note_on_c, 0, 41, 0
3, 890160, Note_on_c, 0, 53, 88
3, 890160, Note_on_c, 0, 65, 88
3, 890280, Note_on_c, 0, 65, 0
3, 890280, Note_on_c, 0, 53, 0
3, 890280, Note_on_c, 0, 42, 88
3, 890400, Note_on_c, 0, 42, 0
3, 890400, Note_on_c, 0, 54, 88
3, 890400, Note_on_c, 0, 66, 88
3, 890520, Note_on_c, 0, 66, 0
3, 890520, Note_on_c, 0, 54, 0
3, 890520, Note_on_c, 0, 44, 88
3, 890640, Note_on_c, 0, 44, 0
3, 890640, Note_on_c, 0, 56, 88
3, 890640, Note_on_c, 0, 68, 88
3, 890760, Note_on_c, 0, 68, 0
3, 890760, Note_on_c, 0, 56, 0
3, 890760, Note_on_c, 0, 45, 88
3, 890880, Note_on_c, 0, 45, 0
3, 894240, Note_on_c, 0, 50, 114
3, 894240, Note_on_c, 0, 54, 114
3, 894240, Note_on_c, 0, 57, 114
3, 894240, Note_on_c, 0, 62, 114
3, 894720, Note_on_c, 0, 62, 0
3, 894720, Note_on_c, 0, 50, 0
3, 894720, Note_on_c, 0, 54, 0
3, 894720, Note_on_c, 0, 57, 0
3, 894720, Note_on_c, 0, 51, 114
3, 894720, Note_on_c, 0, 54, 114
3, 894720, Note_on_c, 0, 60, 114
3, 894720, Note_on_c, 0, 63, 114
3, 894960, Note_on_c, 0, 63, 0
3, 894960, Note_on_c, 0, 51, 0
3, 894960, Note_on_c, 0, 54, 0
3, 894960, Note_on_c, 0, 60, 0
3, 894960, Note_on_c, 0, 51, 114
3, 894960, Note_on_c, 0, 54, 114
3, 894960, Note_on_c, 0, 60, 114
3, 894960, Note_on_c, 0, 63, 114
3, 895200, Note_on_c, 0, 63, 0
3, 895200, Note_on_c, 0, 51, 0
3, 895200, Note_on_c, 0, 54, 0
3, 895200, Note_on_c, 0, 60, 0
3, 895200, Note_on_c, 0, 51, 114
3, 895200, Note_on_c, 0, 54, 114
3, 895200, Note_on_c, 0, 60, 114
3, 895200, Note_on_c, 0, 63, 114
3, 895680, Note_on_c, 0, 63, 0
3, 895680, Note_on_c, 0, 51, 0
3, 895680, Note_on_c, 0, 54, 0
3, 895680, Note_on_c, 0, 60, 0
3, 895680, Note_on_c, 0, 38, 114
3, 895680, Note_on_c, 0, 50, 114
3, 896160, Note_on_c, 0, 50, 0
3, 896160, Note_on_c, 0, 38, 0
3, 896160, Note_on_c, 0, 50, 114
3, 896160, Note_on_c, 0, 54, 114
3, 896160, Note_on_c, 0, 57, 114
3, 896160, Note_on_c, 0, 62, 114
3, 896640, Note_on_c, 0, 62, 0
3, 896640, Note_on_c, 0, 50, 0
3, 896640, Note_on_c, 0, 54, 0
3, 896640, Note_on_c, 0, 57, 0
3, 896640, Note_on_c, 0, 51, 114
3, 896640, Note_on_c, 0, 54, 114
3, 896640, Note_on_c, 0, 60, 114
3, 896640, Note_on_c, 0, 63, 114
3, 896880, Note_on_c, 0, 63, 0
3, 896880, Note_on_c, 0, 51, 0
3, 896880, Note_on_c, 0, 54, 0
3, 896880, Note_on_c, 0, 60, 0
3, 896880, Note_on_c, 0, 51, 114
3, 896880, Note_on_c, 0, 54, 114
3, 896880, Note_on_c, 0, 60, 114
3, 896880, Note_on_c, 0, 63, 114
3, 897120, Note_on_c, 0, 63, 0
3, 897120, Note_on_c, 0, 51, 0
3, 897120, Note_on_c, 0, 54, 0
3, 897120, Note_on_c, 0, 60, 0
3, 897120, Note_on_c, 0, 51, 114
3, 897120, Note_on_c, 0, 54, 114
3, 897120, Note_on_c, 0, 60, 114
3, 897120, Note_on_c, 0, 63, 114
3, 897600, Note_on_c, 0, 63, 0
3, 897600, Note_on_c, 0, 51, 0
3, 897600, Note_on_c, 0, 54, 0
3, 897600, Note_on_c, 0, 60, 0
3, 897600, Note_on_c, 0, 26, 114
3, 897600, Note_on_c, 0, 38, 114
3, 897600, Note_on_c, 0, 50, 114
3, 897600, Note_on_c, 0, 62, 114
3, 897720, Note_on_c, 0, 62, 0
3, 897720, Note_on_c, 0, 26, 0
3, 897720, Note_on_c, 0, 38, 0
3, 897720, Note_on_c, 0, 50, 0
3, 897720, Note_on_c, 0, 41, 88
3, 897840, Note_on_c, 0, 41, 0
3, 897840, Note_on_c, 0, 53, 88
3, 897840, Note_on_c, 0, 65, 88
3, 897960, Note_on_c, 0, 65, 0
3, 897960, Note_on_c, 0, 53, 0
3, 897960, Note_on_c, 0, 42, 88
3, 898080, Note_on_c, 0, 42, 0
3, 898080, Note_on_c, 0, 54, 88
3, 898080, Note_on_c, 0, 66, 88
3, 898200, Note_on_c, 0, 66, 0
3, 898200, Note_on_c, 0, 54, 0
3, 898200, Note_on_c, 0, 44, 88
3, 898320, Note_on_c, 0, 44, 0
3, 898320, Note_on_c, 0, 56, 88
3, 898320, Note_on_c, 0, 68, 88
3, 898440, Note_on_c, 0, 68, 0
3, 898440, Note_on_c, 0, 56, 0
3, 898440, Note_on_c, 0, 45, 88
3, 898560, Note_on_c, 0, 45, 0
3, 916479, Note_on_c, 0, 81, 88
3, 916511, Note_on_c, 0, 81, 0
3, 916640, Note_on_c, 0, 78, 88
3, 916672, Note_on_c, 0, 78, 0
3, 916800, Note_on_c, 0, 74, 88
3, 916831, Note_on_c, 0, 74, 0
3, 916959, Note_on_c, 0, 69, 88
3, 916991, Note_on_c, 0, 69, 0
3, 917120, Note_on_c, 0, 66, 88
3, 917152, Note_on_c, 0, 66, 0
3, 917280, Note_on_c, 0, 62, 88
3, 917376, Note_on_c, 0, 62, 0
3, 978240, Note_on_c, 0, 34, 62
3, 978240, Note_on_c, 0, 46, 62
3, 978720, Note_on_c, 0, 46, 0
3, 978720, Note_on_c, 0, 34, 0
3, 980160, Control_c, 0, 64, 127
3, 980160, Note_on_c, 0, 53, 62
3, 980640, Note_on_c, 0, 53, 0
3, 980640, Note_on_c, 0, 60, 62
3, 981120, Note_on_c, 0, 60, 0
3, 981120, Note_on_c, 0, 57, 62
3, 981600, Note_on_c, 0, 57, 0
3, 981600, Note_on_c, 0, 55, 62
3, 981840, Note_on_c, 0, 55, 0
3, 981840, Control_c, 0, 64, 0
3, 981840, Note_on_c, 0, 57, 62
3, 982080, Note_on_c, 0, 57, 0
3, 982080, Note_on_c, 0, 53, 62
3, 983040, Note_on_c, 0, 53, 0
3, 983040, Control_c, 0, 64, 127
3, 983040, Note_on_c, 0, 50, 75
3, 983280, Note_on_c, 0, 50, 0
3, 983280, Note_on_c, 0, 53, 75
3, 983520, Note_on_c, 0, 53, 0
3, 983520, Note_on_c, 0, 58, 75
3, 983760, Note_on_c, 0, 58, 0
3, 983760, Control_c, 0, 64, 0
3, 983760, Note_on_c, 0, 62, 75
3, 984000, Note_on_c, 0, 62, 0
3, 984000, Note_on_c, 0, 65, 101
3, 984720, Note_on_c, 0, 65, 0
3, 984720, Note_on_c, 0, 62, 75
3, 984960, Note_on_c, 0, 62, 0
3, 984960, Note_on_c, 0, 61, 75
3, 985200, Note_on_c, 0, 61, 0
3, 985200, Note_on_c, 0, 62, 75
3, 985440, Note_on_c, 0, 62, 0
3, 985440, Note_on_c, 0, 58, 75
3, 985920, Note_on_c, 0, 58, 0
3, 985920, Note_on_c, 0, 34, 62
3, 985920, Note_on_c, 0, 46, 62
3, 986400, Note_on_c, 0, 46, 0
3, 986400, Note_on_c, 0, 34, 0
3, 987840, Control_c, 0, 64, 127
3, 987840, Note_on_c, 0, 53, 62
3, 988320, Note_on_c, 0, 53, 0
3, 988320, Note_on_c, 0, 60, 62
3, 988800, Note_on_c, 0, 60, 0
3, 988800, Note_on_c, 0, 57, 62
3, 989280, Note_on_c, 0, 57, 0
3, 989280, Note_on_c, 0, 55, 62
3, 989520, Note_on_c, 0, 55, 0
3, 989520, Control_c, 0, 64, 0
3, 989520, Note_on_c, 0, 57, 62
3, 989760, Note_on_c, 0, 57, 0
3, 989760, Note_on_c, 0, 53, 62
3, 990720, Note_on_c, 0, 53, 0
3, 990720, Control_c, 0, 64, 127
3, 990720, Note_on_c, 0, 52, 75
3, 990960, Note_on_c, 0, 52, 0
3, 990960, Note_on_c, 0, 49, 75
3, 991200, Note_on_c, 0, 49, 0
3, 991200, Note_on_c, 0, 52, 75
3, 991440, Note_on_c, 0, 52, 0
3, 991440, Control_c, 0, 64, 0
3, 991440, Note_on_c, 0, 55, 75
3, 991680, Note_on_c, 0, 55, 0
3, 991680, Note_on_c, 0, 58, 101
3, 992400, Note_on_c, 0, 58, 0
3, 992400, Note_on_c, 0, 53, 75
3, 992640, Note_on_c, 0, 53, 0
3, 992640, Note_on_c, 0, 52, 75
3, 992880, Note_on_c, 0, 52, 0
3, 992880, Note_on_c, 0, 55, 75
3, 993120, Note_on_c, 0, 55, 0
3, 993120, Note_on_c, 0, 53, 75
3, 993600, Note_on_c, 0, 53, 0
3, 1018560, Control_c, 0, 64, 127
3, 1018560, Note_on_c, 0, 33, 88
3, 1018560, Note_on_c, 0, 36, 88
3, 1018560, Note_on_c, 0, 42, 88
3, 1018719, Note_on_c, 0, 42, 0
3, 1018719, Note_on_c, 0, 36, 0
3, 1018719, Note_on_c, 0, 33, 0
3, 1018719, Note_on_c, 0, 45, 88
3, 1018719, Note_on_c, 0, 48, 88
3, 1018719, Note_on_c, 0, 54, 88
3, 1018880, Note_on_c, 0, 54, 0
3, 1018880, Note_on_c, 0, 48, 0
3, 1018880, Note_on_c, 0, 45, 0
3, 1018880, Note_on_c, 0, 45, 88
3, 1018880, Note_on_c, 0, 48, 88
3, 1018880, Note_on_c, 0, 54, 88
3, 1019040, Note_on_c, 0, 54, 0
3, 1019040, Note_on_c, 0, 48, 0
3, 1019040, Note_on_c, 0, 45, 0
3, 1019040, Note_on_c, 0, 45, 88
3, 1019040, Note_on_c, 0, 48, 88
3, 1019040, Note_on_c, 0, 54, 88
3, 1019199, Note_on_c, 0, 54, 0
3, 1019199, Note_on_c, 0, 48, 0
3, 1019199, Note_on_c, 0, 45, 0
3, 1019199, Note_on_c, 0, 57, 88
3, 1019199, Note_on_c, 0, 60, 88
3, 1019199, Note_on_c, 0, 66, 88
3, 1019360, Note_on_c, 0, 66, 0
3, 1019360, Note_on_c, 0, 60, 0
3, 1019360, Note_on_c, 0, 57, 0
3, 1019360, Note_on_c, 0, 57, 88
3, 1019360, Note_on_c, 0, 60, 88
3, 1019360, Note_on_c, 0, 66, 88
3, 1019520, Note_on_c, 0, 66, 0
3, 1019520, Note_on_c, 0, 60, 0
3, 1019520, Note_on_c, 0, 57, 0
3, 1020000, Control_c, 0, 64, 0
3, 1020480, Control_c, 0, 64, 127
3, 1020480, Note_on_c, 0, 33, 88
3, 1020480, Note_on_c, 0, 36, 88
3, 1020480, Note_on_c, 0, 42, 88
3, 1020639, Note_on_c, 0, 42, 0
3, 1020639, Note_on_c, 0, 36, 0
3, 1020639, Note_on_c, 0, 33, 0
3, 1020639, Note_on_c, 0, 45, 88
3, 1020639, Note_on_c, 0, 48, 88
3, 1020639, Note_on_c, 0, 54, 88
3, 1020800, Note_on_c, 0, 54, 0
3, 1020800, Note_on_c, 0, 48, 0
3, 1020800, Note_on_c, 0, 45, 0
3, 1020800, Note_on_c, 0, 45, 88
3, 1020800, Note_on_c, 0, 48, 88
3, 1020800, Note_on_c, 0, 54, 88
3, 1020960, Note_on_c, 0, 54, 0
3, 1020960, Note_on_c, 0, 48, 0
3, 1020960, Note_on_c, 0, 45, 0
3, 1020960, Note_on_c, 0, 45, 88
3, 1020960, Note_on_c, 0, 48, 88
3, 1020960, Note_on_c, 0, 54, 88
3, 1021119, Note_on_c, 0, 54, 0
3, 1021119, Note_on_c, 0, 48, 0
3, 1021119, Note_on_c, 0, 45, 0
3, 1021119, Note_on_c, 0, 57, 88
3, 1021119, Note_on_c, 0, 60, 88
3, 1021119, Note_on_c, 0, 66, 88
3, 1021280, Note_on_c, 0, 66, 0
3, 1021280, Note_on_c, 0, 60, 0
3, 1021280, Note_on_c, 0, 57, 0
3, 1021280, Note_on_c, 0, 57, 88
3, 1021280, Note_on_c, 0, 60, 88
3, 1021280, Note_on_c, 0, 66, 88
3, 1021440, Note_on_c, 0, 66, 0
3, 1021440, Note_on_c, 0, 60, 0
3, 1021440, Note_on_c, 0, 57, 0
3, 1021920, Control_c, 0, 64, 0
3, 1022400, Control_c, 0, 64, 127
3, 1022400, Note_on_c, 0, 33, 88
3, 1022400, Note_on_c, 0, 36, 88
3, 1022400, Note_on_c, 0, 42, 88
3, 1022520, Note_on_c, 0, 42, 0
3, 1022520, Note_on_c, 0, 36, 0
3, 1022520, Note_on_c, 0, 33, 0
3, 1022520, Note_on_c, 0, 33, 88
3, 1022520, Note_on_c, 0, 36, 88
3, 1022520, Note_on_c, 0, 42, 88
3, 1022640, Note_on_c, 0, 42, 0
3, 1022640, Note_on_c, 0, 36, 0
3, 1022640, Note_on_c, 0, 33, 0
3, 1022640, Note_on_c, 0, 45, 88
3, 1022640, Note_on_c, 0, 48, 88
3, 1022640, Note_on_c, 0, 54, 88
3, 1022760, Note_on_c, 0, 54, 0
3, 1022760, Note_on_c, 0, 48, 0
3, 1022760, Note_on_c, 0, 45, 0
3, 1022760, Note_on_c, 0, 45, 88
3, 1022760, Note_on_c, 0, 48, 88
3, 1022760, Note_on_c, 0, 54, 88
3, 1022880, Note_on_c, 0, 54, 0
3, 1022880, Note_on_c, 0, 48, 0
3, 1022880, Note_on_c, 0, 45, 0
3, 1022880, Note_on_c, 0, 45, 88
3, 1022880, Note_on_c, 0, 48, 88
3, 1022880, Note_on_c, 0, 54, 88
3, 1023000, Note_on_c, 0, 54, 0
3, 1023000, Note_on_c, 0, 48, 0
3, 1023000, Note_on_c, 0, 45, 0
3, 1023000, Note_on_c, 0, 45, 88
3, 1023000, Note_on_c, 0, 48, 88
3, 1023000, Note_on_c, 0, 54, 88
3, 1023120, Note_on_c, 0, 54, 0
3, 1023120, Note_on_c, 0, 48, 0
3, 1023120, Note_on_c, 0, 45, 0
3, 1023120, Note_on_c, 0, 57, 88
3, 1023120, Note_on_c, 0, 60, 88
3, 1023120, Note_on_c, 0, 66, 88
3, 1023240, Note_on_c, 0, 66, 0
3, 1023240, Note_on_c, 0, 60, 0
3, 1023240, Note_on_c, 0, 57, 0
3, 1023240, Note_on_c, 0, 57, 88
3, 1023240, Note_on_c, 0, 60, 88
3, 1023240, Note_on_c, 0, 66, 88
3, 1023360, Note_on_c, 0, 66, 0
3, 1023360, Note_on_c, 0, 60, 0
3, 1023360, Note_on_c, 0, 57, 0
3, 1023360, Note_on_c, 0, 57, 88
3, 1023360, Note_on_c, 0, 60, 88
3, 1023360, Note_on_c, 0, 66, 88
3, 1023480, Note_on_c, 0, 66, 0
3, 1023480, Note_on_c, 0, 60, 0
3, 1023480, Note_on_c, 0, 57, 0
3, 1023480, Note_on_c, 0, 57, 88
3, 1023480, Note_on_c, 0, 60, 88
3, 1023480, Note_on_c, 0, 66, 88
3, 1023600, Note_on_c, 0, 66, 0
3, 1023600, Note_on_c, 0, 60, 0
3, 1023600, Note_on_c, 0, 57, 0
3, 1023840, Control_c, 0, 64, 0
3, 1024320, Control_c, 0, 64, 127
3, 1024320, Note_on_c, 0, 33, 88
3, 1024320, Note_on_c, 0, 36, 88
3, 1024320, Note_on_c, 0, 42, 88
3, 1024440, Note_on_c, 0, 42, 0
3, 1024440, Note_on_c, 0, 36, 0
3, 1024440, Note_on_c, 0, 33, 0
3, 1024440, Note_on_c, 0, 33, 88
3, 1024440, Note_on_c, 0, 36, 88
3, 1024440, Note_on_c, 0, 42, 88
3, 1024560, Note_on_c, 0, 42, 0
3, 1024560, Note_on_c, 0, 36, 0
3, 1024560, Note_on_c, 0, 33, 0
3, 1024560, Note_on_c, 0, 45, 88
3, 1024560, Note_on_c, 0, 48, 88
3, 1024560, Note_on_c, 0, 54, 88
3, 1024680, Note_on_c, 0, 54, 0
3, 1024680, Note_on_c, 0, 48, 0
3, 1024680, Note_on_c, 0, 45, 0
3, 1024680, Note_on_c, 0, 45, 88
3, 1024680, Note_on_c, 0, 48, 88
3, 1024680, Note_on_c, 0, 54, 88
3, 1024800, Note_on_c, 0, 54, 0
3, 1024800, Note_on_c, 0, 48, 0
3, 1024800, Note_on_c, 0, 45, 0
3, 1024800, Note_on_c, 0, 45, 88
3, 1024800, Note_on_c, 0, 48, 88
3, 1024800, Note_on_c, 0, 54, 88
3, 1024920, Note_on_c, 0, 54, 0
3, 1024920, Note_on_c, 0, 48, 0
3, 1024920, Note_on_c, 0, 45, 0
3, 1024920, Note_on_c, 0, 45, 88
3, 1024920, Note_on_c, 0, 48, 88
3, 1024920, Note_on_c, 0, 54, 88
3, 1025040, Note_on_c, 0, 54, 0
3, 1025040, Note_on_c, 0, 48, 0
3, 1025040, Note_on_c, 0, 45, 0
3, 1025040, Note_on_c, 0, 57, 88
3, 1025040, Note_on_c, 0, 60, 88
3, 1025040, Note_on_c, 0, 66, 88
3, 1025160, Note_on_c, 0, 66, 0
3, 1025160, Note_on_c, 0, 60, 0
3, 1025160, Note_on_c, 0, 57, 0
3, 1025160, Note_on_c, 0, 57, 88
3, 1025160, Note_on_c, 0, 60, 88
3, 1025160, Note_on_c, 0, 66, 88
3, 1025280, Note_on_c, 0, 66, 0
3, 1025280, Note_on_c, 0, 60, 0
3, 1025280, Note_on_c, 0, 57, 0
3, 1025280, Note_on_c, 0, 57, 88
3, 1025280, Note_on_c, 0, 60, 88
3, 1025280, Note_on_c, 0, 66, 88
3, 1025400, Note_on_c, 0, 66, 0
3, 1025400, Note_on_c, 0, 60, 0
3, 1025400, Note_on_c, 0, 57, 0
3, 1025400, Note_on_c, 0, 57, 88
3, 1025400, Note_on_c, 0, 60, 88
3, 1025400, Note_on_c, 0, 66, 88
3, 1025520, Note_on_c, 0, 66, 0
3, 1025520, Note_on_c, 0, 60, 0
3, 1025520, Note_on_c, 0, 57, 0
3, 1025760, Control_c, 0, 64, 0
3, 1026240, Control_c, 0, 64, 127
3, 1026240, Note_on_c, 0, 33, 88
3, 1026240, Note_on_c, 0, 36, 88
3, 1026240, Note_on_c, 0, 42, 88
3, 1026360, Note_on_c, 0, 42, 0
3, 1026360, Note_on_c, 0, 36, 0
3, 1026360, Note_on_c, 0, 33, 0
3, 1026360, Note_on_c, 0, 33, 88
3, 1026360, Note_on_c, 0, 36, 88
3, 1026360, Note_on_c, 0, 42, 88
3, 1026480, Note_on_c, 0, 42, 0
3, 1026480, Note_on_c, 0, 36, 0
3, 1026480, Note_on_c, 0, 33, 0
3, 1026480, Note_on_c, 0, 45, 88
3, 1026480, Note_on_c, 0, 48, 88
3, 1026480, Note_on_c, 0, 54, 88
3, 1026600, Note_on_c, 0, 54, 0
3, 1026600, Note_on_c, 0, 48, 0
3, 1026600, Note_on_c, 0, 45, 0
3, 1026600, Note_on_c, 0, 45, 88
3, 1026600, Note_on_c, 0, 48, 88
3, 1026600, Note_on_c, 0, 54, 88
3, 1026720, Note_on_c, 0, 54, 0
3, 1026720, Note_on_c, 0, 48, 0
3, 1026720, Note_on_c, 0, 45, 0
3, 1026720, Note_on_c, 0, 36, 88
3, 1026720, Note_on_c, 0, 42, 88
3, 1026720, Note_on_c, 0, 45, 88
3, 1026840, Note_on_c, 0, 45, 0
3, 1026840, Note_on_c, 0, 42, 0
3, 1026840, Note_on_c, 0, 36, 0
3, 1026840, Note_on_c, 0, 36, 88
3, 1026840, Note_on_c, 0, 42, 88
3, 1026840, Note_on_c, 0, 45, 88
3, 1026960, Note_on_c, 0, 45, 0
3, 1026960, Note_on_c, 0, 42, 0
3, 1026960, Note_on_c, 0, 36, 0
3, 1026960, Note_on_c, 0, 48, 88
3, 1026960, Note_on_c, 0, 54, 88
3, 1026960, Note_on_c, 0, 57, 88
3, 1027080, Note_on_c, 0, 57, 0
3, 1027080, Note_on_c, 0, 54, 0
3, 1027080, Note_on_c, 0, 48, 0
3, 1027080, Note_on_c, 0, 48, 88
3, 1027080, Note_on_c, 0, 54, 88
3, 1027080, Note_on_c, 0, 57, 88
3, 1027200, Note_on_c, 0, 57, 0
3, 1027200, Note_on_c, 0, 54, 0
3, 1027200, Note_on_c, 0, 48, 0
3, 1027200, Note_on_c, 0, 42, 88
3, 1027200, Note_on_c, 0, 45, 88
3, 1027200, Note_on_c, 0, 48, 88
3, 1027320, Note_on_c, 0, 48, 0
3, 1027320, Note_on_c, 0, 45, 0
3, 1027320, Note_on_c, 0, 42, 0
3, 1027320, Note_on_c, 0, 42, 88
3, 1027320, Note_on_c, 0, 45, 88
3, 1027320, Note_on_c, 0, 48, 88
3, 1027440, Note_on_c, 0, 48, 0
3, 1027440, Note_on_c, 0, 45, 0
3, 1027440, Note_on_c, 0, 42, 0
3, 1027440, Note_on_c, 0, 54, 88
3, 1027440, Note_on_c, 0, 57, 88
3, 1027440, Note_on_c, 0, 60, 88
3, 1027560, Note_on_c, 0, 60, 0
3, 1027560, Note_on_c, 0, 57, 0
3, 1027560, Note_on_c, 0, 54, 0
3, 1027560, Note_on_c, 0, 54, 88
3, 1027560, Note_on_c, 0, 57, 88
3, 1027560, Note_on_c, 0, 60, 88
3, 1027680, Note_on_c, 0, 60, 0
3, 1027680, Note_on_c, 0, 57, 0
3, 1027680, Note_on_c, 0, 54, 0
3, 1027680, Note_on_c, 0, 36, 88
3, 1027680, Note_on_c, 0, 42, 88
3, 1027680, Note_on_c, 0, 45, 88
3, 1027800, Note_on_c, 0, 45, 0
3, 1027800, Note_on_c, 0, 42, 0
3, 1027800, Note_on_c, 0, 36, 0
3, 1027800, Note_on_c, 0, 48, 88
3, 1027800, Note_on_c, 0, 54, 88
3, 1027800, Note_on_c, 0, 57, 88
3, 1027920, Note_on_c, 0, 57, 0
3, 1027920, Note_on_c, 0, 54, 0
3, 1027920, Note_on_c, 0, 48, 0
3, 1027920, Note_on_c, 0, 42, 88
3, 1027920, Note_on_c, 0, 45, 88
3, 1027920, Note_on_c, 0, 48, 88
3, 1028040, Note_on_c, 0, 48, 0
3, 1028040, Note_on_c, 0, 45, 0
3, 1028040, Note_on_c, 0, 42, 0
3, 1028040, Note_on_c, 0, 54, 88
3, 1028040, Note_on_c, 0, 57, 88
3, 1028040, Note_on_c, 0, 60, 88
3, 1028160, Note_on_c, 0, 60, 0
3, 1028160, Note_on_c, 0, 57, 0
3, 1028160, Note_on_c, 0, 54, 0
3, 1028160, Note_on_c, 0, 45, 88
3, 1028160, Note_on_c, 0, 48, 88
3, 1028160, Note_on_c, 0, 54, 88
3, 1028280, Note_on_c, 0, 54, 0
3, 1028280, Note_on_c, 0, 48, 0
3, 1028280, Note_on_c, 0, 45, 0
3, 1028280, Note_on_c, 0, 57, 88
3, 1028280, Note_on_c, 0, 60, 88
3, 1028280, Note_on_c, 0, 66, 88
3, 1028400, Note_on_c, 0, 66, 0
3, 1028400, Note_on_c, 0, 60, 0
3, 1028400, Note_on_c, 0, 57, 0
3, 1028400, Note_on_c, 0, 48, 88
3, 1028400, Note_on_c, 0, 54, 88
3, 1028400, Note_on_c, 0, 57, 88
3, 1028520, Note_on_c, 0, 57, 0
3, 1028520, Note_on_c, 0, 54, 0
3, 1028520, Note_on_c, 0, 48, 0
3, 1028520, Note_on_c, 0, 60, 88
3, 1028520, Note_on_c, 0, 66, 88
3, 1028520, Note_on_c, 0, 69, 88
3, 1028640, Note_on_c, 0, 69, 0
3, 1028640, Note_on_c, 0, 66, 0
3, 1028640, Note_on_c, 0, 60, 0
3, 1029120, Control_c, 0, 64, 0
3, 1032000, Note_on_c, 0, 51, 88
3, 1032000, Note_on_c, 0, 54, 88
3, 1032000, Note_on_c, 0, 60, 88
3, 1032120, Note_on_c, 0, 60, 0
3, 1032120, Note_on_c, 0, 54, 0
3, 1032120, Note_on_c, 0, 51, 0
3, 1032120, Note_on_c, 0, 63, 88
3, 1032120, Note_on_c, 0, 66, 88
3, 1032120, Note_on_c, 0, 72, 88
3, 1032240, Note_on_c, 0, 72, 0
3, 1032240, Note_on_c, 0, 66, 0
3, 1032240, Note_on_c, 0, 63, 0
3, 1032240, Note_on_c, 0, 48, 88
3, 1032240, Note_on_c, 0, 51, 88
3, 1032240, Note_on_c, 0, 58, 88
3, 1032360, Note_on_c, 0, 58, 0
3, 1032360, Note_on_c, 0, 51, 0
3, 1032360, Note_on_c, 0, 48, 0
3, 1032360, Note_on_c, 0, 60, 88
3, 1032360, Note_on_c, 0, 63, 88
3, 1032360, Note_on_c, 0, 70, 88
3, 1032480, Note_on_c, 0, 70, 0
3, 1032480, Note_on_c, 0, 63, 0
3, 1032480, Note_on_c, 0, 60, 0
3, 1032480, Note_on_c, 0, 48, 88
3, 1032480, Note_on_c, 0, 51, 88
3, 1032480, Note_on_c, 0, 57, 88
3, 1032600, Note_on_c, 0, 57, 0
3, 1032600, Note_on_c, 0, 51, 0
3, 1032600, Note_on_c, 0, 48, 0
3, 1032600, Note_on_c, 0, 60, 88
3, 1032600, Note_on_c, 0, 63, 88
3, 1032600, Note_on_c, 0, 69, 88
3, 1032720, Note_on_c, 0, 69, 0
3, 1032720, Note_on_c, 0, 63, 0
3, 1032720, Note_on_c, 0, 60, 0
3, 1032720, Note_on_c, 0, 48, 88
3, 1032720, Note_on_c, 0, 51, 88
3, 1032720, Note_on_c, 0, 55, 88
3, 1032840, Note_on_c, 0, 55, 0
3, 1032840, Note_on_c, 0, 51, 0
3, 1032840, Note_on_c, 0, 48, 0
3, 1032840, Note_on_c, 0, 60, 88
3, 1032840, Note_on_c, 0, 63, 88
3, 1032840, Note_on_c, 0, 67, 88
3, 1032960, Note_on_c, 0, 67, 0
3, 1032960, Note_on_c, 0, 63, 0
3, 1032960, Note_on_c, 0, 60, 0
3, 1032960, Note_on_c, 0, 48, 88
3, 1032960, Note_on_c, 0, 51, 88
3, 1032960, Note_on_c, 0, 54, 88
3, 1033080, Note_on_c, 0, 54, 0
3, 1033080, Note_on_c, 0, 51, 0
3, 1033080, Note_on_c, 0, 48, 0
3, 1033080, Note_on_c, 0, 60, 88
3, 1033080, Note_on_c, 0, 63, 88
3, 1033080, Note_on_c, 0, 66, 88
3, 1033200, Note_on_c, 0, 66, 0
3, 1033200, Note_on_c, 0, 63, 0
3, 1033200, Note_on_c, 0, 60, 0
3, 1033200, Note_on_c, 0, 48, 88
3, 1033200, Note_on_c, 0, 51, 88
3, 1033200, Note_on_c, 0, 57, 88
3, 1033320, Note_on_c, 0, 57, 0
3, 1033320, Note_on_c, 0, 51, 0
3, 1033320, Note_on_c, 0, 48, 0
3, 1033320, Note_on_c, 0, 60, 88
3, 1033320, Note_on_c, 0, 63, 88
3, 1033320, Note_on_c, 0, 69, 88
3, 1033440, Note_on_c, 0, 69, 0
3, 1033440, Note_on_c, 0, 63, 0
3, 1033440, Note_on_c, 0, 60, 0
3, 1033440, Note_on_c, 0, 45, 88
3, 1033440, Note_on_c, 0, 48, 88
3, 1033440, Note_on_c, 0, 54, 88
3, 1033560, Note_on_c, 0, 54, 0
3, 1033560, Note_on_c, 0, 48, 0
3, 1033560, Note_on_c, 0, 45, 0
3, 1033560, Note_on_c, 0, 57, 88
3, 1033560, Note_on_c, 0, 60, 88
3, 1033560, Note_on_c, 0, 66, 88
3, 1033680, Note_on_c, 0, 66, 0
3, 1033680, Note_on_c, 0, 60, 0
3, 1033680, Note_on_c, 0, 57, 0
3, 1033680, Note_on_c, 0, 42, 88
3, 1033680, Note_on_c, 0, 45, 88
3, 1033680, Note_on_c, 0, 51, 88
3, 1033800, Note_on_c, 0, 51, 0
3, 1033800, Note_on_c, 0, 45, 0
3, 1033800, Note_on_c, 0, 42, 0
3, 1033800, Note_on_c, 0, 54, 88
3, 1033800, Note_on_c, 0, 57, 88
3, 1033800, Note_on_c, 0, 63, 88
3, 1033920, Note_on_c, 0, 63, 0
3, 1033920, Note_on_c, 0, 57, 0
3, 1033920, Note_on_c, 0, 54, 0
3, 1033920, Note_on_c, 0, 39, 88
3, 1033920, Note_on_c, 0, 42, 88
3, 1033920, Note_on_c, 0, 48, 88
3, 1034040, Note_on_c, 0, 48, 0
3, 1034040, Note_on_c, 0, 42, 0
3, 1034040, Note_on_c, 0, 39, 0
3, 1034040, Note_on_c, 0, 51, 88
3, 1034040, Note_on_c, 0, 54, 88
3, 1034040, Note_on_c, 0, 60, 88
3, 1034160, Note_on_c, 0, 60, 0
3, 1034160, Note_on_c, 0, 54, 0
3, 1034160, Note_on_c, 0, 51, 0
3, 1034160, Note_on_c, 0, 36, 88
3, 1034160, Note_on_c, 0, 39, 88
3, 1034160, Note_on_c, 0, 46, 88
3, 1034280, Note_on_c, 0, 46, 0
3, 1034280, Note_on_c, 0, 39, 0
3, 1034280, Note_on_c, 0, 36, 0
3, 1034280, Note_on_c, 0, 48, 88
3, 1034280, Note_on_c, 0, 51, 88
3, 1034280, Note_on_c, 0, 58, 88
3, 1034400, Note_on_c, 0, 58, 0
3, 1034400, Note_on_c, 0, 51, 0
3, 1034400, Note_on_c, 0, 48, 0
3, 1034400, Note_on_c, 0, 36, 88
3, 1034400, Note_on_c, 0, 39, 88
3, 1034400, Note_on_c, 0, 45, 88
3, 1034520, Note_on_c, 0, 45, 0
3, 1034520, Note_on_c, 0, 39, 0
3, 1034520, Note_on_c, 0, 36, 0
3, 1034520, Note_on_c, 0, 48, 88
3, 1034520, Note_on_c, 0, 51, 88
3, 1034520, Note_on_c, 0, 57, 88
3, 1034640, Note_on_c, 0, 57, 0
3, 1034640, Note_on_c, 0, 51, 0
3, 1034640, Note_on_c, 0, 48, 0
3, 1034640, Note_on_c, 0, 36, 88
3, 1034640, Note_on_c, 0, 39, 88
3, 1034640, Note_on_c, 0, 43, 88
3, 1034760, Note_on_c, 0, 43, 0
3, 1034760, Note_on_c, 0, 39, 0
3, 1034760, Note_on_c, 0, 36, 0
3, 1034760, Note_on_c, 0, 48, 88
3, 1034760, Note_on_c, 0, 51, 88
3, 1034760, Note_on_c, 0, 55, 88
3, 1034880, Note_on_c, 0, 55, 0
3, 1034880, Note_on_c, 0, 51, 0
3, 1034880, Note_on_c, 0, 48, 0
3, 1034880, Note_on_c, 0, 36, 88
3, 1034880, Note_on_c, 0, 39, 88
3, 1034880, Note_on_c, 0, 42, 88
3, 1035000, Note_on_c, 0, 42, 0
3, 1035000, Note_on_c, 0, 39, 0
3, 1035000, Note_on_c, 0, 36, 0
3, 1035000, Note_on_c, 0, 48, 88
3, 1035000, Note_on_c, 0, 51, 88
3, 1035000, Note_on_c, 0, 54, 88
3, 1035120, Note_on_c, 0, 54, 0
3, 1035120, Note_on_c, 0, 51, 0
3, 1035120, Note_on_c, 0, 48, 0
3, 1035120, Note_on_c, 0, 36, 88
3, 1035120, Note_on_c, 0, 39, 88
3, 1035120, Note_on_c, 0, 45, 88
3, 1035240, Note_on_c, 0, 45, 0
3, 1035240, Note_on_c, 0, 39, 0
3, 1035240, Note_on_c, 0, 36, 0
3, 1035240, Note_on_c, 0, 48, 88
3, 1035240, Note_on_c, 0, 51, 88
3, 1035240, Note_on_c, 0, 57, 88
3, 1035360, Note_on_c, 0, 57, 0
3, 1035360, Note_on_c, 0, 51, 0
3, 1035360, Note_on_c, 0, 48, 0
3, 1035360, Note_on_c, 0, 33, 88
3, 1035360, Note_on_c, 0, 36, 88
3, 1035360, Note_on_c, 0, 43, 88
3, 1035480, Note_on_c, 0, 43, 0
3, 1035480, Note_on_c, 0, 36, 0
3, 1035480, Note_on_c, 0, 33, 0
3, 1035480, Note_on_c, 0, 45, 88
3, 1035480, Note_on_c, 0, 48, 88
3, 1035480, Note_on_c, 0, 55, 88
3, 1035600, Note_on_c, 0, 55, 0
3, 1035600, Note_on_c, 0, 48, 0
3, 1035600, Note_on_c, 0, 45, 0
3, 1035600, Note_on_c, 0, 33, 88
3, 1035600, Note_on_c, 0, 36, 88
3, 1035600, Note_on_c, 0, 42, 88
3, 1035720, Note_on_c, 0, 42, 0
3, 1035720, Note_on_c, 0, 36, 0
3, 1035720, Note_on_c, 0, 33, 0
3, 1035720, Note_on_c, 0, 45, 88
3, 1035720, Note_on_c, 0, 48, 88
3, 1035720, Note_on_c, 0, 54, 88
3, 1035840, Note_on_c, 0, 54, 0
3, 1035840, Note_on_c, 0, 48, 0
3, 1035840, Note_on_c, 0, 45, 0
3, 1035840, Note_on_c, 0, 36, 88
3, 1035840, Note_on_c, 0, 39, 88
3, 1035840, Note_on_c, 0, 46, 88
3, 1035960, Note_on_c, 0, 46, 0
3, 1035960, Note_on_c, 0, 39, 0
3, 1035960, Note_on_c, 0, 36, 0
3, 1035960, Note_on_c, 0, 48, 88
3, 1035960, Note_on_c, 0, 51, 88
3, 1035960, Note_on_c, 0, 58, 88
3, 1036080, Note_on_c, 0, 58, 0
3, 1036080, Note_on_c, 0, 51, 0
3, 1036080, Note_on_c, 0, 48, 0
3, 1036080, Note_on_c, 0, 36, 88
3, 1036080, Note_on_c, 0, 39, 88
3, 1036080, Note_on_c, 0, 45, 88
3, 1036200, Note_on_c, 0, 45, 0
3, 1036200, Note_on_c, 0, 39, 0
3, 1036200, Note_on_c, 0, 36, 0
3, 1036200, Note_on_c, 0, 48, 88
3, 1036200, Note_on_c, 0, 51, 88
3, 1036200, Note_on_c, 0, 57, 88
3, 1036320, Note_on_c, 0, 57, 0
3, 1036320, Note_on_c, 0, 51, 0
3, 1036320, Note_on_c, 0, 48, 0
3, 1036320, Note_on_c, 0, 33, 88
3, 1036320, Note_on_c, 0, 36, 88
3, 1036320, Note_on_c, 0, 43, 88
3, 1036440, Note_on_c, 0, 43, 0
3, 1036440, Note_on_c, 0, 36, 0
3, 1036440, Note_on_c, 0, 33, 0
3, 1036440, Note_on_c, 0, 45, 88
3, 1036440, Note_on_c, 0, 48, 88
3, 1036440, Note_on_c, 0, 55, 88
3, 1036560, Note_on_c, 0, 55, 0
3, 1036560, Note_on_c, 0, 48, 0
3, 1036560, Note_on_c, 0, 45, 0
3, 1036560, Note_on_c, 0, 33, 88
3, 1036560, Note_on_c, 0, 36, 88
3, 1036560, Note_on_c, 0, 42, 88
3, 1036680, Note_on_c, 0, 42, 0
3, 1036680, Note_on_c, 0, 36, 0
3, 1036680, Note_on_c, 0, 33, 0
3, 1036680, Note_on_c, 0, 45, 88
3, 1036680, Note_on_c, 0, 48, 88
3, 1036680, Note_on_c, 0, 54, 88
3, 1036800, Note_on_c, 0, 54, 0
3, 1036800, Note_on_c, 0, 48, 0
3, 1036800, Note_on_c, 0, 45, 0
3, 1036800, Note_on_c, 0, 36, 88
3, 1036800, Note_on_c, 0, 39, 88
3, 1036800, Note_on_c, 0, 46, 88
3, 1036920, Note_on_c, 0, 46, 0
3, 1036920, Note_on_c, 0, 39, 0
3, 1036920, Note_on_c, 0, 36, 0
3, 1036920, Note_on_c, 0, 48, 88
3, 1036920, Note_on_c, 0, 51, 88
3, 1036920, Note_on_c, 0, 58, 88
3, 1037040, Note_on_c, 0, 58, 0
3, 1037040, Note_on_c, 0, 51, 0
3, 1037040, Note_on_c, 0, 48, 0
3, 1037040, Note_on_c, 0, 36, 88
3, 1037040, Note_on_c, 0, 39, 88
3, 1037040, Note_on_c, 0, 45, 88
3, 1037160, Note_on_c, 0, 45, 0
3, 1037160, Note_on_c, 0, 39, 0
3, 1037160, Note_on_c, 0, 36, 0
3, 1037160, Note_on_c, 0, 48, 88
3, 1037160, Note_on_c, 0, 51, 88
3, 1037160, Note_on_c, 0, 57, 88
3, 1037280, Note_on_c, 0, 57, 0
3, 1037280, Note_on_c, 0, 51, 0
3, 1037280, Note_on_c, 0, 48, 0
3, 1037280, Note_on_c, 0, 39, 88
3, 1037280, Note_on_c, 0, 42, 88
3, 1037280, Note_on_c, 0, 50, 88
3, 1037400, Note_on_c, 0, 50, 0
3, 1037400, Note_on_c, 0, 42, 0
3, 1037400, Note_on_c, 0, 39, 0
3, 1037400, Note_on_c, 0, 51, 88
3, 1037400, Note_on_c, 0, 54, 88
3, 1037400, Note_on_c, 0, 62, 88
3, 1037520, Note_on_c, 0, 62, 0
3, 1037520, Note_on_c, 0, 54, 0
3, 1037520, Note_on_c, 0, 51, 0
3, 1037520, Note_on_c, 0, 39, 88
3, 1037520, Note_on_c, 0, 42, 88
3, 1037520, Note_on_c, 0, 48, 88
3, 1037640, Note_on_c, 0, 48, 0
3, 1037640, Note_on_c, 0, 42, 0
3, 1037640, Note_on_c, 0, 39, 0
3, 1037640, Note_on_c, 0, 51, 88
3, 1037640, Note_on_c, 0, 54, 88
3, 1037640, Note_on_c, 0, 60, 88
3, 1037760, Note_on_c, 0, 60, 0
3, 1037760, Note_on_c, 0, 54, 0
3, 1037760, Note_on_c, 0, 51, 0
3, 1037760, Note_on_c, 0, 42, 88
3, 1037760, Note_on_c, 0, 45, 88
3, 1037760, Note_on_c, 0, 51, 88
3, 1037880, Note_on_c, 0, 51, 0
3, 1037880, Note_on_c, 0, 45, 0
3, 1037880, Note_on_c, 0, 42, 0
3, 1037880, Note_on_c, 0, 54, 88
3, 1037880, Note_on_c, 0, 57, 88
3, 1037880, Note_on_c, 0, 63, 88
3, 1038000, Note_on_c, 0, 63, 0
3, 1038000, Note_on_c, 0, 57, 0
3, 1038000, Note_on_c, 0, 54, 0
3, 1038000, Note_on_c, 0, 42, 88
3, 1038000, Note_on_c, 0, 45, 88
3, 1038000, Note_on_c, 0, 50, 88
3, 1038120, Note_on_c, 0, 50, 0
3, 1038120, Note_on_c, 0, 45, 0
3, 1038120, Note_on_c, 0, 42, 0
3, 1038120, Note_on_c, 0, 54, 88
3, 1038120, Note_on_c, 0, 57, 88
3, 1038120, Note_on_c, 0, 62, 88
3, 1038240, Note_on_c, 0, 62, 0
3, 1038240, Note_on_c, 0, 57, 0
3, 1038240, Note_on_c, 0, 54, 0
3, 1038240, Note_on_c, 0, 45, 88
3, 1038240, Note_on_c, 0, 48, 88
3, 1038240, Note_on_c, 0, 55, 88
3, 1038360, Note_on_c, 0, 55, 0
3, 1038360, Note_on_c, 0, 48, 0
3, 1038360, Note_on_c, 0, 45, 0
3, 1038360, Note_on_c, 0, 57, 88
3, 1038360, Note_on_c, 0, 60, 88
3, 1038360, Note_on_c, 0, 67, 88
3, 1038480, Note_on_c, 0, 67, 0
3, 1038480, Note_on_c, 0, 60, 0
3, 1038480, Note_on_c, 0, 57, 0
3, 1038480, Note_on_c, 0, 45, 88
3, 1038480, Note_on_c, 0, 48, 88
3, 1038480, Note_on_c, 0, 54, 88
3, 1038600, Note_on_c, 0, 54, 0
3, 1038600, Note_on_c, 0, 48, 0
3, 1038600, Note_on_c, 0, 45, 0
3, 1038600, Note_on_c, 0, 57, 88
3, 1038600, Note_on_c, 0, 60, 88
3, 1038600, Note_on_c, 0, 66, 88
3, 1038720, Note_on_c, 0, 66, 0
3, 1038720, Note_on_c, 0, 60, 0
3, 1038720, Note_on_c, 0, 57, 0
3, 1038720, Note_on_c, 0, 48, 88
3, 1038720, Note_on_c, 0, 51, 88
3, 1038720, Note_on_c, 0, 58, 88
3, 1038840, Note_on_c, 0, 58, 0
3, 1038840, Note_on_c, 0, 51, 0
3, 1038840, Note_on_c, 0, 48, 0
3, 1038840, Note_on_c, 0, 60, 88
3, 1038840, Note_on_c, 0, 63, 88
3, 1038840, Note_on_c, 0, 70, 88
3, 1038960, Note_on_c, 0, 70, 0
3, 1038960, Note_on_c, 0, 63, 0
3, 1038960, Note_on_c, 0, 60, 0
3, 1038960, Note_on_c, 0, 48, 88
3, 1038960, Note_on_c, 0, 51, 88
3, 1038960, Note_on_c, 0, 57, 88
3, 1039080, Note_on_c, 0, 57, 0
3, 1039080, Note_on_c, 0, 51, 0
3, 1039080, Note_on_c, 0, 48, 0
3, 1039080, Note_on_c, 0, 60, 88
3, 1039080, Note_on_c, 0, 63, 88
3, 1039080, Note_on_c, 0, 69, 88
3, 1039200, Note_on_c, 0, 69, 0
3, 1039200, Note_on_c, 0, 63, 0
3, 1039200, Note_on_c, 0, 60, 0
3, 1039200, Note_on_c, 0, 45, 88
3, 1039200, Note_on_c, 0, 48, 88
3, 1039200, Note_on_c, 0, 55, 88
3, 1039320, Note_on_c, 0, 55, 0
3, 1039320, Note_on_c, 0, 48, 0
3, 1039320, Note_on_c, 0, 45, 0
3, 1039320, Note_on_c, 0, 57, 88
3, 1039320, Note_on_c, 0, 60, 88
3, 1039320, Note_on_c, 0, 67, 88
3, 1039440, Note_on_c, 0, 67, 0
3, 1039440, Note_on_c, 0, 60, 0
3, 1039440, Note_on_c, 0, 57, 0
3, 1039440, Note_on_c, 0, 45, 88
3, 1039440, Note_on_c, 0, 48, 88
3, 1039440, Note_on_c, 0, 54, 88
3, 1039560, Note_on_c, 0, 54, 0
3, 1039560, Note_on_c, 0, 48, 0
3, 1039560, Note_on_c, 0, 45, 0
3, 1039560, Note_on_c, 0, 57, 88
3, 1039560, Note_on_c, 0, 60, 88
3, 1039560, Note_on_c, 0, 66, 88
3, 1039680, Note_on_c, 0, 66, 0
3, 1039680, Note_on_c, 0, 60, 0
3, 1039680, Note_on_c, 0, 57, 0
3, 1039680, Note_on_c, 0, 48, 88
3, 1039680, Note_on_c, 0, 51, 88
3, 1039680, Note_on_c, 0, 58, 88
3, 1039800, Note_on_c, 0, 58, 0
3, 1039800, Note_on_c, 0, 51, 0
3, 1039800, Note_on_c, 0, 48, 0
3, 1039800, Note_on_c, 0, 60, 88
3, 1039800, Note_on_c, 0, 63, 88
3, 1039800, Note_on_c, 0, 70, 88
3, 1039920, Note_on_c, 0, 70, 0
3, 1039920, Note_on_c, 0, 63, 0
3, 1039920, Note_on_c, 0, 60, 0
3, 1039920, Note_on_c, 0, 48, 88
3, 1039920, Note_on_c, 0, 51, 88
3, 1039920, Note_on_c, 0, 57, 88
3, 1040040, Note_on_c, 0, 57, 0
3, 1040040, Note_on_c, 0, 51, 0
3, 1040040, Note_on_c, 0, 48, 0
3, 1040040, Note_on_c, 0, 60, 88
3, 1040040, Note_on_c, 0, 63, 88
3, 1040040, Note_on_c, 0, 69, 88
3, 1040160, Note_on_c, 0, 69, 0
3, 1040160, Note_on_c, 0, 63, 0
3, 1040160, Note_on_c, 0, 60, 0
3, 1040160, Note_on_c, 0, 45, 88
3, 1040160, Note_on_c, 0, 48, 88
3, 1040160, Note_on_c, 0, 55, 88
3, 1040280, Note_on_c, 0, 55, 0
3, 1040280, Note_on_c, 0, 48, 0
3, 1040280, Note_on_c, 0, 45, 0
3, 1040280, Note_on_c, 0, 57, 88
3, 1040280, Note_on_c, 0, 60, 88
3, 1040280, Note_on_c, 0, 67, 88
3, 1040400, Note_on_c, 0, 67, 0
3, 1040400, Note_on_c, 0, 60, 0
3, 1040400, Note_on_c, 0, 57, 0
3, 1040400, Note_on_c, 0, 45, 88
3, 1040400, Note_on_c, 0, 48, 88
3, 1040400, Note_on_c, 0, 54, 88
3, 1040520, Note_on_c, 0, 54, 0
3, 1040520, Note_on_c, 0, 48, 0
3, 1040520, Note_on_c, 0, 45, 0
3, 1040520, Note_on_c, 0, 57, 88
3, 1040520, Note_on_c, 0, 60, 88
3, 1040520, Note_on_c, 0, 66, 88
3, 1040640, Note_on_c, 0, 66, 0
3, 1040640, Note_on_c, 0, 60, 0
3, 1040640, Note_on_c, 0, 57, 0
3, 1040640, Note_on_c, 0, 48, 88
3, 1040640, Note_on_c, 0, 51, 88
3, 1040640, Note_on_c, 0, 58, 88
3, 1040760, Note_on_c, 0, 58, 0
3, 1040760, Note_on_c, 0, 51, 0
3, 1040760, Note_on_c, 0, 48, 0
3, 1040760, Note_on_c, 0, 60, 88
3, 1040760, Note_on_c, 0, 63, 88
3, 1040760, Note_on_c, 0, 70, 88
3, 1040880, Note_on_c, 0, 70, 0
3, 1040880, Note_on_c, 0, 63, 0
3, 1040880, Note_on_c, 0, 60, 0
3, 1040880, Note_on_c, 0, 48, 88
3, 1040880, Note_on_c, 0, 51, 88
3, 1040880, Note_on_c, 0, 57, 88
3, 1041000, Note_on_c, 0, 57, 0
3, 1041000, Note_on_c, 0, 51, 0
3, 1041000, Note_on_c, 0, 48, 0
3, 1041000, Note_on_c, 0, 60, 88
3, 1041000, Note_on_c, 0, 63, 88
3, 1041000, Note_on_c, 0, 69, 88
3, 1041120, Note_on_c, 0, 69, 0
3, 1041120, Note_on_c, 0, 63, 0
3, 1041120, Note_on_c, 0, 60, 0
3, 1041120, Note_on_c, 0, 51, 88
3, 1041120, Note_on_c, 0, 54, 88
3, 1041120, Note_on_c, 0, 62, 88
3, 1041240, Note_on_c, 0, 62, 0
3, 1041240, Note_on_c, 0, 54, 0
3, 1041240, Note_on_c, 0, 51, 0
3, 1041240, Note_on_c, 0, 63, 88
3, 1041240, Note_on_c, 0, 66, 88
3, 1041240, Note_on_c, 0, 74, 88
3, 1041360, Note_on_c, 0, 74, 0
3, 1041360, Note_on_c, 0, 66, 0
3, 1041360, Note_on_c, 0, 63, 0
3, 1041360, Note_on_c, 0, 51, 88
3, 1041360, Note_on_c, 0, 54, 88
3, 1041360, Note_on_c, 0, 60, 88
3, 1041480, Note_on_c, 0, 60, 0
3, 1041480, Note_on_c, 0, 54, 0
3, 1041480, Note_on_c, 0, 51, 0
3, 1041480, Note_on_c, 0, 63, 88
3, 1041480, Note_on_c, 0, 66, 88
3, 1041480, Note_on_c, 0, 72, 88
3, 1041600, Note_on_c, 0, 72, 0
3, 1041600, Note_on_c, 0, 66, 0
3, 1041600, Note_on_c, 0, 63, 0
3, 1050720, Note_on_c, 0, 50, 88
3, 1050720, Note_on_c, 0, 62, 88
3, 1050960, Note_on_c, 0, 62, 0
3, 1050960, Note_on_c, 0, 50, 0
3, 1050960, Note_on_c, 0, 54, 62
3, 1050960, Note_on_c, 0, 57, 62
3, 1051200, Note_on_c, 0, 57, 0
3, 1051200, Note_on_c, 0, 54, 0
3, 1051200, Note_on_c, 0, 51, 88
3, 1051200, Note_on_c, 0, 63, 88
3, 1051440, Note_on_c, 0, 63, 0
3, 1051440, Note_on_c, 0, 51, 0
3, 1051440, Note_on_c, 0, 55, 62
3, 1051440, Note_on_c, 0, 58, 62
3, 1051680, Note_on_c, 0, 58, 0
3, 1051680, Note_on_c, 0, 55, 0
3, 1051680, Note_on_c, 0, 50, 88
3, 1051680, Note_on_c, 0, 62, 88
3, 1051920, Note_on_c, 0, 62, 0
3, 1051920, Note_on_c, 0, 50, 0
3, 1051920, Note_on_c, 0, 55, 62
3, 1051920, Note_on_c, 0, 58, 62
3, 1052160, Note_on_c, 0, 58, 0
3, 1052160, Note_on_c, 0, 55, 0
3, 1052160, Note_on_c, 0, 52, 88
3, 1052400, Note_on_c, 0, 52, 0
3, 1052400, Note_on_c, 0, 46, 62
3, 1052400, Note_on_c, 0, 50, 62
3, 1052640, Note_on_c, 0, 50, 0
3, 1052640, Note_on_c, 0, 46, 0
3, 1052640, Note_on_c, 0, 54, 88
3, 1052880, Note_on_c, 0, 54, 0
3, 1052880, Note_on_c, 0, 55, 88
3, 1053120, Note_on_c, 0, 55, 0
3, 1053120, Note_on_c, 0, 58, 88
3, 1053360, Note_on_c, 0, 58, 0
3, 1053360, Note_on_c, 0, 48, 62
3, 1053360, Note_on_c, 0, 54, 62
3, 1053600, Note_on_c, 0, 54, 0
3, 1053600, Note_on_c, 0, 48, 0
3, 1053600, Note_on_c, 0, 57, 62
3, 1053840, Note_on_c, 0, 57, 0
3, 1054560, Note_on_c, 0, 50, 62
3, 1054560, Note_on_c, 0, 62, 62
3, 1054800, Note_on_c, 0, 62, 0
3, 1054800, Note_on_c, 0, 50, 0
3, 1054800, Note_on_c, 0, 54, 62
3, 1054800, Note_on_c, 0, 57, 62
3, 1055040, Note_on_c, 0, 57, 0
3, 1055040, Note_on_c, 0, 54, 0
3, 1055040, Note_on_c, 0, 51, 88
3, 1055040, Note_on_c, 0, 63, 88
3, 1055280, Note_on_c, 0, 63, 0
3, 1055280, Note_on_c, 0, 51, 0
3, 1055280, Note_on_c, 0, 55, 62
3, 1055280, Note_on_c, 0, 58, 62
3, 1055520, Note_on_c, 0, 58, 0
3, 1055520, Note_on_c, 0, 55, 0
3, 1055520, Note_on_c, 0, 50, 88
3, 1055520, Note_on_c, 0, 62, 88
3, 1055760, Note_on_c, 0, 62, 0
3, 1055760, Note_on_c, 0, 50, 0
3, 1055760, Note_on_c, 0, 55, 62
3, 1055760, Note_on_c, 0, 58, 62
3, 1056000, Note_on_c, 0, 58, 0
3, 1056000, Note_on_c, 0, 55, 0
3, 1056000, Note_on_c, 0, 52, 88
3, 1056240, Note_on_c, 0, 52, 0
3, 1056240, Note_on_c, 0, 46, 62
3, 1056240, Note_on_c, 0, 50, 62
3, 1056480, Note_on_c, 0, 50, 0
3, 1056480, Note_on_c, 0, 46, 0
3, 1056480, Note_on_c, 0, 54, 88
3, 1056720, Note_on_c, 0, 54, 0
3, 1056720, Note_on_c, 0, 55, 88
3, 1056960, Note_on_c, 0, 55, 0
3, 1056960, Note_on_c, 0, 58, 88
3, 1057200, Note_on_c, 0, 58, 0
3, 1057200, Note_on_c, 0, 48, 62
3, 1057200, Note_on_c, 0, 54, 62
3, 1057440, Note_on_c, 0, 54, 0
3, 1057440, Note_on_c, 0, 48, 0
3, 1057440, Note_on_c, 0, 57, 62
3, 1057680, Note_on_c, 0, 57, 0
3, 1058400, Note_on_c, 0, 50, 62
3, 1058400, Note_on_c, 0, 62, 62
3, 1058640, Note_on_c, 0, 62, 0
3, 1058640, Note_on_c, 0, 50, 0
3, 1058640, Note_on_c, 0, 54, 62
3, 1058640, Note_on_c, 0, 57, 62
3, 1058880, Note_on_c, 0, 57, 0
3, 1058880, Note_on_c, 0, 54, 0
3, 1058880, Note_on_c, 0, 51, 88
3, 1058880, Note_on_c, 0, 63, 88
3, 1059120, Note_on_c, 0, 63, 0
3, 1059120, Note_on_c, 0, 51, 0
3, 1059120, Note_on_c, 0, 55, 62
3, 1059120, Note_on_c, 0, 58, 62
3, 1059360, Note_on_c, 0, 58, 0
3, 1059360, Note_on_c, 0, 55, 0
3, 1059360, Note_on_c, 0, 50, 88
3, 1059360, Note_on_c, 0, 62, 88
3, 1059600, Note_on_c, 0, 62, 0
3, 1059600, Note_on_c, 0, 50, 0
3, 1059600, Note_on_c, 0, 55, 62
3, 1059600, Note_on_c, 0, 58, 62
3, 1059840, Note_on_c, 0, 58, 0
3, 1059840, Note_on_c, 0, 55, 0
3, 1059840, Note_on_c, 0, 52, 88
3, 1060080, Note_on_c, 0, 52, 0
3, 1060080, Note_on_c, 0, 46, 62
3, 1060080, Note_on_c, 0, 50, 62
3, 1060320, Note_on_c, 0, 50, 0
3, 1060320, Note_on_c, 0, 46, 0
3, 1060320, Note_on_c, 0, 54, 88
3, 1060560, Note_on_c, 0, 54, 0
3, 1060560, Note_on_c, 0, 55, 88
3, 1060800, Note_on_c, 0, 55, 0
3, 1060800, Note_on_c, 0, 57, 88
3, 1061040, Note_on_c, 0, 57, 0
3, 1061040, Note_on_c, 0, 46, 62
3, 1061040, Note_on_c, 0, 52, 62
3, 1061280, Note_on_c, 0, 52, 0
3, 1061280, Note_on_c, 0, 46, 0
3, 1061280, Note_on_c, 0, 55, 62
3, 1061520, Note_on_c, 0, 55, 0
3, 1062240, Note_on_c, 0, 48, 62
3, 1062240, Note_on_c, 0, 60, 62
3, 1062480, Note_on_c, 0, 60, 0
3, 1062480, Note_on_c, 0, 48, 0
3, 1062480, Note_on_c, 0, 55, 62
3, 1062480, Note_on_c, 0, 58, 62
3, 1062720, Note_on_c, 0, 58, 0
3, 1062720, Note_on_c, 0, 55, 0
3, 1062720, Note_on_c, 0, 50, 88
3, 1062720, Note_on_c, 0, 62, 88
3, 1062960, Note_on_c, 0, 62, 0
3, 1062960, Note_on_c, 0, 50, 0
3, 1062960, Note_on_c, 0, 53, 62
3, 1062960, Note_on_c, 0, 57, 62
3, 1063200, Note_on_c, 0, 57, 0
3, 1063200, Note_on_c, 0, 53, 0
3, 1063200, Note_on_c, 0, 48, 62
3, 1063200, Note_on_c, 0, 60, 62
3, 1063440, Note_on_c, 0, 60, 0
3, 1063440, Note_on_c, 0, 48, 0
3, 1063440, Note_on_c, 0, 53, 62
3, 1063440, Note_on_c, 0, 57, 62
3, 1063680, Note_on_c, 0, 57, 0
3, 1063680, Note_on_c, 0, 53, 0
3, 1063680, Note_on_c, 0, 50, 62
3, 1063920, Note_on_c, 0, 50, 0
3, 1063920, Note_on_c, 0, 45, 62
3, 1063920, Note_on_c, 0, 48, 62
3, 1064160, Note_on_c, 0, 48, 0
3, 1064160, Note_on_c, 0, 45, 0
3, 1064160, Note_on_c, 0, 52, 62
3, 1064400, Note_on_c, 0, 52, 0
3, 1064400, Note_on_c, 0, 53, 62
3, 1064640, Note_on_c, 0, 53, 0
3, 1064640, Note_on_c, 0, 57, 88
3, 1064880, Note_on_c, 0, 57, 0
3, 1064880, Note_on_c, 0, 46, 62
3, 1064880, Note_on_c, 0, 52, 62
3, 1065120, Note_on_c, 0, 52, 0
3, 1065120, Note_on_c, 0, 46, 0
3, 1065120, Note_on_c, 0, 55, 62
3, 1065360, Note_on_c, 0, 55, 0
3, 1066080, Note_on_c, 0, 48, 62
3, 1066080, Note_on_c, 0, 60, 62
3, 1066320, Note_on_c, 0, 60, 0
3, 1066320, Note_on_c, 0, 48, 0
3, 1066320, Note_on_c, 0, 55, 62
3, 1066320, Note_on_c, 0, 58, 62
3, 1066560, Note_on_c, 0, 58, 0
3, 1066560, Note_on_c, 0, 55, 0
3, 1066560, Note_on_c, 0, 50, 88
3, 1066560, Note_on_c, 0, 62, 88
3, 1066800, Note_on_c, 0, 62, 0
3, 1066800, Note_on_c, 0, 50, 0
3, 1066800, Note_on_c, 0, 53, 62
3, 1066800, Note_on_c, 0, 57, 62
3, 1067040, Note_on_c, 0, 57, 0
3, 1067040, Note_on_c, 0, 53, 0
3, 1067040, Note_on_c, 0, 48, 62
3, 1067040, Note_on_c, 0, 60, 62
3, 1067280, Note_on_c, 0, 60, 0
3, 1067280, Note_on_c, 0, 48, 0
3, 1067280, Note_on_c, 0, 53, 62
3, 1067280, Note_on_c, 0, 57, 62
3, 1067520, Note_on_c, 0, 57, 0
3, 1067520, Note_on_c, 0, 53, 0
3, 1067520, Note_on_c, 0, 45, 62
3, 1067520, Note_on_c, 0, 53, 62
3, 1067760, Note_on_c, 0, 53, 0
3, 1067760, Note_on_c, 0, 45, 0
3, 1067760, Note_on_c, 0, 53, 62
3, 1067760, Note_on_c, 0, 57, 62
3, 1068000, Note_on_c, 0, 57, 0
3, 1068000, Note_on_c, 0, 53, 0
3, 1068000, Note_on_c, 0, 48, 62
3, 1068000, Note_on_c, 0, 60, 62
3, 1068240, Note_on_c, 0, 60, 0
3, 1068240, Note_on_c, 0, 48, 0
3, 1068240, Note_on_c, 0, 53, 62
3, 1068240, Note_on_c, 0, 57, 62
3, 1068480, Note_on_c, 0, 57, 0
3, 1068480, Note_on_c, 0, 53, 0
3, 1068480, Note_on_c, 0, 50, 88
3, 1068480, Note_on_c, 0, 62, 88
3, 1068720, Note_on_c, 0, 62, 0
3, 1068720, Note_on_c, 0, 50, 0
3, 1068720, Note_on_c, 0, 53, 62
3, 1068720, Note_on_c, 0, 57, 62
3, 1068960, Note_on_c, 0, 57, 0
3, 1068960, Note_on_c, 0, 53, 0
3, 1068960, Note_on_c, 0, 48, 62
3, 1068960, Note_on_c, 0, 60, 62
3, 1069200, Note_on_c, 0, 60, 0
3, 1069200, Note_on_c, 0, 48, 0
3, 1069200, Note_on_c, 0, 53, 62
3, 1069200, Note_on_c, 0, 57, 62
3, 1069440, Note_on_c, 0, 57, 0
3, 1069440, Note_on_c, 0, 53, 0
3, 1069440, Note_on_c, 0, 45, 62
3, 1069440, Note_on_c, 0, 53, 62
3, 1069680, Note_on_c, 0, 53, 0
3, 1069680, Note_on_c, 0, 45, 0
3, 1069680, Note_on_c, 0, 53, 62
3, 1069680, Note_on_c, 0, 57, 62
3, 1069920, Note_on_c, 0, 57, 0
3, 1069920, Note_on_c, 0, 53, 0
3, 1069920, Note_on_c, 0, 48, 62
3, 1069920, Note_on_c, 0, 60, 62
3, 1070160, Note_on_c, 0, 60, 0
3, 1070160, Note_on_c, 0, 48, 0
3, 1070160, Note_on_c, 0, 53, 62
3, 1070160, Note_on_c, 0, 57, 62
3, 1070400, Note_on_c, 0, 57, 0
3, 1070400, Note_on_c, 0, 53, 0
3, 1070400, Note_on_c, 0, 51, 88
3, 1070400, Note_on_c, 0, 63, 88
3, 1070640, Note_on_c, 0, 63, 0
3, 1070640, Note_on_c, 0, 51, 0
3, 1070640, Note_on_c, 0, 54, 62
3, 1070640, Note_on_c, 0, 57, 62
3, 1070880, Note_on_c, 0, 57, 0
3, 1070880, Note_on_c, 0, 54, 0
3, 1070880, Note_on_c, 0, 50, 62
3, 1070880, Note_on_c, 0, 62, 62
3, 1071120, Note_on_c, 0, 62, 0
3, 1071120, Note_on_c, 0, 50, 0
3, 1071120, Note_on_c, 0, 54, 62
3, 1071120, Note_on_c, 0, 57, 62
3, 1071360, Note_on_c, 0, 57, 0
3, 1071360, Note_on_c, 0, 54, 0
3, 1071360, Note_on_c, 0, 45, 62
3, 1071360, Note_on_c, 0, 54, 62
3, 1071600, Note_on_c, 0, 54, 0
3, 1071600, Note_on_c, 0, 45, 0
3, 1071600, Note_on_c, 0, 54, 62
3, 1071600, Note_on_c, 0, 57, 62
3, 1071840, Note_on_c, 0, 57, 0
3, 1071840, Note_on_c, 0, 54, 0
3, 1071840, Note_on_c, 0, 50, 62
3, 1071840, Note_on_c, 0, 62, 62
3, 1072080, Note_on_c, 0, 62, 0
3, 1072080, Note_on_c, 0, 50, 0
3, 1072080, Note_on_c, 0, 54, 62
3, 1072080, Note_on_c, 0, 57, 62
3, 1072320, Note_on_c, 0, 57, 0
3, 1072320, Note_on_c, 0, 54, 0
3, 1072320, Note_on_c, 0, 53, 88
3, 1072320, Note_on_c, 0, 65, 88
3, 1072560, Note_on_c, 0, 65, 0
3, 1072560, Note_on_c, 0, 53, 0
3, 1072560, Note_on_c, 0, 56, 62
3, 1072560, Note_on_c, 0, 59, 62
3, 1072800, Note_on_c, 0, 59, 0
3, 1072800, Note_on_c, 0, 56, 0
3, 1072800, Note_on_c, 0, 52, 62
3, 1072800, Note_on_c, 0, 64, 62
3, 1073040, Note_on_c, 0, 64, 0
3, 1073040, Note_on_c, 0, 52, 0
3, 1073040, Note_on_c, 0, 56, 62
3, 1073040, Note_on_c, 0, 59, 62
3, 1073280, Note_on_c, 0, 59, 0
3, 1073280, Note_on_c, 0, 56, 0
3, 1073280, Note_on_c, 0, 47, 62
3, 1073280, Note_on_c, 0, 50, 62
3, 1073280, Note_on_c, 0, 56, 62
3, 1073520, Note_on_c, 0, 56, 0
3, 1073520, Note_on_c, 0, 50, 0
3, 1073520, Note_on_c, 0, 47, 0
3, 1073520, Note_on_c, 0, 50, 62
3, 1073520, Note_on_c, 0, 56, 62
3, 1073520, Note_on_c, 0, 59, 62
3, 1073760, Note_on_c, 0, 59, 0
3, 1073760, Note_on_c, 0, 56, 0
3, 1073760, Note_on_c, 0, 50, 0
3, 1073760, Note_on_c, 0, 52, 62
3, 1073760, Note_on_c, 0, 64, 62
3, 1074000, Note_on_c, 0, 64, 0
3, 1074000, Note_on_c, 0, 52, 0
3, 1074000, Note_on_c, 0, 56, 62
3, 1074000, Note_on_c, 0, 59, 62
3, 1074240, Note_on_c, 0, 59, 0
3, 1074240, Note_on_c, 0, 56, 0
3, 1074240, Note_on_c, 0, 53, 114
3, 1074240, Note_on_c, 0, 65, 114
3, 1074480, Note_on_c, 0, 65, 0
3, 1074480, Note_on_c, 0, 53, 0
3, 1074480, Note_on_c, 0, 57, 88
3, 1074480, Note_on_c, 0, 60, 88
3, 1074720, Note_on_c, 0, 60, 0
3, 1074720, Note_on_c, 0, 57, 0
3, 1074720, Note_on_c, 0, 52, 88
3, 1074720, Note_on_c, 0, 64, 88
3, 1074960, Note_on_c, 0, 64, 0
3, 1074960, Note_on_c, 0, 52, 0
3, 1074960, Note_on_c, 0, 57, 88
3, 1074960, Note_on_c, 0, 60, 88
3, 1075200, Note_on_c, 0, 60, 0
3, 1075200, Note_on_c, 0, 57, 0
3, 1075200, Note_on_c, 0, 54, 75
3, 1075440, Note_on_c, 0, 54, 0
3, 1075440, Note_on_c, 0, 48, 75
3, 1075440, Note_on_c, 0, 52, 75
3, 1075680, Note_on_c, 0, 52, 0
3, 1075680, Note_on_c, 0, 48, 0
3, 1075680, Note_on_c, 0, 56, 75
3, 1075920, Note_on_c, 0, 56, 0
3, 1075920, Note_on_c, 0, 57, 75
3, 1076160, Note_on_c, 0, 57, 0
3, 1076160, Note_on_c, 0, 60, 101
3, 1076400, Note_on_c, 0, 60, 0
3, 1076400, Note_on_c, 0, 50, 75
3, 1076400, Note_on_c, 0, 56, 75
3, 1076640, Note_on_c, 0, 56, 0
3, 1076640, Note_on_c, 0, 50, 0
3, 1076640, Note_on_c, 0, 59, 75
3, 1076880, Note_on_c, 0, 59, 0
3, 1077600, Note_on_c, 0, 52, 75
3, 1077600, Note_on_c, 0, 64, 75
3, 1077840, Note_on_c, 0, 64, 0
3, 1077840, Note_on_c, 0, 52, 0
3, 1077840, Note_on_c, 0, 56, 75
3, 1077840, Note_on_c, 0, 59, 75
3, 1078080, Note_on_c, 0, 59, 0
3, 1078080, Note_on_c, 0, 56, 0
3, 1078080, Note_on_c, 0, 53, 114
3, 1078080, Note_on_c, 0, 65, 114
3, 1078320, Note_on_c, 0, 65, 0
3, 1078320, Note_on_c, 0, 53, 0
3, 1078320, Note_on_c, 0, 57, 88
3, 1078320, Note_on_c, 0, 60, 88
3, 1078560, Note_on_c, 0, 60, 0
3, 1078560, Note_on_c, 0, 57, 0
3, 1078560, Note_on_c, 0, 52, 88
3, 1078560, Note_on_c, 0, 64, 88
3, 1078800, Note_on_c, 0, 64, 0
3, 1078800, Note_on_c, 0, 52, 0
3, 1078800, Note_on_c, 0, 57, 88
3, 1078800, Note_on_c, 0, 60, 88
3, 1079040, Note_on_c, 0, 60, 0
3, 1079040, Note_on_c, 0, 57, 0
3, 1079040, Note_on_c, 0, 54, 75
3, 1079280, Note_on_c, 0, 54, 0
3, 1079280, Note_on_c, 0, 48, 75
3, 1079280, Note_on_c, 0, 52, 75
3, 1079520, Note_on_c, 0, 52, 0
3, 1079520, Note_on_c, 0, 48, 0
3, 1079520, Note_on_c, 0, 56, 75
3, 1079760, Note_on_c, 0, 56, 0
3, 1079760, Note_on_c, 0, 57, 75
3, 1080000, Note_on_c, 0, 57, 0
3, 1080000, Note_on_c, 0, 59, 101
3, 1080240, Note_on_c, 0, 59, 0
3, 1080240, Note_on_c, 0, 48, 75
3, 1080240, Note_on_c, 0, 54, 75
3, 1080480, Note_on_c, 0, 54, 0
3, 1080480, Note_on_c, 0, 48, 0
3, 1080480, Note_on_c, 0, 57, 75
3, 1080720, Note_on_c, 0, 57, 0
3, 1081440, Note_on_c, 0, 50, 75
3, 1081440, Note_on_c, 0, 62, 75
3, 1081680, Note_on_c, 0, 62, 0
3, 1081680, Note_on_c, 0, 50, 0
3, 1081680, Note_on_c, 0, 57, 75
3, 1081680, Note_on_c, 0, 60, 75
3, 1081920, Note_on_c, 0, 60, 0
3, 1081920, Note_on_c, 0, 57, 0
3, 1081920, Note_on_c, 0, 52, 101
3, 1081920, Note_on_c, 0, 64, 101
3, 1082160, Note_on_c, 0, 64, 0
3, 1082160, Note_on_c, 0, 52, 0
3, 1082160, Note_on_c, 0, 55, 75
3, 1082160, Note_on_c, 0, 59, 75
3, 1082400, Note_on_c, 0, 59, 0
3, 1082400, Note_on_c, 0, 55, 0
3, 1082400, Note_on_c, 0, 50, 75
3, 1082400, Note_on_c, 0, 62, 75
3, 1082640, Note_on_c, 0, 62, 0
3, 1082640, Note_on_c, 0, 50, 0
3, 1082640, Note_on_c, 0, 55, 75
3, 1082640, Note_on_c, 0, 59, 75
3, 1082880, Note_on_c, 0, 59, 0
3, 1082880, Note_on_c, 0, 55, 0
3, 1082880, Note_on_c, 0, 52, 75
3, 1083120, Note_on_c, 0, 52, 0
3, 1083120, Note_on_c, 0, 47, 75
3, 1083120, Note_on_c, 0, 50, 75
3, 1083360, Note_on_c, 0, 50, 0
3, 1083360, Note_on_c, 0, 47, 0
3, 1083360, Note_on_c, 0, 54, 75
3, 1083600, Note_on_c, 0, 54, 0
3, 1083600, Note_on_c, 0, 55, 75
3, 1083840, Note_on_c, 0, 55, 0
3, 1083840, Note_on_c, 0, 59, 101
3, 1084080, Note_on_c, 0, 59, 0
3, 1084080, Note_on_c, 0, 48, 75
3, 1084080, Note_on_c, 0, 54, 75
3, 1084320, Note_on_c, 0, 54, 0
3, 1084320, Note_on_c, 0, 48, 0
3, 1084320, Note_on_c, 0, 57, 75
3, 1084560, Note_on_c, 0, 57, 0
3, 1085280, Note_on_c, 0, 50, 75
3, 1085280, Note_on_c, 0, 62, 75
3, 1085520, Note_on_c, 0, 62, 0
3, 1085520, Note_on_c, 0, 50, 0
3, 1085520, Note_on_c, 0, 57, 75
3, 1085520, Note_on_c, 0, 60, 75
3, 1085760, Note_on_c, 0, 60, 0
3, 1085760, Note_on_c, 0, 57, 0
3, 1085760, Note_on_c, 0, 52, 101
3, 1085760, Note_on_c, 0, 64, 101
3, 1086000, Note_on_c, 0, 64, 0
3, 1086000, Note_on_c, 0, 52, 0
3, 1086000, Note_on_c, 0, 55, 75
3, 1086000, Note_on_c, 0, 59, 75
3, 1086240, Note_on_c, 0, 59, 0
3, 1086240, Note_on_c, 0, 55, 0
3, 1086240, Note_on_c, 0, 50, 75
3, 1086240, Note_on_c, 0, 62, 75
3, 1086480, Note_on_c, 0, 62, 0
3, 1086480, Note_on_c, 0, 50, 0
3, 1086480, Note_on_c, 0, 55, 75
3, 1086480, Note_on_c, 0, 59, 75
3, 1086720, Note_on_c, 0, 59, 0
3, 1086720, Note_on_c, 0, 55, 0
3, 1086720, Note_on_c, 0, 47, 75
3, 1086720, Note_on_c, 0, 55, 75
3, 1086960, Note_on_c, 0, 55, 0
3, 1086960, Note_on_c, 0, 47, 0
3, 1086960, Note_on_c, 0, 55, 75
3, 1086960, Note_on_c, 0, 59, 75
3, 1087200, Note_on_c, 0, 59, 0
3, 1087200, Note_on_c, 0, 55, 0
3, 1087200, Note_on_c, 0, 50, 75
3, 1087200, Note_on_c, 0, 62, 75
3, 1087440, Note_on_c, 0, 62, 0
3, 1087440, Note_on_c, 0, 50, 0
3, 1087440, Note_on_c, 0, 55, 75
3, 1087440, Note_on_c, 0, 59, 75
3, 1087680, Note_on_c, 0, 59, 0
3, 1087680, Note_on_c, 0, 55, 0
3, 1087680, Note_on_c, 0, 52, 101
3, 1087680, Note_on_c, 0, 64, 101
3, 1087920, Note_on_c, 0, 64, 0
3, 1087920, Note_on_c, 0, 52, 0
3, 1087920, Note_on_c, 0, 55, 75
3, 1087920, Note_on_c, 0, 59, 75
3, 1088160, Note_on_c, 0, 59, 0
3, 1088160, Note_on_c, 0, 55, 0
3, 1088160, Note_on_c, 0, 50, 75
3, 1088160, Note_on_c, 0, 62, 75
3, 1088400, Note_on_c, 0, 62, 0
3, 1088400, Note_on_c, 0, 50, 0
3, 1088400, Note_on_c, 0, 55, 75
3, 1088400, Note_on_c, 0, 59, 75
3, 1088640, Note_on_c, 0, 59, 0
3, 1088640, Note_on_c, 0, 55, 0
3, 1088640, Note_on_c, 0, 47, 75
3, 1088640, Note_on_c, 0, 55, 75
3, 1088880, Note_on_c, 0, 55, 0
3, 1088880, Note_on_c, 0, 47, 0
3, 1088880, Note_on_c, 0, 55, 75
3, 1088880, Note_on_c, 0, 59, 75
3, 1089120, Note_on_c, 0, 59, 0
3, 1089120, Note_on_c, 0, 55, 0
3, 1089120, Note_on_c, 0, 50, 75
3, 1089120, Note_on_c, 0, 62, 75
3, 1089360, Note_on_c, 0, 62, 0
3, 1089360, Note_on_c, 0, 50, 0
3, 1089360, Note_on_c, 0, 55, 75
3, 1089360, Note_on_c, 0, 59, 75
3, 1089600, Note_on_c, 0, 59, 0
3, 1089600, Note_on_c, 0, 55, 0
3, 1089600, Note_on_c, 0, 53, 101
3, 1089600, Note_on_c, 0, 65, 101
3, 1089840, Note_on_c, 0, 65, 0
3, 1089840, Note_on_c, 0, 53, 0
3, 1089840, Note_on_c, 0, 56, 75
3, 1089840, Note_on_c, 0, 59, 75
3, 1090080, Note_on_c, 0, 59, 0
3, 1090080, Note_on_c, 0, 56, 0
3, 1090080, Note_on_c, 0, 52, 75
3, 1090080, Note_on_c, 0, 64, 75
3, 1090320, Note_on_c, 0, 64, 0
3, 1090320, Note_on_c, 0, 52, 0
3, 1090320, Note_on_c, 0, 56, 75
3, 1090320, Note_on_c, 0, 59, 75
3, 1090560, Note_on_c, 0, 59, 0
3, 1090560, Note_on_c, 0, 56, 0
3, 1090560, Note_on_c, 0, 47, 75
3, 1090560, Note_on_c, 0, 50, 75
3, 1090560, Note_on_c, 0, 56, 75
3, 1090800, Note_on_c, 0, 56, 0
3, 1090800, Note_on_c, 0, 50, 0
3, 1090800, Note_on_c, 0, 47, 0
3, 1090800, Note_on_c, 0, 50, 75
3, 1090800, Note_on_c, 0, 56, 75
3, 1090800, Note_on_c, 0, 59, 75
3, 1091040, Note_on_c, 0, 59, 0
3, 1091040, Note_on_c, 0, 56, 0
3, 1091040, Note_on_c, 0, 50, 0
3, 1091040, Note_on_c, 0, 52, 75
3, 1091040, Note_on_c, 0, 64, 75
3, 1091280, Note_on_c, 0, 64, 0
3, 1091280, Note_on_c, 0, 52, 0
3, 1091280, Note_on_c, 0, 56, 75
3, 1091280, Note_on_c, 0, 59, 75
3, 1091520, Note_on_c, 0, 59, 0
3, 1091520, Note_on_c, 0, 56, 0
3, 1091520, Note_on_c, 0, 53, 101
3, 1091520, Note_on_c, 0, 65, 101
3, 1091760, Note_on_c, 0, 65, 0
3, 1091760, Note_on_c, 0, 53, 0
3, 1091760, Note_on_c, 0, 56, 75
3, 1091760, Note_on_c, 0, 59, 75
3, 1092000, Note_on_c, 0, 59, 0
3, 1092000, Note_on_c, 0, 56, 0
3, 1092000, Note_on_c, 0, 52, 75
3, 1092000, Note_on_c, 0, 64, 75
3, 1092240, Note_on_c, 0, 64, 0
3, 1092240, Note_on_c, 0, 52, 0
3, 1092240, Note_on_c, 0, 56, 75
3, 1092240, Note_on_c, 0, 59, 75
3, 1092480, Note_on_c, 0, 59, 0
3, 1092480, Note_on_c, 0, 56, 0
3, 1092480, Note_on_c, 0, 47, 75
3, 1092480, Note_on_c, 0, 50, 75
3, 1092480, Note_on_c, 0, 56, 75
3, 1092720, Note_on_c, 0, 56, 0
3, 1092720, Note_on_c, 0, 50, 0
3, 1092720, Note_on_c, 0, 47, 0
3, 1092720, Note_on_c, 0, 50, 75
3, 1092720, Note_on_c, 0, 56, 75
3, 1092720, Note_on_c, 0, 59, 75
3, 1092960, Note_on_c, 0, 59, 0
3, 1092960, Note_on_c, 0, 56, 0
3, 1092960, Note_on_c, 0, 50, 0
3, 1092960, Note_on_c, 0, 52, 75
3, 1092960, Note_on_c, 0, 64, 75
3, 1093200, Note_on_c, 0, 64, 0
3, 1093200, Note_on_c, 0, 52, 0
3, 1093200, Note_on_c, 0, 56, 75
3, 1093200, Note_on_c, 0, 59, 75
3, 1093440, Note_on_c, 0, 59, 0
3, 1093440, Note_on_c, 0, 56, 0
3, 1093440, Note_on_c, 0, 53, 101
3, 1093440, Note_on_c, 0, 65, 101
3, 1093680, Note_on_c, 0, 65, 0
3, 1093680, Note_on_c, 0, 53, 0
3, 1093680, Note_on_c, 0, 57, 75
3, 1093680, Note_on_c, 0, 60, 75
3, 1093920, Note_on_c, 0, 60, 0
3, 1093920, Note_on_c, 0, 57, 0
3, 1093920, Note_on_c, 0, 52, 75
3, 1093920, Note_on_c, 0, 64, 75
3, 1094160, Note_on_c, 0, 64, 0
3, 1094160, Note_on_c, 0, 52, 0
3, 1094160, Note_on_c, 0, 57, 75
3, 1094160, Note_on_c, 0, 60, 75
3, 1094400, Note_on_c, 0, 60, 0
3, 1094400, Note_on_c, 0, 57, 0
3, 1094400, Note_on_c, 0, 48, 75
3, 1094400, Note_on_c, 0, 57, 75
3, 1094640, Note_on_c, 0, 57, 0
3, 1094640, Note_on_c, 0, 48, 0
3, 1094640, Note_on_c, 0, 57, 75
3, 1094640, Note_on_c, 0, 60, 75
3, 1094880, Note_on_c, 0, 60, 0
3, 1094880, Note_on_c, 0, 57, 0
3, 1094880, Note_on_c, 0, 52, 75
3, 1094880, Note_on_c, 0, 64, 75
3, 1095120, Note_on_c, 0, 64, 0
3, 1095120, Note_on_c, 0, 52, 0
3, 1095120, Note_on_c, 0, 57, 75
3, 1095120, Note_on_c, 0, 60, 75
3, 1095360, Note_on_c, 0, 60, 0
3, 1095360, Note_on_c, 0, 57, 0
3, 1095360, Note_on_c, 0, 55, 101
3, 1095360, Note_on_c, 0, 67, 101
3, 1095600, Note_on_c, 0, 67, 0
3, 1095600, Note_on_c, 0, 55, 0
3, 1095600, Note_on_c, 0, 58, 75
3, 1095600, Note_on_c, 0, 61, 75
3, 1095840, Note_on_c, 0, 61, 0
3, 1095840, Note_on_c, 0, 58, 0
3, 1095840, Note_on_c, 0, 54, 75
3, 1095840, Note_on_c, 0, 66, 75
3, 1096080, Note_on_c, 0, 66, 0
3, 1096080, Note_on_c, 0, 54, 0
3, 1096080, Note_on_c, 0, 58, 75
3, 1096080, Note_on_c, 0, 61, 75
3, 1096320, Note_on_c, 0, 61, 0
3, 1096320, Note_on_c, 0, 58, 0
3, 1096320, Note_on_c, 0, 49, 75
3, 1096320, Note_on_c, 0, 52, 75
3, 1096320, Note_on_c, 0, 58, 75
3, 1096560, Note_on_c, 0, 58, 0
3, 1096560, Note_on_c, 0, 52, 0
3, 1096560, Note_on_c, 0, 49, 0
3, 1096560, Note_on_c, 0, 52, 75
3, 1096560, Note_on_c, 0, 58, 75
3, 1096560, Note_on_c, 0, 61, 75
3, 1096800, Note_on_c, 0, 61, 0
3, 1096800, Note_on_c, 0, 58, 0
3, 1096800, Note_on_c, 0, 52, 0
3, 1096800, Note_on_c, 0, 54, 75
3, 1096800, Note_on_c, 0, 66, 75
3, 1097040, Note_on_c, 0, 66, 0
3, 1097040, Note_on_c, 0, 54, 0
3, 1097040, Note_on_c, 0, 58, 75
3, 1097040, Note_on_c, 0, 61, 75
3, 1097280, Note_on_c, 0, 61, 0
3, 1097280, Note_on_c, 0, 58, 0
3, 1097280, Note_on_c, 0, 55, 101
3, 1097280, Note_on_c, 0, 67, 101
3, 1097520, Note_on_c, 0, 67, 0
3, 1097520, Note_on_c, 0, 55, 0
3, 1097520, Note_on_c, 0, 59, 75
3, 1097520, Note_on_c, 0, 62, 75
3, 1097760, Note_on_c, 0, 62, 0
3, 1097760, Note_on_c, 0, 59, 0
3, 1097760, Note_on_c, 0, 54, 75
3, 1097760, Note_on_c, 0, 66, 75
3, 1098000, Note_on_c, 0, 66, 0
3, 1098000, Note_on_c, 0, 54, 0
3, 1098000, Note_on_c, 0, 59, 75
3, 1098000, Note_on_c, 0, 62, 75
3, 1098240, Note_on_c, 0, 62, 0
3, 1098240, Note_on_c, 0, 59, 0
3, 1098240, Note_on_c, 0, 50, 75
3, 1098240, Note_on_c, 0, 59, 75
3, 1098480, Note_on_c, 0, 59, 0
3, 1098480, Note_on_c, 0, 50, 0
3, 1098480, Note_on_c, 0, 59, 75
3, 1098480, Note_on_c, 0, 62, 75
3, 1098720, Note_on_c, 0, 62, 0
3, 1098720, Note_on_c, 0, 59, 0
3, 1098720, Note_on_c, 0, 54, 75
3, 1098720, Note_on_c, 0, 66, 75
3, 1098960, Note_on_c, 0, 66, 0
3, 1098960, Note_on_c, 0, 54, 0
3, 1098960, Note_on_c, 0, 59, 75
3, 1098960, Note_on_c, 0, 62, 75
3, 1099200, Note_on_c, 0, 62, 0
3, 1099200, Note_on_c, 0, 59, 0
3, 1099200, Note_on_c, 0, 57, 101
3, 1099200, Note_on_c, 0, 69, 101
3, 1099440, Note_on_c, 0, 69, 0
3, 1099440, Note_on_c, 0, 57, 0
3, 1099440, Note_on_c, 0, 60, 75
3, 1099440, Note_on_c, 0, 63, 75
3, 1099680, Note_on_c, 0, 63, 0
3, 1099680, Note_on_c, 0, 60, 0
3, 1099680, Note_on_c, 0, 56, 75
3, 1099680, Note_on_c, 0, 68, 75
3, 1099920, Note_on_c, 0, 68, 0
3, 1099920, Note_on_c, 0, 56, 0
3, 1099920, Note_on_c, 0, 60, 75
3, 1099920, Note_on_c, 0, 63, 75
3, 1100160, Note_on_c, 0, 63, 0
3, 1100160, Note_on_c, 0, 60, 0
3, 1100160, Note_on_c, 0, 51, 75
3, 1100160, Note_on_c, 0, 54, 75
3, 1100160, Note_on_c, 0, 60, 75
3, 1100400, Note_on_c, 0, 60, 0
3, 1100400, Note_on_c, 0, 54, 0
3, 1100400, Note_on_c, 0, 51, 0
3, 1100400, Note_on_c, 0, 54, 75
3, 1100400, Note_on_c, 0, 60, 75
3, 1100400, Note_on_c, 0, 63, 75
3, 1100640, Note_on_c, 0, 63, 0
3, 1100640, Note_on_c, 0, 60, 0
3, 1100640, Note_on_c, 0, 54, 0
3, 1100640, Note_on_c, 0, 56, 75
3, 1100640, Note_on_c, 0, 68, 75
3, 1100880, Note_on_c, 0, 68, 0
3, 1100880, Note_on_c, 0, 56, 0
3, 1100880, Note_on_c, 0, 60, 75
3, 1100880, Note_on_c, 0, 63, 75
3, 1101120, Note_on_c, 0, 63, 0
3, 1101120, Note_on_c, 0, 60, 0
3, 1101120, Note_on_c, 0, 57, 75
3, 1101120, Note_on_c, 0, 69, 75
3, 1101360, Note_on_c, 0, 69, 0
3, 1101360, Note_on_c, 0, 57, 0
3, 1101360, Note_on_c, 0, 61, 75
3, 1101360, Note_on_c, 0, 64, 75
3, 1101600, Note_on_c, 0, 64, 0
3, 1101600, Note_on_c, 0, 61, 0
3, 1101600, Note_on_c, 0, 56, 75
3, 1101600, Note_on_c, 0, 68, 75
3, 1101840, Note_on_c, 0, 68, 0
3, 1101840, Note_on_c, 0, 56, 0
3, 1101840, Note_on_c, 0, 61, 75
3, 1101840, Note_on_c, 0, 64, 75
3, 1102080, Note_on_c, 0, 64, 0
3, 1102080, Note_on_c, 0, 61, 0
3, 1102080, Note_on_c, 0, 52, 75
3, 1102080, Note_on_c, 0, 61, 75
3, 1102320, Note_on_c, 0, 61, 0
3, 1102320, Note_on_c, 0, 52, 0
3, 1102320, Note_on_c, 0, 61, 75
3, 1102320, Note_on_c, 0, 64, 75
3, 1102560, Note_on_c, 0, 64, 0
3, 1102560, Note_on_c, 0, 61, 0
3, 1102680, Note_on_c, 0, 64, 75
3, 1102800, Note_on_c, 0, 64, 0
3, 1102800, Note_on_c, 0, 61, 75
3, 1102920, Note_on_c, 0, 61, 0
3, 1102920, Note_on_c, 0, 56, 75
3, 1103040, Note_on_c, 0, 56, 0
3, 1103160, Note_on_c, 0, 64, 75
3, 1103400, Note_on_c, 0, 64, 0
3, 1103400, Note_on_c, 0, 64, 75
3, 1103520, Note_on_c, 0, 64, 0
3, 1103640, Note_on_c, 0, 64, 75
3, 1103760, Note_on_c, 0, 64, 0
3, 1103760, Note_on_c, 0, 61, 75
3, 1103880, Note_on_c, 0, 61, 0
3, 1103880, Note_on_c, 0, 55, 75
3, 1104000, Note_on_c, 0, 55, 0
3, 1104000, Note_on_c, 0, 52, 75
3, 1104120, Note_on_c, 0, 52, 0
3, 1104120, Note_on_c, 0, 55, 75
3, 1104240, Note_on_c, 0, 55, 0
3, 1104240, Note_on_c, 0, 61, 75
3, 1104360, Note_on_c, 0, 61, 0
3, 1104360, Note_on_c, 0, 64, 75
3, 1104480, Note_on_c, 0, 64, 0
3, 1104600, Note_on_c, 0, 64, 75
3, 1104720, Note_on_c, 0, 64, 0
3, 1104720, Note_on_c, 0, 61, 75
3, 1104840, Note_on_c, 0, 61, 0
3, 1104840, Note_on_c, 0, 56, 75
3, 1104960, Note_on_c, 0, 56, 0
3, 1105080, Note_on_c, 0, 64, 75
3, 1105200, Note_on_c, 0, 64, 0
3, 1105200, Note_on_c, 0, 61, 75
3, 1105320, Note_on_c, 0, 61, 0
3, 1105320, Note_on_c, 0, 58, 75
3, 1105440, Note_on_c, 0, 58, 0
3, 1105440, Note_on_c, 0, 61, 75
3, 1105560, Note_on_c, 0, 61, 0
3, 1105560, Note_on_c, 0, 58, 75
3, 1105680, Note_on_c, 0, 58, 0
3, 1105680, Note_on_c, 0, 51, 75
3, 1105800, Note_on_c, 0, 51, 0
3, 1105800, Note_on_c, 0, 49, 75
3, 1105920, Note_on_c, 0, 49, 0
3, 1105920, Note_on_c, 0, 51, 75
3, 1106040, Note_on_c, 0, 51, 0
3, 1106040, Note_on_c, 0, 58, 75
3, 1106160, Note_on_c, 0, 58, 0
3, 1106160, Note_on_c, 0, 61, 75
3, 1106280, Note_on_c, 0, 61, 0
3, 1106280, Note_on_c, 0, 64, 75
3, 1106400, Note_on_c, 0, 64, 0
3, 1106520, Note_on_c, 0, 66, 75
3, 1106640, Note_on_c, 0, 66, 0
3, 1106640, Note_on_c, 0, 63, 75
3, 1106760, Note_on_c, 0, 63, 0
3, 1106760, Note_on_c, 0, 58, 75
3, 1106880, Note_on_c, 0, 58, 0
3, 1107000, Note_on_c, 0, 66, 75
3, 1107240, Note_on_c, 0, 66, 0
3, 1107240, Note_on_c, 0, 66, 75
3, 1107360, Note_on_c, 0, 66, 0
3, 1107480, Note_on_c, 0, 66, 75
3, 1107600, Note_on_c, 0, 66, 0
3, 1107600, Note_on_c, 0, 63, 75
3, 1107720, Note_on_c, 0, 63, 0
3, 1107720, Note_on_c, 0, 57, 75
3, 1107840, Note_on_c, 0, 57, 0
3, 1107840, Note_on_c, 0, 54, 75
3, 1107960, Note_on_c, 0, 54, 0
3, 1107960, Note_on_c, 0, 57, 75
3, 1108080, Note_on_c, 0, 57, 0
3, 1108080, Note_on_c, 0, 63, 75
3, 1108200, Note_on_c, 0, 63, 0
3, 1108200, Note_on_c, 0, 66, 75
3, 1108320, Note_on_c, 0, 66, 0
3, 1108440, Note_on_c, 0, 66, 75
3, 1108560, Note_on_c, 0, 66, 0
3, 1108560, Note_on_c, 0, 63, 75
3, 1108680, Note_on_c, 0, 63, 0
3, 1108680, Note_on_c, 0, 58, 75
3, 1108800, Note_on_c, 0, 58, 0
3, 1108920, Note_on_c, 0, 66, 75
3, 1109040, Note_on_c, 0, 66, 0
3, 1109040, Note_on_c, 0, 63, 75
3, 1109160, Note_on_c, 0, 63, 0
3, 1109160, Note_on_c, 0, 60, 75
3, 1109280, Note_on_c, 0, 60, 0
3, 1109280, Note_on_c, 0, 63, 75
3, 1109400, Note_on_c, 0, 63, 0
3, 1109400, Note_on_c, 0, 60, 75
3, 1109520, Note_on_c, 0, 60, 0
3, 1109520, Note_on_c, 0, 54, 75
3, 1109640, Note_on_c, 0, 54, 0
3, 1109640, Note_on_c, 0, 51, 75
3, 1109760, Note_on_c, 0, 51, 0
3, 1109760, Note_on_c, 0, 54, 75
3, 1109880, Note_on_c, 0, 54, 0
3, 1109880, Note_on_c, 0, 60, 75
3, 1110000, Note_on_c, 0, 60, 0
3, 1110000, Note_on_c, 0, 63, 75
3, 1110120, Note_on_c, 0, 63, 0
3, 1110120, Note_on_c, 0, 66, 75
3, 1110240, Note_on_c, 0, 66, 0
3, 1110360, Note_on_c, 0, 68, 75
3, 1110480, Note_on_c, 0, 68, 0
3, 1110480, Note_on_c, 0, 65, 75
3, 1110600, Note_on_c, 0, 65, 0
3, 1110600, Note_on_c, 0, 60, 75
3, 1110720, Note_on_c, 0, 60, 0
3, 1110840, Note_on_c, 0, 68, 75
3, 1111080, Note_on_c, 0, 68, 0
3, 1111080, Note_on_c, 0, 68, 75
3, 1111200, Note_on_c, 0, 68, 0
3, 1111320, Note_on_c, 0, 68, 75
3, 1111440, Note_on_c, 0, 68, 0
3, 1111440, Note_on_c, 0, 65, 75
3, 1111560, Note_on_c, 0, 65, 0
3, 1111560, Note_on_c, 0, 59, 75
3, 1111680, Note_on_c, 0, 59, 0
3, 1111680, Note_on_c, 0, 56, 75
3, 1111800, Note_on_c, 0, 56, 0
3, 1111800, Note_on_c, 0, 59, 75
3, 1111920, Note_on_c, 0, 59, 0
3, 1111920, Note_on_c, 0, 65, 75
3, 1112040, Note_on_c, 0, 65, 0
3, 1112040, Note_on_c, 0, 68, 75
3, 1112160, Note_on_c, 0, 68, 0
3, 1112280, Note_on_c, 0, 68, 75
3, 1112400, Note_on_c, 0, 68, 0
3, 1112400, Note_on_c, 0, 65, 75
3, 1112520, Note_on_c, 0, 65, 0
3, 1112520, Note_on_c, 0, 62, 75
3, 1112640, Note_on_c, 0, 62, 0
3, 1112760, Note_on_c, 0, 70, 75
3, 1113000, Note_on_c, 0, 70, 0
3, 1113000, Note_on_c, 0, 69, 75
3, 1113120, Note_on_c, 0, 69, 0
3, 1113240, Note_on_c, 0, 70, 75
3, 1113360, Note_on_c, 0, 70, 0
3, 1113360, Note_on_c, 0, 67, 75
3, 1113480, Note_on_c, 0, 67, 0
3, 1113480, Note_on_c, 0, 61, 75
3, 1113600, Note_on_c, 0, 61, 0
3, 1113600, Note_on_c, 0, 58, 75
3, 1113720, Note_on_c, 0, 58, 0
3, 1113720, Note_on_c, 0, 61, 75
3, 1113840, Note_on_c, 0, 61, 0
3, 1113840, Note_on_c, 0, 67, 75
3, 1113960, Note_on_c, 0, 67, 0
3, 1113960, Note_on_c, 0, 70, 75
3, 1114080, Note_on_c, 0, 70, 0
3, 1114200, Note_on_c, 0, 70, 75
3, 1114320, Note_on_c, 0, 70, 0
3, 1114320, Note_on_c, 0, 67, 75
3, 1114440, Note_on_c, 0, 67, 0
3, 1114440, Note_on_c, 0, 64, 75
3, 1114560, Note_on_c, 0, 64, 0
3, 1114680, Note_on_c, 0, 72, 75
3, 1114920, Note_on_c, 0, 72, 0
3, 1114920, Note_on_c, 0, 71, 75
3, 1115040, Note_on_c, 0, 71, 0
3, 1115160, Note_on_c, 0, 72, 75
3, 1115280, Note_on_c, 0, 72, 0
3, 1115280, Note_on_c, 0, 69, 75
3, 1115400, Note_on_c, 0, 69, 0
3, 1115400, Note_on_c, 0, 63, 75
3, 1115520, Note_on_c, 0, 63, 0
3, 1115640, Note_on_c, 0, 73, 75
3, 1115880, Note_on_c, 0, 73, 0
3, 1115880, Note_on_c, 0, 72, 75
3, 1116120, Note_on_c, 0, 72, 0
3, 1116120, Note_on_c, 0, 73, 75
3, 1116240, Note_on_c, 0, 73, 0
3, 1116240, Note_on_c, 0, 70, 75
3, 1116360, Note_on_c, 0, 70, 0
3, 1116360, Note_on_c, 0, 64, 75
3, 1116480, Note_on_c, 0, 64, 0
3, 1116600, Note_on_c, 0, 74, 75
3, 1116840, Note_on_c, 0, 74, 0
3, 1116840, Note_on_c, 0, 73, 75
3, 1117080, Note_on_c, 0, 73, 0
3, 1117080, Note_on_c, 0, 74, 75
3, 1117200, Note_on_c, 0, 74, 0
3, 1117200, Note_on_c, 0, 71, 75
3, 1117320, Note_on_c, 0, 71, 0
3, 1117320, Note_on_c, 0, 65, 75
3, 1117440, Note_on_c, 0, 65, 0
3, 1117560, Note_on_c, 0, 75, 75
3, 1117800, Note_on_c, 0, 75, 0
3, 1117800, Note_on_c, 0, 74, 75
3, 1118040, Note_on_c, 0, 74, 0
3, 1118040, Note_on_c, 0, 75, 75
3, 1118160, Note_on_c, 0, 75, 0
3, 1118160, Note_on_c, 0, 72, 75
3, 1118280, Note_on_c, 0, 72, 0
3, 1118280, Note_on_c, 0, 66, 75
3, 1118400, Note_on_c, 0, 66, 0
3, 1118520, Note_on_c, 0, 76, 75
3, 1118760, Note_on_c, 0, 76, 0
3, 1118760, Note_on_c, 0, 75, 75
3, 1118880, Note_on_c, 0, 75, 0
3, 1119000, Note_on_c, 0, 76, 75
3, 1119120, Note_on_c, 0, 76, 0
3, 1119120, Note_on_c, 0, 73, 75
3, 1119240, Note_on_c, 0, 73, 0
3, 1119240, Note_on_c, 0, 67, 75
3, 1119360, Note_on_c, 0, 67, 0
3, 1119360, Note_on_c, 0, 64, 75
3, 1119480, Note_on_c, 0, 64, 0
3, 1119480, Note_on_c, 0, 67, 75
3, 1119600, Note_on_c, 0, 67, 0
3, 1119600, Note_on_c, 0, 73, 75
3, 1119720, Note_on_c, 0, 73, 0
3, 1119720, Note_on_c, 0, 76, 75
3, 1119840, Note_on_c, 0, 76, 0
3, 1119960, Note_on_c, 0, 76, 75
3, 1120080, Note_on_c, 0, 76, 0
3, 1120080, Note_on_c, 0, 73, 75
3, 1120200, Note_on_c, 0, 73, 0
3, 1120200, Note_on_c, 0, 67, 75
3, 1120320, Note_on_c, 0, 67, 0
3, 1120440, Note_on_c, 0, 79, 75
3, 1120680, Note_on_c, 0, 79, 0
3, 1120680, Note_on_c, 0, 78, 75
3, 1120800, Note_on_c, 0, 78, 0
3, 1120920, Note_on_c, 0, 79, 75
3, 1121040, Note_on_c, 0, 79, 0
3, 1121040, Note_on_c, 0, 73, 75
3, 1121160, Note_on_c, 0, 73, 0
3, 1121160, Note_on_c, 0, 70, 75
3, 1121280, Note_on_c, 0, 70, 0
3, 1121280, Note_on_c, 0, 67, 75
3, 1121400, Note_on_c, 0, 67, 0
3, 1121400, Note_on_c, 0, 70, 75
3, 1121520, Note_on_c, 0, 70, 0
3, 1121520, Note_on_c, 0, 73, 75
3, 1121640, Note_on_c, 0, 73, 0
3, 1121640, Note_on_c, 0, 79, 75
3, 1121760, Note_on_c, 0, 79, 0
3, 1121880, Note_on_c, 0, 79, 75
3, 1122000, Note_on_c, 0, 79, 0
3, 1122000, Note_on_c, 0, 82, 75
3, 1122120, Note_on_c, 0, 82, 0
3, 1124520, Note_on_c, 0, 50, 101
3, 1124520, Note_on_c, 0, 55, 101
3, 1124520, Note_on_c, 0, 58, 101
3, 1124640, Note_on_c, 0, 58, 0
3, 1124640, Note_on_c, 0, 55, 0
3, 1124640, Note_on_c, 0, 50, 0
3, 1124760, Note_on_c, 0, 46, 101
3, 1124760, Note_on_c, 0, 50, 101
3, 1124760, Note_on_c, 0, 55, 101
3, 1124880, Note_on_c, 0, 55, 0
3, 1124880, Note_on_c, 0, 50, 0
3, 1124880, Note_on_c, 0, 46, 0
3, 1125000, Note_on_c, 0, 43, 101
3, 1125000, Note_on_c, 0, 46, 101
3, 1125000, Note_on_c, 0, 50, 101
3, 1125120, Note_on_c, 0, 50, 0
3, 1125120, Note_on_c, 0, 46, 0
3, 1125120, Note_on_c, 0, 43, 0
3, 1125240, Note_on_c, 0, 50, 101
3, 1125240, Note_on_c, 0, 55, 101
3, 1125240, Note_on_c, 0, 58, 101
3, 1125360, Note_on_c, 0, 58, 0
3, 1125360, Note_on_c, 0, 55, 0
3, 1125360, Note_on_c, 0, 50, 0
3, 1125480, Note_on_c, 0, 46, 101
3, 1125480, Note_on_c, 0, 50, 101
3, 1125480, Note_on_c, 0, 55, 101
3, 1125600, Note_on_c, 0, 55, 0
3, 1125600, Note_on_c, 0, 50, 0
3, 1125600, Note_on_c, 0, 46, 0
3, 1125720, Note_on_c, 0, 43, 101
3, 1125720, Note_on_c, 0, 46, 101
3, 1125720, Note_on_c, 0, 50, 101
3, 1125840, Note_on_c, 0, 50, 0
3, 1125840, Note_on_c, 0, 46, 0
3, 1125840, Note_on_c, 0, 43, 0
3, 1125960, Note_on_c, 0, 38, 101
3, 1125960, Note_on_c, 0, 43, 101
3, 1125960, Note_on_c, 0, 46, 101
3, 1126080, Note_on_c, 0, 46, 0
3, 1126080, Note_on_c, 0, 43, 0
3, 1126080, Note_on_c, 0, 38, 0
3, 1128840, Note_on_c, 0, 31, 101
3, 1128840, Note_on_c, 0, 34, 101
3, 1128840, Note_on_c, 0, 38, 101
3, 1128960, Note_on_c, 0, 38, 0
3, 1128960, Note_on_c, 0, 34, 0
3, 1128960, Note_on_c, 0, 31, 0
3, 1129080, Note_on_c, 0, 38, 101
3, 1129080, Note_on_c, 0, 43, 101
3, 1129080, Note_on_c, 0, 46, 101
3, 1129200, Note_on_c, 0, 46, 0
3, 1129200, Note_on_c, 0, 43, 0
3, 1129200, Note_on_c, 0, 38, 0
3, 1129320, Note_on_c, 0, 34, 101
3, 1129320, Note_on_c, 0, 38, 101
3, 1129320, Note_on_c, 0, 43, 101
3, 1129440, Note_on_c, 0, 43, 0
3, 1129440, Note_on_c, 0, 38, 0
3, 1129440, Note_on_c, 0, 34, 0
3, 1129560, Note_on_c, 0, 31, 101
3, 1129560, Note_on_c, 0, 34, 101
3, 1129560, Note_on_c, 0, 38, 101
3, 1129680, Note_on_c, 0, 38, 0
3, 1129680, Note_on_c, 0, 34, 0
3, 1129680, Note_on_c, 0, 31, 0
3, 1129800, Note_on_c, 0, 26, 101
3, 1129800, Note_on_c, 0, 31, 101
3, 1129800, Note_on_c, 0, 34, 101
3, 1129920, Note_on_c, 0, 34, 0
3, 1129920, Note_on_c, 0, 31, 0
3, 1129920, Note_on_c, 0, 26, 0
3, 1133760, Note_on_c, 0, 26, 101
3, 1134000, Note_on_c, 0, 26, 0
3, 1134000, Note_on_c, 0, 38, 101
3, 1134047, Note_on_c, 0, 38, 0
3, 1134240, Note_on_c, 0, 37, 101
3, 1134287, Note_on_c, 0, 37, 0
3, 1134480, Note_on_c, 0, 36, 101
3, 1134527, Note_on_c, 0, 36, 0
3, 1134720, Note_on_c, 0, 34, 101
3, 1134767, Note_on_c, 0, 34, 0
3, 1134960, Note_on_c, 0, 33, 101
3, 1135007, Note_on_c, 0, 33, 0
3, 1135200, Note_on_c, 0, 31, 101
3, 1135247, Note_on_c, 0, 31, 0
3, 1135440, Note_on_c, 0, 27, 101
3, 1135440, Note_on_c, 0, 39, 101
3, 1135487, Note_on_c, 0, 39, 0
3, 1135487, Note_on_c, 0, 27, 0
3, 1135680, Note_on_c, 0, 26, 101
3, 1135680, Note_on_c, 0, 38, 101
3, 1135727, Note_on_c, 0, 38, 0
3, 1135727, Note_on_c, 0, 26, 0
3, 1135920, Note_on_c, 0, 38, 101
3, 1135967, Note_on_c, 0, 38, 0
3, 1136160, Note_on_c, 0, 37, 101
3, 1136160, Note_on_c, 0, 49, 101
3, 1136207, Note_on_c, 0, 49, 0
3, 1136207, Note_on_c, 0, 37, 0
3, 1136400, Note_on_c, 0, 36, 101
3, 1136400, Note_on_c, 0, 48, 101
3, 1136447, Note_on_c, 0, 48, 0
3, 1136447, Note_on_c, 0, 36, 0
3, 1136640, Note_on_c, 0, 34, 101
3, 1136640, Note_on_c, 0, 46, 101
3, 1136687, Note_on_c, 0, 46, 0
3, 1136687, Note_on_c, 0, 34, 0
3, 1136880, Note_on_c, 0, 33, 101
3, 1136880, Note_on_c, 0, 45, 101
3, 1136927, Note_on_c, 0, 45, 0
3, 1136927, Note_on_c, 0, 33, 0
3, 1137120, Note_on_c, 0, 31, 101
3, 1137120, Note_on_c, 0, 43, 101
3, 1137167, Note_on_c, 0, 43, 0
3, 1137167, Note_on_c, 0, 31, 0
3, 1137360, Note_on_c, 0, 27, 101
3, 1137360, Note_on_c, 0, 39, 101
3, 1137407, Note_on_c, 0, 39, 0
3, 1137407, Note_on_c, 0, 27, 0
3, 1137600, Note_on_c, 0, 26, 101
3, 1137600, Note_on_c, 0, 38, 101
3, 1137647, Note_on_c, 0, 38, 0
3, 1137647, Note_on_c, 0, 26, 0
3, 1137840, Note_on_c, 0, 38, 101
3, 1137840, Note_on_c, 0, 50, 101
3, 1137887, Note_on_c, 0, 50, 0
3, 1137887, Note_on_c, 0, 38, 0
3, 1138080, Note_on_c, 0, 37, 101
3, 1138080, Note_on_c, 0, 49, 101
3, 1138127, Note_on_c, 0, 49, 0
3, 1138127, Note_on_c, 0, 37, 0
3, 1138320, Note_on_c, 0, 36, 101
3, 1138320, Note_on_c, 0, 48, 101
3, 1138367, Note_on_c, 0, 48, 0
3, 1138367, Note_on_c, 0, 36, 0
3, 1138560, Note_on_c, 0, 34, 101
3, 1138560, Note_on_c, 0, 46, 101
3, 1138607, Note_on_c, 0, 46, 0
3, 1138607, Note_on_c, 0, 34, 0
3, 1138800, Note_on_c, 0, 33, 101
3, 1138800, Note_on_c, 0, 45, 101
3, 1138847, Note_on_c, 0, 45, 0
3, 1138847, Note_on_c, 0, 33, 0
3, 1139040, Note_on_c, 0, 31, 101
3, 1139040, Note_on_c, 0, 43, 101
3, 1139087, Note_on_c, 0, 43, 0
3, 1139087, Note_on_c, 0, 31, 0
3, 1139280, Note_on_c, 0, 27, 101
3, 1139280, Note_on_c, 0, 39, 101
3, 1139327, Note_on_c, 0, 39, 0
3, 1139327, Note_on_c, 0, 27, 0
3, 1139520, Note_on_c, 0, 26, 101
3, 1139520, Note_on_c, 0, 38, 101
3, 1139567, Note_on_c, 0, 38, 0
3, 1139567, Note_on_c, 0, 26, 0
3, 1139760, Note_on_c, 0, 38, 101
3, 1139760, Note_on_c, 0, 50, 101
3, 1139807, Note_on_c, 0, 50, 0
3, 1139807, Note_on_c, 0, 38, 0
3, 1140000, Note_on_c, 0, 37, 101
3, 1140000, Note_on_c, 0, 49, 101
3, 1140047, Note_on_c, 0, 49, 0
3, 1140047, Note_on_c, 0, 37, 0
3, 1140240, Note_on_c, 0, 36, 101
3, 1140240, Note_on_c, 0, 48, 101
3, 1140287, Note_on_c, 0, 48, 0
3, 1140287, Note_on_c, 0, 36, 0
3, 1140480, Note_on_c, 0, 34, 101
3, 1140480, Note_on_c, 0, 46, 101
3, 1140527, Note_on_c, 0, 46, 0
3, 1140527, Note_on_c, 0, 34, 0
3, 1140720, Note_on_c, 0, 33, 101
3, 1140720, Note_on_c, 0, 45, 101
3, 1140767, Note_on_c, 0, 45, 0
3, 1140767, Note_on_c, 0, 33, 0
3, 1140960, Note_on_c, 0, 31, 101
3, 1140960, Note_on_c, 0, 43, 101
3, 1141007, Note_on_c, 0, 43, 0
3, 1141007, Note_on_c, 0, 31, 0
3, 1141200, Note_on_c, 0, 27, 101
3, 1141200, Note_on_c, 0, 39, 101
3, 1141247, Note_on_c, 0, 39, 0
3, 1141247, Note_on_c, 0, 27, 0
3, 1141440, Note_on_c, 0, 26, 127
3, 1141440, Note_on_c, 0, 31, 127
3, 1141440, Note_on_c, 0, 34, 127
3, 1141440, Note_on_c, 0, 38, 127
3, 1141920, Note_on_c, 0, 38, 0
3, 1141920, Note_on_c, 0, 26, 0
3, 1141920, Note_on_c, 0, 31, 0
3, 1141920, Note_on_c, 0, 34, 0
3, 1141920, Note_on_c, 0, 38, 127
3, 1141920, Note_on_c, 0, 43, 127
3, 1141920, Note_on_c, 0, 46, 127
3, 1141920, Note_on_c, 0, 50, 127
3, 1142400, Note_on_c, 0, 50, 0
3, 1142400, Note_on_c, 0, 38, 0
3, 1142400, Note_on_c, 0, 43, 0
3, 1142400, Note_on_c, 0, 46, 0
3, 1142400, Note_on_c, 0, 51, 127
3, 1142400, Note_on_c, 0, 54, 127
3, 1142400, Note_on_c, 0, 57, 127
3, 1142400, Note_on_c, 0, 63, 127
3, 1143519, Note_on_c, 0, 63, 0
3, 1143519, Note_on_c, 0, 51, 0
3, 1143519, Note_on_c, 0, 54, 0
3, 1143519, Note_on_c, 0, 57, 0
3, 1143519, Note_on_c, 0, 50, 101
3, 1143519, Note_on_c, 0, 62, 101
3, 1143680, Note_on_c, 0, 62, 0
3, 1143680, Note_on_c, 0, 50, 0
3, 1143680, Note_on_c, 0, 49, 101
3, 1143680, Note_on_c, 0, 61, 101
3, 1143840, Note_on_c, 0, 61, 0
3, 1143840, Note_on_c, 0, 49, 0
3, 1143840, Note_on_c, 0, 48, 101
3, 1143840, Note_on_c, 0, 51, 101
3, 1143840, Note_on_c, 0, 54, 101
3, 1143840, Note_on_c, 0, 60, 101
3, 1143999, Note_on_c, 0, 60, 0
3, 1143999, Note_on_c, 0, 48, 0
3, 1143999, Note_on_c, 0, 51, 0
3, 1143999, Note_on_c, 0, 54, 0
3, 1143999, Note_on_c, 0, 47, 101
3, 1143999, Note_on_c, 0, 59, 101
3, 1144160, Note_on_c, 0, 59, 0
3, 1144160, Note_on_c, 0, 47, 0
3, 1144160, Note_on_c, 0, 46, 101
3, 1144160, Note_on_c, 0, 58, 101
3, 1144320, Note_on_c, 0, 58, 0
3, 1144320, Note_on_c, 0, 46, 0
3, 1144320, Note_on_c, 0, 45, 101
3, 1144320, Note_on_c, 0, 48, 101
3, 1144320, Note_on_c, 0, 51, 101
3, 1144320, Note_on_c, 0, 57, 101
3, 1144479, Note_on_c, 0, 57, 0
3, 1144479, Note_on_c, 0, 45, 0
3, 1144479, Note_on_c, 0, 48, 0
3, 1144479, Note_on_c, 0, 51, 0
3, 1144479, Note_on_c, 0, 44, 101
3, 1144479, Note_on_c, 0, 56, 101
3, 1144640, Note_on_c, 0, 56, 0
3, 1144640, Note_on_c, 0, 44, 0
3, 1144640, Note_on_c, 0, 43, 101
3, 1144640, Note_on_c, 0, 55, 101
3, 1144800, Note_on_c, 0, 55, 0
3, 1144800, Note_on_c, 0, 43, 0
3, 1144800, Note_on_c, 0, 42, 101
3, 1144800, Note_on_c, 0, 45, 101
3, 1144800, Note_on_c, 0, 48, 101
3, 1144800, Note_on_c, 0, 54, 101
3, 1144959, Note_on_c, 0, 54, 0
3, 1144959, Note_on_c, 0, 42, 0
3, 1144959, Note_on_c, 0, 45, 0
3, 1144959, Note_on_c, 0, 48, 0
3, 1144959, Note_on_c, 0, 41, 101
3, 1144959, Note_on_c, 0, 53, 101
3, 1145120, Note_on_c, 0, 53, 0
3, 1145120, Note_on_c, 0, 41, 0
3, 1145120, Note_on_c, 0, 40, 101
3, 1145120, Note_on_c, 0, 52, 101
3, 1145280, Note_on_c, 0, 52, 0
3, 1145280, Note_on_c, 0, 40, 0
3, 1145280, Note_on_c, 0, 39, 101
3, 1145280, Note_on_c, 0, 42, 101
3, 1145280, Note_on_c, 0, 45, 101
3, 1145280, Note_on_c, 0, 51, 101
3, 1145439, Note_on_c, 0, 51, 0
3, 1145439, Note_on_c, 0, 39, 0
3, 1145439, Note_on_c, 0, 42, 0
3, 1145439, Note_on_c, 0, 45, 0
3, 1145439, Note_on_c, 0, 38, 101
3, 1145439, Note_on_c, 0, 50, 101
3, 1145600, Note_on_c, 0, 50, 0
3, 1145600, Note_on_c, 0, 38, 0
3, 1145600, Note_on_c, 0, 37, 101
3, 1145600, Note_on_c, 0, 49, 101
3, 1145760, Note_on_c, 0, 49, 0
3, 1145760, Note_on_c, 0, 37, 0
3, 1145760, Note_on_c, 0, 36, 101
3, 1145760, Note_on_c, 0, 39, 101
3, 1145760, Note_on_c, 0, 42, 101
3, 1145760, Note_on_c, 0, 48, 101
3, 1145919, Note_on_c, 0, 48, 0
3, 1145919, Note_on_c, 0, 36, 0
3, 1145919, Note_on_c, 0, 39, 0
3, 1145919, Note_on_c, 0, 42, 0
3, 1145919, Note_on_c, 0, 35, 101
3, 1145919, Note_on_c, 0, 47, 101
3, 1146080, Note_on_c, 0, 47, 0
3, 1146080, Note_on_c, 0, 35, 0
3, 1146080, Note_on_c, 0, 34, 101
3, 1146080, Note_on_c, 0, 46, 101
3, 1146240, Note_on_c, 0, 46, 0
3, 1146240, Note_on_c, 0, 34, 0
3, 1146240, Note_on_c, 0, 33, 101
3, 1146240, Note_on_c, 0, 36, 101
3, 1146240, Note_on_c, 0, 39, 101
3, 1146240, Note_on_c, 0, 45, 101
3, 1146399, Note_on_c, 0, 45, 0
3, 1146399, Note_on_c, 0, 33, 0
3, 1146399, Note_on_c, 0, 36, 0
3, 1146399, Note_on_c, 0, 39, 0
3, 1146399, Note_on_c, 0, 32, 101
3, 1146399, Note_on_c, 0, 44, 101
3, 1146560, Note_on_c, 0, 44, 0
3, 1146560, Note_on_c, 0, 32, 0
3, 1146560, Note_on_c, 0, 31, 101
3, 1146560, Note_on_c, 0, 43, 101
3, 1146720, Note_on_c, 0, 43, 0
3, 1146720, Note_on_c, 0, 31, 0
3, 1146720, Note_on_c, 0, 30, 101
3, 1146720, Note_on_c, 0, 33, 101
3, 1146720, Note_on_c, 0, 36, 101
3, 1146720, Note_on_c, 0, 42, 101
3, 1146879, Note_on_c, 0, 42, 0
3, 1146879, Note_on_c, 0, 30, 0
3, 1146879, Note_on_c, 0, 33, 0
3, 1146879, Note_on_c, 0, 36, 0
3, 1146879, Note_on_c, 0, 29, 101
3, 1146879, Note_on_c, 0, 41, 101
3, 1147040, Note_on_c, 0, 41, 0
3, 1147040, Note_on_c, 0, 29, 0
3, 1147040, Note_on_c, 0, 28, 101
3, 1147040, Note_on_c, 0, 40, 101
3, 1147200, Note_on_c, 0, 40, 0
3, 1147200, Note_on_c, 0, 28, 0
3, 1147200, Note_on_c, 0, 27, 127
3, 1147200, Note_on_c, 0, 30, 127
3, 1147200, Note_on_c, 0, 33, 127
3, 1147200, Note_on_c, 0, 39, 127
3, 1147359, Note_on_c, 0, 39, 0
3, 1147359, Note_on_c, 0, 27, 0
3, 1147359, Note_on_c, 0, 30, 0
3, 1147359, Note_on_c, 0, 33, 0
3, 1147359, Note_on_c, 0, 25, 101
3, 1147359, Note_on_c, 0, 37, 101
3, 1147520, Note_on_c, 0, 37, 0
3, 1147520, Note_on_c, 0, 25, 0
3, 1147520, Note_on_c, 0, 26, 101
3, 1147520, Note_on_c, 0, 38, 101
3, 1147680, Note_on_c, 0, 38, 0
3, 1147680, Note_on_c, 0, 26, 0
3, 1147680, Note_on_c, 0, 29, 101
3, 1147680, Note_on_c, 0, 41, 101
3, 1147839, Note_on_c, 0, 41, 0
3, 1147839, Note_on_c, 0, 29, 0
3, 1147839, Note_on_c, 0, 30, 101
3, 1147839, Note_on_c, 0, 42, 101
3, 1148000, Note_on_c, 0, 42, 0
3, 1148000, Note_on_c, 0, 30, 0
3, 1148000, Note_on_c, 0, 32, 101
3, 1148000, Note_on_c, 0, 44, 101
3, 1148160, Note_on_c, 0, 44, 0
3, 1148160, Note_on_c, 0, 32, 0
3, 1148160, Note_on_c, 0, 33, 101
3, 1148160, Note_on_c, 0, 45, 101
3, 1148319, Note_on_c, 0, 45, 0
3, 1148319, Note_on_c, 0, 33, 0
3, 1148319, Note_on_c, 0, 29, 101
3, 1148319, Note_on_c, 0, 41, 101
3, 1148480, Note_on_c, 0, 41, 0
3, 1148480, Note_on_c, 0, 29, 0
3, 1148480, Note_on_c, 0, 30, 101
3, 1148480, Note_on_c, 0, 42, 101
3, 1148640, Note_on_c, 0, 42, 0
3, 1148640, Note_on_c, 0, 30, 0
3, 1148640, Note_on_c, 0, 32, 101
3, 1148640, Note_on_c, 0, 44, 101
3, 1148799, Note_on_c, 0, 44, 0
3, 1148799, Note_on_c, 0, 32, 0
3, 1148799, Note_on_c, 0, 33, 101
3, 1148799, Note_on_c, 0, 45, 101
3, 1148960, Note_on_c, 0, 45, 0
3, 1148960, Note_on_c, 0, 33, 0
3, 1148960, Note_on_c, 0, 37, 101
3, 1148960, Note_on_c, 0, 49, 101
3, 1149120, Note_on_c, 0, 49, 0
3, 1149120, Note_on_c, 0, 37, 0
3, 1149120, Note_on_c, 0, 38, 101
3, 1149120, Note_on_c, 0, 50, 101
3, 1149279, Note_on_c, 0, 50, 0
3, 1149279, Note_on_c, 0, 38, 0
3, 1149279, Note_on_c, 0, 41, 101
3, 1149279, Note_on_c, 0, 53, 101
3, 1149440, Note_on_c, 0, 53, 0
3, 1149440, Note_on_c, 0, 41, 0
3, 1149440, Note_on_c, 0, 42, 101
3, 1149440, Note_on_c, 0, 54, 101
3, 1149600, Note_on_c, 0, 54, 0
3, 1149600, Note_on_c, 0, 42, 0
3, 1149600, Note_on_c, 0, 44, 101
3, 1149600, Note_on_c, 0, 56, 101
3, 1149759, Note_on_c, 0, 56, 0
3, 1149759, Note_on_c, 0, 44, 0
3, 1149759, Note_on_c, 0, 45, 101
3, 1149759, Note_on_c, 0, 57, 101
3, 1149920, Note_on_c, 0, 57, 0
3, 1149920, Note_on_c, 0, 45, 0
3, 1149920, Note_on_c, 0, 49, 101
3, 1149920, Note_on_c, 0, 61, 101
3, 1150080, Note_on_c, 0, 61, 0
3, 1150080, Note_on_c, 0, 49, 0
3, 1150080, Note_on_c, 0, 50, 101
3, 1150080, Note_on_c, 0, 62, 101
3, 1150239, Note_on_c, 0, 62, 0
3, 1150239, Note_on_c, 0, 50, 0
3, 1150239, Note_on_c, 0, 53, 101
3, 1150239, Note_on_c, 0, 65, 101
3, 1150400, Note_on_c, 0, 65, 0
3, 1150400, Note_on_c, 0, 53, 0
3, 1150400, Note_on_c, 0, 54, 101
3, 1150400, Note_on_c, 0, 66, 101
3, 1150560, Note_on_c, 0, 66, 0
3, 1150560, Note_on_c, 0, 54, 0
3, 1150560, Note_on_c, 0, 56, 101
3, 1150560, Note_on_c, 0, 68, 101
3, 1150719, Note_on_c, 0, 68, 0
3, 1150719, Note_on_c, 0, 56, 0
3, 1150719, Note_on_c, 0, 57, 101
3, 1150719, Note_on_c, 0, 69, 101
3, 1150880, Note_on_c, 0, 69, 0
3, 1150880, Note_on_c, 0, 57, 0
3, 1150880, Note_on_c, 0, 62, 127
3, 1150880, Note_on_c, 0, 74, 127
3, 1151040, Note_on_c, 0, 74, 0
3, 1151040, Note_on_c, 0, 62, 0
3, 1177440, Note_on_c, 0, 33, 49
3, 1177680, Note_on_c, 0, 33, 0
3, 1177680, Note_on_c, 0, 50, 49
3, 1177920, Note_on_c, 0, 50, 0
3, 1177920, Note_on_c, 0, 35, 62
3, 1178160, Note_on_c, 0, 35, 0
3, 1178160, Note_on_c, 0, 50, 62
3, 1178400, Note_on_c, 0, 50, 0
3, 1178400, Note_on_c, 0, 36, 62
3, 1178640, Note_on_c, 0, 36, 0
3, 1178640, Note_on_c, 0, 52, 62
3, 1178880, Note_on_c, 0, 52, 0
3, 1178880, Note_on_c, 0, 38, 62
3, 1179120, Note_on_c, 0, 38, 0
3, 1179120, Note_on_c, 0, 54, 62
3, 1179360, Note_on_c, 0, 54, 0
3, 1179360, Note_on_c, 0, 39, 62
3, 1179600, Note_on_c, 0, 39, 0
3, 1179600, Note_on_c, 0, 54, 62
3, 1179840, Note_on_c, 0, 54, 0
3, 1179840, Note_on_c, 0, 40, 62
3, 1180080, Note_on_c, 0, 40, 0
3, 1180080, Note_on_c, 0, 55, 62
3, 1180320, Note_on_c, 0, 55, 0
3, 1180320, Note_on_c, 0, 42, 62
3, 1180560, Note_on_c, 0, 42, 0
3, 1180560, Note_on_c, 0, 57, 62
3, 1180800, Note_on_c, 0, 57, 0
3, 1180800, Note_on_c, 0, 43, 62
3, 1181040, Note_on_c, 0, 43, 0
3, 1181040, Note_on_c, 0, 59, 62
3, 1181280, Note_on_c, 0, 59, 0
3, 1181280, Note_on_c, 0, 44, 62
3, 1181520, Note_on_c, 0, 44, 0
3, 1181520, Note_on_c, 0, 59, 62
3, 1181760, Note_on_c, 0, 59, 0
3, 1181760, Note_on_c, 0, 45, 62
3, 1182000, Note_on_c, 0, 45, 0
3, 1182000, Note_on_c, 0, 60, 62
3, 1182240, Note_on_c, 0, 60, 0
3, 1182240, Note_on_c, 0, 46, 62
3, 1182480, Note_on_c, 0, 46, 0
3, 1182480, Note_on_c, 0, 61, 62
3, 1182720, Note_on_c, 0, 61, 0
3, 1182720, Note_on_c, 0, 47, 62
3, 1182960, Note_on_c, 0, 47, 0
3, 1182960, Note_on_c, 0, 62, 62
3, 1183200, Note_on_c, 0, 62, 0
3, 1183200, Note_on_c, 0, 48, 62
3, 1183440, Note_on_c, 0, 48, 0
3, 1183440, Note_on_c, 0, 55, 62
3, 1183440, Note_on_c, 0, 63, 62
3, 1183680, Note_on_c, 0, 63, 0
3, 1183680, Note_on_c, 0, 55, 0
3, 1183680, Note_on_c, 0, 49, 62
3, 1183920, Note_on_c, 0, 49, 0
3, 1183920, Note_on_c, 0, 55, 62
3, 1183920, Note_on_c, 0, 64, 62
3, 1184160, Note_on_c, 0, 64, 0
3, 1184160, Note_on_c, 0, 55, 0
3, 1184160, Note_on_c, 0, 50, 62
3, 1184400, Note_on_c, 0, 50, 0
3, 1184400, Note_on_c, 0, 55, 62
3, 1184400, Note_on_c, 0, 62, 62
3, 1184640, Note_on_c, 0, 62, 0
3, 1184640, Note_on_c, 0, 55, 0
3, 1184640, Note_on_c, 0, 62, 62
3, 1184640, Note_on_c, 0, 69, 62
3, 1184880, Note_on_c, 0, 69, 0
3, 1184880, Note_on_c, 0, 62, 0
3, 1185120, Note_on_c, 0, 45, 62
3, 1185360, Note_on_c, 0, 45, 0
3, 1185360, Note_on_c, 0, 62, 62
3, 1185600, Note_on_c, 0, 62, 0
3, 1185600, Note_on_c, 0, 47, 62
3, 1185840, Note_on_c, 0, 47, 0
3, 1185840, Note_on_c, 0, 62, 62
3, 1186080, Note_on_c, 0, 62, 0
3, 1186080, Note_on_c, 0, 48, 62
3, 1186320, Note_on_c, 0, 48, 0
3, 1186320, Note_on_c, 0, 64, 62
3, 1186560, Note_on_c, 0, 64, 0
3, 1186560, Note_on_c, 0, 50, 62
3, 1186800, Note_on_c, 0, 50, 0
3, 1186800, Note_on_c, 0, 66, 62
3, 1187040, Note_on_c, 0, 66, 0
3, 1187040, Note_on_c, 0, 51, 62
3, 1187280, Note_on_c, 0, 51, 0
3, 1187280, Note_on_c, 0, 66, 62
3, 1187520, Note_on_c, 0, 66, 0
3, 1187520, Note_on_c, 0, 52, 62
3, 1187760, Note_on_c, 0, 52, 0
3, 1187760, Note_on_c, 0, 67, 62
3, 1188000, Note_on_c, 0, 67, 0
3, 1188000, Note_on_c, 0, 54, 75
3, 1188240, Note_on_c, 0, 54, 0
3, 1188240, Note_on_c, 0, 69, 75
3, 1188480, Note_on_c, 0, 69, 0
3, 1188480, Note_on_c, 0, 55, 75
3, 1188720, Note_on_c, 0, 55, 0
3, 1188720, Note_on_c, 0, 71, 75
3, 1188960, Note_on_c, 0, 71, 0
3, 1188960, Note_on_c, 0, 56, 75
3, 1189200, Note_on_c, 0, 56, 0
3, 1189200, Note_on_c, 0, 71, 75
3, 1189440, Note_on_c, 0, 71, 0
3, 1189440, Note_on_c, 0, 57, 75
3, 1189680, Note_on_c, 0, 57, 0
3, 1189680, Note_on_c, 0, 72, 75
3, 1189920, Note_on_c, 0, 72, 0
3, 1189920, Note_on_c, 0, 58, 75
3, 1190160, Note_on_c, 0, 58, 0
3, 1190160, Note_on_c, 0, 73, 75
3, 1190400, Note_on_c, 0, 73, 0
3, 1190400, Note_on_c, 0, 59, 75
3, 1190640, Note_on_c, 0, 59, 0
3, 1190640, Note_on_c, 0, 74, 75
3, 1190880, Note_on_c, 0, 74, 0
3, 1190880, Note_on_c, 0, 59, 75
3, 1191120, Note_on_c, 0, 59, 0
3, 1191120, Note_on_c, 0, 74, 75
3, 1191360, Note_on_c, 0, 74, 0
3, 1191360, Note_on_c, 0, 60, 75
3, 1191600, Note_on_c, 0, 60, 0
3, 1191600, Note_on_c, 0, 75, 75
3, 1191840, Note_on_c, 0, 75, 0
3, 1191840, Note_on_c, 0, 61, 75
3, 1192080, Note_on_c, 0, 61, 0
3, 1192080, Note_on_c, 0, 76, 75
3, 1192320, Note_on_c, 0, 76, 0
3, 1192320, Note_on_c, 0, 62, 75
3, 1192560, Note_on_c, 0, 62, 0
3, 1192560, Note_on_c, 0, 78, 75
3, 1192800, Note_on_c, 0, 78, 0
3, 1192800, Note_on_c, 0, 63, 75
3, 1193040, Note_on_c, 0, 63, 0
3, 1193040, Note_on_c, 0, 78, 75
3, 1193280, Note_on_c, 0, 78, 0
3, 1193280, Note_on_c, 0, 64, 75
3, 1193520, Note_on_c, 0, 64, 0
3, 1193520, Note_on_c, 0, 79, 75
3, 1193760, Note_on_c, 0, 79, 0
3, 1193760, Note_on_c, 0, 66, 75
3, 1194000, Note_on_c, 0, 66, 0
3, 1194000, Note_on_c, 0, 81, 75
3, 1194240, Note_on_c, 0, 81, 0
3, 1194240, Note_on_c, 0, 67, 75
3, 1194480, Note_on_c, 0, 67, 0
3, 1194480, Note_on_c, 0, 83, 75
3, 1194720, Note_on_c, 0, 83, 0
3, 1194720, Note_on_c, 0, 68, 75
3, 1194960, Note_on_c, 0, 68, 0
3, 1194960, Note_on_c, 0, 83, 75
3, 1195200, Note_on_c, 0, 83, 0
3, 1195200, Note_on_c, 0, 69, 75
3, 1195440, Note_on_c, 0, 69, 0
3, 1195440, Note_on_c, 0, 84, 75
3, 1195680, Note_on_c, 0, 84, 0
3, 1195680, Note_on_c, 0, 74, 75
3, 1195920, Note_on_c, 0, 74, 0
3, 1195920, Note_on_c, 0, 86, 75
3, 1196160, Note_on_c, 0, 86, 0
3, 1196160, Note_on_c, 0, 79, 75
3, 1196400, Note_on_c, 0, 79, 0
3, 1196400, Note_on_c, 0, 86, 75
3, 1196640, Note_on_c, 0, 86, 0
3, 1196640, Note_on_c, 0, 91, 75
3, 1196799, Note_on_c, 0, 91, 0
3, 1196799, Note_on_c, 0, 87, 75
3, 1196960, Note_on_c, 0, 87, 0
3, 1196960, Note_on_c, 0, 82, 75
3, 1197120, Note_on_c, 0, 82, 0
3, 1197120, Note_on_c, 0, 89, 88
3, 1197279, Note_on_c, 0, 89, 0
3, 1197279, Note_on_c, 0, 86, 88
3, 1197440, Note_on_c, 0, 86, 0
3, 1197440, Note_on_c, 0, 82, 88
3, 1197600, Note_on_c, 0, 82, 0
3, 1197600, Note_on_c, 0, 87, 88
3, 1197759, Note_on_c, 0, 87, 0
3, 1197759, Note_on_c, 0, 84, 88
3, 1197920, Note_on_c, 0, 84, 0
3, 1197920, Note_on_c, 0, 79, 88
3, 1198080, Note_on_c, 0, 79, 0
3, 1198080, Note_on_c, 0, 86, 88
3, 1198239, Note_on_c, 0, 86, 0
3, 1198239, Note_on_c, 0, 83, 88
3, 1198400, Note_on_c, 0, 83, 0
3, 1198400, Note_on_c, 0, 77, 88
3, 1198560, Note_on_c, 0, 77, 0
3, 1198560, Note_on_c, 0, 85, 88
3, 1198719, Note_on_c, 0, 85, 0
3, 1198719, Note_on_c, 0, 81, 88
3, 1198880, Note_on_c, 0, 81, 0
3, 1198880, Note_on_c, 0, 76, 88
3, 1199040, Note_on_c, 0, 76, 0
3, 1199040, Note_on_c, 0, 84, 88
3, 1199199, Note_on_c, 0, 84, 0
3, 1199199, Note_on_c, 0, 81, 88
3, 1199360, Note_on_c, 0, 81, 0
3, 1199360, Note_on_c, 0, 75, 88
3, 1199520, Note_on_c, 0, 75, 0
3, 1199520, Note_on_c, 0, 83, 88
3, 1199679, Note_on_c, 0, 83, 0
3, 1199679, Note_on_c, 0, 79, 88
3, 1199840, Note_on_c, 0, 79, 0
3, 1199840, Note_on_c, 0, 74, 88
3, 1200000, Note_on_c, 0, 74, 0
3, 1200000, Note_on_c, 0, 81, 88
3, 1200159, Note_on_c, 0, 81, 0
3, 1200159, Note_on_c, 0, 78, 88
3, 1200320, Note_on_c, 0, 78, 0
3, 1200320, Note_on_c, 0, 72, 88
3, 1200480, Note_on_c, 0, 72, 0
3, 1200480, Note_on_c, 0, 79, 88
3, 1200639, Note_on_c, 0, 79, 0
3, 1200639, Note_on_c, 0, 76, 88
3, 1200800, Note_on_c, 0, 76, 0
3, 1200800, Note_on_c, 0, 71, 88
3, 1200960, Note_on_c, 0, 71, 0
3, 1200960, Note_on_c, 0, 78, 88
3, 1201119, Note_on_c, 0, 78, 0
3, 1201119, Note_on_c, 0, 74, 88
3, 1201280, Note_on_c, 0, 74, 0
3, 1201280, Note_on_c, 0, 71, 88
3, 1201440, Note_on_c, 0, 71, 0
3, 1201440, Note_on_c, 0, 76, 88
3, 1201599, Note_on_c, 0, 76, 0
3, 1201599, Note_on_c, 0, 72, 88
3, 1201760, Note_on_c, 0, 72, 0
3, 1201760, Note_on_c, 0, 67, 88
3, 1201920, Note_on_c, 0, 67, 0
3, 1201920, Note_on_c, 0, 74, 88
3, 1202079, Note_on_c, 0, 74, 0
3, 1202079, Note_on_c, 0, 71, 88
3, 1202240, Note_on_c, 0, 71, 0
3, 1202240, Note_on_c, 0, 65, 88
3, 1202400, Note_on_c, 0, 65, 0
3, 1202400, Note_on_c, 0, 72, 88
3, 1202559, Note_on_c, 0, 72, 0
3, 1202559, Note_on_c, 0, 69, 88
3, 1202720, Note_on_c, 0, 69, 0
3, 1202720, Note_on_c, 0, 64, 88
3, 1202880, Note_on_c, 0, 64, 0
3, 1202880, Note_on_c, 0, 71, 88
3, 1203039, Note_on_c, 0, 71, 0
3, 1203039, Note_on_c, 0, 67, 88
3, 1203200, Note_on_c, 0, 67, 0
3, 1203200, Note_on_c, 0, 62, 88
3, 1203360, Note_on_c, 0, 62, 0
3, 1203360, Note_on_c, 0, 72, 88
3, 1203519, Note_on_c, 0, 72, 0
3, 1203519, Note_on_c, 0, 69, 88
3, 1203680, Note_on_c, 0, 69, 0
3, 1203680, Note_on_c, 0, 62, 88
3, 1203840, Note_on_c, 0, 62, 0
3, 1203840, Note_on_c, 0, 74, 88
3, 1203999, Note_on_c, 0, 74, 0
3, 1203999, Note_on_c, 0, 71, 88
3, 1204160, Note_on_c, 0, 71, 0
3, 1204160, Note_on_c, 0, 67, 88
3, 1204320, Note_on_c, 0, 67, 0
3, 1204320, Note_on_c, 0, 79, 88
3, 1204479, Note_on_c, 0, 79, 0
3, 1204479, Note_on_c, 0, 75, 88
3, 1204640, Note_on_c, 0, 75, 0
3, 1204640, Note_on_c, 0, 70, 88
3, 1204800, Note_on_c, 0, 70, 0
3, 1204800, Note_on_c, 0, 77, 88
3, 1204959, Note_on_c, 0, 77, 0
3, 1204959, Note_on_c, 0, 74, 88
3, 1205120, Note_on_c, 0, 74, 0
3, 1205120, Note_on_c, 0, 70, 88
3, 1205280, Note_on_c, 0, 70, 0
3, 1205280, Note_on_c, 0, 75, 88
3, 1205439, Note_on_c, 0, 75, 0
3, 1205439, Note_on_c, 0, 72, 88
3, 1205600, Note_on_c, 0, 72, 0
3, 1205600, Note_on_c, 0, 67, 88
3, 1205760, Note_on_c, 0, 67, 0
3, 1205760, Note_on_c, 0, 74, 88
3, 1205919, Note_on_c, 0, 74, 0
3, 1205919, Note_on_c, 0, 71, 88
3, 1206080, Note_on_c, 0, 71, 0
3, 1206080, Note_on_c, 0, 65, 88
3, 1206240, Note_on_c, 0, 65, 0
3, 1206240, Note_on_c, 0, 73, 88
3, 1206399, Note_on_c, 0, 73, 0
3, 1206399, Note_on_c, 0, 69, 88
3, 1206560, Note_on_c, 0, 69, 0
3, 1206560, Note_on_c, 0, 64, 88
3, 1206720, Note_on_c, 0, 64, 0
3, 1206720, Note_on_c, 0, 72, 88
3, 1206879, Note_on_c, 0, 72, 0
3, 1206879, Note_on_c, 0, 69, 88
3, 1207040, Note_on_c, 0, 69, 0
3, 1207040, Note_on_c, 0, 63, 88
3, 1207200, Note_on_c, 0, 63, 0
3, 1207200, Note_on_c, 0, 71, 88
3, 1207359, Note_on_c, 0, 71, 0
3, 1207359, Note_on_c, 0, 67, 88
3, 1207520, Note_on_c, 0, 67, 0
3, 1207520, Note_on_c, 0, 62, 88
3, 1207680, Note_on_c, 0, 62, 0
3, 1207680, Note_on_c, 0, 69, 88
3, 1207839, Note_on_c, 0, 69, 0
3, 1207839, Note_on_c, 0, 66, 88
3, 1208000, Note_on_c, 0, 66, 0
3, 1208000, Note_on_c, 0, 60, 88
3, 1208160, Note_on_c, 0, 60, 0
3, 1208160, Note_on_c, 0, 67, 88
3, 1208319, Note_on_c, 0, 67, 0
3, 1208319, Note_on_c, 0, 64, 88
3, 1208480, Note_on_c, 0, 64, 0
3, 1208480, Note_on_c, 0, 59, 88
3, 1208640, Note_on_c, 0, 59, 0
3, 1208640, Note_on_c, 0, 66, 88
3, 1208799, Note_on_c, 0, 66, 0
3, 1208799, Note_on_c, 0, 62, 88
3, 1208960, Note_on_c, 0, 62, 0
3, 1208960, Note_on_c, 0, 59, 88
3, 1209120, Note_on_c, 0, 59, 0
3, 1209120, Note_on_c, 0, 64, 88
3, 1209279, Note_on_c, 0, 64, 0
3, 1209279, Note_on_c, 0, 60, 88
3, 1209440, Note_on_c, 0, 60, 0
3, 1209440, Note_on_c, 0, 55, 88
3, 1209600, Note_on_c, 0, 55, 0
3, 1209600, Note_on_c, 0, 62, 88
3, 1209759, Note_on_c, 0, 62, 0
3, 1209759, Note_on_c, 0, 59, 88
3, 1209920, Note_on_c, 0, 59, 0
3, 1209920, Note_on_c, 0, 53, 88
3, 1210080, Note_on_c, 0, 53, 0
3, 1210080, Note_on_c, 0, 60, 88
3, 1210239, Note_on_c, 0, 60, 0
3, 1210239, Note_on_c, 0, 57, 88
3, 1210400, Note_on_c, 0, 57, 0
3, 1210400, Note_on_c, 0, 52, 88
3, 1210560, Note_on_c, 0, 52, 0
3, 1210560, Note_on_c, 0, 59, 88
3, 1210719, Note_on_c, 0, 59, 0
3, 1210719, Note_on_c, 0, 55, 88
3, 1210880, Note_on_c, 0, 55, 0
3, 1210880, Note_on_c, 0, 50, 88
3, 1211040, Note_on_c, 0, 50, 0
3, 1211040, Note_on_c, 0, 60, 88
3, 1211199, Note_on_c, 0, 60, 0
3, 1211199, Note_on_c, 0, 57, 88
3, 1211360, Note_on_c, 0, 57, 0
3, 1211360, Note_on_c, 0, 50, 88
3, 1211520, Note_on_c, 0, 50, 0
3, 1211520, Note_on_c, 0, 62, 88
3, 1211679, Note_on_c, 0, 62, 0
3, 1211679, Note_on_c, 0, 59, 88
3, 1211840, Note_on_c, 0, 59, 0
3, 1211840, Note_on_c, 0, 55, 88
3, 1212000, Note_on_c, 0, 55, 0
3, 1212000, Note_on_c, 0, 62, 88
3, 1212159, Note_on_c, 0, 62, 0
3, 1212159, Note_on_c, 0, 57, 88
3, 1212320, Note_on_c, 0, 57, 0
3, 1212320, Note_on_c, 0, 66, 88
3, 1212480, Note_on_c, 0, 66, 0
3, 1212480, Note_on_c, 0, 62, 88
3, 1212639, Note_on_c, 0, 62, 0
3, 1212639, Note_on_c, 0, 59, 88
3, 1212800, Note_on_c, 0, 59, 0
3, 1212800, Note_on_c, 0, 67, 88
3, 1212960, Note_on_c, 0, 67, 0
3, 1212960, Note_on_c, 0, 62, 88
3, 1213119, Note_on_c, 0, 62, 0
3, 1213119, Note_on_c, 0, 59, 88
3, 1213280, Note_on_c, 0, 59, 0
3, 1213280, Note_on_c, 0, 55, 88
3, 1213440, Note_on_c, 0, 55, 0
3, 1213440, Note_on_c, 0, 59, 88
3, 1213599, Note_on_c, 0, 59, 0
3, 1213599, Note_on_c, 0, 62, 88
3, 1213760, Note_on_c, 0, 62, 0
3, 1213760, Note_on_c, 0, 67, 88
3, 1213920, Note_on_c, 0, 67, 0
3, 1213920, Note_on_c, 0, 66, 88
3, 1214079, Note_on_c, 0, 66, 0
3, 1214079, Note_on_c, 0, 62, 88
3, 1214240, Note_on_c, 0, 62, 0
3, 1214240, Note_on_c, 0, 69, 88
3, 1214400, Note_on_c, 0, 69, 0
3, 1214400, Note_on_c, 0, 67, 88
3, 1214559, Note_on_c, 0, 67, 0
3, 1214559, Note_on_c, 0, 62, 88
3, 1214720, Note_on_c, 0, 62, 0
3, 1214720, Note_on_c, 0, 71, 88
3, 1214880, Note_on_c, 0, 71, 0
3, 1214880, Note_on_c, 0, 67, 88
3, 1215039, Note_on_c, 0, 67, 0
3, 1215039, Note_on_c, 0, 62, 88
3, 1215200, Note_on_c, 0, 62, 0
3, 1215200, Note_on_c, 0, 59, 88
3, 1215360, Note_on_c, 0, 59, 0
3, 1215360, Note_on_c, 0, 62, 88
3, 1215519, Note_on_c, 0, 62, 0
3, 1215519, Note_on_c, 0, 67, 88
3, 1215680, Note_on_c, 0, 67, 0
3, 1215680, Note_on_c, 0, 71, 88
3, 1215840, Note_on_c, 0, 71, 0
3, 1215840, Note_on_c, 0, 69, 88
3, 1215999, Note_on_c, 0, 69, 0
3, 1215999, Note_on_c, 0, 66, 88
3, 1216160, Note_on_c, 0, 66, 0
3, 1216160, Note_on_c, 0, 74, 88
3, 1216320, Note_on_c, 0, 74, 0
3, 1216320, Note_on_c, 0, 71, 88
3, 1216479, Note_on_c, 0, 71, 0
3, 1216479, Note_on_c, 0, 67, 88
3, 1216640, Note_on_c, 0, 67, 0
3, 1216640, Note_on_c, 0, 74, 88
3, 1216800, Note_on_c, 0, 74, 0
3, 1216800, Note_on_c, 0, 71, 88
3, 1216959, Note_on_c, 0, 71, 0
3, 1216959, Note_on_c, 0, 67, 88
3, 1217120, Note_on_c, 0, 67, 0
3, 1217120, Note_on_c, 0, 62, 88
3, 1217280, Note_on_c, 0, 62, 0
3, 1217280, Note_on_c, 0, 67, 88
3, 1217439, Note_on_c, 0, 67, 0
3, 1217439, Note_on_c, 0, 71, 88
3, 1217600, Note_on_c, 0, 71, 0
3, 1217600, Note_on_c, 0, 74, 88
3, 1217760, Note_on_c, 0, 74, 0
3, 1217760, Note_on_c, 0, 78, 88
3, 1217919, Note_on_c, 0, 78, 0
3, 1217919, Note_on_c, 0, 74, 88
3, 1218080, Note_on_c, 0, 74, 0
3, 1218080, Note_on_c, 0, 69, 88
3, 1218240, Note_on_c, 0, 69, 0
3, 1218240, Note_on_c, 0, 79, 88
3, 1218399, Note_on_c, 0, 79, 0
3, 1218399, Note_on_c, 0, 74, 88
3, 1218560, Note_on_c, 0, 74, 0
3, 1218560, Note_on_c, 0, 71, 88
3, 1218720, Note_on_c, 0, 71, 0
3, 1218720, Note_on_c, 0, 67, 88
3, 1218879, Note_on_c, 0, 67, 0
3, 1218879, Note_on_c, 0, 62, 88
3, 1219040, Note_on_c, 0, 62, 0
3, 1219040, Note_on_c, 0, 67, 88
3, 1219200, Note_on_c, 0, 67, 0
3, 1219200, Note_on_c, 0, 71, 88
3, 1219359, Note_on_c, 0, 71, 0
3, 1219359, Note_on_c, 0, 74, 88
3, 1219520, Note_on_c, 0, 74, 0
3, 1219520, Note_on_c, 0, 79, 88
3, 1219680, Note_on_c, 0, 79, 0
3, 1219680, Note_on_c, 0, 81, 88
3, 1219839, Note_on_c, 0, 81, 0
3, 1219839, Note_on_c, 0, 78, 88
3, 1220000, Note_on_c, 0, 78, 0
3, 1220000, Note_on_c, 0, 74, 88
3, 1220160, Note_on_c, 0, 74, 0
3, 1220160, Note_on_c, 0, 83, 101
3, 1220319, Note_on_c, 0, 83, 0
3, 1220319, Note_on_c, 0, 79, 101
3, 1220480, Note_on_c, 0, 79, 0
3, 1220480, Note_on_c, 0, 74, 101
3, 1220640, Note_on_c, 0, 74, 0
3, 1220640, Note_on_c, 0, 81, 101
3, 1220799, Note_on_c, 0, 81, 0
3, 1220799, Note_on_c, 0, 78, 101
3, 1220960, Note_on_c, 0, 78, 0
3, 1220960, Note_on_c, 0, 74, 101
3, 1221120, Note_on_c, 0, 74, 0
3, 1221120, Note_on_c, 0, 83, 101
3, 1221279, Note_on_c, 0, 83, 0
3, 1221279, Note_on_c, 0, 79, 101
3, 1221440, Note_on_c, 0, 79, 0
3, 1221440, Note_on_c, 0, 74, 101
3, 1221600, Note_on_c, 0, 74, 0
3, 1221600, Note_on_c, 0, 86, 101
3, 1221759, Note_on_c, 0, 86, 0
3, 1221759, Note_on_c, 0, 81, 101
3, 1221920, Note_on_c, 0, 81, 0
3, 1221920, Note_on_c, 0, 78, 101
3, 1222080, Note_on_c, 0, 78, 0
3, 1222080, Note_on_c, 0, 86, 101
3, 1222239, Note_on_c, 0, 86, 0
3, 1222239, Note_on_c, 0, 83, 101
3, 1222400, Note_on_c, 0, 83, 0
3, 1222400, Note_on_c, 0, 79, 101
3, 1222560, Note_on_c, 0, 79, 0
3, 1222560, Note_on_c, 0, 86, 101
3, 1222719, Note_on_c, 0, 86, 0
3, 1222719, Note_on_c, 0, 81, 101
3, 1222880, Note_on_c, 0, 81, 0
3, 1222880, Note_on_c, 0, 78, 101
3, 1223040, Note_on_c, 0, 78, 0
3, 1223040, Note_on_c, 0, 86, 101
3, 1223199, Note_on_c, 0, 86, 0
3, 1223199, Note_on_c, 0, 83, 101
3, 1223360, Note_on_c, 0, 83, 0
3, 1223360, Note_on_c, 0, 79, 101
3, 1223520, Note_on_c, 0, 79, 0
3, 1223520, Note_on_c, 0, 90, 101
3, 1223679, Note_on_c, 0, 90, 0
3, 1223679, Note_on_c, 0, 86, 101
3, 1223840, Note_on_c, 0, 86, 0
3, 1223840, Note_on_c, 0, 81, 101
3, 1224000, Note_on_c, 0, 81, 0
3, 1224000, Control_c, 0, 64, 127
3, 1224000, Note_on_c, 0, 91, 101
3, 1224159, Note_on_c, 0, 91, 0
3, 1224159, Note_on_c, 0, 86, 101
3, 1224320, Note_on_c, 0, 86, 0
3, 1224320, Note_on_c, 0, 83, 101
3, 1224480, Note_on_c, 0, 83, 0
3, 1224480, Note_on_c, 0, 79, 101
3, 1224639, Note_on_c, 0, 79, 0
3, 1224639, Note_on_c, 0, 74, 101
3, 1224800, Note_on_c, 0, 74, 0
3, 1224800, Note_on_c, 0, 71, 101
3, 1224960, Note_on_c, 0, 71, 0
3, 1224960, Note_on_c, 0, 79, 101
3, 1225119, Note_on_c, 0, 79, 0
3, 1225119, Note_on_c, 0, 74, 101
3, 1225280, Note_on_c, 0, 74, 0
3, 1225280, Note_on_c, 0, 71, 101
3, 1225440, Note_on_c, 0, 71, 0
3, 1225440, Note_on_c, 0, 67, 101
3, 1225599, Note_on_c, 0, 67, 0
3, 1225599, Note_on_c, 0, 62, 101
3, 1225760, Note_on_c, 0, 62, 0
3, 1225760, Control_c, 0, 64, 0
3, 1225760, Note_on_c, 0, 59, 101
3, 1225920, Note_on_c, 0, 59, 0
3, 1225920, Control_c, 0, 64, 127
3, 1225920, Note_on_c, 0, 67, 101
3, 1226079, Note_on_c, 0, 67, 0
3, 1226079, Note_on_c, 0, 62, 101
3, 1226240, Note_on_c, 0, 62, 0
3, 1226240, Note_on_c, 0, 59, 101
3, 1226400, Note_on_c, 0, 59, 0
3, 1226400, Note_on_c, 0, 55, 101
3, 1226559, Note_on_c, 0, 55, 0
3, 1226559, Note_on_c, 0, 50, 101
3, 1226720, Note_on_c, 0, 50, 0
3, 1226720, Note_on_c, 0, 47, 101
3, 1226880, Note_on_c, 0, 47, 0
3, 1226880, Note_on_c, 0, 55, 101
3, 1227039, Note_on_c, 0, 55, 0
3, 1227039, Note_on_c, 0, 50, 101
3, 1227200, Note_on_c, 0, 50, 0
3, 1227200, Note_on_c, 0, 47, 101
3, 1227360, Note_on_c, 0, 47, 0
3, 1227360, Note_on_c, 0, 43, 101
3, 1227519, Note_on_c, 0, 43, 0
3, 1227519, Note_on_c, 0, 38, 101
3, 1227680, Note_on_c, 0, 38, 0
3, 1227680, Control_c, 0, 64, 0
3, 1227680, Note_on_c, 0, 35, 101
3, 1227840, Note_on_c, 0, 35, 0
3, 1227840, Control_c, 0, 64, 127
3, 1227840, Note_on_c, 0, 31, 101
3, 1227999, Note_on_c, 0, 31, 0
3, 1227999, Note_on_c, 0, 36, 101
3, 1228160, Note_on_c, 0, 36, 0
3, 1228160, Note_on_c, 0, 39, 101
3, 1228320, Note_on_c, 0, 39, 0
3, 1228320, Note_on_c, 0, 43, 101
3, 1228479, Note_on_c, 0, 43, 0
3, 1228479, Note_on_c, 0, 48, 101
3, 1228640, Note_on_c, 0, 48, 0
3, 1228640, Note_on_c, 0, 51, 101
3, 1228800, Note_on_c, 0, 51, 0
3, 1228800, Note_on_c, 0, 55, 101
3, 1228959, Note_on_c, 0, 55, 0
3, 1228959, Note_on_c, 0, 60, 101
3, 1229120, Note_on_c, 0, 60, 0
3, 1229120, Note_on_c, 0, 63, 101
3, 1229280, Note_on_c, 0, 63, 0
3, 1229280, Control_c, 0, 64, 0
3, 1229280, Note_on_c, 0, 69, 101
3, 1229760, Note_on_c, 0, 69, 0
3, 1229760, Note_on_c, 0, 55, 127
3, 1229760, Note_on_c, 0, 59, 127
3, 1229760, Note_on_c, 0, 62, 127
3, 1230240, Note_on_c, 0, 62, 0
3, 1230240, Note_on_c, 0, 59, 0
3, 1230240, Note_on_c, 0, 55, 0
3, 1230240, Note_on_c, 0, 50, 127
3, 1230240, Note_on_c, 0, 54, 127
3, 1230240, Note_on_c, 0, 57, 127
3, 1230240, Note_on_c, 0, 62, 127
3, 1230720, Note_on_c, 0, 62, 0
3, 1230720, Note_on_c, 0, 50, 0
3, 1230720, Note_on_c, 0, 54, 0
3, 1230720, Note_on_c, 0, 57, 0
3, 1230720, Note_on_c, 0, 43, 127
3, 1230720, Note_on_c, 0, 47, 127
3, 1230720, Note_on_c, 0, 50, 127
3, 1230720, Note_on_c, 0, 55, 127
3, 1231200, Note_on_c, 0, 55, 0
3, 1231200, Note_on_c, 0, 43, 0
3, 1231200, Note_on_c, 0, 47, 0
3, 1231200, Note_on_c, 0, 50, 0
3, 1231200, End_track
4, 0, Start_track
4, 0, Title_t, "Grand Piano"
4, 0, Program_c, 0, 0
4, 0, Control_c, 0, 7, 115
4, 0, Control_c, 0, 10, 42
4, 480, Note_on_c, 0, 67, 83
4, 480, Note_on_c, 0, 71, 83
4, 480, Note_on_c, 0, 74, 83
4, 480, Note_on_c, 0, 79, 83
4, 960, Note_on_c, 0, 79, 0
4, 960, Note_on_c, 0, 67, 0
4, 960, Note_on_c, 0, 71, 0
4, 960, Note_on_c, 0, 74, 0
4, 960, Note_on_c, 0, 66, 83
4, 960, Note_on_c, 0, 72, 83
4, 960, Note_on_c, 0, 74, 83
4, 960, Note_on_c, 0, 78, 83
4, 1200, Note_on_c, 0, 78, 0
4, 1200, Note_on_c, 0, 66, 0
4, 1200, Note_on_c, 0, 72, 0
4, 1200, Note_on_c, 0, 74, 0
4, 1200, Note_on_c, 0, 64, 83
4, 1200, Note_on_c, 0, 74, 83
4, 1200, Note_on_c, 0, 76, 83
4, 1440, Note_on_c, 0, 76, 0
4, 1440, Note_on_c, 0, 74, 0
4, 1440, Note_on_c, 0, 64, 0
4, 1440, Note_on_c, 0, 66, 83
4, 1440, Note_on_c, 0, 72, 83
4, 1440, Note_on_c, 0, 74, 83
4, 1440, Note_on_c, 0, 78, 83
4, 2400, Note_on_c, 0, 78, 0
4, 2400, Note_on_c, 0, 66, 0
4, 2400, Note_on_c, 0, 72, 0
4, 2400, Note_on_c, 0, 74, 0
4, 2400, Note_on_c, 0, 67, 83
4, 2400, Note_on_c, 0, 71, 83
4, 2400, Note_on_c, 0, 74, 83
4, 2400, Note_on_c, 0, 79, 83
4, 2880, Note_on_c, 0, 79, 0
4, 2880, Note_on_c, 0, 67, 0
4, 2880, Note_on_c, 0, 71, 0
4, 2880, Note_on_c, 0, 74, 0
4, 2880, Note_on_c, 0, 69, 83
4, 2880, Note_on_c, 0, 74, 83
4, 2880, Note_on_c, 0, 81, 83
4, 3360, Note_on_c, 0, 81, 0
4, 3360, Note_on_c, 0, 74, 0
4, 3360, Note_on_c, 0, 69, 0
4, 3360, Control_c, 0, 64, 127
4, 3360, Note_on_c, 0, 62, 83
4, 3428, Note_on_c, 0, 62, 0
4, 3428, Note_on_c, 0, 64, 83
4, 3497, Note_on_c, 0, 64, 0
4, 3497, Note_on_c, 0, 66, 83
4, 3565, Note_on_c, 0, 66, 0
4, 3565, Note_on_c, 0, 67, 83
4, 3634, Note_on_c, 0, 67, 0
4, 3634, Note_on_c, 0, 69, 83
4, 3702, Note_on_c, 0, 69, 0
4, 3702, Note_on_c, 0, 71, 83
4, 3771, Note_on_c, 0, 71, 0
4, 3771, Note_on_c, 0, 73, 83
4, 3840, Note_on_c, 0, 73, 0
4, 3840, Note_on_c, 0, 74, 83
4, 4080, Note_on_c, 0, 74, 0
4, 4080, Control_c, 0, 64, 0
4, 4320, Note_on_c, 0, 71, 83
4, 4320, Note_on_c, 0, 74, 83
4, 4320, Note_on_c, 0, 79, 83
4, 4320, Note_on_c, 0, 83, 83
4, 4800, Note_on_c, 0, 83, 0
4, 4800, Note_on_c, 0, 71, 0
4, 4800, Note_on_c, 0, 74, 0
4, 4800, Note_on_c, 0, 79, 0
4, 4800, Note_on_c, 0, 72, 83
4, 4800, Note_on_c, 0, 79, 83
4, 4800, Note_on_c, 0, 84, 83
4, 5280, Note_on_c, 0, 84, 0
4, 5280, Note_on_c, 0, 79, 0
4, 5280, Note_on_c, 0, 72, 0
4, 5280, Note_on_c, 0, 71, 83
4, 5280, Note_on_c, 0, 74, 83
4, 5280, Note_on_c, 0, 79, 83
4, 5280, Note_on_c, 0, 83, 83
4, 5760, Note_on_c, 0, 83, 0
4, 5760, Note_on_c, 0, 71, 0
4, 5760, Note_on_c, 0, 74, 0
4, 5760, Note_on_c, 0, 79, 0
4, 5760, Note_on_c, 0, 72, 83
4, 5760, Note_on_c, 0, 79, 83
4, 5760, Note_on_c, 0, 84, 83
4, 6240, Note_on_c, 0, 84, 0
4, 6240, Note_on_c, 0, 79, 0
4, 6240, Note_on_c, 0, 72, 0
4, 6240, Note_on_c, 0, 74, 83
4, 6240, Note_on_c, 0, 78, 83
4, 6240, Note_on_c, 0, 81, 83
4, 6240, Note_on_c, 0, 86, 83
4, 6720, Note_on_c, 0, 86, 0
4, 6720, Note_on_c, 0, 74, 0
4, 6720, Note_on_c, 0, 78, 0
4, 6720, Note_on_c, 0, 81, 0
4, 6720, Note_on_c, 0, 71, 83
4, 6720, Note_on_c, 0, 74, 83
4, 6720, Note_on_c, 0, 79, 83
4, 6720, Note_on_c, 0, 83, 83
4, 6960, Note_on_c, 0, 83, 0
4, 6960, Note_on_c, 0, 71, 0
4, 6960, Note_on_c, 0, 74, 0
4, 6960, Note_on_c, 0, 79, 0
4, 6960, Note_on_c, 0, 67, 83
4, 6960, Note_on_c, 0, 74, 83
4, 6960, Note_on_c, 0, 79, 83
4, 7200, Note_on_c, 0, 79, 0
4, 7200, Note_on_c, 0, 74, 0
4, 7200, Note_on_c, 0, 67, 0
4, 7200, Note_on_c, 0, 69, 83
4, 7200, Note_on_c, 0, 74, 83
4, 7200, Note_on_c, 0, 78, 83
4, 7200, Note_on_c, 0, 81, 83
4, 7440, Note_on_c, 0, 81, 0
4, 7440, Note_on_c, 0, 69, 0
4, 7440, Note_on_c, 0, 74, 0
4, 7440, Note_on_c, 0, 78, 0
4, 7440, Control_c, 0, 64, 127
4, 7440, Note_on_c, 0, 69, 83
4, 7500, Note_on_c, 0, 69, 0
4, 7500, Note_on_c, 0, 67, 83
4, 7560, Note_on_c, 0, 67, 0
4, 7560, Note_on_c, 0, 66, 83
4, 7620, Note_on_c, 0, 66, 0
4, 7620, Note_on_c, 0, 64, 83
4, 7680, Note_on_c, 0, 64, 0
4, 7680, Note_on_c, 0, 62, 83
4, 7920, Note_on_c, 0, 62, 0
4, 7920, Control_c, 0, 64, 0
4, 8160, Note_on_c, 0, 67, 83
4, 8160, Note_on_c, 0, 71, 83
4, 8160, Note_on_c, 0, 74, 83
4, 8160, Note_on_c, 0, 79, 83
4, 8640, Note_on_c, 0, 79, 0
4, 8640, Note_on_c, 0, 67, 0
4, 8640, Note_on_c, 0, 71, 0
4, 8640, Note_on_c, 0, 74, 0
4, 8640, Note_on_c, 0, 66, 83
4, 8640, Note_on_c, 0, 72, 83
4, 8640, Note_on_c, 0, 74, 83
4, 8640, Note_on_c, 0, 78, 83
4, 8880, Note_on_c, 0, 78, 0
4, 8880, Note_on_c, 0, 66, 0
4, 8880, Note_on_c, 0, 72, 0
4, 8880, Note_on_c, 0, 74, 0
4, 8880, Note_on_c, 0, 64, 83
4, 8880, Note_on_c, 0, 74, 83
4, 8880, Note_on_c, 0, 76, 83
4, 9120, Note_on_c, 0, 76, 0
4, 9120, Note_on_c, 0, 74, 0
4, 9120, Note_on_c, 0, 64, 0
4, 9120, Note_on_c, 0, 66, 83
4, 9120, Note_on_c, 0, 72, 83
4, 9120, Note_on_c, 0, 74, 83
4, 9120, Note_on_c, 0, 78, 83
4, 10080, Note_on_c, 0, 78, 0
4, 10080, Note_on_c, 0, 66, 0
4, 10080, Note_on_c, 0, 72, 0
4, 10080, Note_on_c, 0, 74, 0
4, 10080, Note_on_c, 0, 67, 83
4, 10080, Note_on_c, 0, 71, 83
4, 10080, Note_on_c, 0, 74, 83
4, 10080, Note_on_c, 0, 79, 83
4, 10560, Note_on_c, 0, 79, 0
4, 10560, Note_on_c, 0, 67, 0
4, 10560, Note_on_c, 0, 71, 0
4, 10560, Note_on_c, 0, 74, 0
4, 10560, Note_on_c, 0, 69, 83
4, 10560, Note_on_c, 0, 72, 83
4, 10560, Note_on_c, 0, 76, 83
4, 10560, Note_on_c, 0, 81, 83
4, 11040, Note_on_c, 0, 81, 0
4, 11040, Note_on_c, 0, 69, 0
4, 11040, Note_on_c, 0, 72, 0
4, 11040, Note_on_c, 0, 76, 0
4, 11040, Control_c, 0, 64, 127
4, 11040, Note_on_c, 0, 69, 83
4, 11120, Note_on_c, 0, 69, 0
4, 11120, Note_on_c, 0, 67, 83
4, 11199, Note_on_c, 0, 67, 0
4, 11199, Note_on_c, 0, 66, 83
4, 11280, Note_on_c, 0, 66, 0
4, 11280, Note_on_c, 0, 64, 83
4, 11360, Note_on_c, 0, 64, 0
4, 11360, Note_on_c, 0, 62, 83
4, 11439, Note_on_c, 0, 62, 0
4, 11439, Note_on_c, 0, 60, 83
4, 11520, Note_on_c, 0, 60, 0
4, 11520, Note_on_c, 0, 59, 83
4, 11760, Note_on_c, 0, 59, 0
4, 11760, Control_c, 0, 64, 0
4, 12000, Note_on_c, 0, 71, 83
4, 12000, Note_on_c, 0, 75, 83
4, 12000, Note_on_c, 0, 78, 83
4, 12000, Note_on_c, 0, 83, 83
4, 12390, Note_on_c, 0, 64, 83
4, 12420, Note_on_c, 0, 67, 83
4, 12450, Note_on_c, 0, 71, 83
4, 12480, Note_on_c, 0, 83, 0
4, 12480, Note_on_c, 0, 78, 0
4, 12480, Note_on_c, 0, 71, 0
4, 12480, Note_on_c, 0, 75, 0
4, 12480, Note_on_c, 0, 76, 83
4, 12870, Note_on_c, 0, 64, 83
4, 12900, Note_on_c, 0, 69, 83
4, 12930, Note_on_c, 0, 72, 83
4, 12960, Note_on_c, 0, 76, 0
4, 12960, Note_on_c, 0, 71, 0
4, 12960, Note_on_c, 0, 67, 0
4, 12960, Note_on_c, 0, 64, 0
4, 12960, Note_on_c, 0, 76, 83
4, 13350, Note_on_c, 0, 64, 83
4, 13380, Note_on_c, 0, 67, 83
4, 13410, Note_on_c, 0, 71, 83
4, 13440, Note_on_c, 0, 76, 0
4, 13440, Note_on_c, 0, 72, 0
4, 13440, Note_on_c, 0, 69, 0
4, 13440, Note_on_c, 0, 64, 0
4, 13440, Note_on_c, 0, 76, 83
4, 13830, Note_on_c, 0, 64, 83
4, 13860, Note_on_c, 0, 69, 83
4, 13890, Note_on_c, 0, 72, 83
4, 13920, Note_on_c, 0, 76, 0
4, 13920, Note_on_c, 0, 71, 0
4, 13920, Note_on_c, 0, 67, 0
4, 13920, Note_on_c, 0, 64, 0
4, 13920, Note_on_c, 0, 76, 83
4, 14310, Note_on_c, 0, 64, 83
4, 14340, Note_on_c, 0, 67, 83
4, 14370, Note_on_c, 0, 71, 83
4, 14400, Note_on_c, 0, 76, 0
4, 14400, Note_on_c, 0, 72, 0
4, 14400, Note_on_c, 0, 69, 0
4, 14400, Note_on_c, 0, 64, 0
4, 14400, Note_on_c, 0, 76, 83
4, 14640, Note_on_c, 0, 76, 0
4, 14640, Note_on_c, 0, 67, 0
4, 14640, Note_on_c, 0, 64, 0
4, 14640, Note_on_c, 0, 71, 0
4, 14640, Control_c, 0, 64, 127
4, 14640, Note_on_c, 0, 83, 83
4, 14720, Note_on_c, 0, 83, 0
4, 14720, Note_on_c, 0, 85, 83
4, 14799, Note_on_c, 0, 85, 0
4, 14799, Note_on_c, 0, 87, 83
4, 14880, Note_on_c, 0, 87, 0
4, 14880, Control_c, 0, 64, 0
4, 14880, Note_on_c, 0, 79, 83
4, 14880, Note_on_c, 0, 83, 83
4, 14880, Note_on_c, 0, 88, 83
4, 15360, Note_on_c, 0, 88, 0
4, 15360, Note_on_c, 0, 83, 0
4, 15360, Note_on_c, 0, 79, 0
4, 18720, Note_on_c, 0, 74, 83
4, 18720, Note_on_c, 0, 78, 83
4, 18720, Note_on_c, 0, 81, 83
4, 18720, Note_on_c, 0, 86, 83
4, 18879, Note_on_c, 0, 86, 0
4, 18879, Note_on_c, 0, 74, 0
4, 18879, Note_on_c, 0, 78, 0
4, 18879, Note_on_c, 0, 81, 0
4, 18879, Note_on_c, 0, 74, 83
4, 18879, Note_on_c, 0, 78, 83
4, 18879, Note_on_c, 0, 81, 83
4, 18879, Note_on_c, 0, 86, 83
4, 19040, Note_on_c, 0, 86, 0
4, 19040, Note_on_c, 0, 74, 0
4, 19040, Note_on_c, 0, 78, 0
4, 19040, Note_on_c, 0, 81, 0
4, 19040, Note_on_c, 0, 74, 83
4, 19040, Note_on_c, 0, 78, 83
4, 19040, Note_on_c, 0, 81, 83
4, 19040, Note_on_c, 0, 86, 83
4, 19200, Note_on_c, 0, 86, 0
4, 19200, Note_on_c, 0, 74, 0
4, 19200, Note_on_c, 0, 78, 0
4, 19200, Note_on_c, 0, 81, 0
4, 19200, Note_on_c, 0, 62, 83
4, 19680, Note_on_c, 0, 62, 0
4, 22800, Control_c, 0, 64, 127
4, 22800, Note_on_c, 0, 69, 83
4, 22860, Note_on_c, 0, 69, 0
4, 22860, Note_on_c, 0, 67, 83
4, 22920, Note_on_c, 0, 67, 0
4, 22920, Note_on_c, 0, 66, 83
4, 22980, Note_on_c, 0, 66, 0
4, 22980, Note_on_c, 0, 64, 83
4, 23040, Note_on_c, 0, 64, 0
4, 23040, Control_c, 0, 64, 0
4, 23040, Note_on_c, 0, 62, 83
4, 23520, Note_on_c, 0, 62, 0
4, 26400, Note_on_c, 0, 69, 83
4, 26400, Note_on_c, 0, 76, 83
4, 26400, Note_on_c, 0, 81, 83
4, 26559, Note_on_c, 0, 81, 0
4, 26559, Note_on_c, 0, 76, 0
4, 26559, Note_on_c, 0, 69, 0
4, 26559, Note_on_c, 0, 69, 83
4, 26559, Note_on_c, 0, 76, 83
4, 26559, Note_on_c, 0, 81, 83
4, 26720, Note_on_c, 0, 81, 0
4, 26720, Note_on_c, 0, 76, 0
4, 26720, Note_on_c, 0, 69, 0
4, 26720, Note_on_c, 0, 69, 83
4, 26720, Note_on_c, 0, 76, 83
4, 26720, Note_on_c, 0, 81, 83
4, 26880, Note_on_c, 0, 81, 0
4, 26880, Note_on_c, 0, 76, 0
4, 26880, Note_on_c, 0, 69, 0
4, 26880, Note_on_c, 0, 71, 83
4, 26880, Note_on_c, 0, 75, 83
4, 26880, Note_on_c, 0, 78, 83
4, 26880, Note_on_c, 0, 83, 83
4, 27360, Note_on_c, 0, 83, 0
4, 27360, Note_on_c, 0, 71, 0
4, 27360, Note_on_c, 0, 75, 0
4, 27360, Note_on_c, 0, 78, 0
4, 30000, Note_on_c, 0, 83, 83
4, 30080, Note_on_c, 0, 83, 0
4, 30080, Note_on_c, 0, 85, 83
4, 30159, Note_on_c, 0, 85, 0
4, 30159, Note_on_c, 0, 87, 83
4, 30240, Note_on_c, 0, 87, 0
4, 30240, Note_on_c, 0, 79, 83
4, 30240, Note_on_c, 0, 83, 83
4, 30240, Note_on_c, 0, 88, 83
4, 30720, Note_on_c, 0, 88, 0
4, 30720, Note_on_c, 0, 83, 0
4, 30720, Note_on_c, 0, 79, 0
4, 31200, Note_on_c, 0, 76, 83
4, 31200, Note_on_c, 0, 88, 83
4, 31680, Note_on_c, 0, 88, 0
4, 31680, Note_on_c, 0, 76, 0
4, 37440, Note_on_c, 0, 71, 83
4, 37440, Note_on_c, 0, 76, 83
4, 37440, Note_on_c, 0, 79, 83
4, 37440, Note_on_c, 0, 83, 83
4, 37920, Note_on_c, 0, 83, 0
4, 37920, Note_on_c, 0, 71, 0
4, 37920, Note_on_c, 0, 76, 0
4, 37920, Note_on_c, 0, 79, 0
4, 37920, Control_c, 0, 64, 127
4, 37920, Note_on_c, 0, 64, 83
4, 37988, Note_on_c, 0, 64, 0
4, 37988, Note_on_c, 0, 66, 83
4, 38057, Note_on_c, 0, 66, 0
4, 38057, Note_on_c, 0, 67, 83
4, 38125, Note_on_c, 0, 67, 0
4, 38125, Note_on_c, 0, 69, 83
4, 38194, Note_on_c, 0, 69, 0
4, 38194, Note_on_c, 0, 71, 83
4, 38262, Note_on_c, 0, 71, 0
4, 38262, Note_on_c, 0, 73, 83
4, 38331, Note_on_c, 0, 73, 0
4, 38331, Note_on_c, 0, 75, 83
4, 38400, Note_on_c, 0, 75, 0
4, 38400, Note_on_c, 0, 76, 83
4, 38640, Note_on_c, 0, 76, 0
4, 38640, Control_c, 0, 64, 0
4, 38880, Note_on_c, 0, 79, 109
4, 38880, Note_on_c, 0, 91, 109
4, 39039, Note_on_c, 0, 91, 0
4, 39039, Note_on_c, 0, 79, 0
4, 39039, Note_on_c, 0, 83, 83
4, 39039, Note_on_c, 0, 88, 83
4, 39200, Note_on_c, 0, 88, 0
4, 39200, Note_on_c, 0, 83, 0
4, 39200, Note_on_c, 0, 83, 83
4, 39200, Note_on_c, 0, 88, 83
4, 39360, Note_on_c, 0, 88, 0
4, 39360, Note_on_c, 0, 83, 0
4, 39360, Note_on_c, 0, 78, 109
4, 39360, Note_on_c, 0, 90, 109
4, 39519, Note_on_c, 0, 90, 0
4, 39519, Note_on_c, 0, 78, 0
4, 39519, Note_on_c, 0, 83, 83
4, 39519, Note_on_c, 0, 86, 83
4, 39680, Note_on_c, 0, 86, 0
4, 39680, Note_on_c, 0, 83, 0
4, 39680, Note_on_c, 0, 83, 83
4, 39680, Note_on_c, 0, 86, 83
4, 39840, Note_on_c, 0, 86, 0
4, 39840, Note_on_c, 0, 83, 0
4, 39840, Note_on_c, 0, 71, 109
4, 39840, Note_on_c, 0, 83, 109
4, 39999, Note_on_c, 0, 83, 0
4, 39999, Note_on_c, 0, 71, 0
4, 39999, Note_on_c, 0, 74, 83
4, 39999, Note_on_c, 0, 79, 83
4, 40160, Note_on_c, 0, 79, 0
4, 40160, Note_on_c, 0, 74, 0
4, 40160, Note_on_c, 0, 74, 83
4, 40160, Note_on_c, 0, 79, 83
4, 40320, Note_on_c, 0, 79, 0
4, 40320, Note_on_c, 0, 74, 0
4, 40320, Note_on_c, 0, 76, 109
4, 40320, Note_on_c, 0, 88, 109
4, 40479, Note_on_c, 0, 88, 0
4, 40479, Note_on_c, 0, 76, 0
4, 40479, Note_on_c, 0, 79, 83
4, 40479, Note_on_c, 0, 83, 83
4, 40640, Note_on_c, 0, 83, 0
4, 40640, Note_on_c, 0, 79, 0
4, 40640, Note_on_c, 0, 79, 83
4, 40640, Note_on_c, 0, 83, 83
4, 40800, Note_on_c, 0, 83, 0
4, 40800, Note_on_c, 0, 79, 0
4, 40800, Note_on_c, 0, 70, 109
4, 40800, Note_on_c, 0, 82, 109
4, 40959, Note_on_c, 0, 82, 0
4, 40959, Note_on_c, 0, 70, 0
4, 40959, Note_on_c, 0, 73, 83
4, 40959, Note_on_c, 0, 78, 83
4, 41120, Note_on_c, 0, 78, 0
4, 41120, Note_on_c, 0, 73, 0
4, 41120, Note_on_c, 0, 73, 83
4, 41120, Note_on_c, 0, 78, 83
4, 41280, Note_on_c, 0, 78, 0
4, 41280, Note_on_c, 0, 73, 0
4, 41280, Note_on_c, 0, 74, 109
4, 41280, Note_on_c, 0, 86, 109
4, 41439, Note_on_c, 0, 86, 0
4, 41439, Note_on_c, 0, 74, 0
4, 41439, Note_on_c, 0, 78, 83
4, 41439, Note_on_c, 0, 83, 83
4, 41600, Note_on_c, 0, 83, 0
4, 41600, Note_on_c, 0, 78, 0
4, 41600, Note_on_c, 0, 78, 83
4, 41600, Note_on_c, 0, 83, 83
4, 41760, Note_on_c, 0, 83, 0
4, 41760, Note_on_c, 0, 78, 0
4, 41760, Note_on_c, 0, 71, 109
4, 41760, Note_on_c, 0, 83, 109
4, 41919, Note_on_c, 0, 83, 0
4, 41919, Note_on_c, 0, 71, 0
4, 41919, Note_on_c, 0, 74, 83
4, 41919, Note_on_c, 0, 78, 83
4, 42080, Note_on_c, 0, 78, 0
4, 42080, Note_on_c, 0, 74, 0
4, 42080, Note_on_c, 0, 74, 83
4, 42080, Note_on_c, 0, 78, 83
4, 42240, Note_on_c, 0, 78, 0
4, 42240, Note_on_c, 0, 74, 0
4, 42240, Note_on_c, 0, 67, 109
4, 42240, Note_on_c, 0, 79, 109
4, 42399, Note_on_c, 0, 79, 0
4, 42399, Note_on_c, 0, 67, 0
4, 42399, Note_on_c, 0, 71, 83
4, 42399, Note_on_c, 0, 76, 83
4, 42560, Note_on_c, 0, 76, 0
4, 42560, Note_on_c, 0, 71, 0
4, 42560, Note_on_c, 0, 71, 83
4, 42560, Note_on_c, 0, 76, 83
4, 42720, Note_on_c, 0, 76, 0
4, 42720, Note_on_c, 0, 71, 0
4, 42720, Note_on_c, 0, 64, 109
4, 42720, Note_on_c, 0, 76, 109
4, 42879, Note_on_c, 0, 76, 0
4, 42879, Note_on_c, 0, 64, 0
4, 42879, Note_on_c, 0, 67, 83
4, 42879, Note_on_c, 0, 71, 83
4, 43040, Note_on_c, 0, 71, 0
4, 43040, Note_on_c, 0, 67, 0
4, 43040, Note_on_c, 0, 67, 83
4, 43040, Note_on_c, 0, 71, 83
4, 43200, Note_on_c, 0, 71, 0
4, 43200, Note_on_c, 0, 67, 0
4, 43200, Note_on_c, 0, 62, 109
4, 43200, Note_on_c, 0, 66, 109
4, 43200, Note_on_c, 0, 71, 109
4, 43200, Note_on_c, 0, 74, 109
4, 43359, Note_on_c, 0, 74, 0
4, 43359, Note_on_c, 0, 62, 0
4, 43359, Note_on_c, 0, 66, 0
4, 43359, Note_on_c, 0, 71, 0
4, 43359, Note_on_c, 0, 59, 83
4, 43520, Note_on_c, 0, 59, 0
4, 43520, Note_on_c, 0, 62, 83
4, 43680, Note_on_c, 0, 62, 0
4, 43680, Note_on_c, 0, 66, 83
4, 43839, Note_on_c, 0, 66, 0
4, 43839, Note_on_c, 0, 71, 83
4, 44000, Note_on_c, 0, 71, 0
4, 44000, Note_on_c, 0, 74, 83
4, 44160, Note_on_c, 0, 74, 0
4, 44160, Note_on_c, 0, 70, 109
4, 44160, Note_on_c, 0, 73, 109
4, 44160, Note_on_c, 0, 78, 109
4, 44319, Note_on_c, 0, 78, 0
4, 44319, Note_on_c, 0, 73, 0
4, 44319, Note_on_c, 0, 70, 0
4, 44319, Note_on_c, 0, 66, 83
4, 44480, Note_on_c, 0, 66, 0
4, 44480, Note_on_c, 0, 70, 83
4, 44640, Note_on_c, 0, 70, 0
4, 44640, Note_on_c, 0, 73, 83
4, 44799, Note_on_c, 0, 73, 0
4, 44799, Note_on_c, 0, 78, 83
4, 44960, Note_on_c, 0, 78, 0
4, 44960, Note_on_c, 0, 82, 83
4, 45120, Note_on_c, 0, 82, 0
4, 45120, Note_on_c, 0, 71, 109
4, 45120, Note_on_c, 0, 74, 109
4, 45120, Note_on_c, 0, 78, 109
4, 45120, Note_on_c, 0, 83, 109
4, 45279, Note_on_c, 0, 83, 0
4, 45279, Note_on_c, 0, 71, 0
4, 45279, Note_on_c, 0, 74, 0
4, 45279, Note_on_c, 0, 78, 0
4, 45279, Note_on_c, 0, 78, 83
4, 45440, Note_on_c, 0, 78, 0
4, 45440, Note_on_c, 0, 74, 83
4, 45600, Note_on_c, 0, 74, 0
4, 45600, Note_on_c, 0, 71, 109
4, 45759, Note_on_c, 0, 71, 0
4, 45759, Note_on_c, 0, 76, 83
4, 45920, Note_on_c, 0, 76, 0
4, 45920, Note_on_c, 0, 79, 83
4, 46080, Note_on_c, 0, 79, 0
4, 46080, Note_on_c, 0, 71, 109
4, 46080, Note_on_c, 0, 74, 109
4, 46080, Note_on_c, 0, 78, 109
4, 46080, Note_on_c, 0, 83, 109
4, 46320, Note_on_c, 0, 83, 0
4, 46320, Note_on_c, 0, 71, 0
4, 46320, Note_on_c, 0, 74, 0
4, 46320, Note_on_c, 0, 78, 0
4, 46560, Note_on_c, 0, 88, 70
4, 46920, Note_on_c, 0, 83, 70
4, 46980, Note_on_c, 0, 83, 0
4, 46980, Note_on_c, 0, 84, 70
4, 47040, Note_on_c, 0, 84, 0
4, 47040, Note_on_c, 0, 88, 0
4, 47040, Note_on_c, 0, 83, 70
4, 47280, Note_on_c, 0, 83, 0
4, 47280, Note_on_c, 0, 81, 70
4, 47520, Note_on_c, 0, 81, 0
4, 47520, Note_on_c, 0, 83, 70
4, 48480, Note_on_c, 0, 83, 0
4, 48480, Note_on_c, 0, 81, 70
4, 48960, Note_on_c, 0, 81, 0
4, 48960, Note_on_c, 0, 83, 70
4, 50400, Note_on_c, 0, 83, 0
4, 50400, Note_on_c, 0, 88, 70
4, 50760, Note_on_c, 0, 83, 70
4, 50820, Note_on_c, 0, 83, 0
4, 50820, Note_on_c, 0, 84, 70
4, 50880, Note_on_c, 0, 84, 0
4, 50880, Note_on_c, 0, 88, 0
4, 50880, Note_on_c, 0, 83, 70
4, 51120, Note_on_c, 0, 83, 0
4, 51120, Note_on_c, 0, 81, 70
4, 51360, Note_on_c, 0, 81, 0
4, 51360, Note_on_c, 0, 83, 70
4, 52320, Note_on_c, 0, 83, 0
4, 52320, Note_on_c, 0, 81, 70
4, 52800, Note_on_c, 0, 81, 0
4, 52800, Note_on_c, 0, 83, 70
4, 54240, Note_on_c, 0, 83, 0
4, 54240, Note_on_c, 0, 91, 96
4, 54720, Note_on_c, 0, 91, 0
4, 54720, Note_on_c, 0, 90, 70
4, 55200, Note_on_c, 0, 90, 0
4, 55200, Note_on_c, 0, 83, 96
4, 55680, Note_on_c, 0, 83, 0
4, 55680, Note_on_c, 0, 88, 70
4, 56160, Note_on_c, 0, 88, 0
4, 56160, Note_on_c, 0, 85, 96
4, 56640, Note_on_c, 0, 85, 0
4, 56640, Note_on_c, 0, 86, 70
4, 57120, Note_on_c, 0, 86, 0
4, 57120, Note_on_c, 0, 83, 96
4, 57600, Note_on_c, 0, 83, 0
4, 57600, Note_on_c, 0, 79, 70
4, 58080, Note_on_c, 0, 79, 0
4, 58080, Note_on_c, 0, 76, 96
4, 58560, Note_on_c, 0, 76, 0
4, 58560, Note_on_c, 0, 74, 70
4, 59040, Note_on_c, 0, 74, 0
4, 59040, Note_on_c, 0, 71, 96
4, 59520, Note_on_c, 0, 71, 0
4, 59520, Note_on_c, 0, 67, 70
4, 60000, Note_on_c, 0, 67, 0
4, 60000, Note_on_c, 0, 66, 96
4, 60480, Note_on_c, 0, 66, 0
4, 60480, Note_on_c, 0, 54, 70
4, 60480, Note_on_c, 0, 59, 70
4, 60720, Note_on_c, 0, 59, 0
4, 60720, Note_on_c, 0, 54, 0
4, 62400, Note_on_c, 0, 52, 57
4, 62400, Note_on_c, 0, 57, 57
4, 62400, Note_on_c, 0, 64, 57
4, 63360, Note_on_c, 0, 64, 0
4, 63360, Note_on_c, 0, 57, 0
4, 63360, Note_on_c, 0, 52, 0
4, 63360, Note_on_c, 0, 54, 70
4, 63360, Note_on_c, 0, 57, 70
4, 63360, Note_on_c, 0, 66, 70
4, 64320, Note_on_c, 0, 66, 0
4, 64320, Note_on_c, 0, 57, 0
4, 64320, Note_on_c, 0, 54, 0
4, 64320, Note_on_c, 0, 54, 70
4, 64320, Note_on_c, 0, 57, 70
4, 64320, Note_on_c, 0, 59, 70
4, 65760, Note_on_c, 0, 59, 0
4, 65760, Note_on_c, 0, 57, 0
4, 65760, Note_on_c, 0, 54, 0
4, 70080, Note_on_c, 0, 52, 57
4, 70080, Note_on_c, 0, 57, 57
4, 70080, Note_on_c, 0, 64, 57
4, 71040, Note_on_c, 0, 64, 0
4, 71040, Note_on_c, 0, 57, 0
4, 71040, Note_on_c, 0, 52, 0
4, 71040, Note_on_c, 0, 54, 70
4, 71040, Note_on_c, 0, 57, 70
4, 71040, Note_on_c, 0, 66, 70
4, 72000, Note_on_c, 0, 66, 0
4, 72000, Note_on_c, 0, 57, 0
4, 72000, Note_on_c, 0, 54, 0
4, 72000, Note_on_c, 0, 54, 70
4, 72000, Note_on_c, 0, 57, 70
4, 72000, Note_on_c, 0, 59, 70
4, 73440, Note_on_c, 0, 59, 0
4, 73440, Note_on_c, 0, 57, 0
4, 73440, Note_on_c, 0, 54, 0
4, 77760, Note_on_c, 0, 55, 70
4, 77760, Note_on_c, 0, 60, 70
4, 77760, Note_on_c, 0, 67, 70
4, 78720, Note_on_c, 0, 67, 0
4, 78720, Note_on_c, 0, 60, 0
4, 78720, Note_on_c, 0, 55, 0
4, 78720, Note_on_c, 0, 57, 83
4, 78720, Note_on_c, 0, 60, 83
4, 78720, Note_on_c, 0, 69, 83
4, 79680, Note_on_c, 0, 69, 0
4, 79680, Note_on_c, 0, 60, 0
4, 79680, Note_on_c, 0, 57, 0
4, 79680, Note_on_c, 0, 57, 83
4, 79680, Note_on_c, 0, 60, 83
4, 79680, Note_on_c, 0, 62, 83
4, 81120, Note_on_c, 0, 62, 0
4, 81120, Note_on_c, 0, 60, 0
4, 81120, Note_on_c, 0, 57, 0
4, 85440, Note_on_c, 0, 55, 70
4, 85440, Note_on_c, 0, 60, 70
4, 85440, Note_on_c, 0, 67, 70
4, 86400, Note_on_c, 0, 67, 0
4, 86400, Note_on_c, 0, 60, 0
4, 86400, Note_on_c, 0, 55, 0
4, 86400, Note_on_c, 0, 57, 83
4, 86400, Note_on_c, 0, 60, 83
4, 86400, Note_on_c, 0, 69, 83
4, 87360, Note_on_c, 0, 69, 0
4, 87360, Note_on_c, 0, 60, 0
4, 87360, Note_on_c, 0, 57, 0
4, 87360, Note_on_c, 0, 57, 83
4, 87360, Note_on_c, 0, 60, 83
4, 87360, Note_on_c, 0, 62, 83
4, 88800, Note_on_c, 0, 62, 0
4, 88800, Note_on_c, 0, 60, 0
4, 88800, Note_on_c, 0, 57, 0
4, 149760, Control_c, 0, 64, 127
4, 149760, Note_on_c, 0, 58, 83
4, 149760, Note_on_c, 0, 63, 83
4, 149760, Note_on_c, 0, 67, 83
4, 149880, Note_on_c, 0, 67, 0
4, 149880, Note_on_c, 0, 63, 0
4, 149880, Note_on_c, 0, 58, 0
4, 149880, Note_on_c, 0, 55, 83
4, 150000, Note_on_c, 0, 55, 0
4, 150000, Note_on_c, 0, 58, 83
4, 150000, Note_on_c, 0, 63, 83
4, 150000, Note_on_c, 0, 67, 83
4, 150120, Note_on_c, 0, 67, 0
4, 150120, Note_on_c, 0, 63, 0
4, 150120, Note_on_c, 0, 58, 0
4, 150120, Note_on_c, 0, 55, 83
4, 150240, Note_on_c, 0, 55, 0
4, 150240, Note_on_c, 0, 58, 83
4, 150240, Note_on_c, 0, 63, 83
4, 150240, Note_on_c, 0, 67, 83
4, 150360, Note_on_c, 0, 67, 0
4, 150360, Note_on_c, 0, 63, 0
4, 150360, Note_on_c, 0, 58, 0
4, 150360, Note_on_c, 0, 55, 83
4, 150480, Note_on_c, 0, 55, 0
4, 150480, Note_on_c, 0, 58, 83
4, 150480, Note_on_c, 0, 63, 83
4, 150480, Note_on_c, 0, 67, 83
4, 150600, Note_on_c, 0, 67, 0
4, 150600, Note_on_c, 0, 63, 0
4, 150600, Note_on_c, 0, 58, 0
4, 150600, Note_on_c, 0, 55, 83
4, 150720, Note_on_c, 0, 55, 0
4, 150720, Note_on_c, 0, 58, 70
4, 150720, Note_on_c, 0, 63, 70
4, 150720, Note_on_c, 0, 67, 70
4, 150840, Note_on_c, 0, 67, 0
4, 150840, Note_on_c, 0, 63, 0
4, 150840, Note_on_c, 0, 58, 0
4, 150840, Note_on_c, 0, 55, 70
4, 150960, Note_on_c, 0, 55, 0
4, 150960, Note_on_c, 0, 58, 70
4, 150960, Note_on_c, 0, 63, 70
4, 150960, Note_on_c, 0, 67, 70
4, 151080, Note_on_c, 0, 67, 0
4, 151080, Note_on_c, 0, 63, 0
4, 151080, Note_on_c, 0, 58, 0
4, 151080, Note_on_c, 0, 55, 70
4, 151200, Note_on_c, 0, 55, 0
4, 151200, Note_on_c, 0, 58, 70
4, 151200, Note_on_c, 0, 63, 70
4, 151200, Note_on_c, 0, 67, 70
4, 151320, Note_on_c, 0, 67, 0
4, 151320, Note_on_c, 0, 63, 0
4, 151320, Note_on_c, 0, 58, 0
4, 151320, Note_on_c, 0, 55, 70
4, 151440, Note_on_c, 0, 55, 0
4, 151440, Note_on_c, 0, 58, 70
4, 151440, Note_on_c, 0, 63, 70
4, 151440, Note_on_c, 0, 67, 70
4, 151560, Note_on_c, 0, 67, 0
4, 151560, Note_on_c, 0, 63, 0
4, 151560, Note_on_c, 0, 58, 0
4, 151560, Note_on_c, 0, 55, 70
4, 151680, Note_on_c, 0, 55, 0
4, 151680, Note_on_c, 0, 58, 57
4, 151680, Note_on_c, 0, 63, 57
4, 151680, Note_on_c, 0, 67, 57
4, 151800, Note_on_c, 0, 67, 0
4, 151800, Note_on_c, 0, 63, 0
4, 151800, Note_on_c, 0, 58, 0
4, 151800, Note_on_c, 0, 55, 57
4, 151920, Note_on_c, 0, 55, 0
4, 151920, Note_on_c, 0, 58, 57
4, 151920, Note_on_c, 0, 63, 57
4, 151920, Note_on_c, 0, 67, 57
4, 152040, Note_on_c, 0, 67, 0
4, 152040, Note_on_c, 0, 63, 0
4, 152040, Note_on_c, 0, 58, 0
4, 152040, Note_on_c, 0, 55, 57
4, 152160, Note_on_c, 0, 55, 0
4, 152160, Note_on_c, 0, 58, 57
4, 152160, Note_on_c, 0, 63, 57
4, 152160, Note_on_c, 0, 67, 57
4, 152280, Note_on_c, 0, 67, 0
4, 152280, Note_on_c, 0, 63, 0
4, 152280, Note_on_c, 0, 58, 0
4, 152280, Note_on_c, 0, 55, 57
4, 152400, Note_on_c, 0, 55, 0
4, 152400, Note_on_c, 0, 58, 57
4, 152400, Note_on_c, 0, 63, 57
4, 152400, Note_on_c, 0, 67, 57
4, 152520, Note_on_c, 0, 67, 0
4, 152520, Note_on_c, 0, 63, 0
4, 152520, Note_on_c, 0, 58, 0
4, 152520, Note_on_c, 0, 55, 57
4, 152640, Note_on_c, 0, 55, 0
4, 152640, Note_on_c, 0, 58, 44
4, 152640, Note_on_c, 0, 63, 44
4, 152640, Note_on_c, 0, 67, 44
4, 152760, Note_on_c, 0, 67, 0
4, 152760, Note_on_c, 0, 63, 0
4, 152760, Note_on_c, 0, 58, 0
4, 152760, Note_on_c, 0, 55, 44
4, 152880, Note_on_c, 0, 55, 0
4, 152880, Note_on_c, 0, 58, 44
4, 152880, Note_on_c, 0, 63, 44
4, 152880, Note_on_c, 0, 67, 44
4, 153000, Note_on_c, 0, 67, 0
4, 153000, Note_on_c, 0, 63, 0
4, 153000, Note_on_c, 0, 58, 0
4, 153000, Note_on_c, 0, 55, 44
4, 153120, Note_on_c, 0, 55, 0
4, 153120, Note_on_c, 0, 58, 44
4, 153120, Note_on_c, 0, 63, 44
4, 153120, Note_on_c, 0, 67, 44
4, 153240, Note_on_c, 0, 67, 0
4, 153240, Note_on_c, 0, 63, 0
4, 153240, Note_on_c, 0, 58, 0
4, 153240, Note_on_c, 0, 55, 44
4, 153360, Note_on_c, 0, 55, 0
4, 153360, Note_on_c, 0, 58, 44
4, 153360, Note_on_c, 0, 63, 44
4, 153360, Note_on_c, 0, 67, 44
4, 153480, Note_on_c, 0, 67, 0
4, 153480, Note_on_c, 0, 63, 0
4, 153480, Note_on_c, 0, 58, 0
4, 153480, Control_c, 0, 64, 0
4, 153480, Note_on_c, 0, 55, 44
4, 153600, Note_on_c, 0, 55, 0
4, 153600, Control_c, 0, 64, 127
4, 153600, Note_on_c, 0, 79, 109
4, 155520, Note_on_c, 0, 79, 0
4, 155520, Note_on_c, 0, 77, 83
4, 156000, Note_on_c, 0, 77, 0
4, 156000, Note_on_c, 0, 75, 83
4, 156480, Note_on_c, 0, 75, 0
4, 156480, Note_on_c, 0, 74, 83
4, 156960, Note_on_c, 0, 74, 0
4, 156960, Control_c, 0, 64, 0
4, 156960, Note_on_c, 0, 72, 83
4, 157440, Note_on_c, 0, 72, 0
4, 157440, Note_on_c, 0, 67, 109
4, 157440, Note_on_c, 0, 70, 109
4, 159360, Note_on_c, 0, 67, 0
4, 159360, Control_c, 0, 64, 127
4, 159360, Note_on_c, 0, 65, 83
4, 159840, Note_on_c, 0, 65, 0
4, 159840, Note_on_c, 0, 63, 83
4, 160320, Note_on_c, 0, 63, 0
4, 160320, Note_on_c, 0, 70, 0
4, 160320, Note_on_c, 0, 60, 83
4, 160320, Note_on_c, 0, 69, 83
4, 160800, Note_on_c, 0, 69, 0
4, 160800, Note_on_c, 0, 60, 0
4, 160800, Control_c, 0, 64, 0
4, 160800, Note_on_c, 0, 58, 83
4, 160800, Note_on_c, 0, 70, 83
4, 161280, Note_on_c, 0, 70, 0
4, 161280, Note_on_c, 0, 58, 0
4, 161280, Note_on_c, 0, 59, 109
4, 161280, Note_on_c, 0, 79, 109
4, 162240, Note_on_c, 0, 59, 0
4, 162240, Note_on_c, 0, 58, 83
4, 162720, Note_on_c, 0, 58, 0
4, 162720, Note_on_c, 0, 59, 70
4, 163200, Note_on_c, 0, 59, 0
4, 163200, Note_on_c, 0, 68, 96
4, 164160, Note_on_c, 0, 79, 0
4, 164160, Note_on_c, 0, 77, 70
4, 165120, Note_on_c, 0, 77, 0
4, 165120, Note_on_c, 0, 75, 96
4, 166080, Note_on_c, 0, 68, 0
4, 166080, Note_on_c, 0, 67, 57
4, 166560, Note_on_c, 0, 67, 0
4, 166560, Note_on_c, 0, 66, 57
4, 167040, Note_on_c, 0, 66, 0
4, 167040, Note_on_c, 0, 75, 0
4, 167040, Note_on_c, 0, 67, 57
4, 167040, Note_on_c, 0, 70, 57
4, 167360, Note_on_c, 0, 70, 0
4, 167360, Note_on_c, 0, 67, 0
4, 167360, Note_on_c, 0, 63, 57
4, 167679, Note_on_c, 0, 63, 0
4, 167679, Note_on_c, 0, 60, 57
4, 168000, Note_on_c, 0, 60, 0
4, 168000, Note_on_c, 0, 58, 57
4, 168320, Note_on_c, 0, 58, 0
4, 168320, Note_on_c, 0, 55, 44
4, 168639, Note_on_c, 0, 55, 0
4, 168639, Note_on_c, 0, 51, 44
4, 168960, Note_on_c, 0, 51, 0
4, 168960, Note_on_c, 0, 46, 44
4, 169440, Note_on_c, 0, 46, 0
4, 205440, Note_on_c, 0, 75, 57
4, 205680, Note_on_c, 0, 75, 0
4, 205920, Control_c, 0, 64, 127
4, 205920, Note_on_c, 0, 82, 83
4, 206559, Note_on_c, 0, 82, 0
4, 206559, Note_on_c, 0, 79, 57
4, 206720, Note_on_c, 0, 79, 0
4, 206720, Note_on_c, 0, 75, 57
4, 206880, Note_on_c, 0, 75, 0
4, 206880, Note_on_c, 0, 70, 57
4, 207039, Note_on_c, 0, 70, 0
4, 207039, Note_on_c, 0, 67, 57
4, 207200, Note_on_c, 0, 67, 0
4, 207200, Control_c, 0, 64, 0
4, 207200, Note_on_c, 0, 63, 57
4, 207360, Note_on_c, 0, 63, 0
4, 209280, Note_on_c, 0, 75, 57
4, 209520, Note_on_c, 0, 75, 0
4, 209760, Control_c, 0, 64, 127
4, 209760, Note_on_c, 0, 82, 83
4, 210399, Note_on_c, 0, 82, 0
4, 210399, Note_on_c, 0, 79, 57
4, 210560, Note_on_c, 0, 79, 0
4, 210560, Note_on_c, 0, 75, 57
4, 210720, Note_on_c, 0, 75, 0
4, 210720, Note_on_c, 0, 70, 57
4, 210879, Note_on_c, 0, 70, 0
4, 210879, Note_on_c, 0, 67, 57
4, 211040, Note_on_c, 0, 67, 0
4, 211040, Control_c, 0, 64, 0
4, 211040, Note_on_c, 0, 63, 57
4, 211200, Note_on_c, 0, 63, 0
4, 213120, Note_on_c, 0, 75, 70
4, 213360, Note_on_c, 0, 75, 0
4, 213600, Note_on_c, 0, 84, 96
4, 214239, Note_on_c, 0, 84, 0
4, 214239, Note_on_c, 0, 81, 70
4, 214400, Note_on_c, 0, 81, 0
4, 214400, Note_on_c, 0, 77, 70
4, 214560, Note_on_c, 0, 77, 0
4, 214560, Note_on_c, 0, 72, 70
4, 214719, Note_on_c, 0, 72, 0
4, 214719, Note_on_c, 0, 69, 70
4, 214880, Note_on_c, 0, 69, 0
4, 214880, Note_on_c, 0, 65, 70
4, 215040, Note_on_c, 0, 65, 0
4, 216960, Note_on_c, 0, 75, 70
4, 217200, Note_on_c, 0, 75, 0
4, 217440, Note_on_c, 0, 85, 96
4, 218079, Note_on_c, 0, 85, 0
4, 218079, Note_on_c, 0, 82, 70
4, 218240, Note_on_c, 0, 82, 0
4, 218240, Note_on_c, 0, 79, 70
4, 218400, Note_on_c, 0, 79, 0
4, 218400, Note_on_c, 0, 75, 70
4, 218520, Note_on_c, 0, 75, 0
4, 218520, Note_on_c, 0, 70, 70
4, 218640, Note_on_c, 0, 70, 0
4, 218640, Note_on_c, 0, 67, 70
4, 218760, Note_on_c, 0, 67, 0
4, 218760, Note_on_c, 0, 63, 70
4, 218880, Note_on_c, 0, 63, 0
4, 219840, Note_on_c, 0, 74, 70
4, 219887, Note_on_c, 0, 74, 0
4, 220080, Note_on_c, 0, 86, 70
4, 220560, Note_on_c, 0, 86, 0
4, 220560, Note_on_c, 0, 74, 70
4, 220800, Note_on_c, 0, 74, 0
4, 221760, Note_on_c, 0, 74, 57
4, 221807, Note_on_c, 0, 74, 0
4, 222000, Note_on_c, 0, 86, 57
4, 222480, Note_on_c, 0, 86, 0
4, 222480, Note_on_c, 0, 74, 57
4, 222720, Note_on_c, 0, 74, 0
4, 223680, Note_on_c, 0, 67, 57
4, 223727, Note_on_c, 0, 67, 0
4, 223920, Note_on_c, 0, 79, 57
4, 224400, Note_on_c, 0, 79, 0
4, 224400, Note_on_c, 0, 67, 57
4, 224640, Note_on_c, 0, 67, 0
4, 225600, Note_on_c, 0, 65, 57
4, 225647, Note_on_c, 0, 65, 0
4, 225840, Note_on_c, 0, 77, 57
4, 226320, Note_on_c, 0, 77, 0
4, 226320, Note_on_c, 0, 65, 57
4, 226560, Note_on_c, 0, 65, 0
4, 226560, Control_c, 0, 64, 127
4, 226560, Note_on_c, 0, 58, 57
4, 226560, Note_on_c, 0, 70, 57
4, 227040, Note_on_c, 0, 70, 0
4, 227040, Note_on_c, 0, 58, 0
4, 227040, Note_on_c, 0, 65, 57
4, 227040, Note_on_c, 0, 77, 57
4, 227520, Note_on_c, 0, 77, 0
4, 227520, Note_on_c, 0, 65, 0
4, 227520, Note_on_c, 0, 62, 57
4, 227520, Note_on_c, 0, 74, 57
4, 228000, Note_on_c, 0, 74, 0
4, 228000, Note_on_c, 0, 62, 0
4, 228000, Note_on_c, 0, 60, 57
4, 228000, Note_on_c, 0, 72, 57
4, 228240, Note_on_c, 0, 72, 0
4, 228240, Note_on_c, 0, 60, 0
4, 228240, Control_c, 0, 64, 0
4, 228240, Note_on_c, 0, 62, 57
4, 228240, Note_on_c, 0, 74, 57
4, 228480, Note_on_c, 0, 74, 0
4, 228480, Note_on_c, 0, 62, 0
4, 228480, Note_on_c, 0, 58, 57
4, 228480, Note_on_c, 0, 68, 57
4, 228480, Note_on_c, 0, 70, 57
4, 229920, Note_on_c, 0, 70, 0
4, 229920, Note_on_c, 0, 68, 0
4, 229920, Note_on_c, 0, 58, 0
4, 229920, Note_on_c, 0, 56, 57
4, 229920, Note_on_c, 0, 68, 57
4, 230400, Note_on_c, 0, 68, 0
4, 230400, Note_on_c, 0, 56, 0
4, 230400, Control_c, 0, 64, 127
4, 230400, Note_on_c, 0, 55, 57
4, 230400, Note_on_c, 0, 67, 57
4, 230640, Note_on_c, 0, 67, 0
4, 230640, Note_on_c, 0, 55, 0
4, 230640, Note_on_c, 0, 58, 57
4, 230640, Note_on_c, 0, 70, 57
4, 230880, Note_on_c, 0, 70, 0
4, 230880, Note_on_c, 0, 58, 0
4, 230880, Note_on_c, 0, 63, 70
4, 230880, Note_on_c, 0, 75, 70
4, 231120, Note_on_c, 0, 75, 0
4, 231120, Note_on_c, 0, 63, 0
4, 231120, Control_c, 0, 64, 0
4, 231120, Note_on_c, 0, 67, 70
4, 231120, Note_on_c, 0, 79, 70
4, 231360, Note_on_c, 0, 79, 0
4, 231360, Note_on_c, 0, 67, 0
4, 231360, Note_on_c, 0, 70, 96
4, 231360, Note_on_c, 0, 82, 96
4, 232080, Note_on_c, 0, 82, 0
4, 232080, Note_on_c, 0, 70, 0
4, 232080, Note_on_c, 0, 67, 70
4, 232080, Note_on_c, 0, 79, 70
4, 232320, Note_on_c, 0, 79, 0
4, 232320, Note_on_c, 0, 67, 0
4, 232320, Note_on_c, 0, 66, 70
4, 232320, Note_on_c, 0, 78, 70
4, 232560, Note_on_c, 0, 78, 0
4, 232560, Note_on_c, 0, 66, 0
4, 232560, Note_on_c, 0, 67, 70
4, 232560, Note_on_c, 0, 79, 70
4, 232800, Note_on_c, 0, 79, 0
4, 232800, Note_on_c, 0, 67, 0
4, 232800, Note_on_c, 0, 63, 70
4, 232800, Note_on_c, 0, 75, 70
4, 234240, Note_on_c, 0, 75, 0
4, 234240, Note_on_c, 0, 63, 0
4, 234240, Control_c, 0, 64, 127
4, 234240, Note_on_c, 0, 58, 57
4, 234240, Note_on_c, 0, 70, 57
4, 234720, Note_on_c, 0, 70, 0
4, 234720, Note_on_c, 0, 58, 0
4, 234720, Note_on_c, 0, 65, 57
4, 234720, Note_on_c, 0, 77, 57
4, 235200, Note_on_c, 0, 77, 0
4, 235200, Note_on_c, 0, 65, 0
4, 235200, Note_on_c, 0, 62, 57
4, 235200, Note_on_c, 0, 74, 57
4, 235680, Note_on_c, 0, 74, 0
4, 235680, Note_on_c, 0, 62, 0
4, 235680, Note_on_c, 0, 60, 57
4, 235680, Note_on_c, 0, 72, 57
4, 235920, Note_on_c, 0, 72, 0
4, 235920, Note_on_c, 0, 60, 0
4, 235920, Control_c, 0, 64, 0
4, 235920, Note_on_c, 0, 62, 57
4, 235920, Note_on_c, 0, 74, 57
4, 236160, Note_on_c, 0, 74, 0
4, 236160, Note_on_c, 0, 62, 0
4, 236160, Note_on_c, 0, 58, 57
4, 236160, Note_on_c, 0, 68, 57
4, 236160, Note_on_c, 0, 70, 57
4, 237600, Note_on_c, 0, 70, 0
4, 237600, Note_on_c, 0, 68, 0
4, 237600, Note_on_c, 0, 58, 0
4, 237600, Note_on_c, 0, 56, 57
4, 237600, Note_on_c, 0, 68, 57
4, 238080, Note_on_c, 0, 68, 0
4, 238080, Note_on_c, 0, 56, 0
4, 238080, Control_c, 0, 64, 127
4, 238080, Note_on_c, 0, 55, 57
4, 238080, Note_on_c, 0, 67, 57
4, 238320, Note_on_c, 0, 67, 0
4, 238320, Note_on_c, 0, 55, 0
4, 238320, Note_on_c, 0, 58, 57
4, 238320, Note_on_c, 0, 70, 57
4, 238560, Note_on_c, 0, 70, 0
4, 238560, Note_on_c, 0, 58, 0
4, 238560, Note_on_c, 0, 63, 70
4, 238560, Note_on_c, 0, 75, 70
4, 238800, Note_on_c, 0, 75, 0
4, 238800, Note_on_c, 0, 63, 0
4, 238800, Control_c, 0, 64, 0
4, 238800, Note_on_c, 0, 67, 70
4, 238800, Note_on_c, 0, 79, 70
4, 239040, Note_on_c, 0, 79, 0
4, 239040, Note_on_c, 0, 67, 0
4, 239040, Note_on_c, 0, 66, 96
4, 239040, Note_on_c, 0, 78, 96
4, 239760, Note_on_c, 0, 78, 0
4, 239760, Note_on_c, 0, 66, 0
4, 239760, Note_on_c, 0, 66, 70
4, 240000, Note_on_c, 0, 66, 0
4, 240000, Control_c, 0, 64, 127
4, 240000, Note_on_c, 0, 67, 57
4, 240240, Note_on_c, 0, 67, 0
4, 240240, Note_on_c, 0, 70, 57
4, 240480, Note_on_c, 0, 70, 0
4, 240480, Note_on_c, 0, 75, 70
4, 240720, Note_on_c, 0, 75, 0
4, 240720, Control_c, 0, 64, 0
4, 240720, Note_on_c, 0, 67, 70
4, 240720, Note_on_c, 0, 79, 70
4, 240960, Note_on_c, 0, 79, 0
4, 240960, Note_on_c, 0, 67, 0
4, 240960, Note_on_c, 0, 70, 70
4, 240960, Note_on_c, 0, 82, 70
4, 241920, Note_on_c, 0, 82, 0
4, 241920, Note_on_c, 0, 70, 0
4, 241920, Control_c, 0, 64, 127
4, 241920, Note_on_c, 0, 55, 57
4, 241920, Note_on_c, 0, 67, 57
4, 242160, Note_on_c, 0, 67, 0
4, 242160, Note_on_c, 0, 55, 0
4, 242160, Note_on_c, 0, 58, 57
4, 242160, Note_on_c, 0, 70, 57
4, 242400, Note_on_c, 0, 70, 0
4, 242400, Note_on_c, 0, 58, 0
4, 242400, Note_on_c, 0, 63, 70
4, 242400, Note_on_c, 0, 75, 70
4, 242640, Note_on_c, 0, 75, 0
4, 242640, Note_on_c, 0, 63, 0
4, 242640, Control_c, 0, 64, 0
4, 242640, Note_on_c, 0, 67, 70
4, 242640, Note_on_c, 0, 79, 70
4, 242880, Note_on_c, 0, 79, 0
4, 242880, Note_on_c, 0, 67, 0
4, 242880, Note_on_c, 0, 66, 96
4, 242880, Note_on_c, 0, 78, 96
4, 243600, Note_on_c, 0, 78, 0
4, 243600, Note_on_c, 0, 66, 0
4, 243600, Note_on_c, 0, 66, 70
4, 243840, Note_on_c, 0, 66, 0
4, 243840, Control_c, 0, 64, 127
4, 243840, Note_on_c, 0, 67, 57
4, 244080, Note_on_c, 0, 67, 0
4, 244080, Note_on_c, 0, 70, 57
4, 244320, Note_on_c, 0, 70, 0
4, 244320, Note_on_c, 0, 75, 70
4, 244560, Note_on_c, 0, 75, 0
4, 244560, Control_c, 0, 64, 0
4, 244560, Note_on_c, 0, 67, 70
4, 244560, Note_on_c, 0, 79, 70
4, 244800, Note_on_c, 0, 79, 0
4, 244800, Note_on_c, 0, 67, 0
4, 244800, Note_on_c, 0, 70, 70
4, 244800, Note_on_c, 0, 82, 70
4, 245760, Note_on_c, 0, 82, 0
4, 245760, Note_on_c, 0, 70, 0
4, 245760, Control_c, 0, 64, 127
4, 245760, Note_on_c, 0, 55, 57
4, 245760, Note_on_c, 0, 67, 57
4, 246000, Note_on_c, 0, 67, 0
4, 246000, Note_on_c, 0, 55, 0
4, 246000, Note_on_c, 0, 58, 57
4, 246000, Note_on_c, 0, 70, 57
4, 246240, Note_on_c, 0, 70, 0
4, 246240, Note_on_c, 0, 58, 0
4, 246240, Note_on_c, 0, 63, 70
4, 246240, Note_on_c, 0, 75, 70
4, 246480, Note_on_c, 0, 75, 0
4, 246480, Note_on_c, 0, 63, 0
4, 246480, Control_c, 0, 64, 0
4, 246480, Note_on_c, 0, 67, 70
4, 246480, Note_on_c, 0, 79, 70
4, 246720, Note_on_c, 0, 79, 0
4, 246720, Note_on_c, 0, 67, 0
4, 246720, Note_on_c, 0, 66, 96
4, 246720, Note_on_c, 0, 78, 96
4, 247440, Note_on_c, 0, 78, 0
4, 247440, Note_on_c, 0, 66, 0
4, 247440, Note_on_c, 0, 66, 70
4, 247680, Note_on_c, 0, 66, 0
4, 247680, Control_c, 0, 64, 127
4, 247680, Note_on_c, 0, 67, 57
4, 247920, Note_on_c, 0, 67, 0
4, 247920, Note_on_c, 0, 70, 57
4, 248160, Note_on_c, 0, 70, 0
4, 248160, Note_on_c, 0, 75, 70
4, 248400, Note_on_c, 0, 75, 0
4, 248400, Control_c, 0, 64, 0
4, 248400, Note_on_c, 0, 67, 70
4, 248400, Note_on_c, 0, 79, 70
4, 248640, Note_on_c, 0, 79, 0
4, 248640, Note_on_c, 0, 67, 0
4, 248640, Note_on_c, 0, 66, 96
4, 248640, Note_on_c, 0, 78, 96
4, 249360, Note_on_c, 0, 78, 0
4, 249360, Note_on_c, 0, 66, 0
4, 249360, Note_on_c, 0, 66, 70
4, 249600, Note_on_c, 0, 66, 0
4, 249600, Control_c, 0, 64, 127
4, 249600, Note_on_c, 0, 67, 57
4, 249840, Note_on_c, 0, 67, 0
4, 249840, Note_on_c, 0, 70, 57
4, 250080, Note_on_c, 0, 70, 0
4, 250080, Note_on_c, 0, 63, 70
4, 250080, Note_on_c, 0, 75, 70
4, 250320, Note_on_c, 0, 75, 0
4, 250320, Note_on_c, 0, 63, 0
4, 250320, Control_c, 0, 64, 0
4, 250320, Note_on_c, 0, 67, 70
4, 250320, Note_on_c, 0, 79, 70
4, 250560, Note_on_c, 0, 79, 0
4, 250560, Note_on_c, 0, 67, 0
4, 250560, Note_on_c, 0, 68, 96
4, 250560, Note_on_c, 0, 80, 96
4, 251280, Note_on_c, 0, 80, 0
4, 251280, Note_on_c, 0, 68, 0
4, 251280, Note_on_c, 0, 67, 70
4, 251280, Note_on_c, 0, 79, 70
4, 251520, Note_on_c, 0, 79, 0
4, 251520, Note_on_c, 0, 67, 0
4, 251520, Control_c, 0, 64, 127
4, 251520, Note_on_c, 0, 65, 70
4, 251760, Note_on_c, 0, 65, 0
4, 251760, Note_on_c, 0, 71, 70
4, 252000, Note_on_c, 0, 71, 0
4, 252000, Note_on_c, 0, 62, 70
4, 252000, Note_on_c, 0, 74, 70
4, 252240, Note_on_c, 0, 74, 0
4, 252240, Note_on_c, 0, 62, 0
4, 252240, Control_c, 0, 64, 0
4, 252240, Note_on_c, 0, 67, 70
4, 252240, Note_on_c, 0, 79, 70
4, 252480, Note_on_c, 0, 79, 0
4, 252480, Note_on_c, 0, 67, 0
4, 252480, Note_on_c, 0, 68, 96
4, 252480, Note_on_c, 0, 80, 96
4, 253200, Note_on_c, 0, 80, 0
4, 253200, Note_on_c, 0, 68, 0
4, 253200, Note_on_c, 0, 67, 70
4, 253200, Note_on_c, 0, 79, 70
4, 253440, Note_on_c, 0, 79, 0
4, 253440, Note_on_c, 0, 67, 0
4, 253440, Control_c, 0, 64, 127
4, 253440, Note_on_c, 0, 65, 83
4, 253680, Note_on_c, 0, 65, 0
4, 253680, Note_on_c, 0, 71, 83
4, 253920, Note_on_c, 0, 71, 0
4, 253920, Note_on_c, 0, 74, 83
4, 254160, Note_on_c, 0, 74, 0
4, 254160, Control_c, 0, 64, 0
4, 254160, Note_on_c, 0, 67, 83
4, 254160, Note_on_c, 0, 79, 83
4, 254400, Note_on_c, 0, 79, 0
4, 254400, Note_on_c, 0, 67, 0
4, 254400, Note_on_c, 0, 68, 109
4, 254400, Note_on_c, 0, 80, 109
4, 255120, Note_on_c, 0, 80, 0
4, 255120, Note_on_c, 0, 68, 0
4, 255120, Note_on_c, 0, 67, 83
4, 255120, Note_on_c, 0, 79, 83
4, 255360, Note_on_c, 0, 79, 0
4, 255360, Note_on_c, 0, 67, 0
4, 255360, Control_c, 0, 64, 127
4, 255360, Note_on_c, 0, 65, 83
4, 255600, Note_on_c, 0, 65, 0
4, 255600, Note_on_c, 0, 71, 83
4, 255840, Note_on_c, 0, 71, 0
4, 255840, Note_on_c, 0, 74, 83
4, 256080, Note_on_c, 0, 74, 0
4, 256080, Control_c, 0, 64, 0
4, 256080, Note_on_c, 0, 67, 83
4, 256080, Note_on_c, 0, 79, 83
4, 256320, Note_on_c, 0, 79, 0
4, 256320, Note_on_c, 0, 67, 0
4, 257280, Control_c, 0, 64, 127
4, 257280, Note_on_c, 0, 65, 83
4, 257520, Note_on_c, 0, 65, 0
4, 257520, Note_on_c, 0, 71, 83
4, 257760, Note_on_c, 0, 71, 0
4, 257760, Note_on_c, 0, 74, 83
4, 258000, Note_on_c, 0, 74, 0
4, 258000, Control_c, 0, 64, 0
4, 258000, Note_on_c, 0, 67, 83
4, 258000, Note_on_c, 0, 79, 83
4, 258240, Note_on_c, 0, 79, 0
4, 258240, Note_on_c, 0, 67, 0
4, 258240, Control_c, 0, 64, 0
4, 284640, Note_on_c, 0, 55, 57
4, 285120, Note_on_c, 0, 55, 0
4, 285120, Note_on_c, 0, 63, 83
4, 285600, Note_on_c, 0, 63, 0
4, 285600, Note_on_c, 0, 62, 57
4, 285600, Note_on_c, 0, 67, 57
4, 285840, Note_on_c, 0, 62, 0
4, 285840, Note_on_c, 0, 60, 57
4, 286080, Note_on_c, 0, 60, 0
4, 286080, Note_on_c, 0, 67, 0
4, 286080, Note_on_c, 0, 67, 83
4, 286080, Note_on_c, 0, 79, 83
4, 286560, Note_on_c, 0, 79, 0
4, 286560, Note_on_c, 0, 67, 0
4, 286560, Note_on_c, 0, 79, 57
4, 286560, Note_on_c, 0, 91, 57
4, 287040, Note_on_c, 0, 91, 0
4, 287040, Note_on_c, 0, 79, 0
4, 287040, Note_on_c, 0, 80, 83
4, 287040, Note_on_c, 0, 92, 83
4, 287520, Note_on_c, 0, 92, 0
4, 287520, Note_on_c, 0, 80, 0
4, 287520, Note_on_c, 0, 79, 57
4, 287520, Note_on_c, 0, 91, 57
4, 288000, Note_on_c, 0, 91, 0
4, 288000, Note_on_c, 0, 79, 0
4, 288480, Note_on_c, 0, 55, 57
4, 288960, Note_on_c, 0, 55, 0
4, 288960, Note_on_c, 0, 63, 83
4, 289440, Note_on_c, 0, 63, 0
4, 289440, Note_on_c, 0, 62, 57
4, 289440, Note_on_c, 0, 67, 57
4, 289680, Note_on_c, 0, 62, 0
4, 289680, Note_on_c, 0, 60, 57
4, 289920, Note_on_c, 0, 60, 0
4, 289920, Note_on_c, 0, 67, 0
4, 289920, Note_on_c, 0, 67, 83
4, 289920, Note_on_c, 0, 79, 83
4, 290400, Note_on_c, 0, 79, 0
4, 290400, Note_on_c, 0, 67, 0
4, 290400, Note_on_c, 0, 79, 57
4, 290400, Note_on_c, 0, 91, 57
4, 290880, Note_on_c, 0, 91, 0
4, 290880, Note_on_c, 0, 79, 0
4, 290880, Note_on_c, 0, 80, 83
4, 290880, Note_on_c, 0, 92, 83
4, 291360, Note_on_c, 0, 92, 0
4, 291360, Note_on_c, 0, 80, 0
4, 291360, Note_on_c, 0, 79, 57
4, 291360, Note_on_c, 0, 91, 57
4, 291840, Note_on_c, 0, 91, 0
4, 291840, Note_on_c, 0, 79, 0
4, 292320, Control_c, 0, 64, 127
4, 292320, Note_on_c, 0, 55, 57
4, 292800, Note_on_c, 0, 55, 0
4, 292800, Note_on_c, 0, 63, 83
4, 293280, Note_on_c, 0, 63, 0
4, 293280, Note_on_c, 0, 62, 57
4, 293280, Note_on_c, 0, 67, 57
4, 293520, Note_on_c, 0, 62, 0
4, 293520, Control_c, 0, 64, 0
4, 293520, Note_on_c, 0, 60, 57
4, 293760, Note_on_c, 0, 60, 0
4, 293760, Note_on_c, 0, 67, 0
4, 293760, Note_on_c, 0, 60, 83
4, 293760, Note_on_c, 0, 66, 83
4, 294240, Note_on_c, 0, 66, 0
4, 294240, Note_on_c, 0, 60, 0
4, 294240, Note_on_c, 0, 77, 57
4, 294240, Note_on_c, 0, 89, 57
4, 294720, Note_on_c, 0, 89, 0
4, 294720, Note_on_c, 0, 77, 0
4, 294720, Note_on_c, 0, 78, 83
4, 294720, Note_on_c, 0, 90, 83
4, 295200, Note_on_c, 0, 90, 0
4, 295200, Note_on_c, 0, 78, 0
4, 295200, Note_on_c, 0, 77, 57
4, 295200, Note_on_c, 0, 89, 57
4, 295680, Note_on_c, 0, 89, 0
4, 295680, Note_on_c, 0, 77, 0
4, 296160, Note_on_c, 0, 53, 57
4, 296640, Note_on_c, 0, 53, 0
4, 296640, Note_on_c, 0, 62, 57
4, 297120, Note_on_c, 0, 62, 0
4, 297120, Note_on_c, 0, 60, 57
4, 297120, Note_on_c, 0, 65, 57
4, 297360, Note_on_c, 0, 60, 0
4, 297360, Note_on_c, 0, 58, 57
4, 297600, Note_on_c, 0, 58, 0
4, 297600, Note_on_c, 0, 65, 0
4, 297600, Note_on_c, 0, 65, 57
4, 297600, Note_on_c, 0, 77, 57
4, 298080, Note_on_c, 0, 77, 0
4, 298080, Note_on_c, 0, 65, 0
4, 298080, Note_on_c, 0, 77, 57
4, 298080, Note_on_c, 0, 89, 57
4, 298560, Note_on_c, 0, 89, 0
4, 298560, Note_on_c, 0, 77, 0
4, 298560, Note_on_c, 0, 79, 83
4, 298560, Note_on_c, 0, 91, 83
4, 299040, Note_on_c, 0, 91, 0
4, 299040, Note_on_c, 0, 79, 0
4, 299040, Note_on_c, 0, 77, 57
4, 299040, Note_on_c, 0, 89, 57
4, 299520, Note_on_c, 0, 89, 0
4, 299520, Note_on_c, 0, 77, 0
4, 300000, Note_on_c, 0, 53, 70
4, 300000, Note_on_c, 0, 65, 70
4, 300480, Note_on_c, 0, 65, 0
4, 300480, Note_on_c, 0, 53, 0
4, 300480, Note_on_c, 0, 55, 96
4, 300480, Note_on_c, 0, 67, 96
4, 300960, Note_on_c, 0, 67, 0
4, 300960, Note_on_c, 0, 55, 0
4, 300960, Note_on_c, 0, 53, 70
4, 300960, Note_on_c, 0, 65, 70
4, 301440, Note_on_c, 0, 65, 0
4, 301440, Note_on_c, 0, 53, 0
4, 301920, Note_on_c, 0, 53, 70
4, 301920, Note_on_c, 0, 65, 70
4, 302400, Note_on_c, 0, 65, 0
4, 302400, Note_on_c, 0, 53, 0
4, 302400, Note_on_c, 0, 55, 96
4, 302400, Note_on_c, 0, 67, 96
4, 302880, Note_on_c, 0, 67, 0
4, 302880, Note_on_c, 0, 55, 0
4, 302880, Note_on_c, 0, 53, 70
4, 302880, Note_on_c, 0, 65, 70
4, 303360, Note_on_c, 0, 65, 0
4, 303360, Note_on_c, 0, 53, 0
4, 303840, Note_on_c, 0, 53, 70
4, 303840, Note_on_c, 0, 65, 70
4, 304320, Note_on_c, 0, 65, 0
4, 304320, Note_on_c, 0, 53, 0
4, 304320, Note_on_c, 0, 56, 96
4, 304320, Note_on_c, 0, 68, 96
4, 304800, Note_on_c, 0, 68, 0
4, 304800, Note_on_c, 0, 56, 0
4, 304800, Note_on_c, 0, 55, 70
4, 304800, Note_on_c, 0, 67, 70
4, 305280, Note_on_c, 0, 67, 0
4, 305280, Note_on_c, 0, 55, 0
4, 305760, Note_on_c, 0, 57, 70
4, 305760, Note_on_c, 0, 69, 70
4, 306240, Note_on_c, 0, 69, 0
4, 306240, Note_on_c, 0, 57, 0
4, 306240, Note_on_c, 0, 58, 96
4, 306240, Note_on_c, 0, 70, 96
4, 306720, Note_on_c, 0, 70, 0
4, 306720, Note_on_c, 0, 58, 0
4, 306720, Note_on_c, 0, 57, 70
4, 306720, Note_on_c, 0, 69, 70
4, 307200, Note_on_c, 0, 69, 0
4, 307200, Note_on_c, 0, 57, 0
4, 307680, Note_on_c, 0, 57, 57
4, 308160, Note_on_c, 0, 57, 0
4, 308160, Note_on_c, 0, 65, 83
4, 308640, Note_on_c, 0, 65, 0
4, 308640, Note_on_c, 0, 64, 57
4, 308640, Note_on_c, 0, 69, 57
4, 308880, Note_on_c, 0, 64, 0
4, 308880, Note_on_c, 0, 62, 57
4, 309120, Note_on_c, 0, 62, 0
4, 309120, Note_on_c, 0, 69, 0
4, 309120, Note_on_c, 0, 69, 83
4, 309120, Note_on_c, 0, 81, 83
4, 309600, Note_on_c, 0, 81, 0
4, 309600, Note_on_c, 0, 69, 0
4, 309600, Note_on_c, 0, 81, 57
4, 309600, Note_on_c, 0, 93, 57
4, 310080, Note_on_c, 0, 93, 0
4, 310080, Note_on_c, 0, 81, 0
4, 310080, Note_on_c, 0, 82, 83
4, 310080, Note_on_c, 0, 94, 83
4, 310560, Note_on_c, 0, 94, 0
4, 310560, Note_on_c, 0, 82, 0
4, 310560, Note_on_c, 0, 81, 57
4, 310560, Note_on_c, 0, 93, 57
4, 311040, Note_on_c, 0, 93, 0
4, 311040, Note_on_c, 0, 81, 0
4, 311520, Control_c, 0, 64, 127
4, 311520, Note_on_c, 0, 57, 57
4, 312000, Note_on_c, 0, 57, 0
4, 312000, Note_on_c, 0, 65, 83
4, 312480, Note_on_c, 0, 65, 0
4, 312480, Note_on_c, 0, 64, 57
4, 312480, Note_on_c, 0, 69, 57
4, 312720, Note_on_c, 0, 64, 0
4, 312720, Control_c, 0, 64, 0
4, 312720, Note_on_c, 0, 62, 57
4, 312960, Note_on_c, 0, 62, 0
4, 312960, Note_on_c, 0, 69, 0
4, 312960, Note_on_c, 0, 62, 57
4, 312960, Note_on_c, 0, 68, 57
4, 313440, Note_on_c, 0, 68, 0
4, 313440, Note_on_c, 0, 62, 0
4, 313440, Note_on_c, 0, 79, 57
4, 313440, Note_on_c, 0, 91, 57
4, 313920, Note_on_c, 0, 91, 0
4, 313920, Note_on_c, 0, 79, 0
4, 313920, Note_on_c, 0, 81, 83
4, 313920, Note_on_c, 0, 93, 83
4, 314400, Note_on_c, 0, 93, 0
4, 314400, Note_on_c, 0, 81, 0
4, 314400, Note_on_c, 0, 79, 57
4, 314400, Note_on_c, 0, 91, 57
4, 314880, Note_on_c, 0, 91, 0
4, 314880, Note_on_c, 0, 79, 0
4, 315360, Note_on_c, 0, 55, 57
4, 315840, Note_on_c, 0, 55, 0
4, 315840, Note_on_c, 0, 64, 57
4, 316320, Note_on_c, 0, 64, 0
4, 316320, Note_on_c, 0, 62, 57
4, 316320, Note_on_c, 0, 67, 57
4, 316560, Note_on_c, 0, 62, 0
4, 316560, Note_on_c, 0, 60, 57
4, 316800, Note_on_c, 0, 60, 0
4, 316800, Note_on_c, 0, 67, 0
4, 316800, Note_on_c, 0, 67, 83
4, 316800, Note_on_c, 0, 79, 83
4, 317280, Note_on_c, 0, 79, 0
4, 317280, Note_on_c, 0, 67, 0
4, 317280, Note_on_c, 0, 79, 57
4, 317280, Note_on_c, 0, 91, 57
4, 317760, Note_on_c, 0, 91, 0
4, 317760, Note_on_c, 0, 79, 0
4, 317760, Note_on_c, 0, 81, 83
4, 317760, Note_on_c, 0, 93, 83
4, 318240, Note_on_c, 0, 93, 0
4, 318240, Note_on_c, 0, 81, 0
4, 318240, Note_on_c, 0, 79, 57
4, 318240, Note_on_c, 0, 91, 57
4, 318720, Note_on_c, 0, 91, 0
4, 318720, Note_on_c, 0, 79, 0
4, 319200, Note_on_c, 0, 55, 57
4, 319200, Note_on_c, 0, 67, 57
4, 319680, Note_on_c, 0, 67, 0
4, 319680, Note_on_c, 0, 55, 0
4, 319680, Note_on_c, 0, 57, 83
4, 319680, Note_on_c, 0, 69, 83
4, 320160, Note_on_c, 0, 69, 0
4, 320160, Note_on_c, 0, 57, 0
4, 320160, Note_on_c, 0, 55, 57
4, 320160, Note_on_c, 0, 67, 57
4, 320640, Note_on_c, 0, 67, 0
4, 320640, Note_on_c, 0, 55, 0
4, 321120, Note_on_c, 0, 55, 70
4, 321120, Note_on_c, 0, 67, 70
4, 321600, Note_on_c, 0, 67, 0
4, 321600, Note_on_c, 0, 55, 0
4, 321600, Note_on_c, 0, 57, 96
4, 321600, Note_on_c, 0, 69, 96
4, 322080, Note_on_c, 0, 69, 0
4, 322080, Note_on_c, 0, 57, 0
4, 322080, Note_on_c, 0, 55, 70
4, 322080, Note_on_c, 0, 67, 70
4, 322560, Note_on_c, 0, 67, 0
4, 322560, Note_on_c, 0, 55, 0
4, 323040, Note_on_c, 0, 57, 70
4, 323040, Note_on_c, 0, 69, 70
4, 323520, Note_on_c, 0, 69, 0
4, 323520, Note_on_c, 0, 57, 0
4, 323520, Note_on_c, 0, 58, 96
4, 323520, Note_on_c, 0, 70, 96
4, 324000, Note_on_c, 0, 70, 0
4, 324000, Note_on_c, 0, 58, 0
4, 324000, Note_on_c, 0, 57, 70
4, 324000, Note_on_c, 0, 69, 70
4, 324480, Note_on_c, 0, 69, 0
4, 324480, Note_on_c, 0, 57, 0
4, 324960, Note_on_c, 0, 57, 70
4, 324960, Note_on_c, 0, 69, 70
4, 325440, Note_on_c, 0, 69, 0
4, 325440, Note_on_c, 0, 57, 0
4, 325440, Note_on_c, 0, 58, 96
4, 325440, Note_on_c, 0, 70, 96
4, 325920, Note_on_c, 0, 70, 0
4, 325920, Note_on_c, 0, 58, 0
4, 325920, Note_on_c, 0, 57, 70
4, 325920, Note_on_c, 0, 69, 70
4, 326400, Note_on_c, 0, 69, 0
4, 326400, Note_on_c, 0, 57, 0
4, 326880, Note_on_c, 0, 57, 70
4, 326880, Note_on_c, 0, 69, 70
4, 327360, Note_on_c, 0, 69, 0
4, 327360, Note_on_c, 0, 57, 0
4, 327360, Note_on_c, 0, 58, 96
4, 327360, Note_on_c, 0, 70, 96
4, 327840, Note_on_c, 0, 70, 0
4, 327840, Note_on_c, 0, 58, 0
4, 327840, Note_on_c, 0, 57, 70
4, 327840, Note_on_c, 0, 69, 70
4, 328320, Note_on_c, 0, 69, 0
4, 328320, Note_on_c, 0, 57, 0
4, 328800, Note_on_c, 0, 59, 70
4, 328800, Note_on_c, 0, 71, 70
4, 329280, Note_on_c, 0, 71, 0
4, 329280, Note_on_c, 0, 59, 0
4, 329280, Note_on_c, 0, 60, 96
4, 329280, Note_on_c, 0, 72, 96
4, 329760, Note_on_c, 0, 72, 0
4, 329760, Note_on_c, 0, 60, 0
4, 329760, Note_on_c, 0, 59, 70
4, 329760, Note_on_c, 0, 71, 70
4, 330240, Note_on_c, 0, 71, 0
4, 330240, Note_on_c, 0, 59, 0
4, 330720, Note_on_c, 0, 59, 70
4, 330720, Note_on_c, 0, 71, 70
4, 331200, Note_on_c, 0, 71, 0
4, 331200, Note_on_c, 0, 59, 0
4, 331200, Note_on_c, 0, 60, 96
4, 331200, Note_on_c, 0, 72, 96
4, 331680, Note_on_c, 0, 72, 0
4, 331680, Note_on_c, 0, 60, 0
4, 331680, Note_on_c, 0, 59, 70
4, 331680, Note_on_c, 0, 71, 70
4, 332160, Note_on_c, 0, 71, 0
4, 332160, Note_on_c, 0, 59, 0
4, 332640, Note_on_c, 0, 61, 70
4, 332640, Note_on_c, 0, 73, 70
4, 333120, Note_on_c, 0, 73, 0
4, 333120, Note_on_c, 0, 61, 0
4, 333120, Note_on_c, 0, 62, 70
4, 333120, Note_on_c, 0, 74, 70
4, 333600, Note_on_c, 0, 74, 0
4, 333600, Note_on_c, 0, 62, 0
4, 333600, Note_on_c, 0, 61, 70
4, 333600, Note_on_c, 0, 73, 70
4, 334080, Note_on_c, 0, 73, 0
4, 334080, Note_on_c, 0, 61, 0
4, 334560, Note_on_c, 0, 61, 70
4, 334560, Note_on_c, 0, 73, 70
4, 335040, Note_on_c, 0, 73, 0
4, 335040, Note_on_c, 0, 61, 0
4, 335040, Note_on_c, 0, 62, 96
4, 335040, Note_on_c, 0, 74, 96
4, 335520, Note_on_c, 0, 74, 0
4, 335520, Note_on_c, 0, 62, 0
4, 335520, Note_on_c, 0, 61, 70
4, 335520, Note_on_c, 0, 66, 70
4, 335520, Note_on_c, 0, 69, 70
4, 335520, Note_on_c, 0, 73, 70
4, 336000, Note_on_c, 0, 73, 0
4, 336000, Note_on_c, 0, 61, 0
4, 336000, Note_on_c, 0, 66, 0
4, 336000, Note_on_c, 0, 69, 0
4, 336000, Note_on_c, 0, 60, 70
4, 336000, Note_on_c, 0, 66, 70
4, 336000, Note_on_c, 0, 69, 70
4, 336000, Note_on_c, 0, 72, 70
4, 336240, Note_on_c, 0, 72, 0
4, 336240, Note_on_c, 0, 60, 0
4, 336240, Note_on_c, 0, 66, 0
4, 336240, Note_on_c, 0, 69, 0
4, 336240, Note_on_c, 0, 59, 70
4, 336240, Note_on_c, 0, 66, 70
4, 336240, Note_on_c, 0, 69, 70
4, 336240, Note_on_c, 0, 71, 70
4, 336480, Note_on_c, 0, 71, 0
4, 336480, Note_on_c, 0, 59, 0
4, 336480, Note_on_c, 0, 66, 0
4, 336480, Note_on_c, 0, 69, 0
4, 336480, Note_on_c, 0, 60, 70
4, 336480, Note_on_c, 0, 66, 70
4, 336480, Note_on_c, 0, 69, 70
4, 336480, Note_on_c, 0, 72, 70
4, 337440, Note_on_c, 0, 72, 0
4, 337440, Note_on_c, 0, 60, 0
4, 337440, Note_on_c, 0, 66, 0
4, 337440, Note_on_c, 0, 69, 0
4, 337440, Note_on_c, 0, 61, 70
4, 337440, Note_on_c, 0, 66, 70
4, 337440, Note_on_c, 0, 69, 70
4, 337440, Note_on_c, 0, 73, 70
4, 337920, Note_on_c, 0, 73, 0
4, 337920, Note_on_c, 0, 61, 0
4, 337920, Note_on_c, 0, 66, 0
4, 337920, Note_on_c, 0, 69, 0
4, 337920, Note_on_c, 0, 63, 70
4, 337920, Note_on_c, 0, 66, 70
4, 337920, Note_on_c, 0, 69, 70
4, 337920, Note_on_c, 0, 75, 70
4, 338880, Note_on_c, 0, 75, 0
4, 338880, Note_on_c, 0, 63, 0
4, 338880, Note_on_c, 0, 66, 0
4, 338880, Note_on_c, 0, 69, 0
4, 339360, Note_on_c, 0, 63, 70
4, 339360, Note_on_c, 0, 68, 70
4, 339360, Note_on_c, 0, 71, 70
4, 339360, Note_on_c, 0, 75, 70
4, 339840, Note_on_c, 0, 75, 0
4, 339840, Note_on_c, 0, 63, 0
4, 339840, Note_on_c, 0, 68, 0
4, 339840, Note_on_c, 0, 71, 0
4, 339840, Note_on_c, 0, 62, 70
4, 339840, Note_on_c, 0, 68, 70
4, 339840, Note_on_c, 0, 71, 70
4, 339840, Note_on_c, 0, 74, 70
4, 340080, Note_on_c, 0, 74, 0
4, 340080, Note_on_c, 0, 62, 0
4, 340080, Note_on_c, 0, 68, 0
4, 340080, Note_on_c, 0, 71, 0
4, 340080, Note_on_c, 0, 61, 70
4, 340080, Note_on_c, 0, 68, 70
4, 340080, Note_on_c, 0, 71, 70
4, 340080, Note_on_c, 0, 73, 70
4, 340320, Note_on_c, 0, 73, 0
4, 340320, Note_on_c, 0, 61, 0
4, 340320, Note_on_c, 0, 68, 0
4, 340320, Note_on_c, 0, 71, 0
4, 340320, Note_on_c, 0, 62, 70
4, 340320, Note_on_c, 0, 68, 70
4, 340320, Note_on_c, 0, 71, 70
4, 340320, Note_on_c, 0, 74, 70
4, 341280, Note_on_c, 0, 74, 0
4, 341280, Note_on_c, 0, 62, 0
4, 341280, Note_on_c, 0, 68, 0
4, 341280, Note_on_c, 0, 71, 0
4, 341280, Note_on_c, 0, 63, 70
4, 341280, Note_on_c, 0, 68, 70
4, 341280, Note_on_c, 0, 71, 70
4, 341280, Note_on_c, 0, 75, 70
4, 341760, Note_on_c, 0, 75, 0
4, 341760, Note_on_c, 0, 63, 0
4, 341760, Note_on_c, 0, 68, 0
4, 341760, Note_on_c, 0, 71, 0
4, 341760, Note_on_c, 0, 65, 70
4, 341760, Note_on_c, 0, 68, 70
4, 341760, Note_on_c, 0, 71, 70
4, 341760, Note_on_c, 0, 77, 70
4, 342720, Note_on_c, 0, 77, 0
4, 342720, Note_on_c, 0, 65, 0
4, 342720, Note_on_c, 0, 68, 0
4, 342720, Note_on_c, 0, 71, 0
4, 343200, Note_on_c, 0, 65, 70
4, 343200, Note_on_c, 0, 70, 70
4, 343200, Note_on_c, 0, 73, 70
4, 343200, Note_on_c, 0, 77, 70
4, 343680, Note_on_c, 0, 77, 0
4, 343680, Note_on_c, 0, 65, 0
4, 343680, Note_on_c, 0, 70, 0
4, 343680, Note_on_c, 0, 73, 0
4, 343680, Note_on_c, 0, 64, 83
4, 343680, Note_on_c, 0, 70, 83
4, 343680, Note_on_c, 0, 73, 83
4, 343680, Note_on_c, 0, 76, 83
4, 343920, Note_on_c, 0, 76, 0
4, 343920, Note_on_c, 0, 64, 0
4, 343920, Note_on_c, 0, 70, 0
4, 343920, Note_on_c, 0, 73, 0
4, 343920, Note_on_c, 0, 63, 83
4, 343920, Note_on_c, 0, 70, 83
4, 343920, Note_on_c, 0, 73, 83
4, 343920, Note_on_c, 0, 75, 83
4, 344160, Note_on_c, 0, 75, 0
4, 344160, Note_on_c, 0, 63, 0
4, 344160, Note_on_c, 0, 70, 0
4, 344160, Note_on_c, 0, 73, 0
4, 344160, Note_on_c, 0, 64, 83
4, 344160, Note_on_c, 0, 70, 83
4, 344160, Note_on_c, 0, 73, 83
4, 344160, Note_on_c, 0, 76, 83
4, 345120, Note_on_c, 0, 76, 0
4, 345120, Note_on_c, 0, 64, 0
4, 345120, Note_on_c, 0, 70, 0
4, 345120, Note_on_c, 0, 73, 0
4, 345120, Note_on_c, 0, 67, 83
4, 345120, Note_on_c, 0, 70, 83
4, 345120, Note_on_c, 0, 73, 83
4, 345120, Note_on_c, 0, 79, 83
4, 345600, Note_on_c, 0, 79, 0
4, 345600, Note_on_c, 0, 67, 0
4, 345600, Note_on_c, 0, 70, 0
4, 345600, Note_on_c, 0, 73, 0
4, 345600, Note_on_c, 0, 66, 83
4, 345600, Note_on_c, 0, 72, 83
4, 345600, Note_on_c, 0, 75, 83
4, 345600, Note_on_c, 0, 78, 83
4, 345840, Note_on_c, 0, 78, 0
4, 345840, Note_on_c, 0, 66, 0
4, 345840, Note_on_c, 0, 72, 0
4, 345840, Note_on_c, 0, 75, 0
4, 345840, Note_on_c, 0, 65, 83
4, 345840, Note_on_c, 0, 72, 83
4, 345840, Note_on_c, 0, 75, 83
4, 345840, Note_on_c, 0, 77, 83
4, 346080, Note_on_c, 0, 77, 0
4, 346080, Note_on_c, 0, 65, 0
4, 346080, Note_on_c, 0, 72, 0
4, 346080, Note_on_c, 0, 75, 0
4, 346080, Note_on_c, 0, 66, 83
4, 346080, Note_on_c, 0, 72, 83
4, 346080, Note_on_c, 0, 75, 83
4, 346080, Note_on_c, 0, 78, 83
4, 347040, Note_on_c, 0, 78, 0
4, 347040, Note_on_c, 0, 66, 0
4, 347040, Note_on_c, 0, 72, 0
4, 347040, Note_on_c, 0, 75, 0
4, 347040, Note_on_c, 0, 69, 83
4, 347040, Note_on_c, 0, 72, 83
4, 347040, Note_on_c, 0, 75, 83
4, 347040, Note_on_c, 0, 81, 83
4, 347520, Note_on_c, 0, 81, 0
4, 347520, Note_on_c, 0, 69, 0
4, 347520, Note_on_c, 0, 72, 0
4, 347520, Note_on_c, 0, 75, 0
4, 347520, Note_on_c, 0, 68, 83
4, 347520, Note_on_c, 0, 74, 83
4, 347520, Note_on_c, 0, 77, 83
4, 347520, Note_on_c, 0, 80, 83
4, 347760, Note_on_c, 0, 80, 0
4, 347760, Note_on_c, 0, 68, 0
4, 347760, Note_on_c, 0, 74, 0
4, 347760, Note_on_c, 0, 77, 0
4, 347760, Note_on_c, 0, 67, 83
4, 347760, Note_on_c, 0, 73, 83
4, 347760, Note_on_c, 0, 76, 83
4, 347760, Note_on_c, 0, 79, 83
4, 348000, Note_on_c, 0, 79, 0
4, 348000, Note_on_c, 0, 67, 0
4, 348000, Note_on_c, 0, 73, 0
4, 348000, Note_on_c, 0, 76, 0
4, 348000, Note_on_c, 0, 68, 83
4, 348000, Note_on_c, 0, 74, 83
4, 348000, Note_on_c, 0, 77, 83
4, 348000, Note_on_c, 0, 80, 83
4, 348480, Note_on_c, 0, 80, 0
4, 348480, Note_on_c, 0, 68, 0
4, 348480, Note_on_c, 0, 74, 0
4, 348480, Note_on_c, 0, 77, 0
4, 348480, Note_on_c, 0, 69, 83
4, 348480, Note_on_c, 0, 75, 83
4, 348480, Note_on_c, 0, 78, 83
4, 348480, Note_on_c, 0, 81, 83
4, 348720, Note_on_c, 0, 81, 0
4, 348720, Note_on_c, 0, 69, 0
4, 348720, Note_on_c, 0, 75, 0
4, 348720, Note_on_c, 0, 78, 0
4, 348720, Note_on_c, 0, 68, 83
4, 348720, Note_on_c, 0, 74, 83
4, 348720, Note_on_c, 0, 77, 83
4, 348720, Note_on_c, 0, 80, 83
4, 348960, Note_on_c, 0, 80, 0
4, 348960, Note_on_c, 0, 68, 0
4, 348960, Note_on_c, 0, 74, 0
4, 348960, Note_on_c, 0, 77, 0
4, 348960, Note_on_c, 0, 69, 83
4, 348960, Note_on_c, 0, 75, 83
4, 348960, Note_on_c, 0, 78, 83
4, 348960, Note_on_c, 0, 81, 83
4, 349440, Note_on_c, 0, 81, 0
4, 349440, Note_on_c, 0, 69, 0
4, 349440, Note_on_c, 0, 75, 0
4, 349440, Note_on_c, 0, 78, 0
4, 349440, Note_on_c, 0, 70, 83
4, 349440, Note_on_c, 0, 76, 83
4, 349440, Note_on_c, 0, 79, 83
4, 349440, Note_on_c, 0, 82, 83
4, 349680, Note_on_c, 0, 82, 0
4, 349680, Note_on_c, 0, 70, 0
4, 349680, Note_on_c, 0, 76, 0
4, 349680, Note_on_c, 0, 79, 0
4, 349680, Note_on_c, 0, 69, 83
4, 349680, Note_on_c, 0, 75, 83
4, 349680, Note_on_c, 0, 78, 83
4, 349680, Note_on_c, 0, 81, 83
4, 349920, Note_on_c, 0, 81, 0
4, 349920, Note_on_c, 0, 69, 0
4, 349920, Note_on_c, 0, 75, 0
4, 349920, Note_on_c, 0, 78, 0
4, 349920, Note_on_c, 0, 70, 83
4, 349920, Note_on_c, 0, 76, 83
4, 349920, Note_on_c, 0, 79, 83
4, 349920, Note_on_c, 0, 82, 83
4, 350400, Note_on_c, 0, 82, 0
4, 350400, Note_on_c, 0, 70, 0
4, 350400, Note_on_c, 0, 76, 0
4, 350400, Note_on_c, 0, 79, 0
4, 350400, Note_on_c, 0, 71, 83
4, 350400, Note_on_c, 0, 77, 83
4, 350400, Note_on_c, 0, 80, 83
4, 350400, Note_on_c, 0, 83, 83
4, 350640, Note_on_c, 0, 83, 0
4, 350640, Note_on_c, 0, 71, 0
4, 350640, Note_on_c, 0, 77, 0
4, 350640, Note_on_c, 0, 80, 0
4, 350640, Note_on_c, 0, 70, 83
4, 350640, Note_on_c, 0, 76, 83
4, 350640, Note_on_c, 0, 79, 83
4, 350640, Note_on_c, 0, 82, 83
4, 350880, Note_on_c, 0, 82, 0
4, 350880, Note_on_c, 0, 70, 0
4, 350880, Note_on_c, 0, 76, 0
4, 350880, Note_on_c, 0, 79, 0
4, 350880, Note_on_c, 0, 71, 83
4, 350880, Note_on_c, 0, 77, 83
4, 350880, Note_on_c, 0, 80, 83
4, 350880, Note_on_c, 0, 83, 83
4, 351360, Note_on_c, 0, 83, 0
4, 351360, Note_on_c, 0, 71, 0
4, 351360, Note_on_c, 0, 77, 0
4, 351360, Note_on_c, 0, 80, 0
4, 351360, Note_on_c, 0, 72, 83
4, 351360, Note_on_c, 0, 78, 83
4, 351360, Note_on_c, 0, 81, 83
4, 351360, Note_on_c, 0, 84, 83
4, 351600, Note_on_c, 0, 84, 0
4, 351600, Note_on_c, 0, 72, 0
4, 351600, Note_on_c, 0, 78, 0
4, 351600, Note_on_c, 0, 81, 0
4, 351600, Note_on_c, 0, 71, 83
4, 351600, Note_on_c, 0, 77, 83
4, 351600, Note_on_c, 0, 80, 83
4, 351600, Note_on_c, 0, 83, 83
4, 351840, Note_on_c, 0, 83, 0
4, 351840, Note_on_c, 0, 71, 0
4, 351840, Note_on_c, 0, 77, 0
4, 351840, Note_on_c, 0, 80, 0
4, 351840, Note_on_c, 0, 72, 83
4, 351840, Note_on_c, 0, 78, 83
4, 351840, Note_on_c, 0, 81, 83
4, 351840, Note_on_c, 0, 84, 83
4, 352800, Note_on_c, 0, 84, 0
4, 352800, Note_on_c, 0, 72, 0
4, 352800, Note_on_c, 0, 78, 0
4, 352800, Note_on_c, 0, 81, 0
4, 352800, Note_on_c, 0, 72, 83
4, 352800, Note_on_c, 0, 78, 83
4, 352800, Note_on_c, 0, 81, 83
4, 352800, Note_on_c, 0, 84, 83
4, 353280, Note_on_c, 0, 84, 0
4, 353280, Note_on_c, 0, 72, 0
4, 353280, Note_on_c, 0, 78, 0
4, 353280, Note_on_c, 0, 81, 0
4, 353280, Note_on_c, 0, 75, 83
4, 353280, Note_on_c, 0, 78, 83
4, 353280, Note_on_c, 0, 84, 83
4, 353280, Note_on_c, 0, 87, 83
4, 353520, Note_on_c, 0, 87, 0
4, 353520, Note_on_c, 0, 75, 0
4, 353520, Note_on_c, 0, 78, 0
4, 353520, Note_on_c, 0, 84, 0
4, 353520, Note_on_c, 0, 74, 83
4, 353520, Note_on_c, 0, 77, 83
4, 353520, Note_on_c, 0, 83, 83
4, 353520, Note_on_c, 0, 86, 83
4, 353760, Note_on_c, 0, 86, 0
4, 353760, Note_on_c, 0, 74, 0
4, 353760, Note_on_c, 0, 77, 0
4, 353760, Note_on_c, 0, 83, 0
4, 353760, Note_on_c, 0, 75, 83
4, 353760, Note_on_c, 0, 78, 83
4, 353760, Note_on_c, 0, 84, 83
4, 353760, Note_on_c, 0, 87, 83
4, 354720, Note_on_c, 0, 87, 0
4, 354720, Note_on_c, 0, 75, 0
4, 354720, Note_on_c, 0, 78, 0
4, 354720, Note_on_c, 0, 84, 0
4, 354720, Note_on_c, 0, 78, 96
4, 354720, Note_on_c, 0, 84, 96
4, 354720, Note_on_c, 0, 87, 96
4, 354720, Note_on_c, 0, 90, 96
4, 355200, Note_on_c, 0, 90, 0
4, 355200, Note_on_c, 0, 78, 0
4, 355200, Note_on_c, 0, 84, 0
4, 355200, Note_on_c, 0, 87, 0
4, 355200, Note_on_c, 0, 79, 96
4, 355200, Note_on_c, 0, 84, 96
4, 355200, Note_on_c, 0, 87, 96
4, 355200, Note_on_c, 0, 91, 96
4, 355680, Note_on_c, 0, 91, 0
4, 355680, Note_on_c, 0, 79, 0
4, 355680, Note_on_c, 0, 84, 0
4, 355680, Note_on_c, 0, 87, 0
4, 357120, Note_on_c, 0, 75, 96
4, 357120, Note_on_c, 0, 79, 96
4, 357120, Note_on_c, 0, 84, 96
4, 357120, Note_on_c, 0, 87, 96
4, 357600, Note_on_c, 0, 87, 0
4, 357600, Note_on_c, 0, 75, 0
4, 357600, Note_on_c, 0, 79, 0
4, 357600, Note_on_c, 0, 84, 0
4, 359040, Note_on_c, 0, 72, 96
4, 359040, Note_on_c, 0, 75, 96
4, 359040, Note_on_c, 0, 79, 96
4, 359040, Note_on_c, 0, 84, 96
4, 359520, Note_on_c, 0, 84, 0
4, 359520, Note_on_c, 0, 72, 0
4, 359520, Note_on_c, 0, 75, 0
4, 359520, Note_on_c, 0, 79, 0
4, 360960, Note_on_c, 0, 67, 96
4, 360960, Note_on_c, 0, 72, 96
4, 360960, Note_on_c, 0, 75, 96
4, 360960, Note_on_c, 0, 79, 96
4, 361440, Note_on_c, 0, 79, 0
4, 361440, Note_on_c, 0, 67, 0
4, 361440, Note_on_c, 0, 72, 0
4, 361440, Note_on_c, 0, 75, 0
4, 362880, Note_on_c, 0, 63, 96
4, 362880, Note_on_c, 0, 67, 96
4, 362880, Note_on_c, 0, 72, 96
4, 362880, Note_on_c, 0, 75, 96
4, 363360, Note_on_c, 0, 75, 0
4, 363360, Note_on_c, 0, 63, 0
4, 363360, Note_on_c, 0, 67, 0
4, 363360, Note_on_c, 0, 72, 0
4, 374640, Note_on_c, 0, 72, 96
4, 374640, Note_on_c, 0, 75, 96
4, 374640, Note_on_c, 0, 79, 96
4, 374687, Note_on_c, 0, 79, 0
4, 374687, Note_on_c, 0, 75, 0
4, 374687, Note_on_c, 0, 72, 0
4, 374880, Note_on_c, 0, 67, 96
4, 374880, Note_on_c, 0, 72, 96
4, 374880, Note_on_c, 0, 75, 96
4, 374927, Note_on_c, 0, 75, 0
4, 374927, Note_on_c, 0, 72, 0
4, 374927, Note_on_c, 0, 67, 0
4, 375120, Note_on_c, 0, 63, 96
4, 375120, Note_on_c, 0, 67, 96
4, 375120, Note_on_c, 0, 72, 96
4, 375167, Note_on_c, 0, 72, 0
4, 375167, Note_on_c, 0, 67, 0
4, 375167, Note_on_c, 0, 63, 0
4, 375360, Note_on_c, 0, 62, 96
4, 375360, Note_on_c, 0, 65, 96
4, 375360, Note_on_c, 0, 71, 96
4, 375407, Note_on_c, 0, 71, 0
4, 375407, Note_on_c, 0, 65, 0
4, 375407, Note_on_c, 0, 62, 0
4, 375600, Note_on_c, 0, 65, 96
4, 375600, Note_on_c, 0, 71, 96
4, 375600, Note_on_c, 0, 74, 96
4, 375647, Note_on_c, 0, 74, 0
4, 375647, Note_on_c, 0, 71, 0
4, 375647, Note_on_c, 0, 65, 0
4, 375840, Note_on_c, 0, 71, 96
4, 375840, Note_on_c, 0, 74, 96
4, 375840, Note_on_c, 0, 77, 96
4, 375887, Note_on_c, 0, 77, 0
4, 375887, Note_on_c, 0, 74, 0
4, 375887, Note_on_c, 0, 71, 0
4, 376080, Note_on_c, 0, 74, 96
4, 376080, Note_on_c, 0, 77, 96
4, 376080, Note_on_c, 0, 83, 96
4, 376127, Note_on_c, 0, 83, 0
4, 376127, Note_on_c, 0, 77, 0
4, 376127, Note_on_c, 0, 74, 0
4, 376320, Note_on_c, 0, 77, 96
4, 376320, Note_on_c, 0, 83, 96
4, 376320, Note_on_c, 0, 86, 96
4, 376416, Note_on_c, 0, 86, 0
4, 376416, Note_on_c, 0, 83, 0
4, 376416, Note_on_c, 0, 77, 0
4, 386880, Control_c, 0, 64, 127
4, 386880, Note_on_c, 0, 76, 122
4, 386880, Note_on_c, 0, 79, 122
4, 386880, Note_on_c, 0, 88, 122
4, 388800, Note_on_c, 0, 88, 0
4, 388800, Note_on_c, 0, 79, 0
4, 388800, Note_on_c, 0, 76, 0
4, 388800, Note_on_c, 0, 74, 96
4, 388800, Note_on_c, 0, 86, 96
4, 389280, Note_on_c, 0, 86, 0
4, 389280, Note_on_c, 0, 74, 0
4, 389280, Note_on_c, 0, 72, 96
4, 389280, Note_on_c, 0, 84, 96
4, 389760, Note_on_c, 0, 84, 0
4, 389760, Note_on_c, 0, 72, 0
4, 389760, Note_on_c, 0, 71, 96
4, 389760, Note_on_c, 0, 83, 96
4, 390240, Note_on_c, 0, 83, 0
4, 390240, Note_on_c, 0, 71, 0
4, 390240, Control_c, 0, 64, 0
4, 390240, Note_on_c, 0, 69, 96
4, 390240, Note_on_c, 0, 81, 96
4, 390720, Note_on_c, 0, 81, 0
4, 390720, Note_on_c, 0, 69, 0
4, 390720, Control_c, 0, 64, 127
4, 390720, Note_on_c, 0, 67, 122
4, 390720, Note_on_c, 0, 79, 122
4, 390840, Note_on_c, 0, 79, 0
4, 390840, Note_on_c, 0, 67, 0
4, 390840, Note_on_c, 0, 76, 83
4, 390960, Note_on_c, 0, 76, 0
4, 390960, Note_on_c, 0, 67, 83
4, 391080, Note_on_c, 0, 67, 0
4, 391080, Note_on_c, 0, 76, 83
4, 391200, Note_on_c, 0, 76, 0
4, 391200, Note_on_c, 0, 67, 83
4, 391320, Note_on_c, 0, 67, 0
4, 391320, Note_on_c, 0, 76, 83
4, 391440, Note_on_c, 0, 76, 0
4, 391440, Note_on_c, 0, 67, 83
4, 391560, Note_on_c, 0, 67, 0
4, 391560, Note_on_c, 0, 76, 83
4, 391680, Note_on_c, 0, 76, 0
4, 391680, Note_on_c, 0, 67, 83
4, 391800, Note_on_c, 0, 67, 0
4, 391800, Note_on_c, 0, 76, 83
4, 391920, Note_on_c, 0, 76, 0
4, 391920, Note_on_c, 0, 67, 83
4, 392040, Note_on_c, 0, 67, 0
4, 392040, Note_on_c, 0, 76, 83
4, 392160, Note_on_c, 0, 76, 0
4, 392160, Note_on_c, 0, 67, 83
4, 392280, Note_on_c, 0, 67, 0
4, 392280, Note_on_c, 0, 76, 83
4, 392400, Note_on_c, 0, 76, 0
4, 392400, Note_on_c, 0, 67, 83
4, 392520, Note_on_c, 0, 67, 0
4, 392520, Note_on_c, 0, 76, 83
4, 392640, Note_on_c, 0, 76, 0
4, 392640, Note_on_c, 0, 67, 83
4, 392760, Note_on_c, 0, 67, 0
4, 392760, Note_on_c, 0, 76, 83
4, 392880, Note_on_c, 0, 76, 0
4, 392880, Note_on_c, 0, 67, 83
4, 393000, Note_on_c, 0, 67, 0
4, 393000, Note_on_c, 0, 76, 83
4, 393120, Note_on_c, 0, 76, 0
4, 393120, Note_on_c, 0, 67, 83
4, 393240, Note_on_c, 0, 67, 0
4, 393240, Note_on_c, 0, 76, 83
4, 393360, Note_on_c, 0, 76, 0
4, 393360, Note_on_c, 0, 67, 83
4, 393480, Note_on_c, 0, 67, 0
4, 393480, Note_on_c, 0, 76, 83
4, 393600, Note_on_c, 0, 76, 0
4, 393600, Note_on_c, 0, 66, 109
4, 393600, Note_on_c, 0, 78, 109
4, 393720, Note_on_c, 0, 78, 0
4, 393720, Note_on_c, 0, 66, 0
4, 393720, Note_on_c, 0, 76, 83
4, 393840, Note_on_c, 0, 76, 0
4, 393840, Note_on_c, 0, 66, 83
4, 393960, Note_on_c, 0, 66, 0
4, 393960, Note_on_c, 0, 76, 83
4, 394080, Note_on_c, 0, 76, 0
4, 394080, Note_on_c, 0, 67, 109
4, 394080, Note_on_c, 0, 79, 109
4, 394200, Note_on_c, 0, 79, 0
4, 394200, Note_on_c, 0, 67, 0
4, 394200, Note_on_c, 0, 76, 83
4, 394320, Note_on_c, 0, 76, 0
4, 394320, Note_on_c, 0, 67, 83
4, 394440, Note_on_c, 0, 67, 0
4, 394440, Control_c, 0, 64, 0
4, 394440, Note_on_c, 0, 76, 83
4, 394560, Note_on_c, 0, 76, 0
4, 394560, Control_c, 0, 64, 127
4, 394560, Note_on_c, 0, 83, 109
4, 394560, Note_on_c, 0, 88, 109
4, 394680, Note_on_c, 0, 88, 0
4, 394680, Note_on_c, 0, 83, 0
4, 394680, Note_on_c, 0, 76, 83
4, 394800, Note_on_c, 0, 76, 0
4, 394800, Note_on_c, 0, 83, 83
4, 394800, Note_on_c, 0, 88, 83
4, 394920, Note_on_c, 0, 88, 0
4, 394920, Note_on_c, 0, 83, 0
4, 394920, Note_on_c, 0, 76, 83
4, 395040, Note_on_c, 0, 76, 0
4, 395040, Note_on_c, 0, 83, 83
4, 395040, Note_on_c, 0, 88, 83
4, 395160, Note_on_c, 0, 88, 0
4, 395160, Note_on_c, 0, 83, 0
4, 395160, Note_on_c, 0, 76, 83
4, 395280, Note_on_c, 0, 76, 0
4, 395280, Note_on_c, 0, 83, 83
4, 395280, Note_on_c, 0, 88, 83
4, 395400, Note_on_c, 0, 88, 0
4, 395400, Note_on_c, 0, 83, 0
4, 395400, Note_on_c, 0, 76, 83
4, 395520, Note_on_c, 0, 76, 0
4, 395520, Note_on_c, 0, 83, 83
4, 395520, Note_on_c, 0, 88, 83
4, 395640, Note_on_c, 0, 88, 0
4, 395640, Note_on_c, 0, 83, 0
4, 395640, Note_on_c, 0, 76, 83
4, 395760, Note_on_c, 0, 76, 0
4, 395760, Note_on_c, 0, 83, 83
4, 395760, Note_on_c, 0, 88, 83
4, 395880, Note_on_c, 0, 88, 0
4, 395880, Note_on_c, 0, 83, 0
4, 395880, Note_on_c, 0, 76, 83
4, 396000, Note_on_c, 0, 76, 0
4, 396000, Note_on_c, 0, 83, 83
4, 396000, Note_on_c, 0, 88, 83
4, 396120, Note_on_c, 0, 88, 0
4, 396120, Note_on_c, 0, 83, 0
4, 396120, Note_on_c, 0, 76, 83
4, 396240, Note_on_c, 0, 76, 0
4, 396240, Note_on_c, 0, 83, 83
4, 396240, Note_on_c, 0, 88, 83
4, 396360, Note_on_c, 0, 88, 0
4, 396360, Note_on_c, 0, 83, 0
4, 396360, Note_on_c, 0, 76, 83
4, 396480, Note_on_c, 0, 76, 0
4, 396480, Note_on_c, 0, 83, 83
4, 396480, Note_on_c, 0, 88, 83
4, 396600, Note_on_c, 0, 88, 0
4, 396600, Note_on_c, 0, 83, 0
4, 396600, Note_on_c, 0, 76, 83
4, 396720, Note_on_c, 0, 76, 0
4, 396720, Note_on_c, 0, 83, 83
4, 396720, Note_on_c, 0, 88, 83
4, 396840, Note_on_c, 0, 88, 0
4, 396840, Note_on_c, 0, 83, 0
4, 396840, Note_on_c, 0, 76, 83
4, 396960, Note_on_c, 0, 76, 0
4, 396960, Note_on_c, 0, 83, 83
4, 396960, Note_on_c, 0, 88, 83
4, 397080, Note_on_c, 0, 88, 0
4, 397080, Note_on_c, 0, 83, 0
4, 397080, Note_on_c, 0, 76, 83
4, 397200, Note_on_c, 0, 76, 0
4, 397200, Note_on_c, 0, 83, 83
4, 397200, Note_on_c, 0, 88, 83
4, 397320, Note_on_c, 0, 88, 0
4, 397320, Note_on_c, 0, 83, 0
4, 397320, Note_on_c, 0, 76, 83
4, 397440, Note_on_c, 0, 76, 0
4, 397440, Note_on_c, 0, 74, 109
4, 397440, Note_on_c, 0, 86, 109
4, 397560, Note_on_c, 0, 86, 0
4, 397560, Note_on_c, 0, 74, 0
4, 397560, Note_on_c, 0, 83, 83
4, 397680, Note_on_c, 0, 83, 0
4, 397680, Note_on_c, 0, 74, 83
4, 397680, Note_on_c, 0, 86, 83
4, 397800, Note_on_c, 0, 86, 0
4, 397800, Note_on_c, 0, 74, 0
4, 397800, Note_on_c, 0, 83, 83
4, 397920, Note_on_c, 0, 83, 0
4, 397920, Note_on_c, 0, 74, 83
4, 397920, Note_on_c, 0, 86, 83
4, 398040, Note_on_c, 0, 86, 0
4, 398040, Note_on_c, 0, 74, 0
4, 398040, Note_on_c, 0, 83, 83
4, 398160, Note_on_c, 0, 83, 0
4, 398160, Note_on_c, 0, 74, 83
4, 398160, Note_on_c, 0, 86, 83
4, 398280, Note_on_c, 0, 86, 0
4, 398280, Note_on_c, 0, 74, 0
4, 398280, Control_c, 0, 64, 0
4, 398280, Note_on_c, 0, 83, 83
4, 398400, Note_on_c, 0, 83, 0
4, 398400, Control_c, 0, 64, 127
4, 398400, Note_on_c, 0, 79, 109
4, 398400, Note_on_c, 0, 84, 109
4, 398520, Note_on_c, 0, 84, 0
4, 398520, Note_on_c, 0, 79, 0
4, 398520, Note_on_c, 0, 72, 83
4, 398640, Note_on_c, 0, 72, 0
4, 398640, Note_on_c, 0, 79, 83
4, 398640, Note_on_c, 0, 84, 83
4, 398760, Note_on_c, 0, 84, 0
4, 398760, Note_on_c, 0, 79, 0
4, 398760, Note_on_c, 0, 72, 83
4, 398880, Note_on_c, 0, 72, 0
4, 398880, Note_on_c, 0, 79, 83
4, 398880, Note_on_c, 0, 84, 83
4, 399000, Note_on_c, 0, 84, 0
4, 399000, Note_on_c, 0, 79, 0
4, 399000, Note_on_c, 0, 72, 83
4, 399120, Note_on_c, 0, 72, 0
4, 399120, Note_on_c, 0, 79, 83
4, 399120, Note_on_c, 0, 84, 83
4, 399240, Note_on_c, 0, 84, 0
4, 399240, Note_on_c, 0, 79, 0
4, 399240, Note_on_c, 0, 72, 83
4, 399360, Note_on_c, 0, 72, 0
4, 399360, Note_on_c, 0, 79, 83
4, 399360, Note_on_c, 0, 84, 83
4, 399480, Note_on_c, 0, 84, 0
4, 399480, Note_on_c, 0, 79, 0
4, 399480, Note_on_c, 0, 72, 83
4, 399600, Note_on_c, 0, 72, 0
4, 399600, Note_on_c, 0, 79, 83
4, 399600, Note_on_c, 0, 84, 83
4, 399720, Note_on_c, 0, 84, 0
4, 399720, Note_on_c, 0, 79, 0
4, 399720, Note_on_c, 0, 72, 83
4, 399840, Note_on_c, 0, 72, 0
4, 399840, Note_on_c, 0, 79, 83
4, 399840, Note_on_c, 0, 84, 83
4, 399960, Note_on_c, 0, 84, 0
4, 399960, Note_on_c, 0, 79, 0
4, 399960, Note_on_c, 0, 72, 83
4, 400080, Note_on_c, 0, 72, 0
4, 400080, Note_on_c, 0, 79, 83
4, 400080, Note_on_c, 0, 84, 83
4, 400200, Note_on_c, 0, 84, 0
4, 400200, Note_on_c, 0, 79, 0
4, 400200, Note_on_c, 0, 72, 83
4, 400320, Note_on_c, 0, 72, 0
4, 400320, Note_on_c, 0, 79, 83
4, 400320, Note_on_c, 0, 84, 83
4, 400440, Note_on_c, 0, 84, 0
4, 400440, Note_on_c, 0, 79, 0
4, 400440, Note_on_c, 0, 72, 83
4, 400560, Note_on_c, 0, 72, 0
4, 400560, Note_on_c, 0, 79, 83
4, 400560, Note_on_c, 0, 84, 83
4, 400680, Note_on_c, 0, 84, 0
4, 400680, Note_on_c, 0, 79, 0
4, 400680, Note_on_c, 0, 72, 83
4, 400800, Note_on_c, 0, 72, 0
4, 400800, Note_on_c, 0, 79, 83
4, 400800, Note_on_c, 0, 84, 83
4, 400920, Note_on_c, 0, 84, 0
4, 400920, Note_on_c, 0, 79, 0
4, 400920, Note_on_c, 0, 72, 83
4, 401040, Note_on_c, 0, 72, 0
4, 401040, Note_on_c, 0, 79, 83
4, 401040, Note_on_c, 0, 84, 83
4, 401160, Note_on_c, 0, 84, 0
4, 401160, Note_on_c, 0, 79, 0
4, 401160, Note_on_c, 0, 72, 83
4, 401280, Note_on_c, 0, 72, 0
4, 401280, Note_on_c, 0, 79, 83
4, 401280, Note_on_c, 0, 84, 83
4, 401400, Note_on_c, 0, 84, 0
4, 401400, Note_on_c, 0, 79, 0
4, 401400, Note_on_c, 0, 72, 83
4, 401520, Note_on_c, 0, 72, 0
4, 401520, Note_on_c, 0, 79, 83
4, 401520, Note_on_c, 0, 84, 83
4, 401640, Note_on_c, 0, 84, 0
4, 401640, Note_on_c, 0, 79, 0
4, 401640, Note_on_c, 0, 72, 83
4, 401760, Note_on_c, 0, 72, 0
4, 401760, Note_on_c, 0, 79, 83
4, 401760, Note_on_c, 0, 84, 83
4, 401880, Note_on_c, 0, 84, 0
4, 401880, Note_on_c, 0, 79, 0
4, 401880, Note_on_c, 0, 72, 83
4, 402000, Note_on_c, 0, 72, 0
4, 402000, Control_c, 0, 64, 0
4, 402000, Note_on_c, 0, 79, 83
4, 402000, Note_on_c, 0, 84, 83
4, 402120, Note_on_c, 0, 84, 0
4, 402120, Note_on_c, 0, 79, 0
4, 402120, Note_on_c, 0, 72, 83
4, 402240, Note_on_c, 0, 72, 0
4, 402240, Control_c, 0, 64, 127
4, 402240, Note_on_c, 0, 72, 109
4, 402240, Note_on_c, 0, 84, 109
4, 402360, Note_on_c, 0, 84, 0
4, 402360, Note_on_c, 0, 72, 0
4, 402360, Note_on_c, 0, 75, 83
4, 402480, Note_on_c, 0, 75, 0
4, 402480, Note_on_c, 0, 72, 83
4, 402600, Note_on_c, 0, 72, 0
4, 402600, Note_on_c, 0, 75, 83
4, 402720, Note_on_c, 0, 75, 0
4, 402720, Note_on_c, 0, 72, 83
4, 402840, Note_on_c, 0, 72, 0
4, 402840, Note_on_c, 0, 75, 83
4, 402960, Note_on_c, 0, 75, 0
4, 402960, Note_on_c, 0, 72, 83
4, 403080, Note_on_c, 0, 72, 0
4, 403080, Note_on_c, 0, 75, 83
4, 403200, Note_on_c, 0, 75, 0
4, 403200, Note_on_c, 0, 72, 83
4, 403320, Note_on_c, 0, 72, 0
4, 403320, Note_on_c, 0, 75, 83
4, 403440, Note_on_c, 0, 75, 0
4, 403440, Note_on_c, 0, 72, 83
4, 403560, Note_on_c, 0, 72, 0
4, 403560, Note_on_c, 0, 75, 83
4, 403680, Note_on_c, 0, 75, 0
4, 403680, Note_on_c, 0, 72, 83
4, 403800, Note_on_c, 0, 72, 0
4, 403800, Note_on_c, 0, 75, 83
4, 403920, Note_on_c, 0, 75, 0
4, 403920, Note_on_c, 0, 72, 83
4, 404040, Note_on_c, 0, 72, 0
4, 404040, Control_c, 0, 64, 0
4, 404040, Note_on_c, 0, 75, 83
4, 404160, Note_on_c, 0, 75, 0
4, 404160, Control_c, 0, 64, 127
4, 404160, Note_on_c, 0, 70, 109
4, 404160, Note_on_c, 0, 72, 109
4, 404160, Note_on_c, 0, 82, 109
4, 404640, Note_on_c, 0, 82, 0
4, 404640, Note_on_c, 0, 72, 0
4, 404640, Note_on_c, 0, 70, 0
4, 404640, Note_on_c, 0, 68, 109
4, 404640, Note_on_c, 0, 80, 109
4, 405120, Note_on_c, 0, 80, 0
4, 405120, Note_on_c, 0, 68, 0
4, 405120, Note_on_c, 0, 67, 109
4, 405120, Note_on_c, 0, 79, 109
4, 405600, Note_on_c, 0, 79, 0
4, 405600, Note_on_c, 0, 67, 0
4, 405600, Control_c, 0, 64, 0
4, 405600, Note_on_c, 0, 66, 109
4, 405600, Note_on_c, 0, 78, 109
4, 406080, Note_on_c, 0, 78, 0
4, 406080, Note_on_c, 0, 66, 0
4, 406080, Control_c, 0, 64, 127
4, 406080, Note_on_c, 0, 67, 109
4, 406080, Note_on_c, 0, 79, 109
4, 406200, Note_on_c, 0, 79, 0
4, 406200, Note_on_c, 0, 67, 0
4, 406200, Note_on_c, 0, 72, 83
4, 406320, Note_on_c, 0, 72, 0
4, 406320, Note_on_c, 0, 67, 83
4, 406440, Note_on_c, 0, 67, 0
4, 406440, Note_on_c, 0, 72, 83
4, 406560, Note_on_c, 0, 72, 0
4, 406560, Note_on_c, 0, 67, 83
4, 406680, Note_on_c, 0, 67, 0
4, 406680, Note_on_c, 0, 72, 83
4, 406800, Note_on_c, 0, 72, 0
4, 406800, Note_on_c, 0, 67, 83
4, 406920, Note_on_c, 0, 67, 0
4, 406920, Note_on_c, 0, 72, 83
4, 407040, Note_on_c, 0, 72, 0
4, 407040, Note_on_c, 0, 67, 83
4, 407160, Note_on_c, 0, 67, 0
4, 407160, Note_on_c, 0, 72, 83
4, 407280, Note_on_c, 0, 72, 0
4, 407280, Note_on_c, 0, 67, 83
4, 407400, Note_on_c, 0, 67, 0
4, 407400, Note_on_c, 0, 72, 83
4, 407520, Note_on_c, 0, 72, 0
4, 407520, Note_on_c, 0, 67, 83
4, 407640, Note_on_c, 0, 67, 0
4, 407640, Note_on_c, 0, 72, 83
4, 407760, Note_on_c, 0, 72, 0
4, 407760, Note_on_c, 0, 67, 83
4, 407880, Note_on_c, 0, 67, 0
4, 407880, Note_on_c, 0, 72, 83
4, 408000, Note_on_c, 0, 72, 0
4, 408000, Control_c, 0, 64, 127
4, 408000, Note_on_c, 0, 72, 83
4, 408320, Note_on_c, 0, 72, 0
4, 408320, Note_on_c, 0, 67, 109
4, 408639, Note_on_c, 0, 67, 0
4, 408639, Note_on_c, 0, 72, 109
4, 408960, Note_on_c, 0, 72, 0
4, 408960, Note_on_c, 0, 63, 109
4, 408960, Note_on_c, 0, 75, 109
4, 409280, Note_on_c, 0, 75, 0
4, 409280, Note_on_c, 0, 63, 0
4, 409280, Note_on_c, 0, 66, 109
4, 409280, Note_on_c, 0, 78, 109
4, 409599, Note_on_c, 0, 78, 0
4, 409599, Note_on_c, 0, 66, 0
4, 409599, Control_c, 0, 64, 0
4, 409599, Note_on_c, 0, 67, 109
4, 409599, Note_on_c, 0, 79, 109
4, 409920, Note_on_c, 0, 79, 0
4, 409920, Note_on_c, 0, 67, 0
4, 409920, Control_c, 0, 64, 127
4, 409920, Note_on_c, 0, 72, 109
4, 409920, Note_on_c, 0, 84, 109
4, 410040, Note_on_c, 0, 84, 0
4, 410040, Note_on_c, 0, 72, 0
4, 410040, Note_on_c, 0, 75, 83
4, 410160, Note_on_c, 0, 75, 0
4, 410160, Note_on_c, 0, 72, 83
4, 410280, Note_on_c, 0, 72, 0
4, 410280, Note_on_c, 0, 75, 83
4, 410400, Note_on_c, 0, 75, 0
4, 410400, Note_on_c, 0, 72, 83
4, 410520, Note_on_c, 0, 72, 0
4, 410520, Note_on_c, 0, 75, 83
4, 410640, Note_on_c, 0, 75, 0
4, 410640, Note_on_c, 0, 72, 83
4, 410760, Note_on_c, 0, 72, 0
4, 410760, Note_on_c, 0, 75, 83
4, 410880, Note_on_c, 0, 75, 0
4, 410880, Note_on_c, 0, 72, 83
4, 411000, Note_on_c, 0, 72, 0
4, 411000, Note_on_c, 0, 75, 83
4, 411120, Note_on_c, 0, 75, 0
4, 411120, Note_on_c, 0, 72, 83
4, 411240, Note_on_c, 0, 72, 0
4, 411240, Note_on_c, 0, 75, 83
4, 411360, Note_on_c, 0, 75, 0
4, 411360, Note_on_c, 0, 72, 83
4, 411480, Note_on_c, 0, 72, 0
4, 411480, Note_on_c, 0, 75, 83
4, 411600, Note_on_c, 0, 75, 0
4, 411600, Note_on_c, 0, 72, 83
4, 411720, Note_on_c, 0, 72, 0
4, 411720, Control_c, 0, 64, 0
4, 411720, Note_on_c, 0, 75, 83
4, 411840, Note_on_c, 0, 75, 0
4, 411840, Control_c, 0, 64, 127
4, 411840, Note_on_c, 0, 70, 109
4, 411840, Note_on_c, 0, 72, 109
4, 411840, Note_on_c, 0, 82, 109
4, 412320, Note_on_c, 0, 82, 0
4, 412320, Note_on_c, 0, 72, 0
4, 412320, Note_on_c, 0, 70, 0
4, 412320, Note_on_c, 0, 68, 109
4, 412320, Note_on_c, 0, 80, 109
4, 412800, Note_on_c, 0, 80, 0
4, 412800, Note_on_c, 0, 68, 0
4, 412800, Note_on_c, 0, 67, 109
4, 412800, Note_on_c, 0, 79, 109
4, 413280, Note_on_c, 0, 79, 0
4, 413280, Note_on_c, 0, 67, 0
4, 413280, Control_c, 0, 64, 0
4, 413280, Note_on_c, 0, 66, 109
4, 413280, Note_on_c, 0, 78, 109
4, 413760, Note_on_c, 0, 78, 0
4, 413760, Note_on_c, 0, 66, 0
4, 413760, Control_c, 0, 64, 127
4, 413760, Note_on_c, 0, 67, 109
4, 413760, Note_on_c, 0, 79, 109
4, 413880, Note_on_c, 0, 79, 0
4, 413880, Note_on_c, 0, 67, 0
4, 413880, Note_on_c, 0, 72, 83
4, 414000, Note_on_c, 0, 72, 0
4, 414000, Note_on_c, 0, 67, 83
4, 414120, Note_on_c, 0, 67, 0
4, 414120, Note_on_c, 0, 72, 83
4, 414240, Note_on_c, 0, 72, 0
4, 414240, Note_on_c, 0, 67, 83
4, 414360, Note_on_c, 0, 67, 0
4, 414360, Note_on_c, 0, 72, 83
4, 414480, Note_on_c, 0, 72, 0
4, 414480, Note_on_c, 0, 67, 83
4, 414600, Note_on_c, 0, 67, 0
4, 414600, Note_on_c, 0, 72, 83
4, 414720, Note_on_c, 0, 72, 0
4, 414720, Note_on_c, 0, 67, 83
4, 414840, Note_on_c, 0, 67, 0
4, 414840, Note_on_c, 0, 72, 83
4, 414960, Note_on_c, 0, 72, 0
4, 414960, Note_on_c, 0, 67, 83
4, 415080, Note_on_c, 0, 67, 0
4, 415080, Note_on_c, 0, 72, 83
4, 415200, Note_on_c, 0, 72, 0
4, 415200, Note_on_c, 0, 67, 83
4, 415320, Note_on_c, 0, 67, 0
4, 415320, Note_on_c, 0, 72, 83
4, 415440, Note_on_c, 0, 72, 0
4, 415440, Note_on_c, 0, 67, 83
4, 415560, Note_on_c, 0, 67, 0
4, 415560, Note_on_c, 0, 72, 83
4, 415680, Note_on_c, 0, 72, 0
4, 415680, Control_c, 0, 64, 127
4, 415680, Note_on_c, 0, 72, 83
4, 416000, Note_on_c, 0, 72, 0
4, 416000, Note_on_c, 0, 67, 109
4, 416319, Note_on_c, 0, 67, 0
4, 416319, Note_on_c, 0, 72, 109
4, 416640, Note_on_c, 0, 72, 0
4, 416640, Note_on_c, 0, 63, 109
4, 416640, Note_on_c, 0, 75, 109
4, 416960, Note_on_c, 0, 75, 0
4, 416960, Note_on_c, 0, 63, 0
4, 416960, Note_on_c, 0, 66, 109
4, 416960, Note_on_c, 0, 78, 109
4, 417279, Note_on_c, 0, 78, 0
4, 417279, Note_on_c, 0, 66, 0
4, 417279, Control_c, 0, 64, 0
4, 417279, Note_on_c, 0, 67, 109
4, 417279, Note_on_c, 0, 79, 109
4, 417600, Note_on_c, 0, 79, 0
4, 417600, Note_on_c, 0, 67, 0
4, 417600, Control_c, 0, 64, 127
4, 417600, Note_on_c, 0, 68, 96
4, 417600, Note_on_c, 0, 80, 96
4, 419520, Note_on_c, 0, 80, 0
4, 419520, Note_on_c, 0, 68, 0
4, 419520, Note_on_c, 0, 67, 96
4, 419520, Note_on_c, 0, 79, 96
4, 420000, Note_on_c, 0, 79, 0
4, 420000, Note_on_c, 0, 67, 0
4, 420000, Note_on_c, 0, 65, 96
4, 420000, Note_on_c, 0, 77, 96
4, 420480, Note_on_c, 0, 77, 0
4, 420480, Note_on_c, 0, 65, 0
4, 420480, Note_on_c, 0, 64, 96
4, 420480, Note_on_c, 0, 76, 96
4, 420960, Note_on_c, 0, 76, 0
4, 420960, Note_on_c, 0, 64, 0
4, 420960, Control_c, 0, 64, 0
4, 420960, Note_on_c, 0, 65, 96
4, 420960, Note_on_c, 0, 77, 96
4, 421440, Note_on_c, 0, 77, 0
4, 421440, Note_on_c, 0, 65, 0
4, 421440, Control_c, 0, 64, 127
4, 421440, Note_on_c, 0, 68, 96
4, 423360, Note_on_c, 0, 68, 0
4, 423360, Note_on_c, 0, 67, 96
4, 423840, Note_on_c, 0, 67, 0
4, 423840, Note_on_c, 0, 65, 96
4, 424320, Note_on_c, 0, 65, 0
4, 424320, Note_on_c, 0, 64, 96
4, 424800, Note_on_c, 0, 64, 0
4, 424800, Control_c, 0, 64, 0
4, 424800, Note_on_c, 0, 65, 96
4, 425280, Note_on_c, 0, 65, 0
4, 425280, Control_c, 0, 64, 127
4, 425280, Note_on_c, 0, 68, 96
4, 425280, Note_on_c, 0, 80, 96
4, 427200, Note_on_c, 0, 80, 0
4, 427200, Note_on_c, 0, 68, 0
4, 427200, Note_on_c, 0, 67, 96
4, 427200, Note_on_c, 0, 79, 96
4, 427680, Note_on_c, 0, 79, 0
4, 427680, Note_on_c, 0, 67, 0
4, 427680, Note_on_c, 0, 65, 96
4, 427680, Note_on_c, 0, 77, 96
4, 428160, Note_on_c, 0, 77, 0
4, 428160, Note_on_c, 0, 65, 0
4, 428160, Note_on_c, 0, 64, 96
4, 428160, Note_on_c, 0, 76, 96
4, 428640, Note_on_c, 0, 76, 0
4, 428640, Note_on_c, 0, 64, 0
4, 428640, Control_c, 0, 64, 0
4, 428640, Note_on_c, 0, 65, 96
4, 428640, Note_on_c, 0, 77, 96
4, 429120, Note_on_c, 0, 77, 0
4, 429120, Note_on_c, 0, 65, 0
4, 429120, Control_c, 0, 64, 127
4, 429120, Note_on_c, 0, 68, 83
4, 431040, Note_on_c, 0, 68, 0
4, 431040, Note_on_c, 0, 67, 83
4, 431520, Note_on_c, 0, 67, 0
4, 431520, Note_on_c, 0, 65, 83
4, 432000, Note_on_c, 0, 65, 0
4, 432000, Note_on_c, 0, 64, 83
4, 432480, Note_on_c, 0, 64, 0
4, 432480, Control_c, 0, 64, 0
4, 432480, Note_on_c, 0, 65, 83
4, 432960, Note_on_c, 0, 65, 0
4, 432960, Control_c, 0, 64, 127
4, 432960, Note_on_c, 0, 60, 109
4, 434880, Note_on_c, 0, 60, 0
4, 434880, Note_on_c, 0, 59, 83
4, 435360, Note_on_c, 0, 59, 0
4, 435360, Note_on_c, 0, 57, 83
4, 435840, Note_on_c, 0, 57, 0
4, 435840, Note_on_c, 0, 56, 70
4, 436320, Note_on_c, 0, 56, 0
4, 436320, Control_c, 0, 64, 0
4, 436320, Note_on_c, 0, 57, 70
4, 436800, Note_on_c, 0, 57, 0
4, 436800, Control_c, 0, 64, 127
4, 436800, Note_on_c, 0, 76, 96
4, 436800, Note_on_c, 0, 88, 96
4, 438720, Note_on_c, 0, 88, 0
4, 438720, Note_on_c, 0, 76, 0
4, 438720, Note_on_c, 0, 74, 70
4, 438720, Note_on_c, 0, 86, 70
4, 439200, Note_on_c, 0, 86, 0
4, 439200, Note_on_c, 0, 74, 0
4, 439200, Note_on_c, 0, 72, 70
4, 439200, Note_on_c, 0, 84, 70
4, 439680, Note_on_c, 0, 84, 0
4, 439680, Note_on_c, 0, 72, 0
4, 439680, Note_on_c, 0, 71, 57
4, 439680, Note_on_c, 0, 83, 57
4, 440160, Note_on_c, 0, 83, 0
4, 440160, Note_on_c, 0, 71, 0
4, 440160, Control_c, 0, 64, 0
4, 440160, Note_on_c, 0, 72, 57
4, 440160, Note_on_c, 0, 84, 57
4, 440640, Note_on_c, 0, 84, 0
4, 440640, Note_on_c, 0, 72, 0
4, 440640, Control_c, 0, 64, 127
4, 440640, Note_on_c, 0, 60, 109
4, 442560, Note_on_c, 0, 60, 0
4, 442560, Note_on_c, 0, 59, 83
4, 443040, Note_on_c, 0, 59, 0
4, 443040, Note_on_c, 0, 57, 83
4, 443520, Note_on_c, 0, 57, 0
4, 443520, Note_on_c, 0, 56, 70
4, 444000, Note_on_c, 0, 56, 0
4, 444000, Control_c, 0, 64, 0
4, 444000, Note_on_c, 0, 57, 70
4, 444480, Note_on_c, 0, 57, 0
4, 444480, Control_c, 0, 64, 127
4, 444480, Note_on_c, 0, 76, 96
4, 444480, Note_on_c, 0, 88, 96
4, 446400, Note_on_c, 0, 88, 0
4, 446400, Note_on_c, 0, 76, 0
4, 446400, Note_on_c, 0, 74, 70
4, 446400, Note_on_c, 0, 86, 70
4, 446880, Note_on_c, 0, 86, 0
4, 446880, Note_on_c, 0, 74, 0
4, 446880, Note_on_c, 0, 72, 70
4, 446880, Note_on_c, 0, 84, 70
4, 447360, Note_on_c, 0, 84, 0
4, 447360, Note_on_c, 0, 72, 0
4, 447360, Note_on_c, 0, 71, 57
4, 447360, Note_on_c, 0, 83, 57
4, 447840, Note_on_c, 0, 83, 0
4, 447840, Note_on_c, 0, 71, 0
4, 447840, Control_c, 0, 64, 0
4, 447840, Note_on_c, 0, 72, 57
4, 447840, Note_on_c, 0, 84, 57
4, 448320, Note_on_c, 0, 84, 0
4, 448320, Note_on_c, 0, 72, 0
4, 448320, Control_c, 0, 64, 127
4, 448320, Note_on_c, 0, 62, 57
4, 448320, Note_on_c, 0, 74, 57
4, 448800, Note_on_c, 0, 74, 0
4, 448800, Note_on_c, 0, 62, 0
4, 448800, Note_on_c, 0, 60, 57
4, 448800, Note_on_c, 0, 72, 57
4, 449280, Note_on_c, 0, 72, 0
4, 449280, Note_on_c, 0, 60, 0
4, 449280, Note_on_c, 0, 59, 57
4, 449280, Note_on_c, 0, 71, 57
4, 449760, Note_on_c, 0, 71, 0
4, 449760, Note_on_c, 0, 59, 0
4, 449760, Control_c, 0, 64, 0
4, 449760, Note_on_c, 0, 60, 57
4, 449760, Note_on_c, 0, 72, 57
4, 450240, Note_on_c, 0, 72, 0
4, 450240, Note_on_c, 0, 60, 0
4, 450240, Control_c, 0, 64, 127
4, 450240, Note_on_c, 0, 50, 70
4, 450240, Note_on_c, 0, 62, 70
4, 450720, Note_on_c, 0, 62, 0
4, 450720, Note_on_c, 0, 50, 0
4, 450720, Note_on_c, 0, 48, 70
4, 450720, Note_on_c, 0, 60, 70
4, 451200, Note_on_c, 0, 60, 0
4, 451200, Note_on_c, 0, 48, 0
4, 451200, Note_on_c, 0, 47, 70
4, 451200, Note_on_c, 0, 59, 70
4, 451680, Note_on_c, 0, 59, 0
4, 451680, Note_on_c, 0, 47, 0
4, 451680, Control_c, 0, 64, 0
4, 451680, Note_on_c, 0, 48, 70
4, 451680, Note_on_c, 0, 60, 70
4, 452160, Note_on_c, 0, 60, 0
4, 452160, Note_on_c, 0, 48, 0
4, 452160, Control_c, 0, 64, 127
4, 452160, Note_on_c, 0, 55, 57
4, 452280, Note_on_c, 0, 55, 0
4, 452280, Note_on_c, 0, 52, 57
4, 452400, Note_on_c, 0, 52, 0
4, 452400, Note_on_c, 0, 55, 57
4, 452520, Note_on_c, 0, 55, 0
4, 452520, Note_on_c, 0, 52, 57
4, 452640, Note_on_c, 0, 52, 0
4, 452640, Note_on_c, 0, 55, 57
4, 452760, Note_on_c, 0, 55, 0
4, 452760, Note_on_c, 0, 52, 57
4, 452880, Note_on_c, 0, 52, 0
4, 452880, Note_on_c, 0, 55, 57
4, 453000, Note_on_c, 0, 55, 0
4, 453000, Note_on_c, 0, 52, 57
4, 453120, Note_on_c, 0, 52, 0
4, 453120, Note_on_c, 0, 55, 57
4, 453240, Note_on_c, 0, 55, 0
4, 453240, Note_on_c, 0, 52, 57
4, 453360, Note_on_c, 0, 52, 0
4, 453360, Note_on_c, 0, 55, 57
4, 453480, Note_on_c, 0, 55, 0
4, 453480, Note_on_c, 0, 52, 57
4, 453600, Note_on_c, 0, 52, 0
4, 453600, Note_on_c, 0, 55, 57
4, 453720, Note_on_c, 0, 55, 0
4, 453720, Note_on_c, 0, 52, 57
4, 453840, Note_on_c, 0, 52, 0
4, 453840, Note_on_c, 0, 55, 57
4, 453960, Note_on_c, 0, 55, 0
4, 453960, Note_on_c, 0, 52, 57
4, 454080, Note_on_c, 0, 52, 0
4, 454080, Note_on_c, 0, 55, 57
4, 454200, Note_on_c, 0, 55, 0
4, 454200, Note_on_c, 0, 52, 57
4, 454320, Note_on_c, 0, 52, 0
4, 454320, Note_on_c, 0, 55, 57
4, 454440, Note_on_c, 0, 55, 0
4, 454440, Note_on_c, 0, 52, 57
4, 454560, Note_on_c, 0, 52, 0
4, 454560, Note_on_c, 0, 55, 57
4, 454680, Note_on_c, 0, 55, 0
4, 454680, Note_on_c, 0, 52, 57
4, 454800, Note_on_c, 0, 52, 0
4, 454800, Note_on_c, 0, 55, 57
4, 454920, Note_on_c, 0, 55, 0
4, 454920, Note_on_c, 0, 52, 57
4, 455040, Note_on_c, 0, 52, 0
4, 455040, Note_on_c, 0, 55, 57
4, 455160, Note_on_c, 0, 55, 0
4, 455160, Note_on_c, 0, 52, 57
4, 455280, Note_on_c, 0, 52, 0
4, 455280, Note_on_c, 0, 55, 57
4, 455400, Note_on_c, 0, 55, 0
4, 455400, Note_on_c, 0, 52, 57
4, 455520, Note_on_c, 0, 52, 0
4, 455520, Note_on_c, 0, 55, 57
4, 455640, Note_on_c, 0, 55, 0
4, 455640, Note_on_c, 0, 52, 57
4, 455760, Note_on_c, 0, 52, 0
4, 455760, Control_c, 0, 64, 0
4, 455760, Note_on_c, 0, 55, 57
4, 455880, Note_on_c, 0, 55, 0
4, 455880, Note_on_c, 0, 52, 57
4, 456000, Note_on_c, 0, 52, 0
4, 456000, Control_c, 0, 64, 127
4, 456000, Note_on_c, 0, 55, 57
4, 456120, Note_on_c, 0, 55, 0
4, 456120, Note_on_c, 0, 52, 57
4, 456240, Note_on_c, 0, 52, 0
4, 456240, Note_on_c, 0, 55, 57
4, 456360, Note_on_c, 0, 55, 0
4, 456360, Note_on_c, 0, 52, 57
4, 456480, Note_on_c, 0, 52, 0
4, 456480, Note_on_c, 0, 55, 57
4, 456600, Note_on_c, 0, 55, 0
4, 456600, Note_on_c, 0, 52, 57
4, 456720, Note_on_c, 0, 52, 0
4, 456720, Note_on_c, 0, 55, 57
4, 456840, Note_on_c, 0, 55, 0
4, 456840, Note_on_c, 0, 52, 57
4, 456960, Note_on_c, 0, 52, 0
4, 456960, Note_on_c, 0, 55, 57
4, 457080, Note_on_c, 0, 55, 0
4, 457080, Note_on_c, 0, 52, 57
4, 457200, Note_on_c, 0, 52, 0
4, 457200, Note_on_c, 0, 55, 57
4, 457320, Note_on_c, 0, 55, 0
4, 457320, Note_on_c, 0, 52, 57
4, 457440, Note_on_c, 0, 52, 0
4, 457440, Note_on_c, 0, 55, 57
4, 457560, Note_on_c, 0, 55, 0
4, 457560, Note_on_c, 0, 52, 57
4, 457680, Note_on_c, 0, 52, 0
4, 457680, Control_c, 0, 64, 0
4, 457680, Note_on_c, 0, 55, 57
4, 457800, Note_on_c, 0, 55, 0
4, 457800, Note_on_c, 0, 52, 57
4, 457920, Note_on_c, 0, 52, 0
4, 457920, Note_on_c, 0, 55, 57
4, 458040, Note_on_c, 0, 55, 0
4, 458040, Note_on_c, 0, 52, 57
4, 458160, Note_on_c, 0, 52, 0
4, 458160, Note_on_c, 0, 55, 57
4, 458280, Note_on_c, 0, 55, 0
4, 458280, Note_on_c, 0, 52, 57
4, 458400, Note_on_c, 0, 52, 0
4, 458400, Note_on_c, 0, 55, 57
4, 458520, Note_on_c, 0, 55, 0
4, 458520, Note_on_c, 0, 52, 57
4, 458640, Note_on_c, 0, 52, 0
4, 458640, Note_on_c, 0, 55, 57
4, 458760, Note_on_c, 0, 55, 0
4, 458760, Note_on_c, 0, 52, 57
4, 458880, Note_on_c, 0, 52, 0
4, 458880, Note_on_c, 0, 55, 57
4, 459000, Note_on_c, 0, 55, 0
4, 459000, Note_on_c, 0, 52, 57
4, 459120, Note_on_c, 0, 52, 0
4, 459120, Note_on_c, 0, 55, 57
4, 459240, Note_on_c, 0, 55, 0
4, 459240, Note_on_c, 0, 52, 57
4, 459360, Note_on_c, 0, 52, 0
4, 459360, Note_on_c, 0, 55, 57
4, 459480, Note_on_c, 0, 55, 0
4, 459480, Note_on_c, 0, 52, 57
4, 459600, Note_on_c, 0, 52, 0
4, 459600, Control_c, 0, 64, 0
4, 459600, Note_on_c, 0, 55, 57
4, 459720, Note_on_c, 0, 55, 0
4, 459720, Note_on_c, 0, 52, 57
4, 459840, Note_on_c, 0, 52, 0
4, 459840, Control_c, 0, 64, 127
4, 459840, Note_on_c, 0, 55, 44
4, 459960, Note_on_c, 0, 55, 0
4, 459960, Note_on_c, 0, 52, 44
4, 460080, Note_on_c, 0, 52, 0
4, 460080, Note_on_c, 0, 55, 44
4, 460200, Note_on_c, 0, 55, 0
4, 460200, Note_on_c, 0, 52, 44
4, 460320, Note_on_c, 0, 52, 0
4, 460320, Note_on_c, 0, 55, 44
4, 460440, Note_on_c, 0, 55, 0
4, 460440, Note_on_c, 0, 52, 44
4, 460560, Note_on_c, 0, 52, 0
4, 460560, Note_on_c, 0, 55, 44
4, 460680, Note_on_c, 0, 55, 0
4, 460680, Note_on_c, 0, 52, 44
4, 460800, Note_on_c, 0, 52, 0
4, 460800, Note_on_c, 0, 55, 44
4, 460920, Note_on_c, 0, 55, 0
4, 460920, Note_on_c, 0, 52, 44
4, 461040, Note_on_c, 0, 52, 0
4, 461040, Note_on_c, 0, 55, 44
4, 461160, Note_on_c, 0, 55, 0
4, 461160, Note_on_c, 0, 52, 44
4, 461280, Note_on_c, 0, 52, 0
4, 461280, Note_on_c, 0, 55, 44
4, 461400, Note_on_c, 0, 55, 0
4, 461400, Note_on_c, 0, 52, 44
4, 461520, Note_on_c, 0, 52, 0
4, 461520, Control_c, 0, 64, 0
4, 461520, Note_on_c, 0, 55, 44
4, 461640, Note_on_c, 0, 55, 0
4, 461640, Note_on_c, 0, 52, 44
4, 461760, Note_on_c, 0, 52, 0
4, 461760, Control_c, 0, 64, 127
4, 461760, Note_on_c, 0, 55, 44
4, 461880, Note_on_c, 0, 55, 0
4, 461880, Note_on_c, 0, 52, 44
4, 462000, Note_on_c, 0, 52, 0
4, 462000, Note_on_c, 0, 55, 44
4, 462120, Note_on_c, 0, 55, 0
4, 462120, Note_on_c, 0, 52, 44
4, 462240, Note_on_c, 0, 52, 0
4, 462240, Note_on_c, 0, 55, 44
4, 462360, Note_on_c, 0, 55, 0
4, 462360, Note_on_c, 0, 52, 44
4, 462480, Note_on_c, 0, 52, 0
4, 462480, Note_on_c, 0, 55, 44
4, 462600, Note_on_c, 0, 55, 0
4, 462600, Note_on_c, 0, 52, 44
4, 462720, Note_on_c, 0, 52, 0
4, 462720, Note_on_c, 0, 55, 44
4, 462840, Note_on_c, 0, 55, 0
4, 462840, Note_on_c, 0, 52, 44
4, 462960, Note_on_c, 0, 52, 0
4, 462960, Note_on_c, 0, 55, 44
4, 463080, Note_on_c, 0, 55, 0
4, 463080, Note_on_c, 0, 52, 44
4, 463200, Note_on_c, 0, 52, 0
4, 463200, Note_on_c, 0, 55, 44
4, 463320, Note_on_c, 0, 55, 0
4, 463320, Note_on_c, 0, 52, 44
4, 463440, Note_on_c, 0, 52, 0
4, 463440, Control_c, 0, 64, 0
4, 463440, Note_on_c, 0, 55, 44
4, 463560, Note_on_c, 0, 55, 0
4, 463560, Note_on_c, 0, 52, 44
4, 463680, Note_on_c, 0, 52, 0
4, 463680, Control_c, 0, 64, 127
4, 463680, Note_on_c, 0, 55, 44
4, 463800, Note_on_c, 0, 55, 0
4, 463800, Note_on_c, 0, 52, 44
4, 463920, Note_on_c, 0, 52, 0
4, 463920, Note_on_c, 0, 55, 44
4, 464040, Note_on_c, 0, 55, 0
4, 464040, Note_on_c, 0, 52, 44
4, 464160, Note_on_c, 0, 52, 0
4, 464160, Note_on_c, 0, 55, 44
4, 464280, Note_on_c, 0, 55, 0
4, 464280, Note_on_c, 0, 52, 44
4, 464400, Note_on_c, 0, 52, 0
4, 464400, Note_on_c, 0, 55, 44
4, 464520, Note_on_c, 0, 55, 0
4, 464520, Note_on_c, 0, 52, 44
4, 464640, Note_on_c, 0, 52, 0
4, 464640, Note_on_c, 0, 55, 44
4, 464760, Note_on_c, 0, 55, 0
4, 464760, Note_on_c, 0, 52, 44
4, 464880, Note_on_c, 0, 52, 0
4, 464880, Note_on_c, 0, 55, 44
4, 465000, Note_on_c, 0, 55, 0
4, 465000, Note_on_c, 0, 52, 44
4, 465120, Note_on_c, 0, 52, 0
4, 465120, Note_on_c, 0, 55, 44
4, 465240, Note_on_c, 0, 55, 0
4, 465240, Note_on_c, 0, 52, 44
4, 465360, Note_on_c, 0, 52, 0
4, 465360, Control_c, 0, 64, 0
4, 465360, Note_on_c, 0, 55, 44
4, 465480, Note_on_c, 0, 55, 0
4, 465480, Note_on_c, 0, 52, 44
4, 465600, Note_on_c, 0, 52, 0
4, 465600, Control_c, 0, 64, 127
4, 465600, Note_on_c, 0, 55, 44
4, 465720, Note_on_c, 0, 55, 0
4, 465720, Note_on_c, 0, 52, 44
4, 465840, Note_on_c, 0, 52, 0
4, 465840, Note_on_c, 0, 55, 44
4, 465960, Note_on_c, 0, 55, 0
4, 465960, Note_on_c, 0, 52, 44
4, 466080, Note_on_c, 0, 52, 0
4, 466080, Note_on_c, 0, 55, 44
4, 466200, Note_on_c, 0, 55, 0
4, 466200, Note_on_c, 0, 52, 44
4, 466320, Note_on_c, 0, 52, 0
4, 466320, Note_on_c, 0, 55, 44
4, 466440, Note_on_c, 0, 55, 0
4, 466440, Note_on_c, 0, 52, 44
4, 466560, Note_on_c, 0, 52, 0
4, 466560, Note_on_c, 0, 55, 44
4, 466680, Note_on_c, 0, 55, 0
4, 466680, Note_on_c, 0, 52, 44
4, 466800, Note_on_c, 0, 52, 0
4, 466800, Note_on_c, 0, 55, 44
4, 466920, Note_on_c, 0, 55, 0
4, 466920, Note_on_c, 0, 52, 44
4, 467040, Note_on_c, 0, 52, 0
4, 467040, Note_on_c, 0, 55, 44
4, 467160, Note_on_c, 0, 55, 0
4, 467160, Note_on_c, 0, 52, 44
4, 467280, Note_on_c, 0, 52, 0
4, 467280, Control_c, 0, 64, 0
4, 467280, Note_on_c, 0, 55, 44
4, 467400, Note_on_c, 0, 55, 0
4, 467400, Note_on_c, 0, 52, 44
4, 467520, Note_on_c, 0, 52, 0
4, 467520, Control_c, 0, 64, 127
4, 467520, Note_on_c, 0, 55, 44
4, 467640, Note_on_c, 0, 55, 0
4, 467640, Note_on_c, 0, 52, 44
4, 467760, Note_on_c, 0, 52, 0
4, 467760, Note_on_c, 0, 55, 44
4, 467880, Note_on_c, 0, 55, 0
4, 467880, Note_on_c, 0, 52, 44
4, 468000, Note_on_c, 0, 52, 0
4, 468000, Note_on_c, 0, 55, 44
4, 468120, Note_on_c, 0, 55, 0
4, 468120, Note_on_c, 0, 52, 44
4, 468240, Note_on_c, 0, 52, 0
4, 468240, Note_on_c, 0, 55, 44
4, 468360, Note_on_c, 0, 55, 0
4, 468360, Note_on_c, 0, 52, 44
4, 468480, Note_on_c, 0, 52, 0
4, 468480, Note_on_c, 0, 55, 44
4, 468600, Note_on_c, 0, 55, 0
4, 468600, Note_on_c, 0, 52, 44
4, 468720, Note_on_c, 0, 52, 0
4, 468720, Note_on_c, 0, 55, 44
4, 468840, Note_on_c, 0, 55, 0
4, 468840, Note_on_c, 0, 52, 44
4, 468960, Note_on_c, 0, 52, 0
4, 468960, Note_on_c, 0, 55, 44
4, 469080, Note_on_c, 0, 55, 0
4, 469080, Note_on_c, 0, 52, 44
4, 469200, Note_on_c, 0, 52, 0
4, 469200, Control_c, 0, 64, 0
4, 469200, Note_on_c, 0, 55, 44
4, 469320, Note_on_c, 0, 55, 0
4, 469320, Note_on_c, 0, 52, 44
4, 469440, Note_on_c, 0, 52, 0
4, 469440, Control_c, 0, 64, 127
4, 469440, Note_on_c, 0, 55, 44
4, 469560, Note_on_c, 0, 55, 0
4, 469560, Note_on_c, 0, 52, 44
4, 469680, Note_on_c, 0, 52, 0
4, 469680, Note_on_c, 0, 55, 44
4, 469800, Note_on_c, 0, 55, 0
4, 469800, Note_on_c, 0, 52, 44
4, 469920, Note_on_c, 0, 52, 0
4, 469920, Note_on_c, 0, 55, 44
4, 470040, Note_on_c, 0, 55, 0
4, 470040, Note_on_c, 0, 52, 44
4, 470160, Note_on_c, 0, 52, 0
4, 470160, Note_on_c, 0, 55, 44
4, 470280, Note_on_c, 0, 55, 0
4, 470280, Note_on_c, 0, 52, 44
4, 470400, Note_on_c, 0, 52, 0
4, 470400, Note_on_c, 0, 55, 44
4, 470520, Note_on_c, 0, 55, 0
4, 470520, Note_on_c, 0, 52, 44
4, 470640, Note_on_c, 0, 52, 0
4, 470640, Note_on_c, 0, 55, 44
4, 470760, Note_on_c, 0, 55, 0
4, 470760, Note_on_c, 0, 52, 44
4, 470880, Note_on_c, 0, 52, 0
4, 470880, Note_on_c, 0, 55, 44
4, 471000, Note_on_c, 0, 55, 0
4, 471000, Note_on_c, 0, 52, 44
4, 471120, Note_on_c, 0, 52, 0
4, 471120, Control_c, 0, 64, 0
4, 471120, Note_on_c, 0, 55, 44
4, 471240, Note_on_c, 0, 55, 0
4, 471240, Note_on_c, 0, 52, 44
4, 471360, Note_on_c, 0, 52, 0
4, 471360, Control_c, 0, 64, 127
4, 471360, Note_on_c, 0, 55, 44
4, 471480, Note_on_c, 0, 55, 0
4, 471480, Note_on_c, 0, 52, 44
4, 471600, Note_on_c, 0, 52, 0
4, 471600, Note_on_c, 0, 55, 44
4, 471720, Note_on_c, 0, 55, 0
4, 471720, Note_on_c, 0, 52, 44
4, 471840, Note_on_c, 0, 52, 0
4, 471840, Note_on_c, 0, 55, 44
4, 471960, Note_on_c, 0, 55, 0
4, 471960, Note_on_c, 0, 52, 44
4, 472080, Note_on_c, 0, 52, 0
4, 472080, Note_on_c, 0, 55, 44
4, 472200, Note_on_c, 0, 55, 0
4, 472200, Note_on_c, 0, 52, 44
4, 472320, Note_on_c, 0, 52, 0
4, 472320, Note_on_c, 0, 55, 44
4, 472440, Note_on_c, 0, 55, 0
4, 472440, Note_on_c, 0, 52, 44
4, 472560, Note_on_c, 0, 52, 0
4, 472560, Note_on_c, 0, 55, 44
4, 472680, Note_on_c, 0, 55, 0
4, 472680, Note_on_c, 0, 52, 44
4, 472800, Note_on_c, 0, 52, 0
4, 472800, Note_on_c, 0, 55, 44
4, 472920, Note_on_c, 0, 55, 0
4, 472920, Note_on_c, 0, 52, 44
4, 473040, Note_on_c, 0, 52, 0
4, 473040, Control_c, 0, 64, 0
4, 473040, Note_on_c, 0, 55, 44
4, 473160, Note_on_c, 0, 55, 0
4, 473160, Note_on_c, 0, 52, 44
4, 473280, Note_on_c, 0, 52, 0
4, 473280, Control_c, 0, 64, 127
4, 473280, Note_on_c, 0, 55, 44
4, 473400, Note_on_c, 0, 55, 0
4, 473400, Note_on_c, 0, 52, 44
4, 473520, Note_on_c, 0, 52, 0
4, 473520, Note_on_c, 0, 55, 44
4, 473640, Note_on_c, 0, 55, 0
4, 473640, Note_on_c, 0, 52, 44
4, 473760, Note_on_c, 0, 52, 0
4, 473760, Note_on_c, 0, 55, 44
4, 473880, Note_on_c, 0, 55, 0
4, 473880, Note_on_c, 0, 52, 44
4, 474000, Note_on_c, 0, 52, 0
4, 474000, Note_on_c, 0, 55, 44
4, 474120, Note_on_c, 0, 55, 0
4, 474120, Note_on_c, 0, 52, 44
4, 474240, Note_on_c, 0, 52, 0
4, 474240, Note_on_c, 0, 55, 44
4, 474360, Note_on_c, 0, 55, 0
4, 474360, Note_on_c, 0, 52, 44
4, 474480, Note_on_c, 0, 52, 0
4, 474480, Note_on_c, 0, 55, 44
4, 474600, Note_on_c, 0, 55, 0
4, 474600, Note_on_c, 0, 52, 44
4, 474720, Note_on_c, 0, 52, 0
4, 474720, Note_on_c, 0, 55, 44
4, 474840, Note_on_c, 0, 55, 0
4, 474840, Note_on_c, 0, 52, 44
4, 474960, Note_on_c, 0, 52, 0
4, 474960, Control_c, 0, 64, 0
4, 474960, Note_on_c, 0, 55, 44
4, 475080, Note_on_c, 0, 55, 0
4, 475080, Note_on_c, 0, 52, 44
4, 475200, Note_on_c, 0, 52, 0
4, 475200, Control_c, 0, 64, 127
4, 475200, Note_on_c, 0, 52, 44
4, 475200, Note_on_c, 0, 55, 44
4, 475680, Note_on_c, 0, 55, 0
4, 475680, Note_on_c, 0, 52, 0
4, 476480, Note_on_c, 0, 55, 44
4, 476799, Note_on_c, 0, 55, 0
4, 476799, Note_on_c, 0, 60, 44
4, 477120, Note_on_c, 0, 60, 0
4, 477120, Note_on_c, 0, 64, 44
4, 477600, Note_on_c, 0, 64, 0
4, 478400, Note_on_c, 0, 72, 44
4, 478719, Note_on_c, 0, 72, 0
4, 478719, Control_c, 0, 64, 0
4, 478719, Note_on_c, 0, 76, 44
4, 479040, Note_on_c, 0, 76, 0
4, 479040, Control_c, 0, 64, 127
4, 479040, Note_on_c, 0, 79, 44
4, 479160, Note_on_c, 0, 79, 0
4, 479160, Note_on_c, 0, 81, 44
4, 479280, Note_on_c, 0, 81, 0
4, 479280, Note_on_c, 0, 79, 44
4, 479400, Note_on_c, 0, 79, 0
4, 479400, Note_on_c, 0, 81, 44
4, 479520, Note_on_c, 0, 81, 0
4, 479520, Note_on_c, 0, 79, 44
4, 479640, Note_on_c, 0, 79, 0
4, 479640, Note_on_c, 0, 81, 44
4, 479760, Note_on_c, 0, 81, 0
4, 479760, Note_on_c, 0, 79, 44
4, 479880, Note_on_c, 0, 79, 0
4, 479880, Note_on_c, 0, 81, 44
4, 480000, Note_on_c, 0, 81, 0
4, 480000, Note_on_c, 0, 79, 44
4, 480120, Note_on_c, 0, 79, 0
4, 480120, Note_on_c, 0, 81, 44
4, 480240, Note_on_c, 0, 81, 0
4, 480240, Note_on_c, 0, 79, 44
4, 480360, Note_on_c, 0, 79, 0
4, 480360, Note_on_c, 0, 81, 44
4, 480480, Note_on_c, 0, 81, 0
4, 480480, Note_on_c, 0, 79, 44
4, 480600, Note_on_c, 0, 79, 0
4, 480600, Note_on_c, 0, 81, 44
4, 480720, Note_on_c, 0, 81, 0
4, 480720, Note_on_c, 0, 79, 44
4, 480840, Note_on_c, 0, 79, 0
4, 480840, Note_on_c, 0, 81, 44
4, 480960, Note_on_c, 0, 81, 0
4, 480960, Note_on_c, 0, 79, 44
4, 481080, Note_on_c, 0, 79, 0
4, 481080, Note_on_c, 0, 81, 44
4, 481200, Note_on_c, 0, 81, 0
4, 481200, Note_on_c, 0, 79, 44
4, 481320, Note_on_c, 0, 79, 0
4, 481320, Note_on_c, 0, 81, 44
4, 481440, Note_on_c, 0, 81, 0
4, 481440, Note_on_c, 0, 79, 44
4, 481560, Note_on_c, 0, 79, 0
4, 481560, Note_on_c, 0, 81, 44
4, 481680, Note_on_c, 0, 81, 0
4, 481680, Note_on_c, 0, 79, 44
4, 481800, Note_on_c, 0, 79, 0
4, 481800, Note_on_c, 0, 81, 44
4, 481920, Note_on_c, 0, 81, 0
4, 481920, Note_on_c, 0, 79, 44
4, 482040, Note_on_c, 0, 79, 0
4, 482040, Note_on_c, 0, 81, 44
4, 482160, Note_on_c, 0, 81, 0
4, 482160, Note_on_c, 0, 79, 44
4, 482280, Note_on_c, 0, 79, 0
4, 482280, Note_on_c, 0, 81, 44
4, 482400, Note_on_c, 0, 81, 0
4, 482400, Note_on_c, 0, 79, 44
4, 482520, Note_on_c, 0, 79, 0
4, 482520, Note_on_c, 0, 81, 44
4, 482640, Note_on_c, 0, 81, 0
4, 482640, Note_on_c, 0, 78, 44
4, 482760, Note_on_c, 0, 78, 0
4, 482760, Note_on_c, 0, 79, 44
4, 482880, Note_on_c, 0, 79, 0
4, 482880, Control_c, 0, 64, 0
4, 482880, Note_on_c, 0, 86, 44
4, 483360, Note_on_c, 0, 86, 0
4, 486720, Control_c, 0, 64, 127
4, 486720, Note_on_c, 0, 84, 57
4, 486840, Note_on_c, 0, 84, 0
4, 486840, Note_on_c, 0, 86, 57
4, 486960, Note_on_c, 0, 86, 0
4, 486960, Note_on_c, 0, 84, 57
4, 487080, Note_on_c, 0, 84, 0
4, 487080, Note_on_c, 0, 86, 57
4, 487200, Note_on_c, 0, 86, 0
4, 487200, Note_on_c, 0, 84, 57
4, 487320, Note_on_c, 0, 84, 0
4, 487320, Note_on_c, 0, 86, 57
4, 487440, Note_on_c, 0, 86, 0
4, 487440, Note_on_c, 0, 84, 57
4, 487560, Note_on_c, 0, 84, 0
4, 487560, Note_on_c, 0, 86, 57
4, 487680, Note_on_c, 0, 86, 0
4, 487680, Note_on_c, 0, 84, 57
4, 487800, Note_on_c, 0, 84, 0
4, 487800, Note_on_c, 0, 86, 57
4, 487920, Note_on_c, 0, 86, 0
4, 487920, Note_on_c, 0, 84, 57
4, 488040, Note_on_c, 0, 84, 0
4, 488040, Note_on_c, 0, 86, 57
4, 488160, Note_on_c, 0, 86, 0
4, 488160, Note_on_c, 0, 84, 57
4, 488280, Note_on_c, 0, 84, 0
4, 488280, Note_on_c, 0, 86, 57
4, 488400, Note_on_c, 0, 86, 0
4, 488400, Note_on_c, 0, 84, 57
4, 488520, Note_on_c, 0, 84, 0
4, 488520, Note_on_c, 0, 86, 57
4, 488640, Note_on_c, 0, 86, 0
4, 488640, Note_on_c, 0, 84, 57
4, 488760, Note_on_c, 0, 84, 0
4, 488760, Note_on_c, 0, 86, 57
4, 488880, Note_on_c, 0, 86, 0
4, 488880, Note_on_c, 0, 84, 57
4, 489000, Note_on_c, 0, 84, 0
4, 489000, Note_on_c, 0, 86, 57
4, 489120, Note_on_c, 0, 86, 0
4, 489120, Note_on_c, 0, 84, 57
4, 489240, Note_on_c, 0, 84, 0
4, 489240, Note_on_c, 0, 86, 57
4, 489360, Note_on_c, 0, 86, 0
4, 489360, Note_on_c, 0, 84, 57
4, 489480, Note_on_c, 0, 84, 0
4, 489480, Note_on_c, 0, 86, 57
4, 489600, Note_on_c, 0, 86, 0
4, 489600, Note_on_c, 0, 84, 57
4, 489720, Note_on_c, 0, 84, 0
4, 489720, Note_on_c, 0, 86, 57
4, 489840, Note_on_c, 0, 86, 0
4, 489840, Note_on_c, 0, 84, 57
4, 489960, Note_on_c, 0, 84, 0
4, 489960, Note_on_c, 0, 86, 57
4, 490080, Note_on_c, 0, 86, 0
4, 490080, Note_on_c, 0, 84, 57
4, 490200, Note_on_c, 0, 84, 0
4, 490200, Note_on_c, 0, 86, 57
4, 490320, Note_on_c, 0, 86, 0
4, 490320, Note_on_c, 0, 83, 57
4, 490440, Note_on_c, 0, 83, 0
4, 490440, Note_on_c, 0, 84, 57
4, 490560, Note_on_c, 0, 84, 0
4, 490560, Control_c, 0, 64, 0
4, 490560, Note_on_c, 0, 91, 57
4, 491040, Note_on_c, 0, 91, 0
4, 494400, Control_c, 0, 64, 127
4, 494400, Note_on_c, 0, 77, 57
4, 494880, Note_on_c, 0, 77, 0
4, 494880, Note_on_c, 0, 84, 57
4, 495360, Note_on_c, 0, 84, 0
4, 495360, Note_on_c, 0, 81, 57
4, 495840, Note_on_c, 0, 81, 0
4, 495840, Note_on_c, 0, 79, 57
4, 496080, Note_on_c, 0, 79, 0
4, 496080, Control_c, 0, 64, 0
4, 496080, Note_on_c, 0, 81, 57
4, 496320, Note_on_c, 0, 81, 0
4, 496320, Control_c, 0, 64, 127
4, 496320, Note_on_c, 0, 65, 57
4, 496320, Note_on_c, 0, 77, 57
4, 496800, Note_on_c, 0, 77, 0
4, 496800, Note_on_c, 0, 65, 0
4, 496800, Note_on_c, 0, 72, 57
4, 497280, Note_on_c, 0, 72, 0
4, 497280, Note_on_c, 0, 69, 57
4, 497760, Note_on_c, 0, 69, 0
4, 497760, Note_on_c, 0, 67, 57
4, 498000, Note_on_c, 0, 67, 0
4, 498000, Control_c, 0, 64, 0
4, 498000, Note_on_c, 0, 69, 57
4, 498240, Note_on_c, 0, 69, 0
4, 498240, Note_on_c, 0, 53, 57
4, 498240, Note_on_c, 0, 65, 57
4, 498395, Control_c, 0, 64, 127
4, 498720, Note_on_c, 0, 65, 0
4, 498720, Note_on_c, 0, 53, 0
4, 498720, Note_on_c, 0, 60, 57
4, 499200, Note_on_c, 0, 60, 0
4, 499200, Note_on_c, 0, 57, 57
4, 499680, Note_on_c, 0, 57, 0
4, 499680, Note_on_c, 0, 55, 57
4, 499920, Note_on_c, 0, 55, 0
4, 499920, Note_on_c, 0, 57, 57
4, 500160, Note_on_c, 0, 57, 0
4, 500160, Note_on_c, 0, 48, 57
4, 500160, Note_on_c, 0, 51, 57
4, 500160, Note_on_c, 0, 53, 57
4, 502080, Control_c, 0, 64, 0
4, 502560, Note_on_c, 0, 53, 0
4, 502560, Note_on_c, 0, 51, 0
4, 502560, Note_on_c, 0, 48, 0
4, 564000, Note_on_c, 0, 61, 83
4, 564000, Note_on_c, 0, 67, 83
4, 564000, Note_on_c, 0, 73, 83
4, 564480, Note_on_c, 0, 73, 0
4, 564480, Note_on_c, 0, 67, 0
4, 564480, Note_on_c, 0, 61, 0
4, 564480, Note_on_c, 0, 62, 83
4, 564480, Note_on_c, 0, 68, 83
4, 564480, Note_on_c, 0, 74, 83
4, 564960, Note_on_c, 0, 74, 0
4, 564960, Note_on_c, 0, 68, 0
4, 564960, Note_on_c, 0, 62, 0
4, 564960, Note_on_c, 0, 63, 83
4, 564960, Note_on_c, 0, 70, 83
4, 564960, Note_on_c, 0, 75, 83
4, 565440, Note_on_c, 0, 75, 0
4, 565440, Note_on_c, 0, 70, 0
4, 565440, Note_on_c, 0, 63, 0
4, 565440, Note_on_c, 0, 65, 83
4, 565440, Note_on_c, 0, 72, 83
4, 565440, Note_on_c, 0, 77, 83
4, 565920, Note_on_c, 0, 77, 0
4, 565920, Note_on_c, 0, 72, 0
4, 565920, Note_on_c, 0, 65, 0
4, 565920, Note_on_c, 0, 67, 96
4, 565920, Note_on_c, 0, 74, 96
4, 565920, Note_on_c, 0, 79, 96
4, 566400, Note_on_c, 0, 79, 0
4, 566400, Note_on_c, 0, 74, 0
4, 566400, Note_on_c, 0, 67, 0
4, 566400, Note_on_c, 0, 68, 96
4, 566400, Note_on_c, 0, 75, 96
4, 566400, Note_on_c, 0, 80, 96
4, 566880, Note_on_c, 0, 80, 0
4, 566880, Note_on_c, 0, 75, 0
4, 566880, Note_on_c, 0, 68, 0
4, 566880, Note_on_c, 0, 70, 96
4, 566880, Note_on_c, 0, 77, 96
4, 566880, Note_on_c, 0, 82, 96
4, 567360, Note_on_c, 0, 82, 0
4, 567360, Note_on_c, 0, 77, 0
4, 567360, Note_on_c, 0, 70, 0
4, 567360, Note_on_c, 0, 70, 96
4, 567360, Note_on_c, 0, 75, 96
4, 567360, Note_on_c, 0, 79, 96
4, 567360, Note_on_c, 0, 82, 96
4, 568320, Note_on_c, 0, 82, 0
4, 568320, Note_on_c, 0, 70, 0
4, 568320, Note_on_c, 0, 75, 0
4, 568320, Note_on_c, 0, 79, 0
4, 568320, Note_on_c, 0, 72, 96
4, 568320, Note_on_c, 0, 75, 96
4, 568320, Note_on_c, 0, 79, 96
4, 568320, Note_on_c, 0, 84, 96
4, 569040, Note_on_c, 0, 84, 0
4, 569040, Note_on_c, 0, 72, 0
4, 569040, Note_on_c, 0, 75, 0
4, 569040, Note_on_c, 0, 79, 0
4, 569040, Note_on_c, 0, 75, 96
4, 569040, Note_on_c, 0, 80, 96
4, 569040, Note_on_c, 0, 84, 96
4, 569040, Note_on_c, 0, 87, 96
4, 569280, Note_on_c, 0, 87, 0
4, 569280, Note_on_c, 0, 75, 0
4, 569280, Note_on_c, 0, 80, 0
4, 569280, Note_on_c, 0, 84, 0
4, 569280, Note_on_c, 0, 70, 96
4, 569280, Note_on_c, 0, 75, 96
4, 569280, Note_on_c, 0, 79, 96
4, 569280, Note_on_c, 0, 82, 96
4, 569760, Note_on_c, 0, 82, 0
4, 569760, Note_on_c, 0, 70, 0
4, 569760, Note_on_c, 0, 75, 0
4, 569760, Note_on_c, 0, 79, 0
4, 570720, Note_on_c, 0, 75, 96
4, 570720, Note_on_c, 0, 82, 96
4, 570720, Note_on_c, 0, 87, 96
4, 571200, Note_on_c, 0, 87, 0
4, 571200, Note_on_c, 0, 82, 0
4, 571200, Note_on_c, 0, 75, 0
4, 571200, Note_on_c, 0, 74, 96
4, 571200, Note_on_c, 0, 80, 96
4, 571200, Note_on_c, 0, 82, 96
4, 571200, Note_on_c, 0, 86, 96
4, 571440, Note_on_c, 0, 86, 0
4, 571440, Note_on_c, 0, 74, 0
4, 571440, Note_on_c, 0, 80, 0
4, 571440, Note_on_c, 0, 82, 0
4, 571440, Note_on_c, 0, 73, 96
4, 571440, Note_on_c, 0, 79, 96
4, 571440, Note_on_c, 0, 82, 96
4, 571440, Note_on_c, 0, 85, 96
4, 571680, Note_on_c, 0, 85, 0
4, 571680, Note_on_c, 0, 73, 0
4, 571680, Note_on_c, 0, 79, 0
4, 571680, Note_on_c, 0, 82, 0
4, 571680, Note_on_c, 0, 74, 96
4, 571680, Note_on_c, 0, 80, 96
4, 571680, Note_on_c, 0, 82, 96
4, 571680, Note_on_c, 0, 86, 96
4, 572640, Note_on_c, 0, 86, 0
4, 572640, Note_on_c, 0, 74, 0
4, 572640, Note_on_c, 0, 80, 0
4, 572640, Note_on_c, 0, 82, 0
4, 572640, Note_on_c, 0, 75, 96
4, 572640, Note_on_c, 0, 79, 96
4, 572640, Note_on_c, 0, 82, 96
4, 572640, Note_on_c, 0, 87, 96
4, 573120, Note_on_c, 0, 87, 0
4, 573120, Note_on_c, 0, 75, 0
4, 573120, Note_on_c, 0, 79, 0
4, 573120, Note_on_c, 0, 82, 0
4, 573120, Note_on_c, 0, 79, 96
4, 573120, Note_on_c, 0, 82, 96
4, 573120, Note_on_c, 0, 87, 96
4, 573120, Note_on_c, 0, 91, 96
4, 573600, Note_on_c, 0, 91, 0
4, 573600, Note_on_c, 0, 79, 0
4, 573600, Note_on_c, 0, 82, 0
4, 573600, Note_on_c, 0, 87, 0
4, 573600, Note_on_c, 0, 77, 96
4, 573600, Note_on_c, 0, 82, 96
4, 573600, Note_on_c, 0, 86, 96
4, 573600, Note_on_c, 0, 89, 96
4, 574080, Note_on_c, 0, 89, 0
4, 574080, Note_on_c, 0, 77, 0
4, 574080, Note_on_c, 0, 82, 0
4, 574080, Note_on_c, 0, 86, 0
4, 575040, Note_on_c, 0, 70, 96
4, 575040, Note_on_c, 0, 75, 96
4, 575040, Note_on_c, 0, 79, 96
4, 575040, Note_on_c, 0, 82, 96
4, 576000, Note_on_c, 0, 82, 0
4, 576000, Note_on_c, 0, 70, 0
4, 576000, Note_on_c, 0, 75, 0
4, 576000, Note_on_c, 0, 79, 0
4, 576000, Note_on_c, 0, 72, 96
4, 576000, Note_on_c, 0, 75, 96
4, 576000, Note_on_c, 0, 79, 96
4, 576000, Note_on_c, 0, 84, 96
4, 576720, Note_on_c, 0, 84, 0
4, 576720, Note_on_c, 0, 72, 0
4, 576720, Note_on_c, 0, 75, 0
4, 576720, Note_on_c, 0, 79, 0
4, 576720, Note_on_c, 0, 75, 96
4, 576720, Note_on_c, 0, 80, 96
4, 576720, Note_on_c, 0, 84, 96
4, 576720, Note_on_c, 0, 87, 96
4, 576960, Note_on_c, 0, 87, 0
4, 576960, Note_on_c, 0, 75, 0
4, 576960, Note_on_c, 0, 80, 0
4, 576960, Note_on_c, 0, 84, 0
4, 576960, Note_on_c, 0, 70, 96
4, 576960, Note_on_c, 0, 75, 96
4, 576960, Note_on_c, 0, 79, 96
4, 576960, Note_on_c, 0, 82, 96
4, 577440, Note_on_c, 0, 82, 0
4, 577440, Note_on_c, 0, 70, 0
4, 577440, Note_on_c, 0, 75, 0
4, 577440, Note_on_c, 0, 79, 0
4, 578400, Note_on_c, 0, 75, 96
4, 578400, Note_on_c, 0, 82, 96
4, 578400, Note_on_c, 0, 87, 96
4, 578880, Note_on_c, 0, 87, 0
4, 578880, Note_on_c, 0, 82, 0
4, 578880, Note_on_c, 0, 75, 0
4, 578880, Note_on_c, 0, 74, 96
4, 578880, Note_on_c, 0, 77, 96
4, 578880, Note_on_c, 0, 82, 96
4, 578880, Note_on_c, 0, 86, 96
4, 579120, Note_on_c, 0, 86, 0
4, 579120, Note_on_c, 0, 74, 0
4, 579120, Note_on_c, 0, 77, 0
4, 579120, Note_on_c, 0, 82, 0
4, 579120, Note_on_c, 0, 73, 96
4, 579120, Note_on_c, 0, 77, 96
4, 579120, Note_on_c, 0, 82, 96
4, 579120, Note_on_c, 0, 85, 96
4, 579360, Note_on_c, 0, 85, 0
4, 579360, Note_on_c, 0, 73, 0
4, 579360, Note_on_c, 0, 77, 0
4, 579360, Note_on_c, 0, 82, 0
4, 579360, Note_on_c, 0, 74, 96
4, 579360, Note_on_c, 0, 77, 96
4, 579360, Note_on_c, 0, 82, 96
4, 579360, Note_on_c, 0, 86, 96
4, 580320, Note_on_c, 0, 86, 0
4, 580320, Note_on_c, 0, 74, 0
4, 580320, Note_on_c, 0, 77, 0
4, 580320, Note_on_c, 0, 82, 0
4, 580320, Note_on_c, 0, 75, 96
4, 580320, Note_on_c, 0, 81, 96
4, 580320, Note_on_c, 0, 84, 96
4, 580320, Note_on_c, 0, 89, 96
4, 580800, Note_on_c, 0, 89, 0
4, 580800, Note_on_c, 0, 75, 0
4, 580800, Note_on_c, 0, 81, 0
4, 580800, Note_on_c, 0, 84, 0
4, 580800, Note_on_c, 0, 70, 96
4, 580800, Note_on_c, 0, 74, 96
4, 580800, Note_on_c, 0, 77, 96
4, 580800, Note_on_c, 0, 82, 96
4, 581280, Note_on_c, 0, 82, 0
4, 581280, Note_on_c, 0, 70, 0
4, 581280, Note_on_c, 0, 74, 0
4, 581280, Note_on_c, 0, 77, 0
4, 582720, Note_on_c, 0, 70, 96
4, 582720, Note_on_c, 0, 75, 96
4, 582720, Note_on_c, 0, 79, 96
4, 582720, Note_on_c, 0, 82, 96
4, 583680, Note_on_c, 0, 82, 0
4, 583680, Note_on_c, 0, 70, 0
4, 583680, Note_on_c, 0, 75, 0
4, 583680, Note_on_c, 0, 79, 0
4, 583680, Note_on_c, 0, 72, 96
4, 583680, Note_on_c, 0, 75, 96
4, 583680, Note_on_c, 0, 79, 96
4, 583680, Note_on_c, 0, 84, 96
4, 584400, Note_on_c, 0, 84, 0
4, 584400, Note_on_c, 0, 72, 0
4, 584400, Note_on_c, 0, 75, 0
4, 584400, Note_on_c, 0, 79, 0
4, 584400, Note_on_c, 0, 75, 96
4, 584400, Note_on_c, 0, 80, 96
4, 584400, Note_on_c, 0, 84, 96
4, 584400, Note_on_c, 0, 87, 96
4, 584640, Note_on_c, 0, 87, 0
4, 584640, Note_on_c, 0, 75, 0
4, 584640, Note_on_c, 0, 80, 0
4, 584640, Note_on_c, 0, 84, 0
4, 584640, Note_on_c, 0, 70, 96
4, 584640, Note_on_c, 0, 75, 96
4, 584640, Note_on_c, 0, 79, 96
4, 584640, Note_on_c, 0, 82, 96
4, 585120, Note_on_c, 0, 82, 0
4, 585120, Note_on_c, 0, 70, 0
4, 585120, Note_on_c, 0, 75, 0
4, 585120, Note_on_c, 0, 79, 0
4, 586080, Note_on_c, 0, 75, 96
4, 586080, Note_on_c, 0, 82, 96
4, 586080, Note_on_c, 0, 87, 96
4, 586560, Note_on_c, 0, 87, 0
4, 586560, Note_on_c, 0, 82, 0
4, 586560, Note_on_c, 0, 75, 0
4, 586560, Note_on_c, 0, 74, 96
4, 586560, Note_on_c, 0, 80, 96
4, 586560, Note_on_c, 0, 82, 96
4, 586560, Note_on_c, 0, 86, 96
4, 586800, Note_on_c, 0, 86, 0
4, 586800, Note_on_c, 0, 74, 0
4, 586800, Note_on_c, 0, 80, 0
4, 586800, Note_on_c, 0, 82, 0
4, 586800, Note_on_c, 0, 73, 96
4, 586800, Note_on_c, 0, 79, 96
4, 586800, Note_on_c, 0, 82, 96
4, 586800, Note_on_c, 0, 85, 96
4, 587040, Note_on_c, 0, 85, 0
4, 587040, Note_on_c, 0, 73, 0
4, 587040, Note_on_c, 0, 79, 0
4, 587040, Note_on_c, 0, 82, 0
4, 587040, Note_on_c, 0, 74, 96
4, 587040, Note_on_c, 0, 80, 96
4, 587040, Note_on_c, 0, 82, 96
4, 587040, Note_on_c, 0, 86, 96
4, 588000, Note_on_c, 0, 86, 0
4, 588000, Note_on_c, 0, 74, 0
4, 588000, Note_on_c, 0, 80, 0
4, 588000, Note_on_c, 0, 82, 0
4, 588000, Note_on_c, 0, 75, 96
4, 588000, Note_on_c, 0, 79, 96
4, 588000, Note_on_c, 0, 82, 96
4, 588000, Note_on_c, 0, 87, 96
4, 588480, Note_on_c, 0, 87, 0
4, 588480, Note_on_c, 0, 75, 0
4, 588480, Note_on_c, 0, 79, 0
4, 588480, Note_on_c, 0, 82, 0
4, 588480, Note_on_c, 0, 79, 96
4, 588480, Note_on_c, 0, 82, 96
4, 588480, Note_on_c, 0, 87, 96
4, 588480, Note_on_c, 0, 91, 96
4, 588960, Note_on_c, 0, 91, 0
4, 588960, Note_on_c, 0, 79, 0
4, 588960, Note_on_c, 0, 82, 0
4, 588960, Note_on_c, 0, 87, 0
4, 588960, Note_on_c, 0, 77, 96
4, 588960, Note_on_c, 0, 82, 96
4, 588960, Note_on_c, 0, 86, 96
4, 588960, Note_on_c, 0, 89, 96
4, 589440, Note_on_c, 0, 89, 0
4, 589440, Note_on_c, 0, 77, 0
4, 589440, Note_on_c, 0, 82, 0
4, 589440, Note_on_c, 0, 86, 0
4, 590400, Note_on_c, 0, 70, 96
4, 590400, Note_on_c, 0, 79, 96
4, 590400, Note_on_c, 0, 82, 96
4, 591360, Note_on_c, 0, 82, 0
4, 591360, Note_on_c, 0, 79, 0
4, 591360, Note_on_c, 0, 70, 0
4, 591360, Note_on_c, 0, 73, 96
4, 591360, Note_on_c, 0, 79, 96
4, 591360, Note_on_c, 0, 82, 96
4, 591360, Note_on_c, 0, 85, 96
4, 592080, Note_on_c, 0, 85, 0
4, 592080, Note_on_c, 0, 73, 0
4, 592080, Note_on_c, 0, 79, 0
4, 592080, Note_on_c, 0, 82, 0
4, 592080, Note_on_c, 0, 72, 96
4, 592080, Note_on_c, 0, 80, 96
4, 592080, Note_on_c, 0, 84, 96
4, 592320, Note_on_c, 0, 84, 0
4, 592320, Note_on_c, 0, 80, 0
4, 592320, Note_on_c, 0, 72, 0
4, 592320, Note_on_c, 0, 72, 96
4, 592320, Note_on_c, 0, 80, 96
4, 592320, Note_on_c, 0, 84, 96
4, 592800, Note_on_c, 0, 84, 0
4, 592800, Note_on_c, 0, 80, 0
4, 592800, Note_on_c, 0, 72, 0
4, 592800, Note_on_c, 0, 77, 96
4, 592800, Note_on_c, 0, 80, 96
4, 592800, Note_on_c, 0, 84, 96
4, 592800, Note_on_c, 0, 89, 96
4, 593280, Note_on_c, 0, 89, 0
4, 593280, Note_on_c, 0, 77, 0
4, 593280, Note_on_c, 0, 80, 0
4, 593280, Note_on_c, 0, 84, 0
4, 593760, Note_on_c, 0, 65, 96
4, 593760, Note_on_c, 0, 72, 96
4, 593760, Note_on_c, 0, 77, 96
4, 594240, Note_on_c, 0, 77, 0
4, 594240, Note_on_c, 0, 72, 0
4, 594240, Note_on_c, 0, 65, 0
4, 594240, Note_on_c, 0, 67, 96
4, 594240, Note_on_c, 0, 70, 96
4, 594240, Note_on_c, 0, 75, 96
4, 594240, Note_on_c, 0, 79, 96
4, 594480, Note_on_c, 0, 79, 0
4, 594480, Note_on_c, 0, 67, 0
4, 594480, Note_on_c, 0, 70, 0
4, 594480, Note_on_c, 0, 75, 0
4, 594480, Note_on_c, 0, 66, 96
4, 594480, Note_on_c, 0, 70, 96
4, 594480, Note_on_c, 0, 75, 96
4, 594480, Note_on_c, 0, 78, 96
4, 594720, Note_on_c, 0, 78, 0
4, 594720, Note_on_c, 0, 66, 0
4, 594720, Note_on_c, 0, 70, 0
4, 594720, Note_on_c, 0, 75, 0
4, 594720, Note_on_c, 0, 67, 96
4, 594720, Note_on_c, 0, 70, 96
4, 594720, Note_on_c, 0, 75, 96
4, 594720, Note_on_c, 0, 79, 96
4, 595680, Note_on_c, 0, 79, 0
4, 595680, Note_on_c, 0, 67, 0
4, 595680, Note_on_c, 0, 70, 0
4, 595680, Note_on_c, 0, 75, 0
4, 595680, Note_on_c, 0, 68, 96
4, 595680, Note_on_c, 0, 74, 96
4, 595680, Note_on_c, 0, 77, 96
4, 595680, Note_on_c, 0, 82, 96
4, 596160, Note_on_c, 0, 82, 0
4, 596160, Note_on_c, 0, 68, 0
4, 596160, Note_on_c, 0, 74, 0
4, 596160, Note_on_c, 0, 77, 0
4, 596160, Note_on_c, 0, 63, 96
4, 596160, Note_on_c, 0, 67, 96
4, 596160, Note_on_c, 0, 70, 96
4, 596160, Note_on_c, 0, 75, 96
4, 596640, Note_on_c, 0, 75, 0
4, 596640, Note_on_c, 0, 63, 0
4, 596640, Note_on_c, 0, 67, 0
4, 596640, Note_on_c, 0, 70, 0
4, 598080, Note_on_c, 0, 56, 57
4, 598080, Note_on_c, 0, 63, 57
4, 599040, Note_on_c, 0, 63, 0
4, 599040, Note_on_c, 0, 56, 0
4, 599040, Note_on_c, 0, 56, 57
4, 599040, Note_on_c, 0, 63, 57
4, 599040, Note_on_c, 0, 66, 57
4, 600000, Note_on_c, 0, 66, 0
4, 600000, Note_on_c, 0, 63, 0
4, 600000, Note_on_c, 0, 56, 0
4, 600159, Control_c, 0, 64, 127
4, 600159, Note_on_c, 0, 68, 57
4, 600320, Note_on_c, 0, 68, 0
4, 600320, Note_on_c, 0, 67, 57
4, 600480, Note_on_c, 0, 67, 0
4, 600480, Note_on_c, 0, 68, 57
4, 600639, Note_on_c, 0, 68, 0
4, 600639, Note_on_c, 0, 70, 57
4, 600800, Note_on_c, 0, 70, 0
4, 600800, Control_c, 0, 64, 0
4, 600800, Note_on_c, 0, 72, 57
4, 600960, Note_on_c, 0, 72, 0
4, 600960, Note_on_c, 0, 73, 57
4, 601119, Note_on_c, 0, 73, 0
4, 601119, Control_c, 0, 64, 127
4, 601119, Note_on_c, 0, 65, 57
4, 601119, Note_on_c, 0, 77, 57
4, 601280, Note_on_c, 0, 77, 0
4, 601280, Note_on_c, 0, 65, 0
4, 601280, Note_on_c, 0, 64, 57
4, 601280, Note_on_c, 0, 76, 57
4, 601440, Note_on_c, 0, 76, 0
4, 601440, Note_on_c, 0, 64, 0
4, 601440, Note_on_c, 0, 65, 57
4, 601440, Note_on_c, 0, 77, 57
4, 601599, Note_on_c, 0, 77, 0
4, 601599, Note_on_c, 0, 65, 0
4, 601599, Note_on_c, 0, 68, 57
4, 601599, Note_on_c, 0, 80, 57
4, 601760, Note_on_c, 0, 80, 0
4, 601760, Note_on_c, 0, 68, 0
4, 601760, Control_c, 0, 64, 0
4, 601760, Note_on_c, 0, 70, 57
4, 601760, Note_on_c, 0, 82, 57
4, 601920, Note_on_c, 0, 82, 0
4, 601920, Note_on_c, 0, 70, 0
4, 601920, Note_on_c, 0, 71, 70
4, 601920, Note_on_c, 0, 78, 70
4, 601920, Note_on_c, 0, 83, 70
4, 602880, Note_on_c, 0, 83, 0
4, 602880, Note_on_c, 0, 78, 0
4, 602880, Note_on_c, 0, 71, 0
4, 602880, Note_on_c, 0, 59, 70
4, 602880, Note_on_c, 0, 66, 70
4, 602880, Note_on_c, 0, 69, 70
4, 603840, Note_on_c, 0, 69, 0
4, 603840, Note_on_c, 0, 66, 0
4, 603840, Note_on_c, 0, 59, 0
4, 603999, Control_c, 0, 64, 127
4, 603999, Note_on_c, 0, 71, 70
4, 604160, Note_on_c, 0, 71, 0
4, 604160, Note_on_c, 0, 70, 70
4, 604320, Note_on_c, 0, 70, 0
4, 604320, Note_on_c, 0, 71, 70
4, 604479, Note_on_c, 0, 71, 0
4, 604479, Note_on_c, 0, 73, 70
4, 604640, Note_on_c, 0, 73, 0
4, 604640, Control_c, 0, 64, 0
4, 604640, Note_on_c, 0, 75, 70
4, 604800, Note_on_c, 0, 75, 0
4, 604800, Control_c, 0, 64, 127
4, 604800, Note_on_c, 0, 76, 70
4, 604959, Note_on_c, 0, 76, 0
4, 604959, Note_on_c, 0, 68, 70
4, 604959, Note_on_c, 0, 80, 70
4, 605120, Note_on_c, 0, 80, 0
4, 605120, Note_on_c, 0, 68, 0
4, 605120, Note_on_c, 0, 67, 70
4, 605120, Note_on_c, 0, 79, 70
4, 605280, Note_on_c, 0, 79, 0
4, 605280, Note_on_c, 0, 67, 0
4, 605280, Note_on_c, 0, 68, 70
4, 605280, Note_on_c, 0, 80, 70
4, 605439, Note_on_c, 0, 80, 0
4, 605439, Note_on_c, 0, 68, 0
4, 605439, Note_on_c, 0, 70, 70
4, 605439, Note_on_c, 0, 82, 70
4, 605600, Note_on_c, 0, 82, 0
4, 605600, Note_on_c, 0, 70, 0
4, 605600, Control_c, 0, 64, 0
4, 605600, Note_on_c, 0, 71, 70
4, 605600, Note_on_c, 0, 83, 70
4, 605760, Note_on_c, 0, 83, 0
4, 605760, Note_on_c, 0, 71, 0
4, 605760, Control_c, 0, 64, 127
4, 605760, Note_on_c, 0, 61, 70
4, 605760, Note_on_c, 0, 73, 70
4, 605919, Note_on_c, 0, 73, 0
4, 605919, Note_on_c, 0, 61, 0
4, 605919, Note_on_c, 0, 68, 70
4, 606080, Note_on_c, 0, 68, 0
4, 606080, Note_on_c, 0, 67, 70
4, 606240, Note_on_c, 0, 67, 0
4, 606240, Note_on_c, 0, 68, 70
4, 606399, Note_on_c, 0, 68, 0
4, 606399, Note_on_c, 0, 72, 70
4, 606560, Note_on_c, 0, 72, 0
4, 606560, Control_c, 0, 64, 0
4, 606560, Note_on_c, 0, 71, 70
4, 606720, Note_on_c, 0, 71, 0
4, 606720, Note_on_c, 0, 61, 70
4, 606720, Note_on_c, 0, 68, 70
4, 606720, Note_on_c, 0, 70, 70
4, 606879, Note_on_c, 0, 70, 0
4, 606879, Note_on_c, 0, 68, 0
4, 606879, Note_on_c, 0, 61, 0
4, 606879, Control_c, 0, 64, 127
4, 606879, Note_on_c, 0, 73, 70
4, 607040, Note_on_c, 0, 73, 0
4, 607040, Note_on_c, 0, 78, 70
4, 607200, Note_on_c, 0, 78, 0
4, 607200, Note_on_c, 0, 82, 70
4, 607359, Note_on_c, 0, 82, 0
4, 607359, Note_on_c, 0, 71, 70
4, 607359, Note_on_c, 0, 83, 70
4, 607520, Note_on_c, 0, 83, 0
4, 607520, Note_on_c, 0, 71, 0
4, 607520, Control_c, 0, 64, 0
4, 607520, Note_on_c, 0, 73, 70
4, 607520, Note_on_c, 0, 85, 70
4, 607680, Note_on_c, 0, 85, 0
4, 607680, Note_on_c, 0, 73, 0
4, 607680, Control_c, 0, 64, 127
4, 607680, Note_on_c, 0, 63, 70
4, 607680, Note_on_c, 0, 75, 70
4, 607839, Note_on_c, 0, 75, 0
4, 607839, Note_on_c, 0, 63, 0
4, 607839, Note_on_c, 0, 70, 70
4, 608000, Note_on_c, 0, 70, 0
4, 608000, Note_on_c, 0, 69, 70
4, 608160, Note_on_c, 0, 69, 0
4, 608160, Note_on_c, 0, 70, 70
4, 608319, Note_on_c, 0, 70, 0
4, 608319, Note_on_c, 0, 74, 70
4, 608480, Note_on_c, 0, 74, 0
4, 608480, Control_c, 0, 64, 0
4, 608480, Note_on_c, 0, 73, 70
4, 608640, Note_on_c, 0, 73, 0
4, 608640, Note_on_c, 0, 63, 70
4, 608640, Note_on_c, 0, 70, 70
4, 608640, Note_on_c, 0, 71, 70
4, 608799, Note_on_c, 0, 71, 0
4, 608799, Note_on_c, 0, 70, 0
4, 608799, Note_on_c, 0, 63, 0
4, 608799, Control_c, 0, 64, 127
4, 608799, Note_on_c, 0, 75, 70
4, 608960, Note_on_c, 0, 75, 0
4, 608960, Note_on_c, 0, 80, 70
4, 609120, Note_on_c, 0, 80, 0
4, 609120, Note_on_c, 0, 83, 83
4, 609279, Note_on_c, 0, 83, 0
4, 609279, Note_on_c, 0, 73, 83
4, 609279, Note_on_c, 0, 85, 83
4, 609440, Note_on_c, 0, 85, 0
4, 609440, Note_on_c, 0, 73, 0
4, 609440, Control_c, 0, 64, 0
4, 609440, Note_on_c, 0, 75, 83
4, 609440, Note_on_c, 0, 87, 83
4, 609600, Note_on_c, 0, 87, 0
4, 609600, Note_on_c, 0, 75, 0
4, 609600, Note_on_c, 0, 76, 109
4, 609600, Note_on_c, 0, 83, 109
4, 609600, Note_on_c, 0, 88, 109
4, 609759, Note_on_c, 0, 88, 0
4, 609759, Note_on_c, 0, 83, 0
4, 609759, Note_on_c, 0, 76, 0
4, 609759, Note_on_c, 0, 75, 83
4, 609759, Note_on_c, 0, 87, 83
4, 609791, Note_on_c, 0, 87, 0
4, 609791, Note_on_c, 0, 75, 0
4, 609920, Note_on_c, 0, 74, 83
4, 609920, Note_on_c, 0, 86, 83
4, 609952, Note_on_c, 0, 86, 0
4, 609952, Note_on_c, 0, 74, 0
4, 610080, Note_on_c, 0, 72, 109
4, 610080, Note_on_c, 0, 76, 109
4, 610080, Note_on_c, 0, 81, 109
4, 610080, Note_on_c, 0, 84, 109
4, 610239, Note_on_c, 0, 84, 0
4, 610239, Note_on_c, 0, 72, 0
4, 610239, Note_on_c, 0, 76, 0
4, 610239, Note_on_c, 0, 81, 0
4, 610239, Note_on_c, 0, 79, 83
4, 610271, Note_on_c, 0, 79, 0
4, 610400, Note_on_c, 0, 78, 83
4, 610432, Note_on_c, 0, 78, 0
4, 610560, Note_on_c, 0, 68, 109
4, 610560, Note_on_c, 0, 76, 109
4, 610560, Note_on_c, 0, 80, 109
4, 610719, Note_on_c, 0, 80, 0
4, 610719, Note_on_c, 0, 76, 0
4, 610719, Note_on_c, 0, 68, 0
4, 610719, Note_on_c, 0, 75, 83
4, 610751, Note_on_c, 0, 75, 0
4, 610880, Note_on_c, 0, 74, 83
4, 610912, Note_on_c, 0, 74, 0
4, 611040, Note_on_c, 0, 69, 109
4, 611040, Note_on_c, 0, 72, 109
4, 611040, Note_on_c, 0, 76, 109
4, 611040, Note_on_c, 0, 81, 109
4, 611199, Note_on_c, 0, 81, 0
4, 611199, Note_on_c, 0, 69, 0
4, 611199, Note_on_c, 0, 72, 0
4, 611199, Note_on_c, 0, 76, 0
4, 611199, Note_on_c, 0, 71, 83
4, 611231, Note_on_c, 0, 71, 0
4, 611360, Note_on_c, 0, 69, 83
4, 611392, Note_on_c, 0, 69, 0
4, 611520, Note_on_c, 0, 70, 83
4, 611520, Note_on_c, 0, 77, 83
4, 611520, Note_on_c, 0, 82, 83
4, 611551, Note_on_c, 0, 82, 0
4, 611551, Note_on_c, 0, 77, 0
4, 611551, Note_on_c, 0, 70, 0
4, 611679, Note_on_c, 0, 76, 83
4, 611711, Note_on_c, 0, 76, 0
4, 611840, Note_on_c, 0, 75, 83
4, 611872, Note_on_c, 0, 75, 0
4, 612000, Note_on_c, 0, 74, 83
4, 612031, Note_on_c, 0, 74, 0
4, 612159, Note_on_c, 0, 73, 83
4, 612191, Note_on_c, 0, 73, 0
4, 612320, Note_on_c, 0, 72, 83
4, 612352, Note_on_c, 0, 72, 0
4, 612480, Note_on_c, 0, 70, 83
4, 612511, Note_on_c, 0, 70, 0
4, 612639, Note_on_c, 0, 69, 83
4, 612671, Note_on_c, 0, 69, 0
4, 612800, Note_on_c, 0, 68, 83
4, 612832, Note_on_c, 0, 68, 0
4, 612960, Note_on_c, 0, 67, 83
4, 612991, Note_on_c, 0, 67, 0
4, 613119, Note_on_c, 0, 66, 83
4, 613151, Note_on_c, 0, 66, 0
4, 613280, Note_on_c, 0, 65, 83
4, 613312, Note_on_c, 0, 65, 0
4, 613440, Note_on_c, 0, 62, 70
4, 613440, Note_on_c, 0, 64, 70
4, 613440, Note_on_c, 0, 67, 70
4, 614400, Note_on_c, 0, 67, 0
4, 614400, Note_on_c, 0, 64, 0
4, 614400, Note_on_c, 0, 62, 0
4, 614400, Control_c, 0, 64, 127
4, 614400, Note_on_c, 0, 61, 70
4, 614400, Note_on_c, 0, 64, 70
4, 614400, Note_on_c, 0, 67, 70
4, 614559, Note_on_c, 0, 67, 0
4, 614559, Note_on_c, 0, 64, 0
4, 614559, Note_on_c, 0, 61, 0
4, 614559, Note_on_c, 0, 61, 70
4, 614720, Note_on_c, 0, 61, 0
4, 614720, Note_on_c, 0, 64, 70
4, 614880, Note_on_c, 0, 64, 0
4, 614880, Note_on_c, 0, 67, 70
4, 615039, Note_on_c, 0, 67, 0
4, 615039, Note_on_c, 0, 73, 70
4, 615200, Note_on_c, 0, 73, 0
4, 615200, Control_c, 0, 64, 0
4, 615200, Note_on_c, 0, 76, 70
4, 615360, Note_on_c, 0, 76, 0
4, 615360, Note_on_c, 0, 61, 70
4, 615360, Note_on_c, 0, 64, 70
4, 615360, Note_on_c, 0, 68, 70
4, 616320, Note_on_c, 0, 68, 0
4, 616320, Note_on_c, 0, 64, 0
4, 616320, Note_on_c, 0, 61, 0
4, 616320, Control_c, 0, 64, 127
4, 616320, Note_on_c, 0, 61, 70
4, 616320, Note_on_c, 0, 64, 70
4, 616320, Note_on_c, 0, 69, 70
4, 616479, Note_on_c, 0, 69, 0
4, 616479, Note_on_c, 0, 64, 0
4, 616479, Note_on_c, 0, 61, 0
4, 616479, Note_on_c, 0, 61, 70
4, 616640, Note_on_c, 0, 61, 0
4, 616640, Note_on_c, 0, 64, 70
4, 616800, Note_on_c, 0, 64, 0
4, 616800, Note_on_c, 0, 69, 70
4, 616959, Note_on_c, 0, 69, 0
4, 616959, Note_on_c, 0, 73, 70
4, 617120, Note_on_c, 0, 73, 0
4, 617120, Control_c, 0, 64, 0
4, 617120, Note_on_c, 0, 76, 70
4, 617280, Note_on_c, 0, 76, 0
4, 617280, Note_on_c, 0, 61, 70
4, 617280, Note_on_c, 0, 64, 70
4, 617280, Note_on_c, 0, 70, 70
4, 617760, Note_on_c, 0, 70, 0
4, 617760, Note_on_c, 0, 64, 0
4, 617760, Note_on_c, 0, 61, 0
4, 617760, Note_on_c, 0, 59, 70
4, 617760, Note_on_c, 0, 62, 70
4, 617760, Note_on_c, 0, 71, 70
4, 618240, Note_on_c, 0, 71, 0
4, 618240, Note_on_c, 0, 62, 0
4, 618240, Note_on_c, 0, 59, 0
4, 618240, Note_on_c, 0, 62, 83
4, 618240, Note_on_c, 0, 68, 83
4, 618240, Note_on_c, 0, 71, 83
4, 618240, Note_on_c, 0, 74, 83
4, 618720, Note_on_c, 0, 74, 0
4, 618720, Note_on_c, 0, 62, 0
4, 618720, Note_on_c, 0, 68, 0
4, 618720, Note_on_c, 0, 71, 0
4, 618720, Note_on_c, 0, 68, 83
4, 618720, Note_on_c, 0, 71, 83
4, 618720, Note_on_c, 0, 74, 83
4, 618720, Note_on_c, 0, 80, 83
4, 619200, Note_on_c, 0, 80, 0
4, 619200, Note_on_c, 0, 68, 0
4, 619200, Note_on_c, 0, 71, 0
4, 619200, Note_on_c, 0, 74, 0
4, 619200, Note_on_c, 0, 71, 83
4, 619200, Note_on_c, 0, 74, 83
4, 619200, Note_on_c, 0, 80, 83
4, 619200, Note_on_c, 0, 83, 83
4, 619680, Note_on_c, 0, 83, 0
4, 619680, Note_on_c, 0, 71, 0
4, 619680, Note_on_c, 0, 74, 0
4, 619680, Note_on_c, 0, 80, 0
4, 619680, Note_on_c, 0, 74, 96
4, 619680, Note_on_c, 0, 80, 96
4, 619680, Note_on_c, 0, 83, 96
4, 619680, Note_on_c, 0, 86, 96
4, 620160, Note_on_c, 0, 86, 0
4, 620160, Note_on_c, 0, 74, 0
4, 620160, Note_on_c, 0, 80, 0
4, 620160, Note_on_c, 0, 83, 0
4, 620160, Note_on_c, 0, 75, 96
4, 620160, Note_on_c, 0, 80, 96
4, 620160, Note_on_c, 0, 83, 96
4, 620160, Note_on_c, 0, 87, 96
4, 620319, Note_on_c, 0, 87, 0
4, 620319, Note_on_c, 0, 75, 0
4, 620319, Note_on_c, 0, 80, 0
4, 620319, Note_on_c, 0, 83, 0
4, 620319, Note_on_c, 0, 68, 96
4, 620319, Note_on_c, 0, 80, 96
4, 620480, Note_on_c, 0, 80, 0
4, 620480, Note_on_c, 0, 68, 0
4, 620480, Note_on_c, 0, 70, 96
4, 620480, Note_on_c, 0, 82, 96
4, 620640, Note_on_c, 0, 82, 0
4, 620640, Note_on_c, 0, 70, 0
4, 620640, Note_on_c, 0, 71, 96
4, 620640, Note_on_c, 0, 83, 96
4, 620799, Note_on_c, 0, 83, 0
4, 620799, Note_on_c, 0, 71, 0
4, 620799, Note_on_c, 0, 73, 96
4, 620799, Note_on_c, 0, 85, 96
4, 620960, Note_on_c, 0, 85, 0
4, 620960, Note_on_c, 0, 73, 0
4, 620960, Note_on_c, 0, 75, 96
4, 620960, Note_on_c, 0, 87, 96
4, 621120, Note_on_c, 0, 87, 0
4, 621120, Note_on_c, 0, 75, 0
4, 621120, Note_on_c, 0, 76, 96
4, 621120, Note_on_c, 0, 80, 96
4, 621120, Note_on_c, 0, 83, 96
4, 621120, Note_on_c, 0, 88, 96
4, 622080, Note_on_c, 0, 88, 0
4, 622080, Note_on_c, 0, 76, 0
4, 622080, Note_on_c, 0, 80, 0
4, 622080, Note_on_c, 0, 83, 0
4, 622080, Note_on_c, 0, 77, 122
4, 622080, Note_on_c, 0, 80, 122
4, 622080, Note_on_c, 0, 83, 122
4, 622080, Note_on_c, 0, 89, 122
4, 622239, Note_on_c, 0, 89, 0
4, 622239, Note_on_c, 0, 77, 0
4, 622239, Note_on_c, 0, 80, 0
4, 622239, Note_on_c, 0, 83, 0
4, 622239, Note_on_c, 0, 77, 96
4, 622400, Note_on_c, 0, 77, 0
4, 622400, Note_on_c, 0, 80, 96
4, 622560, Note_on_c, 0, 80, 0
4, 622560, Note_on_c, 0, 83, 96
4, 622719, Note_on_c, 0, 83, 0
4, 622719, Note_on_c, 0, 73, 96
4, 622719, Note_on_c, 0, 85, 96
4, 622880, Note_on_c, 0, 85, 0
4, 622880, Note_on_c, 0, 73, 0
4, 622880, Note_on_c, 0, 77, 96
4, 622880, Note_on_c, 0, 89, 96
4, 623040, Note_on_c, 0, 89, 0
4, 623040, Note_on_c, 0, 77, 0
4, 623040, Note_on_c, 0, 77, 96
4, 623040, Note_on_c, 0, 80, 96
4, 623040, Note_on_c, 0, 84, 96
4, 623040, Note_on_c, 0, 89, 96
4, 623520, Note_on_c, 0, 89, 0
4, 623520, Note_on_c, 0, 77, 0
4, 623520, Note_on_c, 0, 80, 0
4, 623520, Note_on_c, 0, 84, 0
4, 624000, Note_on_c, 0, 77, 122
4, 624000, Note_on_c, 0, 80, 122
4, 624000, Note_on_c, 0, 85, 122
4, 624000, Note_on_c, 0, 89, 122
4, 624159, Note_on_c, 0, 89, 0
4, 624159, Note_on_c, 0, 77, 0
4, 624159, Note_on_c, 0, 80, 0
4, 624159, Note_on_c, 0, 85, 0
4, 624159, Note_on_c, 0, 77, 96
4, 624320, Note_on_c, 0, 77, 0
4, 624320, Note_on_c, 0, 80, 96
4, 624480, Note_on_c, 0, 80, 0
4, 624480, Note_on_c, 0, 73, 96
4, 624480, Note_on_c, 0, 85, 96
4, 624639, Note_on_c, 0, 85, 0
4, 624639, Note_on_c, 0, 73, 0
4, 624639, Note_on_c, 0, 76, 96
4, 624639, Note_on_c, 0, 88, 96
4, 624800, Note_on_c, 0, 88, 0
4, 624800, Note_on_c, 0, 76, 0
4, 624800, Note_on_c, 0, 77, 96
4, 624800, Note_on_c, 0, 89, 96
4, 624960, Note_on_c, 0, 89, 0
4, 624960, Note_on_c, 0, 77, 0
4, 624960, Note_on_c, 0, 77, 96
4, 624960, Note_on_c, 0, 80, 96
4, 624960, Note_on_c, 0, 86, 96
4, 624960, Note_on_c, 0, 89, 96
4, 625440, Note_on_c, 0, 89, 0
4, 625440, Note_on_c, 0, 77, 0
4, 625440, Note_on_c, 0, 80, 0
4, 625440, Note_on_c, 0, 86, 0
4, 625920, Note_on_c, 0, 77, 122
4, 625920, Note_on_c, 0, 81, 122
4, 625920, Note_on_c, 0, 86, 122
4, 625920, Note_on_c, 0, 89, 122
4, 626079, Note_on_c, 0, 89, 0
4, 626079, Note_on_c, 0, 77, 0
4, 626079, Note_on_c, 0, 81, 0
4, 626079, Note_on_c, 0, 86, 0
4, 626079, Note_on_c, 0, 62, 96
4, 626240, Note_on_c, 0, 62, 0
4, 626240, Note_on_c, 0, 65, 96
4, 626400, Note_on_c, 0, 65, 0
4, 626400, Note_on_c, 0, 69, 96
4, 626559, Note_on_c, 0, 69, 0
4, 626559, Note_on_c, 0, 59, 96
4, 626559, Note_on_c, 0, 71, 96
4, 626720, Note_on_c, 0, 71, 0
4, 626720, Note_on_c, 0, 59, 0
4, 626720, Note_on_c, 0, 61, 96
4, 626720, Note_on_c, 0, 73, 96
4, 626880, Note_on_c, 0, 73, 0
4, 626880, Note_on_c, 0, 61, 0
4, 626880, Note_on_c, 0, 62, 96
4, 626880, Note_on_c, 0, 74, 96
4, 627039, Note_on_c, 0, 74, 0
4, 627039, Note_on_c, 0, 62, 0
4, 627039, Note_on_c, 0, 64, 96
4, 627039, Note_on_c, 0, 76, 96
4, 627200, Note_on_c, 0, 76, 0
4, 627200, Note_on_c, 0, 64, 0
4, 627200, Note_on_c, 0, 65, 96
4, 627200, Note_on_c, 0, 77, 96
4, 627360, Note_on_c, 0, 77, 0
4, 627360, Note_on_c, 0, 65, 0
4, 627360, Note_on_c, 0, 69, 96
4, 627360, Note_on_c, 0, 81, 96
4, 627519, Note_on_c, 0, 81, 0
4, 627519, Note_on_c, 0, 69, 0
4, 627519, Note_on_c, 0, 74, 96
4, 627519, Note_on_c, 0, 86, 96
4, 627680, Note_on_c, 0, 86, 0
4, 627680, Note_on_c, 0, 74, 0
4, 627680, Note_on_c, 0, 77, 96
4, 627680, Note_on_c, 0, 89, 96
4, 627840, Note_on_c, 0, 89, 0
4, 627840, Note_on_c, 0, 77, 0
4, 627840, Note_on_c, 0, 81, 96
4, 627840, Note_on_c, 0, 93, 96
4, 628080, Note_on_c, 0, 93, 0
4, 628080, Note_on_c, 0, 81, 0
4, 628320, Note_on_c, 0, 81, 96
4, 628320, Note_on_c, 0, 85, 96
4, 628320, Note_on_c, 0, 88, 96
4, 628320, Note_on_c, 0, 93, 96
4, 628560, Note_on_c, 0, 93, 0
4, 628560, Note_on_c, 0, 81, 0
4, 628560, Note_on_c, 0, 85, 0
4, 628560, Note_on_c, 0, 88, 0
4, 628800, Note_on_c, 0, 74, 83
4, 628800, Note_on_c, 0, 78, 83
4, 628800, Note_on_c, 0, 81, 83
4, 628800, Note_on_c, 0, 86, 83
4, 628831, Note_on_c, 0, 86, 0
4, 628831, Note_on_c, 0, 74, 0
4, 628831, Note_on_c, 0, 78, 0
4, 628831, Note_on_c, 0, 81, 0
4, 628959, Note_on_c, 0, 72, 83
4, 628959, Note_on_c, 0, 78, 83
4, 628991, Note_on_c, 0, 78, 0
4, 628991, Note_on_c, 0, 72, 0
4, 629120, Note_on_c, 0, 72, 83
4, 629120, Note_on_c, 0, 78, 83
4, 629120, Note_on_c, 0, 81, 83
4, 629152, Note_on_c, 0, 81, 0
4, 629152, Note_on_c, 0, 78, 0
4, 629152, Note_on_c, 0, 72, 0
4, 629280, Note_on_c, 0, 72, 83
4, 629280, Note_on_c, 0, 78, 83
4, 629280, Note_on_c, 0, 81, 83
4, 629280, Note_on_c, 0, 84, 83
4, 629311, Note_on_c, 0, 84, 0
4, 629311, Note_on_c, 0, 72, 0
4, 629311, Note_on_c, 0, 78, 0
4, 629311, Note_on_c, 0, 81, 0
4, 629439, Note_on_c, 0, 72, 83
4, 629439, Note_on_c, 0, 78, 83
4, 629439, Note_on_c, 0, 81, 83
4, 629471, Note_on_c, 0, 81, 0
4, 629471, Note_on_c, 0, 78, 0
4, 629471, Note_on_c, 0, 72, 0
4, 629600, Note_on_c, 0, 72, 83
4, 629600, Note_on_c, 0, 78, 83
4, 629600, Note_on_c, 0, 80, 83
4, 629632, Note_on_c, 0, 80, 0
4, 629632, Note_on_c, 0, 78, 0
4, 629632, Note_on_c, 0, 72, 0
4, 629760, Note_on_c, 0, 72, 83
4, 629760, Note_on_c, 0, 78, 83
4, 629760, Note_on_c, 0, 81, 83
4, 629791, Note_on_c, 0, 81, 0
4, 629791, Note_on_c, 0, 78, 0
4, 629791, Note_on_c, 0, 72, 0
4, 629919, Note_on_c, 0, 69, 83
4, 629919, Note_on_c, 0, 72, 83
4, 629919, Note_on_c, 0, 78, 83
4, 629951, Note_on_c, 0, 78, 0
4, 629951, Note_on_c, 0, 72, 0
4, 629951, Note_on_c, 0, 69, 0
4, 630080, Note_on_c, 0, 69, 83
4, 630080, Note_on_c, 0, 72, 83
4, 630080, Note_on_c, 0, 77, 83
4, 630112, Note_on_c, 0, 77, 0
4, 630112, Note_on_c, 0, 72, 0
4, 630112, Note_on_c, 0, 69, 0
4, 630240, Note_on_c, 0, 69, 83
4, 630240, Note_on_c, 0, 78, 83
4, 630271, Note_on_c, 0, 78, 0
4, 630271, Note_on_c, 0, 69, 0
4, 630399, Note_on_c, 0, 66, 83
4, 630399, Note_on_c, 0, 75, 83
4, 630431, Note_on_c, 0, 75, 0
4, 630431, Note_on_c, 0, 66, 0
4, 630560, Note_on_c, 0, 66, 83
4, 630560, Note_on_c, 0, 74, 83
4, 630592, Note_on_c, 0, 74, 0
4, 630592, Note_on_c, 0, 66, 0
4, 630720, Note_on_c, 0, 66, 83
4, 630720, Note_on_c, 0, 75, 83
4, 630751, Note_on_c, 0, 75, 0
4, 630751, Note_on_c, 0, 66, 0
4, 630879, Note_on_c, 0, 63, 83
4, 630879, Note_on_c, 0, 72, 83
4, 630911, Note_on_c, 0, 72, 0
4, 630911, Note_on_c, 0, 63, 0
4, 631040, Note_on_c, 0, 63, 83
4, 631040, Note_on_c, 0, 71, 83
4, 631072, Note_on_c, 0, 71, 0
4, 631072, Note_on_c, 0, 63, 0
4, 631200, Note_on_c, 0, 63, 83
4, 631200, Note_on_c, 0, 72, 83
4, 631231, Note_on_c, 0, 72, 0
4, 631231, Note_on_c, 0, 63, 0
4, 631359, Note_on_c, 0, 60, 83
4, 631359, Note_on_c, 0, 69, 83
4, 631391, Note_on_c, 0, 69, 0
4, 631391, Note_on_c, 0, 60, 0
4, 631520, Note_on_c, 0, 60, 83
4, 631520, Note_on_c, 0, 68, 83
4, 631552, Note_on_c, 0, 68, 0
4, 631552, Note_on_c, 0, 60, 0
4, 631680, Note_on_c, 0, 60, 83
4, 631680, Note_on_c, 0, 69, 83
4, 631711, Note_on_c, 0, 69, 0
4, 631711, Note_on_c, 0, 60, 0
4, 631839, Note_on_c, 0, 60, 83
4, 631839, Note_on_c, 0, 62, 83
4, 631871, Note_on_c, 0, 62, 0
4, 631871, Note_on_c, 0, 60, 0
4, 632000, Note_on_c, 0, 60, 83
4, 632000, Note_on_c, 0, 64, 83
4, 632032, Note_on_c, 0, 64, 0
4, 632032, Note_on_c, 0, 60, 0
4, 632160, Note_on_c, 0, 60, 83
4, 632160, Note_on_c, 0, 66, 83
4, 632191, Note_on_c, 0, 66, 0
4, 632191, Note_on_c, 0, 60, 0
4, 632319, Note_on_c, 0, 60, 83
4, 632319, Note_on_c, 0, 66, 83
4, 632319, Note_on_c, 0, 68, 83
4, 632351, Note_on_c, 0, 68, 0
4, 632351, Note_on_c, 0, 66, 0
4, 632351, Note_on_c, 0, 60, 0
4, 632480, Note_on_c, 0, 60, 83
4, 632480, Note_on_c, 0, 66, 83
4, 632480, Note_on_c, 0, 69, 83
4, 632512, Note_on_c, 0, 69, 0
4, 632512, Note_on_c, 0, 66, 0
4, 632512, Note_on_c, 0, 60, 0
4, 632640, Note_on_c, 0, 61, 83
4, 632640, Note_on_c, 0, 64, 83
4, 632640, Note_on_c, 0, 70, 83
4, 632671, Note_on_c, 0, 70, 0
4, 632671, Note_on_c, 0, 64, 0
4, 632671, Note_on_c, 0, 61, 0
4, 632799, Note_on_c, 0, 64, 83
4, 632799, Note_on_c, 0, 70, 83
4, 632799, Note_on_c, 0, 73, 83
4, 632831, Note_on_c, 0, 73, 0
4, 632831, Note_on_c, 0, 70, 0
4, 632831, Note_on_c, 0, 64, 0
4, 632960, Note_on_c, 0, 70, 83
4, 632960, Note_on_c, 0, 73, 83
4, 632960, Note_on_c, 0, 76, 83
4, 632992, Note_on_c, 0, 76, 0
4, 632992, Note_on_c, 0, 73, 0
4, 632992, Note_on_c, 0, 70, 0
4, 633120, Note_on_c, 0, 70, 83
4, 633120, Note_on_c, 0, 76, 83
4, 633120, Note_on_c, 0, 82, 83
4, 633151, Note_on_c, 0, 82, 0
4, 633151, Note_on_c, 0, 76, 0
4, 633151, Note_on_c, 0, 70, 0
4, 633279, Note_on_c, 0, 70, 83
4, 633279, Note_on_c, 0, 76, 83
4, 633279, Note_on_c, 0, 79, 83
4, 633311, Note_on_c, 0, 79, 0
4, 633311, Note_on_c, 0, 76, 0
4, 633311, Note_on_c, 0, 70, 0
4, 633440, Note_on_c, 0, 70, 83
4, 633440, Note_on_c, 0, 76, 83
4, 633440, Note_on_c, 0, 78, 83
4, 633472, Note_on_c, 0, 78, 0
4, 633472, Note_on_c, 0, 76, 0
4, 633472, Note_on_c, 0, 70, 0
4, 633600, Note_on_c, 0, 70, 83
4, 633600, Note_on_c, 0, 76, 83
4, 633600, Note_on_c, 0, 79, 83
4, 633631, Note_on_c, 0, 79, 0
4, 633631, Note_on_c, 0, 76, 0
4, 633631, Note_on_c, 0, 70, 0
4, 633759, Note_on_c, 0, 67, 83
4, 633759, Note_on_c, 0, 70, 83
4, 633759, Note_on_c, 0, 76, 83
4, 633791, Note_on_c, 0, 76, 0
4, 633791, Note_on_c, 0, 70, 0
4, 633791, Note_on_c, 0, 67, 0
4, 633920, Note_on_c, 0, 67, 83
4, 633920, Note_on_c, 0, 70, 83
4, 633920, Note_on_c, 0, 75, 83
4, 633952, Note_on_c, 0, 75, 0
4, 633952, Note_on_c, 0, 70, 0
4, 633952, Note_on_c, 0, 67, 0
4, 634080, Note_on_c, 0, 67, 83
4, 634080, Note_on_c, 0, 76, 83
4, 634111, Note_on_c, 0, 76, 0
4, 634111, Note_on_c, 0, 67, 0
4, 634239, Note_on_c, 0, 64, 83
4, 634239, Note_on_c, 0, 73, 83
4, 634271, Note_on_c, 0, 73, 0
4, 634271, Note_on_c, 0, 64, 0
4, 634400, Note_on_c, 0, 64, 83
4, 634400, Note_on_c, 0, 72, 83
4, 634432, Note_on_c, 0, 72, 0
4, 634432, Note_on_c, 0, 64, 0
4, 634560, Note_on_c, 0, 64, 70
4, 634560, Note_on_c, 0, 73, 70
4, 634591, Note_on_c, 0, 73, 0
4, 634591, Note_on_c, 0, 64, 0
4, 634719, Note_on_c, 0, 61, 70
4, 634719, Note_on_c, 0, 70, 70
4, 634751, Note_on_c, 0, 70, 0
4, 634751, Note_on_c, 0, 61, 0
4, 634880, Note_on_c, 0, 61, 70
4, 634880, Note_on_c, 0, 69, 70
4, 634912, Note_on_c, 0, 69, 0
4, 634912, Note_on_c, 0, 61, 0
4, 635040, Note_on_c, 0, 61, 70
4, 635040, Note_on_c, 0, 70, 70
4, 635071, Note_on_c, 0, 70, 0
4, 635071, Note_on_c, 0, 61, 0
4, 635199, Note_on_c, 0, 58, 70
4, 635199, Note_on_c, 0, 67, 70
4, 635231, Note_on_c, 0, 67, 0
4, 635231, Note_on_c, 0, 58, 0
4, 635360, Note_on_c, 0, 58, 70
4, 635360, Note_on_c, 0, 66, 70
4, 635392, Note_on_c, 0, 66, 0
4, 635392, Note_on_c, 0, 58, 0
4, 635520, Note_on_c, 0, 58, 70
4, 635520, Note_on_c, 0, 67, 70
4, 635551, Note_on_c, 0, 67, 0
4, 635551, Note_on_c, 0, 58, 0
4, 635679, Note_on_c, 0, 58, 70
4, 635679, Note_on_c, 0, 64, 70
4, 635711, Note_on_c, 0, 64, 0
4, 635711, Note_on_c, 0, 58, 0
4, 635840, Note_on_c, 0, 58, 70
4, 635840, Note_on_c, 0, 64, 70
4, 635840, Note_on_c, 0, 67, 70
4, 635872, Note_on_c, 0, 67, 0
4, 635872, Note_on_c, 0, 64, 0
4, 635872, Note_on_c, 0, 58, 0
4, 636000, Note_on_c, 0, 67, 70
4, 636000, Note_on_c, 0, 73, 70
4, 636031, Note_on_c, 0, 73, 0
4, 636031, Note_on_c, 0, 67, 0
4, 636159, Note_on_c, 0, 67, 70
4, 636159, Note_on_c, 0, 73, 70
4, 636159, Note_on_c, 0, 76, 70
4, 636191, Note_on_c, 0, 76, 0
4, 636191, Note_on_c, 0, 73, 0
4, 636191, Note_on_c, 0, 67, 0
4, 636320, Note_on_c, 0, 73, 70
4, 636320, Note_on_c, 0, 76, 70
4, 636320, Note_on_c, 0, 81, 70
4, 636352, Note_on_c, 0, 81, 0
4, 636352, Note_on_c, 0, 76, 0
4, 636352, Note_on_c, 0, 73, 0
4, 636480, Note_on_c, 0, 69, 70
4, 636480, Note_on_c, 0, 74, 70
4, 636480, Note_on_c, 0, 78, 70
4, 636511, Note_on_c, 0, 78, 0
4, 636511, Note_on_c, 0, 74, 0
4, 636511, Note_on_c, 0, 69, 0
4, 636639, Note_on_c, 0, 60, 70
4, 636639, Note_on_c, 0, 66, 70
4, 636671, Note_on_c, 0, 66, 0
4, 636671, Note_on_c, 0, 60, 0
4, 636800, Note_on_c, 0, 60, 70
4, 636800, Note_on_c, 0, 66, 70
4, 636800, Note_on_c, 0, 69, 70
4, 636832, Note_on_c, 0, 69, 0
4, 636832, Note_on_c, 0, 66, 0
4, 636832, Note_on_c, 0, 60, 0
4, 636960, Note_on_c, 0, 60, 70
4, 636960, Note_on_c, 0, 66, 70
4, 636960, Note_on_c, 0, 72, 70
4, 636991, Note_on_c, 0, 72, 0
4, 636991, Note_on_c, 0, 66, 0
4, 636991, Note_on_c, 0, 60, 0
4, 637119, Note_on_c, 0, 60, 70
4, 637119, Note_on_c, 0, 66, 70
4, 637119, Note_on_c, 0, 69, 70
4, 637151, Note_on_c, 0, 69, 0
4, 637151, Note_on_c, 0, 66, 0
4, 637151, Note_on_c, 0, 60, 0
4, 637280, Note_on_c, 0, 60, 70
4, 637280, Note_on_c, 0, 66, 70
4, 637280, Note_on_c, 0, 68, 70
4, 637312, Note_on_c, 0, 68, 0
4, 637312, Note_on_c, 0, 66, 0
4, 637312, Note_on_c, 0, 60, 0
4, 637440, Note_on_c, 0, 60, 70
4, 637440, Note_on_c, 0, 66, 70
4, 637440, Note_on_c, 0, 69, 70
4, 637471, Note_on_c, 0, 69, 0
4, 637471, Note_on_c, 0, 66, 0
4, 637471, Note_on_c, 0, 60, 0
4, 637599, Note_on_c, 0, 57, 70
4, 637599, Note_on_c, 0, 60, 70
4, 637599, Note_on_c, 0, 66, 70
4, 637631, Note_on_c, 0, 66, 0
4, 637631, Note_on_c, 0, 60, 0
4, 637631, Note_on_c, 0, 57, 0
4, 637760, Note_on_c, 0, 57, 70
4, 637760, Note_on_c, 0, 60, 70
4, 637760, Note_on_c, 0, 65, 70
4, 637792, Note_on_c, 0, 65, 0
4, 637792, Note_on_c, 0, 60, 0
4, 637792, Note_on_c, 0, 57, 0
4, 637920, Note_on_c, 0, 57, 70
4, 637920, Note_on_c, 0, 66, 70
4, 637951, Note_on_c, 0, 66, 0
4, 637951, Note_on_c, 0, 57, 0
4, 638079, Note_on_c, 0, 54, 70
4, 638079, Note_on_c, 0, 63, 70
4, 638111, Note_on_c, 0, 63, 0
4, 638111, Note_on_c, 0, 54, 0
4, 638240, Note_on_c, 0, 54, 70
4, 638240, Note_on_c, 0, 62, 70
4, 638272, Note_on_c, 0, 62, 0
4, 638272, Note_on_c, 0, 54, 0
4, 638400, Note_on_c, 0, 54, 70
4, 638400, Note_on_c, 0, 63, 70
4, 638431, Note_on_c, 0, 63, 0
4, 638431, Note_on_c, 0, 54, 0
4, 638559, Note_on_c, 0, 51, 70
4, 638559, Note_on_c, 0, 60, 70
4, 638591, Note_on_c, 0, 60, 0
4, 638591, Note_on_c, 0, 51, 0
4, 638720, Note_on_c, 0, 51, 70
4, 638720, Note_on_c, 0, 59, 70
4, 638752, Note_on_c, 0, 59, 0
4, 638752, Note_on_c, 0, 51, 0
4, 638880, Note_on_c, 0, 51, 70
4, 638880, Note_on_c, 0, 60, 70
4, 638911, Note_on_c, 0, 60, 0
4, 638911, Note_on_c, 0, 51, 0
4, 639039, Note_on_c, 0, 48, 70
4, 639039, Note_on_c, 0, 57, 70
4, 639071, Note_on_c, 0, 57, 0
4, 639071, Note_on_c, 0, 48, 0
4, 639200, Note_on_c, 0, 48, 70
4, 639200, Note_on_c, 0, 56, 70
4, 639232, Note_on_c, 0, 56, 0
4, 639232, Note_on_c, 0, 48, 0
4, 639360, Note_on_c, 0, 48, 70
4, 639360, Note_on_c, 0, 57, 70
4, 639391, Note_on_c, 0, 57, 0
4, 639391, Note_on_c, 0, 48, 0
4, 639519, Note_on_c, 0, 48, 70
4, 639519, Note_on_c, 0, 50, 70
4, 639551, Note_on_c, 0, 50, 0
4, 639551, Note_on_c, 0, 48, 0
4, 639680, Note_on_c, 0, 48, 70
4, 639680, Note_on_c, 0, 52, 70
4, 639712, Note_on_c, 0, 52, 0
4, 639712, Note_on_c, 0, 48, 0
4, 639840, Note_on_c, 0, 48, 70
4, 639840, Note_on_c, 0, 54, 70
4, 639871, Note_on_c, 0, 54, 0
4, 639871, Note_on_c, 0, 48, 0
4, 639999, Note_on_c, 0, 48, 70
4, 639999, Note_on_c, 0, 56, 70
4, 640031, Note_on_c, 0, 56, 0
4, 640031, Note_on_c, 0, 48, 0
4, 640160, Note_on_c, 0, 48, 70
4, 640160, Note_on_c, 0, 57, 70
4, 640192, Note_on_c, 0, 57, 0
4, 640192, Note_on_c, 0, 48, 0
4, 640320, Note_on_c, 0, 49, 70
4, 640320, Note_on_c, 0, 52, 70
4, 640320, Note_on_c, 0, 58, 70
4, 640351, Note_on_c, 0, 58, 0
4, 640351, Note_on_c, 0, 52, 0
4, 640351, Note_on_c, 0, 49, 0
4, 640479, Note_on_c, 0, 52, 70
4, 640479, Note_on_c, 0, 58, 70
4, 640479, Note_on_c, 0, 61, 70
4, 640511, Note_on_c, 0, 61, 0
4, 640511, Note_on_c, 0, 58, 0
4, 640511, Note_on_c, 0, 52, 0
4, 640640, Note_on_c, 0, 58, 70
4, 640640, Note_on_c, 0, 61, 70
4, 640640, Note_on_c, 0, 64, 70
4, 640672, Note_on_c, 0, 64, 0
4, 640672, Note_on_c, 0, 61, 0
4, 640672, Note_on_c, 0, 58, 0
4, 640800, Note_on_c, 0, 58, 70
4, 640800, Note_on_c, 0, 64, 70
4, 640800, Note_on_c, 0, 70, 70
4, 640831, Note_on_c, 0, 70, 0
4, 640831, Note_on_c, 0, 64, 0
4, 640831, Note_on_c, 0, 58, 0
4, 640959, Note_on_c, 0, 58, 70
4, 640959, Note_on_c, 0, 64, 70
4, 640959, Note_on_c, 0, 67, 70
4, 640991, Note_on_c, 0, 67, 0
4, 640991, Note_on_c, 0, 64, 0
4, 640991, Note_on_c, 0, 58, 0
4, 641120, Note_on_c, 0, 58, 70
4, 641120, Note_on_c, 0, 64, 70
4, 641120, Note_on_c, 0, 66, 70
4, 641152, Note_on_c, 0, 66, 0
4, 641152, Note_on_c, 0, 64, 0
4, 641152, Note_on_c, 0, 58, 0
4, 641280, Note_on_c, 0, 58, 70
4, 641280, Note_on_c, 0, 64, 70
4, 641280, Note_on_c, 0, 67, 70
4, 641311, Note_on_c, 0, 67, 0
4, 641311, Note_on_c, 0, 64, 0
4, 641311, Note_on_c, 0, 58, 0
4, 641439, Note_on_c, 0, 52, 70
4, 641439, Note_on_c, 0, 55, 70
4, 641439, Note_on_c, 0, 61, 70
4, 641471, Note_on_c, 0, 61, 0
4, 641471, Note_on_c, 0, 55, 0
4, 641471, Note_on_c, 0, 52, 0
4, 641600, Note_on_c, 0, 52, 70
4, 641600, Note_on_c, 0, 55, 70
4, 641600, Note_on_c, 0, 60, 70
4, 641632, Note_on_c, 0, 60, 0
4, 641632, Note_on_c, 0, 55, 0
4, 641632, Note_on_c, 0, 52, 0
4, 641760, Note_on_c, 0, 55, 70
4, 641760, Note_on_c, 0, 64, 70
4, 641791, Note_on_c, 0, 64, 0
4, 641791, Note_on_c, 0, 55, 0
4, 641919, Note_on_c, 0, 52, 70
4, 641919, Note_on_c, 0, 61, 70
4, 641951, Note_on_c, 0, 61, 0
4, 641951, Note_on_c, 0, 52, 0
4, 642080, Note_on_c, 0, 52, 70
4, 642080, Note_on_c, 0, 60, 70
4, 642112, Note_on_c, 0, 60, 0
4, 642112, Note_on_c, 0, 52, 0
4, 642240, Note_on_c, 0, 52, 57
4, 642240, Note_on_c, 0, 61, 57
4, 642271, Note_on_c, 0, 61, 0
4, 642271, Note_on_c, 0, 52, 0
4, 642399, Note_on_c, 0, 49, 57
4, 642399, Note_on_c, 0, 58, 57
4, 642431, Note_on_c, 0, 58, 0
4, 642431, Note_on_c, 0, 49, 0
4, 642560, Note_on_c, 0, 49, 57
4, 642560, Note_on_c, 0, 57, 57
4, 642592, Note_on_c, 0, 57, 0
4, 642592, Note_on_c, 0, 49, 0
4, 642720, Note_on_c, 0, 49, 57
4, 642720, Note_on_c, 0, 58, 57
4, 642751, Note_on_c, 0, 58, 0
4, 642751, Note_on_c, 0, 49, 0
4, 642879, Note_on_c, 0, 46, 57
4, 642879, Note_on_c, 0, 55, 57
4, 642911, Note_on_c, 0, 55, 0
4, 642911, Note_on_c, 0, 46, 0
4, 643040, Note_on_c, 0, 46, 57
4, 643040, Note_on_c, 0, 54, 57
4, 643072, Note_on_c, 0, 54, 0
4, 643072, Note_on_c, 0, 46, 0
4, 643200, Note_on_c, 0, 46, 57
4, 643200, Note_on_c, 0, 55, 57
4, 643231, Note_on_c, 0, 55, 0
4, 643231, Note_on_c, 0, 46, 0
4, 643359, Note_on_c, 0, 46, 57
4, 643359, Note_on_c, 0, 52, 57
4, 643391, Note_on_c, 0, 52, 0
4, 643391, Note_on_c, 0, 46, 0
4, 643520, Note_on_c, 0, 46, 57
4, 643520, Note_on_c, 0, 52, 57
4, 643520, Note_on_c, 0, 55, 57
4, 643552, Note_on_c, 0, 55, 0
4, 643552, Note_on_c, 0, 52, 0
4, 643552, Note_on_c, 0, 46, 0
4, 643680, Note_on_c, 0, 55, 57
4, 643680, Note_on_c, 0, 61, 57
4, 643711, Note_on_c, 0, 61, 0
4, 643711, Note_on_c, 0, 55, 0
4, 643839, Note_on_c, 0, 55, 57
4, 643839, Note_on_c, 0, 61, 57
4, 643839, Note_on_c, 0, 64, 57
4, 643871, Note_on_c, 0, 64, 0
4, 643871, Note_on_c, 0, 61, 0
4, 643871, Note_on_c, 0, 55, 0
4, 644000, Note_on_c, 0, 61, 57
4, 644000, Note_on_c, 0, 64, 57
4, 644000, Note_on_c, 0, 69, 57
4, 644032, Note_on_c, 0, 69, 0
4, 644032, Note_on_c, 0, 64, 0
4, 644032, Note_on_c, 0, 61, 0
4, 644040, Note_on_c, 0, 62, 57
4, 644100, Note_on_c, 0, 62, 0
4, 644100, Note_on_c, 0, 64, 57
4, 644160, Note_on_c, 0, 64, 0
4, 644160, Note_on_c, 0, 54, 57
4, 644160, Note_on_c, 0, 62, 57
4, 644400, Note_on_c, 0, 62, 0
4, 644400, Note_on_c, 0, 54, 0
4, 644400, Note_on_c, 0, 61, 57
4, 644640, Note_on_c, 0, 61, 0
4, 644640, Note_on_c, 0, 62, 57
4, 645279, Note_on_c, 0, 62, 0
4, 645279, Control_c, 0, 64, 127
4, 645279, Note_on_c, 0, 61, 57
4, 645440, Note_on_c, 0, 61, 0
4, 645440, Note_on_c, 0, 60, 57
4, 645600, Note_on_c, 0, 60, 0
4, 645600, Note_on_c, 0, 61, 57
4, 645759, Note_on_c, 0, 61, 0
4, 645759, Note_on_c, 0, 62, 57
4, 645920, Note_on_c, 0, 62, 0
4, 645920, Control_c, 0, 64, 0
4, 645920, Note_on_c, 0, 64, 57
4, 645960, Note_on_c, 0, 62, 57
4, 646020, Note_on_c, 0, 62, 0
4, 646020, Note_on_c, 0, 64, 57
4, 646080, Note_on_c, 0, 64, 0
4, 646080, Note_on_c, 0, 64, 0
4, 646080, Note_on_c, 0, 54, 57
4, 646080, Note_on_c, 0, 62, 57
4, 646320, Note_on_c, 0, 62, 0
4, 646320, Note_on_c, 0, 54, 0
4, 646320, Note_on_c, 0, 61, 57
4, 646560, Note_on_c, 0, 61, 0
4, 646560, Note_on_c, 0, 62, 57
4, 647199, Note_on_c, 0, 62, 0
4, 647199, Control_c, 0, 64, 127
4, 647199, Note_on_c, 0, 61, 57
4, 647360, Note_on_c, 0, 61, 0
4, 647360, Note_on_c, 0, 60, 57
4, 647520, Note_on_c, 0, 60, 0
4, 647520, Note_on_c, 0, 61, 57
4, 647679, Note_on_c, 0, 61, 0
4, 647679, Note_on_c, 0, 62, 57
4, 647840, Note_on_c, 0, 62, 0
4, 647840, Control_c, 0, 64, 0
4, 647840, Note_on_c, 0, 64, 57
4, 648000, Note_on_c, 0, 64, 0
4, 648000, Note_on_c, 0, 54, 57
4, 648000, Note_on_c, 0, 62, 57
4, 648159, Note_on_c, 0, 62, 0
4, 648159, Note_on_c, 0, 54, 0
4, 648159, Note_on_c, 0, 78, 57
4, 648159, Note_on_c, 0, 81, 57
4, 648159, Note_on_c, 0, 86, 57
4, 648191, Note_on_c, 0, 86, 0
4, 648191, Note_on_c, 0, 81, 0
4, 648191, Note_on_c, 0, 78, 0
4, 648320, Note_on_c, 0, 78, 57
4, 648320, Note_on_c, 0, 81, 57
4, 648320, Note_on_c, 0, 85, 57
4, 648352, Note_on_c, 0, 85, 0
4, 648352, Note_on_c, 0, 81, 0
4, 648352, Note_on_c, 0, 78, 0
4, 648480, Note_on_c, 0, 78, 57
4, 648480, Note_on_c, 0, 81, 57
4, 648480, Note_on_c, 0, 86, 57
4, 648511, Note_on_c, 0, 86, 0
4, 648511, Note_on_c, 0, 81, 0
4, 648511, Note_on_c, 0, 78, 0
4, 648639, Note_on_c, 0, 74, 57
4, 648639, Note_on_c, 0, 78, 57
4, 648639, Note_on_c, 0, 81, 57
4, 648671, Note_on_c, 0, 81, 0
4, 648671, Note_on_c, 0, 78, 0
4, 648671, Note_on_c, 0, 74, 0
4, 648800, Note_on_c, 0, 74, 57
4, 648800, Note_on_c, 0, 78, 57
4, 648800, Note_on_c, 0, 80, 57
4, 648832, Note_on_c, 0, 80, 0
4, 648832, Note_on_c, 0, 78, 0
4, 648832, Note_on_c, 0, 74, 0
4, 648960, Note_on_c, 0, 74, 57
4, 648960, Note_on_c, 0, 78, 57
4, 648960, Note_on_c, 0, 81, 57
4, 648991, Note_on_c, 0, 81, 0
4, 648991, Note_on_c, 0, 78, 0
4, 648991, Note_on_c, 0, 74, 0
4, 649119, Note_on_c, 0, 69, 57
4, 649119, Note_on_c, 0, 74, 57
4, 649119, Note_on_c, 0, 78, 57
4, 649151, Note_on_c, 0, 78, 0
4, 649151, Note_on_c, 0, 74, 0
4, 649151, Note_on_c, 0, 69, 0
4, 649280, Note_on_c, 0, 69, 57
4, 649280, Note_on_c, 0, 74, 57
4, 649280, Note_on_c, 0, 77, 57
4, 649312, Note_on_c, 0, 77, 0
4, 649312, Note_on_c, 0, 74, 0
4, 649312, Note_on_c, 0, 69, 0
4, 649440, Note_on_c, 0, 69, 57
4, 649440, Note_on_c, 0, 74, 57
4, 649440, Note_on_c, 0, 78, 57
4, 649471, Note_on_c, 0, 78, 0
4, 649471, Note_on_c, 0, 74, 0
4, 649471, Note_on_c, 0, 69, 0
4, 649599, Note_on_c, 0, 66, 57
4, 649599, Note_on_c, 0, 69, 57
4, 649599, Note_on_c, 0, 74, 57
4, 649631, Note_on_c, 0, 74, 0
4, 649631, Note_on_c, 0, 69, 0
4, 649631, Note_on_c, 0, 66, 0
4, 649760, Note_on_c, 0, 66, 57
4, 649760, Note_on_c, 0, 69, 57
4, 649760, Note_on_c, 0, 73, 57
4, 649792, Note_on_c, 0, 73, 0
4, 649792, Note_on_c, 0, 69, 0
4, 649792, Note_on_c, 0, 66, 0
4, 649920, Note_on_c, 0, 66, 57
4, 649920, Note_on_c, 0, 69, 57
4, 649920, Note_on_c, 0, 74, 57
4, 649951, Note_on_c, 0, 74, 0
4, 649951, Note_on_c, 0, 69, 0
4, 649951, Note_on_c, 0, 66, 0
4, 650079, Note_on_c, 0, 74, 57
4, 650079, Note_on_c, 0, 78, 57
4, 650079, Note_on_c, 0, 81, 57
4, 650111, Note_on_c, 0, 81, 0
4, 650111, Note_on_c, 0, 78, 0
4, 650111, Note_on_c, 0, 74, 0
4, 650240, Note_on_c, 0, 74, 57
4, 650240, Note_on_c, 0, 78, 57
4, 650240, Note_on_c, 0, 80, 57
4, 650272, Note_on_c, 0, 80, 0
4, 650272, Note_on_c, 0, 78, 0
4, 650272, Note_on_c, 0, 74, 0
4, 650400, Note_on_c, 0, 74, 57
4, 650400, Note_on_c, 0, 78, 57
4, 650400, Note_on_c, 0, 81, 57
4, 650431, Note_on_c, 0, 81, 0
4, 650431, Note_on_c, 0, 78, 0
4, 650431, Note_on_c, 0, 74, 0
4, 650559, Note_on_c, 0, 69, 57
4, 650559, Note_on_c, 0, 74, 57
4, 650559, Note_on_c, 0, 78, 57
4, 650591, Note_on_c, 0, 78, 0
4, 650591, Note_on_c, 0, 74, 0
4, 650591, Note_on_c, 0, 69, 0
4, 650720, Note_on_c, 0, 69, 57
4, 650720, Note_on_c, 0, 74, 57
4, 650720, Note_on_c, 0, 77, 57
4, 650752, Note_on_c, 0, 77, 0
4, 650752, Note_on_c, 0, 74, 0
4, 650752, Note_on_c, 0, 69, 0
4, 650880, Note_on_c, 0, 69, 57
4, 650880, Note_on_c, 0, 74, 57
4, 650880, Note_on_c, 0, 78, 57
4, 650911, Note_on_c, 0, 78, 0
4, 650911, Note_on_c, 0, 74, 0
4, 650911, Note_on_c, 0, 69, 0
4, 651039, Note_on_c, 0, 66, 57
4, 651039, Note_on_c, 0, 69, 57
4, 651039, Note_on_c, 0, 74, 57
4, 651071, Note_on_c, 0, 74, 0
4, 651071, Note_on_c, 0, 69, 0
4, 651071, Note_on_c, 0, 66, 0
4, 651200, Note_on_c, 0, 66, 57
4, 651200, Note_on_c, 0, 69, 57
4, 651200, Note_on_c, 0, 73, 57
4, 651232, Note_on_c, 0, 73, 0
4, 651232, Note_on_c, 0, 69, 0
4, 651232, Note_on_c, 0, 66, 0
4, 651360, Note_on_c, 0, 66, 57
4, 651360, Note_on_c, 0, 69, 57
4, 651360, Note_on_c, 0, 74, 57
4, 651391, Note_on_c, 0, 74, 0
4, 651391, Note_on_c, 0, 69, 0
4, 651391, Note_on_c, 0, 66, 0
4, 651519, Note_on_c, 0, 62, 57
4, 651519, Note_on_c, 0, 66, 57
4, 651519, Note_on_c, 0, 69, 57
4, 651551, Note_on_c, 0, 69, 0
4, 651551, Note_on_c, 0, 66, 0
4, 651551, Note_on_c, 0, 62, 0
4, 651680, Note_on_c, 0, 62, 57
4, 651680, Note_on_c, 0, 66, 57
4, 651680, Note_on_c, 0, 68, 57
4, 651712, Note_on_c, 0, 68, 0
4, 651712, Note_on_c, 0, 66, 0
4, 651712, Note_on_c, 0, 62, 0
4, 651840, Note_on_c, 0, 66, 57
4, 651840, Note_on_c, 0, 69, 57
4, 651871, Note_on_c, 0, 69, 0
4, 651871, Note_on_c, 0, 66, 0
4, 651999, Note_on_c, 0, 69, 44
4, 651999, Note_on_c, 0, 74, 44
4, 651999, Note_on_c, 0, 78, 44
4, 652031, Note_on_c, 0, 78, 0
4, 652031, Note_on_c, 0, 74, 0
4, 652031, Note_on_c, 0, 69, 0
4, 652160, Note_on_c, 0, 69, 44
4, 652160, Note_on_c, 0, 74, 44
4, 652160, Note_on_c, 0, 77, 44
4, 652192, Note_on_c, 0, 77, 0
4, 652192, Note_on_c, 0, 74, 0
4, 652192, Note_on_c, 0, 69, 0
4, 652320, Note_on_c, 0, 69, 44
4, 652320, Note_on_c, 0, 74, 44
4, 652320, Note_on_c, 0, 78, 44
4, 652351, Note_on_c, 0, 78, 0
4, 652351, Note_on_c, 0, 74, 0
4, 652351, Note_on_c, 0, 69, 0
4, 652479, Note_on_c, 0, 66, 44
4, 652479, Note_on_c, 0, 69, 44
4, 652479, Note_on_c, 0, 74, 44
4, 652511, Note_on_c, 0, 74, 0
4, 652511, Note_on_c, 0, 69, 0
4, 652511, Note_on_c, 0, 66, 0
4, 652640, Note_on_c, 0, 66, 44
4, 652640, Note_on_c, 0, 69, 44
4, 652640, Note_on_c, 0, 73, 44
4, 652672, Note_on_c, 0, 73, 0
4, 652672, Note_on_c, 0, 69, 0
4, 652672, Note_on_c, 0, 66, 0
4, 652800, Note_on_c, 0, 66, 44
4, 652800, Note_on_c, 0, 69, 44
4, 652800, Note_on_c, 0, 74, 44
4, 652831, Note_on_c, 0, 74, 0
4, 652831, Note_on_c, 0, 69, 0
4, 652831, Note_on_c, 0, 66, 0
4, 652959, Note_on_c, 0, 62, 44
4, 652959, Note_on_c, 0, 66, 44
4, 652959, Note_on_c, 0, 69, 44
4, 652991, Note_on_c, 0, 69, 0
4, 652991, Note_on_c, 0, 66, 0
4, 652991, Note_on_c, 0, 62, 0
4, 653120, Note_on_c, 0, 62, 44
4, 653120, Note_on_c, 0, 66, 44
4, 653120, Note_on_c, 0, 68, 44
4, 653152, Note_on_c, 0, 68, 0
4, 653152, Note_on_c, 0, 66, 0
4, 653152, Note_on_c, 0, 62, 0
4, 653280, Note_on_c, 0, 62, 44
4, 653280, Note_on_c, 0, 69, 44
4, 653311, Note_on_c, 0, 69, 0
4, 653311, Note_on_c, 0, 62, 0
4, 653439, Note_on_c, 0, 62, 44
4, 653439, Note_on_c, 0, 66, 44
4, 653471, Note_on_c, 0, 66, 0
4, 653471, Note_on_c, 0, 62, 0
4, 653600, Note_on_c, 0, 62, 44
4, 653600, Note_on_c, 0, 65, 44
4, 653632, Note_on_c, 0, 65, 0
4, 653632, Note_on_c, 0, 62, 0
4, 653760, Note_on_c, 0, 69, 44
4, 654240, Note_on_c, 0, 69, 0
4, 654240, Control_c, 0, 64, 127
4, 654240, Note_on_c, 0, 66, 44
4, 654240, Note_on_c, 0, 69, 44
4, 654240, Note_on_c, 0, 74, 44
4, 654720, Note_on_c, 0, 74, 0
4, 654720, Note_on_c, 0, 69, 0
4, 654720, Note_on_c, 0, 66, 0
4, 654720, Note_on_c, 0, 69, 44
4, 654720, Note_on_c, 0, 74, 44
4, 654720, Note_on_c, 0, 78, 44
4, 655200, Note_on_c, 0, 78, 0
4, 655200, Note_on_c, 0, 74, 0
4, 655200, Note_on_c, 0, 69, 0
4, 655200, Note_on_c, 0, 74, 44
4, 655200, Note_on_c, 0, 78, 44
4, 655200, Note_on_c, 0, 81, 44
4, 655680, Note_on_c, 0, 81, 0
4, 655680, Note_on_c, 0, 78, 0
4, 655680, Note_on_c, 0, 74, 0
4, 655680, Control_c, 0, 64, 0
4, 655680, Note_on_c, 0, 78, 44
4, 655680, Note_on_c, 0, 81, 44
4, 655680, Note_on_c, 0, 86, 44
4, 656160, Note_on_c, 0, 86, 0
4, 656160, Note_on_c, 0, 81, 0
4, 656160, Note_on_c, 0, 78, 0
4, 656640, Note_on_c, 0, 53, 44
4, 656640, Note_on_c, 0, 56, 44
4, 656640, Note_on_c, 0, 59, 44
4, 657600, Note_on_c, 0, 59, 0
4, 657600, Note_on_c, 0, 56, 0
4, 657600, Note_on_c, 0, 53, 0
4, 657600, Note_on_c, 0, 54, 44
4, 657600, Note_on_c, 0, 57, 44
4, 657600, Note_on_c, 0, 62, 44
4, 658080, Note_on_c, 0, 62, 0
4, 658080, Note_on_c, 0, 57, 0
4, 658080, Note_on_c, 0, 54, 0
4, 658560, Note_on_c, 0, 53, 44
4, 658560, Note_on_c, 0, 56, 44
4, 658560, Note_on_c, 0, 59, 44
4, 659520, Note_on_c, 0, 59, 0
4, 659520, Note_on_c, 0, 56, 0
4, 659520, Note_on_c, 0, 53, 0
4, 659520, Control_c, 0, 64, 127
4, 659520, Note_on_c, 0, 54, 44
4, 659520, Note_on_c, 0, 57, 44
4, 659520, Note_on_c, 0, 62, 44
4, 661440, Note_on_c, 0, 62, 0
4, 661440, Note_on_c, 0, 57, 0
4, 661440, Note_on_c, 0, 54, 0
4, 663360, Control_c, 0, 64, 0
4, 909600, Note_on_c, 0, 67, 96
4, 909600, Note_on_c, 0, 71, 96
4, 909600, Note_on_c, 0, 74, 96
4, 909600, Note_on_c, 0, 79, 96
4, 910080, Note_on_c, 0, 79, 0
4, 910080, Note_on_c, 0, 67, 0
4, 910080, Note_on_c, 0, 71, 0
4, 910080, Note_on_c, 0, 74, 0
4, 910080, Note_on_c, 0, 66, 96
4, 910080, Note_on_c, 0, 72, 96
4, 910080, Note_on_c, 0, 74, 96
4, 910080, Note_on_c, 0, 78, 96
4, 910320, Note_on_c, 0, 78, 0
4, 910320, Note_on_c, 0, 66, 0
4, 910320, Note_on_c, 0, 72, 0
4, 910320, Note_on_c, 0, 74, 0
4, 910320, Note_on_c, 0, 64, 96
4, 910320, Note_on_c, 0, 74, 96
4, 910320, Note_on_c, 0, 76, 96
4, 910560, Note_on_c, 0, 76, 0
4, 910560, Note_on_c, 0, 74, 0
4, 910560, Note_on_c, 0, 64, 0
4, 910560, Note_on_c, 0, 66, 96
4, 910560, Note_on_c, 0, 72, 96
4, 910560, Note_on_c, 0, 74, 96
4, 910560, Note_on_c, 0, 78, 96
4, 911520, Note_on_c, 0, 78, 0
4, 911520, Note_on_c, 0, 66, 0
4, 911520, Note_on_c, 0, 72, 0
4, 911520, Note_on_c, 0, 74, 0
4, 911520, Note_on_c, 0, 67, 96
4, 911520, Note_on_c, 0, 71, 96
4, 911520, Note_on_c, 0, 74, 96
4, 911520, Note_on_c, 0, 79, 96
4, 912000, Note_on_c, 0, 79, 0
4, 912000, Note_on_c, 0, 67, 0
4, 912000, Note_on_c, 0, 71, 0
4, 912000, Note_on_c, 0, 74, 0
4, 912000, Note_on_c, 0, 69, 96
4, 912000, Note_on_c, 0, 74, 96
4, 912000, Note_on_c, 0, 81, 96
4, 912480, Note_on_c, 0, 81, 0
4, 912480, Note_on_c, 0, 74, 0
4, 912480, Note_on_c, 0, 69, 0
4, 912480, Note_on_c, 0, 62, 96
4, 912639, Note_on_c, 0, 62, 0
4, 912639, Note_on_c, 0, 62, 96
4, 912800, Note_on_c, 0, 62, 0
4, 912800, Note_on_c, 0, 62, 96
4, 912960, Note_on_c, 0, 62, 0
4, 912960, Note_on_c, 0, 62, 96
4, 913440, Note_on_c, 0, 62, 0
4, 913440, Note_on_c, 0, 71, 96
4, 913440, Note_on_c, 0, 74, 96
4, 913440, Note_on_c, 0, 79, 96
4, 913440, Note_on_c, 0, 83, 96
4, 913920, Note_on_c, 0, 83, 0
4, 913920, Note_on_c, 0, 71, 0
4, 913920, Note_on_c, 0, 74, 0
4, 913920, Note_on_c, 0, 79, 0
4, 913920, Note_on_c, 0, 72, 96
4, 913920, Note_on_c, 0, 79, 96
4, 913920, Note_on_c, 0, 84, 96
4, 914400, Note_on_c, 0, 84, 0
4, 914400, Note_on_c, 0, 79, 0
4, 914400, Note_on_c, 0, 72, 0
4, 914400, Note_on_c, 0, 71, 96
4, 914400, Note_on_c, 0, 74, 96
4, 914400, Note_on_c, 0, 79, 96
4, 914400, Note_on_c, 0, 83, 96
4, 914880, Note_on_c, 0, 83, 0
4, 914880, Note_on_c, 0, 71, 0
4, 914880, Note_on_c, 0, 74, 0
4, 914880, Note_on_c, 0, 79, 0
4, 914880, Note_on_c, 0, 72, 96
4, 914880, Note_on_c, 0, 79, 96
4, 914880, Note_on_c, 0, 84, 96
4, 915360, Note_on_c, 0, 84, 0
4, 915360, Note_on_c, 0, 79, 0
4, 915360, Note_on_c, 0, 72, 0
4, 915360, Note_on_c, 0, 74, 96
4, 915360, Note_on_c, 0, 81, 96
4, 915360, Note_on_c, 0, 86, 96
4, 915840, Note_on_c, 0, 86, 0
4, 915840, Note_on_c, 0, 81, 0
4, 915840, Note_on_c, 0, 74, 0
4, 915840, Note_on_c, 0, 71, 96
4, 915840, Note_on_c, 0, 74, 96
4, 915840, Note_on_c, 0, 79, 96
4, 915840, Note_on_c, 0, 83, 96
4, 916080, Note_on_c, 0, 83, 0
4, 916080, Note_on_c, 0, 71, 0
4, 916080, Note_on_c, 0, 74, 0
4, 916080, Note_on_c, 0, 79, 0
4, 916080, Note_on_c, 0, 67, 96
4, 916080, Note_on_c, 0, 74, 96
4, 916080, Note_on_c, 0, 79, 96
4, 916320, Note_on_c, 0, 79, 0
4, 916320, Note_on_c, 0, 74, 0
4, 916320, Note_on_c, 0, 67, 0
4, 916320, Note_on_c, 0, 69, 96
4, 916320, Note_on_c, 0, 74, 96
4, 916320, Note_on_c, 0, 78, 96
4, 916320, Note_on_c, 0, 81, 96
4, 917280, Note_on_c, 0, 81, 0
4, 917280, Note_on_c, 0, 69, 0
4, 917280, Note_on_c, 0, 74, 0
4, 917280, Note_on_c, 0, 78, 0
4, 917280, Note_on_c, 0, 67, 96
4, 917280, Note_on_c, 0, 71, 96
4, 917280, Note_on_c, 0, 74, 96
4, 917280, Note_on_c, 0, 79, 96
4, 917760, Note_on_c, 0, 79, 0
4, 917760, Note_on_c, 0, 67, 0
4, 917760, Note_on_c, 0, 71, 0
4, 917760, Note_on_c, 0, 74, 0
4, 917760, Note_on_c, 0, 66, 96
4, 917760, Note_on_c, 0, 72, 96
4, 917760, Note_on_c, 0, 74, 96
4, 917760, Note_on_c, 0, 78, 96
4, 918000, Note_on_c, 0, 78, 0
4, 918000, Note_on_c, 0, 66, 0
4, 918000, Note_on_c, 0, 72, 0
4, 918000, Note_on_c, 0, 74, 0
4, 918000, Note_on_c, 0, 64, 96
4, 918000, Note_on_c, 0, 74, 96
4, 918000, Note_on_c, 0, 76, 96
4, 918240, Note_on_c, 0, 76, 0
4, 918240, Note_on_c, 0, 74, 0
4, 918240, Note_on_c, 0, 64, 0
4, 918240, Note_on_c, 0, 66, 96
4, 918240, Note_on_c, 0, 72, 96
4, 918240, Note_on_c, 0, 74, 96
4, 918240, Note_on_c, 0, 78, 96
4, 919200, Note_on_c, 0, 78, 0
4, 919200, Note_on_c, 0, 66, 0
4, 919200, Note_on_c, 0, 72, 0
4, 919200, Note_on_c, 0, 74, 0
4, 919200, Note_on_c, 0, 67, 96
4, 919200, Note_on_c, 0, 71, 96
4, 919200, Note_on_c, 0, 74, 96
4, 919200, Note_on_c, 0, 79, 96
4, 919680, Note_on_c, 0, 79, 0
4, 919680, Note_on_c, 0, 67, 0
4, 919680, Note_on_c, 0, 71, 0
4, 919680, Note_on_c, 0, 74, 0
4, 919680, Note_on_c, 0, 69, 96
4, 919680, Note_on_c, 0, 72, 96
4, 919680, Note_on_c, 0, 76, 96
4, 919680, Note_on_c, 0, 81, 96
4, 920160, Note_on_c, 0, 81, 0
4, 920160, Note_on_c, 0, 69, 0
4, 920160, Note_on_c, 0, 72, 0
4, 920160, Note_on_c, 0, 76, 0
4, 920160, Note_on_c, 0, 60, 96
4, 920319, Note_on_c, 0, 60, 0
4, 920319, Note_on_c, 0, 60, 96
4, 920480, Note_on_c, 0, 60, 0
4, 920480, Note_on_c, 0, 60, 96
4, 920640, Note_on_c, 0, 60, 0
4, 920640, Note_on_c, 0, 59, 96
4, 921120, Note_on_c, 0, 59, 0
4, 921120, Note_on_c, 0, 71, 96
4, 921120, Note_on_c, 0, 75, 96
4, 921120, Note_on_c, 0, 78, 96
4, 921120, Note_on_c, 0, 83, 96
4, 921510, Note_on_c, 0, 64, 96
4, 921540, Note_on_c, 0, 67, 96
4, 921570, Note_on_c, 0, 71, 96
4, 921600, Note_on_c, 0, 83, 0
4, 921600, Note_on_c, 0, 78, 0
4, 921600, Note_on_c, 0, 71, 0
4, 921600, Note_on_c, 0, 75, 0
4, 921600, Note_on_c, 0, 76, 96
4, 921990, Note_on_c, 0, 64, 96
4, 922020, Note_on_c, 0, 69, 96
4, 922050, Note_on_c, 0, 72, 96
4, 922080, Note_on_c, 0, 76, 0
4, 922080, Note_on_c, 0, 71, 0
4, 922080, Note_on_c, 0, 67, 0
4, 922080, Note_on_c, 0, 64, 0
4, 922080, Note_on_c, 0, 76, 96
4, 922470, Note_on_c, 0, 64, 96
4, 922500, Note_on_c, 0, 67, 96
4, 922530, Note_on_c, 0, 71, 96
4, 922560, Note_on_c, 0, 76, 0
4, 922560, Note_on_c, 0, 72, 0
4, 922560, Note_on_c, 0, 69, 0
4, 922560, Note_on_c, 0, 64, 0
4, 922560, Note_on_c, 0, 76, 96
4, 922950, Note_on_c, 0, 64, 96
4, 922980, Note_on_c, 0, 69, 96
4, 923010, Note_on_c, 0, 72, 96
4, 923040, Note_on_c, 0, 76, 0
4, 923040, Note_on_c, 0, 71, 0
4, 923040, Note_on_c, 0, 67, 0
4, 923040, Note_on_c, 0, 64, 0
4, 923040, Note_on_c, 0, 76, 96
4, 923520, Note_on_c, 0, 76, 0
4, 923520, Note_on_c, 0, 69, 0
4, 923520, Note_on_c, 0, 64, 0
4, 923520, Note_on_c, 0, 72, 0
4, 923520, Note_on_c, 0, 64, 96
4, 923520, Note_on_c, 0, 67, 96
4, 923520, Note_on_c, 0, 71, 96
4, 923520, Note_on_c, 0, 76, 96
4, 923760, Note_on_c, 0, 76, 0
4, 923760, Note_on_c, 0, 64, 0
4, 923760, Note_on_c, 0, 67, 0
4, 923760, Note_on_c, 0, 71, 0
4, 923760, Note_on_c, 0, 83, 96
4, 923840, Note_on_c, 0, 83, 0
4, 923840, Note_on_c, 0, 85, 96
4, 923919, Note_on_c, 0, 85, 0
4, 923919, Note_on_c, 0, 87, 96
4, 924000, Note_on_c, 0, 87, 0
4, 924000, Note_on_c, 0, 79, 96
4, 924000, Note_on_c, 0, 83, 96
4, 924000, Note_on_c, 0, 88, 96
4, 924480, Note_on_c, 0, 88, 0
4, 924480, Note_on_c, 0, 83, 0
4, 924480, Note_on_c, 0, 79, 0
4, 924960, Note_on_c, 0, 67, 96
4, 924960, Note_on_c, 0, 71, 96
4, 924960, Note_on_c, 0, 74, 96
4, 924960, Note_on_c, 0, 79, 96
4, 925440, Note_on_c, 0, 79, 0
4, 925440, Note_on_c, 0, 67, 0
4, 925440, Note_on_c, 0, 71, 0
4, 925440, Note_on_c, 0, 74, 0
4, 925440, Note_on_c, 0, 66, 96
4, 925440, Note_on_c, 0, 72, 96
4, 925440, Note_on_c, 0, 74, 96
4, 925440, Note_on_c, 0, 78, 96
4, 925680, Note_on_c, 0, 78, 0
4, 925680, Note_on_c, 0, 66, 0
4, 925680, Note_on_c, 0, 72, 0
4, 925680, Note_on_c, 0, 74, 0
4, 925680, Note_on_c, 0, 64, 96
4, 925680, Note_on_c, 0, 74, 96
4, 925680, Note_on_c, 0, 76, 96
4, 925920, Note_on_c, 0, 76, 0
4, 925920, Note_on_c, 0, 74, 0
4, 925920, Note_on_c, 0, 64, 0
4, 925920, Note_on_c, 0, 66, 96
4, 925920, Note_on_c, 0, 72, 96
4, 925920, Note_on_c, 0, 74, 96
4, 925920, Note_on_c, 0, 78, 96
4, 926880, Note_on_c, 0, 78, 0
4, 926880, Note_on_c, 0, 66, 0
4, 926880, Note_on_c, 0, 72, 0
4, 926880, Note_on_c, 0, 74, 0
4, 926880, Note_on_c, 0, 67, 96
4, 926880, Note_on_c, 0, 71, 96
4, 926880, Note_on_c, 0, 74, 96
4, 926880, Note_on_c, 0, 79, 96
4, 927360, Note_on_c, 0, 79, 0
4, 927360, Note_on_c, 0, 67, 0
4, 927360, Note_on_c, 0, 71, 0
4, 927360, Note_on_c, 0, 74, 0
4, 927360, Note_on_c, 0, 69, 96
4, 927360, Note_on_c, 0, 74, 96
4, 927360, Note_on_c, 0, 78, 96
4, 927360, Note_on_c, 0, 81, 96
4, 928800, Note_on_c, 0, 81, 0
4, 928800, Note_on_c, 0, 69, 0
4, 928800, Note_on_c, 0, 74, 0
4, 928800, Note_on_c, 0, 78, 0
4, 928800, Note_on_c, 0, 71, 96
4, 928800, Note_on_c, 0, 74, 96
4, 928800, Note_on_c, 0, 79, 96
4, 928800, Note_on_c, 0, 83, 96
4, 929280, Note_on_c, 0, 83, 0
4, 929280, Note_on_c, 0, 71, 0
4, 929280, Note_on_c, 0, 74, 0
4, 929280, Note_on_c, 0, 79, 0
4, 929280, Note_on_c, 0, 72, 96
4, 929280, Note_on_c, 0, 79, 96
4, 929280, Note_on_c, 0, 84, 96
4, 929760, Note_on_c, 0, 84, 0
4, 929760, Note_on_c, 0, 79, 0
4, 929760, Note_on_c, 0, 72, 0
4, 929760, Note_on_c, 0, 71, 96
4, 929760, Note_on_c, 0, 74, 96
4, 929760, Note_on_c, 0, 79, 96
4, 929760, Note_on_c, 0, 83, 96
4, 930240, Note_on_c, 0, 83, 0
4, 930240, Note_on_c, 0, 71, 0
4, 930240, Note_on_c, 0, 74, 0
4, 930240, Note_on_c, 0, 79, 0
4, 930240, Note_on_c, 0, 72, 96
4, 930240, Note_on_c, 0, 79, 96
4, 930240, Note_on_c, 0, 84, 96
4, 930720, Note_on_c, 0, 84, 0
4, 930720, Note_on_c, 0, 79, 0
4, 930720, Note_on_c, 0, 72, 0
4, 930720, Note_on_c, 0, 74, 96
4, 930720, Note_on_c, 0, 81, 96
4, 930720, Note_on_c, 0, 86, 96
4, 931200, Note_on_c, 0, 86, 0
4, 931200, Note_on_c, 0, 81, 0
4, 931200, Note_on_c, 0, 74, 0
4, 931200, Note_on_c, 0, 71, 96
4, 931200, Note_on_c, 0, 74, 96
4, 931200, Note_on_c, 0, 79, 96
4, 931200, Note_on_c, 0, 83, 96
4, 931440, Note_on_c, 0, 83, 0
4, 931440, Note_on_c, 0, 71, 0
4, 931440, Note_on_c, 0, 74, 0
4, 931440, Note_on_c, 0, 79, 0
4, 931440, Note_on_c, 0, 67, 96
4, 931440, Note_on_c, 0, 74, 96
4, 931440, Note_on_c, 0, 79, 96
4, 931680, Note_on_c, 0, 79, 0
4, 931680, Note_on_c, 0, 74, 0
4, 931680, Note_on_c, 0, 67, 0
4, 931680, Note_on_c, 0, 69, 96
4, 931680, Note_on_c, 0, 74, 96
4, 931680, Note_on_c, 0, 78, 96
4, 931680, Note_on_c, 0, 81, 96
4, 932640, Note_on_c, 0, 81, 0
4, 932640, Note_on_c, 0, 69, 0
4, 932640, Note_on_c, 0, 74, 0
4, 932640, Note_on_c, 0, 78, 0
4, 932640, Note_on_c, 0, 67, 96
4, 932640, Note_on_c, 0, 71, 96
4, 932640, Note_on_c, 0, 74, 96
4, 932640, Note_on_c, 0, 79, 96
4, 933120, Note_on_c, 0, 79, 0
4, 933120, Note_on_c, 0, 67, 0
4, 933120, Note_on_c, 0, 71, 0
4, 933120, Note_on_c, 0, 74, 0
4, 933120, Note_on_c, 0, 66, 96
4, 933120, Note_on_c, 0, 72, 96
4, 933120, Note_on_c, 0, 74, 96
4, 933120, Note_on_c, 0, 78, 96
4, 933360, Note_on_c, 0, 78, 0
4, 933360, Note_on_c, 0, 66, 0
4, 933360, Note_on_c, 0, 72, 0
4, 933360, Note_on_c, 0, 74, 0
4, 933360, Note_on_c, 0, 64, 96
4, 933360, Note_on_c, 0, 74, 96
4, 933360, Note_on_c, 0, 76, 96
4, 933600, Note_on_c, 0, 76, 0
4, 933600, Note_on_c, 0, 74, 0
4, 933600, Note_on_c, 0, 64, 0
4, 933600, Note_on_c, 0, 66, 96
4, 933600, Note_on_c, 0, 72, 96
4, 933600, Note_on_c, 0, 74, 96
4, 933600, Note_on_c, 0, 78, 96
4, 934560, Note_on_c, 0, 78, 0
4, 934560, Note_on_c, 0, 66, 0
4, 934560, Note_on_c, 0, 72, 0
4, 934560, Note_on_c, 0, 74, 0
4, 934560, Note_on_c, 0, 67, 96
4, 934560, Note_on_c, 0, 71, 96
4, 934560, Note_on_c, 0, 74, 96
4, 934560, Note_on_c, 0, 79, 96
4, 935040, Note_on_c, 0, 79, 0
4, 935040, Note_on_c, 0, 67, 0
4, 935040, Note_on_c, 0, 71, 0
4, 935040, Note_on_c, 0, 74, 0
4, 935040, Note_on_c, 0, 69, 96
4, 935040, Note_on_c, 0, 74, 96
4, 935040, Note_on_c, 0, 78, 96
4, 935040, Note_on_c, 0, 81, 96
4, 936480, Note_on_c, 0, 81, 0
4, 936480, Note_on_c, 0, 69, 0
4, 936480, Note_on_c, 0, 74, 0
4, 936480, Note_on_c, 0, 78, 0
4, 936480, Note_on_c, 0, 71, 96
4, 936480, Note_on_c, 0, 74, 96
4, 936480, Note_on_c, 0, 79, 96
4, 936480, Note_on_c, 0, 83, 96
4, 936960, Note_on_c, 0, 83, 0
4, 936960, Note_on_c, 0, 71, 0
4, 936960, Note_on_c, 0, 74, 0
4, 936960, Note_on_c, 0, 79, 0
4, 936960, Note_on_c, 0, 72, 96
4, 936960, Note_on_c, 0, 79, 96
4, 936960, Note_on_c, 0, 84, 96
4, 937440, Note_on_c, 0, 84, 0
4, 937440, Note_on_c, 0, 79, 0
4, 937440, Note_on_c, 0, 72, 0
4, 937440, Note_on_c, 0, 71, 96
4, 937440, Note_on_c, 0, 74, 96
4, 937440, Note_on_c, 0, 79, 96
4, 937440, Note_on_c, 0, 83, 96
4, 937920, Note_on_c, 0, 83, 0
4, 937920, Note_on_c, 0, 71, 0
4, 937920, Note_on_c, 0, 74, 0
4, 937920, Note_on_c, 0, 79, 0
4, 937920, Note_on_c, 0, 72, 96
4, 937920, Note_on_c, 0, 79, 96
4, 937920, Note_on_c, 0, 84, 96
4, 938400, Note_on_c, 0, 84, 0
4, 938400, Note_on_c, 0, 79, 0
4, 938400, Note_on_c, 0, 72, 0
4, 938400, Note_on_c, 0, 73, 96
4, 938400, Note_on_c, 0, 76, 96
4, 938400, Note_on_c, 0, 81, 96
4, 938400, Note_on_c, 0, 85, 96
4, 938880, Note_on_c, 0, 85, 0
4, 938880, Note_on_c, 0, 73, 0
4, 938880, Note_on_c, 0, 76, 0
4, 938880, Note_on_c, 0, 81, 0
4, 938880, Note_on_c, 0, 74, 96
4, 938880, Note_on_c, 0, 81, 96
4, 938880, Note_on_c, 0, 86, 96
4, 939360, Note_on_c, 0, 86, 0
4, 939360, Note_on_c, 0, 81, 0
4, 939360, Note_on_c, 0, 74, 0
4, 939360, Note_on_c, 0, 73, 96
4, 939360, Note_on_c, 0, 76, 96
4, 939360, Note_on_c, 0, 81, 96
4, 939360, Note_on_c, 0, 85, 96
4, 939840, Note_on_c, 0, 85, 0
4, 939840, Note_on_c, 0, 73, 0
4, 939840, Note_on_c, 0, 76, 0
4, 939840, Note_on_c, 0, 81, 0
4, 939840, Note_on_c, 0, 74, 96
4, 939840, Note_on_c, 0, 81, 96
4, 939840, Note_on_c, 0, 86, 96
4, 940320, Note_on_c, 0, 86, 0
4, 940320, Note_on_c, 0, 81, 0
4, 940320, Note_on_c, 0, 74, 0
4, 940320, Note_on_c, 0, 75, 96
4, 940320, Note_on_c, 0, 78, 96
4, 940320, Note_on_c, 0, 83, 96
4, 940320, Note_on_c, 0, 87, 96
4, 940800, Note_on_c, 0, 87, 0
4, 940800, Note_on_c, 0, 75, 0
4, 940800, Note_on_c, 0, 78, 0
4, 940800, Note_on_c, 0, 83, 0
4, 940800, Note_on_c, 0, 76, 96
4, 940800, Note_on_c, 0, 83, 96
4, 940800, Note_on_c, 0, 88, 96
4, 941280, Note_on_c, 0, 88, 0
4, 941280, Note_on_c, 0, 83, 0
4, 941280, Note_on_c, 0, 76, 0
4, 941280, Note_on_c, 0, 78, 96
4, 941280, Note_on_c, 0, 81, 96
4, 941280, Note_on_c, 0, 86, 96
4, 941280, Note_on_c, 0, 90, 96
4, 941760, Note_on_c, 0, 90, 0
4, 941760, Note_on_c, 0, 78, 0
4, 941760, Note_on_c, 0, 81, 0
4, 941760, Note_on_c, 0, 86, 0
4, 941760, Note_on_c, 0, 79, 96
4, 941760, Note_on_c, 0, 86, 96
4, 941760, Note_on_c, 0, 91, 96
4, 942240, Note_on_c, 0, 91, 0
4, 942240, Note_on_c, 0, 86, 0
4, 942240, Note_on_c, 0, 79, 0
4, 942240, Note_on_c, 0, 74, 96
4, 942240, Note_on_c, 0, 79, 96
4, 942240, Note_on_c, 0, 86, 96
4, 942399, Note_on_c, 0, 86, 0
4, 942399, Note_on_c, 0, 79, 0
4, 942399, Note_on_c, 0, 74, 0
4, 942399, Note_on_c, 0, 76, 96
4, 942560, Note_on_c, 0, 76, 0
4, 942560, Note_on_c, 0, 76, 96
4, 942720, Note_on_c, 0, 76, 0
4, 942720, Note_on_c, 0, 73, 96
4, 942720, Note_on_c, 0, 76, 96
4, 942720, Note_on_c, 0, 79, 96
4, 942720, Note_on_c, 0, 85, 96
4, 942960, Note_on_c, 0, 85, 0
4, 942960, Note_on_c, 0, 73, 0
4, 942960, Note_on_c, 0, 76, 0
4, 942960, Note_on_c, 0, 79, 0
4, 942960, Note_on_c, 0, 79, 96
4, 942960, Note_on_c, 0, 85, 96
4, 942960, Note_on_c, 0, 88, 96
4, 943200, Note_on_c, 0, 88, 0
4, 943200, Note_on_c, 0, 85, 0
4, 943200, Note_on_c, 0, 79, 0
4, 943200, Note_on_c, 0, 76, 96
4, 943200, Note_on_c, 0, 79, 96
4, 943200, Note_on_c, 0, 85, 96
4, 943440, Note_on_c, 0, 85, 0
4, 943440, Note_on_c, 0, 79, 0
4, 943440, Note_on_c, 0, 76, 0
4, 943440, Note_on_c, 0, 73, 96
4, 943440, Note_on_c, 0, 76, 96
4, 943440, Note_on_c, 0, 79, 96
4, 943680, Note_on_c, 0, 79, 0
4, 943680, Note_on_c, 0, 76, 0
4, 943680, Note_on_c, 0, 73, 0
4, 943680, Note_on_c, 0, 67, 96
4, 943680, Note_on_c, 0, 73, 96
4, 943680, Note_on_c, 0, 76, 96
4, 943920, Note_on_c, 0, 76, 0
4, 943920, Note_on_c, 0, 73, 0
4, 943920, Note_on_c, 0, 67, 0
4, 943920, Note_on_c, 0, 73, 96
4, 943920, Note_on_c, 0, 76, 96
4, 943920, Note_on_c, 0, 79, 96
4, 944160, Note_on_c, 0, 79, 0
4, 944160, Note_on_c, 0, 76, 0
4, 944160, Note_on_c, 0, 73, 0
4, 944160, Note_on_c, 0, 67, 96
4, 944160, Note_on_c, 0, 73, 96
4, 944160, Note_on_c, 0, 76, 96
4, 944400, Note_on_c, 0, 76, 0
4, 944400, Note_on_c, 0, 73, 0
4, 944400, Note_on_c, 0, 67, 0
4, 944400, Note_on_c, 0, 64, 96
4, 944400, Note_on_c, 0, 67, 96
4, 944400, Note_on_c, 0, 73, 96
4, 944640, Note_on_c, 0, 73, 0
4, 944640, Note_on_c, 0, 67, 0
4, 944640, Note_on_c, 0, 64, 0
4, 944640, Note_on_c, 0, 62, 96
4, 944640, Note_on_c, 0, 67, 96
4, 944640, Note_on_c, 0, 74, 96
4, 945120, Note_on_c, 0, 74, 0
4, 945120, Note_on_c, 0, 67, 0
4, 945120, Note_on_c, 0, 62, 0
4, 945120, Note_on_c, 0, 64, 96
4, 945120, Note_on_c, 0, 67, 96
4, 945120, Note_on_c, 0, 73, 96
4, 945600, Note_on_c, 0, 73, 0
4, 945600, Note_on_c, 0, 67, 0
4, 945600, Note_on_c, 0, 64, 0
4, 945600, Note_on_c, 0, 62, 96
4, 945600, Note_on_c, 0, 67, 96
4, 945600, Note_on_c, 0, 74, 96
4, 946080, Note_on_c, 0, 74, 0
4, 946080, Note_on_c, 0, 67, 0
4, 946080, Note_on_c, 0, 62, 0
4, 946080, Note_on_c, 0, 62, 96
4, 946080, Note_on_c, 0, 68, 96
4, 946080, Note_on_c, 0, 74, 96
4, 946239, Note_on_c, 0, 74, 0
4, 946239, Note_on_c, 0, 68, 0
4, 946239, Note_on_c, 0, 62, 0
4, 946239, Note_on_c, 0, 64, 96
4, 946239, Note_on_c, 0, 76, 96
4, 946400, Note_on_c, 0, 76, 0
4, 946400, Note_on_c, 0, 64, 0
4, 946400, Note_on_c, 0, 64, 96
4, 946400, Note_on_c, 0, 76, 96
4, 946560, Note_on_c, 0, 76, 0
4, 946560, Note_on_c, 0, 64, 0
4, 946560, Note_on_c, 0, 64, 96
4, 946560, Note_on_c, 0, 67, 96
4, 946560, Note_on_c, 0, 73, 96
4, 946800, Note_on_c, 0, 73, 0
4, 946800, Note_on_c, 0, 67, 0
4, 946800, Note_on_c, 0, 64, 0
4, 946800, Note_on_c, 0, 67, 96
4, 946800, Note_on_c, 0, 73, 96
4, 946800, Note_on_c, 0, 76, 96
4, 947040, Note_on_c, 0, 76, 0
4, 947040, Note_on_c, 0, 73, 0
4, 947040, Note_on_c, 0, 67, 0
4, 947040, Note_on_c, 0, 64, 96
4, 947040, Note_on_c, 0, 67, 96
4, 947040, Note_on_c, 0, 73, 96
4, 947280, Note_on_c, 0, 73, 0
4, 947280, Note_on_c, 0, 67, 0
4, 947280, Note_on_c, 0, 64, 0
4, 947280, Note_on_c, 0, 61, 96
4, 947280, Note_on_c, 0, 64, 96
4, 947280, Note_on_c, 0, 67, 96
4, 947520, Note_on_c, 0, 67, 0
4, 947520, Note_on_c, 0, 64, 0
4, 947520, Note_on_c, 0, 61, 0
4, 947520, Note_on_c, 0, 55, 96
4, 947520, Note_on_c, 0, 61, 96
4, 947520, Note_on_c, 0, 64, 96
4, 947760, Note_on_c, 0, 64, 0
4, 947760, Note_on_c, 0, 61, 0
4, 947760, Note_on_c, 0, 55, 0
4, 947760, Note_on_c, 0, 61, 96
4, 947760, Note_on_c, 0, 64, 96
4, 947760, Note_on_c, 0, 67, 96
4, 948000, Note_on_c, 0, 67, 0
4, 948000, Note_on_c, 0, 64, 0
4, 948000, Note_on_c, 0, 61, 0
4, 948000, Note_on_c, 0, 55, 96
4, 948000, Note_on_c, 0, 61, 96
4, 948000, Note_on_c, 0, 64, 96
4, 948240, Note_on_c, 0, 64, 0
4, 948240, Note_on_c, 0, 61, 0
4, 948240, Note_on_c, 0, 55, 0
4, 948240, Note_on_c, 0, 52, 96
4, 948240, Note_on_c, 0, 55, 96
4, 948240, Note_on_c, 0, 61, 96
4, 948480, Note_on_c, 0, 61, 0
4, 948480, Note_on_c, 0, 55, 0
4, 948480, Note_on_c, 0, 52, 0
4, 948480, Note_on_c, 0, 50, 96
4, 948480, Note_on_c, 0, 55, 96
4, 948480, Note_on_c, 0, 62, 96
4, 948960, Note_on_c, 0, 62, 0
4, 948960, Note_on_c, 0, 55, 0
4, 948960, Note_on_c, 0, 50, 0
4, 948960, Note_on_c, 0, 52, 96
4, 948960, Note_on_c, 0, 55, 96
4, 948960, Note_on_c, 0, 61, 96
4, 949440, Note_on_c, 0, 61, 0
4, 949440, Note_on_c, 0, 55, 0
4, 949440, Note_on_c, 0, 52, 0
4, 949440, Note_on_c, 0, 50, 96
4, 949440, Note_on_c, 0, 55, 96
4, 949440, Note_on_c, 0, 62, 96
4, 949920, Note_on_c, 0, 62, 0
4, 949920, Note_on_c, 0, 55, 0
4, 949920, Note_on_c, 0, 50, 0
4, 949920, Note_on_c, 0, 50, 96
4, 949920, Note_on_c, 0, 56, 96
4, 949920, Note_on_c, 0, 62, 96
4, 950079, Note_on_c, 0, 62, 0
4, 950079, Note_on_c, 0, 56, 0
4, 950079, Note_on_c, 0, 50, 0
4, 950079, Note_on_c, 0, 52, 96
4, 950079, Note_on_c, 0, 64, 96
4, 950240, Note_on_c, 0, 64, 0
4, 950240, Note_on_c, 0, 52, 0
4, 950240, Note_on_c, 0, 52, 96
4, 950240, Note_on_c, 0, 64, 96
4, 950400, Note_on_c, 0, 64, 0
4, 950400, Note_on_c, 0, 52, 0
4, 950400, Note_on_c, 0, 52, 96
4, 950400, Note_on_c, 0, 55, 96
4, 950400, Note_on_c, 0, 61, 96
4, 950640, Note_on_c, 0, 61, 0
4, 950640, Note_on_c, 0, 55, 0
4, 950640, Note_on_c, 0, 52, 0
4, 950640, Note_on_c, 0, 61, 96
4, 950640, Note_on_c, 0, 64, 96
4, 950640, Note_on_c, 0, 67, 96
4, 950880, Note_on_c, 0, 67, 0
4, 950880, Note_on_c, 0, 64, 0
4, 950880, Note_on_c, 0, 61, 0
4, 950880, Note_on_c, 0, 55, 96
4, 950880, Note_on_c, 0, 61, 96
4, 950880, Note_on_c, 0, 64, 96
4, 951120, Note_on_c, 0, 64, 0
4, 951120, Note_on_c, 0, 61, 0
4, 951120, Note_on_c, 0, 55, 0
4, 951120, Note_on_c, 0, 52, 96
4, 951120, Note_on_c, 0, 55, 96
4, 951120, Note_on_c, 0, 61, 96
4, 951360, Note_on_c, 0, 61, 0
4, 951360, Note_on_c, 0, 55, 0
4, 951360, Note_on_c, 0, 52, 0
4, 951360, Note_on_c, 0, 50, 96
4, 951360, Note_on_c, 0, 55, 96
4, 951360, Note_on_c, 0, 62, 96
4, 951840, Note_on_c, 0, 62, 0
4, 951840, Note_on_c, 0, 55, 0
4, 951840, Note_on_c, 0, 50, 0
4, 951840, Note_on_c, 0, 50, 96
4, 951840, Note_on_c, 0, 56, 96
4, 951840, Note_on_c, 0, 62, 96
4, 951999, Note_on_c, 0, 62, 0
4, 951999, Note_on_c, 0, 56, 0
4, 951999, Note_on_c, 0, 50, 0
4, 951999, Note_on_c, 0, 52, 96
4, 951999, Note_on_c, 0, 64, 96
4, 952160, Note_on_c, 0, 64, 0
4, 952160, Note_on_c, 0, 52, 0
4, 952160, Note_on_c, 0, 52, 96
4, 952160, Note_on_c, 0, 64, 96
4, 952320, Note_on_c, 0, 64, 0
4, 952320, Note_on_c, 0, 52, 0
4, 952320, Note_on_c, 0, 52, 96
4, 952320, Note_on_c, 0, 55, 96
4, 952320, Note_on_c, 0, 61, 96
4, 952560, Note_on_c, 0, 61, 0
4, 952560, Note_on_c, 0, 55, 0
4, 952560, Note_on_c, 0, 52, 0
4, 952560, Note_on_c, 0, 61, 96
4, 952560, Note_on_c, 0, 64, 96
4, 952560, Note_on_c, 0, 67, 96
4, 952800, Note_on_c, 0, 67, 0
4, 952800, Note_on_c, 0, 64, 0
4, 952800, Note_on_c, 0, 61, 0
4, 952800, Note_on_c, 0, 55, 96
4, 952800, Note_on_c, 0, 61, 96
4, 952800, Note_on_c, 0, 64, 96
4, 953040, Note_on_c, 0, 64, 0
4, 953040, Note_on_c, 0, 61, 0
4, 953040, Note_on_c, 0, 55, 0
4, 953040, Note_on_c, 0, 52, 96
4, 953040, Note_on_c, 0, 55, 96
4, 953040, Note_on_c, 0, 61, 96
4, 953280, Note_on_c, 0, 61, 0
4, 953280, Note_on_c, 0, 55, 0
4, 953280, Note_on_c, 0, 52, 0
4, 953280, Note_on_c, 0, 50, 96
4, 953280, Note_on_c, 0, 55, 96
4, 953280, Note_on_c, 0, 62, 96
4, 953760, Note_on_c, 0, 62, 0
4, 953760, Note_on_c, 0, 55, 0
4, 953760, Note_on_c, 0, 50, 0
4, 953760, Note_on_c, 0, 50, 96
4, 953760, Note_on_c, 0, 56, 96
4, 953760, Note_on_c, 0, 62, 96
4, 953919, Note_on_c, 0, 62, 0
4, 953919, Note_on_c, 0, 56, 0
4, 953919, Note_on_c, 0, 50, 0
4, 953919, Note_on_c, 0, 52, 96
4, 953919, Note_on_c, 0, 64, 96
4, 954080, Note_on_c, 0, 64, 0
4, 954080, Note_on_c, 0, 52, 0
4, 954080, Note_on_c, 0, 52, 96
4, 954080, Note_on_c, 0, 64, 96
4, 954240, Note_on_c, 0, 64, 0
4, 954240, Note_on_c, 0, 52, 0
4, 954240, Note_on_c, 0, 52, 96
4, 954240, Note_on_c, 0, 55, 96
4, 954240, Note_on_c, 0, 61, 96
4, 954720, Note_on_c, 0, 61, 0
4, 954720, Note_on_c, 0, 55, 0
4, 954720, Note_on_c, 0, 52, 0
4, 954720, Note_on_c, 0, 50, 96
4, 954720, Note_on_c, 0, 56, 96
4, 954720, Note_on_c, 0, 62, 96
4, 954879, Note_on_c, 0, 62, 0
4, 954879, Note_on_c, 0, 56, 0
4, 954879, Note_on_c, 0, 50, 0
4, 954879, Note_on_c, 0, 52, 96
4, 954879, Note_on_c, 0, 64, 96
4, 955040, Note_on_c, 0, 64, 0
4, 955040, Note_on_c, 0, 52, 0
4, 955040, Note_on_c, 0, 52, 96
4, 955040, Note_on_c, 0, 64, 96
4, 955200, Note_on_c, 0, 64, 0
4, 955200, Note_on_c, 0, 52, 0
4, 955200, Note_on_c, 0, 52, 96
4, 955200, Note_on_c, 0, 55, 96
4, 955200, Note_on_c, 0, 61, 96
4, 955680, Note_on_c, 0, 61, 0
4, 955680, Note_on_c, 0, 55, 0
4, 955680, Note_on_c, 0, 52, 0
4, 955680, Note_on_c, 0, 50, 96
4, 955680, Note_on_c, 0, 56, 96
4, 955680, Note_on_c, 0, 62, 96
4, 955839, Note_on_c, 0, 62, 0
4, 955839, Note_on_c, 0, 56, 0
4, 955839, Note_on_c, 0, 50, 0
4, 955839, Note_on_c, 0, 52, 96
4, 955839, Note_on_c, 0, 64, 96
4, 956000, Note_on_c, 0, 64, 0
4, 956000, Note_on_c, 0, 52, 0
4, 956000, Note_on_c, 0, 52, 96
4, 956000, Note_on_c, 0, 64, 96
4, 956160, Note_on_c, 0, 64, 0
4, 956160, Note_on_c, 0, 52, 0
4, 956160, Note_on_c, 0, 52, 96
4, 956160, Note_on_c, 0, 55, 96
4, 956160, Note_on_c, 0, 61, 96
4, 958080, Note_on_c, 0, 61, 0
4, 958080, Note_on_c, 0, 55, 0
4, 958080, Note_on_c, 0, 52, 0
4, 959040, Control_c, 0, 64, 127
4, 959040, Note_on_c, 0, 53, 83
4, 959040, Note_on_c, 0, 58, 83
4, 959040, Note_on_c, 0, 62, 83
4, 959160, Note_on_c, 0, 62, 0
4, 959160, Note_on_c, 0, 58, 0
4, 959160, Note_on_c, 0, 53, 0
4, 959160, Note_on_c, 0, 50, 83
4, 959280, Note_on_c, 0, 50, 0
4, 959280, Note_on_c, 0, 53, 83
4, 959280, Note_on_c, 0, 58, 83
4, 959280, Note_on_c, 0, 62, 83
4, 959400, Note_on_c, 0, 62, 0
4, 959400, Note_on_c, 0, 58, 0
4, 959400, Note_on_c, 0, 53, 0
4, 959400, Note_on_c, 0, 50, 83
4, 959520, Note_on_c, 0, 50, 0
4, 959520, Note_on_c, 0, 53, 83
4, 959520, Note_on_c, 0, 58, 83
4, 959520, Note_on_c, 0, 62, 83
4, 959640, Note_on_c, 0, 62, 0
4, 959640, Note_on_c, 0, 58, 0
4, 959640, Note_on_c, 0, 53, 0
4, 959640, Note_on_c, 0, 50, 83
4, 959760, Note_on_c, 0, 50, 0
4, 959760, Note_on_c, 0, 53, 83
4, 959760, Note_on_c, 0, 58, 83
4, 959760, Note_on_c, 0, 62, 83
4, 959880, Note_on_c, 0, 62, 0
4, 959880, Note_on_c, 0, 58, 0
4, 959880, Note_on_c, 0, 53, 0
4, 959880, Note_on_c, 0, 50, 70
4, 960000, Note_on_c, 0, 50, 0
4, 960000, Note_on_c, 0, 53, 70
4, 960000, Note_on_c, 0, 58, 70
4, 960000, Note_on_c, 0, 62, 70
4, 960120, Note_on_c, 0, 62, 0
4, 960120, Note_on_c, 0, 58, 0
4, 960120, Note_on_c, 0, 53, 0
4, 960120, Note_on_c, 0, 50, 70
4, 960240, Note_on_c, 0, 50, 0
4, 960240, Note_on_c, 0, 53, 70
4, 960240, Note_on_c, 0, 58, 70
4, 960240, Note_on_c, 0, 62, 70
4, 960360, Note_on_c, 0, 62, 0
4, 960360, Note_on_c, 0, 58, 0
4, 960360, Note_on_c, 0, 53, 0
4, 960360, Note_on_c, 0, 50, 70
4, 960480, Note_on_c, 0, 50, 0
4, 960480, Note_on_c, 0, 53, 70
4, 960480, Note_on_c, 0, 58, 70
4, 960480, Note_on_c, 0, 62, 70
4, 960600, Note_on_c, 0, 62, 0
4, 960600, Note_on_c, 0, 58, 0
4, 960600, Note_on_c, 0, 53, 0
4, 960600, Note_on_c, 0, 50, 70
4, 960720, Note_on_c, 0, 50, 0
4, 960720, Note_on_c, 0, 53, 70
4, 960720, Note_on_c, 0, 58, 70
4, 960720, Note_on_c, 0, 62, 70
4, 960840, Note_on_c, 0, 62, 0
4, 960840, Note_on_c, 0, 58, 0
4, 960840, Note_on_c, 0, 53, 0
4, 960840, Note_on_c, 0, 50, 70
4, 960960, Note_on_c, 0, 50, 0
4, 960960, Note_on_c, 0, 53, 57
4, 960960, Note_on_c, 0, 58, 57
4, 960960, Note_on_c, 0, 62, 57
4, 961080, Note_on_c, 0, 62, 0
4, 961080, Note_on_c, 0, 58, 0
4, 961080, Note_on_c, 0, 53, 0
4, 961080, Note_on_c, 0, 50, 57
4, 961200, Note_on_c, 0, 50, 0
4, 961200, Note_on_c, 0, 53, 57
4, 961200, Note_on_c, 0, 58, 57
4, 961200, Note_on_c, 0, 62, 57
4, 961320, Note_on_c, 0, 62, 0
4, 961320, Note_on_c, 0, 58, 0
4, 961320, Note_on_c, 0, 53, 0
4, 961320, Note_on_c, 0, 50, 57
4, 961440, Note_on_c, 0, 50, 0
4, 961440, Note_on_c, 0, 53, 57
4, 961440, Note_on_c, 0, 58, 57
4, 961440, Note_on_c, 0, 62, 57
4, 961560, Note_on_c, 0, 62, 0
4, 961560, Note_on_c, 0, 58, 0
4, 961560, Note_on_c, 0, 53, 0
4, 961560, Note_on_c, 0, 50, 57
4, 961680, Note_on_c, 0, 50, 0
4, 961680, Note_on_c, 0, 53, 57
4, 961680, Note_on_c, 0, 58, 57
4, 961680, Note_on_c, 0, 62, 57
4, 961800, Note_on_c, 0, 62, 0
4, 961800, Note_on_c, 0, 58, 0
4, 961800, Note_on_c, 0, 53, 0
4, 961800, Note_on_c, 0, 50, 57
4, 961920, Note_on_c, 0, 50, 0
4, 961920, Note_on_c, 0, 53, 57
4, 961920, Note_on_c, 0, 58, 57
4, 961920, Note_on_c, 0, 62, 57
4, 962040, Note_on_c, 0, 62, 0
4, 962040, Note_on_c, 0, 58, 0
4, 962040, Note_on_c, 0, 53, 0
4, 962040, Note_on_c, 0, 50, 44
4, 962160, Note_on_c, 0, 50, 0
4, 962160, Note_on_c, 0, 53, 44
4, 962160, Note_on_c, 0, 58, 44
4, 962160, Note_on_c, 0, 62, 44
4, 962280, Note_on_c, 0, 62, 0
4, 962280, Note_on_c, 0, 58, 0
4, 962280, Note_on_c, 0, 53, 0
4, 962280, Note_on_c, 0, 50, 44
4, 962400, Note_on_c, 0, 50, 0
4, 962400, Note_on_c, 0, 53, 44
4, 962400, Note_on_c, 0, 58, 44
4, 962400, Note_on_c, 0, 62, 44
4, 962520, Note_on_c, 0, 62, 0
4, 962520, Note_on_c, 0, 58, 0
4, 962520, Note_on_c, 0, 53, 0
4, 962520, Note_on_c, 0, 50, 44
4, 962640, Note_on_c, 0, 50, 0
4, 962640, Note_on_c, 0, 53, 44
4, 962640, Note_on_c, 0, 58, 44
4, 962640, Note_on_c, 0, 62, 44
4, 962760, Note_on_c, 0, 62, 0
4, 962760, Note_on_c, 0, 58, 0
4, 962760, Note_on_c, 0, 53, 0
4, 962760, Note_on_c, 0, 50, 44
4, 962880, Note_on_c, 0, 50, 0
4, 962880, Control_c, 0, 64, 0
4, 962880, Note_on_c, 0, 74, 109
4, 962880, Note_on_c, 0, 86, 109
4, 964800, Note_on_c, 0, 86, 0
4, 964800, Note_on_c, 0, 74, 0
4, 964800, Control_c, 0, 64, 127
4, 964800, Note_on_c, 0, 72, 83
4, 964800, Note_on_c, 0, 84, 83
4, 965280, Note_on_c, 0, 84, 0
4, 965280, Note_on_c, 0, 72, 0
4, 965280, Note_on_c, 0, 70, 83
4, 965280, Note_on_c, 0, 82, 83
4, 965760, Note_on_c, 0, 82, 0
4, 965760, Note_on_c, 0, 70, 0
4, 965760, Note_on_c, 0, 69, 83
4, 965760, Note_on_c, 0, 81, 83
4, 966240, Note_on_c, 0, 81, 0
4, 966240, Note_on_c, 0, 69, 0
4, 966240, Control_c, 0, 64, 0
4, 966240, Note_on_c, 0, 67, 83
4, 966240, Note_on_c, 0, 79, 83
4, 966720, Note_on_c, 0, 79, 0
4, 966720, Note_on_c, 0, 67, 0
4, 966720, Note_on_c, 0, 65, 109
4, 966720, Note_on_c, 0, 74, 109
4, 966720, Note_on_c, 0, 77, 109
4, 968640, Note_on_c, 0, 77, 0
4, 968640, Note_on_c, 0, 74, 0
4, 968640, Note_on_c, 0, 65, 0
4, 968640, Control_c, 0, 64, 127
4, 968640, Note_on_c, 0, 72, 109
4, 969120, Note_on_c, 0, 72, 0
4, 969120, Note_on_c, 0, 70, 109
4, 969600, Note_on_c, 0, 70, 0
4, 969600, Note_on_c, 0, 64, 83
4, 969600, Note_on_c, 0, 67, 83
4, 969600, Note_on_c, 0, 76, 83
4, 970080, Note_on_c, 0, 76, 0
4, 970080, Note_on_c, 0, 67, 0
4, 970080, Note_on_c, 0, 64, 0
4, 970080, Control_c, 0, 64, 0
4, 970080, Note_on_c, 0, 65, 83
4, 970080, Note_on_c, 0, 77, 83
4, 970560, Note_on_c, 0, 77, 0
4, 970560, Note_on_c, 0, 65, 0
4, 970560, Control_c, 0, 64, 127
4, 970560, Note_on_c, 0, 66, 109
4, 970560, Note_on_c, 0, 74, 109
4, 970560, Note_on_c, 0, 86, 109
4, 971520, Note_on_c, 0, 86, 0
4, 971520, Note_on_c, 0, 74, 0
4, 971520, Note_on_c, 0, 66, 0
4, 971520, Note_on_c, 0, 65, 83
4, 972000, Note_on_c, 0, 65, 0
4, 972000, Control_c, 0, 64, 0
4, 972000, Note_on_c, 0, 66, 83
4, 972480, Note_on_c, 0, 66, 0
4, 972480, Note_on_c, 0, 75, 109
4, 973440, Note_on_c, 0, 75, 0
4, 973440, Note_on_c, 0, 72, 83
4, 973440, Note_on_c, 0, 84, 83
4, 974400, Note_on_c, 0, 84, 0
4, 974400, Note_on_c, 0, 72, 0
4, 974400, Note_on_c, 0, 70, 83
4, 974400, Note_on_c, 0, 75, 83
4, 974400, Note_on_c, 0, 82, 83
4, 975360, Note_on_c, 0, 82, 0
4, 975360, Note_on_c, 0, 75, 0
4, 975360, Note_on_c, 0, 70, 0
4, 975360, Note_on_c, 0, 74, 83
4, 975840, Note_on_c, 0, 74, 0
4, 975840, Note_on_c, 0, 73, 83
4, 976320, Note_on_c, 0, 73, 0
4, 976320, Control_c, 0, 64, 127
4, 976320, Note_on_c, 0, 74, 83
4, 976640, Note_on_c, 0, 74, 0
4, 976640, Note_on_c, 0, 70, 83
4, 976959, Note_on_c, 0, 70, 0
4, 976959, Note_on_c, 0, 67, 83
4, 977280, Note_on_c, 0, 67, 0
4, 977280, Note_on_c, 0, 65, 83
4, 977600, Note_on_c, 0, 65, 0
4, 977600, Note_on_c, 0, 62, 83
4, 977919, Note_on_c, 0, 62, 0
4, 977919, Control_c, 0, 64, 0
4, 977919, Note_on_c, 0, 58, 83
4, 978240, Note_on_c, 0, 58, 0
4, 978240, Note_on_c, 0, 53, 44
4, 978240, Note_on_c, 0, 60, 44
4, 978240, Note_on_c, 0, 63, 44
4, 978240, Note_on_c, 0, 65, 44
4, 980160, Note_on_c, 0, 65, 0
4, 980160, Note_on_c, 0, 53, 0
4, 980160, Note_on_c, 0, 60, 0
4, 980160, Note_on_c, 0, 63, 0
4, 980160, Note_on_c, 0, 53, 44
4, 980160, Note_on_c, 0, 60, 44
4, 980160, Note_on_c, 0, 63, 44
4, 980160, Note_on_c, 0, 65, 44
4, 982080, Note_on_c, 0, 65, 0
4, 982080, Note_on_c, 0, 53, 0
4, 982080, Note_on_c, 0, 60, 0
4, 982080, Note_on_c, 0, 63, 0
4, 982080, Note_on_c, 0, 53, 44
4, 982080, Note_on_c, 0, 58, 44
4, 982080, Note_on_c, 0, 62, 44
4, 982080, Note_on_c, 0, 65, 44
4, 983520, Note_on_c, 0, 65, 0
4, 983520, Note_on_c, 0, 53, 0
4, 983520, Note_on_c, 0, 58, 0
4, 983520, Note_on_c, 0, 62, 0
4, 985920, Note_on_c, 0, 53, 44
4, 985920, Note_on_c, 0, 60, 44
4, 985920, Note_on_c, 0, 63, 44
4, 985920, Note_on_c, 0, 65, 44
4, 987840, Note_on_c, 0, 65, 0
4, 987840, Note_on_c, 0, 53, 0
4, 987840, Note_on_c, 0, 60, 0
4, 987840, Note_on_c, 0, 63, 0
4, 987840, Note_on_c, 0, 53, 44
4, 987840, Note_on_c, 0, 60, 44
4, 987840, Note_on_c, 0, 63, 44
4, 987840, Note_on_c, 0, 65, 44
4, 989760, Note_on_c, 0, 65, 0
4, 989760, Note_on_c, 0, 53, 0
4, 989760, Note_on_c, 0, 60, 0
4, 989760, Note_on_c, 0, 63, 0
4, 989760, Note_on_c, 0, 53, 44
4, 989760, Note_on_c, 0, 58, 44
4, 989760, Note_on_c, 0, 62, 44
4, 989760, Note_on_c, 0, 65, 44
4, 990240, Note_on_c, 0, 65, 0
4, 990240, Note_on_c, 0, 53, 0
4, 990240, Note_on_c, 0, 58, 0
4, 990240, Note_on_c, 0, 62, 0
4, 990720, Note_on_c, 0, 55, 44
4, 990720, Note_on_c, 0, 61, 44
4, 990720, Note_on_c, 0, 64, 44
4, 991200, Note_on_c, 0, 64, 0
4, 991200, Note_on_c, 0, 61, 0
4, 991200, Note_on_c, 0, 55, 0
4, 991680, Note_on_c, 0, 61, 44
4, 991680, Note_on_c, 0, 67, 44
4, 991680, Note_on_c, 0, 73, 44
4, 992160, Note_on_c, 0, 73, 0
4, 992160, Note_on_c, 0, 67, 0
4, 992160, Note_on_c, 0, 61, 0
4, 992160, Note_on_c, 0, 62, 44
4, 992160, Note_on_c, 0, 65, 44
4, 992160, Note_on_c, 0, 74, 44
4, 992400, Note_on_c, 0, 74, 0
4, 992400, Note_on_c, 0, 65, 0
4, 992400, Note_on_c, 0, 62, 0
4, 992640, Note_on_c, 0, 49, 44
4, 992640, Note_on_c, 0, 55, 44
4, 992640, Note_on_c, 0, 61, 44
4, 993120, Note_on_c, 0, 61, 0
4, 993120, Note_on_c, 0, 55, 0
4, 993120, Note_on_c, 0, 49, 0
4, 993120, Note_on_c, 0, 50, 44
4, 993120, Note_on_c, 0, 53, 44
4, 993120, Note_on_c, 0, 62, 44
4, 993360, Note_on_c, 0, 62, 0
4, 993360, Note_on_c, 0, 53, 0
4, 993360, Note_on_c, 0, 50, 0
4, 993600, Control_c, 0, 64, 127
4, 993600, Note_on_c, 0, 65, 57
4, 993600, Note_on_c, 0, 77, 57
4, 994080, Note_on_c, 0, 77, 0
4, 994080, Note_on_c, 0, 65, 0
4, 994080, Note_on_c, 0, 72, 57
4, 994080, Note_on_c, 0, 84, 57
4, 994560, Note_on_c, 0, 84, 0
4, 994560, Note_on_c, 0, 72, 0
4, 994560, Note_on_c, 0, 69, 57
4, 994560, Note_on_c, 0, 81, 57
4, 995040, Note_on_c, 0, 81, 0
4, 995040, Note_on_c, 0, 69, 0
4, 995040, Note_on_c, 0, 67, 57
4, 995040, Note_on_c, 0, 79, 57
4, 995280, Note_on_c, 0, 79, 0
4, 995280, Note_on_c, 0, 67, 0
4, 995280, Note_on_c, 0, 69, 57
4, 995280, Note_on_c, 0, 81, 57
4, 995520, Note_on_c, 0, 81, 0
4, 995520, Note_on_c, 0, 69, 0
4, 995520, Control_c, 0, 64, 0
4, 995520, Note_on_c, 0, 65, 57
4, 995520, Note_on_c, 0, 77, 57
4, 996960, Note_on_c, 0, 77, 0
4, 996960, Note_on_c, 0, 65, 0
4, 996960, Note_on_c, 0, 63, 57
4, 996960, Note_on_c, 0, 75, 57
4, 997440, Note_on_c, 0, 75, 0
4, 997440, Note_on_c, 0, 63, 0
4, 997440, Control_c, 0, 64, 127
4, 997440, Note_on_c, 0, 62, 57
4, 997440, Note_on_c, 0, 74, 57
4, 997680, Note_on_c, 0, 74, 0
4, 997680, Note_on_c, 0, 62, 0
4, 997680, Note_on_c, 0, 65, 57
4, 997680, Note_on_c, 0, 77, 57
4, 997920, Note_on_c, 0, 77, 0
4, 997920, Note_on_c, 0, 65, 0
4, 997920, Note_on_c, 0, 70, 57
4, 997920, Note_on_c, 0, 82, 57
4, 998160, Note_on_c, 0, 82, 0
4, 998160, Note_on_c, 0, 70, 0
4, 998160, Note_on_c, 0, 74, 57
4, 998160, Note_on_c, 0, 86, 57
4, 998400, Note_on_c, 0, 86, 0
4, 998400, Note_on_c, 0, 74, 0
4, 998400, Control_c, 0, 64, 0
4, 998400, Note_on_c, 0, 77, 83
4, 998400, Note_on_c, 0, 89, 83
4, 999120, Note_on_c, 0, 89, 0
4, 999120, Note_on_c, 0, 77, 0
4, 999120, Note_on_c, 0, 74, 57
4, 999120, Note_on_c, 0, 86, 57
4, 999360, Note_on_c, 0, 86, 0
4, 999360, Note_on_c, 0, 74, 0
4, 999360, Note_on_c, 0, 73, 57
4, 999360, Note_on_c, 0, 85, 57
4, 999600, Note_on_c, 0, 85, 0
4, 999600, Note_on_c, 0, 73, 0
4, 999600, Note_on_c, 0, 74, 57
4, 999600, Note_on_c, 0, 86, 57
4, 999840, Note_on_c, 0, 86, 0
4, 999840, Note_on_c, 0, 74, 0
4, 999840, Note_on_c, 0, 70, 57
4, 999840, Note_on_c, 0, 82, 57
4, 1000320, Note_on_c, 0, 82, 0
4, 1000320, Note_on_c, 0, 70, 0
4, 1000320, Note_on_c, 0, 53, 57
4, 1000320, Note_on_c, 0, 61, 57
4, 1000560, Note_on_c, 0, 61, 0
4, 1000560, Note_on_c, 0, 53, 0
4, 1000560, Note_on_c, 0, 62, 57
4, 1000800, Note_on_c, 0, 62, 0
4, 1000800, Note_on_c, 0, 58, 57
4, 1001280, Note_on_c, 0, 58, 0
4, 1001280, Control_c, 0, 64, 127
4, 1001280, Note_on_c, 0, 65, 57
4, 1001280, Note_on_c, 0, 77, 57
4, 1001760, Note_on_c, 0, 77, 0
4, 1001760, Note_on_c, 0, 65, 0
4, 1001760, Note_on_c, 0, 72, 57
4, 1001760, Note_on_c, 0, 84, 57
4, 1002240, Note_on_c, 0, 84, 0
4, 1002240, Note_on_c, 0, 72, 0
4, 1002240, Note_on_c, 0, 69, 57
4, 1002240, Note_on_c, 0, 81, 57
4, 1002720, Note_on_c, 0, 81, 0
4, 1002720, Note_on_c, 0, 69, 0
4, 1002720, Note_on_c, 0, 67, 57
4, 1002720, Note_on_c, 0, 79, 57
4, 1002960, Note_on_c, 0, 79, 0
4, 1002960, Note_on_c, 0, 67, 0
4, 1002960, Note_on_c, 0, 69, 57
4, 1002960, Note_on_c, 0, 81, 57
4, 1003200, Note_on_c, 0, 81, 0
4, 1003200, Note_on_c, 0, 69, 0
4, 1003200, Control_c, 0, 64, 0
4, 1003200, Note_on_c, 0, 65, 57
4, 1003200, Note_on_c, 0, 77, 57
4, 1004640, Note_on_c, 0, 77, 0
4, 1004640, Note_on_c, 0, 65, 0
4, 1004640, Note_on_c, 0, 63, 57
4, 1004640, Note_on_c, 0, 75, 57
4, 1005120, Note_on_c, 0, 75, 0
4, 1005120, Note_on_c, 0, 63, 0
4, 1005120, Control_c, 0, 64, 127
4, 1005120, Note_on_c, 0, 62, 57
4, 1005120, Note_on_c, 0, 74, 57
4, 1005360, Note_on_c, 0, 74, 0
4, 1005360, Note_on_c, 0, 62, 0
4, 1005360, Note_on_c, 0, 65, 57
4, 1005360, Note_on_c, 0, 77, 57
4, 1005600, Note_on_c, 0, 77, 0
4, 1005600, Note_on_c, 0, 65, 0
4, 1005600, Note_on_c, 0, 70, 70
4, 1005600, Note_on_c, 0, 82, 70
4, 1005840, Note_on_c, 0, 82, 0
4, 1005840, Note_on_c, 0, 70, 0
4, 1005840, Note_on_c, 0, 74, 70
4, 1005840, Note_on_c, 0, 86, 70
4, 1006080, Note_on_c, 0, 86, 0
4, 1006080, Note_on_c, 0, 74, 0
4, 1006080, Control_c, 0, 64, 0
4, 1006080, Note_on_c, 0, 73, 96
4, 1006080, Note_on_c, 0, 85, 96
4, 1006800, Note_on_c, 0, 85, 0
4, 1006800, Note_on_c, 0, 73, 0
4, 1006800, Note_on_c, 0, 73, 57
4, 1007040, Note_on_c, 0, 73, 0
4, 1007040, Control_c, 0, 64, 127
4, 1007040, Note_on_c, 0, 74, 57
4, 1007280, Note_on_c, 0, 74, 0
4, 1007280, Note_on_c, 0, 77, 57
4, 1007520, Note_on_c, 0, 77, 0
4, 1007520, Note_on_c, 0, 70, 70
4, 1007520, Note_on_c, 0, 82, 70
4, 1007760, Note_on_c, 0, 82, 0
4, 1007760, Note_on_c, 0, 70, 0
4, 1007760, Note_on_c, 0, 74, 70
4, 1007760, Note_on_c, 0, 86, 70
4, 1008000, Note_on_c, 0, 86, 0
4, 1008000, Note_on_c, 0, 74, 0
4, 1008000, Control_c, 0, 64, 0
4, 1008000, Note_on_c, 0, 77, 96
4, 1008000, Note_on_c, 0, 89, 96
4, 1008960, Note_on_c, 0, 89, 0
4, 1008960, Note_on_c, 0, 77, 0
4, 1008960, Control_c, 0, 64, 127
4, 1008960, Note_on_c, 0, 62, 57
4, 1008960, Note_on_c, 0, 74, 57
4, 1009200, Note_on_c, 0, 74, 0
4, 1009200, Note_on_c, 0, 62, 0
4, 1009200, Note_on_c, 0, 65, 57
4, 1009200, Note_on_c, 0, 77, 57
4, 1009440, Note_on_c, 0, 77, 0
4, 1009440, Note_on_c, 0, 65, 0
4, 1009440, Note_on_c, 0, 70, 70
4, 1009440, Note_on_c, 0, 82, 70
4, 1009680, Note_on_c, 0, 82, 0
4, 1009680, Note_on_c, 0, 70, 0
4, 1009680, Note_on_c, 0, 74, 70
4, 1009680, Note_on_c, 0, 86, 70
4, 1009920, Note_on_c, 0, 86, 0
4, 1009920, Note_on_c, 0, 74, 0
4, 1009920, Control_c, 0, 64, 0
4, 1009920, Note_on_c, 0, 73, 96
4, 1009920, Note_on_c, 0, 85, 96
4, 1010640, Note_on_c, 0, 85, 0
4, 1010640, Note_on_c, 0, 73, 0
4, 1010640, Note_on_c, 0, 73, 70
4, 1010880, Note_on_c, 0, 73, 0
4, 1010880, Control_c, 0, 64, 127
4, 1010880, Note_on_c, 0, 74, 70
4, 1011120, Note_on_c, 0, 74, 0
4, 1011120, Note_on_c, 0, 77, 70
4, 1011360, Note_on_c, 0, 77, 0
4, 1011360, Note_on_c, 0, 70, 70
4, 1011360, Note_on_c, 0, 82, 70
4, 1011600, Note_on_c, 0, 82, 0
4, 1011600, Note_on_c, 0, 70, 0
4, 1011600, Note_on_c, 0, 74, 70
4, 1011600, Note_on_c, 0, 86, 70
4, 1011840, Note_on_c, 0, 86, 0
4, 1011840, Note_on_c, 0, 74, 0
4, 1011840, Control_c, 0, 64, 0
4, 1011840, Note_on_c, 0, 77, 96
4, 1011840, Note_on_c, 0, 89, 96
4, 1012800, Note_on_c, 0, 89, 0
4, 1012800, Note_on_c, 0, 77, 0
4, 1012800, Control_c, 0, 64, 127
4, 1012800, Note_on_c, 0, 62, 57
4, 1012800, Note_on_c, 0, 74, 57
4, 1013040, Note_on_c, 0, 74, 0
4, 1013040, Note_on_c, 0, 62, 0
4, 1013040, Note_on_c, 0, 65, 57
4, 1013040, Note_on_c, 0, 77, 57
4, 1013280, Note_on_c, 0, 77, 0
4, 1013280, Note_on_c, 0, 65, 0
4, 1013280, Note_on_c, 0, 70, 70
4, 1013280, Note_on_c, 0, 82, 70
4, 1013520, Note_on_c, 0, 82, 0
4, 1013520, Note_on_c, 0, 70, 0
4, 1013520, Note_on_c, 0, 74, 70
4, 1013520, Note_on_c, 0, 86, 70
4, 1013760, Note_on_c, 0, 86, 0
4, 1013760, Note_on_c, 0, 74, 0
4, 1013760, Control_c, 0, 64, 0
4, 1013760, Note_on_c, 0, 73, 96
4, 1013760, Note_on_c, 0, 85, 96
4, 1014480, Note_on_c, 0, 85, 0
4, 1014480, Note_on_c, 0, 73, 0
4, 1014480, Note_on_c, 0, 73, 70
4, 1014720, Note_on_c, 0, 73, 0
4, 1014720, Control_c, 0, 64, 127
4, 1014720, Note_on_c, 0, 74, 70
4, 1014960, Note_on_c, 0, 74, 0
4, 1014960, Note_on_c, 0, 77, 70
4, 1015200, Note_on_c, 0, 77, 0
4, 1015200, Note_on_c, 0, 70, 70
4, 1015200, Note_on_c, 0, 82, 70
4, 1015440, Note_on_c, 0, 82, 0
4, 1015440, Note_on_c, 0, 70, 0
4, 1015440, Note_on_c, 0, 74, 70
4, 1015440, Note_on_c, 0, 86, 70
4, 1015680, Note_on_c, 0, 86, 0
4, 1015680, Note_on_c, 0, 74, 0
4, 1015680, Control_c, 0, 64, 0
4, 1015680, Note_on_c, 0, 73, 96
4, 1015680, Note_on_c, 0, 85, 96
4, 1016400, Note_on_c, 0, 85, 0
4, 1016400, Note_on_c, 0, 73, 0
4, 1016400, Note_on_c, 0, 73, 70
4, 1016640, Note_on_c, 0, 73, 0
4, 1016640, Control_c, 0, 64, 127
4, 1016640, Note_on_c, 0, 72, 70
4, 1016880, Note_on_c, 0, 72, 0
4, 1016880, Note_on_c, 0, 77, 70
4, 1017120, Note_on_c, 0, 77, 0
4, 1017120, Note_on_c, 0, 70, 70
4, 1017120, Note_on_c, 0, 82, 70
4, 1017360, Note_on_c, 0, 82, 0
4, 1017360, Note_on_c, 0, 70, 0
4, 1017360, Note_on_c, 0, 74, 70
4, 1017360, Note_on_c, 0, 86, 70
4, 1017600, Note_on_c, 0, 86, 0
4, 1017600, Note_on_c, 0, 74, 0
4, 1017600, Control_c, 0, 64, 0
4, 1017600, Note_on_c, 0, 75, 96
4, 1017600, Note_on_c, 0, 87, 96
4, 1018320, Note_on_c, 0, 87, 0
4, 1018320, Note_on_c, 0, 75, 0
4, 1018320, Note_on_c, 0, 74, 70
4, 1018320, Note_on_c, 0, 86, 70
4, 1018560, Note_on_c, 0, 86, 0
4, 1018560, Note_on_c, 0, 74, 0
4, 1018560, Control_c, 0, 64, 127
4, 1018560, Note_on_c, 0, 72, 70
4, 1018800, Note_on_c, 0, 72, 0
4, 1018800, Note_on_c, 0, 78, 70
4, 1019040, Note_on_c, 0, 78, 0
4, 1019040, Note_on_c, 0, 81, 70
4, 1019280, Note_on_c, 0, 81, 0
4, 1019280, Note_on_c, 0, 74, 70
4, 1019280, Note_on_c, 0, 86, 70
4, 1019520, Note_on_c, 0, 86, 0
4, 1019520, Note_on_c, 0, 74, 0
4, 1019520, Control_c, 0, 64, 0
4, 1019520, Note_on_c, 0, 75, 96
4, 1019520, Note_on_c, 0, 87, 96
4, 1020240, Note_on_c, 0, 87, 0
4, 1020240, Note_on_c, 0, 75, 0
4, 1020240, Note_on_c, 0, 74, 70
4, 1020240, Note_on_c, 0, 86, 70
4, 1020480, Note_on_c, 0, 86, 0
4, 1020480, Note_on_c, 0, 74, 0
4, 1020480, Control_c, 0, 64, 127
4, 1020480, Note_on_c, 0, 72, 83
4, 1020720, Note_on_c, 0, 72, 0
4, 1020720, Note_on_c, 0, 78, 83
4, 1020960, Note_on_c, 0, 78, 0
4, 1020960, Note_on_c, 0, 81, 83
4, 1021200, Note_on_c, 0, 81, 0
4, 1021200, Note_on_c, 0, 74, 83
4, 1021200, Note_on_c, 0, 86, 83
4, 1021440, Note_on_c, 0, 86, 0
4, 1021440, Note_on_c, 0, 74, 0
4, 1021440, Control_c, 0, 64, 0
4, 1021440, Note_on_c, 0, 75, 109
4, 1021440, Note_on_c, 0, 87, 109
4, 1022160, Note_on_c, 0, 87, 0
4, 1022160, Note_on_c, 0, 75, 0
4, 1022160, Note_on_c, 0, 74, 83
4, 1022160, Note_on_c, 0, 86, 83
4, 1022400, Note_on_c, 0, 86, 0
4, 1022400, Note_on_c, 0, 74, 0
4, 1022400, Control_c, 0, 64, 127
4, 1022400, Note_on_c, 0, 72, 83
4, 1022640, Note_on_c, 0, 72, 0
4, 1022640, Note_on_c, 0, 78, 83
4, 1022880, Note_on_c, 0, 78, 0
4, 1022880, Note_on_c, 0, 81, 83
4, 1023120, Note_on_c, 0, 81, 0
4, 1023120, Control_c, 0, 64, 0
4, 1023120, Note_on_c, 0, 74, 83
4, 1023120, Note_on_c, 0, 86, 83
4, 1023360, Note_on_c, 0, 86, 0
4, 1023360, Note_on_c, 0, 74, 0
4, 1024320, Control_c, 0, 64, 127
4, 1024320, Note_on_c, 0, 72, 83
4, 1024560, Note_on_c, 0, 72, 0
4, 1024560, Note_on_c, 0, 78, 83
4, 1024800, Note_on_c, 0, 78, 0
4, 1024800, Note_on_c, 0, 81, 83
4, 1025040, Note_on_c, 0, 81, 0
4, 1025040, Control_c, 0, 64, 0
4, 1025040, Note_on_c, 0, 74, 83
4, 1025040, Note_on_c, 0, 86, 83
4, 1025280, Note_on_c, 0, 86, 0
4, 1025280, Note_on_c, 0, 74, 0
4, 1051680, Note_on_c, 0, 50, 57
4, 1052160, Note_on_c, 0, 50, 0
4, 1052160, Note_on_c, 0, 58, 83
4, 1052640, Note_on_c, 0, 58, 0
4, 1052640, Note_on_c, 0, 57, 57
4, 1052640, Note_on_c, 0, 62, 57
4, 1052880, Note_on_c, 0, 62, 0
4, 1052880, Note_on_c, 0, 57, 0
4, 1052880, Note_on_c, 0, 55, 57
4, 1053120, Note_on_c, 0, 55, 0
4, 1053120, Note_on_c, 0, 62, 83
4, 1053120, Note_on_c, 0, 74, 83
4, 1053600, Note_on_c, 0, 74, 0
4, 1053600, Note_on_c, 0, 62, 0
4, 1053600, Note_on_c, 0, 74, 57
4, 1053600, Note_on_c, 0, 86, 57
4, 1054080, Note_on_c, 0, 86, 0
4, 1054080, Note_on_c, 0, 74, 0
4, 1054080, Note_on_c, 0, 75, 83
4, 1054080, Note_on_c, 0, 87, 83
4, 1054560, Note_on_c, 0, 87, 0
4, 1054560, Note_on_c, 0, 75, 0
4, 1054560, Note_on_c, 0, 74, 57
4, 1054560, Note_on_c, 0, 86, 57
4, 1055040, Note_on_c, 0, 86, 0
4, 1055040, Note_on_c, 0, 74, 0
4, 1055520, Note_on_c, 0, 50, 57
4, 1056000, Note_on_c, 0, 50, 0
4, 1056000, Note_on_c, 0, 58, 83
4, 1056480, Note_on_c, 0, 58, 0
4, 1056480, Note_on_c, 0, 57, 57
4, 1056480, Note_on_c, 0, 62, 57
4, 1056720, Note_on_c, 0, 62, 0
4, 1056720, Note_on_c, 0, 57, 0
4, 1056720, Note_on_c, 0, 55, 57
4, 1056960, Note_on_c, 0, 55, 0
4, 1056960, Note_on_c, 0, 62, 83
4, 1056960, Note_on_c, 0, 74, 83
4, 1057440, Note_on_c, 0, 74, 0
4, 1057440, Note_on_c, 0, 62, 0
4, 1057440, Note_on_c, 0, 74, 57
4, 1057440, Note_on_c, 0, 86, 57
4, 1057920, Note_on_c, 0, 86, 0
4, 1057920, Note_on_c, 0, 74, 0
4, 1057920, Note_on_c, 0, 75, 83
4, 1057920, Note_on_c, 0, 87, 83
4, 1058400, Note_on_c, 0, 87, 0
4, 1058400, Note_on_c, 0, 75, 0
4, 1058400, Note_on_c, 0, 74, 57
4, 1058400, Note_on_c, 0, 86, 57
4, 1058880, Note_on_c, 0, 86, 0
4, 1058880, Note_on_c, 0, 74, 0
4, 1059360, Control_c, 0, 64, 127
4, 1059360, Note_on_c, 0, 50, 57
4, 1059840, Note_on_c, 0, 50, 0
4, 1059840, Note_on_c, 0, 58, 83
4, 1060320, Note_on_c, 0, 58, 0
4, 1060320, Note_on_c, 0, 57, 57
4, 1060320, Note_on_c, 0, 62, 57
4, 1060560, Note_on_c, 0, 62, 0
4, 1060560, Note_on_c, 0, 57, 0
4, 1060560, Control_c, 0, 64, 0
4, 1060560, Note_on_c, 0, 55, 57
4, 1060800, Note_on_c, 0, 55, 0
4, 1060800, Note_on_c, 0, 55, 83
4, 1060800, Note_on_c, 0, 61, 83
4, 1061280, Note_on_c, 0, 61, 0
4, 1061280, Note_on_c, 0, 55, 0
4, 1061280, Note_on_c, 0, 72, 57
4, 1061280, Note_on_c, 0, 84, 57
4, 1061760, Note_on_c, 0, 84, 0
4, 1061760, Note_on_c, 0, 72, 0
4, 1061760, Note_on_c, 0, 73, 83
4, 1061760, Note_on_c, 0, 85, 83
4, 1062240, Note_on_c, 0, 85, 0
4, 1062240, Note_on_c, 0, 73, 0
4, 1062240, Note_on_c, 0, 72, 57
4, 1062240, Note_on_c, 0, 84, 57
4, 1062720, Note_on_c, 0, 84, 0
4, 1062720, Note_on_c, 0, 72, 0
4, 1063200, Control_c, 0, 64, 127
4, 1063200, Note_on_c, 0, 48, 57
4, 1063680, Note_on_c, 0, 48, 0
4, 1063680, Note_on_c, 0, 57, 83
4, 1064160, Note_on_c, 0, 57, 0
4, 1064160, Note_on_c, 0, 55, 57
4, 1064160, Note_on_c, 0, 60, 57
4, 1064400, Note_on_c, 0, 60, 0
4, 1064400, Note_on_c, 0, 55, 0
4, 1064400, Note_on_c, 0, 53, 57
4, 1064640, Note_on_c, 0, 53, 0
4, 1064640, Control_c, 0, 64, 0
4, 1064640, Note_on_c, 0, 60, 83
4, 1064640, Note_on_c, 0, 72, 83
4, 1065120, Note_on_c, 0, 72, 0
4, 1065120, Note_on_c, 0, 60, 0
4, 1065120, Note_on_c, 0, 72, 57
4, 1065120, Note_on_c, 0, 84, 57
4, 1065600, Note_on_c, 0, 84, 0
4, 1065600, Note_on_c, 0, 72, 0
4, 1065600, Note_on_c, 0, 74, 83
4, 1065600, Note_on_c, 0, 86, 83
4, 1066080, Note_on_c, 0, 86, 0
4, 1066080, Note_on_c, 0, 74, 0
4, 1066080, Note_on_c, 0, 72, 57
4, 1066080, Note_on_c, 0, 84, 57
4, 1066560, Note_on_c, 0, 84, 0
4, 1066560, Note_on_c, 0, 72, 0
4, 1067040, Note_on_c, 0, 60, 57
4, 1067520, Note_on_c, 0, 60, 0
4, 1067520, Note_on_c, 0, 62, 83
4, 1068000, Note_on_c, 0, 62, 0
4, 1068000, Note_on_c, 0, 60, 57
4, 1068480, Note_on_c, 0, 60, 0
4, 1068960, Note_on_c, 0, 60, 57
4, 1069440, Note_on_c, 0, 60, 0
4, 1069440, Note_on_c, 0, 62, 83
4, 1069920, Note_on_c, 0, 62, 0
4, 1069920, Note_on_c, 0, 60, 57
4, 1070400, Note_on_c, 0, 60, 0
4, 1070880, Note_on_c, 0, 60, 57
4, 1071360, Note_on_c, 0, 60, 0
4, 1071360, Note_on_c, 0, 63, 83
4, 1071840, Note_on_c, 0, 63, 0
4, 1071840, Note_on_c, 0, 62, 57
4, 1072320, Note_on_c, 0, 62, 0
4, 1072800, Note_on_c, 0, 52, 57
4, 1072800, Note_on_c, 0, 64, 57
4, 1073280, Note_on_c, 0, 64, 0
4, 1073280, Note_on_c, 0, 52, 0
4, 1073280, Note_on_c, 0, 53, 83
4, 1073280, Note_on_c, 0, 65, 83
4, 1073760, Note_on_c, 0, 65, 0
4, 1073760, Note_on_c, 0, 53, 0
4, 1073760, Note_on_c, 0, 52, 57
4, 1073760, Note_on_c, 0, 64, 57
4, 1074240, Note_on_c, 0, 64, 0
4, 1074240, Note_on_c, 0, 52, 0
4, 1074720, Note_on_c, 0, 52, 57
4, 1075200, Note_on_c, 0, 52, 0
4, 1075200, Note_on_c, 0, 60, 83
4, 1075680, Note_on_c, 0, 60, 0
4, 1075680, Note_on_c, 0, 59, 57
4, 1075680, Note_on_c, 0, 64, 57
4, 1075920, Note_on_c, 0, 64, 0
4, 1075920, Note_on_c, 0, 59, 0
4, 1075920, Note_on_c, 0, 57, 57
4, 1076160, Note_on_c, 0, 57, 0
4, 1076160, Note_on_c, 0, 64, 57
4, 1076160, Note_on_c, 0, 76, 57
4, 1076640, Note_on_c, 0, 76, 0
4, 1076640, Note_on_c, 0, 64, 0
4, 1076640, Note_on_c, 0, 76, 57
4, 1076640, Note_on_c, 0, 88, 57
4, 1077120, Note_on_c, 0, 88, 0
4, 1077120, Note_on_c, 0, 76, 0
4, 1077120, Note_on_c, 0, 77, 83
4, 1077120, Note_on_c, 0, 89, 83
4, 1077600, Note_on_c, 0, 89, 0
4, 1077600, Note_on_c, 0, 77, 0
4, 1077600, Note_on_c, 0, 76, 57
4, 1077600, Note_on_c, 0, 88, 57
4, 1078080, Note_on_c, 0, 88, 0
4, 1078080, Note_on_c, 0, 76, 0
4, 1078560, Note_on_c, 0, 52, 57
4, 1079040, Note_on_c, 0, 52, 0
4, 1079040, Note_on_c, 0, 60, 83
4, 1079520, Note_on_c, 0, 60, 0
4, 1079520, Note_on_c, 0, 59, 57
4, 1079520, Note_on_c, 0, 64, 57
4, 1079760, Note_on_c, 0, 64, 0
4, 1079760, Note_on_c, 0, 59, 0
4, 1079760, Note_on_c, 0, 57, 57
4, 1080000, Note_on_c, 0, 57, 0
4, 1080000, Note_on_c, 0, 57, 83
4, 1080000, Note_on_c, 0, 63, 83
4, 1080480, Note_on_c, 0, 63, 0
4, 1080480, Note_on_c, 0, 57, 0
4, 1080480, Note_on_c, 0, 74, 57
4, 1080480, Note_on_c, 0, 86, 57
4, 1080960, Note_on_c, 0, 86, 0
4, 1080960, Note_on_c, 0, 74, 0
4, 1080960, Note_on_c, 0, 76, 83
4, 1080960, Note_on_c, 0, 88, 83
4, 1081440, Note_on_c, 0, 88, 0
4, 1081440, Note_on_c, 0, 76, 0
4, 1081440, Note_on_c, 0, 74, 57
4, 1081440, Note_on_c, 0, 86, 57
4, 1081920, Note_on_c, 0, 86, 0
4, 1081920, Note_on_c, 0, 74, 0
4, 1082400, Note_on_c, 0, 50, 57
4, 1082880, Note_on_c, 0, 50, 0
4, 1082880, Note_on_c, 0, 59, 83
4, 1083360, Note_on_c, 0, 59, 0
4, 1083360, Note_on_c, 0, 57, 57
4, 1083360, Note_on_c, 0, 60, 57
4, 1083600, Note_on_c, 0, 60, 0
4, 1083600, Note_on_c, 0, 57, 0
4, 1083600, Note_on_c, 0, 55, 57
4, 1083840, Note_on_c, 0, 55, 0
4, 1083840, Note_on_c, 0, 62, 83
4, 1083840, Note_on_c, 0, 74, 83
4, 1084320, Note_on_c, 0, 74, 0
4, 1084320, Note_on_c, 0, 62, 0
4, 1084320, Note_on_c, 0, 74, 57
4, 1084320, Note_on_c, 0, 86, 57
4, 1084800, Note_on_c, 0, 86, 0
4, 1084800, Note_on_c, 0, 74, 0
4, 1084800, Note_on_c, 0, 76, 83
4, 1084800, Note_on_c, 0, 88, 83
4, 1085280, Note_on_c, 0, 88, 0
4, 1085280, Note_on_c, 0, 76, 0
4, 1085280, Note_on_c, 0, 74, 57
4, 1085280, Note_on_c, 0, 86, 57
4, 1085760, Note_on_c, 0, 86, 0
4, 1085760, Note_on_c, 0, 74, 0
4, 1086240, Note_on_c, 0, 62, 57
4, 1086720, Note_on_c, 0, 62, 0
4, 1086720, Note_on_c, 0, 64, 83
4, 1087200, Note_on_c, 0, 64, 0
4, 1087200, Note_on_c, 0, 62, 57
4, 1087680, Note_on_c, 0, 62, 0
4, 1088160, Note_on_c, 0, 50, 57
4, 1088160, Note_on_c, 0, 62, 57
4, 1088640, Note_on_c, 0, 62, 0
4, 1088640, Note_on_c, 0, 50, 0
4, 1088640, Note_on_c, 0, 52, 83
4, 1088640, Note_on_c, 0, 64, 83
4, 1089120, Note_on_c, 0, 64, 0
4, 1089120, Note_on_c, 0, 52, 0
4, 1089120, Note_on_c, 0, 50, 57
4, 1089120, Note_on_c, 0, 62, 57
4, 1089600, Note_on_c, 0, 62, 0
4, 1089600, Note_on_c, 0, 50, 0
4, 1090080, Note_on_c, 0, 52, 57
4, 1090080, Note_on_c, 0, 64, 57
4, 1090560, Note_on_c, 0, 64, 0
4, 1090560, Note_on_c, 0, 52, 0
4, 1090560, Note_on_c, 0, 53, 83
4, 1090560, Note_on_c, 0, 65, 83
4, 1091040, Note_on_c, 0, 65, 0
4, 1091040, Note_on_c, 0, 53, 0
4, 1091040, Note_on_c, 0, 52, 57
4, 1091040, Note_on_c, 0, 64, 57
4, 1091520, Note_on_c, 0, 64, 0
4, 1091520, Note_on_c, 0, 52, 0
4, 1092000, Note_on_c, 0, 52, 57
4, 1092000, Note_on_c, 0, 64, 57
4, 1092480, Note_on_c, 0, 64, 0
4, 1092480, Note_on_c, 0, 52, 0
4, 1092480, Note_on_c, 0, 53, 83
4, 1092480, Note_on_c, 0, 65, 83
4, 1092960, Note_on_c, 0, 65, 0
4, 1092960, Note_on_c, 0, 53, 0
4, 1092960, Note_on_c, 0, 52, 57
4, 1092960, Note_on_c, 0, 64, 57
4, 1093440, Note_on_c, 0, 64, 0
4, 1093440, Note_on_c, 0, 52, 0
4, 1093920, Note_on_c, 0, 52, 57
4, 1093920, Note_on_c, 0, 64, 57
4, 1094400, Note_on_c, 0, 64, 0
4, 1094400, Note_on_c, 0, 52, 0
4, 1094400, Note_on_c, 0, 53, 83
4, 1094400, Note_on_c, 0, 65, 83
4, 1094880, Note_on_c, 0, 65, 0
4, 1094880, Note_on_c, 0, 53, 0
4, 1094880, Note_on_c, 0, 52, 57
4, 1094880, Note_on_c, 0, 64, 57
4, 1095360, Note_on_c, 0, 64, 0
4, 1095360, Note_on_c, 0, 52, 0
4, 1095840, Note_on_c, 0, 54, 57
4, 1095840, Note_on_c, 0, 66, 57
4, 1096320, Note_on_c, 0, 66, 0
4, 1096320, Note_on_c, 0, 54, 0
4, 1096320, Note_on_c, 0, 55, 83
4, 1096320, Note_on_c, 0, 67, 83
4, 1096800, Note_on_c, 0, 67, 0
4, 1096800, Note_on_c, 0, 55, 0
4, 1096800, Note_on_c, 0, 54, 57
4, 1096800, Note_on_c, 0, 66, 57
4, 1097280, Note_on_c, 0, 66, 0
4, 1097280, Note_on_c, 0, 54, 0
4, 1097760, Note_on_c, 0, 54, 57
4, 1097760, Note_on_c, 0, 66, 57
4, 1098240, Note_on_c, 0, 66, 0
4, 1098240, Note_on_c, 0, 54, 0
4, 1098240, Note_on_c, 0, 55, 83
4, 1098240, Note_on_c, 0, 67, 83
4, 1098720, Note_on_c, 0, 67, 0
4, 1098720, Note_on_c, 0, 55, 0
4, 1098720, Note_on_c, 0, 54, 57
4, 1098720, Note_on_c, 0, 66, 57
4, 1099200, Note_on_c, 0, 66, 0
4, 1099200, Note_on_c, 0, 54, 0
4, 1099680, Note_on_c, 0, 56, 57
4, 1099680, Note_on_c, 0, 68, 57
4, 1100160, Note_on_c, 0, 68, 0
4, 1100160, Note_on_c, 0, 56, 0
4, 1100160, Note_on_c, 0, 57, 83
4, 1100160, Note_on_c, 0, 69, 83
4, 1100640, Note_on_c, 0, 69, 0
4, 1100640, Note_on_c, 0, 57, 0
4, 1100640, Note_on_c, 0, 56, 57
4, 1100640, Note_on_c, 0, 68, 57
4, 1101120, Note_on_c, 0, 68, 0
4, 1101120, Note_on_c, 0, 56, 0
4, 1101600, Note_on_c, 0, 56, 57
4, 1101600, Note_on_c, 0, 68, 57
4, 1102080, Note_on_c, 0, 68, 0
4, 1102080, Note_on_c, 0, 56, 0
4, 1102080, Note_on_c, 0, 57, 83
4, 1102080, Note_on_c, 0, 69, 83
4, 1102560, Note_on_c, 0, 69, 0
4, 1102560, Note_on_c, 0, 57, 0
4, 1102560, Note_on_c, 0, 56, 70
4, 1102560, Note_on_c, 0, 60, 70
4, 1102560, Note_on_c, 0, 63, 70
4, 1102560, Note_on_c, 0, 68, 70
4, 1103040, Note_on_c, 0, 68, 0
4, 1103040, Note_on_c, 0, 56, 0
4, 1103040, Note_on_c, 0, 60, 0
4, 1103040, Note_on_c, 0, 63, 0
4, 1103040, Note_on_c, 0, 55, 70
4, 1103040, Note_on_c, 0, 61, 70
4, 1103040, Note_on_c, 0, 64, 70
4, 1103040, Note_on_c, 0, 67, 70
4, 1103280, Note_on_c, 0, 67, 0
4, 1103280, Note_on_c, 0, 55, 0
4, 1103280, Note_on_c, 0, 61, 0
4, 1103280, Note_on_c, 0, 64, 0
4, 1103280, Note_on_c, 0, 54, 70
4, 1103280, Note_on_c, 0, 61, 70
4, 1103280, Note_on_c, 0, 64, 70
4, 1103280, Note_on_c, 0, 66, 70
4, 1103520, Note_on_c, 0, 66, 0
4, 1103520, Note_on_c, 0, 54, 0
4, 1103520, Note_on_c, 0, 61, 0
4, 1103520, Note_on_c, 0, 64, 0
4, 1103520, Note_on_c, 0, 55, 70
4, 1103520, Note_on_c, 0, 61, 70
4, 1103520, Note_on_c, 0, 64, 70
4, 1103520, Note_on_c, 0, 67, 70
4, 1104480, Note_on_c, 0, 67, 0
4, 1104480, Note_on_c, 0, 55, 0
4, 1104480, Note_on_c, 0, 61, 0
4, 1104480, Note_on_c, 0, 64, 0
4, 1104480, Note_on_c, 0, 56, 70
4, 1104480, Note_on_c, 0, 61, 70
4, 1104480, Note_on_c, 0, 64, 70
4, 1104480, Note_on_c, 0, 68, 70
4, 1104960, Note_on_c, 0, 68, 0
4, 1104960, Note_on_c, 0, 56, 0
4, 1104960, Note_on_c, 0, 61, 0
4, 1104960, Note_on_c, 0, 64, 0
4, 1104960, Note_on_c, 0, 58, 70
4, 1104960, Note_on_c, 0, 61, 70
4, 1104960, Note_on_c, 0, 64, 70
4, 1104960, Note_on_c, 0, 70, 70
4, 1105920, Note_on_c, 0, 70, 0
4, 1105920, Note_on_c, 0, 58, 0
4, 1105920, Note_on_c, 0, 61, 0
4, 1105920, Note_on_c, 0, 64, 0
4, 1106400, Note_on_c, 0, 58, 70
4, 1106400, Note_on_c, 0, 63, 70
4, 1106400, Note_on_c, 0, 66, 70
4, 1106400, Note_on_c, 0, 70, 70
4, 1106880, Note_on_c, 0, 70, 0
4, 1106880, Note_on_c, 0, 58, 0
4, 1106880, Note_on_c, 0, 63, 0
4, 1106880, Note_on_c, 0, 66, 0
4, 1106880, Note_on_c, 0, 57, 70
4, 1106880, Note_on_c, 0, 63, 70
4, 1106880, Note_on_c, 0, 66, 70
4, 1106880, Note_on_c, 0, 69, 70
4, 1107120, Note_on_c, 0, 69, 0
4, 1107120, Note_on_c, 0, 57, 0
4, 1107120, Note_on_c, 0, 63, 0
4, 1107120, Note_on_c, 0, 66, 0
4, 1107120, Note_on_c, 0, 56, 70
4, 1107120, Note_on_c, 0, 63, 70
4, 1107120, Note_on_c, 0, 66, 70
4, 1107120, Note_on_c, 0, 68, 70
4, 1107360, Note_on_c, 0, 68, 0
4, 1107360, Note_on_c, 0, 56, 0
4, 1107360, Note_on_c, 0, 63, 0
4, 1107360, Note_on_c, 0, 66, 0
4, 1107360, Note_on_c, 0, 57, 70
4, 1107360, Note_on_c, 0, 63, 70
4, 1107360, Note_on_c, 0, 66, 70
4, 1107360, Note_on_c, 0, 69, 70
4, 1108320, Note_on_c, 0, 69, 0
4, 1108320, Note_on_c, 0, 57, 0
4, 1108320, Note_on_c, 0, 63, 0
4, 1108320, Note_on_c, 0, 66, 0
4, 1108320, Note_on_c, 0, 58, 70
4, 1108320, Note_on_c, 0, 63, 70
4, 1108320, Note_on_c, 0, 66, 70
4, 1108320, Note_on_c, 0, 70, 70
4, 1108800, Note_on_c, 0, 70, 0
4, 1108800, Note_on_c, 0, 58, 0
4, 1108800, Note_on_c, 0, 63, 0
4, 1108800, Note_on_c, 0, 66, 0
4, 1108800, Note_on_c, 0, 60, 70
4, 1108800, Note_on_c, 0, 63, 70
4, 1108800, Note_on_c, 0, 66, 70
4, 1108800, Note_on_c, 0, 72, 70
4, 1110240, Note_on_c, 0, 72, 0
4, 1110240, Note_on_c, 0, 60, 0
4, 1110240, Note_on_c, 0, 63, 0
4, 1110240, Note_on_c, 0, 66, 0
4, 1110240, Note_on_c, 0, 60, 83
4, 1110240, Note_on_c, 0, 65, 83
4, 1110240, Note_on_c, 0, 68, 83
4, 1110240, Note_on_c, 0, 72, 83
4, 1110720, Note_on_c, 0, 72, 0
4, 1110720, Note_on_c, 0, 60, 0
4, 1110720, Note_on_c, 0, 65, 0
4, 1110720, Note_on_c, 0, 68, 0
4, 1110720, Note_on_c, 0, 59, 83
4, 1110720, Note_on_c, 0, 65, 83
4, 1110720, Note_on_c, 0, 68, 83
4, 1110720, Note_on_c, 0, 71, 83
4, 1110960, Note_on_c, 0, 71, 0
4, 1110960, Note_on_c, 0, 59, 0
4, 1110960, Note_on_c, 0, 65, 0
4, 1110960, Note_on_c, 0, 68, 0
4, 1110960, Note_on_c, 0, 58, 83
4, 1110960, Note_on_c, 0, 65, 83
4, 1110960, Note_on_c, 0, 68, 83
4, 1110960, Note_on_c, 0, 70, 83
4, 1111200, Note_on_c, 0, 70, 0
4, 1111200, Note_on_c, 0, 58, 0
4, 1111200, Note_on_c, 0, 65, 0
4, 1111200, Note_on_c, 0, 68, 0
4, 1111200, Note_on_c, 0, 59, 83
4, 1111200, Note_on_c, 0, 65, 83
4, 1111200, Note_on_c, 0, 68, 83
4, 1111200, Note_on_c, 0, 71, 83
4, 1112160, Note_on_c, 0, 71, 0
4, 1112160, Note_on_c, 0, 59, 0
4, 1112160, Note_on_c, 0, 65, 0
4, 1112160, Note_on_c, 0, 68, 0
4, 1112160, Note_on_c, 0, 62, 83
4, 1112160, Note_on_c, 0, 65, 83
4, 1112160, Note_on_c, 0, 68, 83
4, 1112160, Note_on_c, 0, 74, 83
4, 1112640, Note_on_c, 0, 74, 0
4, 1112640, Note_on_c, 0, 62, 0
4, 1112640, Note_on_c, 0, 65, 0
4, 1112640, Note_on_c, 0, 68, 0
4, 1112640, Note_on_c, 0, 61, 83
4, 1112640, Note_on_c, 0, 67, 83
4, 1112640, Note_on_c, 0, 70, 83
4, 1112640, Note_on_c, 0, 73, 83
4, 1112880, Note_on_c, 0, 73, 0
4, 1112880, Note_on_c, 0, 61, 0
4, 1112880, Note_on_c, 0, 67, 0
4, 1112880, Note_on_c, 0, 70, 0
4, 1112880, Note_on_c, 0, 60, 83
4, 1112880, Note_on_c, 0, 66, 83
4, 1112880, Note_on_c, 0, 69, 83
4, 1112880, Note_on_c, 0, 72, 83
4, 1113120, Note_on_c, 0, 72, 0
4, 1113120, Note_on_c, 0, 60, 0
4, 1113120, Note_on_c, 0, 66, 0
4, 1113120, Note_on_c, 0, 69, 0
4, 1113120, Note_on_c, 0, 61, 83
4, 1113120, Note_on_c, 0, 67, 83
4, 1113120, Note_on_c, 0, 70, 83
4, 1113120, Note_on_c, 0, 73, 83
4, 1114080, Note_on_c, 0, 73, 0
4, 1114080, Note_on_c, 0, 61, 0
4, 1114080, Note_on_c, 0, 67, 0
4, 1114080, Note_on_c, 0, 70, 0
4, 1114080, Note_on_c, 0, 64, 83
4, 1114080, Note_on_c, 0, 67, 83
4, 1114080, Note_on_c, 0, 70, 83
4, 1114080, Note_on_c, 0, 76, 83
4, 1114560, Note_on_c, 0, 76, 0
4, 1114560, Note_on_c, 0, 64, 0
4, 1114560, Note_on_c, 0, 67, 0
4, 1114560, Note_on_c, 0, 70, 0
4, 1114560, Note_on_c, 0, 63, 83
4, 1114560, Note_on_c, 0, 69, 83
4, 1114560, Note_on_c, 0, 72, 83
4, 1114560, Note_on_c, 0, 75, 83
4, 1114800, Note_on_c, 0, 75, 0
4, 1114800, Note_on_c, 0, 63, 0
4, 1114800, Note_on_c, 0, 69, 0
4, 1114800, Note_on_c, 0, 72, 0
4, 1114800, Note_on_c, 0, 62, 83
4, 1114800, Note_on_c, 0, 68, 83
4, 1114800, Note_on_c, 0, 71, 83
4, 1114800, Note_on_c, 0, 74, 83
4, 1115040, Note_on_c, 0, 74, 0
4, 1115040, Note_on_c, 0, 62, 0
4, 1115040, Note_on_c, 0, 68, 0
4, 1115040, Note_on_c, 0, 71, 0
4, 1115040, Note_on_c, 0, 63, 83
4, 1115040, Note_on_c, 0, 69, 83
4, 1115040, Note_on_c, 0, 72, 83
4, 1115040, Note_on_c, 0, 75, 83
4, 1115520, Note_on_c, 0, 75, 0
4, 1115520, Note_on_c, 0, 63, 0
4, 1115520, Note_on_c, 0, 69, 0
4, 1115520, Note_on_c, 0, 72, 0
4, 1115520, Note_on_c, 0, 64, 83
4, 1115520, Note_on_c, 0, 70, 83
4, 1115520, Note_on_c, 0, 73, 83
4, 1115520, Note_on_c, 0, 76, 83
4, 1115760, Note_on_c, 0, 76, 0
4, 1115760, Note_on_c, 0, 64, 0
4, 1115760, Note_on_c, 0, 70, 0
4, 1115760, Note_on_c, 0, 73, 0
4, 1115760, Note_on_c, 0, 63, 83
4, 1115760, Note_on_c, 0, 69, 83
4, 1115760, Note_on_c, 0, 72, 83
4, 1115760, Note_on_c, 0, 75, 83
4, 1116000, Note_on_c, 0, 75, 0
4, 1116000, Note_on_c, 0, 63, 0
4, 1116000, Note_on_c, 0, 69, 0
4, 1116000, Note_on_c, 0, 72, 0
4, 1116000, Note_on_c, 0, 64, 83
4, 1116000, Note_on_c, 0, 70, 83
4, 1116000, Note_on_c, 0, 73, 83
4, 1116000, Note_on_c, 0, 76, 83
4, 1116480, Note_on_c, 0, 76, 0
4, 1116480, Note_on_c, 0, 64, 0
4, 1116480, Note_on_c, 0, 70, 0
4, 1116480, Note_on_c, 0, 73, 0
4, 1116480, Note_on_c, 0, 65, 83
4, 1116480, Note_on_c, 0, 71, 83
4, 1116480, Note_on_c, 0, 74, 83
4, 1116480, Note_on_c, 0, 77, 83
4, 1116720, Note_on_c, 0, 77, 0
4, 1116720, Note_on_c, 0, 65, 0
4, 1116720, Note_on_c, 0, 71, 0
4, 1116720, Note_on_c, 0, 74, 0
4, 1116720, Note_on_c, 0, 64, 83
4, 1116720, Note_on_c, 0, 70, 83
4, 1116720, Note_on_c, 0, 73, 83
4, 1116720, Note_on_c, 0, 76, 83
4, 1116960, Note_on_c, 0, 76, 0
4, 1116960, Note_on_c, 0, 64, 0
4, 1116960, Note_on_c, 0, 70, 0
4, 1116960, Note_on_c, 0, 73, 0
4, 1116960, Note_on_c, 0, 65, 83
4, 1116960, Note_on_c, 0, 71, 83
4, 1116960, Note_on_c, 0, 74, 83
4, 1116960, Note_on_c, 0, 77, 83
4, 1117440, Note_on_c, 0, 77, 0
4, 1117440, Note_on_c, 0, 65, 0
4, 1117440, Note_on_c, 0, 71, 0
4, 1117440, Note_on_c, 0, 74, 0
4, 1117440, Note_on_c, 0, 66, 83
4, 1117440, Note_on_c, 0, 72, 83
4, 1117440, Note_on_c, 0, 75, 83
4, 1117440, Note_on_c, 0, 78, 83
4, 1117680, Note_on_c, 0, 78, 0
4, 1117680, Note_on_c, 0, 66, 0
4, 1117680, Note_on_c, 0, 72, 0
4, 1117680, Note_on_c, 0, 75, 0
4, 1117680, Note_on_c, 0, 65, 83
4, 1117680, Note_on_c, 0, 71, 83
4, 1117680, Note_on_c, 0, 74, 83
4, 1117680, Note_on_c, 0, 77, 83
4, 1117920, Note_on_c, 0, 77, 0
4, 1117920, Note_on_c, 0, 65, 0
4, 1117920, Note_on_c, 0, 71, 0
4, 1117920, Note_on_c, 0, 74, 0
4, 1117920, Note_on_c, 0, 66, 83
4, 1117920, Note_on_c, 0, 72, 83
4, 1117920, Note_on_c, 0, 75, 83
4, 1117920, Note_on_c, 0, 78, 83
4, 1118400, Note_on_c, 0, 78, 0
4, 1118400, Note_on_c, 0, 66, 0
4, 1118400, Note_on_c, 0, 72, 0
4, 1118400, Note_on_c, 0, 75, 0
4, 1118400, Note_on_c, 0, 67, 83
4, 1118400, Note_on_c, 0, 73, 83
4, 1118400, Note_on_c, 0, 76, 83
4, 1118400, Note_on_c, 0, 79, 83
4, 1118640, Note_on_c, 0, 79, 0
4, 1118640, Note_on_c, 0, 67, 0
4, 1118640, Note_on_c, 0, 73, 0
4, 1118640, Note_on_c, 0, 76, 0
4, 1118640, Note_on_c, 0, 66, 83
4, 1118640, Note_on_c, 0, 72, 83
4, 1118640, Note_on_c, 0, 75, 83
4, 1118640, Note_on_c, 0, 78, 83
4, 1118880, Note_on_c, 0, 78, 0
4, 1118880, Note_on_c, 0, 66, 0
4, 1118880, Note_on_c, 0, 72, 0
4, 1118880, Note_on_c, 0, 75, 0
4, 1118880, Note_on_c, 0, 67, 83
4, 1118880, Note_on_c, 0, 73, 83
4, 1118880, Note_on_c, 0, 76, 83
4, 1118880, Note_on_c, 0, 79, 83
4, 1119840, Note_on_c, 0, 79, 0
4, 1119840, Note_on_c, 0, 67, 0
4, 1119840, Note_on_c, 0, 73, 0
4, 1119840, Note_on_c, 0, 76, 0
4, 1119840, Note_on_c, 0, 67, 83
4, 1119840, Note_on_c, 0, 73, 83
4, 1119840, Note_on_c, 0, 76, 83
4, 1119840, Note_on_c, 0, 79, 83
4, 1120320, Note_on_c, 0, 79, 0
4, 1120320, Note_on_c, 0, 67, 0
4, 1120320, Note_on_c, 0, 73, 0
4, 1120320, Note_on_c, 0, 76, 0
4, 1120320, Note_on_c, 0, 70, 83
4, 1120320, Note_on_c, 0, 73, 83
4, 1120320, Note_on_c, 0, 79, 83
4, 1120320, Note_on_c, 0, 82, 83
4, 1120560, Note_on_c, 0, 82, 0
4, 1120560, Note_on_c, 0, 70, 0
4, 1120560, Note_on_c, 0, 73, 0
4, 1120560, Note_on_c, 0, 79, 0
4, 1120560, Note_on_c, 0, 69, 83
4, 1120560, Note_on_c, 0, 72, 83
4, 1120560, Note_on_c, 0, 78, 83
4, 1120560, Note_on_c, 0, 81, 83
4, 1120800, Note_on_c, 0, 81, 0
4, 1120800, Note_on_c, 0, 69, 0
4, 1120800, Note_on_c, 0, 72, 0
4, 1120800, Note_on_c, 0, 78, 0
4, 1120800, Note_on_c, 0, 70, 83
4, 1120800, Note_on_c, 0, 73, 83
4, 1120800, Note_on_c, 0, 79, 83
4, 1120800, Note_on_c, 0, 82, 83
4, 1121760, Note_on_c, 0, 82, 0
4, 1121760, Note_on_c, 0, 70, 0
4, 1121760, Note_on_c, 0, 73, 0
4, 1121760, Note_on_c, 0, 79, 0
4, 1121760, Note_on_c, 0, 73, 83
4, 1121760, Note_on_c, 0, 79, 83
4, 1121760, Note_on_c, 0, 82, 83
4, 1121760, Note_on_c, 0, 85, 83
4, 1122240, Note_on_c, 0, 85, 0
4, 1122240, Note_on_c, 0, 73, 0
4, 1122240, Note_on_c, 0, 79, 0
4, 1122240, Note_on_c, 0, 82, 0
4, 1122240, Note_on_c, 0, 74, 83
4, 1122240, Note_on_c, 0, 79, 83
4, 1122240, Note_on_c, 0, 82, 83
4, 1122240, Note_on_c, 0, 86, 83
4, 1122720, Note_on_c, 0, 86, 0
4, 1122720, Note_on_c, 0, 74, 0
4, 1122720, Note_on_c, 0, 79, 0
4, 1122720, Note_on_c, 0, 82, 0
4, 1124160, Note_on_c, 0, 70, 83
4, 1124160, Note_on_c, 0, 74, 83
4, 1124160, Note_on_c, 0, 79, 83
4, 1124160, Note_on_c, 0, 82, 83
4, 1124640, Note_on_c, 0, 82, 0
4, 1124640, Note_on_c, 0, 70, 0
4, 1124640, Note_on_c, 0, 74, 0
4, 1124640, Note_on_c, 0, 79, 0
4, 1126080, Note_on_c, 0, 67, 83
4, 1126080, Note_on_c, 0, 70, 83
4, 1126080, Note_on_c, 0, 74, 83
4, 1126080, Note_on_c, 0, 79, 83
4, 1126560, Note_on_c, 0, 79, 0
4, 1126560, Note_on_c, 0, 67, 0
4, 1126560, Note_on_c, 0, 70, 0
4, 1126560, Note_on_c, 0, 74, 0
4, 1128000, Note_on_c, 0, 62, 83
4, 1128000, Note_on_c, 0, 67, 83
4, 1128000, Note_on_c, 0, 70, 83
4, 1128000, Note_on_c, 0, 74, 83
4, 1128480, Note_on_c, 0, 74, 0
4, 1128480, Note_on_c, 0, 62, 0
4, 1128480, Note_on_c, 0, 67, 0
4, 1128480, Note_on_c, 0, 70, 0
4, 1129920, Note_on_c, 0, 58, 83
4, 1129920, Note_on_c, 0, 62, 83
4, 1129920, Note_on_c, 0, 67, 83
4, 1129920, Note_on_c, 0, 70, 83
4, 1130400, Note_on_c, 0, 70, 0
4, 1130400, Note_on_c, 0, 58, 0
4, 1130400, Note_on_c, 0, 62, 0
4, 1130400, Note_on_c, 0, 67, 0
4, 1141680, Note_on_c, 0, 67, 83
4, 1141680, Note_on_c, 0, 70, 83
4, 1141680, Note_on_c, 0, 74, 83
4, 1141727, Note_on_c, 0, 74, 0
4, 1141727, Note_on_c, 0, 70, 0
4, 1141727, Note_on_c, 0, 67, 0
4, 1141920, Note_on_c, 0, 62, 83
4, 1141920, Note_on_c, 0, 67, 83
4, 1141920, Note_on_c, 0, 70, 83
4, 1141967, Note_on_c, 0, 70, 0
4, 1141967, Note_on_c, 0, 67, 0
4, 1141967, Note_on_c, 0, 62, 0
4, 1142160, Note_on_c, 0, 58, 83
4, 1142160, Note_on_c, 0, 62, 83
4, 1142160, Note_on_c, 0, 67, 83
4, 1142207, Note_on_c, 0, 67, 0
4, 1142207, Note_on_c, 0, 62, 0
4, 1142207, Note_on_c, 0, 58, 0
4, 1142400, Note_on_c, 0, 57, 83
4, 1142400, Note_on_c, 0, 60, 83
4, 1142400, Note_on_c, 0, 66, 83
4, 1142447, Note_on_c, 0, 66, 0
4, 1142447, Note_on_c, 0, 60, 0
4, 1142447, Note_on_c, 0, 57, 0
4, 1142640, Note_on_c, 0, 60, 83
4, 1142640, Note_on_c, 0, 66, 83
4, 1142640, Note_on_c, 0, 69, 83
4, 1142687, Note_on_c, 0, 69, 0
4, 1142687, Note_on_c, 0, 66, 0
4, 1142687, Note_on_c, 0, 60, 0
4, 1142880, Note_on_c, 0, 66, 83
4, 1142880, Note_on_c, 0, 69, 83
4, 1142880, Note_on_c, 0, 72, 83
4, 1142927, Note_on_c, 0, 72, 0
4, 1142927, Note_on_c, 0, 69, 0
4, 1142927, Note_on_c, 0, 66, 0
4, 1143120, Note_on_c, 0, 69, 83
4, 1143120, Note_on_c, 0, 72, 83
4, 1143120, Note_on_c, 0, 78, 83
4, 1143167, Note_on_c, 0, 78, 0
4, 1143167, Note_on_c, 0, 72, 0
4, 1143167, Note_on_c, 0, 69, 0
4, 1143360, Note_on_c, 0, 72, 83
4, 1143360, Note_on_c, 0, 78, 83
4, 1143360, Note_on_c, 0, 81, 83
4, 1143407, Note_on_c, 0, 81, 0
4, 1143407, Note_on_c, 0, 78, 0
4, 1143407, Note_on_c, 0, 72, 0
4, 1153920, Control_c, 0, 64, 127
4, 1153920, Note_on_c, 0, 71, 109
4, 1153920, Note_on_c, 0, 74, 109
4, 1153920, Note_on_c, 0, 79, 109
4, 1154040, Note_on_c, 0, 79, 0
4, 1154040, Note_on_c, 0, 74, 0
4, 1154040, Note_on_c, 0, 71, 0
4, 1154040, Note_on_c, 0, 67, 109
4, 1154160, Note_on_c, 0, 67, 0
4, 1154160, Note_on_c, 0, 71, 83
4, 1154160, Note_on_c, 0, 74, 83
4, 1154160, Note_on_c, 0, 79, 83
4, 1154280, Note_on_c, 0, 79, 0
4, 1154280, Note_on_c, 0, 74, 0
4, 1154280, Note_on_c, 0, 71, 0
4, 1154280, Note_on_c, 0, 67, 83
4, 1154400, Note_on_c, 0, 67, 0
4, 1154400, Note_on_c, 0, 71, 83
4, 1154400, Note_on_c, 0, 74, 83
4, 1154400, Note_on_c, 0, 79, 83
4, 1154520, Note_on_c, 0, 79, 0
4, 1154520, Note_on_c, 0, 74, 0
4, 1154520, Note_on_c, 0, 71, 0
4, 1154520, Note_on_c, 0, 67, 83
4, 1154640, Note_on_c, 0, 67, 0
4, 1154640, Note_on_c, 0, 71, 83
4, 1154640, Note_on_c, 0, 74, 83
4, 1154640, Note_on_c, 0, 79, 83
4, 1154760, Note_on_c, 0, 79, 0
4, 1154760, Note_on_c, 0, 74, 0
4, 1154760, Note_on_c, 0, 71, 0
4, 1154760, Note_on_c, 0, 67, 83
4, 1154880, Note_on_c, 0, 67, 0
4, 1154880, Note_on_c, 0, 71, 83
4, 1154880, Note_on_c, 0, 74, 83
4, 1154880, Note_on_c, 0, 79, 83
4, 1155000, Note_on_c, 0, 79, 0
4, 1155000, Note_on_c, 0, 74, 0
4, 1155000, Note_on_c, 0, 71, 0
4, 1155000, Note_on_c, 0, 67, 83
4, 1155120, Note_on_c, 0, 67, 0
4, 1155120, Note_on_c, 0, 71, 83
4, 1155120, Note_on_c, 0, 74, 83
4, 1155120, Note_on_c, 0, 79, 83
4, 1155240, Note_on_c, 0, 79, 0
4, 1155240, Note_on_c, 0, 74, 0
4, 1155240, Note_on_c, 0, 71, 0
4, 1155240, Note_on_c, 0, 67, 83
4, 1155360, Note_on_c, 0, 67, 0
4, 1155360, Note_on_c, 0, 71, 83
4, 1155360, Note_on_c, 0, 74, 83
4, 1155360, Note_on_c, 0, 79, 83
4, 1155480, Note_on_c, 0, 79, 0
4, 1155480, Note_on_c, 0, 74, 0
4, 1155480, Note_on_c, 0, 71, 0
4, 1155480, Note_on_c, 0, 67, 83
4, 1155600, Note_on_c, 0, 67, 0
4, 1155600, Note_on_c, 0, 71, 83
4, 1155600, Note_on_c, 0, 74, 83
4, 1155600, Note_on_c, 0, 79, 83
4, 1155720, Note_on_c, 0, 79, 0
4, 1155720, Note_on_c, 0, 74, 0
4, 1155720, Note_on_c, 0, 71, 0
4, 1155720, Note_on_c, 0, 67, 83
4, 1155840, Note_on_c, 0, 67, 0
4, 1155840, Control_c, 0, 64, 0
4, 1155840, Note_on_c, 0, 71, 83
4, 1155840, Note_on_c, 0, 74, 83
4, 1155840, Note_on_c, 0, 79, 83
4, 1156320, Note_on_c, 0, 79, 0
4, 1156320, Note_on_c, 0, 74, 0
4, 1156320, Note_on_c, 0, 71, 0
4, 1157760, Control_c, 0, 64, 127
4, 1157760, Note_on_c, 0, 74, 122
4, 1157760, Note_on_c, 0, 79, 122
4, 1157760, Note_on_c, 0, 83, 122
4, 1157880, Note_on_c, 0, 83, 0
4, 1157880, Note_on_c, 0, 79, 0
4, 1157880, Note_on_c, 0, 74, 0
4, 1157880, Note_on_c, 0, 71, 109
4, 1158000, Note_on_c, 0, 71, 0
4, 1158000, Note_on_c, 0, 74, 83
4, 1158000, Note_on_c, 0, 79, 83
4, 1158000, Note_on_c, 0, 83, 83
4, 1158120, Note_on_c, 0, 83, 0
4, 1158120, Note_on_c, 0, 79, 0
4, 1158120, Note_on_c, 0, 74, 0
4, 1158120, Note_on_c, 0, 71, 83
4, 1158240, Note_on_c, 0, 71, 0
4, 1158240, Note_on_c, 0, 74, 83
4, 1158240, Note_on_c, 0, 79, 83
4, 1158240, Note_on_c, 0, 83, 83
4, 1158360, Note_on_c, 0, 83, 0
4, 1158360, Note_on_c, 0, 79, 0
4, 1158360, Note_on_c, 0, 74, 0
4, 1158360, Note_on_c, 0, 71, 83
4, 1158480, Note_on_c, 0, 71, 0
4, 1158480, Note_on_c, 0, 74, 83
4, 1158480, Note_on_c, 0, 79, 83
4, 1158480, Note_on_c, 0, 83, 83
4, 1158600, Note_on_c, 0, 83, 0
4, 1158600, Note_on_c, 0, 79, 0
4, 1158600, Note_on_c, 0, 74, 0
4, 1158600, Note_on_c, 0, 71, 83
4, 1158720, Note_on_c, 0, 71, 0
4, 1158720, Note_on_c, 0, 74, 83
4, 1158720, Note_on_c, 0, 79, 83
4, 1158720, Note_on_c, 0, 83, 83
4, 1158840, Note_on_c, 0, 83, 0
4, 1158840, Note_on_c, 0, 79, 0
4, 1158840, Note_on_c, 0, 74, 0
4, 1158840, Note_on_c, 0, 71, 83
4, 1158960, Note_on_c, 0, 71, 0
4, 1158960, Note_on_c, 0, 74, 83
4, 1158960, Note_on_c, 0, 79, 83
4, 1158960, Note_on_c, 0, 83, 83
4, 1159080, Note_on_c, 0, 83, 0
4, 1159080, Note_on_c, 0, 79, 0
4, 1159080, Note_on_c, 0, 74, 0
4, 1159080, Note_on_c, 0, 71, 83
4, 1159200, Note_on_c, 0, 71, 0
4, 1159200, Note_on_c, 0, 74, 83
4, 1159200, Note_on_c, 0, 79, 83
4, 1159200, Note_on_c, 0, 83, 83
4, 1159320, Note_on_c, 0, 83, 0
4, 1159320, Note_on_c, 0, 79, 0
4, 1159320, Note_on_c, 0, 74, 0
4, 1159320, Note_on_c, 0, 71, 83
4, 1159440, Note_on_c, 0, 71, 0
4, 1159440, Note_on_c, 0, 74, 83
4, 1159440, Note_on_c, 0, 79, 83
4, 1159440, Note_on_c, 0, 83, 83
4, 1159560, Note_on_c, 0, 83, 0
4, 1159560, Note_on_c, 0, 79, 0
4, 1159560, Note_on_c, 0, 74, 0
4, 1159560, Note_on_c, 0, 71, 83
4, 1159680, Note_on_c, 0, 71, 0
4, 1159680, Control_c, 0, 64, 0
4, 1159680, Note_on_c, 0, 74, 83
4, 1159680, Note_on_c, 0, 79, 83
4, 1159680, Note_on_c, 0, 83, 83
4, 1160160, Note_on_c, 0, 83, 0
4, 1160160, Note_on_c, 0, 79, 0
4, 1160160, Note_on_c, 0, 74, 0
4, 1161120, Note_on_c, 0, 74, 83
4, 1161120, Note_on_c, 0, 79, 83
4, 1161120, Note_on_c, 0, 83, 83
4, 1161120, Note_on_c, 0, 86, 83
4, 1161600, Note_on_c, 0, 86, 0
4, 1161600, Note_on_c, 0, 74, 0
4, 1161600, Note_on_c, 0, 79, 0
4, 1161600, Note_on_c, 0, 83, 0
4, 1161600, Note_on_c, 0, 73, 83
4, 1161600, Note_on_c, 0, 79, 83
4, 1161600, Note_on_c, 0, 82, 83
4, 1161600, Note_on_c, 0, 85, 83
4, 1161840, Note_on_c, 0, 85, 0
4, 1161840, Note_on_c, 0, 73, 0
4, 1161840, Note_on_c, 0, 79, 0
4, 1161840, Note_on_c, 0, 82, 0
4, 1161840, Note_on_c, 0, 72, 83
4, 1161840, Note_on_c, 0, 79, 83
4, 1161840, Note_on_c, 0, 82, 83
4, 1161840, Note_on_c, 0, 84, 83
4, 1162080, Note_on_c, 0, 84, 0
4, 1162080, Note_on_c, 0, 72, 0
4, 1162080, Note_on_c, 0, 79, 0
4, 1162080, Note_on_c, 0, 82, 0
4, 1162080, Note_on_c, 0, 73, 83
4, 1162080, Note_on_c, 0, 79, 83
4, 1162080, Note_on_c, 0, 82, 83
4, 1162080, Note_on_c, 0, 85, 83
4, 1162560, Note_on_c, 0, 85, 0
4, 1162560, Note_on_c, 0, 73, 0
4, 1162560, Note_on_c, 0, 79, 0
4, 1162560, Note_on_c, 0, 82, 0
4, 1162560, Note_on_c, 0, 74, 83
4, 1162560, Note_on_c, 0, 79, 83
4, 1162560, Note_on_c, 0, 83, 83
4, 1162560, Note_on_c, 0, 86, 83
4, 1162800, Note_on_c, 0, 86, 0
4, 1162800, Note_on_c, 0, 74, 0
4, 1162800, Note_on_c, 0, 79, 0
4, 1162800, Note_on_c, 0, 83, 0
4, 1162800, Note_on_c, 0, 73, 83
4, 1162800, Note_on_c, 0, 79, 83
4, 1162800, Note_on_c, 0, 83, 83
4, 1162800, Note_on_c, 0, 85, 83
4, 1163040, Note_on_c, 0, 85, 0
4, 1163040, Note_on_c, 0, 73, 0
4, 1163040, Note_on_c, 0, 79, 0
4, 1163040, Note_on_c, 0, 83, 0
4, 1163040, Note_on_c, 0, 74, 83
4, 1163040, Note_on_c, 0, 79, 83
4, 1163040, Note_on_c, 0, 83, 83
4, 1163040, Note_on_c, 0, 86, 83
4, 1163520, Note_on_c, 0, 86, 0
4, 1163520, Note_on_c, 0, 74, 0
4, 1163520, Note_on_c, 0, 79, 0
4, 1163520, Note_on_c, 0, 83, 0
4, 1163520, Note_on_c, 0, 73, 83
4, 1163520, Note_on_c, 0, 79, 83
4, 1163520, Note_on_c, 0, 82, 83
4, 1163520, Note_on_c, 0, 85, 83
4, 1163760, Note_on_c, 0, 85, 0
4, 1163760, Note_on_c, 0, 73, 0
4, 1163760, Note_on_c, 0, 79, 0
4, 1163760, Note_on_c, 0, 82, 0
4, 1163760, Note_on_c, 0, 72, 83
4, 1163760, Note_on_c, 0, 79, 83
4, 1163760, Note_on_c, 0, 82, 83
4, 1163760, Note_on_c, 0, 84, 83
4, 1164000, Note_on_c, 0, 84, 0
4, 1164000, Note_on_c, 0, 72, 0
4, 1164000, Note_on_c, 0, 79, 0
4, 1164000, Note_on_c, 0, 82, 0
4, 1164000, Note_on_c, 0, 73, 83
4, 1164000, Note_on_c, 0, 79, 83
4, 1164000, Note_on_c, 0, 82, 83
4, 1164000, Note_on_c, 0, 85, 83
4, 1164480, Note_on_c, 0, 85, 0
4, 1164480, Note_on_c, 0, 73, 0
4, 1164480, Note_on_c, 0, 79, 0
4, 1164480, Note_on_c, 0, 82, 0
4, 1164480, Note_on_c, 0, 74, 83
4, 1164480, Note_on_c, 0, 79, 83
4, 1164480, Note_on_c, 0, 83, 83
4, 1164480, Note_on_c, 0, 86, 83
4, 1164720, Note_on_c, 0, 86, 0
4, 1164720, Note_on_c, 0, 74, 0
4, 1164720, Note_on_c, 0, 79, 0
4, 1164720, Note_on_c, 0, 83, 0
4, 1164720, Note_on_c, 0, 73, 83
4, 1164720, Note_on_c, 0, 79, 83
4, 1164720, Note_on_c, 0, 83, 83
4, 1164720, Note_on_c, 0, 85, 83
4, 1164960, Note_on_c, 0, 85, 0
4, 1164960, Note_on_c, 0, 73, 0
4, 1164960, Note_on_c, 0, 79, 0
4, 1164960, Note_on_c, 0, 83, 0
4, 1164960, Note_on_c, 0, 74, 83
4, 1164960, Note_on_c, 0, 79, 83
4, 1164960, Note_on_c, 0, 83, 83
4, 1164960, Note_on_c, 0, 86, 83
4, 1165440, Note_on_c, 0, 86, 0
4, 1165440, Note_on_c, 0, 74, 0
4, 1165440, Note_on_c, 0, 79, 0
4, 1165440, Note_on_c, 0, 83, 0
4, 1165440, Note_on_c, 0, 76, 83
4, 1165440, Note_on_c, 0, 79, 83
4, 1165440, Note_on_c, 0, 84, 83
4, 1165440, Note_on_c, 0, 88, 83
4, 1165920, Note_on_c, 0, 88, 0
4, 1165920, Note_on_c, 0, 76, 0
4, 1165920, Note_on_c, 0, 79, 0
4, 1165920, Note_on_c, 0, 84, 0
4, 1165920, Note_on_c, 0, 74, 83
4, 1165920, Note_on_c, 0, 79, 83
4, 1165920, Note_on_c, 0, 83, 83
4, 1165920, Note_on_c, 0, 86, 83
4, 1166400, Note_on_c, 0, 86, 0
4, 1166400, Note_on_c, 0, 74, 0
4, 1166400, Note_on_c, 0, 79, 0
4, 1166400, Note_on_c, 0, 83, 0
4, 1166880, Note_on_c, 0, 74, 83
4, 1166880, Note_on_c, 0, 79, 83
4, 1166880, Note_on_c, 0, 83, 83
4, 1166880, Note_on_c, 0, 86, 83
4, 1167360, Note_on_c, 0, 86, 0
4, 1167360, Note_on_c, 0, 74, 0
4, 1167360, Note_on_c, 0, 79, 0
4, 1167360, Note_on_c, 0, 83, 0
4, 1167360, Note_on_c, 0, 76, 83
4, 1167360, Note_on_c, 0, 79, 83
4, 1167360, Note_on_c, 0, 84, 83
4, 1167360, Note_on_c, 0, 88, 83
4, 1167840, Note_on_c, 0, 88, 0
4, 1167840, Note_on_c, 0, 76, 0
4, 1167840, Note_on_c, 0, 79, 0
4, 1167840, Note_on_c, 0, 84, 0
4, 1167840, Note_on_c, 0, 74, 83
4, 1167840, Note_on_c, 0, 79, 83
4, 1167840, Note_on_c, 0, 83, 83
4, 1167840, Note_on_c, 0, 86, 83
4, 1168320, Note_on_c, 0, 86, 0
4, 1168320, Note_on_c, 0, 74, 0
4, 1168320, Note_on_c, 0, 79, 0
4, 1168320, Note_on_c, 0, 83, 0
4, 1168560, Note_on_c, 0, 59, 96
4, 1168560, Note_on_c, 0, 62, 96
4, 1168680, Note_on_c, 0, 62, 0
4, 1168680, Note_on_c, 0, 59, 0
4, 1168680, Note_on_c, 0, 55, 96
4, 1168800, Note_on_c, 0, 55, 0
4, 1168800, Note_on_c, 0, 62, 96
4, 1168800, Note_on_c, 0, 67, 96
4, 1168920, Note_on_c, 0, 67, 0
4, 1168920, Note_on_c, 0, 62, 0
4, 1168920, Note_on_c, 0, 59, 96
4, 1169040, Note_on_c, 0, 59, 0
4, 1169040, Note_on_c, 0, 67, 96
4, 1169040, Note_on_c, 0, 71, 96
4, 1169160, Note_on_c, 0, 71, 0
4, 1169160, Note_on_c, 0, 67, 0
4, 1169160, Note_on_c, 0, 62, 96
4, 1169280, Note_on_c, 0, 62, 0
4, 1169280, Note_on_c, 0, 71, 96
4, 1169280, Note_on_c, 0, 74, 96
4, 1169400, Note_on_c, 0, 74, 0
4, 1169400, Note_on_c, 0, 71, 0
4, 1169400, Note_on_c, 0, 67, 96
4, 1169520, Note_on_c, 0, 67, 0
4, 1169520, Note_on_c, 0, 62, 96
4, 1169520, Note_on_c, 0, 67, 96
4, 1169640, Note_on_c, 0, 67, 0
4, 1169640, Note_on_c, 0, 62, 0
4, 1169640, Note_on_c, 0, 59, 96
4, 1169760, Note_on_c, 0, 59, 0
4, 1169760, Note_on_c, 0, 67, 96
4, 1169760, Note_on_c, 0, 71, 96
4, 1169880, Note_on_c, 0, 71, 0
4, 1169880, Note_on_c, 0, 67, 0
4, 1169880, Note_on_c, 0, 62, 96
4, 1170000, Note_on_c, 0, 62, 0
4, 1170000, Note_on_c, 0, 71, 96
4, 1170000, Note_on_c, 0, 74, 96
4, 1170120, Note_on_c, 0, 74, 0
4, 1170120, Note_on_c, 0, 71, 0
4, 1170120, Note_on_c, 0, 67, 96
4, 1170240, Note_on_c, 0, 67, 0
4, 1170240, Note_on_c, 0, 74, 96
4, 1170240, Note_on_c, 0, 79, 96
4, 1170360, Note_on_c, 0, 79, 0
4, 1170360, Note_on_c, 0, 74, 0
4, 1170360, Note_on_c, 0, 71, 96
4, 1170480, Note_on_c, 0, 71, 0
4, 1170480, Note_on_c, 0, 67, 96
4, 1170480, Note_on_c, 0, 71, 96
4, 1170600, Note_on_c, 0, 71, 0
4, 1170600, Note_on_c, 0, 67, 0
4, 1170600, Note_on_c, 0, 62, 96
4, 1170720, Note_on_c, 0, 62, 0
4, 1170720, Note_on_c, 0, 71, 96
4, 1170720, Note_on_c, 0, 74, 96
4, 1170840, Note_on_c, 0, 74, 0
4, 1170840, Note_on_c, 0, 71, 0
4, 1170840, Note_on_c, 0, 67, 96
4, 1170960, Note_on_c, 0, 67, 0
4, 1170960, Note_on_c, 0, 74, 96
4, 1170960, Note_on_c, 0, 79, 96
4, 1171080, Note_on_c, 0, 79, 0
4, 1171080, Note_on_c, 0, 74, 0
4, 1171080, Note_on_c, 0, 71, 96
4, 1171200, Note_on_c, 0, 71, 0
4, 1171200, Note_on_c, 0, 79, 96
4, 1171200, Note_on_c, 0, 83, 96
4, 1171320, Note_on_c, 0, 83, 0
4, 1171320, Note_on_c, 0, 79, 0
4, 1171320, Note_on_c, 0, 74, 96
4, 1171440, Note_on_c, 0, 74, 0
4, 1171440, Note_on_c, 0, 71, 96
4, 1171440, Note_on_c, 0, 74, 96
4, 1171560, Note_on_c, 0, 74, 0
4, 1171560, Note_on_c, 0, 71, 0
4, 1171560, Note_on_c, 0, 67, 96
4, 1171680, Note_on_c, 0, 67, 0
4, 1171680, Note_on_c, 0, 74, 96
4, 1171680, Note_on_c, 0, 79, 96
4, 1171800, Note_on_c, 0, 79, 0
4, 1171800, Note_on_c, 0, 74, 0
4, 1171800, Note_on_c, 0, 71, 96
4, 1171920, Note_on_c, 0, 71, 0
4, 1171920, Note_on_c, 0, 79, 96
4, 1171920, Note_on_c, 0, 83, 96
4, 1172040, Note_on_c, 0, 83, 0
4, 1172040, Note_on_c, 0, 79, 0
4, 1172040, Note_on_c, 0, 74, 96
4, 1172160, Note_on_c, 0, 74, 0
4, 1172160, Note_on_c, 0, 83, 96
4, 1172160, Note_on_c, 0, 86, 96
4, 1172280, Note_on_c, 0, 86, 0
4, 1172280, Note_on_c, 0, 83, 0
4, 1172280, Note_on_c, 0, 79, 96
4, 1172400, Note_on_c, 0, 79, 0
4, 1172400, Note_on_c, 0, 79, 96
4, 1172400, Note_on_c, 0, 83, 96
4, 1172520, Note_on_c, 0, 83, 0
4, 1172520, Note_on_c, 0, 79, 0
4, 1172520, Note_on_c, 0, 74, 96
4, 1172640, Note_on_c, 0, 74, 0
4, 1172640, Note_on_c, 0, 83, 96
4, 1172640, Note_on_c, 0, 86, 96
4, 1172760, Note_on_c, 0, 86, 0
4, 1172760, Note_on_c, 0, 83, 0
4, 1172760, Note_on_c, 0, 79, 96
4, 1172880, Note_on_c, 0, 79, 0
4, 1172880, Note_on_c, 0, 86, 96
4, 1172880, Note_on_c, 0, 91, 96
4, 1173000, Note_on_c, 0, 91, 0
4, 1173000, Note_on_c, 0, 86, 0
4, 1173000, Note_on_c, 0, 83, 96
4, 1173120, Note_on_c, 0, 83, 0
4, 1173120, Note_on_c, 0, 81, 96
4, 1173120, Note_on_c, 0, 86, 96
4, 1173120, Note_on_c, 0, 90, 96
4, 1173600, Note_on_c, 0, 90, 0
4, 1173600, Note_on_c, 0, 86, 0
4, 1173600, Note_on_c, 0, 81, 0
4, 1173600, Note_on_c, 0, 81, 96
4, 1173600, Note_on_c, 0, 84, 96
4, 1173600, Note_on_c, 0, 90, 96
4, 1173600, Note_on_c, 0, 93, 96
4, 1174080, Note_on_c, 0, 93, 0
4, 1174080, Note_on_c, 0, 81, 0
4, 1174080, Note_on_c, 0, 84, 0
4, 1174080, Note_on_c, 0, 90, 0
4, 1174080, Note_on_c, 0, 81, 96
4, 1174080, Note_on_c, 0, 86, 96
4, 1174080, Note_on_c, 0, 90, 96
4, 1174560, Note_on_c, 0, 90, 0
4, 1174560, Note_on_c, 0, 86, 0
4, 1174560, Note_on_c, 0, 81, 0
4, 1174560, Note_on_c, 0, 81, 96
4, 1174560, Note_on_c, 0, 84, 96
4, 1174560, Note_on_c, 0, 90, 96
4, 1174560, Note_on_c, 0, 93, 96
4, 1175040, Note_on_c, 0, 93, 0
4, 1175040, Note_on_c, 0, 81, 0
4, 1175040, Note_on_c, 0, 84, 0
4, 1175040, Note_on_c, 0, 90, 0
4, 1175040, Note_on_c, 0, 81, 96
4, 1175040, Note_on_c, 0, 86, 96
4, 1175040, Note_on_c, 0, 90, 96
4, 1175199, Note_on_c, 0, 90, 0
4, 1175199, Note_on_c, 0, 86, 0
4, 1175199, Note_on_c, 0, 81, 0
4, 1175199, Note_on_c, 0, 81, 96
4, 1175199, Note_on_c, 0, 86, 96
4, 1175199, Note_on_c, 0, 90, 96
4, 1175360, Note_on_c, 0, 90, 0
4, 1175360, Note_on_c, 0, 86, 0
4, 1175360, Note_on_c, 0, 81, 0
4, 1175360, Note_on_c, 0, 81, 96
4, 1175360, Note_on_c, 0, 86, 96
4, 1175360, Note_on_c, 0, 90, 96
4, 1175520, Note_on_c, 0, 90, 0
4, 1175520, Note_on_c, 0, 86, 0
4, 1175520, Note_on_c, 0, 81, 0
4, 1175520, Note_on_c, 0, 81, 96
4, 1175520, Note_on_c, 0, 86, 96
4, 1175520, Note_on_c, 0, 90, 96
4, 1176000, Note_on_c, 0, 90, 0
4, 1176000, Note_on_c, 0, 86, 0
4, 1176000, Note_on_c, 0, 81, 0
4, 1196640, Note_on_c, 0, 82, 83
4, 1196640, Note_on_c, 0, 87, 83
4, 1196640, Note_on_c, 0, 91, 83
4, 1197120, Note_on_c, 0, 91, 0
4, 1197120, Note_on_c, 0, 87, 0
4, 1197120, Note_on_c, 0, 82, 0
4, 1197120, Note_on_c, 0, 82, 83
4, 1197120, Note_on_c, 0, 86, 83
4, 1197120, Note_on_c, 0, 89, 83
4, 1197600, Note_on_c, 0, 89, 0
4, 1197600, Note_on_c, 0, 86, 0
4, 1197600, Note_on_c, 0, 82, 0
4, 1197600, Note_on_c, 0, 79, 83
4, 1197600, Note_on_c, 0, 84, 83
4, 1197600, Note_on_c, 0, 87, 83
4, 1198080, Note_on_c, 0, 87, 0
4, 1198080, Note_on_c, 0, 84, 0
4, 1198080, Note_on_c, 0, 79, 0
4, 1198080, Note_on_c, 0, 77, 83
4, 1198080, Note_on_c, 0, 83, 83
4, 1198080, Note_on_c, 0, 86, 83
4, 1198560, Note_on_c, 0, 86, 0
4, 1198560, Note_on_c, 0, 83, 0
4, 1198560, Note_on_c, 0, 77, 0
4, 1198560, Note_on_c, 0, 76, 83
4, 1198560, Note_on_c, 0, 81, 83
4, 1198560, Note_on_c, 0, 85, 83
4, 1199040, Note_on_c, 0, 85, 0
4, 1199040, Note_on_c, 0, 81, 0
4, 1199040, Note_on_c, 0, 76, 0
4, 1199040, Note_on_c, 0, 75, 83
4, 1199040, Note_on_c, 0, 81, 83
4, 1199040, Note_on_c, 0, 84, 83
4, 1199520, Note_on_c, 0, 84, 0
4, 1199520, Note_on_c, 0, 81, 0
4, 1199520, Note_on_c, 0, 75, 0
4, 1199520, Note_on_c, 0, 74, 83
4, 1199520, Note_on_c, 0, 79, 83
4, 1199520, Note_on_c, 0, 83, 83
4, 1200000, Note_on_c, 0, 83, 0
4, 1200000, Note_on_c, 0, 79, 0
4, 1200000, Note_on_c, 0, 74, 0
4, 1200000, Note_on_c, 0, 72, 83
4, 1200000, Note_on_c, 0, 78, 83
4, 1200000, Note_on_c, 0, 81, 83
4, 1200480, Note_on_c, 0, 81, 0
4, 1200480, Note_on_c, 0, 78, 0
4, 1200480, Note_on_c, 0, 72, 0
4, 1200480, Note_on_c, 0, 71, 83
4, 1200480, Note_on_c, 0, 76, 83
4, 1200480, Note_on_c, 0, 79, 83
4, 1200960, Note_on_c, 0, 79, 0
4, 1200960, Note_on_c, 0, 76, 0
4, 1200960, Note_on_c, 0, 71, 0
4, 1200960, Note_on_c, 0, 71, 83
4, 1200960, Note_on_c, 0, 74, 83
4, 1200960, Note_on_c, 0, 78, 83
4, 1201440, Note_on_c, 0, 78, 0
4, 1201440, Note_on_c, 0, 74, 0
4, 1201440, Note_on_c, 0, 71, 0
4, 1201440, Note_on_c, 0, 67, 83
4, 1201440, Note_on_c, 0, 72, 83
4, 1201440, Note_on_c, 0, 76, 83
4, 1201920, Note_on_c, 0, 76, 0
4, 1201920, Note_on_c, 0, 72, 0
4, 1201920, Note_on_c, 0, 67, 0
4, 1201920, Note_on_c, 0, 65, 83
4, 1201920, Note_on_c, 0, 71, 83
4, 1201920, Note_on_c, 0, 74, 83
4, 1202400, Note_on_c, 0, 74, 0
4, 1202400, Note_on_c, 0, 71, 0
4, 1202400, Note_on_c, 0, 65, 0
4, 1202400, Note_on_c, 0, 64, 83
4, 1202400, Note_on_c, 0, 69, 83
4, 1202400, Note_on_c, 0, 72, 83
4, 1202880, Note_on_c, 0, 72, 0
4, 1202880, Note_on_c, 0, 69, 0
4, 1202880, Note_on_c, 0, 64, 0
4, 1202880, Note_on_c, 0, 67, 83
4, 1202880, Note_on_c, 0, 71, 83
4, 1203360, Note_on_c, 0, 71, 0
4, 1203360, Note_on_c, 0, 67, 0
4, 1203360, Note_on_c, 0, 62, 83
4, 1203360, Note_on_c, 0, 66, 83
4, 1203360, Note_on_c, 0, 69, 83
4, 1203360, Note_on_c, 0, 74, 83
4, 1203840, Note_on_c, 0, 74, 0
4, 1203840, Note_on_c, 0, 62, 0
4, 1203840, Note_on_c, 0, 66, 0
4, 1203840, Note_on_c, 0, 69, 0
4, 1203840, Note_on_c, 0, 62, 83
4, 1203840, Note_on_c, 0, 67, 83
4, 1203840, Note_on_c, 0, 71, 83
4, 1203840, Note_on_c, 0, 74, 83
4, 1204320, Note_on_c, 0, 74, 0
4, 1204320, Note_on_c, 0, 62, 0
4, 1204320, Note_on_c, 0, 67, 0
4, 1204320, Note_on_c, 0, 71, 0
4, 1204320, Note_on_c, 0, 70, 83
4, 1204320, Note_on_c, 0, 75, 83
4, 1204320, Note_on_c, 0, 79, 83
4, 1204800, Note_on_c, 0, 79, 0
4, 1204800, Note_on_c, 0, 75, 0
4, 1204800, Note_on_c, 0, 70, 0
4, 1204800, Note_on_c, 0, 70, 83
4, 1204800, Note_on_c, 0, 74, 83
4, 1204800, Note_on_c, 0, 77, 83
4, 1205280, Note_on_c, 0, 77, 0
4, 1205280, Note_on_c, 0, 74, 0
4, 1205280, Note_on_c, 0, 70, 0
4, 1205280, Note_on_c, 0, 67, 83
4, 1205280, Note_on_c, 0, 72, 83
4, 1205280, Note_on_c, 0, 75, 83
4, 1205760, Note_on_c, 0, 75, 0
4, 1205760, Note_on_c, 0, 72, 0
4, 1205760, Note_on_c, 0, 67, 0
4, 1205760, Note_on_c, 0, 65, 83
4, 1205760, Note_on_c, 0, 71, 83
4, 1205760, Note_on_c, 0, 74, 83
4, 1206240, Note_on_c, 0, 74, 0
4, 1206240, Note_on_c, 0, 71, 0
4, 1206240, Note_on_c, 0, 65, 0
4, 1206240, Note_on_c, 0, 64, 83
4, 1206240, Note_on_c, 0, 69, 83
4, 1206240, Note_on_c, 0, 73, 83
4, 1206720, Note_on_c, 0, 73, 0
4, 1206720, Note_on_c, 0, 69, 0
4, 1206720, Note_on_c, 0, 64, 0
4, 1206720, Note_on_c, 0, 63, 83
4, 1206720, Note_on_c, 0, 69, 83
4, 1206720, Note_on_c, 0, 72, 83
4, 1207200, Note_on_c, 0, 72, 0
4, 1207200, Note_on_c, 0, 69, 0
4, 1207200, Note_on_c, 0, 63, 0
4, 1207200, Note_on_c, 0, 62, 83
4, 1207200, Note_on_c, 0, 67, 83
4, 1207200, Note_on_c, 0, 71, 83
4, 1207680, Note_on_c, 0, 71, 0
4, 1207680, Note_on_c, 0, 67, 0
4, 1207680, Note_on_c, 0, 62, 0
4, 1207680, Note_on_c, 0, 60, 83
4, 1207680, Note_on_c, 0, 66, 83
4, 1207680, Note_on_c, 0, 69, 83
4, 1208160, Note_on_c, 0, 69, 0
4, 1208160, Note_on_c, 0, 66, 0
4, 1208160, Note_on_c, 0, 60, 0
4, 1208160, Note_on_c, 0, 59, 83
4, 1208160, Note_on_c, 0, 64, 83
4, 1208160, Note_on_c, 0, 67, 83
4, 1208640, Note_on_c, 0, 67, 0
4, 1208640, Note_on_c, 0, 64, 0
4, 1208640, Note_on_c, 0, 59, 0
4, 1208640, Note_on_c, 0, 59, 83
4, 1208640, Note_on_c, 0, 62, 83
4, 1208640, Note_on_c, 0, 66, 83
4, 1209120, Note_on_c, 0, 66, 0
4, 1209120, Note_on_c, 0, 62, 0
4, 1209120, Note_on_c, 0, 59, 0
4, 1209120, Note_on_c, 0, 55, 83
4, 1209120, Note_on_c, 0, 60, 83
4, 1209120, Note_on_c, 0, 64, 83
4, 1209600, Note_on_c, 0, 64, 0
4, 1209600, Note_on_c, 0, 60, 0
4, 1209600, Note_on_c, 0, 55, 0
4, 1209600, Note_on_c, 0, 53, 83
4, 1209600, Note_on_c, 0, 59, 83
4, 1209600, Note_on_c, 0, 62, 83
4, 1210080, Note_on_c, 0, 62, 0
4, 1210080, Note_on_c, 0, 59, 0
4, 1210080, Note_on_c, 0, 53, 0
4, 1210080, Note_on_c, 0, 55, 83
4, 1210080, Note_on_c, 0, 60, 83
4, 1210080, Note_on_c, 0, 64, 83
4, 1210560, Note_on_c, 0, 64, 0
4, 1210560, Note_on_c, 0, 60, 0
4, 1210560, Note_on_c, 0, 55, 0
4, 1210560, Note_on_c, 0, 55, 83
4, 1210560, Note_on_c, 0, 59, 83
4, 1210560, Note_on_c, 0, 62, 83
4, 1211040, Note_on_c, 0, 62, 0
4, 1211040, Note_on_c, 0, 59, 0
4, 1211040, Note_on_c, 0, 55, 0
4, 1211040, Note_on_c, 0, 57, 83
4, 1211040, Note_on_c, 0, 62, 83
4, 1211040, Note_on_c, 0, 66, 83
4, 1211520, Note_on_c, 0, 66, 0
4, 1211520, Note_on_c, 0, 62, 0
4, 1211520, Note_on_c, 0, 57, 0
4, 1211520, Note_on_c, 0, 59, 83
4, 1211520, Note_on_c, 0, 62, 83
4, 1211520, Note_on_c, 0, 67, 83
4, 1212000, Note_on_c, 0, 67, 0
4, 1212000, Note_on_c, 0, 62, 0
4, 1212000, Note_on_c, 0, 59, 0
4, 1212000, Note_on_c, 0, 57, 83
4, 1212000, Note_on_c, 0, 62, 83
4, 1212000, Note_on_c, 0, 66, 83
4, 1212480, Note_on_c, 0, 66, 0
4, 1212480, Note_on_c, 0, 62, 0
4, 1212480, Note_on_c, 0, 57, 0
4, 1212480, Note_on_c, 0, 59, 83
4, 1212480, Note_on_c, 0, 62, 83
4, 1212480, Note_on_c, 0, 67, 83
4, 1212720, Note_on_c, 0, 67, 0
4, 1212720, Note_on_c, 0, 62, 0
4, 1212720, Note_on_c, 0, 59, 0
4, 1212720, Note_on_c, 0, 59, 83
4, 1212720, Note_on_c, 0, 62, 83
4, 1212720, Note_on_c, 0, 67, 83
4, 1212960, Note_on_c, 0, 67, 0
4, 1212960, Note_on_c, 0, 62, 0
4, 1212960, Note_on_c, 0, 59, 0
4, 1212960, Note_on_c, 0, 59, 83
4, 1212960, Note_on_c, 0, 62, 83
4, 1212960, Note_on_c, 0, 67, 83
4, 1213440, Note_on_c, 0, 67, 0
4, 1213440, Note_on_c, 0, 62, 0
4, 1213440, Note_on_c, 0, 59, 0
4, 1213920, Note_on_c, 0, 57, 83
4, 1213920, Note_on_c, 0, 62, 83
4, 1213920, Note_on_c, 0, 66, 83
4, 1213920, Note_on_c, 0, 69, 83
4, 1214400, Note_on_c, 0, 69, 0
4, 1214400, Note_on_c, 0, 57, 0
4, 1214400, Note_on_c, 0, 62, 0
4, 1214400, Note_on_c, 0, 66, 0
4, 1214400, Note_on_c, 0, 59, 83
4, 1214400, Note_on_c, 0, 62, 83
4, 1214400, Note_on_c, 0, 67, 83
4, 1214400, Note_on_c, 0, 71, 83
4, 1214640, Note_on_c, 0, 71, 0
4, 1214640, Note_on_c, 0, 59, 0
4, 1214640, Note_on_c, 0, 62, 0
4, 1214640, Note_on_c, 0, 67, 0
4, 1214640, Note_on_c, 0, 59, 83
4, 1214640, Note_on_c, 0, 62, 83
4, 1214640, Note_on_c, 0, 67, 83
4, 1214640, Note_on_c, 0, 71, 83
4, 1214880, Note_on_c, 0, 71, 0
4, 1214880, Note_on_c, 0, 59, 0
4, 1214880, Note_on_c, 0, 62, 0
4, 1214880, Note_on_c, 0, 67, 0
4, 1214880, Note_on_c, 0, 59, 83
4, 1214880, Note_on_c, 0, 62, 83
4, 1214880, Note_on_c, 0, 67, 83
4, 1214880, Note_on_c, 0, 71, 83
4, 1215360, Note_on_c, 0, 71, 0
4, 1215360, Note_on_c, 0, 59, 0
4, 1215360, Note_on_c, 0, 62, 0
4, 1215360, Note_on_c, 0, 67, 0
4, 1215840, Note_on_c, 0, 62, 83
4, 1215840, Note_on_c, 0, 66, 83
4, 1215840, Note_on_c, 0, 69, 83
4, 1215840, Note_on_c, 0, 74, 83
4, 1216320, Note_on_c, 0, 74, 0
4, 1216320, Note_on_c, 0, 62, 0
4, 1216320, Note_on_c, 0, 66, 0
4, 1216320, Note_on_c, 0, 69, 0
4, 1216320, Note_on_c, 0, 62, 83
4, 1216320, Note_on_c, 0, 67, 83
4, 1216320, Note_on_c, 0, 71, 83
4, 1216320, Note_on_c, 0, 74, 83
4, 1216560, Note_on_c, 0, 74, 0
4, 1216560, Note_on_c, 0, 62, 0
4, 1216560, Note_on_c, 0, 67, 0
4, 1216560, Note_on_c, 0, 71, 0
4, 1216560, Note_on_c, 0, 62, 83
4, 1216560, Note_on_c, 0, 67, 83
4, 1216560, Note_on_c, 0, 71, 83
4, 1216560, Note_on_c, 0, 74, 83
4, 1216800, Note_on_c, 0, 74, 0
4, 1216800, Note_on_c, 0, 62, 0
4, 1216800, Note_on_c, 0, 67, 0
4, 1216800, Note_on_c, 0, 71, 0
4, 1216800, Note_on_c, 0, 62, 83
4, 1216800, Note_on_c, 0, 67, 83
4, 1216800, Note_on_c, 0, 71, 83
4, 1216800, Note_on_c, 0, 74, 83
4, 1217280, Note_on_c, 0, 74, 0
4, 1217280, Note_on_c, 0, 62, 0
4, 1217280, Note_on_c, 0, 67, 0
4, 1217280, Note_on_c, 0, 71, 0
4, 1217760, Note_on_c, 0, 66, 83
4, 1217760, Note_on_c, 0, 69, 83
4, 1217760, Note_on_c, 0, 74, 83
4, 1217760, Note_on_c, 0, 78, 83
4, 1218240, Note_on_c, 0, 78, 0
4, 1218240, Note_on_c, 0, 66, 0
4, 1218240, Note_on_c, 0, 69, 0
4, 1218240, Note_on_c, 0, 74, 0
4, 1218240, Note_on_c, 0, 67, 83
4, 1218240, Note_on_c, 0, 71, 83
4, 1218240, Note_on_c, 0, 74, 83
4, 1218240, Note_on_c, 0, 79, 83
4, 1218480, Note_on_c, 0, 79, 0
4, 1218480, Note_on_c, 0, 67, 0
4, 1218480, Note_on_c, 0, 71, 0
4, 1218480, Note_on_c, 0, 74, 0
4, 1218480, Note_on_c, 0, 67, 83
4, 1218480, Note_on_c, 0, 71, 83
4, 1218480, Note_on_c, 0, 74, 83
4, 1218480, Note_on_c, 0, 79, 83
4, 1218720, Note_on_c, 0, 79, 0
4, 1218720, Note_on_c, 0, 67, 0
4, 1218720, Note_on_c, 0, 71, 0
4, 1218720, Note_on_c, 0, 74, 0
4, 1218720, Note_on_c, 0, 67, 83
4, 1218720, Note_on_c, 0, 71, 83
4, 1218720, Note_on_c, 0, 74, 83
4, 1218720, Note_on_c, 0, 79, 83
4, 1219200, Note_on_c, 0, 79, 0
4, 1219200, Note_on_c, 0, 67, 0
4, 1219200, Note_on_c, 0, 71, 0
4, 1219200, Note_on_c, 0, 74, 0
4, 1219680, Note_on_c, 0, 69, 96
4, 1219680, Note_on_c, 0, 74, 96
4, 1219680, Note_on_c, 0, 78, 96
4, 1219680, Note_on_c, 0, 81, 96
4, 1220160, Note_on_c, 0, 81, 0
4, 1220160, Note_on_c, 0, 69, 0
4, 1220160, Note_on_c, 0, 74, 0
4, 1220160, Note_on_c, 0, 78, 0
4, 1220160, Note_on_c, 0, 71, 96
4, 1220160, Note_on_c, 0, 74, 96
4, 1220160, Note_on_c, 0, 79, 96
4, 1220160, Note_on_c, 0, 83, 96
4, 1220640, Note_on_c, 0, 83, 0
4, 1220640, Note_on_c, 0, 71, 0
4, 1220640, Note_on_c, 0, 74, 0
4, 1220640, Note_on_c, 0, 79, 0
4, 1220640, Note_on_c, 0, 69, 96
4, 1220640, Note_on_c, 0, 74, 96
4, 1220640, Note_on_c, 0, 78, 96
4, 1220640, Note_on_c, 0, 81, 96
4, 1221120, Note_on_c, 0, 81, 0
4, 1221120, Note_on_c, 0, 69, 0
4, 1221120, Note_on_c, 0, 74, 0
4, 1221120, Note_on_c, 0, 78, 0
4, 1221120, Note_on_c, 0, 71, 96
4, 1221120, Note_on_c, 0, 74, 96
4, 1221120, Note_on_c, 0, 79, 96
4, 1221120, Note_on_c, 0, 83, 96
4, 1221600, Note_on_c, 0, 83, 0
4, 1221600, Note_on_c, 0, 71, 0
4, 1221600, Note_on_c, 0, 74, 0
4, 1221600, Note_on_c, 0, 79, 0
4, 1221600, Note_on_c, 0, 74, 96
4, 1221600, Note_on_c, 0, 78, 96
4, 1221600, Note_on_c, 0, 81, 96
4, 1221600, Note_on_c, 0, 86, 96
4, 1222080, Note_on_c, 0, 86, 0
4, 1222080, Note_on_c, 0, 74, 0
4, 1222080, Note_on_c, 0, 78, 0
4, 1222080, Note_on_c, 0, 81, 0
4, 1222080, Note_on_c, 0, 74, 96
4, 1222080, Note_on_c, 0, 79, 96
4, 1222080, Note_on_c, 0, 83, 96
4, 1222080, Note_on_c, 0, 86, 96
4, 1222560, Note_on_c, 0, 86, 0
4, 1222560, Note_on_c, 0, 74, 0
4, 1222560, Note_on_c, 0, 79, 0
4, 1222560, Note_on_c, 0, 83, 0
4, 1222560, Note_on_c, 0, 74, 96
4, 1222560, Note_on_c, 0, 78, 96
4, 1222560, Note_on_c, 0, 81, 96
4, 1222560, Note_on_c, 0, 86, 96
4, 1223040, Note_on_c, 0, 86, 0
4, 1223040, Note_on_c, 0, 74, 0
4, 1223040, Note_on_c, 0, 78, 0
4, 1223040, Note_on_c, 0, 81, 0
4, 1223040, Note_on_c, 0, 74, 96
4, 1223040, Note_on_c, 0, 79, 96
4, 1223040, Note_on_c, 0, 83, 96
4, 1223040, Note_on_c, 0, 86, 96
4, 1223520, Note_on_c, 0, 86, 0
4, 1223520, Note_on_c, 0, 74, 0
4, 1223520, Note_on_c, 0, 79, 0
4, 1223520, Note_on_c, 0, 83, 0
4, 1223520, Note_on_c, 0, 78, 96
4, 1223520, Note_on_c, 0, 81, 96
4, 1223520, Note_on_c, 0, 86, 96
4, 1223520, Note_on_c, 0, 90, 96
4, 1224000, Note_on_c, 0, 90, 0
4, 1224000, Note_on_c, 0, 78, 0
4, 1224000, Note_on_c, 0, 81, 0
4, 1224000, Note_on_c, 0, 86, 0
4, 1224000, Note_on_c, 0, 79, 96
4, 1224000, Note_on_c, 0, 83, 96
4, 1224000, Note_on_c, 0, 86, 96
4, 1224000, Note_on_c, 0, 91, 96
4, 1224480, Note_on_c, 0, 91, 0
4, 1224480, Note_on_c, 0, 79, 0
4, 1224480, Note_on_c, 0, 83, 0
4, 1224480, Note_on_c, 0, 86, 0
4, 1224960, Note_on_c, 0, 79, 96
4, 1224960, Note_on_c, 0, 83, 96
4, 1224960, Note_on_c, 0, 86, 96
4, 1224960, Note_on_c, 0, 91, 96
4, 1225440, Note_on_c, 0, 91, 0
4, 1225440, Note_on_c, 0, 79, 0
4, 1225440, Note_on_c, 0, 83, 0
4, 1225440, Note_on_c, 0, 86, 0
4, 1225920, Note_on_c, 0, 79, 96
4, 1225920, Note_on_c, 0, 83, 96
4, 1225920, Note_on_c, 0, 86, 96
4, 1225920, Note_on_c, 0, 91, 96
4, 1226400, Note_on_c, 0, 91, 0
4, 1226400, Note_on_c, 0, 79, 0
4, 1226400, Note_on_c, 0, 83, 0
4, 1226400, Note_on_c, 0, 86, 0
4, 1226880, Note_on_c, 0, 79, 96
4, 1226880, Note_on_c, 0, 83, 96
4, 1226880, Note_on_c, 0, 86, 96
4, 1226880, Note_on_c, 0, 91, 96
4, 1227360, Note_on_c, 0, 91, 0
4, 1227360, Note_on_c, 0, 79, 0
4, 1227360, Note_on_c, 0, 83, 0
4, 1227360, Note_on_c, 0, 86, 0
4, 1227840, Note_on_c, 0, 67, 96
4, 1227840, Note_on_c, 0, 72, 96
4, 1227840, Note_on_c, 0, 75, 96
4, 1227840, Note_on_c, 0, 79, 96
4, 1228320, Note_on_c, 0, 79, 0
4, 1228320, Note_on_c, 0, 67, 0
4, 1228320, Note_on_c, 0, 72, 0
4, 1228320, Note_on_c, 0, 75, 0
4, 1229280, Note_on_c, 0, 69, 96
4, 1229280, Note_on_c, 0, 75, 96
4, 1229280, Note_on_c, 0, 79, 96
4, 1229280, Note_on_c, 0, 81, 96
4, 1229760, Note_on_c, 0, 81, 0
4, 1229760, Note_on_c, 0, 69, 0
4, 1229760, Note_on_c, 0, 75, 0
4, 1229760, Note_on_c, 0, 79, 0
4, 1229760, Note_on_c, 0, 71, 96
4, 1229760, Note_on_c, 0, 74, 96
4, 1229760, Note_on_c, 0, 79, 96
4, 1229760, Note_on_c, 0, 83, 96
4, 1230240, Note_on_c, 0, 83, 0
4, 1230240, Note_on_c, 0, 71, 0
4, 1230240, Note_on_c, 0, 74, 0
4, 1230240, Note_on_c, 0, 79, 0
4, 1230240, Note_on_c, 0, 74, 96
4, 1230240, Note_on_c, 0, 78, 96
4, 1230240, Note_on_c, 0, 81, 96
4, 1230240, Note_on_c, 0, 86, 96
4, 1230720, Note_on_c, 0, 86, 0
4, 1230720, Note_on_c, 0, 74, 0
4, 1230720, Note_on_c, 0, 78, 0
4, 1230720, Note_on_c, 0, 81, 0
4, 1230720, Note_on_c, 0, 67, 96
4, 1230720, Note_on_c, 0, 71, 96
4, 1230720, Note_on_c, 0, 74, 96
4, 1230720, Note_on_c, 0, 79, 96
4, 1231200, Note_on_c, 0, 79, 0
4, 1231200, Note_on_c, 0, 67, 0
4, 1231200, Note_on_c, 0, 71, 0
4, 1231200, Note_on_c, 0, 74, 0
4, 1231200, End_track
5, 0, Start_track
5, 0, Title_t, "Grand Piano"
5, 0, Program_c, 0, 0
5, 0, Control_c, 0, 7, 115
5, 0, Control_c, 0, 10, 48
5, 480, Note_on_c, 0, 43, 70
5, 480, Note_on_c, 0, 47, 70
5, 480, Note_on_c, 0, 50, 70
5, 480, Note_on_c, 0, 55, 70
5, 960, Note_on_c, 0, 55, 0
5, 960, Note_on_c, 0, 43, 0
5, 960, Note_on_c, 0, 47, 0
5, 960, Note_on_c, 0, 50, 0
5, 960, Note_on_c, 0, 45, 70
5, 960, Note_on_c, 0, 48, 70
5, 960, Note_on_c, 0, 50, 70
5, 960, Note_on_c, 0, 57, 70
5, 1200, Note_on_c, 0, 57, 0
5, 1200, Note_on_c, 0, 45, 0
5, 1200, Note_on_c, 0, 48, 0
5, 1200, Note_on_c, 0, 50, 0
5, 1200, Note_on_c, 0, 47, 70
5, 1200, Note_on_c, 0, 50, 70
5, 1200, Note_on_c, 0, 59, 70
5, 1440, Note_on_c, 0, 59, 0
5, 1440, Note_on_c, 0, 50, 0
5, 1440, Note_on_c, 0, 47, 0
5, 1440, Note_on_c, 0, 45, 70
5, 1440, Note_on_c, 0, 48, 70
5, 1440, Note_on_c, 0, 50, 70
5, 1440, Note_on_c, 0, 57, 70
5, 2400, Note_on_c, 0, 57, 0
5, 2400, Note_on_c, 0, 45, 0
5, 2400, Note_on_c, 0, 48, 0
5, 2400, Note_on_c, 0, 50, 0
5, 2400, Note_on_c, 0, 43, 70
5, 2400, Note_on_c, 0, 47, 70
5, 2400, Note_on_c, 0, 50, 70
5, 2400, Note_on_c, 0, 55, 70
5, 2880, Note_on_c, 0, 55, 0
5, 2880, Note_on_c, 0, 43, 0
5, 2880, Note_on_c, 0, 47, 0
5, 2880, Note_on_c, 0, 50, 0
5, 2880, Note_on_c, 0, 42, 70
5, 2880, Note_on_c, 0, 45, 70
5, 2880, Note_on_c, 0, 50, 70
5, 2880, Note_on_c, 0, 54, 70
5, 3360, Note_on_c, 0, 54, 0
5, 3360, Note_on_c, 0, 42, 0
5, 3360, Note_on_c, 0, 45, 0
5, 3360, Note_on_c, 0, 50, 0
5, 3360, Control_c, 0, 64, 127
5, 3360, Note_on_c, 0, 38, 70
5, 3428, Note_on_c, 0, 38, 0
5, 3428, Note_on_c, 0, 40, 70
5, 3497, Note_on_c, 0, 40, 0
5, 3497, Note_on_c, 0, 42, 70
5, 3565, Note_on_c, 0, 42, 0
5, 3565, Note_on_c, 0, 43, 70
5, 3634, Note_on_c, 0, 43, 0
5, 3634, Note_on_c, 0, 45, 70
5, 3702, Note_on_c, 0, 45, 0
5, 3702, Note_on_c, 0, 47, 70
5, 3771, Note_on_c, 0, 47, 0
5, 3771, Note_on_c, 0, 49, 70
5, 3840, Note_on_c, 0, 49, 0
5, 3840, Note_on_c, 0, 50, 70
5, 4080, Note_on_c, 0, 50, 0
5, 4080, Control_c, 0, 64, 0
5, 4320, Note_on_c, 0, 43, 70
5, 4320, Note_on_c, 0, 47, 70
5, 4320, Note_on_c, 0, 50, 70
5, 4320, Note_on_c, 0, 55, 70
5, 4800, Note_on_c, 0, 55, 0
5, 4800, Note_on_c, 0, 43, 0
5, 4800, Note_on_c, 0, 47, 0
5, 4800, Note_on_c, 0, 50, 0
5, 4800, Note_on_c, 0, 40, 70
5, 4800, Note_on_c, 0, 43, 70
5, 4800, Note_on_c, 0, 48, 70
5, 4800, Note_on_c, 0, 52, 70
5, 5280, Note_on_c, 0, 52, 0
5, 5280, Note_on_c, 0, 40, 0
5, 5280, Note_on_c, 0, 43, 0
5, 5280, Note_on_c, 0, 48, 0
5, 5280, Note_on_c, 0, 43, 70
5, 5280, Note_on_c, 0, 47, 70
5, 5280, Note_on_c, 0, 50, 70
5, 5280, Note_on_c, 0, 55, 70
5, 5760, Note_on_c, 0, 55, 0
5, 5760, Note_on_c, 0, 43, 0
5, 5760, Note_on_c, 0, 47, 0
5, 5760, Note_on_c, 0, 50, 0
5, 5760, Note_on_c, 0, 40, 70
5, 5760, Note_on_c, 0, 43, 70
5, 5760, Note_on_c, 0, 48, 70
5, 5760, Note_on_c, 0, 52, 70
5, 6240, Note_on_c, 0, 52, 0
5, 6240, Note_on_c, 0, 40, 0
5, 6240, Note_on_c, 0, 43, 0
5, 6240, Note_on_c, 0, 48, 0
5, 6240, Note_on_c, 0, 38, 70
5, 6240, Note_on_c, 0, 42, 70
5, 6240, Note_on_c, 0, 45, 70
5, 6240, Note_on_c, 0, 50, 70
5, 6720, Note_on_c, 0, 50, 0
5, 6720, Note_on_c, 0, 38, 0
5, 6720, Note_on_c, 0, 42, 0
5, 6720, Note_on_c, 0, 45, 0
5, 6720, Note_on_c, 0, 43, 70
5, 6720, Note_on_c, 0, 47, 70
5, 6720, Note_on_c, 0, 50, 70
5, 6720, Note_on_c, 0, 55, 70
5, 6960, Note_on_c, 0, 55, 0
5, 6960, Note_on_c, 0, 43, 0
5, 6960, Note_on_c, 0, 47, 0
5, 6960, Note_on_c, 0, 50, 0
5, 6960, Note_on_c, 0, 47, 70
5, 6960, Note_on_c, 0, 50, 70
5, 6960, Note_on_c, 0, 55, 70
5, 6960, Note_on_c, 0, 59, 70
5, 7200, Note_on_c, 0, 59, 0
5, 7200, Note_on_c, 0, 47, 0
5, 7200, Note_on_c, 0, 50, 0
5, 7200, Note_on_c, 0, 55, 0
5, 7200, Note_on_c, 0, 50, 70
5, 7200, Note_on_c, 0, 54, 70
5, 7200, Note_on_c, 0, 57, 70
5, 7200, Note_on_c, 0, 62, 70
5, 7440, Note_on_c, 0, 62, 0
5, 7440, Note_on_c, 0, 50, 0
5, 7440, Note_on_c, 0, 54, 0
5, 7440, Note_on_c, 0, 57, 0
5, 7440, Control_c, 0, 64, 127
5, 7440, Note_on_c, 0, 45, 70
5, 7500, Note_on_c, 0, 45, 0
5, 7500, Note_on_c, 0, 43, 70
5, 7560, Note_on_c, 0, 43, 0
5, 7560, Note_on_c, 0, 42, 70
5, 7620, Note_on_c, 0, 42, 0
5, 7620, Note_on_c, 0, 40, 70
5, 7680, Note_on_c, 0, 40, 0
5, 7680, Note_on_c, 0, 38, 70
5, 7920, Note_on_c, 0, 38, 0
5, 7920, Control_c, 0, 64, 0
5, 8160, Note_on_c, 0, 43, 70
5, 8160, Note_on_c, 0, 47, 70
5, 8160, Note_on_c, 0, 50, 70
5, 8160, Note_on_c, 0, 55, 70
5, 8640, Note_on_c, 0, 55, 0
5, 8640, Note_on_c, 0, 43, 0
5, 8640, Note_on_c, 0, 47, 0
5, 8640, Note_on_c, 0, 50, 0
5, 8640, Note_on_c, 0, 45, 70
5, 8640, Note_on_c, 0, 48, 70
5, 8640, Note_on_c, 0, 50, 70
5, 8640, Note_on_c, 0, 57, 70
5, 8880, Note_on_c, 0, 57, 0
5, 8880, Note_on_c, 0, 45, 0
5, 8880, Note_on_c, 0, 48, 0
5, 8880, Note_on_c, 0, 50, 0
5, 8880, Note_on_c, 0, 47, 70
5, 8880, Note_on_c, 0, 50, 70
5, 8880, Note_on_c, 0, 59, 70
5, 9120, Note_on_c, 0, 59, 0
5, 9120, Note_on_c, 0, 50, 0
5, 9120, Note_on_c, 0, 47, 0
5, 9120, Note_on_c, 0, 45, 70
5, 9120, Note_on_c, 0, 48, 70
5, 9120, Note_on_c, 0, 50, 70
5, 9120, Note_on_c, 0, 57, 70
5, 10080, Note_on_c, 0, 57, 0
5, 10080, Note_on_c, 0, 45, 0
5, 10080, Note_on_c, 0, 48, 0
5, 10080, Note_on_c, 0, 50, 0
5, 10080, Note_on_c, 0, 43, 70
5, 10080, Note_on_c, 0, 47, 70
5, 10080, Note_on_c, 0, 50, 70
5, 10080, Note_on_c, 0, 55, 70
5, 10560, Note_on_c, 0, 55, 0
5, 10560, Note_on_c, 0, 43, 0
5, 10560, Note_on_c, 0, 47, 0
5, 10560, Note_on_c, 0, 50, 0
5, 10560, Note_on_c, 0, 42, 70
5, 10560, Note_on_c, 0, 45, 70
5, 10560, Note_on_c, 0, 48, 70
5, 10560, Note_on_c, 0, 54, 70
5, 11040, Note_on_c, 0, 54, 0
5, 11040, Note_on_c, 0, 42, 0
5, 11040, Note_on_c, 0, 45, 0
5, 11040, Note_on_c, 0, 48, 0
5, 11040, Control_c, 0, 64, 127
5, 11040, Note_on_c, 0, 45, 70
5, 11120, Note_on_c, 0, 45, 0
5, 11120, Note_on_c, 0, 43, 70
5, 11199, Note_on_c, 0, 43, 0
5, 11199, Note_on_c, 0, 42, 70
5, 11280, Note_on_c, 0, 42, 0
5, 11280, Note_on_c, 0, 40, 70
5, 11360, Note_on_c, 0, 40, 0
5, 11360, Note_on_c, 0, 38, 70
5, 11439, Note_on_c, 0, 38, 0
5, 11439, Note_on_c, 0, 36, 70
5, 11520, Note_on_c, 0, 36, 0
5, 11520, Note_on_c, 0, 35, 70
5, 11760, Note_on_c, 0, 35, 0
5, 11760, Control_c, 0, 64, 0
5, 12000, Note_on_c, 0, 35, 70
5, 12000, Note_on_c, 0, 39, 70
5, 12000, Note_on_c, 0, 42, 70
5, 12000, Note_on_c, 0, 47, 70
5, 12390, Note_on_c, 0, 40, 70
5, 12420, Note_on_c, 0, 43, 70
5, 12450, Note_on_c, 0, 47, 70
5, 12480, Note_on_c, 0, 47, 0
5, 12480, Note_on_c, 0, 42, 0
5, 12480, Note_on_c, 0, 35, 0
5, 12480, Note_on_c, 0, 39, 0
5, 12480, Note_on_c, 0, 52, 70
5, 12870, Note_on_c, 0, 45, 70
5, 12900, Note_on_c, 0, 48, 70
5, 12930, Note_on_c, 0, 52, 70
5, 12960, Note_on_c, 0, 52, 0
5, 12960, Note_on_c, 0, 47, 0
5, 12960, Note_on_c, 0, 43, 0
5, 12960, Note_on_c, 0, 40, 0
5, 12960, Note_on_c, 0, 57, 70
5, 13350, Note_on_c, 0, 40, 70
5, 13380, Note_on_c, 0, 43, 70
5, 13410, Note_on_c, 0, 47, 70
5, 13440, Note_on_c, 0, 57, 0
5, 13440, Note_on_c, 0, 52, 0
5, 13440, Note_on_c, 0, 48, 0
5, 13440, Note_on_c, 0, 45, 0
5, 13440, Note_on_c, 0, 52, 70
5, 13830, Note_on_c, 0, 45, 70
5, 13860, Note_on_c, 0, 48, 70
5, 13890, Note_on_c, 0, 52, 70
5, 13920, Note_on_c, 0, 52, 0
5, 13920, Note_on_c, 0, 47, 0
5, 13920, Note_on_c, 0, 43, 0
5, 13920, Note_on_c, 0, 40, 0
5, 13920, Note_on_c, 0, 57, 70
5, 14310, Note_on_c, 0, 40, 70
5, 14340, Note_on_c, 0, 43, 70
5, 14370, Note_on_c, 0, 47, 70
5, 14400, Note_on_c, 0, 57, 0
5, 14400, Note_on_c, 0, 52, 0
5, 14400, Note_on_c, 0, 48, 0
5, 14400, Note_on_c, 0, 45, 0
5, 14400, Note_on_c, 0, 52, 70
5, 14880, Note_on_c, 0, 52, 0
5, 14880, Note_on_c, 0, 43, 0
5, 14880, Note_on_c, 0, 40, 0
5, 14880, Note_on_c, 0, 47, 0
5, 14880, Note_on_c, 0, 52, 70
5, 14880, Note_on_c, 0, 55, 70
5, 14880, Note_on_c, 0, 59, 70
5, 14880, Note_on_c, 0, 64, 70
5, 15360, Note_on_c, 0, 64, 0
5, 15360, Note_on_c, 0, 52, 0
5, 15360, Note_on_c, 0, 55, 0
5, 15360, Note_on_c, 0, 59, 0
5, 18720, Note_on_c, 0, 50, 70
5, 18720, Note_on_c, 0, 54, 70
5, 18720, Note_on_c, 0, 57, 70
5, 18720, Note_on_c, 0, 62, 70
5, 18879, Note_on_c, 0, 62, 0
5, 18879, Note_on_c, 0, 50, 0
5, 18879, Note_on_c, 0, 54, 0
5, 18879, Note_on_c, 0, 57, 0
5, 18879, Note_on_c, 0, 50, 70
5, 18879, Note_on_c, 0, 54, 70
5, 18879, Note_on_c, 0, 57, 70
5, 18879, Note_on_c, 0, 62, 70
5, 19040, Note_on_c, 0, 62, 0
5, 19040, Note_on_c, 0, 50, 0
5, 19040, Note_on_c, 0, 54, 0
5, 19040, Note_on_c, 0, 57, 0
5, 19040, Note_on_c, 0, 50, 70
5, 19040, Note_on_c, 0, 54, 70
5, 19040, Note_on_c, 0, 57, 70
5, 19040, Note_on_c, 0, 62, 70
5, 19200, Note_on_c, 0, 62, 0
5, 19200, Note_on_c, 0, 50, 0
5, 19200, Note_on_c, 0, 54, 0
5, 19200, Note_on_c, 0, 57, 0
5, 19200, Note_on_c, 0, 38, 70
5, 19200, Note_on_c, 0, 50, 70
5, 19680, Note_on_c, 0, 50, 0
5, 19680, Note_on_c, 0, 38, 0
5, 22800, Control_c, 0, 64, 127
5, 22800, Note_on_c, 0, 45, 70
5, 22860, Note_on_c, 0, 45, 0
5, 22860, Note_on_c, 0, 43, 70
5, 22920, Note_on_c, 0, 43, 0
5, 22920, Note_on_c, 0, 42, 70
5, 22980, Note_on_c, 0, 42, 0
5, 22980, Note_on_c, 0, 40, 70
5, 23040, Note_on_c, 0, 40, 0
5, 23040, Control_c, 0, 64, 0
5, 23040, Note_on_c, 0, 38, 70
5, 23520, Note_on_c, 0, 38, 0
5, 26400, Note_on_c, 0, 48, 70
5, 26400, Note_on_c, 0, 60, 70
5, 26559, Note_on_c, 0, 60, 0
5, 26559, Note_on_c, 0, 48, 0
5, 26559, Note_on_c, 0, 48, 70
5, 26559, Note_on_c, 0, 60, 70
5, 26720, Note_on_c, 0, 60, 0
5, 26720, Note_on_c, 0, 48, 0
5, 26720, Note_on_c, 0, 48, 70
5, 26720, Note_on_c, 0, 60, 70
5, 26880, Note_on_c, 0, 60, 0
5, 26880, Note_on_c, 0, 48, 0
5, 26880, Note_on_c, 0, 47, 70
5, 26880, Note_on_c, 0, 51, 70
5, 26880, Note_on_c, 0, 54, 70
5, 26880, Note_on_c, 0, 59, 70
5, 27360, Note_on_c, 0, 59, 0
5, 27360, Note_on_c, 0, 47, 0
5, 27360, Note_on_c, 0, 51, 0
5, 27360, Note_on_c, 0, 54, 0
5, 30240, Note_on_c, 0, 52, 70
5, 30240, Note_on_c, 0, 55, 70
5, 30240, Note_on_c, 0, 59, 70
5, 30240, Note_on_c, 0, 64, 70
5, 30720, Note_on_c, 0, 64, 0
5, 30720, Note_on_c, 0, 52, 0
5, 30720, Note_on_c, 0, 55, 0
5, 30720, Note_on_c, 0, 59, 0
5, 37440, Note_on_c, 0, 52, 70
5, 37440, Note_on_c, 0, 55, 70
5, 37440, Note_on_c, 0, 59, 70
5, 37440, Note_on_c, 0, 64, 70
5, 37920, Note_on_c, 0, 64, 0
5, 37920, Note_on_c, 0, 52, 0
5, 37920, Note_on_c, 0, 55, 0
5, 37920, Note_on_c, 0, 59, 0
5, 37920, Control_c, 0, 64, 127
5, 37920, Note_on_c, 0, 40, 70
5, 37988, Note_on_c, 0, 40, 0
5, 37988, Note_on_c, 0, 42, 70
5, 38057, Note_on_c, 0, 42, 0
5, 38057, Note_on_c, 0, 43, 70
5, 38125, Note_on_c, 0, 43, 0
5, 38125, Note_on_c, 0, 45, 70
5, 38194, Note_on_c, 0, 45, 0
5, 38194, Note_on_c, 0, 47, 70
5, 38262, Note_on_c, 0, 47, 0
5, 38262, Note_on_c, 0, 49, 70
5, 38331, Note_on_c, 0, 49, 0
5, 38331, Note_on_c, 0, 51, 70
5, 38400, Note_on_c, 0, 51, 0
5, 38400, Note_on_c, 0, 52, 70
5, 38640, Note_on_c, 0, 52, 0
5, 38640, Control_c, 0, 64, 0
5, 38880, Note_on_c, 0, 37, 96
5, 38880, Note_on_c, 0, 49, 96
5, 39360, Note_on_c, 0, 49, 0
5, 39360, Note_on_c, 0, 37, 0
5, 39360, Note_on_c, 0, 38, 96
5, 39360, Note_on_c, 0, 50, 96
5, 39840, Note_on_c, 0, 50, 0
5, 39840, Note_on_c, 0, 38, 0
5, 39840, Note_on_c, 0, 43, 96
5, 39840, Note_on_c, 0, 55, 96
5, 40320, Note_on_c, 0, 55, 0
5, 40320, Note_on_c, 0, 43, 0
5, 40320, Note_on_c, 0, 37, 96
5, 40320, Note_on_c, 0, 49, 96
5, 40800, Note_on_c, 0, 49, 0
5, 40800, Note_on_c, 0, 37, 0
5, 40800, Note_on_c, 0, 42, 96
5, 40800, Note_on_c, 0, 54, 96
5, 41280, Note_on_c, 0, 54, 0
5, 41280, Note_on_c, 0, 42, 0
5, 41280, Note_on_c, 0, 35, 96
5, 41280, Note_on_c, 0, 47, 96
5, 41760, Note_on_c, 0, 47, 0
5, 41760, Note_on_c, 0, 35, 0
5, 41760, Note_on_c, 0, 38, 96
5, 41760, Note_on_c, 0, 50, 96
5, 42240, Note_on_c, 0, 50, 0
5, 42240, Note_on_c, 0, 38, 0
5, 42240, Note_on_c, 0, 40, 96
5, 42240, Note_on_c, 0, 52, 96
5, 42720, Note_on_c, 0, 52, 0
5, 42720, Note_on_c, 0, 40, 0
5, 42720, Note_on_c, 0, 43, 96
5, 42720, Note_on_c, 0, 55, 96
5, 43200, Note_on_c, 0, 55, 0
5, 43200, Note_on_c, 0, 43, 0
5, 43200, Note_on_c, 0, 42, 96
5, 43200, Note_on_c, 0, 47, 96
5, 43200, Note_on_c, 0, 50, 96
5, 43200, Note_on_c, 0, 54, 96
5, 43440, Note_on_c, 0, 54, 0
5, 43440, Note_on_c, 0, 42, 0
5, 43440, Note_on_c, 0, 47, 0
5, 43440, Note_on_c, 0, 50, 0
5, 44160, Note_on_c, 0, 42, 96
5, 44160, Note_on_c, 0, 46, 96
5, 44160, Note_on_c, 0, 49, 96
5, 44160, Note_on_c, 0, 54, 96
5, 44400, Note_on_c, 0, 54, 0
5, 44400, Note_on_c, 0, 42, 0
5, 44400, Note_on_c, 0, 46, 0
5, 44400, Note_on_c, 0, 49, 0
5, 45120, Note_on_c, 0, 47, 96
5, 45120, Note_on_c, 0, 50, 96
5, 45120, Note_on_c, 0, 54, 96
5, 45120, Note_on_c, 0, 59, 96
5, 45360, Note_on_c, 0, 59, 0
5, 45360, Note_on_c, 0, 47, 0
5, 45360, Note_on_c, 0, 50, 0
5, 45360, Note_on_c, 0, 54, 0
5, 45600, Note_on_c, 0, 47, 96
5, 45600, Note_on_c, 0, 52, 96
5, 45600, Note_on_c, 0, 55, 96
5, 45600, Note_on_c, 0, 59, 96
5, 45840, Note_on_c, 0, 59, 0
5, 45840, Note_on_c, 0, 47, 0
5, 45840, Note_on_c, 0, 52, 0
5, 45840, Note_on_c, 0, 55, 0
5, 46080, Note_on_c, 0, 47, 96
5, 46080, Note_on_c, 0, 50, 96
5, 46080, Note_on_c, 0, 54, 96
5, 46080, Note_on_c, 0, 59, 96
5, 46320, Note_on_c, 0, 59, 0
5, 46320, Note_on_c, 0, 47, 0
5, 46320, Note_on_c, 0, 50, 0
5, 46320, Note_on_c, 0, 54, 0
5, 47040, Note_on_c, 0, 40, 57
5, 47040, Note_on_c, 0, 52, 57
5, 47040, Note_on_c, 0, 55, 57
5, 47040, Note_on_c, 0, 59, 57
5, 47040, Note_on_c, 0, 64, 57
5, 48000, Note_on_c, 0, 64, 0
5, 48000, Note_on_c, 0, 55, 0
5, 48000, Note_on_c, 0, 40, 0
5, 48000, Note_on_c, 0, 52, 0
5, 48000, Note_on_c, 0, 59, 0
5, 48000, Note_on_c, 0, 52, 57
5, 48000, Note_on_c, 0, 54, 57
5, 48000, Note_on_c, 0, 60, 57
5, 48000, Note_on_c, 0, 64, 57
5, 48960, Note_on_c, 0, 64, 0
5, 48960, Note_on_c, 0, 52, 0
5, 48960, Note_on_c, 0, 54, 0
5, 48960, Note_on_c, 0, 60, 0
5, 48960, Note_on_c, 0, 52, 57
5, 48960, Note_on_c, 0, 55, 57
5, 48960, Note_on_c, 0, 59, 57
5, 48960, Note_on_c, 0, 64, 57
5, 50400, Note_on_c, 0, 64, 0
5, 50400, Note_on_c, 0, 52, 0
5, 50400, Note_on_c, 0, 55, 0
5, 50400, Note_on_c, 0, 59, 0
5, 50880, Note_on_c, 0, 40, 57
5, 50880, Note_on_c, 0, 52, 57
5, 50880, Note_on_c, 0, 55, 57
5, 50880, Note_on_c, 0, 59, 57
5, 50880, Note_on_c, 0, 64, 57
5, 51840, Note_on_c, 0, 64, 0
5, 51840, Note_on_c, 0, 55, 0
5, 51840, Note_on_c, 0, 40, 0
5, 51840, Note_on_c, 0, 52, 0
5, 51840, Note_on_c, 0, 59, 0
5, 51840, Note_on_c, 0, 52, 57
5, 51840, Note_on_c, 0, 54, 57
5, 51840, Note_on_c, 0, 60, 57
5, 51840, Note_on_c, 0, 64, 57
5, 52800, Note_on_c, 0, 64, 0
5, 52800, Note_on_c, 0, 52, 0
5, 52800, Note_on_c, 0, 54, 0
5, 52800, Note_on_c, 0, 60, 0
5, 52800, Note_on_c, 0, 52, 57
5, 52800, Note_on_c, 0, 55, 57
5, 52800, Note_on_c, 0, 59, 57
5, 52800, Note_on_c, 0, 64, 57
5, 54240, Note_on_c, 0, 64, 0
5, 54240, Note_on_c, 0, 52, 0
5, 54240, Note_on_c, 0, 55, 0
5, 54240, Note_on_c, 0, 59, 0
5, 54240, Note_on_c, 0, 37, 57
5, 54240, Note_on_c, 0, 49, 57
5, 54240, Note_on_c, 0, 79, 57
5, 54240, Note_on_c, 0, 83, 57
5, 54480, Note_on_c, 0, 83, 0
5, 54480, Note_on_c, 0, 37, 0
5, 54480, Note_on_c, 0, 49, 0
5, 54480, Note_on_c, 0, 79, 0
5, 54720, Note_on_c, 0, 38, 57
5, 54720, Note_on_c, 0, 50, 57
5, 54720, Note_on_c, 0, 78, 57
5, 54720, Note_on_c, 0, 83, 57
5, 54960, Note_on_c, 0, 83, 0
5, 54960, Note_on_c, 0, 38, 0
5, 54960, Note_on_c, 0, 50, 0
5, 54960, Note_on_c, 0, 78, 0
5, 55200, Note_on_c, 0, 43, 57
5, 55200, Note_on_c, 0, 55, 57
5, 55200, Note_on_c, 0, 74, 57
5, 55200, Note_on_c, 0, 79, 57
5, 55440, Note_on_c, 0, 79, 0
5, 55440, Note_on_c, 0, 43, 0
5, 55440, Note_on_c, 0, 55, 0
5, 55440, Note_on_c, 0, 74, 0
5, 55680, Note_on_c, 0, 37, 57
5, 55680, Note_on_c, 0, 49, 57
5, 55680, Note_on_c, 0, 76, 57
5, 55680, Note_on_c, 0, 79, 57
5, 55920, Note_on_c, 0, 79, 0
5, 55920, Note_on_c, 0, 37, 0
5, 55920, Note_on_c, 0, 49, 0
5, 55920, Note_on_c, 0, 76, 0
5, 56160, Note_on_c, 0, 42, 57
5, 56160, Note_on_c, 0, 54, 57
5, 56160, Note_on_c, 0, 73, 57
5, 56160, Note_on_c, 0, 78, 57
5, 56160, Note_on_c, 0, 82, 57
5, 56400, Note_on_c, 0, 82, 0
5, 56400, Note_on_c, 0, 73, 0
5, 56400, Note_on_c, 0, 42, 0
5, 56400, Note_on_c, 0, 54, 0
5, 56400, Note_on_c, 0, 78, 0
5, 56640, Note_on_c, 0, 35, 57
5, 56640, Note_on_c, 0, 47, 57
5, 56640, Note_on_c, 0, 74, 57
5, 56640, Note_on_c, 0, 78, 57
5, 56640, Note_on_c, 0, 83, 57
5, 56880, Note_on_c, 0, 83, 0
5, 56880, Note_on_c, 0, 74, 0
5, 56880, Note_on_c, 0, 35, 0
5, 56880, Note_on_c, 0, 47, 0
5, 56880, Note_on_c, 0, 78, 0
5, 57120, Note_on_c, 0, 38, 57
5, 57120, Note_on_c, 0, 50, 57
5, 57120, Note_on_c, 0, 71, 57
5, 57120, Note_on_c, 0, 78, 57
5, 57360, Note_on_c, 0, 78, 0
5, 57360, Note_on_c, 0, 38, 0
5, 57360, Note_on_c, 0, 50, 0
5, 57360, Note_on_c, 0, 71, 0
5, 57600, Note_on_c, 0, 40, 57
5, 57600, Note_on_c, 0, 52, 57
5, 57600, Note_on_c, 0, 71, 57
5, 57600, Note_on_c, 0, 76, 57
5, 57840, Note_on_c, 0, 76, 0
5, 57840, Note_on_c, 0, 40, 0
5, 57840, Note_on_c, 0, 52, 0
5, 57840, Note_on_c, 0, 71, 0
5, 58080, Note_on_c, 0, 43, 57
5, 58080, Note_on_c, 0, 55, 57
5, 58080, Note_on_c, 0, 64, 57
5, 58080, Note_on_c, 0, 71, 57
5, 58080, Note_on_c, 0, 73, 57
5, 58320, Note_on_c, 0, 73, 0
5, 58320, Note_on_c, 0, 64, 0
5, 58320, Note_on_c, 0, 43, 0
5, 58320, Note_on_c, 0, 55, 0
5, 58320, Note_on_c, 0, 71, 0
5, 58560, Note_on_c, 0, 42, 57
5, 58560, Note_on_c, 0, 54, 57
5, 58560, Note_on_c, 0, 66, 57
5, 58560, Note_on_c, 0, 71, 57
5, 58800, Note_on_c, 0, 71, 0
5, 58800, Note_on_c, 0, 42, 0
5, 58800, Note_on_c, 0, 54, 0
5, 58800, Note_on_c, 0, 66, 0
5, 59040, Note_on_c, 0, 43, 57
5, 59040, Note_on_c, 0, 55, 57
5, 59040, Note_on_c, 0, 59, 57
5, 59040, Note_on_c, 0, 62, 57
5, 59280, Note_on_c, 0, 62, 0
5, 59280, Note_on_c, 0, 43, 0
5, 59280, Note_on_c, 0, 55, 0
5, 59280, Note_on_c, 0, 59, 0
5, 59520, Note_on_c, 0, 40, 57
5, 59520, Note_on_c, 0, 52, 57
5, 59520, Note_on_c, 0, 59, 57
5, 59520, Note_on_c, 0, 61, 57
5, 59760, Note_on_c, 0, 61, 0
5, 59760, Note_on_c, 0, 40, 0
5, 59760, Note_on_c, 0, 52, 0
5, 59760, Note_on_c, 0, 59, 0
5, 60000, Note_on_c, 0, 42, 57
5, 60000, Note_on_c, 0, 54, 57
5, 60000, Note_on_c, 0, 58, 57
5, 60000, Note_on_c, 0, 61, 57
5, 60240, Note_on_c, 0, 61, 0
5, 60240, Note_on_c, 0, 42, 0
5, 60240, Note_on_c, 0, 54, 0
5, 60240, Note_on_c, 0, 58, 0
5, 60480, Note_on_c, 0, 47, 57
5, 60480, Note_on_c, 0, 50, 57
5, 60720, Note_on_c, 0, 50, 0
5, 60720, Note_on_c, 0, 47, 0
5, 61920, Note_on_c, 0, 35, 57
5, 61920, Note_on_c, 0, 47, 57
5, 62400, Note_on_c, 0, 47, 0
5, 62400, Note_on_c, 0, 35, 0
5, 62400, Note_on_c, 0, 36, 57
5, 62400, Note_on_c, 0, 48, 57
5, 62640, Note_on_c, 0, 48, 0
5, 62640, Note_on_c, 0, 36, 0
5, 62640, Note_on_c, 0, 35, 57
5, 62640, Note_on_c, 0, 47, 57
5, 62880, Note_on_c, 0, 47, 0
5, 62880, Note_on_c, 0, 35, 0
5, 62880, Note_on_c, 0, 36, 70
5, 62880, Note_on_c, 0, 48, 70
5, 63840, Note_on_c, 0, 48, 0
5, 63840, Note_on_c, 0, 36, 0
5, 63840, Note_on_c, 0, 40, 96
5, 63840, Note_on_c, 0, 52, 96
5, 64800, Note_on_c, 0, 52, 0
5, 64800, Note_on_c, 0, 40, 0
5, 64800, Note_on_c, 0, 39, 57
5, 64800, Note_on_c, 0, 51, 57
5, 65040, Note_on_c, 0, 51, 0
5, 65040, Note_on_c, 0, 39, 0
5, 65040, Note_on_c, 0, 38, 57
5, 65040, Note_on_c, 0, 50, 57
5, 65280, Note_on_c, 0, 50, 0
5, 65280, Note_on_c, 0, 38, 0
5, 65280, Note_on_c, 0, 39, 57
5, 65280, Note_on_c, 0, 51, 57
5, 65760, Note_on_c, 0, 51, 0
5, 65760, Note_on_c, 0, 39, 0
5, 69600, Note_on_c, 0, 35, 57
5, 69600, Note_on_c, 0, 47, 57
5, 70080, Note_on_c, 0, 47, 0
5, 70080, Note_on_c, 0, 35, 0
5, 70080, Note_on_c, 0, 36, 57
5, 70080, Note_on_c, 0, 48, 57
5, 70320, Note_on_c, 0, 48, 0
5, 70320, Note_on_c, 0, 36, 0
5, 70320, Note_on_c, 0, 35, 57
5, 70320, Note_on_c, 0, 47, 57
5, 70560, Note_on_c, 0, 47, 0
5, 70560, Note_on_c, 0, 35, 0
5, 70560, Note_on_c, 0, 36, 70
5, 70560, Note_on_c, 0, 48, 70
5, 71520, Note_on_c, 0, 48, 0
5, 71520, Note_on_c, 0, 36, 0
5, 71520, Note_on_c, 0, 40, 96
5, 71520, Note_on_c, 0, 52, 96
5, 72480, Note_on_c, 0, 52, 0
5, 72480, Note_on_c, 0, 40, 0
5, 72480, Note_on_c, 0, 39, 57
5, 72480, Note_on_c, 0, 51, 57
5, 72720, Note_on_c, 0, 51, 0
5, 72720, Note_on_c, 0, 39, 0
5, 72720, Note_on_c, 0, 38, 57
5, 72720, Note_on_c, 0, 50, 57
5, 72960, Note_on_c, 0, 50, 0
5, 72960, Note_on_c, 0, 38, 0
5, 72960, Note_on_c, 0, 39, 57
5, 72960, Note_on_c, 0, 51, 57
5, 73440, Note_on_c, 0, 51, 0
5, 73440, Note_on_c, 0, 39, 0
5, 77280, Note_on_c, 0, 38, 70
5, 77280, Note_on_c, 0, 50, 70
5, 77760, Note_on_c, 0, 50, 0
5, 77760, Note_on_c, 0, 38, 0
5, 77760, Note_on_c, 0, 39, 70
5, 77760, Note_on_c, 0, 51, 70
5, 78000, Note_on_c, 0, 51, 0
5, 78000, Note_on_c, 0, 39, 0
5, 78000, Note_on_c, 0, 38, 70
5, 78000, Note_on_c, 0, 50, 70
5, 78240, Note_on_c, 0, 50, 0
5, 78240, Note_on_c, 0, 38, 0
5, 78240, Note_on_c, 0, 39, 83
5, 78240, Note_on_c, 0, 51, 83
5, 79200, Note_on_c, 0, 51, 0
5, 79200, Note_on_c, 0, 39, 0
5, 79200, Note_on_c, 0, 43, 109
5, 79200, Note_on_c, 0, 55, 109
5, 80160, Note_on_c, 0, 55, 0
5, 80160, Note_on_c, 0, 43, 0
5, 80160, Note_on_c, 0, 42, 70
5, 80160, Note_on_c, 0, 54, 70
5, 80400, Note_on_c, 0, 54, 0
5, 80400, Note_on_c, 0, 42, 0
5, 80400, Note_on_c, 0, 41, 70
5, 80400, Note_on_c, 0, 53, 70
5, 80640, Note_on_c, 0, 53, 0
5, 80640, Note_on_c, 0, 41, 0
5, 80640, Note_on_c, 0, 42, 70
5, 80640, Note_on_c, 0, 54, 70
5, 81120, Note_on_c, 0, 54, 0
5, 81120, Note_on_c, 0, 42, 0
5, 84960, Note_on_c, 0, 38, 70
5, 84960, Note_on_c, 0, 50, 70
5, 85440, Note_on_c, 0, 50, 0
5, 85440, Note_on_c, 0, 38, 0
5, 85440, Note_on_c, 0, 39, 70
5, 85440, Note_on_c, 0, 51, 70
5, 85680, Note_on_c, 0, 51, 0
5, 85680, Note_on_c, 0, 39, 0
5, 85680, Note_on_c, 0, 38, 70
5, 85680, Note_on_c, 0, 50, 70
5, 85920, Note_on_c, 0, 50, 0
5, 85920, Note_on_c, 0, 38, 0
5, 85920, Note_on_c, 0, 39, 83
5, 85920, Note_on_c, 0, 51, 83
5, 86880, Note_on_c, 0, 51, 0
5, 86880, Note_on_c, 0, 39, 0
5, 86880, Note_on_c, 0, 43, 109
5, 86880, Note_on_c, 0, 55, 109
5, 87840, Note_on_c, 0, 55, 0
5, 87840, Note_on_c, 0, 43, 0
5, 87840, Note_on_c, 0, 42, 70
5, 87840, Note_on_c, 0, 54, 70
5, 88080, Note_on_c, 0, 54, 0
5, 88080, Note_on_c, 0, 42, 0
5, 88080, Note_on_c, 0, 41, 70
5, 88080, Note_on_c, 0, 53, 70
5, 88320, Note_on_c, 0, 53, 0
5, 88320, Note_on_c, 0, 41, 0
5, 88320, Note_on_c, 0, 42, 70
5, 88320, Note_on_c, 0, 54, 70
5, 88800, Note_on_c, 0, 54, 0
5, 88800, Note_on_c, 0, 42, 0
5, 149760, Control_c, 0, 64, 127
5, 149760, Note_on_c, 0, 39, 70
5, 149880, Note_on_c, 0, 39, 0
5, 149880, Note_on_c, 0, 51, 70
5, 150000, Note_on_c, 0, 51, 0
5, 150000, Note_on_c, 0, 39, 70
5, 150120, Note_on_c, 0, 39, 0
5, 150120, Note_on_c, 0, 51, 70
5, 150240, Note_on_c, 0, 51, 0
5, 150240, Note_on_c, 0, 39, 70
5, 150360, Note_on_c, 0, 39, 0
5, 150360, Note_on_c, 0, 51, 70
5, 150480, Note_on_c, 0, 51, 0
5, 150480, Note_on_c, 0, 39, 70
5, 150600, Note_on_c, 0, 39, 0
5, 150600, Note_on_c, 0, 51, 70
5, 150720, Note_on_c, 0, 51, 0
5, 150720, Note_on_c, 0, 39, 57
5, 150840, Note_on_c, 0, 39, 0
5, 150840, Note_on_c, 0, 51, 57
5, 150960, Note_on_c, 0, 51, 0
5, 150960, Note_on_c, 0, 39, 57
5, 151080, Note_on_c, 0, 39, 0
5, 151080, Note_on_c, 0, 51, 57
5, 151200, Note_on_c, 0, 51, 0
5, 151200, Note_on_c, 0, 39, 57
5, 151320, Note_on_c, 0, 39, 0
5, 151320, Note_on_c, 0, 51, 57
5, 151440, Note_on_c, 0, 51, 0
5, 151440, Note_on_c, 0, 39, 57
5, 151560, Note_on_c, 0, 39, 0
5, 151560, Note_on_c, 0, 51, 57
5, 151680, Note_on_c, 0, 51, 0
5, 151680, Note_on_c, 0, 39, 44
5, 151800, Note_on_c, 0, 39, 0
5, 151800, Note_on_c, 0, 51, 44
5, 151920, Note_on_c, 0, 51, 0
5, 151920, Note_on_c, 0, 39, 44
5, 152040, Note_on_c, 0, 39, 0
5, 152040, Note_on_c, 0, 51, 44
5, 152160, Note_on_c, 0, 51, 0
5, 152160, Note_on_c, 0, 39, 44
5, 152280, Note_on_c, 0, 39, 0
5, 152280, Note_on_c, 0, 51, 44
5, 152400, Note_on_c, 0, 51, 0
5, 152400, Note_on_c, 0, 39, 44
5, 152520, Note_on_c, 0, 39, 0
5, 152520, Note_on_c, 0, 51, 44
5, 152640, Note_on_c, 0, 51, 0
5, 152640, Note_on_c, 0, 39, 44
5, 152760, Note_on_c, 0, 39, 0
5, 152760, Note_on_c, 0, 51, 44
5, 152880, Note_on_c, 0, 51, 0
5, 152880, Note_on_c, 0, 39, 44
5, 153000, Note_on_c, 0, 39, 0
5, 153000, Note_on_c, 0, 51, 44
5, 153120, Note_on_c, 0, 51, 0
5, 153120, Note_on_c, 0, 39, 44
5, 153240, Note_on_c, 0, 39, 0
5, 153240, Note_on_c, 0, 51, 44
5, 153360, Note_on_c, 0, 51, 0
5, 153360, Note_on_c, 0, 39, 44
5, 153480, Note_on_c, 0, 39, 0
5, 153480, Control_c, 0, 64, 0
5, 153480, Note_on_c, 0, 51, 44
5, 153600, Note_on_c, 0, 51, 0
5, 153600, Control_c, 0, 64, 127
5, 153600, Note_on_c, 0, 39, 44
5, 153600, Note_on_c, 0, 51, 44
5, 153840, Note_on_c, 0, 51, 0
5, 153840, Note_on_c, 0, 39, 0
5, 153840, Note_on_c, 0, 51, 44
5, 153840, Note_on_c, 0, 55, 44
5, 153840, Note_on_c, 0, 58, 44
5, 153960, Note_on_c, 0, 58, 0
5, 153960, Note_on_c, 0, 55, 0
5, 153960, Note_on_c, 0, 51, 0
5, 153960, Note_on_c, 0, 63, 44
5, 154080, Note_on_c, 0, 63, 0
5, 154080, Note_on_c, 0, 51, 44
5, 154080, Note_on_c, 0, 55, 44
5, 154080, Note_on_c, 0, 58, 44
5, 154200, Note_on_c, 0, 58, 0
5, 154200, Note_on_c, 0, 55, 0
5, 154200, Note_on_c, 0, 51, 0
5, 154200, Note_on_c, 0, 63, 44
5, 154320, Note_on_c, 0, 63, 0
5, 154320, Note_on_c, 0, 51, 44
5, 154320, Note_on_c, 0, 55, 44
5, 154320, Note_on_c, 0, 58, 44
5, 154440, Note_on_c, 0, 58, 0
5, 154440, Note_on_c, 0, 55, 0
5, 154440, Note_on_c, 0, 51, 0
5, 154440, Note_on_c, 0, 63, 44
5, 154560, Note_on_c, 0, 63, 0
5, 154560, Note_on_c, 0, 51, 44
5, 154560, Note_on_c, 0, 55, 44
5, 154560, Note_on_c, 0, 58, 44
5, 154680, Note_on_c, 0, 58, 0
5, 154680, Note_on_c, 0, 55, 0
5, 154680, Note_on_c, 0, 51, 0
5, 154680, Note_on_c, 0, 63, 44
5, 154800, Note_on_c, 0, 63, 0
5, 154800, Note_on_c, 0, 51, 44
5, 154800, Note_on_c, 0, 55, 44
5, 154800, Note_on_c, 0, 58, 44
5, 154920, Note_on_c, 0, 58, 0
5, 154920, Note_on_c, 0, 55, 0
5, 154920, Note_on_c, 0, 51, 0
5, 154920, Note_on_c, 0, 63, 44
5, 155040, Note_on_c, 0, 63, 0
5, 155040, Note_on_c, 0, 51, 44
5, 155040, Note_on_c, 0, 55, 44
5, 155040, Note_on_c, 0, 58, 44
5, 155160, Note_on_c, 0, 58, 0
5, 155160, Note_on_c, 0, 55, 0
5, 155160, Note_on_c, 0, 51, 0
5, 155160, Note_on_c, 0, 63, 44
5, 155280, Note_on_c, 0, 63, 0
5, 155280, Note_on_c, 0, 51, 44
5, 155280, Note_on_c, 0, 55, 44
5, 155280, Note_on_c, 0, 58, 44
5, 155400, Note_on_c, 0, 58, 0
5, 155400, Note_on_c, 0, 55, 0
5, 155400, Note_on_c, 0, 51, 0
5, 155400, Note_on_c, 0, 63, 44
5, 155520, Note_on_c, 0, 63, 0
5, 155520, Note_on_c, 0, 51, 44
5, 155520, Note_on_c, 0, 55, 44
5, 155520, Note_on_c, 0, 58, 44
5, 155640, Note_on_c, 0, 58, 0
5, 155640, Note_on_c, 0, 55, 0
5, 155640, Note_on_c, 0, 51, 0
5, 155640, Note_on_c, 0, 63, 44
5, 155760, Note_on_c, 0, 63, 0
5, 155760, Note_on_c, 0, 51, 44
5, 155760, Note_on_c, 0, 55, 44
5, 155760, Note_on_c, 0, 58, 44
5, 155880, Note_on_c, 0, 58, 0
5, 155880, Note_on_c, 0, 55, 0
5, 155880, Note_on_c, 0, 51, 0
5, 155880, Note_on_c, 0, 63, 44
5, 156000, Note_on_c, 0, 63, 0
5, 156000, Note_on_c, 0, 51, 44
5, 156000, Note_on_c, 0, 55, 44
5, 156000, Note_on_c, 0, 58, 44
5, 156120, Note_on_c, 0, 58, 0
5, 156120, Note_on_c, 0, 55, 0
5, 156120, Note_on_c, 0, 51, 0
5, 156120, Note_on_c, 0, 63, 44
5, 156240, Note_on_c, 0, 63, 0
5, 156240, Note_on_c, 0, 51, 44
5, 156240, Note_on_c, 0, 55, 44
5, 156240, Note_on_c, 0, 58, 44
5, 156360, Note_on_c, 0, 58, 0
5, 156360, Note_on_c, 0, 55, 0
5, 156360, Note_on_c, 0, 51, 0
5, 156360, Note_on_c, 0, 63, 44
5, 156480, Note_on_c, 0, 63, 0
5, 156480, Note_on_c, 0, 51, 44
5, 156480, Note_on_c, 0, 55, 44
5, 156480, Note_on_c, 0, 58, 44
5, 156600, Note_on_c, 0, 58, 0
5, 156600, Note_on_c, 0, 55, 0
5, 156600, Note_on_c, 0, 51, 0
5, 156600, Note_on_c, 0, 63, 44
5, 156720, Note_on_c, 0, 63, 0
5, 156720, Note_on_c, 0, 51, 44
5, 156720, Note_on_c, 0, 55, 44
5, 156720, Note_on_c, 0, 58, 44
5, 156840, Note_on_c, 0, 58, 0
5, 156840, Note_on_c, 0, 55, 0
5, 156840, Note_on_c, 0, 51, 0
5, 156840, Note_on_c, 0, 63, 44
5, 156960, Note_on_c, 0, 63, 0
5, 156960, Note_on_c, 0, 51, 44
5, 156960, Note_on_c, 0, 55, 44
5, 156960, Note_on_c, 0, 58, 44
5, 157080, Note_on_c, 0, 58, 0
5, 157080, Note_on_c, 0, 55, 0
5, 157080, Note_on_c, 0, 51, 0
5, 157080, Note_on_c, 0, 63, 44
5, 157200, Note_on_c, 0, 63, 0
5, 157200, Note_on_c, 0, 51, 44
5, 157200, Note_on_c, 0, 55, 44
5, 157200, Note_on_c, 0, 58, 44
5, 157320, Note_on_c, 0, 58, 0
5, 157320, Note_on_c, 0, 55, 0
5, 157320, Note_on_c, 0, 51, 0
5, 157320, Control_c, 0, 64, 0
5, 157320, Note_on_c, 0, 63, 44
5, 157440, Note_on_c, 0, 63, 0
5, 157440, Control_c, 0, 64, 127
5, 157440, Note_on_c, 0, 39, 44
5, 157440, Note_on_c, 0, 51, 44
5, 157440, Note_on_c, 0, 55, 44
5, 157440, Note_on_c, 0, 58, 44
5, 157560, Note_on_c, 0, 58, 0
5, 157560, Note_on_c, 0, 39, 0
5, 157560, Note_on_c, 0, 51, 0
5, 157560, Note_on_c, 0, 55, 0
5, 157560, Note_on_c, 0, 63, 44
5, 157680, Note_on_c, 0, 63, 0
5, 157680, Note_on_c, 0, 51, 44
5, 157680, Note_on_c, 0, 55, 44
5, 157680, Note_on_c, 0, 58, 44
5, 157800, Note_on_c, 0, 58, 0
5, 157800, Note_on_c, 0, 55, 0
5, 157800, Note_on_c, 0, 51, 0
5, 157800, Note_on_c, 0, 63, 44
5, 157920, Note_on_c, 0, 63, 0
5, 157920, Note_on_c, 0, 51, 44
5, 157920, Note_on_c, 0, 55, 44
5, 157920, Note_on_c, 0, 58, 44
5, 158040, Note_on_c, 0, 58, 0
5, 158040, Note_on_c, 0, 55, 0
5, 158040, Note_on_c, 0, 51, 0
5, 158040, Note_on_c, 0, 63, 44
5, 158160, Note_on_c, 0, 63, 0
5, 158160, Note_on_c, 0, 51, 44
5, 158160, Note_on_c, 0, 55, 44
5, 158160, Note_on_c, 0, 58, 44
5, 158280, Note_on_c, 0, 58, 0
5, 158280, Note_on_c, 0, 55, 0
5, 158280, Note_on_c, 0, 51, 0
5, 158280, Note_on_c, 0, 63, 44
5, 158400, Note_on_c, 0, 63, 0
5, 158400, Note_on_c, 0, 51, 44
5, 158400, Note_on_c, 0, 55, 44
5, 158400, Note_on_c, 0, 58, 44
5, 158520, Note_on_c, 0, 58, 0
5, 158520, Note_on_c, 0, 55, 0
5, 158520, Note_on_c, 0, 51, 0
5, 158520, Note_on_c, 0, 63, 44
5, 158640, Note_on_c, 0, 63, 0
5, 158640, Note_on_c, 0, 51, 44
5, 158640, Note_on_c, 0, 55, 44
5, 158640, Note_on_c, 0, 58, 44
5, 158760, Note_on_c, 0, 58, 0
5, 158760, Note_on_c, 0, 55, 0
5, 158760, Note_on_c, 0, 51, 0
5, 158760, Note_on_c, 0, 63, 44
5, 158880, Note_on_c, 0, 63, 0
5, 158880, Note_on_c, 0, 51, 44
5, 158880, Note_on_c, 0, 55, 44
5, 158880, Note_on_c, 0, 58, 44
5, 159000, Note_on_c, 0, 58, 0
5, 159000, Note_on_c, 0, 55, 0
5, 159000, Note_on_c, 0, 51, 0
5, 159000, Note_on_c, 0, 63, 44
5, 159120, Note_on_c, 0, 63, 0
5, 159120, Note_on_c, 0, 51, 44
5, 159120, Note_on_c, 0, 55, 44
5, 159120, Note_on_c, 0, 58, 44
5, 159240, Note_on_c, 0, 58, 0
5, 159240, Note_on_c, 0, 55, 0
5, 159240, Note_on_c, 0, 51, 0
5, 159240, Note_on_c, 0, 63, 44
5, 159360, Note_on_c, 0, 63, 0
5, 159360, Note_on_c, 0, 51, 44
5, 159360, Note_on_c, 0, 55, 44
5, 159480, Note_on_c, 0, 55, 0
5, 159480, Note_on_c, 0, 51, 0
5, 159480, Note_on_c, 0, 58, 44
5, 159600, Note_on_c, 0, 58, 0
5, 159600, Note_on_c, 0, 51, 44
5, 159600, Note_on_c, 0, 55, 44
5, 159720, Note_on_c, 0, 55, 0
5, 159720, Note_on_c, 0, 51, 0
5, 159720, Note_on_c, 0, 58, 44
5, 159840, Note_on_c, 0, 58, 0
5, 159840, Note_on_c, 0, 51, 44
5, 159840, Note_on_c, 0, 55, 44
5, 159960, Note_on_c, 0, 55, 0
5, 159960, Note_on_c, 0, 51, 0
5, 159960, Note_on_c, 0, 58, 44
5, 160080, Note_on_c, 0, 58, 0
5, 160080, Note_on_c, 0, 51, 44
5, 160080, Note_on_c, 0, 55, 44
5, 160200, Note_on_c, 0, 55, 0
5, 160200, Note_on_c, 0, 51, 0
5, 160200, Note_on_c, 0, 58, 44
5, 160320, Note_on_c, 0, 58, 0
5, 160320, Note_on_c, 0, 51, 44
5, 160440, Note_on_c, 0, 51, 0
5, 160440, Note_on_c, 0, 55, 44
5, 160560, Note_on_c, 0, 55, 0
5, 160560, Note_on_c, 0, 51, 44
5, 160680, Note_on_c, 0, 51, 0
5, 160680, Note_on_c, 0, 55, 44
5, 160800, Note_on_c, 0, 55, 0
5, 160800, Note_on_c, 0, 51, 44
5, 160920, Note_on_c, 0, 51, 0
5, 160920, Note_on_c, 0, 55, 44
5, 161040, Note_on_c, 0, 55, 0
5, 161040, Note_on_c, 0, 51, 44
5, 161160, Note_on_c, 0, 51, 0
5, 161160, Control_c, 0, 64, 0
5, 161160, Note_on_c, 0, 55, 44
5, 161280, Note_on_c, 0, 55, 0
5, 161280, Control_c, 0, 64, 127
5, 161280, Note_on_c, 0, 39, 44
5, 161280, Note_on_c, 0, 51, 44
5, 161280, Note_on_c, 0, 56, 44
5, 161400, Note_on_c, 0, 56, 0
5, 161400, Note_on_c, 0, 51, 0
5, 161400, Note_on_c, 0, 39, 0
5, 161400, Note_on_c, 0, 62, 44
5, 161520, Note_on_c, 0, 62, 0
5, 161520, Note_on_c, 0, 51, 44
5, 161520, Note_on_c, 0, 56, 44
5, 161640, Note_on_c, 0, 56, 0
5, 161640, Note_on_c, 0, 51, 0
5, 161640, Note_on_c, 0, 62, 44
5, 161760, Note_on_c, 0, 62, 0
5, 161760, Note_on_c, 0, 51, 44
5, 161760, Note_on_c, 0, 56, 44
5, 161880, Note_on_c, 0, 56, 0
5, 161880, Note_on_c, 0, 51, 0
5, 161880, Note_on_c, 0, 62, 44
5, 162000, Note_on_c, 0, 62, 0
5, 162000, Note_on_c, 0, 51, 44
5, 162000, Note_on_c, 0, 56, 44
5, 162120, Note_on_c, 0, 56, 0
5, 162120, Note_on_c, 0, 51, 0
5, 162120, Note_on_c, 0, 62, 44
5, 162240, Note_on_c, 0, 62, 0
5, 162240, Note_on_c, 0, 51, 44
5, 162240, Note_on_c, 0, 56, 44
5, 162360, Note_on_c, 0, 56, 0
5, 162360, Note_on_c, 0, 51, 0
5, 162360, Note_on_c, 0, 62, 44
5, 162480, Note_on_c, 0, 62, 0
5, 162480, Note_on_c, 0, 51, 44
5, 162480, Note_on_c, 0, 56, 44
5, 162600, Note_on_c, 0, 56, 0
5, 162600, Note_on_c, 0, 51, 0
5, 162600, Note_on_c, 0, 62, 44
5, 162720, Note_on_c, 0, 62, 0
5, 162720, Note_on_c, 0, 51, 44
5, 162720, Note_on_c, 0, 56, 44
5, 162840, Note_on_c, 0, 56, 0
5, 162840, Note_on_c, 0, 51, 0
5, 162840, Note_on_c, 0, 62, 44
5, 162960, Note_on_c, 0, 62, 0
5, 162960, Note_on_c, 0, 51, 44
5, 162960, Note_on_c, 0, 56, 44
5, 163080, Note_on_c, 0, 56, 0
5, 163080, Note_on_c, 0, 51, 0
5, 163080, Note_on_c, 0, 62, 44
5, 163200, Note_on_c, 0, 62, 0
5, 163200, Note_on_c, 0, 51, 44
5, 163200, Note_on_c, 0, 58, 44
5, 163320, Note_on_c, 0, 58, 0
5, 163320, Note_on_c, 0, 51, 0
5, 163320, Note_on_c, 0, 62, 44
5, 163440, Note_on_c, 0, 62, 0
5, 163440, Note_on_c, 0, 51, 44
5, 163440, Note_on_c, 0, 58, 44
5, 163560, Note_on_c, 0, 58, 0
5, 163560, Note_on_c, 0, 51, 0
5, 163560, Note_on_c, 0, 62, 44
5, 163680, Note_on_c, 0, 62, 0
5, 163680, Note_on_c, 0, 51, 44
5, 163680, Note_on_c, 0, 58, 44
5, 163800, Note_on_c, 0, 58, 0
5, 163800, Note_on_c, 0, 51, 0
5, 163800, Note_on_c, 0, 62, 44
5, 163920, Note_on_c, 0, 62, 0
5, 163920, Note_on_c, 0, 51, 44
5, 163920, Note_on_c, 0, 58, 44
5, 164040, Note_on_c, 0, 58, 0
5, 164040, Note_on_c, 0, 51, 0
5, 164040, Note_on_c, 0, 62, 44
5, 164160, Note_on_c, 0, 62, 0
5, 164160, Note_on_c, 0, 51, 44
5, 164160, Note_on_c, 0, 58, 44
5, 164280, Note_on_c, 0, 58, 0
5, 164280, Note_on_c, 0, 51, 0
5, 164280, Note_on_c, 0, 62, 44
5, 164400, Note_on_c, 0, 62, 0
5, 164400, Note_on_c, 0, 51, 44
5, 164400, Note_on_c, 0, 58, 44
5, 164520, Note_on_c, 0, 58, 0
5, 164520, Note_on_c, 0, 51, 0
5, 164520, Note_on_c, 0, 62, 44
5, 164640, Note_on_c, 0, 62, 0
5, 164640, Note_on_c, 0, 51, 44
5, 164640, Note_on_c, 0, 58, 44
5, 164760, Note_on_c, 0, 58, 0
5, 164760, Note_on_c, 0, 51, 0
5, 164760, Note_on_c, 0, 62, 44
5, 164880, Note_on_c, 0, 62, 0
5, 164880, Note_on_c, 0, 51, 44
5, 164880, Note_on_c, 0, 58, 44
5, 165000, Note_on_c, 0, 58, 0
5, 165000, Note_on_c, 0, 51, 0
5, 165000, Control_c, 0, 64, 0
5, 165000, Note_on_c, 0, 62, 44
5, 165120, Note_on_c, 0, 62, 0
5, 165120, Control_c, 0, 64, 127
5, 165120, Note_on_c, 0, 39, 44
5, 165120, Note_on_c, 0, 51, 44
5, 165120, Note_on_c, 0, 58, 44
5, 165240, Note_on_c, 0, 58, 0
5, 165240, Note_on_c, 0, 51, 0
5, 165240, Note_on_c, 0, 39, 0
5, 165240, Note_on_c, 0, 63, 44
5, 165360, Note_on_c, 0, 63, 0
5, 165360, Note_on_c, 0, 51, 44
5, 165360, Note_on_c, 0, 58, 44
5, 165480, Note_on_c, 0, 58, 0
5, 165480, Note_on_c, 0, 51, 0
5, 165480, Note_on_c, 0, 63, 44
5, 165600, Note_on_c, 0, 63, 0
5, 165600, Note_on_c, 0, 51, 44
5, 165600, Note_on_c, 0, 58, 44
5, 165720, Note_on_c, 0, 58, 0
5, 165720, Note_on_c, 0, 51, 0
5, 165720, Note_on_c, 0, 63, 44
5, 165840, Note_on_c, 0, 63, 0
5, 165840, Note_on_c, 0, 51, 44
5, 165840, Note_on_c, 0, 58, 44
5, 165960, Note_on_c, 0, 58, 0
5, 165960, Note_on_c, 0, 51, 0
5, 165960, Note_on_c, 0, 63, 44
5, 166080, Note_on_c, 0, 63, 0
5, 166080, Note_on_c, 0, 51, 44
5, 166080, Note_on_c, 0, 58, 44
5, 166200, Note_on_c, 0, 58, 0
5, 166200, Note_on_c, 0, 51, 0
5, 166200, Note_on_c, 0, 63, 44
5, 166320, Note_on_c, 0, 63, 0
5, 166320, Note_on_c, 0, 51, 44
5, 166320, Note_on_c, 0, 58, 44
5, 166440, Note_on_c, 0, 58, 0
5, 166440, Note_on_c, 0, 51, 0
5, 166440, Note_on_c, 0, 63, 44
5, 166560, Note_on_c, 0, 63, 0
5, 166560, Note_on_c, 0, 51, 44
5, 166560, Note_on_c, 0, 58, 44
5, 166680, Note_on_c, 0, 58, 0
5, 166680, Note_on_c, 0, 51, 0
5, 166680, Note_on_c, 0, 63, 44
5, 166800, Note_on_c, 0, 63, 0
5, 166800, Note_on_c, 0, 51, 44
5, 166800, Note_on_c, 0, 58, 44
5, 166920, Note_on_c, 0, 58, 0
5, 166920, Note_on_c, 0, 51, 0
5, 166920, Note_on_c, 0, 63, 44
5, 167040, Note_on_c, 0, 63, 0
5, 167040, Note_on_c, 0, 39, 44
5, 167040, Note_on_c, 0, 46, 44
5, 167160, Note_on_c, 0, 46, 0
5, 167160, Note_on_c, 0, 39, 0
5, 167160, Note_on_c, 0, 51, 44
5, 167280, Note_on_c, 0, 51, 0
5, 167280, Note_on_c, 0, 39, 44
5, 167280, Note_on_c, 0, 46, 44
5, 167400, Note_on_c, 0, 46, 0
5, 167400, Note_on_c, 0, 39, 0
5, 167400, Note_on_c, 0, 51, 44
5, 167520, Note_on_c, 0, 51, 0
5, 167520, Note_on_c, 0, 39, 44
5, 167520, Note_on_c, 0, 46, 44
5, 167640, Note_on_c, 0, 46, 0
5, 167640, Note_on_c, 0, 39, 0
5, 167640, Note_on_c, 0, 51, 44
5, 167760, Note_on_c, 0, 51, 0
5, 167760, Note_on_c, 0, 39, 44
5, 167760, Note_on_c, 0, 46, 44
5, 167880, Note_on_c, 0, 46, 0
5, 167880, Note_on_c, 0, 39, 0
5, 167880, Note_on_c, 0, 51, 44
5, 168000, Note_on_c, 0, 51, 0
5, 168000, Note_on_c, 0, 39, 44
5, 168120, Note_on_c, 0, 39, 0
5, 168120, Note_on_c, 0, 46, 44
5, 168240, Note_on_c, 0, 46, 0
5, 168240, Note_on_c, 0, 39, 44
5, 168360, Note_on_c, 0, 39, 0
5, 168360, Note_on_c, 0, 46, 44
5, 168480, Note_on_c, 0, 46, 0
5, 168480, Note_on_c, 0, 39, 44
5, 168600, Note_on_c, 0, 39, 0
5, 168600, Note_on_c, 0, 46, 44
5, 168720, Note_on_c, 0, 46, 0
5, 168720, Note_on_c, 0, 39, 44
5, 168840, Note_on_c, 0, 39, 0
5, 168840, Control_c, 0, 64, 0
5, 168840, Note_on_c, 0, 46, 44
5, 168960, Note_on_c, 0, 46, 0
5, 168960, Note_on_c, 0, 39, 44
5, 169440, Note_on_c, 0, 39, 0
5, 226560, Control_c, 0, 64, 127
5, 226560, Note_on_c, 0, 39, 44
5, 226560, Note_on_c, 0, 46, 44
5, 226560, Note_on_c, 0, 68, 44
5, 228480, Note_on_c, 0, 68, 0
5, 228480, Note_on_c, 0, 39, 0
5, 228960, Note_on_c, 0, 46, 0
5, 228960, Note_on_c, 0, 53, 44
5, 229440, Note_on_c, 0, 53, 0
5, 229440, Note_on_c, 0, 50, 44
5, 229920, Note_on_c, 0, 50, 0
5, 229920, Note_on_c, 0, 48, 44
5, 230160, Note_on_c, 0, 48, 0
5, 230160, Control_c, 0, 64, 0
5, 230160, Note_on_c, 0, 50, 44
5, 230400, Note_on_c, 0, 50, 0
5, 230400, Note_on_c, 0, 39, 44
5, 230400, Note_on_c, 0, 46, 44
5, 231360, Note_on_c, 0, 46, 0
5, 231360, Note_on_c, 0, 39, 0
5, 231360, Control_c, 0, 64, 127
5, 231360, Note_on_c, 0, 43, 57
5, 231600, Note_on_c, 0, 43, 0
5, 231600, Note_on_c, 0, 46, 57
5, 231840, Note_on_c, 0, 46, 0
5, 231840, Note_on_c, 0, 51, 57
5, 232080, Note_on_c, 0, 51, 0
5, 232080, Control_c, 0, 64, 0
5, 232080, Note_on_c, 0, 55, 57
5, 232320, Note_on_c, 0, 55, 0
5, 232320, Control_c, 0, 64, 127
5, 232320, Note_on_c, 0, 39, 83
5, 232320, Note_on_c, 0, 58, 83
5, 233040, Note_on_c, 0, 58, 0
5, 233040, Note_on_c, 0, 39, 0
5, 233040, Note_on_c, 0, 55, 57
5, 233280, Note_on_c, 0, 55, 0
5, 233280, Note_on_c, 0, 54, 57
5, 233520, Note_on_c, 0, 54, 0
5, 233520, Note_on_c, 0, 55, 57
5, 233760, Note_on_c, 0, 55, 0
5, 233760, Control_c, 0, 64, 0
5, 233760, Note_on_c, 0, 51, 57
5, 234240, Note_on_c, 0, 51, 0
5, 234240, Control_c, 0, 64, 127
5, 234240, Note_on_c, 0, 39, 44
5, 234240, Note_on_c, 0, 46, 44
5, 234240, Note_on_c, 0, 68, 44
5, 236160, Note_on_c, 0, 68, 0
5, 236160, Note_on_c, 0, 39, 0
5, 236640, Note_on_c, 0, 46, 0
5, 236640, Note_on_c, 0, 53, 44
5, 237120, Note_on_c, 0, 53, 0
5, 237120, Note_on_c, 0, 50, 44
5, 237600, Note_on_c, 0, 50, 0
5, 237600, Note_on_c, 0, 48, 44
5, 237840, Note_on_c, 0, 48, 0
5, 237840, Control_c, 0, 64, 0
5, 237840, Note_on_c, 0, 50, 44
5, 238080, Note_on_c, 0, 50, 0
5, 238080, Note_on_c, 0, 39, 44
5, 238080, Note_on_c, 0, 46, 44
5, 239040, Note_on_c, 0, 46, 0
5, 239040, Note_on_c, 0, 39, 0
5, 239040, Control_c, 0, 64, 127
5, 239040, Note_on_c, 0, 45, 57
5, 239280, Note_on_c, 0, 45, 0
5, 239280, Note_on_c, 0, 51, 57
5, 239520, Note_on_c, 0, 51, 0
5, 239520, Note_on_c, 0, 54, 57
5, 239760, Note_on_c, 0, 54, 0
5, 239760, Control_c, 0, 64, 0
5, 239760, Note_on_c, 0, 57, 57
5, 240000, Note_on_c, 0, 57, 0
5, 240000, Control_c, 0, 64, 127
5, 240000, Note_on_c, 0, 39, 57
5, 240000, Note_on_c, 0, 58, 57
5, 240480, Note_on_c, 0, 58, 0
5, 240480, Note_on_c, 0, 39, 0
5, 240480, Note_on_c, 0, 60, 57
5, 240720, Note_on_c, 0, 60, 0
5, 240720, Note_on_c, 0, 58, 57
5, 240960, Note_on_c, 0, 58, 0
5, 240960, Note_on_c, 0, 55, 57
5, 241200, Note_on_c, 0, 55, 0
5, 241200, Note_on_c, 0, 51, 57
5, 241440, Note_on_c, 0, 51, 0
5, 241440, Note_on_c, 0, 46, 57
5, 241680, Note_on_c, 0, 46, 0
5, 241680, Control_c, 0, 64, 0
5, 241680, Note_on_c, 0, 43, 57
5, 241920, Note_on_c, 0, 43, 0
5, 241920, Note_on_c, 0, 39, 44
5, 242640, Note_on_c, 0, 39, 0
5, 242640, Note_on_c, 0, 46, 44
5, 242880, Note_on_c, 0, 46, 0
5, 242880, Control_c, 0, 64, 127
5, 242880, Note_on_c, 0, 45, 57
5, 243120, Note_on_c, 0, 45, 0
5, 243120, Note_on_c, 0, 51, 57
5, 243360, Note_on_c, 0, 51, 0
5, 243360, Note_on_c, 0, 54, 57
5, 243600, Note_on_c, 0, 54, 0
5, 243600, Control_c, 0, 64, 0
5, 243600, Note_on_c, 0, 57, 57
5, 243840, Note_on_c, 0, 57, 0
5, 243840, Control_c, 0, 64, 127
5, 243840, Note_on_c, 0, 39, 57
5, 243840, Note_on_c, 0, 58, 57
5, 244320, Note_on_c, 0, 58, 0
5, 244320, Note_on_c, 0, 39, 0
5, 244320, Note_on_c, 0, 60, 57
5, 244560, Note_on_c, 0, 60, 0
5, 244560, Note_on_c, 0, 58, 57
5, 244800, Note_on_c, 0, 58, 0
5, 244800, Note_on_c, 0, 55, 57
5, 245040, Note_on_c, 0, 55, 0
5, 245040, Note_on_c, 0, 51, 57
5, 245280, Note_on_c, 0, 51, 0
5, 245280, Note_on_c, 0, 46, 57
5, 245520, Note_on_c, 0, 46, 0
5, 245520, Control_c, 0, 64, 0
5, 245520, Note_on_c, 0, 43, 57
5, 245760, Note_on_c, 0, 43, 0
5, 245760, Note_on_c, 0, 39, 57
5, 246480, Note_on_c, 0, 39, 0
5, 246480, Note_on_c, 0, 46, 57
5, 246720, Note_on_c, 0, 46, 0
5, 246720, Control_c, 0, 64, 127
5, 246720, Note_on_c, 0, 45, 57
5, 246960, Note_on_c, 0, 45, 0
5, 246960, Note_on_c, 0, 51, 57
5, 247200, Note_on_c, 0, 51, 0
5, 247200, Note_on_c, 0, 54, 57
5, 247440, Note_on_c, 0, 54, 0
5, 247440, Control_c, 0, 64, 0
5, 247440, Note_on_c, 0, 57, 57
5, 247680, Note_on_c, 0, 57, 0
5, 247680, Note_on_c, 0, 39, 70
5, 247680, Note_on_c, 0, 58, 70
5, 248400, Note_on_c, 0, 58, 0
5, 248400, Note_on_c, 0, 39, 0
5, 248400, Note_on_c, 0, 46, 44
5, 248640, Note_on_c, 0, 46, 0
5, 248640, Control_c, 0, 64, 127
5, 248640, Note_on_c, 0, 39, 57
5, 248640, Note_on_c, 0, 45, 57
5, 248880, Note_on_c, 0, 45, 0
5, 248880, Note_on_c, 0, 39, 0
5, 248880, Note_on_c, 0, 51, 57
5, 249120, Note_on_c, 0, 51, 0
5, 249120, Note_on_c, 0, 54, 57
5, 249360, Note_on_c, 0, 54, 0
5, 249360, Control_c, 0, 64, 0
5, 249360, Note_on_c, 0, 57, 57
5, 249600, Note_on_c, 0, 57, 0
5, 249600, Control_c, 0, 64, 127
5, 249600, Note_on_c, 0, 39, 83
5, 249600, Note_on_c, 0, 58, 83
5, 250560, Note_on_c, 0, 58, 0
5, 250560, Note_on_c, 0, 39, 0
5, 250560, Note_on_c, 0, 39, 57
5, 250800, Note_on_c, 0, 39, 0
5, 250800, Note_on_c, 0, 46, 57
5, 251040, Note_on_c, 0, 46, 0
5, 251040, Note_on_c, 0, 51, 57
5, 251280, Note_on_c, 0, 51, 0
5, 251280, Control_c, 0, 64, 0
5, 251280, Note_on_c, 0, 55, 57
5, 251520, Note_on_c, 0, 55, 0
5, 251520, Note_on_c, 0, 38, 83
5, 251520, Note_on_c, 0, 56, 83
5, 252240, Note_on_c, 0, 56, 0
5, 252240, Note_on_c, 0, 38, 0
5, 252240, Note_on_c, 0, 55, 57
5, 252480, Note_on_c, 0, 55, 0
5, 252480, Control_c, 0, 64, 127
5, 252480, Note_on_c, 0, 41, 57
5, 252720, Note_on_c, 0, 41, 0
5, 252720, Note_on_c, 0, 47, 57
5, 252960, Note_on_c, 0, 47, 0
5, 252960, Note_on_c, 0, 50, 57
5, 253200, Note_on_c, 0, 50, 0
5, 253200, Control_c, 0, 64, 0
5, 253200, Note_on_c, 0, 55, 57
5, 253440, Note_on_c, 0, 55, 0
5, 253440, Note_on_c, 0, 38, 109
5, 253440, Note_on_c, 0, 56, 109
5, 254160, Note_on_c, 0, 56, 0
5, 254160, Note_on_c, 0, 38, 0
5, 254160, Note_on_c, 0, 55, 83
5, 254400, Note_on_c, 0, 55, 0
5, 254400, Control_c, 0, 64, 127
5, 254400, Note_on_c, 0, 41, 83
5, 254640, Note_on_c, 0, 41, 0
5, 254640, Note_on_c, 0, 47, 83
5, 254880, Note_on_c, 0, 47, 0
5, 254880, Note_on_c, 0, 50, 83
5, 255120, Note_on_c, 0, 50, 0
5, 255120, Control_c, 0, 64, 0
5, 255120, Note_on_c, 0, 55, 83
5, 255360, Note_on_c, 0, 55, 0
5, 255360, Note_on_c, 0, 38, 109
5, 255360, Note_on_c, 0, 56, 109
5, 256080, Note_on_c, 0, 56, 0
5, 256080, Note_on_c, 0, 38, 0
5, 256080, Note_on_c, 0, 55, 83
5, 256320, Note_on_c, 0, 55, 0
5, 257280, Note_on_c, 0, 38, 109
5, 257280, Note_on_c, 0, 56, 109
5, 258000, Note_on_c, 0, 56, 0
5, 258000, Note_on_c, 0, 38, 0
5, 258000, Note_on_c, 0, 55, 83
5, 258240, Note_on_c, 0, 55, 0
5, 258240, Control_c, 0, 64, 0
5, 284160, Note_on_c, 0, 36, 57
5, 284160, Note_on_c, 0, 48, 57
5, 285120, Note_on_c, 0, 36, 0
5, 286080, Note_on_c, 0, 59, 57
5, 286560, Note_on_c, 0, 59, 0
5, 286560, Note_on_c, 0, 48, 0
5, 286560, Note_on_c, 0, 55, 57
5, 286560, Note_on_c, 0, 67, 57
5, 287040, Note_on_c, 0, 67, 0
5, 287040, Note_on_c, 0, 55, 0
5, 288000, Note_on_c, 0, 36, 57
5, 288000, Note_on_c, 0, 48, 57
5, 288960, Note_on_c, 0, 36, 0
5, 289920, Note_on_c, 0, 59, 57
5, 290400, Note_on_c, 0, 59, 0
5, 290400, Note_on_c, 0, 48, 0
5, 290400, Note_on_c, 0, 55, 57
5, 290400, Note_on_c, 0, 67, 57
5, 290880, Note_on_c, 0, 67, 0
5, 290880, Note_on_c, 0, 55, 0
5, 291840, Note_on_c, 0, 36, 57
5, 291840, Note_on_c, 0, 48, 57
5, 293280, Note_on_c, 0, 48, 0
5, 293280, Note_on_c, 0, 36, 0
5, 293280, Note_on_c, 0, 34, 57
5, 293280, Note_on_c, 0, 46, 57
5, 293760, Note_on_c, 0, 46, 0
5, 293760, Note_on_c, 0, 34, 0
5, 293760, Note_on_c, 0, 33, 57
5, 293760, Note_on_c, 0, 45, 57
5, 294240, Note_on_c, 0, 45, 0
5, 294240, Note_on_c, 0, 33, 0
5, 294240, Note_on_c, 0, 53, 57
5, 294240, Note_on_c, 0, 65, 57
5, 294720, Note_on_c, 0, 65, 0
5, 294720, Note_on_c, 0, 53, 0
5, 295680, Note_on_c, 0, 34, 57
5, 295680, Note_on_c, 0, 46, 57
5, 296640, Note_on_c, 0, 34, 0
5, 297600, Note_on_c, 0, 57, 57
5, 298080, Note_on_c, 0, 57, 0
5, 298080, Note_on_c, 0, 46, 0
5, 298080, Note_on_c, 0, 53, 57
5, 298080, Note_on_c, 0, 65, 57
5, 298560, Note_on_c, 0, 65, 0
5, 298560, Note_on_c, 0, 53, 0
5, 299520, Note_on_c, 0, 34, 70
5, 299520, Note_on_c, 0, 46, 70
5, 299520, Note_on_c, 0, 58, 70
5, 299520, Note_on_c, 0, 62, 70
5, 301440, Note_on_c, 0, 62, 0
5, 301440, Note_on_c, 0, 34, 0
5, 301440, Note_on_c, 0, 46, 0
5, 301440, Note_on_c, 0, 58, 0
5, 301440, Note_on_c, 0, 32, 70
5, 301440, Note_on_c, 0, 44, 70
5, 301440, Note_on_c, 0, 58, 70
5, 301440, Note_on_c, 0, 62, 70
5, 303360, Note_on_c, 0, 62, 0
5, 303360, Note_on_c, 0, 32, 0
5, 303360, Note_on_c, 0, 44, 0
5, 303360, Note_on_c, 0, 58, 0
5, 303360, Note_on_c, 0, 31, 70
5, 303360, Note_on_c, 0, 43, 70
5, 303360, Note_on_c, 0, 59, 70
5, 303360, Note_on_c, 0, 62, 70
5, 305280, Note_on_c, 0, 62, 0
5, 305280, Note_on_c, 0, 31, 0
5, 305280, Note_on_c, 0, 43, 0
5, 305280, Note_on_c, 0, 59, 0
5, 305280, Note_on_c, 0, 40, 70
5, 305280, Note_on_c, 0, 52, 70
5, 305280, Note_on_c, 0, 61, 70
5, 305280, Note_on_c, 0, 67, 70
5, 307200, Note_on_c, 0, 67, 0
5, 307200, Note_on_c, 0, 40, 0
5, 307200, Note_on_c, 0, 52, 0
5, 307200, Note_on_c, 0, 61, 0
5, 307200, Note_on_c, 0, 38, 57
5, 307200, Note_on_c, 0, 50, 57
5, 308160, Note_on_c, 0, 38, 0
5, 309600, Note_on_c, 0, 50, 0
5, 309600, Note_on_c, 0, 57, 57
5, 309600, Note_on_c, 0, 69, 57
5, 310080, Note_on_c, 0, 69, 0
5, 310080, Note_on_c, 0, 57, 0
5, 311040, Note_on_c, 0, 38, 57
5, 311040, Note_on_c, 0, 50, 57
5, 312480, Note_on_c, 0, 50, 0
5, 312480, Note_on_c, 0, 38, 0
5, 312480, Note_on_c, 0, 36, 57
5, 312480, Note_on_c, 0, 48, 57
5, 312960, Note_on_c, 0, 48, 0
5, 312960, Note_on_c, 0, 36, 0
5, 312960, Note_on_c, 0, 35, 57
5, 312960, Note_on_c, 0, 47, 57
5, 313440, Note_on_c, 0, 47, 0
5, 313440, Note_on_c, 0, 35, 0
5, 313440, Note_on_c, 0, 55, 57
5, 313440, Note_on_c, 0, 67, 57
5, 313920, Note_on_c, 0, 67, 0
5, 313920, Note_on_c, 0, 55, 0
5, 314880, Note_on_c, 0, 36, 57
5, 314880, Note_on_c, 0, 48, 57
5, 315840, Note_on_c, 0, 36, 0
5, 317280, Note_on_c, 0, 48, 0
5, 317280, Note_on_c, 0, 55, 57
5, 317280, Note_on_c, 0, 67, 57
5, 317760, Note_on_c, 0, 67, 0
5, 317760, Note_on_c, 0, 55, 0
5, 318720, Note_on_c, 0, 36, 57
5, 318720, Note_on_c, 0, 48, 57
5, 318720, Note_on_c, 0, 60, 57
5, 318720, Note_on_c, 0, 64, 57
5, 320640, Note_on_c, 0, 64, 0
5, 320640, Note_on_c, 0, 36, 0
5, 320640, Note_on_c, 0, 48, 0
5, 320640, Note_on_c, 0, 60, 0
5, 320640, Note_on_c, 0, 34, 70
5, 320640, Note_on_c, 0, 46, 70
5, 320640, Note_on_c, 0, 60, 70
5, 320640, Note_on_c, 0, 64, 70
5, 322560, Note_on_c, 0, 64, 0
5, 322560, Note_on_c, 0, 34, 0
5, 322560, Note_on_c, 0, 46, 0
5, 322560, Note_on_c, 0, 60, 0
5, 322560, Note_on_c, 0, 33, 70
5, 322560, Note_on_c, 0, 45, 70
5, 322560, Note_on_c, 0, 61, 70
5, 322560, Note_on_c, 0, 64, 70
5, 323520, Note_on_c, 0, 64, 0
5, 323520, Note_on_c, 0, 61, 0
5, 323520, Note_on_c, 0, 33, 0
5, 323520, Note_on_c, 0, 49, 70
5, 323520, Note_on_c, 0, 52, 70
5, 324480, Note_on_c, 0, 52, 0
5, 324480, Note_on_c, 0, 49, 0
5, 324480, Note_on_c, 0, 45, 0
5, 324480, Note_on_c, 0, 31, 70
5, 324480, Note_on_c, 0, 43, 70
5, 324480, Note_on_c, 0, 61, 70
5, 324480, Note_on_c, 0, 64, 70
5, 325440, Note_on_c, 0, 64, 0
5, 325440, Note_on_c, 0, 61, 0
5, 325440, Note_on_c, 0, 31, 0
5, 325440, Note_on_c, 0, 49, 70
5, 325440, Note_on_c, 0, 52, 70
5, 326400, Note_on_c, 0, 52, 0
5, 326400, Note_on_c, 0, 49, 0
5, 326400, Note_on_c, 0, 43, 0
5, 326400, Note_on_c, 0, 29, 70
5, 326400, Note_on_c, 0, 41, 70
5, 326400, Note_on_c, 0, 62, 70
5, 326400, Note_on_c, 0, 65, 70
5, 327360, Note_on_c, 0, 65, 0
5, 327360, Note_on_c, 0, 62, 0
5, 327360, Note_on_c, 0, 29, 0
5, 327360, Note_on_c, 0, 50, 70
5, 327360, Note_on_c, 0, 53, 70
5, 328320, Note_on_c, 0, 53, 0
5, 328320, Note_on_c, 0, 50, 0
5, 328320, Note_on_c, 0, 41, 0
5, 328320, Note_on_c, 0, 30, 70
5, 328320, Note_on_c, 0, 42, 70
5, 328320, Note_on_c, 0, 63, 70
5, 328320, Note_on_c, 0, 69, 70
5, 329280, Note_on_c, 0, 69, 0
5, 329280, Note_on_c, 0, 63, 0
5, 329280, Note_on_c, 0, 30, 0
5, 329280, Note_on_c, 0, 51, 70
5, 329280, Note_on_c, 0, 57, 70
5, 330240, Note_on_c, 0, 57, 0
5, 330240, Note_on_c, 0, 51, 0
5, 330240, Note_on_c, 0, 42, 0
5, 330240, Note_on_c, 0, 31, 70
5, 330240, Note_on_c, 0, 43, 70
5, 330240, Note_on_c, 0, 64, 70
5, 330240, Note_on_c, 0, 67, 70
5, 331200, Note_on_c, 0, 31, 0
5, 331200, Note_on_c, 0, 52, 70
5, 331200, Note_on_c, 0, 55, 70
5, 332160, Note_on_c, 0, 55, 0
5, 332160, Note_on_c, 0, 43, 0
5, 332160, Note_on_c, 0, 67, 0
5, 332160, Note_on_c, 0, 64, 0
5, 332160, Note_on_c, 0, 52, 0
5, 332160, Note_on_c, 0, 32, 70
5, 332160, Note_on_c, 0, 44, 70
5, 332160, Note_on_c, 0, 65, 70
5, 332160, Note_on_c, 0, 71, 70
5, 333120, Note_on_c, 0, 71, 0
5, 333120, Note_on_c, 0, 65, 0
5, 333120, Note_on_c, 0, 32, 0
5, 333120, Note_on_c, 0, 53, 70
5, 333120, Note_on_c, 0, 59, 70
5, 334080, Note_on_c, 0, 59, 0
5, 334080, Note_on_c, 0, 53, 0
5, 334080, Note_on_c, 0, 44, 0
5, 334080, Note_on_c, 0, 33, 70
5, 334080, Note_on_c, 0, 45, 70
5, 334080, Note_on_c, 0, 66, 70
5, 334080, Note_on_c, 0, 69, 70
5, 335040, Note_on_c, 0, 69, 0
5, 335040, Note_on_c, 0, 66, 0
5, 335040, Note_on_c, 0, 33, 0
5, 335040, Note_on_c, 0, 54, 70
5, 335040, Note_on_c, 0, 57, 70
5, 335520, Note_on_c, 0, 57, 0
5, 335520, Note_on_c, 0, 54, 0
5, 335520, Note_on_c, 0, 45, 0
5, 335520, Note_on_c, 0, 37, 70
5, 335520, Note_on_c, 0, 49, 70
5, 336000, Note_on_c, 0, 49, 0
5, 336000, Note_on_c, 0, 37, 0
5, 336000, Note_on_c, 0, 38, 70
5, 336000, Note_on_c, 0, 50, 70
5, 336240, Note_on_c, 0, 50, 0
5, 336240, Note_on_c, 0, 38, 0
5, 336240, Note_on_c, 0, 39, 70
5, 336240, Note_on_c, 0, 51, 70
5, 336480, Note_on_c, 0, 51, 0
5, 336480, Note_on_c, 0, 39, 0
5, 336480, Note_on_c, 0, 38, 70
5, 336480, Note_on_c, 0, 50, 70
5, 337440, Note_on_c, 0, 50, 0
5, 337440, Note_on_c, 0, 38, 0
5, 337440, Note_on_c, 0, 37, 70
5, 337440, Note_on_c, 0, 49, 70
5, 337920, Note_on_c, 0, 49, 0
5, 337920, Note_on_c, 0, 37, 0
5, 337920, Note_on_c, 0, 36, 70
5, 337920, Note_on_c, 0, 48, 70
5, 338880, Note_on_c, 0, 48, 0
5, 338880, Note_on_c, 0, 36, 0
5, 339360, Note_on_c, 0, 39, 70
5, 339360, Note_on_c, 0, 51, 70
5, 339840, Note_on_c, 0, 51, 0
5, 339840, Note_on_c, 0, 39, 0
5, 339840, Note_on_c, 0, 40, 70
5, 339840, Note_on_c, 0, 52, 70
5, 340080, Note_on_c, 0, 52, 0
5, 340080, Note_on_c, 0, 40, 0
5, 340080, Note_on_c, 0, 41, 70
5, 340080, Note_on_c, 0, 53, 70
5, 340320, Note_on_c, 0, 53, 0
5, 340320, Note_on_c, 0, 41, 0
5, 340320, Note_on_c, 0, 40, 70
5, 340320, Note_on_c, 0, 52, 70
5, 341280, Note_on_c, 0, 52, 0
5, 341280, Note_on_c, 0, 40, 0
5, 341280, Note_on_c, 0, 39, 70
5, 341280, Note_on_c, 0, 51, 70
5, 341760, Note_on_c, 0, 51, 0
5, 341760, Note_on_c, 0, 39, 0
5, 341760, Note_on_c, 0, 38, 70
5, 341760, Note_on_c, 0, 50, 70
5, 342720, Note_on_c, 0, 50, 0
5, 342720, Note_on_c, 0, 38, 0
5, 343200, Note_on_c, 0, 41, 70
5, 343200, Note_on_c, 0, 53, 70
5, 343680, Note_on_c, 0, 53, 0
5, 343680, Note_on_c, 0, 41, 0
5, 343680, Note_on_c, 0, 43, 83
5, 343680, Note_on_c, 0, 55, 83
5, 343920, Note_on_c, 0, 55, 0
5, 343920, Note_on_c, 0, 43, 0
5, 343920, Note_on_c, 0, 42, 83
5, 343920, Note_on_c, 0, 54, 83
5, 344160, Note_on_c, 0, 54, 0
5, 344160, Note_on_c, 0, 42, 0
5, 344160, Note_on_c, 0, 43, 83
5, 344160, Note_on_c, 0, 55, 83
5, 345120, Note_on_c, 0, 55, 0
5, 345120, Note_on_c, 0, 43, 0
5, 345120, Note_on_c, 0, 40, 83
5, 345120, Note_on_c, 0, 52, 83
5, 345600, Note_on_c, 0, 52, 0
5, 345600, Note_on_c, 0, 40, 0
5, 345600, Note_on_c, 0, 45, 83
5, 345600, Note_on_c, 0, 57, 83
5, 345840, Note_on_c, 0, 57, 0
5, 345840, Note_on_c, 0, 45, 0
5, 345840, Note_on_c, 0, 44, 83
5, 345840, Note_on_c, 0, 56, 83
5, 346080, Note_on_c, 0, 56, 0
5, 346080, Note_on_c, 0, 44, 0
5, 346080, Note_on_c, 0, 45, 83
5, 346080, Note_on_c, 0, 57, 83
5, 347040, Note_on_c, 0, 57, 0
5, 347040, Note_on_c, 0, 45, 0
5, 347040, Note_on_c, 0, 42, 83
5, 347040, Note_on_c, 0, 54, 83
5, 347520, Note_on_c, 0, 54, 0
5, 347520, Note_on_c, 0, 42, 0
5, 347520, Note_on_c, 0, 47, 83
5, 347520, Note_on_c, 0, 59, 83
5, 347760, Note_on_c, 0, 59, 0
5, 347760, Note_on_c, 0, 47, 0
5, 347760, Note_on_c, 0, 46, 83
5, 347760, Note_on_c, 0, 58, 83
5, 348000, Note_on_c, 0, 58, 0
5, 348000, Note_on_c, 0, 46, 0
5, 348000, Note_on_c, 0, 47, 83
5, 348000, Note_on_c, 0, 59, 83
5, 348480, Note_on_c, 0, 59, 0
5, 348480, Note_on_c, 0, 47, 0
5, 348480, Note_on_c, 0, 48, 83
5, 348480, Note_on_c, 0, 60, 83
5, 348720, Note_on_c, 0, 60, 0
5, 348720, Note_on_c, 0, 48, 0
5, 348720, Note_on_c, 0, 47, 83
5, 348720, Note_on_c, 0, 59, 83
5, 348960, Note_on_c, 0, 59, 0
5, 348960, Note_on_c, 0, 47, 0
5, 348960, Note_on_c, 0, 48, 83
5, 348960, Note_on_c, 0, 60, 83
5, 349440, Note_on_c, 0, 60, 0
5, 349440, Note_on_c, 0, 48, 0
5, 349440, Note_on_c, 0, 49, 83
5, 349440, Note_on_c, 0, 61, 83
5, 349680, Note_on_c, 0, 61, 0
5, 349680, Note_on_c, 0, 49, 0
5, 349680, Note_on_c, 0, 48, 83
5, 349680, Note_on_c, 0, 60, 83
5, 349920, Note_on_c, 0, 60, 0
5, 349920, Note_on_c, 0, 48, 0
5, 349920, Note_on_c, 0, 49, 83
5, 349920, Note_on_c, 0, 61, 83
5, 350400, Note_on_c, 0, 61, 0
5, 350400, Note_on_c, 0, 49, 0
5, 350400, Note_on_c, 0, 50, 83
5, 350400, Note_on_c, 0, 62, 83
5, 350640, Note_on_c, 0, 62, 0
5, 350640, Note_on_c, 0, 50, 0
5, 350640, Note_on_c, 0, 49, 83
5, 350640, Note_on_c, 0, 61, 83
5, 350880, Note_on_c, 0, 61, 0
5, 350880, Note_on_c, 0, 49, 0
5, 350880, Note_on_c, 0, 50, 83
5, 350880, Note_on_c, 0, 62, 83
5, 351360, Note_on_c, 0, 62, 0
5, 351360, Note_on_c, 0, 50, 0
5, 351360, Note_on_c, 0, 51, 83
5, 351360, Note_on_c, 0, 63, 83
5, 351600, Note_on_c, 0, 63, 0
5, 351600, Note_on_c, 0, 51, 0
5, 351600, Note_on_c, 0, 50, 83
5, 351600, Note_on_c, 0, 62, 83
5, 351840, Note_on_c, 0, 62, 0
5, 351840, Note_on_c, 0, 50, 0
5, 351840, Note_on_c, 0, 51, 83
5, 351840, Note_on_c, 0, 63, 83
5, 352800, Note_on_c, 0, 63, 0
5, 352800, Note_on_c, 0, 51, 0
5, 352800, Note_on_c, 0, 51, 83
5, 352800, Note_on_c, 0, 63, 83
5, 353280, Note_on_c, 0, 63, 0
5, 353280, Note_on_c, 0, 51, 0
5, 353280, Note_on_c, 0, 45, 83
5, 353280, Note_on_c, 0, 57, 83
5, 353520, Note_on_c, 0, 57, 0
5, 353520, Note_on_c, 0, 45, 0
5, 353520, Note_on_c, 0, 44, 83
5, 353520, Note_on_c, 0, 56, 83
5, 353760, Note_on_c, 0, 56, 0
5, 353760, Note_on_c, 0, 44, 0
5, 353760, Note_on_c, 0, 45, 83
5, 353760, Note_on_c, 0, 57, 83
5, 354720, Note_on_c, 0, 57, 0
5, 354720, Note_on_c, 0, 45, 0
5, 354720, Note_on_c, 0, 44, 96
5, 354720, Note_on_c, 0, 48, 96
5, 354720, Note_on_c, 0, 51, 96
5, 354720, Note_on_c, 0, 56, 96
5, 355200, Note_on_c, 0, 56, 0
5, 355200, Note_on_c, 0, 44, 0
5, 355200, Note_on_c, 0, 48, 0
5, 355200, Note_on_c, 0, 51, 0
5, 355200, Note_on_c, 0, 43, 96
5, 355200, Note_on_c, 0, 48, 96
5, 355200, Note_on_c, 0, 51, 96
5, 355200, Note_on_c, 0, 55, 96
5, 355680, Note_on_c, 0, 55, 0
5, 355680, Note_on_c, 0, 43, 0
5, 355680, Note_on_c, 0, 48, 0
5, 355680, Note_on_c, 0, 51, 0
5, 357120, Note_on_c, 0, 43, 96
5, 357120, Note_on_c, 0, 48, 96
5, 357120, Note_on_c, 0, 51, 96
5, 357120, Note_on_c, 0, 55, 96
5, 357600, Note_on_c, 0, 55, 0
5, 357600, Note_on_c, 0, 43, 0
5, 357600, Note_on_c, 0, 48, 0
5, 357600, Note_on_c, 0, 51, 0
5, 359040, Note_on_c, 0, 43, 96
5, 359040, Note_on_c, 0, 48, 96
5, 359040, Note_on_c, 0, 51, 96
5, 359040, Note_on_c, 0, 55, 96
5, 359520, Note_on_c, 0, 55, 0
5, 359520, Note_on_c, 0, 43, 0
5, 359520, Note_on_c, 0, 48, 0
5, 359520, Note_on_c, 0, 51, 0
5, 360960, Note_on_c, 0, 43, 96
5, 360960, Note_on_c, 0, 48, 96
5, 360960, Note_on_c, 0, 51, 96
5, 360960, Note_on_c, 0, 55, 96
5, 361440, Note_on_c, 0, 55, 0
5, 361440, Note_on_c, 0, 43, 0
5, 361440, Note_on_c, 0, 48, 0
5, 361440, Note_on_c, 0, 51, 0
5, 362880, Note_on_c, 0, 43, 96
5, 362880, Note_on_c, 0, 48, 96
5, 362880, Note_on_c, 0, 51, 96
5, 362880, Note_on_c, 0, 55, 96
5, 363360, Note_on_c, 0, 55, 0
5, 363360, Note_on_c, 0, 43, 0
5, 363360, Note_on_c, 0, 48, 0
5, 363360, Note_on_c, 0, 51, 0
5, 374400, Note_on_c, 0, 31, 96
5, 374400, Note_on_c, 0, 43, 96
5, 376800, Note_on_c, 0, 43, 0
5, 376800, Note_on_c, 0, 31, 0
5, 386880, Control_c, 0, 64, 127
5, 386880, Note_on_c, 0, 36, 83
5, 386880, Note_on_c, 0, 48, 83
5, 387200, Note_on_c, 0, 48, 0
5, 387200, Note_on_c, 0, 36, 0
5, 387200, Note_on_c, 0, 55, 83
5, 387200, Note_on_c, 0, 60, 83
5, 387200, Note_on_c, 0, 64, 83
5, 387519, Note_on_c, 0, 64, 0
5, 387519, Note_on_c, 0, 60, 0
5, 387519, Note_on_c, 0, 55, 0
5, 387519, Note_on_c, 0, 55, 83
5, 387519, Note_on_c, 0, 60, 83
5, 387519, Note_on_c, 0, 64, 83
5, 387840, Note_on_c, 0, 64, 0
5, 387840, Note_on_c, 0, 60, 0
5, 387840, Note_on_c, 0, 55, 0
5, 387840, Note_on_c, 0, 55, 70
5, 387840, Note_on_c, 0, 60, 70
5, 387960, Note_on_c, 0, 60, 0
5, 387960, Note_on_c, 0, 55, 0
5, 387960, Note_on_c, 0, 64, 70
5, 388080, Note_on_c, 0, 64, 0
5, 388080, Note_on_c, 0, 55, 70
5, 388080, Note_on_c, 0, 60, 70
5, 388200, Note_on_c, 0, 60, 0
5, 388200, Note_on_c, 0, 55, 0
5, 388200, Note_on_c, 0, 64, 70
5, 388320, Note_on_c, 0, 64, 0
5, 388320, Note_on_c, 0, 55, 70
5, 388320, Note_on_c, 0, 60, 70
5, 388440, Note_on_c, 0, 60, 0
5, 388440, Note_on_c, 0, 55, 0
5, 388440, Note_on_c, 0, 64, 70
5, 388560, Note_on_c, 0, 64, 0
5, 388560, Note_on_c, 0, 55, 70
5, 388560, Note_on_c, 0, 60, 70
5, 388680, Note_on_c, 0, 60, 0
5, 388680, Note_on_c, 0, 55, 0
5, 388680, Note_on_c, 0, 64, 70
5, 388800, Note_on_c, 0, 64, 0
5, 388800, Note_on_c, 0, 55, 70
5, 388800, Note_on_c, 0, 60, 70
5, 388920, Note_on_c, 0, 60, 0
5, 388920, Note_on_c, 0, 55, 0
5, 388920, Note_on_c, 0, 64, 70
5, 389040, Note_on_c, 0, 64, 0
5, 389040, Note_on_c, 0, 55, 70
5, 389040, Note_on_c, 0, 60, 70
5, 389160, Note_on_c, 0, 60, 0
5, 389160, Note_on_c, 0, 55, 0
5, 389160, Note_on_c, 0, 64, 70
5, 389280, Note_on_c, 0, 64, 0
5, 389280, Note_on_c, 0, 55, 70
5, 389280, Note_on_c, 0, 60, 70
5, 389400, Note_on_c, 0, 60, 0
5, 389400, Note_on_c, 0, 55, 0
5, 389400, Note_on_c, 0, 64, 70
5, 389520, Note_on_c, 0, 64, 0
5, 389520, Note_on_c, 0, 55, 70
5, 389520, Note_on_c, 0, 60, 70
5, 389640, Note_on_c, 0, 60, 0
5, 389640, Note_on_c, 0, 55, 0
5, 389640, Note_on_c, 0, 64, 70
5, 389760, Note_on_c, 0, 64, 0
5, 389760, Note_on_c, 0, 55, 70
5, 389760, Note_on_c, 0, 60, 70
5, 389880, Note_on_c, 0, 60, 0
5, 389880, Note_on_c, 0, 55, 0
5, 389880, Note_on_c, 0, 64, 70
5, 390000, Note_on_c, 0, 64, 0
5, 390000, Note_on_c, 0, 55, 70
5, 390000, Note_on_c, 0, 60, 70
5, 390120, Note_on_c, 0, 60, 0
5, 390120, Note_on_c, 0, 55, 0
5, 390120, Note_on_c, 0, 64, 70
5, 390240, Note_on_c, 0, 64, 0
5, 390240, Note_on_c, 0, 55, 70
5, 390240, Note_on_c, 0, 60, 70
5, 390360, Note_on_c, 0, 60, 0
5, 390360, Note_on_c, 0, 55, 0
5, 390360, Note_on_c, 0, 64, 70
5, 390480, Note_on_c, 0, 64, 0
5, 390480, Note_on_c, 0, 55, 70
5, 390480, Note_on_c, 0, 60, 70
5, 390600, Note_on_c, 0, 60, 0
5, 390600, Note_on_c, 0, 55, 0
5, 390600, Control_c, 0, 64, 0
5, 390600, Note_on_c, 0, 64, 70
5, 390720, Note_on_c, 0, 64, 0
5, 390720, Control_c, 0, 64, 127
5, 390720, Note_on_c, 0, 48, 109
5, 390720, Note_on_c, 0, 55, 109
5, 390720, Note_on_c, 0, 64, 109
5, 391040, Note_on_c, 0, 64, 0
5, 391040, Note_on_c, 0, 55, 0
5, 391040, Note_on_c, 0, 48, 0
5, 391040, Note_on_c, 0, 55, 83
5, 391040, Note_on_c, 0, 60, 83
5, 391359, Note_on_c, 0, 60, 0
5, 391359, Note_on_c, 0, 55, 0
5, 391359, Note_on_c, 0, 55, 83
5, 391359, Note_on_c, 0, 60, 83
5, 391680, Note_on_c, 0, 60, 0
5, 391680, Note_on_c, 0, 55, 0
5, 391680, Note_on_c, 0, 55, 83
5, 391680, Note_on_c, 0, 60, 83
5, 392640, Note_on_c, 0, 60, 0
5, 392640, Note_on_c, 0, 62, 109
5, 393120, Note_on_c, 0, 62, 0
5, 393120, Note_on_c, 0, 60, 109
5, 393600, Note_on_c, 0, 60, 0
5, 393600, Note_on_c, 0, 55, 0
5, 393600, Note_on_c, 0, 48, 109
5, 393600, Note_on_c, 0, 57, 109
5, 394080, Note_on_c, 0, 57, 0
5, 394080, Control_c, 0, 64, 0
5, 394080, Note_on_c, 0, 55, 109
5, 394560, Note_on_c, 0, 55, 0
5, 394560, Note_on_c, 0, 48, 0
5, 394560, Control_c, 0, 64, 127
5, 394560, Note_on_c, 0, 36, 109
5, 394560, Note_on_c, 0, 48, 109
5, 394560, Note_on_c, 0, 53, 109
5, 394560, Note_on_c, 0, 56, 109
5, 394880, Note_on_c, 0, 56, 0
5, 394880, Note_on_c, 0, 36, 0
5, 394880, Note_on_c, 0, 48, 0
5, 394880, Note_on_c, 0, 53, 0
5, 394880, Note_on_c, 0, 48, 83
5, 394880, Note_on_c, 0, 53, 83
5, 395199, Note_on_c, 0, 53, 0
5, 395199, Note_on_c, 0, 48, 0
5, 395199, Note_on_c, 0, 48, 83
5, 395199, Note_on_c, 0, 53, 83
5, 395520, Note_on_c, 0, 53, 0
5, 395520, Note_on_c, 0, 48, 0
5, 395520, Note_on_c, 0, 55, 109
5, 396000, Note_on_c, 0, 55, 0
5, 396000, Note_on_c, 0, 56, 109
5, 396390, Note_on_c, 0, 48, 83
5, 396420, Note_on_c, 0, 55, 83
5, 396450, Note_on_c, 0, 59, 83
5, 396480, Note_on_c, 0, 56, 0
5, 396480, Control_c, 0, 64, 0
5, 396480, Note_on_c, 0, 65, 83
5, 398400, Note_on_c, 0, 65, 0
5, 398400, Note_on_c, 0, 59, 0
5, 398400, Note_on_c, 0, 55, 0
5, 398400, Note_on_c, 0, 48, 0
5, 398400, Control_c, 0, 64, 127
5, 398400, Note_on_c, 0, 48, 109
5, 398400, Note_on_c, 0, 55, 109
5, 398400, Note_on_c, 0, 60, 109
5, 398400, Note_on_c, 0, 65, 109
5, 398720, Note_on_c, 0, 65, 0
5, 398720, Note_on_c, 0, 48, 0
5, 398720, Note_on_c, 0, 55, 0
5, 398720, Note_on_c, 0, 60, 0
5, 398720, Note_on_c, 0, 55, 83
5, 398720, Note_on_c, 0, 60, 83
5, 399039, Note_on_c, 0, 60, 0
5, 399039, Note_on_c, 0, 55, 0
5, 399039, Note_on_c, 0, 55, 83
5, 399039, Note_on_c, 0, 60, 83
5, 399360, Note_on_c, 0, 64, 109
5, 399840, Note_on_c, 0, 64, 0
5, 399840, Note_on_c, 0, 60, 0
5, 399840, Note_on_c, 0, 55, 0
5, 399840, Note_on_c, 0, 63, 109
5, 400320, Note_on_c, 0, 63, 0
5, 400320, Note_on_c, 0, 48, 109
5, 400320, Note_on_c, 0, 55, 109
5, 400320, Note_on_c, 0, 64, 109
5, 400640, Note_on_c, 0, 64, 0
5, 400640, Note_on_c, 0, 55, 0
5, 400640, Note_on_c, 0, 48, 0
5, 400640, Note_on_c, 0, 60, 109
5, 400959, Note_on_c, 0, 60, 0
5, 400959, Note_on_c, 0, 57, 109
5, 401280, Note_on_c, 0, 57, 0
5, 401280, Note_on_c, 0, 55, 109
5, 401600, Note_on_c, 0, 55, 0
5, 401600, Note_on_c, 0, 52, 109
5, 401919, Note_on_c, 0, 52, 0
5, 401919, Control_c, 0, 64, 0
5, 401919, Note_on_c, 0, 48, 109
5, 402240, Note_on_c, 0, 48, 0
5, 402240, Control_c, 0, 64, 127
5, 402240, Note_on_c, 0, 36, 109
5, 402240, Note_on_c, 0, 48, 109
5, 402240, Note_on_c, 0, 51, 109
5, 402240, Note_on_c, 0, 56, 109
5, 402560, Note_on_c, 0, 56, 0
5, 402560, Note_on_c, 0, 36, 0
5, 402560, Note_on_c, 0, 48, 0
5, 402560, Note_on_c, 0, 51, 0
5, 402560, Note_on_c, 0, 48, 83
5, 402560, Note_on_c, 0, 51, 83
5, 402879, Note_on_c, 0, 51, 0
5, 402879, Note_on_c, 0, 48, 0
5, 402879, Note_on_c, 0, 48, 83
5, 402879, Note_on_c, 0, 51, 83
5, 403200, Note_on_c, 0, 55, 109
5, 403680, Note_on_c, 0, 55, 0
5, 403680, Note_on_c, 0, 51, 0
5, 403680, Note_on_c, 0, 48, 0
5, 403680, Control_c, 0, 64, 0
5, 403680, Note_on_c, 0, 56, 109
5, 404160, Note_on_c, 0, 56, 0
5, 404160, Control_c, 0, 64, 127
5, 404160, Note_on_c, 0, 48, 109
5, 404160, Note_on_c, 0, 56, 109
5, 404160, Note_on_c, 0, 63, 109
5, 404640, Note_on_c, 0, 63, 0
5, 404640, Note_on_c, 0, 56, 0
5, 404640, Note_on_c, 0, 48, 0
5, 404640, Note_on_c, 0, 36, 83
5, 404760, Note_on_c, 0, 36, 0
5, 404760, Note_on_c, 0, 48, 83
5, 404880, Note_on_c, 0, 48, 0
5, 404880, Note_on_c, 0, 36, 83
5, 405000, Note_on_c, 0, 36, 0
5, 405000, Note_on_c, 0, 48, 83
5, 405120, Note_on_c, 0, 48, 0
5, 405120, Note_on_c, 0, 36, 83
5, 405360, Note_on_c, 0, 36, 0
5, 405600, Control_c, 0, 64, 0
5, 406080, Control_c, 0, 64, 127
5, 406080, Note_on_c, 0, 48, 83
5, 406080, Note_on_c, 0, 55, 83
5, 406080, Note_on_c, 0, 63, 83
5, 406400, Note_on_c, 0, 63, 0
5, 406400, Note_on_c, 0, 55, 0
5, 406400, Note_on_c, 0, 48, 0
5, 406400, Note_on_c, 0, 55, 83
5, 406400, Note_on_c, 0, 60, 83
5, 406719, Note_on_c, 0, 60, 0
5, 406719, Note_on_c, 0, 55, 0
5, 406719, Note_on_c, 0, 55, 83
5, 406719, Note_on_c, 0, 60, 83
5, 407040, Note_on_c, 0, 60, 0
5, 407040, Note_on_c, 0, 55, 0
5, 407040, Note_on_c, 0, 62, 109
5, 407520, Note_on_c, 0, 62, 0
5, 407520, Note_on_c, 0, 63, 109
5, 408000, Note_on_c, 0, 63, 0
5, 408000, Control_c, 0, 64, 127
5, 408000, Note_on_c, 0, 62, 109
5, 408480, Note_on_c, 0, 62, 0
5, 408480, Note_on_c, 0, 60, 109
5, 408960, Note_on_c, 0, 60, 0
5, 408960, Note_on_c, 0, 56, 109
5, 409440, Note_on_c, 0, 56, 0
5, 409440, Control_c, 0, 64, 0
5, 409440, Note_on_c, 0, 55, 109
5, 409920, Note_on_c, 0, 55, 0
5, 409920, Control_c, 0, 64, 127
5, 409920, Note_on_c, 0, 36, 109
5, 409920, Note_on_c, 0, 48, 109
5, 409920, Note_on_c, 0, 51, 109
5, 409920, Note_on_c, 0, 56, 109
5, 410240, Note_on_c, 0, 56, 0
5, 410240, Note_on_c, 0, 36, 0
5, 410240, Note_on_c, 0, 48, 0
5, 410240, Note_on_c, 0, 51, 0
5, 410240, Note_on_c, 0, 48, 83
5, 410240, Note_on_c, 0, 51, 83
5, 410559, Note_on_c, 0, 51, 0
5, 410559, Note_on_c, 0, 48, 0
5, 410559, Note_on_c, 0, 48, 83
5, 410559, Note_on_c, 0, 51, 83
5, 410880, Note_on_c, 0, 55, 109
5, 411360, Note_on_c, 0, 55, 0
5, 411360, Note_on_c, 0, 51, 0
5, 411360, Note_on_c, 0, 48, 0
5, 411360, Control_c, 0, 64, 0
5, 411360, Note_on_c, 0, 56, 109
5, 411840, Note_on_c, 0, 56, 0
5, 411840, Control_c, 0, 64, 127
5, 411840, Note_on_c, 0, 48, 109
5, 411840, Note_on_c, 0, 56, 109
5, 411840, Note_on_c, 0, 63, 109
5, 412320, Note_on_c, 0, 63, 0
5, 412320, Note_on_c, 0, 56, 0
5, 412320, Note_on_c, 0, 48, 0
5, 412320, Note_on_c, 0, 36, 83
5, 412440, Note_on_c, 0, 36, 0
5, 412440, Note_on_c, 0, 48, 83
5, 412560, Note_on_c, 0, 48, 0
5, 412560, Note_on_c, 0, 36, 83
5, 412680, Note_on_c, 0, 36, 0
5, 412680, Note_on_c, 0, 48, 83
5, 412800, Note_on_c, 0, 48, 0
5, 412800, Note_on_c, 0, 36, 83
5, 413040, Note_on_c, 0, 36, 0
5, 413280, Control_c, 0, 64, 0
5, 413760, Control_c, 0, 64, 127
5, 413760, Note_on_c, 0, 48, 83
5, 413760, Note_on_c, 0, 55, 83
5, 413760, Note_on_c, 0, 63, 83
5, 414080, Note_on_c, 0, 63, 0
5, 414080, Note_on_c, 0, 55, 0
5, 414080, Note_on_c, 0, 48, 0
5, 414080, Note_on_c, 0, 55, 83
5, 414080, Note_on_c, 0, 60, 83
5, 414399, Note_on_c, 0, 60, 0
5, 414399, Note_on_c, 0, 55, 0
5, 414399, Note_on_c, 0, 55, 83
5, 414399, Note_on_c, 0, 60, 83
5, 414720, Note_on_c, 0, 60, 0
5, 414720, Note_on_c, 0, 55, 0
5, 414720, Note_on_c, 0, 62, 109
5, 415200, Note_on_c, 0, 62, 0
5, 415200, Note_on_c, 0, 63, 109
5, 415680, Note_on_c, 0, 63, 0
5, 415680, Control_c, 0, 64, 127
5, 415680, Note_on_c, 0, 62, 109
5, 416160, Note_on_c, 0, 62, 0
5, 416160, Note_on_c, 0, 60, 109
5, 416640, Note_on_c, 0, 60, 0
5, 416640, Note_on_c, 0, 56, 109
5, 417120, Note_on_c, 0, 56, 0
5, 417120, Control_c, 0, 64, 0
5, 417120, Note_on_c, 0, 55, 109
5, 417600, Note_on_c, 0, 55, 0
5, 417600, Control_c, 0, 64, 127
5, 417600, Note_on_c, 0, 36, 83
5, 417600, Note_on_c, 0, 48, 83
5, 417600, Note_on_c, 0, 53, 83
5, 417600, Note_on_c, 0, 56, 83
5, 417600, Note_on_c, 0, 61, 83
5, 418080, Note_on_c, 0, 61, 0
5, 418080, Note_on_c, 0, 53, 0
5, 418080, Note_on_c, 0, 36, 0
5, 418080, Note_on_c, 0, 48, 0
5, 418080, Note_on_c, 0, 56, 0
5, 418080, Note_on_c, 0, 48, 83
5, 418080, Note_on_c, 0, 53, 83
5, 418080, Note_on_c, 0, 56, 83
5, 418080, Note_on_c, 0, 61, 83
5, 418560, Note_on_c, 0, 61, 0
5, 418560, Note_on_c, 0, 48, 0
5, 418560, Note_on_c, 0, 53, 0
5, 418560, Note_on_c, 0, 56, 0
5, 418560, Note_on_c, 0, 48, 83
5, 418560, Note_on_c, 0, 53, 83
5, 418560, Note_on_c, 0, 56, 83
5, 418560, Note_on_c, 0, 61, 83
5, 419040, Note_on_c, 0, 61, 0
5, 419040, Note_on_c, 0, 48, 0
5, 419040, Note_on_c, 0, 53, 0
5, 419040, Note_on_c, 0, 56, 0
5, 419040, Note_on_c, 0, 53, 70
5, 419040, Note_on_c, 0, 56, 70
5, 419160, Note_on_c, 0, 56, 0
5, 419160, Note_on_c, 0, 53, 0
5, 419160, Note_on_c, 0, 61, 70
5, 419280, Note_on_c, 0, 61, 0
5, 419280, Note_on_c, 0, 53, 70
5, 419280, Note_on_c, 0, 56, 70
5, 419400, Note_on_c, 0, 56, 0
5, 419400, Note_on_c, 0, 53, 0
5, 419400, Note_on_c, 0, 61, 70
5, 419520, Note_on_c, 0, 61, 0
5, 419520, Note_on_c, 0, 53, 70
5, 419520, Note_on_c, 0, 56, 70
5, 419640, Note_on_c, 0, 56, 0
5, 419640, Note_on_c, 0, 53, 0
5, 419640, Note_on_c, 0, 61, 70
5, 419760, Note_on_c, 0, 61, 0
5, 419760, Note_on_c, 0, 53, 70
5, 419760, Note_on_c, 0, 56, 70
5, 419880, Note_on_c, 0, 56, 0
5, 419880, Note_on_c, 0, 53, 0
5, 419880, Note_on_c, 0, 61, 70
5, 420000, Note_on_c, 0, 61, 0
5, 420000, Note_on_c, 0, 53, 70
5, 420000, Note_on_c, 0, 56, 70
5, 420120, Note_on_c, 0, 56, 0
5, 420120, Note_on_c, 0, 53, 0
5, 420120, Note_on_c, 0, 61, 70
5, 420240, Note_on_c, 0, 61, 0
5, 420240, Note_on_c, 0, 53, 70
5, 420240, Note_on_c, 0, 56, 70
5, 420360, Note_on_c, 0, 56, 0
5, 420360, Note_on_c, 0, 53, 0
5, 420360, Note_on_c, 0, 61, 70
5, 420480, Note_on_c, 0, 61, 0
5, 420480, Note_on_c, 0, 53, 70
5, 420480, Note_on_c, 0, 56, 70
5, 420600, Note_on_c, 0, 56, 0
5, 420600, Note_on_c, 0, 53, 0
5, 420600, Note_on_c, 0, 61, 70
5, 420720, Note_on_c, 0, 61, 0
5, 420720, Note_on_c, 0, 53, 70
5, 420720, Note_on_c, 0, 56, 70
5, 420840, Note_on_c, 0, 56, 0
5, 420840, Note_on_c, 0, 53, 0
5, 420840, Note_on_c, 0, 61, 70
5, 420960, Note_on_c, 0, 61, 0
5, 420960, Note_on_c, 0, 53, 70
5, 420960, Note_on_c, 0, 56, 70
5, 421080, Note_on_c, 0, 56, 0
5, 421080, Note_on_c, 0, 53, 0
5, 421080, Note_on_c, 0, 61, 70
5, 421200, Note_on_c, 0, 61, 0
5, 421200, Note_on_c, 0, 53, 70
5, 421200, Note_on_c, 0, 56, 70
5, 421320, Note_on_c, 0, 56, 0
5, 421320, Note_on_c, 0, 53, 0
5, 421320, Control_c, 0, 64, 0
5, 421320, Note_on_c, 0, 61, 70
5, 421440, Note_on_c, 0, 61, 0
5, 421440, Control_c, 0, 64, 127
5, 421440, Note_on_c, 0, 48, 70
5, 421440, Note_on_c, 0, 53, 70
5, 421440, Note_on_c, 0, 59, 70
5, 421440, Note_on_c, 0, 62, 70
5, 421760, Note_on_c, 0, 62, 0
5, 421760, Note_on_c, 0, 48, 0
5, 421760, Note_on_c, 0, 53, 0
5, 421760, Note_on_c, 0, 59, 0
5, 421760, Note_on_c, 0, 53, 70
5, 421760, Note_on_c, 0, 59, 70
5, 421760, Note_on_c, 0, 62, 70
5, 422079, Note_on_c, 0, 62, 0
5, 422079, Note_on_c, 0, 59, 0
5, 422079, Note_on_c, 0, 53, 0
5, 422079, Note_on_c, 0, 53, 70
5, 422079, Note_on_c, 0, 59, 70
5, 422079, Note_on_c, 0, 62, 70
5, 422400, Note_on_c, 0, 62, 0
5, 422400, Note_on_c, 0, 59, 0
5, 422400, Note_on_c, 0, 53, 0
5, 422400, Note_on_c, 0, 53, 70
5, 422400, Note_on_c, 0, 59, 70
5, 422520, Note_on_c, 0, 59, 0
5, 422520, Note_on_c, 0, 53, 0
5, 422520, Note_on_c, 0, 62, 70
5, 422640, Note_on_c, 0, 62, 0
5, 422640, Note_on_c, 0, 53, 70
5, 422640, Note_on_c, 0, 59, 70
5, 422760, Note_on_c, 0, 59, 0
5, 422760, Note_on_c, 0, 53, 0
5, 422760, Note_on_c, 0, 62, 70
5, 422880, Note_on_c, 0, 62, 0
5, 422880, Note_on_c, 0, 53, 70
5, 422880, Note_on_c, 0, 59, 70
5, 423000, Note_on_c, 0, 59, 0
5, 423000, Note_on_c, 0, 53, 0
5, 423000, Note_on_c, 0, 62, 70
5, 423120, Note_on_c, 0, 62, 0
5, 423120, Note_on_c, 0, 53, 70
5, 423120, Note_on_c, 0, 59, 70
5, 423240, Note_on_c, 0, 59, 0
5, 423240, Note_on_c, 0, 53, 0
5, 423240, Note_on_c, 0, 62, 70
5, 423360, Note_on_c, 0, 62, 0
5, 423360, Note_on_c, 0, 53, 70
5, 423360, Note_on_c, 0, 59, 70
5, 423480, Note_on_c, 0, 59, 0
5, 423480, Note_on_c, 0, 53, 0
5, 423480, Note_on_c, 0, 62, 70
5, 423600, Note_on_c, 0, 62, 0
5, 423600, Note_on_c, 0, 53, 70
5, 423600, Note_on_c, 0, 59, 70
5, 423720, Note_on_c, 0, 59, 0
5, 423720, Note_on_c, 0, 53, 0
5, 423720, Note_on_c, 0, 62, 70
5, 423840, Note_on_c, 0, 62, 0
5, 423840, Note_on_c, 0, 53, 70
5, 423840, Note_on_c, 0, 59, 70
5, 423960, Note_on_c, 0, 59, 0
5, 423960, Note_on_c, 0, 53, 0
5, 423960, Note_on_c, 0, 62, 70
5, 424080, Note_on_c, 0, 62, 0
5, 424080, Note_on_c, 0, 53, 70
5, 424080, Note_on_c, 0, 59, 70
5, 424200, Note_on_c, 0, 59, 0
5, 424200, Note_on_c, 0, 53, 0
5, 424200, Note_on_c, 0, 62, 70
5, 424320, Note_on_c, 0, 62, 0
5, 424320, Note_on_c, 0, 53, 70
5, 424320, Note_on_c, 0, 59, 70
5, 424440, Note_on_c, 0, 59, 0
5, 424440, Note_on_c, 0, 53, 0
5, 424440, Note_on_c, 0, 62, 70
5, 424560, Note_on_c, 0, 62, 0
5, 424560, Note_on_c, 0, 53, 70
5, 424560, Note_on_c, 0, 59, 70
5, 424680, Note_on_c, 0, 59, 0
5, 424680, Note_on_c, 0, 53, 0
5, 424680, Note_on_c, 0, 62, 70
5, 424800, Note_on_c, 0, 62, 0
5, 424800, Note_on_c, 0, 53, 70
5, 424800, Note_on_c, 0, 59, 70
5, 424920, Note_on_c, 0, 59, 0
5, 424920, Note_on_c, 0, 53, 0
5, 424920, Note_on_c, 0, 62, 70
5, 425040, Note_on_c, 0, 62, 0
5, 425040, Note_on_c, 0, 53, 70
5, 425040, Note_on_c, 0, 59, 70
5, 425160, Note_on_c, 0, 59, 0
5, 425160, Note_on_c, 0, 53, 0
5, 425160, Control_c, 0, 64, 0
5, 425160, Note_on_c, 0, 62, 70
5, 425280, Note_on_c, 0, 62, 0
5, 425280, Control_c, 0, 64, 127
5, 425280, Note_on_c, 0, 36, 83
5, 425280, Note_on_c, 0, 48, 83
5, 425280, Note_on_c, 0, 53, 83
5, 425280, Note_on_c, 0, 56, 83
5, 425280, Note_on_c, 0, 61, 83
5, 425760, Note_on_c, 0, 61, 0
5, 425760, Note_on_c, 0, 53, 0
5, 425760, Note_on_c, 0, 36, 0
5, 425760, Note_on_c, 0, 48, 0
5, 425760, Note_on_c, 0, 56, 0
5, 425760, Note_on_c, 0, 48, 83
5, 425760, Note_on_c, 0, 53, 83
5, 425760, Note_on_c, 0, 56, 83
5, 425760, Note_on_c, 0, 61, 83
5, 426240, Note_on_c, 0, 61, 0
5, 426240, Note_on_c, 0, 48, 0
5, 426240, Note_on_c, 0, 53, 0
5, 426240, Note_on_c, 0, 56, 0
5, 426240, Note_on_c, 0, 48, 83
5, 426240, Note_on_c, 0, 53, 83
5, 426240, Note_on_c, 0, 56, 83
5, 426240, Note_on_c, 0, 61, 83
5, 426720, Note_on_c, 0, 61, 0
5, 426720, Note_on_c, 0, 48, 0
5, 426720, Note_on_c, 0, 53, 0
5, 426720, Note_on_c, 0, 56, 0
5, 426720, Note_on_c, 0, 53, 70
5, 426720, Note_on_c, 0, 56, 70
5, 426840, Note_on_c, 0, 56, 0
5, 426840, Note_on_c, 0, 53, 0
5, 426840, Note_on_c, 0, 61, 70
5, 426960, Note_on_c, 0, 61, 0
5, 426960, Note_on_c, 0, 53, 70
5, 426960, Note_on_c, 0, 56, 70
5, 427080, Note_on_c, 0, 56, 0
5, 427080, Note_on_c, 0, 53, 0
5, 427080, Note_on_c, 0, 61, 70
5, 427200, Note_on_c, 0, 61, 0
5, 427200, Note_on_c, 0, 53, 70
5, 427200, Note_on_c, 0, 56, 70
5, 427320, Note_on_c, 0, 56, 0
5, 427320, Note_on_c, 0, 53, 0
5, 427320, Note_on_c, 0, 61, 70
5, 427440, Note_on_c, 0, 61, 0
5, 427440, Note_on_c, 0, 53, 70
5, 427440, Note_on_c, 0, 56, 70
5, 427560, Note_on_c, 0, 56, 0
5, 427560, Note_on_c, 0, 53, 0
5, 427560, Note_on_c, 0, 61, 70
5, 427680, Note_on_c, 0, 61, 0
5, 427680, Note_on_c, 0, 53, 70
5, 427680, Note_on_c, 0, 56, 70
5, 427800, Note_on_c, 0, 56, 0
5, 427800, Note_on_c, 0, 53, 0
5, 427800, Note_on_c, 0, 61, 70
5, 427920, Note_on_c, 0, 61, 0
5, 427920, Note_on_c, 0, 53, 70
5, 427920, Note_on_c, 0, 56, 70
5, 428040, Note_on_c, 0, 56, 0
5, 428040, Note_on_c, 0, 53, 0
5, 428040, Note_on_c, 0, 61, 70
5, 428160, Note_on_c, 0, 61, 0
5, 428160, Note_on_c, 0, 53, 70
5, 428160, Note_on_c, 0, 56, 70
5, 428280, Note_on_c, 0, 56, 0
5, 428280, Note_on_c, 0, 53, 0
5, 428280, Note_on_c, 0, 61, 70
5, 428400, Note_on_c, 0, 61, 0
5, 428400, Note_on_c, 0, 53, 70
5, 428400, Note_on_c, 0, 56, 70
5, 428520, Note_on_c, 0, 56, 0
5, 428520, Note_on_c, 0, 53, 0
5, 428520, Note_on_c, 0, 61, 70
5, 428640, Note_on_c, 0, 61, 0
5, 428640, Note_on_c, 0, 53, 70
5, 428640, Note_on_c, 0, 56, 70
5, 428760, Note_on_c, 0, 56, 0
5, 428760, Note_on_c, 0, 53, 0
5, 428760, Note_on_c, 0, 61, 70
5, 428880, Note_on_c, 0, 61, 0
5, 428880, Note_on_c, 0, 53, 70
5, 428880, Note_on_c, 0, 56, 70
5, 429000, Note_on_c, 0, 56, 0
5, 429000, Note_on_c, 0, 53, 0
5, 429000, Control_c, 0, 64, 0
5, 429000, Note_on_c, 0, 61, 70
5, 429120, Note_on_c, 0, 61, 0
5, 429120, Control_c, 0, 64, 127
5, 429120, Note_on_c, 0, 48, 70
5, 429120, Note_on_c, 0, 53, 70
5, 429120, Note_on_c, 0, 59, 70
5, 429120, Note_on_c, 0, 62, 70
5, 429440, Note_on_c, 0, 62, 0
5, 429440, Note_on_c, 0, 48, 0
5, 429440, Note_on_c, 0, 53, 0
5, 429440, Note_on_c, 0, 59, 0
5, 429440, Note_on_c, 0, 53, 70
5, 429440, Note_on_c, 0, 59, 70
5, 429440, Note_on_c, 0, 62, 70
5, 429759, Note_on_c, 0, 62, 0
5, 429759, Note_on_c, 0, 59, 0
5, 429759, Note_on_c, 0, 53, 0
5, 429759, Note_on_c, 0, 53, 70
5, 429759, Note_on_c, 0, 59, 70
5, 429759, Note_on_c, 0, 62, 70
5, 430080, Note_on_c, 0, 62, 0
5, 430080, Note_on_c, 0, 59, 0
5, 430080, Note_on_c, 0, 53, 0
5, 430080, Note_on_c, 0, 53, 70
5, 430080, Note_on_c, 0, 59, 70
5, 430200, Note_on_c, 0, 59, 0
5, 430200, Note_on_c, 0, 53, 0
5, 430200, Note_on_c, 0, 62, 70
5, 430320, Note_on_c, 0, 62, 0
5, 430320, Note_on_c, 0, 53, 70
5, 430320, Note_on_c, 0, 59, 70
5, 430440, Note_on_c, 0, 59, 0
5, 430440, Note_on_c, 0, 53, 0
5, 430440, Note_on_c, 0, 62, 70
5, 430560, Note_on_c, 0, 62, 0
5, 430560, Note_on_c, 0, 53, 70
5, 430560, Note_on_c, 0, 59, 70
5, 430680, Note_on_c, 0, 59, 0
5, 430680, Note_on_c, 0, 53, 0
5, 430680, Note_on_c, 0, 62, 70
5, 430800, Note_on_c, 0, 62, 0
5, 430800, Note_on_c, 0, 53, 70
5, 430800, Note_on_c, 0, 59, 70
5, 430920, Note_on_c, 0, 59, 0
5, 430920, Note_on_c, 0, 53, 0
5, 430920, Note_on_c, 0, 62, 70
5, 431040, Note_on_c, 0, 62, 0
5, 431040, Note_on_c, 0, 53, 70
5, 431040, Note_on_c, 0, 59, 70
5, 431160, Note_on_c, 0, 59, 0
5, 431160, Note_on_c, 0, 53, 0
5, 431160, Note_on_c, 0, 62, 70
5, 431280, Note_on_c, 0, 62, 0
5, 431280, Note_on_c, 0, 53, 70
5, 431280, Note_on_c, 0, 59, 70
5, 431400, Note_on_c, 0, 59, 0
5, 431400, Note_on_c, 0, 53, 0
5, 431400, Note_on_c, 0, 62, 70
5, 431520, Note_on_c, 0, 62, 0
5, 431520, Note_on_c, 0, 53, 70
5, 431520, Note_on_c, 0, 59, 70
5, 431640, Note_on_c, 0, 59, 0
5, 431640, Note_on_c, 0, 53, 0
5, 431640, Note_on_c, 0, 62, 70
5, 431760, Note_on_c, 0, 62, 0
5, 431760, Note_on_c, 0, 53, 70
5, 431760, Note_on_c, 0, 59, 70
5, 431880, Note_on_c, 0, 59, 0
5, 431880, Note_on_c, 0, 53, 0
5, 431880, Note_on_c, 0, 62, 70
5, 432000, Note_on_c, 0, 62, 0
5, 432000, Note_on_c, 0, 53, 70
5, 432000, Note_on_c, 0, 59, 70
5, 432120, Note_on_c, 0, 59, 0
5, 432120, Note_on_c, 0, 53, 0
5, 432120, Note_on_c, 0, 62, 70
5, 432240, Note_on_c, 0, 62, 0
5, 432240, Note_on_c, 0, 53, 70
5, 432240, Note_on_c, 0, 59, 70
5, 432360, Note_on_c, 0, 59, 0
5, 432360, Note_on_c, 0, 53, 0
5, 432360, Note_on_c, 0, 62, 70
5, 432480, Note_on_c, 0, 62, 0
5, 432480, Note_on_c, 0, 53, 70
5, 432480, Note_on_c, 0, 59, 70
5, 432600, Note_on_c, 0, 59, 0
5, 432600, Note_on_c, 0, 53, 0
5, 432600, Note_on_c, 0, 62, 70
5, 432720, Note_on_c, 0, 62, 0
5, 432720, Note_on_c, 0, 53, 70
5, 432720, Note_on_c, 0, 59, 70
5, 432840, Note_on_c, 0, 59, 0
5, 432840, Note_on_c, 0, 53, 0
5, 432840, Control_c, 0, 64, 0
5, 432840, Note_on_c, 0, 62, 70
5, 432960, Note_on_c, 0, 62, 0
5, 432960, Control_c, 0, 64, 127
5, 432960, Note_on_c, 0, 36, 83
5, 432960, Note_on_c, 0, 48, 83
5, 432960, Note_on_c, 0, 54, 83
5, 432960, Note_on_c, 0, 63, 83
5, 433280, Note_on_c, 0, 63, 0
5, 433280, Note_on_c, 0, 36, 0
5, 433280, Note_on_c, 0, 48, 0
5, 433280, Note_on_c, 0, 54, 0
5, 433280, Note_on_c, 0, 54, 83
5, 433280, Note_on_c, 0, 63, 83
5, 433599, Note_on_c, 0, 63, 0
5, 433599, Note_on_c, 0, 54, 0
5, 433599, Note_on_c, 0, 54, 83
5, 433599, Note_on_c, 0, 63, 83
5, 433920, Note_on_c, 0, 63, 0
5, 433920, Note_on_c, 0, 54, 0
5, 433920, Note_on_c, 0, 54, 70
5, 434040, Note_on_c, 0, 54, 0
5, 434040, Note_on_c, 0, 63, 70
5, 434160, Note_on_c, 0, 63, 0
5, 434160, Note_on_c, 0, 54, 70
5, 434280, Note_on_c, 0, 54, 0
5, 434280, Note_on_c, 0, 63, 70
5, 434400, Note_on_c, 0, 63, 0
5, 434400, Note_on_c, 0, 54, 70
5, 434520, Note_on_c, 0, 54, 0
5, 434520, Note_on_c, 0, 63, 70
5, 434640, Note_on_c, 0, 63, 0
5, 434640, Note_on_c, 0, 54, 70
5, 434760, Note_on_c, 0, 54, 0
5, 434760, Note_on_c, 0, 63, 70
5, 434880, Note_on_c, 0, 63, 0
5, 434880, Note_on_c, 0, 54, 70
5, 435000, Note_on_c, 0, 54, 0
5, 435000, Note_on_c, 0, 63, 70
5, 435120, Note_on_c, 0, 63, 0
5, 435120, Note_on_c, 0, 54, 70
5, 435240, Note_on_c, 0, 54, 0
5, 435240, Note_on_c, 0, 63, 70
5, 435360, Note_on_c, 0, 63, 0
5, 435360, Note_on_c, 0, 54, 70
5, 435480, Note_on_c, 0, 54, 0
5, 435480, Note_on_c, 0, 63, 70
5, 435600, Note_on_c, 0, 63, 0
5, 435600, Note_on_c, 0, 54, 70
5, 435720, Note_on_c, 0, 54, 0
5, 435720, Note_on_c, 0, 63, 57
5, 435840, Note_on_c, 0, 63, 0
5, 435840, Note_on_c, 0, 54, 57
5, 435960, Note_on_c, 0, 54, 0
5, 435960, Note_on_c, 0, 63, 57
5, 436080, Note_on_c, 0, 63, 0
5, 436080, Note_on_c, 0, 54, 57
5, 436200, Note_on_c, 0, 54, 0
5, 436200, Note_on_c, 0, 63, 57
5, 436320, Note_on_c, 0, 63, 0
5, 436320, Note_on_c, 0, 54, 57
5, 436440, Note_on_c, 0, 54, 0
5, 436440, Note_on_c, 0, 63, 57
5, 436560, Note_on_c, 0, 63, 0
5, 436560, Note_on_c, 0, 54, 57
5, 436680, Note_on_c, 0, 54, 0
5, 436680, Control_c, 0, 64, 0
5, 436680, Note_on_c, 0, 63, 57
5, 436800, Note_on_c, 0, 63, 0
5, 436800, Control_c, 0, 64, 127
5, 436800, Note_on_c, 0, 48, 70
5, 436800, Note_on_c, 0, 55, 70
5, 436800, Note_on_c, 0, 60, 70
5, 436800, Note_on_c, 0, 64, 70
5, 437120, Note_on_c, 0, 64, 0
5, 437120, Note_on_c, 0, 48, 0
5, 437120, Note_on_c, 0, 55, 0
5, 437120, Note_on_c, 0, 60, 0
5, 437120, Note_on_c, 0, 55, 70
5, 437120, Note_on_c, 0, 60, 70
5, 437120, Note_on_c, 0, 64, 70
5, 437439, Note_on_c, 0, 64, 0
5, 437439, Note_on_c, 0, 60, 0
5, 437439, Note_on_c, 0, 55, 0
5, 437439, Note_on_c, 0, 55, 70
5, 437439, Note_on_c, 0, 60, 70
5, 437439, Note_on_c, 0, 64, 70
5, 437760, Note_on_c, 0, 64, 0
5, 437760, Note_on_c, 0, 60, 0
5, 437760, Note_on_c, 0, 55, 0
5, 437760, Note_on_c, 0, 55, 57
5, 437760, Note_on_c, 0, 60, 57
5, 437880, Note_on_c, 0, 60, 0
5, 437880, Note_on_c, 0, 55, 0
5, 437880, Note_on_c, 0, 64, 57
5, 438000, Note_on_c, 0, 64, 0
5, 438000, Note_on_c, 0, 55, 57
5, 438000, Note_on_c, 0, 60, 57
5, 438120, Note_on_c, 0, 60, 0
5, 438120, Note_on_c, 0, 55, 0
5, 438120, Note_on_c, 0, 64, 57
5, 438240, Note_on_c, 0, 64, 0
5, 438240, Note_on_c, 0, 55, 57
5, 438240, Note_on_c, 0, 60, 57
5, 438360, Note_on_c, 0, 60, 0
5, 438360, Note_on_c, 0, 55, 0
5, 438360, Note_on_c, 0, 64, 57
5, 438480, Note_on_c, 0, 64, 0
5, 438480, Note_on_c, 0, 55, 57
5, 438480, Note_on_c, 0, 60, 57
5, 438600, Note_on_c, 0, 60, 0
5, 438600, Note_on_c, 0, 55, 0
5, 438600, Note_on_c, 0, 64, 57
5, 438720, Note_on_c, 0, 64, 0
5, 438720, Note_on_c, 0, 55, 57
5, 438840, Note_on_c, 0, 55, 0
5, 438840, Note_on_c, 0, 64, 57
5, 438960, Note_on_c, 0, 64, 0
5, 438960, Note_on_c, 0, 55, 57
5, 439080, Note_on_c, 0, 55, 0
5, 439080, Note_on_c, 0, 64, 57
5, 439200, Note_on_c, 0, 64, 0
5, 439200, Note_on_c, 0, 55, 57
5, 439320, Note_on_c, 0, 55, 0
5, 439320, Note_on_c, 0, 64, 57
5, 439440, Note_on_c, 0, 64, 0
5, 439440, Note_on_c, 0, 55, 57
5, 439560, Note_on_c, 0, 55, 0
5, 439560, Note_on_c, 0, 64, 57
5, 439680, Note_on_c, 0, 64, 0
5, 439680, Note_on_c, 0, 55, 44
5, 439800, Note_on_c, 0, 55, 0
5, 439800, Note_on_c, 0, 64, 44
5, 439920, Note_on_c, 0, 64, 0
5, 439920, Note_on_c, 0, 55, 44
5, 440040, Note_on_c, 0, 55, 0
5, 440040, Note_on_c, 0, 64, 44
5, 440160, Note_on_c, 0, 64, 0
5, 440160, Note_on_c, 0, 55, 44
5, 440280, Note_on_c, 0, 55, 0
5, 440280, Note_on_c, 0, 64, 44
5, 440400, Note_on_c, 0, 64, 0
5, 440400, Note_on_c, 0, 55, 44
5, 440520, Note_on_c, 0, 55, 0
5, 440520, Control_c, 0, 64, 0
5, 440520, Note_on_c, 0, 64, 44
5, 440640, Note_on_c, 0, 64, 0
5, 440640, Control_c, 0, 64, 127
5, 440640, Note_on_c, 0, 36, 83
5, 440640, Note_on_c, 0, 48, 83
5, 440640, Note_on_c, 0, 54, 83
5, 440640, Note_on_c, 0, 63, 83
5, 440960, Note_on_c, 0, 63, 0
5, 440960, Note_on_c, 0, 36, 0
5, 440960, Note_on_c, 0, 48, 0
5, 440960, Note_on_c, 0, 54, 0
5, 440960, Note_on_c, 0, 54, 83
5, 440960, Note_on_c, 0, 63, 83
5, 441279, Note_on_c, 0, 63, 0
5, 441279, Note_on_c, 0, 54, 0
5, 441279, Note_on_c, 0, 54, 83
5, 441279, Note_on_c, 0, 63, 83
5, 441600, Note_on_c, 0, 63, 0
5, 441600, Note_on_c, 0, 54, 0
5, 441600, Note_on_c, 0, 54, 70
5, 441720, Note_on_c, 0, 54, 0
5, 441720, Note_on_c, 0, 63, 70
5, 441840, Note_on_c, 0, 63, 0
5, 441840, Note_on_c, 0, 54, 70
5, 441960, Note_on_c, 0, 54, 0
5, 441960, Note_on_c, 0, 63, 70
5, 442080, Note_on_c, 0, 63, 0
5, 442080, Note_on_c, 0, 54, 70
5, 442200, Note_on_c, 0, 54, 0
5, 442200, Note_on_c, 0, 63, 70
5, 442320, Note_on_c, 0, 63, 0
5, 442320, Note_on_c, 0, 54, 70
5, 442440, Note_on_c, 0, 54, 0
5, 442440, Note_on_c, 0, 63, 70
5, 442560, Note_on_c, 0, 63, 0
5, 442560, Note_on_c, 0, 54, 70
5, 442680, Note_on_c, 0, 54, 0
5, 442680, Note_on_c, 0, 63, 70
5, 442800, Note_on_c, 0, 63, 0
5, 442800, Note_on_c, 0, 54, 70
5, 442920, Note_on_c, 0, 54, 0
5, 442920, Note_on_c, 0, 63, 70
5, 443040, Note_on_c, 0, 63, 0
5, 443040, Note_on_c, 0, 54, 70
5, 443160, Note_on_c, 0, 54, 0
5, 443160, Note_on_c, 0, 63, 70
5, 443280, Note_on_c, 0, 63, 0
5, 443280, Note_on_c, 0, 54, 70
5, 443400, Note_on_c, 0, 54, 0
5, 443400, Note_on_c, 0, 63, 70
5, 443520, Note_on_c, 0, 63, 0
5, 443520, Note_on_c, 0, 54, 57
5, 443640, Note_on_c, 0, 54, 0
5, 443640, Note_on_c, 0, 63, 57
5, 443760, Note_on_c, 0, 63, 0
5, 443760, Note_on_c, 0, 54, 57
5, 443880, Note_on_c, 0, 54, 0
5, 443880, Note_on_c, 0, 63, 57
5, 444000, Note_on_c, 0, 63, 0
5, 444000, Note_on_c, 0, 54, 57
5, 444120, Note_on_c, 0, 54, 0
5, 444120, Note_on_c, 0, 63, 57
5, 444240, Note_on_c, 0, 63, 0
5, 444240, Note_on_c, 0, 54, 57
5, 444360, Note_on_c, 0, 54, 0
5, 444360, Control_c, 0, 64, 0
5, 444360, Note_on_c, 0, 63, 57
5, 444480, Note_on_c, 0, 63, 0
5, 444480, Control_c, 0, 64, 127
5, 444480, Note_on_c, 0, 48, 70
5, 444480, Note_on_c, 0, 55, 70
5, 444480, Note_on_c, 0, 60, 70
5, 444480, Note_on_c, 0, 64, 70
5, 444800, Note_on_c, 0, 64, 0
5, 444800, Note_on_c, 0, 48, 0
5, 444800, Note_on_c, 0, 55, 0
5, 444800, Note_on_c, 0, 60, 0
5, 444800, Note_on_c, 0, 55, 70
5, 444800, Note_on_c, 0, 60, 70
5, 444800, Note_on_c, 0, 64, 70
5, 445119, Note_on_c, 0, 64, 0
5, 445119, Note_on_c, 0, 60, 0
5, 445119, Note_on_c, 0, 55, 0
5, 445119, Note_on_c, 0, 55, 70
5, 445119, Note_on_c, 0, 60, 70
5, 445119, Note_on_c, 0, 64, 70
5, 445440, Note_on_c, 0, 64, 0
5, 445440, Note_on_c, 0, 60, 0
5, 445440, Note_on_c, 0, 55, 0
5, 445440, Note_on_c, 0, 55, 57
5, 445440, Note_on_c, 0, 60, 57
5, 445560, Note_on_c, 0, 60, 0
5, 445560, Note_on_c, 0, 55, 0
5, 445560, Note_on_c, 0, 64, 57
5, 445680, Note_on_c, 0, 64, 0
5, 445680, Note_on_c, 0, 55, 57
5, 445680, Note_on_c, 0, 60, 57
5, 445800, Note_on_c, 0, 60, 0
5, 445800, Note_on_c, 0, 55, 0
5, 445800, Note_on_c, 0, 64, 57
5, 445920, Note_on_c, 0, 64, 0
5, 445920, Note_on_c, 0, 55, 57
5, 445920, Note_on_c, 0, 60, 57
5, 446040, Note_on_c, 0, 60, 0
5, 446040, Note_on_c, 0, 55, 0
5, 446040, Note_on_c, 0, 64, 57
5, 446160, Note_on_c, 0, 64, 0
5, 446160, Note_on_c, 0, 55, 57
5, 446160, Note_on_c, 0, 60, 57
5, 446280, Note_on_c, 0, 60, 0
5, 446280, Note_on_c, 0, 55, 0
5, 446280, Note_on_c, 0, 64, 57
5, 446400, Note_on_c, 0, 64, 0
5, 446400, Note_on_c, 0, 55, 57
5, 446520, Note_on_c, 0, 55, 0
5, 446520, Note_on_c, 0, 64, 57
5, 446640, Note_on_c, 0, 64, 0
5, 446640, Note_on_c, 0, 55, 57
5, 446760, Note_on_c, 0, 55, 0
5, 446760, Note_on_c, 0, 64, 57
5, 446880, Note_on_c, 0, 64, 0
5, 446880, Note_on_c, 0, 55, 57
5, 447000, Note_on_c, 0, 55, 0
5, 447000, Note_on_c, 0, 64, 57
5, 447120, Note_on_c, 0, 64, 0
5, 447120, Note_on_c, 0, 55, 57
5, 447240, Note_on_c, 0, 55, 0
5, 447240, Note_on_c, 0, 64, 57
5, 447360, Note_on_c, 0, 64, 0
5, 447360, Note_on_c, 0, 55, 44
5, 447480, Note_on_c, 0, 55, 0
5, 447480, Note_on_c, 0, 64, 44
5, 447600, Note_on_c, 0, 64, 0
5, 447600, Note_on_c, 0, 55, 44
5, 447720, Note_on_c, 0, 55, 0
5, 447720, Note_on_c, 0, 64, 44
5, 447840, Note_on_c, 0, 64, 0
5, 447840, Note_on_c, 0, 55, 44
5, 447960, Note_on_c, 0, 55, 0
5, 447960, Note_on_c, 0, 64, 44
5, 448080, Note_on_c, 0, 64, 0
5, 448080, Note_on_c, 0, 55, 44
5, 448200, Note_on_c, 0, 55, 0
5, 448200, Control_c, 0, 64, 0
5, 448200, Note_on_c, 0, 64, 44
5, 448320, Note_on_c, 0, 64, 0
5, 448320, Control_c, 0, 64, 127
5, 448320, Note_on_c, 0, 52, 44
5, 448440, Note_on_c, 0, 52, 0
5, 448440, Note_on_c, 0, 55, 44
5, 448560, Note_on_c, 0, 55, 0
5, 448560, Note_on_c, 0, 52, 44
5, 448680, Note_on_c, 0, 52, 0
5, 448680, Note_on_c, 0, 55, 44
5, 448800, Note_on_c, 0, 55, 0
5, 448800, Note_on_c, 0, 52, 44
5, 448920, Note_on_c, 0, 52, 0
5, 448920, Note_on_c, 0, 55, 44
5, 449040, Note_on_c, 0, 55, 0
5, 449040, Note_on_c, 0, 52, 44
5, 449160, Note_on_c, 0, 52, 0
5, 449160, Note_on_c, 0, 55, 44
5, 449280, Note_on_c, 0, 55, 0
5, 449280, Note_on_c, 0, 52, 44
5, 449400, Note_on_c, 0, 52, 0
5, 449400, Note_on_c, 0, 55, 44
5, 449520, Note_on_c, 0, 55, 0
5, 449520, Note_on_c, 0, 52, 44
5, 449640, Note_on_c, 0, 52, 0
5, 449640, Note_on_c, 0, 55, 44
5, 449760, Note_on_c, 0, 55, 0
5, 449760, Note_on_c, 0, 52, 44
5, 449880, Note_on_c, 0, 52, 0
5, 449880, Note_on_c, 0, 55, 44
5, 450000, Note_on_c, 0, 55, 0
5, 450000, Note_on_c, 0, 52, 44
5, 450120, Note_on_c, 0, 52, 0
5, 450120, Control_c, 0, 64, 0
5, 450120, Note_on_c, 0, 55, 44
5, 450240, Note_on_c, 0, 55, 0
5, 450240, Control_c, 0, 64, 127
5, 450240, Note_on_c, 0, 40, 57
5, 450360, Note_on_c, 0, 40, 0
5, 450360, Note_on_c, 0, 43, 57
5, 450480, Note_on_c, 0, 43, 0
5, 450480, Note_on_c, 0, 40, 57
5, 450600, Note_on_c, 0, 40, 0
5, 450600, Note_on_c, 0, 43, 57
5, 450720, Note_on_c, 0, 43, 0
5, 450720, Note_on_c, 0, 40, 57
5, 450840, Note_on_c, 0, 40, 0
5, 450840, Note_on_c, 0, 43, 57
5, 450960, Note_on_c, 0, 43, 0
5, 450960, Note_on_c, 0, 40, 57
5, 451080, Note_on_c, 0, 40, 0
5, 451080, Note_on_c, 0, 43, 57
5, 451200, Note_on_c, 0, 43, 0
5, 451200, Note_on_c, 0, 40, 57
5, 451320, Note_on_c, 0, 40, 0
5, 451320, Note_on_c, 0, 43, 57
5, 451440, Note_on_c, 0, 43, 0
5, 451440, Note_on_c, 0, 40, 57
5, 451560, Note_on_c, 0, 40, 0
5, 451560, Note_on_c, 0, 43, 57
5, 451680, Note_on_c, 0, 43, 0
5, 451680, Note_on_c, 0, 40, 57
5, 451800, Note_on_c, 0, 40, 0
5, 451800, Note_on_c, 0, 43, 57
5, 451920, Note_on_c, 0, 43, 0
5, 451920, Note_on_c, 0, 40, 57
5, 452040, Note_on_c, 0, 40, 0
5, 452040, Control_c, 0, 64, 0
5, 452040, Note_on_c, 0, 43, 57
5, 452160, Note_on_c, 0, 43, 0
5, 452160, Control_c, 0, 64, 127
5, 452160, Note_on_c, 0, 38, 70
5, 452160, Note_on_c, 0, 50, 70
5, 452640, Note_on_c, 0, 50, 0
5, 452640, Note_on_c, 0, 38, 0
5, 452640, Note_on_c, 0, 36, 70
5, 452640, Note_on_c, 0, 48, 70
5, 453120, Note_on_c, 0, 48, 0
5, 453120, Note_on_c, 0, 36, 0
5, 453120, Note_on_c, 0, 35, 57
5, 453120, Note_on_c, 0, 47, 57
5, 453600, Note_on_c, 0, 47, 0
5, 453600, Note_on_c, 0, 35, 0
5, 453600, Control_c, 0, 64, 0
5, 453600, Note_on_c, 0, 36, 57
5, 453600, Note_on_c, 0, 48, 57
5, 454080, Note_on_c, 0, 48, 0
5, 454080, Note_on_c, 0, 36, 0
5, 454080, Note_on_c, 0, 48, 70
5, 454080, Note_on_c, 0, 60, 70
5, 455520, Note_on_c, 0, 60, 0
5, 455520, Note_on_c, 0, 48, 0
5, 455520, Note_on_c, 0, 48, 70
5, 455520, Note_on_c, 0, 60, 70
5, 456000, Note_on_c, 0, 60, 0
5, 456000, Note_on_c, 0, 48, 0
5, 456000, Control_c, 0, 64, 127
5, 456000, Note_on_c, 0, 38, 57
5, 456000, Note_on_c, 0, 50, 57
5, 456480, Note_on_c, 0, 50, 0
5, 456480, Note_on_c, 0, 38, 0
5, 456480, Note_on_c, 0, 36, 57
5, 456480, Note_on_c, 0, 48, 57
5, 456960, Note_on_c, 0, 48, 0
5, 456960, Note_on_c, 0, 36, 0
5, 456960, Note_on_c, 0, 35, 57
5, 456960, Note_on_c, 0, 47, 57
5, 457440, Note_on_c, 0, 47, 0
5, 457440, Note_on_c, 0, 35, 0
5, 457440, Control_c, 0, 64, 0
5, 457440, Note_on_c, 0, 36, 57
5, 457440, Note_on_c, 0, 48, 57
5, 457920, Note_on_c, 0, 48, 0
5, 457920, Note_on_c, 0, 36, 0
5, 457920, Note_on_c, 0, 48, 70
5, 457920, Note_on_c, 0, 60, 70
5, 459360, Note_on_c, 0, 60, 0
5, 459360, Note_on_c, 0, 48, 0
5, 459360, Note_on_c, 0, 48, 70
5, 459360, Note_on_c, 0, 60, 70
5, 459840, Note_on_c, 0, 60, 0
5, 459840, Note_on_c, 0, 48, 0
5, 459840, Control_c, 0, 64, 127
5, 459840, Note_on_c, 0, 38, 57
5, 459840, Note_on_c, 0, 50, 57
5, 460800, Note_on_c, 0, 50, 0
5, 460800, Note_on_c, 0, 38, 0
5, 460800, Note_on_c, 0, 36, 57
5, 460800, Note_on_c, 0, 48, 57
5, 461760, Note_on_c, 0, 48, 0
5, 461760, Note_on_c, 0, 36, 0
5, 461760, Note_on_c, 0, 35, 57
5, 461760, Note_on_c, 0, 47, 57
5, 462720, Note_on_c, 0, 47, 0
5, 462720, Note_on_c, 0, 35, 0
5, 462720, Control_c, 0, 64, 0
5, 462720, Note_on_c, 0, 36, 57
5, 462720, Note_on_c, 0, 48, 57
5, 463680, Note_on_c, 0, 48, 0
5, 463680, Note_on_c, 0, 36, 0
5, 463680, Note_on_c, 0, 48, 57
5, 463680, Note_on_c, 0, 60, 57
5, 465600, Note_on_c, 0, 60, 0
5, 465600, Note_on_c, 0, 48, 0
5, 465600, Note_on_c, 0, 48, 57
5, 465600, Note_on_c, 0, 60, 57
5, 467040, Note_on_c, 0, 60, 0
5, 467040, Note_on_c, 0, 48, 0
5, 467040, Note_on_c, 0, 48, 44
5, 467040, Note_on_c, 0, 60, 44
5, 467520, Note_on_c, 0, 60, 0
5, 467520, Note_on_c, 0, 48, 0
5, 467520, Control_c, 0, 64, 127
5, 467520, Note_on_c, 0, 38, 44
5, 467520, Note_on_c, 0, 50, 44
5, 468480, Note_on_c, 0, 50, 0
5, 468480, Note_on_c, 0, 38, 0
5, 468480, Note_on_c, 0, 36, 44
5, 468480, Note_on_c, 0, 48, 44
5, 469440, Note_on_c, 0, 48, 0
5, 469440, Note_on_c, 0, 36, 0
5, 469440, Note_on_c, 0, 35, 44
5, 469440, Note_on_c, 0, 47, 44
5, 470400, Note_on_c, 0, 47, 0
5, 470400, Note_on_c, 0, 35, 0
5, 470400, Control_c, 0, 64, 0
5, 470400, Note_on_c, 0, 36, 44
5, 470400, Note_on_c, 0, 48, 44
5, 471360, Note_on_c, 0, 48, 0
5, 471360, Note_on_c, 0, 36, 0
5, 471360, Note_on_c, 0, 48, 44
5, 471360, Note_on_c, 0, 60, 44
5, 473280, Note_on_c, 0, 60, 0
5, 473280, Note_on_c, 0, 48, 0
5, 473280, Note_on_c, 0, 48, 44
5, 473280, Note_on_c, 0, 60, 44
5, 474720, Note_on_c, 0, 60, 0
5, 474720, Note_on_c, 0, 48, 0
5, 474720, Note_on_c, 0, 48, 44
5, 474720, Note_on_c, 0, 60, 44
5, 475200, Note_on_c, 0, 60, 0
5, 475200, Note_on_c, 0, 48, 0
5, 475200, Control_c, 0, 64, 127
5, 475200, Note_on_c, 0, 36, 44
5, 475520, Note_on_c, 0, 36, 0
5, 475520, Note_on_c, 0, 43, 44
5, 475839, Note_on_c, 0, 43, 0
5, 475839, Note_on_c, 0, 48, 44
5, 476160, Note_on_c, 0, 48, 0
5, 476160, Note_on_c, 0, 52, 44
5, 476640, Note_on_c, 0, 52, 0
5, 477440, Note_on_c, 0, 60, 44
5, 477759, Note_on_c, 0, 60, 0
5, 477759, Note_on_c, 0, 64, 44
5, 478080, Note_on_c, 0, 64, 0
5, 478080, Note_on_c, 0, 67, 44
5, 478560, Note_on_c, 0, 67, 0
5, 478560, Control_c, 0, 64, 0
5, 494400, Note_on_c, 0, 65, 44
5, 494400, Note_on_c, 0, 72, 44
5, 494400, Note_on_c, 0, 75, 44
5, 494400, Note_on_c, 0, 77, 44
5, 496320, Note_on_c, 0, 77, 0
5, 496320, Note_on_c, 0, 65, 0
5, 496320, Note_on_c, 0, 72, 0
5, 496320, Note_on_c, 0, 75, 0
5, 496320, Note_on_c, 0, 53, 44
5, 496320, Note_on_c, 0, 60, 44
5, 496320, Note_on_c, 0, 63, 44
5, 496320, Note_on_c, 0, 65, 44
5, 498240, Note_on_c, 0, 65, 0
5, 498240, Note_on_c, 0, 53, 0
5, 498240, Note_on_c, 0, 60, 0
5, 498240, Note_on_c, 0, 63, 0
5, 498240, Note_on_c, 0, 41, 44
5, 498240, Note_on_c, 0, 48, 44
5, 498240, Note_on_c, 0, 51, 44
5, 498240, Note_on_c, 0, 65, 44
5, 498395, Control_c, 0, 64, 127
5, 500160, Note_on_c, 0, 65, 0
5, 500160, Note_on_c, 0, 41, 0
5, 500160, Note_on_c, 0, 48, 0
5, 500160, Note_on_c, 0, 51, 0
5, 500160, Control_c, 0, 64, 127
5, 500160, Note_on_c, 0, 29, 57
5, 500160, Note_on_c, 0, 41, 57
5, 500640, Note_on_c, 0, 41, 0
5, 500640, Note_on_c, 0, 29, 0
5, 500640, Note_on_c, 0, 36, 57
5, 500640, Note_on_c, 0, 48, 57
5, 501120, Note_on_c, 0, 48, 0
5, 501120, Note_on_c, 0, 36, 0
5, 501120, Note_on_c, 0, 33, 57
5, 501120, Note_on_c, 0, 45, 57
5, 501600, Note_on_c, 0, 45, 0
5, 501600, Note_on_c, 0, 33, 0
5, 501600, Note_on_c, 0, 31, 57
5, 501600, Note_on_c, 0, 43, 57
5, 501840, Note_on_c, 0, 43, 0
5, 501840, Note_on_c, 0, 31, 0
5, 501840, Note_on_c, 0, 33, 57
5, 501840, Note_on_c, 0, 45, 57
5, 502080, Note_on_c, 0, 45, 0
5, 502080, Note_on_c, 0, 33, 0
5, 502080, Control_c, 0, 64, 0
5, 502080, Note_on_c, 0, 29, 57
5, 502080, Note_on_c, 0, 41, 57
5, 502560, Note_on_c, 0, 41, 0
5, 502560, Note_on_c, 0, 29, 0
5, 564000, Note_on_c, 0, 40, 83
5, 564000, Note_on_c, 0, 52, 83
5, 564480, Note_on_c, 0, 52, 0
5, 564480, Note_on_c, 0, 40, 0
5, 564480, Note_on_c, 0, 41, 83
5, 564480, Note_on_c, 0, 53, 83
5, 564960, Note_on_c, 0, 53, 0
5, 564960, Note_on_c, 0, 41, 0
5, 564960, Note_on_c, 0, 43, 83
5, 564960, Note_on_c, 0, 55, 83
5, 565440, Note_on_c, 0, 55, 0
5, 565440, Note_on_c, 0, 43, 0
5, 565440, Note_on_c, 0, 44, 83
5, 565440, Note_on_c, 0, 56, 83
5, 565920, Note_on_c, 0, 56, 0
5, 565920, Note_on_c, 0, 44, 0
5, 565920, Note_on_c, 0, 46, 83
5, 565920, Note_on_c, 0, 58, 83
5, 566400, Note_on_c, 0, 58, 0
5, 566400, Note_on_c, 0, 46, 0
5, 566400, Note_on_c, 0, 48, 83
5, 566400, Note_on_c, 0, 60, 83
5, 566880, Note_on_c, 0, 60, 0
5, 566880, Note_on_c, 0, 48, 0
5, 566880, Note_on_c, 0, 50, 83
5, 566880, Note_on_c, 0, 62, 83
5, 567360, Note_on_c, 0, 62, 0
5, 567360, Note_on_c, 0, 50, 0
5, 567360, Note_on_c, 0, 51, 83
5, 567360, Note_on_c, 0, 55, 83
5, 567360, Note_on_c, 0, 58, 83
5, 567360, Note_on_c, 0, 63, 83
5, 568320, Note_on_c, 0, 63, 0
5, 568320, Note_on_c, 0, 51, 0
5, 568320, Note_on_c, 0, 55, 0
5, 568320, Note_on_c, 0, 58, 0
5, 568320, Note_on_c, 0, 48, 83
5, 568320, Note_on_c, 0, 51, 83
5, 568320, Note_on_c, 0, 55, 83
5, 568320, Note_on_c, 0, 60, 83
5, 569040, Note_on_c, 0, 60, 0
5, 569040, Note_on_c, 0, 48, 0
5, 569040, Note_on_c, 0, 51, 0
5, 569040, Note_on_c, 0, 55, 0
5, 569040, Note_on_c, 0, 44, 83
5, 569040, Note_on_c, 0, 48, 83
5, 569040, Note_on_c, 0, 51, 83
5, 569040, Note_on_c, 0, 56, 83
5, 569280, Note_on_c, 0, 56, 0
5, 569280, Note_on_c, 0, 44, 0
5, 569280, Note_on_c, 0, 48, 0
5, 569280, Note_on_c, 0, 51, 0
5, 569280, Note_on_c, 0, 51, 83
5, 569280, Note_on_c, 0, 55, 83
5, 569280, Note_on_c, 0, 58, 83
5, 569280, Note_on_c, 0, 63, 83
5, 569760, Note_on_c, 0, 63, 0
5, 569760, Note_on_c, 0, 51, 0
5, 569760, Note_on_c, 0, 55, 0
5, 569760, Note_on_c, 0, 58, 0
5, 570720, Note_on_c, 0, 43, 83
5, 570720, Note_on_c, 0, 46, 83
5, 570720, Note_on_c, 0, 55, 83
5, 571200, Note_on_c, 0, 55, 0
5, 571200, Note_on_c, 0, 46, 0
5, 571200, Note_on_c, 0, 43, 0
5, 571200, Note_on_c, 0, 41, 83
5, 571200, Note_on_c, 0, 46, 83
5, 571200, Note_on_c, 0, 53, 83
5, 571440, Note_on_c, 0, 53, 0
5, 571440, Note_on_c, 0, 46, 0
5, 571440, Note_on_c, 0, 41, 0
5, 571440, Note_on_c, 0, 40, 83
5, 571440, Note_on_c, 0, 46, 83
5, 571440, Note_on_c, 0, 52, 83
5, 571680, Note_on_c, 0, 52, 0
5, 571680, Note_on_c, 0, 46, 0
5, 571680, Note_on_c, 0, 40, 0
5, 571680, Note_on_c, 0, 41, 83
5, 571680, Note_on_c, 0, 46, 83
5, 571680, Note_on_c, 0, 53, 83
5, 572640, Note_on_c, 0, 53, 0
5, 572640, Note_on_c, 0, 46, 0
5, 572640, Note_on_c, 0, 41, 0
5, 572640, Note_on_c, 0, 39, 83
5, 572640, Note_on_c, 0, 43, 83
5, 572640, Note_on_c, 0, 46, 83
5, 572640, Note_on_c, 0, 51, 83
5, 573120, Note_on_c, 0, 51, 0
5, 573120, Note_on_c, 0, 39, 0
5, 573120, Note_on_c, 0, 43, 0
5, 573120, Note_on_c, 0, 46, 0
5, 573120, Note_on_c, 0, 46, 83
5, 573120, Note_on_c, 0, 51, 83
5, 573120, Note_on_c, 0, 55, 83
5, 573120, Note_on_c, 0, 58, 83
5, 573600, Note_on_c, 0, 58, 0
5, 573600, Note_on_c, 0, 46, 0
5, 573600, Note_on_c, 0, 51, 0
5, 573600, Note_on_c, 0, 55, 0
5, 573600, Note_on_c, 0, 46, 83
5, 573600, Note_on_c, 0, 50, 83
5, 573600, Note_on_c, 0, 53, 83
5, 573600, Note_on_c, 0, 58, 83
5, 574080, Note_on_c, 0, 58, 0
5, 574080, Note_on_c, 0, 46, 0
5, 574080, Note_on_c, 0, 50, 0
5, 574080, Note_on_c, 0, 53, 0
5, 575040, Note_on_c, 0, 51, 83
5, 575040, Note_on_c, 0, 55, 83
5, 575040, Note_on_c, 0, 58, 83
5, 575040, Note_on_c, 0, 63, 83
5, 576000, Note_on_c, 0, 63, 0
5, 576000, Note_on_c, 0, 51, 0
5, 576000, Note_on_c, 0, 55, 0
5, 576000, Note_on_c, 0, 58, 0
5, 576000, Note_on_c, 0, 48, 83
5, 576000, Note_on_c, 0, 51, 83
5, 576000, Note_on_c, 0, 55, 83
5, 576000, Note_on_c, 0, 60, 83
5, 576720, Note_on_c, 0, 60, 0
5, 576720, Note_on_c, 0, 48, 0
5, 576720, Note_on_c, 0, 51, 0
5, 576720, Note_on_c, 0, 55, 0
5, 576720, Note_on_c, 0, 44, 83
5, 576720, Note_on_c, 0, 48, 83
5, 576720, Note_on_c, 0, 51, 83
5, 576720, Note_on_c, 0, 56, 83
5, 576960, Note_on_c, 0, 56, 0
5, 576960, Note_on_c, 0, 44, 0
5, 576960, Note_on_c, 0, 48, 0
5, 576960, Note_on_c, 0, 51, 0
5, 576960, Note_on_c, 0, 51, 83
5, 576960, Note_on_c, 0, 55, 83
5, 576960, Note_on_c, 0, 58, 83
5, 576960, Note_on_c, 0, 63, 83
5, 577440, Note_on_c, 0, 63, 0
5, 577440, Note_on_c, 0, 51, 0
5, 577440, Note_on_c, 0, 55, 0
5, 577440, Note_on_c, 0, 58, 0
5, 578400, Note_on_c, 0, 43, 83
5, 578400, Note_on_c, 0, 46, 83
5, 578400, Note_on_c, 0, 55, 83
5, 578880, Note_on_c, 0, 55, 0
5, 578880, Note_on_c, 0, 46, 0
5, 578880, Note_on_c, 0, 43, 0
5, 578880, Note_on_c, 0, 41, 83
5, 578880, Note_on_c, 0, 46, 83
5, 578880, Note_on_c, 0, 53, 83
5, 579120, Note_on_c, 0, 53, 0
5, 579120, Note_on_c, 0, 46, 0
5, 579120, Note_on_c, 0, 41, 0
5, 579120, Note_on_c, 0, 41, 83
5, 579120, Note_on_c, 0, 46, 83
5, 579120, Note_on_c, 0, 53, 83
5, 579360, Note_on_c, 0, 53, 0
5, 579360, Note_on_c, 0, 46, 0
5, 579360, Note_on_c, 0, 41, 0
5, 579360, Note_on_c, 0, 41, 83
5, 579360, Note_on_c, 0, 46, 83
5, 579360, Note_on_c, 0, 53, 83
5, 580320, Note_on_c, 0, 53, 0
5, 580320, Note_on_c, 0, 46, 0
5, 580320, Note_on_c, 0, 41, 0
5, 580320, Note_on_c, 0, 41, 83
5, 580320, Note_on_c, 0, 45, 83
5, 580320, Note_on_c, 0, 48, 83
5, 580320, Note_on_c, 0, 53, 83
5, 580800, Note_on_c, 0, 53, 0
5, 580800, Note_on_c, 0, 41, 0
5, 580800, Note_on_c, 0, 45, 0
5, 580800, Note_on_c, 0, 48, 0
5, 580800, Note_on_c, 0, 46, 83
5, 580800, Note_on_c, 0, 50, 83
5, 580800, Note_on_c, 0, 53, 83
5, 580800, Note_on_c, 0, 58, 83
5, 581280, Note_on_c, 0, 58, 0
5, 581280, Note_on_c, 0, 46, 0
5, 581280, Note_on_c, 0, 50, 0
5, 581280, Note_on_c, 0, 53, 0
5, 582720, Note_on_c, 0, 51, 83
5, 582720, Note_on_c, 0, 55, 83
5, 582720, Note_on_c, 0, 58, 83
5, 582720, Note_on_c, 0, 63, 83
5, 583680, Note_on_c, 0, 63, 0
5, 583680, Note_on_c, 0, 51, 0
5, 583680, Note_on_c, 0, 55, 0
5, 583680, Note_on_c, 0, 58, 0
5, 583680, Note_on_c, 0, 48, 83
5, 583680, Note_on_c, 0, 51, 83
5, 583680, Note_on_c, 0, 55, 83
5, 583680, Note_on_c, 0, 60, 83
5, 584400, Note_on_c, 0, 60, 0
5, 584400, Note_on_c, 0, 48, 0
5, 584400, Note_on_c, 0, 51, 0
5, 584400, Note_on_c, 0, 55, 0
5, 584400, Note_on_c, 0, 44, 83
5, 584400, Note_on_c, 0, 48, 83
5, 584400, Note_on_c, 0, 51, 83
5, 584400, Note_on_c, 0, 56, 83
5, 584640, Note_on_c, 0, 56, 0
5, 584640, Note_on_c, 0, 44, 0
5, 584640, Note_on_c, 0, 48, 0
5, 584640, Note_on_c, 0, 51, 0
5, 584640, Note_on_c, 0, 51, 83
5, 584640, Note_on_c, 0, 55, 83
5, 584640, Note_on_c, 0, 58, 83
5, 584640, Note_on_c, 0, 63, 83
5, 585120, Note_on_c, 0, 63, 0
5, 585120, Note_on_c, 0, 51, 0
5, 585120, Note_on_c, 0, 55, 0
5, 585120, Note_on_c, 0, 58, 0
5, 586080, Note_on_c, 0, 43, 83
5, 586080, Note_on_c, 0, 46, 83
5, 586080, Note_on_c, 0, 55, 83
5, 586560, Note_on_c, 0, 55, 0
5, 586560, Note_on_c, 0, 46, 0
5, 586560, Note_on_c, 0, 43, 0
5, 586560, Note_on_c, 0, 41, 83
5, 586560, Note_on_c, 0, 46, 83
5, 586560, Note_on_c, 0, 53, 83
5, 586800, Note_on_c, 0, 53, 0
5, 586800, Note_on_c, 0, 46, 0
5, 586800, Note_on_c, 0, 41, 0
5, 586800, Note_on_c, 0, 40, 83
5, 586800, Note_on_c, 0, 46, 83
5, 586800, Note_on_c, 0, 52, 83
5, 587040, Note_on_c, 0, 52, 0
5, 587040, Note_on_c, 0, 46, 0
5, 587040, Note_on_c, 0, 40, 0
5, 587040, Note_on_c, 0, 41, 83
5, 587040, Note_on_c, 0, 46, 83
5, 587040, Note_on_c, 0, 53, 83
5, 588000, Note_on_c, 0, 53, 0
5, 588000, Note_on_c, 0, 46, 0
5, 588000, Note_on_c, 0, 41, 0
5, 588000, Note_on_c, 0, 39, 83
5, 588000, Note_on_c, 0, 43, 83
5, 588000, Note_on_c, 0, 46, 83
5, 588000, Note_on_c, 0, 51, 83
5, 588480, Note_on_c, 0, 51, 0
5, 588480, Note_on_c, 0, 39, 0
5, 588480, Note_on_c, 0, 43, 0
5, 588480, Note_on_c, 0, 46, 0
5, 588480, Note_on_c, 0, 46, 83
5, 588480, Note_on_c, 0, 51, 83
5, 588480, Note_on_c, 0, 55, 83
5, 588480, Note_on_c, 0, 58, 83
5, 588960, Note_on_c, 0, 58, 0
5, 588960, Note_on_c, 0, 46, 0
5, 588960, Note_on_c, 0, 51, 0
5, 588960, Note_on_c, 0, 55, 0
5, 588960, Note_on_c, 0, 46, 83
5, 588960, Note_on_c, 0, 50, 83
5, 588960, Note_on_c, 0, 53, 83
5, 588960, Note_on_c, 0, 58, 83
5, 589440, Note_on_c, 0, 58, 0
5, 589440, Note_on_c, 0, 46, 0
5, 589440, Note_on_c, 0, 50, 0
5, 589440, Note_on_c, 0, 53, 0
5, 590400, Note_on_c, 0, 39, 83
5, 590400, Note_on_c, 0, 43, 83
5, 590400, Note_on_c, 0, 46, 83
5, 590400, Note_on_c, 0, 51, 83
5, 591360, Note_on_c, 0, 51, 0
5, 591360, Note_on_c, 0, 39, 0
5, 591360, Note_on_c, 0, 43, 0
5, 591360, Note_on_c, 0, 46, 0
5, 591360, Note_on_c, 0, 40, 83
5, 591360, Note_on_c, 0, 43, 83
5, 591360, Note_on_c, 0, 46, 83
5, 591360, Note_on_c, 0, 52, 83
5, 592080, Note_on_c, 0, 52, 0
5, 592080, Note_on_c, 0, 40, 0
5, 592080, Note_on_c, 0, 43, 0
5, 592080, Note_on_c, 0, 46, 0
5, 592080, Note_on_c, 0, 41, 83
5, 592080, Note_on_c, 0, 44, 83
5, 592080, Note_on_c, 0, 48, 83
5, 592080, Note_on_c, 0, 53, 83
5, 592320, Note_on_c, 0, 53, 0
5, 592320, Note_on_c, 0, 41, 0
5, 592320, Note_on_c, 0, 44, 0
5, 592320, Note_on_c, 0, 48, 0
5, 592320, Note_on_c, 0, 41, 83
5, 592320, Note_on_c, 0, 44, 83
5, 592320, Note_on_c, 0, 48, 83
5, 592320, Note_on_c, 0, 53, 83
5, 592800, Note_on_c, 0, 53, 0
5, 592800, Note_on_c, 0, 41, 0
5, 592800, Note_on_c, 0, 44, 0
5, 592800, Note_on_c, 0, 48, 0
5, 592800, Note_on_c, 0, 41, 83
5, 592800, Note_on_c, 0, 44, 83
5, 592800, Note_on_c, 0, 48, 83
5, 592800, Note_on_c, 0, 53, 83
5, 593280, Note_on_c, 0, 53, 0
5, 593280, Note_on_c, 0, 41, 0
5, 593280, Note_on_c, 0, 44, 0
5, 593280, Note_on_c, 0, 48, 0
5, 593760, Note_on_c, 0, 44, 83
5, 593760, Note_on_c, 0, 53, 83
5, 593760, Note_on_c, 0, 56, 83
5, 594240, Note_on_c, 0, 56, 0
5, 594240, Note_on_c, 0, 53, 0
5, 594240, Note_on_c, 0, 44, 0
5, 594240, Note_on_c, 0, 46, 83
5, 594240, Note_on_c, 0, 51, 83
5, 594240, Note_on_c, 0, 58, 83
5, 594480, Note_on_c, 0, 58, 0
5, 594480, Note_on_c, 0, 51, 0
5, 594480, Note_on_c, 0, 46, 0
5, 594480, Note_on_c, 0, 46, 83
5, 594480, Note_on_c, 0, 51, 83
5, 594480, Note_on_c, 0, 58, 83
5, 594720, Note_on_c, 0, 58, 0
5, 594720, Note_on_c, 0, 51, 0
5, 594720, Note_on_c, 0, 46, 0
5, 594720, Note_on_c, 0, 46, 83
5, 594720, Note_on_c, 0, 51, 83
5, 594720, Note_on_c, 0, 58, 83
5, 595680, Note_on_c, 0, 58, 0
5, 595680, Note_on_c, 0, 51, 0
5, 595680, Note_on_c, 0, 46, 0
5, 595680, Note_on_c, 0, 46, 83
5, 595680, Note_on_c, 0, 50, 83
5, 595680, Note_on_c, 0, 53, 83
5, 595680, Note_on_c, 0, 58, 83
5, 596160, Note_on_c, 0, 58, 0
5, 596160, Note_on_c, 0, 46, 0
5, 596160, Note_on_c, 0, 50, 0
5, 596160, Note_on_c, 0, 53, 0
5, 596160, Note_on_c, 0, 39, 83
5, 596160, Note_on_c, 0, 43, 83
5, 596160, Note_on_c, 0, 46, 83
5, 596160, Note_on_c, 0, 51, 83
5, 596640, Note_on_c, 0, 51, 0
5, 596640, Note_on_c, 0, 39, 0
5, 596640, Note_on_c, 0, 43, 0
5, 596640, Note_on_c, 0, 46, 0
5, 597600, Note_on_c, 0, 34, 57
5, 597600, Note_on_c, 0, 46, 57
5, 598080, Note_on_c, 0, 46, 0
5, 598080, Note_on_c, 0, 34, 0
5, 598080, Control_c, 0, 64, 127
5, 598080, Note_on_c, 0, 35, 57
5, 598080, Note_on_c, 0, 47, 57
5, 598320, Note_on_c, 0, 47, 0
5, 598320, Note_on_c, 0, 35, 0
5, 598320, Note_on_c, 0, 34, 57
5, 598320, Note_on_c, 0, 46, 57
5, 598560, Note_on_c, 0, 46, 0
5, 598560, Note_on_c, 0, 34, 0
5, 598560, Note_on_c, 0, 35, 57
5, 598560, Note_on_c, 0, 47, 57
5, 599040, Note_on_c, 0, 35, 0
5, 599520, Note_on_c, 0, 47, 0
5, 599520, Control_c, 0, 64, 0
5, 599520, Note_on_c, 0, 48, 57
5, 600000, Note_on_c, 0, 48, 0
5, 600000, Control_c, 0, 64, 127
5, 600000, Note_on_c, 0, 49, 57
5, 600000, Note_on_c, 0, 56, 57
5, 600000, Note_on_c, 0, 61, 57
5, 600000, Note_on_c, 0, 66, 57
5, 600480, Note_on_c, 0, 66, 0
5, 600480, Note_on_c, 0, 49, 0
5, 600480, Note_on_c, 0, 56, 0
5, 600480, Note_on_c, 0, 61, 0
5, 600480, Note_on_c, 0, 65, 57
5, 600720, Note_on_c, 0, 65, 0
5, 600720, Note_on_c, 0, 64, 57
5, 600960, Note_on_c, 0, 64, 0
5, 600960, Control_c, 0, 64, 0
5, 600960, Note_on_c, 0, 65, 57
5, 601440, Note_on_c, 0, 65, 0
5, 601440, Note_on_c, 0, 37, 57
5, 601440, Note_on_c, 0, 49, 57
5, 601920, Note_on_c, 0, 49, 0
5, 601920, Note_on_c, 0, 37, 0
5, 601920, Control_c, 0, 64, 127
5, 601920, Note_on_c, 0, 38, 70
5, 601920, Note_on_c, 0, 50, 70
5, 602160, Note_on_c, 0, 50, 0
5, 602160, Note_on_c, 0, 38, 0
5, 602160, Note_on_c, 0, 37, 70
5, 602160, Note_on_c, 0, 49, 70
5, 602400, Note_on_c, 0, 49, 0
5, 602400, Note_on_c, 0, 37, 0
5, 602400, Note_on_c, 0, 38, 70
5, 602400, Note_on_c, 0, 50, 70
5, 602880, Note_on_c, 0, 38, 0
5, 603360, Note_on_c, 0, 50, 0
5, 603360, Control_c, 0, 64, 0
5, 603360, Note_on_c, 0, 51, 70
5, 603840, Note_on_c, 0, 51, 0
5, 603840, Control_c, 0, 64, 127
5, 603840, Note_on_c, 0, 52, 70
5, 603840, Note_on_c, 0, 59, 70
5, 603840, Note_on_c, 0, 64, 70
5, 603840, Note_on_c, 0, 69, 70
5, 604320, Note_on_c, 0, 69, 0
5, 604320, Note_on_c, 0, 52, 0
5, 604320, Note_on_c, 0, 59, 0
5, 604320, Note_on_c, 0, 64, 0
5, 604320, Note_on_c, 0, 68, 70
5, 604560, Note_on_c, 0, 68, 0
5, 604560, Note_on_c, 0, 67, 70
5, 604800, Note_on_c, 0, 67, 0
5, 604800, Control_c, 0, 64, 0
5, 604800, Note_on_c, 0, 68, 70
5, 605280, Note_on_c, 0, 68, 0
5, 605280, Note_on_c, 0, 40, 70
5, 605280, Note_on_c, 0, 52, 70
5, 605760, Note_on_c, 0, 52, 0
5, 605760, Note_on_c, 0, 40, 0
5, 605760, Note_on_c, 0, 41, 70
5, 605760, Note_on_c, 0, 53, 70
5, 606000, Note_on_c, 0, 53, 0
5, 606000, Note_on_c, 0, 41, 0
5, 606000, Note_on_c, 0, 40, 70
5, 606000, Note_on_c, 0, 52, 70
5, 606240, Note_on_c, 0, 52, 0
5, 606240, Note_on_c, 0, 40, 0
5, 606240, Note_on_c, 0, 41, 70
5, 606240, Note_on_c, 0, 53, 70
5, 606720, Note_on_c, 0, 53, 0
5, 606720, Note_on_c, 0, 41, 0
5, 606720, Note_on_c, 0, 42, 70
5, 606720, Note_on_c, 0, 54, 70
5, 607200, Note_on_c, 0, 54, 0
5, 607200, Note_on_c, 0, 42, 0
5, 607200, Note_on_c, 0, 61, 96
5, 607200, Note_on_c, 0, 66, 96
5, 607200, Note_on_c, 0, 70, 96
5, 607680, Note_on_c, 0, 70, 0
5, 607680, Note_on_c, 0, 66, 0
5, 607680, Note_on_c, 0, 61, 0
5, 607680, Note_on_c, 0, 43, 70
5, 607680, Note_on_c, 0, 55, 70
5, 607920, Note_on_c, 0, 55, 0
5, 607920, Note_on_c, 0, 43, 0
5, 607920, Note_on_c, 0, 42, 70
5, 607920, Note_on_c, 0, 54, 70
5, 608160, Note_on_c, 0, 54, 0
5, 608160, Note_on_c, 0, 42, 0
5, 608160, Note_on_c, 0, 43, 70
5, 608160, Note_on_c, 0, 55, 70
5, 608640, Note_on_c, 0, 55, 0
5, 608640, Note_on_c, 0, 43, 0
5, 608640, Note_on_c, 0, 44, 70
5, 608640, Note_on_c, 0, 56, 70
5, 609120, Note_on_c, 0, 56, 0
5, 609120, Note_on_c, 0, 44, 0
5, 609120, Note_on_c, 0, 63, 109
5, 609120, Note_on_c, 0, 68, 109
5, 609120, Note_on_c, 0, 71, 109
5, 609600, Note_on_c, 0, 71, 0
5, 609600, Note_on_c, 0, 68, 0
5, 609600, Note_on_c, 0, 63, 0
5, 609600, Note_on_c, 0, 32, 96
5, 609600, Note_on_c, 0, 44, 96
5, 610080, Note_on_c, 0, 44, 0
5, 610080, Note_on_c, 0, 32, 0
5, 610080, Note_on_c, 0, 33, 96
5, 610080, Note_on_c, 0, 45, 96
5, 610560, Note_on_c, 0, 45, 0
5, 610560, Note_on_c, 0, 33, 0
5, 610560, Note_on_c, 0, 35, 96
5, 610560, Note_on_c, 0, 47, 96
5, 611040, Note_on_c, 0, 47, 0
5, 611040, Note_on_c, 0, 35, 0
5, 611040, Note_on_c, 0, 36, 96
5, 611040, Note_on_c, 0, 48, 96
5, 611520, Note_on_c, 0, 48, 0
5, 611520, Note_on_c, 0, 36, 0
5, 611520, Note_on_c, 0, 38, 96
5, 611520, Note_on_c, 0, 50, 96
5, 612000, Note_on_c, 0, 50, 0
5, 612000, Note_on_c, 0, 38, 0
5, 612000, Note_on_c, 0, 53, 96
5, 612480, Note_on_c, 0, 53, 0
5, 612480, Note_on_c, 0, 58, 96
5, 612960, Note_on_c, 0, 58, 0
5, 612960, Note_on_c, 0, 62, 96
5, 613440, Note_on_c, 0, 62, 0
5, 613599, Control_c, 0, 64, 127
5, 613599, Note_on_c, 0, 58, 70
5, 613760, Note_on_c, 0, 58, 0
5, 613760, Note_on_c, 0, 57, 70
5, 613920, Note_on_c, 0, 57, 0
5, 613920, Note_on_c, 0, 58, 70
5, 614079, Note_on_c, 0, 58, 0
5, 614079, Note_on_c, 0, 46, 70
5, 614240, Note_on_c, 0, 46, 0
5, 614240, Note_on_c, 0, 58, 70
5, 614400, Control_c, 0, 64, 0
5, 614880, Note_on_c, 0, 58, 0
5, 614880, Note_on_c, 0, 45, 70
5, 614880, Note_on_c, 0, 57, 70
5, 615360, Note_on_c, 0, 57, 0
5, 615360, Note_on_c, 0, 45, 0
5, 615519, Control_c, 0, 64, 127
5, 615519, Note_on_c, 0, 56, 70
5, 615680, Note_on_c, 0, 56, 0
5, 615680, Note_on_c, 0, 55, 70
5, 615840, Note_on_c, 0, 55, 0
5, 615840, Note_on_c, 0, 56, 70
5, 615999, Note_on_c, 0, 56, 0
5, 615999, Note_on_c, 0, 44, 70
5, 616160, Note_on_c, 0, 44, 0
5, 616160, Note_on_c, 0, 56, 70
5, 616320, Control_c, 0, 64, 0
5, 616800, Note_on_c, 0, 56, 0
5, 616800, Note_on_c, 0, 43, 70
5, 616800, Note_on_c, 0, 55, 70
5, 617280, Note_on_c, 0, 55, 0
5, 617280, Note_on_c, 0, 43, 0
5, 617439, Note_on_c, 0, 54, 70
5, 617600, Note_on_c, 0, 54, 0
5, 617600, Note_on_c, 0, 53, 70
5, 617760, Note_on_c, 0, 53, 0
5, 617760, Note_on_c, 0, 54, 70
5, 617919, Note_on_c, 0, 54, 0
5, 617919, Note_on_c, 0, 39, 96
5, 618080, Note_on_c, 0, 39, 0
5, 618080, Note_on_c, 0, 54, 70
5, 618240, Note_on_c, 0, 54, 0
5, 618399, Note_on_c, 0, 53, 83
5, 618560, Note_on_c, 0, 53, 0
5, 618560, Note_on_c, 0, 52, 83
5, 618720, Note_on_c, 0, 52, 0
5, 618720, Note_on_c, 0, 53, 83
5, 618879, Note_on_c, 0, 53, 0
5, 618879, Note_on_c, 0, 41, 109
5, 619040, Note_on_c, 0, 41, 0
5, 619040, Note_on_c, 0, 53, 83
5, 619200, Note_on_c, 0, 53, 0
5, 619359, Note_on_c, 0, 52, 83
5, 619520, Note_on_c, 0, 52, 0
5, 619520, Note_on_c, 0, 51, 83
5, 619680, Note_on_c, 0, 51, 0
5, 619680, Note_on_c, 0, 52, 96
5, 619839, Note_on_c, 0, 52, 0
5, 619839, Note_on_c, 0, 40, 96
5, 620000, Note_on_c, 0, 40, 0
5, 620000, Note_on_c, 0, 52, 96
5, 620160, Note_on_c, 0, 52, 0
5, 620160, Note_on_c, 0, 39, 96
5, 620160, Note_on_c, 0, 51, 96
5, 620400, Note_on_c, 0, 51, 0
5, 620400, Note_on_c, 0, 39, 0
5, 621120, Note_on_c, 0, 38, 96
5, 621120, Note_on_c, 0, 50, 96
5, 621279, Note_on_c, 0, 50, 0
5, 621279, Note_on_c, 0, 38, 0
5, 621279, Note_on_c, 0, 47, 96
5, 621440, Note_on_c, 0, 47, 0
5, 621440, Note_on_c, 0, 44, 96
5, 621600, Note_on_c, 0, 44, 0
5, 621600, Note_on_c, 0, 40, 96
5, 621759, Note_on_c, 0, 40, 0
5, 621759, Note_on_c, 0, 39, 96
5, 621920, Note_on_c, 0, 39, 0
5, 621920, Note_on_c, 0, 38, 96
5, 622080, Note_on_c, 0, 38, 0
5, 622080, Note_on_c, 0, 37, 96
5, 622080, Note_on_c, 0, 49, 96
5, 622560, Note_on_c, 0, 49, 0
5, 622560, Note_on_c, 0, 37, 0
5, 623040, Note_on_c, 0, 36, 96
5, 623040, Note_on_c, 0, 48, 96
5, 623199, Note_on_c, 0, 48, 0
5, 623199, Note_on_c, 0, 36, 0
5, 623199, Note_on_c, 0, 48, 96
5, 623360, Note_on_c, 0, 48, 0
5, 623360, Note_on_c, 0, 44, 96
5, 623520, Note_on_c, 0, 44, 0
5, 623520, Note_on_c, 0, 41, 96
5, 623679, Note_on_c, 0, 41, 0
5, 623679, Note_on_c, 0, 37, 96
5, 623840, Note_on_c, 0, 37, 0
5, 623840, Note_on_c, 0, 36, 96
5, 624000, Note_on_c, 0, 36, 0
5, 624000, Note_on_c, 0, 35, 96
5, 624000, Note_on_c, 0, 47, 96
5, 624480, Note_on_c, 0, 47, 0
5, 624480, Note_on_c, 0, 35, 0
5, 624960, Note_on_c, 0, 34, 96
5, 624960, Note_on_c, 0, 46, 96
5, 625119, Note_on_c, 0, 46, 0
5, 625119, Note_on_c, 0, 34, 0
5, 625119, Note_on_c, 0, 46, 96
5, 625280, Note_on_c, 0, 46, 0
5, 625280, Note_on_c, 0, 41, 96
5, 625440, Note_on_c, 0, 41, 0
5, 625440, Note_on_c, 0, 38, 96
5, 625599, Note_on_c, 0, 38, 0
5, 625599, Note_on_c, 0, 36, 96
5, 625760, Note_on_c, 0, 36, 0
5, 625760, Note_on_c, 0, 34, 96
5, 625920, Note_on_c, 0, 34, 0
5, 625920, Note_on_c, 0, 33, 96
5, 625920, Note_on_c, 0, 45, 96
5, 626160, Note_on_c, 0, 45, 0
5, 626160, Note_on_c, 0, 33, 0
5, 626400, Note_on_c, 0, 45, 96
5, 626400, Note_on_c, 0, 50, 96
5, 626400, Note_on_c, 0, 53, 96
5, 626400, Note_on_c, 0, 57, 96
5, 626640, Note_on_c, 0, 57, 0
5, 626640, Note_on_c, 0, 45, 0
5, 626640, Note_on_c, 0, 50, 0
5, 626640, Note_on_c, 0, 53, 0
5, 626880, Note_on_c, 0, 45, 96
5, 626880, Note_on_c, 0, 50, 96
5, 626880, Note_on_c, 0, 53, 96
5, 626880, Note_on_c, 0, 57, 96
5, 627120, Note_on_c, 0, 57, 0
5, 627120, Note_on_c, 0, 45, 0
5, 627120, Note_on_c, 0, 50, 0
5, 627120, Note_on_c, 0, 53, 0
5, 627360, Note_on_c, 0, 45, 96
5, 627360, Note_on_c, 0, 50, 96
5, 627360, Note_on_c, 0, 53, 96
5, 627360, Note_on_c, 0, 57, 96
5, 627600, Note_on_c, 0, 57, 0
5, 627600, Note_on_c, 0, 45, 0
5, 627600, Note_on_c, 0, 50, 0
5, 627600, Note_on_c, 0, 53, 0
5, 627840, Note_on_c, 0, 45, 96
5, 627840, Note_on_c, 0, 50, 96
5, 627840, Note_on_c, 0, 53, 96
5, 627840, Note_on_c, 0, 57, 96
5, 628080, Note_on_c, 0, 57, 0
5, 628080, Note_on_c, 0, 45, 0
5, 628080, Note_on_c, 0, 50, 0
5, 628080, Note_on_c, 0, 53, 0
5, 628320, Note_on_c, 0, 45, 96
5, 628320, Note_on_c, 0, 49, 96
5, 628320, Note_on_c, 0, 52, 96
5, 628320, Note_on_c, 0, 57, 96
5, 628560, Note_on_c, 0, 57, 0
5, 628560, Note_on_c, 0, 45, 0
5, 628560, Note_on_c, 0, 49, 0
5, 628560, Note_on_c, 0, 52, 0
5, 628800, Note_on_c, 0, 38, 83
5, 628800, Note_on_c, 0, 50, 83
5, 629280, Note_on_c, 0, 50, 0
5, 629280, Note_on_c, 0, 38, 0
5, 629280, Control_c, 0, 64, 127
5, 629280, Note_on_c, 0, 62, 109
5, 629280, Note_on_c, 0, 75, 109
5, 630240, Note_on_c, 0, 75, 0
5, 630240, Note_on_c, 0, 62, 0
5, 630240, Note_on_c, 0, 72, 109
5, 630720, Note_on_c, 0, 72, 0
5, 630720, Note_on_c, 0, 69, 109
5, 631200, Note_on_c, 0, 69, 0
5, 631200, Note_on_c, 0, 66, 109
5, 631680, Note_on_c, 0, 66, 0
5, 631680, Control_c, 0, 64, 0
5, 631680, Note_on_c, 0, 62, 109
5, 632160, Note_on_c, 0, 62, 0
5, 632160, Note_on_c, 0, 50, 83
5, 632160, Note_on_c, 0, 62, 83
5, 632640, Note_on_c, 0, 62, 0
5, 632640, Note_on_c, 0, 50, 0
5, 632640, Note_on_c, 0, 38, 83
5, 632640, Note_on_c, 0, 50, 83
5, 633120, Note_on_c, 0, 50, 0
5, 633120, Note_on_c, 0, 38, 0
5, 633120, Note_on_c, 0, 62, 109
5, 633120, Note_on_c, 0, 73, 109
5, 634080, Note_on_c, 0, 73, 0
5, 634080, Note_on_c, 0, 62, 0
5, 634080, Note_on_c, 0, 70, 109
5, 634560, Note_on_c, 0, 70, 0
5, 634560, Control_c, 0, 64, 127
5, 634560, Note_on_c, 0, 67, 96
5, 635040, Note_on_c, 0, 67, 0
5, 635040, Note_on_c, 0, 64, 96
5, 635520, Note_on_c, 0, 64, 0
5, 635520, Note_on_c, 0, 61, 96
5, 636000, Note_on_c, 0, 61, 0
5, 636000, Control_c, 0, 64, 0
5, 636000, Note_on_c, 0, 57, 96
5, 636480, Note_on_c, 0, 57, 0
5, 636480, Note_on_c, 0, 38, 70
5, 636480, Note_on_c, 0, 50, 70
5, 636960, Note_on_c, 0, 50, 0
5, 636960, Note_on_c, 0, 38, 0
5, 636960, Control_c, 0, 64, 127
5, 636960, Note_on_c, 0, 50, 96
5, 636960, Note_on_c, 0, 63, 96
5, 637920, Note_on_c, 0, 63, 0
5, 637920, Note_on_c, 0, 50, 0
5, 637920, Note_on_c, 0, 60, 96
5, 638400, Note_on_c, 0, 60, 0
5, 638400, Note_on_c, 0, 57, 96
5, 638880, Note_on_c, 0, 57, 0
5, 638880, Note_on_c, 0, 54, 96
5, 639360, Note_on_c, 0, 54, 0
5, 639360, Control_c, 0, 64, 0
5, 639360, Note_on_c, 0, 50, 96
5, 640320, Note_on_c, 0, 50, 0
5, 640320, Note_on_c, 0, 38, 70
5, 640320, Note_on_c, 0, 50, 70
5, 640800, Note_on_c, 0, 50, 0
5, 640800, Note_on_c, 0, 38, 0
5, 640800, Control_c, 0, 64, 127
5, 640800, Note_on_c, 0, 50, 96
5, 640800, Note_on_c, 0, 61, 96
5, 641760, Note_on_c, 0, 61, 0
5, 641760, Note_on_c, 0, 50, 0
5, 641760, Note_on_c, 0, 58, 70
5, 642240, Note_on_c, 0, 58, 0
5, 642240, Note_on_c, 0, 55, 57
5, 642720, Note_on_c, 0, 55, 0
5, 642720, Note_on_c, 0, 52, 57
5, 643200, Note_on_c, 0, 52, 0
5, 643200, Note_on_c, 0, 49, 57
5, 643680, Note_on_c, 0, 49, 0
5, 643680, Control_c, 0, 64, 0
5, 643680, Note_on_c, 0, 45, 57
5, 644160, Note_on_c, 0, 45, 0
5, 644160, Control_c, 0, 64, 127
5, 644160, Note_on_c, 0, 38, 57
5, 644160, Note_on_c, 0, 50, 57
5, 644319, Note_on_c, 0, 50, 0
5, 644319, Note_on_c, 0, 38, 0
5, 644319, Note_on_c, 0, 50, 57
5, 644319, Note_on_c, 0, 54, 57
5, 644480, Note_on_c, 0, 54, 0
5, 644480, Note_on_c, 0, 50, 0
5, 644480, Note_on_c, 0, 52, 57
5, 644480, Note_on_c, 0, 55, 57
5, 644640, Note_on_c, 0, 55, 0
5, 644640, Note_on_c, 0, 52, 0
5, 644640, Note_on_c, 0, 54, 57
5, 644640, Note_on_c, 0, 57, 57
5, 644799, Note_on_c, 0, 57, 0
5, 644799, Note_on_c, 0, 54, 0
5, 644799, Note_on_c, 0, 55, 57
5, 644799, Note_on_c, 0, 58, 57
5, 644960, Note_on_c, 0, 58, 0
5, 644960, Note_on_c, 0, 55, 0
5, 644960, Note_on_c, 0, 57, 57
5, 644960, Note_on_c, 0, 60, 57
5, 645120, Note_on_c, 0, 60, 0
5, 645120, Note_on_c, 0, 57, 0
5, 645120, Control_c, 0, 64, 0
5, 645120, Note_on_c, 0, 55, 57
5, 645120, Note_on_c, 0, 58, 57
5, 646080, Note_on_c, 0, 58, 0
5, 646080, Note_on_c, 0, 55, 0
5, 646080, Control_c, 0, 64, 127
5, 646080, Note_on_c, 0, 38, 57
5, 646080, Note_on_c, 0, 50, 57
5, 646239, Note_on_c, 0, 50, 0
5, 646239, Note_on_c, 0, 38, 0
5, 646239, Note_on_c, 0, 50, 57
5, 646239, Note_on_c, 0, 54, 57
5, 646400, Note_on_c, 0, 54, 0
5, 646400, Note_on_c, 0, 50, 0
5, 646400, Note_on_c, 0, 52, 57
5, 646400, Note_on_c, 0, 55, 57
5, 646560, Note_on_c, 0, 55, 0
5, 646560, Note_on_c, 0, 52, 0
5, 646560, Note_on_c, 0, 54, 57
5, 646560, Note_on_c, 0, 57, 57
5, 646719, Note_on_c, 0, 57, 0
5, 646719, Note_on_c, 0, 54, 0
5, 646719, Note_on_c, 0, 55, 57
5, 646719, Note_on_c, 0, 58, 57
5, 646880, Note_on_c, 0, 58, 0
5, 646880, Note_on_c, 0, 55, 0
5, 646880, Note_on_c, 0, 57, 57
5, 646880, Note_on_c, 0, 60, 57
5, 647040, Note_on_c, 0, 60, 0
5, 647040, Note_on_c, 0, 57, 0
5, 647040, Control_c, 0, 64, 0
5, 647040, Note_on_c, 0, 55, 57
5, 647040, Note_on_c, 0, 58, 57
5, 648000, Note_on_c, 0, 58, 0
5, 648000, Note_on_c, 0, 55, 0
5, 648000, Note_on_c, 0, 38, 57
5, 648000, Note_on_c, 0, 50, 57
5, 648480, Note_on_c, 0, 50, 0
5, 648480, Note_on_c, 0, 38, 0
5, 648480, Control_c, 0, 64, 127
5, 648480, Note_on_c, 0, 38, 57
5, 648480, Note_on_c, 0, 42, 57
5, 648480, Note_on_c, 0, 45, 57
5, 648960, Note_on_c, 0, 45, 0
5, 648960, Note_on_c, 0, 42, 0
5, 648960, Note_on_c, 0, 38, 0
5, 648960, Note_on_c, 0, 42, 57
5, 648960, Note_on_c, 0, 45, 57
5, 648960, Note_on_c, 0, 50, 57
5, 649440, Note_on_c, 0, 50, 0
5, 649440, Note_on_c, 0, 45, 0
5, 649440, Note_on_c, 0, 42, 0
5, 649440, Note_on_c, 0, 45, 57
5, 649440, Note_on_c, 0, 50, 57
5, 649440, Note_on_c, 0, 54, 57
5, 649920, Note_on_c, 0, 54, 0
5, 649920, Note_on_c, 0, 50, 0
5, 649920, Note_on_c, 0, 45, 0
5, 649920, Control_c, 0, 64, 0
5, 649920, Note_on_c, 0, 50, 57
5, 649920, Note_on_c, 0, 54, 57
5, 649920, Note_on_c, 0, 57, 57
5, 650400, Note_on_c, 0, 57, 0
5, 650400, Note_on_c, 0, 54, 0
5, 650400, Note_on_c, 0, 50, 0
5, 650400, Control_c, 0, 64, 127
5, 650400, Note_on_c, 0, 42, 57
5, 650400, Note_on_c, 0, 45, 57
5, 650400, Note_on_c, 0, 50, 57
5, 650880, Note_on_c, 0, 50, 0
5, 650880, Note_on_c, 0, 45, 0
5, 650880, Note_on_c, 0, 42, 0
5, 650880, Note_on_c, 0, 45, 57
5, 650880, Note_on_c, 0, 50, 57
5, 650880, Note_on_c, 0, 54, 57
5, 651360, Note_on_c, 0, 54, 0
5, 651360, Note_on_c, 0, 50, 0
5, 651360, Note_on_c, 0, 45, 0
5, 651360, Control_c, 0, 64, 0
5, 651360, Note_on_c, 0, 50, 57
5, 651360, Note_on_c, 0, 54, 57
5, 651360, Note_on_c, 0, 57, 57
5, 651840, Note_on_c, 0, 57, 0
5, 651840, Note_on_c, 0, 54, 0
5, 651840, Note_on_c, 0, 50, 0
5, 651840, Note_on_c, 0, 54, 57
5, 651840, Note_on_c, 0, 57, 57
5, 651840, Note_on_c, 0, 62, 57
5, 652320, Note_on_c, 0, 62, 0
5, 652320, Note_on_c, 0, 57, 0
5, 652320, Note_on_c, 0, 54, 0
5, 652320, Control_c, 0, 64, 127
5, 652320, Note_on_c, 0, 50, 44
5, 652320, Note_on_c, 0, 54, 44
5, 652320, Note_on_c, 0, 57, 44
5, 652800, Note_on_c, 0, 57, 0
5, 652800, Note_on_c, 0, 54, 0
5, 652800, Note_on_c, 0, 50, 0
5, 652800, Note_on_c, 0, 54, 44
5, 652800, Note_on_c, 0, 57, 44
5, 652800, Note_on_c, 0, 62, 44
5, 653280, Note_on_c, 0, 62, 0
5, 653280, Note_on_c, 0, 57, 0
5, 653280, Note_on_c, 0, 54, 0
5, 653280, Control_c, 0, 64, 0
5, 653280, Note_on_c, 0, 57, 44
5, 653280, Note_on_c, 0, 66, 44
5, 653760, Note_on_c, 0, 66, 0
5, 653760, Note_on_c, 0, 57, 0
5, 653760, Note_on_c, 0, 57, 44
5, 653760, Note_on_c, 0, 62, 44
5, 653760, Note_on_c, 0, 66, 44
5, 653791, Note_on_c, 0, 66, 0
5, 653791, Note_on_c, 0, 62, 0
5, 653791, Note_on_c, 0, 57, 0
5, 653919, Note_on_c, 0, 54, 44
5, 653919, Note_on_c, 0, 57, 44
5, 653919, Note_on_c, 0, 62, 44
5, 653951, Note_on_c, 0, 62, 0
5, 653951, Note_on_c, 0, 57, 0
5, 653951, Note_on_c, 0, 54, 0
5, 654080, Note_on_c, 0, 54, 44
5, 654080, Note_on_c, 0, 57, 44
5, 654080, Note_on_c, 0, 61, 44
5, 654112, Note_on_c, 0, 61, 0
5, 654112, Note_on_c, 0, 57, 0
5, 654112, Note_on_c, 0, 54, 0
5, 654240, Note_on_c, 0, 54, 44
5, 654240, Note_on_c, 0, 57, 44
5, 654240, Note_on_c, 0, 62, 44
5, 654271, Note_on_c, 0, 62, 0
5, 654271, Note_on_c, 0, 57, 0
5, 654271, Note_on_c, 0, 54, 0
5, 654399, Note_on_c, 0, 50, 44
5, 654399, Note_on_c, 0, 54, 44
5, 654399, Note_on_c, 0, 57, 44
5, 654431, Note_on_c, 0, 57, 0
5, 654431, Note_on_c, 0, 54, 0
5, 654431, Note_on_c, 0, 50, 0
5, 654560, Note_on_c, 0, 50, 44
5, 654560, Note_on_c, 0, 54, 44
5, 654560, Note_on_c, 0, 56, 44
5, 654592, Note_on_c, 0, 56, 0
5, 654592, Note_on_c, 0, 54, 0
5, 654592, Note_on_c, 0, 50, 0
5, 654720, Note_on_c, 0, 50, 44
5, 654720, Note_on_c, 0, 54, 44
5, 654720, Note_on_c, 0, 57, 44
5, 654751, Note_on_c, 0, 57, 0
5, 654751, Note_on_c, 0, 54, 0
5, 654751, Note_on_c, 0, 50, 0
5, 654879, Note_on_c, 0, 45, 44
5, 654879, Note_on_c, 0, 50, 44
5, 654879, Note_on_c, 0, 54, 44
5, 654911, Note_on_c, 0, 54, 0
5, 654911, Note_on_c, 0, 50, 0
5, 654911, Note_on_c, 0, 45, 0
5, 655040, Note_on_c, 0, 45, 44
5, 655040, Note_on_c, 0, 50, 44
5, 655040, Note_on_c, 0, 53, 44
5, 655072, Note_on_c, 0, 53, 0
5, 655072, Note_on_c, 0, 50, 0
5, 655072, Note_on_c, 0, 45, 0
5, 655200, Note_on_c, 0, 45, 44
5, 655200, Note_on_c, 0, 50, 44
5, 655200, Note_on_c, 0, 54, 44
5, 655231, Note_on_c, 0, 54, 0
5, 655231, Note_on_c, 0, 50, 0
5, 655231, Note_on_c, 0, 45, 0
5, 655359, Note_on_c, 0, 42, 44
5, 655359, Note_on_c, 0, 45, 44
5, 655359, Note_on_c, 0, 50, 44
5, 655391, Note_on_c, 0, 50, 0
5, 655391, Note_on_c, 0, 45, 0
5, 655391, Note_on_c, 0, 42, 0
5, 655520, Note_on_c, 0, 42, 44
5, 655520, Note_on_c, 0, 45, 44
5, 655520, Note_on_c, 0, 49, 44
5, 655552, Note_on_c, 0, 49, 0
5, 655552, Note_on_c, 0, 45, 0
5, 655552, Note_on_c, 0, 42, 0
5, 655680, Control_c, 0, 64, 127
5, 655680, Note_on_c, 0, 38, 44
5, 655680, Note_on_c, 0, 42, 44
5, 655680, Note_on_c, 0, 50, 44
5, 655920, Note_on_c, 0, 50, 0
5, 655920, Note_on_c, 0, 42, 0
5, 655920, Note_on_c, 0, 38, 0
5, 655920, Note_on_c, 0, 37, 44
5, 655920, Note_on_c, 0, 49, 44
5, 656160, Note_on_c, 0, 49, 0
5, 656160, Note_on_c, 0, 37, 0
5, 656160, Note_on_c, 0, 38, 44
5, 656160, Note_on_c, 0, 50, 44
5, 657120, Note_on_c, 0, 50, 0
5, 657120, Note_on_c, 0, 38, 0
5, 657120, Control_c, 0, 64, 0
5, 657120, Note_on_c, 0, 33, 44
5, 657120, Note_on_c, 0, 45, 44
5, 657600, Note_on_c, 0, 45, 0
5, 657600, Note_on_c, 0, 33, 0
5, 657600, Control_c, 0, 64, 127
5, 657600, Note_on_c, 0, 38, 44
5, 657600, Note_on_c, 0, 50, 44
5, 657840, Note_on_c, 0, 50, 0
5, 657840, Note_on_c, 0, 38, 0
5, 657840, Note_on_c, 0, 37, 44
5, 657840, Note_on_c, 0, 49, 44
5, 658080, Note_on_c, 0, 49, 0
5, 658080, Note_on_c, 0, 37, 0
5, 658080, Note_on_c, 0, 38, 44
5, 658080, Note_on_c, 0, 50, 44
5, 659040, Note_on_c, 0, 50, 0
5, 659040, Note_on_c, 0, 38, 0
5, 659040, Control_c, 0, 64, 0
5, 659040, Note_on_c, 0, 33, 44
5, 659040, Note_on_c, 0, 45, 44
5, 659520, Note_on_c, 0, 45, 0
5, 659520, Note_on_c, 0, 33, 0
5, 659520, Control_c, 0, 64, 127
5, 659520, Note_on_c, 0, 38, 44
5, 659520, Note_on_c, 0, 50, 44
5, 659760, Note_on_c, 0, 50, 0
5, 659760, Note_on_c, 0, 38, 0
5, 659760, Note_on_c, 0, 37, 44
5, 659760, Note_on_c, 0, 49, 44
5, 660000, Note_on_c, 0, 49, 0
5, 660000, Note_on_c, 0, 37, 0
5, 660000, Note_on_c, 0, 38, 44
5, 660000, Note_on_c, 0, 50, 44
5, 660960, Note_on_c, 0, 50, 0
5, 660960, Note_on_c, 0, 38, 0
5, 660960, Control_c, 0, 64, 0
5, 660960, Note_on_c, 0, 33, 44
5, 660960, Note_on_c, 0, 45, 44
5, 661440, Note_on_c, 0, 45, 0
5, 661440, Note_on_c, 0, 33, 0
5, 661440, Control_c, 0, 64, 127
5, 661440, Note_on_c, 0, 38, 44
5, 661440, Note_on_c, 0, 50, 44
5, 661680, Note_on_c, 0, 50, 0
5, 661680, Note_on_c, 0, 38, 0
5, 661680, Note_on_c, 0, 37, 44
5, 661680, Note_on_c, 0, 49, 44
5, 661920, Note_on_c, 0, 49, 0
5, 661920, Note_on_c, 0, 37, 0
5, 661920, Note_on_c, 0, 38, 44
5, 661920, Note_on_c, 0, 50, 44
5, 662880, Note_on_c, 0, 50, 0
5, 662880, Note_on_c, 0, 38, 0
5, 662880, Control_c, 0, 64, 0
5, 662880, Note_on_c, 0, 33, 44
5, 662880, Note_on_c, 0, 45, 44
5, 663360, Note_on_c, 0, 45, 0
5, 663360, Note_on_c, 0, 33, 0
5, 663360, Note_on_c, 0, 38, 44
5, 663360, Note_on_c, 0, 50, 44
5, 663840, Note_on_c, 0, 50, 0
5, 663840, Note_on_c, 0, 38, 0
5, 909600, Note_on_c, 0, 43, 83
5, 909600, Note_on_c, 0, 47, 83
5, 909600, Note_on_c, 0, 50, 83
5, 909600, Note_on_c, 0, 55, 83
5, 910080, Note_on_c, 0, 55, 0
5, 910080, Note_on_c, 0, 43, 0
5, 910080, Note_on_c, 0, 47, 0
5, 910080, Note_on_c, 0, 50, 0
5, 910080, Note_on_c, 0, 45, 83
5, 910080, Note_on_c, 0, 48, 83
5, 910080, Note_on_c, 0, 50, 83
5, 910080, Note_on_c, 0, 57, 83
5, 910320, Note_on_c, 0, 57, 0
5, 910320, Note_on_c, 0, 45, 0
5, 910320, Note_on_c, 0, 48, 0
5, 910320, Note_on_c, 0, 50, 0
5, 910320, Note_on_c, 0, 47, 83
5, 910320, Note_on_c, 0, 50, 83
5, 910320, Note_on_c, 0, 59, 83
5, 910560, Note_on_c, 0, 59, 0
5, 910560, Note_on_c, 0, 50, 0
5, 910560, Note_on_c, 0, 47, 0
5, 910560, Note_on_c, 0, 45, 83
5, 910560, Note_on_c, 0, 50, 83
5, 910560, Note_on_c, 0, 57, 83
5, 911520, Note_on_c, 0, 57, 0
5, 911520, Note_on_c, 0, 50, 0
5, 911520, Note_on_c, 0, 45, 0
5, 911520, Note_on_c, 0, 43, 83
5, 911520, Note_on_c, 0, 47, 83
5, 911520, Note_on_c, 0, 50, 83
5, 911520, Note_on_c, 0, 55, 83
5, 912000, Note_on_c, 0, 55, 0
5, 912000, Note_on_c, 0, 43, 0
5, 912000, Note_on_c, 0, 47, 0
5, 912000, Note_on_c, 0, 50, 0
5, 912000, Note_on_c, 0, 42, 83
5, 912000, Note_on_c, 0, 45, 83
5, 912000, Note_on_c, 0, 50, 83
5, 912000, Note_on_c, 0, 54, 83
5, 912480, Note_on_c, 0, 54, 0
5, 912480, Note_on_c, 0, 42, 0
5, 912480, Note_on_c, 0, 45, 0
5, 912480, Note_on_c, 0, 50, 0
5, 912480, Note_on_c, 0, 38, 83
5, 912480, Note_on_c, 0, 50, 83
5, 912639, Note_on_c, 0, 50, 0
5, 912639, Note_on_c, 0, 38, 0
5, 912639, Note_on_c, 0, 38, 83
5, 912639, Note_on_c, 0, 50, 83
5, 912800, Note_on_c, 0, 50, 0
5, 912800, Note_on_c, 0, 38, 0
5, 912800, Note_on_c, 0, 38, 83
5, 912800, Note_on_c, 0, 50, 83
5, 912960, Note_on_c, 0, 50, 0
5, 912960, Note_on_c, 0, 38, 0
5, 912960, Note_on_c, 0, 38, 83
5, 912960, Note_on_c, 0, 50, 83
5, 913440, Note_on_c, 0, 50, 0
5, 913440, Note_on_c, 0, 38, 0
5, 913440, Note_on_c, 0, 43, 83
5, 913440, Note_on_c, 0, 47, 83
5, 913440, Note_on_c, 0, 50, 83
5, 913440, Note_on_c, 0, 55, 83
5, 913920, Note_on_c, 0, 55, 0
5, 913920, Note_on_c, 0, 43, 0
5, 913920, Note_on_c, 0, 47, 0
5, 913920, Note_on_c, 0, 50, 0
5, 913920, Note_on_c, 0, 40, 83
5, 913920, Note_on_c, 0, 43, 83
5, 913920, Note_on_c, 0, 48, 83
5, 913920, Note_on_c, 0, 52, 83
5, 914400, Note_on_c, 0, 52, 0
5, 914400, Note_on_c, 0, 40, 0
5, 914400, Note_on_c, 0, 43, 0
5, 914400, Note_on_c, 0, 48, 0
5, 914400, Note_on_c, 0, 43, 83
5, 914400, Note_on_c, 0, 47, 83
5, 914400, Note_on_c, 0, 50, 83
5, 914400, Note_on_c, 0, 55, 83
5, 914880, Note_on_c, 0, 55, 0
5, 914880, Note_on_c, 0, 43, 0
5, 914880, Note_on_c, 0, 47, 0
5, 914880, Note_on_c, 0, 50, 0
5, 914880, Note_on_c, 0, 40, 83
5, 914880, Note_on_c, 0, 43, 83
5, 914880, Note_on_c, 0, 48, 83
5, 914880, Note_on_c, 0, 52, 83
5, 915360, Note_on_c, 0, 52, 0
5, 915360, Note_on_c, 0, 40, 0
5, 915360, Note_on_c, 0, 43, 0
5, 915360, Note_on_c, 0, 48, 0
5, 915360, Note_on_c, 0, 42, 83
5, 915360, Note_on_c, 0, 45, 83
5, 915360, Note_on_c, 0, 50, 83
5, 915360, Note_on_c, 0, 54, 83
5, 915840, Note_on_c, 0, 54, 0
5, 915840, Note_on_c, 0, 42, 0
5, 915840, Note_on_c, 0, 45, 0
5, 915840, Note_on_c, 0, 50, 0
5, 915840, Note_on_c, 0, 43, 83
5, 915840, Note_on_c, 0, 47, 83
5, 915840, Note_on_c, 0, 50, 83
5, 915840, Note_on_c, 0, 55, 83
5, 916080, Note_on_c, 0, 55, 0
5, 916080, Note_on_c, 0, 43, 0
5, 916080, Note_on_c, 0, 47, 0
5, 916080, Note_on_c, 0, 50, 0
5, 916080, Note_on_c, 0, 47, 83
5, 916080, Note_on_c, 0, 50, 83
5, 916080, Note_on_c, 0, 55, 83
5, 916080, Note_on_c, 0, 59, 83
5, 916320, Note_on_c, 0, 59, 0
5, 916320, Note_on_c, 0, 47, 0
5, 916320, Note_on_c, 0, 50, 0
5, 916320, Note_on_c, 0, 55, 0
5, 916320, Note_on_c, 0, 50, 83
5, 916320, Note_on_c, 0, 54, 83
5, 916320, Note_on_c, 0, 57, 83
5, 916320, Note_on_c, 0, 62, 83
5, 917280, Note_on_c, 0, 62, 0
5, 917280, Note_on_c, 0, 50, 0
5, 917280, Note_on_c, 0, 54, 0
5, 917280, Note_on_c, 0, 57, 0
5, 917280, Note_on_c, 0, 43, 83
5, 917280, Note_on_c, 0, 47, 83
5, 917280, Note_on_c, 0, 50, 83
5, 917280, Note_on_c, 0, 55, 83
5, 917760, Note_on_c, 0, 55, 0
5, 917760, Note_on_c, 0, 43, 0
5, 917760, Note_on_c, 0, 47, 0
5, 917760, Note_on_c, 0, 50, 0
5, 917760, Note_on_c, 0, 45, 83
5, 917760, Note_on_c, 0, 48, 83
5, 917760, Note_on_c, 0, 50, 83
5, 917760, Note_on_c, 0, 57, 83
5, 918000, Note_on_c, 0, 57, 0
5, 918000, Note_on_c, 0, 45, 0
5, 918000, Note_on_c, 0, 48, 0
5, 918000, Note_on_c, 0, 50, 0
5, 918000, Note_on_c, 0, 47, 83
5, 918000, Note_on_c, 0, 50, 83
5, 918000, Note_on_c, 0, 59, 83
5, 918240, Note_on_c, 0, 59, 0
5, 918240, Note_on_c, 0, 50, 0
5, 918240, Note_on_c, 0, 47, 0
5, 918240, Note_on_c, 0, 45, 83
5, 918240, Note_on_c, 0, 50, 83
5, 918240, Note_on_c, 0, 57, 83
5, 919200, Note_on_c, 0, 57, 0
5, 919200, Note_on_c, 0, 50, 0
5, 919200, Note_on_c, 0, 45, 0
5, 919200, Note_on_c, 0, 43, 83
5, 919200, Note_on_c, 0, 47, 83
5, 919200, Note_on_c, 0, 50, 83
5, 919200, Note_on_c, 0, 55, 83
5, 919680, Note_on_c, 0, 55, 0
5, 919680, Note_on_c, 0, 43, 0
5, 919680, Note_on_c, 0, 47, 0
5, 919680, Note_on_c, 0, 50, 0
5, 919680, Note_on_c, 0, 42, 83
5, 919680, Note_on_c, 0, 45, 83
5, 919680, Note_on_c, 0, 48, 83
5, 919680, Note_on_c, 0, 54, 83
5, 920160, Note_on_c, 0, 54, 0
5, 920160, Note_on_c, 0, 42, 0
5, 920160, Note_on_c, 0, 45, 0
5, 920160, Note_on_c, 0, 48, 0
5, 920160, Note_on_c, 0, 36, 83
5, 920160, Note_on_c, 0, 48, 83
5, 920319, Note_on_c, 0, 48, 0
5, 920319, Note_on_c, 0, 36, 0
5, 920319, Note_on_c, 0, 36, 83
5, 920319, Note_on_c, 0, 48, 83
5, 920480, Note_on_c, 0, 48, 0
5, 920480, Note_on_c, 0, 36, 0
5, 920480, Note_on_c, 0, 36, 83
5, 920480, Note_on_c, 0, 48, 83
5, 920640, Note_on_c, 0, 48, 0
5, 920640, Note_on_c, 0, 36, 0
5, 920640, Note_on_c, 0, 35, 83
5, 920640, Note_on_c, 0, 47, 83
5, 921120, Note_on_c, 0, 47, 0
5, 921120, Note_on_c, 0, 35, 0
5, 921120, Note_on_c, 0, 47, 83
5, 921120, Note_on_c, 0, 51, 83
5, 921120, Note_on_c, 0, 54, 83
5, 921120, Note_on_c, 0, 59, 83
5, 921510, Note_on_c, 0, 40, 83
5, 921540, Note_on_c, 0, 43, 83
5, 921570, Note_on_c, 0, 47, 83
5, 921600, Note_on_c, 0, 59, 0
5, 921600, Note_on_c, 0, 54, 0
5, 921600, Note_on_c, 0, 47, 0
5, 921600, Note_on_c, 0, 51, 0
5, 921600, Note_on_c, 0, 52, 83
5, 921990, Note_on_c, 0, 45, 83
5, 922020, Note_on_c, 0, 48, 83
5, 922050, Note_on_c, 0, 52, 83
5, 922080, Note_on_c, 0, 52, 0
5, 922080, Note_on_c, 0, 47, 0
5, 922080, Note_on_c, 0, 43, 0
5, 922080, Note_on_c, 0, 40, 0
5, 922080, Note_on_c, 0, 57, 83
5, 922470, Note_on_c, 0, 40, 83
5, 922500, Note_on_c, 0, 43, 83
5, 922530, Note_on_c, 0, 47, 83
5, 922560, Note_on_c, 0, 57, 0
5, 922560, Note_on_c, 0, 52, 0
5, 922560, Note_on_c, 0, 48, 0
5, 922560, Note_on_c, 0, 45, 0
5, 922560, Note_on_c, 0, 52, 83
5, 922950, Note_on_c, 0, 45, 83
5, 922980, Note_on_c, 0, 48, 83
5, 923010, Note_on_c, 0, 52, 83
5, 923040, Note_on_c, 0, 52, 0
5, 923040, Note_on_c, 0, 47, 0
5, 923040, Note_on_c, 0, 43, 0
5, 923040, Note_on_c, 0, 40, 0
5, 923040, Note_on_c, 0, 57, 83
5, 923520, Note_on_c, 0, 57, 0
5, 923520, Note_on_c, 0, 48, 0
5, 923520, Note_on_c, 0, 45, 0
5, 923520, Note_on_c, 0, 52, 0
5, 923520, Note_on_c, 0, 40, 83
5, 923520, Note_on_c, 0, 43, 83
5, 923520, Note_on_c, 0, 47, 83
5, 923520, Note_on_c, 0, 52, 83
5, 924000, Note_on_c, 0, 52, 0
5, 924000, Note_on_c, 0, 40, 0
5, 924000, Note_on_c, 0, 43, 0
5, 924000, Note_on_c, 0, 47, 0
5, 924000, Note_on_c, 0, 52, 83
5, 924000, Note_on_c, 0, 55, 83
5, 924000, Note_on_c, 0, 59, 83
5, 924000, Note_on_c, 0, 64, 83
5, 924480, Note_on_c, 0, 64, 0
5, 924480, Note_on_c, 0, 52, 0
5, 924480, Note_on_c, 0, 55, 0
5, 924480, Note_on_c, 0, 59, 0
5, 924960, Note_on_c, 0, 43, 96
5, 924960, Note_on_c, 0, 55, 96
5, 925007, Note_on_c, 0, 55, 0
5, 925007, Note_on_c, 0, 43, 0
5, 925200, Note_on_c, 0, 38, 96
5, 925200, Note_on_c, 0, 50, 96
5, 925247, Note_on_c, 0, 50, 0
5, 925247, Note_on_c, 0, 38, 0
5, 925440, Note_on_c, 0, 45, 96
5, 925440, Note_on_c, 0, 57, 96
5, 925487, Note_on_c, 0, 57, 0
5, 925487, Note_on_c, 0, 45, 0
5, 925680, Note_on_c, 0, 47, 96
5, 925680, Note_on_c, 0, 59, 96
5, 925727, Note_on_c, 0, 59, 0
5, 925727, Note_on_c, 0, 47, 0
5, 925920, Note_on_c, 0, 45, 96
5, 925920, Note_on_c, 0, 57, 96
5, 925967, Note_on_c, 0, 57, 0
5, 925967, Note_on_c, 0, 45, 0
5, 926160, Note_on_c, 0, 42, 96
5, 926160, Note_on_c, 0, 54, 96
5, 926207, Note_on_c, 0, 54, 0
5, 926207, Note_on_c, 0, 42, 0
5, 926400, Note_on_c, 0, 38, 96
5, 926400, Note_on_c, 0, 50, 96
5, 926447, Note_on_c, 0, 50, 0
5, 926447, Note_on_c, 0, 38, 0
5, 926640, Note_on_c, 0, 33, 96
5, 926640, Note_on_c, 0, 45, 96
5, 926687, Note_on_c, 0, 45, 0
5, 926687, Note_on_c, 0, 33, 0
5, 926880, Note_on_c, 0, 31, 96
5, 926880, Note_on_c, 0, 43, 96
5, 926927, Note_on_c, 0, 43, 0
5, 926927, Note_on_c, 0, 31, 0
5, 927120, Note_on_c, 0, 35, 96
5, 927120, Note_on_c, 0, 47, 96
5, 927167, Note_on_c, 0, 47, 0
5, 927167, Note_on_c, 0, 35, 0
5, 927360, Note_on_c, 0, 38, 96
5, 927360, Note_on_c, 0, 50, 96
5, 927407, Note_on_c, 0, 50, 0
5, 927407, Note_on_c, 0, 38, 0
5, 927600, Note_on_c, 0, 33, 96
5, 927600, Note_on_c, 0, 45, 96
5, 927647, Note_on_c, 0, 45, 0
5, 927647, Note_on_c, 0, 33, 0
5, 927840, Note_on_c, 0, 38, 96
5, 927840, Note_on_c, 0, 50, 96
5, 927887, Note_on_c, 0, 50, 0
5, 927887, Note_on_c, 0, 38, 0
5, 928080, Note_on_c, 0, 42, 96
5, 928080, Note_on_c, 0, 54, 96
5, 928127, Note_on_c, 0, 54, 0
5, 928127, Note_on_c, 0, 42, 0
5, 928320, Note_on_c, 0, 45, 96
5, 928320, Note_on_c, 0, 57, 96
5, 928367, Note_on_c, 0, 57, 0
5, 928367, Note_on_c, 0, 45, 0
5, 928560, Note_on_c, 0, 38, 96
5, 928560, Note_on_c, 0, 50, 96
5, 928607, Note_on_c, 0, 50, 0
5, 928607, Note_on_c, 0, 38, 0
5, 928800, Note_on_c, 0, 43, 96
5, 928800, Note_on_c, 0, 55, 96
5, 928847, Note_on_c, 0, 55, 0
5, 928847, Note_on_c, 0, 43, 0
5, 929040, Note_on_c, 0, 41, 96
5, 929040, Note_on_c, 0, 53, 96
5, 929087, Note_on_c, 0, 53, 0
5, 929087, Note_on_c, 0, 41, 0
5, 929280, Note_on_c, 0, 40, 96
5, 929280, Note_on_c, 0, 52, 96
5, 929327, Note_on_c, 0, 52, 0
5, 929327, Note_on_c, 0, 40, 0
5, 929520, Note_on_c, 0, 36, 96
5, 929520, Note_on_c, 0, 48, 96
5, 929567, Note_on_c, 0, 48, 0
5, 929567, Note_on_c, 0, 36, 0
5, 929760, Note_on_c, 0, 43, 96
5, 929760, Note_on_c, 0, 55, 96
5, 929807, Note_on_c, 0, 55, 0
5, 929807, Note_on_c, 0, 43, 0
5, 930000, Note_on_c, 0, 41, 96
5, 930000, Note_on_c, 0, 53, 96
5, 930047, Note_on_c, 0, 53, 0
5, 930047, Note_on_c, 0, 41, 0
5, 930240, Note_on_c, 0, 40, 96
5, 930240, Note_on_c, 0, 52, 96
5, 930287, Note_on_c, 0, 52, 0
5, 930287, Note_on_c, 0, 40, 0
5, 930480, Note_on_c, 0, 36, 96
5, 930480, Note_on_c, 0, 48, 96
5, 930527, Note_on_c, 0, 48, 0
5, 930527, Note_on_c, 0, 36, 0
5, 930720, Note_on_c, 0, 42, 96
5, 930720, Note_on_c, 0, 54, 96
5, 930767, Note_on_c, 0, 54, 0
5, 930767, Note_on_c, 0, 42, 0
5, 930960, Note_on_c, 0, 38, 96
5, 930960, Note_on_c, 0, 50, 96
5, 931007, Note_on_c, 0, 50, 0
5, 931007, Note_on_c, 0, 38, 0
5, 931200, Note_on_c, 0, 43, 96
5, 931200, Note_on_c, 0, 55, 96
5, 931247, Note_on_c, 0, 55, 0
5, 931247, Note_on_c, 0, 43, 0
5, 931440, Note_on_c, 0, 47, 96
5, 931440, Note_on_c, 0, 59, 96
5, 931487, Note_on_c, 0, 59, 0
5, 931487, Note_on_c, 0, 47, 0
5, 931680, Note_on_c, 0, 50, 96
5, 931680, Note_on_c, 0, 62, 96
5, 931727, Note_on_c, 0, 62, 0
5, 931727, Note_on_c, 0, 50, 0
5, 931920, Note_on_c, 0, 45, 96
5, 931920, Note_on_c, 0, 57, 96
5, 931967, Note_on_c, 0, 57, 0
5, 931967, Note_on_c, 0, 45, 0
5, 932160, Note_on_c, 0, 42, 96
5, 932160, Note_on_c, 0, 54, 96
5, 932207, Note_on_c, 0, 54, 0
5, 932207, Note_on_c, 0, 42, 0
5, 932400, Note_on_c, 0, 38, 96
5, 932400, Note_on_c, 0, 50, 96
5, 932447, Note_on_c, 0, 50, 0
5, 932447, Note_on_c, 0, 38, 0
5, 932640, Note_on_c, 0, 43, 96
5, 932640, Note_on_c, 0, 55, 96
5, 932687, Note_on_c, 0, 55, 0
5, 932687, Note_on_c, 0, 43, 0
5, 932880, Note_on_c, 0, 38, 96
5, 932880, Note_on_c, 0, 50, 96
5, 932927, Note_on_c, 0, 50, 0
5, 932927, Note_on_c, 0, 38, 0
5, 933120, Note_on_c, 0, 45, 96
5, 933120, Note_on_c, 0, 57, 96
5, 933167, Note_on_c, 0, 57, 0
5, 933167, Note_on_c, 0, 45, 0
5, 933360, Note_on_c, 0, 47, 96
5, 933360, Note_on_c, 0, 59, 96
5, 933407, Note_on_c, 0, 59, 0
5, 933407, Note_on_c, 0, 47, 0
5, 933600, Note_on_c, 0, 45, 96
5, 933600, Note_on_c, 0, 57, 96
5, 933647, Note_on_c, 0, 57, 0
5, 933647, Note_on_c, 0, 45, 0
5, 933840, Note_on_c, 0, 42, 96
5, 933840, Note_on_c, 0, 54, 96
5, 933887, Note_on_c, 0, 54, 0
5, 933887, Note_on_c, 0, 42, 0
5, 934080, Note_on_c, 0, 38, 96
5, 934080, Note_on_c, 0, 50, 96
5, 934127, Note_on_c, 0, 50, 0
5, 934127, Note_on_c, 0, 38, 0
5, 934320, Note_on_c, 0, 33, 96
5, 934320, Note_on_c, 0, 45, 96
5, 934367, Note_on_c, 0, 45, 0
5, 934367, Note_on_c, 0, 33, 0
5, 934560, Note_on_c, 0, 31, 96
5, 934560, Note_on_c, 0, 43, 96
5, 934607, Note_on_c, 0, 43, 0
5, 934607, Note_on_c, 0, 31, 0
5, 934800, Note_on_c, 0, 35, 96
5, 934800, Note_on_c, 0, 47, 96
5, 934847, Note_on_c, 0, 47, 0
5, 934847, Note_on_c, 0, 35, 0
5, 935040, Note_on_c, 0, 38, 96
5, 935040, Note_on_c, 0, 50, 96
5, 935087, Note_on_c, 0, 50, 0
5, 935087, Note_on_c, 0, 38, 0
5, 935280, Note_on_c, 0, 33, 96
5, 935280, Note_on_c, 0, 45, 96
5, 935327, Note_on_c, 0, 45, 0
5, 935327, Note_on_c, 0, 33, 0
5, 935520, Note_on_c, 0, 38, 96
5, 935520, Note_on_c, 0, 50, 96
5, 935567, Note_on_c, 0, 50, 0
5, 935567, Note_on_c, 0, 38, 0
5, 935760, Note_on_c, 0, 42, 96
5, 935760, Note_on_c, 0, 54, 96
5, 935807, Note_on_c, 0, 54, 0
5, 935807, Note_on_c, 0, 42, 0
5, 936000, Note_on_c, 0, 45, 96
5, 936000, Note_on_c, 0, 57, 96
5, 936047, Note_on_c, 0, 57, 0
5, 936047, Note_on_c, 0, 45, 0
5, 936240, Note_on_c, 0, 38, 96
5, 936240, Note_on_c, 0, 50, 96
5, 936287, Note_on_c, 0, 50, 0
5, 936287, Note_on_c, 0, 38, 0
5, 936480, Note_on_c, 0, 43, 96
5, 936480, Note_on_c, 0, 55, 96
5, 936527, Note_on_c, 0, 55, 0
5, 936527, Note_on_c, 0, 43, 0
5, 936720, Note_on_c, 0, 41, 96
5, 936720, Note_on_c, 0, 53, 96
5, 936767, Note_on_c, 0, 53, 0
5, 936767, Note_on_c, 0, 41, 0
5, 936960, Note_on_c, 0, 40, 96
5, 936960, Note_on_c, 0, 52, 96
5, 937007, Note_on_c, 0, 52, 0
5, 937007, Note_on_c, 0, 40, 0
5, 937200, Note_on_c, 0, 36, 96
5, 937200, Note_on_c, 0, 48, 96
5, 937247, Note_on_c, 0, 48, 0
5, 937247, Note_on_c, 0, 36, 0
5, 937440, Note_on_c, 0, 43, 96
5, 937440, Note_on_c, 0, 55, 96
5, 937487, Note_on_c, 0, 55, 0
5, 937487, Note_on_c, 0, 43, 0
5, 937680, Note_on_c, 0, 41, 96
5, 937680, Note_on_c, 0, 53, 96
5, 937727, Note_on_c, 0, 53, 0
5, 937727, Note_on_c, 0, 41, 0
5, 937920, Note_on_c, 0, 40, 96
5, 937920, Note_on_c, 0, 52, 96
5, 937967, Note_on_c, 0, 52, 0
5, 937967, Note_on_c, 0, 40, 0
5, 938160, Note_on_c, 0, 36, 96
5, 938160, Note_on_c, 0, 48, 96
5, 938207, Note_on_c, 0, 48, 0
5, 938207, Note_on_c, 0, 36, 0
5, 938400, Note_on_c, 0, 45, 96
5, 938400, Note_on_c, 0, 57, 96
5, 938447, Note_on_c, 0, 57, 0
5, 938447, Note_on_c, 0, 45, 0
5, 938640, Note_on_c, 0, 43, 96
5, 938640, Note_on_c, 0, 55, 96
5, 938687, Note_on_c, 0, 55, 0
5, 938687, Note_on_c, 0, 43, 0
5, 938880, Note_on_c, 0, 42, 96
5, 938880, Note_on_c, 0, 54, 96
5, 938927, Note_on_c, 0, 54, 0
5, 938927, Note_on_c, 0, 42, 0
5, 939120, Note_on_c, 0, 38, 96
5, 939120, Note_on_c, 0, 50, 96
5, 939167, Note_on_c, 0, 50, 0
5, 939167, Note_on_c, 0, 38, 0
5, 939360, Note_on_c, 0, 45, 96
5, 939360, Note_on_c, 0, 57, 96
5, 939407, Note_on_c, 0, 57, 0
5, 939407, Note_on_c, 0, 45, 0
5, 939600, Note_on_c, 0, 43, 96
5, 939600, Note_on_c, 0, 55, 96
5, 939647, Note_on_c, 0, 55, 0
5, 939647, Note_on_c, 0, 43, 0
5, 939840, Note_on_c, 0, 42, 96
5, 939840, Note_on_c, 0, 54, 96
5, 939887, Note_on_c, 0, 54, 0
5, 939887, Note_on_c, 0, 42, 0
5, 940080, Note_on_c, 0, 38, 96
5, 940080, Note_on_c, 0, 50, 96
5, 940127, Note_on_c, 0, 50, 0
5, 940127, Note_on_c, 0, 38, 0
5, 940320, Note_on_c, 0, 47, 96
5, 940320, Note_on_c, 0, 59, 96
5, 940367, Note_on_c, 0, 59, 0
5, 940367, Note_on_c, 0, 47, 0
5, 940560, Note_on_c, 0, 45, 96
5, 940560, Note_on_c, 0, 57, 96
5, 940607, Note_on_c, 0, 57, 0
5, 940607, Note_on_c, 0, 45, 0
5, 940800, Note_on_c, 0, 43, 96
5, 940800, Note_on_c, 0, 55, 96
5, 940847, Note_on_c, 0, 55, 0
5, 940847, Note_on_c, 0, 43, 0
5, 941040, Note_on_c, 0, 40, 96
5, 941040, Note_on_c, 0, 52, 96
5, 941087, Note_on_c, 0, 52, 0
5, 941087, Note_on_c, 0, 40, 0
5, 941280, Note_on_c, 0, 50, 96
5, 941280, Note_on_c, 0, 62, 96
5, 941327, Note_on_c, 0, 62, 0
5, 941327, Note_on_c, 0, 50, 0
5, 941520, Note_on_c, 0, 48, 96
5, 941520, Note_on_c, 0, 60, 96
5, 941567, Note_on_c, 0, 60, 0
5, 941567, Note_on_c, 0, 48, 0
5, 941760, Note_on_c, 0, 47, 96
5, 941760, Note_on_c, 0, 59, 96
5, 941807, Note_on_c, 0, 59, 0
5, 941807, Note_on_c, 0, 47, 0
5, 942000, Note_on_c, 0, 35, 96
5, 942000, Note_on_c, 0, 47, 96
5, 942047, Note_on_c, 0, 47, 0
5, 942047, Note_on_c, 0, 35, 0
5, 942240, Note_on_c, 0, 46, 96
5, 942240, Note_on_c, 0, 58, 96
5, 942287, Note_on_c, 0, 58, 0
5, 942287, Note_on_c, 0, 46, 0
5, 942480, Note_on_c, 0, 34, 96
5, 942480, Note_on_c, 0, 46, 96
5, 942527, Note_on_c, 0, 46, 0
5, 942527, Note_on_c, 0, 34, 0
5, 942720, Note_on_c, 0, 33, 83
5, 942720, Note_on_c, 0, 45, 83
5, 943200, Note_on_c, 0, 45, 0
5, 943200, Note_on_c, 0, 33, 0
5, 943200, Note_on_c, 0, 45, 83
5, 943200, Note_on_c, 0, 49, 83
5, 943200, Note_on_c, 0, 52, 83
5, 943200, Note_on_c, 0, 57, 83
5, 943359, Note_on_c, 0, 57, 0
5, 943359, Note_on_c, 0, 45, 0
5, 943359, Note_on_c, 0, 49, 0
5, 943359, Note_on_c, 0, 52, 0
5, 943359, Note_on_c, 0, 45, 83
5, 943359, Note_on_c, 0, 49, 83
5, 943359, Note_on_c, 0, 52, 83
5, 943359, Note_on_c, 0, 57, 83
5, 943520, Note_on_c, 0, 57, 0
5, 943520, Note_on_c, 0, 45, 0
5, 943520, Note_on_c, 0, 49, 0
5, 943520, Note_on_c, 0, 52, 0
5, 943520, Note_on_c, 0, 45, 83
5, 943520, Note_on_c, 0, 49, 83
5, 943520, Note_on_c, 0, 52, 83
5, 943520, Note_on_c, 0, 57, 83
5, 943680, Note_on_c, 0, 57, 0
5, 943680, Note_on_c, 0, 45, 0
5, 943680, Note_on_c, 0, 49, 0
5, 943680, Note_on_c, 0, 52, 0
5, 943680, Note_on_c, 0, 45, 83
5, 943680, Note_on_c, 0, 49, 83
5, 943680, Note_on_c, 0, 52, 83
5, 943680, Note_on_c, 0, 57, 83
5, 944160, Note_on_c, 0, 57, 0
5, 944160, Note_on_c, 0, 45, 0
5, 944160, Note_on_c, 0, 49, 0
5, 944160, Note_on_c, 0, 52, 0
5, 944160, Note_on_c, 0, 33, 83
5, 944160, Note_on_c, 0, 45, 83
5, 944640, Note_on_c, 0, 45, 0
5, 944640, Note_on_c, 0, 33, 0
5, 944640, Note_on_c, 0, 34, 96
5, 944640, Note_on_c, 0, 46, 96
5, 944880, Note_on_c, 0, 46, 0
5, 944880, Note_on_c, 0, 34, 0
5, 944880, Note_on_c, 0, 46, 96
5, 944880, Note_on_c, 0, 58, 96
5, 945120, Note_on_c, 0, 58, 0
5, 945120, Note_on_c, 0, 46, 0
5, 945120, Note_on_c, 0, 45, 96
5, 945120, Note_on_c, 0, 57, 96
5, 945360, Note_on_c, 0, 57, 0
5, 945360, Note_on_c, 0, 45, 0
5, 945360, Note_on_c, 0, 33, 96
5, 945360, Note_on_c, 0, 45, 96
5, 945600, Note_on_c, 0, 45, 0
5, 945600, Note_on_c, 0, 33, 0
5, 945600, Note_on_c, 0, 34, 96
5, 945600, Note_on_c, 0, 46, 96
5, 945840, Note_on_c, 0, 46, 0
5, 945840, Note_on_c, 0, 34, 0
5, 945840, Note_on_c, 0, 46, 96
5, 945840, Note_on_c, 0, 58, 96
5, 946080, Note_on_c, 0, 58, 0
5, 946080, Note_on_c, 0, 46, 0
5, 946080, Note_on_c, 0, 47, 96
5, 946080, Note_on_c, 0, 59, 96
5, 946320, Note_on_c, 0, 59, 0
5, 946320, Note_on_c, 0, 47, 0
5, 946320, Note_on_c, 0, 40, 96
5, 946320, Note_on_c, 0, 52, 96
5, 946560, Note_on_c, 0, 52, 0
5, 946560, Note_on_c, 0, 40, 0
5, 946560, Note_on_c, 0, 45, 83
5, 946560, Note_on_c, 0, 57, 83
5, 947040, Note_on_c, 0, 57, 0
5, 947040, Note_on_c, 0, 45, 0
5, 947040, Note_on_c, 0, 45, 83
5, 947040, Note_on_c, 0, 49, 83
5, 947040, Note_on_c, 0, 52, 83
5, 947040, Note_on_c, 0, 57, 83
5, 947199, Note_on_c, 0, 57, 0
5, 947199, Note_on_c, 0, 45, 0
5, 947199, Note_on_c, 0, 49, 0
5, 947199, Note_on_c, 0, 52, 0
5, 947199, Note_on_c, 0, 45, 83
5, 947199, Note_on_c, 0, 49, 83
5, 947199, Note_on_c, 0, 52, 83
5, 947199, Note_on_c, 0, 57, 83
5, 947360, Note_on_c, 0, 57, 0
5, 947360, Note_on_c, 0, 45, 0
5, 947360, Note_on_c, 0, 49, 0
5, 947360, Note_on_c, 0, 52, 0
5, 947360, Note_on_c, 0, 45, 83
5, 947360, Note_on_c, 0, 49, 83
5, 947360, Note_on_c, 0, 52, 83
5, 947360, Note_on_c, 0, 57, 83
5, 947520, Note_on_c, 0, 57, 0
5, 947520, Note_on_c, 0, 45, 0
5, 947520, Note_on_c, 0, 49, 0
5, 947520, Note_on_c, 0, 52, 0
5, 947520, Note_on_c, 0, 45, 83
5, 947520, Note_on_c, 0, 49, 83
5, 947520, Note_on_c, 0, 52, 83
5, 947520, Note_on_c, 0, 57, 83
5, 948000, Note_on_c, 0, 57, 0
5, 948000, Note_on_c, 0, 45, 0
5, 948000, Note_on_c, 0, 49, 0
5, 948000, Note_on_c, 0, 52, 0
5, 948000, Note_on_c, 0, 33, 83
5, 948000, Note_on_c, 0, 45, 83
5, 948480, Note_on_c, 0, 45, 0
5, 948480, Note_on_c, 0, 33, 0
5, 948480, Note_on_c, 0, 34, 96
5, 948720, Note_on_c, 0, 34, 0
5, 948720, Note_on_c, 0, 46, 96
5, 948960, Note_on_c, 0, 46, 0
5, 948960, Note_on_c, 0, 45, 96
5, 949200, Note_on_c, 0, 45, 0
5, 949200, Note_on_c, 0, 33, 96
5, 949440, Note_on_c, 0, 33, 0
5, 949440, Note_on_c, 0, 34, 96
5, 949680, Note_on_c, 0, 34, 0
5, 949680, Note_on_c, 0, 46, 96
5, 949920, Note_on_c, 0, 46, 0
5, 949920, Note_on_c, 0, 47, 96
5, 950160, Note_on_c, 0, 47, 0
5, 950160, Note_on_c, 0, 40, 96
5, 950400, Note_on_c, 0, 40, 0
5, 950400, Note_on_c, 0, 45, 96
5, 950880, Note_on_c, 0, 45, 0
5, 950880, Note_on_c, 0, 33, 96
5, 951120, Note_on_c, 0, 33, 0
5, 951360, Note_on_c, 0, 34, 96
5, 951600, Note_on_c, 0, 34, 0
5, 951600, Note_on_c, 0, 46, 96
5, 951840, Note_on_c, 0, 46, 0
5, 951840, Note_on_c, 0, 47, 96
5, 952080, Note_on_c, 0, 47, 0
5, 952080, Note_on_c, 0, 40, 96
5, 952320, Note_on_c, 0, 40, 0
5, 952320, Note_on_c, 0, 45, 96
5, 952800, Note_on_c, 0, 45, 0
5, 952800, Note_on_c, 0, 33, 96
5, 953040, Note_on_c, 0, 33, 0
5, 953280, Note_on_c, 0, 34, 96
5, 953520, Note_on_c, 0, 34, 0
5, 953520, Note_on_c, 0, 46, 96
5, 953760, Note_on_c, 0, 46, 0
5, 953760, Note_on_c, 0, 47, 96
5, 954000, Note_on_c, 0, 47, 0
5, 954000, Note_on_c, 0, 40, 96
5, 954240, Note_on_c, 0, 40, 0
5, 954240, Note_on_c, 0, 33, 96
5, 954480, Note_on_c, 0, 33, 0
5, 954480, Note_on_c, 0, 45, 96
5, 954720, Note_on_c, 0, 45, 0
5, 954720, Note_on_c, 0, 46, 96
5, 954960, Note_on_c, 0, 46, 0
5, 954960, Note_on_c, 0, 34, 96
5, 955200, Note_on_c, 0, 34, 0
5, 955200, Note_on_c, 0, 33, 96
5, 955440, Note_on_c, 0, 33, 0
5, 955440, Note_on_c, 0, 45, 96
5, 955680, Note_on_c, 0, 45, 0
5, 955680, Note_on_c, 0, 46, 96
5, 955920, Note_on_c, 0, 46, 0
5, 955920, Note_on_c, 0, 34, 96
5, 956160, Note_on_c, 0, 34, 0
5, 956160, Note_on_c, 0, 33, 96
5, 956400, Note_on_c, 0, 33, 0
5, 956400, Note_on_c, 0, 40, 96
5, 956640, Note_on_c, 0, 40, 0
5, 956640, Note_on_c, 0, 45, 96
5, 956880, Note_on_c, 0, 45, 0
5, 956880, Note_on_c, 0, 40, 96
5, 957120, Note_on_c, 0, 40, 0
5, 957120, Note_on_c, 0, 45, 96
5, 958080, Note_on_c, 0, 45, 0
5, 959040, Control_c, 0, 64, 127
5, 959040, Note_on_c, 0, 34, 96
5, 959160, Note_on_c, 0, 34, 0
5, 959160, Note_on_c, 0, 46, 83
5, 959280, Note_on_c, 0, 46, 0
5, 959280, Note_on_c, 0, 34, 83
5, 959400, Note_on_c, 0, 34, 0
5, 959400, Note_on_c, 0, 46, 83
5, 959520, Note_on_c, 0, 46, 0
5, 959520, Note_on_c, 0, 34, 83
5, 959640, Note_on_c, 0, 34, 0
5, 959640, Note_on_c, 0, 46, 83
5, 959760, Note_on_c, 0, 46, 0
5, 959760, Note_on_c, 0, 34, 83
5, 959880, Note_on_c, 0, 34, 0
5, 959880, Note_on_c, 0, 46, 83
5, 960000, Note_on_c, 0, 46, 0
5, 960000, Note_on_c, 0, 34, 70
5, 960120, Note_on_c, 0, 34, 0
5, 960120, Note_on_c, 0, 46, 70
5, 960240, Note_on_c, 0, 46, 0
5, 960240, Note_on_c, 0, 34, 70
5, 960360, Note_on_c, 0, 34, 0
5, 960360, Note_on_c, 0, 46, 70
5, 960480, Note_on_c, 0, 46, 0
5, 960480, Note_on_c, 0, 34, 70
5, 960600, Note_on_c, 0, 34, 0
5, 960600, Note_on_c, 0, 46, 70
5, 960720, Note_on_c, 0, 46, 0
5, 960720, Note_on_c, 0, 34, 70
5, 960840, Note_on_c, 0, 34, 0
5, 960840, Note_on_c, 0, 46, 70
5, 960960, Note_on_c, 0, 46, 0
5, 960960, Note_on_c, 0, 34, 57
5, 961080, Note_on_c, 0, 34, 0
5, 961080, Note_on_c, 0, 46, 57
5, 961200, Note_on_c, 0, 46, 0
5, 961200, Note_on_c, 0, 34, 57
5, 961320, Note_on_c, 0, 34, 0
5, 961320, Note_on_c, 0, 46, 57
5, 961440, Note_on_c, 0, 46, 0
5, 961440, Note_on_c, 0, 34, 57
5, 961560, Note_on_c, 0, 34, 0
5, 961560, Note_on_c, 0, 46, 57
5, 961680, Note_on_c, 0, 46, 0
5, 961680, Note_on_c, 0, 34, 57
5, 961800, Note_on_c, 0, 34, 0
5, 961800, Note_on_c, 0, 46, 44
5, 961920, Note_on_c, 0, 46, 0
5, 961920, Note_on_c, 0, 34, 44
5, 962040, Note_on_c, 0, 34, 0
5, 962040, Note_on_c, 0, 46, 44
5, 962160, Note_on_c, 0, 46, 0
5, 962160, Note_on_c, 0, 34, 44
5, 962280, Note_on_c, 0, 34, 0
5, 962280, Note_on_c, 0, 46, 44
5, 962400, Note_on_c, 0, 46, 0
5, 962400, Note_on_c, 0, 34, 44
5, 962520, Note_on_c, 0, 34, 0
5, 962520, Note_on_c, 0, 46, 44
5, 962640, Note_on_c, 0, 46, 0
5, 962640, Control_c, 0, 64, 0
5, 962640, Note_on_c, 0, 34, 44
5, 962760, Note_on_c, 0, 34, 0
5, 962760, Note_on_c, 0, 46, 44
5, 962880, Note_on_c, 0, 46, 0
5, 962880, Control_c, 0, 64, 127
5, 962880, Note_on_c, 0, 34, 44
5, 962880, Note_on_c, 0, 46, 44
5, 963120, Note_on_c, 0, 46, 0
5, 963120, Note_on_c, 0, 34, 0
5, 963120, Note_on_c, 0, 53, 44
5, 963120, Note_on_c, 0, 58, 44
5, 963240, Note_on_c, 0, 58, 0
5, 963240, Note_on_c, 0, 53, 0
5, 963240, Note_on_c, 0, 62, 44
5, 963360, Note_on_c, 0, 62, 0
5, 963360, Note_on_c, 0, 53, 44
5, 963360, Note_on_c, 0, 58, 44
5, 963480, Note_on_c, 0, 58, 0
5, 963480, Note_on_c, 0, 53, 0
5, 963480, Note_on_c, 0, 62, 44
5, 963600, Note_on_c, 0, 62, 0
5, 963600, Note_on_c, 0, 53, 44
5, 963600, Note_on_c, 0, 58, 44
5, 963720, Note_on_c, 0, 58, 0
5, 963720, Note_on_c, 0, 53, 0
5, 963720, Note_on_c, 0, 62, 44
5, 963840, Note_on_c, 0, 62, 0
5, 963840, Note_on_c, 0, 53, 44
5, 963840, Note_on_c, 0, 58, 44
5, 963960, Note_on_c, 0, 58, 0
5, 963960, Note_on_c, 0, 53, 0
5, 963960, Note_on_c, 0, 62, 44
5, 964080, Note_on_c, 0, 62, 0
5, 964080, Note_on_c, 0, 53, 44
5, 964080, Note_on_c, 0, 58, 44
5, 964200, Note_on_c, 0, 58, 0
5, 964200, Note_on_c, 0, 53, 0
5, 964200, Note_on_c, 0, 62, 44
5, 964320, Note_on_c, 0, 62, 0
5, 964320, Note_on_c, 0, 53, 44
5, 964320, Note_on_c, 0, 58, 44
5, 964440, Note_on_c, 0, 58, 0
5, 964440, Note_on_c, 0, 53, 0
5, 964440, Note_on_c, 0, 62, 44
5, 964560, Note_on_c, 0, 62, 0
5, 964560, Note_on_c, 0, 53, 44
5, 964560, Note_on_c, 0, 58, 44
5, 964680, Note_on_c, 0, 58, 0
5, 964680, Note_on_c, 0, 53, 0
5, 964680, Note_on_c, 0, 62, 44
5, 964800, Note_on_c, 0, 62, 0
5, 964800, Note_on_c, 0, 53, 44
5, 964800, Note_on_c, 0, 58, 44
5, 964920, Note_on_c, 0, 58, 0
5, 964920, Note_on_c, 0, 53, 0
5, 964920, Note_on_c, 0, 62, 44
5, 965040, Note_on_c, 0, 62, 0
5, 965040, Note_on_c, 0, 53, 44
5, 965040, Note_on_c, 0, 58, 44
5, 965160, Note_on_c, 0, 58, 0
5, 965160, Note_on_c, 0, 53, 0
5, 965160, Note_on_c, 0, 62, 44
5, 965280, Note_on_c, 0, 62, 0
5, 965280, Note_on_c, 0, 53, 44
5, 965280, Note_on_c, 0, 58, 44
5, 965400, Note_on_c, 0, 58, 0
5, 965400, Note_on_c, 0, 53, 0
5, 965400, Note_on_c, 0, 62, 44
5, 965520, Note_on_c, 0, 62, 0
5, 965520, Note_on_c, 0, 53, 44
5, 965520, Note_on_c, 0, 58, 44
5, 965640, Note_on_c, 0, 58, 0
5, 965640, Note_on_c, 0, 53, 0
5, 965640, Note_on_c, 0, 62, 44
5, 965760, Note_on_c, 0, 62, 0
5, 965760, Note_on_c, 0, 53, 44
5, 965760, Note_on_c, 0, 58, 44
5, 965880, Note_on_c, 0, 58, 0
5, 965880, Note_on_c, 0, 53, 0
5, 965880, Note_on_c, 0, 62, 44
5, 966000, Note_on_c, 0, 62, 0
5, 966000, Note_on_c, 0, 53, 44
5, 966000, Note_on_c, 0, 58, 44
5, 966120, Note_on_c, 0, 58, 0
5, 966120, Note_on_c, 0, 53, 0
5, 966120, Note_on_c, 0, 62, 44
5, 966240, Note_on_c, 0, 62, 0
5, 966240, Note_on_c, 0, 53, 44
5, 966240, Note_on_c, 0, 58, 44
5, 966360, Note_on_c, 0, 58, 0
5, 966360, Note_on_c, 0, 53, 0
5, 966360, Note_on_c, 0, 62, 44
5, 966480, Note_on_c, 0, 62, 0
5, 966480, Note_on_c, 0, 53, 44
5, 966480, Note_on_c, 0, 58, 44
5, 966600, Note_on_c, 0, 58, 0
5, 966600, Note_on_c, 0, 53, 0
5, 966600, Control_c, 0, 64, 0
5, 966600, Note_on_c, 0, 62, 44
5, 966720, Note_on_c, 0, 62, 0
5, 966720, Control_c, 0, 64, 127
5, 966720, Note_on_c, 0, 46, 44
5, 966720, Note_on_c, 0, 50, 44
5, 966840, Note_on_c, 0, 50, 0
5, 966840, Note_on_c, 0, 46, 0
5, 966840, Note_on_c, 0, 58, 44
5, 966960, Note_on_c, 0, 58, 0
5, 966960, Note_on_c, 0, 46, 44
5, 966960, Note_on_c, 0, 50, 44
5, 967080, Note_on_c, 0, 50, 0
5, 967080, Note_on_c, 0, 46, 0
5, 967080, Note_on_c, 0, 58, 44
5, 967200, Note_on_c, 0, 58, 0
5, 967200, Note_on_c, 0, 46, 44
5, 967200, Note_on_c, 0, 50, 44
5, 967320, Note_on_c, 0, 50, 0
5, 967320, Note_on_c, 0, 46, 0
5, 967320, Note_on_c, 0, 58, 44
5, 967440, Note_on_c, 0, 58, 0
5, 967440, Note_on_c, 0, 46, 44
5, 967440, Note_on_c, 0, 50, 44
5, 967560, Note_on_c, 0, 50, 0
5, 967560, Note_on_c, 0, 46, 0
5, 967560, Note_on_c, 0, 58, 44
5, 967680, Note_on_c, 0, 58, 0
5, 967680, Note_on_c, 0, 46, 44
5, 967680, Note_on_c, 0, 50, 44
5, 967800, Note_on_c, 0, 50, 0
5, 967800, Note_on_c, 0, 46, 0
5, 967800, Note_on_c, 0, 58, 44
5, 967920, Note_on_c, 0, 58, 0
5, 967920, Note_on_c, 0, 46, 44
5, 967920, Note_on_c, 0, 50, 44
5, 968040, Note_on_c, 0, 50, 0
5, 968040, Note_on_c, 0, 46, 0
5, 968040, Note_on_c, 0, 58, 44
5, 968160, Note_on_c, 0, 58, 0
5, 968160, Note_on_c, 0, 46, 44
5, 968160, Note_on_c, 0, 50, 44
5, 968280, Note_on_c, 0, 50, 0
5, 968280, Note_on_c, 0, 46, 0
5, 968280, Note_on_c, 0, 58, 44
5, 968400, Note_on_c, 0, 58, 0
5, 968400, Note_on_c, 0, 46, 44
5, 968400, Note_on_c, 0, 50, 44
5, 968520, Note_on_c, 0, 50, 0
5, 968520, Note_on_c, 0, 46, 0
5, 968520, Note_on_c, 0, 58, 44
5, 968640, Note_on_c, 0, 58, 0
5, 968640, Note_on_c, 0, 46, 44
5, 968640, Note_on_c, 0, 50, 44
5, 968760, Note_on_c, 0, 50, 0
5, 968760, Note_on_c, 0, 46, 0
5, 968760, Note_on_c, 0, 58, 44
5, 968880, Note_on_c, 0, 58, 0
5, 968880, Note_on_c, 0, 46, 44
5, 968880, Note_on_c, 0, 50, 44
5, 969000, Note_on_c, 0, 50, 0
5, 969000, Note_on_c, 0, 46, 0
5, 969000, Note_on_c, 0, 58, 44
5, 969120, Note_on_c, 0, 58, 0
5, 969120, Note_on_c, 0, 46, 44
5, 969120, Note_on_c, 0, 50, 44
5, 969240, Note_on_c, 0, 50, 0
5, 969240, Note_on_c, 0, 46, 0
5, 969240, Note_on_c, 0, 58, 44
5, 969360, Note_on_c, 0, 58, 0
5, 969360, Note_on_c, 0, 46, 44
5, 969360, Note_on_c, 0, 50, 44
5, 969480, Note_on_c, 0, 50, 0
5, 969480, Note_on_c, 0, 46, 0
5, 969480, Note_on_c, 0, 58, 44
5, 969600, Note_on_c, 0, 58, 0
5, 969600, Note_on_c, 0, 46, 44
5, 969600, Note_on_c, 0, 50, 44
5, 969720, Note_on_c, 0, 50, 0
5, 969720, Note_on_c, 0, 46, 0
5, 969720, Note_on_c, 0, 58, 44
5, 969840, Note_on_c, 0, 58, 0
5, 969840, Note_on_c, 0, 46, 44
5, 969840, Note_on_c, 0, 50, 44
5, 969960, Note_on_c, 0, 50, 0
5, 969960, Note_on_c, 0, 46, 0
5, 969960, Note_on_c, 0, 58, 44
5, 970080, Note_on_c, 0, 58, 0
5, 970080, Note_on_c, 0, 46, 44
5, 970080, Note_on_c, 0, 50, 44
5, 970200, Note_on_c, 0, 50, 0
5, 970200, Note_on_c, 0, 46, 0
5, 970200, Note_on_c, 0, 58, 44
5, 970320, Note_on_c, 0, 58, 0
5, 970320, Note_on_c, 0, 46, 44
5, 970320, Note_on_c, 0, 50, 44
5, 970440, Note_on_c, 0, 50, 0
5, 970440, Note_on_c, 0, 46, 0
5, 970440, Control_c, 0, 64, 0
5, 970440, Note_on_c, 0, 58, 44
5, 970560, Note_on_c, 0, 58, 0
5, 970560, Control_c, 0, 64, 127
5, 970560, Note_on_c, 0, 34, 44
5, 970560, Note_on_c, 0, 46, 44
5, 970800, Note_on_c, 0, 46, 0
5, 970800, Note_on_c, 0, 34, 0
5, 970800, Note_on_c, 0, 46, 44
5, 970800, Note_on_c, 0, 51, 44
5, 970920, Note_on_c, 0, 51, 0
5, 970920, Note_on_c, 0, 46, 0
5, 970920, Note_on_c, 0, 57, 44
5, 971040, Note_on_c, 0, 57, 0
5, 971040, Note_on_c, 0, 46, 44
5, 971040, Note_on_c, 0, 51, 44
5, 971160, Note_on_c, 0, 51, 0
5, 971160, Note_on_c, 0, 46, 0
5, 971160, Note_on_c, 0, 57, 44
5, 971280, Note_on_c, 0, 57, 0
5, 971280, Note_on_c, 0, 46, 44
5, 971280, Note_on_c, 0, 51, 44
5, 971400, Note_on_c, 0, 51, 0
5, 971400, Note_on_c, 0, 46, 0
5, 971400, Note_on_c, 0, 57, 44
5, 971520, Note_on_c, 0, 57, 0
5, 971520, Note_on_c, 0, 46, 44
5, 971520, Note_on_c, 0, 51, 44
5, 971640, Note_on_c, 0, 51, 0
5, 971640, Note_on_c, 0, 46, 0
5, 971640, Note_on_c, 0, 57, 44
5, 971760, Note_on_c, 0, 57, 0
5, 971760, Note_on_c, 0, 46, 44
5, 971760, Note_on_c, 0, 51, 44
5, 971880, Note_on_c, 0, 51, 0
5, 971880, Note_on_c, 0, 46, 0
5, 971880, Note_on_c, 0, 57, 44
5, 972000, Note_on_c, 0, 57, 0
5, 972000, Note_on_c, 0, 46, 44
5, 972000, Note_on_c, 0, 51, 44
5, 972120, Note_on_c, 0, 51, 0
5, 972120, Note_on_c, 0, 46, 0
5, 972120, Note_on_c, 0, 57, 44
5, 972240, Note_on_c, 0, 57, 0
5, 972240, Note_on_c, 0, 46, 44
5, 972240, Note_on_c, 0, 51, 44
5, 972360, Note_on_c, 0, 51, 0
5, 972360, Note_on_c, 0, 46, 0
5, 972360, Control_c, 0, 64, 0
5, 972360, Note_on_c, 0, 57, 44
5, 972480, Note_on_c, 0, 57, 0
5, 972480, Control_c, 0, 64, 127
5, 972480, Note_on_c, 0, 46, 44
5, 972480, Note_on_c, 0, 53, 44
5, 972600, Note_on_c, 0, 53, 0
5, 972600, Note_on_c, 0, 46, 0
5, 972600, Note_on_c, 0, 57, 44
5, 972720, Note_on_c, 0, 57, 0
5, 972720, Note_on_c, 0, 46, 44
5, 972720, Note_on_c, 0, 53, 44
5, 972840, Note_on_c, 0, 53, 0
5, 972840, Note_on_c, 0, 46, 0
5, 972840, Note_on_c, 0, 57, 44
5, 972960, Note_on_c, 0, 57, 0
5, 972960, Note_on_c, 0, 46, 44
5, 972960, Note_on_c, 0, 53, 44
5, 973080, Note_on_c, 0, 53, 0
5, 973080, Note_on_c, 0, 46, 0
5, 973080, Note_on_c, 0, 57, 44
5, 973200, Note_on_c, 0, 57, 0
5, 973200, Note_on_c, 0, 46, 44
5, 973200, Note_on_c, 0, 53, 44
5, 973320, Note_on_c, 0, 53, 0
5, 973320, Note_on_c, 0, 46, 0
5, 973320, Note_on_c, 0, 57, 44
5, 973440, Note_on_c, 0, 57, 0
5, 973440, Note_on_c, 0, 46, 44
5, 973440, Note_on_c, 0, 53, 44
5, 973560, Note_on_c, 0, 53, 0
5, 973560, Note_on_c, 0, 46, 0
5, 973560, Note_on_c, 0, 57, 44
5, 973680, Note_on_c, 0, 57, 0
5, 973680, Note_on_c, 0, 46, 44
5, 973680, Note_on_c, 0, 53, 44
5, 973800, Note_on_c, 0, 53, 0
5, 973800, Note_on_c, 0, 46, 0
5, 973800, Note_on_c, 0, 57, 44
5, 973920, Note_on_c, 0, 57, 0
5, 973920, Note_on_c, 0, 46, 44
5, 973920, Note_on_c, 0, 53, 44
5, 974040, Note_on_c, 0, 53, 0
5, 974040, Note_on_c, 0, 46, 0
5, 974040, Note_on_c, 0, 57, 44
5, 974160, Note_on_c, 0, 57, 0
5, 974160, Note_on_c, 0, 46, 44
5, 974160, Note_on_c, 0, 53, 44
5, 974280, Note_on_c, 0, 53, 0
5, 974280, Note_on_c, 0, 46, 0
5, 974280, Control_c, 0, 64, 0
5, 974280, Note_on_c, 0, 57, 44
5, 974400, Note_on_c, 0, 57, 0
5, 974400, Control_c, 0, 64, 127
5, 974400, Note_on_c, 0, 46, 44
5, 974400, Note_on_c, 0, 53, 44
5, 974520, Note_on_c, 0, 53, 0
5, 974520, Note_on_c, 0, 46, 0
5, 974520, Note_on_c, 0, 58, 44
5, 974640, Note_on_c, 0, 58, 0
5, 974640, Note_on_c, 0, 46, 44
5, 974640, Note_on_c, 0, 53, 44
5, 974760, Note_on_c, 0, 53, 0
5, 974760, Note_on_c, 0, 46, 0
5, 974760, Note_on_c, 0, 58, 44
5, 974880, Note_on_c, 0, 58, 0
5, 974880, Note_on_c, 0, 46, 44
5, 974880, Note_on_c, 0, 53, 44
5, 975000, Note_on_c, 0, 53, 0
5, 975000, Note_on_c, 0, 46, 0
5, 975000, Note_on_c, 0, 58, 44
5, 975120, Note_on_c, 0, 58, 0
5, 975120, Note_on_c, 0, 46, 44
5, 975120, Note_on_c, 0, 53, 44
5, 975240, Note_on_c, 0, 53, 0
5, 975240, Note_on_c, 0, 46, 0
5, 975240, Note_on_c, 0, 58, 44
5, 975360, Note_on_c, 0, 58, 0
5, 975360, Note_on_c, 0, 46, 44
5, 975360, Note_on_c, 0, 53, 44
5, 975480, Note_on_c, 0, 53, 0
5, 975480, Note_on_c, 0, 46, 0
5, 975480, Note_on_c, 0, 58, 44
5, 975600, Note_on_c, 0, 58, 0
5, 975600, Note_on_c, 0, 46, 44
5, 975600, Note_on_c, 0, 53, 44
5, 975720, Note_on_c, 0, 53, 0
5, 975720, Note_on_c, 0, 46, 0
5, 975720, Note_on_c, 0, 58, 44
5, 975840, Note_on_c, 0, 58, 0
5, 975840, Note_on_c, 0, 46, 44
5, 975840, Note_on_c, 0, 53, 44
5, 975960, Note_on_c, 0, 53, 0
5, 975960, Note_on_c, 0, 46, 0
5, 975960, Note_on_c, 0, 58, 44
5, 976080, Note_on_c, 0, 58, 0
5, 976080, Note_on_c, 0, 46, 44
5, 976080, Note_on_c, 0, 53, 44
5, 976200, Note_on_c, 0, 53, 0
5, 976200, Note_on_c, 0, 46, 0
5, 976200, Control_c, 0, 64, 0
5, 976200, Note_on_c, 0, 58, 44
5, 976320, Note_on_c, 0, 58, 0
5, 976320, Control_c, 0, 64, 127
5, 976320, Note_on_c, 0, 46, 44
5, 976320, Note_on_c, 0, 50, 44
5, 976440, Note_on_c, 0, 50, 0
5, 976440, Note_on_c, 0, 46, 0
5, 976440, Note_on_c, 0, 53, 44
5, 976560, Note_on_c, 0, 53, 0
5, 976560, Note_on_c, 0, 46, 44
5, 976560, Note_on_c, 0, 50, 44
5, 976680, Note_on_c, 0, 50, 0
5, 976680, Note_on_c, 0, 46, 0
5, 976680, Note_on_c, 0, 53, 44
5, 976800, Note_on_c, 0, 53, 0
5, 976800, Note_on_c, 0, 46, 44
5, 976800, Note_on_c, 0, 50, 44
5, 976920, Note_on_c, 0, 50, 0
5, 976920, Note_on_c, 0, 46, 0
5, 976920, Note_on_c, 0, 53, 44
5, 977040, Note_on_c, 0, 53, 0
5, 977040, Note_on_c, 0, 46, 44
5, 977040, Note_on_c, 0, 50, 44
5, 977160, Note_on_c, 0, 50, 0
5, 977160, Note_on_c, 0, 46, 0
5, 977160, Note_on_c, 0, 53, 44
5, 977280, Note_on_c, 0, 53, 0
5, 977280, Note_on_c, 0, 46, 44
5, 977280, Note_on_c, 0, 50, 44
5, 977400, Note_on_c, 0, 50, 0
5, 977400, Note_on_c, 0, 46, 0
5, 977400, Note_on_c, 0, 53, 44
5, 977520, Note_on_c, 0, 53, 0
5, 977520, Note_on_c, 0, 46, 44
5, 977520, Note_on_c, 0, 50, 44
5, 977640, Note_on_c, 0, 50, 0
5, 977640, Note_on_c, 0, 46, 0
5, 977640, Note_on_c, 0, 53, 44
5, 977760, Note_on_c, 0, 53, 0
5, 977760, Note_on_c, 0, 46, 44
5, 977760, Note_on_c, 0, 50, 44
5, 977880, Note_on_c, 0, 50, 0
5, 977880, Note_on_c, 0, 46, 0
5, 977880, Note_on_c, 0, 53, 44
5, 978000, Note_on_c, 0, 53, 0
5, 978000, Note_on_c, 0, 46, 44
5, 978000, Note_on_c, 0, 50, 44
5, 978120, Note_on_c, 0, 50, 0
5, 978120, Note_on_c, 0, 46, 0
5, 978120, Control_c, 0, 64, 0
5, 978120, Note_on_c, 0, 53, 44
5, 978240, Note_on_c, 0, 53, 0
5, 978240, Note_on_c, 0, 34, 44
5, 978240, Note_on_c, 0, 46, 44
5, 980160, Note_on_c, 0, 46, 0
5, 980160, Note_on_c, 0, 34, 0
5, 980160, Note_on_c, 0, 34, 44
5, 980160, Note_on_c, 0, 46, 44
5, 982080, Note_on_c, 0, 46, 0
5, 982080, Note_on_c, 0, 34, 0
5, 982080, Note_on_c, 0, 34, 44
5, 982080, Note_on_c, 0, 46, 44
5, 983520, Note_on_c, 0, 46, 0
5, 983520, Note_on_c, 0, 34, 0
5, 984000, Note_on_c, 0, 46, 44
5, 984000, Note_on_c, 0, 53, 44
5, 985920, Note_on_c, 0, 53, 0
5, 985920, Note_on_c, 0, 46, 0
5, 985920, Note_on_c, 0, 34, 44
5, 985920, Note_on_c, 0, 46, 44
5, 987840, Note_on_c, 0, 46, 0
5, 987840, Note_on_c, 0, 34, 0
5, 987840, Note_on_c, 0, 34, 44
5, 987840, Note_on_c, 0, 46, 44
5, 989760, Note_on_c, 0, 46, 0
5, 989760, Note_on_c, 0, 34, 0
5, 989760, Note_on_c, 0, 34, 44
5, 989760, Note_on_c, 0, 46, 44
5, 990240, Note_on_c, 0, 46, 0
5, 990240, Note_on_c, 0, 34, 0
5, 990720, Note_on_c, 0, 34, 44
5, 990720, Note_on_c, 0, 46, 44
5, 991200, Note_on_c, 0, 46, 0
5, 991200, Note_on_c, 0, 34, 0
5, 991680, Note_on_c, 0, 46, 44
5, 991680, Note_on_c, 0, 58, 44
5, 992400, Note_on_c, 0, 58, 0
5, 992400, Note_on_c, 0, 46, 0
5, 992640, Note_on_c, 0, 34, 44
5, 992640, Note_on_c, 0, 46, 44
5, 993360, Note_on_c, 0, 46, 0
5, 993360, Note_on_c, 0, 34, 0
5, 993600, Control_c, 0, 64, 127
5, 993600, Note_on_c, 0, 46, 44
5, 993600, Note_on_c, 0, 53, 44
5, 995520, Note_on_c, 0, 46, 0
5, 996000, Note_on_c, 0, 53, 0
5, 996000, Note_on_c, 0, 60, 57
5, 996480, Note_on_c, 0, 60, 0
5, 996480, Note_on_c, 0, 57, 57
5, 996960, Note_on_c, 0, 57, 0
5, 996960, Note_on_c, 0, 55, 57
5, 997200, Note_on_c, 0, 55, 0
5, 997200, Control_c, 0, 64, 0
5, 997200, Note_on_c, 0, 57, 57
5, 997440, Note_on_c, 0, 57, 0
5, 997440, Note_on_c, 0, 46, 57
5, 997440, Note_on_c, 0, 53, 57
5, 998400, Note_on_c, 0, 53, 0
5, 998400, Note_on_c, 0, 46, 0
5, 998400, Control_c, 0, 64, 127
5, 998400, Note_on_c, 0, 50, 57
5, 998640, Note_on_c, 0, 50, 0
5, 998640, Note_on_c, 0, 53, 57
5, 998880, Note_on_c, 0, 53, 0
5, 998880, Note_on_c, 0, 58, 57
5, 999120, Note_on_c, 0, 58, 0
5, 999120, Control_c, 0, 64, 0
5, 999120, Note_on_c, 0, 62, 57
5, 999360, Note_on_c, 0, 62, 0
5, 999360, Note_on_c, 0, 46, 83
5, 999360, Note_on_c, 0, 65, 83
5, 1000080, Note_on_c, 0, 65, 0
5, 1000080, Note_on_c, 0, 46, 0
5, 1000080, Note_on_c, 0, 62, 57
5, 1000320, Note_on_c, 0, 62, 0
5, 1000320, Note_on_c, 0, 34, 57
5, 1000320, Note_on_c, 0, 46, 57
5, 1001280, Note_on_c, 0, 34, 0
5, 1001280, Control_c, 0, 64, 127
5, 1001280, Note_on_c, 0, 53, 44
5, 1003200, Note_on_c, 0, 46, 0
5, 1003680, Note_on_c, 0, 53, 0
5, 1003680, Note_on_c, 0, 60, 57
5, 1004160, Note_on_c, 0, 60, 0
5, 1004160, Note_on_c, 0, 57, 57
5, 1004640, Note_on_c, 0, 57, 0
5, 1004640, Note_on_c, 0, 55, 57
5, 1004880, Note_on_c, 0, 55, 0
5, 1004880, Control_c, 0, 64, 0
5, 1004880, Note_on_c, 0, 57, 57
5, 1005120, Note_on_c, 0, 57, 0
5, 1005120, Note_on_c, 0, 46, 57
5, 1005120, Note_on_c, 0, 53, 57
5, 1006080, Note_on_c, 0, 53, 0
5, 1006080, Note_on_c, 0, 46, 0
5, 1006080, Control_c, 0, 64, 127
5, 1006080, Note_on_c, 0, 46, 57
5, 1006080, Note_on_c, 0, 52, 57
5, 1006320, Note_on_c, 0, 52, 0
5, 1006320, Note_on_c, 0, 46, 0
5, 1006320, Note_on_c, 0, 58, 57
5, 1006560, Note_on_c, 0, 58, 0
5, 1006560, Note_on_c, 0, 61, 57
5, 1006800, Note_on_c, 0, 61, 0
5, 1006800, Control_c, 0, 64, 0
5, 1006800, Note_on_c, 0, 64, 57
5, 1007040, Note_on_c, 0, 64, 0
5, 1007040, Control_c, 0, 64, 127
5, 1007040, Note_on_c, 0, 46, 83
5, 1007040, Note_on_c, 0, 65, 83
5, 1007520, Note_on_c, 0, 65, 0
5, 1007520, Note_on_c, 0, 46, 0
5, 1007520, Note_on_c, 0, 67, 57
5, 1007760, Note_on_c, 0, 67, 0
5, 1007760, Note_on_c, 0, 65, 57
5, 1008000, Note_on_c, 0, 65, 0
5, 1008000, Note_on_c, 0, 62, 57
5, 1008240, Note_on_c, 0, 62, 0
5, 1008240, Note_on_c, 0, 58, 57
5, 1008480, Note_on_c, 0, 58, 0
5, 1008480, Note_on_c, 0, 53, 57
5, 1008720, Note_on_c, 0, 53, 0
5, 1008720, Note_on_c, 0, 50, 57
5, 1008960, Note_on_c, 0, 50, 0
5, 1008960, Control_c, 0, 64, 0
5, 1008960, Note_on_c, 0, 34, 57
5, 1008960, Note_on_c, 0, 46, 57
5, 1009920, Note_on_c, 0, 46, 0
5, 1009920, Note_on_c, 0, 34, 0
5, 1009920, Control_c, 0, 64, 127
5, 1009920, Note_on_c, 0, 46, 57
5, 1009920, Note_on_c, 0, 52, 57
5, 1010160, Note_on_c, 0, 52, 0
5, 1010160, Note_on_c, 0, 46, 0
5, 1010160, Note_on_c, 0, 58, 57
5, 1010400, Note_on_c, 0, 58, 0
5, 1010400, Note_on_c, 0, 61, 57
5, 1010640, Note_on_c, 0, 61, 0
5, 1010640, Control_c, 0, 64, 0
5, 1010640, Note_on_c, 0, 64, 57
5, 1010880, Note_on_c, 0, 64, 0
5, 1010880, Control_c, 0, 64, 127
5, 1010880, Note_on_c, 0, 46, 83
5, 1010880, Note_on_c, 0, 65, 83
5, 1011360, Note_on_c, 0, 65, 0
5, 1011360, Note_on_c, 0, 46, 0
5, 1011360, Note_on_c, 0, 67, 57
5, 1011600, Note_on_c, 0, 67, 0
5, 1011600, Note_on_c, 0, 65, 57
5, 1011840, Note_on_c, 0, 65, 0
5, 1011840, Note_on_c, 0, 62, 57
5, 1012080, Note_on_c, 0, 62, 0
5, 1012080, Note_on_c, 0, 58, 57
5, 1012320, Note_on_c, 0, 58, 0
5, 1012320, Note_on_c, 0, 53, 57
5, 1012560, Note_on_c, 0, 53, 0
5, 1012560, Note_on_c, 0, 50, 57
5, 1012800, Note_on_c, 0, 50, 0
5, 1012800, Control_c, 0, 64, 0
5, 1012800, Note_on_c, 0, 46, 57
5, 1013520, Note_on_c, 0, 46, 0
5, 1013520, Note_on_c, 0, 58, 57
5, 1013760, Note_on_c, 0, 58, 0
5, 1013760, Control_c, 0, 64, 127
5, 1013760, Note_on_c, 0, 52, 57
5, 1014000, Note_on_c, 0, 52, 0
5, 1014000, Note_on_c, 0, 58, 57
5, 1014240, Note_on_c, 0, 58, 0
5, 1014240, Note_on_c, 0, 61, 57
5, 1014480, Note_on_c, 0, 61, 0
5, 1014480, Control_c, 0, 64, 0
5, 1014480, Note_on_c, 0, 64, 57
5, 1014720, Note_on_c, 0, 64, 0
5, 1014720, Control_c, 0, 64, 127
5, 1014720, Note_on_c, 0, 46, 83
5, 1014720, Note_on_c, 0, 65, 83
5, 1015440, Note_on_c, 0, 65, 0
5, 1015440, Note_on_c, 0, 46, 0
5, 1015440, Control_c, 0, 64, 0
5, 1015440, Note_on_c, 0, 53, 57
5, 1015680, Note_on_c, 0, 53, 0
5, 1015680, Control_c, 0, 64, 127
5, 1015680, Note_on_c, 0, 52, 57
5, 1015920, Note_on_c, 0, 52, 0
5, 1015920, Note_on_c, 0, 58, 57
5, 1016160, Note_on_c, 0, 58, 0
5, 1016160, Note_on_c, 0, 61, 57
5, 1016400, Note_on_c, 0, 61, 0
5, 1016400, Control_c, 0, 64, 0
5, 1016400, Note_on_c, 0, 64, 57
5, 1016640, Note_on_c, 0, 64, 0
5, 1016640, Note_on_c, 0, 46, 70
5, 1016640, Note_on_c, 0, 65, 70
5, 1017600, Note_on_c, 0, 65, 0
5, 1017600, Note_on_c, 0, 46, 0
5, 1017600, Control_c, 0, 64, 127
5, 1017600, Note_on_c, 0, 46, 70
5, 1017840, Note_on_c, 0, 46, 0
5, 1017840, Note_on_c, 0, 53, 70
5, 1018080, Note_on_c, 0, 53, 0
5, 1018080, Note_on_c, 0, 58, 70
5, 1018320, Note_on_c, 0, 58, 0
5, 1018320, Note_on_c, 0, 62, 70
5, 1018560, Note_on_c, 0, 62, 0
5, 1018560, Control_c, 0, 64, 0
5, 1018560, Note_on_c, 0, 45, 96
5, 1018560, Note_on_c, 0, 63, 96
5, 1019280, Note_on_c, 0, 63, 0
5, 1019280, Note_on_c, 0, 45, 0
5, 1019280, Note_on_c, 0, 62, 70
5, 1019520, Note_on_c, 0, 62, 0
5, 1019520, Control_c, 0, 64, 127
5, 1019520, Note_on_c, 0, 48, 70
5, 1019760, Note_on_c, 0, 48, 0
5, 1019760, Note_on_c, 0, 54, 70
5, 1020000, Note_on_c, 0, 54, 0
5, 1020000, Note_on_c, 0, 57, 70
5, 1020240, Note_on_c, 0, 57, 0
5, 1020240, Note_on_c, 0, 62, 70
5, 1020480, Note_on_c, 0, 62, 0
5, 1020480, Control_c, 0, 64, 0
5, 1020480, Note_on_c, 0, 45, 109
5, 1020480, Note_on_c, 0, 63, 109
5, 1021200, Note_on_c, 0, 63, 0
5, 1021200, Note_on_c, 0, 45, 0
5, 1021200, Note_on_c, 0, 62, 83
5, 1021440, Note_on_c, 0, 62, 0
5, 1021440, Control_c, 0, 64, 127
5, 1021440, Note_on_c, 0, 48, 83
5, 1021680, Note_on_c, 0, 48, 0
5, 1021680, Note_on_c, 0, 54, 83
5, 1021920, Note_on_c, 0, 54, 0
5, 1021920, Note_on_c, 0, 57, 83
5, 1022160, Note_on_c, 0, 57, 0
5, 1022160, Control_c, 0, 64, 0
5, 1022160, Note_on_c, 0, 62, 83
5, 1022400, Note_on_c, 0, 62, 0
5, 1022400, Note_on_c, 0, 45, 109
5, 1022400, Note_on_c, 0, 63, 109
5, 1023120, Note_on_c, 0, 63, 0
5, 1023120, Note_on_c, 0, 45, 0
5, 1023120, Note_on_c, 0, 62, 83
5, 1023360, Note_on_c, 0, 62, 0
5, 1024320, Note_on_c, 0, 45, 109
5, 1024320, Note_on_c, 0, 63, 109
5, 1025040, Note_on_c, 0, 63, 0
5, 1025040, Note_on_c, 0, 45, 0
5, 1025040, Note_on_c, 0, 62, 83
5, 1025280, Note_on_c, 0, 62, 0
5, 1051200, Note_on_c, 0, 31, 57
5, 1051200, Note_on_c, 0, 43, 57
5, 1052160, Note_on_c, 0, 31, 0
5, 1053120, Note_on_c, 0, 54, 57
5, 1053600, Note_on_c, 0, 54, 0
5, 1053600, Note_on_c, 0, 43, 0
5, 1053600, Note_on_c, 0, 50, 57
5, 1053600, Note_on_c, 0, 62, 57
5, 1054080, Note_on_c, 0, 62, 0
5, 1054080, Note_on_c, 0, 50, 0
5, 1055040, Note_on_c, 0, 31, 57
5, 1055040, Note_on_c, 0, 43, 57
5, 1056000, Note_on_c, 0, 31, 0
5, 1056960, Note_on_c, 0, 54, 57
5, 1057440, Note_on_c, 0, 54, 0
5, 1057440, Note_on_c, 0, 43, 0
5, 1057440, Note_on_c, 0, 50, 57
5, 1057440, Note_on_c, 0, 62, 57
5, 1057920, Note_on_c, 0, 62, 0
5, 1057920, Note_on_c, 0, 50, 0
5, 1058880, Note_on_c, 0, 31, 57
5, 1058880, Note_on_c, 0, 43, 57
5, 1060320, Note_on_c, 0, 43, 0
5, 1060320, Note_on_c, 0, 31, 0
5, 1060320, Note_on_c, 0, 29, 57
5, 1060320, Note_on_c, 0, 41, 57
5, 1060800, Note_on_c, 0, 41, 0
5, 1060800, Note_on_c, 0, 29, 0
5, 1060800, Note_on_c, 0, 28, 57
5, 1060800, Note_on_c, 0, 40, 57
5, 1061280, Note_on_c, 0, 40, 0
5, 1061280, Note_on_c, 0, 28, 0
5, 1061280, Note_on_c, 0, 48, 57
5, 1061280, Note_on_c, 0, 60, 57
5, 1061760, Note_on_c, 0, 60, 0
5, 1061760, Note_on_c, 0, 48, 0
5, 1062720, Note_on_c, 0, 29, 57
5, 1062720, Note_on_c, 0, 41, 57
5, 1063680, Note_on_c, 0, 29, 0
5, 1064640, Note_on_c, 0, 52, 57
5, 1065120, Note_on_c, 0, 52, 0
5, 1065120, Note_on_c, 0, 41, 0
5, 1065120, Note_on_c, 0, 48, 57
5, 1065120, Note_on_c, 0, 60, 57
5, 1065600, Note_on_c, 0, 60, 0
5, 1065600, Note_on_c, 0, 48, 0
5, 1066560, Note_on_c, 0, 41, 57
5, 1066560, Note_on_c, 0, 53, 57
5, 1066560, Note_on_c, 0, 57, 57
5, 1068480, Note_on_c, 0, 57, 0
5, 1068480, Note_on_c, 0, 53, 0
5, 1068480, Note_on_c, 0, 41, 0
5, 1068480, Note_on_c, 0, 39, 57
5, 1068480, Note_on_c, 0, 51, 57
5, 1068480, Note_on_c, 0, 53, 57
5, 1068480, Note_on_c, 0, 57, 57
5, 1070400, Note_on_c, 0, 57, 0
5, 1070400, Note_on_c, 0, 39, 0
5, 1070400, Note_on_c, 0, 51, 0
5, 1070400, Note_on_c, 0, 53, 0
5, 1070400, Note_on_c, 0, 38, 57
5, 1070400, Note_on_c, 0, 50, 57
5, 1070400, Note_on_c, 0, 54, 57
5, 1070400, Note_on_c, 0, 57, 57
5, 1072320, Note_on_c, 0, 57, 0
5, 1072320, Note_on_c, 0, 38, 0
5, 1072320, Note_on_c, 0, 50, 0
5, 1072320, Note_on_c, 0, 54, 0
5, 1072320, Note_on_c, 0, 35, 57
5, 1072320, Note_on_c, 0, 47, 57
5, 1072320, Note_on_c, 0, 56, 57
5, 1072320, Note_on_c, 0, 62, 57
5, 1074240, Note_on_c, 0, 62, 0
5, 1074240, Note_on_c, 0, 35, 0
5, 1074240, Note_on_c, 0, 47, 0
5, 1074240, Note_on_c, 0, 56, 0
5, 1074240, Note_on_c, 0, 33, 57
5, 1074240, Note_on_c, 0, 45, 57
5, 1075200, Note_on_c, 0, 33, 0
5, 1076160, Note_on_c, 0, 56, 57
5, 1076640, Note_on_c, 0, 56, 0
5, 1076640, Note_on_c, 0, 45, 0
5, 1076640, Note_on_c, 0, 52, 57
5, 1076640, Note_on_c, 0, 64, 57
5, 1077120, Note_on_c, 0, 64, 0
5, 1077120, Note_on_c, 0, 52, 0
5, 1078080, Note_on_c, 0, 33, 57
5, 1078080, Note_on_c, 0, 45, 57
5, 1079520, Note_on_c, 0, 45, 0
5, 1079520, Note_on_c, 0, 33, 0
5, 1079520, Note_on_c, 0, 31, 57
5, 1079520, Note_on_c, 0, 43, 57
5, 1080000, Note_on_c, 0, 43, 0
5, 1080000, Note_on_c, 0, 31, 0
5, 1080000, Note_on_c, 0, 30, 57
5, 1080000, Note_on_c, 0, 42, 57
5, 1080480, Note_on_c, 0, 42, 0
5, 1080480, Note_on_c, 0, 30, 0
5, 1080480, Note_on_c, 0, 50, 57
5, 1080480, Note_on_c, 0, 62, 57
5, 1080960, Note_on_c, 0, 62, 0
5, 1080960, Note_on_c, 0, 50, 0
5, 1081920, Note_on_c, 0, 31, 57
5, 1081920, Note_on_c, 0, 43, 57
5, 1082880, Note_on_c, 0, 31, 0
5, 1083840, Note_on_c, 0, 54, 57
5, 1084320, Note_on_c, 0, 54, 0
5, 1084320, Note_on_c, 0, 43, 0
5, 1084320, Note_on_c, 0, 50, 57
5, 1084320, Note_on_c, 0, 62, 57
5, 1084800, Note_on_c, 0, 62, 0
5, 1084800, Note_on_c, 0, 50, 0
5, 1085760, Note_on_c, 0, 43, 57
5, 1085760, Note_on_c, 0, 55, 57
5, 1085760, Note_on_c, 0, 59, 57
5, 1087680, Note_on_c, 0, 59, 0
5, 1087680, Note_on_c, 0, 55, 0
5, 1087680, Note_on_c, 0, 43, 0
5, 1087680, Note_on_c, 0, 43, 57
5, 1087680, Note_on_c, 0, 55, 57
5, 1087680, Note_on_c, 0, 59, 57
5, 1089600, Note_on_c, 0, 59, 0
5, 1089600, Note_on_c, 0, 55, 0
5, 1089600, Note_on_c, 0, 43, 0
5, 1089600, Note_on_c, 0, 40, 57
5, 1089600, Note_on_c, 0, 56, 57
5, 1089600, Note_on_c, 0, 59, 57
5, 1091520, Note_on_c, 0, 59, 0
5, 1091520, Note_on_c, 0, 56, 0
5, 1091520, Note_on_c, 0, 40, 0
5, 1091520, Note_on_c, 0, 38, 57
5, 1091520, Note_on_c, 0, 50, 57
5, 1091520, Note_on_c, 0, 56, 57
5, 1091520, Note_on_c, 0, 59, 57
5, 1093440, Note_on_c, 0, 59, 0
5, 1093440, Note_on_c, 0, 38, 0
5, 1093440, Note_on_c, 0, 50, 0
5, 1093440, Note_on_c, 0, 56, 0
5, 1093440, Note_on_c, 0, 36, 57
5, 1093440, Note_on_c, 0, 48, 57
5, 1093440, Note_on_c, 0, 57, 57
5, 1093440, Note_on_c, 0, 60, 57
5, 1095360, Note_on_c, 0, 60, 0
5, 1095360, Note_on_c, 0, 36, 0
5, 1095360, Note_on_c, 0, 48, 0
5, 1095360, Note_on_c, 0, 57, 0
5, 1095360, Note_on_c, 0, 37, 57
5, 1095360, Note_on_c, 0, 49, 57
5, 1095360, Note_on_c, 0, 58, 57
5, 1095360, Note_on_c, 0, 64, 57
5, 1097280, Note_on_c, 0, 64, 0
5, 1097280, Note_on_c, 0, 37, 0
5, 1097280, Note_on_c, 0, 49, 0
5, 1097280, Note_on_c, 0, 58, 0
5, 1097280, Note_on_c, 0, 38, 57
5, 1097280, Note_on_c, 0, 50, 57
5, 1097280, Note_on_c, 0, 59, 57
5, 1097280, Note_on_c, 0, 62, 57
5, 1099200, Note_on_c, 0, 62, 0
5, 1099200, Note_on_c, 0, 38, 0
5, 1099200, Note_on_c, 0, 50, 0
5, 1099200, Note_on_c, 0, 59, 0
5, 1099200, Note_on_c, 0, 39, 57
5, 1099200, Note_on_c, 0, 51, 57
5, 1099200, Note_on_c, 0, 60, 57
5, 1099200, Note_on_c, 0, 66, 57
5, 1101120, Note_on_c, 0, 66, 0
5, 1101120, Note_on_c, 0, 39, 0
5, 1101120, Note_on_c, 0, 51, 0
5, 1101120, Note_on_c, 0, 60, 0
5, 1101120, Note_on_c, 0, 40, 57
5, 1101120, Note_on_c, 0, 52, 57
5, 1101120, Note_on_c, 0, 61, 57
5, 1101120, Note_on_c, 0, 64, 57
5, 1102560, Note_on_c, 0, 64, 0
5, 1102560, Note_on_c, 0, 40, 0
5, 1102560, Note_on_c, 0, 52, 0
5, 1102560, Note_on_c, 0, 61, 0
5, 1102560, Note_on_c, 0, 32, 83
5, 1102560, Note_on_c, 0, 44, 83
5, 1103040, Note_on_c, 0, 44, 0
5, 1103040, Note_on_c, 0, 32, 0
5, 1103040, Note_on_c, 0, 33, 83
5, 1103040, Note_on_c, 0, 45, 83
5, 1103280, Note_on_c, 0, 45, 0
5, 1103280, Note_on_c, 0, 33, 0
5, 1103280, Note_on_c, 0, 34, 83
5, 1103280, Note_on_c, 0, 46, 83
5, 1103520, Note_on_c, 0, 46, 0
5, 1103520, Note_on_c, 0, 34, 0
5, 1103520, Note_on_c, 0, 33, 83
5, 1103520, Note_on_c, 0, 45, 83
5, 1104480, Note_on_c, 0, 45, 0
5, 1104480, Note_on_c, 0, 33, 0
5, 1104480, Note_on_c, 0, 32, 83
5, 1104480, Note_on_c, 0, 44, 83
5, 1104960, Note_on_c, 0, 44, 0
5, 1104960, Note_on_c, 0, 32, 0
5, 1104960, Note_on_c, 0, 31, 83
5, 1104960, Note_on_c, 0, 43, 83
5, 1105920, Note_on_c, 0, 43, 0
5, 1105920, Note_on_c, 0, 31, 0
5, 1106400, Note_on_c, 0, 34, 83
5, 1106400, Note_on_c, 0, 46, 83
5, 1106880, Note_on_c, 0, 46, 0
5, 1106880, Note_on_c, 0, 34, 0
5, 1106880, Note_on_c, 0, 35, 83
5, 1106880, Note_on_c, 0, 47, 83
5, 1107120, Note_on_c, 0, 47, 0
5, 1107120, Note_on_c, 0, 35, 0
5, 1107120, Note_on_c, 0, 36, 83
5, 1107120, Note_on_c, 0, 48, 83
5, 1107360, Note_on_c, 0, 48, 0
5, 1107360, Note_on_c, 0, 36, 0
5, 1107360, Note_on_c, 0, 35, 83
5, 1107360, Note_on_c, 0, 47, 83
5, 1108320, Note_on_c, 0, 47, 0
5, 1108320, Note_on_c, 0, 35, 0
5, 1108320, Note_on_c, 0, 34, 83
5, 1108320, Note_on_c, 0, 46, 83
5, 1108800, Note_on_c, 0, 46, 0
5, 1108800, Note_on_c, 0, 34, 0
5, 1108800, Note_on_c, 0, 33, 83
5, 1108800, Note_on_c, 0, 45, 83
5, 1110240, Note_on_c, 0, 45, 0
5, 1110240, Note_on_c, 0, 33, 0
5, 1110240, Note_on_c, 0, 36, 70
5, 1110240, Note_on_c, 0, 48, 70
5, 1110720, Note_on_c, 0, 48, 0
5, 1110720, Note_on_c, 0, 36, 0
5, 1110720, Note_on_c, 0, 38, 70
5, 1110720, Note_on_c, 0, 50, 70
5, 1110960, Note_on_c, 0, 50, 0
5, 1110960, Note_on_c, 0, 38, 0
5, 1110960, Note_on_c, 0, 37, 70
5, 1110960, Note_on_c, 0, 49, 70
5, 1111200, Note_on_c, 0, 49, 0
5, 1111200, Note_on_c, 0, 37, 0
5, 1111200, Note_on_c, 0, 38, 70
5, 1111200, Note_on_c, 0, 50, 70
5, 1112160, Note_on_c, 0, 50, 0
5, 1112160, Note_on_c, 0, 38, 0
5, 1112160, Note_on_c, 0, 35, 70
5, 1112160, Note_on_c, 0, 47, 70
5, 1112640, Note_on_c, 0, 47, 0
5, 1112640, Note_on_c, 0, 35, 0
5, 1112640, Note_on_c, 0, 40, 70
5, 1112640, Note_on_c, 0, 52, 70
5, 1112880, Note_on_c, 0, 52, 0
5, 1112880, Note_on_c, 0, 40, 0
5, 1112880, Note_on_c, 0, 39, 70
5, 1112880, Note_on_c, 0, 51, 70
5, 1113120, Note_on_c, 0, 51, 0
5, 1113120, Note_on_c, 0, 39, 0
5, 1113120, Note_on_c, 0, 40, 70
5, 1113120, Note_on_c, 0, 52, 70
5, 1114080, Note_on_c, 0, 52, 0
5, 1114080, Note_on_c, 0, 40, 0
5, 1114080, Note_on_c, 0, 37, 70
5, 1114080, Note_on_c, 0, 49, 70
5, 1114560, Note_on_c, 0, 49, 0
5, 1114560, Note_on_c, 0, 37, 0
5, 1114560, Note_on_c, 0, 42, 70
5, 1114560, Note_on_c, 0, 54, 70
5, 1114800, Note_on_c, 0, 54, 0
5, 1114800, Note_on_c, 0, 42, 0
5, 1114800, Note_on_c, 0, 41, 70
5, 1114800, Note_on_c, 0, 53, 70
5, 1115040, Note_on_c, 0, 53, 0
5, 1115040, Note_on_c, 0, 41, 0
5, 1115040, Note_on_c, 0, 42, 70
5, 1115040, Note_on_c, 0, 54, 70
5, 1115520, Note_on_c, 0, 54, 0
5, 1115520, Note_on_c, 0, 42, 0
5, 1115520, Note_on_c, 0, 43, 70
5, 1115520, Note_on_c, 0, 55, 70
5, 1115760, Note_on_c, 0, 55, 0
5, 1115760, Note_on_c, 0, 43, 0
5, 1115760, Note_on_c, 0, 42, 70
5, 1115760, Note_on_c, 0, 54, 70
5, 1116000, Note_on_c, 0, 54, 0
5, 1116000, Note_on_c, 0, 42, 0
5, 1116000, Note_on_c, 0, 43, 70
5, 1116000, Note_on_c, 0, 55, 70
5, 1116480, Note_on_c, 0, 55, 0
5, 1116480, Note_on_c, 0, 43, 0
5, 1116480, Note_on_c, 0, 44, 70
5, 1116480, Note_on_c, 0, 56, 70
5, 1116720, Note_on_c, 0, 56, 0
5, 1116720, Note_on_c, 0, 44, 0
5, 1116720, Note_on_c, 0, 43, 70
5, 1116720, Note_on_c, 0, 55, 70
5, 1116960, Note_on_c, 0, 55, 0
5, 1116960, Note_on_c, 0, 43, 0
5, 1116960, Note_on_c, 0, 44, 70
5, 1116960, Note_on_c, 0, 56, 70
5, 1117440, Note_on_c, 0, 56, 0
5, 1117440, Note_on_c, 0, 44, 0
5, 1117440, Note_on_c, 0, 45, 70
5, 1117440, Note_on_c, 0, 57, 70
5, 1117680, Note_on_c, 0, 57, 0
5, 1117680, Note_on_c, 0, 45, 0
5, 1117680, Note_on_c, 0, 44, 70
5, 1117680, Note_on_c, 0, 56, 70
5, 1117920, Note_on_c, 0, 56, 0
5, 1117920, Note_on_c, 0, 44, 0
5, 1117920, Note_on_c, 0, 45, 70
5, 1117920, Note_on_c, 0, 57, 70
5, 1118400, Note_on_c, 0, 57, 0
5, 1118400, Note_on_c, 0, 45, 0
5, 1118400, Note_on_c, 0, 46, 70
5, 1118400, Note_on_c, 0, 58, 70
5, 1118640, Note_on_c, 0, 58, 0
5, 1118640, Note_on_c, 0, 46, 0
5, 1118640, Note_on_c, 0, 45, 70
5, 1118640, Note_on_c, 0, 57, 70
5, 1118880, Note_on_c, 0, 57, 0
5, 1118880, Note_on_c, 0, 45, 0
5, 1118880, Note_on_c, 0, 46, 70
5, 1118880, Note_on_c, 0, 58, 70
5, 1119840, Note_on_c, 0, 58, 0
5, 1119840, Note_on_c, 0, 46, 0
5, 1119840, Note_on_c, 0, 46, 70
5, 1119840, Note_on_c, 0, 58, 70
5, 1120320, Note_on_c, 0, 58, 0
5, 1120320, Note_on_c, 0, 46, 0
5, 1120320, Note_on_c, 0, 40, 83
5, 1120320, Note_on_c, 0, 52, 83
5, 1120560, Note_on_c, 0, 52, 0
5, 1120560, Note_on_c, 0, 40, 0
5, 1120560, Note_on_c, 0, 39, 83
5, 1120560, Note_on_c, 0, 51, 83
5, 1120800, Note_on_c, 0, 51, 0
5, 1120800, Note_on_c, 0, 39, 0
5, 1120800, Note_on_c, 0, 40, 83
5, 1120800, Note_on_c, 0, 52, 83
5, 1121760, Note_on_c, 0, 52, 0
5, 1121760, Note_on_c, 0, 40, 0
5, 1121760, Note_on_c, 0, 39, 83
5, 1121760, Note_on_c, 0, 51, 83
5, 1122240, Note_on_c, 0, 51, 0
5, 1122240, Note_on_c, 0, 39, 0
5, 1122240, Note_on_c, 0, 38, 83
5, 1122240, Note_on_c, 0, 43, 83
5, 1122240, Note_on_c, 0, 46, 83
5, 1122240, Note_on_c, 0, 50, 83
5, 1122720, Note_on_c, 0, 50, 0
5, 1122720, Note_on_c, 0, 38, 0
5, 1122720, Note_on_c, 0, 43, 0
5, 1122720, Note_on_c, 0, 46, 0
5, 1124160, Note_on_c, 0, 38, 83
5, 1124160, Note_on_c, 0, 43, 83
5, 1124160, Note_on_c, 0, 46, 83
5, 1124160, Note_on_c, 0, 50, 83
5, 1124640, Note_on_c, 0, 50, 0
5, 1124640, Note_on_c, 0, 38, 0
5, 1124640, Note_on_c, 0, 43, 0
5, 1124640, Note_on_c, 0, 46, 0
5, 1126080, Note_on_c, 0, 38, 83
5, 1126080, Note_on_c, 0, 43, 83
5, 1126080, Note_on_c, 0, 46, 83
5, 1126080, Note_on_c, 0, 50, 83
5, 1126560, Note_on_c, 0, 50, 0
5, 1126560, Note_on_c, 0, 38, 0
5, 1126560, Note_on_c, 0, 43, 0
5, 1126560, Note_on_c, 0, 46, 0
5, 1128000, Note_on_c, 0, 38, 83
5, 1128000, Note_on_c, 0, 43, 83
5, 1128000, Note_on_c, 0, 46, 83
5, 1128000, Note_on_c, 0, 50, 83
5, 1128480, Note_on_c, 0, 50, 0
5, 1128480, Note_on_c, 0, 38, 0
5, 1128480, Note_on_c, 0, 43, 0
5, 1128480, Note_on_c, 0, 46, 0
5, 1129920, Note_on_c, 0, 38, 83
5, 1129920, Note_on_c, 0, 43, 83
5, 1129920, Note_on_c, 0, 46, 83
5, 1129920, Note_on_c, 0, 50, 83
5, 1130400, Note_on_c, 0, 50, 0
5, 1130400, Note_on_c, 0, 38, 0
5, 1130400, Note_on_c, 0, 43, 0
5, 1130400, Note_on_c, 0, 46, 0
5, 1141440, Note_on_c, 0, 38, 83
5, 1141440, Note_on_c, 0, 50, 83
5, 1143840, Note_on_c, 0, 50, 0
5, 1143840, Note_on_c, 0, 38, 0
5, 1153920, Control_c, 0, 64, 127
5, 1153920, Note_on_c, 0, 43, 96
5, 1153920, Note_on_c, 0, 47, 96
5, 1153920, Note_on_c, 0, 50, 96
5, 1154040, Note_on_c, 0, 50, 0
5, 1154040, Note_on_c, 0, 47, 0
5, 1154040, Note_on_c, 0, 43, 0
5, 1154040, Note_on_c, 0, 55, 96
5, 1154160, Note_on_c, 0, 55, 0
5, 1154160, Note_on_c, 0, 43, 70
5, 1154160, Note_on_c, 0, 47, 70
5, 1154160, Note_on_c, 0, 50, 70
5, 1154280, Note_on_c, 0, 50, 0
5, 1154280, Note_on_c, 0, 47, 0
5, 1154280, Note_on_c, 0, 43, 0
5, 1154280, Note_on_c, 0, 55, 70
5, 1154400, Note_on_c, 0, 55, 0
5, 1154400, Note_on_c, 0, 43, 70
5, 1154400, Note_on_c, 0, 47, 70
5, 1154400, Note_on_c, 0, 50, 70
5, 1154520, Note_on_c, 0, 50, 0
5, 1154520, Note_on_c, 0, 47, 0
5, 1154520, Note_on_c, 0, 43, 0
5, 1154520, Note_on_c, 0, 55, 70
5, 1154640, Note_on_c, 0, 55, 0
5, 1154640, Note_on_c, 0, 43, 70
5, 1154640, Note_on_c, 0, 47, 70
5, 1154640, Note_on_c, 0, 50, 70
5, 1154760, Note_on_c, 0, 50, 0
5, 1154760, Note_on_c, 0, 47, 0
5, 1154760, Note_on_c, 0, 43, 0
5, 1154760, Note_on_c, 0, 55, 70
5, 1154880, Note_on_c, 0, 55, 0
5, 1154880, Note_on_c, 0, 43, 70
5, 1154880, Note_on_c, 0, 47, 70
5, 1154880, Note_on_c, 0, 50, 70
5, 1155000, Note_on_c, 0, 50, 0
5, 1155000, Note_on_c, 0, 47, 0
5, 1155000, Note_on_c, 0, 43, 0
5, 1155000, Note_on_c, 0, 55, 70
5, 1155120, Note_on_c, 0, 55, 0
5, 1155120, Note_on_c, 0, 43, 70
5, 1155120, Note_on_c, 0, 47, 70
5, 1155120, Note_on_c, 0, 50, 70
5, 1155240, Note_on_c, 0, 50, 0
5, 1155240, Note_on_c, 0, 47, 0
5, 1155240, Note_on_c, 0, 43, 0
5, 1155240, Note_on_c, 0, 55, 70
5, 1155360, Note_on_c, 0, 55, 0
5, 1155360, Note_on_c, 0, 43, 70
5, 1155360, Note_on_c, 0, 47, 70
5, 1155360, Note_on_c, 0, 50, 70
5, 1155480, Note_on_c, 0, 50, 0
5, 1155480, Note_on_c, 0, 47, 0
5, 1155480, Note_on_c, 0, 43, 0
5, 1155480, Note_on_c, 0, 55, 70
5, 1155600, Note_on_c, 0, 55, 0
5, 1155600, Note_on_c, 0, 43, 70
5, 1155600, Note_on_c, 0, 47, 70
5, 1155600, Note_on_c, 0, 50, 70
5, 1155720, Note_on_c, 0, 50, 0
5, 1155720, Note_on_c, 0, 47, 0
5, 1155720, Note_on_c, 0, 43, 0
5, 1155720, Note_on_c, 0, 55, 70
5, 1155840, Note_on_c, 0, 55, 0
5, 1155840, Control_c, 0, 64, 0
5, 1155840, Note_on_c, 0, 43, 70
5, 1155840, Note_on_c, 0, 47, 70
5, 1155840, Note_on_c, 0, 50, 70
5, 1156320, Note_on_c, 0, 50, 0
5, 1156320, Note_on_c, 0, 47, 0
5, 1156320, Note_on_c, 0, 43, 0
5, 1157760, Control_c, 0, 64, 127
5, 1157760, Note_on_c, 0, 43, 96
5, 1157760, Note_on_c, 0, 47, 96
5, 1157760, Note_on_c, 0, 50, 96
5, 1157880, Note_on_c, 0, 50, 0
5, 1157880, Note_on_c, 0, 47, 0
5, 1157880, Note_on_c, 0, 43, 0
5, 1157880, Note_on_c, 0, 55, 96
5, 1158000, Note_on_c, 0, 55, 0
5, 1158000, Note_on_c, 0, 43, 70
5, 1158000, Note_on_c, 0, 47, 70
5, 1158000, Note_on_c, 0, 50, 70
5, 1158120, Note_on_c, 0, 50, 0
5, 1158120, Note_on_c, 0, 47, 0
5, 1158120, Note_on_c, 0, 43, 0
5, 1158120, Note_on_c, 0, 55, 70
5, 1158240, Note_on_c, 0, 55, 0
5, 1158240, Note_on_c, 0, 43, 70
5, 1158240, Note_on_c, 0, 47, 70
5, 1158240, Note_on_c, 0, 50, 70
5, 1158360, Note_on_c, 0, 50, 0
5, 1158360, Note_on_c, 0, 47, 0
5, 1158360, Note_on_c, 0, 43, 0
5, 1158360, Note_on_c, 0, 55, 70
5, 1158480, Note_on_c, 0, 55, 0
5, 1158480, Note_on_c, 0, 43, 70
5, 1158480, Note_on_c, 0, 47, 70
5, 1158480, Note_on_c, 0, 50, 70
5, 1158600, Note_on_c, 0, 50, 0
5, 1158600, Note_on_c, 0, 47, 0
5, 1158600, Note_on_c, 0, 43, 0
5, 1158600, Note_on_c, 0, 55, 70
5, 1158720, Note_on_c, 0, 55, 0
5, 1158720, Note_on_c, 0, 43, 70
5, 1158720, Note_on_c, 0, 47, 70
5, 1158720, Note_on_c, 0, 50, 70
5, 1158840, Note_on_c, 0, 50, 0
5, 1158840, Note_on_c, 0, 47, 0
5, 1158840, Note_on_c, 0, 43, 0
5, 1158840, Note_on_c, 0, 55, 70
5, 1158960, Note_on_c, 0, 55, 0
5, 1158960, Note_on_c, 0, 43, 70
5, 1158960, Note_on_c, 0, 47, 70
5, 1158960, Note_on_c, 0, 50, 70
5, 1159080, Note_on_c, 0, 50, 0
5, 1159080, Note_on_c, 0, 47, 0
5, 1159080, Note_on_c, 0, 43, 0
5, 1159080, Note_on_c, 0, 55, 70
5, 1159200, Note_on_c, 0, 55, 0
5, 1159200, Note_on_c, 0, 43, 70
5, 1159200, Note_on_c, 0, 47, 70
5, 1159200, Note_on_c, 0, 50, 70
5, 1159320, Note_on_c, 0, 50, 0
5, 1159320, Note_on_c, 0, 47, 0
5, 1159320, Note_on_c, 0, 43, 0
5, 1159320, Note_on_c, 0, 55, 70
5, 1159440, Note_on_c, 0, 55, 0
5, 1159440, Note_on_c, 0, 43, 70
5, 1159440, Note_on_c, 0, 47, 70
5, 1159440, Note_on_c, 0, 50, 70
5, 1159560, Note_on_c, 0, 50, 0
5, 1159560, Note_on_c, 0, 47, 0
5, 1159560, Note_on_c, 0, 43, 0
5, 1159560, Note_on_c, 0, 55, 70
5, 1159680, Note_on_c, 0, 55, 0
5, 1159680, Control_c, 0, 64, 0
5, 1159680, Note_on_c, 0, 43, 70
5, 1159680, Note_on_c, 0, 47, 70
5, 1159680, Note_on_c, 0, 50, 70
5, 1160160, Note_on_c, 0, 50, 0
5, 1160160, Note_on_c, 0, 47, 0
5, 1160160, Note_on_c, 0, 43, 0
5, 1161120, Note_on_c, 0, 43, 70
5, 1161120, Note_on_c, 0, 47, 70
5, 1161120, Note_on_c, 0, 50, 70
5, 1161120, Note_on_c, 0, 55, 70
5, 1161600, Note_on_c, 0, 55, 0
5, 1161600, Note_on_c, 0, 43, 0
5, 1161600, Note_on_c, 0, 47, 0
5, 1161600, Note_on_c, 0, 50, 0
5, 1161600, Note_on_c, 0, 40, 70
5, 1161600, Note_on_c, 0, 43, 70
5, 1161600, Note_on_c, 0, 52, 70
5, 1161840, Note_on_c, 0, 52, 0
5, 1161840, Note_on_c, 0, 43, 0
5, 1161840, Note_on_c, 0, 40, 0
5, 1161840, Note_on_c, 0, 40, 70
5, 1161840, Note_on_c, 0, 43, 70
5, 1161840, Note_on_c, 0, 52, 70
5, 1162080, Note_on_c, 0, 52, 0
5, 1162080, Note_on_c, 0, 43, 0
5, 1162080, Note_on_c, 0, 40, 0
5, 1162080, Note_on_c, 0, 40, 70
5, 1162080, Note_on_c, 0, 43, 70
5, 1162080, Note_on_c, 0, 52, 70
5, 1162560, Note_on_c, 0, 52, 0
5, 1162560, Note_on_c, 0, 43, 0
5, 1162560, Note_on_c, 0, 40, 0
5, 1162560, Note_on_c, 0, 43, 70
5, 1162560, Note_on_c, 0, 55, 70
5, 1162800, Note_on_c, 0, 55, 0
5, 1162800, Note_on_c, 0, 43, 0
5, 1162800, Note_on_c, 0, 43, 70
5, 1162800, Note_on_c, 0, 55, 70
5, 1163040, Note_on_c, 0, 55, 0
5, 1163040, Note_on_c, 0, 43, 0
5, 1163040, Note_on_c, 0, 43, 70
5, 1163040, Note_on_c, 0, 55, 70
5, 1163520, Note_on_c, 0, 55, 0
5, 1163520, Note_on_c, 0, 43, 0
5, 1163520, Note_on_c, 0, 40, 70
5, 1163520, Note_on_c, 0, 43, 70
5, 1163520, Note_on_c, 0, 52, 70
5, 1163760, Note_on_c, 0, 52, 0
5, 1163760, Note_on_c, 0, 43, 0
5, 1163760, Note_on_c, 0, 40, 0
5, 1163760, Note_on_c, 0, 40, 70
5, 1163760, Note_on_c, 0, 43, 70
5, 1163760, Note_on_c, 0, 52, 70
5, 1164000, Note_on_c, 0, 52, 0
5, 1164000, Note_on_c, 0, 43, 0
5, 1164000, Note_on_c, 0, 40, 0
5, 1164000, Note_on_c, 0, 40, 70
5, 1164000, Note_on_c, 0, 43, 70
5, 1164000, Note_on_c, 0, 52, 70
5, 1164480, Note_on_c, 0, 52, 0
5, 1164480, Note_on_c, 0, 43, 0
5, 1164480, Note_on_c, 0, 40, 0
5, 1164480, Note_on_c, 0, 43, 70
5, 1164480, Note_on_c, 0, 55, 70
5, 1164720, Note_on_c, 0, 55, 0
5, 1164720, Note_on_c, 0, 43, 0
5, 1164720, Note_on_c, 0, 43, 70
5, 1164720, Note_on_c, 0, 55, 70
5, 1164960, Note_on_c, 0, 55, 0
5, 1164960, Note_on_c, 0, 43, 0
5, 1164960, Note_on_c, 0, 43, 70
5, 1164960, Note_on_c, 0, 55, 70
5, 1165440, Note_on_c, 0, 55, 0
5, 1165440, Note_on_c, 0, 43, 0
5, 1165440, Note_on_c, 0, 36, 70
5, 1165440, Note_on_c, 0, 48, 70
5, 1165920, Note_on_c, 0, 48, 0
5, 1165920, Note_on_c, 0, 36, 0
5, 1165920, Note_on_c, 0, 43, 70
5, 1165920, Note_on_c, 0, 47, 70
5, 1165920, Note_on_c, 0, 50, 70
5, 1165920, Note_on_c, 0, 55, 70
5, 1166400, Note_on_c, 0, 55, 0
5, 1166400, Note_on_c, 0, 43, 0
5, 1166400, Note_on_c, 0, 47, 0
5, 1166400, Note_on_c, 0, 50, 0
5, 1166880, Note_on_c, 0, 43, 70
5, 1166880, Note_on_c, 0, 47, 70
5, 1166880, Note_on_c, 0, 50, 70
5, 1166880, Note_on_c, 0, 55, 70
5, 1167360, Note_on_c, 0, 55, 0
5, 1167360, Note_on_c, 0, 43, 0
5, 1167360, Note_on_c, 0, 47, 0
5, 1167360, Note_on_c, 0, 50, 0
5, 1167360, Note_on_c, 0, 36, 70
5, 1167360, Note_on_c, 0, 48, 70
5, 1167840, Note_on_c, 0, 48, 0
5, 1167840, Note_on_c, 0, 36, 0
5, 1167840, Note_on_c, 0, 43, 70
5, 1167840, Note_on_c, 0, 47, 70
5, 1167840, Note_on_c, 0, 50, 70
5, 1167840, Note_on_c, 0, 55, 70
5, 1168320, Note_on_c, 0, 55, 0
5, 1168320, Note_on_c, 0, 43, 0
5, 1168320, Note_on_c, 0, 47, 0
5, 1168320, Note_on_c, 0, 50, 0
5, 1171680, Note_on_c, 0, 50, 96
5, 1171680, Note_on_c, 0, 62, 96
5, 1172160, Note_on_c, 0, 62, 0
5, 1172160, Note_on_c, 0, 50, 0
5, 1172160, Note_on_c, 0, 47, 96
5, 1172160, Note_on_c, 0, 59, 96
5, 1172640, Note_on_c, 0, 59, 0
5, 1172640, Note_on_c, 0, 47, 0
5, 1172640, Note_on_c, 0, 43, 96
5, 1172640, Note_on_c, 0, 55, 96
5, 1173120, Note_on_c, 0, 55, 0
5, 1173120, Note_on_c, 0, 43, 0
5, 1173120, Note_on_c, 0, 38, 96
5, 1173120, Note_on_c, 0, 50, 96
5, 1173600, Note_on_c, 0, 50, 0
5, 1173600, Note_on_c, 0, 38, 0
5, 1173600, Note_on_c, 0, 39, 96
5, 1173600, Note_on_c, 0, 51, 96
5, 1174080, Note_on_c, 0, 51, 0
5, 1174080, Note_on_c, 0, 39, 0
5, 1174080, Note_on_c, 0, 38, 96
5, 1174080, Note_on_c, 0, 50, 96
5, 1174560, Note_on_c, 0, 50, 0
5, 1174560, Note_on_c, 0, 38, 0
5, 1174560, Note_on_c, 0, 39, 96
5, 1174560, Note_on_c, 0, 51, 96
5, 1175040, Note_on_c, 0, 51, 0
5, 1175040, Note_on_c, 0, 39, 0
5, 1175040, Note_on_c, 0, 38, 96
5, 1175040, Note_on_c, 0, 50, 96
5, 1175199, Note_on_c, 0, 50, 0
5, 1175199, Note_on_c, 0, 38, 0
5, 1175199, Note_on_c, 0, 38, 96
5, 1175199, Note_on_c, 0, 50, 96
5, 1175360, Note_on_c, 0, 50, 0
5, 1175360, Note_on_c, 0, 38, 0
5, 1175360, Note_on_c, 0, 38, 96
5, 1175360, Note_on_c, 0, 50, 96
5, 1175520, Note_on_c, 0, 50, 0
5, 1175520, Note_on_c, 0, 38, 0
5, 1175520, Note_on_c, 0, 38, 96
5, 1175520, Note_on_c, 0, 50, 96
5, 1176000, Note_on_c, 0, 50, 0
5, 1176000, Note_on_c, 0, 38, 0
5, 1196640, Note_on_c, 0, 75, 83
5, 1197120, Note_on_c, 0, 75, 0
5, 1197120, Note_on_c, 0, 70, 83
5, 1197600, Note_on_c, 0, 70, 0
5, 1197600, Note_on_c, 0, 72, 83
5, 1198080, Note_on_c, 0, 72, 0
5, 1198080, Note_on_c, 0, 68, 83
5, 1198560, Note_on_c, 0, 68, 0
5, 1198560, Note_on_c, 0, 69, 83
5, 1199040, Note_on_c, 0, 69, 0
5, 1199040, Note_on_c, 0, 66, 83
5, 1199520, Note_on_c, 0, 66, 0
5, 1199520, Note_on_c, 0, 67, 83
5, 1200000, Note_on_c, 0, 67, 0
5, 1200000, Note_on_c, 0, 63, 83
5, 1200480, Note_on_c, 0, 63, 0
5, 1200480, Note_on_c, 0, 64, 83
5, 1200960, Note_on_c, 0, 64, 0
5, 1200960, Note_on_c, 0, 59, 83
5, 1201440, Note_on_c, 0, 59, 0
5, 1201440, Note_on_c, 0, 60, 83
5, 1201920, Note_on_c, 0, 60, 0
5, 1201920, Note_on_c, 0, 56, 83
5, 1202400, Note_on_c, 0, 56, 0
5, 1202400, Note_on_c, 0, 57, 83
5, 1202880, Note_on_c, 0, 57, 0
5, 1202880, Note_on_c, 0, 62, 83
5, 1203360, Note_on_c, 0, 62, 0
5, 1203360, Note_on_c, 0, 50, 83
5, 1203840, Note_on_c, 0, 50, 0
5, 1203840, Note_on_c, 0, 55, 83
5, 1204320, Note_on_c, 0, 55, 0
5, 1204320, Note_on_c, 0, 63, 83
5, 1204800, Note_on_c, 0, 63, 0
5, 1204800, Note_on_c, 0, 58, 83
5, 1205280, Note_on_c, 0, 58, 0
5, 1205280, Note_on_c, 0, 60, 83
5, 1205760, Note_on_c, 0, 60, 0
5, 1205760, Note_on_c, 0, 56, 83
5, 1206240, Note_on_c, 0, 56, 0
5, 1206240, Note_on_c, 0, 57, 83
5, 1206720, Note_on_c, 0, 57, 0
5, 1206720, Note_on_c, 0, 54, 83
5, 1207200, Note_on_c, 0, 54, 0
5, 1207200, Note_on_c, 0, 55, 83
5, 1207680, Note_on_c, 0, 55, 0
5, 1207680, Note_on_c, 0, 51, 83
5, 1208160, Note_on_c, 0, 51, 0
5, 1208160, Note_on_c, 0, 52, 83
5, 1208640, Note_on_c, 0, 52, 0
5, 1208640, Note_on_c, 0, 47, 83
5, 1209120, Note_on_c, 0, 47, 0
5, 1209120, Note_on_c, 0, 48, 83
5, 1209600, Note_on_c, 0, 48, 0
5, 1209600, Note_on_c, 0, 44, 83
5, 1210080, Note_on_c, 0, 44, 0
5, 1210080, Note_on_c, 0, 45, 83
5, 1210560, Note_on_c, 0, 45, 0
5, 1210560, Note_on_c, 0, 50, 83
5, 1211040, Note_on_c, 0, 50, 0
5, 1211040, Note_on_c, 0, 50, 83
5, 1211520, Note_on_c, 0, 50, 0
5, 1211520, Note_on_c, 0, 43, 83
5, 1211520, Note_on_c, 0, 55, 83
5, 1212000, Note_on_c, 0, 55, 0
5, 1212000, Note_on_c, 0, 43, 0
5, 1212000, Note_on_c, 0, 38, 83
5, 1212000, Note_on_c, 0, 50, 83
5, 1212480, Note_on_c, 0, 50, 0
5, 1212480, Note_on_c, 0, 38, 0
5, 1212480, Note_on_c, 0, 43, 83
5, 1212480, Note_on_c, 0, 50, 83
5, 1212720, Note_on_c, 0, 50, 0
5, 1212720, Note_on_c, 0, 43, 0
5, 1212720, Note_on_c, 0, 43, 83
5, 1212720, Note_on_c, 0, 50, 83
5, 1212960, Note_on_c, 0, 50, 0
5, 1212960, Note_on_c, 0, 43, 0
5, 1212960, Note_on_c, 0, 43, 83
5, 1212960, Note_on_c, 0, 50, 83
5, 1213440, Note_on_c, 0, 50, 0
5, 1213440, Note_on_c, 0, 43, 0
5, 1213920, Note_on_c, 0, 38, 83
5, 1213920, Note_on_c, 0, 50, 83
5, 1214400, Note_on_c, 0, 50, 0
5, 1214400, Note_on_c, 0, 38, 0
5, 1214400, Note_on_c, 0, 43, 83
5, 1214400, Note_on_c, 0, 50, 83
5, 1214640, Note_on_c, 0, 50, 0
5, 1214640, Note_on_c, 0, 43, 0
5, 1214640, Note_on_c, 0, 43, 83
5, 1214640, Note_on_c, 0, 50, 83
5, 1214880, Note_on_c, 0, 50, 0
5, 1214880, Note_on_c, 0, 43, 0
5, 1214880, Note_on_c, 0, 43, 83
5, 1214880, Note_on_c, 0, 50, 83
5, 1215360, Note_on_c, 0, 50, 0
5, 1215360, Note_on_c, 0, 43, 0
5, 1215840, Note_on_c, 0, 38, 83
5, 1215840, Note_on_c, 0, 50, 83
5, 1216320, Note_on_c, 0, 50, 0
5, 1216320, Note_on_c, 0, 38, 0
5, 1216320, Note_on_c, 0, 43, 70
5, 1216320, Note_on_c, 0, 47, 70
5, 1216320, Note_on_c, 0, 50, 70
5, 1216320, Note_on_c, 0, 55, 70
5, 1216560, Note_on_c, 0, 55, 0
5, 1216560, Note_on_c, 0, 43, 0
5, 1216560, Note_on_c, 0, 47, 0
5, 1216560, Note_on_c, 0, 50, 0
5, 1216560, Note_on_c, 0, 43, 70
5, 1216560, Note_on_c, 0, 47, 70
5, 1216560, Note_on_c, 0, 50, 70
5, 1216560, Note_on_c, 0, 55, 70
5, 1216800, Note_on_c, 0, 55, 0
5, 1216800, Note_on_c, 0, 43, 0
5, 1216800, Note_on_c, 0, 47, 0
5, 1216800, Note_on_c, 0, 50, 0
5, 1216800, Note_on_c, 0, 43, 70
5, 1216800, Note_on_c, 0, 47, 70
5, 1216800, Note_on_c, 0, 50, 70
5, 1216800, Note_on_c, 0, 55, 70
5, 1217280, Note_on_c, 0, 55, 0
5, 1217280, Note_on_c, 0, 43, 0
5, 1217280, Note_on_c, 0, 47, 0
5, 1217280, Note_on_c, 0, 50, 0
5, 1217760, Note_on_c, 0, 38, 70
5, 1217760, Note_on_c, 0, 50, 70
5, 1218240, Note_on_c, 0, 50, 0
5, 1218240, Note_on_c, 0, 38, 0
5, 1218240, Note_on_c, 0, 43, 70
5, 1218240, Note_on_c, 0, 47, 70
5, 1218240, Note_on_c, 0, 50, 70
5, 1218240, Note_on_c, 0, 55, 70
5, 1218480, Note_on_c, 0, 55, 0
5, 1218480, Note_on_c, 0, 43, 0
5, 1218480, Note_on_c, 0, 47, 0
5, 1218480, Note_on_c, 0, 50, 0
5, 1218480, Note_on_c, 0, 43, 70
5, 1218480, Note_on_c, 0, 47, 70
5, 1218480, Note_on_c, 0, 50, 70
5, 1218480, Note_on_c, 0, 55, 70
5, 1218720, Note_on_c, 0, 55, 0
5, 1218720, Note_on_c, 0, 43, 0
5, 1218720, Note_on_c, 0, 47, 0
5, 1218720, Note_on_c, 0, 50, 0
5, 1218720, Note_on_c, 0, 43, 70
5, 1218720, Note_on_c, 0, 47, 70
5, 1218720, Note_on_c, 0, 50, 70
5, 1218720, Note_on_c, 0, 55, 70
5, 1219200, Note_on_c, 0, 55, 0
5, 1219200, Note_on_c, 0, 43, 0
5, 1219200, Note_on_c, 0, 47, 0
5, 1219200, Note_on_c, 0, 50, 0
5, 1219680, Note_on_c, 0, 38, 96
5, 1219680, Note_on_c, 0, 50, 96
5, 1220160, Note_on_c, 0, 50, 0
5, 1220160, Note_on_c, 0, 38, 0
5, 1220160, Note_on_c, 0, 43, 96
5, 1220160, Note_on_c, 0, 55, 96
5, 1220640, Note_on_c, 0, 55, 0
5, 1220640, Note_on_c, 0, 43, 0
5, 1220640, Note_on_c, 0, 38, 96
5, 1220640, Note_on_c, 0, 50, 96
5, 1221120, Note_on_c, 0, 50, 0
5, 1221120, Note_on_c, 0, 38, 0
5, 1221120, Note_on_c, 0, 43, 96
5, 1221120, Note_on_c, 0, 55, 96
5, 1221600, Note_on_c, 0, 55, 0
5, 1221600, Note_on_c, 0, 43, 0
5, 1221600, Note_on_c, 0, 38, 96
5, 1221600, Note_on_c, 0, 50, 96
5, 1222080, Note_on_c, 0, 50, 0
5, 1222080, Note_on_c, 0, 38, 0
5, 1222080, Note_on_c, 0, 43, 96
5, 1222080, Note_on_c, 0, 55, 96
5, 1222560, Note_on_c, 0, 55, 0
5, 1222560, Note_on_c, 0, 43, 0
5, 1222560, Note_on_c, 0, 38, 96
5, 1222560, Note_on_c, 0, 50, 96
5, 1223040, Note_on_c, 0, 50, 0
5, 1223040, Note_on_c, 0, 38, 0
5, 1223040, Note_on_c, 0, 43, 96
5, 1223040, Note_on_c, 0, 55, 96
5, 1223520, Note_on_c, 0, 55, 0
5, 1223520, Note_on_c, 0, 43, 0
5, 1223520, Note_on_c, 0, 38, 96
5, 1223520, Note_on_c, 0, 50, 96
5, 1224000, Note_on_c, 0, 50, 0
5, 1224000, Note_on_c, 0, 38, 0
5, 1224000, Note_on_c, 0, 43, 96
5, 1224000, Note_on_c, 0, 47, 96
5, 1224000, Note_on_c, 0, 50, 96
5, 1224000, Note_on_c, 0, 55, 96
5, 1224480, Note_on_c, 0, 55, 0
5, 1224480, Note_on_c, 0, 43, 0
5, 1224480, Note_on_c, 0, 47, 0
5, 1224480, Note_on_c, 0, 50, 0
5, 1224960, Note_on_c, 0, 43, 96
5, 1224960, Note_on_c, 0, 47, 96
5, 1224960, Note_on_c, 0, 50, 96
5, 1224960, Note_on_c, 0, 55, 96
5, 1225440, Note_on_c, 0, 55, 0
5, 1225440, Note_on_c, 0, 43, 0
5, 1225440, Note_on_c, 0, 47, 0
5, 1225440, Note_on_c, 0, 50, 0
5, 1225920, Note_on_c, 0, 43, 96
5, 1225920, Note_on_c, 0, 47, 96
5, 1225920, Note_on_c, 0, 50, 96
5, 1225920, Note_on_c, 0, 55, 96
5, 1226400, Note_on_c, 0, 55, 0
5, 1226400, Note_on_c, 0, 43, 0
5, 1226400, Note_on_c, 0, 47, 0
5, 1226400, Note_on_c, 0, 50, 0
5, 1226880, Note_on_c, 0, 43, 96
5, 1226880, Note_on_c, 0, 47, 96
5, 1226880, Note_on_c, 0, 50, 96
5, 1226880, Note_on_c, 0, 55, 96
5, 1227360, Note_on_c, 0, 55, 0
5, 1227360, Note_on_c, 0, 43, 0
5, 1227360, Note_on_c, 0, 47, 0
5, 1227360, Note_on_c, 0, 50, 0
5, 1227840, Note_on_c, 0, 43, 96
5, 1227840, Note_on_c, 0, 48, 96
5, 1227840, Note_on_c, 0, 51, 96
5, 1227840, Note_on_c, 0, 55, 96
5, 1228320, Note_on_c, 0, 55, 0
5, 1228320, Note_on_c, 0, 43, 0
5, 1228320, Note_on_c, 0, 48, 0
5, 1228320, Note_on_c, 0, 51, 0
5, 1229280, Note_on_c, 0, 43, 96
5, 1229280, Note_on_c, 0, 48, 96
5, 1229280, Note_on_c, 0, 51, 96
5, 1229280, Note_on_c, 0, 55, 96
5, 1229760, Note_on_c, 0, 55, 0
5, 1229760, Note_on_c, 0, 43, 0
5, 1229760, Note_on_c, 0, 48, 0
5, 1229760, Note_on_c, 0, 51, 0
5, 1229760, Note_on_c, 0, 43, 96
5, 1229760, Note_on_c, 0, 47, 96
5, 1229760, Note_on_c, 0, 50, 96
5, 1229760, Note_on_c, 0, 55, 96
5, 1230240, Note_on_c, 0, 55, 0
5, 1230240, Note_on_c, 0, 43, 0
5, 1230240, Note_on_c, 0, 47, 0
5, 1230240, Note_on_c, 0, 50, 0
5, 1230240, Note_on_c, 0, 38, 96
5, 1230240, Note_on_c, 0, 42, 96
5, 1230240, Note_on_c, 0, 45, 96
5, 1230240, Note_on_c, 0, 50, 96
5, 1230720, Note_on_c, 0, 50, 0
5, 1230720, Note_on_c, 0, 38, 0
5, 1230720, Note_on_c, 0, 42, 0
5, 1230720, Note_on_c, 0, 45, 0
5, 1230720, Note_on_c, 0, 43, 96
5, 1230720, Note_on_c, 0, 47, 96
5, 1230720, Note_on_c, 0, 50, 96
5, 1230720, Note_on_c, 0, 55, 96
5, 1231200, Note_on_c, 0, 55, 0
5, 1231200, Note_on_c, 0, 43, 0
5, 1231200, Note_on_c, 0, 47, 0
5, 1231200, Note_on_c, 0, 50, 0
5, 1231200, End_track
0, 0, End_of_file
