0, 0, Header, 0, 1, 384
1, 0, Start_track
1, 0, Copyright_t, "Adaptation for Disklavier pianos, by: Robert C. Kuhmann (c) 2012."
1, 0, Time_signature, 4, 2, 24, 8
1, 0, Key_signature, 0, "major"
1, 0, Tempo, 512821
1, 0, Program_c, 0, 0
1, 0, Control_c, 0, 7, 115
1, 0, Note_on_c, 0, 51, 46
1, 14, Control_c, 0, 64, 127
1, 55, Note_on_c, 0, 51, 0
1, 280, Note_on_c, 0, 63, 56
1, 290, Note_on_c, 0, 55, 60
1, 290, Control_c, 0, 64, 0
1, 293, Note_on_c, 0, 58, 41
1, 329, Note_on_c, 0, 63, 0
1, 334, Note_on_c, 0, 55, 0
1, 347, Note_on_c, 0, 58, 0
1, 401, Note_on_c, 0, 55, 61
1, 401, Note_on_c, 0, 58, 51
1, 407, Note_on_c, 0, 63, 59
1, 454, Note_on_c, 0, 63, 0
1, 460, Note_on_c, 0, 55, 0
1, 470, Note_on_c, 0, 58, 0
1, 529, Note_on_c, 0, 63, 59
1, 529, Note_on_c, 0, 55, 68
1, 529, Note_on_c, 0, 58, 50
1, 579, Note_on_c, 0, 63, 0
1, 582, Note_on_c, 0, 55, 0
1, 587, Note_on_c, 0, 58, 0
1, 807, Note_on_c, 0, 63, 67
1, 822, Note_on_c, 0, 58, 50
1, 827, Note_on_c, 0, 55, 56
1, 844, Note_on_c, 0, 63, 0
1, 868, Note_on_c, 0, 55, 0
1, 868, Note_on_c, 0, 58, 0
1, 1078, Note_on_c, 0, 46, 63
1, 1120, Note_on_c, 0, 46, 0
1, 1141, Control_c, 0, 64, 127
1, 1364, Note_on_c, 0, 70, 75
1, 1368, Note_on_c, 0, 63, 58
1, 1381, Note_on_c, 0, 58, 43
1, 1389, Note_on_c, 0, 55, 45
1, 1406, Note_on_c, 0, 70, 0
1, 1409, Note_on_c, 0, 63, 0
1, 1428, Control_c, 0, 64, 0
1, 1434, Note_on_c, 0, 58, 0
1, 1440, Note_on_c, 0, 55, 0
1, 1479, Note_on_c, 0, 63, 56
1, 1482, Note_on_c, 0, 72, 91
1, 1485, Note_on_c, 0, 58, 57
1, 1489, Note_on_c, 0, 55, 51
1, 1524, Note_on_c, 0, 72, 0
1, 1528, Note_on_c, 0, 63, 0
1, 1535, Note_on_c, 0, 58, 0
1, 1545, Note_on_c, 0, 55, 0
1, 1606, Note_on_c, 0, 75, 98
1, 1610, Note_on_c, 0, 63, 67
1, 1610, Note_on_c, 0, 55, 51
1, 1610, Note_on_c, 0, 58, 18
1, 1665, Note_on_c, 0, 55, 0
1, 1665, Note_on_c, 0, 63, 0
1, 1668, Note_on_c, 0, 58, 0
1, 1732, Note_on_c, 0, 74, 95
1, 1763, Note_on_c, 0, 75, 0
1, 1816, Note_on_c, 0, 74, 0
1, 1847, Note_on_c, 0, 63, 71
1, 1850, Note_on_c, 0, 72, 88
1, 1857, Note_on_c, 0, 58, 51
1, 1868, Note_on_c, 0, 55, 42
1, 1891, Note_on_c, 0, 63, 0
1, 1905, Note_on_c, 0, 72, 0
1, 1910, Note_on_c, 0, 58, 0
1, 1919, Note_on_c, 0, 55, 0
1, 1952, Note_on_c, 0, 70, 82
1, 2042, Note_on_c, 0, 70, 0
1, 2095, Note_on_c, 0, 74, 76
1, 2100, Note_on_c, 0, 53, 78
1, 2170, Note_on_c, 0, 53, 0
1, 2170, Control_c, 0, 64, 127
1, 2200, Note_on_c, 0, 74, 0
1, 2328, Control_c, 0, 64, 0
1, 2357, Note_on_c, 0, 56, 54
1, 2364, Note_on_c, 0, 62, 57
1, 2367, Note_on_c, 0, 58, 42
1, 2407, Note_on_c, 0, 62, 0
1, 2411, Note_on_c, 0, 56, 0
1, 2418, Note_on_c, 0, 58, 0
1, 2467, Note_on_c, 0, 56, 67
1, 2471, Note_on_c, 0, 62, 72
1, 2471, Note_on_c, 0, 58, 52
1, 2517, Note_on_c, 0, 62, 0
1, 2529, Note_on_c, 0, 58, 0
1, 2534, Note_on_c, 0, 56, 0
1, 2585, Note_on_c, 0, 62, 79
1, 2585, Note_on_c, 0, 56, 78
1, 2590, Note_on_c, 0, 74, 95
1, 2593, Note_on_c, 0, 58, 47
1, 2629, Note_on_c, 0, 62, 0
1, 2641, Note_on_c, 0, 58, 0
1, 2645, Note_on_c, 0, 56, 0
1, 2868, Note_on_c, 0, 56, 66
1, 2868, Note_on_c, 0, 62, 61
1, 2883, Note_on_c, 0, 58, 36
1, 2911, Note_on_c, 0, 62, 0
1, 2911, Note_on_c, 0, 56, 0
1, 2942, Note_on_c, 0, 58, 0
1, 3180, Note_on_c, 0, 46, 51
1, 3250, Control_c, 0, 64, 127
1, 3297, Note_on_c, 0, 46, 0
1, 3339, Note_on_c, 0, 74, 0
1, 3479, Note_on_c, 0, 72, 81
1, 3484, Note_on_c, 0, 62, 54
1, 3484, Note_on_c, 0, 56, 52
1, 3493, Note_on_c, 0, 58, 32
1, 3527, Note_on_c, 0, 62, 0
1, 3532, Note_on_c, 0, 56, 0
1, 3537, Note_on_c, 0, 72, 0
1, 3549, Note_on_c, 0, 58, 0
1, 3549, Control_c, 0, 64, 0
1, 3587, Note_on_c, 0, 56, 61
1, 3598, Note_on_c, 0, 74, 96
1, 3598, Note_on_c, 0, 62, 49
1, 3613, Note_on_c, 0, 58, 52
1, 3634, Note_on_c, 0, 74, 0
1, 3634, Note_on_c, 0, 56, 0
1, 3646, Note_on_c, 0, 62, 0
1, 3662, Note_on_c, 0, 58, 0
1, 3712, Note_on_c, 0, 62, 63
1, 3715, Note_on_c, 0, 58, 54
1, 3718, Note_on_c, 0, 75, 99
1, 3718, Note_on_c, 0, 56, 54
1, 3765, Note_on_c, 0, 62, 0
1, 3769, Note_on_c, 0, 56, 0
1, 3780, Note_on_c, 0, 58, 0
1, 3841, Note_on_c, 0, 74, 92
1, 3877, Note_on_c, 0, 75, 0
1, 3946, Note_on_c, 0, 74, 0
1, 3963, Note_on_c, 0, 72, 85
1, 3970, Note_on_c, 0, 62, 61
1, 3974, Note_on_c, 0, 58, 40
1, 3974, Note_on_c, 0, 56, 44
1, 4016, Note_on_c, 0, 62, 0
1, 4031, Note_on_c, 0, 72, 0
1, 4031, Note_on_c, 0, 56, 0
1, 4038, Note_on_c, 0, 58, 0
1, 4086, Note_on_c, 0, 74, 84
1, 4133, Note_on_c, 0, 74, 0
1, 4219, Note_on_c, 0, 72, 58
1, 4236, Note_on_c, 0, 51, 50
1, 4284, Note_on_c, 0, 51, 0
1, 4304, Control_c, 0, 64, 127
1, 4354, Note_on_c, 0, 72, 0
1, 4449, Control_c, 0, 64, 0
1, 4454, Note_on_c, 0, 58, 40
1, 4454, Note_on_c, 0, 63, 49
1, 4467, Note_on_c, 0, 55, 49
1, 4504, Note_on_c, 0, 63, 0
1, 4515, Note_on_c, 0, 55, 0
1, 4515, Note_on_c, 0, 58, 0
1, 4579, Note_on_c, 0, 55, 68
1, 4579, Note_on_c, 0, 63, 60
1, 4579, Note_on_c, 0, 58, 49
1, 4637, Note_on_c, 0, 63, 0
1, 4637, Note_on_c, 0, 55, 0
1, 4644, Note_on_c, 0, 58, 0
1, 4704, Note_on_c, 0, 70, 74
1, 4711, Note_on_c, 0, 63, 71
1, 4711, Note_on_c, 0, 55, 66
1, 4718, Note_on_c, 0, 58, 46
1, 4760, Note_on_c, 0, 63, 0
1, 4771, Note_on_c, 0, 58, 0
1, 4771, Note_on_c, 0, 55, 0
1, 4981, Note_on_c, 0, 63, 49
1, 4981, Note_on_c, 0, 58, 42
1, 4985, Note_on_c, 0, 55, 58
1, 5027, Note_on_c, 0, 55, 0
1, 5027, Note_on_c, 0, 63, 0
1, 5038, Note_on_c, 0, 58, 0
1, 5247, Note_on_c, 0, 46, 66
1, 5287, Note_on_c, 0, 46, 0
1, 5323, Control_c, 0, 64, 127
1, 5423, Note_on_c, 0, 70, 0
1, 5512, Note_on_c, 0, 63, 68
1, 5520, Note_on_c, 0, 70, 87
1, 5534, Note_on_c, 0, 58, 36
1, 5534, Note_on_c, 0, 55, 55
1, 5552, Note_on_c, 0, 63, 0
1, 5579, Note_on_c, 0, 55, 0
1, 5584, Note_on_c, 0, 70, 0
1, 5590, Note_on_c, 0, 58, 0
1, 5599, Control_c, 0, 64, 0
1, 5629, Note_on_c, 0, 70, 89
1, 5635, Note_on_c, 0, 55, 79
1, 5641, Note_on_c, 0, 58, 54
1, 5644, Note_on_c, 0, 63, 61
1, 5685, Note_on_c, 0, 55, 0
1, 5690, Note_on_c, 0, 63, 0
1, 5693, Note_on_c, 0, 58, 0
1, 5721, Note_on_c, 0, 70, 0
1, 5752, Note_on_c, 0, 63, 72
1, 5758, Note_on_c, 0, 72, 100
1, 5758, Note_on_c, 0, 55, 64
1, 5768, Note_on_c, 0, 58, 37
1, 5807, Note_on_c, 0, 63, 0
1, 5816, Note_on_c, 0, 55, 0
1, 5822, Note_on_c, 0, 58, 0
1, 5853, Note_on_c, 0, 72, 0
1, 5877, Note_on_c, 0, 70, 99
1, 5995, Note_on_c, 0, 68, 98
1, 6003, Note_on_c, 0, 70, 0
1, 6003, Note_on_c, 0, 63, 68
1, 6016, Note_on_c, 0, 58, 41
1, 6022, Note_on_c, 0, 55, 59
1, 6047, Note_on_c, 0, 63, 0
1, 6067, Note_on_c, 0, 68, 0
1, 6067, Note_on_c, 0, 55, 0
1, 6072, Note_on_c, 0, 58, 0
1, 6115, Note_on_c, 0, 67, 98
1, 6162, Note_on_c, 0, 67, 0
1, 6239, Note_on_c, 0, 70, 87
1, 6261, Note_on_c, 0, 53, 66
1, 6320, Note_on_c, 0, 53, 0
1, 6346, Note_on_c, 0, 70, 0
1, 6390, Control_c, 0, 64, 127
1, 6506, Note_on_c, 0, 58, 48
1, 6506, Note_on_c, 0, 62, 61
1, 6509, Note_on_c, 0, 56, 54
1, 6509, Control_c, 0, 64, 0
1, 6548, Note_on_c, 0, 62, 0
1, 6555, Note_on_c, 0, 56, 0
1, 6562, Note_on_c, 0, 58, 0
1, 6621, Note_on_c, 0, 58, 49
1, 6626, Note_on_c, 0, 62, 56
1, 6626, Note_on_c, 0, 56, 51
1, 6672, Note_on_c, 0, 62, 0
1, 6682, Note_on_c, 0, 56, 0
1, 6688, Note_on_c, 0, 58, 0
1, 6747, Note_on_c, 0, 68, 85
1, 6750, Note_on_c, 0, 56, 62
1, 6754, Note_on_c, 0, 62, 58
1, 6758, Note_on_c, 0, 58, 44
1, 6802, Note_on_c, 0, 62, 0
1, 6817, Note_on_c, 0, 58, 0
1, 6824, Note_on_c, 0, 56, 0
1, 7020, Note_on_c, 0, 62, 52
1, 7027, Note_on_c, 0, 56, 38
1, 7030, Note_on_c, 0, 58, 36
1, 7069, Note_on_c, 0, 62, 0
1, 7086, Note_on_c, 0, 56, 0
1, 7089, Note_on_c, 0, 58, 0
1, 7321, Note_on_c, 0, 46, 47
1, 7396, Control_c, 0, 64, 127
1, 7417, Note_on_c, 0, 46, 0
1, 7443, Note_on_c, 0, 68, 0
1, 7599, Note_on_c, 0, 68, 79
1, 7605, Note_on_c, 0, 56, 45
1, 7605, Note_on_c, 0, 62, 49
1, 7605, Note_on_c, 0, 58, 33
1, 7641, Note_on_c, 0, 68, 0
1, 7649, Control_c, 0, 64, 0
1, 7654, Note_on_c, 0, 62, 0
1, 7657, Note_on_c, 0, 56, 0
1, 7661, Note_on_c, 0, 58, 0
1, 7705, Note_on_c, 0, 68, 71
1, 7705, Note_on_c, 0, 56, 63
1, 7711, Note_on_c, 0, 58, 33
1, 7714, Note_on_c, 0, 62, 72
1, 7758, Note_on_c, 0, 62, 0
1, 7758, Note_on_c, 0, 56, 0
1, 7766, Note_on_c, 0, 58, 0
1, 7775, Note_on_c, 0, 68, 0
1, 7835, Note_on_c, 0, 70, 77
1, 7842, Note_on_c, 0, 62, 57
1, 7852, Note_on_c, 0, 56, 49
1, 7866, Note_on_c, 0, 58, 49
1, 7894, Note_on_c, 0, 62, 0
1, 7903, Note_on_c, 0, 56, 0
1, 7916, Note_on_c, 0, 58, 0
1, 7948, Note_on_c, 0, 70, 0
1, 7956, Note_on_c, 0, 68, 77
1, 8016, Note_on_c, 0, 68, 0
1, 8081, Note_on_c, 0, 67, 65
1, 8087, Note_on_c, 0, 62, 62
1, 8087, Note_on_c, 0, 56, 56
1, 8095, Note_on_c, 0, 58, 40
1, 8131, Note_on_c, 0, 62, 0
1, 8131, Note_on_c, 0, 67, 0
1, 8140, Note_on_c, 0, 56, 0
1, 8156, Note_on_c, 0, 58, 0
1, 8209, Note_on_c, 0, 65, 70
1, 8254, Note_on_c, 0, 65, 0
1, 8349, Note_on_c, 0, 67, 63
1, 8384, Note_on_c, 0, 51, 43
1, 8438, Note_on_c, 0, 51, 0
1, 8476, Control_c, 0, 64, 127
1, 8480, Note_on_c, 0, 67, 0
1, 8615, Note_on_c, 0, 58, 40
1, 8624, Note_on_c, 0, 55, 24
1, 8666, Note_on_c, 0, 55, 0
1, 8666, Control_c, 0, 64, 0
1, 8671, Note_on_c, 0, 58, 0
1, 8739, Note_on_c, 0, 58, 35
1, 8747, Note_on_c, 0, 55, 81
1, 8788, Note_on_c, 0, 55, 0
1, 8808, Note_on_c, 0, 58, 0
1, 8866, Note_on_c, 0, 58, 65
1, 8866, Note_on_c, 0, 63, 77
1, 8886, Note_on_c, 0, 55, 45
1, 8936, Note_on_c, 0, 55, 0
1, 8942, Note_on_c, 0, 58, 0
1, 9139, Note_on_c, 0, 58, 47
1, 9139, Note_on_c, 0, 55, 59
1, 9186, Note_on_c, 0, 55, 0
1, 9190, Note_on_c, 0, 58, 0
1, 9434, Note_on_c, 0, 46, 53
1, 9494, Control_c, 0, 64, 127
1, 9498, Note_on_c, 0, 46, 0
1, 9697, Note_on_c, 0, 58, 43
1, 9714, Note_on_c, 0, 55, 49
1, 9752, Note_on_c, 0, 58, 0
1, 9764, Note_on_c, 0, 55, 0
1, 9810, Note_on_c, 0, 58, 54
1, 9827, Note_on_c, 0, 55, 72
1, 9863, Note_on_c, 0, 58, 0
1, 9866, Note_on_c, 0, 55, 0
1, 9891, Control_c, 0, 64, 0
1, 9922, Note_on_c, 0, 58, 53
1, 9933, Note_on_c, 0, 55, 57
1, 9984, Note_on_c, 0, 55, 0
1, 10001, Note_on_c, 0, 58, 0
1, 10190, Note_on_c, 0, 58, 44
1, 10201, Note_on_c, 0, 55, 49
1, 10243, Note_on_c, 0, 58, 0
1, 10248, Note_on_c, 0, 55, 0
1, 10469, Note_on_c, 0, 51, 56
1, 10501, Note_on_c, 0, 63, 0
1, 10522, Note_on_c, 0, 51, 0
1, 10526, Control_c, 0, 64, 127
1, 10736, Note_on_c, 0, 63, 53
1, 10749, Note_on_c, 0, 55, 56
1, 10749, Note_on_c, 0, 58, 37
1, 10780, Note_on_c, 0, 63, 0
1, 10795, Note_on_c, 0, 55, 0
1, 10811, Note_on_c, 0, 58, 0
1, 10811, Control_c, 0, 64, 0
1, 10844, Note_on_c, 0, 63, 54
1, 10859, Note_on_c, 0, 55, 64
1, 10888, Note_on_c, 0, 58, 39
1, 10892, Note_on_c, 0, 63, 0
1, 10905, Note_on_c, 0, 55, 0
1, 10955, Note_on_c, 0, 58, 0
1, 10970, Note_on_c, 0, 55, 58
1, 10975, Note_on_c, 0, 63, 62
1, 10997, Note_on_c, 0, 58, 27
1, 11025, Note_on_c, 0, 63, 0
1, 11025, Note_on_c, 0, 55, 0
1, 11048, Note_on_c, 0, 58, 0
1, 11237, Note_on_c, 0, 63, 55
1, 11249, Note_on_c, 0, 58, 42
1, 11254, Note_on_c, 0, 55, 57
1, 11279, Note_on_c, 0, 63, 0
1, 11298, Note_on_c, 0, 55, 0
1, 11301, Note_on_c, 0, 58, 0
1, 11529, Note_on_c, 0, 46, 51
1, 11555, Control_c, 0, 64, 127
1, 11574, Note_on_c, 0, 46, 0
1, 11814, Note_on_c, 0, 70, 67
1, 11814, Note_on_c, 0, 63, 46
1, 11825, Note_on_c, 0, 58, 37
1, 11834, Note_on_c, 0, 55, 41
1, 11864, Note_on_c, 0, 63, 0
1, 11864, Note_on_c, 0, 70, 0
1, 11883, Note_on_c, 0, 58, 0
1, 11889, Note_on_c, 0, 55, 0
1, 11889, Control_c, 0, 64, 0
1, 11936, Note_on_c, 0, 72, 87
1, 11936, Note_on_c, 0, 58, 53
1, 11942, Note_on_c, 0, 63, 50
1, 11948, Note_on_c, 0, 55, 74
1, 11976, Note_on_c, 0, 72, 0
1, 11989, Note_on_c, 0, 55, 0
1, 11989, Note_on_c, 0, 63, 0
1, 11995, Note_on_c, 0, 58, 0
1, 12067, Note_on_c, 0, 75, 89
1, 12079, Note_on_c, 0, 63, 53
1, 12095, Note_on_c, 0, 58, 24
1, 12095, Note_on_c, 0, 55, 35
1, 12131, Note_on_c, 0, 63, 0
1, 12153, Note_on_c, 0, 55, 0
1, 12162, Note_on_c, 0, 58, 0
1, 12193, Note_on_c, 0, 75, 0
1, 12193, Note_on_c, 0, 74, 84
1, 12235, Note_on_c, 0, 74, 0
1, 12309, Note_on_c, 0, 72, 77
1, 12323, Note_on_c, 0, 63, 52
1, 12337, Note_on_c, 0, 58, 30
1, 12337, Note_on_c, 0, 55, 42
1, 12354, Note_on_c, 0, 72, 0
1, 12370, Note_on_c, 0, 63, 0
1, 12393, Note_on_c, 0, 55, 0
1, 12405, Note_on_c, 0, 58, 0
1, 12424, Note_on_c, 0, 70, 69
1, 12532, Note_on_c, 0, 70, 0
1, 12600, Note_on_c, 0, 74, 68
1, 12603, Note_on_c, 0, 53, 66
1, 12750, Note_on_c, 0, 53, 0
1, 12780, Note_on_c, 0, 74, 0
1, 12791, Control_c, 0, 64, 127
1, 12878, Note_on_c, 0, 56, 52
1, 12887, Note_on_c, 0, 58, 41
1, 12890, Note_on_c, 0, 62, 49
1, 12930, Note_on_c, 0, 56, 0
1, 12941, Note_on_c, 0, 62, 0
1, 12947, Note_on_c, 0, 58, 0
1, 12981, Control_c, 0, 64, 0
1, 12998, Note_on_c, 0, 56, 51
1, 13008, Note_on_c, 0, 62, 69
1, 13014, Note_on_c, 0, 58, 53
1, 13051, Note_on_c, 0, 62, 0
1, 13058, Note_on_c, 0, 56, 0
1, 13062, Note_on_c, 0, 58, 0
1, 13112, Note_on_c, 0, 74, 89
1, 13121, Note_on_c, 0, 58, 49
1, 13121, Note_on_c, 0, 56, 59
1, 13126, Note_on_c, 0, 62, 56
1, 13171, Note_on_c, 0, 56, 0
1, 13175, Note_on_c, 0, 62, 0
1, 13181, Note_on_c, 0, 58, 0
1, 13382, Note_on_c, 0, 56, 60
1, 13382, Note_on_c, 0, 62, 66
1, 13402, Note_on_c, 0, 58, 36
1, 13424, Note_on_c, 0, 62, 0
1, 13438, Note_on_c, 0, 56, 0
1, 13458, Note_on_c, 0, 58, 0
1, 13694, Note_on_c, 0, 46, 50
1, 13738, Control_c, 0, 64, 127
1, 13756, Note_on_c, 0, 46, 0
1, 13825, Note_on_c, 0, 74, 0
1, 13972, Note_on_c, 0, 56, 62
1, 13972, Note_on_c, 0, 72, 78
1, 13978, Note_on_c, 0, 62, 54
1, 13981, Note_on_c, 0, 58, 40
1, 14014, Note_on_c, 0, 56, 0
1, 14018, Note_on_c, 0, 72, 0
1, 14022, Note_on_c, 0, 62, 0
1, 14025, Control_c, 0, 64, 0
1, 14034, Note_on_c, 0, 58, 0
1, 14079, Note_on_c, 0, 56, 51
1, 14084, Note_on_c, 0, 74, 100
1, 14084, Note_on_c, 0, 62, 65
1, 14084, Note_on_c, 0, 58, 57
1, 14129, Note_on_c, 0, 74, 0
1, 14132, Note_on_c, 0, 62, 0
1, 14139, Note_on_c, 0, 56, 0
1, 14142, Note_on_c, 0, 58, 0
1, 14210, Note_on_c, 0, 75, 99
1, 14213, Note_on_c, 0, 62, 53
1, 14217, Note_on_c, 0, 56, 50
1, 14220, Note_on_c, 0, 58, 35
1, 14263, Note_on_c, 0, 56, 0
1, 14266, Note_on_c, 0, 62, 0
1, 14281, Note_on_c, 0, 58, 0
1, 14337, Note_on_c, 0, 74, 94
1, 14360, Note_on_c, 0, 75, 0
1, 14380, Note_on_c, 0, 74, 0
1, 14451, Note_on_c, 0, 72, 83
1, 14451, Note_on_c, 0, 56, 59
1, 14457, Note_on_c, 0, 62, 60
1, 14474, Note_on_c, 0, 58, 28
1, 14488, Note_on_c, 0, 72, 0
1, 14497, Note_on_c, 0, 56, 0
1, 14497, Note_on_c, 0, 62, 0
1, 14529, Note_on_c, 0, 58, 0
1, 14561, Note_on_c, 0, 74, 94
1, 14597, Note_on_c, 0, 74, 0
1, 14692, Note_on_c, 0, 72, 93
1, 14699, Note_on_c, 0, 51, 49
1, 14784, Note_on_c, 0, 51, 0
1, 14803, Control_c, 0, 64, 127
1, 14809, Note_on_c, 0, 72, 0
1, 14928, Note_on_c, 0, 63, 57
1, 14940, Note_on_c, 0, 58, 46
1, 14950, Note_on_c, 0, 55, 51
1, 14973, Note_on_c, 0, 63, 0
1, 14993, Note_on_c, 0, 55, 0
1, 14993, Note_on_c, 0, 58, 0
1, 15051, Note_on_c, 0, 55, 75
1, 15051, Note_on_c, 0, 58, 50
1, 15056, Note_on_c, 0, 63, 55
1, 15067, Control_c, 0, 64, 0
1, 15104, Note_on_c, 0, 55, 0
1, 15114, Note_on_c, 0, 63, 0
1, 15114, Note_on_c, 0, 58, 0
1, 15173, Note_on_c, 0, 70, 79
1, 15182, Note_on_c, 0, 63, 65
1, 15188, Note_on_c, 0, 55, 59
1, 15192, Note_on_c, 0, 58, 40
1, 15241, Note_on_c, 0, 55, 0
1, 15244, Note_on_c, 0, 63, 0
1, 15249, Note_on_c, 0, 58, 0
1, 15443, Note_on_c, 0, 63, 57
1, 15460, Note_on_c, 0, 55, 61
1, 15466, Note_on_c, 0, 58, 35
1, 15486, Note_on_c, 0, 63, 0
1, 15504, Note_on_c, 0, 55, 0
1, 15525, Note_on_c, 0, 58, 0
1, 15763, Note_on_c, 0, 46, 57
1, 15809, Control_c, 0, 64, 127
1, 15813, Note_on_c, 0, 46, 0
1, 15947, Note_on_c, 0, 70, 0
1, 16015, Note_on_c, 0, 70, 71
1, 16026, Note_on_c, 0, 63, 50
1, 16032, Note_on_c, 0, 58, 38
1, 16050, Note_on_c, 0, 55, 35
1, 16071, Note_on_c, 0, 63, 0
1, 16087, Note_on_c, 0, 70, 0
1, 16087, Note_on_c, 0, 58, 0
1, 16098, Control_c, 0, 64, 0
1, 16109, Note_on_c, 0, 55, 0
1, 16131, Note_on_c, 0, 70, 89
1, 16138, Note_on_c, 0, 63, 58
1, 16142, Note_on_c, 0, 58, 51
1, 16171, Note_on_c, 0, 55, 45
1, 16185, Note_on_c, 0, 63, 0
1, 16196, Note_on_c, 0, 58, 0
1, 16218, Note_on_c, 0, 70, 0
1, 16218, Note_on_c, 0, 55, 0
1, 16274, Note_on_c, 0, 55, 77
1, 16274, Note_on_c, 0, 72, 87
1, 16287, Note_on_c, 0, 63, 46
1, 16315, Note_on_c, 0, 58, 24
1, 16341, Note_on_c, 0, 63, 0
1, 16344, Note_on_c, 0, 55, 0
1, 16371, Note_on_c, 0, 58, 0
1, 16391, Note_on_c, 0, 70, 76
1, 16405, Note_on_c, 0, 72, 0
1, 16496, Note_on_c, 0, 70, 0
1, 16504, Note_on_c, 0, 68, 82
1, 16513, Note_on_c, 0, 63, 63
1, 16519, Note_on_c, 0, 58, 37
1, 16527, Note_on_c, 0, 55, 55
1, 16558, Note_on_c, 0, 63, 0
1, 16563, Note_on_c, 0, 68, 0
1, 16574, Note_on_c, 0, 55, 0
1, 16578, Note_on_c, 0, 58, 0
1, 16621, Note_on_c, 0, 67, 78
1, 16717, Note_on_c, 0, 67, 0
1, 16766, Note_on_c, 0, 70, 51
1, 16772, Note_on_c, 0, 53, 70
1, 16831, Note_on_c, 0, 53, 0
1, 16925, Note_on_c, 0, 70, 0
1, 16925, Control_c, 0, 64, 127
1, 17042, Note_on_c, 0, 58, 33
1, 17046, Note_on_c, 0, 62, 40
1, 17046, Note_on_c, 0, 56, 32
1, 17098, Note_on_c, 0, 62, 0
1, 17101, Note_on_c, 0, 56, 0
1, 17106, Note_on_c, 0, 58, 0
1, 17165, Note_on_c, 0, 56, 58
1, 17168, Note_on_c, 0, 58, 51
1, 17168, Note_on_c, 0, 62, 59
1, 17213, Control_c, 0, 64, 0
1, 17218, Note_on_c, 0, 62, 0
1, 17218, Note_on_c, 0, 56, 0
1, 17226, Note_on_c, 0, 58, 0
1, 17280, Note_on_c, 0, 68, 63
1, 17287, Note_on_c, 0, 56, 60
1, 17291, Note_on_c, 0, 62, 62
1, 17296, Note_on_c, 0, 58, 37
1, 17349, Note_on_c, 0, 62, 0
1, 17349, Note_on_c, 0, 56, 0
1, 17357, Note_on_c, 0, 58, 0
1, 17553, Note_on_c, 0, 62, 53
1, 17558, Note_on_c, 0, 56, 48
1, 17558, Note_on_c, 0, 58, 41
1, 17597, Note_on_c, 0, 62, 0
1, 17611, Note_on_c, 0, 56, 0
1, 17621, Note_on_c, 0, 58, 0
1, 17822, Note_on_c, 0, 46, 56
1, 17883, Note_on_c, 0, 46, 0
1, 17895, Control_c, 0, 64, 127
1, 18000, Note_on_c, 0, 68, 0
1, 18078, Note_on_c, 0, 68, 68
1, 18078, Note_on_c, 0, 62, 53
1, 18090, Note_on_c, 0, 58, 26
1, 18096, Note_on_c, 0, 56, 28
1, 18123, Note_on_c, 0, 62, 0
1, 18126, Note_on_c, 0, 68, 0
1, 18140, Note_on_c, 0, 58, 0
1, 18148, Note_on_c, 0, 56, 0
1, 18184, Control_c, 0, 64, 0
1, 18191, Note_on_c, 0, 68, 70
1, 18194, Note_on_c, 0, 62, 56
1, 18202, Note_on_c, 0, 58, 50
1, 18210, Note_on_c, 0, 56, 50
1, 18240, Note_on_c, 0, 62, 0
1, 18255, Note_on_c, 0, 56, 0
1, 18255, Note_on_c, 0, 58, 0
1, 18266, Note_on_c, 0, 68, 0
1, 18316, Note_on_c, 0, 70, 65
1, 18324, Note_on_c, 0, 58, 35
1, 18329, Note_on_c, 0, 56, 40
1, 18333, Note_on_c, 0, 62, 51
1, 18379, Note_on_c, 0, 62, 0
1, 18385, Note_on_c, 0, 56, 0
1, 18389, Note_on_c, 0, 58, 0
1, 18389, Note_on_c, 0, 70, 0
1, 18424, Note_on_c, 0, 68, 68
1, 18488, Note_on_c, 0, 68, 0
1, 18560, Note_on_c, 0, 67, 61
1, 18574, Note_on_c, 0, 62, 47
1, 18574, Note_on_c, 0, 56, 39
1, 18580, Note_on_c, 0, 58, 33
1, 18619, Note_on_c, 0, 67, 0
1, 18624, Note_on_c, 0, 62, 0
1, 18631, Note_on_c, 0, 56, 0
1, 18639, Note_on_c, 0, 58, 0
1, 18691, Note_on_c, 0, 65, 44
1, 18745, Note_on_c, 0, 65, 0
1, 18839, Note_on_c, 0, 63, 56
1, 18848, Note_on_c, 0, 51, 41
1, 18887, Note_on_c, 0, 63, 0
1, 18900, Note_on_c, 0, 51, 0
1, 18900, Control_c, 0, 64, 127
1, 19165, Note_on_c, 0, 58, 41
1, 19177, Note_on_c, 0, 55, 43
1, 19223, Note_on_c, 0, 58, 0
1, 19234, Note_on_c, 0, 55, 0
1, 19296, Note_on_c, 0, 58, 41
1, 19308, Note_on_c, 0, 55, 43
1, 19354, Note_on_c, 0, 58, 0
1, 19365, Note_on_c, 0, 55, 0
1, 19407, Control_c, 0, 64, 0
1, 19432, Note_on_c, 0, 58, 41
1, 19444, Note_on_c, 0, 55, 43
1, 19514, Note_on_c, 0, 58, 0
1, 19525, Note_on_c, 0, 55, 0
1, 19691, Note_on_c, 0, 58, 42
1, 19702, Note_on_c, 0, 55, 44
1, 19756, Note_on_c, 0, 58, 0
1, 19767, Note_on_c, 0, 55, 0
1, 19953, Note_on_c, 0, 58, 39
1, 19964, Note_on_c, 0, 55, 45
1, 20149, Control_c, 0, 64, 127
1, 20506, Note_on_c, 0, 55, 0
1, 20530, Note_on_c, 0, 63, 86
1, 20594, Note_on_c, 0, 58, 0
1, 20681, Note_on_c, 0, 63, 0
1, 20907, Note_on_c, 0, 63, 93
1, 21037, Note_on_c, 0, 63, 0
1, 21045, Note_on_c, 0, 72, 92
1, 21048, Control_c, 0, 64, 0
1, 21054, Note_on_c, 0, 56, 50
1, 21266, Note_on_c, 0, 72, 0
1, 21276, Control_c, 0, 64, 127
1, 21358, Note_on_c, 0, 56, 0
1, 21380, Note_on_c, 0, 63, 59
1, 21413, Note_on_c, 0, 60, 31
1, 21425, Note_on_c, 0, 63, 0
1, 21475, Note_on_c, 0, 60, 0
1, 21499, Note_on_c, 0, 63, 58
1, 21508, Note_on_c, 0, 60, 35
1, 21553, Note_on_c, 0, 60, 0
1, 21553, Note_on_c, 0, 63, 0
1, 21611, Control_c, 0, 64, 0
1, 21614, Note_on_c, 0, 72, 96
1, 21623, Note_on_c, 0, 63, 66
1, 21628, Note_on_c, 0, 60, 44
1, 21683, Note_on_c, 0, 60, 0
1, 21683, Note_on_c, 0, 63, 0
1, 21867, Note_on_c, 0, 63, 63
1, 21881, Note_on_c, 0, 60, 55
1, 21910, Note_on_c, 0, 63, 0
1, 21926, Note_on_c, 0, 60, 0
1, 22146, Note_on_c, 0, 56, 56
1, 22316, Note_on_c, 0, 56, 0
1, 22316, Control_c, 0, 64, 127
1, 22411, Note_on_c, 0, 63, 61
1, 22415, Note_on_c, 0, 74, 95
1, 22428, Note_on_c, 0, 60, 45
1, 22452, Note_on_c, 0, 63, 0
1, 22452, Note_on_c, 0, 72, 0
1, 22481, Note_on_c, 0, 60, 0
1, 22516, Note_on_c, 0, 74, 0
1, 22527, Note_on_c, 0, 75, 98
1, 22533, Note_on_c, 0, 60, 85
1, 22533, Note_on_c, 0, 63, 51
1, 22580, Note_on_c, 0, 60, 0
1, 22583, Note_on_c, 0, 63, 0
1, 22583, Control_c, 0, 64, 0
1, 22617, Note_on_c, 0, 75, 0
1, 22652, Note_on_c, 0, 63, 66
1, 22652, Note_on_c, 0, 77, 102
1, 22669, Note_on_c, 0, 60, 50
1, 22717, Note_on_c, 0, 60, 0
1, 22717, Note_on_c, 0, 63, 0
1, 22769, Note_on_c, 0, 75, 98
1, 22790, Note_on_c, 0, 77, 0
1, 22875, Note_on_c, 0, 75, 0
1, 22879, Note_on_c, 0, 74, 98
1, 22887, Note_on_c, 0, 63, 61
1, 22887, Note_on_c, 0, 60, 68
1, 22921, Note_on_c, 0, 74, 0
1, 22929, Note_on_c, 0, 60, 0
1, 22934, Note_on_c, 0, 63, 0
1, 22985, Note_on_c, 0, 72, 99
1, 23051, Note_on_c, 0, 72, 0
1, 23110, Note_on_c, 0, 72, 87
1, 23120, Note_on_c, 0, 51, 44
1, 23229, Control_c, 0, 64, 127
1, 23235, Note_on_c, 0, 72, 0
1, 23304, Note_on_c, 0, 51, 0
1, 23374, Note_on_c, 0, 63, 51
1, 23385, Note_on_c, 0, 58, 37
1, 23385, Note_on_c, 0, 55, 50
1, 23419, Note_on_c, 0, 63, 0
1, 23435, Note_on_c, 0, 55, 0
1, 23441, Note_on_c, 0, 58, 0
1, 23494, Note_on_c, 0, 55, 76
1, 23497, Note_on_c, 0, 58, 53
1, 23503, Note_on_c, 0, 63, 48
1, 23539, Note_on_c, 0, 55, 0
1, 23548, Note_on_c, 0, 63, 0
1, 23548, Note_on_c, 0, 58, 0
1, 23577, Control_c, 0, 64, 0
1, 23611, Note_on_c, 0, 70, 83
1, 23619, Note_on_c, 0, 63, 56
1, 23626, Note_on_c, 0, 58, 35
1, 23633, Note_on_c, 0, 55, 49
1, 23678, Note_on_c, 0, 55, 0
1, 23684, Note_on_c, 0, 58, 0
1, 23684, Note_on_c, 0, 63, 0
1, 23857, Note_on_c, 0, 63, 67
1, 23865, Note_on_c, 0, 55, 58
1, 23875, Note_on_c, 0, 58, 43
1, 23901, Note_on_c, 0, 63, 0
1, 23910, Note_on_c, 0, 55, 0
1, 23921, Note_on_c, 0, 58, 0
1, 24118, Note_on_c, 0, 51, 63
1, 24205, Note_on_c, 0, 51, 0
1, 24211, Control_c, 0, 64, 127
1, 24324, Note_on_c, 0, 70, 0
1, 24377, Note_on_c, 0, 63, 64
1, 24377, Note_on_c, 0, 69, 87
1, 24389, Note_on_c, 0, 58, 47
1, 24392, Note_on_c, 0, 55, 57
1, 24419, Note_on_c, 0, 63, 0
1, 24436, Note_on_c, 0, 55, 0
1, 24439, Note_on_c, 0, 58, 0
1, 24489, Note_on_c, 0, 70, 91
1, 24494, Note_on_c, 0, 55, 73
1, 24499, Note_on_c, 0, 58, 47
1, 24505, Note_on_c, 0, 69, 0
1, 24505, Note_on_c, 0, 63, 58
1, 24544, Note_on_c, 0, 55, 0
1, 24547, Note_on_c, 0, 63, 0
1, 24555, Note_on_c, 0, 58, 0
1, 24559, Control_c, 0, 64, 0
1, 24616, Note_on_c, 0, 70, 0
1, 24616, Note_on_c, 0, 69, 96
1, 24616, Note_on_c, 0, 63, 69
1, 24633, Note_on_c, 0, 55, 59
1, 24637, Note_on_c, 0, 58, 36
1, 24681, Note_on_c, 0, 55, 0
1, 24681, Note_on_c, 0, 63, 0
1, 24692, Note_on_c, 0, 58, 0
1, 24742, Note_on_c, 0, 70, 94
1, 24750, Note_on_c, 0, 69, 0
1, 24868, Note_on_c, 0, 70, 0
1, 24871, Note_on_c, 0, 63, 62
1, 24871, Note_on_c, 0, 74, 91
1, 24895, Note_on_c, 0, 58, 38
1, 24901, Note_on_c, 0, 55, 38
1, 24909, Note_on_c, 0, 63, 0
1, 24948, Note_on_c, 0, 58, 0
1, 24954, Note_on_c, 0, 55, 0
1, 25002, Note_on_c, 0, 72, 81
1, 25006, Note_on_c, 0, 74, 0
1, 25133, Note_on_c, 0, 72, 0
1, 25133, Note_on_c, 0, 70, 77
1, 25140, Note_on_c, 0, 46, 43
1, 25199, Note_on_c, 0, 46, 0
1, 25230, Control_c, 0, 64, 127
1, 25260, Note_on_c, 0, 70, 0
1, 25385, Note_on_c, 0, 58, 45
1, 25385, Note_on_c, 0, 62, 60
1, 25410, Note_on_c, 0, 53, 60
1, 25428, Note_on_c, 0, 62, 0
1, 25441, Note_on_c, 0, 58, 0
1, 25455, Note_on_c, 0, 53, 0
1, 25497, Note_on_c, 0, 62, 60
1, 25497, Note_on_c, 0, 58, 49
1, 25539, Note_on_c, 0, 62, 0
1, 25544, Note_on_c, 0, 53, 46
1, 25552, Note_on_c, 0, 58, 0
1, 25578, Control_c, 0, 64, 0
1, 25587, Note_on_c, 0, 53, 0
1, 25615, Note_on_c, 0, 68, 92
1, 25634, Note_on_c, 0, 62, 48
1, 25640, Note_on_c, 0, 58, 26
1, 25684, Note_on_c, 0, 62, 0
1, 25701, Note_on_c, 0, 58, 0
1, 25871, Note_on_c, 0, 53, 70
1, 25871, Note_on_c, 0, 62, 64
1, 25879, Note_on_c, 0, 58, 49
1, 25917, Note_on_c, 0, 62, 0
1, 25934, Note_on_c, 0, 58, 0
1, 25938, Note_on_c, 0, 53, 0
1, 26152, Note_on_c, 0, 46, 52
1, 26249, Control_c, 0, 64, 127
1, 26254, Note_on_c, 0, 46, 0
1, 26445, Note_on_c, 0, 67, 73
1, 26452, Note_on_c, 0, 68, 0
1, 26452, Note_on_c, 0, 62, 56
1, 26452, Note_on_c, 0, 58, 45
1, 26497, Note_on_c, 0, 62, 0
1, 26508, Note_on_c, 0, 58, 0
1, 26559, Note_on_c, 0, 68, 84
1, 26569, Note_on_c, 0, 58, 45
1, 26573, Note_on_c, 0, 62, 52
1, 26581, Note_on_c, 0, 67, 0
1, 26584, Control_c, 0, 64, 0
1, 26601, Note_on_c, 0, 53, 38
1, 26625, Note_on_c, 0, 62, 0
1, 26630, Note_on_c, 0, 58, 0
1, 26659, Note_on_c, 0, 53, 0
1, 26683, Note_on_c, 0, 68, 0
1, 26692, Note_on_c, 0, 67, 95
1, 26700, Note_on_c, 0, 62, 64
1, 26704, Note_on_c, 0, 58, 36
1, 26704, Note_on_c, 0, 53, 64
1, 26756, Note_on_c, 0, 53, 0
1, 26756, Note_on_c, 0, 62, 0
1, 26768, Note_on_c, 0, 58, 0
1, 26801, Note_on_c, 0, 67, 0
1, 26817, Note_on_c, 0, 68, 87
1, 26926, Note_on_c, 0, 68, 0
1, 26952, Note_on_c, 0, 72, 67
1, 26955, Note_on_c, 0, 62, 47
1, 26960, Note_on_c, 0, 53, 67
1, 26973, Note_on_c, 0, 58, 28
1, 27005, Note_on_c, 0, 53, 0
1, 27008, Note_on_c, 0, 62, 0
1, 27024, Note_on_c, 0, 72, 0
1, 27037, Note_on_c, 0, 58, 0
1, 27068, Note_on_c, 0, 70, 62
1, 27151, Note_on_c, 0, 70, 0
1, 27190, Note_on_c, 0, 63, 91
1, 27218, Note_on_c, 0, 51, 44
1, 27364, Control_c, 0, 64, 127
1, 27466, Note_on_c, 0, 58, 44
1, 27473, Note_on_c, 0, 51, 0
1, 27480, Note_on_c, 0, 55, 25
1, 27520, Note_on_c, 0, 58, 0
1, 27526, Note_on_c, 0, 55, 0
1, 27584, Note_on_c, 0, 58, 40
1, 27594, Note_on_c, 0, 55, 25
1, 27628, Control_c, 0, 64, 0
1, 27640, Note_on_c, 0, 55, 0
1, 27640, Note_on_c, 0, 58, 0
1, 27701, Note_on_c, 0, 58, 62
1, 27717, Note_on_c, 0, 55, 66
1, 27754, Note_on_c, 0, 58, 0
1, 27757, Note_on_c, 0, 55, 0
1, 27965, Note_on_c, 0, 58, 46
1, 27980, Note_on_c, 0, 55, 53
1, 28026, Note_on_c, 0, 55, 0
1, 28026, Note_on_c, 0, 58, 0
1, 28243, Note_on_c, 0, 51, 62
1, 28335, Control_c, 0, 64, 127
1, 28372, Note_on_c, 0, 51, 0
1, 28500, Note_on_c, 0, 58, 47
1, 28525, Note_on_c, 0, 55, 48
1, 28547, Note_on_c, 0, 63, 0
1, 28556, Note_on_c, 0, 58, 0
1, 28572, Note_on_c, 0, 55, 0
1, 28619, Note_on_c, 0, 58, 53
1, 28628, Note_on_c, 0, 55, 74
1, 28676, Note_on_c, 0, 55, 0
1, 28689, Note_on_c, 0, 58, 0
1, 28739, Note_on_c, 0, 63, 83
1, 28742, Control_c, 0, 64, 0
1, 28754, Note_on_c, 0, 58, 48
1, 28754, Note_on_c, 0, 55, 25
1, 28801, Note_on_c, 0, 55, 0
1, 28837, Note_on_c, 0, 58, 0
1, 28982, Control_c, 0, 64, 127
1, 29052, Note_on_c, 0, 58, 34
1, 29052, Note_on_c, 0, 55, 25
1, 29062, Note_on_c, 0, 63, 0
1, 29101, Note_on_c, 0, 55, 0
1, 29111, Note_on_c, 0, 58, 0
1, 29207, Note_on_c, 0, 63, 60
1, 29317, Control_c, 0, 64, 0
1, 29321, Note_on_c, 0, 63, 0
1, 29358, Note_on_c, 0, 72, 61
1, 29374, Note_on_c, 0, 56, 39
1, 29470, Note_on_c, 0, 56, 0
1, 29569, Control_c, 0, 64, 127
1, 29598, Note_on_c, 0, 72, 0
1, 29648, Note_on_c, 0, 63, 54
1, 29681, Note_on_c, 0, 60, 37
1, 29692, Note_on_c, 0, 63, 0
1, 29765, Note_on_c, 0, 63, 49
1, 29832, Note_on_c, 0, 63, 0
1, 29845, Note_on_c, 0, 60, 0
1, 29893, Control_c, 0, 64, 0
1, 29893, Note_on_c, 0, 72, 77
1, 29907, Note_on_c, 0, 63, 68
1, 29907, Note_on_c, 0, 60, 61
1, 29955, Note_on_c, 0, 60, 0
1, 29955, Note_on_c, 0, 63, 0
1, 30150, Note_on_c, 0, 63, 62
1, 30160, Note_on_c, 0, 60, 63
1, 30197, Note_on_c, 0, 63, 0
1, 30203, Note_on_c, 0, 60, 0
1, 30409, Note_on_c, 0, 56, 62
1, 30508, Note_on_c, 0, 56, 0
1, 30540, Control_c, 0, 64, 127
1, 30673, Note_on_c, 0, 63, 66
1, 30676, Note_on_c, 0, 60, 64
1, 30679, Note_on_c, 0, 74, 93
1, 30703, Note_on_c, 0, 72, 0
1, 30712, Note_on_c, 0, 63, 0
1, 30721, Note_on_c, 0, 60, 0
1, 30749, Note_on_c, 0, 74, 0
1, 30784, Note_on_c, 0, 75, 95
1, 30792, Control_c, 0, 64, 0
1, 30792, Note_on_c, 0, 60, 52
1, 30798, Note_on_c, 0, 63, 56
1, 30840, Note_on_c, 0, 63, 0
1, 30846, Note_on_c, 0, 60, 0
1, 30854, Note_on_c, 0, 75, 0
1, 30907, Note_on_c, 0, 77, 98
1, 30910, Note_on_c, 0, 63, 58
1, 30915, Note_on_c, 0, 60, 60
1, 30968, Note_on_c, 0, 60, 0
1, 30968, Note_on_c, 0, 63, 0
1, 31026, Note_on_c, 0, 75, 90
1, 31063, Note_on_c, 0, 77, 0
1, 31157, Note_on_c, 0, 74, 81
1, 31166, Note_on_c, 0, 75, 0
1, 31166, Note_on_c, 0, 63, 53
1, 31177, Note_on_c, 0, 60, 48
1, 31210, Note_on_c, 0, 63, 0
1, 31228, Note_on_c, 0, 60, 0
1, 31247, Note_on_c, 0, 74, 0
1, 31247, Control_c, 0, 64, 127
1, 31264, Note_on_c, 0, 72, 80
1, 31300, Note_on_c, 0, 72, 0
1, 31319, Control_c, 0, 64, 0
1, 31381, Note_on_c, 0, 72, 53
1, 31385, Note_on_c, 0, 51, 49
1, 31481, Note_on_c, 0, 51, 0
1, 31511, Control_c, 0, 64, 127
1, 31567, Note_on_c, 0, 72, 0
1, 31650, Note_on_c, 0, 63, 47
1, 31656, Note_on_c, 0, 55, 54
1, 31661, Note_on_c, 0, 58, 30
1, 31696, Note_on_c, 0, 63, 0
1, 31703, Note_on_c, 0, 55, 0
1, 31729, Note_on_c, 0, 58, 0
1, 31771, Note_on_c, 0, 63, 53
1, 31771, Note_on_c, 0, 55, 53
1, 31802, Note_on_c, 0, 58, 44
1, 31818, Note_on_c, 0, 63, 0
1, 31824, Note_on_c, 0, 55, 0
1, 31862, Note_on_c, 0, 58, 0
1, 31874, Note_on_c, 0, 70, 65
1, 31882, Control_c, 0, 64, 0
1, 31898, Note_on_c, 0, 63, 51
1, 31898, Note_on_c, 0, 55, 53
1, 31943, Note_on_c, 0, 58, 30
1, 31949, Note_on_c, 0, 55, 0
1, 31949, Note_on_c, 0, 63, 0
1, 31993, Note_on_c, 0, 58, 0
1, 32124, Note_on_c, 0, 63, 58
1, 32132, Note_on_c, 0, 58, 43
1, 32138, Note_on_c, 0, 55, 50
1, 32174, Note_on_c, 0, 63, 0
1, 32186, Note_on_c, 0, 55, 0
1, 32186, Note_on_c, 0, 58, 0
1, 32366, Note_on_c, 0, 51, 53
1, 32373, Control_c, 0, 64, 127
1, 32487, Note_on_c, 0, 51, 0
1, 32597, Note_on_c, 0, 70, 0
1, 32628, Note_on_c, 0, 69, 64
1, 32632, Note_on_c, 0, 63, 50
1, 32642, Note_on_c, 0, 55, 53
1, 32642, Note_on_c, 0, 58, 33
1, 32681, Note_on_c, 0, 63, 0
1, 32693, Note_on_c, 0, 55, 0
1, 32706, Note_on_c, 0, 58, 0
1, 32746, Note_on_c, 0, 70, 80
1, 32760, Note_on_c, 0, 58, 53
1, 32763, Note_on_c, 0, 55, 53
1, 32763, Note_on_c, 0, 63, 55
1, 32770, Note_on_c, 0, 69, 0
1, 32781, Control_c, 0, 64, 0
1, 32812, Note_on_c, 0, 63, 0
1, 32816, Note_on_c, 0, 55, 0
1, 32826, Note_on_c, 0, 58, 0
1, 32859, Note_on_c, 0, 70, 0
1, 32879, Note_on_c, 0, 69, 84
1, 32887, Note_on_c, 0, 63, 57
1, 32896, Note_on_c, 0, 58, 40
1, 32896, Note_on_c, 0, 55, 48
1, 32941, Note_on_c, 0, 63, 0
1, 32951, Note_on_c, 0, 55, 0
1, 32960, Note_on_c, 0, 58, 0
1, 32990, Note_on_c, 0, 69, 0
1, 32993, Note_on_c, 0, 70, 73
1, 33108, Note_on_c, 0, 70, 0
1, 33124, Note_on_c, 0, 63, 54
1, 33132, Note_on_c, 0, 74, 57
1, 33146, Note_on_c, 0, 55, 41
1, 33146, Note_on_c, 0, 58, 32
1, 33167, Note_on_c, 0, 63, 0
1, 33197, Note_on_c, 0, 55, 0
1, 33205, Note_on_c, 0, 58, 0
1, 33224, Note_on_c, 0, 74, 0
1, 33252, Note_on_c, 0, 72, 52
1, 33333, Note_on_c, 0, 72, 0
1, 33380, Note_on_c, 0, 46, 41
1, 33391, Note_on_c, 0, 70, 53
1, 33464, Control_c, 0, 64, 127
1, 33498, Note_on_c, 0, 46, 0
1, 33620, Note_on_c, 0, 70, 0
1, 33696, Note_on_c, 0, 62, 47
1, 33699, Note_on_c, 0, 58, 33
1, 33720, Note_on_c, 0, 53, 40
1, 33746, Note_on_c, 0, 62, 0
1, 33763, Note_on_c, 0, 58, 0
1, 33774, Note_on_c, 0, 53, 0
1, 33816, Note_on_c, 0, 62, 53
1, 33832, Note_on_c, 0, 58, 51
1, 33832, Note_on_c, 0, 53, 57
1, 33865, Note_on_c, 0, 62, 0
1, 33882, Note_on_c, 0, 58, 0
1, 33890, Note_on_c, 0, 53, 0
1, 33907, Control_c, 0, 64, 0
1, 33924, Note_on_c, 0, 68, 64
1, 33944, Note_on_c, 0, 58, 45
1, 33951, Note_on_c, 0, 62, 46
1, 33957, Note_on_c, 0, 53, 49
1, 34002, Note_on_c, 0, 62, 0
1, 34008, Note_on_c, 0, 53, 0
1, 34015, Note_on_c, 0, 58, 0
1, 34185, Note_on_c, 0, 62, 53
1, 34185, Note_on_c, 0, 58, 44
1, 34197, Note_on_c, 0, 53, 58
1, 34233, Note_on_c, 0, 62, 0
1, 34249, Note_on_c, 0, 53, 0
1, 34283, Note_on_c, 0, 58, 0
1, 34447, Note_on_c, 0, 46, 58
1, 34470, Control_c, 0, 64, 127
1, 34503, Note_on_c, 0, 46, 0
1, 34701, Note_on_c, 0, 53, 53
1, 34701, Note_on_c, 0, 58, 49
1, 34709, Note_on_c, 0, 68, 0
1, 34712, Note_on_c, 0, 62, 49
1, 34715, Note_on_c, 0, 67, 72
1, 34746, Note_on_c, 0, 53, 0
1, 34752, Note_on_c, 0, 58, 0
1, 34760, Note_on_c, 0, 62, 0
1, 34815, Note_on_c, 0, 58, 44
1, 34815, Control_c, 0, 64, 0
1, 34824, Note_on_c, 0, 62, 61
1, 34824, Note_on_c, 0, 68, 78
1, 34835, Note_on_c, 0, 53, 53
1, 34840, Note_on_c, 0, 67, 0
1, 34871, Note_on_c, 0, 62, 0
1, 34880, Note_on_c, 0, 53, 0
1, 34885, Note_on_c, 0, 58, 0
1, 34960, Note_on_c, 0, 68, 0
1, 34960, Note_on_c, 0, 67, 76
1, 34963, Note_on_c, 0, 53, 73
1, 34966, Note_on_c, 0, 58, 41
1, 34985, Note_on_c, 0, 62, 43
1, 35011, Note_on_c, 0, 53, 0
1, 35035, Note_on_c, 0, 62, 0
1, 35035, Note_on_c, 0, 58, 0
1, 35055, Note_on_c, 0, 67, 0
1, 35082, Note_on_c, 0, 68, 77
1, 35158, Note_on_c, 0, 68, 0
1, 35214, Note_on_c, 0, 72, 57
1, 35227, Note_on_c, 0, 53, 67
1, 35227, Note_on_c, 0, 62, 43
1, 35236, Note_on_c, 0, 58, 33
1, 35275, Note_on_c, 0, 53, 0
1, 35284, Note_on_c, 0, 62, 0
1, 35300, Note_on_c, 0, 58, 0
1, 35312, Note_on_c, 0, 72, 0
1, 35356, Note_on_c, 0, 70, 48
1, 35498, Note_on_c, 0, 70, 0
1, 35534, Note_on_c, 0, 63, 64
1, 35551, Note_on_c, 0, 51, 51
1, 35693, Control_c, 0, 64, 127
1, 35723, Note_on_c, 0, 51, 0
1, 35824, Note_on_c, 0, 55, 40
1, 35824, Note_on_c, 0, 58, 26
1, 35874, Note_on_c, 0, 58, 0
1, 35879, Note_on_c, 0, 55, 0
1, 35910, Control_c, 0, 64, 0
1, 35933, Note_on_c, 0, 58, 62
1, 35941, Note_on_c, 0, 55, 40
1, 35983, Note_on_c, 0, 58, 0
1, 35996, Note_on_c, 0, 55, 0
1, 36058, Note_on_c, 0, 58, 39
1, 36058, Note_on_c, 0, 55, 73
1, 36119, Note_on_c, 0, 58, 0
1, 36125, Note_on_c, 0, 55, 0
1, 36320, Note_on_c, 0, 58, 42
1, 36345, Note_on_c, 0, 55, 46
1, 36381, Note_on_c, 0, 58, 0
1, 36394, Note_on_c, 0, 55, 0
1, 36615, Note_on_c, 0, 51, 38
1, 36712, Note_on_c, 0, 51, 0
1, 36735, Control_c, 0, 64, 127
1, 36933, Note_on_c, 0, 58, 28
1, 36933, Note_on_c, 0, 55, 39
1, 37024, Note_on_c, 0, 63, 0
1, 37077, Note_on_c, 0, 55, 0
1, 37088, Note_on_c, 0, 58, 0
1, 37451, Note_on_c, 0, 75, 73
1, 37551, Control_c, 0, 64, 0
1, 37670, Note_on_c, 0, 75, 0
1, 37670, Note_on_c, 0, 72, 76
1, 37677, Note_on_c, 0, 56, 43
1, 37718, Note_on_c, 0, 72, 0
1, 37729, Note_on_c, 0, 56, 0
1, 37860, Note_on_c, 0, 75, 77
1, 37876, Note_on_c, 0, 63, 37
1, 37883, Note_on_c, 0, 60, 44
1, 37939, Note_on_c, 0, 63, 0
1, 37946, Note_on_c, 0, 60, 0
1, 38022, Note_on_c, 0, 75, 0
1, 38049, Note_on_c, 0, 72, 73
1, 38049, Note_on_c, 0, 56, 53
1, 38086, Note_on_c, 0, 72, 0
1, 38092, Note_on_c, 0, 56, 0
1, 38219, Note_on_c, 0, 75, 82
1, 38234, Note_on_c, 0, 63, 64
1, 38245, Note_on_c, 0, 60, 54
1, 38278, Note_on_c, 0, 63, 0
1, 38314, Note_on_c, 0, 60, 0
1, 38392, Note_on_c, 0, 75, 0
1, 38401, Note_on_c, 0, 72, 89
1, 38404, Note_on_c, 0, 56, 58
1, 38437, Note_on_c, 0, 72, 0
1, 38448, Note_on_c, 0, 56, 0
1, 38567, Note_on_c, 0, 75, 89
1, 38588, Note_on_c, 0, 63, 56
1, 38606, Note_on_c, 0, 75, 0
1, 38606, Note_on_c, 0, 60, 44
1, 38629, Note_on_c, 0, 63, 0
1, 38662, Note_on_c, 0, 60, 0
1, 38754, Note_on_c, 0, 77, 98
1, 38754, Note_on_c, 0, 56, 66
1, 38804, Note_on_c, 0, 56, 0
1, 38833, Note_on_c, 0, 75, 83
1, 38847, Note_on_c, 0, 77, 0
1, 38916, Note_on_c, 0, 63, 55
1, 38929, Note_on_c, 0, 60, 46
1, 38932, Note_on_c, 0, 74, 86
1, 38946, Note_on_c, 0, 75, 0
1, 38961, Note_on_c, 0, 63, 0
1, 38986, Note_on_c, 0, 60, 0
1, 38996, Note_on_c, 0, 74, 0
1, 39013, Note_on_c, 0, 72, 68
1, 39050, Note_on_c, 0, 72, 0
1, 39094, Note_on_c, 0, 72, 95
1, 39094, Note_on_c, 0, 51, 74
1, 39192, Note_on_c, 0, 70, 83
1, 39209, Note_on_c, 0, 72, 0
1, 39220, Note_on_c, 0, 51, 0
1, 39247, Note_on_c, 0, 70, 0
1, 39278, Note_on_c, 0, 63, 51
1, 39281, Note_on_c, 0, 55, 51
1, 39281, Note_on_c, 0, 58, 39
1, 39292, Note_on_c, 0, 70, 80
1, 39323, Note_on_c, 0, 63, 0
1, 39326, Note_on_c, 0, 55, 0
1, 39326, Note_on_c, 0, 70, 0
1, 39337, Note_on_c, 0, 58, 0
1, 39364, Note_on_c, 0, 70, 84
1, 39434, Note_on_c, 0, 70, 0
1, 39465, Note_on_c, 0, 51, 74
1, 39468, Note_on_c, 0, 72, 87
1, 39531, Note_on_c, 0, 70, 86
1, 39557, Note_on_c, 0, 72, 0
1, 39592, Note_on_c, 0, 51, 0
1, 39602, Note_on_c, 0, 70, 0
1, 39637, Note_on_c, 0, 58, 39
1, 39640, Note_on_c, 0, 70, 63
1, 39643, Note_on_c, 0, 55, 51
1, 39643, Note_on_c, 0, 63, 45
1, 39676, Note_on_c, 0, 70, 0
1, 39690, Note_on_c, 0, 55, 0
1, 39693, Note_on_c, 0, 58, 0
1, 39693, Note_on_c, 0, 63, 0
1, 39713, Note_on_c, 0, 70, 84
1, 39752, Note_on_c, 0, 70, 0
1, 39813, Note_on_c, 0, 72, 90
1, 39813, Note_on_c, 0, 51, 68
1, 39879, Note_on_c, 0, 72, 0
1, 39885, Note_on_c, 0, 70, 77
1, 39914, Note_on_c, 0, 51, 0
1, 39922, Note_on_c, 0, 70, 0
1, 39969, Note_on_c, 0, 70, 73
1, 39985, Note_on_c, 0, 63, 55
1, 40002, Note_on_c, 0, 55, 49
1, 40005, Note_on_c, 0, 58, 39
1, 40013, Note_on_c, 0, 70, 0
1, 40030, Note_on_c, 0, 63, 0
1, 40052, Note_on_c, 0, 55, 0
1, 40056, Note_on_c, 0, 70, 83
1, 40061, Note_on_c, 0, 58, 0
1, 40103, Note_on_c, 0, 70, 0
1, 40162, Note_on_c, 0, 51, 65
1, 40162, Note_on_c, 0, 72, 90
1, 40222, Note_on_c, 0, 51, 0
1, 40234, Note_on_c, 0, 70, 77
1, 40264, Note_on_c, 0, 72, 0
1, 40319, Note_on_c, 0, 68, 75
1, 40319, Note_on_c, 0, 63, 58
1, 40337, Note_on_c, 0, 70, 0
1, 40342, Note_on_c, 0, 55, 53
1, 40348, Note_on_c, 0, 58, 39
1, 40362, Note_on_c, 0, 63, 0
1, 40378, Note_on_c, 0, 68, 0
1, 40387, Note_on_c, 0, 55, 0
1, 40398, Note_on_c, 0, 67, 91
1, 40404, Note_on_c, 0, 58, 0
1, 40437, Note_on_c, 0, 67, 0
1, 40504, Note_on_c, 0, 70, 85
1, 40504, Note_on_c, 0, 46, 88
1, 40543, Note_on_c, 0, 46, 0
1, 40571, Control_c, 0, 64, 127
1, 40588, Note_on_c, 0, 70, 0
1, 40602, Note_on_c, 0, 68, 58
1, 40649, Note_on_c, 0, 68, 0
1, 40654, Control_c, 0, 64, 0
1, 40687, Note_on_c, 0, 68, 53
1, 40694, Note_on_c, 0, 62, 66
1, 40698, Note_on_c, 0, 58, 54
1, 40713, Note_on_c, 0, 53, 76
1, 40726, Note_on_c, 0, 68, 0
1, 40732, Note_on_c, 0, 62, 0
1, 40743, Note_on_c, 0, 58, 0
1, 40757, Note_on_c, 0, 53, 0
1, 40766, Note_on_c, 0, 68, 86
1, 40805, Note_on_c, 0, 68, 0
1, 40864, Note_on_c, 0, 70, 80
1, 40867, Note_on_c, 0, 46, 80
1, 40907, Note_on_c, 0, 46, 0
1, 40918, Control_c, 0, 64, 127
1, 40941, Note_on_c, 0, 68, 87
1, 40957, Note_on_c, 0, 70, 0
1, 40974, Note_on_c, 0, 68, 0
1, 40989, Control_c, 0, 64, 0
1, 41025, Note_on_c, 0, 68, 73
1, 41052, Note_on_c, 0, 58, 53
1, 41052, Note_on_c, 0, 62, 61
1, 41063, Note_on_c, 0, 53, 82
1, 41074, Note_on_c, 0, 68, 0
1, 41095, Note_on_c, 0, 62, 0
1, 41098, Note_on_c, 0, 58, 0
1, 41106, Note_on_c, 0, 53, 0
1, 41122, Note_on_c, 0, 68, 78
1, 41159, Note_on_c, 0, 68, 0
1, 41217, Note_on_c, 0, 46, 79
1, 41217, Note_on_c, 0, 70, 79
1, 41256, Note_on_c, 0, 46, 0
1, 41278, Control_c, 0, 64, 127
1, 41300, Note_on_c, 0, 68, 82
1, 41323, Note_on_c, 0, 70, 0
1, 41326, Control_c, 0, 64, 0
1, 41331, Note_on_c, 0, 68, 0
1, 41381, Note_on_c, 0, 68, 69
1, 41398, Note_on_c, 0, 58, 55
1, 41401, Note_on_c, 0, 62, 61
1, 41407, Note_on_c, 0, 53, 90
1, 41432, Note_on_c, 0, 68, 0
1, 41443, Note_on_c, 0, 58, 0
1, 41443, Note_on_c, 0, 62, 0
1, 41449, Note_on_c, 0, 53, 0
1, 41492, Note_on_c, 0, 68, 48
1, 41551, Note_on_c, 0, 68, 0
1, 41565, Note_on_c, 0, 70, 73
1, 41565, Note_on_c, 0, 46, 79
1, 41601, Note_on_c, 0, 46, 0
1, 41629, Note_on_c, 0, 68, 74
1, 41673, Note_on_c, 0, 70, 0
1, 41727, Note_on_c, 0, 68, 0
1, 41727, Note_on_c, 0, 67, 93
1, 41735, Note_on_c, 0, 53, 96
1, 41738, Note_on_c, 0, 62, 49
1, 41738, Note_on_c, 0, 58, 48
1, 41780, Note_on_c, 0, 53, 0
1, 41788, Note_on_c, 0, 62, 0
1, 41794, Note_on_c, 0, 58, 0
1, 41797, Note_on_c, 0, 67, 0
1, 41824, Note_on_c, 0, 65, 54
1, 41872, Note_on_c, 0, 65, 0
1, 41880, Note_on_c, 0, 63, 99
1, 41889, Note_on_c, 0, 51, 68
1, 41917, Note_on_c, 0, 63, 0
1, 41972, Note_on_c, 0, 63, 96
1, 42053, Note_on_c, 0, 58, 56
1, 42053, Note_on_c, 0, 55, 69
1, 42058, Note_on_c, 0, 63, 0
1, 42066, Note_on_c, 0, 65, 98
1, 42092, Control_c, 0, 64, 127
1, 42111, Note_on_c, 0, 65, 0
1, 42111, Note_on_c, 0, 58, 0
1, 42127, Note_on_c, 0, 55, 0
1, 42145, Note_on_c, 0, 67, 100
1, 42153, Note_on_c, 0, 51, 0
1, 42226, Note_on_c, 0, 68, 99
1, 42247, Note_on_c, 0, 67, 0
1, 42272, Control_c, 0, 64, 0
1, 42312, Note_on_c, 0, 70, 92
1, 42350, Note_on_c, 0, 68, 0
1, 42392, Note_on_c, 0, 72, 106
1, 42398, Note_on_c, 0, 70, 0
1, 42474, Note_on_c, 0, 74, 112
1, 42481, Note_on_c, 0, 72, 0
1, 42557, Note_on_c, 0, 74, 0
1, 42566, Note_on_c, 0, 75, 110
1, 42657, Control_c, 0, 64, 127
1, 42680, Control_c, 0, 64, 0
1, 42747, Note_on_c, 0, 58, 77
1, 42747, Note_on_c, 0, 51, 84
1, 42755, Note_on_c, 0, 55, 78
1, 42790, Note_on_c, 0, 55, 0
1, 42811, Note_on_c, 0, 58, 0
1, 42818, Note_on_c, 0, 51, 0
1, 42825, Note_on_c, 0, 75, 0
1, 42925, Note_on_c, 0, 63, 98
1, 42930, Note_on_c, 0, 55, 83
1, 42936, Note_on_c, 0, 58, 59
1, 42983, Note_on_c, 0, 58, 0
1, 42983, Note_on_c, 0, 63, 0
1, 42992, Note_on_c, 0, 55, 0
1, 43095, Note_on_c, 0, 75, 101
1, 43109, Note_on_c, 0, 58, 70
1, 43116, Note_on_c, 0, 51, 85
1, 43116, Note_on_c, 0, 55, 79
1, 43150, Note_on_c, 0, 55, 0
1, 43153, Note_on_c, 0, 51, 0
1, 43165, Note_on_c, 0, 58, 0
1, 43289, Note_on_c, 0, 72, 104
1, 43295, Note_on_c, 0, 75, 0
1, 43298, Note_on_c, 0, 56, 74
1, 43337, Note_on_c, 0, 56, 0
1, 43367, Note_on_c, 0, 72, 0
1, 43457, Note_on_c, 0, 75, 105
1, 43463, Note_on_c, 0, 63, 69
1, 43476, Note_on_c, 0, 60, 69
1, 43516, Note_on_c, 0, 63, 0
1, 43523, Note_on_c, 0, 60, 0
1, 43635, Note_on_c, 0, 75, 0
1, 43649, Note_on_c, 0, 56, 76
1, 43652, Note_on_c, 0, 72, 90
1, 43683, Note_on_c, 0, 56, 0
1, 43687, Note_on_c, 0, 72, 0
1, 43824, Note_on_c, 0, 75, 88
1, 43841, Note_on_c, 0, 63, 51
1, 43848, Note_on_c, 0, 60, 61
1, 43888, Note_on_c, 0, 63, 0
1, 43894, Note_on_c, 0, 60, 0
1, 43975, Note_on_c, 0, 75, 0
1, 44013, Note_on_c, 0, 72, 83
1, 44022, Note_on_c, 0, 56, 62
1, 44050, Note_on_c, 0, 72, 0
1, 44063, Note_on_c, 0, 56, 0
1, 44180, Note_on_c, 0, 75, 84
1, 44197, Note_on_c, 0, 63, 53
1, 44204, Note_on_c, 0, 60, 51
1, 44209, Note_on_c, 0, 75, 0
1, 44240, Note_on_c, 0, 63, 0
1, 44257, Note_on_c, 0, 60, 0
1, 44367, Note_on_c, 0, 77, 102
1, 44367, Note_on_c, 0, 56, 63
1, 44412, Note_on_c, 0, 56, 0
1, 44445, Note_on_c, 0, 77, 0
1, 44445, Note_on_c, 0, 75, 91
1, 44532, Note_on_c, 0, 75, 0
1, 44532, Note_on_c, 0, 63, 56
1, 44532, Note_on_c, 0, 74, 94
1, 44555, Note_on_c, 0, 60, 38
1, 44577, Note_on_c, 0, 63, 0
1, 44590, Note_on_c, 0, 74, 0
1, 44608, Note_on_c, 0, 60, 0
1, 44623, Note_on_c, 0, 72, 50
1, 44719, Note_on_c, 0, 51, 39
1, 44765, Control_c, 0, 64, 127
1, 44775, Note_on_c, 0, 51, 0
1, 44783, Note_on_c, 0, 70, 78
1, 44786, Note_on_c, 0, 72, 0
1, 44814, Control_c, 0, 64, 0
1, 44842, Note_on_c, 0, 70, 0
1, 44872, Note_on_c, 0, 58, 33
1, 44872, Note_on_c, 0, 55, 52
1, 44872, Note_on_c, 0, 63, 47
1, 44877, Note_on_c, 0, 70, 81
1, 44914, Note_on_c, 0, 70, 0
1, 44920, Note_on_c, 0, 63, 0
1, 44920, Note_on_c, 0, 55, 0
1, 44933, Note_on_c, 0, 58, 0
1, 44963, Note_on_c, 0, 70, 80
1, 45008, Note_on_c, 0, 70, 0
1, 45056, Note_on_c, 0, 51, 61
1, 45069, Note_on_c, 0, 72, 93
1, 45112, Note_on_c, 0, 51, 0
1, 45144, Note_on_c, 0, 72, 0
1, 45148, Note_on_c, 0, 70, 83
1, 45211, Note_on_c, 0, 70, 0
1, 45250, Note_on_c, 0, 63, 49
1, 45250, Note_on_c, 0, 70, 82
1, 45261, Note_on_c, 0, 55, 52
1, 45265, Note_on_c, 0, 58, 33
1, 45281, Note_on_c, 0, 70, 0
1, 45295, Note_on_c, 0, 63, 0
1, 45310, Note_on_c, 0, 55, 0
1, 45326, Note_on_c, 0, 58, 0
1, 45326, Note_on_c, 0, 70, 73
1, 45381, Note_on_c, 0, 70, 0
1, 45426, Note_on_c, 0, 72, 98
1, 45431, Note_on_c, 0, 51, 68
1, 45485, Control_c, 0, 64, 127
1, 45491, Note_on_c, 0, 51, 0
1, 45504, Note_on_c, 0, 70, 91
1, 45516, Note_on_c, 0, 72, 0
1, 45557, Note_on_c, 0, 70, 0
1, 45557, Control_c, 0, 64, 0
1, 45601, Note_on_c, 0, 63, 62
1, 45601, Note_on_c, 0, 70, 85
1, 45619, Note_on_c, 0, 55, 53
1, 45627, Note_on_c, 0, 58, 33
1, 45643, Note_on_c, 0, 70, 0
1, 45643, Note_on_c, 0, 63, 0
1, 45668, Note_on_c, 0, 55, 0
1, 45685, Note_on_c, 0, 70, 78
1, 45690, Note_on_c, 0, 58, 0
1, 45721, Note_on_c, 0, 70, 0
1, 45774, Note_on_c, 0, 72, 98
1, 45794, Note_on_c, 0, 51, 66
1, 45841, Note_on_c, 0, 51, 0
1, 45858, Note_on_c, 0, 70, 80
1, 45867, Note_on_c, 0, 72, 0
1, 45939, Note_on_c, 0, 70, 0
1, 45942, Note_on_c, 0, 68, 85
1, 45942, Note_on_c, 0, 63, 52
1, 45956, Note_on_c, 0, 55, 58
1, 45956, Note_on_c, 0, 58, 42
1, 45986, Note_on_c, 0, 63, 0
1, 45998, Note_on_c, 0, 55, 0
1, 46008, Note_on_c, 0, 58, 0
1, 46020, Note_on_c, 0, 67, 77
1, 46031, Note_on_c, 0, 68, 0
1, 46066, Note_on_c, 0, 67, 0
1, 46111, Note_on_c, 0, 46, 84
1, 46114, Note_on_c, 0, 70, 85
1, 46147, Note_on_c, 0, 46, 0
1, 46179, Control_c, 0, 64, 127
1, 46184, Note_on_c, 0, 70, 0
1, 46200, Note_on_c, 0, 68, 72
1, 46234, Note_on_c, 0, 68, 0
1, 46251, Control_c, 0, 64, 0
1, 46275, Note_on_c, 0, 68, 87
1, 46303, Note_on_c, 0, 62, 61
1, 46309, Note_on_c, 0, 58, 51
1, 46315, Note_on_c, 0, 53, 80
1, 46320, Note_on_c, 0, 68, 0
1, 46342, Note_on_c, 0, 62, 0
1, 46356, Note_on_c, 0, 58, 0
1, 46356, Note_on_c, 0, 53, 0
1, 46368, Note_on_c, 0, 68, 79
1, 46415, Note_on_c, 0, 68, 0
1, 46473, Note_on_c, 0, 46, 83
1, 46476, Note_on_c, 0, 70, 77
1, 46510, Note_on_c, 0, 46, 0
1, 46540, Control_c, 0, 64, 127
1, 46557, Note_on_c, 0, 70, 0
1, 46557, Note_on_c, 0, 68, 80
1, 46591, Note_on_c, 0, 68, 0
1, 46622, Control_c, 0, 64, 0
1, 46637, Note_on_c, 0, 68, 80
1, 46654, Note_on_c, 0, 62, 65
1, 46654, Note_on_c, 0, 58, 59
1, 46665, Note_on_c, 0, 53, 85
1, 46683, Note_on_c, 0, 68, 0
1, 46693, Note_on_c, 0, 62, 0
1, 46699, Note_on_c, 0, 58, 0
1, 46716, Note_on_c, 0, 53, 0
1, 46733, Note_on_c, 0, 68, 73
1, 46777, Note_on_c, 0, 68, 0
1, 46817, Note_on_c, 0, 46, 98
1, 46824, Note_on_c, 0, 70, 82
1, 46856, Note_on_c, 0, 46, 0
1, 46875, Control_c, 0, 64, 127
1, 46899, Note_on_c, 0, 68, 84
1, 46927, Note_on_c, 0, 70, 0
1, 46936, Note_on_c, 0, 68, 0
1, 46981, Note_on_c, 0, 68, 80
1, 46995, Note_on_c, 0, 58, 62
1, 46998, Note_on_c, 0, 62, 61
1, 47002, Note_on_c, 0, 53, 99
1, 47006, Control_c, 0, 64, 0
1, 47026, Note_on_c, 0, 68, 0
1, 47041, Note_on_c, 0, 58, 0
1, 47041, Note_on_c, 0, 62, 0
1, 47050, Note_on_c, 0, 53, 0
1, 47072, Note_on_c, 0, 68, 84
1, 47106, Note_on_c, 0, 68, 0
1, 47164, Note_on_c, 0, 46, 82
1, 47167, Note_on_c, 0, 70, 87
1, 47197, Note_on_c, 0, 46, 0
1, 47237, Note_on_c, 0, 68, 92
1, 47246, Control_c, 0, 64, 127
1, 47278, Note_on_c, 0, 70, 0
1, 47306, Control_c, 0, 64, 0
1, 47324, Note_on_c, 0, 67, 96
1, 47331, Note_on_c, 0, 62, 61
1, 47348, Note_on_c, 0, 53, 85
1, 47348, Note_on_c, 0, 58, 52
1, 47354, Note_on_c, 0, 68, 0
1, 47371, Note_on_c, 0, 62, 0
1, 47395, Note_on_c, 0, 58, 0
1, 47395, Note_on_c, 0, 53, 0
1, 47407, Note_on_c, 0, 67, 0
1, 47407, Note_on_c, 0, 65, 72
1, 47468, Note_on_c, 0, 65, 0
1, 47479, Note_on_c, 0, 63, 103
1, 47498, Note_on_c, 0, 55, 87
1, 47501, Note_on_c, 0, 51, 80
1, 47510, Note_on_c, 0, 58, 68
1, 47516, Note_on_c, 0, 63, 0
1, 47566, Note_on_c, 0, 63, 94
1, 47583, Note_on_c, 0, 55, 0
1, 47594, Control_c, 0, 64, 127
1, 47608, Note_on_c, 0, 51, 0
1, 47618, Note_on_c, 0, 58, 0
1, 47640, Note_on_c, 0, 63, 0
1, 47654, Control_c, 0, 64, 0
1, 47666, Note_on_c, 0, 65, 91
1, 47707, Note_on_c, 0, 65, 0
1, 47738, Note_on_c, 0, 67, 101
1, 47786, Note_on_c, 0, 67, 0
1, 47827, Note_on_c, 0, 68, 98
1, 47831, Note_on_c, 0, 65, 81
1, 47834, Note_on_c, 0, 58, 72
1, 47834, Note_on_c, 0, 62, 87
1, 47888, Note_on_c, 0, 62, 0
1, 47905, Note_on_c, 0, 65, 0
1, 47917, Note_on_c, 0, 70, 91
1, 47917, Control_c, 0, 64, 127
1, 47944, Note_on_c, 0, 58, 0
1, 47948, Note_on_c, 0, 68, 0
1, 47953, Control_c, 0, 64, 0
1, 47998, Note_on_c, 0, 70, 0
1, 48001, Note_on_c, 0, 72, 96
1, 48041, Note_on_c, 0, 72, 0
1, 48087, Note_on_c, 0, 74, 105
1, 48156, Note_on_c, 0, 74, 0
1, 48178, Note_on_c, 0, 75, 98
1, 48178, Note_on_c, 0, 67, 87
1, 48178, Note_on_c, 0, 63, 86
1, 48206, Note_on_c, 0, 75, 0
1, 48239, Note_on_c, 0, 63, 0
1, 48253, Note_on_c, 0, 67, 0
1, 48253, Control_c, 0, 64, 127
1, 48262, Note_on_c, 0, 75, 87
1, 48276, Control_c, 0, 64, 0
1, 48343, Note_on_c, 0, 75, 0
1, 48352, Note_on_c, 0, 77, 104
1, 48426, Note_on_c, 0, 79, 112
1, 48448, Note_on_c, 0, 77, 0
1, 48510, Note_on_c, 0, 80, 106
1, 48516, Note_on_c, 0, 79, 0
1, 48516, Note_on_c, 0, 65, 83
1, 48519, Note_on_c, 0, 62, 80
1, 48519, Note_on_c, 0, 58, 65
1, 48552, Note_on_c, 0, 62, 0
1, 48552, Note_on_c, 0, 65, 0
1, 48565, Note_on_c, 0, 58, 0
1, 48593, Note_on_c, 0, 82, 97
1, 48630, Note_on_c, 0, 80, 0
1, 48674, Note_on_c, 0, 84, 112
1, 48680, Note_on_c, 0, 82, 0
1, 48738, Note_on_c, 0, 84, 0
1, 48760, Note_on_c, 0, 86, 111
1, 48813, Note_on_c, 0, 86, 0
1, 48849, Note_on_c, 0, 87, 120
1, 48849, Note_on_c, 0, 67, 105
1, 48858, Note_on_c, 0, 63, 101
1, 48878, Note_on_c, 0, 67, 0
1, 48881, Note_on_c, 0, 63, 0
1, 48913, Control_c, 0, 64, 127
1, 48917, Note_on_c, 0, 87, 0
1, 48972, Control_c, 0, 64, 0
1, 49182, Note_on_c, 0, 87, 112
1, 49186, Note_on_c, 0, 79, 119
1, 49189, Note_on_c, 0, 58, 96
1, 49192, Note_on_c, 0, 51, 91
1, 49220, Note_on_c, 0, 51, 0
1, 49220, Note_on_c, 0, 58, 0
1, 49220, Note_on_c, 0, 79, 0
1, 49246, Note_on_c, 0, 87, 0
1, 49260, Control_c, 0, 64, 127
1, 49332, Control_c, 0, 64, 0
1, 49551, Note_on_c, 0, 75, 115
1, 49551, Note_on_c, 0, 58, 94
1, 49551, Note_on_c, 0, 67, 115
1, 49557, Note_on_c, 0, 51, 98
1, 49586, Note_on_c, 0, 67, 0
1, 49586, Note_on_c, 0, 58, 0
1, 49589, Note_on_c, 0, 51, 0
1, 49619, Control_c, 0, 64, 127
1, 49622, Note_on_c, 0, 75, 0
1, 49775, Control_c, 0, 64, 0
1, 50919, Control_c, 0, 64, 0
1, 52416, Control_c, 0, 64, 0
1, 52416, End_track
0, 0, End_of_file
