0, 0, Header, 1, 5, 384
1, 0, Start_track
1, 0, Copyright_t, "Adaptation for Disklavier pianos, by: Robert C. Kuhmann (c) 2012."
1, 0, Sequencer_specific, 3, 0, 0, 65
1, 0, Time_signature, 4, 2, 24, 8
1, 0, Key_signature, 0, "major"
1, 0, Tempo, 468750
1, 4424, Tempo, 480000
1, 5336, Tempo, 476190
1, 19896, Tempo, 491803
1, 20184, Tempo, 480000
1, 20476, Tempo, 476190
1, 20768, Tempo, 476190
1, 21060, Tempo, 468750
1, 21352, Tempo, 465116
1, 21640, Tempo, 461538
1, 21932, Tempo, 458015
1, 22224, Tempo, 454545
1, 22516, Tempo, 454545
1, 22808, Tempo, 447761
1, 22888, Tempo, 454545
1, 22972, Tempo, 454545
1, 23056, Tempo, 458015
1, 23136, Tempo, 461538
1, 23220, Tempo, 465116
1, 23304, Tempo, 468750
1, 23384, Tempo, 476190
1, 23468, Tempo, 476190
1, 23552, Tempo, 480000
1, 23636, Tempo, 491803
1, 25260, Tempo, 517241
1, 26368, Tempo, 476190
1, 35712, Tempo, 517241
1, 36288, Tempo, 476190
1, 47660, Tempo, 444444
1, 48796, Tempo, 491803
1, 59500, Tempo, 413793
1, 75384, Tempo, 422535
1, 75444, Tempo, 428571
1, 75508, Tempo, 428571
1, 75568, Tempo, 437956
1, 75632, Tempo, 437956
1, 75696, Tempo, 437956
1, 75756, Tempo, 441176
1, 75820, Tempo, 444444
1, 75884, Tempo, 447761
1, 75944, Tempo, 454545
1, 76008, Tempo, 454545
1, 76072, Tempo, 458015
1, 76132, Tempo, 461538
1, 76196, Tempo, 465116
1, 76256, Tempo, 468750
1, 76320, Tempo, 476190
1, 76384, Tempo, 476190
1, 76444, Tempo, 480000
1, 76508, Tempo, 491803
1, 76572, Tempo, 491803
1, 76632, Tempo, 491803
1, 76696, Tempo, 500000
1, 76760, Tempo, 480000
1, 77960, Tempo, 458015
1, 83032, Tempo, 517241
1, 83428, Tempo, 480000
1, 91852, Tempo, 500000
1, 92184, Tempo, 476190
1, 93380, Tempo, 454545
1, 97264, Tempo, 491803
1, 97916, Tempo, 476190
1, 111988, Tempo, 468750
1, 113524, Tempo, 447761
1, 114876, Tempo, 454545
1, 114924, Tempo, 441176
1, 115028, Tempo, 437956
1, 115152, Tempo, 437956
1, 115276, Tempo, 437956
1, 115404, Tempo, 428571
1, 115528, Tempo, 428571
1, 115652, Tempo, 422535
1, 115776, Tempo, 419580
1, 115900, Tempo, 419580
1, 116024, Tempo, 413793
1, 116148, Tempo, 413793
1, 116272, Tempo, 408163
1, 116400, Tempo, 405405
1, 116524, Tempo, 405405
1, 116648, Tempo, 400000
1, 116772, Tempo, 400000
1, 116896, Tempo, 400000
1, 117020, Tempo, 400000
1, 117144, Tempo, 389610
1, 117268, Tempo, 389610
1, 117396, Tempo, 384615
1, 117520, Tempo, 384615
1, 117644, Tempo, 384615
1, 117768, Tempo, 377358
1, 117892, Tempo, 400000
1, 127404, Tempo, 428571
1, 127488, Tempo, 434783
1, 127576, Tempo, 437956
1, 127660, Tempo, 437956
1, 127744, Tempo, 441176
1, 127828, Tempo, 444444
1, 127912, Tempo, 447761
1, 127996, Tempo, 454545
1, 128084, Tempo, 454545
1, 128168, Tempo, 458015
1, 128252, Tempo, 461538
1, 128336, Tempo, 465116
1, 128420, Tempo, 468750
1, 128504, Tempo, 476190
1, 128592, Tempo, 476190
1, 128676, Tempo, 480000
1, 128760, Tempo, 487805
1, 128844, Tempo, 491803
1, 128928, Tempo, 491803
1, 129012, Tempo, 500000
1, 129100, Tempo, 500000
1, 193116, Tempo, 444444
1, 193116, End_track
2, 0, Start_track
2, 0, Title_t, "Romance in F Op 51"
2, 0, Control_c, 0, 0, 0
2, 0, Control_c, 0, 7, 115
2, 0, Control_c, 0, 91, 120
2, 0, Control_c, 0, 32, 0
2, 1, Program_c, 0, 0
2, 64, Control_c, 0, 64, 40
2, 80, Control_c, 0, 64, 88
2, 96, Control_c, 0, 64, 127
2, 248, Note_on_c, 0, 41, 51
2, 300, Note_on_c, 0, 58, 47
2, 340, Note_on_c, 0, 41, 0
2, 352, Note_on_c, 0, 48, 48
2, 376, Note_on_c, 0, 58, 0
2, 384, Note_on_c, 0, 64, 68
2, 404, Note_on_c, 0, 48, 0
2, 496, Note_on_c, 0, 55, 51
2, 500, Note_on_c, 0, 64, 0
2, 528, Note_on_c, 0, 72, 86
2, 584, Note_on_c, 0, 55, 0
2, 632, Note_on_c, 0, 72, 0
2, 916, Note_on_c, 0, 74, 81
2, 928, Note_on_c, 0, 64, 53
2, 1064, Note_on_c, 0, 74, 0
2, 1120, Note_on_c, 0, 64, 0
2, 1204, Note_on_c, 0, 67, 76
2, 1236, Note_on_c, 0, 60, 54
2, 1236, Note_on_c, 0, 58, 49
2, 1360, Note_on_c, 0, 60, 0
2, 1376, Note_on_c, 0, 58, 0
2, 1384, Note_on_c, 0, 67, 0
2, 1452, Note_on_c, 0, 64, 51
2, 1480, Note_on_c, 0, 69, 85
2, 1484, Note_on_c, 0, 64, 0
2, 1568, Note_on_c, 0, 69, 0
2, 1648, Note_on_c, 0, 58, 73
2, 1680, Control_c, 0, 64, 40
2, 1692, Note_on_c, 0, 64, 65
2, 1692, Control_c, 0, 64, 0
2, 1700, Note_on_c, 0, 41, 52
2, 1716, Note_on_c, 0, 48, 56
2, 1732, Note_on_c, 0, 58, 0
2, 1760, Note_on_c, 0, 41, 0
2, 1768, Note_on_c, 0, 70, 83
2, 1772, Control_c, 0, 64, 104
2, 1784, Note_on_c, 0, 64, 0
2, 1784, Note_on_c, 0, 48, 0
2, 1784, Control_c, 0, 64, 127
2, 1800, Note_on_c, 0, 55, 59
2, 1836, Note_on_c, 0, 70, 0
2, 1852, Note_on_c, 0, 55, 0
2, 2040, Note_on_c, 0, 72, 97
2, 2048, Note_on_c, 0, 64, 67
2, 2208, Note_on_c, 0, 64, 0
2, 2256, Note_on_c, 0, 72, 0
2, 2300, Note_on_c, 0, 74, 95
2, 2316, Note_on_c, 0, 60, 69
2, 2340, Note_on_c, 0, 58, 45
2, 2452, Note_on_c, 0, 60, 0
2, 2548, Note_on_c, 0, 74, 0
2, 2584, Note_on_c, 0, 76, 98
2, 2584, Note_on_c, 0, 64, 69
2, 2612, Note_on_c, 0, 64, 0
2, 2620, Note_on_c, 0, 58, 0
2, 2740, Note_on_c, 0, 76, 0
2, 2804, Note_on_c, 0, 65, 69
2, 2832, Note_on_c, 0, 41, 64
2, 2840, Control_c, 0, 64, 88
2, 2856, Control_c, 0, 64, 0
2, 2876, Note_on_c, 0, 71, 85
2, 2888, Note_on_c, 0, 50, 61
2, 2900, Note_on_c, 0, 41, 0
2, 2964, Control_c, 0, 64, 104
2, 2976, Control_c, 0, 64, 127
2, 2992, Note_on_c, 0, 50, 0
2, 2992, Note_on_c, 0, 77, 99
2, 3000, Note_on_c, 0, 56, 65
2, 3060, Note_on_c, 0, 56, 0
2, 3204, Note_on_c, 0, 65, 0
2, 3216, Note_on_c, 0, 71, 0
2, 3276, Note_on_c, 0, 65, 67
2, 3500, Note_on_c, 0, 65, 0
2, 3532, Note_on_c, 0, 56, 51
2, 3556, Note_on_c, 0, 59, 55
2, 3712, Note_on_c, 0, 56, 0
2, 3812, Note_on_c, 0, 77, 0
2, 3824, Note_on_c, 0, 59, 0
2, 3824, Note_on_c, 0, 74, 83
2, 3844, Note_on_c, 0, 65, 48
2, 3908, Note_on_c, 0, 74, 0
2, 3932, Note_on_c, 0, 76, 77
2, 4012, Note_on_c, 0, 74, 85
2, 4024, Note_on_c, 0, 76, 0
2, 4100, Note_on_c, 0, 65, 0
2, 4116, Note_on_c, 0, 74, 0
2, 4128, Note_on_c, 0, 72, 81
2, 4160, Note_on_c, 0, 60, 45
2, 4172, Control_c, 0, 64, 72
2, 4180, Note_on_c, 0, 57, 49
2, 4184, Control_c, 0, 64, 0
2, 4296, Control_c, 0, 64, 56
2, 4312, Control_c, 0, 64, 127
2, 4388, Note_on_c, 0, 57, 0
2, 4404, Note_on_c, 0, 60, 0
2, 4424, Note_on_c, 0, 65, 63
2, 4504, Note_on_c, 0, 65, 0
2, 4708, Note_on_c, 0, 62, 60
2, 4720, Note_on_c, 0, 57, 46
2, 4724, Note_on_c, 0, 60, 45
2, 4844, Note_on_c, 0, 57, 0
2, 4880, Note_on_c, 0, 62, 0
2, 4892, Note_on_c, 0, 60, 0
2, 5004, Note_on_c, 0, 64, 55
2, 5024, Note_on_c, 0, 58, 49
2, 5036, Note_on_c, 0, 55, 52
2, 5068, Note_on_c, 0, 55, 0
2, 5072, Note_on_c, 0, 64, 0
2, 5076, Note_on_c, 0, 58, 0
2, 5152, Note_on_c, 0, 72, 0
2, 5292, Control_c, 0, 64, 104
2, 5336, Note_on_c, 0, 65, 46
2, 5340, Note_on_c, 0, 41, 56
2, 5348, Control_c, 0, 64, 24
2, 5364, Control_c, 0, 64, 0
2, 5376, Note_on_c, 0, 48, 53
2, 5388, Note_on_c, 0, 72, 74
2, 5412, Note_on_c, 0, 41, 0
2, 5440, Note_on_c, 0, 65, 0
2, 5444, Note_on_c, 0, 48, 0
2, 5444, Control_c, 0, 64, 127
2, 5460, Note_on_c, 0, 77, 92
2, 5476, Note_on_c, 0, 72, 0
2, 5500, Note_on_c, 0, 57, 58
2, 5560, Note_on_c, 0, 57, 0
2, 5700, Note_on_c, 0, 77, 0
2, 5732, Note_on_c, 0, 76, 87
2, 5744, Note_on_c, 0, 60, 63
2, 5840, Note_on_c, 0, 76, 0
2, 5876, Note_on_c, 0, 77, 71
2, 5908, Note_on_c, 0, 60, 0
2, 5940, Note_on_c, 0, 76, 92
2, 5956, Note_on_c, 0, 77, 0
2, 6020, Note_on_c, 0, 74, 90
2, 6024, Note_on_c, 0, 76, 0
2, 6024, Note_on_c, 0, 53, 44
2, 6028, Note_on_c, 0, 57, 42
2, 6208, Note_on_c, 0, 57, 0
2, 6268, Note_on_c, 0, 74, 0
2, 6280, Note_on_c, 0, 60, 64
2, 6284, Note_on_c, 0, 72, 84
2, 6292, Note_on_c, 0, 53, 0
2, 6308, Note_on_c, 0, 60, 0
2, 6328, Note_on_c, 0, 72, 0
2, 6496, Note_on_c, 0, 60, 58
2, 6496, Control_c, 0, 64, 40
2, 6512, Control_c, 0, 64, 0
2, 6516, Note_on_c, 0, 45, 59
2, 6528, Note_on_c, 0, 66, 62
2, 6564, Note_on_c, 0, 50, 55
2, 6576, Note_on_c, 0, 60, 0
2, 6588, Control_c, 0, 64, 56
2, 6600, Note_on_c, 0, 45, 0
2, 6604, Note_on_c, 0, 74, 91
2, 6604, Control_c, 0, 64, 127
2, 6608, Note_on_c, 0, 66, 0
2, 6608, Note_on_c, 0, 57, 67
2, 6640, Note_on_c, 0, 50, 0
2, 6692, Note_on_c, 0, 57, 0
2, 6780, Note_on_c, 0, 74, 0
2, 6864, Note_on_c, 0, 72, 87
2, 6876, Note_on_c, 0, 62, 53
2, 6956, Note_on_c, 0, 72, 0
2, 6984, Note_on_c, 0, 74, 68
2, 7040, Note_on_c, 0, 62, 0
2, 7052, Note_on_c, 0, 74, 0
2, 7052, Note_on_c, 0, 72, 82
2, 7128, Note_on_c, 0, 70, 86
2, 7128, Note_on_c, 0, 57, 50
2, 7132, Note_on_c, 0, 60, 50
2, 7152, Note_on_c, 0, 72, 0
2, 7300, Note_on_c, 0, 60, 0
2, 7380, Note_on_c, 0, 70, 0
2, 7404, Note_on_c, 0, 69, 85
2, 7404, Note_on_c, 0, 62, 63
2, 7420, Note_on_c, 0, 57, 0
2, 7444, Note_on_c, 0, 62, 0
2, 7480, Note_on_c, 0, 69, 0
2, 7592, Note_on_c, 0, 62, 67
2, 7652, Note_on_c, 0, 67, 72
2, 7656, Control_c, 0, 64, 40
2, 7668, Note_on_c, 0, 46, 56
2, 7672, Control_c, 0, 64, 0
2, 7700, Note_on_c, 0, 62, 0
2, 7700, Note_on_c, 0, 55, 54
2, 7772, Note_on_c, 0, 74, 91
2, 7792, Note_on_c, 0, 46, 0
2, 7792, Note_on_c, 0, 67, 0
2, 7796, Control_c, 0, 64, 127
2, 7808, Note_on_c, 0, 58, 62
2, 7820, Note_on_c, 0, 55, 0
2, 7872, Note_on_c, 0, 58, 0
2, 7884, Note_on_c, 0, 74, 0
2, 8056, Note_on_c, 0, 65, 65
2, 8232, Note_on_c, 0, 65, 0
2, 8312, Note_on_c, 0, 58, 55
2, 8336, Note_on_c, 0, 55, 52
2, 8596, Note_on_c, 0, 69, 72
2, 8596, Control_c, 0, 64, 127
2, 8600, Note_on_c, 0, 65, 57
2, 8648, Note_on_c, 0, 55, 0
2, 8672, Note_on_c, 0, 58, 0
2, 8688, Note_on_c, 0, 70, 72
2, 8692, Note_on_c, 0, 69, 0
2, 8696, Note_on_c, 0, 65, 0
2, 8788, Note_on_c, 0, 70, 0
2, 8788, Note_on_c, 0, 69, 70
2, 8904, Note_on_c, 0, 69, 0
2, 8904, Control_c, 0, 64, 0
2, 8920, Note_on_c, 0, 67, 74
2, 8924, Note_on_c, 0, 58, 57
2, 8980, Note_on_c, 0, 48, 60
2, 9076, Note_on_c, 0, 48, 0
2, 9080, Control_c, 0, 64, 127
2, 9104, Note_on_c, 0, 58, 0
2, 9240, Note_on_c, 0, 64, 57
2, 9248, Note_on_c, 0, 67, 0
2, 9416, Note_on_c, 0, 64, 0
2, 9548, Note_on_c, 0, 55, 48
2, 9564, Note_on_c, 0, 60, 49
2, 9864, Note_on_c, 0, 64, 52
2, 9900, Note_on_c, 0, 60, 0
2, 9900, Note_on_c, 0, 55, 0
2, 9908, Note_on_c, 0, 64, 0
2, 10148, Control_c, 0, 64, 40
2, 10152, Note_on_c, 0, 58, 51
2, 10164, Control_c, 0, 64, 0
2, 10180, Note_on_c, 0, 40, 58
2, 10224, Note_on_c, 0, 58, 0
2, 10228, Control_c, 0, 64, 56
2, 10232, Note_on_c, 0, 67, 65
2, 10240, Note_on_c, 0, 79, 51
2, 10244, Control_c, 0, 64, 127
2, 10272, Note_on_c, 0, 40, 0
2, 10324, Note_on_c, 0, 79, 0
2, 10348, Note_on_c, 0, 72, 90
2, 10376, Note_on_c, 0, 67, 0
2, 10428, Note_on_c, 0, 55, 54
2, 10468, Note_on_c, 0, 55, 0
2, 10584, Note_on_c, 0, 72, 0
2, 10688, Note_on_c, 0, 74, 87
2, 10704, Note_on_c, 0, 64, 67
2, 10868, Note_on_c, 0, 64, 0
2, 10884, Note_on_c, 0, 74, 0
2, 10952, Note_on_c, 0, 67, 85
2, 10976, Note_on_c, 0, 60, 58
2, 10992, Note_on_c, 0, 58, 42
2, 11112, Note_on_c, 0, 58, 0
2, 11124, Note_on_c, 0, 60, 0
2, 11148, Note_on_c, 0, 67, 0
2, 11196, Note_on_c, 0, 64, 63
2, 11220, Note_on_c, 0, 69, 85
2, 11224, Note_on_c, 0, 64, 0
2, 11300, Note_on_c, 0, 69, 0
2, 11360, Note_on_c, 0, 58, 63
2, 11404, Note_on_c, 0, 64, 65
2, 11444, Note_on_c, 0, 67, 68
2, 11452, Note_on_c, 0, 58, 0
2, 11452, Control_c, 0, 64, 24
2, 11468, Control_c, 0, 64, 0
2, 11504, Note_on_c, 0, 70, 88
2, 11504, Note_on_c, 0, 36, 73
2, 11524, Note_on_c, 0, 64, 0
2, 11540, Note_on_c, 0, 67, 0
2, 11544, Control_c, 0, 64, 127
2, 11572, Note_on_c, 0, 48, 64
2, 11576, Note_on_c, 0, 36, 0
2, 11584, Note_on_c, 0, 70, 0
2, 11632, Note_on_c, 0, 48, 0
2, 11784, Note_on_c, 0, 72, 99
2, 11796, Note_on_c, 0, 60, 68
2, 11972, Note_on_c, 0, 60, 0
2, 12024, Note_on_c, 0, 72, 0
2, 12060, Note_on_c, 0, 74, 92
2, 12080, Note_on_c, 0, 58, 56
2, 12088, Note_on_c, 0, 55, 61
2, 12312, Note_on_c, 0, 58, 0
2, 12328, Note_on_c, 0, 74, 0
2, 12356, Note_on_c, 0, 76, 102
2, 12364, Note_on_c, 0, 58, 27
2, 12380, Note_on_c, 0, 60, 74
2, 12408, Note_on_c, 0, 60, 0
2, 12436, Note_on_c, 0, 58, 0
2, 12436, Note_on_c, 0, 55, 0
2, 12536, Note_on_c, 0, 76, 0
2, 12536, Note_on_c, 0, 65, 64
2, 12580, Note_on_c, 0, 68, 70
2, 12644, Note_on_c, 0, 73, 82
2, 12660, Control_c, 0, 64, 72
2, 12672, Control_c, 0, 64, 0
2, 12684, Note_on_c, 0, 49, 58
2, 12692, Note_on_c, 0, 37, 62
2, 12716, Note_on_c, 0, 77, 103
2, 12752, Note_on_c, 0, 37, 0
2, 12760, Note_on_c, 0, 49, 0
2, 12784, Control_c, 0, 64, 127
2, 12876, Note_on_c, 0, 68, 0
2, 12908, Note_on_c, 0, 73, 0
2, 13016, Note_on_c, 0, 65, 0
2, 13040, Note_on_c, 0, 56, 65
2, 13040, Note_on_c, 0, 53, 57
2, 13056, Note_on_c, 0, 49, 63
2, 13088, Note_on_c, 0, 53, 0
2, 13128, Note_on_c, 0, 56, 0
2, 13148, Note_on_c, 0, 49, 0
2, 13312, Note_on_c, 0, 61, 78
2, 13320, Note_on_c, 0, 53, 56
2, 13320, Note_on_c, 0, 56, 49
2, 13348, Note_on_c, 0, 56, 0
2, 13348, Note_on_c, 0, 53, 0
2, 13376, Note_on_c, 0, 61, 0
2, 13588, Note_on_c, 0, 56, 53
2, 13588, Note_on_c, 0, 65, 79
2, 13588, Note_on_c, 0, 61, 69
2, 13656, Note_on_c, 0, 56, 0
2, 13688, Note_on_c, 0, 65, 0
2, 13744, Note_on_c, 0, 61, 0
2, 13916, Note_on_c, 0, 66, 77
2, 13932, Note_on_c, 0, 60, 71
2, 13940, Note_on_c, 0, 57, 46
2, 14008, Control_c, 0, 64, 72
2, 14024, Control_c, 0, 64, 0
2, 14148, Control_c, 0, 64, 127
2, 14208, Note_on_c, 0, 75, 89
2, 14244, Note_on_c, 0, 77, 0
2, 14352, Note_on_c, 0, 75, 0
2, 14404, Note_on_c, 0, 77, 68
2, 14444, Note_on_c, 0, 75, 86
2, 14476, Note_on_c, 0, 77, 0
2, 14488, Control_c, 0, 64, 88
2, 14504, Control_c, 0, 64, 0
2, 14528, Note_on_c, 0, 73, 88
2, 14532, Control_c, 0, 64, 40
2, 14548, Control_c, 0, 64, 127
2, 14560, Note_on_c, 0, 75, 0
2, 14628, Note_on_c, 0, 66, 0
2, 14628, Note_on_c, 0, 57, 0
2, 14636, Note_on_c, 0, 60, 0
2, 14768, Note_on_c, 0, 73, 0
2, 14788, Note_on_c, 0, 75, 90
2, 14876, Note_on_c, 0, 75, 0
2, 14992, Note_on_c, 0, 65, 60
2, 15028, Note_on_c, 0, 68, 65
2, 15032, Control_c, 0, 64, 40
2, 15044, Control_c, 0, 64, 0
2, 15056, Note_on_c, 0, 73, 72
2, 15064, Note_on_c, 0, 37, 59
2, 15064, Note_on_c, 0, 49, 61
2, 15112, Note_on_c, 0, 77, 90
2, 15124, Control_c, 0, 64, 56
2, 15132, Note_on_c, 0, 37, 0
2, 15132, Note_on_c, 0, 73, 0
2, 15136, Note_on_c, 0, 49, 0
2, 15136, Control_c, 0, 64, 127
2, 15148, Note_on_c, 0, 68, 0
2, 15176, Note_on_c, 0, 65, 0
2, 15376, Note_on_c, 0, 56, 59
2, 15376, Note_on_c, 0, 49, 58
2, 15392, Note_on_c, 0, 53, 61
2, 15428, Note_on_c, 0, 53, 0
2, 15448, Note_on_c, 0, 56, 0
2, 15468, Note_on_c, 0, 49, 0
2, 15652, Note_on_c, 0, 61, 76
2, 15652, Note_on_c, 0, 56, 53
2, 15652, Note_on_c, 0, 53, 50
2, 15700, Note_on_c, 0, 53, 0
2, 15700, Note_on_c, 0, 56, 0
2, 15748, Note_on_c, 0, 61, 0
2, 15920, Note_on_c, 0, 61, 73
2, 15928, Note_on_c, 0, 65, 81
2, 15932, Note_on_c, 0, 56, 66
2, 16008, Note_on_c, 0, 56, 0
2, 16036, Note_on_c, 0, 65, 0
2, 16072, Note_on_c, 0, 61, 0
2, 16268, Note_on_c, 0, 66, 76
2, 16276, Note_on_c, 0, 60, 72
2, 16284, Note_on_c, 0, 57, 60
2, 16360, Control_c, 0, 64, 40
2, 16376, Control_c, 0, 64, 0
2, 16468, Control_c, 0, 64, 56
2, 16484, Control_c, 0, 64, 127
2, 16528, Note_on_c, 0, 77, 0
2, 16528, Note_on_c, 0, 75, 86
2, 16648, Note_on_c, 0, 75, 0
2, 16700, Note_on_c, 0, 77, 67
2, 16748, Note_on_c, 0, 75, 86
2, 16772, Note_on_c, 0, 77, 0
2, 16796, Control_c, 0, 64, 88
2, 16812, Control_c, 0, 64, 0
2, 16824, Note_on_c, 0, 73, 89
2, 16840, Control_c, 0, 64, 40
2, 16852, Note_on_c, 0, 75, 0
2, 16856, Control_c, 0, 64, 127
2, 16928, Note_on_c, 0, 57, 0
2, 16936, Note_on_c, 0, 66, 0
2, 16936, Note_on_c, 0, 60, 0
2, 17068, Note_on_c, 0, 73, 0
2, 17080, Note_on_c, 0, 75, 97
2, 17224, Note_on_c, 0, 75, 0
2, 17232, Note_on_c, 0, 65, 64
2, 17300, Note_on_c, 0, 71, 73
2, 17352, Control_c, 0, 64, 0
2, 17368, Note_on_c, 0, 37, 60
2, 17376, Note_on_c, 0, 77, 98
2, 17376, Note_on_c, 0, 49, 59
2, 17444, Note_on_c, 0, 37, 0
2, 17448, Control_c, 0, 64, 72
2, 17456, Note_on_c, 0, 49, 0
2, 17460, Control_c, 0, 64, 127
2, 17536, Note_on_c, 0, 65, 0
2, 17544, Note_on_c, 0, 71, 0
2, 17596, Note_on_c, 0, 77, 0
2, 17664, Note_on_c, 0, 53, 81
2, 17668, Note_on_c, 0, 56, 70
2, 17672, Note_on_c, 0, 49, 59
2, 17704, Note_on_c, 0, 49, 0
2, 17720, Note_on_c, 0, 56, 0
2, 17724, Note_on_c, 0, 53, 0
2, 17816, Note_on_c, 0, 68, 71
2, 17852, Note_on_c, 0, 71, 73
2, 17880, Note_on_c, 0, 68, 0
2, 17916, Note_on_c, 0, 71, 0
2, 17920, Note_on_c, 0, 80, 105
2, 17920, Note_on_c, 0, 61, 74
2, 17936, Note_on_c, 0, 53, 68
2, 17952, Note_on_c, 0, 56, 45
2, 17964, Note_on_c, 0, 53, 0
2, 17976, Note_on_c, 0, 56, 0
2, 18020, Note_on_c, 0, 61, 0
2, 18220, Note_on_c, 0, 61, 74
2, 18224, Note_on_c, 0, 56, 70
2, 18224, Note_on_c, 0, 65, 82
2, 18276, Note_on_c, 0, 61, 0
2, 18284, Note_on_c, 0, 56, 0
2, 18312, Note_on_c, 0, 65, 0
2, 18596, Note_on_c, 0, 71, 80
2, 18596, Note_on_c, 0, 65, 70
2, 18600, Note_on_c, 0, 61, 65
2, 18732, Control_c, 0, 64, 104
2, 18748, Control_c, 0, 64, 24
2, 18764, Control_c, 0, 64, 0
2, 18856, Control_c, 0, 64, 72
2, 18872, Control_c, 0, 64, 127
2, 19052, Note_on_c, 0, 80, 0
2, 19192, Note_on_c, 0, 79, 94
2, 19420, Note_on_c, 0, 71, 0
2, 19436, Note_on_c, 0, 61, 0
2, 19468, Note_on_c, 0, 65, 0
2, 19564, Note_on_c, 0, 79, 0
2, 19592, Note_on_c, 0, 77, 97
2, 19720, Note_on_c, 0, 77, 0
2, 19896, Note_on_c, 0, 77, 97
2, 19908, Control_c, 0, 64, 88
2, 19924, Note_on_c, 0, 72, 69
2, 19924, Note_on_c, 0, 67, 58
2, 19924, Control_c, 0, 64, 0
2, 19928, Note_on_c, 0, 60, 65
2, 20016, Control_c, 0, 64, 104
2, 20032, Control_c, 0, 64, 127
2, 20104, Note_on_c, 0, 67, 0
2, 20116, Note_on_c, 0, 60, 0
2, 20144, Note_on_c, 0, 77, 0
2, 20176, Note_on_c, 0, 76, 91
2, 20204, Note_on_c, 0, 72, 0
2, 20296, Note_on_c, 0, 76, 0
2, 20444, Note_on_c, 0, 76, 91
2, 20464, Note_on_c, 0, 72, 75
2, 20464, Note_on_c, 0, 65, 58
2, 20468, Control_c, 0, 64, 40
2, 20472, Note_on_c, 0, 57, 58
2, 20480, Control_c, 0, 64, 0
2, 20560, Control_c, 0, 64, 127
2, 20664, Note_on_c, 0, 76, 0
2, 20668, Note_on_c, 0, 57, 0
2, 20684, Note_on_c, 0, 65, 0
2, 20704, Note_on_c, 0, 77, 90
2, 20736, Note_on_c, 0, 72, 0
2, 20808, Note_on_c, 0, 77, 0
2, 20944, Note_on_c, 0, 76, 94
2, 20944, Note_on_c, 0, 70, 72
2, 20944, Control_c, 0, 64, 56
2, 20956, Note_on_c, 0, 65, 66
2, 20960, Note_on_c, 0, 58, 53
2, 20960, Control_c, 0, 64, 0
2, 21024, Control_c, 0, 64, 88
2, 21040, Control_c, 0, 64, 127
2, 21088, Note_on_c, 0, 65, 0
2, 21112, Note_on_c, 0, 76, 0
2, 21132, Note_on_c, 0, 58, 0
2, 21168, Note_on_c, 0, 70, 0
2, 21192, Note_on_c, 0, 74, 89
2, 21300, Note_on_c, 0, 74, 0
2, 21412, Control_c, 0, 64, 88
2, 21424, Note_on_c, 0, 74, 88
2, 21424, Control_c, 0, 64, 0
2, 21436, Note_on_c, 0, 70, 59
2, 21448, Note_on_c, 0, 64, 64
2, 21452, Note_on_c, 0, 55, 63
2, 21488, Control_c, 0, 64, 40
2, 21504, Control_c, 0, 64, 127
2, 21556, Note_on_c, 0, 55, 0
2, 21572, Note_on_c, 0, 64, 0
2, 21612, Note_on_c, 0, 74, 0
2, 21616, Note_on_c, 0, 70, 0
2, 21660, Note_on_c, 0, 76, 91
2, 21756, Note_on_c, 0, 76, 0
2, 21884, Note_on_c, 0, 74, 87
2, 21892, Note_on_c, 0, 69, 68
2, 21892, Control_c, 0, 64, 88
2, 21900, Note_on_c, 0, 64, 61
2, 21908, Control_c, 0, 64, 0
2, 21916, Note_on_c, 0, 57, 48
2, 21968, Control_c, 0, 64, 40
2, 21984, Control_c, 0, 64, 127
2, 22036, Note_on_c, 0, 64, 0
2, 22060, Note_on_c, 0, 74, 0
2, 22076, Note_on_c, 0, 57, 0
2, 22084, Note_on_c, 0, 69, 0
2, 22112, Note_on_c, 0, 72, 94
2, 22228, Note_on_c, 0, 72, 0
2, 22336, Note_on_c, 0, 72, 90
2, 22348, Note_on_c, 0, 69, 74
2, 22356, Control_c, 0, 64, 24
2, 22364, Note_on_c, 0, 63, 55
2, 22368, Note_on_c, 0, 54, 55
2, 22372, Control_c, 0, 64, 0
2, 22432, Control_c, 0, 64, 40
2, 22440, Note_on_c, 0, 69, 0
2, 22448, Control_c, 0, 64, 127
2, 22548, Note_on_c, 0, 72, 0
2, 22572, Note_on_c, 0, 74, 88
2, 22652, Note_on_c, 0, 63, 0
2, 22660, Note_on_c, 0, 54, 0
2, 22672, Note_on_c, 0, 74, 0
2, 22808, Note_on_c, 0, 72, 85
2, 22820, Note_on_c, 0, 67, 70
2, 22828, Note_on_c, 0, 62, 56
2, 22836, Control_c, 0, 64, 104
2, 22852, Note_on_c, 0, 55, 51
2, 22852, Control_c, 0, 64, 0
2, 22944, Control_c, 0, 64, 72
2, 22960, Control_c, 0, 64, 127
2, 22968, Note_on_c, 0, 62, 0
2, 22996, Note_on_c, 0, 72, 0
2, 23016, Note_on_c, 0, 55, 0
2, 23076, Note_on_c, 0, 67, 0
2, 23084, Note_on_c, 0, 70, 83
2, 23256, Note_on_c, 0, 70, 0
2, 23356, Note_on_c, 0, 69, 85
2, 23364, Note_on_c, 0, 62, 57
2, 23388, Note_on_c, 0, 53, 49
2, 23396, Note_on_c, 0, 46, 54
2, 23396, Control_c, 0, 64, 24
2, 23408, Control_c, 0, 64, 0
2, 23488, Control_c, 0, 64, 127
2, 23612, Note_on_c, 0, 69, 0
2, 23636, Note_on_c, 0, 67, 82
2, 23672, Note_on_c, 0, 62, 0
2, 23676, Note_on_c, 0, 53, 0
2, 23680, Note_on_c, 0, 55, 69
2, 23712, Note_on_c, 0, 46, 0
2, 23732, Note_on_c, 0, 67, 0
2, 23744, Note_on_c, 0, 55, 0
2, 23944, Note_on_c, 0, 66, 78
2, 23972, Note_on_c, 0, 57, 55
2, 24028, Control_c, 0, 64, 88
2, 24044, Control_c, 0, 64, 0
2, 24092, Control_c, 0, 64, 104
2, 24108, Control_c, 0, 64, 127
2, 24180, Note_on_c, 0, 57, 0
2, 24216, Note_on_c, 0, 66, 0
2, 24236, Note_on_c, 0, 67, 83
2, 24252, Note_on_c, 0, 58, 55
2, 24500, Note_on_c, 0, 67, 0
2, 24536, Note_on_c, 0, 70, 79
2, 24564, Note_on_c, 0, 62, 48
2, 24628, Note_on_c, 0, 58, 0
2, 24632, Control_c, 0, 64, 104
2, 24672, Note_on_c, 0, 62, 0
2, 24680, Control_c, 0, 64, 127
2, 24824, Note_on_c, 0, 70, 0
2, 25060, Note_on_c, 0, 74, 83
2, 25064, Note_on_c, 0, 70, 58
2, 25072, Note_on_c, 0, 67, 58
2, 25072, Note_on_c, 0, 65, 56
2, 25104, Note_on_c, 0, 67, 0
2, 25112, Note_on_c, 0, 65, 0
2, 25128, Note_on_c, 0, 70, 0
2, 25136, Note_on_c, 0, 74, 0
2, 25260, Note_on_c, 0, 74, 86
2, 25268, Note_on_c, 0, 70, 48
2, 25268, Note_on_c, 0, 65, 65
2, 25280, Note_on_c, 0, 67, 53
2, 25732, Control_c, 0, 64, 104
2, 25744, Control_c, 0, 64, 0
2, 25824, Control_c, 0, 64, 56
2, 25912, Note_on_c, 0, 65, 0
2, 25992, Note_on_c, 0, 74, 0
2, 26020, Note_on_c, 0, 67, 0
2, 26028, Note_on_c, 0, 55, 50
2, 26028, Note_on_c, 0, 48, 54
2, 26040, Control_c, 0, 64, 127
2, 26064, Note_on_c, 0, 70, 0
2, 26368, Note_on_c, 0, 72, 76
2, 26384, Note_on_c, 0, 64, 52
2, 26428, Control_c, 0, 64, 40
2, 26444, Control_c, 0, 64, 24
2, 26460, Control_c, 0, 64, 56
2, 26468, Note_on_c, 0, 64, 0
2, 26472, Control_c, 0, 64, 127
2, 26504, Note_on_c, 0, 72, 0
2, 26544, Note_on_c, 0, 48, 0
2, 26544, Note_on_c, 0, 55, 0
2, 26752, Note_on_c, 0, 79, 86
2, 26764, Note_on_c, 0, 70, 53
2, 26864, Note_on_c, 0, 79, 0
2, 27000, Note_on_c, 0, 70, 0
2, 27064, Note_on_c, 0, 76, 82
2, 27072, Note_on_c, 0, 67, 52
2, 27272, Note_on_c, 0, 76, 0
2, 27300, Note_on_c, 0, 67, 0
2, 27340, Note_on_c, 0, 72, 85
2, 27348, Note_on_c, 0, 64, 47
2, 27524, Note_on_c, 0, 64, 0
2, 27536, Note_on_c, 0, 72, 0
2, 27588, Note_on_c, 0, 62, 51
2, 27588, Note_on_c, 0, 70, 73
2, 27828, Note_on_c, 0, 62, 0
2, 27836, Note_on_c, 0, 70, 0
2, 27836, Note_on_c, 0, 67, 71
2, 27840, Note_on_c, 0, 58, 49
2, 28012, Note_on_c, 0, 58, 0
2, 28068, Note_on_c, 0, 67, 0
2, 28088, Note_on_c, 0, 55, 63
2, 28096, Note_on_c, 0, 64, 69
2, 28232, Note_on_c, 0, 64, 0
2, 28308, Note_on_c, 0, 55, 0
2, 28368, Note_on_c, 0, 52, 58
2, 28372, Note_on_c, 0, 60, 73
2, 28540, Note_on_c, 0, 52, 0
2, 28616, Note_on_c, 0, 60, 0
2, 28632, Note_on_c, 0, 58, 69
2, 28648, Note_on_c, 0, 50, 65
2, 28680, Note_on_c, 0, 50, 0
2, 28688, Note_on_c, 0, 58, 0
2, 28964, Note_on_c, 0, 76, 76
2, 28984, Note_on_c, 0, 67, 52
2, 29044, Control_c, 0, 64, 88
2, 29060, Control_c, 0, 64, 0
2, 29124, Control_c, 0, 64, 72
2, 29136, Control_c, 0, 64, 127
2, 29208, Note_on_c, 0, 76, 0
2, 29212, Note_on_c, 0, 67, 0
2, 29228, Note_on_c, 0, 72, 85
2, 29244, Note_on_c, 0, 64, 56
2, 29400, Note_on_c, 0, 64, 0
2, 29436, Note_on_c, 0, 72, 0
2, 29476, Note_on_c, 0, 70, 68
2, 29488, Note_on_c, 0, 62, 44
2, 29700, Note_on_c, 0, 62, 0
2, 29732, Note_on_c, 0, 70, 0
2, 29740, Note_on_c, 0, 67, 70
2, 29740, Note_on_c, 0, 58, 60
2, 29760, Control_c, 0, 64, 72
2, 29772, Control_c, 0, 64, 24
2, 29788, Control_c, 0, 64, 0
2, 29804, Control_c, 0, 64, 40
2, 29820, Control_c, 0, 64, 88
2, 29836, Note_on_c, 0, 58, 0
2, 29836, Control_c, 0, 64, 127
2, 29996, Note_on_c, 0, 67, 0
2, 30028, Note_on_c, 0, 64, 73
2, 30028, Note_on_c, 0, 55, 38
2, 30136, Note_on_c, 0, 64, 0
2, 30300, Note_on_c, 0, 55, 0
2, 30304, Note_on_c, 0, 60, 67
2, 30332, Note_on_c, 0, 52, 46
2, 30432, Note_on_c, 0, 52, 0
2, 30576, Note_on_c, 0, 60, 0
2, 30612, Note_on_c, 0, 58, 60
2, 30644, Note_on_c, 0, 50, 47
2, 30892, Note_on_c, 0, 50, 0
2, 30964, Note_on_c, 0, 55, 68
2, 30976, Note_on_c, 0, 58, 0
2, 30984, Note_on_c, 0, 46, 47
2, 31024, Note_on_c, 0, 55, 0
2, 31068, Note_on_c, 0, 46, 0
2, 31276, Control_c, 0, 64, 88
2, 31292, Control_c, 0, 64, 0
2, 31320, Note_on_c, 0, 41, 57
2, 31348, Note_on_c, 0, 58, 50
2, 31352, Control_c, 0, 64, 56
2, 31368, Control_c, 0, 64, 127
2, 31416, Note_on_c, 0, 48, 50
2, 31424, Note_on_c, 0, 41, 0
2, 31436, Note_on_c, 0, 58, 0
2, 31440, Note_on_c, 0, 64, 65
2, 31520, Note_on_c, 0, 48, 0
2, 31548, Note_on_c, 0, 64, 0
2, 31588, Note_on_c, 0, 72, 83
2, 31612, Note_on_c, 0, 55, 53
2, 31716, Note_on_c, 0, 55, 0
2, 31932, Note_on_c, 0, 72, 0
2, 31984, Note_on_c, 0, 74, 81
2, 32000, Note_on_c, 0, 64, 59
2, 32188, Note_on_c, 0, 64, 0
2, 32204, Note_on_c, 0, 74, 0
2, 32256, Note_on_c, 0, 67, 79
2, 32292, Note_on_c, 0, 60, 54
2, 32308, Note_on_c, 0, 58, 33
2, 32424, Note_on_c, 0, 60, 0
2, 32432, Note_on_c, 0, 67, 0
2, 32516, Note_on_c, 0, 64, 51
2, 32528, Note_on_c, 0, 69, 82
2, 32544, Note_on_c, 0, 64, 0
2, 32552, Note_on_c, 0, 58, 0
2, 32620, Note_on_c, 0, 69, 0
2, 32712, Note_on_c, 0, 58, 56
2, 32732, Control_c, 0, 64, 56
2, 32748, Note_on_c, 0, 64, 58
2, 32748, Control_c, 0, 64, 0
2, 32776, Note_on_c, 0, 41, 56
2, 32800, Note_on_c, 0, 58, 0
2, 32804, Note_on_c, 0, 48, 42
2, 32808, Control_c, 0, 64, 72
2, 32820, Note_on_c, 0, 70, 81
2, 32824, Control_c, 0, 64, 127
2, 32840, Note_on_c, 0, 41, 0
2, 32844, Note_on_c, 0, 64, 0
2, 32848, Note_on_c, 0, 48, 0
2, 32860, Note_on_c, 0, 55, 63
2, 32900, Note_on_c, 0, 70, 0
2, 32924, Note_on_c, 0, 55, 0
2, 33096, Note_on_c, 0, 72, 94
2, 33108, Note_on_c, 0, 64, 59
2, 33252, Note_on_c, 0, 64, 0
2, 33296, Note_on_c, 0, 72, 0
2, 33340, Note_on_c, 0, 74, 93
2, 33356, Note_on_c, 0, 60, 61
2, 33372, Note_on_c, 0, 58, 50
2, 33508, Note_on_c, 0, 60, 0
2, 33552, Note_on_c, 0, 74, 0
2, 33588, Note_on_c, 0, 64, 67
2, 33600, Note_on_c, 0, 76, 94
2, 33620, Note_on_c, 0, 64, 0
2, 33636, Note_on_c, 0, 58, 0
2, 33752, Note_on_c, 0, 76, 0
2, 33788, Note_on_c, 0, 65, 72
2, 33856, Note_on_c, 0, 71, 77
2, 33864, Note_on_c, 0, 41, 50
2, 33864, Control_c, 0, 64, 56
2, 33880, Note_on_c, 0, 50, 45
2, 33880, Control_c, 0, 64, 0
2, 33952, Note_on_c, 0, 41, 0
2, 33972, Control_c, 0, 64, 127
2, 34016, Note_on_c, 0, 65, 0
2, 34016, Note_on_c, 0, 77, 95
2, 34032, Note_on_c, 0, 50, 0
2, 34032, Note_on_c, 0, 56, 63
2, 34048, Note_on_c, 0, 71, 0
2, 34092, Note_on_c, 0, 56, 0
2, 34124, Note_on_c, 0, 77, 0
2, 34292, Note_on_c, 0, 65, 72
2, 34476, Note_on_c, 0, 65, 0
2, 34532, Note_on_c, 0, 56, 53
2, 34548, Note_on_c, 0, 59, 57
2, 34788, Note_on_c, 0, 56, 0
2, 34820, Note_on_c, 0, 59, 0
2, 34844, Note_on_c, 0, 74, 71
2, 34868, Note_on_c, 0, 65, 53
2, 34904, Note_on_c, 0, 74, 0
2, 34932, Note_on_c, 0, 76, 70
2, 35012, Note_on_c, 0, 74, 83
2, 35020, Note_on_c, 0, 76, 0
2, 35100, Note_on_c, 0, 65, 0
2, 35104, Note_on_c, 0, 74, 0
2, 35132, Note_on_c, 0, 72, 78
2, 35180, Note_on_c, 0, 60, 50
2, 35180, Control_c, 0, 64, 72
2, 35188, Note_on_c, 0, 57, 41
2, 35192, Control_c, 0, 64, 0
2, 35252, Note_on_c, 0, 74, 38
2, 35284, Note_on_c, 0, 74, 0
2, 35288, Control_c, 0, 64, 88
2, 35304, Control_c, 0, 64, 127
2, 35388, Note_on_c, 0, 57, 0
2, 35400, Note_on_c, 0, 60, 0
2, 35416, Note_on_c, 0, 65, 55
2, 35516, Note_on_c, 0, 65, 0
2, 35712, Note_on_c, 0, 62, 60
2, 35716, Note_on_c, 0, 60, 46
2, 35728, Note_on_c, 0, 57, 48
2, 35812, Note_on_c, 0, 60, 0
2, 35852, Note_on_c, 0, 57, 0
2, 35868, Note_on_c, 0, 62, 0
2, 36000, Note_on_c, 0, 55, 48
2, 36000, Note_on_c, 0, 58, 48
2, 36000, Note_on_c, 0, 64, 54
2, 36056, Note_on_c, 0, 58, 0
2, 36064, Note_on_c, 0, 72, 0
2, 36064, Note_on_c, 0, 55, 0
2, 36072, Note_on_c, 0, 64, 0
2, 36280, Control_c, 0, 64, 40
2, 36288, Note_on_c, 0, 65, 63
2, 36296, Note_on_c, 0, 41, 58
2, 36296, Control_c, 0, 64, 0
2, 36304, Note_on_c, 0, 48, 51
2, 36344, Note_on_c, 0, 72, 70
2, 36352, Note_on_c, 0, 41, 0
2, 36372, Control_c, 0, 64, 127
2, 36380, Note_on_c, 0, 65, 0
2, 36412, Note_on_c, 0, 48, 0
2, 36452, Note_on_c, 0, 77, 94
2, 36476, Note_on_c, 0, 72, 0
2, 36492, Note_on_c, 0, 57, 57
2, 36556, Note_on_c, 0, 57, 0
2, 36700, Note_on_c, 0, 77, 0
2, 36724, Note_on_c, 0, 76, 89
2, 36728, Note_on_c, 0, 60, 64
2, 36836, Note_on_c, 0, 76, 0
2, 36860, Note_on_c, 0, 77, 75
2, 36876, Note_on_c, 0, 60, 0
2, 36936, Note_on_c, 0, 76, 89
2, 36944, Note_on_c, 0, 77, 0
2, 36992, Note_on_c, 0, 53, 50
2, 36992, Note_on_c, 0, 74, 90
2, 37008, Note_on_c, 0, 57, 31
2, 37012, Note_on_c, 0, 76, 0
2, 37236, Note_on_c, 0, 74, 0
2, 37248, Note_on_c, 0, 72, 89
2, 37260, Note_on_c, 0, 57, 0
2, 37260, Note_on_c, 0, 60, 58
2, 37268, Note_on_c, 0, 53, 0
2, 37288, Note_on_c, 0, 60, 0
2, 37308, Note_on_c, 0, 72, 0
2, 37456, Control_c, 0, 64, 104
2, 37464, Note_on_c, 0, 60, 68
2, 37472, Control_c, 0, 64, 24
2, 37484, Note_on_c, 0, 50, 51
2, 37488, Note_on_c, 0, 66, 65
2, 37488, Control_c, 0, 64, 0
2, 37492, Note_on_c, 0, 45, 39
2, 37540, Note_on_c, 0, 60, 0
2, 37552, Control_c, 0, 64, 56
2, 37564, Note_on_c, 0, 74, 94
2, 37564, Control_c, 0, 64, 127
2, 37568, Note_on_c, 0, 50, 0
2, 37580, Note_on_c, 0, 66, 0
2, 37592, Note_on_c, 0, 45, 0
2, 37612, Note_on_c, 0, 57, 67
2, 37672, Note_on_c, 0, 57, 0
2, 37756, Note_on_c, 0, 74, 0
2, 37836, Note_on_c, 0, 72, 92
2, 37892, Note_on_c, 0, 62, 26
2, 37944, Note_on_c, 0, 72, 0
2, 37980, Note_on_c, 0, 74, 76
2, 38040, Note_on_c, 0, 74, 0
2, 38048, Note_on_c, 0, 72, 81
2, 38056, Note_on_c, 0, 62, 0
2, 38116, Note_on_c, 0, 70, 90
2, 38120, Note_on_c, 0, 57, 53
2, 38136, Note_on_c, 0, 60, 46
2, 38148, Note_on_c, 0, 72, 0
2, 38292, Note_on_c, 0, 60, 0
2, 38360, Note_on_c, 0, 70, 0
2, 38364, Note_on_c, 0, 62, 66
2, 38372, Note_on_c, 0, 57, 0
2, 38376, Note_on_c, 0, 69, 92
2, 38432, Note_on_c, 0, 62, 0
2, 38468, Note_on_c, 0, 69, 0
2, 38536, Note_on_c, 0, 62, 72
2, 38604, Note_on_c, 0, 67, 72
2, 38636, Control_c, 0, 64, 104
2, 38652, Note_on_c, 0, 46, 57
2, 38652, Control_c, 0, 64, 24
2, 38664, Control_c, 0, 64, 0
2, 38680, Note_on_c, 0, 55, 56
2, 38724, Note_on_c, 0, 62, 0
2, 38724, Note_on_c, 0, 74, 95
2, 38776, Control_c, 0, 64, 104
2, 38788, Note_on_c, 0, 58, 66
2, 38788, Control_c, 0, 64, 127
2, 38792, Note_on_c, 0, 67, 0
2, 38792, Note_on_c, 0, 46, 0
2, 38824, Note_on_c, 0, 55, 0
2, 38868, Note_on_c, 0, 58, 0
2, 38984, Note_on_c, 0, 74, 0
2, 39008, Note_on_c, 0, 65, 69
2, 39268, Note_on_c, 0, 58, 59
2, 39276, Note_on_c, 0, 65, 0
2, 39300, Note_on_c, 0, 55, 56
2, 39564, Note_on_c, 0, 69, 75
2, 39568, Note_on_c, 0, 65, 70
2, 39596, Note_on_c, 0, 55, 0
2, 39632, Note_on_c, 0, 58, 0
2, 39656, Note_on_c, 0, 70, 73
2, 39660, Note_on_c, 0, 69, 0
2, 39688, Note_on_c, 0, 65, 0
2, 39740, Note_on_c, 0, 69, 73
2, 39760, Note_on_c, 0, 70, 0
2, 39856, Note_on_c, 0, 69, 0
2, 39896, Note_on_c, 0, 67, 76
2, 39900, Control_c, 0, 64, 56
2, 39904, Note_on_c, 0, 58, 60
2, 39916, Note_on_c, 0, 48, 60
2, 40016, Note_on_c, 0, 48, 0
2, 40024, Control_c, 0, 64, 127
2, 40028, Note_on_c, 0, 58, 0
2, 40092, Note_on_c, 0, 67, 0
2, 40228, Note_on_c, 0, 64, 54
2, 40432, Note_on_c, 0, 64, 0
2, 40544, Note_on_c, 0, 55, 48
2, 40544, Note_on_c, 0, 60, 47
2, 40796, Note_on_c, 0, 60, 0
2, 40872, Note_on_c, 0, 64, 52
2, 40924, Note_on_c, 0, 64, 0
2, 40932, Note_on_c, 0, 55, 0
2, 41148, Note_on_c, 0, 58, 49
2, 41204, Control_c, 0, 64, 56
2, 41212, Note_on_c, 0, 48, 41
2, 41216, Control_c, 0, 64, 0
2, 41220, Note_on_c, 0, 58, 0
2, 41232, Note_on_c, 0, 64, 60
2, 41232, Note_on_c, 0, 55, 34
2, 41308, Control_c, 0, 64, 104
2, 41324, Control_c, 0, 64, 127
2, 41332, Note_on_c, 0, 64, 0
2, 41348, Note_on_c, 0, 72, 87
2, 41388, Note_on_c, 0, 60, 46
2, 41396, Note_on_c, 0, 48, 0
2, 41404, Note_on_c, 0, 55, 0
2, 41428, Note_on_c, 0, 72, 0
2, 41464, Note_on_c, 0, 60, 0
2, 41668, Note_on_c, 0, 74, 82
2, 41680, Note_on_c, 0, 64, 57
2, 41860, Note_on_c, 0, 64, 0
2, 41860, Note_on_c, 0, 74, 0
2, 41936, Note_on_c, 0, 67, 78
2, 41960, Note_on_c, 0, 58, 50
2, 41964, Note_on_c, 0, 60, 47
2, 42088, Note_on_c, 0, 60, 0
2, 42128, Note_on_c, 0, 67, 0
2, 42172, Note_on_c, 0, 64, 63
2, 42212, Note_on_c, 0, 69, 82
2, 42216, Note_on_c, 0, 58, 0
2, 42220, Note_on_c, 0, 64, 0
2, 42308, Note_on_c, 0, 69, 0
2, 42368, Note_on_c, 0, 58, 68
2, 42396, Note_on_c, 0, 64, 73
2, 42424, Control_c, 0, 64, 104
2, 42440, Note_on_c, 0, 58, 0
2, 42440, Control_c, 0, 64, 24
2, 42456, Control_c, 0, 64, 0
2, 42464, Note_on_c, 0, 48, 63
2, 42468, Note_on_c, 0, 55, 52
2, 42472, Note_on_c, 0, 70, 82
2, 42500, Note_on_c, 0, 64, 0
2, 42520, Control_c, 0, 64, 88
2, 42532, Control_c, 0, 64, 127
2, 42548, Note_on_c, 0, 70, 0
2, 42716, Note_on_c, 0, 48, 0
2, 42728, Note_on_c, 0, 55, 0
2, 42740, Note_on_c, 0, 60, 65
2, 42744, Note_on_c, 0, 72, 97
2, 42792, Note_on_c, 0, 60, 0
2, 42832, Note_on_c, 0, 72, 0
2, 42924, Note_on_c, 0, 62, 58
2, 42968, Note_on_c, 0, 46, 64
2, 42968, Note_on_c, 0, 67, 73
2, 42984, Control_c, 0, 64, 40
2, 43000, Control_c, 0, 64, 0
2, 43036, Note_on_c, 0, 62, 0
2, 43044, Note_on_c, 0, 74, 104
2, 43060, Note_on_c, 0, 55, 48
2, 43060, Control_c, 0, 64, 127
2, 43076, Note_on_c, 0, 67, 0
2, 43092, Note_on_c, 0, 46, 0
2, 43128, Note_on_c, 0, 74, 0
2, 43280, Note_on_c, 0, 55, 0
2, 43332, Note_on_c, 0, 60, 66
2, 43340, Note_on_c, 0, 76, 101
2, 43380, Note_on_c, 0, 60, 0
2, 43476, Note_on_c, 0, 76, 0
2, 43568, Note_on_c, 0, 45, 74
2, 43584, Note_on_c, 0, 69, 79
2, 43604, Control_c, 0, 64, 88
2, 43620, Control_c, 0, 64, 0
2, 43656, Note_on_c, 0, 76, 85
2, 43676, Note_on_c, 0, 45, 0
2, 43704, Note_on_c, 0, 52, 63
2, 43712, Control_c, 0, 64, 104
2, 43728, Control_c, 0, 64, 127
2, 43776, Note_on_c, 0, 52, 0
2, 43776, Note_on_c, 0, 81, 107
2, 43820, Note_on_c, 0, 61, 51
2, 43940, Note_on_c, 0, 61, 0
2, 44100, Note_on_c, 0, 61, 68
2, 44100, Note_on_c, 0, 57, 50
2, 44108, Note_on_c, 0, 52, 67
2, 44120, Note_on_c, 0, 69, 0
2, 44136, Note_on_c, 0, 76, 0
2, 44136, Note_on_c, 0, 52, 0
2, 44148, Note_on_c, 0, 57, 0
2, 44200, Note_on_c, 0, 61, 0
2, 44388, Note_on_c, 0, 57, 57
2, 44392, Note_on_c, 0, 64, 78
2, 44396, Note_on_c, 0, 61, 62
2, 44424, Note_on_c, 0, 57, 0
2, 44440, Note_on_c, 0, 61, 0
2, 44456, Note_on_c, 0, 64, 0
2, 44652, Note_on_c, 0, 69, 82
2, 44656, Note_on_c, 0, 64, 71
2, 44660, Note_on_c, 0, 61, 67
2, 44704, Note_on_c, 0, 64, 0
2, 44724, Note_on_c, 0, 61, 0
2, 44732, Note_on_c, 0, 69, 0
2, 44956, Note_on_c, 0, 73, 80
2, 44968, Note_on_c, 0, 69, 66
2, 44980, Note_on_c, 0, 64, 62
2, 45012, Control_c, 0, 64, 40
2, 45028, Control_c, 0, 64, 0
2, 45092, Control_c, 0, 64, 72
2, 45104, Control_c, 0, 64, 127
2, 45160, Note_on_c, 0, 73, 0
2, 45168, Note_on_c, 0, 64, 0
2, 45172, Note_on_c, 0, 69, 0
2, 45200, Note_on_c, 0, 81, 0
2, 45224, Note_on_c, 0, 76, 97
2, 45368, Note_on_c, 0, 76, 0
2, 45400, Note_on_c, 0, 77, 83
2, 45484, Note_on_c, 0, 76, 95
2, 45500, Note_on_c, 0, 77, 0
2, 45556, Note_on_c, 0, 74, 102
2, 45556, Control_c, 0, 64, 104
2, 45564, Note_on_c, 0, 76, 0
2, 45572, Control_c, 0, 64, 0
2, 45596, Note_on_c, 0, 68, 58
2, 45604, Note_on_c, 0, 58, 48
2, 45616, Note_on_c, 0, 62, 51
2, 45656, Note_on_c, 0, 62, 0
2, 45660, Control_c, 0, 64, 127
2, 45680, Note_on_c, 0, 68, 0
2, 45704, Note_on_c, 0, 58, 0
2, 45796, Note_on_c, 0, 74, 0
2, 45824, Note_on_c, 0, 76, 101
2, 45944, Note_on_c, 0, 76, 0
2, 46016, Note_on_c, 0, 45, 75
2, 46024, Note_on_c, 0, 69, 71
2, 46036, Control_c, 0, 64, 24
2, 46052, Control_c, 0, 64, 0
2, 46060, Note_on_c, 0, 52, 63
2, 46080, Note_on_c, 0, 76, 79
2, 46092, Note_on_c, 0, 45, 0
2, 46128, Control_c, 0, 64, 88
2, 46144, Control_c, 0, 64, 127
2, 46168, Note_on_c, 0, 52, 0
2, 46180, Note_on_c, 0, 81, 110
2, 46188, Note_on_c, 0, 61, 59
2, 46216, Note_on_c, 0, 76, 0
2, 46256, Note_on_c, 0, 61, 0
2, 46480, Note_on_c, 0, 52, 77
2, 46480, Note_on_c, 0, 61, 65
2, 46500, Note_on_c, 0, 57, 43
2, 46504, Note_on_c, 0, 52, 0
2, 46532, Note_on_c, 0, 57, 0
2, 46532, Note_on_c, 0, 69, 0
2, 46560, Note_on_c, 0, 61, 0
2, 46732, Note_on_c, 0, 61, 69
2, 46736, Note_on_c, 0, 64, 82
2, 46740, Note_on_c, 0, 57, 60
2, 46768, Note_on_c, 0, 57, 0
2, 46788, Note_on_c, 0, 61, 0
2, 46812, Note_on_c, 0, 64, 0
2, 46996, Note_on_c, 0, 61, 70
2, 47000, Note_on_c, 0, 69, 88
2, 47000, Note_on_c, 0, 64, 75
2, 47028, Note_on_c, 0, 64, 0
2, 47048, Note_on_c, 0, 61, 0
2, 47072, Note_on_c, 0, 69, 0
2, 47344, Note_on_c, 0, 73, 87
2, 47352, Note_on_c, 0, 69, 70
2, 47368, Note_on_c, 0, 64, 71
2, 47384, Control_c, 0, 64, 56
2, 47396, Control_c, 0, 64, 0
2, 47444, Control_c, 0, 64, 72
2, 47460, Control_c, 0, 64, 127
2, 47512, Note_on_c, 0, 69, 0
2, 47512, Note_on_c, 0, 73, 0
2, 47520, Note_on_c, 0, 64, 0
2, 47628, Note_on_c, 0, 81, 0
2, 47660, Note_on_c, 0, 76, 98
2, 47832, Note_on_c, 0, 76, 0
2, 47868, Note_on_c, 0, 77, 86
2, 47936, Note_on_c, 0, 76, 94
2, 47976, Note_on_c, 0, 77, 0
2, 48016, Note_on_c, 0, 76, 0
2, 48040, Note_on_c, 0, 75, 92
2, 48056, Note_on_c, 0, 67, 68
2, 48064, Control_c, 0, 64, 104
2, 48076, Note_on_c, 0, 49, 63
2, 48080, Control_c, 0, 64, 0
2, 48088, Note_on_c, 0, 57, 66
2, 48156, Control_c, 0, 64, 56
2, 48172, Control_c, 0, 64, 127
2, 48296, Note_on_c, 0, 67, 0
2, 48316, Note_on_c, 0, 75, 0
2, 48332, Note_on_c, 0, 49, 0
2, 48376, Note_on_c, 0, 76, 110
2, 48408, Note_on_c, 0, 57, 0
2, 48480, Control_c, 0, 64, 88
2, 48496, Control_c, 0, 64, 0
2, 48540, Note_on_c, 0, 50, 67
2, 48544, Control_c, 0, 64, 56
2, 48560, Control_c, 0, 64, 127
2, 48576, Note_on_c, 0, 50, 0
2, 48588, Note_on_c, 0, 57, 64
2, 48600, Note_on_c, 0, 76, 0
2, 48724, Note_on_c, 0, 64, 61
2, 48796, Note_on_c, 0, 79, 102
2, 48828, Note_on_c, 0, 69, 60
2, 48860, Note_on_c, 0, 69, 0
2, 49004, Note_on_c, 0, 79, 0
2, 49104, Note_on_c, 0, 64, 0
2, 49244, Note_on_c, 0, 77, 101
2, 49264, Note_on_c, 0, 62, 55
2, 49372, Note_on_c, 0, 77, 0
2, 49528, Note_on_c, 0, 76, 97
2, 49548, Note_on_c, 0, 67, 71
2, 49584, Note_on_c, 0, 67, 0
2, 49740, Note_on_c, 0, 76, 0
2, 49812, Note_on_c, 0, 74, 90
2, 49824, Note_on_c, 0, 65, 66
2, 49876, Note_on_c, 0, 65, 0
2, 50016, Note_on_c, 0, 74, 0
2, 50076, Note_on_c, 0, 73, 90
2, 50088, Note_on_c, 0, 64, 68
2, 50124, Control_c, 0, 64, 88
2, 50132, Note_on_c, 0, 64, 0
2, 50140, Control_c, 0, 64, 24
2, 50156, Control_c, 0, 64, 0
2, 50172, Control_c, 0, 64, 24
2, 50188, Control_c, 0, 64, 88
2, 50204, Control_c, 0, 64, 127
2, 50316, Note_on_c, 0, 73, 0
2, 50356, Note_on_c, 0, 74, 87
2, 50376, Note_on_c, 0, 65, 64
2, 50444, Note_on_c, 0, 57, 0
2, 50464, Note_on_c, 0, 65, 0
2, 50572, Note_on_c, 0, 62, 0
2, 50604, Note_on_c, 0, 74, 0
2, 50636, Note_on_c, 0, 76, 92
2, 50668, Note_on_c, 0, 61, 53
2, 50740, Note_on_c, 0, 76, 0
2, 50896, Note_on_c, 0, 61, 0
2, 50920, Note_on_c, 0, 62, 61
2, 50948, Note_on_c, 0, 62, 0
2, 50948, Note_on_c, 0, 77, 94
2, 51032, Note_on_c, 0, 77, 0
2, 51144, Control_c, 0, 64, 104
2, 51160, Control_c, 0, 64, 0
2, 51164, Note_on_c, 0, 62, 75
2, 51172, Note_on_c, 0, 46, 53
2, 51208, Control_c, 0, 64, 56
2, 51224, Control_c, 0, 64, 127
2, 51236, Note_on_c, 0, 62, 0
2, 51256, Note_on_c, 0, 55, 49
2, 51304, Note_on_c, 0, 46, 0
2, 51324, Note_on_c, 0, 77, 98
2, 51384, Note_on_c, 0, 55, 0
2, 51396, Note_on_c, 0, 77, 0
2, 51716, Note_on_c, 0, 74, 91
2, 51900, Note_on_c, 0, 74, 0
2, 51976, Note_on_c, 0, 70, 78
2, 52008, Note_on_c, 0, 62, 52
2, 52148, Note_on_c, 0, 70, 0
2, 52216, Note_on_c, 0, 69, 78
2, 52244, Note_on_c, 0, 62, 0
2, 52276, Note_on_c, 0, 60, 56
2, 52284, Note_on_c, 0, 69, 0
2, 52296, Note_on_c, 0, 70, 75
2, 52392, Note_on_c, 0, 70, 0
2, 52392, Note_on_c, 0, 69, 87
2, 52456, Note_on_c, 0, 60, 0
2, 52476, Note_on_c, 0, 62, 46
2, 52492, Note_on_c, 0, 69, 0
2, 52516, Note_on_c, 0, 66, 75
2, 52524, Note_on_c, 0, 57, 50
2, 52588, Control_c, 0, 64, 56
2, 52604, Control_c, 0, 64, 0
2, 52632, Control_c, 0, 64, 24
2, 52648, Control_c, 0, 64, 88
2, 52664, Control_c, 0, 64, 127
2, 52816, Note_on_c, 0, 66, 0
2, 52820, Control_c, 0, 64, 104
2, 52828, Note_on_c, 0, 67, 86
2, 52836, Control_c, 0, 64, 24
2, 52844, Note_on_c, 0, 57, 0
2, 52852, Control_c, 0, 64, 0
2, 52860, Note_on_c, 0, 58, 47
2, 52896, Control_c, 0, 64, 72
2, 52912, Control_c, 0, 64, 127
2, 52916, Note_on_c, 0, 62, 0
2, 53132, Note_on_c, 0, 67, 0
2, 53152, Note_on_c, 0, 70, 78
2, 53188, Note_on_c, 0, 62, 48
2, 53284, Note_on_c, 0, 62, 0
2, 53324, Note_on_c, 0, 58, 0
2, 53500, Note_on_c, 0, 70, 0
2, 53508, Note_on_c, 0, 74, 80
2, 53676, Note_on_c, 0, 74, 0
2, 53716, Note_on_c, 0, 48, 59
2, 53732, Note_on_c, 0, 64, 64
2, 53732, Note_on_c, 0, 55, 32
2, 53732, Control_c, 0, 64, 72
2, 53748, Control_c, 0, 64, 0
2, 53796, Control_c, 0, 64, 24
2, 53808, Control_c, 0, 64, 88
2, 53824, Control_c, 0, 64, 127
2, 53832, Note_on_c, 0, 70, 62
2, 53976, Note_on_c, 0, 74, 87
2, 54200, Note_on_c, 0, 74, 0
2, 54208, Note_on_c, 0, 64, 0
2, 54216, Note_on_c, 0, 70, 0
2, 54268, Note_on_c, 0, 48, 0
2, 54684, Note_on_c, 0, 64, 73
2, 54696, Note_on_c, 0, 58, 35
2, 54716, Note_on_c, 0, 62, 57
2, 54804, Control_c, 0, 64, 104
2, 54816, Control_c, 0, 64, 40
2, 54832, Control_c, 0, 64, 0
2, 54880, Control_c, 0, 64, 72
2, 54896, Control_c, 0, 64, 127
2, 55072, Note_on_c, 0, 62, 0
2, 55108, Note_on_c, 0, 58, 0
2, 55332, Note_on_c, 0, 61, 58
2, 55360, Note_on_c, 0, 64, 0
2, 55628, Note_on_c, 0, 61, 0
2, 55640, Note_on_c, 0, 64, 74
2, 55744, Note_on_c, 0, 64, 0
2, 56024, Note_on_c, 0, 64, 68
2, 56076, Note_on_c, 0, 60, 52
2, 56104, Control_c, 0, 64, 72
2, 56116, Control_c, 0, 64, 0
2, 56208, Control_c, 0, 64, 72
2, 56224, Control_c, 0, 64, 127
2, 56248, Note_on_c, 0, 60, 0
2, 56256, Note_on_c, 0, 55, 0
2, 56380, Note_on_c, 0, 64, 0
2, 56384, Note_on_c, 0, 67, 81
2, 56496, Note_on_c, 0, 67, 0
2, 56596, Note_on_c, 0, 41, 56
2, 56620, Note_on_c, 0, 48, 57
2, 56844, Note_on_c, 0, 67, 75
2, 56844, Note_on_c, 0, 57, 59
2, 56860, Note_on_c, 0, 60, 57
2, 56860, Control_c, 0, 64, 88
2, 56876, Control_c, 0, 64, 24
2, 56892, Control_c, 0, 64, 0
2, 57016, Control_c, 0, 64, 88
2, 57032, Control_c, 0, 64, 127
2, 57172, Control_c, 0, 64, 104
2, 57184, Note_on_c, 0, 67, 0
2, 57188, Control_c, 0, 64, 56
2, 57192, Note_on_c, 0, 65, 71
2, 57204, Control_c, 0, 64, 40
2, 57216, Control_c, 0, 64, 56
2, 57232, Control_c, 0, 64, 104
2, 57248, Control_c, 0, 64, 127
2, 57308, Note_on_c, 0, 65, 0
2, 57432, Note_on_c, 0, 65, 59
2, 57488, Note_on_c, 0, 65, 0
2, 57496, Note_on_c, 0, 67, 65
2, 57572, Note_on_c, 0, 65, 73
2, 57580, Note_on_c, 0, 67, 0
2, 57604, Control_c, 0, 64, 104
2, 57620, Control_c, 0, 64, 72
2, 57636, Control_c, 0, 64, 0
2, 57772, Control_c, 0, 64, 56
2, 57792, Control_c, 0, 64, 127
2, 57840, Note_on_c, 0, 65, 0
2, 58148, Note_on_c, 0, 64, 61
2, 58248, Note_on_c, 0, 64, 0
2, 58284, Note_on_c, 0, 65, 57
2, 58380, Control_c, 0, 64, 88
2, 58396, Control_c, 0, 64, 72
2, 58412, Control_c, 0, 64, 56
2, 58424, Control_c, 0, 64, 24
2, 58440, Control_c, 0, 64, 0
2, 59168, Note_on_c, 0, 60, 0
2, 59204, Note_on_c, 0, 65, 0
2, 59220, Note_on_c, 0, 48, 0
2, 59224, Note_on_c, 0, 41, 0
2, 59232, Note_on_c, 0, 57, 0
2, 59500, Note_on_c, 0, 77, 71
2, 59652, Control_c, 0, 64, 88
2, 59668, Control_c, 0, 64, 127
2, 59692, Note_on_c, 0, 77, 0
2, 59708, Note_on_c, 0, 65, 57
2, 59800, Note_on_c, 0, 71, 47
2, 59812, Note_on_c, 0, 50, 39
2, 59812, Note_on_c, 0, 55, 40
2, 59820, Note_on_c, 0, 43, 50
2, 59868, Note_on_c, 0, 65, 0
2, 59892, Note_on_c, 0, 76, 85
2, 59924, Note_on_c, 0, 71, 0
2, 59924, Note_on_c, 0, 43, 0
2, 59952, Note_on_c, 0, 50, 0
2, 59968, Note_on_c, 0, 55, 0
2, 60144, Note_on_c, 0, 76, 0
2, 60208, Note_on_c, 0, 74, 87
2, 60224, Note_on_c, 0, 65, 52
2, 60408, Note_on_c, 0, 65, 0
2, 60424, Note_on_c, 0, 74, 0
2, 60456, Note_on_c, 0, 73, 77
2, 60484, Note_on_c, 0, 59, 47
2, 60504, Note_on_c, 0, 55, 47
2, 60664, Note_on_c, 0, 73, 0
2, 60684, Note_on_c, 0, 65, 68
2, 60692, Note_on_c, 0, 74, 81
2, 60716, Note_on_c, 0, 65, 0
2, 60724, Note_on_c, 0, 55, 0
2, 60728, Note_on_c, 0, 59, 0
2, 60780, Note_on_c, 0, 74, 0
2, 60840, Note_on_c, 0, 62, 52
2, 60908, Note_on_c, 0, 65, 58
2, 60920, Control_c, 0, 64, 40
2, 60932, Note_on_c, 0, 62, 0
2, 60936, Control_c, 0, 64, 0
2, 60964, Note_on_c, 0, 43, 61
2, 60972, Note_on_c, 0, 50, 47
2, 60972, Note_on_c, 0, 55, 31
2, 60972, Note_on_c, 0, 72, 88
2, 60996, Note_on_c, 0, 65, 0
2, 61000, Note_on_c, 0, 43, 0
2, 61000, Control_c, 0, 64, 24
2, 61016, Control_c, 0, 64, 88
2, 61020, Note_on_c, 0, 50, 0
2, 61032, Control_c, 0, 64, 127
2, 61052, Note_on_c, 0, 55, 0
2, 61148, Note_on_c, 0, 72, 0
2, 61204, Note_on_c, 0, 71, 85
2, 61232, Note_on_c, 0, 65, 57
2, 61384, Note_on_c, 0, 65, 0
2, 61404, Note_on_c, 0, 71, 0
2, 61440, Note_on_c, 0, 69, 86
2, 61464, Note_on_c, 0, 59, 45
2, 61480, Note_on_c, 0, 55, 46
2, 61592, Note_on_c, 0, 55, 0
2, 61612, Note_on_c, 0, 59, 0
2, 61616, Note_on_c, 0, 69, 0
2, 61664, Note_on_c, 0, 65, 54
2, 61692, Note_on_c, 0, 71, 78
2, 61700, Note_on_c, 0, 65, 0
2, 61792, Note_on_c, 0, 71, 0
2, 61868, Note_on_c, 0, 60, 45
2, 61908, Note_on_c, 0, 63, 67
2, 61924, Control_c, 0, 64, 72
2, 61944, Control_c, 0, 64, 0
2, 61960, Note_on_c, 0, 48, 61
2, 62004, Note_on_c, 0, 69, 87
2, 62036, Note_on_c, 0, 63, 0
2, 62052, Note_on_c, 0, 60, 0
2, 62060, Control_c, 0, 64, 88
2, 62064, Note_on_c, 0, 48, 0
2, 62076, Control_c, 0, 64, 127
2, 62228, Note_on_c, 0, 66, 61
2, 62424, Note_on_c, 0, 66, 0
2, 62472, Note_on_c, 0, 54, 60
2, 62712, Note_on_c, 0, 69, 0
2, 62724, Note_on_c, 0, 66, 69
2, 62724, Note_on_c, 0, 57, 55
2, 62732, Note_on_c, 0, 54, 0
2, 62800, Note_on_c, 0, 57, 0
2, 62800, Note_on_c, 0, 66, 0
2, 62944, Note_on_c, 0, 55, 45
2, 62972, Note_on_c, 0, 60, 48
2, 63000, Control_c, 0, 64, 40
2, 63012, Note_on_c, 0, 52, 47
2, 63016, Control_c, 0, 64, 0
2, 63068, Note_on_c, 0, 67, 72
2, 63076, Note_on_c, 0, 55, 0
2, 63112, Note_on_c, 0, 60, 0
2, 63132, Control_c, 0, 64, 104
2, 63148, Control_c, 0, 64, 127
2, 63188, Note_on_c, 0, 67, 0
2, 63260, Note_on_c, 0, 52, 0
2, 63272, Note_on_c, 0, 43, 57
2, 63324, Note_on_c, 0, 43, 0
2, 63568, Note_on_c, 0, 36, 52
2, 63640, Note_on_c, 0, 36, 0
2, 63876, Note_on_c, 0, 77, 90
2, 64028, Note_on_c, 0, 77, 0
2, 64080, Note_on_c, 0, 65, 52
2, 64140, Control_c, 0, 64, 40
2, 64152, Note_on_c, 0, 43, 54
2, 64156, Note_on_c, 0, 50, 52
2, 64156, Control_c, 0, 64, 0
2, 64160, Note_on_c, 0, 71, 71
2, 64236, Control_c, 0, 64, 40
2, 64248, Note_on_c, 0, 65, 0
2, 64252, Control_c, 0, 64, 127
2, 64272, Note_on_c, 0, 76, 92
2, 64288, Note_on_c, 0, 71, 0
2, 64292, Note_on_c, 0, 43, 0
2, 64292, Note_on_c, 0, 55, 35
2, 64308, Note_on_c, 0, 50, 0
2, 64368, Note_on_c, 0, 55, 0
2, 64528, Note_on_c, 0, 76, 0
2, 64584, Note_on_c, 0, 65, 57
2, 64588, Note_on_c, 0, 74, 92
2, 64728, Note_on_c, 0, 65, 0
2, 64768, Note_on_c, 0, 74, 0
2, 64820, Note_on_c, 0, 73, 89
2, 64840, Note_on_c, 0, 59, 51
2, 64848, Note_on_c, 0, 55, 53
2, 64972, Note_on_c, 0, 55, 0
2, 65028, Note_on_c, 0, 73, 0
2, 65036, Note_on_c, 0, 65, 62
2, 65048, Note_on_c, 0, 74, 93
2, 65068, Note_on_c, 0, 65, 0
2, 65068, Note_on_c, 0, 59, 0
2, 65136, Note_on_c, 0, 74, 0
2, 65224, Note_on_c, 0, 62, 53
2, 65244, Note_on_c, 0, 65, 76
2, 65264, Control_c, 0, 64, 56
2, 65280, Control_c, 0, 64, 0
2, 65304, Note_on_c, 0, 43, 60
2, 65308, Note_on_c, 0, 55, 43
2, 65320, Note_on_c, 0, 62, 0
2, 65328, Note_on_c, 0, 72, 92
2, 65332, Note_on_c, 0, 50, 30
2, 65344, Note_on_c, 0, 65, 0
2, 65352, Note_on_c, 0, 43, 0
2, 65360, Control_c, 0, 64, 56
2, 65368, Note_on_c, 0, 50, 0
2, 65376, Control_c, 0, 64, 127
2, 65400, Note_on_c, 0, 55, 0
2, 65480, Note_on_c, 0, 72, 0
2, 65560, Note_on_c, 0, 71, 87
2, 65568, Note_on_c, 0, 65, 60
2, 65712, Note_on_c, 0, 65, 0
2, 65736, Note_on_c, 0, 71, 0
2, 65780, Note_on_c, 0, 69, 90
2, 65804, Note_on_c, 0, 59, 52
2, 65816, Note_on_c, 0, 55, 43
2, 65920, Note_on_c, 0, 55, 0
2, 65936, Note_on_c, 0, 59, 0
2, 65936, Note_on_c, 0, 69, 0
2, 65988, Note_on_c, 0, 65, 65
2, 66000, Note_on_c, 0, 71, 90
2, 66024, Note_on_c, 0, 65, 0
2, 66092, Note_on_c, 0, 71, 0
2, 66180, Note_on_c, 0, 60, 60
2, 66208, Note_on_c, 0, 63, 66
2, 66240, Control_c, 0, 64, 40
2, 66256, Control_c, 0, 64, 0
2, 66276, Note_on_c, 0, 60, 0
2, 66276, Note_on_c, 0, 48, 53
2, 66300, Note_on_c, 0, 69, 91
2, 66332, Note_on_c, 0, 63, 0
2, 66356, Control_c, 0, 64, 72
2, 66372, Control_c, 0, 64, 127
2, 66376, Note_on_c, 0, 48, 0
2, 66528, Note_on_c, 0, 66, 65
2, 66724, Note_on_c, 0, 66, 0
2, 66760, Note_on_c, 0, 54, 53
2, 67016, Note_on_c, 0, 69, 0
2, 67020, Note_on_c, 0, 66, 65
2, 67024, Note_on_c, 0, 57, 52
2, 67028, Note_on_c, 0, 54, 0
2, 67056, Note_on_c, 0, 57, 0
2, 67092, Note_on_c, 0, 66, 0
2, 67236, Note_on_c, 0, 55, 41
2, 67248, Control_c, 0, 64, 104
2, 67252, Note_on_c, 0, 60, 44
2, 67264, Control_c, 0, 64, 24
2, 67280, Control_c, 0, 64, 0
2, 67312, Note_on_c, 0, 52, 49
2, 67344, Note_on_c, 0, 67, 69
2, 67364, Control_c, 0, 64, 40
2, 67372, Note_on_c, 0, 55, 0
2, 67380, Control_c, 0, 64, 127
2, 67388, Note_on_c, 0, 60, 0
2, 67460, Note_on_c, 0, 67, 0
2, 67532, Note_on_c, 0, 52, 0
2, 67580, Note_on_c, 0, 43, 58
2, 67628, Note_on_c, 0, 43, 0
2, 67848, Note_on_c, 0, 36, 50
2, 67920, Note_on_c, 0, 36, 0
2, 68152, Note_on_c, 0, 72, 90
2, 68192, Control_c, 0, 64, 104
2, 68208, Control_c, 0, 64, 0
2, 68292, Control_c, 0, 64, 72
2, 68308, Control_c, 0, 64, 127
2, 68320, Note_on_c, 0, 46, 62
2, 68336, Note_on_c, 0, 72, 0
2, 68368, Note_on_c, 0, 52, 53
2, 68384, Note_on_c, 0, 46, 0
2, 68384, Note_on_c, 0, 67, 56
2, 68384, Note_on_c, 0, 55, 49
2, 68440, Note_on_c, 0, 52, 0
2, 68456, Note_on_c, 0, 72, 79
2, 68468, Note_on_c, 0, 60, 55
2, 68480, Note_on_c, 0, 55, 0
2, 68496, Note_on_c, 0, 67, 0
2, 68516, Note_on_c, 0, 60, 0
2, 68576, Note_on_c, 0, 72, 0
2, 68596, Note_on_c, 0, 79, 97
2, 68964, Note_on_c, 0, 77, 92
2, 68988, Note_on_c, 0, 79, 0
2, 69224, Note_on_c, 0, 77, 0
2, 69240, Note_on_c, 0, 76, 92
2, 69448, Note_on_c, 0, 76, 0
2, 69472, Note_on_c, 0, 74, 90
2, 69732, Note_on_c, 0, 74, 0
2, 69744, Note_on_c, 0, 72, 80
2, 69756, Note_on_c, 0, 67, 82
2, 69792, Note_on_c, 0, 60, 47
2, 69796, Note_on_c, 0, 58, 44
2, 69820, Control_c, 0, 64, 72
2, 69836, Control_c, 0, 64, 0
2, 69848, Note_on_c, 0, 60, 0
2, 69932, Control_c, 0, 64, 40
2, 69948, Control_c, 0, 64, 104
2, 69968, Control_c, 0, 64, 127
2, 70036, Note_on_c, 0, 72, 0
2, 70044, Note_on_c, 0, 74, 82
2, 70232, Note_on_c, 0, 74, 0
2, 70280, Note_on_c, 0, 75, 83
2, 70472, Note_on_c, 0, 75, 0
2, 70500, Note_on_c, 0, 67, 0
2, 70508, Note_on_c, 0, 58, 0
2, 70528, Note_on_c, 0, 76, 90
2, 70544, Note_on_c, 0, 60, 70
2, 70676, Note_on_c, 0, 60, 0
2, 70820, Note_on_c, 0, 76, 0
2, 70836, Note_on_c, 0, 77, 81
2, 70852, Note_on_c, 0, 65, 79
2, 70860, Control_c, 0, 64, 104
2, 70872, Note_on_c, 0, 57, 67
2, 70876, Control_c, 0, 64, 40
2, 70896, Control_c, 0, 64, 0
2, 70992, Control_c, 0, 64, 72
2, 71008, Control_c, 0, 64, 127
2, 71116, Note_on_c, 0, 65, 0
2, 71128, Note_on_c, 0, 64, 79
2, 71276, Note_on_c, 0, 64, 0
2, 71392, Note_on_c, 0, 62, 71
2, 71580, Note_on_c, 0, 62, 0
2, 71608, Note_on_c, 0, 77, 0
2, 71656, Note_on_c, 0, 57, 0
2, 71660, Note_on_c, 0, 60, 71
2, 71664, Note_on_c, 0, 69, 74
2, 71692, Note_on_c, 0, 60, 0
2, 71868, Note_on_c, 0, 69, 0
2, 71952, Note_on_c, 0, 60, 83
2, 71952, Note_on_c, 0, 74, 72
2, 71952, Control_c, 0, 64, 72
2, 71964, Note_on_c, 0, 55, 67
2, 71968, Control_c, 0, 64, 0
2, 71976, Note_on_c, 0, 50, 62
2, 72064, Control_c, 0, 64, 72
2, 72080, Control_c, 0, 64, 127
2, 72220, Note_on_c, 0, 55, 0
2, 72220, Note_on_c, 0, 58, 74
2, 72228, Note_on_c, 0, 60, 0
2, 72256, Note_on_c, 0, 50, 0
2, 72280, Note_on_c, 0, 58, 0
2, 72472, Note_on_c, 0, 57, 70
2, 72492, Note_on_c, 0, 50, 61
2, 72500, Note_on_c, 0, 46, 47
2, 72504, Control_c, 0, 64, 56
2, 72520, Control_c, 0, 64, 0
2, 72568, Control_c, 0, 64, 40
2, 72584, Control_c, 0, 64, 88
2, 72604, Control_c, 0, 64, 127
2, 72608, Note_on_c, 0, 57, 0
2, 72736, Note_on_c, 0, 67, 75
2, 72752, Note_on_c, 0, 55, 67
2, 72764, Note_on_c, 0, 74, 0
2, 72784, Note_on_c, 0, 46, 0
2, 72804, Note_on_c, 0, 50, 0
2, 72836, Note_on_c, 0, 55, 0
2, 73008, Note_on_c, 0, 67, 0
2, 73032, Note_on_c, 0, 72, 78
2, 73048, Note_on_c, 0, 58, 64
2, 73060, Control_c, 0, 64, 40
2, 73068, Note_on_c, 0, 48, 59
2, 73076, Note_on_c, 0, 53, 56
2, 73076, Control_c, 0, 64, 0
2, 73156, Control_c, 0, 64, 40
2, 73172, Control_c, 0, 64, 104
2, 73188, Control_c, 0, 64, 127
2, 73224, Note_on_c, 0, 58, 0
2, 73304, Note_on_c, 0, 53, 0
2, 73308, Note_on_c, 0, 57, 69
2, 73320, Note_on_c, 0, 48, 0
2, 73392, Note_on_c, 0, 57, 0
2, 73564, Note_on_c, 0, 55, 69
2, 73564, Note_on_c, 0, 48, 51
2, 73580, Note_on_c, 0, 45, 60
2, 73748, Note_on_c, 0, 55, 0
2, 73756, Note_on_c, 0, 48, 0
2, 73824, Note_on_c, 0, 72, 0
2, 73832, Note_on_c, 0, 60, 80
2, 73844, Note_on_c, 0, 53, 73
2, 73872, Note_on_c, 0, 45, 0
2, 73904, Note_on_c, 0, 53, 0
2, 74092, Note_on_c, 0, 60, 0
2, 74144, Note_on_c, 0, 62, 74
2, 74160, Note_on_c, 0, 46, 54
2, 74164, Note_on_c, 0, 53, 65
2, 74172, Note_on_c, 0, 43, 56
2, 74180, Control_c, 0, 64, 88
2, 74196, Control_c, 0, 64, 0
2, 74296, Control_c, 0, 64, 72
2, 74312, Control_c, 0, 64, 127
2, 74348, Note_on_c, 0, 53, 0
2, 74420, Note_on_c, 0, 52, 73
2, 74472, Note_on_c, 0, 52, 0
2, 74472, Note_on_c, 0, 43, 0
2, 74480, Note_on_c, 0, 46, 0
2, 74648, Note_on_c, 0, 43, 53
2, 74656, Note_on_c, 0, 36, 59
2, 74668, Control_c, 0, 64, 104
2, 74684, Control_c, 0, 64, 24
2, 74700, Control_c, 0, 64, 0
2, 74732, Note_on_c, 0, 36, 0
2, 74732, Note_on_c, 0, 43, 0
2, 74732, Note_on_c, 0, 58, 52
2, 74732, Control_c, 0, 64, 24
2, 74752, Control_c, 0, 64, 88
2, 74764, Note_on_c, 0, 50, 53
2, 74768, Control_c, 0, 64, 127
2, 74940, Note_on_c, 0, 50, 0
2, 74996, Note_on_c, 0, 62, 0
2, 75032, Note_on_c, 0, 48, 71
2, 75036, Note_on_c, 0, 64, 75
2, 75052, Note_on_c, 0, 58, 0
2, 75112, Note_on_c, 0, 48, 0
2, 75272, Note_on_c, 0, 64, 0
2, 75352, Control_c, 0, 64, 88
2, 75368, Control_c, 0, 64, 24
2, 75380, Note_on_c, 0, 58, 57
2, 75384, Note_on_c, 0, 67, 73
2, 75384, Control_c, 0, 64, 0
2, 75400, Note_on_c, 0, 48, 51
2, 75408, Note_on_c, 0, 52, 53
2, 75416, Note_on_c, 0, 41, 60
2, 75416, Control_c, 0, 64, 40
2, 75432, Control_c, 0, 64, 104
2, 75448, Control_c, 0, 64, 127
2, 75464, Note_on_c, 0, 58, 0
2, 75484, Note_on_c, 0, 48, 0
2, 75492, Note_on_c, 0, 67, 0
2, 75528, Note_on_c, 0, 52, 0
2, 75568, Note_on_c, 0, 41, 0
2, 75700, Note_on_c, 0, 72, 90
2, 75708, Note_on_c, 0, 64, 67
2, 75732, Note_on_c, 0, 55, 60
2, 75776, Note_on_c, 0, 64, 0
2, 75912, Note_on_c, 0, 72, 0
2, 76012, Note_on_c, 0, 76, 87
2, 76020, Note_on_c, 0, 67, 74
2, 76048, Note_on_c, 0, 60, 54
2, 76076, Note_on_c, 0, 67, 0
2, 76104, Note_on_c, 0, 76, 0
2, 76356, Note_on_c, 0, 79, 81
2, 76364, Note_on_c, 0, 70, 54
2, 76380, Note_on_c, 0, 64, 51
2, 76480, Note_on_c, 0, 64, 0
2, 76488, Note_on_c, 0, 55, 0
2, 76492, Note_on_c, 0, 60, 0
2, 76516, Note_on_c, 0, 79, 0
2, 76644, Note_on_c, 0, 70, 0
2, 76760, Note_on_c, 0, 77, 75
2, 76780, Note_on_c, 0, 65, 43
2, 76784, Note_on_c, 0, 60, 36
2, 76792, Note_on_c, 0, 69, 45
2, 76808, Note_on_c, 0, 53, 39
2, 76916, Control_c, 0, 64, 72
2, 76932, Control_c, 0, 64, 0
2, 77028, Note_on_c, 0, 60, 0
2, 77044, Control_c, 0, 64, 88
2, 77060, Control_c, 0, 64, 127
2, 77340, Note_on_c, 0, 65, 0
2, 77512, Note_on_c, 0, 62, 47
2, 77524, Note_on_c, 0, 59, 41
2, 77532, Control_c, 0, 64, 88
2, 77548, Control_c, 0, 64, 0
2, 77584, Note_on_c, 0, 69, 0
2, 77644, Note_on_c, 0, 77, 0
2, 77644, Control_c, 0, 64, 72
2, 77664, Control_c, 0, 64, 127
2, 77960, Note_on_c, 0, 77, 75
2, 78076, Note_on_c, 0, 77, 0
2, 78100, Control_c, 0, 64, 40
2, 78112, Control_c, 0, 64, 104
2, 78124, Control_c, 0, 64, 127
2, 78128, Note_on_c, 0, 64, 66
2, 78144, Note_on_c, 0, 45, 61
2, 78216, Note_on_c, 0, 45, 0
2, 78224, Note_on_c, 0, 64, 0
2, 78224, Note_on_c, 0, 52, 51
2, 78228, Note_on_c, 0, 69, 72
2, 78256, Note_on_c, 0, 59, 0
2, 78260, Note_on_c, 0, 62, 0
2, 78260, Note_on_c, 0, 53, 0
2, 78300, Note_on_c, 0, 52, 0
2, 78316, Note_on_c, 0, 69, 0
2, 78324, Note_on_c, 0, 76, 88
2, 78348, Note_on_c, 0, 60, 61
2, 78380, Note_on_c, 0, 60, 0
2, 78520, Note_on_c, 0, 76, 0
2, 78536, Note_on_c, 0, 69, 80
2, 78656, Control_c, 0, 64, 88
2, 78668, Control_c, 0, 64, 40
2, 78688, Note_on_c, 0, 62, 50
2, 78696, Note_on_c, 0, 65, 53
2, 78696, Note_on_c, 0, 57, 47
2, 78704, Control_c, 0, 64, 127
2, 78720, Note_on_c, 0, 62, 0
2, 78728, Note_on_c, 0, 57, 0
2, 78728, Note_on_c, 0, 65, 0
2, 78808, Note_on_c, 0, 69, 0
2, 78824, Note_on_c, 0, 71, 85
2, 78960, Control_c, 0, 64, 72
2, 78972, Control_c, 0, 64, 40
2, 78980, Note_on_c, 0, 64, 58
2, 78980, Control_c, 0, 64, 56
2, 78984, Note_on_c, 0, 69, 54
2, 78992, Note_on_c, 0, 57, 50
2, 78992, Control_c, 0, 64, 88
2, 79004, Control_c, 0, 64, 127
2, 79020, Note_on_c, 0, 69, 0
2, 79032, Note_on_c, 0, 64, 0
2, 79040, Note_on_c, 0, 57, 0
2, 79092, Note_on_c, 0, 71, 0
2, 79108, Note_on_c, 0, 72, 91
2, 79260, Control_c, 0, 64, 88
2, 79272, Note_on_c, 0, 65, 58
2, 79276, Note_on_c, 0, 69, 62
2, 79276, Control_c, 0, 64, 24
2, 79284, Control_c, 0, 64, 0
2, 79292, Note_on_c, 0, 57, 50
2, 79308, Control_c, 0, 64, 56
2, 79320, Note_on_c, 0, 57, 0
2, 79320, Control_c, 0, 64, 104
2, 79328, Note_on_c, 0, 65, 0
2, 79332, Control_c, 0, 64, 127
2, 79336, Note_on_c, 0, 69, 0
2, 79400, Note_on_c, 0, 72, 0
2, 79400, Note_on_c, 0, 74, 90
2, 79488, Note_on_c, 0, 74, 0
2, 79564, Control_c, 0, 64, 72
2, 79576, Control_c, 0, 64, 0
2, 79580, Note_on_c, 0, 76, 87
2, 79584, Note_on_c, 0, 69, 68
2, 79596, Note_on_c, 0, 60, 51
2, 79624, Note_on_c, 0, 57, 52
2, 79624, Control_c, 0, 64, 72
2, 79632, Control_c, 0, 64, 127
2, 79660, Note_on_c, 0, 76, 0
2, 79664, Note_on_c, 0, 77, 87
2, 79748, Note_on_c, 0, 76, 85
2, 79760, Note_on_c, 0, 77, 0
2, 79816, Note_on_c, 0, 76, 0
2, 79824, Note_on_c, 0, 74, 83
2, 79892, Note_on_c, 0, 76, 84
2, 79912, Note_on_c, 0, 74, 0
2, 79968, Note_on_c, 0, 76, 0
2, 79980, Note_on_c, 0, 77, 86
2, 79988, Note_on_c, 0, 60, 0
2, 80016, Note_on_c, 0, 59, 54
2, 80064, Control_c, 0, 64, 72
2, 80076, Control_c, 0, 64, 0
2, 80120, Note_on_c, 0, 77, 0
2, 80156, Control_c, 0, 64, 72
2, 80168, Control_c, 0, 64, 127
2, 80312, Note_on_c, 0, 74, 75
2, 80380, Note_on_c, 0, 59, 0
2, 80388, Note_on_c, 0, 74, 0
2, 80412, Note_on_c, 0, 76, 73
2, 80432, Note_on_c, 0, 60, 46
2, 80528, Control_c, 0, 64, 72
2, 80540, Control_c, 0, 64, 0
2, 80656, Control_c, 0, 64, 40
2, 80668, Control_c, 0, 64, 88
2, 80680, Control_c, 0, 64, 127
2, 80732, Note_on_c, 0, 57, 0
2, 80764, Note_on_c, 0, 76, 0
2, 80772, Note_on_c, 0, 60, 0
2, 80884, Note_on_c, 0, 69, 0
2, 80968, Control_c, 0, 64, 72
2, 80980, Control_c, 0, 64, 0
2, 81008, Note_on_c, 0, 77, 88
2, 81104, Note_on_c, 0, 77, 0
2, 81108, Control_c, 0, 64, 127
2, 81152, Note_on_c, 0, 45, 57
2, 81156, Note_on_c, 0, 64, 70
2, 81168, Note_on_c, 0, 52, 55
2, 81220, Note_on_c, 0, 45, 0
2, 81236, Note_on_c, 0, 52, 0
2, 81240, Note_on_c, 0, 69, 78
2, 81248, Note_on_c, 0, 64, 0
2, 81292, Note_on_c, 0, 60, 53
2, 81312, Note_on_c, 0, 76, 97
2, 81324, Note_on_c, 0, 60, 0
2, 81324, Note_on_c, 0, 69, 0
2, 81508, Note_on_c, 0, 69, 83
2, 81516, Note_on_c, 0, 76, 0
2, 81632, Control_c, 0, 64, 56
2, 81644, Control_c, 0, 64, 0
2, 81648, Note_on_c, 0, 57, 56
2, 81648, Note_on_c, 0, 62, 57
2, 81652, Note_on_c, 0, 65, 56
2, 81680, Control_c, 0, 64, 88
2, 81688, Note_on_c, 0, 62, 0
2, 81688, Control_c, 0, 64, 127
2, 81700, Note_on_c, 0, 57, 0
2, 81712, Note_on_c, 0, 65, 0
2, 81772, Note_on_c, 0, 69, 0
2, 81796, Note_on_c, 0, 71, 87
2, 81936, Control_c, 0, 64, 72
2, 81944, Note_on_c, 0, 69, 65
2, 81944, Note_on_c, 0, 64, 57
2, 81944, Control_c, 0, 64, 56
2, 81952, Note_on_c, 0, 57, 48
2, 81956, Control_c, 0, 64, 88
2, 81968, Control_c, 0, 64, 127
2, 81980, Note_on_c, 0, 57, 0
2, 81996, Note_on_c, 0, 69, 0
2, 82000, Note_on_c, 0, 64, 0
2, 82096, Note_on_c, 0, 71, 0
2, 82104, Note_on_c, 0, 72, 87
2, 82260, Control_c, 0, 64, 88
2, 82272, Control_c, 0, 64, 24
2, 82284, Note_on_c, 0, 69, 60
2, 82284, Note_on_c, 0, 65, 50
2, 82304, Note_on_c, 0, 57, 49
2, 82304, Control_c, 0, 64, 127
2, 82332, Note_on_c, 0, 57, 0
2, 82344, Note_on_c, 0, 65, 0
2, 82348, Note_on_c, 0, 69, 0
2, 82416, Note_on_c, 0, 74, 87
2, 82428, Note_on_c, 0, 72, 0
2, 82488, Note_on_c, 0, 74, 0
2, 82584, Control_c, 0, 64, 56
2, 82596, Control_c, 0, 64, 0
2, 82600, Note_on_c, 0, 76, 87
2, 82600, Note_on_c, 0, 69, 58
2, 82620, Note_on_c, 0, 60, 51
2, 82620, Control_c, 0, 64, 24
2, 82624, Note_on_c, 0, 57, 54
2, 82628, Note_on_c, 0, 69, 0
2, 82632, Control_c, 0, 64, 72
2, 82640, Control_c, 0, 64, 127
2, 82668, Note_on_c, 0, 76, 0
2, 82680, Note_on_c, 0, 77, 89
2, 82760, Note_on_c, 0, 76, 87
2, 82768, Note_on_c, 0, 77, 0
2, 82832, Note_on_c, 0, 76, 0
2, 82844, Note_on_c, 0, 74, 87
2, 82904, Note_on_c, 0, 76, 88
2, 82928, Note_on_c, 0, 74, 0
2, 83012, Note_on_c, 0, 76, 0
2, 83032, Note_on_c, 0, 81, 91
2, 83036, Note_on_c, 0, 60, 0
2, 83036, Note_on_c, 0, 74, 75
2, 83064, Note_on_c, 0, 59, 53
2, 83120, Control_c, 0, 64, 40
2, 83132, Control_c, 0, 64, 0
2, 83188, Control_c, 0, 64, 56
2, 83200, Control_c, 0, 64, 127
2, 83268, Note_on_c, 0, 81, 0
2, 83300, Note_on_c, 0, 74, 0
2, 83428, Note_on_c, 0, 77, 79
2, 83504, Note_on_c, 0, 59, 0
2, 83528, Note_on_c, 0, 77, 0
2, 83552, Note_on_c, 0, 76, 73
2, 83556, Note_on_c, 0, 60, 49
2, 83564, Note_on_c, 0, 69, 46
2, 83672, Control_c, 0, 64, 72
2, 83684, Control_c, 0, 64, 0
2, 83808, Control_c, 0, 64, 40
2, 83820, Control_c, 0, 64, 88
2, 83832, Control_c, 0, 64, 127
2, 83840, Note_on_c, 0, 57, 0
2, 83928, Note_on_c, 0, 60, 0
2, 84012, Note_on_c, 0, 76, 0
2, 84092, Note_on_c, 0, 69, 0
2, 84176, Note_on_c, 0, 76, 90
2, 84288, Control_c, 0, 64, 72
2, 84300, Control_c, 0, 64, 0
2, 84400, Note_on_c, 0, 76, 0
2, 84404, Note_on_c, 0, 77, 92
2, 84412, Note_on_c, 0, 45, 73
2, 84436, Control_c, 0, 64, 127
2, 84456, Note_on_c, 0, 45, 0
2, 84624, Note_on_c, 0, 60, 61
2, 84636, Note_on_c, 0, 57, 59
2, 84644, Note_on_c, 0, 77, 0
2, 84788, Note_on_c, 0, 77, 91
2, 84800, Note_on_c, 0, 62, 65
2, 84912, Note_on_c, 0, 62, 0
2, 84940, Note_on_c, 0, 64, 85
2, 84952, Note_on_c, 0, 77, 0
2, 85048, Note_on_c, 0, 64, 0
2, 85120, Note_on_c, 0, 77, 92
2, 85124, Control_c, 0, 64, 104
2, 85128, Note_on_c, 0, 65, 73
2, 85136, Control_c, 0, 64, 40
2, 85148, Control_c, 0, 64, 0
2, 85160, Control_c, 0, 64, 24
2, 85168, Control_c, 0, 64, 72
2, 85180, Control_c, 0, 64, 127
2, 85192, Note_on_c, 0, 65, 0
2, 85192, Note_on_c, 0, 77, 0
2, 85200, Note_on_c, 0, 60, 0
2, 85204, Note_on_c, 0, 79, 90
2, 85208, Note_on_c, 0, 57, 0
2, 85268, Note_on_c, 0, 77, 90
2, 85284, Note_on_c, 0, 79, 0
2, 85348, Note_on_c, 0, 77, 0
2, 85348, Note_on_c, 0, 76, 92
2, 85392, Control_c, 0, 64, 40
2, 85404, Control_c, 0, 64, 0
2, 85408, Note_on_c, 0, 77, 97
2, 85416, Note_on_c, 0, 45, 68
2, 85428, Note_on_c, 0, 76, 0
2, 85448, Control_c, 0, 64, 56
2, 85460, Control_c, 0, 64, 127
2, 85476, Note_on_c, 0, 45, 0
2, 85496, Note_on_c, 0, 77, 0
2, 85496, Note_on_c, 0, 79, 101
2, 85536, Note_on_c, 0, 60, 76
2, 85576, Note_on_c, 0, 60, 0
2, 85812, Note_on_c, 0, 79, 0
2, 85812, Note_on_c, 0, 56, 30
2, 85816, Note_on_c, 0, 77, 94
2, 85840, Note_on_c, 0, 56, 0
2, 85888, Note_on_c, 0, 44, 68
2, 85892, Control_c, 0, 64, 40
2, 85904, Control_c, 0, 64, 0
2, 85912, Note_on_c, 0, 77, 0
2, 85912, Note_on_c, 0, 76, 95
2, 85940, Note_on_c, 0, 44, 0
2, 85956, Note_on_c, 0, 59, 67
2, 85972, Control_c, 0, 64, 104
2, 85984, Control_c, 0, 64, 127
2, 85996, Note_on_c, 0, 59, 0
2, 86104, Note_on_c, 0, 59, 61
2, 86116, Note_on_c, 0, 56, 41
2, 86268, Note_on_c, 0, 61, 56
2, 86332, Note_on_c, 0, 59, 0
2, 86360, Note_on_c, 0, 61, 0
2, 86416, Note_on_c, 0, 63, 50
2, 86420, Note_on_c, 0, 59, 22
2, 86432, Note_on_c, 0, 83, 90
2, 86488, Note_on_c, 0, 76, 0
2, 86512, Note_on_c, 0, 63, 0
2, 86628, Note_on_c, 0, 76, 83
2, 86644, Note_on_c, 0, 83, 0
2, 86648, Note_on_c, 0, 64, 47
2, 86668, Control_c, 0, 64, 104
2, 86680, Control_c, 0, 64, 40
2, 86692, Control_c, 0, 64, 0
2, 86752, Note_on_c, 0, 64, 0
2, 86752, Note_on_c, 0, 59, 0
2, 86752, Control_c, 0, 64, 104
2, 86760, Control_c, 0, 64, 127
2, 86768, Note_on_c, 0, 56, 0
2, 86912, Control_c, 0, 64, 104
2, 86924, Control_c, 0, 64, 40
2, 86936, Note_on_c, 0, 43, 65
2, 86936, Control_c, 0, 64, 0
2, 86960, Control_c, 0, 64, 56
2, 86968, Note_on_c, 0, 76, 0
2, 86972, Control_c, 0, 64, 104
2, 86984, Note_on_c, 0, 43, 0
2, 86984, Control_c, 0, 64, 127
2, 87016, Note_on_c, 0, 58, 58
2, 87048, Note_on_c, 0, 58, 0
2, 87144, Note_on_c, 0, 76, 87
2, 87272, Control_c, 0, 64, 40
2, 87276, Note_on_c, 0, 41, 63
2, 87284, Control_c, 0, 64, 0
2, 87336, Note_on_c, 0, 41, 0
2, 87340, Note_on_c, 0, 74, 87
2, 87344, Control_c, 0, 64, 56
2, 87348, Note_on_c, 0, 76, 0
2, 87356, Control_c, 0, 64, 127
2, 87368, Note_on_c, 0, 57, 61
2, 87420, Note_on_c, 0, 57, 0
2, 87504, Note_on_c, 0, 74, 0
2, 87512, Note_on_c, 0, 57, 51
2, 87528, Note_on_c, 0, 53, 53
2, 87684, Note_on_c, 0, 74, 87
2, 87696, Note_on_c, 0, 59, 52
2, 87804, Note_on_c, 0, 74, 0
2, 87852, Note_on_c, 0, 61, 63
2, 87872, Note_on_c, 0, 59, 0
2, 87956, Note_on_c, 0, 61, 0
2, 88008, Note_on_c, 0, 74, 84
2, 88028, Note_on_c, 0, 62, 67
2, 88064, Note_on_c, 0, 62, 0
2, 88088, Note_on_c, 0, 74, 0
2, 88088, Note_on_c, 0, 57, 0
2, 88096, Note_on_c, 0, 76, 80
2, 88100, Note_on_c, 0, 53, 0
2, 88184, Note_on_c, 0, 76, 0
2, 88188, Note_on_c, 0, 74, 90
2, 88256, Note_on_c, 0, 74, 0
2, 88268, Note_on_c, 0, 73, 82
2, 88308, Control_c, 0, 64, 104
2, 88320, Control_c, 0, 64, 40
2, 88332, Control_c, 0, 64, 0
2, 88340, Note_on_c, 0, 74, 89
2, 88348, Note_on_c, 0, 41, 60
2, 88352, Note_on_c, 0, 73, 0
2, 88364, Control_c, 0, 64, 72
2, 88376, Control_c, 0, 64, 127
2, 88400, Note_on_c, 0, 41, 0
2, 88420, Note_on_c, 0, 76, 92
2, 88436, Note_on_c, 0, 74, 0
2, 88468, Note_on_c, 0, 57, 59
2, 88520, Note_on_c, 0, 57, 0
2, 88676, Note_on_c, 0, 76, 0
2, 88700, Note_on_c, 0, 74, 90
2, 88760, Control_c, 0, 64, 40
2, 88764, Note_on_c, 0, 40, 63
2, 88772, Control_c, 0, 64, 0
2, 88800, Note_on_c, 0, 74, 0
2, 88804, Note_on_c, 0, 72, 90
2, 88820, Note_on_c, 0, 40, 0
2, 88840, Control_c, 0, 64, 104
2, 88852, Control_c, 0, 64, 127
2, 88856, Note_on_c, 0, 57, 60
2, 88888, Note_on_c, 0, 57, 0
2, 88980, Note_on_c, 0, 57, 52
2, 89012, Note_on_c, 0, 52, 48
2, 89132, Note_on_c, 0, 60, 77
2, 89256, Note_on_c, 0, 60, 0
2, 89284, Note_on_c, 0, 62, 65
2, 89284, Note_on_c, 0, 81, 88
2, 89352, Note_on_c, 0, 72, 0
2, 89368, Note_on_c, 0, 62, 0
2, 89472, Note_on_c, 0, 81, 0
2, 89484, Note_on_c, 0, 72, 87
2, 89508, Note_on_c, 0, 64, 68
2, 89516, Control_c, 0, 64, 40
2, 89528, Control_c, 0, 64, 0
2, 89564, Control_c, 0, 64, 24
2, 89572, Note_on_c, 0, 64, 0
2, 89572, Control_c, 0, 64, 88
2, 89584, Control_c, 0, 64, 127
2, 89588, Note_on_c, 0, 57, 0
2, 89616, Note_on_c, 0, 52, 0
2, 89780, Control_c, 0, 64, 72
2, 89796, Control_c, 0, 64, 56
2, 89808, Note_on_c, 0, 36, 57
2, 89808, Control_c, 0, 64, 72
2, 89816, Control_c, 0, 64, 127
2, 89840, Note_on_c, 0, 72, 0
2, 89864, Note_on_c, 0, 36, 0
2, 89908, Note_on_c, 0, 52, 63
2, 89960, Note_on_c, 0, 52, 0
2, 90048, Note_on_c, 0, 72, 90
2, 90144, Control_c, 0, 64, 104
2, 90156, Note_on_c, 0, 38, 63
2, 90156, Control_c, 0, 64, 0
2, 90236, Control_c, 0, 64, 56
2, 90248, Control_c, 0, 64, 127
2, 90256, Note_on_c, 0, 38, 0
2, 90296, Note_on_c, 0, 72, 0
2, 90300, Note_on_c, 0, 71, 92
2, 90308, Note_on_c, 0, 53, 67
2, 90364, Note_on_c, 0, 53, 0
2, 90532, Note_on_c, 0, 65, 60
2, 90536, Note_on_c, 0, 71, 0
2, 90636, Note_on_c, 0, 65, 0
2, 90680, Note_on_c, 0, 71, 87
2, 90704, Note_on_c, 0, 57, 55
2, 90712, Note_on_c, 0, 50, 58
2, 90848, Note_on_c, 0, 65, 74
2, 90860, Note_on_c, 0, 57, 0
2, 90896, Note_on_c, 0, 71, 0
2, 90908, Note_on_c, 0, 50, 0
2, 90944, Note_on_c, 0, 65, 0
2, 91012, Note_on_c, 0, 71, 85
2, 91016, Note_on_c, 0, 57, 58
2, 91044, Note_on_c, 0, 50, 59
2, 91084, Note_on_c, 0, 71, 0
2, 91104, Note_on_c, 0, 72, 85
2, 91188, Note_on_c, 0, 71, 89
2, 91200, Note_on_c, 0, 72, 0
2, 91276, Note_on_c, 0, 71, 0
2, 91276, Note_on_c, 0, 69, 91
2, 91348, Note_on_c, 0, 71, 85
2, 91372, Note_on_c, 0, 69, 0
2, 91376, Note_on_c, 0, 50, 0
2, 91424, Note_on_c, 0, 71, 0
2, 91444, Note_on_c, 0, 72, 86
2, 91460, Note_on_c, 0, 64, 61
2, 91476, Note_on_c, 0, 52, 51
2, 91476, Control_c, 0, 64, 72
2, 91488, Control_c, 0, 64, 0
2, 91572, Control_c, 0, 64, 72
2, 91584, Control_c, 0, 64, 127
2, 91608, Note_on_c, 0, 57, 0
2, 91628, Note_on_c, 0, 52, 0
2, 91716, Note_on_c, 0, 64, 0
2, 91752, Note_on_c, 0, 72, 0
2, 91756, Note_on_c, 0, 69, 87
2, 91824, Note_on_c, 0, 69, 0
2, 91852, Note_on_c, 0, 41, 64
2, 91852, Note_on_c, 0, 71, 94
2, 91852, Control_c, 0, 64, 40
2, 91864, Control_c, 0, 64, 0
2, 91908, Note_on_c, 0, 41, 0
2, 91908, Control_c, 0, 64, 40
2, 91920, Control_c, 0, 64, 127
2, 92020, Note_on_c, 0, 62, 65
2, 92112, Note_on_c, 0, 71, 0
2, 92184, Note_on_c, 0, 71, 90
2, 92204, Note_on_c, 0, 53, 52
2, 92204, Note_on_c, 0, 57, 46
2, 92208, Note_on_c, 0, 62, 0
2, 92300, Note_on_c, 0, 71, 0
2, 92344, Note_on_c, 0, 57, 0
2, 92360, Note_on_c, 0, 62, 61
2, 92424, Note_on_c, 0, 53, 0
2, 92504, Note_on_c, 0, 71, 82
2, 92524, Note_on_c, 0, 53, 44
2, 92528, Note_on_c, 0, 57, 44
2, 92592, Note_on_c, 0, 71, 0
2, 92592, Note_on_c, 0, 72, 93
2, 92660, Note_on_c, 0, 53, 0
2, 92676, Note_on_c, 0, 71, 89
2, 92680, Note_on_c, 0, 72, 0
2, 92696, Note_on_c, 0, 57, 0
2, 92724, Note_on_c, 0, 62, 0
2, 92756, Note_on_c, 0, 71, 0
2, 92756, Note_on_c, 0, 69, 89
2, 92832, Note_on_c, 0, 71, 88
2, 92852, Note_on_c, 0, 69, 0
2, 92920, Note_on_c, 0, 72, 98
2, 92928, Note_on_c, 0, 64, 47
2, 92932, Note_on_c, 0, 71, 0
2, 92940, Note_on_c, 0, 52, 49
2, 92940, Note_on_c, 0, 57, 38
2, 92944, Control_c, 0, 64, 40
2, 92956, Control_c, 0, 64, 0
2, 93024, Control_c, 0, 64, 56
2, 93036, Note_on_c, 0, 64, 0
2, 93036, Control_c, 0, 64, 127
2, 93044, Note_on_c, 0, 52, 0
2, 93076, Note_on_c, 0, 57, 0
2, 93184, Note_on_c, 0, 72, 0
2, 93200, Note_on_c, 0, 69, 81
2, 93288, Note_on_c, 0, 69, 0
2, 93380, Note_on_c, 0, 70, 82
2, 93384, Control_c, 0, 64, 56
2, 93388, Note_on_c, 0, 38, 58
2, 93396, Control_c, 0, 64, 0
2, 93444, Control_c, 0, 64, 40
2, 93456, Control_c, 0, 64, 104
2, 93468, Control_c, 0, 64, 127
2, 93488, Note_on_c, 0, 70, 0
2, 93504, Note_on_c, 0, 65, 79
2, 93584, Note_on_c, 0, 65, 0
2, 93600, Note_on_c, 0, 67, 78
2, 93624, Note_on_c, 0, 50, 54
2, 93648, Note_on_c, 0, 38, 0
2, 93664, Note_on_c, 0, 67, 0
2, 93700, Note_on_c, 0, 50, 0
2, 93700, Note_on_c, 0, 69, 68
2, 93748, Note_on_c, 0, 69, 0
2, 93808, Note_on_c, 0, 70, 80
2, 93836, Note_on_c, 0, 53, 38
2, 93872, Note_on_c, 0, 70, 0
2, 93900, Note_on_c, 0, 74, 90
2, 93992, Note_on_c, 0, 79, 87
2, 94008, Note_on_c, 0, 74, 0
2, 94012, Note_on_c, 0, 58, 47
2, 94072, Note_on_c, 0, 77, 87
2, 94092, Note_on_c, 0, 79, 0
2, 94096, Note_on_c, 0, 58, 0
2, 94168, Note_on_c, 0, 77, 0
2, 94188, Note_on_c, 0, 82, 89
2, 94200, Note_on_c, 0, 62, 50
2, 94248, Note_on_c, 0, 82, 0
2, 94272, Note_on_c, 0, 77, 87
2, 94340, Note_on_c, 0, 77, 0
2, 94368, Note_on_c, 0, 79, 85
2, 94396, Control_c, 0, 64, 104
2, 94408, Control_c, 0, 64, 40
2, 94416, Note_on_c, 0, 77, 84
2, 94420, Control_c, 0, 64, 0
2, 94440, Note_on_c, 0, 79, 0
2, 94472, Note_on_c, 0, 76, 83
2, 94476, Control_c, 0, 64, 56
2, 94488, Control_c, 0, 64, 88
2, 94492, Note_on_c, 0, 77, 0
2, 94500, Control_c, 0, 64, 127
2, 94568, Note_on_c, 0, 76, 0
2, 94572, Note_on_c, 0, 74, 82
2, 94596, Note_on_c, 0, 62, 0
2, 94632, Note_on_c, 0, 53, 0
2, 94656, Note_on_c, 0, 74, 0
2, 94692, Note_on_c, 0, 60, 46
2, 94700, Note_on_c, 0, 77, 84
2, 94712, Note_on_c, 0, 51, 47
2, 94720, Note_on_c, 0, 57, 50
2, 94720, Control_c, 0, 64, 72
2, 94732, Control_c, 0, 64, 0
2, 94800, Note_on_c, 0, 72, 80
2, 94800, Control_c, 0, 64, 40
2, 94808, Note_on_c, 0, 77, 0
2, 94812, Control_c, 0, 64, 88
2, 94824, Control_c, 0, 64, 127
2, 94852, Note_on_c, 0, 72, 0
2, 94888, Note_on_c, 0, 74, 81
2, 94928, Note_on_c, 0, 72, 80
2, 94932, Control_c, 0, 64, 88
2, 94936, Note_on_c, 0, 74, 0
2, 94944, Control_c, 0, 64, 0
2, 94988, Note_on_c, 0, 71, 79
2, 94992, Note_on_c, 0, 72, 0
2, 95012, Note_on_c, 0, 60, 0
2, 95012, Control_c, 0, 64, 56
2, 95024, Control_c, 0, 64, 104
2, 95028, Note_on_c, 0, 57, 0
2, 95036, Control_c, 0, 64, 127
2, 95060, Note_on_c, 0, 51, 0
2, 95088, Note_on_c, 0, 71, 0
2, 95104, Note_on_c, 0, 69, 78
2, 95208, Note_on_c, 0, 69, 0
2, 95208, Control_c, 0, 64, 72
2, 95220, Control_c, 0, 64, 0
2, 95232, Note_on_c, 0, 76, 83
2, 95248, Note_on_c, 0, 40, 49
2, 95280, Note_on_c, 0, 40, 0
2, 95280, Control_c, 0, 64, 56
2, 95292, Control_c, 0, 64, 104
2, 95304, Control_c, 0, 64, 127
2, 95324, Note_on_c, 0, 76, 0
2, 95340, Note_on_c, 0, 69, 75
2, 95396, Note_on_c, 0, 69, 0
2, 95440, Note_on_c, 0, 71, 60
2, 95480, Note_on_c, 0, 69, 83
2, 95496, Note_on_c, 0, 71, 0
2, 95500, Control_c, 0, 64, 88
2, 95512, Control_c, 0, 64, 0
2, 95520, Note_on_c, 0, 52, 46
2, 95528, Note_on_c, 0, 62, 45
2, 95556, Note_on_c, 0, 69, 0
2, 95556, Note_on_c, 0, 68, 82
2, 95592, Control_c, 0, 64, 40
2, 95604, Control_c, 0, 64, 88
2, 95616, Control_c, 0, 64, 127
2, 95632, Note_on_c, 0, 62, 0
2, 95644, Note_on_c, 0, 68, 0
2, 95660, Note_on_c, 0, 66, 72
2, 95748, Note_on_c, 0, 66, 0
2, 95784, Note_on_c, 0, 68, 74
2, 95804, Note_on_c, 0, 62, 44
2, 95812, Control_c, 0, 64, 104
2, 95816, Note_on_c, 0, 59, 32
2, 95824, Control_c, 0, 64, 24
2, 95836, Control_c, 0, 64, 0
2, 95888, Note_on_c, 0, 68, 0
2, 95896, Control_c, 0, 64, 56
2, 95904, Control_c, 0, 64, 104
2, 95908, Note_on_c, 0, 71, 73
2, 95916, Control_c, 0, 64, 127
2, 95980, Note_on_c, 0, 71, 0
2, 96020, Note_on_c, 0, 64, 69
2, 96068, Note_on_c, 0, 59, 0
2, 96108, Note_on_c, 0, 64, 0
2, 96112, Note_on_c, 0, 62, 0
2, 96124, Note_on_c, 0, 63, 78
2, 96228, Note_on_c, 0, 63, 0
2, 96260, Note_on_c, 0, 64, 66
2, 96276, Note_on_c, 0, 56, 39
2, 96280, Note_on_c, 0, 59, 41
2, 96348, Control_c, 0, 64, 72
2, 96360, Control_c, 0, 64, 0
2, 96380, Note_on_c, 0, 64, 0
2, 96396, Note_on_c, 0, 66, 69
2, 96420, Control_c, 0, 64, 24
2, 96428, Control_c, 0, 64, 72
2, 96440, Control_c, 0, 64, 127
2, 96444, Note_on_c, 0, 52, 0
2, 96524, Note_on_c, 0, 66, 0
2, 96524, Note_on_c, 0, 68, 65
2, 96528, Note_on_c, 0, 56, 0
2, 96612, Note_on_c, 0, 68, 0
2, 96640, Note_on_c, 0, 69, 72
2, 96764, Note_on_c, 0, 69, 0
2, 96784, Note_on_c, 0, 71, 73
2, 96796, Note_on_c, 0, 56, 38
2, 96820, Note_on_c, 0, 52, 46
2, 96828, Note_on_c, 0, 59, 0
2, 96836, Control_c, 0, 64, 104
2, 96848, Control_c, 0, 64, 40
2, 96860, Control_c, 0, 64, 0
2, 96928, Control_c, 0, 64, 24
2, 96932, Note_on_c, 0, 72, 75
2, 96936, Note_on_c, 0, 71, 0
2, 96940, Control_c, 0, 64, 88
2, 96952, Control_c, 0, 64, 127
2, 96984, Note_on_c, 0, 72, 0
2, 97064, Note_on_c, 0, 71, 61
2, 97128, Note_on_c, 0, 71, 0
2, 97144, Note_on_c, 0, 72, 78
2, 97244, Note_on_c, 0, 72, 0
2, 97264, Note_on_c, 0, 74, 67
2, 97348, Control_c, 0, 64, 104
2, 97356, Control_c, 0, 64, 88
2, 97372, Control_c, 0, 64, 56
2, 97380, Control_c, 0, 64, 0
2, 97532, Note_on_c, 0, 74, 0
2, 97544, Control_c, 0, 64, 56
2, 97556, Control_c, 0, 64, 104
2, 97568, Control_c, 0, 64, 127
2, 97596, Note_on_c, 0, 52, 0
2, 97652, Note_on_c, 0, 56, 0
2, 97860, Control_c, 0, 64, 56
2, 97872, Control_c, 0, 64, 0
2, 97916, Note_on_c, 0, 77, 75
2, 97916, Control_c, 0, 64, 24
2, 97928, Control_c, 0, 64, 88
2, 97940, Control_c, 0, 64, 127
2, 98012, Control_c, 0, 64, 40
2, 98020, Control_c, 0, 64, 0
2, 98056, Note_on_c, 0, 77, 0
2, 98080, Control_c, 0, 64, 72
2, 98092, Control_c, 0, 64, 127
2, 98100, Note_on_c, 0, 45, 59
2, 98100, Note_on_c, 0, 64, 42
2, 98164, Note_on_c, 0, 52, 32
2, 98168, Note_on_c, 0, 45, 0
2, 98192, Note_on_c, 0, 64, 0
2, 98208, Note_on_c, 0, 69, 58
2, 98224, Note_on_c, 0, 52, 0
2, 98276, Note_on_c, 0, 76, 86
2, 98276, Note_on_c, 0, 60, 54
2, 98284, Note_on_c, 0, 69, 0
2, 98320, Note_on_c, 0, 60, 0
2, 98448, Note_on_c, 0, 76, 0
2, 98480, Note_on_c, 0, 69, 76
2, 98592, Control_c, 0, 64, 72
2, 98604, Control_c, 0, 64, 0
2, 98608, Note_on_c, 0, 62, 61
2, 98616, Note_on_c, 0, 65, 54
2, 98620, Note_on_c, 0, 57, 45
2, 98624, Control_c, 0, 64, 24
2, 98636, Control_c, 0, 64, 56
2, 98648, Control_c, 0, 64, 127
2, 98652, Note_on_c, 0, 57, 0
2, 98672, Note_on_c, 0, 62, 0
2, 98684, Note_on_c, 0, 65, 0
2, 98728, Note_on_c, 0, 69, 0
2, 98756, Note_on_c, 0, 71, 81
2, 98880, Control_c, 0, 64, 104
2, 98892, Control_c, 0, 64, 56
2, 98904, Note_on_c, 0, 64, 56
2, 98904, Note_on_c, 0, 69, 51
2, 98904, Control_c, 0, 64, 40
2, 98912, Note_on_c, 0, 57, 45
2, 98916, Control_c, 0, 64, 72
2, 98928, Control_c, 0, 64, 127
2, 98960, Note_on_c, 0, 57, 0
2, 98964, Note_on_c, 0, 69, 0
2, 98972, Note_on_c, 0, 64, 0
2, 99024, Note_on_c, 0, 71, 0
2, 99040, Note_on_c, 0, 72, 82
2, 99196, Control_c, 0, 64, 88
2, 99200, Note_on_c, 0, 65, 45
2, 99208, Note_on_c, 0, 69, 46
2, 99208, Control_c, 0, 64, 56
2, 99224, Note_on_c, 0, 57, 43
2, 99228, Control_c, 0, 64, 88
2, 99240, Control_c, 0, 64, 127
2, 99328, Note_on_c, 0, 65, 0
2, 99328, Note_on_c, 0, 74, 87
2, 99352, Note_on_c, 0, 72, 0
2, 99364, Note_on_c, 0, 69, 0
2, 99388, Note_on_c, 0, 57, 0
2, 99424, Note_on_c, 0, 74, 0
2, 99472, Control_c, 0, 64, 104
2, 99484, Note_on_c, 0, 76, 85
2, 99484, Control_c, 0, 64, 40
2, 99496, Note_on_c, 0, 69, 55
2, 99496, Control_c, 0, 64, 0
2, 99516, Note_on_c, 0, 60, 43
2, 99520, Control_c, 0, 64, 56
2, 99532, Note_on_c, 0, 57, 51
2, 99532, Control_c, 0, 64, 88
2, 99544, Control_c, 0, 64, 127
2, 99552, Note_on_c, 0, 76, 0
2, 99568, Note_on_c, 0, 77, 82
2, 99648, Note_on_c, 0, 76, 81
2, 99652, Note_on_c, 0, 77, 0
2, 99716, Note_on_c, 0, 76, 0
2, 99720, Note_on_c, 0, 74, 80
2, 99780, Note_on_c, 0, 76, 81
2, 99804, Note_on_c, 0, 74, 0
2, 99856, Note_on_c, 0, 76, 0
2, 99868, Note_on_c, 0, 77, 83
2, 99876, Note_on_c, 0, 60, 0
2, 99904, Note_on_c, 0, 59, 46
2, 99916, Control_c, 0, 64, 72
2, 99928, Control_c, 0, 64, 0
2, 99996, Control_c, 0, 64, 40
2, 100008, Control_c, 0, 64, 104
2, 100020, Control_c, 0, 64, 127
2, 100132, Note_on_c, 0, 77, 0
2, 100192, Note_on_c, 0, 74, 78
2, 100260, Note_on_c, 0, 59, 0
2, 100268, Note_on_c, 0, 74, 0
2, 100284, Note_on_c, 0, 76, 70
2, 100308, Note_on_c, 0, 60, 47
2, 100404, Control_c, 0, 64, 88
2, 100416, Control_c, 0, 64, 0
2, 100532, Control_c, 0, 64, 40
2, 100544, Control_c, 0, 64, 104
2, 100556, Control_c, 0, 64, 127
2, 100584, Note_on_c, 0, 76, 0
2, 100584, Note_on_c, 0, 57, 0
2, 100624, Note_on_c, 0, 69, 0
2, 100624, Note_on_c, 0, 60, 0
2, 100792, Note_on_c, 0, 77, 80
2, 100844, Control_c, 0, 64, 56
2, 100856, Control_c, 0, 64, 0
2, 100876, Note_on_c, 0, 77, 0
2, 100912, Note_on_c, 0, 45, 62
2, 100916, Control_c, 0, 64, 56
2, 100920, Note_on_c, 0, 64, 67
2, 100928, Control_c, 0, 64, 127
2, 100964, Note_on_c, 0, 52, 50
2, 100972, Note_on_c, 0, 45, 0
2, 101004, Note_on_c, 0, 69, 83
2, 101008, Note_on_c, 0, 64, 0
2, 101032, Note_on_c, 0, 52, 0
2, 101084, Note_on_c, 0, 69, 0
2, 101084, Note_on_c, 0, 60, 62
2, 101100, Note_on_c, 0, 76, 91
2, 101112, Note_on_c, 0, 60, 0
2, 101296, Note_on_c, 0, 76, 0
2, 101300, Note_on_c, 0, 69, 88
2, 101436, Note_on_c, 0, 65, 63
2, 101444, Note_on_c, 0, 62, 60
2, 101456, Note_on_c, 0, 57, 41
2, 101472, Note_on_c, 0, 62, 0
2, 101500, Note_on_c, 0, 57, 0
2, 101536, Note_on_c, 0, 65, 0
2, 101564, Note_on_c, 0, 69, 0
2, 101584, Note_on_c, 0, 71, 82
2, 101704, Control_c, 0, 64, 88
2, 101716, Control_c, 0, 64, 24
2, 101728, Control_c, 0, 64, 0
2, 101736, Note_on_c, 0, 69, 67
2, 101736, Note_on_c, 0, 64, 63
2, 101740, Note_on_c, 0, 57, 58
2, 101764, Control_c, 0, 64, 72
2, 101776, Control_c, 0, 64, 127
2, 101864, Note_on_c, 0, 64, 0
2, 101880, Note_on_c, 0, 72, 88
2, 101896, Note_on_c, 0, 71, 0
2, 101940, Note_on_c, 0, 69, 0
2, 102008, Control_c, 0, 64, 72
2, 102020, Note_on_c, 0, 69, 69
2, 102020, Control_c, 0, 64, 40
2, 102024, Note_on_c, 0, 65, 67
2, 102032, Control_c, 0, 64, 72
2, 102044, Control_c, 0, 64, 127
2, 102100, Note_on_c, 0, 69, 0
2, 102100, Note_on_c, 0, 57, 0
2, 102108, Note_on_c, 0, 65, 0
2, 102140, Note_on_c, 0, 72, 0
2, 102152, Note_on_c, 0, 74, 88
2, 102204, Note_on_c, 0, 74, 0
2, 102320, Note_on_c, 0, 69, 73
2, 102320, Control_c, 0, 64, 56
2, 102324, Note_on_c, 0, 76, 88
2, 102332, Control_c, 0, 64, 0
2, 102336, Note_on_c, 0, 60, 59
2, 102348, Note_on_c, 0, 57, 46
2, 102356, Note_on_c, 0, 69, 0
2, 102368, Control_c, 0, 64, 24
2, 102380, Control_c, 0, 64, 88
2, 102392, Control_c, 0, 64, 127
2, 102400, Note_on_c, 0, 76, 0
2, 102412, Note_on_c, 0, 77, 89
2, 102488, Note_on_c, 0, 77, 0
2, 102488, Note_on_c, 0, 76, 87
2, 102552, Note_on_c, 0, 76, 0
2, 102564, Note_on_c, 0, 74, 86
2, 102632, Note_on_c, 0, 76, 86
2, 102652, Note_on_c, 0, 74, 0
2, 102732, Note_on_c, 0, 76, 0
2, 102740, Note_on_c, 0, 60, 0
2, 102764, Note_on_c, 0, 81, 91
2, 102772, Note_on_c, 0, 74, 70
2, 102788, Note_on_c, 0, 59, 55
2, 102820, Control_c, 0, 64, 72
2, 102832, Control_c, 0, 64, 0
2, 102904, Control_c, 0, 64, 104
2, 102912, Control_c, 0, 64, 127
2, 103012, Note_on_c, 0, 74, 0
2, 103012, Note_on_c, 0, 81, 0
2, 103188, Note_on_c, 0, 59, 0
2, 103196, Note_on_c, 0, 77, 80
2, 103276, Note_on_c, 0, 77, 0
2, 103300, Note_on_c, 0, 76, 74
2, 103304, Note_on_c, 0, 60, 53
2, 103376, Control_c, 0, 64, 88
2, 103388, Control_c, 0, 64, 0
2, 103492, Note_on_c, 0, 57, 0
2, 103492, Control_c, 0, 64, 56
2, 103504, Control_c, 0, 64, 127
2, 103636, Note_on_c, 0, 60, 0
2, 103708, Note_on_c, 0, 76, 0
2, 103872, Note_on_c, 0, 76, 92
2, 103952, Note_on_c, 0, 76, 0
2, 104044, Note_on_c, 0, 65, 73
2, 104064, Control_c, 0, 64, 88
2, 104076, Control_c, 0, 64, 0
2, 104092, Note_on_c, 0, 45, 51
2, 104116, Note_on_c, 0, 45, 0
2, 104124, Note_on_c, 0, 77, 98
2, 104144, Control_c, 0, 64, 104
2, 104156, Control_c, 0, 64, 127
2, 104244, Note_on_c, 0, 65, 0
2, 104300, Note_on_c, 0, 60, 66
2, 104312, Note_on_c, 0, 77, 0
2, 104316, Note_on_c, 0, 57, 57
2, 104396, Note_on_c, 0, 65, 87
2, 104468, Note_on_c, 0, 77, 105
2, 104488, Note_on_c, 0, 65, 0
2, 104500, Note_on_c, 0, 62, 68
2, 104588, Note_on_c, 0, 62, 0
2, 104596, Note_on_c, 0, 77, 0
2, 104624, Note_on_c, 0, 64, 73
2, 104700, Note_on_c, 0, 64, 0
2, 104760, Note_on_c, 0, 77, 99
2, 104760, Control_c, 0, 64, 88
2, 104772, Control_c, 0, 64, 24
2, 104780, Note_on_c, 0, 65, 75
2, 104784, Control_c, 0, 64, 0
2, 104808, Control_c, 0, 64, 40
2, 104816, Control_c, 0, 64, 104
2, 104828, Note_on_c, 0, 65, 0
2, 104832, Control_c, 0, 64, 127
2, 104840, Note_on_c, 0, 77, 0
2, 104840, Note_on_c, 0, 60, 0
2, 104844, Note_on_c, 0, 79, 97
2, 104848, Note_on_c, 0, 57, 0
2, 104916, Note_on_c, 0, 77, 99
2, 104940, Note_on_c, 0, 79, 0
2, 104988, Note_on_c, 0, 77, 0
2, 104988, Note_on_c, 0, 76, 95
2, 105060, Note_on_c, 0, 76, 0
2, 105064, Note_on_c, 0, 77, 96
2, 105120, Note_on_c, 0, 77, 0
2, 105200, Control_c, 0, 64, 88
2, 105208, Note_on_c, 0, 89, 112
2, 105212, Control_c, 0, 64, 0
2, 105216, Note_on_c, 0, 45, 68
2, 105216, Note_on_c, 0, 48, 55
2, 105248, Control_c, 0, 64, 40
2, 105260, Control_c, 0, 64, 127
2, 105292, Note_on_c, 0, 48, 0
2, 105312, Note_on_c, 0, 45, 0
2, 105444, Note_on_c, 0, 89, 0
2, 105596, Note_on_c, 0, 77, 98
2, 105704, Note_on_c, 0, 77, 0
2, 105748, Note_on_c, 0, 76, 101
2, 105764, Control_c, 0, 64, 104
2, 105776, Note_on_c, 0, 44, 53
2, 105780, Control_c, 0, 64, 0
2, 105784, Note_on_c, 0, 47, 41
2, 105848, Control_c, 0, 64, 40
2, 105860, Control_c, 0, 64, 127
2, 105884, Note_on_c, 0, 76, 0
2, 105908, Note_on_c, 0, 83, 97
2, 105920, Note_on_c, 0, 44, 0
2, 105932, Note_on_c, 0, 47, 0
2, 105996, Note_on_c, 0, 80, 82
2, 106000, Note_on_c, 0, 83, 0
2, 106076, Note_on_c, 0, 76, 90
2, 106104, Note_on_c, 0, 80, 0
2, 106156, Note_on_c, 0, 76, 0
2, 106160, Note_on_c, 0, 73, 84
2, 106212, Note_on_c, 0, 73, 0
2, 106248, Note_on_c, 0, 71, 87
2, 106292, Note_on_c, 0, 71, 0
2, 106332, Note_on_c, 0, 68, 66
2, 106400, Note_on_c, 0, 68, 0
2, 106400, Note_on_c, 0, 64, 69
2, 106476, Note_on_c, 0, 64, 0
2, 106480, Note_on_c, 0, 59, 63
2, 106532, Note_on_c, 0, 59, 0
2, 106580, Note_on_c, 0, 56, 75
2, 106644, Note_on_c, 0, 56, 0
2, 106652, Note_on_c, 0, 59, 69
2, 106724, Note_on_c, 0, 64, 66
2, 106740, Note_on_c, 0, 59, 0
2, 106752, Note_on_c, 0, 68, 60
2, 106768, Note_on_c, 0, 64, 0
2, 106804, Note_on_c, 0, 68, 0
2, 106804, Note_on_c, 0, 71, 75
2, 106860, Note_on_c, 0, 76, 69
2, 106868, Note_on_c, 0, 71, 0
2, 106904, Note_on_c, 0, 80, 78
2, 106928, Note_on_c, 0, 76, 0
2, 106976, Note_on_c, 0, 83, 89
2, 106980, Note_on_c, 0, 80, 0
2, 107052, Note_on_c, 0, 83, 0
2, 107076, Note_on_c, 0, 88, 101
2, 107180, Note_on_c, 0, 88, 0
2, 107400, Note_on_c, 0, 76, 95
2, 107404, Note_on_c, 0, 64, 80
2, 107468, Control_c, 0, 64, 56
2, 107480, Control_c, 0, 64, 0
2, 107524, Control_c, 0, 64, 40
2, 107536, Control_c, 0, 64, 104
2, 107548, Control_c, 0, 64, 127
2, 107568, Note_on_c, 0, 47, 80
2, 107568, Note_on_c, 0, 44, 69
2, 107664, Note_on_c, 0, 47, 0
2, 107676, Note_on_c, 0, 44, 0
2, 107748, Note_on_c, 0, 43, 64
2, 107748, Note_on_c, 0, 46, 67
2, 107752, Note_on_c, 0, 64, 0
2, 107756, Note_on_c, 0, 76, 0
2, 107852, Note_on_c, 0, 64, 87
2, 107852, Note_on_c, 0, 76, 102
2, 107868, Note_on_c, 0, 43, 0
2, 107912, Note_on_c, 0, 64, 0
2, 107948, Note_on_c, 0, 46, 0
2, 107952, Note_on_c, 0, 76, 0
2, 107988, Note_on_c, 0, 62, 79
2, 108004, Note_on_c, 0, 45, 64
2, 108008, Note_on_c, 0, 41, 63
2, 108036, Control_c, 0, 64, 56
2, 108048, Control_c, 0, 64, 0
2, 108072, Note_on_c, 0, 74, 94
2, 108080, Note_on_c, 0, 41, 0
2, 108088, Note_on_c, 0, 45, 0
2, 108120, Control_c, 0, 64, 56
2, 108132, Control_c, 0, 64, 127
2, 108212, Note_on_c, 0, 62, 0
2, 108260, Note_on_c, 0, 57, 57
2, 108268, Note_on_c, 0, 53, 67
2, 108308, Note_on_c, 0, 74, 0
2, 108340, Note_on_c, 0, 62, 79
2, 108372, Note_on_c, 0, 57, 0
2, 108416, Note_on_c, 0, 74, 99
2, 108432, Note_on_c, 0, 59, 67
2, 108436, Note_on_c, 0, 57, 9
2, 108476, Note_on_c, 0, 62, 0
2, 108496, Note_on_c, 0, 59, 0
2, 108572, Note_on_c, 0, 61, 67
2, 108616, Note_on_c, 0, 74, 0
2, 108652, Note_on_c, 0, 61, 0
2, 108712, Control_c, 0, 64, 72
2, 108720, Control_c, 0, 64, 0
2, 108732, Note_on_c, 0, 74, 98
2, 108740, Note_on_c, 0, 62, 72
2, 108768, Control_c, 0, 64, 72
2, 108780, Control_c, 0, 64, 127
2, 108788, Note_on_c, 0, 62, 0
2, 108800, Note_on_c, 0, 74, 0
2, 108820, Note_on_c, 0, 57, 0
2, 108820, Note_on_c, 0, 76, 87
2, 108852, Note_on_c, 0, 53, 0
2, 108896, Note_on_c, 0, 74, 90
2, 108904, Note_on_c, 0, 76, 0
2, 108972, Note_on_c, 0, 74, 0
2, 108972, Note_on_c, 0, 73, 88
2, 109036, Note_on_c, 0, 73, 0
2, 109048, Note_on_c, 0, 74, 104
2, 109152, Note_on_c, 0, 74, 0
2, 109152, Note_on_c, 0, 86, 99
2, 109168, Note_on_c, 0, 45, 68
2, 109176, Note_on_c, 0, 41, 58
2, 109248, Note_on_c, 0, 41, 0
2, 109268, Note_on_c, 0, 45, 0
2, 109400, Note_on_c, 0, 86, 0
2, 109516, Note_on_c, 0, 74, 93
2, 109580, Note_on_c, 0, 74, 0
2, 109688, Note_on_c, 0, 72, 92
2, 109692, Note_on_c, 0, 40, 56
2, 109700, Note_on_c, 0, 45, 58
2, 109700, Control_c, 0, 64, 56
2, 109712, Control_c, 0, 64, 0
2, 109792, Control_c, 0, 64, 104
2, 109804, Control_c, 0, 64, 127
2, 109820, Note_on_c, 0, 72, 0
2, 109832, Note_on_c, 0, 77, 95
2, 109860, Note_on_c, 0, 45, 0
2, 109860, Note_on_c, 0, 40, 0
2, 109900, Note_on_c, 0, 77, 0
2, 109924, Note_on_c, 0, 76, 81
2, 109988, Note_on_c, 0, 72, 86
2, 110012, Note_on_c, 0, 76, 0
2, 110068, Note_on_c, 0, 69, 85
2, 110108, Note_on_c, 0, 72, 0
2, 110144, Note_on_c, 0, 69, 0
2, 110148, Note_on_c, 0, 65, 76
2, 110188, Note_on_c, 0, 65, 0
2, 110224, Note_on_c, 0, 64, 68
2, 110280, Note_on_c, 0, 64, 0
2, 110292, Note_on_c, 0, 60, 72
2, 110364, Note_on_c, 0, 60, 0
2, 110364, Note_on_c, 0, 57, 55
2, 110436, Note_on_c, 0, 52, 81
2, 110440, Note_on_c, 0, 57, 0
2, 110448, Control_c, 0, 64, 72
2, 110460, Control_c, 0, 64, 0
2, 110508, Note_on_c, 0, 57, 75
2, 110512, Note_on_c, 0, 52, 0
2, 110516, Control_c, 0, 64, 40
2, 110528, Control_c, 0, 64, 127
2, 110576, Note_on_c, 0, 57, 0
2, 110580, Note_on_c, 0, 60, 84
2, 110628, Note_on_c, 0, 60, 0
2, 110656, Note_on_c, 0, 64, 77
2, 110704, Note_on_c, 0, 64, 0
2, 110716, Note_on_c, 0, 69, 80
2, 110772, Note_on_c, 0, 72, 70
2, 110776, Note_on_c, 0, 69, 0
2, 110824, Note_on_c, 0, 76, 85
2, 110840, Note_on_c, 0, 72, 0
2, 110888, Note_on_c, 0, 81, 90
2, 110892, Note_on_c, 0, 76, 0
2, 110968, Note_on_c, 0, 81, 0
2, 111008, Note_on_c, 0, 84, 96
2, 111056, Note_on_c, 0, 84, 0
2, 111336, Note_on_c, 0, 72, 101
2, 111344, Note_on_c, 0, 60, 75
2, 111408, Control_c, 0, 64, 56
2, 111420, Control_c, 0, 64, 0
2, 111488, Control_c, 0, 64, 88
2, 111496, Note_on_c, 0, 45, 80
2, 111496, Note_on_c, 0, 40, 76
2, 111500, Control_c, 0, 64, 127
2, 111600, Note_on_c, 0, 40, 0
2, 111692, Note_on_c, 0, 60, 0
2, 111700, Note_on_c, 0, 72, 0
2, 111724, Note_on_c, 0, 39, 74
2, 111816, Note_on_c, 0, 39, 0
2, 111828, Note_on_c, 0, 60, 76
2, 111828, Note_on_c, 0, 72, 102
2, 111892, Note_on_c, 0, 60, 0
2, 111924, Note_on_c, 0, 72, 0
2, 111968, Note_on_c, 0, 45, 0
2, 111988, Note_on_c, 0, 59, 79
2, 112036, Note_on_c, 0, 38, 63
2, 112036, Control_c, 0, 64, 88
2, 112044, Control_c, 0, 64, 0
2, 112056, Note_on_c, 0, 71, 93
2, 112096, Note_on_c, 0, 38, 0
2, 112116, Control_c, 0, 64, 56
2, 112128, Control_c, 0, 64, 127
2, 112188, Note_on_c, 0, 59, 0
2, 112268, Note_on_c, 0, 53, 64
2, 112272, Note_on_c, 0, 50, 61
2, 112280, Note_on_c, 0, 57, 55
2, 112312, Note_on_c, 0, 71, 0
2, 112340, Note_on_c, 0, 53, 0
2, 112368, Note_on_c, 0, 59, 61
2, 112380, Note_on_c, 0, 57, 0
2, 112432, Note_on_c, 0, 71, 89
2, 112484, Note_on_c, 0, 59, 0
2, 112520, Note_on_c, 0, 50, 0
2, 112568, Note_on_c, 0, 71, 0
2, 112592, Note_on_c, 0, 50, 36
2, 112596, Note_on_c, 0, 53, 51
2, 112600, Note_on_c, 0, 57, 49
2, 112688, Note_on_c, 0, 57, 0
2, 112688, Note_on_c, 0, 53, 0
2, 112732, Note_on_c, 0, 50, 0
2, 112760, Note_on_c, 0, 71, 87
2, 112792, Note_on_c, 0, 57, 51
2, 112792, Note_on_c, 0, 53, 43
2, 112796, Note_on_c, 0, 50, 48
2, 112840, Note_on_c, 0, 71, 0
2, 112844, Note_on_c, 0, 72, 95
2, 112924, Note_on_c, 0, 71, 91
2, 112932, Note_on_c, 0, 72, 0
2, 112992, Note_on_c, 0, 69, 85
2, 112996, Note_on_c, 0, 71, 0
2, 113060, Note_on_c, 0, 71, 87
2, 113072, Note_on_c, 0, 69, 0
2, 113116, Note_on_c, 0, 71, 0
2, 113168, Note_on_c, 0, 83, 99
2, 113172, Note_on_c, 0, 53, 0
2, 113188, Note_on_c, 0, 50, 0
2, 113196, Note_on_c, 0, 57, 0
2, 113380, Note_on_c, 0, 83, 0
2, 113432, Note_on_c, 0, 71, 92
2, 113472, Note_on_c, 0, 71, 0
2, 113520, Control_c, 0, 64, 104
2, 113524, Note_on_c, 0, 61, 83
2, 113532, Control_c, 0, 64, 40
2, 113540, Note_on_c, 0, 40, 65
2, 113548, Control_c, 0, 64, 0
2, 113588, Note_on_c, 0, 73, 91
2, 113600, Control_c, 0, 64, 127
2, 113604, Note_on_c, 0, 40, 0
2, 113604, Control_c, 0, 64, 56
2, 113616, Control_c, 0, 64, 127
2, 113688, Note_on_c, 0, 61, 0
2, 113736, Note_on_c, 0, 55, 61
2, 113748, Note_on_c, 0, 57, 54
2, 113752, Note_on_c, 0, 52, 64
2, 113792, Note_on_c, 0, 73, 0
2, 113860, Note_on_c, 0, 61, 82
2, 113864, Note_on_c, 0, 57, 0
2, 113932, Note_on_c, 0, 73, 101
2, 113956, Note_on_c, 0, 55, 0
2, 113964, Note_on_c, 0, 61, 0
2, 113976, Note_on_c, 0, 52, 0
2, 114048, Note_on_c, 0, 73, 0
2, 114076, Note_on_c, 0, 55, 62
2, 114076, Note_on_c, 0, 57, 59
2, 114080, Note_on_c, 0, 52, 58
2, 114172, Note_on_c, 0, 57, 0
2, 114212, Note_on_c, 0, 73, 89
2, 114284, Note_on_c, 0, 73, 0
2, 114288, Note_on_c, 0, 74, 95
2, 114356, Note_on_c, 0, 73, 89
2, 114372, Note_on_c, 0, 74, 0
2, 114424, Note_on_c, 0, 71, 90
2, 114428, Note_on_c, 0, 73, 0
2, 114428, Note_on_c, 0, 55, 0
2, 114488, Note_on_c, 0, 73, 93
2, 114504, Note_on_c, 0, 71, 0
2, 114552, Note_on_c, 0, 73, 0
2, 114596, Note_on_c, 0, 85, 101
2, 114680, Note_on_c, 0, 52, 0
2, 114860, Note_on_c, 0, 85, 0
2, 114876, Note_on_c, 0, 73, 92
2, 114932, Note_on_c, 0, 73, 0
2, 114944, Note_on_c, 0, 62, 70
2, 115032, Note_on_c, 0, 74, 97
2, 115044, Note_on_c, 0, 41, 73
2, 115048, Note_on_c, 0, 62, 0
2, 115068, Control_c, 0, 64, 104
2, 115080, Control_c, 0, 64, 127
2, 115096, Note_on_c, 0, 74, 0
2, 115104, Note_on_c, 0, 41, 0
2, 115240, Note_on_c, 0, 53, 62
2, 115244, Note_on_c, 0, 62, 59
2, 115244, Note_on_c, 0, 57, 51
2, 115308, Note_on_c, 0, 57, 0
2, 115308, Note_on_c, 0, 62, 0
2, 115308, Note_on_c, 0, 53, 0
2, 115412, Note_on_c, 0, 86, 101
2, 115416, Note_on_c, 0, 74, 89
2, 115476, Note_on_c, 0, 74, 0
2, 115476, Note_on_c, 0, 86, 0
2, 115528, Note_on_c, 0, 62, 58
2, 115536, Note_on_c, 0, 57, 47
2, 115536, Note_on_c, 0, 53, 57
2, 115556, Note_on_c, 0, 62, 0
2, 115564, Note_on_c, 0, 53, 0
2, 115564, Note_on_c, 0, 57, 0
2, 115684, Note_on_c, 0, 64, 79
2, 115704, Control_c, 0, 64, 72
2, 115716, Control_c, 0, 64, 0
2, 115760, Note_on_c, 0, 76, 104
2, 115768, Note_on_c, 0, 43, 78
2, 115788, Note_on_c, 0, 64, 0
2, 115808, Control_c, 0, 64, 127
2, 115824, Note_on_c, 0, 43, 0
2, 115836, Note_on_c, 0, 76, 0
2, 115972, Note_on_c, 0, 55, 72
2, 115972, Note_on_c, 0, 58, 54
2, 115972, Note_on_c, 0, 62, 66
2, 116028, Note_on_c, 0, 55, 0
2, 116036, Note_on_c, 0, 62, 0
2, 116060, Note_on_c, 0, 58, 0
2, 116100, Note_on_c, 0, 76, 61
2, 116108, Note_on_c, 0, 88, 99
2, 116184, Note_on_c, 0, 88, 0
2, 116188, Note_on_c, 0, 76, 0
2, 116252, Note_on_c, 0, 58, 58
2, 116256, Note_on_c, 0, 55, 64
2, 116260, Note_on_c, 0, 62, 58
2, 116280, Note_on_c, 0, 55, 0
2, 116280, Note_on_c, 0, 58, 0
2, 116284, Note_on_c, 0, 62, 0
2, 116360, Note_on_c, 0, 66, 87
2, 116384, Control_c, 0, 64, 104
2, 116396, Control_c, 0, 64, 56
2, 116408, Control_c, 0, 64, 0
2, 116448, Note_on_c, 0, 78, 104
2, 116464, Note_on_c, 0, 45, 86
2, 116468, Note_on_c, 0, 73, 53
2, 116480, Note_on_c, 0, 66, 0
2, 116496, Control_c, 0, 64, 88
2, 116508, Note_on_c, 0, 73, 0
2, 116508, Control_c, 0, 64, 127
2, 116528, Note_on_c, 0, 78, 0
2, 116540, Note_on_c, 0, 45, 0
2, 116656, Note_on_c, 0, 60, 68
2, 116660, Note_on_c, 0, 62, 68
2, 116676, Note_on_c, 0, 57, 52
2, 116732, Note_on_c, 0, 60, 0
2, 116740, Note_on_c, 0, 57, 0
2, 116768, Note_on_c, 0, 62, 0
2, 116820, Note_on_c, 0, 90, 105
2, 116820, Note_on_c, 0, 78, 101
2, 116880, Note_on_c, 0, 78, 0
2, 116880, Note_on_c, 0, 90, 0
2, 116944, Note_on_c, 0, 62, 66
2, 116948, Note_on_c, 0, 60, 61
2, 116948, Note_on_c, 0, 57, 55
2, 116968, Note_on_c, 0, 60, 0
2, 116968, Note_on_c, 0, 62, 0
2, 116972, Note_on_c, 0, 57, 0
2, 117068, Note_on_c, 0, 67, 86
2, 117096, Control_c, 0, 64, 104
2, 117112, Control_c, 0, 64, 24
2, 117124, Control_c, 0, 64, 0
2, 117156, Note_on_c, 0, 79, 108
2, 117172, Note_on_c, 0, 46, 90
2, 117192, Note_on_c, 0, 67, 0
2, 117200, Control_c, 0, 64, 56
2, 117212, Control_c, 0, 64, 127
2, 117240, Note_on_c, 0, 79, 0
2, 117264, Note_on_c, 0, 46, 0
2, 117364, Note_on_c, 0, 62, 78
2, 117364, Note_on_c, 0, 64, 78
2, 117372, Note_on_c, 0, 58, 63
2, 117436, Note_on_c, 0, 62, 0
2, 117452, Note_on_c, 0, 58, 0
2, 117460, Note_on_c, 0, 64, 0
2, 117516, Note_on_c, 0, 91, 112
2, 117520, Note_on_c, 0, 79, 102
2, 117680, Note_on_c, 0, 62, 73
2, 117684, Note_on_c, 0, 64, 75
2, 117684, Note_on_c, 0, 58, 56
2, 117704, Note_on_c, 0, 62, 0
2, 117716, Note_on_c, 0, 64, 0
2, 117724, Note_on_c, 0, 58, 0
2, 117876, Control_c, 0, 64, 104
2, 117892, Note_on_c, 0, 47, 98
2, 117892, Control_c, 0, 64, 0
2, 117980, Control_c, 0, 64, 127
2, 117992, Note_on_c, 0, 47, 0
2, 118032, Note_on_c, 0, 79, 0
2, 118108, Note_on_c, 0, 65, 61
2, 118108, Note_on_c, 0, 59, 68
2, 118112, Note_on_c, 0, 62, 50
2, 118180, Note_on_c, 0, 59, 0
2, 118184, Note_on_c, 0, 62, 0
2, 118184, Note_on_c, 0, 65, 0
2, 118216, Note_on_c, 0, 91, 0
2, 118244, Note_on_c, 0, 93, 108
2, 118248, Note_on_c, 0, 81, 89
2, 118320, Note_on_c, 0, 93, 0
2, 118336, Note_on_c, 0, 81, 0
2, 118388, Note_on_c, 0, 62, 67
2, 118392, Note_on_c, 0, 65, 63
2, 118396, Note_on_c, 0, 59, 63
2, 118412, Note_on_c, 0, 62, 0
2, 118416, Note_on_c, 0, 65, 0
2, 118420, Note_on_c, 0, 59, 0
2, 118568, Control_c, 0, 64, 88
2, 118572, Note_on_c, 0, 86, 108
2, 118572, Note_on_c, 0, 74, 102
2, 118580, Control_c, 0, 64, 0
2, 118604, Note_on_c, 0, 45, 81
2, 118644, Control_c, 0, 64, 40
2, 118656, Control_c, 0, 64, 127
2, 118712, Note_on_c, 0, 45, 0
2, 118720, Note_on_c, 0, 74, 0
2, 118748, Note_on_c, 0, 60, 79
2, 118756, Note_on_c, 0, 65, 64
2, 118764, Note_on_c, 0, 57, 61
2, 118784, Note_on_c, 0, 65, 0
2, 118812, Note_on_c, 0, 57, 0
2, 118812, Note_on_c, 0, 60, 0
2, 118848, Note_on_c, 0, 86, 0
2, 118896, Note_on_c, 0, 88, 107
2, 118900, Note_on_c, 0, 76, 95
2, 119040, Note_on_c, 0, 76, 0
2, 119040, Note_on_c, 0, 57, 56
2, 119044, Note_on_c, 0, 65, 61
2, 119048, Note_on_c, 0, 60, 67
2, 119068, Note_on_c, 0, 65, 0
2, 119072, Note_on_c, 0, 60, 0
2, 119088, Note_on_c, 0, 57, 0
2, 119192, Note_on_c, 0, 88, 0
2, 119192, Control_c, 0, 64, 104
2, 119208, Control_c, 0, 64, 24
2, 119220, Note_on_c, 0, 77, 105
2, 119220, Note_on_c, 0, 89, 112
2, 119220, Control_c, 0, 64, 0
2, 119228, Note_on_c, 0, 43, 84
2, 119284, Control_c, 0, 64, 88
2, 119296, Control_c, 0, 64, 127
2, 119336, Note_on_c, 0, 43, 0
2, 119348, Note_on_c, 0, 77, 0
2, 119384, Note_on_c, 0, 59, 69
2, 119388, Note_on_c, 0, 65, 69
2, 119400, Note_on_c, 0, 55, 66
2, 119428, Note_on_c, 0, 55, 0
2, 119448, Note_on_c, 0, 59, 0
2, 119456, Note_on_c, 0, 65, 0
2, 119492, Note_on_c, 0, 89, 0
2, 119540, Note_on_c, 0, 91, 110
2, 119544, Note_on_c, 0, 79, 97
2, 119644, Note_on_c, 0, 79, 0
2, 119664, Note_on_c, 0, 59, 63
2, 119668, Note_on_c, 0, 91, 0
2, 119668, Note_on_c, 0, 65, 64
2, 119672, Note_on_c, 0, 55, 67
2, 119692, Note_on_c, 0, 65, 0
2, 119692, Note_on_c, 0, 59, 0
2, 119696, Note_on_c, 0, 55, 0
2, 119844, Note_on_c, 0, 81, 93
2, 119844, Note_on_c, 0, 93, 110
2, 119844, Control_c, 0, 64, 56
2, 119856, Control_c, 0, 64, 0
2, 119872, Note_on_c, 0, 41, 81
2, 119924, Control_c, 0, 64, 104
2, 119936, Control_c, 0, 64, 127
2, 119976, Note_on_c, 0, 41, 0
2, 119980, Note_on_c, 0, 81, 0
2, 119996, Note_on_c, 0, 93, 0
2, 120028, Note_on_c, 0, 62, 84
2, 120028, Note_on_c, 0, 55, 75
2, 120048, Note_on_c, 0, 53, 45
2, 120052, Note_on_c, 0, 62, 0
2, 120072, Note_on_c, 0, 53, 0
2, 120072, Note_on_c, 0, 55, 0
2, 120164, Note_on_c, 0, 95, 108
2, 120168, Note_on_c, 0, 83, 97
2, 120276, Note_on_c, 0, 83, 0
2, 120308, Note_on_c, 0, 55, 72
2, 120312, Note_on_c, 0, 62, 73
2, 120316, Note_on_c, 0, 53, 69
2, 120320, Note_on_c, 0, 95, 0
2, 120332, Note_on_c, 0, 55, 0
2, 120332, Note_on_c, 0, 62, 0
2, 120336, Note_on_c, 0, 53, 0
2, 120512, Note_on_c, 0, 96, 108
2, 120512, Note_on_c, 0, 84, 94
2, 120512, Note_on_c, 0, 40, 87
2, 120512, Control_c, 0, 64, 88
2, 120524, Control_c, 0, 64, 0
2, 120604, Control_c, 0, 64, 127
2, 120608, Note_on_c, 0, 40, 0
2, 120700, Note_on_c, 0, 55, 63
2, 120700, Note_on_c, 0, 60, 72
2, 120720, Note_on_c, 0, 52, 51
2, 120740, Note_on_c, 0, 55, 0
2, 120752, Note_on_c, 0, 52, 0
2, 120772, Note_on_c, 0, 60, 0
2, 120996, Note_on_c, 0, 52, 70
2, 121000, Note_on_c, 0, 60, 71
2, 121004, Note_on_c, 0, 55, 60
2, 121028, Note_on_c, 0, 55, 0
2, 121028, Note_on_c, 0, 60, 0
2, 121060, Note_on_c, 0, 52, 0
2, 121104, Note_on_c, 0, 96, 0
2, 121112, Control_c, 0, 64, 88
2, 121124, Control_c, 0, 64, 0
2, 121152, Note_on_c, 0, 84, 0
2, 121164, Note_on_c, 0, 39, 86
2, 121164, Control_c, 0, 64, 40
2, 121176, Control_c, 0, 64, 127
2, 121208, Note_on_c, 0, 39, 0
2, 121316, Note_on_c, 0, 60, 82
2, 121316, Note_on_c, 0, 51, 70
2, 121324, Note_on_c, 0, 54, 52
2, 121356, Note_on_c, 0, 60, 0
2, 121360, Note_on_c, 0, 54, 0
2, 121364, Note_on_c, 0, 51, 0
2, 121468, Note_on_c, 0, 93, 115
2, 121476, Note_on_c, 0, 81, 94
2, 121604, Note_on_c, 0, 51, 74
2, 121608, Note_on_c, 0, 60, 76
2, 121620, Note_on_c, 0, 93, 0
2, 121628, Note_on_c, 0, 60, 0
2, 121628, Note_on_c, 0, 54, 68
2, 121632, Note_on_c, 0, 51, 0
2, 121648, Note_on_c, 0, 81, 0
2, 121704, Note_on_c, 0, 54, 0
2, 121800, Control_c, 0, 64, 40
2, 121808, Note_on_c, 0, 91, 114
2, 121808, Note_on_c, 0, 79, 98
2, 121812, Note_on_c, 0, 38, 83
2, 121812, Control_c, 0, 64, 0
2, 121864, Note_on_c, 0, 38, 0
2, 121864, Control_c, 0, 64, 56
2, 121876, Control_c, 0, 64, 127
2, 121972, Note_on_c, 0, 60, 75
2, 121980, Note_on_c, 0, 53, 70
2, 121992, Note_on_c, 0, 50, 61
2, 122040, Note_on_c, 0, 60, 0
2, 122044, Note_on_c, 0, 50, 0
2, 122048, Note_on_c, 0, 53, 0
2, 122276, Note_on_c, 0, 60, 67
2, 122276, Note_on_c, 0, 53, 68
2, 122280, Note_on_c, 0, 50, 67
2, 122320, Note_on_c, 0, 50, 0
2, 122320, Note_on_c, 0, 60, 0
2, 122332, Note_on_c, 0, 53, 0
2, 122440, Control_c, 0, 64, 40
2, 122452, Control_c, 0, 64, 0
2, 122456, Note_on_c, 0, 37, 80
2, 122488, Note_on_c, 0, 91, 0
2, 122492, Control_c, 0, 64, 56
2, 122504, Control_c, 0, 64, 127
2, 122508, Note_on_c, 0, 37, 0
2, 122512, Note_on_c, 0, 79, 0
2, 122648, Note_on_c, 0, 49, 63
2, 122648, Note_on_c, 0, 59, 58
2, 122648, Note_on_c, 0, 53, 61
2, 122728, Note_on_c, 0, 53, 0
2, 122728, Note_on_c, 0, 49, 0
2, 122740, Note_on_c, 0, 59, 0
2, 122808, Note_on_c, 0, 79, 91
2, 122808, Note_on_c, 0, 67, 77
2, 122980, Note_on_c, 0, 79, 0
2, 122980, Note_on_c, 0, 53, 56
2, 122980, Note_on_c, 0, 59, 55
2, 122980, Note_on_c, 0, 49, 55
2, 122984, Note_on_c, 0, 67, 0
2, 123012, Note_on_c, 0, 53, 0
2, 123012, Note_on_c, 0, 59, 0
2, 123024, Note_on_c, 0, 49, 0
2, 123204, Note_on_c, 0, 79, 83
2, 123208, Note_on_c, 0, 67, 68
2, 123220, Control_c, 0, 64, 40
2, 123232, Control_c, 0, 64, 0
2, 123236, Note_on_c, 0, 36, 85
2, 123320, Control_c, 0, 64, 127
2, 123356, Note_on_c, 0, 36, 0
2, 123400, Note_on_c, 0, 67, 0
2, 123468, Note_on_c, 0, 58, 54
2, 123476, Note_on_c, 0, 60, 56
2, 123484, Note_on_c, 0, 52, 49
2, 123496, Note_on_c, 0, 48, 38
2, 123532, Note_on_c, 0, 48, 0
2, 123544, Note_on_c, 0, 60, 0
2, 123544, Note_on_c, 0, 58, 0
2, 123548, Note_on_c, 0, 52, 0
2, 123588, Note_on_c, 0, 79, 0
2, 123628, Note_on_c, 0, 81, 89
2, 123628, Note_on_c, 0, 69, 84
2, 123692, Note_on_c, 0, 81, 0
2, 123696, Note_on_c, 0, 69, 0
2, 123772, Note_on_c, 0, 58, 48
2, 123776, Note_on_c, 0, 60, 67
2, 123780, Note_on_c, 0, 52, 54
2, 123844, Note_on_c, 0, 60, 0
2, 123856, Note_on_c, 0, 52, 0
2, 123856, Note_on_c, 0, 58, 0
2, 123924, Note_on_c, 0, 76, 94
2, 123928, Note_on_c, 0, 64, 79
2, 123948, Control_c, 0, 64, 40
2, 123960, Control_c, 0, 64, 0
2, 124024, Control_c, 0, 64, 40
2, 124036, Control_c, 0, 64, 127
2, 124048, Note_on_c, 0, 64, 0
2, 124056, Note_on_c, 0, 58, 41
2, 124060, Note_on_c, 0, 60, 50
2, 124064, Note_on_c, 0, 52, 49
2, 124064, Note_on_c, 0, 48, 39
2, 124068, Note_on_c, 0, 76, 0
2, 124096, Note_on_c, 0, 48, 0
2, 124104, Note_on_c, 0, 52, 0
2, 124128, Note_on_c, 0, 58, 0
2, 124152, Note_on_c, 0, 60, 0
2, 124216, Note_on_c, 0, 77, 98
2, 124220, Note_on_c, 0, 65, 84
2, 124228, Control_c, 0, 64, 24
2, 124240, Control_c, 0, 64, 0
2, 124320, Control_c, 0, 64, 24
2, 124332, Note_on_c, 0, 50, 73
2, 124332, Control_c, 0, 64, 56
2, 124340, Note_on_c, 0, 58, 58
2, 124344, Note_on_c, 0, 60, 63
2, 124344, Control_c, 0, 64, 88
2, 124356, Note_on_c, 0, 65, 0
2, 124396, Control_c, 0, 64, 72
2, 124408, Control_c, 0, 64, 56
2, 124420, Control_c, 0, 64, 40
2, 124432, Note_on_c, 0, 50, 0
2, 124432, Control_c, 0, 64, 24
2, 124436, Note_on_c, 0, 60, 0
2, 124452, Note_on_c, 0, 58, 0
2, 124456, Note_on_c, 0, 77, 0
2, 124456, Control_c, 0, 64, 0
2, 124492, Note_on_c, 0, 79, 97
2, 124500, Note_on_c, 0, 67, 83
2, 124576, Control_c, 0, 64, 24
2, 124612, Note_on_c, 0, 52, 76
2, 124616, Note_on_c, 0, 58, 59
2, 124624, Note_on_c, 0, 60, 65
2, 124624, Control_c, 0, 64, 40
2, 124632, Note_on_c, 0, 67, 0
2, 124636, Control_c, 0, 64, 56
2, 124652, Control_c, 0, 64, 72
2, 124656, Note_on_c, 0, 79, 0
2, 124664, Note_on_c, 0, 52, 0
2, 124676, Control_c, 0, 64, 88
2, 124684, Note_on_c, 0, 58, 0
2, 124736, Note_on_c, 0, 60, 0
2, 124752, Control_c, 0, 64, 24
2, 124756, Note_on_c, 0, 81, 95
2, 124756, Note_on_c, 0, 69, 88
2, 124764, Control_c, 0, 64, 0
2, 124876, Note_on_c, 0, 53, 76
2, 124880, Note_on_c, 0, 58, 58
2, 124880, Note_on_c, 0, 60, 73
2, 124880, Control_c, 0, 64, 24
2, 124884, Note_on_c, 0, 69, 0
2, 124920, Note_on_c, 0, 81, 0
2, 125016, Note_on_c, 0, 70, 88
2, 125020, Note_on_c, 0, 82, 93
2, 125028, Note_on_c, 0, 60, 0
2, 125032, Note_on_c, 0, 53, 0
2, 125072, Note_on_c, 0, 58, 0
2, 125072, Control_c, 0, 64, 40
2, 125136, Note_on_c, 0, 70, 0
2, 125140, Note_on_c, 0, 58, 60
2, 125148, Note_on_c, 0, 60, 71
2, 125148, Note_on_c, 0, 55, 72
2, 125220, Note_on_c, 0, 60, 0
2, 125232, Note_on_c, 0, 82, 0
2, 125232, Note_on_c, 0, 58, 0
2, 125248, Note_on_c, 0, 55, 0
2, 125252, Control_c, 0, 64, 0
2, 125268, Note_on_c, 0, 84, 102
2, 125272, Note_on_c, 0, 72, 95
2, 125384, Note_on_c, 0, 57, 66
2, 125384, Note_on_c, 0, 60, 64
2, 125392, Control_c, 0, 64, 40
2, 125396, Note_on_c, 0, 72, 0
2, 125404, Control_c, 0, 64, 72
2, 125420, Control_c, 0, 64, 104
2, 125432, Note_on_c, 0, 57, 0
2, 125432, Control_c, 0, 64, 127
2, 125452, Note_on_c, 0, 60, 0
2, 125496, Control_c, 0, 64, 88
2, 125508, Control_c, 0, 64, 24
2, 125512, Note_on_c, 0, 84, 0
2, 125516, Note_on_c, 0, 86, 99
2, 125520, Note_on_c, 0, 74, 88
2, 125520, Control_c, 0, 64, 0
2, 125608, Control_c, 0, 64, 40
2, 125620, Control_c, 0, 64, 88
2, 125624, Note_on_c, 0, 58, 66
2, 125628, Note_on_c, 0, 62, 75
2, 125632, Note_on_c, 0, 60, 74
2, 125632, Control_c, 0, 64, 127
2, 125644, Note_on_c, 0, 86, 0
2, 125656, Note_on_c, 0, 74, 0
2, 125692, Note_on_c, 0, 60, 0
2, 125696, Note_on_c, 0, 62, 0
2, 125700, Note_on_c, 0, 58, 0
2, 125764, Control_c, 0, 64, 72
2, 125776, Control_c, 0, 64, 0
2, 125780, Note_on_c, 0, 84, 101
2, 125784, Note_on_c, 0, 72, 92
2, 125872, Note_on_c, 0, 60, 69
2, 125876, Note_on_c, 0, 64, 67
2, 125880, Note_on_c, 0, 84, 0
2, 125880, Control_c, 0, 64, 40
2, 125888, Note_on_c, 0, 72, 0
2, 125892, Control_c, 0, 64, 72
2, 125900, Note_on_c, 0, 60, 0
2, 125904, Control_c, 0, 64, 104
2, 125916, Control_c, 0, 64, 127
2, 125944, Note_on_c, 0, 64, 0
2, 125992, Control_c, 0, 64, 104
2, 126004, Control_c, 0, 64, 40
2, 126016, Control_c, 0, 64, 0
2, 126020, Note_on_c, 0, 82, 94
2, 126028, Note_on_c, 0, 70, 90
2, 126120, Note_on_c, 0, 65, 65
2, 126120, Note_on_c, 0, 62, 65
2, 126120, Control_c, 0, 64, 24
2, 126132, Control_c, 0, 64, 56
2, 126136, Note_on_c, 0, 72, 39
2, 126144, Note_on_c, 0, 82, 0
2, 126144, Control_c, 0, 64, 72
2, 126148, Note_on_c, 0, 70, 0
2, 126160, Control_c, 0, 64, 88
2, 126188, Note_on_c, 0, 72, 0
2, 126188, Note_on_c, 0, 65, 0
2, 126208, Control_c, 0, 64, 24
2, 126216, Note_on_c, 0, 62, 0
2, 126220, Control_c, 0, 64, 0
2, 126260, Note_on_c, 0, 81, 92
2, 126268, Note_on_c, 0, 69, 72
2, 126288, Note_on_c, 0, 72, 42
2, 126312, Note_on_c, 0, 72, 0
2, 126364, Note_on_c, 0, 66, 64
2, 126364, Note_on_c, 0, 72, 68
2, 126368, Note_on_c, 0, 63, 61
2, 126388, Note_on_c, 0, 69, 0
2, 126388, Note_on_c, 0, 81, 0
2, 126432, Note_on_c, 0, 66, 0
2, 126444, Note_on_c, 0, 63, 0
2, 126448, Note_on_c, 0, 72, 0
2, 126500, Note_on_c, 0, 79, 92
2, 126512, Note_on_c, 0, 67, 65
2, 126616, Note_on_c, 0, 67, 0
2, 126616, Note_on_c, 0, 64, 64
2, 126616, Note_on_c, 0, 72, 70
2, 126628, Note_on_c, 0, 79, 0
2, 126696, Note_on_c, 0, 72, 0
2, 126704, Note_on_c, 0, 64, 0
2, 126736, Note_on_c, 0, 77, 99
2, 126736, Note_on_c, 0, 69, 87
2, 126836, Note_on_c, 0, 69, 0
2, 126840, Note_on_c, 0, 65, 72
2, 126844, Note_on_c, 0, 77, 0
2, 126844, Note_on_c, 0, 72, 74
2, 126916, Note_on_c, 0, 65, 0
2, 126932, Note_on_c, 0, 72, 0
2, 126960, Note_on_c, 0, 76, 94
2, 126968, Note_on_c, 0, 70, 69
2, 127064, Note_on_c, 0, 70, 0
2, 127068, Note_on_c, 0, 72, 69
2, 127068, Note_on_c, 0, 67, 68
2, 127080, Note_on_c, 0, 76, 0
2, 127120, Note_on_c, 0, 67, 0
2, 127148, Note_on_c, 0, 72, 0
2, 127188, Note_on_c, 0, 74, 86
2, 127204, Note_on_c, 0, 67, 59
2, 127204, Note_on_c, 0, 70, 50
2, 127240, Note_on_c, 0, 67, 0
2, 127280, Note_on_c, 0, 70, 0
2, 127280, Note_on_c, 0, 65, 69
2, 127284, Note_on_c, 0, 72, 73
2, 127320, Note_on_c, 0, 74, 0
2, 127356, Note_on_c, 0, 65, 0
2, 127364, Note_on_c, 0, 72, 0
2, 127404, Note_on_c, 0, 74, 90
2, 127416, Note_on_c, 0, 70, 62
2, 127416, Note_on_c, 0, 67, 69
2, 127492, Note_on_c, 0, 67, 0
2, 127496, Note_on_c, 0, 70, 0
2, 127508, Note_on_c, 0, 72, 69
2, 127516, Note_on_c, 0, 64, 51
2, 127524, Note_on_c, 0, 74, 0
2, 127584, Note_on_c, 0, 64, 0
2, 127592, Note_on_c, 0, 72, 0
2, 127620, Note_on_c, 0, 74, 87
2, 127628, Note_on_c, 0, 67, 67
2, 127628, Note_on_c, 0, 70, 57
2, 127700, Note_on_c, 0, 70, 0
2, 127700, Note_on_c, 0, 67, 0
2, 127712, Note_on_c, 0, 72, 63
2, 127716, Note_on_c, 0, 64, 64
2, 127724, Note_on_c, 0, 74, 0
2, 127788, Note_on_c, 0, 64, 0
2, 127796, Note_on_c, 0, 72, 0
2, 127812, Note_on_c, 0, 74, 87
2, 127820, Note_on_c, 0, 67, 64
2, 127820, Note_on_c, 0, 70, 58
2, 127904, Note_on_c, 0, 70, 0
2, 127908, Note_on_c, 0, 67, 0
2, 127916, Note_on_c, 0, 74, 0
2, 127916, Note_on_c, 0, 72, 70
2, 127920, Note_on_c, 0, 64, 69
2, 127988, Note_on_c, 0, 72, 0
2, 127992, Note_on_c, 0, 64, 0
2, 128012, Note_on_c, 0, 74, 82
2, 128020, Note_on_c, 0, 67, 63
2, 128020, Note_on_c, 0, 70, 61
2, 128092, Note_on_c, 0, 67, 0
2, 128096, Note_on_c, 0, 70, 0
2, 128108, Note_on_c, 0, 74, 0
2, 128116, Note_on_c, 0, 72, 65
2, 128116, Note_on_c, 0, 64, 68
2, 128196, Note_on_c, 0, 64, 0
2, 128196, Note_on_c, 0, 72, 0
2, 128208, Note_on_c, 0, 74, 81
2, 128212, Note_on_c, 0, 70, 56
2, 128212, Note_on_c, 0, 67, 64
2, 128292, Note_on_c, 0, 67, 0
2, 128296, Note_on_c, 0, 70, 0
2, 128308, Note_on_c, 0, 72, 65
2, 128312, Note_on_c, 0, 74, 0
2, 128316, Note_on_c, 0, 64, 68
2, 128396, Note_on_c, 0, 64, 0
2, 128396, Note_on_c, 0, 72, 0
2, 128420, Note_on_c, 0, 74, 81
2, 128424, Note_on_c, 0, 67, 64
2, 128424, Note_on_c, 0, 70, 55
2, 128500, Note_on_c, 0, 67, 0
2, 128504, Note_on_c, 0, 70, 0
2, 128512, Note_on_c, 0, 74, 0
2, 128520, Note_on_c, 0, 64, 67
2, 128520, Note_on_c, 0, 72, 62
2, 128592, Note_on_c, 0, 72, 0
2, 128600, Note_on_c, 0, 64, 0
2, 128616, Note_on_c, 0, 74, 75
2, 128616, Note_on_c, 0, 67, 63
2, 128616, Note_on_c, 0, 70, 55
2, 128692, Note_on_c, 0, 70, 0
2, 128692, Note_on_c, 0, 67, 0
2, 128712, Note_on_c, 0, 74, 0
2, 128720, Note_on_c, 0, 72, 64
2, 128724, Note_on_c, 0, 64, 61
2, 128792, Note_on_c, 0, 72, 0
2, 128800, Note_on_c, 0, 64, 0
2, 128816, Note_on_c, 0, 74, 75
2, 128816, Note_on_c, 0, 67, 58
2, 128824, Note_on_c, 0, 70, 47
2, 128896, Note_on_c, 0, 67, 0
2, 128916, Note_on_c, 0, 74, 0
2, 128920, Note_on_c, 0, 70, 0
2, 128924, Note_on_c, 0, 72, 65
2, 128928, Note_on_c, 0, 64, 59
2, 128992, Note_on_c, 0, 64, 0
2, 128992, Note_on_c, 0, 72, 0
2, 129100, Note_on_c, 0, 79, 81
2, 129408, Note_on_c, 0, 48, 59
2, 129452, Control_c, 0, 64, 40
2, 129464, Control_c, 0, 64, 56
2, 129480, Control_c, 0, 64, 72
2, 129496, Control_c, 0, 64, 88
2, 129512, Control_c, 0, 64, 104
2, 129544, Control_c, 0, 64, 127
2, 129660, Note_on_c, 0, 79, 0
2, 129796, Note_on_c, 0, 70, 49
2, 129804, Note_on_c, 0, 64, 41
2, 129840, Note_on_c, 0, 60, 36
2, 129856, Note_on_c, 0, 55, 45
2, 130088, Note_on_c, 0, 76, 79
2, 130356, Note_on_c, 0, 70, 0
2, 130376, Note_on_c, 0, 76, 0
2, 130384, Note_on_c, 0, 72, 85
2, 130616, Note_on_c, 0, 72, 0
2, 130636, Note_on_c, 0, 73, 82
2, 130664, Note_on_c, 0, 64, 0
2, 130920, Note_on_c, 0, 73, 0
2, 130928, Note_on_c, 0, 74, 81
2, 130984, Control_c, 0, 64, 104
2, 131000, Control_c, 0, 64, 40
2, 131012, Control_c, 0, 64, 0
2, 131092, Control_c, 0, 64, 40
2, 131104, Control_c, 0, 64, 104
2, 131120, Control_c, 0, 64, 127
2, 131160, Note_on_c, 0, 74, 0
2, 131212, Note_on_c, 0, 66, 69
2, 131248, Note_on_c, 0, 48, 0
2, 131304, Note_on_c, 0, 60, 0
2, 131304, Note_on_c, 0, 55, 0
2, 131412, Note_on_c, 0, 66, 0
2, 131448, Note_on_c, 0, 67, 76
2, 131476, Control_c, 0, 64, 88
2, 131492, Control_c, 0, 64, 40
2, 131508, Control_c, 0, 64, 0
2, 131556, Control_c, 0, 64, 24
2, 131572, Control_c, 0, 64, 56
2, 131588, Control_c, 0, 64, 88
2, 131604, Control_c, 0, 64, 127
2, 131680, Control_c, 0, 64, 88
2, 131696, Control_c, 0, 64, 40
2, 131708, Note_on_c, 0, 69, 80
2, 131708, Control_c, 0, 64, 0
2, 131748, Note_on_c, 0, 67, 0
2, 131968, Note_on_c, 0, 70, 80
2, 131976, Note_on_c, 0, 69, 0
2, 132064, Control_c, 0, 64, 24
2, 132080, Control_c, 0, 64, 56
2, 132096, Control_c, 0, 64, 72
2, 132112, Control_c, 0, 64, 88
2, 132184, Note_on_c, 0, 70, 0
2, 132192, Control_c, 0, 64, 56
2, 132204, Control_c, 0, 64, 0
2, 132236, Note_on_c, 0, 63, 70
2, 132392, Control_c, 0, 64, 24
2, 132408, Control_c, 0, 64, 40
2, 132492, Note_on_c, 0, 64, 79
2, 132500, Control_c, 0, 64, 0
2, 132516, Note_on_c, 0, 63, 0
2, 132740, Note_on_c, 0, 65, 77
2, 132772, Note_on_c, 0, 64, 0
2, 133004, Note_on_c, 0, 65, 0
2, 133012, Note_on_c, 0, 67, 69
2, 133260, Note_on_c, 0, 67, 0
2, 133280, Note_on_c, 0, 59, 62
2, 133568, Note_on_c, 0, 60, 67
2, 133576, Note_on_c, 0, 59, 0
2, 133868, Note_on_c, 0, 62, 61
2, 133872, Note_on_c, 0, 60, 0
2, 134120, Note_on_c, 0, 62, 0
2, 134184, Note_on_c, 0, 64, 57
2, 134388, Control_c, 0, 64, 24
2, 134484, Control_c, 0, 64, 0
2, 134536, Note_on_c, 0, 67, 67
2, 134552, Note_on_c, 0, 64, 0
2, 134620, Control_c, 0, 64, 40
2, 134636, Control_c, 0, 64, 56
2, 134668, Control_c, 0, 64, 72
2, 134688, Note_on_c, 0, 67, 0
2, 134700, Control_c, 0, 64, 88
2, 134932, Note_on_c, 0, 70, 60
2, 134944, Control_c, 0, 64, 72
2, 134960, Control_c, 0, 64, 56
2, 134976, Control_c, 0, 64, 24
2, 134992, Control_c, 0, 64, 0
2, 135100, Control_c, 0, 64, 24
2, 135116, Control_c, 0, 64, 56
2, 135132, Control_c, 0, 64, 88
2, 135148, Control_c, 0, 64, 104
2, 135164, Control_c, 0, 64, 127
2, 135396, Note_on_c, 0, 70, 0
2, 135696, Note_on_c, 0, 71, 52
2, 135892, Control_c, 0, 64, 88
2, 135904, Control_c, 0, 64, 72
2, 135920, Control_c, 0, 64, 24
2, 135936, Control_c, 0, 64, 0
2, 136076, Control_c, 0, 64, 24
2, 136092, Control_c, 0, 64, 56
2, 136108, Control_c, 0, 64, 88
2, 136124, Control_c, 0, 64, 127
2, 136288, Note_on_c, 0, 71, 0
2, 137144, Note_on_c, 0, 72, 63
2, 137160, Control_c, 0, 64, 56
2, 137176, Control_c, 0, 64, 0
2, 137252, Control_c, 0, 64, 88
2, 137268, Control_c, 0, 64, 127
2, 137324, Note_on_c, 0, 72, 0
2, 137436, Note_on_c, 0, 58, 46
2, 137444, Note_on_c, 0, 41, 48
2, 137520, Note_on_c, 0, 41, 0
2, 137528, Note_on_c, 0, 58, 0
2, 137548, Note_on_c, 0, 64, 63
2, 137684, Note_on_c, 0, 64, 0
2, 137704, Note_on_c, 0, 72, 81
2, 137772, Note_on_c, 0, 55, 52
2, 137844, Note_on_c, 0, 55, 0
2, 137972, Note_on_c, 0, 72, 0
2, 138088, Note_on_c, 0, 74, 77
2, 138092, Note_on_c, 0, 64, 50
2, 138268, Note_on_c, 0, 64, 0
2, 138268, Note_on_c, 0, 74, 0
2, 138356, Note_on_c, 0, 67, 81
2, 138384, Note_on_c, 0, 58, 35
2, 138396, Note_on_c, 0, 60, 36
2, 138512, Note_on_c, 0, 67, 0
2, 138532, Note_on_c, 0, 60, 0
2, 138600, Note_on_c, 0, 69, 78
2, 138600, Note_on_c, 0, 64, 55
2, 138612, Note_on_c, 0, 58, 0
2, 138632, Note_on_c, 0, 64, 0
2, 138692, Note_on_c, 0, 69, 0
2, 138748, Note_on_c, 0, 58, 61
2, 138800, Note_on_c, 0, 64, 66
2, 138804, Control_c, 0, 64, 40
2, 138816, Control_c, 0, 64, 0
2, 138840, Note_on_c, 0, 58, 0
2, 138844, Note_on_c, 0, 41, 45
2, 138860, Note_on_c, 0, 48, 46
2, 138864, Note_on_c, 0, 70, 78
2, 138880, Control_c, 0, 64, 40
2, 138884, Note_on_c, 0, 64, 0
2, 138892, Note_on_c, 0, 41, 0
2, 138896, Control_c, 0, 64, 127
2, 138904, Note_on_c, 0, 48, 0
2, 138936, Note_on_c, 0, 55, 57
2, 138940, Note_on_c, 0, 70, 0
2, 138984, Note_on_c, 0, 55, 0
2, 139104, Note_on_c, 0, 72, 94
2, 139148, Note_on_c, 0, 64, 55
2, 139300, Note_on_c, 0, 64, 0
2, 139328, Note_on_c, 0, 72, 0
2, 139352, Note_on_c, 0, 74, 92
2, 139380, Note_on_c, 0, 60, 60
2, 139408, Note_on_c, 0, 58, 30
2, 139456, Note_on_c, 0, 74, 0
2, 139488, Note_on_c, 0, 60, 0
2, 139580, Note_on_c, 0, 64, 60
2, 139600, Note_on_c, 0, 76, 93
2, 139608, Note_on_c, 0, 64, 0
2, 139616, Note_on_c, 0, 58, 0
2, 139740, Note_on_c, 0, 76, 0
2, 139780, Note_on_c, 0, 65, 62
2, 139840, Control_c, 0, 64, 40
2, 139852, Note_on_c, 0, 71, 68
2, 139856, Control_c, 0, 64, 0
2, 139860, Note_on_c, 0, 41, 55
2, 139892, Note_on_c, 0, 50, 51
2, 139932, Note_on_c, 0, 41, 0
2, 139972, Note_on_c, 0, 77, 91
2, 139980, Control_c, 0, 64, 88
2, 139996, Control_c, 0, 64, 127
2, 140004, Note_on_c, 0, 50, 0
2, 140012, Note_on_c, 0, 56, 49
2, 140028, Note_on_c, 0, 65, 0
2, 140060, Note_on_c, 0, 56, 0
2, 140092, Note_on_c, 0, 71, 0
2, 140236, Note_on_c, 0, 65, 65
2, 140400, Note_on_c, 0, 65, 0
2, 140480, Note_on_c, 0, 56, 44
2, 140496, Note_on_c, 0, 59, 47
2, 140624, Note_on_c, 0, 56, 0
2, 140692, Note_on_c, 0, 77, 0
2, 140696, Note_on_c, 0, 59, 0
2, 140736, Note_on_c, 0, 74, 73
2, 140772, Note_on_c, 0, 65, 52
2, 140804, Note_on_c, 0, 74, 0
2, 140824, Note_on_c, 0, 76, 67
2, 140908, Note_on_c, 0, 74, 83
2, 140916, Note_on_c, 0, 76, 0
2, 140968, Note_on_c, 0, 65, 0
2, 141016, Note_on_c, 0, 74, 0
2, 141032, Control_c, 0, 64, 56
2, 141036, Note_on_c, 0, 72, 75
2, 141048, Control_c, 0, 64, 0
2, 141080, Note_on_c, 0, 60, 31
2, 141104, Note_on_c, 0, 57, 36
2, 141164, Note_on_c, 0, 74, 36
2, 141200, Note_on_c, 0, 74, 0
2, 141288, Note_on_c, 0, 57, 0
2, 141288, Note_on_c, 0, 60, 0
2, 141296, Control_c, 0, 64, 88
2, 141312, Note_on_c, 0, 65, 56
2, 141312, Control_c, 0, 64, 127
2, 141400, Note_on_c, 0, 65, 0
2, 141560, Note_on_c, 0, 62, 53
2, 141560, Control_c, 0, 64, 56
2, 141568, Note_on_c, 0, 60, 42
2, 141576, Control_c, 0, 64, 0
2, 141588, Note_on_c, 0, 57, 40
2, 141652, Control_c, 0, 64, 72
2, 141668, Control_c, 0, 64, 127
2, 141752, Note_on_c, 0, 60, 0
2, 141756, Note_on_c, 0, 57, 0
2, 141796, Note_on_c, 0, 62, 0
2, 141820, Control_c, 0, 64, 88
2, 141848, Note_on_c, 0, 64, 50
2, 141860, Note_on_c, 0, 58, 44
2, 141868, Control_c, 0, 64, 127
2, 141892, Note_on_c, 0, 64, 0
2, 141892, Note_on_c, 0, 55, 45
2, 141900, Note_on_c, 0, 58, 0
2, 141920, Note_on_c, 0, 55, 0
2, 141920, Note_on_c, 0, 72, 0
2, 142100, Control_c, 0, 64, 56
2, 142104, Note_on_c, 0, 65, 64
2, 142116, Control_c, 0, 64, 0
2, 142132, Note_on_c, 0, 41, 50
2, 142136, Note_on_c, 0, 48, 64
2, 142152, Note_on_c, 0, 72, 73
2, 142172, Note_on_c, 0, 41, 0
2, 142200, Note_on_c, 0, 65, 0
2, 142200, Note_on_c, 0, 48, 0
2, 142208, Control_c, 0, 64, 56
2, 142224, Control_c, 0, 64, 127
2, 142260, Note_on_c, 0, 77, 88
2, 142264, Note_on_c, 0, 72, 0
2, 142280, Note_on_c, 0, 57, 55
2, 142336, Note_on_c, 0, 57, 0
2, 142460, Note_on_c, 0, 77, 0
2, 142504, Note_on_c, 0, 76, 84
2, 142520, Note_on_c, 0, 60, 59
2, 142600, Note_on_c, 0, 76, 0
2, 142624, Note_on_c, 0, 77, 69
2, 142672, Note_on_c, 0, 60, 0
2, 142704, Note_on_c, 0, 76, 87
2, 142708, Note_on_c, 0, 77, 0
2, 142772, Note_on_c, 0, 74, 83
2, 142784, Note_on_c, 0, 76, 0
2, 142784, Note_on_c, 0, 57, 50
2, 142792, Note_on_c, 0, 53, 49
2, 142952, Note_on_c, 0, 57, 0
2, 142960, Note_on_c, 0, 74, 0
2, 142980, Note_on_c, 0, 72, 78
2, 142996, Note_on_c, 0, 60, 51
2, 143000, Note_on_c, 0, 53, 0
2, 143032, Note_on_c, 0, 72, 0
2, 143052, Note_on_c, 0, 60, 0
2, 143168, Note_on_c, 0, 60, 74
2, 143184, Control_c, 0, 64, 72
2, 143200, Control_c, 0, 64, 0
2, 143212, Note_on_c, 0, 66, 49
2, 143228, Note_on_c, 0, 50, 50
2, 143248, Note_on_c, 0, 45, 54
2, 143256, Note_on_c, 0, 60, 0
2, 143284, Note_on_c, 0, 57, 52
2, 143292, Note_on_c, 0, 74, 87
2, 143296, Note_on_c, 0, 66, 0
2, 143304, Note_on_c, 0, 45, 0
2, 143308, Control_c, 0, 64, 72
2, 143316, Note_on_c, 0, 50, 0
2, 143324, Control_c, 0, 64, 127
2, 143364, Note_on_c, 0, 57, 0
2, 143436, Note_on_c, 0, 74, 0
2, 143528, Note_on_c, 0, 72, 87
2, 143548, Note_on_c, 0, 62, 41
2, 143624, Note_on_c, 0, 72, 0
2, 143640, Note_on_c, 0, 74, 71
2, 143712, Note_on_c, 0, 62, 0
2, 143712, Note_on_c, 0, 72, 71
2, 143716, Note_on_c, 0, 74, 0
2, 143796, Note_on_c, 0, 70, 82
2, 143808, Note_on_c, 0, 60, 46
2, 143812, Note_on_c, 0, 72, 0
2, 143816, Note_on_c, 0, 57, 46
2, 143940, Note_on_c, 0, 60, 0
2, 144012, Note_on_c, 0, 70, 0
2, 144032, Note_on_c, 0, 57, 0
2, 144040, Note_on_c, 0, 62, 53
2, 144040, Note_on_c, 0, 69, 78
2, 144076, Note_on_c, 0, 62, 0
2, 144108, Note_on_c, 0, 69, 0
2, 144212, Note_on_c, 0, 62, 54
2, 144268, Control_c, 0, 64, 88
2, 144276, Note_on_c, 0, 67, 63
2, 144284, Control_c, 0, 64, 0
2, 144324, Note_on_c, 0, 55, 55
2, 144336, Note_on_c, 0, 46, 63
2, 144372, Note_on_c, 0, 74, 80
2, 144376, Note_on_c, 0, 62, 0
2, 144420, Note_on_c, 0, 58, 47
2, 144424, Note_on_c, 0, 46, 0
2, 144436, Note_on_c, 0, 67, 0
2, 144456, Note_on_c, 0, 55, 0
2, 144456, Control_c, 0, 64, 88
2, 144468, Control_c, 0, 64, 127
2, 144496, Note_on_c, 0, 58, 0
2, 144508, Note_on_c, 0, 74, 0
2, 144640, Note_on_c, 0, 65, 60
2, 144776, Note_on_c, 0, 65, 0
2, 144892, Note_on_c, 0, 58, 52
2, 144904, Note_on_c, 0, 55, 51
2, 144996, Note_on_c, 0, 55, 0
2, 145132, Note_on_c, 0, 65, 59
2, 145140, Note_on_c, 0, 69, 68
2, 145200, Note_on_c, 0, 58, 0
2, 145224, Note_on_c, 0, 65, 0
2, 145232, Note_on_c, 0, 69, 0
2, 145232, Note_on_c, 0, 70, 66
2, 145324, Note_on_c, 0, 69, 68
2, 145328, Note_on_c, 0, 70, 0
2, 145444, Control_c, 0, 64, 24
2, 145456, Note_on_c, 0, 69, 0
2, 145460, Control_c, 0, 64, 0
2, 145468, Note_on_c, 0, 67, 70
2, 145504, Note_on_c, 0, 58, 53
2, 145532, Note_on_c, 0, 48, 53
2, 145580, Note_on_c, 0, 48, 0
2, 145656, Note_on_c, 0, 58, 0
2, 145664, Control_c, 0, 64, 127
2, 145728, Note_on_c, 0, 67, 0
2, 145780, Note_on_c, 0, 64, 49
2, 145952, Note_on_c, 0, 64, 0
2, 146060, Note_on_c, 0, 60, 42
2, 146064, Note_on_c, 0, 55, 43
2, 146252, Note_on_c, 0, 60, 0
2, 146352, Note_on_c, 0, 64, 58
2, 146396, Note_on_c, 0, 64, 0
2, 146412, Note_on_c, 0, 55, 0
2, 146556, Note_on_c, 0, 58, 43
2, 146636, Note_on_c, 0, 58, 0
2, 146652, Note_on_c, 0, 67, 68
2, 146668, Control_c, 0, 64, 104
2, 146684, Control_c, 0, 64, 0
2, 146700, Note_on_c, 0, 40, 60
2, 146708, Note_on_c, 0, 48, 55
2, 146760, Note_on_c, 0, 40, 0
2, 146792, Control_c, 0, 64, 88
2, 146804, Note_on_c, 0, 67, 0
2, 146804, Note_on_c, 0, 72, 87
2, 146808, Control_c, 0, 64, 127
2, 146820, Note_on_c, 0, 48, 0
2, 146864, Note_on_c, 0, 55, 47
2, 146888, Note_on_c, 0, 72, 0
2, 146904, Note_on_c, 0, 55, 0
2, 147100, Note_on_c, 0, 74, 84
2, 147108, Note_on_c, 0, 60, 66
2, 147272, Note_on_c, 0, 74, 0
2, 147284, Note_on_c, 0, 60, 0
2, 147348, Note_on_c, 0, 67, 83
2, 147364, Note_on_c, 0, 58, 48
2, 147376, Note_on_c, 0, 55, 54
2, 147508, Note_on_c, 0, 58, 0
2, 147524, Note_on_c, 0, 55, 0
2, 147528, Note_on_c, 0, 67, 0
2, 147584, Note_on_c, 0, 60, 62
2, 147592, Note_on_c, 0, 58, 18
2, 147596, Note_on_c, 0, 69, 83
2, 147616, Note_on_c, 0, 60, 0
2, 147620, Note_on_c, 0, 58, 0
2, 147680, Note_on_c, 0, 69, 0
2, 147728, Note_on_c, 0, 58, 66
2, 147772, Note_on_c, 0, 64, 67
2, 147816, Control_c, 0, 64, 24
2, 147820, Note_on_c, 0, 58, 0
2, 147832, Control_c, 0, 64, 0
2, 147848, Note_on_c, 0, 70, 82
2, 147868, Note_on_c, 0, 64, 0
2, 147884, Note_on_c, 0, 36, 58
2, 147920, Note_on_c, 0, 48, 58
2, 147924, Control_c, 0, 64, 104
2, 147940, Note_on_c, 0, 70, 0
2, 147940, Control_c, 0, 64, 127
2, 147952, Note_on_c, 0, 36, 0
2, 147992, Note_on_c, 0, 48, 0
2, 148100, Note_on_c, 0, 72, 94
2, 148132, Note_on_c, 0, 60, 63
2, 148236, Note_on_c, 0, 60, 0
2, 148320, Note_on_c, 0, 72, 0
2, 148348, Note_on_c, 0, 74, 94
2, 148372, Note_on_c, 0, 58, 51
2, 148384, Note_on_c, 0, 55, 61
2, 148456, Note_on_c, 0, 74, 0
2, 148528, Note_on_c, 0, 55, 0
2, 148528, Note_on_c, 0, 58, 0
2, 148580, Note_on_c, 0, 58, 19
2, 148596, Note_on_c, 0, 76, 99
2, 148600, Note_on_c, 0, 60, 64
2, 148628, Note_on_c, 0, 60, 0
2, 148644, Note_on_c, 0, 58, 0
2, 148728, Note_on_c, 0, 76, 0
2, 148736, Note_on_c, 0, 65, 67
2, 148764, Note_on_c, 0, 68, 62
2, 148868, Note_on_c, 0, 73, 74
2, 148868, Control_c, 0, 64, 88
2, 148884, Control_c, 0, 64, 0
2, 148912, Note_on_c, 0, 49, 49
2, 148924, Note_on_c, 0, 37, 50
2, 148964, Note_on_c, 0, 77, 100
2, 148996, Note_on_c, 0, 37, 0
2, 149012, Note_on_c, 0, 49, 0
2, 149040, Control_c, 0, 64, 88
2, 149056, Control_c, 0, 64, 127
2, 149084, Note_on_c, 0, 73, 0
2, 149112, Note_on_c, 0, 68, 0
2, 149228, Note_on_c, 0, 65, 0
2, 149260, Note_on_c, 0, 56, 60
2, 149272, Note_on_c, 0, 53, 58
2, 149284, Note_on_c, 0, 49, 45
2, 149308, Note_on_c, 0, 53, 0
2, 149336, Note_on_c, 0, 56, 0
2, 149380, Note_on_c, 0, 49, 0
2, 149516, Note_on_c, 0, 53, 70
2, 149524, Note_on_c, 0, 61, 64
2, 149528, Note_on_c, 0, 56, 50
2, 149540, Note_on_c, 0, 53, 0
2, 149556, Note_on_c, 0, 56, 0
2, 149588, Note_on_c, 0, 61, 0
2, 149776, Note_on_c, 0, 61, 65
2, 149780, Note_on_c, 0, 65, 73
2, 149784, Note_on_c, 0, 56, 59
2, 149852, Note_on_c, 0, 56, 0
2, 149872, Note_on_c, 0, 65, 0
2, 149884, Note_on_c, 0, 61, 0
2, 150084, Note_on_c, 0, 66, 77
2, 150108, Note_on_c, 0, 60, 67
2, 150116, Note_on_c, 0, 57, 56
2, 150124, Control_c, 0, 64, 88
2, 150140, Control_c, 0, 64, 0
2, 150152, Note_on_c, 0, 57, 0
2, 150276, Control_c, 0, 64, 56
2, 150292, Control_c, 0, 64, 104
2, 150308, Control_c, 0, 64, 127
2, 150324, Note_on_c, 0, 77, 0
2, 150336, Note_on_c, 0, 75, 84
2, 150356, Control_c, 0, 64, 72
2, 150372, Control_c, 0, 64, 0
2, 150456, Note_on_c, 0, 75, 0
2, 150496, Note_on_c, 0, 77, 78
2, 150496, Control_c, 0, 64, 24
2, 150524, Control_c, 0, 64, 0
2, 150548, Note_on_c, 0, 75, 86
2, 150568, Note_on_c, 0, 77, 0
2, 150616, Note_on_c, 0, 73, 88
2, 150632, Note_on_c, 0, 75, 0
2, 150680, Control_c, 0, 64, 56
2, 150696, Control_c, 0, 64, 104
2, 150712, Control_c, 0, 64, 127
2, 150720, Note_on_c, 0, 66, 0
2, 150732, Note_on_c, 0, 60, 0
2, 150860, Note_on_c, 0, 73, 0
2, 150872, Note_on_c, 0, 75, 86
2, 150972, Note_on_c, 0, 75, 0
2, 151032, Note_on_c, 0, 65, 63
2, 151108, Note_on_c, 0, 68, 72
2, 151116, Control_c, 0, 64, 104
2, 151132, Control_c, 0, 64, 24
2, 151144, Control_c, 0, 64, 0
2, 151152, Note_on_c, 0, 37, 60
2, 151160, Note_on_c, 0, 49, 52
2, 151176, Note_on_c, 0, 73, 60
2, 151200, Note_on_c, 0, 77, 97
2, 151228, Note_on_c, 0, 37, 0
2, 151236, Note_on_c, 0, 49, 0
2, 151252, Control_c, 0, 64, 104
2, 151268, Control_c, 0, 64, 127
2, 151448, Note_on_c, 0, 68, 0
2, 151456, Note_on_c, 0, 56, 63
2, 151460, Note_on_c, 0, 73, 0
2, 151476, Note_on_c, 0, 49, 55
2, 151480, Note_on_c, 0, 53, 56
2, 151512, Note_on_c, 0, 53, 0
2, 151512, Note_on_c, 0, 65, 0
2, 151520, Note_on_c, 0, 56, 0
2, 151584, Note_on_c, 0, 49, 0
2, 151704, Note_on_c, 0, 61, 72
2, 151708, Note_on_c, 0, 53, 69
2, 151712, Note_on_c, 0, 56, 53
2, 151732, Note_on_c, 0, 53, 0
2, 151744, Note_on_c, 0, 56, 0
2, 151796, Note_on_c, 0, 61, 0
2, 151964, Note_on_c, 0, 61, 66
2, 151968, Note_on_c, 0, 65, 76
2, 151972, Note_on_c, 0, 56, 60
2, 152064, Note_on_c, 0, 56, 0
2, 152072, Note_on_c, 0, 65, 0
2, 152072, Note_on_c, 0, 61, 0
2, 152316, Note_on_c, 0, 66, 76
2, 152332, Note_on_c, 0, 60, 67
2, 152336, Note_on_c, 0, 57, 60
2, 152340, Control_c, 0, 64, 104
2, 152352, Control_c, 0, 64, 40
2, 152368, Control_c, 0, 64, 0
2, 152376, Note_on_c, 0, 57, 0
2, 152508, Control_c, 0, 64, 24
2, 152524, Control_c, 0, 64, 72
2, 152540, Control_c, 0, 64, 104
2, 152556, Control_c, 0, 64, 127
2, 152588, Note_on_c, 0, 75, 84
2, 152600, Control_c, 0, 64, 0
2, 152604, Note_on_c, 0, 77, 0
2, 152708, Control_c, 0, 64, 24
2, 152724, Control_c, 0, 64, 72
2, 152740, Note_on_c, 0, 75, 0
2, 152740, Control_c, 0, 64, 104
2, 152756, Control_c, 0, 64, 127
2, 152780, Note_on_c, 0, 77, 71
2, 152820, Control_c, 0, 64, 72
2, 152824, Note_on_c, 0, 75, 74
2, 152832, Control_c, 0, 64, 0
2, 152856, Note_on_c, 0, 77, 0
2, 152864, Note_on_c, 0, 57, 6
2, 152904, Note_on_c, 0, 73, 88
2, 152928, Note_on_c, 0, 75, 0
2, 152956, Control_c, 0, 64, 40
2, 152972, Control_c, 0, 64, 104
2, 152988, Control_c, 0, 64, 127
2, 153020, Note_on_c, 0, 66, 0
2, 153028, Note_on_c, 0, 57, 0
2, 153032, Note_on_c, 0, 60, 0
2, 153124, Note_on_c, 0, 73, 0
2, 153148, Note_on_c, 0, 75, 87
2, 153280, Note_on_c, 0, 75, 0
2, 153296, Note_on_c, 0, 65, 65
2, 153356, Note_on_c, 0, 71, 66
2, 153376, Control_c, 0, 64, 104
2, 153392, Control_c, 0, 64, 0
2, 153420, Note_on_c, 0, 49, 69
2, 153420, Note_on_c, 0, 37, 59
2, 153444, Note_on_c, 0, 77, 99
2, 153468, Note_on_c, 0, 37, 0
2, 153484, Note_on_c, 0, 49, 0
2, 153484, Control_c, 0, 64, 56
2, 153500, Control_c, 0, 64, 127
2, 153548, Note_on_c, 0, 65, 0
2, 153600, Note_on_c, 0, 77, 0
2, 153700, Note_on_c, 0, 56, 74
2, 153704, Note_on_c, 0, 71, 0
2, 153708, Note_on_c, 0, 53, 70
2, 153712, Note_on_c, 0, 49, 55
2, 153732, Note_on_c, 0, 53, 0
2, 153740, Note_on_c, 0, 49, 0
2, 153752, Note_on_c, 0, 56, 0
2, 153840, Note_on_c, 0, 68, 66
2, 153888, Note_on_c, 0, 68, 0
2, 153900, Note_on_c, 0, 71, 70
2, 153948, Note_on_c, 0, 71, 0
2, 153968, Note_on_c, 0, 80, 101
2, 153980, Note_on_c, 0, 61, 63
2, 153984, Note_on_c, 0, 53, 54
2, 154008, Note_on_c, 0, 56, 32
2, 154012, Note_on_c, 0, 53, 0
2, 154036, Note_on_c, 0, 56, 0
2, 154060, Note_on_c, 0, 61, 0
2, 154256, Note_on_c, 0, 65, 79
2, 154256, Note_on_c, 0, 61, 66
2, 154264, Note_on_c, 0, 56, 55
2, 154308, Note_on_c, 0, 56, 0
2, 154312, Note_on_c, 0, 61, 0
2, 154348, Note_on_c, 0, 65, 0
2, 154624, Note_on_c, 0, 71, 77
2, 154632, Note_on_c, 0, 65, 67
2, 154632, Note_on_c, 0, 61, 56
2, 154724, Control_c, 0, 64, 40
2, 154740, Control_c, 0, 64, 0
2, 154892, Control_c, 0, 64, 104
2, 154908, Control_c, 0, 64, 127
2, 155048, Note_on_c, 0, 80, 0
2, 155180, Note_on_c, 0, 79, 88
2, 155220, Control_c, 0, 64, 56
2, 155236, Control_c, 0, 64, 0
2, 155312, Control_c, 0, 64, 24
2, 155328, Control_c, 0, 64, 104
2, 155340, Control_c, 0, 64, 127
2, 155376, Note_on_c, 0, 71, 0
2, 155376, Note_on_c, 0, 61, 0
2, 155404, Note_on_c, 0, 65, 0
2, 155540, Note_on_c, 0, 79, 0
2, 155564, Note_on_c, 0, 77, 95
2, 155676, Note_on_c, 0, 77, 0
2, 155868, Note_on_c, 0, 77, 90
2, 155884, Control_c, 0, 64, 72
2, 155900, Control_c, 0, 64, 0
2, 155904, Note_on_c, 0, 67, 54
2, 155908, Note_on_c, 0, 72, 51
2, 155912, Note_on_c, 0, 60, 58
2, 156008, Control_c, 0, 64, 72
2, 156024, Control_c, 0, 64, 127
2, 156044, Note_on_c, 0, 60, 0
2, 156052, Note_on_c, 0, 67, 0
2, 156108, Note_on_c, 0, 77, 0
2, 156144, Note_on_c, 0, 76, 86
2, 156188, Note_on_c, 0, 72, 0
2, 156240, Note_on_c, 0, 76, 0
2, 156364, Control_c, 0, 64, 72
2, 156380, Control_c, 0, 64, 0
2, 156388, Note_on_c, 0, 76, 86
2, 156400, Note_on_c, 0, 72, 72
2, 156404, Note_on_c, 0, 65, 58
2, 156408, Note_on_c, 0, 57, 56
2, 156456, Control_c, 0, 64, 56
2, 156464, Note_on_c, 0, 72, 0
2, 156472, Control_c, 0, 64, 127
2, 156504, Note_on_c, 0, 57, 0
2, 156524, Note_on_c, 0, 65, 0
2, 156600, Note_on_c, 0, 76, 0
2, 156620, Note_on_c, 0, 77, 90
2, 156724, Note_on_c, 0, 77, 0
2, 156828, Control_c, 0, 64, 88
2, 156840, Note_on_c, 0, 76, 88
2, 156844, Control_c, 0, 64, 0
2, 156856, Note_on_c, 0, 70, 65
2, 156868, Note_on_c, 0, 65, 63
2, 156872, Note_on_c, 0, 58, 49
2, 156924, Control_c, 0, 64, 40
2, 156936, Control_c, 0, 64, 127
2, 156952, Note_on_c, 0, 65, 0
2, 156976, Note_on_c, 0, 58, 0
2, 157008, Note_on_c, 0, 76, 0
2, 157044, Note_on_c, 0, 70, 0
2, 157072, Note_on_c, 0, 74, 89
2, 157176, Note_on_c, 0, 74, 0
2, 157264, Control_c, 0, 64, 40
2, 157280, Note_on_c, 0, 74, 87
2, 157280, Control_c, 0, 64, 0
2, 157296, Note_on_c, 0, 70, 58
2, 157308, Note_on_c, 0, 64, 60
2, 157312, Note_on_c, 0, 55, 59
2, 157356, Control_c, 0, 64, 56
2, 157372, Control_c, 0, 64, 127
2, 157384, Note_on_c, 0, 55, 0
2, 157392, Note_on_c, 0, 64, 0
2, 157428, Note_on_c, 0, 70, 0
2, 157460, Note_on_c, 0, 74, 0
2, 157492, Note_on_c, 0, 76, 91
2, 157580, Note_on_c, 0, 76, 0
2, 157680, Control_c, 0, 64, 40
2, 157696, Control_c, 0, 64, 0
2, 157700, Note_on_c, 0, 74, 88
2, 157712, Note_on_c, 0, 69, 67
2, 157732, Note_on_c, 0, 64, 58
2, 157736, Note_on_c, 0, 57, 59
2, 157772, Control_c, 0, 64, 40
2, 157788, Control_c, 0, 64, 104
2, 157804, Control_c, 0, 64, 127
2, 157820, Note_on_c, 0, 64, 0
2, 157832, Note_on_c, 0, 57, 0
2, 157852, Note_on_c, 0, 74, 0
2, 157876, Note_on_c, 0, 69, 0
2, 157924, Note_on_c, 0, 72, 91
2, 158016, Note_on_c, 0, 72, 0
2, 158128, Note_on_c, 0, 72, 82
2, 158128, Control_c, 0, 64, 56
2, 158144, Note_on_c, 0, 69, 67
2, 158148, Control_c, 0, 64, 0
2, 158152, Note_on_c, 0, 63, 53
2, 158160, Note_on_c, 0, 54, 56
2, 158240, Control_c, 0, 64, 88
2, 158256, Control_c, 0, 64, 127
2, 158312, Note_on_c, 0, 69, 0
2, 158328, Note_on_c, 0, 72, 0
2, 158336, Note_on_c, 0, 63, 0
2, 158348, Note_on_c, 0, 74, 87
2, 158380, Note_on_c, 0, 54, 0
2, 158440, Note_on_c, 0, 74, 0
2, 158564, Control_c, 0, 64, 56
2, 158576, Note_on_c, 0, 72, 83
2, 158580, Control_c, 0, 64, 0
2, 158588, Note_on_c, 0, 67, 59
2, 158596, Note_on_c, 0, 62, 59
2, 158608, Note_on_c, 0, 55, 57
2, 158688, Control_c, 0, 64, 56
2, 158704, Note_on_c, 0, 62, 0
2, 158704, Control_c, 0, 64, 127
2, 158716, Note_on_c, 0, 55, 0
2, 158724, Note_on_c, 0, 72, 0
2, 158780, Note_on_c, 0, 67, 0
2, 158800, Note_on_c, 0, 70, 79
2, 158908, Note_on_c, 0, 70, 0
2, 159060, Note_on_c, 0, 69, 79
2, 159060, Control_c, 0, 64, 72
2, 159076, Control_c, 0, 64, 0
2, 159080, Note_on_c, 0, 62, 54
2, 159080, Note_on_c, 0, 46, 58
2, 159088, Note_on_c, 0, 53, 57
2, 159168, Control_c, 0, 64, 40
2, 159184, Control_c, 0, 64, 104
2, 159200, Control_c, 0, 64, 127
2, 159284, Note_on_c, 0, 69, 0
2, 159296, Note_on_c, 0, 53, 0
2, 159324, Note_on_c, 0, 46, 0
2, 159324, Note_on_c, 0, 67, 80
2, 159336, Note_on_c, 0, 55, 57
2, 159372, Note_on_c, 0, 55, 0
2, 159432, Note_on_c, 0, 67, 0
2, 159580, Note_on_c, 0, 66, 70
2, 159596, Note_on_c, 0, 57, 58
2, 159600, Control_c, 0, 64, 40
2, 159616, Control_c, 0, 64, 0
2, 159680, Control_c, 0, 64, 40
2, 159696, Note_on_c, 0, 62, 0
2, 159696, Control_c, 0, 64, 104
2, 159712, Control_c, 0, 64, 127
2, 159748, Note_on_c, 0, 57, 0
2, 159764, Note_on_c, 0, 66, 0
2, 159840, Note_on_c, 0, 67, 74
2, 159848, Control_c, 0, 64, 40
2, 159864, Note_on_c, 0, 58, 50
2, 159864, Control_c, 0, 64, 0
2, 159896, Control_c, 0, 64, 24
2, 159912, Control_c, 0, 64, 56
2, 159928, Control_c, 0, 64, 127
2, 160040, Note_on_c, 0, 67, 0
2, 160148, Note_on_c, 0, 70, 81
2, 160180, Note_on_c, 0, 62, 57
2, 160188, Control_c, 0, 64, 72
2, 160204, Control_c, 0, 64, 0
2, 160300, Control_c, 0, 64, 88
2, 160312, Control_c, 0, 64, 127
2, 160352, Note_on_c, 0, 70, 0
2, 160368, Note_on_c, 0, 62, 0
2, 160380, Note_on_c, 0, 58, 0
2, 160688, Note_on_c, 0, 74, 79
2, 160700, Note_on_c, 0, 70, 51
2, 160700, Note_on_c, 0, 65, 57
2, 160724, Note_on_c, 0, 70, 0
2, 160736, Note_on_c, 0, 65, 0
2, 160756, Note_on_c, 0, 74, 0
2, 160848, Note_on_c, 0, 74, 73
2, 160856, Note_on_c, 0, 65, 58
2, 160872, Note_on_c, 0, 70, 31
2, 160872, Control_c, 0, 64, 56
2, 160888, Control_c, 0, 64, 0
2, 160932, Control_c, 0, 64, 40
2, 160948, Control_c, 0, 64, 88
2, 160964, Control_c, 0, 64, 127
2, 161104, Control_c, 0, 64, 56
2, 161120, Control_c, 0, 64, 0
2, 161136, Control_c, 0, 64, 24
2, 161148, Control_c, 0, 64, 56
2, 161164, Control_c, 0, 64, 88
2, 161180, Control_c, 0, 64, 127
2, 161320, Control_c, 0, 64, 88
2, 161336, Control_c, 0, 64, 24
2, 161352, Control_c, 0, 64, 0
2, 161368, Control_c, 0, 64, 24
2, 161384, Note_on_c, 0, 55, 47
2, 161384, Control_c, 0, 64, 56
2, 161392, Note_on_c, 0, 48, 50
2, 161400, Control_c, 0, 64, 104
2, 161412, Control_c, 0, 64, 127
2, 161500, Note_on_c, 0, 65, 0
2, 161596, Note_on_c, 0, 74, 0
2, 161692, Control_c, 0, 64, 88
2, 161708, Note_on_c, 0, 72, 76
2, 161708, Control_c, 0, 64, 0
2, 161728, Note_on_c, 0, 64, 61
2, 161756, Control_c, 0, 64, 56
2, 161768, Control_c, 0, 64, 127
2, 161780, Note_on_c, 0, 64, 0
2, 161792, Note_on_c, 0, 70, 0
2, 161812, Note_on_c, 0, 48, 0
2, 161812, Note_on_c, 0, 55, 0
2, 161816, Note_on_c, 0, 72, 0
2, 162084, Note_on_c, 0, 79, 84
2, 162096, Note_on_c, 0, 70, 53
2, 162172, Note_on_c, 0, 79, 0
2, 162392, Note_on_c, 0, 70, 0
2, 162420, Note_on_c, 0, 76, 79
2, 162440, Note_on_c, 0, 67, 44
2, 162588, Note_on_c, 0, 76, 0
2, 162636, Note_on_c, 0, 67, 0
2, 162688, Note_on_c, 0, 72, 79
2, 162708, Note_on_c, 0, 64, 43
2, 162824, Note_on_c, 0, 64, 0
2, 162844, Note_on_c, 0, 72, 0
2, 162904, Note_on_c, 0, 70, 69
2, 162932, Note_on_c, 0, 62, 51
2, 163112, Note_on_c, 0, 62, 0
2, 163128, Note_on_c, 0, 70, 0
2, 163148, Control_c, 0, 64, 104
2, 163152, Note_on_c, 0, 67, 68
2, 163164, Note_on_c, 0, 58, 36
2, 163164, Control_c, 0, 64, 88
2, 163180, Control_c, 0, 64, 104
2, 163192, Control_c, 0, 64, 127
2, 163344, Note_on_c, 0, 58, 0
2, 163368, Note_on_c, 0, 67, 0
2, 163400, Note_on_c, 0, 64, 69
2, 163424, Note_on_c, 0, 55, 37
2, 163492, Note_on_c, 0, 64, 0
2, 163560, Note_on_c, 0, 55, 0
2, 163640, Note_on_c, 0, 60, 68
2, 163660, Note_on_c, 0, 52, 30
2, 163804, Note_on_c, 0, 52, 0
2, 163840, Note_on_c, 0, 60, 0
2, 163884, Note_on_c, 0, 58, 64
2, 163908, Note_on_c, 0, 50, 47
2, 163940, Note_on_c, 0, 58, 0
2, 163948, Note_on_c, 0, 50, 0
2, 164156, Note_on_c, 0, 76, 75
2, 164200, Control_c, 0, 64, 88
2, 164216, Control_c, 0, 64, 24
2, 164232, Control_c, 0, 64, 0
2, 164264, Note_on_c, 0, 67, 26
2, 164324, Control_c, 0, 64, 88
2, 164340, Control_c, 0, 64, 127
2, 164380, Note_on_c, 0, 76, 0
2, 164404, Note_on_c, 0, 67, 0
2, 164408, Note_on_c, 0, 72, 82
2, 164436, Note_on_c, 0, 64, 34
2, 164588, Note_on_c, 0, 72, 0
2, 164604, Note_on_c, 0, 64, 0
2, 164648, Note_on_c, 0, 70, 67
2, 164664, Note_on_c, 0, 62, 43
2, 164824, Note_on_c, 0, 62, 0
2, 164860, Note_on_c, 0, 70, 0
2, 164892, Note_on_c, 0, 67, 61
2, 164908, Note_on_c, 0, 58, 43
2, 165096, Note_on_c, 0, 58, 0
2, 165148, Note_on_c, 0, 67, 0
2, 165164, Note_on_c, 0, 55, 56
2, 165172, Note_on_c, 0, 64, 65
2, 165300, Note_on_c, 0, 64, 0
2, 165364, Note_on_c, 0, 55, 0
2, 165428, Note_on_c, 0, 60, 63
2, 165448, Note_on_c, 0, 52, 46
2, 165612, Note_on_c, 0, 52, 0
2, 165672, Note_on_c, 0, 60, 0
2, 165708, Note_on_c, 0, 58, 60
2, 165708, Note_on_c, 0, 50, 50
2, 165756, Note_on_c, 0, 50, 0
2, 166020, Note_on_c, 0, 58, 0
2, 166032, Note_on_c, 0, 55, 63
2, 166032, Note_on_c, 0, 46, 45
2, 166076, Note_on_c, 0, 55, 0
2, 166080, Note_on_c, 0, 46, 0
2, 166340, Control_c, 0, 64, 40
2, 166352, Control_c, 0, 64, 0
2, 166372, Note_on_c, 0, 58, 50
2, 166372, Note_on_c, 0, 41, 52
2, 166416, Note_on_c, 0, 48, 42
2, 166444, Control_c, 0, 64, 88
2, 166452, Note_on_c, 0, 41, 0
2, 166460, Note_on_c, 0, 58, 0
2, 166460, Control_c, 0, 64, 127
2, 166464, Note_on_c, 0, 64, 63
2, 166516, Note_on_c, 0, 48, 0
2, 166564, Note_on_c, 0, 64, 0
2, 166624, Note_on_c, 0, 72, 73
2, 166692, Note_on_c, 0, 55, 51
2, 166756, Note_on_c, 0, 55, 0
2, 166916, Note_on_c, 0, 72, 0
2, 166992, Note_on_c, 0, 74, 73
2, 167008, Note_on_c, 0, 64, 43
2, 167176, Note_on_c, 0, 64, 0
2, 167184, Note_on_c, 0, 74, 0
2, 167272, Note_on_c, 0, 67, 79
2, 167296, Note_on_c, 0, 60, 49
2, 167308, Note_on_c, 0, 58, 31
2, 167412, Note_on_c, 0, 60, 0
2, 167424, Note_on_c, 0, 67, 0
2, 167508, Note_on_c, 0, 64, 49
2, 167508, Note_on_c, 0, 69, 74
2, 167544, Note_on_c, 0, 64, 0
2, 167544, Note_on_c, 0, 58, 0
2, 167584, Note_on_c, 0, 69, 0
2, 167648, Note_on_c, 0, 58, 62
2, 167708, Note_on_c, 0, 64, 56
2, 167716, Control_c, 0, 64, 88
2, 167732, Control_c, 0, 64, 0
2, 167748, Note_on_c, 0, 58, 0
2, 167804, Note_on_c, 0, 70, 78
2, 167820, Note_on_c, 0, 64, 0
2, 167820, Note_on_c, 0, 41, 61
2, 167840, Control_c, 0, 64, 72
2, 167856, Control_c, 0, 64, 127
2, 167872, Note_on_c, 0, 41, 0
2, 167884, Note_on_c, 0, 70, 0
2, 168052, Note_on_c, 0, 72, 91
2, 168080, Note_on_c, 0, 64, 58
2, 168232, Note_on_c, 0, 64, 0
2, 168264, Note_on_c, 0, 72, 0
2, 168296, Note_on_c, 0, 74, 92
2, 168332, Note_on_c, 0, 58, 41
2, 168336, Note_on_c, 0, 60, 52
2, 168404, Note_on_c, 0, 74, 0
2, 168452, Note_on_c, 0, 60, 0
2, 168552, Note_on_c, 0, 76, 97
2, 168560, Note_on_c, 0, 64, 64
2, 168588, Note_on_c, 0, 64, 0
2, 168608, Note_on_c, 0, 58, 0
2, 168708, Note_on_c, 0, 76, 0
2, 168728, Note_on_c, 0, 65, 59
2, 168804, Note_on_c, 0, 71, 67
2, 168860, Note_on_c, 0, 41, 55
2, 168860, Control_c, 0, 64, 88
2, 168868, Note_on_c, 0, 50, 52
2, 168876, Control_c, 0, 64, 0
2, 168936, Note_on_c, 0, 41, 0
2, 168940, Note_on_c, 0, 77, 93
2, 169016, Note_on_c, 0, 56, 44
2, 169016, Control_c, 0, 64, 88
2, 169020, Note_on_c, 0, 50, 0
2, 169032, Control_c, 0, 64, 127
2, 169052, Note_on_c, 0, 65, 0
2, 169068, Note_on_c, 0, 56, 0
2, 169164, Note_on_c, 0, 71, 0
2, 169244, Note_on_c, 0, 65, 59
2, 169384, Note_on_c, 0, 65, 0
2, 169472, Note_on_c, 0, 59, 46
2, 169476, Note_on_c, 0, 56, 41
2, 169652, Note_on_c, 0, 56, 0
2, 169692, Note_on_c, 0, 77, 0
2, 169700, Note_on_c, 0, 59, 0
2, 169720, Note_on_c, 0, 74, 75
2, 169756, Note_on_c, 0, 65, 41
2, 169796, Note_on_c, 0, 74, 0
2, 169820, Note_on_c, 0, 76, 64
2, 169900, Note_on_c, 0, 74, 76
2, 169912, Note_on_c, 0, 76, 0
2, 169940, Note_on_c, 0, 65, 0
2, 170004, Note_on_c, 0, 74, 0
2, 170020, Note_on_c, 0, 72, 79
2, 170024, Control_c, 0, 64, 104
2, 170040, Control_c, 0, 64, 40
2, 170052, Note_on_c, 0, 60, 41
2, 170056, Control_c, 0, 64, 0
2, 170072, Note_on_c, 0, 57, 41
2, 170240, Control_c, 0, 64, 88
2, 170244, Note_on_c, 0, 57, 0
2, 170256, Control_c, 0, 64, 127
2, 170264, Note_on_c, 0, 60, 0
2, 170300, Note_on_c, 0, 65, 46
2, 170376, Note_on_c, 0, 65, 0
2, 170564, Note_on_c, 0, 62, 53
2, 170576, Note_on_c, 0, 60, 39
2, 170580, Control_c, 0, 64, 88
2, 170584, Note_on_c, 0, 57, 43
2, 170596, Control_c, 0, 64, 0
2, 170676, Control_c, 0, 64, 56
2, 170688, Control_c, 0, 64, 127
2, 170736, Note_on_c, 0, 57, 0
2, 170760, Note_on_c, 0, 60, 0
2, 170808, Note_on_c, 0, 62, 0
2, 170808, Note_on_c, 0, 72, 0
2, 170856, Note_on_c, 0, 64, 47
2, 170856, Note_on_c, 0, 55, 45
2, 170860, Note_on_c, 0, 58, 45
2, 170904, Note_on_c, 0, 55, 0
2, 170912, Note_on_c, 0, 58, 0
2, 170920, Note_on_c, 0, 64, 0
2, 171100, Note_on_c, 0, 65, 56
2, 171156, Control_c, 0, 64, 72
2, 171160, Note_on_c, 0, 41, 51
2, 171164, Note_on_c, 0, 72, 69
2, 171172, Control_c, 0, 64, 0
2, 171196, Note_on_c, 0, 48, 51
2, 171224, Note_on_c, 0, 65, 0
2, 171232, Note_on_c, 0, 41, 0
2, 171260, Note_on_c, 0, 48, 0
2, 171264, Note_on_c, 0, 57, 57
2, 171264, Control_c, 0, 64, 88
2, 171276, Note_on_c, 0, 77, 87
2, 171276, Control_c, 0, 64, 127
2, 171284, Note_on_c, 0, 72, 0
2, 171356, Note_on_c, 0, 57, 0
2, 171524, Note_on_c, 0, 77, 0
2, 171532, Note_on_c, 0, 76, 89
2, 171576, Note_on_c, 0, 60, 53
2, 171636, Note_on_c, 0, 76, 0
2, 171648, Note_on_c, 0, 77, 75
2, 171740, Note_on_c, 0, 76, 89
2, 171744, Note_on_c, 0, 77, 0
2, 171752, Note_on_c, 0, 60, 0
2, 171804, Note_on_c, 0, 74, 86
2, 171804, Note_on_c, 0, 57, 47
2, 171820, Note_on_c, 0, 76, 0
2, 171828, Note_on_c, 0, 53, 47
2, 171964, Note_on_c, 0, 57, 0
2, 172020, Note_on_c, 0, 74, 0
2, 172032, Note_on_c, 0, 72, 86
2, 172044, Note_on_c, 0, 53, 0
2, 172048, Note_on_c, 0, 60, 60
2, 172080, Note_on_c, 0, 60, 0
2, 172096, Note_on_c, 0, 72, 0
2, 172236, Note_on_c, 0, 60, 64
2, 172252, Note_on_c, 0, 66, 54
2, 172252, Control_c, 0, 64, 88
2, 172272, Control_c, 0, 64, 0
2, 172276, Note_on_c, 0, 50, 41
2, 172300, Note_on_c, 0, 45, 59
2, 172324, Note_on_c, 0, 60, 0
2, 172332, Note_on_c, 0, 45, 0
2, 172344, Note_on_c, 0, 57, 43
2, 172348, Note_on_c, 0, 74, 88
2, 172364, Control_c, 0, 64, 40
2, 172368, Note_on_c, 0, 50, 0
2, 172372, Note_on_c, 0, 66, 0
2, 172376, Control_c, 0, 64, 127
2, 172416, Note_on_c, 0, 57, 0
2, 172480, Note_on_c, 0, 74, 0
2, 172580, Note_on_c, 0, 72, 87
2, 172604, Note_on_c, 0, 62, 50
2, 172684, Note_on_c, 0, 72, 0
2, 172728, Note_on_c, 0, 74, 68
2, 172756, Note_on_c, 0, 62, 0
2, 172796, Note_on_c, 0, 72, 79
2, 172808, Note_on_c, 0, 74, 0
2, 172868, Note_on_c, 0, 60, 58
2, 172876, Note_on_c, 0, 70, 82
2, 172880, Note_on_c, 0, 57, 44
2, 172904, Note_on_c, 0, 72, 0
2, 173020, Note_on_c, 0, 60, 0
2, 173096, Note_on_c, 0, 70, 0
2, 173116, Note_on_c, 0, 69, 83
2, 173136, Note_on_c, 0, 62, 57
2, 173164, Note_on_c, 0, 57, 0
2, 173176, Note_on_c, 0, 62, 0
2, 173196, Note_on_c, 0, 69, 0
2, 173284, Note_on_c, 0, 62, 64
2, 173348, Note_on_c, 0, 67, 72
2, 173384, Control_c, 0, 64, 72
2, 173400, Control_c, 0, 64, 0
2, 173424, Note_on_c, 0, 55, 53
2, 173436, Note_on_c, 0, 46, 51
2, 173448, Note_on_c, 0, 74, 83
2, 173484, Note_on_c, 0, 62, 0
2, 173528, Note_on_c, 0, 58, 62
2, 173540, Note_on_c, 0, 46, 0
2, 173556, Control_c, 0, 64, 72
2, 173560, Note_on_c, 0, 55, 0
2, 173572, Note_on_c, 0, 67, 0
2, 173572, Control_c, 0, 64, 127
2, 173604, Note_on_c, 0, 58, 0
2, 173612, Note_on_c, 0, 74, 0
2, 173732, Note_on_c, 0, 65, 64
2, 173892, Note_on_c, 0, 65, 0
2, 173980, Note_on_c, 0, 58, 53
2, 174000, Note_on_c, 0, 55, 50
2, 174112, Note_on_c, 0, 55, 0
2, 174228, Note_on_c, 0, 65, 57
2, 174244, Note_on_c, 0, 69, 70
2, 174296, Note_on_c, 0, 58, 0
2, 174332, Note_on_c, 0, 70, 68
2, 174352, Note_on_c, 0, 69, 0
2, 174392, Note_on_c, 0, 65, 0
2, 174412, Note_on_c, 0, 70, 0
2, 174440, Note_on_c, 0, 69, 63
2, 174516, Control_c, 0, 64, 24
2, 174532, Control_c, 0, 64, 0
2, 174556, Note_on_c, 0, 69, 0
2, 174560, Note_on_c, 0, 67, 71
2, 174580, Note_on_c, 0, 58, 53
2, 174612, Note_on_c, 0, 48, 58
2, 174708, Note_on_c, 0, 58, 0
2, 174728, Note_on_c, 0, 48, 0
2, 174732, Control_c, 0, 64, 88
2, 174748, Control_c, 0, 64, 127
2, 174860, Note_on_c, 0, 64, 50
2, 175044, Note_on_c, 0, 64, 0
2, 175156, Note_on_c, 0, 60, 46
2, 175156, Note_on_c, 0, 55, 40
2, 175380, Note_on_c, 0, 60, 0
2, 175512, Note_on_c, 0, 64, 37
2, 175580, Note_on_c, 0, 55, 0
2, 175592, Note_on_c, 0, 64, 0
2, 175676, Note_on_c, 0, 58, 39
2, 175680, Note_on_c, 0, 67, 0
2, 175768, Note_on_c, 0, 58, 0
2, 175776, Note_on_c, 0, 64, 67
2, 175864, Control_c, 0, 64, 56
2, 175872, Note_on_c, 0, 55, 45
2, 175880, Control_c, 0, 64, 0
2, 175900, Note_on_c, 0, 48, 48
2, 175904, Note_on_c, 0, 64, 0
2, 175916, Note_on_c, 0, 72, 85
2, 175972, Control_c, 0, 64, 72
2, 175988, Control_c, 0, 64, 127
2, 175992, Note_on_c, 0, 55, 0
2, 176000, Note_on_c, 0, 48, 0
2, 176012, Note_on_c, 0, 60, 58
2, 176092, Note_on_c, 0, 60, 0
2, 176164, Note_on_c, 0, 72, 0
2, 176240, Note_on_c, 0, 74, 85
2, 176256, Note_on_c, 0, 64, 56
2, 176392, Note_on_c, 0, 74, 0
2, 176416, Note_on_c, 0, 64, 0
2, 176496, Note_on_c, 0, 67, 85
2, 176524, Note_on_c, 0, 60, 50
2, 176532, Note_on_c, 0, 58, 41
2, 176616, Note_on_c, 0, 60, 0
2, 176628, Note_on_c, 0, 67, 0
2, 176732, Note_on_c, 0, 64, 59
2, 176744, Note_on_c, 0, 69, 87
2, 176772, Note_on_c, 0, 58, 0
2, 176780, Note_on_c, 0, 64, 0
2, 176832, Note_on_c, 0, 69, 0
2, 176900, Note_on_c, 0, 58, 62
2, 176936, Note_on_c, 0, 64, 64
2, 176976, Control_c, 0, 64, 40
2, 176980, Note_on_c, 0, 58, 0
2, 176992, Control_c, 0, 64, 0
2, 177008, Note_on_c, 0, 70, 86
2, 177016, Note_on_c, 0, 55, 50
2, 177016, Note_on_c, 0, 48, 62
2, 177024, Note_on_c, 0, 64, 0
2, 177072, Control_c, 0, 64, 40
2, 177084, Control_c, 0, 64, 127
2, 177092, Note_on_c, 0, 70, 0
2, 177168, Note_on_c, 0, 48, 0
2, 177188, Note_on_c, 0, 55, 0
2, 177248, Note_on_c, 0, 60, 67
2, 177264, Note_on_c, 0, 72, 92
2, 177308, Note_on_c, 0, 60, 0
2, 177376, Note_on_c, 0, 72, 0
2, 177400, Note_on_c, 0, 62, 69
2, 177448, Note_on_c, 0, 67, 76
2, 177472, Control_c, 0, 64, 72
2, 177488, Control_c, 0, 64, 0
2, 177500, Note_on_c, 0, 46, 62
2, 177512, Note_on_c, 0, 55, 60
2, 177520, Note_on_c, 0, 62, 0
2, 177528, Note_on_c, 0, 74, 99
2, 177560, Note_on_c, 0, 67, 0
2, 177580, Control_c, 0, 64, 127
2, 177596, Note_on_c, 0, 46, 0
2, 177608, Note_on_c, 0, 74, 0
2, 177656, Note_on_c, 0, 55, 0
2, 177812, Note_on_c, 0, 76, 97
2, 177828, Note_on_c, 0, 60, 59
2, 177896, Note_on_c, 0, 60, 0
2, 177940, Note_on_c, 0, 76, 0
2, 178036, Note_on_c, 0, 69, 74
2, 178084, Note_on_c, 0, 76, 71
2, 178124, Control_c, 0, 64, 72
2, 178132, Note_on_c, 0, 45, 68
2, 178140, Control_c, 0, 64, 0
2, 178152, Note_on_c, 0, 52, 60
2, 178196, Note_on_c, 0, 81, 99
2, 178228, Note_on_c, 0, 45, 0
2, 178264, Control_c, 0, 64, 127
2, 178280, Note_on_c, 0, 52, 0
2, 178280, Note_on_c, 0, 61, 61
2, 178380, Note_on_c, 0, 61, 0
2, 178488, Note_on_c, 0, 69, 0
2, 178508, Note_on_c, 0, 61, 63
2, 178520, Note_on_c, 0, 57, 59
2, 178528, Note_on_c, 0, 52, 57
2, 178548, Note_on_c, 0, 57, 0
2, 178556, Note_on_c, 0, 52, 0
2, 178588, Note_on_c, 0, 61, 0
2, 178760, Note_on_c, 0, 61, 64
2, 178764, Note_on_c, 0, 64, 79
2, 178772, Note_on_c, 0, 57, 59
2, 178804, Note_on_c, 0, 57, 0
2, 178816, Note_on_c, 0, 61, 0
2, 178840, Note_on_c, 0, 64, 0
2, 178856, Note_on_c, 0, 76, 0
2, 179000, Note_on_c, 0, 69, 81
2, 179008, Note_on_c, 0, 64, 73
2, 179008, Note_on_c, 0, 61, 60
2, 179060, Note_on_c, 0, 64, 0
2, 179072, Note_on_c, 0, 61, 0
2, 179088, Note_on_c, 0, 69, 0
2, 179292, Note_on_c, 0, 73, 77
2, 179300, Note_on_c, 0, 69, 66
2, 179316, Control_c, 0, 64, 104
2, 179324, Note_on_c, 0, 64, 57
2, 179332, Control_c, 0, 64, 24
2, 179348, Control_c, 0, 64, 0
2, 179440, Control_c, 0, 64, 88
2, 179456, Control_c, 0, 64, 127
2, 179516, Note_on_c, 0, 69, 0
2, 179516, Note_on_c, 0, 73, 0
2, 179520, Note_on_c, 0, 64, 0
2, 179544, Note_on_c, 0, 81, 0
2, 179552, Note_on_c, 0, 76, 89
2, 179656, Note_on_c, 0, 76, 0
2, 179680, Note_on_c, 0, 77, 80
2, 179768, Note_on_c, 0, 76, 87
2, 179780, Note_on_c, 0, 77, 0
2, 179812, Control_c, 0, 64, 88
2, 179828, Note_on_c, 0, 74, 95
2, 179828, Control_c, 0, 64, 0
2, 179848, Note_on_c, 0, 76, 0
2, 179848, Note_on_c, 0, 68, 59
2, 179856, Note_on_c, 0, 58, 52
2, 179864, Note_on_c, 0, 62, 56
2, 179920, Control_c, 0, 64, 40
2, 179936, Control_c, 0, 64, 127
2, 179944, Note_on_c, 0, 62, 0
2, 179944, Note_on_c, 0, 68, 0
2, 179948, Note_on_c, 0, 58, 0
2, 180060, Note_on_c, 0, 74, 0
2, 180088, Note_on_c, 0, 76, 97
2, 180200, Note_on_c, 0, 76, 0
2, 180276, Note_on_c, 0, 69, 67
2, 180308, Control_c, 0, 64, 104
2, 180324, Control_c, 0, 64, 0
2, 180332, Note_on_c, 0, 45, 65
2, 180336, Note_on_c, 0, 76, 80
2, 180348, Note_on_c, 0, 52, 64
2, 180392, Note_on_c, 0, 45, 0
2, 180440, Note_on_c, 0, 81, 102
2, 180448, Note_on_c, 0, 52, 0
2, 180448, Control_c, 0, 64, 88
2, 180464, Control_c, 0, 64, 127
2, 180484, Note_on_c, 0, 61, 52
2, 180584, Note_on_c, 0, 61, 0
2, 180744, Note_on_c, 0, 61, 69
2, 180748, Note_on_c, 0, 52, 68
2, 180764, Note_on_c, 0, 57, 54
2, 180780, Note_on_c, 0, 52, 0
2, 180784, Note_on_c, 0, 69, 0
2, 180792, Note_on_c, 0, 57, 0
2, 180828, Note_on_c, 0, 61, 0
2, 181004, Note_on_c, 0, 76, 0
2, 181004, Note_on_c, 0, 64, 82
2, 181004, Note_on_c, 0, 61, 69
2, 181016, Note_on_c, 0, 57, 59
2, 181044, Note_on_c, 0, 57, 0
2, 181060, Note_on_c, 0, 61, 0
2, 181076, Note_on_c, 0, 64, 0
2, 181236, Note_on_c, 0, 69, 82
2, 181240, Note_on_c, 0, 61, 70
2, 181240, Note_on_c, 0, 64, 73
2, 181292, Note_on_c, 0, 61, 0
2, 181304, Note_on_c, 0, 64, 0
2, 181324, Note_on_c, 0, 69, 0
2, 181524, Note_on_c, 0, 73, 85
2, 181532, Note_on_c, 0, 69, 73
2, 181552, Note_on_c, 0, 64, 60
2, 181560, Control_c, 0, 64, 40
2, 181580, Control_c, 0, 64, 0
2, 181672, Control_c, 0, 64, 127
2, 181684, Note_on_c, 0, 69, 0
2, 181684, Note_on_c, 0, 73, 0
2, 181692, Note_on_c, 0, 64, 0
2, 181804, Note_on_c, 0, 81, 0
2, 181816, Note_on_c, 0, 76, 93
2, 181952, Note_on_c, 0, 76, 0
2, 181992, Note_on_c, 0, 77, 82
2, 182068, Note_on_c, 0, 76, 87
2, 182100, Note_on_c, 0, 77, 0
2, 182120, Control_c, 0, 64, 88
2, 182136, Control_c, 0, 64, 0
2, 182140, Note_on_c, 0, 75, 93
2, 182148, Note_on_c, 0, 49, 63
2, 182156, Note_on_c, 0, 67, 75
2, 182164, Note_on_c, 0, 57, 64
2, 182176, Note_on_c, 0, 76, 0
2, 182228, Control_c, 0, 64, 72
2, 182244, Control_c, 0, 64, 127
2, 182260, Note_on_c, 0, 49, 0
2, 182268, Note_on_c, 0, 57, 0
2, 182352, Note_on_c, 0, 67, 0
2, 182380, Note_on_c, 0, 75, 0
2, 182444, Note_on_c, 0, 76, 95
2, 182540, Control_c, 0, 64, 40
2, 182552, Control_c, 0, 64, 0
2, 182612, Note_on_c, 0, 50, 68
2, 182616, Control_c, 0, 64, 88
2, 182624, Note_on_c, 0, 57, 58
2, 182632, Control_c, 0, 64, 127
2, 182652, Note_on_c, 0, 76, 0
2, 182676, Note_on_c, 0, 50, 0
2, 182712, Note_on_c, 0, 57, 0
2, 182776, Note_on_c, 0, 64, 53
2, 182816, Note_on_c, 0, 79, 93
2, 182836, Note_on_c, 0, 69, 66
2, 182976, Note_on_c, 0, 79, 0
2, 183144, Note_on_c, 0, 69, 0
2, 183200, Note_on_c, 0, 64, 0
2, 183208, Note_on_c, 0, 77, 97
2, 183208, Note_on_c, 0, 62, 56
2, 183296, Note_on_c, 0, 62, 0
2, 183332, Note_on_c, 0, 77, 0
2, 183468, Note_on_c, 0, 76, 88
2, 183472, Note_on_c, 0, 67, 46
2, 183672, Note_on_c, 0, 76, 0
2, 183696, Note_on_c, 0, 67, 0
2, 183724, Note_on_c, 0, 74, 89
2, 183748, Note_on_c, 0, 65, 42
2, 183924, Note_on_c, 0, 65, 0
2, 183944, Note_on_c, 0, 74, 0
2, 183976, Note_on_c, 0, 73, 82
2, 184008, Note_on_c, 0, 64, 49
2, 184180, Note_on_c, 0, 73, 0
2, 184184, Note_on_c, 0, 64, 0
2, 184224, Note_on_c, 0, 74, 85
2, 184264, Note_on_c, 0, 65, 46
2, 184380, Note_on_c, 0, 65, 0
2, 184484, Note_on_c, 0, 74, 0
2, 184484, Note_on_c, 0, 76, 92
2, 184512, Note_on_c, 0, 61, 45
2, 184580, Note_on_c, 0, 76, 0
2, 184768, Note_on_c, 0, 62, 65
2, 184792, Note_on_c, 0, 77, 89
2, 184796, Note_on_c, 0, 62, 0
2, 184804, Note_on_c, 0, 61, 0
2, 184876, Note_on_c, 0, 77, 0
2, 185004, Note_on_c, 0, 62, 64
2, 185060, Control_c, 0, 64, 56
2, 185076, Control_c, 0, 64, 0
2, 185084, Note_on_c, 0, 62, 0
2, 185096, Note_on_c, 0, 46, 41
2, 185144, Note_on_c, 0, 55, 32
2, 185188, Note_on_c, 0, 77, 86
2, 185188, Control_c, 0, 64, 104
2, 185200, Control_c, 0, 64, 127
2, 185276, Note_on_c, 0, 46, 0
2, 185308, Note_on_c, 0, 77, 0
2, 185328, Note_on_c, 0, 55, 0
2, 185492, Note_on_c, 0, 74, 83
2, 185632, Note_on_c, 0, 74, 0
2, 185744, Note_on_c, 0, 70, 77
2, 185756, Note_on_c, 0, 62, 48
2, 185796, Note_on_c, 0, 62, 0
2, 185852, Note_on_c, 0, 70, 0
2, 186008, Note_on_c, 0, 69, 73
2, 186024, Note_on_c, 0, 60, 49
2, 186084, Note_on_c, 0, 69, 0
2, 186096, Note_on_c, 0, 70, 69
2, 186100, Note_on_c, 0, 60, 0
2, 186192, Note_on_c, 0, 69, 68
2, 186200, Note_on_c, 0, 70, 0
2, 186292, Note_on_c, 0, 69, 0
2, 186312, Note_on_c, 0, 66, 69
2, 186332, Note_on_c, 0, 57, 50
2, 186364, Control_c, 0, 64, 104
2, 186380, Control_c, 0, 64, 24
2, 186392, Control_c, 0, 64, 0
2, 186472, Control_c, 0, 64, 40
2, 186488, Control_c, 0, 64, 104
2, 186504, Control_c, 0, 64, 127
2, 186556, Note_on_c, 0, 57, 0
2, 186580, Note_on_c, 0, 66, 0
2, 186604, Note_on_c, 0, 67, 75
2, 186624, Note_on_c, 0, 58, 44
2, 186848, Note_on_c, 0, 67, 0
2, 186900, Note_on_c, 0, 70, 67
2, 186936, Note_on_c, 0, 55, 52
2, 186968, Control_c, 0, 64, 72
2, 186980, Control_c, 0, 64, 0
2, 187076, Control_c, 0, 64, 56
2, 187092, Control_c, 0, 64, 127
2, 187116, Note_on_c, 0, 55, 0
2, 187140, Note_on_c, 0, 58, 0
2, 187264, Note_on_c, 0, 74, 74
2, 187296, Note_on_c, 0, 70, 0
2, 187420, Note_on_c, 0, 74, 0
2, 187496, Note_on_c, 0, 64, 55
2, 187524, Note_on_c, 0, 55, 26
2, 187544, Note_on_c, 0, 48, 39
2, 187600, Note_on_c, 0, 70, 67
2, 187616, Control_c, 0, 64, 104
2, 187632, Control_c, 0, 64, 40
2, 187648, Control_c, 0, 64, 0
2, 187732, Note_on_c, 0, 74, 78
2, 187788, Control_c, 0, 64, 24
2, 187804, Control_c, 0, 64, 88
2, 187816, Control_c, 0, 64, 127
2, 187900, Note_on_c, 0, 74, 0
2, 187904, Note_on_c, 0, 70, 0
2, 187936, Note_on_c, 0, 64, 0
2, 188348, Note_on_c, 0, 64, 72
2, 188360, Note_on_c, 0, 58, 41
2, 188376, Note_on_c, 0, 62, 40
2, 188436, Control_c, 0, 64, 88
2, 188452, Control_c, 0, 64, 0
2, 188532, Control_c, 0, 64, 56
2, 188544, Control_c, 0, 64, 127
2, 188560, Note_on_c, 0, 62, 0
2, 188728, Note_on_c, 0, 58, 0
2, 188960, Note_on_c, 0, 61, 51
2, 188980, Control_c, 0, 64, 56
2, 188996, Control_c, 0, 64, 0
2, 189040, Control_c, 0, 64, 24
2, 189056, Control_c, 0, 64, 88
2, 189072, Note_on_c, 0, 64, 0
2, 189072, Control_c, 0, 64, 127
2, 189180, Note_on_c, 0, 61, 0
2, 189260, Note_on_c, 0, 64, 70
2, 189364, Note_on_c, 0, 64, 0
2, 189592, Note_on_c, 0, 64, 65
2, 189624, Note_on_c, 0, 60, 46
2, 189628, Control_c, 0, 64, 104
2, 189644, Control_c, 0, 64, 24
2, 189660, Control_c, 0, 64, 0
2, 189768, Control_c, 0, 64, 127
2, 189800, Note_on_c, 0, 60, 0
2, 189808, Note_on_c, 0, 55, 0
2, 189856, Note_on_c, 0, 48, 0
2, 189928, Note_on_c, 0, 67, 76
2, 189932, Note_on_c, 0, 64, 0
2, 190028, Note_on_c, 0, 67, 0
2, 190172, Note_on_c, 0, 41, 49
2, 190292, Note_on_c, 0, 48, 50
2, 190300, Note_on_c, 0, 67, 68
2, 190328, Note_on_c, 0, 60, 42
2, 190372, Note_on_c, 0, 57, 43
2, 190372, Control_c, 0, 64, 88
2, 190388, Control_c, 0, 64, 0
2, 190544, Control_c, 0, 64, 56
2, 190560, Control_c, 0, 64, 104
2, 190576, Control_c, 0, 64, 127
2, 190620, Control_c, 0, 64, 88
2, 190636, Control_c, 0, 64, 24
2, 190644, Note_on_c, 0, 65, 68
2, 190652, Control_c, 0, 64, 0
2, 190668, Note_on_c, 0, 67, 0
2, 190716, Control_c, 0, 64, 24
2, 190724, Note_on_c, 0, 48, 0
2, 190728, Control_c, 0, 64, 72
2, 190744, Control_c, 0, 64, 127
2, 190756, Note_on_c, 0, 65, 0
2, 190888, Note_on_c, 0, 65, 58
2, 190948, Note_on_c, 0, 65, 0
2, 190964, Note_on_c, 0, 67, 67
2, 191024, Control_c, 0, 64, 104
2, 191040, Control_c, 0, 64, 88
2, 191052, Note_on_c, 0, 67, 0
2, 191052, Note_on_c, 0, 65, 66
2, 191056, Control_c, 0, 64, 56
2, 191072, Control_c, 0, 64, 0
2, 191256, Control_c, 0, 64, 40
2, 191272, Control_c, 0, 64, 56
2, 191288, Control_c, 0, 64, 88
2, 191300, Note_on_c, 0, 65, 0
2, 191304, Control_c, 0, 64, 104
2, 191316, Control_c, 0, 64, 127
2, 191600, Note_on_c, 0, 64, 56
2, 191704, Control_c, 0, 64, 104
2, 191712, Note_on_c, 0, 64, 0
2, 191728, Note_on_c, 0, 65, 55
2, 191736, Control_c, 0, 64, 88
2, 191752, Control_c, 0, 64, 56
2, 191768, Control_c, 0, 64, 40
2, 191780, Control_c, 0, 64, 0
2, 192076, Control_c, 0, 64, 40
2, 192092, Control_c, 0, 64, 72
2, 192108, Control_c, 0, 64, 88
2, 192124, Control_c, 0, 64, 127
2, 192300, Note_on_c, 0, 60, 0
2, 192340, Note_on_c, 0, 65, 0
2, 192388, Note_on_c, 0, 41, 0
2, 192392, Note_on_c, 0, 57, 0
2, 192740, Control_c, 0, 64, 88
2, 192756, Control_c, 0, 64, 56
2, 192772, Control_c, 0, 64, 24
2, 192788, Control_c, 0, 64, 0
2, 192864, Note_on_c, 0, 77, 74
2, 193000, Control_c, 0, 64, 56
2, 193016, Control_c, 0, 64, 104
2, 193028, Control_c, 0, 64, 127
2, 193048, Note_on_c, 0, 77, 0
2, 193104, Note_on_c, 0, 65, 51
2, 193160, Note_on_c, 0, 43, 50
2, 193164, Note_on_c, 0, 50, 45
2, 193228, Note_on_c, 0, 71, 47
2, 193280, Note_on_c, 0, 65, 0
2, 193320, Note_on_c, 0, 76, 77
2, 193324, Note_on_c, 0, 43, 0
2, 193328, Note_on_c, 0, 71, 0
2, 193344, Note_on_c, 0, 55, 49
2, 193356, Note_on_c, 0, 50, 0
2, 193400, Note_on_c, 0, 55, 0
2, 193596, Note_on_c, 0, 76, 0
2, 193636, Note_on_c, 0, 74, 85
2, 193656, Note_on_c, 0, 65, 44
2, 193776, Note_on_c, 0, 65, 0
2, 193828, Note_on_c, 0, 74, 0
2, 193860, Note_on_c, 0, 73, 77
2, 193904, Note_on_c, 0, 59, 49
2, 193932, Note_on_c, 0, 55, 49
2, 194040, Note_on_c, 0, 55, 0
2, 194052, Note_on_c, 0, 73, 0
2, 194060, Note_on_c, 0, 65, 60
2, 194064, Note_on_c, 0, 74, 90
2, 194088, Note_on_c, 0, 59, 0
2, 194092, Note_on_c, 0, 65, 0
2, 194144, Note_on_c, 0, 74, 0
2, 194228, Note_on_c, 0, 62, 49
2, 194236, Control_c, 0, 64, 104
2, 194244, Note_on_c, 0, 65, 65
2, 194252, Control_c, 0, 64, 24
2, 194268, Control_c, 0, 64, 0
2, 194280, Note_on_c, 0, 50, 27
2, 194288, Note_on_c, 0, 62, 0
2, 194308, Note_on_c, 0, 43, 58
2, 194316, Note_on_c, 0, 72, 87
2, 194316, Note_on_c, 0, 55, 59
2, 194324, Note_on_c, 0, 65, 0
2, 194340, Note_on_c, 0, 43, 0
2, 194356, Note_on_c, 0, 50, 0
2, 194376, Note_on_c, 0, 55, 0
2, 194376, Control_c, 0, 64, 56
2, 194392, Control_c, 0, 64, 104
2, 194408, Control_c, 0, 64, 127
2, 194472, Note_on_c, 0, 72, 0
2, 194528, Note_on_c, 0, 71, 74
2, 194536, Note_on_c, 0, 65, 57
2, 194640, Note_on_c, 0, 65, 0
2, 194684, Note_on_c, 0, 71, 0
2, 194736, Note_on_c, 0, 69, 77
2, 194740, Note_on_c, 0, 59, 50
2, 194768, Note_on_c, 0, 55, 45
2, 194820, Note_on_c, 0, 55, 0
2, 194844, Note_on_c, 0, 59, 0
2, 194884, Note_on_c, 0, 69, 0
2, 194912, Note_on_c, 0, 65, 60
2, 194936, Note_on_c, 0, 71, 78
2, 194948, Note_on_c, 0, 65, 0
2, 195020, Note_on_c, 0, 71, 0
2, 195100, Note_on_c, 0, 60, 58
2, 195116, Note_on_c, 0, 63, 54
2, 195120, Control_c, 0, 64, 56
2, 195136, Control_c, 0, 64, 0
2, 195188, Note_on_c, 0, 48, 60
2, 195196, Note_on_c, 0, 69, 82
2, 195200, Note_on_c, 0, 60, 0
2, 195216, Note_on_c, 0, 63, 0
2, 195228, Note_on_c, 0, 48, 0
2, 195260, Control_c, 0, 64, 72
2, 195276, Control_c, 0, 64, 127
2, 195416, Note_on_c, 0, 66, 58
2, 195500, Note_on_c, 0, 66, 0
2, 195604, Note_on_c, 0, 54, 54
2, 195800, Note_on_c, 0, 69, 0
2, 195812, Note_on_c, 0, 66, 65
2, 195832, Note_on_c, 0, 57, 55
2, 195860, Note_on_c, 0, 57, 0
2, 195884, Note_on_c, 0, 54, 0
2, 195888, Note_on_c, 0, 66, 0
2, 196016, Note_on_c, 0, 55, 45
2, 196032, Control_c, 0, 64, 56
2, 196040, Note_on_c, 0, 60, 33
2, 196048, Control_c, 0, 64, 0
2, 196064, Note_on_c, 0, 52, 55
2, 196108, Note_on_c, 0, 67, 72
2, 196132, Note_on_c, 0, 55, 0
2, 196148, Note_on_c, 0, 60, 0
2, 196160, Control_c, 0, 64, 56
2, 196172, Control_c, 0, 64, 127
2, 196204, Note_on_c, 0, 67, 0
2, 196232, Note_on_c, 0, 52, 0
2, 196260, Note_on_c, 0, 43, 48
2, 196468, Note_on_c, 0, 43, 0
2, 196516, Note_on_c, 0, 36, 49
2, 196572, Note_on_c, 0, 36, 0
2, 196780, Note_on_c, 0, 77, 80
2, 196888, Note_on_c, 0, 77, 0
2, 196988, Note_on_c, 0, 65, 59
2, 197056, Note_on_c, 0, 50, 46
2, 197068, Note_on_c, 0, 43, 48
2, 197072, Control_c, 0, 64, 72
2, 197072, Note_on_c, 0, 71, 56
2, 197088, Control_c, 0, 64, 0
2, 197108, Note_on_c, 0, 65, 0
2, 197168, Note_on_c, 0, 76, 83
2, 197172, Note_on_c, 0, 71, 0
2, 197196, Control_c, 0, 64, 56
2, 197212, Control_c, 0, 64, 127
2, 197216, Note_on_c, 0, 43, 0
2, 197220, Note_on_c, 0, 55, 54
2, 197228, Note_on_c, 0, 50, 0
2, 197264, Note_on_c, 0, 55, 0
2, 197404, Note_on_c, 0, 76, 0
2, 197452, Note_on_c, 0, 74, 86
2, 197468, Note_on_c, 0, 65, 54
2, 197584, Note_on_c, 0, 65, 0
2, 197620, Note_on_c, 0, 74, 0
2, 197652, Note_on_c, 0, 73, 78
2, 197680, Note_on_c, 0, 59, 51
2, 197688, Note_on_c, 0, 55, 53
2, 197796, Note_on_c, 0, 55, 0
2, 197828, Note_on_c, 0, 73, 0
2, 197844, Note_on_c, 0, 65, 65
2, 197848, Note_on_c, 0, 74, 90
2, 197864, Note_on_c, 0, 59, 0
2, 197872, Note_on_c, 0, 65, 0
2, 197928, Note_on_c, 0, 74, 0
2, 198000, Note_on_c, 0, 62, 56
2, 198016, Note_on_c, 0, 51, 40
2, 198016, Control_c, 0, 64, 72
2, 198028, Note_on_c, 0, 65, 70
2, 198032, Control_c, 0, 64, 0
2, 198040, Note_on_c, 0, 51, 0
2, 198044, Note_on_c, 0, 62, 0
2, 198084, Note_on_c, 0, 50, 40
2, 198092, Note_on_c, 0, 72, 87
2, 198096, Note_on_c, 0, 65, 0
2, 198104, Note_on_c, 0, 55, 55
2, 198108, Note_on_c, 0, 43, 33
2, 198136, Note_on_c, 0, 50, 0
2, 198140, Note_on_c, 0, 43, 0
2, 198140, Control_c, 0, 64, 56
2, 198156, Control_c, 0, 64, 127
2, 198172, Note_on_c, 0, 55, 0
2, 198228, Note_on_c, 0, 72, 0
2, 198288, Note_on_c, 0, 71, 74
2, 198316, Note_on_c, 0, 65, 58
2, 198412, Note_on_c, 0, 65, 0
2, 198452, Note_on_c, 0, 71, 0
2, 198492, Note_on_c, 0, 69, 82
2, 198516, Note_on_c, 0, 59, 51
2, 198536, Note_on_c, 0, 55, 44
2, 198580, Note_on_c, 0, 55, 0
2, 198624, Note_on_c, 0, 59, 0
2, 198656, Note_on_c, 0, 69, 0
2, 198676, Note_on_c, 0, 65, 61
2, 198684, Note_on_c, 0, 71, 78
2, 198708, Note_on_c, 0, 65, 0
2, 198768, Note_on_c, 0, 71, 0
2, 198856, Note_on_c, 0, 60, 58
2, 198864, Note_on_c, 0, 63, 54
2, 198868, Control_c, 0, 64, 56
2, 198884, Control_c, 0, 64, 0
2, 198936, Note_on_c, 0, 48, 59
2, 198940, Note_on_c, 0, 69, 85
2, 198956, Note_on_c, 0, 60, 0
2, 198964, Note_on_c, 0, 63, 0
2, 198976, Note_on_c, 0, 48, 0
2, 199008, Control_c, 0, 64, 88
2, 199024, Control_c, 0, 64, 127
2, 199164, Note_on_c, 0, 66, 61
2, 199252, Note_on_c, 0, 66, 0
2, 199352, Note_on_c, 0, 54, 56
2, 199524, Note_on_c, 0, 69, 0
2, 199540, Note_on_c, 0, 66, 68
2, 199564, Note_on_c, 0, 57, 41
2, 199592, Note_on_c, 0, 54, 0
2, 199596, Note_on_c, 0, 57, 0
2, 199624, Note_on_c, 0, 66, 0
2, 199768, Note_on_c, 0, 55, 44
2, 199776, Note_on_c, 0, 60, 38
2, 199784, Control_c, 0, 64, 88
2, 199796, Control_c, 0, 64, 0
2, 199804, Note_on_c, 0, 52, 51
2, 199824, Note_on_c, 0, 67, 70
2, 199908, Note_on_c, 0, 55, 0
2, 199908, Control_c, 0, 64, 40
2, 199920, Control_c, 0, 64, 104
2, 199936, Control_c, 0, 64, 127
2, 199948, Note_on_c, 0, 60, 0
2, 199960, Note_on_c, 0, 52, 0
2, 199984, Note_on_c, 0, 43, 45
2, 200032, Note_on_c, 0, 43, 0
2, 200040, Note_on_c, 0, 67, 0
2, 200252, Note_on_c, 0, 36, 49
2, 200304, Note_on_c, 0, 36, 0
2, 200492, Note_on_c, 0, 72, 86
2, 200524, Control_c, 0, 64, 72
2, 200540, Control_c, 0, 64, 0
2, 200628, Note_on_c, 0, 72, 0
2, 200648, Control_c, 0, 64, 88
2, 200660, Note_on_c, 0, 46, 54
2, 200664, Control_c, 0, 64, 127
2, 200672, Note_on_c, 0, 67, 62
2, 200696, Note_on_c, 0, 52, 49
2, 200720, Note_on_c, 0, 46, 0
2, 200732, Note_on_c, 0, 55, 48
2, 200756, Note_on_c, 0, 72, 73
2, 200760, Note_on_c, 0, 67, 0
2, 200832, Note_on_c, 0, 52, 0
2, 200852, Note_on_c, 0, 55, 0
2, 200856, Note_on_c, 0, 60, 59
2, 200868, Note_on_c, 0, 72, 0
2, 200892, Note_on_c, 0, 79, 91
2, 200944, Note_on_c, 0, 60, 0
2, 201180, Note_on_c, 0, 79, 0
2, 201212, Note_on_c, 0, 77, 90
2, 201416, Note_on_c, 0, 77, 0
2, 201424, Note_on_c, 0, 76, 94
2, 201612, Note_on_c, 0, 76, 0
2, 201620, Note_on_c, 0, 74, 91
2, 201840, Note_on_c, 0, 74, 0
2, 201860, Note_on_c, 0, 72, 78
2, 201864, Note_on_c, 0, 67, 76
2, 201912, Note_on_c, 0, 58, 38
2, 201932, Note_on_c, 0, 60, 21
2, 201948, Control_c, 0, 64, 72
2, 201964, Note_on_c, 0, 60, 0
2, 201968, Control_c, 0, 64, 0
2, 202072, Control_c, 0, 64, 88
2, 202088, Control_c, 0, 64, 127
2, 202108, Note_on_c, 0, 74, 79
2, 202124, Note_on_c, 0, 72, 0
2, 202284, Note_on_c, 0, 74, 0
2, 202324, Note_on_c, 0, 75, 75
2, 202452, Note_on_c, 0, 67, 0
2, 202484, Note_on_c, 0, 58, 0
2, 202492, Note_on_c, 0, 75, 0
2, 202532, Note_on_c, 0, 60, 78
2, 202540, Note_on_c, 0, 76, 76
2, 202652, Note_on_c, 0, 60, 0
2, 202668, Note_on_c, 0, 76, 0
2, 202816, Control_c, 0, 64, 88
2, 202820, Note_on_c, 0, 77, 76
2, 202828, Note_on_c, 0, 60, 54
2, 202832, Note_on_c, 0, 65, 73
2, 202832, Control_c, 0, 64, 0
2, 202856, Note_on_c, 0, 57, 51
2, 202956, Control_c, 0, 64, 72
2, 202972, Control_c, 0, 64, 127
2, 203072, Note_on_c, 0, 64, 81
2, 203100, Note_on_c, 0, 65, 0
2, 203152, Note_on_c, 0, 60, 0
2, 203192, Note_on_c, 0, 64, 0
2, 203268, Note_on_c, 0, 62, 76
2, 203420, Note_on_c, 0, 57, 0
2, 203428, Note_on_c, 0, 77, 0
2, 203456, Note_on_c, 0, 62, 0
2, 203484, Note_on_c, 0, 60, 67
2, 203484, Note_on_c, 0, 69, 76
2, 203516, Note_on_c, 0, 60, 0
2, 203596, Note_on_c, 0, 69, 0
2, 203728, Note_on_c, 0, 74, 71
2, 203748, Note_on_c, 0, 60, 77
2, 203752, Note_on_c, 0, 55, 63
2, 203772, Note_on_c, 0, 50, 68
2, 203776, Control_c, 0, 64, 56
2, 203792, Control_c, 0, 64, 0
2, 203900, Control_c, 0, 64, 56
2, 203916, Control_c, 0, 64, 127
2, 203948, Note_on_c, 0, 55, 0
2, 203968, Note_on_c, 0, 58, 64
2, 203972, Note_on_c, 0, 60, 0
2, 203988, Note_on_c, 0, 50, 0
2, 204024, Note_on_c, 0, 58, 0
2, 204212, Note_on_c, 0, 57, 68
2, 204224, Note_on_c, 0, 50, 55
2, 204224, Control_c, 0, 64, 40
2, 204236, Note_on_c, 0, 46, 49
2, 204244, Control_c, 0, 64, 0
2, 204320, Note_on_c, 0, 57, 0
2, 204320, Control_c, 0, 64, 40
2, 204336, Control_c, 0, 64, 104
2, 204352, Control_c, 0, 64, 127
2, 204444, Note_on_c, 0, 67, 72
2, 204452, Note_on_c, 0, 74, 0
2, 204452, Note_on_c, 0, 55, 71
2, 204472, Note_on_c, 0, 50, 0
2, 204480, Note_on_c, 0, 46, 0
2, 204560, Note_on_c, 0, 55, 0
2, 204664, Note_on_c, 0, 67, 0
2, 204704, Note_on_c, 0, 72, 72
2, 204708, Note_on_c, 0, 58, 57
2, 204724, Control_c, 0, 64, 56
2, 204736, Note_on_c, 0, 53, 55
2, 204736, Control_c, 0, 64, 0
2, 204744, Note_on_c, 0, 48, 61
2, 204844, Control_c, 0, 64, 56
2, 204860, Note_on_c, 0, 58, 0
2, 204860, Control_c, 0, 64, 104
2, 204876, Control_c, 0, 64, 127
2, 204940, Note_on_c, 0, 57, 62
2, 205012, Note_on_c, 0, 48, 0
2, 205028, Note_on_c, 0, 53, 0
2, 205032, Note_on_c, 0, 57, 0
2, 205188, Note_on_c, 0, 55, 51
2, 205204, Control_c, 0, 64, 88
2, 205216, Control_c, 0, 64, 0
2, 205224, Note_on_c, 0, 45, 69
2, 205280, Control_c, 0, 64, 40
2, 205296, Control_c, 0, 64, 88
2, 205312, Control_c, 0, 64, 127
2, 205332, Note_on_c, 0, 55, 0
2, 205416, Note_on_c, 0, 65, 78
2, 205420, Note_on_c, 0, 72, 0
2, 205432, Note_on_c, 0, 53, 69
2, 205452, Note_on_c, 0, 45, 0
2, 205496, Note_on_c, 0, 53, 0
2, 205640, Note_on_c, 0, 65, 0
2, 205680, Note_on_c, 0, 69, 74
2, 205692, Note_on_c, 0, 53, 59
2, 205712, Note_on_c, 0, 49, 58
2, 205732, Note_on_c, 0, 43, 51
2, 205744, Control_c, 0, 64, 88
2, 205760, Control_c, 0, 64, 24
2, 205776, Control_c, 0, 64, 0
2, 205916, Control_c, 0, 64, 24
2, 205920, Note_on_c, 0, 53, 0
2, 205932, Control_c, 0, 64, 72
2, 205940, Note_on_c, 0, 52, 66
2, 205944, Control_c, 0, 64, 127
2, 205972, Note_on_c, 0, 52, 0
2, 205976, Note_on_c, 0, 49, 0
2, 205980, Note_on_c, 0, 43, 0
2, 206228, Note_on_c, 0, 50, 61
2, 206236, Note_on_c, 0, 45, 53
2, 206240, Control_c, 0, 64, 72
2, 206248, Note_on_c, 0, 40, 43
2, 206256, Control_c, 0, 64, 0
2, 206364, Control_c, 0, 64, 72
2, 206380, Control_c, 0, 64, 127
2, 206452, Note_on_c, 0, 50, 0
2, 206504, Note_on_c, 0, 45, 0
2, 206524, Note_on_c, 0, 49, 59
2, 206532, Note_on_c, 0, 40, 0
2, 206532, Note_on_c, 0, 57, 63
2, 206536, Note_on_c, 0, 69, 0
2, 206584, Note_on_c, 0, 49, 0
2, 206696, Note_on_c, 0, 57, 0
2, 206840, Note_on_c, 0, 45, 47
2, 206892, Control_c, 0, 64, 104
2, 206896, Note_on_c, 0, 65, 74
2, 206904, Note_on_c, 0, 38, 50
2, 206904, Control_c, 0, 64, 40
2, 206920, Control_c, 0, 64, 0
2, 206956, Note_on_c, 0, 50, 50
2, 206988, Note_on_c, 0, 38, 0
2, 206988, Note_on_c, 0, 45, 0
2, 207000, Control_c, 0, 64, 72
2, 207012, Control_c, 0, 64, 127
2, 207036, Note_on_c, 0, 50, 0
2, 207152, Note_on_c, 0, 65, 0
2, 207216, Note_on_c, 0, 69, 74
2, 207236, Note_on_c, 0, 53, 55
2, 207236, Note_on_c, 0, 62, 31
2, 207264, Note_on_c, 0, 62, 0
2, 207280, Note_on_c, 0, 69, 0
2, 207496, Note_on_c, 0, 74, 71
2, 207500, Note_on_c, 0, 57, 49
2, 207508, Note_on_c, 0, 65, 42
2, 207568, Note_on_c, 0, 65, 0
2, 207604, Note_on_c, 0, 53, 0
2, 207628, Note_on_c, 0, 57, 0
2, 207628, Note_on_c, 0, 74, 0
2, 207780, Note_on_c, 0, 77, 68
2, 207780, Note_on_c, 0, 69, 52
2, 207788, Note_on_c, 0, 62, 42
2, 207816, Note_on_c, 0, 69, 0
2, 207852, Note_on_c, 0, 77, 0
2, 207856, Note_on_c, 0, 62, 0
2, 208164, Note_on_c, 0, 81, 63
2, 208176, Note_on_c, 0, 69, 40
2, 208180, Note_on_c, 0, 74, 49
2, 208188, Note_on_c, 0, 65, 49
2, 208276, Note_on_c, 0, 65, 0
2, 208288, Note_on_c, 0, 81, 0
2, 208292, Note_on_c, 0, 74, 0
2, 208296, Note_on_c, 0, 69, 0
2, 209408, Note_on_c, 0, 65, 61
2, 209428, Note_on_c, 0, 50, 47
2, 209428, Note_on_c, 0, 57, 36
2, 209428, Note_on_c, 0, 62, 43
2, 209440, Note_on_c, 0, 38, 38
2, 209524, Control_c, 0, 64, 104
2, 209540, Control_c, 0, 64, 40
2, 209552, Control_c, 0, 64, 0
2, 209724, Control_c, 0, 64, 56
2, 209740, Control_c, 0, 64, 88
2, 209756, Control_c, 0, 64, 127
2, 210108, Note_on_c, 0, 50, 0
2, 210224, Note_on_c, 0, 38, 0
2, 210312, Note_on_c, 0, 48, 52
2, 210324, Note_on_c, 0, 36, 30
2, 210484, Control_c, 0, 64, 104
2, 210500, Control_c, 0, 64, 56
2, 210512, Control_c, 0, 64, 0
2, 210620, Control_c, 0, 64, 56
2, 210636, Control_c, 0, 64, 104
2, 210652, Control_c, 0, 64, 127
2, 210792, Note_on_c, 0, 48, 0
2, 210808, Note_on_c, 0, 36, 0
2, 210860, Note_on_c, 0, 57, 0
2, 210892, Note_on_c, 0, 62, 0
2, 211320, Control_c, 0, 64, 72
2, 211324, Note_on_c, 0, 67, 70
2, 211332, Note_on_c, 0, 55, 42
2, 211332, Control_c, 0, 64, 0
2, 211344, Note_on_c, 0, 62, 50
2, 211364, Note_on_c, 0, 34, 42
2, 211368, Note_on_c, 0, 46, 35
2, 211368, Control_c, 0, 64, 24
2, 211376, Note_on_c, 0, 65, 0
2, 211380, Control_c, 0, 64, 56
2, 211388, Note_on_c, 0, 55, 0
2, 211396, Control_c, 0, 64, 104
2, 211408, Note_on_c, 0, 62, 0
2, 211412, Control_c, 0, 64, 127
2, 211424, Note_on_c, 0, 34, 0
2, 211440, Note_on_c, 0, 46, 0
2, 211444, Note_on_c, 0, 67, 0
2, 211672, Note_on_c, 0, 70, 73
2, 211672, Note_on_c, 0, 62, 57
2, 211708, Note_on_c, 0, 62, 0
2, 211712, Note_on_c, 0, 55, 54
2, 211740, Note_on_c, 0, 70, 0
2, 211928, Note_on_c, 0, 55, 0
2, 211960, Note_on_c, 0, 58, 50
2, 211972, Note_on_c, 0, 74, 83
2, 211988, Note_on_c, 0, 67, 42
2, 212028, Note_on_c, 0, 67, 0
2, 212120, Note_on_c, 0, 74, 0
2, 212244, Note_on_c, 0, 79, 83
2, 212244, Note_on_c, 0, 70, 61
2, 212280, Note_on_c, 0, 62, 43
2, 212304, Note_on_c, 0, 70, 0
2, 212324, Note_on_c, 0, 79, 0
2, 212644, Note_on_c, 0, 82, 70
2, 212656, Note_on_c, 0, 70, 49
2, 212680, Note_on_c, 0, 74, 48
2, 212692, Note_on_c, 0, 67, 37
2, 212912, Note_on_c, 0, 67, 0
2, 212952, Note_on_c, 0, 62, 0
2, 212976, Note_on_c, 0, 58, 0
2, 213084, Note_on_c, 0, 74, 0
2, 213088, Note_on_c, 0, 70, 0
2, 213092, Note_on_c, 0, 82, 0
2, 213752, Control_c, 0, 64, 72
2, 213764, Control_c, 0, 64, 0
2, 213812, Note_on_c, 0, 70, 70
2, 213816, Note_on_c, 0, 58, 45
2, 213844, Control_c, 0, 64, 56
2, 213844, Note_on_c, 0, 43, 48
2, 213848, Note_on_c, 0, 62, 32
2, 213848, Note_on_c, 0, 31, 42
2, 213860, Note_on_c, 0, 58, 0
2, 213860, Control_c, 0, 64, 127
2, 213872, Note_on_c, 0, 62, 0
2, 213880, Note_on_c, 0, 31, 0
2, 213900, Note_on_c, 0, 70, 0
2, 213920, Note_on_c, 0, 43, 0
2, 214152, Note_on_c, 0, 74, 75
2, 214160, Note_on_c, 0, 58, 36
2, 214176, Note_on_c, 0, 67, 45
2, 214220, Note_on_c, 0, 67, 0
2, 214272, Note_on_c, 0, 74, 0
2, 214440, Note_on_c, 0, 79, 74
2, 214440, Note_on_c, 0, 62, 52
2, 214488, Note_on_c, 0, 79, 0
2, 214760, Note_on_c, 0, 82, 73
2, 214776, Note_on_c, 0, 67, 53
2, 214776, Note_on_c, 0, 74, 50
2, 214884, Note_on_c, 0, 82, 0
2, 215212, Note_on_c, 0, 86, 70
2, 215232, Note_on_c, 0, 79, 45
2, 215236, Note_on_c, 0, 70, 49
2, 215392, Note_on_c, 0, 62, 0
2, 215408, Note_on_c, 0, 58, 0
2, 215452, Note_on_c, 0, 70, 0
2, 215456, Note_on_c, 0, 67, 0
2, 215656, Note_on_c, 0, 74, 0
2, 215704, Note_on_c, 0, 86, 0
2, 215712, Note_on_c, 0, 79, 0
2, 216508, Note_on_c, 0, 62, 38
2, 216520, Note_on_c, 0, 55, 39
2, 216520, Note_on_c, 0, 58, 31
2, 216616, Control_c, 0, 64, 88
2, 216632, Control_c, 0, 64, 40
2, 216648, Control_c, 0, 64, 0
2, 216800, Control_c, 0, 64, 40
2, 216816, Control_c, 0, 64, 88
2, 216832, Control_c, 0, 64, 127
2, 217072, Note_on_c, 0, 77, 85
2, 217616, Note_on_c, 0, 76, 76
2, 217636, Note_on_c, 0, 77, 0
2, 217712, Control_c, 0, 64, 72
2, 217728, Control_c, 0, 64, 40
2, 217744, Control_c, 0, 64, 0
2, 217836, Control_c, 0, 64, 24
2, 217852, Control_c, 0, 64, 72
2, 217868, Control_c, 0, 64, 127
2, 218160, Note_on_c, 0, 76, 0
2, 218176, Note_on_c, 0, 74, 68
2, 218240, Control_c, 0, 64, 104
2, 218256, Control_c, 0, 64, 56
2, 218272, Control_c, 0, 64, 0
2, 218348, Control_c, 0, 64, 40
2, 218364, Control_c, 0, 64, 88
2, 218380, Control_c, 0, 64, 127
2, 218672, Note_on_c, 0, 74, 0
2, 218684, Note_on_c, 0, 72, 71
2, 218784, Control_c, 0, 64, 88
2, 218796, Control_c, 0, 64, 72
2, 218812, Control_c, 0, 64, 40
2, 218828, Control_c, 0, 64, 0
2, 219028, Control_c, 0, 64, 40
2, 219044, Control_c, 0, 64, 72
2, 219060, Control_c, 0, 64, 88
2, 219076, Control_c, 0, 64, 104
2, 219092, Control_c, 0, 64, 127
2, 219188, Note_on_c, 0, 70, 68
2, 219208, Note_on_c, 0, 72, 0
2, 219216, Control_c, 0, 64, 104
2, 219232, Control_c, 0, 64, 72
2, 219248, Control_c, 0, 64, 40
2, 219264, Control_c, 0, 64, 0
2, 219308, Control_c, 0, 64, 24
2, 219324, Control_c, 0, 64, 40
2, 219340, Control_c, 0, 64, 72
2, 219356, Control_c, 0, 64, 88
2, 219372, Control_c, 0, 64, 127
2, 219476, Note_on_c, 0, 70, 0
2, 219532, Note_on_c, 0, 72, 65
2, 219608, Note_on_c, 0, 70, 70
2, 219620, Note_on_c, 0, 72, 0
2, 219720, Note_on_c, 0, 70, 0
2, 219752, Note_on_c, 0, 69, 64
2, 219820, Control_c, 0, 64, 104
2, 219836, Control_c, 0, 64, 88
2, 219852, Control_c, 0, 64, 56
2, 219868, Control_c, 0, 64, 40
2, 219884, Control_c, 0, 64, 0
2, 220176, Control_c, 0, 64, 24
2, 220276, Note_on_c, 0, 69, 0
2, 220276, Note_on_c, 0, 67, 70
2, 220284, Control_c, 0, 64, 0
2, 220408, Control_c, 0, 64, 24
2, 220424, Control_c, 0, 64, 56
2, 220440, Control_c, 0, 64, 88
2, 220456, Control_c, 0, 64, 104
2, 220472, Control_c, 0, 64, 127
2, 220516, Note_on_c, 0, 55, 0
2, 220544, Note_on_c, 0, 62, 0
2, 220576, Note_on_c, 0, 58, 0
2, 220836, Note_on_c, 0, 67, 0
2, 220880, Note_on_c, 0, 74, 75
2, 221028, Control_c, 0, 64, 104
2, 221044, Control_c, 0, 64, 88
2, 221060, Control_c, 0, 64, 56
2, 221076, Control_c, 0, 64, 0
2, 221228, Control_c, 0, 64, 24
2, 221244, Control_c, 0, 64, 72
2, 221260, Control_c, 0, 64, 104
2, 221276, Control_c, 0, 64, 127
2, 221676, Note_on_c, 0, 48, 39
2, 221736, Note_on_c, 0, 48, 0
2, 221988, Note_on_c, 0, 62, 51
2, 222008, Note_on_c, 0, 58, 31
2, 222544, Note_on_c, 0, 62, 0
2, 222604, Note_on_c, 0, 58, 0
2, 222692, Note_on_c, 0, 74, 0
2, 222704, Note_on_c, 0, 64, 61
2, 222788, Note_on_c, 0, 64, 0
2, 222988, Note_on_c, 0, 64, 70
2, 223024, Note_on_c, 0, 60, 47
2, 223048, Note_on_c, 0, 57, 41
2, 223104, Control_c, 0, 64, 104
2, 223120, Control_c, 0, 64, 72
2, 223136, Control_c, 0, 64, 40
2, 223148, Control_c, 0, 64, 0
2, 223288, Control_c, 0, 64, 40
2, 223304, Control_c, 0, 64, 88
2, 223320, Control_c, 0, 64, 127
2, 223632, Note_on_c, 0, 57, 0
2, 223660, Note_on_c, 0, 60, 0
2, 224084, Note_on_c, 0, 58, 31
2, 224092, Note_on_c, 0, 55, 37
2, 224280, Control_c, 0, 64, 88
2, 224296, Control_c, 0, 64, 56
2, 224312, Control_c, 0, 64, 24
2, 224328, Control_c, 0, 64, 0
2, 224448, Control_c, 0, 64, 40
2, 224464, Control_c, 0, 64, 72
2, 224480, Control_c, 0, 64, 127
2, 224616, Note_on_c, 0, 55, 0
2, 224652, Note_on_c, 0, 58, 0
2, 224684, Note_on_c, 0, 64, 0
2, 225656, Control_c, 0, 64, 88
2, 225672, Control_c, 0, 64, 56
2, 225688, Control_c, 0, 64, 0
2, 225720, Note_on_c, 0, 41, 48
2, 225748, Control_c, 0, 64, 72
2, 225768, Control_c, 0, 64, 127
2, 225816, Note_on_c, 0, 41, 0
2, 226076, Note_on_c, 0, 60, 40
2, 226248, Note_on_c, 0, 60, 0
2, 226320, Note_on_c, 0, 58, 38
2, 226344, Note_on_c, 0, 53, 40
2, 226352, Note_on_c, 0, 55, 39
2, 226488, Note_on_c, 0, 53, 0
2, 226572, Note_on_c, 0, 60, 54
2, 226576, Note_on_c, 0, 55, 0
2, 226588, Note_on_c, 0, 58, 0
2, 226600, Note_on_c, 0, 60, 0
2, 226828, Note_on_c, 0, 41, 48
2, 226872, Note_on_c, 0, 41, 0
2, 227076, Note_on_c, 0, 60, 59
2, 227268, Note_on_c, 0, 60, 0
2, 227332, Note_on_c, 0, 58, 38
2, 227372, Note_on_c, 0, 53, 36
2, 227380, Note_on_c, 0, 55, 41
2, 227496, Note_on_c, 0, 53, 0
2, 227520, Note_on_c, 0, 55, 0
2, 227628, Note_on_c, 0, 84, 82
2, 227640, Note_on_c, 0, 72, 58
2, 227656, Note_on_c, 0, 60, 38
2, 227688, Note_on_c, 0, 58, 0
2, 227696, Note_on_c, 0, 60, 0
2, 227728, Note_on_c, 0, 72, 0
2, 227756, Note_on_c, 0, 84, 0
2, 228004, Note_on_c, 0, 84, 75
2, 228020, Note_on_c, 0, 72, 53
2, 228040, Note_on_c, 0, 41, 46
2, 228044, Control_c, 0, 64, 72
2, 228056, Control_c, 0, 64, 0
2, 228132, Note_on_c, 0, 72, 0
2, 228136, Note_on_c, 0, 41, 0
2, 228136, Control_c, 0, 64, 56
2, 228152, Control_c, 0, 64, 127
2, 228304, Note_on_c, 0, 84, 0
2, 228368, Note_on_c, 0, 86, 78
2, 228384, Note_on_c, 0, 74, 51
2, 228396, Note_on_c, 0, 60, 55
2, 228436, Note_on_c, 0, 86, 0
2, 228468, Note_on_c, 0, 74, 0
2, 228512, Note_on_c, 0, 60, 0
2, 228648, Note_on_c, 0, 79, 82
2, 228656, Note_on_c, 0, 67, 55
2, 228656, Note_on_c, 0, 58, 32
2, 228672, Note_on_c, 0, 53, 48
2, 228680, Note_on_c, 0, 55, 38
2, 228708, Note_on_c, 0, 67, 0
2, 228740, Note_on_c, 0, 79, 0
2, 228788, Note_on_c, 0, 53, 0
2, 228808, Note_on_c, 0, 58, 0
2, 228836, Note_on_c, 0, 55, 0
2, 228896, Note_on_c, 0, 60, 51
2, 228896, Note_on_c, 0, 81, 86
2, 228900, Note_on_c, 0, 69, 66
2, 228928, Note_on_c, 0, 60, 0
2, 228952, Note_on_c, 0, 69, 0
2, 228972, Note_on_c, 0, 81, 0
2, 229152, Note_on_c, 0, 82, 81
2, 229156, Note_on_c, 0, 70, 62
2, 229156, Control_c, 0, 64, 72
2, 229172, Control_c, 0, 64, 0
2, 229176, Note_on_c, 0, 41, 51
2, 229220, Note_on_c, 0, 41, 0
2, 229220, Control_c, 0, 64, 56
2, 229224, Note_on_c, 0, 70, 0
2, 229236, Control_c, 0, 64, 127
2, 229344, Note_on_c, 0, 82, 0
2, 229404, Note_on_c, 0, 84, 94
2, 229404, Note_on_c, 0, 60, 56
2, 229408, Note_on_c, 0, 72, 81
2, 229472, Note_on_c, 0, 72, 0
2, 229524, Note_on_c, 0, 84, 0
2, 229560, Note_on_c, 0, 60, 0
2, 229648, Note_on_c, 0, 55, 54
2, 229652, Note_on_c, 0, 58, 38
2, 229656, Note_on_c, 0, 86, 93
2, 229664, Note_on_c, 0, 74, 74
2, 229696, Note_on_c, 0, 53, 39
2, 229732, Note_on_c, 0, 74, 0
2, 229764, Note_on_c, 0, 53, 0
2, 229768, Note_on_c, 0, 86, 0
2, 229800, Note_on_c, 0, 58, 0
2, 229808, Note_on_c, 0, 55, 0
2, 229900, Note_on_c, 0, 88, 98
2, 229900, Note_on_c, 0, 60, 65
2, 229908, Note_on_c, 0, 76, 81
2, 229972, Note_on_c, 0, 76, 0
2, 229972, Note_on_c, 0, 60, 0
2, 230004, Note_on_c, 0, 88, 0
2, 230164, Note_on_c, 0, 89, 92
2, 230184, Note_on_c, 0, 77, 62
2, 230208, Note_on_c, 0, 60, 39
2, 230212, Note_on_c, 0, 57, 40
2, 230224, Control_c, 0, 64, 88
2, 230232, Note_on_c, 0, 53, 37
2, 230240, Control_c, 0, 64, 0
2, 230364, Control_c, 0, 64, 56
2, 230380, Control_c, 0, 64, 127
2, 230384, Note_on_c, 0, 60, 0
2, 230400, Note_on_c, 0, 57, 0
2, 230432, Note_on_c, 0, 62, 57
2, 230644, Note_on_c, 0, 89, 0
2, 230676, Note_on_c, 0, 57, 50
2, 230684, Note_on_c, 0, 77, 0
2, 230736, Note_on_c, 0, 62, 0
2, 230844, Note_on_c, 0, 53, 0
2, 230852, Note_on_c, 0, 57, 0
2, 230900, Note_on_c, 0, 88, 77
2, 230916, Note_on_c, 0, 76, 61
2, 230928, Note_on_c, 0, 58, 41
2, 230952, Note_on_c, 0, 76, 0
2, 230968, Note_on_c, 0, 88, 0
2, 231024, Note_on_c, 0, 74, 74
2, 231024, Note_on_c, 0, 86, 75
2, 231040, Note_on_c, 0, 58, 0
2, 231072, Note_on_c, 0, 74, 0
2, 231084, Note_on_c, 0, 86, 0
2, 231180, Note_on_c, 0, 60, 52
2, 231180, Note_on_c, 0, 84, 70
2, 231200, Note_on_c, 0, 72, 71
2, 231220, Note_on_c, 0, 57, 38
2, 231232, Control_c, 0, 64, 88
2, 231236, Note_on_c, 0, 53, 33
2, 231248, Control_c, 0, 64, 24
2, 231264, Control_c, 0, 64, 0
2, 231300, Note_on_c, 0, 60, 0
2, 231356, Control_c, 0, 64, 40
2, 231372, Control_c, 0, 64, 104
2, 231388, Control_c, 0, 64, 127
2, 231452, Note_on_c, 0, 62, 55
2, 231564, Note_on_c, 0, 62, 0
2, 231728, Note_on_c, 0, 64, 48
2, 231772, Note_on_c, 0, 84, 0
2, 231776, Note_on_c, 0, 72, 0
2, 231804, Note_on_c, 0, 64, 0
2, 232020, Note_on_c, 0, 84, 70
2, 232032, Note_on_c, 0, 65, 47
2, 232040, Note_on_c, 0, 72, 47
2, 232088, Note_on_c, 0, 65, 0
2, 232104, Note_on_c, 0, 57, 0
2, 232124, Note_on_c, 0, 53, 0
2, 232136, Note_on_c, 0, 72, 0
2, 232140, Note_on_c, 0, 84, 0
2, 232392, Note_on_c, 0, 84, 68
2, 232400, Note_on_c, 0, 72, 58
2, 232424, Control_c, 0, 64, 56
2, 232428, Note_on_c, 0, 41, 54
2, 232440, Control_c, 0, 64, 0
2, 232516, Note_on_c, 0, 41, 0
2, 232520, Control_c, 0, 64, 88
2, 232532, Control_c, 0, 64, 127
2, 232544, Note_on_c, 0, 72, 0
2, 232720, Note_on_c, 0, 84, 0
2, 232772, Note_on_c, 0, 86, 74
2, 232784, Note_on_c, 0, 74, 54
2, 232792, Note_on_c, 0, 60, 56
2, 232836, Note_on_c, 0, 86, 0
2, 232864, Note_on_c, 0, 74, 0
2, 232956, Note_on_c, 0, 60, 0
2, 233036, Note_on_c, 0, 79, 76
2, 233044, Note_on_c, 0, 67, 51
2, 233048, Note_on_c, 0, 58, 37
2, 233068, Note_on_c, 0, 55, 42
2, 233080, Note_on_c, 0, 53, 42
2, 233088, Note_on_c, 0, 67, 0
2, 233124, Note_on_c, 0, 79, 0
2, 233280, Note_on_c, 0, 60, 56
2, 233292, Note_on_c, 0, 81, 78
2, 233292, Note_on_c, 0, 69, 68
2, 233312, Note_on_c, 0, 60, 0
2, 233312, Note_on_c, 0, 55, 0
2, 233316, Note_on_c, 0, 53, 0
2, 233320, Note_on_c, 0, 58, 0
2, 233336, Note_on_c, 0, 69, 0
2, 233364, Note_on_c, 0, 81, 0
2, 233508, Control_c, 0, 64, 72
2, 233524, Control_c, 0, 64, 0
2, 233528, Note_on_c, 0, 82, 75
2, 233532, Note_on_c, 0, 70, 63
2, 233544, Note_on_c, 0, 41, 51
2, 233588, Control_c, 0, 64, 72
2, 233596, Note_on_c, 0, 41, 0
2, 233600, Note_on_c, 0, 70, 0
2, 233600, Control_c, 0, 64, 127
2, 233704, Note_on_c, 0, 82, 0
2, 233768, Note_on_c, 0, 84, 86
2, 233772, Note_on_c, 0, 72, 65
2, 233776, Note_on_c, 0, 60, 66
2, 233844, Note_on_c, 0, 72, 0
2, 233884, Note_on_c, 0, 84, 0
2, 233904, Note_on_c, 0, 60, 0
2, 233996, Note_on_c, 0, 58, 45
2, 234000, Note_on_c, 0, 86, 93
2, 234008, Note_on_c, 0, 55, 54
2, 234012, Note_on_c, 0, 74, 74
2, 234048, Note_on_c, 0, 53, 40
2, 234080, Note_on_c, 0, 74, 0
2, 234120, Note_on_c, 0, 86, 0
2, 234156, Note_on_c, 0, 58, 0
2, 234156, Note_on_c, 0, 53, 0
2, 234192, Note_on_c, 0, 55, 0
2, 234236, Note_on_c, 0, 88, 98
2, 234244, Note_on_c, 0, 76, 80
2, 234248, Note_on_c, 0, 60, 54
2, 234308, Note_on_c, 0, 76, 0
2, 234348, Note_on_c, 0, 60, 0
2, 234352, Note_on_c, 0, 88, 0
2, 234500, Note_on_c, 0, 89, 90
2, 234516, Note_on_c, 0, 77, 68
2, 234540, Note_on_c, 0, 57, 44
2, 234544, Note_on_c, 0, 60, 49
2, 234556, Note_on_c, 0, 53, 51
2, 234564, Control_c, 0, 64, 88
2, 234580, Control_c, 0, 64, 24
2, 234596, Control_c, 0, 64, 0
2, 234700, Note_on_c, 0, 60, 0
2, 234732, Control_c, 0, 64, 72
2, 234744, Note_on_c, 0, 57, 0
2, 234748, Control_c, 0, 64, 127
2, 234760, Note_on_c, 0, 62, 59
2, 234912, Note_on_c, 0, 62, 0
2, 234960, Note_on_c, 0, 89, 0
2, 235000, Note_on_c, 0, 57, 53
2, 235004, Note_on_c, 0, 77, 0
2, 235184, Note_on_c, 0, 57, 0
2, 235216, Note_on_c, 0, 88, 74
2, 235228, Note_on_c, 0, 76, 61
2, 235236, Note_on_c, 0, 58, 52
2, 235268, Note_on_c, 0, 76, 0
2, 235280, Note_on_c, 0, 88, 0
2, 235340, Note_on_c, 0, 86, 74
2, 235340, Note_on_c, 0, 74, 72
2, 235368, Note_on_c, 0, 58, 0
2, 235392, Note_on_c, 0, 74, 0
2, 235404, Note_on_c, 0, 53, 0
2, 235408, Note_on_c, 0, 86, 0
2, 235496, Note_on_c, 0, 84, 79
2, 235508, Note_on_c, 0, 72, 61
2, 235512, Note_on_c, 0, 60, 58
2, 235536, Note_on_c, 0, 58, 40
2, 235540, Control_c, 0, 64, 104
2, 235556, Control_c, 0, 64, 40
2, 235564, Note_on_c, 0, 53, 34
2, 235568, Control_c, 0, 64, 0
2, 235636, Note_on_c, 0, 60, 0
2, 235648, Control_c, 0, 64, 24
2, 235664, Note_on_c, 0, 58, 0
2, 235664, Control_c, 0, 64, 88
2, 235680, Control_c, 0, 64, 127
2, 235764, Note_on_c, 0, 62, 65
2, 235868, Note_on_c, 0, 62, 0
2, 236012, Note_on_c, 0, 72, 0
2, 236024, Note_on_c, 0, 64, 60
2, 236048, Note_on_c, 0, 84, 0
2, 236108, Note_on_c, 0, 64, 0
2, 236264, Note_on_c, 0, 53, 0
2, 236272, Note_on_c, 0, 84, 80
2, 236276, Note_on_c, 0, 72, 70
2, 236284, Note_on_c, 0, 65, 63
2, 236316, Note_on_c, 0, 72, 0
2, 236352, Note_on_c, 0, 84, 0
2, 236368, Note_on_c, 0, 65, 0
2, 236548, Note_on_c, 0, 58, 49
2, 236576, Note_on_c, 0, 53, 47
2, 236652, Note_on_c, 0, 60, 76
2, 236664, Note_on_c, 0, 91, 79
2, 236668, Note_on_c, 0, 79, 65
2, 236668, Control_c, 0, 64, 72
2, 236684, Control_c, 0, 64, 0
2, 236764, Note_on_c, 0, 91, 0
2, 236776, Control_c, 0, 64, 88
2, 236788, Note_on_c, 0, 79, 0
2, 236792, Control_c, 0, 64, 127
2, 236948, Note_on_c, 0, 88, 84
2, 236960, Note_on_c, 0, 76, 72
2, 237036, Note_on_c, 0, 76, 0
2, 237040, Note_on_c, 0, 88, 0
2, 237104, Note_on_c, 0, 60, 0
2, 237176, Note_on_c, 0, 86, 87
2, 237188, Note_on_c, 0, 74, 64
2, 237252, Note_on_c, 0, 74, 0
2, 237260, Note_on_c, 0, 86, 0
2, 237412, Note_on_c, 0, 58, 0
2, 237420, Note_on_c, 0, 84, 91
2, 237428, Note_on_c, 0, 72, 70
2, 237436, Note_on_c, 0, 60, 72
2, 237440, Note_on_c, 0, 53, 0
2, 237464, Note_on_c, 0, 72, 0
2, 237496, Note_on_c, 0, 84, 0
2, 237532, Note_on_c, 0, 60, 0
2, 237712, Note_on_c, 0, 89, 89
2, 237720, Note_on_c, 0, 77, 68
2, 237732, Note_on_c, 0, 62, 70
2, 237736, Control_c, 0, 64, 88
2, 237740, Note_on_c, 0, 57, 43
2, 237752, Note_on_c, 0, 53, 49
2, 237752, Control_c, 0, 64, 40
2, 237768, Control_c, 0, 64, 0
2, 237908, Note_on_c, 0, 57, 0
2, 237908, Control_c, 0, 64, 72
2, 237924, Control_c, 0, 64, 127
2, 237952, Note_on_c, 0, 62, 0
2, 237964, Note_on_c, 0, 60, 67
2, 238120, Note_on_c, 0, 60, 0
2, 238196, Note_on_c, 0, 77, 0
2, 238196, Note_on_c, 0, 58, 64
2, 238252, Note_on_c, 0, 89, 0
2, 238280, Note_on_c, 0, 58, 0
2, 238308, Note_on_c, 0, 53, 0
2, 238440, Note_on_c, 0, 57, 61
2, 238448, Note_on_c, 0, 89, 81
2, 238460, Note_on_c, 0, 77, 62
2, 238500, Note_on_c, 0, 77, 0
2, 238512, Note_on_c, 0, 57, 0
2, 238532, Note_on_c, 0, 89, 0
2, 238768, Note_on_c, 0, 91, 76
2, 238776, Note_on_c, 0, 58, 42
2, 238792, Control_c, 0, 64, 72
2, 238796, Note_on_c, 0, 79, 55
2, 238800, Note_on_c, 0, 53, 49
2, 238800, Note_on_c, 0, 60, 44
2, 238808, Control_c, 0, 64, 0
2, 238884, Control_c, 0, 64, 24
2, 238896, Note_on_c, 0, 91, 0
2, 238900, Control_c, 0, 64, 88
2, 238916, Note_on_c, 0, 79, 0
2, 238916, Control_c, 0, 64, 127
2, 239032, Note_on_c, 0, 88, 77
2, 239040, Note_on_c, 0, 76, 64
2, 239096, Note_on_c, 0, 88, 0
2, 239104, Note_on_c, 0, 76, 0
2, 239156, Note_on_c, 0, 60, 0
2, 239268, Note_on_c, 0, 86, 72
2, 239280, Note_on_c, 0, 74, 50
2, 239332, Note_on_c, 0, 74, 0
2, 239340, Note_on_c, 0, 86, 0
2, 239456, Note_on_c, 0, 58, 0
2, 239512, Note_on_c, 0, 84, 72
2, 239520, Note_on_c, 0, 60, 61
2, 239520, Note_on_c, 0, 72, 52
2, 239568, Note_on_c, 0, 72, 0
2, 239580, Note_on_c, 0, 53, 0
2, 239612, Note_on_c, 0, 60, 0
2, 239612, Note_on_c, 0, 84, 0
2, 239788, Note_on_c, 0, 89, 76
2, 239796, Note_on_c, 0, 77, 61
2, 239808, Note_on_c, 0, 62, 56
2, 239820, Note_on_c, 0, 57, 37
2, 239832, Note_on_c, 0, 53, 39
2, 239844, Control_c, 0, 64, 72
2, 239860, Control_c, 0, 64, 0
2, 239968, Control_c, 0, 64, 72
2, 239984, Control_c, 0, 64, 127
2, 239992, Note_on_c, 0, 57, 0
2, 240024, Note_on_c, 0, 62, 0
2, 240056, Note_on_c, 0, 60, 54
2, 240208, Note_on_c, 0, 60, 0
2, 240316, Note_on_c, 0, 58, 45
2, 240348, Note_on_c, 0, 89, 0
2, 240356, Note_on_c, 0, 77, 0
2, 240408, Note_on_c, 0, 58, 0
2, 240456, Note_on_c, 0, 53, 0
2, 240588, Note_on_c, 0, 57, 53
2, 240604, Note_on_c, 0, 89, 71
2, 240612, Note_on_c, 0, 77, 58
2, 240660, Note_on_c, 0, 77, 0
2, 240660, Note_on_c, 0, 57, 0
2, 240688, Note_on_c, 0, 89, 0
2, 240896, Note_on_c, 0, 91, 71
2, 240896, Note_on_c, 0, 58, 37
2, 240908, Note_on_c, 0, 79, 44
2, 240920, Control_c, 0, 64, 40
2, 240924, Note_on_c, 0, 60, 35
2, 240928, Note_on_c, 0, 91, 0
2, 240936, Control_c, 0, 64, 72
2, 240940, Note_on_c, 0, 53, 34
2, 240948, Control_c, 0, 64, 88
2, 240952, Note_on_c, 0, 79, 0
2, 240964, Control_c, 0, 64, 127
2, 241080, Note_on_c, 0, 76, 68
2, 241080, Note_on_c, 0, 88, 68
2, 241132, Note_on_c, 0, 88, 0
2, 241144, Note_on_c, 0, 76, 0
2, 241236, Note_on_c, 0, 64, 49
2, 241288, Note_on_c, 0, 64, 0
2, 241296, Note_on_c, 0, 60, 0
2, 241356, Note_on_c, 0, 58, 0
2, 241376, Note_on_c, 0, 84, 66
2, 241388, Note_on_c, 0, 72, 49
2, 241436, Note_on_c, 0, 72, 0
2, 241436, Note_on_c, 0, 84, 0
2, 241468, Note_on_c, 0, 53, 0
2, 241496, Note_on_c, 0, 67, 52
2, 241584, Note_on_c, 0, 67, 0
2, 241668, Note_on_c, 0, 82, 56
2, 241672, Note_on_c, 0, 70, 53
2, 241712, Note_on_c, 0, 70, 0
2, 241724, Note_on_c, 0, 82, 0
2, 241796, Note_on_c, 0, 64, 51
2, 241852, Note_on_c, 0, 64, 0
2, 241928, Note_on_c, 0, 79, 69
2, 241936, Note_on_c, 0, 67, 50
2, 242008, Note_on_c, 0, 79, 0
2, 242036, Note_on_c, 0, 67, 0
2, 242092, Note_on_c, 0, 60, 54
2, 242096, Control_c, 0, 64, 104
2, 242108, Control_c, 0, 64, 56
2, 242120, Control_c, 0, 64, 24
2, 242136, Control_c, 0, 64, 0
2, 242184, Control_c, 0, 64, 72
2, 242196, Control_c, 0, 64, 104
2, 242212, Control_c, 0, 64, 127
2, 242232, Note_on_c, 0, 76, 65
2, 242260, Note_on_c, 0, 64, 38
2, 242300, Note_on_c, 0, 76, 0
2, 242316, Note_on_c, 0, 64, 0
2, 242328, Note_on_c, 0, 60, 0
2, 242388, Note_on_c, 0, 58, 51
2, 242540, Note_on_c, 0, 72, 68
2, 242552, Note_on_c, 0, 60, 44
2, 242604, Note_on_c, 0, 72, 0
2, 242620, Note_on_c, 0, 60, 0
2, 242628, Note_on_c, 0, 58, 0
2, 242684, Note_on_c, 0, 55, 52
2, 242832, Note_on_c, 0, 70, 64
2, 242836, Note_on_c, 0, 58, 47
2, 242900, Note_on_c, 0, 70, 0
2, 242904, Note_on_c, 0, 58, 0
2, 242908, Note_on_c, 0, 55, 0
2, 242996, Note_on_c, 0, 52, 46
2, 243024, Note_on_c, 0, 52, 0
2, 243120, Note_on_c, 0, 67, 66
2, 243136, Note_on_c, 0, 55, 47
2, 243220, Control_c, 0, 64, 104
2, 243236, Control_c, 0, 64, 56
2, 243252, Control_c, 0, 64, 0
2, 243296, Note_on_c, 0, 48, 51
2, 243296, Note_on_c, 0, 41, 55
2, 243320, Note_on_c, 0, 55, 0
2, 243324, Note_on_c, 0, 67, 0
2, 243352, Control_c, 0, 64, 56
2, 243368, Control_c, 0, 64, 88
2, 243384, Control_c, 0, 64, 104
2, 243400, Control_c, 0, 64, 127
2, 243460, Control_c, 0, 64, 104
2, 243460, Note_on_c, 0, 65, 64
2, 243468, Note_on_c, 0, 53, 54
2, 243472, Control_c, 0, 64, 88
2, 243508, Note_on_c, 0, 48, 0
2, 243516, Control_c, 0, 64, 104
2, 243532, Note_on_c, 0, 53, 0
2, 243532, Control_c, 0, 64, 127
2, 243592, Note_on_c, 0, 65, 0
2, 243612, Note_on_c, 0, 57, 49
2, 243656, Note_on_c, 0, 41, 0
2, 243764, Note_on_c, 0, 67, 56
2, 243788, Note_on_c, 0, 55, 40
2, 243868, Note_on_c, 0, 57, 0
2, 243904, Control_c, 0, 64, 72
2, 243916, Control_c, 0, 64, 56
2, 243924, Note_on_c, 0, 41, 45
2, 243936, Note_on_c, 0, 48, 57
2, 243964, Control_c, 0, 64, 72
2, 243968, Note_on_c, 0, 55, 0
2, 243968, Note_on_c, 0, 67, 0
2, 243976, Control_c, 0, 64, 104
2, 243992, Control_c, 0, 64, 127
2, 244096, Note_on_c, 0, 65, 55
2, 244104, Note_on_c, 0, 53, 39
2, 244156, Note_on_c, 0, 48, 0
2, 244164, Note_on_c, 0, 53, 0
2, 244204, Note_on_c, 0, 65, 0
2, 244252, Note_on_c, 0, 57, 45
2, 244256, Note_on_c, 0, 41, 0
2, 244428, Note_on_c, 0, 67, 56
2, 244436, Note_on_c, 0, 57, 0
2, 244452, Note_on_c, 0, 55, 36
2, 244540, Control_c, 0, 64, 88
2, 244556, Control_c, 0, 64, 56
2, 244572, Control_c, 0, 64, 40
2, 244592, Note_on_c, 0, 41, 46
2, 244596, Note_on_c, 0, 48, 55
2, 244616, Control_c, 0, 64, 88
2, 244632, Note_on_c, 0, 67, 0
2, 244632, Control_c, 0, 64, 127
2, 244648, Note_on_c, 0, 55, 0
2, 244784, Note_on_c, 0, 65, 46
2, 244788, Note_on_c, 0, 53, 38
2, 244840, Note_on_c, 0, 53, 0
2, 244892, Note_on_c, 0, 65, 0
2, 244904, Note_on_c, 0, 48, 0
2, 244968, Note_on_c, 0, 57, 42
2, 245068, Note_on_c, 0, 41, 0
2, 245148, Note_on_c, 0, 57, 0
2, 245168, Note_on_c, 0, 67, 45
2, 245184, Note_on_c, 0, 55, 34
2, 245328, Control_c, 0, 64, 72
2, 245344, Control_c, 0, 64, 40
2, 245356, Control_c, 0, 64, 24
2, 245364, Note_on_c, 0, 41, 40
2, 245368, Note_on_c, 0, 48, 44
2, 245400, Note_on_c, 0, 67, 0
2, 245404, Note_on_c, 0, 55, 0
2, 245404, Control_c, 0, 64, 56
2, 245416, Control_c, 0, 64, 88
2, 245432, Control_c, 0, 64, 127
2, 245568, Note_on_c, 0, 65, 49
2, 245588, Note_on_c, 0, 53, 34
2, 245736, Note_on_c, 0, 65, 0
2, 245748, Note_on_c, 0, 53, 0
2, 245792, Note_on_c, 0, 48, 0
2, 245804, Note_on_c, 0, 57, 42
2, 245980, Note_on_c, 0, 41, 0
2, 246060, Note_on_c, 0, 64, 53
2, 246068, Note_on_c, 0, 52, 37
2, 246132, Note_on_c, 0, 52, 0
2, 246168, Note_on_c, 0, 64, 0
2, 246436, Note_on_c, 0, 65, 42
2, 246448, Note_on_c, 0, 53, 36
2, 246468, Note_on_c, 0, 48, 38
2, 246468, Note_on_c, 0, 41, 34
2, 246576, Control_c, 0, 64, 104
2, 246588, Control_c, 0, 64, 88
2, 246604, Control_c, 0, 64, 56
2, 246620, Control_c, 0, 64, 24
2, 246632, Control_c, 0, 64, 0
2, 246828, Control_c, 0, 64, 40
2, 246844, Control_c, 0, 64, 104
2, 246856, Control_c, 0, 64, 127
2, 247016, Note_on_c, 0, 53, 0
2, 247144, Note_on_c, 0, 65, 0
2, 247152, Note_on_c, 0, 41, 0
2, 247188, Note_on_c, 0, 57, 0
2, 247200, Note_on_c, 0, 48, 0
2, 247956, Note_on_c, 0, 81, 48
2, 247980, Note_on_c, 0, 69, 31
2, 247980, Note_on_c, 0, 65, 30
2, 247980, Note_on_c, 0, 72, 47
2, 247988, Note_on_c, 0, 53, 32
2, 247992, Note_on_c, 0, 60, 35
2, 248060, Control_c, 0, 64, 104
2, 248072, Control_c, 0, 64, 72
2, 248088, Control_c, 0, 64, 24
2, 248104, Control_c, 0, 64, 0
2, 248176, Control_c, 0, 64, 56
2, 248192, Control_c, 0, 64, 127
2, 248408, Note_on_c, 0, 53, 0
2, 248420, Note_on_c, 0, 60, 0
2, 248436, Note_on_c, 0, 65, 0
2, 248436, Note_on_c, 0, 72, 0
2, 248436, Note_on_c, 0, 69, 0
2, 248440, Note_on_c, 0, 81, 0
2, 249468, Control_c, 0, 64, 104
2, 249484, Control_c, 0, 64, 88
2, 249588, Control_c, 0, 64, 56
2, 249616, Control_c, 0, 64, 40
2, 249632, Control_c, 0, 64, 24
2, 249648, Control_c, 0, 64, 0
2, 249648, End_track
3, 0, Start_track
3, 0, Title_t, "P. Tchaikovsky"
3, 0, End_track
4, 0, Start_track
4, 0, Title_t, "Robert Finley"
4, 0, End_track
5, 0, Start_track
5, 0, Title_t, "Copyright 1997"
5, 0, End_track
0, 0, End_of_file
