0, 0, Header, 1, 5, 480
1, 0, Start_track
1, 0, Title_t, "tchaikovsky symphony no4 mv2"
1, 0, Copyright_t, "Adaptation for Disklavier pianos, by: Robert C. Kuhmann (c) 2012."
1, 0, Text_t, "Seq. (c) by: Segundo G. Yogore,  2007,  dody@pldtdsl.net\012"
1, 0, Time_signature, 2, 2, 24, 8
1, 0, Key_signature, -5, "major"
1, 0, Tempo, 705882
1, 120000, Key_signature, -1, "major"
1, 120000, Tempo, 571429
1, 188400, Tempo, 606061
1, 188640, Tempo, 645161
1, 188880, Tempo, 689655
1, 189120, Tempo, 759494
1, 189360, Tempo, 821918
1, 189600, Tempo, 895522
1, 189840, Tempo, 983607
1, 190080, Key_signature, -5, "major"
1, 190080, Tempo, 779221
1, 191040, Tempo, 705882
1, 289200, Tempo, 759494
1, 289440, Tempo, 821918
1, 289680, Tempo, 895522
1, 289920, Tempo, 1016949
1, 290160, Tempo, 1132075
1, 290400, Tempo, 1276596
1, 290640, Tempo, 1463415
1, 290880, Time_signature, 6, 2, 24, 8
1, 290880, End_track
2, 0, Start_track
2, 0, Title_t, "Grand Piano"
2, 0, Program_c, 0, 0
2, 0, Control_c, 0, 7, 115
2, 0, Control_c, 0, 10, 86
2, 240, Note_on_c, 0, 73, 62
2, 480, Note_on_c, 0, 73, 0
2, 480, Note_on_c, 0, 72, 62
2, 720, Note_on_c, 0, 72, 0
2, 720, Note_on_c, 0, 70, 62
2, 960, Note_on_c, 0, 70, 0
2, 960, Note_on_c, 0, 69, 62
2, 1200, Note_on_c, 0, 69, 0
2, 1200, Note_on_c, 0, 70, 62
2, 1440, Note_on_c, 0, 70, 0
2, 1440, Note_on_c, 0, 77, 62
2, 1487, Note_on_c, 0, 77, 0
2, 1680, Note_on_c, 0, 77, 62
2, 1920, Note_on_c, 0, 77, 0
2, 1920, Note_on_c, 0, 72, 62
2, 2160, Note_on_c, 0, 72, 0
2, 2160, Note_on_c, 0, 75, 62
2, 2400, Note_on_c, 0, 75, 0
2, 2400, Note_on_c, 0, 73, 62
2, 2640, Note_on_c, 0, 73, 0
2, 2640, Note_on_c, 0, 72, 62
2, 2880, Note_on_c, 0, 72, 0
2, 2880, Note_on_c, 0, 69, 62
2, 3120, Note_on_c, 0, 69, 0
2, 3120, Note_on_c, 0, 70, 62
2, 3360, Note_on_c, 0, 70, 0
2, 3360, Note_on_c, 0, 72, 62
2, 3407, Note_on_c, 0, 72, 0
2, 3600, Note_on_c, 0, 72, 62
2, 3840, Note_on_c, 0, 72, 0
2, 3840, Note_on_c, 0, 65, 62
2, 4080, Note_on_c, 0, 65, 0
2, 4080, Note_on_c, 0, 65, 62
2, 4320, Note_on_c, 0, 65, 0
2, 4320, Note_on_c, 0, 67, 62
2, 4560, Note_on_c, 0, 67, 0
2, 4560, Note_on_c, 0, 69, 62
2, 4800, Note_on_c, 0, 69, 0
2, 4800, Note_on_c, 0, 70, 75
2, 5040, Note_on_c, 0, 70, 0
2, 5040, Note_on_c, 0, 72, 75
2, 5280, Note_on_c, 0, 72, 0
2, 5280, Note_on_c, 0, 73, 75
2, 5327, Note_on_c, 0, 73, 0
2, 5520, Note_on_c, 0, 77, 75
2, 5760, Note_on_c, 0, 77, 0
2, 5760, Note_on_c, 0, 75, 75
2, 6000, Note_on_c, 0, 75, 0
2, 6000, Note_on_c, 0, 73, 75
2, 6240, Note_on_c, 0, 73, 0
2, 6240, Note_on_c, 0, 72, 62
2, 6480, Note_on_c, 0, 72, 0
2, 6480, Note_on_c, 0, 70, 62
2, 6527, Note_on_c, 0, 70, 0
2, 6720, Note_on_c, 0, 69, 62
2, 6960, Note_on_c, 0, 69, 0
2, 6960, Note_on_c, 0, 65, 62
2, 7200, Note_on_c, 0, 70, 62
2, 7440, Note_on_c, 0, 70, 0
2, 7440, Note_on_c, 0, 65, 0
2, 7440, Note_on_c, 0, 67, 62
2, 7680, Note_on_c, 0, 67, 0
2, 7680, Note_on_c, 0, 69, 62
2, 7920, Note_on_c, 0, 69, 0
2, 7920, Note_on_c, 0, 73, 62
2, 8160, Note_on_c, 0, 73, 0
2, 8160, Note_on_c, 0, 72, 62
2, 8400, Note_on_c, 0, 72, 0
2, 8400, Note_on_c, 0, 70, 62
2, 8640, Note_on_c, 0, 70, 0
2, 8640, Note_on_c, 0, 69, 62
2, 8880, Note_on_c, 0, 69, 0
2, 8880, Note_on_c, 0, 70, 62
2, 9120, Note_on_c, 0, 70, 0
2, 9120, Note_on_c, 0, 77, 62
2, 9167, Note_on_c, 0, 77, 0
2, 9360, Note_on_c, 0, 77, 62
2, 9600, Note_on_c, 0, 77, 0
2, 9600, Note_on_c, 0, 72, 62
2, 9840, Note_on_c, 0, 72, 0
2, 9840, Note_on_c, 0, 75, 62
2, 10080, Note_on_c, 0, 75, 0
2, 10080, Note_on_c, 0, 73, 62
2, 10320, Note_on_c, 0, 73, 0
2, 10320, Note_on_c, 0, 72, 62
2, 10560, Note_on_c, 0, 72, 0
2, 10560, Note_on_c, 0, 69, 62
2, 10800, Note_on_c, 0, 69, 0
2, 10800, Note_on_c, 0, 70, 62
2, 11040, Note_on_c, 0, 70, 0
2, 11040, Note_on_c, 0, 72, 62
2, 11087, Note_on_c, 0, 72, 0
2, 11280, Note_on_c, 0, 72, 62
2, 11520, Note_on_c, 0, 72, 0
2, 11520, Note_on_c, 0, 65, 62
2, 11760, Note_on_c, 0, 65, 0
2, 11760, Note_on_c, 0, 65, 62
2, 12000, Note_on_c, 0, 65, 0
2, 12000, Note_on_c, 0, 67, 62
2, 12240, Note_on_c, 0, 67, 0
2, 12240, Note_on_c, 0, 69, 62
2, 12480, Note_on_c, 0, 69, 0
2, 12480, Note_on_c, 0, 72, 62
2, 12720, Note_on_c, 0, 72, 0
2, 12720, Note_on_c, 0, 70, 62
2, 12960, Note_on_c, 0, 70, 0
2, 12960, Note_on_c, 0, 77, 62
2, 13007, Note_on_c, 0, 77, 0
2, 13200, Note_on_c, 0, 77, 75
2, 13247, Note_on_c, 0, 77, 0
2, 13440, Control_c, 0, 64, 127
2, 13440, Note_on_c, 0, 77, 75
2, 13680, Note_on_c, 0, 77, 0
2, 13680, Note_on_c, 0, 75, 75
2, 13920, Note_on_c, 0, 75, 0
2, 13920, Note_on_c, 0, 73, 62
2, 14160, Note_on_c, 0, 73, 0
2, 14160, Control_c, 0, 64, 0
2, 14160, Note_on_c, 0, 72, 62
2, 14400, Note_on_c, 0, 72, 0
2, 14400, Note_on_c, 0, 70, 62
2, 14640, Note_on_c, 0, 70, 0
2, 14640, Note_on_c, 0, 68, 62
2, 14880, Note_on_c, 0, 68, 0
2, 14880, Note_on_c, 0, 75, 62
2, 14927, Note_on_c, 0, 75, 0
2, 15120, Note_on_c, 0, 75, 75
2, 15167, Note_on_c, 0, 75, 0
2, 15360, Control_c, 0, 64, 127
2, 15360, Note_on_c, 0, 75, 75
2, 15600, Note_on_c, 0, 75, 0
2, 15600, Note_on_c, 0, 73, 75
2, 15840, Note_on_c, 0, 73, 0
2, 15840, Note_on_c, 0, 72, 62
2, 16080, Note_on_c, 0, 72, 0
2, 16080, Control_c, 0, 64, 0
2, 16080, Note_on_c, 0, 70, 62
2, 16320, Note_on_c, 0, 70, 0
2, 16320, Note_on_c, 0, 68, 62
2, 16560, Note_on_c, 0, 68, 0
2, 16560, Note_on_c, 0, 66, 62
2, 16800, Note_on_c, 0, 66, 0
2, 16800, Note_on_c, 0, 73, 62
2, 16847, Note_on_c, 0, 73, 0
2, 17040, Note_on_c, 0, 73, 75
2, 17087, Note_on_c, 0, 73, 0
2, 17200, Note_on_c, 0, 63, 75
2, 17240, Note_on_c, 0, 66, 75
2, 17280, Control_c, 0, 64, 127
2, 17280, Note_on_c, 0, 73, 75
2, 17520, Note_on_c, 0, 73, 0
2, 17520, Note_on_c, 0, 66, 0
2, 17520, Note_on_c, 0, 63, 0
2, 17520, Note_on_c, 0, 72, 75
2, 17760, Note_on_c, 0, 72, 0
2, 17760, Note_on_c, 0, 73, 62
2, 18000, Note_on_c, 0, 73, 0
2, 18000, Control_c, 0, 64, 0
2, 18000, Note_on_c, 0, 75, 62
2, 18240, Note_on_c, 0, 75, 0
2, 18240, Control_c, 0, 64, 127
2, 18240, Note_on_c, 0, 77, 62
2, 18480, Note_on_c, 0, 77, 0
2, 18480, Note_on_c, 0, 75, 62
2, 18720, Note_on_c, 0, 75, 0
2, 18720, Note_on_c, 0, 73, 62
2, 18960, Note_on_c, 0, 73, 0
2, 18960, Control_c, 0, 64, 0
2, 18960, Note_on_c, 0, 72, 62
2, 19200, Note_on_c, 0, 72, 0
2, 19200, Note_on_c, 0, 70, 62
2, 19440, Note_on_c, 0, 70, 0
2, 20160, Control_c, 0, 64, 127
2, 20160, Note_on_c, 0, 65, 49
2, 20640, Note_on_c, 0, 65, 0
2, 20640, Note_on_c, 0, 67, 49
2, 21120, Note_on_c, 0, 67, 0
2, 21120, Note_on_c, 0, 69, 62
2, 21600, Note_on_c, 0, 69, 0
2, 21600, Note_on_c, 0, 70, 62
2, 21840, Note_on_c, 0, 70, 0
2, 21840, Control_c, 0, 64, 0
2, 21840, Note_on_c, 0, 72, 62
2, 22080, Note_on_c, 0, 72, 0
2, 22080, Note_on_c, 0, 73, 62
2, 22560, Note_on_c, 0, 73, 0
2, 22560, Note_on_c, 0, 70, 49
2, 22560, Note_on_c, 0, 72, 49
2, 23040, Note_on_c, 0, 70, 0
2, 23040, Note_on_c, 0, 69, 49
2, 23280, Note_on_c, 0, 69, 0
2, 23280, Note_on_c, 0, 72, 0
2, 24000, Note_on_c, 0, 70, 62
2, 24960, Note_on_c, 0, 70, 0
2, 24960, Note_on_c, 0, 70, 62
2, 25920, Note_on_c, 0, 70, 0
2, 25920, Note_on_c, 0, 60, 49
2, 25920, Note_on_c, 0, 65, 49
2, 26400, Note_on_c, 0, 65, 0
2, 26400, Note_on_c, 0, 60, 0
2, 26400, Note_on_c, 0, 61, 75
2, 26400, Note_on_c, 0, 65, 75
2, 26880, Note_on_c, 0, 61, 0
2, 26880, Note_on_c, 0, 60, 49
2, 27120, Note_on_c, 0, 60, 0
2, 27120, Note_on_c, 0, 65, 0
2, 27120, Note_on_c, 0, 61, 62
2, 27360, Note_on_c, 0, 61, 0
2, 27360, Note_on_c, 0, 60, 62
2, 27600, Note_on_c, 0, 60, 0
2, 27600, Note_on_c, 0, 58, 62
2, 27840, Note_on_c, 0, 58, 0
2, 27840, Control_c, 0, 64, 127
2, 27840, Note_on_c, 0, 65, 49
2, 28320, Note_on_c, 0, 65, 0
2, 28320, Note_on_c, 0, 67, 49
2, 28800, Note_on_c, 0, 67, 0
2, 28800, Note_on_c, 0, 69, 62
2, 29280, Note_on_c, 0, 69, 0
2, 29280, Note_on_c, 0, 70, 62
2, 29520, Note_on_c, 0, 70, 0
2, 29520, Control_c, 0, 64, 0
2, 29520, Note_on_c, 0, 72, 62
2, 29760, Note_on_c, 0, 72, 0
2, 29760, Note_on_c, 0, 73, 62
2, 30240, Note_on_c, 0, 73, 0
2, 30240, Note_on_c, 0, 70, 49
2, 30240, Note_on_c, 0, 72, 49
2, 30720, Note_on_c, 0, 70, 0
2, 30720, Note_on_c, 0, 69, 49
2, 30960, Note_on_c, 0, 69, 0
2, 30960, Note_on_c, 0, 72, 0
2, 31920, Note_on_c, 0, 73, 49
2, 32160, Note_on_c, 0, 73, 0
2, 32160, Note_on_c, 0, 72, 62
2, 32400, Note_on_c, 0, 72, 0
2, 32400, Note_on_c, 0, 70, 62
2, 32640, Note_on_c, 0, 70, 0
2, 32640, Note_on_c, 0, 70, 62
2, 33120, Note_on_c, 0, 70, 0
2, 33120, Note_on_c, 0, 75, 62
2, 33840, Note_on_c, 0, 75, 0
2, 33840, Note_on_c, 0, 75, 62
2, 34080, Note_on_c, 0, 75, 0
2, 34080, Note_on_c, 0, 72, 62
2, 34320, Note_on_c, 0, 72, 0
2, 34320, Note_on_c, 0, 68, 62
2, 34560, Note_on_c, 0, 68, 0
2, 34560, Note_on_c, 0, 68, 62
2, 35040, Note_on_c, 0, 68, 0
2, 35040, Note_on_c, 0, 73, 62
2, 35760, Note_on_c, 0, 73, 0
2, 35760, Note_on_c, 0, 73, 62
2, 36000, Note_on_c, 0, 73, 0
2, 36000, Note_on_c, 0, 70, 62
2, 36240, Note_on_c, 0, 70, 0
2, 36240, Note_on_c, 0, 66, 62
2, 36480, Note_on_c, 0, 66, 0
2, 36480, Note_on_c, 0, 66, 62
2, 36960, Note_on_c, 0, 66, 0
2, 36960, Note_on_c, 0, 70, 62
2, 37440, Note_on_c, 0, 70, 0
2, 37440, Note_on_c, 0, 69, 62
2, 38400, Note_on_c, 0, 69, 0
2, 38400, Note_on_c, 0, 61, 62
2, 38400, Note_on_c, 0, 70, 62
2, 38640, Note_on_c, 0, 70, 0
2, 38640, Note_on_c, 0, 61, 0
2, 38640, Note_on_c, 0, 58, 75
2, 38640, Note_on_c, 0, 70, 75
2, 38880, Note_on_c, 0, 70, 0
2, 38880, Note_on_c, 0, 58, 0
2, 38880, Note_on_c, 0, 60, 75
2, 38880, Note_on_c, 0, 72, 75
2, 39120, Note_on_c, 0, 72, 0
2, 39120, Note_on_c, 0, 60, 0
2, 39120, Note_on_c, 0, 61, 75
2, 39120, Note_on_c, 0, 73, 75
2, 39360, Note_on_c, 0, 73, 0
2, 39360, Note_on_c, 0, 61, 0
2, 39360, Note_on_c, 0, 63, 101
2, 39360, Note_on_c, 0, 68, 101
2, 39360, Note_on_c, 0, 72, 101
2, 39360, Note_on_c, 0, 75, 101
2, 39840, Note_on_c, 0, 75, 0
2, 39840, Note_on_c, 0, 63, 0
2, 39840, Note_on_c, 0, 68, 0
2, 39840, Note_on_c, 0, 72, 0
2, 39840, Note_on_c, 0, 63, 101
2, 39840, Note_on_c, 0, 68, 101
2, 39840, Note_on_c, 0, 72, 101
2, 39840, Note_on_c, 0, 75, 101
2, 40320, Note_on_c, 0, 75, 0
2, 40320, Note_on_c, 0, 63, 0
2, 40320, Note_on_c, 0, 68, 0
2, 40320, Note_on_c, 0, 72, 0
2, 40320, Note_on_c, 0, 63, 101
2, 40320, Note_on_c, 0, 68, 101
2, 40320, Note_on_c, 0, 72, 101
2, 40320, Note_on_c, 0, 75, 101
2, 40560, Note_on_c, 0, 75, 0
2, 40560, Note_on_c, 0, 63, 0
2, 40560, Note_on_c, 0, 68, 0
2, 40560, Note_on_c, 0, 72, 0
2, 40560, Note_on_c, 0, 63, 75
2, 40560, Note_on_c, 0, 75, 75
2, 40800, Note_on_c, 0, 75, 0
2, 40800, Note_on_c, 0, 63, 0
2, 40800, Note_on_c, 0, 73, 75
2, 41040, Note_on_c, 0, 73, 0
2, 41040, Note_on_c, 0, 72, 75
2, 41280, Note_on_c, 0, 72, 0
2, 41280, Note_on_c, 0, 70, 114
2, 41280, Note_on_c, 0, 73, 114
2, 41280, Note_on_c, 0, 82, 114
2, 41520, Note_on_c, 0, 82, 0
2, 41520, Note_on_c, 0, 73, 0
2, 41520, Note_on_c, 0, 70, 0
2, 41520, Note_on_c, 0, 68, 88
2, 41520, Note_on_c, 0, 80, 88
2, 41640, Note_on_c, 0, 80, 0
2, 41640, Note_on_c, 0, 68, 0
2, 41640, Note_on_c, 0, 66, 75
2, 41640, Note_on_c, 0, 78, 75
2, 41760, Note_on_c, 0, 78, 0
2, 41760, Note_on_c, 0, 66, 0
2, 41760, Note_on_c, 0, 65, 75
2, 41760, Note_on_c, 0, 77, 75
2, 42000, Note_on_c, 0, 77, 0
2, 42000, Note_on_c, 0, 65, 0
2, 42000, Note_on_c, 0, 75, 75
2, 42120, Note_on_c, 0, 75, 0
2, 42120, Note_on_c, 0, 73, 75
2, 42240, Note_on_c, 0, 73, 0
2, 42240, Note_on_c, 0, 72, 75
2, 42480, Note_on_c, 0, 72, 0
2, 42480, Note_on_c, 0, 70, 75
2, 42720, Note_on_c, 0, 70, 0
2, 42720, Note_on_c, 0, 72, 75
2, 42960, Note_on_c, 0, 72, 0
2, 42960, Note_on_c, 0, 73, 75
2, 43200, Note_on_c, 0, 73, 0
2, 43200, Note_on_c, 0, 63, 101
2, 43200, Note_on_c, 0, 68, 101
2, 43200, Note_on_c, 0, 72, 101
2, 43200, Note_on_c, 0, 75, 101
2, 43680, Note_on_c, 0, 75, 0
2, 43680, Note_on_c, 0, 63, 0
2, 43680, Note_on_c, 0, 68, 0
2, 43680, Note_on_c, 0, 72, 0
2, 43680, Note_on_c, 0, 63, 101
2, 43680, Note_on_c, 0, 68, 101
2, 43680, Note_on_c, 0, 72, 101
2, 43680, Note_on_c, 0, 75, 101
2, 44160, Note_on_c, 0, 75, 0
2, 44160, Note_on_c, 0, 63, 0
2, 44160, Note_on_c, 0, 68, 0
2, 44160, Note_on_c, 0, 72, 0
2, 44160, Note_on_c, 0, 63, 101
2, 44160, Note_on_c, 0, 68, 101
2, 44160, Note_on_c, 0, 72, 101
2, 44160, Note_on_c, 0, 75, 101
2, 44400, Note_on_c, 0, 75, 0
2, 44400, Note_on_c, 0, 63, 0
2, 44400, Note_on_c, 0, 68, 0
2, 44400, Note_on_c, 0, 72, 0
2, 44400, Note_on_c, 0, 63, 75
2, 44400, Note_on_c, 0, 75, 75
2, 44640, Note_on_c, 0, 75, 0
2, 44640, Note_on_c, 0, 63, 0
2, 44640, Note_on_c, 0, 61, 75
2, 44640, Note_on_c, 0, 73, 75
2, 44880, Note_on_c, 0, 73, 0
2, 44880, Note_on_c, 0, 61, 0
2, 44880, Note_on_c, 0, 60, 75
2, 44880, Note_on_c, 0, 72, 75
2, 45120, Note_on_c, 0, 72, 0
2, 45120, Note_on_c, 0, 60, 0
2, 45120, Note_on_c, 0, 58, 101
2, 45120, Note_on_c, 0, 63, 101
2, 45120, Note_on_c, 0, 66, 101
2, 45120, Note_on_c, 0, 70, 101
2, 45360, Note_on_c, 0, 70, 0
2, 45360, Note_on_c, 0, 58, 0
2, 45360, Note_on_c, 0, 63, 0
2, 45360, Note_on_c, 0, 66, 0
2, 45360, Note_on_c, 0, 68, 75
2, 45480, Note_on_c, 0, 68, 0
2, 45480, Note_on_c, 0, 66, 75
2, 45600, Note_on_c, 0, 66, 0
2, 45600, Note_on_c, 0, 65, 75
2, 45840, Note_on_c, 0, 65, 0
2, 45840, Note_on_c, 0, 63, 75
2, 45960, Note_on_c, 0, 63, 0
2, 45960, Note_on_c, 0, 65, 75
2, 46080, Note_on_c, 0, 65, 0
2, 46080, Note_on_c, 0, 66, 75
2, 46320, Note_on_c, 0, 66, 0
2, 46320, Note_on_c, 0, 68, 75
2, 46440, Note_on_c, 0, 68, 0
2, 46440, Note_on_c, 0, 70, 75
2, 46560, Note_on_c, 0, 70, 0
2, 46560, Note_on_c, 0, 60, 75
2, 46560, Note_on_c, 0, 72, 75
2, 46800, Note_on_c, 0, 72, 0
2, 46800, Note_on_c, 0, 60, 0
2, 46800, Note_on_c, 0, 61, 75
2, 46800, Note_on_c, 0, 73, 75
2, 46847, Note_on_c, 0, 73, 0
2, 46847, Note_on_c, 0, 61, 0
2, 47040, Note_on_c, 0, 63, 101
2, 47040, Note_on_c, 0, 68, 101
2, 47040, Note_on_c, 0, 72, 101
2, 47040, Note_on_c, 0, 75, 101
2, 47520, Note_on_c, 0, 75, 0
2, 47520, Note_on_c, 0, 63, 0
2, 47520, Note_on_c, 0, 68, 0
2, 47520, Note_on_c, 0, 72, 0
2, 47520, Note_on_c, 0, 63, 101
2, 47520, Note_on_c, 0, 68, 101
2, 47520, Note_on_c, 0, 72, 101
2, 47520, Note_on_c, 0, 75, 101
2, 48000, Note_on_c, 0, 75, 0
2, 48000, Note_on_c, 0, 63, 0
2, 48000, Note_on_c, 0, 68, 0
2, 48000, Note_on_c, 0, 72, 0
2, 48000, Note_on_c, 0, 63, 101
2, 48000, Note_on_c, 0, 68, 101
2, 48000, Note_on_c, 0, 72, 101
2, 48000, Note_on_c, 0, 75, 101
2, 48240, Note_on_c, 0, 75, 0
2, 48240, Note_on_c, 0, 63, 0
2, 48240, Note_on_c, 0, 68, 0
2, 48240, Note_on_c, 0, 72, 0
2, 48240, Note_on_c, 0, 63, 75
2, 48240, Note_on_c, 0, 75, 75
2, 48480, Note_on_c, 0, 75, 0
2, 48480, Note_on_c, 0, 63, 0
2, 48480, Note_on_c, 0, 73, 75
2, 48720, Note_on_c, 0, 73, 0
2, 48720, Note_on_c, 0, 72, 75
2, 48960, Note_on_c, 0, 72, 0
2, 48960, Note_on_c, 0, 70, 114
2, 48960, Note_on_c, 0, 73, 114
2, 48960, Note_on_c, 0, 82, 114
2, 49200, Note_on_c, 0, 82, 0
2, 49200, Note_on_c, 0, 73, 0
2, 49200, Note_on_c, 0, 70, 0
2, 49200, Note_on_c, 0, 68, 88
2, 49200, Note_on_c, 0, 80, 88
2, 49320, Note_on_c, 0, 80, 0
2, 49320, Note_on_c, 0, 68, 0
2, 49320, Note_on_c, 0, 66, 75
2, 49320, Note_on_c, 0, 78, 75
2, 49440, Note_on_c, 0, 78, 0
2, 49440, Note_on_c, 0, 66, 0
2, 49440, Note_on_c, 0, 65, 75
2, 49440, Note_on_c, 0, 77, 75
2, 49680, Note_on_c, 0, 77, 0
2, 49680, Note_on_c, 0, 65, 0
2, 49680, Note_on_c, 0, 75, 75
2, 49800, Note_on_c, 0, 75, 0
2, 49800, Note_on_c, 0, 73, 75
2, 49920, Note_on_c, 0, 73, 0
2, 49920, Note_on_c, 0, 72, 75
2, 50160, Note_on_c, 0, 72, 0
2, 50160, Note_on_c, 0, 70, 75
2, 50400, Note_on_c, 0, 70, 0
2, 50400, Note_on_c, 0, 72, 75
2, 50640, Note_on_c, 0, 72, 0
2, 50640, Note_on_c, 0, 73, 75
2, 50880, Note_on_c, 0, 73, 0
2, 50880, Note_on_c, 0, 63, 101
2, 50880, Note_on_c, 0, 68, 101
2, 50880, Note_on_c, 0, 72, 101
2, 50880, Note_on_c, 0, 75, 101
2, 51360, Note_on_c, 0, 75, 0
2, 51360, Note_on_c, 0, 63, 0
2, 51360, Note_on_c, 0, 68, 0
2, 51360, Note_on_c, 0, 72, 0
2, 51360, Note_on_c, 0, 63, 101
2, 51360, Note_on_c, 0, 68, 101
2, 51360, Note_on_c, 0, 72, 101
2, 51360, Note_on_c, 0, 75, 101
2, 51840, Note_on_c, 0, 75, 0
2, 51840, Note_on_c, 0, 63, 0
2, 51840, Note_on_c, 0, 68, 0
2, 51840, Note_on_c, 0, 72, 0
2, 51840, Note_on_c, 0, 63, 101
2, 51840, Note_on_c, 0, 68, 101
2, 51840, Note_on_c, 0, 72, 101
2, 51840, Note_on_c, 0, 75, 101
2, 52080, Note_on_c, 0, 75, 0
2, 52080, Note_on_c, 0, 63, 0
2, 52080, Note_on_c, 0, 68, 0
2, 52080, Note_on_c, 0, 72, 0
2, 52080, Note_on_c, 0, 72, 75
2, 52200, Note_on_c, 0, 72, 0
2, 52200, Note_on_c, 0, 73, 75
2, 52320, Note_on_c, 0, 73, 0
2, 52320, Note_on_c, 0, 63, 75
2, 52320, Note_on_c, 0, 75, 75
2, 52560, Note_on_c, 0, 75, 0
2, 52560, Note_on_c, 0, 63, 0
2, 52560, Note_on_c, 0, 65, 75
2, 52560, Note_on_c, 0, 77, 75
2, 52607, Note_on_c, 0, 77, 0
2, 52607, Note_on_c, 0, 65, 0
2, 52800, Note_on_c, 0, 66, 101
2, 52800, Note_on_c, 0, 69, 101
2, 52800, Note_on_c, 0, 74, 101
2, 52800, Note_on_c, 0, 78, 101
2, 53280, Note_on_c, 0, 78, 0
2, 53280, Note_on_c, 0, 66, 0
2, 53280, Note_on_c, 0, 69, 0
2, 53280, Note_on_c, 0, 74, 0
2, 53280, Note_on_c, 0, 66, 101
2, 53280, Note_on_c, 0, 69, 101
2, 53280, Note_on_c, 0, 74, 101
2, 53280, Note_on_c, 0, 78, 101
2, 53760, Note_on_c, 0, 78, 0
2, 53760, Note_on_c, 0, 66, 0
2, 53760, Note_on_c, 0, 69, 0
2, 53760, Note_on_c, 0, 74, 0
2, 53760, Note_on_c, 0, 66, 101
2, 53760, Note_on_c, 0, 69, 101
2, 53760, Note_on_c, 0, 74, 101
2, 53760, Note_on_c, 0, 78, 101
2, 54000, Note_on_c, 0, 78, 0
2, 54000, Note_on_c, 0, 66, 0
2, 54000, Note_on_c, 0, 69, 0
2, 54000, Note_on_c, 0, 74, 0
2, 54000, Note_on_c, 0, 74, 75
2, 54120, Note_on_c, 0, 74, 0
2, 54120, Note_on_c, 0, 76, 75
2, 54240, Note_on_c, 0, 76, 0
2, 54240, Note_on_c, 0, 66, 75
2, 54240, Note_on_c, 0, 78, 75
2, 54480, Note_on_c, 0, 78, 0
2, 54480, Note_on_c, 0, 66, 0
2, 54480, Note_on_c, 0, 68, 75
2, 54480, Note_on_c, 0, 80, 75
2, 54527, Note_on_c, 0, 80, 0
2, 54527, Note_on_c, 0, 68, 0
2, 54720, Note_on_c, 0, 69, 101
2, 54720, Note_on_c, 0, 73, 101
2, 54720, Note_on_c, 0, 78, 101
2, 54720, Note_on_c, 0, 81, 101
2, 55200, Note_on_c, 0, 81, 0
2, 55200, Note_on_c, 0, 69, 0
2, 55200, Note_on_c, 0, 73, 0
2, 55200, Note_on_c, 0, 78, 0
2, 55200, Note_on_c, 0, 69, 101
2, 55200, Note_on_c, 0, 73, 101
2, 55200, Note_on_c, 0, 78, 101
2, 55200, Note_on_c, 0, 81, 101
2, 55680, Note_on_c, 0, 81, 0
2, 55680, Note_on_c, 0, 69, 0
2, 55680, Note_on_c, 0, 73, 0
2, 55680, Note_on_c, 0, 78, 0
2, 55680, Note_on_c, 0, 69, 75
2, 55680, Note_on_c, 0, 73, 75
2, 55680, Note_on_c, 0, 78, 75
2, 55680, Note_on_c, 0, 81, 75
2, 55920, Note_on_c, 0, 81, 0
2, 55920, Note_on_c, 0, 69, 0
2, 55920, Note_on_c, 0, 73, 0
2, 55920, Note_on_c, 0, 78, 0
2, 55920, Note_on_c, 0, 78, 75
2, 56040, Note_on_c, 0, 78, 0
2, 56040, Note_on_c, 0, 80, 75
2, 56160, Note_on_c, 0, 80, 0
2, 56160, Note_on_c, 0, 69, 75
2, 56160, Note_on_c, 0, 81, 75
2, 56400, Note_on_c, 0, 81, 0
2, 56400, Note_on_c, 0, 69, 0
2, 56400, Note_on_c, 0, 71, 75
2, 56400, Note_on_c, 0, 83, 75
2, 56447, Note_on_c, 0, 83, 0
2, 56447, Note_on_c, 0, 71, 0
2, 56640, Note_on_c, 0, 72, 114
2, 56640, Note_on_c, 0, 77, 114
2, 56640, Note_on_c, 0, 81, 114
2, 56640, Note_on_c, 0, 84, 114
2, 57120, Note_on_c, 0, 84, 0
2, 57120, Note_on_c, 0, 72, 0
2, 57120, Note_on_c, 0, 77, 0
2, 57120, Note_on_c, 0, 81, 0
2, 57120, Note_on_c, 0, 72, 114
2, 57120, Note_on_c, 0, 77, 114
2, 57120, Note_on_c, 0, 81, 114
2, 57120, Note_on_c, 0, 84, 114
2, 57600, Note_on_c, 0, 84, 0
2, 57600, Note_on_c, 0, 72, 0
2, 57600, Note_on_c, 0, 77, 0
2, 57600, Note_on_c, 0, 81, 0
2, 57600, Note_on_c, 0, 72, 114
2, 57600, Note_on_c, 0, 77, 114
2, 57600, Note_on_c, 0, 81, 114
2, 57600, Note_on_c, 0, 84, 114
2, 57840, Note_on_c, 0, 84, 0
2, 57840, Note_on_c, 0, 72, 0
2, 57840, Note_on_c, 0, 77, 0
2, 57840, Note_on_c, 0, 81, 0
2, 57840, Note_on_c, 0, 81, 88
2, 57960, Note_on_c, 0, 81, 0
2, 57960, Note_on_c, 0, 83, 88
2, 58080, Note_on_c, 0, 83, 0
2, 58080, Note_on_c, 0, 72, 88
2, 58080, Note_on_c, 0, 84, 88
2, 58320, Note_on_c, 0, 84, 0
2, 58320, Note_on_c, 0, 72, 0
2, 58320, Note_on_c, 0, 74, 88
2, 58320, Note_on_c, 0, 86, 88
2, 58367, Note_on_c, 0, 86, 0
2, 58367, Note_on_c, 0, 74, 0
2, 58560, Note_on_c, 0, 75, 127
2, 58560, Note_on_c, 0, 80, 127
2, 58560, Note_on_c, 0, 84, 127
2, 58560, Note_on_c, 0, 87, 127
2, 59040, Note_on_c, 0, 87, 0
2, 59040, Note_on_c, 0, 75, 0
2, 59040, Note_on_c, 0, 80, 0
2, 59040, Note_on_c, 0, 84, 0
2, 59040, Note_on_c, 0, 75, 127
2, 59040, Note_on_c, 0, 80, 127
2, 59040, Note_on_c, 0, 84, 127
2, 59040, Note_on_c, 0, 87, 127
2, 59520, Note_on_c, 0, 87, 0
2, 59520, Note_on_c, 0, 75, 0
2, 59520, Note_on_c, 0, 80, 0
2, 59520, Note_on_c, 0, 84, 0
2, 59520, Note_on_c, 0, 75, 127
2, 59520, Note_on_c, 0, 80, 127
2, 59520, Note_on_c, 0, 84, 127
2, 59520, Note_on_c, 0, 87, 127
2, 59760, Note_on_c, 0, 87, 0
2, 59760, Note_on_c, 0, 75, 0
2, 59760, Note_on_c, 0, 80, 0
2, 59760, Note_on_c, 0, 84, 0
2, 59760, Note_on_c, 0, 80, 101
2, 59880, Note_on_c, 0, 80, 0
2, 59880, Note_on_c, 0, 82, 101
2, 60000, Note_on_c, 0, 82, 0
2, 60000, Note_on_c, 0, 72, 101
2, 60000, Note_on_c, 0, 84, 101
2, 60240, Note_on_c, 0, 84, 0
2, 60240, Note_on_c, 0, 72, 0
2, 60240, Note_on_c, 0, 73, 101
2, 60240, Note_on_c, 0, 85, 101
2, 60287, Note_on_c, 0, 85, 0
2, 60287, Note_on_c, 0, 73, 0
2, 60480, Note_on_c, 0, 75, 127
2, 60480, Note_on_c, 0, 80, 127
2, 60480, Note_on_c, 0, 84, 127
2, 60480, Note_on_c, 0, 87, 127
2, 60960, Note_on_c, 0, 87, 0
2, 60960, Note_on_c, 0, 75, 0
2, 60960, Note_on_c, 0, 80, 0
2, 60960, Note_on_c, 0, 84, 0
2, 60960, Note_on_c, 0, 75, 127
2, 60960, Note_on_c, 0, 80, 127
2, 60960, Note_on_c, 0, 84, 127
2, 60960, Note_on_c, 0, 87, 127
2, 61440, Note_on_c, 0, 87, 0
2, 61440, Note_on_c, 0, 75, 0
2, 61440, Note_on_c, 0, 80, 0
2, 61440, Note_on_c, 0, 84, 0
2, 61440, Note_on_c, 0, 75, 127
2, 61440, Note_on_c, 0, 80, 127
2, 61440, Note_on_c, 0, 84, 127
2, 61440, Note_on_c, 0, 87, 127
2, 61680, Note_on_c, 0, 87, 0
2, 61680, Note_on_c, 0, 75, 0
2, 61680, Note_on_c, 0, 80, 0
2, 61680, Note_on_c, 0, 84, 0
2, 61680, Control_c, 0, 64, 127
2, 61680, Note_on_c, 0, 68, 101
2, 61680, Note_on_c, 0, 80, 101
2, 61800, Note_on_c, 0, 80, 0
2, 61800, Note_on_c, 0, 68, 0
2, 61800, Note_on_c, 0, 70, 101
2, 61800, Note_on_c, 0, 82, 101
2, 61920, Note_on_c, 0, 82, 0
2, 61920, Note_on_c, 0, 70, 0
2, 61920, Note_on_c, 0, 72, 101
2, 61920, Note_on_c, 0, 84, 101
2, 62040, Note_on_c, 0, 84, 0
2, 62040, Note_on_c, 0, 72, 0
2, 62040, Note_on_c, 0, 73, 101
2, 62040, Note_on_c, 0, 85, 101
2, 62160, Note_on_c, 0, 85, 0
2, 62160, Note_on_c, 0, 73, 0
2, 62160, Note_on_c, 0, 75, 101
2, 62160, Note_on_c, 0, 87, 101
2, 62280, Note_on_c, 0, 87, 0
2, 62280, Note_on_c, 0, 75, 0
2, 62280, Control_c, 0, 64, 0
2, 62280, Note_on_c, 0, 77, 101
2, 62280, Note_on_c, 0, 89, 101
2, 62400, Note_on_c, 0, 89, 0
2, 62400, Note_on_c, 0, 77, 0
2, 62400, Control_c, 0, 64, 127
2, 62400, Note_on_c, 0, 79, 101
2, 62400, Note_on_c, 0, 87, 101
2, 62400, Note_on_c, 0, 91, 101
2, 62520, Note_on_c, 0, 91, 0
2, 62520, Note_on_c, 0, 87, 0
2, 62520, Note_on_c, 0, 79, 0
2, 62520, Note_on_c, 0, 80, 101
2, 62520, Note_on_c, 0, 92, 101
2, 62640, Note_on_c, 0, 92, 0
2, 62640, Note_on_c, 0, 80, 0
2, 62640, Note_on_c, 0, 79, 101
2, 62640, Note_on_c, 0, 91, 101
2, 62760, Note_on_c, 0, 91, 0
2, 62760, Note_on_c, 0, 79, 0
2, 62760, Control_c, 0, 64, 0
2, 62760, Note_on_c, 0, 77, 101
2, 62760, Note_on_c, 0, 89, 101
2, 62880, Note_on_c, 0, 89, 0
2, 62880, Note_on_c, 0, 77, 0
2, 62880, Control_c, 0, 64, 127
2, 62880, Note_on_c, 0, 75, 101
2, 62880, Note_on_c, 0, 87, 101
2, 63000, Note_on_c, 0, 87, 0
2, 63000, Note_on_c, 0, 75, 0
2, 63000, Note_on_c, 0, 73, 101
2, 63000, Note_on_c, 0, 85, 101
2, 63120, Note_on_c, 0, 85, 0
2, 63120, Note_on_c, 0, 73, 0
2, 63120, Note_on_c, 0, 72, 101
2, 63120, Note_on_c, 0, 84, 101
2, 63240, Note_on_c, 0, 84, 0
2, 63240, Note_on_c, 0, 72, 0
2, 63240, Control_c, 0, 64, 0
2, 63240, Note_on_c, 0, 70, 101
2, 63240, Note_on_c, 0, 82, 101
2, 63360, Note_on_c, 0, 82, 0
2, 63360, Note_on_c, 0, 70, 0
2, 63360, Control_c, 0, 64, 127
2, 63360, Note_on_c, 0, 68, 101
2, 63360, Note_on_c, 0, 75, 101
2, 63360, Note_on_c, 0, 80, 101
2, 63480, Note_on_c, 0, 80, 0
2, 63480, Note_on_c, 0, 75, 0
2, 63480, Note_on_c, 0, 68, 0
2, 63480, Note_on_c, 0, 67, 101
2, 63480, Note_on_c, 0, 79, 101
2, 63600, Note_on_c, 0, 79, 0
2, 63600, Note_on_c, 0, 67, 0
2, 63600, Note_on_c, 0, 65, 101
2, 63600, Note_on_c, 0, 77, 101
2, 63720, Note_on_c, 0, 77, 0
2, 63720, Note_on_c, 0, 65, 0
2, 63720, Control_c, 0, 64, 0
2, 63720, Note_on_c, 0, 67, 101
2, 63720, Note_on_c, 0, 79, 101
2, 63840, Note_on_c, 0, 79, 0
2, 63840, Note_on_c, 0, 67, 0
2, 63840, Control_c, 0, 64, 127
2, 63840, Note_on_c, 0, 68, 101
2, 63840, Note_on_c, 0, 80, 101
2, 63960, Note_on_c, 0, 80, 0
2, 63960, Note_on_c, 0, 68, 0
2, 63960, Note_on_c, 0, 70, 101
2, 63960, Note_on_c, 0, 82, 101
2, 64080, Note_on_c, 0, 82, 0
2, 64080, Note_on_c, 0, 70, 0
2, 64080, Note_on_c, 0, 72, 101
2, 64080, Note_on_c, 0, 84, 101
2, 64200, Note_on_c, 0, 84, 0
2, 64200, Note_on_c, 0, 72, 0
2, 64200, Control_c, 0, 64, 0
2, 64200, Note_on_c, 0, 73, 101
2, 64200, Note_on_c, 0, 85, 101
2, 64320, Note_on_c, 0, 85, 0
2, 64320, Note_on_c, 0, 73, 0
2, 64320, Control_c, 0, 64, 127
2, 64320, Note_on_c, 0, 75, 101
2, 64320, Note_on_c, 0, 80, 101
2, 64320, Note_on_c, 0, 87, 101
2, 64440, Note_on_c, 0, 87, 0
2, 64440, Note_on_c, 0, 80, 0
2, 64440, Note_on_c, 0, 75, 0
2, 64440, Note_on_c, 0, 77, 101
2, 64440, Note_on_c, 0, 89, 101
2, 64560, Note_on_c, 0, 89, 0
2, 64560, Note_on_c, 0, 77, 0
2, 64560, Note_on_c, 0, 75, 101
2, 64560, Note_on_c, 0, 87, 101
2, 64680, Note_on_c, 0, 87, 0
2, 64680, Note_on_c, 0, 75, 0
2, 64680, Control_c, 0, 64, 0
2, 64680, Note_on_c, 0, 73, 101
2, 64680, Note_on_c, 0, 85, 101
2, 64800, Note_on_c, 0, 85, 0
2, 64800, Note_on_c, 0, 73, 0
2, 64800, Control_c, 0, 64, 127
2, 64800, Note_on_c, 0, 72, 101
2, 64800, Note_on_c, 0, 84, 101
2, 64920, Note_on_c, 0, 84, 0
2, 64920, Note_on_c, 0, 72, 0
2, 64920, Note_on_c, 0, 70, 101
2, 64920, Note_on_c, 0, 82, 101
2, 65040, Note_on_c, 0, 82, 0
2, 65040, Note_on_c, 0, 70, 0
2, 65040, Note_on_c, 0, 68, 101
2, 65040, Note_on_c, 0, 80, 101
2, 65160, Note_on_c, 0, 80, 0
2, 65160, Note_on_c, 0, 68, 0
2, 65160, Control_c, 0, 64, 0
2, 65160, Note_on_c, 0, 67, 101
2, 65160, Note_on_c, 0, 79, 101
2, 65280, Note_on_c, 0, 79, 0
2, 65280, Note_on_c, 0, 67, 0
2, 65280, Control_c, 0, 64, 127
2, 65280, Note_on_c, 0, 65, 101
2, 65280, Note_on_c, 0, 68, 101
2, 65280, Note_on_c, 0, 77, 101
2, 65400, Note_on_c, 0, 77, 0
2, 65400, Note_on_c, 0, 68, 0
2, 65400, Note_on_c, 0, 65, 0
2, 65400, Note_on_c, 0, 63, 101
2, 65400, Note_on_c, 0, 75, 101
2, 65520, Note_on_c, 0, 75, 0
2, 65520, Note_on_c, 0, 63, 0
2, 65520, Note_on_c, 0, 62, 101
2, 65520, Note_on_c, 0, 74, 101
2, 65640, Note_on_c, 0, 74, 0
2, 65640, Note_on_c, 0, 62, 0
2, 65640, Control_c, 0, 64, 0
2, 65640, Note_on_c, 0, 63, 101
2, 65640, Note_on_c, 0, 75, 101
2, 65760, Note_on_c, 0, 75, 0
2, 65760, Note_on_c, 0, 63, 0
2, 65760, Control_c, 0, 64, 127
2, 65760, Note_on_c, 0, 65, 101
2, 65760, Note_on_c, 0, 77, 101
2, 65880, Note_on_c, 0, 77, 0
2, 65880, Note_on_c, 0, 65, 0
2, 65880, Note_on_c, 0, 67, 101
2, 65880, Note_on_c, 0, 79, 101
2, 66000, Note_on_c, 0, 79, 0
2, 66000, Note_on_c, 0, 67, 0
2, 66000, Note_on_c, 0, 68, 101
2, 66000, Note_on_c, 0, 80, 101
2, 66120, Note_on_c, 0, 80, 0
2, 66120, Note_on_c, 0, 68, 0
2, 66120, Control_c, 0, 64, 0
2, 66120, Note_on_c, 0, 70, 101
2, 66120, Note_on_c, 0, 82, 101
2, 66240, Note_on_c, 0, 82, 0
2, 66240, Note_on_c, 0, 70, 0
2, 66240, Control_c, 0, 64, 127
2, 66240, Note_on_c, 0, 72, 88
2, 66240, Note_on_c, 0, 75, 88
2, 66240, Note_on_c, 0, 84, 88
2, 66360, Note_on_c, 0, 84, 0
2, 66360, Note_on_c, 0, 75, 0
2, 66360, Note_on_c, 0, 72, 0
2, 66360, Note_on_c, 0, 73, 88
2, 66360, Note_on_c, 0, 85, 88
2, 66480, Note_on_c, 0, 85, 0
2, 66480, Note_on_c, 0, 73, 0
2, 66480, Note_on_c, 0, 72, 88
2, 66480, Note_on_c, 0, 84, 88
2, 66600, Note_on_c, 0, 84, 0
2, 66600, Note_on_c, 0, 72, 0
2, 66600, Control_c, 0, 64, 0
2, 66600, Note_on_c, 0, 70, 88
2, 66600, Note_on_c, 0, 82, 88
2, 66720, Note_on_c, 0, 82, 0
2, 66720, Note_on_c, 0, 70, 0
2, 66720, Control_c, 0, 64, 127
2, 66720, Note_on_c, 0, 68, 88
2, 66720, Note_on_c, 0, 80, 88
2, 66840, Note_on_c, 0, 80, 0
2, 66840, Note_on_c, 0, 68, 0
2, 66840, Note_on_c, 0, 67, 88
2, 66840, Note_on_c, 0, 79, 88
2, 66960, Note_on_c, 0, 79, 0
2, 66960, Note_on_c, 0, 67, 0
2, 66960, Note_on_c, 0, 68, 88
2, 66960, Note_on_c, 0, 80, 88
2, 67080, Note_on_c, 0, 80, 0
2, 67080, Note_on_c, 0, 68, 0
2, 67080, Control_c, 0, 64, 0
2, 67080, Note_on_c, 0, 70, 88
2, 67080, Note_on_c, 0, 82, 88
2, 67200, Note_on_c, 0, 82, 0
2, 67200, Note_on_c, 0, 70, 0
2, 67200, Control_c, 0, 64, 127
2, 67200, Note_on_c, 0, 72, 88
2, 67200, Note_on_c, 0, 75, 88
2, 67200, Note_on_c, 0, 84, 88
2, 67320, Note_on_c, 0, 84, 0
2, 67320, Note_on_c, 0, 75, 0
2, 67320, Note_on_c, 0, 72, 0
2, 67320, Note_on_c, 0, 73, 88
2, 67320, Note_on_c, 0, 85, 88
2, 67440, Note_on_c, 0, 85, 0
2, 67440, Note_on_c, 0, 73, 0
2, 67440, Note_on_c, 0, 72, 88
2, 67440, Note_on_c, 0, 84, 88
2, 67560, Note_on_c, 0, 84, 0
2, 67560, Note_on_c, 0, 72, 0
2, 67560, Control_c, 0, 64, 0
2, 67560, Note_on_c, 0, 70, 88
2, 67560, Note_on_c, 0, 82, 88
2, 67680, Note_on_c, 0, 82, 0
2, 67680, Note_on_c, 0, 70, 0
2, 67680, Control_c, 0, 64, 127
2, 67680, Note_on_c, 0, 68, 88
2, 67680, Note_on_c, 0, 80, 88
2, 67800, Note_on_c, 0, 80, 0
2, 67800, Note_on_c, 0, 68, 0
2, 67800, Note_on_c, 0, 67, 88
2, 67800, Note_on_c, 0, 79, 88
2, 67920, Note_on_c, 0, 79, 0
2, 67920, Note_on_c, 0, 67, 0
2, 67920, Note_on_c, 0, 68, 88
2, 67920, Note_on_c, 0, 80, 88
2, 68040, Note_on_c, 0, 80, 0
2, 68040, Note_on_c, 0, 68, 0
2, 68040, Control_c, 0, 64, 0
2, 68040, Note_on_c, 0, 70, 88
2, 68040, Note_on_c, 0, 82, 88
2, 68160, Note_on_c, 0, 82, 0
2, 68160, Note_on_c, 0, 70, 0
2, 68160, Control_c, 0, 64, 127
2, 68160, Note_on_c, 0, 72, 88
2, 68160, Note_on_c, 0, 75, 88
2, 68160, Note_on_c, 0, 84, 88
2, 68280, Note_on_c, 0, 84, 0
2, 68280, Note_on_c, 0, 75, 0
2, 68280, Note_on_c, 0, 72, 0
2, 68280, Note_on_c, 0, 73, 88
2, 68280, Note_on_c, 0, 85, 88
2, 68400, Note_on_c, 0, 85, 0
2, 68400, Note_on_c, 0, 73, 0
2, 68400, Note_on_c, 0, 72, 88
2, 68400, Note_on_c, 0, 84, 88
2, 68520, Note_on_c, 0, 84, 0
2, 68520, Note_on_c, 0, 72, 0
2, 68520, Control_c, 0, 64, 0
2, 68520, Note_on_c, 0, 70, 88
2, 68520, Note_on_c, 0, 82, 88
2, 68640, Note_on_c, 0, 82, 0
2, 68640, Note_on_c, 0, 70, 0
2, 68640, Control_c, 0, 64, 127
2, 68640, Note_on_c, 0, 68, 88
2, 68640, Note_on_c, 0, 80, 88
2, 68760, Note_on_c, 0, 80, 0
2, 68760, Note_on_c, 0, 68, 0
2, 68760, Note_on_c, 0, 67, 88
2, 68760, Note_on_c, 0, 79, 88
2, 68880, Note_on_c, 0, 79, 0
2, 68880, Note_on_c, 0, 67, 0
2, 68880, Note_on_c, 0, 68, 88
2, 68880, Note_on_c, 0, 80, 88
2, 69000, Note_on_c, 0, 80, 0
2, 69000, Note_on_c, 0, 68, 0
2, 69000, Control_c, 0, 64, 0
2, 69000, Note_on_c, 0, 70, 88
2, 69000, Note_on_c, 0, 82, 88
2, 69120, Note_on_c, 0, 82, 0
2, 69120, Note_on_c, 0, 70, 0
2, 69120, Control_c, 0, 64, 127
2, 69120, Note_on_c, 0, 72, 88
2, 69120, Note_on_c, 0, 75, 88
2, 69120, Note_on_c, 0, 84, 88
2, 69240, Note_on_c, 0, 84, 0
2, 69240, Note_on_c, 0, 75, 0
2, 69240, Note_on_c, 0, 72, 0
2, 69240, Note_on_c, 0, 73, 88
2, 69240, Note_on_c, 0, 85, 88
2, 69360, Note_on_c, 0, 85, 0
2, 69360, Note_on_c, 0, 73, 0
2, 69360, Note_on_c, 0, 72, 88
2, 69360, Note_on_c, 0, 84, 88
2, 69480, Note_on_c, 0, 84, 0
2, 69480, Note_on_c, 0, 72, 0
2, 69480, Control_c, 0, 64, 0
2, 69480, Note_on_c, 0, 70, 88
2, 69480, Note_on_c, 0, 82, 88
2, 69600, Note_on_c, 0, 82, 0
2, 69600, Note_on_c, 0, 70, 0
2, 69600, Control_c, 0, 64, 127
2, 69600, Note_on_c, 0, 68, 88
2, 69600, Note_on_c, 0, 80, 88
2, 69720, Note_on_c, 0, 80, 0
2, 69720, Note_on_c, 0, 68, 0
2, 69720, Note_on_c, 0, 67, 88
2, 69720, Note_on_c, 0, 79, 88
2, 69840, Note_on_c, 0, 79, 0
2, 69840, Note_on_c, 0, 67, 0
2, 69840, Note_on_c, 0, 68, 88
2, 69840, Note_on_c, 0, 80, 88
2, 69960, Note_on_c, 0, 80, 0
2, 69960, Note_on_c, 0, 68, 0
2, 69960, Control_c, 0, 64, 0
2, 69960, Note_on_c, 0, 70, 88
2, 69960, Note_on_c, 0, 82, 88
2, 70080, Note_on_c, 0, 82, 0
2, 70080, Note_on_c, 0, 70, 0
2, 70080, Control_c, 0, 64, 127
2, 70080, Note_on_c, 0, 72, 75
2, 70080, Note_on_c, 0, 77, 75
2, 70080, Note_on_c, 0, 84, 75
2, 70200, Note_on_c, 0, 84, 0
2, 70200, Note_on_c, 0, 77, 0
2, 70200, Note_on_c, 0, 72, 0
2, 70200, Note_on_c, 0, 73, 75
2, 70200, Note_on_c, 0, 85, 75
2, 70320, Note_on_c, 0, 85, 0
2, 70320, Note_on_c, 0, 73, 0
2, 70320, Note_on_c, 0, 72, 75
2, 70320, Note_on_c, 0, 84, 75
2, 70440, Note_on_c, 0, 84, 0
2, 70440, Note_on_c, 0, 72, 0
2, 70440, Control_c, 0, 64, 0
2, 70440, Note_on_c, 0, 70, 75
2, 70440, Note_on_c, 0, 82, 75
2, 70560, Note_on_c, 0, 82, 0
2, 70560, Note_on_c, 0, 70, 0
2, 70560, Control_c, 0, 64, 127
2, 70560, Note_on_c, 0, 69, 75
2, 70560, Note_on_c, 0, 81, 75
2, 70680, Note_on_c, 0, 81, 0
2, 70680, Note_on_c, 0, 69, 0
2, 70680, Note_on_c, 0, 70, 75
2, 70680, Note_on_c, 0, 82, 75
2, 70800, Note_on_c, 0, 82, 0
2, 70800, Note_on_c, 0, 70, 0
2, 70800, Note_on_c, 0, 69, 75
2, 70800, Note_on_c, 0, 81, 75
2, 70920, Note_on_c, 0, 81, 0
2, 70920, Note_on_c, 0, 69, 0
2, 70920, Control_c, 0, 64, 0
2, 70920, Note_on_c, 0, 66, 75
2, 70920, Note_on_c, 0, 78, 75
2, 71040, Note_on_c, 0, 78, 0
2, 71040, Note_on_c, 0, 66, 0
2, 71040, Note_on_c, 0, 65, 75
2, 71040, Note_on_c, 0, 77, 75
2, 71160, Note_on_c, 0, 77, 0
2, 71160, Note_on_c, 0, 65, 0
2, 71160, Note_on_c, 0, 78, 75
2, 71183, Note_on_c, 0, 78, 0
2, 71280, Note_on_c, 0, 77, 75
2, 71303, Note_on_c, 0, 77, 0
2, 71400, Note_on_c, 0, 76, 75
2, 71423, Note_on_c, 0, 76, 0
2, 71520, Note_on_c, 0, 75, 62
2, 71543, Note_on_c, 0, 75, 0
2, 71640, Note_on_c, 0, 77, 62
2, 71663, Note_on_c, 0, 77, 0
2, 71760, Note_on_c, 0, 75, 62
2, 71783, Note_on_c, 0, 75, 0
2, 71880, Note_on_c, 0, 73, 62
2, 71903, Note_on_c, 0, 73, 0
2, 72000, Note_on_c, 0, 72, 62
2, 72023, Note_on_c, 0, 72, 0
2, 72120, Note_on_c, 0, 73, 62
2, 72143, Note_on_c, 0, 73, 0
2, 72240, Note_on_c, 0, 72, 62
2, 72263, Note_on_c, 0, 72, 0
2, 72360, Note_on_c, 0, 70, 62
2, 72383, Note_on_c, 0, 70, 0
2, 72480, Note_on_c, 0, 69, 62
2, 72503, Note_on_c, 0, 69, 0
2, 72600, Note_on_c, 0, 70, 62
2, 72623, Note_on_c, 0, 70, 0
2, 72720, Note_on_c, 0, 69, 62
2, 72743, Note_on_c, 0, 69, 0
2, 72840, Note_on_c, 0, 66, 62
2, 72863, Note_on_c, 0, 66, 0
2, 72960, Note_on_c, 0, 65, 62
2, 72983, Note_on_c, 0, 65, 0
2, 73080, Note_on_c, 0, 65, 62
2, 73103, Note_on_c, 0, 65, 0
2, 73200, Note_on_c, 0, 67, 62
2, 73223, Note_on_c, 0, 67, 0
2, 73320, Note_on_c, 0, 70, 62
2, 73343, Note_on_c, 0, 70, 0
2, 73440, Note_on_c, 0, 69, 62
2, 73463, Note_on_c, 0, 69, 0
2, 73560, Note_on_c, 0, 69, 62
2, 73583, Note_on_c, 0, 69, 0
2, 73680, Note_on_c, 0, 70, 62
2, 73703, Note_on_c, 0, 70, 0
2, 73800, Note_on_c, 0, 73, 62
2, 73823, Note_on_c, 0, 73, 0
2, 73920, Note_on_c, 0, 65, 62
2, 73920, Note_on_c, 0, 72, 62
2, 73943, Note_on_c, 0, 72, 0
2, 73943, Note_on_c, 0, 65, 0
2, 74040, Note_on_c, 0, 72, 62
2, 74063, Note_on_c, 0, 72, 0
2, 74160, Note_on_c, 0, 73, 62
2, 74183, Note_on_c, 0, 73, 0
2, 74280, Note_on_c, 0, 77, 62
2, 74303, Note_on_c, 0, 77, 0
2, 74520, Note_on_c, 0, 67, 62
2, 74543, Note_on_c, 0, 67, 0
2, 74640, Note_on_c, 0, 69, 62
2, 74663, Note_on_c, 0, 69, 0
2, 74760, Note_on_c, 0, 70, 62
2, 74783, Note_on_c, 0, 70, 0
2, 74880, Note_on_c, 0, 65, 62
2, 74880, Note_on_c, 0, 69, 62
2, 74903, Note_on_c, 0, 69, 0
2, 74903, Note_on_c, 0, 65, 0
2, 75000, Note_on_c, 0, 65, 62
2, 75023, Note_on_c, 0, 65, 0
2, 75120, Note_on_c, 0, 67, 62
2, 75143, Note_on_c, 0, 67, 0
2, 75240, Note_on_c, 0, 69, 62
2, 75263, Note_on_c, 0, 69, 0
2, 75360, Note_on_c, 0, 70, 62
2, 75383, Note_on_c, 0, 70, 0
2, 75480, Note_on_c, 0, 67, 62
2, 75503, Note_on_c, 0, 67, 0
2, 75600, Note_on_c, 0, 69, 62
2, 75623, Note_on_c, 0, 69, 0
2, 75720, Note_on_c, 0, 72, 62
2, 75743, Note_on_c, 0, 72, 0
2, 75840, Note_on_c, 0, 65, 62
2, 75840, Note_on_c, 0, 73, 62
2, 75863, Note_on_c, 0, 73, 0
2, 75863, Note_on_c, 0, 65, 0
2, 75960, Note_on_c, 0, 72, 62
2, 75983, Note_on_c, 0, 72, 0
2, 76080, Note_on_c, 0, 70, 62
2, 76103, Note_on_c, 0, 70, 0
2, 76200, Note_on_c, 0, 73, 62
2, 76223, Note_on_c, 0, 73, 0
2, 76320, Note_on_c, 0, 66, 62
2, 76320, Note_on_c, 0, 72, 62
2, 76343, Note_on_c, 0, 72, 0
2, 76343, Note_on_c, 0, 66, 0
2, 76440, Note_on_c, 0, 70, 62
2, 76463, Note_on_c, 0, 70, 0
2, 76560, Note_on_c, 0, 68, 62
2, 76583, Note_on_c, 0, 68, 0
2, 76680, Note_on_c, 0, 66, 62
2, 76703, Note_on_c, 0, 66, 0
2, 76800, Note_on_c, 0, 65, 62
2, 76823, Note_on_c, 0, 65, 0
2, 76920, Note_on_c, 0, 63, 62
2, 76943, Note_on_c, 0, 63, 0
2, 77040, Note_on_c, 0, 61, 62
2, 77063, Note_on_c, 0, 61, 0
2, 77160, Note_on_c, 0, 60, 62
2, 77183, Note_on_c, 0, 60, 0
2, 77280, Note_on_c, 0, 65, 62
2, 77303, Note_on_c, 0, 65, 0
2, 77400, Note_on_c, 0, 63, 62
2, 77423, Note_on_c, 0, 63, 0
2, 77520, Note_on_c, 0, 61, 62
2, 77543, Note_on_c, 0, 61, 0
2, 77640, Note_on_c, 0, 60, 62
2, 77663, Note_on_c, 0, 60, 0
2, 77760, Control_c, 0, 64, 127
2, 77760, Note_on_c, 0, 58, 62
2, 78000, Note_on_c, 0, 58, 0
2, 78000, Note_on_c, 0, 60, 62
2, 78240, Note_on_c, 0, 60, 0
2, 78240, Note_on_c, 0, 61, 62
2, 78480, Note_on_c, 0, 61, 0
2, 78480, Control_c, 0, 64, 0
2, 78480, Note_on_c, 0, 65, 62
2, 78720, Note_on_c, 0, 65, 0
2, 78720, Control_c, 0, 64, 127
2, 78720, Note_on_c, 0, 63, 62
2, 78960, Note_on_c, 0, 63, 0
2, 78960, Note_on_c, 0, 61, 62
2, 79200, Note_on_c, 0, 61, 0
2, 79200, Note_on_c, 0, 60, 62
2, 79440, Note_on_c, 0, 60, 0
2, 79440, Control_c, 0, 64, 0
2, 79440, Note_on_c, 0, 58, 62
2, 79680, Note_on_c, 0, 58, 0
2, 79680, Note_on_c, 0, 57, 62
2, 79920, Note_on_c, 0, 57, 0
2, 79920, Note_on_c, 0, 53, 62
2, 80160, Note_on_c, 0, 53, 0
2, 80160, Note_on_c, 0, 58, 62
2, 80400, Note_on_c, 0, 58, 0
2, 80400, Note_on_c, 0, 55, 62
2, 80640, Note_on_c, 0, 55, 0
2, 80640, Note_on_c, 0, 57, 62
2, 80880, Note_on_c, 0, 57, 0
2, 80880, Note_on_c, 0, 67, 62
2, 80880, Note_on_c, 0, 79, 62
2, 80903, Note_on_c, 0, 79, 0
2, 80903, Note_on_c, 0, 67, 0
2, 81000, Note_on_c, 0, 70, 62
2, 81023, Note_on_c, 0, 70, 0
2, 81120, Note_on_c, 0, 69, 62
2, 81120, Note_on_c, 0, 81, 62
2, 81143, Note_on_c, 0, 81, 0
2, 81143, Note_on_c, 0, 69, 0
2, 81240, Note_on_c, 0, 69, 62
2, 81240, Note_on_c, 0, 81, 62
2, 81263, Note_on_c, 0, 81, 0
2, 81263, Note_on_c, 0, 69, 0
2, 81360, Note_on_c, 0, 70, 62
2, 81360, Note_on_c, 0, 82, 62
2, 81383, Note_on_c, 0, 82, 0
2, 81383, Note_on_c, 0, 70, 0
2, 81480, Note_on_c, 0, 73, 62
2, 81480, Note_on_c, 0, 85, 62
2, 81503, Note_on_c, 0, 85, 0
2, 81503, Note_on_c, 0, 73, 0
2, 81600, Note_on_c, 0, 72, 62
2, 81600, Note_on_c, 0, 77, 62
2, 81600, Note_on_c, 0, 84, 62
2, 81623, Note_on_c, 0, 84, 0
2, 81623, Note_on_c, 0, 77, 0
2, 81623, Note_on_c, 0, 72, 0
2, 81720, Note_on_c, 0, 72, 62
2, 81720, Note_on_c, 0, 84, 62
2, 81743, Note_on_c, 0, 84, 0
2, 81743, Note_on_c, 0, 72, 0
2, 81840, Note_on_c, 0, 73, 62
2, 81840, Note_on_c, 0, 85, 62
2, 81863, Note_on_c, 0, 85, 0
2, 81863, Note_on_c, 0, 73, 0
2, 81960, Note_on_c, 0, 77, 62
2, 81960, Note_on_c, 0, 89, 62
2, 81983, Note_on_c, 0, 89, 0
2, 81983, Note_on_c, 0, 77, 0
2, 82200, Note_on_c, 0, 67, 62
2, 82200, Note_on_c, 0, 79, 62
2, 82223, Note_on_c, 0, 79, 0
2, 82223, Note_on_c, 0, 67, 0
2, 82320, Note_on_c, 0, 69, 62
2, 82320, Note_on_c, 0, 81, 62
2, 82343, Note_on_c, 0, 81, 0
2, 82343, Note_on_c, 0, 69, 0
2, 82440, Note_on_c, 0, 70, 62
2, 82440, Note_on_c, 0, 82, 62
2, 82463, Note_on_c, 0, 82, 0
2, 82463, Note_on_c, 0, 70, 0
2, 82560, Note_on_c, 0, 69, 62
2, 82560, Note_on_c, 0, 81, 62
2, 82583, Note_on_c, 0, 81, 0
2, 82583, Note_on_c, 0, 69, 0
2, 82680, Note_on_c, 0, 77, 62
2, 82703, Note_on_c, 0, 77, 0
2, 82800, Note_on_c, 0, 67, 62
2, 82800, Note_on_c, 0, 79, 62
2, 82823, Note_on_c, 0, 79, 0
2, 82823, Note_on_c, 0, 67, 0
2, 82920, Note_on_c, 0, 69, 62
2, 82920, Note_on_c, 0, 81, 62
2, 82943, Note_on_c, 0, 81, 0
2, 82943, Note_on_c, 0, 69, 0
2, 83040, Note_on_c, 0, 70, 62
2, 83040, Note_on_c, 0, 82, 62
2, 83063, Note_on_c, 0, 82, 0
2, 83063, Note_on_c, 0, 70, 0
2, 83160, Note_on_c, 0, 79, 62
2, 83183, Note_on_c, 0, 79, 0
2, 83280, Note_on_c, 0, 81, 62
2, 83303, Note_on_c, 0, 81, 0
2, 83400, Note_on_c, 0, 72, 62
2, 83400, Note_on_c, 0, 84, 62
2, 83423, Note_on_c, 0, 84, 0
2, 83423, Note_on_c, 0, 72, 0
2, 83520, Note_on_c, 0, 73, 62
2, 83520, Note_on_c, 0, 77, 62
2, 83520, Note_on_c, 0, 85, 62
2, 83543, Note_on_c, 0, 85, 0
2, 83543, Note_on_c, 0, 77, 0
2, 83543, Note_on_c, 0, 73, 0
2, 83640, Note_on_c, 0, 72, 62
2, 83640, Note_on_c, 0, 84, 62
2, 83663, Note_on_c, 0, 84, 0
2, 83663, Note_on_c, 0, 72, 0
2, 83760, Note_on_c, 0, 82, 62
2, 83783, Note_on_c, 0, 82, 0
2, 83880, Note_on_c, 0, 73, 62
2, 83880, Note_on_c, 0, 85, 62
2, 83903, Note_on_c, 0, 85, 0
2, 83903, Note_on_c, 0, 73, 0
2, 84000, Note_on_c, 0, 72, 62
2, 84000, Note_on_c, 0, 78, 62
2, 84000, Note_on_c, 0, 84, 62
2, 84023, Note_on_c, 0, 84, 0
2, 84023, Note_on_c, 0, 78, 0
2, 84023, Note_on_c, 0, 72, 0
2, 84120, Note_on_c, 0, 82, 62
2, 84143, Note_on_c, 0, 82, 0
2, 84240, Note_on_c, 0, 80, 62
2, 84263, Note_on_c, 0, 80, 0
2, 84360, Note_on_c, 0, 78, 62
2, 84383, Note_on_c, 0, 78, 0
2, 84480, Note_on_c, 0, 77, 62
2, 84503, Note_on_c, 0, 77, 0
2, 84600, Note_on_c, 0, 77, 62
2, 84720, Note_on_c, 0, 89, 62
2, 84743, Note_on_c, 0, 89, 0
2, 84743, Note_on_c, 0, 77, 0
2, 84840, Note_on_c, 0, 78, 62
2, 84840, Note_on_c, 0, 90, 62
2, 84863, Note_on_c, 0, 90, 0
2, 84863, Note_on_c, 0, 78, 0
2, 84960, Note_on_c, 0, 77, 62
2, 84960, Note_on_c, 0, 89, 62
2, 84983, Note_on_c, 0, 89, 0
2, 84983, Note_on_c, 0, 77, 0
2, 85080, Note_on_c, 0, 75, 62
2, 85080, Note_on_c, 0, 87, 62
2, 85103, Note_on_c, 0, 87, 0
2, 85103, Note_on_c, 0, 75, 0
2, 85200, Note_on_c, 0, 73, 62
2, 85200, Note_on_c, 0, 77, 62
2, 85200, Note_on_c, 0, 85, 62
2, 85223, Note_on_c, 0, 85, 0
2, 85223, Note_on_c, 0, 77, 0
2, 85223, Note_on_c, 0, 73, 0
2, 85320, Note_on_c, 0, 72, 62
2, 85320, Note_on_c, 0, 84, 62
2, 85343, Note_on_c, 0, 84, 0
2, 85343, Note_on_c, 0, 72, 0
2, 85440, Note_on_c, 0, 75, 62
2, 85440, Note_on_c, 0, 77, 62
2, 85440, Note_on_c, 0, 87, 62
2, 85463, Note_on_c, 0, 87, 0
2, 85463, Note_on_c, 0, 77, 0
2, 85463, Note_on_c, 0, 75, 0
2, 85560, Note_on_c, 0, 73, 62
2, 85560, Note_on_c, 0, 85, 62
2, 85583, Note_on_c, 0, 85, 0
2, 85583, Note_on_c, 0, 73, 0
2, 85680, Note_on_c, 0, 72, 62
2, 85680, Note_on_c, 0, 84, 62
2, 85703, Note_on_c, 0, 84, 0
2, 85703, Note_on_c, 0, 72, 0
2, 85800, Note_on_c, 0, 70, 62
2, 85800, Note_on_c, 0, 82, 62
2, 85823, Note_on_c, 0, 82, 0
2, 85823, Note_on_c, 0, 70, 0
2, 85920, Note_on_c, 0, 72, 62
2, 85920, Note_on_c, 0, 78, 62
2, 85920, Note_on_c, 0, 84, 62
2, 85943, Note_on_c, 0, 84, 0
2, 85943, Note_on_c, 0, 78, 0
2, 85943, Note_on_c, 0, 72, 0
2, 86040, Note_on_c, 0, 70, 62
2, 86040, Note_on_c, 0, 82, 62
2, 86063, Note_on_c, 0, 82, 0
2, 86063, Note_on_c, 0, 70, 0
2, 86160, Note_on_c, 0, 68, 62
2, 86160, Note_on_c, 0, 80, 62
2, 86183, Note_on_c, 0, 80, 0
2, 86183, Note_on_c, 0, 68, 0
2, 86280, Note_on_c, 0, 66, 62
2, 86280, Note_on_c, 0, 78, 62
2, 86303, Note_on_c, 0, 78, 0
2, 86303, Note_on_c, 0, 66, 0
2, 86400, Note_on_c, 0, 70, 62
2, 86400, Note_on_c, 0, 78, 62
2, 86423, Note_on_c, 0, 78, 0
2, 86423, Note_on_c, 0, 70, 0
2, 86520, Note_on_c, 0, 82, 62
2, 86543, Note_on_c, 0, 82, 0
2, 86640, Note_on_c, 0, 72, 62
2, 86640, Note_on_c, 0, 84, 62
2, 86663, Note_on_c, 0, 84, 0
2, 86663, Note_on_c, 0, 72, 0
2, 86760, Note_on_c, 0, 75, 62
2, 86760, Note_on_c, 0, 87, 62
2, 86783, Note_on_c, 0, 87, 0
2, 86783, Note_on_c, 0, 75, 0
2, 86880, Note_on_c, 0, 77, 62
2, 86880, Note_on_c, 0, 89, 62
2, 86903, Note_on_c, 0, 89, 0
2, 86903, Note_on_c, 0, 77, 0
2, 87000, Note_on_c, 0, 85, 62
2, 87023, Note_on_c, 0, 85, 0
2, 87120, Note_on_c, 0, 75, 62
2, 87120, Note_on_c, 0, 87, 62
2, 87143, Note_on_c, 0, 87, 0
2, 87143, Note_on_c, 0, 75, 0
2, 87240, Note_on_c, 0, 78, 62
2, 87240, Note_on_c, 0, 90, 62
2, 87263, Note_on_c, 0, 90, 0
2, 87263, Note_on_c, 0, 78, 0
2, 87360, Note_on_c, 0, 73, 62
2, 87360, Note_on_c, 0, 85, 62
2, 87383, Note_on_c, 0, 85, 0
2, 87383, Note_on_c, 0, 73, 0
2, 87480, Note_on_c, 0, 72, 62
2, 87480, Note_on_c, 0, 84, 62
2, 87503, Note_on_c, 0, 84, 0
2, 87503, Note_on_c, 0, 72, 0
2, 87600, Note_on_c, 0, 70, 62
2, 87600, Note_on_c, 0, 82, 62
2, 87623, Note_on_c, 0, 82, 0
2, 87623, Note_on_c, 0, 70, 0
2, 87720, Note_on_c, 0, 68, 62
2, 87720, Note_on_c, 0, 80, 62
2, 87743, Note_on_c, 0, 80, 0
2, 87743, Note_on_c, 0, 68, 0
2, 87840, Note_on_c, 0, 73, 62
2, 87840, Note_on_c, 0, 80, 62
2, 87840, Note_on_c, 0, 85, 62
2, 87863, Note_on_c, 0, 85, 0
2, 87863, Note_on_c, 0, 80, 0
2, 87863, Note_on_c, 0, 73, 0
2, 87960, Note_on_c, 0, 72, 62
2, 87960, Note_on_c, 0, 84, 62
2, 87983, Note_on_c, 0, 84, 0
2, 87983, Note_on_c, 0, 72, 0
2, 88080, Note_on_c, 0, 70, 62
2, 88080, Note_on_c, 0, 82, 62
2, 88103, Note_on_c, 0, 82, 0
2, 88103, Note_on_c, 0, 70, 0
2, 88200, Note_on_c, 0, 68, 62
2, 88200, Note_on_c, 0, 80, 62
2, 88223, Note_on_c, 0, 80, 0
2, 88223, Note_on_c, 0, 68, 0
2, 88320, Note_on_c, 0, 68, 62
2, 88320, Note_on_c, 0, 77, 62
2, 88343, Note_on_c, 0, 77, 0
2, 88343, Note_on_c, 0, 68, 0
2, 88440, Note_on_c, 0, 80, 62
2, 88463, Note_on_c, 0, 80, 0
2, 88560, Note_on_c, 0, 70, 62
2, 88560, Note_on_c, 0, 82, 62
2, 88583, Note_on_c, 0, 82, 0
2, 88583, Note_on_c, 0, 70, 0
2, 88680, Note_on_c, 0, 73, 62
2, 88680, Note_on_c, 0, 85, 62
2, 88703, Note_on_c, 0, 85, 0
2, 88703, Note_on_c, 0, 73, 0
2, 88800, Note_on_c, 0, 75, 62
2, 88800, Note_on_c, 0, 87, 62
2, 88823, Note_on_c, 0, 87, 0
2, 88823, Note_on_c, 0, 75, 0
2, 88920, Note_on_c, 0, 84, 62
2, 88943, Note_on_c, 0, 84, 0
2, 89040, Note_on_c, 0, 73, 62
2, 89040, Note_on_c, 0, 85, 62
2, 89063, Note_on_c, 0, 85, 0
2, 89063, Note_on_c, 0, 73, 0
2, 89160, Note_on_c, 0, 77, 62
2, 89160, Note_on_c, 0, 89, 62
2, 89183, Note_on_c, 0, 89, 0
2, 89183, Note_on_c, 0, 77, 0
2, 89280, Note_on_c, 0, 72, 62
2, 89280, Note_on_c, 0, 84, 62
2, 89303, Note_on_c, 0, 84, 0
2, 89303, Note_on_c, 0, 72, 0
2, 89400, Note_on_c, 0, 70, 62
2, 89400, Note_on_c, 0, 82, 62
2, 89423, Note_on_c, 0, 82, 0
2, 89423, Note_on_c, 0, 70, 0
2, 89520, Note_on_c, 0, 68, 62
2, 89520, Note_on_c, 0, 80, 62
2, 89543, Note_on_c, 0, 80, 0
2, 89543, Note_on_c, 0, 68, 0
2, 89640, Note_on_c, 0, 66, 62
2, 89640, Note_on_c, 0, 78, 62
2, 89663, Note_on_c, 0, 78, 0
2, 89663, Note_on_c, 0, 66, 0
2, 89760, Note_on_c, 0, 72, 62
2, 89760, Note_on_c, 0, 78, 62
2, 89760, Note_on_c, 0, 84, 62
2, 89783, Note_on_c, 0, 84, 0
2, 89783, Note_on_c, 0, 78, 0
2, 89783, Note_on_c, 0, 72, 0
2, 89880, Note_on_c, 0, 70, 62
2, 89880, Note_on_c, 0, 82, 62
2, 89903, Note_on_c, 0, 82, 0
2, 89903, Note_on_c, 0, 70, 0
2, 90000, Note_on_c, 0, 68, 62
2, 90000, Note_on_c, 0, 80, 62
2, 90023, Note_on_c, 0, 80, 0
2, 90023, Note_on_c, 0, 68, 0
2, 90120, Note_on_c, 0, 66, 62
2, 90120, Note_on_c, 0, 78, 62
2, 90143, Note_on_c, 0, 78, 0
2, 90143, Note_on_c, 0, 66, 0
2, 90240, Note_on_c, 0, 75, 62
2, 90263, Note_on_c, 0, 75, 0
2, 90360, Note_on_c, 0, 77, 62
2, 90383, Note_on_c, 0, 77, 0
2, 90480, Note_on_c, 0, 78, 62
2, 90503, Note_on_c, 0, 78, 0
2, 90600, Note_on_c, 0, 80, 62
2, 90623, Note_on_c, 0, 80, 0
2, 90720, Note_on_c, 0, 70, 62
2, 90720, Note_on_c, 0, 82, 62
2, 90743, Note_on_c, 0, 82, 0
2, 90743, Note_on_c, 0, 70, 0
2, 90840, Note_on_c, 0, 69, 62
2, 90840, Note_on_c, 0, 81, 62
2, 90863, Note_on_c, 0, 81, 0
2, 90863, Note_on_c, 0, 69, 0
2, 90960, Note_on_c, 0, 70, 62
2, 90960, Note_on_c, 0, 82, 62
2, 90983, Note_on_c, 0, 82, 0
2, 90983, Note_on_c, 0, 70, 0
2, 91080, Note_on_c, 0, 72, 62
2, 91080, Note_on_c, 0, 84, 62
2, 91103, Note_on_c, 0, 84, 0
2, 91103, Note_on_c, 0, 72, 0
2, 91200, Note_on_c, 0, 73, 62
2, 91200, Note_on_c, 0, 85, 62
2, 91223, Note_on_c, 0, 85, 0
2, 91223, Note_on_c, 0, 73, 0
2, 91320, Note_on_c, 0, 72, 62
2, 91320, Note_on_c, 0, 84, 62
2, 91343, Note_on_c, 0, 84, 0
2, 91343, Note_on_c, 0, 72, 0
2, 91440, Note_on_c, 0, 76, 62
2, 91463, Note_on_c, 0, 76, 0
2, 91560, Note_on_c, 0, 77, 62
2, 91583, Note_on_c, 0, 77, 0
2, 91680, Note_on_c, 0, 66, 62
2, 91680, Note_on_c, 0, 78, 62
2, 91703, Note_on_c, 0, 78, 0
2, 91703, Note_on_c, 0, 66, 0
2, 91800, Note_on_c, 0, 67, 62
2, 91800, Note_on_c, 0, 79, 62
2, 91823, Note_on_c, 0, 79, 0
2, 91823, Note_on_c, 0, 67, 0
2, 91920, Note_on_c, 0, 68, 62
2, 91920, Note_on_c, 0, 80, 62
2, 91943, Note_on_c, 0, 80, 0
2, 91943, Note_on_c, 0, 68, 0
2, 92040, Note_on_c, 0, 69, 62
2, 92040, Note_on_c, 0, 81, 62
2, 92063, Note_on_c, 0, 81, 0
2, 92063, Note_on_c, 0, 69, 0
2, 92160, Note_on_c, 0, 70, 62
2, 92160, Note_on_c, 0, 82, 62
2, 92207, Note_on_c, 0, 82, 0
2, 92207, Note_on_c, 0, 70, 0
2, 92400, Note_on_c, 0, 70, 75
2, 92640, Note_on_c, 0, 70, 0
2, 92640, Note_on_c, 0, 72, 75
2, 92880, Note_on_c, 0, 72, 0
2, 92880, Note_on_c, 0, 73, 75
2, 93120, Note_on_c, 0, 73, 0
2, 93120, Note_on_c, 0, 63, 101
2, 93120, Note_on_c, 0, 68, 101
2, 93120, Note_on_c, 0, 72, 101
2, 93120, Note_on_c, 0, 75, 101
2, 93600, Note_on_c, 0, 75, 0
2, 93600, Note_on_c, 0, 63, 0
2, 93600, Note_on_c, 0, 68, 0
2, 93600, Note_on_c, 0, 72, 0
2, 93600, Note_on_c, 0, 63, 101
2, 93600, Note_on_c, 0, 68, 101
2, 93600, Note_on_c, 0, 72, 101
2, 93600, Note_on_c, 0, 75, 101
2, 94080, Note_on_c, 0, 75, 0
2, 94080, Note_on_c, 0, 63, 0
2, 94080, Note_on_c, 0, 68, 0
2, 94080, Note_on_c, 0, 72, 0
2, 94080, Note_on_c, 0, 63, 101
2, 94080, Note_on_c, 0, 68, 101
2, 94080, Note_on_c, 0, 72, 101
2, 94080, Note_on_c, 0, 75, 101
2, 94320, Note_on_c, 0, 75, 0
2, 94320, Note_on_c, 0, 63, 0
2, 94320, Note_on_c, 0, 68, 0
2, 94320, Note_on_c, 0, 72, 0
2, 94320, Note_on_c, 0, 63, 75
2, 94320, Note_on_c, 0, 75, 75
2, 94560, Note_on_c, 0, 75, 0
2, 94560, Note_on_c, 0, 63, 0
2, 94560, Note_on_c, 0, 73, 75
2, 94800, Note_on_c, 0, 73, 0
2, 94800, Note_on_c, 0, 72, 75
2, 95040, Note_on_c, 0, 72, 0
2, 95040, Note_on_c, 0, 70, 114
2, 95040, Note_on_c, 0, 73, 114
2, 95040, Note_on_c, 0, 82, 114
2, 95280, Note_on_c, 0, 82, 0
2, 95280, Note_on_c, 0, 73, 0
2, 95280, Note_on_c, 0, 70, 0
2, 95280, Note_on_c, 0, 68, 88
2, 95280, Note_on_c, 0, 80, 88
2, 95400, Note_on_c, 0, 80, 0
2, 95400, Note_on_c, 0, 68, 0
2, 95400, Note_on_c, 0, 66, 75
2, 95400, Note_on_c, 0, 78, 75
2, 95520, Note_on_c, 0, 78, 0
2, 95520, Note_on_c, 0, 66, 0
2, 95520, Note_on_c, 0, 65, 75
2, 95520, Note_on_c, 0, 77, 75
2, 95760, Note_on_c, 0, 77, 0
2, 95760, Note_on_c, 0, 65, 0
2, 95760, Note_on_c, 0, 75, 75
2, 95880, Note_on_c, 0, 75, 0
2, 95880, Note_on_c, 0, 73, 75
2, 96000, Note_on_c, 0, 73, 0
2, 96000, Note_on_c, 0, 72, 75
2, 96240, Note_on_c, 0, 72, 0
2, 96240, Note_on_c, 0, 70, 75
2, 96480, Note_on_c, 0, 70, 0
2, 96480, Note_on_c, 0, 72, 75
2, 96720, Note_on_c, 0, 72, 0
2, 96720, Note_on_c, 0, 73, 75
2, 96960, Note_on_c, 0, 73, 0
2, 96960, Note_on_c, 0, 63, 101
2, 96960, Note_on_c, 0, 68, 101
2, 96960, Note_on_c, 0, 72, 101
2, 96960, Note_on_c, 0, 75, 101
2, 97440, Note_on_c, 0, 75, 0
2, 97440, Note_on_c, 0, 63, 0
2, 97440, Note_on_c, 0, 68, 0
2, 97440, Note_on_c, 0, 72, 0
2, 97440, Note_on_c, 0, 63, 101
2, 97440, Note_on_c, 0, 68, 101
2, 97440, Note_on_c, 0, 72, 101
2, 97440, Note_on_c, 0, 75, 101
2, 97920, Note_on_c, 0, 75, 0
2, 97920, Note_on_c, 0, 63, 0
2, 97920, Note_on_c, 0, 68, 0
2, 97920, Note_on_c, 0, 72, 0
2, 97920, Note_on_c, 0, 63, 101
2, 97920, Note_on_c, 0, 68, 101
2, 97920, Note_on_c, 0, 72, 101
2, 97920, Note_on_c, 0, 75, 101
2, 98160, Note_on_c, 0, 75, 0
2, 98160, Note_on_c, 0, 63, 0
2, 98160, Note_on_c, 0, 68, 0
2, 98160, Note_on_c, 0, 72, 0
2, 98160, Note_on_c, 0, 63, 75
2, 98160, Note_on_c, 0, 75, 75
2, 98400, Note_on_c, 0, 75, 0
2, 98400, Note_on_c, 0, 63, 0
2, 98400, Note_on_c, 0, 61, 75
2, 98400, Note_on_c, 0, 73, 75
2, 98640, Note_on_c, 0, 73, 0
2, 98640, Note_on_c, 0, 61, 0
2, 98640, Note_on_c, 0, 60, 75
2, 98640, Note_on_c, 0, 72, 75
2, 98880, Note_on_c, 0, 72, 0
2, 98880, Note_on_c, 0, 60, 0
2, 98880, Note_on_c, 0, 58, 101
2, 98880, Note_on_c, 0, 63, 101
2, 98880, Note_on_c, 0, 66, 101
2, 98880, Note_on_c, 0, 70, 101
2, 99120, Note_on_c, 0, 70, 0
2, 99120, Note_on_c, 0, 58, 0
2, 99120, Note_on_c, 0, 63, 0
2, 99120, Note_on_c, 0, 66, 0
2, 99120, Note_on_c, 0, 68, 75
2, 99240, Note_on_c, 0, 68, 0
2, 99240, Note_on_c, 0, 66, 75
2, 99360, Note_on_c, 0, 66, 0
2, 99360, Note_on_c, 0, 65, 75
2, 99600, Note_on_c, 0, 65, 0
2, 99600, Note_on_c, 0, 63, 75
2, 99720, Note_on_c, 0, 63, 0
2, 99720, Note_on_c, 0, 65, 75
2, 99840, Note_on_c, 0, 65, 0
2, 99840, Note_on_c, 0, 66, 75
2, 100080, Note_on_c, 0, 66, 0
2, 100080, Note_on_c, 0, 68, 75
2, 100200, Note_on_c, 0, 68, 0
2, 100200, Note_on_c, 0, 70, 75
2, 100320, Note_on_c, 0, 70, 0
2, 100320, Note_on_c, 0, 60, 75
2, 100320, Note_on_c, 0, 72, 75
2, 100560, Note_on_c, 0, 72, 0
2, 100560, Note_on_c, 0, 60, 0
2, 100560, Note_on_c, 0, 61, 75
2, 100560, Note_on_c, 0, 73, 75
2, 100607, Note_on_c, 0, 73, 0
2, 100607, Note_on_c, 0, 61, 0
2, 100800, Note_on_c, 0, 63, 101
2, 100800, Note_on_c, 0, 68, 101
2, 100800, Note_on_c, 0, 72, 101
2, 100800, Note_on_c, 0, 75, 101
2, 101280, Note_on_c, 0, 75, 0
2, 101280, Note_on_c, 0, 63, 0
2, 101280, Note_on_c, 0, 68, 0
2, 101280, Note_on_c, 0, 72, 0
2, 101280, Note_on_c, 0, 63, 101
2, 101280, Note_on_c, 0, 68, 101
2, 101280, Note_on_c, 0, 72, 101
2, 101280, Note_on_c, 0, 75, 101
2, 101760, Note_on_c, 0, 75, 0
2, 101760, Note_on_c, 0, 63, 0
2, 101760, Note_on_c, 0, 68, 0
2, 101760, Note_on_c, 0, 72, 0
2, 101760, Note_on_c, 0, 63, 101
2, 101760, Note_on_c, 0, 68, 101
2, 101760, Note_on_c, 0, 72, 101
2, 101760, Note_on_c, 0, 75, 101
2, 102000, Note_on_c, 0, 75, 0
2, 102000, Note_on_c, 0, 63, 0
2, 102000, Note_on_c, 0, 68, 0
2, 102000, Note_on_c, 0, 72, 0
2, 102000, Note_on_c, 0, 63, 75
2, 102000, Note_on_c, 0, 75, 75
2, 102240, Note_on_c, 0, 75, 0
2, 102240, Note_on_c, 0, 63, 0
2, 102240, Note_on_c, 0, 73, 75
2, 102480, Note_on_c, 0, 73, 0
2, 102480, Note_on_c, 0, 72, 75
2, 102720, Note_on_c, 0, 72, 0
2, 102720, Note_on_c, 0, 70, 114
2, 102720, Note_on_c, 0, 73, 114
2, 102720, Note_on_c, 0, 82, 114
2, 102960, Note_on_c, 0, 82, 0
2, 102960, Note_on_c, 0, 73, 0
2, 102960, Note_on_c, 0, 70, 0
2, 102960, Note_on_c, 0, 68, 88
2, 102960, Note_on_c, 0, 80, 88
2, 103080, Note_on_c, 0, 80, 0
2, 103080, Note_on_c, 0, 68, 0
2, 103080, Note_on_c, 0, 66, 75
2, 103080, Note_on_c, 0, 78, 75
2, 103200, Note_on_c, 0, 78, 0
2, 103200, Note_on_c, 0, 66, 0
2, 103200, Note_on_c, 0, 65, 75
2, 103200, Note_on_c, 0, 77, 75
2, 103440, Note_on_c, 0, 77, 0
2, 103440, Note_on_c, 0, 65, 0
2, 103440, Note_on_c, 0, 75, 75
2, 103560, Note_on_c, 0, 75, 0
2, 103560, Note_on_c, 0, 73, 75
2, 103680, Note_on_c, 0, 73, 0
2, 103680, Note_on_c, 0, 72, 75
2, 103920, Note_on_c, 0, 72, 0
2, 103920, Note_on_c, 0, 70, 75
2, 104160, Note_on_c, 0, 70, 0
2, 104160, Note_on_c, 0, 72, 75
2, 104400, Note_on_c, 0, 72, 0
2, 104400, Note_on_c, 0, 73, 75
2, 104640, Note_on_c, 0, 73, 0
2, 104640, Note_on_c, 0, 63, 101
2, 104640, Note_on_c, 0, 68, 101
2, 104640, Note_on_c, 0, 72, 101
2, 104640, Note_on_c, 0, 75, 101
2, 105120, Note_on_c, 0, 75, 0
2, 105120, Note_on_c, 0, 63, 0
2, 105120, Note_on_c, 0, 68, 0
2, 105120, Note_on_c, 0, 72, 0
2, 105120, Note_on_c, 0, 63, 101
2, 105120, Note_on_c, 0, 68, 101
2, 105120, Note_on_c, 0, 72, 101
2, 105120, Note_on_c, 0, 75, 101
2, 105600, Note_on_c, 0, 75, 0
2, 105600, Note_on_c, 0, 63, 0
2, 105600, Note_on_c, 0, 68, 0
2, 105600, Note_on_c, 0, 72, 0
2, 105600, Note_on_c, 0, 63, 101
2, 105600, Note_on_c, 0, 68, 101
2, 105600, Note_on_c, 0, 72, 101
2, 105600, Note_on_c, 0, 75, 101
2, 105840, Note_on_c, 0, 75, 0
2, 105840, Note_on_c, 0, 63, 0
2, 105840, Note_on_c, 0, 68, 0
2, 105840, Note_on_c, 0, 72, 0
2, 105840, Note_on_c, 0, 72, 75
2, 105960, Note_on_c, 0, 72, 0
2, 105960, Note_on_c, 0, 73, 75
2, 106080, Note_on_c, 0, 73, 0
2, 106080, Note_on_c, 0, 63, 75
2, 106080, Note_on_c, 0, 75, 75
2, 106320, Note_on_c, 0, 75, 0
2, 106320, Note_on_c, 0, 63, 0
2, 106320, Note_on_c, 0, 65, 75
2, 106320, Note_on_c, 0, 77, 75
2, 106367, Note_on_c, 0, 77, 0
2, 106367, Note_on_c, 0, 65, 0
2, 106560, Note_on_c, 0, 66, 101
2, 106560, Note_on_c, 0, 71, 101
2, 106560, Note_on_c, 0, 75, 101
2, 106560, Note_on_c, 0, 78, 101
2, 107040, Note_on_c, 0, 78, 0
2, 107040, Note_on_c, 0, 66, 0
2, 107040, Note_on_c, 0, 71, 0
2, 107040, Note_on_c, 0, 75, 0
2, 107040, Note_on_c, 0, 66, 101
2, 107040, Note_on_c, 0, 71, 101
2, 107040, Note_on_c, 0, 75, 101
2, 107040, Note_on_c, 0, 78, 101
2, 107520, Note_on_c, 0, 78, 0
2, 107520, Note_on_c, 0, 66, 0
2, 107520, Note_on_c, 0, 71, 0
2, 107520, Note_on_c, 0, 75, 0
2, 107520, Note_on_c, 0, 66, 101
2, 107520, Note_on_c, 0, 71, 101
2, 107520, Note_on_c, 0, 75, 101
2, 107520, Note_on_c, 0, 78, 101
2, 107760, Note_on_c, 0, 78, 0
2, 107760, Note_on_c, 0, 66, 0
2, 107760, Note_on_c, 0, 71, 0
2, 107760, Note_on_c, 0, 75, 0
2, 107760, Note_on_c, 0, 75, 75
2, 107880, Note_on_c, 0, 75, 0
2, 107880, Note_on_c, 0, 77, 75
2, 108000, Note_on_c, 0, 77, 0
2, 108000, Note_on_c, 0, 66, 75
2, 108000, Note_on_c, 0, 78, 75
2, 108240, Note_on_c, 0, 78, 0
2, 108240, Note_on_c, 0, 66, 0
2, 108240, Note_on_c, 0, 68, 88
2, 108240, Note_on_c, 0, 80, 88
2, 108287, Note_on_c, 0, 80, 0
2, 108287, Note_on_c, 0, 68, 0
2, 108480, Note_on_c, 0, 69, 114
2, 108480, Note_on_c, 0, 74, 114
2, 108480, Note_on_c, 0, 78, 114
2, 108480, Note_on_c, 0, 81, 114
2, 108960, Note_on_c, 0, 81, 0
2, 108960, Note_on_c, 0, 69, 0
2, 108960, Note_on_c, 0, 74, 0
2, 108960, Note_on_c, 0, 78, 0
2, 108960, Note_on_c, 0, 69, 114
2, 108960, Note_on_c, 0, 74, 114
2, 108960, Note_on_c, 0, 78, 114
2, 108960, Note_on_c, 0, 81, 114
2, 109440, Note_on_c, 0, 81, 0
2, 109440, Note_on_c, 0, 69, 0
2, 109440, Note_on_c, 0, 74, 0
2, 109440, Note_on_c, 0, 78, 0
2, 109440, Note_on_c, 0, 69, 114
2, 109440, Note_on_c, 0, 74, 114
2, 109440, Note_on_c, 0, 78, 114
2, 109440, Note_on_c, 0, 81, 114
2, 109680, Note_on_c, 0, 81, 0
2, 109680, Note_on_c, 0, 69, 0
2, 109680, Note_on_c, 0, 74, 0
2, 109680, Note_on_c, 0, 78, 0
2, 109680, Note_on_c, 0, 78, 88
2, 109800, Note_on_c, 0, 78, 0
2, 109800, Note_on_c, 0, 80, 88
2, 109920, Note_on_c, 0, 80, 0
2, 109920, Note_on_c, 0, 69, 88
2, 109920, Note_on_c, 0, 81, 88
2, 110160, Note_on_c, 0, 81, 0
2, 110160, Note_on_c, 0, 69, 0
2, 110160, Note_on_c, 0, 71, 114
2, 110160, Note_on_c, 0, 83, 114
2, 110400, Note_on_c, 0, 83, 0
2, 110400, Note_on_c, 0, 71, 0
2, 110400, Control_c, 0, 64, 127
2, 110400, Note_on_c, 0, 72, 114
2, 110400, Note_on_c, 0, 77, 114
2, 110400, Note_on_c, 0, 81, 114
2, 110400, Note_on_c, 0, 84, 114
2, 110880, Note_on_c, 0, 84, 0
2, 110880, Note_on_c, 0, 72, 0
2, 110880, Note_on_c, 0, 77, 0
2, 110880, Note_on_c, 0, 81, 0
2, 110880, Note_on_c, 0, 72, 114
2, 110880, Note_on_c, 0, 77, 114
2, 110880, Note_on_c, 0, 81, 114
2, 110880, Note_on_c, 0, 84, 114
2, 111360, Note_on_c, 0, 84, 0
2, 111360, Note_on_c, 0, 72, 0
2, 111360, Note_on_c, 0, 77, 0
2, 111360, Note_on_c, 0, 81, 0
2, 111360, Note_on_c, 0, 84, 88
2, 111600, Note_on_c, 0, 84, 0
2, 111600, Note_on_c, 0, 86, 88
2, 111720, Note_on_c, 0, 86, 0
2, 111720, Note_on_c, 0, 88, 88
2, 111840, Note_on_c, 0, 88, 0
2, 111840, Note_on_c, 0, 89, 88
2, 112080, Note_on_c, 0, 89, 0
2, 112080, Control_c, 0, 64, 0
2, 112080, Note_on_c, 0, 88, 88
2, 112320, Note_on_c, 0, 88, 0
2, 112320, Note_on_c, 0, 88, 88
2, 112680, Note_on_c, 0, 88, 0
2, 112680, Note_on_c, 0, 86, 88
2, 112800, Note_on_c, 0, 86, 0
2, 112800, Note_on_c, 0, 86, 88
2, 113040, Note_on_c, 0, 86, 0
2, 113040, Note_on_c, 0, 85, 88
2, 113280, Note_on_c, 0, 85, 0
2, 113280, Note_on_c, 0, 85, 88
2, 113640, Note_on_c, 0, 85, 0
2, 113640, Note_on_c, 0, 84, 88
2, 113760, Note_on_c, 0, 84, 0
2, 113760, Note_on_c, 0, 84, 88
2, 114000, Note_on_c, 0, 84, 0
2, 114000, Note_on_c, 0, 77, 75
2, 114240, Note_on_c, 0, 77, 0
2, 114240, Note_on_c, 0, 76, 75
2, 114600, Note_on_c, 0, 76, 0
2, 114600, Note_on_c, 0, 74, 75
2, 114720, Note_on_c, 0, 74, 0
2, 114720, Note_on_c, 0, 74, 75
2, 114960, Note_on_c, 0, 74, 0
2, 114960, Note_on_c, 0, 73, 75
2, 115200, Note_on_c, 0, 73, 0
2, 115200, Note_on_c, 0, 73, 75
2, 115560, Note_on_c, 0, 73, 0
2, 115560, Note_on_c, 0, 72, 75
2, 115680, Note_on_c, 0, 72, 0
2, 115680, Note_on_c, 0, 72, 75
2, 115920, Note_on_c, 0, 72, 0
2, 115920, Note_on_c, 0, 65, 75
2, 116160, Note_on_c, 0, 65, 0
2, 116160, Note_on_c, 0, 64, 75
2, 116520, Note_on_c, 0, 64, 0
2, 116520, Note_on_c, 0, 62, 75
2, 116640, Note_on_c, 0, 62, 0
2, 116640, Note_on_c, 0, 62, 75
2, 116880, Note_on_c, 0, 62, 0
2, 116880, Note_on_c, 0, 64, 75
2, 117120, Note_on_c, 0, 64, 0
2, 117120, Note_on_c, 0, 62, 75
2, 117480, Note_on_c, 0, 62, 0
2, 117480, Note_on_c, 0, 61, 75
2, 117600, Note_on_c, 0, 61, 0
2, 117600, Note_on_c, 0, 61, 75
2, 117840, Note_on_c, 0, 61, 0
2, 117840, Note_on_c, 0, 60, 75
2, 118080, Note_on_c, 0, 60, 0
2, 120000, Note_on_c, 0, 65, 75
2, 120360, Note_on_c, 0, 65, 0
2, 120360, Note_on_c, 0, 64, 75
2, 120480, Note_on_c, 0, 64, 0
2, 120480, Note_on_c, 0, 64, 75
2, 120720, Note_on_c, 0, 64, 0
2, 120720, Note_on_c, 0, 62, 75
2, 120960, Note_on_c, 0, 62, 0
2, 120960, Note_on_c, 0, 62, 75
2, 121320, Note_on_c, 0, 62, 0
2, 121320, Note_on_c, 0, 60, 75
2, 121440, Note_on_c, 0, 60, 0
2, 121440, Note_on_c, 0, 60, 75
2, 121680, Note_on_c, 0, 60, 0
2, 121680, Note_on_c, 0, 62, 75
2, 121920, Note_on_c, 0, 62, 0
2, 121920, Note_on_c, 0, 64, 75
2, 122160, Note_on_c, 0, 64, 0
2, 122160, Note_on_c, 0, 65, 75
2, 122400, Note_on_c, 0, 65, 0
2, 122400, Note_on_c, 0, 64, 75
2, 122640, Note_on_c, 0, 64, 0
2, 122640, Note_on_c, 0, 62, 75
2, 122880, Note_on_c, 0, 62, 0
2, 122880, Note_on_c, 0, 62, 75
2, 123240, Note_on_c, 0, 62, 0
2, 123240, Note_on_c, 0, 60, 75
2, 123360, Note_on_c, 0, 60, 0
2, 123360, Note_on_c, 0, 60, 75
2, 123600, Note_on_c, 0, 60, 0
2, 123600, Note_on_c, 0, 62, 75
2, 123840, Note_on_c, 0, 62, 0
2, 123840, Note_on_c, 0, 64, 75
2, 124080, Note_on_c, 0, 64, 0
2, 124080, Note_on_c, 0, 65, 75
2, 124320, Note_on_c, 0, 65, 0
2, 124320, Note_on_c, 0, 64, 75
2, 124560, Note_on_c, 0, 64, 0
2, 124560, Note_on_c, 0, 62, 75
2, 124800, Note_on_c, 0, 62, 0
2, 124800, Note_on_c, 0, 62, 75
2, 125160, Note_on_c, 0, 62, 0
2, 125160, Note_on_c, 0, 61, 75
2, 125280, Note_on_c, 0, 61, 0
2, 125280, Note_on_c, 0, 61, 75
2, 125520, Note_on_c, 0, 61, 0
2, 125520, Note_on_c, 0, 62, 75
2, 125760, Note_on_c, 0, 62, 0
2, 125760, Note_on_c, 0, 64, 75
2, 126000, Note_on_c, 0, 64, 0
2, 126000, Note_on_c, 0, 65, 75
2, 126240, Note_on_c, 0, 65, 0
2, 126240, Note_on_c, 0, 64, 75
2, 126480, Note_on_c, 0, 64, 0
2, 126480, Note_on_c, 0, 62, 75
2, 126720, Note_on_c, 0, 62, 0
2, 126720, Note_on_c, 0, 62, 75
2, 127080, Note_on_c, 0, 62, 0
2, 127080, Note_on_c, 0, 59, 75
2, 127200, Note_on_c, 0, 59, 0
2, 127200, Note_on_c, 0, 59, 75
2, 127440, Note_on_c, 0, 59, 0
2, 127440, Note_on_c, 0, 60, 75
2, 127680, Note_on_c, 0, 60, 0
2, 127920, Note_on_c, 0, 69, 75
2, 128160, Note_on_c, 0, 69, 0
2, 128160, Note_on_c, 0, 70, 75
2, 128400, Note_on_c, 0, 70, 0
2, 128400, Note_on_c, 0, 71, 75
2, 128640, Note_on_c, 0, 71, 0
2, 128640, Note_on_c, 0, 71, 75
2, 129120, Note_on_c, 0, 71, 0
2, 129120, Note_on_c, 0, 72, 75
2, 129600, Note_on_c, 0, 72, 0
2, 129600, Note_on_c, 0, 72, 75
2, 129840, Note_on_c, 0, 72, 0
2, 129840, Note_on_c, 0, 74, 75
2, 130080, Note_on_c, 0, 74, 0
2, 130080, Note_on_c, 0, 76, 75
2, 130320, Note_on_c, 0, 76, 0
2, 130320, Note_on_c, 0, 65, 75
2, 130320, Note_on_c, 0, 77, 75
2, 130560, Note_on_c, 0, 77, 0
2, 130560, Note_on_c, 0, 65, 0
2, 130560, Note_on_c, 0, 66, 75
2, 130560, Note_on_c, 0, 78, 75
2, 131040, Note_on_c, 0, 78, 0
2, 131040, Note_on_c, 0, 66, 0
2, 131040, Note_on_c, 0, 67, 75
2, 131040, Note_on_c, 0, 79, 75
2, 131520, Note_on_c, 0, 79, 0
2, 131520, Note_on_c, 0, 67, 0
2, 131520, Note_on_c, 0, 69, 75
2, 131520, Note_on_c, 0, 81, 75
2, 132000, Note_on_c, 0, 81, 0
2, 132000, Note_on_c, 0, 69, 0
2, 132000, Note_on_c, 0, 70, 75
2, 132000, Note_on_c, 0, 82, 75
2, 132240, Note_on_c, 0, 82, 0
2, 132240, Note_on_c, 0, 70, 0
2, 132240, Note_on_c, 0, 71, 75
2, 132240, Note_on_c, 0, 83, 75
2, 132480, Note_on_c, 0, 83, 0
2, 132480, Note_on_c, 0, 71, 0
2, 132480, Note_on_c, 0, 71, 75
2, 132480, Note_on_c, 0, 83, 75
2, 132960, Note_on_c, 0, 83, 0
2, 132960, Note_on_c, 0, 71, 0
2, 132960, Note_on_c, 0, 72, 75
2, 132960, Note_on_c, 0, 84, 75
2, 133440, Note_on_c, 0, 84, 0
2, 133440, Note_on_c, 0, 72, 0
2, 133440, Control_c, 0, 64, 127
2, 133440, Note_on_c, 0, 73, 75
2, 133440, Note_on_c, 0, 85, 75
2, 133680, Note_on_c, 0, 85, 0
2, 133680, Note_on_c, 0, 73, 0
2, 133680, Note_on_c, 0, 74, 75
2, 133680, Note_on_c, 0, 86, 75
2, 133920, Note_on_c, 0, 86, 0
2, 133920, Note_on_c, 0, 74, 0
2, 133920, Note_on_c, 0, 76, 75
2, 133920, Note_on_c, 0, 88, 75
2, 134160, Note_on_c, 0, 88, 0
2, 134160, Note_on_c, 0, 76, 0
2, 134160, Note_on_c, 0, 77, 75
2, 134160, Note_on_c, 0, 89, 75
2, 134400, Note_on_c, 0, 89, 0
2, 134400, Note_on_c, 0, 77, 0
2, 134400, Control_c, 0, 64, 0
2, 134400, Note_on_c, 0, 79, 75
2, 134400, Note_on_c, 0, 91, 75
2, 135360, Note_on_c, 0, 91, 0
2, 135360, Note_on_c, 0, 79, 0
2, 135360, Note_on_c, 0, 80, 101
2, 135360, Note_on_c, 0, 84, 101
2, 135360, Note_on_c, 0, 92, 101
2, 135720, Note_on_c, 0, 92, 0
2, 135720, Note_on_c, 0, 84, 0
2, 135720, Note_on_c, 0, 80, 0
2, 135720, Note_on_c, 0, 79, 101
2, 135720, Note_on_c, 0, 91, 101
2, 135840, Note_on_c, 0, 91, 0
2, 135840, Note_on_c, 0, 79, 0
2, 135840, Note_on_c, 0, 79, 101
2, 135840, Note_on_c, 0, 91, 101
2, 136080, Note_on_c, 0, 91, 0
2, 136080, Note_on_c, 0, 79, 0
2, 136080, Note_on_c, 0, 77, 101
2, 136080, Note_on_c, 0, 89, 101
2, 136320, Note_on_c, 0, 89, 0
2, 136320, Note_on_c, 0, 77, 0
2, 136320, Note_on_c, 0, 77, 101
2, 136320, Note_on_c, 0, 89, 101
2, 136680, Note_on_c, 0, 89, 0
2, 136680, Note_on_c, 0, 77, 0
2, 136680, Note_on_c, 0, 75, 101
2, 136680, Note_on_c, 0, 87, 101
2, 136800, Note_on_c, 0, 87, 0
2, 136800, Note_on_c, 0, 75, 0
2, 136800, Note_on_c, 0, 75, 101
2, 136800, Note_on_c, 0, 87, 101
2, 137040, Note_on_c, 0, 87, 0
2, 137040, Note_on_c, 0, 75, 0
2, 137040, Note_on_c, 0, 77, 101
2, 137040, Note_on_c, 0, 89, 101
2, 137280, Note_on_c, 0, 89, 0
2, 137280, Note_on_c, 0, 77, 0
2, 137280, Note_on_c, 0, 79, 101
2, 137280, Note_on_c, 0, 91, 101
2, 137520, Note_on_c, 0, 91, 0
2, 137520, Note_on_c, 0, 79, 0
2, 137520, Note_on_c, 0, 80, 101
2, 137520, Note_on_c, 0, 92, 101
2, 137760, Note_on_c, 0, 92, 0
2, 137760, Note_on_c, 0, 80, 0
2, 137760, Note_on_c, 0, 79, 101
2, 137760, Note_on_c, 0, 91, 101
2, 138000, Note_on_c, 0, 91, 0
2, 138000, Note_on_c, 0, 79, 0
2, 138000, Note_on_c, 0, 77, 101
2, 138000, Note_on_c, 0, 89, 101
2, 138240, Note_on_c, 0, 89, 0
2, 138240, Note_on_c, 0, 77, 0
2, 138240, Note_on_c, 0, 77, 101
2, 138240, Note_on_c, 0, 89, 101
2, 138600, Note_on_c, 0, 89, 0
2, 138600, Note_on_c, 0, 77, 0
2, 138600, Note_on_c, 0, 75, 101
2, 138600, Note_on_c, 0, 87, 101
2, 138720, Note_on_c, 0, 87, 0
2, 138720, Note_on_c, 0, 75, 0
2, 138720, Note_on_c, 0, 75, 101
2, 138720, Note_on_c, 0, 87, 101
2, 138960, Note_on_c, 0, 87, 0
2, 138960, Note_on_c, 0, 75, 0
2, 138960, Note_on_c, 0, 77, 101
2, 138960, Note_on_c, 0, 89, 101
2, 139200, Note_on_c, 0, 89, 0
2, 139200, Note_on_c, 0, 77, 0
2, 139200, Note_on_c, 0, 79, 101
2, 139200, Note_on_c, 0, 91, 101
2, 139440, Note_on_c, 0, 91, 0
2, 139440, Note_on_c, 0, 79, 0
2, 139440, Note_on_c, 0, 80, 101
2, 139440, Note_on_c, 0, 92, 101
2, 139680, Note_on_c, 0, 92, 0
2, 139680, Note_on_c, 0, 80, 0
2, 139680, Note_on_c, 0, 79, 101
2, 139680, Note_on_c, 0, 91, 101
2, 139920, Note_on_c, 0, 91, 0
2, 139920, Note_on_c, 0, 79, 0
2, 139920, Note_on_c, 0, 77, 101
2, 139920, Note_on_c, 0, 89, 101
2, 140160, Note_on_c, 0, 89, 0
2, 140160, Note_on_c, 0, 77, 0
2, 140160, Note_on_c, 0, 77, 101
2, 140160, Note_on_c, 0, 89, 101
2, 140520, Note_on_c, 0, 89, 0
2, 140520, Note_on_c, 0, 77, 0
2, 140520, Note_on_c, 0, 76, 101
2, 140520, Note_on_c, 0, 88, 101
2, 140640, Note_on_c, 0, 88, 0
2, 140640, Note_on_c, 0, 76, 0
2, 140640, Note_on_c, 0, 76, 101
2, 140640, Note_on_c, 0, 88, 101
2, 140880, Note_on_c, 0, 88, 0
2, 140880, Note_on_c, 0, 76, 0
2, 140880, Note_on_c, 0, 77, 101
2, 140880, Note_on_c, 0, 89, 101
2, 141120, Note_on_c, 0, 89, 0
2, 141120, Note_on_c, 0, 77, 0
2, 141120, Note_on_c, 0, 79, 101
2, 141120, Note_on_c, 0, 88, 101
2, 141120, Note_on_c, 0, 91, 101
2, 141360, Note_on_c, 0, 91, 0
2, 141360, Note_on_c, 0, 88, 0
2, 141360, Note_on_c, 0, 79, 0
2, 141360, Note_on_c, 0, 80, 101
2, 141360, Note_on_c, 0, 87, 101
2, 141360, Note_on_c, 0, 92, 101
2, 141600, Note_on_c, 0, 92, 0
2, 141600, Note_on_c, 0, 87, 0
2, 141600, Note_on_c, 0, 80, 0
2, 141600, Note_on_c, 0, 79, 101
2, 141600, Note_on_c, 0, 86, 101
2, 141600, Note_on_c, 0, 91, 101
2, 141840, Note_on_c, 0, 91, 0
2, 141840, Note_on_c, 0, 86, 0
2, 141840, Note_on_c, 0, 79, 0
2, 141840, Note_on_c, 0, 77, 101
2, 141840, Note_on_c, 0, 89, 101
2, 142080, Note_on_c, 0, 89, 0
2, 142080, Note_on_c, 0, 77, 0
2, 142080, Note_on_c, 0, 77, 101
2, 142080, Note_on_c, 0, 89, 101
2, 142440, Note_on_c, 0, 89, 0
2, 142440, Note_on_c, 0, 77, 0
2, 142440, Note_on_c, 0, 75, 101
2, 142440, Note_on_c, 0, 87, 101
2, 142560, Note_on_c, 0, 87, 0
2, 142560, Note_on_c, 0, 75, 0
2, 142560, Note_on_c, 0, 75, 101
2, 142560, Note_on_c, 0, 87, 101
2, 143040, Note_on_c, 0, 87, 0
2, 143040, Note_on_c, 0, 75, 0
2, 143040, Note_on_c, 0, 73, 101
2, 143040, Note_on_c, 0, 75, 101
2, 143040, Note_on_c, 0, 79, 101
2, 143040, Note_on_c, 0, 85, 101
2, 143520, Note_on_c, 0, 85, 0
2, 143520, Note_on_c, 0, 73, 0
2, 143520, Note_on_c, 0, 75, 0
2, 143520, Note_on_c, 0, 79, 0
2, 143520, Note_on_c, 0, 75, 101
2, 143520, Note_on_c, 0, 84, 101
2, 143760, Note_on_c, 0, 84, 0
2, 143760, Note_on_c, 0, 75, 0
2, 143760, Note_on_c, 0, 73, 101
2, 143760, Note_on_c, 0, 82, 101
2, 144000, Note_on_c, 0, 82, 0
2, 144000, Note_on_c, 0, 73, 0
2, 144000, Note_on_c, 0, 82, 101
2, 144360, Note_on_c, 0, 82, 0
2, 144360, Note_on_c, 0, 80, 101
2, 144480, Note_on_c, 0, 80, 0
2, 144480, Note_on_c, 0, 80, 101
2, 144960, Note_on_c, 0, 80, 0
2, 144960, Note_on_c, 0, 75, 101
2, 144960, Note_on_c, 0, 77, 101
2, 144960, Note_on_c, 0, 87, 101
2, 145440, Note_on_c, 0, 87, 0
2, 145440, Note_on_c, 0, 77, 0
2, 145440, Note_on_c, 0, 75, 0
2, 145440, Note_on_c, 0, 77, 101
2, 145440, Note_on_c, 0, 85, 101
2, 145680, Note_on_c, 0, 85, 0
2, 145680, Note_on_c, 0, 77, 0
2, 145680, Note_on_c, 0, 75, 101
2, 145680, Note_on_c, 0, 84, 101
2, 145920, Note_on_c, 0, 84, 0
2, 145920, Note_on_c, 0, 75, 0
2, 145920, Note_on_c, 0, 84, 101
2, 146280, Note_on_c, 0, 84, 0
2, 146280, Note_on_c, 0, 82, 101
2, 146400, Note_on_c, 0, 82, 0
2, 146400, Note_on_c, 0, 82, 101
2, 146880, Note_on_c, 0, 82, 0
2, 146880, Note_on_c, 0, 85, 101
2, 147240, Note_on_c, 0, 85, 0
2, 147240, Note_on_c, 0, 84, 101
2, 147360, Note_on_c, 0, 84, 0
2, 147360, Note_on_c, 0, 84, 101
2, 147840, Note_on_c, 0, 84, 0
2, 147840, Note_on_c, 0, 87, 101
2, 148200, Note_on_c, 0, 87, 0
2, 148200, Note_on_c, 0, 85, 101
2, 148320, Note_on_c, 0, 85, 0
2, 148320, Note_on_c, 0, 85, 101
2, 148800, Note_on_c, 0, 85, 0
2, 148800, Note_on_c, 0, 80, 101
2, 148800, Note_on_c, 0, 83, 101
2, 148800, Note_on_c, 0, 86, 101
2, 148800, Note_on_c, 0, 92, 101
2, 149160, Note_on_c, 0, 92, 0
2, 149160, Note_on_c, 0, 80, 0
2, 149160, Note_on_c, 0, 83, 0
2, 149160, Note_on_c, 0, 86, 0
2, 149160, Note_on_c, 0, 79, 101
2, 149160, Note_on_c, 0, 91, 101
2, 149280, Note_on_c, 0, 91, 0
2, 149280, Note_on_c, 0, 79, 0
2, 149280, Note_on_c, 0, 79, 101
2, 149280, Note_on_c, 0, 91, 101
2, 149640, Note_on_c, 0, 91, 0
2, 149640, Note_on_c, 0, 79, 0
2, 149640, Note_on_c, 0, 77, 101
2, 149640, Note_on_c, 0, 89, 101
2, 149760, Note_on_c, 0, 89, 0
2, 149760, Note_on_c, 0, 77, 0
2, 149760, Note_on_c, 0, 77, 101
2, 149760, Note_on_c, 0, 83, 101
2, 149760, Note_on_c, 0, 89, 101
2, 150120, Note_on_c, 0, 89, 0
2, 150120, Note_on_c, 0, 77, 0
2, 150120, Note_on_c, 0, 74, 101
2, 150120, Note_on_c, 0, 86, 101
2, 150240, Note_on_c, 0, 86, 0
2, 150240, Note_on_c, 0, 74, 0
2, 150240, Note_on_c, 0, 83, 0
2, 150240, Note_on_c, 0, 74, 101
2, 150240, Note_on_c, 0, 83, 101
2, 150240, Note_on_c, 0, 86, 101
2, 150480, Note_on_c, 0, 86, 0
2, 150480, Note_on_c, 0, 83, 0
2, 150480, Note_on_c, 0, 74, 0
2, 150480, Note_on_c, 0, 75, 101
2, 150480, Note_on_c, 0, 84, 101
2, 150480, Note_on_c, 0, 87, 101
2, 150720, Note_on_c, 0, 87, 0
2, 150720, Note_on_c, 0, 84, 0
2, 150720, Note_on_c, 0, 75, 0
2, 150720, Note_on_c, 0, 75, 101
2, 150720, Note_on_c, 0, 77, 101
2, 150720, Note_on_c, 0, 87, 101
2, 151200, Note_on_c, 0, 87, 0
2, 151200, Note_on_c, 0, 77, 0
2, 151200, Note_on_c, 0, 75, 0
2, 151200, Note_on_c, 0, 77, 101
2, 151200, Note_on_c, 0, 85, 101
2, 151440, Note_on_c, 0, 85, 0
2, 151440, Note_on_c, 0, 77, 0
2, 151440, Note_on_c, 0, 75, 101
2, 151440, Note_on_c, 0, 84, 101
2, 151680, Note_on_c, 0, 84, 0
2, 151680, Note_on_c, 0, 75, 0
2, 151680, Note_on_c, 0, 84, 101
2, 152040, Note_on_c, 0, 84, 0
2, 152040, Note_on_c, 0, 82, 101
2, 152160, Note_on_c, 0, 82, 0
2, 152160, Note_on_c, 0, 82, 101
2, 152640, Note_on_c, 0, 82, 0
2, 152640, Note_on_c, 0, 77, 101
2, 152640, Note_on_c, 0, 79, 101
2, 152640, Note_on_c, 0, 89, 101
2, 153120, Note_on_c, 0, 89, 0
2, 153120, Note_on_c, 0, 79, 0
2, 153120, Note_on_c, 0, 77, 0
2, 153120, Note_on_c, 0, 79, 101
2, 153120, Note_on_c, 0, 87, 101
2, 153360, Note_on_c, 0, 87, 0
2, 153360, Note_on_c, 0, 79, 0
2, 153360, Note_on_c, 0, 77, 101
2, 153360, Note_on_c, 0, 86, 101
2, 153600, Note_on_c, 0, 86, 0
2, 153600, Note_on_c, 0, 77, 0
2, 153600, Note_on_c, 0, 86, 101
2, 153960, Note_on_c, 0, 86, 0
2, 153960, Note_on_c, 0, 84, 101
2, 154080, Note_on_c, 0, 84, 0
2, 154080, Note_on_c, 0, 84, 101
2, 154560, Note_on_c, 0, 84, 0
2, 154560, Note_on_c, 0, 87, 101
2, 154920, Note_on_c, 0, 87, 0
2, 154920, Note_on_c, 0, 85, 101
2, 155040, Note_on_c, 0, 85, 0
2, 155040, Note_on_c, 0, 85, 101
2, 155520, Note_on_c, 0, 85, 0
2, 155520, Note_on_c, 0, 89, 101
2, 155880, Note_on_c, 0, 89, 0
2, 155880, Note_on_c, 0, 87, 101
2, 156000, Note_on_c, 0, 87, 0
2, 156000, Note_on_c, 0, 87, 101
2, 156480, Note_on_c, 0, 87, 0
2, 156480, Note_on_c, 0, 82, 101
2, 156480, Note_on_c, 0, 94, 101
2, 156840, Note_on_c, 0, 94, 0
2, 156840, Note_on_c, 0, 82, 0
2, 156840, Note_on_c, 0, 80, 101
2, 156840, Note_on_c, 0, 92, 101
2, 156960, Note_on_c, 0, 92, 0
2, 156960, Note_on_c, 0, 80, 0
2, 156960, Note_on_c, 0, 80, 101
2, 156960, Note_on_c, 0, 92, 101
2, 157320, Note_on_c, 0, 92, 0
2, 157320, Note_on_c, 0, 80, 0
2, 157320, Note_on_c, 0, 79, 101
2, 157320, Note_on_c, 0, 91, 101
2, 157440, Note_on_c, 0, 91, 0
2, 157440, Note_on_c, 0, 79, 0
2, 157440, Note_on_c, 0, 79, 88
2, 157440, Note_on_c, 0, 83, 88
2, 157440, Note_on_c, 0, 91, 88
2, 157800, Note_on_c, 0, 91, 0
2, 157800, Note_on_c, 0, 83, 0
2, 157800, Note_on_c, 0, 79, 0
2, 157800, Note_on_c, 0, 77, 88
2, 157800, Note_on_c, 0, 89, 88
2, 157920, Note_on_c, 0, 89, 0
2, 157920, Note_on_c, 0, 77, 0
2, 157920, Note_on_c, 0, 77, 88
2, 157920, Note_on_c, 0, 89, 88
2, 158160, Note_on_c, 0, 89, 0
2, 158160, Note_on_c, 0, 77, 0
2, 158160, Note_on_c, 0, 76, 88
2, 158160, Note_on_c, 0, 88, 88
2, 158400, Note_on_c, 0, 88, 0
2, 158400, Note_on_c, 0, 76, 0
2, 158400, Note_on_c, 0, 77, 101
2, 158400, Note_on_c, 0, 81, 101
2, 158400, Note_on_c, 0, 89, 101
2, 158760, Note_on_c, 0, 89, 0
2, 158760, Note_on_c, 0, 81, 0
2, 158760, Note_on_c, 0, 77, 0
2, 158760, Note_on_c, 0, 76, 101
2, 158760, Note_on_c, 0, 88, 101
2, 158790, Note_on_c, 0, 76, 101
2, 158820, Note_on_c, 0, 77, 101
2, 158850, Note_on_c, 0, 81, 101
2, 158880, Note_on_c, 0, 88, 0
2, 158880, Note_on_c, 0, 76, 0
2, 158880, Note_on_c, 0, 88, 101
2, 159120, Note_on_c, 0, 88, 0
2, 159120, Note_on_c, 0, 81, 0
2, 159120, Note_on_c, 0, 76, 0
2, 159120, Note_on_c, 0, 77, 0
2, 159120, Note_on_c, 0, 74, 101
2, 159120, Note_on_c, 0, 86, 101
2, 159360, Note_on_c, 0, 86, 0
2, 159360, Note_on_c, 0, 74, 0
2, 159360, Note_on_c, 0, 74, 101
2, 159360, Note_on_c, 0, 86, 101
2, 159720, Note_on_c, 0, 86, 0
2, 159720, Note_on_c, 0, 74, 0
2, 159720, Note_on_c, 0, 72, 101
2, 159720, Note_on_c, 0, 84, 101
2, 159840, Note_on_c, 0, 84, 0
2, 159840, Note_on_c, 0, 72, 0
2, 159840, Note_on_c, 0, 72, 101
2, 159840, Note_on_c, 0, 84, 101
2, 160080, Note_on_c, 0, 84, 0
2, 160080, Note_on_c, 0, 72, 0
2, 160080, Note_on_c, 0, 74, 101
2, 160080, Note_on_c, 0, 86, 101
2, 160230, Note_on_c, 0, 76, 101
2, 160260, Note_on_c, 0, 77, 101
2, 160290, Note_on_c, 0, 81, 101
2, 160320, Note_on_c, 0, 86, 0
2, 160320, Note_on_c, 0, 74, 0
2, 160320, Note_on_c, 0, 88, 101
2, 160560, Note_on_c, 0, 88, 0
2, 160560, Note_on_c, 0, 81, 0
2, 160560, Note_on_c, 0, 76, 0
2, 160560, Note_on_c, 0, 77, 0
2, 160560, Note_on_c, 0, 77, 101
2, 160560, Note_on_c, 0, 89, 101
2, 160710, Note_on_c, 0, 76, 101
2, 160740, Note_on_c, 0, 77, 101
2, 160770, Note_on_c, 0, 81, 101
2, 160800, Note_on_c, 0, 89, 0
2, 160800, Note_on_c, 0, 77, 0
2, 160800, Note_on_c, 0, 88, 101
2, 161040, Note_on_c, 0, 88, 0
2, 161040, Note_on_c, 0, 81, 0
2, 161040, Note_on_c, 0, 76, 0
2, 161040, Note_on_c, 0, 77, 0
2, 161040, Note_on_c, 0, 74, 101
2, 161040, Note_on_c, 0, 86, 101
2, 161190, Note_on_c, 0, 74, 101
2, 161220, Note_on_c, 0, 76, 101
2, 161250, Note_on_c, 0, 82, 101
2, 161280, Note_on_c, 0, 86, 0
2, 161280, Note_on_c, 0, 74, 0
2, 161280, Note_on_c, 0, 86, 101
2, 161640, Note_on_c, 0, 86, 0
2, 161640, Note_on_c, 0, 82, 0
2, 161640, Note_on_c, 0, 74, 0
2, 161640, Note_on_c, 0, 76, 0
2, 161640, Note_on_c, 0, 72, 101
2, 161640, Note_on_c, 0, 84, 101
2, 161760, Note_on_c, 0, 84, 0
2, 161760, Note_on_c, 0, 72, 0
2, 161760, Note_on_c, 0, 72, 101
2, 161760, Note_on_c, 0, 84, 101
2, 162000, Note_on_c, 0, 84, 0
2, 162000, Note_on_c, 0, 72, 0
2, 162000, Note_on_c, 0, 74, 101
2, 162000, Note_on_c, 0, 86, 101
2, 162150, Note_on_c, 0, 76, 101
2, 162180, Note_on_c, 0, 77, 101
2, 162210, Note_on_c, 0, 81, 101
2, 162240, Note_on_c, 0, 86, 0
2, 162240, Note_on_c, 0, 74, 0
2, 162240, Note_on_c, 0, 88, 101
2, 162480, Note_on_c, 0, 88, 0
2, 162480, Note_on_c, 0, 81, 0
2, 162480, Note_on_c, 0, 76, 0
2, 162480, Note_on_c, 0, 77, 0
2, 162480, Note_on_c, 0, 77, 101
2, 162480, Note_on_c, 0, 89, 101
2, 162630, Note_on_c, 0, 76, 101
2, 162660, Note_on_c, 0, 77, 101
2, 162690, Note_on_c, 0, 81, 101
2, 162720, Note_on_c, 0, 89, 0
2, 162720, Note_on_c, 0, 77, 0
2, 162720, Note_on_c, 0, 88, 101
2, 162960, Note_on_c, 0, 88, 0
2, 162960, Note_on_c, 0, 81, 0
2, 162960, Note_on_c, 0, 76, 0
2, 162960, Note_on_c, 0, 77, 0
2, 162960, Note_on_c, 0, 74, 101
2, 162960, Note_on_c, 0, 86, 101
2, 163200, Note_on_c, 0, 86, 0
2, 163200, Note_on_c, 0, 74, 0
2, 163200, Note_on_c, 0, 74, 101
2, 163200, Note_on_c, 0, 86, 101
2, 163560, Note_on_c, 0, 86, 0
2, 163560, Note_on_c, 0, 74, 0
2, 163560, Note_on_c, 0, 73, 101
2, 163560, Note_on_c, 0, 85, 101
2, 163680, Note_on_c, 0, 85, 0
2, 163680, Note_on_c, 0, 73, 0
2, 163680, Note_on_c, 0, 73, 101
2, 163680, Note_on_c, 0, 85, 101
2, 163920, Note_on_c, 0, 85, 0
2, 163920, Note_on_c, 0, 73, 0
2, 163920, Note_on_c, 0, 74, 101
2, 163920, Note_on_c, 0, 86, 101
2, 164070, Note_on_c, 0, 76, 101
2, 164100, Note_on_c, 0, 77, 101
2, 164130, Note_on_c, 0, 81, 101
2, 164160, Note_on_c, 0, 86, 0
2, 164160, Note_on_c, 0, 74, 0
2, 164160, Note_on_c, 0, 88, 101
2, 164400, Note_on_c, 0, 88, 0
2, 164400, Note_on_c, 0, 81, 0
2, 164400, Note_on_c, 0, 76, 0
2, 164400, Note_on_c, 0, 77, 0
2, 164400, Note_on_c, 0, 77, 101
2, 164400, Note_on_c, 0, 89, 101
2, 164550, Note_on_c, 0, 76, 101
2, 164580, Note_on_c, 0, 77, 101
2, 164610, Note_on_c, 0, 83, 101
2, 164640, Note_on_c, 0, 89, 0
2, 164640, Note_on_c, 0, 77, 0
2, 164640, Note_on_c, 0, 88, 101
2, 164880, Note_on_c, 0, 88, 0
2, 164880, Note_on_c, 0, 83, 0
2, 164880, Note_on_c, 0, 76, 0
2, 164880, Note_on_c, 0, 77, 0
2, 164880, Note_on_c, 0, 74, 101
2, 164880, Note_on_c, 0, 86, 101
2, 165120, Note_on_c, 0, 86, 0
2, 165120, Note_on_c, 0, 74, 0
2, 165120, Note_on_c, 0, 74, 101
2, 165120, Note_on_c, 0, 86, 101
2, 165480, Note_on_c, 0, 86, 0
2, 165480, Note_on_c, 0, 74, 0
2, 165480, Note_on_c, 0, 71, 101
2, 165480, Note_on_c, 0, 83, 101
2, 165600, Note_on_c, 0, 83, 0
2, 165600, Note_on_c, 0, 71, 0
2, 165600, Note_on_c, 0, 71, 101
2, 165600, Note_on_c, 0, 83, 101
2, 165840, Note_on_c, 0, 83, 0
2, 165840, Note_on_c, 0, 71, 0
2, 165840, Note_on_c, 0, 72, 101
2, 165840, Note_on_c, 0, 84, 101
2, 166080, Note_on_c, 0, 84, 0
2, 166080, Note_on_c, 0, 72, 0
2, 166080, Note_on_c, 0, 77, 88
2, 166080, Note_on_c, 0, 89, 88
2, 166480, Note_on_c, 0, 75, 88
2, 166520, Note_on_c, 0, 80, 88
2, 166560, Note_on_c, 0, 89, 0
2, 166560, Note_on_c, 0, 77, 0
2, 166560, Note_on_c, 0, 87, 88
2, 166800, Note_on_c, 0, 87, 0
2, 166800, Note_on_c, 0, 75, 0
2, 166800, Note_on_c, 0, 80, 0
2, 166800, Note_on_c, 0, 73, 88
2, 166800, Note_on_c, 0, 85, 88
2, 167040, Note_on_c, 0, 85, 0
2, 167040, Note_on_c, 0, 73, 0
2, 167040, Note_on_c, 0, 73, 88
2, 167040, Note_on_c, 0, 85, 88
2, 167400, Note_on_c, 0, 85, 0
2, 167400, Note_on_c, 0, 73, 0
2, 167400, Note_on_c, 0, 72, 88
2, 167400, Note_on_c, 0, 84, 88
2, 167520, Note_on_c, 0, 84, 0
2, 167520, Note_on_c, 0, 72, 0
2, 167520, Note_on_c, 0, 72, 88
2, 167520, Note_on_c, 0, 84, 88
2, 167760, Note_on_c, 0, 84, 0
2, 167760, Note_on_c, 0, 72, 0
2, 167760, Note_on_c, 0, 73, 88
2, 167760, Note_on_c, 0, 85, 88
2, 168240, Note_on_c, 0, 85, 0
2, 168240, Note_on_c, 0, 73, 0
2, 168240, Note_on_c, 0, 72, 88
2, 168240, Note_on_c, 0, 84, 88
2, 168720, Note_on_c, 0, 84, 0
2, 168720, Note_on_c, 0, 72, 0
2, 168720, Note_on_c, 0, 70, 88
2, 168720, Note_on_c, 0, 82, 88
2, 169200, Note_on_c, 0, 82, 0
2, 169200, Note_on_c, 0, 70, 0
2, 169200, Note_on_c, 0, 69, 88
2, 169200, Note_on_c, 0, 81, 88
2, 169680, Note_on_c, 0, 81, 0
2, 169680, Note_on_c, 0, 69, 0
2, 169680, Note_on_c, 0, 68, 88
2, 169680, Note_on_c, 0, 80, 88
2, 169920, Note_on_c, 0, 80, 0
2, 169920, Note_on_c, 0, 68, 0
2, 169920, Note_on_c, 0, 73, 88
2, 169920, Note_on_c, 0, 77, 88
2, 169920, Note_on_c, 0, 85, 88
2, 170400, Note_on_c, 0, 85, 0
2, 170400, Note_on_c, 0, 77, 0
2, 170400, Note_on_c, 0, 73, 0
2, 170400, Note_on_c, 0, 72, 88
2, 170400, Note_on_c, 0, 77, 88
2, 170400, Note_on_c, 0, 84, 88
2, 170640, Note_on_c, 0, 84, 0
2, 170640, Note_on_c, 0, 77, 0
2, 170640, Note_on_c, 0, 72, 0
2, 170640, Note_on_c, 0, 70, 88
2, 170640, Note_on_c, 0, 82, 88
2, 170800, Note_on_c, 0, 70, 88
2, 170840, Note_on_c, 0, 75, 88
2, 170880, Note_on_c, 0, 82, 0
2, 170880, Note_on_c, 0, 70, 0
2, 170880, Note_on_c, 0, 82, 88
2, 171240, Note_on_c, 0, 82, 0
2, 171240, Note_on_c, 0, 70, 0
2, 171240, Note_on_c, 0, 75, 0
2, 171240, Note_on_c, 0, 69, 88
2, 171240, Note_on_c, 0, 81, 88
2, 171360, Note_on_c, 0, 81, 0
2, 171360, Note_on_c, 0, 69, 0
2, 171360, Note_on_c, 0, 69, 88
2, 171360, Note_on_c, 0, 81, 88
2, 171600, Note_on_c, 0, 81, 0
2, 171600, Note_on_c, 0, 69, 0
2, 171600, Note_on_c, 0, 70, 88
2, 171600, Note_on_c, 0, 82, 88
2, 172080, Note_on_c, 0, 82, 0
2, 172080, Note_on_c, 0, 70, 0
2, 172080, Note_on_c, 0, 69, 88
2, 172080, Note_on_c, 0, 81, 88
2, 172560, Note_on_c, 0, 81, 0
2, 172560, Note_on_c, 0, 69, 0
2, 172560, Note_on_c, 0, 68, 88
2, 172560, Note_on_c, 0, 80, 88
2, 173040, Note_on_c, 0, 80, 0
2, 173040, Note_on_c, 0, 68, 0
2, 173040, Note_on_c, 0, 67, 88
2, 173040, Note_on_c, 0, 79, 88
2, 173520, Note_on_c, 0, 79, 0
2, 173520, Note_on_c, 0, 67, 0
2, 173520, Note_on_c, 0, 78, 88
2, 173760, Note_on_c, 0, 78, 0
2, 173760, Note_on_c, 0, 65, 75
2, 173760, Note_on_c, 0, 77, 75
2, 174240, Note_on_c, 0, 77, 0
2, 174240, Note_on_c, 0, 65, 0
2, 174240, Note_on_c, 0, 63, 75
2, 174240, Note_on_c, 0, 75, 75
2, 174480, Note_on_c, 0, 75, 0
2, 174480, Note_on_c, 0, 63, 0
2, 174480, Note_on_c, 0, 61, 75
2, 174480, Note_on_c, 0, 73, 75
2, 174720, Note_on_c, 0, 73, 0
2, 174720, Note_on_c, 0, 61, 0
2, 174720, Note_on_c, 0, 61, 62
2, 174720, Note_on_c, 0, 73, 62
2, 175080, Note_on_c, 0, 73, 0
2, 175080, Note_on_c, 0, 61, 0
2, 175080, Note_on_c, 0, 60, 62
2, 175080, Note_on_c, 0, 72, 62
2, 175200, Note_on_c, 0, 72, 0
2, 175200, Note_on_c, 0, 60, 0
2, 175200, Note_on_c, 0, 60, 62
2, 175200, Note_on_c, 0, 72, 62
2, 175440, Note_on_c, 0, 72, 0
2, 175440, Note_on_c, 0, 60, 0
2, 175440, Note_on_c, 0, 61, 62
2, 175440, Note_on_c, 0, 73, 62
2, 175920, Note_on_c, 0, 73, 0
2, 175920, Note_on_c, 0, 61, 0
2, 175920, Note_on_c, 0, 60, 62
2, 175920, Note_on_c, 0, 72, 62
2, 176400, Note_on_c, 0, 72, 0
2, 176400, Note_on_c, 0, 60, 0
2, 176400, Note_on_c, 0, 58, 62
2, 176400, Note_on_c, 0, 70, 62
2, 176880, Note_on_c, 0, 70, 0
2, 176880, Note_on_c, 0, 58, 0
2, 176880, Note_on_c, 0, 57, 62
2, 176880, Note_on_c, 0, 69, 62
2, 177360, Note_on_c, 0, 69, 0
2, 177360, Note_on_c, 0, 57, 0
2, 177360, Note_on_c, 0, 56, 62
2, 177360, Note_on_c, 0, 68, 62
2, 177600, Note_on_c, 0, 68, 0
2, 177600, Note_on_c, 0, 56, 0
2, 177600, Note_on_c, 0, 61, 62
2, 177600, Note_on_c, 0, 73, 62
2, 178080, Note_on_c, 0, 73, 0
2, 178080, Note_on_c, 0, 61, 0
2, 178080, Note_on_c, 0, 60, 62
2, 178080, Note_on_c, 0, 72, 62
2, 178320, Note_on_c, 0, 72, 0
2, 178320, Note_on_c, 0, 60, 0
2, 178320, Note_on_c, 0, 58, 62
2, 178320, Note_on_c, 0, 70, 62
2, 178560, Note_on_c, 0, 70, 0
2, 178560, Note_on_c, 0, 58, 0
2, 178560, Note_on_c, 0, 70, 62
2, 178920, Note_on_c, 0, 70, 0
2, 178920, Note_on_c, 0, 69, 62
2, 179040, Note_on_c, 0, 69, 0
2, 179040, Note_on_c, 0, 69, 62
2, 179280, Note_on_c, 0, 69, 0
2, 179280, Note_on_c, 0, 68, 62
2, 179520, Note_on_c, 0, 68, 0
2, 179520, Note_on_c, 0, 70, 62
2, 179880, Note_on_c, 0, 70, 0
2, 179880, Note_on_c, 0, 69, 62
2, 180000, Note_on_c, 0, 69, 0
2, 180000, Note_on_c, 0, 69, 62
2, 180240, Note_on_c, 0, 69, 0
2, 180240, Note_on_c, 0, 68, 62
2, 180480, Note_on_c, 0, 68, 0
2, 180480, Note_on_c, 0, 69, 62
2, 180840, Note_on_c, 0, 69, 0
2, 180840, Note_on_c, 0, 68, 62
2, 180960, Note_on_c, 0, 68, 0
2, 180960, Note_on_c, 0, 68, 62
2, 181200, Note_on_c, 0, 68, 0
2, 181200, Note_on_c, 0, 67, 62
2, 181440, Note_on_c, 0, 67, 0
2, 181440, Note_on_c, 0, 68, 62
2, 181800, Note_on_c, 0, 68, 0
2, 181800, Note_on_c, 0, 67, 62
2, 181920, Note_on_c, 0, 67, 0
2, 181920, Note_on_c, 0, 67, 62
2, 182160, Note_on_c, 0, 67, 0
2, 182160, Note_on_c, 0, 66, 62
2, 182640, Note_on_c, 0, 66, 0
2, 182640, Note_on_c, 0, 65, 62
2, 183120, Note_on_c, 0, 65, 0
2, 183120, Note_on_c, 0, 64, 62
2, 183360, Note_on_c, 0, 64, 0
2, 183360, Note_on_c, 0, 66, 62
2, 183720, Note_on_c, 0, 66, 0
2, 183720, Note_on_c, 0, 65, 62
2, 183840, Note_on_c, 0, 65, 0
2, 183840, Note_on_c, 0, 65, 62
2, 184080, Note_on_c, 0, 65, 0
2, 184080, Note_on_c, 0, 64, 62
2, 184560, Note_on_c, 0, 64, 0
2, 184560, Note_on_c, 0, 66, 62
2, 185040, Note_on_c, 0, 66, 0
2, 185040, Note_on_c, 0, 65, 62
2, 185520, Note_on_c, 0, 65, 0
2, 185520, Note_on_c, 0, 64, 62
2, 186000, Note_on_c, 0, 64, 0
2, 186000, Note_on_c, 0, 66, 62
2, 186480, Note_on_c, 0, 66, 0
2, 186480, Note_on_c, 0, 64, 62
2, 186960, Note_on_c, 0, 64, 0
2, 186960, Note_on_c, 0, 65, 62
2, 187200, Note_on_c, 0, 65, 0
2, 187200, Note_on_c, 0, 65, 62
2, 189120, Note_on_c, 0, 57, 62
2, 190080, Note_on_c, 0, 57, 0
2, 190080, Note_on_c, 0, 65, 0
2, 190080, Note_on_c, 0, 65, 62
2, 190320, Note_on_c, 0, 65, 0
2, 190320, Note_on_c, 0, 73, 62
2, 190560, Note_on_c, 0, 73, 0
2, 190560, Note_on_c, 0, 72, 62
2, 190800, Note_on_c, 0, 72, 0
2, 190800, Note_on_c, 0, 70, 62
2, 191040, Note_on_c, 0, 70, 0
2, 191040, Note_on_c, 0, 69, 62
2, 191280, Note_on_c, 0, 69, 0
2, 191280, Note_on_c, 0, 70, 62
2, 191520, Note_on_c, 0, 70, 0
2, 191520, Note_on_c, 0, 65, 62
2, 191520, Note_on_c, 0, 77, 62
2, 191567, Note_on_c, 0, 77, 0
2, 191567, Note_on_c, 0, 65, 0
2, 191760, Note_on_c, 0, 77, 62
2, 192000, Note_on_c, 0, 77, 0
2, 192000, Note_on_c, 0, 72, 62
2, 192240, Note_on_c, 0, 72, 0
2, 192240, Note_on_c, 0, 75, 62
2, 192480, Note_on_c, 0, 75, 0
2, 192480, Note_on_c, 0, 73, 62
2, 192720, Note_on_c, 0, 73, 0
2, 192720, Note_on_c, 0, 72, 62
2, 192960, Note_on_c, 0, 72, 0
2, 192960, Note_on_c, 0, 69, 62
2, 193200, Note_on_c, 0, 69, 0
2, 193200, Note_on_c, 0, 70, 62
2, 193440, Note_on_c, 0, 70, 0
2, 193440, Note_on_c, 0, 66, 62
2, 193440, Note_on_c, 0, 72, 62
2, 193487, Note_on_c, 0, 72, 0
2, 193487, Note_on_c, 0, 66, 0
2, 193680, Note_on_c, 0, 72, 62
2, 193920, Note_on_c, 0, 72, 0
2, 193920, Note_on_c, 0, 65, 62
2, 194160, Note_on_c, 0, 65, 0
2, 194160, Note_on_c, 0, 65, 62
2, 194400, Note_on_c, 0, 65, 0
2, 194400, Note_on_c, 0, 67, 62
2, 194640, Note_on_c, 0, 67, 0
2, 194640, Note_on_c, 0, 69, 62
2, 194880, Note_on_c, 0, 69, 0
2, 194880, Control_c, 0, 64, 127
2, 194880, Note_on_c, 0, 70, 62
2, 195120, Note_on_c, 0, 70, 0
2, 195120, Note_on_c, 0, 72, 62
2, 195360, Note_on_c, 0, 72, 0
2, 195360, Note_on_c, 0, 73, 62
2, 195600, Note_on_c, 0, 73, 0
2, 195600, Control_c, 0, 64, 0
2, 195600, Note_on_c, 0, 77, 62
2, 195840, Note_on_c, 0, 77, 0
2, 195840, Control_c, 0, 64, 127
2, 195840, Note_on_c, 0, 75, 62
2, 196080, Note_on_c, 0, 75, 0
2, 196080, Note_on_c, 0, 73, 62
2, 196320, Note_on_c, 0, 73, 0
2, 196320, Note_on_c, 0, 66, 62
2, 196320, Note_on_c, 0, 72, 62
2, 196560, Note_on_c, 0, 72, 0
2, 196560, Note_on_c, 0, 66, 0
2, 196560, Control_c, 0, 64, 0
2, 196560, Note_on_c, 0, 70, 62
2, 196800, Note_on_c, 0, 70, 0
2, 196800, Note_on_c, 0, 60, 62
2, 196800, Note_on_c, 0, 69, 62
2, 197040, Note_on_c, 0, 69, 0
2, 197040, Note_on_c, 0, 60, 0
2, 197040, Note_on_c, 0, 65, 62
2, 197280, Note_on_c, 0, 65, 0
2, 197280, Note_on_c, 0, 70, 62
2, 197520, Note_on_c, 0, 70, 0
2, 197520, Note_on_c, 0, 67, 62
2, 197760, Note_on_c, 0, 67, 0
2, 197760, Note_on_c, 0, 60, 62
2, 197760, Note_on_c, 0, 69, 62
2, 198000, Note_on_c, 0, 69, 0
2, 198000, Note_on_c, 0, 60, 0
2, 198000, Note_on_c, 0, 73, 62
2, 198240, Note_on_c, 0, 73, 0
2, 198240, Note_on_c, 0, 72, 62
2, 198480, Note_on_c, 0, 72, 0
2, 198480, Note_on_c, 0, 70, 62
2, 198720, Note_on_c, 0, 70, 0
2, 198720, Note_on_c, 0, 69, 62
2, 198960, Note_on_c, 0, 69, 0
2, 198960, Note_on_c, 0, 70, 62
2, 199200, Note_on_c, 0, 70, 0
2, 199200, Note_on_c, 0, 65, 62
2, 199200, Note_on_c, 0, 77, 62
2, 199247, Note_on_c, 0, 77, 0
2, 199247, Note_on_c, 0, 65, 0
2, 199440, Note_on_c, 0, 77, 62
2, 199680, Note_on_c, 0, 77, 0
2, 199680, Note_on_c, 0, 72, 62
2, 199920, Note_on_c, 0, 72, 0
2, 199920, Note_on_c, 0, 75, 62
2, 200160, Note_on_c, 0, 75, 0
2, 200160, Note_on_c, 0, 73, 62
2, 200400, Note_on_c, 0, 73, 0
2, 200400, Note_on_c, 0, 72, 62
2, 200640, Note_on_c, 0, 72, 0
2, 200640, Note_on_c, 0, 69, 62
2, 200880, Note_on_c, 0, 69, 0
2, 200880, Note_on_c, 0, 70, 62
2, 201120, Note_on_c, 0, 70, 0
2, 201120, Note_on_c, 0, 72, 62
2, 201360, Note_on_c, 0, 72, 0
2, 201360, Note_on_c, 0, 72, 62
2, 201600, Note_on_c, 0, 72, 0
2, 201600, Note_on_c, 0, 65, 62
2, 201840, Note_on_c, 0, 65, 0
2, 201840, Note_on_c, 0, 65, 62
2, 202080, Note_on_c, 0, 65, 0
2, 202080, Note_on_c, 0, 67, 62
2, 202320, Note_on_c, 0, 67, 0
2, 202320, Note_on_c, 0, 69, 62
2, 202560, Note_on_c, 0, 69, 0
2, 202560, Note_on_c, 0, 72, 62
2, 202800, Note_on_c, 0, 72, 0
2, 202800, Note_on_c, 0, 70, 62
2, 203040, Note_on_c, 0, 70, 0
2, 203040, Note_on_c, 0, 77, 62
2, 203087, Note_on_c, 0, 77, 0
2, 203280, Note_on_c, 0, 77, 62
2, 203327, Note_on_c, 0, 77, 0
2, 203520, Note_on_c, 0, 77, 62
2, 203760, Note_on_c, 0, 77, 0
2, 203760, Note_on_c, 0, 75, 62
2, 204000, Note_on_c, 0, 75, 0
2, 204000, Note_on_c, 0, 73, 62
2, 204240, Note_on_c, 0, 73, 0
2, 204240, Note_on_c, 0, 72, 62
2, 204480, Note_on_c, 0, 72, 0
2, 204480, Note_on_c, 0, 70, 62
2, 204720, Note_on_c, 0, 70, 0
2, 204720, Note_on_c, 0, 68, 62
2, 204960, Note_on_c, 0, 68, 0
2, 204960, Note_on_c, 0, 75, 62
2, 205007, Note_on_c, 0, 75, 0
2, 205200, Note_on_c, 0, 75, 62
2, 205247, Note_on_c, 0, 75, 0
2, 205440, Note_on_c, 0, 75, 62
2, 205680, Note_on_c, 0, 75, 0
2, 205680, Note_on_c, 0, 73, 62
2, 205920, Note_on_c, 0, 73, 0
2, 205920, Note_on_c, 0, 72, 62
2, 206160, Note_on_c, 0, 72, 0
2, 206160, Note_on_c, 0, 70, 62
2, 206400, Note_on_c, 0, 70, 0
2, 206400, Note_on_c, 0, 68, 62
2, 206640, Note_on_c, 0, 68, 0
2, 206640, Note_on_c, 0, 66, 62
2, 206800, Note_on_c, 0, 65, 62
2, 206840, Note_on_c, 0, 66, 62
2, 206864, Note_on_c, 0, 65, 0
2, 206880, Note_on_c, 0, 66, 0
2, 206880, Note_on_c, 0, 73, 62
2, 206895, Note_on_c, 0, 66, 0
2, 206927, Note_on_c, 0, 73, 0
2, 207120, Note_on_c, 0, 73, 62
2, 207167, Note_on_c, 0, 73, 0
2, 207360, Control_c, 0, 64, 127
2, 207360, Note_on_c, 0, 75, 49
2, 207420, Note_on_c, 0, 75, 0
2, 207420, Note_on_c, 0, 77, 49
2, 207480, Note_on_c, 0, 77, 0
2, 207480, Note_on_c, 0, 78, 49
2, 207540, Note_on_c, 0, 78, 0
2, 207540, Note_on_c, 0, 80, 49
2, 207600, Note_on_c, 0, 80, 0
2, 207600, Control_c, 0, 64, 0
2, 207600, Note_on_c, 0, 82, 49
2, 207647, Note_on_c, 0, 82, 0
2, 207840, Control_c, 0, 64, 127
2, 207840, Note_on_c, 0, 82, 49
2, 207900, Note_on_c, 0, 82, 0
2, 207900, Note_on_c, 0, 85, 49
2, 207960, Note_on_c, 0, 85, 0
2, 207960, Note_on_c, 0, 87, 49
2, 208020, Note_on_c, 0, 87, 0
2, 208020, Note_on_c, 0, 89, 49
2, 208080, Note_on_c, 0, 89, 0
2, 208080, Control_c, 0, 64, 0
2, 208080, Note_on_c, 0, 90, 49
2, 208127, Note_on_c, 0, 90, 0
2, 208320, Control_c, 0, 64, 127
2, 208320, Note_on_c, 0, 89, 49
2, 208380, Note_on_c, 0, 89, 0
2, 208380, Note_on_c, 0, 90, 49
2, 208440, Note_on_c, 0, 90, 0
2, 208440, Note_on_c, 0, 89, 49
2, 208500, Note_on_c, 0, 89, 0
2, 208500, Note_on_c, 0, 90, 49
2, 208560, Note_on_c, 0, 90, 0
2, 208560, Note_on_c, 0, 89, 49
2, 208620, Note_on_c, 0, 89, 0
2, 208620, Note_on_c, 0, 90, 49
2, 208680, Note_on_c, 0, 90, 0
2, 208680, Note_on_c, 0, 89, 49
2, 208740, Note_on_c, 0, 89, 0
2, 208740, Note_on_c, 0, 90, 49
2, 208800, Note_on_c, 0, 90, 0
2, 208800, Note_on_c, 0, 89, 49
2, 208860, Note_on_c, 0, 89, 0
2, 208860, Note_on_c, 0, 90, 49
2, 208920, Note_on_c, 0, 90, 0
2, 208920, Note_on_c, 0, 89, 49
2, 208980, Note_on_c, 0, 89, 0
2, 208980, Note_on_c, 0, 90, 49
2, 209040, Note_on_c, 0, 90, 0
2, 209040, Note_on_c, 0, 89, 49
2, 209087, Note_on_c, 0, 89, 0
2, 209087, Note_on_c, 0, 90, 49
2, 209136, Note_on_c, 0, 90, 0
2, 209136, Note_on_c, 0, 89, 49
2, 209183, Note_on_c, 0, 89, 0
2, 209183, Note_on_c, 0, 88, 49
2, 209232, Note_on_c, 0, 88, 0
2, 209232, Control_c, 0, 64, 0
2, 209232, Note_on_c, 0, 89, 49
2, 209280, Note_on_c, 0, 89, 0
2, 209280, Note_on_c, 0, 82, 49
2, 209520, Note_on_c, 0, 82, 0
2, 209520, Note_on_c, 0, 70, 75
2, 209760, Note_on_c, 0, 70, 0
2, 209760, Note_on_c, 0, 72, 75
2, 210000, Note_on_c, 0, 72, 0
2, 210000, Note_on_c, 0, 73, 75
2, 210240, Note_on_c, 0, 73, 0
2, 210240, Note_on_c, 0, 63, 101
2, 210240, Note_on_c, 0, 68, 101
2, 210240, Note_on_c, 0, 72, 101
2, 210240, Note_on_c, 0, 75, 101
2, 210720, Note_on_c, 0, 75, 0
2, 210720, Note_on_c, 0, 63, 0
2, 210720, Note_on_c, 0, 68, 0
2, 210720, Note_on_c, 0, 72, 0
2, 210720, Note_on_c, 0, 63, 101
2, 210720, Note_on_c, 0, 68, 101
2, 210720, Note_on_c, 0, 72, 101
2, 210720, Note_on_c, 0, 75, 101
2, 211200, Note_on_c, 0, 75, 0
2, 211200, Note_on_c, 0, 63, 0
2, 211200, Note_on_c, 0, 68, 0
2, 211200, Note_on_c, 0, 72, 0
2, 211200, Note_on_c, 0, 63, 101
2, 211200, Note_on_c, 0, 68, 101
2, 211200, Note_on_c, 0, 72, 101
2, 211200, Note_on_c, 0, 75, 101
2, 211440, Note_on_c, 0, 75, 0
2, 211440, Note_on_c, 0, 63, 0
2, 211440, Note_on_c, 0, 68, 0
2, 211440, Note_on_c, 0, 72, 0
2, 211440, Note_on_c, 0, 63, 75
2, 211440, Note_on_c, 0, 75, 75
2, 211680, Note_on_c, 0, 75, 0
2, 211680, Note_on_c, 0, 63, 0
2, 211680, Note_on_c, 0, 73, 75
2, 211920, Note_on_c, 0, 73, 0
2, 211920, Note_on_c, 0, 72, 75
2, 212160, Note_on_c, 0, 72, 0
2, 212160, Note_on_c, 0, 70, 114
2, 212160, Note_on_c, 0, 73, 114
2, 212160, Note_on_c, 0, 82, 114
2, 212400, Note_on_c, 0, 82, 0
2, 212400, Note_on_c, 0, 73, 0
2, 212400, Note_on_c, 0, 70, 0
2, 212400, Note_on_c, 0, 68, 88
2, 212400, Note_on_c, 0, 80, 88
2, 212520, Note_on_c, 0, 80, 0
2, 212520, Note_on_c, 0, 68, 0
2, 212520, Note_on_c, 0, 66, 75
2, 212520, Note_on_c, 0, 78, 75
2, 212640, Note_on_c, 0, 78, 0
2, 212640, Note_on_c, 0, 66, 0
2, 212640, Note_on_c, 0, 65, 75
2, 212640, Note_on_c, 0, 77, 75
2, 212880, Note_on_c, 0, 77, 0
2, 212880, Note_on_c, 0, 65, 0
2, 212880, Note_on_c, 0, 75, 75
2, 213000, Note_on_c, 0, 75, 0
2, 213000, Note_on_c, 0, 73, 75
2, 213120, Note_on_c, 0, 73, 0
2, 213120, Note_on_c, 0, 72, 75
2, 213360, Note_on_c, 0, 72, 0
2, 213360, Note_on_c, 0, 70, 75
2, 213600, Note_on_c, 0, 70, 0
2, 213600, Note_on_c, 0, 72, 75
2, 213840, Note_on_c, 0, 72, 0
2, 213840, Note_on_c, 0, 73, 75
2, 214080, Note_on_c, 0, 73, 0
2, 214080, Note_on_c, 0, 63, 101
2, 214080, Note_on_c, 0, 68, 101
2, 214080, Note_on_c, 0, 72, 101
2, 214080, Note_on_c, 0, 75, 101
2, 214560, Note_on_c, 0, 75, 0
2, 214560, Note_on_c, 0, 63, 0
2, 214560, Note_on_c, 0, 68, 0
2, 214560, Note_on_c, 0, 72, 0
2, 214560, Note_on_c, 0, 63, 101
2, 214560, Note_on_c, 0, 68, 101
2, 214560, Note_on_c, 0, 72, 101
2, 214560, Note_on_c, 0, 75, 101
2, 215040, Note_on_c, 0, 75, 0
2, 215040, Note_on_c, 0, 63, 0
2, 215040, Note_on_c, 0, 68, 0
2, 215040, Note_on_c, 0, 72, 0
2, 215040, Note_on_c, 0, 63, 101
2, 215040, Note_on_c, 0, 68, 101
2, 215040, Note_on_c, 0, 72, 101
2, 215040, Note_on_c, 0, 75, 101
2, 215280, Note_on_c, 0, 75, 0
2, 215280, Note_on_c, 0, 63, 0
2, 215280, Note_on_c, 0, 68, 0
2, 215280, Note_on_c, 0, 72, 0
2, 215280, Note_on_c, 0, 63, 75
2, 215280, Note_on_c, 0, 75, 75
2, 215520, Note_on_c, 0, 75, 0
2, 215520, Note_on_c, 0, 63, 0
2, 215520, Note_on_c, 0, 61, 75
2, 215520, Note_on_c, 0, 73, 75
2, 215760, Note_on_c, 0, 73, 0
2, 215760, Note_on_c, 0, 61, 0
2, 215760, Note_on_c, 0, 60, 75
2, 215760, Note_on_c, 0, 72, 75
2, 216000, Note_on_c, 0, 72, 0
2, 216000, Note_on_c, 0, 60, 0
2, 216000, Note_on_c, 0, 58, 101
2, 216000, Note_on_c, 0, 63, 101
2, 216000, Note_on_c, 0, 66, 101
2, 216000, Note_on_c, 0, 70, 101
2, 216240, Note_on_c, 0, 70, 0
2, 216240, Note_on_c, 0, 58, 0
2, 216240, Note_on_c, 0, 63, 0
2, 216240, Note_on_c, 0, 66, 0
2, 216240, Note_on_c, 0, 68, 75
2, 216360, Note_on_c, 0, 68, 0
2, 216360, Note_on_c, 0, 66, 75
2, 216480, Note_on_c, 0, 66, 0
2, 216480, Note_on_c, 0, 65, 75
2, 216720, Note_on_c, 0, 65, 0
2, 216720, Note_on_c, 0, 63, 75
2, 216840, Note_on_c, 0, 63, 0
2, 216840, Note_on_c, 0, 65, 75
2, 216960, Note_on_c, 0, 65, 0
2, 216960, Note_on_c, 0, 66, 75
2, 217200, Note_on_c, 0, 66, 0
2, 217200, Note_on_c, 0, 68, 75
2, 217320, Note_on_c, 0, 68, 0
2, 217320, Note_on_c, 0, 70, 75
2, 217440, Note_on_c, 0, 70, 0
2, 217440, Note_on_c, 0, 60, 75
2, 217440, Note_on_c, 0, 72, 75
2, 217680, Note_on_c, 0, 72, 0
2, 217680, Note_on_c, 0, 60, 0
2, 217680, Note_on_c, 0, 61, 75
2, 217680, Note_on_c, 0, 73, 75
2, 217727, Note_on_c, 0, 73, 0
2, 217727, Note_on_c, 0, 61, 0
2, 217920, Note_on_c, 0, 63, 101
2, 217920, Note_on_c, 0, 68, 101
2, 217920, Note_on_c, 0, 72, 101
2, 217920, Note_on_c, 0, 75, 101
2, 218400, Note_on_c, 0, 75, 0
2, 218400, Note_on_c, 0, 63, 0
2, 218400, Note_on_c, 0, 68, 0
2, 218400, Note_on_c, 0, 72, 0
2, 218400, Note_on_c, 0, 63, 101
2, 218400, Note_on_c, 0, 68, 101
2, 218400, Note_on_c, 0, 72, 101
2, 218400, Note_on_c, 0, 75, 101
2, 218880, Note_on_c, 0, 75, 0
2, 218880, Note_on_c, 0, 63, 0
2, 218880, Note_on_c, 0, 68, 0
2, 218880, Note_on_c, 0, 72, 0
2, 218880, Note_on_c, 0, 63, 101
2, 218880, Note_on_c, 0, 68, 101
2, 218880, Note_on_c, 0, 72, 101
2, 218880, Note_on_c, 0, 75, 101
2, 219120, Note_on_c, 0, 75, 0
2, 219120, Note_on_c, 0, 63, 0
2, 219120, Note_on_c, 0, 68, 0
2, 219120, Note_on_c, 0, 72, 0
2, 219120, Note_on_c, 0, 63, 75
2, 219120, Note_on_c, 0, 75, 75
2, 219360, Note_on_c, 0, 75, 0
2, 219360, Note_on_c, 0, 63, 0
2, 219360, Note_on_c, 0, 73, 75
2, 219600, Note_on_c, 0, 73, 0
2, 219600, Note_on_c, 0, 72, 75
2, 219840, Note_on_c, 0, 72, 0
2, 219840, Note_on_c, 0, 70, 114
2, 219840, Note_on_c, 0, 73, 114
2, 219840, Note_on_c, 0, 82, 114
2, 220080, Note_on_c, 0, 82, 0
2, 220080, Note_on_c, 0, 73, 0
2, 220080, Note_on_c, 0, 70, 0
2, 220080, Note_on_c, 0, 68, 88
2, 220080, Note_on_c, 0, 80, 88
2, 220200, Note_on_c, 0, 80, 0
2, 220200, Note_on_c, 0, 68, 0
2, 220200, Note_on_c, 0, 66, 75
2, 220200, Note_on_c, 0, 78, 75
2, 220320, Note_on_c, 0, 78, 0
2, 220320, Note_on_c, 0, 66, 0
2, 220320, Note_on_c, 0, 65, 75
2, 220320, Note_on_c, 0, 77, 75
2, 220560, Note_on_c, 0, 77, 0
2, 220560, Note_on_c, 0, 65, 0
2, 220560, Note_on_c, 0, 75, 75
2, 220680, Note_on_c, 0, 75, 0
2, 220680, Note_on_c, 0, 73, 75
2, 220800, Note_on_c, 0, 73, 0
2, 220800, Note_on_c, 0, 72, 75
2, 221040, Note_on_c, 0, 72, 0
2, 221040, Note_on_c, 0, 70, 75
2, 221280, Note_on_c, 0, 70, 0
2, 221280, Note_on_c, 0, 72, 75
2, 221520, Note_on_c, 0, 72, 0
2, 221520, Note_on_c, 0, 73, 75
2, 221760, Note_on_c, 0, 73, 0
2, 221760, Note_on_c, 0, 75, 101
2, 221760, Note_on_c, 0, 80, 101
2, 221760, Note_on_c, 0, 84, 101
2, 221760, Note_on_c, 0, 87, 101
2, 222240, Note_on_c, 0, 87, 0
2, 222240, Note_on_c, 0, 75, 0
2, 222240, Note_on_c, 0, 80, 0
2, 222240, Note_on_c, 0, 84, 0
2, 222240, Note_on_c, 0, 75, 101
2, 222240, Note_on_c, 0, 80, 101
2, 222240, Note_on_c, 0, 84, 101
2, 222240, Note_on_c, 0, 87, 101
2, 222720, Note_on_c, 0, 87, 0
2, 222720, Note_on_c, 0, 75, 0
2, 222720, Note_on_c, 0, 80, 0
2, 222720, Note_on_c, 0, 84, 0
2, 222720, Note_on_c, 0, 75, 101
2, 222720, Note_on_c, 0, 80, 101
2, 222720, Note_on_c, 0, 84, 101
2, 222720, Note_on_c, 0, 87, 101
2, 223680, Note_on_c, 0, 87, 0
2, 223680, Note_on_c, 0, 75, 0
2, 223680, Note_on_c, 0, 80, 0
2, 223680, Note_on_c, 0, 84, 0
2, 223920, Note_on_c, 0, 72, 75
2, 224160, Note_on_c, 0, 72, 0
2, 224160, Note_on_c, 0, 70, 75
2, 224400, Note_on_c, 0, 70, 0
2, 224400, Note_on_c, 0, 68, 75
2, 224640, Note_on_c, 0, 68, 0
2, 224640, Note_on_c, 0, 67, 75
2, 224880, Note_on_c, 0, 67, 0
2, 224880, Note_on_c, 0, 68, 75
2, 225120, Note_on_c, 0, 68, 0
2, 225120, Note_on_c, 0, 75, 75
2, 225167, Note_on_c, 0, 75, 0
2, 225360, Note_on_c, 0, 75, 75
2, 225407, Note_on_c, 0, 75, 0
2, 225600, Note_on_c, 0, 75, 101
2, 225600, Note_on_c, 0, 80, 101
2, 225600, Note_on_c, 0, 84, 101
2, 225600, Note_on_c, 0, 87, 101
2, 226080, Note_on_c, 0, 87, 0
2, 226080, Note_on_c, 0, 75, 0
2, 226080, Note_on_c, 0, 80, 0
2, 226080, Note_on_c, 0, 84, 0
2, 226080, Note_on_c, 0, 75, 101
2, 226080, Note_on_c, 0, 80, 101
2, 226080, Note_on_c, 0, 84, 101
2, 226080, Note_on_c, 0, 87, 101
2, 226560, Note_on_c, 0, 87, 0
2, 226560, Note_on_c, 0, 75, 0
2, 226560, Note_on_c, 0, 80, 0
2, 226560, Note_on_c, 0, 84, 0
2, 226560, Note_on_c, 0, 75, 101
2, 226560, Note_on_c, 0, 80, 101
2, 226560, Note_on_c, 0, 84, 101
2, 226560, Note_on_c, 0, 87, 101
2, 227520, Note_on_c, 0, 87, 0
2, 227520, Note_on_c, 0, 75, 0
2, 227520, Note_on_c, 0, 80, 0
2, 227520, Note_on_c, 0, 84, 0
2, 227679, Note_on_c, 0, 71, 75
2, 227840, Note_on_c, 0, 71, 0
2, 227840, Note_on_c, 0, 72, 75
2, 228000, Note_on_c, 0, 72, 0
2, 228000, Note_on_c, 0, 73, 75
2, 228159, Note_on_c, 0, 73, 0
2, 228159, Note_on_c, 0, 72, 75
2, 228320, Note_on_c, 0, 72, 0
2, 228320, Note_on_c, 0, 70, 75
2, 228480, Note_on_c, 0, 70, 0
2, 228480, Note_on_c, 0, 67, 75
2, 228720, Note_on_c, 0, 67, 0
2, 228720, Note_on_c, 0, 68, 75
2, 228960, Note_on_c, 0, 68, 0
2, 228960, Note_on_c, 0, 75, 75
2, 229007, Note_on_c, 0, 75, 0
2, 229200, Note_on_c, 0, 75, 75
2, 229247, Note_on_c, 0, 75, 0
2, 229440, Note_on_c, 0, 75, 75
2, 229440, Note_on_c, 0, 81, 75
2, 229440, Note_on_c, 0, 87, 75
2, 229680, Note_on_c, 0, 87, 0
2, 229680, Note_on_c, 0, 81, 0
2, 229680, Note_on_c, 0, 75, 0
2, 229680, Note_on_c, 0, 75, 75
2, 229920, Note_on_c, 0, 75, 0
2, 229920, Note_on_c, 0, 73, 75
2, 230160, Note_on_c, 0, 73, 0
2, 230160, Note_on_c, 0, 72, 75
2, 230400, Note_on_c, 0, 72, 0
2, 230400, Note_on_c, 0, 71, 75
2, 230640, Note_on_c, 0, 71, 0
2, 230640, Note_on_c, 0, 72, 75
2, 230880, Note_on_c, 0, 72, 0
2, 230880, Note_on_c, 0, 78, 75
2, 230927, Note_on_c, 0, 78, 0
2, 231120, Note_on_c, 0, 78, 75
2, 231167, Note_on_c, 0, 78, 0
2, 231360, Note_on_c, 0, 78, 75
2, 231360, Note_on_c, 0, 84, 75
2, 231360, Note_on_c, 0, 90, 75
2, 231600, Note_on_c, 0, 90, 0
2, 231600, Note_on_c, 0, 84, 0
2, 231600, Note_on_c, 0, 78, 0
2, 231600, Note_on_c, 0, 78, 75
2, 231840, Note_on_c, 0, 78, 0
2, 231840, Note_on_c, 0, 77, 75
2, 232080, Note_on_c, 0, 77, 0
2, 232080, Note_on_c, 0, 75, 75
2, 232320, Note_on_c, 0, 75, 0
2, 232320, Note_on_c, 0, 74, 75
2, 232560, Note_on_c, 0, 74, 0
2, 232560, Note_on_c, 0, 75, 75
2, 232800, Note_on_c, 0, 75, 0
2, 232800, Note_on_c, 0, 81, 75
2, 232847, Note_on_c, 0, 81, 0
2, 233040, Note_on_c, 0, 81, 75
2, 233087, Note_on_c, 0, 81, 0
2, 233280, Note_on_c, 0, 78, 75
2, 233280, Note_on_c, 0, 84, 75
2, 233280, Note_on_c, 0, 90, 75
2, 233520, Note_on_c, 0, 90, 0
2, 233520, Note_on_c, 0, 84, 0
2, 233520, Note_on_c, 0, 78, 0
2, 233520, Note_on_c, 0, 81, 75
2, 233760, Note_on_c, 0, 81, 0
2, 233760, Note_on_c, 0, 80, 75
2, 234000, Note_on_c, 0, 80, 0
2, 234000, Note_on_c, 0, 78, 75
2, 234240, Note_on_c, 0, 78, 0
2, 234240, Note_on_c, 0, 77, 75
2, 234480, Note_on_c, 0, 77, 0
2, 234480, Note_on_c, 0, 78, 75
2, 234720, Note_on_c, 0, 78, 0
2, 234720, Note_on_c, 0, 84, 75
2, 234767, Note_on_c, 0, 84, 0
2, 234960, Note_on_c, 0, 84, 75
2, 235007, Note_on_c, 0, 84, 0
2, 235359, Note_on_c, 0, 84, 75
2, 235520, Note_on_c, 0, 84, 0
2, 235520, Note_on_c, 0, 84, 75
2, 235680, Note_on_c, 0, 84, 0
2, 235680, Note_on_c, 0, 84, 75
2, 235839, Note_on_c, 0, 84, 0
2, 235839, Note_on_c, 0, 84, 75
2, 236000, Note_on_c, 0, 84, 0
2, 236000, Note_on_c, 0, 84, 75
2, 236160, Note_on_c, 0, 84, 0
2, 236160, Control_c, 0, 64, 127
2, 236160, Note_on_c, 0, 84, 75
2, 236220, Note_on_c, 0, 84, 0
2, 236220, Note_on_c, 0, 85, 75
2, 236280, Note_on_c, 0, 85, 0
2, 236280, Note_on_c, 0, 84, 75
2, 236340, Note_on_c, 0, 84, 0
2, 236340, Note_on_c, 0, 85, 75
2, 236400, Note_on_c, 0, 85, 0
2, 236400, Note_on_c, 0, 84, 75
2, 236460, Note_on_c, 0, 84, 0
2, 236460, Note_on_c, 0, 85, 75
2, 236520, Note_on_c, 0, 85, 0
2, 236520, Note_on_c, 0, 84, 75
2, 236580, Note_on_c, 0, 84, 0
2, 236580, Note_on_c, 0, 85, 75
2, 236640, Note_on_c, 0, 85, 0
2, 236640, Note_on_c, 0, 84, 75
2, 236700, Note_on_c, 0, 84, 0
2, 236700, Note_on_c, 0, 85, 75
2, 236760, Note_on_c, 0, 85, 0
2, 236760, Note_on_c, 0, 84, 75
2, 236820, Note_on_c, 0, 84, 0
2, 236820, Note_on_c, 0, 85, 75
2, 236880, Note_on_c, 0, 85, 0
2, 236880, Note_on_c, 0, 83, 75
2, 237000, Note_on_c, 0, 83, 0
2, 237000, Note_on_c, 0, 84, 75
2, 237120, Note_on_c, 0, 84, 0
2, 237120, Control_c, 0, 64, 0
2, 237120, Note_on_c, 0, 73, 75
2, 237120, Note_on_c, 0, 78, 75
2, 237120, Note_on_c, 0, 82, 75
2, 237120, Note_on_c, 0, 85, 75
2, 238080, Note_on_c, 0, 85, 0
2, 238080, Note_on_c, 0, 73, 0
2, 238080, Note_on_c, 0, 78, 0
2, 238080, Note_on_c, 0, 82, 0
2, 238080, Note_on_c, 0, 77, 49
2, 238080, Note_on_c, 0, 85, 49
2, 239040, Note_on_c, 0, 85, 0
2, 239040, Note_on_c, 0, 77, 0
2, 239040, Note_on_c, 0, 73, 62
2, 239040, Note_on_c, 0, 78, 62
2, 239040, Note_on_c, 0, 85, 62
2, 240000, Note_on_c, 0, 85, 0
2, 240000, Note_on_c, 0, 78, 0
2, 240000, Note_on_c, 0, 73, 0
2, 240000, Note_on_c, 0, 71, 62
2, 240000, Note_on_c, 0, 77, 62
2, 240960, Note_on_c, 0, 77, 0
2, 240960, Note_on_c, 0, 71, 0
2, 240960, Note_on_c, 0, 66, 49
2, 240960, Note_on_c, 0, 70, 49
2, 240960, Note_on_c, 0, 76, 49
2, 240960, Note_on_c, 0, 78, 49
2, 241920, Note_on_c, 0, 78, 0
2, 241920, Note_on_c, 0, 66, 0
2, 241920, Note_on_c, 0, 70, 0
2, 241920, Note_on_c, 0, 76, 0
2, 241920, Note_on_c, 0, 66, 49
2, 241920, Note_on_c, 0, 71, 49
2, 241920, Note_on_c, 0, 78, 49
2, 242880, Note_on_c, 0, 78, 0
2, 242880, Note_on_c, 0, 71, 0
2, 242880, Note_on_c, 0, 66, 0
2, 242880, Note_on_c, 0, 67, 62
2, 242880, Note_on_c, 0, 75, 62
2, 242880, Note_on_c, 0, 79, 62
2, 243840, Note_on_c, 0, 79, 0
2, 243840, Note_on_c, 0, 75, 0
2, 243840, Note_on_c, 0, 67, 0
2, 243840, Note_on_c, 0, 68, 62
2, 243840, Note_on_c, 0, 75, 62
2, 243840, Note_on_c, 0, 80, 62
2, 245280, Note_on_c, 0, 80, 0
2, 245280, Note_on_c, 0, 75, 0
2, 245280, Note_on_c, 0, 68, 0
2, 247680, Note_on_c, 0, 71, 49
2, 247680, Note_on_c, 0, 76, 49
2, 247680, Note_on_c, 0, 83, 49
2, 249120, Note_on_c, 0, 83, 0
2, 249120, Note_on_c, 0, 76, 0
2, 249120, Note_on_c, 0, 71, 0
2, 251520, Note_on_c, 0, 76, 49
2, 251520, Note_on_c, 0, 81, 49
2, 251520, Note_on_c, 0, 88, 49
2, 252960, Note_on_c, 0, 88, 0
2, 252960, Note_on_c, 0, 81, 0
2, 252960, Note_on_c, 0, 76, 0
2, 255360, Note_on_c, 0, 75, 49
2, 255360, Note_on_c, 0, 81, 49
2, 255360, Note_on_c, 0, 87, 49
2, 255360, Note_on_c, 0, 89, 49
2, 256320, Note_on_c, 0, 89, 0
2, 256320, Note_on_c, 0, 75, 0
2, 256320, Note_on_c, 0, 81, 0
2, 256320, Note_on_c, 0, 87, 0
2, 262320, Note_on_c, 0, 61, 49
2, 262560, Note_on_c, 0, 61, 0
2, 262560, Note_on_c, 0, 60, 49
2, 262800, Note_on_c, 0, 60, 0
2, 262800, Note_on_c, 0, 58, 49
2, 263040, Note_on_c, 0, 58, 0
2, 263040, Note_on_c, 0, 57, 49
2, 263280, Note_on_c, 0, 57, 0
2, 263280, Note_on_c, 0, 58, 49
2, 263520, Note_on_c, 0, 58, 0
2, 263520, Note_on_c, 0, 65, 49
2, 263567, Note_on_c, 0, 65, 0
2, 263760, Note_on_c, 0, 65, 49
2, 264000, Note_on_c, 0, 65, 0
2, 264000, Note_on_c, 0, 60, 49
2, 264240, Note_on_c, 0, 60, 0
2, 264240, Note_on_c, 0, 63, 49
2, 264480, Note_on_c, 0, 63, 0
2, 264480, Note_on_c, 0, 61, 49
2, 264720, Note_on_c, 0, 61, 0
2, 264720, Note_on_c, 0, 60, 49
2, 264960, Note_on_c, 0, 60, 0
2, 264960, Note_on_c, 0, 57, 49
2, 265200, Note_on_c, 0, 57, 0
2, 265200, Note_on_c, 0, 58, 49
2, 265440, Note_on_c, 0, 58, 0
2, 265440, Note_on_c, 0, 60, 49
2, 265487, Note_on_c, 0, 60, 0
2, 265680, Note_on_c, 0, 60, 49
2, 265727, Note_on_c, 0, 60, 0
2, 265920, Note_on_c, 0, 53, 49
2, 266160, Note_on_c, 0, 53, 0
2, 266160, Note_on_c, 0, 53, 49
2, 266400, Note_on_c, 0, 53, 0
2, 266400, Note_on_c, 0, 55, 49
2, 266640, Note_on_c, 0, 55, 0
2, 266640, Note_on_c, 0, 57, 49
2, 266880, Note_on_c, 0, 57, 0
2, 267360, Control_c, 0, 64, 127
2, 267360, Note_on_c, 0, 77, 49
2, 267840, Note_on_c, 0, 77, 0
2, 267840, Note_on_c, 0, 66, 49
2, 267840, Note_on_c, 0, 78, 49
2, 268320, Note_on_c, 0, 78, 0
2, 268320, Note_on_c, 0, 66, 0
2, 268320, Note_on_c, 0, 67, 49
2, 268320, Note_on_c, 0, 79, 49
2, 268800, Note_on_c, 0, 79, 0
2, 268800, Note_on_c, 0, 67, 0
2, 268800, Note_on_c, 0, 69, 49
2, 268800, Note_on_c, 0, 81, 49
2, 269280, Note_on_c, 0, 81, 0
2, 269280, Note_on_c, 0, 69, 0
2, 269280, Note_on_c, 0, 67, 49
2, 269280, Note_on_c, 0, 79, 49
2, 269760, Note_on_c, 0, 79, 0
2, 269760, Note_on_c, 0, 67, 0
2, 269760, Control_c, 0, 64, 0
2, 269760, Note_on_c, 0, 65, 49
2, 269760, Note_on_c, 0, 77, 49
2, 270000, Note_on_c, 0, 77, 0
2, 270000, Note_on_c, 0, 65, 0
2, 271200, Note_on_c, 0, 70, 49
2, 271680, Note_on_c, 0, 70, 0
2, 271680, Note_on_c, 0, 66, 49
2, 272640, Note_on_c, 0, 66, 0
2, 273120, Note_on_c, 0, 68, 49
2, 273600, Note_on_c, 0, 68, 0
2, 273600, Note_on_c, 0, 65, 49
2, 274560, Note_on_c, 0, 65, 0
2, 275040, Note_on_c, 0, 66, 49
2, 275520, Note_on_c, 0, 66, 0
2, 275520, Note_on_c, 0, 63, 49
2, 276240, Note_on_c, 0, 63, 0
2, 276240, Note_on_c, 0, 58, 49
2, 276480, Note_on_c, 0, 58, 0
2, 276480, Note_on_c, 0, 57, 49
2, 277440, Note_on_c, 0, 57, 0
2, 277440, Note_on_c, 0, 58, 49
2, 277680, Note_on_c, 0, 58, 0
2, 279840, Note_on_c, 0, 73, 49
2, 279840, Note_on_c, 0, 78, 49
2, 279840, Note_on_c, 0, 85, 49
2, 280800, Note_on_c, 0, 85, 0
2, 280800, Note_on_c, 0, 78, 0
2, 280800, Note_on_c, 0, 73, 0
2, 281280, Note_on_c, 0, 58, 49
2, 281280, Note_on_c, 0, 61, 49
2, 281280, Note_on_c, 0, 70, 49
2, 281520, Note_on_c, 0, 70, 0
2, 281520, Note_on_c, 0, 61, 0
2, 281520, Note_on_c, 0, 58, 0
2, 283680, Note_on_c, 0, 73, 49
2, 283680, Note_on_c, 0, 78, 49
2, 283680, Note_on_c, 0, 85, 49
2, 284640, Note_on_c, 0, 85, 0
2, 284640, Note_on_c, 0, 78, 0
2, 284640, Note_on_c, 0, 73, 0
2, 285120, Note_on_c, 0, 58, 49
2, 285120, Note_on_c, 0, 61, 49
2, 285120, Note_on_c, 0, 70, 49
2, 285360, Note_on_c, 0, 70, 0
2, 285360, Note_on_c, 0, 61, 0
2, 285360, Note_on_c, 0, 58, 0
2, 285360, Note_on_c, 0, 61, 49
2, 285600, Note_on_c, 0, 61, 0
2, 285600, Note_on_c, 0, 60, 49
2, 285840, Note_on_c, 0, 60, 0
2, 285840, Note_on_c, 0, 58, 49
2, 286080, Note_on_c, 0, 58, 0
2, 286080, Note_on_c, 0, 57, 49
2, 286320, Note_on_c, 0, 57, 0
2, 286320, Note_on_c, 0, 58, 49
2, 286560, Note_on_c, 0, 58, 0
2, 286560, Note_on_c, 0, 65, 49
2, 286607, Note_on_c, 0, 65, 0
2, 286800, Note_on_c, 0, 65, 49
2, 287280, Note_on_c, 0, 65, 0
2, 287280, Note_on_c, 0, 49, 49
2, 287520, Note_on_c, 0, 49, 0
2, 287520, Note_on_c, 0, 48, 49
2, 287760, Note_on_c, 0, 48, 0
2, 287760, Note_on_c, 0, 46, 49
2, 288000, Note_on_c, 0, 46, 0
2, 288000, Note_on_c, 0, 45, 49
2, 288240, Note_on_c, 0, 45, 0
2, 288240, Note_on_c, 0, 46, 49
2, 288480, Note_on_c, 0, 46, 0
2, 288480, Note_on_c, 0, 53, 49
2, 288720, Note_on_c, 0, 53, 0
2, 288720, Note_on_c, 0, 53, 49
2, 291360, Note_on_c, 0, 53, 0
2, 291360, Control_c, 0, 64, 127
2, 293280, Control_c, 0, 64, 0
2, 293280, End_track
3, 0, Start_track
3, 0, Title_t, "Grand Piano"
3, 0, Program_c, 0, 0
3, 0, Control_c, 0, 7, 115
3, 0, Control_c, 0, 10, 79
3, 1920, Note_on_c, 0, 69, 49
3, 1967, Note_on_c, 0, 69, 0
3, 2880, Note_on_c, 0, 66, 49
3, 2927, Note_on_c, 0, 66, 0
3, 3360, Note_on_c, 0, 66, 49
3, 3407, Note_on_c, 0, 66, 0
3, 3840, Note_on_c, 0, 65, 49
3, 3887, Note_on_c, 0, 65, 0
3, 4800, Note_on_c, 0, 65, 62
3, 4847, Note_on_c, 0, 65, 0
3, 5760, Note_on_c, 0, 66, 62
3, 6000, Note_on_c, 0, 66, 0
3, 6720, Note_on_c, 0, 65, 49
3, 6767, Note_on_c, 0, 65, 0
3, 7680, Note_on_c, 0, 65, 49
3, 7727, Note_on_c, 0, 65, 0
3, 9600, Note_on_c, 0, 69, 49
3, 9647, Note_on_c, 0, 69, 0
3, 10560, Note_on_c, 0, 66, 49
3, 10607, Note_on_c, 0, 66, 0
3, 11040, Note_on_c, 0, 66, 49
3, 11087, Note_on_c, 0, 66, 0
3, 11520, Note_on_c, 0, 65, 49
3, 11567, Note_on_c, 0, 65, 0
3, 12480, Note_on_c, 0, 65, 49
3, 12527, Note_on_c, 0, 65, 0
3, 13440, Note_on_c, 0, 66, 62
3, 13487, Note_on_c, 0, 66, 0
3, 14400, Note_on_c, 0, 66, 49
3, 14447, Note_on_c, 0, 66, 0
3, 15360, Note_on_c, 0, 65, 62
3, 15407, Note_on_c, 0, 65, 0
3, 16320, Note_on_c, 0, 65, 49
3, 16367, Note_on_c, 0, 65, 0
3, 18240, Note_on_c, 0, 69, 49
3, 18287, Note_on_c, 0, 69, 0
3, 19440, Note_on_c, 0, 61, 49
3, 19680, Note_on_c, 0, 61, 0
3, 19680, Note_on_c, 0, 60, 49
3, 19920, Note_on_c, 0, 60, 0
3, 19920, Note_on_c, 0, 58, 49
3, 20160, Note_on_c, 0, 58, 0
3, 20160, Note_on_c, 0, 57, 49
3, 20400, Note_on_c, 0, 57, 0
3, 20400, Note_on_c, 0, 58, 49
3, 20640, Note_on_c, 0, 58, 0
3, 20640, Note_on_c, 0, 65, 49
3, 20880, Note_on_c, 0, 65, 0
3, 20880, Note_on_c, 0, 65, 49
3, 20927, Note_on_c, 0, 65, 0
3, 21120, Note_on_c, 0, 60, 75
3, 21360, Note_on_c, 0, 60, 0
3, 21360, Note_on_c, 0, 63, 75
3, 21600, Note_on_c, 0, 63, 0
3, 21600, Note_on_c, 0, 61, 75
3, 21840, Note_on_c, 0, 61, 0
3, 21840, Note_on_c, 0, 60, 75
3, 22080, Note_on_c, 0, 60, 0
3, 22560, Note_on_c, 0, 66, 62
3, 23040, Note_on_c, 0, 66, 0
3, 23040, Note_on_c, 0, 65, 62
3, 23280, Note_on_c, 0, 65, 0
3, 24000, Note_on_c, 0, 58, 75
3, 24240, Note_on_c, 0, 58, 0
3, 24240, Note_on_c, 0, 60, 75
3, 24480, Note_on_c, 0, 60, 0
3, 24480, Note_on_c, 0, 61, 75
3, 24720, Note_on_c, 0, 61, 0
3, 24720, Note_on_c, 0, 65, 75
3, 24960, Note_on_c, 0, 65, 0
3, 24960, Note_on_c, 0, 63, 75
3, 25200, Note_on_c, 0, 63, 0
3, 25200, Note_on_c, 0, 61, 75
3, 25440, Note_on_c, 0, 61, 0
3, 25440, Note_on_c, 0, 60, 62
3, 25680, Note_on_c, 0, 60, 0
3, 25680, Note_on_c, 0, 58, 62
3, 25920, Note_on_c, 0, 58, 0
3, 27840, Note_on_c, 0, 57, 62
3, 28080, Note_on_c, 0, 57, 0
3, 28080, Note_on_c, 0, 58, 62
3, 28320, Note_on_c, 0, 58, 0
3, 28320, Note_on_c, 0, 65, 62
3, 28560, Note_on_c, 0, 65, 0
3, 28560, Note_on_c, 0, 65, 62
3, 28607, Note_on_c, 0, 65, 0
3, 28800, Note_on_c, 0, 60, 75
3, 29040, Note_on_c, 0, 60, 0
3, 29040, Note_on_c, 0, 63, 75
3, 29280, Note_on_c, 0, 63, 0
3, 29280, Note_on_c, 0, 61, 75
3, 29520, Note_on_c, 0, 61, 0
3, 29520, Note_on_c, 0, 60, 75
3, 29760, Note_on_c, 0, 60, 0
3, 30240, Note_on_c, 0, 66, 62
3, 30720, Note_on_c, 0, 66, 0
3, 30720, Note_on_c, 0, 65, 62
3, 30960, Note_on_c, 0, 65, 0
3, 34560, Note_on_c, 0, 65, 49
3, 35520, Note_on_c, 0, 65, 0
3, 36480, Control_c, 0, 64, 127
3, 36480, Note_on_c, 0, 61, 75
3, 36720, Note_on_c, 0, 61, 0
3, 36720, Note_on_c, 0, 60, 75
3, 36960, Note_on_c, 0, 60, 0
3, 36960, Note_on_c, 0, 61, 62
3, 37200, Note_on_c, 0, 61, 0
3, 37200, Control_c, 0, 64, 0
3, 37200, Note_on_c, 0, 63, 62
3, 37440, Note_on_c, 0, 63, 0
3, 37440, Control_c, 0, 64, 127
3, 37440, Note_on_c, 0, 65, 62
3, 37680, Note_on_c, 0, 65, 0
3, 37680, Note_on_c, 0, 63, 62
3, 37920, Note_on_c, 0, 63, 0
3, 37920, Note_on_c, 0, 61, 62
3, 38160, Note_on_c, 0, 61, 0
3, 38160, Note_on_c, 0, 60, 62
3, 38400, Note_on_c, 0, 60, 0
3, 38400, Control_c, 0, 64, 0
3, 38400, Note_on_c, 0, 58, 62
3, 38640, Note_on_c, 0, 58, 0
3, 111360, Note_on_c, 0, 72, 62
3, 111360, Note_on_c, 0, 77, 62
3, 111360, Note_on_c, 0, 81, 62
3, 112320, Note_on_c, 0, 81, 0
3, 112320, Note_on_c, 0, 77, 0
3, 112320, Note_on_c, 0, 72, 0
3, 112320, Note_on_c, 0, 81, 62
3, 112800, Note_on_c, 0, 81, 0
3, 112800, Note_on_c, 0, 82, 62
3, 113280, Note_on_c, 0, 82, 0
3, 113280, Note_on_c, 0, 79, 62
3, 113760, Note_on_c, 0, 79, 0
3, 113760, Note_on_c, 0, 81, 62
3, 114000, Note_on_c, 0, 81, 0
3, 114240, Note_on_c, 0, 69, 62
3, 114720, Note_on_c, 0, 69, 0
3, 114720, Note_on_c, 0, 70, 62
3, 115200, Note_on_c, 0, 70, 0
3, 115200, Note_on_c, 0, 67, 62
3, 115680, Note_on_c, 0, 67, 0
3, 115680, Note_on_c, 0, 69, 62
3, 115920, Note_on_c, 0, 69, 0
3, 116160, Note_on_c, 0, 58, 62
3, 118080, Note_on_c, 0, 58, 0
3, 120000, Note_on_c, 0, 57, 62
3, 120000, Note_on_c, 0, 60, 62
3, 120960, Note_on_c, 0, 60, 0
3, 120960, Note_on_c, 0, 57, 0
3, 120960, Note_on_c, 0, 52, 62
3, 120960, Note_on_c, 0, 58, 62
3, 121920, Note_on_c, 0, 58, 0
3, 121920, Note_on_c, 0, 52, 0
3, 121920, Note_on_c, 0, 57, 62
3, 121920, Note_on_c, 0, 60, 62
3, 122880, Note_on_c, 0, 60, 0
3, 122880, Note_on_c, 0, 57, 0
3, 122880, Note_on_c, 0, 55, 62
3, 122880, Note_on_c, 0, 58, 62
3, 123840, Note_on_c, 0, 58, 0
3, 123840, Note_on_c, 0, 55, 0
3, 123840, Note_on_c, 0, 53, 62
3, 123840, Note_on_c, 0, 57, 62
3, 124320, Note_on_c, 0, 57, 0
3, 124320, Note_on_c, 0, 53, 0
3, 124320, Note_on_c, 0, 53, 62
3, 124320, Note_on_c, 0, 57, 62
3, 124800, Note_on_c, 0, 57, 0
3, 124800, Note_on_c, 0, 53, 0
3, 124800, Note_on_c, 0, 55, 62
3, 124800, Note_on_c, 0, 57, 62
3, 125760, Note_on_c, 0, 57, 0
3, 125760, Note_on_c, 0, 55, 0
3, 125760, Note_on_c, 0, 53, 62
3, 125760, Note_on_c, 0, 57, 62
3, 126240, Note_on_c, 0, 57, 0
3, 126240, Note_on_c, 0, 53, 0
3, 126240, Note_on_c, 0, 53, 62
3, 126240, Note_on_c, 0, 59, 62
3, 126720, Note_on_c, 0, 59, 0
3, 126720, Note_on_c, 0, 53, 0
3, 126720, Note_on_c, 0, 52, 62
3, 126720, Note_on_c, 0, 55, 62
3, 127680, Note_on_c, 0, 55, 0
3, 127680, Note_on_c, 0, 52, 0
3, 127680, Note_on_c, 0, 65, 88
3, 128040, Note_on_c, 0, 65, 0
3, 128040, Note_on_c, 0, 64, 88
3, 128160, Note_on_c, 0, 64, 0
3, 128160, Note_on_c, 0, 64, 88
3, 128400, Note_on_c, 0, 64, 0
3, 128400, Note_on_c, 0, 62, 88
3, 128640, Note_on_c, 0, 62, 0
3, 128640, Note_on_c, 0, 62, 88
3, 129000, Note_on_c, 0, 62, 0
3, 129000, Note_on_c, 0, 60, 88
3, 129120, Note_on_c, 0, 60, 0
3, 129120, Note_on_c, 0, 60, 88
3, 129360, Note_on_c, 0, 60, 0
3, 129360, Note_on_c, 0, 62, 88
3, 129600, Note_on_c, 0, 62, 0
3, 129600, Note_on_c, 0, 64, 88
3, 129840, Note_on_c, 0, 64, 0
3, 129840, Note_on_c, 0, 65, 88
3, 130080, Note_on_c, 0, 65, 0
3, 130080, Note_on_c, 0, 64, 88
3, 130320, Note_on_c, 0, 64, 0
3, 130320, Note_on_c, 0, 62, 88
3, 130560, Note_on_c, 0, 62, 0
3, 136320, Note_on_c, 0, 82, 88
3, 137280, Note_on_c, 0, 82, 0
3, 137280, Note_on_c, 0, 84, 88
3, 137760, Note_on_c, 0, 84, 0
3, 137760, Note_on_c, 0, 86, 88
3, 138240, Note_on_c, 0, 86, 0
3, 138240, Note_on_c, 0, 79, 88
3, 139200, Note_on_c, 0, 79, 0
3, 140160, Note_on_c, 0, 79, 88
3, 141120, Note_on_c, 0, 79, 0
3, 142080, Note_on_c, 0, 82, 88
3, 143040, Note_on_c, 0, 82, 0
3, 144000, Note_on_c, 0, 72, 88
3, 144159, Note_on_c, 0, 72, 0
3, 144159, Note_on_c, 0, 73, 88
3, 144320, Note_on_c, 0, 73, 0
3, 144320, Note_on_c, 0, 72, 88
3, 144480, Note_on_c, 0, 72, 0
3, 144480, Note_on_c, 0, 72, 88
3, 144639, Note_on_c, 0, 72, 0
3, 144639, Note_on_c, 0, 71, 88
3, 144800, Note_on_c, 0, 71, 0
3, 144800, Note_on_c, 0, 72, 88
3, 144960, Note_on_c, 0, 72, 0
3, 145920, Note_on_c, 0, 73, 88
3, 146079, Note_on_c, 0, 73, 0
3, 146079, Note_on_c, 0, 75, 88
3, 146240, Note_on_c, 0, 75, 0
3, 146240, Note_on_c, 0, 73, 88
3, 146400, Note_on_c, 0, 73, 0
3, 146400, Note_on_c, 0, 73, 88
3, 146559, Note_on_c, 0, 73, 0
3, 146559, Note_on_c, 0, 72, 88
3, 146720, Note_on_c, 0, 72, 0
3, 146720, Note_on_c, 0, 73, 88
3, 146880, Note_on_c, 0, 73, 0
3, 147039, Note_on_c, 0, 77, 88
3, 147200, Note_on_c, 0, 77, 0
3, 147200, Note_on_c, 0, 75, 88
3, 147360, Note_on_c, 0, 75, 0
3, 147360, Note_on_c, 0, 75, 88
3, 147519, Note_on_c, 0, 75, 0
3, 147519, Note_on_c, 0, 74, 88
3, 147680, Note_on_c, 0, 74, 0
3, 147680, Note_on_c, 0, 75, 88
3, 147840, Note_on_c, 0, 75, 0
3, 147999, Note_on_c, 0, 78, 88
3, 148160, Note_on_c, 0, 78, 0
3, 148160, Note_on_c, 0, 77, 88
3, 148320, Note_on_c, 0, 77, 0
3, 148320, Note_on_c, 0, 77, 88
3, 148479, Note_on_c, 0, 77, 0
3, 148479, Note_on_c, 0, 76, 88
3, 148640, Note_on_c, 0, 76, 0
3, 148640, Note_on_c, 0, 77, 88
3, 148800, Note_on_c, 0, 77, 0
3, 149280, Note_on_c, 0, 80, 88
3, 149760, Note_on_c, 0, 80, 0
3, 151680, Note_on_c, 0, 73, 88
3, 151839, Note_on_c, 0, 73, 0
3, 151839, Note_on_c, 0, 75, 88
3, 152000, Note_on_c, 0, 75, 0
3, 152000, Note_on_c, 0, 73, 88
3, 152160, Note_on_c, 0, 73, 0
3, 152160, Note_on_c, 0, 73, 88
3, 152319, Note_on_c, 0, 73, 0
3, 152319, Note_on_c, 0, 72, 88
3, 152480, Note_on_c, 0, 72, 0
3, 152480, Note_on_c, 0, 73, 88
3, 152640, Note_on_c, 0, 73, 0
3, 153600, Note_on_c, 0, 75, 88
3, 153759, Note_on_c, 0, 75, 0
3, 153759, Note_on_c, 0, 77, 88
3, 153920, Note_on_c, 0, 77, 0
3, 153920, Note_on_c, 0, 75, 88
3, 154080, Note_on_c, 0, 75, 0
3, 154080, Note_on_c, 0, 75, 88
3, 154239, Note_on_c, 0, 75, 0
3, 154239, Note_on_c, 0, 74, 88
3, 154400, Note_on_c, 0, 74, 0
3, 154400, Note_on_c, 0, 75, 88
3, 154560, Note_on_c, 0, 75, 0
3, 154560, Note_on_c, 0, 77, 88
3, 154719, Note_on_c, 0, 77, 0
3, 154719, Note_on_c, 0, 78, 88
3, 154880, Note_on_c, 0, 78, 0
3, 154880, Note_on_c, 0, 77, 88
3, 155040, Note_on_c, 0, 77, 0
3, 155040, Note_on_c, 0, 77, 88
3, 155199, Note_on_c, 0, 77, 0
3, 155199, Note_on_c, 0, 76, 88
3, 155360, Note_on_c, 0, 76, 0
3, 155360, Note_on_c, 0, 77, 88
3, 155520, Note_on_c, 0, 77, 0
3, 155520, Note_on_c, 0, 79, 88
3, 155679, Note_on_c, 0, 79, 0
3, 155679, Note_on_c, 0, 80, 88
3, 155840, Note_on_c, 0, 80, 0
3, 155840, Note_on_c, 0, 79, 88
3, 156000, Note_on_c, 0, 79, 0
3, 156000, Note_on_c, 0, 79, 88
3, 156159, Note_on_c, 0, 79, 0
3, 156159, Note_on_c, 0, 78, 88
3, 156320, Note_on_c, 0, 78, 0
3, 156320, Note_on_c, 0, 79, 88
3, 156480, Note_on_c, 0, 79, 0
3, 156480, Note_on_c, 0, 89, 88
3, 157440, Note_on_c, 0, 89, 0
3, 157920, Note_on_c, 0, 79, 75
3, 158400, Note_on_c, 0, 79, 0
3, 159360, Note_on_c, 0, 79, 88
3, 159360, Note_on_c, 0, 82, 88
3, 160320, Note_on_c, 0, 82, 0
3, 160320, Note_on_c, 0, 79, 0
3, 163200, Note_on_c, 0, 79, 88
3, 163200, Note_on_c, 0, 81, 88
3, 164160, Note_on_c, 0, 81, 0
3, 164160, Note_on_c, 0, 79, 0
3, 165120, Note_on_c, 0, 77, 88
3, 165120, Note_on_c, 0, 79, 88
3, 165600, Note_on_c, 0, 79, 0
3, 165600, Note_on_c, 0, 77, 0
3, 165600, Note_on_c, 0, 76, 88
3, 165600, Note_on_c, 0, 79, 88
3, 166080, Note_on_c, 0, 79, 0
3, 166080, Note_on_c, 0, 76, 0
3, 166080, Note_on_c, 0, 80, 75
3, 166320, Note_on_c, 0, 80, 0
3, 166320, Note_on_c, 0, 80, 75
3, 166560, Note_on_c, 0, 80, 0
3, 167040, Note_on_c, 0, 78, 75
3, 167040, Note_on_c, 0, 80, 75
3, 168000, Note_on_c, 0, 80, 0
3, 168000, Note_on_c, 0, 78, 0
3, 168000, Note_on_c, 0, 77, 75
3, 168000, Note_on_c, 0, 80, 75
3, 168480, Note_on_c, 0, 80, 0
3, 168480, Note_on_c, 0, 77, 0
3, 168480, Note_on_c, 0, 76, 75
3, 168480, Note_on_c, 0, 79, 75
3, 168960, Note_on_c, 0, 79, 0
3, 168960, Note_on_c, 0, 76, 0
3, 168960, Note_on_c, 0, 75, 75
3, 168960, Note_on_c, 0, 78, 75
3, 169440, Note_on_c, 0, 78, 0
3, 169440, Note_on_c, 0, 75, 0
3, 169440, Note_on_c, 0, 76, 75
3, 169680, Note_on_c, 0, 76, 0
3, 169680, Note_on_c, 0, 75, 75
3, 169920, Note_on_c, 0, 75, 0
3, 171840, Note_on_c, 0, 73, 75
3, 171840, Note_on_c, 0, 77, 75
3, 172320, Note_on_c, 0, 77, 0
3, 172320, Note_on_c, 0, 73, 0
3, 172320, Note_on_c, 0, 72, 75
3, 172320, Note_on_c, 0, 75, 75
3, 172800, Note_on_c, 0, 75, 0
3, 172800, Note_on_c, 0, 72, 0
3, 172800, Note_on_c, 0, 70, 75
3, 172800, Note_on_c, 0, 73, 75
3, 173280, Note_on_c, 0, 73, 0
3, 173280, Note_on_c, 0, 70, 0
3, 173280, Note_on_c, 0, 72, 75
3, 173520, Note_on_c, 0, 72, 0
3, 173520, Note_on_c, 0, 66, 75
3, 173520, Note_on_c, 0, 69, 75
3, 173760, Note_on_c, 0, 69, 0
3, 173760, Note_on_c, 0, 66, 0
3, 173760, Note_on_c, 0, 65, 62
3, 174720, Note_on_c, 0, 65, 0
3, 174720, Note_on_c, 0, 66, 49
3, 174720, Note_on_c, 0, 68, 49
3, 175680, Note_on_c, 0, 68, 0
3, 175680, Note_on_c, 0, 66, 0
3, 175680, Note_on_c, 0, 65, 49
3, 175680, Note_on_c, 0, 68, 49
3, 176160, Note_on_c, 0, 68, 0
3, 176160, Note_on_c, 0, 65, 0
3, 176160, Note_on_c, 0, 64, 49
3, 176160, Note_on_c, 0, 67, 49
3, 176640, Note_on_c, 0, 67, 0
3, 176640, Note_on_c, 0, 64, 0
3, 176640, Note_on_c, 0, 63, 49
3, 176640, Note_on_c, 0, 66, 49
3, 177120, Note_on_c, 0, 66, 0
3, 177120, Note_on_c, 0, 63, 0
3, 177120, Note_on_c, 0, 64, 49
3, 177360, Note_on_c, 0, 64, 0
3, 177360, Note_on_c, 0, 63, 49
3, 177600, Note_on_c, 0, 63, 0
3, 177600, Note_on_c, 0, 65, 49
3, 178560, Note_on_c, 0, 65, 0
3, 178560, Note_on_c, 0, 63, 49
3, 178560, Note_on_c, 0, 66, 49
3, 179520, Note_on_c, 0, 66, 0
3, 179520, Note_on_c, 0, 63, 0
3, 179520, Note_on_c, 0, 61, 49
3, 179520, Note_on_c, 0, 65, 49
3, 180480, Note_on_c, 0, 65, 0
3, 180480, Note_on_c, 0, 61, 0
3, 187680, Note_on_c, 0, 53, 49
3, 188160, Note_on_c, 0, 53, 0
3, 188160, Note_on_c, 0, 55, 49
3, 188640, Note_on_c, 0, 55, 0
3, 188640, Note_on_c, 0, 56, 49
3, 189120, Note_on_c, 0, 56, 0
3, 189120, Note_on_c, 0, 57, 49
3, 189600, Note_on_c, 0, 57, 0
3, 189600, Note_on_c, 0, 60, 49
3, 190080, Note_on_c, 0, 60, 0
3, 198240, Control_c, 0, 64, 127
3, 198240, Note_on_c, 0, 65, 49
3, 198300, Note_on_c, 0, 65, 0
3, 198300, Note_on_c, 0, 67, 49
3, 198360, Note_on_c, 0, 67, 0
3, 198360, Note_on_c, 0, 68, 49
3, 198420, Note_on_c, 0, 68, 0
3, 198420, Note_on_c, 0, 69, 49
3, 198480, Note_on_c, 0, 69, 0
3, 198480, Control_c, 0, 64, 0
3, 198480, Note_on_c, 0, 70, 49
3, 198720, Note_on_c, 0, 70, 0
3, 200160, Note_on_c, 0, 63, 49
3, 200160, Note_on_c, 0, 69, 49
3, 200400, Note_on_c, 0, 69, 0
3, 200400, Note_on_c, 0, 63, 0
3, 202080, Control_c, 0, 64, 127
3, 202080, Note_on_c, 0, 77, 49
3, 202140, Note_on_c, 0, 77, 0
3, 202140, Note_on_c, 0, 79, 49
3, 202200, Note_on_c, 0, 79, 0
3, 202200, Note_on_c, 0, 81, 49
3, 202260, Note_on_c, 0, 81, 0
3, 202260, Note_on_c, 0, 82, 49
3, 202320, Note_on_c, 0, 82, 0
3, 202320, Control_c, 0, 64, 0
3, 202320, Note_on_c, 0, 84, 49
3, 202367, Note_on_c, 0, 84, 0
3, 203520, Control_c, 0, 64, 127
3, 203520, Note_on_c, 0, 78, 49
3, 203580, Note_on_c, 0, 78, 0
3, 203580, Note_on_c, 0, 80, 49
3, 203640, Note_on_c, 0, 80, 0
3, 203640, Note_on_c, 0, 82, 49
3, 203700, Note_on_c, 0, 82, 0
3, 203700, Note_on_c, 0, 83, 49
3, 203760, Note_on_c, 0, 83, 0
3, 203760, Control_c, 0, 64, 0
3, 203760, Note_on_c, 0, 84, 49
3, 203807, Note_on_c, 0, 84, 0
3, 204000, Control_c, 0, 64, 127
3, 204000, Note_on_c, 0, 73, 49
3, 204060, Note_on_c, 0, 73, 0
3, 204060, Note_on_c, 0, 75, 49
3, 204120, Note_on_c, 0, 75, 0
3, 204120, Note_on_c, 0, 76, 49
3, 204180, Note_on_c, 0, 76, 0
3, 204180, Note_on_c, 0, 77, 49
3, 204240, Note_on_c, 0, 77, 0
3, 204240, Control_c, 0, 64, 0
3, 204240, Note_on_c, 0, 78, 49
3, 204480, Note_on_c, 0, 78, 0
3, 204960, Note_on_c, 0, 66, 49
3, 205200, Note_on_c, 0, 66, 0
3, 205440, Control_c, 0, 64, 127
3, 205440, Note_on_c, 0, 77, 49
3, 205500, Note_on_c, 0, 77, 0
3, 205500, Note_on_c, 0, 78, 49
3, 205560, Note_on_c, 0, 78, 0
3, 205560, Note_on_c, 0, 80, 49
3, 205620, Note_on_c, 0, 80, 0
3, 205620, Note_on_c, 0, 81, 49
3, 205680, Note_on_c, 0, 81, 0
3, 205680, Control_c, 0, 64, 0
3, 205680, Note_on_c, 0, 82, 49
3, 205727, Note_on_c, 0, 82, 0
3, 205920, Control_c, 0, 64, 127
3, 205920, Note_on_c, 0, 72, 49
3, 205980, Note_on_c, 0, 72, 0
3, 205980, Note_on_c, 0, 73, 49
3, 206040, Note_on_c, 0, 73, 0
3, 206040, Note_on_c, 0, 75, 49
3, 206100, Note_on_c, 0, 75, 0
3, 206100, Note_on_c, 0, 76, 49
3, 206160, Note_on_c, 0, 76, 0
3, 206160, Control_c, 0, 64, 0
3, 206160, Note_on_c, 0, 77, 49
3, 206207, Note_on_c, 0, 77, 0
3, 238080, Note_on_c, 0, 73, 49
3, 238560, Note_on_c, 0, 73, 0
3, 238560, Note_on_c, 0, 73, 62
3, 238607, Note_on_c, 0, 73, 0
3, 238800, Note_on_c, 0, 73, 62
3, 238847, Note_on_c, 0, 73, 0
3, 264480, Note_on_c, 0, 57, 62
3, 264720, Note_on_c, 0, 57, 0
3, 265440, Note_on_c, 0, 54, 62
3, 265680, Note_on_c, 0, 54, 0
3, 265680, End_track
4, 0, Start_track
4, 0, Title_t, "Grand Piano"
4, 0, Program_c, 0, 0
4, 0, Control_c, 0, 7, 115
4, 0, Control_c, 0, 10, 41
4, 960, Note_on_c, 0, 58, 49
4, 960, Note_on_c, 0, 61, 49
4, 960, Note_on_c, 0, 65, 49
4, 1007, Note_on_c, 0, 65, 0
4, 1007, Note_on_c, 0, 61, 0
4, 1007, Note_on_c, 0, 58, 0
4, 1920, Note_on_c, 0, 53, 49
4, 1920, Note_on_c, 0, 60, 49
4, 1920, Note_on_c, 0, 65, 49
4, 1967, Note_on_c, 0, 65, 0
4, 1967, Note_on_c, 0, 60, 0
4, 1967, Note_on_c, 0, 53, 0
4, 2880, Note_on_c, 0, 54, 49
4, 2880, Note_on_c, 0, 61, 49
4, 2927, Note_on_c, 0, 61, 0
4, 2927, Note_on_c, 0, 54, 0
4, 3360, Note_on_c, 0, 51, 49
4, 3360, Note_on_c, 0, 58, 49
4, 3360, Note_on_c, 0, 63, 49
4, 3407, Note_on_c, 0, 63, 0
4, 3407, Note_on_c, 0, 58, 0
4, 3407, Note_on_c, 0, 51, 0
4, 3840, Note_on_c, 0, 53, 49
4, 3840, Note_on_c, 0, 57, 49
4, 3840, Note_on_c, 0, 60, 49
4, 3887, Note_on_c, 0, 60, 0
4, 3887, Note_on_c, 0, 57, 0
4, 3887, Note_on_c, 0, 53, 0
4, 4800, Note_on_c, 0, 49, 49
4, 4800, Note_on_c, 0, 58, 49
4, 4847, Note_on_c, 0, 58, 0
4, 4847, Note_on_c, 0, 49, 0
4, 5760, Note_on_c, 0, 48, 62
4, 5760, Note_on_c, 0, 58, 62
4, 6000, Note_on_c, 0, 58, 0
4, 6000, Note_on_c, 0, 48, 0
4, 6720, Note_on_c, 0, 53, 49
4, 6720, Note_on_c, 0, 60, 49
4, 6767, Note_on_c, 0, 60, 0
4, 6767, Note_on_c, 0, 53, 0
4, 7200, Note_on_c, 0, 49, 49
4, 7200, Note_on_c, 0, 55, 49
4, 7200, Note_on_c, 0, 58, 49
4, 7247, Note_on_c, 0, 58, 0
4, 7247, Note_on_c, 0, 55, 0
4, 7247, Note_on_c, 0, 49, 0
4, 7680, Note_on_c, 0, 53, 49
4, 7680, Note_on_c, 0, 60, 49
4, 7727, Note_on_c, 0, 60, 0
4, 7727, Note_on_c, 0, 53, 0
4, 8640, Note_on_c, 0, 58, 49
4, 8640, Note_on_c, 0, 61, 49
4, 8640, Note_on_c, 0, 65, 49
4, 8687, Note_on_c, 0, 65, 0
4, 8687, Note_on_c, 0, 61, 0
4, 8687, Note_on_c, 0, 58, 0
4, 9600, Note_on_c, 0, 53, 49
4, 9600, Note_on_c, 0, 60, 49
4, 9600, Note_on_c, 0, 65, 49
4, 9647, Note_on_c, 0, 65, 0
4, 9647, Note_on_c, 0, 60, 0
4, 9647, Note_on_c, 0, 53, 0
4, 10560, Note_on_c, 0, 54, 49
4, 10560, Note_on_c, 0, 61, 49
4, 10607, Note_on_c, 0, 61, 0
4, 10607, Note_on_c, 0, 54, 0
4, 11040, Note_on_c, 0, 51, 49
4, 11040, Note_on_c, 0, 58, 49
4, 11040, Note_on_c, 0, 63, 49
4, 11087, Note_on_c, 0, 63, 0
4, 11087, Note_on_c, 0, 58, 0
4, 11087, Note_on_c, 0, 51, 0
4, 11520, Note_on_c, 0, 53, 49
4, 11520, Note_on_c, 0, 57, 49
4, 11520, Note_on_c, 0, 60, 49
4, 11567, Note_on_c, 0, 60, 0
4, 11567, Note_on_c, 0, 57, 0
4, 11567, Note_on_c, 0, 53, 0
4, 12480, Note_on_c, 0, 49, 49
4, 12480, Note_on_c, 0, 58, 49
4, 12527, Note_on_c, 0, 58, 0
4, 12527, Note_on_c, 0, 49, 0
4, 13440, Note_on_c, 0, 51, 62
4, 13440, Note_on_c, 0, 58, 62
4, 13487, Note_on_c, 0, 58, 0
4, 13487, Note_on_c, 0, 51, 0
4, 14400, Note_on_c, 0, 56, 49
4, 14400, Note_on_c, 0, 60, 49
4, 14400, Note_on_c, 0, 63, 49
4, 14447, Note_on_c, 0, 63, 0
4, 14447, Note_on_c, 0, 60, 0
4, 14447, Note_on_c, 0, 56, 0
4, 15360, Note_on_c, 0, 49, 62
4, 15360, Note_on_c, 0, 56, 62
4, 15360, Note_on_c, 0, 61, 62
4, 15407, Note_on_c, 0, 61, 0
4, 15407, Note_on_c, 0, 56, 0
4, 15407, Note_on_c, 0, 49, 0
4, 16320, Note_on_c, 0, 54, 49
4, 16320, Note_on_c, 0, 58, 49
4, 16320, Note_on_c, 0, 61, 49
4, 16367, Note_on_c, 0, 61, 0
4, 16367, Note_on_c, 0, 58, 0
4, 16367, Note_on_c, 0, 54, 0
4, 17280, Note_on_c, 0, 48, 62
4, 17280, Note_on_c, 0, 58, 62
4, 17327, Note_on_c, 0, 58, 0
4, 17327, Note_on_c, 0, 48, 0
4, 18240, Note_on_c, 0, 53, 49
4, 18240, Note_on_c, 0, 60, 49
4, 18287, Note_on_c, 0, 60, 0
4, 18287, Note_on_c, 0, 53, 0
4, 19200, Note_on_c, 0, 58, 49
4, 19200, Note_on_c, 0, 61, 49
4, 19200, Note_on_c, 0, 65, 49
4, 19247, Note_on_c, 0, 65, 0
4, 19247, Note_on_c, 0, 61, 0
4, 19247, Note_on_c, 0, 58, 0
4, 20160, Note_on_c, 0, 49, 49
4, 20160, Note_on_c, 0, 53, 49
4, 21120, Note_on_c, 0, 53, 0
4, 21120, Note_on_c, 0, 49, 0
4, 21120, Note_on_c, 0, 53, 62
4, 22080, Note_on_c, 0, 53, 0
4, 22080, Note_on_c, 0, 57, 75
4, 22320, Note_on_c, 0, 57, 0
4, 22320, Note_on_c, 0, 58, 75
4, 22560, Note_on_c, 0, 58, 0
4, 22560, Note_on_c, 0, 60, 62
4, 22800, Note_on_c, 0, 60, 0
4, 22800, Note_on_c, 0, 60, 62
4, 23040, Note_on_c, 0, 60, 0
4, 23040, Note_on_c, 0, 53, 62
4, 23280, Note_on_c, 0, 53, 0
4, 23280, Note_on_c, 0, 53, 62
4, 23520, Note_on_c, 0, 51, 62
4, 23520, Note_on_c, 0, 55, 62
4, 23760, Note_on_c, 0, 55, 0
4, 23760, Note_on_c, 0, 51, 0
4, 23760, Note_on_c, 0, 53, 0
4, 23760, Note_on_c, 0, 57, 75
4, 24000, Note_on_c, 0, 57, 0
4, 24000, Note_on_c, 0, 49, 62
4, 24000, Note_on_c, 0, 53, 62
4, 24960, Note_on_c, 0, 53, 0
4, 24960, Note_on_c, 0, 49, 0
4, 24960, Note_on_c, 0, 48, 62
4, 24960, Note_on_c, 0, 54, 62
4, 25920, Note_on_c, 0, 54, 0
4, 25920, Note_on_c, 0, 48, 0
4, 25920, Note_on_c, 0, 57, 62
4, 26160, Note_on_c, 0, 57, 0
4, 26160, Control_c, 0, 64, 127
4, 26160, Note_on_c, 0, 57, 62
4, 26400, Note_on_c, 0, 57, 0
4, 26400, Note_on_c, 0, 58, 62
4, 26640, Note_on_c, 0, 58, 0
4, 26640, Note_on_c, 0, 55, 62
4, 26880, Note_on_c, 0, 55, 0
4, 26880, Control_c, 0, 64, 0
4, 26880, Note_on_c, 0, 57, 62
4, 27120, Note_on_c, 0, 57, 0
4, 27840, Note_on_c, 0, 49, 49
4, 27840, Note_on_c, 0, 53, 49
4, 28800, Note_on_c, 0, 53, 0
4, 28800, Note_on_c, 0, 49, 0
4, 28800, Note_on_c, 0, 53, 62
4, 29760, Note_on_c, 0, 53, 0
4, 29760, Note_on_c, 0, 57, 75
4, 30000, Note_on_c, 0, 57, 0
4, 30000, Note_on_c, 0, 58, 75
4, 30240, Note_on_c, 0, 58, 0
4, 30240, Note_on_c, 0, 60, 62
4, 30480, Note_on_c, 0, 60, 0
4, 30480, Note_on_c, 0, 60, 62
4, 30720, Note_on_c, 0, 60, 0
4, 30720, Note_on_c, 0, 53, 62
4, 30960, Note_on_c, 0, 53, 0
4, 30960, Note_on_c, 0, 53, 62
4, 31200, Note_on_c, 0, 51, 62
4, 31200, Note_on_c, 0, 55, 62
4, 31440, Note_on_c, 0, 55, 0
4, 31440, Note_on_c, 0, 51, 0
4, 31440, Note_on_c, 0, 53, 0
4, 31440, Note_on_c, 0, 57, 75
4, 31680, Note_on_c, 0, 57, 0
4, 31680, Note_on_c, 0, 60, 75
4, 31920, Note_on_c, 0, 60, 0
4, 31920, Note_on_c, 0, 58, 75
4, 32160, Note_on_c, 0, 58, 0
4, 32160, Note_on_c, 0, 65, 75
4, 32207, Note_on_c, 0, 65, 0
4, 32400, Note_on_c, 0, 65, 75
4, 32447, Note_on_c, 0, 65, 0
4, 32640, Control_c, 0, 64, 127
4, 32640, Note_on_c, 0, 65, 75
4, 32880, Note_on_c, 0, 65, 0
4, 32880, Note_on_c, 0, 63, 75
4, 33120, Note_on_c, 0, 63, 0
4, 33120, Note_on_c, 0, 61, 62
4, 33360, Note_on_c, 0, 61, 0
4, 33360, Control_c, 0, 64, 0
4, 33360, Note_on_c, 0, 60, 62
4, 33600, Note_on_c, 0, 60, 0
4, 33600, Note_on_c, 0, 58, 62
4, 33840, Note_on_c, 0, 58, 0
4, 33840, Note_on_c, 0, 56, 62
4, 34080, Note_on_c, 0, 56, 0
4, 34080, Note_on_c, 0, 63, 62
4, 34127, Note_on_c, 0, 63, 0
4, 34320, Note_on_c, 0, 63, 75
4, 34367, Note_on_c, 0, 63, 0
4, 34560, Control_c, 0, 64, 127
4, 34560, Note_on_c, 0, 63, 75
4, 34800, Note_on_c, 0, 63, 0
4, 34800, Note_on_c, 0, 61, 75
4, 35040, Note_on_c, 0, 61, 0
4, 35040, Note_on_c, 0, 60, 62
4, 35280, Note_on_c, 0, 60, 0
4, 35280, Control_c, 0, 64, 0
4, 35280, Note_on_c, 0, 58, 62
4, 35520, Note_on_c, 0, 58, 0
4, 35520, Note_on_c, 0, 56, 62
4, 35760, Note_on_c, 0, 56, 0
4, 35760, Note_on_c, 0, 54, 62
4, 36000, Note_on_c, 0, 54, 0
4, 36000, Note_on_c, 0, 61, 62
4, 36047, Note_on_c, 0, 61, 0
4, 36240, Note_on_c, 0, 61, 75
4, 36287, Note_on_c, 0, 61, 0
4, 36480, Note_on_c, 0, 58, 62
4, 37440, Note_on_c, 0, 58, 0
4, 37440, Note_on_c, 0, 60, 62
4, 37920, Note_on_c, 0, 60, 0
4, 38400, Note_on_c, 0, 46, 75
4, 38640, Note_on_c, 0, 46, 0
4, 38640, Note_on_c, 0, 46, 75
4, 38880, Note_on_c, 0, 46, 0
4, 38880, Note_on_c, 0, 48, 75
4, 39120, Note_on_c, 0, 48, 0
4, 39120, Note_on_c, 0, 49, 75
4, 39360, Note_on_c, 0, 49, 0
4, 39360, Note_on_c, 0, 44, 101
4, 39360, Note_on_c, 0, 51, 101
4, 39840, Note_on_c, 0, 51, 0
4, 39840, Note_on_c, 0, 44, 0
4, 39840, Note_on_c, 0, 44, 101
4, 39840, Note_on_c, 0, 51, 101
4, 40320, Note_on_c, 0, 51, 0
4, 40320, Note_on_c, 0, 44, 0
4, 40320, Note_on_c, 0, 51, 101
4, 40560, Note_on_c, 0, 51, 0
4, 40560, Note_on_c, 0, 51, 75
4, 40800, Note_on_c, 0, 51, 0
4, 40800, Note_on_c, 0, 49, 75
4, 41040, Note_on_c, 0, 49, 0
4, 41040, Control_c, 0, 64, 127
4, 41040, Note_on_c, 0, 48, 75
4, 41200, Note_on_c, 0, 42, 75
4, 41240, Note_on_c, 0, 49, 75
4, 41280, Note_on_c, 0, 48, 0
4, 41280, Note_on_c, 0, 58, 75
4, 41520, Note_on_c, 0, 58, 0
4, 41520, Note_on_c, 0, 49, 0
4, 41520, Note_on_c, 0, 42, 0
4, 41520, Note_on_c, 0, 56, 75
4, 41640, Note_on_c, 0, 56, 0
4, 41640, Note_on_c, 0, 54, 75
4, 41760, Note_on_c, 0, 54, 0
4, 41760, Note_on_c, 0, 53, 75
4, 42000, Note_on_c, 0, 53, 0
4, 42000, Control_c, 0, 64, 0
4, 42000, Note_on_c, 0, 51, 75
4, 42120, Note_on_c, 0, 51, 0
4, 42120, Note_on_c, 0, 49, 75
4, 42240, Note_on_c, 0, 49, 0
4, 42240, Note_on_c, 0, 48, 75
4, 42480, Note_on_c, 0, 48, 0
4, 42480, Note_on_c, 0, 46, 75
4, 42480, Note_on_c, 0, 58, 75
4, 42720, Note_on_c, 0, 58, 0
4, 42720, Note_on_c, 0, 46, 0
4, 42720, Note_on_c, 0, 48, 75
4, 42720, Note_on_c, 0, 60, 75
4, 42960, Note_on_c, 0, 60, 0
4, 42960, Note_on_c, 0, 48, 0
4, 42960, Note_on_c, 0, 49, 75
4, 42960, Note_on_c, 0, 61, 75
4, 43200, Note_on_c, 0, 61, 0
4, 43200, Note_on_c, 0, 49, 0
4, 43200, Note_on_c, 0, 44, 101
4, 43200, Note_on_c, 0, 51, 101
4, 43680, Note_on_c, 0, 51, 0
4, 43680, Note_on_c, 0, 44, 0
4, 43680, Note_on_c, 0, 44, 101
4, 43680, Note_on_c, 0, 51, 101
4, 44160, Note_on_c, 0, 51, 0
4, 44160, Note_on_c, 0, 44, 0
4, 44160, Note_on_c, 0, 51, 101
4, 44400, Note_on_c, 0, 51, 0
4, 44400, Note_on_c, 0, 51, 75
4, 44640, Note_on_c, 0, 51, 0
4, 44640, Note_on_c, 0, 49, 75
4, 44880, Note_on_c, 0, 49, 0
4, 44880, Note_on_c, 0, 48, 75
4, 45120, Note_on_c, 0, 48, 0
4, 45120, Note_on_c, 0, 46, 75
4, 45360, Note_on_c, 0, 46, 0
4, 45360, Note_on_c, 0, 44, 75
4, 45480, Note_on_c, 0, 44, 0
4, 45480, Note_on_c, 0, 42, 75
4, 45600, Note_on_c, 0, 42, 0
4, 45600, Note_on_c, 0, 41, 75
4, 45840, Note_on_c, 0, 41, 0
4, 45840, Note_on_c, 0, 39, 75
4, 45960, Note_on_c, 0, 39, 0
4, 45960, Note_on_c, 0, 41, 75
4, 46080, Note_on_c, 0, 41, 0
4, 46080, Note_on_c, 0, 42, 75
4, 46320, Note_on_c, 0, 42, 0
4, 46320, Note_on_c, 0, 44, 75
4, 46440, Note_on_c, 0, 44, 0
4, 46440, Note_on_c, 0, 46, 75
4, 46560, Note_on_c, 0, 46, 0
4, 46560, Note_on_c, 0, 48, 75
4, 46800, Note_on_c, 0, 48, 0
4, 46800, Note_on_c, 0, 49, 75
4, 46847, Note_on_c, 0, 49, 0
4, 47040, Note_on_c, 0, 44, 101
4, 47040, Note_on_c, 0, 51, 101
4, 47520, Note_on_c, 0, 51, 0
4, 47520, Note_on_c, 0, 44, 0
4, 47520, Note_on_c, 0, 44, 101
4, 47520, Note_on_c, 0, 51, 101
4, 48000, Note_on_c, 0, 51, 0
4, 48000, Note_on_c, 0, 44, 0
4, 48000, Note_on_c, 0, 51, 101
4, 48240, Note_on_c, 0, 51, 0
4, 48240, Note_on_c, 0, 51, 75
4, 48480, Note_on_c, 0, 51, 0
4, 48480, Note_on_c, 0, 49, 75
4, 48720, Note_on_c, 0, 49, 0
4, 48720, Control_c, 0, 64, 127
4, 48720, Note_on_c, 0, 48, 75
4, 48880, Note_on_c, 0, 42, 75
4, 48920, Note_on_c, 0, 49, 75
4, 48960, Note_on_c, 0, 48, 0
4, 48960, Note_on_c, 0, 58, 75
4, 49200, Note_on_c, 0, 58, 0
4, 49200, Note_on_c, 0, 49, 0
4, 49200, Note_on_c, 0, 42, 0
4, 49200, Note_on_c, 0, 56, 75
4, 49320, Note_on_c, 0, 56, 0
4, 49320, Note_on_c, 0, 54, 75
4, 49440, Note_on_c, 0, 54, 0
4, 49440, Note_on_c, 0, 53, 75
4, 49680, Note_on_c, 0, 53, 0
4, 49680, Control_c, 0, 64, 0
4, 49680, Note_on_c, 0, 51, 75
4, 49800, Note_on_c, 0, 51, 0
4, 49800, Note_on_c, 0, 49, 75
4, 49920, Note_on_c, 0, 49, 0
4, 49920, Note_on_c, 0, 48, 75
4, 50160, Note_on_c, 0, 48, 0
4, 50160, Note_on_c, 0, 46, 75
4, 50400, Note_on_c, 0, 46, 0
4, 50400, Note_on_c, 0, 48, 75
4, 50640, Note_on_c, 0, 48, 0
4, 50640, Note_on_c, 0, 49, 75
4, 50880, Note_on_c, 0, 49, 0
4, 50880, Note_on_c, 0, 44, 101
4, 50880, Note_on_c, 0, 51, 101
4, 51360, Note_on_c, 0, 51, 0
4, 51360, Note_on_c, 0, 44, 0
4, 51360, Note_on_c, 0, 44, 101
4, 51360, Note_on_c, 0, 51, 101
4, 51840, Note_on_c, 0, 51, 0
4, 51840, Note_on_c, 0, 44, 0
4, 51840, Note_on_c, 0, 51, 101
4, 52080, Note_on_c, 0, 51, 0
4, 52080, Note_on_c, 0, 48, 75
4, 52200, Note_on_c, 0, 48, 0
4, 52200, Note_on_c, 0, 49, 75
4, 52320, Note_on_c, 0, 49, 0
4, 52320, Note_on_c, 0, 51, 75
4, 52560, Note_on_c, 0, 51, 0
4, 52560, Note_on_c, 0, 53, 75
4, 52607, Note_on_c, 0, 53, 0
4, 52720, Note_on_c, 0, 38, 75
4, 52760, Note_on_c, 0, 45, 75
4, 52800, Note_on_c, 0, 54, 75
4, 53280, Note_on_c, 0, 54, 0
4, 53280, Note_on_c, 0, 45, 0
4, 53280, Note_on_c, 0, 38, 0
4, 53280, Note_on_c, 0, 38, 101
4, 53280, Note_on_c, 0, 45, 101
4, 53280, Note_on_c, 0, 54, 101
4, 53680, Note_on_c, 0, 38, 75
4, 53720, Note_on_c, 0, 45, 75
4, 53760, Note_on_c, 0, 54, 0
4, 53760, Note_on_c, 0, 38, 0
4, 53760, Note_on_c, 0, 45, 0
4, 53760, Note_on_c, 0, 54, 75
4, 54000, Note_on_c, 0, 54, 0
4, 54000, Note_on_c, 0, 38, 0
4, 54000, Note_on_c, 0, 45, 0
4, 54000, Note_on_c, 0, 50, 75
4, 54120, Note_on_c, 0, 50, 0
4, 54120, Note_on_c, 0, 52, 75
4, 54240, Note_on_c, 0, 52, 0
4, 54240, Note_on_c, 0, 54, 75
4, 54480, Note_on_c, 0, 54, 0
4, 54480, Note_on_c, 0, 56, 75
4, 54527, Note_on_c, 0, 56, 0
4, 54720, Note_on_c, 0, 49, 101
4, 54720, Note_on_c, 0, 54, 101
4, 54720, Note_on_c, 0, 57, 101
4, 55200, Note_on_c, 0, 57, 0
4, 55200, Note_on_c, 0, 54, 0
4, 55200, Note_on_c, 0, 49, 0
4, 55200, Note_on_c, 0, 49, 101
4, 55200, Note_on_c, 0, 54, 101
4, 55200, Note_on_c, 0, 57, 101
4, 55680, Note_on_c, 0, 57, 0
4, 55680, Note_on_c, 0, 54, 0
4, 55680, Note_on_c, 0, 49, 0
4, 55680, Note_on_c, 0, 57, 101
4, 55920, Note_on_c, 0, 57, 0
4, 55920, Note_on_c, 0, 54, 75
4, 56040, Note_on_c, 0, 54, 0
4, 56040, Note_on_c, 0, 56, 75
4, 56160, Note_on_c, 0, 56, 0
4, 56160, Note_on_c, 0, 57, 75
4, 56400, Note_on_c, 0, 57, 0
4, 56400, Note_on_c, 0, 59, 75
4, 56447, Note_on_c, 0, 59, 0
4, 56640, Note_on_c, 0, 48, 114
4, 56640, Note_on_c, 0, 53, 114
4, 56640, Note_on_c, 0, 57, 114
4, 56640, Note_on_c, 0, 60, 114
4, 57120, Note_on_c, 0, 60, 0
4, 57120, Note_on_c, 0, 48, 0
4, 57120, Note_on_c, 0, 53, 0
4, 57120, Note_on_c, 0, 57, 0
4, 57120, Note_on_c, 0, 48, 114
4, 57120, Note_on_c, 0, 53, 114
4, 57120, Note_on_c, 0, 57, 114
4, 57120, Note_on_c, 0, 60, 114
4, 57600, Note_on_c, 0, 60, 0
4, 57600, Note_on_c, 0, 48, 0
4, 57600, Note_on_c, 0, 53, 0
4, 57600, Note_on_c, 0, 57, 0
4, 57600, Note_on_c, 0, 60, 114
4, 57840, Note_on_c, 0, 60, 0
4, 57840, Note_on_c, 0, 57, 88
4, 57960, Note_on_c, 0, 57, 0
4, 57960, Note_on_c, 0, 59, 88
4, 58080, Note_on_c, 0, 59, 0
4, 58080, Note_on_c, 0, 60, 88
4, 58320, Note_on_c, 0, 60, 0
4, 58320, Control_c, 0, 64, 127
4, 58320, Note_on_c, 0, 62, 101
4, 58367, Note_on_c, 0, 62, 0
4, 58480, Note_on_c, 0, 48, 101
4, 58520, Note_on_c, 0, 56, 101
4, 58560, Note_on_c, 0, 63, 101
4, 58960, Note_on_c, 0, 48, 101
4, 59000, Note_on_c, 0, 56, 101
4, 59040, Note_on_c, 0, 63, 0
4, 59040, Note_on_c, 0, 48, 0
4, 59040, Note_on_c, 0, 56, 0
4, 59040, Note_on_c, 0, 63, 101
4, 59440, Note_on_c, 0, 48, 101
4, 59480, Note_on_c, 0, 56, 101
4, 59520, Note_on_c, 0, 63, 0
4, 59520, Note_on_c, 0, 56, 0
4, 59520, Note_on_c, 0, 48, 0
4, 59520, Note_on_c, 0, 63, 101
4, 59760, Note_on_c, 0, 63, 0
4, 59760, Note_on_c, 0, 48, 0
4, 59760, Note_on_c, 0, 56, 0
4, 59760, Control_c, 0, 64, 0
4, 59760, Note_on_c, 0, 56, 101
4, 59880, Note_on_c, 0, 56, 0
4, 59880, Note_on_c, 0, 58, 101
4, 60000, Note_on_c, 0, 58, 0
4, 60000, Note_on_c, 0, 60, 101
4, 60240, Note_on_c, 0, 60, 0
4, 60240, Control_c, 0, 64, 127
4, 60240, Note_on_c, 0, 61, 101
4, 60287, Note_on_c, 0, 61, 0
4, 60400, Note_on_c, 0, 48, 101
4, 60440, Note_on_c, 0, 56, 101
4, 60480, Note_on_c, 0, 63, 101
4, 60880, Note_on_c, 0, 48, 101
4, 60920, Note_on_c, 0, 56, 101
4, 60960, Note_on_c, 0, 63, 0
4, 60960, Note_on_c, 0, 48, 0
4, 60960, Note_on_c, 0, 56, 0
4, 60960, Note_on_c, 0, 63, 101
4, 61360, Note_on_c, 0, 48, 101
4, 61400, Note_on_c, 0, 56, 101
4, 61440, Note_on_c, 0, 63, 0
4, 61440, Note_on_c, 0, 56, 0
4, 61440, Note_on_c, 0, 48, 0
4, 61440, Note_on_c, 0, 63, 101
4, 61920, Note_on_c, 0, 63, 0
4, 61920, Note_on_c, 0, 48, 0
4, 61920, Note_on_c, 0, 56, 0
4, 61920, Control_c, 0, 64, 0
4, 62320, Note_on_c, 0, 36, 101
4, 62360, Note_on_c, 0, 44, 101
4, 62400, Control_c, 0, 64, 127
4, 62400, Note_on_c, 0, 51, 88
4, 62800, Note_on_c, 0, 36, 88
4, 62840, Note_on_c, 0, 44, 88
4, 62880, Note_on_c, 0, 51, 0
4, 62880, Note_on_c, 0, 36, 0
4, 62880, Note_on_c, 0, 44, 0
4, 62880, Note_on_c, 0, 51, 88
4, 63280, Note_on_c, 0, 36, 88
4, 63320, Note_on_c, 0, 44, 88
4, 63360, Note_on_c, 0, 51, 0
4, 63360, Note_on_c, 0, 44, 0
4, 63360, Note_on_c, 0, 36, 0
4, 63360, Note_on_c, 0, 51, 88
4, 63840, Note_on_c, 0, 51, 0
4, 63840, Note_on_c, 0, 36, 0
4, 63840, Note_on_c, 0, 44, 0
4, 63840, Control_c, 0, 64, 0
4, 64240, Note_on_c, 0, 36, 88
4, 64280, Note_on_c, 0, 44, 88
4, 64320, Control_c, 0, 64, 127
4, 64320, Note_on_c, 0, 51, 88
4, 64720, Note_on_c, 0, 36, 88
4, 64760, Note_on_c, 0, 44, 88
4, 64800, Note_on_c, 0, 51, 0
4, 64800, Note_on_c, 0, 36, 0
4, 64800, Note_on_c, 0, 44, 0
4, 64800, Note_on_c, 0, 51, 88
4, 65200, Note_on_c, 0, 36, 88
4, 65240, Note_on_c, 0, 44, 88
4, 65280, Note_on_c, 0, 51, 0
4, 65280, Note_on_c, 0, 44, 0
4, 65280, Note_on_c, 0, 36, 0
4, 65280, Note_on_c, 0, 51, 88
4, 65760, Note_on_c, 0, 51, 0
4, 65760, Note_on_c, 0, 36, 0
4, 65760, Note_on_c, 0, 44, 0
4, 65760, Control_c, 0, 64, 0
4, 66160, Note_on_c, 0, 36, 88
4, 66200, Note_on_c, 0, 44, 88
4, 66240, Control_c, 0, 64, 127
4, 66240, Note_on_c, 0, 51, 88
4, 66640, Note_on_c, 0, 36, 88
4, 66680, Note_on_c, 0, 44, 88
4, 66720, Note_on_c, 0, 51, 0
4, 66720, Note_on_c, 0, 36, 0
4, 66720, Note_on_c, 0, 44, 0
4, 66720, Note_on_c, 0, 51, 75
4, 67120, Note_on_c, 0, 36, 75
4, 67160, Note_on_c, 0, 44, 75
4, 67200, Note_on_c, 0, 51, 0
4, 67200, Note_on_c, 0, 44, 0
4, 67200, Note_on_c, 0, 36, 0
4, 67200, Note_on_c, 0, 51, 75
4, 67680, Note_on_c, 0, 51, 0
4, 67680, Note_on_c, 0, 36, 0
4, 67680, Note_on_c, 0, 44, 0
4, 67680, Control_c, 0, 64, 0
4, 68080, Note_on_c, 0, 36, 75
4, 68120, Note_on_c, 0, 44, 75
4, 68160, Control_c, 0, 64, 127
4, 68160, Note_on_c, 0, 52, 75
4, 68560, Note_on_c, 0, 36, 75
4, 68600, Note_on_c, 0, 44, 75
4, 68640, Note_on_c, 0, 52, 0
4, 68640, Note_on_c, 0, 36, 0
4, 68640, Note_on_c, 0, 44, 0
4, 68640, Note_on_c, 0, 52, 75
4, 69040, Note_on_c, 0, 36, 75
4, 69080, Note_on_c, 0, 44, 75
4, 69120, Note_on_c, 0, 52, 0
4, 69120, Note_on_c, 0, 44, 0
4, 69120, Note_on_c, 0, 36, 0
4, 69120, Note_on_c, 0, 52, 75
4, 69600, Note_on_c, 0, 52, 0
4, 69600, Note_on_c, 0, 36, 0
4, 69600, Note_on_c, 0, 44, 0
4, 69600, Control_c, 0, 64, 0
4, 70000, Note_on_c, 0, 36, 62
4, 70040, Note_on_c, 0, 45, 62
4, 70080, Control_c, 0, 64, 127
4, 70080, Note_on_c, 0, 51, 62
4, 71040, Note_on_c, 0, 51, 0
4, 71040, Note_on_c, 0, 45, 0
4, 71040, Note_on_c, 0, 36, 0
4, 71520, Control_c, 0, 64, 0
4, 73200, Note_on_c, 0, 61, 62
4, 73440, Note_on_c, 0, 61, 0
4, 73440, Note_on_c, 0, 60, 62
4, 73680, Note_on_c, 0, 60, 0
4, 73680, Note_on_c, 0, 58, 62
4, 73920, Note_on_c, 0, 58, 0
4, 73920, Note_on_c, 0, 57, 62
4, 74160, Note_on_c, 0, 57, 0
4, 74160, Note_on_c, 0, 58, 62
4, 74400, Note_on_c, 0, 58, 0
4, 74400, Note_on_c, 0, 65, 62
4, 74447, Note_on_c, 0, 65, 0
4, 74640, Note_on_c, 0, 65, 62
4, 74880, Note_on_c, 0, 65, 0
4, 74880, Note_on_c, 0, 60, 62
4, 75120, Note_on_c, 0, 60, 0
4, 75120, Note_on_c, 0, 63, 62
4, 75360, Note_on_c, 0, 63, 0
4, 75360, Note_on_c, 0, 61, 62
4, 75600, Note_on_c, 0, 61, 0
4, 75600, Note_on_c, 0, 60, 62
4, 75840, Note_on_c, 0, 60, 0
4, 75840, Note_on_c, 0, 57, 62
4, 76080, Note_on_c, 0, 57, 0
4, 76080, Note_on_c, 0, 58, 62
4, 76320, Note_on_c, 0, 58, 0
4, 76320, Note_on_c, 0, 60, 62
4, 76367, Note_on_c, 0, 60, 0
4, 76560, Note_on_c, 0, 60, 62
4, 76800, Note_on_c, 0, 60, 0
4, 76800, Note_on_c, 0, 53, 62
4, 77040, Note_on_c, 0, 53, 0
4, 77040, Note_on_c, 0, 53, 62
4, 77280, Note_on_c, 0, 53, 0
4, 77280, Note_on_c, 0, 55, 62
4, 77520, Note_on_c, 0, 55, 0
4, 77520, Note_on_c, 0, 57, 62
4, 77760, Note_on_c, 0, 57, 0
4, 77880, Note_on_c, 0, 46, 62
4, 77903, Note_on_c, 0, 46, 0
4, 78000, Note_on_c, 0, 56, 62
4, 78023, Note_on_c, 0, 56, 0
4, 78120, Note_on_c, 0, 54, 62
4, 78143, Note_on_c, 0, 54, 0
4, 78240, Note_on_c, 0, 53, 62
4, 78263, Note_on_c, 0, 53, 0
4, 78360, Note_on_c, 0, 51, 62
4, 78383, Note_on_c, 0, 51, 0
4, 78480, Note_on_c, 0, 49, 62
4, 78503, Note_on_c, 0, 49, 0
4, 78600, Note_on_c, 0, 46, 62
4, 78623, Note_on_c, 0, 46, 0
4, 78720, Note_on_c, 0, 42, 62
4, 78743, Note_on_c, 0, 42, 0
4, 78840, Note_on_c, 0, 39, 62
4, 78863, Note_on_c, 0, 39, 0
4, 78960, Note_on_c, 0, 41, 62
4, 78983, Note_on_c, 0, 41, 0
4, 79080, Note_on_c, 0, 42, 62
4, 79103, Note_on_c, 0, 42, 0
4, 79200, Note_on_c, 0, 45, 62
4, 79223, Note_on_c, 0, 45, 0
4, 79320, Note_on_c, 0, 41, 62
4, 79343, Note_on_c, 0, 41, 0
4, 79440, Note_on_c, 0, 46, 62
4, 79463, Note_on_c, 0, 46, 0
4, 79560, Note_on_c, 0, 49, 62
4, 79583, Note_on_c, 0, 49, 0
4, 79680, Note_on_c, 0, 53, 62
4, 79703, Note_on_c, 0, 53, 0
4, 79800, Note_on_c, 0, 54, 62
4, 79823, Note_on_c, 0, 54, 0
4, 80040, Note_on_c, 0, 51, 62
4, 80063, Note_on_c, 0, 51, 0
4, 80160, Note_on_c, 0, 49, 62
4, 80183, Note_on_c, 0, 49, 0
4, 80280, Note_on_c, 0, 48, 62
4, 80303, Note_on_c, 0, 48, 0
4, 80400, Note_on_c, 0, 46, 62
4, 80423, Note_on_c, 0, 46, 0
4, 80520, Note_on_c, 0, 49, 62
4, 80543, Note_on_c, 0, 49, 0
4, 80640, Note_on_c, 0, 53, 62
4, 80687, Note_on_c, 0, 53, 0
4, 80880, Note_on_c, 0, 61, 62
4, 81120, Note_on_c, 0, 61, 0
4, 81120, Note_on_c, 0, 60, 62
4, 81360, Note_on_c, 0, 60, 0
4, 81360, Note_on_c, 0, 58, 62
4, 81600, Note_on_c, 0, 58, 0
4, 81600, Note_on_c, 0, 57, 62
4, 81840, Note_on_c, 0, 57, 0
4, 81840, Note_on_c, 0, 58, 62
4, 82080, Note_on_c, 0, 58, 0
4, 82080, Note_on_c, 0, 65, 62
4, 82127, Note_on_c, 0, 65, 0
4, 82320, Note_on_c, 0, 65, 62
4, 82560, Note_on_c, 0, 65, 0
4, 82560, Note_on_c, 0, 60, 62
4, 82800, Note_on_c, 0, 60, 0
4, 82800, Note_on_c, 0, 63, 62
4, 83040, Note_on_c, 0, 63, 0
4, 83040, Note_on_c, 0, 61, 62
4, 83280, Note_on_c, 0, 61, 0
4, 83280, Note_on_c, 0, 60, 62
4, 83520, Note_on_c, 0, 60, 0
4, 83520, Note_on_c, 0, 57, 62
4, 83760, Note_on_c, 0, 57, 0
4, 83760, Note_on_c, 0, 58, 62
4, 84000, Note_on_c, 0, 58, 0
4, 84000, Note_on_c, 0, 60, 62
4, 84047, Note_on_c, 0, 60, 0
4, 84240, Note_on_c, 0, 60, 62
4, 84480, Note_on_c, 0, 60, 0
4, 84480, Note_on_c, 0, 53, 62
4, 84720, Note_on_c, 0, 53, 0
4, 84720, Note_on_c, 0, 53, 62
4, 84960, Note_on_c, 0, 53, 0
4, 84960, Note_on_c, 0, 55, 62
4, 85200, Note_on_c, 0, 55, 0
4, 85200, Note_on_c, 0, 57, 62
4, 85440, Note_on_c, 0, 57, 0
4, 85440, Note_on_c, 0, 60, 62
4, 85680, Note_on_c, 0, 60, 0
4, 85680, Note_on_c, 0, 58, 62
4, 85920, Note_on_c, 0, 58, 0
4, 85920, Note_on_c, 0, 65, 62
4, 86160, Note_on_c, 0, 65, 0
4, 86160, Note_on_c, 0, 65, 62
4, 86207, Note_on_c, 0, 65, 0
4, 86400, Control_c, 0, 64, 127
4, 86400, Note_on_c, 0, 65, 62
4, 86640, Note_on_c, 0, 65, 0
4, 86640, Note_on_c, 0, 63, 62
4, 86880, Note_on_c, 0, 63, 0
4, 86880, Note_on_c, 0, 61, 62
4, 87120, Note_on_c, 0, 61, 0
4, 87120, Control_c, 0, 64, 0
4, 87120, Note_on_c, 0, 60, 62
4, 87360, Note_on_c, 0, 60, 0
4, 87360, Note_on_c, 0, 58, 62
4, 87600, Note_on_c, 0, 58, 0
4, 87600, Note_on_c, 0, 56, 62
4, 87840, Note_on_c, 0, 56, 0
4, 87840, Note_on_c, 0, 63, 62
4, 87887, Note_on_c, 0, 63, 0
4, 88080, Note_on_c, 0, 63, 62
4, 88127, Note_on_c, 0, 63, 0
4, 88320, Control_c, 0, 64, 127
4, 88320, Note_on_c, 0, 63, 62
4, 88560, Note_on_c, 0, 63, 0
4, 88560, Note_on_c, 0, 61, 62
4, 88800, Note_on_c, 0, 61, 0
4, 88800, Note_on_c, 0, 60, 62
4, 89040, Note_on_c, 0, 60, 0
4, 89040, Control_c, 0, 64, 0
4, 89040, Note_on_c, 0, 58, 62
4, 89280, Note_on_c, 0, 58, 0
4, 89280, Note_on_c, 0, 56, 62
4, 89520, Note_on_c, 0, 56, 0
4, 89520, Note_on_c, 0, 54, 62
4, 89760, Note_on_c, 0, 54, 0
4, 89760, Note_on_c, 0, 61, 62
4, 89807, Note_on_c, 0, 61, 0
4, 90000, Note_on_c, 0, 61, 62
4, 90047, Note_on_c, 0, 61, 0
4, 90240, Control_c, 0, 64, 127
4, 90240, Note_on_c, 0, 61, 62
4, 90480, Note_on_c, 0, 61, 0
4, 90480, Note_on_c, 0, 60, 62
4, 90720, Note_on_c, 0, 60, 0
4, 90720, Note_on_c, 0, 61, 62
4, 90960, Note_on_c, 0, 61, 0
4, 90960, Control_c, 0, 64, 0
4, 90960, Note_on_c, 0, 63, 62
4, 91200, Note_on_c, 0, 63, 0
4, 91200, Control_c, 0, 64, 127
4, 91200, Note_on_c, 0, 65, 62
4, 91440, Note_on_c, 0, 65, 0
4, 91440, Note_on_c, 0, 63, 62
4, 91680, Note_on_c, 0, 63, 0
4, 91680, Note_on_c, 0, 61, 62
4, 91920, Note_on_c, 0, 61, 0
4, 91920, Note_on_c, 0, 60, 62
4, 92160, Note_on_c, 0, 60, 0
4, 92160, Control_c, 0, 64, 0
4, 92160, Note_on_c, 0, 58, 62
4, 92400, Note_on_c, 0, 58, 0
4, 92400, Note_on_c, 0, 46, 75
4, 92400, Note_on_c, 0, 58, 75
4, 92640, Note_on_c, 0, 58, 0
4, 92640, Note_on_c, 0, 46, 0
4, 92640, Note_on_c, 0, 48, 75
4, 92640, Note_on_c, 0, 60, 75
4, 92880, Note_on_c, 0, 60, 0
4, 92880, Note_on_c, 0, 48, 0
4, 92880, Note_on_c, 0, 49, 75
4, 92880, Note_on_c, 0, 61, 75
4, 93120, Note_on_c, 0, 61, 0
4, 93120, Note_on_c, 0, 49, 0
4, 93120, Note_on_c, 0, 44, 101
4, 93120, Note_on_c, 0, 51, 101
4, 93600, Note_on_c, 0, 51, 0
4, 93600, Note_on_c, 0, 44, 0
4, 93600, Note_on_c, 0, 44, 101
4, 93600, Note_on_c, 0, 51, 101
4, 94080, Note_on_c, 0, 51, 0
4, 94080, Note_on_c, 0, 44, 0
4, 94080, Note_on_c, 0, 51, 101
4, 94320, Note_on_c, 0, 51, 0
4, 94320, Note_on_c, 0, 51, 75
4, 94560, Note_on_c, 0, 51, 0
4, 94560, Note_on_c, 0, 49, 75
4, 94800, Note_on_c, 0, 49, 0
4, 94800, Control_c, 0, 64, 127
4, 94800, Note_on_c, 0, 48, 75
4, 94960, Note_on_c, 0, 42, 75
4, 95000, Note_on_c, 0, 49, 75
4, 95040, Note_on_c, 0, 48, 0
4, 95040, Note_on_c, 0, 58, 75
4, 95280, Note_on_c, 0, 58, 0
4, 95280, Note_on_c, 0, 49, 0
4, 95280, Note_on_c, 0, 42, 0
4, 95280, Note_on_c, 0, 56, 75
4, 95400, Note_on_c, 0, 56, 0
4, 95400, Note_on_c, 0, 54, 75
4, 95520, Note_on_c, 0, 54, 0
4, 95520, Note_on_c, 0, 53, 75
4, 95760, Note_on_c, 0, 53, 0
4, 95760, Control_c, 0, 64, 0
4, 95760, Note_on_c, 0, 51, 75
4, 95880, Note_on_c, 0, 51, 0
4, 95880, Note_on_c, 0, 49, 75
4, 96000, Note_on_c, 0, 49, 0
4, 96000, Note_on_c, 0, 48, 75
4, 96240, Note_on_c, 0, 48, 0
4, 96240, Note_on_c, 0, 46, 75
4, 96240, Note_on_c, 0, 58, 75
4, 96480, Note_on_c, 0, 58, 0
4, 96480, Note_on_c, 0, 46, 0
4, 96480, Note_on_c, 0, 48, 75
4, 96480, Note_on_c, 0, 60, 75
4, 96720, Note_on_c, 0, 60, 0
4, 96720, Note_on_c, 0, 48, 0
4, 96720, Note_on_c, 0, 49, 75
4, 96720, Note_on_c, 0, 61, 75
4, 96960, Note_on_c, 0, 61, 0
4, 96960, Note_on_c, 0, 49, 0
4, 96960, Note_on_c, 0, 44, 101
4, 96960, Note_on_c, 0, 51, 101
4, 97440, Note_on_c, 0, 51, 0
4, 97440, Note_on_c, 0, 44, 0
4, 97440, Note_on_c, 0, 44, 101
4, 97440, Note_on_c, 0, 51, 101
4, 97920, Note_on_c, 0, 51, 0
4, 97920, Note_on_c, 0, 44, 0
4, 97920, Note_on_c, 0, 51, 101
4, 98160, Note_on_c, 0, 51, 0
4, 98160, Note_on_c, 0, 51, 75
4, 98400, Note_on_c, 0, 51, 0
4, 98400, Note_on_c, 0, 49, 75
4, 98640, Note_on_c, 0, 49, 0
4, 98640, Note_on_c, 0, 48, 75
4, 98880, Note_on_c, 0, 48, 0
4, 98880, Note_on_c, 0, 46, 75
4, 99120, Note_on_c, 0, 46, 0
4, 99120, Note_on_c, 0, 44, 75
4, 99240, Note_on_c, 0, 44, 0
4, 99240, Note_on_c, 0, 42, 75
4, 99360, Note_on_c, 0, 42, 0
4, 99360, Note_on_c, 0, 41, 75
4, 99600, Note_on_c, 0, 41, 0
4, 99600, Note_on_c, 0, 39, 75
4, 99720, Note_on_c, 0, 39, 0
4, 99720, Note_on_c, 0, 41, 75
4, 99840, Note_on_c, 0, 41, 0
4, 99840, Note_on_c, 0, 42, 75
4, 100080, Note_on_c, 0, 42, 0
4, 100080, Note_on_c, 0, 44, 75
4, 100200, Note_on_c, 0, 44, 0
4, 100200, Note_on_c, 0, 46, 75
4, 100320, Note_on_c, 0, 46, 0
4, 100320, Note_on_c, 0, 48, 75
4, 100560, Note_on_c, 0, 48, 0
4, 100560, Note_on_c, 0, 49, 75
4, 100607, Note_on_c, 0, 49, 0
4, 100800, Note_on_c, 0, 44, 101
4, 100800, Note_on_c, 0, 51, 101
4, 101280, Note_on_c, 0, 51, 0
4, 101280, Note_on_c, 0, 44, 0
4, 101280, Note_on_c, 0, 44, 101
4, 101280, Note_on_c, 0, 51, 101
4, 101760, Note_on_c, 0, 51, 0
4, 101760, Note_on_c, 0, 44, 0
4, 101760, Note_on_c, 0, 51, 101
4, 102000, Note_on_c, 0, 51, 0
4, 102000, Note_on_c, 0, 51, 75
4, 102240, Note_on_c, 0, 51, 0
4, 102240, Note_on_c, 0, 49, 75
4, 102480, Note_on_c, 0, 49, 0
4, 102480, Control_c, 0, 64, 127
4, 102480, Note_on_c, 0, 48, 75
4, 102640, Note_on_c, 0, 42, 75
4, 102680, Note_on_c, 0, 49, 75
4, 102720, Note_on_c, 0, 48, 0
4, 102720, Note_on_c, 0, 58, 75
4, 102960, Note_on_c, 0, 58, 0
4, 102960, Note_on_c, 0, 49, 0
4, 102960, Note_on_c, 0, 42, 0
4, 102960, Note_on_c, 0, 56, 75
4, 103080, Note_on_c, 0, 56, 0
4, 103080, Note_on_c, 0, 54, 75
4, 103200, Note_on_c, 0, 54, 0
4, 103200, Note_on_c, 0, 53, 75
4, 103440, Note_on_c, 0, 53, 0
4, 103440, Control_c, 0, 64, 0
4, 103440, Note_on_c, 0, 51, 75
4, 103560, Note_on_c, 0, 51, 0
4, 103560, Note_on_c, 0, 49, 75
4, 103680, Note_on_c, 0, 49, 0
4, 103680, Note_on_c, 0, 48, 75
4, 103920, Note_on_c, 0, 48, 0
4, 103920, Note_on_c, 0, 46, 75
4, 103920, Note_on_c, 0, 58, 75
4, 104160, Note_on_c, 0, 58, 0
4, 104160, Note_on_c, 0, 46, 0
4, 104160, Note_on_c, 0, 48, 75
4, 104160, Note_on_c, 0, 60, 75
4, 104400, Note_on_c, 0, 60, 0
4, 104400, Note_on_c, 0, 48, 0
4, 104400, Note_on_c, 0, 49, 75
4, 104400, Note_on_c, 0, 61, 75
4, 104640, Note_on_c, 0, 61, 0
4, 104640, Note_on_c, 0, 49, 0
4, 104640, Note_on_c, 0, 44, 101
4, 104640, Note_on_c, 0, 51, 101
4, 105120, Note_on_c, 0, 51, 0
4, 105120, Note_on_c, 0, 44, 0
4, 105120, Note_on_c, 0, 44, 101
4, 105120, Note_on_c, 0, 51, 101
4, 105600, Note_on_c, 0, 51, 0
4, 105600, Note_on_c, 0, 44, 0
4, 105600, Note_on_c, 0, 51, 101
4, 105840, Note_on_c, 0, 51, 0
4, 105840, Note_on_c, 0, 48, 75
4, 105960, Note_on_c, 0, 48, 0
4, 105960, Note_on_c, 0, 49, 75
4, 106080, Note_on_c, 0, 49, 0
4, 106080, Note_on_c, 0, 51, 75
4, 106320, Note_on_c, 0, 51, 0
4, 106320, Note_on_c, 0, 53, 75
4, 106367, Note_on_c, 0, 53, 0
4, 106560, Note_on_c, 0, 42, 101
4, 106560, Note_on_c, 0, 51, 101
4, 106560, Note_on_c, 0, 54, 101
4, 107040, Note_on_c, 0, 54, 0
4, 107040, Note_on_c, 0, 51, 0
4, 107040, Note_on_c, 0, 42, 0
4, 107040, Note_on_c, 0, 42, 101
4, 107040, Note_on_c, 0, 51, 101
4, 107040, Note_on_c, 0, 54, 101
4, 107520, Note_on_c, 0, 54, 0
4, 107520, Note_on_c, 0, 51, 0
4, 107520, Note_on_c, 0, 42, 0
4, 107520, Note_on_c, 0, 54, 101
4, 107760, Note_on_c, 0, 54, 0
4, 107760, Note_on_c, 0, 51, 75
4, 107880, Note_on_c, 0, 51, 0
4, 107880, Note_on_c, 0, 53, 75
4, 108000, Note_on_c, 0, 53, 0
4, 108000, Note_on_c, 0, 54, 75
4, 108240, Note_on_c, 0, 54, 0
4, 108240, Note_on_c, 0, 56, 88
4, 108287, Note_on_c, 0, 56, 0
4, 108400, Note_on_c, 0, 38, 88
4, 108440, Note_on_c, 0, 45, 88
4, 108480, Note_on_c, 0, 57, 88
4, 108960, Note_on_c, 0, 57, 0
4, 108960, Note_on_c, 0, 45, 0
4, 108960, Note_on_c, 0, 38, 0
4, 108960, Note_on_c, 0, 50, 114
4, 108960, Note_on_c, 0, 57, 114
4, 109440, Note_on_c, 0, 57, 0
4, 109440, Note_on_c, 0, 50, 0
4, 109440, Note_on_c, 0, 57, 114
4, 109680, Note_on_c, 0, 57, 0
4, 109680, Note_on_c, 0, 54, 88
4, 109800, Note_on_c, 0, 54, 0
4, 109800, Note_on_c, 0, 56, 88
4, 109920, Note_on_c, 0, 56, 0
4, 109920, Note_on_c, 0, 57, 88
4, 110160, Note_on_c, 0, 57, 0
4, 110160, Note_on_c, 0, 59, 88
4, 110207, Note_on_c, 0, 59, 0
4, 110340, Control_c, 0, 64, 127
4, 110340, Note_on_c, 0, 36, 88
4, 110400, Note_on_c, 0, 48, 114
4, 110400, Note_on_c, 0, 53, 114
4, 110400, Note_on_c, 0, 57, 114
4, 110400, Note_on_c, 0, 60, 114
4, 110880, Note_on_c, 0, 60, 0
4, 110880, Note_on_c, 0, 53, 0
4, 110880, Note_on_c, 0, 36, 0
4, 110880, Note_on_c, 0, 48, 0
4, 110880, Note_on_c, 0, 57, 0
4, 110880, Note_on_c, 0, 48, 114
4, 110880, Note_on_c, 0, 53, 114
4, 110880, Note_on_c, 0, 57, 114
4, 110880, Note_on_c, 0, 60, 114
4, 111360, Note_on_c, 0, 60, 0
4, 111360, Note_on_c, 0, 48, 0
4, 111360, Note_on_c, 0, 53, 0
4, 111360, Note_on_c, 0, 57, 0
4, 111360, Note_on_c, 0, 48, 88
4, 111360, Note_on_c, 0, 53, 88
4, 111360, Note_on_c, 0, 57, 88
4, 111360, Note_on_c, 0, 60, 88
4, 111840, Note_on_c, 0, 60, 0
4, 111840, Note_on_c, 0, 48, 0
4, 111840, Note_on_c, 0, 53, 0
4, 111840, Note_on_c, 0, 57, 0
4, 111840, Control_c, 0, 64, 0
4, 112320, Note_on_c, 0, 78, 88
4, 112800, Note_on_c, 0, 78, 0
4, 112800, Note_on_c, 0, 79, 88
4, 113280, Note_on_c, 0, 79, 0
4, 113280, Note_on_c, 0, 76, 88
4, 113760, Note_on_c, 0, 76, 0
4, 113760, Note_on_c, 0, 77, 88
4, 114000, Note_on_c, 0, 77, 0
4, 114240, Note_on_c, 0, 66, 62
4, 114720, Note_on_c, 0, 66, 0
4, 114720, Note_on_c, 0, 67, 62
4, 115200, Note_on_c, 0, 67, 0
4, 115200, Note_on_c, 0, 64, 62
4, 115680, Note_on_c, 0, 64, 0
4, 115680, Note_on_c, 0, 65, 62
4, 115920, Note_on_c, 0, 65, 0
4, 116160, Note_on_c, 0, 55, 62
4, 116640, Note_on_c, 0, 55, 0
4, 116640, Note_on_c, 0, 55, 62
4, 117120, Note_on_c, 0, 55, 0
4, 117120, Note_on_c, 0, 53, 62
4, 117600, Note_on_c, 0, 53, 0
4, 117600, Note_on_c, 0, 52, 62
4, 118080, Note_on_c, 0, 52, 0
4, 118080, Note_on_c, 0, 50, 75
4, 118440, Note_on_c, 0, 50, 0
4, 118440, Note_on_c, 0, 49, 75
4, 118560, Note_on_c, 0, 49, 0
4, 118560, Note_on_c, 0, 49, 75
4, 118800, Note_on_c, 0, 49, 0
4, 118800, Note_on_c, 0, 48, 75
4, 119040, Note_on_c, 0, 48, 0
4, 119040, Note_on_c, 0, 38, 75
4, 119400, Note_on_c, 0, 38, 0
4, 119400, Note_on_c, 0, 37, 75
4, 119520, Note_on_c, 0, 37, 0
4, 119520, Note_on_c, 0, 37, 75
4, 119760, Note_on_c, 0, 37, 0
4, 119760, Note_on_c, 0, 36, 75
4, 120000, Note_on_c, 0, 36, 0
4, 120000, Note_on_c, 0, 53, 75
4, 120360, Note_on_c, 0, 53, 0
4, 120360, Note_on_c, 0, 52, 75
4, 120480, Note_on_c, 0, 52, 0
4, 120480, Note_on_c, 0, 52, 75
4, 120720, Note_on_c, 0, 52, 0
4, 120720, Note_on_c, 0, 50, 75
4, 120960, Note_on_c, 0, 50, 0
4, 120960, Note_on_c, 0, 50, 75
4, 121320, Note_on_c, 0, 50, 0
4, 121320, Note_on_c, 0, 48, 75
4, 121440, Note_on_c, 0, 48, 0
4, 121440, Note_on_c, 0, 48, 75
4, 121680, Note_on_c, 0, 48, 0
4, 121680, Note_on_c, 0, 50, 75
4, 121920, Note_on_c, 0, 50, 0
4, 121920, Note_on_c, 0, 52, 75
4, 122160, Note_on_c, 0, 52, 0
4, 122160, Note_on_c, 0, 53, 75
4, 122400, Note_on_c, 0, 53, 0
4, 122400, Note_on_c, 0, 52, 75
4, 122640, Note_on_c, 0, 52, 0
4, 122640, Note_on_c, 0, 50, 75
4, 122880, Note_on_c, 0, 50, 0
4, 122880, Note_on_c, 0, 50, 75
4, 123240, Note_on_c, 0, 50, 0
4, 123240, Note_on_c, 0, 48, 75
4, 123360, Note_on_c, 0, 48, 0
4, 123360, Note_on_c, 0, 48, 75
4, 123600, Note_on_c, 0, 48, 0
4, 123600, Note_on_c, 0, 50, 75
4, 123840, Note_on_c, 0, 50, 0
4, 123840, Note_on_c, 0, 52, 75
4, 124080, Note_on_c, 0, 52, 0
4, 124080, Note_on_c, 0, 53, 75
4, 124320, Note_on_c, 0, 53, 0
4, 124320, Note_on_c, 0, 52, 75
4, 124560, Note_on_c, 0, 52, 0
4, 124560, Note_on_c, 0, 50, 75
4, 124800, Note_on_c, 0, 50, 0
4, 124800, Note_on_c, 0, 50, 75
4, 125160, Note_on_c, 0, 50, 0
4, 125160, Note_on_c, 0, 49, 75
4, 125280, Note_on_c, 0, 49, 0
4, 125280, Note_on_c, 0, 49, 75
4, 125520, Note_on_c, 0, 49, 0
4, 125520, Note_on_c, 0, 50, 75
4, 125760, Note_on_c, 0, 50, 0
4, 125760, Note_on_c, 0, 52, 75
4, 126000, Note_on_c, 0, 52, 0
4, 126000, Note_on_c, 0, 53, 75
4, 126240, Note_on_c, 0, 53, 0
4, 126240, Note_on_c, 0, 52, 75
4, 126480, Note_on_c, 0, 52, 0
4, 126480, Note_on_c, 0, 50, 75
4, 126720, Note_on_c, 0, 50, 0
4, 126720, Note_on_c, 0, 50, 75
4, 127080, Note_on_c, 0, 50, 0
4, 127080, Note_on_c, 0, 47, 75
4, 127200, Note_on_c, 0, 47, 0
4, 127200, Note_on_c, 0, 47, 75
4, 127440, Note_on_c, 0, 47, 0
4, 127440, Note_on_c, 0, 48, 75
4, 127680, Note_on_c, 0, 48, 0
4, 127680, Note_on_c, 0, 53, 88
4, 128040, Note_on_c, 0, 53, 0
4, 128040, Note_on_c, 0, 52, 88
4, 128160, Note_on_c, 0, 52, 0
4, 128160, Note_on_c, 0, 52, 88
4, 128400, Note_on_c, 0, 52, 0
4, 128400, Note_on_c, 0, 50, 88
4, 128640, Note_on_c, 0, 50, 0
4, 128640, Note_on_c, 0, 50, 88
4, 129000, Note_on_c, 0, 50, 0
4, 129000, Note_on_c, 0, 48, 88
4, 129120, Note_on_c, 0, 48, 0
4, 129120, Note_on_c, 0, 48, 88
4, 129360, Note_on_c, 0, 48, 0
4, 129360, Note_on_c, 0, 50, 88
4, 129600, Note_on_c, 0, 50, 0
4, 129600, Note_on_c, 0, 52, 88
4, 129840, Note_on_c, 0, 52, 0
4, 129840, Note_on_c, 0, 53, 88
4, 130080, Note_on_c, 0, 53, 0
4, 130080, Note_on_c, 0, 52, 88
4, 130320, Note_on_c, 0, 52, 0
4, 130320, Note_on_c, 0, 50, 88
4, 130560, Note_on_c, 0, 50, 0
4, 130560, Note_on_c, 0, 62, 88
4, 130920, Note_on_c, 0, 62, 0
4, 130920, Note_on_c, 0, 60, 88
4, 131040, Note_on_c, 0, 60, 0
4, 131040, Note_on_c, 0, 60, 88
4, 131280, Note_on_c, 0, 60, 0
4, 131280, Note_on_c, 0, 62, 88
4, 131520, Note_on_c, 0, 62, 0
4, 131520, Note_on_c, 0, 67, 88
4, 131760, Note_on_c, 0, 67, 0
4, 131760, Note_on_c, 0, 69, 88
4, 132000, Note_on_c, 0, 69, 0
4, 132000, Note_on_c, 0, 55, 88
4, 132000, Note_on_c, 0, 64, 88
4, 132240, Note_on_c, 0, 64, 0
4, 132240, Note_on_c, 0, 55, 0
4, 132240, Note_on_c, 0, 53, 88
4, 132240, Note_on_c, 0, 62, 88
4, 132480, Note_on_c, 0, 62, 0
4, 132480, Note_on_c, 0, 53, 0
4, 132480, Note_on_c, 0, 62, 88
4, 132840, Note_on_c, 0, 62, 0
4, 132840, Note_on_c, 0, 60, 88
4, 132960, Note_on_c, 0, 60, 0
4, 132960, Note_on_c, 0, 60, 88
4, 133200, Note_on_c, 0, 60, 0
4, 133200, Note_on_c, 0, 62, 88
4, 133440, Note_on_c, 0, 62, 0
4, 133440, Note_on_c, 0, 64, 88
4, 133680, Note_on_c, 0, 64, 0
4, 133680, Note_on_c, 0, 65, 88
4, 133920, Note_on_c, 0, 65, 0
4, 133920, Note_on_c, 0, 64, 88
4, 134160, Note_on_c, 0, 64, 0
4, 134160, Note_on_c, 0, 62, 88
4, 134400, Note_on_c, 0, 62, 0
4, 134400, Note_on_c, 0, 60, 88
4, 134760, Note_on_c, 0, 60, 0
4, 134760, Note_on_c, 0, 59, 88
4, 134880, Note_on_c, 0, 59, 0
4, 134880, Note_on_c, 0, 59, 88
4, 135120, Note_on_c, 0, 59, 0
4, 135120, Note_on_c, 0, 60, 88
4, 135360, Note_on_c, 0, 60, 0
4, 135600, Note_on_c, 0, 48, 88
4, 135840, Note_on_c, 0, 48, 0
4, 135840, Note_on_c, 0, 49, 88
4, 136080, Note_on_c, 0, 49, 0
4, 136080, Note_on_c, 0, 50, 88
4, 136320, Note_on_c, 0, 50, 0
4, 136320, Note_on_c, 0, 50, 88
4, 136800, Note_on_c, 0, 50, 0
4, 136800, Note_on_c, 0, 51, 88
4, 137280, Note_on_c, 0, 51, 0
4, 137280, Note_on_c, 0, 52, 88
4, 137520, Note_on_c, 0, 52, 0
4, 137520, Note_on_c, 0, 53, 88
4, 137760, Note_on_c, 0, 53, 0
4, 137760, Note_on_c, 0, 55, 88
4, 138000, Note_on_c, 0, 55, 0
4, 138000, Note_on_c, 0, 56, 88
4, 138240, Note_on_c, 0, 56, 0
4, 138240, Note_on_c, 0, 57, 88
4, 138480, Note_on_c, 0, 57, 0
4, 138480, Note_on_c, 0, 51, 88
4, 138720, Note_on_c, 0, 51, 0
4, 138720, Note_on_c, 0, 58, 88
4, 139200, Note_on_c, 0, 58, 0
4, 139200, Note_on_c, 0, 58, 88
4, 139440, Note_on_c, 0, 58, 0
4, 139440, Note_on_c, 0, 60, 88
4, 139680, Note_on_c, 0, 60, 0
4, 139680, Note_on_c, 0, 61, 88
4, 139920, Note_on_c, 0, 61, 0
4, 139920, Note_on_c, 0, 62, 88
4, 140160, Note_on_c, 0, 62, 0
4, 140160, Note_on_c, 0, 62, 88
4, 140400, Note_on_c, 0, 62, 0
4, 140400, Note_on_c, 0, 55, 88
4, 140640, Note_on_c, 0, 55, 0
4, 140640, Note_on_c, 0, 67, 88
4, 140880, Note_on_c, 0, 67, 0
4, 140880, Note_on_c, 0, 65, 88
4, 141120, Note_on_c, 0, 65, 0
4, 141120, Note_on_c, 0, 64, 88
4, 141360, Note_on_c, 0, 64, 0
4, 141360, Note_on_c, 0, 63, 88
4, 141600, Note_on_c, 0, 63, 0
4, 141600, Note_on_c, 0, 62, 88
4, 142320, Note_on_c, 0, 62, 0
4, 142320, Note_on_c, 0, 61, 88
4, 142560, Note_on_c, 0, 61, 0
4, 142560, Note_on_c, 0, 70, 88
4, 142800, Note_on_c, 0, 70, 0
4, 142800, Note_on_c, 0, 61, 88
4, 143040, Note_on_c, 0, 61, 0
4, 143040, Note_on_c, 0, 58, 88
4, 143199, Note_on_c, 0, 58, 0
4, 143199, Note_on_c, 0, 57, 88
4, 143360, Note_on_c, 0, 57, 0
4, 143360, Note_on_c, 0, 58, 88
4, 143520, Note_on_c, 0, 58, 0
4, 143520, Note_on_c, 0, 60, 88
4, 143679, Note_on_c, 0, 60, 0
4, 143679, Note_on_c, 0, 61, 88
4, 143840, Note_on_c, 0, 61, 0
4, 143840, Note_on_c, 0, 63, 88
4, 144000, Note_on_c, 0, 63, 0
4, 144000, Note_on_c, 0, 64, 88
4, 144480, Note_on_c, 0, 64, 0
4, 144480, Note_on_c, 0, 65, 88
4, 144960, Note_on_c, 0, 65, 0
4, 144960, Note_on_c, 0, 60, 88
4, 145119, Note_on_c, 0, 60, 0
4, 145119, Note_on_c, 0, 59, 88
4, 145280, Note_on_c, 0, 59, 0
4, 145280, Note_on_c, 0, 60, 88
4, 145440, Note_on_c, 0, 60, 0
4, 145440, Note_on_c, 0, 61, 88
4, 145599, Note_on_c, 0, 61, 0
4, 145599, Note_on_c, 0, 63, 88
4, 145760, Note_on_c, 0, 63, 0
4, 145760, Note_on_c, 0, 65, 88
4, 145860, Note_on_c, 0, 57, 88
4, 145920, Note_on_c, 0, 65, 0
4, 145920, Note_on_c, 0, 65, 88
4, 146400, Note_on_c, 0, 65, 0
4, 146400, Note_on_c, 0, 57, 0
4, 146400, Note_on_c, 0, 58, 88
4, 146400, Note_on_c, 0, 66, 88
4, 146880, Note_on_c, 0, 66, 0
4, 146880, Note_on_c, 0, 58, 0
4, 146880, Note_on_c, 0, 58, 88
4, 147120, Note_on_c, 0, 58, 0
4, 147120, Note_on_c, 0, 59, 88
4, 147360, Note_on_c, 0, 59, 0
4, 147360, Note_on_c, 0, 60, 88
4, 147360, Note_on_c, 0, 68, 88
4, 147840, Note_on_c, 0, 68, 0
4, 147840, Note_on_c, 0, 60, 0
4, 147840, Note_on_c, 0, 59, 88
4, 148080, Note_on_c, 0, 59, 0
4, 148080, Note_on_c, 0, 60, 88
4, 148320, Note_on_c, 0, 60, 0
4, 148320, Note_on_c, 0, 61, 88
4, 148320, Note_on_c, 0, 70, 88
4, 148800, Note_on_c, 0, 70, 0
4, 148800, Note_on_c, 0, 61, 0
4, 148800, Note_on_c, 0, 56, 88
4, 148959, Note_on_c, 0, 56, 0
4, 148959, Note_on_c, 0, 58, 88
4, 149120, Note_on_c, 0, 58, 0
4, 149120, Note_on_c, 0, 60, 88
4, 149280, Note_on_c, 0, 60, 0
4, 149280, Note_on_c, 0, 59, 88
4, 149439, Note_on_c, 0, 59, 0
4, 149439, Note_on_c, 0, 61, 88
4, 149600, Note_on_c, 0, 61, 0
4, 149600, Note_on_c, 0, 62, 88
4, 149760, Note_on_c, 0, 62, 0
4, 149760, Note_on_c, 0, 62, 88
4, 149919, Note_on_c, 0, 62, 0
4, 149919, Note_on_c, 0, 63, 88
4, 150080, Note_on_c, 0, 63, 0
4, 150080, Note_on_c, 0, 65, 88
4, 150240, Note_on_c, 0, 65, 0
4, 150240, Note_on_c, 0, 65, 88
4, 150399, Note_on_c, 0, 65, 0
4, 150399, Note_on_c, 0, 68, 88
4, 150560, Note_on_c, 0, 68, 0
4, 150560, Note_on_c, 0, 60, 88
4, 150720, Note_on_c, 0, 60, 0
4, 150720, Note_on_c, 0, 60, 88
4, 150879, Note_on_c, 0, 60, 0
4, 150879, Note_on_c, 0, 59, 88
4, 151040, Note_on_c, 0, 59, 0
4, 151040, Note_on_c, 0, 60, 88
4, 151200, Note_on_c, 0, 60, 0
4, 151200, Note_on_c, 0, 61, 88
4, 151359, Note_on_c, 0, 61, 0
4, 151359, Note_on_c, 0, 63, 88
4, 151520, Note_on_c, 0, 63, 0
4, 151520, Note_on_c, 0, 65, 88
4, 151620, Note_on_c, 0, 57, 88
4, 151680, Note_on_c, 0, 65, 0
4, 151680, Note_on_c, 0, 65, 88
4, 152160, Note_on_c, 0, 65, 0
4, 152160, Note_on_c, 0, 57, 0
4, 152160, Note_on_c, 0, 58, 88
4, 152160, Note_on_c, 0, 66, 88
4, 152640, Note_on_c, 0, 66, 0
4, 152640, Note_on_c, 0, 58, 0
4, 152640, Note_on_c, 0, 62, 88
4, 152799, Note_on_c, 0, 62, 0
4, 152799, Note_on_c, 0, 61, 88
4, 152960, Note_on_c, 0, 61, 0
4, 152960, Note_on_c, 0, 62, 88
4, 153120, Note_on_c, 0, 62, 0
4, 153120, Note_on_c, 0, 63, 88
4, 153279, Note_on_c, 0, 63, 0
4, 153279, Note_on_c, 0, 65, 88
4, 153440, Note_on_c, 0, 65, 0
4, 153440, Note_on_c, 0, 67, 88
4, 153600, Note_on_c, 0, 67, 0
4, 153600, Note_on_c, 0, 67, 88
4, 154080, Note_on_c, 0, 67, 0
4, 154080, Note_on_c, 0, 68, 88
4, 154560, Note_on_c, 0, 68, 0
4, 154560, Note_on_c, 0, 59, 88
4, 154800, Note_on_c, 0, 59, 0
4, 154800, Note_on_c, 0, 60, 88
4, 155040, Note_on_c, 0, 60, 0
4, 155040, Note_on_c, 0, 61, 88
4, 155040, Note_on_c, 0, 70, 88
4, 155520, Note_on_c, 0, 70, 0
4, 155520, Note_on_c, 0, 61, 0
4, 155520, Note_on_c, 0, 61, 88
4, 155760, Note_on_c, 0, 61, 0
4, 155760, Note_on_c, 0, 62, 88
4, 156000, Note_on_c, 0, 62, 0
4, 156000, Note_on_c, 0, 63, 88
4, 156000, Note_on_c, 0, 72, 88
4, 156480, Note_on_c, 0, 72, 0
4, 156480, Note_on_c, 0, 63, 0
4, 156480, Note_on_c, 0, 65, 88
4, 156639, Note_on_c, 0, 65, 0
4, 156639, Note_on_c, 0, 53, 88
4, 156800, Note_on_c, 0, 53, 0
4, 156800, Note_on_c, 0, 55, 88
4, 156960, Note_on_c, 0, 55, 0
4, 156960, Note_on_c, 0, 56, 88
4, 157119, Note_on_c, 0, 56, 0
4, 157119, Note_on_c, 0, 58, 88
4, 157280, Note_on_c, 0, 58, 0
4, 157280, Note_on_c, 0, 59, 88
4, 157440, Note_on_c, 0, 59, 0
4, 157440, Note_on_c, 0, 59, 75
4, 157599, Note_on_c, 0, 59, 0
4, 157599, Note_on_c, 0, 58, 75
4, 157760, Note_on_c, 0, 58, 0
4, 157760, Note_on_c, 0, 59, 75
4, 157920, Note_on_c, 0, 59, 0
4, 157920, Note_on_c, 0, 59, 75
4, 158079, Note_on_c, 0, 59, 0
4, 158079, Note_on_c, 0, 55, 75
4, 158240, Note_on_c, 0, 55, 0
4, 158240, Control_c, 0, 64, 127
4, 158240, Note_on_c, 0, 60, 101
4, 158320, Note_on_c, 0, 41, 101
4, 158360, Note_on_c, 0, 48, 101
4, 158400, Note_on_c, 0, 60, 0
4, 158400, Note_on_c, 0, 57, 101
4, 158559, Note_on_c, 0, 57, 0
4, 158559, Note_on_c, 0, 48, 0
4, 158559, Note_on_c, 0, 41, 0
4, 158559, Note_on_c, 0, 53, 88
4, 158559, Note_on_c, 0, 57, 88
4, 158720, Note_on_c, 0, 57, 0
4, 158720, Note_on_c, 0, 53, 0
4, 158720, Note_on_c, 0, 53, 88
4, 158720, Note_on_c, 0, 57, 88
4, 158880, Note_on_c, 0, 57, 0
4, 158880, Note_on_c, 0, 53, 0
4, 158880, Note_on_c, 0, 53, 88
4, 158880, Note_on_c, 0, 57, 88
4, 159039, Note_on_c, 0, 57, 0
4, 159039, Note_on_c, 0, 53, 0
4, 159039, Note_on_c, 0, 53, 88
4, 159039, Note_on_c, 0, 57, 88
4, 159200, Note_on_c, 0, 57, 0
4, 159200, Note_on_c, 0, 53, 0
4, 159200, Control_c, 0, 64, 0
4, 159200, Note_on_c, 0, 53, 88
4, 159200, Note_on_c, 0, 57, 88
4, 159360, Note_on_c, 0, 57, 0
4, 159360, Note_on_c, 0, 53, 0
4, 159360, Note_on_c, 0, 48, 88
4, 159519, Note_on_c, 0, 48, 0
4, 159519, Note_on_c, 0, 48, 88
4, 159519, Note_on_c, 0, 60, 88
4, 159680, Note_on_c, 0, 60, 0
4, 159680, Note_on_c, 0, 48, 0
4, 159680, Note_on_c, 0, 48, 88
4, 159680, Note_on_c, 0, 60, 88
4, 159840, Note_on_c, 0, 60, 0
4, 159840, Note_on_c, 0, 48, 0
4, 159840, Note_on_c, 0, 48, 88
4, 159840, Note_on_c, 0, 60, 88
4, 159999, Note_on_c, 0, 60, 0
4, 159999, Note_on_c, 0, 48, 0
4, 159999, Note_on_c, 0, 48, 88
4, 159999, Note_on_c, 0, 60, 88
4, 160160, Note_on_c, 0, 60, 0
4, 160160, Note_on_c, 0, 48, 0
4, 160160, Note_on_c, 0, 48, 88
4, 160160, Note_on_c, 0, 60, 88
4, 160320, Note_on_c, 0, 60, 0
4, 160320, Note_on_c, 0, 48, 0
4, 160320, Note_on_c, 0, 57, 88
4, 160479, Note_on_c, 0, 57, 0
4, 160479, Note_on_c, 0, 53, 88
4, 160479, Note_on_c, 0, 57, 88
4, 160640, Note_on_c, 0, 57, 0
4, 160640, Note_on_c, 0, 53, 0
4, 160640, Note_on_c, 0, 53, 88
4, 160640, Note_on_c, 0, 57, 88
4, 160800, Note_on_c, 0, 57, 0
4, 160800, Note_on_c, 0, 53, 0
4, 160800, Note_on_c, 0, 53, 88
4, 160800, Note_on_c, 0, 57, 88
4, 160959, Note_on_c, 0, 57, 0
4, 160959, Note_on_c, 0, 53, 0
4, 160959, Note_on_c, 0, 53, 88
4, 160959, Note_on_c, 0, 57, 88
4, 161120, Note_on_c, 0, 57, 0
4, 161120, Note_on_c, 0, 53, 0
4, 161120, Note_on_c, 0, 53, 88
4, 161120, Note_on_c, 0, 57, 88
4, 161280, Note_on_c, 0, 57, 0
4, 161280, Note_on_c, 0, 53, 0
4, 161439, Note_on_c, 0, 48, 88
4, 161439, Note_on_c, 0, 60, 88
4, 161600, Note_on_c, 0, 60, 0
4, 161600, Note_on_c, 0, 48, 0
4, 161600, Note_on_c, 0, 48, 88
4, 161600, Note_on_c, 0, 60, 88
4, 161760, Note_on_c, 0, 60, 0
4, 161760, Note_on_c, 0, 48, 0
4, 161760, Note_on_c, 0, 48, 88
4, 161760, Note_on_c, 0, 60, 88
4, 161919, Note_on_c, 0, 60, 0
4, 161919, Note_on_c, 0, 48, 0
4, 161919, Note_on_c, 0, 48, 88
4, 161919, Note_on_c, 0, 60, 88
4, 162080, Note_on_c, 0, 60, 0
4, 162080, Note_on_c, 0, 48, 0
4, 162080, Note_on_c, 0, 48, 88
4, 162080, Note_on_c, 0, 60, 88
4, 162240, Note_on_c, 0, 60, 0
4, 162240, Note_on_c, 0, 48, 0
4, 162240, Note_on_c, 0, 57, 88
4, 162399, Note_on_c, 0, 57, 0
4, 162399, Note_on_c, 0, 53, 88
4, 162399, Note_on_c, 0, 57, 88
4, 162560, Note_on_c, 0, 57, 0
4, 162560, Note_on_c, 0, 53, 0
4, 162560, Note_on_c, 0, 53, 88
4, 162560, Note_on_c, 0, 57, 88
4, 162720, Note_on_c, 0, 57, 0
4, 162720, Note_on_c, 0, 53, 0
4, 162720, Note_on_c, 0, 53, 88
4, 162720, Note_on_c, 0, 57, 88
4, 162879, Note_on_c, 0, 57, 0
4, 162879, Note_on_c, 0, 53, 0
4, 162879, Note_on_c, 0, 53, 88
4, 162879, Note_on_c, 0, 57, 88
4, 163040, Note_on_c, 0, 57, 0
4, 163040, Note_on_c, 0, 53, 0
4, 163040, Note_on_c, 0, 53, 88
4, 163040, Note_on_c, 0, 57, 88
4, 163200, Note_on_c, 0, 57, 0
4, 163200, Note_on_c, 0, 53, 0
4, 163359, Note_on_c, 0, 52, 88
4, 163359, Note_on_c, 0, 55, 88
4, 163359, Note_on_c, 0, 57, 88
4, 163520, Note_on_c, 0, 57, 0
4, 163520, Note_on_c, 0, 55, 0
4, 163520, Note_on_c, 0, 52, 0
4, 163520, Note_on_c, 0, 52, 88
4, 163520, Note_on_c, 0, 55, 88
4, 163520, Note_on_c, 0, 57, 88
4, 163680, Note_on_c, 0, 57, 0
4, 163680, Note_on_c, 0, 55, 0
4, 163680, Note_on_c, 0, 52, 0
4, 163680, Note_on_c, 0, 52, 88
4, 163680, Note_on_c, 0, 55, 88
4, 163680, Note_on_c, 0, 57, 88
4, 163839, Note_on_c, 0, 57, 0
4, 163839, Note_on_c, 0, 55, 0
4, 163839, Note_on_c, 0, 52, 0
4, 163839, Note_on_c, 0, 52, 88
4, 163839, Note_on_c, 0, 55, 88
4, 163839, Note_on_c, 0, 57, 88
4, 164000, Note_on_c, 0, 57, 0
4, 164000, Note_on_c, 0, 55, 0
4, 164000, Note_on_c, 0, 52, 0
4, 164000, Note_on_c, 0, 52, 88
4, 164000, Note_on_c, 0, 55, 88
4, 164000, Note_on_c, 0, 57, 88
4, 164160, Note_on_c, 0, 57, 0
4, 164160, Note_on_c, 0, 55, 0
4, 164160, Note_on_c, 0, 52, 0
4, 164160, Note_on_c, 0, 38, 88
4, 164160, Note_on_c, 0, 45, 88
4, 164319, Note_on_c, 0, 45, 0
4, 164319, Note_on_c, 0, 38, 0
4, 164319, Note_on_c, 0, 50, 88
4, 164319, Note_on_c, 0, 53, 88
4, 164319, Note_on_c, 0, 57, 88
4, 164480, Note_on_c, 0, 57, 0
4, 164480, Note_on_c, 0, 53, 0
4, 164480, Note_on_c, 0, 50, 0
4, 164480, Note_on_c, 0, 50, 88
4, 164480, Note_on_c, 0, 53, 88
4, 164480, Note_on_c, 0, 57, 88
4, 164640, Note_on_c, 0, 57, 0
4, 164640, Note_on_c, 0, 53, 0
4, 164640, Note_on_c, 0, 50, 0
4, 164640, Note_on_c, 0, 43, 88
4, 164640, Note_on_c, 0, 53, 88
4, 164799, Note_on_c, 0, 53, 0
4, 164799, Note_on_c, 0, 43, 0
4, 164799, Note_on_c, 0, 53, 88
4, 164799, Note_on_c, 0, 55, 88
4, 164799, Note_on_c, 0, 59, 88
4, 164960, Note_on_c, 0, 59, 0
4, 164960, Note_on_c, 0, 55, 0
4, 164960, Note_on_c, 0, 53, 0
4, 164960, Note_on_c, 0, 53, 88
4, 164960, Note_on_c, 0, 55, 88
4, 164960, Note_on_c, 0, 59, 88
4, 165120, Note_on_c, 0, 59, 0
4, 165120, Note_on_c, 0, 55, 0
4, 165120, Note_on_c, 0, 53, 0
4, 165120, Note_on_c, 0, 55, 88
4, 165279, Note_on_c, 0, 55, 0
4, 165279, Note_on_c, 0, 55, 88
4, 165440, Note_on_c, 0, 55, 0
4, 165440, Note_on_c, 0, 55, 88
4, 165600, Note_on_c, 0, 55, 0
4, 165600, Note_on_c, 0, 55, 88
4, 165759, Note_on_c, 0, 55, 0
4, 165759, Note_on_c, 0, 55, 88
4, 165920, Note_on_c, 0, 55, 0
4, 165920, Note_on_c, 0, 55, 88
4, 165920, Note_on_c, 0, 60, 88
4, 166080, Note_on_c, 0, 60, 0
4, 166080, Note_on_c, 0, 55, 0
4, 166080, Control_c, 0, 64, 127
4, 166080, Note_on_c, 0, 37, 75
4, 166080, Note_on_c, 0, 49, 75
4, 166239, Note_on_c, 0, 49, 0
4, 166239, Note_on_c, 0, 37, 0
4, 166239, Note_on_c, 0, 53, 75
4, 166239, Note_on_c, 0, 56, 75
4, 166239, Note_on_c, 0, 65, 75
4, 166400, Note_on_c, 0, 65, 0
4, 166400, Note_on_c, 0, 56, 0
4, 166400, Note_on_c, 0, 53, 0
4, 166400, Note_on_c, 0, 53, 75
4, 166400, Note_on_c, 0, 56, 75
4, 166400, Note_on_c, 0, 65, 75
4, 166560, Note_on_c, 0, 65, 0
4, 166560, Note_on_c, 0, 56, 0
4, 166560, Note_on_c, 0, 53, 0
4, 166560, Note_on_c, 0, 53, 75
4, 166560, Note_on_c, 0, 56, 75
4, 166560, Note_on_c, 0, 65, 75
4, 166719, Note_on_c, 0, 65, 0
4, 166719, Note_on_c, 0, 56, 0
4, 166719, Note_on_c, 0, 53, 0
4, 166719, Note_on_c, 0, 53, 75
4, 166719, Note_on_c, 0, 56, 75
4, 166719, Note_on_c, 0, 65, 75
4, 166880, Note_on_c, 0, 65, 0
4, 166880, Note_on_c, 0, 56, 0
4, 166880, Note_on_c, 0, 53, 0
4, 166880, Control_c, 0, 64, 0
4, 166880, Note_on_c, 0, 53, 75
4, 166880, Note_on_c, 0, 56, 75
4, 166880, Note_on_c, 0, 65, 75
4, 166960, Note_on_c, 0, 49, 75
4, 167000, Note_on_c, 0, 56, 75
4, 167040, Note_on_c, 0, 65, 0
4, 167040, Note_on_c, 0, 53, 0
4, 167040, Note_on_c, 0, 56, 0
4, 167040, Control_c, 0, 64, 127
4, 167040, Note_on_c, 0, 66, 75
4, 167920, Note_on_c, 0, 49, 75
4, 167960, Note_on_c, 0, 56, 75
4, 168000, Note_on_c, 0, 66, 0
4, 168000, Note_on_c, 0, 56, 0
4, 168000, Note_on_c, 0, 49, 0
4, 168000, Note_on_c, 0, 65, 75
4, 168480, Note_on_c, 0, 65, 0
4, 168480, Note_on_c, 0, 49, 0
4, 168480, Note_on_c, 0, 56, 0
4, 168480, Note_on_c, 0, 55, 75
4, 168480, Note_on_c, 0, 64, 75
4, 168880, Note_on_c, 0, 49, 75
4, 168920, Note_on_c, 0, 54, 75
4, 168960, Note_on_c, 0, 64, 0
4, 168960, Note_on_c, 0, 55, 0
4, 168960, Note_on_c, 0, 63, 75
4, 169440, Note_on_c, 0, 63, 0
4, 169440, Note_on_c, 0, 49, 0
4, 169440, Note_on_c, 0, 54, 0
4, 169440, Note_on_c, 0, 55, 75
4, 169440, Note_on_c, 0, 64, 75
4, 169680, Note_on_c, 0, 64, 0
4, 169680, Note_on_c, 0, 55, 0
4, 169680, Control_c, 0, 64, 0
4, 169680, Note_on_c, 0, 54, 75
4, 169680, Note_on_c, 0, 63, 75
4, 169920, Note_on_c, 0, 63, 0
4, 169920, Note_on_c, 0, 54, 0
4, 169920, Control_c, 0, 64, 127
4, 169920, Note_on_c, 0, 37, 75
4, 169920, Note_on_c, 0, 49, 75
4, 170079, Note_on_c, 0, 49, 0
4, 170079, Note_on_c, 0, 37, 0
4, 170079, Note_on_c, 0, 53, 75
4, 170079, Note_on_c, 0, 61, 75
4, 170079, Note_on_c, 0, 65, 75
4, 170240, Note_on_c, 0, 65, 0
4, 170240, Note_on_c, 0, 61, 0
4, 170240, Note_on_c, 0, 53, 0
4, 170240, Note_on_c, 0, 53, 75
4, 170240, Note_on_c, 0, 61, 75
4, 170240, Note_on_c, 0, 65, 75
4, 170400, Note_on_c, 0, 65, 0
4, 170400, Note_on_c, 0, 61, 0
4, 170400, Note_on_c, 0, 53, 0
4, 170400, Note_on_c, 0, 53, 75
4, 170400, Note_on_c, 0, 61, 75
4, 170400, Note_on_c, 0, 65, 75
4, 170559, Note_on_c, 0, 65, 0
4, 170559, Note_on_c, 0, 61, 0
4, 170559, Note_on_c, 0, 53, 0
4, 170559, Note_on_c, 0, 53, 75
4, 170559, Note_on_c, 0, 61, 75
4, 170559, Note_on_c, 0, 65, 75
4, 170720, Note_on_c, 0, 65, 0
4, 170720, Note_on_c, 0, 61, 0
4, 170720, Note_on_c, 0, 53, 0
4, 170720, Control_c, 0, 64, 0
4, 170720, Note_on_c, 0, 53, 75
4, 170720, Note_on_c, 0, 61, 75
4, 170720, Note_on_c, 0, 65, 75
4, 170880, Note_on_c, 0, 65, 0
4, 170880, Note_on_c, 0, 61, 0
4, 170880, Note_on_c, 0, 53, 0
4, 170880, Note_on_c, 0, 49, 75
4, 170880, Note_on_c, 0, 60, 75
4, 171840, Note_on_c, 0, 60, 0
4, 171840, Note_on_c, 0, 49, 0
4, 171840, Note_on_c, 0, 61, 75
4, 171840, Note_on_c, 0, 65, 75
4, 172320, Note_on_c, 0, 65, 0
4, 172320, Note_on_c, 0, 61, 0
4, 172320, Note_on_c, 0, 60, 75
4, 172320, Note_on_c, 0, 63, 75
4, 172800, Note_on_c, 0, 63, 0
4, 172800, Note_on_c, 0, 60, 0
4, 172800, Note_on_c, 0, 58, 75
4, 172800, Note_on_c, 0, 61, 75
4, 173280, Note_on_c, 0, 61, 0
4, 173280, Note_on_c, 0, 58, 0
4, 173280, Note_on_c, 0, 57, 75
4, 173280, Note_on_c, 0, 60, 75
4, 173520, Note_on_c, 0, 60, 0
4, 173520, Note_on_c, 0, 57, 0
4, 173520, Note_on_c, 0, 51, 75
4, 173520, Note_on_c, 0, 57, 75
4, 173700, Note_on_c, 0, 37, 62
4, 173760, Note_on_c, 0, 57, 0
4, 173760, Note_on_c, 0, 51, 0
4, 173760, Note_on_c, 0, 49, 62
4, 173760, Note_on_c, 0, 56, 62
4, 174720, Note_on_c, 0, 56, 0
4, 174720, Note_on_c, 0, 49, 0
4, 174720, Note_on_c, 0, 37, 0
4, 174720, Note_on_c, 0, 49, 49
4, 174720, Note_on_c, 0, 56, 49
4, 175680, Note_on_c, 0, 56, 0
4, 175680, Note_on_c, 0, 49, 0
4, 175680, Note_on_c, 0, 53, 49
4, 175680, Note_on_c, 0, 56, 49
4, 176160, Note_on_c, 0, 56, 0
4, 176160, Note_on_c, 0, 53, 0
4, 176160, Note_on_c, 0, 52, 49
4, 176160, Note_on_c, 0, 55, 49
4, 176640, Note_on_c, 0, 55, 0
4, 176640, Note_on_c, 0, 52, 0
4, 176640, Note_on_c, 0, 51, 49
4, 176640, Note_on_c, 0, 54, 49
4, 177120, Note_on_c, 0, 54, 0
4, 177120, Note_on_c, 0, 51, 0
4, 177120, Note_on_c, 0, 52, 49
4, 177120, Note_on_c, 0, 55, 49
4, 177360, Note_on_c, 0, 55, 0
4, 177360, Note_on_c, 0, 52, 0
4, 177360, Note_on_c, 0, 51, 49
4, 177360, Note_on_c, 0, 54, 49
4, 177600, Note_on_c, 0, 54, 0
4, 177600, Note_on_c, 0, 51, 0
4, 177600, Note_on_c, 0, 37, 49
4, 177600, Note_on_c, 0, 53, 49
4, 178560, Note_on_c, 0, 53, 0
4, 178560, Note_on_c, 0, 37, 0
4, 178560, Note_on_c, 0, 58, 49
4, 178920, Note_on_c, 0, 58, 0
4, 178920, Note_on_c, 0, 57, 49
4, 179040, Note_on_c, 0, 57, 0
4, 179040, Note_on_c, 0, 57, 49
4, 179280, Note_on_c, 0, 57, 0
4, 179280, Note_on_c, 0, 56, 49
4, 179520, Note_on_c, 0, 56, 0
4, 179520, Note_on_c, 0, 58, 49
4, 179880, Note_on_c, 0, 58, 0
4, 179880, Note_on_c, 0, 57, 49
4, 180000, Note_on_c, 0, 57, 0
4, 180000, Note_on_c, 0, 57, 49
4, 180240, Note_on_c, 0, 57, 0
4, 180240, Note_on_c, 0, 56, 49
4, 180480, Note_on_c, 0, 56, 0
4, 180480, Note_on_c, 0, 57, 49
4, 180840, Note_on_c, 0, 57, 0
4, 180840, Note_on_c, 0, 56, 49
4, 180960, Note_on_c, 0, 56, 0
4, 180960, Note_on_c, 0, 56, 49
4, 181200, Note_on_c, 0, 56, 0
4, 181200, Note_on_c, 0, 55, 49
4, 181440, Note_on_c, 0, 55, 0
4, 181440, Note_on_c, 0, 56, 49
4, 181800, Note_on_c, 0, 56, 0
4, 181800, Note_on_c, 0, 55, 49
4, 181920, Note_on_c, 0, 55, 0
4, 181920, Note_on_c, 0, 55, 49
4, 182160, Note_on_c, 0, 55, 0
4, 182160, Note_on_c, 0, 54, 49
4, 182640, Note_on_c, 0, 54, 0
4, 182640, Note_on_c, 0, 53, 49
4, 183120, Note_on_c, 0, 53, 0
4, 183120, Note_on_c, 0, 52, 49
4, 183360, Note_on_c, 0, 52, 0
4, 183360, Note_on_c, 0, 54, 49
4, 183720, Note_on_c, 0, 54, 0
4, 183720, Note_on_c, 0, 53, 49
4, 183840, Note_on_c, 0, 53, 0
4, 183840, Note_on_c, 0, 53, 49
4, 184080, Note_on_c, 0, 53, 0
4, 184080, Note_on_c, 0, 52, 49
4, 184560, Note_on_c, 0, 52, 0
4, 184560, Note_on_c, 0, 54, 49
4, 185040, Note_on_c, 0, 54, 0
4, 185040, Note_on_c, 0, 53, 49
4, 185520, Note_on_c, 0, 53, 0
4, 185520, Note_on_c, 0, 52, 49
4, 186000, Note_on_c, 0, 52, 0
4, 186000, Note_on_c, 0, 54, 49
4, 186480, Note_on_c, 0, 54, 0
4, 186480, Note_on_c, 0, 52, 49
4, 186960, Note_on_c, 0, 52, 0
4, 186960, Note_on_c, 0, 53, 49
4, 187200, Note_on_c, 0, 53, 0
4, 187200, Note_on_c, 0, 53, 49
4, 187680, Note_on_c, 0, 53, 0
4, 187680, Note_on_c, 0, 53, 49
4, 190080, Note_on_c, 0, 53, 0
4, 191040, Control_c, 0, 64, 127
4, 191040, Note_on_c, 0, 89, 49
4, 191100, Note_on_c, 0, 89, 0
4, 191100, Note_on_c, 0, 87, 49
4, 191160, Note_on_c, 0, 87, 0
4, 191160, Note_on_c, 0, 85, 49
4, 191220, Note_on_c, 0, 85, 0
4, 191220, Note_on_c, 0, 84, 49
4, 191280, Note_on_c, 0, 84, 0
4, 191280, Control_c, 0, 64, 0
4, 191280, Note_on_c, 0, 82, 49
4, 191327, Note_on_c, 0, 82, 0
4, 192960, Control_c, 0, 64, 127
4, 192960, Note_on_c, 0, 85, 49
4, 193020, Note_on_c, 0, 85, 0
4, 193020, Note_on_c, 0, 84, 49
4, 193080, Note_on_c, 0, 84, 0
4, 193080, Note_on_c, 0, 82, 49
4, 193140, Note_on_c, 0, 82, 0
4, 193140, Note_on_c, 0, 80, 49
4, 193200, Note_on_c, 0, 80, 0
4, 193200, Control_c, 0, 64, 0
4, 193200, Note_on_c, 0, 78, 49
4, 193247, Note_on_c, 0, 78, 0
4, 195840, Control_c, 0, 64, 127
4, 195840, Note_on_c, 0, 84, 49
4, 195900, Note_on_c, 0, 84, 0
4, 195900, Note_on_c, 0, 85, 49
4, 195960, Note_on_c, 0, 85, 0
4, 195960, Note_on_c, 0, 87, 49
4, 196020, Note_on_c, 0, 87, 0
4, 196020, Note_on_c, 0, 89, 49
4, 196080, Note_on_c, 0, 89, 0
4, 196080, Control_c, 0, 64, 0
4, 196080, Note_on_c, 0, 90, 49
4, 196127, Note_on_c, 0, 90, 0
4, 197280, Control_c, 0, 64, 127
4, 197280, Note_on_c, 0, 61, 49
4, 197340, Note_on_c, 0, 61, 0
4, 197340, Note_on_c, 0, 60, 49
4, 197400, Note_on_c, 0, 60, 0
4, 197400, Note_on_c, 0, 61, 49
4, 197460, Note_on_c, 0, 61, 0
4, 197460, Note_on_c, 0, 63, 49
4, 197520, Note_on_c, 0, 63, 0
4, 197520, Control_c, 0, 64, 0
4, 197520, Note_on_c, 0, 65, 49
4, 197567, Note_on_c, 0, 65, 0
4, 198720, Control_c, 0, 64, 127
4, 198720, Note_on_c, 0, 89, 49
4, 198780, Note_on_c, 0, 89, 0
4, 198780, Note_on_c, 0, 87, 49
4, 198840, Note_on_c, 0, 87, 0
4, 198840, Note_on_c, 0, 85, 49
4, 198900, Note_on_c, 0, 85, 0
4, 198900, Note_on_c, 0, 84, 49
4, 198960, Note_on_c, 0, 84, 0
4, 198960, Control_c, 0, 64, 0
4, 198960, Note_on_c, 0, 82, 49
4, 199007, Note_on_c, 0, 82, 0
4, 199200, Control_c, 0, 64, 127
4, 199200, Note_on_c, 0, 58, 49
4, 199260, Note_on_c, 0, 58, 0
4, 199260, Note_on_c, 0, 60, 49
4, 199320, Note_on_c, 0, 60, 0
4, 199320, Note_on_c, 0, 61, 49
4, 199380, Note_on_c, 0, 61, 0
4, 199380, Note_on_c, 0, 63, 49
4, 199440, Note_on_c, 0, 63, 0
4, 199440, Control_c, 0, 64, 0
4, 199440, Note_on_c, 0, 65, 49
4, 199487, Note_on_c, 0, 65, 0
4, 201120, Control_c, 0, 64, 127
4, 201120, Note_on_c, 0, 87, 49
4, 201180, Note_on_c, 0, 87, 0
4, 201180, Note_on_c, 0, 89, 49
4, 201240, Note_on_c, 0, 89, 0
4, 201240, Note_on_c, 0, 90, 49
4, 201300, Note_on_c, 0, 90, 0
4, 201300, Note_on_c, 0, 92, 49
4, 201360, Note_on_c, 0, 92, 0
4, 201360, Control_c, 0, 64, 0
4, 201360, Note_on_c, 0, 94, 49
4, 201407, Note_on_c, 0, 94, 0
4, 202560, Control_c, 0, 64, 127
4, 202560, Note_on_c, 0, 68, 49
4, 202620, Note_on_c, 0, 68, 0
4, 202620, Note_on_c, 0, 67, 49
4, 202680, Note_on_c, 0, 67, 0
4, 202680, Note_on_c, 0, 65, 49
4, 202740, Note_on_c, 0, 65, 0
4, 202740, Note_on_c, 0, 63, 49
4, 202800, Note_on_c, 0, 63, 0
4, 202800, Control_c, 0, 64, 0
4, 202800, Note_on_c, 0, 61, 49
4, 202847, Note_on_c, 0, 61, 0
4, 203040, Control_c, 0, 64, 127
4, 203040, Note_on_c, 0, 61, 49
4, 203100, Note_on_c, 0, 61, 0
4, 203100, Note_on_c, 0, 60, 49
4, 203160, Note_on_c, 0, 60, 0
4, 203160, Note_on_c, 0, 61, 49
4, 203220, Note_on_c, 0, 61, 0
4, 203220, Note_on_c, 0, 63, 49
4, 203280, Note_on_c, 0, 63, 0
4, 203280, Control_c, 0, 64, 0
4, 203280, Note_on_c, 0, 65, 49
4, 203327, Note_on_c, 0, 65, 0
4, 203520, Note_on_c, 0, 77, 49
4, 203760, Note_on_c, 0, 77, 0
4, 204960, Control_c, 0, 64, 127
4, 204960, Note_on_c, 0, 56, 49
4, 205020, Note_on_c, 0, 56, 0
4, 205020, Note_on_c, 0, 58, 49
4, 205080, Note_on_c, 0, 58, 0
4, 205080, Note_on_c, 0, 60, 49
4, 205140, Note_on_c, 0, 60, 0
4, 205140, Note_on_c, 0, 61, 49
4, 205200, Note_on_c, 0, 61, 0
4, 205200, Control_c, 0, 64, 0
4, 205200, Note_on_c, 0, 63, 49
4, 205247, Note_on_c, 0, 63, 0
4, 205440, Note_on_c, 0, 75, 49
4, 205680, Note_on_c, 0, 75, 0
4, 206400, Control_c, 0, 64, 127
4, 206400, Note_on_c, 0, 53, 49
4, 206460, Note_on_c, 0, 53, 0
4, 206460, Note_on_c, 0, 51, 49
4, 206520, Note_on_c, 0, 51, 0
4, 206520, Note_on_c, 0, 49, 49
4, 206580, Note_on_c, 0, 49, 0
4, 206580, Note_on_c, 0, 48, 49
4, 206640, Note_on_c, 0, 48, 0
4, 206640, Control_c, 0, 64, 0
4, 206640, Note_on_c, 0, 46, 49
4, 206687, Note_on_c, 0, 46, 0
4, 206880, Control_c, 0, 64, 127
4, 206880, Note_on_c, 0, 54, 49
4, 206940, Note_on_c, 0, 54, 0
4, 206940, Note_on_c, 0, 56, 49
4, 207000, Note_on_c, 0, 56, 0
4, 207000, Note_on_c, 0, 58, 49
4, 207060, Note_on_c, 0, 58, 0
4, 207060, Note_on_c, 0, 60, 49
4, 207120, Note_on_c, 0, 60, 0
4, 207120, Control_c, 0, 64, 0
4, 207120, Note_on_c, 0, 61, 49
4, 207167, Note_on_c, 0, 61, 0
4, 207360, Control_c, 0, 64, 127
4, 207360, Note_on_c, 0, 61, 62
4, 207600, Note_on_c, 0, 61, 0
4, 207600, Note_on_c, 0, 60, 62
4, 207840, Note_on_c, 0, 60, 0
4, 207840, Note_on_c, 0, 61, 62
4, 208080, Note_on_c, 0, 61, 0
4, 208080, Control_c, 0, 64, 0
4, 208080, Note_on_c, 0, 63, 62
4, 208230, Note_on_c, 0, 53, 62
4, 208260, Note_on_c, 0, 57, 62
4, 208290, Note_on_c, 0, 60, 62
4, 208320, Note_on_c, 0, 63, 0
4, 208320, Control_c, 0, 64, 127
4, 208320, Note_on_c, 0, 65, 62
4, 208367, Note_on_c, 0, 65, 0
4, 208367, Note_on_c, 0, 60, 0
4, 208367, Note_on_c, 0, 57, 0
4, 208367, Note_on_c, 0, 53, 0
4, 208560, Note_on_c, 0, 63, 62
4, 208800, Note_on_c, 0, 63, 0
4, 208800, Note_on_c, 0, 61, 62
4, 209040, Note_on_c, 0, 61, 0
4, 209040, Control_c, 0, 64, 0
4, 209040, Note_on_c, 0, 60, 62
4, 209280, Note_on_c, 0, 60, 0
4, 209280, Note_on_c, 0, 58, 62
4, 209280, Note_on_c, 0, 61, 62
4, 209280, Note_on_c, 0, 65, 62
4, 209520, Note_on_c, 0, 65, 0
4, 209520, Note_on_c, 0, 61, 0
4, 209520, Note_on_c, 0, 58, 0
4, 209520, Note_on_c, 0, 46, 75
4, 209520, Note_on_c, 0, 58, 75
4, 209760, Note_on_c, 0, 58, 0
4, 209760, Note_on_c, 0, 46, 0
4, 209760, Note_on_c, 0, 48, 75
4, 209760, Note_on_c, 0, 60, 75
4, 210000, Note_on_c, 0, 60, 0
4, 210000, Note_on_c, 0, 48, 0
4, 210000, Note_on_c, 0, 49, 75
4, 210000, Note_on_c, 0, 61, 75
4, 210240, Note_on_c, 0, 61, 0
4, 210240, Note_on_c, 0, 49, 0
4, 210240, Note_on_c, 0, 44, 101
4, 210240, Note_on_c, 0, 51, 101
4, 210720, Note_on_c, 0, 51, 0
4, 210720, Note_on_c, 0, 44, 0
4, 210720, Note_on_c, 0, 44, 101
4, 210720, Note_on_c, 0, 51, 101
4, 211200, Note_on_c, 0, 51, 0
4, 211200, Note_on_c, 0, 44, 0
4, 211200, Note_on_c, 0, 51, 101
4, 211440, Note_on_c, 0, 51, 0
4, 211440, Note_on_c, 0, 51, 75
4, 211680, Note_on_c, 0, 51, 0
4, 211680, Note_on_c, 0, 49, 75
4, 211920, Note_on_c, 0, 49, 0
4, 211920, Control_c, 0, 64, 127
4, 211920, Note_on_c, 0, 48, 75
4, 212080, Note_on_c, 0, 42, 75
4, 212120, Note_on_c, 0, 49, 75
4, 212160, Note_on_c, 0, 48, 0
4, 212160, Note_on_c, 0, 58, 75
4, 212400, Note_on_c, 0, 58, 0
4, 212400, Note_on_c, 0, 49, 0
4, 212400, Note_on_c, 0, 42, 0
4, 212400, Note_on_c, 0, 56, 75
4, 212520, Note_on_c, 0, 56, 0
4, 212520, Note_on_c, 0, 54, 75
4, 212640, Note_on_c, 0, 54, 0
4, 212640, Note_on_c, 0, 53, 75
4, 212880, Note_on_c, 0, 53, 0
4, 212880, Control_c, 0, 64, 0
4, 212880, Note_on_c, 0, 51, 75
4, 213000, Note_on_c, 0, 51, 0
4, 213000, Note_on_c, 0, 49, 75
4, 213120, Note_on_c, 0, 49, 0
4, 213120, Note_on_c, 0, 48, 75
4, 213360, Note_on_c, 0, 48, 0
4, 213360, Note_on_c, 0, 46, 75
4, 213360, Note_on_c, 0, 58, 75
4, 213600, Note_on_c, 0, 58, 0
4, 213600, Note_on_c, 0, 46, 0
4, 213600, Note_on_c, 0, 48, 75
4, 213600, Note_on_c, 0, 60, 75
4, 213840, Note_on_c, 0, 60, 0
4, 213840, Note_on_c, 0, 48, 0
4, 213840, Note_on_c, 0, 49, 75
4, 213840, Note_on_c, 0, 61, 75
4, 214080, Note_on_c, 0, 61, 0
4, 214080, Note_on_c, 0, 49, 0
4, 214080, Note_on_c, 0, 44, 101
4, 214080, Note_on_c, 0, 51, 101
4, 214560, Note_on_c, 0, 51, 0
4, 214560, Note_on_c, 0, 44, 0
4, 214560, Note_on_c, 0, 44, 101
4, 214560, Note_on_c, 0, 51, 101
4, 215040, Note_on_c, 0, 51, 0
4, 215040, Note_on_c, 0, 44, 0
4, 215040, Note_on_c, 0, 51, 101
4, 215280, Note_on_c, 0, 51, 0
4, 215280, Note_on_c, 0, 51, 75
4, 215520, Note_on_c, 0, 51, 0
4, 215520, Note_on_c, 0, 49, 75
4, 215760, Note_on_c, 0, 49, 0
4, 215760, Note_on_c, 0, 48, 75
4, 216000, Note_on_c, 0, 48, 0
4, 216000, Note_on_c, 0, 46, 75
4, 216240, Note_on_c, 0, 46, 0
4, 216240, Note_on_c, 0, 44, 75
4, 216360, Note_on_c, 0, 44, 0
4, 216360, Note_on_c, 0, 42, 75
4, 216480, Note_on_c, 0, 42, 0
4, 216480, Note_on_c, 0, 41, 75
4, 216720, Note_on_c, 0, 41, 0
4, 216720, Note_on_c, 0, 39, 75
4, 216840, Note_on_c, 0, 39, 0
4, 216840, Note_on_c, 0, 41, 75
4, 216960, Note_on_c, 0, 41, 0
4, 216960, Note_on_c, 0, 42, 75
4, 217200, Note_on_c, 0, 42, 0
4, 217200, Note_on_c, 0, 44, 75
4, 217320, Note_on_c, 0, 44, 0
4, 217320, Note_on_c, 0, 46, 75
4, 217440, Note_on_c, 0, 46, 0
4, 217440, Note_on_c, 0, 48, 75
4, 217680, Note_on_c, 0, 48, 0
4, 217680, Note_on_c, 0, 49, 75
4, 217727, Note_on_c, 0, 49, 0
4, 217920, Note_on_c, 0, 44, 101
4, 217920, Note_on_c, 0, 51, 101
4, 218400, Note_on_c, 0, 51, 0
4, 218400, Note_on_c, 0, 44, 0
4, 218400, Note_on_c, 0, 44, 101
4, 218400, Note_on_c, 0, 51, 101
4, 218880, Note_on_c, 0, 51, 0
4, 218880, Note_on_c, 0, 44, 0
4, 218880, Note_on_c, 0, 51, 101
4, 219120, Note_on_c, 0, 51, 0
4, 219120, Note_on_c, 0, 51, 75
4, 219360, Note_on_c, 0, 51, 0
4, 219360, Note_on_c, 0, 49, 75
4, 219600, Note_on_c, 0, 49, 0
4, 219600, Control_c, 0, 64, 127
4, 219600, Note_on_c, 0, 48, 75
4, 219760, Note_on_c, 0, 42, 75
4, 219800, Note_on_c, 0, 49, 75
4, 219840, Note_on_c, 0, 48, 0
4, 219840, Note_on_c, 0, 58, 75
4, 220080, Note_on_c, 0, 58, 0
4, 220080, Note_on_c, 0, 49, 0
4, 220080, Note_on_c, 0, 42, 0
4, 220080, Note_on_c, 0, 56, 75
4, 220200, Note_on_c, 0, 56, 0
4, 220200, Note_on_c, 0, 54, 75
4, 220320, Note_on_c, 0, 54, 0
4, 220320, Note_on_c, 0, 53, 75
4, 220560, Note_on_c, 0, 53, 0
4, 220560, Control_c, 0, 64, 0
4, 220560, Note_on_c, 0, 51, 75
4, 220680, Note_on_c, 0, 51, 0
4, 220680, Note_on_c, 0, 49, 75
4, 220800, Note_on_c, 0, 49, 0
4, 220800, Note_on_c, 0, 48, 75
4, 221040, Note_on_c, 0, 48, 0
4, 221040, Note_on_c, 0, 46, 75
4, 221280, Note_on_c, 0, 46, 0
4, 221280, Note_on_c, 0, 48, 75
4, 221520, Note_on_c, 0, 48, 0
4, 221520, Note_on_c, 0, 49, 75
4, 221760, Note_on_c, 0, 49, 0
4, 221760, Note_on_c, 0, 44, 101
4, 221760, Note_on_c, 0, 51, 101
4, 222240, Note_on_c, 0, 51, 0
4, 222240, Note_on_c, 0, 44, 0
4, 222240, Note_on_c, 0, 44, 101
4, 222240, Note_on_c, 0, 51, 101
4, 222720, Note_on_c, 0, 51, 0
4, 222720, Note_on_c, 0, 44, 0
4, 222720, Note_on_c, 0, 44, 101
4, 222720, Note_on_c, 0, 51, 101
4, 223680, Note_on_c, 0, 51, 0
4, 223680, Note_on_c, 0, 44, 0
4, 225600, Note_on_c, 0, 42, 101
4, 225600, Note_on_c, 0, 48, 101
4, 225600, Note_on_c, 0, 51, 101
4, 225600, Note_on_c, 0, 56, 101
4, 226080, Note_on_c, 0, 56, 0
4, 226080, Note_on_c, 0, 42, 0
4, 226080, Note_on_c, 0, 48, 0
4, 226080, Note_on_c, 0, 51, 0
4, 226080, Note_on_c, 0, 42, 101
4, 226080, Note_on_c, 0, 48, 101
4, 226080, Note_on_c, 0, 51, 101
4, 226080, Note_on_c, 0, 56, 101
4, 226560, Note_on_c, 0, 56, 0
4, 226560, Note_on_c, 0, 42, 0
4, 226560, Note_on_c, 0, 48, 0
4, 226560, Note_on_c, 0, 51, 0
4, 226560, Note_on_c, 0, 42, 101
4, 226560, Note_on_c, 0, 48, 101
4, 226560, Note_on_c, 0, 51, 101
4, 226560, Note_on_c, 0, 56, 101
4, 227520, Note_on_c, 0, 56, 0
4, 227520, Note_on_c, 0, 42, 0
4, 227520, Note_on_c, 0, 48, 0
4, 227520, Note_on_c, 0, 51, 0
4, 229440, Note_on_c, 0, 41, 75
4, 229440, Note_on_c, 0, 48, 75
4, 229440, Note_on_c, 0, 57, 75
4, 230400, Note_on_c, 0, 57, 0
4, 230400, Note_on_c, 0, 48, 0
4, 230400, Note_on_c, 0, 41, 0
4, 231280, Note_on_c, 0, 39, 75
4, 231320, Note_on_c, 0, 48, 75
4, 231360, Note_on_c, 0, 54, 75
4, 232320, Note_on_c, 0, 54, 0
4, 232320, Note_on_c, 0, 48, 0
4, 232320, Note_on_c, 0, 39, 0
4, 233200, Note_on_c, 0, 38, 75
4, 233240, Note_on_c, 0, 48, 75
4, 233280, Note_on_c, 0, 54, 75
4, 234240, Note_on_c, 0, 54, 0
4, 234240, Note_on_c, 0, 48, 0
4, 234240, Note_on_c, 0, 38, 0
4, 235200, Note_on_c, 0, 62, 75
4, 235200, Note_on_c, 0, 66, 75
4, 235200, Note_on_c, 0, 69, 75
4, 235200, Note_on_c, 0, 72, 75
4, 237120, Note_on_c, 0, 72, 0
4, 237120, Note_on_c, 0, 62, 0
4, 237120, Note_on_c, 0, 66, 0
4, 237120, Note_on_c, 0, 69, 0
4, 237360, Note_on_c, 0, 70, 62
4, 237600, Note_on_c, 0, 70, 0
4, 237600, Note_on_c, 0, 68, 62
4, 237840, Note_on_c, 0, 68, 0
4, 237840, Note_on_c, 0, 66, 62
4, 238080, Note_on_c, 0, 66, 0
4, 238080, Note_on_c, 0, 67, 62
4, 238320, Note_on_c, 0, 67, 0
4, 238320, Note_on_c, 0, 68, 62
4, 238560, Note_on_c, 0, 68, 0
4, 239280, Note_on_c, 0, 66, 75
4, 239520, Note_on_c, 0, 66, 0
4, 239520, Note_on_c, 0, 65, 75
4, 239760, Note_on_c, 0, 65, 0
4, 239760, Note_on_c, 0, 63, 75
4, 240000, Note_on_c, 0, 63, 0
4, 240000, Control_c, 0, 64, 127
4, 240000, Note_on_c, 0, 63, 75
4, 240240, Note_on_c, 0, 63, 0
4, 240240, Note_on_c, 0, 61, 75
4, 240480, Note_on_c, 0, 61, 0
4, 240480, Note_on_c, 0, 60, 75
4, 240720, Note_on_c, 0, 60, 0
4, 240720, Control_c, 0, 64, 0
4, 240720, Note_on_c, 0, 61, 75
4, 240960, Note_on_c, 0, 61, 0
4, 241200, Note_on_c, 0, 61, 62
4, 241440, Note_on_c, 0, 61, 0
4, 241440, Note_on_c, 0, 63, 62
4, 241680, Note_on_c, 0, 63, 0
4, 241680, Note_on_c, 0, 64, 62
4, 241920, Note_on_c, 0, 64, 0
4, 241920, Control_c, 0, 64, 127
4, 241920, Note_on_c, 0, 64, 62
4, 242160, Note_on_c, 0, 64, 0
4, 242160, Note_on_c, 0, 63, 62
4, 242400, Note_on_c, 0, 63, 0
4, 242400, Note_on_c, 0, 62, 62
4, 242640, Note_on_c, 0, 62, 0
4, 242640, Control_c, 0, 64, 0
4, 242640, Note_on_c, 0, 63, 62
4, 242880, Note_on_c, 0, 63, 0
4, 242880, Control_c, 0, 64, 127
4, 242880, Note_on_c, 0, 63, 75
4, 243120, Note_on_c, 0, 63, 0
4, 243120, Note_on_c, 0, 61, 75
4, 243360, Note_on_c, 0, 61, 0
4, 243360, Note_on_c, 0, 60, 75
4, 243600, Note_on_c, 0, 60, 0
4, 243600, Control_c, 0, 64, 0
4, 243600, Note_on_c, 0, 61, 75
4, 243840, Note_on_c, 0, 61, 0
4, 243840, Control_c, 0, 64, 127
4, 243840, Note_on_c, 0, 61, 75
4, 244080, Note_on_c, 0, 61, 0
4, 244080, Note_on_c, 0, 59, 75
4, 244320, Note_on_c, 0, 59, 0
4, 244320, Note_on_c, 0, 58, 75
4, 244560, Note_on_c, 0, 58, 0
4, 244560, Control_c, 0, 64, 0
4, 244560, Note_on_c, 0, 59, 75
4, 244800, Note_on_c, 0, 59, 0
4, 244800, Control_c, 0, 64, 127
4, 244800, Note_on_c, 0, 61, 75
4, 244920, Note_on_c, 0, 61, 0
4, 244920, Note_on_c, 0, 59, 75
4, 245040, Note_on_c, 0, 59, 0
4, 245040, Note_on_c, 0, 58, 75
4, 245160, Note_on_c, 0, 58, 0
4, 245160, Note_on_c, 0, 59, 75
4, 245280, Note_on_c, 0, 59, 0
4, 245280, Control_c, 0, 64, 0
4, 245280, Note_on_c, 0, 65, 75
4, 245327, Note_on_c, 0, 65, 0
4, 245520, Note_on_c, 0, 63, 75
4, 245567, Note_on_c, 0, 63, 0
4, 245760, Note_on_c, 0, 61, 75
4, 246240, Note_on_c, 0, 61, 0
4, 246240, Note_on_c, 0, 59, 75
4, 246720, Note_on_c, 0, 59, 0
4, 246720, Note_on_c, 0, 58, 75
4, 247200, Note_on_c, 0, 58, 0
4, 247200, Note_on_c, 0, 56, 75
4, 247680, Note_on_c, 0, 56, 0
4, 247680, Note_on_c, 0, 57, 62
4, 247920, Note_on_c, 0, 57, 0
4, 247920, Note_on_c, 0, 56, 62
4, 248160, Note_on_c, 0, 56, 0
4, 248160, Note_on_c, 0, 54, 62
4, 248400, Note_on_c, 0, 54, 0
4, 248400, Note_on_c, 0, 56, 62
4, 248640, Note_on_c, 0, 56, 0
4, 248640, Note_on_c, 0, 57, 62
4, 248760, Note_on_c, 0, 57, 0
4, 248760, Note_on_c, 0, 56, 62
4, 248880, Note_on_c, 0, 56, 0
4, 248880, Note_on_c, 0, 54, 62
4, 249000, Note_on_c, 0, 54, 0
4, 249000, Note_on_c, 0, 56, 62
4, 249120, Note_on_c, 0, 56, 0
4, 249120, Note_on_c, 0, 61, 62
4, 249167, Note_on_c, 0, 61, 0
4, 249360, Note_on_c, 0, 59, 62
4, 249407, Note_on_c, 0, 59, 0
4, 249600, Note_on_c, 0, 57, 62
4, 250080, Note_on_c, 0, 57, 0
4, 250080, Note_on_c, 0, 56, 62
4, 250560, Note_on_c, 0, 56, 0
4, 250560, Note_on_c, 0, 54, 62
4, 251040, Note_on_c, 0, 54, 0
4, 251040, Note_on_c, 0, 52, 62
4, 251520, Note_on_c, 0, 52, 0
4, 251520, Note_on_c, 0, 54, 62
4, 251760, Note_on_c, 0, 54, 0
4, 251760, Note_on_c, 0, 52, 62
4, 252000, Note_on_c, 0, 52, 0
4, 252000, Note_on_c, 0, 51, 62
4, 252240, Note_on_c, 0, 51, 0
4, 252240, Note_on_c, 0, 52, 62
4, 252480, Note_on_c, 0, 52, 0
4, 252480, Note_on_c, 0, 54, 62
4, 252600, Note_on_c, 0, 54, 0
4, 252600, Note_on_c, 0, 52, 62
4, 252720, Note_on_c, 0, 52, 0
4, 252720, Note_on_c, 0, 51, 62
4, 252840, Note_on_c, 0, 51, 0
4, 252840, Note_on_c, 0, 52, 62
4, 252960, Note_on_c, 0, 52, 0
4, 252960, Note_on_c, 0, 57, 62
4, 253007, Note_on_c, 0, 57, 0
4, 253200, Note_on_c, 0, 56, 62
4, 253247, Note_on_c, 0, 56, 0
4, 253440, Note_on_c, 0, 54, 62
4, 253920, Note_on_c, 0, 54, 0
4, 253920, Note_on_c, 0, 52, 62
4, 254400, Note_on_c, 0, 52, 0
4, 254400, Note_on_c, 0, 51, 62
4, 254880, Note_on_c, 0, 51, 0
4, 254880, Note_on_c, 0, 49, 62
4, 255360, Note_on_c, 0, 49, 0
4, 255360, Control_c, 0, 64, 127
4, 255360, Note_on_c, 0, 49, 62
4, 255600, Note_on_c, 0, 49, 0
4, 255600, Note_on_c, 0, 48, 62
4, 255840, Note_on_c, 0, 48, 0
4, 255840, Note_on_c, 0, 47, 62
4, 256080, Note_on_c, 0, 47, 0
4, 256080, Control_c, 0, 64, 0
4, 256080, Note_on_c, 0, 48, 62
4, 256320, Note_on_c, 0, 48, 0
4, 256320, Control_c, 0, 64, 127
4, 256320, Note_on_c, 0, 49, 62
4, 256440, Note_on_c, 0, 49, 0
4, 256440, Note_on_c, 0, 48, 62
4, 256560, Note_on_c, 0, 48, 0
4, 256560, Note_on_c, 0, 47, 62
4, 256680, Note_on_c, 0, 47, 0
4, 256680, Note_on_c, 0, 48, 62
4, 256800, Note_on_c, 0, 48, 0
4, 256800, Control_c, 0, 64, 0
4, 256800, Note_on_c, 0, 53, 62
4, 256847, Note_on_c, 0, 53, 0
4, 257040, Note_on_c, 0, 51, 62
4, 257087, Note_on_c, 0, 51, 0
4, 257280, Note_on_c, 0, 49, 62
4, 257760, Note_on_c, 0, 49, 0
4, 257760, Note_on_c, 0, 48, 62
4, 258240, Note_on_c, 0, 48, 0
4, 258240, Note_on_c, 0, 46, 62
4, 258720, Note_on_c, 0, 46, 0
4, 258720, Note_on_c, 0, 45, 62
4, 259200, Note_on_c, 0, 45, 0
4, 259200, Note_on_c, 0, 42, 62
4, 261120, Note_on_c, 0, 42, 0
4, 261120, Note_on_c, 0, 41, 49
4, 262320, Note_on_c, 0, 41, 0
4, 262960, Note_on_c, 0, 46, 49
4, 263000, Note_on_c, 0, 49, 49
4, 263024, Note_on_c, 0, 46, 0
4, 263040, Note_on_c, 0, 53, 49
4, 263055, Note_on_c, 0, 49, 0
4, 263087, Note_on_c, 0, 53, 0
4, 264000, Note_on_c, 0, 53, 49
4, 264000, Note_on_c, 0, 57, 49
4, 264047, Note_on_c, 0, 57, 0
4, 264047, Note_on_c, 0, 53, 0
4, 264480, Note_on_c, 0, 41, 49
4, 264480, Note_on_c, 0, 53, 49
4, 264527, Note_on_c, 0, 53, 0
4, 264527, Note_on_c, 0, 41, 0
4, 264960, Note_on_c, 0, 42, 49
4, 264960, Note_on_c, 0, 49, 49
4, 264960, Note_on_c, 0, 54, 49
4, 265007, Note_on_c, 0, 54, 0
4, 265007, Note_on_c, 0, 49, 0
4, 265007, Note_on_c, 0, 42, 0
4, 265440, Note_on_c, 0, 39, 49
4, 265440, Note_on_c, 0, 51, 49
4, 265487, Note_on_c, 0, 51, 0
4, 265487, Note_on_c, 0, 39, 0
4, 265920, Note_on_c, 0, 41, 49
4, 265967, Note_on_c, 0, 41, 0
4, 266880, Note_on_c, 0, 58, 49
4, 267120, Note_on_c, 0, 58, 0
4, 267120, Note_on_c, 0, 60, 49
4, 267360, Note_on_c, 0, 60, 0
4, 267360, Note_on_c, 0, 61, 49
4, 267600, Note_on_c, 0, 61, 0
4, 267600, Note_on_c, 0, 65, 49
4, 267840, Note_on_c, 0, 65, 0
4, 267840, Note_on_c, 0, 63, 49
4, 268080, Note_on_c, 0, 63, 0
4, 268080, Note_on_c, 0, 61, 49
4, 268320, Note_on_c, 0, 61, 0
4, 268320, Note_on_c, 0, 60, 49
4, 268560, Note_on_c, 0, 60, 0
4, 268560, Note_on_c, 0, 58, 49
4, 268800, Note_on_c, 0, 58, 0
4, 268800, Note_on_c, 0, 57, 49
4, 269040, Note_on_c, 0, 57, 0
4, 269040, Note_on_c, 0, 53, 49
4, 269280, Note_on_c, 0, 53, 0
4, 269280, Note_on_c, 0, 58, 49
4, 269520, Note_on_c, 0, 58, 0
4, 269520, Note_on_c, 0, 55, 49
4, 269760, Note_on_c, 0, 55, 0
4, 269760, Note_on_c, 0, 57, 49
4, 270000, Note_on_c, 0, 57, 0
4, 270000, Note_on_c, 0, 53, 49
4, 270240, Note_on_c, 0, 53, 0
4, 270240, Note_on_c, 0, 55, 49
4, 270480, Note_on_c, 0, 55, 0
4, 270480, Note_on_c, 0, 57, 49
4, 270720, Note_on_c, 0, 57, 0
4, 270720, Note_on_c, 0, 60, 49
4, 270960, Note_on_c, 0, 60, 0
4, 270960, Note_on_c, 0, 58, 49
4, 271200, Note_on_c, 0, 58, 0
4, 271200, Note_on_c, 0, 65, 49
4, 271247, Note_on_c, 0, 65, 0
4, 271440, Note_on_c, 0, 65, 49
4, 271487, Note_on_c, 0, 65, 0
4, 271680, Control_c, 0, 64, 127
4, 271680, Note_on_c, 0, 65, 75
4, 271920, Note_on_c, 0, 65, 0
4, 271920, Note_on_c, 0, 63, 49
4, 272160, Note_on_c, 0, 63, 0
4, 272160, Note_on_c, 0, 61, 49
4, 272400, Note_on_c, 0, 61, 0
4, 272400, Control_c, 0, 64, 0
4, 272400, Note_on_c, 0, 60, 49
4, 272640, Note_on_c, 0, 60, 0
4, 272640, Note_on_c, 0, 58, 49
4, 272880, Note_on_c, 0, 58, 0
4, 272880, Note_on_c, 0, 56, 49
4, 273120, Note_on_c, 0, 56, 0
4, 273120, Note_on_c, 0, 63, 49
4, 273167, Note_on_c, 0, 63, 0
4, 273360, Note_on_c, 0, 63, 49
4, 273407, Note_on_c, 0, 63, 0
4, 273600, Control_c, 0, 64, 127
4, 273600, Note_on_c, 0, 63, 75
4, 273840, Note_on_c, 0, 63, 0
4, 273840, Note_on_c, 0, 61, 49
4, 274080, Note_on_c, 0, 61, 0
4, 274080, Note_on_c, 0, 60, 49
4, 274320, Note_on_c, 0, 60, 0
4, 274320, Control_c, 0, 64, 0
4, 274320, Note_on_c, 0, 58, 49
4, 274560, Note_on_c, 0, 58, 0
4, 274560, Note_on_c, 0, 56, 49
4, 274800, Note_on_c, 0, 56, 0
4, 274800, Note_on_c, 0, 54, 49
4, 275040, Note_on_c, 0, 54, 0
4, 275040, Note_on_c, 0, 61, 49
4, 275087, Note_on_c, 0, 61, 0
4, 275280, Note_on_c, 0, 61, 49
4, 275327, Note_on_c, 0, 61, 0
4, 275520, Control_c, 0, 64, 127
4, 275520, Note_on_c, 0, 61, 49
4, 275760, Note_on_c, 0, 61, 0
4, 275760, Note_on_c, 0, 60, 49
4, 276000, Note_on_c, 0, 60, 0
4, 276000, Note_on_c, 0, 61, 49
4, 276240, Note_on_c, 0, 61, 0
4, 276240, Control_c, 0, 64, 0
4, 276240, Note_on_c, 0, 63, 49
4, 276480, Note_on_c, 0, 63, 0
4, 276480, Control_c, 0, 64, 127
4, 276480, Note_on_c, 0, 65, 49
4, 276720, Note_on_c, 0, 65, 0
4, 276720, Note_on_c, 0, 63, 49
4, 276960, Note_on_c, 0, 63, 0
4, 276960, Note_on_c, 0, 61, 49
4, 277200, Note_on_c, 0, 61, 0
4, 277200, Note_on_c, 0, 60, 49
4, 277440, Note_on_c, 0, 60, 0
4, 277440, Control_c, 0, 64, 0
4, 277440, Note_on_c, 0, 58, 49
4, 277680, Note_on_c, 0, 58, 0
4, 277680, Note_on_c, 0, 61, 49
4, 277920, Note_on_c, 0, 61, 0
4, 277920, Note_on_c, 0, 60, 49
4, 278160, Note_on_c, 0, 60, 0
4, 278160, Note_on_c, 0, 58, 49
4, 278400, Note_on_c, 0, 58, 0
4, 278400, Note_on_c, 0, 57, 49
4, 278640, Note_on_c, 0, 57, 0
4, 278640, Note_on_c, 0, 58, 49
4, 278880, Note_on_c, 0, 58, 0
4, 278880, Note_on_c, 0, 65, 49
4, 278927, Note_on_c, 0, 65, 0
4, 279120, Note_on_c, 0, 65, 49
4, 279167, Note_on_c, 0, 65, 0
4, 279360, Note_on_c, 0, 58, 49
4, 279360, Note_on_c, 0, 61, 49
4, 279360, Note_on_c, 0, 66, 49
4, 280320, Note_on_c, 0, 52, 75
4, 281280, Note_on_c, 0, 52, 0
4, 281280, Note_on_c, 0, 58, 0
4, 281280, Note_on_c, 0, 61, 0
4, 281280, Note_on_c, 0, 66, 0
4, 281280, Note_on_c, 0, 53, 49
4, 281520, Note_on_c, 0, 53, 0
4, 281520, Note_on_c, 0, 61, 49
4, 281760, Note_on_c, 0, 61, 0
4, 281760, Note_on_c, 0, 60, 49
4, 282000, Note_on_c, 0, 60, 0
4, 282000, Note_on_c, 0, 58, 49
4, 282240, Note_on_c, 0, 58, 0
4, 282240, Note_on_c, 0, 57, 49
4, 282480, Note_on_c, 0, 57, 0
4, 282480, Note_on_c, 0, 58, 49
4, 282720, Note_on_c, 0, 58, 0
4, 282720, Note_on_c, 0, 65, 49
4, 282767, Note_on_c, 0, 65, 0
4, 282960, Note_on_c, 0, 65, 49
4, 283007, Note_on_c, 0, 65, 0
4, 283200, Note_on_c, 0, 58, 49
4, 283200, Note_on_c, 0, 61, 49
4, 283200, Note_on_c, 0, 66, 49
4, 284160, Note_on_c, 0, 52, 75
4, 285120, Note_on_c, 0, 52, 0
4, 285120, Note_on_c, 0, 58, 0
4, 285120, Note_on_c, 0, 61, 0
4, 285120, Note_on_c, 0, 66, 0
4, 285120, Note_on_c, 0, 53, 49
4, 285360, Note_on_c, 0, 53, 0
4, 287040, Note_on_c, 0, 46, 49
4, 287040, Note_on_c, 0, 53, 49
4, 287040, Note_on_c, 0, 61, 49
4, 287280, Note_on_c, 0, 61, 0
4, 287280, Note_on_c, 0, 53, 0
4, 287280, Note_on_c, 0, 46, 0
4, 288960, Note_on_c, 0, 34, 49
4, 288960, Note_on_c, 0, 41, 49
4, 288960, Note_on_c, 0, 49, 49
4, 289007, Note_on_c, 0, 49, 0
4, 289007, Note_on_c, 0, 41, 0
4, 289007, Note_on_c, 0, 34, 0
4, 289920, Note_on_c, 0, 34, 49
4, 289920, Note_on_c, 0, 41, 49
4, 289920, Note_on_c, 0, 49, 49
4, 289967, Note_on_c, 0, 49, 0
4, 289967, Note_on_c, 0, 41, 0
4, 289967, Note_on_c, 0, 34, 0
4, 290880, Note_on_c, 0, 34, 49
4, 290880, Note_on_c, 0, 41, 49
4, 290880, Note_on_c, 0, 49, 49
4, 290927, Note_on_c, 0, 49, 0
4, 290927, Note_on_c, 0, 41, 0
4, 290927, Note_on_c, 0, 34, 0
4, 290927, End_track
5, 0, Start_track
5, 0, Title_t, "Grand Piano"
5, 0, Program_c, 0, 0
5, 0, Control_c, 0, 7, 115
5, 0, Control_c, 0, 10, 48
5, 21120, Note_on_c, 0, 48, 62
5, 21600, Note_on_c, 0, 48, 0
5, 21600, Note_on_c, 0, 41, 62
5, 22080, Note_on_c, 0, 41, 0
5, 22080, Note_on_c, 0, 46, 62
5, 22080, Note_on_c, 0, 53, 62
5, 22560, Note_on_c, 0, 53, 0
5, 22560, Note_on_c, 0, 46, 0
5, 22560, Note_on_c, 0, 51, 49
5, 23040, Note_on_c, 0, 51, 0
5, 23040, Note_on_c, 0, 53, 49
5, 23280, Note_on_c, 0, 53, 0
5, 25920, Note_on_c, 0, 53, 49
5, 26400, Note_on_c, 0, 53, 0
5, 26400, Note_on_c, 0, 46, 49
5, 26880, Note_on_c, 0, 46, 0
5, 26880, Note_on_c, 0, 53, 49
5, 27120, Note_on_c, 0, 53, 0
5, 28800, Note_on_c, 0, 48, 62
5, 29280, Note_on_c, 0, 48, 0
5, 29280, Note_on_c, 0, 41, 62
5, 29760, Note_on_c, 0, 41, 0
5, 29760, Note_on_c, 0, 46, 62
5, 29760, Note_on_c, 0, 53, 62
5, 30240, Note_on_c, 0, 53, 0
5, 30240, Note_on_c, 0, 46, 0
5, 30240, Note_on_c, 0, 51, 49
5, 30720, Note_on_c, 0, 51, 0
5, 30720, Note_on_c, 0, 53, 49
5, 30960, Note_on_c, 0, 53, 0
5, 31680, Note_on_c, 0, 49, 49
5, 31680, Note_on_c, 0, 53, 49
5, 32640, Note_on_c, 0, 53, 0
5, 32640, Note_on_c, 0, 49, 0
5, 32640, Note_on_c, 0, 51, 49
5, 32640, Note_on_c, 0, 58, 49
5, 32640, Note_on_c, 0, 66, 49
5, 33600, Note_on_c, 0, 66, 0
5, 33600, Note_on_c, 0, 58, 0
5, 33600, Note_on_c, 0, 51, 0
5, 33600, Note_on_c, 0, 48, 49
5, 34560, Note_on_c, 0, 48, 0
5, 34560, Note_on_c, 0, 49, 62
5, 34560, Note_on_c, 0, 56, 62
5, 35520, Note_on_c, 0, 56, 0
5, 35520, Note_on_c, 0, 49, 0
5, 35520, Note_on_c, 0, 46, 49
5, 36480, Note_on_c, 0, 46, 0
5, 36480, Note_on_c, 0, 51, 62
5, 36960, Note_on_c, 0, 51, 0
5, 36960, Note_on_c, 0, 54, 62
5, 37440, Note_on_c, 0, 54, 0
5, 37440, Note_on_c, 0, 53, 62
5, 38400, Note_on_c, 0, 53, 0
5, 40320, Note_on_c, 0, 44, 75
5, 40800, Note_on_c, 0, 44, 0
5, 44160, Note_on_c, 0, 44, 75
5, 44640, Note_on_c, 0, 44, 0
5, 45120, Note_on_c, 0, 39, 75
5, 45600, Note_on_c, 0, 39, 0
5, 48000, Note_on_c, 0, 44, 75
5, 48480, Note_on_c, 0, 44, 0
5, 51840, Note_on_c, 0, 44, 75
5, 52320, Note_on_c, 0, 44, 0
5, 55680, Note_on_c, 0, 49, 75
5, 55680, Note_on_c, 0, 54, 75
5, 56160, Note_on_c, 0, 54, 0
5, 56160, Note_on_c, 0, 49, 0
5, 57600, Note_on_c, 0, 48, 88
5, 57600, Note_on_c, 0, 53, 88
5, 57600, Note_on_c, 0, 57, 88
5, 58080, Note_on_c, 0, 57, 0
5, 58080, Note_on_c, 0, 53, 0
5, 58080, Note_on_c, 0, 48, 0
5, 73920, Note_on_c, 0, 46, 62
5, 74160, Note_on_c, 0, 46, 0
5, 74880, Note_on_c, 0, 46, 62
5, 75120, Note_on_c, 0, 46, 0
5, 75840, Note_on_c, 0, 46, 62
5, 76080, Note_on_c, 0, 46, 0
5, 76320, Note_on_c, 0, 51, 62
5, 76560, Note_on_c, 0, 51, 0
5, 81600, Note_on_c, 0, 46, 62
5, 81840, Note_on_c, 0, 46, 0
5, 82560, Note_on_c, 0, 46, 62
5, 82800, Note_on_c, 0, 46, 0
5, 83520, Note_on_c, 0, 46, 62
5, 83760, Note_on_c, 0, 46, 0
5, 84000, Note_on_c, 0, 51, 62
5, 84240, Note_on_c, 0, 51, 0
5, 84480, Note_on_c, 0, 53, 62
5, 84720, Note_on_c, 0, 53, 0
5, 84720, Note_on_c, 0, 51, 62
5, 84960, Note_on_c, 0, 51, 0
5, 84960, Note_on_c, 0, 49, 62
5, 85200, Note_on_c, 0, 49, 0
5, 85200, Note_on_c, 0, 48, 62
5, 85440, Note_on_c, 0, 48, 0
5, 85440, Note_on_c, 0, 46, 62
5, 85920, Note_on_c, 0, 46, 0
5, 85920, Note_on_c, 0, 49, 62
5, 86400, Note_on_c, 0, 49, 0
5, 86400, Note_on_c, 0, 51, 62
5, 86400, Note_on_c, 0, 58, 62
5, 86880, Note_on_c, 0, 58, 0
5, 86880, Note_on_c, 0, 51, 0
5, 87360, Note_on_c, 0, 44, 62
5, 87360, Note_on_c, 0, 51, 62
5, 87840, Note_on_c, 0, 51, 0
5, 87840, Note_on_c, 0, 44, 0
5, 87840, Note_on_c, 0, 48, 62
5, 88320, Note_on_c, 0, 48, 0
5, 88320, Note_on_c, 0, 49, 62
5, 88320, Note_on_c, 0, 56, 62
5, 88800, Note_on_c, 0, 56, 0
5, 88800, Note_on_c, 0, 49, 0
5, 89280, Note_on_c, 0, 42, 62
5, 89280, Note_on_c, 0, 49, 62
5, 89760, Note_on_c, 0, 49, 0
5, 89760, Note_on_c, 0, 42, 0
5, 89760, Note_on_c, 0, 46, 62
5, 90240, Note_on_c, 0, 46, 0
5, 90240, Note_on_c, 0, 51, 62
5, 90240, Note_on_c, 0, 54, 62
5, 90720, Note_on_c, 0, 54, 0
5, 90720, Note_on_c, 0, 51, 0
5, 90960, Note_on_c, 0, 54, 62
5, 90960, Note_on_c, 0, 58, 62
5, 91200, Note_on_c, 0, 58, 0
5, 91200, Note_on_c, 0, 54, 0
5, 91200, Note_on_c, 0, 53, 62
5, 91200, Note_on_c, 0, 57, 62
5, 91440, Note_on_c, 0, 57, 0
5, 91440, Note_on_c, 0, 53, 0
5, 94080, Note_on_c, 0, 44, 75
5, 94560, Note_on_c, 0, 44, 0
5, 97920, Note_on_c, 0, 44, 75
5, 98400, Note_on_c, 0, 44, 0
5, 98880, Note_on_c, 0, 39, 75
5, 99360, Note_on_c, 0, 39, 0
5, 101760, Note_on_c, 0, 44, 75
5, 102240, Note_on_c, 0, 44, 0
5, 105600, Note_on_c, 0, 44, 75
5, 106080, Note_on_c, 0, 44, 0
5, 107520, Note_on_c, 0, 42, 75
5, 107520, Note_on_c, 0, 51, 75
5, 108000, Note_on_c, 0, 51, 0
5, 108000, Note_on_c, 0, 42, 0
5, 109440, Note_on_c, 0, 50, 75
5, 109920, Note_on_c, 0, 50, 0
5, 112320, Note_on_c, 0, 72, 75
5, 114240, Note_on_c, 0, 72, 0
5, 114240, Note_on_c, 0, 60, 75
5, 116160, Note_on_c, 0, 60, 0
5, 116160, Note_on_c, 0, 48, 75
5, 117120, Note_on_c, 0, 55, 75
5, 118080, Note_on_c, 0, 55, 0
5, 118080, Note_on_c, 0, 48, 0
5, 120000, Note_on_c, 0, 41, 62
5, 120000, Note_on_c, 0, 48, 62
5, 120960, Note_on_c, 0, 48, 0
5, 120960, Note_on_c, 0, 41, 0
5, 120960, Note_on_c, 0, 43, 62
5, 121920, Note_on_c, 0, 43, 0
5, 121920, Note_on_c, 0, 41, 62
5, 121920, Note_on_c, 0, 48, 62
5, 122880, Note_on_c, 0, 48, 0
5, 122880, Note_on_c, 0, 41, 0
5, 122880, Note_on_c, 0, 40, 62
5, 123840, Note_on_c, 0, 40, 0
5, 123840, Note_on_c, 0, 38, 62
5, 124320, Note_on_c, 0, 38, 0
5, 124320, Note_on_c, 0, 41, 62
5, 124800, Note_on_c, 0, 41, 0
5, 124800, Note_on_c, 0, 45, 62
5, 124800, Note_on_c, 0, 52, 62
5, 125760, Note_on_c, 0, 52, 0
5, 125760, Note_on_c, 0, 45, 0
5, 125760, Note_on_c, 0, 50, 62
5, 126240, Note_on_c, 0, 50, 0
5, 126240, Note_on_c, 0, 43, 62
5, 126720, Note_on_c, 0, 43, 0
5, 126720, Note_on_c, 0, 36, 62
5, 126720, Note_on_c, 0, 43, 62
5, 127680, Note_on_c, 0, 43, 0
5, 127680, Note_on_c, 0, 36, 0
5, 127680, Note_on_c, 0, 41, 75
5, 127680, Note_on_c, 0, 45, 75
5, 128640, Note_on_c, 0, 45, 0
5, 128640, Note_on_c, 0, 41, 0
5, 128640, Note_on_c, 0, 40, 75
5, 128640, Note_on_c, 0, 43, 75
5, 129600, Note_on_c, 0, 43, 0
5, 129600, Note_on_c, 0, 40, 0
5, 129600, Note_on_c, 0, 41, 75
5, 129600, Note_on_c, 0, 45, 75
5, 130560, Note_on_c, 0, 45, 0
5, 130560, Note_on_c, 0, 41, 0
5, 130560, Note_on_c, 0, 46, 75
5, 130560, Note_on_c, 0, 52, 75
5, 131520, Note_on_c, 0, 52, 0
5, 131520, Note_on_c, 0, 46, 0
5, 131520, Note_on_c, 0, 57, 75
5, 131520, Note_on_c, 0, 60, 75
5, 132000, Note_on_c, 0, 60, 0
5, 132000, Note_on_c, 0, 57, 0
5, 132000, Note_on_c, 0, 60, 75
5, 132480, Note_on_c, 0, 60, 0
5, 132480, Note_on_c, 0, 52, 75
5, 132480, Note_on_c, 0, 55, 75
5, 133440, Note_on_c, 0, 55, 0
5, 133440, Note_on_c, 0, 52, 0
5, 133440, Note_on_c, 0, 57, 75
5, 133920, Note_on_c, 0, 57, 0
5, 133920, Note_on_c, 0, 50, 75
5, 133920, Note_on_c, 0, 57, 75
5, 134400, Note_on_c, 0, 57, 0
5, 134400, Note_on_c, 0, 50, 0
5, 134400, Note_on_c, 0, 43, 75
5, 134400, Note_on_c, 0, 50, 75
5, 134880, Note_on_c, 0, 50, 0
5, 134880, Note_on_c, 0, 43, 0
5, 134880, Note_on_c, 0, 48, 75
5, 134880, Note_on_c, 0, 52, 75
5, 134880, Note_on_c, 0, 55, 75
5, 135360, Note_on_c, 0, 55, 0
5, 135360, Note_on_c, 0, 52, 0
5, 135360, Note_on_c, 0, 48, 0
5, 135360, Note_on_c, 0, 32, 101
5, 135360, Note_on_c, 0, 44, 101
5, 136320, Note_on_c, 0, 44, 0
5, 136320, Note_on_c, 0, 32, 0
5, 136320, Note_on_c, 0, 43, 101
5, 137280, Note_on_c, 0, 43, 0
5, 137280, Note_on_c, 0, 41, 101
5, 137760, Note_on_c, 0, 41, 0
5, 137760, Note_on_c, 0, 46, 101
5, 138240, Note_on_c, 0, 46, 0
5, 138240, Note_on_c, 0, 39, 101
5, 139200, Note_on_c, 0, 39, 0
5, 139200, Note_on_c, 0, 44, 101
5, 139680, Note_on_c, 0, 44, 0
5, 139680, Note_on_c, 0, 53, 101
5, 139680, Note_on_c, 0, 56, 101
5, 140160, Note_on_c, 0, 56, 0
5, 140160, Note_on_c, 0, 53, 0
5, 140160, Note_on_c, 0, 48, 101
5, 141120, Note_on_c, 0, 48, 0
5, 141120, Note_on_c, 0, 47, 101
5, 141600, Note_on_c, 0, 47, 0
5, 141600, Note_on_c, 0, 46, 101
5, 141600, Note_on_c, 0, 56, 101
5, 142080, Note_on_c, 0, 56, 0
5, 142080, Note_on_c, 0, 46, 0
5, 142080, Note_on_c, 0, 51, 101
5, 142080, Note_on_c, 0, 55, 101
5, 143040, Note_on_c, 0, 55, 0
5, 143040, Note_on_c, 0, 51, 0
5, 143040, Note_on_c, 0, 51, 101
5, 143940, Note_on_c, 0, 51, 101
5, 144000, Note_on_c, 0, 51, 0
5, 144000, Note_on_c, 0, 56, 101
5, 144960, Note_on_c, 0, 56, 0
5, 144960, Note_on_c, 0, 51, 0
5, 144960, Note_on_c, 0, 51, 101
5, 144960, Note_on_c, 0, 57, 101
5, 145920, Note_on_c, 0, 57, 0
5, 145920, Note_on_c, 0, 51, 0
5, 145920, Note_on_c, 0, 51, 101
5, 146820, Note_on_c, 0, 51, 101
5, 146880, Note_on_c, 0, 51, 0
5, 146880, Note_on_c, 0, 67, 101
5, 147780, Note_on_c, 0, 51, 101
5, 147840, Note_on_c, 0, 67, 0
5, 147840, Note_on_c, 0, 51, 0
5, 147840, Note_on_c, 0, 69, 101
5, 148800, Note_on_c, 0, 69, 0
5, 148800, Note_on_c, 0, 51, 0
5, 148800, Note_on_c, 0, 51, 101
5, 149760, Note_on_c, 0, 51, 0
5, 149760, Note_on_c, 0, 51, 101
5, 150660, Note_on_c, 0, 51, 101
5, 150720, Note_on_c, 0, 51, 0
5, 150720, Note_on_c, 0, 57, 101
5, 151680, Note_on_c, 0, 57, 0
5, 151680, Note_on_c, 0, 51, 0
5, 151680, Note_on_c, 0, 51, 101
5, 152640, Note_on_c, 0, 51, 0
5, 152640, Note_on_c, 0, 51, 101
5, 152640, Note_on_c, 0, 59, 101
5, 153540, Note_on_c, 0, 51, 101
5, 153600, Note_on_c, 0, 59, 0
5, 153600, Note_on_c, 0, 51, 0
5, 153600, Note_on_c, 0, 60, 101
5, 154560, Note_on_c, 0, 60, 0
5, 154560, Note_on_c, 0, 51, 0
5, 154560, Note_on_c, 0, 51, 101
5, 154560, Note_on_c, 0, 69, 101
5, 155460, Note_on_c, 0, 51, 101
5, 155520, Note_on_c, 0, 69, 0
5, 155520, Note_on_c, 0, 51, 0
5, 155520, Note_on_c, 0, 71, 101
5, 156480, Note_on_c, 0, 71, 0
5, 156480, Note_on_c, 0, 51, 0
5, 156480, Note_on_c, 0, 50, 101
5, 157440, Note_on_c, 0, 50, 0
5, 157440, Note_on_c, 0, 49, 88
5, 157440, Note_on_c, 0, 53, 88
5, 157920, Note_on_c, 0, 53, 0
5, 157920, Note_on_c, 0, 49, 0
5, 157920, Note_on_c, 0, 48, 88
5, 158400, Note_on_c, 0, 48, 0
5, 159360, Note_on_c, 0, 40, 101
5, 160320, Note_on_c, 0, 40, 0
5, 160320, Note_on_c, 0, 41, 101
5, 160320, Note_on_c, 0, 48, 101
5, 161280, Note_on_c, 0, 48, 0
5, 161280, Note_on_c, 0, 41, 0
5, 161280, Note_on_c, 0, 43, 101
5, 161280, Note_on_c, 0, 52, 101
5, 162240, Note_on_c, 0, 52, 0
5, 162240, Note_on_c, 0, 43, 0
5, 162240, Note_on_c, 0, 41, 101
5, 162240, Note_on_c, 0, 48, 101
5, 163200, Note_on_c, 0, 48, 0
5, 163200, Note_on_c, 0, 41, 0
5, 163200, Note_on_c, 0, 40, 101
5, 163200, Note_on_c, 0, 45, 101
5, 164160, Note_on_c, 0, 45, 0
5, 164160, Note_on_c, 0, 40, 0
5, 165120, Note_on_c, 0, 48, 101
5, 165120, Note_on_c, 0, 53, 101
5, 165120, Note_on_c, 0, 59, 101
5, 165600, Note_on_c, 0, 59, 0
5, 165600, Note_on_c, 0, 53, 0
5, 165600, Note_on_c, 0, 48, 0
5, 165600, Note_on_c, 0, 48, 101
5, 165600, Note_on_c, 0, 52, 101
5, 165600, Note_on_c, 0, 59, 101
5, 166080, Note_on_c, 0, 59, 0
5, 166080, Note_on_c, 0, 52, 0
5, 166080, Note_on_c, 0, 48, 0
5, 171780, Note_on_c, 0, 49, 101
5, 172800, Note_on_c, 0, 49, 0
5, 172800, Note_on_c, 0, 49, 101
5, 173760, Note_on_c, 0, 49, 0
5, 175620, Note_on_c, 0, 37, 49
5, 176640, Note_on_c, 0, 37, 0
5, 176640, Note_on_c, 0, 49, 49
5, 177600, Note_on_c, 0, 49, 0
5, 178560, Note_on_c, 0, 49, 49
5, 178560, Note_on_c, 0, 51, 49
5, 178560, Note_on_c, 0, 54, 49
5, 179520, Note_on_c, 0, 54, 0
5, 179520, Note_on_c, 0, 51, 0
5, 179520, Note_on_c, 0, 49, 0
5, 179520, Note_on_c, 0, 49, 49
5, 179520, Note_on_c, 0, 53, 49
5, 180480, Note_on_c, 0, 53, 0
5, 180480, Note_on_c, 0, 49, 0
5, 187200, Note_on_c, 0, 49, 49
5, 189120, Note_on_c, 0, 49, 0
5, 189120, Note_on_c, 0, 48, 49
5, 190080, Note_on_c, 0, 48, 0
5, 190560, Note_on_c, 0, 46, 49
5, 190560, Note_on_c, 0, 53, 49
5, 190560, Note_on_c, 0, 61, 49
5, 190800, Note_on_c, 0, 61, 0
5, 190800, Note_on_c, 0, 53, 0
5, 190800, Note_on_c, 0, 46, 0
5, 191520, Note_on_c, 0, 49, 49
5, 191520, Note_on_c, 0, 58, 49
5, 191760, Note_on_c, 0, 58, 0
5, 191760, Note_on_c, 0, 49, 0
5, 192000, Control_c, 0, 64, 127
5, 192000, Note_on_c, 0, 66, 49
5, 192060, Note_on_c, 0, 66, 0
5, 192060, Note_on_c, 0, 65, 49
5, 192120, Note_on_c, 0, 65, 0
5, 192120, Note_on_c, 0, 63, 49
5, 192180, Note_on_c, 0, 63, 0
5, 192180, Note_on_c, 0, 61, 49
5, 192240, Note_on_c, 0, 61, 0
5, 192240, Control_c, 0, 64, 0
5, 192240, Note_on_c, 0, 60, 49
5, 192287, Note_on_c, 0, 60, 0
5, 192480, Note_on_c, 0, 53, 49
5, 192480, Note_on_c, 0, 57, 49
5, 192480, Note_on_c, 0, 63, 49
5, 192720, Note_on_c, 0, 63, 0
5, 192720, Note_on_c, 0, 57, 0
5, 192720, Note_on_c, 0, 53, 0
5, 193440, Note_on_c, 0, 51, 49
5, 193440, Note_on_c, 0, 58, 49
5, 193680, Note_on_c, 0, 58, 0
5, 193680, Note_on_c, 0, 51, 0
5, 193920, Control_c, 0, 64, 127
5, 193920, Note_on_c, 0, 53, 49
5, 193980, Note_on_c, 0, 53, 0
5, 193980, Note_on_c, 0, 54, 49
5, 194040, Note_on_c, 0, 54, 0
5, 194040, Note_on_c, 0, 55, 49
5, 194100, Note_on_c, 0, 55, 0
5, 194100, Note_on_c, 0, 56, 49
5, 194160, Note_on_c, 0, 56, 0
5, 194160, Control_c, 0, 64, 0
5, 194160, Note_on_c, 0, 57, 49
5, 194207, Note_on_c, 0, 57, 0
5, 194400, Note_on_c, 0, 41, 49
5, 194400, Note_on_c, 0, 48, 49
5, 194400, Note_on_c, 0, 57, 49
5, 194640, Note_on_c, 0, 57, 0
5, 194640, Note_on_c, 0, 48, 0
5, 194640, Note_on_c, 0, 41, 0
5, 194880, Control_c, 0, 64, 127
5, 194880, Note_on_c, 0, 65, 49
5, 194940, Note_on_c, 0, 65, 0
5, 194940, Note_on_c, 0, 63, 49
5, 195000, Note_on_c, 0, 63, 0
5, 195000, Note_on_c, 0, 61, 49
5, 195060, Note_on_c, 0, 61, 0
5, 195060, Note_on_c, 0, 60, 49
5, 195120, Note_on_c, 0, 60, 0
5, 195120, Control_c, 0, 64, 0
5, 195120, Note_on_c, 0, 58, 49
5, 195167, Note_on_c, 0, 58, 0
5, 195360, Note_on_c, 0, 46, 49
5, 195360, Note_on_c, 0, 53, 49
5, 195360, Note_on_c, 0, 61, 49
5, 195600, Note_on_c, 0, 61, 0
5, 195600, Note_on_c, 0, 53, 0
5, 195600, Note_on_c, 0, 46, 0
5, 196320, Note_on_c, 0, 51, 49
5, 196320, Note_on_c, 0, 58, 49
5, 196560, Note_on_c, 0, 58, 0
5, 196560, Note_on_c, 0, 51, 0
5, 196800, Control_c, 0, 64, 127
5, 196800, Note_on_c, 0, 53, 49
5, 196860, Note_on_c, 0, 53, 0
5, 196860, Note_on_c, 0, 54, 49
5, 196920, Note_on_c, 0, 54, 0
5, 196920, Note_on_c, 0, 55, 49
5, 196980, Note_on_c, 0, 55, 0
5, 196980, Note_on_c, 0, 56, 49
5, 197040, Note_on_c, 0, 56, 0
5, 197040, Control_c, 0, 64, 0
5, 197040, Note_on_c, 0, 57, 49
5, 197087, Note_on_c, 0, 57, 0
5, 197280, Note_on_c, 0, 46, 49
5, 197280, Note_on_c, 0, 53, 49
5, 197520, Note_on_c, 0, 53, 0
5, 197520, Note_on_c, 0, 46, 0
5, 197760, Control_c, 0, 64, 127
5, 197760, Note_on_c, 0, 53, 49
5, 197820, Note_on_c, 0, 53, 0
5, 197820, Note_on_c, 0, 54, 49
5, 197880, Note_on_c, 0, 54, 0
5, 197880, Note_on_c, 0, 55, 49
5, 197940, Note_on_c, 0, 55, 0
5, 197940, Note_on_c, 0, 56, 49
5, 198000, Note_on_c, 0, 56, 0
5, 198000, Control_c, 0, 64, 0
5, 198000, Note_on_c, 0, 57, 49
5, 198160, Note_on_c, 0, 46, 49
5, 198200, Note_on_c, 0, 53, 49
5, 198240, Note_on_c, 0, 57, 0
5, 198240, Note_on_c, 0, 61, 49
5, 198480, Note_on_c, 0, 61, 0
5, 198480, Note_on_c, 0, 53, 0
5, 198480, Note_on_c, 0, 46, 0
5, 199200, Note_on_c, 0, 49, 49
5, 199440, Note_on_c, 0, 49, 0
5, 199680, Control_c, 0, 64, 127
5, 199680, Note_on_c, 0, 66, 49
5, 199740, Note_on_c, 0, 66, 0
5, 199740, Note_on_c, 0, 65, 49
5, 199800, Note_on_c, 0, 65, 0
5, 199800, Note_on_c, 0, 63, 49
5, 199860, Note_on_c, 0, 63, 0
5, 199860, Note_on_c, 0, 61, 49
5, 199920, Note_on_c, 0, 61, 0
5, 199920, Control_c, 0, 64, 0
5, 199920, Note_on_c, 0, 60, 49
5, 199967, Note_on_c, 0, 60, 0
5, 200160, Control_c, 0, 64, 127
5, 200160, Note_on_c, 0, 53, 49
5, 200220, Note_on_c, 0, 53, 0
5, 200220, Note_on_c, 0, 54, 49
5, 200280, Note_on_c, 0, 54, 0
5, 200280, Note_on_c, 0, 55, 49
5, 200340, Note_on_c, 0, 55, 0
5, 200340, Note_on_c, 0, 56, 49
5, 200400, Note_on_c, 0, 56, 0
5, 200400, Control_c, 0, 64, 0
5, 200400, Note_on_c, 0, 57, 49
5, 200447, Note_on_c, 0, 57, 0
5, 200640, Control_c, 0, 64, 127
5, 200640, Note_on_c, 0, 60, 49
5, 200700, Note_on_c, 0, 60, 0
5, 200700, Note_on_c, 0, 61, 49
5, 200760, Note_on_c, 0, 61, 0
5, 200760, Note_on_c, 0, 63, 49
5, 200820, Note_on_c, 0, 63, 0
5, 200820, Note_on_c, 0, 65, 49
5, 200880, Note_on_c, 0, 65, 0
5, 200880, Control_c, 0, 64, 0
5, 200880, Note_on_c, 0, 66, 49
5, 200927, Note_on_c, 0, 66, 0
5, 201600, Control_c, 0, 64, 127
5, 201600, Note_on_c, 0, 53, 49
5, 201660, Note_on_c, 0, 53, 0
5, 201660, Note_on_c, 0, 54, 49
5, 201720, Note_on_c, 0, 54, 0
5, 201720, Note_on_c, 0, 55, 49
5, 201780, Note_on_c, 0, 55, 0
5, 201780, Note_on_c, 0, 56, 49
5, 201840, Note_on_c, 0, 56, 0
5, 201840, Control_c, 0, 64, 0
5, 201840, Note_on_c, 0, 57, 49
5, 201887, Note_on_c, 0, 57, 0
5, 202080, Note_on_c, 0, 51, 49
5, 202080, Note_on_c, 0, 57, 49
5, 202080, Note_on_c, 0, 60, 49
5, 202320, Note_on_c, 0, 60, 0
5, 202320, Note_on_c, 0, 57, 0
5, 202320, Note_on_c, 0, 51, 0
5, 203040, Note_on_c, 0, 58, 49
5, 203280, Note_on_c, 0, 58, 0
5, 204000, Note_on_c, 0, 51, 49
5, 204000, Note_on_c, 0, 58, 49
5, 204000, Note_on_c, 0, 66, 49
5, 204240, Note_on_c, 0, 66, 0
5, 204240, Note_on_c, 0, 58, 0
5, 204240, Note_on_c, 0, 51, 0
5, 204480, Control_c, 0, 64, 127
5, 204480, Note_on_c, 0, 54, 49
5, 204540, Note_on_c, 0, 54, 0
5, 204540, Note_on_c, 0, 53, 49
5, 204600, Note_on_c, 0, 53, 0
5, 204600, Note_on_c, 0, 51, 49
5, 204660, Note_on_c, 0, 51, 0
5, 204660, Note_on_c, 0, 49, 49
5, 204720, Note_on_c, 0, 49, 0
5, 204720, Control_c, 0, 64, 0
5, 204720, Note_on_c, 0, 48, 49
5, 205200, Note_on_c, 0, 48, 0
5, 205920, Note_on_c, 0, 49, 49
5, 205920, Note_on_c, 0, 56, 49
5, 205920, Note_on_c, 0, 65, 49
5, 206160, Note_on_c, 0, 65, 0
5, 206160, Note_on_c, 0, 56, 0
5, 206160, Note_on_c, 0, 49, 0
5, 206880, Note_on_c, 0, 46, 49
5, 207120, Note_on_c, 0, 46, 0
5, 207840, Note_on_c, 0, 51, 49
5, 208080, Note_on_c, 0, 51, 0
5, 211200, Note_on_c, 0, 44, 75
5, 211680, Note_on_c, 0, 44, 0
5, 215040, Note_on_c, 0, 44, 75
5, 215520, Note_on_c, 0, 44, 0
5, 216000, Note_on_c, 0, 39, 75
5, 216480, Note_on_c, 0, 39, 0
5, 218880, Note_on_c, 0, 44, 75
5, 219360, Note_on_c, 0, 44, 0
5, 237120, Note_on_c, 0, 61, 49
5, 238080, Note_on_c, 0, 61, 0
5, 238080, Note_on_c, 0, 59, 49
5, 238080, Note_on_c, 0, 61, 49
5, 239040, Note_on_c, 0, 61, 0
5, 239040, Note_on_c, 0, 59, 0
5, 239040, Note_on_c, 0, 58, 49
5, 239040, Note_on_c, 0, 61, 49
5, 240000, Note_on_c, 0, 61, 0
5, 240000, Note_on_c, 0, 58, 0
5, 240000, Note_on_c, 0, 56, 49
5, 240960, Note_on_c, 0, 56, 0
5, 240960, Note_on_c, 0, 54, 49
5, 241860, Note_on_c, 0, 47, 49
5, 241920, Note_on_c, 0, 54, 0
5, 241920, Note_on_c, 0, 54, 49
5, 242820, Note_on_c, 0, 46, 49
5, 242880, Note_on_c, 0, 54, 0
5, 242880, Note_on_c, 0, 47, 0
5, 242880, Note_on_c, 0, 51, 49
5, 243780, Note_on_c, 0, 44, 49
5, 243840, Note_on_c, 0, 51, 0
5, 243840, Note_on_c, 0, 46, 0
5, 243840, Note_on_c, 0, 51, 49
5, 245280, Note_on_c, 0, 51, 0
5, 245280, Note_on_c, 0, 44, 0
5, 247620, Note_on_c, 0, 40, 49
5, 247680, Note_on_c, 0, 47, 49
5, 248640, Note_on_c, 0, 47, 0
5, 248640, Note_on_c, 0, 40, 0
5, 251520, Note_on_c, 0, 37, 49
5, 252480, Note_on_c, 0, 37, 0
5, 255360, Note_on_c, 0, 36, 49
5, 256800, Note_on_c, 0, 36, 0
5, 266880, Note_on_c, 0, 46, 49
5, 266880, Note_on_c, 0, 49, 49
5, 266880, Note_on_c, 0, 53, 49
5, 266927, Note_on_c, 0, 53, 0
5, 266927, Note_on_c, 0, 49, 0
5, 266927, Note_on_c, 0, 46, 0
5, 267840, Note_on_c, 0, 51, 49
5, 267840, Note_on_c, 0, 58, 49
5, 267887, Note_on_c, 0, 58, 0
5, 267887, Note_on_c, 0, 51, 0
5, 268740, Note_on_c, 0, 41, 49
5, 268800, Note_on_c, 0, 48, 49
5, 269040, Note_on_c, 0, 48, 0
5, 269040, Note_on_c, 0, 41, 0
5, 269220, Note_on_c, 0, 48, 49
5, 269280, Note_on_c, 0, 52, 49
5, 269520, Note_on_c, 0, 52, 0
5, 269520, Note_on_c, 0, 48, 0
5, 269760, Note_on_c, 0, 53, 49
5, 270000, Note_on_c, 0, 53, 0
5, 270720, Note_on_c, 0, 49, 49
5, 270720, Note_on_c, 0, 53, 49
5, 271680, Note_on_c, 0, 53, 0
5, 271680, Note_on_c, 0, 49, 0
5, 271680, Note_on_c, 0, 51, 49
5, 271680, Note_on_c, 0, 58, 49
5, 272640, Note_on_c, 0, 58, 0
5, 272640, Note_on_c, 0, 51, 0
5, 272640, Note_on_c, 0, 48, 49
5, 272640, Note_on_c, 0, 51, 49
5, 273600, Note_on_c, 0, 51, 0
5, 273600, Note_on_c, 0, 48, 0
5, 273600, Note_on_c, 0, 49, 49
5, 273600, Note_on_c, 0, 56, 49
5, 274560, Note_on_c, 0, 56, 0
5, 274560, Note_on_c, 0, 49, 0
5, 274560, Note_on_c, 0, 46, 49
5, 274560, Note_on_c, 0, 49, 49
5, 275520, Note_on_c, 0, 49, 0
5, 275520, Note_on_c, 0, 46, 0
5, 275520, Note_on_c, 0, 51, 49
5, 275520, Note_on_c, 0, 54, 49
5, 276240, Note_on_c, 0, 54, 0
5, 276240, Note_on_c, 0, 51, 0
5, 276240, Note_on_c, 0, 48, 49
5, 276480, Note_on_c, 0, 48, 0
5, 276480, Note_on_c, 0, 51, 49
5, 277440, Note_on_c, 0, 51, 0
5, 277440, Note_on_c, 0, 46, 49
5, 277680, Note_on_c, 0, 46, 0
5, 280800, Note_on_c, 0, 34, 49
5, 280800, Note_on_c, 0, 46, 49
5, 281280, Note_on_c, 0, 46, 0
5, 281280, Note_on_c, 0, 34, 0
5, 284640, Note_on_c, 0, 34, 49
5, 284640, Note_on_c, 0, 46, 49
5, 285120, Note_on_c, 0, 46, 0
5, 285120, Note_on_c, 0, 34, 0
5, 285120, End_track
0, 0, End_of_file
