0, 0, Header, 1, 5, 480
1, 0, Start_track
1, 0, Title_t, "tchaikovsky symphony no5 mv1"
1, 0, Copyright_t, "Adaptation for Disklavier pianos, by: Robert C. Kuhmann (c) 2012."
1, 0, Text_t, "Seq. (c) by: Segundo G. Yogore,  2007\012"
1, 0, Time_signature, 4, 2, 24, 8
1, 0, Key_signature, 1, "major"
1, 0, Tempo, 750000
1, 36480, Time_signature, 5, 2, 24, 8
1, 38880, Time_signature, 4, 2, 24, 8
1, 69600, Time_signature, 6, 2, 24, 8
1, 72480, Time_signature, 6, 3, 12, 8
1, 72480, Tempo, 384615
1, 202080, Tempo, 476190
1, 206400, Tempo, 384615
1, 236640, Tempo, 350877
1, 262560, Tempo, 434783
1, 288480, Tempo, 350877
1, 297120, Tempo, 384615
1, 572160, Tempo, 476190
1, 576480, Tempo, 384615
1, 606720, Tempo, 350877
1, 632640, Tempo, 434783
1, 658560, Tempo, 350877
1, 667200, Tempo, 384615
1, 798240, Time_signature, 10, 2, 24, 8
1, 798240, End_track
2, 0, Start_track
2, 0, Title_t, "Grand Piano"
2, 0, Program_c, 0, 0
2, 0, Control_c, 0, 7, 115
2, 0, Control_c, 0, 10, 86
2, 0, Note_on_c, 0, 55, 62
2, 720, Note_on_c, 0, 55, 0
2, 720, Note_on_c, 0, 55, 62
2, 840, Note_on_c, 0, 55, 0
2, 840, Note_on_c, 0, 55, 62
2, 960, Note_on_c, 0, 55, 0
2, 960, Note_on_c, 0, 57, 62
2, 1680, Note_on_c, 0, 57, 0
2, 1680, Note_on_c, 0, 55, 62
2, 1703, Note_on_c, 0, 55, 0
2, 1800, Note_on_c, 0, 54, 62
2, 1823, Note_on_c, 0, 54, 0
2, 1920, Note_on_c, 0, 55, 62
2, 2400, Note_on_c, 0, 55, 0
2, 2400, Note_on_c, 0, 52, 62
2, 3840, Note_on_c, 0, 52, 0
2, 3840, Note_on_c, 0, 59, 75
2, 4560, Note_on_c, 0, 59, 0
2, 4560, Note_on_c, 0, 59, 75
2, 4680, Note_on_c, 0, 59, 0
2, 4680, Note_on_c, 0, 59, 75
2, 4800, Note_on_c, 0, 59, 0
2, 4800, Note_on_c, 0, 60, 75
2, 5520, Note_on_c, 0, 60, 0
2, 5520, Note_on_c, 0, 59, 75
2, 5543, Note_on_c, 0, 59, 0
2, 5640, Note_on_c, 0, 57, 75
2, 5663, Note_on_c, 0, 57, 0
2, 5760, Note_on_c, 0, 59, 75
2, 6240, Note_on_c, 0, 59, 0
2, 6240, Note_on_c, 0, 55, 75
2, 7200, Note_on_c, 0, 55, 0
2, 7200, Note_on_c, 0, 54, 101
2, 7200, Note_on_c, 0, 60, 101
2, 7200, Note_on_c, 0, 64, 101
2, 7680, Note_on_c, 0, 64, 0
2, 7680, Note_on_c, 0, 60, 0
2, 7680, Note_on_c, 0, 54, 0
2, 7680, Note_on_c, 0, 55, 101
2, 7680, Note_on_c, 0, 59, 101
2, 7680, Note_on_c, 0, 62, 101
2, 8160, Note_on_c, 0, 62, 0
2, 8160, Note_on_c, 0, 59, 0
2, 8160, Note_on_c, 0, 55, 0
2, 8160, Note_on_c, 0, 52, 101
2, 8160, Note_on_c, 0, 57, 101
2, 8160, Note_on_c, 0, 60, 101
2, 8640, Note_on_c, 0, 60, 0
2, 8640, Note_on_c, 0, 57, 0
2, 8640, Note_on_c, 0, 52, 0
2, 8640, Note_on_c, 0, 55, 88
2, 8640, Note_on_c, 0, 59, 88
2, 9120, Note_on_c, 0, 59, 0
2, 9120, Note_on_c, 0, 55, 0
2, 9120, Note_on_c, 0, 54, 88
2, 9120, Note_on_c, 0, 57, 88
2, 9600, Note_on_c, 0, 57, 0
2, 9600, Note_on_c, 0, 54, 0
2, 9600, Note_on_c, 0, 52, 62
2, 9600, Note_on_c, 0, 55, 62
2, 10560, Note_on_c, 0, 55, 0
2, 10560, Note_on_c, 0, 52, 0
2, 11040, Note_on_c, 0, 57, 101
2, 11040, Note_on_c, 0, 60, 101
2, 11040, Note_on_c, 0, 64, 101
2, 11520, Note_on_c, 0, 64, 0
2, 11520, Note_on_c, 0, 60, 0
2, 11520, Note_on_c, 0, 57, 0
2, 11520, Note_on_c, 0, 53, 101
2, 11520, Note_on_c, 0, 59, 101
2, 11520, Note_on_c, 0, 62, 101
2, 12000, Note_on_c, 0, 62, 0
2, 12000, Note_on_c, 0, 59, 0
2, 12000, Note_on_c, 0, 53, 0
2, 12000, Note_on_c, 0, 52, 101
2, 12000, Note_on_c, 0, 57, 101
2, 12000, Note_on_c, 0, 60, 101
2, 12480, Note_on_c, 0, 60, 0
2, 12480, Note_on_c, 0, 57, 0
2, 12480, Note_on_c, 0, 52, 0
2, 12480, Note_on_c, 0, 55, 88
2, 12480, Note_on_c, 0, 59, 88
2, 12960, Note_on_c, 0, 59, 0
2, 12960, Note_on_c, 0, 55, 0
2, 12960, Note_on_c, 0, 54, 88
2, 12960, Note_on_c, 0, 57, 88
2, 13440, Note_on_c, 0, 57, 0
2, 13440, Note_on_c, 0, 54, 0
2, 13440, Note_on_c, 0, 55, 62
2, 14640, Note_on_c, 0, 55, 0
2, 15360, Note_on_c, 0, 57, 62
2, 16560, Note_on_c, 0, 57, 0
2, 17280, Note_on_c, 0, 54, 62
2, 17280, Note_on_c, 0, 59, 62
2, 18480, Note_on_c, 0, 59, 0
2, 18480, Note_on_c, 0, 54, 0
2, 19200, Note_on_c, 0, 60, 62
2, 19920, Note_on_c, 0, 60, 0
2, 19920, Note_on_c, 0, 60, 62
2, 20040, Note_on_c, 0, 60, 0
2, 20040, Note_on_c, 0, 60, 62
2, 20160, Note_on_c, 0, 60, 0
2, 20160, Note_on_c, 0, 60, 62
2, 20880, Note_on_c, 0, 60, 0
2, 20880, Note_on_c, 0, 60, 62
2, 21000, Note_on_c, 0, 60, 0
2, 21000, Note_on_c, 0, 60, 62
2, 21120, Note_on_c, 0, 60, 0
2, 21120, Note_on_c, 0, 60, 88
2, 21600, Note_on_c, 0, 60, 0
2, 21600, Note_on_c, 0, 59, 62
2, 23040, Note_on_c, 0, 59, 0
2, 23040, Note_on_c, 0, 60, 75
2, 23760, Note_on_c, 0, 60, 0
2, 23760, Note_on_c, 0, 60, 75
2, 23880, Note_on_c, 0, 60, 0
2, 23880, Note_on_c, 0, 60, 75
2, 24000, Note_on_c, 0, 60, 0
2, 24000, Note_on_c, 0, 60, 75
2, 24720, Note_on_c, 0, 60, 0
2, 24720, Note_on_c, 0, 60, 75
2, 24840, Note_on_c, 0, 60, 0
2, 24840, Note_on_c, 0, 60, 75
2, 24960, Note_on_c, 0, 60, 0
2, 24960, Note_on_c, 0, 60, 101
2, 25440, Note_on_c, 0, 60, 0
2, 25440, Note_on_c, 0, 59, 75
2, 26400, Note_on_c, 0, 59, 0
2, 26400, Note_on_c, 0, 54, 114
2, 26400, Note_on_c, 0, 60, 114
2, 26400, Note_on_c, 0, 64, 114
2, 26880, Note_on_c, 0, 64, 0
2, 26880, Note_on_c, 0, 60, 0
2, 26880, Note_on_c, 0, 54, 0
2, 26880, Note_on_c, 0, 55, 114
2, 26880, Note_on_c, 0, 59, 114
2, 26880, Note_on_c, 0, 62, 114
2, 27360, Note_on_c, 0, 62, 0
2, 27360, Note_on_c, 0, 59, 0
2, 27360, Note_on_c, 0, 55, 0
2, 27360, Note_on_c, 0, 52, 114
2, 27360, Note_on_c, 0, 57, 114
2, 27360, Note_on_c, 0, 60, 114
2, 27840, Note_on_c, 0, 60, 0
2, 27840, Note_on_c, 0, 57, 0
2, 27840, Note_on_c, 0, 52, 0
2, 27840, Note_on_c, 0, 55, 101
2, 27840, Note_on_c, 0, 59, 101
2, 28320, Note_on_c, 0, 59, 0
2, 28320, Note_on_c, 0, 55, 0
2, 28320, Note_on_c, 0, 54, 101
2, 28320, Note_on_c, 0, 57, 101
2, 28800, Note_on_c, 0, 57, 0
2, 28800, Note_on_c, 0, 54, 0
2, 28800, Note_on_c, 0, 52, 75
2, 28800, Note_on_c, 0, 55, 75
2, 29760, Note_on_c, 0, 55, 0
2, 29760, Note_on_c, 0, 52, 0
2, 30240, Note_on_c, 0, 57, 114
2, 30240, Note_on_c, 0, 60, 114
2, 30240, Note_on_c, 0, 64, 114
2, 30720, Note_on_c, 0, 64, 0
2, 30720, Note_on_c, 0, 60, 0
2, 30720, Note_on_c, 0, 57, 0
2, 30720, Note_on_c, 0, 53, 114
2, 30720, Note_on_c, 0, 59, 114
2, 30720, Note_on_c, 0, 62, 114
2, 31200, Note_on_c, 0, 62, 0
2, 31200, Note_on_c, 0, 59, 0
2, 31200, Note_on_c, 0, 53, 0
2, 31200, Note_on_c, 0, 52, 114
2, 31200, Note_on_c, 0, 57, 114
2, 31200, Note_on_c, 0, 60, 114
2, 31680, Note_on_c, 0, 60, 0
2, 31680, Note_on_c, 0, 57, 0
2, 31680, Note_on_c, 0, 52, 0
2, 31680, Note_on_c, 0, 55, 101
2, 31680, Note_on_c, 0, 59, 101
2, 32160, Note_on_c, 0, 59, 0
2, 32160, Note_on_c, 0, 55, 0
2, 32160, Note_on_c, 0, 54, 101
2, 32160, Note_on_c, 0, 57, 101
2, 32640, Note_on_c, 0, 57, 0
2, 32640, Note_on_c, 0, 54, 0
2, 32640, Note_on_c, 0, 55, 75
2, 34080, Note_on_c, 0, 55, 0
2, 34080, Note_on_c, 0, 54, 62
2, 34080, Note_on_c, 0, 60, 62
2, 34560, Note_on_c, 0, 60, 0
2, 34560, Note_on_c, 0, 54, 0
2, 34560, Note_on_c, 0, 59, 62
2, 36240, Note_on_c, 0, 59, 0
2, 36240, Note_on_c, 0, 57, 62
2, 36360, Note_on_c, 0, 57, 0
2, 36360, Note_on_c, 0, 55, 62
2, 36480, Note_on_c, 0, 55, 0
2, 36480, Note_on_c, 0, 54, 62
2, 37680, Note_on_c, 0, 54, 0
2, 38880, Note_on_c, 0, 55, 49
2, 39600, Note_on_c, 0, 55, 0
2, 39600, Note_on_c, 0, 55, 49
2, 39720, Note_on_c, 0, 55, 0
2, 39720, Note_on_c, 0, 55, 49
2, 39840, Note_on_c, 0, 55, 0
2, 39840, Note_on_c, 0, 57, 49
2, 40560, Note_on_c, 0, 57, 0
2, 40560, Note_on_c, 0, 55, 49
2, 40583, Note_on_c, 0, 55, 0
2, 40680, Note_on_c, 0, 54, 49
2, 40703, Note_on_c, 0, 54, 0
2, 40800, Note_on_c, 0, 55, 49
2, 41280, Note_on_c, 0, 55, 0
2, 41280, Note_on_c, 0, 52, 49
2, 42720, Note_on_c, 0, 52, 0
2, 42720, Note_on_c, 0, 55, 75
2, 43440, Note_on_c, 0, 55, 0
2, 43440, Note_on_c, 0, 55, 75
2, 43560, Note_on_c, 0, 55, 0
2, 43560, Note_on_c, 0, 55, 75
2, 43680, Note_on_c, 0, 55, 0
2, 43680, Note_on_c, 0, 57, 88
2, 44400, Note_on_c, 0, 57, 0
2, 44400, Note_on_c, 0, 55, 88
2, 44423, Note_on_c, 0, 55, 0
2, 44520, Note_on_c, 0, 54, 88
2, 44543, Note_on_c, 0, 54, 0
2, 44640, Note_on_c, 0, 55, 88
2, 45120, Note_on_c, 0, 55, 0
2, 45120, Note_on_c, 0, 52, 88
2, 46560, Note_on_c, 0, 52, 0
2, 46560, Note_on_c, 0, 55, 75
2, 47280, Note_on_c, 0, 55, 0
2, 47280, Note_on_c, 0, 55, 75
2, 47400, Note_on_c, 0, 55, 0
2, 47400, Note_on_c, 0, 55, 75
2, 47520, Note_on_c, 0, 55, 0
2, 47520, Note_on_c, 0, 57, 62
2, 48240, Note_on_c, 0, 57, 0
2, 48240, Note_on_c, 0, 55, 62
2, 48263, Note_on_c, 0, 55, 0
2, 48360, Note_on_c, 0, 54, 62
2, 48383, Note_on_c, 0, 54, 0
2, 48480, Note_on_c, 0, 55, 62
2, 48960, Note_on_c, 0, 55, 0
2, 48960, Note_on_c, 0, 52, 75
2, 49920, Note_on_c, 0, 52, 0
2, 49920, Note_on_c, 0, 52, 101
2, 49920, Note_on_c, 0, 57, 101
2, 49920, Note_on_c, 0, 60, 101
2, 50400, Note_on_c, 0, 60, 0
2, 50400, Note_on_c, 0, 57, 0
2, 50400, Note_on_c, 0, 52, 0
2, 50400, Note_on_c, 0, 50, 101
2, 50400, Note_on_c, 0, 55, 101
2, 50400, Note_on_c, 0, 59, 101
2, 50880, Note_on_c, 0, 59, 0
2, 50880, Note_on_c, 0, 55, 0
2, 50880, Note_on_c, 0, 50, 0
2, 50880, Note_on_c, 0, 48, 101
2, 50880, Note_on_c, 0, 52, 101
2, 50880, Note_on_c, 0, 57, 101
2, 51360, Note_on_c, 0, 57, 0
2, 51360, Note_on_c, 0, 52, 0
2, 51360, Note_on_c, 0, 48, 0
2, 51360, Note_on_c, 0, 50, 88
2, 51360, Note_on_c, 0, 55, 88
2, 51840, Note_on_c, 0, 55, 0
2, 51840, Note_on_c, 0, 50, 0
2, 51840, Note_on_c, 0, 51, 88
2, 51840, Note_on_c, 0, 54, 88
2, 52320, Note_on_c, 0, 54, 0
2, 52320, Note_on_c, 0, 51, 0
2, 52320, Note_on_c, 0, 52, 101
2, 53760, Note_on_c, 0, 52, 0
2, 53760, Note_on_c, 0, 52, 101
2, 53760, Note_on_c, 0, 57, 101
2, 53760, Note_on_c, 0, 60, 101
2, 54240, Note_on_c, 0, 60, 0
2, 54240, Note_on_c, 0, 57, 0
2, 54240, Note_on_c, 0, 52, 0
2, 54240, Note_on_c, 0, 50, 101
2, 54240, Note_on_c, 0, 55, 101
2, 54240, Note_on_c, 0, 59, 101
2, 54720, Note_on_c, 0, 59, 0
2, 54720, Note_on_c, 0, 55, 0
2, 54720, Note_on_c, 0, 50, 0
2, 54720, Note_on_c, 0, 48, 101
2, 54720, Note_on_c, 0, 52, 101
2, 54720, Note_on_c, 0, 57, 101
2, 55200, Note_on_c, 0, 57, 0
2, 55200, Note_on_c, 0, 52, 0
2, 55200, Note_on_c, 0, 48, 0
2, 55200, Note_on_c, 0, 50, 88
2, 55200, Note_on_c, 0, 55, 88
2, 55680, Note_on_c, 0, 55, 0
2, 55680, Note_on_c, 0, 50, 0
2, 55680, Note_on_c, 0, 51, 88
2, 55680, Note_on_c, 0, 54, 88
2, 56160, Note_on_c, 0, 54, 0
2, 56160, Note_on_c, 0, 51, 0
2, 56160, Note_on_c, 0, 48, 101
2, 56160, Note_on_c, 0, 52, 101
2, 58080, Note_on_c, 0, 52, 0
2, 58080, Note_on_c, 0, 48, 0
2, 58080, Note_on_c, 0, 57, 62
2, 59760, Note_on_c, 0, 57, 0
2, 59760, Note_on_c, 0, 59, 75
2, 60000, Note_on_c, 0, 59, 0
2, 60000, Note_on_c, 0, 59, 75
2, 61920, Note_on_c, 0, 59, 0
2, 62880, Note_on_c, 0, 52, 62
2, 62880, Note_on_c, 0, 57, 62
2, 63840, Note_on_c, 0, 57, 0
2, 63840, Note_on_c, 0, 52, 0
2, 63840, Note_on_c, 0, 52, 75
2, 63840, Note_on_c, 0, 59, 75
2, 64800, Note_on_c, 0, 52, 0
2, 64800, Note_on_c, 0, 51, 62
2, 65520, Note_on_c, 0, 51, 0
2, 65520, Note_on_c, 0, 59, 0
2, 66720, Note_on_c, 0, 52, 49
2, 66720, Note_on_c, 0, 57, 49
2, 67680, Note_on_c, 0, 57, 0
2, 67680, Note_on_c, 0, 52, 0
2, 67680, Note_on_c, 0, 51, 49
2, 67680, Note_on_c, 0, 59, 49
2, 70080, Note_on_c, 0, 59, 0
2, 70080, Note_on_c, 0, 51, 0
2, 72480, Note_on_c, 0, 55, 49
2, 72480, Note_on_c, 0, 59, 49
2, 72720, Note_on_c, 0, 59, 0
2, 72720, Note_on_c, 0, 55, 0
2, 73200, Note_on_c, 0, 57, 49
2, 73200, Note_on_c, 0, 60, 49
2, 73440, Note_on_c, 0, 60, 0
2, 73440, Note_on_c, 0, 57, 0
2, 73920, Note_on_c, 0, 55, 49
2, 73920, Note_on_c, 0, 59, 49
2, 74160, Note_on_c, 0, 59, 0
2, 74160, Note_on_c, 0, 55, 0
2, 74640, Note_on_c, 0, 57, 49
2, 74640, Note_on_c, 0, 60, 49
2, 74880, Note_on_c, 0, 60, 0
2, 74880, Note_on_c, 0, 57, 0
2, 75360, Note_on_c, 0, 55, 49
2, 75360, Note_on_c, 0, 59, 49
2, 75600, Note_on_c, 0, 59, 0
2, 75600, Note_on_c, 0, 55, 0
2, 76080, Note_on_c, 0, 57, 49
2, 76080, Note_on_c, 0, 60, 49
2, 76320, Note_on_c, 0, 60, 0
2, 76320, Note_on_c, 0, 57, 0
2, 76800, Note_on_c, 0, 55, 49
2, 76800, Note_on_c, 0, 59, 49
2, 77040, Note_on_c, 0, 59, 0
2, 77040, Note_on_c, 0, 55, 0
2, 77520, Note_on_c, 0, 57, 49
2, 77520, Note_on_c, 0, 60, 49
2, 77760, Note_on_c, 0, 60, 0
2, 77760, Note_on_c, 0, 57, 0
2, 78000, Note_on_c, 0, 60, 49
2, 78240, Note_on_c, 0, 60, 0
2, 78240, Note_on_c, 0, 52, 49
2, 78240, Note_on_c, 0, 55, 49
2, 78240, Note_on_c, 0, 64, 49
2, 78480, Note_on_c, 0, 64, 0
2, 78480, Note_on_c, 0, 55, 0
2, 78480, Note_on_c, 0, 52, 0
2, 78600, Note_on_c, 0, 52, 49
2, 78600, Note_on_c, 0, 64, 49
2, 78720, Note_on_c, 0, 64, 0
2, 78720, Note_on_c, 0, 52, 0
2, 78720, Note_on_c, 0, 52, 62
2, 78720, Note_on_c, 0, 64, 62
2, 79200, Note_on_c, 0, 64, 0
2, 79200, Note_on_c, 0, 52, 0
2, 79200, Note_on_c, 0, 54, 62
2, 79200, Note_on_c, 0, 66, 62
2, 79247, Note_on_c, 0, 66, 0
2, 79247, Note_on_c, 0, 54, 0
2, 79440, Note_on_c, 0, 55, 62
2, 79440, Note_on_c, 0, 67, 62
2, 79487, Note_on_c, 0, 67, 0
2, 79487, Note_on_c, 0, 55, 0
2, 79680, Note_on_c, 0, 57, 62
2, 79680, Note_on_c, 0, 69, 62
2, 79920, Note_on_c, 0, 69, 0
2, 79920, Note_on_c, 0, 57, 0
2, 79920, Note_on_c, 0, 55, 62
2, 79920, Note_on_c, 0, 67, 62
2, 80160, Note_on_c, 0, 67, 0
2, 80160, Note_on_c, 0, 55, 0
2, 80160, Note_on_c, 0, 54, 49
2, 80160, Note_on_c, 0, 66, 49
2, 80400, Note_on_c, 0, 66, 0
2, 80400, Note_on_c, 0, 54, 0
2, 80400, Note_on_c, 0, 52, 49
2, 80400, Note_on_c, 0, 64, 49
2, 80880, Note_on_c, 0, 64, 0
2, 80880, Note_on_c, 0, 52, 0
2, 80880, Note_on_c, 0, 60, 49
2, 81120, Note_on_c, 0, 60, 0
2, 81120, Note_on_c, 0, 55, 49
2, 81120, Note_on_c, 0, 67, 49
2, 81360, Note_on_c, 0, 67, 0
2, 81360, Note_on_c, 0, 55, 0
2, 81480, Note_on_c, 0, 55, 49
2, 81480, Note_on_c, 0, 67, 49
2, 81600, Note_on_c, 0, 67, 0
2, 81600, Note_on_c, 0, 55, 0
2, 81600, Note_on_c, 0, 55, 49
2, 81600, Note_on_c, 0, 67, 49
2, 82080, Note_on_c, 0, 67, 0
2, 82080, Note_on_c, 0, 55, 0
2, 82200, Note_on_c, 0, 54, 49
2, 82200, Note_on_c, 0, 66, 49
2, 82320, Note_on_c, 0, 66, 0
2, 82320, Note_on_c, 0, 54, 0
2, 82320, Note_on_c, 0, 54, 49
2, 82320, Note_on_c, 0, 66, 49
2, 82800, Note_on_c, 0, 66, 0
2, 82800, Note_on_c, 0, 54, 0
2, 82920, Note_on_c, 0, 52, 49
2, 82920, Note_on_c, 0, 64, 49
2, 83040, Note_on_c, 0, 64, 0
2, 83040, Note_on_c, 0, 52, 0
2, 83040, Note_on_c, 0, 52, 49
2, 83040, Note_on_c, 0, 64, 49
2, 83760, Note_on_c, 0, 64, 0
2, 83760, Note_on_c, 0, 52, 0
2, 83760, Note_on_c, 0, 60, 49
2, 84000, Note_on_c, 0, 60, 0
2, 84000, Note_on_c, 0, 52, 49
2, 84000, Note_on_c, 0, 64, 49
2, 84240, Note_on_c, 0, 64, 0
2, 84240, Note_on_c, 0, 52, 0
2, 84360, Note_on_c, 0, 52, 49
2, 84360, Note_on_c, 0, 64, 49
2, 84480, Note_on_c, 0, 64, 0
2, 84480, Note_on_c, 0, 52, 0
2, 84480, Note_on_c, 0, 52, 62
2, 84480, Note_on_c, 0, 64, 62
2, 84960, Note_on_c, 0, 64, 0
2, 84960, Note_on_c, 0, 52, 0
2, 84960, Note_on_c, 0, 54, 62
2, 84960, Note_on_c, 0, 66, 62
2, 85007, Note_on_c, 0, 66, 0
2, 85007, Note_on_c, 0, 54, 0
2, 85200, Note_on_c, 0, 55, 62
2, 85200, Note_on_c, 0, 67, 62
2, 85247, Note_on_c, 0, 67, 0
2, 85247, Note_on_c, 0, 55, 0
2, 85440, Note_on_c, 0, 57, 62
2, 85440, Note_on_c, 0, 69, 62
2, 85680, Note_on_c, 0, 69, 0
2, 85680, Note_on_c, 0, 57, 0
2, 85680, Note_on_c, 0, 55, 49
2, 85680, Note_on_c, 0, 67, 49
2, 85920, Note_on_c, 0, 67, 0
2, 85920, Note_on_c, 0, 55, 0
2, 85920, Note_on_c, 0, 54, 49
2, 85920, Note_on_c, 0, 66, 49
2, 86160, Note_on_c, 0, 66, 0
2, 86160, Note_on_c, 0, 54, 0
2, 86160, Note_on_c, 0, 52, 49
2, 86160, Note_on_c, 0, 64, 49
2, 86640, Note_on_c, 0, 64, 0
2, 86640, Note_on_c, 0, 52, 0
2, 86640, Note_on_c, 0, 60, 49
2, 86880, Note_on_c, 0, 60, 0
2, 86880, Note_on_c, 0, 55, 49
2, 86880, Note_on_c, 0, 67, 49
2, 87120, Note_on_c, 0, 67, 0
2, 87120, Note_on_c, 0, 55, 0
2, 87240, Note_on_c, 0, 55, 49
2, 87240, Note_on_c, 0, 67, 49
2, 87360, Note_on_c, 0, 67, 0
2, 87360, Note_on_c, 0, 55, 0
2, 87360, Note_on_c, 0, 55, 49
2, 87360, Note_on_c, 0, 67, 49
2, 87840, Note_on_c, 0, 67, 0
2, 87840, Note_on_c, 0, 55, 0
2, 87960, Note_on_c, 0, 54, 49
2, 87960, Note_on_c, 0, 66, 49
2, 88080, Note_on_c, 0, 66, 0
2, 88080, Note_on_c, 0, 54, 0
2, 88080, Note_on_c, 0, 54, 49
2, 88080, Note_on_c, 0, 66, 49
2, 88560, Note_on_c, 0, 66, 0
2, 88560, Note_on_c, 0, 54, 0
2, 88680, Note_on_c, 0, 52, 49
2, 88680, Note_on_c, 0, 64, 49
2, 88800, Note_on_c, 0, 64, 0
2, 88800, Note_on_c, 0, 52, 0
2, 88800, Note_on_c, 0, 52, 49
2, 88800, Note_on_c, 0, 64, 49
2, 89160, Note_on_c, 0, 64, 0
2, 89160, Note_on_c, 0, 52, 0
2, 89160, Control_c, 0, 64, 127
2, 89160, Note_on_c, 0, 64, 49
2, 89280, Note_on_c, 0, 64, 0
2, 89280, Note_on_c, 0, 66, 49
2, 89400, Note_on_c, 0, 66, 0
2, 89400, Note_on_c, 0, 67, 49
2, 89520, Note_on_c, 0, 67, 0
2, 89520, Note_on_c, 0, 69, 49
2, 89640, Note_on_c, 0, 69, 0
2, 89640, Note_on_c, 0, 71, 49
2, 89760, Note_on_c, 0, 71, 0
2, 89760, Control_c, 0, 64, 0
2, 89760, Note_on_c, 0, 60, 49
2, 89760, Note_on_c, 0, 72, 49
2, 90000, Note_on_c, 0, 72, 0
2, 90000, Note_on_c, 0, 60, 0
2, 90120, Note_on_c, 0, 60, 49
2, 90120, Note_on_c, 0, 72, 49
2, 90240, Note_on_c, 0, 72, 0
2, 90240, Note_on_c, 0, 60, 0
2, 90240, Note_on_c, 0, 60, 49
2, 90240, Note_on_c, 0, 72, 49
2, 90720, Note_on_c, 0, 72, 0
2, 90720, Note_on_c, 0, 60, 0
2, 90720, Note_on_c, 0, 59, 49
2, 90720, Note_on_c, 0, 71, 49
2, 90960, Note_on_c, 0, 71, 0
2, 90960, Note_on_c, 0, 59, 0
2, 90960, Note_on_c, 0, 57, 49
2, 90960, Note_on_c, 0, 69, 49
2, 91200, Note_on_c, 0, 69, 0
2, 91200, Note_on_c, 0, 57, 0
2, 91200, Note_on_c, 0, 59, 49
2, 91200, Note_on_c, 0, 71, 49
2, 91440, Note_on_c, 0, 71, 0
2, 91440, Note_on_c, 0, 59, 0
2, 91440, Note_on_c, 0, 62, 49
2, 91680, Note_on_c, 0, 62, 0
2, 91680, Note_on_c, 0, 64, 49
2, 92160, Note_on_c, 0, 64, 0
2, 92160, Note_on_c, 0, 54, 62
2, 92160, Note_on_c, 0, 66, 62
2, 92400, Note_on_c, 0, 66, 0
2, 92400, Note_on_c, 0, 54, 0
2, 92400, Note_on_c, 0, 55, 62
2, 92400, Note_on_c, 0, 67, 62
2, 92640, Note_on_c, 0, 67, 0
2, 92640, Note_on_c, 0, 55, 0
2, 92640, Note_on_c, 0, 57, 62
2, 92640, Note_on_c, 0, 69, 62
2, 93120, Note_on_c, 0, 69, 0
2, 93120, Note_on_c, 0, 57, 0
2, 93120, Note_on_c, 0, 64, 62
2, 93360, Note_on_c, 0, 64, 0
2, 93360, Note_on_c, 0, 57, 62
2, 93360, Note_on_c, 0, 69, 62
2, 93840, Note_on_c, 0, 69, 0
2, 93840, Note_on_c, 0, 57, 0
2, 93840, Note_on_c, 0, 62, 62
2, 94080, Note_on_c, 0, 62, 0
2, 94080, Note_on_c, 0, 59, 62
2, 94080, Note_on_c, 0, 71, 62
2, 95280, Note_on_c, 0, 71, 0
2, 95280, Note_on_c, 0, 59, 0
2, 95280, Note_on_c, 0, 67, 49
2, 95520, Note_on_c, 0, 67, 0
2, 95520, Control_c, 0, 64, 0
2, 95520, Note_on_c, 0, 60, 49
2, 95520, Note_on_c, 0, 72, 49
2, 95760, Note_on_c, 0, 72, 0
2, 95760, Note_on_c, 0, 60, 0
2, 95880, Note_on_c, 0, 60, 49
2, 95880, Note_on_c, 0, 72, 49
2, 96000, Note_on_c, 0, 72, 0
2, 96000, Note_on_c, 0, 60, 0
2, 96000, Note_on_c, 0, 60, 49
2, 96000, Note_on_c, 0, 72, 49
2, 96480, Note_on_c, 0, 72, 0
2, 96480, Note_on_c, 0, 60, 0
2, 96480, Note_on_c, 0, 59, 49
2, 96480, Note_on_c, 0, 71, 49
2, 96720, Note_on_c, 0, 71, 0
2, 96720, Note_on_c, 0, 59, 0
2, 96720, Note_on_c, 0, 57, 49
2, 96720, Note_on_c, 0, 69, 49
2, 96960, Note_on_c, 0, 69, 0
2, 96960, Note_on_c, 0, 57, 0
2, 96960, Note_on_c, 0, 59, 49
2, 96960, Note_on_c, 0, 71, 49
2, 97200, Note_on_c, 0, 71, 0
2, 97200, Note_on_c, 0, 59, 0
2, 97200, Note_on_c, 0, 62, 62
2, 97440, Note_on_c, 0, 62, 0
2, 97440, Note_on_c, 0, 64, 62
2, 97920, Note_on_c, 0, 64, 0
2, 97920, Note_on_c, 0, 54, 62
2, 97920, Note_on_c, 0, 66, 62
2, 98160, Note_on_c, 0, 66, 0
2, 98160, Note_on_c, 0, 54, 0
2, 98160, Note_on_c, 0, 55, 62
2, 98160, Note_on_c, 0, 67, 62
2, 98400, Note_on_c, 0, 67, 0
2, 98400, Note_on_c, 0, 55, 0
2, 98400, Note_on_c, 0, 57, 62
2, 98400, Note_on_c, 0, 69, 62
2, 98880, Note_on_c, 0, 69, 0
2, 98880, Note_on_c, 0, 57, 0
2, 98880, Note_on_c, 0, 64, 62
2, 99120, Note_on_c, 0, 64, 0
2, 99120, Note_on_c, 0, 58, 62
2, 99120, Note_on_c, 0, 70, 62
2, 99600, Note_on_c, 0, 70, 0
2, 99600, Note_on_c, 0, 58, 0
2, 99600, Note_on_c, 0, 64, 62
2, 99840, Note_on_c, 0, 64, 0
2, 99840, Note_on_c, 0, 59, 62
2, 99840, Note_on_c, 0, 63, 62
2, 99840, Note_on_c, 0, 69, 62
2, 99840, Note_on_c, 0, 71, 62
2, 100080, Note_on_c, 0, 71, 0
2, 100080, Note_on_c, 0, 59, 0
2, 100080, Note_on_c, 0, 63, 0
2, 100080, Note_on_c, 0, 69, 0
2, 101040, Note_on_c, 0, 72, 62
2, 101280, Note_on_c, 0, 72, 0
2, 101280, Note_on_c, 0, 76, 62
2, 101520, Note_on_c, 0, 76, 0
2, 101640, Note_on_c, 0, 64, 62
2, 101640, Note_on_c, 0, 76, 62
2, 101760, Note_on_c, 0, 76, 0
2, 101760, Note_on_c, 0, 64, 0
2, 101760, Note_on_c, 0, 64, 62
2, 101760, Note_on_c, 0, 76, 62
2, 102240, Note_on_c, 0, 76, 0
2, 102240, Note_on_c, 0, 64, 0
2, 102240, Note_on_c, 0, 66, 75
2, 102240, Note_on_c, 0, 78, 75
2, 102287, Note_on_c, 0, 78, 0
2, 102287, Note_on_c, 0, 66, 0
2, 102480, Note_on_c, 0, 67, 75
2, 102480, Note_on_c, 0, 79, 75
2, 102527, Note_on_c, 0, 79, 0
2, 102527, Note_on_c, 0, 67, 0
2, 102720, Note_on_c, 0, 69, 75
2, 102720, Note_on_c, 0, 81, 75
2, 102960, Note_on_c, 0, 81, 0
2, 102960, Note_on_c, 0, 69, 0
2, 102960, Note_on_c, 0, 67, 75
2, 102960, Note_on_c, 0, 79, 75
2, 103200, Note_on_c, 0, 79, 0
2, 103200, Note_on_c, 0, 67, 0
2, 103200, Note_on_c, 0, 66, 62
2, 103200, Note_on_c, 0, 78, 62
2, 103440, Note_on_c, 0, 78, 0
2, 103440, Note_on_c, 0, 66, 0
2, 103440, Note_on_c, 0, 64, 62
2, 103440, Note_on_c, 0, 76, 62
2, 103920, Note_on_c, 0, 76, 0
2, 103920, Note_on_c, 0, 64, 0
2, 103920, Note_on_c, 0, 72, 62
2, 104160, Note_on_c, 0, 72, 0
2, 104160, Note_on_c, 0, 71, 62
2, 104160, Note_on_c, 0, 79, 62
2, 104400, Note_on_c, 0, 79, 0
2, 104400, Note_on_c, 0, 71, 0
2, 104520, Note_on_c, 0, 67, 62
2, 104520, Note_on_c, 0, 79, 62
2, 104640, Note_on_c, 0, 79, 0
2, 104640, Note_on_c, 0, 67, 0
2, 104640, Note_on_c, 0, 67, 62
2, 104640, Note_on_c, 0, 79, 62
2, 105120, Note_on_c, 0, 79, 0
2, 105120, Note_on_c, 0, 67, 0
2, 105240, Note_on_c, 0, 66, 62
2, 105240, Note_on_c, 0, 78, 62
2, 105360, Note_on_c, 0, 78, 0
2, 105360, Note_on_c, 0, 66, 0
2, 105360, Note_on_c, 0, 66, 62
2, 105360, Note_on_c, 0, 78, 62
2, 105840, Note_on_c, 0, 78, 0
2, 105840, Note_on_c, 0, 66, 0
2, 105960, Note_on_c, 0, 64, 62
2, 105960, Note_on_c, 0, 76, 62
2, 106080, Note_on_c, 0, 76, 0
2, 106080, Note_on_c, 0, 64, 0
2, 106080, Note_on_c, 0, 64, 62
2, 106080, Note_on_c, 0, 76, 62
2, 106800, Note_on_c, 0, 76, 0
2, 106800, Note_on_c, 0, 64, 0
2, 106800, Note_on_c, 0, 72, 62
2, 107040, Note_on_c, 0, 72, 0
2, 107040, Note_on_c, 0, 76, 62
2, 107280, Note_on_c, 0, 76, 0
2, 107400, Note_on_c, 0, 64, 62
2, 107400, Note_on_c, 0, 76, 62
2, 107520, Note_on_c, 0, 76, 0
2, 107520, Note_on_c, 0, 64, 0
2, 107520, Note_on_c, 0, 64, 62
2, 107520, Note_on_c, 0, 76, 62
2, 108000, Note_on_c, 0, 76, 0
2, 108000, Note_on_c, 0, 64, 0
2, 108000, Note_on_c, 0, 66, 75
2, 108000, Note_on_c, 0, 78, 75
2, 108047, Note_on_c, 0, 78, 0
2, 108047, Note_on_c, 0, 66, 0
2, 108240, Note_on_c, 0, 67, 75
2, 108240, Note_on_c, 0, 79, 75
2, 108287, Note_on_c, 0, 79, 0
2, 108287, Note_on_c, 0, 67, 0
2, 108480, Note_on_c, 0, 69, 75
2, 108480, Note_on_c, 0, 81, 75
2, 108720, Note_on_c, 0, 81, 0
2, 108720, Note_on_c, 0, 69, 0
2, 108720, Note_on_c, 0, 67, 75
2, 108720, Note_on_c, 0, 79, 75
2, 108960, Note_on_c, 0, 79, 0
2, 108960, Note_on_c, 0, 67, 0
2, 108960, Note_on_c, 0, 66, 62
2, 108960, Note_on_c, 0, 78, 62
2, 109200, Note_on_c, 0, 78, 0
2, 109200, Note_on_c, 0, 66, 0
2, 109200, Note_on_c, 0, 64, 62
2, 109200, Note_on_c, 0, 76, 62
2, 109680, Note_on_c, 0, 76, 0
2, 109680, Note_on_c, 0, 64, 0
2, 109680, Note_on_c, 0, 72, 62
2, 109920, Note_on_c, 0, 72, 0
2, 109920, Note_on_c, 0, 71, 62
2, 109920, Note_on_c, 0, 79, 62
2, 110160, Note_on_c, 0, 79, 0
2, 110160, Note_on_c, 0, 71, 0
2, 110280, Note_on_c, 0, 67, 62
2, 110280, Note_on_c, 0, 79, 62
2, 110400, Note_on_c, 0, 79, 0
2, 110400, Note_on_c, 0, 67, 0
2, 110400, Note_on_c, 0, 67, 62
2, 110400, Note_on_c, 0, 79, 62
2, 110880, Note_on_c, 0, 79, 0
2, 110880, Note_on_c, 0, 67, 0
2, 111000, Note_on_c, 0, 66, 62
2, 111000, Note_on_c, 0, 78, 62
2, 111120, Note_on_c, 0, 78, 0
2, 111120, Note_on_c, 0, 66, 0
2, 111120, Note_on_c, 0, 66, 62
2, 111120, Note_on_c, 0, 78, 62
2, 111600, Note_on_c, 0, 78, 0
2, 111600, Note_on_c, 0, 66, 0
2, 111720, Note_on_c, 0, 64, 62
2, 111720, Note_on_c, 0, 76, 62
2, 111840, Note_on_c, 0, 76, 0
2, 111840, Note_on_c, 0, 64, 0
2, 111840, Note_on_c, 0, 64, 62
2, 111840, Note_on_c, 0, 76, 62
2, 112080, Note_on_c, 0, 76, 0
2, 112080, Note_on_c, 0, 64, 0
2, 112320, Note_on_c, 0, 67, 75
2, 112320, Note_on_c, 0, 71, 75
2, 112320, Note_on_c, 0, 76, 75
2, 112367, Note_on_c, 0, 76, 0
2, 112367, Note_on_c, 0, 71, 0
2, 112367, Note_on_c, 0, 67, 0
2, 112560, Note_on_c, 0, 68, 75
2, 112560, Note_on_c, 0, 71, 75
2, 112560, Note_on_c, 0, 74, 75
2, 112607, Note_on_c, 0, 74, 0
2, 112607, Note_on_c, 0, 71, 0
2, 112607, Note_on_c, 0, 68, 0
2, 113040, Control_c, 0, 64, 127
2, 113040, Note_on_c, 0, 74, 88
2, 113160, Note_on_c, 0, 74, 0
2, 113160, Note_on_c, 0, 76, 88
2, 113280, Note_on_c, 0, 76, 0
2, 113280, Note_on_c, 0, 78, 88
2, 113400, Note_on_c, 0, 78, 0
2, 113400, Note_on_c, 0, 79, 88
2, 113520, Note_on_c, 0, 79, 0
2, 113520, Control_c, 0, 64, 0
2, 113520, Note_on_c, 0, 81, 88
2, 113760, Note_on_c, 0, 81, 0
2, 113760, Control_c, 0, 64, 127
2, 113760, Note_on_c, 0, 69, 75
2, 113880, Note_on_c, 0, 69, 0
2, 113880, Note_on_c, 0, 71, 75
2, 114000, Note_on_c, 0, 71, 0
2, 114000, Note_on_c, 0, 72, 75
2, 114120, Note_on_c, 0, 72, 0
2, 114120, Note_on_c, 0, 74, 75
2, 114240, Note_on_c, 0, 74, 0
2, 114240, Control_c, 0, 64, 0
2, 114240, Note_on_c, 0, 76, 75
2, 114480, Note_on_c, 0, 76, 0
2, 114480, Control_c, 0, 64, 127
2, 114480, Note_on_c, 0, 66, 62
2, 114600, Note_on_c, 0, 66, 0
2, 114600, Note_on_c, 0, 67, 62
2, 114720, Note_on_c, 0, 67, 0
2, 114720, Note_on_c, 0, 69, 62
2, 114840, Note_on_c, 0, 69, 0
2, 114840, Note_on_c, 0, 71, 62
2, 114960, Note_on_c, 0, 71, 0
2, 114960, Control_c, 0, 64, 0
2, 114960, Note_on_c, 0, 72, 62
2, 115200, Note_on_c, 0, 72, 0
2, 115200, Control_c, 0, 64, 127
2, 115200, Note_on_c, 0, 61, 62
2, 115320, Note_on_c, 0, 61, 0
2, 115320, Note_on_c, 0, 62, 62
2, 115440, Note_on_c, 0, 62, 0
2, 115440, Note_on_c, 0, 64, 75
2, 115560, Note_on_c, 0, 64, 0
2, 115560, Note_on_c, 0, 66, 75
2, 115680, Note_on_c, 0, 66, 0
2, 115680, Control_c, 0, 64, 0
2, 115680, Note_on_c, 0, 67, 88
2, 115680, Note_on_c, 0, 71, 88
2, 115680, Note_on_c, 0, 79, 88
2, 115920, Note_on_c, 0, 79, 0
2, 115920, Note_on_c, 0, 71, 0
2, 115920, Note_on_c, 0, 67, 0
2, 116040, Note_on_c, 0, 67, 88
2, 116040, Note_on_c, 0, 79, 88
2, 116160, Note_on_c, 0, 79, 0
2, 116160, Note_on_c, 0, 67, 0
2, 116160, Note_on_c, 0, 67, 88
2, 116160, Note_on_c, 0, 79, 88
2, 116640, Note_on_c, 0, 79, 0
2, 116640, Note_on_c, 0, 67, 0
2, 116640, Control_c, 0, 64, 127
2, 116640, Note_on_c, 0, 69, 88
2, 116640, Note_on_c, 0, 81, 88
2, 116880, Note_on_c, 0, 81, 0
2, 116880, Note_on_c, 0, 69, 0
2, 116880, Note_on_c, 0, 71, 88
2, 116880, Note_on_c, 0, 74, 88
2, 116880, Note_on_c, 0, 83, 88
2, 117120, Note_on_c, 0, 83, 0
2, 117120, Note_on_c, 0, 74, 0
2, 117120, Note_on_c, 0, 71, 0
2, 117120, Note_on_c, 0, 76, 88
2, 117120, Note_on_c, 0, 84, 88
2, 117360, Note_on_c, 0, 84, 0
2, 117360, Note_on_c, 0, 76, 0
2, 117360, Note_on_c, 0, 74, 88
2, 117360, Note_on_c, 0, 83, 88
2, 117600, Note_on_c, 0, 83, 0
2, 117600, Note_on_c, 0, 74, 0
2, 117600, Note_on_c, 0, 72, 88
2, 117600, Note_on_c, 0, 81, 88
2, 117840, Note_on_c, 0, 81, 0
2, 117840, Note_on_c, 0, 72, 0
2, 117840, Control_c, 0, 64, 0
2, 117840, Note_on_c, 0, 71, 88
2, 117840, Note_on_c, 0, 79, 88
2, 118080, Note_on_c, 0, 79, 0
2, 118080, Note_on_c, 0, 71, 0
2, 118080, Note_on_c, 0, 67, 75
2, 118080, Note_on_c, 0, 71, 75
2, 118080, Note_on_c, 0, 76, 75
2, 118127, Note_on_c, 0, 76, 0
2, 118127, Note_on_c, 0, 71, 0
2, 118127, Note_on_c, 0, 67, 0
2, 118320, Note_on_c, 0, 68, 75
2, 118320, Note_on_c, 0, 71, 75
2, 118320, Note_on_c, 0, 74, 75
2, 118367, Note_on_c, 0, 74, 0
2, 118367, Note_on_c, 0, 71, 0
2, 118367, Note_on_c, 0, 68, 0
2, 118800, Control_c, 0, 64, 127
2, 118800, Note_on_c, 0, 74, 88
2, 118920, Note_on_c, 0, 74, 0
2, 118920, Note_on_c, 0, 76, 88
2, 119040, Note_on_c, 0, 76, 0
2, 119040, Note_on_c, 0, 78, 88
2, 119160, Note_on_c, 0, 78, 0
2, 119160, Note_on_c, 0, 79, 88
2, 119280, Note_on_c, 0, 79, 0
2, 119280, Control_c, 0, 64, 0
2, 119280, Note_on_c, 0, 81, 88
2, 119520, Note_on_c, 0, 81, 0
2, 119520, Control_c, 0, 64, 127
2, 119520, Note_on_c, 0, 69, 75
2, 119640, Note_on_c, 0, 69, 0
2, 119640, Note_on_c, 0, 71, 75
2, 119760, Note_on_c, 0, 71, 0
2, 119760, Note_on_c, 0, 72, 75
2, 119880, Note_on_c, 0, 72, 0
2, 119880, Note_on_c, 0, 74, 75
2, 120000, Note_on_c, 0, 74, 0
2, 120000, Control_c, 0, 64, 0
2, 120000, Note_on_c, 0, 76, 75
2, 120240, Note_on_c, 0, 76, 0
2, 120240, Control_c, 0, 64, 127
2, 120240, Note_on_c, 0, 66, 62
2, 120360, Note_on_c, 0, 66, 0
2, 120360, Note_on_c, 0, 67, 62
2, 120480, Note_on_c, 0, 67, 0
2, 120480, Note_on_c, 0, 69, 62
2, 120600, Note_on_c, 0, 69, 0
2, 120600, Note_on_c, 0, 71, 62
2, 120720, Note_on_c, 0, 71, 0
2, 120720, Control_c, 0, 64, 0
2, 120720, Note_on_c, 0, 72, 62
2, 120960, Note_on_c, 0, 72, 0
2, 120960, Control_c, 0, 64, 127
2, 120960, Note_on_c, 0, 61, 62
2, 121080, Note_on_c, 0, 61, 0
2, 121080, Note_on_c, 0, 62, 62
2, 121200, Note_on_c, 0, 62, 0
2, 121200, Note_on_c, 0, 64, 75
2, 121320, Note_on_c, 0, 64, 0
2, 121320, Note_on_c, 0, 66, 75
2, 121440, Note_on_c, 0, 66, 0
2, 121440, Control_c, 0, 64, 0
2, 121440, Note_on_c, 0, 71, 88
2, 121440, Note_on_c, 0, 74, 88
2, 121440, Note_on_c, 0, 83, 88
2, 121680, Note_on_c, 0, 83, 0
2, 121680, Note_on_c, 0, 74, 0
2, 121680, Note_on_c, 0, 71, 0
2, 121800, Note_on_c, 0, 71, 88
2, 121800, Note_on_c, 0, 83, 88
2, 121920, Note_on_c, 0, 83, 0
2, 121920, Note_on_c, 0, 71, 0
2, 121920, Note_on_c, 0, 71, 88
2, 121920, Note_on_c, 0, 83, 88
2, 122400, Note_on_c, 0, 83, 0
2, 122400, Note_on_c, 0, 71, 0
2, 122400, Control_c, 0, 64, 127
2, 122400, Note_on_c, 0, 73, 88
2, 122400, Note_on_c, 0, 85, 88
2, 122640, Note_on_c, 0, 85, 0
2, 122640, Note_on_c, 0, 73, 0
2, 122640, Note_on_c, 0, 74, 101
2, 122640, Note_on_c, 0, 86, 101
2, 122880, Note_on_c, 0, 86, 0
2, 122880, Note_on_c, 0, 74, 0
2, 122880, Note_on_c, 0, 76, 101
2, 122880, Note_on_c, 0, 88, 101
2, 123120, Note_on_c, 0, 88, 0
2, 123120, Note_on_c, 0, 76, 0
2, 123120, Note_on_c, 0, 86, 101
2, 123360, Note_on_c, 0, 86, 0
2, 123360, Note_on_c, 0, 85, 101
2, 123600, Note_on_c, 0, 85, 0
2, 123600, Control_c, 0, 64, 0
2, 123600, Note_on_c, 0, 83, 88
2, 123840, Note_on_c, 0, 83, 0
2, 123840, Note_on_c, 0, 67, 75
2, 123840, Note_on_c, 0, 71, 75
2, 123840, Note_on_c, 0, 76, 75
2, 123887, Note_on_c, 0, 76, 0
2, 123887, Note_on_c, 0, 71, 0
2, 123887, Note_on_c, 0, 67, 0
2, 124080, Note_on_c, 0, 68, 75
2, 124080, Note_on_c, 0, 71, 75
2, 124080, Note_on_c, 0, 74, 75
2, 124127, Note_on_c, 0, 74, 0
2, 124127, Note_on_c, 0, 71, 0
2, 124127, Note_on_c, 0, 68, 0
2, 124560, Control_c, 0, 64, 127
2, 124560, Note_on_c, 0, 74, 88
2, 124680, Note_on_c, 0, 74, 0
2, 124680, Note_on_c, 0, 76, 88
2, 124800, Note_on_c, 0, 76, 0
2, 124800, Note_on_c, 0, 78, 88
2, 124920, Note_on_c, 0, 78, 0
2, 124920, Note_on_c, 0, 79, 88
2, 125040, Note_on_c, 0, 79, 0
2, 125040, Control_c, 0, 64, 0
2, 125040, Note_on_c, 0, 81, 88
2, 125280, Note_on_c, 0, 81, 0
2, 125280, Control_c, 0, 64, 127
2, 125280, Note_on_c, 0, 69, 75
2, 125400, Note_on_c, 0, 69, 0
2, 125400, Note_on_c, 0, 71, 75
2, 125520, Note_on_c, 0, 71, 0
2, 125520, Note_on_c, 0, 72, 75
2, 125640, Note_on_c, 0, 72, 0
2, 125640, Note_on_c, 0, 74, 75
2, 125760, Note_on_c, 0, 74, 0
2, 125760, Control_c, 0, 64, 0
2, 125760, Note_on_c, 0, 76, 75
2, 126000, Note_on_c, 0, 76, 0
2, 126000, Control_c, 0, 64, 127
2, 126000, Note_on_c, 0, 66, 62
2, 126120, Note_on_c, 0, 66, 0
2, 126120, Note_on_c, 0, 67, 62
2, 126240, Note_on_c, 0, 67, 0
2, 126240, Note_on_c, 0, 69, 62
2, 126360, Note_on_c, 0, 69, 0
2, 126360, Note_on_c, 0, 71, 62
2, 126480, Note_on_c, 0, 71, 0
2, 126480, Control_c, 0, 64, 0
2, 126480, Note_on_c, 0, 72, 62
2, 126720, Note_on_c, 0, 72, 0
2, 126720, Control_c, 0, 64, 127
2, 126720, Note_on_c, 0, 61, 62
2, 126840, Note_on_c, 0, 61, 0
2, 126840, Note_on_c, 0, 62, 62
2, 126960, Note_on_c, 0, 62, 0
2, 126960, Note_on_c, 0, 64, 75
2, 127080, Note_on_c, 0, 64, 0
2, 127080, Note_on_c, 0, 66, 75
2, 127200, Note_on_c, 0, 66, 0
2, 127200, Control_c, 0, 64, 0
2, 127200, Note_on_c, 0, 67, 88
2, 127200, Note_on_c, 0, 71, 88
2, 127200, Note_on_c, 0, 79, 88
2, 127440, Note_on_c, 0, 79, 0
2, 127440, Note_on_c, 0, 71, 0
2, 127440, Note_on_c, 0, 67, 0
2, 127560, Note_on_c, 0, 67, 88
2, 127560, Note_on_c, 0, 79, 88
2, 127680, Note_on_c, 0, 79, 0
2, 127680, Note_on_c, 0, 67, 0
2, 127680, Note_on_c, 0, 67, 88
2, 127680, Note_on_c, 0, 79, 88
2, 128160, Note_on_c, 0, 79, 0
2, 128160, Note_on_c, 0, 67, 0
2, 128160, Control_c, 0, 64, 127
2, 128160, Note_on_c, 0, 69, 101
2, 128160, Note_on_c, 0, 81, 101
2, 128400, Note_on_c, 0, 81, 0
2, 128400, Note_on_c, 0, 69, 0
2, 128400, Note_on_c, 0, 71, 101
2, 128400, Note_on_c, 0, 74, 101
2, 128400, Note_on_c, 0, 83, 101
2, 128640, Note_on_c, 0, 83, 0
2, 128640, Note_on_c, 0, 74, 0
2, 128640, Note_on_c, 0, 71, 0
2, 128640, Note_on_c, 0, 76, 101
2, 128640, Note_on_c, 0, 84, 101
2, 128880, Note_on_c, 0, 84, 0
2, 128880, Note_on_c, 0, 76, 0
2, 128880, Note_on_c, 0, 74, 101
2, 128880, Note_on_c, 0, 83, 101
2, 129120, Note_on_c, 0, 83, 0
2, 129120, Note_on_c, 0, 74, 0
2, 129120, Note_on_c, 0, 72, 88
2, 129120, Note_on_c, 0, 81, 88
2, 129360, Note_on_c, 0, 81, 0
2, 129360, Note_on_c, 0, 72, 0
2, 129360, Control_c, 0, 64, 0
2, 129360, Note_on_c, 0, 71, 88
2, 129360, Note_on_c, 0, 79, 88
2, 129600, Note_on_c, 0, 79, 0
2, 129600, Note_on_c, 0, 71, 0
2, 129600, Note_on_c, 0, 67, 75
2, 129600, Note_on_c, 0, 71, 75
2, 129600, Note_on_c, 0, 76, 75
2, 129647, Note_on_c, 0, 76, 0
2, 129647, Note_on_c, 0, 71, 0
2, 129647, Note_on_c, 0, 67, 0
2, 129840, Note_on_c, 0, 68, 75
2, 129840, Note_on_c, 0, 71, 75
2, 129840, Note_on_c, 0, 74, 75
2, 129887, Note_on_c, 0, 74, 0
2, 129887, Note_on_c, 0, 71, 0
2, 129887, Note_on_c, 0, 68, 0
2, 130320, Control_c, 0, 64, 127
2, 130320, Note_on_c, 0, 74, 88
2, 130440, Note_on_c, 0, 74, 0
2, 130440, Note_on_c, 0, 76, 88
2, 130560, Note_on_c, 0, 76, 0
2, 130560, Note_on_c, 0, 78, 88
2, 130680, Note_on_c, 0, 78, 0
2, 130680, Note_on_c, 0, 79, 88
2, 130800, Note_on_c, 0, 79, 0
2, 130800, Control_c, 0, 64, 0
2, 130800, Note_on_c, 0, 81, 88
2, 131040, Note_on_c, 0, 81, 0
2, 131040, Control_c, 0, 64, 127
2, 131040, Note_on_c, 0, 69, 75
2, 131160, Note_on_c, 0, 69, 0
2, 131160, Note_on_c, 0, 71, 75
2, 131280, Note_on_c, 0, 71, 0
2, 131280, Note_on_c, 0, 72, 75
2, 131400, Note_on_c, 0, 72, 0
2, 131400, Note_on_c, 0, 74, 75
2, 131520, Note_on_c, 0, 74, 0
2, 131520, Control_c, 0, 64, 0
2, 131520, Note_on_c, 0, 76, 75
2, 131760, Note_on_c, 0, 76, 0
2, 131760, Control_c, 0, 64, 127
2, 131760, Note_on_c, 0, 66, 62
2, 131880, Note_on_c, 0, 66, 0
2, 131880, Note_on_c, 0, 67, 62
2, 132000, Note_on_c, 0, 67, 0
2, 132000, Note_on_c, 0, 69, 62
2, 132120, Note_on_c, 0, 69, 0
2, 132120, Note_on_c, 0, 71, 62
2, 132240, Note_on_c, 0, 71, 0
2, 132240, Control_c, 0, 64, 0
2, 132240, Note_on_c, 0, 72, 62
2, 132480, Note_on_c, 0, 72, 0
2, 132480, Control_c, 0, 64, 127
2, 132480, Note_on_c, 0, 61, 62
2, 132600, Note_on_c, 0, 61, 0
2, 132600, Note_on_c, 0, 62, 62
2, 132720, Note_on_c, 0, 62, 0
2, 132720, Note_on_c, 0, 64, 75
2, 132840, Note_on_c, 0, 64, 0
2, 132840, Note_on_c, 0, 66, 75
2, 132960, Note_on_c, 0, 66, 0
2, 132960, Control_c, 0, 64, 0
2, 132960, Note_on_c, 0, 71, 88
2, 132960, Note_on_c, 0, 74, 88
2, 132960, Note_on_c, 0, 83, 88
2, 133200, Note_on_c, 0, 83, 0
2, 133200, Note_on_c, 0, 74, 0
2, 133200, Note_on_c, 0, 71, 0
2, 133320, Note_on_c, 0, 71, 88
2, 133320, Note_on_c, 0, 83, 88
2, 133440, Note_on_c, 0, 83, 0
2, 133440, Note_on_c, 0, 71, 0
2, 133440, Note_on_c, 0, 71, 88
2, 133440, Note_on_c, 0, 83, 88
2, 133920, Note_on_c, 0, 83, 0
2, 133920, Note_on_c, 0, 71, 0
2, 133920, Control_c, 0, 64, 127
2, 133920, Note_on_c, 0, 73, 88
2, 133920, Note_on_c, 0, 85, 88
2, 134160, Note_on_c, 0, 85, 0
2, 134160, Note_on_c, 0, 73, 0
2, 134160, Note_on_c, 0, 74, 101
2, 134160, Note_on_c, 0, 86, 101
2, 134400, Note_on_c, 0, 86, 0
2, 134400, Note_on_c, 0, 74, 0
2, 134400, Note_on_c, 0, 76, 101
2, 134400, Note_on_c, 0, 88, 101
2, 134640, Note_on_c, 0, 88, 0
2, 134640, Note_on_c, 0, 76, 0
2, 134640, Note_on_c, 0, 86, 101
2, 134880, Note_on_c, 0, 86, 0
2, 134880, Note_on_c, 0, 85, 88
2, 135120, Note_on_c, 0, 85, 0
2, 135120, Control_c, 0, 64, 0
2, 135120, Note_on_c, 0, 83, 88
2, 135360, Note_on_c, 0, 83, 0
2, 135360, Control_c, 0, 64, 127
2, 135360, Note_on_c, 0, 85, 88
2, 135600, Note_on_c, 0, 85, 0
2, 135600, Note_on_c, 0, 86, 101
2, 135840, Note_on_c, 0, 86, 0
2, 135840, Note_on_c, 0, 76, 101
2, 135840, Note_on_c, 0, 88, 101
2, 136080, Note_on_c, 0, 88, 0
2, 136080, Note_on_c, 0, 76, 0
2, 136080, Control_c, 0, 64, 0
2, 136080, Note_on_c, 0, 74, 101
2, 136080, Note_on_c, 0, 86, 101
2, 136320, Note_on_c, 0, 86, 0
2, 136320, Note_on_c, 0, 74, 0
2, 136320, Note_on_c, 0, 73, 88
2, 136320, Note_on_c, 0, 85, 88
2, 136560, Note_on_c, 0, 85, 0
2, 136560, Note_on_c, 0, 73, 0
2, 136560, Note_on_c, 0, 83, 88
2, 136800, Note_on_c, 0, 83, 0
2, 136800, Control_c, 0, 64, 127
2, 136800, Note_on_c, 0, 85, 88
2, 137040, Note_on_c, 0, 85, 0
2, 137040, Note_on_c, 0, 86, 101
2, 137280, Note_on_c, 0, 86, 0
2, 137280, Note_on_c, 0, 88, 101
2, 137520, Note_on_c, 0, 88, 0
2, 137520, Control_c, 0, 64, 0
2, 137520, Note_on_c, 0, 86, 101
2, 137760, Note_on_c, 0, 86, 0
2, 137760, Control_c, 0, 64, 127
2, 137760, Note_on_c, 0, 85, 101
2, 138000, Note_on_c, 0, 85, 0
2, 138000, Note_on_c, 0, 83, 101
2, 138240, Note_on_c, 0, 83, 0
2, 138240, Note_on_c, 0, 81, 101
2, 138480, Note_on_c, 0, 81, 0
2, 138480, Control_c, 0, 64, 0
2, 138480, Note_on_c, 0, 79, 101
2, 138720, Note_on_c, 0, 79, 0
2, 138720, Note_on_c, 0, 66, 101
2, 138720, Note_on_c, 0, 71, 101
2, 138720, Note_on_c, 0, 78, 101
2, 139080, Note_on_c, 0, 78, 0
2, 139080, Note_on_c, 0, 71, 0
2, 139080, Note_on_c, 0, 66, 0
2, 139080, Note_on_c, 0, 66, 101
2, 139080, Note_on_c, 0, 71, 101
2, 139080, Note_on_c, 0, 78, 101
2, 139200, Note_on_c, 0, 78, 0
2, 139200, Note_on_c, 0, 71, 0
2, 139200, Note_on_c, 0, 66, 0
2, 139200, Note_on_c, 0, 66, 101
2, 139200, Note_on_c, 0, 71, 101
2, 139200, Note_on_c, 0, 78, 101
2, 139440, Note_on_c, 0, 78, 0
2, 139440, Note_on_c, 0, 71, 0
2, 139440, Note_on_c, 0, 66, 0
2, 139680, Control_c, 0, 64, 127
2, 139680, Note_on_c, 0, 61, 101
2, 139800, Note_on_c, 0, 61, 0
2, 139800, Note_on_c, 0, 62, 101
2, 139920, Note_on_c, 0, 62, 0
2, 139920, Note_on_c, 0, 64, 101
2, 140040, Note_on_c, 0, 64, 0
2, 140040, Control_c, 0, 64, 0
2, 140040, Note_on_c, 0, 66, 101
2, 140160, Note_on_c, 0, 66, 0
2, 140160, Control_c, 0, 64, 127
2, 140160, Note_on_c, 0, 67, 101
2, 140280, Note_on_c, 0, 67, 0
2, 140280, Note_on_c, 0, 66, 101
2, 140400, Note_on_c, 0, 66, 0
2, 140400, Note_on_c, 0, 67, 101
2, 140520, Note_on_c, 0, 67, 0
2, 140520, Note_on_c, 0, 69, 101
2, 140640, Note_on_c, 0, 69, 0
2, 140640, Note_on_c, 0, 71, 101
2, 140760, Note_on_c, 0, 71, 0
2, 140760, Control_c, 0, 64, 0
2, 140760, Note_on_c, 0, 69, 101
2, 140880, Note_on_c, 0, 69, 0
2, 140880, Control_c, 0, 64, 127
2, 140880, Note_on_c, 0, 71, 101
2, 141000, Note_on_c, 0, 71, 0
2, 141000, Note_on_c, 0, 73, 101
2, 141120, Note_on_c, 0, 73, 0
2, 141120, Note_on_c, 0, 74, 101
2, 141240, Note_on_c, 0, 74, 0
2, 141240, Note_on_c, 0, 73, 101
2, 141360, Note_on_c, 0, 73, 0
2, 141360, Note_on_c, 0, 74, 101
2, 141480, Note_on_c, 0, 74, 0
2, 141480, Control_c, 0, 64, 0
2, 141480, Note_on_c, 0, 76, 101
2, 141600, Note_on_c, 0, 76, 0
2, 141600, Note_on_c, 0, 66, 101
2, 141600, Note_on_c, 0, 71, 101
2, 141600, Note_on_c, 0, 78, 101
2, 141960, Note_on_c, 0, 78, 0
2, 141960, Note_on_c, 0, 71, 0
2, 141960, Note_on_c, 0, 66, 0
2, 141960, Note_on_c, 0, 66, 101
2, 141960, Note_on_c, 0, 71, 101
2, 141960, Note_on_c, 0, 78, 101
2, 142080, Note_on_c, 0, 78, 0
2, 142080, Note_on_c, 0, 71, 0
2, 142080, Note_on_c, 0, 66, 0
2, 142080, Note_on_c, 0, 66, 101
2, 142080, Note_on_c, 0, 71, 101
2, 142080, Note_on_c, 0, 78, 101
2, 142320, Note_on_c, 0, 78, 0
2, 142320, Note_on_c, 0, 71, 0
2, 142320, Note_on_c, 0, 66, 0
2, 142560, Control_c, 0, 64, 127
2, 142560, Note_on_c, 0, 61, 101
2, 142680, Note_on_c, 0, 61, 0
2, 142680, Note_on_c, 0, 62, 101
2, 142800, Note_on_c, 0, 62, 0
2, 142800, Note_on_c, 0, 64, 101
2, 142920, Note_on_c, 0, 64, 0
2, 142920, Control_c, 0, 64, 0
2, 142920, Note_on_c, 0, 66, 101
2, 143040, Note_on_c, 0, 66, 0
2, 143040, Control_c, 0, 64, 127
2, 143040, Note_on_c, 0, 67, 101
2, 143160, Note_on_c, 0, 67, 0
2, 143160, Note_on_c, 0, 66, 101
2, 143280, Note_on_c, 0, 66, 0
2, 143280, Note_on_c, 0, 67, 101
2, 143400, Note_on_c, 0, 67, 0
2, 143400, Note_on_c, 0, 69, 101
2, 143520, Note_on_c, 0, 69, 0
2, 143520, Note_on_c, 0, 71, 101
2, 143640, Note_on_c, 0, 71, 0
2, 143640, Control_c, 0, 64, 0
2, 143640, Note_on_c, 0, 69, 101
2, 143760, Note_on_c, 0, 69, 0
2, 143760, Control_c, 0, 64, 127
2, 143760, Note_on_c, 0, 71, 101
2, 143880, Note_on_c, 0, 71, 0
2, 143880, Note_on_c, 0, 73, 101
2, 144000, Note_on_c, 0, 73, 0
2, 144000, Note_on_c, 0, 74, 101
2, 144120, Note_on_c, 0, 74, 0
2, 144120, Note_on_c, 0, 73, 101
2, 144240, Note_on_c, 0, 73, 0
2, 144240, Note_on_c, 0, 74, 101
2, 144360, Note_on_c, 0, 74, 0
2, 144360, Control_c, 0, 64, 0
2, 144360, Note_on_c, 0, 76, 101
2, 144480, Note_on_c, 0, 76, 0
2, 144480, Note_on_c, 0, 66, 101
2, 144480, Note_on_c, 0, 71, 101
2, 144480, Note_on_c, 0, 78, 101
2, 144840, Note_on_c, 0, 78, 0
2, 144840, Note_on_c, 0, 71, 0
2, 144840, Note_on_c, 0, 66, 0
2, 144840, Note_on_c, 0, 66, 101
2, 144840, Note_on_c, 0, 71, 101
2, 144840, Note_on_c, 0, 78, 101
2, 144960, Note_on_c, 0, 78, 0
2, 144960, Note_on_c, 0, 71, 0
2, 144960, Note_on_c, 0, 66, 0
2, 144960, Note_on_c, 0, 66, 101
2, 144960, Note_on_c, 0, 71, 101
2, 144960, Note_on_c, 0, 78, 101
2, 145200, Note_on_c, 0, 78, 0
2, 145200, Note_on_c, 0, 71, 0
2, 145200, Note_on_c, 0, 66, 0
2, 145680, Note_on_c, 0, 71, 101
2, 145920, Note_on_c, 0, 71, 0
2, 145920, Note_on_c, 0, 73, 101
2, 146160, Note_on_c, 0, 73, 0
2, 146160, Note_on_c, 0, 74, 101
2, 146400, Note_on_c, 0, 74, 0
2, 146400, Note_on_c, 0, 79, 101
2, 146640, Note_on_c, 0, 79, 0
2, 146640, Note_on_c, 0, 80, 101
2, 146880, Note_on_c, 0, 80, 0
2, 146880, Note_on_c, 0, 82, 101
2, 147120, Note_on_c, 0, 82, 0
2, 147120, Note_on_c, 0, 83, 101
2, 147360, Note_on_c, 0, 83, 0
2, 147360, Note_on_c, 0, 71, 101
2, 147360, Note_on_c, 0, 76, 101
2, 147360, Note_on_c, 0, 83, 101
2, 147720, Note_on_c, 0, 83, 0
2, 147720, Note_on_c, 0, 76, 0
2, 147720, Note_on_c, 0, 71, 0
2, 147720, Note_on_c, 0, 71, 101
2, 147720, Note_on_c, 0, 76, 101
2, 147720, Note_on_c, 0, 83, 101
2, 147840, Note_on_c, 0, 83, 0
2, 147840, Note_on_c, 0, 76, 0
2, 147840, Note_on_c, 0, 71, 0
2, 147840, Note_on_c, 0, 71, 101
2, 147840, Note_on_c, 0, 76, 101
2, 147840, Note_on_c, 0, 83, 101
2, 148080, Note_on_c, 0, 83, 0
2, 148080, Note_on_c, 0, 76, 0
2, 148080, Note_on_c, 0, 71, 0
2, 148320, Control_c, 0, 64, 127
2, 148320, Note_on_c, 0, 66, 101
2, 148440, Note_on_c, 0, 66, 0
2, 148440, Note_on_c, 0, 67, 101
2, 148560, Note_on_c, 0, 67, 0
2, 148560, Note_on_c, 0, 69, 101
2, 148680, Note_on_c, 0, 69, 0
2, 148680, Control_c, 0, 64, 0
2, 148680, Note_on_c, 0, 71, 101
2, 148800, Note_on_c, 0, 71, 0
2, 148800, Control_c, 0, 64, 127
2, 148800, Note_on_c, 0, 72, 101
2, 148920, Note_on_c, 0, 72, 0
2, 148920, Note_on_c, 0, 71, 101
2, 149040, Note_on_c, 0, 71, 0
2, 149040, Note_on_c, 0, 72, 101
2, 149160, Note_on_c, 0, 72, 0
2, 149160, Note_on_c, 0, 74, 101
2, 149280, Note_on_c, 0, 74, 0
2, 149280, Note_on_c, 0, 76, 101
2, 149400, Note_on_c, 0, 76, 0
2, 149400, Control_c, 0, 64, 0
2, 149400, Note_on_c, 0, 74, 101
2, 149520, Note_on_c, 0, 74, 0
2, 149520, Control_c, 0, 64, 127
2, 149520, Note_on_c, 0, 76, 101
2, 149640, Note_on_c, 0, 76, 0
2, 149640, Note_on_c, 0, 78, 101
2, 149760, Note_on_c, 0, 78, 0
2, 149760, Note_on_c, 0, 79, 101
2, 149880, Note_on_c, 0, 79, 0
2, 149880, Note_on_c, 0, 78, 101
2, 150000, Note_on_c, 0, 78, 0
2, 150000, Note_on_c, 0, 79, 101
2, 150120, Note_on_c, 0, 79, 0
2, 150120, Control_c, 0, 64, 0
2, 150120, Note_on_c, 0, 81, 101
2, 150240, Note_on_c, 0, 81, 0
2, 150240, Note_on_c, 0, 71, 101
2, 150240, Note_on_c, 0, 76, 101
2, 150240, Note_on_c, 0, 83, 101
2, 150600, Note_on_c, 0, 83, 0
2, 150600, Note_on_c, 0, 76, 0
2, 150600, Note_on_c, 0, 71, 0
2, 150600, Note_on_c, 0, 71, 101
2, 150600, Note_on_c, 0, 76, 101
2, 150600, Note_on_c, 0, 83, 101
2, 150720, Note_on_c, 0, 83, 0
2, 150720, Note_on_c, 0, 76, 0
2, 150720, Note_on_c, 0, 71, 0
2, 150720, Note_on_c, 0, 71, 101
2, 150720, Note_on_c, 0, 76, 101
2, 150720, Note_on_c, 0, 83, 101
2, 150960, Note_on_c, 0, 83, 0
2, 150960, Note_on_c, 0, 76, 0
2, 150960, Note_on_c, 0, 71, 0
2, 151200, Control_c, 0, 64, 127
2, 151200, Note_on_c, 0, 66, 101
2, 151320, Note_on_c, 0, 66, 0
2, 151320, Note_on_c, 0, 67, 101
2, 151440, Note_on_c, 0, 67, 0
2, 151440, Note_on_c, 0, 69, 101
2, 151560, Note_on_c, 0, 69, 0
2, 151560, Control_c, 0, 64, 0
2, 151560, Note_on_c, 0, 71, 101
2, 151680, Note_on_c, 0, 71, 0
2, 151680, Control_c, 0, 64, 127
2, 151680, Note_on_c, 0, 72, 101
2, 151800, Note_on_c, 0, 72, 0
2, 151800, Note_on_c, 0, 71, 101
2, 151920, Note_on_c, 0, 71, 0
2, 151920, Note_on_c, 0, 72, 101
2, 152040, Note_on_c, 0, 72, 0
2, 152040, Note_on_c, 0, 74, 101
2, 152160, Note_on_c, 0, 74, 0
2, 152160, Note_on_c, 0, 76, 101
2, 152280, Note_on_c, 0, 76, 0
2, 152280, Control_c, 0, 64, 0
2, 152280, Note_on_c, 0, 74, 101
2, 152400, Note_on_c, 0, 74, 0
2, 152400, Control_c, 0, 64, 127
2, 152400, Note_on_c, 0, 76, 101
2, 152520, Note_on_c, 0, 76, 0
2, 152520, Note_on_c, 0, 78, 101
2, 152640, Note_on_c, 0, 78, 0
2, 152640, Note_on_c, 0, 79, 101
2, 152760, Note_on_c, 0, 79, 0
2, 152760, Note_on_c, 0, 78, 101
2, 152880, Note_on_c, 0, 78, 0
2, 152880, Note_on_c, 0, 79, 101
2, 153000, Note_on_c, 0, 79, 0
2, 153000, Control_c, 0, 64, 0
2, 153000, Note_on_c, 0, 81, 101
2, 153120, Note_on_c, 0, 81, 0
2, 153120, Note_on_c, 0, 71, 101
2, 153120, Note_on_c, 0, 76, 101
2, 153120, Note_on_c, 0, 83, 101
2, 153480, Note_on_c, 0, 83, 0
2, 153480, Note_on_c, 0, 76, 0
2, 153480, Note_on_c, 0, 71, 0
2, 153480, Note_on_c, 0, 71, 101
2, 153480, Note_on_c, 0, 76, 101
2, 153480, Note_on_c, 0, 83, 101
2, 153600, Note_on_c, 0, 83, 0
2, 153600, Note_on_c, 0, 76, 0
2, 153600, Note_on_c, 0, 71, 0
2, 153600, Note_on_c, 0, 71, 101
2, 153600, Note_on_c, 0, 76, 101
2, 153600, Note_on_c, 0, 83, 101
2, 153840, Note_on_c, 0, 83, 0
2, 153840, Note_on_c, 0, 76, 0
2, 153840, Note_on_c, 0, 71, 0
2, 154320, Note_on_c, 0, 76, 101
2, 154560, Note_on_c, 0, 76, 0
2, 154560, Note_on_c, 0, 78, 101
2, 154800, Note_on_c, 0, 78, 0
2, 154800, Note_on_c, 0, 79, 101
2, 155040, Note_on_c, 0, 79, 0
2, 155040, Note_on_c, 0, 84, 101
2, 155280, Note_on_c, 0, 84, 0
2, 155280, Note_on_c, 0, 85, 101
2, 155520, Note_on_c, 0, 85, 0
2, 155520, Note_on_c, 0, 87, 101
2, 155760, Note_on_c, 0, 87, 0
2, 155760, Note_on_c, 0, 88, 101
2, 156000, Note_on_c, 0, 88, 0
2, 156000, Note_on_c, 0, 76, 101
2, 156000, Note_on_c, 0, 81, 101
2, 156000, Note_on_c, 0, 88, 101
2, 156360, Note_on_c, 0, 88, 0
2, 156360, Note_on_c, 0, 81, 0
2, 156360, Note_on_c, 0, 76, 0
2, 156360, Note_on_c, 0, 76, 101
2, 156360, Note_on_c, 0, 81, 101
2, 156360, Note_on_c, 0, 88, 101
2, 156480, Note_on_c, 0, 88, 0
2, 156480, Note_on_c, 0, 81, 0
2, 156480, Note_on_c, 0, 76, 0
2, 156480, Note_on_c, 0, 76, 101
2, 156480, Note_on_c, 0, 81, 101
2, 156480, Note_on_c, 0, 88, 101
2, 156720, Note_on_c, 0, 88, 0
2, 156720, Note_on_c, 0, 81, 0
2, 156720, Note_on_c, 0, 76, 0
2, 156720, Note_on_c, 0, 59, 101
2, 156720, Note_on_c, 0, 64, 101
2, 157080, Note_on_c, 0, 64, 0
2, 157080, Note_on_c, 0, 59, 0
2, 157080, Note_on_c, 0, 59, 101
2, 157080, Note_on_c, 0, 64, 101
2, 157200, Note_on_c, 0, 64, 0
2, 157200, Note_on_c, 0, 59, 0
2, 157200, Note_on_c, 0, 59, 101
2, 157200, Note_on_c, 0, 64, 101
2, 157440, Note_on_c, 0, 64, 0
2, 157440, Note_on_c, 0, 59, 0
2, 157440, Note_on_c, 0, 76, 101
2, 157440, Note_on_c, 0, 81, 101
2, 157440, Note_on_c, 0, 88, 101
2, 157800, Note_on_c, 0, 88, 0
2, 157800, Note_on_c, 0, 81, 0
2, 157800, Note_on_c, 0, 76, 0
2, 157800, Note_on_c, 0, 76, 101
2, 157800, Note_on_c, 0, 81, 101
2, 157800, Note_on_c, 0, 88, 101
2, 157920, Note_on_c, 0, 88, 0
2, 157920, Note_on_c, 0, 81, 0
2, 157920, Note_on_c, 0, 76, 0
2, 157920, Note_on_c, 0, 76, 101
2, 157920, Note_on_c, 0, 81, 101
2, 157920, Note_on_c, 0, 88, 101
2, 158160, Note_on_c, 0, 88, 0
2, 158160, Note_on_c, 0, 81, 0
2, 158160, Note_on_c, 0, 76, 0
2, 158160, Note_on_c, 0, 59, 101
2, 158160, Note_on_c, 0, 64, 101
2, 158520, Note_on_c, 0, 64, 0
2, 158520, Note_on_c, 0, 59, 0
2, 158520, Note_on_c, 0, 59, 101
2, 158520, Note_on_c, 0, 64, 101
2, 158640, Note_on_c, 0, 64, 0
2, 158640, Note_on_c, 0, 59, 0
2, 158640, Note_on_c, 0, 59, 101
2, 158640, Note_on_c, 0, 64, 101
2, 158880, Note_on_c, 0, 64, 0
2, 158880, Note_on_c, 0, 59, 0
2, 158880, Note_on_c, 0, 76, 101
2, 158880, Note_on_c, 0, 81, 101
2, 158880, Note_on_c, 0, 88, 101
2, 159120, Note_on_c, 0, 88, 0
2, 159120, Note_on_c, 0, 81, 0
2, 159120, Note_on_c, 0, 76, 0
2, 159120, Note_on_c, 0, 76, 101
2, 159120, Note_on_c, 0, 81, 101
2, 159120, Note_on_c, 0, 88, 101
2, 159360, Note_on_c, 0, 88, 0
2, 159360, Note_on_c, 0, 81, 0
2, 159360, Note_on_c, 0, 76, 0
2, 159840, Note_on_c, 0, 76, 101
2, 159840, Note_on_c, 0, 81, 101
2, 159840, Note_on_c, 0, 88, 101
2, 160080, Note_on_c, 0, 88, 0
2, 160080, Note_on_c, 0, 81, 0
2, 160080, Note_on_c, 0, 76, 0
2, 160080, Note_on_c, 0, 76, 101
2, 160080, Note_on_c, 0, 81, 101
2, 160080, Note_on_c, 0, 88, 101
2, 160320, Note_on_c, 0, 88, 0
2, 160320, Note_on_c, 0, 81, 0
2, 160320, Note_on_c, 0, 76, 0
2, 160560, Note_on_c, 0, 76, 101
2, 160560, Note_on_c, 0, 81, 101
2, 160560, Note_on_c, 0, 88, 101
2, 160800, Note_on_c, 0, 88, 0
2, 160800, Note_on_c, 0, 81, 0
2, 160800, Note_on_c, 0, 76, 0
2, 161040, Note_on_c, 0, 76, 101
2, 161040, Note_on_c, 0, 81, 101
2, 161040, Note_on_c, 0, 88, 101
2, 161280, Note_on_c, 0, 88, 0
2, 161280, Note_on_c, 0, 81, 0
2, 161280, Note_on_c, 0, 76, 0
2, 161520, Note_on_c, 0, 76, 101
2, 161520, Note_on_c, 0, 81, 101
2, 161520, Note_on_c, 0, 88, 101
2, 161760, Note_on_c, 0, 88, 0
2, 161760, Note_on_c, 0, 81, 0
2, 161760, Note_on_c, 0, 76, 0
2, 161760, Note_on_c, 0, 64, 101
2, 162000, Note_on_c, 0, 64, 0
2, 162120, Note_on_c, 0, 64, 101
2, 162240, Note_on_c, 0, 64, 0
2, 162240, Note_on_c, 0, 64, 101
2, 162720, Note_on_c, 0, 64, 0
2, 162720, Note_on_c, 0, 57, 101
2, 162720, Note_on_c, 0, 64, 101
2, 162720, Note_on_c, 0, 66, 101
2, 162960, Note_on_c, 0, 66, 0
2, 162960, Note_on_c, 0, 64, 0
2, 162960, Note_on_c, 0, 57, 0
2, 162960, Note_on_c, 0, 59, 101
2, 162960, Note_on_c, 0, 64, 101
2, 162960, Note_on_c, 0, 67, 101
2, 163200, Note_on_c, 0, 67, 0
2, 163200, Note_on_c, 0, 64, 0
2, 163200, Note_on_c, 0, 59, 0
2, 163200, Note_on_c, 0, 60, 101
2, 163200, Note_on_c, 0, 64, 101
2, 163200, Note_on_c, 0, 69, 101
2, 163440, Note_on_c, 0, 69, 0
2, 163440, Note_on_c, 0, 64, 0
2, 163440, Note_on_c, 0, 60, 0
2, 163560, Note_on_c, 0, 69, 101
2, 163560, Note_on_c, 0, 81, 101
2, 163680, Note_on_c, 0, 81, 0
2, 163680, Note_on_c, 0, 69, 0
2, 163680, Note_on_c, 0, 69, 101
2, 163680, Note_on_c, 0, 81, 101
2, 164160, Note_on_c, 0, 81, 0
2, 164160, Note_on_c, 0, 69, 0
2, 164160, Note_on_c, 0, 71, 101
2, 164160, Note_on_c, 0, 83, 101
2, 164400, Note_on_c, 0, 83, 0
2, 164400, Note_on_c, 0, 71, 0
2, 164400, Note_on_c, 0, 72, 101
2, 164400, Note_on_c, 0, 84, 101
2, 164640, Note_on_c, 0, 84, 0
2, 164640, Note_on_c, 0, 72, 0
2, 164640, Note_on_c, 0, 67, 101
2, 164880, Note_on_c, 0, 67, 0
2, 165000, Note_on_c, 0, 67, 101
2, 165120, Note_on_c, 0, 67, 0
2, 165120, Note_on_c, 0, 67, 101
2, 165600, Note_on_c, 0, 67, 0
2, 165600, Note_on_c, 0, 60, 101
2, 165600, Note_on_c, 0, 67, 101
2, 165600, Note_on_c, 0, 69, 101
2, 165840, Note_on_c, 0, 69, 0
2, 165840, Note_on_c, 0, 67, 0
2, 165840, Note_on_c, 0, 60, 0
2, 165840, Note_on_c, 0, 62, 101
2, 165840, Note_on_c, 0, 67, 101
2, 165840, Note_on_c, 0, 71, 101
2, 166080, Note_on_c, 0, 71, 0
2, 166080, Note_on_c, 0, 67, 0
2, 166080, Note_on_c, 0, 62, 0
2, 166080, Note_on_c, 0, 64, 101
2, 166080, Note_on_c, 0, 67, 101
2, 166080, Note_on_c, 0, 72, 101
2, 166320, Note_on_c, 0, 72, 0
2, 166320, Note_on_c, 0, 67, 0
2, 166320, Note_on_c, 0, 64, 0
2, 166440, Note_on_c, 0, 76, 101
2, 166440, Note_on_c, 0, 88, 101
2, 166560, Note_on_c, 0, 88, 0
2, 166560, Note_on_c, 0, 76, 0
2, 166560, Note_on_c, 0, 76, 101
2, 166560, Note_on_c, 0, 88, 101
2, 167040, Note_on_c, 0, 88, 0
2, 167040, Note_on_c, 0, 76, 0
2, 167040, Note_on_c, 0, 78, 101
2, 167160, Note_on_c, 0, 78, 0
2, 167160, Note_on_c, 0, 90, 101
2, 167280, Note_on_c, 0, 90, 0
2, 167280, Note_on_c, 0, 79, 101
2, 167400, Note_on_c, 0, 79, 0
2, 167400, Note_on_c, 0, 91, 101
2, 167520, Note_on_c, 0, 91, 0
2, 167520, Note_on_c, 0, 81, 101
2, 167640, Note_on_c, 0, 81, 0
2, 167640, Note_on_c, 0, 93, 101
2, 167760, Note_on_c, 0, 93, 0
2, 167760, Note_on_c, 0, 79, 101
2, 167880, Note_on_c, 0, 79, 0
2, 167880, Note_on_c, 0, 91, 101
2, 168000, Note_on_c, 0, 91, 0
2, 168000, Note_on_c, 0, 78, 101
2, 168120, Note_on_c, 0, 78, 0
2, 168120, Note_on_c, 0, 90, 101
2, 168240, Note_on_c, 0, 90, 0
2, 168240, Note_on_c, 0, 76, 101
2, 168360, Note_on_c, 0, 76, 0
2, 168360, Note_on_c, 0, 88, 101
2, 168480, Note_on_c, 0, 88, 0
2, 168480, Note_on_c, 0, 78, 101
2, 168600, Note_on_c, 0, 78, 0
2, 168600, Note_on_c, 0, 90, 101
2, 168720, Note_on_c, 0, 90, 0
2, 168720, Note_on_c, 0, 79, 101
2, 168840, Note_on_c, 0, 79, 0
2, 168840, Note_on_c, 0, 91, 101
2, 168960, Note_on_c, 0, 91, 0
2, 168960, Note_on_c, 0, 81, 101
2, 169080, Note_on_c, 0, 81, 0
2, 169080, Note_on_c, 0, 93, 101
2, 169200, Note_on_c, 0, 93, 0
2, 169200, Note_on_c, 0, 79, 101
2, 169320, Note_on_c, 0, 79, 0
2, 169320, Note_on_c, 0, 91, 101
2, 169440, Note_on_c, 0, 91, 0
2, 169440, Note_on_c, 0, 78, 101
2, 169560, Note_on_c, 0, 78, 0
2, 169560, Note_on_c, 0, 90, 101
2, 169680, Note_on_c, 0, 90, 0
2, 169680, Note_on_c, 0, 76, 101
2, 169800, Note_on_c, 0, 76, 0
2, 169800, Note_on_c, 0, 88, 101
2, 169920, Note_on_c, 0, 88, 0
2, 169920, Note_on_c, 0, 78, 101
2, 170040, Note_on_c, 0, 78, 0
2, 170040, Note_on_c, 0, 90, 101
2, 170160, Note_on_c, 0, 90, 0
2, 170160, Note_on_c, 0, 79, 101
2, 170280, Note_on_c, 0, 79, 0
2, 170280, Note_on_c, 0, 91, 101
2, 170400, Note_on_c, 0, 91, 0
2, 170400, Note_on_c, 0, 81, 101
2, 170520, Note_on_c, 0, 81, 0
2, 170520, Note_on_c, 0, 93, 101
2, 170640, Note_on_c, 0, 93, 0
2, 170640, Note_on_c, 0, 79, 101
2, 170760, Note_on_c, 0, 79, 0
2, 170760, Note_on_c, 0, 91, 101
2, 170880, Note_on_c, 0, 91, 0
2, 170880, Note_on_c, 0, 78, 101
2, 171000, Note_on_c, 0, 78, 0
2, 171000, Note_on_c, 0, 90, 101
2, 171120, Note_on_c, 0, 90, 0
2, 171120, Note_on_c, 0, 76, 101
2, 171240, Note_on_c, 0, 76, 0
2, 171240, Note_on_c, 0, 88, 101
2, 171360, Note_on_c, 0, 88, 0
2, 171360, Note_on_c, 0, 74, 101
2, 171480, Note_on_c, 0, 74, 0
2, 171480, Note_on_c, 0, 86, 101
2, 171600, Note_on_c, 0, 86, 0
2, 171600, Note_on_c, 0, 72, 101
2, 171720, Note_on_c, 0, 72, 0
2, 171720, Note_on_c, 0, 84, 101
2, 171840, Note_on_c, 0, 84, 0
2, 171840, Note_on_c, 0, 71, 101
2, 171960, Note_on_c, 0, 71, 0
2, 171960, Note_on_c, 0, 83, 101
2, 172080, Note_on_c, 0, 83, 0
2, 172080, Note_on_c, 0, 69, 101
2, 172200, Note_on_c, 0, 69, 0
2, 172200, Note_on_c, 0, 81, 101
2, 172320, Note_on_c, 0, 81, 0
2, 172320, Note_on_c, 0, 67, 101
2, 172440, Note_on_c, 0, 67, 0
2, 172440, Note_on_c, 0, 79, 101
2, 172560, Note_on_c, 0, 79, 0
2, 172560, Note_on_c, 0, 66, 101
2, 172680, Note_on_c, 0, 66, 0
2, 172680, Note_on_c, 0, 78, 101
2, 172800, Note_on_c, 0, 78, 0
2, 172800, Note_on_c, 0, 64, 101
2, 172920, Note_on_c, 0, 64, 0
2, 172920, Note_on_c, 0, 76, 101
2, 173040, Note_on_c, 0, 76, 0
2, 173040, Note_on_c, 0, 63, 101
2, 173160, Note_on_c, 0, 63, 0
2, 173160, Note_on_c, 0, 75, 101
2, 173280, Note_on_c, 0, 75, 0
2, 173280, Note_on_c, 0, 64, 101
2, 173280, Note_on_c, 0, 76, 101
2, 173520, Note_on_c, 0, 76, 0
2, 173520, Note_on_c, 0, 64, 0
2, 173640, Note_on_c, 0, 64, 101
2, 173640, Note_on_c, 0, 76, 101
2, 173760, Note_on_c, 0, 76, 0
2, 173760, Note_on_c, 0, 64, 0
2, 173760, Note_on_c, 0, 64, 101
2, 173760, Note_on_c, 0, 76, 101
2, 174240, Note_on_c, 0, 76, 0
2, 174240, Note_on_c, 0, 64, 0
2, 174240, Note_on_c, 0, 66, 101
2, 174240, Note_on_c, 0, 78, 101
2, 174480, Note_on_c, 0, 78, 0
2, 174480, Note_on_c, 0, 66, 0
2, 174480, Note_on_c, 0, 67, 101
2, 174480, Note_on_c, 0, 79, 101
2, 174720, Note_on_c, 0, 79, 0
2, 174720, Note_on_c, 0, 67, 0
2, 174720, Note_on_c, 0, 69, 127
2, 174720, Note_on_c, 0, 81, 127
2, 174960, Note_on_c, 0, 81, 0
2, 174960, Note_on_c, 0, 69, 0
2, 174960, Note_on_c, 0, 67, 101
2, 174960, Note_on_c, 0, 79, 101
2, 175200, Note_on_c, 0, 79, 0
2, 175200, Note_on_c, 0, 67, 0
2, 175200, Note_on_c, 0, 66, 101
2, 175200, Note_on_c, 0, 78, 101
2, 175440, Note_on_c, 0, 78, 0
2, 175440, Note_on_c, 0, 66, 0
2, 175440, Note_on_c, 0, 64, 101
2, 175440, Note_on_c, 0, 76, 101
2, 175920, Note_on_c, 0, 76, 0
2, 175920, Note_on_c, 0, 64, 0
2, 175920, Note_on_c, 0, 71, 101
2, 176160, Note_on_c, 0, 71, 0
2, 176160, Note_on_c, 0, 67, 101
2, 176160, Note_on_c, 0, 79, 101
2, 176207, Note_on_c, 0, 79, 0
2, 176207, Note_on_c, 0, 67, 0
2, 176520, Note_on_c, 0, 67, 101
2, 176520, Note_on_c, 0, 79, 101
2, 176640, Note_on_c, 0, 79, 0
2, 176640, Note_on_c, 0, 67, 0
2, 176640, Note_on_c, 0, 67, 101
2, 176640, Note_on_c, 0, 79, 101
2, 177240, Note_on_c, 0, 79, 0
2, 177240, Note_on_c, 0, 67, 0
2, 177240, Note_on_c, 0, 66, 101
2, 177240, Note_on_c, 0, 78, 101
2, 177360, Note_on_c, 0, 78, 0
2, 177360, Note_on_c, 0, 66, 0
2, 177360, Note_on_c, 0, 66, 101
2, 177360, Note_on_c, 0, 78, 101
2, 177960, Note_on_c, 0, 78, 0
2, 177960, Note_on_c, 0, 66, 0
2, 177960, Note_on_c, 0, 64, 101
2, 177960, Note_on_c, 0, 76, 101
2, 178080, Note_on_c, 0, 76, 0
2, 178080, Note_on_c, 0, 64, 0
2, 178080, Note_on_c, 0, 64, 101
2, 178080, Note_on_c, 0, 76, 101
2, 178800, Note_on_c, 0, 76, 0
2, 178800, Note_on_c, 0, 64, 0
2, 178800, Note_on_c, 0, 69, 101
2, 179040, Note_on_c, 0, 69, 0
2, 179040, Note_on_c, 0, 64, 101
2, 179040, Note_on_c, 0, 76, 101
2, 179087, Note_on_c, 0, 76, 0
2, 179087, Note_on_c, 0, 64, 0
2, 179400, Note_on_c, 0, 64, 101
2, 179400, Note_on_c, 0, 76, 101
2, 179520, Note_on_c, 0, 76, 0
2, 179520, Note_on_c, 0, 64, 0
2, 179520, Note_on_c, 0, 64, 101
2, 179520, Note_on_c, 0, 76, 101
2, 180000, Note_on_c, 0, 76, 0
2, 180000, Note_on_c, 0, 64, 0
2, 180000, Note_on_c, 0, 66, 101
2, 180120, Note_on_c, 0, 66, 0
2, 180120, Note_on_c, 0, 78, 101
2, 180240, Note_on_c, 0, 78, 0
2, 180240, Note_on_c, 0, 67, 101
2, 180360, Note_on_c, 0, 67, 0
2, 180360, Note_on_c, 0, 79, 101
2, 180480, Note_on_c, 0, 79, 0
2, 180480, Note_on_c, 0, 69, 101
2, 180600, Note_on_c, 0, 69, 0
2, 180600, Note_on_c, 0, 81, 101
2, 180720, Note_on_c, 0, 81, 0
2, 180720, Note_on_c, 0, 67, 101
2, 180840, Note_on_c, 0, 67, 0
2, 180840, Note_on_c, 0, 79, 101
2, 180960, Note_on_c, 0, 79, 0
2, 180960, Note_on_c, 0, 66, 101
2, 181080, Note_on_c, 0, 66, 0
2, 181080, Note_on_c, 0, 78, 101
2, 181200, Note_on_c, 0, 78, 0
2, 181200, Note_on_c, 0, 71, 101
2, 181320, Note_on_c, 0, 71, 0
2, 181320, Note_on_c, 0, 83, 101
2, 181440, Note_on_c, 0, 83, 0
2, 181440, Note_on_c, 0, 69, 101
2, 181560, Note_on_c, 0, 69, 0
2, 181560, Note_on_c, 0, 81, 101
2, 181680, Note_on_c, 0, 81, 0
2, 181680, Note_on_c, 0, 67, 101
2, 181800, Note_on_c, 0, 67, 0
2, 181800, Note_on_c, 0, 79, 101
2, 181920, Note_on_c, 0, 79, 0
2, 181920, Note_on_c, 0, 72, 101
2, 182040, Note_on_c, 0, 72, 0
2, 182040, Note_on_c, 0, 84, 101
2, 182160, Note_on_c, 0, 84, 0
2, 182160, Note_on_c, 0, 71, 101
2, 182280, Note_on_c, 0, 71, 0
2, 182280, Note_on_c, 0, 83, 101
2, 182400, Note_on_c, 0, 83, 0
2, 182400, Note_on_c, 0, 69, 101
2, 182520, Note_on_c, 0, 69, 0
2, 182520, Note_on_c, 0, 81, 101
2, 182640, Note_on_c, 0, 81, 0
2, 182640, Note_on_c, 0, 73, 101
2, 182760, Note_on_c, 0, 73, 0
2, 182760, Note_on_c, 0, 85, 101
2, 182880, Note_on_c, 0, 85, 0
2, 182880, Note_on_c, 0, 71, 101
2, 183000, Note_on_c, 0, 71, 0
2, 183000, Note_on_c, 0, 83, 101
2, 183120, Note_on_c, 0, 83, 0
2, 183120, Note_on_c, 0, 70, 101
2, 183240, Note_on_c, 0, 70, 0
2, 183240, Note_on_c, 0, 82, 101
2, 183360, Note_on_c, 0, 82, 0
2, 183360, Note_on_c, 0, 74, 101
2, 183480, Note_on_c, 0, 74, 0
2, 183480, Note_on_c, 0, 86, 101
2, 183600, Note_on_c, 0, 86, 0
2, 183600, Note_on_c, 0, 73, 101
2, 183720, Note_on_c, 0, 73, 0
2, 183720, Note_on_c, 0, 85, 101
2, 183840, Note_on_c, 0, 85, 0
2, 183840, Note_on_c, 0, 71, 101
2, 183960, Note_on_c, 0, 71, 0
2, 183960, Note_on_c, 0, 83, 101
2, 184080, Note_on_c, 0, 83, 0
2, 184080, Note_on_c, 0, 78, 101
2, 184080, Note_on_c, 0, 90, 101
2, 184320, Note_on_c, 0, 90, 0
2, 184320, Note_on_c, 0, 78, 0
2, 184800, Note_on_c, 0, 66, 101
2, 186000, Note_on_c, 0, 66, 0
2, 186000, Note_on_c, 0, 68, 62
2, 186240, Note_on_c, 0, 68, 0
2, 186240, Note_on_c, 0, 67, 62
2, 186240, Note_on_c, 0, 70, 62
2, 186960, Note_on_c, 0, 70, 0
2, 186960, Note_on_c, 0, 67, 0
2, 186960, Note_on_c, 0, 66, 88
2, 186960, Note_on_c, 0, 71, 88
2, 187440, Note_on_c, 0, 71, 0
2, 187440, Note_on_c, 0, 66, 0
2, 187440, Note_on_c, 0, 66, 88
2, 187440, Note_on_c, 0, 70, 88
2, 187440, Note_on_c, 0, 73, 88
2, 187680, Note_on_c, 0, 73, 0
2, 187680, Note_on_c, 0, 70, 0
2, 187680, Note_on_c, 0, 66, 0
2, 187680, Note_on_c, 0, 66, 88
2, 187680, Note_on_c, 0, 71, 88
2, 187680, Note_on_c, 0, 74, 88
2, 188400, Note_on_c, 0, 74, 0
2, 188400, Note_on_c, 0, 71, 0
2, 188400, Note_on_c, 0, 66, 0
2, 188400, Note_on_c, 0, 67, 75
2, 188400, Note_on_c, 0, 71, 75
2, 188400, Note_on_c, 0, 73, 75
2, 189120, Note_on_c, 0, 73, 0
2, 189120, Note_on_c, 0, 71, 0
2, 189120, Note_on_c, 0, 67, 0
2, 189360, Note_on_c, 0, 90, 49
2, 189600, Note_on_c, 0, 90, 0
2, 189600, Note_on_c, 0, 78, 49
2, 189840, Note_on_c, 0, 78, 0
2, 189840, Note_on_c, 0, 66, 49
2, 190080, Note_on_c, 0, 66, 0
2, 190560, Note_on_c, 0, 66, 75
2, 191760, Note_on_c, 0, 66, 0
2, 191760, Note_on_c, 0, 68, 88
2, 192000, Note_on_c, 0, 68, 0
2, 192000, Note_on_c, 0, 67, 88
2, 192000, Note_on_c, 0, 70, 88
2, 192720, Note_on_c, 0, 70, 0
2, 192720, Note_on_c, 0, 67, 0
2, 192720, Note_on_c, 0, 66, 88
2, 192720, Note_on_c, 0, 71, 88
2, 193200, Note_on_c, 0, 71, 0
2, 193200, Note_on_c, 0, 66, 0
2, 193200, Note_on_c, 0, 66, 88
2, 193200, Note_on_c, 0, 70, 88
2, 193200, Note_on_c, 0, 73, 88
2, 193440, Note_on_c, 0, 73, 0
2, 193440, Note_on_c, 0, 70, 0
2, 193440, Note_on_c, 0, 66, 0
2, 193440, Note_on_c, 0, 66, 101
2, 193440, Note_on_c, 0, 71, 101
2, 193440, Note_on_c, 0, 76, 101
2, 194160, Note_on_c, 0, 76, 0
2, 194160, Note_on_c, 0, 71, 0
2, 194160, Note_on_c, 0, 66, 0
2, 194160, Note_on_c, 0, 74, 75
2, 194400, Note_on_c, 0, 74, 0
2, 194400, Note_on_c, 0, 73, 62
2, 194640, Note_on_c, 0, 73, 0
2, 194640, Note_on_c, 0, 71, 62
2, 194880, Note_on_c, 0, 71, 0
2, 195120, Note_on_c, 0, 90, 49
2, 195360, Note_on_c, 0, 90, 0
2, 195360, Note_on_c, 0, 78, 49
2, 195600, Note_on_c, 0, 78, 0
2, 195600, Note_on_c, 0, 66, 49
2, 195840, Note_on_c, 0, 66, 0
2, 196320, Note_on_c, 0, 66, 101
2, 196320, Note_on_c, 0, 71, 101
2, 196320, Note_on_c, 0, 78, 101
2, 197520, Note_on_c, 0, 78, 0
2, 197520, Note_on_c, 0, 71, 0
2, 197520, Note_on_c, 0, 66, 0
2, 197520, Note_on_c, 0, 67, 75
2, 197520, Note_on_c, 0, 71, 75
2, 197520, Note_on_c, 0, 76, 75
2, 197760, Note_on_c, 0, 76, 0
2, 197760, Note_on_c, 0, 71, 0
2, 197760, Note_on_c, 0, 67, 0
2, 197760, Note_on_c, 0, 66, 62
2, 197760, Note_on_c, 0, 70, 62
2, 197760, Note_on_c, 0, 73, 62
2, 199200, Note_on_c, 0, 73, 0
2, 199200, Note_on_c, 0, 70, 0
2, 199200, Note_on_c, 0, 66, 0
2, 199200, Note_on_c, 0, 66, 101
2, 199200, Note_on_c, 0, 71, 101
2, 199200, Note_on_c, 0, 78, 101
2, 200400, Note_on_c, 0, 78, 0
2, 200400, Note_on_c, 0, 71, 0
2, 200400, Note_on_c, 0, 66, 0
2, 200400, Note_on_c, 0, 67, 75
2, 200400, Note_on_c, 0, 71, 75
2, 200400, Note_on_c, 0, 76, 75
2, 200640, Note_on_c, 0, 76, 0
2, 200640, Note_on_c, 0, 71, 0
2, 200640, Note_on_c, 0, 67, 0
2, 200640, Note_on_c, 0, 66, 62
2, 200640, Note_on_c, 0, 70, 62
2, 200640, Note_on_c, 0, 73, 62
2, 202080, Note_on_c, 0, 73, 0
2, 202080, Note_on_c, 0, 70, 0
2, 202080, Note_on_c, 0, 66, 0
2, 202080, Note_on_c, 0, 66, 101
2, 202080, Note_on_c, 0, 78, 101
2, 202800, Note_on_c, 0, 78, 0
2, 202800, Note_on_c, 0, 66, 0
2, 202800, Note_on_c, 0, 66, 101
2, 202800, Note_on_c, 0, 78, 101
2, 203280, Note_on_c, 0, 78, 0
2, 203280, Note_on_c, 0, 66, 0
2, 203280, Note_on_c, 0, 66, 101
2, 203280, Note_on_c, 0, 78, 101
2, 203520, Note_on_c, 0, 78, 0
2, 203520, Note_on_c, 0, 66, 0
2, 203520, Note_on_c, 0, 66, 101
2, 203520, Note_on_c, 0, 78, 101
2, 204480, Note_on_c, 0, 78, 0
2, 204480, Note_on_c, 0, 66, 0
2, 204480, Note_on_c, 0, 64, 101
2, 204480, Note_on_c, 0, 76, 101
2, 204720, Note_on_c, 0, 76, 0
2, 204720, Note_on_c, 0, 64, 0
2, 204720, Note_on_c, 0, 62, 101
2, 204720, Note_on_c, 0, 74, 101
2, 204960, Note_on_c, 0, 74, 0
2, 204960, Note_on_c, 0, 62, 0
2, 204960, Note_on_c, 0, 66, 101
2, 204960, Note_on_c, 0, 78, 101
2, 205920, Note_on_c, 0, 78, 0
2, 205920, Note_on_c, 0, 66, 0
2, 205920, Note_on_c, 0, 64, 101
2, 205920, Note_on_c, 0, 76, 101
2, 206160, Note_on_c, 0, 76, 0
2, 206160, Note_on_c, 0, 64, 0
2, 206160, Note_on_c, 0, 62, 101
2, 206160, Note_on_c, 0, 74, 101
2, 206400, Note_on_c, 0, 74, 0
2, 206400, Note_on_c, 0, 62, 0
2, 206400, Note_on_c, 0, 66, 88
2, 206400, Note_on_c, 0, 69, 88
2, 206400, Note_on_c, 0, 78, 88
2, 207360, Note_on_c, 0, 78, 0
2, 207360, Note_on_c, 0, 69, 0
2, 207360, Note_on_c, 0, 66, 0
2, 207840, Note_on_c, 0, 66, 75
2, 209040, Note_on_c, 0, 66, 0
2, 209040, Note_on_c, 0, 62, 75
2, 209040, Note_on_c, 0, 65, 75
2, 209040, Note_on_c, 0, 68, 75
2, 209280, Note_on_c, 0, 68, 0
2, 209280, Note_on_c, 0, 65, 0
2, 209280, Note_on_c, 0, 62, 0
2, 209280, Note_on_c, 0, 61, 75
2, 209280, Note_on_c, 0, 64, 75
2, 209280, Note_on_c, 0, 70, 75
2, 210000, Note_on_c, 0, 70, 0
2, 210000, Note_on_c, 0, 64, 0
2, 210000, Note_on_c, 0, 61, 0
2, 210000, Note_on_c, 0, 59, 88
2, 210000, Note_on_c, 0, 66, 88
2, 210000, Note_on_c, 0, 71, 88
2, 210480, Note_on_c, 0, 71, 0
2, 210480, Note_on_c, 0, 66, 0
2, 210480, Note_on_c, 0, 59, 0
2, 210480, Note_on_c, 0, 61, 88
2, 210480, Note_on_c, 0, 66, 88
2, 210480, Note_on_c, 0, 73, 88
2, 210720, Note_on_c, 0, 73, 0
2, 210720, Note_on_c, 0, 66, 0
2, 210720, Note_on_c, 0, 61, 0
2, 210720, Note_on_c, 0, 62, 88
2, 210720, Note_on_c, 0, 66, 88
2, 210720, Note_on_c, 0, 71, 88
2, 210720, Note_on_c, 0, 74, 88
2, 211440, Note_on_c, 0, 74, 0
2, 211440, Note_on_c, 0, 62, 0
2, 211440, Note_on_c, 0, 66, 0
2, 211440, Note_on_c, 0, 71, 0
2, 211440, Note_on_c, 0, 67, 75
2, 211440, Note_on_c, 0, 71, 75
2, 211440, Note_on_c, 0, 73, 75
2, 212160, Note_on_c, 0, 73, 0
2, 212160, Note_on_c, 0, 71, 0
2, 212160, Note_on_c, 0, 67, 0
2, 212160, Note_on_c, 0, 66, 62
2, 213600, Note_on_c, 0, 66, 0
2, 213600, Note_on_c, 0, 66, 75
2, 214800, Note_on_c, 0, 66, 0
2, 214800, Note_on_c, 0, 62, 75
2, 214800, Note_on_c, 0, 65, 75
2, 214800, Note_on_c, 0, 68, 75
2, 215040, Note_on_c, 0, 68, 0
2, 215040, Note_on_c, 0, 65, 0
2, 215040, Note_on_c, 0, 62, 0
2, 215040, Note_on_c, 0, 61, 75
2, 215040, Note_on_c, 0, 64, 75
2, 215040, Note_on_c, 0, 70, 75
2, 215760, Note_on_c, 0, 70, 0
2, 215760, Note_on_c, 0, 64, 0
2, 215760, Note_on_c, 0, 61, 0
2, 215760, Note_on_c, 0, 59, 88
2, 215760, Note_on_c, 0, 66, 88
2, 215760, Note_on_c, 0, 71, 88
2, 216240, Note_on_c, 0, 71, 0
2, 216240, Note_on_c, 0, 66, 0
2, 216240, Note_on_c, 0, 59, 0
2, 216240, Note_on_c, 0, 61, 88
2, 216240, Note_on_c, 0, 66, 88
2, 216240, Note_on_c, 0, 73, 88
2, 216480, Note_on_c, 0, 73, 0
2, 216480, Note_on_c, 0, 66, 0
2, 216480, Note_on_c, 0, 61, 0
2, 216480, Note_on_c, 0, 64, 101
2, 216480, Note_on_c, 0, 66, 101
2, 216480, Note_on_c, 0, 71, 101
2, 216480, Note_on_c, 0, 76, 101
2, 217200, Note_on_c, 0, 76, 0
2, 217200, Note_on_c, 0, 64, 0
2, 217200, Note_on_c, 0, 66, 0
2, 217200, Note_on_c, 0, 71, 0
2, 217200, Note_on_c, 0, 74, 101
2, 217440, Note_on_c, 0, 74, 0
2, 217440, Note_on_c, 0, 73, 88
2, 217680, Note_on_c, 0, 73, 0
2, 217680, Note_on_c, 0, 71, 88
2, 217920, Note_on_c, 0, 71, 0
2, 217920, Note_on_c, 0, 66, 75
2, 219360, Note_on_c, 0, 66, 0
2, 219360, Note_on_c, 0, 71, 88
2, 220320, Note_on_c, 0, 71, 0
2, 220320, Note_on_c, 0, 69, 62
2, 220367, Note_on_c, 0, 69, 0
2, 220560, Note_on_c, 0, 71, 62
2, 220607, Note_on_c, 0, 71, 0
2, 221040, Note_on_c, 0, 59, 62
2, 221087, Note_on_c, 0, 59, 0
2, 221280, Note_on_c, 0, 67, 62
2, 221327, Note_on_c, 0, 67, 0
2, 221520, Note_on_c, 0, 71, 62
2, 221567, Note_on_c, 0, 71, 0
2, 221760, Note_on_c, 0, 76, 62
2, 221807, Note_on_c, 0, 76, 0
2, 222000, Note_on_c, 0, 83, 62
2, 222047, Note_on_c, 0, 83, 0
2, 222240, Note_on_c, 0, 69, 88
2, 223200, Note_on_c, 0, 69, 0
2, 223200, Note_on_c, 0, 67, 62
2, 223247, Note_on_c, 0, 67, 0
2, 223440, Note_on_c, 0, 69, 62
2, 223487, Note_on_c, 0, 69, 0
2, 223920, Note_on_c, 0, 57, 62
2, 223967, Note_on_c, 0, 57, 0
2, 224160, Note_on_c, 0, 66, 62
2, 224207, Note_on_c, 0, 66, 0
2, 224400, Note_on_c, 0, 69, 62
2, 224447, Note_on_c, 0, 69, 0
2, 224640, Note_on_c, 0, 74, 62
2, 224687, Note_on_c, 0, 74, 0
2, 224880, Note_on_c, 0, 81, 62
2, 224927, Note_on_c, 0, 81, 0
2, 225120, Note_on_c, 0, 62, 49
2, 225120, Note_on_c, 0, 67, 49
2, 225840, Note_on_c, 0, 67, 0
2, 225840, Note_on_c, 0, 62, 0
2, 225840, Note_on_c, 0, 64, 49
2, 225840, Note_on_c, 0, 67, 49
2, 225840, Note_on_c, 0, 73, 49
2, 225840, Note_on_c, 0, 76, 49
2, 226560, Note_on_c, 0, 76, 0
2, 226560, Note_on_c, 0, 64, 0
2, 226560, Note_on_c, 0, 67, 0
2, 226560, Note_on_c, 0, 73, 0
2, 226560, Note_on_c, 0, 61, 49
2, 226560, Note_on_c, 0, 66, 49
2, 227280, Note_on_c, 0, 66, 0
2, 227280, Note_on_c, 0, 61, 0
2, 227280, Note_on_c, 0, 62, 49
2, 227280, Note_on_c, 0, 66, 49
2, 227280, Note_on_c, 0, 71, 49
2, 227280, Note_on_c, 0, 74, 49
2, 228000, Note_on_c, 0, 74, 0
2, 228000, Note_on_c, 0, 62, 0
2, 228000, Note_on_c, 0, 66, 0
2, 228000, Note_on_c, 0, 71, 0
2, 228000, Note_on_c, 0, 59, 49
2, 228000, Note_on_c, 0, 64, 49
2, 228720, Note_on_c, 0, 64, 0
2, 228720, Note_on_c, 0, 59, 0
2, 228720, Note_on_c, 0, 61, 49
2, 228720, Note_on_c, 0, 64, 49
2, 228720, Note_on_c, 0, 69, 49
2, 228720, Note_on_c, 0, 73, 49
2, 229200, Note_on_c, 0, 73, 0
2, 229200, Note_on_c, 0, 61, 0
2, 229200, Note_on_c, 0, 64, 0
2, 229200, Note_on_c, 0, 69, 0
2, 229440, Note_on_c, 0, 57, 49
2, 229440, Note_on_c, 0, 62, 49
2, 230160, Note_on_c, 0, 62, 0
2, 230160, Note_on_c, 0, 57, 0
2, 230160, Note_on_c, 0, 59, 49
2, 230160, Note_on_c, 0, 62, 49
2, 230160, Note_on_c, 0, 67, 49
2, 230160, Note_on_c, 0, 71, 49
2, 230880, Note_on_c, 0, 71, 0
2, 230880, Note_on_c, 0, 59, 0
2, 230880, Note_on_c, 0, 62, 0
2, 230880, Note_on_c, 0, 67, 0
2, 230880, Note_on_c, 0, 61, 49
2, 231840, Note_on_c, 0, 61, 0
2, 231840, Note_on_c, 0, 59, 49
2, 231887, Note_on_c, 0, 59, 0
2, 232080, Note_on_c, 0, 61, 49
2, 232127, Note_on_c, 0, 61, 0
2, 232320, Note_on_c, 0, 73, 49
2, 233280, Note_on_c, 0, 73, 0
2, 233280, Note_on_c, 0, 71, 49
2, 233520, Note_on_c, 0, 71, 0
2, 233520, Note_on_c, 0, 73, 49
2, 233760, Note_on_c, 0, 73, 0
2, 233760, Note_on_c, 0, 64, 62
2, 234720, Note_on_c, 0, 64, 0
2, 234720, Note_on_c, 0, 63, 62
2, 234767, Note_on_c, 0, 63, 0
2, 234960, Note_on_c, 0, 64, 62
2, 235007, Note_on_c, 0, 64, 0
2, 235200, Note_on_c, 0, 76, 62
2, 236160, Note_on_c, 0, 76, 0
2, 236160, Note_on_c, 0, 75, 62
2, 236400, Note_on_c, 0, 75, 0
2, 236400, Note_on_c, 0, 76, 62
2, 236640, Note_on_c, 0, 76, 0
2, 237360, Note_on_c, 0, 69, 101
2, 237360, Note_on_c, 0, 76, 101
2, 237360, Note_on_c, 0, 81, 101
2, 237407, Note_on_c, 0, 81, 0
2, 237407, Note_on_c, 0, 76, 0
2, 237407, Note_on_c, 0, 69, 0
2, 238320, Note_on_c, 0, 61, 101
2, 238367, Note_on_c, 0, 61, 0
2, 238560, Note_on_c, 0, 64, 101
2, 238607, Note_on_c, 0, 64, 0
2, 238800, Note_on_c, 0, 69, 101
2, 238847, Note_on_c, 0, 69, 0
2, 239040, Note_on_c, 0, 73, 101
2, 239087, Note_on_c, 0, 73, 0
2, 239280, Note_on_c, 0, 76, 101
2, 239327, Note_on_c, 0, 76, 0
2, 239520, Control_c, 0, 64, 127
2, 239520, Note_on_c, 0, 69, 88
2, 239520, Note_on_c, 0, 78, 88
2, 239520, Note_on_c, 0, 81, 88
2, 240000, Note_on_c, 0, 81, 0
2, 240000, Note_on_c, 0, 78, 0
2, 240000, Note_on_c, 0, 69, 0
2, 240000, Note_on_c, 0, 66, 88
2, 240000, Note_on_c, 0, 74, 88
2, 240240, Note_on_c, 0, 74, 0
2, 240240, Note_on_c, 0, 66, 0
2, 240240, Note_on_c, 0, 69, 88
2, 240240, Note_on_c, 0, 78, 88
2, 240240, Note_on_c, 0, 81, 88
2, 240720, Note_on_c, 0, 81, 0
2, 240720, Note_on_c, 0, 78, 0
2, 240720, Note_on_c, 0, 69, 0
2, 240720, Note_on_c, 0, 66, 88
2, 240720, Note_on_c, 0, 74, 88
2, 240960, Note_on_c, 0, 74, 0
2, 240960, Note_on_c, 0, 66, 0
2, 240960, Note_on_c, 0, 69, 88
2, 240960, Note_on_c, 0, 78, 88
2, 240960, Note_on_c, 0, 81, 88
2, 241440, Note_on_c, 0, 81, 0
2, 241440, Note_on_c, 0, 78, 0
2, 241440, Note_on_c, 0, 69, 0
2, 241440, Note_on_c, 0, 66, 88
2, 241440, Note_on_c, 0, 74, 88
2, 241680, Note_on_c, 0, 74, 0
2, 241680, Note_on_c, 0, 66, 0
2, 241680, Note_on_c, 0, 69, 88
2, 241680, Note_on_c, 0, 78, 88
2, 241680, Note_on_c, 0, 81, 88
2, 242160, Note_on_c, 0, 81, 0
2, 242160, Note_on_c, 0, 78, 0
2, 242160, Note_on_c, 0, 69, 0
2, 242160, Note_on_c, 0, 66, 88
2, 242160, Note_on_c, 0, 74, 88
2, 242400, Note_on_c, 0, 74, 0
2, 242400, Note_on_c, 0, 66, 0
2, 242400, Control_c, 0, 64, 0
2, 242640, Note_on_c, 0, 69, 75
2, 242880, Note_on_c, 0, 69, 0
2, 242880, Note_on_c, 0, 68, 75
2, 242880, Note_on_c, 0, 71, 75
2, 243120, Note_on_c, 0, 71, 0
2, 243120, Note_on_c, 0, 68, 0
2, 243120, Note_on_c, 0, 73, 75
2, 243360, Note_on_c, 0, 73, 0
2, 243360, Note_on_c, 0, 74, 88
2, 243600, Note_on_c, 0, 74, 0
2, 243600, Note_on_c, 0, 76, 88
2, 243840, Note_on_c, 0, 76, 0
2, 243840, Note_on_c, 0, 69, 88
2, 243840, Note_on_c, 0, 78, 88
2, 244080, Note_on_c, 0, 78, 0
2, 244080, Note_on_c, 0, 69, 0
2, 244080, Note_on_c, 0, 67, 101
2, 244080, Note_on_c, 0, 79, 101
2, 244320, Note_on_c, 0, 79, 0
2, 244320, Note_on_c, 0, 67, 0
2, 244320, Note_on_c, 0, 69, 101
2, 244320, Note_on_c, 0, 78, 101
2, 244320, Note_on_c, 0, 81, 101
2, 244560, Note_on_c, 0, 81, 0
2, 244560, Note_on_c, 0, 78, 0
2, 244560, Note_on_c, 0, 69, 0
2, 244560, Note_on_c, 0, 68, 101
2, 244560, Note_on_c, 0, 74, 101
2, 244560, Note_on_c, 0, 78, 101
2, 245040, Note_on_c, 0, 78, 0
2, 245040, Note_on_c, 0, 74, 0
2, 245040, Note_on_c, 0, 68, 0
2, 245040, Note_on_c, 0, 67, 75
2, 245040, Note_on_c, 0, 69, 75
2, 245040, Note_on_c, 0, 76, 75
2, 245280, Note_on_c, 0, 76, 0
2, 245280, Note_on_c, 0, 69, 0
2, 245280, Note_on_c, 0, 67, 0
2, 245280, Control_c, 0, 64, 127
2, 245280, Note_on_c, 0, 69, 88
2, 245280, Note_on_c, 0, 78, 88
2, 245280, Note_on_c, 0, 81, 88
2, 245760, Note_on_c, 0, 81, 0
2, 245760, Note_on_c, 0, 78, 0
2, 245760, Note_on_c, 0, 69, 0
2, 245760, Note_on_c, 0, 66, 88
2, 245760, Note_on_c, 0, 74, 88
2, 246000, Note_on_c, 0, 74, 0
2, 246000, Note_on_c, 0, 66, 0
2, 246000, Note_on_c, 0, 69, 88
2, 246000, Note_on_c, 0, 78, 88
2, 246000, Note_on_c, 0, 81, 88
2, 246480, Note_on_c, 0, 81, 0
2, 246480, Note_on_c, 0, 78, 0
2, 246480, Note_on_c, 0, 69, 0
2, 246480, Note_on_c, 0, 66, 88
2, 246480, Note_on_c, 0, 74, 88
2, 246720, Note_on_c, 0, 74, 0
2, 246720, Note_on_c, 0, 66, 0
2, 246720, Note_on_c, 0, 69, 88
2, 246720, Note_on_c, 0, 78, 88
2, 246720, Note_on_c, 0, 81, 88
2, 247200, Note_on_c, 0, 81, 0
2, 247200, Note_on_c, 0, 78, 0
2, 247200, Note_on_c, 0, 69, 0
2, 247200, Note_on_c, 0, 66, 88
2, 247200, Note_on_c, 0, 74, 88
2, 247440, Note_on_c, 0, 74, 0
2, 247440, Note_on_c, 0, 66, 0
2, 247440, Note_on_c, 0, 69, 88
2, 247440, Note_on_c, 0, 78, 88
2, 247440, Note_on_c, 0, 81, 88
2, 247920, Note_on_c, 0, 81, 0
2, 247920, Note_on_c, 0, 78, 0
2, 247920, Note_on_c, 0, 69, 0
2, 247920, Note_on_c, 0, 66, 88
2, 247920, Note_on_c, 0, 74, 88
2, 248160, Note_on_c, 0, 74, 0
2, 248160, Note_on_c, 0, 66, 0
2, 248160, Control_c, 0, 64, 0
2, 248400, Note_on_c, 0, 69, 75
2, 248640, Note_on_c, 0, 69, 0
2, 248640, Note_on_c, 0, 68, 75
2, 248640, Note_on_c, 0, 71, 75
2, 248880, Note_on_c, 0, 71, 0
2, 248880, Note_on_c, 0, 68, 0
2, 248880, Note_on_c, 0, 73, 75
2, 249120, Note_on_c, 0, 73, 0
2, 249120, Note_on_c, 0, 74, 88
2, 249360, Note_on_c, 0, 74, 0
2, 249360, Note_on_c, 0, 76, 88
2, 249600, Note_on_c, 0, 76, 0
2, 249600, Note_on_c, 0, 69, 88
2, 249600, Note_on_c, 0, 78, 88
2, 249840, Note_on_c, 0, 78, 0
2, 249840, Note_on_c, 0, 69, 0
2, 249840, Note_on_c, 0, 67, 101
2, 249840, Note_on_c, 0, 79, 101
2, 250080, Note_on_c, 0, 79, 0
2, 250080, Note_on_c, 0, 67, 0
2, 250080, Note_on_c, 0, 69, 101
2, 250080, Note_on_c, 0, 74, 101
2, 250080, Note_on_c, 0, 78, 101
2, 250320, Note_on_c, 0, 78, 0
2, 250320, Note_on_c, 0, 74, 0
2, 250320, Note_on_c, 0, 69, 0
2, 250320, Note_on_c, 0, 74, 101
2, 250320, Note_on_c, 0, 76, 101
2, 250800, Note_on_c, 0, 76, 0
2, 250800, Note_on_c, 0, 74, 0
2, 250800, Note_on_c, 0, 69, 62
2, 251040, Note_on_c, 0, 69, 0
2, 251040, Control_c, 0, 64, 127
2, 251040, Note_on_c, 0, 69, 88
2, 251040, Note_on_c, 0, 78, 88
2, 251040, Note_on_c, 0, 81, 88
2, 251520, Note_on_c, 0, 81, 0
2, 251520, Note_on_c, 0, 78, 0
2, 251520, Note_on_c, 0, 69, 0
2, 251520, Note_on_c, 0, 66, 88
2, 251520, Note_on_c, 0, 74, 88
2, 251760, Note_on_c, 0, 74, 0
2, 251760, Note_on_c, 0, 66, 0
2, 251760, Note_on_c, 0, 69, 88
2, 251760, Note_on_c, 0, 78, 88
2, 251760, Note_on_c, 0, 81, 88
2, 252240, Note_on_c, 0, 81, 0
2, 252240, Note_on_c, 0, 78, 0
2, 252240, Note_on_c, 0, 69, 0
2, 252240, Note_on_c, 0, 66, 88
2, 252240, Note_on_c, 0, 74, 88
2, 252480, Note_on_c, 0, 74, 0
2, 252480, Note_on_c, 0, 66, 0
2, 252480, Note_on_c, 0, 69, 88
2, 252480, Note_on_c, 0, 78, 88
2, 252480, Note_on_c, 0, 81, 88
2, 252960, Note_on_c, 0, 81, 0
2, 252960, Note_on_c, 0, 78, 0
2, 252960, Note_on_c, 0, 69, 0
2, 252960, Note_on_c, 0, 66, 88
2, 252960, Note_on_c, 0, 74, 88
2, 253200, Note_on_c, 0, 74, 0
2, 253200, Note_on_c, 0, 66, 0
2, 253200, Note_on_c, 0, 69, 88
2, 253200, Note_on_c, 0, 78, 88
2, 253200, Note_on_c, 0, 81, 88
2, 253680, Note_on_c, 0, 81, 0
2, 253680, Note_on_c, 0, 78, 0
2, 253680, Note_on_c, 0, 69, 0
2, 253680, Note_on_c, 0, 66, 88
2, 253680, Note_on_c, 0, 74, 88
2, 253920, Note_on_c, 0, 74, 0
2, 253920, Note_on_c, 0, 66, 0
2, 253920, Control_c, 0, 64, 0
2, 254160, Note_on_c, 0, 69, 75
2, 254400, Note_on_c, 0, 69, 0
2, 254400, Note_on_c, 0, 68, 75
2, 254400, Note_on_c, 0, 71, 75
2, 254640, Note_on_c, 0, 71, 0
2, 254640, Note_on_c, 0, 68, 0
2, 254640, Note_on_c, 0, 73, 75
2, 254880, Note_on_c, 0, 73, 0
2, 254880, Note_on_c, 0, 74, 88
2, 255120, Note_on_c, 0, 74, 0
2, 255120, Note_on_c, 0, 76, 88
2, 255360, Note_on_c, 0, 76, 0
2, 255360, Note_on_c, 0, 69, 88
2, 255360, Note_on_c, 0, 78, 88
2, 255600, Note_on_c, 0, 78, 0
2, 255600, Note_on_c, 0, 69, 0
2, 255600, Note_on_c, 0, 67, 101
2, 255600, Note_on_c, 0, 79, 101
2, 255840, Note_on_c, 0, 79, 0
2, 255840, Note_on_c, 0, 67, 0
2, 255840, Note_on_c, 0, 69, 101
2, 255840, Note_on_c, 0, 78, 101
2, 255840, Note_on_c, 0, 81, 101
2, 256080, Note_on_c, 0, 81, 0
2, 256080, Note_on_c, 0, 78, 0
2, 256080, Note_on_c, 0, 69, 0
2, 256080, Note_on_c, 0, 68, 101
2, 256080, Note_on_c, 0, 74, 101
2, 256080, Note_on_c, 0, 78, 101
2, 256560, Note_on_c, 0, 78, 0
2, 256560, Note_on_c, 0, 74, 0
2, 256560, Note_on_c, 0, 68, 0
2, 256560, Note_on_c, 0, 67, 75
2, 256560, Note_on_c, 0, 69, 75
2, 256560, Note_on_c, 0, 76, 75
2, 256800, Note_on_c, 0, 76, 0
2, 256800, Note_on_c, 0, 69, 0
2, 256800, Note_on_c, 0, 67, 0
2, 256800, Control_c, 0, 64, 127
2, 256800, Note_on_c, 0, 69, 88
2, 256800, Note_on_c, 0, 78, 88
2, 256800, Note_on_c, 0, 81, 88
2, 257280, Note_on_c, 0, 81, 0
2, 257280, Note_on_c, 0, 78, 0
2, 257280, Note_on_c, 0, 69, 0
2, 257280, Note_on_c, 0, 66, 88
2, 257280, Note_on_c, 0, 74, 88
2, 257520, Note_on_c, 0, 74, 0
2, 257520, Note_on_c, 0, 66, 0
2, 257520, Note_on_c, 0, 69, 88
2, 257520, Note_on_c, 0, 78, 88
2, 257520, Note_on_c, 0, 81, 88
2, 258000, Note_on_c, 0, 81, 0
2, 258000, Note_on_c, 0, 78, 0
2, 258000, Note_on_c, 0, 69, 0
2, 258000, Note_on_c, 0, 66, 88
2, 258000, Note_on_c, 0, 74, 88
2, 258240, Note_on_c, 0, 74, 0
2, 258240, Note_on_c, 0, 66, 0
2, 258240, Note_on_c, 0, 69, 88
2, 258240, Note_on_c, 0, 78, 88
2, 258240, Note_on_c, 0, 81, 88
2, 258720, Note_on_c, 0, 81, 0
2, 258720, Note_on_c, 0, 78, 0
2, 258720, Note_on_c, 0, 69, 0
2, 258720, Note_on_c, 0, 66, 88
2, 258720, Note_on_c, 0, 74, 88
2, 258960, Note_on_c, 0, 74, 0
2, 258960, Note_on_c, 0, 66, 0
2, 258960, Note_on_c, 0, 69, 88
2, 258960, Note_on_c, 0, 78, 88
2, 258960, Note_on_c, 0, 81, 88
2, 259440, Note_on_c, 0, 81, 0
2, 259440, Note_on_c, 0, 78, 0
2, 259440, Note_on_c, 0, 69, 0
2, 259440, Note_on_c, 0, 66, 88
2, 259440, Note_on_c, 0, 74, 88
2, 259680, Note_on_c, 0, 74, 0
2, 259680, Note_on_c, 0, 66, 0
2, 259680, Control_c, 0, 64, 0
2, 259920, Note_on_c, 0, 69, 75
2, 260160, Note_on_c, 0, 69, 0
2, 260160, Note_on_c, 0, 68, 75
2, 260160, Note_on_c, 0, 71, 75
2, 260400, Note_on_c, 0, 71, 0
2, 260400, Note_on_c, 0, 68, 0
2, 260400, Note_on_c, 0, 73, 75
2, 260640, Note_on_c, 0, 73, 0
2, 260640, Note_on_c, 0, 74, 88
2, 260880, Note_on_c, 0, 74, 0
2, 260880, Note_on_c, 0, 76, 88
2, 261120, Note_on_c, 0, 76, 0
2, 261120, Note_on_c, 0, 69, 88
2, 261120, Note_on_c, 0, 78, 88
2, 261360, Note_on_c, 0, 78, 0
2, 261360, Note_on_c, 0, 69, 0
2, 261360, Note_on_c, 0, 67, 101
2, 261360, Note_on_c, 0, 79, 101
2, 261600, Note_on_c, 0, 79, 0
2, 261600, Note_on_c, 0, 67, 0
2, 261600, Note_on_c, 0, 69, 101
2, 261600, Note_on_c, 0, 74, 101
2, 261600, Note_on_c, 0, 78, 101
2, 261840, Note_on_c, 0, 78, 0
2, 261840, Note_on_c, 0, 74, 0
2, 261840, Note_on_c, 0, 69, 0
2, 261840, Note_on_c, 0, 74, 101
2, 261840, Note_on_c, 0, 76, 101
2, 262320, Note_on_c, 0, 76, 0
2, 262320, Note_on_c, 0, 74, 0
2, 262320, Note_on_c, 0, 69, 75
2, 262560, Note_on_c, 0, 69, 0
2, 262800, Note_on_c, 0, 66, 62
2, 262800, Note_on_c, 0, 78, 62
2, 263280, Note_on_c, 0, 78, 0
2, 263280, Note_on_c, 0, 66, 0
2, 263280, Note_on_c, 0, 64, 62
2, 263280, Note_on_c, 0, 69, 62
2, 263280, Note_on_c, 0, 76, 62
2, 263760, Note_on_c, 0, 76, 0
2, 263760, Note_on_c, 0, 69, 0
2, 263760, Note_on_c, 0, 64, 0
2, 263760, Note_on_c, 0, 62, 62
2, 263760, Note_on_c, 0, 74, 62
2, 264000, Note_on_c, 0, 74, 0
2, 264000, Note_on_c, 0, 62, 0
2, 264240, Note_on_c, 0, 67, 62
2, 264240, Note_on_c, 0, 79, 62
2, 264720, Note_on_c, 0, 79, 0
2, 264720, Note_on_c, 0, 67, 0
2, 264720, Note_on_c, 0, 66, 62
2, 264720, Note_on_c, 0, 69, 62
2, 264720, Note_on_c, 0, 78, 62
2, 265200, Note_on_c, 0, 78, 0
2, 265200, Note_on_c, 0, 69, 0
2, 265200, Note_on_c, 0, 66, 0
2, 265200, Note_on_c, 0, 64, 62
2, 265200, Note_on_c, 0, 76, 62
2, 265440, Note_on_c, 0, 76, 0
2, 265440, Note_on_c, 0, 64, 0
2, 265680, Note_on_c, 0, 69, 62
2, 265680, Note_on_c, 0, 81, 62
2, 266160, Note_on_c, 0, 81, 0
2, 266160, Note_on_c, 0, 69, 0
2, 266160, Note_on_c, 0, 73, 75
2, 266160, Note_on_c, 0, 78, 75
2, 266160, Note_on_c, 0, 85, 75
2, 266640, Note_on_c, 0, 85, 0
2, 266640, Note_on_c, 0, 78, 0
2, 266640, Note_on_c, 0, 73, 0
2, 266640, Note_on_c, 0, 71, 75
2, 266640, Note_on_c, 0, 83, 75
2, 267120, Note_on_c, 0, 83, 0
2, 267120, Note_on_c, 0, 71, 0
2, 267120, Note_on_c, 0, 69, 75
2, 267120, Note_on_c, 0, 81, 75
2, 267600, Note_on_c, 0, 81, 0
2, 267600, Note_on_c, 0, 69, 0
2, 267600, Note_on_c, 0, 68, 62
2, 267600, Note_on_c, 0, 73, 62
2, 267600, Note_on_c, 0, 80, 62
2, 268080, Note_on_c, 0, 80, 0
2, 268080, Note_on_c, 0, 73, 0
2, 268080, Note_on_c, 0, 68, 0
2, 268080, Note_on_c, 0, 67, 62
2, 268080, Note_on_c, 0, 79, 62
2, 268320, Note_on_c, 0, 79, 0
2, 268320, Note_on_c, 0, 67, 0
2, 268560, Note_on_c, 0, 66, 62
2, 268560, Note_on_c, 0, 78, 62
2, 269040, Note_on_c, 0, 78, 0
2, 269040, Note_on_c, 0, 66, 0
2, 269040, Note_on_c, 0, 64, 62
2, 269040, Note_on_c, 0, 69, 62
2, 269040, Note_on_c, 0, 76, 62
2, 269520, Note_on_c, 0, 76, 0
2, 269520, Note_on_c, 0, 69, 0
2, 269520, Note_on_c, 0, 64, 0
2, 269520, Note_on_c, 0, 62, 62
2, 269520, Note_on_c, 0, 74, 62
2, 269760, Note_on_c, 0, 74, 0
2, 269760, Note_on_c, 0, 62, 0
2, 270000, Note_on_c, 0, 67, 62
2, 270000, Note_on_c, 0, 79, 62
2, 270480, Note_on_c, 0, 79, 0
2, 270480, Note_on_c, 0, 67, 0
2, 270480, Note_on_c, 0, 66, 62
2, 270480, Note_on_c, 0, 69, 62
2, 270480, Note_on_c, 0, 78, 62
2, 270960, Note_on_c, 0, 78, 0
2, 270960, Note_on_c, 0, 69, 0
2, 270960, Note_on_c, 0, 66, 0
2, 270960, Note_on_c, 0, 64, 62
2, 270960, Note_on_c, 0, 76, 62
2, 271200, Note_on_c, 0, 76, 0
2, 271200, Note_on_c, 0, 64, 0
2, 271440, Note_on_c, 0, 69, 75
2, 271440, Note_on_c, 0, 81, 75
2, 271920, Note_on_c, 0, 81, 0
2, 271920, Note_on_c, 0, 69, 0
2, 271920, Note_on_c, 0, 70, 75
2, 271920, Note_on_c, 0, 82, 75
2, 272400, Note_on_c, 0, 82, 0
2, 272400, Note_on_c, 0, 70, 0
2, 272400, Note_on_c, 0, 71, 75
2, 272400, Note_on_c, 0, 83, 75
2, 272880, Note_on_c, 0, 83, 0
2, 272880, Note_on_c, 0, 71, 0
2, 272880, Note_on_c, 0, 76, 75
2, 272880, Note_on_c, 0, 88, 75
2, 273360, Note_on_c, 0, 88, 0
2, 273360, Note_on_c, 0, 76, 0
2, 273360, Note_on_c, 0, 74, 75
2, 273360, Note_on_c, 0, 86, 75
2, 273840, Note_on_c, 0, 86, 0
2, 273840, Note_on_c, 0, 74, 0
2, 273840, Note_on_c, 0, 73, 75
2, 273840, Note_on_c, 0, 85, 75
2, 274320, Note_on_c, 0, 85, 0
2, 274320, Note_on_c, 0, 73, 0
2, 274320, Note_on_c, 0, 78, 88
2, 274320, Note_on_c, 0, 90, 88
2, 274800, Note_on_c, 0, 90, 0
2, 274800, Note_on_c, 0, 78, 0
2, 274800, Note_on_c, 0, 76, 88
2, 274800, Note_on_c, 0, 88, 88
2, 275280, Note_on_c, 0, 88, 0
2, 275280, Note_on_c, 0, 76, 0
2, 275280, Note_on_c, 0, 74, 88
2, 275280, Note_on_c, 0, 86, 88
2, 275760, Note_on_c, 0, 86, 0
2, 275760, Note_on_c, 0, 74, 0
2, 275760, Note_on_c, 0, 73, 75
2, 275760, Note_on_c, 0, 85, 75
2, 276240, Note_on_c, 0, 85, 0
2, 276240, Note_on_c, 0, 73, 0
2, 276240, Note_on_c, 0, 71, 75
2, 276240, Note_on_c, 0, 83, 75
2, 276720, Note_on_c, 0, 83, 0
2, 276720, Note_on_c, 0, 71, 0
2, 276720, Note_on_c, 0, 73, 75
2, 276720, Note_on_c, 0, 85, 75
2, 277200, Note_on_c, 0, 85, 0
2, 277200, Note_on_c, 0, 73, 0
2, 277200, Note_on_c, 0, 71, 75
2, 277200, Note_on_c, 0, 83, 75
2, 277680, Note_on_c, 0, 83, 0
2, 277680, Note_on_c, 0, 71, 0
2, 277680, Note_on_c, 0, 69, 75
2, 277680, Note_on_c, 0, 81, 75
2, 278160, Note_on_c, 0, 81, 0
2, 278160, Note_on_c, 0, 69, 0
2, 278160, Note_on_c, 0, 71, 75
2, 278160, Note_on_c, 0, 83, 75
2, 278640, Note_on_c, 0, 83, 0
2, 278640, Note_on_c, 0, 71, 0
2, 278640, Note_on_c, 0, 66, 75
2, 278640, Note_on_c, 0, 78, 75
2, 279120, Note_on_c, 0, 78, 0
2, 279120, Note_on_c, 0, 66, 0
2, 279120, Note_on_c, 0, 69, 75
2, 279120, Note_on_c, 0, 81, 75
2, 279600, Note_on_c, 0, 81, 0
2, 279600, Note_on_c, 0, 69, 0
2, 279600, Note_on_c, 0, 67, 75
2, 279600, Note_on_c, 0, 79, 75
2, 279840, Note_on_c, 0, 79, 0
2, 279840, Note_on_c, 0, 67, 0
2, 280080, Note_on_c, 0, 66, 62
2, 280080, Note_on_c, 0, 78, 62
2, 280560, Note_on_c, 0, 78, 0
2, 280560, Note_on_c, 0, 66, 0
2, 280560, Note_on_c, 0, 64, 62
2, 280560, Note_on_c, 0, 69, 62
2, 280560, Note_on_c, 0, 76, 62
2, 281040, Note_on_c, 0, 76, 0
2, 281040, Note_on_c, 0, 69, 0
2, 281040, Note_on_c, 0, 64, 0
2, 281040, Note_on_c, 0, 62, 62
2, 281040, Note_on_c, 0, 74, 62
2, 281280, Note_on_c, 0, 74, 0
2, 281280, Note_on_c, 0, 62, 0
2, 281520, Note_on_c, 0, 67, 75
2, 281520, Note_on_c, 0, 79, 75
2, 282000, Note_on_c, 0, 79, 0
2, 282000, Note_on_c, 0, 67, 0
2, 282000, Note_on_c, 0, 66, 75
2, 282000, Note_on_c, 0, 69, 75
2, 282000, Note_on_c, 0, 78, 75
2, 282480, Note_on_c, 0, 78, 0
2, 282480, Note_on_c, 0, 69, 0
2, 282480, Note_on_c, 0, 66, 0
2, 282480, Note_on_c, 0, 64, 75
2, 282480, Note_on_c, 0, 76, 75
2, 282720, Note_on_c, 0, 76, 0
2, 282720, Note_on_c, 0, 64, 0
2, 282960, Note_on_c, 0, 69, 88
2, 282960, Note_on_c, 0, 81, 88
2, 283440, Note_on_c, 0, 81, 0
2, 283440, Note_on_c, 0, 69, 0
2, 283440, Note_on_c, 0, 73, 88
2, 283440, Note_on_c, 0, 78, 88
2, 283440, Note_on_c, 0, 85, 88
2, 283920, Note_on_c, 0, 85, 0
2, 283920, Note_on_c, 0, 78, 0
2, 283920, Note_on_c, 0, 73, 0
2, 283920, Note_on_c, 0, 71, 88
2, 283920, Note_on_c, 0, 83, 88
2, 284400, Note_on_c, 0, 83, 0
2, 284400, Note_on_c, 0, 71, 0
2, 284400, Note_on_c, 0, 69, 88
2, 284400, Note_on_c, 0, 81, 88
2, 284880, Note_on_c, 0, 81, 0
2, 284880, Note_on_c, 0, 69, 0
2, 284880, Note_on_c, 0, 68, 88
2, 284880, Note_on_c, 0, 73, 88
2, 284880, Note_on_c, 0, 80, 88
2, 285360, Note_on_c, 0, 80, 0
2, 285360, Note_on_c, 0, 73, 0
2, 285360, Note_on_c, 0, 68, 0
2, 285360, Note_on_c, 0, 67, 88
2, 285360, Note_on_c, 0, 79, 88
2, 285600, Note_on_c, 0, 79, 0
2, 285600, Note_on_c, 0, 67, 0
2, 285840, Note_on_c, 0, 66, 88
2, 285840, Note_on_c, 0, 78, 88
2, 286320, Note_on_c, 0, 78, 0
2, 286320, Note_on_c, 0, 66, 0
2, 286320, Note_on_c, 0, 64, 88
2, 286320, Note_on_c, 0, 76, 88
2, 286800, Note_on_c, 0, 76, 0
2, 286800, Note_on_c, 0, 64, 0
2, 286800, Note_on_c, 0, 62, 88
2, 286800, Note_on_c, 0, 74, 88
2, 287280, Note_on_c, 0, 74, 0
2, 287280, Note_on_c, 0, 62, 0
2, 287280, Note_on_c, 0, 62, 88
2, 287280, Note_on_c, 0, 74, 88
2, 287760, Note_on_c, 0, 74, 0
2, 287760, Note_on_c, 0, 62, 0
2, 287760, Note_on_c, 0, 64, 88
2, 287760, Note_on_c, 0, 76, 88
2, 288240, Note_on_c, 0, 76, 0
2, 288240, Note_on_c, 0, 64, 0
2, 288240, Note_on_c, 0, 66, 88
2, 288240, Note_on_c, 0, 78, 88
2, 288480, Note_on_c, 0, 78, 0
2, 288480, Note_on_c, 0, 66, 0
2, 288720, Note_on_c, 0, 64, 62
2, 288720, Note_on_c, 0, 76, 62
2, 289200, Note_on_c, 0, 76, 0
2, 289200, Note_on_c, 0, 64, 0
2, 289200, Note_on_c, 0, 66, 62
2, 289200, Note_on_c, 0, 78, 62
2, 289680, Note_on_c, 0, 78, 0
2, 289680, Note_on_c, 0, 66, 0
2, 289680, Note_on_c, 0, 67, 62
2, 289680, Note_on_c, 0, 79, 62
2, 290160, Note_on_c, 0, 79, 0
2, 290160, Note_on_c, 0, 67, 0
2, 290160, Note_on_c, 0, 67, 75
2, 290160, Note_on_c, 0, 79, 75
2, 290640, Note_on_c, 0, 79, 0
2, 290640, Note_on_c, 0, 67, 0
2, 290640, Note_on_c, 0, 68, 75
2, 290640, Note_on_c, 0, 80, 75
2, 291120, Note_on_c, 0, 80, 0
2, 291120, Note_on_c, 0, 68, 0
2, 291120, Note_on_c, 0, 69, 75
2, 291120, Note_on_c, 0, 81, 75
2, 291600, Note_on_c, 0, 81, 0
2, 291600, Note_on_c, 0, 69, 0
2, 291600, Note_on_c, 0, 69, 75
2, 291600, Note_on_c, 0, 74, 75
2, 291600, Note_on_c, 0, 81, 75
2, 292080, Note_on_c, 0, 81, 0
2, 292080, Note_on_c, 0, 74, 0
2, 292080, Note_on_c, 0, 69, 0
2, 292080, Note_on_c, 0, 70, 75
2, 292080, Note_on_c, 0, 74, 75
2, 292080, Note_on_c, 0, 79, 75
2, 292080, Note_on_c, 0, 82, 75
2, 292560, Note_on_c, 0, 82, 0
2, 292560, Note_on_c, 0, 70, 0
2, 292560, Note_on_c, 0, 74, 0
2, 292560, Note_on_c, 0, 79, 0
2, 292560, Note_on_c, 0, 71, 75
2, 292560, Note_on_c, 0, 79, 75
2, 292560, Note_on_c, 0, 83, 75
2, 293040, Note_on_c, 0, 83, 0
2, 293040, Note_on_c, 0, 79, 0
2, 293040, Note_on_c, 0, 71, 0
2, 293040, Note_on_c, 0, 71, 75
2, 293040, Note_on_c, 0, 80, 75
2, 293040, Note_on_c, 0, 83, 75
2, 293520, Note_on_c, 0, 83, 0
2, 293520, Note_on_c, 0, 80, 0
2, 293520, Note_on_c, 0, 71, 0
2, 293520, Note_on_c, 0, 72, 75
2, 293520, Note_on_c, 0, 79, 75
2, 293520, Note_on_c, 0, 84, 75
2, 294000, Note_on_c, 0, 84, 0
2, 294000, Note_on_c, 0, 79, 0
2, 294000, Note_on_c, 0, 72, 0
2, 294000, Note_on_c, 0, 73, 75
2, 294000, Note_on_c, 0, 79, 75
2, 294000, Note_on_c, 0, 85, 75
2, 294240, Note_on_c, 0, 85, 0
2, 294240, Note_on_c, 0, 79, 0
2, 294240, Note_on_c, 0, 73, 0
2, 294480, Note_on_c, 0, 74, 88
2, 294480, Note_on_c, 0, 78, 88
2, 294480, Note_on_c, 0, 86, 88
2, 294960, Note_on_c, 0, 86, 0
2, 294960, Note_on_c, 0, 78, 0
2, 294960, Note_on_c, 0, 74, 0
2, 294960, Note_on_c, 0, 75, 88
2, 294960, Note_on_c, 0, 78, 88
2, 294960, Note_on_c, 0, 87, 88
2, 295440, Note_on_c, 0, 87, 0
2, 295440, Note_on_c, 0, 78, 0
2, 295440, Note_on_c, 0, 75, 0
2, 295440, Note_on_c, 0, 76, 88
2, 295440, Note_on_c, 0, 78, 88
2, 295440, Note_on_c, 0, 88, 88
2, 295680, Note_on_c, 0, 88, 0
2, 295680, Note_on_c, 0, 78, 0
2, 295680, Note_on_c, 0, 76, 0
2, 295920, Note_on_c, 0, 76, 88
2, 295920, Note_on_c, 0, 79, 88
2, 295920, Note_on_c, 0, 88, 88
2, 296400, Note_on_c, 0, 88, 0
2, 296400, Note_on_c, 0, 79, 0
2, 296400, Note_on_c, 0, 76, 0
2, 296400, Note_on_c, 0, 78, 88
2, 296400, Note_on_c, 0, 90, 88
2, 296880, Note_on_c, 0, 90, 0
2, 296880, Note_on_c, 0, 78, 0
2, 296880, Note_on_c, 0, 79, 88
2, 296880, Note_on_c, 0, 91, 88
2, 297120, Note_on_c, 0, 91, 0
2, 297120, Note_on_c, 0, 79, 0
2, 297360, Note_on_c, 0, 81, 101
2, 297360, Note_on_c, 0, 93, 101
2, 297840, Note_on_c, 0, 93, 0
2, 297840, Note_on_c, 0, 81, 0
2, 297840, Note_on_c, 0, 80, 101
2, 297840, Note_on_c, 0, 92, 101
2, 298320, Note_on_c, 0, 92, 0
2, 298320, Note_on_c, 0, 80, 0
2, 298320, Note_on_c, 0, 81, 101
2, 298320, Note_on_c, 0, 93, 101
2, 298800, Note_on_c, 0, 93, 0
2, 298800, Note_on_c, 0, 81, 0
2, 298800, Note_on_c, 0, 81, 101
2, 298800, Note_on_c, 0, 93, 101
2, 299280, Note_on_c, 0, 93, 0
2, 299280, Note_on_c, 0, 81, 0
2, 299280, Note_on_c, 0, 80, 101
2, 299280, Note_on_c, 0, 92, 101
2, 299760, Note_on_c, 0, 92, 0
2, 299760, Note_on_c, 0, 80, 0
2, 299760, Note_on_c, 0, 81, 101
2, 299760, Note_on_c, 0, 93, 101
2, 300240, Note_on_c, 0, 93, 0
2, 300240, Note_on_c, 0, 81, 0
2, 300240, Note_on_c, 0, 81, 101
2, 300240, Note_on_c, 0, 93, 101
2, 300720, Note_on_c, 0, 93, 0
2, 300720, Note_on_c, 0, 81, 0
2, 300720, Note_on_c, 0, 80, 101
2, 300720, Note_on_c, 0, 92, 101
2, 301200, Note_on_c, 0, 92, 0
2, 301200, Note_on_c, 0, 80, 0
2, 301200, Note_on_c, 0, 81, 101
2, 301200, Note_on_c, 0, 93, 101
2, 301680, Note_on_c, 0, 93, 0
2, 301680, Note_on_c, 0, 81, 0
2, 301680, Note_on_c, 0, 81, 101
2, 301680, Note_on_c, 0, 93, 101
2, 302160, Note_on_c, 0, 93, 0
2, 302160, Note_on_c, 0, 81, 0
2, 302160, Note_on_c, 0, 80, 101
2, 302160, Note_on_c, 0, 92, 101
2, 302640, Note_on_c, 0, 92, 0
2, 302640, Note_on_c, 0, 80, 0
2, 302640, Note_on_c, 0, 81, 101
2, 302640, Note_on_c, 0, 93, 101
2, 302880, Note_on_c, 0, 93, 0
2, 302880, Note_on_c, 0, 81, 0
2, 302880, Note_on_c, 0, 81, 101
2, 302880, Note_on_c, 0, 86, 101
2, 302880, Note_on_c, 0, 90, 101
2, 302880, Note_on_c, 0, 93, 101
2, 303360, Note_on_c, 0, 93, 0
2, 303360, Note_on_c, 0, 81, 0
2, 303360, Note_on_c, 0, 86, 0
2, 303360, Note_on_c, 0, 90, 0
2, 303360, Note_on_c, 0, 74, 101
2, 303360, Note_on_c, 0, 81, 101
2, 303360, Note_on_c, 0, 86, 101
2, 303600, Note_on_c, 0, 86, 0
2, 303600, Note_on_c, 0, 81, 0
2, 303600, Note_on_c, 0, 74, 0
2, 303600, Note_on_c, 0, 81, 101
2, 303600, Note_on_c, 0, 86, 101
2, 303600, Note_on_c, 0, 90, 101
2, 303600, Note_on_c, 0, 93, 101
2, 304080, Note_on_c, 0, 93, 0
2, 304080, Note_on_c, 0, 81, 0
2, 304080, Note_on_c, 0, 86, 0
2, 304080, Note_on_c, 0, 90, 0
2, 304080, Note_on_c, 0, 74, 101
2, 304080, Note_on_c, 0, 81, 101
2, 304080, Note_on_c, 0, 86, 101
2, 304320, Note_on_c, 0, 86, 0
2, 304320, Note_on_c, 0, 81, 0
2, 304320, Note_on_c, 0, 74, 0
2, 304320, Note_on_c, 0, 81, 101
2, 304320, Note_on_c, 0, 86, 101
2, 304320, Note_on_c, 0, 90, 101
2, 304320, Note_on_c, 0, 93, 101
2, 304800, Note_on_c, 0, 93, 0
2, 304800, Note_on_c, 0, 81, 0
2, 304800, Note_on_c, 0, 86, 0
2, 304800, Note_on_c, 0, 90, 0
2, 304800, Note_on_c, 0, 74, 101
2, 304800, Note_on_c, 0, 81, 101
2, 304800, Note_on_c, 0, 86, 101
2, 305040, Note_on_c, 0, 86, 0
2, 305040, Note_on_c, 0, 81, 0
2, 305040, Note_on_c, 0, 74, 0
2, 305040, Note_on_c, 0, 81, 101
2, 305040, Note_on_c, 0, 86, 101
2, 305040, Note_on_c, 0, 90, 101
2, 305040, Note_on_c, 0, 93, 101
2, 305520, Note_on_c, 0, 93, 0
2, 305520, Note_on_c, 0, 81, 0
2, 305520, Note_on_c, 0, 86, 0
2, 305520, Note_on_c, 0, 90, 0
2, 305520, Note_on_c, 0, 74, 101
2, 305520, Note_on_c, 0, 81, 101
2, 305520, Note_on_c, 0, 86, 101
2, 305760, Note_on_c, 0, 86, 0
2, 305760, Note_on_c, 0, 81, 0
2, 305760, Note_on_c, 0, 74, 0
2, 306000, Note_on_c, 0, 66, 88
2, 306120, Note_on_c, 0, 66, 0
2, 306120, Note_on_c, 0, 78, 88
2, 306240, Note_on_c, 0, 78, 0
2, 306240, Note_on_c, 0, 67, 88
2, 306360, Note_on_c, 0, 67, 0
2, 306360, Note_on_c, 0, 79, 88
2, 306480, Note_on_c, 0, 79, 0
2, 306480, Note_on_c, 0, 69, 88
2, 306600, Note_on_c, 0, 69, 0
2, 306600, Note_on_c, 0, 81, 88
2, 306720, Note_on_c, 0, 81, 0
2, 306720, Note_on_c, 0, 71, 88
2, 306840, Note_on_c, 0, 71, 0
2, 306840, Note_on_c, 0, 83, 88
2, 306960, Note_on_c, 0, 83, 0
2, 306960, Note_on_c, 0, 73, 88
2, 307080, Note_on_c, 0, 73, 0
2, 307080, Note_on_c, 0, 81, 88
2, 307080, Note_on_c, 0, 85, 88
2, 307200, Note_on_c, 0, 85, 0
2, 307200, Note_on_c, 0, 81, 0
2, 307200, Note_on_c, 0, 74, 101
2, 307320, Note_on_c, 0, 74, 0
2, 307320, Note_on_c, 0, 81, 101
2, 307320, Note_on_c, 0, 86, 101
2, 307440, Note_on_c, 0, 86, 0
2, 307440, Note_on_c, 0, 81, 0
2, 307440, Note_on_c, 0, 76, 101
2, 307560, Note_on_c, 0, 76, 0
2, 307560, Note_on_c, 0, 81, 101
2, 307560, Note_on_c, 0, 88, 101
2, 307680, Note_on_c, 0, 88, 0
2, 307680, Note_on_c, 0, 81, 0
2, 307680, Note_on_c, 0, 77, 101
2, 307800, Note_on_c, 0, 77, 0
2, 307800, Note_on_c, 0, 81, 101
2, 307800, Note_on_c, 0, 89, 101
2, 307920, Note_on_c, 0, 89, 0
2, 307920, Note_on_c, 0, 81, 0
2, 307920, Note_on_c, 0, 78, 101
2, 308040, Note_on_c, 0, 78, 0
2, 308040, Note_on_c, 0, 86, 101
2, 308040, Note_on_c, 0, 90, 101
2, 308160, Note_on_c, 0, 90, 0
2, 308160, Note_on_c, 0, 86, 0
2, 308160, Note_on_c, 0, 79, 101
2, 308280, Note_on_c, 0, 79, 0
2, 308280, Note_on_c, 0, 86, 101
2, 308280, Note_on_c, 0, 91, 101
2, 308400, Note_on_c, 0, 91, 0
2, 308400, Note_on_c, 0, 86, 0
2, 308400, Note_on_c, 0, 80, 101
2, 308520, Note_on_c, 0, 80, 0
2, 308520, Note_on_c, 0, 86, 101
2, 308520, Note_on_c, 0, 92, 101
2, 308640, Note_on_c, 0, 92, 0
2, 308640, Note_on_c, 0, 86, 0
2, 308640, Note_on_c, 0, 81, 101
2, 308640, Note_on_c, 0, 86, 101
2, 308640, Note_on_c, 0, 90, 101
2, 308640, Note_on_c, 0, 93, 101
2, 309120, Note_on_c, 0, 93, 0
2, 309120, Note_on_c, 0, 81, 0
2, 309120, Note_on_c, 0, 86, 0
2, 309120, Note_on_c, 0, 90, 0
2, 309120, Note_on_c, 0, 74, 101
2, 309120, Note_on_c, 0, 81, 101
2, 309120, Note_on_c, 0, 86, 101
2, 309360, Note_on_c, 0, 86, 0
2, 309360, Note_on_c, 0, 81, 0
2, 309360, Note_on_c, 0, 74, 0
2, 309360, Note_on_c, 0, 81, 101
2, 309360, Note_on_c, 0, 86, 101
2, 309360, Note_on_c, 0, 90, 101
2, 309360, Note_on_c, 0, 93, 101
2, 309840, Note_on_c, 0, 93, 0
2, 309840, Note_on_c, 0, 81, 0
2, 309840, Note_on_c, 0, 86, 0
2, 309840, Note_on_c, 0, 90, 0
2, 309840, Note_on_c, 0, 74, 101
2, 309840, Note_on_c, 0, 81, 101
2, 309840, Note_on_c, 0, 86, 101
2, 310080, Note_on_c, 0, 86, 0
2, 310080, Note_on_c, 0, 81, 0
2, 310080, Note_on_c, 0, 74, 0
2, 310080, Note_on_c, 0, 81, 101
2, 310080, Note_on_c, 0, 86, 101
2, 310080, Note_on_c, 0, 90, 101
2, 310080, Note_on_c, 0, 93, 101
2, 310560, Note_on_c, 0, 93, 0
2, 310560, Note_on_c, 0, 81, 0
2, 310560, Note_on_c, 0, 86, 0
2, 310560, Note_on_c, 0, 90, 0
2, 310560, Note_on_c, 0, 74, 101
2, 310560, Note_on_c, 0, 81, 101
2, 310560, Note_on_c, 0, 86, 101
2, 310800, Note_on_c, 0, 86, 0
2, 310800, Note_on_c, 0, 81, 0
2, 310800, Note_on_c, 0, 74, 0
2, 310800, Note_on_c, 0, 81, 101
2, 310800, Note_on_c, 0, 86, 101
2, 310800, Note_on_c, 0, 90, 101
2, 310800, Note_on_c, 0, 93, 101
2, 311280, Note_on_c, 0, 93, 0
2, 311280, Note_on_c, 0, 81, 0
2, 311280, Note_on_c, 0, 86, 0
2, 311280, Note_on_c, 0, 90, 0
2, 311280, Note_on_c, 0, 74, 101
2, 311280, Note_on_c, 0, 81, 101
2, 311280, Note_on_c, 0, 86, 101
2, 311520, Note_on_c, 0, 86, 0
2, 311520, Note_on_c, 0, 81, 0
2, 311520, Note_on_c, 0, 74, 0
2, 311760, Note_on_c, 0, 62, 88
2, 311880, Note_on_c, 0, 62, 0
2, 311880, Note_on_c, 0, 74, 88
2, 312000, Note_on_c, 0, 74, 0
2, 312000, Note_on_c, 0, 64, 88
2, 312120, Note_on_c, 0, 64, 0
2, 312120, Note_on_c, 0, 76, 88
2, 312240, Note_on_c, 0, 76, 0
2, 312240, Note_on_c, 0, 66, 88
2, 312360, Note_on_c, 0, 66, 0
2, 312360, Note_on_c, 0, 74, 88
2, 312360, Note_on_c, 0, 78, 88
2, 312480, Note_on_c, 0, 78, 0
2, 312480, Note_on_c, 0, 74, 0
2, 312480, Note_on_c, 0, 67, 88
2, 312600, Note_on_c, 0, 67, 0
2, 312600, Note_on_c, 0, 74, 88
2, 312600, Note_on_c, 0, 79, 88
2, 312720, Note_on_c, 0, 79, 0
2, 312720, Note_on_c, 0, 74, 0
2, 312720, Note_on_c, 0, 68, 88
2, 312840, Note_on_c, 0, 68, 0
2, 312840, Note_on_c, 0, 74, 88
2, 312840, Note_on_c, 0, 80, 88
2, 312960, Note_on_c, 0, 80, 0
2, 312960, Note_on_c, 0, 74, 0
2, 312960, Note_on_c, 0, 69, 101
2, 313080, Note_on_c, 0, 69, 0
2, 313080, Note_on_c, 0, 74, 101
2, 313080, Note_on_c, 0, 81, 101
2, 313200, Note_on_c, 0, 81, 0
2, 313200, Note_on_c, 0, 74, 0
2, 313200, Note_on_c, 0, 71, 101
2, 313320, Note_on_c, 0, 71, 0
2, 313320, Note_on_c, 0, 80, 101
2, 313320, Note_on_c, 0, 83, 101
2, 313440, Note_on_c, 0, 83, 0
2, 313440, Note_on_c, 0, 80, 0
2, 313440, Note_on_c, 0, 73, 101
2, 313560, Note_on_c, 0, 73, 0
2, 313560, Note_on_c, 0, 79, 101
2, 313560, Note_on_c, 0, 85, 101
2, 313680, Note_on_c, 0, 85, 0
2, 313680, Note_on_c, 0, 79, 0
2, 313680, Note_on_c, 0, 74, 101
2, 313800, Note_on_c, 0, 74, 0
2, 313800, Note_on_c, 0, 78, 101
2, 313800, Note_on_c, 0, 86, 101
2, 313920, Note_on_c, 0, 86, 0
2, 313920, Note_on_c, 0, 78, 0
2, 313920, Note_on_c, 0, 76, 101
2, 314040, Note_on_c, 0, 76, 0
2, 314040, Note_on_c, 0, 81, 101
2, 314040, Note_on_c, 0, 88, 101
2, 314160, Note_on_c, 0, 88, 0
2, 314160, Note_on_c, 0, 81, 0
2, 314160, Note_on_c, 0, 77, 101
2, 314280, Note_on_c, 0, 77, 0
2, 314280, Note_on_c, 0, 80, 101
2, 314280, Note_on_c, 0, 89, 101
2, 314400, Note_on_c, 0, 89, 0
2, 314400, Note_on_c, 0, 80, 0
2, 314400, Note_on_c, 0, 78, 101
2, 314400, Note_on_c, 0, 81, 101
2, 314400, Note_on_c, 0, 90, 101
2, 314880, Note_on_c, 0, 90, 0
2, 314880, Note_on_c, 0, 81, 0
2, 314880, Note_on_c, 0, 78, 0
2, 314880, Note_on_c, 0, 69, 101
2, 314880, Note_on_c, 0, 74, 101
2, 314880, Note_on_c, 0, 81, 101
2, 315120, Note_on_c, 0, 81, 0
2, 315120, Note_on_c, 0, 74, 0
2, 315120, Note_on_c, 0, 69, 0
2, 315120, Note_on_c, 0, 78, 101
2, 315120, Note_on_c, 0, 81, 101
2, 315120, Note_on_c, 0, 90, 101
2, 315600, Note_on_c, 0, 90, 0
2, 315600, Note_on_c, 0, 81, 0
2, 315600, Note_on_c, 0, 78, 0
2, 315600, Note_on_c, 0, 69, 101
2, 315600, Note_on_c, 0, 74, 101
2, 315600, Note_on_c, 0, 81, 101
2, 315840, Note_on_c, 0, 81, 0
2, 315840, Note_on_c, 0, 74, 0
2, 315840, Note_on_c, 0, 69, 0
2, 316080, Note_on_c, 0, 66, 101
2, 316200, Note_on_c, 0, 66, 0
2, 316200, Note_on_c, 0, 78, 101
2, 316320, Note_on_c, 0, 78, 0
2, 316320, Note_on_c, 0, 67, 101
2, 316440, Note_on_c, 0, 67, 0
2, 316440, Note_on_c, 0, 79, 101
2, 316560, Note_on_c, 0, 79, 0
2, 316560, Note_on_c, 0, 69, 101
2, 316680, Note_on_c, 0, 69, 0
2, 316680, Note_on_c, 0, 74, 101
2, 316680, Note_on_c, 0, 81, 101
2, 316800, Note_on_c, 0, 81, 0
2, 316800, Note_on_c, 0, 74, 0
2, 316800, Note_on_c, 0, 71, 101
2, 316920, Note_on_c, 0, 71, 0
2, 316920, Note_on_c, 0, 80, 101
2, 316920, Note_on_c, 0, 83, 101
2, 317040, Note_on_c, 0, 83, 0
2, 317040, Note_on_c, 0, 80, 0
2, 317040, Note_on_c, 0, 73, 101
2, 317160, Note_on_c, 0, 73, 0
2, 317160, Note_on_c, 0, 79, 101
2, 317160, Note_on_c, 0, 85, 101
2, 317280, Note_on_c, 0, 85, 0
2, 317280, Note_on_c, 0, 79, 0
2, 317280, Note_on_c, 0, 74, 101
2, 317280, Note_on_c, 0, 78, 101
2, 317280, Note_on_c, 0, 86, 101
2, 317760, Note_on_c, 0, 86, 0
2, 317760, Note_on_c, 0, 78, 0
2, 317760, Note_on_c, 0, 74, 0
2, 317760, Note_on_c, 0, 69, 101
2, 317760, Note_on_c, 0, 74, 101
2, 317760, Note_on_c, 0, 78, 101
2, 318000, Note_on_c, 0, 78, 0
2, 318000, Note_on_c, 0, 74, 0
2, 318000, Note_on_c, 0, 69, 0
2, 318000, Note_on_c, 0, 74, 101
2, 318000, Note_on_c, 0, 78, 101
2, 318000, Note_on_c, 0, 86, 101
2, 318480, Note_on_c, 0, 86, 0
2, 318480, Note_on_c, 0, 78, 0
2, 318480, Note_on_c, 0, 74, 0
2, 318480, Note_on_c, 0, 69, 101
2, 318480, Note_on_c, 0, 74, 101
2, 318480, Note_on_c, 0, 78, 101
2, 318720, Note_on_c, 0, 78, 0
2, 318720, Note_on_c, 0, 74, 0
2, 318720, Note_on_c, 0, 69, 0
2, 318960, Note_on_c, 0, 62, 88
2, 319080, Note_on_c, 0, 62, 0
2, 319080, Note_on_c, 0, 74, 88
2, 319200, Note_on_c, 0, 74, 0
2, 319200, Note_on_c, 0, 64, 88
2, 319320, Note_on_c, 0, 64, 0
2, 319320, Note_on_c, 0, 76, 88
2, 319440, Note_on_c, 0, 76, 0
2, 319440, Note_on_c, 0, 66, 88
2, 319560, Note_on_c, 0, 66, 0
2, 319560, Note_on_c, 0, 74, 88
2, 319560, Note_on_c, 0, 78, 88
2, 319680, Note_on_c, 0, 78, 0
2, 319680, Note_on_c, 0, 74, 0
2, 319680, Note_on_c, 0, 67, 88
2, 319800, Note_on_c, 0, 67, 0
2, 319800, Note_on_c, 0, 74, 88
2, 319800, Note_on_c, 0, 79, 88
2, 319920, Note_on_c, 0, 79, 0
2, 319920, Note_on_c, 0, 74, 0
2, 319920, Note_on_c, 0, 68, 88
2, 320040, Note_on_c, 0, 68, 0
2, 320040, Note_on_c, 0, 74, 88
2, 320040, Note_on_c, 0, 80, 88
2, 320160, Note_on_c, 0, 80, 0
2, 320160, Note_on_c, 0, 74, 0
2, 320160, Note_on_c, 0, 69, 88
2, 320160, Note_on_c, 0, 78, 88
2, 320160, Note_on_c, 0, 81, 88
2, 320640, Note_on_c, 0, 81, 0
2, 320640, Note_on_c, 0, 78, 0
2, 320640, Note_on_c, 0, 69, 0
2, 320640, Note_on_c, 0, 62, 88
2, 320640, Note_on_c, 0, 66, 88
2, 320640, Note_on_c, 0, 74, 88
2, 320880, Note_on_c, 0, 74, 0
2, 320880, Note_on_c, 0, 66, 0
2, 320880, Note_on_c, 0, 62, 0
2, 320880, Note_on_c, 0, 69, 88
2, 320880, Note_on_c, 0, 74, 88
2, 320880, Note_on_c, 0, 81, 88
2, 321360, Note_on_c, 0, 81, 0
2, 321360, Note_on_c, 0, 74, 0
2, 321360, Note_on_c, 0, 69, 0
2, 321360, Note_on_c, 0, 62, 88
2, 321360, Note_on_c, 0, 66, 88
2, 321360, Note_on_c, 0, 74, 88
2, 321600, Note_on_c, 0, 74, 0
2, 321600, Note_on_c, 0, 66, 0
2, 321600, Note_on_c, 0, 62, 0
2, 321600, Note_on_c, 0, 66, 88
2, 321600, Note_on_c, 0, 69, 88
2, 321600, Note_on_c, 0, 78, 88
2, 322080, Note_on_c, 0, 78, 0
2, 322080, Note_on_c, 0, 69, 0
2, 322080, Note_on_c, 0, 66, 0
2, 322080, Note_on_c, 0, 62, 88
2, 322080, Note_on_c, 0, 66, 88
2, 322080, Note_on_c, 0, 69, 88
2, 322320, Note_on_c, 0, 69, 0
2, 322320, Note_on_c, 0, 66, 0
2, 322320, Note_on_c, 0, 62, 0
2, 322320, Note_on_c, 0, 66, 88
2, 322320, Note_on_c, 0, 69, 88
2, 322320, Note_on_c, 0, 78, 88
2, 322800, Note_on_c, 0, 78, 0
2, 322800, Note_on_c, 0, 69, 0
2, 322800, Note_on_c, 0, 66, 0
2, 322800, Note_on_c, 0, 62, 88
2, 322800, Note_on_c, 0, 66, 88
2, 322800, Note_on_c, 0, 69, 88
2, 323040, Note_on_c, 0, 69, 0
2, 323040, Note_on_c, 0, 66, 0
2, 323040, Note_on_c, 0, 62, 0
2, 323040, Note_on_c, 0, 62, 88
2, 323040, Note_on_c, 0, 66, 88
2, 323040, Note_on_c, 0, 74, 88
2, 323520, Note_on_c, 0, 74, 0
2, 323520, Note_on_c, 0, 66, 0
2, 323520, Note_on_c, 0, 62, 0
2, 323520, Note_on_c, 0, 62, 88
2, 323520, Note_on_c, 0, 66, 88
2, 323760, Note_on_c, 0, 66, 0
2, 323760, Note_on_c, 0, 62, 0
2, 323760, Note_on_c, 0, 62, 88
2, 323760, Note_on_c, 0, 66, 88
2, 323760, Note_on_c, 0, 74, 88
2, 324240, Note_on_c, 0, 74, 0
2, 324240, Note_on_c, 0, 66, 0
2, 324240, Note_on_c, 0, 62, 0
2, 324240, Note_on_c, 0, 62, 88
2, 324240, Note_on_c, 0, 66, 88
2, 324480, Note_on_c, 0, 66, 0
2, 324480, Note_on_c, 0, 62, 0
2, 324480, Note_on_c, 0, 62, 88
2, 324480, Note_on_c, 0, 66, 88
2, 324480, Note_on_c, 0, 69, 88
2, 324960, Note_on_c, 0, 69, 0
2, 324960, Note_on_c, 0, 66, 0
2, 324960, Note_on_c, 0, 62, 0
2, 324960, Note_on_c, 0, 62, 88
2, 325200, Note_on_c, 0, 62, 0
2, 325200, Note_on_c, 0, 62, 88
2, 325200, Note_on_c, 0, 69, 88
2, 325680, Note_on_c, 0, 69, 0
2, 325680, Note_on_c, 0, 62, 0
2, 325680, Note_on_c, 0, 62, 88
2, 325920, Note_on_c, 0, 62, 0
2, 325920, Note_on_c, 0, 62, 88
2, 325920, Note_on_c, 0, 69, 88
2, 326400, Note_on_c, 0, 69, 0
2, 326400, Note_on_c, 0, 62, 0
2, 326400, Note_on_c, 0, 62, 88
2, 326640, Note_on_c, 0, 62, 0
2, 326640, Note_on_c, 0, 62, 88
2, 326640, Note_on_c, 0, 69, 88
2, 327120, Note_on_c, 0, 69, 0
2, 327120, Note_on_c, 0, 62, 0
2, 327120, Note_on_c, 0, 62, 88
2, 327360, Note_on_c, 0, 62, 0
2, 327360, Note_on_c, 0, 62, 88
2, 327360, Note_on_c, 0, 69, 88
2, 327840, Note_on_c, 0, 69, 0
2, 327840, Note_on_c, 0, 62, 0
2, 327840, Note_on_c, 0, 62, 88
2, 328080, Note_on_c, 0, 62, 0
2, 328080, Note_on_c, 0, 62, 88
2, 328080, Note_on_c, 0, 69, 88
2, 328560, Note_on_c, 0, 69, 0
2, 328560, Note_on_c, 0, 62, 0
2, 328560, Note_on_c, 0, 62, 88
2, 328800, Note_on_c, 0, 62, 0
2, 329040, Note_on_c, 0, 57, 88
2, 329087, Note_on_c, 0, 57, 0
2, 329280, Note_on_c, 0, 59, 88
2, 329327, Note_on_c, 0, 59, 0
2, 329520, Control_c, 0, 64, 127
2, 329520, Note_on_c, 0, 61, 88
2, 329760, Note_on_c, 0, 61, 0
2, 329760, Note_on_c, 0, 62, 88
2, 330000, Note_on_c, 0, 62, 0
2, 330000, Note_on_c, 0, 64, 88
2, 330240, Note_on_c, 0, 64, 0
2, 330240, Control_c, 0, 64, 0
2, 330240, Note_on_c, 0, 66, 88
2, 330480, Note_on_c, 0, 66, 0
2, 330480, Note_on_c, 0, 62, 88
2, 330527, Note_on_c, 0, 62, 0
2, 330720, Note_on_c, 0, 64, 88
2, 330767, Note_on_c, 0, 64, 0
2, 330960, Note_on_c, 0, 66, 88
2, 331200, Note_on_c, 0, 66, 0
2, 331200, Note_on_c, 0, 67, 75
2, 331440, Note_on_c, 0, 67, 0
2, 331440, Note_on_c, 0, 68, 75
2, 331680, Note_on_c, 0, 68, 0
2, 331680, Note_on_c, 0, 62, 75
2, 331680, Note_on_c, 0, 69, 75
2, 332160, Note_on_c, 0, 69, 0
2, 332160, Note_on_c, 0, 62, 0
2, 332160, Note_on_c, 0, 62, 75
2, 332400, Note_on_c, 0, 62, 0
2, 332400, Note_on_c, 0, 62, 75
2, 332400, Note_on_c, 0, 69, 75
2, 332880, Note_on_c, 0, 69, 0
2, 332880, Note_on_c, 0, 62, 0
2, 332880, Note_on_c, 0, 62, 75
2, 333120, Note_on_c, 0, 62, 0
2, 333120, Note_on_c, 0, 62, 75
2, 333120, Note_on_c, 0, 69, 75
2, 333600, Note_on_c, 0, 69, 0
2, 333600, Note_on_c, 0, 62, 0
2, 333600, Note_on_c, 0, 62, 75
2, 333840, Note_on_c, 0, 62, 0
2, 333840, Note_on_c, 0, 62, 75
2, 333840, Note_on_c, 0, 69, 75
2, 334320, Note_on_c, 0, 69, 0
2, 334320, Note_on_c, 0, 62, 0
2, 334320, Note_on_c, 0, 62, 75
2, 334560, Note_on_c, 0, 62, 0
2, 334800, Note_on_c, 0, 57, 75
2, 334847, Note_on_c, 0, 57, 0
2, 335040, Note_on_c, 0, 59, 75
2, 335087, Note_on_c, 0, 59, 0
2, 335280, Control_c, 0, 64, 127
2, 335280, Note_on_c, 0, 61, 75
2, 335520, Note_on_c, 0, 61, 0
2, 335520, Note_on_c, 0, 62, 75
2, 335760, Note_on_c, 0, 62, 0
2, 335760, Note_on_c, 0, 64, 75
2, 336000, Note_on_c, 0, 64, 0
2, 336000, Control_c, 0, 64, 0
2, 336000, Note_on_c, 0, 65, 75
2, 336240, Note_on_c, 0, 65, 0
2, 336240, Note_on_c, 0, 62, 75
2, 336287, Note_on_c, 0, 62, 0
2, 336480, Note_on_c, 0, 64, 75
2, 336527, Note_on_c, 0, 64, 0
2, 336720, Note_on_c, 0, 65, 75
2, 336960, Note_on_c, 0, 65, 0
2, 336960, Note_on_c, 0, 67, 62
2, 337200, Note_on_c, 0, 67, 0
2, 337200, Note_on_c, 0, 68, 62
2, 337440, Note_on_c, 0, 68, 0
2, 337440, Note_on_c, 0, 65, 62
2, 337440, Note_on_c, 0, 69, 62
2, 337440, Note_on_c, 0, 77, 62
2, 337920, Note_on_c, 0, 77, 0
2, 337920, Note_on_c, 0, 69, 0
2, 337920, Note_on_c, 0, 65, 0
2, 337920, Note_on_c, 0, 65, 62
2, 337920, Note_on_c, 0, 69, 62
2, 338160, Note_on_c, 0, 69, 0
2, 338160, Note_on_c, 0, 65, 0
2, 338160, Note_on_c, 0, 65, 62
2, 338160, Note_on_c, 0, 69, 62
2, 338160, Note_on_c, 0, 77, 62
2, 338640, Note_on_c, 0, 77, 0
2, 338640, Note_on_c, 0, 69, 0
2, 338640, Note_on_c, 0, 65, 0
2, 338640, Note_on_c, 0, 65, 62
2, 338640, Note_on_c, 0, 69, 62
2, 338880, Note_on_c, 0, 69, 0
2, 338880, Note_on_c, 0, 65, 0
2, 338880, Note_on_c, 0, 65, 62
2, 338880, Note_on_c, 0, 69, 62
2, 338880, Note_on_c, 0, 77, 62
2, 339360, Note_on_c, 0, 77, 0
2, 339360, Note_on_c, 0, 69, 0
2, 339360, Note_on_c, 0, 65, 0
2, 339360, Note_on_c, 0, 65, 62
2, 339360, Note_on_c, 0, 69, 62
2, 339600, Note_on_c, 0, 69, 0
2, 339600, Note_on_c, 0, 65, 0
2, 339600, Note_on_c, 0, 65, 62
2, 339600, Note_on_c, 0, 69, 62
2, 339600, Note_on_c, 0, 77, 62
2, 340080, Note_on_c, 0, 77, 0
2, 340080, Note_on_c, 0, 69, 0
2, 340080, Note_on_c, 0, 65, 0
2, 340080, Note_on_c, 0, 65, 62
2, 340080, Note_on_c, 0, 69, 62
2, 340320, Note_on_c, 0, 69, 0
2, 340320, Note_on_c, 0, 65, 0
2, 340560, Note_on_c, 0, 65, 62
2, 340607, Note_on_c, 0, 65, 0
2, 340800, Note_on_c, 0, 67, 62
2, 340847, Note_on_c, 0, 67, 0
2, 341040, Control_c, 0, 64, 127
2, 341040, Note_on_c, 0, 69, 62
2, 341280, Note_on_c, 0, 69, 0
2, 341280, Note_on_c, 0, 70, 62
2, 341520, Note_on_c, 0, 70, 0
2, 341520, Note_on_c, 0, 71, 62
2, 341760, Note_on_c, 0, 71, 0
2, 341760, Control_c, 0, 64, 0
2, 341760, Note_on_c, 0, 72, 62
2, 342000, Note_on_c, 0, 72, 0
2, 342000, Note_on_c, 0, 69, 62
2, 342047, Note_on_c, 0, 69, 0
2, 342240, Note_on_c, 0, 70, 62
2, 342287, Note_on_c, 0, 70, 0
2, 342480, Control_c, 0, 64, 127
2, 342480, Note_on_c, 0, 72, 62
2, 342720, Note_on_c, 0, 72, 0
2, 342720, Note_on_c, 0, 74, 62
2, 342960, Note_on_c, 0, 74, 0
2, 342960, Note_on_c, 0, 75, 62
2, 343200, Note_on_c, 0, 75, 0
2, 343200, Control_c, 0, 64, 0
2, 343200, Note_on_c, 0, 77, 62
2, 343440, Note_on_c, 0, 77, 0
2, 344640, Note_on_c, 0, 67, 75
2, 344880, Note_on_c, 0, 67, 0
2, 344880, Note_on_c, 0, 65, 75
2, 345120, Note_on_c, 0, 65, 0
2, 345120, Note_on_c, 0, 63, 62
2, 345167, Note_on_c, 0, 63, 0
2, 345360, Note_on_c, 0, 62, 62
2, 345600, Note_on_c, 0, 62, 0
2, 345600, Note_on_c, 0, 63, 62
2, 345840, Note_on_c, 0, 63, 0
2, 345840, Note_on_c, 0, 65, 62
2, 345887, Note_on_c, 0, 65, 0
2, 346080, Note_on_c, 0, 67, 62
2, 346320, Note_on_c, 0, 67, 0
2, 346440, Note_on_c, 0, 67, 62
2, 346560, Note_on_c, 0, 67, 0
2, 346560, Note_on_c, 0, 67, 62
2, 347040, Note_on_c, 0, 67, 0
2, 347040, Note_on_c, 0, 69, 75
2, 347087, Note_on_c, 0, 69, 0
2, 347280, Note_on_c, 0, 71, 75
2, 347327, Note_on_c, 0, 71, 0
2, 347520, Note_on_c, 0, 79, 88
2, 348000, Note_on_c, 0, 79, 0
2, 348000, Note_on_c, 0, 72, 62
2, 348240, Note_on_c, 0, 72, 0
2, 348240, Note_on_c, 0, 79, 75
2, 348720, Note_on_c, 0, 79, 0
2, 348720, Note_on_c, 0, 72, 49
2, 348960, Note_on_c, 0, 72, 0
2, 348960, Note_on_c, 0, 77, 49
2, 349200, Note_on_c, 0, 77, 0
2, 349680, Note_on_c, 0, 64, 49
2, 349680, Note_on_c, 0, 70, 49
2, 349920, Note_on_c, 0, 70, 0
2, 349920, Note_on_c, 0, 64, 0
2, 350400, Note_on_c, 0, 84, 88
2, 350880, Note_on_c, 0, 84, 0
2, 350880, Note_on_c, 0, 77, 62
2, 351120, Note_on_c, 0, 77, 0
2, 351120, Note_on_c, 0, 84, 88
2, 351600, Note_on_c, 0, 84, 0
2, 351600, Note_on_c, 0, 77, 62
2, 351840, Note_on_c, 0, 77, 0
2, 351840, Note_on_c, 0, 72, 88
2, 352320, Note_on_c, 0, 72, 0
2, 352320, Note_on_c, 0, 65, 62
2, 352560, Note_on_c, 0, 65, 0
2, 352560, Note_on_c, 0, 72, 88
2, 353040, Note_on_c, 0, 72, 0
2, 353040, Note_on_c, 0, 65, 62
2, 353280, Note_on_c, 0, 65, 0
2, 353280, Note_on_c, 0, 60, 88
2, 354000, Note_on_c, 0, 60, 0
2, 354000, Note_on_c, 0, 60, 88
2, 354480, Note_on_c, 0, 60, 0
2, 354480, Note_on_c, 0, 53, 62
2, 354720, Note_on_c, 0, 53, 0
2, 355200, Note_on_c, 0, 41, 62
2, 355440, Note_on_c, 0, 41, 0
2, 355440, Note_on_c, 0, 48, 88
2, 355920, Note_on_c, 0, 48, 0
2, 356160, Note_on_c, 0, 65, 75
2, 356400, Note_on_c, 0, 65, 0
2, 356520, Note_on_c, 0, 65, 75
2, 356640, Note_on_c, 0, 65, 0
2, 356640, Note_on_c, 0, 65, 75
2, 357120, Note_on_c, 0, 65, 0
2, 357120, Note_on_c, 0, 66, 88
2, 357167, Note_on_c, 0, 66, 0
2, 357360, Note_on_c, 0, 68, 88
2, 357407, Note_on_c, 0, 68, 0
2, 357600, Note_on_c, 0, 70, 88
2, 357840, Note_on_c, 0, 70, 0
2, 357840, Note_on_c, 0, 68, 88
2, 358080, Note_on_c, 0, 68, 0
2, 358080, Note_on_c, 0, 66, 75
2, 358127, Note_on_c, 0, 66, 0
2, 358320, Note_on_c, 0, 65, 75
2, 358560, Note_on_c, 0, 65, 0
2, 358560, Note_on_c, 0, 66, 75
2, 358800, Note_on_c, 0, 66, 0
2, 358800, Note_on_c, 0, 68, 75
2, 358847, Note_on_c, 0, 68, 0
2, 359040, Note_on_c, 0, 70, 75
2, 359280, Note_on_c, 0, 70, 0
2, 359400, Note_on_c, 0, 70, 75
2, 359520, Note_on_c, 0, 70, 0
2, 359520, Note_on_c, 0, 70, 75
2, 360000, Note_on_c, 0, 70, 0
2, 360000, Note_on_c, 0, 72, 88
2, 360047, Note_on_c, 0, 72, 0
2, 360240, Note_on_c, 0, 74, 88
2, 360287, Note_on_c, 0, 74, 0
2, 360480, Note_on_c, 0, 82, 101
2, 360960, Note_on_c, 0, 82, 0
2, 360960, Note_on_c, 0, 75, 62
2, 361200, Note_on_c, 0, 75, 0
2, 361200, Note_on_c, 0, 82, 88
2, 361680, Note_on_c, 0, 82, 0
2, 361680, Note_on_c, 0, 75, 62
2, 361920, Note_on_c, 0, 75, 0
2, 361920, Note_on_c, 0, 80, 62
2, 362160, Note_on_c, 0, 80, 0
2, 362640, Note_on_c, 0, 67, 62
2, 362640, Note_on_c, 0, 73, 62
2, 362880, Note_on_c, 0, 73, 0
2, 362880, Note_on_c, 0, 67, 0
2, 363360, Note_on_c, 0, 87, 101
2, 363840, Note_on_c, 0, 87, 0
2, 363840, Note_on_c, 0, 80, 75
2, 364080, Note_on_c, 0, 80, 0
2, 364080, Note_on_c, 0, 87, 101
2, 364560, Note_on_c, 0, 87, 0
2, 364560, Note_on_c, 0, 80, 75
2, 364800, Note_on_c, 0, 80, 0
2, 364800, Note_on_c, 0, 75, 101
2, 365280, Note_on_c, 0, 75, 0
2, 365280, Note_on_c, 0, 68, 75
2, 365520, Note_on_c, 0, 68, 0
2, 365520, Note_on_c, 0, 75, 101
2, 366000, Note_on_c, 0, 75, 0
2, 366000, Note_on_c, 0, 68, 75
2, 366240, Note_on_c, 0, 68, 0
2, 366240, Note_on_c, 0, 63, 101
2, 366960, Note_on_c, 0, 63, 0
2, 366960, Note_on_c, 0, 63, 101
2, 367440, Note_on_c, 0, 63, 0
2, 367440, Note_on_c, 0, 56, 75
2, 367680, Note_on_c, 0, 56, 0
2, 368160, Note_on_c, 0, 44, 75
2, 368400, Note_on_c, 0, 44, 0
2, 368400, Note_on_c, 0, 51, 101
2, 368880, Note_on_c, 0, 51, 0
2, 369120, Note_on_c, 0, 56, 62
2, 369120, Note_on_c, 0, 59, 62
2, 369120, Note_on_c, 0, 64, 62
2, 369120, Note_on_c, 0, 68, 62
2, 370560, Note_on_c, 0, 68, 0
2, 370560, Note_on_c, 0, 56, 0
2, 370560, Note_on_c, 0, 59, 0
2, 370560, Note_on_c, 0, 64, 0
2, 370560, Note_on_c, 0, 56, 114
2, 370560, Note_on_c, 0, 63, 114
2, 371040, Note_on_c, 0, 63, 0
2, 371040, Note_on_c, 0, 56, 0
2, 371040, Note_on_c, 0, 56, 88
2, 371280, Note_on_c, 0, 56, 0
2, 371280, Note_on_c, 0, 63, 114
2, 371760, Note_on_c, 0, 63, 0
2, 371760, Note_on_c, 0, 56, 88
2, 372000, Note_on_c, 0, 56, 0
2, 372000, Note_on_c, 0, 56, 62
2, 372000, Note_on_c, 0, 59, 62
2, 372000, Note_on_c, 0, 64, 62
2, 372000, Note_on_c, 0, 68, 62
2, 373440, Note_on_c, 0, 68, 0
2, 373440, Note_on_c, 0, 56, 0
2, 373440, Note_on_c, 0, 59, 0
2, 373440, Note_on_c, 0, 64, 0
2, 373440, Note_on_c, 0, 59, 114
2, 373440, Note_on_c, 0, 66, 114
2, 373920, Note_on_c, 0, 66, 0
2, 373920, Note_on_c, 0, 59, 0
2, 373920, Note_on_c, 0, 59, 88
2, 374160, Note_on_c, 0, 59, 0
2, 374160, Note_on_c, 0, 66, 114
2, 374640, Note_on_c, 0, 66, 0
2, 374640, Note_on_c, 0, 59, 88
2, 374880, Note_on_c, 0, 59, 0
2, 374880, Note_on_c, 0, 59, 62
2, 374880, Note_on_c, 0, 62, 62
2, 374880, Note_on_c, 0, 67, 62
2, 374880, Note_on_c, 0, 71, 62
2, 376320, Note_on_c, 0, 71, 0
2, 376320, Note_on_c, 0, 59, 0
2, 376320, Note_on_c, 0, 62, 0
2, 376320, Note_on_c, 0, 67, 0
2, 376320, Note_on_c, 0, 59, 114
2, 376320, Note_on_c, 0, 66, 114
2, 376800, Note_on_c, 0, 66, 0
2, 376800, Note_on_c, 0, 59, 0
2, 376800, Note_on_c, 0, 59, 88
2, 377040, Note_on_c, 0, 59, 0
2, 377040, Note_on_c, 0, 66, 114
2, 377520, Note_on_c, 0, 66, 0
2, 377520, Note_on_c, 0, 59, 88
2, 377760, Note_on_c, 0, 59, 0
2, 377760, Note_on_c, 0, 59, 62
2, 377760, Note_on_c, 0, 62, 62
2, 377760, Note_on_c, 0, 67, 62
2, 377760, Note_on_c, 0, 71, 62
2, 379200, Note_on_c, 0, 71, 0
2, 379200, Note_on_c, 0, 59, 0
2, 379200, Note_on_c, 0, 62, 0
2, 379200, Note_on_c, 0, 67, 0
2, 379200, Note_on_c, 0, 69, 62
2, 380640, Note_on_c, 0, 69, 0
2, 380640, Note_on_c, 0, 62, 62
2, 380640, Note_on_c, 0, 66, 62
2, 380640, Note_on_c, 0, 71, 62
2, 380640, Note_on_c, 0, 74, 62
2, 382080, Note_on_c, 0, 74, 0
2, 382080, Note_on_c, 0, 62, 0
2, 382080, Note_on_c, 0, 66, 0
2, 382080, Note_on_c, 0, 71, 0
2, 382080, Note_on_c, 0, 58, 75
2, 382080, Note_on_c, 0, 66, 75
2, 382080, Note_on_c, 0, 73, 75
2, 383520, Note_on_c, 0, 73, 0
2, 383520, Note_on_c, 0, 66, 0
2, 383520, Note_on_c, 0, 58, 0
2, 383520, Note_on_c, 0, 66, 88
2, 383520, Note_on_c, 0, 69, 88
2, 383520, Note_on_c, 0, 74, 88
2, 383520, Note_on_c, 0, 78, 88
2, 383760, Note_on_c, 0, 78, 0
2, 383760, Note_on_c, 0, 66, 0
2, 383760, Note_on_c, 0, 69, 0
2, 383760, Note_on_c, 0, 74, 0
2, 383760, Note_on_c, 0, 68, 88
2, 383880, Note_on_c, 0, 68, 0
2, 383880, Note_on_c, 0, 74, 88
2, 383880, Note_on_c, 0, 78, 88
2, 383880, Note_on_c, 0, 80, 88
2, 384000, Note_on_c, 0, 80, 0
2, 384000, Note_on_c, 0, 78, 0
2, 384000, Note_on_c, 0, 74, 0
2, 384000, Note_on_c, 0, 69, 88
2, 384120, Note_on_c, 0, 69, 0
2, 384120, Note_on_c, 0, 74, 88
2, 384120, Note_on_c, 0, 78, 88
2, 384120, Note_on_c, 0, 81, 88
2, 384240, Note_on_c, 0, 81, 0
2, 384240, Note_on_c, 0, 78, 0
2, 384240, Note_on_c, 0, 74, 0
2, 384240, Note_on_c, 0, 71, 88
2, 384360, Note_on_c, 0, 71, 0
2, 384360, Note_on_c, 0, 83, 88
2, 384480, Note_on_c, 0, 83, 0
2, 384480, Note_on_c, 0, 73, 88
2, 384600, Note_on_c, 0, 73, 0
2, 384600, Note_on_c, 0, 85, 88
2, 384720, Note_on_c, 0, 85, 0
2, 384720, Note_on_c, 0, 74, 88
2, 384840, Note_on_c, 0, 74, 0
2, 384840, Note_on_c, 0, 86, 88
2, 384960, Note_on_c, 0, 86, 0
2, 384960, Note_on_c, 0, 76, 101
2, 384960, Note_on_c, 0, 81, 101
2, 384960, Note_on_c, 0, 88, 101
2, 385200, Note_on_c, 0, 88, 0
2, 385200, Note_on_c, 0, 81, 0
2, 385200, Note_on_c, 0, 76, 0
2, 385320, Note_on_c, 0, 76, 101
2, 385320, Note_on_c, 0, 81, 101
2, 385320, Note_on_c, 0, 88, 101
2, 385440, Note_on_c, 0, 88, 0
2, 385440, Note_on_c, 0, 81, 0
2, 385440, Note_on_c, 0, 76, 0
2, 385440, Note_on_c, 0, 76, 101
2, 385440, Note_on_c, 0, 81, 101
2, 385440, Note_on_c, 0, 88, 101
2, 385680, Note_on_c, 0, 88, 0
2, 385680, Note_on_c, 0, 81, 0
2, 385680, Note_on_c, 0, 76, 0
2, 385920, Note_on_c, 0, 69, 101
2, 386040, Note_on_c, 0, 69, 0
2, 386040, Note_on_c, 0, 70, 101
2, 386160, Note_on_c, 0, 70, 0
2, 386160, Note_on_c, 0, 71, 101
2, 386280, Note_on_c, 0, 71, 0
2, 386280, Note_on_c, 0, 73, 101
2, 386400, Note_on_c, 0, 73, 0
2, 386400, Note_on_c, 0, 74, 101
2, 386520, Note_on_c, 0, 74, 0
2, 386520, Note_on_c, 0, 73, 101
2, 386640, Note_on_c, 0, 73, 0
2, 386640, Note_on_c, 0, 74, 101
2, 386760, Note_on_c, 0, 74, 0
2, 386760, Note_on_c, 0, 76, 101
2, 386880, Note_on_c, 0, 76, 0
2, 386880, Note_on_c, 0, 78, 101
2, 387000, Note_on_c, 0, 78, 0
2, 387000, Note_on_c, 0, 76, 101
2, 387120, Note_on_c, 0, 76, 0
2, 387120, Note_on_c, 0, 78, 101
2, 387240, Note_on_c, 0, 78, 0
2, 387240, Note_on_c, 0, 80, 101
2, 387360, Note_on_c, 0, 80, 0
2, 387360, Note_on_c, 0, 81, 101
2, 387480, Note_on_c, 0, 81, 0
2, 387480, Note_on_c, 0, 80, 101
2, 387600, Note_on_c, 0, 80, 0
2, 387600, Note_on_c, 0, 81, 101
2, 387720, Note_on_c, 0, 81, 0
2, 387720, Note_on_c, 0, 83, 101
2, 387840, Note_on_c, 0, 83, 0
2, 387840, Note_on_c, 0, 76, 101
2, 387840, Note_on_c, 0, 81, 101
2, 387840, Note_on_c, 0, 88, 101
2, 388080, Note_on_c, 0, 88, 0
2, 388080, Note_on_c, 0, 81, 0
2, 388080, Note_on_c, 0, 76, 0
2, 388200, Note_on_c, 0, 76, 101
2, 388200, Note_on_c, 0, 81, 101
2, 388200, Note_on_c, 0, 88, 101
2, 388320, Note_on_c, 0, 88, 0
2, 388320, Note_on_c, 0, 81, 0
2, 388320, Note_on_c, 0, 76, 0
2, 388320, Note_on_c, 0, 76, 101
2, 388320, Note_on_c, 0, 81, 101
2, 388320, Note_on_c, 0, 88, 101
2, 388560, Note_on_c, 0, 88, 0
2, 388560, Note_on_c, 0, 81, 0
2, 388560, Note_on_c, 0, 76, 0
2, 388800, Note_on_c, 0, 69, 101
2, 388920, Note_on_c, 0, 69, 0
2, 388920, Note_on_c, 0, 70, 101
2, 389040, Note_on_c, 0, 70, 0
2, 389040, Note_on_c, 0, 71, 101
2, 389160, Note_on_c, 0, 71, 0
2, 389160, Note_on_c, 0, 73, 101
2, 389280, Note_on_c, 0, 73, 0
2, 389280, Note_on_c, 0, 74, 101
2, 389400, Note_on_c, 0, 74, 0
2, 389400, Note_on_c, 0, 73, 101
2, 389520, Note_on_c, 0, 73, 0
2, 389520, Note_on_c, 0, 74, 101
2, 389640, Note_on_c, 0, 74, 0
2, 389640, Note_on_c, 0, 76, 101
2, 389760, Note_on_c, 0, 76, 0
2, 389760, Note_on_c, 0, 78, 101
2, 389880, Note_on_c, 0, 78, 0
2, 389880, Note_on_c, 0, 79, 101
2, 390000, Note_on_c, 0, 79, 0
2, 390000, Note_on_c, 0, 78, 101
2, 390120, Note_on_c, 0, 78, 0
2, 390120, Note_on_c, 0, 80, 101
2, 390240, Note_on_c, 0, 80, 0
2, 390240, Note_on_c, 0, 81, 101
2, 390360, Note_on_c, 0, 81, 0
2, 390360, Note_on_c, 0, 80, 101
2, 390480, Note_on_c, 0, 80, 0
2, 390480, Note_on_c, 0, 81, 101
2, 390600, Note_on_c, 0, 81, 0
2, 390600, Note_on_c, 0, 83, 101
2, 390720, Note_on_c, 0, 83, 0
2, 390720, Note_on_c, 0, 76, 101
2, 390720, Note_on_c, 0, 81, 101
2, 390720, Note_on_c, 0, 88, 101
2, 390960, Note_on_c, 0, 88, 0
2, 390960, Note_on_c, 0, 81, 0
2, 390960, Note_on_c, 0, 76, 0
2, 391080, Note_on_c, 0, 76, 101
2, 391080, Note_on_c, 0, 81, 101
2, 391080, Note_on_c, 0, 88, 101
2, 391200, Note_on_c, 0, 88, 0
2, 391200, Note_on_c, 0, 81, 0
2, 391200, Note_on_c, 0, 76, 0
2, 391200, Note_on_c, 0, 76, 101
2, 391200, Note_on_c, 0, 81, 101
2, 391200, Note_on_c, 0, 88, 101
2, 391440, Note_on_c, 0, 88, 0
2, 391440, Note_on_c, 0, 81, 0
2, 391440, Note_on_c, 0, 76, 0
2, 391440, Note_on_c, 0, 64, 101
2, 391440, Note_on_c, 0, 69, 101
2, 391800, Note_on_c, 0, 69, 0
2, 391800, Note_on_c, 0, 64, 0
2, 391800, Note_on_c, 0, 64, 101
2, 391800, Note_on_c, 0, 69, 101
2, 391920, Note_on_c, 0, 69, 0
2, 391920, Note_on_c, 0, 64, 0
2, 391920, Note_on_c, 0, 64, 101
2, 391920, Note_on_c, 0, 69, 101
2, 392160, Note_on_c, 0, 69, 0
2, 392160, Note_on_c, 0, 64, 0
2, 392160, Note_on_c, 0, 77, 101
2, 392160, Note_on_c, 0, 81, 101
2, 392160, Note_on_c, 0, 87, 101
2, 392160, Note_on_c, 0, 89, 101
2, 392400, Note_on_c, 0, 89, 0
2, 392400, Note_on_c, 0, 77, 0
2, 392400, Note_on_c, 0, 81, 0
2, 392400, Note_on_c, 0, 87, 0
2, 392520, Note_on_c, 0, 77, 101
2, 392520, Note_on_c, 0, 81, 101
2, 392520, Note_on_c, 0, 87, 101
2, 392520, Note_on_c, 0, 89, 101
2, 392640, Note_on_c, 0, 89, 0
2, 392640, Note_on_c, 0, 77, 0
2, 392640, Note_on_c, 0, 81, 0
2, 392640, Note_on_c, 0, 87, 0
2, 392640, Note_on_c, 0, 77, 101
2, 392640, Note_on_c, 0, 81, 101
2, 392640, Note_on_c, 0, 87, 101
2, 392640, Note_on_c, 0, 89, 101
2, 392880, Note_on_c, 0, 89, 0
2, 392880, Note_on_c, 0, 77, 0
2, 392880, Note_on_c, 0, 81, 0
2, 392880, Note_on_c, 0, 87, 0
2, 392880, Note_on_c, 0, 63, 101
2, 392880, Note_on_c, 0, 65, 101
2, 392880, Note_on_c, 0, 69, 101
2, 393240, Note_on_c, 0, 69, 0
2, 393240, Note_on_c, 0, 65, 0
2, 393240, Note_on_c, 0, 63, 0
2, 393240, Note_on_c, 0, 63, 101
2, 393240, Note_on_c, 0, 65, 101
2, 393240, Note_on_c, 0, 69, 101
2, 393360, Note_on_c, 0, 69, 0
2, 393360, Note_on_c, 0, 65, 0
2, 393360, Note_on_c, 0, 63, 0
2, 393360, Note_on_c, 0, 63, 101
2, 393360, Note_on_c, 0, 65, 101
2, 393360, Note_on_c, 0, 69, 101
2, 393600, Note_on_c, 0, 69, 0
2, 393600, Note_on_c, 0, 65, 0
2, 393600, Note_on_c, 0, 63, 0
2, 393600, Note_on_c, 0, 77, 101
2, 393600, Note_on_c, 0, 80, 101
2, 393600, Note_on_c, 0, 86, 101
2, 393600, Note_on_c, 0, 89, 101
2, 393840, Note_on_c, 0, 89, 0
2, 393840, Note_on_c, 0, 77, 0
2, 393840, Note_on_c, 0, 80, 0
2, 393840, Note_on_c, 0, 86, 0
2, 393960, Note_on_c, 0, 77, 101
2, 393960, Note_on_c, 0, 80, 101
2, 393960, Note_on_c, 0, 86, 101
2, 393960, Note_on_c, 0, 89, 101
2, 394080, Note_on_c, 0, 89, 0
2, 394080, Note_on_c, 0, 77, 0
2, 394080, Note_on_c, 0, 80, 0
2, 394080, Note_on_c, 0, 86, 0
2, 394080, Note_on_c, 0, 77, 101
2, 394080, Note_on_c, 0, 80, 101
2, 394080, Note_on_c, 0, 86, 101
2, 394080, Note_on_c, 0, 89, 101
2, 394320, Note_on_c, 0, 89, 0
2, 394320, Note_on_c, 0, 77, 0
2, 394320, Note_on_c, 0, 80, 0
2, 394320, Note_on_c, 0, 86, 0
2, 394560, Note_on_c, 0, 74, 101
2, 394680, Note_on_c, 0, 74, 0
2, 394680, Note_on_c, 0, 76, 101
2, 394800, Note_on_c, 0, 76, 0
2, 394800, Note_on_c, 0, 77, 101
2, 394920, Note_on_c, 0, 77, 0
2, 394920, Note_on_c, 0, 79, 101
2, 395040, Note_on_c, 0, 79, 0
2, 395040, Note_on_c, 0, 80, 101
2, 395160, Note_on_c, 0, 80, 0
2, 395160, Note_on_c, 0, 79, 101
2, 395280, Note_on_c, 0, 79, 0
2, 395280, Note_on_c, 0, 80, 101
2, 395400, Note_on_c, 0, 80, 0
2, 395400, Note_on_c, 0, 82, 101
2, 395520, Note_on_c, 0, 82, 0
2, 395520, Note_on_c, 0, 83, 101
2, 395640, Note_on_c, 0, 83, 0
2, 395640, Note_on_c, 0, 82, 101
2, 395760, Note_on_c, 0, 82, 0
2, 395760, Note_on_c, 0, 83, 101
2, 395880, Note_on_c, 0, 83, 0
2, 395880, Note_on_c, 0, 85, 101
2, 396000, Note_on_c, 0, 85, 0
2, 396000, Note_on_c, 0, 86, 101
2, 396120, Note_on_c, 0, 86, 0
2, 396120, Note_on_c, 0, 85, 101
2, 396240, Note_on_c, 0, 85, 0
2, 396240, Note_on_c, 0, 86, 101
2, 396360, Note_on_c, 0, 86, 0
2, 396360, Note_on_c, 0, 88, 101
2, 396480, Note_on_c, 0, 88, 0
2, 396480, Note_on_c, 0, 77, 101
2, 396480, Note_on_c, 0, 80, 101
2, 396480, Note_on_c, 0, 86, 101
2, 396480, Note_on_c, 0, 89, 101
2, 396720, Note_on_c, 0, 89, 0
2, 396720, Note_on_c, 0, 77, 0
2, 396720, Note_on_c, 0, 80, 0
2, 396720, Note_on_c, 0, 86, 0
2, 396840, Note_on_c, 0, 77, 101
2, 396840, Note_on_c, 0, 80, 101
2, 396840, Note_on_c, 0, 86, 101
2, 396840, Note_on_c, 0, 89, 101
2, 396960, Note_on_c, 0, 89, 0
2, 396960, Note_on_c, 0, 77, 0
2, 396960, Note_on_c, 0, 80, 0
2, 396960, Note_on_c, 0, 86, 0
2, 396960, Note_on_c, 0, 77, 101
2, 396960, Note_on_c, 0, 80, 101
2, 396960, Note_on_c, 0, 86, 101
2, 396960, Note_on_c, 0, 89, 101
2, 397200, Note_on_c, 0, 89, 0
2, 397200, Note_on_c, 0, 77, 0
2, 397200, Note_on_c, 0, 80, 0
2, 397200, Note_on_c, 0, 86, 0
2, 397440, Note_on_c, 0, 74, 101
2, 397560, Note_on_c, 0, 74, 0
2, 397560, Note_on_c, 0, 76, 101
2, 397680, Note_on_c, 0, 76, 0
2, 397680, Note_on_c, 0, 77, 101
2, 397800, Note_on_c, 0, 77, 0
2, 397800, Note_on_c, 0, 79, 101
2, 397920, Note_on_c, 0, 79, 0
2, 397920, Note_on_c, 0, 80, 101
2, 398040, Note_on_c, 0, 80, 0
2, 398040, Note_on_c, 0, 79, 101
2, 398160, Note_on_c, 0, 79, 0
2, 398160, Note_on_c, 0, 80, 101
2, 398280, Note_on_c, 0, 80, 0
2, 398280, Note_on_c, 0, 82, 101
2, 398400, Note_on_c, 0, 82, 0
2, 398400, Note_on_c, 0, 83, 101
2, 398520, Note_on_c, 0, 83, 0
2, 398520, Note_on_c, 0, 82, 101
2, 398640, Note_on_c, 0, 82, 0
2, 398640, Note_on_c, 0, 83, 101
2, 398760, Note_on_c, 0, 83, 0
2, 398760, Note_on_c, 0, 85, 101
2, 398880, Note_on_c, 0, 85, 0
2, 398880, Note_on_c, 0, 86, 101
2, 399000, Note_on_c, 0, 86, 0
2, 399000, Note_on_c, 0, 85, 101
2, 399120, Note_on_c, 0, 85, 0
2, 399120, Note_on_c, 0, 86, 101
2, 399240, Note_on_c, 0, 86, 0
2, 399240, Note_on_c, 0, 88, 101
2, 399360, Note_on_c, 0, 88, 0
2, 399360, Note_on_c, 0, 77, 101
2, 399360, Note_on_c, 0, 80, 101
2, 399360, Note_on_c, 0, 86, 101
2, 399360, Note_on_c, 0, 89, 101
2, 399600, Note_on_c, 0, 89, 0
2, 399600, Note_on_c, 0, 77, 0
2, 399600, Note_on_c, 0, 80, 0
2, 399600, Note_on_c, 0, 86, 0
2, 399720, Note_on_c, 0, 77, 101
2, 399720, Note_on_c, 0, 80, 101
2, 399720, Note_on_c, 0, 86, 101
2, 399720, Note_on_c, 0, 89, 101
2, 399840, Note_on_c, 0, 89, 0
2, 399840, Note_on_c, 0, 77, 0
2, 399840, Note_on_c, 0, 80, 0
2, 399840, Note_on_c, 0, 86, 0
2, 399840, Note_on_c, 0, 77, 101
2, 399840, Note_on_c, 0, 80, 101
2, 399840, Note_on_c, 0, 86, 101
2, 399840, Note_on_c, 0, 89, 101
2, 400080, Note_on_c, 0, 89, 0
2, 400080, Note_on_c, 0, 77, 0
2, 400080, Note_on_c, 0, 80, 0
2, 400080, Note_on_c, 0, 86, 0
2, 400080, Note_on_c, 0, 62, 101
2, 400080, Note_on_c, 0, 68, 101
2, 400440, Note_on_c, 0, 68, 0
2, 400440, Note_on_c, 0, 62, 0
2, 400440, Note_on_c, 0, 62, 101
2, 400440, Note_on_c, 0, 68, 101
2, 400560, Note_on_c, 0, 68, 0
2, 400560, Note_on_c, 0, 62, 0
2, 400560, Note_on_c, 0, 62, 101
2, 400560, Note_on_c, 0, 68, 101
2, 400800, Note_on_c, 0, 68, 0
2, 400800, Note_on_c, 0, 62, 0
2, 400800, Note_on_c, 0, 77, 101
2, 400800, Note_on_c, 0, 80, 101
2, 400800, Note_on_c, 0, 86, 101
2, 400800, Note_on_c, 0, 89, 101
2, 401040, Note_on_c, 0, 89, 0
2, 401040, Note_on_c, 0, 77, 0
2, 401040, Note_on_c, 0, 80, 0
2, 401040, Note_on_c, 0, 86, 0
2, 401160, Note_on_c, 0, 77, 101
2, 401160, Note_on_c, 0, 80, 101
2, 401160, Note_on_c, 0, 86, 101
2, 401160, Note_on_c, 0, 89, 101
2, 401280, Note_on_c, 0, 89, 0
2, 401280, Note_on_c, 0, 77, 0
2, 401280, Note_on_c, 0, 80, 0
2, 401280, Note_on_c, 0, 86, 0
2, 401280, Note_on_c, 0, 77, 101
2, 401280, Note_on_c, 0, 80, 101
2, 401280, Note_on_c, 0, 86, 101
2, 401280, Note_on_c, 0, 89, 101
2, 401520, Note_on_c, 0, 89, 0
2, 401520, Note_on_c, 0, 77, 0
2, 401520, Note_on_c, 0, 80, 0
2, 401520, Note_on_c, 0, 86, 0
2, 401520, Note_on_c, 0, 62, 101
2, 401520, Note_on_c, 0, 68, 101
2, 401880, Note_on_c, 0, 68, 0
2, 401880, Note_on_c, 0, 62, 0
2, 401880, Note_on_c, 0, 62, 101
2, 401880, Note_on_c, 0, 68, 101
2, 402000, Note_on_c, 0, 68, 0
2, 402000, Note_on_c, 0, 62, 0
2, 402000, Note_on_c, 0, 62, 101
2, 402000, Note_on_c, 0, 68, 101
2, 402240, Note_on_c, 0, 68, 0
2, 402240, Note_on_c, 0, 62, 0
2, 402240, Note_on_c, 0, 58, 88
2, 402240, Note_on_c, 0, 62, 88
2, 402240, Note_on_c, 0, 68, 88
2, 402600, Note_on_c, 0, 68, 0
2, 402600, Note_on_c, 0, 62, 0
2, 402600, Note_on_c, 0, 58, 0
2, 402600, Note_on_c, 0, 58, 88
2, 402600, Note_on_c, 0, 62, 88
2, 402600, Note_on_c, 0, 68, 88
2, 402720, Note_on_c, 0, 68, 0
2, 402720, Note_on_c, 0, 62, 0
2, 402720, Note_on_c, 0, 58, 0
2, 402720, Note_on_c, 0, 58, 88
2, 402720, Note_on_c, 0, 62, 88
2, 402720, Note_on_c, 0, 68, 88
2, 402960, Note_on_c, 0, 68, 0
2, 402960, Note_on_c, 0, 62, 0
2, 402960, Note_on_c, 0, 58, 0
2, 402960, Note_on_c, 0, 58, 88
2, 402960, Note_on_c, 0, 62, 88
2, 402960, Note_on_c, 0, 68, 88
2, 403320, Note_on_c, 0, 68, 0
2, 403320, Note_on_c, 0, 62, 0
2, 403320, Note_on_c, 0, 58, 0
2, 403320, Note_on_c, 0, 58, 88
2, 403320, Note_on_c, 0, 62, 88
2, 403320, Note_on_c, 0, 68, 88
2, 403440, Note_on_c, 0, 68, 0
2, 403440, Note_on_c, 0, 62, 0
2, 403440, Note_on_c, 0, 58, 0
2, 403440, Note_on_c, 0, 58, 88
2, 403440, Note_on_c, 0, 62, 88
2, 403440, Note_on_c, 0, 68, 88
2, 403680, Note_on_c, 0, 68, 0
2, 403680, Note_on_c, 0, 62, 0
2, 403680, Note_on_c, 0, 58, 0
2, 403680, Note_on_c, 0, 58, 75
2, 403680, Note_on_c, 0, 62, 75
2, 403680, Note_on_c, 0, 68, 75
2, 404040, Note_on_c, 0, 68, 0
2, 404040, Note_on_c, 0, 62, 0
2, 404040, Note_on_c, 0, 58, 0
2, 404040, Note_on_c, 0, 58, 75
2, 404040, Note_on_c, 0, 62, 75
2, 404040, Note_on_c, 0, 68, 75
2, 404160, Note_on_c, 0, 68, 0
2, 404160, Note_on_c, 0, 62, 0
2, 404160, Note_on_c, 0, 58, 0
2, 404160, Note_on_c, 0, 58, 75
2, 404160, Note_on_c, 0, 62, 75
2, 404160, Note_on_c, 0, 68, 75
2, 404400, Note_on_c, 0, 68, 0
2, 404400, Note_on_c, 0, 62, 0
2, 404400, Note_on_c, 0, 58, 0
2, 404400, Note_on_c, 0, 58, 62
2, 404400, Note_on_c, 0, 62, 62
2, 404400, Note_on_c, 0, 68, 62
2, 404760, Note_on_c, 0, 68, 0
2, 404760, Note_on_c, 0, 62, 0
2, 404760, Note_on_c, 0, 58, 0
2, 404760, Note_on_c, 0, 58, 62
2, 404760, Note_on_c, 0, 62, 62
2, 404760, Note_on_c, 0, 68, 62
2, 404880, Note_on_c, 0, 68, 0
2, 404880, Note_on_c, 0, 62, 0
2, 404880, Note_on_c, 0, 58, 0
2, 404880, Note_on_c, 0, 58, 62
2, 404880, Note_on_c, 0, 62, 62
2, 404880, Note_on_c, 0, 68, 62
2, 405120, Note_on_c, 0, 68, 0
2, 405120, Note_on_c, 0, 62, 0
2, 405120, Note_on_c, 0, 58, 0
2, 405120, Note_on_c, 0, 58, 75
2, 405120, Note_on_c, 0, 70, 75
2, 406320, Note_on_c, 0, 70, 0
2, 406320, Note_on_c, 0, 58, 0
2, 406320, Note_on_c, 0, 60, 88
2, 406320, Note_on_c, 0, 72, 88
2, 406560, Note_on_c, 0, 72, 0
2, 406560, Note_on_c, 0, 60, 0
2, 406560, Note_on_c, 0, 62, 75
2, 406560, Note_on_c, 0, 74, 75
2, 407280, Note_on_c, 0, 74, 0
2, 407280, Note_on_c, 0, 62, 0
2, 407280, Note_on_c, 0, 63, 88
2, 407280, Note_on_c, 0, 75, 88
2, 407760, Note_on_c, 0, 75, 0
2, 407760, Note_on_c, 0, 63, 0
2, 407760, Note_on_c, 0, 65, 88
2, 407760, Note_on_c, 0, 77, 88
2, 408000, Note_on_c, 0, 77, 0
2, 408000, Note_on_c, 0, 65, 0
2, 408000, Note_on_c, 0, 68, 88
2, 408000, Note_on_c, 0, 80, 88
2, 408720, Note_on_c, 0, 80, 0
2, 408720, Note_on_c, 0, 68, 0
2, 408720, Note_on_c, 0, 66, 88
2, 408720, Note_on_c, 0, 78, 88
2, 409440, Note_on_c, 0, 78, 0
2, 409440, Note_on_c, 0, 66, 0
2, 409440, Note_on_c, 0, 65, 75
2, 409440, Note_on_c, 0, 77, 75
2, 410160, Note_on_c, 0, 77, 0
2, 410160, Note_on_c, 0, 65, 0
2, 410160, Note_on_c, 0, 63, 75
2, 410160, Note_on_c, 0, 75, 75
2, 410640, Note_on_c, 0, 75, 0
2, 410640, Note_on_c, 0, 63, 0
2, 410640, Note_on_c, 0, 62, 75
2, 410640, Note_on_c, 0, 74, 75
2, 410880, Note_on_c, 0, 74, 0
2, 410880, Note_on_c, 0, 62, 0
2, 410880, Note_on_c, 0, 58, 75
2, 410880, Note_on_c, 0, 70, 75
2, 412080, Note_on_c, 0, 70, 0
2, 412080, Note_on_c, 0, 58, 0
2, 412080, Note_on_c, 0, 60, 75
2, 412080, Note_on_c, 0, 72, 75
2, 412320, Note_on_c, 0, 72, 0
2, 412320, Note_on_c, 0, 60, 0
2, 412320, Note_on_c, 0, 62, 75
2, 412320, Note_on_c, 0, 74, 75
2, 413040, Note_on_c, 0, 74, 0
2, 413040, Note_on_c, 0, 62, 0
2, 413040, Note_on_c, 0, 63, 88
2, 413040, Note_on_c, 0, 75, 88
2, 413520, Note_on_c, 0, 75, 0
2, 413520, Note_on_c, 0, 63, 0
2, 413520, Note_on_c, 0, 65, 88
2, 413520, Note_on_c, 0, 77, 88
2, 413760, Note_on_c, 0, 77, 0
2, 413760, Note_on_c, 0, 65, 0
2, 413760, Note_on_c, 0, 68, 88
2, 413760, Note_on_c, 0, 80, 88
2, 414480, Note_on_c, 0, 80, 0
2, 414480, Note_on_c, 0, 68, 0
2, 414480, Note_on_c, 0, 66, 88
2, 414480, Note_on_c, 0, 78, 88
2, 415200, Note_on_c, 0, 78, 0
2, 415200, Note_on_c, 0, 66, 0
2, 415200, Note_on_c, 0, 65, 75
2, 415200, Note_on_c, 0, 77, 75
2, 415920, Note_on_c, 0, 77, 0
2, 415920, Note_on_c, 0, 65, 0
2, 415920, Note_on_c, 0, 63, 75
2, 415920, Note_on_c, 0, 75, 75
2, 416400, Note_on_c, 0, 75, 0
2, 416400, Note_on_c, 0, 63, 0
2, 416400, Note_on_c, 0, 62, 75
2, 416400, Note_on_c, 0, 74, 75
2, 416640, Note_on_c, 0, 74, 0
2, 416640, Note_on_c, 0, 62, 0
2, 416640, Note_on_c, 0, 61, 75
2, 416640, Note_on_c, 0, 70, 75
2, 416640, Note_on_c, 0, 73, 75
2, 416880, Note_on_c, 0, 73, 0
2, 416880, Note_on_c, 0, 70, 0
2, 416880, Note_on_c, 0, 61, 0
2, 417360, Note_on_c, 0, 61, 75
2, 417360, Note_on_c, 0, 66, 75
2, 417360, Note_on_c, 0, 70, 75
2, 417600, Note_on_c, 0, 70, 0
2, 417600, Note_on_c, 0, 66, 0
2, 417600, Note_on_c, 0, 61, 0
2, 417840, Note_on_c, 0, 61, 75
2, 417840, Note_on_c, 0, 66, 75
2, 418080, Note_on_c, 0, 66, 0
2, 418080, Note_on_c, 0, 61, 0
2, 418080, Note_on_c, 0, 66, 62
2, 418080, Note_on_c, 0, 71, 62
2, 418320, Note_on_c, 0, 71, 0
2, 418320, Note_on_c, 0, 66, 0
2, 418800, Note_on_c, 0, 74, 62
2, 419040, Note_on_c, 0, 74, 0
2, 419280, Note_on_c, 0, 66, 62
2, 419280, Note_on_c, 0, 71, 62
2, 419520, Note_on_c, 0, 71, 0
2, 419520, Note_on_c, 0, 66, 0
2, 419520, Note_on_c, 0, 59, 75
2, 419520, Note_on_c, 0, 64, 75
2, 419520, Note_on_c, 0, 71, 75
2, 419760, Note_on_c, 0, 71, 0
2, 419760, Note_on_c, 0, 64, 0
2, 419760, Note_on_c, 0, 59, 0
2, 419880, Note_on_c, 0, 59, 75
2, 419880, Note_on_c, 0, 71, 75
2, 420000, Note_on_c, 0, 71, 0
2, 420000, Note_on_c, 0, 59, 0
2, 420000, Note_on_c, 0, 59, 75
2, 420000, Note_on_c, 0, 71, 75
2, 420240, Note_on_c, 0, 63, 75
2, 420240, Note_on_c, 0, 69, 75
2, 420480, Note_on_c, 0, 69, 0
2, 420480, Note_on_c, 0, 59, 0
2, 420480, Note_on_c, 0, 71, 0
2, 420480, Note_on_c, 0, 63, 0
2, 420480, Note_on_c, 0, 61, 88
2, 420480, Note_on_c, 0, 73, 88
2, 420720, Note_on_c, 0, 73, 0
2, 420720, Note_on_c, 0, 61, 0
2, 420720, Note_on_c, 0, 63, 88
2, 420720, Note_on_c, 0, 75, 88
2, 420960, Note_on_c, 0, 75, 0
2, 420960, Note_on_c, 0, 63, 0
2, 420960, Note_on_c, 0, 64, 88
2, 420960, Note_on_c, 0, 71, 88
2, 420960, Note_on_c, 0, 76, 88
2, 421200, Note_on_c, 0, 76, 0
2, 421200, Note_on_c, 0, 71, 0
2, 421200, Note_on_c, 0, 64, 0
2, 421320, Note_on_c, 0, 64, 88
2, 421320, Note_on_c, 0, 76, 88
2, 421440, Note_on_c, 0, 76, 0
2, 421440, Note_on_c, 0, 64, 0
2, 421440, Note_on_c, 0, 64, 88
2, 421440, Note_on_c, 0, 76, 88
2, 421920, Note_on_c, 0, 76, 0
2, 421920, Note_on_c, 0, 64, 0
2, 421920, Note_on_c, 0, 66, 88
2, 421920, Note_on_c, 0, 78, 88
2, 422160, Note_on_c, 0, 78, 0
2, 422160, Note_on_c, 0, 66, 0
2, 422160, Note_on_c, 0, 67, 88
2, 422160, Note_on_c, 0, 76, 88
2, 422160, Note_on_c, 0, 79, 88
2, 422400, Note_on_c, 0, 79, 0
2, 422400, Note_on_c, 0, 76, 0
2, 422400, Note_on_c, 0, 67, 0
2, 422400, Note_on_c, 0, 67, 62
2, 422400, Note_on_c, 0, 71, 62
2, 422640, Note_on_c, 0, 71, 0
2, 422640, Note_on_c, 0, 67, 0
2, 423120, Note_on_c, 0, 59, 62
2, 423120, Note_on_c, 0, 64, 62
2, 423120, Note_on_c, 0, 68, 62
2, 423360, Note_on_c, 0, 68, 0
2, 423360, Note_on_c, 0, 64, 0
2, 423360, Note_on_c, 0, 59, 0
2, 423600, Note_on_c, 0, 59, 62
2, 423600, Note_on_c, 0, 64, 62
2, 423840, Note_on_c, 0, 64, 0
2, 423840, Note_on_c, 0, 59, 0
2, 423840, Note_on_c, 0, 64, 62
2, 423840, Note_on_c, 0, 69, 62
2, 424080, Note_on_c, 0, 69, 0
2, 424080, Note_on_c, 0, 64, 0
2, 424560, Note_on_c, 0, 72, 62
2, 424800, Note_on_c, 0, 72, 0
2, 425040, Note_on_c, 0, 64, 62
2, 425040, Note_on_c, 0, 69, 62
2, 425280, Note_on_c, 0, 69, 0
2, 425280, Note_on_c, 0, 64, 0
2, 425280, Note_on_c, 0, 57, 75
2, 425280, Note_on_c, 0, 62, 75
2, 425280, Note_on_c, 0, 69, 75
2, 425520, Note_on_c, 0, 69, 0
2, 425520, Note_on_c, 0, 62, 0
2, 425520, Note_on_c, 0, 57, 0
2, 425640, Note_on_c, 0, 57, 75
2, 425640, Note_on_c, 0, 69, 75
2, 425760, Note_on_c, 0, 69, 0
2, 425760, Note_on_c, 0, 57, 0
2, 425760, Note_on_c, 0, 57, 75
2, 425760, Note_on_c, 0, 69, 75
2, 426000, Note_on_c, 0, 61, 75
2, 426000, Note_on_c, 0, 67, 75
2, 426240, Note_on_c, 0, 67, 0
2, 426240, Note_on_c, 0, 57, 0
2, 426240, Note_on_c, 0, 69, 0
2, 426240, Note_on_c, 0, 61, 0
2, 426240, Note_on_c, 0, 59, 88
2, 426240, Note_on_c, 0, 71, 88
2, 426480, Note_on_c, 0, 71, 0
2, 426480, Note_on_c, 0, 59, 0
2, 426480, Note_on_c, 0, 61, 88
2, 426480, Note_on_c, 0, 73, 88
2, 426720, Note_on_c, 0, 73, 0
2, 426720, Note_on_c, 0, 61, 0
2, 426720, Note_on_c, 0, 62, 88
2, 426720, Note_on_c, 0, 69, 88
2, 426720, Note_on_c, 0, 74, 88
2, 426960, Note_on_c, 0, 74, 0
2, 426960, Note_on_c, 0, 69, 0
2, 426960, Note_on_c, 0, 62, 0
2, 427080, Note_on_c, 0, 62, 88
2, 427080, Note_on_c, 0, 74, 88
2, 427200, Note_on_c, 0, 74, 0
2, 427200, Note_on_c, 0, 62, 0
2, 427200, Note_on_c, 0, 62, 88
2, 427200, Note_on_c, 0, 74, 88
2, 427680, Note_on_c, 0, 74, 0
2, 427680, Note_on_c, 0, 62, 0
2, 427680, Note_on_c, 0, 64, 88
2, 427680, Note_on_c, 0, 76, 88
2, 427920, Note_on_c, 0, 76, 0
2, 427920, Note_on_c, 0, 64, 0
2, 427920, Note_on_c, 0, 65, 88
2, 427920, Note_on_c, 0, 74, 88
2, 427920, Note_on_c, 0, 77, 88
2, 428160, Note_on_c, 0, 77, 0
2, 428160, Note_on_c, 0, 74, 0
2, 428160, Note_on_c, 0, 65, 0
2, 428160, Note_on_c, 0, 67, 101
2, 428160, Note_on_c, 0, 74, 101
2, 428160, Note_on_c, 0, 79, 101
2, 428640, Note_on_c, 0, 79, 0
2, 428640, Note_on_c, 0, 74, 0
2, 428640, Note_on_c, 0, 67, 0
2, 428640, Note_on_c, 0, 62, 101
2, 428640, Note_on_c, 0, 67, 101
2, 428640, Note_on_c, 0, 74, 101
2, 428880, Note_on_c, 0, 74, 0
2, 428880, Note_on_c, 0, 67, 0
2, 428880, Note_on_c, 0, 62, 0
2, 428880, Note_on_c, 0, 67, 101
2, 428880, Note_on_c, 0, 74, 101
2, 428880, Note_on_c, 0, 79, 101
2, 429360, Note_on_c, 0, 79, 0
2, 429360, Note_on_c, 0, 74, 0
2, 429360, Note_on_c, 0, 67, 0
2, 429360, Note_on_c, 0, 62, 101
2, 429360, Note_on_c, 0, 67, 101
2, 429360, Note_on_c, 0, 74, 101
2, 429600, Note_on_c, 0, 74, 0
2, 429600, Note_on_c, 0, 67, 0
2, 429600, Note_on_c, 0, 62, 0
2, 429840, Note_on_c, 0, 67, 101
2, 429960, Note_on_c, 0, 67, 0
2, 429960, Note_on_c, 0, 69, 101
2, 430080, Note_on_c, 0, 69, 0
2, 430080, Note_on_c, 0, 70, 101
2, 430200, Note_on_c, 0, 70, 0
2, 430200, Note_on_c, 0, 73, 101
2, 430320, Note_on_c, 0, 73, 0
2, 430320, Note_on_c, 0, 74, 101
2, 430440, Note_on_c, 0, 74, 0
2, 430440, Note_on_c, 0, 73, 101
2, 430560, Note_on_c, 0, 73, 0
2, 430560, Note_on_c, 0, 74, 101
2, 430680, Note_on_c, 0, 74, 0
2, 430680, Note_on_c, 0, 76, 101
2, 430800, Note_on_c, 0, 76, 0
2, 430800, Note_on_c, 0, 77, 101
2, 430920, Note_on_c, 0, 77, 0
2, 430920, Note_on_c, 0, 79, 101
2, 431040, Note_on_c, 0, 79, 0
2, 431040, Note_on_c, 0, 69, 101
2, 431040, Note_on_c, 0, 74, 101
2, 431040, Note_on_c, 0, 81, 101
2, 431520, Note_on_c, 0, 81, 0
2, 431520, Note_on_c, 0, 74, 0
2, 431520, Note_on_c, 0, 69, 0
2, 431520, Note_on_c, 0, 69, 101
2, 431520, Note_on_c, 0, 74, 101
2, 431760, Note_on_c, 0, 74, 0
2, 431760, Note_on_c, 0, 69, 0
2, 431760, Note_on_c, 0, 69, 101
2, 431760, Note_on_c, 0, 74, 101
2, 431760, Note_on_c, 0, 81, 101
2, 432240, Note_on_c, 0, 81, 0
2, 432240, Note_on_c, 0, 74, 0
2, 432240, Note_on_c, 0, 69, 0
2, 432240, Note_on_c, 0, 69, 101
2, 432240, Note_on_c, 0, 74, 101
2, 432480, Note_on_c, 0, 74, 0
2, 432480, Note_on_c, 0, 69, 0
2, 432720, Note_on_c, 0, 69, 101
2, 432840, Note_on_c, 0, 69, 0
2, 432840, Note_on_c, 0, 70, 101
2, 432960, Note_on_c, 0, 70, 0
2, 432960, Note_on_c, 0, 71, 101
2, 433080, Note_on_c, 0, 71, 0
2, 433080, Note_on_c, 0, 73, 101
2, 433200, Note_on_c, 0, 73, 0
2, 433200, Note_on_c, 0, 74, 101
2, 433320, Note_on_c, 0, 74, 0
2, 433320, Note_on_c, 0, 71, 101
2, 433440, Note_on_c, 0, 71, 0
2, 433440, Note_on_c, 0, 73, 101
2, 433560, Note_on_c, 0, 73, 0
2, 433560, Note_on_c, 0, 74, 101
2, 433680, Note_on_c, 0, 74, 0
2, 433680, Note_on_c, 0, 76, 101
2, 433800, Note_on_c, 0, 76, 0
2, 433800, Note_on_c, 0, 77, 101
2, 433920, Note_on_c, 0, 77, 0
2, 433920, Note_on_c, 0, 67, 101
2, 433920, Note_on_c, 0, 74, 101
2, 433920, Note_on_c, 0, 79, 101
2, 434400, Note_on_c, 0, 79, 0
2, 434400, Note_on_c, 0, 74, 0
2, 434400, Note_on_c, 0, 67, 0
2, 434400, Note_on_c, 0, 62, 101
2, 434400, Note_on_c, 0, 67, 101
2, 434400, Note_on_c, 0, 74, 101
2, 434640, Note_on_c, 0, 74, 0
2, 434640, Note_on_c, 0, 67, 0
2, 434640, Note_on_c, 0, 62, 0
2, 434640, Note_on_c, 0, 67, 101
2, 434640, Note_on_c, 0, 74, 101
2, 434640, Note_on_c, 0, 79, 101
2, 435120, Note_on_c, 0, 79, 0
2, 435120, Note_on_c, 0, 74, 0
2, 435120, Note_on_c, 0, 67, 0
2, 435120, Note_on_c, 0, 62, 101
2, 435120, Note_on_c, 0, 67, 101
2, 435120, Note_on_c, 0, 74, 101
2, 435360, Note_on_c, 0, 74, 0
2, 435360, Note_on_c, 0, 67, 0
2, 435360, Note_on_c, 0, 62, 0
2, 435600, Note_on_c, 0, 67, 101
2, 435720, Note_on_c, 0, 67, 0
2, 435720, Note_on_c, 0, 69, 101
2, 435840, Note_on_c, 0, 69, 0
2, 435840, Note_on_c, 0, 70, 101
2, 435960, Note_on_c, 0, 70, 0
2, 435960, Note_on_c, 0, 73, 101
2, 436080, Note_on_c, 0, 73, 0
2, 436080, Note_on_c, 0, 74, 101
2, 436200, Note_on_c, 0, 74, 0
2, 436200, Note_on_c, 0, 73, 101
2, 436320, Note_on_c, 0, 73, 0
2, 436320, Note_on_c, 0, 74, 101
2, 436440, Note_on_c, 0, 74, 0
2, 436440, Note_on_c, 0, 76, 101
2, 436560, Note_on_c, 0, 76, 0
2, 436560, Note_on_c, 0, 77, 101
2, 436680, Note_on_c, 0, 77, 0
2, 436680, Note_on_c, 0, 79, 101
2, 436800, Note_on_c, 0, 79, 0
2, 436800, Note_on_c, 0, 69, 101
2, 436800, Note_on_c, 0, 74, 101
2, 436800, Note_on_c, 0, 81, 101
2, 437280, Note_on_c, 0, 81, 0
2, 437280, Note_on_c, 0, 74, 0
2, 437280, Note_on_c, 0, 69, 0
2, 437280, Note_on_c, 0, 69, 101
2, 437280, Note_on_c, 0, 74, 101
2, 437520, Note_on_c, 0, 74, 0
2, 437520, Note_on_c, 0, 69, 0
2, 437520, Note_on_c, 0, 69, 101
2, 437520, Note_on_c, 0, 74, 101
2, 437520, Note_on_c, 0, 81, 101
2, 438000, Note_on_c, 0, 81, 0
2, 438000, Note_on_c, 0, 74, 0
2, 438000, Note_on_c, 0, 69, 0
2, 438000, Note_on_c, 0, 69, 101
2, 438000, Note_on_c, 0, 74, 101
2, 438240, Note_on_c, 0, 74, 0
2, 438240, Note_on_c, 0, 69, 0
2, 438480, Note_on_c, 0, 69, 101
2, 438600, Note_on_c, 0, 69, 0
2, 438600, Note_on_c, 0, 70, 101
2, 438720, Note_on_c, 0, 70, 0
2, 438720, Note_on_c, 0, 71, 101
2, 438840, Note_on_c, 0, 71, 0
2, 438840, Note_on_c, 0, 73, 101
2, 438960, Note_on_c, 0, 73, 0
2, 438960, Note_on_c, 0, 74, 101
2, 439080, Note_on_c, 0, 74, 0
2, 439080, Note_on_c, 0, 71, 101
2, 439200, Note_on_c, 0, 71, 0
2, 439200, Note_on_c, 0, 73, 101
2, 439320, Note_on_c, 0, 73, 0
2, 439320, Note_on_c, 0, 74, 101
2, 439440, Note_on_c, 0, 74, 0
2, 439440, Note_on_c, 0, 76, 101
2, 439560, Note_on_c, 0, 76, 0
2, 439560, Note_on_c, 0, 77, 101
2, 439680, Note_on_c, 0, 77, 0
2, 439680, Note_on_c, 0, 67, 101
2, 439680, Note_on_c, 0, 74, 101
2, 439680, Note_on_c, 0, 79, 101
2, 440160, Note_on_c, 0, 79, 0
2, 440160, Note_on_c, 0, 74, 0
2, 440160, Note_on_c, 0, 67, 0
2, 440160, Note_on_c, 0, 62, 101
2, 440160, Note_on_c, 0, 67, 101
2, 440160, Note_on_c, 0, 74, 101
2, 440400, Note_on_c, 0, 74, 0
2, 440400, Note_on_c, 0, 67, 0
2, 440400, Note_on_c, 0, 62, 0
2, 440400, Note_on_c, 0, 70, 101
2, 440520, Note_on_c, 0, 70, 0
2, 440520, Note_on_c, 0, 73, 101
2, 440640, Note_on_c, 0, 73, 0
2, 440640, Note_on_c, 0, 74, 101
2, 440760, Note_on_c, 0, 74, 0
2, 440760, Note_on_c, 0, 76, 101
2, 440880, Note_on_c, 0, 76, 0
2, 440880, Note_on_c, 0, 77, 101
2, 441000, Note_on_c, 0, 77, 0
2, 441000, Note_on_c, 0, 79, 101
2, 441120, Note_on_c, 0, 79, 0
2, 441120, Note_on_c, 0, 69, 101
2, 441120, Note_on_c, 0, 74, 101
2, 441120, Note_on_c, 0, 81, 101
2, 441600, Note_on_c, 0, 81, 0
2, 441600, Note_on_c, 0, 74, 0
2, 441600, Note_on_c, 0, 69, 0
2, 441600, Note_on_c, 0, 69, 101
2, 441600, Note_on_c, 0, 74, 101
2, 441840, Note_on_c, 0, 74, 0
2, 441840, Note_on_c, 0, 69, 0
2, 441840, Note_on_c, 0, 69, 101
2, 441960, Note_on_c, 0, 69, 0
2, 441960, Note_on_c, 0, 71, 101
2, 442080, Note_on_c, 0, 71, 0
2, 442080, Note_on_c, 0, 73, 101
2, 442200, Note_on_c, 0, 73, 0
2, 442200, Note_on_c, 0, 74, 101
2, 442320, Note_on_c, 0, 74, 0
2, 442320, Note_on_c, 0, 76, 101
2, 442440, Note_on_c, 0, 76, 0
2, 442440, Note_on_c, 0, 77, 101
2, 442560, Note_on_c, 0, 77, 0
2, 442560, Note_on_c, 0, 67, 101
2, 442560, Note_on_c, 0, 74, 101
2, 442560, Note_on_c, 0, 79, 101
2, 443040, Note_on_c, 0, 79, 0
2, 443040, Note_on_c, 0, 74, 0
2, 443040, Note_on_c, 0, 67, 0
2, 443040, Note_on_c, 0, 62, 101
2, 443040, Note_on_c, 0, 67, 101
2, 443040, Note_on_c, 0, 74, 101
2, 443280, Note_on_c, 0, 74, 0
2, 443280, Note_on_c, 0, 67, 0
2, 443280, Note_on_c, 0, 62, 0
2, 443280, Note_on_c, 0, 70, 101
2, 443400, Note_on_c, 0, 70, 0
2, 443400, Note_on_c, 0, 73, 101
2, 443520, Note_on_c, 0, 73, 0
2, 443520, Note_on_c, 0, 74, 101
2, 443640, Note_on_c, 0, 74, 0
2, 443640, Note_on_c, 0, 76, 101
2, 443760, Note_on_c, 0, 76, 0
2, 443760, Note_on_c, 0, 77, 101
2, 443880, Note_on_c, 0, 77, 0
2, 443880, Note_on_c, 0, 79, 101
2, 444000, Note_on_c, 0, 79, 0
2, 444000, Note_on_c, 0, 69, 101
2, 444000, Note_on_c, 0, 74, 101
2, 444000, Note_on_c, 0, 81, 101
2, 444480, Note_on_c, 0, 81, 0
2, 444480, Note_on_c, 0, 74, 0
2, 444480, Note_on_c, 0, 69, 0
2, 444480, Note_on_c, 0, 69, 101
2, 444480, Note_on_c, 0, 74, 101
2, 444720, Note_on_c, 0, 74, 0
2, 444720, Note_on_c, 0, 69, 0
2, 444720, Note_on_c, 0, 68, 101
2, 444840, Note_on_c, 0, 68, 0
2, 444840, Note_on_c, 0, 69, 101
2, 444960, Note_on_c, 0, 69, 0
2, 444960, Note_on_c, 0, 70, 101
2, 445080, Note_on_c, 0, 70, 0
2, 445080, Note_on_c, 0, 71, 101
2, 445200, Note_on_c, 0, 71, 0
2, 445200, Note_on_c, 0, 72, 101
2, 445320, Note_on_c, 0, 72, 0
2, 445320, Note_on_c, 0, 73, 101
2, 445440, Note_on_c, 0, 73, 0
2, 445440, Note_on_c, 0, 62, 101
2, 445440, Note_on_c, 0, 74, 101
2, 445680, Note_on_c, 0, 74, 0
2, 445680, Note_on_c, 0, 62, 0
2, 445800, Note_on_c, 0, 62, 101
2, 445800, Note_on_c, 0, 74, 101
2, 445920, Note_on_c, 0, 74, 0
2, 445920, Note_on_c, 0, 62, 0
2, 445920, Note_on_c, 0, 62, 101
2, 445920, Note_on_c, 0, 74, 101
2, 446400, Note_on_c, 0, 74, 0
2, 446400, Note_on_c, 0, 62, 0
2, 446400, Note_on_c, 0, 64, 101
2, 446400, Note_on_c, 0, 76, 101
2, 446640, Note_on_c, 0, 76, 0
2, 446640, Note_on_c, 0, 64, 0
2, 446640, Note_on_c, 0, 65, 101
2, 446640, Note_on_c, 0, 77, 101
2, 446880, Note_on_c, 0, 77, 0
2, 446880, Note_on_c, 0, 65, 0
2, 446880, Note_on_c, 0, 62, 101
2, 446880, Note_on_c, 0, 74, 101
2, 447120, Note_on_c, 0, 74, 0
2, 447120, Note_on_c, 0, 62, 0
2, 447240, Note_on_c, 0, 62, 101
2, 447240, Note_on_c, 0, 74, 101
2, 447360, Note_on_c, 0, 74, 0
2, 447360, Note_on_c, 0, 62, 0
2, 447360, Note_on_c, 0, 62, 101
2, 447360, Note_on_c, 0, 74, 101
2, 447840, Note_on_c, 0, 74, 0
2, 447840, Note_on_c, 0, 62, 0
2, 447840, Note_on_c, 0, 69, 101
2, 448080, Note_on_c, 0, 69, 0
2, 448080, Note_on_c, 0, 62, 101
2, 448080, Note_on_c, 0, 74, 101
2, 448320, Note_on_c, 0, 74, 0
2, 448320, Note_on_c, 0, 62, 0
2, 448320, Note_on_c, 0, 67, 101
2, 448320, Note_on_c, 0, 79, 101
2, 448560, Note_on_c, 0, 79, 0
2, 448560, Note_on_c, 0, 67, 0
2, 448680, Note_on_c, 0, 67, 101
2, 448680, Note_on_c, 0, 79, 101
2, 448800, Note_on_c, 0, 79, 0
2, 448800, Note_on_c, 0, 67, 0
2, 448800, Note_on_c, 0, 67, 101
2, 448800, Note_on_c, 0, 79, 101
2, 449280, Note_on_c, 0, 79, 0
2, 449280, Note_on_c, 0, 67, 0
2, 449280, Note_on_c, 0, 69, 101
2, 449280, Note_on_c, 0, 81, 101
2, 449520, Note_on_c, 0, 81, 0
2, 449520, Note_on_c, 0, 69, 0
2, 449520, Note_on_c, 0, 70, 101
2, 449520, Note_on_c, 0, 82, 101
2, 449760, Note_on_c, 0, 82, 0
2, 449760, Note_on_c, 0, 70, 0
2, 449760, Note_on_c, 0, 70, 101
2, 449760, Note_on_c, 0, 82, 101
2, 450000, Note_on_c, 0, 82, 0
2, 450000, Note_on_c, 0, 70, 0
2, 450120, Note_on_c, 0, 70, 101
2, 450120, Note_on_c, 0, 82, 101
2, 450240, Note_on_c, 0, 82, 0
2, 450240, Note_on_c, 0, 70, 0
2, 450240, Note_on_c, 0, 70, 101
2, 450240, Note_on_c, 0, 82, 101
2, 450720, Note_on_c, 0, 82, 0
2, 450720, Note_on_c, 0, 70, 0
2, 450720, Note_on_c, 0, 73, 101
2, 450720, Note_on_c, 0, 85, 101
2, 450960, Note_on_c, 0, 85, 0
2, 450960, Note_on_c, 0, 73, 0
2, 450960, Note_on_c, 0, 74, 101
2, 450960, Note_on_c, 0, 86, 101
2, 451200, Note_on_c, 0, 86, 0
2, 451200, Note_on_c, 0, 74, 0
2, 451200, Note_on_c, 0, 62, 101
2, 451560, Note_on_c, 0, 62, 0
2, 451560, Note_on_c, 0, 62, 101
2, 451680, Note_on_c, 0, 62, 0
2, 451680, Note_on_c, 0, 62, 101
2, 452160, Note_on_c, 0, 62, 0
2, 452160, Note_on_c, 0, 62, 101
2, 452400, Note_on_c, 0, 62, 0
2, 452400, Note_on_c, 0, 62, 101
2, 452640, Note_on_c, 0, 62, 0
2, 452640, Note_on_c, 0, 70, 101
2, 452640, Note_on_c, 0, 82, 101
2, 452880, Note_on_c, 0, 82, 0
2, 452880, Note_on_c, 0, 70, 0
2, 453000, Note_on_c, 0, 70, 101
2, 453000, Note_on_c, 0, 82, 101
2, 453120, Note_on_c, 0, 82, 0
2, 453120, Note_on_c, 0, 70, 0
2, 453120, Note_on_c, 0, 70, 101
2, 453120, Note_on_c, 0, 82, 101
2, 453600, Note_on_c, 0, 82, 0
2, 453600, Note_on_c, 0, 70, 0
2, 453600, Note_on_c, 0, 73, 101
2, 453600, Note_on_c, 0, 85, 101
2, 453840, Note_on_c, 0, 85, 0
2, 453840, Note_on_c, 0, 73, 0
2, 453840, Note_on_c, 0, 74, 101
2, 453840, Note_on_c, 0, 86, 101
2, 454080, Note_on_c, 0, 86, 0
2, 454080, Note_on_c, 0, 74, 0
2, 454080, Note_on_c, 0, 62, 101
2, 454440, Note_on_c, 0, 62, 0
2, 454440, Note_on_c, 0, 62, 101
2, 454560, Note_on_c, 0, 62, 0
2, 454560, Note_on_c, 0, 62, 101
2, 455040, Note_on_c, 0, 62, 0
2, 455040, Note_on_c, 0, 62, 101
2, 455280, Note_on_c, 0, 62, 0
2, 455280, Note_on_c, 0, 62, 101
2, 455520, Note_on_c, 0, 62, 0
2, 455520, Note_on_c, 0, 70, 101
2, 455520, Note_on_c, 0, 82, 101
2, 455760, Note_on_c, 0, 82, 0
2, 455760, Note_on_c, 0, 70, 0
2, 455880, Note_on_c, 0, 70, 101
2, 455880, Note_on_c, 0, 82, 101
2, 456000, Note_on_c, 0, 82, 0
2, 456000, Note_on_c, 0, 70, 0
2, 456000, Note_on_c, 0, 70, 101
2, 456000, Note_on_c, 0, 82, 101
2, 456480, Note_on_c, 0, 82, 0
2, 456480, Note_on_c, 0, 70, 0
2, 456480, Note_on_c, 0, 73, 101
2, 456480, Note_on_c, 0, 85, 101
2, 456720, Note_on_c, 0, 85, 0
2, 456720, Note_on_c, 0, 73, 0
2, 456720, Note_on_c, 0, 74, 101
2, 456720, Note_on_c, 0, 86, 101
2, 456960, Note_on_c, 0, 86, 0
2, 456960, Note_on_c, 0, 74, 0
2, 456960, Note_on_c, 0, 62, 101
2, 457320, Note_on_c, 0, 62, 0
2, 457320, Note_on_c, 0, 62, 101
2, 457440, Note_on_c, 0, 62, 0
2, 457440, Note_on_c, 0, 62, 101
2, 457920, Note_on_c, 0, 62, 0
2, 457920, Note_on_c, 0, 62, 101
2, 458160, Note_on_c, 0, 62, 0
2, 458160, Note_on_c, 0, 62, 101
2, 458400, Note_on_c, 0, 62, 0
2, 458400, Note_on_c, 0, 74, 101
2, 458400, Note_on_c, 0, 79, 101
2, 458400, Note_on_c, 0, 86, 101
2, 458760, Note_on_c, 0, 86, 0
2, 458760, Note_on_c, 0, 79, 0
2, 458760, Note_on_c, 0, 74, 0
2, 458760, Note_on_c, 0, 74, 101
2, 458760, Note_on_c, 0, 79, 101
2, 458760, Note_on_c, 0, 86, 101
2, 458880, Note_on_c, 0, 86, 0
2, 458880, Note_on_c, 0, 79, 0
2, 458880, Note_on_c, 0, 74, 0
2, 458880, Note_on_c, 0, 74, 101
2, 458880, Note_on_c, 0, 79, 101
2, 458880, Note_on_c, 0, 86, 101
2, 459360, Note_on_c, 0, 86, 0
2, 459360, Note_on_c, 0, 79, 0
2, 459360, Note_on_c, 0, 74, 0
2, 459360, Note_on_c, 0, 62, 101
2, 459360, Note_on_c, 0, 67, 101
2, 459360, Note_on_c, 0, 74, 101
2, 459600, Note_on_c, 0, 74, 0
2, 459600, Note_on_c, 0, 67, 0
2, 459600, Note_on_c, 0, 62, 0
2, 459600, Note_on_c, 0, 62, 101
2, 459600, Note_on_c, 0, 67, 101
2, 459600, Note_on_c, 0, 74, 101
2, 459840, Note_on_c, 0, 74, 0
2, 459840, Note_on_c, 0, 67, 0
2, 459840, Note_on_c, 0, 62, 0
2, 459840, Note_on_c, 0, 62, 101
2, 460200, Note_on_c, 0, 62, 0
2, 460200, Note_on_c, 0, 62, 101
2, 460320, Note_on_c, 0, 62, 0
2, 460320, Note_on_c, 0, 62, 101
2, 460800, Note_on_c, 0, 62, 0
2, 460800, Note_on_c, 0, 62, 101
2, 461040, Note_on_c, 0, 62, 0
2, 461040, Note_on_c, 0, 62, 101
2, 461280, Note_on_c, 0, 62, 0
2, 461280, Note_on_c, 0, 82, 101
2, 461280, Note_on_c, 0, 86, 101
2, 461280, Note_on_c, 0, 91, 101
2, 461280, Note_on_c, 0, 94, 101
2, 461640, Note_on_c, 0, 94, 0
2, 461640, Note_on_c, 0, 82, 0
2, 461640, Note_on_c, 0, 86, 0
2, 461640, Note_on_c, 0, 91, 0
2, 461640, Note_on_c, 0, 82, 101
2, 461640, Note_on_c, 0, 86, 101
2, 461640, Note_on_c, 0, 91, 101
2, 461640, Note_on_c, 0, 94, 101
2, 461760, Note_on_c, 0, 94, 0
2, 461760, Note_on_c, 0, 82, 0
2, 461760, Note_on_c, 0, 86, 0
2, 461760, Note_on_c, 0, 91, 0
2, 461760, Note_on_c, 0, 82, 101
2, 461760, Note_on_c, 0, 86, 101
2, 461760, Note_on_c, 0, 91, 101
2, 461760, Note_on_c, 0, 94, 101
2, 462240, Note_on_c, 0, 94, 0
2, 462240, Note_on_c, 0, 82, 0
2, 462240, Note_on_c, 0, 86, 0
2, 462240, Note_on_c, 0, 91, 0
2, 462240, Note_on_c, 0, 70, 101
2, 462240, Note_on_c, 0, 74, 101
2, 462240, Note_on_c, 0, 79, 101
2, 462240, Note_on_c, 0, 82, 101
2, 462480, Note_on_c, 0, 82, 0
2, 462480, Note_on_c, 0, 70, 0
2, 462480, Note_on_c, 0, 74, 0
2, 462480, Note_on_c, 0, 79, 0
2, 462480, Note_on_c, 0, 70, 101
2, 462480, Note_on_c, 0, 74, 101
2, 462480, Note_on_c, 0, 79, 101
2, 462480, Note_on_c, 0, 82, 101
2, 462720, Note_on_c, 0, 82, 0
2, 462720, Note_on_c, 0, 70, 0
2, 462720, Note_on_c, 0, 74, 0
2, 462720, Note_on_c, 0, 79, 0
2, 462720, Note_on_c, 0, 62, 101
2, 463080, Note_on_c, 0, 62, 0
2, 463080, Note_on_c, 0, 62, 101
2, 463200, Note_on_c, 0, 62, 0
2, 463200, Note_on_c, 0, 62, 101
2, 464160, Note_on_c, 0, 62, 0
2, 464160, Note_on_c, 0, 62, 101
2, 464520, Note_on_c, 0, 62, 0
2, 464520, Note_on_c, 0, 62, 101
2, 464640, Note_on_c, 0, 62, 0
2, 464640, Note_on_c, 0, 62, 101
2, 465600, Note_on_c, 0, 62, 0
2, 465600, Note_on_c, 0, 61, 101
2, 465960, Note_on_c, 0, 61, 0
2, 465960, Note_on_c, 0, 61, 101
2, 466080, Note_on_c, 0, 61, 0
2, 466080, Note_on_c, 0, 61, 101
2, 467040, Note_on_c, 0, 61, 0
2, 467040, Note_on_c, 0, 61, 101
2, 467400, Note_on_c, 0, 61, 0
2, 467400, Note_on_c, 0, 61, 101
2, 467520, Note_on_c, 0, 61, 0
2, 467520, Note_on_c, 0, 61, 101
2, 468480, Note_on_c, 0, 61, 0
2, 468480, Note_on_c, 0, 60, 101
2, 468840, Note_on_c, 0, 60, 0
2, 468840, Note_on_c, 0, 60, 101
2, 468960, Note_on_c, 0, 60, 0
2, 468960, Note_on_c, 0, 60, 101
2, 469920, Note_on_c, 0, 60, 0
2, 469920, Note_on_c, 0, 60, 101
2, 470280, Note_on_c, 0, 60, 0
2, 470280, Note_on_c, 0, 60, 101
2, 470400, Note_on_c, 0, 60, 0
2, 470400, Note_on_c, 0, 60, 101
2, 471360, Note_on_c, 0, 60, 0
2, 471360, Note_on_c, 0, 48, 88
2, 471360, Note_on_c, 0, 60, 88
2, 472080, Note_on_c, 0, 60, 0
2, 472080, Note_on_c, 0, 48, 0
2, 472080, Note_on_c, 0, 48, 88
2, 472080, Note_on_c, 0, 60, 88
2, 472800, Note_on_c, 0, 60, 0
2, 472800, Note_on_c, 0, 48, 0
2, 472800, Note_on_c, 0, 48, 75
2, 472800, Note_on_c, 0, 60, 75
2, 473520, Note_on_c, 0, 60, 0
2, 473520, Note_on_c, 0, 48, 0
2, 473520, Note_on_c, 0, 48, 75
2, 473520, Note_on_c, 0, 60, 75
2, 474240, Note_on_c, 0, 60, 0
2, 474240, Note_on_c, 0, 48, 0
2, 474240, Note_on_c, 0, 48, 62
2, 474240, Note_on_c, 0, 60, 62
2, 475680, Note_on_c, 0, 60, 0
2, 475680, Note_on_c, 0, 48, 0
2, 475680, Note_on_c, 0, 48, 62
2, 475680, Note_on_c, 0, 60, 62
2, 477120, Note_on_c, 0, 60, 0
2, 477120, Note_on_c, 0, 48, 0
2, 477120, Note_on_c, 0, 48, 62
2, 477120, Note_on_c, 0, 60, 62
2, 479760, Note_on_c, 0, 60, 0
2, 479760, Note_on_c, 0, 48, 0
2, 479760, Note_on_c, 0, 48, 49
2, 480000, Note_on_c, 0, 48, 0
2, 480000, Note_on_c, 0, 52, 49
2, 480240, Note_on_c, 0, 52, 0
2, 480360, Note_on_c, 0, 52, 49
2, 480480, Note_on_c, 0, 52, 0
2, 480480, Note_on_c, 0, 52, 49
2, 480960, Note_on_c, 0, 52, 0
2, 480960, Note_on_c, 0, 54, 62
2, 481007, Note_on_c, 0, 54, 0
2, 481200, Note_on_c, 0, 55, 62
2, 481247, Note_on_c, 0, 55, 0
2, 481440, Note_on_c, 0, 57, 62
2, 481680, Note_on_c, 0, 57, 0
2, 481680, Note_on_c, 0, 55, 62
2, 481920, Note_on_c, 0, 55, 0
2, 481920, Note_on_c, 0, 54, 49
2, 482160, Note_on_c, 0, 54, 0
2, 482160, Note_on_c, 0, 52, 49
2, 482640, Note_on_c, 0, 52, 0
2, 482640, Note_on_c, 0, 48, 49
2, 482880, Note_on_c, 0, 48, 0
2, 482880, Note_on_c, 0, 55, 49
2, 483120, Note_on_c, 0, 55, 0
2, 483240, Note_on_c, 0, 55, 62
2, 483360, Note_on_c, 0, 55, 0
2, 483360, Note_on_c, 0, 55, 62
2, 483840, Note_on_c, 0, 55, 0
2, 483960, Note_on_c, 0, 54, 49
2, 484080, Note_on_c, 0, 54, 0
2, 484080, Note_on_c, 0, 54, 49
2, 484560, Note_on_c, 0, 54, 0
2, 484680, Note_on_c, 0, 52, 49
2, 484800, Note_on_c, 0, 52, 0
2, 484800, Note_on_c, 0, 52, 49
2, 485520, Note_on_c, 0, 52, 0
2, 485520, Note_on_c, 0, 48, 49
2, 485760, Note_on_c, 0, 48, 0
2, 485760, Note_on_c, 0, 52, 49
2, 486000, Note_on_c, 0, 52, 0
2, 486120, Note_on_c, 0, 52, 49
2, 486240, Note_on_c, 0, 52, 0
2, 486240, Note_on_c, 0, 52, 49
2, 486720, Note_on_c, 0, 52, 0
2, 486720, Note_on_c, 0, 54, 62
2, 486767, Note_on_c, 0, 54, 0
2, 486960, Note_on_c, 0, 55, 62
2, 487007, Note_on_c, 0, 55, 0
2, 487200, Note_on_c, 0, 57, 62
2, 487440, Note_on_c, 0, 57, 0
2, 487440, Note_on_c, 0, 55, 62
2, 487680, Note_on_c, 0, 55, 0
2, 487680, Note_on_c, 0, 54, 49
2, 487920, Note_on_c, 0, 54, 0
2, 487920, Note_on_c, 0, 52, 49
2, 488400, Note_on_c, 0, 52, 0
2, 488400, Note_on_c, 0, 47, 49
2, 488640, Note_on_c, 0, 47, 0
2, 488640, Note_on_c, 0, 55, 62
2, 488880, Note_on_c, 0, 55, 0
2, 489000, Note_on_c, 0, 55, 62
2, 489120, Note_on_c, 0, 55, 0
2, 489120, Note_on_c, 0, 55, 62
2, 489600, Note_on_c, 0, 55, 0
2, 489720, Note_on_c, 0, 54, 49
2, 489840, Note_on_c, 0, 54, 0
2, 489840, Note_on_c, 0, 54, 49
2, 490320, Note_on_c, 0, 54, 0
2, 490440, Note_on_c, 0, 55, 49
2, 490560, Note_on_c, 0, 55, 0
2, 490560, Note_on_c, 0, 55, 49
2, 490800, Note_on_c, 0, 55, 0
2, 490800, Control_c, 0, 64, 127
2, 490800, Note_on_c, 0, 66, 62
2, 490920, Note_on_c, 0, 66, 0
2, 490920, Note_on_c, 0, 67, 62
2, 491040, Note_on_c, 0, 67, 0
2, 491040, Note_on_c, 0, 66, 62
2, 491160, Note_on_c, 0, 66, 0
2, 491160, Note_on_c, 0, 67, 62
2, 491280, Note_on_c, 0, 67, 0
2, 491280, Note_on_c, 0, 69, 62
2, 491400, Note_on_c, 0, 69, 0
2, 491400, Control_c, 0, 64, 0
2, 491400, Note_on_c, 0, 71, 62
2, 491520, Note_on_c, 0, 71, 0
2, 491520, Note_on_c, 0, 72, 62
2, 491760, Note_on_c, 0, 72, 0
2, 491880, Note_on_c, 0, 72, 62
2, 492000, Note_on_c, 0, 72, 0
2, 492000, Note_on_c, 0, 72, 62
2, 492480, Note_on_c, 0, 72, 0
2, 492480, Note_on_c, 0, 71, 62
2, 492720, Note_on_c, 0, 71, 0
2, 492720, Note_on_c, 0, 70, 62
2, 492960, Note_on_c, 0, 70, 0
2, 492960, Note_on_c, 0, 71, 62
2, 493200, Note_on_c, 0, 71, 0
2, 493200, Note_on_c, 0, 62, 62
2, 493440, Note_on_c, 0, 62, 0
2, 493440, Note_on_c, 0, 64, 62
2, 493920, Note_on_c, 0, 64, 0
2, 493920, Note_on_c, 0, 66, 62
2, 494160, Note_on_c, 0, 66, 0
2, 494160, Note_on_c, 0, 67, 62
2, 494400, Note_on_c, 0, 67, 0
2, 494400, Note_on_c, 0, 69, 88
2, 494880, Note_on_c, 0, 69, 0
2, 494880, Note_on_c, 0, 64, 62
2, 495120, Note_on_c, 0, 64, 0
2, 495120, Note_on_c, 0, 69, 88
2, 495600, Note_on_c, 0, 69, 0
2, 495600, Note_on_c, 0, 62, 62
2, 495840, Note_on_c, 0, 62, 0
2, 495840, Note_on_c, 0, 62, 62
2, 495840, Note_on_c, 0, 67, 62
2, 495840, Note_on_c, 0, 71, 62
2, 496080, Note_on_c, 0, 71, 0
2, 496080, Note_on_c, 0, 67, 0
2, 496080, Note_on_c, 0, 62, 0
2, 496560, Note_on_c, 0, 78, 62
2, 496680, Note_on_c, 0, 78, 0
2, 496680, Note_on_c, 0, 79, 62
2, 496800, Note_on_c, 0, 79, 0
2, 496800, Note_on_c, 0, 78, 62
2, 496920, Note_on_c, 0, 78, 0
2, 496920, Note_on_c, 0, 79, 62
2, 497040, Note_on_c, 0, 79, 0
2, 497040, Note_on_c, 0, 81, 62
2, 497063, Note_on_c, 0, 81, 0
2, 497160, Note_on_c, 0, 83, 62
2, 497183, Note_on_c, 0, 83, 0
2, 497280, Note_on_c, 0, 84, 62
2, 497520, Note_on_c, 0, 84, 0
2, 497640, Note_on_c, 0, 84, 62
2, 497760, Note_on_c, 0, 84, 0
2, 497760, Note_on_c, 0, 84, 62
2, 498240, Note_on_c, 0, 84, 0
2, 498240, Note_on_c, 0, 83, 62
2, 498480, Note_on_c, 0, 83, 0
2, 498480, Note_on_c, 0, 82, 62
2, 498720, Note_on_c, 0, 82, 0
2, 498720, Note_on_c, 0, 83, 62
2, 498960, Note_on_c, 0, 83, 0
2, 498960, Note_on_c, 0, 74, 62
2, 499200, Note_on_c, 0, 74, 0
2, 499200, Note_on_c, 0, 76, 62
2, 499680, Note_on_c, 0, 76, 0
2, 499680, Note_on_c, 0, 78, 62
2, 499920, Note_on_c, 0, 78, 0
2, 499920, Note_on_c, 0, 79, 62
2, 500160, Note_on_c, 0, 79, 0
2, 500160, Note_on_c, 0, 76, 88
2, 500160, Note_on_c, 0, 81, 88
2, 500640, Note_on_c, 0, 81, 0
2, 500640, Note_on_c, 0, 76, 0
2, 500640, Note_on_c, 0, 76, 62
2, 500880, Note_on_c, 0, 76, 0
2, 500880, Note_on_c, 0, 76, 88
2, 500880, Note_on_c, 0, 82, 88
2, 501360, Note_on_c, 0, 82, 0
2, 501360, Note_on_c, 0, 76, 0
2, 501360, Note_on_c, 0, 78, 62
2, 501600, Note_on_c, 0, 78, 0
2, 501600, Note_on_c, 0, 75, 62
2, 501600, Note_on_c, 0, 78, 62
2, 501600, Note_on_c, 0, 83, 62
2, 501647, Note_on_c, 0, 83, 0
2, 501647, Note_on_c, 0, 78, 0
2, 501647, Note_on_c, 0, 75, 0
2, 501840, Note_on_c, 0, 71, 62
2, 501840, Note_on_c, 0, 75, 62
2, 501840, Note_on_c, 0, 78, 62
2, 501887, Note_on_c, 0, 78, 0
2, 501887, Note_on_c, 0, 75, 0
2, 501887, Note_on_c, 0, 71, 0
2, 502080, Note_on_c, 0, 66, 62
2, 502080, Note_on_c, 0, 71, 62
2, 502080, Note_on_c, 0, 75, 62
2, 502127, Note_on_c, 0, 75, 0
2, 502127, Note_on_c, 0, 71, 0
2, 502127, Note_on_c, 0, 66, 0
2, 502320, Note_on_c, 0, 63, 62
2, 502320, Note_on_c, 0, 66, 62
2, 502320, Note_on_c, 0, 71, 62
2, 502367, Note_on_c, 0, 71, 0
2, 502367, Note_on_c, 0, 66, 0
2, 502367, Note_on_c, 0, 63, 0
2, 502800, Note_on_c, 0, 72, 62
2, 503040, Note_on_c, 0, 72, 0
2, 503040, Note_on_c, 0, 76, 62
2, 503280, Note_on_c, 0, 76, 0
2, 503400, Note_on_c, 0, 64, 62
2, 503400, Note_on_c, 0, 76, 62
2, 503520, Note_on_c, 0, 76, 0
2, 503520, Note_on_c, 0, 64, 0
2, 503520, Note_on_c, 0, 64, 62
2, 503520, Note_on_c, 0, 76, 62
2, 504000, Note_on_c, 0, 76, 0
2, 504000, Note_on_c, 0, 64, 0
2, 504000, Note_on_c, 0, 66, 75
2, 504000, Note_on_c, 0, 78, 75
2, 504047, Note_on_c, 0, 78, 0
2, 504047, Note_on_c, 0, 66, 0
2, 504240, Note_on_c, 0, 67, 75
2, 504240, Note_on_c, 0, 79, 75
2, 504287, Note_on_c, 0, 79, 0
2, 504287, Note_on_c, 0, 67, 0
2, 504480, Note_on_c, 0, 69, 75
2, 504480, Note_on_c, 0, 81, 75
2, 504720, Note_on_c, 0, 81, 0
2, 504720, Note_on_c, 0, 69, 0
2, 504720, Note_on_c, 0, 67, 75
2, 504720, Note_on_c, 0, 79, 75
2, 504960, Note_on_c, 0, 79, 0
2, 504960, Note_on_c, 0, 67, 0
2, 504960, Note_on_c, 0, 66, 62
2, 504960, Note_on_c, 0, 78, 62
2, 505200, Note_on_c, 0, 78, 0
2, 505200, Note_on_c, 0, 66, 0
2, 505200, Note_on_c, 0, 64, 62
2, 505200, Note_on_c, 0, 76, 62
2, 505680, Note_on_c, 0, 76, 0
2, 505680, Note_on_c, 0, 64, 0
2, 505680, Note_on_c, 0, 72, 62
2, 505920, Note_on_c, 0, 72, 0
2, 505920, Note_on_c, 0, 71, 62
2, 505920, Note_on_c, 0, 79, 62
2, 506160, Note_on_c, 0, 79, 0
2, 506160, Note_on_c, 0, 71, 0
2, 506280, Note_on_c, 0, 67, 62
2, 506280, Note_on_c, 0, 79, 62
2, 506400, Note_on_c, 0, 79, 0
2, 506400, Note_on_c, 0, 67, 0
2, 506400, Note_on_c, 0, 67, 62
2, 506400, Note_on_c, 0, 79, 62
2, 506880, Note_on_c, 0, 79, 0
2, 506880, Note_on_c, 0, 67, 0
2, 507000, Note_on_c, 0, 66, 62
2, 507000, Note_on_c, 0, 78, 62
2, 507120, Note_on_c, 0, 78, 0
2, 507120, Note_on_c, 0, 66, 0
2, 507120, Note_on_c, 0, 66, 62
2, 507120, Note_on_c, 0, 78, 62
2, 507600, Note_on_c, 0, 78, 0
2, 507600, Note_on_c, 0, 66, 0
2, 507720, Note_on_c, 0, 64, 62
2, 507720, Note_on_c, 0, 76, 62
2, 507840, Note_on_c, 0, 76, 0
2, 507840, Note_on_c, 0, 64, 0
2, 507840, Note_on_c, 0, 64, 62
2, 507840, Note_on_c, 0, 76, 62
2, 508560, Note_on_c, 0, 76, 0
2, 508560, Note_on_c, 0, 64, 0
2, 508560, Note_on_c, 0, 72, 62
2, 508800, Note_on_c, 0, 72, 0
2, 508800, Note_on_c, 0, 76, 62
2, 509040, Note_on_c, 0, 76, 0
2, 509160, Note_on_c, 0, 64, 62
2, 509160, Note_on_c, 0, 76, 62
2, 509280, Note_on_c, 0, 76, 0
2, 509280, Note_on_c, 0, 64, 0
2, 509280, Note_on_c, 0, 64, 62
2, 509280, Note_on_c, 0, 76, 62
2, 509760, Note_on_c, 0, 76, 0
2, 509760, Note_on_c, 0, 64, 0
2, 509760, Note_on_c, 0, 66, 75
2, 509760, Note_on_c, 0, 78, 75
2, 509807, Note_on_c, 0, 78, 0
2, 509807, Note_on_c, 0, 66, 0
2, 510000, Note_on_c, 0, 67, 75
2, 510000, Note_on_c, 0, 79, 75
2, 510047, Note_on_c, 0, 79, 0
2, 510047, Note_on_c, 0, 67, 0
2, 510240, Note_on_c, 0, 69, 75
2, 510240, Note_on_c, 0, 81, 75
2, 510480, Note_on_c, 0, 81, 0
2, 510480, Note_on_c, 0, 69, 0
2, 510480, Note_on_c, 0, 67, 75
2, 510480, Note_on_c, 0, 79, 75
2, 510720, Note_on_c, 0, 79, 0
2, 510720, Note_on_c, 0, 67, 0
2, 510720, Note_on_c, 0, 66, 62
2, 510720, Note_on_c, 0, 78, 62
2, 510960, Note_on_c, 0, 78, 0
2, 510960, Note_on_c, 0, 66, 0
2, 510960, Note_on_c, 0, 64, 62
2, 510960, Note_on_c, 0, 76, 62
2, 511440, Note_on_c, 0, 76, 0
2, 511440, Note_on_c, 0, 64, 0
2, 511440, Note_on_c, 0, 72, 62
2, 511680, Note_on_c, 0, 72, 0
2, 511680, Note_on_c, 0, 71, 62
2, 511680, Note_on_c, 0, 79, 62
2, 511920, Note_on_c, 0, 79, 0
2, 511920, Note_on_c, 0, 71, 0
2, 512040, Note_on_c, 0, 67, 62
2, 512040, Note_on_c, 0, 79, 62
2, 512160, Note_on_c, 0, 79, 0
2, 512160, Note_on_c, 0, 67, 0
2, 512160, Note_on_c, 0, 67, 62
2, 512160, Note_on_c, 0, 79, 62
2, 512640, Note_on_c, 0, 79, 0
2, 512640, Note_on_c, 0, 67, 0
2, 512760, Note_on_c, 0, 66, 62
2, 512760, Note_on_c, 0, 78, 62
2, 512880, Note_on_c, 0, 78, 0
2, 512880, Note_on_c, 0, 66, 0
2, 512880, Note_on_c, 0, 66, 62
2, 512880, Note_on_c, 0, 78, 62
2, 513360, Note_on_c, 0, 78, 0
2, 513360, Note_on_c, 0, 66, 0
2, 513480, Note_on_c, 0, 64, 62
2, 513480, Note_on_c, 0, 76, 62
2, 513600, Note_on_c, 0, 76, 0
2, 513600, Note_on_c, 0, 64, 0
2, 513600, Note_on_c, 0, 64, 62
2, 513600, Note_on_c, 0, 76, 62
2, 513840, Note_on_c, 0, 76, 0
2, 513840, Note_on_c, 0, 64, 0
2, 514080, Note_on_c, 0, 67, 75
2, 514080, Note_on_c, 0, 71, 75
2, 514080, Note_on_c, 0, 76, 75
2, 514127, Note_on_c, 0, 76, 0
2, 514127, Note_on_c, 0, 71, 0
2, 514127, Note_on_c, 0, 67, 0
2, 514320, Note_on_c, 0, 68, 75
2, 514320, Note_on_c, 0, 71, 75
2, 514320, Note_on_c, 0, 74, 75
2, 514367, Note_on_c, 0, 74, 0
2, 514367, Note_on_c, 0, 71, 0
2, 514367, Note_on_c, 0, 68, 0
2, 514800, Control_c, 0, 64, 127
2, 514800, Note_on_c, 0, 74, 88
2, 514920, Note_on_c, 0, 74, 0
2, 514920, Note_on_c, 0, 76, 88
2, 515040, Note_on_c, 0, 76, 0
2, 515040, Note_on_c, 0, 78, 88
2, 515160, Note_on_c, 0, 78, 0
2, 515160, Note_on_c, 0, 79, 88
2, 515280, Note_on_c, 0, 79, 0
2, 515280, Control_c, 0, 64, 0
2, 515280, Note_on_c, 0, 81, 88
2, 515520, Note_on_c, 0, 81, 0
2, 515520, Control_c, 0, 64, 127
2, 515520, Note_on_c, 0, 69, 75
2, 515640, Note_on_c, 0, 69, 0
2, 515640, Note_on_c, 0, 71, 75
2, 515760, Note_on_c, 0, 71, 0
2, 515760, Note_on_c, 0, 72, 75
2, 515880, Note_on_c, 0, 72, 0
2, 515880, Note_on_c, 0, 74, 75
2, 516000, Note_on_c, 0, 74, 0
2, 516000, Control_c, 0, 64, 0
2, 516000, Note_on_c, 0, 76, 75
2, 516240, Note_on_c, 0, 76, 0
2, 516240, Control_c, 0, 64, 127
2, 516240, Note_on_c, 0, 66, 62
2, 516360, Note_on_c, 0, 66, 0
2, 516360, Note_on_c, 0, 67, 62
2, 516480, Note_on_c, 0, 67, 0
2, 516480, Note_on_c, 0, 69, 62
2, 516600, Note_on_c, 0, 69, 0
2, 516600, Note_on_c, 0, 71, 62
2, 516720, Note_on_c, 0, 71, 0
2, 516720, Control_c, 0, 64, 0
2, 516720, Note_on_c, 0, 72, 62
2, 516960, Note_on_c, 0, 72, 0
2, 516960, Control_c, 0, 64, 127
2, 516960, Note_on_c, 0, 61, 62
2, 517080, Note_on_c, 0, 61, 0
2, 517080, Note_on_c, 0, 62, 62
2, 517200, Note_on_c, 0, 62, 0
2, 517200, Note_on_c, 0, 64, 75
2, 517320, Note_on_c, 0, 64, 0
2, 517320, Note_on_c, 0, 66, 75
2, 517440, Note_on_c, 0, 66, 0
2, 517440, Control_c, 0, 64, 0
2, 517440, Note_on_c, 0, 67, 88
2, 517440, Note_on_c, 0, 71, 88
2, 517440, Note_on_c, 0, 79, 88
2, 517680, Note_on_c, 0, 79, 0
2, 517680, Note_on_c, 0, 71, 0
2, 517680, Note_on_c, 0, 67, 0
2, 517800, Note_on_c, 0, 67, 88
2, 517800, Note_on_c, 0, 79, 88
2, 517920, Note_on_c, 0, 79, 0
2, 517920, Note_on_c, 0, 67, 0
2, 517920, Note_on_c, 0, 67, 88
2, 517920, Note_on_c, 0, 79, 88
2, 518400, Note_on_c, 0, 79, 0
2, 518400, Note_on_c, 0, 67, 0
2, 518400, Control_c, 0, 64, 127
2, 518400, Note_on_c, 0, 69, 88
2, 518400, Note_on_c, 0, 81, 88
2, 518640, Note_on_c, 0, 81, 0
2, 518640, Note_on_c, 0, 69, 0
2, 518640, Note_on_c, 0, 71, 88
2, 518640, Note_on_c, 0, 74, 88
2, 518640, Note_on_c, 0, 83, 88
2, 518880, Note_on_c, 0, 83, 0
2, 518880, Note_on_c, 0, 74, 0
2, 518880, Note_on_c, 0, 71, 0
2, 518880, Note_on_c, 0, 76, 88
2, 518880, Note_on_c, 0, 84, 88
2, 519120, Note_on_c, 0, 84, 0
2, 519120, Note_on_c, 0, 76, 0
2, 519120, Note_on_c, 0, 74, 88
2, 519120, Note_on_c, 0, 83, 88
2, 519360, Note_on_c, 0, 83, 0
2, 519360, Note_on_c, 0, 74, 0
2, 519360, Note_on_c, 0, 72, 88
2, 519360, Note_on_c, 0, 81, 88
2, 519600, Note_on_c, 0, 81, 0
2, 519600, Note_on_c, 0, 72, 0
2, 519600, Control_c, 0, 64, 0
2, 519600, Note_on_c, 0, 71, 88
2, 519600, Note_on_c, 0, 79, 88
2, 519840, Note_on_c, 0, 79, 0
2, 519840, Note_on_c, 0, 71, 0
2, 519840, Note_on_c, 0, 67, 75
2, 519840, Note_on_c, 0, 71, 75
2, 519840, Note_on_c, 0, 76, 75
2, 519887, Note_on_c, 0, 76, 0
2, 519887, Note_on_c, 0, 71, 0
2, 519887, Note_on_c, 0, 67, 0
2, 520080, Note_on_c, 0, 68, 75
2, 520080, Note_on_c, 0, 71, 75
2, 520080, Note_on_c, 0, 74, 75
2, 520127, Note_on_c, 0, 74, 0
2, 520127, Note_on_c, 0, 71, 0
2, 520127, Note_on_c, 0, 68, 0
2, 520560, Control_c, 0, 64, 127
2, 520560, Note_on_c, 0, 74, 88
2, 520680, Note_on_c, 0, 74, 0
2, 520680, Note_on_c, 0, 76, 88
2, 520800, Note_on_c, 0, 76, 0
2, 520800, Note_on_c, 0, 78, 88
2, 520920, Note_on_c, 0, 78, 0
2, 520920, Note_on_c, 0, 79, 88
2, 521040, Note_on_c, 0, 79, 0
2, 521040, Control_c, 0, 64, 0
2, 521040, Note_on_c, 0, 81, 88
2, 521280, Note_on_c, 0, 81, 0
2, 521280, Control_c, 0, 64, 127
2, 521280, Note_on_c, 0, 69, 75
2, 521400, Note_on_c, 0, 69, 0
2, 521400, Note_on_c, 0, 71, 75
2, 521520, Note_on_c, 0, 71, 0
2, 521520, Note_on_c, 0, 72, 75
2, 521640, Note_on_c, 0, 72, 0
2, 521640, Note_on_c, 0, 74, 75
2, 521760, Note_on_c, 0, 74, 0
2, 521760, Control_c, 0, 64, 0
2, 521760, Note_on_c, 0, 76, 75
2, 522000, Note_on_c, 0, 76, 0
2, 522000, Control_c, 0, 64, 127
2, 522000, Note_on_c, 0, 66, 62
2, 522120, Note_on_c, 0, 66, 0
2, 522120, Note_on_c, 0, 67, 62
2, 522240, Note_on_c, 0, 67, 0
2, 522240, Note_on_c, 0, 69, 62
2, 522360, Note_on_c, 0, 69, 0
2, 522360, Note_on_c, 0, 71, 62
2, 522480, Note_on_c, 0, 71, 0
2, 522480, Control_c, 0, 64, 0
2, 522480, Note_on_c, 0, 72, 62
2, 522720, Note_on_c, 0, 72, 0
2, 522720, Control_c, 0, 64, 127
2, 522720, Note_on_c, 0, 61, 62
2, 522840, Note_on_c, 0, 61, 0
2, 522840, Note_on_c, 0, 62, 62
2, 522960, Note_on_c, 0, 62, 0
2, 522960, Note_on_c, 0, 64, 75
2, 523080, Note_on_c, 0, 64, 0
2, 523080, Note_on_c, 0, 66, 75
2, 523200, Note_on_c, 0, 66, 0
2, 523200, Control_c, 0, 64, 0
2, 523200, Note_on_c, 0, 71, 88
2, 523200, Note_on_c, 0, 74, 88
2, 523200, Note_on_c, 0, 83, 88
2, 523440, Note_on_c, 0, 83, 0
2, 523440, Note_on_c, 0, 74, 0
2, 523440, Note_on_c, 0, 71, 0
2, 523560, Note_on_c, 0, 71, 88
2, 523560, Note_on_c, 0, 83, 88
2, 523680, Note_on_c, 0, 83, 0
2, 523680, Note_on_c, 0, 71, 0
2, 523680, Note_on_c, 0, 71, 88
2, 523680, Note_on_c, 0, 83, 88
2, 524160, Note_on_c, 0, 83, 0
2, 524160, Note_on_c, 0, 71, 0
2, 524160, Control_c, 0, 64, 127
2, 524160, Note_on_c, 0, 73, 88
2, 524160, Note_on_c, 0, 85, 88
2, 524400, Note_on_c, 0, 85, 0
2, 524400, Note_on_c, 0, 73, 0
2, 524400, Note_on_c, 0, 74, 101
2, 524400, Note_on_c, 0, 86, 101
2, 524640, Note_on_c, 0, 86, 0
2, 524640, Note_on_c, 0, 74, 0
2, 524640, Note_on_c, 0, 76, 101
2, 524640, Note_on_c, 0, 88, 101
2, 524880, Note_on_c, 0, 88, 0
2, 524880, Note_on_c, 0, 76, 0
2, 524880, Note_on_c, 0, 86, 101
2, 525120, Note_on_c, 0, 86, 0
2, 525120, Note_on_c, 0, 85, 101
2, 525360, Note_on_c, 0, 85, 0
2, 525360, Control_c, 0, 64, 0
2, 525360, Note_on_c, 0, 83, 88
2, 525600, Note_on_c, 0, 83, 0
2, 525600, Note_on_c, 0, 67, 75
2, 525600, Note_on_c, 0, 71, 75
2, 525600, Note_on_c, 0, 76, 75
2, 525647, Note_on_c, 0, 76, 0
2, 525647, Note_on_c, 0, 71, 0
2, 525647, Note_on_c, 0, 67, 0
2, 525840, Note_on_c, 0, 68, 75
2, 525840, Note_on_c, 0, 71, 75
2, 525840, Note_on_c, 0, 74, 75
2, 525887, Note_on_c, 0, 74, 0
2, 525887, Note_on_c, 0, 71, 0
2, 525887, Note_on_c, 0, 68, 0
2, 526320, Control_c, 0, 64, 127
2, 526320, Note_on_c, 0, 74, 88
2, 526440, Note_on_c, 0, 74, 0
2, 526440, Note_on_c, 0, 76, 88
2, 526560, Note_on_c, 0, 76, 0
2, 526560, Note_on_c, 0, 78, 88
2, 526680, Note_on_c, 0, 78, 0
2, 526680, Note_on_c, 0, 79, 88
2, 526800, Note_on_c, 0, 79, 0
2, 526800, Control_c, 0, 64, 0
2, 526800, Note_on_c, 0, 81, 88
2, 527040, Note_on_c, 0, 81, 0
2, 527040, Control_c, 0, 64, 127
2, 527040, Note_on_c, 0, 69, 75
2, 527160, Note_on_c, 0, 69, 0
2, 527160, Note_on_c, 0, 71, 75
2, 527280, Note_on_c, 0, 71, 0
2, 527280, Note_on_c, 0, 72, 75
2, 527400, Note_on_c, 0, 72, 0
2, 527400, Note_on_c, 0, 74, 75
2, 527520, Note_on_c, 0, 74, 0
2, 527520, Control_c, 0, 64, 0
2, 527520, Note_on_c, 0, 76, 75
2, 527760, Note_on_c, 0, 76, 0
2, 527760, Control_c, 0, 64, 127
2, 527760, Note_on_c, 0, 66, 62
2, 527880, Note_on_c, 0, 66, 0
2, 527880, Note_on_c, 0, 67, 62
2, 528000, Note_on_c, 0, 67, 0
2, 528000, Note_on_c, 0, 69, 62
2, 528120, Note_on_c, 0, 69, 0
2, 528120, Note_on_c, 0, 71, 62
2, 528240, Note_on_c, 0, 71, 0
2, 528240, Control_c, 0, 64, 0
2, 528240, Note_on_c, 0, 72, 62
2, 528480, Note_on_c, 0, 72, 0
2, 528480, Control_c, 0, 64, 127
2, 528480, Note_on_c, 0, 61, 62
2, 528600, Note_on_c, 0, 61, 0
2, 528600, Note_on_c, 0, 62, 62
2, 528720, Note_on_c, 0, 62, 0
2, 528720, Note_on_c, 0, 64, 75
2, 528840, Note_on_c, 0, 64, 0
2, 528840, Note_on_c, 0, 66, 75
2, 528960, Note_on_c, 0, 66, 0
2, 528960, Control_c, 0, 64, 0
2, 528960, Note_on_c, 0, 67, 88
2, 528960, Note_on_c, 0, 71, 88
2, 528960, Note_on_c, 0, 79, 88
2, 529200, Note_on_c, 0, 79, 0
2, 529200, Note_on_c, 0, 71, 0
2, 529200, Note_on_c, 0, 67, 0
2, 529320, Note_on_c, 0, 67, 88
2, 529320, Note_on_c, 0, 79, 88
2, 529440, Note_on_c, 0, 79, 0
2, 529440, Note_on_c, 0, 67, 0
2, 529440, Note_on_c, 0, 67, 88
2, 529440, Note_on_c, 0, 79, 88
2, 529920, Note_on_c, 0, 79, 0
2, 529920, Note_on_c, 0, 67, 0
2, 529920, Control_c, 0, 64, 127
2, 529920, Note_on_c, 0, 69, 101
2, 529920, Note_on_c, 0, 81, 101
2, 530160, Note_on_c, 0, 81, 0
2, 530160, Note_on_c, 0, 69, 0
2, 530160, Note_on_c, 0, 71, 101
2, 530160, Note_on_c, 0, 74, 101
2, 530160, Note_on_c, 0, 83, 101
2, 530400, Note_on_c, 0, 83, 0
2, 530400, Note_on_c, 0, 74, 0
2, 530400, Note_on_c, 0, 71, 0
2, 530400, Note_on_c, 0, 76, 101
2, 530400, Note_on_c, 0, 84, 101
2, 530640, Note_on_c, 0, 84, 0
2, 530640, Note_on_c, 0, 76, 0
2, 530640, Note_on_c, 0, 74, 101
2, 530640, Note_on_c, 0, 83, 101
2, 530880, Note_on_c, 0, 83, 0
2, 530880, Note_on_c, 0, 74, 0
2, 530880, Note_on_c, 0, 72, 88
2, 530880, Note_on_c, 0, 81, 88
2, 531120, Note_on_c, 0, 81, 0
2, 531120, Note_on_c, 0, 72, 0
2, 531120, Control_c, 0, 64, 0
2, 531120, Note_on_c, 0, 71, 88
2, 531120, Note_on_c, 0, 79, 88
2, 531360, Note_on_c, 0, 79, 0
2, 531360, Note_on_c, 0, 71, 0
2, 531360, Note_on_c, 0, 67, 75
2, 531360, Note_on_c, 0, 71, 75
2, 531360, Note_on_c, 0, 76, 75
2, 531407, Note_on_c, 0, 76, 0
2, 531407, Note_on_c, 0, 71, 0
2, 531407, Note_on_c, 0, 67, 0
2, 531600, Note_on_c, 0, 68, 75
2, 531600, Note_on_c, 0, 71, 75
2, 531600, Note_on_c, 0, 74, 75
2, 531647, Note_on_c, 0, 74, 0
2, 531647, Note_on_c, 0, 71, 0
2, 531647, Note_on_c, 0, 68, 0
2, 532080, Control_c, 0, 64, 127
2, 532080, Note_on_c, 0, 74, 75
2, 532200, Note_on_c, 0, 74, 0
2, 532200, Note_on_c, 0, 76, 75
2, 532320, Note_on_c, 0, 76, 0
2, 532320, Note_on_c, 0, 78, 75
2, 532440, Note_on_c, 0, 78, 0
2, 532440, Note_on_c, 0, 79, 75
2, 532560, Note_on_c, 0, 79, 0
2, 532560, Control_c, 0, 64, 0
2, 532560, Note_on_c, 0, 81, 75
2, 532800, Note_on_c, 0, 81, 0
2, 532800, Note_on_c, 0, 57, 101
2, 532800, Note_on_c, 0, 62, 101
2, 533040, Note_on_c, 0, 62, 0
2, 533040, Note_on_c, 0, 57, 0
2, 533040, Note_on_c, 0, 57, 101
2, 533040, Note_on_c, 0, 60, 101
2, 533280, Note_on_c, 0, 60, 0
2, 533280, Note_on_c, 0, 57, 0
2, 533280, Note_on_c, 0, 59, 75
2, 533520, Note_on_c, 0, 59, 0
2, 533520, Control_c, 0, 64, 127
2, 533520, Note_on_c, 0, 61, 75
2, 533640, Note_on_c, 0, 61, 0
2, 533640, Note_on_c, 0, 63, 75
2, 533760, Note_on_c, 0, 63, 0
2, 533760, Note_on_c, 0, 64, 75
2, 533880, Note_on_c, 0, 64, 0
2, 533880, Note_on_c, 0, 66, 75
2, 534000, Note_on_c, 0, 66, 0
2, 534000, Control_c, 0, 64, 0
2, 534000, Note_on_c, 0, 67, 75
2, 534240, Note_on_c, 0, 67, 0
2, 534240, Note_on_c, 0, 73, 101
2, 534240, Note_on_c, 0, 79, 101
2, 534240, Note_on_c, 0, 85, 101
2, 534480, Note_on_c, 0, 85, 0
2, 534480, Note_on_c, 0, 79, 0
2, 534480, Note_on_c, 0, 73, 0
2, 534480, Note_on_c, 0, 71, 101
2, 534480, Note_on_c, 0, 79, 101
2, 534480, Note_on_c, 0, 83, 101
2, 534720, Note_on_c, 0, 83, 0
2, 534720, Note_on_c, 0, 79, 0
2, 534720, Note_on_c, 0, 71, 0
2, 534720, Note_on_c, 0, 78, 101
2, 534960, Note_on_c, 0, 78, 0
2, 534960, Control_c, 0, 64, 127
2, 534960, Note_on_c, 0, 78, 75
2, 535080, Note_on_c, 0, 78, 0
2, 535080, Note_on_c, 0, 80, 75
2, 535200, Note_on_c, 0, 80, 0
2, 535200, Note_on_c, 0, 82, 75
2, 535320, Note_on_c, 0, 82, 0
2, 535320, Note_on_c, 0, 83, 75
2, 535440, Note_on_c, 0, 83, 0
2, 535440, Control_c, 0, 64, 0
2, 535440, Note_on_c, 0, 85, 75
2, 535680, Note_on_c, 0, 85, 0
2, 535680, Note_on_c, 0, 61, 88
2, 535680, Note_on_c, 0, 66, 88
2, 535920, Note_on_c, 0, 66, 0
2, 535920, Note_on_c, 0, 61, 0
2, 535920, Note_on_c, 0, 61, 88
2, 535920, Note_on_c, 0, 64, 88
2, 536160, Note_on_c, 0, 64, 0
2, 536160, Note_on_c, 0, 61, 0
2, 536400, Control_c, 0, 64, 127
2, 536400, Note_on_c, 0, 35, 62
2, 536520, Note_on_c, 0, 35, 0
2, 536520, Note_on_c, 0, 37, 62
2, 536640, Note_on_c, 0, 37, 0
2, 536640, Note_on_c, 0, 38, 62
2, 536760, Note_on_c, 0, 38, 0
2, 536760, Note_on_c, 0, 40, 62
2, 536880, Note_on_c, 0, 40, 0
2, 536880, Control_c, 0, 64, 0
2, 536880, Note_on_c, 0, 42, 62
2, 537120, Note_on_c, 0, 42, 0
2, 537120, Note_on_c, 0, 71, 114
2, 537120, Note_on_c, 0, 74, 114
2, 537120, Note_on_c, 0, 83, 114
2, 537360, Note_on_c, 0, 83, 0
2, 537360, Note_on_c, 0, 74, 0
2, 537360, Note_on_c, 0, 71, 0
2, 537360, Note_on_c, 0, 69, 114
2, 537360, Note_on_c, 0, 75, 114
2, 537360, Note_on_c, 0, 81, 114
2, 537600, Note_on_c, 0, 81, 0
2, 537600, Note_on_c, 0, 75, 0
2, 537600, Note_on_c, 0, 69, 0
2, 537600, Note_on_c, 0, 69, 114
2, 537600, Note_on_c, 0, 76, 114
2, 537600, Note_on_c, 0, 81, 114
2, 537840, Note_on_c, 0, 81, 0
2, 537840, Note_on_c, 0, 76, 0
2, 537840, Note_on_c, 0, 69, 0
2, 537840, Control_c, 0, 64, 127
2, 537840, Note_on_c, 0, 81, 88
2, 537960, Note_on_c, 0, 81, 0
2, 537960, Note_on_c, 0, 83, 88
2, 538080, Note_on_c, 0, 83, 0
2, 538080, Note_on_c, 0, 85, 88
2, 538200, Note_on_c, 0, 85, 0
2, 538200, Note_on_c, 0, 86, 88
2, 538320, Note_on_c, 0, 86, 0
2, 538320, Control_c, 0, 64, 0
2, 538320, Note_on_c, 0, 88, 88
2, 538560, Note_on_c, 0, 88, 0
2, 538560, Note_on_c, 0, 52, 101
2, 538560, Note_on_c, 0, 57, 101
2, 538800, Note_on_c, 0, 57, 0
2, 538800, Note_on_c, 0, 52, 0
2, 538800, Note_on_c, 0, 52, 101
2, 538800, Note_on_c, 0, 55, 101
2, 539040, Note_on_c, 0, 55, 0
2, 539040, Note_on_c, 0, 52, 0
2, 539040, Note_on_c, 0, 54, 101
2, 539280, Note_on_c, 0, 54, 0
2, 539280, Control_c, 0, 64, 127
2, 539280, Note_on_c, 0, 56, 75
2, 539400, Note_on_c, 0, 56, 0
2, 539400, Note_on_c, 0, 58, 75
2, 539520, Note_on_c, 0, 58, 0
2, 539520, Note_on_c, 0, 59, 75
2, 539640, Note_on_c, 0, 59, 0
2, 539640, Note_on_c, 0, 61, 75
2, 539760, Note_on_c, 0, 61, 0
2, 539760, Control_c, 0, 64, 0
2, 539760, Note_on_c, 0, 62, 75
2, 540000, Note_on_c, 0, 62, 0
2, 540000, Note_on_c, 0, 68, 114
2, 540000, Note_on_c, 0, 74, 114
2, 540000, Note_on_c, 0, 80, 114
2, 540240, Note_on_c, 0, 80, 0
2, 540240, Note_on_c, 0, 74, 0
2, 540240, Note_on_c, 0, 68, 0
2, 540240, Note_on_c, 0, 66, 114
2, 540240, Note_on_c, 0, 74, 114
2, 540240, Note_on_c, 0, 78, 114
2, 540480, Note_on_c, 0, 78, 0
2, 540480, Note_on_c, 0, 74, 0
2, 540480, Note_on_c, 0, 66, 0
2, 540480, Note_on_c, 0, 73, 114
2, 540720, Note_on_c, 0, 73, 0
2, 540720, Control_c, 0, 64, 127
2, 540720, Note_on_c, 0, 73, 88
2, 540840, Note_on_c, 0, 73, 0
2, 540840, Note_on_c, 0, 75, 88
2, 540960, Note_on_c, 0, 75, 0
2, 540960, Note_on_c, 0, 77, 88
2, 541080, Note_on_c, 0, 77, 0
2, 541080, Note_on_c, 0, 78, 88
2, 541200, Note_on_c, 0, 78, 0
2, 541200, Control_c, 0, 64, 0
2, 541200, Note_on_c, 0, 80, 88
2, 541440, Note_on_c, 0, 80, 0
2, 541440, Note_on_c, 0, 61, 88
2, 541560, Note_on_c, 0, 61, 0
2, 541560, Note_on_c, 0, 62, 88
2, 541680, Note_on_c, 0, 62, 0
2, 541680, Note_on_c, 0, 63, 88
2, 541800, Note_on_c, 0, 63, 0
2, 541800, Note_on_c, 0, 64, 88
2, 541920, Note_on_c, 0, 64, 0
2, 541920, Note_on_c, 0, 65, 88
2, 542040, Note_on_c, 0, 65, 0
2, 542040, Note_on_c, 0, 66, 88
2, 542160, Note_on_c, 0, 66, 0
2, 542160, Note_on_c, 0, 68, 88
2, 542280, Note_on_c, 0, 68, 0
2, 542280, Note_on_c, 0, 69, 88
2, 542400, Note_on_c, 0, 69, 0
2, 542400, Note_on_c, 0, 70, 88
2, 542520, Note_on_c, 0, 70, 0
2, 542520, Note_on_c, 0, 71, 88
2, 542640, Note_on_c, 0, 71, 0
2, 542640, Note_on_c, 0, 72, 101
2, 542760, Note_on_c, 0, 72, 0
2, 542760, Note_on_c, 0, 73, 101
2, 542880, Note_on_c, 0, 73, 0
2, 542880, Note_on_c, 0, 74, 101
2, 543000, Note_on_c, 0, 74, 0
2, 543000, Note_on_c, 0, 75, 101
2, 543120, Note_on_c, 0, 75, 0
2, 543120, Note_on_c, 0, 76, 101
2, 543240, Note_on_c, 0, 76, 0
2, 543240, Note_on_c, 0, 77, 101
2, 543360, Note_on_c, 0, 77, 0
2, 543360, Note_on_c, 0, 66, 101
2, 543360, Note_on_c, 0, 78, 101
2, 543600, Note_on_c, 0, 78, 0
2, 543600, Note_on_c, 0, 66, 0
2, 543720, Note_on_c, 0, 66, 101
2, 543720, Note_on_c, 0, 78, 101
2, 543840, Note_on_c, 0, 78, 0
2, 543840, Note_on_c, 0, 66, 0
2, 543840, Note_on_c, 0, 66, 101
2, 543840, Note_on_c, 0, 78, 101
2, 544320, Note_on_c, 0, 78, 0
2, 544320, Note_on_c, 0, 66, 0
2, 544320, Note_on_c, 0, 68, 101
2, 544320, Note_on_c, 0, 80, 101
2, 544560, Note_on_c, 0, 80, 0
2, 544560, Note_on_c, 0, 68, 0
2, 544560, Note_on_c, 0, 69, 101
2, 544560, Note_on_c, 0, 81, 101
2, 544800, Note_on_c, 0, 81, 0
2, 544800, Note_on_c, 0, 69, 0
2, 544800, Note_on_c, 0, 71, 127
2, 544800, Note_on_c, 0, 83, 127
2, 545040, Note_on_c, 0, 83, 0
2, 545040, Note_on_c, 0, 71, 0
2, 545040, Note_on_c, 0, 69, 101
2, 545040, Note_on_c, 0, 81, 101
2, 545280, Note_on_c, 0, 81, 0
2, 545280, Note_on_c, 0, 69, 0
2, 545280, Note_on_c, 0, 68, 101
2, 545280, Note_on_c, 0, 80, 101
2, 545520, Note_on_c, 0, 80, 0
2, 545520, Note_on_c, 0, 68, 0
2, 545520, Note_on_c, 0, 66, 101
2, 545520, Note_on_c, 0, 78, 101
2, 546000, Note_on_c, 0, 78, 0
2, 546000, Note_on_c, 0, 66, 0
2, 546000, Note_on_c, 0, 73, 101
2, 546240, Note_on_c, 0, 73, 0
2, 546240, Note_on_c, 0, 69, 101
2, 546240, Note_on_c, 0, 81, 101
2, 546287, Note_on_c, 0, 81, 0
2, 546287, Note_on_c, 0, 69, 0
2, 546600, Note_on_c, 0, 69, 101
2, 546600, Note_on_c, 0, 81, 101
2, 546720, Note_on_c, 0, 81, 0
2, 546720, Note_on_c, 0, 69, 0
2, 546720, Note_on_c, 0, 69, 101
2, 546720, Note_on_c, 0, 81, 101
2, 547320, Note_on_c, 0, 81, 0
2, 547320, Note_on_c, 0, 69, 0
2, 547320, Note_on_c, 0, 68, 101
2, 547320, Note_on_c, 0, 80, 101
2, 547440, Note_on_c, 0, 80, 0
2, 547440, Note_on_c, 0, 68, 0
2, 547440, Note_on_c, 0, 68, 101
2, 547440, Note_on_c, 0, 80, 101
2, 548040, Note_on_c, 0, 80, 0
2, 548040, Note_on_c, 0, 68, 0
2, 548040, Note_on_c, 0, 66, 101
2, 548040, Note_on_c, 0, 78, 101
2, 548160, Note_on_c, 0, 78, 0
2, 548160, Note_on_c, 0, 66, 0
2, 548160, Note_on_c, 0, 66, 101
2, 548160, Note_on_c, 0, 78, 101
2, 548880, Note_on_c, 0, 78, 0
2, 548880, Note_on_c, 0, 66, 0
2, 548880, Note_on_c, 0, 71, 101
2, 549120, Note_on_c, 0, 71, 0
2, 549120, Note_on_c, 0, 66, 101
2, 549120, Note_on_c, 0, 78, 101
2, 549167, Note_on_c, 0, 78, 0
2, 549167, Note_on_c, 0, 66, 0
2, 549480, Note_on_c, 0, 66, 101
2, 549480, Note_on_c, 0, 78, 101
2, 549600, Note_on_c, 0, 78, 0
2, 549600, Note_on_c, 0, 66, 0
2, 549600, Note_on_c, 0, 66, 101
2, 549600, Note_on_c, 0, 78, 101
2, 550080, Note_on_c, 0, 78, 0
2, 550080, Note_on_c, 0, 66, 0
2, 550080, Note_on_c, 0, 68, 101
2, 550200, Note_on_c, 0, 68, 0
2, 550200, Note_on_c, 0, 80, 101
2, 550320, Note_on_c, 0, 80, 0
2, 550320, Note_on_c, 0, 69, 101
2, 550440, Note_on_c, 0, 69, 0
2, 550440, Note_on_c, 0, 81, 101
2, 550560, Note_on_c, 0, 81, 0
2, 550560, Note_on_c, 0, 71, 101
2, 550680, Note_on_c, 0, 71, 0
2, 550680, Note_on_c, 0, 83, 101
2, 550800, Note_on_c, 0, 83, 0
2, 550800, Note_on_c, 0, 69, 101
2, 550920, Note_on_c, 0, 69, 0
2, 550920, Note_on_c, 0, 81, 101
2, 551040, Note_on_c, 0, 81, 0
2, 551040, Note_on_c, 0, 68, 101
2, 551160, Note_on_c, 0, 68, 0
2, 551160, Note_on_c, 0, 80, 101
2, 551280, Note_on_c, 0, 80, 0
2, 551280, Note_on_c, 0, 73, 101
2, 551400, Note_on_c, 0, 73, 0
2, 551400, Note_on_c, 0, 85, 101
2, 551520, Note_on_c, 0, 85, 0
2, 551520, Note_on_c, 0, 71, 101
2, 551640, Note_on_c, 0, 71, 0
2, 551640, Note_on_c, 0, 83, 101
2, 551760, Note_on_c, 0, 83, 0
2, 551760, Note_on_c, 0, 69, 101
2, 551880, Note_on_c, 0, 69, 0
2, 551880, Note_on_c, 0, 81, 101
2, 552000, Note_on_c, 0, 81, 0
2, 552000, Note_on_c, 0, 74, 101
2, 552120, Note_on_c, 0, 74, 0
2, 552120, Note_on_c, 0, 86, 101
2, 552240, Note_on_c, 0, 86, 0
2, 552240, Note_on_c, 0, 73, 101
2, 552360, Note_on_c, 0, 73, 0
2, 552360, Note_on_c, 0, 85, 101
2, 552480, Note_on_c, 0, 85, 0
2, 552480, Note_on_c, 0, 71, 101
2, 552600, Note_on_c, 0, 71, 0
2, 552600, Note_on_c, 0, 83, 101
2, 552720, Note_on_c, 0, 83, 0
2, 552720, Note_on_c, 0, 75, 101
2, 552840, Note_on_c, 0, 75, 0
2, 552840, Note_on_c, 0, 87, 101
2, 552960, Note_on_c, 0, 87, 0
2, 552960, Note_on_c, 0, 73, 101
2, 553080, Note_on_c, 0, 73, 0
2, 553080, Note_on_c, 0, 85, 101
2, 553200, Note_on_c, 0, 85, 0
2, 553200, Note_on_c, 0, 72, 101
2, 553320, Note_on_c, 0, 72, 0
2, 553320, Note_on_c, 0, 84, 101
2, 553440, Note_on_c, 0, 84, 0
2, 553440, Note_on_c, 0, 76, 101
2, 553560, Note_on_c, 0, 76, 0
2, 553560, Note_on_c, 0, 88, 101
2, 553680, Note_on_c, 0, 88, 0
2, 553680, Note_on_c, 0, 75, 101
2, 553800, Note_on_c, 0, 75, 0
2, 553800, Note_on_c, 0, 87, 101
2, 553920, Note_on_c, 0, 87, 0
2, 553920, Note_on_c, 0, 73, 101
2, 554040, Note_on_c, 0, 73, 0
2, 554040, Note_on_c, 0, 85, 101
2, 554160, Note_on_c, 0, 85, 0
2, 554160, Note_on_c, 0, 80, 101
2, 554160, Note_on_c, 0, 92, 101
2, 554400, Note_on_c, 0, 92, 0
2, 554400, Note_on_c, 0, 80, 0
2, 554880, Note_on_c, 0, 68, 101
2, 556080, Note_on_c, 0, 68, 0
2, 556080, Note_on_c, 0, 70, 62
2, 556320, Note_on_c, 0, 70, 0
2, 556320, Note_on_c, 0, 69, 62
2, 556320, Note_on_c, 0, 72, 62
2, 557040, Note_on_c, 0, 72, 0
2, 557040, Note_on_c, 0, 69, 0
2, 557040, Note_on_c, 0, 68, 75
2, 557040, Note_on_c, 0, 73, 75
2, 557520, Note_on_c, 0, 73, 0
2, 557520, Note_on_c, 0, 68, 0
2, 557520, Note_on_c, 0, 68, 75
2, 557520, Note_on_c, 0, 72, 75
2, 557520, Note_on_c, 0, 75, 75
2, 557760, Note_on_c, 0, 75, 0
2, 557760, Note_on_c, 0, 72, 0
2, 557760, Note_on_c, 0, 68, 0
2, 557760, Note_on_c, 0, 68, 88
2, 557760, Note_on_c, 0, 73, 88
2, 557760, Note_on_c, 0, 76, 88
2, 558480, Note_on_c, 0, 76, 0
2, 558480, Note_on_c, 0, 73, 0
2, 558480, Note_on_c, 0, 68, 0
2, 558480, Note_on_c, 0, 69, 75
2, 558480, Note_on_c, 0, 73, 75
2, 558480, Note_on_c, 0, 75, 75
2, 559200, Note_on_c, 0, 75, 0
2, 559200, Note_on_c, 0, 73, 0
2, 559200, Note_on_c, 0, 69, 0
2, 559200, Note_on_c, 0, 68, 62
2, 560640, Note_on_c, 0, 68, 0
2, 560640, Note_on_c, 0, 68, 75
2, 561840, Note_on_c, 0, 68, 0
2, 561840, Note_on_c, 0, 70, 75
2, 562080, Note_on_c, 0, 70, 0
2, 562080, Note_on_c, 0, 69, 75
2, 562080, Note_on_c, 0, 72, 75
2, 562800, Note_on_c, 0, 72, 0
2, 562800, Note_on_c, 0, 69, 0
2, 562800, Note_on_c, 0, 68, 75
2, 562800, Note_on_c, 0, 73, 75
2, 563280, Note_on_c, 0, 73, 0
2, 563280, Note_on_c, 0, 68, 0
2, 563280, Note_on_c, 0, 68, 75
2, 563280, Note_on_c, 0, 72, 75
2, 563280, Note_on_c, 0, 75, 75
2, 563520, Note_on_c, 0, 75, 0
2, 563520, Note_on_c, 0, 72, 0
2, 563520, Note_on_c, 0, 68, 0
2, 563520, Note_on_c, 0, 68, 101
2, 563520, Note_on_c, 0, 73, 101
2, 563520, Note_on_c, 0, 78, 101
2, 564240, Note_on_c, 0, 78, 0
2, 564240, Note_on_c, 0, 73, 0
2, 564240, Note_on_c, 0, 68, 0
2, 564240, Note_on_c, 0, 76, 101
2, 564480, Note_on_c, 0, 76, 0
2, 564480, Note_on_c, 0, 75, 88
2, 564720, Note_on_c, 0, 75, 0
2, 564720, Note_on_c, 0, 73, 75
2, 564960, Note_on_c, 0, 73, 0
2, 564960, Note_on_c, 0, 68, 62
2, 566400, Note_on_c, 0, 68, 0
2, 566400, Note_on_c, 0, 68, 101
2, 566400, Note_on_c, 0, 73, 101
2, 566400, Note_on_c, 0, 80, 101
2, 567600, Note_on_c, 0, 80, 0
2, 567600, Note_on_c, 0, 73, 0
2, 567600, Note_on_c, 0, 68, 0
2, 567600, Note_on_c, 0, 69, 75
2, 567600, Note_on_c, 0, 73, 75
2, 567600, Note_on_c, 0, 78, 75
2, 567840, Note_on_c, 0, 78, 0
2, 567840, Note_on_c, 0, 73, 0
2, 567840, Note_on_c, 0, 69, 0
2, 567840, Note_on_c, 0, 68, 62
2, 567840, Note_on_c, 0, 72, 62
2, 567840, Note_on_c, 0, 75, 62
2, 569280, Note_on_c, 0, 75, 0
2, 569280, Note_on_c, 0, 72, 0
2, 569280, Note_on_c, 0, 68, 0
2, 569280, Note_on_c, 0, 68, 101
2, 569280, Note_on_c, 0, 73, 101
2, 569280, Note_on_c, 0, 80, 101
2, 570480, Note_on_c, 0, 80, 0
2, 570480, Note_on_c, 0, 73, 0
2, 570480, Note_on_c, 0, 68, 0
2, 570480, Note_on_c, 0, 69, 88
2, 570480, Note_on_c, 0, 73, 88
2, 570480, Note_on_c, 0, 78, 88
2, 570720, Note_on_c, 0, 78, 0
2, 570720, Note_on_c, 0, 73, 0
2, 570720, Note_on_c, 0, 69, 0
2, 570720, Note_on_c, 0, 68, 62
2, 570720, Note_on_c, 0, 72, 62
2, 570720, Note_on_c, 0, 75, 62
2, 572160, Note_on_c, 0, 75, 0
2, 572160, Note_on_c, 0, 72, 0
2, 572160, Note_on_c, 0, 68, 0
2, 572160, Note_on_c, 0, 68, 101
2, 572160, Note_on_c, 0, 80, 101
2, 572880, Note_on_c, 0, 80, 0
2, 572880, Note_on_c, 0, 68, 0
2, 572880, Note_on_c, 0, 68, 101
2, 572880, Note_on_c, 0, 80, 101
2, 573360, Note_on_c, 0, 80, 0
2, 573360, Note_on_c, 0, 68, 0
2, 573360, Note_on_c, 0, 68, 101
2, 573360, Note_on_c, 0, 80, 101
2, 573600, Note_on_c, 0, 80, 0
2, 573600, Note_on_c, 0, 68, 0
2, 573600, Note_on_c, 0, 68, 101
2, 573600, Note_on_c, 0, 80, 101
2, 574560, Note_on_c, 0, 80, 0
2, 574560, Note_on_c, 0, 68, 0
2, 574560, Note_on_c, 0, 66, 101
2, 574560, Note_on_c, 0, 78, 101
2, 574800, Note_on_c, 0, 78, 0
2, 574800, Note_on_c, 0, 66, 0
2, 574800, Note_on_c, 0, 64, 101
2, 574800, Note_on_c, 0, 76, 101
2, 575040, Note_on_c, 0, 76, 0
2, 575040, Note_on_c, 0, 64, 0
2, 575040, Note_on_c, 0, 68, 101
2, 575040, Note_on_c, 0, 80, 101
2, 576000, Note_on_c, 0, 80, 0
2, 576000, Note_on_c, 0, 68, 0
2, 576000, Note_on_c, 0, 66, 101
2, 576000, Note_on_c, 0, 78, 101
2, 576240, Note_on_c, 0, 78, 0
2, 576240, Note_on_c, 0, 66, 0
2, 576240, Note_on_c, 0, 64, 101
2, 576240, Note_on_c, 0, 76, 101
2, 576480, Note_on_c, 0, 76, 0
2, 576480, Note_on_c, 0, 64, 0
2, 576480, Note_on_c, 0, 68, 101
2, 576480, Note_on_c, 0, 71, 101
2, 576480, Note_on_c, 0, 80, 101
2, 577440, Note_on_c, 0, 80, 0
2, 577440, Note_on_c, 0, 71, 0
2, 577440, Note_on_c, 0, 68, 0
2, 577920, Note_on_c, 0, 68, 75
2, 579120, Note_on_c, 0, 68, 0
2, 579120, Note_on_c, 0, 64, 62
2, 579120, Note_on_c, 0, 67, 62
2, 579120, Note_on_c, 0, 70, 62
2, 579360, Note_on_c, 0, 70, 0
2, 579360, Note_on_c, 0, 67, 0
2, 579360, Note_on_c, 0, 64, 0
2, 579360, Note_on_c, 0, 63, 62
2, 579360, Note_on_c, 0, 66, 62
2, 579360, Note_on_c, 0, 72, 62
2, 580080, Note_on_c, 0, 72, 0
2, 580080, Note_on_c, 0, 66, 0
2, 580080, Note_on_c, 0, 63, 0
2, 580080, Note_on_c, 0, 61, 75
2, 580080, Note_on_c, 0, 68, 75
2, 580080, Note_on_c, 0, 73, 75
2, 580560, Note_on_c, 0, 73, 0
2, 580560, Note_on_c, 0, 68, 0
2, 580560, Note_on_c, 0, 61, 0
2, 580560, Note_on_c, 0, 63, 75
2, 580560, Note_on_c, 0, 68, 75
2, 580560, Note_on_c, 0, 75, 75
2, 580800, Note_on_c, 0, 75, 0
2, 580800, Note_on_c, 0, 68, 0
2, 580800, Note_on_c, 0, 63, 0
2, 580800, Note_on_c, 0, 64, 88
2, 580800, Note_on_c, 0, 68, 88
2, 580800, Note_on_c, 0, 73, 88
2, 580800, Note_on_c, 0, 76, 88
2, 581520, Note_on_c, 0, 76, 0
2, 581520, Note_on_c, 0, 64, 0
2, 581520, Note_on_c, 0, 68, 0
2, 581520, Note_on_c, 0, 73, 0
2, 581520, Note_on_c, 0, 69, 75
2, 581520, Note_on_c, 0, 73, 75
2, 581520, Note_on_c, 0, 75, 75
2, 582240, Note_on_c, 0, 75, 0
2, 582240, Note_on_c, 0, 73, 0
2, 582240, Note_on_c, 0, 69, 0
2, 582240, Note_on_c, 0, 68, 62
2, 583680, Note_on_c, 0, 68, 0
2, 583680, Note_on_c, 0, 68, 75
2, 584880, Note_on_c, 0, 68, 0
2, 584880, Note_on_c, 0, 64, 75
2, 584880, Note_on_c, 0, 67, 75
2, 584880, Note_on_c, 0, 70, 75
2, 585120, Note_on_c, 0, 70, 0
2, 585120, Note_on_c, 0, 67, 0
2, 585120, Note_on_c, 0, 64, 0
2, 585120, Note_on_c, 0, 63, 75
2, 585120, Note_on_c, 0, 66, 75
2, 585120, Note_on_c, 0, 72, 75
2, 585840, Note_on_c, 0, 72, 0
2, 585840, Note_on_c, 0, 66, 0
2, 585840, Note_on_c, 0, 63, 0
2, 585840, Note_on_c, 0, 61, 75
2, 585840, Note_on_c, 0, 68, 75
2, 585840, Note_on_c, 0, 73, 75
2, 586320, Note_on_c, 0, 73, 0
2, 586320, Note_on_c, 0, 68, 0
2, 586320, Note_on_c, 0, 61, 0
2, 586320, Note_on_c, 0, 63, 88
2, 586320, Note_on_c, 0, 68, 88
2, 586320, Note_on_c, 0, 75, 88
2, 586560, Note_on_c, 0, 75, 0
2, 586560, Note_on_c, 0, 68, 0
2, 586560, Note_on_c, 0, 63, 0
2, 586560, Note_on_c, 0, 66, 101
2, 586560, Note_on_c, 0, 68, 101
2, 586560, Note_on_c, 0, 73, 101
2, 586560, Note_on_c, 0, 78, 101
2, 587280, Note_on_c, 0, 78, 0
2, 587280, Note_on_c, 0, 66, 0
2, 587280, Note_on_c, 0, 68, 0
2, 587280, Note_on_c, 0, 73, 0
2, 587280, Note_on_c, 0, 76, 101
2, 587520, Note_on_c, 0, 76, 0
2, 587520, Note_on_c, 0, 75, 88
2, 587760, Note_on_c, 0, 75, 0
2, 587760, Note_on_c, 0, 73, 75
2, 588000, Note_on_c, 0, 73, 0
2, 588000, Note_on_c, 0, 68, 75
2, 589440, Note_on_c, 0, 68, 0
2, 589440, Note_on_c, 0, 73, 88
2, 590400, Note_on_c, 0, 73, 0
2, 590400, Note_on_c, 0, 71, 62
2, 590447, Note_on_c, 0, 71, 0
2, 590640, Note_on_c, 0, 73, 62
2, 590687, Note_on_c, 0, 73, 0
2, 591120, Note_on_c, 0, 61, 62
2, 591167, Note_on_c, 0, 61, 0
2, 591360, Note_on_c, 0, 69, 62
2, 591407, Note_on_c, 0, 69, 0
2, 591600, Note_on_c, 0, 73, 62
2, 591647, Note_on_c, 0, 73, 0
2, 591840, Note_on_c, 0, 78, 62
2, 591887, Note_on_c, 0, 78, 0
2, 592080, Note_on_c, 0, 85, 62
2, 592127, Note_on_c, 0, 85, 0
2, 592320, Note_on_c, 0, 71, 75
2, 593280, Note_on_c, 0, 71, 0
2, 593280, Note_on_c, 0, 69, 49
2, 593327, Note_on_c, 0, 69, 0
2, 593520, Note_on_c, 0, 71, 49
2, 593567, Note_on_c, 0, 71, 0
2, 594000, Note_on_c, 0, 59, 49
2, 594047, Note_on_c, 0, 59, 0
2, 594240, Note_on_c, 0, 68, 49
2, 594287, Note_on_c, 0, 68, 0
2, 594480, Note_on_c, 0, 71, 49
2, 594527, Note_on_c, 0, 71, 0
2, 594720, Note_on_c, 0, 76, 49
2, 594767, Note_on_c, 0, 76, 0
2, 594960, Note_on_c, 0, 83, 49
2, 595007, Note_on_c, 0, 83, 0
2, 595200, Note_on_c, 0, 64, 49
2, 595200, Note_on_c, 0, 69, 49
2, 595920, Note_on_c, 0, 69, 0
2, 595920, Note_on_c, 0, 64, 0
2, 595920, Note_on_c, 0, 66, 49
2, 595920, Note_on_c, 0, 69, 49
2, 595920, Note_on_c, 0, 75, 49
2, 595920, Note_on_c, 0, 78, 49
2, 596640, Note_on_c, 0, 78, 0
2, 596640, Note_on_c, 0, 66, 0
2, 596640, Note_on_c, 0, 69, 0
2, 596640, Note_on_c, 0, 75, 0
2, 596640, Note_on_c, 0, 63, 49
2, 596640, Note_on_c, 0, 68, 49
2, 597360, Note_on_c, 0, 68, 0
2, 597360, Note_on_c, 0, 63, 0
2, 597360, Note_on_c, 0, 64, 49
2, 597360, Note_on_c, 0, 68, 49
2, 597360, Note_on_c, 0, 73, 49
2, 597360, Note_on_c, 0, 76, 49
2, 598080, Note_on_c, 0, 76, 0
2, 598080, Note_on_c, 0, 64, 0
2, 598080, Note_on_c, 0, 68, 0
2, 598080, Note_on_c, 0, 73, 0
2, 598080, Note_on_c, 0, 61, 49
2, 598080, Note_on_c, 0, 66, 49
2, 598800, Note_on_c, 0, 66, 0
2, 598800, Note_on_c, 0, 61, 0
2, 598800, Note_on_c, 0, 63, 49
2, 598800, Note_on_c, 0, 66, 49
2, 598800, Note_on_c, 0, 71, 49
2, 598800, Note_on_c, 0, 75, 49
2, 599520, Note_on_c, 0, 75, 0
2, 599520, Note_on_c, 0, 63, 0
2, 599520, Note_on_c, 0, 66, 0
2, 599520, Note_on_c, 0, 71, 0
2, 599520, Note_on_c, 0, 59, 49
2, 599520, Note_on_c, 0, 64, 49
2, 600240, Note_on_c, 0, 64, 0
2, 600240, Note_on_c, 0, 59, 0
2, 600240, Note_on_c, 0, 61, 49
2, 600240, Note_on_c, 0, 64, 49
2, 600240, Note_on_c, 0, 69, 49
2, 600240, Note_on_c, 0, 73, 49
2, 600960, Note_on_c, 0, 73, 0
2, 600960, Note_on_c, 0, 61, 0
2, 600960, Note_on_c, 0, 64, 0
2, 600960, Note_on_c, 0, 69, 0
2, 600960, Note_on_c, 0, 63, 49
2, 601920, Note_on_c, 0, 63, 0
2, 601920, Note_on_c, 0, 61, 49
2, 601967, Note_on_c, 0, 61, 0
2, 602160, Note_on_c, 0, 63, 49
2, 602207, Note_on_c, 0, 63, 0
2, 602400, Note_on_c, 0, 75, 49
2, 603360, Note_on_c, 0, 75, 0
2, 603360, Note_on_c, 0, 73, 49
2, 603600, Note_on_c, 0, 73, 0
2, 603600, Note_on_c, 0, 75, 49
2, 603840, Note_on_c, 0, 75, 0
2, 603840, Note_on_c, 0, 66, 62
2, 604800, Note_on_c, 0, 66, 0
2, 604800, Note_on_c, 0, 65, 62
2, 604847, Note_on_c, 0, 65, 0
2, 605040, Note_on_c, 0, 66, 62
2, 605087, Note_on_c, 0, 66, 0
2, 605280, Note_on_c, 0, 78, 62
2, 606240, Note_on_c, 0, 78, 0
2, 606240, Note_on_c, 0, 77, 62
2, 606480, Note_on_c, 0, 77, 0
2, 606480, Note_on_c, 0, 78, 62
2, 606720, Note_on_c, 0, 78, 0
2, 607440, Note_on_c, 0, 71, 101
2, 607440, Note_on_c, 0, 78, 101
2, 607440, Note_on_c, 0, 83, 101
2, 607487, Note_on_c, 0, 83, 0
2, 607487, Note_on_c, 0, 78, 0
2, 607487, Note_on_c, 0, 71, 0
2, 608400, Note_on_c, 0, 63, 101
2, 608447, Note_on_c, 0, 63, 0
2, 608640, Note_on_c, 0, 66, 101
2, 608687, Note_on_c, 0, 66, 0
2, 608880, Note_on_c, 0, 71, 101
2, 608927, Note_on_c, 0, 71, 0
2, 609120, Note_on_c, 0, 75, 101
2, 609167, Note_on_c, 0, 75, 0
2, 609360, Note_on_c, 0, 78, 101
2, 609407, Note_on_c, 0, 78, 0
2, 609600, Control_c, 0, 64, 127
2, 609600, Note_on_c, 0, 71, 88
2, 609600, Note_on_c, 0, 80, 88
2, 609600, Note_on_c, 0, 83, 88
2, 610080, Note_on_c, 0, 83, 0
2, 610080, Note_on_c, 0, 80, 0
2, 610080, Note_on_c, 0, 71, 0
2, 610080, Note_on_c, 0, 68, 88
2, 610080, Note_on_c, 0, 76, 88
2, 610320, Note_on_c, 0, 76, 0
2, 610320, Note_on_c, 0, 68, 0
2, 610320, Note_on_c, 0, 71, 88
2, 610320, Note_on_c, 0, 80, 88
2, 610320, Note_on_c, 0, 83, 88
2, 610800, Note_on_c, 0, 83, 0
2, 610800, Note_on_c, 0, 80, 0
2, 610800, Note_on_c, 0, 71, 0
2, 610800, Note_on_c, 0, 68, 88
2, 610800, Note_on_c, 0, 76, 88
2, 611040, Note_on_c, 0, 76, 0
2, 611040, Note_on_c, 0, 68, 0
2, 611040, Note_on_c, 0, 71, 88
2, 611040, Note_on_c, 0, 80, 88
2, 611040, Note_on_c, 0, 83, 88
2, 611520, Note_on_c, 0, 83, 0
2, 611520, Note_on_c, 0, 80, 0
2, 611520, Note_on_c, 0, 71, 0
2, 611520, Note_on_c, 0, 68, 88
2, 611520, Note_on_c, 0, 76, 88
2, 611760, Note_on_c, 0, 76, 0
2, 611760, Note_on_c, 0, 68, 0
2, 611760, Note_on_c, 0, 71, 88
2, 611760, Note_on_c, 0, 80, 88
2, 611760, Note_on_c, 0, 83, 88
2, 612240, Note_on_c, 0, 83, 0
2, 612240, Note_on_c, 0, 80, 0
2, 612240, Note_on_c, 0, 71, 0
2, 612240, Control_c, 0, 64, 0
2, 612240, Note_on_c, 0, 68, 88
2, 612240, Note_on_c, 0, 76, 88
2, 612480, Note_on_c, 0, 76, 0
2, 612480, Note_on_c, 0, 68, 0
2, 612720, Note_on_c, 0, 71, 75
2, 612960, Note_on_c, 0, 71, 0
2, 612960, Note_on_c, 0, 73, 75
2, 613200, Note_on_c, 0, 73, 0
2, 613200, Note_on_c, 0, 75, 75
2, 613440, Note_on_c, 0, 75, 0
2, 613440, Note_on_c, 0, 76, 88
2, 613680, Note_on_c, 0, 76, 0
2, 613680, Note_on_c, 0, 78, 88
2, 613920, Note_on_c, 0, 78, 0
2, 613920, Note_on_c, 0, 71, 88
2, 613920, Note_on_c, 0, 80, 88
2, 614160, Note_on_c, 0, 80, 0
2, 614160, Note_on_c, 0, 71, 0
2, 614160, Note_on_c, 0, 69, 101
2, 614160, Note_on_c, 0, 81, 101
2, 614400, Note_on_c, 0, 81, 0
2, 614400, Note_on_c, 0, 69, 0
2, 614400, Note_on_c, 0, 71, 101
2, 614400, Note_on_c, 0, 80, 101
2, 614400, Note_on_c, 0, 83, 101
2, 614640, Note_on_c, 0, 83, 0
2, 614640, Note_on_c, 0, 80, 0
2, 614640, Note_on_c, 0, 71, 0
2, 614640, Note_on_c, 0, 70, 101
2, 614640, Note_on_c, 0, 76, 101
2, 614640, Note_on_c, 0, 80, 101
2, 615120, Note_on_c, 0, 80, 0
2, 615120, Note_on_c, 0, 76, 0
2, 615120, Note_on_c, 0, 70, 0
2, 615120, Note_on_c, 0, 69, 75
2, 615120, Note_on_c, 0, 71, 75
2, 615120, Note_on_c, 0, 78, 75
2, 615360, Note_on_c, 0, 78, 0
2, 615360, Note_on_c, 0, 71, 0
2, 615360, Note_on_c, 0, 69, 0
2, 615360, Control_c, 0, 64, 127
2, 615360, Note_on_c, 0, 71, 88
2, 615360, Note_on_c, 0, 80, 88
2, 615360, Note_on_c, 0, 83, 88
2, 615840, Note_on_c, 0, 83, 0
2, 615840, Note_on_c, 0, 80, 0
2, 615840, Note_on_c, 0, 71, 0
2, 615840, Note_on_c, 0, 68, 88
2, 615840, Note_on_c, 0, 76, 88
2, 616080, Note_on_c, 0, 76, 0
2, 616080, Note_on_c, 0, 68, 0
2, 616080, Note_on_c, 0, 71, 88
2, 616080, Note_on_c, 0, 80, 88
2, 616080, Note_on_c, 0, 83, 88
2, 616560, Note_on_c, 0, 83, 0
2, 616560, Note_on_c, 0, 80, 0
2, 616560, Note_on_c, 0, 71, 0
2, 616560, Note_on_c, 0, 68, 88
2, 616560, Note_on_c, 0, 76, 88
2, 616800, Note_on_c, 0, 76, 0
2, 616800, Note_on_c, 0, 68, 0
2, 616800, Note_on_c, 0, 71, 88
2, 616800, Note_on_c, 0, 80, 88
2, 616800, Note_on_c, 0, 83, 88
2, 617280, Note_on_c, 0, 83, 0
2, 617280, Note_on_c, 0, 80, 0
2, 617280, Note_on_c, 0, 71, 0
2, 617280, Note_on_c, 0, 68, 88
2, 617280, Note_on_c, 0, 76, 88
2, 617520, Note_on_c, 0, 76, 0
2, 617520, Note_on_c, 0, 68, 0
2, 617520, Note_on_c, 0, 71, 88
2, 617520, Note_on_c, 0, 80, 88
2, 617520, Note_on_c, 0, 83, 88
2, 618000, Note_on_c, 0, 83, 0
2, 618000, Note_on_c, 0, 80, 0
2, 618000, Note_on_c, 0, 71, 0
2, 618000, Control_c, 0, 64, 0
2, 618000, Note_on_c, 0, 68, 88
2, 618000, Note_on_c, 0, 76, 88
2, 618240, Note_on_c, 0, 76, 0
2, 618240, Note_on_c, 0, 68, 0
2, 618480, Note_on_c, 0, 71, 75
2, 618720, Note_on_c, 0, 71, 0
2, 618720, Note_on_c, 0, 73, 75
2, 618960, Note_on_c, 0, 73, 0
2, 618960, Note_on_c, 0, 75, 75
2, 619200, Note_on_c, 0, 75, 0
2, 619200, Note_on_c, 0, 76, 88
2, 619440, Note_on_c, 0, 76, 0
2, 619440, Note_on_c, 0, 78, 88
2, 619680, Note_on_c, 0, 78, 0
2, 619680, Note_on_c, 0, 71, 88
2, 619680, Note_on_c, 0, 80, 88
2, 619920, Note_on_c, 0, 80, 0
2, 619920, Note_on_c, 0, 71, 0
2, 619920, Note_on_c, 0, 69, 101
2, 619920, Note_on_c, 0, 81, 101
2, 620160, Note_on_c, 0, 81, 0
2, 620160, Note_on_c, 0, 69, 0
2, 620160, Note_on_c, 0, 71, 101
2, 620160, Note_on_c, 0, 76, 101
2, 620160, Note_on_c, 0, 80, 101
2, 620400, Note_on_c, 0, 80, 0
2, 620400, Note_on_c, 0, 76, 0
2, 620400, Note_on_c, 0, 71, 0
2, 620400, Note_on_c, 0, 76, 101
2, 620400, Note_on_c, 0, 78, 101
2, 620880, Note_on_c, 0, 78, 0
2, 620880, Note_on_c, 0, 76, 0
2, 620880, Note_on_c, 0, 71, 75
2, 621120, Note_on_c, 0, 71, 0
2, 621120, Control_c, 0, 64, 127
2, 621120, Note_on_c, 0, 71, 88
2, 621120, Note_on_c, 0, 80, 88
2, 621120, Note_on_c, 0, 83, 88
2, 621600, Note_on_c, 0, 83, 0
2, 621600, Note_on_c, 0, 80, 0
2, 621600, Note_on_c, 0, 71, 0
2, 621600, Note_on_c, 0, 68, 88
2, 621600, Note_on_c, 0, 76, 88
2, 621840, Note_on_c, 0, 76, 0
2, 621840, Note_on_c, 0, 68, 0
2, 621840, Note_on_c, 0, 71, 88
2, 621840, Note_on_c, 0, 80, 88
2, 621840, Note_on_c, 0, 83, 88
2, 622320, Note_on_c, 0, 83, 0
2, 622320, Note_on_c, 0, 80, 0
2, 622320, Note_on_c, 0, 71, 0
2, 622320, Note_on_c, 0, 68, 88
2, 622320, Note_on_c, 0, 76, 88
2, 622560, Note_on_c, 0, 76, 0
2, 622560, Note_on_c, 0, 68, 0
2, 622560, Note_on_c, 0, 71, 88
2, 622560, Note_on_c, 0, 80, 88
2, 622560, Note_on_c, 0, 83, 88
2, 623040, Note_on_c, 0, 83, 0
2, 623040, Note_on_c, 0, 80, 0
2, 623040, Note_on_c, 0, 71, 0
2, 623040, Note_on_c, 0, 68, 88
2, 623040, Note_on_c, 0, 76, 88
2, 623280, Note_on_c, 0, 76, 0
2, 623280, Note_on_c, 0, 68, 0
2, 623280, Note_on_c, 0, 71, 88
2, 623280, Note_on_c, 0, 80, 88
2, 623280, Note_on_c, 0, 83, 88
2, 623760, Note_on_c, 0, 83, 0
2, 623760, Note_on_c, 0, 80, 0
2, 623760, Note_on_c, 0, 71, 0
2, 623760, Control_c, 0, 64, 0
2, 623760, Note_on_c, 0, 68, 88
2, 623760, Note_on_c, 0, 76, 88
2, 624000, Note_on_c, 0, 76, 0
2, 624000, Note_on_c, 0, 68, 0
2, 624240, Note_on_c, 0, 71, 75
2, 624480, Note_on_c, 0, 71, 0
2, 624480, Note_on_c, 0, 73, 75
2, 624720, Note_on_c, 0, 73, 0
2, 624720, Note_on_c, 0, 75, 75
2, 624960, Note_on_c, 0, 75, 0
2, 624960, Note_on_c, 0, 76, 88
2, 625200, Note_on_c, 0, 76, 0
2, 625200, Note_on_c, 0, 78, 88
2, 625440, Note_on_c, 0, 78, 0
2, 625440, Note_on_c, 0, 71, 88
2, 625440, Note_on_c, 0, 80, 88
2, 625680, Note_on_c, 0, 80, 0
2, 625680, Note_on_c, 0, 71, 0
2, 625680, Note_on_c, 0, 69, 101
2, 625680, Note_on_c, 0, 81, 101
2, 625920, Note_on_c, 0, 81, 0
2, 625920, Note_on_c, 0, 69, 0
2, 625920, Note_on_c, 0, 71, 101
2, 625920, Note_on_c, 0, 80, 101
2, 625920, Note_on_c, 0, 83, 101
2, 626160, Note_on_c, 0, 83, 0
2, 626160, Note_on_c, 0, 80, 0
2, 626160, Note_on_c, 0, 71, 0
2, 626160, Note_on_c, 0, 70, 101
2, 626160, Note_on_c, 0, 76, 101
2, 626160, Note_on_c, 0, 80, 101
2, 626640, Note_on_c, 0, 80, 0
2, 626640, Note_on_c, 0, 76, 0
2, 626640, Note_on_c, 0, 70, 0
2, 626640, Note_on_c, 0, 69, 75
2, 626640, Note_on_c, 0, 71, 75
2, 626640, Note_on_c, 0, 78, 75
2, 626880, Note_on_c, 0, 78, 0
2, 626880, Note_on_c, 0, 71, 0
2, 626880, Note_on_c, 0, 69, 0
2, 626880, Control_c, 0, 64, 127
2, 626880, Note_on_c, 0, 71, 88
2, 626880, Note_on_c, 0, 80, 88
2, 626880, Note_on_c, 0, 83, 88
2, 627360, Note_on_c, 0, 83, 0
2, 627360, Note_on_c, 0, 80, 0
2, 627360, Note_on_c, 0, 71, 0
2, 627360, Note_on_c, 0, 68, 88
2, 627360, Note_on_c, 0, 76, 88
2, 627600, Note_on_c, 0, 76, 0
2, 627600, Note_on_c, 0, 68, 0
2, 627600, Note_on_c, 0, 71, 88
2, 627600, Note_on_c, 0, 80, 88
2, 627600, Note_on_c, 0, 83, 88
2, 628080, Note_on_c, 0, 83, 0
2, 628080, Note_on_c, 0, 80, 0
2, 628080, Note_on_c, 0, 71, 0
2, 628080, Note_on_c, 0, 68, 88
2, 628080, Note_on_c, 0, 76, 88
2, 628320, Note_on_c, 0, 76, 0
2, 628320, Note_on_c, 0, 68, 0
2, 628320, Note_on_c, 0, 71, 88
2, 628320, Note_on_c, 0, 80, 88
2, 628320, Note_on_c, 0, 83, 88
2, 628800, Note_on_c, 0, 83, 0
2, 628800, Note_on_c, 0, 80, 0
2, 628800, Note_on_c, 0, 71, 0
2, 628800, Note_on_c, 0, 68, 88
2, 628800, Note_on_c, 0, 76, 88
2, 629040, Note_on_c, 0, 76, 0
2, 629040, Note_on_c, 0, 68, 0
2, 629040, Note_on_c, 0, 71, 88
2, 629040, Note_on_c, 0, 80, 88
2, 629040, Note_on_c, 0, 83, 88
2, 629520, Note_on_c, 0, 83, 0
2, 629520, Note_on_c, 0, 80, 0
2, 629520, Note_on_c, 0, 71, 0
2, 629520, Control_c, 0, 64, 0
2, 629520, Note_on_c, 0, 68, 88
2, 629520, Note_on_c, 0, 76, 88
2, 629760, Note_on_c, 0, 76, 0
2, 629760, Note_on_c, 0, 68, 0
2, 630000, Note_on_c, 0, 71, 75
2, 630240, Note_on_c, 0, 71, 0
2, 630240, Note_on_c, 0, 73, 75
2, 630480, Note_on_c, 0, 73, 0
2, 630480, Note_on_c, 0, 75, 75
2, 630720, Note_on_c, 0, 75, 0
2, 630720, Note_on_c, 0, 76, 88
2, 630960, Note_on_c, 0, 76, 0
2, 630960, Note_on_c, 0, 78, 88
2, 631200, Note_on_c, 0, 78, 0
2, 631200, Note_on_c, 0, 71, 88
2, 631200, Note_on_c, 0, 80, 88
2, 631440, Note_on_c, 0, 80, 0
2, 631440, Note_on_c, 0, 71, 0
2, 631440, Note_on_c, 0, 69, 101
2, 631440, Note_on_c, 0, 81, 101
2, 631680, Note_on_c, 0, 81, 0
2, 631680, Note_on_c, 0, 69, 0
2, 631680, Note_on_c, 0, 71, 101
2, 631680, Note_on_c, 0, 76, 101
2, 631680, Note_on_c, 0, 80, 101
2, 631920, Note_on_c, 0, 80, 0
2, 631920, Note_on_c, 0, 76, 0
2, 631920, Note_on_c, 0, 71, 0
2, 631920, Note_on_c, 0, 76, 101
2, 631920, Note_on_c, 0, 78, 101
2, 632400, Note_on_c, 0, 78, 0
2, 632400, Note_on_c, 0, 76, 0
2, 632400, Note_on_c, 0, 71, 75
2, 632640, Note_on_c, 0, 71, 0
2, 632880, Note_on_c, 0, 68, 62
2, 632880, Note_on_c, 0, 80, 62
2, 633360, Note_on_c, 0, 80, 0
2, 633360, Note_on_c, 0, 68, 0
2, 633360, Note_on_c, 0, 66, 62
2, 633360, Note_on_c, 0, 71, 62
2, 633360, Note_on_c, 0, 78, 62
2, 633840, Note_on_c, 0, 78, 0
2, 633840, Note_on_c, 0, 71, 0
2, 633840, Note_on_c, 0, 66, 0
2, 633840, Note_on_c, 0, 64, 62
2, 633840, Note_on_c, 0, 76, 62
2, 634080, Note_on_c, 0, 76, 0
2, 634080, Note_on_c, 0, 64, 0
2, 634320, Note_on_c, 0, 69, 62
2, 634320, Note_on_c, 0, 81, 62
2, 634800, Note_on_c, 0, 81, 0
2, 634800, Note_on_c, 0, 69, 0
2, 634800, Note_on_c, 0, 68, 62
2, 634800, Note_on_c, 0, 71, 62
2, 634800, Note_on_c, 0, 80, 62
2, 635280, Note_on_c, 0, 80, 0
2, 635280, Note_on_c, 0, 71, 0
2, 635280, Note_on_c, 0, 68, 0
2, 635280, Note_on_c, 0, 66, 62
2, 635280, Note_on_c, 0, 78, 62
2, 635520, Note_on_c, 0, 78, 0
2, 635520, Note_on_c, 0, 66, 0
2, 635760, Note_on_c, 0, 71, 62
2, 635760, Note_on_c, 0, 83, 62
2, 636240, Note_on_c, 0, 83, 0
2, 636240, Note_on_c, 0, 71, 0
2, 636240, Note_on_c, 0, 75, 75
2, 636240, Note_on_c, 0, 80, 75
2, 636240, Note_on_c, 0, 87, 75
2, 636720, Note_on_c, 0, 87, 0
2, 636720, Note_on_c, 0, 80, 0
2, 636720, Note_on_c, 0, 75, 0
2, 636720, Note_on_c, 0, 73, 75
2, 636720, Note_on_c, 0, 85, 75
2, 637200, Note_on_c, 0, 85, 0
2, 637200, Note_on_c, 0, 73, 0
2, 637200, Note_on_c, 0, 71, 75
2, 637200, Note_on_c, 0, 83, 75
2, 637680, Note_on_c, 0, 83, 0
2, 637680, Note_on_c, 0, 71, 0
2, 637680, Note_on_c, 0, 70, 62
2, 637680, Note_on_c, 0, 75, 62
2, 637680, Note_on_c, 0, 82, 62
2, 638160, Note_on_c, 0, 82, 0
2, 638160, Note_on_c, 0, 75, 0
2, 638160, Note_on_c, 0, 70, 0
2, 638160, Note_on_c, 0, 69, 62
2, 638160, Note_on_c, 0, 81, 62
2, 638400, Note_on_c, 0, 81, 0
2, 638400, Note_on_c, 0, 69, 0
2, 638640, Note_on_c, 0, 68, 62
2, 638640, Note_on_c, 0, 80, 62
2, 639120, Note_on_c, 0, 80, 0
2, 639120, Note_on_c, 0, 68, 0
2, 639120, Note_on_c, 0, 66, 62
2, 639120, Note_on_c, 0, 71, 62
2, 639120, Note_on_c, 0, 78, 62
2, 639600, Note_on_c, 0, 78, 0
2, 639600, Note_on_c, 0, 71, 0
2, 639600, Note_on_c, 0, 66, 0
2, 639600, Note_on_c, 0, 64, 62
2, 639600, Note_on_c, 0, 76, 62
2, 639840, Note_on_c, 0, 76, 0
2, 639840, Note_on_c, 0, 64, 0
2, 640080, Note_on_c, 0, 69, 62
2, 640080, Note_on_c, 0, 81, 62
2, 640560, Note_on_c, 0, 81, 0
2, 640560, Note_on_c, 0, 69, 0
2, 640560, Note_on_c, 0, 68, 62
2, 640560, Note_on_c, 0, 71, 62
2, 640560, Note_on_c, 0, 80, 62
2, 641040, Note_on_c, 0, 80, 0
2, 641040, Note_on_c, 0, 71, 0
2, 641040, Note_on_c, 0, 68, 0
2, 641040, Note_on_c, 0, 66, 62
2, 641040, Note_on_c, 0, 78, 62
2, 641280, Note_on_c, 0, 78, 0
2, 641280, Note_on_c, 0, 66, 0
2, 641520, Note_on_c, 0, 71, 75
2, 641520, Note_on_c, 0, 83, 75
2, 642000, Note_on_c, 0, 83, 0
2, 642000, Note_on_c, 0, 71, 0
2, 642000, Note_on_c, 0, 72, 75
2, 642000, Note_on_c, 0, 84, 75
2, 642480, Note_on_c, 0, 84, 0
2, 642480, Note_on_c, 0, 72, 0
2, 642480, Note_on_c, 0, 73, 75
2, 642480, Note_on_c, 0, 85, 75
2, 642960, Note_on_c, 0, 85, 0
2, 642960, Note_on_c, 0, 73, 0
2, 642960, Note_on_c, 0, 78, 75
2, 642960, Note_on_c, 0, 90, 75
2, 643440, Note_on_c, 0, 90, 0
2, 643440, Note_on_c, 0, 78, 0
2, 643440, Note_on_c, 0, 76, 75
2, 643440, Note_on_c, 0, 88, 75
2, 643920, Note_on_c, 0, 88, 0
2, 643920, Note_on_c, 0, 76, 0
2, 643920, Note_on_c, 0, 75, 75
2, 643920, Note_on_c, 0, 87, 75
2, 644400, Note_on_c, 0, 87, 0
2, 644400, Note_on_c, 0, 75, 0
2, 644400, Note_on_c, 0, 80, 88
2, 644400, Note_on_c, 0, 92, 88
2, 644880, Note_on_c, 0, 92, 0
2, 644880, Note_on_c, 0, 80, 0
2, 644880, Note_on_c, 0, 78, 88
2, 644880, Note_on_c, 0, 90, 88
2, 645360, Note_on_c, 0, 90, 0
2, 645360, Note_on_c, 0, 78, 0
2, 645360, Note_on_c, 0, 76, 88
2, 645360, Note_on_c, 0, 88, 88
2, 645840, Note_on_c, 0, 88, 0
2, 645840, Note_on_c, 0, 76, 0
2, 645840, Note_on_c, 0, 75, 75
2, 645840, Note_on_c, 0, 87, 75
2, 646320, Note_on_c, 0, 87, 0
2, 646320, Note_on_c, 0, 75, 0
2, 646320, Note_on_c, 0, 73, 75
2, 646320, Note_on_c, 0, 85, 75
2, 646800, Note_on_c, 0, 85, 0
2, 646800, Note_on_c, 0, 73, 0
2, 646800, Note_on_c, 0, 75, 75
2, 646800, Note_on_c, 0, 87, 75
2, 647280, Note_on_c, 0, 87, 0
2, 647280, Note_on_c, 0, 75, 0
2, 647280, Note_on_c, 0, 73, 75
2, 647280, Note_on_c, 0, 85, 75
2, 647760, Note_on_c, 0, 85, 0
2, 647760, Note_on_c, 0, 73, 0
2, 647760, Note_on_c, 0, 71, 75
2, 647760, Note_on_c, 0, 83, 75
2, 648240, Note_on_c, 0, 83, 0
2, 648240, Note_on_c, 0, 71, 0
2, 648240, Note_on_c, 0, 73, 75
2, 648240, Note_on_c, 0, 85, 75
2, 648720, Note_on_c, 0, 85, 0
2, 648720, Note_on_c, 0, 73, 0
2, 648720, Note_on_c, 0, 68, 75
2, 648720, Note_on_c, 0, 80, 75
2, 649200, Note_on_c, 0, 80, 0
2, 649200, Note_on_c, 0, 68, 0
2, 649200, Note_on_c, 0, 71, 75
2, 649200, Note_on_c, 0, 83, 75
2, 649680, Note_on_c, 0, 83, 0
2, 649680, Note_on_c, 0, 71, 0
2, 649680, Note_on_c, 0, 69, 75
2, 649680, Note_on_c, 0, 81, 75
2, 649920, Note_on_c, 0, 81, 0
2, 649920, Note_on_c, 0, 69, 0
2, 650160, Note_on_c, 0, 68, 62
2, 650160, Note_on_c, 0, 80, 62
2, 650640, Note_on_c, 0, 80, 0
2, 650640, Note_on_c, 0, 68, 0
2, 650640, Note_on_c, 0, 66, 62
2, 650640, Note_on_c, 0, 71, 62
2, 650640, Note_on_c, 0, 78, 62
2, 651120, Note_on_c, 0, 78, 0
2, 651120, Note_on_c, 0, 71, 0
2, 651120, Note_on_c, 0, 66, 0
2, 651120, Note_on_c, 0, 64, 62
2, 651120, Note_on_c, 0, 76, 62
2, 651360, Note_on_c, 0, 76, 0
2, 651360, Note_on_c, 0, 64, 0
2, 651600, Note_on_c, 0, 69, 75
2, 651600, Note_on_c, 0, 81, 75
2, 652080, Note_on_c, 0, 81, 0
2, 652080, Note_on_c, 0, 69, 0
2, 652080, Note_on_c, 0, 68, 75
2, 652080, Note_on_c, 0, 71, 75
2, 652080, Note_on_c, 0, 80, 75
2, 652560, Note_on_c, 0, 80, 0
2, 652560, Note_on_c, 0, 71, 0
2, 652560, Note_on_c, 0, 68, 0
2, 652560, Note_on_c, 0, 66, 75
2, 652560, Note_on_c, 0, 78, 75
2, 652800, Note_on_c, 0, 78, 0
2, 652800, Note_on_c, 0, 66, 0
2, 653040, Note_on_c, 0, 71, 88
2, 653040, Note_on_c, 0, 83, 88
2, 653520, Note_on_c, 0, 83, 0
2, 653520, Note_on_c, 0, 71, 0
2, 653520, Note_on_c, 0, 75, 88
2, 653520, Note_on_c, 0, 80, 88
2, 653520, Note_on_c, 0, 87, 88
2, 654000, Note_on_c, 0, 87, 0
2, 654000, Note_on_c, 0, 80, 0
2, 654000, Note_on_c, 0, 75, 0
2, 654000, Note_on_c, 0, 73, 88
2, 654000, Note_on_c, 0, 85, 88
2, 654480, Note_on_c, 0, 85, 0
2, 654480, Note_on_c, 0, 73, 0
2, 654480, Note_on_c, 0, 71, 88
2, 654480, Note_on_c, 0, 83, 88
2, 654960, Note_on_c, 0, 83, 0
2, 654960, Note_on_c, 0, 71, 0
2, 654960, Note_on_c, 0, 70, 88
2, 654960, Note_on_c, 0, 75, 88
2, 654960, Note_on_c, 0, 82, 88
2, 655440, Note_on_c, 0, 82, 0
2, 655440, Note_on_c, 0, 75, 0
2, 655440, Note_on_c, 0, 70, 0
2, 655440, Note_on_c, 0, 69, 88
2, 655440, Note_on_c, 0, 81, 88
2, 655680, Note_on_c, 0, 81, 0
2, 655680, Note_on_c, 0, 69, 0
2, 655920, Note_on_c, 0, 68, 88
2, 655920, Note_on_c, 0, 80, 88
2, 656400, Note_on_c, 0, 80, 0
2, 656400, Note_on_c, 0, 68, 0
2, 656400, Note_on_c, 0, 66, 88
2, 656400, Note_on_c, 0, 78, 88
2, 656880, Note_on_c, 0, 78, 0
2, 656880, Note_on_c, 0, 66, 0
2, 656880, Note_on_c, 0, 64, 88
2, 656880, Note_on_c, 0, 76, 88
2, 657360, Note_on_c, 0, 76, 0
2, 657360, Note_on_c, 0, 64, 0
2, 657360, Note_on_c, 0, 64, 88
2, 657360, Note_on_c, 0, 76, 88
2, 657840, Note_on_c, 0, 76, 0
2, 657840, Note_on_c, 0, 64, 0
2, 657840, Note_on_c, 0, 66, 88
2, 657840, Note_on_c, 0, 78, 88
2, 658320, Note_on_c, 0, 78, 0
2, 658320, Note_on_c, 0, 66, 0
2, 658320, Note_on_c, 0, 68, 88
2, 658320, Note_on_c, 0, 80, 88
2, 658560, Note_on_c, 0, 80, 0
2, 658560, Note_on_c, 0, 68, 0
2, 658800, Note_on_c, 0, 66, 62
2, 658800, Note_on_c, 0, 78, 62
2, 659280, Note_on_c, 0, 78, 0
2, 659280, Note_on_c, 0, 66, 0
2, 659280, Note_on_c, 0, 68, 62
2, 659280, Note_on_c, 0, 80, 62
2, 659760, Note_on_c, 0, 80, 0
2, 659760, Note_on_c, 0, 68, 0
2, 659760, Note_on_c, 0, 69, 62
2, 659760, Note_on_c, 0, 81, 62
2, 660240, Note_on_c, 0, 81, 0
2, 660240, Note_on_c, 0, 69, 0
2, 660240, Note_on_c, 0, 69, 75
2, 660240, Note_on_c, 0, 81, 75
2, 660720, Note_on_c, 0, 81, 0
2, 660720, Note_on_c, 0, 69, 0
2, 660720, Note_on_c, 0, 70, 75
2, 660720, Note_on_c, 0, 82, 75
2, 661200, Note_on_c, 0, 82, 0
2, 661200, Note_on_c, 0, 70, 0
2, 661200, Note_on_c, 0, 71, 75
2, 661200, Note_on_c, 0, 83, 75
2, 661680, Note_on_c, 0, 83, 0
2, 661680, Note_on_c, 0, 71, 0
2, 661680, Note_on_c, 0, 71, 88
2, 661680, Note_on_c, 0, 83, 88
2, 662160, Note_on_c, 0, 83, 0
2, 662160, Note_on_c, 0, 71, 0
2, 662160, Note_on_c, 0, 72, 88
2, 662160, Note_on_c, 0, 81, 88
2, 662160, Note_on_c, 0, 84, 88
2, 662640, Note_on_c, 0, 84, 0
2, 662640, Note_on_c, 0, 81, 0
2, 662640, Note_on_c, 0, 72, 0
2, 662640, Note_on_c, 0, 73, 88
2, 662640, Note_on_c, 0, 81, 88
2, 662640, Note_on_c, 0, 85, 88
2, 663120, Note_on_c, 0, 85, 0
2, 663120, Note_on_c, 0, 81, 0
2, 663120, Note_on_c, 0, 73, 0
2, 663120, Note_on_c, 0, 73, 88
2, 663120, Note_on_c, 0, 82, 88
2, 663120, Note_on_c, 0, 85, 88
2, 663600, Note_on_c, 0, 85, 0
2, 663600, Note_on_c, 0, 82, 0
2, 663600, Note_on_c, 0, 73, 0
2, 663600, Note_on_c, 0, 74, 88
2, 663600, Note_on_c, 0, 81, 88
2, 663600, Note_on_c, 0, 86, 88
2, 664080, Note_on_c, 0, 86, 0
2, 664080, Note_on_c, 0, 81, 0
2, 664080, Note_on_c, 0, 74, 0
2, 664080, Note_on_c, 0, 75, 88
2, 664080, Note_on_c, 0, 81, 88
2, 664080, Note_on_c, 0, 87, 88
2, 664320, Note_on_c, 0, 87, 0
2, 664320, Note_on_c, 0, 81, 0
2, 664320, Note_on_c, 0, 75, 0
2, 664560, Note_on_c, 0, 76, 88
2, 664560, Note_on_c, 0, 80, 88
2, 664560, Note_on_c, 0, 88, 88
2, 665040, Note_on_c, 0, 88, 0
2, 665040, Note_on_c, 0, 80, 0
2, 665040, Note_on_c, 0, 76, 0
2, 665040, Note_on_c, 0, 77, 88
2, 665040, Note_on_c, 0, 80, 88
2, 665040, Note_on_c, 0, 89, 88
2, 665520, Note_on_c, 0, 89, 0
2, 665520, Note_on_c, 0, 80, 0
2, 665520, Note_on_c, 0, 77, 0
2, 665520, Note_on_c, 0, 78, 88
2, 665520, Note_on_c, 0, 80, 88
2, 665520, Note_on_c, 0, 90, 88
2, 665760, Note_on_c, 0, 90, 0
2, 665760, Note_on_c, 0, 80, 0
2, 665760, Note_on_c, 0, 78, 0
2, 666000, Note_on_c, 0, 78, 88
2, 666000, Note_on_c, 0, 90, 88
2, 666480, Note_on_c, 0, 90, 0
2, 666480, Note_on_c, 0, 78, 0
2, 666480, Note_on_c, 0, 80, 88
2, 666480, Note_on_c, 0, 92, 88
2, 666960, Note_on_c, 0, 92, 0
2, 666960, Note_on_c, 0, 80, 0
2, 666960, Note_on_c, 0, 81, 88
2, 666960, Note_on_c, 0, 93, 88
2, 667200, Note_on_c, 0, 93, 0
2, 667200, Note_on_c, 0, 81, 0
2, 667440, Note_on_c, 0, 83, 101
2, 667440, Note_on_c, 0, 95, 101
2, 667920, Note_on_c, 0, 95, 0
2, 667920, Note_on_c, 0, 83, 0
2, 667920, Note_on_c, 0, 82, 101
2, 667920, Note_on_c, 0, 94, 101
2, 668400, Note_on_c, 0, 94, 0
2, 668400, Note_on_c, 0, 82, 0
2, 668400, Note_on_c, 0, 83, 101
2, 668400, Note_on_c, 0, 95, 101
2, 668880, Note_on_c, 0, 95, 0
2, 668880, Note_on_c, 0, 83, 0
2, 668880, Note_on_c, 0, 83, 101
2, 668880, Note_on_c, 0, 95, 101
2, 669360, Note_on_c, 0, 95, 0
2, 669360, Note_on_c, 0, 83, 0
2, 669360, Note_on_c, 0, 82, 101
2, 669360, Note_on_c, 0, 94, 101
2, 669840, Note_on_c, 0, 94, 0
2, 669840, Note_on_c, 0, 82, 0
2, 669840, Note_on_c, 0, 83, 101
2, 669840, Note_on_c, 0, 95, 101
2, 670320, Note_on_c, 0, 95, 0
2, 670320, Note_on_c, 0, 83, 0
2, 670320, Note_on_c, 0, 83, 101
2, 670320, Note_on_c, 0, 95, 101
2, 670800, Note_on_c, 0, 95, 0
2, 670800, Note_on_c, 0, 83, 0
2, 670800, Note_on_c, 0, 82, 101
2, 670800, Note_on_c, 0, 94, 101
2, 671280, Note_on_c, 0, 94, 0
2, 671280, Note_on_c, 0, 82, 0
2, 671280, Note_on_c, 0, 83, 101
2, 671280, Note_on_c, 0, 95, 101
2, 671760, Note_on_c, 0, 95, 0
2, 671760, Note_on_c, 0, 83, 0
2, 671760, Note_on_c, 0, 83, 101
2, 671760, Note_on_c, 0, 95, 101
2, 672240, Note_on_c, 0, 95, 0
2, 672240, Note_on_c, 0, 83, 0
2, 672240, Note_on_c, 0, 82, 101
2, 672240, Note_on_c, 0, 94, 101
2, 672720, Note_on_c, 0, 94, 0
2, 672720, Note_on_c, 0, 82, 0
2, 672720, Note_on_c, 0, 83, 101
2, 672720, Note_on_c, 0, 95, 101
2, 672960, Note_on_c, 0, 95, 0
2, 672960, Note_on_c, 0, 83, 0
2, 672960, Note_on_c, 0, 83, 101
2, 672960, Note_on_c, 0, 88, 101
2, 672960, Note_on_c, 0, 92, 101
2, 672960, Note_on_c, 0, 95, 101
2, 673440, Note_on_c, 0, 95, 0
2, 673440, Note_on_c, 0, 83, 0
2, 673440, Note_on_c, 0, 88, 0
2, 673440, Note_on_c, 0, 92, 0
2, 673440, Note_on_c, 0, 76, 101
2, 673440, Note_on_c, 0, 83, 101
2, 673440, Note_on_c, 0, 88, 101
2, 673680, Note_on_c, 0, 88, 0
2, 673680, Note_on_c, 0, 83, 0
2, 673680, Note_on_c, 0, 76, 0
2, 673680, Note_on_c, 0, 83, 101
2, 673680, Note_on_c, 0, 88, 101
2, 673680, Note_on_c, 0, 95, 101
2, 674160, Note_on_c, 0, 95, 0
2, 674160, Note_on_c, 0, 88, 0
2, 674160, Note_on_c, 0, 83, 0
2, 674160, Note_on_c, 0, 76, 101
2, 674160, Note_on_c, 0, 83, 101
2, 674160, Note_on_c, 0, 88, 101
2, 674400, Note_on_c, 0, 88, 0
2, 674400, Note_on_c, 0, 83, 0
2, 674400, Note_on_c, 0, 76, 0
2, 674400, Note_on_c, 0, 83, 101
2, 674400, Note_on_c, 0, 88, 101
2, 674400, Note_on_c, 0, 92, 101
2, 674400, Note_on_c, 0, 95, 101
2, 674880, Note_on_c, 0, 95, 0
2, 674880, Note_on_c, 0, 83, 0
2, 674880, Note_on_c, 0, 88, 0
2, 674880, Note_on_c, 0, 92, 0
2, 674880, Note_on_c, 0, 76, 101
2, 674880, Note_on_c, 0, 83, 101
2, 674880, Note_on_c, 0, 88, 101
2, 675120, Note_on_c, 0, 88, 0
2, 675120, Note_on_c, 0, 83, 0
2, 675120, Note_on_c, 0, 76, 0
2, 675120, Note_on_c, 0, 83, 101
2, 675120, Note_on_c, 0, 88, 101
2, 675120, Note_on_c, 0, 95, 101
2, 675600, Note_on_c, 0, 95, 0
2, 675600, Note_on_c, 0, 88, 0
2, 675600, Note_on_c, 0, 83, 0
2, 675600, Note_on_c, 0, 76, 101
2, 675600, Note_on_c, 0, 83, 101
2, 675600, Note_on_c, 0, 88, 101
2, 675840, Note_on_c, 0, 88, 0
2, 675840, Note_on_c, 0, 83, 0
2, 675840, Note_on_c, 0, 76, 0
2, 676080, Note_on_c, 0, 68, 88
2, 676200, Note_on_c, 0, 68, 0
2, 676200, Note_on_c, 0, 80, 88
2, 676320, Note_on_c, 0, 80, 0
2, 676320, Note_on_c, 0, 69, 88
2, 676440, Note_on_c, 0, 69, 0
2, 676440, Note_on_c, 0, 81, 88
2, 676560, Note_on_c, 0, 81, 0
2, 676560, Note_on_c, 0, 71, 88
2, 676680, Note_on_c, 0, 71, 0
2, 676680, Note_on_c, 0, 83, 88
2, 676800, Note_on_c, 0, 83, 0
2, 676800, Note_on_c, 0, 73, 88
2, 676920, Note_on_c, 0, 73, 0
2, 676920, Note_on_c, 0, 85, 88
2, 677040, Note_on_c, 0, 85, 0
2, 677040, Note_on_c, 0, 75, 88
2, 677160, Note_on_c, 0, 75, 0
2, 677160, Note_on_c, 0, 83, 88
2, 677160, Note_on_c, 0, 87, 88
2, 677280, Note_on_c, 0, 87, 0
2, 677280, Note_on_c, 0, 83, 0
2, 677280, Note_on_c, 0, 76, 101
2, 677400, Note_on_c, 0, 76, 0
2, 677400, Note_on_c, 0, 83, 101
2, 677400, Note_on_c, 0, 88, 101
2, 677520, Note_on_c, 0, 88, 0
2, 677520, Note_on_c, 0, 83, 0
2, 677520, Note_on_c, 0, 78, 101
2, 677640, Note_on_c, 0, 78, 0
2, 677640, Note_on_c, 0, 83, 101
2, 677640, Note_on_c, 0, 90, 101
2, 677760, Note_on_c, 0, 90, 0
2, 677760, Note_on_c, 0, 83, 0
2, 677760, Note_on_c, 0, 79, 101
2, 677880, Note_on_c, 0, 79, 0
2, 677880, Note_on_c, 0, 83, 101
2, 677880, Note_on_c, 0, 91, 101
2, 678000, Note_on_c, 0, 91, 0
2, 678000, Note_on_c, 0, 83, 0
2, 678000, Note_on_c, 0, 80, 101
2, 678120, Note_on_c, 0, 80, 0
2, 678120, Note_on_c, 0, 88, 101
2, 678120, Note_on_c, 0, 92, 101
2, 678240, Note_on_c, 0, 92, 0
2, 678240, Note_on_c, 0, 88, 0
2, 678240, Note_on_c, 0, 81, 101
2, 678360, Note_on_c, 0, 81, 0
2, 678360, Note_on_c, 0, 88, 101
2, 678360, Note_on_c, 0, 93, 101
2, 678480, Note_on_c, 0, 93, 0
2, 678480, Note_on_c, 0, 88, 0
2, 678480, Note_on_c, 0, 82, 101
2, 678600, Note_on_c, 0, 82, 0
2, 678600, Note_on_c, 0, 88, 101
2, 678600, Note_on_c, 0, 94, 101
2, 678720, Note_on_c, 0, 94, 0
2, 678720, Note_on_c, 0, 88, 0
2, 678720, Note_on_c, 0, 83, 101
2, 678720, Note_on_c, 0, 88, 101
2, 678720, Note_on_c, 0, 92, 101
2, 678720, Note_on_c, 0, 95, 101
2, 679200, Note_on_c, 0, 95, 0
2, 679200, Note_on_c, 0, 83, 0
2, 679200, Note_on_c, 0, 88, 0
2, 679200, Note_on_c, 0, 92, 0
2, 679200, Note_on_c, 0, 76, 101
2, 679200, Note_on_c, 0, 83, 101
2, 679200, Note_on_c, 0, 88, 101
2, 679440, Note_on_c, 0, 88, 0
2, 679440, Note_on_c, 0, 83, 0
2, 679440, Note_on_c, 0, 76, 0
2, 679440, Note_on_c, 0, 83, 101
2, 679440, Note_on_c, 0, 88, 101
2, 679440, Note_on_c, 0, 95, 101
2, 679920, Note_on_c, 0, 95, 0
2, 679920, Note_on_c, 0, 88, 0
2, 679920, Note_on_c, 0, 83, 0
2, 679920, Note_on_c, 0, 76, 101
2, 679920, Note_on_c, 0, 83, 101
2, 679920, Note_on_c, 0, 88, 101
2, 680160, Note_on_c, 0, 88, 0
2, 680160, Note_on_c, 0, 83, 0
2, 680160, Note_on_c, 0, 76, 0
2, 680160, Note_on_c, 0, 83, 101
2, 680160, Note_on_c, 0, 88, 101
2, 680160, Note_on_c, 0, 92, 101
2, 680160, Note_on_c, 0, 95, 101
2, 680640, Note_on_c, 0, 95, 0
2, 680640, Note_on_c, 0, 83, 0
2, 680640, Note_on_c, 0, 88, 0
2, 680640, Note_on_c, 0, 92, 0
2, 680640, Note_on_c, 0, 76, 101
2, 680640, Note_on_c, 0, 83, 101
2, 680640, Note_on_c, 0, 88, 101
2, 680880, Note_on_c, 0, 88, 0
2, 680880, Note_on_c, 0, 83, 0
2, 680880, Note_on_c, 0, 76, 0
2, 680880, Note_on_c, 0, 83, 101
2, 680880, Note_on_c, 0, 88, 101
2, 680880, Note_on_c, 0, 95, 101
2, 681360, Note_on_c, 0, 95, 0
2, 681360, Note_on_c, 0, 88, 0
2, 681360, Note_on_c, 0, 83, 0
2, 681360, Note_on_c, 0, 76, 101
2, 681360, Note_on_c, 0, 83, 101
2, 681360, Note_on_c, 0, 88, 101
2, 681600, Note_on_c, 0, 88, 0
2, 681600, Note_on_c, 0, 83, 0
2, 681600, Note_on_c, 0, 76, 0
2, 681840, Note_on_c, 0, 64, 88
2, 681960, Note_on_c, 0, 64, 0
2, 681960, Note_on_c, 0, 76, 88
2, 682080, Note_on_c, 0, 76, 0
2, 682080, Note_on_c, 0, 66, 88
2, 682200, Note_on_c, 0, 66, 0
2, 682200, Note_on_c, 0, 78, 88
2, 682320, Note_on_c, 0, 78, 0
2, 682320, Note_on_c, 0, 68, 88
2, 682440, Note_on_c, 0, 68, 0
2, 682440, Note_on_c, 0, 76, 88
2, 682440, Note_on_c, 0, 80, 88
2, 682560, Note_on_c, 0, 80, 0
2, 682560, Note_on_c, 0, 76, 0
2, 682560, Note_on_c, 0, 69, 88
2, 682680, Note_on_c, 0, 69, 0
2, 682680, Note_on_c, 0, 76, 88
2, 682680, Note_on_c, 0, 81, 88
2, 682800, Note_on_c, 0, 81, 0
2, 682800, Note_on_c, 0, 76, 0
2, 682800, Note_on_c, 0, 70, 88
2, 682920, Note_on_c, 0, 70, 0
2, 682920, Note_on_c, 0, 76, 88
2, 682920, Note_on_c, 0, 82, 88
2, 683040, Note_on_c, 0, 82, 0
2, 683040, Note_on_c, 0, 76, 0
2, 683040, Note_on_c, 0, 71, 88
2, 683160, Note_on_c, 0, 71, 0
2, 683160, Note_on_c, 0, 76, 88
2, 683160, Note_on_c, 0, 83, 88
2, 683280, Note_on_c, 0, 83, 0
2, 683280, Note_on_c, 0, 76, 0
2, 683280, Note_on_c, 0, 73, 88
2, 683400, Note_on_c, 0, 73, 0
2, 683400, Note_on_c, 0, 82, 88
2, 683400, Note_on_c, 0, 85, 88
2, 683520, Note_on_c, 0, 85, 0
2, 683520, Note_on_c, 0, 82, 0
2, 683520, Note_on_c, 0, 75, 101
2, 683640, Note_on_c, 0, 75, 0
2, 683640, Note_on_c, 0, 81, 101
2, 683640, Note_on_c, 0, 87, 101
2, 683760, Note_on_c, 0, 87, 0
2, 683760, Note_on_c, 0, 81, 0
2, 683760, Note_on_c, 0, 76, 101
2, 683880, Note_on_c, 0, 76, 0
2, 683880, Note_on_c, 0, 80, 101
2, 683880, Note_on_c, 0, 88, 101
2, 684000, Note_on_c, 0, 88, 0
2, 684000, Note_on_c, 0, 80, 0
2, 684000, Note_on_c, 0, 78, 101
2, 684120, Note_on_c, 0, 78, 0
2, 684120, Note_on_c, 0, 83, 101
2, 684120, Note_on_c, 0, 90, 101
2, 684240, Note_on_c, 0, 90, 0
2, 684240, Note_on_c, 0, 83, 0
2, 684240, Note_on_c, 0, 79, 101
2, 684360, Note_on_c, 0, 79, 0
2, 684360, Note_on_c, 0, 82, 101
2, 684360, Note_on_c, 0, 91, 101
2, 684480, Note_on_c, 0, 91, 0
2, 684480, Note_on_c, 0, 82, 0
2, 684480, Note_on_c, 0, 80, 101
2, 684480, Note_on_c, 0, 83, 101
2, 684480, Note_on_c, 0, 92, 101
2, 684960, Note_on_c, 0, 92, 0
2, 684960, Note_on_c, 0, 83, 0
2, 684960, Note_on_c, 0, 80, 0
2, 684960, Note_on_c, 0, 71, 101
2, 684960, Note_on_c, 0, 76, 101
2, 684960, Note_on_c, 0, 83, 101
2, 685200, Note_on_c, 0, 83, 0
2, 685200, Note_on_c, 0, 76, 0
2, 685200, Note_on_c, 0, 71, 0
2, 685200, Note_on_c, 0, 80, 101
2, 685200, Note_on_c, 0, 83, 101
2, 685200, Note_on_c, 0, 92, 101
2, 685680, Note_on_c, 0, 92, 0
2, 685680, Note_on_c, 0, 83, 0
2, 685680, Note_on_c, 0, 80, 0
2, 685680, Note_on_c, 0, 71, 101
2, 685680, Note_on_c, 0, 76, 101
2, 685680, Note_on_c, 0, 83, 101
2, 685920, Note_on_c, 0, 83, 0
2, 685920, Note_on_c, 0, 76, 0
2, 685920, Note_on_c, 0, 71, 0
2, 686160, Note_on_c, 0, 68, 101
2, 686280, Note_on_c, 0, 68, 0
2, 686280, Note_on_c, 0, 80, 101
2, 686400, Note_on_c, 0, 80, 0
2, 686400, Note_on_c, 0, 69, 101
2, 686520, Note_on_c, 0, 69, 0
2, 686520, Note_on_c, 0, 81, 101
2, 686640, Note_on_c, 0, 81, 0
2, 686640, Note_on_c, 0, 71, 101
2, 686760, Note_on_c, 0, 71, 0
2, 686760, Note_on_c, 0, 76, 101
2, 686760, Note_on_c, 0, 83, 101
2, 686880, Note_on_c, 0, 83, 0
2, 686880, Note_on_c, 0, 76, 0
2, 686880, Note_on_c, 0, 73, 101
2, 687000, Note_on_c, 0, 73, 0
2, 687000, Note_on_c, 0, 82, 101
2, 687000, Note_on_c, 0, 85, 101
2, 687120, Note_on_c, 0, 85, 0
2, 687120, Note_on_c, 0, 82, 0
2, 687120, Note_on_c, 0, 75, 101
2, 687240, Note_on_c, 0, 75, 0
2, 687240, Note_on_c, 0, 81, 101
2, 687240, Note_on_c, 0, 87, 101
2, 687360, Note_on_c, 0, 87, 0
2, 687360, Note_on_c, 0, 81, 0
2, 687360, Note_on_c, 0, 76, 101
2, 687360, Note_on_c, 0, 80, 101
2, 687360, Note_on_c, 0, 88, 101
2, 687840, Note_on_c, 0, 88, 0
2, 687840, Note_on_c, 0, 80, 0
2, 687840, Note_on_c, 0, 76, 0
2, 687840, Note_on_c, 0, 71, 101
2, 687840, Note_on_c, 0, 76, 101
2, 687840, Note_on_c, 0, 80, 101
2, 688080, Note_on_c, 0, 80, 0
2, 688080, Note_on_c, 0, 76, 0
2, 688080, Note_on_c, 0, 71, 0
2, 688080, Note_on_c, 0, 76, 101
2, 688080, Note_on_c, 0, 80, 101
2, 688080, Note_on_c, 0, 88, 101
2, 688560, Note_on_c, 0, 88, 0
2, 688560, Note_on_c, 0, 80, 0
2, 688560, Note_on_c, 0, 76, 0
2, 688560, Note_on_c, 0, 71, 101
2, 688560, Note_on_c, 0, 76, 101
2, 688560, Note_on_c, 0, 80, 101
2, 688800, Note_on_c, 0, 80, 0
2, 688800, Note_on_c, 0, 76, 0
2, 688800, Note_on_c, 0, 71, 0
2, 689040, Note_on_c, 0, 64, 88
2, 689160, Note_on_c, 0, 64, 0
2, 689160, Note_on_c, 0, 76, 88
2, 689280, Note_on_c, 0, 76, 0
2, 689280, Note_on_c, 0, 66, 88
2, 689400, Note_on_c, 0, 66, 0
2, 689400, Note_on_c, 0, 78, 88
2, 689520, Note_on_c, 0, 78, 0
2, 689520, Note_on_c, 0, 68, 88
2, 689640, Note_on_c, 0, 68, 0
2, 689640, Note_on_c, 0, 76, 88
2, 689640, Note_on_c, 0, 80, 88
2, 689760, Note_on_c, 0, 80, 0
2, 689760, Note_on_c, 0, 76, 0
2, 689760, Note_on_c, 0, 69, 88
2, 689880, Note_on_c, 0, 69, 0
2, 689880, Note_on_c, 0, 76, 88
2, 689880, Note_on_c, 0, 81, 88
2, 690000, Note_on_c, 0, 81, 0
2, 690000, Note_on_c, 0, 76, 0
2, 690000, Note_on_c, 0, 70, 88
2, 690120, Note_on_c, 0, 70, 0
2, 690120, Note_on_c, 0, 76, 88
2, 690120, Note_on_c, 0, 82, 88
2, 690240, Note_on_c, 0, 82, 0
2, 690240, Note_on_c, 0, 76, 0
2, 690240, Note_on_c, 0, 71, 88
2, 690240, Note_on_c, 0, 76, 88
2, 690240, Note_on_c, 0, 80, 88
2, 690240, Note_on_c, 0, 83, 88
2, 690720, Note_on_c, 0, 83, 0
2, 690720, Note_on_c, 0, 71, 0
2, 690720, Note_on_c, 0, 76, 0
2, 690720, Note_on_c, 0, 80, 0
2, 690720, Note_on_c, 0, 64, 88
2, 690720, Note_on_c, 0, 68, 88
2, 690720, Note_on_c, 0, 76, 88
2, 690960, Note_on_c, 0, 76, 0
2, 690960, Note_on_c, 0, 68, 0
2, 690960, Note_on_c, 0, 64, 0
2, 690960, Note_on_c, 0, 71, 88
2, 690960, Note_on_c, 0, 76, 88
2, 690960, Note_on_c, 0, 83, 88
2, 691440, Note_on_c, 0, 83, 0
2, 691440, Note_on_c, 0, 76, 0
2, 691440, Note_on_c, 0, 71, 0
2, 691440, Note_on_c, 0, 64, 88
2, 691440, Note_on_c, 0, 68, 88
2, 691440, Note_on_c, 0, 76, 88
2, 691680, Note_on_c, 0, 76, 0
2, 691680, Note_on_c, 0, 68, 0
2, 691680, Note_on_c, 0, 64, 0
2, 691680, Note_on_c, 0, 68, 88
2, 691680, Note_on_c, 0, 71, 88
2, 691680, Note_on_c, 0, 80, 88
2, 692160, Note_on_c, 0, 80, 0
2, 692160, Note_on_c, 0, 71, 0
2, 692160, Note_on_c, 0, 68, 0
2, 692160, Note_on_c, 0, 64, 88
2, 692160, Note_on_c, 0, 68, 88
2, 692160, Note_on_c, 0, 71, 88
2, 692400, Note_on_c, 0, 71, 0
2, 692400, Note_on_c, 0, 68, 0
2, 692400, Note_on_c, 0, 64, 0
2, 692400, Note_on_c, 0, 68, 88
2, 692400, Note_on_c, 0, 71, 88
2, 692400, Note_on_c, 0, 80, 88
2, 692880, Note_on_c, 0, 80, 0
2, 692880, Note_on_c, 0, 71, 0
2, 692880, Note_on_c, 0, 68, 0
2, 692880, Note_on_c, 0, 64, 88
2, 692880, Note_on_c, 0, 68, 88
2, 692880, Note_on_c, 0, 71, 88
2, 693120, Note_on_c, 0, 71, 0
2, 693120, Note_on_c, 0, 68, 0
2, 693120, Note_on_c, 0, 64, 0
2, 693120, Note_on_c, 0, 64, 88
2, 693120, Note_on_c, 0, 68, 88
2, 693120, Note_on_c, 0, 76, 88
2, 693600, Note_on_c, 0, 76, 0
2, 693600, Note_on_c, 0, 68, 0
2, 693600, Note_on_c, 0, 64, 0
2, 693600, Note_on_c, 0, 64, 88
2, 693600, Note_on_c, 0, 68, 88
2, 693840, Note_on_c, 0, 68, 0
2, 693840, Note_on_c, 0, 64, 0
2, 693840, Note_on_c, 0, 64, 88
2, 693840, Note_on_c, 0, 68, 88
2, 693840, Note_on_c, 0, 76, 88
2, 694320, Note_on_c, 0, 76, 0
2, 694320, Note_on_c, 0, 68, 0
2, 694320, Note_on_c, 0, 64, 0
2, 694320, Note_on_c, 0, 64, 88
2, 694320, Note_on_c, 0, 68, 88
2, 694560, Note_on_c, 0, 68, 0
2, 694560, Note_on_c, 0, 64, 0
2, 694560, Note_on_c, 0, 64, 88
2, 694560, Note_on_c, 0, 68, 88
2, 694560, Note_on_c, 0, 71, 88
2, 695040, Note_on_c, 0, 71, 0
2, 695040, Note_on_c, 0, 68, 0
2, 695040, Note_on_c, 0, 64, 0
2, 695040, Note_on_c, 0, 64, 88
2, 695280, Note_on_c, 0, 64, 0
2, 695280, Note_on_c, 0, 64, 88
2, 695280, Note_on_c, 0, 71, 88
2, 695760, Note_on_c, 0, 71, 0
2, 695760, Note_on_c, 0, 64, 0
2, 695760, Note_on_c, 0, 64, 88
2, 696000, Note_on_c, 0, 64, 0
2, 696000, Note_on_c, 0, 64, 88
2, 696000, Note_on_c, 0, 71, 88
2, 696480, Note_on_c, 0, 71, 0
2, 696480, Note_on_c, 0, 64, 0
2, 696480, Note_on_c, 0, 64, 88
2, 696720, Note_on_c, 0, 64, 0
2, 696720, Note_on_c, 0, 64, 88
2, 696720, Note_on_c, 0, 71, 88
2, 697200, Note_on_c, 0, 71, 0
2, 697200, Note_on_c, 0, 64, 0
2, 697200, Note_on_c, 0, 64, 88
2, 697440, Note_on_c, 0, 64, 0
2, 697440, Note_on_c, 0, 64, 88
2, 697440, Note_on_c, 0, 71, 88
2, 697920, Note_on_c, 0, 71, 0
2, 697920, Note_on_c, 0, 64, 0
2, 697920, Note_on_c, 0, 64, 88
2, 698160, Note_on_c, 0, 64, 0
2, 698160, Note_on_c, 0, 64, 88
2, 698160, Note_on_c, 0, 71, 88
2, 698640, Note_on_c, 0, 71, 0
2, 698640, Note_on_c, 0, 64, 0
2, 698640, Note_on_c, 0, 64, 88
2, 698880, Note_on_c, 0, 64, 0
2, 699120, Note_on_c, 0, 59, 88
2, 699167, Note_on_c, 0, 59, 0
2, 699360, Note_on_c, 0, 61, 88
2, 699407, Note_on_c, 0, 61, 0
2, 699600, Note_on_c, 0, 63, 88
2, 699840, Note_on_c, 0, 63, 0
2, 699840, Note_on_c, 0, 64, 88
2, 700080, Note_on_c, 0, 64, 0
2, 700080, Note_on_c, 0, 66, 88
2, 700320, Note_on_c, 0, 66, 0
2, 700320, Note_on_c, 0, 68, 88
2, 700560, Note_on_c, 0, 68, 0
2, 700560, Note_on_c, 0, 63, 88
2, 700607, Note_on_c, 0, 63, 0
2, 700800, Note_on_c, 0, 64, 88
2, 700847, Note_on_c, 0, 64, 0
2, 701040, Note_on_c, 0, 66, 88
2, 701280, Note_on_c, 0, 66, 0
2, 701280, Note_on_c, 0, 68, 75
2, 701520, Note_on_c, 0, 68, 0
2, 701520, Note_on_c, 0, 69, 75
2, 701760, Note_on_c, 0, 69, 0
2, 701760, Note_on_c, 0, 64, 75
2, 701760, Note_on_c, 0, 71, 75
2, 702240, Note_on_c, 0, 71, 0
2, 702240, Note_on_c, 0, 64, 0
2, 702240, Note_on_c, 0, 64, 75
2, 702480, Note_on_c, 0, 64, 0
2, 702480, Note_on_c, 0, 64, 75
2, 702480, Note_on_c, 0, 71, 75
2, 702960, Note_on_c, 0, 71, 0
2, 702960, Note_on_c, 0, 64, 0
2, 702960, Note_on_c, 0, 64, 75
2, 703200, Note_on_c, 0, 64, 0
2, 703200, Note_on_c, 0, 64, 75
2, 703200, Note_on_c, 0, 71, 75
2, 703680, Note_on_c, 0, 71, 0
2, 703680, Note_on_c, 0, 64, 0
2, 703680, Note_on_c, 0, 64, 75
2, 703920, Note_on_c, 0, 64, 0
2, 703920, Note_on_c, 0, 64, 75
2, 703920, Note_on_c, 0, 71, 75
2, 704400, Note_on_c, 0, 71, 0
2, 704400, Note_on_c, 0, 64, 0
2, 704400, Note_on_c, 0, 64, 75
2, 704640, Note_on_c, 0, 64, 0
2, 704880, Note_on_c, 0, 59, 75
2, 704927, Note_on_c, 0, 59, 0
2, 705120, Note_on_c, 0, 61, 75
2, 705167, Note_on_c, 0, 61, 0
2, 705360, Note_on_c, 0, 63, 75
2, 705600, Note_on_c, 0, 63, 0
2, 705600, Note_on_c, 0, 64, 75
2, 705840, Note_on_c, 0, 64, 0
2, 705840, Note_on_c, 0, 66, 75
2, 706080, Note_on_c, 0, 66, 0
2, 706080, Note_on_c, 0, 67, 75
2, 706320, Note_on_c, 0, 67, 0
2, 706320, Note_on_c, 0, 64, 75
2, 706367, Note_on_c, 0, 64, 0
2, 706560, Note_on_c, 0, 66, 75
2, 706607, Note_on_c, 0, 66, 0
2, 706800, Note_on_c, 0, 67, 75
2, 707040, Note_on_c, 0, 67, 0
2, 707040, Note_on_c, 0, 69, 62
2, 707280, Note_on_c, 0, 69, 0
2, 707280, Note_on_c, 0, 71, 62
2, 707520, Note_on_c, 0, 71, 0
2, 707520, Note_on_c, 0, 60, 62
2, 707520, Note_on_c, 0, 64, 62
2, 707520, Note_on_c, 0, 72, 62
2, 708000, Note_on_c, 0, 72, 0
2, 708000, Note_on_c, 0, 64, 0
2, 708000, Note_on_c, 0, 60, 0
2, 708000, Note_on_c, 0, 60, 62
2, 708000, Note_on_c, 0, 64, 62
2, 708240, Note_on_c, 0, 64, 0
2, 708240, Note_on_c, 0, 60, 0
2, 708240, Note_on_c, 0, 60, 62
2, 708240, Note_on_c, 0, 64, 62
2, 708240, Note_on_c, 0, 72, 62
2, 708720, Note_on_c, 0, 72, 0
2, 708720, Note_on_c, 0, 64, 0
2, 708720, Note_on_c, 0, 60, 0
2, 708720, Note_on_c, 0, 60, 62
2, 708720, Note_on_c, 0, 64, 62
2, 708960, Note_on_c, 0, 64, 0
2, 708960, Note_on_c, 0, 60, 0
2, 709200, Note_on_c, 0, 66, 62
2, 709247, Note_on_c, 0, 66, 0
2, 709440, Note_on_c, 0, 67, 62
2, 709487, Note_on_c, 0, 67, 0
2, 709680, Note_on_c, 0, 69, 62
2, 709920, Note_on_c, 0, 69, 0
2, 709920, Note_on_c, 0, 71, 75
2, 710160, Note_on_c, 0, 71, 0
2, 710160, Note_on_c, 0, 72, 75
2, 710400, Note_on_c, 0, 72, 0
2, 710400, Note_on_c, 0, 64, 75
2, 710400, Note_on_c, 0, 69, 75
2, 710400, Note_on_c, 0, 76, 75
2, 710880, Note_on_c, 0, 76, 0
2, 710880, Note_on_c, 0, 69, 0
2, 710880, Note_on_c, 0, 64, 0
2, 710880, Note_on_c, 0, 64, 75
2, 710880, Note_on_c, 0, 69, 75
2, 711120, Note_on_c, 0, 69, 0
2, 711120, Note_on_c, 0, 64, 0
2, 711120, Note_on_c, 0, 64, 75
2, 711120, Note_on_c, 0, 69, 75
2, 711120, Note_on_c, 0, 76, 75
2, 711600, Note_on_c, 0, 76, 0
2, 711600, Note_on_c, 0, 69, 0
2, 711600, Note_on_c, 0, 64, 0
2, 711600, Note_on_c, 0, 64, 75
2, 711600, Note_on_c, 0, 69, 75
2, 711840, Note_on_c, 0, 69, 0
2, 711840, Note_on_c, 0, 64, 0
2, 712080, Note_on_c, 0, 69, 75
2, 712127, Note_on_c, 0, 69, 0
2, 712320, Note_on_c, 0, 71, 75
2, 712367, Note_on_c, 0, 71, 0
2, 712560, Note_on_c, 0, 72, 75
2, 712800, Note_on_c, 0, 72, 0
2, 712800, Note_on_c, 0, 75, 88
2, 713040, Note_on_c, 0, 75, 0
2, 713040, Note_on_c, 0, 76, 88
2, 713280, Note_on_c, 0, 76, 0
2, 713280, Note_on_c, 0, 67, 88
2, 713280, Note_on_c, 0, 72, 88
2, 713280, Note_on_c, 0, 79, 88
2, 713760, Note_on_c, 0, 79, 0
2, 713760, Note_on_c, 0, 72, 0
2, 713760, Note_on_c, 0, 67, 0
2, 713760, Note_on_c, 0, 67, 88
2, 713760, Note_on_c, 0, 72, 88
2, 714000, Note_on_c, 0, 72, 0
2, 714000, Note_on_c, 0, 67, 0
2, 714000, Note_on_c, 0, 76, 88
2, 714240, Note_on_c, 0, 76, 0
2, 714240, Note_on_c, 0, 66, 88
2, 714240, Note_on_c, 0, 78, 88
2, 714480, Note_on_c, 0, 78, 0
2, 714480, Note_on_c, 0, 66, 0
2, 714480, Note_on_c, 0, 67, 88
2, 714480, Note_on_c, 0, 79, 88
2, 714720, Note_on_c, 0, 79, 0
2, 714720, Note_on_c, 0, 67, 0
2, 714720, Note_on_c, 0, 69, 88
2, 714720, Note_on_c, 0, 76, 88
2, 714720, Note_on_c, 0, 81, 88
2, 715200, Note_on_c, 0, 81, 0
2, 715200, Note_on_c, 0, 76, 0
2, 715200, Note_on_c, 0, 69, 0
2, 715200, Note_on_c, 0, 69, 88
2, 715200, Note_on_c, 0, 76, 88
2, 715440, Note_on_c, 0, 76, 0
2, 715440, Note_on_c, 0, 69, 0
2, 715440, Note_on_c, 0, 66, 88
2, 715440, Note_on_c, 0, 78, 88
2, 715680, Note_on_c, 0, 78, 0
2, 715680, Note_on_c, 0, 66, 0
2, 715680, Note_on_c, 0, 67, 101
2, 715680, Note_on_c, 0, 79, 101
2, 715920, Note_on_c, 0, 79, 0
2, 715920, Note_on_c, 0, 67, 0
2, 715920, Note_on_c, 0, 69, 101
2, 715920, Note_on_c, 0, 81, 101
2, 716160, Note_on_c, 0, 81, 0
2, 716160, Note_on_c, 0, 69, 0
2, 716160, Note_on_c, 0, 70, 101
2, 716160, Note_on_c, 0, 76, 101
2, 716160, Note_on_c, 0, 82, 101
2, 716640, Note_on_c, 0, 82, 0
2, 716640, Note_on_c, 0, 76, 0
2, 716640, Note_on_c, 0, 70, 0
2, 716640, Note_on_c, 0, 58, 101
2, 716640, Note_on_c, 0, 64, 101
2, 716880, Note_on_c, 0, 64, 0
2, 716880, Note_on_c, 0, 58, 0
2, 716880, Note_on_c, 0, 58, 101
2, 716880, Note_on_c, 0, 64, 101
2, 716880, Note_on_c, 0, 70, 101
2, 717120, Note_on_c, 0, 70, 0
2, 717120, Note_on_c, 0, 64, 0
2, 717120, Note_on_c, 0, 58, 0
2, 717360, Note_on_c, 0, 70, 101
2, 717360, Note_on_c, 0, 76, 101
2, 717600, Note_on_c, 0, 76, 0
2, 717600, Note_on_c, 0, 70, 0
2, 717600, Note_on_c, 0, 70, 101
2, 717600, Note_on_c, 0, 76, 101
2, 717600, Note_on_c, 0, 82, 101
2, 717840, Note_on_c, 0, 82, 0
2, 717840, Note_on_c, 0, 76, 0
2, 717840, Note_on_c, 0, 70, 0
2, 717840, Note_on_c, 0, 76, 101
2, 717960, Note_on_c, 0, 76, 0
2, 717960, Note_on_c, 0, 72, 101
2, 718080, Note_on_c, 0, 72, 0
2, 718080, Note_on_c, 0, 78, 101
2, 718200, Note_on_c, 0, 78, 0
2, 718200, Note_on_c, 0, 72, 101
2, 718320, Note_on_c, 0, 72, 0
2, 718320, Note_on_c, 0, 79, 101
2, 718560, Note_on_c, 0, 79, 0
2, 718560, Note_on_c, 0, 88, 101
2, 718680, Note_on_c, 0, 88, 0
2, 718680, Note_on_c, 0, 84, 101
2, 718800, Note_on_c, 0, 84, 0
2, 718800, Note_on_c, 0, 90, 101
2, 718920, Note_on_c, 0, 90, 0
2, 718920, Note_on_c, 0, 84, 101
2, 719040, Note_on_c, 0, 84, 0
2, 719040, Note_on_c, 0, 83, 101
2, 719040, Note_on_c, 0, 86, 101
2, 719040, Note_on_c, 0, 91, 101
2, 719040, Note_on_c, 0, 95, 101
2, 719280, Note_on_c, 0, 95, 0
2, 719280, Note_on_c, 0, 83, 0
2, 719280, Note_on_c, 0, 86, 0
2, 719280, Note_on_c, 0, 91, 0
2, 719400, Note_on_c, 0, 59, 62
2, 719400, Note_on_c, 0, 71, 62
2, 719520, Note_on_c, 0, 71, 0
2, 719520, Note_on_c, 0, 59, 0
2, 719520, Note_on_c, 0, 59, 62
2, 719520, Note_on_c, 0, 71, 62
2, 719760, Note_on_c, 0, 71, 0
2, 719760, Note_on_c, 0, 59, 0
2, 719760, Note_on_c, 0, 59, 62
2, 719760, Note_on_c, 0, 71, 62
2, 720000, Note_on_c, 0, 71, 0
2, 720000, Note_on_c, 0, 59, 0
2, 720000, Note_on_c, 0, 60, 75
2, 720000, Note_on_c, 0, 72, 75
2, 720240, Note_on_c, 0, 72, 0
2, 720240, Note_on_c, 0, 60, 0
2, 720240, Note_on_c, 0, 62, 75
2, 720240, Note_on_c, 0, 74, 75
2, 720287, Note_on_c, 0, 74, 0
2, 720287, Note_on_c, 0, 62, 0
2, 720480, Note_on_c, 0, 64, 75
2, 720480, Note_on_c, 0, 76, 75
2, 720720, Note_on_c, 0, 76, 0
2, 720720, Note_on_c, 0, 64, 0
2, 720720, Note_on_c, 0, 62, 75
2, 720720, Note_on_c, 0, 74, 75
2, 720960, Note_on_c, 0, 74, 0
2, 720960, Note_on_c, 0, 62, 0
2, 720960, Note_on_c, 0, 60, 62
2, 720960, Note_on_c, 0, 72, 62
2, 721007, Note_on_c, 0, 72, 0
2, 721007, Note_on_c, 0, 60, 0
2, 721200, Note_on_c, 0, 59, 62
2, 721200, Note_on_c, 0, 71, 62
2, 721247, Note_on_c, 0, 71, 0
2, 721247, Note_on_c, 0, 59, 0
2, 721440, Note_on_c, 0, 57, 62
2, 721440, Note_on_c, 0, 69, 62
2, 721487, Note_on_c, 0, 69, 0
2, 721487, Note_on_c, 0, 57, 0
2, 721680, Note_on_c, 0, 56, 62
2, 721680, Note_on_c, 0, 68, 62
2, 721727, Note_on_c, 0, 68, 0
2, 721727, Note_on_c, 0, 56, 0
2, 721920, Note_on_c, 0, 57, 62
2, 721920, Note_on_c, 0, 64, 62
2, 721920, Note_on_c, 0, 69, 62
2, 722160, Note_on_c, 0, 69, 0
2, 722160, Note_on_c, 0, 64, 0
2, 722160, Note_on_c, 0, 57, 0
2, 722280, Note_on_c, 0, 64, 62
2, 722280, Note_on_c, 0, 76, 62
2, 722400, Note_on_c, 0, 76, 0
2, 722400, Note_on_c, 0, 64, 0
2, 722400, Note_on_c, 0, 64, 62
2, 722400, Note_on_c, 0, 76, 62
2, 722880, Note_on_c, 0, 76, 0
2, 722880, Note_on_c, 0, 64, 0
2, 722880, Note_on_c, 0, 66, 62
2, 723000, Note_on_c, 0, 66, 0
2, 723000, Note_on_c, 0, 78, 62
2, 723120, Note_on_c, 0, 78, 0
2, 723120, Note_on_c, 0, 68, 75
2, 723240, Note_on_c, 0, 68, 0
2, 723240, Note_on_c, 0, 80, 75
2, 723360, Note_on_c, 0, 80, 0
2, 723360, Note_on_c, 0, 69, 75
2, 723480, Note_on_c, 0, 69, 0
2, 723480, Note_on_c, 0, 81, 75
2, 723600, Note_on_c, 0, 81, 0
2, 723600, Note_on_c, 0, 67, 75
2, 723720, Note_on_c, 0, 67, 0
2, 723720, Note_on_c, 0, 79, 75
2, 723840, Note_on_c, 0, 79, 0
2, 723840, Note_on_c, 0, 66, 62
2, 723960, Note_on_c, 0, 66, 0
2, 723960, Note_on_c, 0, 78, 62
2, 724080, Note_on_c, 0, 78, 0
2, 724080, Note_on_c, 0, 64, 62
2, 724200, Note_on_c, 0, 64, 0
2, 724200, Note_on_c, 0, 76, 62
2, 724320, Note_on_c, 0, 76, 0
2, 724320, Note_on_c, 0, 62, 62
2, 724440, Note_on_c, 0, 62, 0
2, 724440, Note_on_c, 0, 74, 62
2, 724560, Note_on_c, 0, 74, 0
2, 724560, Note_on_c, 0, 63, 62
2, 724680, Note_on_c, 0, 63, 0
2, 724680, Note_on_c, 0, 75, 62
2, 724800, Note_on_c, 0, 75, 0
2, 724800, Note_on_c, 0, 64, 62
2, 724800, Note_on_c, 0, 71, 62
2, 724800, Note_on_c, 0, 76, 62
2, 725040, Note_on_c, 0, 76, 0
2, 725040, Note_on_c, 0, 71, 0
2, 725040, Note_on_c, 0, 64, 0
2, 725160, Note_on_c, 0, 71, 62
2, 725160, Note_on_c, 0, 83, 62
2, 725280, Note_on_c, 0, 83, 0
2, 725280, Note_on_c, 0, 71, 0
2, 725280, Note_on_c, 0, 71, 62
2, 725280, Note_on_c, 0, 83, 62
2, 725520, Note_on_c, 0, 83, 0
2, 725520, Note_on_c, 0, 71, 0
2, 725520, Note_on_c, 0, 71, 62
2, 725520, Note_on_c, 0, 83, 62
2, 725760, Note_on_c, 0, 83, 0
2, 725760, Note_on_c, 0, 71, 0
2, 725760, Note_on_c, 0, 73, 75
2, 725760, Note_on_c, 0, 85, 75
2, 726000, Note_on_c, 0, 85, 0
2, 726000, Note_on_c, 0, 73, 0
2, 726000, Note_on_c, 0, 75, 75
2, 726000, Note_on_c, 0, 87, 75
2, 726047, Note_on_c, 0, 87, 0
2, 726047, Note_on_c, 0, 75, 0
2, 726240, Note_on_c, 0, 76, 75
2, 726240, Note_on_c, 0, 88, 75
2, 726480, Note_on_c, 0, 88, 0
2, 726480, Note_on_c, 0, 76, 0
2, 726480, Note_on_c, 0, 74, 62
2, 726480, Note_on_c, 0, 86, 62
2, 726720, Note_on_c, 0, 86, 0
2, 726720, Note_on_c, 0, 74, 0
2, 726720, Note_on_c, 0, 72, 62
2, 726720, Note_on_c, 0, 84, 62
2, 726767, Note_on_c, 0, 84, 0
2, 726767, Note_on_c, 0, 72, 0
2, 726960, Note_on_c, 0, 71, 62
2, 726960, Note_on_c, 0, 83, 62
2, 727007, Note_on_c, 0, 83, 0
2, 727007, Note_on_c, 0, 71, 0
2, 727200, Note_on_c, 0, 69, 62
2, 727200, Note_on_c, 0, 81, 62
2, 727247, Note_on_c, 0, 81, 0
2, 727247, Note_on_c, 0, 69, 0
2, 727440, Note_on_c, 0, 68, 62
2, 727440, Note_on_c, 0, 80, 62
2, 727487, Note_on_c, 0, 80, 0
2, 727487, Note_on_c, 0, 68, 0
2, 727680, Note_on_c, 0, 69, 62
2, 727680, Note_on_c, 0, 76, 62
2, 727680, Note_on_c, 0, 81, 62
2, 727920, Note_on_c, 0, 81, 0
2, 727920, Note_on_c, 0, 76, 0
2, 727920, Note_on_c, 0, 69, 0
2, 728040, Note_on_c, 0, 64, 62
2, 728040, Note_on_c, 0, 76, 62
2, 728160, Note_on_c, 0, 76, 0
2, 728160, Note_on_c, 0, 64, 0
2, 728160, Note_on_c, 0, 64, 62
2, 728160, Note_on_c, 0, 76, 62
2, 728640, Note_on_c, 0, 76, 0
2, 728640, Note_on_c, 0, 64, 0
2, 728640, Note_on_c, 0, 66, 62
2, 728760, Note_on_c, 0, 66, 0
2, 728760, Note_on_c, 0, 78, 62
2, 728880, Note_on_c, 0, 78, 0
2, 728880, Note_on_c, 0, 68, 75
2, 729000, Note_on_c, 0, 68, 0
2, 729000, Note_on_c, 0, 80, 75
2, 729120, Note_on_c, 0, 80, 0
2, 729120, Note_on_c, 0, 69, 75
2, 729240, Note_on_c, 0, 69, 0
2, 729240, Note_on_c, 0, 81, 75
2, 729360, Note_on_c, 0, 81, 0
2, 729360, Note_on_c, 0, 67, 75
2, 729480, Note_on_c, 0, 67, 0
2, 729480, Note_on_c, 0, 79, 75
2, 729600, Note_on_c, 0, 79, 0
2, 729600, Note_on_c, 0, 66, 62
2, 729720, Note_on_c, 0, 66, 0
2, 729720, Note_on_c, 0, 78, 62
2, 729840, Note_on_c, 0, 78, 0
2, 729840, Note_on_c, 0, 64, 62
2, 729960, Note_on_c, 0, 64, 0
2, 729960, Note_on_c, 0, 76, 62
2, 730080, Note_on_c, 0, 76, 0
2, 730080, Note_on_c, 0, 62, 62
2, 730200, Note_on_c, 0, 62, 0
2, 730200, Note_on_c, 0, 74, 62
2, 730320, Note_on_c, 0, 74, 0
2, 730320, Note_on_c, 0, 63, 62
2, 730440, Note_on_c, 0, 63, 0
2, 730440, Note_on_c, 0, 75, 62
2, 730560, Note_on_c, 0, 75, 0
2, 730560, Note_on_c, 0, 71, 75
2, 730560, Note_on_c, 0, 76, 75
2, 730680, Note_on_c, 0, 76, 0
2, 730680, Note_on_c, 0, 71, 0
2, 730680, Note_on_c, 0, 83, 75
2, 730800, Note_on_c, 0, 83, 0
2, 730800, Note_on_c, 0, 70, 75
2, 730920, Note_on_c, 0, 70, 0
2, 730920, Note_on_c, 0, 82, 75
2, 731040, Note_on_c, 0, 82, 0
2, 731040, Note_on_c, 0, 69, 75
2, 731160, Note_on_c, 0, 69, 0
2, 731160, Note_on_c, 0, 81, 75
2, 731280, Note_on_c, 0, 81, 0
2, 731280, Note_on_c, 0, 67, 75
2, 731400, Note_on_c, 0, 67, 0
2, 731400, Note_on_c, 0, 79, 75
2, 731520, Note_on_c, 0, 79, 0
2, 731520, Note_on_c, 0, 65, 75
2, 731640, Note_on_c, 0, 65, 0
2, 731640, Note_on_c, 0, 77, 75
2, 731760, Note_on_c, 0, 77, 0
2, 731760, Note_on_c, 0, 66, 75
2, 731880, Note_on_c, 0, 66, 0
2, 731880, Note_on_c, 0, 78, 75
2, 732000, Note_on_c, 0, 78, 0
2, 732000, Note_on_c, 0, 78, 75
2, 732120, Note_on_c, 0, 78, 0
2, 732120, Note_on_c, 0, 84, 75
2, 732240, Note_on_c, 0, 84, 0
2, 732240, Note_on_c, 0, 71, 75
2, 732360, Note_on_c, 0, 71, 0
2, 732360, Note_on_c, 0, 83, 75
2, 732480, Note_on_c, 0, 83, 0
2, 732480, Note_on_c, 0, 70, 75
2, 732600, Note_on_c, 0, 70, 0
2, 732600, Note_on_c, 0, 82, 75
2, 732720, Note_on_c, 0, 82, 0
2, 732720, Note_on_c, 0, 69, 75
2, 732840, Note_on_c, 0, 69, 0
2, 732840, Note_on_c, 0, 81, 75
2, 732960, Note_on_c, 0, 81, 0
2, 732960, Note_on_c, 0, 66, 75
2, 733080, Note_on_c, 0, 66, 0
2, 733080, Note_on_c, 0, 78, 75
2, 733200, Note_on_c, 0, 78, 0
2, 733200, Note_on_c, 0, 67, 75
2, 733320, Note_on_c, 0, 67, 0
2, 733320, Note_on_c, 0, 79, 75
2, 733440, Note_on_c, 0, 79, 0
2, 733440, Note_on_c, 0, 76, 75
2, 733440, Note_on_c, 0, 81, 75
2, 733560, Note_on_c, 0, 81, 0
2, 733560, Note_on_c, 0, 76, 0
2, 733560, Note_on_c, 0, 88, 75
2, 733680, Note_on_c, 0, 88, 0
2, 733680, Note_on_c, 0, 75, 75
2, 733800, Note_on_c, 0, 75, 0
2, 733800, Note_on_c, 0, 87, 75
2, 733920, Note_on_c, 0, 87, 0
2, 733920, Note_on_c, 0, 74, 75
2, 734040, Note_on_c, 0, 74, 0
2, 734040, Note_on_c, 0, 86, 75
2, 734160, Note_on_c, 0, 86, 0
2, 734160, Note_on_c, 0, 72, 75
2, 734280, Note_on_c, 0, 72, 0
2, 734280, Note_on_c, 0, 84, 75
2, 734400, Note_on_c, 0, 84, 0
2, 734400, Note_on_c, 0, 70, 75
2, 734520, Note_on_c, 0, 70, 0
2, 734520, Note_on_c, 0, 82, 75
2, 734640, Note_on_c, 0, 82, 0
2, 734640, Note_on_c, 0, 71, 75
2, 734760, Note_on_c, 0, 71, 0
2, 734760, Note_on_c, 0, 83, 75
2, 734880, Note_on_c, 0, 83, 0
2, 734880, Note_on_c, 0, 79, 75
2, 734880, Note_on_c, 0, 84, 75
2, 735000, Note_on_c, 0, 84, 0
2, 735000, Note_on_c, 0, 79, 0
2, 735000, Note_on_c, 0, 91, 75
2, 735120, Note_on_c, 0, 91, 0
2, 735120, Note_on_c, 0, 78, 75
2, 735240, Note_on_c, 0, 78, 0
2, 735240, Note_on_c, 0, 90, 75
2, 735360, Note_on_c, 0, 90, 0
2, 735360, Note_on_c, 0, 76, 75
2, 735480, Note_on_c, 0, 88, 75
2, 735840, Note_on_c, 0, 88, 0
2, 735840, Note_on_c, 0, 76, 0
2, 735840, Note_on_c, 0, 75, 75
2, 735960, Note_on_c, 0, 75, 0
2, 735960, Note_on_c, 0, 87, 75
2, 736080, Note_on_c, 0, 87, 0
2, 736080, Note_on_c, 0, 76, 75
2, 736200, Note_on_c, 0, 76, 0
2, 736200, Note_on_c, 0, 88, 75
2, 736320, Note_on_c, 0, 88, 0
2, 736320, Note_on_c, 0, 79, 75
2, 736320, Note_on_c, 0, 84, 75
2, 736440, Note_on_c, 0, 84, 0
2, 736440, Note_on_c, 0, 79, 0
2, 736440, Note_on_c, 0, 91, 75
2, 736560, Note_on_c, 0, 91, 0
2, 736560, Note_on_c, 0, 78, 75
2, 736680, Note_on_c, 0, 78, 0
2, 736680, Note_on_c, 0, 90, 75
2, 736800, Note_on_c, 0, 90, 0
2, 736800, Note_on_c, 0, 76, 75
2, 736920, Note_on_c, 0, 88, 75
2, 737280, Note_on_c, 0, 88, 0
2, 737280, Note_on_c, 0, 76, 0
2, 737280, Note_on_c, 0, 75, 75
2, 737400, Note_on_c, 0, 75, 0
2, 737400, Note_on_c, 0, 87, 75
2, 737520, Note_on_c, 0, 87, 0
2, 737520, Note_on_c, 0, 76, 75
2, 737640, Note_on_c, 0, 88, 75
2, 738000, Note_on_c, 0, 88, 0
2, 738000, Note_on_c, 0, 76, 0
2, 738000, Note_on_c, 0, 75, 88
2, 738120, Note_on_c, 0, 75, 0
2, 738120, Note_on_c, 0, 87, 88
2, 738240, Note_on_c, 0, 87, 0
2, 738240, Note_on_c, 0, 76, 88
2, 738360, Note_on_c, 0, 88, 88
2, 738720, Note_on_c, 0, 88, 0
2, 738720, Note_on_c, 0, 76, 0
2, 738720, Note_on_c, 0, 75, 88
2, 738840, Note_on_c, 0, 75, 0
2, 738840, Note_on_c, 0, 87, 88
2, 738960, Note_on_c, 0, 87, 0
2, 738960, Note_on_c, 0, 76, 88
2, 739080, Note_on_c, 0, 88, 88
2, 739440, Note_on_c, 0, 88, 0
2, 739440, Note_on_c, 0, 76, 0
2, 739440, Note_on_c, 0, 75, 88
2, 739560, Note_on_c, 0, 75, 0
2, 739560, Note_on_c, 0, 87, 88
2, 739680, Note_on_c, 0, 87, 0
2, 739680, Note_on_c, 0, 76, 88
2, 739800, Note_on_c, 0, 88, 88
2, 740160, Note_on_c, 0, 88, 0
2, 740160, Note_on_c, 0, 76, 0
2, 740160, Note_on_c, 0, 75, 88
2, 740280, Note_on_c, 0, 75, 0
2, 740280, Note_on_c, 0, 87, 88
2, 740400, Note_on_c, 0, 87, 0
2, 740400, Note_on_c, 0, 76, 88
2, 740520, Note_on_c, 0, 88, 88
2, 740880, Note_on_c, 0, 88, 0
2, 740880, Note_on_c, 0, 76, 0
2, 740880, Note_on_c, 0, 75, 101
2, 741000, Note_on_c, 0, 75, 0
2, 741000, Note_on_c, 0, 87, 101
2, 741120, Note_on_c, 0, 87, 0
2, 741120, Note_on_c, 0, 76, 101
2, 741240, Note_on_c, 0, 88, 101
2, 741600, Note_on_c, 0, 88, 0
2, 741600, Note_on_c, 0, 76, 0
2, 741600, Note_on_c, 0, 75, 101
2, 741720, Note_on_c, 0, 75, 0
2, 741720, Note_on_c, 0, 87, 101
2, 741840, Note_on_c, 0, 87, 0
2, 741840, Note_on_c, 0, 76, 101
2, 741960, Note_on_c, 0, 88, 101
2, 742080, Note_on_c, 0, 88, 0
2, 742080, Note_on_c, 0, 76, 0
2, 742080, Note_on_c, 0, 83, 127
2, 742080, Note_on_c, 0, 88, 127
2, 742080, Note_on_c, 0, 91, 127
2, 742080, Note_on_c, 0, 95, 127
2, 742440, Note_on_c, 0, 95, 0
2, 742440, Note_on_c, 0, 83, 0
2, 742440, Note_on_c, 0, 88, 0
2, 742440, Note_on_c, 0, 91, 0
2, 742440, Note_on_c, 0, 81, 101
2, 742440, Note_on_c, 0, 93, 101
2, 742560, Note_on_c, 0, 93, 0
2, 742560, Note_on_c, 0, 81, 0
2, 742560, Note_on_c, 0, 79, 101
2, 742560, Note_on_c, 0, 91, 101
2, 743040, Note_on_c, 0, 91, 0
2, 743040, Note_on_c, 0, 79, 0
2, 743040, Note_on_c, 0, 78, 101
2, 743040, Note_on_c, 0, 83, 101
2, 743040, Note_on_c, 0, 90, 101
2, 743280, Note_on_c, 0, 90, 0
2, 743280, Note_on_c, 0, 83, 0
2, 743280, Note_on_c, 0, 78, 0
2, 743280, Note_on_c, 0, 76, 101
2, 743280, Note_on_c, 0, 83, 101
2, 743280, Note_on_c, 0, 88, 101
2, 743760, Note_on_c, 0, 88, 0
2, 743760, Note_on_c, 0, 83, 0
2, 743760, Note_on_c, 0, 76, 0
2, 743760, Note_on_c, 0, 74, 101
2, 743760, Note_on_c, 0, 79, 101
2, 743760, Note_on_c, 0, 86, 101
2, 744000, Note_on_c, 0, 86, 0
2, 744000, Note_on_c, 0, 79, 0
2, 744000, Note_on_c, 0, 74, 0
2, 744000, Note_on_c, 0, 72, 101
2, 744000, Note_on_c, 0, 79, 101
2, 744000, Note_on_c, 0, 84, 101
2, 744240, Note_on_c, 0, 84, 0
2, 744240, Note_on_c, 0, 79, 0
2, 744240, Note_on_c, 0, 72, 0
2, 744240, Note_on_c, 0, 71, 101
2, 744240, Note_on_c, 0, 76, 101
2, 744240, Note_on_c, 0, 83, 101
2, 744480, Note_on_c, 0, 83, 0
2, 744480, Note_on_c, 0, 76, 0
2, 744480, Note_on_c, 0, 71, 0
2, 744480, Note_on_c, 0, 69, 101
2, 744480, Note_on_c, 0, 76, 101
2, 744480, Note_on_c, 0, 81, 101
2, 744720, Note_on_c, 0, 81, 0
2, 744720, Note_on_c, 0, 76, 0
2, 744720, Note_on_c, 0, 69, 0
2, 744720, Note_on_c, 0, 67, 101
2, 744720, Note_on_c, 0, 76, 101
2, 744720, Note_on_c, 0, 79, 101
2, 744960, Note_on_c, 0, 79, 0
2, 744960, Note_on_c, 0, 76, 0
2, 744960, Note_on_c, 0, 67, 0
2, 744960, Note_on_c, 0, 76, 101
2, 744960, Note_on_c, 0, 78, 101
2, 744960, Note_on_c, 0, 81, 101
2, 744960, Note_on_c, 0, 88, 101
2, 745320, Note_on_c, 0, 88, 0
2, 745320, Note_on_c, 0, 76, 0
2, 745320, Note_on_c, 0, 78, 0
2, 745320, Note_on_c, 0, 81, 0
2, 745320, Note_on_c, 0, 74, 101
2, 745320, Note_on_c, 0, 86, 101
2, 745440, Note_on_c, 0, 86, 0
2, 745440, Note_on_c, 0, 74, 0
2, 745440, Note_on_c, 0, 72, 101
2, 745440, Note_on_c, 0, 84, 101
2, 745920, Note_on_c, 0, 84, 0
2, 745920, Note_on_c, 0, 72, 0
2, 745920, Note_on_c, 0, 71, 101
2, 745920, Note_on_c, 0, 76, 101
2, 745920, Note_on_c, 0, 78, 101
2, 745920, Note_on_c, 0, 83, 101
2, 746160, Note_on_c, 0, 83, 0
2, 746160, Note_on_c, 0, 71, 0
2, 746160, Note_on_c, 0, 76, 0
2, 746160, Note_on_c, 0, 78, 0
2, 746160, Note_on_c, 0, 69, 101
2, 746160, Note_on_c, 0, 76, 101
2, 746160, Note_on_c, 0, 78, 101
2, 746160, Note_on_c, 0, 81, 101
2, 746640, Note_on_c, 0, 81, 0
2, 746640, Note_on_c, 0, 69, 0
2, 746640, Note_on_c, 0, 76, 0
2, 746640, Note_on_c, 0, 78, 0
2, 746640, Note_on_c, 0, 67, 101
2, 746640, Note_on_c, 0, 71, 101
2, 746640, Note_on_c, 0, 75, 101
2, 746640, Note_on_c, 0, 79, 101
2, 746880, Note_on_c, 0, 79, 0
2, 746880, Note_on_c, 0, 67, 0
2, 746880, Note_on_c, 0, 71, 0
2, 746880, Note_on_c, 0, 75, 0
2, 746880, Note_on_c, 0, 66, 101
2, 746880, Note_on_c, 0, 71, 101
2, 746880, Note_on_c, 0, 75, 101
2, 746880, Note_on_c, 0, 78, 101
2, 747360, Note_on_c, 0, 78, 0
2, 747360, Note_on_c, 0, 66, 0
2, 747360, Note_on_c, 0, 71, 0
2, 747360, Note_on_c, 0, 75, 0
2, 747360, Note_on_c, 0, 64, 101
2, 747360, Note_on_c, 0, 69, 101
2, 747360, Note_on_c, 0, 71, 101
2, 747360, Note_on_c, 0, 76, 101
2, 747600, Note_on_c, 0, 76, 0
2, 747600, Note_on_c, 0, 64, 0
2, 747600, Note_on_c, 0, 69, 0
2, 747600, Note_on_c, 0, 71, 0
2, 747600, Note_on_c, 0, 63, 101
2, 747600, Note_on_c, 0, 69, 101
2, 747600, Note_on_c, 0, 71, 101
2, 747600, Note_on_c, 0, 75, 101
2, 747840, Note_on_c, 0, 75, 0
2, 747840, Note_on_c, 0, 63, 0
2, 747840, Note_on_c, 0, 69, 0
2, 747840, Note_on_c, 0, 71, 0
2, 747840, Note_on_c, 0, 64, 101
2, 747840, Note_on_c, 0, 67, 101
2, 747840, Note_on_c, 0, 71, 101
2, 747840, Note_on_c, 0, 76, 101
2, 748080, Note_on_c, 0, 76, 0
2, 748080, Note_on_c, 0, 64, 0
2, 748080, Note_on_c, 0, 67, 0
2, 748080, Note_on_c, 0, 71, 0
2, 748200, Note_on_c, 0, 64, 101
2, 748200, Note_on_c, 0, 76, 101
2, 748320, Note_on_c, 0, 76, 0
2, 748320, Note_on_c, 0, 64, 0
2, 748320, Note_on_c, 0, 64, 101
2, 748320, Note_on_c, 0, 76, 101
2, 748800, Note_on_c, 0, 76, 0
2, 748800, Note_on_c, 0, 64, 0
2, 748800, Note_on_c, 0, 66, 101
2, 748800, Note_on_c, 0, 78, 101
2, 749040, Note_on_c, 0, 78, 0
2, 749040, Note_on_c, 0, 66, 0
2, 749040, Note_on_c, 0, 67, 101
2, 749040, Note_on_c, 0, 79, 101
2, 749280, Note_on_c, 0, 79, 0
2, 749280, Note_on_c, 0, 67, 0
2, 749280, Note_on_c, 0, 69, 101
2, 749280, Note_on_c, 0, 81, 101
2, 749520, Note_on_c, 0, 81, 0
2, 749520, Note_on_c, 0, 69, 0
2, 749520, Note_on_c, 0, 67, 101
2, 749520, Note_on_c, 0, 79, 101
2, 749760, Note_on_c, 0, 79, 0
2, 749760, Note_on_c, 0, 67, 0
2, 749760, Note_on_c, 0, 66, 101
2, 749760, Note_on_c, 0, 78, 101
2, 750240, Note_on_c, 0, 78, 0
2, 750240, Note_on_c, 0, 66, 0
2, 750240, Note_on_c, 0, 64, 101
2, 750240, Note_on_c, 0, 76, 101
2, 750480, Note_on_c, 0, 76, 0
2, 750480, Note_on_c, 0, 64, 0
2, 750480, Note_on_c, 0, 63, 101
2, 750480, Note_on_c, 0, 75, 101
2, 750720, Note_on_c, 0, 75, 0
2, 750720, Note_on_c, 0, 63, 0
2, 750720, Note_on_c, 0, 64, 101
2, 750720, Note_on_c, 0, 67, 101
2, 750720, Note_on_c, 0, 71, 101
2, 750720, Note_on_c, 0, 76, 101
2, 750960, Note_on_c, 0, 76, 0
2, 750960, Note_on_c, 0, 64, 0
2, 750960, Note_on_c, 0, 67, 0
2, 750960, Note_on_c, 0, 71, 0
2, 751080, Note_on_c, 0, 64, 101
2, 751080, Note_on_c, 0, 76, 101
2, 751200, Note_on_c, 0, 76, 0
2, 751200, Note_on_c, 0, 64, 0
2, 751200, Note_on_c, 0, 64, 101
2, 751200, Note_on_c, 0, 76, 101
2, 751680, Note_on_c, 0, 76, 0
2, 751680, Note_on_c, 0, 64, 0
2, 751680, Note_on_c, 0, 66, 101
2, 751680, Note_on_c, 0, 78, 101
2, 751920, Note_on_c, 0, 78, 0
2, 751920, Note_on_c, 0, 66, 0
2, 751920, Note_on_c, 0, 67, 101
2, 751920, Note_on_c, 0, 79, 101
2, 752160, Note_on_c, 0, 79, 0
2, 752160, Note_on_c, 0, 67, 0
2, 752160, Note_on_c, 0, 69, 101
2, 752160, Note_on_c, 0, 81, 101
2, 752400, Note_on_c, 0, 81, 0
2, 752400, Note_on_c, 0, 69, 0
2, 752400, Note_on_c, 0, 67, 101
2, 752400, Note_on_c, 0, 79, 101
2, 752640, Note_on_c, 0, 79, 0
2, 752640, Note_on_c, 0, 67, 0
2, 752640, Note_on_c, 0, 66, 101
2, 752640, Note_on_c, 0, 78, 101
2, 753120, Note_on_c, 0, 78, 0
2, 753120, Note_on_c, 0, 66, 0
2, 753120, Note_on_c, 0, 64, 101
2, 753120, Note_on_c, 0, 76, 101
2, 753360, Note_on_c, 0, 76, 0
2, 753360, Note_on_c, 0, 64, 0
2, 753360, Note_on_c, 0, 63, 101
2, 753360, Note_on_c, 0, 75, 101
2, 753600, Note_on_c, 0, 75, 0
2, 753600, Note_on_c, 0, 63, 0
2, 753600, Note_on_c, 0, 64, 101
2, 753600, Note_on_c, 0, 67, 101
2, 753600, Note_on_c, 0, 71, 101
2, 753600, Note_on_c, 0, 76, 101
2, 753840, Note_on_c, 0, 76, 0
2, 753840, Note_on_c, 0, 64, 0
2, 753840, Note_on_c, 0, 67, 0
2, 753840, Note_on_c, 0, 71, 0
2, 753960, Note_on_c, 0, 64, 88
2, 753960, Note_on_c, 0, 76, 88
2, 754080, Note_on_c, 0, 76, 0
2, 754080, Note_on_c, 0, 64, 0
2, 754080, Note_on_c, 0, 64, 88
2, 754080, Note_on_c, 0, 76, 88
2, 754560, Note_on_c, 0, 76, 0
2, 754560, Note_on_c, 0, 64, 0
2, 754680, Note_on_c, 0, 64, 88
2, 754680, Note_on_c, 0, 76, 88
2, 754800, Note_on_c, 0, 76, 0
2, 754800, Note_on_c, 0, 64, 0
2, 754800, Note_on_c, 0, 64, 88
2, 754800, Note_on_c, 0, 76, 88
2, 755280, Note_on_c, 0, 76, 0
2, 755280, Note_on_c, 0, 64, 0
2, 755400, Note_on_c, 0, 64, 88
2, 755400, Note_on_c, 0, 76, 88
2, 755520, Note_on_c, 0, 76, 0
2, 755520, Note_on_c, 0, 64, 0
2, 755520, Note_on_c, 0, 64, 88
2, 755520, Note_on_c, 0, 76, 88
2, 756000, Note_on_c, 0, 76, 0
2, 756000, Note_on_c, 0, 64, 0
2, 756000, Note_on_c, 0, 64, 88
2, 756000, Note_on_c, 0, 76, 88
2, 756240, Note_on_c, 0, 76, 0
2, 756240, Note_on_c, 0, 64, 0
2, 756240, Note_on_c, 0, 63, 88
2, 756240, Note_on_c, 0, 75, 88
2, 756480, Note_on_c, 0, 75, 0
2, 756480, Note_on_c, 0, 63, 0
2, 756480, Note_on_c, 0, 64, 88
2, 756480, Note_on_c, 0, 67, 88
2, 756480, Note_on_c, 0, 71, 88
2, 756480, Note_on_c, 0, 76, 88
2, 756720, Note_on_c, 0, 76, 0
2, 756720, Note_on_c, 0, 64, 0
2, 756720, Note_on_c, 0, 67, 0
2, 756720, Note_on_c, 0, 71, 0
2, 756840, Note_on_c, 0, 64, 88
2, 756840, Note_on_c, 0, 76, 88
2, 756960, Note_on_c, 0, 76, 0
2, 756960, Note_on_c, 0, 64, 0
2, 756960, Note_on_c, 0, 64, 88
2, 756960, Note_on_c, 0, 76, 88
2, 757440, Note_on_c, 0, 76, 0
2, 757440, Note_on_c, 0, 64, 0
2, 757560, Note_on_c, 0, 64, 88
2, 757560, Note_on_c, 0, 76, 88
2, 757680, Note_on_c, 0, 76, 0
2, 757680, Note_on_c, 0, 64, 0
2, 757680, Note_on_c, 0, 64, 88
2, 757680, Note_on_c, 0, 76, 88
2, 758160, Note_on_c, 0, 76, 0
2, 758160, Note_on_c, 0, 64, 0
2, 758280, Note_on_c, 0, 64, 88
2, 758280, Note_on_c, 0, 76, 88
2, 758400, Note_on_c, 0, 76, 0
2, 758400, Note_on_c, 0, 64, 0
2, 758400, Note_on_c, 0, 64, 88
2, 758400, Note_on_c, 0, 76, 88
2, 758880, Note_on_c, 0, 76, 0
2, 758880, Note_on_c, 0, 64, 0
2, 758880, Note_on_c, 0, 64, 88
2, 758880, Note_on_c, 0, 76, 88
2, 759120, Note_on_c, 0, 76, 0
2, 759120, Note_on_c, 0, 64, 0
2, 759120, Note_on_c, 0, 63, 88
2, 759120, Note_on_c, 0, 75, 88
2, 759360, Note_on_c, 0, 75, 0
2, 759360, Note_on_c, 0, 63, 0
2, 759360, Note_on_c, 0, 64, 88
2, 759360, Note_on_c, 0, 67, 88
2, 759360, Note_on_c, 0, 71, 88
2, 759360, Note_on_c, 0, 76, 88
2, 759600, Note_on_c, 0, 76, 0
2, 759600, Note_on_c, 0, 64, 0
2, 759600, Note_on_c, 0, 67, 0
2, 759600, Note_on_c, 0, 71, 0
2, 759720, Note_on_c, 0, 52, 75
2, 759720, Note_on_c, 0, 64, 75
2, 759840, Note_on_c, 0, 64, 0
2, 759840, Note_on_c, 0, 52, 0
2, 759840, Note_on_c, 0, 52, 75
2, 759840, Note_on_c, 0, 64, 75
2, 760320, Note_on_c, 0, 64, 0
2, 760320, Note_on_c, 0, 52, 0
2, 760320, Note_on_c, 0, 54, 75
2, 760320, Note_on_c, 0, 66, 75
2, 760367, Note_on_c, 0, 66, 0
2, 760367, Note_on_c, 0, 54, 0
2, 760560, Note_on_c, 0, 55, 75
2, 760560, Note_on_c, 0, 67, 75
2, 760607, Note_on_c, 0, 67, 0
2, 760607, Note_on_c, 0, 55, 0
2, 760800, Note_on_c, 0, 57, 75
2, 760800, Note_on_c, 0, 69, 75
2, 761040, Note_on_c, 0, 69, 0
2, 761040, Note_on_c, 0, 57, 0
2, 761040, Note_on_c, 0, 55, 75
2, 761040, Note_on_c, 0, 67, 75
2, 761280, Note_on_c, 0, 67, 0
2, 761280, Note_on_c, 0, 55, 0
2, 761280, Note_on_c, 0, 54, 75
2, 761280, Note_on_c, 0, 66, 75
2, 761760, Note_on_c, 0, 66, 0
2, 761760, Note_on_c, 0, 54, 0
2, 761760, Note_on_c, 0, 52, 75
2, 761760, Note_on_c, 0, 64, 75
2, 762000, Note_on_c, 0, 64, 0
2, 762000, Note_on_c, 0, 52, 0
2, 762000, Note_on_c, 0, 51, 75
2, 762000, Note_on_c, 0, 63, 75
2, 762240, Note_on_c, 0, 63, 0
2, 762240, Note_on_c, 0, 51, 0
2, 762240, Note_on_c, 0, 52, 75
2, 762240, Note_on_c, 0, 55, 75
2, 762240, Note_on_c, 0, 59, 75
2, 762240, Note_on_c, 0, 64, 75
2, 762480, Note_on_c, 0, 64, 0
2, 762480, Note_on_c, 0, 52, 0
2, 762480, Note_on_c, 0, 55, 0
2, 762480, Note_on_c, 0, 59, 0
2, 762600, Note_on_c, 0, 52, 75
2, 762600, Note_on_c, 0, 64, 75
2, 762720, Note_on_c, 0, 64, 0
2, 762720, Note_on_c, 0, 52, 0
2, 762720, Note_on_c, 0, 52, 75
2, 762720, Note_on_c, 0, 64, 75
2, 763200, Note_on_c, 0, 64, 0
2, 763200, Note_on_c, 0, 52, 0
2, 763200, Note_on_c, 0, 54, 75
2, 763200, Note_on_c, 0, 66, 75
2, 763247, Note_on_c, 0, 66, 0
2, 763247, Note_on_c, 0, 54, 0
2, 763440, Note_on_c, 0, 55, 75
2, 763440, Note_on_c, 0, 67, 75
2, 763487, Note_on_c, 0, 67, 0
2, 763487, Note_on_c, 0, 55, 0
2, 763680, Note_on_c, 0, 57, 75
2, 763680, Note_on_c, 0, 69, 75
2, 763920, Note_on_c, 0, 69, 0
2, 763920, Note_on_c, 0, 57, 0
2, 763920, Note_on_c, 0, 55, 75
2, 763920, Note_on_c, 0, 67, 75
2, 764160, Note_on_c, 0, 67, 0
2, 764160, Note_on_c, 0, 55, 0
2, 764160, Note_on_c, 0, 54, 75
2, 764160, Note_on_c, 0, 66, 75
2, 764640, Note_on_c, 0, 66, 0
2, 764640, Note_on_c, 0, 54, 0
2, 764640, Note_on_c, 0, 52, 75
2, 764640, Note_on_c, 0, 64, 75
2, 764880, Note_on_c, 0, 64, 0
2, 764880, Note_on_c, 0, 52, 0
2, 764880, Note_on_c, 0, 51, 75
2, 764880, Note_on_c, 0, 63, 75
2, 765120, Note_on_c, 0, 63, 0
2, 765120, Note_on_c, 0, 51, 0
2, 765120, Note_on_c, 0, 52, 75
2, 765120, Note_on_c, 0, 55, 75
2, 765120, Note_on_c, 0, 59, 75
2, 765120, Note_on_c, 0, 64, 75
2, 765360, Note_on_c, 0, 64, 0
2, 765360, Note_on_c, 0, 52, 0
2, 765360, Note_on_c, 0, 55, 0
2, 765360, Note_on_c, 0, 59, 0
2, 765480, Note_on_c, 0, 52, 62
2, 765480, Note_on_c, 0, 64, 62
2, 765600, Note_on_c, 0, 64, 0
2, 765600, Note_on_c, 0, 52, 0
2, 765600, Note_on_c, 0, 52, 62
2, 765600, Note_on_c, 0, 64, 62
2, 766080, Note_on_c, 0, 64, 0
2, 766080, Note_on_c, 0, 52, 0
2, 766200, Note_on_c, 0, 52, 62
2, 766200, Note_on_c, 0, 64, 62
2, 766320, Note_on_c, 0, 64, 0
2, 766320, Note_on_c, 0, 52, 0
2, 766320, Note_on_c, 0, 52, 62
2, 766320, Note_on_c, 0, 64, 62
2, 766800, Note_on_c, 0, 64, 0
2, 766800, Note_on_c, 0, 52, 0
2, 766920, Note_on_c, 0, 52, 62
2, 766920, Note_on_c, 0, 64, 62
2, 767040, Note_on_c, 0, 64, 0
2, 767040, Note_on_c, 0, 52, 0
2, 767040, Note_on_c, 0, 52, 62
2, 767040, Note_on_c, 0, 64, 62
2, 767520, Note_on_c, 0, 64, 0
2, 767520, Note_on_c, 0, 52, 0
2, 767520, Note_on_c, 0, 52, 62
2, 767520, Note_on_c, 0, 64, 62
2, 767760, Note_on_c, 0, 64, 0
2, 767760, Note_on_c, 0, 52, 0
2, 767760, Note_on_c, 0, 51, 62
2, 767760, Note_on_c, 0, 63, 62
2, 768000, Note_on_c, 0, 63, 0
2, 768000, Note_on_c, 0, 51, 0
2, 768000, Note_on_c, 0, 52, 62
2, 768000, Note_on_c, 0, 55, 62
2, 768000, Note_on_c, 0, 59, 62
2, 768000, Note_on_c, 0, 64, 62
2, 768240, Note_on_c, 0, 64, 0
2, 768240, Note_on_c, 0, 52, 0
2, 768240, Note_on_c, 0, 55, 0
2, 768240, Note_on_c, 0, 59, 0
2, 768360, Note_on_c, 0, 52, 62
2, 768360, Note_on_c, 0, 64, 62
2, 768480, Note_on_c, 0, 64, 0
2, 768480, Note_on_c, 0, 52, 0
2, 768480, Note_on_c, 0, 52, 62
2, 768480, Note_on_c, 0, 64, 62
2, 768960, Note_on_c, 0, 64, 0
2, 768960, Note_on_c, 0, 52, 0
2, 769080, Note_on_c, 0, 52, 62
2, 769080, Note_on_c, 0, 64, 62
2, 769200, Note_on_c, 0, 64, 0
2, 769200, Note_on_c, 0, 52, 0
2, 769200, Note_on_c, 0, 52, 62
2, 769200, Note_on_c, 0, 64, 62
2, 769680, Note_on_c, 0, 64, 0
2, 769680, Note_on_c, 0, 52, 0
2, 769800, Note_on_c, 0, 52, 62
2, 769800, Note_on_c, 0, 64, 62
2, 769920, Note_on_c, 0, 64, 0
2, 769920, Note_on_c, 0, 52, 0
2, 769920, Note_on_c, 0, 52, 62
2, 769920, Note_on_c, 0, 64, 62
2, 770400, Note_on_c, 0, 64, 0
2, 770400, Note_on_c, 0, 52, 0
2, 770400, Note_on_c, 0, 52, 62
2, 770400, Note_on_c, 0, 64, 62
2, 770640, Note_on_c, 0, 64, 0
2, 770640, Note_on_c, 0, 52, 0
2, 770640, Note_on_c, 0, 51, 62
2, 770640, Note_on_c, 0, 63, 62
2, 770880, Note_on_c, 0, 63, 0
2, 770880, Note_on_c, 0, 51, 0
2, 770880, Note_on_c, 0, 52, 62
2, 770880, Note_on_c, 0, 55, 62
2, 770880, Note_on_c, 0, 59, 62
2, 770880, Note_on_c, 0, 64, 62
2, 771120, Note_on_c, 0, 64, 0
2, 771120, Note_on_c, 0, 52, 0
2, 771120, Note_on_c, 0, 55, 0
2, 771120, Note_on_c, 0, 59, 0
2, 771240, Note_on_c, 0, 52, 62
2, 771360, Note_on_c, 0, 52, 0
2, 771360, Note_on_c, 0, 52, 62
2, 771840, Note_on_c, 0, 52, 0
2, 771840, Note_on_c, 0, 54, 62
2, 771887, Note_on_c, 0, 54, 0
2, 772080, Note_on_c, 0, 55, 62
2, 772127, Note_on_c, 0, 55, 0
2, 772320, Note_on_c, 0, 57, 62
2, 772560, Note_on_c, 0, 57, 0
2, 772560, Note_on_c, 0, 55, 62
2, 772800, Note_on_c, 0, 55, 0
2, 772800, Note_on_c, 0, 54, 62
2, 773760, Note_on_c, 0, 54, 0
2, 773760, Note_on_c, 0, 52, 62
2, 774000, Note_on_c, 0, 52, 0
2, 774120, Note_on_c, 0, 52, 62
2, 774240, Note_on_c, 0, 52, 0
2, 774240, Note_on_c, 0, 52, 62
2, 774720, Note_on_c, 0, 52, 0
2, 774720, Note_on_c, 0, 54, 62
2, 774767, Note_on_c, 0, 54, 0
2, 774960, Note_on_c, 0, 55, 62
2, 775007, Note_on_c, 0, 55, 0
2, 775200, Note_on_c, 0, 57, 62
2, 775440, Note_on_c, 0, 57, 0
2, 775440, Note_on_c, 0, 55, 62
2, 775680, Note_on_c, 0, 55, 0
2, 775680, Note_on_c, 0, 54, 62
2, 776640, Note_on_c, 0, 54, 0
2, 776640, Note_on_c, 0, 52, 62
2, 776880, Note_on_c, 0, 52, 0
2, 777000, Note_on_c, 0, 40, 62
2, 777120, Note_on_c, 0, 40, 0
2, 777120, Note_on_c, 0, 40, 62
2, 777600, Note_on_c, 0, 40, 0
2, 777600, Note_on_c, 0, 42, 75
2, 777647, Note_on_c, 0, 42, 0
2, 777840, Note_on_c, 0, 43, 75
2, 777887, Note_on_c, 0, 43, 0
2, 778080, Note_on_c, 0, 45, 75
2, 779520, Note_on_c, 0, 45, 0
2, 779520, Note_on_c, 0, 40, 62
2, 779520, Note_on_c, 0, 43, 62
2, 779760, Note_on_c, 0, 43, 0
2, 779760, Note_on_c, 0, 40, 0
2, 779880, Note_on_c, 0, 40, 62
2, 780000, Note_on_c, 0, 40, 0
2, 780000, Note_on_c, 0, 40, 62
2, 780480, Note_on_c, 0, 40, 0
2, 780480, Note_on_c, 0, 42, 75
2, 780527, Note_on_c, 0, 42, 0
2, 780720, Note_on_c, 0, 43, 75
2, 780767, Note_on_c, 0, 43, 0
2, 780960, Note_on_c, 0, 45, 75
2, 782400, Note_on_c, 0, 45, 0
2, 782400, Note_on_c, 0, 43, 49
2, 785280, Note_on_c, 0, 43, 0
2, 785280, Note_on_c, 0, 43, 49
2, 788160, Note_on_c, 0, 43, 0
2, 788160, Note_on_c, 0, 40, 49
2, 788160, Note_on_c, 0, 43, 49
2, 791040, Note_on_c, 0, 43, 0
2, 791040, Note_on_c, 0, 40, 0
2, 791040, Note_on_c, 0, 35, 49
2, 791040, Note_on_c, 0, 40, 49
2, 792480, Note_on_c, 0, 40, 0
2, 792480, Note_on_c, 0, 40, 49
2, 793920, Note_on_c, 0, 40, 0
2, 793920, Note_on_c, 0, 35, 0
2, 793920, Control_c, 0, 64, 127
2, 793920, Note_on_c, 0, 40, 49
2, 794000, Note_on_c, 0, 40, 0
2, 794000, Note_on_c, 0, 35, 49
2, 794079, Note_on_c, 0, 35, 0
2, 794079, Note_on_c, 0, 40, 49
2, 794160, Note_on_c, 0, 40, 0
2, 794160, Note_on_c, 0, 35, 49
2, 794240, Note_on_c, 0, 35, 0
2, 794240, Note_on_c, 0, 40, 49
2, 794319, Note_on_c, 0, 40, 0
2, 794319, Note_on_c, 0, 35, 49
2, 794400, Note_on_c, 0, 35, 0
2, 794400, Note_on_c, 0, 40, 49
2, 794480, Note_on_c, 0, 40, 0
2, 794480, Note_on_c, 0, 35, 49
2, 794559, Note_on_c, 0, 35, 0
2, 794559, Note_on_c, 0, 40, 49
2, 794640, Note_on_c, 0, 40, 0
2, 794640, Note_on_c, 0, 35, 49
2, 794720, Note_on_c, 0, 35, 0
2, 794720, Note_on_c, 0, 40, 49
2, 794799, Note_on_c, 0, 40, 0
2, 794799, Note_on_c, 0, 35, 49
2, 794880, Note_on_c, 0, 35, 0
2, 794880, Note_on_c, 0, 40, 62
2, 794960, Note_on_c, 0, 40, 0
2, 794960, Note_on_c, 0, 35, 62
2, 795039, Note_on_c, 0, 35, 0
2, 795039, Note_on_c, 0, 40, 62
2, 795120, Note_on_c, 0, 40, 0
2, 795120, Note_on_c, 0, 35, 62
2, 795200, Note_on_c, 0, 35, 0
2, 795200, Note_on_c, 0, 40, 62
2, 795279, Note_on_c, 0, 40, 0
2, 795279, Note_on_c, 0, 35, 62
2, 795360, Note_on_c, 0, 35, 0
2, 795360, Note_on_c, 0, 40, 62
2, 795440, Note_on_c, 0, 40, 0
2, 795440, Note_on_c, 0, 35, 62
2, 795519, Note_on_c, 0, 35, 0
2, 795519, Note_on_c, 0, 40, 62
2, 795600, Note_on_c, 0, 40, 0
2, 795600, Note_on_c, 0, 35, 62
2, 795680, Note_on_c, 0, 35, 0
2, 795680, Note_on_c, 0, 40, 75
2, 795759, Note_on_c, 0, 40, 0
2, 795759, Note_on_c, 0, 35, 75
2, 795840, Note_on_c, 0, 35, 0
2, 795840, Note_on_c, 0, 40, 75
2, 795920, Note_on_c, 0, 40, 0
2, 795920, Note_on_c, 0, 35, 75
2, 795999, Note_on_c, 0, 35, 0
2, 795999, Note_on_c, 0, 40, 75
2, 796080, Note_on_c, 0, 40, 0
2, 796080, Note_on_c, 0, 35, 75
2, 796160, Note_on_c, 0, 35, 0
2, 796160, Note_on_c, 0, 40, 75
2, 796239, Note_on_c, 0, 40, 0
2, 796239, Note_on_c, 0, 35, 75
2, 796320, Note_on_c, 0, 35, 0
2, 796320, Note_on_c, 0, 40, 62
2, 796400, Note_on_c, 0, 40, 0
2, 796400, Note_on_c, 0, 35, 62
2, 796479, Note_on_c, 0, 35, 0
2, 796479, Note_on_c, 0, 40, 62
2, 796560, Note_on_c, 0, 40, 0
2, 796560, Note_on_c, 0, 35, 62
2, 796640, Note_on_c, 0, 35, 0
2, 796640, Note_on_c, 0, 40, 62
2, 796719, Note_on_c, 0, 40, 0
2, 796719, Note_on_c, 0, 35, 62
2, 796800, Note_on_c, 0, 35, 0
2, 796800, Note_on_c, 0, 40, 62
2, 796880, Note_on_c, 0, 40, 0
2, 796880, Note_on_c, 0, 35, 62
2, 796959, Note_on_c, 0, 35, 0
2, 796959, Note_on_c, 0, 40, 62
2, 797040, Note_on_c, 0, 40, 0
2, 797040, Note_on_c, 0, 35, 49
2, 797120, Note_on_c, 0, 35, 0
2, 797120, Note_on_c, 0, 40, 49
2, 797199, Note_on_c, 0, 40, 0
2, 797199, Note_on_c, 0, 35, 49
2, 797280, Note_on_c, 0, 35, 0
2, 797280, Note_on_c, 0, 40, 49
2, 797360, Note_on_c, 0, 40, 0
2, 797360, Note_on_c, 0, 35, 49
2, 797439, Note_on_c, 0, 35, 0
2, 797439, Note_on_c, 0, 40, 49
2, 797520, Note_on_c, 0, 40, 0
2, 797520, Note_on_c, 0, 35, 49
2, 797600, Note_on_c, 0, 35, 0
2, 797600, Note_on_c, 0, 40, 49
2, 797679, Note_on_c, 0, 40, 0
2, 797679, Note_on_c, 0, 35, 49
2, 797760, Note_on_c, 0, 35, 0
2, 797760, Note_on_c, 0, 40, 49
2, 797840, Note_on_c, 0, 40, 0
2, 797840, Note_on_c, 0, 35, 49
2, 797919, Note_on_c, 0, 35, 0
2, 797919, Note_on_c, 0, 40, 49
2, 798000, Note_on_c, 0, 40, 0
2, 798000, Note_on_c, 0, 35, 49
2, 798080, Note_on_c, 0, 35, 0
2, 798080, Note_on_c, 0, 40, 49
2, 798159, Note_on_c, 0, 40, 0
2, 798159, Note_on_c, 0, 35, 49
2, 798240, Note_on_c, 0, 35, 0
2, 798240, Control_c, 0, 64, 0
2, 798240, Note_on_c, 0, 40, 49
2, 798720, Note_on_c, 0, 40, 0
2, 798720, Control_c, 0, 64, 127
2, 802560, Control_c, 0, 64, 0
2, 802560, End_track
3, 0, Start_track
3, 0, Title_t, "Grand Piano"
3, 0, Program_c, 0, 0
3, 0, Control_c, 0, 7, 115
3, 0, Control_c, 0, 10, 80
3, 3840, Note_on_c, 0, 55, 67
3, 4320, Note_on_c, 0, 55, 0
3, 4800, Note_on_c, 0, 57, 67
3, 5280, Note_on_c, 0, 57, 0
3, 5760, Note_on_c, 0, 55, 67
3, 6240, Note_on_c, 0, 55, 0
3, 23040, Note_on_c, 0, 57, 67
3, 24960, Note_on_c, 0, 57, 0
3, 24960, Note_on_c, 0, 55, 67
3, 26400, Note_on_c, 0, 55, 0
3, 34560, Note_on_c, 0, 55, 54
3, 35520, Note_on_c, 0, 55, 0
3, 35520, Note_on_c, 0, 52, 54
3, 36480, Note_on_c, 0, 52, 0
3, 42720, Note_on_c, 0, 51, 67
3, 43200, Note_on_c, 0, 51, 0
3, 43680, Note_on_c, 0, 51, 80
3, 44160, Note_on_c, 0, 51, 0
3, 44640, Note_on_c, 0, 48, 80
3, 45120, Note_on_c, 0, 48, 0
3, 46560, Note_on_c, 0, 48, 67
3, 46560, Note_on_c, 0, 52, 67
3, 47040, Note_on_c, 0, 52, 0
3, 47040, Note_on_c, 0, 48, 0
3, 47520, Note_on_c, 0, 54, 54
3, 48000, Note_on_c, 0, 54, 0
3, 48480, Note_on_c, 0, 50, 54
3, 48960, Note_on_c, 0, 50, 0
3, 48960, Note_on_c, 0, 48, 67
3, 49920, Note_on_c, 0, 48, 0
3, 58080, Note_on_c, 0, 52, 54
3, 60000, Note_on_c, 0, 52, 0
3, 60000, Note_on_c, 0, 52, 67
3, 60960, Note_on_c, 0, 52, 0
3, 60960, Note_on_c, 0, 51, 54
3, 61920, Note_on_c, 0, 51, 0
3, 102000, Note_on_c, 0, 69, 54
3, 102000, Note_on_c, 0, 72, 54
3, 102240, Note_on_c, 0, 72, 0
3, 102240, Note_on_c, 0, 69, 0
3, 102720, Note_on_c, 0, 76, 67
3, 102960, Note_on_c, 0, 76, 0
3, 103440, Note_on_c, 0, 72, 54
3, 103680, Note_on_c, 0, 72, 0
3, 104880, Note_on_c, 0, 72, 67
3, 104880, Note_on_c, 0, 76, 67
3, 105120, Note_on_c, 0, 76, 0
3, 105120, Note_on_c, 0, 72, 0
3, 105600, Note_on_c, 0, 67, 54
3, 105600, Note_on_c, 0, 71, 54
3, 105840, Note_on_c, 0, 71, 0
3, 105840, Note_on_c, 0, 67, 0
3, 106320, Note_on_c, 0, 69, 54
3, 106320, Note_on_c, 0, 72, 54
3, 106560, Note_on_c, 0, 72, 0
3, 106560, Note_on_c, 0, 69, 0
3, 107760, Note_on_c, 0, 69, 54
3, 107760, Note_on_c, 0, 72, 54
3, 108000, Note_on_c, 0, 72, 0
3, 108000, Note_on_c, 0, 69, 0
3, 108480, Note_on_c, 0, 76, 67
3, 108720, Note_on_c, 0, 76, 0
3, 109200, Note_on_c, 0, 72, 54
3, 109440, Note_on_c, 0, 72, 0
3, 110640, Note_on_c, 0, 72, 67
3, 110640, Note_on_c, 0, 76, 67
3, 110880, Note_on_c, 0, 76, 0
3, 110880, Note_on_c, 0, 72, 0
3, 111360, Note_on_c, 0, 67, 54
3, 111360, Note_on_c, 0, 71, 54
3, 111600, Note_on_c, 0, 71, 0
3, 111600, Note_on_c, 0, 67, 0
3, 115200, Note_on_c, 0, 60, 54
3, 115680, Note_on_c, 0, 60, 0
3, 120960, Note_on_c, 0, 60, 54
3, 121440, Note_on_c, 0, 60, 0
3, 123120, Note_on_c, 0, 74, 93
3, 123240, Note_on_c, 0, 74, 0
3, 123240, Note_on_c, 0, 76, 93
3, 123360, Note_on_c, 0, 76, 0
3, 123360, Note_on_c, 0, 77, 93
3, 123480, Note_on_c, 0, 77, 0
3, 123480, Note_on_c, 0, 78, 93
3, 123840, Note_on_c, 0, 78, 0
3, 126720, Note_on_c, 0, 60, 54
3, 127200, Note_on_c, 0, 60, 0
3, 132480, Note_on_c, 0, 60, 54
3, 132960, Note_on_c, 0, 60, 0
3, 134400, Note_on_c, 0, 71, 54
3, 134520, Note_on_c, 0, 71, 0
3, 134520, Note_on_c, 0, 73, 54
3, 134640, Note_on_c, 0, 73, 0
3, 134640, Note_on_c, 0, 74, 93
3, 134760, Note_on_c, 0, 74, 0
3, 134760, Note_on_c, 0, 78, 93
3, 134880, Note_on_c, 0, 78, 0
3, 134880, Note_on_c, 0, 79, 80
3, 135000, Note_on_c, 0, 79, 0
3, 135000, Note_on_c, 0, 78, 80
3, 135120, Note_on_c, 0, 78, 0
3, 135120, Note_on_c, 0, 79, 80
3, 135240, Note_on_c, 0, 79, 0
3, 135240, Note_on_c, 0, 78, 80
3, 135360, Note_on_c, 0, 78, 0
3, 135360, Note_on_c, 0, 79, 80
3, 135480, Note_on_c, 0, 79, 0
3, 135480, Note_on_c, 0, 78, 80
3, 135600, Note_on_c, 0, 78, 0
3, 135600, Note_on_c, 0, 79, 93
3, 135720, Note_on_c, 0, 79, 0
3, 135720, Note_on_c, 0, 78, 93
3, 135840, Note_on_c, 0, 78, 0
3, 136560, Note_on_c, 0, 71, 80
3, 136680, Note_on_c, 0, 71, 0
3, 136680, Note_on_c, 0, 78, 80
3, 136800, Note_on_c, 0, 78, 0
3, 136800, Note_on_c, 0, 79, 80
3, 136920, Note_on_c, 0, 79, 0
3, 136920, Note_on_c, 0, 78, 80
3, 137040, Note_on_c, 0, 78, 0
3, 137040, Note_on_c, 0, 79, 93
3, 137160, Note_on_c, 0, 79, 0
3, 137160, Note_on_c, 0, 78, 93
3, 137280, Note_on_c, 0, 78, 0
3, 137280, Note_on_c, 0, 79, 93
3, 137400, Note_on_c, 0, 79, 0
3, 137400, Note_on_c, 0, 78, 93
3, 137520, Note_on_c, 0, 78, 0
3, 137520, Note_on_c, 0, 79, 93
3, 137640, Note_on_c, 0, 79, 0
3, 137640, Note_on_c, 0, 78, 93
3, 137760, Note_on_c, 0, 78, 0
3, 137760, Note_on_c, 0, 79, 93
3, 137880, Note_on_c, 0, 79, 0
3, 137880, Note_on_c, 0, 78, 93
3, 138000, Note_on_c, 0, 78, 0
3, 138000, Note_on_c, 0, 79, 93
3, 138240, Note_on_c, 0, 79, 0
3, 138240, Note_on_c, 0, 69, 93
3, 138360, Note_on_c, 0, 69, 0
3, 138360, Note_on_c, 0, 70, 93
3, 138480, Note_on_c, 0, 70, 0
3, 138480, Note_on_c, 0, 71, 93
3, 138600, Note_on_c, 0, 71, 0
3, 138600, Note_on_c, 0, 70, 93
3, 138720, Note_on_c, 0, 70, 0
3, 140880, Note_on_c, 0, 67, 93
3, 141600, Note_on_c, 0, 67, 0
3, 143760, Note_on_c, 0, 67, 93
3, 144480, Note_on_c, 0, 67, 0
3, 145200, Note_on_c, 0, 59, 93
3, 145440, Note_on_c, 0, 59, 0
3, 145440, Note_on_c, 0, 61, 93
3, 145560, Note_on_c, 0, 61, 0
3, 145560, Note_on_c, 0, 59, 93
3, 145680, Note_on_c, 0, 59, 0
3, 145680, Note_on_c, 0, 62, 93
3, 145920, Note_on_c, 0, 62, 0
3, 145920, Note_on_c, 0, 64, 93
3, 146160, Note_on_c, 0, 64, 0
3, 146160, Note_on_c, 0, 74, 93
3, 146280, Note_on_c, 0, 74, 0
3, 146280, Note_on_c, 0, 71, 93
3, 146400, Note_on_c, 0, 71, 0
3, 146400, Note_on_c, 0, 76, 93
3, 146640, Note_on_c, 0, 76, 0
3, 146640, Note_on_c, 0, 78, 93
3, 146880, Note_on_c, 0, 78, 0
3, 146880, Note_on_c, 0, 82, 93
3, 147000, Note_on_c, 0, 82, 0
3, 147000, Note_on_c, 0, 76, 93
3, 147120, Note_on_c, 0, 76, 0
3, 147120, Note_on_c, 0, 74, 93
3, 147360, Note_on_c, 0, 74, 0
3, 149520, Note_on_c, 0, 72, 93
3, 150240, Note_on_c, 0, 72, 0
3, 152400, Note_on_c, 0, 72, 93
3, 153120, Note_on_c, 0, 72, 0
3, 153840, Note_on_c, 0, 64, 93
3, 154080, Note_on_c, 0, 64, 0
3, 154080, Note_on_c, 0, 66, 93
3, 154200, Note_on_c, 0, 66, 0
3, 154200, Note_on_c, 0, 64, 93
3, 154320, Note_on_c, 0, 64, 0
3, 154320, Note_on_c, 0, 67, 93
3, 154560, Note_on_c, 0, 67, 0
3, 154560, Note_on_c, 0, 69, 93
3, 154800, Note_on_c, 0, 69, 0
3, 154800, Note_on_c, 0, 79, 93
3, 154920, Note_on_c, 0, 79, 0
3, 154920, Note_on_c, 0, 76, 93
3, 155040, Note_on_c, 0, 76, 0
3, 155040, Note_on_c, 0, 81, 93
3, 155280, Note_on_c, 0, 81, 0
3, 155280, Note_on_c, 0, 83, 93
3, 155520, Note_on_c, 0, 83, 0
3, 155520, Note_on_c, 0, 87, 93
3, 155640, Note_on_c, 0, 87, 0
3, 155640, Note_on_c, 0, 81, 93
3, 155760, Note_on_c, 0, 81, 0
3, 155760, Note_on_c, 0, 79, 93
3, 156000, Note_on_c, 0, 79, 0
3, 161760, Note_on_c, 0, 59, 106
3, 162000, Note_on_c, 0, 59, 0
3, 162000, Note_on_c, 0, 57, 106
3, 162240, Note_on_c, 0, 57, 0
3, 162240, Note_on_c, 0, 55, 106
3, 162240, Note_on_c, 0, 59, 106
3, 162720, Note_on_c, 0, 59, 0
3, 162720, Note_on_c, 0, 55, 0
3, 164640, Note_on_c, 0, 62, 106
3, 164880, Note_on_c, 0, 62, 0
3, 164880, Note_on_c, 0, 60, 106
3, 165120, Note_on_c, 0, 60, 0
3, 165120, Note_on_c, 0, 59, 106
3, 165120, Note_on_c, 0, 62, 106
3, 165600, Note_on_c, 0, 62, 0
3, 165600, Note_on_c, 0, 59, 0
3, 167040, Note_on_c, 0, 78, 106
3, 167280, Note_on_c, 0, 78, 0
3, 167280, Note_on_c, 0, 79, 106
3, 167520, Note_on_c, 0, 79, 0
3, 167520, Note_on_c, 0, 81, 106
3, 167760, Note_on_c, 0, 81, 0
3, 167760, Note_on_c, 0, 79, 106
3, 168000, Note_on_c, 0, 79, 0
3, 168000, Note_on_c, 0, 78, 106
3, 168240, Note_on_c, 0, 78, 0
3, 168240, Note_on_c, 0, 76, 106
3, 168480, Note_on_c, 0, 76, 0
3, 168480, Note_on_c, 0, 78, 106
3, 168720, Note_on_c, 0, 78, 0
3, 168720, Note_on_c, 0, 79, 106
3, 168960, Note_on_c, 0, 79, 0
3, 168960, Note_on_c, 0, 81, 106
3, 169200, Note_on_c, 0, 81, 0
3, 169200, Note_on_c, 0, 79, 106
3, 169440, Note_on_c, 0, 79, 0
3, 169440, Note_on_c, 0, 78, 106
3, 169680, Note_on_c, 0, 78, 0
3, 169680, Note_on_c, 0, 76, 106
3, 169920, Note_on_c, 0, 76, 0
3, 169920, Note_on_c, 0, 78, 106
3, 170160, Note_on_c, 0, 78, 0
3, 170160, Note_on_c, 0, 79, 106
3, 170400, Note_on_c, 0, 79, 0
3, 170400, Note_on_c, 0, 81, 106
3, 170640, Note_on_c, 0, 81, 0
3, 170640, Note_on_c, 0, 79, 106
3, 170880, Note_on_c, 0, 79, 0
3, 170880, Note_on_c, 0, 78, 106
3, 171120, Note_on_c, 0, 78, 0
3, 171120, Note_on_c, 0, 76, 106
3, 171360, Note_on_c, 0, 76, 0
3, 171360, Note_on_c, 0, 74, 106
3, 171600, Note_on_c, 0, 74, 0
3, 171600, Note_on_c, 0, 72, 106
3, 171840, Note_on_c, 0, 72, 0
3, 171840, Note_on_c, 0, 71, 106
3, 171840, Note_on_c, 0, 76, 106
3, 172080, Note_on_c, 0, 76, 0
3, 172080, Note_on_c, 0, 71, 0
3, 172080, Note_on_c, 0, 69, 106
3, 172320, Note_on_c, 0, 69, 0
3, 172320, Note_on_c, 0, 67, 106
3, 172560, Note_on_c, 0, 67, 0
3, 172560, Note_on_c, 0, 66, 106
3, 172800, Note_on_c, 0, 66, 0
3, 172800, Note_on_c, 0, 64, 106
3, 173040, Note_on_c, 0, 64, 0
3, 173040, Note_on_c, 0, 63, 106
3, 173280, Note_on_c, 0, 63, 0
3, 180000, Note_on_c, 0, 66, 106
3, 180240, Note_on_c, 0, 66, 0
3, 180240, Note_on_c, 0, 67, 106
3, 180480, Note_on_c, 0, 67, 0
3, 180480, Note_on_c, 0, 69, 106
3, 180720, Note_on_c, 0, 69, 0
3, 180720, Note_on_c, 0, 67, 106
3, 180960, Note_on_c, 0, 67, 0
3, 180960, Note_on_c, 0, 66, 106
3, 181200, Note_on_c, 0, 66, 0
3, 181200, Note_on_c, 0, 71, 106
3, 181440, Note_on_c, 0, 71, 0
3, 181440, Note_on_c, 0, 69, 106
3, 181680, Note_on_c, 0, 69, 0
3, 181680, Note_on_c, 0, 67, 106
3, 181920, Note_on_c, 0, 67, 0
3, 181920, Note_on_c, 0, 72, 106
3, 182160, Note_on_c, 0, 72, 0
3, 182160, Note_on_c, 0, 71, 106
3, 182400, Note_on_c, 0, 71, 0
3, 182400, Note_on_c, 0, 69, 106
3, 182640, Note_on_c, 0, 69, 0
3, 182640, Note_on_c, 0, 73, 106
3, 182880, Note_on_c, 0, 73, 0
3, 182880, Note_on_c, 0, 71, 106
3, 183120, Note_on_c, 0, 71, 0
3, 183120, Note_on_c, 0, 70, 106
3, 183360, Note_on_c, 0, 70, 0
3, 183360, Note_on_c, 0, 74, 106
3, 183600, Note_on_c, 0, 74, 0
3, 183600, Note_on_c, 0, 73, 106
3, 183840, Note_on_c, 0, 73, 0
3, 183840, Note_on_c, 0, 71, 106
3, 184080, Note_on_c, 0, 71, 0
3, 189120, Note_on_c, 0, 66, 67
3, 190560, Note_on_c, 0, 66, 0
3, 194160, Note_on_c, 0, 67, 67
3, 194880, Note_on_c, 0, 67, 0
3, 194880, Note_on_c, 0, 66, 67
3, 196320, Note_on_c, 0, 66, 0
3, 198000, Note_on_c, 0, 90, 54
3, 198240, Note_on_c, 0, 90, 0
3, 198240, Note_on_c, 0, 78, 54
3, 198480, Note_on_c, 0, 78, 0
3, 198480, Note_on_c, 0, 66, 54
3, 198720, Note_on_c, 0, 66, 0
3, 200880, Note_on_c, 0, 90, 54
3, 201120, Note_on_c, 0, 90, 0
3, 201120, Note_on_c, 0, 78, 54
3, 201360, Note_on_c, 0, 78, 0
3, 201360, Note_on_c, 0, 66, 54
3, 201600, Note_on_c, 0, 66, 0
3, 202080, Note_on_c, 0, 69, 93
3, 203520, Note_on_c, 0, 69, 0
3, 203520, Note_on_c, 0, 70, 93
3, 204960, Note_on_c, 0, 70, 0
3, 204960, Note_on_c, 0, 69, 93
3, 205680, Note_on_c, 0, 69, 0
3, 205680, Note_on_c, 0, 70, 93
3, 206400, Note_on_c, 0, 70, 0
3, 212400, Note_on_c, 0, 90, 54
3, 212640, Note_on_c, 0, 90, 0
3, 212640, Note_on_c, 0, 78, 54
3, 212880, Note_on_c, 0, 78, 0
3, 212880, Note_on_c, 0, 66, 54
3, 213120, Note_on_c, 0, 66, 0
3, 217200, Note_on_c, 0, 67, 80
3, 217920, Note_on_c, 0, 67, 0
3, 218160, Note_on_c, 0, 90, 54
3, 218400, Note_on_c, 0, 90, 0
3, 218400, Note_on_c, 0, 78, 54
3, 218640, Note_on_c, 0, 78, 0
3, 218640, Note_on_c, 0, 66, 54
3, 218880, Note_on_c, 0, 66, 0
3, 219360, Note_on_c, 0, 64, 54
3, 220080, Note_on_c, 0, 64, 0
3, 220080, Note_on_c, 0, 66, 54
3, 220800, Note_on_c, 0, 66, 0
3, 222240, Note_on_c, 0, 62, 54
3, 222960, Note_on_c, 0, 62, 0
3, 222960, Note_on_c, 0, 64, 54
3, 223680, Note_on_c, 0, 64, 0
3, 230880, Note_on_c, 0, 55, 54
3, 232320, Note_on_c, 0, 55, 0
3, 232320, Note_on_c, 0, 67, 54
3, 233760, Note_on_c, 0, 67, 0
3, 233760, Note_on_c, 0, 55, 54
3, 233760, Note_on_c, 0, 59, 54
3, 235200, Note_on_c, 0, 59, 0
3, 235200, Note_on_c, 0, 55, 0
3, 235200, Note_on_c, 0, 67, 54
3, 235200, Note_on_c, 0, 71, 54
3, 236640, Note_on_c, 0, 71, 0
3, 236640, Note_on_c, 0, 67, 0
3, 243120, Note_on_c, 0, 69, 67
3, 243840, Note_on_c, 0, 69, 0
3, 243840, Note_on_c, 0, 74, 80
3, 244560, Note_on_c, 0, 74, 0
3, 248880, Note_on_c, 0, 69, 67
3, 249600, Note_on_c, 0, 69, 0
3, 249600, Note_on_c, 0, 74, 80
3, 250320, Note_on_c, 0, 74, 0
3, 250320, Note_on_c, 0, 68, 80
3, 250560, Note_on_c, 0, 68, 0
3, 250560, Note_on_c, 0, 68, 80
3, 250800, Note_on_c, 0, 68, 0
3, 250800, Note_on_c, 0, 67, 67
3, 251040, Note_on_c, 0, 67, 0
3, 254640, Note_on_c, 0, 69, 67
3, 255360, Note_on_c, 0, 69, 0
3, 255360, Note_on_c, 0, 74, 80
3, 256080, Note_on_c, 0, 74, 0
3, 260400, Note_on_c, 0, 69, 67
3, 261120, Note_on_c, 0, 69, 0
3, 261120, Note_on_c, 0, 74, 80
3, 261840, Note_on_c, 0, 74, 0
3, 261840, Note_on_c, 0, 68, 80
3, 262080, Note_on_c, 0, 68, 0
3, 262080, Note_on_c, 0, 68, 80
3, 262320, Note_on_c, 0, 68, 0
3, 262320, Note_on_c, 0, 67, 67
3, 262560, Note_on_c, 0, 67, 0
3, 343200, Note_on_c, 0, 62, 67
3, 343440, Note_on_c, 0, 62, 0
3, 343560, Note_on_c, 0, 62, 67
3, 343680, Note_on_c, 0, 62, 0
3, 343680, Note_on_c, 0, 62, 67
3, 344160, Note_on_c, 0, 62, 0
3, 344160, Note_on_c, 0, 63, 80
3, 344207, Note_on_c, 0, 63, 0
3, 344400, Note_on_c, 0, 65, 80
3, 344447, Note_on_c, 0, 65, 0
3, 344640, Note_on_c, 0, 59, 67
3, 344640, Note_on_c, 0, 62, 67
3, 344880, Note_on_c, 0, 62, 0
3, 344880, Note_on_c, 0, 59, 0
3, 345360, Note_on_c, 0, 59, 54
3, 345600, Note_on_c, 0, 59, 0
3, 346080, Note_on_c, 0, 60, 54
3, 346320, Note_on_c, 0, 60, 0
3, 346800, Note_on_c, 0, 59, 54
3, 346800, Note_on_c, 0, 65, 54
3, 347040, Note_on_c, 0, 65, 0
3, 347040, Note_on_c, 0, 59, 0
3, 347520, Note_on_c, 0, 72, 80
3, 347760, Note_on_c, 0, 72, 0
3, 347760, Note_on_c, 0, 70, 80
3, 348000, Note_on_c, 0, 70, 0
3, 348000, Note_on_c, 0, 68, 67
3, 348047, Note_on_c, 0, 68, 0
3, 348240, Note_on_c, 0, 67, 67
3, 348480, Note_on_c, 0, 67, 0
3, 348480, Note_on_c, 0, 68, 67
3, 348720, Note_on_c, 0, 68, 0
3, 348720, Note_on_c, 0, 70, 67
3, 348767, Note_on_c, 0, 70, 0
3, 348960, Note_on_c, 0, 72, 67
3, 349200, Note_on_c, 0, 72, 0
3, 349320, Note_on_c, 0, 72, 67
3, 349440, Note_on_c, 0, 72, 0
3, 349440, Note_on_c, 0, 72, 67
3, 349920, Note_on_c, 0, 72, 0
3, 349920, Note_on_c, 0, 74, 80
3, 349967, Note_on_c, 0, 74, 0
3, 350160, Note_on_c, 0, 76, 80
3, 350207, Note_on_c, 0, 76, 0
3, 350400, Note_on_c, 0, 77, 80
3, 350640, Note_on_c, 0, 77, 0
3, 350640, Note_on_c, 0, 75, 80
3, 350880, Note_on_c, 0, 75, 0
3, 350880, Note_on_c, 0, 73, 80
3, 351120, Note_on_c, 0, 73, 0
3, 351120, Note_on_c, 0, 72, 80
3, 351360, Note_on_c, 0, 72, 0
3, 351360, Note_on_c, 0, 70, 80
3, 351600, Note_on_c, 0, 70, 0
3, 351600, Note_on_c, 0, 68, 80
3, 351840, Note_on_c, 0, 68, 0
3, 351840, Note_on_c, 0, 67, 80
3, 352080, Note_on_c, 0, 67, 0
3, 352080, Note_on_c, 0, 65, 80
3, 352320, Note_on_c, 0, 65, 0
3, 352320, Note_on_c, 0, 63, 80
3, 352560, Note_on_c, 0, 63, 0
3, 352560, Note_on_c, 0, 62, 80
3, 352800, Note_on_c, 0, 62, 0
3, 352800, Note_on_c, 0, 61, 80
3, 353040, Note_on_c, 0, 61, 0
3, 353040, Note_on_c, 0, 60, 80
3, 353280, Note_on_c, 0, 60, 0
3, 353280, Note_on_c, 0, 58, 80
3, 353520, Note_on_c, 0, 58, 0
3, 353520, Note_on_c, 0, 56, 80
3, 353760, Note_on_c, 0, 56, 0
3, 353760, Note_on_c, 0, 55, 80
3, 354000, Note_on_c, 0, 55, 0
3, 356160, Note_on_c, 0, 56, 67
3, 356160, Note_on_c, 0, 61, 67
3, 356400, Note_on_c, 0, 61, 0
3, 356400, Note_on_c, 0, 56, 0
3, 356880, Note_on_c, 0, 63, 67
3, 357120, Note_on_c, 0, 63, 0
3, 357600, Note_on_c, 0, 62, 80
3, 357600, Note_on_c, 0, 65, 80
3, 357840, Note_on_c, 0, 65, 0
3, 357840, Note_on_c, 0, 62, 0
3, 358320, Note_on_c, 0, 62, 67
3, 358560, Note_on_c, 0, 62, 0
3, 359040, Note_on_c, 0, 63, 67
3, 359280, Note_on_c, 0, 63, 0
3, 359760, Note_on_c, 0, 62, 67
3, 359760, Note_on_c, 0, 68, 67
3, 360000, Note_on_c, 0, 68, 0
3, 360000, Note_on_c, 0, 62, 0
3, 360480, Note_on_c, 0, 75, 93
3, 360720, Note_on_c, 0, 75, 0
3, 360720, Note_on_c, 0, 73, 93
3, 360960, Note_on_c, 0, 73, 0
3, 360960, Note_on_c, 0, 71, 80
3, 361007, Note_on_c, 0, 71, 0
3, 361200, Note_on_c, 0, 70, 80
3, 361440, Note_on_c, 0, 70, 0
3, 361440, Note_on_c, 0, 71, 80
3, 361680, Note_on_c, 0, 71, 0
3, 361680, Note_on_c, 0, 73, 80
3, 361727, Note_on_c, 0, 73, 0
3, 361920, Note_on_c, 0, 75, 80
3, 362160, Note_on_c, 0, 75, 0
3, 362280, Note_on_c, 0, 75, 80
3, 362400, Note_on_c, 0, 75, 0
3, 362400, Note_on_c, 0, 75, 80
3, 362880, Note_on_c, 0, 75, 0
3, 362880, Note_on_c, 0, 77, 93
3, 362927, Note_on_c, 0, 77, 0
3, 363120, Note_on_c, 0, 79, 93
3, 363167, Note_on_c, 0, 79, 0
3, 363360, Note_on_c, 0, 80, 93
3, 363600, Note_on_c, 0, 80, 0
3, 363600, Note_on_c, 0, 78, 93
3, 363840, Note_on_c, 0, 78, 0
3, 363840, Note_on_c, 0, 76, 93
3, 364080, Note_on_c, 0, 76, 0
3, 364080, Note_on_c, 0, 75, 93
3, 364320, Note_on_c, 0, 75, 0
3, 364320, Note_on_c, 0, 73, 93
3, 364560, Note_on_c, 0, 73, 0
3, 364560, Note_on_c, 0, 71, 93
3, 364800, Note_on_c, 0, 71, 0
3, 364800, Note_on_c, 0, 70, 93
3, 365040, Note_on_c, 0, 70, 0
3, 365040, Note_on_c, 0, 68, 93
3, 365280, Note_on_c, 0, 68, 0
3, 365280, Note_on_c, 0, 66, 93
3, 365520, Note_on_c, 0, 66, 0
3, 365520, Note_on_c, 0, 65, 93
3, 365760, Note_on_c, 0, 65, 0
3, 365760, Note_on_c, 0, 64, 93
3, 366000, Note_on_c, 0, 64, 0
3, 366000, Note_on_c, 0, 63, 93
3, 366240, Note_on_c, 0, 63, 0
3, 366240, Note_on_c, 0, 61, 93
3, 366480, Note_on_c, 0, 61, 0
3, 366480, Note_on_c, 0, 59, 93
3, 366720, Note_on_c, 0, 59, 0
3, 366720, Note_on_c, 0, 58, 93
3, 366960, Note_on_c, 0, 58, 0
3, 379200, Control_c, 0, 64, 127
3, 379200, Note_on_c, 0, 66, 80
3, 379440, Note_on_c, 0, 66, 0
3, 379440, Note_on_c, 0, 67, 80
3, 379680, Note_on_c, 0, 67, 0
3, 379680, Note_on_c, 0, 66, 80
3, 379920, Note_on_c, 0, 66, 0
3, 379920, Note_on_c, 0, 64, 80
3, 380160, Note_on_c, 0, 64, 0
3, 380160, Note_on_c, 0, 62, 80
3, 380400, Note_on_c, 0, 62, 0
3, 380400, Control_c, 0, 64, 0
3, 380400, Note_on_c, 0, 61, 80
3, 380640, Note_on_c, 0, 61, 0
3, 405120, Note_on_c, 0, 62, 67
3, 405120, Note_on_c, 0, 68, 67
3, 405480, Note_on_c, 0, 68, 0
3, 405480, Note_on_c, 0, 62, 0
3, 405480, Note_on_c, 0, 62, 67
3, 405480, Note_on_c, 0, 68, 67
3, 405600, Note_on_c, 0, 68, 0
3, 405600, Note_on_c, 0, 62, 0
3, 405600, Note_on_c, 0, 62, 67
3, 405600, Note_on_c, 0, 68, 67
3, 405840, Note_on_c, 0, 68, 0
3, 405840, Note_on_c, 0, 62, 0
3, 405840, Note_on_c, 0, 62, 67
3, 405840, Note_on_c, 0, 68, 67
3, 406200, Note_on_c, 0, 68, 0
3, 406200, Note_on_c, 0, 62, 0
3, 406200, Note_on_c, 0, 68, 67
3, 406320, Note_on_c, 0, 68, 0
3, 406320, Note_on_c, 0, 64, 80
3, 406320, Note_on_c, 0, 70, 80
3, 406560, Note_on_c, 0, 70, 0
3, 406560, Note_on_c, 0, 64, 0
3, 406560, Note_on_c, 0, 68, 67
3, 406560, Note_on_c, 0, 70, 67
3, 406920, Note_on_c, 0, 70, 0
3, 406920, Note_on_c, 0, 68, 0
3, 406920, Note_on_c, 0, 68, 67
3, 406920, Note_on_c, 0, 70, 67
3, 407040, Note_on_c, 0, 70, 0
3, 407040, Note_on_c, 0, 68, 0
3, 407040, Note_on_c, 0, 68, 67
3, 407040, Note_on_c, 0, 70, 67
3, 407280, Note_on_c, 0, 70, 0
3, 407280, Note_on_c, 0, 68, 0
3, 407280, Note_on_c, 0, 66, 80
3, 407280, Note_on_c, 0, 70, 80
3, 407640, Note_on_c, 0, 70, 0
3, 407640, Note_on_c, 0, 66, 0
3, 407640, Note_on_c, 0, 70, 80
3, 407760, Note_on_c, 0, 70, 0
3, 407760, Note_on_c, 0, 70, 80
3, 408000, Note_on_c, 0, 70, 0
3, 408000, Note_on_c, 0, 70, 80
3, 408000, Note_on_c, 0, 75, 80
3, 408360, Note_on_c, 0, 75, 0
3, 408360, Note_on_c, 0, 70, 0
3, 408360, Note_on_c, 0, 70, 80
3, 408360, Note_on_c, 0, 75, 80
3, 408480, Note_on_c, 0, 75, 0
3, 408480, Note_on_c, 0, 70, 0
3, 408480, Note_on_c, 0, 70, 80
3, 408480, Note_on_c, 0, 75, 80
3, 408720, Note_on_c, 0, 75, 0
3, 408720, Note_on_c, 0, 70, 0
3, 408720, Note_on_c, 0, 70, 80
3, 408720, Note_on_c, 0, 75, 80
3, 409080, Note_on_c, 0, 75, 0
3, 409080, Note_on_c, 0, 70, 0
3, 409080, Note_on_c, 0, 70, 80
3, 409080, Note_on_c, 0, 75, 80
3, 409200, Note_on_c, 0, 75, 0
3, 409200, Note_on_c, 0, 70, 0
3, 409200, Note_on_c, 0, 70, 80
3, 409200, Note_on_c, 0, 75, 80
3, 409440, Note_on_c, 0, 75, 0
3, 409440, Note_on_c, 0, 70, 0
3, 409440, Note_on_c, 0, 70, 67
3, 409800, Note_on_c, 0, 70, 0
3, 409800, Note_on_c, 0, 70, 67
3, 409920, Note_on_c, 0, 70, 0
3, 409920, Note_on_c, 0, 70, 67
3, 410160, Note_on_c, 0, 70, 0
3, 410160, Note_on_c, 0, 68, 67
3, 410160, Note_on_c, 0, 70, 67
3, 410520, Note_on_c, 0, 70, 0
3, 410520, Note_on_c, 0, 68, 0
3, 410520, Note_on_c, 0, 68, 67
3, 410520, Note_on_c, 0, 70, 67
3, 410640, Note_on_c, 0, 70, 0
3, 410640, Note_on_c, 0, 68, 0
3, 410640, Note_on_c, 0, 68, 67
3, 410640, Note_on_c, 0, 70, 67
3, 410880, Note_on_c, 0, 70, 0
3, 410880, Note_on_c, 0, 68, 0
3, 410880, Note_on_c, 0, 63, 67
3, 410880, Note_on_c, 0, 68, 67
3, 411240, Note_on_c, 0, 68, 0
3, 411240, Note_on_c, 0, 63, 0
3, 411240, Note_on_c, 0, 63, 67
3, 411240, Note_on_c, 0, 68, 67
3, 411360, Note_on_c, 0, 68, 0
3, 411360, Note_on_c, 0, 63, 0
3, 411360, Note_on_c, 0, 63, 67
3, 411360, Note_on_c, 0, 68, 67
3, 411600, Note_on_c, 0, 68, 0
3, 411600, Note_on_c, 0, 63, 0
3, 411600, Note_on_c, 0, 63, 67
3, 411600, Note_on_c, 0, 66, 67
3, 411960, Note_on_c, 0, 66, 0
3, 411960, Note_on_c, 0, 63, 0
3, 411960, Note_on_c, 0, 63, 67
3, 411960, Note_on_c, 0, 66, 67
3, 412080, Note_on_c, 0, 66, 0
3, 412080, Note_on_c, 0, 63, 0
3, 412080, Note_on_c, 0, 66, 67
3, 412320, Note_on_c, 0, 66, 0
3, 412320, Note_on_c, 0, 68, 67
3, 412320, Note_on_c, 0, 70, 67
3, 412680, Note_on_c, 0, 70, 0
3, 412680, Note_on_c, 0, 68, 0
3, 412680, Note_on_c, 0, 68, 67
3, 412680, Note_on_c, 0, 70, 67
3, 412800, Note_on_c, 0, 70, 0
3, 412800, Note_on_c, 0, 68, 0
3, 412800, Note_on_c, 0, 68, 67
3, 412800, Note_on_c, 0, 70, 67
3, 413040, Note_on_c, 0, 70, 0
3, 413040, Note_on_c, 0, 68, 0
3, 413040, Note_on_c, 0, 66, 80
3, 413040, Note_on_c, 0, 70, 80
3, 413400, Note_on_c, 0, 70, 0
3, 413400, Note_on_c, 0, 66, 0
3, 413400, Note_on_c, 0, 70, 80
3, 413520, Note_on_c, 0, 70, 0
3, 413520, Note_on_c, 0, 70, 80
3, 413760, Note_on_c, 0, 70, 0
3, 413760, Note_on_c, 0, 70, 80
3, 413760, Note_on_c, 0, 75, 80
3, 414120, Note_on_c, 0, 75, 0
3, 414120, Note_on_c, 0, 70, 0
3, 414120, Note_on_c, 0, 70, 80
3, 414120, Note_on_c, 0, 75, 80
3, 414240, Note_on_c, 0, 75, 0
3, 414240, Note_on_c, 0, 70, 0
3, 414240, Note_on_c, 0, 70, 80
3, 414240, Note_on_c, 0, 75, 80
3, 414480, Note_on_c, 0, 75, 0
3, 414480, Note_on_c, 0, 70, 0
3, 414480, Note_on_c, 0, 70, 80
3, 414480, Note_on_c, 0, 75, 80
3, 414840, Note_on_c, 0, 75, 0
3, 414840, Note_on_c, 0, 70, 0
3, 414840, Note_on_c, 0, 70, 80
3, 414840, Note_on_c, 0, 75, 80
3, 414960, Note_on_c, 0, 75, 0
3, 414960, Note_on_c, 0, 70, 0
3, 414960, Note_on_c, 0, 70, 80
3, 414960, Note_on_c, 0, 75, 80
3, 415200, Note_on_c, 0, 75, 0
3, 415200, Note_on_c, 0, 70, 0
3, 415200, Note_on_c, 0, 70, 67
3, 415560, Note_on_c, 0, 70, 0
3, 415560, Note_on_c, 0, 70, 67
3, 415680, Note_on_c, 0, 70, 0
3, 415680, Note_on_c, 0, 70, 67
3, 415920, Note_on_c, 0, 70, 0
3, 415920, Note_on_c, 0, 68, 67
3, 415920, Note_on_c, 0, 70, 67
3, 416280, Note_on_c, 0, 70, 0
3, 416280, Note_on_c, 0, 68, 0
3, 416280, Note_on_c, 0, 68, 67
3, 416280, Note_on_c, 0, 70, 67
3, 416400, Note_on_c, 0, 70, 0
3, 416400, Note_on_c, 0, 68, 0
3, 416400, Note_on_c, 0, 68, 67
3, 416400, Note_on_c, 0, 70, 67
3, 416640, Note_on_c, 0, 70, 0
3, 416640, Note_on_c, 0, 68, 0
3, 418080, Note_on_c, 0, 59, 80
3, 418320, Note_on_c, 0, 59, 0
3, 418440, Note_on_c, 0, 59, 80
3, 418560, Note_on_c, 0, 59, 0
3, 418560, Note_on_c, 0, 59, 80
3, 419040, Note_on_c, 0, 59, 0
3, 419040, Note_on_c, 0, 61, 80
3, 419280, Note_on_c, 0, 61, 0
3, 419280, Note_on_c, 0, 62, 80
3, 419520, Note_on_c, 0, 62, 0
3, 423840, Note_on_c, 0, 57, 80
3, 424080, Note_on_c, 0, 57, 0
3, 424200, Note_on_c, 0, 57, 80
3, 424320, Note_on_c, 0, 57, 0
3, 424320, Note_on_c, 0, 57, 80
3, 424800, Note_on_c, 0, 57, 0
3, 424800, Note_on_c, 0, 59, 80
3, 425040, Note_on_c, 0, 59, 0
3, 425040, Note_on_c, 0, 60, 80
3, 425280, Note_on_c, 0, 60, 0
3, 446640, Note_on_c, 0, 69, 93
3, 446880, Note_on_c, 0, 69, 0
3, 448080, Note_on_c, 0, 66, 93
3, 448320, Note_on_c, 0, 66, 0
3, 448560, Note_on_c, 0, 70, 93
3, 448560, Note_on_c, 0, 74, 93
3, 449040, Note_on_c, 0, 74, 0
3, 449040, Note_on_c, 0, 70, 0
3, 449520, Note_on_c, 0, 74, 93
3, 449760, Note_on_c, 0, 74, 0
3, 450000, Note_on_c, 0, 76, 93
3, 450000, Note_on_c, 0, 79, 93
3, 450480, Note_on_c, 0, 79, 0
3, 450480, Note_on_c, 0, 76, 0
3, 450960, Note_on_c, 0, 76, 93
3, 451200, Note_on_c, 0, 76, 0
3, 452880, Note_on_c, 0, 76, 93
3, 452880, Note_on_c, 0, 79, 93
3, 453360, Note_on_c, 0, 79, 0
3, 453360, Note_on_c, 0, 76, 0
3, 453840, Note_on_c, 0, 76, 93
3, 454080, Note_on_c, 0, 76, 0
3, 455760, Note_on_c, 0, 76, 93
3, 455760, Note_on_c, 0, 79, 93
3, 456240, Note_on_c, 0, 79, 0
3, 456240, Note_on_c, 0, 76, 0
3, 456720, Note_on_c, 0, 76, 93
3, 456960, Note_on_c, 0, 76, 0
3, 463440, Note_on_c, 0, 79, 106
3, 463440, Note_on_c, 0, 88, 106
3, 463440, Note_on_c, 0, 91, 106
3, 463920, Note_on_c, 0, 91, 0
3, 463920, Note_on_c, 0, 88, 0
3, 463920, Note_on_c, 0, 79, 0
3, 463920, Note_on_c, 0, 79, 106
3, 463920, Note_on_c, 0, 88, 106
3, 463920, Note_on_c, 0, 91, 106
3, 464160, Note_on_c, 0, 91, 0
3, 464160, Note_on_c, 0, 88, 0
3, 464160, Note_on_c, 0, 79, 0
3, 464880, Note_on_c, 0, 76, 106
3, 464880, Note_on_c, 0, 79, 106
3, 464880, Note_on_c, 0, 88, 106
3, 465360, Note_on_c, 0, 88, 0
3, 465360, Note_on_c, 0, 79, 0
3, 465360, Note_on_c, 0, 76, 0
3, 465360, Note_on_c, 0, 76, 106
3, 465360, Note_on_c, 0, 79, 106
3, 465360, Note_on_c, 0, 88, 106
3, 465600, Note_on_c, 0, 88, 0
3, 465600, Note_on_c, 0, 79, 0
3, 465600, Note_on_c, 0, 76, 0
3, 466320, Note_on_c, 0, 67, 106
3, 466320, Note_on_c, 0, 76, 106
3, 466320, Note_on_c, 0, 79, 106
3, 466800, Note_on_c, 0, 79, 0
3, 466800, Note_on_c, 0, 76, 0
3, 466800, Note_on_c, 0, 67, 0
3, 466800, Note_on_c, 0, 67, 106
3, 466800, Note_on_c, 0, 76, 106
3, 466800, Note_on_c, 0, 79, 106
3, 467040, Note_on_c, 0, 79, 0
3, 467040, Note_on_c, 0, 76, 0
3, 467040, Note_on_c, 0, 67, 0
3, 467760, Note_on_c, 0, 64, 106
3, 467760, Note_on_c, 0, 67, 106
3, 467760, Note_on_c, 0, 76, 106
3, 468240, Note_on_c, 0, 76, 0
3, 468240, Note_on_c, 0, 67, 0
3, 468240, Note_on_c, 0, 64, 0
3, 468240, Note_on_c, 0, 64, 106
3, 468240, Note_on_c, 0, 67, 106
3, 468240, Note_on_c, 0, 76, 106
3, 468480, Note_on_c, 0, 76, 0
3, 468480, Note_on_c, 0, 67, 0
3, 468480, Note_on_c, 0, 64, 0
3, 469200, Note_on_c, 0, 55, 106
3, 469200, Note_on_c, 0, 64, 106
3, 469200, Note_on_c, 0, 67, 106
3, 469920, Note_on_c, 0, 67, 0
3, 469920, Note_on_c, 0, 64, 0
3, 469920, Note_on_c, 0, 55, 0
3, 470640, Note_on_c, 0, 52, 106
3, 470640, Note_on_c, 0, 55, 106
3, 470640, Note_on_c, 0, 64, 106
3, 471360, Note_on_c, 0, 64, 0
3, 471360, Note_on_c, 0, 55, 0
3, 471360, Note_on_c, 0, 52, 0
3, 471840, Note_on_c, 0, 52, 93
3, 471840, Note_on_c, 0, 55, 93
3, 472080, Note_on_c, 0, 55, 0
3, 472080, Note_on_c, 0, 52, 0
3, 472560, Note_on_c, 0, 52, 93
3, 472560, Note_on_c, 0, 55, 93
3, 472800, Note_on_c, 0, 55, 0
3, 472800, Note_on_c, 0, 52, 0
3, 473280, Note_on_c, 0, 52, 80
3, 473280, Note_on_c, 0, 55, 80
3, 473520, Note_on_c, 0, 55, 0
3, 473520, Note_on_c, 0, 52, 0
3, 474000, Note_on_c, 0, 52, 80
3, 474000, Note_on_c, 0, 55, 80
3, 474240, Note_on_c, 0, 55, 0
3, 474240, Note_on_c, 0, 52, 0
3, 474960, Note_on_c, 0, 52, 67
3, 474960, Note_on_c, 0, 55, 67
3, 475680, Note_on_c, 0, 55, 0
3, 475680, Note_on_c, 0, 52, 0
3, 476400, Note_on_c, 0, 52, 67
3, 476400, Note_on_c, 0, 55, 67
3, 477120, Note_on_c, 0, 55, 0
3, 477120, Note_on_c, 0, 52, 0
3, 477840, Note_on_c, 0, 52, 67
3, 477840, Note_on_c, 0, 55, 67
3, 478560, Note_on_c, 0, 55, 0
3, 478560, Note_on_c, 0, 52, 0
3, 478560, Note_on_c, 0, 52, 54
3, 478560, Note_on_c, 0, 55, 54
3, 479280, Note_on_c, 0, 55, 0
3, 479280, Note_on_c, 0, 52, 0
3, 479280, Note_on_c, 0, 52, 54
3, 479280, Note_on_c, 0, 55, 54
3, 479760, Note_on_c, 0, 55, 0
3, 479760, Note_on_c, 0, 52, 0
3, 488640, Note_on_c, 0, 57, 54
3, 488640, Note_on_c, 0, 64, 54
3, 488880, Note_on_c, 0, 64, 0
3, 488880, Note_on_c, 0, 57, 0
3, 489360, Note_on_c, 0, 60, 54
3, 489360, Note_on_c, 0, 62, 54
3, 489600, Note_on_c, 0, 62, 0
3, 489600, Note_on_c, 0, 60, 0
3, 490080, Note_on_c, 0, 59, 54
3, 490080, Note_on_c, 0, 62, 54
3, 490320, Note_on_c, 0, 62, 0
3, 490320, Note_on_c, 0, 59, 0
3, 491520, Note_on_c, 0, 64, 54
3, 491760, Note_on_c, 0, 64, 0
3, 491760, Note_on_c, 0, 63, 54
3, 492000, Note_on_c, 0, 63, 0
3, 492000, Note_on_c, 0, 64, 54
3, 492240, Note_on_c, 0, 64, 0
3, 492240, Note_on_c, 0, 66, 54
3, 492960, Note_on_c, 0, 66, 0
3, 492960, Note_on_c, 0, 67, 54
3, 493200, Note_on_c, 0, 67, 0
3, 494400, Note_on_c, 0, 64, 54
3, 494880, Note_on_c, 0, 64, 0
3, 495120, Note_on_c, 0, 62, 54
3, 495360, Note_on_c, 0, 62, 0
3, 495360, Note_on_c, 0, 64, 54
3, 495600, Note_on_c, 0, 64, 0
3, 495600, Note_on_c, 0, 66, 54
3, 495840, Note_on_c, 0, 66, 0
3, 497280, Note_on_c, 0, 76, 54
3, 497520, Note_on_c, 0, 76, 0
3, 497520, Note_on_c, 0, 75, 54
3, 497760, Note_on_c, 0, 75, 0
3, 497760, Note_on_c, 0, 76, 54
3, 498000, Note_on_c, 0, 76, 0
3, 498000, Note_on_c, 0, 78, 54
3, 498720, Note_on_c, 0, 78, 0
3, 498720, Note_on_c, 0, 79, 54
3, 498960, Note_on_c, 0, 79, 0
3, 503760, Note_on_c, 0, 69, 54
3, 503760, Note_on_c, 0, 72, 54
3, 504000, Note_on_c, 0, 72, 0
3, 504000, Note_on_c, 0, 69, 0
3, 504480, Note_on_c, 0, 76, 67
3, 504720, Note_on_c, 0, 76, 0
3, 505200, Note_on_c, 0, 72, 54
3, 505440, Note_on_c, 0, 72, 0
3, 506640, Note_on_c, 0, 72, 67
3, 506640, Note_on_c, 0, 76, 67
3, 506880, Note_on_c, 0, 76, 0
3, 506880, Note_on_c, 0, 72, 0
3, 507360, Note_on_c, 0, 67, 54
3, 507360, Note_on_c, 0, 71, 54
3, 507600, Note_on_c, 0, 71, 0
3, 507600, Note_on_c, 0, 67, 0
3, 508080, Note_on_c, 0, 69, 54
3, 508080, Note_on_c, 0, 72, 54
3, 508320, Note_on_c, 0, 72, 0
3, 508320, Note_on_c, 0, 69, 0
3, 509520, Note_on_c, 0, 69, 54
3, 509520, Note_on_c, 0, 72, 54
3, 509760, Note_on_c, 0, 72, 0
3, 509760, Note_on_c, 0, 69, 0
3, 510240, Note_on_c, 0, 76, 67
3, 510480, Note_on_c, 0, 76, 0
3, 510960, Note_on_c, 0, 72, 54
3, 511200, Note_on_c, 0, 72, 0
3, 512400, Note_on_c, 0, 72, 67
3, 512400, Note_on_c, 0, 76, 67
3, 512640, Note_on_c, 0, 76, 0
3, 512640, Note_on_c, 0, 72, 0
3, 513120, Note_on_c, 0, 67, 54
3, 513120, Note_on_c, 0, 71, 54
3, 513360, Note_on_c, 0, 71, 0
3, 513360, Note_on_c, 0, 67, 0
3, 516960, Note_on_c, 0, 60, 54
3, 517440, Note_on_c, 0, 60, 0
3, 522720, Note_on_c, 0, 60, 54
3, 523200, Note_on_c, 0, 60, 0
3, 524880, Note_on_c, 0, 74, 93
3, 525000, Note_on_c, 0, 74, 0
3, 525000, Note_on_c, 0, 76, 93
3, 525120, Note_on_c, 0, 76, 0
3, 525120, Note_on_c, 0, 77, 93
3, 525240, Note_on_c, 0, 77, 0
3, 525240, Note_on_c, 0, 78, 93
3, 525600, Note_on_c, 0, 78, 0
3, 528480, Note_on_c, 0, 60, 54
3, 528960, Note_on_c, 0, 60, 0
3, 533280, Note_on_c, 0, 57, 80
3, 534000, Note_on_c, 0, 57, 0
3, 534000, Note_on_c, 0, 55, 54
3, 534000, Note_on_c, 0, 59, 54
3, 534240, Note_on_c, 0, 59, 0
3, 534240, Note_on_c, 0, 55, 0
3, 534720, Note_on_c, 0, 73, 93
3, 535680, Note_on_c, 0, 73, 0
3, 539040, Note_on_c, 0, 52, 93
3, 539760, Note_on_c, 0, 52, 0
3, 539760, Note_on_c, 0, 50, 67
3, 539760, Note_on_c, 0, 54, 67
3, 540000, Note_on_c, 0, 54, 0
3, 540000, Note_on_c, 0, 50, 0
3, 540480, Note_on_c, 0, 68, 106
3, 541440, Note_on_c, 0, 68, 0
3, 550080, Note_on_c, 0, 68, 80
3, 550320, Note_on_c, 0, 68, 0
3, 550320, Note_on_c, 0, 69, 80
3, 550560, Note_on_c, 0, 69, 0
3, 550560, Note_on_c, 0, 71, 80
3, 550800, Note_on_c, 0, 71, 0
3, 550800, Note_on_c, 0, 69, 80
3, 551040, Note_on_c, 0, 69, 0
3, 551040, Note_on_c, 0, 68, 80
3, 551280, Note_on_c, 0, 68, 0
3, 551280, Note_on_c, 0, 73, 80
3, 551520, Note_on_c, 0, 73, 0
3, 551520, Note_on_c, 0, 71, 80
3, 551760, Note_on_c, 0, 71, 0
3, 551760, Note_on_c, 0, 69, 80
3, 552000, Note_on_c, 0, 69, 0
3, 552000, Note_on_c, 0, 74, 80
3, 552240, Note_on_c, 0, 74, 0
3, 552240, Note_on_c, 0, 73, 80
3, 552480, Note_on_c, 0, 73, 0
3, 552480, Note_on_c, 0, 71, 80
3, 552720, Note_on_c, 0, 71, 0
3, 552720, Note_on_c, 0, 75, 80
3, 552960, Note_on_c, 0, 75, 0
3, 552960, Note_on_c, 0, 73, 80
3, 553200, Note_on_c, 0, 73, 0
3, 553200, Note_on_c, 0, 72, 80
3, 553440, Note_on_c, 0, 72, 0
3, 553440, Note_on_c, 0, 76, 80
3, 553680, Note_on_c, 0, 76, 0
3, 553680, Note_on_c, 0, 75, 80
3, 553920, Note_on_c, 0, 75, 0
3, 553920, Note_on_c, 0, 73, 80
3, 554160, Note_on_c, 0, 73, 0
3, 559440, Note_on_c, 0, 92, 54
3, 559680, Note_on_c, 0, 92, 0
3, 559680, Note_on_c, 0, 80, 54
3, 559920, Note_on_c, 0, 80, 0
3, 559920, Note_on_c, 0, 68, 54
3, 560160, Note_on_c, 0, 68, 0
3, 564240, Note_on_c, 0, 69, 93
3, 564960, Note_on_c, 0, 69, 0
3, 565200, Note_on_c, 0, 92, 54
3, 565440, Note_on_c, 0, 92, 0
3, 565440, Note_on_c, 0, 80, 54
3, 565680, Note_on_c, 0, 80, 0
3, 565680, Note_on_c, 0, 68, 54
3, 565920, Note_on_c, 0, 68, 0
3, 568080, Note_on_c, 0, 92, 54
3, 568320, Note_on_c, 0, 92, 0
3, 568320, Note_on_c, 0, 80, 54
3, 568560, Note_on_c, 0, 80, 0
3, 568560, Note_on_c, 0, 68, 54
3, 568800, Note_on_c, 0, 68, 0
3, 570960, Note_on_c, 0, 92, 54
3, 571200, Note_on_c, 0, 92, 0
3, 571200, Note_on_c, 0, 80, 54
3, 571440, Note_on_c, 0, 80, 0
3, 571440, Note_on_c, 0, 68, 54
3, 571680, Note_on_c, 0, 68, 0
3, 572160, Note_on_c, 0, 71, 93
3, 573600, Note_on_c, 0, 71, 0
3, 573600, Note_on_c, 0, 72, 93
3, 575040, Note_on_c, 0, 72, 0
3, 575040, Note_on_c, 0, 71, 93
3, 575760, Note_on_c, 0, 71, 0
3, 575760, Note_on_c, 0, 72, 93
3, 576480, Note_on_c, 0, 72, 0
3, 577200, Note_on_c, 0, 64, 80
3, 577440, Note_on_c, 0, 64, 0
3, 577440, Note_on_c, 0, 66, 80
3, 577680, Note_on_c, 0, 66, 0
3, 577680, Note_on_c, 0, 67, 80
3, 577920, Note_on_c, 0, 67, 0
3, 581520, Note_on_c, 0, 66, 80
3, 581760, Note_on_c, 0, 66, 0
3, 581760, Note_on_c, 0, 66, 80
3, 582000, Note_on_c, 0, 66, 0
3, 582000, Note_on_c, 0, 69, 67
3, 582240, Note_on_c, 0, 69, 0
3, 582480, Note_on_c, 0, 92, 54
3, 582720, Note_on_c, 0, 92, 0
3, 582720, Note_on_c, 0, 80, 54
3, 582960, Note_on_c, 0, 80, 0
3, 582960, Note_on_c, 0, 68, 54
3, 583200, Note_on_c, 0, 68, 0
3, 587520, Note_on_c, 0, 69, 80
3, 588000, Note_on_c, 0, 69, 0
3, 588240, Note_on_c, 0, 92, 54
3, 588480, Note_on_c, 0, 92, 0
3, 588480, Note_on_c, 0, 80, 54
3, 588720, Note_on_c, 0, 80, 0
3, 588720, Note_on_c, 0, 68, 54
3, 588960, Note_on_c, 0, 68, 0
3, 589440, Note_on_c, 0, 66, 80
3, 590160, Note_on_c, 0, 66, 0
3, 590160, Note_on_c, 0, 68, 54
3, 590640, Note_on_c, 0, 68, 0
3, 592320, Note_on_c, 0, 64, 80
3, 593040, Note_on_c, 0, 64, 0
3, 593040, Note_on_c, 0, 66, 54
3, 593760, Note_on_c, 0, 66, 0
3, 600960, Note_on_c, 0, 57, 54
3, 602400, Note_on_c, 0, 57, 0
3, 602400, Note_on_c, 0, 69, 54
3, 603840, Note_on_c, 0, 69, 0
3, 603840, Note_on_c, 0, 57, 54
3, 603840, Note_on_c, 0, 61, 54
3, 605280, Note_on_c, 0, 61, 0
3, 605280, Note_on_c, 0, 57, 0
3, 605280, Note_on_c, 0, 69, 54
3, 605280, Note_on_c, 0, 73, 54
3, 606720, Note_on_c, 0, 73, 0
3, 606720, Note_on_c, 0, 69, 0
3, 613200, Note_on_c, 0, 71, 67
3, 613920, Note_on_c, 0, 71, 0
3, 613920, Note_on_c, 0, 76, 80
3, 614640, Note_on_c, 0, 76, 0
3, 618960, Note_on_c, 0, 71, 67
3, 619680, Note_on_c, 0, 71, 0
3, 619680, Note_on_c, 0, 76, 80
3, 620400, Note_on_c, 0, 76, 0
3, 620400, Note_on_c, 0, 70, 80
3, 620640, Note_on_c, 0, 70, 0
3, 620640, Note_on_c, 0, 70, 80
3, 620880, Note_on_c, 0, 70, 0
3, 620880, Note_on_c, 0, 69, 80
3, 621120, Note_on_c, 0, 69, 0
3, 624720, Note_on_c, 0, 71, 67
3, 625440, Note_on_c, 0, 71, 0
3, 625440, Note_on_c, 0, 76, 80
3, 626160, Note_on_c, 0, 76, 0
3, 630480, Note_on_c, 0, 71, 67
3, 631200, Note_on_c, 0, 71, 0
3, 631200, Note_on_c, 0, 76, 80
3, 631920, Note_on_c, 0, 76, 0
3, 631920, Note_on_c, 0, 70, 80
3, 632160, Note_on_c, 0, 70, 0
3, 632160, Note_on_c, 0, 70, 80
3, 632400, Note_on_c, 0, 70, 0
3, 632400, Note_on_c, 0, 69, 80
3, 632640, Note_on_c, 0, 69, 0
3, 719760, Note_on_c, 0, 62, 54
3, 719760, Note_on_c, 0, 67, 54
3, 720000, Note_on_c, 0, 67, 0
3, 720000, Note_on_c, 0, 62, 0
3, 720480, Note_on_c, 0, 68, 54
3, 720480, Note_on_c, 0, 71, 54
3, 720720, Note_on_c, 0, 71, 0
3, 720720, Note_on_c, 0, 68, 0
3, 721200, Note_on_c, 0, 64, 54
3, 721440, Note_on_c, 0, 64, 0
3, 722640, Note_on_c, 0, 68, 54
3, 722640, Note_on_c, 0, 74, 54
3, 722880, Note_on_c, 0, 74, 0
3, 722880, Note_on_c, 0, 68, 0
3, 722880, Note_on_c, 0, 66, 54
3, 723120, Note_on_c, 0, 66, 0
3, 723120, Note_on_c, 0, 68, 67
3, 723360, Note_on_c, 0, 68, 0
3, 723360, Note_on_c, 0, 69, 67
3, 723600, Note_on_c, 0, 69, 0
3, 723600, Note_on_c, 0, 67, 67
3, 723840, Note_on_c, 0, 67, 0
3, 723840, Note_on_c, 0, 66, 54
3, 724080, Note_on_c, 0, 66, 0
3, 724080, Note_on_c, 0, 64, 54
3, 724320, Note_on_c, 0, 64, 0
3, 724320, Note_on_c, 0, 62, 54
3, 724560, Note_on_c, 0, 62, 0
3, 724560, Note_on_c, 0, 63, 54
3, 724800, Note_on_c, 0, 63, 0
3, 725520, Note_on_c, 0, 75, 54
3, 725520, Note_on_c, 0, 81, 54
3, 725760, Note_on_c, 0, 81, 0
3, 725760, Note_on_c, 0, 75, 0
3, 726240, Note_on_c, 0, 79, 54
3, 726480, Note_on_c, 0, 79, 0
3, 726960, Note_on_c, 0, 76, 54
3, 727200, Note_on_c, 0, 76, 0
3, 728400, Note_on_c, 0, 68, 54
3, 728400, Note_on_c, 0, 74, 54
3, 728640, Note_on_c, 0, 74, 0
3, 728640, Note_on_c, 0, 68, 0
3, 728640, Note_on_c, 0, 66, 54
3, 728880, Note_on_c, 0, 66, 0
3, 728880, Note_on_c, 0, 68, 67
3, 729120, Note_on_c, 0, 68, 0
3, 729120, Note_on_c, 0, 69, 67
3, 729360, Note_on_c, 0, 69, 0
3, 729360, Note_on_c, 0, 67, 67
3, 729600, Note_on_c, 0, 67, 0
3, 729600, Note_on_c, 0, 66, 54
3, 729840, Note_on_c, 0, 66, 0
3, 729840, Note_on_c, 0, 64, 54
3, 730080, Note_on_c, 0, 64, 0
3, 730080, Note_on_c, 0, 62, 54
3, 730320, Note_on_c, 0, 62, 0
3, 730320, Note_on_c, 0, 63, 54
3, 730560, Note_on_c, 0, 63, 0
3, 730560, Note_on_c, 0, 71, 54
3, 730800, Note_on_c, 0, 71, 0
3, 730800, Note_on_c, 0, 70, 54
3, 731040, Note_on_c, 0, 70, 0
3, 731040, Note_on_c, 0, 69, 54
3, 731280, Note_on_c, 0, 69, 0
3, 731280, Note_on_c, 0, 67, 54
3, 731520, Note_on_c, 0, 67, 0
3, 731520, Note_on_c, 0, 65, 54
3, 731760, Note_on_c, 0, 65, 0
3, 731760, Note_on_c, 0, 66, 54
3, 732000, Note_on_c, 0, 66, 0
3, 732000, Note_on_c, 0, 72, 54
3, 732240, Note_on_c, 0, 72, 0
3, 732240, Note_on_c, 0, 71, 54
3, 732480, Note_on_c, 0, 71, 0
3, 732480, Note_on_c, 0, 70, 54
3, 732720, Note_on_c, 0, 70, 0
3, 732720, Note_on_c, 0, 69, 54
3, 732960, Note_on_c, 0, 69, 0
3, 732960, Note_on_c, 0, 66, 54
3, 733200, Note_on_c, 0, 66, 0
3, 733200, Note_on_c, 0, 67, 54
3, 733440, Note_on_c, 0, 67, 0
3, 733440, Note_on_c, 0, 76, 54
3, 733680, Note_on_c, 0, 76, 0
3, 733680, Note_on_c, 0, 75, 54
3, 733920, Note_on_c, 0, 75, 0
3, 733920, Note_on_c, 0, 74, 54
3, 734160, Note_on_c, 0, 74, 0
3, 734160, Note_on_c, 0, 72, 54
3, 734400, Note_on_c, 0, 72, 0
3, 734400, Note_on_c, 0, 70, 54
3, 734640, Note_on_c, 0, 70, 0
3, 734640, Note_on_c, 0, 71, 54
3, 734880, Note_on_c, 0, 71, 0
3, 734880, Note_on_c, 0, 79, 54
3, 735120, Note_on_c, 0, 79, 0
3, 735120, Note_on_c, 0, 78, 54
3, 735360, Note_on_c, 0, 78, 0
3, 735360, Note_on_c, 0, 76, 54
3, 735840, Note_on_c, 0, 76, 0
3, 735840, Note_on_c, 0, 75, 54
3, 736080, Note_on_c, 0, 75, 0
3, 736080, Note_on_c, 0, 76, 54
3, 736320, Note_on_c, 0, 76, 0
3, 736320, Note_on_c, 0, 79, 80
3, 736560, Note_on_c, 0, 79, 0
3, 736560, Note_on_c, 0, 78, 80
3, 736800, Note_on_c, 0, 78, 0
3, 736800, Note_on_c, 0, 76, 80
3, 737280, Note_on_c, 0, 76, 0
3, 737280, Note_on_c, 0, 75, 80
3, 737520, Note_on_c, 0, 75, 0
3, 737520, Note_on_c, 0, 76, 80
3, 738000, Note_on_c, 0, 76, 0
3, 738000, Note_on_c, 0, 75, 93
3, 738240, Note_on_c, 0, 75, 0
3, 738240, Note_on_c, 0, 76, 93
3, 738720, Note_on_c, 0, 76, 0
3, 738720, Note_on_c, 0, 75, 93
3, 738960, Note_on_c, 0, 75, 0
3, 738960, Note_on_c, 0, 76, 93
3, 739440, Note_on_c, 0, 76, 0
3, 739440, Note_on_c, 0, 75, 93
3, 739680, Note_on_c, 0, 75, 0
3, 739680, Note_on_c, 0, 76, 93
3, 740160, Note_on_c, 0, 76, 0
3, 740160, Note_on_c, 0, 75, 93
3, 740400, Note_on_c, 0, 75, 0
3, 740400, Note_on_c, 0, 76, 93
3, 740640, Note_on_c, 0, 76, 0
3, 740640, Note_on_c, 0, 76, 93
3, 740880, Note_on_c, 0, 76, 0
3, 740880, Note_on_c, 0, 75, 106
3, 741120, Note_on_c, 0, 75, 0
3, 741120, Note_on_c, 0, 76, 106
3, 741600, Note_on_c, 0, 76, 0
3, 741600, Note_on_c, 0, 75, 106
3, 741840, Note_on_c, 0, 75, 0
3, 741840, Note_on_c, 0, 76, 106
3, 742080, Note_on_c, 0, 76, 0
3, 748560, Note_on_c, 0, 67, 93
3, 748560, Note_on_c, 0, 71, 93
3, 748800, Note_on_c, 0, 71, 0
3, 748800, Note_on_c, 0, 67, 0
3, 749280, Note_on_c, 0, 76, 93
3, 749520, Note_on_c, 0, 76, 0
3, 750000, Note_on_c, 0, 69, 93
3, 750000, Note_on_c, 0, 71, 93
3, 750240, Note_on_c, 0, 71, 0
3, 750240, Note_on_c, 0, 69, 0
3, 751440, Note_on_c, 0, 67, 93
3, 751440, Note_on_c, 0, 71, 93
3, 751680, Note_on_c, 0, 71, 0
3, 751680, Note_on_c, 0, 67, 0
3, 752160, Note_on_c, 0, 76, 93
3, 752400, Note_on_c, 0, 76, 0
3, 752880, Note_on_c, 0, 69, 93
3, 752880, Note_on_c, 0, 71, 93
3, 753120, Note_on_c, 0, 71, 0
3, 753120, Note_on_c, 0, 69, 0
3, 754320, Note_on_c, 0, 68, 80
3, 754320, Note_on_c, 0, 71, 80
3, 754560, Note_on_c, 0, 71, 0
3, 754560, Note_on_c, 0, 68, 0
3, 755040, Note_on_c, 0, 66, 80
3, 755040, Note_on_c, 0, 69, 80
3, 755280, Note_on_c, 0, 69, 0
3, 755280, Note_on_c, 0, 66, 0
3, 755760, Note_on_c, 0, 66, 80
3, 755760, Note_on_c, 0, 69, 80
3, 756000, Note_on_c, 0, 69, 0
3, 756000, Note_on_c, 0, 66, 0
3, 757200, Note_on_c, 0, 68, 80
3, 757200, Note_on_c, 0, 71, 80
3, 757440, Note_on_c, 0, 71, 0
3, 757440, Note_on_c, 0, 68, 0
3, 757920, Note_on_c, 0, 66, 80
3, 757920, Note_on_c, 0, 69, 80
3, 758160, Note_on_c, 0, 69, 0
3, 758160, Note_on_c, 0, 66, 0
3, 758640, Note_on_c, 0, 66, 80
3, 758640, Note_on_c, 0, 69, 80
3, 758880, Note_on_c, 0, 69, 0
3, 758880, Note_on_c, 0, 66, 0
3, 760080, Note_on_c, 0, 55, 67
3, 760080, Note_on_c, 0, 59, 67
3, 760320, Note_on_c, 0, 59, 0
3, 760320, Note_on_c, 0, 55, 0
3, 760800, Note_on_c, 0, 64, 67
3, 761040, Note_on_c, 0, 64, 0
3, 761520, Note_on_c, 0, 57, 67
3, 761520, Note_on_c, 0, 59, 67
3, 761760, Note_on_c, 0, 59, 0
3, 761760, Note_on_c, 0, 57, 0
3, 762960, Note_on_c, 0, 55, 67
3, 762960, Note_on_c, 0, 59, 67
3, 763200, Note_on_c, 0, 59, 0
3, 763200, Note_on_c, 0, 55, 0
3, 763680, Note_on_c, 0, 64, 67
3, 763920, Note_on_c, 0, 64, 0
3, 764400, Note_on_c, 0, 57, 67
3, 764400, Note_on_c, 0, 59, 67
3, 764640, Note_on_c, 0, 59, 0
3, 764640, Note_on_c, 0, 57, 0
3, 765840, Note_on_c, 0, 56, 54
3, 765840, Note_on_c, 0, 59, 54
3, 766080, Note_on_c, 0, 59, 0
3, 766080, Note_on_c, 0, 56, 0
3, 766560, Note_on_c, 0, 54, 54
3, 766560, Note_on_c, 0, 57, 54
3, 766800, Note_on_c, 0, 57, 0
3, 766800, Note_on_c, 0, 54, 0
3, 767280, Note_on_c, 0, 54, 54
3, 767280, Note_on_c, 0, 57, 54
3, 767520, Note_on_c, 0, 57, 0
3, 767520, Note_on_c, 0, 54, 0
3, 768720, Note_on_c, 0, 56, 54
3, 768720, Note_on_c, 0, 59, 54
3, 768960, Note_on_c, 0, 59, 0
3, 768960, Note_on_c, 0, 56, 0
3, 769440, Note_on_c, 0, 54, 54
3, 769440, Note_on_c, 0, 57, 54
3, 769680, Note_on_c, 0, 57, 0
3, 769680, Note_on_c, 0, 54, 0
3, 770160, Note_on_c, 0, 54, 54
3, 770160, Note_on_c, 0, 57, 54
3, 770400, Note_on_c, 0, 57, 0
3, 770400, Note_on_c, 0, 54, 0
3, 771360, Note_on_c, 0, 52, 67
3, 773280, Note_on_c, 0, 52, 0
3, 773280, Note_on_c, 0, 49, 67
3, 773520, Note_on_c, 0, 49, 0
3, 773520, Note_on_c, 0, 51, 67
3, 773760, Note_on_c, 0, 51, 0
3, 774240, Note_on_c, 0, 52, 67
3, 776160, Note_on_c, 0, 52, 0
3, 776160, Note_on_c, 0, 49, 67
3, 776400, Note_on_c, 0, 49, 0
3, 776400, Note_on_c, 0, 51, 67
3, 776640, Note_on_c, 0, 51, 0
3, 777120, Note_on_c, 0, 40, 67
3, 779280, Note_on_c, 0, 40, 0
3, 779280, Note_on_c, 0, 39, 67
3, 779520, Note_on_c, 0, 39, 0
3, 780000, Note_on_c, 0, 40, 67
3, 782160, Note_on_c, 0, 40, 0
3, 782160, Note_on_c, 0, 39, 67
3, 782400, Note_on_c, 0, 39, 0
3, 782400, Note_on_c, 0, 40, 54
3, 782640, Note_on_c, 0, 40, 0
3, 782760, Note_on_c, 0, 40, 54
3, 782880, Note_on_c, 0, 40, 0
3, 782880, Note_on_c, 0, 40, 54
3, 785280, Note_on_c, 0, 40, 0
3, 785280, Note_on_c, 0, 40, 54
3, 785520, Note_on_c, 0, 40, 0
3, 785640, Note_on_c, 0, 40, 54
3, 785760, Note_on_c, 0, 40, 0
3, 785760, Note_on_c, 0, 40, 54
3, 788160, Note_on_c, 0, 40, 0
3, 788160, End_track
4, 0, Start_track
4, 0, Title_t, "Grand Piano"
4, 0, Program_c, 0, 0
4, 0, Control_c, 0, 7, 115
4, 0, Control_c, 0, 10, 41
4, 0, Note_on_c, 0, 40, 49
4, 0, Note_on_c, 0, 47, 49
4, 0, Note_on_c, 0, 52, 49
4, 480, Note_on_c, 0, 52, 0
4, 480, Note_on_c, 0, 47, 0
4, 480, Note_on_c, 0, 40, 0
4, 960, Note_on_c, 0, 45, 49
4, 960, Note_on_c, 0, 48, 49
4, 960, Note_on_c, 0, 52, 49
4, 1440, Note_on_c, 0, 52, 0
4, 1440, Note_on_c, 0, 48, 0
4, 1440, Note_on_c, 0, 45, 0
4, 1920, Note_on_c, 0, 40, 49
4, 1920, Note_on_c, 0, 47, 49
4, 1920, Note_on_c, 0, 52, 49
4, 2400, Note_on_c, 0, 52, 0
4, 2400, Note_on_c, 0, 47, 0
4, 2400, Note_on_c, 0, 40, 0
4, 3840, Note_on_c, 0, 40, 62
4, 3840, Note_on_c, 0, 47, 62
4, 3840, Note_on_c, 0, 52, 62
4, 4320, Note_on_c, 0, 52, 0
4, 4320, Note_on_c, 0, 47, 0
4, 4320, Note_on_c, 0, 40, 0
4, 4800, Note_on_c, 0, 45, 62
4, 4800, Note_on_c, 0, 52, 62
4, 5280, Note_on_c, 0, 52, 0
4, 5280, Note_on_c, 0, 45, 0
4, 5760, Note_on_c, 0, 40, 62
4, 5760, Note_on_c, 0, 47, 62
4, 5760, Note_on_c, 0, 52, 62
4, 6240, Note_on_c, 0, 52, 0
4, 6240, Note_on_c, 0, 47, 0
4, 6240, Note_on_c, 0, 40, 0
4, 7200, Note_on_c, 0, 33, 62
4, 7200, Note_on_c, 0, 45, 62
4, 7680, Note_on_c, 0, 45, 0
4, 7680, Note_on_c, 0, 33, 0
4, 7680, Note_on_c, 0, 35, 62
4, 7680, Note_on_c, 0, 47, 62
4, 8160, Note_on_c, 0, 47, 0
4, 8160, Note_on_c, 0, 35, 0
4, 8160, Note_on_c, 0, 36, 62
4, 8160, Note_on_c, 0, 48, 62
4, 8640, Note_on_c, 0, 48, 0
4, 8640, Note_on_c, 0, 36, 0
4, 8640, Note_on_c, 0, 38, 49
4, 8640, Note_on_c, 0, 50, 49
4, 9120, Note_on_c, 0, 50, 0
4, 9120, Note_on_c, 0, 38, 0
4, 9120, Note_on_c, 0, 39, 49
4, 9120, Note_on_c, 0, 48, 49
4, 9600, Note_on_c, 0, 48, 0
4, 9600, Note_on_c, 0, 39, 0
4, 9600, Note_on_c, 0, 40, 49
4, 9600, Note_on_c, 0, 47, 49
4, 10560, Note_on_c, 0, 47, 0
4, 10560, Note_on_c, 0, 40, 0
4, 11040, Note_on_c, 0, 42, 62
4, 11040, Note_on_c, 0, 45, 62
4, 11040, Note_on_c, 0, 52, 62
4, 11520, Note_on_c, 0, 52, 0
4, 11520, Note_on_c, 0, 45, 0
4, 11520, Note_on_c, 0, 42, 0
4, 11520, Note_on_c, 0, 44, 62
4, 11520, Note_on_c, 0, 47, 62
4, 11520, Note_on_c, 0, 50, 62
4, 12000, Note_on_c, 0, 50, 0
4, 12000, Note_on_c, 0, 47, 0
4, 12000, Note_on_c, 0, 44, 0
4, 12000, Note_on_c, 0, 45, 62
4, 12000, Note_on_c, 0, 48, 62
4, 12480, Note_on_c, 0, 48, 0
4, 12480, Note_on_c, 0, 45, 0
4, 12480, Note_on_c, 0, 47, 49
4, 12480, Note_on_c, 0, 50, 49
4, 12960, Note_on_c, 0, 50, 0
4, 12960, Note_on_c, 0, 47, 0
4, 12960, Note_on_c, 0, 50, 49
4, 13440, Note_on_c, 0, 50, 0
4, 13440, Note_on_c, 0, 52, 49
4, 14640, Note_on_c, 0, 52, 0
4, 15360, Note_on_c, 0, 48, 49
4, 15360, Note_on_c, 0, 52, 49
4, 16560, Note_on_c, 0, 52, 0
4, 16560, Note_on_c, 0, 48, 0
4, 17280, Note_on_c, 0, 47, 49
4, 17280, Note_on_c, 0, 51, 49
4, 18480, Note_on_c, 0, 51, 0
4, 18480, Note_on_c, 0, 47, 0
4, 19200, Note_on_c, 0, 52, 49
4, 19200, Note_on_c, 0, 55, 49
4, 20160, Note_on_c, 0, 55, 0
4, 20160, Note_on_c, 0, 52, 0
4, 20160, Note_on_c, 0, 51, 49
4, 20160, Note_on_c, 0, 54, 49
4, 21120, Note_on_c, 0, 54, 0
4, 21120, Note_on_c, 0, 51, 0
4, 21120, Note_on_c, 0, 43, 49
4, 21120, Note_on_c, 0, 52, 49
4, 21120, Note_on_c, 0, 55, 49
4, 23040, Note_on_c, 0, 55, 0
4, 23040, Note_on_c, 0, 52, 0
4, 23040, Note_on_c, 0, 43, 0
4, 23040, Note_on_c, 0, 52, 62
4, 24000, Note_on_c, 0, 52, 0
4, 24000, Note_on_c, 0, 51, 62
4, 24960, Note_on_c, 0, 51, 0
4, 24960, Note_on_c, 0, 40, 62
4, 24960, Note_on_c, 0, 52, 62
4, 26400, Note_on_c, 0, 52, 0
4, 26400, Note_on_c, 0, 40, 0
4, 26400, Note_on_c, 0, 33, 75
4, 26400, Note_on_c, 0, 45, 75
4, 26880, Note_on_c, 0, 45, 0
4, 26880, Note_on_c, 0, 33, 0
4, 26880, Note_on_c, 0, 35, 75
4, 26880, Note_on_c, 0, 47, 75
4, 27360, Note_on_c, 0, 47, 0
4, 27360, Note_on_c, 0, 35, 0
4, 27360, Note_on_c, 0, 36, 75
4, 27360, Note_on_c, 0, 48, 75
4, 27840, Note_on_c, 0, 48, 0
4, 27840, Note_on_c, 0, 36, 0
4, 27840, Note_on_c, 0, 38, 62
4, 27840, Note_on_c, 0, 50, 62
4, 28320, Note_on_c, 0, 50, 0
4, 28320, Note_on_c, 0, 38, 0
4, 28320, Note_on_c, 0, 39, 62
4, 28320, Note_on_c, 0, 48, 62
4, 28800, Note_on_c, 0, 48, 0
4, 28800, Note_on_c, 0, 39, 0
4, 28800, Note_on_c, 0, 40, 62
4, 28800, Note_on_c, 0, 47, 62
4, 29760, Note_on_c, 0, 47, 0
4, 29760, Note_on_c, 0, 40, 0
4, 30240, Note_on_c, 0, 42, 75
4, 30240, Note_on_c, 0, 45, 75
4, 30240, Note_on_c, 0, 52, 75
4, 30720, Note_on_c, 0, 52, 0
4, 30720, Note_on_c, 0, 45, 0
4, 30720, Note_on_c, 0, 42, 0
4, 30720, Note_on_c, 0, 44, 75
4, 30720, Note_on_c, 0, 47, 75
4, 30720, Note_on_c, 0, 50, 75
4, 31200, Note_on_c, 0, 50, 0
4, 31200, Note_on_c, 0, 47, 0
4, 31200, Note_on_c, 0, 44, 0
4, 31200, Note_on_c, 0, 45, 75
4, 31200, Note_on_c, 0, 48, 75
4, 31680, Note_on_c, 0, 48, 0
4, 31680, Note_on_c, 0, 45, 0
4, 31680, Note_on_c, 0, 47, 62
4, 31680, Note_on_c, 0, 50, 62
4, 32160, Note_on_c, 0, 50, 0
4, 32160, Note_on_c, 0, 47, 0
4, 32160, Note_on_c, 0, 50, 62
4, 32640, Note_on_c, 0, 50, 0
4, 32640, Note_on_c, 0, 52, 62
4, 34080, Note_on_c, 0, 52, 0
4, 34080, Note_on_c, 0, 45, 49
4, 34080, Note_on_c, 0, 52, 49
4, 34560, Note_on_c, 0, 52, 0
4, 34560, Note_on_c, 0, 45, 0
4, 34560, Note_on_c, 0, 52, 49
4, 35520, Note_on_c, 0, 52, 0
4, 35520, Note_on_c, 0, 49, 49
4, 36480, Note_on_c, 0, 49, 0
4, 36480, Note_on_c, 0, 51, 49
4, 37680, Note_on_c, 0, 51, 0
4, 38880, Note_on_c, 0, 40, 49
4, 38880, Note_on_c, 0, 47, 49
4, 38880, Note_on_c, 0, 52, 49
4, 39360, Note_on_c, 0, 52, 0
4, 39360, Note_on_c, 0, 47, 0
4, 39360, Note_on_c, 0, 40, 0
4, 39840, Note_on_c, 0, 45, 49
4, 39840, Note_on_c, 0, 48, 49
4, 39840, Note_on_c, 0, 52, 49
4, 40320, Note_on_c, 0, 52, 0
4, 40320, Note_on_c, 0, 48, 0
4, 40320, Note_on_c, 0, 45, 0
4, 40800, Note_on_c, 0, 40, 49
4, 40800, Note_on_c, 0, 47, 49
4, 40800, Note_on_c, 0, 52, 49
4, 41280, Note_on_c, 0, 52, 0
4, 41280, Note_on_c, 0, 47, 0
4, 41280, Note_on_c, 0, 40, 0
4, 42720, Note_on_c, 0, 36, 62
4, 42720, Note_on_c, 0, 48, 62
4, 43200, Note_on_c, 0, 48, 0
4, 43200, Note_on_c, 0, 36, 0
4, 43680, Note_on_c, 0, 35, 75
4, 43680, Note_on_c, 0, 47, 75
4, 44160, Note_on_c, 0, 47, 0
4, 44160, Note_on_c, 0, 35, 0
4, 44640, Note_on_c, 0, 34, 75
4, 44640, Note_on_c, 0, 40, 75
4, 44640, Note_on_c, 0, 46, 75
4, 45120, Note_on_c, 0, 46, 0
4, 45120, Note_on_c, 0, 40, 0
4, 45120, Note_on_c, 0, 34, 0
4, 46560, Note_on_c, 0, 33, 62
4, 46560, Note_on_c, 0, 45, 62
4, 47040, Note_on_c, 0, 45, 0
4, 47040, Note_on_c, 0, 33, 0
4, 47520, Note_on_c, 0, 38, 49
4, 48000, Note_on_c, 0, 38, 0
4, 48480, Note_on_c, 0, 31, 49
4, 48480, Note_on_c, 0, 47, 49
4, 48960, Note_on_c, 0, 47, 0
4, 48960, Note_on_c, 0, 31, 0
4, 48960, Note_on_c, 0, 36, 62
4, 48960, Note_on_c, 0, 43, 62
4, 49920, Note_on_c, 0, 43, 0
4, 49920, Note_on_c, 0, 36, 0
4, 49920, Note_on_c, 0, 30, 62
4, 49920, Note_on_c, 0, 42, 62
4, 50400, Note_on_c, 0, 42, 0
4, 50400, Note_on_c, 0, 30, 0
4, 50400, Note_on_c, 0, 31, 62
4, 50400, Note_on_c, 0, 43, 62
4, 50880, Note_on_c, 0, 43, 0
4, 50880, Note_on_c, 0, 31, 0
4, 50880, Note_on_c, 0, 33, 62
4, 50880, Note_on_c, 0, 45, 62
4, 51360, Note_on_c, 0, 45, 0
4, 51360, Note_on_c, 0, 33, 0
4, 51360, Note_on_c, 0, 35, 49
4, 51360, Note_on_c, 0, 47, 49
4, 51840, Note_on_c, 0, 47, 0
4, 51840, Note_on_c, 0, 35, 0
4, 51840, Note_on_c, 0, 35, 49
4, 51840, Note_on_c, 0, 45, 49
4, 52320, Note_on_c, 0, 45, 0
4, 52320, Note_on_c, 0, 35, 0
4, 52320, Note_on_c, 0, 36, 88
4, 52320, Note_on_c, 0, 43, 88
4, 53760, Note_on_c, 0, 43, 0
4, 53760, Note_on_c, 0, 36, 0
4, 53760, Note_on_c, 0, 30, 62
4, 53760, Note_on_c, 0, 42, 62
4, 54240, Note_on_c, 0, 42, 0
4, 54240, Note_on_c, 0, 30, 0
4, 54240, Note_on_c, 0, 31, 62
4, 54240, Note_on_c, 0, 43, 62
4, 54720, Note_on_c, 0, 43, 0
4, 54720, Note_on_c, 0, 31, 0
4, 54720, Note_on_c, 0, 33, 62
4, 54720, Note_on_c, 0, 45, 62
4, 55200, Note_on_c, 0, 45, 0
4, 55200, Note_on_c, 0, 33, 0
4, 55200, Note_on_c, 0, 35, 49
4, 55200, Note_on_c, 0, 47, 49
4, 55680, Note_on_c, 0, 47, 0
4, 55680, Note_on_c, 0, 35, 0
4, 55680, Note_on_c, 0, 35, 49
4, 55680, Note_on_c, 0, 45, 49
4, 56160, Note_on_c, 0, 45, 0
4, 56160, Note_on_c, 0, 35, 0
4, 56160, Note_on_c, 0, 36, 88
4, 56160, Note_on_c, 0, 43, 88
4, 58080, Note_on_c, 0, 43, 0
4, 58080, Note_on_c, 0, 36, 0
4, 58080, Note_on_c, 0, 43, 49
4, 59040, Note_on_c, 0, 43, 0
4, 59040, Note_on_c, 0, 42, 62
4, 60000, Note_on_c, 0, 42, 0
4, 60000, Note_on_c, 0, 35, 62
4, 60000, Note_on_c, 0, 42, 62
4, 60000, Note_on_c, 0, 47, 62
4, 61920, Note_on_c, 0, 47, 0
4, 61920, Note_on_c, 0, 42, 0
4, 61920, Note_on_c, 0, 35, 0
4, 62880, Note_on_c, 0, 36, 49
4, 62880, Note_on_c, 0, 42, 49
4, 62880, Note_on_c, 0, 48, 49
4, 63840, Note_on_c, 0, 48, 0
4, 63840, Note_on_c, 0, 42, 0
4, 63840, Note_on_c, 0, 36, 0
4, 63840, Note_on_c, 0, 35, 62
4, 63840, Note_on_c, 0, 42, 62
4, 63840, Note_on_c, 0, 47, 62
4, 65520, Note_on_c, 0, 47, 0
4, 65520, Note_on_c, 0, 42, 0
4, 65520, Note_on_c, 0, 35, 0
4, 66720, Note_on_c, 0, 36, 49
4, 66720, Note_on_c, 0, 42, 49
4, 66720, Note_on_c, 0, 48, 49
4, 67680, Note_on_c, 0, 48, 0
4, 67680, Note_on_c, 0, 42, 0
4, 67680, Note_on_c, 0, 36, 0
4, 67680, Note_on_c, 0, 35, 49
4, 67680, Note_on_c, 0, 42, 49
4, 67680, Note_on_c, 0, 47, 49
4, 70080, Note_on_c, 0, 47, 0
4, 70080, Note_on_c, 0, 42, 0
4, 70080, Note_on_c, 0, 35, 0
4, 72480, Note_on_c, 0, 40, 49
4, 72480, Note_on_c, 0, 47, 49
4, 72480, Note_on_c, 0, 52, 49
4, 72720, Note_on_c, 0, 52, 0
4, 72720, Note_on_c, 0, 47, 0
4, 72720, Note_on_c, 0, 40, 0
4, 73200, Note_on_c, 0, 45, 49
4, 73200, Note_on_c, 0, 52, 49
4, 73440, Note_on_c, 0, 52, 0
4, 73440, Note_on_c, 0, 45, 0
4, 73920, Note_on_c, 0, 40, 49
4, 73920, Note_on_c, 0, 47, 49
4, 73920, Note_on_c, 0, 52, 49
4, 74160, Note_on_c, 0, 52, 0
4, 74160, Note_on_c, 0, 47, 0
4, 74160, Note_on_c, 0, 40, 0
4, 74640, Note_on_c, 0, 45, 49
4, 74640, Note_on_c, 0, 52, 49
4, 74880, Note_on_c, 0, 52, 0
4, 74880, Note_on_c, 0, 45, 0
4, 75360, Note_on_c, 0, 40, 49
4, 75360, Note_on_c, 0, 47, 49
4, 75360, Note_on_c, 0, 52, 49
4, 75600, Note_on_c, 0, 52, 0
4, 75600, Note_on_c, 0, 47, 0
4, 75600, Note_on_c, 0, 40, 0
4, 76080, Note_on_c, 0, 45, 49
4, 76080, Note_on_c, 0, 52, 49
4, 76320, Note_on_c, 0, 52, 0
4, 76320, Note_on_c, 0, 45, 0
4, 76800, Note_on_c, 0, 40, 49
4, 76800, Note_on_c, 0, 47, 49
4, 76800, Note_on_c, 0, 52, 49
4, 77040, Note_on_c, 0, 52, 0
4, 77040, Note_on_c, 0, 47, 0
4, 77040, Note_on_c, 0, 40, 0
4, 77520, Note_on_c, 0, 45, 49
4, 77520, Note_on_c, 0, 52, 49
4, 77760, Note_on_c, 0, 52, 0
4, 77760, Note_on_c, 0, 45, 0
4, 78240, Note_on_c, 0, 40, 49
4, 78240, Note_on_c, 0, 47, 49
4, 78480, Note_on_c, 0, 47, 0
4, 78480, Note_on_c, 0, 40, 0
4, 78960, Note_on_c, 0, 45, 49
4, 78960, Note_on_c, 0, 48, 49
4, 79200, Note_on_c, 0, 48, 0
4, 79200, Note_on_c, 0, 45, 0
4, 79680, Note_on_c, 0, 40, 49
4, 79680, Note_on_c, 0, 47, 49
4, 79680, Note_on_c, 0, 52, 49
4, 79920, Note_on_c, 0, 52, 0
4, 79920, Note_on_c, 0, 47, 0
4, 79920, Note_on_c, 0, 40, 0
4, 80400, Note_on_c, 0, 45, 49
4, 80400, Note_on_c, 0, 48, 49
4, 80640, Note_on_c, 0, 48, 0
4, 80640, Note_on_c, 0, 45, 0
4, 81120, Note_on_c, 0, 40, 49
4, 81120, Note_on_c, 0, 47, 49
4, 81120, Note_on_c, 0, 52, 49
4, 81360, Note_on_c, 0, 52, 0
4, 81360, Note_on_c, 0, 47, 0
4, 81360, Note_on_c, 0, 40, 0
4, 81840, Note_on_c, 0, 45, 49
4, 81840, Note_on_c, 0, 48, 49
4, 81840, Note_on_c, 0, 52, 49
4, 82080, Note_on_c, 0, 52, 0
4, 82080, Note_on_c, 0, 48, 0
4, 82080, Note_on_c, 0, 45, 0
4, 82560, Note_on_c, 0, 40, 49
4, 82560, Note_on_c, 0, 47, 49
4, 82560, Note_on_c, 0, 52, 49
4, 82800, Note_on_c, 0, 52, 0
4, 82800, Note_on_c, 0, 47, 0
4, 82800, Note_on_c, 0, 40, 0
4, 83280, Note_on_c, 0, 45, 49
4, 83280, Note_on_c, 0, 48, 49
4, 83520, Note_on_c, 0, 48, 0
4, 83520, Note_on_c, 0, 45, 0
4, 84000, Note_on_c, 0, 40, 49
4, 84000, Note_on_c, 0, 47, 49
4, 84000, Note_on_c, 0, 52, 49
4, 84240, Note_on_c, 0, 52, 0
4, 84240, Note_on_c, 0, 47, 0
4, 84240, Note_on_c, 0, 40, 0
4, 84720, Note_on_c, 0, 45, 49
4, 84720, Note_on_c, 0, 48, 49
4, 84960, Note_on_c, 0, 48, 0
4, 84960, Note_on_c, 0, 45, 0
4, 85440, Note_on_c, 0, 40, 49
4, 85440, Note_on_c, 0, 47, 49
4, 85440, Note_on_c, 0, 52, 49
4, 85680, Note_on_c, 0, 52, 0
4, 85680, Note_on_c, 0, 47, 0
4, 85680, Note_on_c, 0, 40, 0
4, 86160, Note_on_c, 0, 45, 49
4, 86160, Note_on_c, 0, 48, 49
4, 86400, Note_on_c, 0, 48, 0
4, 86400, Note_on_c, 0, 45, 0
4, 86880, Note_on_c, 0, 40, 49
4, 86880, Note_on_c, 0, 47, 49
4, 86880, Note_on_c, 0, 52, 49
4, 87120, Note_on_c, 0, 52, 0
4, 87120, Note_on_c, 0, 47, 0
4, 87120, Note_on_c, 0, 40, 0
4, 87600, Note_on_c, 0, 45, 49
4, 87600, Note_on_c, 0, 48, 49
4, 87600, Note_on_c, 0, 52, 49
4, 87840, Note_on_c, 0, 52, 0
4, 87840, Note_on_c, 0, 48, 0
4, 87840, Note_on_c, 0, 45, 0
4, 88320, Note_on_c, 0, 40, 49
4, 88320, Note_on_c, 0, 47, 49
4, 88320, Note_on_c, 0, 55, 49
4, 88560, Note_on_c, 0, 55, 0
4, 88560, Note_on_c, 0, 47, 0
4, 88560, Note_on_c, 0, 40, 0
4, 89040, Note_on_c, 0, 43, 49
4, 89040, Note_on_c, 0, 47, 49
4, 89280, Note_on_c, 0, 47, 0
4, 89280, Note_on_c, 0, 43, 0
4, 89760, Note_on_c, 0, 45, 49
4, 89760, Note_on_c, 0, 52, 49
4, 89760, Note_on_c, 0, 57, 49
4, 90000, Note_on_c, 0, 57, 0
4, 90000, Note_on_c, 0, 52, 0
4, 90000, Note_on_c, 0, 45, 0
4, 90480, Note_on_c, 0, 50, 49
4, 90480, Note_on_c, 0, 54, 49
4, 90720, Note_on_c, 0, 54, 0
4, 90720, Note_on_c, 0, 50, 0
4, 91200, Note_on_c, 0, 43, 49
4, 91200, Note_on_c, 0, 50, 49
4, 91200, Note_on_c, 0, 55, 49
4, 91440, Note_on_c, 0, 55, 0
4, 91440, Note_on_c, 0, 50, 0
4, 91440, Note_on_c, 0, 43, 0
4, 91920, Note_on_c, 0, 47, 49
4, 91920, Note_on_c, 0, 50, 49
4, 92160, Note_on_c, 0, 50, 0
4, 92160, Note_on_c, 0, 47, 0
4, 92640, Note_on_c, 0, 45, 49
4, 92640, Note_on_c, 0, 48, 49
4, 92640, Note_on_c, 0, 52, 49
4, 92880, Note_on_c, 0, 52, 0
4, 92880, Note_on_c, 0, 48, 0
4, 92880, Note_on_c, 0, 45, 0
4, 93360, Note_on_c, 0, 38, 49
4, 93360, Note_on_c, 0, 45, 49
4, 93360, Note_on_c, 0, 54, 49
4, 93600, Note_on_c, 0, 54, 0
4, 93600, Note_on_c, 0, 45, 0
4, 93600, Note_on_c, 0, 38, 0
4, 94000, Note_on_c, 0, 31, 49
4, 94040, Note_on_c, 0, 38, 49
4, 94080, Note_on_c, 0, 43, 49
4, 94320, Note_on_c, 0, 43, 0
4, 94320, Note_on_c, 0, 38, 0
4, 94320, Note_on_c, 0, 31, 0
4, 94800, Note_on_c, 0, 47, 49
4, 94800, Note_on_c, 0, 50, 49
4, 95040, Note_on_c, 0, 50, 0
4, 95040, Note_on_c, 0, 47, 0
4, 95520, Note_on_c, 0, 45, 49
4, 95520, Note_on_c, 0, 52, 49
4, 95520, Note_on_c, 0, 57, 49
4, 95760, Note_on_c, 0, 57, 0
4, 95760, Note_on_c, 0, 52, 0
4, 95760, Note_on_c, 0, 45, 0
4, 96240, Note_on_c, 0, 50, 49
4, 96240, Note_on_c, 0, 54, 49
4, 96480, Note_on_c, 0, 54, 0
4, 96480, Note_on_c, 0, 50, 0
4, 96960, Note_on_c, 0, 43, 49
4, 96960, Note_on_c, 0, 50, 49
4, 96960, Note_on_c, 0, 55, 49
4, 97200, Note_on_c, 0, 55, 0
4, 97200, Note_on_c, 0, 50, 0
4, 97200, Note_on_c, 0, 43, 0
4, 97680, Note_on_c, 0, 47, 49
4, 97680, Note_on_c, 0, 50, 49
4, 97920, Note_on_c, 0, 50, 0
4, 97920, Note_on_c, 0, 47, 0
4, 98400, Note_on_c, 0, 45, 49
4, 98400, Note_on_c, 0, 48, 49
4, 98400, Note_on_c, 0, 52, 49
4, 98640, Note_on_c, 0, 52, 0
4, 98640, Note_on_c, 0, 48, 0
4, 98640, Note_on_c, 0, 45, 0
4, 99120, Note_on_c, 0, 43, 49
4, 99120, Note_on_c, 0, 48, 49
4, 99120, Note_on_c, 0, 52, 49
4, 99360, Note_on_c, 0, 52, 0
4, 99360, Note_on_c, 0, 48, 0
4, 99360, Note_on_c, 0, 43, 0
4, 99840, Note_on_c, 0, 47, 62
4, 99960, Note_on_c, 0, 47, 0
4, 99960, Note_on_c, 0, 49, 62
4, 100080, Note_on_c, 0, 49, 0
4, 100080, Note_on_c, 0, 51, 62
4, 100200, Note_on_c, 0, 51, 0
4, 100200, Note_on_c, 0, 52, 62
4, 100320, Note_on_c, 0, 52, 0
4, 100320, Note_on_c, 0, 54, 62
4, 100440, Note_on_c, 0, 54, 0
4, 100440, Note_on_c, 0, 55, 62
4, 100560, Note_on_c, 0, 55, 0
4, 100560, Note_on_c, 0, 57, 62
4, 100680, Note_on_c, 0, 57, 0
4, 100680, Note_on_c, 0, 59, 62
4, 100800, Note_on_c, 0, 59, 0
4, 100800, Note_on_c, 0, 61, 62
4, 100920, Note_on_c, 0, 61, 0
4, 100920, Note_on_c, 0, 63, 62
4, 101040, Note_on_c, 0, 63, 0
4, 101040, Note_on_c, 0, 64, 62
4, 101160, Note_on_c, 0, 64, 0
4, 101160, Note_on_c, 0, 66, 62
4, 101280, Note_on_c, 0, 66, 0
4, 101280, Note_on_c, 0, 67, 62
4, 101400, Note_on_c, 0, 67, 0
4, 101400, Note_on_c, 0, 66, 62
4, 101520, Note_on_c, 0, 66, 0
4, 101520, Note_on_c, 0, 64, 62
4, 101640, Note_on_c, 0, 64, 0
4, 101640, Note_on_c, 0, 62, 62
4, 101760, Note_on_c, 0, 62, 0
4, 101760, Note_on_c, 0, 60, 62
4, 101880, Note_on_c, 0, 60, 0
4, 101880, Note_on_c, 0, 59, 62
4, 102000, Note_on_c, 0, 59, 0
4, 102000, Note_on_c, 0, 57, 62
4, 102120, Note_on_c, 0, 57, 0
4, 102120, Note_on_c, 0, 55, 62
4, 102240, Note_on_c, 0, 55, 0
4, 102240, Note_on_c, 0, 54, 62
4, 102360, Note_on_c, 0, 54, 0
4, 102360, Note_on_c, 0, 52, 62
4, 102480, Note_on_c, 0, 52, 0
4, 102480, Note_on_c, 0, 50, 62
4, 102600, Note_on_c, 0, 50, 0
4, 102600, Note_on_c, 0, 48, 62
4, 102720, Note_on_c, 0, 48, 0
4, 102720, Note_on_c, 0, 47, 62
4, 102840, Note_on_c, 0, 47, 0
4, 102840, Note_on_c, 0, 49, 62
4, 102960, Note_on_c, 0, 49, 0
4, 102960, Note_on_c, 0, 51, 62
4, 103080, Note_on_c, 0, 51, 0
4, 103080, Note_on_c, 0, 52, 62
4, 103200, Note_on_c, 0, 52, 0
4, 103200, Note_on_c, 0, 54, 62
4, 103320, Note_on_c, 0, 54, 0
4, 103320, Note_on_c, 0, 55, 62
4, 103440, Note_on_c, 0, 55, 0
4, 103440, Note_on_c, 0, 57, 62
4, 103560, Note_on_c, 0, 57, 0
4, 103560, Note_on_c, 0, 59, 62
4, 103680, Note_on_c, 0, 59, 0
4, 103680, Note_on_c, 0, 60, 62
4, 103800, Note_on_c, 0, 60, 0
4, 103800, Note_on_c, 0, 62, 62
4, 103920, Note_on_c, 0, 62, 0
4, 103920, Note_on_c, 0, 64, 62
4, 104040, Note_on_c, 0, 64, 0
4, 104040, Note_on_c, 0, 66, 62
4, 104160, Note_on_c, 0, 66, 0
4, 104160, Note_on_c, 0, 67, 62
4, 104280, Note_on_c, 0, 67, 0
4, 104280, Note_on_c, 0, 66, 62
4, 104400, Note_on_c, 0, 66, 0
4, 104400, Note_on_c, 0, 64, 62
4, 104520, Note_on_c, 0, 64, 0
4, 104520, Note_on_c, 0, 62, 62
4, 104640, Note_on_c, 0, 62, 0
4, 104640, Note_on_c, 0, 60, 62
4, 104760, Note_on_c, 0, 60, 0
4, 104760, Note_on_c, 0, 59, 62
4, 104880, Note_on_c, 0, 59, 0
4, 104880, Note_on_c, 0, 57, 62
4, 105000, Note_on_c, 0, 57, 0
4, 105000, Note_on_c, 0, 55, 62
4, 105120, Note_on_c, 0, 55, 0
4, 105120, Note_on_c, 0, 54, 62
4, 105240, Note_on_c, 0, 54, 0
4, 105240, Note_on_c, 0, 52, 62
4, 105360, Note_on_c, 0, 52, 0
4, 105360, Note_on_c, 0, 50, 62
4, 105480, Note_on_c, 0, 50, 0
4, 105480, Note_on_c, 0, 48, 62
4, 105600, Note_on_c, 0, 48, 0
4, 105600, Note_on_c, 0, 47, 62
4, 105720, Note_on_c, 0, 47, 0
4, 105720, Note_on_c, 0, 49, 62
4, 105840, Note_on_c, 0, 49, 0
4, 105840, Note_on_c, 0, 51, 62
4, 105960, Note_on_c, 0, 51, 0
4, 105960, Note_on_c, 0, 52, 62
4, 106080, Note_on_c, 0, 52, 0
4, 106080, Note_on_c, 0, 54, 62
4, 106200, Note_on_c, 0, 54, 0
4, 106200, Note_on_c, 0, 55, 62
4, 106320, Note_on_c, 0, 55, 0
4, 106320, Note_on_c, 0, 57, 62
4, 106440, Note_on_c, 0, 57, 0
4, 106440, Note_on_c, 0, 59, 62
4, 106560, Note_on_c, 0, 59, 0
4, 106560, Note_on_c, 0, 60, 62
4, 106680, Note_on_c, 0, 60, 0
4, 106680, Note_on_c, 0, 62, 62
4, 106800, Note_on_c, 0, 62, 0
4, 106800, Note_on_c, 0, 64, 62
4, 106920, Note_on_c, 0, 64, 0
4, 106920, Note_on_c, 0, 66, 62
4, 107040, Note_on_c, 0, 66, 0
4, 107040, Note_on_c, 0, 67, 62
4, 107160, Note_on_c, 0, 67, 0
4, 107160, Note_on_c, 0, 66, 62
4, 107280, Note_on_c, 0, 66, 0
4, 107280, Note_on_c, 0, 64, 62
4, 107400, Note_on_c, 0, 64, 0
4, 107400, Note_on_c, 0, 62, 62
4, 107520, Note_on_c, 0, 62, 0
4, 107520, Note_on_c, 0, 60, 62
4, 107640, Note_on_c, 0, 60, 0
4, 107640, Note_on_c, 0, 59, 62
4, 107760, Note_on_c, 0, 59, 0
4, 107760, Note_on_c, 0, 57, 62
4, 107880, Note_on_c, 0, 57, 0
4, 107880, Note_on_c, 0, 55, 62
4, 108000, Note_on_c, 0, 55, 0
4, 108000, Note_on_c, 0, 54, 62
4, 108120, Note_on_c, 0, 54, 0
4, 108120, Note_on_c, 0, 52, 62
4, 108240, Note_on_c, 0, 52, 0
4, 108240, Note_on_c, 0, 50, 62
4, 108360, Note_on_c, 0, 50, 0
4, 108360, Note_on_c, 0, 48, 62
4, 108480, Note_on_c, 0, 48, 0
4, 108480, Note_on_c, 0, 47, 62
4, 108600, Note_on_c, 0, 47, 0
4, 108600, Note_on_c, 0, 49, 62
4, 108720, Note_on_c, 0, 49, 0
4, 108720, Note_on_c, 0, 51, 62
4, 108840, Note_on_c, 0, 51, 0
4, 108840, Note_on_c, 0, 52, 62
4, 108960, Note_on_c, 0, 52, 0
4, 108960, Note_on_c, 0, 54, 62
4, 109080, Note_on_c, 0, 54, 0
4, 109080, Note_on_c, 0, 55, 62
4, 109200, Note_on_c, 0, 55, 0
4, 109200, Note_on_c, 0, 57, 62
4, 109320, Note_on_c, 0, 57, 0
4, 109320, Note_on_c, 0, 59, 62
4, 109440, Note_on_c, 0, 59, 0
4, 109440, Note_on_c, 0, 60, 62
4, 109560, Note_on_c, 0, 60, 0
4, 109560, Note_on_c, 0, 62, 62
4, 109680, Note_on_c, 0, 62, 0
4, 109680, Note_on_c, 0, 64, 62
4, 109800, Note_on_c, 0, 64, 0
4, 109800, Note_on_c, 0, 66, 62
4, 109920, Note_on_c, 0, 66, 0
4, 109920, Note_on_c, 0, 67, 62
4, 110040, Note_on_c, 0, 67, 0
4, 110040, Note_on_c, 0, 66, 62
4, 110160, Note_on_c, 0, 66, 0
4, 110160, Note_on_c, 0, 64, 62
4, 110280, Note_on_c, 0, 64, 0
4, 110280, Note_on_c, 0, 62, 62
4, 110400, Note_on_c, 0, 62, 0
4, 110400, Note_on_c, 0, 60, 62
4, 110520, Note_on_c, 0, 60, 0
4, 110520, Note_on_c, 0, 59, 62
4, 110640, Note_on_c, 0, 59, 0
4, 110640, Note_on_c, 0, 57, 62
4, 110760, Note_on_c, 0, 57, 0
4, 110760, Note_on_c, 0, 55, 62
4, 110880, Note_on_c, 0, 55, 0
4, 110880, Note_on_c, 0, 54, 62
4, 111000, Note_on_c, 0, 54, 0
4, 111000, Note_on_c, 0, 52, 62
4, 111120, Note_on_c, 0, 52, 0
4, 111120, Note_on_c, 0, 50, 62
4, 111240, Note_on_c, 0, 50, 0
4, 111240, Note_on_c, 0, 48, 62
4, 111360, Note_on_c, 0, 48, 0
4, 111360, Note_on_c, 0, 47, 62
4, 111480, Note_on_c, 0, 47, 0
4, 111480, Note_on_c, 0, 49, 62
4, 111600, Note_on_c, 0, 49, 0
4, 111600, Note_on_c, 0, 51, 62
4, 111720, Note_on_c, 0, 51, 0
4, 111720, Note_on_c, 0, 52, 62
4, 111840, Note_on_c, 0, 52, 0
4, 111840, Note_on_c, 0, 54, 62
4, 111960, Note_on_c, 0, 54, 0
4, 111960, Note_on_c, 0, 55, 62
4, 112080, Note_on_c, 0, 55, 0
4, 112080, Note_on_c, 0, 57, 62
4, 112200, Note_on_c, 0, 57, 0
4, 112200, Note_on_c, 0, 58, 62
4, 112320, Note_on_c, 0, 58, 0
4, 112320, Note_on_c, 0, 52, 62
4, 112320, Note_on_c, 0, 55, 62
4, 112320, Note_on_c, 0, 59, 62
4, 112367, Note_on_c, 0, 59, 0
4, 112367, Note_on_c, 0, 55, 0
4, 112367, Note_on_c, 0, 52, 0
4, 112560, Note_on_c, 0, 53, 62
4, 112560, Note_on_c, 0, 56, 62
4, 112560, Note_on_c, 0, 59, 62
4, 112560, Note_on_c, 0, 62, 62
4, 112607, Note_on_c, 0, 62, 0
4, 112607, Note_on_c, 0, 53, 0
4, 112607, Note_on_c, 0, 56, 0
4, 112607, Note_on_c, 0, 59, 0
4, 112710, Note_on_c, 0, 54, 62
4, 112740, Note_on_c, 0, 57, 62
4, 112770, Note_on_c, 0, 62, 62
4, 112800, Note_on_c, 0, 69, 88
4, 113760, Note_on_c, 0, 69, 0
4, 113760, Note_on_c, 0, 54, 0
4, 113760, Note_on_c, 0, 57, 0
4, 113760, Note_on_c, 0, 62, 0
4, 113760, Note_on_c, 0, 52, 62
4, 113760, Note_on_c, 0, 57, 62
4, 113760, Note_on_c, 0, 60, 62
4, 113760, Note_on_c, 0, 64, 62
4, 114480, Note_on_c, 0, 64, 0
4, 114480, Note_on_c, 0, 52, 0
4, 114480, Note_on_c, 0, 57, 0
4, 114480, Note_on_c, 0, 60, 0
4, 114480, Note_on_c, 0, 50, 49
4, 114480, Note_on_c, 0, 57, 49
4, 114480, Note_on_c, 0, 60, 49
4, 114480, Note_on_c, 0, 62, 49
4, 115200, Note_on_c, 0, 62, 0
4, 115200, Note_on_c, 0, 50, 0
4, 115200, Note_on_c, 0, 57, 0
4, 115200, Note_on_c, 0, 60, 0
4, 115200, Note_on_c, 0, 45, 49
4, 115200, Note_on_c, 0, 50, 49
4, 115200, Note_on_c, 0, 54, 49
4, 115680, Note_on_c, 0, 54, 0
4, 115680, Note_on_c, 0, 50, 0
4, 115680, Note_on_c, 0, 45, 0
4, 115680, Note_on_c, 0, 43, 75
4, 115680, Note_on_c, 0, 50, 75
4, 115680, Note_on_c, 0, 55, 75
4, 115920, Note_on_c, 0, 55, 0
4, 115920, Note_on_c, 0, 50, 0
4, 115920, Note_on_c, 0, 43, 0
4, 115920, Control_c, 0, 64, 127
4, 115920, Note_on_c, 0, 54, 75
4, 115920, Note_on_c, 0, 57, 75
4, 116160, Note_on_c, 0, 57, 0
4, 116160, Note_on_c, 0, 54, 0
4, 116160, Note_on_c, 0, 53, 75
4, 116160, Note_on_c, 0, 59, 75
4, 116400, Note_on_c, 0, 59, 0
4, 116400, Note_on_c, 0, 53, 0
4, 116400, Note_on_c, 0, 52, 75
4, 116400, Note_on_c, 0, 60, 75
4, 116640, Note_on_c, 0, 60, 0
4, 116640, Note_on_c, 0, 52, 0
4, 116640, Note_on_c, 0, 51, 75
4, 116640, Note_on_c, 0, 61, 75
4, 116880, Note_on_c, 0, 61, 0
4, 116880, Note_on_c, 0, 51, 0
4, 116880, Control_c, 0, 64, 0
4, 116880, Note_on_c, 0, 50, 75
4, 116880, Note_on_c, 0, 55, 75
4, 116880, Note_on_c, 0, 62, 75
4, 117120, Note_on_c, 0, 62, 0
4, 117120, Note_on_c, 0, 55, 0
4, 117120, Note_on_c, 0, 50, 0
4, 117120, Note_on_c, 0, 64, 88
4, 117240, Note_on_c, 0, 64, 0
4, 117240, Note_on_c, 0, 66, 88
4, 117360, Note_on_c, 0, 66, 0
4, 117360, Note_on_c, 0, 67, 88
4, 117480, Note_on_c, 0, 67, 0
4, 117480, Note_on_c, 0, 69, 75
4, 117600, Note_on_c, 0, 69, 0
4, 117600, Note_on_c, 0, 67, 75
4, 117720, Note_on_c, 0, 67, 0
4, 117720, Note_on_c, 0, 66, 75
4, 117840, Note_on_c, 0, 66, 0
4, 117840, Note_on_c, 0, 64, 75
4, 117840, Note_on_c, 0, 67, 75
4, 118080, Note_on_c, 0, 67, 0
4, 118080, Note_on_c, 0, 64, 0
4, 118080, Note_on_c, 0, 52, 62
4, 118080, Note_on_c, 0, 55, 62
4, 118080, Note_on_c, 0, 59, 62
4, 118127, Note_on_c, 0, 59, 0
4, 118127, Note_on_c, 0, 55, 0
4, 118127, Note_on_c, 0, 52, 0
4, 118320, Note_on_c, 0, 53, 62
4, 118320, Note_on_c, 0, 56, 62
4, 118320, Note_on_c, 0, 59, 62
4, 118320, Note_on_c, 0, 62, 62
4, 118367, Note_on_c, 0, 62, 0
4, 118367, Note_on_c, 0, 53, 0
4, 118367, Note_on_c, 0, 56, 0
4, 118367, Note_on_c, 0, 59, 0
4, 118470, Note_on_c, 0, 54, 62
4, 118500, Note_on_c, 0, 57, 62
4, 118530, Note_on_c, 0, 62, 62
4, 118560, Note_on_c, 0, 69, 88
4, 119520, Note_on_c, 0, 69, 0
4, 119520, Note_on_c, 0, 54, 0
4, 119520, Note_on_c, 0, 57, 0
4, 119520, Note_on_c, 0, 62, 0
4, 119520, Note_on_c, 0, 52, 62
4, 119520, Note_on_c, 0, 57, 62
4, 119520, Note_on_c, 0, 60, 62
4, 119520, Note_on_c, 0, 64, 62
4, 120240, Note_on_c, 0, 64, 0
4, 120240, Note_on_c, 0, 52, 0
4, 120240, Note_on_c, 0, 57, 0
4, 120240, Note_on_c, 0, 60, 0
4, 120240, Note_on_c, 0, 50, 49
4, 120240, Note_on_c, 0, 57, 49
4, 120240, Note_on_c, 0, 60, 49
4, 120240, Note_on_c, 0, 62, 49
4, 120960, Note_on_c, 0, 62, 0
4, 120960, Note_on_c, 0, 50, 0
4, 120960, Note_on_c, 0, 57, 0
4, 120960, Note_on_c, 0, 60, 0
4, 120960, Note_on_c, 0, 45, 49
4, 120960, Note_on_c, 0, 50, 49
4, 120960, Note_on_c, 0, 54, 49
4, 121440, Note_on_c, 0, 54, 0
4, 121440, Note_on_c, 0, 50, 0
4, 121440, Note_on_c, 0, 45, 0
4, 121440, Note_on_c, 0, 43, 75
4, 121440, Note_on_c, 0, 50, 75
4, 121440, Note_on_c, 0, 55, 75
4, 121680, Note_on_c, 0, 55, 0
4, 121680, Note_on_c, 0, 50, 0
4, 121680, Note_on_c, 0, 43, 0
4, 121680, Note_on_c, 0, 54, 75
4, 121680, Note_on_c, 0, 63, 75
4, 121920, Note_on_c, 0, 63, 0
4, 121920, Note_on_c, 0, 54, 0
4, 121920, Note_on_c, 0, 52, 75
4, 121920, Note_on_c, 0, 64, 75
4, 122080, Note_on_c, 0, 50, 75
4, 122120, Note_on_c, 0, 59, 75
4, 122160, Note_on_c, 0, 64, 0
4, 122160, Note_on_c, 0, 52, 0
4, 122160, Note_on_c, 0, 66, 75
4, 122400, Note_on_c, 0, 66, 0
4, 122400, Note_on_c, 0, 50, 0
4, 122400, Note_on_c, 0, 59, 0
4, 122400, Note_on_c, 0, 67, 75
4, 122520, Note_on_c, 0, 67, 0
4, 122520, Note_on_c, 0, 69, 75
4, 122640, Note_on_c, 0, 69, 0
4, 122640, Note_on_c, 0, 71, 88
4, 122760, Note_on_c, 0, 71, 0
4, 122760, Note_on_c, 0, 70, 88
4, 122880, Note_on_c, 0, 70, 0
4, 122880, Note_on_c, 0, 71, 88
4, 123000, Note_on_c, 0, 71, 0
4, 123000, Note_on_c, 0, 73, 88
4, 123120, Note_on_c, 0, 73, 0
4, 123840, Note_on_c, 0, 52, 62
4, 123840, Note_on_c, 0, 55, 62
4, 123840, Note_on_c, 0, 59, 62
4, 123887, Note_on_c, 0, 59, 0
4, 123887, Note_on_c, 0, 55, 0
4, 123887, Note_on_c, 0, 52, 0
4, 124080, Note_on_c, 0, 53, 62
4, 124080, Note_on_c, 0, 56, 62
4, 124080, Note_on_c, 0, 59, 62
4, 124080, Note_on_c, 0, 62, 62
4, 124127, Note_on_c, 0, 62, 0
4, 124127, Note_on_c, 0, 53, 0
4, 124127, Note_on_c, 0, 56, 0
4, 124127, Note_on_c, 0, 59, 0
4, 124230, Note_on_c, 0, 54, 62
4, 124260, Note_on_c, 0, 57, 62
4, 124290, Note_on_c, 0, 62, 62
4, 124320, Note_on_c, 0, 69, 88
4, 125280, Note_on_c, 0, 69, 0
4, 125280, Note_on_c, 0, 54, 0
4, 125280, Note_on_c, 0, 57, 0
4, 125280, Note_on_c, 0, 62, 0
4, 125280, Note_on_c, 0, 52, 62
4, 125280, Note_on_c, 0, 57, 62
4, 125280, Note_on_c, 0, 60, 62
4, 125280, Note_on_c, 0, 64, 62
4, 126000, Note_on_c, 0, 64, 0
4, 126000, Note_on_c, 0, 52, 0
4, 126000, Note_on_c, 0, 57, 0
4, 126000, Note_on_c, 0, 60, 0
4, 126000, Note_on_c, 0, 50, 49
4, 126000, Note_on_c, 0, 57, 49
4, 126000, Note_on_c, 0, 60, 49
4, 126000, Note_on_c, 0, 62, 49
4, 126720, Note_on_c, 0, 62, 0
4, 126720, Note_on_c, 0, 50, 0
4, 126720, Note_on_c, 0, 57, 0
4, 126720, Note_on_c, 0, 60, 0
4, 126720, Note_on_c, 0, 45, 49
4, 126720, Note_on_c, 0, 50, 49
4, 126720, Note_on_c, 0, 54, 49
4, 127200, Note_on_c, 0, 54, 0
4, 127200, Note_on_c, 0, 50, 0
4, 127200, Note_on_c, 0, 45, 0
4, 127200, Note_on_c, 0, 43, 75
4, 127200, Note_on_c, 0, 50, 75
4, 127200, Note_on_c, 0, 55, 75
4, 127440, Note_on_c, 0, 55, 0
4, 127440, Note_on_c, 0, 50, 0
4, 127440, Note_on_c, 0, 43, 0
4, 127440, Control_c, 0, 64, 127
4, 127440, Note_on_c, 0, 54, 75
4, 127440, Note_on_c, 0, 57, 75
4, 127680, Note_on_c, 0, 57, 0
4, 127680, Note_on_c, 0, 54, 0
4, 127680, Note_on_c, 0, 53, 75
4, 127680, Note_on_c, 0, 59, 75
4, 127920, Note_on_c, 0, 59, 0
4, 127920, Note_on_c, 0, 53, 0
4, 127920, Note_on_c, 0, 52, 75
4, 127920, Note_on_c, 0, 60, 75
4, 128160, Note_on_c, 0, 60, 0
4, 128160, Note_on_c, 0, 52, 0
4, 128160, Note_on_c, 0, 51, 75
4, 128160, Note_on_c, 0, 61, 75
4, 128400, Note_on_c, 0, 61, 0
4, 128400, Note_on_c, 0, 51, 0
4, 128400, Control_c, 0, 64, 0
4, 128400, Note_on_c, 0, 50, 75
4, 128400, Note_on_c, 0, 55, 75
4, 128400, Note_on_c, 0, 62, 75
4, 128640, Note_on_c, 0, 62, 0
4, 128640, Note_on_c, 0, 55, 0
4, 128640, Note_on_c, 0, 50, 0
4, 128640, Note_on_c, 0, 64, 88
4, 128760, Note_on_c, 0, 64, 0
4, 128760, Note_on_c, 0, 66, 88
4, 128880, Note_on_c, 0, 66, 0
4, 128880, Note_on_c, 0, 67, 88
4, 129000, Note_on_c, 0, 67, 0
4, 129000, Note_on_c, 0, 69, 75
4, 129120, Note_on_c, 0, 69, 0
4, 129120, Note_on_c, 0, 67, 75
4, 129240, Note_on_c, 0, 67, 0
4, 129240, Note_on_c, 0, 66, 75
4, 129360, Note_on_c, 0, 66, 0
4, 129360, Note_on_c, 0, 64, 75
4, 129360, Note_on_c, 0, 67, 75
4, 129600, Note_on_c, 0, 67, 0
4, 129600, Note_on_c, 0, 64, 0
4, 129600, Note_on_c, 0, 52, 62
4, 129600, Note_on_c, 0, 55, 62
4, 129600, Note_on_c, 0, 59, 62
4, 129647, Note_on_c, 0, 59, 0
4, 129647, Note_on_c, 0, 55, 0
4, 129647, Note_on_c, 0, 52, 0
4, 129840, Note_on_c, 0, 53, 62
4, 129840, Note_on_c, 0, 56, 62
4, 129840, Note_on_c, 0, 59, 62
4, 129840, Note_on_c, 0, 62, 62
4, 129887, Note_on_c, 0, 62, 0
4, 129887, Note_on_c, 0, 53, 0
4, 129887, Note_on_c, 0, 56, 0
4, 129887, Note_on_c, 0, 59, 0
4, 130080, Note_on_c, 0, 54, 88
4, 130080, Note_on_c, 0, 57, 88
4, 130080, Note_on_c, 0, 62, 88
4, 130080, Note_on_c, 0, 69, 88
4, 131040, Note_on_c, 0, 69, 0
4, 131040, Note_on_c, 0, 54, 0
4, 131040, Note_on_c, 0, 57, 0
4, 131040, Note_on_c, 0, 62, 0
4, 131040, Note_on_c, 0, 52, 62
4, 131040, Note_on_c, 0, 57, 62
4, 131040, Note_on_c, 0, 60, 62
4, 131040, Note_on_c, 0, 64, 62
4, 131760, Note_on_c, 0, 64, 0
4, 131760, Note_on_c, 0, 52, 0
4, 131760, Note_on_c, 0, 57, 0
4, 131760, Note_on_c, 0, 60, 0
4, 131760, Note_on_c, 0, 50, 49
4, 131760, Note_on_c, 0, 57, 49
4, 131760, Note_on_c, 0, 60, 49
4, 131760, Note_on_c, 0, 62, 49
4, 132480, Note_on_c, 0, 62, 0
4, 132480, Note_on_c, 0, 50, 0
4, 132480, Note_on_c, 0, 57, 0
4, 132480, Note_on_c, 0, 60, 0
4, 132480, Note_on_c, 0, 45, 49
4, 132480, Note_on_c, 0, 50, 49
4, 132480, Note_on_c, 0, 54, 49
4, 132960, Note_on_c, 0, 54, 0
4, 132960, Note_on_c, 0, 50, 0
4, 132960, Note_on_c, 0, 45, 0
4, 132960, Note_on_c, 0, 43, 75
4, 132960, Note_on_c, 0, 50, 75
4, 132960, Note_on_c, 0, 55, 75
4, 133200, Note_on_c, 0, 55, 0
4, 133200, Note_on_c, 0, 50, 0
4, 133200, Note_on_c, 0, 43, 0
4, 133200, Note_on_c, 0, 54, 75
4, 133200, Note_on_c, 0, 63, 75
4, 133440, Note_on_c, 0, 63, 0
4, 133440, Note_on_c, 0, 54, 0
4, 133440, Note_on_c, 0, 52, 75
4, 133440, Note_on_c, 0, 64, 75
4, 133600, Note_on_c, 0, 50, 75
4, 133640, Note_on_c, 0, 59, 75
4, 133680, Note_on_c, 0, 64, 0
4, 133680, Note_on_c, 0, 52, 0
4, 133680, Note_on_c, 0, 66, 75
4, 133920, Note_on_c, 0, 66, 0
4, 133920, Note_on_c, 0, 50, 0
4, 133920, Note_on_c, 0, 59, 0
4, 133920, Note_on_c, 0, 67, 75
4, 134040, Note_on_c, 0, 67, 0
4, 134040, Note_on_c, 0, 69, 75
4, 134160, Note_on_c, 0, 69, 0
4, 134160, Note_on_c, 0, 71, 88
4, 134280, Note_on_c, 0, 71, 0
4, 134280, Note_on_c, 0, 70, 88
4, 134400, Note_on_c, 0, 70, 0
4, 134400, Note_on_c, 0, 67, 88
4, 134640, Note_on_c, 0, 67, 0
4, 134640, Note_on_c, 0, 66, 88
4, 134880, Note_on_c, 0, 66, 0
4, 134880, Note_on_c, 0, 64, 75
4, 134880, Note_on_c, 0, 70, 75
4, 135120, Note_on_c, 0, 70, 0
4, 135120, Note_on_c, 0, 64, 0
4, 135120, Note_on_c, 0, 62, 75
4, 135120, Note_on_c, 0, 71, 75
4, 135360, Note_on_c, 0, 71, 0
4, 135360, Note_on_c, 0, 62, 0
4, 135360, Note_on_c, 0, 61, 75
4, 135360, Note_on_c, 0, 70, 75
4, 135600, Note_on_c, 0, 70, 0
4, 135600, Note_on_c, 0, 61, 0
4, 135600, Note_on_c, 0, 59, 88
4, 135600, Note_on_c, 0, 71, 88
4, 135840, Note_on_c, 0, 71, 0
4, 135840, Note_on_c, 0, 59, 0
4, 135840, Note_on_c, 0, 64, 88
4, 135960, Note_on_c, 0, 64, 0
4, 135960, Note_on_c, 0, 61, 88
4, 136080, Note_on_c, 0, 61, 0
4, 136080, Note_on_c, 0, 62, 75
4, 136200, Note_on_c, 0, 62, 0
4, 136200, Note_on_c, 0, 66, 75
4, 136320, Note_on_c, 0, 66, 0
4, 136320, Note_on_c, 0, 64, 75
4, 136440, Note_on_c, 0, 64, 0
4, 136440, Note_on_c, 0, 61, 75
4, 136560, Note_on_c, 0, 61, 0
4, 136560, Note_on_c, 0, 54, 75
4, 136560, Note_on_c, 0, 62, 75
4, 136800, Note_on_c, 0, 62, 0
4, 136800, Note_on_c, 0, 54, 0
4, 136800, Note_on_c, 0, 52, 75
4, 136800, Note_on_c, 0, 58, 75
4, 137040, Note_on_c, 0, 58, 0
4, 137040, Note_on_c, 0, 52, 0
4, 137040, Note_on_c, 0, 50, 88
4, 137040, Note_on_c, 0, 59, 88
4, 137280, Note_on_c, 0, 59, 0
4, 137280, Note_on_c, 0, 50, 0
4, 137280, Note_on_c, 0, 49, 88
4, 137280, Note_on_c, 0, 58, 88
4, 137520, Note_on_c, 0, 58, 0
4, 137520, Note_on_c, 0, 49, 0
4, 137520, Note_on_c, 0, 47, 88
4, 137520, Note_on_c, 0, 59, 88
4, 137760, Note_on_c, 0, 59, 0
4, 137760, Note_on_c, 0, 47, 0
4, 137760, Note_on_c, 0, 45, 88
4, 137760, Note_on_c, 0, 57, 88
4, 138000, Note_on_c, 0, 57, 0
4, 138000, Note_on_c, 0, 45, 0
4, 138000, Note_on_c, 0, 43, 88
4, 138000, Note_on_c, 0, 55, 88
4, 138240, Note_on_c, 0, 55, 0
4, 138240, Note_on_c, 0, 43, 0
4, 138240, Note_on_c, 0, 42, 88
4, 138240, Note_on_c, 0, 54, 88
4, 138480, Note_on_c, 0, 54, 0
4, 138480, Note_on_c, 0, 42, 0
4, 138480, Note_on_c, 0, 40, 88
4, 138480, Note_on_c, 0, 52, 88
4, 138720, Note_on_c, 0, 52, 0
4, 138720, Note_on_c, 0, 40, 0
4, 138720, Note_on_c, 0, 38, 88
4, 138720, Note_on_c, 0, 50, 88
4, 139080, Note_on_c, 0, 50, 0
4, 139080, Note_on_c, 0, 38, 0
4, 139080, Note_on_c, 0, 38, 88
4, 139080, Note_on_c, 0, 50, 88
4, 139200, Note_on_c, 0, 50, 0
4, 139200, Note_on_c, 0, 38, 0
4, 139200, Note_on_c, 0, 38, 88
4, 139200, Note_on_c, 0, 50, 88
4, 139440, Note_on_c, 0, 50, 0
4, 139440, Note_on_c, 0, 38, 0
4, 140880, Note_on_c, 0, 64, 88
4, 141600, Note_on_c, 0, 64, 0
4, 141600, Note_on_c, 0, 38, 88
4, 141600, Note_on_c, 0, 50, 88
4, 141960, Note_on_c, 0, 50, 0
4, 141960, Note_on_c, 0, 38, 0
4, 141960, Note_on_c, 0, 38, 88
4, 141960, Note_on_c, 0, 50, 88
4, 142080, Note_on_c, 0, 50, 0
4, 142080, Note_on_c, 0, 38, 0
4, 142080, Note_on_c, 0, 38, 88
4, 142080, Note_on_c, 0, 50, 88
4, 142320, Note_on_c, 0, 50, 0
4, 142320, Note_on_c, 0, 38, 0
4, 143760, Note_on_c, 0, 64, 88
4, 144480, Note_on_c, 0, 64, 0
4, 144480, Note_on_c, 0, 38, 88
4, 144480, Note_on_c, 0, 50, 88
4, 144840, Note_on_c, 0, 50, 0
4, 144840, Note_on_c, 0, 38, 0
4, 144840, Note_on_c, 0, 38, 88
4, 144840, Note_on_c, 0, 50, 88
4, 144960, Note_on_c, 0, 50, 0
4, 144960, Note_on_c, 0, 38, 0
4, 144960, Note_on_c, 0, 38, 88
4, 144960, Note_on_c, 0, 50, 88
4, 145200, Note_on_c, 0, 50, 0
4, 145200, Note_on_c, 0, 38, 0
4, 145200, Note_on_c, 0, 54, 88
4, 145920, Note_on_c, 0, 54, 0
4, 145920, Note_on_c, 0, 43, 88
4, 145920, Note_on_c, 0, 55, 88
4, 146160, Note_on_c, 0, 55, 0
4, 146160, Note_on_c, 0, 43, 0
4, 146160, Note_on_c, 0, 42, 88
4, 146160, Note_on_c, 0, 54, 88
4, 146400, Note_on_c, 0, 54, 0
4, 146400, Note_on_c, 0, 42, 0
4, 146400, Note_on_c, 0, 40, 88
4, 146400, Note_on_c, 0, 52, 88
4, 146640, Note_on_c, 0, 52, 0
4, 146640, Note_on_c, 0, 40, 0
4, 146640, Note_on_c, 0, 38, 88
4, 146640, Note_on_c, 0, 50, 88
4, 146880, Note_on_c, 0, 50, 0
4, 146880, Note_on_c, 0, 38, 0
4, 146880, Note_on_c, 0, 37, 88
4, 146880, Note_on_c, 0, 49, 88
4, 147120, Note_on_c, 0, 49, 0
4, 147120, Note_on_c, 0, 37, 0
4, 147120, Note_on_c, 0, 35, 88
4, 147120, Note_on_c, 0, 47, 88
4, 147360, Note_on_c, 0, 47, 0
4, 147360, Note_on_c, 0, 35, 0
4, 147360, Note_on_c, 0, 43, 88
4, 147360, Note_on_c, 0, 55, 88
4, 147720, Note_on_c, 0, 55, 0
4, 147720, Note_on_c, 0, 43, 0
4, 147720, Note_on_c, 0, 43, 88
4, 147720, Note_on_c, 0, 55, 88
4, 147840, Note_on_c, 0, 55, 0
4, 147840, Note_on_c, 0, 43, 0
4, 147840, Note_on_c, 0, 43, 88
4, 147840, Note_on_c, 0, 55, 88
4, 148080, Note_on_c, 0, 55, 0
4, 148080, Note_on_c, 0, 43, 0
4, 149520, Note_on_c, 0, 69, 88
4, 150240, Note_on_c, 0, 69, 0
4, 150240, Note_on_c, 0, 43, 88
4, 150240, Note_on_c, 0, 55, 88
4, 150600, Note_on_c, 0, 55, 0
4, 150600, Note_on_c, 0, 43, 0
4, 150600, Note_on_c, 0, 43, 88
4, 150600, Note_on_c, 0, 55, 88
4, 150720, Note_on_c, 0, 55, 0
4, 150720, Note_on_c, 0, 43, 0
4, 150720, Note_on_c, 0, 43, 88
4, 150720, Note_on_c, 0, 55, 88
4, 150960, Note_on_c, 0, 55, 0
4, 150960, Note_on_c, 0, 43, 0
4, 152400, Note_on_c, 0, 69, 88
4, 153120, Note_on_c, 0, 69, 0
4, 153120, Note_on_c, 0, 43, 88
4, 153120, Note_on_c, 0, 55, 88
4, 153480, Note_on_c, 0, 55, 0
4, 153480, Note_on_c, 0, 43, 0
4, 153480, Note_on_c, 0, 43, 88
4, 153480, Note_on_c, 0, 55, 88
4, 153600, Note_on_c, 0, 55, 0
4, 153600, Note_on_c, 0, 43, 0
4, 153600, Note_on_c, 0, 43, 88
4, 153600, Note_on_c, 0, 55, 88
4, 153840, Note_on_c, 0, 55, 0
4, 153840, Note_on_c, 0, 43, 0
4, 153840, Note_on_c, 0, 59, 88
4, 154560, Note_on_c, 0, 59, 0
4, 154560, Note_on_c, 0, 48, 88
4, 154560, Note_on_c, 0, 60, 88
4, 154800, Note_on_c, 0, 60, 0
4, 154800, Note_on_c, 0, 48, 0
4, 154800, Note_on_c, 0, 47, 88
4, 154800, Note_on_c, 0, 59, 88
4, 155040, Note_on_c, 0, 59, 0
4, 155040, Note_on_c, 0, 47, 0
4, 155040, Note_on_c, 0, 45, 88
4, 155040, Note_on_c, 0, 57, 88
4, 155280, Note_on_c, 0, 57, 0
4, 155280, Note_on_c, 0, 45, 0
4, 155280, Note_on_c, 0, 43, 88
4, 155280, Note_on_c, 0, 55, 88
4, 155520, Note_on_c, 0, 55, 0
4, 155520, Note_on_c, 0, 43, 0
4, 155520, Note_on_c, 0, 42, 88
4, 155520, Note_on_c, 0, 54, 88
4, 155760, Note_on_c, 0, 54, 0
4, 155760, Note_on_c, 0, 42, 0
4, 155760, Note_on_c, 0, 40, 88
4, 155760, Note_on_c, 0, 52, 88
4, 156000, Note_on_c, 0, 52, 0
4, 156000, Note_on_c, 0, 40, 0
4, 156000, Note_on_c, 0, 48, 88
4, 156000, Note_on_c, 0, 54, 88
4, 156000, Note_on_c, 0, 57, 88
4, 156360, Note_on_c, 0, 57, 0
4, 156360, Note_on_c, 0, 54, 0
4, 156360, Note_on_c, 0, 48, 0
4, 156360, Note_on_c, 0, 48, 88
4, 156360, Note_on_c, 0, 54, 88
4, 156360, Note_on_c, 0, 57, 88
4, 156480, Note_on_c, 0, 57, 0
4, 156480, Note_on_c, 0, 54, 0
4, 156480, Note_on_c, 0, 48, 0
4, 156480, Note_on_c, 0, 48, 88
4, 156480, Note_on_c, 0, 54, 88
4, 156480, Note_on_c, 0, 57, 88
4, 156720, Note_on_c, 0, 57, 0
4, 156720, Note_on_c, 0, 54, 0
4, 156720, Note_on_c, 0, 48, 0
4, 156720, Note_on_c, 0, 43, 88
4, 156720, Note_on_c, 0, 55, 88
4, 157080, Note_on_c, 0, 55, 0
4, 157080, Note_on_c, 0, 43, 0
4, 157080, Note_on_c, 0, 43, 88
4, 157080, Note_on_c, 0, 55, 88
4, 157200, Note_on_c, 0, 55, 0
4, 157200, Note_on_c, 0, 43, 0
4, 157200, Note_on_c, 0, 43, 88
4, 157200, Note_on_c, 0, 55, 88
4, 157440, Note_on_c, 0, 55, 0
4, 157440, Note_on_c, 0, 43, 0
4, 157440, Note_on_c, 0, 48, 88
4, 157440, Note_on_c, 0, 54, 88
4, 157440, Note_on_c, 0, 57, 88
4, 157800, Note_on_c, 0, 57, 0
4, 157800, Note_on_c, 0, 54, 0
4, 157800, Note_on_c, 0, 48, 0
4, 157800, Note_on_c, 0, 48, 88
4, 157800, Note_on_c, 0, 54, 88
4, 157800, Note_on_c, 0, 57, 88
4, 157920, Note_on_c, 0, 57, 0
4, 157920, Note_on_c, 0, 54, 0
4, 157920, Note_on_c, 0, 48, 0
4, 157920, Note_on_c, 0, 48, 88
4, 157920, Note_on_c, 0, 54, 88
4, 157920, Note_on_c, 0, 57, 88
4, 158160, Note_on_c, 0, 57, 0
4, 158160, Note_on_c, 0, 54, 0
4, 158160, Note_on_c, 0, 48, 0
4, 158160, Note_on_c, 0, 43, 88
4, 158160, Note_on_c, 0, 55, 88
4, 158520, Note_on_c, 0, 55, 0
4, 158520, Note_on_c, 0, 43, 0
4, 158520, Note_on_c, 0, 43, 88
4, 158520, Note_on_c, 0, 55, 88
4, 158640, Note_on_c, 0, 55, 0
4, 158640, Note_on_c, 0, 43, 0
4, 158640, Note_on_c, 0, 43, 88
4, 158640, Note_on_c, 0, 55, 88
4, 158880, Note_on_c, 0, 55, 0
4, 158880, Note_on_c, 0, 43, 0
4, 158880, Note_on_c, 0, 48, 88
4, 158880, Note_on_c, 0, 54, 88
4, 158880, Note_on_c, 0, 57, 88
4, 159120, Note_on_c, 0, 57, 0
4, 159120, Note_on_c, 0, 54, 0
4, 159120, Note_on_c, 0, 48, 0
4, 159120, Note_on_c, 0, 48, 88
4, 159120, Note_on_c, 0, 54, 88
4, 159120, Note_on_c, 0, 57, 88
4, 159360, Note_on_c, 0, 57, 0
4, 159360, Note_on_c, 0, 54, 0
4, 159360, Note_on_c, 0, 48, 0
4, 159360, Note_on_c, 0, 55, 101
4, 159360, Note_on_c, 0, 59, 101
4, 159360, Note_on_c, 0, 64, 101
4, 159600, Note_on_c, 0, 64, 0
4, 159600, Note_on_c, 0, 59, 0
4, 159600, Note_on_c, 0, 55, 0
4, 159600, Note_on_c, 0, 55, 101
4, 159600, Note_on_c, 0, 59, 101
4, 159600, Note_on_c, 0, 64, 101
4, 159840, Note_on_c, 0, 64, 0
4, 159840, Note_on_c, 0, 59, 0
4, 159840, Note_on_c, 0, 55, 0
4, 159840, Note_on_c, 0, 48, 88
4, 159840, Note_on_c, 0, 54, 88
4, 159840, Note_on_c, 0, 57, 88
4, 160080, Note_on_c, 0, 57, 0
4, 160080, Note_on_c, 0, 54, 0
4, 160080, Note_on_c, 0, 48, 0
4, 160080, Note_on_c, 0, 48, 88
4, 160080, Note_on_c, 0, 54, 88
4, 160080, Note_on_c, 0, 57, 88
4, 160320, Note_on_c, 0, 57, 0
4, 160320, Note_on_c, 0, 54, 0
4, 160320, Note_on_c, 0, 48, 0
4, 160320, Note_on_c, 0, 55, 101
4, 160320, Note_on_c, 0, 59, 101
4, 160320, Note_on_c, 0, 64, 101
4, 160560, Note_on_c, 0, 64, 0
4, 160560, Note_on_c, 0, 59, 0
4, 160560, Note_on_c, 0, 55, 0
4, 160560, Note_on_c, 0, 48, 88
4, 160560, Note_on_c, 0, 54, 88
4, 160560, Note_on_c, 0, 57, 88
4, 160800, Note_on_c, 0, 57, 0
4, 160800, Note_on_c, 0, 54, 0
4, 160800, Note_on_c, 0, 48, 0
4, 160800, Note_on_c, 0, 55, 101
4, 160800, Note_on_c, 0, 59, 101
4, 160800, Note_on_c, 0, 64, 101
4, 161040, Note_on_c, 0, 64, 0
4, 161040, Note_on_c, 0, 59, 0
4, 161040, Note_on_c, 0, 55, 0
4, 161040, Note_on_c, 0, 48, 88
4, 161040, Note_on_c, 0, 54, 88
4, 161040, Note_on_c, 0, 57, 88
4, 161280, Note_on_c, 0, 57, 0
4, 161280, Note_on_c, 0, 54, 0
4, 161280, Note_on_c, 0, 48, 0
4, 161280, Note_on_c, 0, 55, 101
4, 161280, Note_on_c, 0, 59, 101
4, 161280, Note_on_c, 0, 64, 101
4, 161520, Note_on_c, 0, 64, 0
4, 161520, Note_on_c, 0, 59, 0
4, 161520, Note_on_c, 0, 55, 0
4, 161520, Note_on_c, 0, 48, 88
4, 161520, Note_on_c, 0, 54, 88
4, 161520, Note_on_c, 0, 57, 88
4, 161760, Note_on_c, 0, 57, 0
4, 161760, Note_on_c, 0, 54, 0
4, 161760, Note_on_c, 0, 48, 0
4, 161760, Note_on_c, 0, 43, 101
4, 161760, Note_on_c, 0, 55, 101
4, 162000, Note_on_c, 0, 55, 0
4, 162000, Note_on_c, 0, 43, 0
4, 162000, Note_on_c, 0, 42, 101
4, 162000, Note_on_c, 0, 54, 101
4, 162240, Note_on_c, 0, 54, 0
4, 162240, Note_on_c, 0, 42, 0
4, 162240, Note_on_c, 0, 40, 101
4, 162240, Note_on_c, 0, 52, 101
4, 162480, Note_on_c, 0, 52, 0
4, 162480, Note_on_c, 0, 40, 0
4, 162480, Note_on_c, 0, 38, 101
4, 162480, Note_on_c, 0, 50, 101
4, 162720, Note_on_c, 0, 50, 0
4, 162720, Note_on_c, 0, 38, 0
4, 162720, Note_on_c, 0, 36, 101
4, 162720, Note_on_c, 0, 48, 101
4, 162960, Note_on_c, 0, 48, 0
4, 162960, Note_on_c, 0, 36, 0
4, 162960, Note_on_c, 0, 35, 101
4, 162960, Note_on_c, 0, 47, 101
4, 163200, Note_on_c, 0, 47, 0
4, 163200, Note_on_c, 0, 35, 0
4, 163200, Note_on_c, 0, 33, 101
4, 163200, Note_on_c, 0, 45, 101
4, 163440, Note_on_c, 0, 45, 0
4, 163440, Note_on_c, 0, 33, 0
4, 163440, Note_on_c, 0, 67, 101
4, 163680, Note_on_c, 0, 67, 0
4, 163680, Note_on_c, 0, 66, 101
4, 163920, Note_on_c, 0, 66, 0
4, 163920, Note_on_c, 0, 64, 101
4, 164160, Note_on_c, 0, 64, 0
4, 164640, Note_on_c, 0, 47, 101
4, 164640, Note_on_c, 0, 59, 101
4, 164880, Note_on_c, 0, 59, 0
4, 164880, Note_on_c, 0, 47, 0
4, 164880, Note_on_c, 0, 45, 101
4, 164880, Note_on_c, 0, 57, 101
4, 165120, Note_on_c, 0, 57, 0
4, 165120, Note_on_c, 0, 45, 0
4, 165120, Note_on_c, 0, 43, 101
4, 165120, Note_on_c, 0, 55, 101
4, 165360, Note_on_c, 0, 55, 0
4, 165360, Note_on_c, 0, 43, 0
4, 165360, Note_on_c, 0, 41, 101
4, 165360, Note_on_c, 0, 53, 101
4, 165600, Note_on_c, 0, 53, 0
4, 165600, Note_on_c, 0, 41, 0
4, 165600, Note_on_c, 0, 40, 101
4, 165600, Note_on_c, 0, 52, 101
4, 165840, Note_on_c, 0, 52, 0
4, 165840, Note_on_c, 0, 40, 0
4, 165840, Note_on_c, 0, 38, 101
4, 165840, Note_on_c, 0, 50, 101
4, 166080, Note_on_c, 0, 50, 0
4, 166080, Note_on_c, 0, 38, 0
4, 166080, Note_on_c, 0, 36, 101
4, 166080, Note_on_c, 0, 48, 101
4, 166320, Note_on_c, 0, 48, 0
4, 166320, Note_on_c, 0, 36, 0
4, 166320, Note_on_c, 0, 71, 101
4, 166560, Note_on_c, 0, 71, 0
4, 166560, Note_on_c, 0, 69, 101
4, 166800, Note_on_c, 0, 69, 0
4, 166800, Note_on_c, 0, 67, 101
4, 167040, Note_on_c, 0, 67, 0
4, 167040, Note_on_c, 0, 66, 101
4, 167280, Note_on_c, 0, 66, 0
4, 167280, Note_on_c, 0, 64, 101
4, 167520, Note_on_c, 0, 64, 0
4, 167520, Note_on_c, 0, 54, 101
4, 167760, Note_on_c, 0, 54, 0
4, 167760, Note_on_c, 0, 55, 101
4, 168000, Note_on_c, 0, 55, 0
4, 168000, Note_on_c, 0, 57, 101
4, 168240, Note_on_c, 0, 57, 0
4, 168240, Note_on_c, 0, 58, 101
4, 168480, Note_on_c, 0, 58, 0
4, 168480, Note_on_c, 0, 57, 101
4, 168720, Note_on_c, 0, 57, 0
4, 168720, Note_on_c, 0, 55, 101
4, 168960, Note_on_c, 0, 55, 0
4, 168960, Note_on_c, 0, 54, 101
4, 169200, Note_on_c, 0, 54, 0
4, 169200, Note_on_c, 0, 55, 101
4, 169440, Note_on_c, 0, 55, 0
4, 169440, Note_on_c, 0, 57, 101
4, 169680, Note_on_c, 0, 57, 0
4, 169680, Note_on_c, 0, 58, 101
4, 169920, Note_on_c, 0, 58, 0
4, 169920, Note_on_c, 0, 57, 101
4, 170160, Note_on_c, 0, 57, 0
4, 170160, Note_on_c, 0, 55, 101
4, 170400, Note_on_c, 0, 55, 0
4, 170400, Note_on_c, 0, 54, 101
4, 170640, Note_on_c, 0, 54, 0
4, 170640, Note_on_c, 0, 55, 101
4, 170880, Note_on_c, 0, 55, 0
4, 170880, Note_on_c, 0, 57, 101
4, 171120, Note_on_c, 0, 57, 0
4, 171120, Note_on_c, 0, 58, 101
4, 171360, Note_on_c, 0, 58, 0
4, 171360, Note_on_c, 0, 47, 101
4, 171360, Note_on_c, 0, 52, 101
4, 171360, Note_on_c, 0, 59, 101
4, 171600, Note_on_c, 0, 59, 0
4, 171600, Note_on_c, 0, 52, 0
4, 171600, Note_on_c, 0, 47, 0
4, 171600, Note_on_c, 0, 45, 101
4, 171600, Note_on_c, 0, 52, 101
4, 171600, Note_on_c, 0, 60, 101
4, 171840, Note_on_c, 0, 60, 0
4, 171840, Note_on_c, 0, 52, 0
4, 171840, Note_on_c, 0, 45, 0
4, 171840, Note_on_c, 0, 55, 101
4, 171840, Note_on_c, 0, 61, 101
4, 172080, Note_on_c, 0, 61, 0
4, 172080, Note_on_c, 0, 55, 0
4, 172080, Note_on_c, 0, 54, 101
4, 172080, Note_on_c, 0, 63, 101
4, 172320, Note_on_c, 0, 63, 0
4, 172320, Note_on_c, 0, 54, 0
4, 172320, Note_on_c, 0, 52, 101
4, 172320, Note_on_c, 0, 64, 101
4, 172560, Note_on_c, 0, 64, 0
4, 172560, Note_on_c, 0, 52, 0
4, 172560, Note_on_c, 0, 51, 101
4, 172560, Note_on_c, 0, 59, 101
4, 172800, Note_on_c, 0, 59, 0
4, 172800, Note_on_c, 0, 51, 0
4, 172800, Note_on_c, 0, 49, 101
4, 172800, Note_on_c, 0, 59, 101
4, 173040, Note_on_c, 0, 59, 0
4, 173040, Note_on_c, 0, 49, 0
4, 173040, Note_on_c, 0, 47, 101
4, 173040, Note_on_c, 0, 57, 101
4, 173040, Note_on_c, 0, 59, 101
4, 173280, Note_on_c, 0, 59, 0
4, 173280, Note_on_c, 0, 57, 0
4, 173280, Note_on_c, 0, 47, 0
4, 173280, Note_on_c, 0, 40, 88
4, 173280, Note_on_c, 0, 47, 88
4, 173280, Note_on_c, 0, 55, 88
4, 173520, Note_on_c, 0, 55, 0
4, 173520, Note_on_c, 0, 47, 0
4, 173520, Note_on_c, 0, 40, 0
4, 174000, Note_on_c, 0, 50, 88
4, 174000, Note_on_c, 0, 55, 88
4, 174000, Note_on_c, 0, 59, 88
4, 174720, Note_on_c, 0, 59, 0
4, 174720, Note_on_c, 0, 55, 0
4, 174720, Note_on_c, 0, 50, 0
4, 174720, Note_on_c, 0, 48, 88
4, 174720, Note_on_c, 0, 54, 88
4, 174720, Note_on_c, 0, 64, 88
4, 175440, Note_on_c, 0, 64, 0
4, 175440, Note_on_c, 0, 54, 0
4, 175440, Note_on_c, 0, 48, 0
4, 175440, Note_on_c, 0, 47, 88
4, 175440, Note_on_c, 0, 55, 88
4, 175440, Note_on_c, 0, 59, 88
4, 176080, Note_on_c, 0, 46, 88
4, 176120, Note_on_c, 0, 52, 88
4, 176160, Note_on_c, 0, 59, 0
4, 176160, Note_on_c, 0, 47, 0
4, 176160, Note_on_c, 0, 55, 0
4, 176160, Note_on_c, 0, 60, 88
4, 176880, Note_on_c, 0, 60, 0
4, 176880, Note_on_c, 0, 46, 0
4, 176880, Note_on_c, 0, 52, 0
4, 176880, Note_on_c, 0, 45, 88
4, 176880, Note_on_c, 0, 51, 88
4, 176880, Note_on_c, 0, 59, 88
4, 177600, Note_on_c, 0, 59, 0
4, 177600, Note_on_c, 0, 51, 0
4, 177600, Note_on_c, 0, 45, 0
4, 177600, Note_on_c, 0, 43, 88
4, 177600, Note_on_c, 0, 47, 88
4, 177600, Note_on_c, 0, 55, 88
4, 178320, Note_on_c, 0, 55, 0
4, 178320, Note_on_c, 0, 47, 0
4, 178320, Note_on_c, 0, 43, 0
4, 178320, Note_on_c, 0, 42, 88
4, 178320, Note_on_c, 0, 48, 88
4, 178320, Note_on_c, 0, 57, 88
4, 179040, Note_on_c, 0, 57, 0
4, 179040, Note_on_c, 0, 48, 0
4, 179040, Note_on_c, 0, 42, 0
4, 179040, Note_on_c, 0, 40, 88
4, 179040, Note_on_c, 0, 47, 88
4, 179040, Note_on_c, 0, 55, 88
4, 179760, Note_on_c, 0, 55, 0
4, 179760, Note_on_c, 0, 47, 0
4, 179760, Note_on_c, 0, 40, 0
4, 179760, Note_on_c, 0, 50, 88
4, 179760, Note_on_c, 0, 55, 88
4, 179760, Note_on_c, 0, 59, 88
4, 180480, Note_on_c, 0, 59, 0
4, 180480, Note_on_c, 0, 55, 0
4, 180480, Note_on_c, 0, 50, 0
4, 180480, Note_on_c, 0, 48, 88
4, 180480, Note_on_c, 0, 52, 88
4, 180480, Note_on_c, 0, 54, 88
4, 180480, Note_on_c, 0, 57, 88
4, 181200, Note_on_c, 0, 57, 0
4, 181200, Note_on_c, 0, 48, 0
4, 181200, Note_on_c, 0, 52, 0
4, 181200, Note_on_c, 0, 54, 0
4, 181200, Note_on_c, 0, 47, 88
4, 181200, Note_on_c, 0, 52, 88
4, 181200, Note_on_c, 0, 55, 88
4, 181200, Note_on_c, 0, 59, 88
4, 181920, Note_on_c, 0, 59, 0
4, 181920, Note_on_c, 0, 47, 0
4, 181920, Note_on_c, 0, 52, 0
4, 181920, Note_on_c, 0, 55, 0
4, 181920, Note_on_c, 0, 45, 88
4, 181920, Note_on_c, 0, 52, 88
4, 181920, Note_on_c, 0, 60, 88
4, 182640, Note_on_c, 0, 60, 0
4, 182640, Note_on_c, 0, 52, 0
4, 182640, Note_on_c, 0, 45, 0
4, 182640, Note_on_c, 0, 57, 88
4, 182880, Note_on_c, 0, 57, 0
4, 182880, Note_on_c, 0, 59, 88
4, 183120, Note_on_c, 0, 59, 0
4, 183120, Note_on_c, 0, 61, 88
4, 183360, Note_on_c, 0, 61, 0
4, 183360, Note_on_c, 0, 59, 88
4, 183600, Note_on_c, 0, 59, 0
4, 183600, Note_on_c, 0, 61, 88
4, 183840, Note_on_c, 0, 61, 0
4, 183840, Note_on_c, 0, 62, 88
4, 184080, Note_on_c, 0, 62, 0
4, 184080, Note_on_c, 0, 54, 88
4, 184080, Note_on_c, 0, 58, 88
4, 184080, Note_on_c, 0, 61, 88
4, 184320, Note_on_c, 0, 61, 0
4, 184320, Note_on_c, 0, 58, 0
4, 184320, Note_on_c, 0, 54, 0
4, 184320, Control_c, 0, 64, 127
4, 184320, Note_on_c, 0, 58, 101
4, 184440, Note_on_c, 0, 58, 0
4, 184440, Note_on_c, 0, 59, 101
4, 184560, Note_on_c, 0, 59, 0
4, 184560, Note_on_c, 0, 60, 101
4, 184680, Note_on_c, 0, 60, 0
4, 184680, Control_c, 0, 64, 0
4, 184680, Note_on_c, 0, 61, 101
4, 184800, Note_on_c, 0, 61, 0
4, 186000, Note_on_c, 0, 65, 49
4, 186240, Note_on_c, 0, 65, 0
4, 186240, Note_on_c, 0, 64, 49
4, 186960, Note_on_c, 0, 64, 0
4, 186960, Note_on_c, 0, 62, 62
4, 187440, Note_on_c, 0, 62, 0
4, 187440, Note_on_c, 0, 61, 62
4, 187680, Note_on_c, 0, 61, 0
4, 187680, Note_on_c, 0, 59, 75
4, 188400, Note_on_c, 0, 59, 0
4, 188400, Note_on_c, 0, 52, 62
4, 188400, Note_on_c, 0, 59, 62
4, 188400, Note_on_c, 0, 61, 62
4, 188880, Note_on_c, 0, 61, 0
4, 188880, Note_on_c, 0, 59, 0
4, 188880, Note_on_c, 0, 52, 0
4, 190080, Note_on_c, 0, 54, 62
4, 190320, Note_on_c, 0, 54, 0
4, 190320, Note_on_c, 0, 42, 62
4, 190560, Note_on_c, 0, 42, 0
4, 191760, Note_on_c, 0, 65, 49
4, 192000, Note_on_c, 0, 65, 0
4, 192000, Note_on_c, 0, 64, 49
4, 192720, Note_on_c, 0, 64, 0
4, 192720, Note_on_c, 0, 62, 75
4, 193200, Note_on_c, 0, 62, 0
4, 193200, Note_on_c, 0, 61, 75
4, 193440, Note_on_c, 0, 61, 0
4, 193440, Note_on_c, 0, 59, 88
4, 194160, Note_on_c, 0, 59, 0
4, 194160, Note_on_c, 0, 59, 88
4, 194400, Note_on_c, 0, 59, 0
4, 194400, Note_on_c, 0, 61, 62
4, 194640, Note_on_c, 0, 61, 0
4, 194640, Note_on_c, 0, 62, 62
4, 194880, Note_on_c, 0, 62, 0
4, 195840, Note_on_c, 0, 54, 62
4, 196080, Note_on_c, 0, 54, 0
4, 196080, Note_on_c, 0, 42, 62
4, 196320, Note_on_c, 0, 42, 0
4, 196320, Note_on_c, 0, 50, 88
4, 196320, Note_on_c, 0, 54, 88
4, 196320, Note_on_c, 0, 59, 88
4, 197520, Note_on_c, 0, 59, 0
4, 197520, Note_on_c, 0, 54, 0
4, 197520, Note_on_c, 0, 50, 0
4, 197520, Note_on_c, 0, 52, 62
4, 197520, Note_on_c, 0, 55, 62
4, 197520, Note_on_c, 0, 59, 62
4, 197760, Note_on_c, 0, 59, 0
4, 197760, Note_on_c, 0, 55, 0
4, 197760, Note_on_c, 0, 52, 0
4, 198720, Note_on_c, 0, 54, 62
4, 198960, Note_on_c, 0, 54, 0
4, 198960, Note_on_c, 0, 42, 62
4, 199200, Note_on_c, 0, 42, 0
4, 199200, Note_on_c, 0, 50, 88
4, 199200, Note_on_c, 0, 54, 88
4, 199200, Note_on_c, 0, 59, 88
4, 200400, Note_on_c, 0, 59, 0
4, 200400, Note_on_c, 0, 54, 0
4, 200400, Note_on_c, 0, 50, 0
4, 200400, Note_on_c, 0, 52, 62
4, 200400, Note_on_c, 0, 55, 62
4, 200400, Note_on_c, 0, 59, 62
4, 200640, Note_on_c, 0, 59, 0
4, 200640, Note_on_c, 0, 55, 0
4, 200640, Note_on_c, 0, 52, 0
4, 201600, Note_on_c, 0, 54, 62
4, 201840, Note_on_c, 0, 54, 0
4, 201840, Note_on_c, 0, 42, 62
4, 202080, Note_on_c, 0, 42, 0
4, 202080, Note_on_c, 0, 50, 88
4, 202080, Note_on_c, 0, 57, 88
4, 202080, Note_on_c, 0, 62, 88
4, 203520, Note_on_c, 0, 62, 0
4, 203520, Note_on_c, 0, 57, 0
4, 203520, Note_on_c, 0, 50, 0
4, 203520, Note_on_c, 0, 55, 88
4, 203520, Note_on_c, 0, 58, 88
4, 203520, Note_on_c, 0, 62, 88
4, 204960, Note_on_c, 0, 62, 0
4, 204960, Note_on_c, 0, 58, 0
4, 204960, Note_on_c, 0, 55, 0
4, 204960, Note_on_c, 0, 50, 88
4, 204960, Note_on_c, 0, 57, 88
4, 204960, Note_on_c, 0, 62, 88
4, 205680, Note_on_c, 0, 62, 0
4, 205680, Note_on_c, 0, 57, 0
4, 205680, Note_on_c, 0, 50, 0
4, 205680, Note_on_c, 0, 55, 88
4, 205680, Note_on_c, 0, 58, 88
4, 205680, Note_on_c, 0, 62, 88
4, 206400, Note_on_c, 0, 62, 0
4, 206400, Note_on_c, 0, 58, 0
4, 206400, Note_on_c, 0, 55, 0
4, 206400, Note_on_c, 0, 57, 88
4, 206640, Note_on_c, 0, 57, 0
4, 206640, Note_on_c, 0, 59, 88
4, 206880, Note_on_c, 0, 59, 0
4, 206880, Note_on_c, 0, 61, 88
4, 207120, Note_on_c, 0, 61, 0
4, 207120, Note_on_c, 0, 62, 75
4, 207360, Note_on_c, 0, 62, 0
4, 207360, Note_on_c, 0, 64, 75
4, 207600, Note_on_c, 0, 64, 0
4, 207600, Note_on_c, 0, 65, 75
4, 207840, Note_on_c, 0, 65, 0
4, 208080, Note_on_c, 0, 65, 75
4, 208127, Note_on_c, 0, 65, 0
4, 208320, Note_on_c, 0, 64, 75
4, 208367, Note_on_c, 0, 64, 0
4, 208560, Note_on_c, 0, 62, 62
4, 208607, Note_on_c, 0, 62, 0
4, 208800, Note_on_c, 0, 61, 62
4, 208847, Note_on_c, 0, 61, 0
4, 209040, Note_on_c, 0, 59, 62
4, 209087, Note_on_c, 0, 59, 0
4, 209280, Note_on_c, 0, 55, 62
4, 209327, Note_on_c, 0, 55, 0
4, 209520, Note_on_c, 0, 54, 62
4, 209567, Note_on_c, 0, 54, 0
4, 209760, Note_on_c, 0, 52, 62
4, 209807, Note_on_c, 0, 52, 0
4, 210000, Note_on_c, 0, 50, 75
4, 210047, Note_on_c, 0, 50, 0
4, 210240, Note_on_c, 0, 47, 75
4, 210287, Note_on_c, 0, 47, 0
4, 210480, Note_on_c, 0, 46, 75
4, 210527, Note_on_c, 0, 46, 0
4, 210720, Note_on_c, 0, 47, 88
4, 210767, Note_on_c, 0, 47, 0
4, 210960, Note_on_c, 0, 50, 88
4, 211007, Note_on_c, 0, 50, 0
4, 211200, Note_on_c, 0, 54, 88
4, 211247, Note_on_c, 0, 54, 0
4, 211440, Note_on_c, 0, 64, 88
4, 211487, Note_on_c, 0, 64, 0
4, 211680, Note_on_c, 0, 64, 75
4, 211727, Note_on_c, 0, 64, 0
4, 211920, Note_on_c, 0, 67, 62
4, 211967, Note_on_c, 0, 67, 0
4, 213120, Note_on_c, 0, 54, 62
4, 213360, Note_on_c, 0, 54, 0
4, 213360, Note_on_c, 0, 42, 62
4, 213600, Note_on_c, 0, 42, 0
4, 213840, Note_on_c, 0, 65, 62
4, 213887, Note_on_c, 0, 65, 0
4, 214080, Note_on_c, 0, 64, 62
4, 214127, Note_on_c, 0, 64, 0
4, 214320, Note_on_c, 0, 62, 62
4, 214367, Note_on_c, 0, 62, 0
4, 214560, Note_on_c, 0, 61, 62
4, 214607, Note_on_c, 0, 61, 0
4, 214800, Note_on_c, 0, 59, 62
4, 214847, Note_on_c, 0, 59, 0
4, 215040, Note_on_c, 0, 55, 62
4, 215087, Note_on_c, 0, 55, 0
4, 215280, Note_on_c, 0, 54, 62
4, 215327, Note_on_c, 0, 54, 0
4, 215520, Note_on_c, 0, 52, 62
4, 215567, Note_on_c, 0, 52, 0
4, 215760, Note_on_c, 0, 50, 75
4, 215807, Note_on_c, 0, 50, 0
4, 216000, Note_on_c, 0, 47, 75
4, 216047, Note_on_c, 0, 47, 0
4, 216240, Note_on_c, 0, 46, 75
4, 216287, Note_on_c, 0, 46, 0
4, 216480, Note_on_c, 0, 47, 88
4, 216527, Note_on_c, 0, 47, 0
4, 216720, Note_on_c, 0, 54, 88
4, 216767, Note_on_c, 0, 54, 0
4, 216960, Note_on_c, 0, 59, 88
4, 217007, Note_on_c, 0, 59, 0
4, 217200, Note_on_c, 0, 59, 88
4, 217247, Note_on_c, 0, 59, 0
4, 217440, Note_on_c, 0, 61, 75
4, 217487, Note_on_c, 0, 61, 0
4, 217680, Note_on_c, 0, 62, 62
4, 217727, Note_on_c, 0, 62, 0
4, 218880, Note_on_c, 0, 54, 62
4, 219120, Note_on_c, 0, 54, 0
4, 219120, Note_on_c, 0, 42, 62
4, 219360, Note_on_c, 0, 42, 0
4, 219360, Note_on_c, 0, 59, 49
4, 220560, Note_on_c, 0, 59, 0
4, 220560, Note_on_c, 0, 57, 49
4, 220800, Note_on_c, 0, 57, 0
4, 220800, Note_on_c, 0, 52, 62
4, 220800, Note_on_c, 0, 55, 62
4, 220800, Note_on_c, 0, 64, 62
4, 222240, Note_on_c, 0, 64, 0
4, 222240, Note_on_c, 0, 55, 0
4, 222240, Note_on_c, 0, 52, 0
4, 222240, Note_on_c, 0, 57, 49
4, 223440, Note_on_c, 0, 57, 0
4, 223440, Note_on_c, 0, 55, 49
4, 223680, Note_on_c, 0, 55, 0
4, 223680, Note_on_c, 0, 50, 62
4, 223680, Note_on_c, 0, 54, 62
4, 223680, Note_on_c, 0, 62, 62
4, 225120, Note_on_c, 0, 62, 0
4, 225120, Note_on_c, 0, 54, 0
4, 225120, Note_on_c, 0, 50, 0
4, 225120, Note_on_c, 0, 47, 49
4, 225120, Note_on_c, 0, 50, 49
4, 225120, Note_on_c, 0, 54, 49
4, 225120, Note_on_c, 0, 55, 49
4, 225840, Note_on_c, 0, 55, 0
4, 225840, Note_on_c, 0, 47, 0
4, 225840, Note_on_c, 0, 50, 0
4, 225840, Note_on_c, 0, 54, 0
4, 225840, Note_on_c, 0, 59, 49
4, 225840, Note_on_c, 0, 61, 49
4, 226560, Note_on_c, 0, 61, 0
4, 226560, Note_on_c, 0, 59, 0
4, 226560, Note_on_c, 0, 45, 49
4, 226560, Note_on_c, 0, 49, 49
4, 226560, Note_on_c, 0, 54, 49
4, 227280, Note_on_c, 0, 54, 0
4, 227280, Note_on_c, 0, 49, 0
4, 227280, Note_on_c, 0, 45, 0
4, 227280, Note_on_c, 0, 57, 49
4, 227280, Note_on_c, 0, 59, 49
4, 228000, Note_on_c, 0, 59, 0
4, 228000, Note_on_c, 0, 57, 0
4, 228000, Note_on_c, 0, 43, 49
4, 228000, Note_on_c, 0, 47, 49
4, 228000, Note_on_c, 0, 52, 49
4, 228720, Note_on_c, 0, 52, 0
4, 228720, Note_on_c, 0, 47, 0
4, 228720, Note_on_c, 0, 43, 0
4, 228720, Note_on_c, 0, 55, 49
4, 228720, Note_on_c, 0, 57, 49
4, 229440, Note_on_c, 0, 57, 0
4, 229440, Note_on_c, 0, 55, 0
4, 229440, Note_on_c, 0, 42, 49
4, 229440, Note_on_c, 0, 45, 49
4, 229440, Note_on_c, 0, 50, 49
4, 230160, Note_on_c, 0, 50, 0
4, 230160, Note_on_c, 0, 45, 0
4, 230160, Note_on_c, 0, 42, 0
4, 230160, Note_on_c, 0, 54, 49
4, 230160, Note_on_c, 0, 55, 49
4, 230880, Note_on_c, 0, 55, 0
4, 230880, Note_on_c, 0, 54, 0
4, 230880, Note_on_c, 0, 40, 49
4, 230880, Note_on_c, 0, 47, 49
4, 230880, Note_on_c, 0, 52, 49
4, 232320, Note_on_c, 0, 52, 0
4, 232320, Note_on_c, 0, 47, 0
4, 232320, Note_on_c, 0, 40, 0
4, 232320, Note_on_c, 0, 52, 49
4, 232320, Note_on_c, 0, 59, 49
4, 232320, Note_on_c, 0, 64, 49
4, 233760, Note_on_c, 0, 64, 0
4, 233760, Note_on_c, 0, 59, 0
4, 233760, Note_on_c, 0, 52, 0
4, 233760, Note_on_c, 0, 38, 49
4, 233760, Note_on_c, 0, 47, 49
4, 233760, Note_on_c, 0, 52, 49
4, 235200, Note_on_c, 0, 52, 0
4, 235200, Note_on_c, 0, 47, 0
4, 235200, Note_on_c, 0, 38, 0
4, 235200, Note_on_c, 0, 50, 49
4, 235200, Note_on_c, 0, 55, 49
4, 235200, Note_on_c, 0, 59, 49
4, 235200, Note_on_c, 0, 64, 49
4, 236640, Note_on_c, 0, 64, 0
4, 236640, Note_on_c, 0, 50, 0
4, 236640, Note_on_c, 0, 55, 0
4, 236640, Note_on_c, 0, 59, 0
4, 237360, Note_on_c, 0, 37, 88
4, 237360, Note_on_c, 0, 45, 88
4, 237360, Note_on_c, 0, 52, 88
4, 237407, Note_on_c, 0, 52, 0
4, 237407, Note_on_c, 0, 45, 0
4, 237407, Note_on_c, 0, 37, 0
4, 237600, Note_on_c, 0, 49, 101
4, 237647, Note_on_c, 0, 49, 0
4, 237840, Note_on_c, 0, 52, 101
4, 237887, Note_on_c, 0, 52, 0
4, 238080, Note_on_c, 0, 57, 101
4, 238127, Note_on_c, 0, 57, 0
4, 239520, Control_c, 0, 64, 127
4, 239520, Note_on_c, 0, 38, 75
4, 239520, Note_on_c, 0, 45, 75
4, 239760, Note_on_c, 0, 45, 0
4, 239760, Note_on_c, 0, 38, 0
4, 239760, Note_on_c, 0, 50, 75
4, 239760, Note_on_c, 0, 57, 75
4, 240000, Note_on_c, 0, 57, 0
4, 240000, Note_on_c, 0, 50, 0
4, 240000, Note_on_c, 0, 38, 75
4, 240000, Note_on_c, 0, 45, 75
4, 240240, Note_on_c, 0, 45, 0
4, 240240, Note_on_c, 0, 38, 0
4, 240240, Note_on_c, 0, 38, 75
4, 240240, Note_on_c, 0, 45, 75
4, 240480, Note_on_c, 0, 45, 0
4, 240480, Note_on_c, 0, 38, 0
4, 240480, Note_on_c, 0, 50, 75
4, 240480, Note_on_c, 0, 57, 75
4, 240720, Note_on_c, 0, 57, 0
4, 240720, Note_on_c, 0, 50, 0
4, 240720, Note_on_c, 0, 38, 75
4, 240720, Note_on_c, 0, 45, 75
4, 240960, Note_on_c, 0, 45, 0
4, 240960, Note_on_c, 0, 38, 0
4, 240960, Note_on_c, 0, 38, 75
4, 240960, Note_on_c, 0, 45, 75
4, 241200, Note_on_c, 0, 45, 0
4, 241200, Note_on_c, 0, 38, 0
4, 241200, Note_on_c, 0, 50, 75
4, 241200, Note_on_c, 0, 57, 75
4, 241440, Note_on_c, 0, 57, 0
4, 241440, Note_on_c, 0, 50, 0
4, 241440, Note_on_c, 0, 38, 75
4, 241440, Note_on_c, 0, 45, 75
4, 241680, Note_on_c, 0, 45, 0
4, 241680, Note_on_c, 0, 38, 0
4, 241680, Note_on_c, 0, 38, 75
4, 241680, Note_on_c, 0, 45, 75
4, 241920, Note_on_c, 0, 45, 0
4, 241920, Note_on_c, 0, 38, 0
4, 241920, Note_on_c, 0, 50, 75
4, 241920, Note_on_c, 0, 57, 75
4, 242160, Note_on_c, 0, 57, 0
4, 242160, Note_on_c, 0, 50, 0
4, 242160, Note_on_c, 0, 38, 75
4, 242160, Note_on_c, 0, 45, 75
4, 242400, Note_on_c, 0, 45, 0
4, 242400, Note_on_c, 0, 38, 0
4, 242400, Control_c, 0, 64, 0
4, 242640, Note_on_c, 0, 66, 62
4, 242880, Note_on_c, 0, 66, 0
4, 242880, Note_on_c, 0, 65, 62
4, 243120, Note_on_c, 0, 65, 0
4, 243120, Note_on_c, 0, 64, 62
4, 243120, Note_on_c, 0, 67, 62
4, 243360, Note_on_c, 0, 67, 0
4, 243360, Note_on_c, 0, 64, 0
4, 243360, Note_on_c, 0, 62, 75
4, 243360, Note_on_c, 0, 66, 75
4, 243600, Note_on_c, 0, 66, 0
4, 243600, Note_on_c, 0, 62, 0
4, 243600, Note_on_c, 0, 61, 75
4, 243600, Note_on_c, 0, 64, 75
4, 243840, Note_on_c, 0, 64, 0
4, 243840, Note_on_c, 0, 61, 0
4, 243840, Note_on_c, 0, 62, 88
4, 244560, Note_on_c, 0, 62, 0
4, 244560, Note_on_c, 0, 52, 88
4, 244560, Note_on_c, 0, 62, 88
4, 245040, Note_on_c, 0, 62, 0
4, 245040, Note_on_c, 0, 52, 0
4, 245040, Note_on_c, 0, 57, 62
4, 245040, Note_on_c, 0, 61, 62
4, 245280, Note_on_c, 0, 61, 0
4, 245280, Note_on_c, 0, 57, 0
4, 245280, Control_c, 0, 64, 127
4, 245280, Note_on_c, 0, 38, 75
4, 245280, Note_on_c, 0, 45, 75
4, 245520, Note_on_c, 0, 45, 0
4, 245520, Note_on_c, 0, 38, 0
4, 245520, Note_on_c, 0, 50, 75
4, 245520, Note_on_c, 0, 57, 75
4, 245760, Note_on_c, 0, 57, 0
4, 245760, Note_on_c, 0, 50, 0
4, 245760, Note_on_c, 0, 38, 75
4, 245760, Note_on_c, 0, 45, 75
4, 246000, Note_on_c, 0, 45, 0
4, 246000, Note_on_c, 0, 38, 0
4, 246000, Note_on_c, 0, 38, 75
4, 246000, Note_on_c, 0, 45, 75
4, 246240, Note_on_c, 0, 45, 0
4, 246240, Note_on_c, 0, 38, 0
4, 246240, Note_on_c, 0, 50, 75
4, 246240, Note_on_c, 0, 57, 75
4, 246480, Note_on_c, 0, 57, 0
4, 246480, Note_on_c, 0, 50, 0
4, 246480, Note_on_c, 0, 38, 75
4, 246480, Note_on_c, 0, 45, 75
4, 246720, Note_on_c, 0, 45, 0
4, 246720, Note_on_c, 0, 38, 0
4, 246720, Note_on_c, 0, 38, 75
4, 246720, Note_on_c, 0, 45, 75
4, 246960, Note_on_c, 0, 45, 0
4, 246960, Note_on_c, 0, 38, 0
4, 246960, Note_on_c, 0, 50, 75
4, 246960, Note_on_c, 0, 57, 75
4, 247200, Note_on_c, 0, 57, 0
4, 247200, Note_on_c, 0, 50, 0
4, 247200, Note_on_c, 0, 38, 75
4, 247200, Note_on_c, 0, 45, 75
4, 247440, Note_on_c, 0, 45, 0
4, 247440, Note_on_c, 0, 38, 0
4, 247440, Note_on_c, 0, 38, 75
4, 247440, Note_on_c, 0, 45, 75
4, 247680, Note_on_c, 0, 45, 0
4, 247680, Note_on_c, 0, 38, 0
4, 247680, Note_on_c, 0, 50, 75
4, 247680, Note_on_c, 0, 57, 75
4, 247920, Note_on_c, 0, 57, 0
4, 247920, Note_on_c, 0, 50, 0
4, 247920, Note_on_c, 0, 38, 75
4, 247920, Note_on_c, 0, 45, 75
4, 248160, Note_on_c, 0, 45, 0
4, 248160, Note_on_c, 0, 38, 0
4, 248160, Control_c, 0, 64, 0
4, 248400, Note_on_c, 0, 66, 62
4, 248640, Note_on_c, 0, 66, 0
4, 248640, Note_on_c, 0, 65, 62
4, 248880, Note_on_c, 0, 65, 0
4, 248880, Note_on_c, 0, 64, 62
4, 248880, Note_on_c, 0, 67, 62
4, 249120, Note_on_c, 0, 67, 0
4, 249120, Note_on_c, 0, 64, 0
4, 249120, Note_on_c, 0, 62, 75
4, 249120, Note_on_c, 0, 66, 75
4, 249360, Note_on_c, 0, 66, 0
4, 249360, Note_on_c, 0, 62, 0
4, 249360, Note_on_c, 0, 61, 75
4, 249360, Note_on_c, 0, 64, 75
4, 249600, Note_on_c, 0, 64, 0
4, 249600, Note_on_c, 0, 61, 0
4, 249600, Note_on_c, 0, 62, 88
4, 250320, Note_on_c, 0, 62, 0
4, 250320, Note_on_c, 0, 52, 88
4, 250320, Note_on_c, 0, 59, 88
4, 250320, Note_on_c, 0, 62, 88
4, 250800, Note_on_c, 0, 62, 0
4, 250800, Note_on_c, 0, 59, 0
4, 250800, Note_on_c, 0, 52, 0
4, 250800, Note_on_c, 0, 57, 62
4, 250800, Note_on_c, 0, 61, 62
4, 251040, Note_on_c, 0, 61, 0
4, 251040, Note_on_c, 0, 57, 0
4, 251040, Control_c, 0, 64, 127
4, 251040, Note_on_c, 0, 38, 75
4, 251040, Note_on_c, 0, 45, 75
4, 251280, Note_on_c, 0, 45, 0
4, 251280, Note_on_c, 0, 38, 0
4, 251280, Note_on_c, 0, 50, 75
4, 251280, Note_on_c, 0, 57, 75
4, 251520, Note_on_c, 0, 57, 0
4, 251520, Note_on_c, 0, 50, 0
4, 251520, Note_on_c, 0, 38, 75
4, 251520, Note_on_c, 0, 45, 75
4, 251760, Note_on_c, 0, 45, 0
4, 251760, Note_on_c, 0, 38, 0
4, 251760, Note_on_c, 0, 38, 75
4, 251760, Note_on_c, 0, 45, 75
4, 252000, Note_on_c, 0, 45, 0
4, 252000, Note_on_c, 0, 38, 0
4, 252000, Note_on_c, 0, 50, 75
4, 252000, Note_on_c, 0, 57, 75
4, 252240, Note_on_c, 0, 57, 0
4, 252240, Note_on_c, 0, 50, 0
4, 252240, Note_on_c, 0, 38, 75
4, 252240, Note_on_c, 0, 45, 75
4, 252480, Note_on_c, 0, 45, 0
4, 252480, Note_on_c, 0, 38, 0
4, 252480, Note_on_c, 0, 38, 75
4, 252480, Note_on_c, 0, 45, 75
4, 252720, Note_on_c, 0, 45, 0
4, 252720, Note_on_c, 0, 38, 0
4, 252720, Note_on_c, 0, 50, 75
4, 252720, Note_on_c, 0, 57, 75
4, 252960, Note_on_c, 0, 57, 0
4, 252960, Note_on_c, 0, 50, 0
4, 252960, Note_on_c, 0, 38, 75
4, 252960, Note_on_c, 0, 45, 75
4, 253200, Note_on_c, 0, 45, 0
4, 253200, Note_on_c, 0, 38, 0
4, 253200, Note_on_c, 0, 38, 75
4, 253200, Note_on_c, 0, 45, 75
4, 253440, Note_on_c, 0, 45, 0
4, 253440, Note_on_c, 0, 38, 0
4, 253440, Note_on_c, 0, 50, 75
4, 253440, Note_on_c, 0, 57, 75
4, 253680, Note_on_c, 0, 57, 0
4, 253680, Note_on_c, 0, 50, 0
4, 253680, Note_on_c, 0, 38, 75
4, 253680, Note_on_c, 0, 45, 75
4, 253920, Note_on_c, 0, 45, 0
4, 253920, Note_on_c, 0, 38, 0
4, 253920, Control_c, 0, 64, 0
4, 254160, Note_on_c, 0, 66, 62
4, 254400, Note_on_c, 0, 66, 0
4, 254400, Note_on_c, 0, 65, 62
4, 254640, Note_on_c, 0, 65, 0
4, 254640, Note_on_c, 0, 64, 62
4, 254640, Note_on_c, 0, 67, 62
4, 254880, Note_on_c, 0, 67, 0
4, 254880, Note_on_c, 0, 64, 0
4, 254880, Note_on_c, 0, 62, 75
4, 254880, Note_on_c, 0, 66, 75
4, 255120, Note_on_c, 0, 66, 0
4, 255120, Note_on_c, 0, 62, 0
4, 255120, Note_on_c, 0, 61, 75
4, 255120, Note_on_c, 0, 64, 75
4, 255360, Note_on_c, 0, 64, 0
4, 255360, Note_on_c, 0, 61, 0
4, 255360, Note_on_c, 0, 62, 88
4, 256080, Note_on_c, 0, 62, 0
4, 256080, Note_on_c, 0, 52, 88
4, 256080, Note_on_c, 0, 62, 88
4, 256560, Note_on_c, 0, 62, 0
4, 256560, Note_on_c, 0, 52, 0
4, 256560, Note_on_c, 0, 57, 62
4, 256560, Note_on_c, 0, 61, 62
4, 256800, Note_on_c, 0, 61, 0
4, 256800, Note_on_c, 0, 57, 0
4, 256800, Control_c, 0, 64, 127
4, 256800, Note_on_c, 0, 38, 75
4, 256800, Note_on_c, 0, 45, 75
4, 257040, Note_on_c, 0, 45, 0
4, 257040, Note_on_c, 0, 38, 0
4, 257040, Note_on_c, 0, 50, 75
4, 257040, Note_on_c, 0, 57, 75
4, 257280, Note_on_c, 0, 57, 0
4, 257280, Note_on_c, 0, 50, 0
4, 257280, Note_on_c, 0, 38, 75
4, 257280, Note_on_c, 0, 45, 75
4, 257520, Note_on_c, 0, 45, 0
4, 257520, Note_on_c, 0, 38, 0
4, 257520, Note_on_c, 0, 38, 75
4, 257520, Note_on_c, 0, 45, 75
4, 257760, Note_on_c, 0, 45, 0
4, 257760, Note_on_c, 0, 38, 0
4, 257760, Note_on_c, 0, 50, 75
4, 257760, Note_on_c, 0, 57, 75
4, 258000, Note_on_c, 0, 57, 0
4, 258000, Note_on_c, 0, 50, 0
4, 258000, Note_on_c, 0, 38, 75
4, 258000, Note_on_c, 0, 45, 75
4, 258240, Note_on_c, 0, 45, 0
4, 258240, Note_on_c, 0, 38, 0
4, 258240, Note_on_c, 0, 38, 75
4, 258240, Note_on_c, 0, 45, 75
4, 258480, Note_on_c, 0, 45, 0
4, 258480, Note_on_c, 0, 38, 0
4, 258480, Note_on_c, 0, 50, 75
4, 258480, Note_on_c, 0, 57, 75
4, 258720, Note_on_c, 0, 57, 0
4, 258720, Note_on_c, 0, 50, 0
4, 258720, Note_on_c, 0, 38, 75
4, 258720, Note_on_c, 0, 45, 75
4, 258960, Note_on_c, 0, 45, 0
4, 258960, Note_on_c, 0, 38, 0
4, 258960, Note_on_c, 0, 38, 75
4, 258960, Note_on_c, 0, 45, 75
4, 259200, Note_on_c, 0, 45, 0
4, 259200, Note_on_c, 0, 38, 0
4, 259200, Note_on_c, 0, 50, 75
4, 259200, Note_on_c, 0, 57, 75
4, 259440, Note_on_c, 0, 57, 0
4, 259440, Note_on_c, 0, 50, 0
4, 259440, Note_on_c, 0, 38, 75
4, 259440, Note_on_c, 0, 45, 75
4, 259680, Note_on_c, 0, 45, 0
4, 259680, Note_on_c, 0, 38, 0
4, 259680, Control_c, 0, 64, 0
4, 259920, Note_on_c, 0, 66, 62
4, 260160, Note_on_c, 0, 66, 0
4, 260160, Note_on_c, 0, 65, 62
4, 260400, Note_on_c, 0, 65, 0
4, 260400, Note_on_c, 0, 64, 62
4, 260400, Note_on_c, 0, 67, 62
4, 260640, Note_on_c, 0, 67, 0
4, 260640, Note_on_c, 0, 64, 0
4, 260640, Note_on_c, 0, 62, 75
4, 260640, Note_on_c, 0, 66, 75
4, 260880, Note_on_c, 0, 66, 0
4, 260880, Note_on_c, 0, 62, 0
4, 260880, Note_on_c, 0, 61, 75
4, 260880, Note_on_c, 0, 64, 75
4, 261120, Note_on_c, 0, 64, 0
4, 261120, Note_on_c, 0, 61, 0
4, 261120, Note_on_c, 0, 62, 88
4, 261840, Note_on_c, 0, 62, 0
4, 261840, Note_on_c, 0, 52, 88
4, 261840, Note_on_c, 0, 59, 88
4, 261840, Note_on_c, 0, 62, 88
4, 262320, Note_on_c, 0, 62, 0
4, 262320, Note_on_c, 0, 59, 0
4, 262320, Note_on_c, 0, 52, 0
4, 262320, Note_on_c, 0, 57, 62
4, 262320, Note_on_c, 0, 61, 62
4, 262560, Note_on_c, 0, 61, 0
4, 262560, Note_on_c, 0, 57, 0
4, 262560, Control_c, 0, 64, 127
4, 262560, Note_on_c, 0, 38, 62
4, 262560, Note_on_c, 0, 50, 62
4, 262800, Note_on_c, 0, 50, 0
4, 262800, Note_on_c, 0, 38, 0
4, 262800, Note_on_c, 0, 57, 49
4, 263040, Note_on_c, 0, 57, 0
4, 263040, Note_on_c, 0, 59, 49
4, 263280, Note_on_c, 0, 59, 0
4, 263280, Note_on_c, 0, 61, 49
4, 263520, Note_on_c, 0, 61, 0
4, 263520, Note_on_c, 0, 57, 49
4, 263760, Note_on_c, 0, 57, 0
4, 263760, Control_c, 0, 64, 0
4, 263760, Note_on_c, 0, 42, 49
4, 264000, Note_on_c, 0, 42, 0
4, 264000, Control_c, 0, 64, 127
4, 264000, Note_on_c, 0, 40, 62
4, 264000, Note_on_c, 0, 52, 62
4, 264240, Note_on_c, 0, 52, 0
4, 264240, Note_on_c, 0, 40, 0
4, 264240, Note_on_c, 0, 57, 49
4, 264480, Note_on_c, 0, 57, 0
4, 264480, Note_on_c, 0, 59, 49
4, 264720, Note_on_c, 0, 59, 0
4, 264720, Note_on_c, 0, 61, 49
4, 264960, Note_on_c, 0, 61, 0
4, 264960, Note_on_c, 0, 57, 49
4, 265200, Note_on_c, 0, 57, 0
4, 265200, Control_c, 0, 64, 0
4, 265200, Note_on_c, 0, 43, 49
4, 265440, Note_on_c, 0, 43, 0
4, 265440, Control_c, 0, 64, 127
4, 265440, Note_on_c, 0, 42, 62
4, 265680, Note_on_c, 0, 42, 0
4, 265680, Note_on_c, 0, 54, 49
4, 265680, Note_on_c, 0, 62, 49
4, 265920, Note_on_c, 0, 62, 0
4, 265920, Note_on_c, 0, 54, 0
4, 265920, Note_on_c, 0, 57, 49
4, 265920, Note_on_c, 0, 66, 49
4, 266160, Note_on_c, 0, 66, 0
4, 266160, Note_on_c, 0, 57, 0
4, 266160, Note_on_c, 0, 38, 62
4, 266400, Note_on_c, 0, 38, 0
4, 266400, Note_on_c, 0, 50, 62
4, 266400, Note_on_c, 0, 57, 62
4, 266640, Note_on_c, 0, 57, 0
4, 266640, Note_on_c, 0, 50, 0
4, 266640, Control_c, 0, 64, 0
4, 266640, Note_on_c, 0, 54, 62
4, 266640, Note_on_c, 0, 62, 62
4, 266880, Note_on_c, 0, 62, 0
4, 266880, Note_on_c, 0, 54, 0
4, 266880, Control_c, 0, 64, 127
4, 266880, Note_on_c, 0, 37, 62
4, 267120, Note_on_c, 0, 37, 0
4, 267120, Note_on_c, 0, 59, 62
4, 267360, Note_on_c, 0, 59, 0
4, 267360, Note_on_c, 0, 60, 62
4, 267600, Note_on_c, 0, 60, 0
4, 267600, Note_on_c, 0, 45, 62
4, 267840, Note_on_c, 0, 45, 0
4, 267840, Note_on_c, 0, 52, 49
4, 267840, Note_on_c, 0, 61, 49
4, 268080, Note_on_c, 0, 61, 0
4, 268080, Note_on_c, 0, 52, 0
4, 268080, Control_c, 0, 64, 0
4, 268080, Note_on_c, 0, 57, 49
4, 268080, Note_on_c, 0, 64, 49
4, 268320, Note_on_c, 0, 64, 0
4, 268320, Note_on_c, 0, 57, 0
4, 268320, Control_c, 0, 64, 127
4, 268320, Note_on_c, 0, 38, 62
4, 268560, Note_on_c, 0, 38, 0
4, 268560, Note_on_c, 0, 57, 49
4, 268800, Note_on_c, 0, 57, 0
4, 268800, Note_on_c, 0, 59, 49
4, 269040, Note_on_c, 0, 59, 0
4, 269040, Note_on_c, 0, 61, 49
4, 269280, Note_on_c, 0, 61, 0
4, 269280, Note_on_c, 0, 57, 49
4, 269520, Note_on_c, 0, 57, 0
4, 269520, Control_c, 0, 64, 0
4, 269520, Note_on_c, 0, 42, 49
4, 269760, Note_on_c, 0, 42, 0
4, 269760, Control_c, 0, 64, 127
4, 269760, Note_on_c, 0, 40, 62
4, 269760, Note_on_c, 0, 52, 62
4, 270000, Note_on_c, 0, 52, 0
4, 270000, Note_on_c, 0, 40, 0
4, 270000, Note_on_c, 0, 57, 49
4, 270240, Note_on_c, 0, 57, 0
4, 270240, Note_on_c, 0, 59, 49
4, 270480, Note_on_c, 0, 59, 0
4, 270480, Note_on_c, 0, 61, 49
4, 270720, Note_on_c, 0, 61, 0
4, 270720, Note_on_c, 0, 57, 49
4, 270960, Note_on_c, 0, 57, 0
4, 270960, Control_c, 0, 64, 0
4, 270960, Note_on_c, 0, 43, 49
4, 271200, Note_on_c, 0, 43, 0
4, 271200, Control_c, 0, 64, 127
4, 271200, Note_on_c, 0, 42, 62
4, 271440, Note_on_c, 0, 42, 0
4, 271440, Note_on_c, 0, 54, 62
4, 271440, Note_on_c, 0, 62, 62
4, 271680, Note_on_c, 0, 62, 0
4, 271680, Note_on_c, 0, 54, 0
4, 271680, Control_c, 0, 64, 0
4, 271680, Note_on_c, 0, 57, 62
4, 271680, Note_on_c, 0, 66, 62
4, 271920, Note_on_c, 0, 66, 0
4, 271920, Note_on_c, 0, 57, 0
4, 271920, Control_c, 0, 64, 127
4, 271920, Note_on_c, 0, 43, 62
4, 272160, Note_on_c, 0, 43, 0
4, 272160, Note_on_c, 0, 55, 62
4, 272160, Note_on_c, 0, 61, 62
4, 272400, Note_on_c, 0, 61, 0
4, 272400, Note_on_c, 0, 55, 0
4, 272400, Control_c, 0, 64, 0
4, 272400, Note_on_c, 0, 59, 62
4, 272400, Note_on_c, 0, 62, 62
4, 272640, Note_on_c, 0, 62, 0
4, 272640, Note_on_c, 0, 59, 0
4, 272640, Note_on_c, 0, 40, 62
4, 272880, Note_on_c, 0, 40, 0
4, 272880, Note_on_c, 0, 56, 62
4, 272880, Note_on_c, 0, 64, 62
4, 273120, Note_on_c, 0, 64, 0
4, 273120, Note_on_c, 0, 56, 0
4, 273120, Note_on_c, 0, 59, 62
4, 273120, Note_on_c, 0, 68, 62
4, 273360, Note_on_c, 0, 68, 0
4, 273360, Note_on_c, 0, 59, 0
4, 273360, Note_on_c, 0, 45, 62
4, 273600, Note_on_c, 0, 45, 0
4, 273600, Note_on_c, 0, 55, 62
4, 273600, Note_on_c, 0, 64, 62
4, 273840, Note_on_c, 0, 64, 0
4, 273840, Note_on_c, 0, 55, 0
4, 273840, Note_on_c, 0, 57, 62
4, 273840, Note_on_c, 0, 67, 62
4, 274080, Note_on_c, 0, 67, 0
4, 274080, Note_on_c, 0, 57, 0
4, 274080, Note_on_c, 0, 42, 75
4, 274320, Note_on_c, 0, 42, 0
4, 274320, Note_on_c, 0, 54, 75
4, 274320, Note_on_c, 0, 61, 75
4, 274560, Note_on_c, 0, 61, 0
4, 274560, Note_on_c, 0, 54, 0
4, 274560, Note_on_c, 0, 58, 75
4, 274560, Note_on_c, 0, 66, 75
4, 274800, Note_on_c, 0, 66, 0
4, 274800, Note_on_c, 0, 58, 0
4, 274800, Note_on_c, 0, 47, 75
4, 275040, Note_on_c, 0, 47, 0
4, 275040, Note_on_c, 0, 54, 75
4, 275040, Note_on_c, 0, 59, 75
4, 275280, Note_on_c, 0, 59, 0
4, 275280, Note_on_c, 0, 54, 0
4, 275280, Note_on_c, 0, 66, 75
4, 275520, Note_on_c, 0, 66, 0
4, 275520, Note_on_c, 0, 42, 75
4, 275760, Note_on_c, 0, 42, 0
4, 275760, Note_on_c, 0, 58, 62
4, 275760, Note_on_c, 0, 64, 62
4, 276000, Note_on_c, 0, 64, 0
4, 276000, Note_on_c, 0, 58, 0
4, 276000, Note_on_c, 0, 54, 62
4, 276240, Note_on_c, 0, 54, 0
4, 276240, Note_on_c, 0, 43, 62
4, 276480, Note_on_c, 0, 43, 0
4, 276480, Note_on_c, 0, 55, 62
4, 276480, Note_on_c, 0, 62, 62
4, 276720, Note_on_c, 0, 62, 0
4, 276720, Note_on_c, 0, 55, 0
4, 276720, Note_on_c, 0, 52, 62
4, 276720, Note_on_c, 0, 61, 62
4, 276960, Note_on_c, 0, 61, 0
4, 276960, Note_on_c, 0, 52, 0
4, 276960, Note_on_c, 0, 41, 62
4, 277200, Note_on_c, 0, 41, 0
4, 277200, Note_on_c, 0, 56, 62
4, 277200, Note_on_c, 0, 62, 62
4, 277440, Note_on_c, 0, 62, 0
4, 277440, Note_on_c, 0, 56, 0
4, 277440, Note_on_c, 0, 53, 62
4, 277680, Note_on_c, 0, 53, 0
4, 277680, Note_on_c, 0, 42, 62
4, 277920, Note_on_c, 0, 42, 0
4, 277920, Note_on_c, 0, 54, 62
4, 277920, Note_on_c, 0, 61, 62
4, 278160, Note_on_c, 0, 61, 0
4, 278160, Note_on_c, 0, 54, 0
4, 278160, Note_on_c, 0, 50, 62
4, 278160, Note_on_c, 0, 59, 62
4, 278400, Note_on_c, 0, 59, 0
4, 278400, Note_on_c, 0, 50, 0
4, 278400, Note_on_c, 0, 39, 62
4, 278640, Note_on_c, 0, 39, 0
4, 278640, Note_on_c, 0, 57, 62
4, 278880, Note_on_c, 0, 57, 0
4, 278880, Note_on_c, 0, 60, 62
4, 279120, Note_on_c, 0, 60, 0
4, 279120, Note_on_c, 0, 45, 62
4, 279360, Note_on_c, 0, 45, 0
4, 279360, Note_on_c, 0, 55, 62
4, 279360, Note_on_c, 0, 61, 62
4, 279600, Note_on_c, 0, 61, 0
4, 279600, Note_on_c, 0, 55, 0
4, 279600, Note_on_c, 0, 57, 62
4, 279600, Note_on_c, 0, 64, 62
4, 279840, Note_on_c, 0, 64, 0
4, 279840, Note_on_c, 0, 57, 0
4, 279840, Control_c, 0, 64, 127
4, 279840, Note_on_c, 0, 38, 62
4, 280080, Note_on_c, 0, 38, 0
4, 280080, Note_on_c, 0, 57, 49
4, 280320, Note_on_c, 0, 57, 0
4, 280320, Note_on_c, 0, 59, 49
4, 280560, Note_on_c, 0, 59, 0
4, 280560, Note_on_c, 0, 61, 49
4, 280800, Note_on_c, 0, 61, 0
4, 280800, Note_on_c, 0, 57, 49
4, 281040, Note_on_c, 0, 57, 0
4, 281040, Control_c, 0, 64, 0
4, 281040, Note_on_c, 0, 42, 49
4, 281280, Note_on_c, 0, 42, 0
4, 281280, Control_c, 0, 64, 127
4, 281280, Note_on_c, 0, 40, 62
4, 281280, Note_on_c, 0, 52, 62
4, 281520, Note_on_c, 0, 52, 0
4, 281520, Note_on_c, 0, 40, 0
4, 281520, Note_on_c, 0, 57, 49
4, 281760, Note_on_c, 0, 57, 0
4, 281760, Note_on_c, 0, 59, 49
4, 282000, Note_on_c, 0, 59, 0
4, 282000, Note_on_c, 0, 61, 49
4, 282240, Note_on_c, 0, 61, 0
4, 282240, Note_on_c, 0, 57, 49
4, 282480, Note_on_c, 0, 57, 0
4, 282480, Control_c, 0, 64, 0
4, 282480, Note_on_c, 0, 43, 49
4, 282720, Note_on_c, 0, 43, 0
4, 282720, Control_c, 0, 64, 127
4, 282720, Note_on_c, 0, 42, 62
4, 282960, Note_on_c, 0, 42, 0
4, 282960, Note_on_c, 0, 54, 49
4, 282960, Note_on_c, 0, 62, 49
4, 283200, Note_on_c, 0, 62, 0
4, 283200, Note_on_c, 0, 54, 0
4, 283200, Note_on_c, 0, 57, 49
4, 283200, Note_on_c, 0, 66, 49
4, 283440, Note_on_c, 0, 66, 0
4, 283440, Note_on_c, 0, 57, 0
4, 283440, Note_on_c, 0, 38, 62
4, 283680, Note_on_c, 0, 38, 0
4, 283680, Note_on_c, 0, 50, 62
4, 283680, Note_on_c, 0, 57, 62
4, 283920, Note_on_c, 0, 57, 0
4, 283920, Note_on_c, 0, 50, 0
4, 283920, Control_c, 0, 64, 0
4, 283920, Note_on_c, 0, 54, 62
4, 283920, Note_on_c, 0, 62, 62
4, 284160, Note_on_c, 0, 62, 0
4, 284160, Note_on_c, 0, 54, 0
4, 284160, Control_c, 0, 64, 127
4, 284160, Note_on_c, 0, 37, 62
4, 284400, Note_on_c, 0, 37, 0
4, 284400, Note_on_c, 0, 59, 62
4, 284640, Note_on_c, 0, 59, 0
4, 284640, Note_on_c, 0, 60, 62
4, 284880, Note_on_c, 0, 60, 0
4, 284880, Note_on_c, 0, 45, 62
4, 285120, Note_on_c, 0, 45, 0
4, 285120, Note_on_c, 0, 52, 49
4, 285120, Note_on_c, 0, 61, 49
4, 285360, Note_on_c, 0, 61, 0
4, 285360, Note_on_c, 0, 52, 0
4, 285360, Control_c, 0, 64, 0
4, 285360, Note_on_c, 0, 57, 49
4, 285360, Note_on_c, 0, 64, 49
4, 285600, Note_on_c, 0, 64, 0
4, 285600, Note_on_c, 0, 57, 0
4, 286080, Note_on_c, 0, 54, 62
4, 286080, Note_on_c, 0, 57, 62
4, 286560, Note_on_c, 0, 57, 0
4, 286560, Note_on_c, 0, 54, 0
4, 286560, Note_on_c, 0, 54, 62
4, 286560, Note_on_c, 0, 57, 62
4, 287040, Note_on_c, 0, 57, 0
4, 287040, Note_on_c, 0, 54, 0
4, 287520, Note_on_c, 0, 54, 62
4, 287520, Note_on_c, 0, 57, 62
4, 288000, Note_on_c, 0, 57, 0
4, 288000, Note_on_c, 0, 54, 0
4, 288000, Note_on_c, 0, 54, 62
4, 288000, Note_on_c, 0, 57, 62
4, 288480, Note_on_c, 0, 57, 0
4, 288480, Note_on_c, 0, 54, 0
4, 288960, Note_on_c, 0, 55, 49
4, 288960, Note_on_c, 0, 62, 49
4, 289200, Note_on_c, 0, 62, 0
4, 289200, Note_on_c, 0, 55, 0
4, 289440, Note_on_c, 0, 52, 49
4, 289440, Note_on_c, 0, 62, 49
4, 289680, Note_on_c, 0, 62, 0
4, 289680, Note_on_c, 0, 52, 0
4, 290400, Note_on_c, 0, 52, 62
4, 290400, Note_on_c, 0, 61, 62
4, 290640, Note_on_c, 0, 61, 0
4, 290640, Note_on_c, 0, 52, 0
4, 290880, Note_on_c, 0, 52, 62
4, 290880, Note_on_c, 0, 61, 62
4, 291360, Note_on_c, 0, 61, 0
4, 291360, Note_on_c, 0, 52, 0
4, 291840, Note_on_c, 0, 50, 62
4, 291840, Note_on_c, 0, 62, 62
4, 292080, Note_on_c, 0, 62, 0
4, 292080, Note_on_c, 0, 50, 0
4, 292320, Note_on_c, 0, 50, 62
4, 292320, Note_on_c, 0, 62, 62
4, 292800, Note_on_c, 0, 62, 0
4, 292800, Note_on_c, 0, 50, 0
4, 293280, Note_on_c, 0, 57, 62
4, 293520, Note_on_c, 0, 57, 0
4, 293760, Note_on_c, 0, 57, 62
4, 294240, Note_on_c, 0, 57, 0
4, 294720, Note_on_c, 0, 54, 75
4, 294720, Note_on_c, 0, 57, 75
4, 294960, Note_on_c, 0, 57, 0
4, 294960, Note_on_c, 0, 54, 0
4, 295200, Note_on_c, 0, 54, 75
4, 295200, Note_on_c, 0, 57, 75
4, 295680, Note_on_c, 0, 57, 0
4, 295680, Note_on_c, 0, 54, 0
4, 296160, Note_on_c, 0, 55, 75
4, 296160, Note_on_c, 0, 62, 75
4, 296400, Note_on_c, 0, 62, 0
4, 296400, Note_on_c, 0, 55, 0
4, 296640, Note_on_c, 0, 52, 75
4, 296640, Note_on_c, 0, 55, 75
4, 296640, Note_on_c, 0, 62, 75
4, 297120, Note_on_c, 0, 62, 0
4, 297120, Note_on_c, 0, 55, 0
4, 297120, Note_on_c, 0, 52, 0
4, 297120, Note_on_c, 0, 33, 101
4, 297120, Note_on_c, 0, 45, 101
4, 297360, Note_on_c, 0, 45, 0
4, 297360, Note_on_c, 0, 33, 0
4, 297480, Note_on_c, 0, 54, 101
4, 297480, Note_on_c, 0, 62, 101
4, 297600, Note_on_c, 0, 62, 0
4, 297600, Note_on_c, 0, 54, 0
4, 297600, Note_on_c, 0, 54, 101
4, 297600, Note_on_c, 0, 62, 101
4, 297840, Note_on_c, 0, 62, 0
4, 297840, Note_on_c, 0, 54, 0
4, 297840, Note_on_c, 0, 54, 101
4, 297840, Note_on_c, 0, 62, 101
4, 298080, Note_on_c, 0, 62, 0
4, 298080, Note_on_c, 0, 54, 0
4, 298080, Note_on_c, 0, 57, 101
4, 298080, Note_on_c, 0, 64, 101
4, 298320, Note_on_c, 0, 64, 0
4, 298320, Note_on_c, 0, 57, 0
4, 298320, Note_on_c, 0, 62, 101
4, 298320, Note_on_c, 0, 66, 101
4, 298560, Note_on_c, 0, 66, 0
4, 298560, Note_on_c, 0, 62, 0
4, 298560, Note_on_c, 0, 64, 101
4, 298560, Note_on_c, 0, 67, 101
4, 298800, Note_on_c, 0, 67, 0
4, 298800, Note_on_c, 0, 64, 0
4, 298800, Note_on_c, 0, 62, 101
4, 298800, Note_on_c, 0, 66, 101
4, 299040, Note_on_c, 0, 66, 0
4, 299040, Note_on_c, 0, 62, 0
4, 299040, Note_on_c, 0, 57, 101
4, 299040, Note_on_c, 0, 64, 101
4, 299280, Note_on_c, 0, 64, 0
4, 299280, Note_on_c, 0, 57, 0
4, 299280, Note_on_c, 0, 54, 101
4, 299280, Note_on_c, 0, 62, 101
4, 299520, Note_on_c, 0, 62, 0
4, 299520, Note_on_c, 0, 54, 0
4, 299520, Note_on_c, 0, 57, 101
4, 299520, Note_on_c, 0, 64, 101
4, 299760, Note_on_c, 0, 64, 0
4, 299760, Note_on_c, 0, 57, 0
4, 299760, Note_on_c, 0, 62, 101
4, 299760, Note_on_c, 0, 66, 101
4, 300000, Note_on_c, 0, 66, 0
4, 300000, Note_on_c, 0, 62, 0
4, 300000, Note_on_c, 0, 45, 101
4, 300240, Note_on_c, 0, 45, 0
4, 300360, Note_on_c, 0, 62, 101
4, 300360, Note_on_c, 0, 64, 101
4, 300480, Note_on_c, 0, 64, 0
4, 300480, Note_on_c, 0, 62, 0
4, 300480, Note_on_c, 0, 62, 101
4, 300480, Note_on_c, 0, 64, 101
4, 300720, Note_on_c, 0, 64, 0
4, 300720, Note_on_c, 0, 62, 0
4, 300720, Note_on_c, 0, 62, 101
4, 300720, Note_on_c, 0, 64, 101
4, 300960, Note_on_c, 0, 64, 0
4, 300960, Note_on_c, 0, 62, 0
4, 300960, Note_on_c, 0, 66, 101
4, 301200, Note_on_c, 0, 66, 0
4, 301200, Note_on_c, 0, 67, 101
4, 301440, Note_on_c, 0, 67, 0
4, 301440, Note_on_c, 0, 61, 101
4, 301440, Note_on_c, 0, 69, 101
4, 301680, Note_on_c, 0, 69, 0
4, 301680, Note_on_c, 0, 61, 0
4, 301680, Note_on_c, 0, 67, 101
4, 301920, Note_on_c, 0, 67, 0
4, 301920, Note_on_c, 0, 66, 101
4, 302160, Note_on_c, 0, 66, 0
4, 302160, Note_on_c, 0, 64, 101
4, 302400, Note_on_c, 0, 64, 0
4, 302400, Note_on_c, 0, 66, 101
4, 302640, Note_on_c, 0, 66, 0
4, 302640, Note_on_c, 0, 67, 101
4, 302880, Note_on_c, 0, 67, 0
4, 302880, Note_on_c, 0, 38, 101
4, 302880, Note_on_c, 0, 45, 101
4, 302880, Note_on_c, 0, 50, 101
4, 303120, Note_on_c, 0, 50, 0
4, 303120, Note_on_c, 0, 45, 0
4, 303120, Note_on_c, 0, 38, 0
4, 303240, Note_on_c, 0, 54, 101
4, 303240, Note_on_c, 0, 57, 101
4, 303240, Note_on_c, 0, 62, 101
4, 303360, Note_on_c, 0, 62, 0
4, 303360, Note_on_c, 0, 57, 0
4, 303360, Note_on_c, 0, 54, 0
4, 303360, Note_on_c, 0, 54, 101
4, 303360, Note_on_c, 0, 57, 101
4, 303360, Note_on_c, 0, 62, 101
4, 303600, Note_on_c, 0, 62, 0
4, 303600, Note_on_c, 0, 57, 0
4, 303600, Note_on_c, 0, 54, 0
4, 303600, Note_on_c, 0, 54, 101
4, 303600, Note_on_c, 0, 57, 101
4, 303600, Note_on_c, 0, 62, 101
4, 303840, Note_on_c, 0, 62, 0
4, 303840, Note_on_c, 0, 57, 0
4, 303840, Note_on_c, 0, 54, 0
4, 303840, Note_on_c, 0, 54, 101
4, 303840, Note_on_c, 0, 57, 101
4, 303840, Note_on_c, 0, 62, 101
4, 304080, Note_on_c, 0, 62, 0
4, 304080, Note_on_c, 0, 57, 0
4, 304080, Note_on_c, 0, 54, 0
4, 304080, Note_on_c, 0, 54, 101
4, 304080, Note_on_c, 0, 57, 101
4, 304080, Note_on_c, 0, 62, 101
4, 304320, Note_on_c, 0, 62, 0
4, 304320, Note_on_c, 0, 57, 0
4, 304320, Note_on_c, 0, 54, 0
4, 304320, Note_on_c, 0, 38, 101
4, 304320, Note_on_c, 0, 45, 101
4, 304320, Note_on_c, 0, 50, 101
4, 304560, Note_on_c, 0, 50, 0
4, 304560, Note_on_c, 0, 45, 0
4, 304560, Note_on_c, 0, 38, 0
4, 304680, Note_on_c, 0, 54, 101
4, 304680, Note_on_c, 0, 57, 101
4, 304680, Note_on_c, 0, 62, 101
4, 304800, Note_on_c, 0, 62, 0
4, 304800, Note_on_c, 0, 57, 0
4, 304800, Note_on_c, 0, 54, 0
4, 304800, Note_on_c, 0, 54, 101
4, 304800, Note_on_c, 0, 57, 101
4, 304800, Note_on_c, 0, 62, 101
4, 305040, Note_on_c, 0, 62, 0
4, 305040, Note_on_c, 0, 57, 0
4, 305040, Note_on_c, 0, 54, 0
4, 305040, Note_on_c, 0, 54, 101
4, 305040, Note_on_c, 0, 57, 101
4, 305040, Note_on_c, 0, 62, 101
4, 305280, Note_on_c, 0, 62, 0
4, 305280, Note_on_c, 0, 57, 0
4, 305280, Note_on_c, 0, 54, 0
4, 305280, Note_on_c, 0, 54, 101
4, 305280, Note_on_c, 0, 57, 101
4, 305280, Note_on_c, 0, 62, 101
4, 305520, Note_on_c, 0, 62, 0
4, 305520, Note_on_c, 0, 57, 0
4, 305520, Note_on_c, 0, 54, 0
4, 305520, Note_on_c, 0, 54, 101
4, 305520, Note_on_c, 0, 57, 101
4, 305520, Note_on_c, 0, 62, 101
4, 305760, Note_on_c, 0, 62, 0
4, 305760, Note_on_c, 0, 57, 0
4, 305760, Note_on_c, 0, 54, 0
4, 306000, Note_on_c, 0, 62, 75
4, 306240, Note_on_c, 0, 62, 0
4, 306240, Note_on_c, 0, 59, 75
4, 306480, Note_on_c, 0, 59, 0
4, 306480, Note_on_c, 0, 57, 75
4, 306480, Note_on_c, 0, 66, 75
4, 306720, Note_on_c, 0, 66, 0
4, 306720, Note_on_c, 0, 57, 0
4, 306720, Note_on_c, 0, 56, 75
4, 306720, Note_on_c, 0, 65, 75
4, 306960, Note_on_c, 0, 65, 0
4, 306960, Note_on_c, 0, 56, 0
4, 306960, Note_on_c, 0, 55, 75
4, 306960, Note_on_c, 0, 64, 75
4, 307200, Note_on_c, 0, 64, 0
4, 307200, Note_on_c, 0, 55, 0
4, 307200, Note_on_c, 0, 54, 88
4, 307200, Note_on_c, 0, 62, 88
4, 307440, Note_on_c, 0, 62, 0
4, 307440, Note_on_c, 0, 54, 0
4, 307440, Note_on_c, 0, 52, 88
4, 307680, Note_on_c, 0, 52, 0
4, 307680, Note_on_c, 0, 50, 88
4, 307920, Note_on_c, 0, 50, 0
4, 307920, Note_on_c, 0, 48, 88
4, 308160, Note_on_c, 0, 48, 0
4, 308160, Note_on_c, 0, 47, 88
4, 308400, Note_on_c, 0, 47, 0
4, 308400, Note_on_c, 0, 46, 88
4, 308400, Note_on_c, 0, 53, 88
4, 308640, Note_on_c, 0, 53, 0
4, 308640, Note_on_c, 0, 46, 0
4, 308640, Note_on_c, 0, 38, 101
4, 308640, Note_on_c, 0, 45, 101
4, 308640, Note_on_c, 0, 50, 101
4, 308880, Note_on_c, 0, 50, 0
4, 308880, Note_on_c, 0, 45, 0
4, 308880, Note_on_c, 0, 38, 0
4, 309000, Note_on_c, 0, 54, 101
4, 309000, Note_on_c, 0, 57, 101
4, 309000, Note_on_c, 0, 62, 101
4, 309120, Note_on_c, 0, 62, 0
4, 309120, Note_on_c, 0, 57, 0
4, 309120, Note_on_c, 0, 54, 0
4, 309120, Note_on_c, 0, 54, 101
4, 309120, Note_on_c, 0, 57, 101
4, 309120, Note_on_c, 0, 62, 101
4, 309360, Note_on_c, 0, 62, 0
4, 309360, Note_on_c, 0, 57, 0
4, 309360, Note_on_c, 0, 54, 0
4, 309360, Note_on_c, 0, 54, 101
4, 309360, Note_on_c, 0, 57, 101
4, 309360, Note_on_c, 0, 62, 101
4, 309600, Note_on_c, 0, 62, 0
4, 309600, Note_on_c, 0, 57, 0
4, 309600, Note_on_c, 0, 54, 0
4, 309600, Note_on_c, 0, 54, 101
4, 309600, Note_on_c, 0, 57, 101
4, 309600, Note_on_c, 0, 62, 101
4, 309840, Note_on_c, 0, 62, 0
4, 309840, Note_on_c, 0, 57, 0
4, 309840, Note_on_c, 0, 54, 0
4, 309840, Note_on_c, 0, 54, 101
4, 309840, Note_on_c, 0, 57, 101
4, 309840, Note_on_c, 0, 62, 101
4, 310080, Note_on_c, 0, 62, 0
4, 310080, Note_on_c, 0, 57, 0
4, 310080, Note_on_c, 0, 54, 0
4, 310080, Note_on_c, 0, 38, 101
4, 310080, Note_on_c, 0, 45, 101
4, 310080, Note_on_c, 0, 50, 101
4, 310320, Note_on_c, 0, 50, 0
4, 310320, Note_on_c, 0, 45, 0
4, 310320, Note_on_c, 0, 38, 0
4, 310440, Note_on_c, 0, 54, 101
4, 310440, Note_on_c, 0, 57, 101
4, 310440, Note_on_c, 0, 62, 101
4, 310560, Note_on_c, 0, 62, 0
4, 310560, Note_on_c, 0, 57, 0
4, 310560, Note_on_c, 0, 54, 0
4, 310560, Note_on_c, 0, 54, 101
4, 310560, Note_on_c, 0, 57, 101
4, 310560, Note_on_c, 0, 62, 101
4, 310800, Note_on_c, 0, 62, 0
4, 310800, Note_on_c, 0, 57, 0
4, 310800, Note_on_c, 0, 54, 0
4, 310800, Note_on_c, 0, 54, 101
4, 310800, Note_on_c, 0, 57, 101
4, 310800, Note_on_c, 0, 62, 101
4, 311040, Note_on_c, 0, 62, 0
4, 311040, Note_on_c, 0, 57, 0
4, 311040, Note_on_c, 0, 54, 0
4, 311040, Note_on_c, 0, 54, 101
4, 311040, Note_on_c, 0, 57, 101
4, 311040, Note_on_c, 0, 62, 101
4, 311280, Note_on_c, 0, 62, 0
4, 311280, Note_on_c, 0, 57, 0
4, 311280, Note_on_c, 0, 54, 0
4, 311280, Note_on_c, 0, 54, 101
4, 311280, Note_on_c, 0, 57, 101
4, 311280, Note_on_c, 0, 62, 101
4, 311520, Note_on_c, 0, 62, 0
4, 311520, Note_on_c, 0, 57, 0
4, 311520, Note_on_c, 0, 54, 0
4, 311760, Note_on_c, 0, 59, 75
4, 312000, Note_on_c, 0, 59, 0
4, 312000, Note_on_c, 0, 58, 75
4, 312000, Note_on_c, 0, 61, 75
4, 312240, Note_on_c, 0, 61, 0
4, 312240, Note_on_c, 0, 58, 0
4, 312240, Note_on_c, 0, 57, 75
4, 312240, Note_on_c, 0, 60, 75
4, 312480, Note_on_c, 0, 60, 0
4, 312480, Note_on_c, 0, 57, 0
4, 312480, Note_on_c, 0, 55, 75
4, 312480, Note_on_c, 0, 59, 75
4, 312720, Note_on_c, 0, 59, 0
4, 312720, Note_on_c, 0, 55, 0
4, 312720, Note_on_c, 0, 53, 75
4, 312720, Note_on_c, 0, 58, 75
4, 312960, Note_on_c, 0, 58, 0
4, 312960, Note_on_c, 0, 53, 0
4, 312960, Note_on_c, 0, 54, 88
4, 312960, Note_on_c, 0, 57, 88
4, 313200, Note_on_c, 0, 57, 0
4, 313200, Note_on_c, 0, 54, 0
4, 313200, Note_on_c, 0, 53, 88
4, 313200, Note_on_c, 0, 57, 88
4, 313440, Note_on_c, 0, 57, 0
4, 313440, Note_on_c, 0, 53, 0
4, 313440, Note_on_c, 0, 52, 88
4, 313440, Note_on_c, 0, 57, 88
4, 313680, Note_on_c, 0, 57, 0
4, 313680, Note_on_c, 0, 52, 0
4, 313680, Note_on_c, 0, 50, 88
4, 313680, Note_on_c, 0, 57, 88
4, 313920, Note_on_c, 0, 57, 0
4, 313920, Note_on_c, 0, 50, 0
4, 313920, Note_on_c, 0, 49, 88
4, 313920, Note_on_c, 0, 57, 88
4, 314160, Note_on_c, 0, 57, 0
4, 314160, Note_on_c, 0, 49, 0
4, 314160, Note_on_c, 0, 47, 88
4, 314400, Note_on_c, 0, 47, 0
4, 314400, Note_on_c, 0, 38, 101
4, 314400, Note_on_c, 0, 45, 101
4, 314400, Note_on_c, 0, 50, 101
4, 314640, Note_on_c, 0, 50, 0
4, 314640, Note_on_c, 0, 45, 0
4, 314640, Note_on_c, 0, 38, 0
4, 314760, Note_on_c, 0, 54, 101
4, 314760, Note_on_c, 0, 57, 101
4, 314760, Note_on_c, 0, 62, 101
4, 314880, Note_on_c, 0, 62, 0
4, 314880, Note_on_c, 0, 57, 0
4, 314880, Note_on_c, 0, 54, 0
4, 314880, Note_on_c, 0, 54, 101
4, 314880, Note_on_c, 0, 57, 101
4, 314880, Note_on_c, 0, 62, 101
4, 315120, Note_on_c, 0, 62, 0
4, 315120, Note_on_c, 0, 57, 0
4, 315120, Note_on_c, 0, 54, 0
4, 315120, Note_on_c, 0, 54, 101
4, 315120, Note_on_c, 0, 57, 101
4, 315120, Note_on_c, 0, 62, 101
4, 315360, Note_on_c, 0, 62, 0
4, 315360, Note_on_c, 0, 57, 0
4, 315360, Note_on_c, 0, 54, 0
4, 315360, Note_on_c, 0, 54, 101
4, 315360, Note_on_c, 0, 57, 101
4, 315360, Note_on_c, 0, 62, 101
4, 315600, Note_on_c, 0, 62, 0
4, 315600, Note_on_c, 0, 57, 0
4, 315600, Note_on_c, 0, 54, 0
4, 315600, Note_on_c, 0, 54, 101
4, 315600, Note_on_c, 0, 57, 101
4, 315600, Note_on_c, 0, 62, 101
4, 315840, Note_on_c, 0, 62, 0
4, 315840, Note_on_c, 0, 57, 0
4, 315840, Note_on_c, 0, 54, 0
4, 316080, Note_on_c, 0, 57, 101
4, 316320, Note_on_c, 0, 57, 0
4, 316320, Note_on_c, 0, 55, 101
4, 316560, Note_on_c, 0, 55, 0
4, 316560, Note_on_c, 0, 54, 101
4, 316800, Note_on_c, 0, 54, 0
4, 316800, Note_on_c, 0, 53, 101
4, 317040, Note_on_c, 0, 53, 0
4, 317040, Note_on_c, 0, 52, 101
4, 317280, Note_on_c, 0, 52, 0
4, 317280, Note_on_c, 0, 38, 101
4, 317280, Note_on_c, 0, 45, 101
4, 317280, Note_on_c, 0, 50, 101
4, 317520, Note_on_c, 0, 50, 0
4, 317520, Note_on_c, 0, 45, 0
4, 317520, Note_on_c, 0, 38, 0
4, 317640, Note_on_c, 0, 54, 101
4, 317640, Note_on_c, 0, 57, 101
4, 317640, Note_on_c, 0, 62, 101
4, 317760, Note_on_c, 0, 62, 0
4, 317760, Note_on_c, 0, 57, 0
4, 317760, Note_on_c, 0, 54, 0
4, 317760, Note_on_c, 0, 54, 101
4, 317760, Note_on_c, 0, 57, 101
4, 317760, Note_on_c, 0, 62, 101
4, 318000, Note_on_c, 0, 62, 0
4, 318000, Note_on_c, 0, 57, 0
4, 318000, Note_on_c, 0, 54, 0
4, 318000, Note_on_c, 0, 54, 101
4, 318000, Note_on_c, 0, 57, 101
4, 318000, Note_on_c, 0, 62, 101
4, 318240, Note_on_c, 0, 62, 0
4, 318240, Note_on_c, 0, 57, 0
4, 318240, Note_on_c, 0, 54, 0
4, 318240, Note_on_c, 0, 54, 101
4, 318240, Note_on_c, 0, 57, 101
4, 318240, Note_on_c, 0, 62, 101
4, 318480, Note_on_c, 0, 62, 0
4, 318480, Note_on_c, 0, 57, 0
4, 318480, Note_on_c, 0, 54, 0
4, 318480, Note_on_c, 0, 54, 101
4, 318480, Note_on_c, 0, 57, 101
4, 318480, Note_on_c, 0, 62, 101
4, 318720, Note_on_c, 0, 62, 0
4, 318720, Note_on_c, 0, 57, 0
4, 318720, Note_on_c, 0, 54, 0
4, 318960, Note_on_c, 0, 54, 75
4, 319200, Note_on_c, 0, 54, 0
4, 319200, Note_on_c, 0, 52, 75
4, 319440, Note_on_c, 0, 52, 0
4, 319440, Note_on_c, 0, 50, 75
4, 319680, Note_on_c, 0, 50, 0
4, 319680, Note_on_c, 0, 47, 75
4, 319920, Note_on_c, 0, 47, 0
4, 319920, Note_on_c, 0, 46, 75
4, 319920, Note_on_c, 0, 53, 75
4, 320160, Note_on_c, 0, 53, 0
4, 320160, Note_on_c, 0, 46, 0
4, 320160, Note_on_c, 0, 38, 75
4, 320160, Note_on_c, 0, 45, 75
4, 320400, Note_on_c, 0, 45, 0
4, 320400, Note_on_c, 0, 38, 0
4, 320520, Note_on_c, 0, 50, 75
4, 320520, Note_on_c, 0, 54, 75
4, 320520, Note_on_c, 0, 57, 75
4, 320640, Note_on_c, 0, 57, 0
4, 320640, Note_on_c, 0, 54, 0
4, 320640, Note_on_c, 0, 50, 0
4, 320640, Note_on_c, 0, 50, 75
4, 320640, Note_on_c, 0, 54, 75
4, 320640, Note_on_c, 0, 57, 75
4, 320880, Note_on_c, 0, 57, 0
4, 320880, Note_on_c, 0, 54, 0
4, 320880, Note_on_c, 0, 50, 0
4, 320880, Note_on_c, 0, 50, 75
4, 320880, Note_on_c, 0, 54, 75
4, 320880, Note_on_c, 0, 57, 75
4, 321120, Note_on_c, 0, 57, 0
4, 321120, Note_on_c, 0, 54, 0
4, 321120, Note_on_c, 0, 50, 0
4, 321120, Note_on_c, 0, 50, 75
4, 321120, Note_on_c, 0, 54, 75
4, 321120, Note_on_c, 0, 57, 75
4, 321360, Note_on_c, 0, 57, 0
4, 321360, Note_on_c, 0, 54, 0
4, 321360, Note_on_c, 0, 50, 0
4, 321360, Note_on_c, 0, 50, 75
4, 321360, Note_on_c, 0, 54, 75
4, 321360, Note_on_c, 0, 57, 75
4, 321600, Note_on_c, 0, 57, 0
4, 321600, Note_on_c, 0, 54, 0
4, 321600, Note_on_c, 0, 50, 0
4, 321600, Note_on_c, 0, 38, 75
4, 321600, Note_on_c, 0, 45, 75
4, 321840, Note_on_c, 0, 45, 0
4, 321840, Note_on_c, 0, 38, 0
4, 321960, Note_on_c, 0, 50, 75
4, 321960, Note_on_c, 0, 54, 75
4, 321960, Note_on_c, 0, 57, 75
4, 322080, Note_on_c, 0, 57, 0
4, 322080, Note_on_c, 0, 54, 0
4, 322080, Note_on_c, 0, 50, 0
4, 322080, Note_on_c, 0, 50, 75
4, 322080, Note_on_c, 0, 54, 75
4, 322080, Note_on_c, 0, 57, 75
4, 322320, Note_on_c, 0, 57, 0
4, 322320, Note_on_c, 0, 54, 0
4, 322320, Note_on_c, 0, 50, 0
4, 322320, Note_on_c, 0, 50, 75
4, 322320, Note_on_c, 0, 54, 75
4, 322320, Note_on_c, 0, 57, 75
4, 322560, Note_on_c, 0, 57, 0
4, 322560, Note_on_c, 0, 54, 0
4, 322560, Note_on_c, 0, 50, 0
4, 322560, Note_on_c, 0, 50, 75
4, 322560, Note_on_c, 0, 54, 75
4, 322560, Note_on_c, 0, 57, 75
4, 322800, Note_on_c, 0, 57, 0
4, 322800, Note_on_c, 0, 54, 0
4, 322800, Note_on_c, 0, 50, 0
4, 322800, Note_on_c, 0, 50, 75
4, 322800, Note_on_c, 0, 54, 75
4, 322800, Note_on_c, 0, 57, 75
4, 323040, Note_on_c, 0, 57, 0
4, 323040, Note_on_c, 0, 54, 0
4, 323040, Note_on_c, 0, 50, 0
4, 323040, Note_on_c, 0, 38, 75
4, 323040, Note_on_c, 0, 45, 75
4, 323280, Note_on_c, 0, 45, 0
4, 323280, Note_on_c, 0, 38, 0
4, 323400, Note_on_c, 0, 50, 75
4, 323400, Note_on_c, 0, 54, 75
4, 323400, Note_on_c, 0, 57, 75
4, 323520, Note_on_c, 0, 57, 0
4, 323520, Note_on_c, 0, 54, 0
4, 323520, Note_on_c, 0, 50, 0
4, 323520, Note_on_c, 0, 50, 75
4, 323520, Note_on_c, 0, 54, 75
4, 323520, Note_on_c, 0, 57, 75
4, 323760, Note_on_c, 0, 57, 0
4, 323760, Note_on_c, 0, 54, 0
4, 323760, Note_on_c, 0, 50, 0
4, 323760, Note_on_c, 0, 50, 75
4, 323760, Note_on_c, 0, 54, 75
4, 323760, Note_on_c, 0, 57, 75
4, 324000, Note_on_c, 0, 57, 0
4, 324000, Note_on_c, 0, 54, 0
4, 324000, Note_on_c, 0, 50, 0
4, 324000, Note_on_c, 0, 50, 75
4, 324000, Note_on_c, 0, 54, 75
4, 324000, Note_on_c, 0, 57, 75
4, 324240, Note_on_c, 0, 57, 0
4, 324240, Note_on_c, 0, 54, 0
4, 324240, Note_on_c, 0, 50, 0
4, 324240, Note_on_c, 0, 50, 75
4, 324240, Note_on_c, 0, 54, 75
4, 324240, Note_on_c, 0, 57, 75
4, 324480, Note_on_c, 0, 57, 0
4, 324480, Note_on_c, 0, 54, 0
4, 324480, Note_on_c, 0, 50, 0
4, 324480, Note_on_c, 0, 38, 75
4, 324480, Note_on_c, 0, 45, 75
4, 324720, Note_on_c, 0, 45, 0
4, 324720, Note_on_c, 0, 38, 0
4, 324840, Note_on_c, 0, 50, 75
4, 324840, Note_on_c, 0, 54, 75
4, 324840, Note_on_c, 0, 57, 75
4, 324960, Note_on_c, 0, 57, 0
4, 324960, Note_on_c, 0, 54, 0
4, 324960, Note_on_c, 0, 50, 0
4, 324960, Note_on_c, 0, 50, 75
4, 324960, Note_on_c, 0, 54, 75
4, 324960, Note_on_c, 0, 57, 75
4, 325200, Note_on_c, 0, 57, 0
4, 325200, Note_on_c, 0, 54, 0
4, 325200, Note_on_c, 0, 50, 0
4, 325200, Note_on_c, 0, 50, 75
4, 325200, Note_on_c, 0, 54, 75
4, 325200, Note_on_c, 0, 57, 75
4, 325440, Note_on_c, 0, 57, 0
4, 325440, Note_on_c, 0, 54, 0
4, 325440, Note_on_c, 0, 50, 0
4, 325440, Note_on_c, 0, 50, 75
4, 325440, Note_on_c, 0, 54, 75
4, 325440, Note_on_c, 0, 57, 75
4, 325680, Note_on_c, 0, 57, 0
4, 325680, Note_on_c, 0, 54, 0
4, 325680, Note_on_c, 0, 50, 0
4, 325680, Note_on_c, 0, 50, 75
4, 325680, Note_on_c, 0, 54, 75
4, 325680, Note_on_c, 0, 57, 75
4, 325920, Note_on_c, 0, 57, 0
4, 325920, Note_on_c, 0, 54, 0
4, 325920, Note_on_c, 0, 50, 0
4, 325920, Note_on_c, 0, 54, 75
4, 325920, Note_on_c, 0, 57, 75
4, 326400, Note_on_c, 0, 57, 0
4, 326400, Note_on_c, 0, 54, 0
4, 326400, Note_on_c, 0, 54, 75
4, 326400, Note_on_c, 0, 57, 75
4, 326640, Note_on_c, 0, 57, 0
4, 326640, Note_on_c, 0, 54, 0
4, 326640, Note_on_c, 0, 54, 75
4, 326640, Note_on_c, 0, 57, 75
4, 327120, Note_on_c, 0, 57, 0
4, 327120, Note_on_c, 0, 54, 0
4, 327120, Note_on_c, 0, 54, 75
4, 327120, Note_on_c, 0, 57, 75
4, 327360, Note_on_c, 0, 57, 0
4, 327360, Note_on_c, 0, 54, 0
4, 327360, Note_on_c, 0, 54, 75
4, 327360, Note_on_c, 0, 57, 75
4, 327840, Note_on_c, 0, 57, 0
4, 327840, Note_on_c, 0, 54, 0
4, 327840, Note_on_c, 0, 54, 75
4, 327840, Note_on_c, 0, 57, 75
4, 328080, Note_on_c, 0, 57, 0
4, 328080, Note_on_c, 0, 54, 0
4, 328080, Note_on_c, 0, 54, 75
4, 328080, Note_on_c, 0, 57, 75
4, 328560, Note_on_c, 0, 57, 0
4, 328560, Note_on_c, 0, 54, 0
4, 328560, Note_on_c, 0, 54, 75
4, 328560, Note_on_c, 0, 57, 75
4, 328800, Note_on_c, 0, 57, 0
4, 328800, Note_on_c, 0, 54, 0
4, 331680, Note_on_c, 0, 53, 62
4, 331680, Note_on_c, 0, 57, 62
4, 332160, Note_on_c, 0, 57, 0
4, 332160, Note_on_c, 0, 53, 0
4, 332160, Note_on_c, 0, 53, 62
4, 332160, Note_on_c, 0, 57, 62
4, 332400, Note_on_c, 0, 57, 0
4, 332400, Note_on_c, 0, 53, 0
4, 332400, Note_on_c, 0, 53, 62
4, 332400, Note_on_c, 0, 57, 62
4, 332880, Note_on_c, 0, 57, 0
4, 332880, Note_on_c, 0, 53, 0
4, 332880, Note_on_c, 0, 53, 62
4, 332880, Note_on_c, 0, 57, 62
4, 333120, Note_on_c, 0, 57, 0
4, 333120, Note_on_c, 0, 53, 0
4, 333120, Note_on_c, 0, 53, 62
4, 333120, Note_on_c, 0, 57, 62
4, 333600, Note_on_c, 0, 57, 0
4, 333600, Note_on_c, 0, 53, 0
4, 333600, Note_on_c, 0, 53, 62
4, 333600, Note_on_c, 0, 57, 62
4, 333840, Note_on_c, 0, 57, 0
4, 333840, Note_on_c, 0, 53, 0
4, 333840, Note_on_c, 0, 53, 62
4, 333840, Note_on_c, 0, 57, 62
4, 334320, Note_on_c, 0, 57, 0
4, 334320, Note_on_c, 0, 53, 0
4, 334320, Note_on_c, 0, 53, 62
4, 334320, Note_on_c, 0, 57, 62
4, 334560, Note_on_c, 0, 57, 0
4, 334560, Note_on_c, 0, 53, 0
4, 337440, Note_on_c, 0, 48, 49
4, 337440, Note_on_c, 0, 53, 49
4, 337440, Note_on_c, 0, 63, 49
4, 337920, Note_on_c, 0, 63, 0
4, 337920, Note_on_c, 0, 53, 0
4, 337920, Note_on_c, 0, 48, 0
4, 337920, Note_on_c, 0, 48, 49
4, 337920, Note_on_c, 0, 53, 49
4, 337920, Note_on_c, 0, 63, 49
4, 338160, Note_on_c, 0, 63, 0
4, 338160, Note_on_c, 0, 53, 0
4, 338160, Note_on_c, 0, 48, 0
4, 338160, Note_on_c, 0, 48, 49
4, 338160, Note_on_c, 0, 53, 49
4, 338160, Note_on_c, 0, 63, 49
4, 338640, Note_on_c, 0, 63, 0
4, 338640, Note_on_c, 0, 53, 0
4, 338640, Note_on_c, 0, 48, 0
4, 338640, Note_on_c, 0, 48, 49
4, 338640, Note_on_c, 0, 53, 49
4, 338640, Note_on_c, 0, 63, 49
4, 338880, Note_on_c, 0, 63, 0
4, 338880, Note_on_c, 0, 53, 0
4, 338880, Note_on_c, 0, 48, 0
4, 338880, Note_on_c, 0, 48, 49
4, 338880, Note_on_c, 0, 53, 49
4, 338880, Note_on_c, 0, 63, 49
4, 339360, Note_on_c, 0, 63, 0
4, 339360, Note_on_c, 0, 53, 0
4, 339360, Note_on_c, 0, 48, 0
4, 339360, Note_on_c, 0, 48, 49
4, 339360, Note_on_c, 0, 53, 49
4, 339360, Note_on_c, 0, 63, 49
4, 339600, Note_on_c, 0, 63, 0
4, 339600, Note_on_c, 0, 53, 0
4, 339600, Note_on_c, 0, 48, 0
4, 339600, Note_on_c, 0, 48, 49
4, 339600, Note_on_c, 0, 53, 49
4, 339600, Note_on_c, 0, 63, 49
4, 340080, Note_on_c, 0, 63, 0
4, 340080, Note_on_c, 0, 53, 0
4, 340080, Note_on_c, 0, 48, 0
4, 340080, Note_on_c, 0, 48, 49
4, 340080, Note_on_c, 0, 53, 49
4, 340080, Note_on_c, 0, 63, 49
4, 340320, Note_on_c, 0, 63, 0
4, 340320, Note_on_c, 0, 53, 0
4, 340320, Note_on_c, 0, 48, 0
4, 343200, Note_on_c, 0, 46, 49
4, 343440, Note_on_c, 0, 46, 0
4, 343920, Note_on_c, 0, 44, 49
4, 343920, Note_on_c, 0, 56, 49
4, 343920, Note_on_c, 0, 60, 49
4, 344160, Note_on_c, 0, 60, 0
4, 344160, Note_on_c, 0, 56, 0
4, 344160, Note_on_c, 0, 44, 0
4, 344640, Note_on_c, 0, 43, 62
4, 344640, Note_on_c, 0, 55, 62
4, 344880, Note_on_c, 0, 55, 0
4, 344880, Note_on_c, 0, 43, 0
4, 345360, Note_on_c, 0, 41, 49
4, 345360, Note_on_c, 0, 43, 49
4, 345360, Note_on_c, 0, 53, 49
4, 345600, Note_on_c, 0, 53, 0
4, 345600, Note_on_c, 0, 43, 0
4, 345600, Note_on_c, 0, 41, 0
4, 346080, Note_on_c, 0, 39, 49
4, 346080, Note_on_c, 0, 51, 49
4, 346320, Note_on_c, 0, 51, 0
4, 346320, Note_on_c, 0, 39, 0
4, 346560, Note_on_c, 0, 55, 49
4, 346800, Note_on_c, 0, 55, 0
4, 346800, Note_on_c, 0, 50, 49
4, 347040, Note_on_c, 0, 50, 0
4, 347280, Note_on_c, 0, 55, 62
4, 347520, Note_on_c, 0, 55, 0
4, 347520, Note_on_c, 0, 48, 62
4, 347520, Note_on_c, 0, 55, 62
4, 347760, Note_on_c, 0, 55, 0
4, 347760, Note_on_c, 0, 48, 0
4, 348000, Note_on_c, 0, 63, 49
4, 348240, Note_on_c, 0, 63, 0
4, 348240, Note_on_c, 0, 48, 49
4, 348240, Note_on_c, 0, 55, 49
4, 348480, Note_on_c, 0, 55, 0
4, 348480, Note_on_c, 0, 48, 0
4, 348720, Note_on_c, 0, 64, 49
4, 348960, Note_on_c, 0, 64, 0
4, 348960, Note_on_c, 0, 45, 49
4, 348960, Note_on_c, 0, 53, 49
4, 349200, Note_on_c, 0, 53, 0
4, 349200, Note_on_c, 0, 45, 0
4, 349440, Note_on_c, 0, 60, 49
4, 349680, Note_on_c, 0, 60, 0
4, 349680, Note_on_c, 0, 43, 49
4, 349680, Note_on_c, 0, 48, 49
4, 349920, Note_on_c, 0, 48, 0
4, 349920, Note_on_c, 0, 43, 0
4, 350160, Note_on_c, 0, 60, 62
4, 350400, Note_on_c, 0, 60, 0
4, 350400, Note_on_c, 0, 53, 62
4, 350400, Note_on_c, 0, 56, 62
4, 350640, Note_on_c, 0, 56, 0
4, 350640, Note_on_c, 0, 53, 0
4, 351120, Note_on_c, 0, 65, 62
4, 351600, Note_on_c, 0, 65, 0
4, 351600, Note_on_c, 0, 60, 62
4, 351840, Note_on_c, 0, 60, 0
4, 351840, Note_on_c, 0, 56, 62
4, 352560, Note_on_c, 0, 56, 0
4, 352560, Note_on_c, 0, 53, 62
4, 353040, Note_on_c, 0, 53, 0
4, 353040, Note_on_c, 0, 48, 62
4, 353280, Note_on_c, 0, 48, 0
4, 353280, Note_on_c, 0, 53, 62
4, 354000, Note_on_c, 0, 53, 0
4, 354000, Note_on_c, 0, 53, 62
4, 354240, Note_on_c, 0, 53, 0
4, 354240, Note_on_c, 0, 51, 62
4, 354480, Note_on_c, 0, 51, 0
4, 354480, Note_on_c, 0, 49, 62
4, 354720, Note_on_c, 0, 49, 0
4, 354720, Control_c, 0, 64, 127
4, 354720, Note_on_c, 0, 48, 62
4, 354960, Note_on_c, 0, 48, 0
4, 354960, Note_on_c, 0, 46, 62
4, 355200, Note_on_c, 0, 46, 0
4, 355200, Note_on_c, 0, 44, 62
4, 355440, Note_on_c, 0, 44, 0
4, 355440, Note_on_c, 0, 43, 62
4, 355680, Note_on_c, 0, 43, 0
4, 355680, Note_on_c, 0, 41, 62
4, 355920, Note_on_c, 0, 41, 0
4, 355920, Control_c, 0, 64, 0
4, 355920, Note_on_c, 0, 39, 62
4, 356160, Note_on_c, 0, 39, 0
4, 356160, Note_on_c, 0, 37, 62
4, 356160, Note_on_c, 0, 49, 62
4, 356400, Note_on_c, 0, 49, 0
4, 356400, Note_on_c, 0, 37, 0
4, 356880, Note_on_c, 0, 47, 62
4, 356880, Note_on_c, 0, 59, 62
4, 357120, Note_on_c, 0, 59, 0
4, 357120, Note_on_c, 0, 47, 0
4, 357600, Note_on_c, 0, 46, 75
4, 357600, Note_on_c, 0, 58, 75
4, 357840, Note_on_c, 0, 58, 0
4, 357840, Note_on_c, 0, 46, 0
4, 358320, Note_on_c, 0, 44, 62
4, 358320, Note_on_c, 0, 46, 62
4, 358320, Note_on_c, 0, 56, 62
4, 358560, Note_on_c, 0, 56, 0
4, 358560, Note_on_c, 0, 46, 0
4, 358560, Note_on_c, 0, 44, 0
4, 359040, Note_on_c, 0, 42, 62
4, 359040, Note_on_c, 0, 54, 62
4, 359280, Note_on_c, 0, 54, 0
4, 359280, Note_on_c, 0, 42, 0
4, 359520, Note_on_c, 0, 58, 62
4, 359760, Note_on_c, 0, 58, 0
4, 359760, Note_on_c, 0, 41, 62
4, 359760, Note_on_c, 0, 53, 62
4, 360000, Note_on_c, 0, 53, 0
4, 360000, Note_on_c, 0, 41, 0
4, 360240, Note_on_c, 0, 58, 62
4, 360480, Note_on_c, 0, 58, 0
4, 360480, Note_on_c, 0, 51, 75
4, 360480, Note_on_c, 0, 58, 75
4, 360720, Note_on_c, 0, 58, 0
4, 360720, Note_on_c, 0, 51, 0
4, 360960, Note_on_c, 0, 66, 62
4, 361200, Note_on_c, 0, 66, 0
4, 361200, Note_on_c, 0, 49, 62
4, 361200, Note_on_c, 0, 58, 62
4, 361440, Note_on_c, 0, 58, 0
4, 361440, Note_on_c, 0, 49, 0
4, 361680, Note_on_c, 0, 67, 62
4, 361920, Note_on_c, 0, 67, 0
4, 361920, Note_on_c, 0, 47, 62
4, 361920, Note_on_c, 0, 56, 62
4, 362160, Note_on_c, 0, 56, 0
4, 362160, Note_on_c, 0, 47, 0
4, 362400, Note_on_c, 0, 63, 62
4, 362640, Note_on_c, 0, 63, 0
4, 362640, Note_on_c, 0, 46, 62
4, 362640, Note_on_c, 0, 51, 62
4, 362880, Note_on_c, 0, 51, 0
4, 362880, Note_on_c, 0, 46, 0
4, 363120, Note_on_c, 0, 63, 75
4, 363360, Note_on_c, 0, 63, 0
4, 363360, Note_on_c, 0, 56, 75
4, 363360, Note_on_c, 0, 59, 75
4, 363600, Note_on_c, 0, 59, 0
4, 363600, Note_on_c, 0, 56, 0
4, 364080, Note_on_c, 0, 68, 75
4, 364560, Note_on_c, 0, 68, 0
4, 364560, Note_on_c, 0, 63, 75
4, 364800, Note_on_c, 0, 63, 0
4, 364800, Note_on_c, 0, 59, 75
4, 365520, Note_on_c, 0, 59, 0
4, 365520, Note_on_c, 0, 56, 75
4, 366000, Note_on_c, 0, 56, 0
4, 366000, Note_on_c, 0, 51, 75
4, 366240, Note_on_c, 0, 51, 0
4, 366240, Note_on_c, 0, 56, 75
4, 366960, Note_on_c, 0, 56, 0
4, 366960, Note_on_c, 0, 56, 88
4, 367200, Note_on_c, 0, 56, 0
4, 367200, Note_on_c, 0, 54, 88
4, 367440, Note_on_c, 0, 54, 0
4, 367440, Note_on_c, 0, 52, 88
4, 367680, Note_on_c, 0, 52, 0
4, 367680, Note_on_c, 0, 51, 88
4, 367920, Note_on_c, 0, 51, 0
4, 367920, Note_on_c, 0, 49, 88
4, 368160, Note_on_c, 0, 49, 0
4, 368160, Note_on_c, 0, 47, 88
4, 368400, Note_on_c, 0, 47, 0
4, 368400, Note_on_c, 0, 46, 88
4, 368640, Note_on_c, 0, 46, 0
4, 368640, Note_on_c, 0, 44, 88
4, 368880, Note_on_c, 0, 44, 0
4, 368880, Note_on_c, 0, 42, 88
4, 369120, Note_on_c, 0, 42, 0
4, 369120, Note_on_c, 0, 40, 49
4, 369120, Note_on_c, 0, 47, 49
4, 369120, Note_on_c, 0, 52, 49
4, 370560, Note_on_c, 0, 52, 0
4, 370560, Note_on_c, 0, 47, 0
4, 370560, Note_on_c, 0, 40, 0
4, 370560, Control_c, 0, 64, 127
4, 370560, Note_on_c, 0, 47, 88
4, 370800, Note_on_c, 0, 47, 0
4, 370800, Note_on_c, 0, 49, 88
4, 371040, Note_on_c, 0, 49, 0
4, 371040, Note_on_c, 0, 47, 88
4, 371280, Note_on_c, 0, 47, 0
4, 371280, Note_on_c, 0, 46, 88
4, 371520, Note_on_c, 0, 46, 0
4, 371520, Note_on_c, 0, 44, 88
4, 371760, Note_on_c, 0, 44, 0
4, 371760, Control_c, 0, 64, 0
4, 371760, Note_on_c, 0, 42, 88
4, 372000, Note_on_c, 0, 42, 0
4, 372000, Note_on_c, 0, 40, 49
4, 372000, Note_on_c, 0, 47, 49
4, 372000, Note_on_c, 0, 52, 49
4, 373440, Note_on_c, 0, 52, 0
4, 373440, Note_on_c, 0, 47, 0
4, 373440, Note_on_c, 0, 40, 0
4, 373440, Control_c, 0, 64, 127
4, 373440, Note_on_c, 0, 50, 88
4, 373680, Note_on_c, 0, 50, 0
4, 373680, Note_on_c, 0, 52, 88
4, 373920, Note_on_c, 0, 52, 0
4, 373920, Note_on_c, 0, 50, 88
4, 374160, Note_on_c, 0, 50, 0
4, 374160, Note_on_c, 0, 49, 88
4, 374400, Note_on_c, 0, 49, 0
4, 374400, Note_on_c, 0, 47, 88
4, 374640, Note_on_c, 0, 47, 0
4, 374640, Control_c, 0, 64, 0
4, 374640, Note_on_c, 0, 45, 88
4, 374880, Note_on_c, 0, 45, 0
4, 374880, Note_on_c, 0, 43, 49
4, 374880, Note_on_c, 0, 50, 49
4, 374880, Note_on_c, 0, 55, 49
4, 376320, Note_on_c, 0, 55, 0
4, 376320, Note_on_c, 0, 50, 0
4, 376320, Note_on_c, 0, 43, 0
4, 376320, Control_c, 0, 64, 127
4, 376320, Note_on_c, 0, 50, 88
4, 376560, Note_on_c, 0, 50, 0
4, 376560, Note_on_c, 0, 52, 88
4, 376800, Note_on_c, 0, 52, 0
4, 376800, Note_on_c, 0, 50, 88
4, 377040, Note_on_c, 0, 50, 0
4, 377040, Note_on_c, 0, 49, 88
4, 377280, Note_on_c, 0, 49, 0
4, 377280, Note_on_c, 0, 47, 88
4, 377520, Note_on_c, 0, 47, 0
4, 377520, Control_c, 0, 64, 0
4, 377520, Note_on_c, 0, 45, 88
4, 377760, Note_on_c, 0, 45, 0
4, 377760, Note_on_c, 0, 43, 49
4, 377760, Note_on_c, 0, 50, 49
4, 377760, Note_on_c, 0, 55, 49
4, 379200, Note_on_c, 0, 55, 0
4, 379200, Note_on_c, 0, 50, 0
4, 379200, Note_on_c, 0, 43, 0
4, 379200, Note_on_c, 0, 50, 62
4, 379200, Note_on_c, 0, 57, 62
4, 380640, Note_on_c, 0, 57, 0
4, 380640, Note_on_c, 0, 50, 0
4, 380640, Control_c, 0, 64, 127
4, 380640, Note_on_c, 0, 59, 75
4, 380880, Note_on_c, 0, 59, 0
4, 380880, Note_on_c, 0, 57, 75
4, 381120, Note_on_c, 0, 57, 0
4, 381120, Note_on_c, 0, 55, 75
4, 381360, Note_on_c, 0, 55, 0
4, 381360, Note_on_c, 0, 54, 75
4, 381600, Note_on_c, 0, 54, 0
4, 381600, Note_on_c, 0, 52, 75
4, 381840, Note_on_c, 0, 52, 0
4, 381840, Control_c, 0, 64, 0
4, 381840, Note_on_c, 0, 50, 75
4, 382080, Note_on_c, 0, 50, 0
4, 382080, Control_c, 0, 64, 127
4, 382080, Note_on_c, 0, 49, 88
4, 382320, Note_on_c, 0, 49, 0
4, 382320, Note_on_c, 0, 47, 88
4, 382560, Note_on_c, 0, 47, 0
4, 382560, Note_on_c, 0, 46, 88
4, 382800, Note_on_c, 0, 46, 0
4, 382800, Note_on_c, 0, 44, 88
4, 383040, Note_on_c, 0, 44, 0
4, 383040, Note_on_c, 0, 42, 88
4, 383280, Note_on_c, 0, 42, 0
4, 383280, Control_c, 0, 64, 0
4, 383280, Note_on_c, 0, 40, 88
4, 383520, Note_on_c, 0, 40, 0
4, 383520, Note_on_c, 0, 38, 75
4, 383520, Note_on_c, 0, 50, 75
4, 383760, Note_on_c, 0, 50, 0
4, 383760, Note_on_c, 0, 38, 0
4, 383760, Note_on_c, 0, 56, 75
4, 384000, Note_on_c, 0, 56, 0
4, 384000, Note_on_c, 0, 57, 75
4, 384240, Note_on_c, 0, 57, 0
4, 384240, Note_on_c, 0, 59, 88
4, 384480, Note_on_c, 0, 59, 0
4, 384480, Note_on_c, 0, 61, 88
4, 384720, Note_on_c, 0, 61, 0
4, 384720, Note_on_c, 0, 62, 88
4, 384960, Note_on_c, 0, 62, 0
4, 384960, Note_on_c, 0, 37, 101
4, 384960, Note_on_c, 0, 49, 101
4, 385200, Note_on_c, 0, 49, 0
4, 385200, Note_on_c, 0, 37, 0
4, 385320, Note_on_c, 0, 37, 101
4, 385320, Note_on_c, 0, 49, 101
4, 385440, Note_on_c, 0, 49, 0
4, 385440, Note_on_c, 0, 37, 0
4, 385440, Note_on_c, 0, 37, 101
4, 385440, Note_on_c, 0, 49, 101
4, 385680, Note_on_c, 0, 49, 0
4, 385680, Note_on_c, 0, 37, 0
4, 385920, Note_on_c, 0, 57, 101
4, 386160, Note_on_c, 0, 57, 0
4, 386160, Note_on_c, 0, 55, 101
4, 386400, Note_on_c, 0, 55, 0
4, 386400, Note_on_c, 0, 54, 101
4, 386640, Note_on_c, 0, 54, 0
4, 386880, Note_on_c, 0, 50, 101
4, 386880, Note_on_c, 0, 62, 101
4, 387120, Note_on_c, 0, 62, 0
4, 387120, Note_on_c, 0, 50, 0
4, 387120, Note_on_c, 0, 45, 101
4, 387120, Note_on_c, 0, 57, 101
4, 387360, Note_on_c, 0, 57, 0
4, 387360, Note_on_c, 0, 45, 0
4, 387360, Note_on_c, 0, 42, 101
4, 387360, Note_on_c, 0, 54, 101
4, 387600, Note_on_c, 0, 54, 0
4, 387600, Note_on_c, 0, 42, 0
4, 387600, Note_on_c, 0, 38, 101
4, 387600, Note_on_c, 0, 50, 101
4, 387840, Note_on_c, 0, 50, 0
4, 387840, Note_on_c, 0, 38, 0
4, 387840, Note_on_c, 0, 37, 101
4, 387840, Note_on_c, 0, 49, 101
4, 388080, Note_on_c, 0, 49, 0
4, 388080, Note_on_c, 0, 37, 0
4, 388200, Note_on_c, 0, 37, 101
4, 388200, Note_on_c, 0, 49, 101
4, 388320, Note_on_c, 0, 49, 0
4, 388320, Note_on_c, 0, 37, 0
4, 388320, Note_on_c, 0, 37, 101
4, 388320, Note_on_c, 0, 49, 101
4, 388560, Note_on_c, 0, 49, 0
4, 388560, Note_on_c, 0, 37, 0
4, 388800, Note_on_c, 0, 57, 101
4, 389040, Note_on_c, 0, 57, 0
4, 389040, Note_on_c, 0, 55, 101
4, 389280, Note_on_c, 0, 55, 0
4, 389280, Note_on_c, 0, 54, 101
4, 389520, Note_on_c, 0, 54, 0
4, 389760, Note_on_c, 0, 50, 101
4, 389760, Note_on_c, 0, 62, 101
4, 390000, Note_on_c, 0, 62, 0
4, 390000, Note_on_c, 0, 50, 0
4, 390000, Note_on_c, 0, 45, 101
4, 390000, Note_on_c, 0, 57, 101
4, 390240, Note_on_c, 0, 57, 0
4, 390240, Note_on_c, 0, 45, 0
4, 390240, Note_on_c, 0, 42, 101
4, 390240, Note_on_c, 0, 54, 101
4, 390480, Note_on_c, 0, 54, 0
4, 390480, Note_on_c, 0, 42, 0
4, 390480, Note_on_c, 0, 38, 101
4, 390480, Note_on_c, 0, 50, 101
4, 390720, Note_on_c, 0, 50, 0
4, 390720, Note_on_c, 0, 38, 0
4, 390720, Note_on_c, 0, 37, 101
4, 390720, Note_on_c, 0, 49, 101
4, 390960, Note_on_c, 0, 49, 0
4, 390960, Note_on_c, 0, 37, 0
4, 391080, Note_on_c, 0, 37, 101
4, 391080, Note_on_c, 0, 49, 101
4, 391200, Note_on_c, 0, 49, 0
4, 391200, Note_on_c, 0, 37, 0
4, 391200, Note_on_c, 0, 37, 101
4, 391200, Note_on_c, 0, 49, 101
4, 391440, Note_on_c, 0, 49, 0
4, 391440, Note_on_c, 0, 37, 0
4, 391440, Note_on_c, 0, 49, 101
4, 391440, Note_on_c, 0, 52, 101
4, 391440, Note_on_c, 0, 57, 101
4, 391800, Note_on_c, 0, 57, 0
4, 391800, Note_on_c, 0, 52, 0
4, 391800, Note_on_c, 0, 49, 0
4, 391800, Note_on_c, 0, 49, 101
4, 391800, Note_on_c, 0, 52, 101
4, 391800, Note_on_c, 0, 57, 101
4, 391920, Note_on_c, 0, 57, 0
4, 391920, Note_on_c, 0, 52, 0
4, 391920, Note_on_c, 0, 49, 0
4, 391920, Note_on_c, 0, 49, 101
4, 391920, Note_on_c, 0, 52, 101
4, 391920, Note_on_c, 0, 57, 101
4, 392160, Note_on_c, 0, 57, 0
4, 392160, Note_on_c, 0, 52, 0
4, 392160, Note_on_c, 0, 49, 0
4, 392160, Note_on_c, 0, 36, 101
4, 392160, Note_on_c, 0, 48, 101
4, 392400, Note_on_c, 0, 48, 0
4, 392400, Note_on_c, 0, 36, 0
4, 392520, Note_on_c, 0, 36, 101
4, 392520, Note_on_c, 0, 48, 101
4, 392640, Note_on_c, 0, 48, 0
4, 392640, Note_on_c, 0, 36, 0
4, 392640, Note_on_c, 0, 36, 101
4, 392640, Note_on_c, 0, 48, 101
4, 392880, Note_on_c, 0, 48, 0
4, 392880, Note_on_c, 0, 36, 0
4, 392880, Note_on_c, 0, 48, 101
4, 392880, Note_on_c, 0, 53, 101
4, 392880, Note_on_c, 0, 57, 101
4, 393240, Note_on_c, 0, 57, 0
4, 393240, Note_on_c, 0, 53, 0
4, 393240, Note_on_c, 0, 48, 0
4, 393240, Note_on_c, 0, 48, 101
4, 393240, Note_on_c, 0, 53, 101
4, 393240, Note_on_c, 0, 57, 101
4, 393360, Note_on_c, 0, 57, 0
4, 393360, Note_on_c, 0, 53, 0
4, 393360, Note_on_c, 0, 48, 0
4, 393360, Note_on_c, 0, 48, 101
4, 393360, Note_on_c, 0, 53, 101
4, 393360, Note_on_c, 0, 57, 101
4, 393600, Note_on_c, 0, 57, 0
4, 393600, Note_on_c, 0, 53, 0
4, 393600, Note_on_c, 0, 48, 0
4, 393600, Note_on_c, 0, 35, 101
4, 393600, Note_on_c, 0, 47, 101
4, 393840, Note_on_c, 0, 47, 0
4, 393840, Note_on_c, 0, 35, 0
4, 393960, Note_on_c, 0, 35, 101
4, 393960, Note_on_c, 0, 47, 101
4, 394080, Note_on_c, 0, 47, 0
4, 394080, Note_on_c, 0, 35, 0
4, 394080, Note_on_c, 0, 35, 101
4, 394080, Note_on_c, 0, 47, 101
4, 394320, Note_on_c, 0, 47, 0
4, 394320, Note_on_c, 0, 35, 0
4, 394560, Note_on_c, 0, 56, 101
4, 394800, Note_on_c, 0, 56, 0
4, 394800, Note_on_c, 0, 53, 101
4, 395040, Note_on_c, 0, 53, 0
4, 395040, Note_on_c, 0, 50, 101
4, 395280, Note_on_c, 0, 50, 0
4, 395520, Note_on_c, 0, 47, 101
4, 395520, Note_on_c, 0, 59, 101
4, 395760, Note_on_c, 0, 59, 0
4, 395760, Note_on_c, 0, 47, 0
4, 395760, Note_on_c, 0, 44, 101
4, 395760, Note_on_c, 0, 56, 101
4, 396000, Note_on_c, 0, 56, 0
4, 396000, Note_on_c, 0, 44, 0
4, 396000, Note_on_c, 0, 41, 101
4, 396000, Note_on_c, 0, 53, 101
4, 396240, Note_on_c, 0, 53, 0
4, 396240, Note_on_c, 0, 41, 0
4, 396240, Note_on_c, 0, 38, 101
4, 396240, Note_on_c, 0, 50, 101
4, 396480, Note_on_c, 0, 50, 0
4, 396480, Note_on_c, 0, 38, 0
4, 396480, Note_on_c, 0, 35, 101
4, 396480, Note_on_c, 0, 47, 101
4, 396720, Note_on_c, 0, 47, 0
4, 396720, Note_on_c, 0, 35, 0
4, 396840, Note_on_c, 0, 35, 101
4, 396840, Note_on_c, 0, 47, 101
4, 396960, Note_on_c, 0, 47, 0
4, 396960, Note_on_c, 0, 35, 0
4, 396960, Note_on_c, 0, 35, 101
4, 396960, Note_on_c, 0, 47, 101
4, 397200, Note_on_c, 0, 47, 0
4, 397200, Note_on_c, 0, 35, 0
4, 397440, Note_on_c, 0, 56, 101
4, 397680, Note_on_c, 0, 56, 0
4, 397680, Note_on_c, 0, 53, 101
4, 397920, Note_on_c, 0, 53, 0
4, 397920, Note_on_c, 0, 50, 101
4, 398160, Note_on_c, 0, 50, 0
4, 398400, Note_on_c, 0, 47, 101
4, 398400, Note_on_c, 0, 59, 101
4, 398640, Note_on_c, 0, 59, 0
4, 398640, Note_on_c, 0, 47, 0
4, 398640, Note_on_c, 0, 44, 101
4, 398640, Note_on_c, 0, 56, 101
4, 398880, Note_on_c, 0, 56, 0
4, 398880, Note_on_c, 0, 44, 0
4, 398880, Note_on_c, 0, 41, 101
4, 398880, Note_on_c, 0, 53, 101
4, 399120, Note_on_c, 0, 53, 0
4, 399120, Note_on_c, 0, 41, 0
4, 399120, Note_on_c, 0, 38, 101
4, 399120, Note_on_c, 0, 50, 101
4, 399360, Note_on_c, 0, 50, 0
4, 399360, Note_on_c, 0, 38, 0
4, 399360, Note_on_c, 0, 35, 101
4, 399360, Note_on_c, 0, 47, 101
4, 399600, Note_on_c, 0, 47, 0
4, 399600, Note_on_c, 0, 35, 0
4, 399720, Note_on_c, 0, 35, 101
4, 399720, Note_on_c, 0, 47, 101
4, 399840, Note_on_c, 0, 47, 0
4, 399840, Note_on_c, 0, 35, 0
4, 399840, Note_on_c, 0, 35, 101
4, 399840, Note_on_c, 0, 47, 101
4, 400080, Note_on_c, 0, 47, 0
4, 400080, Note_on_c, 0, 35, 0
4, 400080, Note_on_c, 0, 47, 101
4, 400080, Note_on_c, 0, 53, 101
4, 400080, Note_on_c, 0, 59, 101
4, 400440, Note_on_c, 0, 59, 0
4, 400440, Note_on_c, 0, 53, 0
4, 400440, Note_on_c, 0, 47, 0
4, 400440, Note_on_c, 0, 47, 101
4, 400440, Note_on_c, 0, 53, 101
4, 400440, Note_on_c, 0, 59, 101
4, 400560, Note_on_c, 0, 59, 0
4, 400560, Note_on_c, 0, 53, 0
4, 400560, Note_on_c, 0, 47, 0
4, 400560, Note_on_c, 0, 47, 101
4, 400560, Note_on_c, 0, 53, 101
4, 400560, Note_on_c, 0, 59, 101
4, 400800, Note_on_c, 0, 59, 0
4, 400800, Note_on_c, 0, 53, 0
4, 400800, Note_on_c, 0, 47, 0
4, 400800, Note_on_c, 0, 34, 101
4, 400800, Note_on_c, 0, 46, 101
4, 401040, Note_on_c, 0, 46, 0
4, 401040, Note_on_c, 0, 34, 0
4, 401160, Note_on_c, 0, 34, 101
4, 401160, Note_on_c, 0, 46, 101
4, 401280, Note_on_c, 0, 46, 0
4, 401280, Note_on_c, 0, 34, 0
4, 401280, Note_on_c, 0, 34, 101
4, 401280, Note_on_c, 0, 46, 101
4, 401520, Note_on_c, 0, 46, 0
4, 401520, Note_on_c, 0, 34, 0
4, 401520, Note_on_c, 0, 46, 101
4, 401520, Note_on_c, 0, 53, 101
4, 401520, Note_on_c, 0, 58, 101
4, 401880, Note_on_c, 0, 58, 0
4, 401880, Note_on_c, 0, 53, 0
4, 401880, Note_on_c, 0, 46, 0
4, 401880, Note_on_c, 0, 46, 101
4, 401880, Note_on_c, 0, 53, 101
4, 401880, Note_on_c, 0, 58, 101
4, 402000, Note_on_c, 0, 58, 0
4, 402000, Note_on_c, 0, 53, 0
4, 402000, Note_on_c, 0, 46, 0
4, 402000, Note_on_c, 0, 46, 101
4, 402000, Note_on_c, 0, 53, 101
4, 402000, Note_on_c, 0, 58, 101
4, 402240, Note_on_c, 0, 58, 0
4, 402240, Note_on_c, 0, 53, 0
4, 402240, Note_on_c, 0, 46, 0
4, 402240, Note_on_c, 0, 46, 88
4, 402240, Note_on_c, 0, 53, 88
4, 402600, Note_on_c, 0, 53, 0
4, 402600, Note_on_c, 0, 46, 0
4, 402600, Note_on_c, 0, 46, 88
4, 402600, Note_on_c, 0, 53, 88
4, 402720, Note_on_c, 0, 53, 0
4, 402720, Note_on_c, 0, 46, 0
4, 402720, Note_on_c, 0, 46, 88
4, 402720, Note_on_c, 0, 53, 88
4, 402960, Note_on_c, 0, 53, 0
4, 402960, Note_on_c, 0, 46, 0
4, 402960, Note_on_c, 0, 46, 88
4, 402960, Note_on_c, 0, 53, 88
4, 403320, Note_on_c, 0, 53, 0
4, 403320, Note_on_c, 0, 46, 0
4, 403320, Note_on_c, 0, 46, 88
4, 403320, Note_on_c, 0, 53, 88
4, 403440, Note_on_c, 0, 53, 0
4, 403440, Note_on_c, 0, 46, 0
4, 403440, Note_on_c, 0, 46, 88
4, 403440, Note_on_c, 0, 53, 88
4, 403680, Note_on_c, 0, 53, 0
4, 403680, Note_on_c, 0, 46, 0
4, 403680, Note_on_c, 0, 41, 75
4, 404160, Note_on_c, 0, 41, 0
4, 404160, Note_on_c, 0, 34, 75
4, 404400, Note_on_c, 0, 34, 0
4, 404400, Note_on_c, 0, 41, 62
4, 404880, Note_on_c, 0, 41, 0
4, 404880, Note_on_c, 0, 34, 62
4, 405120, Note_on_c, 0, 34, 0
4, 405120, Note_on_c, 0, 46, 62
4, 405120, Note_on_c, 0, 53, 62
4, 405480, Note_on_c, 0, 53, 0
4, 405480, Note_on_c, 0, 46, 0
4, 405480, Note_on_c, 0, 46, 62
4, 405480, Note_on_c, 0, 53, 62
4, 405600, Note_on_c, 0, 53, 0
4, 405600, Note_on_c, 0, 46, 0
4, 405600, Note_on_c, 0, 46, 62
4, 405600, Note_on_c, 0, 53, 62
4, 405840, Note_on_c, 0, 53, 0
4, 405840, Note_on_c, 0, 46, 0
4, 405840, Note_on_c, 0, 46, 62
4, 405840, Note_on_c, 0, 53, 62
4, 406200, Note_on_c, 0, 53, 0
4, 406200, Note_on_c, 0, 46, 0
4, 406200, Note_on_c, 0, 46, 62
4, 406200, Note_on_c, 0, 53, 62
4, 406320, Note_on_c, 0, 53, 0
4, 406320, Note_on_c, 0, 46, 0
4, 406320, Note_on_c, 0, 46, 75
4, 406320, Note_on_c, 0, 54, 75
4, 406560, Note_on_c, 0, 54, 0
4, 406560, Note_on_c, 0, 46, 0
4, 406560, Note_on_c, 0, 46, 62
4, 406560, Note_on_c, 0, 53, 62
4, 406920, Note_on_c, 0, 53, 0
4, 406920, Note_on_c, 0, 46, 0
4, 406920, Note_on_c, 0, 46, 62
4, 406920, Note_on_c, 0, 53, 62
4, 407040, Note_on_c, 0, 53, 0
4, 407040, Note_on_c, 0, 46, 0
4, 407040, Note_on_c, 0, 46, 62
4, 407040, Note_on_c, 0, 53, 62
4, 407280, Note_on_c, 0, 53, 0
4, 407280, Note_on_c, 0, 46, 0
4, 407280, Note_on_c, 0, 46, 75
4, 407280, Note_on_c, 0, 51, 75
4, 407640, Note_on_c, 0, 51, 0
4, 407640, Note_on_c, 0, 46, 0
4, 407640, Note_on_c, 0, 46, 75
4, 407640, Note_on_c, 0, 51, 75
4, 407760, Note_on_c, 0, 51, 0
4, 407760, Note_on_c, 0, 46, 0
4, 407760, Note_on_c, 0, 46, 75
4, 407760, Note_on_c, 0, 50, 75
4, 408000, Note_on_c, 0, 50, 0
4, 408000, Note_on_c, 0, 46, 0
4, 408000, Note_on_c, 0, 46, 75
4, 408000, Note_on_c, 0, 51, 75
4, 408360, Note_on_c, 0, 51, 0
4, 408360, Note_on_c, 0, 46, 0
4, 408360, Note_on_c, 0, 46, 75
4, 408360, Note_on_c, 0, 51, 75
4, 408480, Note_on_c, 0, 51, 0
4, 408480, Note_on_c, 0, 46, 0
4, 408480, Note_on_c, 0, 46, 75
4, 408480, Note_on_c, 0, 51, 75
4, 408720, Note_on_c, 0, 51, 0
4, 408720, Note_on_c, 0, 46, 0
4, 408720, Note_on_c, 0, 46, 75
4, 408720, Note_on_c, 0, 51, 75
4, 409080, Note_on_c, 0, 51, 0
4, 409080, Note_on_c, 0, 46, 0
4, 409080, Note_on_c, 0, 46, 75
4, 409080, Note_on_c, 0, 51, 75
4, 409200, Note_on_c, 0, 51, 0
4, 409200, Note_on_c, 0, 46, 0
4, 409200, Note_on_c, 0, 46, 75
4, 409200, Note_on_c, 0, 48, 75
4, 409440, Note_on_c, 0, 48, 0
4, 409440, Note_on_c, 0, 46, 0
4, 409440, Note_on_c, 0, 46, 62
4, 409440, Note_on_c, 0, 50, 62
4, 409800, Note_on_c, 0, 50, 0
4, 409800, Note_on_c, 0, 46, 0
4, 409800, Note_on_c, 0, 46, 62
4, 409800, Note_on_c, 0, 50, 62
4, 409920, Note_on_c, 0, 50, 0
4, 409920, Note_on_c, 0, 46, 0
4, 409920, Note_on_c, 0, 46, 62
4, 409920, Note_on_c, 0, 50, 62
4, 410160, Note_on_c, 0, 50, 0
4, 410160, Note_on_c, 0, 46, 0
4, 410160, Note_on_c, 0, 41, 88
4, 410640, Note_on_c, 0, 41, 0
4, 410640, Note_on_c, 0, 34, 62
4, 410880, Note_on_c, 0, 34, 0
4, 410880, Note_on_c, 0, 46, 62
4, 410880, Note_on_c, 0, 51, 62
4, 411240, Note_on_c, 0, 51, 0
4, 411240, Note_on_c, 0, 46, 0
4, 411240, Note_on_c, 0, 46, 62
4, 411240, Note_on_c, 0, 51, 62
4, 411360, Note_on_c, 0, 51, 0
4, 411360, Note_on_c, 0, 46, 0
4, 411360, Note_on_c, 0, 46, 62
4, 411360, Note_on_c, 0, 51, 62
4, 411600, Note_on_c, 0, 51, 0
4, 411600, Note_on_c, 0, 46, 0
4, 411600, Note_on_c, 0, 46, 62
4, 411600, Note_on_c, 0, 51, 62
4, 411960, Note_on_c, 0, 51, 0
4, 411960, Note_on_c, 0, 46, 0
4, 411960, Note_on_c, 0, 46, 62
4, 411960, Note_on_c, 0, 51, 62
4, 412080, Note_on_c, 0, 51, 0
4, 412080, Note_on_c, 0, 46, 0
4, 412080, Note_on_c, 0, 46, 62
4, 412080, Note_on_c, 0, 51, 62
4, 412320, Note_on_c, 0, 51, 0
4, 412320, Note_on_c, 0, 46, 0
4, 412320, Note_on_c, 0, 46, 62
4, 412320, Note_on_c, 0, 53, 62
4, 412680, Note_on_c, 0, 53, 0
4, 412680, Note_on_c, 0, 46, 0
4, 412680, Note_on_c, 0, 46, 62
4, 412680, Note_on_c, 0, 53, 62
4, 412800, Note_on_c, 0, 53, 0
4, 412800, Note_on_c, 0, 46, 0
4, 412800, Note_on_c, 0, 46, 62
4, 412800, Note_on_c, 0, 53, 62
4, 413040, Note_on_c, 0, 53, 0
4, 413040, Note_on_c, 0, 46, 0
4, 413040, Note_on_c, 0, 46, 75
4, 413040, Note_on_c, 0, 51, 75
4, 413400, Note_on_c, 0, 51, 0
4, 413400, Note_on_c, 0, 46, 0
4, 413400, Note_on_c, 0, 46, 75
4, 413400, Note_on_c, 0, 51, 75
4, 413520, Note_on_c, 0, 51, 0
4, 413520, Note_on_c, 0, 46, 0
4, 413520, Note_on_c, 0, 46, 75
4, 413520, Note_on_c, 0, 50, 75
4, 413760, Note_on_c, 0, 50, 0
4, 413760, Note_on_c, 0, 46, 0
4, 413760, Note_on_c, 0, 46, 75
4, 413760, Note_on_c, 0, 51, 75
4, 414120, Note_on_c, 0, 51, 0
4, 414120, Note_on_c, 0, 46, 0
4, 414120, Note_on_c, 0, 46, 75
4, 414120, Note_on_c, 0, 51, 75
4, 414240, Note_on_c, 0, 51, 0
4, 414240, Note_on_c, 0, 46, 0
4, 414240, Note_on_c, 0, 46, 75
4, 414240, Note_on_c, 0, 51, 75
4, 414480, Note_on_c, 0, 51, 0
4, 414480, Note_on_c, 0, 46, 0
4, 414480, Note_on_c, 0, 46, 75
4, 414480, Note_on_c, 0, 51, 75
4, 414840, Note_on_c, 0, 51, 0
4, 414840, Note_on_c, 0, 46, 0
4, 414840, Note_on_c, 0, 46, 75
4, 414840, Note_on_c, 0, 51, 75
4, 414960, Note_on_c, 0, 51, 0
4, 414960, Note_on_c, 0, 46, 0
4, 414960, Note_on_c, 0, 46, 75
4, 414960, Note_on_c, 0, 48, 75
4, 415200, Note_on_c, 0, 48, 0
4, 415200, Note_on_c, 0, 46, 0
4, 415200, Note_on_c, 0, 46, 62
4, 415200, Note_on_c, 0, 50, 62
4, 415560, Note_on_c, 0, 50, 0
4, 415560, Note_on_c, 0, 46, 0
4, 415560, Note_on_c, 0, 46, 62
4, 415560, Note_on_c, 0, 50, 62
4, 415680, Note_on_c, 0, 50, 0
4, 415680, Note_on_c, 0, 46, 0
4, 415680, Note_on_c, 0, 46, 62
4, 415680, Note_on_c, 0, 50, 62
4, 415920, Note_on_c, 0, 50, 0
4, 415920, Note_on_c, 0, 46, 0
4, 415920, Note_on_c, 0, 41, 88
4, 416400, Note_on_c, 0, 41, 0
4, 416400, Note_on_c, 0, 34, 62
4, 416640, Note_on_c, 0, 34, 0
4, 416640, Note_on_c, 0, 54, 75
4, 416880, Note_on_c, 0, 54, 0
4, 417000, Note_on_c, 0, 54, 75
4, 417120, Note_on_c, 0, 54, 0
4, 417120, Note_on_c, 0, 54, 75
4, 417600, Note_on_c, 0, 54, 0
4, 417600, Note_on_c, 0, 56, 75
4, 417840, Note_on_c, 0, 56, 0
4, 417840, Note_on_c, 0, 58, 75
4, 418080, Note_on_c, 0, 58, 0
4, 418080, Note_on_c, 0, 59, 75
4, 418320, Note_on_c, 0, 59, 0
4, 418320, Note_on_c, 0, 57, 75
4, 418560, Note_on_c, 0, 57, 0
4, 418560, Note_on_c, 0, 55, 75
4, 418800, Note_on_c, 0, 55, 0
4, 418800, Note_on_c, 0, 54, 75
4, 419040, Note_on_c, 0, 54, 0
4, 419040, Note_on_c, 0, 52, 75
4, 419280, Note_on_c, 0, 52, 0
4, 419280, Note_on_c, 0, 50, 75
4, 419520, Note_on_c, 0, 50, 0
4, 419520, Note_on_c, 0, 43, 75
4, 419520, Note_on_c, 0, 55, 75
4, 420240, Note_on_c, 0, 55, 0
4, 420240, Note_on_c, 0, 43, 0
4, 420240, Note_on_c, 0, 42, 75
4, 420240, Note_on_c, 0, 54, 75
4, 420480, Note_on_c, 0, 54, 0
4, 420480, Note_on_c, 0, 42, 0
4, 420480, Note_on_c, 0, 58, 88
4, 420720, Note_on_c, 0, 58, 0
4, 420720, Note_on_c, 0, 57, 88
4, 420960, Note_on_c, 0, 57, 0
4, 420960, Note_on_c, 0, 52, 88
4, 420960, Note_on_c, 0, 55, 88
4, 421200, Note_on_c, 0, 55, 0
4, 421200, Note_on_c, 0, 52, 0
4, 421200, Note_on_c, 0, 62, 88
4, 421440, Note_on_c, 0, 62, 0
4, 421440, Note_on_c, 0, 60, 88
4, 421680, Note_on_c, 0, 60, 0
4, 421680, Note_on_c, 0, 59, 88
4, 421920, Note_on_c, 0, 59, 0
4, 421920, Note_on_c, 0, 57, 88
4, 422160, Note_on_c, 0, 57, 0
4, 422160, Note_on_c, 0, 55, 88
4, 422400, Note_on_c, 0, 55, 0
4, 422400, Note_on_c, 0, 52, 75
4, 422640, Note_on_c, 0, 52, 0
4, 422760, Note_on_c, 0, 52, 75
4, 422880, Note_on_c, 0, 52, 0
4, 422880, Note_on_c, 0, 52, 75
4, 423360, Note_on_c, 0, 52, 0
4, 423360, Note_on_c, 0, 54, 75
4, 423600, Note_on_c, 0, 54, 0
4, 423600, Note_on_c, 0, 56, 75
4, 423840, Note_on_c, 0, 56, 0
4, 423840, Note_on_c, 0, 57, 75
4, 424080, Note_on_c, 0, 57, 0
4, 424080, Note_on_c, 0, 55, 75
4, 424320, Note_on_c, 0, 55, 0
4, 424320, Note_on_c, 0, 53, 75
4, 424560, Note_on_c, 0, 53, 0
4, 424560, Note_on_c, 0, 52, 75
4, 424800, Note_on_c, 0, 52, 0
4, 424800, Note_on_c, 0, 50, 75
4, 425040, Note_on_c, 0, 50, 0
4, 425040, Note_on_c, 0, 48, 75
4, 425280, Note_on_c, 0, 48, 0
4, 425280, Note_on_c, 0, 41, 62
4, 425280, Note_on_c, 0, 53, 62
4, 426000, Note_on_c, 0, 53, 0
4, 426000, Note_on_c, 0, 41, 0
4, 426000, Note_on_c, 0, 40, 62
4, 426000, Note_on_c, 0, 52, 62
4, 426240, Note_on_c, 0, 52, 0
4, 426240, Note_on_c, 0, 40, 0
4, 426240, Note_on_c, 0, 56, 75
4, 426480, Note_on_c, 0, 56, 0
4, 426480, Note_on_c, 0, 55, 75
4, 426720, Note_on_c, 0, 55, 0
4, 426720, Note_on_c, 0, 50, 75
4, 426720, Note_on_c, 0, 53, 75
4, 426960, Note_on_c, 0, 53, 0
4, 426960, Note_on_c, 0, 50, 0
4, 426960, Note_on_c, 0, 60, 75
4, 427200, Note_on_c, 0, 60, 0
4, 427200, Note_on_c, 0, 58, 75
4, 427440, Note_on_c, 0, 58, 0
4, 427440, Note_on_c, 0, 57, 75
4, 427680, Note_on_c, 0, 57, 0
4, 427680, Note_on_c, 0, 55, 75
4, 427920, Note_on_c, 0, 55, 0
4, 427920, Note_on_c, 0, 53, 75
4, 428160, Note_on_c, 0, 53, 0
4, 428160, Note_on_c, 0, 34, 88
4, 428160, Note_on_c, 0, 46, 88
4, 428640, Note_on_c, 0, 46, 0
4, 428640, Note_on_c, 0, 34, 0
4, 428640, Note_on_c, 0, 46, 88
4, 428640, Note_on_c, 0, 50, 88
4, 428640, Note_on_c, 0, 55, 88
4, 428880, Note_on_c, 0, 55, 0
4, 428880, Note_on_c, 0, 50, 0
4, 428880, Note_on_c, 0, 46, 0
4, 428880, Note_on_c, 0, 34, 88
4, 428880, Note_on_c, 0, 46, 88
4, 429360, Note_on_c, 0, 46, 0
4, 429360, Note_on_c, 0, 34, 0
4, 429360, Note_on_c, 0, 46, 88
4, 429360, Note_on_c, 0, 50, 88
4, 429360, Note_on_c, 0, 55, 88
4, 429600, Note_on_c, 0, 55, 0
4, 429600, Note_on_c, 0, 50, 0
4, 429600, Note_on_c, 0, 46, 0
4, 429840, Note_on_c, 0, 52, 88
4, 429960, Note_on_c, 0, 52, 0
4, 429960, Note_on_c, 0, 54, 88
4, 430080, Note_on_c, 0, 54, 0
4, 430080, Note_on_c, 0, 55, 88
4, 430200, Note_on_c, 0, 55, 0
4, 430200, Note_on_c, 0, 57, 88
4, 430320, Note_on_c, 0, 57, 0
4, 430320, Note_on_c, 0, 58, 88
4, 430560, Note_on_c, 0, 58, 0
4, 431040, Note_on_c, 0, 41, 88
4, 431040, Note_on_c, 0, 53, 88
4, 431520, Note_on_c, 0, 53, 0
4, 431520, Note_on_c, 0, 41, 0
4, 431520, Note_on_c, 0, 53, 88
4, 431520, Note_on_c, 0, 57, 88
4, 431520, Note_on_c, 0, 62, 88
4, 431760, Note_on_c, 0, 62, 0
4, 431760, Note_on_c, 0, 57, 0
4, 431760, Note_on_c, 0, 53, 0
4, 431760, Note_on_c, 0, 41, 88
4, 431760, Note_on_c, 0, 53, 88
4, 432240, Note_on_c, 0, 53, 0
4, 432240, Note_on_c, 0, 41, 0
4, 432240, Note_on_c, 0, 53, 88
4, 432240, Note_on_c, 0, 57, 88
4, 432240, Note_on_c, 0, 62, 88
4, 432480, Note_on_c, 0, 62, 0
4, 432480, Note_on_c, 0, 57, 0
4, 432480, Note_on_c, 0, 53, 0
4, 432720, Note_on_c, 0, 57, 88
4, 432960, Note_on_c, 0, 57, 0
4, 432960, Note_on_c, 0, 56, 88
4, 433080, Note_on_c, 0, 56, 0
4, 433080, Note_on_c, 0, 55, 88
4, 433200, Note_on_c, 0, 55, 0
4, 433200, Note_on_c, 0, 53, 88
4, 433200, Note_on_c, 0, 57, 88
4, 433440, Note_on_c, 0, 57, 0
4, 433440, Note_on_c, 0, 53, 0
4, 433920, Note_on_c, 0, 34, 88
4, 433920, Note_on_c, 0, 46, 88
4, 434400, Note_on_c, 0, 46, 0
4, 434400, Note_on_c, 0, 34, 0
4, 434400, Note_on_c, 0, 46, 88
4, 434400, Note_on_c, 0, 50, 88
4, 434400, Note_on_c, 0, 55, 88
4, 434640, Note_on_c, 0, 55, 0
4, 434640, Note_on_c, 0, 50, 0
4, 434640, Note_on_c, 0, 46, 0
4, 434640, Note_on_c, 0, 34, 88
4, 434640, Note_on_c, 0, 46, 88
4, 435120, Note_on_c, 0, 46, 0
4, 435120, Note_on_c, 0, 34, 0
4, 435120, Note_on_c, 0, 46, 88
4, 435120, Note_on_c, 0, 50, 88
4, 435120, Note_on_c, 0, 55, 88
4, 435360, Note_on_c, 0, 55, 0
4, 435360, Note_on_c, 0, 50, 0
4, 435360, Note_on_c, 0, 46, 0
4, 435600, Note_on_c, 0, 52, 88
4, 435720, Note_on_c, 0, 52, 0
4, 435720, Note_on_c, 0, 54, 88
4, 435840, Note_on_c, 0, 54, 0
4, 435840, Note_on_c, 0, 55, 88
4, 435960, Note_on_c, 0, 55, 0
4, 435960, Note_on_c, 0, 57, 88
4, 436080, Note_on_c, 0, 57, 0
4, 436080, Note_on_c, 0, 58, 88
4, 436320, Note_on_c, 0, 58, 0
4, 436800, Note_on_c, 0, 41, 88
4, 436800, Note_on_c, 0, 53, 88
4, 437280, Note_on_c, 0, 53, 0
4, 437280, Note_on_c, 0, 41, 0
4, 437280, Note_on_c, 0, 53, 88
4, 437280, Note_on_c, 0, 57, 88
4, 437280, Note_on_c, 0, 62, 88
4, 437520, Note_on_c, 0, 62, 0
4, 437520, Note_on_c, 0, 57, 0
4, 437520, Note_on_c, 0, 53, 0
4, 437520, Note_on_c, 0, 41, 88
4, 437520, Note_on_c, 0, 53, 88
4, 438000, Note_on_c, 0, 53, 0
4, 438000, Note_on_c, 0, 41, 0
4, 438000, Note_on_c, 0, 53, 88
4, 438000, Note_on_c, 0, 57, 88
4, 438000, Note_on_c, 0, 62, 88
4, 438240, Note_on_c, 0, 62, 0
4, 438240, Note_on_c, 0, 57, 0
4, 438240, Note_on_c, 0, 53, 0
4, 438480, Note_on_c, 0, 57, 88
4, 438720, Note_on_c, 0, 57, 0
4, 438720, Note_on_c, 0, 56, 88
4, 438840, Note_on_c, 0, 56, 0
4, 438840, Note_on_c, 0, 55, 88
4, 438960, Note_on_c, 0, 55, 0
4, 438960, Note_on_c, 0, 53, 88
4, 438960, Note_on_c, 0, 57, 88
4, 439200, Note_on_c, 0, 57, 0
4, 439200, Note_on_c, 0, 53, 0
4, 439680, Note_on_c, 0, 34, 88
4, 439680, Note_on_c, 0, 46, 88
4, 440160, Note_on_c, 0, 46, 0
4, 440160, Note_on_c, 0, 34, 0
4, 440160, Note_on_c, 0, 46, 88
4, 440160, Note_on_c, 0, 50, 88
4, 440160, Note_on_c, 0, 55, 88
4, 440400, Note_on_c, 0, 55, 0
4, 440400, Note_on_c, 0, 50, 0
4, 440400, Note_on_c, 0, 46, 0
4, 440400, Note_on_c, 0, 55, 88
4, 440400, Note_on_c, 0, 58, 88
4, 440640, Note_on_c, 0, 58, 0
4, 440640, Note_on_c, 0, 55, 0
4, 441120, Note_on_c, 0, 41, 88
4, 441120, Note_on_c, 0, 53, 88
4, 441600, Note_on_c, 0, 53, 0
4, 441600, Note_on_c, 0, 41, 0
4, 441600, Note_on_c, 0, 53, 88
4, 441600, Note_on_c, 0, 57, 88
4, 441600, Note_on_c, 0, 62, 88
4, 441840, Note_on_c, 0, 62, 0
4, 441840, Note_on_c, 0, 57, 0
4, 441840, Note_on_c, 0, 53, 0
4, 441840, Note_on_c, 0, 53, 88
4, 441840, Note_on_c, 0, 57, 88
4, 442080, Note_on_c, 0, 57, 0
4, 442080, Note_on_c, 0, 53, 0
4, 442560, Note_on_c, 0, 34, 88
4, 442560, Note_on_c, 0, 46, 88
4, 443040, Note_on_c, 0, 46, 0
4, 443040, Note_on_c, 0, 34, 0
4, 443040, Note_on_c, 0, 46, 88
4, 443040, Note_on_c, 0, 50, 88
4, 443040, Note_on_c, 0, 55, 88
4, 443280, Note_on_c, 0, 55, 0
4, 443280, Note_on_c, 0, 50, 0
4, 443280, Note_on_c, 0, 46, 0
4, 443280, Note_on_c, 0, 55, 88
4, 443280, Note_on_c, 0, 58, 88
4, 443520, Note_on_c, 0, 58, 0
4, 443520, Note_on_c, 0, 55, 0
4, 444000, Note_on_c, 0, 41, 88
4, 444000, Note_on_c, 0, 53, 88
4, 444480, Note_on_c, 0, 53, 0
4, 444480, Note_on_c, 0, 41, 0
4, 444480, Note_on_c, 0, 53, 88
4, 444480, Note_on_c, 0, 57, 88
4, 444480, Note_on_c, 0, 62, 88
4, 444720, Note_on_c, 0, 62, 0
4, 444720, Note_on_c, 0, 57, 0
4, 444720, Note_on_c, 0, 53, 0
4, 444720, Note_on_c, 0, 53, 88
4, 444720, Note_on_c, 0, 57, 88
4, 444960, Note_on_c, 0, 57, 0
4, 444960, Note_on_c, 0, 53, 0
4, 445680, Note_on_c, 0, 57, 88
4, 446160, Note_on_c, 0, 57, 0
4, 446160, Note_on_c, 0, 57, 88
4, 446640, Note_on_c, 0, 57, 0
4, 446640, Note_on_c, 0, 57, 88
4, 446880, Note_on_c, 0, 57, 0
4, 447120, Note_on_c, 0, 53, 88
4, 447600, Note_on_c, 0, 53, 0
4, 447600, Note_on_c, 0, 53, 88
4, 448080, Note_on_c, 0, 53, 0
4, 448080, Note_on_c, 0, 53, 88
4, 448320, Note_on_c, 0, 53, 0
4, 448560, Note_on_c, 0, 46, 88
4, 448560, Note_on_c, 0, 50, 88
4, 449040, Note_on_c, 0, 50, 0
4, 449040, Note_on_c, 0, 46, 0
4, 449040, Note_on_c, 0, 46, 88
4, 449040, Note_on_c, 0, 50, 88
4, 449520, Note_on_c, 0, 50, 0
4, 449520, Note_on_c, 0, 46, 0
4, 449520, Note_on_c, 0, 46, 88
4, 449520, Note_on_c, 0, 50, 88
4, 449760, Note_on_c, 0, 50, 0
4, 449760, Note_on_c, 0, 46, 0
4, 450000, Note_on_c, 0, 43, 88
4, 450000, Note_on_c, 0, 52, 88
4, 450480, Note_on_c, 0, 52, 0
4, 450480, Note_on_c, 0, 43, 0
4, 450480, Note_on_c, 0, 43, 88
4, 450480, Note_on_c, 0, 52, 88
4, 450960, Note_on_c, 0, 52, 0
4, 450960, Note_on_c, 0, 43, 0
4, 450960, Note_on_c, 0, 43, 88
4, 450960, Note_on_c, 0, 52, 88
4, 451200, Note_on_c, 0, 52, 0
4, 451200, Note_on_c, 0, 43, 0
4, 451200, Note_on_c, 0, 50, 88
4, 451560, Note_on_c, 0, 50, 0
4, 451560, Note_on_c, 0, 50, 88
4, 451680, Note_on_c, 0, 50, 0
4, 451680, Note_on_c, 0, 50, 88
4, 452160, Note_on_c, 0, 50, 0
4, 452160, Note_on_c, 0, 50, 88
4, 452400, Note_on_c, 0, 50, 0
4, 452400, Note_on_c, 0, 50, 88
4, 452640, Note_on_c, 0, 50, 0
4, 452880, Note_on_c, 0, 43, 88
4, 452880, Note_on_c, 0, 52, 88
4, 453360, Note_on_c, 0, 52, 0
4, 453360, Note_on_c, 0, 43, 0
4, 453360, Note_on_c, 0, 43, 88
4, 453360, Note_on_c, 0, 52, 88
4, 453840, Note_on_c, 0, 52, 0
4, 453840, Note_on_c, 0, 43, 0
4, 453840, Note_on_c, 0, 43, 88
4, 453840, Note_on_c, 0, 52, 88
4, 454080, Note_on_c, 0, 52, 0
4, 454080, Note_on_c, 0, 43, 0
4, 454080, Note_on_c, 0, 50, 88
4, 454440, Note_on_c, 0, 50, 0
4, 454440, Note_on_c, 0, 50, 88
4, 454560, Note_on_c, 0, 50, 0
4, 454560, Note_on_c, 0, 50, 88
4, 455040, Note_on_c, 0, 50, 0
4, 455040, Note_on_c, 0, 50, 88
4, 455280, Note_on_c, 0, 50, 0
4, 455280, Note_on_c, 0, 50, 88
4, 455520, Note_on_c, 0, 50, 0
4, 455760, Note_on_c, 0, 43, 88
4, 455760, Note_on_c, 0, 52, 88
4, 456240, Note_on_c, 0, 52, 0
4, 456240, Note_on_c, 0, 43, 0
4, 456240, Note_on_c, 0, 43, 88
4, 456240, Note_on_c, 0, 52, 88
4, 456720, Note_on_c, 0, 52, 0
4, 456720, Note_on_c, 0, 43, 0
4, 456720, Note_on_c, 0, 43, 88
4, 456720, Note_on_c, 0, 52, 88
4, 456960, Note_on_c, 0, 52, 0
4, 456960, Note_on_c, 0, 43, 0
4, 456960, Note_on_c, 0, 50, 88
4, 457320, Note_on_c, 0, 50, 0
4, 457320, Note_on_c, 0, 50, 88
4, 457440, Note_on_c, 0, 50, 0
4, 457440, Note_on_c, 0, 50, 88
4, 457920, Note_on_c, 0, 50, 0
4, 457920, Note_on_c, 0, 50, 88
4, 458160, Note_on_c, 0, 50, 0
4, 458160, Note_on_c, 0, 50, 88
4, 458400, Note_on_c, 0, 50, 0
4, 458400, Note_on_c, 0, 34, 88
4, 458400, Note_on_c, 0, 46, 88
4, 458760, Note_on_c, 0, 46, 0
4, 458760, Note_on_c, 0, 34, 0
4, 458760, Note_on_c, 0, 34, 88
4, 458760, Note_on_c, 0, 46, 88
4, 458880, Note_on_c, 0, 46, 0
4, 458880, Note_on_c, 0, 34, 0
4, 458880, Note_on_c, 0, 34, 88
4, 458880, Note_on_c, 0, 46, 88
4, 459360, Note_on_c, 0, 46, 0
4, 459360, Note_on_c, 0, 34, 0
4, 459360, Note_on_c, 0, 46, 88
4, 459360, Note_on_c, 0, 50, 88
4, 459360, Note_on_c, 0, 55, 88
4, 459600, Note_on_c, 0, 55, 0
4, 459600, Note_on_c, 0, 50, 0
4, 459600, Note_on_c, 0, 46, 0
4, 459600, Note_on_c, 0, 46, 88
4, 459600, Note_on_c, 0, 50, 88
4, 459600, Note_on_c, 0, 55, 88
4, 459840, Note_on_c, 0, 55, 0
4, 459840, Note_on_c, 0, 50, 0
4, 459840, Note_on_c, 0, 46, 0
4, 459840, Note_on_c, 0, 50, 88
4, 460200, Note_on_c, 0, 50, 0
4, 460200, Note_on_c, 0, 50, 88
4, 460320, Note_on_c, 0, 50, 0
4, 460320, Note_on_c, 0, 50, 88
4, 460800, Note_on_c, 0, 50, 0
4, 460800, Note_on_c, 0, 50, 88
4, 461040, Note_on_c, 0, 50, 0
4, 461040, Note_on_c, 0, 50, 88
4, 461280, Note_on_c, 0, 50, 0
4, 461280, Note_on_c, 0, 34, 88
4, 461280, Note_on_c, 0, 46, 88
4, 461640, Note_on_c, 0, 46, 0
4, 461640, Note_on_c, 0, 34, 0
4, 461640, Note_on_c, 0, 34, 88
4, 461640, Note_on_c, 0, 46, 88
4, 461760, Note_on_c, 0, 46, 0
4, 461760, Note_on_c, 0, 34, 0
4, 461760, Note_on_c, 0, 34, 88
4, 461760, Note_on_c, 0, 46, 88
4, 462240, Note_on_c, 0, 46, 0
4, 462240, Note_on_c, 0, 34, 0
4, 462240, Note_on_c, 0, 46, 88
4, 462240, Note_on_c, 0, 50, 88
4, 462240, Note_on_c, 0, 55, 88
4, 462480, Note_on_c, 0, 55, 0
4, 462480, Note_on_c, 0, 50, 0
4, 462480, Note_on_c, 0, 46, 0
4, 462480, Note_on_c, 0, 46, 88
4, 462480, Note_on_c, 0, 50, 88
4, 462480, Note_on_c, 0, 55, 88
4, 462720, Note_on_c, 0, 55, 0
4, 462720, Note_on_c, 0, 50, 0
4, 462720, Note_on_c, 0, 46, 0
4, 462720, Note_on_c, 0, 50, 101
4, 463080, Note_on_c, 0, 50, 0
4, 463080, Note_on_c, 0, 50, 101
4, 463200, Note_on_c, 0, 50, 0
4, 463200, Note_on_c, 0, 50, 101
4, 464160, Note_on_c, 0, 50, 0
4, 464160, Note_on_c, 0, 50, 101
4, 464520, Note_on_c, 0, 50, 0
4, 464520, Note_on_c, 0, 50, 101
4, 464640, Note_on_c, 0, 50, 0
4, 464640, Note_on_c, 0, 50, 101
4, 465600, Note_on_c, 0, 50, 0
4, 465600, Note_on_c, 0, 49, 101
4, 465960, Note_on_c, 0, 49, 0
4, 465960, Note_on_c, 0, 49, 101
4, 466080, Note_on_c, 0, 49, 0
4, 466080, Note_on_c, 0, 49, 101
4, 467040, Note_on_c, 0, 49, 0
4, 467040, Note_on_c, 0, 49, 101
4, 467400, Note_on_c, 0, 49, 0
4, 467400, Note_on_c, 0, 49, 101
4, 467520, Note_on_c, 0, 49, 0
4, 467520, Note_on_c, 0, 49, 101
4, 468480, Note_on_c, 0, 49, 0
4, 468480, Note_on_c, 0, 48, 101
4, 468840, Note_on_c, 0, 48, 0
4, 468840, Note_on_c, 0, 48, 101
4, 468960, Note_on_c, 0, 48, 0
4, 468960, Note_on_c, 0, 48, 101
4, 469920, Note_on_c, 0, 48, 0
4, 469920, Note_on_c, 0, 48, 101
4, 470280, Note_on_c, 0, 48, 0
4, 470280, Note_on_c, 0, 48, 101
4, 470400, Note_on_c, 0, 48, 0
4, 470400, Note_on_c, 0, 48, 101
4, 471360, Note_on_c, 0, 48, 0
4, 471840, Note_on_c, 0, 34, 88
4, 471840, Note_on_c, 0, 46, 88
4, 472080, Note_on_c, 0, 46, 0
4, 472080, Note_on_c, 0, 34, 0
4, 472560, Note_on_c, 0, 34, 88
4, 472560, Note_on_c, 0, 46, 88
4, 472800, Note_on_c, 0, 46, 0
4, 472800, Note_on_c, 0, 34, 0
4, 473280, Note_on_c, 0, 34, 75
4, 473280, Note_on_c, 0, 46, 75
4, 473520, Note_on_c, 0, 46, 0
4, 473520, Note_on_c, 0, 34, 0
4, 474000, Note_on_c, 0, 34, 75
4, 474000, Note_on_c, 0, 46, 75
4, 474240, Note_on_c, 0, 46, 0
4, 474240, Note_on_c, 0, 34, 0
4, 474960, Note_on_c, 0, 34, 62
4, 474960, Note_on_c, 0, 46, 62
4, 475680, Note_on_c, 0, 46, 0
4, 475680, Note_on_c, 0, 34, 0
4, 476400, Note_on_c, 0, 34, 62
4, 476400, Note_on_c, 0, 46, 62
4, 477120, Note_on_c, 0, 46, 0
4, 477120, Note_on_c, 0, 34, 0
4, 477840, Note_on_c, 0, 34, 62
4, 477840, Note_on_c, 0, 46, 62
4, 478560, Note_on_c, 0, 46, 0
4, 478560, Note_on_c, 0, 34, 0
4, 478560, Note_on_c, 0, 34, 49
4, 478560, Note_on_c, 0, 46, 49
4, 479280, Note_on_c, 0, 46, 0
4, 479280, Note_on_c, 0, 34, 0
4, 479280, Note_on_c, 0, 34, 49
4, 479280, Note_on_c, 0, 46, 49
4, 479760, Note_on_c, 0, 46, 0
4, 479760, Note_on_c, 0, 34, 0
4, 480000, Note_on_c, 0, 35, 49
4, 480000, Note_on_c, 0, 43, 49
4, 480000, Note_on_c, 0, 47, 49
4, 480240, Note_on_c, 0, 47, 0
4, 480240, Note_on_c, 0, 43, 0
4, 480240, Note_on_c, 0, 35, 0
4, 480720, Note_on_c, 0, 36, 49
4, 480720, Note_on_c, 0, 45, 49
4, 480720, Note_on_c, 0, 48, 49
4, 480960, Note_on_c, 0, 48, 0
4, 480960, Note_on_c, 0, 45, 0
4, 480960, Note_on_c, 0, 36, 0
4, 481440, Note_on_c, 0, 35, 62
4, 481440, Note_on_c, 0, 40, 62
4, 481440, Note_on_c, 0, 47, 62
4, 481680, Note_on_c, 0, 47, 0
4, 481680, Note_on_c, 0, 40, 0
4, 481680, Note_on_c, 0, 35, 0
4, 482160, Note_on_c, 0, 36, 49
4, 482160, Note_on_c, 0, 45, 49
4, 482160, Note_on_c, 0, 48, 49
4, 482400, Note_on_c, 0, 48, 0
4, 482400, Note_on_c, 0, 45, 0
4, 482400, Note_on_c, 0, 36, 0
4, 482880, Note_on_c, 0, 35, 49
4, 482880, Note_on_c, 0, 40, 49
4, 482880, Note_on_c, 0, 47, 49
4, 483120, Note_on_c, 0, 47, 0
4, 483120, Note_on_c, 0, 40, 0
4, 483120, Note_on_c, 0, 35, 0
4, 483600, Note_on_c, 0, 36, 49
4, 483600, Note_on_c, 0, 40, 49
4, 483600, Note_on_c, 0, 45, 49
4, 483600, Note_on_c, 0, 48, 49
4, 483840, Note_on_c, 0, 48, 0
4, 483840, Note_on_c, 0, 36, 0
4, 483840, Note_on_c, 0, 40, 0
4, 483840, Note_on_c, 0, 45, 0
4, 484320, Note_on_c, 0, 35, 49
4, 484320, Note_on_c, 0, 43, 49
4, 484320, Note_on_c, 0, 47, 49
4, 484560, Note_on_c, 0, 47, 0
4, 484560, Note_on_c, 0, 43, 0
4, 484560, Note_on_c, 0, 35, 0
4, 485040, Note_on_c, 0, 36, 49
4, 485040, Note_on_c, 0, 45, 49
4, 485040, Note_on_c, 0, 48, 49
4, 485280, Note_on_c, 0, 48, 0
4, 485280, Note_on_c, 0, 45, 0
4, 485280, Note_on_c, 0, 36, 0
4, 485760, Note_on_c, 0, 35, 49
4, 485760, Note_on_c, 0, 43, 49
4, 485760, Note_on_c, 0, 47, 49
4, 486000, Note_on_c, 0, 47, 0
4, 486000, Note_on_c, 0, 43, 0
4, 486000, Note_on_c, 0, 35, 0
4, 486480, Note_on_c, 0, 33, 49
4, 486480, Note_on_c, 0, 40, 49
4, 486480, Note_on_c, 0, 48, 49
4, 486720, Note_on_c, 0, 48, 0
4, 486720, Note_on_c, 0, 40, 0
4, 486720, Note_on_c, 0, 33, 0
4, 487200, Note_on_c, 0, 39, 49
4, 487200, Note_on_c, 0, 47, 49
4, 487200, Note_on_c, 0, 54, 49
4, 487440, Note_on_c, 0, 54, 0
4, 487440, Note_on_c, 0, 47, 0
4, 487440, Note_on_c, 0, 39, 0
4, 487920, Note_on_c, 0, 40, 49
4, 487920, Note_on_c, 0, 43, 49
4, 487920, Note_on_c, 0, 47, 49
4, 488160, Note_on_c, 0, 47, 0
4, 488160, Note_on_c, 0, 43, 0
4, 488160, Note_on_c, 0, 40, 0
4, 488640, Note_on_c, 0, 36, 49
4, 488640, Note_on_c, 0, 48, 49
4, 488880, Note_on_c, 0, 48, 0
4, 488880, Note_on_c, 0, 36, 0
4, 489360, Note_on_c, 0, 38, 49
4, 489360, Note_on_c, 0, 50, 49
4, 489600, Note_on_c, 0, 50, 0
4, 489600, Note_on_c, 0, 38, 0
4, 490080, Note_on_c, 0, 31, 49
4, 490080, Note_on_c, 0, 43, 49
4, 490320, Note_on_c, 0, 43, 0
4, 490320, Note_on_c, 0, 31, 0
4, 490560, Note_on_c, 0, 62, 49
4, 490680, Note_on_c, 0, 62, 0
4, 490680, Note_on_c, 0, 64, 49
4, 490800, Note_on_c, 0, 64, 0
4, 490800, Note_on_c, 0, 59, 49
4, 490800, Note_on_c, 0, 62, 49
4, 491520, Note_on_c, 0, 62, 0
4, 491520, Note_on_c, 0, 59, 0
4, 491520, Note_on_c, 0, 57, 49
4, 492480, Note_on_c, 0, 57, 0
4, 492480, Note_on_c, 0, 62, 49
4, 492720, Note_on_c, 0, 62, 0
4, 492720, Note_on_c, 0, 61, 49
4, 492960, Note_on_c, 0, 61, 0
4, 492960, Note_on_c, 0, 55, 49
4, 492960, Note_on_c, 0, 62, 49
4, 493200, Note_on_c, 0, 62, 0
4, 493200, Note_on_c, 0, 55, 0
4, 493680, Note_on_c, 0, 59, 49
4, 493680, Note_on_c, 0, 62, 49
4, 494400, Note_on_c, 0, 62, 0
4, 494400, Note_on_c, 0, 59, 0
4, 494400, Note_on_c, 0, 60, 49
4, 495120, Note_on_c, 0, 60, 0
4, 495120, Note_on_c, 0, 60, 49
4, 495840, Note_on_c, 0, 60, 0
4, 495840, Note_on_c, 0, 55, 49
4, 495840, Note_on_c, 0, 59, 49
4, 496080, Note_on_c, 0, 59, 0
4, 496080, Note_on_c, 0, 55, 0
4, 496080, Note_on_c, 0, 71, 49
4, 496200, Note_on_c, 0, 71, 0
4, 496200, Note_on_c, 0, 72, 49
4, 496320, Note_on_c, 0, 72, 0
4, 496320, Note_on_c, 0, 74, 49
4, 496343, Note_on_c, 0, 74, 0
4, 496440, Note_on_c, 0, 76, 49
4, 496463, Note_on_c, 0, 76, 0
4, 496560, Note_on_c, 0, 71, 49
4, 496560, Note_on_c, 0, 74, 49
4, 497280, Note_on_c, 0, 74, 0
4, 497280, Note_on_c, 0, 71, 0
4, 497280, Note_on_c, 0, 69, 49
4, 498240, Note_on_c, 0, 69, 0
4, 498240, Note_on_c, 0, 74, 49
4, 498480, Note_on_c, 0, 74, 0
4, 498480, Note_on_c, 0, 73, 49
4, 498720, Note_on_c, 0, 73, 0
4, 498720, Note_on_c, 0, 67, 49
4, 498720, Note_on_c, 0, 74, 49
4, 498960, Note_on_c, 0, 74, 0
4, 498960, Note_on_c, 0, 67, 0
4, 499440, Note_on_c, 0, 71, 49
4, 499440, Note_on_c, 0, 74, 49
4, 500160, Note_on_c, 0, 74, 0
4, 500160, Note_on_c, 0, 71, 0
4, 500160, Note_on_c, 0, 72, 49
4, 500880, Note_on_c, 0, 72, 0
4, 500880, Note_on_c, 0, 73, 49
4, 501600, Note_on_c, 0, 73, 0
4, 501600, Note_on_c, 0, 47, 75
4, 501720, Note_on_c, 0, 47, 0
4, 501720, Note_on_c, 0, 49, 75
4, 501840, Note_on_c, 0, 49, 0
4, 501840, Note_on_c, 0, 51, 75
4, 501960, Note_on_c, 0, 51, 0
4, 501960, Note_on_c, 0, 52, 75
4, 502080, Note_on_c, 0, 52, 0
4, 502080, Note_on_c, 0, 54, 75
4, 502200, Note_on_c, 0, 54, 0
4, 502200, Note_on_c, 0, 55, 75
4, 502320, Note_on_c, 0, 55, 0
4, 502320, Note_on_c, 0, 57, 75
4, 502440, Note_on_c, 0, 57, 0
4, 502440, Note_on_c, 0, 59, 75
4, 502560, Note_on_c, 0, 59, 0
4, 502560, Note_on_c, 0, 61, 75
4, 502680, Note_on_c, 0, 61, 0
4, 502680, Note_on_c, 0, 63, 75
4, 502800, Note_on_c, 0, 63, 0
4, 502800, Note_on_c, 0, 64, 75
4, 502920, Note_on_c, 0, 64, 0
4, 502920, Note_on_c, 0, 66, 75
4, 503040, Note_on_c, 0, 66, 0
4, 503040, Note_on_c, 0, 67, 75
4, 503160, Note_on_c, 0, 67, 0
4, 503160, Note_on_c, 0, 66, 75
4, 503280, Note_on_c, 0, 66, 0
4, 503280, Note_on_c, 0, 64, 75
4, 503400, Note_on_c, 0, 64, 0
4, 503400, Note_on_c, 0, 62, 75
4, 503520, Note_on_c, 0, 62, 0
4, 503520, Note_on_c, 0, 60, 75
4, 503640, Note_on_c, 0, 60, 0
4, 503640, Note_on_c, 0, 59, 75
4, 503760, Note_on_c, 0, 59, 0
4, 503760, Note_on_c, 0, 57, 75
4, 503880, Note_on_c, 0, 57, 0
4, 503880, Note_on_c, 0, 55, 75
4, 504000, Note_on_c, 0, 55, 0
4, 504000, Note_on_c, 0, 54, 75
4, 504120, Note_on_c, 0, 54, 0
4, 504120, Note_on_c, 0, 52, 75
4, 504240, Note_on_c, 0, 52, 0
4, 504240, Note_on_c, 0, 50, 75
4, 504360, Note_on_c, 0, 50, 0
4, 504360, Note_on_c, 0, 48, 75
4, 504480, Note_on_c, 0, 48, 0
4, 504480, Note_on_c, 0, 47, 75
4, 504600, Note_on_c, 0, 47, 0
4, 504600, Note_on_c, 0, 49, 75
4, 504720, Note_on_c, 0, 49, 0
4, 504720, Note_on_c, 0, 51, 75
4, 504840, Note_on_c, 0, 51, 0
4, 504840, Note_on_c, 0, 52, 75
4, 504960, Note_on_c, 0, 52, 0
4, 504960, Note_on_c, 0, 54, 75
4, 505080, Note_on_c, 0, 54, 0
4, 505080, Note_on_c, 0, 55, 75
4, 505200, Note_on_c, 0, 55, 0
4, 505200, Note_on_c, 0, 57, 75
4, 505320, Note_on_c, 0, 57, 0
4, 505320, Note_on_c, 0, 59, 75
4, 505440, Note_on_c, 0, 59, 0
4, 505440, Note_on_c, 0, 60, 75
4, 505560, Note_on_c, 0, 60, 0
4, 505560, Note_on_c, 0, 62, 75
4, 505680, Note_on_c, 0, 62, 0
4, 505680, Note_on_c, 0, 64, 75
4, 505800, Note_on_c, 0, 64, 0
4, 505800, Note_on_c, 0, 66, 75
4, 505920, Note_on_c, 0, 66, 0
4, 505920, Note_on_c, 0, 67, 75
4, 506040, Note_on_c, 0, 67, 0
4, 506040, Note_on_c, 0, 66, 75
4, 506160, Note_on_c, 0, 66, 0
4, 506160, Note_on_c, 0, 64, 75
4, 506280, Note_on_c, 0, 64, 0
4, 506280, Note_on_c, 0, 62, 75
4, 506400, Note_on_c, 0, 62, 0
4, 506400, Note_on_c, 0, 60, 75
4, 506520, Note_on_c, 0, 60, 0
4, 506520, Note_on_c, 0, 59, 75
4, 506640, Note_on_c, 0, 59, 0
4, 506640, Note_on_c, 0, 57, 75
4, 506760, Note_on_c, 0, 57, 0
4, 506760, Note_on_c, 0, 55, 75
4, 506880, Note_on_c, 0, 55, 0
4, 506880, Note_on_c, 0, 54, 75
4, 507000, Note_on_c, 0, 54, 0
4, 507000, Note_on_c, 0, 52, 75
4, 507120, Note_on_c, 0, 52, 0
4, 507120, Note_on_c, 0, 50, 75
4, 507240, Note_on_c, 0, 50, 0
4, 507240, Note_on_c, 0, 48, 75
4, 507360, Note_on_c, 0, 48, 0
4, 507360, Note_on_c, 0, 47, 75
4, 507480, Note_on_c, 0, 47, 0
4, 507480, Note_on_c, 0, 49, 75
4, 507600, Note_on_c, 0, 49, 0
4, 507600, Note_on_c, 0, 51, 75
4, 507720, Note_on_c, 0, 51, 0
4, 507720, Note_on_c, 0, 52, 75
4, 507840, Note_on_c, 0, 52, 0
4, 507840, Note_on_c, 0, 54, 75
4, 507960, Note_on_c, 0, 54, 0
4, 507960, Note_on_c, 0, 55, 75
4, 508080, Note_on_c, 0, 55, 0
4, 508080, Note_on_c, 0, 57, 75
4, 508200, Note_on_c, 0, 57, 0
4, 508200, Note_on_c, 0, 59, 75
4, 508320, Note_on_c, 0, 59, 0
4, 508320, Note_on_c, 0, 60, 75
4, 508440, Note_on_c, 0, 60, 0
4, 508440, Note_on_c, 0, 62, 75
4, 508560, Note_on_c, 0, 62, 0
4, 508560, Note_on_c, 0, 64, 75
4, 508680, Note_on_c, 0, 64, 0
4, 508680, Note_on_c, 0, 66, 75
4, 508800, Note_on_c, 0, 66, 0
4, 508800, Note_on_c, 0, 67, 75
4, 508920, Note_on_c, 0, 67, 0
4, 508920, Note_on_c, 0, 66, 75
4, 509040, Note_on_c, 0, 66, 0
4, 509040, Note_on_c, 0, 64, 75
4, 509160, Note_on_c, 0, 64, 0
4, 509160, Note_on_c, 0, 62, 75
4, 509280, Note_on_c, 0, 62, 0
4, 509280, Note_on_c, 0, 60, 75
4, 509400, Note_on_c, 0, 60, 0
4, 509400, Note_on_c, 0, 59, 75
4, 509520, Note_on_c, 0, 59, 0
4, 509520, Note_on_c, 0, 57, 75
4, 509640, Note_on_c, 0, 57, 0
4, 509640, Note_on_c, 0, 55, 75
4, 509760, Note_on_c, 0, 55, 0
4, 509760, Note_on_c, 0, 54, 75
4, 509880, Note_on_c, 0, 54, 0
4, 509880, Note_on_c, 0, 52, 75
4, 510000, Note_on_c, 0, 52, 0
4, 510000, Note_on_c, 0, 50, 75
4, 510120, Note_on_c, 0, 50, 0
4, 510120, Note_on_c, 0, 48, 75
4, 510240, Note_on_c, 0, 48, 0
4, 510240, Note_on_c, 0, 47, 75
4, 510360, Note_on_c, 0, 47, 0
4, 510360, Note_on_c, 0, 49, 75
4, 510480, Note_on_c, 0, 49, 0
4, 510480, Note_on_c, 0, 51, 75
4, 510600, Note_on_c, 0, 51, 0
4, 510600, Note_on_c, 0, 52, 75
4, 510720, Note_on_c, 0, 52, 0
4, 510720, Note_on_c, 0, 54, 75
4, 510840, Note_on_c, 0, 54, 0
4, 510840, Note_on_c, 0, 55, 75
4, 510960, Note_on_c, 0, 55, 0
4, 510960, Note_on_c, 0, 57, 75
4, 511080, Note_on_c, 0, 57, 0
4, 511080, Note_on_c, 0, 59, 75
4, 511200, Note_on_c, 0, 59, 0
4, 511200, Note_on_c, 0, 60, 75
4, 511320, Note_on_c, 0, 60, 0
4, 511320, Note_on_c, 0, 62, 75
4, 511440, Note_on_c, 0, 62, 0
4, 511440, Note_on_c, 0, 64, 75
4, 511560, Note_on_c, 0, 64, 0
4, 511560, Note_on_c, 0, 66, 75
4, 511680, Note_on_c, 0, 66, 0
4, 511680, Note_on_c, 0, 67, 75
4, 511800, Note_on_c, 0, 67, 0
4, 511800, Note_on_c, 0, 66, 75
4, 511920, Note_on_c, 0, 66, 0
4, 511920, Note_on_c, 0, 64, 75
4, 512040, Note_on_c, 0, 64, 0
4, 512040, Note_on_c, 0, 62, 75
4, 512160, Note_on_c, 0, 62, 0
4, 512160, Note_on_c, 0, 60, 75
4, 512280, Note_on_c, 0, 60, 0
4, 512280, Note_on_c, 0, 59, 75
4, 512400, Note_on_c, 0, 59, 0
4, 512400, Note_on_c, 0, 57, 75
4, 512520, Note_on_c, 0, 57, 0
4, 512520, Note_on_c, 0, 55, 75
4, 512640, Note_on_c, 0, 55, 0
4, 512640, Note_on_c, 0, 54, 75
4, 512760, Note_on_c, 0, 54, 0
4, 512760, Note_on_c, 0, 52, 75
4, 512880, Note_on_c, 0, 52, 0
4, 512880, Note_on_c, 0, 50, 75
4, 513000, Note_on_c, 0, 50, 0
4, 513000, Note_on_c, 0, 48, 75
4, 513120, Note_on_c, 0, 48, 0
4, 513120, Note_on_c, 0, 47, 75
4, 513240, Note_on_c, 0, 47, 0
4, 513240, Note_on_c, 0, 49, 75
4, 513360, Note_on_c, 0, 49, 0
4, 513360, Note_on_c, 0, 51, 75
4, 513480, Note_on_c, 0, 51, 0
4, 513480, Note_on_c, 0, 52, 75
4, 513600, Note_on_c, 0, 52, 0
4, 513600, Note_on_c, 0, 54, 75
4, 513720, Note_on_c, 0, 54, 0
4, 513720, Note_on_c, 0, 55, 75
4, 513840, Note_on_c, 0, 55, 0
4, 513840, Note_on_c, 0, 57, 75
4, 513960, Note_on_c, 0, 57, 0
4, 513960, Note_on_c, 0, 58, 75
4, 514080, Note_on_c, 0, 58, 0
4, 514080, Note_on_c, 0, 52, 75
4, 514080, Note_on_c, 0, 55, 75
4, 514080, Note_on_c, 0, 59, 75
4, 514127, Note_on_c, 0, 59, 0
4, 514127, Note_on_c, 0, 55, 0
4, 514127, Note_on_c, 0, 52, 0
4, 514320, Note_on_c, 0, 53, 75
4, 514320, Note_on_c, 0, 56, 75
4, 514320, Note_on_c, 0, 59, 75
4, 514320, Note_on_c, 0, 62, 75
4, 514367, Note_on_c, 0, 62, 0
4, 514367, Note_on_c, 0, 53, 0
4, 514367, Note_on_c, 0, 56, 0
4, 514367, Note_on_c, 0, 59, 0
4, 514470, Note_on_c, 0, 54, 75
4, 514500, Note_on_c, 0, 57, 75
4, 514530, Note_on_c, 0, 62, 75
4, 514560, Note_on_c, 0, 69, 88
4, 515520, Note_on_c, 0, 69, 0
4, 515520, Note_on_c, 0, 54, 0
4, 515520, Note_on_c, 0, 57, 0
4, 515520, Note_on_c, 0, 62, 0
4, 515520, Note_on_c, 0, 52, 62
4, 515520, Note_on_c, 0, 57, 62
4, 515520, Note_on_c, 0, 60, 62
4, 515520, Note_on_c, 0, 64, 62
4, 516240, Note_on_c, 0, 64, 0
4, 516240, Note_on_c, 0, 52, 0
4, 516240, Note_on_c, 0, 57, 0
4, 516240, Note_on_c, 0, 60, 0
4, 516240, Note_on_c, 0, 50, 49
4, 516240, Note_on_c, 0, 57, 49
4, 516240, Note_on_c, 0, 60, 49
4, 516240, Note_on_c, 0, 62, 49
4, 516960, Note_on_c, 0, 62, 0
4, 516960, Note_on_c, 0, 50, 0
4, 516960, Note_on_c, 0, 57, 0
4, 516960, Note_on_c, 0, 60, 0
4, 516960, Note_on_c, 0, 45, 49
4, 516960, Note_on_c, 0, 50, 49
4, 516960, Note_on_c, 0, 54, 49
4, 517440, Note_on_c, 0, 54, 0
4, 517440, Note_on_c, 0, 50, 0
4, 517440, Note_on_c, 0, 45, 0
4, 517440, Note_on_c, 0, 43, 75
4, 517440, Note_on_c, 0, 50, 75
4, 517440, Note_on_c, 0, 55, 75
4, 517680, Note_on_c, 0, 55, 0
4, 517680, Note_on_c, 0, 50, 0
4, 517680, Note_on_c, 0, 43, 0
4, 517680, Control_c, 0, 64, 127
4, 517680, Note_on_c, 0, 54, 75
4, 517680, Note_on_c, 0, 57, 75
4, 517920, Note_on_c, 0, 57, 0
4, 517920, Note_on_c, 0, 54, 0
4, 517920, Note_on_c, 0, 53, 75
4, 517920, Note_on_c, 0, 59, 75
4, 518160, Note_on_c, 0, 59, 0
4, 518160, Note_on_c, 0, 53, 0
4, 518160, Note_on_c, 0, 52, 75
4, 518160, Note_on_c, 0, 60, 75
4, 518400, Note_on_c, 0, 60, 0
4, 518400, Note_on_c, 0, 52, 0
4, 518400, Note_on_c, 0, 51, 75
4, 518400, Note_on_c, 0, 61, 75
4, 518640, Note_on_c, 0, 61, 0
4, 518640, Note_on_c, 0, 51, 0
4, 518640, Control_c, 0, 64, 0
4, 518640, Note_on_c, 0, 50, 75
4, 518640, Note_on_c, 0, 55, 75
4, 518640, Note_on_c, 0, 62, 75
4, 518880, Note_on_c, 0, 62, 0
4, 518880, Note_on_c, 0, 55, 0
4, 518880, Note_on_c, 0, 50, 0
4, 518880, Note_on_c, 0, 64, 88
4, 519000, Note_on_c, 0, 64, 0
4, 519000, Note_on_c, 0, 66, 88
4, 519120, Note_on_c, 0, 66, 0
4, 519120, Note_on_c, 0, 67, 88
4, 519240, Note_on_c, 0, 67, 0
4, 519240, Note_on_c, 0, 69, 75
4, 519360, Note_on_c, 0, 69, 0
4, 519360, Note_on_c, 0, 67, 75
4, 519480, Note_on_c, 0, 67, 0
4, 519480, Note_on_c, 0, 66, 75
4, 519600, Note_on_c, 0, 66, 0
4, 519600, Note_on_c, 0, 64, 75
4, 519600, Note_on_c, 0, 67, 75
4, 519840, Note_on_c, 0, 67, 0
4, 519840, Note_on_c, 0, 64, 0
4, 519840, Note_on_c, 0, 52, 62
4, 519840, Note_on_c, 0, 55, 62
4, 519840, Note_on_c, 0, 59, 62
4, 519887, Note_on_c, 0, 59, 0
4, 519887, Note_on_c, 0, 55, 0
4, 519887, Note_on_c, 0, 52, 0
4, 520080, Note_on_c, 0, 53, 62
4, 520080, Note_on_c, 0, 56, 62
4, 520080, Note_on_c, 0, 59, 62
4, 520080, Note_on_c, 0, 62, 62
4, 520127, Note_on_c, 0, 62, 0
4, 520127, Note_on_c, 0, 53, 0
4, 520127, Note_on_c, 0, 56, 0
4, 520127, Note_on_c, 0, 59, 0
4, 520230, Note_on_c, 0, 54, 62
4, 520260, Note_on_c, 0, 57, 62
4, 520290, Note_on_c, 0, 62, 62
4, 520320, Note_on_c, 0, 69, 88
4, 521280, Note_on_c, 0, 69, 0
4, 521280, Note_on_c, 0, 54, 0
4, 521280, Note_on_c, 0, 57, 0
4, 521280, Note_on_c, 0, 62, 0
4, 521280, Note_on_c, 0, 52, 62
4, 521280, Note_on_c, 0, 57, 62
4, 521280, Note_on_c, 0, 60, 62
4, 521280, Note_on_c, 0, 64, 62
4, 522000, Note_on_c, 0, 64, 0
4, 522000, Note_on_c, 0, 52, 0
4, 522000, Note_on_c, 0, 57, 0
4, 522000, Note_on_c, 0, 60, 0
4, 522000, Note_on_c, 0, 50, 49
4, 522000, Note_on_c, 0, 57, 49
4, 522000, Note_on_c, 0, 60, 49
4, 522000, Note_on_c, 0, 62, 49
4, 522720, Note_on_c, 0, 62, 0
4, 522720, Note_on_c, 0, 50, 0
4, 522720, Note_on_c, 0, 57, 0
4, 522720, Note_on_c, 0, 60, 0
4, 522720, Note_on_c, 0, 45, 49
4, 522720, Note_on_c, 0, 50, 49
4, 522720, Note_on_c, 0, 54, 49
4, 523200, Note_on_c, 0, 54, 0
4, 523200, Note_on_c, 0, 50, 0
4, 523200, Note_on_c, 0, 45, 0
4, 523200, Note_on_c, 0, 43, 75
4, 523200, Note_on_c, 0, 50, 75
4, 523200, Note_on_c, 0, 55, 75
4, 523440, Note_on_c, 0, 55, 0
4, 523440, Note_on_c, 0, 50, 0
4, 523440, Note_on_c, 0, 43, 0
4, 523440, Note_on_c, 0, 54, 75
4, 523440, Note_on_c, 0, 63, 75
4, 523680, Note_on_c, 0, 63, 0
4, 523680, Note_on_c, 0, 54, 0
4, 523680, Note_on_c, 0, 52, 75
4, 523680, Note_on_c, 0, 64, 75
4, 523920, Note_on_c, 0, 64, 0
4, 523920, Note_on_c, 0, 52, 0
4, 523920, Note_on_c, 0, 50, 75
4, 523920, Note_on_c, 0, 59, 75
4, 523920, Note_on_c, 0, 66, 75
4, 524160, Note_on_c, 0, 66, 0
4, 524160, Note_on_c, 0, 59, 0
4, 524160, Note_on_c, 0, 50, 0
4, 524160, Note_on_c, 0, 67, 75
4, 524280, Note_on_c, 0, 67, 0
4, 524280, Note_on_c, 0, 69, 75
4, 524400, Note_on_c, 0, 69, 0
4, 524400, Note_on_c, 0, 71, 88
4, 524520, Note_on_c, 0, 71, 0
4, 524520, Note_on_c, 0, 70, 88
4, 524640, Note_on_c, 0, 70, 0
4, 524640, Note_on_c, 0, 71, 88
4, 524760, Note_on_c, 0, 71, 0
4, 524760, Note_on_c, 0, 73, 88
4, 524880, Note_on_c, 0, 73, 0
4, 525600, Note_on_c, 0, 52, 62
4, 525600, Note_on_c, 0, 55, 62
4, 525600, Note_on_c, 0, 59, 62
4, 525647, Note_on_c, 0, 59, 0
4, 525647, Note_on_c, 0, 55, 0
4, 525647, Note_on_c, 0, 52, 0
4, 525840, Note_on_c, 0, 53, 62
4, 525840, Note_on_c, 0, 56, 62
4, 525840, Note_on_c, 0, 59, 62
4, 525840, Note_on_c, 0, 62, 62
4, 525887, Note_on_c, 0, 62, 0
4, 525887, Note_on_c, 0, 53, 0
4, 525887, Note_on_c, 0, 56, 0
4, 525887, Note_on_c, 0, 59, 0
4, 525990, Note_on_c, 0, 54, 62
4, 526020, Note_on_c, 0, 57, 62
4, 526050, Note_on_c, 0, 62, 62
4, 526080, Note_on_c, 0, 69, 88
4, 527040, Note_on_c, 0, 69, 0
4, 527040, Note_on_c, 0, 54, 0
4, 527040, Note_on_c, 0, 57, 0
4, 527040, Note_on_c, 0, 62, 0
4, 527040, Note_on_c, 0, 52, 62
4, 527040, Note_on_c, 0, 57, 62
4, 527040, Note_on_c, 0, 60, 62
4, 527040, Note_on_c, 0, 64, 62
4, 527760, Note_on_c, 0, 64, 0
4, 527760, Note_on_c, 0, 52, 0
4, 527760, Note_on_c, 0, 57, 0
4, 527760, Note_on_c, 0, 60, 0
4, 527760, Note_on_c, 0, 50, 49
4, 527760, Note_on_c, 0, 57, 49
4, 527760, Note_on_c, 0, 60, 49
4, 527760, Note_on_c, 0, 62, 49
4, 528480, Note_on_c, 0, 62, 0
4, 528480, Note_on_c, 0, 50, 0
4, 528480, Note_on_c, 0, 57, 0
4, 528480, Note_on_c, 0, 60, 0
4, 528480, Note_on_c, 0, 45, 49
4, 528480, Note_on_c, 0, 50, 49
4, 528480, Note_on_c, 0, 54, 49
4, 528960, Note_on_c, 0, 54, 0
4, 528960, Note_on_c, 0, 50, 0
4, 528960, Note_on_c, 0, 45, 0
4, 528960, Note_on_c, 0, 43, 75
4, 528960, Note_on_c, 0, 50, 75
4, 528960, Note_on_c, 0, 55, 75
4, 529200, Note_on_c, 0, 55, 0
4, 529200, Note_on_c, 0, 50, 0
4, 529200, Note_on_c, 0, 43, 0
4, 529200, Control_c, 0, 64, 127
4, 529200, Note_on_c, 0, 54, 75
4, 529200, Note_on_c, 0, 57, 75
4, 529440, Note_on_c, 0, 57, 0
4, 529440, Note_on_c, 0, 54, 0
4, 529440, Note_on_c, 0, 53, 75
4, 529440, Note_on_c, 0, 59, 75
4, 529680, Note_on_c, 0, 59, 0
4, 529680, Note_on_c, 0, 53, 0
4, 529680, Note_on_c, 0, 52, 75
4, 529680, Note_on_c, 0, 60, 75
4, 529920, Note_on_c, 0, 60, 0
4, 529920, Note_on_c, 0, 52, 0
4, 529920, Note_on_c, 0, 51, 75
4, 529920, Note_on_c, 0, 61, 75
4, 530160, Note_on_c, 0, 61, 0
4, 530160, Note_on_c, 0, 51, 0
4, 530160, Control_c, 0, 64, 0
4, 530160, Note_on_c, 0, 50, 75
4, 530160, Note_on_c, 0, 55, 75
4, 530160, Note_on_c, 0, 62, 75
4, 530400, Note_on_c, 0, 62, 0
4, 530400, Note_on_c, 0, 55, 0
4, 530400, Note_on_c, 0, 50, 0
4, 530400, Note_on_c, 0, 64, 88
4, 530520, Note_on_c, 0, 64, 0
4, 530520, Note_on_c, 0, 66, 88
4, 530640, Note_on_c, 0, 66, 0
4, 530640, Note_on_c, 0, 67, 88
4, 530760, Note_on_c, 0, 67, 0
4, 530760, Note_on_c, 0, 69, 75
4, 530880, Note_on_c, 0, 69, 0
4, 530880, Note_on_c, 0, 67, 75
4, 531000, Note_on_c, 0, 67, 0
4, 531000, Note_on_c, 0, 66, 75
4, 531120, Note_on_c, 0, 66, 0
4, 531120, Note_on_c, 0, 64, 75
4, 531120, Note_on_c, 0, 67, 75
4, 531360, Note_on_c, 0, 67, 0
4, 531360, Note_on_c, 0, 64, 0
4, 531360, Note_on_c, 0, 52, 62
4, 531360, Note_on_c, 0, 55, 62
4, 531360, Note_on_c, 0, 59, 62
4, 531407, Note_on_c, 0, 59, 0
4, 531407, Note_on_c, 0, 55, 0
4, 531407, Note_on_c, 0, 52, 0
4, 531600, Note_on_c, 0, 53, 62
4, 531600, Note_on_c, 0, 56, 62
4, 531600, Note_on_c, 0, 59, 62
4, 531600, Note_on_c, 0, 62, 62
4, 531647, Note_on_c, 0, 62, 0
4, 531647, Note_on_c, 0, 53, 0
4, 531647, Note_on_c, 0, 56, 0
4, 531647, Note_on_c, 0, 59, 0
4, 531840, Note_on_c, 0, 54, 88
4, 531840, Note_on_c, 0, 57, 88
4, 531840, Note_on_c, 0, 62, 88
4, 531840, Note_on_c, 0, 69, 88
4, 532800, Note_on_c, 0, 69, 0
4, 532800, Note_on_c, 0, 54, 0
4, 532800, Note_on_c, 0, 57, 0
4, 532800, Note_on_c, 0, 62, 0
4, 532800, Note_on_c, 0, 42, 75
4, 532800, Note_on_c, 0, 50, 75
4, 533040, Note_on_c, 0, 50, 0
4, 533040, Note_on_c, 0, 42, 0
4, 533040, Note_on_c, 0, 42, 75
4, 533040, Note_on_c, 0, 50, 75
4, 533280, Note_on_c, 0, 50, 0
4, 533280, Note_on_c, 0, 42, 0
4, 533280, Note_on_c, 0, 42, 75
4, 533280, Note_on_c, 0, 51, 75
4, 534000, Note_on_c, 0, 51, 0
4, 534000, Note_on_c, 0, 42, 0
4, 534000, Note_on_c, 0, 40, 49
4, 534000, Note_on_c, 0, 52, 49
4, 534240, Note_on_c, 0, 52, 0
4, 534240, Note_on_c, 0, 40, 0
4, 534240, Note_on_c, 0, 52, 88
4, 534240, Note_on_c, 0, 55, 88
4, 534240, Note_on_c, 0, 59, 88
4, 534240, Note_on_c, 0, 64, 88
4, 534480, Note_on_c, 0, 64, 0
4, 534480, Note_on_c, 0, 52, 0
4, 534480, Note_on_c, 0, 55, 0
4, 534480, Note_on_c, 0, 59, 0
4, 534480, Note_on_c, 0, 52, 88
4, 534480, Note_on_c, 0, 55, 88
4, 534480, Note_on_c, 0, 59, 88
4, 534480, Note_on_c, 0, 64, 88
4, 534720, Note_on_c, 0, 64, 0
4, 534720, Note_on_c, 0, 52, 0
4, 534720, Note_on_c, 0, 55, 0
4, 534720, Note_on_c, 0, 59, 0
4, 534720, Note_on_c, 0, 52, 88
4, 534720, Note_on_c, 0, 54, 88
4, 534720, Note_on_c, 0, 58, 88
4, 534720, Note_on_c, 0, 66, 88
4, 535680, Note_on_c, 0, 66, 0
4, 535680, Note_on_c, 0, 52, 0
4, 535680, Note_on_c, 0, 54, 0
4, 535680, Note_on_c, 0, 58, 0
4, 535680, Note_on_c, 0, 46, 75
4, 535680, Note_on_c, 0, 54, 75
4, 535920, Note_on_c, 0, 54, 0
4, 535920, Note_on_c, 0, 46, 0
4, 535920, Note_on_c, 0, 46, 75
4, 535920, Note_on_c, 0, 54, 75
4, 536160, Note_on_c, 0, 54, 0
4, 536160, Note_on_c, 0, 46, 0
4, 536160, Note_on_c, 0, 47, 88
4, 536160, Note_on_c, 0, 50, 88
4, 536160, Note_on_c, 0, 54, 88
4, 536160, Note_on_c, 0, 59, 88
4, 537120, Note_on_c, 0, 59, 0
4, 537120, Note_on_c, 0, 47, 0
4, 537120, Note_on_c, 0, 50, 0
4, 537120, Note_on_c, 0, 54, 0
4, 537120, Note_on_c, 0, 47, 101
4, 537120, Note_on_c, 0, 59, 101
4, 537360, Note_on_c, 0, 59, 0
4, 537360, Note_on_c, 0, 47, 0
4, 537360, Note_on_c, 0, 48, 101
4, 537360, Note_on_c, 0, 60, 101
4, 537600, Note_on_c, 0, 60, 0
4, 537600, Note_on_c, 0, 48, 0
4, 537600, Note_on_c, 0, 49, 101
4, 537600, Note_on_c, 0, 57, 101
4, 537600, Note_on_c, 0, 61, 101
4, 538560, Note_on_c, 0, 61, 0
4, 538560, Note_on_c, 0, 57, 0
4, 538560, Note_on_c, 0, 49, 0
4, 538560, Note_on_c, 0, 37, 88
4, 538560, Note_on_c, 0, 45, 88
4, 538800, Note_on_c, 0, 45, 0
4, 538800, Note_on_c, 0, 37, 0
4, 538800, Note_on_c, 0, 37, 88
4, 538800, Note_on_c, 0, 45, 88
4, 539040, Note_on_c, 0, 45, 0
4, 539040, Note_on_c, 0, 37, 0
4, 539040, Note_on_c, 0, 37, 88
4, 539040, Note_on_c, 0, 46, 88
4, 539760, Note_on_c, 0, 46, 0
4, 539760, Note_on_c, 0, 37, 0
4, 539760, Note_on_c, 0, 35, 62
4, 539760, Note_on_c, 0, 47, 62
4, 540000, Note_on_c, 0, 47, 0
4, 540000, Note_on_c, 0, 35, 0
4, 540000, Note_on_c, 0, 47, 101
4, 540000, Note_on_c, 0, 50, 101
4, 540000, Note_on_c, 0, 54, 101
4, 540000, Note_on_c, 0, 59, 101
4, 540240, Note_on_c, 0, 59, 0
4, 540240, Note_on_c, 0, 47, 0
4, 540240, Note_on_c, 0, 50, 0
4, 540240, Note_on_c, 0, 54, 0
4, 540240, Note_on_c, 0, 47, 101
4, 540240, Note_on_c, 0, 50, 101
4, 540240, Note_on_c, 0, 54, 101
4, 540240, Note_on_c, 0, 59, 101
4, 540480, Note_on_c, 0, 59, 0
4, 540480, Note_on_c, 0, 47, 0
4, 540480, Note_on_c, 0, 50, 0
4, 540480, Note_on_c, 0, 54, 0
4, 540480, Note_on_c, 0, 47, 101
4, 540480, Note_on_c, 0, 49, 101
4, 540480, Note_on_c, 0, 53, 101
4, 540480, Note_on_c, 0, 61, 101
4, 541440, Note_on_c, 0, 61, 0
4, 541440, Note_on_c, 0, 47, 0
4, 541440, Note_on_c, 0, 49, 0
4, 541440, Note_on_c, 0, 53, 0
4, 541440, Note_on_c, 0, 49, 75
4, 542160, Note_on_c, 0, 49, 0
4, 542160, Note_on_c, 0, 53, 75
4, 542880, Note_on_c, 0, 53, 0
4, 542880, Note_on_c, 0, 59, 75
4, 543360, Note_on_c, 0, 59, 0
4, 543360, Note_on_c, 0, 54, 88
4, 543360, Note_on_c, 0, 57, 88
4, 543360, Note_on_c, 0, 61, 88
4, 544080, Note_on_c, 0, 61, 0
4, 544080, Note_on_c, 0, 57, 0
4, 544080, Note_on_c, 0, 54, 0
4, 544080, Note_on_c, 0, 52, 88
4, 544080, Note_on_c, 0, 57, 88
4, 544080, Note_on_c, 0, 61, 88
4, 544800, Note_on_c, 0, 61, 0
4, 544800, Note_on_c, 0, 57, 0
4, 544800, Note_on_c, 0, 52, 0
4, 544800, Note_on_c, 0, 50, 88
4, 544800, Note_on_c, 0, 54, 88
4, 544800, Note_on_c, 0, 56, 88
4, 545520, Note_on_c, 0, 56, 0
4, 545520, Note_on_c, 0, 54, 0
4, 545520, Note_on_c, 0, 50, 0
4, 545520, Note_on_c, 0, 49, 88
4, 545520, Note_on_c, 0, 57, 88
4, 545520, Note_on_c, 0, 61, 88
4, 546240, Note_on_c, 0, 61, 0
4, 546240, Note_on_c, 0, 57, 0
4, 546240, Note_on_c, 0, 49, 0
4, 546240, Note_on_c, 0, 48, 88
4, 546240, Note_on_c, 0, 54, 88
4, 546240, Note_on_c, 0, 62, 88
4, 546960, Note_on_c, 0, 62, 0
4, 546960, Note_on_c, 0, 54, 0
4, 546960, Note_on_c, 0, 48, 0
4, 546960, Note_on_c, 0, 47, 88
4, 546960, Note_on_c, 0, 53, 88
4, 546960, Note_on_c, 0, 61, 88
4, 547680, Note_on_c, 0, 61, 0
4, 547680, Note_on_c, 0, 53, 0
4, 547680, Note_on_c, 0, 47, 0
4, 547680, Note_on_c, 0, 45, 88
4, 547680, Note_on_c, 0, 49, 88
4, 547680, Note_on_c, 0, 57, 88
4, 548400, Note_on_c, 0, 57, 0
4, 548400, Note_on_c, 0, 49, 0
4, 548400, Note_on_c, 0, 45, 0
4, 548400, Note_on_c, 0, 44, 88
4, 548400, Note_on_c, 0, 50, 88
4, 548400, Note_on_c, 0, 59, 88
4, 549120, Note_on_c, 0, 59, 0
4, 549120, Note_on_c, 0, 50, 0
4, 549120, Note_on_c, 0, 44, 0
4, 549120, Note_on_c, 0, 42, 88
4, 549120, Note_on_c, 0, 49, 88
4, 549120, Note_on_c, 0, 57, 88
4, 549840, Note_on_c, 0, 57, 0
4, 549840, Note_on_c, 0, 49, 0
4, 549840, Note_on_c, 0, 42, 0
4, 549840, Note_on_c, 0, 52, 88
4, 549840, Note_on_c, 0, 57, 88
4, 549840, Note_on_c, 0, 61, 88
4, 550560, Note_on_c, 0, 61, 0
4, 550560, Note_on_c, 0, 57, 0
4, 550560, Note_on_c, 0, 52, 0
4, 550560, Note_on_c, 0, 50, 88
4, 550560, Note_on_c, 0, 56, 88
4, 550560, Note_on_c, 0, 59, 88
4, 551280, Note_on_c, 0, 59, 0
4, 551280, Note_on_c, 0, 56, 0
4, 551280, Note_on_c, 0, 50, 0
4, 551280, Note_on_c, 0, 49, 88
4, 551280, Note_on_c, 0, 54, 88
4, 551280, Note_on_c, 0, 57, 88
4, 551280, Note_on_c, 0, 61, 88
4, 552000, Note_on_c, 0, 61, 0
4, 552000, Note_on_c, 0, 49, 0
4, 552000, Note_on_c, 0, 54, 0
4, 552000, Note_on_c, 0, 57, 0
4, 552000, Note_on_c, 0, 47, 88
4, 552000, Note_on_c, 0, 54, 88
4, 552000, Note_on_c, 0, 62, 88
4, 552720, Note_on_c, 0, 62, 0
4, 552720, Note_on_c, 0, 54, 0
4, 552720, Note_on_c, 0, 47, 0
4, 552720, Note_on_c, 0, 60, 88
4, 552960, Note_on_c, 0, 60, 0
4, 552960, Note_on_c, 0, 61, 88
4, 553200, Note_on_c, 0, 61, 0
4, 553200, Note_on_c, 0, 63, 88
4, 553440, Note_on_c, 0, 63, 0
4, 553440, Note_on_c, 0, 61, 88
4, 553680, Note_on_c, 0, 61, 0
4, 553680, Note_on_c, 0, 63, 88
4, 553920, Note_on_c, 0, 63, 0
4, 553920, Note_on_c, 0, 64, 88
4, 554160, Note_on_c, 0, 64, 0
4, 554160, Note_on_c, 0, 56, 88
4, 554160, Note_on_c, 0, 60, 88
4, 554160, Note_on_c, 0, 63, 88
4, 554400, Note_on_c, 0, 63, 0
4, 554400, Note_on_c, 0, 60, 0
4, 554400, Note_on_c, 0, 56, 0
4, 554400, Control_c, 0, 64, 127
4, 554400, Note_on_c, 0, 60, 88
4, 554520, Note_on_c, 0, 60, 0
4, 554520, Note_on_c, 0, 61, 88
4, 554640, Note_on_c, 0, 61, 0
4, 554640, Note_on_c, 0, 62, 88
4, 554760, Note_on_c, 0, 62, 0
4, 554760, Control_c, 0, 64, 0
4, 554760, Note_on_c, 0, 63, 88
4, 554880, Note_on_c, 0, 63, 0
4, 556080, Note_on_c, 0, 67, 49
4, 556320, Note_on_c, 0, 67, 0
4, 556320, Note_on_c, 0, 66, 49
4, 557040, Note_on_c, 0, 66, 0
4, 557040, Note_on_c, 0, 64, 62
4, 557520, Note_on_c, 0, 64, 0
4, 557520, Note_on_c, 0, 63, 62
4, 557760, Note_on_c, 0, 63, 0
4, 557760, Note_on_c, 0, 61, 75
4, 558480, Note_on_c, 0, 61, 0
4, 558480, Note_on_c, 0, 54, 62
4, 558480, Note_on_c, 0, 61, 62
4, 558480, Note_on_c, 0, 63, 62
4, 559200, Note_on_c, 0, 63, 0
4, 559200, Note_on_c, 0, 61, 0
4, 559200, Note_on_c, 0, 54, 0
4, 559200, Note_on_c, 0, 56, 49
4, 559200, Note_on_c, 0, 60, 49
4, 559200, Note_on_c, 0, 63, 49
4, 560640, Note_on_c, 0, 63, 0
4, 560640, Note_on_c, 0, 60, 0
4, 560640, Note_on_c, 0, 56, 0
4, 561840, Note_on_c, 0, 67, 49
4, 562080, Note_on_c, 0, 67, 0
4, 562080, Note_on_c, 0, 66, 49
4, 562800, Note_on_c, 0, 66, 0
4, 562800, Note_on_c, 0, 64, 62
4, 563280, Note_on_c, 0, 64, 0
4, 563280, Note_on_c, 0, 63, 62
4, 563520, Note_on_c, 0, 63, 0
4, 563520, Note_on_c, 0, 61, 88
4, 564240, Note_on_c, 0, 61, 0
4, 564240, Note_on_c, 0, 61, 88
4, 564480, Note_on_c, 0, 61, 0
4, 564480, Note_on_c, 0, 63, 75
4, 564720, Note_on_c, 0, 63, 0
4, 564720, Note_on_c, 0, 64, 62
4, 564960, Note_on_c, 0, 64, 0
4, 564960, Note_on_c, 0, 56, 49
4, 564960, Note_on_c, 0, 60, 49
4, 564960, Note_on_c, 0, 63, 49
4, 566400, Note_on_c, 0, 63, 0
4, 566400, Note_on_c, 0, 60, 0
4, 566400, Note_on_c, 0, 56, 0
4, 566400, Note_on_c, 0, 52, 88
4, 566400, Note_on_c, 0, 56, 88
4, 566400, Note_on_c, 0, 61, 88
4, 567600, Note_on_c, 0, 61, 0
4, 567600, Note_on_c, 0, 56, 0
4, 567600, Note_on_c, 0, 52, 0
4, 567600, Note_on_c, 0, 54, 62
4, 567600, Note_on_c, 0, 57, 62
4, 567600, Note_on_c, 0, 61, 62
4, 567840, Note_on_c, 0, 61, 0
4, 567840, Note_on_c, 0, 57, 0
4, 567840, Note_on_c, 0, 54, 0
4, 567840, Note_on_c, 0, 56, 49
4, 567840, Note_on_c, 0, 60, 49
4, 567840, Note_on_c, 0, 63, 49
4, 569280, Note_on_c, 0, 63, 0
4, 569280, Note_on_c, 0, 60, 0
4, 569280, Note_on_c, 0, 56, 0
4, 569280, Note_on_c, 0, 52, 88
4, 569280, Note_on_c, 0, 56, 88
4, 569280, Note_on_c, 0, 61, 88
4, 570480, Note_on_c, 0, 61, 0
4, 570480, Note_on_c, 0, 56, 0
4, 570480, Note_on_c, 0, 52, 0
4, 570480, Note_on_c, 0, 54, 62
4, 570480, Note_on_c, 0, 57, 62
4, 570480, Note_on_c, 0, 61, 62
4, 570720, Note_on_c, 0, 61, 0
4, 570720, Note_on_c, 0, 57, 0
4, 570720, Note_on_c, 0, 54, 0
4, 570720, Note_on_c, 0, 56, 49
4, 570720, Note_on_c, 0, 60, 49
4, 570720, Note_on_c, 0, 63, 49
4, 572160, Note_on_c, 0, 63, 0
4, 572160, Note_on_c, 0, 60, 0
4, 572160, Note_on_c, 0, 56, 0
4, 572160, Note_on_c, 0, 52, 88
4, 572160, Note_on_c, 0, 59, 88
4, 572160, Note_on_c, 0, 64, 88
4, 573600, Note_on_c, 0, 64, 0
4, 573600, Note_on_c, 0, 59, 0
4, 573600, Note_on_c, 0, 52, 0
4, 573600, Note_on_c, 0, 57, 88
4, 573600, Note_on_c, 0, 60, 88
4, 573600, Note_on_c, 0, 64, 88
4, 575040, Note_on_c, 0, 64, 0
4, 575040, Note_on_c, 0, 60, 0
4, 575040, Note_on_c, 0, 57, 0
4, 575040, Note_on_c, 0, 52, 88
4, 575040, Note_on_c, 0, 59, 88
4, 575040, Note_on_c, 0, 64, 88
4, 575760, Note_on_c, 0, 64, 0
4, 575760, Note_on_c, 0, 59, 0
4, 575760, Note_on_c, 0, 52, 0
4, 575760, Note_on_c, 0, 57, 88
4, 575760, Note_on_c, 0, 60, 88
4, 575760, Note_on_c, 0, 64, 88
4, 576480, Note_on_c, 0, 64, 0
4, 576480, Note_on_c, 0, 60, 0
4, 576480, Note_on_c, 0, 57, 0
4, 576480, Note_on_c, 0, 59, 88
4, 576720, Note_on_c, 0, 59, 0
4, 576720, Note_on_c, 0, 61, 75
4, 576960, Note_on_c, 0, 61, 0
4, 576960, Note_on_c, 0, 63, 75
4, 577200, Note_on_c, 0, 63, 0
4, 578160, Note_on_c, 0, 67, 75
4, 578207, Note_on_c, 0, 67, 0
4, 578400, Note_on_c, 0, 66, 62
4, 578447, Note_on_c, 0, 66, 0
4, 578640, Note_on_c, 0, 64, 62
4, 578687, Note_on_c, 0, 64, 0
4, 578880, Note_on_c, 0, 63, 62
4, 578927, Note_on_c, 0, 63, 0
4, 579120, Note_on_c, 0, 61, 62
4, 579167, Note_on_c, 0, 61, 0
4, 579360, Note_on_c, 0, 57, 75
4, 579407, Note_on_c, 0, 57, 0
4, 579600, Note_on_c, 0, 56, 75
4, 579647, Note_on_c, 0, 56, 0
4, 579840, Note_on_c, 0, 54, 75
4, 579887, Note_on_c, 0, 54, 0
4, 580080, Note_on_c, 0, 52, 88
4, 580127, Note_on_c, 0, 52, 0
4, 580320, Note_on_c, 0, 49, 88
4, 580367, Note_on_c, 0, 49, 0
4, 580560, Note_on_c, 0, 48, 88
4, 580607, Note_on_c, 0, 48, 0
4, 580800, Note_on_c, 0, 49, 88
4, 580847, Note_on_c, 0, 49, 0
4, 581040, Note_on_c, 0, 52, 88
4, 581087, Note_on_c, 0, 52, 0
4, 581280, Note_on_c, 0, 56, 88
4, 581327, Note_on_c, 0, 56, 0
4, 581520, Note_on_c, 0, 54, 88
4, 581520, Note_on_c, 0, 57, 88
4, 581520, Note_on_c, 0, 61, 88
4, 582240, Note_on_c, 0, 61, 0
4, 582240, Note_on_c, 0, 57, 0
4, 582240, Note_on_c, 0, 54, 0
4, 582240, Note_on_c, 0, 56, 49
4, 582240, Note_on_c, 0, 60, 49
4, 582240, Note_on_c, 0, 63, 49
4, 583680, Note_on_c, 0, 63, 0
4, 583680, Note_on_c, 0, 60, 0
4, 583680, Note_on_c, 0, 56, 0
4, 583920, Note_on_c, 0, 67, 75
4, 583967, Note_on_c, 0, 67, 0
4, 584160, Note_on_c, 0, 66, 75
4, 584207, Note_on_c, 0, 66, 0
4, 584400, Note_on_c, 0, 64, 75
4, 584447, Note_on_c, 0, 64, 0
4, 584640, Note_on_c, 0, 63, 75
4, 584687, Note_on_c, 0, 63, 0
4, 584880, Note_on_c, 0, 61, 75
4, 584927, Note_on_c, 0, 61, 0
4, 585120, Note_on_c, 0, 57, 75
4, 585167, Note_on_c, 0, 57, 0
4, 585360, Note_on_c, 0, 56, 75
4, 585407, Note_on_c, 0, 56, 0
4, 585600, Note_on_c, 0, 54, 75
4, 585647, Note_on_c, 0, 54, 0
4, 585840, Note_on_c, 0, 52, 88
4, 585887, Note_on_c, 0, 52, 0
4, 586080, Note_on_c, 0, 49, 88
4, 586127, Note_on_c, 0, 49, 0
4, 586320, Note_on_c, 0, 48, 88
4, 586367, Note_on_c, 0, 48, 0
4, 586560, Note_on_c, 0, 49, 88
4, 586607, Note_on_c, 0, 49, 0
4, 586800, Note_on_c, 0, 56, 88
4, 586847, Note_on_c, 0, 56, 0
4, 587040, Note_on_c, 0, 61, 88
4, 587087, Note_on_c, 0, 61, 0
4, 587280, Note_on_c, 0, 61, 75
4, 587520, Note_on_c, 0, 61, 0
4, 587520, Note_on_c, 0, 63, 75
4, 587760, Note_on_c, 0, 63, 0
4, 587760, Note_on_c, 0, 64, 75
4, 588000, Note_on_c, 0, 64, 0
4, 588000, Note_on_c, 0, 56, 62
4, 588000, Note_on_c, 0, 60, 62
4, 588000, Note_on_c, 0, 63, 62
4, 589440, Note_on_c, 0, 63, 0
4, 589440, Note_on_c, 0, 60, 0
4, 589440, Note_on_c, 0, 56, 0
4, 589440, Note_on_c, 0, 61, 75
4, 590640, Note_on_c, 0, 61, 0
4, 590640, Note_on_c, 0, 59, 49
4, 590880, Note_on_c, 0, 59, 0
4, 590880, Note_on_c, 0, 54, 49
4, 590880, Note_on_c, 0, 57, 49
4, 590880, Note_on_c, 0, 66, 49
4, 592320, Note_on_c, 0, 66, 0
4, 592320, Note_on_c, 0, 57, 0
4, 592320, Note_on_c, 0, 54, 0
4, 592320, Note_on_c, 0, 59, 75
4, 593520, Note_on_c, 0, 59, 0
4, 593520, Note_on_c, 0, 57, 49
4, 593760, Note_on_c, 0, 57, 0
4, 593760, Note_on_c, 0, 52, 49
4, 593760, Note_on_c, 0, 56, 49
4, 593760, Note_on_c, 0, 64, 49
4, 595200, Note_on_c, 0, 64, 0
4, 595200, Note_on_c, 0, 56, 0
4, 595200, Note_on_c, 0, 52, 0
4, 595200, Note_on_c, 0, 49, 49
4, 595200, Note_on_c, 0, 52, 49
4, 595200, Note_on_c, 0, 56, 49
4, 595200, Note_on_c, 0, 57, 49
4, 595920, Note_on_c, 0, 57, 0
4, 595920, Note_on_c, 0, 49, 0
4, 595920, Note_on_c, 0, 52, 0
4, 595920, Note_on_c, 0, 56, 0
4, 595920, Note_on_c, 0, 61, 49
4, 595920, Note_on_c, 0, 63, 49
4, 596640, Note_on_c, 0, 63, 0
4, 596640, Note_on_c, 0, 61, 0
4, 596640, Note_on_c, 0, 47, 49
4, 596640, Note_on_c, 0, 51, 49
4, 596640, Note_on_c, 0, 56, 49
4, 597360, Note_on_c, 0, 56, 0
4, 597360, Note_on_c, 0, 51, 0
4, 597360, Note_on_c, 0, 47, 0
4, 597360, Note_on_c, 0, 59, 49
4, 597360, Note_on_c, 0, 61, 49
4, 598080, Note_on_c, 0, 61, 0
4, 598080, Note_on_c, 0, 59, 0
4, 598080, Note_on_c, 0, 45, 49
4, 598080, Note_on_c, 0, 49, 49
4, 598080, Note_on_c, 0, 54, 49
4, 598800, Note_on_c, 0, 54, 0
4, 598800, Note_on_c, 0, 49, 0
4, 598800, Note_on_c, 0, 45, 0
4, 598800, Note_on_c, 0, 57, 49
4, 598800, Note_on_c, 0, 59, 49
4, 599520, Note_on_c, 0, 59, 0
4, 599520, Note_on_c, 0, 57, 0
4, 599520, Note_on_c, 0, 44, 49
4, 599520, Note_on_c, 0, 47, 49
4, 599520, Note_on_c, 0, 52, 49
4, 600240, Note_on_c, 0, 52, 0
4, 600240, Note_on_c, 0, 47, 0
4, 600240, Note_on_c, 0, 44, 0
4, 600240, Note_on_c, 0, 56, 49
4, 600240, Note_on_c, 0, 57, 49
4, 600960, Note_on_c, 0, 57, 0
4, 600960, Note_on_c, 0, 56, 0
4, 600960, Note_on_c, 0, 42, 49
4, 600960, Note_on_c, 0, 49, 49
4, 600960, Note_on_c, 0, 54, 49
4, 602400, Note_on_c, 0, 54, 0
4, 602400, Note_on_c, 0, 49, 0
4, 602400, Note_on_c, 0, 42, 0
4, 602400, Note_on_c, 0, 54, 49
4, 602400, Note_on_c, 0, 61, 49
4, 602400, Note_on_c, 0, 66, 49
4, 603840, Note_on_c, 0, 66, 0
4, 603840, Note_on_c, 0, 61, 0
4, 603840, Note_on_c, 0, 54, 0
4, 603840, Note_on_c, 0, 40, 49
4, 603840, Note_on_c, 0, 49, 49
4, 603840, Note_on_c, 0, 54, 49
4, 605280, Note_on_c, 0, 54, 0
4, 605280, Note_on_c, 0, 49, 0
4, 605280, Note_on_c, 0, 40, 0
4, 605280, Note_on_c, 0, 52, 49
4, 605280, Note_on_c, 0, 57, 49
4, 605280, Note_on_c, 0, 61, 49
4, 605280, Note_on_c, 0, 66, 49
4, 606720, Note_on_c, 0, 66, 0
4, 606720, Note_on_c, 0, 52, 0
4, 606720, Note_on_c, 0, 57, 0
4, 606720, Note_on_c, 0, 61, 0
4, 607440, Note_on_c, 0, 39, 88
4, 607440, Note_on_c, 0, 47, 88
4, 607440, Note_on_c, 0, 54, 88
4, 607487, Note_on_c, 0, 54, 0
4, 607487, Note_on_c, 0, 47, 0
4, 607487, Note_on_c, 0, 39, 0
4, 607680, Note_on_c, 0, 51, 101
4, 607727, Note_on_c, 0, 51, 0
4, 607920, Note_on_c, 0, 54, 101
4, 607967, Note_on_c, 0, 54, 0
4, 608160, Note_on_c, 0, 59, 101
4, 608207, Note_on_c, 0, 59, 0
4, 609600, Control_c, 0, 64, 127
4, 609600, Note_on_c, 0, 40, 88
4, 609600, Note_on_c, 0, 47, 88
4, 609647, Note_on_c, 0, 47, 0
4, 609647, Note_on_c, 0, 40, 0
4, 609840, Note_on_c, 0, 52, 88
4, 609840, Note_on_c, 0, 59, 88
4, 610080, Note_on_c, 0, 59, 0
4, 610080, Note_on_c, 0, 52, 0
4, 610080, Note_on_c, 0, 40, 88
4, 610080, Note_on_c, 0, 47, 88
4, 610320, Note_on_c, 0, 47, 0
4, 610320, Note_on_c, 0, 40, 0
4, 610320, Note_on_c, 0, 40, 88
4, 610320, Note_on_c, 0, 47, 88
4, 610560, Note_on_c, 0, 47, 0
4, 610560, Note_on_c, 0, 40, 0
4, 610560, Note_on_c, 0, 52, 88
4, 610560, Note_on_c, 0, 59, 88
4, 610800, Note_on_c, 0, 59, 0
4, 610800, Note_on_c, 0, 52, 0
4, 610800, Note_on_c, 0, 40, 88
4, 610800, Note_on_c, 0, 47, 88
4, 611040, Note_on_c, 0, 47, 0
4, 611040, Note_on_c, 0, 40, 0
4, 611040, Note_on_c, 0, 40, 88
4, 611040, Note_on_c, 0, 47, 88
4, 611087, Note_on_c, 0, 47, 0
4, 611087, Note_on_c, 0, 40, 0
4, 611280, Note_on_c, 0, 52, 88
4, 611280, Note_on_c, 0, 59, 88
4, 611520, Note_on_c, 0, 59, 0
4, 611520, Note_on_c, 0, 52, 0
4, 611520, Note_on_c, 0, 40, 88
4, 611520, Note_on_c, 0, 47, 88
4, 611760, Note_on_c, 0, 47, 0
4, 611760, Note_on_c, 0, 40, 0
4, 611760, Note_on_c, 0, 40, 88
4, 611760, Note_on_c, 0, 47, 88
4, 612000, Note_on_c, 0, 47, 0
4, 612000, Note_on_c, 0, 40, 0
4, 612000, Note_on_c, 0, 52, 88
4, 612000, Note_on_c, 0, 59, 88
4, 612240, Note_on_c, 0, 59, 0
4, 612240, Note_on_c, 0, 52, 0
4, 612240, Control_c, 0, 64, 0
4, 612240, Note_on_c, 0, 40, 88
4, 612240, Note_on_c, 0, 47, 88
4, 612480, Note_on_c, 0, 47, 0
4, 612480, Note_on_c, 0, 40, 0
4, 612720, Note_on_c, 0, 68, 62
4, 612960, Note_on_c, 0, 68, 0
4, 612960, Note_on_c, 0, 67, 62
4, 612960, Note_on_c, 0, 70, 62
4, 613200, Note_on_c, 0, 70, 0
4, 613200, Note_on_c, 0, 67, 0
4, 613200, Note_on_c, 0, 66, 62
4, 613200, Note_on_c, 0, 69, 62
4, 613440, Note_on_c, 0, 69, 0
4, 613440, Note_on_c, 0, 66, 0
4, 613440, Note_on_c, 0, 64, 75
4, 613440, Note_on_c, 0, 68, 75
4, 613680, Note_on_c, 0, 68, 0
4, 613680, Note_on_c, 0, 64, 0
4, 613680, Note_on_c, 0, 63, 75
4, 613680, Note_on_c, 0, 66, 75
4, 613920, Note_on_c, 0, 66, 0
4, 613920, Note_on_c, 0, 63, 0
4, 613920, Note_on_c, 0, 64, 88
4, 614640, Note_on_c, 0, 64, 0
4, 614640, Note_on_c, 0, 54, 88
4, 614640, Note_on_c, 0, 64, 88
4, 615120, Note_on_c, 0, 64, 0
4, 615120, Note_on_c, 0, 54, 0
4, 615120, Note_on_c, 0, 59, 62
4, 615120, Note_on_c, 0, 63, 62
4, 615360, Note_on_c, 0, 63, 0
4, 615360, Note_on_c, 0, 59, 0
4, 615360, Control_c, 0, 64, 127
4, 615360, Note_on_c, 0, 40, 88
4, 615360, Note_on_c, 0, 47, 88
4, 615407, Note_on_c, 0, 47, 0
4, 615407, Note_on_c, 0, 40, 0
4, 615600, Note_on_c, 0, 52, 88
4, 615600, Note_on_c, 0, 59, 88
4, 615840, Note_on_c, 0, 59, 0
4, 615840, Note_on_c, 0, 52, 0
4, 615840, Note_on_c, 0, 40, 88
4, 615840, Note_on_c, 0, 47, 88
4, 616080, Note_on_c, 0, 47, 0
4, 616080, Note_on_c, 0, 40, 0
4, 616080, Note_on_c, 0, 40, 88
4, 616080, Note_on_c, 0, 47, 88
4, 616320, Note_on_c, 0, 47, 0
4, 616320, Note_on_c, 0, 40, 0
4, 616320, Note_on_c, 0, 52, 88
4, 616320, Note_on_c, 0, 59, 88
4, 616560, Note_on_c, 0, 59, 0
4, 616560, Note_on_c, 0, 52, 0
4, 616560, Note_on_c, 0, 40, 88
4, 616560, Note_on_c, 0, 47, 88
4, 616800, Note_on_c, 0, 47, 0
4, 616800, Note_on_c, 0, 40, 0
4, 616800, Note_on_c, 0, 40, 88
4, 616800, Note_on_c, 0, 47, 88
4, 616847, Note_on_c, 0, 47, 0
4, 616847, Note_on_c, 0, 40, 0
4, 617040, Note_on_c, 0, 52, 88
4, 617040, Note_on_c, 0, 59, 88
4, 617280, Note_on_c, 0, 59, 0
4, 617280, Note_on_c, 0, 52, 0
4, 617280, Note_on_c, 0, 40, 88
4, 617280, Note_on_c, 0, 47, 88
4, 617520, Note_on_c, 0, 47, 0
4, 617520, Note_on_c, 0, 40, 0
4, 617520, Note_on_c, 0, 40, 88
4, 617520, Note_on_c, 0, 47, 88
4, 617760, Note_on_c, 0, 47, 0
4, 617760, Note_on_c, 0, 40, 0
4, 617760, Note_on_c, 0, 52, 88
4, 617760, Note_on_c, 0, 59, 88
4, 618000, Note_on_c, 0, 59, 0
4, 618000, Note_on_c, 0, 52, 0
4, 618000, Control_c, 0, 64, 0
4, 618000, Note_on_c, 0, 40, 88
4, 618000, Note_on_c, 0, 47, 88
4, 618240, Note_on_c, 0, 47, 0
4, 618240, Note_on_c, 0, 40, 0
4, 618480, Note_on_c, 0, 68, 62
4, 618720, Note_on_c, 0, 68, 0
4, 618720, Note_on_c, 0, 67, 62
4, 618720, Note_on_c, 0, 70, 62
4, 618960, Note_on_c, 0, 70, 0
4, 618960, Note_on_c, 0, 67, 0
4, 618960, Note_on_c, 0, 66, 62
4, 618960, Note_on_c, 0, 69, 62
4, 619200, Note_on_c, 0, 69, 0
4, 619200, Note_on_c, 0, 66, 0
4, 619200, Note_on_c, 0, 64, 75
4, 619200, Note_on_c, 0, 68, 75
4, 619440, Note_on_c, 0, 68, 0
4, 619440, Note_on_c, 0, 64, 0
4, 619440, Note_on_c, 0, 63, 75
4, 619440, Note_on_c, 0, 66, 75
4, 619680, Note_on_c, 0, 66, 0
4, 619680, Note_on_c, 0, 63, 0
4, 619680, Note_on_c, 0, 64, 88
4, 620400, Note_on_c, 0, 64, 0
4, 620400, Note_on_c, 0, 54, 88
4, 620400, Note_on_c, 0, 61, 88
4, 620400, Note_on_c, 0, 64, 88
4, 620880, Note_on_c, 0, 64, 0
4, 620880, Note_on_c, 0, 61, 0
4, 620880, Note_on_c, 0, 54, 0
4, 620880, Note_on_c, 0, 59, 62
4, 620880, Note_on_c, 0, 63, 62
4, 621120, Note_on_c, 0, 63, 0
4, 621120, Note_on_c, 0, 59, 0
4, 621120, Control_c, 0, 64, 127
4, 621120, Note_on_c, 0, 40, 88
4, 621120, Note_on_c, 0, 47, 88
4, 621167, Note_on_c, 0, 47, 0
4, 621167, Note_on_c, 0, 40, 0
4, 621360, Note_on_c, 0, 52, 88
4, 621360, Note_on_c, 0, 59, 88
4, 621600, Note_on_c, 0, 59, 0
4, 621600, Note_on_c, 0, 52, 0
4, 621600, Note_on_c, 0, 40, 88
4, 621600, Note_on_c, 0, 47, 88
4, 621840, Note_on_c, 0, 47, 0
4, 621840, Note_on_c, 0, 40, 0
4, 621840, Note_on_c, 0, 40, 88
4, 621840, Note_on_c, 0, 47, 88
4, 622080, Note_on_c, 0, 47, 0
4, 622080, Note_on_c, 0, 40, 0
4, 622080, Note_on_c, 0, 52, 88
4, 622080, Note_on_c, 0, 59, 88
4, 622320, Note_on_c, 0, 59, 0
4, 622320, Note_on_c, 0, 52, 0
4, 622320, Note_on_c, 0, 40, 88
4, 622320, Note_on_c, 0, 47, 88
4, 622560, Note_on_c, 0, 47, 0
4, 622560, Note_on_c, 0, 40, 0
4, 622560, Note_on_c, 0, 40, 88
4, 622560, Note_on_c, 0, 47, 88
4, 622607, Note_on_c, 0, 47, 0
4, 622607, Note_on_c, 0, 40, 0
4, 622800, Note_on_c, 0, 52, 88
4, 622800, Note_on_c, 0, 59, 88
4, 623040, Note_on_c, 0, 59, 0
4, 623040, Note_on_c, 0, 52, 0
4, 623040, Note_on_c, 0, 40, 88
4, 623040, Note_on_c, 0, 47, 88
4, 623280, Note_on_c, 0, 47, 0
4, 623280, Note_on_c, 0, 40, 0
4, 623280, Note_on_c, 0, 40, 88
4, 623280, Note_on_c, 0, 47, 88
4, 623520, Note_on_c, 0, 47, 0
4, 623520, Note_on_c, 0, 40, 0
4, 623520, Note_on_c, 0, 52, 88
4, 623520, Note_on_c, 0, 59, 88
4, 623760, Note_on_c, 0, 59, 0
4, 623760, Note_on_c, 0, 52, 0
4, 623760, Control_c, 0, 64, 0
4, 623760, Note_on_c, 0, 40, 88
4, 623760, Note_on_c, 0, 47, 88
4, 624000, Note_on_c, 0, 47, 0
4, 624000, Note_on_c, 0, 40, 0
4, 624240, Note_on_c, 0, 68, 62
4, 624480, Note_on_c, 0, 68, 0
4, 624480, Note_on_c, 0, 67, 62
4, 624480, Note_on_c, 0, 70, 62
4, 624720, Note_on_c, 0, 70, 0
4, 624720, Note_on_c, 0, 67, 0
4, 624720, Note_on_c, 0, 66, 62
4, 624720, Note_on_c, 0, 69, 62
4, 624960, Note_on_c, 0, 69, 0
4, 624960, Note_on_c, 0, 66, 0
4, 624960, Note_on_c, 0, 64, 75
4, 624960, Note_on_c, 0, 68, 75
4, 625200, Note_on_c, 0, 68, 0
4, 625200, Note_on_c, 0, 64, 0
4, 625200, Note_on_c, 0, 63, 75
4, 625200, Note_on_c, 0, 66, 75
4, 625440, Note_on_c, 0, 66, 0
4, 625440, Note_on_c, 0, 63, 0
4, 625440, Note_on_c, 0, 64, 88
4, 626160, Note_on_c, 0, 64, 0
4, 626160, Note_on_c, 0, 54, 88
4, 626160, Note_on_c, 0, 64, 88
4, 626640, Note_on_c, 0, 64, 0
4, 626640, Note_on_c, 0, 54, 0
4, 626640, Note_on_c, 0, 59, 62
4, 626640, Note_on_c, 0, 63, 62
4, 626880, Note_on_c, 0, 63, 0
4, 626880, Note_on_c, 0, 59, 0
4, 626880, Control_c, 0, 64, 127
4, 626880, Note_on_c, 0, 40, 88
4, 626880, Note_on_c, 0, 47, 88
4, 626927, Note_on_c, 0, 47, 0
4, 626927, Note_on_c, 0, 40, 0
4, 627120, Note_on_c, 0, 52, 88
4, 627120, Note_on_c, 0, 59, 88
4, 627360, Note_on_c, 0, 59, 0
4, 627360, Note_on_c, 0, 52, 0
4, 627360, Note_on_c, 0, 40, 88
4, 627360, Note_on_c, 0, 47, 88
4, 627600, Note_on_c, 0, 47, 0
4, 627600, Note_on_c, 0, 40, 0
4, 627600, Note_on_c, 0, 40, 88
4, 627600, Note_on_c, 0, 47, 88
4, 627840, Note_on_c, 0, 47, 0
4, 627840, Note_on_c, 0, 40, 0
4, 627840, Note_on_c, 0, 52, 88
4, 627840, Note_on_c, 0, 59, 88
4, 628080, Note_on_c, 0, 59, 0
4, 628080, Note_on_c, 0, 52, 0
4, 628080, Note_on_c, 0, 40, 88
4, 628080, Note_on_c, 0, 47, 88
4, 628320, Note_on_c, 0, 47, 0
4, 628320, Note_on_c, 0, 40, 0
4, 628320, Note_on_c, 0, 40, 88
4, 628320, Note_on_c, 0, 47, 88
4, 628367, Note_on_c, 0, 47, 0
4, 628367, Note_on_c, 0, 40, 0
4, 628560, Note_on_c, 0, 52, 88
4, 628560, Note_on_c, 0, 59, 88
4, 628800, Note_on_c, 0, 59, 0
4, 628800, Note_on_c, 0, 52, 0
4, 628800, Note_on_c, 0, 40, 88
4, 628800, Note_on_c, 0, 47, 88
4, 629040, Note_on_c, 0, 47, 0
4, 629040, Note_on_c, 0, 40, 0
4, 629040, Note_on_c, 0, 40, 88
4, 629040, Note_on_c, 0, 47, 88
4, 629280, Note_on_c, 0, 47, 0
4, 629280, Note_on_c, 0, 40, 0
4, 629280, Note_on_c, 0, 52, 88
4, 629280, Note_on_c, 0, 59, 88
4, 629520, Note_on_c, 0, 59, 0
4, 629520, Note_on_c, 0, 52, 0
4, 629520, Control_c, 0, 64, 0
4, 629520, Note_on_c, 0, 40, 88
4, 629520, Note_on_c, 0, 47, 88
4, 629760, Note_on_c, 0, 47, 0
4, 629760, Note_on_c, 0, 40, 0
4, 630000, Note_on_c, 0, 68, 62
4, 630240, Note_on_c, 0, 68, 0
4, 630240, Note_on_c, 0, 67, 62
4, 630240, Note_on_c, 0, 70, 62
4, 630480, Note_on_c, 0, 70, 0
4, 630480, Note_on_c, 0, 67, 0
4, 630480, Note_on_c, 0, 66, 62
4, 630480, Note_on_c, 0, 69, 62
4, 630720, Note_on_c, 0, 69, 0
4, 630720, Note_on_c, 0, 66, 0
4, 630720, Note_on_c, 0, 64, 75
4, 630720, Note_on_c, 0, 68, 75
4, 630960, Note_on_c, 0, 68, 0
4, 630960, Note_on_c, 0, 64, 0
4, 630960, Note_on_c, 0, 63, 75
4, 630960, Note_on_c, 0, 66, 75
4, 631200, Note_on_c, 0, 66, 0
4, 631200, Note_on_c, 0, 63, 0
4, 631200, Note_on_c, 0, 64, 88
4, 631920, Note_on_c, 0, 64, 0
4, 631920, Note_on_c, 0, 54, 88
4, 631920, Note_on_c, 0, 61, 88
4, 631920, Note_on_c, 0, 64, 88
4, 632400, Note_on_c, 0, 64, 0
4, 632400, Note_on_c, 0, 61, 0
4, 632400, Note_on_c, 0, 54, 0
4, 632400, Note_on_c, 0, 59, 62
4, 632400, Note_on_c, 0, 63, 62
4, 632640, Note_on_c, 0, 63, 0
4, 632640, Note_on_c, 0, 59, 0
4, 632640, Control_c, 0, 64, 127
4, 632640, Note_on_c, 0, 40, 62
4, 632640, Note_on_c, 0, 52, 62
4, 632880, Note_on_c, 0, 52, 0
4, 632880, Note_on_c, 0, 40, 0
4, 632880, Note_on_c, 0, 59, 49
4, 633120, Note_on_c, 0, 59, 0
4, 633120, Note_on_c, 0, 61, 49
4, 633360, Note_on_c, 0, 61, 0
4, 633360, Note_on_c, 0, 63, 49
4, 633600, Note_on_c, 0, 63, 0
4, 633600, Note_on_c, 0, 59, 49
4, 633840, Note_on_c, 0, 59, 0
4, 633840, Control_c, 0, 64, 0
4, 633840, Note_on_c, 0, 44, 49
4, 634080, Note_on_c, 0, 44, 0
4, 634080, Control_c, 0, 64, 127
4, 634080, Note_on_c, 0, 42, 62
4, 634320, Note_on_c, 0, 42, 0
4, 634320, Note_on_c, 0, 59, 49
4, 634560, Note_on_c, 0, 59, 0
4, 634560, Note_on_c, 0, 61, 49
4, 634800, Note_on_c, 0, 61, 0
4, 634800, Note_on_c, 0, 63, 49
4, 635040, Note_on_c, 0, 63, 0
4, 635040, Note_on_c, 0, 59, 49
4, 635280, Note_on_c, 0, 59, 0
4, 635280, Control_c, 0, 64, 0
4, 635280, Note_on_c, 0, 45, 49
4, 635520, Note_on_c, 0, 45, 0
4, 635520, Control_c, 0, 64, 127
4, 635520, Note_on_c, 0, 44, 62
4, 635760, Note_on_c, 0, 44, 0
4, 635760, Note_on_c, 0, 56, 49
4, 635760, Note_on_c, 0, 64, 49
4, 636000, Note_on_c, 0, 64, 0
4, 636000, Note_on_c, 0, 56, 0
4, 636000, Note_on_c, 0, 59, 49
4, 636000, Note_on_c, 0, 68, 49
4, 636240, Note_on_c, 0, 68, 0
4, 636240, Note_on_c, 0, 59, 0
4, 636240, Note_on_c, 0, 40, 62
4, 636480, Note_on_c, 0, 40, 0
4, 636480, Note_on_c, 0, 52, 62
4, 636480, Note_on_c, 0, 59, 62
4, 636720, Note_on_c, 0, 59, 0
4, 636720, Note_on_c, 0, 52, 0
4, 636720, Control_c, 0, 64, 0
4, 636720, Note_on_c, 0, 56, 62
4, 636720, Note_on_c, 0, 64, 62
4, 636960, Note_on_c, 0, 64, 0
4, 636960, Note_on_c, 0, 56, 0
4, 636960, Note_on_c, 0, 39, 62
4, 637200, Note_on_c, 0, 39, 0
4, 637200, Note_on_c, 0, 61, 62
4, 637440, Note_on_c, 0, 61, 0
4, 637440, Note_on_c, 0, 62, 62
4, 637680, Note_on_c, 0, 62, 0
4, 637680, Note_on_c, 0, 47, 49
4, 637920, Note_on_c, 0, 47, 0
4, 637920, Note_on_c, 0, 54, 49
4, 637920, Note_on_c, 0, 63, 49
4, 638160, Note_on_c, 0, 63, 0
4, 638160, Note_on_c, 0, 54, 0
4, 638160, Note_on_c, 0, 59, 49
4, 638160, Note_on_c, 0, 66, 49
4, 638400, Note_on_c, 0, 66, 0
4, 638400, Note_on_c, 0, 59, 0
4, 638400, Control_c, 0, 64, 127
4, 638400, Note_on_c, 0, 40, 62
4, 638400, Note_on_c, 0, 52, 62
4, 638640, Note_on_c, 0, 52, 0
4, 638640, Note_on_c, 0, 40, 0
4, 638640, Note_on_c, 0, 59, 49
4, 638880, Note_on_c, 0, 59, 0
4, 638880, Note_on_c, 0, 61, 49
4, 639120, Note_on_c, 0, 61, 0
4, 639120, Note_on_c, 0, 63, 49
4, 639360, Note_on_c, 0, 63, 0
4, 639360, Note_on_c, 0, 59, 49
4, 639600, Note_on_c, 0, 59, 0
4, 639600, Control_c, 0, 64, 0
4, 639600, Note_on_c, 0, 44, 49
4, 639840, Note_on_c, 0, 44, 0
4, 639840, Control_c, 0, 64, 127
4, 639840, Note_on_c, 0, 42, 62
4, 640080, Note_on_c, 0, 42, 0
4, 640080, Note_on_c, 0, 59, 49
4, 640320, Note_on_c, 0, 59, 0
4, 640320, Note_on_c, 0, 61, 49
4, 640560, Note_on_c, 0, 61, 0
4, 640560, Note_on_c, 0, 63, 49
4, 640800, Note_on_c, 0, 63, 0
4, 640800, Note_on_c, 0, 59, 49
4, 641040, Note_on_c, 0, 59, 0
4, 641040, Control_c, 0, 64, 0
4, 641040, Note_on_c, 0, 45, 49
4, 641280, Note_on_c, 0, 45, 0
4, 641280, Note_on_c, 0, 44, 75
4, 641520, Note_on_c, 0, 44, 0
4, 641520, Note_on_c, 0, 56, 62
4, 641520, Note_on_c, 0, 64, 62
4, 641760, Note_on_c, 0, 64, 0
4, 641760, Note_on_c, 0, 56, 0
4, 641760, Note_on_c, 0, 59, 62
4, 641760, Note_on_c, 0, 68, 62
4, 642000, Note_on_c, 0, 68, 0
4, 642000, Note_on_c, 0, 59, 0
4, 642000, Note_on_c, 0, 45, 62
4, 642240, Note_on_c, 0, 45, 0
4, 642240, Note_on_c, 0, 57, 62
4, 642240, Note_on_c, 0, 63, 62
4, 642480, Note_on_c, 0, 63, 0
4, 642480, Note_on_c, 0, 57, 0
4, 642480, Note_on_c, 0, 61, 62
4, 642480, Note_on_c, 0, 64, 62
4, 642720, Note_on_c, 0, 64, 0
4, 642720, Note_on_c, 0, 61, 0
4, 642720, Note_on_c, 0, 42, 62
4, 642960, Note_on_c, 0, 42, 0
4, 642960, Note_on_c, 0, 58, 62
4, 642960, Note_on_c, 0, 66, 62
4, 643200, Note_on_c, 0, 66, 0
4, 643200, Note_on_c, 0, 58, 0
4, 643200, Note_on_c, 0, 61, 62
4, 643200, Note_on_c, 0, 70, 62
4, 643440, Note_on_c, 0, 70, 0
4, 643440, Note_on_c, 0, 61, 0
4, 643440, Note_on_c, 0, 47, 62
4, 643680, Note_on_c, 0, 47, 0
4, 643680, Note_on_c, 0, 57, 62
4, 643680, Note_on_c, 0, 66, 62
4, 643920, Note_on_c, 0, 66, 0
4, 643920, Note_on_c, 0, 57, 0
4, 643920, Note_on_c, 0, 59, 62
4, 643920, Note_on_c, 0, 69, 62
4, 644160, Note_on_c, 0, 69, 0
4, 644160, Note_on_c, 0, 59, 0
4, 644160, Note_on_c, 0, 44, 75
4, 644400, Note_on_c, 0, 44, 0
4, 644400, Note_on_c, 0, 56, 75
4, 644400, Note_on_c, 0, 63, 75
4, 644640, Note_on_c, 0, 63, 0
4, 644640, Note_on_c, 0, 56, 0
4, 644640, Note_on_c, 0, 60, 75
4, 644640, Note_on_c, 0, 68, 75
4, 644880, Note_on_c, 0, 68, 0
4, 644880, Note_on_c, 0, 60, 0
4, 644880, Note_on_c, 0, 49, 75
4, 645120, Note_on_c, 0, 49, 0
4, 645120, Note_on_c, 0, 56, 75
4, 645120, Note_on_c, 0, 61, 75
4, 645360, Note_on_c, 0, 61, 0
4, 645360, Note_on_c, 0, 56, 0
4, 645360, Note_on_c, 0, 68, 75
4, 645600, Note_on_c, 0, 68, 0
4, 645600, Note_on_c, 0, 44, 62
4, 645840, Note_on_c, 0, 44, 0
4, 645840, Note_on_c, 0, 60, 62
4, 645840, Note_on_c, 0, 66, 62
4, 646080, Note_on_c, 0, 66, 0
4, 646080, Note_on_c, 0, 60, 0
4, 646080, Note_on_c, 0, 56, 62
4, 646320, Note_on_c, 0, 56, 0
4, 646320, Note_on_c, 0, 45, 62
4, 646560, Note_on_c, 0, 45, 0
4, 646560, Note_on_c, 0, 57, 62
4, 646560, Note_on_c, 0, 64, 62
4, 646800, Note_on_c, 0, 64, 0
4, 646800, Note_on_c, 0, 57, 0
4, 646800, Note_on_c, 0, 54, 62
4, 646800, Note_on_c, 0, 63, 62
4, 647040, Note_on_c, 0, 63, 0
4, 647040, Note_on_c, 0, 54, 0
4, 647040, Note_on_c, 0, 43, 62
4, 647280, Note_on_c, 0, 43, 0
4, 647280, Note_on_c, 0, 58, 62
4, 647280, Note_on_c, 0, 64, 62
4, 647520, Note_on_c, 0, 64, 0
4, 647520, Note_on_c, 0, 58, 0
4, 647520, Note_on_c, 0, 55, 62
4, 647760, Note_on_c, 0, 55, 0
4, 647760, Note_on_c, 0, 44, 62
4, 648000, Note_on_c, 0, 44, 0
4, 648000, Note_on_c, 0, 56, 62
4, 648000, Note_on_c, 0, 63, 62
4, 648240, Note_on_c, 0, 63, 0
4, 648240, Note_on_c, 0, 56, 0
4, 648240, Note_on_c, 0, 52, 62
4, 648240, Note_on_c, 0, 61, 62
4, 648480, Note_on_c, 0, 61, 0
4, 648480, Note_on_c, 0, 52, 0
4, 648480, Note_on_c, 0, 41, 62
4, 648720, Note_on_c, 0, 41, 0
4, 648720, Note_on_c, 0, 59, 62
4, 648960, Note_on_c, 0, 59, 0
4, 648960, Note_on_c, 0, 62, 62
4, 649200, Note_on_c, 0, 62, 0
4, 649200, Note_on_c, 0, 47, 62
4, 649440, Note_on_c, 0, 47, 0
4, 649440, Note_on_c, 0, 57, 62
4, 649440, Note_on_c, 0, 63, 62
4, 649680, Note_on_c, 0, 63, 0
4, 649680, Note_on_c, 0, 57, 0
4, 649680, Note_on_c, 0, 59, 62
4, 649680, Note_on_c, 0, 66, 62
4, 649920, Note_on_c, 0, 66, 0
4, 649920, Note_on_c, 0, 59, 0
4, 649920, Control_c, 0, 64, 127
4, 649920, Note_on_c, 0, 40, 62
4, 649920, Note_on_c, 0, 52, 62
4, 650160, Note_on_c, 0, 52, 0
4, 650160, Note_on_c, 0, 40, 0
4, 650160, Note_on_c, 0, 59, 49
4, 650400, Note_on_c, 0, 59, 0
4, 650400, Note_on_c, 0, 61, 49
4, 650640, Note_on_c, 0, 61, 0
4, 650640, Note_on_c, 0, 63, 49
4, 650880, Note_on_c, 0, 63, 0
4, 650880, Note_on_c, 0, 59, 49
4, 651120, Note_on_c, 0, 59, 0
4, 651120, Control_c, 0, 64, 0
4, 651120, Note_on_c, 0, 44, 49
4, 651360, Note_on_c, 0, 44, 0
4, 651360, Control_c, 0, 64, 127
4, 651360, Note_on_c, 0, 42, 62
4, 651600, Note_on_c, 0, 42, 0
4, 651600, Note_on_c, 0, 59, 62
4, 651840, Note_on_c, 0, 59, 0
4, 651840, Note_on_c, 0, 61, 62
4, 652080, Note_on_c, 0, 61, 0
4, 652080, Note_on_c, 0, 63, 62
4, 652320, Note_on_c, 0, 63, 0
4, 652320, Note_on_c, 0, 59, 62
4, 652560, Note_on_c, 0, 59, 0
4, 652560, Control_c, 0, 64, 0
4, 652560, Note_on_c, 0, 45, 62
4, 652800, Note_on_c, 0, 45, 0
4, 652800, Control_c, 0, 64, 127
4, 652800, Note_on_c, 0, 44, 75
4, 653040, Note_on_c, 0, 44, 0
4, 653040, Note_on_c, 0, 56, 75
4, 653040, Note_on_c, 0, 64, 75
4, 653280, Note_on_c, 0, 64, 0
4, 653280, Note_on_c, 0, 56, 0
4, 653280, Note_on_c, 0, 59, 75
4, 653280, Note_on_c, 0, 68, 75
4, 653520, Note_on_c, 0, 68, 0
4, 653520, Note_on_c, 0, 59, 0
4, 653520, Note_on_c, 0, 40, 75
4, 653760, Note_on_c, 0, 40, 0
4, 653760, Note_on_c, 0, 52, 75
4, 653760, Note_on_c, 0, 59, 75
4, 654000, Note_on_c, 0, 59, 0
4, 654000, Note_on_c, 0, 52, 0
4, 654000, Control_c, 0, 64, 0
4, 654000, Note_on_c, 0, 56, 75
4, 654000, Note_on_c, 0, 64, 75
4, 654240, Note_on_c, 0, 64, 0
4, 654240, Note_on_c, 0, 56, 0
4, 654240, Note_on_c, 0, 39, 75
4, 654480, Note_on_c, 0, 39, 0
4, 654480, Note_on_c, 0, 61, 75
4, 654720, Note_on_c, 0, 61, 0
4, 654720, Note_on_c, 0, 62, 75
4, 654960, Note_on_c, 0, 62, 0
4, 654960, Note_on_c, 0, 47, 75
4, 655200, Note_on_c, 0, 47, 0
4, 655200, Note_on_c, 0, 54, 75
4, 655200, Note_on_c, 0, 63, 75
4, 655440, Note_on_c, 0, 63, 0
4, 655440, Note_on_c, 0, 54, 0
4, 655440, Note_on_c, 0, 59, 75
4, 655440, Note_on_c, 0, 66, 75
4, 655680, Note_on_c, 0, 66, 0
4, 655680, Note_on_c, 0, 59, 0
4, 656160, Note_on_c, 0, 56, 75
4, 656160, Note_on_c, 0, 59, 75
4, 656640, Note_on_c, 0, 59, 0
4, 656640, Note_on_c, 0, 56, 0
4, 656640, Note_on_c, 0, 56, 75
4, 656640, Note_on_c, 0, 59, 75
4, 657120, Note_on_c, 0, 59, 0
4, 657120, Note_on_c, 0, 56, 0
4, 657600, Note_on_c, 0, 56, 75
4, 657600, Note_on_c, 0, 59, 75
4, 658080, Note_on_c, 0, 59, 0
4, 658080, Note_on_c, 0, 56, 0
4, 658080, Note_on_c, 0, 56, 75
4, 658080, Note_on_c, 0, 59, 75
4, 658560, Note_on_c, 0, 59, 0
4, 658560, Note_on_c, 0, 56, 0
4, 659040, Note_on_c, 0, 57, 49
4, 659040, Note_on_c, 0, 64, 49
4, 659280, Note_on_c, 0, 64, 0
4, 659280, Note_on_c, 0, 57, 0
4, 659520, Note_on_c, 0, 54, 49
4, 659520, Note_on_c, 0, 64, 49
4, 660000, Note_on_c, 0, 64, 0
4, 660000, Note_on_c, 0, 54, 0
4, 660480, Note_on_c, 0, 54, 62
4, 660480, Note_on_c, 0, 63, 62
4, 660720, Note_on_c, 0, 63, 0
4, 660720, Note_on_c, 0, 54, 0
4, 660960, Note_on_c, 0, 54, 62
4, 660960, Note_on_c, 0, 63, 62
4, 661440, Note_on_c, 0, 63, 0
4, 661440, Note_on_c, 0, 54, 0
4, 661920, Note_on_c, 0, 52, 75
4, 661920, Note_on_c, 0, 64, 75
4, 662160, Note_on_c, 0, 64, 0
4, 662160, Note_on_c, 0, 52, 0
4, 662400, Note_on_c, 0, 52, 75
4, 662400, Note_on_c, 0, 64, 75
4, 662880, Note_on_c, 0, 64, 0
4, 662880, Note_on_c, 0, 52, 0
4, 663360, Note_on_c, 0, 59, 75
4, 663600, Note_on_c, 0, 59, 0
4, 663840, Note_on_c, 0, 59, 75
4, 664320, Note_on_c, 0, 59, 0
4, 664800, Note_on_c, 0, 56, 75
4, 664800, Note_on_c, 0, 59, 75
4, 665040, Note_on_c, 0, 59, 0
4, 665040, Note_on_c, 0, 56, 0
4, 665280, Note_on_c, 0, 56, 75
4, 665280, Note_on_c, 0, 59, 75
4, 665760, Note_on_c, 0, 59, 0
4, 665760, Note_on_c, 0, 56, 0
4, 666240, Note_on_c, 0, 57, 75
4, 666240, Note_on_c, 0, 64, 75
4, 666480, Note_on_c, 0, 64, 0
4, 666480, Note_on_c, 0, 57, 0
4, 666720, Note_on_c, 0, 54, 75
4, 666720, Note_on_c, 0, 57, 75
4, 666720, Note_on_c, 0, 64, 75
4, 667200, Note_on_c, 0, 64, 0
4, 667200, Note_on_c, 0, 57, 0
4, 667200, Note_on_c, 0, 54, 0
4, 667200, Note_on_c, 0, 35, 101
4, 667200, Note_on_c, 0, 47, 101
4, 667440, Note_on_c, 0, 47, 0
4, 667440, Note_on_c, 0, 35, 0
4, 667560, Note_on_c, 0, 56, 101
4, 667560, Note_on_c, 0, 64, 101
4, 667680, Note_on_c, 0, 64, 0
4, 667680, Note_on_c, 0, 56, 0
4, 667680, Note_on_c, 0, 56, 101
4, 667680, Note_on_c, 0, 64, 101
4, 667920, Note_on_c, 0, 64, 0
4, 667920, Note_on_c, 0, 56, 0
4, 667920, Note_on_c, 0, 56, 101
4, 667920, Note_on_c, 0, 64, 101
4, 668160, Note_on_c, 0, 64, 0
4, 668160, Note_on_c, 0, 56, 0
4, 668160, Note_on_c, 0, 59, 101
4, 668160, Note_on_c, 0, 66, 101
4, 668400, Note_on_c, 0, 66, 0
4, 668400, Note_on_c, 0, 59, 0
4, 668400, Note_on_c, 0, 64, 101
4, 668400, Note_on_c, 0, 68, 101
4, 668640, Note_on_c, 0, 68, 0
4, 668640, Note_on_c, 0, 64, 0
4, 668640, Note_on_c, 0, 66, 101
4, 668640, Note_on_c, 0, 69, 101
4, 668880, Note_on_c, 0, 69, 0
4, 668880, Note_on_c, 0, 66, 0
4, 668880, Note_on_c, 0, 64, 101
4, 668880, Note_on_c, 0, 68, 101
4, 669120, Note_on_c, 0, 68, 0
4, 669120, Note_on_c, 0, 64, 0
4, 669120, Note_on_c, 0, 59, 101
4, 669120, Note_on_c, 0, 66, 101
4, 669360, Note_on_c, 0, 66, 0
4, 669360, Note_on_c, 0, 59, 0
4, 669360, Note_on_c, 0, 56, 101
4, 669360, Note_on_c, 0, 64, 101
4, 669600, Note_on_c, 0, 64, 0
4, 669600, Note_on_c, 0, 56, 0
4, 669600, Note_on_c, 0, 59, 101
4, 669600, Note_on_c, 0, 66, 101
4, 669840, Note_on_c, 0, 66, 0
4, 669840, Note_on_c, 0, 59, 0
4, 669840, Note_on_c, 0, 64, 101
4, 669840, Note_on_c, 0, 68, 101
4, 670080, Note_on_c, 0, 68, 0
4, 670080, Note_on_c, 0, 64, 0
4, 670080, Note_on_c, 0, 47, 101
4, 670320, Note_on_c, 0, 47, 0
4, 670440, Note_on_c, 0, 64, 101
4, 670440, Note_on_c, 0, 66, 101
4, 670560, Note_on_c, 0, 66, 0
4, 670560, Note_on_c, 0, 64, 0
4, 670560, Note_on_c, 0, 64, 101
4, 670560, Note_on_c, 0, 66, 101
4, 670800, Note_on_c, 0, 66, 0
4, 670800, Note_on_c, 0, 64, 0
4, 670800, Note_on_c, 0, 64, 101
4, 670800, Note_on_c, 0, 66, 101
4, 671040, Note_on_c, 0, 66, 0
4, 671040, Note_on_c, 0, 64, 0
4, 671040, Note_on_c, 0, 68, 101
4, 671280, Note_on_c, 0, 68, 0
4, 671280, Note_on_c, 0, 69, 101
4, 671520, Note_on_c, 0, 69, 0
4, 671520, Note_on_c, 0, 63, 101
4, 671520, Note_on_c, 0, 71, 101
4, 671760, Note_on_c, 0, 71, 0
4, 671760, Note_on_c, 0, 63, 0
4, 671760, Note_on_c, 0, 69, 101
4, 672000, Note_on_c, 0, 69, 0
4, 672000, Note_on_c, 0, 68, 101
4, 672240, Note_on_c, 0, 68, 0
4, 672240, Note_on_c, 0, 66, 101
4, 672480, Note_on_c, 0, 66, 0
4, 672480, Note_on_c, 0, 68, 101
4, 672720, Note_on_c, 0, 68, 0
4, 672720, Note_on_c, 0, 69, 101
4, 672960, Note_on_c, 0, 69, 0
4, 672960, Note_on_c, 0, 40, 101
4, 672960, Note_on_c, 0, 47, 101
4, 672960, Note_on_c, 0, 52, 101
4, 673200, Note_on_c, 0, 52, 0
4, 673200, Note_on_c, 0, 47, 0
4, 673200, Note_on_c, 0, 40, 0
4, 673320, Note_on_c, 0, 56, 101
4, 673320, Note_on_c, 0, 59, 101
4, 673320, Note_on_c, 0, 64, 101
4, 673440, Note_on_c, 0, 64, 0
4, 673440, Note_on_c, 0, 59, 0
4, 673440, Note_on_c, 0, 56, 0
4, 673440, Note_on_c, 0, 56, 101
4, 673440, Note_on_c, 0, 59, 101
4, 673440, Note_on_c, 0, 64, 101
4, 673680, Note_on_c, 0, 64, 0
4, 673680, Note_on_c, 0, 59, 0
4, 673680, Note_on_c, 0, 56, 0
4, 673680, Note_on_c, 0, 56, 101
4, 673680, Note_on_c, 0, 59, 101
4, 673680, Note_on_c, 0, 64, 101
4, 673920, Note_on_c, 0, 64, 0
4, 673920, Note_on_c, 0, 59, 0
4, 673920, Note_on_c, 0, 56, 0
4, 673920, Note_on_c, 0, 56, 101
4, 673920, Note_on_c, 0, 59, 101
4, 673920, Note_on_c, 0, 64, 101
4, 674160, Note_on_c, 0, 64, 0
4, 674160, Note_on_c, 0, 59, 0
4, 674160, Note_on_c, 0, 56, 0
4, 674160, Note_on_c, 0, 56, 101
4, 674160, Note_on_c, 0, 59, 101
4, 674160, Note_on_c, 0, 64, 101
4, 674400, Note_on_c, 0, 64, 0
4, 674400, Note_on_c, 0, 59, 0
4, 674400, Note_on_c, 0, 56, 0
4, 674400, Note_on_c, 0, 40, 101
4, 674400, Note_on_c, 0, 47, 101
4, 674400, Note_on_c, 0, 52, 101
4, 674640, Note_on_c, 0, 52, 0
4, 674640, Note_on_c, 0, 47, 0
4, 674640, Note_on_c, 0, 40, 0
4, 674760, Note_on_c, 0, 56, 101
4, 674760, Note_on_c, 0, 59, 101
4, 674760, Note_on_c, 0, 64, 101
4, 674880, Note_on_c, 0, 64, 0
4, 674880, Note_on_c, 0, 59, 0
4, 674880, Note_on_c, 0, 56, 0
4, 674880, Note_on_c, 0, 56, 101
4, 674880, Note_on_c, 0, 59, 101
4, 674880, Note_on_c, 0, 64, 101
4, 675120, Note_on_c, 0, 64, 0
4, 675120, Note_on_c, 0, 59, 0
4, 675120, Note_on_c, 0, 56, 0
4, 675120, Note_on_c, 0, 56, 101
4, 675120, Note_on_c, 0, 59, 101
4, 675120, Note_on_c, 0, 64, 101
4, 675360, Note_on_c, 0, 64, 0
4, 675360, Note_on_c, 0, 59, 0
4, 675360, Note_on_c, 0, 56, 0
4, 675360, Note_on_c, 0, 56, 101
4, 675360, Note_on_c, 0, 59, 101
4, 675360, Note_on_c, 0, 64, 101
4, 675600, Note_on_c, 0, 64, 0
4, 675600, Note_on_c, 0, 59, 0
4, 675600, Note_on_c, 0, 56, 0
4, 675600, Note_on_c, 0, 56, 101
4, 675600, Note_on_c, 0, 59, 101
4, 675600, Note_on_c, 0, 64, 101
4, 675840, Note_on_c, 0, 64, 0
4, 675840, Note_on_c, 0, 59, 0
4, 675840, Note_on_c, 0, 56, 0
4, 676080, Note_on_c, 0, 64, 88
4, 676320, Note_on_c, 0, 64, 0
4, 676320, Note_on_c, 0, 61, 88
4, 676560, Note_on_c, 0, 61, 0
4, 676560, Note_on_c, 0, 59, 88
4, 676560, Note_on_c, 0, 68, 88
4, 676800, Note_on_c, 0, 68, 0
4, 676800, Note_on_c, 0, 59, 0
4, 676800, Note_on_c, 0, 58, 88
4, 676800, Note_on_c, 0, 67, 88
4, 677040, Note_on_c, 0, 67, 0
4, 677040, Note_on_c, 0, 58, 0
4, 677040, Note_on_c, 0, 57, 88
4, 677040, Note_on_c, 0, 66, 88
4, 677280, Note_on_c, 0, 66, 0
4, 677280, Note_on_c, 0, 57, 0
4, 677280, Note_on_c, 0, 56, 101
4, 677280, Note_on_c, 0, 64, 101
4, 677520, Note_on_c, 0, 64, 0
4, 677520, Note_on_c, 0, 56, 0
4, 677520, Note_on_c, 0, 54, 101
4, 677760, Note_on_c, 0, 54, 0
4, 677760, Note_on_c, 0, 52, 101
4, 678000, Note_on_c, 0, 52, 0
4, 678000, Note_on_c, 0, 50, 101
4, 678240, Note_on_c, 0, 50, 0
4, 678240, Note_on_c, 0, 49, 101
4, 678480, Note_on_c, 0, 49, 0
4, 678480, Note_on_c, 0, 48, 101
4, 678480, Note_on_c, 0, 55, 101
4, 678720, Note_on_c, 0, 55, 0
4, 678720, Note_on_c, 0, 48, 0
4, 678720, Note_on_c, 0, 40, 101
4, 678720, Note_on_c, 0, 47, 101
4, 678720, Note_on_c, 0, 52, 101
4, 678960, Note_on_c, 0, 52, 0
4, 678960, Note_on_c, 0, 47, 0
4, 678960, Note_on_c, 0, 40, 0
4, 679080, Note_on_c, 0, 56, 101
4, 679080, Note_on_c, 0, 59, 101
4, 679080, Note_on_c, 0, 64, 101
4, 679200, Note_on_c, 0, 64, 0
4, 679200, Note_on_c, 0, 59, 0
4, 679200, Note_on_c, 0, 56, 0
4, 679200, Note_on_c, 0, 56, 101
4, 679200, Note_on_c, 0, 59, 101
4, 679200, Note_on_c, 0, 64, 101
4, 679440, Note_on_c, 0, 64, 0
4, 679440, Note_on_c, 0, 59, 0
4, 679440, Note_on_c, 0, 56, 0
4, 679440, Note_on_c, 0, 56, 101
4, 679440, Note_on_c, 0, 59, 101
4, 679440, Note_on_c, 0, 64, 101
4, 679680, Note_on_c, 0, 64, 0
4, 679680, Note_on_c, 0, 59, 0
4, 679680, Note_on_c, 0, 56, 0
4, 679680, Note_on_c, 0, 56, 101
4, 679680, Note_on_c, 0, 59, 101
4, 679680, Note_on_c, 0, 64, 101
4, 679920, Note_on_c, 0, 64, 0
4, 679920, Note_on_c, 0, 59, 0
4, 679920, Note_on_c, 0, 56, 0
4, 679920, Note_on_c, 0, 56, 101
4, 679920, Note_on_c, 0, 59, 101
4, 679920, Note_on_c, 0, 64, 101
4, 680160, Note_on_c, 0, 64, 0
4, 680160, Note_on_c, 0, 59, 0
4, 680160, Note_on_c, 0, 56, 0
4, 680160, Note_on_c, 0, 40, 101
4, 680160, Note_on_c, 0, 47, 101
4, 680160, Note_on_c, 0, 52, 101
4, 680400, Note_on_c, 0, 52, 0
4, 680400, Note_on_c, 0, 47, 0
4, 680400, Note_on_c, 0, 40, 0
4, 680520, Note_on_c, 0, 56, 101
4, 680520, Note_on_c, 0, 59, 101
4, 680520, Note_on_c, 0, 64, 101
4, 680640, Note_on_c, 0, 64, 0
4, 680640, Note_on_c, 0, 59, 0
4, 680640, Note_on_c, 0, 56, 0
4, 680640, Note_on_c, 0, 56, 101
4, 680640, Note_on_c, 0, 59, 101
4, 680640, Note_on_c, 0, 64, 101
4, 680880, Note_on_c, 0, 64, 0
4, 680880, Note_on_c, 0, 59, 0
4, 680880, Note_on_c, 0, 56, 0
4, 680880, Note_on_c, 0, 56, 101
4, 680880, Note_on_c, 0, 59, 101
4, 680880, Note_on_c, 0, 64, 101
4, 681120, Note_on_c, 0, 64, 0
4, 681120, Note_on_c, 0, 59, 0
4, 681120, Note_on_c, 0, 56, 0
4, 681120, Note_on_c, 0, 56, 101
4, 681120, Note_on_c, 0, 59, 101
4, 681120, Note_on_c, 0, 64, 101
4, 681360, Note_on_c, 0, 64, 0
4, 681360, Note_on_c, 0, 59, 0
4, 681360, Note_on_c, 0, 56, 0
4, 681360, Note_on_c, 0, 56, 101
4, 681360, Note_on_c, 0, 59, 101
4, 681360, Note_on_c, 0, 64, 101
4, 681600, Note_on_c, 0, 64, 0
4, 681600, Note_on_c, 0, 59, 0
4, 681600, Note_on_c, 0, 56, 0
4, 681840, Note_on_c, 0, 61, 75
4, 682080, Note_on_c, 0, 61, 0
4, 682080, Note_on_c, 0, 60, 75
4, 682080, Note_on_c, 0, 63, 75
4, 682320, Note_on_c, 0, 63, 0
4, 682320, Note_on_c, 0, 60, 0
4, 682320, Note_on_c, 0, 59, 75
4, 682320, Note_on_c, 0, 62, 75
4, 682560, Note_on_c, 0, 62, 0
4, 682560, Note_on_c, 0, 59, 0
4, 682560, Note_on_c, 0, 57, 75
4, 682560, Note_on_c, 0, 61, 75
4, 682800, Note_on_c, 0, 61, 0
4, 682800, Note_on_c, 0, 57, 0
4, 682800, Note_on_c, 0, 55, 75
4, 682800, Note_on_c, 0, 60, 75
4, 683040, Note_on_c, 0, 60, 0
4, 683040, Note_on_c, 0, 55, 0
4, 683040, Note_on_c, 0, 56, 75
4, 683040, Note_on_c, 0, 59, 75
4, 683280, Note_on_c, 0, 59, 0
4, 683280, Note_on_c, 0, 56, 0
4, 683280, Note_on_c, 0, 55, 75
4, 683280, Note_on_c, 0, 59, 75
4, 683520, Note_on_c, 0, 59, 0
4, 683520, Note_on_c, 0, 55, 0
4, 683520, Note_on_c, 0, 54, 88
4, 683520, Note_on_c, 0, 59, 88
4, 683760, Note_on_c, 0, 59, 0
4, 683760, Note_on_c, 0, 54, 0
4, 683760, Note_on_c, 0, 52, 88
4, 683760, Note_on_c, 0, 59, 88
4, 684000, Note_on_c, 0, 59, 0
4, 684000, Note_on_c, 0, 52, 0
4, 684000, Note_on_c, 0, 51, 101
4, 684240, Note_on_c, 0, 51, 0
4, 684240, Note_on_c, 0, 49, 101
4, 684480, Note_on_c, 0, 49, 0
4, 684480, Note_on_c, 0, 40, 101
4, 684480, Note_on_c, 0, 47, 101
4, 684480, Note_on_c, 0, 52, 101
4, 684720, Note_on_c, 0, 52, 0
4, 684720, Note_on_c, 0, 47, 0
4, 684720, Note_on_c, 0, 40, 0
4, 684840, Note_on_c, 0, 56, 101
4, 684840, Note_on_c, 0, 59, 101
4, 684840, Note_on_c, 0, 64, 101
4, 684960, Note_on_c, 0, 64, 0
4, 684960, Note_on_c, 0, 59, 0
4, 684960, Note_on_c, 0, 56, 0
4, 684960, Note_on_c, 0, 56, 101
4, 684960, Note_on_c, 0, 59, 101
4, 684960, Note_on_c, 0, 64, 101
4, 685200, Note_on_c, 0, 64, 0
4, 685200, Note_on_c, 0, 59, 0
4, 685200, Note_on_c, 0, 56, 0
4, 685200, Note_on_c, 0, 56, 101
4, 685200, Note_on_c, 0, 59, 101
4, 685200, Note_on_c, 0, 64, 101
4, 685440, Note_on_c, 0, 64, 0
4, 685440, Note_on_c, 0, 59, 0
4, 685440, Note_on_c, 0, 56, 0
4, 685440, Note_on_c, 0, 56, 101
4, 685440, Note_on_c, 0, 59, 101
4, 685440, Note_on_c, 0, 64, 101
4, 685680, Note_on_c, 0, 64, 0
4, 685680, Note_on_c, 0, 59, 0
4, 685680, Note_on_c, 0, 56, 0
4, 685680, Note_on_c, 0, 56, 101
4, 685680, Note_on_c, 0, 59, 101
4, 685680, Note_on_c, 0, 64, 101
4, 685920, Note_on_c, 0, 64, 0
4, 685920, Note_on_c, 0, 59, 0
4, 685920, Note_on_c, 0, 56, 0
4, 686160, Note_on_c, 0, 59, 88
4, 686400, Note_on_c, 0, 59, 0
4, 686400, Note_on_c, 0, 57, 88
4, 686640, Note_on_c, 0, 57, 0
4, 686640, Note_on_c, 0, 56, 88
4, 686880, Note_on_c, 0, 56, 0
4, 686880, Note_on_c, 0, 55, 88
4, 687120, Note_on_c, 0, 55, 0
4, 687120, Note_on_c, 0, 54, 88
4, 687360, Note_on_c, 0, 54, 0
4, 687360, Note_on_c, 0, 40, 88
4, 687360, Note_on_c, 0, 47, 88
4, 687360, Note_on_c, 0, 52, 88
4, 687600, Note_on_c, 0, 52, 0
4, 687600, Note_on_c, 0, 47, 0
4, 687600, Note_on_c, 0, 40, 0
4, 687720, Note_on_c, 0, 56, 88
4, 687720, Note_on_c, 0, 59, 88
4, 687720, Note_on_c, 0, 64, 88
4, 687840, Note_on_c, 0, 64, 0
4, 687840, Note_on_c, 0, 59, 0
4, 687840, Note_on_c, 0, 56, 0
4, 687840, Note_on_c, 0, 56, 88
4, 687840, Note_on_c, 0, 59, 88
4, 687840, Note_on_c, 0, 64, 88
4, 688080, Note_on_c, 0, 64, 0
4, 688080, Note_on_c, 0, 59, 0
4, 688080, Note_on_c, 0, 56, 0
4, 688080, Note_on_c, 0, 56, 88
4, 688080, Note_on_c, 0, 59, 88
4, 688080, Note_on_c, 0, 64, 88
4, 688320, Note_on_c, 0, 64, 0
4, 688320, Note_on_c, 0, 59, 0
4, 688320, Note_on_c, 0, 56, 0
4, 688320, Note_on_c, 0, 56, 88
4, 688320, Note_on_c, 0, 59, 88
4, 688320, Note_on_c, 0, 64, 88
4, 688560, Note_on_c, 0, 64, 0
4, 688560, Note_on_c, 0, 59, 0
4, 688560, Note_on_c, 0, 56, 0
4, 688560, Note_on_c, 0, 56, 88
4, 688560, Note_on_c, 0, 59, 88
4, 688560, Note_on_c, 0, 64, 88
4, 688800, Note_on_c, 0, 64, 0
4, 688800, Note_on_c, 0, 59, 0
4, 688800, Note_on_c, 0, 56, 0
4, 689040, Note_on_c, 0, 56, 88
4, 689280, Note_on_c, 0, 56, 0
4, 689280, Note_on_c, 0, 54, 88
4, 689520, Note_on_c, 0, 54, 0
4, 689520, Note_on_c, 0, 52, 88
4, 689760, Note_on_c, 0, 52, 0
4, 689760, Note_on_c, 0, 49, 88
4, 690000, Note_on_c, 0, 49, 0
4, 690000, Note_on_c, 0, 48, 88
4, 690000, Note_on_c, 0, 55, 88
4, 690240, Note_on_c, 0, 55, 0
4, 690240, Note_on_c, 0, 48, 0
4, 690240, Note_on_c, 0, 40, 75
4, 690240, Note_on_c, 0, 47, 75
4, 690480, Note_on_c, 0, 47, 0
4, 690480, Note_on_c, 0, 40, 0
4, 690600, Note_on_c, 0, 52, 75
4, 690600, Note_on_c, 0, 56, 75
4, 690600, Note_on_c, 0, 59, 75
4, 690720, Note_on_c, 0, 59, 0
4, 690720, Note_on_c, 0, 56, 0
4, 690720, Note_on_c, 0, 52, 0
4, 690720, Note_on_c, 0, 52, 75
4, 690720, Note_on_c, 0, 56, 75
4, 690720, Note_on_c, 0, 59, 75
4, 690960, Note_on_c, 0, 59, 0
4, 690960, Note_on_c, 0, 56, 0
4, 690960, Note_on_c, 0, 52, 0
4, 690960, Note_on_c, 0, 52, 75
4, 690960, Note_on_c, 0, 56, 75
4, 690960, Note_on_c, 0, 59, 75
4, 691200, Note_on_c, 0, 59, 0
4, 691200, Note_on_c, 0, 56, 0
4, 691200, Note_on_c, 0, 52, 0
4, 691200, Note_on_c, 0, 52, 75
4, 691200, Note_on_c, 0, 56, 75
4, 691200, Note_on_c, 0, 59, 75
4, 691440, Note_on_c, 0, 59, 0
4, 691440, Note_on_c, 0, 56, 0
4, 691440, Note_on_c, 0, 52, 0
4, 691440, Note_on_c, 0, 52, 75
4, 691440, Note_on_c, 0, 56, 75
4, 691440, Note_on_c, 0, 59, 75
4, 691680, Note_on_c, 0, 59, 0
4, 691680, Note_on_c, 0, 56, 0
4, 691680, Note_on_c, 0, 52, 0
4, 691680, Note_on_c, 0, 40, 75
4, 691680, Note_on_c, 0, 47, 75
4, 691920, Note_on_c, 0, 47, 0
4, 691920, Note_on_c, 0, 40, 0
4, 692040, Note_on_c, 0, 52, 75
4, 692040, Note_on_c, 0, 56, 75
4, 692040, Note_on_c, 0, 59, 75
4, 692160, Note_on_c, 0, 59, 0
4, 692160, Note_on_c, 0, 56, 0
4, 692160, Note_on_c, 0, 52, 0
4, 692160, Note_on_c, 0, 52, 75
4, 692160, Note_on_c, 0, 56, 75
4, 692160, Note_on_c, 0, 59, 75
4, 692400, Note_on_c, 0, 59, 0
4, 692400, Note_on_c, 0, 56, 0
4, 692400, Note_on_c, 0, 52, 0
4, 692400, Note_on_c, 0, 52, 75
4, 692400, Note_on_c, 0, 56, 75
4, 692400, Note_on_c, 0, 59, 75
4, 692640, Note_on_c, 0, 59, 0
4, 692640, Note_on_c, 0, 56, 0
4, 692640, Note_on_c, 0, 52, 0
4, 692640, Note_on_c, 0, 52, 75
4, 692640, Note_on_c, 0, 56, 75
4, 692640, Note_on_c, 0, 59, 75
4, 692880, Note_on_c, 0, 59, 0
4, 692880, Note_on_c, 0, 56, 0
4, 692880, Note_on_c, 0, 52, 0
4, 692880, Note_on_c, 0, 52, 75
4, 692880, Note_on_c, 0, 56, 75
4, 692880, Note_on_c, 0, 59, 75
4, 693120, Note_on_c, 0, 59, 0
4, 693120, Note_on_c, 0, 56, 0
4, 693120, Note_on_c, 0, 52, 0
4, 693120, Note_on_c, 0, 40, 75
4, 693120, Note_on_c, 0, 47, 75
4, 693360, Note_on_c, 0, 47, 0
4, 693360, Note_on_c, 0, 40, 0
4, 693480, Note_on_c, 0, 52, 75
4, 693480, Note_on_c, 0, 56, 75
4, 693480, Note_on_c, 0, 59, 75
4, 693600, Note_on_c, 0, 59, 0
4, 693600, Note_on_c, 0, 56, 0
4, 693600, Note_on_c, 0, 52, 0
4, 693600, Note_on_c, 0, 52, 75
4, 693600, Note_on_c, 0, 56, 75
4, 693600, Note_on_c, 0, 59, 75
4, 693840, Note_on_c, 0, 59, 0
4, 693840, Note_on_c, 0, 56, 0
4, 693840, Note_on_c, 0, 52, 0
4, 693840, Note_on_c, 0, 52, 75
4, 693840, Note_on_c, 0, 56, 75
4, 693840, Note_on_c, 0, 59, 75
4, 694080, Note_on_c, 0, 59, 0
4, 694080, Note_on_c, 0, 56, 0
4, 694080, Note_on_c, 0, 52, 0
4, 694080, Note_on_c, 0, 52, 75
4, 694080, Note_on_c, 0, 56, 75
4, 694080, Note_on_c, 0, 59, 75
4, 694320, Note_on_c, 0, 59, 0
4, 694320, Note_on_c, 0, 56, 0
4, 694320, Note_on_c, 0, 52, 0
4, 694320, Note_on_c, 0, 52, 75
4, 694320, Note_on_c, 0, 56, 75
4, 694320, Note_on_c, 0, 59, 75
4, 694560, Note_on_c, 0, 59, 0
4, 694560, Note_on_c, 0, 56, 0
4, 694560, Note_on_c, 0, 52, 0
4, 694560, Note_on_c, 0, 40, 75
4, 694560, Note_on_c, 0, 47, 75
4, 694800, Note_on_c, 0, 47, 0
4, 694800, Note_on_c, 0, 40, 0
4, 694920, Note_on_c, 0, 52, 75
4, 694920, Note_on_c, 0, 56, 75
4, 694920, Note_on_c, 0, 59, 75
4, 695040, Note_on_c, 0, 59, 0
4, 695040, Note_on_c, 0, 56, 0
4, 695040, Note_on_c, 0, 52, 0
4, 695040, Note_on_c, 0, 52, 75
4, 695040, Note_on_c, 0, 56, 75
4, 695040, Note_on_c, 0, 59, 75
4, 695280, Note_on_c, 0, 59, 0
4, 695280, Note_on_c, 0, 56, 0
4, 695280, Note_on_c, 0, 52, 0
4, 695280, Note_on_c, 0, 52, 75
4, 695280, Note_on_c, 0, 56, 75
4, 695280, Note_on_c, 0, 59, 75
4, 695520, Note_on_c, 0, 59, 0
4, 695520, Note_on_c, 0, 56, 0
4, 695520, Note_on_c, 0, 52, 0
4, 695520, Note_on_c, 0, 52, 75
4, 695520, Note_on_c, 0, 56, 75
4, 695520, Note_on_c, 0, 59, 75
4, 695760, Note_on_c, 0, 59, 0
4, 695760, Note_on_c, 0, 56, 0
4, 695760, Note_on_c, 0, 52, 0
4, 695760, Note_on_c, 0, 52, 75
4, 695760, Note_on_c, 0, 56, 75
4, 695760, Note_on_c, 0, 59, 75
4, 696000, Note_on_c, 0, 59, 0
4, 696000, Note_on_c, 0, 56, 0
4, 696000, Note_on_c, 0, 52, 0
4, 696000, Note_on_c, 0, 56, 75
4, 696000, Note_on_c, 0, 59, 75
4, 696480, Note_on_c, 0, 59, 0
4, 696480, Note_on_c, 0, 56, 0
4, 696480, Note_on_c, 0, 56, 75
4, 696480, Note_on_c, 0, 59, 75
4, 696720, Note_on_c, 0, 59, 0
4, 696720, Note_on_c, 0, 56, 0
4, 696720, Note_on_c, 0, 56, 75
4, 696720, Note_on_c, 0, 59, 75
4, 697200, Note_on_c, 0, 59, 0
4, 697200, Note_on_c, 0, 56, 0
4, 697200, Note_on_c, 0, 56, 75
4, 697200, Note_on_c, 0, 59, 75
4, 697440, Note_on_c, 0, 59, 0
4, 697440, Note_on_c, 0, 56, 0
4, 697440, Note_on_c, 0, 56, 75
4, 697440, Note_on_c, 0, 59, 75
4, 697920, Note_on_c, 0, 59, 0
4, 697920, Note_on_c, 0, 56, 0
4, 697920, Note_on_c, 0, 56, 75
4, 697920, Note_on_c, 0, 59, 75
4, 698160, Note_on_c, 0, 59, 0
4, 698160, Note_on_c, 0, 56, 0
4, 698160, Note_on_c, 0, 56, 75
4, 698160, Note_on_c, 0, 59, 75
4, 698640, Note_on_c, 0, 59, 0
4, 698640, Note_on_c, 0, 56, 0
4, 698640, Note_on_c, 0, 56, 75
4, 698640, Note_on_c, 0, 59, 75
4, 698880, Note_on_c, 0, 59, 0
4, 698880, Note_on_c, 0, 56, 0
4, 701760, Note_on_c, 0, 55, 62
4, 701760, Note_on_c, 0, 59, 62
4, 702240, Note_on_c, 0, 59, 0
4, 702240, Note_on_c, 0, 55, 0
4, 702240, Note_on_c, 0, 55, 62
4, 702240, Note_on_c, 0, 59, 62
4, 702480, Note_on_c, 0, 59, 0
4, 702480, Note_on_c, 0, 55, 0
4, 702480, Note_on_c, 0, 55, 62
4, 702480, Note_on_c, 0, 59, 62
4, 702960, Note_on_c, 0, 59, 0
4, 702960, Note_on_c, 0, 55, 0
4, 702960, Note_on_c, 0, 55, 62
4, 702960, Note_on_c, 0, 59, 62
4, 703200, Note_on_c, 0, 59, 0
4, 703200, Note_on_c, 0, 55, 0
4, 703200, Note_on_c, 0, 55, 62
4, 703200, Note_on_c, 0, 59, 62
4, 703680, Note_on_c, 0, 59, 0
4, 703680, Note_on_c, 0, 55, 0
4, 703680, Note_on_c, 0, 55, 62
4, 703680, Note_on_c, 0, 59, 62
4, 703920, Note_on_c, 0, 59, 0
4, 703920, Note_on_c, 0, 55, 0
4, 703920, Note_on_c, 0, 55, 62
4, 703920, Note_on_c, 0, 59, 62
4, 704400, Note_on_c, 0, 59, 0
4, 704400, Note_on_c, 0, 55, 0
4, 704400, Note_on_c, 0, 55, 62
4, 704400, Note_on_c, 0, 59, 62
4, 704640, Note_on_c, 0, 59, 0
4, 704640, Note_on_c, 0, 55, 0
4, 707520, Note_on_c, 0, 55, 49
4, 707520, Note_on_c, 0, 58, 49
4, 708000, Note_on_c, 0, 58, 0
4, 708000, Note_on_c, 0, 55, 0
4, 708000, Note_on_c, 0, 55, 49
4, 708000, Note_on_c, 0, 58, 49
4, 708240, Note_on_c, 0, 58, 0
4, 708240, Note_on_c, 0, 55, 0
4, 708240, Note_on_c, 0, 55, 49
4, 708240, Note_on_c, 0, 58, 49
4, 708720, Note_on_c, 0, 58, 0
4, 708720, Note_on_c, 0, 55, 0
4, 708720, Note_on_c, 0, 55, 49
4, 708720, Note_on_c, 0, 58, 49
4, 708960, Note_on_c, 0, 58, 0
4, 708960, Note_on_c, 0, 55, 0
4, 709200, Note_on_c, 0, 54, 49
4, 709247, Note_on_c, 0, 54, 0
4, 709440, Note_on_c, 0, 55, 49
4, 709487, Note_on_c, 0, 55, 0
4, 709680, Note_on_c, 0, 57, 49
4, 709920, Note_on_c, 0, 57, 0
4, 709920, Note_on_c, 0, 59, 75
4, 710160, Note_on_c, 0, 59, 0
4, 710160, Note_on_c, 0, 60, 75
4, 710400, Note_on_c, 0, 60, 0
4, 710400, Note_on_c, 0, 54, 62
4, 710400, Note_on_c, 0, 57, 62
4, 710400, Note_on_c, 0, 60, 62
4, 710880, Note_on_c, 0, 60, 0
4, 710880, Note_on_c, 0, 57, 0
4, 710880, Note_on_c, 0, 54, 0
4, 710880, Note_on_c, 0, 54, 62
4, 710880, Note_on_c, 0, 57, 62
4, 710880, Note_on_c, 0, 60, 62
4, 711120, Note_on_c, 0, 60, 0
4, 711120, Note_on_c, 0, 57, 0
4, 711120, Note_on_c, 0, 54, 0
4, 711120, Note_on_c, 0, 54, 62
4, 711120, Note_on_c, 0, 57, 62
4, 711120, Note_on_c, 0, 60, 62
4, 711600, Note_on_c, 0, 60, 0
4, 711600, Note_on_c, 0, 57, 0
4, 711600, Note_on_c, 0, 54, 0
4, 711600, Note_on_c, 0, 54, 62
4, 711600, Note_on_c, 0, 57, 62
4, 711600, Note_on_c, 0, 60, 62
4, 711840, Note_on_c, 0, 60, 0
4, 711840, Note_on_c, 0, 57, 0
4, 711840, Note_on_c, 0, 54, 0
4, 712080, Note_on_c, 0, 57, 62
4, 712127, Note_on_c, 0, 57, 0
4, 712320, Note_on_c, 0, 59, 62
4, 712367, Note_on_c, 0, 59, 0
4, 712560, Note_on_c, 0, 60, 62
4, 712800, Note_on_c, 0, 60, 0
4, 712800, Note_on_c, 0, 63, 88
4, 713040, Note_on_c, 0, 63, 0
4, 713040, Note_on_c, 0, 64, 88
4, 713280, Note_on_c, 0, 64, 0
4, 713280, Note_on_c, 0, 48, 75
4, 713280, Note_on_c, 0, 57, 75
4, 713760, Note_on_c, 0, 57, 0
4, 713760, Note_on_c, 0, 48, 0
4, 713760, Note_on_c, 0, 57, 75
4, 713760, Note_on_c, 0, 64, 75
4, 714000, Note_on_c, 0, 64, 0
4, 714000, Note_on_c, 0, 57, 0
4, 714000, Note_on_c, 0, 52, 75
4, 714240, Note_on_c, 0, 52, 0
4, 714240, Note_on_c, 0, 54, 75
4, 714480, Note_on_c, 0, 54, 0
4, 714480, Note_on_c, 0, 55, 75
4, 714720, Note_on_c, 0, 55, 0
4, 714720, Note_on_c, 0, 48, 75
4, 714720, Note_on_c, 0, 54, 75
4, 715200, Note_on_c, 0, 54, 0
4, 715200, Note_on_c, 0, 48, 0
4, 715200, Note_on_c, 0, 54, 75
4, 715200, Note_on_c, 0, 64, 75
4, 715440, Note_on_c, 0, 64, 0
4, 715440, Note_on_c, 0, 54, 0
4, 715440, Note_on_c, 0, 54, 75
4, 715680, Note_on_c, 0, 54, 0
4, 715680, Note_on_c, 0, 55, 101
4, 715920, Note_on_c, 0, 55, 0
4, 715920, Note_on_c, 0, 57, 101
4, 716160, Note_on_c, 0, 57, 0
4, 716160, Note_on_c, 0, 43, 101
4, 716160, Note_on_c, 0, 48, 101
4, 716400, Note_on_c, 0, 48, 0
4, 716400, Note_on_c, 0, 43, 0
4, 716400, Note_on_c, 0, 48, 101
4, 716400, Note_on_c, 0, 52, 101
4, 716640, Note_on_c, 0, 52, 0
4, 716640, Note_on_c, 0, 48, 0
4, 716640, Note_on_c, 0, 54, 101
4, 716880, Note_on_c, 0, 54, 0
4, 716880, Note_on_c, 0, 55, 101
4, 717120, Note_on_c, 0, 55, 0
4, 717120, Note_on_c, 0, 60, 101
4, 717120, Note_on_c, 0, 64, 101
4, 717360, Note_on_c, 0, 64, 0
4, 717360, Note_on_c, 0, 60, 0
4, 717360, Note_on_c, 0, 66, 101
4, 717600, Note_on_c, 0, 66, 0
4, 717600, Note_on_c, 0, 67, 101
4, 717840, Note_on_c, 0, 67, 0
4, 718080, Note_on_c, 0, 64, 101
4, 718320, Note_on_c, 0, 64, 0
4, 718320, Note_on_c, 0, 70, 101
4, 718560, Note_on_c, 0, 70, 0
4, 718800, Note_on_c, 0, 52, 101
4, 719040, Note_on_c, 0, 52, 0
4, 719040, Note_on_c, 0, 43, 101
4, 719040, Note_on_c, 0, 50, 101
4, 719280, Note_on_c, 0, 50, 0
4, 719280, Note_on_c, 0, 43, 0
4, 719760, Note_on_c, 0, 41, 49
4, 719760, Note_on_c, 0, 53, 49
4, 720000, Note_on_c, 0, 53, 0
4, 720000, Note_on_c, 0, 41, 0
4, 720480, Note_on_c, 0, 40, 49
4, 720480, Note_on_c, 0, 52, 49
4, 720720, Note_on_c, 0, 52, 0
4, 720720, Note_on_c, 0, 40, 0
4, 721200, Note_on_c, 0, 38, 49
4, 721200, Note_on_c, 0, 50, 49
4, 721440, Note_on_c, 0, 50, 0
4, 721440, Note_on_c, 0, 38, 0
4, 721920, Note_on_c, 0, 36, 49
4, 721920, Note_on_c, 0, 48, 49
4, 722160, Note_on_c, 0, 48, 0
4, 722160, Note_on_c, 0, 36, 0
4, 722640, Note_on_c, 0, 47, 49
4, 722640, Note_on_c, 0, 52, 49
4, 722640, Note_on_c, 0, 62, 49
4, 722880, Note_on_c, 0, 62, 0
4, 722880, Note_on_c, 0, 52, 0
4, 722880, Note_on_c, 0, 47, 0
4, 723360, Note_on_c, 0, 45, 62
4, 723360, Note_on_c, 0, 52, 62
4, 723360, Note_on_c, 0, 60, 62
4, 723600, Note_on_c, 0, 60, 0
4, 723600, Note_on_c, 0, 52, 0
4, 723600, Note_on_c, 0, 45, 0
4, 724080, Note_on_c, 0, 47, 49
4, 724080, Note_on_c, 0, 57, 49
4, 724320, Note_on_c, 0, 57, 0
4, 724320, Note_on_c, 0, 47, 0
4, 724800, Note_on_c, 0, 43, 49
4, 724800, Note_on_c, 0, 52, 49
4, 725040, Note_on_c, 0, 52, 0
4, 725040, Note_on_c, 0, 43, 0
4, 725520, Note_on_c, 0, 54, 49
4, 725520, Note_on_c, 0, 59, 49
4, 725520, Note_on_c, 0, 69, 49
4, 725760, Note_on_c, 0, 69, 0
4, 725760, Note_on_c, 0, 59, 0
4, 725760, Note_on_c, 0, 54, 0
4, 726240, Note_on_c, 0, 52, 49
4, 726240, Note_on_c, 0, 59, 49
4, 726240, Note_on_c, 0, 67, 49
4, 726480, Note_on_c, 0, 67, 0
4, 726480, Note_on_c, 0, 59, 0
4, 726480, Note_on_c, 0, 52, 0
4, 726960, Note_on_c, 0, 50, 49
4, 726960, Note_on_c, 0, 56, 49
4, 726960, Note_on_c, 0, 64, 49
4, 727200, Note_on_c, 0, 64, 0
4, 727200, Note_on_c, 0, 56, 0
4, 727200, Note_on_c, 0, 50, 0
4, 727680, Note_on_c, 0, 48, 49
4, 727680, Note_on_c, 0, 57, 49
4, 727920, Note_on_c, 0, 57, 0
4, 727920, Note_on_c, 0, 48, 0
4, 728400, Note_on_c, 0, 47, 49
4, 728400, Note_on_c, 0, 52, 49
4, 728400, Note_on_c, 0, 62, 49
4, 728640, Note_on_c, 0, 62, 0
4, 728640, Note_on_c, 0, 52, 0
4, 728640, Note_on_c, 0, 47, 0
4, 729120, Note_on_c, 0, 45, 62
4, 729120, Note_on_c, 0, 52, 62
4, 729120, Note_on_c, 0, 60, 62
4, 729360, Note_on_c, 0, 60, 0
4, 729360, Note_on_c, 0, 52, 0
4, 729360, Note_on_c, 0, 45, 0
4, 729840, Note_on_c, 0, 47, 49
4, 729840, Note_on_c, 0, 57, 49
4, 730080, Note_on_c, 0, 57, 0
4, 730080, Note_on_c, 0, 47, 0
4, 730560, Note_on_c, 0, 48, 62
4, 730560, Note_on_c, 0, 57, 62
4, 730800, Note_on_c, 0, 57, 0
4, 730800, Note_on_c, 0, 48, 0
4, 731280, Note_on_c, 0, 50, 62
4, 731280, Note_on_c, 0, 57, 62
4, 731280, Note_on_c, 0, 62, 62
4, 731520, Note_on_c, 0, 62, 0
4, 731520, Note_on_c, 0, 57, 0
4, 731520, Note_on_c, 0, 50, 0
4, 732000, Note_on_c, 0, 51, 62
4, 732000, Note_on_c, 0, 57, 62
4, 732240, Note_on_c, 0, 57, 0
4, 732240, Note_on_c, 0, 51, 0
4, 732720, Note_on_c, 0, 52, 62
4, 732720, Note_on_c, 0, 59, 62
4, 732720, Note_on_c, 0, 64, 62
4, 732960, Note_on_c, 0, 64, 0
4, 732960, Note_on_c, 0, 59, 0
4, 732960, Note_on_c, 0, 52, 0
4, 733440, Note_on_c, 0, 54, 62
4, 733440, Note_on_c, 0, 60, 62
4, 733680, Note_on_c, 0, 60, 0
4, 733680, Note_on_c, 0, 54, 0
4, 734160, Note_on_c, 0, 55, 62
4, 734160, Note_on_c, 0, 62, 62
4, 734160, Note_on_c, 0, 67, 62
4, 734400, Note_on_c, 0, 67, 0
4, 734400, Note_on_c, 0, 62, 0
4, 734400, Note_on_c, 0, 55, 0
4, 734880, Note_on_c, 0, 57, 62
4, 734880, Note_on_c, 0, 64, 62
4, 735120, Note_on_c, 0, 64, 0
4, 735120, Note_on_c, 0, 57, 0
4, 735600, Note_on_c, 0, 58, 62
4, 735600, Note_on_c, 0, 64, 62
4, 735600, Note_on_c, 0, 72, 62
4, 735840, Note_on_c, 0, 72, 0
4, 735840, Note_on_c, 0, 64, 0
4, 735840, Note_on_c, 0, 58, 0
4, 736320, Note_on_c, 0, 59, 62
4, 736320, Note_on_c, 0, 64, 62
4, 736320, Note_on_c, 0, 71, 62
4, 736560, Note_on_c, 0, 71, 0
4, 736560, Note_on_c, 0, 64, 0
4, 736560, Note_on_c, 0, 59, 0
4, 737040, Note_on_c, 0, 60, 62
4, 737040, Note_on_c, 0, 64, 62
4, 737040, Note_on_c, 0, 70, 62
4, 737280, Note_on_c, 0, 70, 0
4, 737280, Note_on_c, 0, 64, 0
4, 737280, Note_on_c, 0, 60, 0
4, 737760, Note_on_c, 0, 59, 75
4, 737760, Note_on_c, 0, 64, 75
4, 737760, Note_on_c, 0, 71, 75
4, 738000, Note_on_c, 0, 71, 0
4, 738000, Note_on_c, 0, 64, 0
4, 738000, Note_on_c, 0, 59, 0
4, 738480, Note_on_c, 0, 55, 75
4, 738480, Note_on_c, 0, 64, 75
4, 738480, Note_on_c, 0, 71, 75
4, 738720, Note_on_c, 0, 71, 0
4, 738720, Note_on_c, 0, 64, 0
4, 738720, Note_on_c, 0, 55, 0
4, 739200, Note_on_c, 0, 52, 75
4, 739200, Note_on_c, 0, 59, 75
4, 739200, Note_on_c, 0, 67, 75
4, 739440, Note_on_c, 0, 67, 0
4, 739440, Note_on_c, 0, 59, 0
4, 739440, Note_on_c, 0, 52, 0
4, 739920, Note_on_c, 0, 50, 75
4, 739920, Note_on_c, 0, 55, 75
4, 739920, Note_on_c, 0, 59, 75
4, 740160, Note_on_c, 0, 59, 0
4, 740160, Note_on_c, 0, 55, 0
4, 740160, Note_on_c, 0, 50, 0
4, 740640, Note_on_c, 0, 48, 88
4, 740640, Note_on_c, 0, 54, 88
4, 740640, Note_on_c, 0, 57, 88
4, 740880, Note_on_c, 0, 57, 0
4, 740880, Note_on_c, 0, 54, 0
4, 740880, Note_on_c, 0, 48, 0
4, 741360, Note_on_c, 0, 45, 88
4, 741360, Note_on_c, 0, 52, 88
4, 741360, Note_on_c, 0, 60, 88
4, 741600, Note_on_c, 0, 60, 0
4, 741600, Note_on_c, 0, 52, 0
4, 741600, Note_on_c, 0, 45, 0
4, 742080, Note_on_c, 0, 35, 101
4, 742080, Note_on_c, 0, 47, 101
4, 742320, Note_on_c, 0, 47, 0
4, 742320, Note_on_c, 0, 35, 0
4, 742440, Note_on_c, 0, 47, 101
4, 742440, Note_on_c, 0, 52, 101
4, 742440, Note_on_c, 0, 55, 101
4, 742440, Note_on_c, 0, 59, 101
4, 742560, Note_on_c, 0, 59, 0
4, 742560, Note_on_c, 0, 47, 0
4, 742560, Note_on_c, 0, 52, 0
4, 742560, Note_on_c, 0, 55, 0
4, 742560, Note_on_c, 0, 47, 101
4, 742560, Note_on_c, 0, 52, 101
4, 742560, Note_on_c, 0, 55, 101
4, 742560, Note_on_c, 0, 59, 101
4, 743040, Note_on_c, 0, 59, 0
4, 743040, Note_on_c, 0, 47, 0
4, 743040, Note_on_c, 0, 52, 0
4, 743040, Note_on_c, 0, 55, 0
4, 743040, Note_on_c, 0, 47, 101
4, 743040, Note_on_c, 0, 52, 101
4, 743040, Note_on_c, 0, 55, 101
4, 743040, Note_on_c, 0, 59, 101
4, 743280, Note_on_c, 0, 59, 0
4, 743280, Note_on_c, 0, 47, 0
4, 743280, Note_on_c, 0, 52, 0
4, 743280, Note_on_c, 0, 55, 0
4, 743280, Note_on_c, 0, 47, 101
4, 743280, Note_on_c, 0, 52, 101
4, 743280, Note_on_c, 0, 55, 101
4, 743280, Note_on_c, 0, 59, 101
4, 743760, Note_on_c, 0, 59, 0
4, 743760, Note_on_c, 0, 47, 0
4, 743760, Note_on_c, 0, 52, 0
4, 743760, Note_on_c, 0, 55, 0
4, 743760, Note_on_c, 0, 47, 101
4, 743760, Note_on_c, 0, 52, 101
4, 743760, Note_on_c, 0, 55, 101
4, 743760, Note_on_c, 0, 59, 101
4, 744000, Note_on_c, 0, 59, 0
4, 744000, Note_on_c, 0, 47, 0
4, 744000, Note_on_c, 0, 52, 0
4, 744000, Note_on_c, 0, 55, 0
4, 744000, Note_on_c, 0, 47, 101
4, 744000, Note_on_c, 0, 52, 101
4, 744000, Note_on_c, 0, 55, 101
4, 744000, Note_on_c, 0, 59, 101
4, 744240, Note_on_c, 0, 59, 0
4, 744240, Note_on_c, 0, 47, 0
4, 744240, Note_on_c, 0, 52, 0
4, 744240, Note_on_c, 0, 55, 0
4, 744240, Note_on_c, 0, 47, 101
4, 744240, Note_on_c, 0, 52, 101
4, 744240, Note_on_c, 0, 55, 101
4, 744240, Note_on_c, 0, 59, 101
4, 744480, Note_on_c, 0, 59, 0
4, 744480, Note_on_c, 0, 47, 0
4, 744480, Note_on_c, 0, 52, 0
4, 744480, Note_on_c, 0, 55, 0
4, 744480, Note_on_c, 0, 47, 101
4, 744480, Note_on_c, 0, 52, 101
4, 744480, Note_on_c, 0, 55, 101
4, 744480, Note_on_c, 0, 59, 101
4, 744720, Note_on_c, 0, 59, 0
4, 744720, Note_on_c, 0, 47, 0
4, 744720, Note_on_c, 0, 52, 0
4, 744720, Note_on_c, 0, 55, 0
4, 744720, Note_on_c, 0, 47, 101
4, 744720, Note_on_c, 0, 52, 101
4, 744720, Note_on_c, 0, 55, 101
4, 744720, Note_on_c, 0, 59, 101
4, 744960, Note_on_c, 0, 59, 0
4, 744960, Note_on_c, 0, 47, 0
4, 744960, Note_on_c, 0, 52, 0
4, 744960, Note_on_c, 0, 55, 0
4, 744960, Note_on_c, 0, 35, 101
4, 744960, Note_on_c, 0, 47, 101
4, 745200, Note_on_c, 0, 47, 0
4, 745200, Note_on_c, 0, 35, 0
4, 745320, Note_on_c, 0, 47, 101
4, 745320, Note_on_c, 0, 52, 101
4, 745320, Note_on_c, 0, 54, 101
4, 745320, Note_on_c, 0, 57, 101
4, 745440, Note_on_c, 0, 57, 0
4, 745440, Note_on_c, 0, 47, 0
4, 745440, Note_on_c, 0, 52, 0
4, 745440, Note_on_c, 0, 54, 0
4, 745440, Note_on_c, 0, 47, 101
4, 745440, Note_on_c, 0, 52, 101
4, 745440, Note_on_c, 0, 54, 101
4, 745440, Note_on_c, 0, 57, 101
4, 745920, Note_on_c, 0, 57, 0
4, 745920, Note_on_c, 0, 47, 0
4, 745920, Note_on_c, 0, 52, 0
4, 745920, Note_on_c, 0, 54, 0
4, 745920, Note_on_c, 0, 47, 101
4, 745920, Note_on_c, 0, 52, 101
4, 745920, Note_on_c, 0, 54, 101
4, 745920, Note_on_c, 0, 59, 101
4, 746160, Note_on_c, 0, 59, 0
4, 746160, Note_on_c, 0, 47, 0
4, 746160, Note_on_c, 0, 52, 0
4, 746160, Note_on_c, 0, 54, 0
4, 746160, Note_on_c, 0, 47, 101
4, 746160, Note_on_c, 0, 52, 101
4, 746160, Note_on_c, 0, 54, 101
4, 746160, Note_on_c, 0, 57, 101
4, 746640, Note_on_c, 0, 57, 0
4, 746640, Note_on_c, 0, 47, 0
4, 746640, Note_on_c, 0, 52, 0
4, 746640, Note_on_c, 0, 54, 0
4, 746640, Note_on_c, 0, 47, 101
4, 746640, Note_on_c, 0, 51, 101
4, 746640, Note_on_c, 0, 57, 101
4, 746880, Note_on_c, 0, 57, 0
4, 746880, Note_on_c, 0, 51, 0
4, 746880, Note_on_c, 0, 47, 0
4, 746880, Note_on_c, 0, 47, 101
4, 746880, Note_on_c, 0, 51, 101
4, 746880, Note_on_c, 0, 57, 101
4, 747360, Note_on_c, 0, 57, 0
4, 747360, Note_on_c, 0, 51, 0
4, 747360, Note_on_c, 0, 47, 0
4, 747360, Note_on_c, 0, 47, 101
4, 747360, Note_on_c, 0, 54, 101
4, 747360, Note_on_c, 0, 57, 101
4, 747600, Note_on_c, 0, 57, 0
4, 747600, Note_on_c, 0, 54, 0
4, 747600, Note_on_c, 0, 47, 0
4, 747600, Note_on_c, 0, 47, 101
4, 747600, Note_on_c, 0, 54, 101
4, 747600, Note_on_c, 0, 57, 101
4, 747840, Note_on_c, 0, 57, 0
4, 747840, Note_on_c, 0, 54, 0
4, 747840, Note_on_c, 0, 47, 0
4, 747840, Note_on_c, 0, 40, 101
4, 747840, Note_on_c, 0, 47, 101
4, 747840, Note_on_c, 0, 55, 101
4, 748080, Note_on_c, 0, 55, 0
4, 748080, Note_on_c, 0, 47, 0
4, 748080, Note_on_c, 0, 40, 0
4, 748560, Note_on_c, 0, 50, 88
4, 748560, Note_on_c, 0, 55, 88
4, 748560, Note_on_c, 0, 59, 88
4, 748800, Note_on_c, 0, 59, 0
4, 748800, Note_on_c, 0, 55, 0
4, 748800, Note_on_c, 0, 50, 0
4, 749280, Note_on_c, 0, 48, 88
4, 749280, Note_on_c, 0, 54, 88
4, 749280, Note_on_c, 0, 64, 88
4, 749520, Note_on_c, 0, 64, 0
4, 749520, Note_on_c, 0, 54, 0
4, 749520, Note_on_c, 0, 48, 0
4, 750000, Note_on_c, 0, 47, 88
4, 750000, Note_on_c, 0, 57, 88
4, 750240, Note_on_c, 0, 57, 0
4, 750240, Note_on_c, 0, 47, 0
4, 750720, Note_on_c, 0, 40, 88
4, 750720, Note_on_c, 0, 47, 88
4, 750720, Note_on_c, 0, 55, 88
4, 750960, Note_on_c, 0, 55, 0
4, 750960, Note_on_c, 0, 47, 0
4, 750960, Note_on_c, 0, 40, 0
4, 751440, Note_on_c, 0, 50, 88
4, 751440, Note_on_c, 0, 55, 88
4, 751440, Note_on_c, 0, 59, 88
4, 751680, Note_on_c, 0, 59, 0
4, 751680, Note_on_c, 0, 55, 0
4, 751680, Note_on_c, 0, 50, 0
4, 752160, Note_on_c, 0, 48, 88
4, 752160, Note_on_c, 0, 54, 88
4, 752160, Note_on_c, 0, 64, 88
4, 752400, Note_on_c, 0, 64, 0
4, 752400, Note_on_c, 0, 54, 0
4, 752400, Note_on_c, 0, 48, 0
4, 752880, Note_on_c, 0, 47, 88
4, 752880, Note_on_c, 0, 57, 88
4, 753120, Note_on_c, 0, 57, 0
4, 753120, Note_on_c, 0, 47, 0
4, 753600, Note_on_c, 0, 40, 88
4, 753600, Note_on_c, 0, 47, 88
4, 753600, Note_on_c, 0, 55, 88
4, 753840, Note_on_c, 0, 55, 0
4, 753840, Note_on_c, 0, 47, 0
4, 753840, Note_on_c, 0, 40, 0
4, 754320, Note_on_c, 0, 50, 75
4, 754320, Note_on_c, 0, 56, 75
4, 754320, Note_on_c, 0, 59, 75
4, 754560, Note_on_c, 0, 59, 0
4, 754560, Note_on_c, 0, 56, 0
4, 754560, Note_on_c, 0, 50, 0
4, 755040, Note_on_c, 0, 48, 75
4, 755040, Note_on_c, 0, 54, 75
4, 755040, Note_on_c, 0, 57, 75
4, 755280, Note_on_c, 0, 57, 0
4, 755280, Note_on_c, 0, 54, 0
4, 755280, Note_on_c, 0, 48, 0
4, 755760, Note_on_c, 0, 47, 75
4, 755760, Note_on_c, 0, 57, 75
4, 756000, Note_on_c, 0, 57, 0
4, 756000, Note_on_c, 0, 47, 0
4, 756480, Note_on_c, 0, 40, 75
4, 756480, Note_on_c, 0, 47, 75
4, 756480, Note_on_c, 0, 55, 75
4, 756720, Note_on_c, 0, 55, 0
4, 756720, Note_on_c, 0, 47, 0
4, 756720, Note_on_c, 0, 40, 0
4, 757200, Note_on_c, 0, 50, 75
4, 757200, Note_on_c, 0, 56, 75
4, 757200, Note_on_c, 0, 59, 75
4, 757440, Note_on_c, 0, 59, 0
4, 757440, Note_on_c, 0, 56, 0
4, 757440, Note_on_c, 0, 50, 0
4, 757920, Note_on_c, 0, 48, 75
4, 757920, Note_on_c, 0, 54, 75
4, 757920, Note_on_c, 0, 57, 75
4, 758160, Note_on_c, 0, 57, 0
4, 758160, Note_on_c, 0, 54, 0
4, 758160, Note_on_c, 0, 48, 0
4, 758640, Note_on_c, 0, 47, 75
4, 758640, Note_on_c, 0, 57, 75
4, 758880, Note_on_c, 0, 57, 0
4, 758880, Note_on_c, 0, 47, 0
4, 759360, Note_on_c, 0, 40, 75
4, 759360, Note_on_c, 0, 47, 75
4, 759360, Note_on_c, 0, 55, 75
4, 759600, Note_on_c, 0, 55, 0
4, 759600, Note_on_c, 0, 47, 0
4, 759600, Note_on_c, 0, 40, 0
4, 760080, Note_on_c, 0, 38, 62
4, 760080, Note_on_c, 0, 50, 62
4, 760320, Note_on_c, 0, 50, 0
4, 760320, Note_on_c, 0, 38, 0
4, 760800, Note_on_c, 0, 36, 62
4, 760800, Note_on_c, 0, 48, 62
4, 761040, Note_on_c, 0, 48, 0
4, 761040, Note_on_c, 0, 36, 0
4, 761520, Note_on_c, 0, 35, 62
4, 761520, Note_on_c, 0, 47, 62
4, 761760, Note_on_c, 0, 47, 0
4, 761760, Note_on_c, 0, 35, 0
4, 762240, Note_on_c, 0, 40, 62
4, 762480, Note_on_c, 0, 40, 0
4, 762960, Note_on_c, 0, 38, 62
4, 762960, Note_on_c, 0, 50, 62
4, 763200, Note_on_c, 0, 50, 0
4, 763200, Note_on_c, 0, 38, 0
4, 763680, Note_on_c, 0, 36, 62
4, 763680, Note_on_c, 0, 48, 62
4, 763920, Note_on_c, 0, 48, 0
4, 763920, Note_on_c, 0, 36, 0
4, 764400, Note_on_c, 0, 35, 62
4, 764400, Note_on_c, 0, 47, 62
4, 764640, Note_on_c, 0, 47, 0
4, 764640, Note_on_c, 0, 35, 0
4, 765120, Note_on_c, 0, 40, 62
4, 765360, Note_on_c, 0, 40, 0
4, 765840, Note_on_c, 0, 38, 49
4, 765840, Note_on_c, 0, 50, 49
4, 766080, Note_on_c, 0, 50, 0
4, 766080, Note_on_c, 0, 38, 0
4, 766560, Note_on_c, 0, 36, 49
4, 766560, Note_on_c, 0, 48, 49
4, 766800, Note_on_c, 0, 48, 0
4, 766800, Note_on_c, 0, 36, 0
4, 767280, Note_on_c, 0, 35, 49
4, 767280, Note_on_c, 0, 47, 49
4, 767520, Note_on_c, 0, 47, 0
4, 767520, Note_on_c, 0, 35, 0
4, 768000, Note_on_c, 0, 40, 49
4, 768240, Note_on_c, 0, 40, 0
4, 768720, Note_on_c, 0, 38, 49
4, 768720, Note_on_c, 0, 50, 49
4, 768960, Note_on_c, 0, 50, 0
4, 768960, Note_on_c, 0, 38, 0
4, 769440, Note_on_c, 0, 36, 49
4, 769440, Note_on_c, 0, 48, 49
4, 769680, Note_on_c, 0, 48, 0
4, 769680, Note_on_c, 0, 36, 0
4, 770160, Note_on_c, 0, 35, 49
4, 770160, Note_on_c, 0, 47, 49
4, 770400, Note_on_c, 0, 47, 0
4, 770400, Note_on_c, 0, 35, 0
4, 770880, Note_on_c, 0, 40, 49
4, 771120, Note_on_c, 0, 40, 0
4, 771600, Note_on_c, 0, 38, 49
4, 771600, Note_on_c, 0, 50, 49
4, 771840, Note_on_c, 0, 50, 0
4, 771840, Note_on_c, 0, 38, 0
4, 772320, Note_on_c, 0, 36, 49
4, 772320, Note_on_c, 0, 48, 49
4, 772560, Note_on_c, 0, 48, 0
4, 772560, Note_on_c, 0, 36, 0
4, 773040, Note_on_c, 0, 35, 49
4, 773040, Note_on_c, 0, 47, 49
4, 773280, Note_on_c, 0, 47, 0
4, 773280, Note_on_c, 0, 35, 0
4, 773760, Note_on_c, 0, 40, 49
4, 774000, Note_on_c, 0, 40, 0
4, 774480, Note_on_c, 0, 38, 49
4, 774480, Note_on_c, 0, 50, 49
4, 774720, Note_on_c, 0, 50, 0
4, 774720, Note_on_c, 0, 38, 0
4, 775200, Note_on_c, 0, 36, 49
4, 775200, Note_on_c, 0, 48, 49
4, 775440, Note_on_c, 0, 48, 0
4, 775440, Note_on_c, 0, 36, 0
4, 775920, Note_on_c, 0, 35, 49
4, 775920, Note_on_c, 0, 47, 49
4, 776160, Note_on_c, 0, 47, 0
4, 776160, Note_on_c, 0, 35, 0
4, 776640, Note_on_c, 0, 40, 49
4, 776880, Note_on_c, 0, 40, 0
4, 777360, Note_on_c, 0, 38, 49
4, 778080, Note_on_c, 0, 38, 0
4, 778080, Note_on_c, 0, 36, 49
4, 778800, Note_on_c, 0, 36, 0
4, 778800, Note_on_c, 0, 35, 49
4, 779520, Note_on_c, 0, 35, 0
4, 779520, Control_c, 0, 64, 127
4, 779520, Note_on_c, 0, 28, 49
4, 780240, Note_on_c, 0, 28, 0
4, 780240, Note_on_c, 0, 38, 49
4, 780960, Note_on_c, 0, 38, 0
4, 780960, Note_on_c, 0, 36, 49
4, 781680, Note_on_c, 0, 36, 0
4, 781680, Control_c, 0, 64, 0
4, 781680, Note_on_c, 0, 35, 49
4, 782400, Note_on_c, 0, 35, 0
4, 782400, Control_c, 0, 64, 127
4, 782400, Note_on_c, 0, 28, 49
4, 783120, Note_on_c, 0, 28, 0
4, 783120, Note_on_c, 0, 38, 49
4, 783840, Note_on_c, 0, 38, 0
4, 783840, Note_on_c, 0, 36, 49
4, 784560, Note_on_c, 0, 36, 0
4, 784560, Control_c, 0, 64, 0
4, 784560, Note_on_c, 0, 35, 49
4, 785280, Note_on_c, 0, 35, 0
4, 785280, Control_c, 0, 64, 127
4, 785280, Note_on_c, 0, 28, 49
4, 786000, Note_on_c, 0, 28, 0
4, 786000, Note_on_c, 0, 38, 49
4, 786720, Note_on_c, 0, 38, 0
4, 786720, Note_on_c, 0, 36, 49
4, 787440, Note_on_c, 0, 36, 0
4, 787440, Control_c, 0, 64, 0
4, 787440, Note_on_c, 0, 35, 49
4, 788160, Note_on_c, 0, 35, 0
4, 788160, Control_c, 0, 64, 127
4, 788160, Note_on_c, 0, 36, 49
4, 788880, Note_on_c, 0, 36, 0
4, 788880, Note_on_c, 0, 35, 49
4, 789600, Note_on_c, 0, 35, 0
4, 789600, Note_on_c, 0, 34, 49
4, 790320, Note_on_c, 0, 34, 0
4, 790320, Control_c, 0, 64, 0
4, 790320, Note_on_c, 0, 35, 49
4, 791040, Note_on_c, 0, 35, 0
4, 791040, Control_c, 0, 64, 127
4, 791040, Note_on_c, 0, 33, 49
4, 791760, Note_on_c, 0, 33, 0
4, 791760, Note_on_c, 0, 31, 49
4, 792480, Note_on_c, 0, 31, 0
4, 792480, Note_on_c, 0, 30, 49
4, 793200, Note_on_c, 0, 30, 0
4, 793200, Control_c, 0, 64, 0
4, 793200, Note_on_c, 0, 31, 49
4, 793920, Note_on_c, 0, 31, 0
4, 793920, Control_c, 0, 64, 127
4, 793920, Note_on_c, 0, 28, 49
4, 794000, Note_on_c, 0, 28, 0
4, 794000, Note_on_c, 0, 31, 49
4, 794079, Note_on_c, 0, 31, 0
4, 794079, Note_on_c, 0, 28, 49
4, 794160, Note_on_c, 0, 28, 0
4, 794160, Note_on_c, 0, 31, 49
4, 794240, Note_on_c, 0, 31, 0
4, 794240, Note_on_c, 0, 28, 49
4, 794319, Note_on_c, 0, 28, 0
4, 794319, Note_on_c, 0, 31, 49
4, 794400, Note_on_c, 0, 31, 0
4, 794400, Note_on_c, 0, 28, 49
4, 794480, Note_on_c, 0, 28, 0
4, 794480, Note_on_c, 0, 31, 49
4, 794559, Note_on_c, 0, 31, 0
4, 794559, Note_on_c, 0, 28, 49
4, 794640, Note_on_c, 0, 28, 0
4, 794640, Note_on_c, 0, 31, 49
4, 794720, Note_on_c, 0, 31, 0
4, 794720, Note_on_c, 0, 28, 49
4, 794799, Note_on_c, 0, 28, 0
4, 794799, Note_on_c, 0, 31, 49
4, 794880, Note_on_c, 0, 31, 0
4, 794880, Note_on_c, 0, 28, 49
4, 794960, Note_on_c, 0, 28, 0
4, 794960, Note_on_c, 0, 31, 49
4, 795039, Note_on_c, 0, 31, 0
4, 795039, Note_on_c, 0, 28, 49
4, 795120, Note_on_c, 0, 28, 0
4, 795120, Note_on_c, 0, 31, 49
4, 795200, Note_on_c, 0, 31, 0
4, 795200, Note_on_c, 0, 28, 49
4, 795279, Note_on_c, 0, 28, 0
4, 795279, Note_on_c, 0, 31, 49
4, 795360, Note_on_c, 0, 31, 0
4, 795360, Note_on_c, 0, 28, 49
4, 795440, Note_on_c, 0, 28, 0
4, 795440, Note_on_c, 0, 31, 49
4, 795519, Note_on_c, 0, 31, 0
4, 795519, Note_on_c, 0, 28, 49
4, 795600, Note_on_c, 0, 28, 0
4, 795600, Note_on_c, 0, 31, 49
4, 795680, Note_on_c, 0, 31, 0
4, 795680, Note_on_c, 0, 28, 49
4, 795759, Note_on_c, 0, 28, 0
4, 795759, Note_on_c, 0, 31, 49
4, 795840, Note_on_c, 0, 31, 0
4, 795840, Note_on_c, 0, 28, 49
4, 795920, Note_on_c, 0, 28, 0
4, 795920, Note_on_c, 0, 31, 49
4, 795999, Note_on_c, 0, 31, 0
4, 795999, Note_on_c, 0, 28, 49
4, 796080, Note_on_c, 0, 28, 0
4, 796080, Note_on_c, 0, 31, 49
4, 796160, Note_on_c, 0, 31, 0
4, 796160, Note_on_c, 0, 28, 49
4, 796239, Note_on_c, 0, 28, 0
4, 796239, Note_on_c, 0, 31, 49
4, 796320, Note_on_c, 0, 31, 0
4, 796320, Note_on_c, 0, 28, 49
4, 796400, Note_on_c, 0, 28, 0
4, 796400, Note_on_c, 0, 31, 49
4, 796479, Note_on_c, 0, 31, 0
4, 796479, Note_on_c, 0, 28, 49
4, 796560, Note_on_c, 0, 28, 0
4, 796560, Note_on_c, 0, 31, 49
4, 796640, Note_on_c, 0, 31, 0
4, 796640, Note_on_c, 0, 28, 49
4, 796719, Note_on_c, 0, 28, 0
4, 796719, Note_on_c, 0, 31, 49
4, 796800, Note_on_c, 0, 31, 0
4, 796800, Note_on_c, 0, 28, 49
4, 796880, Note_on_c, 0, 28, 0
4, 796880, Note_on_c, 0, 31, 49
4, 796959, Note_on_c, 0, 31, 0
4, 796959, Note_on_c, 0, 28, 49
4, 797040, Note_on_c, 0, 28, 0
4, 797040, Note_on_c, 0, 31, 49
4, 797120, Note_on_c, 0, 31, 0
4, 797120, Note_on_c, 0, 28, 49
4, 797199, Note_on_c, 0, 28, 0
4, 797199, Note_on_c, 0, 31, 49
4, 797280, Note_on_c, 0, 31, 0
4, 797280, Note_on_c, 0, 28, 49
4, 797360, Note_on_c, 0, 28, 0
4, 797360, Note_on_c, 0, 31, 49
4, 797439, Note_on_c, 0, 31, 0
4, 797439, Note_on_c, 0, 28, 49
4, 797520, Note_on_c, 0, 28, 0
4, 797520, Note_on_c, 0, 31, 49
4, 797600, Note_on_c, 0, 31, 0
4, 797600, Note_on_c, 0, 28, 49
4, 797679, Note_on_c, 0, 28, 0
4, 797679, Note_on_c, 0, 31, 49
4, 797760, Note_on_c, 0, 31, 0
4, 797760, Note_on_c, 0, 28, 49
4, 797840, Note_on_c, 0, 28, 0
4, 797840, Note_on_c, 0, 31, 49
4, 797919, Note_on_c, 0, 31, 0
4, 797919, Note_on_c, 0, 28, 49
4, 798000, Note_on_c, 0, 28, 0
4, 798000, Note_on_c, 0, 31, 49
4, 798080, Note_on_c, 0, 31, 0
4, 798080, Note_on_c, 0, 28, 49
4, 798159, Note_on_c, 0, 28, 0
4, 798159, Note_on_c, 0, 31, 49
4, 798240, Note_on_c, 0, 31, 0
4, 798240, Control_c, 0, 64, 0
4, 798240, Note_on_c, 0, 28, 49
4, 798480, Note_on_c, 0, 28, 0
4, 798480, End_track
5, 0, Start_track
5, 0, Title_t, "Grand Piano"
5, 0, Program_c, 0, 0
5, 0, Control_c, 0, 7, 115
5, 0, Control_c, 0, 10, 48
5, 19200, Note_on_c, 0, 45, 67
5, 21120, Note_on_c, 0, 45, 0
5, 23040, Note_on_c, 0, 42, 80
5, 24960, Note_on_c, 0, 42, 0
5, 34560, Note_on_c, 0, 47, 67
5, 37680, Note_on_c, 0, 47, 0
5, 58080, Note_on_c, 0, 36, 54
5, 58080, Note_on_c, 0, 48, 54
5, 60000, Note_on_c, 0, 48, 0
5, 60000, Note_on_c, 0, 36, 0
5, 99840, Note_on_c, 0, 42, 67
5, 100080, Note_on_c, 0, 42, 0
5, 101280, Note_on_c, 0, 40, 67
5, 101280, Note_on_c, 0, 47, 67
5, 101520, Note_on_c, 0, 47, 0
5, 101520, Note_on_c, 0, 40, 0
5, 102720, Note_on_c, 0, 40, 67
5, 102960, Note_on_c, 0, 40, 0
5, 104160, Note_on_c, 0, 40, 67
5, 104160, Note_on_c, 0, 47, 67
5, 104400, Note_on_c, 0, 47, 0
5, 104400, Note_on_c, 0, 40, 0
5, 105600, Note_on_c, 0, 40, 67
5, 105840, Note_on_c, 0, 40, 0
5, 107040, Note_on_c, 0, 40, 67
5, 107040, Note_on_c, 0, 47, 67
5, 107280, Note_on_c, 0, 47, 0
5, 107280, Note_on_c, 0, 40, 0
5, 108480, Note_on_c, 0, 40, 67
5, 108720, Note_on_c, 0, 40, 0
5, 109920, Note_on_c, 0, 40, 67
5, 109920, Note_on_c, 0, 47, 67
5, 110160, Note_on_c, 0, 47, 0
5, 110160, Note_on_c, 0, 40, 0
5, 111360, Note_on_c, 0, 40, 67
5, 111600, Note_on_c, 0, 40, 0
5, 117120, Note_on_c, 0, 60, 106
5, 117360, Note_on_c, 0, 60, 0
5, 117360, Note_on_c, 0, 62, 93
5, 117600, Note_on_c, 0, 62, 0
5, 117600, Note_on_c, 0, 63, 80
5, 117840, Note_on_c, 0, 63, 0
5, 122400, Note_on_c, 0, 64, 93
5, 122640, Note_on_c, 0, 64, 0
5, 122640, Note_on_c, 0, 66, 106
5, 122880, Note_on_c, 0, 66, 0
5, 122880, Note_on_c, 0, 67, 106
5, 123120, Note_on_c, 0, 67, 0
5, 123120, Note_on_c, 0, 66, 106
5, 123120, Note_on_c, 0, 71, 106
5, 123360, Note_on_c, 0, 71, 0
5, 123360, Note_on_c, 0, 66, 0
5, 123360, Note_on_c, 0, 58, 106
5, 123360, Note_on_c, 0, 61, 106
5, 123600, Note_on_c, 0, 61, 0
5, 123600, Note_on_c, 0, 58, 0
5, 123600, Note_on_c, 0, 59, 93
5, 123600, Note_on_c, 0, 62, 93
5, 123840, Note_on_c, 0, 62, 0
5, 123840, Note_on_c, 0, 59, 0
5, 128640, Note_on_c, 0, 60, 106
5, 128880, Note_on_c, 0, 60, 0
5, 128880, Note_on_c, 0, 62, 93
5, 129120, Note_on_c, 0, 62, 0
5, 129120, Note_on_c, 0, 63, 80
5, 129360, Note_on_c, 0, 63, 0
5, 133920, Note_on_c, 0, 64, 93
5, 134160, Note_on_c, 0, 64, 0
5, 134160, Note_on_c, 0, 66, 106
5, 134400, Note_on_c, 0, 66, 0
5, 135840, Note_on_c, 0, 55, 106
5, 136080, Note_on_c, 0, 55, 0
5, 136080, Note_on_c, 0, 54, 93
5, 136320, Note_on_c, 0, 54, 0
5, 136320, Note_on_c, 0, 55, 93
5, 136560, Note_on_c, 0, 55, 0
5, 140160, Note_on_c, 0, 52, 93
5, 140160, Note_on_c, 0, 55, 93
5, 140160, Note_on_c, 0, 59, 93
5, 141600, Note_on_c, 0, 59, 0
5, 141600, Note_on_c, 0, 55, 0
5, 141600, Note_on_c, 0, 52, 0
5, 143040, Note_on_c, 0, 52, 93
5, 143040, Note_on_c, 0, 55, 93
5, 143040, Note_on_c, 0, 59, 93
5, 144480, Note_on_c, 0, 59, 0
5, 144480, Note_on_c, 0, 55, 0
5, 144480, Note_on_c, 0, 52, 0
5, 145200, Note_on_c, 0, 50, 106
5, 145440, Note_on_c, 0, 50, 0
5, 145440, Note_on_c, 0, 49, 106
5, 145680, Note_on_c, 0, 49, 0
5, 145680, Note_on_c, 0, 47, 106
5, 145920, Note_on_c, 0, 47, 0
5, 148800, Note_on_c, 0, 57, 93
5, 148800, Note_on_c, 0, 60, 93
5, 148800, Note_on_c, 0, 64, 93
5, 150240, Note_on_c, 0, 64, 0
5, 150240, Note_on_c, 0, 60, 0
5, 150240, Note_on_c, 0, 57, 0
5, 151680, Note_on_c, 0, 57, 93
5, 151680, Note_on_c, 0, 60, 93
5, 151680, Note_on_c, 0, 64, 93
5, 153120, Note_on_c, 0, 64, 0
5, 153120, Note_on_c, 0, 60, 0
5, 153120, Note_on_c, 0, 57, 0
5, 153840, Note_on_c, 0, 55, 106
5, 154080, Note_on_c, 0, 55, 0
5, 154080, Note_on_c, 0, 54, 106
5, 154320, Note_on_c, 0, 54, 0
5, 154320, Note_on_c, 0, 52, 106
5, 154560, Note_on_c, 0, 52, 0
5, 163440, Note_on_c, 0, 57, 106
5, 163440, Note_on_c, 0, 60, 106
5, 164160, Note_on_c, 0, 60, 0
5, 164160, Note_on_c, 0, 57, 0
5, 166320, Note_on_c, 0, 60, 106
5, 166320, Note_on_c, 0, 64, 106
5, 167040, Note_on_c, 0, 64, 0
5, 167040, Note_on_c, 0, 60, 0
5, 167520, Note_on_c, 0, 48, 106
5, 167520, Note_on_c, 0, 52, 106
5, 168960, Note_on_c, 0, 52, 0
5, 168960, Note_on_c, 0, 48, 0
5, 168960, Note_on_c, 0, 48, 106
5, 168960, Note_on_c, 0, 52, 106
5, 170400, Note_on_c, 0, 52, 0
5, 170400, Note_on_c, 0, 48, 0
5, 170400, Note_on_c, 0, 48, 106
5, 170400, Note_on_c, 0, 52, 106
5, 171360, Note_on_c, 0, 52, 0
5, 171360, Note_on_c, 0, 48, 0
5, 182640, Note_on_c, 0, 56, 106
5, 182640, Note_on_c, 0, 64, 106
5, 183360, Note_on_c, 0, 64, 0
5, 183360, Note_on_c, 0, 56, 0
5, 183360, Note_on_c, 0, 54, 106
5, 183840, Note_on_c, 0, 54, 0
5, 183840, Note_on_c, 0, 53, 106
5, 183840, Note_on_c, 0, 55, 106
5, 184080, Note_on_c, 0, 55, 0
5, 184080, Note_on_c, 0, 53, 0
5, 189120, Note_on_c, 0, 54, 54
5, 189120, Note_on_c, 0, 58, 54
5, 189120, Note_on_c, 0, 61, 54
5, 190560, Note_on_c, 0, 61, 0
5, 190560, Note_on_c, 0, 58, 0
5, 190560, Note_on_c, 0, 54, 0
5, 194160, Note_on_c, 0, 53, 80
5, 194880, Note_on_c, 0, 53, 0
5, 194880, Note_on_c, 0, 54, 54
5, 194880, Note_on_c, 0, 58, 54
5, 194880, Note_on_c, 0, 61, 54
5, 196320, Note_on_c, 0, 61, 0
5, 196320, Note_on_c, 0, 58, 0
5, 196320, Note_on_c, 0, 54, 0
5, 197760, Note_on_c, 0, 54, 54
5, 197760, Note_on_c, 0, 58, 54
5, 197760, Note_on_c, 0, 61, 54
5, 199200, Note_on_c, 0, 61, 0
5, 199200, Note_on_c, 0, 58, 0
5, 199200, Note_on_c, 0, 54, 0
5, 200640, Note_on_c, 0, 54, 54
5, 200640, Note_on_c, 0, 58, 54
5, 200640, Note_on_c, 0, 61, 54
5, 202080, Note_on_c, 0, 61, 0
5, 202080, Note_on_c, 0, 58, 0
5, 202080, Note_on_c, 0, 54, 0
5, 206400, Note_on_c, 0, 50, 93
5, 207360, Note_on_c, 0, 50, 0
5, 210720, Note_on_c, 0, 47, 93
5, 211440, Note_on_c, 0, 47, 0
5, 211440, Note_on_c, 0, 52, 80
5, 211440, Note_on_c, 0, 55, 80
5, 211440, Note_on_c, 0, 59, 80
5, 212160, Note_on_c, 0, 59, 0
5, 212160, Note_on_c, 0, 55, 0
5, 212160, Note_on_c, 0, 52, 0
5, 212160, Note_on_c, 0, 54, 54
5, 212160, Note_on_c, 0, 58, 54
5, 212160, Note_on_c, 0, 61, 54
5, 213600, Note_on_c, 0, 61, 0
5, 213600, Note_on_c, 0, 58, 0
5, 213600, Note_on_c, 0, 54, 0
5, 216480, Note_on_c, 0, 47, 93
5, 217200, Note_on_c, 0, 47, 0
5, 217200, Note_on_c, 0, 52, 80
5, 217920, Note_on_c, 0, 52, 0
5, 217920, Note_on_c, 0, 54, 54
5, 217920, Note_on_c, 0, 58, 54
5, 217920, Note_on_c, 0, 61, 54
5, 219360, Note_on_c, 0, 61, 0
5, 219360, Note_on_c, 0, 58, 0
5, 219360, Note_on_c, 0, 54, 0
5, 219360, Note_on_c, 0, 49, 67
5, 219360, Note_on_c, 0, 55, 67
5, 220080, Note_on_c, 0, 55, 0
5, 220080, Note_on_c, 0, 49, 0
5, 220080, Note_on_c, 0, 51, 67
5, 220080, Note_on_c, 0, 54, 67
5, 220800, Note_on_c, 0, 54, 0
5, 220800, Note_on_c, 0, 51, 0
5, 222240, Note_on_c, 0, 47, 67
5, 222240, Note_on_c, 0, 54, 67
5, 222960, Note_on_c, 0, 54, 0
5, 222960, Note_on_c, 0, 47, 0
5, 222960, Note_on_c, 0, 49, 67
5, 222960, Note_on_c, 0, 52, 67
5, 223680, Note_on_c, 0, 52, 0
5, 223680, Note_on_c, 0, 49, 0
5, 243840, Note_on_c, 0, 60, 106
5, 244080, Note_on_c, 0, 60, 0
5, 244080, Note_on_c, 0, 59, 106
5, 244320, Note_on_c, 0, 59, 0
5, 244320, Note_on_c, 0, 57, 106
5, 244560, Note_on_c, 0, 57, 0
5, 244560, Note_on_c, 0, 59, 106
5, 244800, Note_on_c, 0, 59, 0
5, 244800, Note_on_c, 0, 58, 106
5, 245040, Note_on_c, 0, 58, 0
5, 245040, Note_on_c, 0, 57, 67
5, 245280, Note_on_c, 0, 57, 0
5, 249600, Note_on_c, 0, 60, 106
5, 249840, Note_on_c, 0, 60, 0
5, 249840, Note_on_c, 0, 59, 106
5, 250080, Note_on_c, 0, 59, 0
5, 250080, Note_on_c, 0, 57, 106
5, 250320, Note_on_c, 0, 57, 0
5, 255360, Note_on_c, 0, 60, 106
5, 255600, Note_on_c, 0, 60, 0
5, 255600, Note_on_c, 0, 59, 106
5, 255840, Note_on_c, 0, 59, 0
5, 255840, Note_on_c, 0, 57, 106
5, 256080, Note_on_c, 0, 57, 0
5, 256080, Note_on_c, 0, 59, 106
5, 256320, Note_on_c, 0, 59, 0
5, 256320, Note_on_c, 0, 58, 106
5, 256560, Note_on_c, 0, 58, 0
5, 256560, Note_on_c, 0, 57, 67
5, 256800, Note_on_c, 0, 57, 0
5, 261120, Note_on_c, 0, 60, 106
5, 261360, Note_on_c, 0, 60, 0
5, 261360, Note_on_c, 0, 59, 106
5, 261600, Note_on_c, 0, 59, 0
5, 261600, Note_on_c, 0, 57, 106
5, 261840, Note_on_c, 0, 57, 0
5, 267120, Note_on_c, 0, 52, 67
5, 267600, Note_on_c, 0, 52, 0
5, 278640, Note_on_c, 0, 51, 67
5, 279120, Note_on_c, 0, 51, 0
5, 284400, Note_on_c, 0, 52, 67
5, 284880, Note_on_c, 0, 52, 0
5, 285600, Note_on_c, 0, 50, 93
5, 287040, Note_on_c, 0, 50, 0
5, 287040, Note_on_c, 0, 48, 93
5, 288480, Note_on_c, 0, 48, 0
5, 288480, Note_on_c, 0, 47, 67
5, 289200, Note_on_c, 0, 47, 0
5, 289200, Note_on_c, 0, 46, 67
5, 289920, Note_on_c, 0, 46, 0
5, 289920, Note_on_c, 0, 45, 80
5, 290640, Note_on_c, 0, 45, 0
5, 290640, Note_on_c, 0, 43, 80
5, 291360, Note_on_c, 0, 43, 0
5, 291360, Note_on_c, 0, 42, 80
5, 292080, Note_on_c, 0, 42, 0
5, 292080, Note_on_c, 0, 41, 80
5, 292800, Note_on_c, 0, 41, 0
5, 292800, Note_on_c, 0, 40, 80
5, 292800, Note_on_c, 0, 52, 80
5, 293520, Note_on_c, 0, 52, 0
5, 293520, Note_on_c, 0, 40, 0
5, 293520, Note_on_c, 0, 39, 80
5, 293520, Note_on_c, 0, 51, 80
5, 294240, Note_on_c, 0, 51, 0
5, 294240, Note_on_c, 0, 39, 0
5, 294240, Note_on_c, 0, 38, 93
5, 294240, Note_on_c, 0, 50, 93
5, 294960, Note_on_c, 0, 50, 0
5, 294960, Note_on_c, 0, 38, 0
5, 294960, Note_on_c, 0, 36, 93
5, 294960, Note_on_c, 0, 48, 93
5, 295680, Note_on_c, 0, 48, 0
5, 295680, Note_on_c, 0, 36, 0
5, 295680, Note_on_c, 0, 35, 93
5, 295680, Note_on_c, 0, 47, 93
5, 296400, Note_on_c, 0, 47, 0
5, 296400, Note_on_c, 0, 35, 0
5, 296400, Note_on_c, 0, 34, 93
5, 296400, Note_on_c, 0, 46, 93
5, 297120, Note_on_c, 0, 46, 0
5, 297120, Note_on_c, 0, 34, 0
5, 353280, Note_on_c, 0, 44, 93
5, 354960, Note_on_c, 0, 44, 0
5, 366240, Note_on_c, 0, 47, 80
5, 367920, Note_on_c, 0, 47, 0
5, 380640, Note_on_c, 0, 47, 67
5, 382080, Note_on_c, 0, 47, 0
5, 382080, Note_on_c, 0, 42, 80
5, 382320, Note_on_c, 0, 42, 0
5, 383760, Note_on_c, 0, 50, 80
5, 384960, Note_on_c, 0, 50, 0
5, 416640, Note_on_c, 0, 42, 80
5, 417360, Note_on_c, 0, 42, 0
5, 417360, Note_on_c, 0, 52, 80
5, 418080, Note_on_c, 0, 52, 0
5, 418080, Note_on_c, 0, 50, 80
5, 418800, Note_on_c, 0, 50, 0
5, 418800, Note_on_c, 0, 47, 80
5, 419520, Note_on_c, 0, 47, 0
5, 422400, Note_on_c, 0, 40, 67
5, 423120, Note_on_c, 0, 40, 0
5, 423120, Note_on_c, 0, 50, 67
5, 423840, Note_on_c, 0, 50, 0
5, 423840, Note_on_c, 0, 48, 67
5, 424560, Note_on_c, 0, 48, 0
5, 424560, Note_on_c, 0, 45, 67
5, 425280, Note_on_c, 0, 45, 0
5, 427440, Note_on_c, 0, 48, 80
5, 428160, Note_on_c, 0, 48, 0
5, 445440, Note_on_c, 0, 53, 106
5, 445920, Note_on_c, 0, 53, 0
5, 445920, Note_on_c, 0, 52, 106
5, 446400, Note_on_c, 0, 52, 0
5, 446400, Note_on_c, 0, 50, 106
5, 446880, Note_on_c, 0, 50, 0
5, 446880, Note_on_c, 0, 48, 106
5, 447360, Note_on_c, 0, 48, 0
5, 447360, Note_on_c, 0, 46, 106
5, 447840, Note_on_c, 0, 46, 0
5, 447840, Note_on_c, 0, 45, 106
5, 448320, Note_on_c, 0, 45, 0
5, 448320, Note_on_c, 0, 43, 106
5, 448800, Note_on_c, 0, 43, 0
5, 448800, Note_on_c, 0, 41, 106
5, 449280, Note_on_c, 0, 41, 0
5, 449280, Note_on_c, 0, 40, 106
5, 449760, Note_on_c, 0, 40, 0
5, 449760, Note_on_c, 0, 38, 106
5, 450240, Note_on_c, 0, 38, 0
5, 450240, Note_on_c, 0, 36, 106
5, 450720, Note_on_c, 0, 36, 0
5, 450720, Note_on_c, 0, 34, 106
5, 451200, Note_on_c, 0, 34, 0
5, 452640, Note_on_c, 0, 38, 106
5, 453120, Note_on_c, 0, 38, 0
5, 453120, Note_on_c, 0, 36, 106
5, 453600, Note_on_c, 0, 36, 0
5, 453600, Note_on_c, 0, 34, 106
5, 454080, Note_on_c, 0, 34, 0
5, 455520, Note_on_c, 0, 38, 106
5, 456000, Note_on_c, 0, 38, 0
5, 456000, Note_on_c, 0, 36, 106
5, 456480, Note_on_c, 0, 36, 0
5, 456480, Note_on_c, 0, 34, 106
5, 456960, Note_on_c, 0, 34, 0
5, 463440, Note_on_c, 0, 34, 106
5, 463440, Note_on_c, 0, 46, 106
5, 463920, Note_on_c, 0, 46, 0
5, 463920, Note_on_c, 0, 34, 0
5, 463920, Note_on_c, 0, 34, 106
5, 463920, Note_on_c, 0, 46, 106
5, 464160, Note_on_c, 0, 46, 0
5, 464160, Note_on_c, 0, 34, 0
5, 464880, Note_on_c, 0, 34, 106
5, 464880, Note_on_c, 0, 46, 106
5, 465360, Note_on_c, 0, 46, 0
5, 465360, Note_on_c, 0, 34, 0
5, 465360, Note_on_c, 0, 34, 106
5, 465360, Note_on_c, 0, 46, 106
5, 465600, Note_on_c, 0, 46, 0
5, 465600, Note_on_c, 0, 34, 0
5, 466320, Note_on_c, 0, 34, 106
5, 466320, Note_on_c, 0, 46, 106
5, 466800, Note_on_c, 0, 46, 0
5, 466800, Note_on_c, 0, 34, 0
5, 466800, Note_on_c, 0, 34, 106
5, 466800, Note_on_c, 0, 46, 106
5, 467040, Note_on_c, 0, 46, 0
5, 467040, Note_on_c, 0, 34, 0
5, 467760, Note_on_c, 0, 34, 106
5, 467760, Note_on_c, 0, 46, 106
5, 468240, Note_on_c, 0, 46, 0
5, 468240, Note_on_c, 0, 34, 0
5, 468240, Note_on_c, 0, 34, 106
5, 468240, Note_on_c, 0, 46, 106
5, 468480, Note_on_c, 0, 46, 0
5, 468480, Note_on_c, 0, 34, 0
5, 469200, Note_on_c, 0, 34, 106
5, 469200, Note_on_c, 0, 46, 106
5, 469920, Note_on_c, 0, 46, 0
5, 469920, Note_on_c, 0, 34, 0
5, 470640, Note_on_c, 0, 34, 106
5, 470640, Note_on_c, 0, 46, 106
5, 471360, Note_on_c, 0, 46, 0
5, 471360, Note_on_c, 0, 34, 0
5, 490560, Note_on_c, 0, 59, 67
5, 490800, Note_on_c, 0, 59, 0
5, 491520, Note_on_c, 0, 57, 54
5, 492240, Note_on_c, 0, 57, 0
5, 492240, Note_on_c, 0, 50, 54
5, 492960, Note_on_c, 0, 50, 0
5, 494400, Note_on_c, 0, 57, 54
5, 494640, Note_on_c, 0, 57, 0
5, 494640, Note_on_c, 0, 57, 54
5, 494880, Note_on_c, 0, 57, 0
5, 494880, Note_on_c, 0, 55, 54
5, 495120, Note_on_c, 0, 55, 0
5, 495120, Note_on_c, 0, 54, 54
5, 495360, Note_on_c, 0, 54, 0
5, 495360, Note_on_c, 0, 52, 54
5, 495600, Note_on_c, 0, 52, 0
5, 495600, Note_on_c, 0, 50, 54
5, 495840, Note_on_c, 0, 50, 0
5, 497280, Note_on_c, 0, 69, 54
5, 498000, Note_on_c, 0, 69, 0
5, 498000, Note_on_c, 0, 62, 54
5, 498720, Note_on_c, 0, 62, 0
5, 500160, Note_on_c, 0, 69, 54
5, 500400, Note_on_c, 0, 69, 0
5, 500400, Note_on_c, 0, 69, 54
5, 500640, Note_on_c, 0, 69, 0
5, 500640, Note_on_c, 0, 67, 54
5, 501120, Note_on_c, 0, 67, 0
5, 501120, Note_on_c, 0, 66, 54
5, 501360, Note_on_c, 0, 66, 0
5, 501360, Note_on_c, 0, 64, 54
5, 501600, Note_on_c, 0, 64, 0
5, 503040, Note_on_c, 0, 40, 54
5, 503040, Note_on_c, 0, 47, 54
5, 503280, Note_on_c, 0, 47, 0
5, 503280, Note_on_c, 0, 40, 0
5, 504480, Note_on_c, 0, 40, 54
5, 504720, Note_on_c, 0, 40, 0
5, 505920, Note_on_c, 0, 40, 54
5, 505920, Note_on_c, 0, 47, 54
5, 506160, Note_on_c, 0, 47, 0
5, 506160, Note_on_c, 0, 40, 0
5, 507360, Note_on_c, 0, 40, 54
5, 507600, Note_on_c, 0, 40, 0
5, 508800, Note_on_c, 0, 40, 54
5, 508800, Note_on_c, 0, 47, 54
5, 509040, Note_on_c, 0, 47, 0
5, 509040, Note_on_c, 0, 40, 0
5, 510240, Note_on_c, 0, 40, 54
5, 510480, Note_on_c, 0, 40, 0
5, 511680, Note_on_c, 0, 40, 54
5, 511680, Note_on_c, 0, 47, 54
5, 511920, Note_on_c, 0, 47, 0
5, 511920, Note_on_c, 0, 40, 0
5, 513120, Note_on_c, 0, 40, 54
5, 513360, Note_on_c, 0, 40, 0
5, 518880, Note_on_c, 0, 60, 106
5, 519120, Note_on_c, 0, 60, 0
5, 519120, Note_on_c, 0, 62, 93
5, 519360, Note_on_c, 0, 62, 0
5, 519360, Note_on_c, 0, 63, 80
5, 519600, Note_on_c, 0, 63, 0
5, 524160, Note_on_c, 0, 64, 93
5, 524400, Note_on_c, 0, 64, 0
5, 524400, Note_on_c, 0, 66, 106
5, 524640, Note_on_c, 0, 66, 0
5, 524640, Note_on_c, 0, 67, 106
5, 524880, Note_on_c, 0, 67, 0
5, 524880, Note_on_c, 0, 66, 106
5, 524880, Note_on_c, 0, 71, 106
5, 525120, Note_on_c, 0, 71, 0
5, 525120, Note_on_c, 0, 66, 0
5, 525120, Note_on_c, 0, 58, 106
5, 525120, Note_on_c, 0, 61, 106
5, 525360, Note_on_c, 0, 61, 0
5, 525360, Note_on_c, 0, 58, 0
5, 525360, Note_on_c, 0, 59, 93
5, 525360, Note_on_c, 0, 62, 93
5, 525600, Note_on_c, 0, 62, 0
5, 525600, Note_on_c, 0, 59, 0
5, 530400, Note_on_c, 0, 60, 106
5, 530640, Note_on_c, 0, 60, 0
5, 530640, Note_on_c, 0, 62, 93
5, 530880, Note_on_c, 0, 62, 0
5, 530880, Note_on_c, 0, 63, 80
5, 531120, Note_on_c, 0, 63, 0
5, 541440, Note_on_c, 0, 48, 93
5, 541680, Note_on_c, 0, 48, 0
5, 541680, Note_on_c, 0, 45, 93
5, 541920, Note_on_c, 0, 45, 0
5, 541920, Note_on_c, 0, 44, 93
5, 542160, Note_on_c, 0, 44, 0
5, 542160, Note_on_c, 0, 50, 93
5, 542400, Note_on_c, 0, 50, 0
5, 542400, Note_on_c, 0, 49, 93
5, 542640, Note_on_c, 0, 49, 0
5, 542640, Note_on_c, 0, 47, 93
5, 542880, Note_on_c, 0, 47, 0
5, 542880, Note_on_c, 0, 57, 93
5, 543120, Note_on_c, 0, 57, 0
5, 543120, Note_on_c, 0, 56, 93
5, 543360, Note_on_c, 0, 56, 0
5, 552720, Note_on_c, 0, 57, 106
5, 552720, Note_on_c, 0, 66, 106
5, 553440, Note_on_c, 0, 66, 0
5, 553440, Note_on_c, 0, 57, 0
5, 553440, Note_on_c, 0, 56, 106
5, 553920, Note_on_c, 0, 56, 0
5, 553920, Note_on_c, 0, 55, 106
5, 553920, Note_on_c, 0, 57, 106
5, 554160, Note_on_c, 0, 57, 0
5, 554160, Note_on_c, 0, 55, 0
5, 560160, Note_on_c, 0, 56, 54
5, 560400, Note_on_c, 0, 56, 0
5, 560400, Note_on_c, 0, 44, 54
5, 560640, Note_on_c, 0, 44, 0
5, 564240, Note_on_c, 0, 55, 93
5, 564960, Note_on_c, 0, 55, 0
5, 565920, Note_on_c, 0, 56, 54
5, 566160, Note_on_c, 0, 56, 0
5, 566160, Note_on_c, 0, 44, 54
5, 566400, Note_on_c, 0, 44, 0
5, 568800, Note_on_c, 0, 56, 54
5, 569040, Note_on_c, 0, 56, 0
5, 569040, Note_on_c, 0, 44, 54
5, 569280, Note_on_c, 0, 44, 0
5, 571680, Note_on_c, 0, 56, 54
5, 571920, Note_on_c, 0, 56, 0
5, 571920, Note_on_c, 0, 44, 54
5, 572160, Note_on_c, 0, 44, 0
5, 576480, Note_on_c, 0, 52, 106
5, 577440, Note_on_c, 0, 52, 0
5, 580800, Note_on_c, 0, 49, 93
5, 581520, Note_on_c, 0, 49, 0
5, 583200, Note_on_c, 0, 56, 54
5, 583440, Note_on_c, 0, 56, 0
5, 583440, Note_on_c, 0, 44, 54
5, 583680, Note_on_c, 0, 44, 0
5, 586560, Note_on_c, 0, 49, 93
5, 587280, Note_on_c, 0, 49, 0
5, 587280, Note_on_c, 0, 54, 80
5, 588000, Note_on_c, 0, 54, 0
5, 588960, Note_on_c, 0, 56, 54
5, 589200, Note_on_c, 0, 56, 0
5, 589200, Note_on_c, 0, 44, 54
5, 589440, Note_on_c, 0, 44, 0
5, 589440, Note_on_c, 0, 51, 80
5, 589440, Note_on_c, 0, 57, 80
5, 590160, Note_on_c, 0, 57, 0
5, 590160, Note_on_c, 0, 51, 0
5, 590160, Note_on_c, 0, 53, 54
5, 590160, Note_on_c, 0, 56, 54
5, 590880, Note_on_c, 0, 56, 0
5, 590880, Note_on_c, 0, 53, 0
5, 592320, Note_on_c, 0, 49, 80
5, 592320, Note_on_c, 0, 56, 80
5, 593040, Note_on_c, 0, 56, 0
5, 593040, Note_on_c, 0, 49, 0
5, 593040, Note_on_c, 0, 51, 54
5, 593040, Note_on_c, 0, 54, 54
5, 593760, Note_on_c, 0, 54, 0
5, 593760, Note_on_c, 0, 51, 0
5, 613920, Note_on_c, 0, 62, 106
5, 614160, Note_on_c, 0, 62, 0
5, 614160, Note_on_c, 0, 61, 106
5, 614400, Note_on_c, 0, 61, 0
5, 614400, Note_on_c, 0, 59, 106
5, 614640, Note_on_c, 0, 59, 0
5, 614640, Note_on_c, 0, 61, 106
5, 614880, Note_on_c, 0, 61, 0
5, 614880, Note_on_c, 0, 60, 93
5, 615120, Note_on_c, 0, 60, 0
5, 615120, Note_on_c, 0, 59, 80
5, 615360, Note_on_c, 0, 59, 0
5, 619680, Note_on_c, 0, 62, 106
5, 619920, Note_on_c, 0, 62, 0
5, 619920, Note_on_c, 0, 61, 106
5, 620160, Note_on_c, 0, 61, 0
5, 620160, Note_on_c, 0, 59, 106
5, 620400, Note_on_c, 0, 59, 0
5, 625440, Note_on_c, 0, 62, 106
5, 625680, Note_on_c, 0, 62, 0
5, 625680, Note_on_c, 0, 61, 106
5, 625920, Note_on_c, 0, 61, 0
5, 625920, Note_on_c, 0, 59, 106
5, 626160, Note_on_c, 0, 59, 0
5, 626160, Note_on_c, 0, 61, 106
5, 626400, Note_on_c, 0, 61, 0
5, 626400, Note_on_c, 0, 60, 93
5, 626640, Note_on_c, 0, 60, 0
5, 626640, Note_on_c, 0, 59, 80
5, 626880, Note_on_c, 0, 59, 0
5, 631200, Note_on_c, 0, 62, 106
5, 631440, Note_on_c, 0, 62, 0
5, 631440, Note_on_c, 0, 61, 106
5, 631680, Note_on_c, 0, 61, 0
5, 631680, Note_on_c, 0, 59, 106
5, 631920, Note_on_c, 0, 59, 0
5, 637200, Note_on_c, 0, 54, 80
5, 637680, Note_on_c, 0, 54, 0
5, 648720, Note_on_c, 0, 53, 80
5, 649200, Note_on_c, 0, 53, 0
5, 654480, Note_on_c, 0, 54, 80
5, 654960, Note_on_c, 0, 54, 0
5, 655680, Note_on_c, 0, 52, 93
5, 657120, Note_on_c, 0, 52, 0
5, 657120, Note_on_c, 0, 50, 93
5, 658560, Note_on_c, 0, 50, 0
5, 658560, Note_on_c, 0, 49, 67
5, 659280, Note_on_c, 0, 49, 0
5, 659280, Note_on_c, 0, 48, 67
5, 660000, Note_on_c, 0, 48, 0
5, 660000, Note_on_c, 0, 47, 80
5, 660720, Note_on_c, 0, 47, 0
5, 660720, Note_on_c, 0, 45, 80
5, 661440, Note_on_c, 0, 45, 0
5, 661440, Note_on_c, 0, 44, 93
5, 662160, Note_on_c, 0, 44, 0
5, 662160, Note_on_c, 0, 43, 93
5, 662880, Note_on_c, 0, 43, 0
5, 662880, Note_on_c, 0, 42, 93
5, 662880, Note_on_c, 0, 54, 93
5, 663600, Note_on_c, 0, 54, 0
5, 663600, Note_on_c, 0, 42, 0
5, 663600, Note_on_c, 0, 41, 93
5, 663600, Note_on_c, 0, 53, 93
5, 664320, Note_on_c, 0, 53, 0
5, 664320, Note_on_c, 0, 41, 0
5, 664320, Note_on_c, 0, 40, 93
5, 664320, Note_on_c, 0, 52, 93
5, 665040, Note_on_c, 0, 52, 0
5, 665040, Note_on_c, 0, 40, 0
5, 665040, Note_on_c, 0, 38, 93
5, 665040, Note_on_c, 0, 50, 93
5, 665760, Note_on_c, 0, 50, 0
5, 665760, Note_on_c, 0, 38, 0
5, 665760, Note_on_c, 0, 37, 93
5, 665760, Note_on_c, 0, 49, 93
5, 666480, Note_on_c, 0, 49, 0
5, 666480, Note_on_c, 0, 37, 0
5, 666480, Note_on_c, 0, 36, 93
5, 666480, Note_on_c, 0, 48, 93
5, 667200, Note_on_c, 0, 48, 0
5, 667200, Note_on_c, 0, 36, 0
5, 667200, End_track
0, 0, End_of_file
