0, 0, Header, 0, 1, 480
1, 0, Start_track
1, 0, Title_t, "Espana Op. 165"
1, 0, Title_t, "Serenata"
1, 0, Copyright_t, "Copyright © 2001 by Bernd Krueger"
1, 0, Text_t, "Isaac Albeniz"
1, 0, Text_t, "Allegretto"
1, 0, Text_t, "Fertiggestellt am 17.02.2001\012"
1, 0, Text_t, "Update am 31.8.2010\012"
1, 0, Text_t, "Dauer: 3:14 Minuten\012"
1, 0, SMPTE_offset, 96, 0, 3, 0, 0
1, 0, Time_signature, 3, 2, 24, 8
1, 0, Key_signature, -2, "major"
1, 0, Tempo, 540541
1, 0, Program_c, 0, 0
1, 0, Control_c, 0, 7, 100
1, 0, Control_c, 0, 10, 64
1, 0, Note_on_c, 0, 79, 60
1, 0, Text_t, "bdca426d104a26ac9dcb070447587523"
1, 0, Control_c, 0, 91, 127
1, 0, Control_c, 0, 64, 0
1, 0, Program_c, 0, 0
1, 0, Control_c, 0, 7, 100
1, 0, Control_c, 0, 10, 64
1, 120, Note_on_c, 0, 79, 0
1, 240, Tempo, 530973
1, 240, Note_on_c, 0, 74, 57
1, 240, Note_on_c, 0, 71, 53
1, 360, Note_on_c, 0, 71, 0
1, 360, Note_on_c, 0, 74, 0
1, 480, Note_on_c, 0, 75, 60
1, 480, Note_on_c, 0, 72, 57
1, 600, Note_on_c, 0, 72, 0
1, 600, Note_on_c, 0, 75, 0
1, 720, Note_on_c, 0, 79, 57
1, 720, Note_on_c, 0, 69, 54
1, 840, Note_on_c, 0, 69, 0
1, 840, Note_on_c, 0, 79, 0
1, 960, Note_on_c, 0, 78, 64
1, 960, Note_on_c, 0, 74, 57
1, 1080, Note_on_c, 0, 74, 0
1, 1080, Note_on_c, 0, 78, 0
1, 1200, Note_on_c, 0, 81, 59
1, 1200, Note_on_c, 0, 72, 53
1, 1320, Note_on_c, 0, 72, 0
1, 1320, Note_on_c, 0, 81, 0
1, 1440, Tempo, 521739
1, 1440, Note_on_c, 0, 79, 64
1, 1440, Note_on_c, 0, 70, 57
1, 1520, Note_on_c, 0, 79, 0
1, 1520, Note_on_c, 0, 81, 54
1, 1560, Note_on_c, 0, 70, 0
1, 1600, Note_on_c, 0, 81, 0
1, 1600, Note_on_c, 0, 79, 54
1, 1680, Tempo, 524017
1, 1680, Note_on_c, 0, 79, 0
1, 1680, Note_on_c, 0, 78, 58
1, 1680, Note_on_c, 0, 69, 54
1, 1800, Note_on_c, 0, 69, 0
1, 1800, Note_on_c, 0, 78, 0
1, 1920, Tempo, 521739
1, 1920, Note_on_c, 0, 79, 63
1, 1920, Note_on_c, 0, 70, 57
1, 2040, Note_on_c, 0, 70, 0
1, 2040, Note_on_c, 0, 79, 0
1, 2160, Tempo, 528634
1, 2160, Note_on_c, 0, 82, 60
1, 2160, Note_on_c, 0, 67, 54
1, 2280, Note_on_c, 0, 67, 0
1, 2280, Note_on_c, 0, 82, 0
1, 2400, Note_on_c, 0, 81, 63
1, 2400, Note_on_c, 0, 74, 63
1, 2400, Note_on_c, 0, 66, 57
1, 2520, Note_on_c, 0, 66, 0
1, 2520, Note_on_c, 0, 74, 0
1, 2520, Note_on_c, 0, 81, 0
1, 2640, Note_on_c, 0, 84, 60
1, 2640, Note_on_c, 0, 62, 55
1, 2760, Note_on_c, 0, 62, 0
1, 2760, Note_on_c, 0, 84, 0
1, 2880, Tempo, 519481
1, 2880, Note_on_c, 0, 82, 64
1, 2880, Note_on_c, 0, 67, 57
1, 3000, Note_on_c, 0, 67, 0
1, 3000, Note_on_c, 0, 82, 0
1, 3120, Tempo, 521739
1, 3120, Note_on_c, 0, 89, 63
1, 3120, Note_on_c, 0, 80, 63
1, 3120, Note_on_c, 0, 86, 63
1, 3120, Note_on_c, 0, 71, 52
1, 3240, Note_on_c, 0, 71, 0
1, 3240, Note_on_c, 0, 89, 0
1, 3240, Note_on_c, 0, 80, 0
1, 3240, Note_on_c, 0, 86, 0
1, 3360, Tempo, 530833
1, 3360, Note_on_c, 0, 88, 61
1, 3360, Note_on_c, 0, 79, 61
1, 3360, Note_on_c, 0, 84, 61
1, 3360, Note_on_c, 0, 72, 55
1, 3480, Note_on_c, 0, 72, 0
1, 3480, Note_on_c, 0, 88, 0
1, 3480, Note_on_c, 0, 79, 0
1, 3480, Note_on_c, 0, 84, 0
1, 3580, Tempo, 526085
1, 3600, Note_on_c, 0, 78, 60
1, 3600, Note_on_c, 0, 87, 60
1, 3600, Note_on_c, 0, 84, 60
1, 3600, Note_on_c, 0, 69, 52
1, 3720, Note_on_c, 0, 69, 0
1, 3720, Note_on_c, 0, 78, 0
1, 3720, Note_on_c, 0, 87, 0
1, 3720, Note_on_c, 0, 84, 0
1, 3800, Tempo, 528448
1, 3840, Note_on_c, 0, 79, 58
1, 3840, Note_on_c, 0, 86, 58
1, 3840, Note_on_c, 0, 70, 55
1, 3960, Note_on_c, 0, 70, 0
1, 3960, Note_on_c, 0, 86, 0
1, 3960, Note_on_c, 0, 79, 0
1, 4020, Tempo, 530833
1, 4080, Tempo, 548196
1, 4080, Note_on_c, 0, 74, 57
1, 4080, Note_on_c, 0, 81, 57
1, 4080, Note_on_c, 0, 84, 57
1, 4080, Note_on_c, 0, 66, 53
1, 4200, Note_on_c, 0, 66, 0
1, 4200, Note_on_c, 0, 74, 0
1, 4200, Note_on_c, 0, 81, 0
1, 4200, Note_on_c, 0, 84, 0
1, 4260, Tempo, 535714
1, 4320, Note_on_c, 0, 79, 59
1, 4320, Note_on_c, 0, 74, 59
1, 4320, Note_on_c, 0, 82, 65
1, 4320, Note_on_c, 0, 67, 57
1, 4331, Control_c, 0, 64, 127
1, 4560, Note_on_c, 0, 67, 0
1, 4560, Note_on_c, 0, 79, 0
1, 4560, Note_on_c, 0, 74, 0
1, 4560, Note_on_c, 0, 82, 0
1, 4560, Note_on_c, 0, 71, 60
1, 4560, Note_on_c, 0, 80, 60
1, 4560, Note_on_c, 0, 65, 52
1, 4800, Tempo, 535714
1, 4800, Note_on_c, 0, 65, 0
1, 4800, Note_on_c, 0, 80, 0
1, 4800, Note_on_c, 0, 71, 0
1, 4800, Note_on_c, 0, 79, 57
1, 4800, Note_on_c, 0, 72, 57
1, 4800, Note_on_c, 0, 64, 54
1, 4812, Control_c, 0, 64, 0
1, 4900, Tempo, 538165
1, 4926, Control_c, 0, 64, 127
1, 5000, Tempo, 540638
1, 5040, Note_on_c, 0, 64, 0
1, 5040, Note_on_c, 0, 72, 0
1, 5040, Note_on_c, 0, 73, 60
1, 5040, Note_on_c, 0, 63, 57
1, 5080, Tempo, 543134
1, 5180, Tempo, 545653
1, 5260, Tempo, 548196
1, 5280, Note_on_c, 0, 63, 0
1, 5280, Note_on_c, 0, 73, 0
1, 5280, Note_on_c, 0, 74, 62
1, 5280, Note_on_c, 0, 62, 58
1, 5314, Control_c, 0, 64, 0
1, 5406, Control_c, 0, 64, 127
1, 5520, Tempo, 572301
1, 5520, Note_on_c, 0, 62, 0
1, 5520, Note_on_c, 0, 74, 0
1, 5520, Note_on_c, 0, 79, 0
1, 5520, Note_on_c, 0, 79, 67
1, 5520, Note_on_c, 0, 75, 67
1, 5520, Note_on_c, 0, 82, 67
1, 5520, Note_on_c, 0, 61, 61
1, 5760, Tempo, 558659
1, 5760, Note_on_c, 0, 61, 0
1, 5760, Note_on_c, 0, 79, 0
1, 5760, Note_on_c, 0, 75, 0
1, 5760, Note_on_c, 0, 82, 0
1, 5760, Note_on_c, 0, 79, 70
1, 5760, Note_on_c, 0, 70, 70
1, 5760, Note_on_c, 0, 74, 70
1, 5760, Note_on_c, 0, 82, 70
1, 5760, Note_on_c, 0, 38, 59
1, 5767, Control_c, 0, 64, 0
1, 5958, Control_c, 0, 64, 127
1, 6000, Note_on_c, 0, 38, 0
1, 6000, Note_on_c, 0, 62, 55
1, 6480, Note_on_c, 0, 62, 0
1, 6480, Note_on_c, 0, 62, 51
1, 6720, Tempo, 533286
1, 6720, Note_on_c, 0, 82, 0
1, 6720, Note_on_c, 0, 74, 0
1, 6720, Note_on_c, 0, 79, 0
1, 6720, Note_on_c, 0, 70, 0
1, 6720, Note_on_c, 0, 70, 67
1, 6720, Note_on_c, 0, 74, 67
1, 6960, Note_on_c, 0, 62, 0
1, 6960, Note_on_c, 0, 62, 51
1, 7200, Tempo, 521422
1, 7200, Note_on_c, 0, 74, 0
1, 7200, Note_on_c, 0, 70, 0
1, 7200, Note_on_c, 0, 72, 61
1, 7200, Note_on_c, 0, 69, 61
1, 7208, Control_c, 0, 64, 0
1, 7271, Control_c, 0, 64, 127
1, 7320, Note_on_c, 0, 69, 0
1, 7320, Note_on_c, 0, 72, 0
1, 7440, Tempo, 540638
1, 7440, Note_on_c, 0, 62, 0
1, 7440, Note_on_c, 0, 72, 64
1, 7440, Note_on_c, 0, 75, 64
1, 7440, Note_on_c, 0, 62, 55
1, 7560, Note_on_c, 0, 75, 0
1, 7560, Note_on_c, 0, 72, 0
1, 7680, Tempo, 528448
1, 7680, Note_on_c, 0, 77, 69
1, 7680, Note_on_c, 0, 81, 69
1, 7692, Control_c, 0, 64, 0
1, 7800, Control_c, 0, 64, 127
1, 7920, Note_on_c, 0, 81, 0
1, 7920, Note_on_c, 0, 77, 0
1, 7920, Note_on_c, 0, 62, 0
1, 7920, Note_on_c, 0, 62, 54
1, 8160, Tempo, 521422
1, 8160, Note_on_c, 0, 74, 70
1, 8160, Note_on_c, 0, 77, 70
1, 8280, Note_on_c, 0, 77, 0
1, 8280, Note_on_c, 0, 74, 0
1, 8400, Tempo, 543134
1, 8400, Note_on_c, 0, 62, 0
1, 8400, Note_on_c, 0, 70, 65
1, 8400, Note_on_c, 0, 74, 65
1, 8400, Note_on_c, 0, 62, 52
1, 8520, Note_on_c, 0, 74, 0
1, 8520, Note_on_c, 0, 70, 0
1, 8640, Tempo, 519121
1, 8640, Note_on_c, 0, 70, 68
1, 8640, Note_on_c, 0, 67, 68
1, 8760, Note_on_c, 0, 67, 0
1, 8760, Note_on_c, 0, 70, 0
1, 8880, Tempo, 528448
1, 8880, Note_on_c, 0, 62, 0
1, 8880, Note_on_c, 0, 79, 63
1, 8880, Note_on_c, 0, 75, 63
1, 8880, Note_on_c, 0, 62, 55
1, 8889, Control_c, 0, 64, 0
1, 8954, Control_c, 0, 64, 127
1, 9000, Note_on_c, 0, 75, 0
1, 9000, Note_on_c, 0, 79, 0
1, 9120, Tempo, 528448
1, 9120, Note_on_c, 0, 75, 67
1, 9120, Note_on_c, 0, 72, 67
1, 9240, Note_on_c, 0, 72, 0
1, 9240, Note_on_c, 0, 75, 0
1, 9360, Note_on_c, 0, 62, 0
1, 9360, Note_on_c, 0, 69, 63
1, 9360, Note_on_c, 0, 72, 63
1, 9360, Note_on_c, 0, 62, 51
1, 9480, Note_on_c, 0, 72, 0
1, 9480, Note_on_c, 0, 69, 0
1, 9600, Tempo, 519121
1, 9600, Note_on_c, 0, 69, 67
1, 9600, Note_on_c, 0, 66, 67
1, 9609, Control_c, 0, 64, 0
1, 9651, Control_c, 0, 64, 127
1, 9720, Note_on_c, 0, 66, 0
1, 9720, Note_on_c, 0, 69, 0
1, 9840, Tempo, 528448
1, 9840, Note_on_c, 0, 62, 0
1, 9840, Note_on_c, 0, 74, 64
1, 9840, Note_on_c, 0, 77, 64
1, 9840, Note_on_c, 0, 62, 51
1, 9960, Note_on_c, 0, 77, 0
1, 9960, Note_on_c, 0, 74, 0
1, 10080, Tempo, 530833
1, 10080, Note_on_c, 0, 70, 70
1, 10080, Note_on_c, 0, 74, 70
1, 10090, Control_c, 0, 64, 0
1, 10179, Control_c, 0, 64, 127
1, 10200, Note_on_c, 0, 74, 0
1, 10200, Note_on_c, 0, 70, 0
1, 10320, Tempo, 540638
1, 10320, Note_on_c, 0, 62, 0
1, 10320, Note_on_c, 0, 67, 66
1, 10320, Note_on_c, 0, 70, 66
1, 10320, Note_on_c, 0, 62, 51
1, 10440, Note_on_c, 0, 70, 0
1, 10440, Note_on_c, 0, 67, 0
1, 10560, Note_on_c, 0, 62, 0
1, 10560, Note_on_c, 0, 63, 69
1, 10560, Note_on_c, 0, 67, 69
1, 10560, Note_on_c, 0, 62, 46
1, 10572, Control_c, 0, 64, 0
1, 10631, Control_c, 0, 64, 127
1, 10800, Note_on_c, 0, 67, 0
1, 10800, Note_on_c, 0, 70, 63
1, 11040, Tempo, 533333
1, 11040, Note_on_c, 0, 70, 0
1, 11040, Note_on_c, 0, 62, 0
1, 11040, Note_on_c, 0, 63, 0
1, 11040, Note_on_c, 0, 66, 56
1, 11040, Note_on_c, 0, 69, 65
1, 11040, Note_on_c, 0, 60, 55
1, 11040, Note_on_c, 0, 50, 43
1, 11056, Control_c, 0, 64, 0
1, 11125, Control_c, 0, 64, 127
1, 11280, Tempo, 548196
1, 11280, Note_on_c, 0, 69, 0
1, 11280, Note_on_c, 0, 74, 56
1, 11520, Tempo, 533333
1, 11520, Note_on_c, 0, 74, 0
1, 11520, Note_on_c, 0, 50, 0
1, 11520, Note_on_c, 0, 60, 0
1, 11520, Note_on_c, 0, 66, 0
1, 11520, Note_on_c, 0, 74, 68
1, 11520, Note_on_c, 0, 47, 51
1, 11534, Control_c, 0, 64, 0
1, 11657, Control_c, 0, 64, 127
1, 12000, Tempo, 543134
1, 12000, Note_on_c, 0, 47, 0
1, 12000, Note_on_c, 0, 60, 39
1, 12000, Note_on_c, 0, 62, 29
1, 12000, Note_on_c, 0, 65, 29
1, 12000, Note_on_c, 0, 68, 29
1, 12018, Control_c, 0, 64, 0
1, 12275, Control_c, 0, 64, 127
1, 12480, Note_on_c, 0, 60, 0
1, 12480, Note_on_c, 0, 59, 36
1, 12960, Tempo, 533286
1, 12960, Note_on_c, 0, 59, 0
1, 12960, Note_on_c, 0, 68, 0
1, 12960, Note_on_c, 0, 74, 0
1, 12960, Note_on_c, 0, 62, 0
1, 12960, Note_on_c, 0, 65, 0
1, 12960, Note_on_c, 0, 48, 51
1, 12975, Control_c, 0, 64, 0
1, 13013, Control_c, 0, 64, 127
1, 13200, Tempo, 523743
1, 13200, Note_on_c, 0, 72, 64
1, 13280, Note_on_c, 0, 72, 0
1, 13280, Note_on_c, 0, 74, 61
1, 13360, Note_on_c, 0, 74, 0
1, 13360, Note_on_c, 0, 72, 61
1, 13440, Note_on_c, 0, 72, 0
1, 13440, Note_on_c, 0, 48, 0
1, 13440, Note_on_c, 0, 71, 64
1, 13440, Note_on_c, 0, 67, 45
1, 13440, Note_on_c, 0, 63, 45
1, 13440, Note_on_c, 0, 57, 45
1, 13456, Control_c, 0, 64, 0
1, 13528, Control_c, 0, 64, 127
1, 13680, Tempo, 533286
1, 13680, Note_on_c, 0, 71, 0
1, 13680, Note_on_c, 0, 72, 61
1, 13920, Note_on_c, 0, 72, 0
1, 13920, Note_on_c, 0, 74, 64
1, 14160, Tempo, 540638
1, 14160, Note_on_c, 0, 74, 0
1, 14160, Note_on_c, 0, 75, 62
1, 14400, Tempo, 533286
1, 14400, Note_on_c, 0, 75, 0
1, 14400, Note_on_c, 0, 57, 0
1, 14400, Note_on_c, 0, 63, 0
1, 14400, Note_on_c, 0, 67, 0
1, 14400, Note_on_c, 0, 70, 61
1, 14400, Note_on_c, 0, 67, 61
1, 14400, Note_on_c, 0, 38, 51
1, 14409, Control_c, 0, 64, 0
1, 14583, Control_c, 0, 64, 127
1, 14640, Tempo, 524017
1, 14640, Note_on_c, 0, 67, 0
1, 14640, Note_on_c, 0, 70, 0
1, 14640, Note_on_c, 0, 72, 63
1, 14880, Tempo, 521739
1, 14880, Note_on_c, 0, 72, 0
1, 14880, Note_on_c, 0, 73, 66
1, 15120, Tempo, 533333
1, 15120, Note_on_c, 0, 73, 0
1, 15120, Note_on_c, 0, 74, 69
1, 15360, Tempo, 528634
1, 15360, Note_on_c, 0, 74, 0
1, 15360, Note_on_c, 0, 38, 0
1, 15360, Note_on_c, 0, 79, 70
1, 15360, Note_on_c, 0, 62, 44
1, 15374, Control_c, 0, 64, 0
1, 15497, Control_c, 0, 64, 127
1, 15600, Tempo, 535714
1, 15600, Note_on_c, 0, 62, 0
1, 15600, Note_on_c, 0, 79, 0
1, 15600, Note_on_c, 0, 74, 66
1, 15840, Note_on_c, 0, 74, 0
1, 15840, Note_on_c, 0, 70, 68
1, 15840, Note_on_c, 0, 66, 68
1, 15840, Note_on_c, 0, 60, 51
1, 15840, Note_on_c, 0, 50, 51
1, 15855, Control_c, 0, 64, 0
1, 15900, Control_c, 0, 64, 127
1, 16080, Note_on_c, 0, 60, 0
1, 16080, Note_on_c, 0, 61, 44
1, 16320, Note_on_c, 0, 61, 0
1, 16320, Note_on_c, 0, 62, 51
1, 16560, Tempo, 545653
1, 16560, Note_on_c, 0, 62, 0
1, 16560, Note_on_c, 0, 61, 51
1, 16640, Note_on_c, 0, 61, 0
1, 16640, Note_on_c, 0, 62, 45
1, 16720, Note_on_c, 0, 62, 0
1, 16720, Note_on_c, 0, 61, 45
1, 16800, Note_on_c, 0, 61, 0
1, 16800, Note_on_c, 0, 70, 0
1, 16800, Note_on_c, 0, 66, 0
1, 16800, Note_on_c, 0, 69, 68
1, 16800, Note_on_c, 0, 60, 51
1, 16815, Control_c, 0, 64, 0
1, 16867, Control_c, 0, 64, 127
1, 17040, Note_on_c, 0, 60, 0
1, 17040, Note_on_c, 0, 50, 0
1, 17040, Note_on_c, 0, 50, 44
1, 17220, Tempo, 526085
1, 17220, Note_on_c, 0, 69, 0
1, 17220, Note_on_c, 0, 67, 55
1, 17250, Note_on_c, 0, 74, 56
1, 17280, Tempo, 540541
1, 17280, Note_on_c, 0, 50, 0
1, 17280, Note_on_c, 0, 79, 60
1, 17280, Control_c, 0, 64, 0
1, 17280, Note_on_c, 0, 43, 44
1, 17280, Note_on_c, 0, 50, 44
1, 17280, Note_on_c, 0, 58, 44
1, 17520, Tempo, 528634
1, 17520, Note_on_c, 0, 58, 0
1, 17520, Note_on_c, 0, 74, 0
1, 17520, Note_on_c, 0, 79, 0
1, 17520, Note_on_c, 0, 67, 0
1, 17520, Note_on_c, 0, 50, 0
1, 17520, Note_on_c, 0, 43, 0
1, 17520, Note_on_c, 0, 74, 57
1, 17520, Note_on_c, 0, 71, 53
1, 17640, Note_on_c, 0, 71, 0
1, 17640, Note_on_c, 0, 74, 0
1, 17760, Note_on_c, 0, 75, 60
1, 17760, Note_on_c, 0, 72, 57
1, 17880, Note_on_c, 0, 72, 0
1, 17880, Note_on_c, 0, 75, 0
1, 18000, Note_on_c, 0, 79, 57
1, 18000, Note_on_c, 0, 69, 54
1, 18120, Note_on_c, 0, 69, 0
1, 18120, Note_on_c, 0, 79, 0
1, 18240, Note_on_c, 0, 78, 64
1, 18240, Note_on_c, 0, 74, 57
1, 18360, Note_on_c, 0, 74, 0
1, 18360, Note_on_c, 0, 78, 0
1, 18480, Note_on_c, 0, 81, 59
1, 18480, Note_on_c, 0, 72, 53
1, 18600, Note_on_c, 0, 72, 0
1, 18600, Note_on_c, 0, 81, 0
1, 18720, Tempo, 519481
1, 18720, Note_on_c, 0, 79, 64
1, 18720, Note_on_c, 0, 70, 57
1, 18800, Note_on_c, 0, 79, 0
1, 18800, Note_on_c, 0, 81, 54
1, 18840, Note_on_c, 0, 70, 0
1, 18880, Note_on_c, 0, 81, 0
1, 18880, Note_on_c, 0, 79, 54
1, 18960, Tempo, 519481
1, 18960, Note_on_c, 0, 79, 0
1, 18960, Note_on_c, 0, 78, 59
1, 18960, Note_on_c, 0, 69, 55
1, 19080, Note_on_c, 0, 69, 0
1, 19080, Note_on_c, 0, 78, 0
1, 19200, Tempo, 528634
1, 19200, Note_on_c, 0, 79, 66
1, 19200, Note_on_c, 0, 70, 59
1, 19320, Note_on_c, 0, 70, 0
1, 19320, Note_on_c, 0, 79, 0
1, 19440, Tempo, 530973
1, 19440, Note_on_c, 0, 82, 64
1, 19440, Note_on_c, 0, 67, 57
1, 19560, Note_on_c, 0, 67, 0
1, 19560, Note_on_c, 0, 82, 0
1, 19680, Note_on_c, 0, 81, 69
1, 19680, Note_on_c, 0, 74, 61
1, 19680, Note_on_c, 0, 66, 62
1, 19800, Note_on_c, 0, 66, 0
1, 19800, Note_on_c, 0, 74, 0
1, 19800, Note_on_c, 0, 81, 0
1, 19920, Tempo, 543134
1, 19920, Note_on_c, 0, 86, 71
1, 19920, Note_on_c, 0, 62, 61
1, 20040, Note_on_c, 0, 62, 0
1, 20040, Note_on_c, 0, 86, 0
1, 20160, Tempo, 528448
1, 20160, Note_on_c, 0, 77, 68
1, 20160, Note_on_c, 0, 48, 51
1, 20183, Control_c, 0, 64, 127
1, 20640, Tempo, 538117
1, 20640, Note_on_c, 0, 48, 0
1, 20640, Note_on_c, 0, 66, 49
1, 20640, Note_on_c, 0, 60, 41
1, 20640, Note_on_c, 0, 63, 41
1, 20656, Control_c, 0, 64, 0
1, 20983, Control_c, 0, 64, 127
1, 21120, Tempo, 542986
1, 21120, Note_on_c, 0, 66, 0
1, 21120, Note_on_c, 0, 77, 0
1, 21120, Note_on_c, 0, 75, 68
1, 21120, Note_on_c, 0, 67, 54
1, 21600, Tempo, 528448
1, 21600, Note_on_c, 0, 67, 0
1, 21600, Note_on_c, 0, 63, 0
1, 21600, Note_on_c, 0, 60, 0
1, 21600, Note_on_c, 0, 75, 0
1, 21600, Note_on_c, 0, 74, 64
1, 21600, Note_on_c, 0, 41, 51
1, 21612, Control_c, 0, 64, 0
1, 21660, Control_c, 0, 64, 127
1, 21680, Note_on_c, 0, 74, 0
1, 21680, Note_on_c, 0, 75, 55
1, 21760, Note_on_c, 0, 75, 0
1, 21760, Note_on_c, 0, 74, 55
1, 21840, Tempo, 523743
1, 21840, Note_on_c, 0, 74, 0
1, 21840, Note_on_c, 0, 72, 59
1, 22080, Tempo, 528448
1, 22080, Note_on_c, 0, 72, 0
1, 22080, Note_on_c, 0, 41, 0
1, 22080, Note_on_c, 0, 71, 64
1, 22080, Note_on_c, 0, 68, 55
1, 22080, Note_on_c, 0, 60, 41
1, 22080, Note_on_c, 0, 63, 41
1, 22091, Control_c, 0, 64, 0
1, 22194, Control_c, 0, 64, 127
1, 22320, Tempo, 533286
1, 22320, Note_on_c, 0, 71, 0
1, 22320, Note_on_c, 0, 72, 58
1, 22560, Note_on_c, 0, 72, 0
1, 22560, Note_on_c, 0, 68, 0
1, 22560, Note_on_c, 0, 74, 64
1, 22560, Note_on_c, 0, 69, 56
1, 22800, Tempo, 540638
1, 22800, Note_on_c, 0, 74, 0
1, 22800, Note_on_c, 0, 75, 58
1, 23040, Tempo, 535714
1, 23040, Note_on_c, 0, 75, 0
1, 23040, Note_on_c, 0, 69, 0
1, 23040, Note_on_c, 0, 60, 0
1, 23040, Note_on_c, 0, 63, 0
1, 23040, Note_on_c, 0, 74, 69
1, 23040, Note_on_c, 0, 46, 57
1, 23055, Control_c, 0, 64, 0
1, 23246, Control_c, 0, 64, 127
1, 23280, Tempo, 523743
1, 23520, Note_on_c, 0, 46, 0
1, 23520, Note_on_c, 0, 61, 46
1, 23520, Note_on_c, 0, 69, 55
1, 23520, Note_on_c, 0, 66, 46
1, 23760, Tempo, 533286
1, 23760, Note_on_c, 0, 66, 0
1, 23760, Note_on_c, 0, 69, 0
1, 23760, Note_on_c, 0, 61, 0
1, 23760, Note_on_c, 0, 62, 51
1, 23760, Note_on_c, 0, 70, 60
1, 24000, Note_on_c, 0, 70, 0
1, 24000, Note_on_c, 0, 62, 0
1, 24000, Note_on_c, 0, 74, 0
1, 24000, Note_on_c, 0, 68, 47
1, 24000, Note_on_c, 0, 73, 59
1, 24000, Note_on_c, 0, 59, 55
1, 24014, Control_c, 0, 64, 0
1, 24172, Control_c, 0, 64, 127
1, 24240, Tempo, 540638
1, 24240, Note_on_c, 0, 73, 0
1, 24240, Note_on_c, 0, 74, 56
1, 24480, Tempo, 523743
1, 24480, Note_on_c, 0, 74, 0
1, 24480, Note_on_c, 0, 59, 0
1, 24480, Note_on_c, 0, 68, 0
1, 24480, Note_on_c, 0, 67, 46
1, 24480, Note_on_c, 0, 77, 59
1, 24480, Note_on_c, 0, 48, 60
1, 24488, Control_c, 0, 64, 0
1, 24606, Control_c, 0, 64, 127
1, 24720, Note_on_c, 0, 77, 0
1, 24720, Note_on_c, 0, 75, 57
1, 24960, Tempo, 523743
1, 24960, Note_on_c, 0, 75, 0
1, 24960, Note_on_c, 0, 48, 0
1, 24960, Note_on_c, 0, 74, 64
1, 24960, Note_on_c, 0, 59, 49
1, 24972, Control_c, 0, 64, 0
1, 25109, Control_c, 0, 64, 127
1, 25160, Tempo, 526085
1, 25200, Note_on_c, 0, 59, 0
1, 25200, Note_on_c, 0, 74, 0
1, 25200, Note_on_c, 0, 75, 61
1, 25200, Note_on_c, 0, 60, 52
1, 25320, Tempo, 528448
1, 25440, Note_on_c, 0, 60, 0
1, 25440, Note_on_c, 0, 75, 0
1, 25440, Note_on_c, 0, 72, 69
1, 25440, Note_on_c, 0, 62, 55
1, 25520, Tempo, 530833
1, 25680, Tempo, 533286
1, 25680, Note_on_c, 0, 62, 0
1, 25680, Note_on_c, 0, 72, 0
1, 25680, Note_on_c, 0, 67, 66
1, 25680, Note_on_c, 0, 63, 57
1, 25840, Tempo, 535714
1, 25920, Note_on_c, 0, 63, 0
1, 25920, Note_on_c, 0, 67, 0
1, 25920, Note_on_c, 0, 67, 0
1, 25920, Note_on_c, 0, 70, 64
1, 25920, Note_on_c, 0, 65, 63
1, 25920, Note_on_c, 0, 74, 70
1, 25920, Control_c, 0, 64, 0
1, 25920, Note_on_c, 0, 41, 63
1, 26160, Tempo, 533286
1, 26160, Note_on_c, 0, 41, 0
1, 26160, Note_on_c, 0, 70, 0
1, 26160, Note_on_c, 0, 65, 0
1, 26160, Note_on_c, 0, 74, 0
1, 26160, Note_on_c, 0, 77, 57
1, 26160, Note_on_c, 0, 74, 53
1, 26280, Note_on_c, 0, 74, 0
1, 26280, Note_on_c, 0, 77, 0
1, 26400, Note_on_c, 0, 78, 60
1, 26400, Note_on_c, 0, 75, 57
1, 26520, Note_on_c, 0, 75, 0
1, 26520, Note_on_c, 0, 78, 0
1, 26640, Note_on_c, 0, 82, 57
1, 26640, Note_on_c, 0, 72, 54
1, 26760, Note_on_c, 0, 72, 0
1, 26760, Note_on_c, 0, 82, 0
1, 26880, Note_on_c, 0, 81, 64
1, 26880, Note_on_c, 0, 77, 57
1, 27000, Note_on_c, 0, 77, 0
1, 27000, Note_on_c, 0, 81, 0
1, 27120, Note_on_c, 0, 84, 59
1, 27120, Note_on_c, 0, 75, 53
1, 27240, Note_on_c, 0, 75, 0
1, 27240, Note_on_c, 0, 84, 0
1, 27360, Tempo, 514536
1, 27360, Note_on_c, 0, 82, 64
1, 27360, Note_on_c, 0, 74, 57
1, 27440, Note_on_c, 0, 82, 0
1, 27440, Note_on_c, 0, 84, 54
1, 27480, Note_on_c, 0, 74, 0
1, 27520, Note_on_c, 0, 84, 0
1, 27520, Note_on_c, 0, 82, 54
1, 27600, Note_on_c, 0, 82, 0
1, 27600, Note_on_c, 0, 81, 58
1, 27600, Note_on_c, 0, 73, 54
1, 27720, Note_on_c, 0, 73, 0
1, 27720, Note_on_c, 0, 81, 0
1, 27840, Tempo, 533286
1, 27840, Note_on_c, 0, 82, 63
1, 27840, Note_on_c, 0, 74, 57
1, 27960, Note_on_c, 0, 74, 0
1, 27960, Note_on_c, 0, 82, 0
1, 28080, Note_on_c, 0, 86, 63
1, 28080, Note_on_c, 0, 70, 53
1, 28200, Note_on_c, 0, 70, 0
1, 28200, Note_on_c, 0, 86, 0
1, 28320, Tempo, 528448
1, 28320, Note_on_c, 0, 84, 63
1, 28320, Note_on_c, 0, 77, 58
1, 28320, Note_on_c, 0, 69, 55
1, 28440, Note_on_c, 0, 69, 0
1, 28440, Note_on_c, 0, 77, 0
1, 28440, Note_on_c, 0, 84, 0
1, 28560, Tempo, 540638
1, 28560, Note_on_c, 0, 89, 60
1, 28560, Note_on_c, 0, 65, 51
1, 28680, Note_on_c, 0, 65, 0
1, 28680, Note_on_c, 0, 89, 0
1, 28800, Tempo, 533286
1, 28800, Note_on_c, 0, 46, 51
1, 28853, Control_c, 0, 64, 127
1, 29040, Tempo, 523743
1, 29040, Note_on_c, 0, 70, 64
1, 29280, Note_on_c, 0, 70, 0
1, 29280, Note_on_c, 0, 46, 0
1, 29280, Note_on_c, 0, 72, 64
1, 29280, Note_on_c, 0, 62, 45
1, 29280, Note_on_c, 0, 53, 45
1, 29294, Control_c, 0, 64, 0
1, 29520, Tempo, 533286
1, 29520, Note_on_c, 0, 72, 0
1, 29520, Note_on_c, 0, 74, 61
1, 29548, Control_c, 0, 64, 127
1, 29760, Note_on_c, 0, 74, 0
1, 29760, Note_on_c, 0, 77, 64
1, 30000, Tempo, 540638
1, 30000, Note_on_c, 0, 77, 0
1, 30000, Note_on_c, 0, 75, 62
1, 30240, Tempo, 533286
1, 30240, Note_on_c, 0, 75, 0
1, 30240, Note_on_c, 0, 53, 0
1, 30240, Note_on_c, 0, 62, 0
1, 30240, Note_on_c, 0, 74, 61
1, 30240, Note_on_c, 0, 46, 48
1, 30250, Control_c, 0, 64, 0
1, 30286, Control_c, 0, 64, 127
1, 30320, Note_on_c, 0, 74, 0
1, 30320, Note_on_c, 0, 75, 56
1, 30400, Note_on_c, 0, 75, 0
1, 30400, Note_on_c, 0, 74, 55
1, 30480, Note_on_c, 0, 74, 0
1, 30480, Note_on_c, 0, 71, 59
1, 30720, Note_on_c, 0, 71, 0
1, 30720, Note_on_c, 0, 46, 0
1, 30720, Note_on_c, 0, 70, 63
1, 30720, Note_on_c, 0, 63, 44
1, 30720, Note_on_c, 0, 59, 37
1, 30720, Note_on_c, 0, 54, 37
1, 30734, Control_c, 0, 64, 0
1, 30801, Control_c, 0, 64, 127
1, 30960, Tempo, 540638
1, 30960, Note_on_c, 0, 70, 0
1, 30960, Note_on_c, 0, 68, 57
1, 31200, Tempo, 535714
1, 31200, Note_on_c, 0, 68, 0
1, 31200, Note_on_c, 0, 66, 65
1, 31440, Note_on_c, 0, 66, 0
1, 31440, Note_on_c, 0, 70, 58
1, 31620, Note_on_c, 0, 70, 0
1, 31620, Note_on_c, 0, 70, 60
1, 31680, Note_on_c, 0, 70, 0
1, 31680, Note_on_c, 0, 63, 0
1, 31680, Note_on_c, 0, 59, 0
1, 31680, Note_on_c, 0, 54, 0
1, 31680, Note_on_c, 0, 65, 65
1, 31680, Note_on_c, 0, 46, 52
1, 31688, Control_c, 0, 64, 0
1, 31901, Control_c, 0, 64, 127
1, 31920, Tempo, 523743
1, 31920, Note_on_c, 0, 46, 0
1, 31920, Note_on_c, 0, 58, 52
1, 32160, Note_on_c, 0, 58, 0
1, 32160, Note_on_c, 0, 60, 54
1, 32400, Tempo, 530833
1, 32400, Note_on_c, 0, 60, 0
1, 32400, Note_on_c, 0, 62, 51
1, 32640, Note_on_c, 0, 62, 0
1, 32640, Note_on_c, 0, 65, 0
1, 32640, Note_on_c, 0, 68, 56
1, 32640, Note_on_c, 0, 70, 56
1, 32640, Note_on_c, 0, 65, 55
1, 32659, Control_c, 0, 64, 0
1, 32809, Control_c, 0, 64, 127
1, 32880, Tempo, 540638
1, 32880, Note_on_c, 0, 65, 0
1, 32880, Note_on_c, 0, 62, 53
1, 33120, Tempo, 526085
1, 33120, Note_on_c, 0, 62, 0
1, 33120, Note_on_c, 0, 70, 0
1, 33120, Note_on_c, 0, 68, 0
1, 33120, Note_on_c, 0, 70, 57
1, 33120, Note_on_c, 0, 66, 41
1, 33120, Note_on_c, 0, 63, 48
1, 33132, Control_c, 0, 64, 0
1, 33180, Control_c, 0, 64, 127
1, 33200, Note_on_c, 0, 63, 0
1, 33200, Note_on_c, 0, 65, 42
1, 33280, Note_on_c, 0, 65, 0
1, 33280, Note_on_c, 0, 63, 42
1, 33360, Note_on_c, 0, 63, 0
1, 33360, Note_on_c, 0, 62, 46
1, 33600, Tempo, 530833
1, 33600, Note_on_c, 0, 62, 0
1, 33600, Note_on_c, 0, 63, 55
1, 33800, Tempo, 533286
1, 33840, Note_on_c, 0, 63, 0
1, 33840, Note_on_c, 0, 65, 57
1, 34000, Tempo, 535714
1, 34080, Note_on_c, 0, 65, 0
1, 34080, Note_on_c, 0, 66, 0
1, 34080, Note_on_c, 0, 70, 0
1, 34080, Note_on_c, 0, 69, 67
1, 34080, Note_on_c, 0, 66, 61
1, 34092, Control_c, 0, 64, 0
1, 34154, Control_c, 0, 64, 127
1, 34160, Tempo, 538165
1, 34320, Note_on_c, 0, 69, 0
1, 34320, Note_on_c, 0, 75, 64
1, 34360, Tempo, 540638
1, 34520, Tempo, 543134
1, 34560, Tempo, 533286
1, 34560, Note_on_c, 0, 75, 0
1, 34560, Note_on_c, 0, 66, 0
1, 34560, Note_on_c, 0, 46, 51
1, 34571, Control_c, 0, 64, 0
1, 34732, Control_c, 0, 64, 127
1, 34800, Tempo, 523743
1, 34800, Note_on_c, 0, 70, 64
1, 35040, Note_on_c, 0, 70, 0
1, 35040, Note_on_c, 0, 46, 0
1, 35040, Note_on_c, 0, 71, 64
1, 35040, Note_on_c, 0, 56, 37
1, 35040, Note_on_c, 0, 68, 45
1, 35040, Note_on_c, 0, 62, 45
1, 35056, Control_c, 0, 64, 0
1, 35269, Control_c, 0, 64, 127
1, 35280, Tempo, 533286
1, 35280, Note_on_c, 0, 71, 0
1, 35280, Note_on_c, 0, 74, 61
1, 35520, Note_on_c, 0, 74, 0
1, 35520, Note_on_c, 0, 56, 0
1, 35520, Note_on_c, 0, 77, 67
1, 35520, Note_on_c, 0, 59, 37
1, 35760, Tempo, 540638
1, 35760, Note_on_c, 0, 77, 0
1, 35760, Note_on_c, 0, 78, 67
1, 36000, Tempo, 533286
1, 36000, Note_on_c, 0, 78, 0
1, 36000, Note_on_c, 0, 59, 0
1, 36000, Note_on_c, 0, 68, 0
1, 36000, Note_on_c, 0, 62, 0
1, 36000, Note_on_c, 0, 77, 61
1, 36000, Note_on_c, 0, 70, 41
1, 36000, Control_c, 0, 64, 0
1, 36000, Note_on_c, 0, 46, 48
1, 36046, Control_c, 0, 64, 127
1, 36080, Note_on_c, 0, 77, 0
1, 36080, Note_on_c, 0, 78, 51
1, 36160, Note_on_c, 0, 78, 0
1, 36160, Note_on_c, 0, 77, 51
1, 36240, Note_on_c, 0, 77, 0
1, 36240, Note_on_c, 0, 70, 0
1, 36240, Note_on_c, 0, 75, 54
1, 36480, Note_on_c, 0, 75, 0
1, 36480, Note_on_c, 0, 46, 0
1, 36480, Note_on_c, 0, 71, 65
1, 36480, Note_on_c, 0, 66, 44
1, 36480, Note_on_c, 0, 58, 37
1, 36494, Control_c, 0, 64, 0
1, 36549, Control_c, 0, 64, 127
1, 36720, Tempo, 540638
1, 36720, Note_on_c, 0, 71, 0
1, 36720, Note_on_c, 0, 70, 58
1, 36960, Tempo, 535714
1, 36960, Note_on_c, 0, 70, 0
1, 36960, Note_on_c, 0, 66, 65
1, 37200, Note_on_c, 0, 66, 0
1, 37200, Note_on_c, 0, 70, 58
1, 37380, Note_on_c, 0, 70, 0
1, 37380, Note_on_c, 0, 70, 60
1, 37440, Tempo, 586568
1, 37440, Note_on_c, 0, 70, 0
1, 37440, Note_on_c, 0, 58, 0
1, 37440, Note_on_c, 0, 66, 0
1, 37440, Note_on_c, 0, 65, 63
1, 37440, Note_on_c, 0, 46, 57
1, 37450, Control_c, 0, 64, 0
1, 37596, Control_c, 0, 64, 127
1, 37680, Tempo, 523743
1, 37680, Note_on_c, 0, 46, 0
1, 37680, Note_on_c, 0, 58, 55
1, 37920, Note_on_c, 0, 58, 0
1, 37920, Note_on_c, 0, 60, 57
1, 38160, Tempo, 530833
1, 38160, Note_on_c, 0, 60, 0
1, 38160, Note_on_c, 0, 62, 54
1, 38400, Note_on_c, 0, 62, 0
1, 38400, Note_on_c, 0, 65, 0
1, 38400, Note_on_c, 0, 68, 56
1, 38400, Note_on_c, 0, 70, 56
1, 38400, Note_on_c, 0, 65, 58
1, 38410, Control_c, 0, 64, 0
1, 38556, Control_c, 0, 64, 127
1, 38640, Tempo, 540638
1, 38640, Note_on_c, 0, 65, 0
1, 38640, Note_on_c, 0, 62, 55
1, 38880, Tempo, 526085
1, 38880, Note_on_c, 0, 62, 0
1, 38880, Note_on_c, 0, 70, 0
1, 38880, Note_on_c, 0, 68, 0
1, 38880, Note_on_c, 0, 66, 48
1, 38880, Note_on_c, 0, 70, 65
1, 38880, Note_on_c, 0, 63, 52
1, 38891, Control_c, 0, 64, 0
1, 38933, Control_c, 0, 64, 127
1, 38960, Note_on_c, 0, 63, 0
1, 38960, Note_on_c, 0, 65, 44
1, 39040, Note_on_c, 0, 65, 0
1, 39040, Note_on_c, 0, 63, 44
1, 39120, Note_on_c, 0, 63, 0
1, 39120, Note_on_c, 0, 62, 49
1, 39360, Tempo, 530833
1, 39360, Note_on_c, 0, 62, 0
1, 39360, Note_on_c, 0, 63, 58
1, 39560, Tempo, 533286
1, 39600, Note_on_c, 0, 63, 0
1, 39600, Note_on_c, 0, 65, 61
1, 39760, Tempo, 535714
1, 39838, Note_on_c, 0, 66, 0
1, 39840, Note_on_c, 0, 65, 0
1, 39840, Note_on_c, 0, 70, 0
1, 39840, Note_on_c, 0, 69, 67
1, 39840, Note_on_c, 0, 66, 65
1, 39853, Control_c, 0, 64, 0
1, 39920, Tempo, 538165
1, 39936, Control_c, 0, 64, 127
1, 40080, Note_on_c, 0, 69, 0
1, 40080, Note_on_c, 0, 75, 64
1, 40120, Tempo, 540638
1, 40280, Tempo, 543134
1, 40320, Note_on_c, 0, 75, 0
1, 40320, Note_on_c, 0, 66, 0
1, 40320, Note_on_c, 0, 74, 64
1, 40320, Note_on_c, 0, 46, 58
1, 40331, Control_c, 0, 64, 0
1, 40663, Control_c, 0, 64, 127
1, 40800, Note_on_c, 0, 46, 0
1, 40800, Note_on_c, 0, 64, 49
1, 40800, Note_on_c, 0, 62, 41
1, 40800, Note_on_c, 0, 58, 41
1, 41280, Note_on_c, 0, 64, 0
1, 41280, Note_on_c, 0, 74, 0
1, 41280, Note_on_c, 0, 65, 46
1, 41760, Tempo, 533286
1, 41760, Note_on_c, 0, 65, 0
1, 41760, Note_on_c, 0, 62, 0
1, 41760, Note_on_c, 0, 58, 0
1, 41760, Note_on_c, 0, 48, 51
1, 41771, Control_c, 0, 64, 0
1, 41852, Control_c, 0, 64, 127
1, 42000, Tempo, 523743
1, 42000, Note_on_c, 0, 72, 64
1, 42080, Note_on_c, 0, 72, 0
1, 42080, Note_on_c, 0, 74, 54
1, 42160, Note_on_c, 0, 74, 0
1, 42160, Note_on_c, 0, 72, 54
1, 42240, Note_on_c, 0, 72, 0
1, 42240, Note_on_c, 0, 48, 0
1, 42240, Note_on_c, 0, 71, 58
1, 42240, Note_on_c, 0, 70, 38
1, 42240, Note_on_c, 0, 67, 38
1, 42240, Note_on_c, 0, 63, 38
1, 42240, Note_on_c, 0, 60, 38
1, 42256, Control_c, 0, 64, 0
1, 42328, Control_c, 0, 64, 127
1, 42480, Tempo, 533286
1, 42480, Note_on_c, 0, 71, 0
1, 42480, Note_on_c, 0, 72, 61
1, 42720, Note_on_c, 0, 72, 0
1, 42720, Note_on_c, 0, 70, 0
1, 42720, Note_on_c, 0, 74, 64
1, 42720, Note_on_c, 0, 69, 45
1, 42960, Tempo, 540638
1, 42960, Note_on_c, 0, 74, 0
1, 42960, Note_on_c, 0, 75, 62
1, 43200, Tempo, 526316
1, 43200, Note_on_c, 0, 75, 0
1, 43200, Note_on_c, 0, 69, 0
1, 43200, Note_on_c, 0, 60, 0
1, 43200, Note_on_c, 0, 67, 0
1, 43200, Note_on_c, 0, 63, 0
1, 43200, Note_on_c, 0, 67, 61
1, 43200, Note_on_c, 0, 70, 61
1, 43200, Note_on_c, 0, 38, 51
1, 43212, Control_c, 0, 64, 0
1, 43395, Control_c, 0, 64, 127
1, 43440, Note_on_c, 0, 70, 0
1, 43440, Note_on_c, 0, 67, 0
1, 43440, Note_on_c, 0, 72, 63
1, 43680, Tempo, 519481
1, 43680, Note_on_c, 0, 72, 0
1, 43680, Note_on_c, 0, 73, 66
1, 43920, Tempo, 530973
1, 43920, Note_on_c, 0, 73, 0
1, 43920, Note_on_c, 0, 74, 69
1, 44160, Tempo, 524017
1, 44160, Note_on_c, 0, 74, 0
1, 44160, Note_on_c, 0, 38, 0
1, 44160, Note_on_c, 0, 79, 70
1, 44160, Note_on_c, 0, 62, 44
1, 44175, Control_c, 0, 64, 0
1, 44297, Control_c, 0, 64, 127
1, 44400, Tempo, 535714
1, 44400, Note_on_c, 0, 62, 0
1, 44400, Note_on_c, 0, 79, 0
1, 44400, Note_on_c, 0, 74, 66
1, 44640, Note_on_c, 0, 74, 0
1, 44640, Note_on_c, 0, 70, 68
1, 44640, Note_on_c, 0, 66, 59
1, 44640, Note_on_c, 0, 60, 51
1, 44640, Note_on_c, 0, 50, 48
1, 44651, Control_c, 0, 64, 0
1, 44714, Control_c, 0, 64, 127
1, 44880, Note_on_c, 0, 60, 0
1, 44880, Note_on_c, 0, 61, 44
1, 45120, Note_on_c, 0, 61, 0
1, 45120, Note_on_c, 0, 62, 51
1, 45360, Tempo, 545653
1, 45360, Note_on_c, 0, 62, 0
1, 45360, Note_on_c, 0, 61, 51
1, 45440, Note_on_c, 0, 61, 0
1, 45440, Note_on_c, 0, 62, 45
1, 45520, Note_on_c, 0, 62, 0
1, 45520, Note_on_c, 0, 61, 45
1, 45600, Note_on_c, 0, 61, 0
1, 45600, Note_on_c, 0, 70, 0
1, 45600, Note_on_c, 0, 66, 0
1, 45600, Note_on_c, 0, 69, 65
1, 45600, Note_on_c, 0, 60, 51
1, 45612, Control_c, 0, 64, 0
1, 45667, Control_c, 0, 64, 127
1, 45840, Note_on_c, 0, 60, 0
1, 45840, Note_on_c, 0, 50, 0
1, 45840, Note_on_c, 0, 50, 44
1, 46020, Tempo, 526085
1, 46020, Note_on_c, 0, 69, 0
1, 46020, Note_on_c, 0, 67, 55
1, 46050, Note_on_c, 0, 74, 56
1, 46080, Tempo, 540541
1, 46080, Note_on_c, 0, 50, 0
1, 46080, Note_on_c, 0, 79, 60
1, 46080, Note_on_c, 0, 43, 44
1, 46080, Note_on_c, 0, 50, 44
1, 46080, Note_on_c, 0, 58, 44
1, 46094, Control_c, 0, 64, 0
1, 46320, Tempo, 530973
1, 46320, Note_on_c, 0, 58, 0
1, 46320, Note_on_c, 0, 74, 0
1, 46320, Note_on_c, 0, 79, 0
1, 46320, Note_on_c, 0, 67, 0
1, 46320, Note_on_c, 0, 50, 0
1, 46320, Note_on_c, 0, 43, 0
1, 46320, Note_on_c, 0, 74, 57
1, 46320, Note_on_c, 0, 71, 53
1, 46440, Note_on_c, 0, 71, 0
1, 46440, Note_on_c, 0, 74, 0
1, 46560, Note_on_c, 0, 75, 60
1, 46560, Note_on_c, 0, 72, 57
1, 46680, Note_on_c, 0, 72, 0
1, 46680, Note_on_c, 0, 75, 0
1, 46800, Note_on_c, 0, 79, 57
1, 46800, Note_on_c, 0, 69, 54
1, 46920, Note_on_c, 0, 69, 0
1, 46920, Note_on_c, 0, 79, 0
1, 47040, Note_on_c, 0, 78, 64
1, 47040, Note_on_c, 0, 74, 57
1, 47160, Note_on_c, 0, 74, 0
1, 47160, Note_on_c, 0, 78, 0
1, 47280, Note_on_c, 0, 81, 59
1, 47280, Note_on_c, 0, 72, 53
1, 47400, Note_on_c, 0, 72, 0
1, 47400, Note_on_c, 0, 81, 0
1, 47520, Tempo, 521739
1, 47520, Note_on_c, 0, 79, 64
1, 47520, Note_on_c, 0, 70, 57
1, 47600, Note_on_c, 0, 79, 0
1, 47600, Note_on_c, 0, 81, 54
1, 47640, Note_on_c, 0, 70, 0
1, 47680, Note_on_c, 0, 81, 0
1, 47680, Note_on_c, 0, 79, 54
1, 47760, Note_on_c, 0, 79, 0
1, 47760, Note_on_c, 0, 78, 58
1, 47760, Note_on_c, 0, 69, 54
1, 47880, Note_on_c, 0, 69, 0
1, 47880, Note_on_c, 0, 78, 0
1, 48000, Tempo, 526316
1, 48000, Note_on_c, 0, 79, 63
1, 48000, Note_on_c, 0, 70, 57
1, 48120, Note_on_c, 0, 70, 0
1, 48120, Note_on_c, 0, 79, 0
1, 48240, Tempo, 528634
1, 48240, Note_on_c, 0, 82, 60
1, 48240, Note_on_c, 0, 67, 54
1, 48360, Note_on_c, 0, 67, 0
1, 48360, Note_on_c, 0, 82, 0
1, 48480, Note_on_c, 0, 74, 63
1, 48480, Note_on_c, 0, 81, 63
1, 48480, Note_on_c, 0, 66, 57
1, 48600, Note_on_c, 0, 66, 0
1, 48600, Note_on_c, 0, 81, 0
1, 48600, Note_on_c, 0, 74, 0
1, 48720, Note_on_c, 0, 84, 60
1, 48720, Note_on_c, 0, 62, 55
1, 48840, Note_on_c, 0, 62, 0
1, 48840, Note_on_c, 0, 84, 0
1, 48960, Tempo, 517241
1, 48960, Note_on_c, 0, 82, 64
1, 48960, Note_on_c, 0, 67, 57
1, 49080, Note_on_c, 0, 67, 0
1, 49080, Note_on_c, 0, 82, 0
1, 49200, Tempo, 530973
1, 49200, Note_on_c, 0, 80, 63
1, 49200, Note_on_c, 0, 89, 63
1, 49200, Note_on_c, 0, 86, 63
1, 49200, Note_on_c, 0, 71, 52
1, 49320, Note_on_c, 0, 71, 0
1, 49320, Note_on_c, 0, 80, 0
1, 49320, Note_on_c, 0, 89, 0
1, 49320, Note_on_c, 0, 86, 0
1, 49440, Tempo, 530833
1, 49440, Note_on_c, 0, 84, 61
1, 49440, Note_on_c, 0, 79, 61
1, 49440, Note_on_c, 0, 88, 61
1, 49440, Note_on_c, 0, 72, 55
1, 49560, Note_on_c, 0, 72, 0
1, 49560, Note_on_c, 0, 84, 0
1, 49560, Note_on_c, 0, 79, 0
1, 49560, Note_on_c, 0, 88, 0
1, 49660, Tempo, 526085
1, 49680, Note_on_c, 0, 84, 60
1, 49680, Note_on_c, 0, 78, 60
1, 49680, Note_on_c, 0, 87, 60
1, 49680, Note_on_c, 0, 69, 52
1, 49800, Note_on_c, 0, 69, 0
1, 49800, Note_on_c, 0, 84, 0
1, 49800, Note_on_c, 0, 78, 0
1, 49800, Note_on_c, 0, 87, 0
1, 49880, Tempo, 528448
1, 49920, Note_on_c, 0, 86, 58
1, 49920, Note_on_c, 0, 79, 58
1, 49920, Note_on_c, 0, 70, 55
1, 50040, Note_on_c, 0, 70, 0
1, 50040, Note_on_c, 0, 79, 0
1, 50040, Note_on_c, 0, 86, 0
1, 50100, Tempo, 530833
1, 50160, Tempo, 548196
1, 50160, Note_on_c, 0, 84, 57
1, 50160, Note_on_c, 0, 74, 57
1, 50160, Note_on_c, 0, 81, 57
1, 50160, Note_on_c, 0, 66, 53
1, 50280, Note_on_c, 0, 66, 0
1, 50280, Note_on_c, 0, 84, 0
1, 50280, Note_on_c, 0, 74, 0
1, 50280, Note_on_c, 0, 81, 0
1, 50340, Tempo, 535714
1, 50400, Note_on_c, 0, 74, 65
1, 50400, Note_on_c, 0, 82, 65
1, 50400, Note_on_c, 0, 79, 65
1, 50400, Note_on_c, 0, 67, 57
1, 50469, Control_c, 0, 64, 127
1, 50640, Note_on_c, 0, 67, 0
1, 50640, Note_on_c, 0, 74, 0
1, 50640, Note_on_c, 0, 82, 0
1, 50640, Note_on_c, 0, 79, 0
1, 50640, Note_on_c, 0, 80, 60
1, 50640, Note_on_c, 0, 71, 60
1, 50640, Note_on_c, 0, 65, 52
1, 50880, Tempo, 535714
1, 50880, Note_on_c, 0, 65, 0
1, 50880, Note_on_c, 0, 71, 0
1, 50880, Note_on_c, 0, 80, 0
1, 50880, Note_on_c, 0, 79, 57
1, 50880, Note_on_c, 0, 72, 57
1, 50880, Note_on_c, 0, 64, 54
1, 50892, Control_c, 0, 64, 0
1, 50980, Tempo, 538165
1, 51017, Control_c, 0, 64, 127
1, 51080, Tempo, 540638
1, 51120, Note_on_c, 0, 64, 0
1, 51120, Note_on_c, 0, 72, 0
1, 51120, Note_on_c, 0, 73, 60
1, 51120, Note_on_c, 0, 63, 57
1, 51160, Tempo, 543134
1, 51260, Tempo, 545653
1, 51340, Tempo, 548196
1, 51360, Note_on_c, 0, 63, 0
1, 51360, Note_on_c, 0, 73, 0
1, 51360, Note_on_c, 0, 74, 62
1, 51360, Note_on_c, 0, 62, 58
1, 51378, Control_c, 0, 64, 0
1, 51486, Control_c, 0, 64, 127
1, 51600, Tempo, 572301
1, 51600, Note_on_c, 0, 62, 0
1, 51600, Note_on_c, 0, 74, 0
1, 51600, Note_on_c, 0, 79, 0
1, 51600, Note_on_c, 0, 82, 67
1, 51600, Note_on_c, 0, 75, 67
1, 51600, Note_on_c, 0, 79, 67
1, 51600, Note_on_c, 0, 61, 61
1, 51840, Tempo, 558659
1, 51840, Note_on_c, 0, 61, 0
1, 51840, Note_on_c, 0, 82, 0
1, 51840, Note_on_c, 0, 75, 0
1, 51840, Note_on_c, 0, 79, 0
1, 51840, Note_on_c, 0, 74, 70
1, 51840, Note_on_c, 0, 70, 70
1, 51840, Note_on_c, 0, 79, 70
1, 51840, Note_on_c, 0, 82, 70
1, 51840, Note_on_c, 0, 38, 59
1, 51852, Control_c, 0, 64, 0
1, 52080, Note_on_c, 0, 38, 0
1, 52080, Control_c, 0, 64, 127
1, 52080, Note_on_c, 0, 62, 57
1, 52560, Note_on_c, 0, 62, 0
1, 52560, Note_on_c, 0, 62, 51
1, 52800, Tempo, 533286
1, 52800, Note_on_c, 0, 82, 0
1, 52800, Note_on_c, 0, 79, 0
1, 52800, Note_on_c, 0, 74, 0
1, 52800, Note_on_c, 0, 70, 0
1, 52800, Note_on_c, 0, 74, 68
1, 52800, Note_on_c, 0, 70, 68
1, 53040, Note_on_c, 0, 62, 0
1, 53040, Note_on_c, 0, 62, 51
1, 53280, Tempo, 521422
1, 53280, Note_on_c, 0, 70, 0
1, 53280, Note_on_c, 0, 74, 0
1, 53280, Note_on_c, 0, 72, 61
1, 53280, Note_on_c, 0, 69, 61
1, 53294, Control_c, 0, 64, 0
1, 53372, Control_c, 0, 64, 127
1, 53400, Note_on_c, 0, 69, 0
1, 53400, Note_on_c, 0, 72, 0
1, 53520, Tempo, 533286
1, 53520, Note_on_c, 0, 62, 0
1, 53520, Note_on_c, 0, 75, 66
1, 53520, Note_on_c, 0, 72, 66
1, 53520, Note_on_c, 0, 62, 56
1, 53640, Note_on_c, 0, 72, 0
1, 53640, Note_on_c, 0, 75, 0
1, 53760, Tempo, 533286
1, 53760, Note_on_c, 0, 81, 70
1, 53760, Note_on_c, 0, 77, 70
1, 53779, Control_c, 0, 64, 0
1, 53880, Control_c, 0, 64, 127
1, 54000, Note_on_c, 0, 77, 0
1, 54000, Note_on_c, 0, 81, 0
1, 54000, Note_on_c, 0, 62, 0
1, 54000, Note_on_c, 0, 62, 54
1, 54240, Tempo, 521422
1, 54240, Note_on_c, 0, 74, 71
1, 54240, Note_on_c, 0, 77, 71
1, 54360, Note_on_c, 0, 77, 0
1, 54360, Note_on_c, 0, 74, 0
1, 54480, Tempo, 543134
1, 54480, Note_on_c, 0, 62, 0
1, 54480, Note_on_c, 0, 74, 65
1, 54480, Note_on_c, 0, 70, 65
1, 54480, Note_on_c, 0, 62, 52
1, 54600, Note_on_c, 0, 70, 0
1, 54600, Note_on_c, 0, 74, 0
1, 54720, Tempo, 521422
1, 54720, Note_on_c, 0, 67, 68
1, 54720, Note_on_c, 0, 70, 68
1, 54840, Note_on_c, 0, 70, 0
1, 54840, Note_on_c, 0, 67, 0
1, 54960, Tempo, 528634
1, 54960, Note_on_c, 0, 62, 0
1, 54960, Note_on_c, 0, 75, 65
1, 54960, Note_on_c, 0, 79, 65
1, 54960, Note_on_c, 0, 62, 56
1, 54970, Control_c, 0, 64, 0
1, 55080, Note_on_c, 0, 79, 0
1, 55080, Note_on_c, 0, 75, 0
1, 55086, Control_c, 0, 64, 127
1, 55200, Tempo, 528448
1, 55200, Note_on_c, 0, 72, 67
1, 55200, Note_on_c, 0, 75, 67
1, 55320, Note_on_c, 0, 75, 0
1, 55320, Note_on_c, 0, 72, 0
1, 55440, Note_on_c, 0, 62, 0
1, 55440, Note_on_c, 0, 69, 63
1, 55440, Note_on_c, 0, 72, 63
1, 55440, Note_on_c, 0, 62, 51
1, 55560, Note_on_c, 0, 72, 0
1, 55560, Note_on_c, 0, 69, 0
1, 55680, Tempo, 523743
1, 55680, Note_on_c, 0, 69, 67
1, 55680, Note_on_c, 0, 66, 67
1, 55695, Control_c, 0, 64, 0
1, 55800, Note_on_c, 0, 66, 0
1, 55800, Note_on_c, 0, 69, 0
1, 55800, Control_c, 0, 64, 127
1, 55920, Tempo, 533286
1, 55920, Note_on_c, 0, 62, 0
1, 55920, Note_on_c, 0, 77, 62
1, 55920, Note_on_c, 0, 74, 62
1, 55920, Note_on_c, 0, 62, 51
1, 56040, Note_on_c, 0, 74, 0
1, 56040, Note_on_c, 0, 77, 0
1, 56160, Note_on_c, 0, 74, 69
1, 56160, Note_on_c, 0, 70, 69
1, 56172, Control_c, 0, 64, 0
1, 56263, Control_c, 0, 64, 127
1, 56400, Tempo, 540638
1, 56400, Note_on_c, 0, 70, 0
1, 56400, Note_on_c, 0, 74, 0
1, 56400, Note_on_c, 0, 62, 0
1, 56400, Note_on_c, 0, 67, 66
1, 56400, Note_on_c, 0, 70, 66
1, 56400, Note_on_c, 0, 62, 51
1, 56640, Tempo, 547945
1, 56640, Note_on_c, 0, 62, 0
1, 56640, Note_on_c, 0, 70, 0
1, 56640, Note_on_c, 0, 67, 0
1, 56640, Note_on_c, 0, 67, 69
1, 56640, Note_on_c, 0, 63, 53
1, 56640, Note_on_c, 0, 62, 46
1, 56653, Control_c, 0, 64, 0
1, 56732, Control_c, 0, 64, 127
1, 56880, Note_on_c, 0, 67, 0
1, 56880, Note_on_c, 0, 70, 63
1, 57120, Tempo, 550459
1, 57120, Note_on_c, 0, 70, 0
1, 57120, Note_on_c, 0, 62, 0
1, 57120, Note_on_c, 0, 63, 0
1, 57120, Note_on_c, 0, 66, 58
1, 57120, Note_on_c, 0, 60, 47
1, 57120, Note_on_c, 0, 69, 65
1, 57120, Note_on_c, 0, 50, 43
1, 57130, Control_c, 0, 64, 0
1, 57292, Control_c, 0, 64, 127
1, 57360, Tempo, 571429
1, 57360, Note_on_c, 0, 69, 0
1, 57360, Note_on_c, 0, 70, 59
1, 57600, Key_signature, 1, "major"
1, 57600, Tempo, 538793
1, 57600, Note_on_c, 0, 70, 0
1, 57600, Note_on_c, 0, 50, 0
1, 57600, Note_on_c, 0, 60, 0
1, 57600, Note_on_c, 0, 66, 0
1, 57600, Note_on_c, 0, 71, 55
1, 57600, Note_on_c, 0, 59, 44
1, 57600, Note_on_c, 0, 62, 44
1, 57600, Control_c, 0, 64, 0
1, 57600, Note_on_c, 0, 43, 35
1, 57600, Note_on_c, 0, 50, 42
1, 57713, Control_c, 0, 64, 127
1, 57840, Note_on_c, 0, 62, 0
1, 57840, Note_on_c, 0, 59, 0
1, 57840, Note_on_c, 0, 64, 42
1, 57960, Note_on_c, 0, 64, 0
1, 57960, Note_on_c, 0, 62, 42
1, 58080, Tempo, 543872
1, 58080, Note_on_c, 0, 62, 0
1, 58080, Note_on_c, 0, 59, 44
1, 58094, Control_c, 0, 64, 0
1, 58200, Control_c, 0, 64, 127
1, 58320, Tempo, 529007
1, 58320, Note_on_c, 0, 59, 0
1, 58320, Note_on_c, 0, 62, 41
1, 58560, Tempo, 536337
1, 58560, Note_on_c, 0, 62, 0
1, 58560, Note_on_c, 0, 50, 0
1, 58560, Note_on_c, 0, 43, 0
1, 58560, Note_on_c, 0, 38, 32
1, 58560, Note_on_c, 0, 50, 38
1, 58800, Note_on_c, 0, 62, 42
1, 59040, Tempo, 536337
1, 59040, Note_on_c, 0, 62, 0
1, 59040, Note_on_c, 0, 71, 0
1, 59040, Note_on_c, 0, 38, 0
1, 59040, Note_on_c, 0, 50, 0
1, 59040, Note_on_c, 0, 71, 55
1, 59040, Note_on_c, 0, 59, 45
1, 59040, Note_on_c, 0, 65, 45
1, 59040, Note_on_c, 0, 44, 36
1, 59040, Note_on_c, 0, 50, 43
1, 59047, Control_c, 0, 64, 0
1, 59203, Control_c, 0, 64, 127
1, 59280, Note_on_c, 0, 65, 0
1, 59280, Note_on_c, 0, 59, 0
1, 59280, Note_on_c, 0, 64, 42
1, 59400, Note_on_c, 0, 64, 0
1, 59400, Note_on_c, 0, 62, 42
1, 59520, Tempo, 543872
1, 59520, Note_on_c, 0, 62, 0
1, 59520, Note_on_c, 0, 59, 44
1, 59538, Control_c, 0, 64, 0
1, 59633, Control_c, 0, 64, 127
1, 59760, Tempo, 531444
1, 59760, Note_on_c, 0, 59, 0
1, 59760, Note_on_c, 0, 62, 42
1, 60000, Tempo, 538793
1, 60000, Note_on_c, 0, 62, 0
1, 60000, Note_on_c, 0, 50, 0
1, 60000, Note_on_c, 0, 44, 0
1, 60000, Note_on_c, 0, 38, 32
1, 60000, Note_on_c, 0, 50, 38
1, 60240, Note_on_c, 0, 62, 42
1, 60480, Tempo, 538793
1, 60480, Note_on_c, 0, 62, 0
1, 60480, Note_on_c, 0, 71, 0
1, 60480, Note_on_c, 0, 38, 0
1, 60480, Note_on_c, 0, 50, 0
1, 60480, Note_on_c, 0, 72, 55
1, 60480, Note_on_c, 0, 60, 44
1, 60480, Note_on_c, 0, 62, 44
1, 60480, Note_on_c, 0, 45, 35
1, 60480, Note_on_c, 0, 50, 42
1, 60490, Control_c, 0, 64, 0
1, 60551, Control_c, 0, 64, 127
1, 60720, Note_on_c, 0, 62, 0
1, 60720, Note_on_c, 0, 60, 0
1, 60720, Note_on_c, 0, 64, 42
1, 60840, Note_on_c, 0, 64, 0
1, 60840, Note_on_c, 0, 62, 42
1, 60960, Tempo, 543872
1, 60960, Note_on_c, 0, 62, 0
1, 60960, Note_on_c, 0, 60, 44
1, 60974, Control_c, 0, 64, 0
1, 61073, Control_c, 0, 64, 127
1, 61200, Tempo, 529007
1, 61200, Note_on_c, 0, 60, 0
1, 61200, Note_on_c, 0, 62, 41
1, 61440, Tempo, 543872
1, 61440, Note_on_c, 0, 62, 0
1, 61440, Note_on_c, 0, 72, 0
1, 61440, Note_on_c, 0, 45, 0
1, 61440, Note_on_c, 0, 50, 0
1, 61440, Note_on_c, 0, 60, 44
1, 61440, Note_on_c, 0, 68, 53
1, 61440, Note_on_c, 0, 38, 32
1, 61440, Note_on_c, 0, 50, 38
1, 61680, Note_on_c, 0, 60, 0
1, 61680, Note_on_c, 0, 62, 41
1, 61920, Tempo, 538793
1, 61920, Note_on_c, 0, 62, 0
1, 61920, Note_on_c, 0, 50, 0
1, 61920, Note_on_c, 0, 38, 0
1, 61920, Note_on_c, 0, 69, 55
1, 61920, Note_on_c, 0, 60, 44
1, 61920, Note_on_c, 0, 62, 44
1, 61920, Note_on_c, 0, 42, 35
1, 61920, Note_on_c, 0, 50, 42
1, 61931, Control_c, 0, 64, 0
1, 61940, Note_on_c, 0, 68, 0
1, 62026, Control_c, 0, 64, 127
1, 62160, Note_on_c, 0, 62, 0
1, 62160, Note_on_c, 0, 60, 0
1, 62160, Note_on_c, 0, 64, 42
1, 62280, Note_on_c, 0, 64, 0
1, 62280, Note_on_c, 0, 62, 42
1, 62400, Tempo, 543872
1, 62400, Note_on_c, 0, 62, 0
1, 62400, Note_on_c, 0, 60, 44
1, 62414, Control_c, 0, 64, 0
1, 62513, Control_c, 0, 64, 127
1, 62640, Tempo, 529007
1, 62640, Note_on_c, 0, 60, 0
1, 62640, Note_on_c, 0, 62, 41
1, 62880, Tempo, 543872
1, 62880, Note_on_c, 0, 62, 0
1, 62880, Note_on_c, 0, 69, 0
1, 62880, Note_on_c, 0, 42, 0
1, 62880, Note_on_c, 0, 50, 0
1, 62880, Note_on_c, 0, 60, 44
1, 62880, Note_on_c, 0, 70, 53
1, 62880, Note_on_c, 0, 38, 32
1, 62880, Note_on_c, 0, 50, 38
1, 63120, Note_on_c, 0, 60, 0
1, 63120, Note_on_c, 0, 62, 41
1, 63360, Tempo, 538793
1, 63360, Note_on_c, 0, 62, 0
1, 63360, Note_on_c, 0, 50, 0
1, 63360, Note_on_c, 0, 38, 0
1, 63360, Note_on_c, 0, 71, 55
1, 63360, Note_on_c, 0, 59, 44
1, 63360, Note_on_c, 0, 62, 44
1, 63360, Note_on_c, 0, 43, 35
1, 63360, Note_on_c, 0, 50, 42
1, 63369, Control_c, 0, 64, 0
1, 63380, Note_on_c, 0, 70, 0
1, 63459, Control_c, 0, 64, 127
1, 63600, Note_on_c, 0, 62, 0
1, 63600, Note_on_c, 0, 59, 0
1, 63600, Note_on_c, 0, 64, 42
1, 63720, Note_on_c, 0, 64, 0
1, 63720, Note_on_c, 0, 62, 42
1, 63840, Tempo, 543872
1, 63840, Note_on_c, 0, 62, 0
1, 63840, Note_on_c, 0, 59, 44
1, 63854, Control_c, 0, 64, 0
1, 63946, Control_c, 0, 64, 127
1, 64080, Tempo, 529007
1, 64080, Note_on_c, 0, 59, 0
1, 64080, Note_on_c, 0, 62, 41
1, 64320, Tempo, 543872
1, 64320, Note_on_c, 0, 62, 0
1, 64320, Note_on_c, 0, 71, 0
1, 64320, Note_on_c, 0, 43, 0
1, 64320, Note_on_c, 0, 50, 0
1, 64320, Note_on_c, 0, 59, 44
1, 64320, Note_on_c, 0, 71, 53
1, 64320, Note_on_c, 0, 38, 32
1, 64320, Note_on_c, 0, 50, 38
1, 64560, Note_on_c, 0, 59, 0
1, 64560, Note_on_c, 0, 62, 41
1, 64800, Tempo, 538793
1, 64800, Note_on_c, 0, 62, 0
1, 64800, Note_on_c, 0, 50, 0
1, 64800, Note_on_c, 0, 38, 0
1, 64800, Note_on_c, 0, 64, 55
1, 64800, Note_on_c, 0, 62, 44
1, 64800, Note_on_c, 0, 56, 39
1, 64800, Note_on_c, 0, 52, 35
1, 64811, Control_c, 0, 64, 0
1, 64820, Note_on_c, 0, 71, 0
1, 64892, Control_c, 0, 64, 127
1, 65040, Note_on_c, 0, 56, 0
1, 65040, Note_on_c, 0, 62, 0
1, 65040, Note_on_c, 0, 67, 42
1, 65040, Note_on_c, 0, 59, 38
1, 65160, Note_on_c, 0, 59, 0
1, 65160, Note_on_c, 0, 67, 0
1, 65160, Note_on_c, 0, 65, 42
1, 65160, Note_on_c, 0, 57, 38
1, 65280, Tempo, 543872
1, 65280, Note_on_c, 0, 57, 0
1, 65280, Note_on_c, 0, 65, 0
1, 65280, Note_on_c, 0, 64, 44
1, 65280, Note_on_c, 0, 62, 44
1, 65280, Note_on_c, 0, 56, 39
1, 65296, Control_c, 0, 64, 0
1, 65394, Control_c, 0, 64, 127
1, 65520, Tempo, 529007
1, 65520, Note_on_c, 0, 64, 0
1, 65520, Note_on_c, 0, 71, 54
1, 65760, Tempo, 543872
1, 65760, Note_on_c, 0, 62, 0
1, 65760, Note_on_c, 0, 56, 0
1, 65760, Note_on_c, 0, 52, 0
1, 65760, Note_on_c, 0, 64, 0
1, 65760, Note_on_c, 0, 62, 37
1, 65760, Note_on_c, 0, 64, 37
1, 65760, Note_on_c, 0, 68, 37
1, 65760, Note_on_c, 0, 72, 59
1, 65760, Note_on_c, 0, 52, 38
1, 65780, Note_on_c, 0, 71, 0
1, 66000, Note_on_c, 0, 74, 57
1, 66020, Note_on_c, 0, 72, 0
1, 66215, Tempo, 538793
1, 66240, Note_on_c, 0, 64, 0
1, 66240, Note_on_c, 0, 68, 0
1, 66240, Note_on_c, 0, 62, 0
1, 66240, Note_on_c, 0, 52, 0
1, 66240, Note_on_c, 0, 60, 44
1, 66240, Note_on_c, 0, 72, 55
1, 66240, Note_on_c, 0, 45, 35
1, 66240, Note_on_c, 0, 52, 42
1, 66250, Control_c, 0, 64, 0
1, 66260, Note_on_c, 0, 74, 0
1, 66315, Control_c, 0, 64, 127
1, 66480, Note_on_c, 0, 60, 0
1, 66480, Note_on_c, 0, 65, 42
1, 66600, Note_on_c, 0, 65, 0
1, 66600, Note_on_c, 0, 64, 42
1, 66695, Tempo, 543872
1, 66720, Note_on_c, 0, 64, 0
1, 66720, Note_on_c, 0, 60, 44
1, 66732, Control_c, 0, 64, 0
1, 66800, Control_c, 0, 64, 127
1, 66935, Tempo, 529007
1, 66960, Note_on_c, 0, 60, 0
1, 66960, Note_on_c, 0, 64, 41
1, 67175, Tempo, 543872
1, 67200, Note_on_c, 0, 64, 0
1, 67200, Note_on_c, 0, 52, 0
1, 67200, Note_on_c, 0, 72, 0
1, 67200, Note_on_c, 0, 60, 44
1, 67200, Note_on_c, 0, 72, 53
1, 67200, Note_on_c, 0, 51, 46
1, 67214, Control_c, 0, 64, 0
1, 67257, Control_c, 0, 64, 127
1, 67320, Note_on_c, 0, 51, 0
1, 67320, Note_on_c, 0, 53, 32
1, 67440, Note_on_c, 0, 53, 0
1, 67440, Note_on_c, 0, 60, 0
1, 67440, Note_on_c, 0, 67, 41
1, 67440, Note_on_c, 0, 51, 34
1, 67680, Tempo, 546398
1, 67680, Note_on_c, 0, 51, 0
1, 67680, Note_on_c, 0, 67, 0
1, 67680, Note_on_c, 0, 45, 0
1, 67680, Note_on_c, 0, 60, 47
1, 67680, Note_on_c, 0, 66, 58
1, 67680, Note_on_c, 0, 38, 38
1, 67698, Control_c, 0, 64, 0
1, 67700, Note_on_c, 0, 72, 0
1, 67779, Control_c, 0, 64, 127
1, 67920, Note_on_c, 0, 60, 0
1, 67920, Note_on_c, 0, 69, 45
1, 68040, Note_on_c, 0, 69, 0
1, 68040, Note_on_c, 0, 66, 45
1, 68135, Tempo, 543872
1, 68160, Tempo, 554221
1, 68160, Note_on_c, 0, 66, 0
1, 68160, Note_on_c, 0, 66, 0
1, 68160, Note_on_c, 0, 60, 47
1, 68160, Note_on_c, 0, 64, 44
1, 68160, Note_on_c, 0, 55, 41
1, 68176, Control_c, 0, 64, 0
1, 68259, Control_c, 0, 64, 127
1, 68400, Tempo, 579095
1, 68400, Note_on_c, 0, 69, 44
1, 68420, Note_on_c, 0, 60, 0
1, 68640, Tempo, 564972
1, 68640, Note_on_c, 0, 55, 0
1, 68640, Note_on_c, 0, 69, 0
1, 68640, Note_on_c, 0, 64, 0
1, 68640, Note_on_c, 0, 60, 50
1, 68640, Note_on_c, 0, 62, 39
1, 68640, Note_on_c, 0, 54, 37
1, 68656, Control_c, 0, 64, 0
1, 68753, Control_c, 0, 64, 127
1, 68880, Tempo, 593883
1, 68880, Note_on_c, 0, 70, 44
1, 68900, Note_on_c, 0, 60, 0
1, 69120, Tempo, 538793
1, 69120, Note_on_c, 0, 54, 0
1, 69120, Note_on_c, 0, 38, 0
1, 69120, Note_on_c, 0, 62, 0
1, 69120, Note_on_c, 0, 70, 0
1, 69120, Note_on_c, 0, 71, 55
1, 69120, Note_on_c, 0, 59, 41
1, 69120, Note_on_c, 0, 62, 41
1, 69120, Note_on_c, 0, 43, 25
1, 69120, Note_on_c, 0, 50, 39
1, 69136, Control_c, 0, 64, 0
1, 69233, Control_c, 0, 64, 127
1, 69360, Note_on_c, 0, 62, 0
1, 69360, Note_on_c, 0, 59, 0
1, 69360, Note_on_c, 0, 64, 39
1, 69480, Note_on_c, 0, 64, 0
1, 69480, Note_on_c, 0, 62, 39
1, 69600, Tempo, 543872
1, 69600, Note_on_c, 0, 62, 0
1, 69600, Note_on_c, 0, 59, 41
1, 69614, Control_c, 0, 64, 0
1, 69734, Control_c, 0, 64, 127
1, 69840, Tempo, 529007
1, 69840, Note_on_c, 0, 59, 0
1, 69840, Note_on_c, 0, 62, 38
1, 70080, Tempo, 536337
1, 70080, Note_on_c, 0, 62, 0
1, 70080, Note_on_c, 0, 50, 0
1, 70080, Note_on_c, 0, 43, 0
1, 70080, Note_on_c, 0, 38, 32
1, 70080, Note_on_c, 0, 50, 38
1, 70320, Note_on_c, 0, 62, 42
1, 70560, Tempo, 536337
1, 70560, Note_on_c, 0, 62, 0
1, 70560, Note_on_c, 0, 71, 0
1, 70560, Note_on_c, 0, 38, 0
1, 70560, Note_on_c, 0, 50, 0
1, 70560, Note_on_c, 0, 71, 55
1, 70560, Note_on_c, 0, 59, 43
1, 70560, Note_on_c, 0, 65, 43
1, 70560, Note_on_c, 0, 44, 34
1, 70560, Note_on_c, 0, 50, 41
1, 70572, Control_c, 0, 64, 0
1, 70680, Control_c, 0, 64, 127
1, 70800, Note_on_c, 0, 65, 0
1, 70800, Note_on_c, 0, 59, 0
1, 70800, Note_on_c, 0, 64, 40
1, 70920, Note_on_c, 0, 64, 0
1, 70920, Note_on_c, 0, 62, 40
1, 71040, Tempo, 543872
1, 71040, Note_on_c, 0, 62, 0
1, 71040, Note_on_c, 0, 59, 42
1, 71061, Control_c, 0, 64, 0
1, 71153, Control_c, 0, 64, 127
1, 71280, Tempo, 531444
1, 71280, Note_on_c, 0, 59, 0
1, 71280, Note_on_c, 0, 62, 40
1, 71520, Tempo, 538793
1, 71520, Note_on_c, 0, 62, 0
1, 71520, Note_on_c, 0, 50, 0
1, 71520, Note_on_c, 0, 44, 0
1, 71520, Note_on_c, 0, 38, 32
1, 71520, Note_on_c, 0, 50, 38
1, 71760, Note_on_c, 0, 62, 42
1, 72000, Tempo, 538793
1, 72000, Note_on_c, 0, 62, 0
1, 72000, Note_on_c, 0, 71, 0
1, 72000, Note_on_c, 0, 38, 0
1, 72000, Note_on_c, 0, 50, 0
1, 72000, Note_on_c, 0, 72, 55
1, 72000, Note_on_c, 0, 60, 44
1, 72000, Note_on_c, 0, 62, 44
1, 72000, Note_on_c, 0, 45, 35
1, 72000, Note_on_c, 0, 50, 42
1, 72015, Control_c, 0, 64, 0
1, 72099, Control_c, 0, 64, 127
1, 72240, Note_on_c, 0, 62, 0
1, 72240, Note_on_c, 0, 60, 0
1, 72240, Note_on_c, 0, 64, 42
1, 72360, Note_on_c, 0, 64, 0
1, 72360, Note_on_c, 0, 62, 42
1, 72480, Tempo, 543872
1, 72480, Note_on_c, 0, 62, 0
1, 72480, Note_on_c, 0, 60, 44
1, 72494, Control_c, 0, 64, 0
1, 72593, Control_c, 0, 64, 127
1, 72720, Tempo, 529007
1, 72720, Note_on_c, 0, 60, 0
1, 72720, Note_on_c, 0, 62, 41
1, 72960, Tempo, 543872
1, 72960, Note_on_c, 0, 62, 0
1, 72960, Note_on_c, 0, 72, 0
1, 72960, Note_on_c, 0, 45, 0
1, 72960, Note_on_c, 0, 50, 0
1, 72960, Note_on_c, 0, 60, 44
1, 72960, Note_on_c, 0, 68, 53
1, 72960, Note_on_c, 0, 38, 32
1, 72960, Note_on_c, 0, 50, 38
1, 73200, Note_on_c, 0, 60, 0
1, 73200, Note_on_c, 0, 62, 41
1, 73440, Tempo, 538793
1, 73440, Note_on_c, 0, 62, 0
1, 73440, Note_on_c, 0, 50, 0
1, 73440, Note_on_c, 0, 38, 0
1, 73440, Note_on_c, 0, 69, 55
1, 73440, Note_on_c, 0, 60, 44
1, 73440, Note_on_c, 0, 62, 44
1, 73440, Note_on_c, 0, 42, 35
1, 73440, Note_on_c, 0, 50, 42
1, 73452, Control_c, 0, 64, 0
1, 73460, Note_on_c, 0, 68, 0
1, 73546, Control_c, 0, 64, 127
1, 73680, Note_on_c, 0, 62, 0
1, 73680, Note_on_c, 0, 60, 0
1, 73680, Note_on_c, 0, 64, 42
1, 73800, Note_on_c, 0, 64, 0
1, 73800, Note_on_c, 0, 62, 42
1, 73920, Tempo, 543872
1, 73920, Note_on_c, 0, 62, 0
1, 73920, Note_on_c, 0, 60, 44
1, 73934, Control_c, 0, 64, 0
1, 74012, Control_c, 0, 64, 127
1, 74160, Tempo, 529007
1, 74160, Note_on_c, 0, 60, 0
1, 74160, Note_on_c, 0, 62, 41
1, 74400, Tempo, 543872
1, 74400, Note_on_c, 0, 62, 0
1, 74400, Note_on_c, 0, 69, 0
1, 74400, Note_on_c, 0, 42, 0
1, 74400, Note_on_c, 0, 50, 0
1, 74400, Note_on_c, 0, 60, 44
1, 74400, Note_on_c, 0, 70, 53
1, 74400, Note_on_c, 0, 38, 32
1, 74400, Note_on_c, 0, 50, 38
1, 74640, Note_on_c, 0, 60, 0
1, 74640, Note_on_c, 0, 62, 41
1, 74880, Tempo, 538793
1, 74880, Note_on_c, 0, 62, 0
1, 74880, Note_on_c, 0, 50, 0
1, 74880, Note_on_c, 0, 38, 0
1, 74880, Note_on_c, 0, 71, 55
1, 74880, Note_on_c, 0, 59, 44
1, 74880, Note_on_c, 0, 62, 44
1, 74880, Note_on_c, 0, 43, 35
1, 74880, Note_on_c, 0, 50, 42
1, 74892, Control_c, 0, 64, 0
1, 74900, Note_on_c, 0, 70, 0
1, 74986, Control_c, 0, 64, 127
1, 75120, Note_on_c, 0, 62, 0
1, 75120, Note_on_c, 0, 59, 0
1, 75120, Note_on_c, 0, 64, 42
1, 75240, Note_on_c, 0, 64, 0
1, 75240, Note_on_c, 0, 62, 42
1, 75360, Tempo, 543872
1, 75360, Note_on_c, 0, 62, 0
1, 75360, Note_on_c, 0, 59, 44
1, 75374, Control_c, 0, 64, 0
1, 75487, Control_c, 0, 64, 127
1, 75600, Tempo, 529007
1, 75600, Note_on_c, 0, 59, 0
1, 75600, Note_on_c, 0, 62, 41
1, 75840, Tempo, 543872
1, 75840, Note_on_c, 0, 62, 0
1, 75840, Note_on_c, 0, 71, 0
1, 75840, Note_on_c, 0, 43, 0
1, 75840, Note_on_c, 0, 50, 0
1, 75840, Note_on_c, 0, 55, 47
1, 76080, Note_on_c, 0, 62, 49
1, 76320, Tempo, 538793
1, 76320, Note_on_c, 0, 62, 0
1, 76320, Note_on_c, 0, 55, 0
1, 76320, Note_on_c, 0, 64, 51
1, 76320, Note_on_c, 0, 59, 51
1, 76320, Note_on_c, 0, 49, 51
1, 76332, Control_c, 0, 64, 0
1, 76412, Control_c, 0, 64, 127
1, 76440, Note_on_c, 0, 50, 39
1, 76460, Note_on_c, 0, 49, 0
1, 76560, Note_on_c, 0, 59, 0
1, 76560, Note_on_c, 0, 69, 46
1, 76560, Note_on_c, 0, 49, 49
1, 76580, Note_on_c, 0, 50, 0
1, 76680, Note_on_c, 0, 69, 0
1, 76680, Note_on_c, 0, 67, 47
1, 76800, Tempo, 543872
1, 76800, Note_on_c, 0, 67, 0
1, 76800, Note_on_c, 0, 64, 50
1, 76818, Control_c, 0, 64, 0
1, 76949, Control_c, 0, 64, 127
1, 77040, Tempo, 529007
1, 77040, Note_on_c, 0, 64, 0
1, 77040, Note_on_c, 0, 71, 57
1, 77040, Note_on_c, 0, 54, 46
1, 77280, Tempo, 535714
1, 77280, Note_on_c, 0, 54, 0
1, 77280, Note_on_c, 0, 71, 0
1, 77280, Note_on_c, 0, 64, 0
1, 77280, Note_on_c, 0, 64, 50
1, 77280, Note_on_c, 0, 76, 59
1, 77280, Note_on_c, 0, 55, 50
1, 77520, Tempo, 540541
1, 77520, Note_on_c, 0, 55, 0
1, 77520, Note_on_c, 0, 49, 0
1, 77520, Note_on_c, 0, 64, 0
1, 77520, Note_on_c, 0, 76, 0
1, 77520, Note_on_c, 0, 71, 55
1, 77520, Note_on_c, 0, 61, 44
1, 77735, Tempo, 538793
1, 77760, Tempo, 538793
1, 77760, Note_on_c, 0, 61, 0
1, 77760, Note_on_c, 0, 71, 0
1, 77760, Note_on_c, 0, 74, 50
1, 77760, Note_on_c, 0, 62, 61
1, 77760, Note_on_c, 0, 54, 49
1, 77771, Control_c, 0, 64, 0
1, 77873, Control_c, 0, 64, 127
1, 78000, Note_on_c, 0, 62, 0
1, 78000, Note_on_c, 0, 67, 53
1, 78120, Note_on_c, 0, 67, 0
1, 78120, Note_on_c, 0, 66, 53
1, 78240, Tempo, 543872
1, 78240, Note_on_c, 0, 66, 0
1, 78240, Note_on_c, 0, 65, 55
1, 78257, Control_c, 0, 64, 0
1, 78424, Control_c, 0, 64, 127
1, 78480, Tempo, 529007
1, 78480, Note_on_c, 0, 64, 55
1, 78720, Tempo, 543872
1, 78720, Note_on_c, 0, 65, 0
1, 78720, Note_on_c, 0, 74, 0
1, 78720, Note_on_c, 0, 54, 0
1, 78720, Note_on_c, 0, 73, 59
1, 78720, Note_on_c, 0, 42, 46
1, 78741, Control_c, 0, 64, 0
1, 78840, Control_c, 0, 64, 127
1, 78960, Tempo, 559597
1, 78960, Note_on_c, 0, 73, 0
1, 78960, Note_on_c, 0, 66, 55
1, 79175, Tempo, 538793
1, 79200, Note_on_c, 0, 66, 0
1, 79200, Note_on_c, 0, 42, 0
1, 79200, Note_on_c, 0, 64, 0
1, 79200, Note_on_c, 0, 62, 53
1, 79200, Note_on_c, 0, 71, 66
1, 79200, Note_on_c, 0, 47, 48
1, 79211, Control_c, 0, 64, 0
1, 79363, Control_c, 0, 64, 127
1, 79440, Tempo, 546398
1, 79440, Note_on_c, 0, 57, 47
1, 79560, Note_on_c, 0, 57, 0
1, 79560, Note_on_c, 0, 55, 45
1, 79680, Note_on_c, 0, 55, 0
1, 79680, Note_on_c, 0, 53, 49
1, 79696, Control_c, 0, 64, 0
1, 79814, Control_c, 0, 64, 127
1, 79920, Note_on_c, 0, 53, 0
1, 79920, Note_on_c, 0, 54, 46
1, 80160, Note_on_c, 0, 54, 0
1, 80160, Note_on_c, 0, 59, 52
1, 80174, Control_c, 0, 64, 0
1, 80330, Control_c, 0, 64, 127
1, 80640, Tempo, 536337
1, 80640, Note_on_c, 0, 59, 0
1, 80640, Note_on_c, 0, 62, 0
1, 80640, Note_on_c, 0, 71, 0
1, 80640, Note_on_c, 0, 47, 0
1, 80640, Note_on_c, 0, 69, 56
1, 80640, Note_on_c, 0, 72, 75
1, 80640, Note_on_c, 0, 38, 62
1, 80652, Control_c, 0, 64, 0
1, 80767, Control_c, 0, 64, 127
1, 80880, Tempo, 549099
1, 80880, Note_on_c, 0, 38, 0
1, 80880, Note_on_c, 0, 62, 53
1, 81000, Note_on_c, 0, 62, 0
1, 81000, Note_on_c, 0, 62, 53
1, 81120, Note_on_c, 0, 62, 0
1, 81120, Note_on_c, 0, 62, 59
1, 81360, Tempo, 541419
1, 81360, Note_on_c, 0, 62, 0
1, 81360, Note_on_c, 0, 62, 55
1, 81600, Tempo, 549099
1, 81600, Note_on_c, 0, 62, 0
1, 81600, Note_on_c, 0, 72, 0
1, 81600, Note_on_c, 0, 69, 0
1, 81600, Note_on_c, 0, 68, 55
1, 81600, Note_on_c, 0, 71, 73
1, 81616, Control_c, 0, 64, 0
1, 81727, Control_c, 0, 64, 127
1, 81840, Note_on_c, 0, 62, 55
1, 82080, Note_on_c, 0, 71, 0
1, 82080, Note_on_c, 0, 68, 0
1, 82080, Note_on_c, 0, 71, 56
1, 82080, Note_on_c, 0, 74, 75
1, 82320, Note_on_c, 0, 62, 0
1, 82320, Note_on_c, 0, 62, 53
1, 82560, Note_on_c, 0, 69, 63
1, 82560, Note_on_c, 0, 72, 71
1, 82580, Note_on_c, 0, 74, 0
1, 82580, Note_on_c, 0, 71, 0
1, 82800, Note_on_c, 0, 62, 0
1, 82800, Note_on_c, 0, 62, 53
1, 83040, Note_on_c, 0, 68, 61
1, 83040, Note_on_c, 0, 71, 68
1, 83060, Note_on_c, 0, 69, 0
1, 83060, Note_on_c, 0, 72, 0
1, 83280, Note_on_c, 0, 62, 0
1, 83280, Note_on_c, 0, 62, 49
1, 83520, Tempo, 540541
1, 83520, Note_on_c, 0, 68, 0
1, 83520, Note_on_c, 0, 71, 0
1, 83520, Note_on_c, 0, 65, 53
1, 83520, Note_on_c, 0, 68, 71
1, 83536, Control_c, 0, 64, 0
1, 83640, Tempo, 538117
1, 83680, Control_c, 0, 64, 127
1, 83720, Tempo, 535714
1, 83760, Note_on_c, 0, 68, 0
1, 83760, Note_on_c, 0, 65, 0
1, 83760, Note_on_c, 0, 62, 0
1, 83760, Note_on_c, 0, 66, 52
1, 83760, Note_on_c, 0, 69, 70
1, 83760, Note_on_c, 0, 62, 51
1, 83800, Tempo, 533333
1, 83880, Tempo, 530973
1, 83960, Tempo, 528634
1, 84000, Note_on_c, 0, 69, 0
1, 84000, Note_on_c, 0, 66, 0
1, 84000, Note_on_c, 0, 69, 52
1, 84000, Note_on_c, 0, 72, 70
1, 84040, Tempo, 526316
1, 84240, Note_on_c, 0, 72, 0
1, 84240, Note_on_c, 0, 69, 0
1, 84240, Note_on_c, 0, 62, 0
1, 84240, Note_on_c, 0, 72, 54
1, 84240, Note_on_c, 0, 76, 73
1, 84240, Note_on_c, 0, 62, 55
1, 84480, Note_on_c, 0, 76, 0
1, 84480, Note_on_c, 0, 72, 0
1, 84480, Note_on_c, 0, 76, 57
1, 84480, Note_on_c, 0, 79, 76
1, 84492, Control_c, 0, 64, 0
1, 84629, Control_c, 0, 64, 127
1, 84720, Tempo, 538117
1, 84720, Note_on_c, 0, 79, 0
1, 84720, Note_on_c, 0, 76, 0
1, 84720, Note_on_c, 0, 62, 0
1, 84720, Note_on_c, 0, 74, 55
1, 84720, Note_on_c, 0, 78, 74
1, 84720, Note_on_c, 0, 62, 54
1, 84960, Tempo, 533333
1, 84960, Note_on_c, 0, 78, 0
1, 84960, Note_on_c, 0, 74, 0
1, 84960, Note_on_c, 0, 81, 76
1, 84960, Note_on_c, 0, 78, 57
1, 84972, Control_c, 0, 64, 0
1, 85143, Control_c, 0, 64, 127
1, 85200, Note_on_c, 0, 78, 0
1, 85200, Note_on_c, 0, 81, 0
1, 85200, Note_on_c, 0, 62, 0
1, 85200, Note_on_c, 0, 74, 52
1, 85200, Note_on_c, 0, 78, 70
1, 85200, Note_on_c, 0, 62, 57
1, 85440, Tempo, 546398
1, 85440, Note_on_c, 0, 78, 0
1, 85440, Note_on_c, 0, 74, 0
1, 85440, Note_on_c, 0, 72, 55
1, 85440, Note_on_c, 0, 76, 74
1, 85680, Note_on_c, 0, 76, 0
1, 85680, Note_on_c, 0, 72, 0
1, 85680, Note_on_c, 0, 62, 0
1, 85680, Note_on_c, 0, 69, 51
1, 85680, Note_on_c, 0, 72, 67
1, 85680, Note_on_c, 0, 62, 51
1, 85920, Note_on_c, 0, 72, 0
1, 85920, Note_on_c, 0, 69, 0
1, 85920, Note_on_c, 0, 68, 52
1, 85920, Note_on_c, 0, 71, 70
1, 85933, Control_c, 0, 64, 0
1, 86023, Control_c, 0, 64, 127
1, 86160, Note_on_c, 0, 71, 0
1, 86160, Note_on_c, 0, 68, 0
1, 86160, Note_on_c, 0, 62, 0
1, 86160, Note_on_c, 0, 71, 51
1, 86160, Note_on_c, 0, 74, 67
1, 86160, Note_on_c, 0, 62, 51
1, 86400, Tempo, 536337
1, 86400, Note_on_c, 0, 62, 0
1, 86400, Note_on_c, 0, 74, 0
1, 86400, Note_on_c, 0, 71, 0
1, 86400, Note_on_c, 0, 69, 63
1, 86400, Note_on_c, 0, 72, 75
1, 86400, Note_on_c, 0, 38, 62
1, 86412, Control_c, 0, 64, 0
1, 86534, Control_c, 0, 64, 127
1, 86640, Tempo, 549099
1, 86640, Note_on_c, 0, 38, 0
1, 86640, Note_on_c, 0, 62, 48
1, 86760, Note_on_c, 0, 62, 0
1, 86760, Note_on_c, 0, 62, 48
1, 86880, Note_on_c, 0, 62, 0
1, 86880, Note_on_c, 0, 62, 52
1, 87120, Tempo, 541419
1, 87120, Note_on_c, 0, 62, 0
1, 87120, Note_on_c, 0, 62, 49
1, 87360, Tempo, 549099
1, 87360, Note_on_c, 0, 62, 0
1, 87360, Note_on_c, 0, 72, 0
1, 87360, Note_on_c, 0, 69, 0
1, 87360, Note_on_c, 0, 68, 56
1, 87360, Note_on_c, 0, 71, 66
1, 87371, Control_c, 0, 64, 0
1, 87480, Control_c, 0, 64, 127
1, 87600, Note_on_c, 0, 62, 49
1, 87840, Note_on_c, 0, 71, 0
1, 87840, Note_on_c, 0, 68, 0
1, 87840, Note_on_c, 0, 70, 57
1, 87840, Note_on_c, 0, 74, 68
1, 87846, Control_c, 0, 64, 0
1, 88024, Control_c, 0, 64, 127
1, 88080, Note_on_c, 0, 62, 0
1, 88080, Note_on_c, 0, 62, 48
1, 88320, Note_on_c, 0, 69, 53
1, 88320, Note_on_c, 0, 72, 63
1, 88340, Note_on_c, 0, 74, 0
1, 88340, Note_on_c, 0, 70, 0
1, 88560, Note_on_c, 0, 62, 0
1, 88560, Note_on_c, 0, 62, 48
1, 88800, Note_on_c, 0, 67, 51
1, 88800, Note_on_c, 0, 70, 61
1, 88820, Note_on_c, 0, 69, 0
1, 88820, Note_on_c, 0, 72, 0
1, 89040, Note_on_c, 0, 62, 0
1, 89040, Note_on_c, 0, 62, 44
1, 89280, Tempo, 535714
1, 89280, Note_on_c, 0, 67, 0
1, 89280, Note_on_c, 0, 70, 0
1, 89280, Note_on_c, 0, 65, 51
1, 89280, Note_on_c, 0, 68, 60
1, 89290, Control_c, 0, 64, 0
1, 89440, Tempo, 533333
1, 89463, Control_c, 0, 64, 127
1, 89520, Note_on_c, 0, 68, 0
1, 89520, Note_on_c, 0, 65, 0
1, 89520, Note_on_c, 0, 62, 0
1, 89520, Note_on_c, 0, 66, 48
1, 89520, Note_on_c, 0, 69, 57
1, 89520, Note_on_c, 0, 62, 46
1, 89600, Tempo, 530973
1, 89760, Note_on_c, 0, 69, 0
1, 89760, Note_on_c, 0, 66, 0
1, 89760, Note_on_c, 0, 69, 51
1, 89760, Note_on_c, 0, 72, 60
1, 90000, Note_on_c, 0, 72, 0
1, 90000, Note_on_c, 0, 69, 0
1, 90000, Note_on_c, 0, 62, 0
1, 90000, Note_on_c, 0, 72, 51
1, 90000, Note_on_c, 0, 75, 60
1, 90000, Note_on_c, 0, 62, 45
1, 90240, Note_on_c, 0, 75, 0
1, 90240, Note_on_c, 0, 72, 0
1, 90240, Note_on_c, 0, 75, 53
1, 90240, Note_on_c, 0, 79, 63
1, 90251, Control_c, 0, 64, 0
1, 90377, Control_c, 0, 64, 127
1, 90480, Tempo, 538117
1, 90480, Note_on_c, 0, 79, 0
1, 90480, Note_on_c, 0, 75, 0
1, 90480, Note_on_c, 0, 62, 0
1, 90480, Note_on_c, 0, 74, 50
1, 90480, Note_on_c, 0, 78, 59
1, 90480, Note_on_c, 0, 62, 50
1, 90720, Tempo, 533333
1, 90720, Note_on_c, 0, 78, 0
1, 90720, Note_on_c, 0, 74, 0
1, 90720, Note_on_c, 0, 81, 65
1, 90720, Note_on_c, 0, 78, 54
1, 90732, Control_c, 0, 64, 0
1, 90880, Control_c, 0, 64, 127
1, 90960, Note_on_c, 0, 78, 0
1, 90960, Note_on_c, 0, 81, 0
1, 90960, Note_on_c, 0, 62, 0
1, 90960, Note_on_c, 0, 74, 53
1, 90960, Note_on_c, 0, 78, 63
1, 90960, Note_on_c, 0, 62, 48
1, 91200, Tempo, 546398
1, 91200, Note_on_c, 0, 78, 0
1, 91200, Note_on_c, 0, 74, 0
1, 91200, Note_on_c, 0, 72, 50
1, 91200, Note_on_c, 0, 75, 59
1, 91440, Note_on_c, 0, 75, 0
1, 91440, Note_on_c, 0, 72, 0
1, 91440, Note_on_c, 0, 62, 0
1, 91440, Note_on_c, 0, 67, 38
1, 91440, Note_on_c, 0, 69, 56
1, 91440, Note_on_c, 0, 62, 42
1, 91680, Note_on_c, 0, 69, 0
1, 91680, Note_on_c, 0, 67, 0
1, 91680, Note_on_c, 0, 66, 40
1, 91680, Note_on_c, 0, 74, 57
1, 91692, Control_c, 0, 64, 0
1, 91806, Control_c, 0, 64, 127
1, 91920, Note_on_c, 0, 74, 0
1, 91920, Note_on_c, 0, 66, 0
1, 91920, Note_on_c, 0, 62, 0
1, 91920, Note_on_c, 0, 69, 38
1, 91920, Note_on_c, 0, 72, 55
1, 91920, Note_on_c, 0, 62, 40
1, 92160, Tempo, 533950
1, 92160, Note_on_c, 0, 62, 0
1, 92160, Note_on_c, 0, 72, 0
1, 92160, Note_on_c, 0, 69, 0
1, 92160, Note_on_c, 0, 67, 51
1, 92160, Note_on_c, 0, 70, 60
1, 92170, Control_c, 0, 64, 0
1, 92337, Control_c, 0, 64, 127
1, 92400, Tempo, 530973
1, 92400, Note_on_c, 0, 63, 51
1, 92520, Note_on_c, 0, 63, 0
1, 92520, Note_on_c, 0, 65, 50
1, 92640, Tempo, 538117
1, 92640, Note_on_c, 0, 65, 0
1, 92640, Note_on_c, 0, 63, 54
1, 92880, Note_on_c, 0, 63, 0
1, 92880, Note_on_c, 0, 62, 49
1, 93120, Note_on_c, 0, 62, 0
1, 93120, Note_on_c, 0, 63, 54
1, 93360, Tempo, 556896
1, 93360, Note_on_c, 0, 63, 0
1, 93360, Note_on_c, 0, 62, 50
1, 93600, Tempo, 528634
1, 93600, Note_on_c, 0, 62, 0
1, 93600, Note_on_c, 0, 70, 0
1, 93600, Note_on_c, 0, 67, 0
1, 93600, Note_on_c, 0, 61, 51
1, 93613, Control_c, 0, 64, 0
1, 93737, Control_c, 0, 64, 127
1, 93840, Tempo, 535714
1, 93840, Note_on_c, 0, 75, 63
1, 94080, Tempo, 530973
1, 94080, Note_on_c, 0, 77, 66
1, 94100, Note_on_c, 0, 75, 0
1, 94320, Note_on_c, 0, 79, 64
1, 94340, Note_on_c, 0, 77, 0
1, 94560, Tempo, 541419
1, 94560, Note_on_c, 0, 77, 66
1, 94580, Note_on_c, 0, 79, 0
1, 94800, Note_on_c, 0, 75, 66
1, 94820, Note_on_c, 0, 77, 0
1, 95040, Note_on_c, 0, 75, 0
1, 95040, Note_on_c, 0, 61, 0
1, 95040, Note_on_c, 0, 84, 70
1, 95040, Note_on_c, 0, 79, 50
1, 95040, Note_on_c, 0, 75, 50
1, 95040, Note_on_c, 0, 73, 54
1, 95052, Control_c, 0, 64, 0
1, 95235, Control_c, 0, 64, 127
1, 95280, Note_on_c, 0, 75, 0
1, 95280, Note_on_c, 0, 84, 0
1, 95280, Note_on_c, 0, 79, 0
1, 95280, Note_on_c, 0, 82, 62
1, 95520, Note_on_c, 0, 82, 0
1, 95520, Note_on_c, 0, 79, 66
1, 95760, Tempo, 549099
1, 95760, Note_on_c, 0, 79, 0
1, 95760, Note_on_c, 0, 75, 57
1, 96000, Note_on_c, 0, 75, 0
1, 96000, Note_on_c, 0, 77, 61
1, 96240, Note_on_c, 0, 77, 0
1, 96240, Note_on_c, 0, 75, 57
1, 96480, Note_on_c, 0, 75, 0
1, 96480, Note_on_c, 0, 73, 0
1, 96480, Note_on_c, 0, 63, 45
1, 96480, Note_on_c, 0, 67, 45
1, 96480, Note_on_c, 0, 72, 54
1, 96480, Note_on_c, 0, 61, 51
1, 96489, Control_c, 0, 64, 0
1, 96520, Tempo, 538793
1, 96606, Control_c, 0, 64, 127
1, 96720, Note_on_c, 0, 72, 0
1, 96720, Note_on_c, 0, 70, 54
1, 96960, Note_on_c, 0, 70, 0
1, 96960, Note_on_c, 0, 63, 0
1, 96960, Note_on_c, 0, 67, 0
1, 96960, Note_on_c, 0, 67, 56
1, 97200, Note_on_c, 0, 67, 0
1, 97200, Note_on_c, 0, 70, 62
1, 97440, Note_on_c, 0, 70, 0
1, 97440, Note_on_c, 0, 75, 63
1, 97680, Note_on_c, 0, 75, 0
1, 97680, Note_on_c, 0, 79, 63
1, 97920, Tempo, 533950
1, 97920, Note_on_c, 0, 79, 0
1, 97920, Note_on_c, 0, 61, 0
1, 97920, Note_on_c, 0, 75, 62
1, 97920, Note_on_c, 0, 79, 62
1, 97920, Note_on_c, 0, 67, 62
1, 97920, Note_on_c, 0, 70, 62
1, 97920, Note_on_c, 0, 37, 56
1, 97931, Control_c, 0, 64, 0
1, 98046, Control_c, 0, 64, 127
1, 98160, Tempo, 541419
1, 98160, Note_on_c, 0, 37, 0
1, 98160, Note_on_c, 0, 63, 51
1, 98280, Note_on_c, 0, 63, 0
1, 98280, Note_on_c, 0, 65, 50
1, 98400, Note_on_c, 0, 65, 0
1, 98400, Note_on_c, 0, 63, 54
1, 98640, Note_on_c, 0, 63, 0
1, 98640, Note_on_c, 0, 62, 49
1, 98880, Note_on_c, 0, 62, 0
1, 98880, Note_on_c, 0, 63, 54
1, 99120, Tempo, 556896
1, 99120, Note_on_c, 0, 63, 0
1, 99120, Note_on_c, 0, 62, 50
1, 99360, Tempo, 541419
1, 99360, Note_on_c, 0, 62, 0
1, 99360, Note_on_c, 0, 67, 0
1, 99360, Note_on_c, 0, 75, 0
1, 99360, Note_on_c, 0, 79, 0
1, 99360, Note_on_c, 0, 70, 0
1, 99360, Note_on_c, 0, 61, 51
1, 99374, Control_c, 0, 64, 0
1, 99509, Control_c, 0, 64, 127
1, 99600, Note_on_c, 0, 75, 63
1, 99840, Tempo, 536337
1, 99840, Note_on_c, 0, 77, 66
1, 99860, Note_on_c, 0, 75, 0
1, 100080, Note_on_c, 0, 79, 64
1, 100100, Note_on_c, 0, 77, 0
1, 100320, Tempo, 541419
1, 100320, Note_on_c, 0, 77, 66
1, 100340, Note_on_c, 0, 79, 0
1, 100560, Note_on_c, 0, 75, 66
1, 100580, Note_on_c, 0, 77, 0
1, 100800, Note_on_c, 0, 75, 0
1, 100800, Note_on_c, 0, 61, 0
1, 100800, Note_on_c, 0, 84, 70
1, 100800, Note_on_c, 0, 79, 50
1, 100800, Note_on_c, 0, 75, 50
1, 100800, Note_on_c, 0, 73, 54
1, 100811, Control_c, 0, 64, 0
1, 101006, Control_c, 0, 64, 127
1, 101040, Note_on_c, 0, 75, 0
1, 101040, Note_on_c, 0, 84, 0
1, 101040, Note_on_c, 0, 79, 0
1, 101040, Note_on_c, 0, 82, 62
1, 101280, Note_on_c, 0, 82, 0
1, 101280, Note_on_c, 0, 79, 66
1, 101520, Tempo, 549099
1, 101520, Note_on_c, 0, 79, 0
1, 101520, Note_on_c, 0, 75, 57
1, 101760, Note_on_c, 0, 75, 0
1, 101760, Note_on_c, 0, 77, 61
1, 102000, Note_on_c, 0, 77, 0
1, 102000, Note_on_c, 0, 75, 57
1, 102240, Note_on_c, 0, 75, 0
1, 102240, Note_on_c, 0, 73, 0
1, 102240, Note_on_c, 0, 63, 45
1, 102240, Note_on_c, 0, 67, 45
1, 102240, Note_on_c, 0, 72, 54
1, 102240, Note_on_c, 0, 61, 51
1, 102250, Control_c, 0, 64, 0
1, 102280, Tempo, 538793
1, 102366, Control_c, 0, 64, 127
1, 102480, Note_on_c, 0, 72, 0
1, 102480, Note_on_c, 0, 70, 54
1, 102720, Note_on_c, 0, 70, 0
1, 102720, Note_on_c, 0, 63, 0
1, 102720, Note_on_c, 0, 67, 0
1, 102720, Note_on_c, 0, 67, 56
1, 102960, Note_on_c, 0, 67, 0
1, 102960, Note_on_c, 0, 70, 62
1, 103200, Note_on_c, 0, 70, 0
1, 103200, Note_on_c, 0, 75, 63
1, 103440, Note_on_c, 0, 75, 0
1, 103440, Note_on_c, 0, 79, 63
1, 103680, Tempo, 541908
1, 103680, Note_on_c, 0, 79, 0
1, 103680, Note_on_c, 0, 61, 0
1, 103680, Note_on_c, 0, 70, 69
1, 103680, Note_on_c, 0, 74, 69
1, 103680, Note_on_c, 0, 82, 69
1, 103680, Note_on_c, 0, 79, 69
1, 103680, Note_on_c, 0, 38, 57
1, 103691, Control_c, 0, 64, 0
1, 103920, Note_on_c, 0, 38, 0
1, 103920, Note_on_c, 0, 62, 55
1, 103948, Control_c, 0, 64, 127
1, 104400, Note_on_c, 0, 62, 0
1, 104400, Note_on_c, 0, 62, 50
1, 104640, Tempo, 542594
1, 104640, Note_on_c, 0, 79, 0
1, 104640, Note_on_c, 0, 82, 0
1, 104640, Note_on_c, 0, 70, 0
1, 104640, Note_on_c, 0, 74, 0
1, 104640, Note_on_c, 0, 70, 67
1, 104640, Note_on_c, 0, 74, 67
1, 104880, Note_on_c, 0, 62, 0
1, 104880, Note_on_c, 0, 62, 50
1, 105120, Tempo, 528634
1, 105120, Note_on_c, 0, 74, 0
1, 105120, Note_on_c, 0, 70, 0
1, 105120, Note_on_c, 0, 69, 60
1, 105120, Note_on_c, 0, 72, 60
1, 105131, Control_c, 0, 64, 0
1, 105292, Control_c, 0, 64, 127
1, 105360, Tempo, 538117
1, 105360, Note_on_c, 0, 72, 0
1, 105360, Note_on_c, 0, 69, 0
1, 105360, Note_on_c, 0, 62, 0
1, 105360, Note_on_c, 0, 72, 65
1, 105360, Note_on_c, 0, 75, 65
1, 105360, Note_on_c, 0, 62, 56
1, 105600, Tempo, 530973
1, 105600, Note_on_c, 0, 75, 0
1, 105600, Note_on_c, 0, 72, 0
1, 105600, Note_on_c, 0, 77, 70
1, 105600, Note_on_c, 0, 81, 70
1, 105616, Control_c, 0, 64, 0
1, 105840, Note_on_c, 0, 62, 0
1, 105840, Note_on_c, 0, 62, 53
1, 105863, Control_c, 0, 64, 127
1, 106080, Tempo, 530551
1, 106080, Note_on_c, 0, 81, 0
1, 106080, Note_on_c, 0, 77, 0
1, 106080, Note_on_c, 0, 74, 71
1, 106080, Note_on_c, 0, 77, 71
1, 106320, Tempo, 538117
1, 106320, Note_on_c, 0, 77, 0
1, 106320, Note_on_c, 0, 74, 0
1, 106320, Note_on_c, 0, 62, 0
1, 106320, Note_on_c, 0, 70, 63
1, 106320, Note_on_c, 0, 74, 63
1, 106320, Note_on_c, 0, 62, 51
1, 106560, Key_signature, -2, "major"
1, 106560, Tempo, 521739
1, 106560, Note_on_c, 0, 74, 0
1, 106560, Note_on_c, 0, 70, 0
1, 106560, Note_on_c, 0, 67, 66
1, 106560, Note_on_c, 0, 70, 66
1, 106680, Note_on_c, 0, 70, 0
1, 106680, Note_on_c, 0, 67, 0
1, 106800, Tempo, 530973
1, 106800, Note_on_c, 0, 62, 0
1, 106800, Note_on_c, 0, 75, 65
1, 106800, Note_on_c, 0, 79, 65
1, 106800, Note_on_c, 0, 62, 56
1, 106810, Control_c, 0, 64, 0
1, 106874, Control_c, 0, 64, 127
1, 106920, Note_on_c, 0, 79, 0
1, 106920, Note_on_c, 0, 75, 0
1, 107040, Tempo, 537683
1, 107040, Note_on_c, 0, 72, 66
1, 107040, Note_on_c, 0, 75, 66
1, 107160, Note_on_c, 0, 75, 0
1, 107160, Note_on_c, 0, 72, 0
1, 107280, Note_on_c, 0, 62, 0
1, 107280, Note_on_c, 0, 69, 61
1, 107280, Note_on_c, 0, 72, 61
1, 107280, Note_on_c, 0, 62, 50
1, 107400, Note_on_c, 0, 72, 0
1, 107400, Note_on_c, 0, 69, 0
1, 107520, Tempo, 528169
1, 107520, Note_on_c, 0, 66, 65
1, 107520, Note_on_c, 0, 69, 65
1, 107527, Control_c, 0, 64, 0
1, 107612, Control_c, 0, 64, 127
1, 107640, Note_on_c, 0, 69, 0
1, 107640, Note_on_c, 0, 66, 0
1, 107760, Tempo, 537683
1, 107760, Note_on_c, 0, 62, 0
1, 107760, Note_on_c, 0, 74, 60
1, 107760, Note_on_c, 0, 77, 60
1, 107760, Note_on_c, 0, 62, 50
1, 107880, Note_on_c, 0, 77, 0
1, 107880, Note_on_c, 0, 74, 0
1, 108000, Tempo, 540103
1, 108000, Note_on_c, 0, 70, 69
1, 108000, Note_on_c, 0, 74, 69
1, 108008, Control_c, 0, 64, 0
1, 108092, Control_c, 0, 64, 127
1, 108120, Note_on_c, 0, 74, 0
1, 108120, Note_on_c, 0, 70, 0
1, 108240, Tempo, 550055
1, 108240, Note_on_c, 0, 62, 0
1, 108240, Note_on_c, 0, 67, 64
1, 108240, Note_on_c, 0, 70, 64
1, 108240, Note_on_c, 0, 62, 50
1, 108360, Note_on_c, 0, 70, 0
1, 108360, Note_on_c, 0, 67, 0
1, 108480, Note_on_c, 0, 62, 0
1, 108480, Note_on_c, 0, 63, 68
1, 108480, Note_on_c, 0, 67, 68
1, 108480, Note_on_c, 0, 62, 45
1, 108482, Control_c, 0, 64, 0
1, 108558, Control_c, 0, 64, 127
1, 108720, Note_on_c, 0, 67, 0
1, 108720, Note_on_c, 0, 70, 62
1, 108960, Note_on_c, 0, 70, 0
1, 108960, Note_on_c, 0, 62, 0
1, 108960, Note_on_c, 0, 63, 0
1, 108960, Note_on_c, 0, 60, 54
1, 108960, Note_on_c, 0, 66, 54
1, 108960, Note_on_c, 0, 69, 64
1, 108960, Note_on_c, 0, 50, 42
1, 108970, Control_c, 0, 64, 0
1, 109045, Control_c, 0, 64, 127
1, 109200, Tempo, 557776
1, 109200, Note_on_c, 0, 69, 0
1, 109200, Note_on_c, 0, 74, 56
1, 109440, Tempo, 535714
1, 109440, Note_on_c, 0, 74, 0
1, 109440, Note_on_c, 0, 50, 0
1, 109440, Note_on_c, 0, 66, 0
1, 109440, Note_on_c, 0, 60, 0
1, 109440, Note_on_c, 0, 74, 70
1, 109440, Note_on_c, 0, 47, 53
1, 109453, Control_c, 0, 64, 0
1, 109577, Control_c, 0, 64, 127
1, 109920, Tempo, 543134
1, 109920, Note_on_c, 0, 47, 0
1, 109920, Note_on_c, 0, 60, 40
1, 109920, Note_on_c, 0, 62, 29
1, 109920, Note_on_c, 0, 65, 29
1, 109920, Note_on_c, 0, 68, 29
1, 109940, Control_c, 0, 64, 0
1, 110172, Control_c, 0, 64, 127
1, 110400, Note_on_c, 0, 60, 0
1, 110400, Note_on_c, 0, 59, 36
1, 110880, Tempo, 533286
1, 110880, Note_on_c, 0, 59, 0
1, 110880, Note_on_c, 0, 68, 0
1, 110880, Note_on_c, 0, 74, 0
1, 110880, Note_on_c, 0, 62, 0
1, 110880, Note_on_c, 0, 65, 0
1, 110880, Note_on_c, 0, 48, 51
1, 110889, Control_c, 0, 64, 0
1, 110976, Control_c, 0, 64, 127
1, 111120, Tempo, 523743
1, 111120, Note_on_c, 0, 72, 64
1, 111200, Note_on_c, 0, 72, 0
1, 111200, Note_on_c, 0, 74, 61
1, 111280, Note_on_c, 0, 74, 0
1, 111280, Note_on_c, 0, 72, 61
1, 111360, Note_on_c, 0, 72, 0
1, 111360, Note_on_c, 0, 48, 0
1, 111360, Note_on_c, 0, 71, 64
1, 111360, Note_on_c, 0, 67, 45
1, 111360, Note_on_c, 0, 63, 45
1, 111360, Note_on_c, 0, 57, 45
1, 111374, Control_c, 0, 64, 0
1, 111448, Control_c, 0, 64, 127
1, 111600, Tempo, 533286
1, 111600, Note_on_c, 0, 71, 0
1, 111600, Note_on_c, 0, 72, 61
1, 111840, Note_on_c, 0, 72, 0
1, 111840, Note_on_c, 0, 74, 64
1, 112080, Tempo, 540638
1, 112080, Note_on_c, 0, 74, 0
1, 112080, Note_on_c, 0, 75, 62
1, 112320, Tempo, 533286
1, 112320, Note_on_c, 0, 75, 0
1, 112320, Note_on_c, 0, 57, 0
1, 112320, Note_on_c, 0, 63, 0
1, 112320, Note_on_c, 0, 67, 0
1, 112320, Note_on_c, 0, 67, 61
1, 112320, Note_on_c, 0, 70, 61
1, 112320, Note_on_c, 0, 38, 51
1, 112323, Control_c, 0, 64, 0
1, 112560, Note_on_c, 0, 70, 0
1, 112560, Note_on_c, 0, 67, 0
1, 112560, Note_on_c, 0, 72, 63
1, 112560, Control_c, 0, 64, 127
1, 112800, Note_on_c, 0, 72, 0
1, 112800, Note_on_c, 0, 73, 66
1, 113040, Tempo, 540638
1, 113040, Note_on_c, 0, 73, 0
1, 113040, Note_on_c, 0, 74, 69
1, 113280, Tempo, 535714
1, 113280, Note_on_c, 0, 74, 0
1, 113280, Note_on_c, 0, 38, 0
1, 113280, Note_on_c, 0, 79, 70
1, 113280, Note_on_c, 0, 62, 44
1, 113291, Control_c, 0, 64, 0
1, 113417, Control_c, 0, 64, 127
1, 113520, Note_on_c, 0, 62, 0
1, 113520, Note_on_c, 0, 79, 0
1, 113520, Note_on_c, 0, 74, 66
1, 113760, Note_on_c, 0, 74, 0
1, 113760, Note_on_c, 0, 66, 68
1, 113760, Note_on_c, 0, 70, 68
1, 113760, Note_on_c, 0, 60, 51
1, 113760, Note_on_c, 0, 50, 51
1, 113771, Control_c, 0, 64, 0
1, 113827, Control_c, 0, 64, 127
1, 114000, Note_on_c, 0, 60, 0
1, 114000, Note_on_c, 0, 61, 44
1, 114240, Note_on_c, 0, 61, 0
1, 114240, Note_on_c, 0, 62, 51
1, 114480, Tempo, 545653
1, 114480, Note_on_c, 0, 62, 0
1, 114480, Note_on_c, 0, 61, 51
1, 114560, Note_on_c, 0, 61, 0
1, 114560, Note_on_c, 0, 62, 45
1, 114640, Note_on_c, 0, 62, 0
1, 114640, Note_on_c, 0, 61, 45
1, 114720, Note_on_c, 0, 61, 0
1, 114720, Note_on_c, 0, 66, 0
1, 114720, Note_on_c, 0, 70, 0
1, 114720, Note_on_c, 0, 69, 68
1, 114720, Note_on_c, 0, 60, 51
1, 114731, Control_c, 0, 64, 0
1, 114801, Control_c, 0, 64, 127
1, 114960, Note_on_c, 0, 60, 0
1, 114960, Note_on_c, 0, 50, 0
1, 114960, Note_on_c, 0, 50, 44
1, 115140, Tempo, 526085
1, 115140, Note_on_c, 0, 69, 0
1, 115140, Note_on_c, 0, 67, 55
1, 115170, Note_on_c, 0, 74, 56
1, 115200, Tempo, 540541
1, 115200, Note_on_c, 0, 50, 0
1, 115200, Note_on_c, 0, 79, 60
1, 115200, Note_on_c, 0, 43, 44
1, 115200, Note_on_c, 0, 50, 44
1, 115200, Note_on_c, 0, 58, 44
1, 115211, Control_c, 0, 64, 0
1, 115440, Tempo, 530973
1, 115440, Note_on_c, 0, 58, 0
1, 115440, Note_on_c, 0, 74, 0
1, 115440, Note_on_c, 0, 79, 0
1, 115440, Note_on_c, 0, 67, 0
1, 115440, Note_on_c, 0, 50, 0
1, 115440, Note_on_c, 0, 43, 0
1, 115440, Note_on_c, 0, 74, 57
1, 115440, Note_on_c, 0, 71, 53
1, 115560, Note_on_c, 0, 71, 0
1, 115560, Note_on_c, 0, 74, 0
1, 115680, Note_on_c, 0, 75, 60
1, 115680, Note_on_c, 0, 72, 57
1, 115800, Note_on_c, 0, 72, 0
1, 115800, Note_on_c, 0, 75, 0
1, 115920, Note_on_c, 0, 79, 57
1, 115920, Note_on_c, 0, 69, 54
1, 116040, Note_on_c, 0, 69, 0
1, 116040, Note_on_c, 0, 79, 0
1, 116160, Note_on_c, 0, 78, 64
1, 116160, Note_on_c, 0, 74, 57
1, 116280, Note_on_c, 0, 74, 0
1, 116280, Note_on_c, 0, 78, 0
1, 116400, Note_on_c, 0, 81, 59
1, 116400, Note_on_c, 0, 72, 53
1, 116520, Note_on_c, 0, 72, 0
1, 116520, Note_on_c, 0, 81, 0
1, 116640, Tempo, 524017
1, 116640, Note_on_c, 0, 79, 64
1, 116640, Note_on_c, 0, 70, 57
1, 116720, Note_on_c, 0, 79, 0
1, 116720, Note_on_c, 0, 81, 54
1, 116760, Note_on_c, 0, 70, 0
1, 116800, Note_on_c, 0, 81, 0
1, 116800, Note_on_c, 0, 79, 54
1, 116880, Tempo, 521739
1, 116880, Note_on_c, 0, 79, 0
1, 116880, Note_on_c, 0, 78, 59
1, 116880, Note_on_c, 0, 69, 55
1, 117000, Note_on_c, 0, 69, 0
1, 117000, Note_on_c, 0, 78, 0
1, 117120, Tempo, 524017
1, 117120, Note_on_c, 0, 79, 66
1, 117120, Note_on_c, 0, 70, 59
1, 117240, Note_on_c, 0, 70, 0
1, 117240, Note_on_c, 0, 79, 0
1, 117360, Tempo, 530973
1, 117360, Note_on_c, 0, 82, 64
1, 117360, Note_on_c, 0, 67, 57
1, 117480, Note_on_c, 0, 67, 0
1, 117480, Note_on_c, 0, 82, 0
1, 117600, Note_on_c, 0, 74, 61
1, 117600, Note_on_c, 0, 81, 69
1, 117600, Note_on_c, 0, 66, 62
1, 117720, Note_on_c, 0, 66, 0
1, 117720, Note_on_c, 0, 81, 0
1, 117720, Note_on_c, 0, 74, 0
1, 117840, Tempo, 543134
1, 117840, Note_on_c, 0, 86, 71
1, 117840, Note_on_c, 0, 62, 61
1, 117960, Note_on_c, 0, 62, 0
1, 117960, Note_on_c, 0, 86, 0
1, 118080, Tempo, 528448
1, 118080, Note_on_c, 0, 77, 68
1, 118080, Note_on_c, 0, 48, 51
1, 118172, Control_c, 0, 64, 127
1, 118560, Tempo, 543134
1, 118560, Note_on_c, 0, 48, 0
1, 118560, Note_on_c, 0, 66, 49
1, 118560, Note_on_c, 0, 60, 41
1, 118560, Note_on_c, 0, 63, 41
1, 118574, Control_c, 0, 64, 0
1, 118835, Control_c, 0, 64, 127
1, 119040, Note_on_c, 0, 66, 0
1, 119040, Note_on_c, 0, 77, 0
1, 119040, Note_on_c, 0, 75, 68
1, 119040, Note_on_c, 0, 67, 54
1, 119520, Tempo, 528448
1, 119520, Note_on_c, 0, 67, 0
1, 119520, Note_on_c, 0, 63, 0
1, 119520, Note_on_c, 0, 60, 0
1, 119520, Note_on_c, 0, 75, 0
1, 119520, Note_on_c, 0, 74, 64
1, 119520, Note_on_c, 0, 41, 51
1, 119530, Control_c, 0, 64, 0
1, 119594, Control_c, 0, 64, 127
1, 119600, Note_on_c, 0, 74, 0
1, 119600, Note_on_c, 0, 75, 55
1, 119680, Note_on_c, 0, 75, 0
1, 119680, Note_on_c, 0, 74, 55
1, 119760, Tempo, 523743
1, 119760, Note_on_c, 0, 74, 0
1, 119760, Note_on_c, 0, 72, 59
1, 120000, Tempo, 528448
1, 120000, Note_on_c, 0, 72, 0
1, 120000, Note_on_c, 0, 41, 0
1, 120000, Note_on_c, 0, 71, 64
1, 120000, Note_on_c, 0, 68, 55
1, 120000, Note_on_c, 0, 60, 41
1, 120000, Note_on_c, 0, 63, 41
1, 120013, Control_c, 0, 64, 0
1, 120114, Control_c, 0, 64, 127
1, 120240, Tempo, 533286
1, 120240, Note_on_c, 0, 71, 0
1, 120240, Note_on_c, 0, 72, 58
1, 120480, Note_on_c, 0, 72, 0
1, 120480, Note_on_c, 0, 68, 0
1, 120480, Note_on_c, 0, 74, 64
1, 120480, Note_on_c, 0, 69, 56
1, 120720, Tempo, 540638
1, 120720, Note_on_c, 0, 74, 0
1, 120720, Note_on_c, 0, 75, 58
1, 120960, Tempo, 535714
1, 120960, Note_on_c, 0, 75, 0
1, 120960, Note_on_c, 0, 69, 0
1, 120960, Note_on_c, 0, 60, 0
1, 120960, Note_on_c, 0, 63, 0
1, 120960, Note_on_c, 0, 74, 69
1, 120960, Note_on_c, 0, 46, 57
1, 120971, Control_c, 0, 64, 0
1, 121177, Control_c, 0, 64, 127
1, 121200, Tempo, 523743
1, 121440, Note_on_c, 0, 46, 0
1, 121440, Note_on_c, 0, 61, 46
1, 121440, Note_on_c, 0, 69, 55
1, 121440, Note_on_c, 0, 66, 46
1, 121680, Tempo, 533286
1, 121680, Note_on_c, 0, 66, 0
1, 121680, Note_on_c, 0, 69, 0
1, 121680, Note_on_c, 0, 61, 0
1, 121680, Note_on_c, 0, 62, 51
1, 121680, Note_on_c, 0, 70, 60
1, 121920, Note_on_c, 0, 70, 0
1, 121920, Note_on_c, 0, 62, 0
1, 121920, Note_on_c, 0, 74, 0
1, 121920, Note_on_c, 0, 68, 47
1, 121920, Note_on_c, 0, 73, 59
1, 121920, Note_on_c, 0, 59, 55
1, 121931, Control_c, 0, 64, 0
1, 122023, Control_c, 0, 64, 127
1, 122160, Tempo, 540638
1, 122160, Note_on_c, 0, 73, 0
1, 122160, Note_on_c, 0, 74, 56
1, 122400, Tempo, 523743
1, 122400, Note_on_c, 0, 74, 0
1, 122400, Note_on_c, 0, 59, 0
1, 122400, Note_on_c, 0, 68, 0
1, 122400, Note_on_c, 0, 67, 46
1, 122400, Note_on_c, 0, 77, 59
1, 122400, Note_on_c, 0, 48, 60
1, 122411, Control_c, 0, 64, 0
1, 122537, Control_c, 0, 64, 127
1, 122640, Note_on_c, 0, 77, 0
1, 122640, Note_on_c, 0, 75, 57
1, 122880, Tempo, 523743
1, 122880, Note_on_c, 0, 75, 0
1, 122880, Note_on_c, 0, 48, 0
1, 122880, Note_on_c, 0, 74, 64
1, 122880, Note_on_c, 0, 59, 49
1, 122897, Control_c, 0, 64, 0
1, 123075, Control_c, 0, 64, 127
1, 123080, Tempo, 526085
1, 123120, Note_on_c, 0, 59, 0
1, 123120, Note_on_c, 0, 74, 0
1, 123120, Note_on_c, 0, 75, 61
1, 123120, Note_on_c, 0, 60, 52
1, 123240, Tempo, 528448
1, 123360, Note_on_c, 0, 60, 0
1, 123360, Note_on_c, 0, 75, 0
1, 123360, Note_on_c, 0, 72, 69
1, 123360, Note_on_c, 0, 62, 55
1, 123440, Tempo, 530833
1, 123600, Tempo, 533286
1, 123600, Note_on_c, 0, 62, 0
1, 123600, Note_on_c, 0, 72, 0
1, 123600, Note_on_c, 0, 67, 66
1, 123600, Note_on_c, 0, 63, 57
1, 123760, Tempo, 535714
1, 123840, Note_on_c, 0, 63, 0
1, 123840, Note_on_c, 0, 67, 0
1, 123840, Note_on_c, 0, 67, 0
1, 123840, Note_on_c, 0, 65, 63
1, 123840, Note_on_c, 0, 70, 64
1, 123840, Note_on_c, 0, 74, 70
1, 123840, Note_on_c, 0, 41, 63
1, 123848, Control_c, 0, 64, 0
1, 124080, Tempo, 533286
1, 124080, Note_on_c, 0, 41, 0
1, 124080, Note_on_c, 0, 65, 0
1, 124080, Note_on_c, 0, 70, 0
1, 124080, Note_on_c, 0, 74, 0
1, 124080, Note_on_c, 0, 77, 57
1, 124080, Note_on_c, 0, 74, 53
1, 124200, Note_on_c, 0, 74, 0
1, 124200, Note_on_c, 0, 77, 0
1, 124320, Note_on_c, 0, 78, 60
1, 124320, Note_on_c, 0, 75, 57
1, 124440, Note_on_c, 0, 75, 0
1, 124440, Note_on_c, 0, 78, 0
1, 124560, Note_on_c, 0, 82, 57
1, 124560, Note_on_c, 0, 72, 54
1, 124680, Note_on_c, 0, 72, 0
1, 124680, Note_on_c, 0, 82, 0
1, 124800, Note_on_c, 0, 81, 64
1, 124800, Note_on_c, 0, 77, 57
1, 124920, Note_on_c, 0, 77, 0
1, 124920, Note_on_c, 0, 81, 0
1, 125040, Note_on_c, 0, 84, 59
1, 125040, Note_on_c, 0, 75, 53
1, 125160, Note_on_c, 0, 75, 0
1, 125160, Note_on_c, 0, 84, 0
1, 125280, Tempo, 514536
1, 125280, Note_on_c, 0, 82, 64
1, 125280, Note_on_c, 0, 74, 57
1, 125360, Note_on_c, 0, 82, 0
1, 125360, Note_on_c, 0, 84, 54
1, 125400, Note_on_c, 0, 74, 0
1, 125440, Note_on_c, 0, 84, 0
1, 125440, Note_on_c, 0, 82, 54
1, 125520, Note_on_c, 0, 82, 0
1, 125520, Note_on_c, 0, 81, 58
1, 125520, Note_on_c, 0, 73, 54
1, 125640, Note_on_c, 0, 73, 0
1, 125640, Note_on_c, 0, 81, 0
1, 125760, Tempo, 533286
1, 125760, Note_on_c, 0, 82, 63
1, 125760, Note_on_c, 0, 74, 57
1, 125880, Note_on_c, 0, 74, 0
1, 125880, Note_on_c, 0, 82, 0
1, 126000, Note_on_c, 0, 86, 63
1, 126000, Note_on_c, 0, 70, 52
1, 126120, Note_on_c, 0, 70, 0
1, 126120, Note_on_c, 0, 86, 0
1, 126240, Tempo, 528448
1, 126240, Note_on_c, 0, 77, 58
1, 126240, Note_on_c, 0, 84, 63
1, 126240, Note_on_c, 0, 69, 55
1, 126360, Note_on_c, 0, 69, 0
1, 126360, Note_on_c, 0, 84, 0
1, 126360, Note_on_c, 0, 77, 0
1, 126480, Tempo, 540638
1, 126480, Note_on_c, 0, 89, 60
1, 126480, Note_on_c, 0, 65, 51
1, 126600, Note_on_c, 0, 65, 0
1, 126600, Note_on_c, 0, 89, 0
1, 126720, Tempo, 533286
1, 126720, Note_on_c, 0, 46, 51
1, 126833, Control_c, 0, 64, 127
1, 126960, Tempo, 523743
1, 126960, Note_on_c, 0, 70, 64
1, 127200, Note_on_c, 0, 70, 0
1, 127200, Note_on_c, 0, 46, 0
1, 127200, Note_on_c, 0, 72, 64
1, 127200, Note_on_c, 0, 62, 45
1, 127200, Note_on_c, 0, 53, 45
1, 127219, Control_c, 0, 64, 0
1, 127412, Control_c, 0, 64, 127
1, 127440, Tempo, 533286
1, 127440, Note_on_c, 0, 72, 0
1, 127440, Note_on_c, 0, 74, 61
1, 127680, Note_on_c, 0, 74, 0
1, 127680, Note_on_c, 0, 77, 64
1, 127920, Tempo, 540638
1, 127920, Note_on_c, 0, 77, 0
1, 127920, Note_on_c, 0, 75, 62
1, 128160, Tempo, 533286
1, 128160, Note_on_c, 0, 75, 0
1, 128160, Note_on_c, 0, 53, 0
1, 128160, Note_on_c, 0, 62, 0
1, 128160, Note_on_c, 0, 74, 61
1, 128160, Note_on_c, 0, 46, 48
1, 128174, Control_c, 0, 64, 0
1, 128240, Note_on_c, 0, 74, 0
1, 128240, Note_on_c, 0, 75, 56
1, 128252, Control_c, 0, 64, 127
1, 128320, Note_on_c, 0, 75, 0
1, 128320, Note_on_c, 0, 74, 55
1, 128400, Note_on_c, 0, 74, 0
1, 128400, Note_on_c, 0, 71, 59
1, 128640, Note_on_c, 0, 71, 0
1, 128640, Note_on_c, 0, 46, 0
1, 128640, Note_on_c, 0, 70, 63
1, 128640, Note_on_c, 0, 63, 44
1, 128640, Note_on_c, 0, 59, 37
1, 128640, Note_on_c, 0, 54, 37
1, 128656, Control_c, 0, 64, 0
1, 128704, Control_c, 0, 64, 127
1, 128880, Tempo, 540638
1, 128880, Note_on_c, 0, 70, 0
1, 128880, Note_on_c, 0, 68, 57
1, 129120, Tempo, 535714
1, 129120, Note_on_c, 0, 68, 0
1, 129120, Note_on_c, 0, 66, 65
1, 129360, Note_on_c, 0, 66, 0
1, 129360, Note_on_c, 0, 70, 58
1, 129540, Note_on_c, 0, 70, 0
1, 129540, Note_on_c, 0, 70, 60
1, 129600, Note_on_c, 0, 70, 0
1, 129600, Note_on_c, 0, 63, 0
1, 129600, Note_on_c, 0, 59, 0
1, 129600, Note_on_c, 0, 54, 0
1, 129600, Note_on_c, 0, 65, 65
1, 129600, Note_on_c, 0, 46, 54
1, 129612, Control_c, 0, 64, 0
1, 129821, Control_c, 0, 64, 127
1, 129840, Tempo, 523743
1, 129840, Note_on_c, 0, 46, 0
1, 129840, Note_on_c, 0, 58, 52
1, 130080, Note_on_c, 0, 58, 0
1, 130080, Note_on_c, 0, 60, 54
1, 130320, Tempo, 530833
1, 130320, Note_on_c, 0, 60, 0
1, 130320, Note_on_c, 0, 62, 51
1, 130560, Note_on_c, 0, 62, 0
1, 130560, Note_on_c, 0, 65, 0
1, 130560, Note_on_c, 0, 68, 56
1, 130560, Note_on_c, 0, 70, 56
1, 130560, Note_on_c, 0, 65, 55
1, 130575, Control_c, 0, 64, 0
1, 130703, Control_c, 0, 64, 127
1, 130800, Tempo, 540638
1, 130800, Note_on_c, 0, 65, 0
1, 130800, Note_on_c, 0, 62, 53
1, 131040, Tempo, 526085
1, 131040, Note_on_c, 0, 62, 0
1, 131040, Note_on_c, 0, 70, 0
1, 131040, Note_on_c, 0, 68, 0
1, 131040, Note_on_c, 0, 66, 41
1, 131040, Note_on_c, 0, 70, 57
1, 131040, Note_on_c, 0, 63, 48
1, 131052, Control_c, 0, 64, 0
1, 131107, Control_c, 0, 64, 127
1, 131120, Note_on_c, 0, 63, 0
1, 131120, Note_on_c, 0, 65, 42
1, 131200, Note_on_c, 0, 65, 0
1, 131200, Note_on_c, 0, 63, 42
1, 131280, Note_on_c, 0, 63, 0
1, 131280, Note_on_c, 0, 62, 46
1, 131520, Tempo, 530833
1, 131520, Note_on_c, 0, 62, 0
1, 131520, Note_on_c, 0, 63, 55
1, 131720, Tempo, 533286
1, 131760, Note_on_c, 0, 63, 0
1, 131760, Note_on_c, 0, 65, 57
1, 131920, Tempo, 535714
1, 132000, Note_on_c, 0, 65, 0
1, 132000, Note_on_c, 0, 70, 0
1, 132000, Note_on_c, 0, 66, 0
1, 132000, Note_on_c, 0, 69, 67
1, 132000, Note_on_c, 0, 66, 61
1, 132015, Control_c, 0, 64, 0
1, 132080, Tempo, 538165
1, 132081, Control_c, 0, 64, 127
1, 132240, Note_on_c, 0, 69, 0
1, 132240, Note_on_c, 0, 75, 64
1, 132280, Tempo, 540638
1, 132440, Tempo, 543134
1, 132480, Tempo, 533286
1, 132480, Note_on_c, 0, 75, 0
1, 132480, Note_on_c, 0, 66, 0
1, 132480, Note_on_c, 0, 46, 51
1, 132492, Control_c, 0, 64, 0
1, 132697, Control_c, 0, 64, 127
1, 132720, Tempo, 523743
1, 132720, Note_on_c, 0, 70, 64
1, 132960, Note_on_c, 0, 70, 0
1, 132960, Note_on_c, 0, 46, 0
1, 132960, Note_on_c, 0, 71, 64
1, 132960, Note_on_c, 0, 56, 37
1, 132960, Note_on_c, 0, 68, 45
1, 132960, Note_on_c, 0, 62, 45
1, 132978, Control_c, 0, 64, 0
1, 133200, Tempo, 533286
1, 133200, Note_on_c, 0, 71, 0
1, 133200, Note_on_c, 0, 74, 61
1, 133269, Control_c, 0, 64, 127
1, 133440, Note_on_c, 0, 74, 0
1, 133440, Note_on_c, 0, 56, 0
1, 133440, Note_on_c, 0, 77, 67
1, 133440, Note_on_c, 0, 59, 37
1, 133680, Tempo, 540638
1, 133680, Note_on_c, 0, 77, 0
1, 133680, Note_on_c, 0, 78, 67
1, 133920, Tempo, 533286
1, 133920, Note_on_c, 0, 78, 0
1, 133920, Note_on_c, 0, 59, 0
1, 133920, Note_on_c, 0, 68, 0
1, 133920, Note_on_c, 0, 62, 0
1, 133920, Note_on_c, 0, 70, 41
1, 133920, Note_on_c, 0, 77, 61
1, 133920, Note_on_c, 0, 46, 48
1, 133933, Control_c, 0, 64, 0
1, 133966, Control_c, 0, 64, 127
1, 134000, Note_on_c, 0, 77, 0
1, 134000, Note_on_c, 0, 78, 51
1, 134080, Note_on_c, 0, 78, 0
1, 134080, Note_on_c, 0, 77, 51
1, 134160, Note_on_c, 0, 77, 0
1, 134160, Note_on_c, 0, 70, 0
1, 134160, Note_on_c, 0, 75, 54
1, 134400, Note_on_c, 0, 75, 0
1, 134400, Note_on_c, 0, 46, 0
1, 134400, Note_on_c, 0, 71, 65
1, 134400, Note_on_c, 0, 66, 44
1, 134400, Note_on_c, 0, 58, 37
1, 134412, Control_c, 0, 64, 0
1, 134469, Control_c, 0, 64, 127
1, 134640, Tempo, 540638
1, 134640, Note_on_c, 0, 71, 0
1, 134640, Note_on_c, 0, 70, 58
1, 134880, Tempo, 535714
1, 134880, Note_on_c, 0, 70, 0
1, 134880, Note_on_c, 0, 66, 65
1, 135120, Note_on_c, 0, 66, 0
1, 135120, Note_on_c, 0, 70, 58
1, 135300, Note_on_c, 0, 70, 0
1, 135300, Note_on_c, 0, 70, 60
1, 135360, Tempo, 586568
1, 135360, Note_on_c, 0, 70, 0
1, 135360, Note_on_c, 0, 58, 0
1, 135360, Note_on_c, 0, 66, 0
1, 135360, Note_on_c, 0, 65, 63
1, 135360, Note_on_c, 0, 46, 57
1, 135373, Control_c, 0, 64, 0
1, 135516, Control_c, 0, 64, 127
1, 135600, Tempo, 523743
1, 135600, Note_on_c, 0, 46, 0
1, 135600, Note_on_c, 0, 58, 55
1, 135840, Note_on_c, 0, 58, 0
1, 135840, Note_on_c, 0, 60, 57
1, 136080, Tempo, 530833
1, 136080, Note_on_c, 0, 60, 0
1, 136080, Note_on_c, 0, 62, 54
1, 136320, Note_on_c, 0, 62, 0
1, 136320, Note_on_c, 0, 65, 0
1, 136320, Note_on_c, 0, 68, 56
1, 136320, Note_on_c, 0, 70, 56
1, 136320, Note_on_c, 0, 65, 58
1, 136335, Control_c, 0, 64, 0
1, 136411, Control_c, 0, 64, 127
1, 136560, Tempo, 540638
1, 136560, Note_on_c, 0, 65, 0
1, 136560, Note_on_c, 0, 62, 56
1, 136800, Tempo, 526085
1, 136800, Note_on_c, 0, 62, 0
1, 136800, Note_on_c, 0, 70, 0
1, 136800, Note_on_c, 0, 68, 0
1, 136800, Note_on_c, 0, 66, 48
1, 136800, Note_on_c, 0, 70, 65
1, 136800, Note_on_c, 0, 63, 52
1, 136813, Control_c, 0, 64, 0
1, 136880, Note_on_c, 0, 63, 0
1, 136880, Note_on_c, 0, 65, 44
1, 136892, Control_c, 0, 64, 127
1, 136960, Note_on_c, 0, 65, 0
1, 136960, Note_on_c, 0, 63, 44
1, 137040, Note_on_c, 0, 63, 0
1, 137040, Note_on_c, 0, 62, 49
1, 137280, Tempo, 530833
1, 137280, Note_on_c, 0, 62, 0
1, 137280, Note_on_c, 0, 63, 58
1, 137480, Tempo, 533286
1, 137520, Note_on_c, 0, 63, 0
1, 137520, Note_on_c, 0, 65, 61
1, 137680, Tempo, 535714
1, 137757, Note_on_c, 0, 66, 0
1, 137760, Note_on_c, 0, 65, 0
1, 137760, Note_on_c, 0, 70, 0
1, 137760, Note_on_c, 0, 69, 67
1, 137760, Note_on_c, 0, 66, 65
1, 137774, Control_c, 0, 64, 0
1, 137838, Control_c, 0, 64, 127
1, 137840, Tempo, 538165
1, 138000, Note_on_c, 0, 69, 0
1, 138000, Note_on_c, 0, 75, 64
1, 138040, Tempo, 540638
1, 138200, Tempo, 543134
1, 138240, Note_on_c, 0, 75, 0
1, 138240, Note_on_c, 0, 66, 0
1, 138240, Note_on_c, 0, 74, 64
1, 138240, Note_on_c, 0, 46, 58
1, 138256, Control_c, 0, 64, 0
1, 138629, Control_c, 0, 64, 127
1, 138720, Note_on_c, 0, 46, 0
1, 138720, Note_on_c, 0, 64, 49
1, 138720, Note_on_c, 0, 62, 41
1, 138720, Note_on_c, 0, 58, 41
1, 139200, Note_on_c, 0, 64, 0
1, 139200, Note_on_c, 0, 74, 0
1, 139200, Note_on_c, 0, 65, 46
1, 139680, Tempo, 533286
1, 139680, Note_on_c, 0, 65, 0
1, 139680, Note_on_c, 0, 62, 0
1, 139680, Note_on_c, 0, 58, 0
1, 139680, Note_on_c, 0, 48, 51
1, 139692, Control_c, 0, 64, 0
1, 139776, Control_c, 0, 64, 127
1, 139920, Tempo, 523743
1, 139920, Note_on_c, 0, 72, 64
1, 140000, Note_on_c, 0, 72, 0
1, 140000, Note_on_c, 0, 74, 54
1, 140080, Note_on_c, 0, 74, 0
1, 140080, Note_on_c, 0, 72, 54
1, 140160, Note_on_c, 0, 72, 0
1, 140160, Note_on_c, 0, 48, 0
1, 140160, Note_on_c, 0, 71, 58
1, 140160, Note_on_c, 0, 70, 38
1, 140160, Note_on_c, 0, 67, 38
1, 140160, Note_on_c, 0, 63, 38
1, 140160, Note_on_c, 0, 60, 38
1, 140176, Control_c, 0, 64, 0
1, 140248, Control_c, 0, 64, 127
1, 140400, Tempo, 533286
1, 140400, Note_on_c, 0, 71, 0
1, 140400, Note_on_c, 0, 72, 61
1, 140640, Note_on_c, 0, 72, 0
1, 140640, Note_on_c, 0, 70, 0
1, 140640, Note_on_c, 0, 74, 64
1, 140640, Note_on_c, 0, 69, 45
1, 140880, Tempo, 540638
1, 140880, Note_on_c, 0, 74, 0
1, 140880, Note_on_c, 0, 75, 62
1, 141120, Tempo, 528634
1, 141120, Note_on_c, 0, 75, 0
1, 141120, Note_on_c, 0, 69, 0
1, 141120, Note_on_c, 0, 60, 0
1, 141120, Note_on_c, 0, 67, 0
1, 141120, Note_on_c, 0, 63, 0
1, 141120, Note_on_c, 0, 67, 61
1, 141120, Note_on_c, 0, 70, 61
1, 141120, Note_on_c, 0, 38, 51
1, 141136, Control_c, 0, 64, 0
1, 141337, Control_c, 0, 64, 127
1, 141360, Note_on_c, 0, 70, 0
1, 141360, Note_on_c, 0, 67, 0
1, 141360, Note_on_c, 0, 72, 63
1, 141600, Note_on_c, 0, 72, 0
1, 141600, Note_on_c, 0, 73, 66
1, 141840, Tempo, 540638
1, 141840, Note_on_c, 0, 73, 0
1, 141840, Note_on_c, 0, 74, 69
1, 142080, Tempo, 528634
1, 142080, Note_on_c, 0, 74, 0
1, 142080, Note_on_c, 0, 38, 0
1, 142080, Note_on_c, 0, 79, 70
1, 142080, Note_on_c, 0, 62, 44
1, 142093, Control_c, 0, 64, 0
1, 142263, Control_c, 0, 64, 127
1, 142320, Tempo, 535714
1, 142320, Note_on_c, 0, 62, 0
1, 142320, Note_on_c, 0, 79, 0
1, 142320, Note_on_c, 0, 74, 66
1, 142560, Note_on_c, 0, 74, 0
1, 142560, Note_on_c, 0, 66, 59
1, 142560, Note_on_c, 0, 70, 68
1, 142560, Note_on_c, 0, 60, 51
1, 142560, Note_on_c, 0, 50, 48
1, 142574, Control_c, 0, 64, 0
1, 142617, Control_c, 0, 64, 127
1, 142800, Note_on_c, 0, 60, 0
1, 142800, Note_on_c, 0, 61, 44
1, 143040, Note_on_c, 0, 61, 0
1, 143040, Note_on_c, 0, 62, 51
1, 143280, Tempo, 545653
1, 143280, Note_on_c, 0, 62, 0
1, 143280, Note_on_c, 0, 61, 51
1, 143360, Note_on_c, 0, 61, 0
1, 143360, Note_on_c, 0, 62, 45
1, 143440, Note_on_c, 0, 62, 0
1, 143440, Note_on_c, 0, 61, 45
1, 143520, Note_on_c, 0, 61, 0
1, 143520, Note_on_c, 0, 66, 0
1, 143520, Note_on_c, 0, 70, 0
1, 143520, Note_on_c, 0, 69, 65
1, 143520, Note_on_c, 0, 60, 51
1, 143539, Control_c, 0, 64, 0
1, 143616, Control_c, 0, 64, 127
1, 143760, Note_on_c, 0, 60, 0
1, 143760, Note_on_c, 0, 50, 0
1, 143760, Note_on_c, 0, 50, 44
1, 143940, Tempo, 526085
1, 143940, Note_on_c, 0, 69, 0
1, 143940, Note_on_c, 0, 67, 55
1, 143970, Note_on_c, 0, 74, 56
1, 144000, Tempo, 538117
1, 144000, Note_on_c, 0, 50, 0
1, 144000, Note_on_c, 0, 79, 60
1, 144000, Control_c, 0, 64, 0
1, 144000, Note_on_c, 0, 43, 44
1, 144000, Note_on_c, 0, 50, 44
1, 144000, Note_on_c, 0, 58, 44
1, 144240, Tempo, 530973
1, 144240, Note_on_c, 0, 58, 0
1, 144240, Note_on_c, 0, 74, 0
1, 144240, Note_on_c, 0, 79, 0
1, 144240, Note_on_c, 0, 67, 0
1, 144240, Note_on_c, 0, 50, 0
1, 144240, Note_on_c, 0, 43, 0
1, 144240, Note_on_c, 0, 74, 57
1, 144240, Note_on_c, 0, 71, 53
1, 144360, Note_on_c, 0, 71, 0
1, 144360, Note_on_c, 0, 74, 0
1, 144480, Note_on_c, 0, 75, 60
1, 144480, Note_on_c, 0, 72, 57
1, 144600, Note_on_c, 0, 72, 0
1, 144600, Note_on_c, 0, 75, 0
1, 144720, Note_on_c, 0, 79, 57
1, 144720, Note_on_c, 0, 69, 54
1, 144840, Note_on_c, 0, 69, 0
1, 144840, Note_on_c, 0, 79, 0
1, 144960, Note_on_c, 0, 78, 64
1, 144960, Note_on_c, 0, 74, 57
1, 145080, Note_on_c, 0, 74, 0
1, 145080, Note_on_c, 0, 78, 0
1, 145200, Note_on_c, 0, 81, 59
1, 145200, Note_on_c, 0, 72, 53
1, 145320, Note_on_c, 0, 72, 0
1, 145320, Note_on_c, 0, 81, 0
1, 145440, Tempo, 517241
1, 145440, Note_on_c, 0, 79, 64
1, 145440, Note_on_c, 0, 70, 57
1, 145520, Note_on_c, 0, 79, 0
1, 145520, Note_on_c, 0, 81, 54
1, 145560, Note_on_c, 0, 70, 0
1, 145600, Note_on_c, 0, 81, 0
1, 145600, Note_on_c, 0, 79, 54
1, 145680, Tempo, 519481
1, 145680, Note_on_c, 0, 79, 0
1, 145680, Note_on_c, 0, 78, 58
1, 145680, Note_on_c, 0, 69, 54
1, 145800, Note_on_c, 0, 69, 0
1, 145800, Note_on_c, 0, 78, 0
1, 145920, Tempo, 524017
1, 145920, Note_on_c, 0, 79, 63
1, 145920, Note_on_c, 0, 70, 57
1, 146040, Note_on_c, 0, 70, 0
1, 146040, Note_on_c, 0, 79, 0
1, 146160, Tempo, 530973
1, 146160, Note_on_c, 0, 82, 60
1, 146160, Note_on_c, 0, 67, 54
1, 146280, Note_on_c, 0, 67, 0
1, 146280, Note_on_c, 0, 82, 0
1, 146400, Note_on_c, 0, 74, 63
1, 146400, Note_on_c, 0, 81, 63
1, 146400, Note_on_c, 0, 66, 57
1, 146520, Note_on_c, 0, 66, 0
1, 146520, Note_on_c, 0, 81, 0
1, 146520, Note_on_c, 0, 74, 0
1, 146640, Note_on_c, 0, 84, 60
1, 146640, Note_on_c, 0, 62, 55
1, 146760, Note_on_c, 0, 62, 0
1, 146760, Note_on_c, 0, 84, 0
1, 146880, Tempo, 517241
1, 146880, Note_on_c, 0, 82, 64
1, 146880, Note_on_c, 0, 67, 57
1, 147000, Note_on_c, 0, 67, 0
1, 147000, Note_on_c, 0, 82, 0
1, 147120, Tempo, 533333
1, 147120, Note_on_c, 0, 80, 63
1, 147120, Note_on_c, 0, 89, 63
1, 147120, Note_on_c, 0, 86, 63
1, 147120, Note_on_c, 0, 71, 52
1, 147240, Note_on_c, 0, 71, 0
1, 147240, Note_on_c, 0, 80, 0
1, 147240, Note_on_c, 0, 89, 0
1, 147240, Note_on_c, 0, 86, 0
1, 147360, Tempo, 530833
1, 147360, Note_on_c, 0, 88, 61
1, 147360, Note_on_c, 0, 84, 61
1, 147360, Note_on_c, 0, 79, 61
1, 147360, Note_on_c, 0, 72, 55
1, 147480, Note_on_c, 0, 72, 0
1, 147480, Note_on_c, 0, 88, 0
1, 147480, Note_on_c, 0, 84, 0
1, 147480, Note_on_c, 0, 79, 0
1, 147580, Tempo, 526085
1, 147600, Note_on_c, 0, 78, 60
1, 147600, Note_on_c, 0, 84, 60
1, 147600, Note_on_c, 0, 87, 60
1, 147600, Note_on_c, 0, 69, 52
1, 147720, Note_on_c, 0, 69, 0
1, 147720, Note_on_c, 0, 78, 0
1, 147720, Note_on_c, 0, 84, 0
1, 147720, Note_on_c, 0, 87, 0
1, 147800, Tempo, 528448
1, 147840, Note_on_c, 0, 86, 58
1, 147840, Note_on_c, 0, 79, 58
1, 147840, Note_on_c, 0, 70, 55
1, 147960, Note_on_c, 0, 70, 0
1, 147960, Note_on_c, 0, 79, 0
1, 147960, Note_on_c, 0, 86, 0
1, 148020, Tempo, 530833
1, 148080, Tempo, 548196
1, 148080, Note_on_c, 0, 84, 57
1, 148080, Note_on_c, 0, 81, 57
1, 148080, Note_on_c, 0, 74, 57
1, 148080, Note_on_c, 0, 66, 53
1, 148200, Note_on_c, 0, 66, 0
1, 148200, Note_on_c, 0, 84, 0
1, 148200, Note_on_c, 0, 81, 0
1, 148200, Note_on_c, 0, 74, 0
1, 148260, Tempo, 535714
1, 148320, Note_on_c, 0, 74, 65
1, 148320, Note_on_c, 0, 79, 65
1, 148320, Note_on_c, 0, 82, 65
1, 148320, Note_on_c, 0, 67, 57
1, 148412, Control_c, 0, 64, 127
1, 148560, Note_on_c, 0, 67, 0
1, 148560, Note_on_c, 0, 74, 0
1, 148560, Note_on_c, 0, 79, 0
1, 148560, Note_on_c, 0, 82, 0
1, 148560, Note_on_c, 0, 71, 60
1, 148560, Note_on_c, 0, 80, 60
1, 148560, Note_on_c, 0, 65, 52
1, 148800, Tempo, 535714
1, 148800, Note_on_c, 0, 65, 0
1, 148800, Note_on_c, 0, 80, 0
1, 148800, Note_on_c, 0, 71, 0
1, 148800, Note_on_c, 0, 79, 57
1, 148800, Note_on_c, 0, 72, 57
1, 148800, Note_on_c, 0, 64, 54
1, 148815, Control_c, 0, 64, 0
1, 148900, Tempo, 538165
1, 148915, Control_c, 0, 64, 127
1, 149000, Tempo, 540638
1, 149040, Note_on_c, 0, 64, 0
1, 149040, Note_on_c, 0, 72, 0
1, 149040, Note_on_c, 0, 73, 60
1, 149040, Note_on_c, 0, 63, 57
1, 149080, Tempo, 543134
1, 149180, Tempo, 545653
1, 149260, Tempo, 548196
1, 149280, Note_on_c, 0, 63, 0
1, 149280, Note_on_c, 0, 73, 0
1, 149280, Note_on_c, 0, 74, 62
1, 149280, Note_on_c, 0, 62, 58
1, 149294, Control_c, 0, 64, 0
1, 149406, Control_c, 0, 64, 127
1, 149520, Tempo, 572301
1, 149520, Note_on_c, 0, 62, 0
1, 149520, Note_on_c, 0, 74, 0
1, 149520, Note_on_c, 0, 79, 0
1, 149520, Note_on_c, 0, 82, 67
1, 149520, Note_on_c, 0, 79, 67
1, 149520, Note_on_c, 0, 75, 67
1, 149520, Note_on_c, 0, 61, 61
1, 149760, Tempo, 558659
1, 149760, Note_on_c, 0, 61, 0
1, 149760, Note_on_c, 0, 82, 0
1, 149760, Note_on_c, 0, 79, 0
1, 149760, Note_on_c, 0, 75, 0
1, 149760, Note_on_c, 0, 70, 70
1, 149760, Note_on_c, 0, 74, 70
1, 149760, Note_on_c, 0, 82, 70
1, 149760, Note_on_c, 0, 79, 70
1, 149760, Note_on_c, 0, 38, 59
1, 149773, Control_c, 0, 64, 0
1, 149986, Control_c, 0, 64, 127
1, 150000, Note_on_c, 0, 38, 0
1, 150000, Note_on_c, 0, 62, 57
1, 150480, Note_on_c, 0, 62, 0
1, 150480, Note_on_c, 0, 62, 51
1, 150720, Tempo, 533286
1, 150720, Note_on_c, 0, 79, 0
1, 150720, Note_on_c, 0, 82, 0
1, 150720, Note_on_c, 0, 70, 0
1, 150720, Note_on_c, 0, 74, 0
1, 150720, Note_on_c, 0, 70, 67
1, 150720, Note_on_c, 0, 74, 67
1, 150960, Note_on_c, 0, 62, 0
1, 150960, Note_on_c, 0, 62, 51
1, 151200, Tempo, 521422
1, 151200, Note_on_c, 0, 74, 0
1, 151200, Note_on_c, 0, 70, 0
1, 151200, Note_on_c, 0, 69, 61
1, 151200, Note_on_c, 0, 72, 61
1, 151216, Control_c, 0, 64, 0
1, 151292, Control_c, 0, 64, 127
1, 151320, Note_on_c, 0, 72, 0
1, 151320, Note_on_c, 0, 69, 0
1, 151440, Tempo, 533286
1, 151440, Note_on_c, 0, 62, 0
1, 151440, Note_on_c, 0, 72, 67
1, 151440, Note_on_c, 0, 75, 67
1, 151440, Note_on_c, 0, 62, 54
1, 151560, Note_on_c, 0, 75, 0
1, 151560, Note_on_c, 0, 72, 0
1, 151680, Tempo, 533286
1, 151680, Note_on_c, 0, 77, 70
1, 151680, Note_on_c, 0, 81, 70
1, 151692, Control_c, 0, 64, 0
1, 151878, Control_c, 0, 64, 127
1, 151920, Note_on_c, 0, 81, 0
1, 151920, Note_on_c, 0, 77, 0
1, 151920, Note_on_c, 0, 62, 0
1, 151920, Note_on_c, 0, 62, 54
1, 152160, Tempo, 521422
1, 152160, Note_on_c, 0, 74, 71
1, 152160, Note_on_c, 0, 77, 71
1, 152280, Note_on_c, 0, 77, 0
1, 152280, Note_on_c, 0, 74, 0
1, 152400, Tempo, 533333
1, 152400, Note_on_c, 0, 62, 0
1, 152400, Note_on_c, 0, 70, 65
1, 152400, Note_on_c, 0, 74, 65
1, 152400, Note_on_c, 0, 62, 52
1, 152520, Note_on_c, 0, 74, 0
1, 152520, Note_on_c, 0, 70, 0
1, 152640, Tempo, 524017
1, 152640, Note_on_c, 0, 67, 68
1, 152640, Note_on_c, 0, 70, 68
1, 152760, Note_on_c, 0, 70, 0
1, 152760, Note_on_c, 0, 67, 0
1, 152880, Tempo, 530973
1, 152880, Note_on_c, 0, 62, 0
1, 152880, Note_on_c, 0, 75, 63
1, 152880, Note_on_c, 0, 79, 63
1, 152880, Note_on_c, 0, 62, 58
1, 152892, Control_c, 0, 64, 0
1, 153000, Note_on_c, 0, 79, 0
1, 153000, Note_on_c, 0, 75, 0
1, 153035, Control_c, 0, 64, 127
1, 153120, Tempo, 528448
1, 153120, Note_on_c, 0, 72, 67
1, 153120, Note_on_c, 0, 75, 67
1, 153240, Note_on_c, 0, 75, 0
1, 153240, Note_on_c, 0, 72, 0
1, 153360, Note_on_c, 0, 62, 0
1, 153360, Note_on_c, 0, 69, 63
1, 153360, Note_on_c, 0, 72, 63
1, 153360, Note_on_c, 0, 62, 51
1, 153480, Note_on_c, 0, 72, 0
1, 153480, Note_on_c, 0, 69, 0
1, 153600, Tempo, 523743
1, 153600, Note_on_c, 0, 66, 67
1, 153600, Note_on_c, 0, 69, 67
1, 153615, Control_c, 0, 64, 0
1, 153720, Note_on_c, 0, 69, 0
1, 153720, Note_on_c, 0, 66, 0
1, 153720, Control_c, 0, 64, 127
1, 153840, Tempo, 533286
1, 153840, Note_on_c, 0, 62, 0
1, 153840, Note_on_c, 0, 74, 64
1, 153840, Note_on_c, 0, 77, 64
1, 153840, Note_on_c, 0, 62, 51
1, 153960, Note_on_c, 0, 77, 0
1, 153960, Note_on_c, 0, 74, 0
1, 154080, Note_on_c, 0, 70, 70
1, 154080, Note_on_c, 0, 74, 70
1, 154095, Control_c, 0, 64, 0
1, 154217, Control_c, 0, 64, 127
1, 154320, Tempo, 540638
1, 154320, Note_on_c, 0, 74, 0
1, 154320, Note_on_c, 0, 70, 0
1, 154320, Note_on_c, 0, 62, 0
1, 154320, Note_on_c, 0, 67, 65
1, 154320, Note_on_c, 0, 70, 65
1, 154320, Note_on_c, 0, 62, 51
1, 154560, Tempo, 547945
1, 154560, Note_on_c, 0, 62, 0
1, 154560, Note_on_c, 0, 70, 0
1, 154560, Note_on_c, 0, 67, 0
1, 154560, Note_on_c, 0, 63, 62
1, 154560, Note_on_c, 0, 67, 69
1, 154560, Note_on_c, 0, 62, 46
1, 154573, Control_c, 0, 64, 0
1, 154663, Control_c, 0, 64, 127
1, 154800, Note_on_c, 0, 67, 0
1, 154800, Note_on_c, 0, 70, 63
1, 155040, Tempo, 550459
1, 155040, Note_on_c, 0, 70, 0
1, 155040, Note_on_c, 0, 62, 0
1, 155040, Note_on_c, 0, 63, 0
1, 155040, Note_on_c, 0, 60, 55
1, 155040, Note_on_c, 0, 66, 55
1, 155040, Note_on_c, 0, 69, 65
1, 155040, Note_on_c, 0, 50, 43
1, 155049, Control_c, 0, 64, 0
1, 155177, Control_c, 0, 64, 127
1, 155280, Tempo, 571429
1, 155280, Note_on_c, 0, 69, 0
1, 155280, Note_on_c, 0, 70, 59
1, 155520, Tempo, 555556
1, 155520, Note_on_c, 0, 70, 0
1, 155520, Note_on_c, 0, 50, 0
1, 155520, Note_on_c, 0, 66, 0
1, 155520, Note_on_c, 0, 60, 0
1, 155520, Note_on_c, 0, 59, 45
1, 155520, Note_on_c, 0, 62, 45
1, 155520, Note_on_c, 0, 67, 45
1, 155520, Note_on_c, 0, 71, 53
1, 155520, Note_on_c, 0, 43, 46
1, 155528, Control_c, 0, 64, 0
1, 155594, Control_c, 0, 64, 127
1, 155760, Note_on_c, 0, 43, 0
1, 155760, Note_on_c, 0, 49, 43
1, 156000, Tempo, 579710
1, 156000, Note_on_c, 0, 49, 0
1, 156000, Note_on_c, 0, 50, 46
1, 156014, Control_c, 0, 64, 0
1, 156099, Control_c, 0, 64, 127
1, 156240, Tempo, 566038
1, 156240, Note_on_c, 0, 50, 0
1, 156240, Note_on_c, 0, 53, 43
1, 156360, Note_on_c, 0, 51, 47
1, 156380, Note_on_c, 0, 53, 0
1, 156420, Note_on_c, 0, 53, 42
1, 156440, Note_on_c, 0, 51, 0
1, 156480, Tempo, 558140
1, 156480, Note_on_c, 0, 51, 51
1, 156495, Control_c, 0, 64, 0
1, 156500, Note_on_c, 0, 53, 0
1, 156547, Control_c, 0, 64, 127
1, 156720, Note_on_c, 0, 51, 0
1, 156720, Note_on_c, 0, 50, 51
1, 156960, Tempo, 552995
1, 156960, Note_on_c, 0, 50, 0
1, 156960, Note_on_c, 0, 67, 0
1, 156960, Note_on_c, 0, 59, 0
1, 156960, Note_on_c, 0, 62, 0
1, 156960, Note_on_c, 0, 71, 0
1, 156960, Note_on_c, 0, 56, 50
1, 156960, Note_on_c, 0, 43, 39
1, 156960, Note_on_c, 0, 51, 47
1, 156971, Control_c, 0, 64, 0
1, 157200, Note_on_c, 0, 56, 0
1, 157200, Note_on_c, 0, 60, 51
1, 157211, Control_c, 0, 64, 127
1, 157440, Tempo, 558140
1, 157440, Note_on_c, 0, 60, 0
1, 157440, Note_on_c, 0, 63, 53
1, 157680, Note_on_c, 0, 63, 0
1, 157680, Note_on_c, 0, 68, 54
1, 157920, Tempo, 571429
1, 157920, Note_on_c, 0, 68, 0
1, 157920, Note_on_c, 0, 70, 56
1, 158160, Tempo, 588235
1, 158160, Note_on_c, 0, 70, 0
1, 158160, Note_on_c, 0, 72, 58
1, 158400, Tempo, 560748
1, 158400, Note_on_c, 0, 72, 0
1, 158400, Note_on_c, 0, 51, 0
1, 158400, Note_on_c, 0, 43, 0
1, 158400, Note_on_c, 0, 62, 45
1, 158400, Note_on_c, 0, 67, 45
1, 158400, Note_on_c, 0, 71, 45
1, 158400, Note_on_c, 0, 74, 53
1, 158400, Note_on_c, 0, 43, 46
1, 158412, Control_c, 0, 64, 0
1, 158474, Control_c, 0, 64, 127
1, 158640, Note_on_c, 0, 43, 0
1, 158640, Note_on_c, 0, 49, 43
1, 158880, Tempo, 582524
1, 158880, Note_on_c, 0, 49, 0
1, 158880, Note_on_c, 0, 50, 46
1, 158895, Control_c, 0, 64, 0
1, 158954, Control_c, 0, 64, 127
1, 159120, Tempo, 568720
1, 159120, Note_on_c, 0, 50, 0
1, 159120, Note_on_c, 0, 53, 43
1, 159240, Note_on_c, 0, 51, 47
1, 159260, Note_on_c, 0, 53, 0
1, 159300, Note_on_c, 0, 53, 42
1, 159320, Note_on_c, 0, 51, 0
1, 159360, Tempo, 560748
1, 159360, Note_on_c, 0, 51, 51
1, 159374, Control_c, 0, 64, 0
1, 159380, Note_on_c, 0, 53, 0
1, 159409, Control_c, 0, 64, 127
1, 159600, Tempo, 588235
1, 159600, Note_on_c, 0, 51, 0
1, 159600, Note_on_c, 0, 50, 51
1, 159840, Tempo, 571429
1, 159840, Note_on_c, 0, 50, 0
1, 159840, Note_on_c, 0, 71, 0
1, 159840, Note_on_c, 0, 62, 0
1, 159840, Note_on_c, 0, 67, 0
1, 159840, Note_on_c, 0, 74, 0
1, 159840, Note_on_c, 0, 56, 50
1, 159840, Note_on_c, 0, 43, 39
1, 159840, Note_on_c, 0, 51, 47
1, 159851, Control_c, 0, 64, 0
1, 160080, Note_on_c, 0, 56, 0
1, 160080, Note_on_c, 0, 58, 51
1, 160091, Control_c, 0, 64, 127
1, 160320, Tempo, 563380
1, 160320, Note_on_c, 0, 58, 0
1, 160320, Note_on_c, 0, 60, 56
1, 160360, Tempo, 563380
1, 160480, Tempo, 566038
1, 160480, Note_on_c, 0, 60, 0
1, 160480, Note_on_c, 0, 63, 53
1, 160560, Tempo, 568720
1, 160640, Tempo, 571429
1, 160640, Note_on_c, 0, 63, 0
1, 160640, Note_on_c, 0, 68, 53
1, 160720, Tempo, 574163
1, 160800, Tempo, 579710
1, 160800, Note_on_c, 0, 68, 0
1, 160800, Note_on_c, 0, 72, 57
1, 160840, Tempo, 582524
1, 160880, Tempo, 585366
1, 160920, Tempo, 588235
1, 160960, Tempo, 591133
1, 160960, Note_on_c, 0, 72, 0
1, 160960, Note_on_c, 0, 75, 53
1, 161000, Tempo, 594059
1, 161040, Tempo, 597015
1, 161080, Tempo, 600000
1, 161120, Tempo, 645161
1, 161120, Note_on_c, 0, 75, 0
1, 161120, Note_on_c, 0, 84, 53
1, 161280, Tempo, 571429
1, 161280, Note_on_c, 0, 84, 0
1, 161280, Note_on_c, 0, 51, 0
1, 161280, Note_on_c, 0, 43, 0
1, 161280, Note_on_c, 0, 74, 55
1, 161280, Note_on_c, 0, 79, 55
1, 161280, Note_on_c, 0, 83, 55
1, 161280, Note_on_c, 0, 43, 46
1, 161293, Control_c, 0, 64, 0
1, 161354, Control_c, 0, 64, 127
1, 161520, Note_on_c, 0, 43, 0
1, 161520, Note_on_c, 0, 49, 43
1, 161760, Tempo, 597015
1, 161760, Note_on_c, 0, 49, 0
1, 161760, Note_on_c, 0, 50, 46
1, 161767, Control_c, 0, 64, 0
1, 161838, Control_c, 0, 64, 127
1, 162000, Tempo, 576923
1, 162000, Note_on_c, 0, 50, 0
1, 162000, Note_on_c, 0, 53, 43
1, 162120, Note_on_c, 0, 51, 47
1, 162140, Note_on_c, 0, 53, 0
1, 162180, Note_on_c, 0, 53, 42
1, 162200, Note_on_c, 0, 51, 0
1, 162240, Tempo, 571429
1, 162240, Note_on_c, 0, 51, 51
1, 162253, Control_c, 0, 64, 0
1, 162260, Note_on_c, 0, 53, 0
1, 162311, Control_c, 0, 64, 127
1, 162480, Tempo, 588235
1, 162480, Note_on_c, 0, 51, 0
1, 162480, Note_on_c, 0, 50, 51
1, 162720, Tempo, 576923
1, 162720, Note_on_c, 0, 50, 0
1, 162720, Note_on_c, 0, 55, 46
1, 162735, Control_c, 0, 64, 0
1, 162833, Control_c, 0, 64, 127
1, 162960, Note_on_c, 0, 55, 0
1, 162960, Note_on_c, 0, 59, 43
1, 163200, Tempo, 591133
1, 163200, Note_on_c, 0, 59, 0
1, 163200, Note_on_c, 0, 61, 46
1, 163214, Control_c, 0, 64, 0
1, 163271, Control_c, 0, 64, 127
1, 163440, Tempo, 579710
1, 163440, Note_on_c, 0, 61, 0
1, 163440, Note_on_c, 0, 62, 43
1, 163620, Note_on_c, 0, 65, 42
1, 163640, Note_on_c, 0, 62, 0
1, 163680, Tempo, 576923
1, 163680, Note_on_c, 0, 63, 51
1, 163694, Control_c, 0, 64, 0
1, 163700, Note_on_c, 0, 65, 0
1, 163733, Control_c, 0, 64, 127
1, 163920, Tempo, 612245
1, 163920, Note_on_c, 0, 63, 0
1, 163920, Note_on_c, 0, 62, 51
1, 164160, Tempo, 594059
1, 164160, Note_on_c, 0, 62, 0
1, 164160, Note_on_c, 0, 67, 46
1, 164171, Control_c, 0, 64, 0
1, 164213, Control_c, 0, 64, 127
1, 164400, Note_on_c, 0, 67, 0
1, 164400, Note_on_c, 0, 71, 43
1, 164640, Tempo, 631579
1, 164640, Note_on_c, 0, 71, 0
1, 164640, Note_on_c, 0, 73, 46
1, 164654, Control_c, 0, 64, 0
1, 164707, Control_c, 0, 64, 127
1, 164880, Tempo, 612245
1, 164880, Note_on_c, 0, 73, 0
1, 164880, Note_on_c, 0, 74, 43
1, 165060, Note_on_c, 0, 77, 42
1, 165080, Note_on_c, 0, 74, 0
1, 165120, Tempo, 659341
1, 165120, Note_on_c, 0, 75, 51
1, 165134, Control_c, 0, 64, 0
1, 165140, Note_on_c, 0, 77, 0
1, 165180, Control_c, 0, 64, 127
1, 165360, Tempo, 736196
1, 165360, Note_on_c, 0, 75, 0
1, 165360, Note_on_c, 0, 74, 51
1, 165600, Note_on_c, 0, 74, 0
1, 165600, Note_on_c, 0, 74, 0
1, 165600, Note_on_c, 0, 79, 0
1, 165600, Note_on_c, 0, 83, 0
1, 165600, Note_on_c, 0, 91, 51
1, 165600, Note_on_c, 0, 83, 43
1, 165600, Note_on_c, 0, 86, 43
1, 165600, Note_on_c, 0, 95, 51
1, 165600, Note_on_c, 0, 67, 32
1, 165600, Note_on_c, 0, 74, 32
1, 165600, Note_on_c, 0, 79, 32
1, 165613, Control_c, 0, 64, 0
1, 166054, Control_c, 0, 64, 127
1, 167040, Tempo, 857143
1, 167040, Note_on_c, 0, 79, 0
1, 167040, Note_on_c, 0, 67, 0
1, 167040, Note_on_c, 0, 83, 0
1, 167040, Note_on_c, 0, 86, 0
1, 167040, Note_on_c, 0, 91, 0
1, 167040, Note_on_c, 0, 74, 0
1, 167040, Note_on_c, 0, 95, 0
1, 167040, Note_on_c, 0, 59, 35
1, 167040, Note_on_c, 0, 62, 35
1, 167040, Note_on_c, 0, 67, 42
1, 167040, Note_on_c, 0, 71, 42
1, 167040, Note_on_c, 0, 43, 23
1, 167040, Note_on_c, 0, 50, 23
1, 167040, Note_on_c, 0, 55, 27
1, 168480, Tempo, 666667
1, 168480, Note_on_c, 0, 55, 0
1, 168480, Note_on_c, 0, 43, 0
1, 168480, Note_on_c, 0, 62, 0
1, 168480, Note_on_c, 0, 67, 0
1, 168480, Note_on_c, 0, 59, 0
1, 168480, Note_on_c, 0, 50, 0
1, 168480, Note_on_c, 0, 71, 0
1, 169520, Control_c, 0, 64, 0
1, 169520, End_track
0, 0, End_of_file
