0, 0, Header, 0, 1, 480
1, 0, Start_track
1, 0, Title_t, "Grande Sonata Opus 22 3. movement"
1, 0, Copyright_t, "Copyright © 2009 by Bernd Krueger"
1, 0, Text_t, "Ludwig van Beethoven"
1, 0, Text_t, "Minuetto"
1, 0, Text_t, "Erstellt: 24.10.2009\012"
1, 0, Text_t, "Update: 29.5.2012\012"
1, 0, Text_t, "Dauer: 3:03 Minuten\012"
1, 0, Time_signature, 3, 2, 24, 8
1, 0, Key_signature, -2, "major"
1, 0, Tempo, 540687
1, 0, Program_c, 0, 0
1, 0, Program_c, 0, 0
1, 0, Program_c, 0, 0
1, 960, Tempo, 508431
1, 960, Marker_t, "Teil 1"
1, 960, Note_on_c, 0, 62, 50
1, 1320, Tempo, 556948
1, 1320, Note_on_c, 0, 62, 0
1, 1320, Note_on_c, 0, 63, 46
1, 1440, Tempo, 506329
1, 1440, Note_on_c, 0, 63, 0
1, 1440, Note_on_c, 0, 65, 50
1, 1440, Note_on_c, 0, 46, 40
1, 1497, Control_c, 0, 64, 127
1, 1560, Note_on_c, 0, 46, 0
1, 1680, Note_on_c, 0, 58, 29
1, 1920, Note_on_c, 0, 58, 0
1, 1920, Note_on_c, 0, 62, 34
1, 1931, Control_c, 0, 64, 0
1, 1980, Control_c, 0, 64, 127
1, 2160, Note_on_c, 0, 62, 0
1, 2160, Note_on_c, 0, 58, 29
1, 2370, Note_on_c, 0, 65, 0
1, 2370, Note_on_c, 0, 69, 46
1, 2400, Tempo, 493827
1, 2400, Note_on_c, 0, 69, 0
1, 2400, Note_on_c, 0, 58, 0
1, 2400, Note_on_c, 0, 67, 50
1, 2400, Note_on_c, 0, 63, 34
1, 2415, Control_c, 0, 64, 0
1, 2520, Note_on_c, 0, 67, 0
1, 2520, Note_on_c, 0, 65, 45
1, 2640, Tempo, 517911
1, 2640, Note_on_c, 0, 65, 0
1, 2640, Note_on_c, 0, 63, 0
1, 2640, Note_on_c, 0, 67, 50
1, 2640, Note_on_c, 0, 60, 31
1, 2760, Note_on_c, 0, 67, 0
1, 2760, Note_on_c, 0, 69, 43
1, 2880, Tempo, 492611
1, 2880, Note_on_c, 0, 69, 0
1, 2880, Note_on_c, 0, 60, 0
1, 2880, Note_on_c, 0, 70, 50
1, 2880, Note_on_c, 0, 62, 40
1, 3120, Note_on_c, 0, 62, 0
1, 3120, Note_on_c, 0, 61, 30
1, 3360, Note_on_c, 0, 61, 0
1, 3360, Note_on_c, 0, 70, 0
1, 3360, Note_on_c, 0, 65, 41
1, 3360, Note_on_c, 0, 62, 34
1, 3420, Control_c, 0, 64, 127
1, 3600, Note_on_c, 0, 62, 0
1, 3600, Note_on_c, 0, 58, 30
1, 3780, Note_on_c, 0, 65, 0
1, 3810, Note_on_c, 0, 69, 43
1, 3840, Note_on_c, 0, 69, 0
1, 3840, Note_on_c, 0, 58, 0
1, 3840, Note_on_c, 0, 67, 50
1, 3840, Note_on_c, 0, 63, 34
1, 3859, Control_c, 0, 64, 0
1, 3960, Note_on_c, 0, 67, 0
1, 3960, Note_on_c, 0, 65, 46
1, 4080, Tempo, 515508
1, 4080, Note_on_c, 0, 65, 0
1, 4080, Note_on_c, 0, 63, 0
1, 4080, Note_on_c, 0, 67, 50
1, 4080, Note_on_c, 0, 60, 29
1, 4200, Note_on_c, 0, 67, 0
1, 4200, Note_on_c, 0, 69, 50
1, 4320, Tempo, 494805
1, 4320, Note_on_c, 0, 69, 0
1, 4320, Note_on_c, 0, 60, 0
1, 4320, Note_on_c, 0, 70, 50
1, 4320, Note_on_c, 0, 62, 40
1, 4380, Note_on_c, 0, 70, 0
1, 4560, Note_on_c, 0, 62, 0
1, 4560, Note_on_c, 0, 61, 30
1, 4680, Note_on_c, 0, 69, 46
1, 4740, Note_on_c, 0, 69, 0
1, 4800, Note_on_c, 0, 61, 0
1, 4800, Note_on_c, 0, 70, 56
1, 4800, Note_on_c, 0, 62, 34
1, 4860, Note_on_c, 0, 70, 0
1, 5040, Note_on_c, 0, 62, 0
1, 5040, Note_on_c, 0, 57, 30
1, 5160, Note_on_c, 0, 72, 48
1, 5220, Note_on_c, 0, 72, 0
1, 5280, Note_on_c, 0, 57, 0
1, 5280, Note_on_c, 0, 74, 55
1, 5280, Note_on_c, 0, 58, 34
1, 5340, Note_on_c, 0, 74, 0
1, 5520, Note_on_c, 0, 58, 0
1, 5520, Note_on_c, 0, 55, 30
1, 5640, Tempo, 543331
1, 5640, Note_on_c, 0, 76, 59
1, 5700, Note_on_c, 0, 76, 0
1, 5750, Note_on_c, 0, 55, 0
1, 5760, Tempo, 513128
1, 5760, Note_on_c, 0, 70, 53
1, 5760, Note_on_c, 0, 76, 63
1, 5760, Note_on_c, 0, 53, 40
1, 5760, Control_c, 0, 64, 127
1, 6240, Note_on_c, 0, 76, 0
1, 6240, Note_on_c, 0, 70, 0
1, 6240, Note_on_c, 0, 69, 48
1, 6240, Note_on_c, 0, 77, 57
1, 6240, Note_on_c, 0, 65, 35
1, 6256, Control_c, 0, 64, 0
1, 6480, Note_on_c, 0, 65, 0
1, 6480, Note_on_c, 0, 53, 0
1, 6480, Note_on_c, 0, 69, 0
1, 6480, Note_on_c, 0, 77, 0
1, 6690, Note_on_c, 0, 77, 43
1, 6720, Tempo, 492611
1, 6720, Note_on_c, 0, 77, 0
1, 6720, Note_on_c, 0, 75, 50
1, 6840, Note_on_c, 0, 75, 0
1, 6840, Note_on_c, 0, 74, 46
1, 6960, Note_on_c, 0, 74, 0
1, 6960, Note_on_c, 0, 75, 54
1, 7080, Note_on_c, 0, 75, 0
1, 7080, Note_on_c, 0, 77, 51
1, 7200, Note_on_c, 0, 77, 0
1, 7200, Note_on_c, 0, 79, 59
1, 7257, Control_c, 0, 64, 127
1, 7440, Note_on_c, 0, 53, 36
1, 7680, Note_on_c, 0, 79, 0
1, 7680, Note_on_c, 0, 72, 50
1, 7680, Note_on_c, 0, 57, 40
1, 7920, Note_on_c, 0, 57, 0
1, 7920, Note_on_c, 0, 60, 37
1, 8040, Tempo, 522830
1, 8100, Note_on_c, 0, 72, 0
1, 8130, Note_on_c, 0, 74, 43
1, 8160, Tempo, 490436
1, 8160, Note_on_c, 0, 74, 0
1, 8160, Note_on_c, 0, 60, 0
1, 8160, Note_on_c, 0, 72, 50
1, 8160, Note_on_c, 0, 63, 40
1, 8166, Control_c, 0, 64, 0
1, 8280, Note_on_c, 0, 72, 0
1, 8280, Note_on_c, 0, 71, 46
1, 8400, Note_on_c, 0, 71, 0
1, 8400, Note_on_c, 0, 72, 54
1, 8520, Note_on_c, 0, 72, 0
1, 8520, Note_on_c, 0, 74, 51
1, 8640, Note_on_c, 0, 74, 0
1, 8640, Note_on_c, 0, 75, 59
1, 8693, Control_c, 0, 64, 127
1, 8880, Note_on_c, 0, 63, 0
1, 8880, Note_on_c, 0, 53, 0
1, 8880, Note_on_c, 0, 53, 42
1, 9120, Note_on_c, 0, 75, 0
1, 9120, Note_on_c, 0, 69, 50
1, 9120, Note_on_c, 0, 60, 48
1, 9360, Note_on_c, 0, 60, 0
1, 9360, Note_on_c, 0, 63, 41
1, 9480, Tempo, 515508
1, 9540, Note_on_c, 0, 69, 0
1, 9570, Note_on_c, 0, 70, 43
1, 9600, Tempo, 490436
1, 9600, Note_on_c, 0, 70, 0
1, 9600, Note_on_c, 0, 63, 0
1, 9600, Note_on_c, 0, 69, 50
1, 9600, Note_on_c, 0, 66, 55
1, 9614, Control_c, 0, 64, 0
1, 9720, Note_on_c, 0, 69, 0
1, 9720, Note_on_c, 0, 67, 46
1, 9840, Note_on_c, 0, 67, 0
1, 9840, Note_on_c, 0, 69, 52
1, 9960, Tempo, 508431
1, 9960, Note_on_c, 0, 69, 0
1, 9960, Note_on_c, 0, 70, 48
1, 10040, Note_on_c, 0, 70, 0
1, 10050, Note_on_c, 0, 74, 43
1, 10080, Tempo, 490436
1, 10080, Note_on_c, 0, 74, 0
1, 10080, Note_on_c, 0, 72, 53
1, 10200, Note_on_c, 0, 72, 0
1, 10200, Note_on_c, 0, 71, 50
1, 10320, Note_on_c, 0, 71, 0
1, 10320, Note_on_c, 0, 72, 54
1, 10440, Tempo, 510769
1, 10440, Note_on_c, 0, 72, 0
1, 10440, Note_on_c, 0, 74, 51
1, 10520, Note_on_c, 0, 74, 0
1, 10530, Note_on_c, 0, 77, 43
1, 10560, Tempo, 492611
1, 10560, Note_on_c, 0, 77, 0
1, 10560, Note_on_c, 0, 66, 0
1, 10560, Note_on_c, 0, 53, 0
1, 10560, Note_on_c, 0, 75, 57
1, 10560, Note_on_c, 0, 65, 38
1, 10560, Note_on_c, 0, 53, 38
1, 10680, Note_on_c, 0, 75, 0
1, 10680, Note_on_c, 0, 74, 52
1, 10800, Note_on_c, 0, 74, 0
1, 10800, Note_on_c, 0, 75, 58
1, 10920, Note_on_c, 0, 75, 0
1, 10920, Note_on_c, 0, 77, 55
1, 11040, Note_on_c, 0, 77, 0
1, 11040, Note_on_c, 0, 53, 0
1, 11040, Note_on_c, 0, 65, 0
1, 11040, Note_on_c, 0, 79, 64
1, 11040, Note_on_c, 0, 53, 32
1, 11040, Note_on_c, 0, 63, 32
1, 11100, Note_on_c, 0, 79, 0
1, 11280, Tempo, 556948
1, 11400, Tempo, 622665
1, 11400, Note_on_c, 0, 69, 42
1, 11520, Tempo, 540687
1, 11520, Note_on_c, 0, 69, 0
1, 11520, Note_on_c, 0, 63, 0
1, 11520, Note_on_c, 0, 53, 0
1, 11520, Note_on_c, 0, 72, 50
1, 11520, Note_on_c, 0, 58, 30
1, 11520, Note_on_c, 0, 63, 36
1, 11619, Control_c, 0, 64, 127
1, 12000, Tempo, 568720
1, 12000, Note_on_c, 0, 63, 0
1, 12000, Note_on_c, 0, 72, 0
1, 12000, Note_on_c, 0, 70, 44
1, 12000, Note_on_c, 0, 62, 32
1, 12013, Control_c, 0, 64, 0
1, 12127, Control_c, 0, 64, 127
1, 12240, Note_on_c, 0, 62, 0
1, 12240, Note_on_c, 0, 70, 0
1, 12240, Note_on_c, 0, 58, 0
1, 12381, Control_c, 0, 64, 0
1, 12480, Tempo, 508431
1, 12480, Marker_t, "Teil 1 Wiederholung"
1, 12480, Note_on_c, 0, 62, 50
1, 12840, Tempo, 556948
1, 12840, Note_on_c, 0, 62, 0
1, 12840, Note_on_c, 0, 63, 46
1, 12960, Tempo, 504202
1, 12960, Note_on_c, 0, 63, 0
1, 12960, Note_on_c, 0, 65, 50
1, 12960, Note_on_c, 0, 46, 40
1, 13017, Control_c, 0, 64, 127
1, 13080, Note_on_c, 0, 46, 0
1, 13200, Note_on_c, 0, 58, 29
1, 13440, Note_on_c, 0, 58, 0
1, 13440, Note_on_c, 0, 62, 34
1, 13451, Control_c, 0, 64, 0
1, 13500, Control_c, 0, 64, 127
1, 13680, Note_on_c, 0, 62, 0
1, 13680, Note_on_c, 0, 58, 29
1, 13890, Note_on_c, 0, 65, 0
1, 13890, Note_on_c, 0, 69, 46
1, 13920, Tempo, 485830
1, 13920, Note_on_c, 0, 69, 0
1, 13920, Note_on_c, 0, 58, 0
1, 13920, Note_on_c, 0, 67, 50
1, 13920, Note_on_c, 0, 63, 34
1, 13935, Control_c, 0, 64, 0
1, 14040, Note_on_c, 0, 67, 0
1, 14040, Note_on_c, 0, 65, 45
1, 14160, Tempo, 517911
1, 14160, Note_on_c, 0, 65, 0
1, 14160, Note_on_c, 0, 63, 0
1, 14160, Note_on_c, 0, 67, 50
1, 14160, Note_on_c, 0, 60, 31
1, 14280, Note_on_c, 0, 67, 0
1, 14280, Note_on_c, 0, 69, 43
1, 14400, Tempo, 492611
1, 14400, Note_on_c, 0, 69, 0
1, 14400, Note_on_c, 0, 60, 0
1, 14400, Note_on_c, 0, 70, 50
1, 14400, Note_on_c, 0, 62, 40
1, 14640, Note_on_c, 0, 62, 0
1, 14640, Note_on_c, 0, 61, 30
1, 14880, Note_on_c, 0, 61, 0
1, 14880, Note_on_c, 0, 70, 0
1, 14880, Note_on_c, 0, 65, 41
1, 14880, Note_on_c, 0, 62, 34
1, 14940, Control_c, 0, 64, 127
1, 15120, Note_on_c, 0, 62, 0
1, 15120, Note_on_c, 0, 58, 30
1, 15300, Note_on_c, 0, 65, 0
1, 15330, Note_on_c, 0, 69, 43
1, 15360, Tempo, 483871
1, 15360, Note_on_c, 0, 69, 0
1, 15360, Note_on_c, 0, 58, 0
1, 15360, Note_on_c, 0, 67, 50
1, 15360, Note_on_c, 0, 63, 34
1, 15379, Control_c, 0, 64, 0
1, 15480, Note_on_c, 0, 67, 0
1, 15480, Note_on_c, 0, 65, 46
1, 15600, Tempo, 515508
1, 15600, Note_on_c, 0, 65, 0
1, 15600, Note_on_c, 0, 63, 0
1, 15600, Note_on_c, 0, 67, 50
1, 15600, Note_on_c, 0, 60, 29
1, 15720, Note_on_c, 0, 67, 0
1, 15720, Note_on_c, 0, 69, 50
1, 15840, Tempo, 494805
1, 15840, Note_on_c, 0, 69, 0
1, 15840, Note_on_c, 0, 60, 0
1, 15840, Note_on_c, 0, 70, 50
1, 15840, Note_on_c, 0, 62, 40
1, 15900, Note_on_c, 0, 70, 0
1, 16080, Note_on_c, 0, 62, 0
1, 16080, Note_on_c, 0, 61, 30
1, 16200, Note_on_c, 0, 69, 46
1, 16260, Note_on_c, 0, 69, 0
1, 16320, Note_on_c, 0, 61, 0
1, 16320, Note_on_c, 0, 70, 56
1, 16320, Note_on_c, 0, 62, 34
1, 16380, Note_on_c, 0, 70, 0
1, 16560, Note_on_c, 0, 62, 0
1, 16560, Note_on_c, 0, 57, 30
1, 16680, Note_on_c, 0, 72, 48
1, 16740, Note_on_c, 0, 72, 0
1, 16800, Tempo, 489796
1, 16800, Note_on_c, 0, 57, 0
1, 16800, Note_on_c, 0, 74, 55
1, 16800, Note_on_c, 0, 58, 34
1, 16860, Note_on_c, 0, 74, 0
1, 17040, Note_on_c, 0, 58, 0
1, 17040, Note_on_c, 0, 55, 30
1, 17160, Tempo, 543331
1, 17160, Note_on_c, 0, 76, 59
1, 17220, Note_on_c, 0, 76, 0
1, 17270, Note_on_c, 0, 55, 0
1, 17280, Tempo, 513128
1, 17280, Note_on_c, 0, 70, 53
1, 17280, Note_on_c, 0, 76, 63
1, 17280, Note_on_c, 0, 53, 40
1, 17280, Control_c, 0, 64, 127
1, 17760, Note_on_c, 0, 76, 0
1, 17760, Note_on_c, 0, 70, 0
1, 17760, Note_on_c, 0, 69, 48
1, 17760, Note_on_c, 0, 77, 57
1, 17760, Note_on_c, 0, 65, 35
1, 17776, Control_c, 0, 64, 0
1, 18000, Note_on_c, 0, 65, 0
1, 18000, Note_on_c, 0, 53, 0
1, 18000, Note_on_c, 0, 69, 0
1, 18000, Note_on_c, 0, 77, 0
1, 18210, Note_on_c, 0, 77, 43
1, 18240, Tempo, 492611
1, 18240, Note_on_c, 0, 77, 0
1, 18240, Note_on_c, 0, 75, 50
1, 18360, Note_on_c, 0, 75, 0
1, 18360, Note_on_c, 0, 74, 46
1, 18480, Note_on_c, 0, 74, 0
1, 18480, Note_on_c, 0, 75, 54
1, 18600, Note_on_c, 0, 75, 0
1, 18600, Note_on_c, 0, 77, 51
1, 18720, Note_on_c, 0, 77, 0
1, 18720, Note_on_c, 0, 79, 59
1, 18777, Control_c, 0, 64, 127
1, 18960, Tempo, 485830
1, 18960, Note_on_c, 0, 53, 36
1, 19200, Note_on_c, 0, 79, 0
1, 19200, Note_on_c, 0, 72, 50
1, 19200, Note_on_c, 0, 57, 40
1, 19440, Note_on_c, 0, 57, 0
1, 19440, Note_on_c, 0, 60, 37
1, 19560, Tempo, 522830
1, 19620, Note_on_c, 0, 72, 0
1, 19650, Note_on_c, 0, 74, 43
1, 19680, Tempo, 490436
1, 19680, Note_on_c, 0, 74, 0
1, 19680, Note_on_c, 0, 60, 0
1, 19680, Note_on_c, 0, 72, 50
1, 19680, Note_on_c, 0, 63, 40
1, 19686, Control_c, 0, 64, 0
1, 19800, Note_on_c, 0, 72, 0
1, 19800, Note_on_c, 0, 71, 46
1, 19920, Note_on_c, 0, 71, 0
1, 19920, Note_on_c, 0, 72, 54
1, 20040, Note_on_c, 0, 72, 0
1, 20040, Note_on_c, 0, 74, 51
1, 20160, Note_on_c, 0, 74, 0
1, 20160, Note_on_c, 0, 75, 59
1, 20213, Control_c, 0, 64, 127
1, 20400, Tempo, 485830
1, 20400, Note_on_c, 0, 63, 0
1, 20400, Note_on_c, 0, 53, 0
1, 20400, Note_on_c, 0, 53, 42
1, 20640, Note_on_c, 0, 75, 0
1, 20640, Note_on_c, 0, 69, 50
1, 20640, Note_on_c, 0, 60, 48
1, 20880, Note_on_c, 0, 60, 0
1, 20880, Note_on_c, 0, 63, 41
1, 21000, Tempo, 515508
1, 21060, Note_on_c, 0, 69, 0
1, 21090, Note_on_c, 0, 70, 43
1, 21120, Tempo, 490436
1, 21120, Note_on_c, 0, 70, 0
1, 21120, Note_on_c, 0, 63, 0
1, 21120, Note_on_c, 0, 69, 50
1, 21120, Note_on_c, 0, 66, 55
1, 21134, Control_c, 0, 64, 0
1, 21240, Note_on_c, 0, 69, 0
1, 21240, Note_on_c, 0, 67, 46
1, 21360, Note_on_c, 0, 67, 0
1, 21360, Note_on_c, 0, 69, 52
1, 21480, Tempo, 508431
1, 21480, Note_on_c, 0, 69, 0
1, 21480, Note_on_c, 0, 70, 48
1, 21560, Note_on_c, 0, 70, 0
1, 21570, Note_on_c, 0, 74, 43
1, 21600, Tempo, 490436
1, 21600, Note_on_c, 0, 74, 0
1, 21600, Note_on_c, 0, 72, 53
1, 21720, Note_on_c, 0, 72, 0
1, 21720, Note_on_c, 0, 71, 50
1, 21840, Note_on_c, 0, 71, 0
1, 21840, Note_on_c, 0, 72, 54
1, 21960, Tempo, 510769
1, 21960, Note_on_c, 0, 72, 0
1, 21960, Note_on_c, 0, 74, 51
1, 22040, Note_on_c, 0, 74, 0
1, 22050, Note_on_c, 0, 77, 43
1, 22080, Tempo, 492611
1, 22080, Note_on_c, 0, 77, 0
1, 22080, Note_on_c, 0, 66, 0
1, 22080, Note_on_c, 0, 53, 0
1, 22080, Note_on_c, 0, 75, 57
1, 22080, Note_on_c, 0, 65, 38
1, 22080, Note_on_c, 0, 53, 38
1, 22200, Note_on_c, 0, 75, 0
1, 22200, Note_on_c, 0, 74, 52
1, 22320, Note_on_c, 0, 74, 0
1, 22320, Note_on_c, 0, 75, 58
1, 22440, Note_on_c, 0, 75, 0
1, 22440, Note_on_c, 0, 77, 55
1, 22560, Note_on_c, 0, 77, 0
1, 22560, Note_on_c, 0, 53, 0
1, 22560, Note_on_c, 0, 65, 0
1, 22560, Note_on_c, 0, 79, 64
1, 22560, Note_on_c, 0, 53, 32
1, 22560, Note_on_c, 0, 63, 32
1, 22620, Note_on_c, 0, 79, 0
1, 22800, Tempo, 556948
1, 22920, Tempo, 648649
1, 22920, Note_on_c, 0, 69, 42
1, 23040, Tempo, 540687
1, 23040, Note_on_c, 0, 69, 0
1, 23040, Note_on_c, 0, 63, 0
1, 23040, Note_on_c, 0, 53, 0
1, 23040, Note_on_c, 0, 72, 50
1, 23040, Note_on_c, 0, 58, 30
1, 23040, Note_on_c, 0, 63, 36
1, 23139, Control_c, 0, 64, 127
1, 23520, Tempo, 609013
1, 23520, Note_on_c, 0, 63, 0
1, 23520, Note_on_c, 0, 72, 0
1, 23520, Note_on_c, 0, 70, 44
1, 23520, Note_on_c, 0, 62, 32
1, 23533, Control_c, 0, 64, 0
1, 23647, Control_c, 0, 64, 127
1, 23760, Note_on_c, 0, 62, 0
1, 23760, Note_on_c, 0, 70, 0
1, 23760, Note_on_c, 0, 58, 0
1, 23901, Control_c, 0, 64, 0
1, 23955, Tempo, 441566
1, 23967, Tempo, 471661
1, 23969, Tempo, 483871
1, 23981, Tempo, 487805
1, 23995, Tempo, 500000
1, 24000, Marker_t, "Teil 2"
1, 24000, Note_on_c, 0, 69, 38
1, 24000, Note_on_c, 0, 74, 46
1, 24000, Note_on_c, 0, 66, 38
1, 24072, Tempo, 497925
1, 24075, Control_c, 0, 64, 127
1, 24120, Note_on_c, 0, 66, 0
1, 24120, Note_on_c, 0, 74, 0
1, 24120, Note_on_c, 0, 69, 0
1, 24120, Note_on_c, 0, 70, 34
1, 24120, Note_on_c, 0, 73, 41
1, 24120, Note_on_c, 0, 67, 33
1, 24130, Tempo, 495868
1, 24187, Tempo, 493827
1, 24240, Note_on_c, 0, 67, 0
1, 24240, Note_on_c, 0, 73, 0
1, 24240, Note_on_c, 0, 70, 0
1, 24240, Note_on_c, 0, 69, 42
1, 24240, Note_on_c, 0, 74, 50
1, 24240, Note_on_c, 0, 66, 42
1, 24264, Tempo, 491803
1, 24322, Tempo, 489796
1, 24360, Note_on_c, 0, 66, 0
1, 24360, Note_on_c, 0, 74, 0
1, 24360, Note_on_c, 0, 69, 0
1, 24360, Note_on_c, 0, 70, 34
1, 24360, Note_on_c, 0, 73, 40
1, 24360, Note_on_c, 0, 67, 38
1, 24379, Tempo, 487805
1, 24437, Tempo, 485830
1, 24480, Note_on_c, 0, 67, 0
1, 24480, Note_on_c, 0, 73, 0
1, 24480, Note_on_c, 0, 70, 0
1, 24480, Note_on_c, 0, 69, 45
1, 24480, Note_on_c, 0, 74, 54
1, 24480, Note_on_c, 0, 66, 45
1, 24487, Control_c, 0, 64, 0
1, 24514, Tempo, 483871
1, 24530, Control_c, 0, 64, 127
1, 24571, Tempo, 481928
1, 24600, Note_on_c, 0, 66, 0
1, 24600, Note_on_c, 0, 74, 0
1, 24600, Note_on_c, 0, 69, 0
1, 24600, Note_on_c, 0, 70, 40
1, 24600, Note_on_c, 0, 73, 49
1, 24600, Note_on_c, 0, 67, 39
1, 24629, Tempo, 480000
1, 24687, Tempo, 478088
1, 24720, Note_on_c, 0, 67, 0
1, 24720, Note_on_c, 0, 73, 0
1, 24720, Note_on_c, 0, 70, 0
1, 24720, Note_on_c, 0, 69, 49
1, 24720, Note_on_c, 0, 74, 57
1, 24720, Note_on_c, 0, 66, 49
1, 24763, Tempo, 476190
1, 24821, Tempo, 474308
1, 24840, Note_on_c, 0, 66, 0
1, 24840, Note_on_c, 0, 74, 0
1, 24840, Note_on_c, 0, 69, 0
1, 24840, Note_on_c, 0, 70, 39
1, 24840, Note_on_c, 0, 73, 47
1, 24840, Note_on_c, 0, 67, 45
1, 24879, Tempo, 472441
1, 24936, Tempo, 470588
1, 24955, Tempo, 465116
1, 24960, Note_on_c, 0, 67, 0
1, 24960, Note_on_c, 0, 73, 0
1, 24960, Note_on_c, 0, 70, 0
1, 24960, Note_on_c, 0, 69, 52
1, 24960, Note_on_c, 0, 74, 62
1, 24960, Note_on_c, 0, 66, 52
1, 24982, Control_c, 0, 64, 0
1, 25031, Control_c, 0, 64, 127
1, 25080, Note_on_c, 0, 66, 0
1, 25080, Note_on_c, 0, 74, 0
1, 25080, Note_on_c, 0, 69, 0
1, 25080, Note_on_c, 0, 70, 47
1, 25080, Note_on_c, 0, 73, 56
1, 25080, Note_on_c, 0, 67, 45
1, 25090, Tempo, 466926
1, 25200, Note_on_c, 0, 67, 0
1, 25200, Note_on_c, 0, 73, 0
1, 25200, Note_on_c, 0, 70, 0
1, 25200, Note_on_c, 0, 69, 55
1, 25200, Note_on_c, 0, 74, 66
1, 25200, Note_on_c, 0, 66, 55
1, 25205, Tempo, 468750
1, 25320, Tempo, 470588
1, 25320, Note_on_c, 0, 66, 0
1, 25320, Note_on_c, 0, 74, 0
1, 25320, Note_on_c, 0, 69, 0
1, 25320, Note_on_c, 0, 70, 46
1, 25320, Note_on_c, 0, 73, 54
1, 25320, Note_on_c, 0, 67, 52
1, 25435, Tempo, 472441
1, 25440, Note_on_c, 0, 67, 0
1, 25440, Note_on_c, 0, 73, 0
1, 25440, Note_on_c, 0, 70, 0
1, 25440, Note_on_c, 0, 69, 59
1, 25440, Note_on_c, 0, 74, 71
1, 25440, Note_on_c, 0, 66, 59
1, 25456, Control_c, 0, 64, 0
1, 25515, Control_c, 0, 64, 127
1, 25551, Tempo, 474308
1, 25560, Note_on_c, 0, 66, 0
1, 25560, Note_on_c, 0, 74, 0
1, 25560, Note_on_c, 0, 69, 0
1, 25560, Note_on_c, 0, 70, 53
1, 25560, Note_on_c, 0, 73, 64
1, 25560, Note_on_c, 0, 67, 52
1, 25666, Tempo, 476190
1, 25680, Note_on_c, 0, 67, 0
1, 25680, Note_on_c, 0, 73, 0
1, 25680, Note_on_c, 0, 70, 0
1, 25680, Note_on_c, 0, 69, 63
1, 25680, Note_on_c, 0, 74, 75
1, 25680, Note_on_c, 0, 66, 63
1, 25781, Tempo, 478088
1, 25795, Tempo, 419845
1, 25800, Tempo, 556948
1, 25800, Note_on_c, 0, 66, 0
1, 25800, Note_on_c, 0, 74, 0
1, 25800, Note_on_c, 0, 69, 0
1, 25800, Note_on_c, 0, 70, 52
1, 25800, Note_on_c, 0, 73, 62
1, 25800, Note_on_c, 0, 67, 58
1, 25920, Tempo, 503821
1, 25920, Note_on_c, 0, 67, 0
1, 25920, Note_on_c, 0, 73, 0
1, 25920, Note_on_c, 0, 70, 0
1, 25920, Note_on_c, 0, 69, 83
1, 25920, Note_on_c, 0, 74, 83
1, 25920, Note_on_c, 0, 66, 70
1, 25920, Control_c, 0, 64, 0
1, 26160, Note_on_c, 0, 66, 0
1, 26160, Note_on_c, 0, 74, 0
1, 26160, Note_on_c, 0, 69, 0
1, 26400, Note_on_c, 0, 86, 100
1, 26400, Note_on_c, 0, 78, 84
1, 26400, Note_on_c, 0, 50, 62
1, 26400, Note_on_c, 0, 62, 74
1, 26506, Control_c, 0, 64, 127
1, 27120, Note_on_c, 0, 62, 0
1, 27120, Note_on_c, 0, 86, 0
1, 27120, Note_on_c, 0, 78, 0
1, 27120, Note_on_c, 0, 50, 0
1, 27120, Note_on_c, 0, 84, 75
1, 27120, Note_on_c, 0, 78, 63
1, 27120, Note_on_c, 0, 50, 46
1, 27120, Note_on_c, 0, 62, 56
1, 27136, Control_c, 0, 64, 0
1, 27240, Note_on_c, 0, 62, 0
1, 27240, Note_on_c, 0, 84, 0
1, 27240, Note_on_c, 0, 78, 0
1, 27240, Note_on_c, 0, 50, 0
1, 27360, Tempo, 497018
1, 27360, Note_on_c, 0, 82, 91
1, 27360, Note_on_c, 0, 79, 77
1, 27360, Note_on_c, 0, 51, 57
1, 27360, Note_on_c, 0, 63, 68
1, 27420, Control_c, 0, 64, 127
1, 27600, Note_on_c, 0, 63, 0
1, 27600, Note_on_c, 0, 82, 0
1, 27600, Note_on_c, 0, 79, 0
1, 27600, Note_on_c, 0, 51, 0
1, 27600, Control_c, 0, 64, 0
1, 27720, Tempo, 548697
1, 27720, Note_on_c, 0, 81, 73
1, 27720, Note_on_c, 0, 75, 61
1, 27720, Note_on_c, 0, 48, 45
1, 27720, Note_on_c, 0, 60, 53
1, 27780, Note_on_c, 0, 60, 0
1, 27780, Note_on_c, 0, 81, 0
1, 27780, Note_on_c, 0, 75, 0
1, 27780, Note_on_c, 0, 48, 0
1, 27840, Tempo, 494805
1, 27840, Note_on_c, 0, 70, 72
1, 27840, Note_on_c, 0, 79, 85
1, 27840, Note_on_c, 0, 50, 53
1, 27840, Note_on_c, 0, 62, 63
1, 27890, Control_c, 0, 64, 127
1, 28080, Note_on_c, 0, 62, 0
1, 28080, Note_on_c, 0, 70, 0
1, 28080, Note_on_c, 0, 79, 0
1, 28080, Note_on_c, 0, 50, 0
1, 28133, Control_c, 0, 64, 0
1, 28320, Note_on_c, 0, 72, 69
1, 28320, Note_on_c, 0, 78, 81
1, 28320, Note_on_c, 0, 38, 51
1, 28320, Note_on_c, 0, 50, 61
1, 28560, Tempo, 551420
1, 28560, Note_on_c, 0, 50, 0
1, 28560, Note_on_c, 0, 72, 0
1, 28560, Note_on_c, 0, 78, 0
1, 28560, Note_on_c, 0, 38, 0
1, 28800, Tempo, 508431
1, 28800, Note_on_c, 0, 72, 69
1, 28800, Note_on_c, 0, 81, 82
1, 28800, Note_on_c, 0, 43, 51
1, 28800, Note_on_c, 0, 55, 61
1, 28941, Control_c, 0, 64, 127
1, 29280, Note_on_c, 0, 81, 0
1, 29280, Note_on_c, 0, 72, 0
1, 29280, Note_on_c, 0, 70, 61
1, 29280, Note_on_c, 0, 79, 72
1, 29297, Control_c, 0, 64, 0
1, 29520, Note_on_c, 0, 79, 0
1, 29520, Note_on_c, 0, 55, 0
1, 29520, Note_on_c, 0, 43, 0
1, 29520, Note_on_c, 0, 70, 0
1, 29736, Tempo, 493827
1, 29760, Note_on_c, 0, 56, 25
1, 29760, Note_on_c, 0, 58, 30
1, 29760, Note_on_c, 0, 50, 25
1, 29825, Control_c, 0, 64, 127
1, 29832, Tempo, 491803
1, 29880, Note_on_c, 0, 59, 27
1, 29880, Note_on_c, 0, 51, 22
1, 29881, Note_on_c, 0, 50, 0
1, 29881, Note_on_c, 0, 56, 0
1, 29881, Note_on_c, 0, 58, 0
1, 29909, Tempo, 489796
1, 29986, Tempo, 487805
1, 30000, Note_on_c, 0, 56, 27
1, 30000, Note_on_c, 0, 58, 33
1, 30000, Note_on_c, 0, 50, 27
1, 30001, Note_on_c, 0, 59, 0
1, 30001, Note_on_c, 0, 51, 0
1, 30063, Tempo, 485830
1, 30120, Note_on_c, 0, 59, 26
1, 30120, Note_on_c, 0, 51, 24
1, 30121, Note_on_c, 0, 58, 0
1, 30121, Note_on_c, 0, 50, 0
1, 30121, Note_on_c, 0, 56, 0
1, 30159, Tempo, 483871
1, 30235, Tempo, 481928
1, 30240, Note_on_c, 0, 56, 28
1, 30240, Note_on_c, 0, 58, 34
1, 30240, Note_on_c, 0, 50, 28
1, 30241, Note_on_c, 0, 59, 0
1, 30241, Note_on_c, 0, 51, 0
1, 30248, Control_c, 0, 64, 0
1, 30289, Control_c, 0, 64, 127
1, 30312, Tempo, 480000
1, 30360, Note_on_c, 0, 59, 30
1, 30360, Note_on_c, 0, 51, 24
1, 30361, Note_on_c, 0, 58, 0
1, 30361, Note_on_c, 0, 50, 0
1, 30361, Note_on_c, 0, 56, 0
1, 30389, Tempo, 478088
1, 30480, Note_on_c, 0, 56, 30
1, 30480, Note_on_c, 0, 58, 36
1, 30480, Note_on_c, 0, 50, 30
1, 30481, Note_on_c, 0, 59, 0
1, 30481, Note_on_c, 0, 51, 0
1, 30485, Tempo, 476190
1, 30562, Tempo, 474308
1, 30600, Note_on_c, 0, 59, 29
1, 30600, Note_on_c, 0, 51, 28
1, 30601, Note_on_c, 0, 58, 0
1, 30601, Note_on_c, 0, 50, 0
1, 30601, Note_on_c, 0, 56, 0
1, 30639, Tempo, 472441
1, 30715, Tempo, 470588
1, 30720, Note_on_c, 0, 56, 33
1, 30720, Note_on_c, 0, 58, 39
1, 30720, Note_on_c, 0, 50, 33
1, 30721, Note_on_c, 0, 59, 0
1, 30721, Note_on_c, 0, 51, 0
1, 30729, Control_c, 0, 64, 0
1, 30779, Control_c, 0, 64, 127
1, 30792, Tempo, 472441
1, 30840, Note_on_c, 0, 59, 36
1, 30840, Note_on_c, 0, 51, 29
1, 30841, Note_on_c, 0, 58, 0
1, 30841, Note_on_c, 0, 50, 0
1, 30841, Note_on_c, 0, 56, 0
1, 30850, Tempo, 474308
1, 30907, Tempo, 476190
1, 30960, Note_on_c, 0, 56, 36
1, 30960, Note_on_c, 0, 58, 42
1, 30960, Note_on_c, 0, 50, 36
1, 30961, Note_on_c, 0, 59, 0
1, 30961, Note_on_c, 0, 51, 0
1, 30965, Tempo, 478088
1, 31023, Tempo, 480000
1, 31080, Tempo, 481928
1, 31080, Note_on_c, 0, 59, 34
1, 31080, Note_on_c, 0, 51, 33
1, 31081, Note_on_c, 0, 58, 0
1, 31081, Note_on_c, 0, 50, 0
1, 31081, Note_on_c, 0, 56, 0
1, 31138, Tempo, 483871
1, 31195, Tempo, 485830
1, 31200, Note_on_c, 0, 56, 38
1, 31200, Note_on_c, 0, 58, 45
1, 31200, Note_on_c, 0, 50, 38
1, 31201, Note_on_c, 0, 59, 0
1, 31201, Note_on_c, 0, 51, 0
1, 31219, Control_c, 0, 64, 0
1, 31253, Tempo, 487805
1, 31272, Control_c, 0, 64, 127
1, 31311, Tempo, 489796
1, 31320, Note_on_c, 0, 59, 41
1, 31320, Note_on_c, 0, 51, 33
1, 31321, Note_on_c, 0, 58, 0
1, 31321, Note_on_c, 0, 50, 0
1, 31321, Note_on_c, 0, 56, 0
1, 31368, Tempo, 491803
1, 31426, Tempo, 493827
1, 31440, Note_on_c, 0, 56, 40
1, 31440, Note_on_c, 0, 58, 49
1, 31440, Note_on_c, 0, 50, 40
1, 31441, Note_on_c, 0, 59, 0
1, 31441, Note_on_c, 0, 51, 0
1, 31483, Tempo, 495868
1, 31541, Tempo, 497925
1, 31556, Tempo, 480000
1, 31560, Tempo, 556948
1, 31560, Note_on_c, 0, 59, 40
1, 31560, Note_on_c, 0, 51, 38
1, 31561, Note_on_c, 0, 58, 0
1, 31561, Note_on_c, 0, 50, 0
1, 31561, Note_on_c, 0, 56, 0
1, 31680, Tempo, 503821
1, 31680, Note_on_c, 0, 56, 65
1, 31680, Note_on_c, 0, 58, 65
1, 31680, Note_on_c, 0, 50, 54
1, 31680, Control_c, 0, 64, 0
1, 31681, Note_on_c, 0, 59, 0
1, 31681, Note_on_c, 0, 51, 0
1, 31920, Note_on_c, 0, 58, 0
1, 31920, Note_on_c, 0, 56, 0
1, 31920, Note_on_c, 0, 50, 0
1, 32160, Note_on_c, 0, 80, 85
1, 32160, Note_on_c, 0, 71, 72
1, 32160, Note_on_c, 0, 50, 53
1, 32160, Note_on_c, 0, 53, 64
1, 32266, Control_c, 0, 64, 127
1, 32880, Note_on_c, 0, 53, 0
1, 32880, Note_on_c, 0, 80, 0
1, 32880, Note_on_c, 0, 71, 0
1, 32880, Note_on_c, 0, 50, 0
1, 32880, Note_on_c, 0, 79, 59
1, 32880, Note_on_c, 0, 72, 49
1, 32880, Note_on_c, 0, 51, 36
1, 32880, Note_on_c, 0, 55, 43
1, 32896, Control_c, 0, 64, 0
1, 33120, Tempo, 497018
1, 33120, Note_on_c, 0, 55, 0
1, 33120, Note_on_c, 0, 79, 0
1, 33120, Note_on_c, 0, 72, 0
1, 33120, Note_on_c, 0, 51, 0
1, 33120, Note_on_c, 0, 77, 70
1, 33120, Note_on_c, 0, 68, 58
1, 33120, Note_on_c, 0, 47, 43
1, 33120, Note_on_c, 0, 50, 51
1, 33180, Control_c, 0, 64, 127
1, 33480, Tempo, 548697
1, 33480, Note_on_c, 0, 50, 0
1, 33480, Note_on_c, 0, 77, 0
1, 33480, Note_on_c, 0, 68, 0
1, 33480, Note_on_c, 0, 47, 0
1, 33480, Note_on_c, 0, 75, 53
1, 33480, Note_on_c, 0, 67, 45
1, 33480, Note_on_c, 0, 48, 32
1, 33480, Note_on_c, 0, 51, 39
1, 33487, Control_c, 0, 64, 0
1, 33600, Tempo, 494805
1, 33600, Note_on_c, 0, 51, 0
1, 33600, Note_on_c, 0, 75, 0
1, 33600, Note_on_c, 0, 67, 0
1, 33600, Note_on_c, 0, 48, 0
1, 33600, Note_on_c, 0, 65, 52
1, 33600, Note_on_c, 0, 74, 61
1, 33600, Note_on_c, 0, 50, 38
1, 33600, Note_on_c, 0, 53, 45
1, 33713, Control_c, 0, 64, 127
1, 34080, Note_on_c, 0, 53, 0
1, 34080, Note_on_c, 0, 65, 0
1, 34080, Note_on_c, 0, 74, 0
1, 34080, Note_on_c, 0, 50, 0
1, 34080, Note_on_c, 0, 63, 46
1, 34080, Note_on_c, 0, 72, 54
1, 34080, Note_on_c, 0, 51, 34
1, 34080, Note_on_c, 0, 55, 41
1, 34140, Control_c, 0, 64, 0
1, 34320, Tempo, 551420
1, 34560, Tempo, 508431
1, 34560, Note_on_c, 0, 55, 0
1, 34560, Note_on_c, 0, 63, 0
1, 34560, Note_on_c, 0, 72, 0
1, 34560, Note_on_c, 0, 51, 0
1, 34560, Note_on_c, 0, 62, 40
1, 34560, Note_on_c, 0, 70, 48
1, 34560, Note_on_c, 0, 53, 36
1, 34701, Control_c, 0, 64, 127
1, 35040, Note_on_c, 0, 53, 0
1, 35040, Note_on_c, 0, 70, 0
1, 35040, Note_on_c, 0, 62, 0
1, 35040, Note_on_c, 0, 60, 36
1, 35040, Note_on_c, 0, 69, 42
1, 35040, Note_on_c, 0, 41, 30
1, 35057, Control_c, 0, 64, 0
1, 35280, Note_on_c, 0, 41, 0
1, 35280, Note_on_c, 0, 69, 0
1, 35280, Note_on_c, 0, 60, 0
1, 35520, Tempo, 508431
1, 35520, Note_on_c, 0, 62, 50
1, 35880, Tempo, 556948
1, 35880, Note_on_c, 0, 62, 0
1, 35880, Note_on_c, 0, 63, 46
1, 36000, Tempo, 494805
1, 36000, Note_on_c, 0, 63, 0
1, 36000, Note_on_c, 0, 65, 50
1, 36000, Note_on_c, 0, 46, 40
1, 36057, Control_c, 0, 64, 127
1, 36120, Note_on_c, 0, 46, 0
1, 36240, Note_on_c, 0, 58, 29
1, 36480, Note_on_c, 0, 58, 0
1, 36480, Note_on_c, 0, 62, 34
1, 36491, Control_c, 0, 64, 0
1, 36540, Control_c, 0, 64, 127
1, 36720, Note_on_c, 0, 62, 0
1, 36720, Note_on_c, 0, 58, 29
1, 36930, Note_on_c, 0, 65, 0
1, 36930, Note_on_c, 0, 69, 46
1, 36960, Note_on_c, 0, 69, 0
1, 36960, Note_on_c, 0, 58, 0
1, 36960, Note_on_c, 0, 67, 50
1, 36960, Note_on_c, 0, 63, 34
1, 36975, Control_c, 0, 64, 0
1, 37080, Note_on_c, 0, 67, 0
1, 37080, Note_on_c, 0, 65, 45
1, 37200, Tempo, 517911
1, 37200, Note_on_c, 0, 65, 0
1, 37200, Note_on_c, 0, 63, 0
1, 37200, Note_on_c, 0, 67, 50
1, 37200, Note_on_c, 0, 60, 31
1, 37320, Note_on_c, 0, 67, 0
1, 37320, Note_on_c, 0, 69, 43
1, 37440, Tempo, 492611
1, 37440, Note_on_c, 0, 69, 0
1, 37440, Note_on_c, 0, 60, 0
1, 37440, Note_on_c, 0, 70, 50
1, 37440, Note_on_c, 0, 62, 40
1, 37680, Note_on_c, 0, 62, 0
1, 37680, Note_on_c, 0, 61, 30
1, 37920, Note_on_c, 0, 61, 0
1, 37920, Note_on_c, 0, 70, 0
1, 37920, Note_on_c, 0, 65, 41
1, 37920, Note_on_c, 0, 62, 34
1, 37980, Control_c, 0, 64, 127
1, 38160, Note_on_c, 0, 62, 0
1, 38160, Note_on_c, 0, 58, 30
1, 38340, Note_on_c, 0, 65, 0
1, 38370, Note_on_c, 0, 69, 43
1, 38400, Tempo, 489796
1, 38400, Note_on_c, 0, 69, 0
1, 38400, Note_on_c, 0, 58, 0
1, 38400, Note_on_c, 0, 67, 50
1, 38400, Note_on_c, 0, 63, 34
1, 38419, Control_c, 0, 64, 0
1, 38520, Note_on_c, 0, 67, 0
1, 38520, Note_on_c, 0, 65, 46
1, 38640, Tempo, 515508
1, 38640, Note_on_c, 0, 65, 0
1, 38640, Note_on_c, 0, 63, 0
1, 38640, Note_on_c, 0, 67, 50
1, 38640, Note_on_c, 0, 60, 29
1, 38760, Note_on_c, 0, 67, 0
1, 38760, Note_on_c, 0, 69, 50
1, 38880, Tempo, 494805
1, 38880, Note_on_c, 0, 69, 0
1, 38880, Note_on_c, 0, 60, 0
1, 38880, Note_on_c, 0, 70, 50
1, 38880, Note_on_c, 0, 62, 40
1, 38940, Note_on_c, 0, 70, 0
1, 39120, Note_on_c, 0, 62, 0
1, 39120, Note_on_c, 0, 61, 30
1, 39240, Note_on_c, 0, 69, 46
1, 39300, Note_on_c, 0, 69, 0
1, 39360, Note_on_c, 0, 61, 0
1, 39360, Note_on_c, 0, 70, 56
1, 39360, Note_on_c, 0, 62, 34
1, 39420, Note_on_c, 0, 70, 0
1, 39600, Note_on_c, 0, 62, 0
1, 39600, Note_on_c, 0, 57, 30
1, 39720, Note_on_c, 0, 72, 48
1, 39780, Note_on_c, 0, 72, 0
1, 39840, Note_on_c, 0, 57, 0
1, 39840, Note_on_c, 0, 74, 55
1, 39840, Note_on_c, 0, 58, 34
1, 39900, Note_on_c, 0, 74, 0
1, 40080, Note_on_c, 0, 58, 0
1, 40080, Note_on_c, 0, 55, 30
1, 40200, Tempo, 543331
1, 40200, Note_on_c, 0, 76, 59
1, 40260, Note_on_c, 0, 76, 0
1, 40310, Note_on_c, 0, 55, 0
1, 40320, Tempo, 513128
1, 40320, Note_on_c, 0, 70, 53
1, 40320, Note_on_c, 0, 76, 63
1, 40320, Note_on_c, 0, 53, 40
1, 40320, Control_c, 0, 64, 127
1, 40800, Note_on_c, 0, 76, 0
1, 40800, Note_on_c, 0, 70, 0
1, 40800, Note_on_c, 0, 69, 48
1, 40800, Note_on_c, 0, 77, 57
1, 40800, Note_on_c, 0, 65, 35
1, 40816, Control_c, 0, 64, 0
1, 41040, Note_on_c, 0, 65, 0
1, 41040, Note_on_c, 0, 53, 0
1, 41040, Note_on_c, 0, 69, 0
1, 41040, Note_on_c, 0, 77, 0
1, 41250, Note_on_c, 0, 77, 43
1, 41280, Tempo, 492611
1, 41280, Note_on_c, 0, 77, 0
1, 41280, Note_on_c, 0, 75, 50
1, 41400, Note_on_c, 0, 75, 0
1, 41400, Note_on_c, 0, 74, 46
1, 41520, Note_on_c, 0, 74, 0
1, 41520, Note_on_c, 0, 75, 54
1, 41640, Note_on_c, 0, 75, 0
1, 41640, Note_on_c, 0, 77, 51
1, 41760, Note_on_c, 0, 77, 0
1, 41760, Note_on_c, 0, 79, 59
1, 41817, Control_c, 0, 64, 127
1, 41880, Note_on_c, 0, 41, 37
1, 42000, Note_on_c, 0, 41, 0
1, 42000, Note_on_c, 0, 45, 38
1, 42120, Note_on_c, 0, 45, 0
1, 42120, Note_on_c, 0, 48, 39
1, 42240, Note_on_c, 0, 48, 0
1, 42240, Note_on_c, 0, 79, 0
1, 42240, Note_on_c, 0, 72, 50
1, 42240, Note_on_c, 0, 53, 40
1, 42360, Note_on_c, 0, 53, 0
1, 42360, Note_on_c, 0, 57, 41
1, 42480, Note_on_c, 0, 57, 0
1, 42480, Note_on_c, 0, 60, 42
1, 42600, Tempo, 522830
1, 42600, Note_on_c, 0, 60, 0
1, 42600, Note_on_c, 0, 62, 43
1, 42660, Note_on_c, 0, 72, 0
1, 42690, Note_on_c, 0, 74, 43
1, 42720, Tempo, 490436
1, 42720, Note_on_c, 0, 74, 0
1, 42720, Note_on_c, 0, 62, 0
1, 42720, Note_on_c, 0, 72, 50
1, 42720, Note_on_c, 0, 63, 48
1, 42726, Control_c, 0, 64, 0
1, 42840, Note_on_c, 0, 72, 0
1, 42840, Note_on_c, 0, 71, 46
1, 42960, Note_on_c, 0, 71, 0
1, 42960, Note_on_c, 0, 72, 54
1, 43080, Note_on_c, 0, 72, 0
1, 43080, Note_on_c, 0, 74, 51
1, 43200, Note_on_c, 0, 74, 0
1, 43200, Note_on_c, 0, 75, 59
1, 43253, Control_c, 0, 64, 127
1, 43320, Note_on_c, 0, 63, 0
1, 43320, Note_on_c, 0, 41, 37
1, 43440, Note_on_c, 0, 41, 0
1, 43440, Note_on_c, 0, 45, 41
1, 43560, Note_on_c, 0, 45, 0
1, 43560, Note_on_c, 0, 48, 43
1, 43680, Note_on_c, 0, 48, 0
1, 43680, Note_on_c, 0, 75, 0
1, 43680, Note_on_c, 0, 69, 50
1, 43680, Note_on_c, 0, 53, 44
1, 43800, Note_on_c, 0, 53, 0
1, 43800, Note_on_c, 0, 57, 46
1, 43920, Note_on_c, 0, 57, 0
1, 43920, Note_on_c, 0, 60, 48
1, 44040, Tempo, 515508
1, 44040, Note_on_c, 0, 60, 0
1, 44040, Note_on_c, 0, 63, 49
1, 44100, Note_on_c, 0, 69, 0
1, 44130, Note_on_c, 0, 70, 43
1, 44160, Tempo, 490436
1, 44160, Note_on_c, 0, 70, 0
1, 44160, Note_on_c, 0, 63, 0
1, 44160, Note_on_c, 0, 69, 50
1, 44160, Note_on_c, 0, 66, 55
1, 44174, Control_c, 0, 64, 0
1, 44280, Note_on_c, 0, 69, 0
1, 44280, Note_on_c, 0, 67, 46
1, 44400, Note_on_c, 0, 67, 0
1, 44400, Note_on_c, 0, 69, 52
1, 44520, Tempo, 508431
1, 44520, Note_on_c, 0, 69, 0
1, 44520, Note_on_c, 0, 70, 48
1, 44600, Note_on_c, 0, 70, 0
1, 44610, Note_on_c, 0, 74, 43
1, 44640, Tempo, 490436
1, 44640, Note_on_c, 0, 74, 0
1, 44640, Note_on_c, 0, 72, 53
1, 44760, Note_on_c, 0, 72, 0
1, 44760, Note_on_c, 0, 71, 50
1, 44880, Note_on_c, 0, 71, 0
1, 44880, Note_on_c, 0, 72, 54
1, 45000, Tempo, 510769
1, 45000, Note_on_c, 0, 72, 0
1, 45000, Note_on_c, 0, 74, 51
1, 45080, Note_on_c, 0, 74, 0
1, 45090, Note_on_c, 0, 77, 43
1, 45120, Tempo, 492611
1, 45120, Note_on_c, 0, 77, 0
1, 45120, Note_on_c, 0, 66, 0
1, 45120, Note_on_c, 0, 75, 57
1, 45120, Note_on_c, 0, 65, 38
1, 45120, Note_on_c, 0, 53, 38
1, 45240, Note_on_c, 0, 75, 0
1, 45240, Note_on_c, 0, 74, 52
1, 45360, Note_on_c, 0, 74, 0
1, 45360, Note_on_c, 0, 75, 58
1, 45480, Note_on_c, 0, 75, 0
1, 45480, Note_on_c, 0, 77, 55
1, 45600, Note_on_c, 0, 77, 0
1, 45600, Note_on_c, 0, 53, 0
1, 45600, Note_on_c, 0, 65, 0
1, 45600, Note_on_c, 0, 79, 61
1, 45600, Note_on_c, 0, 53, 32
1, 45600, Note_on_c, 0, 63, 32
1, 45720, Note_on_c, 0, 79, 0
1, 45720, Note_on_c, 0, 75, 59
1, 45840, Tempo, 556948
1, 45840, Note_on_c, 0, 75, 0
1, 45840, Note_on_c, 0, 72, 52
1, 45960, Tempo, 622665
1, 45960, Note_on_c, 0, 72, 0
1, 45960, Note_on_c, 0, 69, 42
1, 46080, Tempo, 494805
1, 46080, Note_on_c, 0, 69, 0
1, 46080, Note_on_c, 0, 63, 0
1, 46080, Note_on_c, 0, 53, 0
1, 46080, Note_on_c, 0, 70, 50
1, 46080, Note_on_c, 0, 46, 40
1, 46137, Control_c, 0, 64, 127
1, 46200, Note_on_c, 0, 46, 0
1, 46320, Note_on_c, 0, 58, 29
1, 46560, Note_on_c, 0, 58, 0
1, 46560, Note_on_c, 0, 70, 0
1, 46560, Note_on_c, 0, 62, 34
1, 46571, Control_c, 0, 64, 0
1, 46620, Control_c, 0, 64, 127
1, 46800, Note_on_c, 0, 62, 0
1, 46800, Note_on_c, 0, 58, 29
1, 47010, Note_on_c, 0, 81, 46
1, 47040, Note_on_c, 0, 81, 0
1, 47040, Note_on_c, 0, 58, 0
1, 47040, Note_on_c, 0, 79, 50
1, 47040, Note_on_c, 0, 63, 34
1, 47055, Control_c, 0, 64, 0
1, 47160, Note_on_c, 0, 79, 0
1, 47160, Note_on_c, 0, 78, 45
1, 47280, Tempo, 517911
1, 47280, Note_on_c, 0, 78, 0
1, 47280, Note_on_c, 0, 63, 0
1, 47280, Note_on_c, 0, 79, 50
1, 47280, Note_on_c, 0, 58, 31
1, 47400, Note_on_c, 0, 79, 0
1, 47400, Note_on_c, 0, 81, 43
1, 47520, Tempo, 492611
1, 47520, Note_on_c, 0, 81, 0
1, 47520, Note_on_c, 0, 58, 0
1, 47520, Note_on_c, 0, 82, 50
1, 47520, Note_on_c, 0, 62, 40
1, 47760, Note_on_c, 0, 62, 0
1, 47760, Note_on_c, 0, 61, 30
1, 48000, Note_on_c, 0, 61, 0
1, 48000, Note_on_c, 0, 82, 0
1, 48000, Note_on_c, 0, 77, 41
1, 48000, Note_on_c, 0, 62, 34
1, 48060, Control_c, 0, 64, 127
1, 48240, Note_on_c, 0, 62, 0
1, 48240, Note_on_c, 0, 58, 30
1, 48420, Note_on_c, 0, 77, 0
1, 48450, Note_on_c, 0, 69, 43
1, 48480, Note_on_c, 0, 69, 0
1, 48480, Note_on_c, 0, 58, 0
1, 48480, Note_on_c, 0, 75, 41
1, 48480, Note_on_c, 0, 67, 50
1, 48480, Note_on_c, 0, 60, 34
1, 48499, Control_c, 0, 64, 0
1, 48600, Note_on_c, 0, 67, 0
1, 48600, Note_on_c, 0, 65, 46
1, 48720, Tempo, 515508
1, 48720, Note_on_c, 0, 65, 0
1, 48720, Note_on_c, 0, 60, 0
1, 48720, Note_on_c, 0, 67, 50
1, 48720, Note_on_c, 0, 53, 29
1, 48840, Note_on_c, 0, 67, 0
1, 48840, Note_on_c, 0, 69, 46
1, 48960, Tempo, 492611
1, 48960, Note_on_c, 0, 69, 0
1, 48960, Note_on_c, 0, 53, 0
1, 48960, Note_on_c, 0, 75, 0
1, 48960, Note_on_c, 0, 74, 44
1, 48960, Note_on_c, 0, 70, 50
1, 48960, Note_on_c, 0, 58, 40
1, 49200, Note_on_c, 0, 58, 0
1, 49200, Note_on_c, 0, 46, 30
1, 49440, Note_on_c, 0, 46, 0
1, 49440, Note_on_c, 0, 70, 0
1, 49440, Note_on_c, 0, 74, 0
1, 49440, Note_on_c, 0, 65, 41
1, 49440, Note_on_c, 0, 50, 34
1, 49500, Control_c, 0, 64, 127
1, 49680, Note_on_c, 0, 50, 0
1, 49680, Note_on_c, 0, 65, 0
1, 49680, Note_on_c, 0, 46, 30
1, 49890, Note_on_c, 0, 69, 43
1, 49920, Note_on_c, 0, 69, 0
1, 49920, Note_on_c, 0, 46, 0
1, 49920, Note_on_c, 0, 67, 50
1, 49920, Note_on_c, 0, 51, 34
1, 49939, Control_c, 0, 64, 0
1, 50040, Note_on_c, 0, 67, 0
1, 50040, Note_on_c, 0, 66, 46
1, 50160, Tempo, 515508
1, 50160, Note_on_c, 0, 66, 0
1, 50160, Note_on_c, 0, 51, 0
1, 50160, Note_on_c, 0, 67, 50
1, 50160, Note_on_c, 0, 46, 29
1, 50280, Note_on_c, 0, 67, 0
1, 50280, Note_on_c, 0, 69, 46
1, 50400, Tempo, 492611
1, 50400, Note_on_c, 0, 69, 0
1, 50400, Note_on_c, 0, 46, 0
1, 50400, Note_on_c, 0, 70, 50
1, 50400, Note_on_c, 0, 50, 40
1, 50640, Note_on_c, 0, 50, 0
1, 50640, Note_on_c, 0, 49, 30
1, 50880, Note_on_c, 0, 49, 0
1, 50880, Note_on_c, 0, 70, 0
1, 50880, Note_on_c, 0, 65, 41
1, 50880, Note_on_c, 0, 50, 34
1, 50940, Control_c, 0, 64, 127
1, 51120, Note_on_c, 0, 50, 0
1, 51120, Note_on_c, 0, 46, 30
1, 51300, Note_on_c, 0, 65, 0
1, 51330, Note_on_c, 0, 57, 36
1, 51360, Note_on_c, 0, 57, 0
1, 51360, Note_on_c, 0, 46, 0
1, 51360, Note_on_c, 0, 63, 34
1, 51360, Note_on_c, 0, 55, 42
1, 51360, Note_on_c, 0, 48, 34
1, 51379, Control_c, 0, 64, 0
1, 51480, Note_on_c, 0, 55, 0
1, 51480, Note_on_c, 0, 53, 39
1, 51600, Tempo, 515508
1, 51600, Note_on_c, 0, 53, 0
1, 51600, Note_on_c, 0, 48, 0
1, 51600, Note_on_c, 0, 55, 42
1, 51600, Note_on_c, 0, 41, 29
1, 51720, Note_on_c, 0, 55, 0
1, 51720, Note_on_c, 0, 57, 39
1, 51840, Note_on_c, 0, 57, 0
1, 51840, Note_on_c, 0, 41, 0
1, 51840, Note_on_c, 0, 63, 0
1, 51840, Note_on_c, 0, 62, 34
1, 51840, Note_on_c, 0, 58, 42
1, 51840, Note_on_c, 0, 46, 40
1, 51936, Control_c, 0, 64, 127
1, 52080, Note_on_c, 0, 46, 0
1, 52080, Note_on_c, 0, 58, 0
1, 52080, Note_on_c, 0, 53, 33
1, 52080, Note_on_c, 0, 50, 30
1, 52267, Control_c, 0, 64, 0
1, 52280, Note_on_c, 0, 53, 0
1, 52290, Tempo, 492611
1, 52290, Note_on_c, 0, 57, 37
1, 52320, Note_on_c, 0, 57, 0
1, 52320, Note_on_c, 0, 50, 0
1, 52320, Note_on_c, 0, 62, 0
1, 52320, Note_on_c, 0, 63, 39
1, 52320, Note_on_c, 0, 55, 43
1, 52320, Note_on_c, 0, 48, 35
1, 52440, Note_on_c, 0, 55, 0
1, 52440, Note_on_c, 0, 53, 40
1, 52560, Tempo, 515508
1, 52560, Note_on_c, 0, 53, 0
1, 52560, Note_on_c, 0, 48, 0
1, 52560, Note_on_c, 0, 55, 44
1, 52560, Note_on_c, 0, 41, 31
1, 52680, Note_on_c, 0, 55, 0
1, 52680, Note_on_c, 0, 57, 40
1, 52800, Note_on_c, 0, 57, 0
1, 52800, Note_on_c, 0, 41, 0
1, 52800, Note_on_c, 0, 63, 0
1, 52800, Note_on_c, 0, 62, 36
1, 52800, Note_on_c, 0, 58, 44
1, 52800, Note_on_c, 0, 46, 36
1, 52892, Control_c, 0, 64, 127
1, 53040, Note_on_c, 0, 46, 0
1, 53040, Note_on_c, 0, 58, 0
1, 53040, Note_on_c, 0, 53, 34
1, 53040, Note_on_c, 0, 50, 31
1, 53220, Note_on_c, 0, 53, 0
1, 53220, Control_c, 0, 64, 0
1, 53250, Tempo, 492611
1, 53250, Note_on_c, 0, 57, 39
1, 53280, Note_on_c, 0, 57, 0
1, 53280, Note_on_c, 0, 50, 0
1, 53280, Note_on_c, 0, 62, 0
1, 53280, Note_on_c, 0, 63, 44
1, 53280, Note_on_c, 0, 55, 46
1, 53280, Note_on_c, 0, 48, 44
1, 53400, Note_on_c, 0, 55, 0
1, 53400, Note_on_c, 0, 53, 43
1, 53520, Tempo, 515508
1, 53520, Note_on_c, 0, 53, 0
1, 53520, Note_on_c, 0, 48, 0
1, 53520, Note_on_c, 0, 55, 47
1, 53520, Note_on_c, 0, 41, 33
1, 53640, Note_on_c, 0, 55, 0
1, 53640, Note_on_c, 0, 57, 44
1, 53760, Tempo, 497018
1, 53760, Note_on_c, 0, 57, 0
1, 53760, Note_on_c, 0, 41, 0
1, 53760, Note_on_c, 0, 63, 0
1, 53760, Note_on_c, 0, 62, 42
1, 53760, Note_on_c, 0, 58, 48
1, 53760, Note_on_c, 0, 46, 45
1, 53841, Control_c, 0, 64, 127
1, 53880, Note_on_c, 0, 46, 0
1, 53880, Note_on_c, 0, 58, 0
1, 53880, Note_on_c, 0, 53, 41
1, 53880, Note_on_c, 0, 50, 37
1, 54000, Note_on_c, 0, 50, 0
1, 54000, Note_on_c, 0, 53, 0
1, 54000, Note_on_c, 0, 62, 0
1, 54000, Note_on_c, 0, 63, 40
1, 54000, Note_on_c, 0, 57, 50
1, 54000, Note_on_c, 0, 41, 46
1, 54013, Control_c, 0, 64, 0
1, 54064, Control_c, 0, 64, 127
1, 54120, Note_on_c, 0, 41, 0
1, 54120, Note_on_c, 0, 57, 0
1, 54120, Note_on_c, 0, 53, 43
1, 54120, Note_on_c, 0, 48, 39
1, 54240, Note_on_c, 0, 48, 0
1, 54240, Note_on_c, 0, 53, 0
1, 54240, Note_on_c, 0, 63, 0
1, 54240, Note_on_c, 0, 62, 49
1, 54240, Note_on_c, 0, 58, 51
1, 54240, Note_on_c, 0, 46, 47
1, 54255, Control_c, 0, 64, 0
1, 54300, Control_c, 0, 64, 127
1, 54360, Note_on_c, 0, 46, 0
1, 54360, Note_on_c, 0, 58, 0
1, 54360, Note_on_c, 0, 53, 46
1, 54360, Note_on_c, 0, 50, 41
1, 54480, Note_on_c, 0, 50, 0
1, 54480, Note_on_c, 0, 53, 0
1, 54480, Note_on_c, 0, 62, 0
1, 54480, Note_on_c, 0, 63, 42
1, 54480, Note_on_c, 0, 57, 52
1, 54480, Note_on_c, 0, 41, 49
1, 54487, Control_c, 0, 64, 0
1, 54540, Control_c, 0, 64, 127
1, 54600, Tempo, 551420
1, 54600, Note_on_c, 0, 41, 0
1, 54600, Note_on_c, 0, 57, 0
1, 54600, Note_on_c, 0, 53, 47
1, 54600, Note_on_c, 0, 48, 43
1, 54720, Tempo, 497018
1, 54720, Note_on_c, 0, 48, 0
1, 54720, Note_on_c, 0, 53, 0
1, 54720, Note_on_c, 0, 63, 0
1, 54720, Note_on_c, 0, 58, 34
1, 54720, Note_on_c, 0, 62, 40
1, 54720, Note_on_c, 0, 46, 24
1, 54720, Note_on_c, 0, 50, 30
1, 54720, Control_c, 0, 64, 0
1, 54840, Note_on_c, 0, 50, 0
1, 54840, Note_on_c, 0, 58, 0
1, 54840, Note_on_c, 0, 62, 0
1, 54840, Note_on_c, 0, 46, 0
1, 55200, Note_on_c, 0, 62, 34
1, 55200, Note_on_c, 0, 70, 40
1, 55200, Note_on_c, 0, 34, 24
1, 55200, Note_on_c, 0, 46, 30
1, 55320, Note_on_c, 0, 46, 0
1, 55320, Note_on_c, 0, 62, 0
1, 55320, Note_on_c, 0, 70, 0
1, 55320, Note_on_c, 0, 34, 0
1, 55500, Tempo, 497018
1, 55680, Tempo, 500000
1, 55680, Marker_t, "Teil 2 Wiederholung"
1, 55680, Note_on_c, 0, 69, 38
1, 55680, Note_on_c, 0, 74, 46
1, 55680, Note_on_c, 0, 66, 38
1, 55752, Tempo, 497925
1, 55755, Control_c, 0, 64, 127
1, 55800, Note_on_c, 0, 66, 0
1, 55800, Note_on_c, 0, 74, 0
1, 55800, Note_on_c, 0, 69, 0
1, 55800, Note_on_c, 0, 70, 34
1, 55800, Note_on_c, 0, 73, 41
1, 55800, Note_on_c, 0, 67, 33
1, 55810, Tempo, 495868
1, 55867, Tempo, 493827
1, 55920, Note_on_c, 0, 67, 0
1, 55920, Note_on_c, 0, 73, 0
1, 55920, Note_on_c, 0, 70, 0
1, 55920, Note_on_c, 0, 69, 42
1, 55920, Note_on_c, 0, 74, 50
1, 55920, Note_on_c, 0, 66, 42
1, 55944, Tempo, 491803
1, 56002, Tempo, 489796
1, 56040, Note_on_c, 0, 66, 0
1, 56040, Note_on_c, 0, 74, 0
1, 56040, Note_on_c, 0, 69, 0
1, 56040, Note_on_c, 0, 70, 34
1, 56040, Note_on_c, 0, 73, 40
1, 56040, Note_on_c, 0, 67, 38
1, 56059, Tempo, 487805
1, 56117, Tempo, 485830
1, 56142, Tempo, 483871
1, 56160, Note_on_c, 0, 67, 0
1, 56160, Note_on_c, 0, 73, 0
1, 56160, Note_on_c, 0, 70, 0
1, 56160, Note_on_c, 0, 69, 45
1, 56160, Note_on_c, 0, 74, 53
1, 56160, Note_on_c, 0, 66, 45
1, 56167, Control_c, 0, 64, 0
1, 56199, Tempo, 481928
1, 56210, Control_c, 0, 64, 127
1, 56257, Tempo, 480000
1, 56280, Note_on_c, 0, 66, 0
1, 56280, Note_on_c, 0, 74, 0
1, 56280, Note_on_c, 0, 69, 0
1, 56280, Note_on_c, 0, 70, 40
1, 56280, Note_on_c, 0, 73, 49
1, 56280, Note_on_c, 0, 67, 39
1, 56295, Tempo, 478088
1, 56353, Tempo, 476190
1, 56391, Tempo, 474308
1, 56400, Note_on_c, 0, 67, 0
1, 56400, Note_on_c, 0, 73, 0
1, 56400, Note_on_c, 0, 70, 0
1, 56400, Note_on_c, 0, 69, 48
1, 56400, Note_on_c, 0, 74, 57
1, 56400, Note_on_c, 0, 66, 48
1, 56449, Tempo, 472441
1, 56487, Tempo, 470588
1, 56520, Note_on_c, 0, 66, 0
1, 56520, Note_on_c, 0, 74, 0
1, 56520, Note_on_c, 0, 69, 0
1, 56520, Note_on_c, 0, 70, 39
1, 56520, Note_on_c, 0, 73, 47
1, 56520, Note_on_c, 0, 67, 45
1, 56545, Tempo, 468750
1, 56583, Tempo, 466926
1, 56616, Tempo, 470588
1, 56635, Tempo, 465116
1, 56640, Note_on_c, 0, 67, 0
1, 56640, Note_on_c, 0, 73, 0
1, 56640, Note_on_c, 0, 70, 0
1, 56640, Note_on_c, 0, 69, 52
1, 56640, Note_on_c, 0, 74, 62
1, 56640, Note_on_c, 0, 66, 52
1, 56662, Control_c, 0, 64, 0
1, 56711, Control_c, 0, 64, 127
1, 56760, Note_on_c, 0, 66, 0
1, 56760, Note_on_c, 0, 74, 0
1, 56760, Note_on_c, 0, 69, 0
1, 56760, Note_on_c, 0, 70, 47
1, 56760, Note_on_c, 0, 73, 56
1, 56760, Note_on_c, 0, 67, 45
1, 56770, Tempo, 466926
1, 56880, Note_on_c, 0, 67, 0
1, 56880, Note_on_c, 0, 73, 0
1, 56880, Note_on_c, 0, 70, 0
1, 56880, Note_on_c, 0, 69, 55
1, 56880, Note_on_c, 0, 74, 66
1, 56880, Note_on_c, 0, 66, 55
1, 56885, Tempo, 468750
1, 57000, Tempo, 470588
1, 57000, Note_on_c, 0, 66, 0
1, 57000, Note_on_c, 0, 74, 0
1, 57000, Note_on_c, 0, 69, 0
1, 57000, Note_on_c, 0, 70, 46
1, 57000, Note_on_c, 0, 73, 54
1, 57000, Note_on_c, 0, 67, 52
1, 57115, Tempo, 472441
1, 57120, Note_on_c, 0, 67, 0
1, 57120, Note_on_c, 0, 73, 0
1, 57120, Note_on_c, 0, 70, 0
1, 57120, Note_on_c, 0, 69, 59
1, 57120, Note_on_c, 0, 74, 71
1, 57120, Note_on_c, 0, 66, 59
1, 57136, Control_c, 0, 64, 0
1, 57195, Control_c, 0, 64, 127
1, 57231, Tempo, 474308
1, 57240, Note_on_c, 0, 66, 0
1, 57240, Note_on_c, 0, 74, 0
1, 57240, Note_on_c, 0, 69, 0
1, 57240, Note_on_c, 0, 70, 53
1, 57240, Note_on_c, 0, 73, 63
1, 57240, Note_on_c, 0, 67, 51
1, 57346, Tempo, 476190
1, 57360, Note_on_c, 0, 67, 0
1, 57360, Note_on_c, 0, 73, 0
1, 57360, Note_on_c, 0, 70, 0
1, 57360, Note_on_c, 0, 69, 63
1, 57360, Note_on_c, 0, 74, 75
1, 57360, Note_on_c, 0, 66, 63
1, 57461, Tempo, 478088
1, 57475, Tempo, 419845
1, 57480, Tempo, 556948
1, 57480, Note_on_c, 0, 66, 0
1, 57480, Note_on_c, 0, 74, 0
1, 57480, Note_on_c, 0, 69, 0
1, 57480, Note_on_c, 0, 70, 52
1, 57480, Note_on_c, 0, 73, 61
1, 57480, Note_on_c, 0, 67, 58
1, 57600, Tempo, 503821
1, 57600, Note_on_c, 0, 67, 0
1, 57600, Note_on_c, 0, 73, 0
1, 57600, Note_on_c, 0, 70, 0
1, 57600, Note_on_c, 0, 69, 83
1, 57600, Note_on_c, 0, 74, 83
1, 57600, Note_on_c, 0, 66, 70
1, 57600, Control_c, 0, 64, 0
1, 57840, Note_on_c, 0, 66, 0
1, 57840, Note_on_c, 0, 74, 0
1, 57840, Note_on_c, 0, 69, 0
1, 58080, Note_on_c, 0, 86, 100
1, 58080, Note_on_c, 0, 78, 84
1, 58080, Note_on_c, 0, 50, 62
1, 58080, Note_on_c, 0, 62, 74
1, 58186, Control_c, 0, 64, 127
1, 58800, Note_on_c, 0, 62, 0
1, 58800, Note_on_c, 0, 86, 0
1, 58800, Note_on_c, 0, 78, 0
1, 58800, Note_on_c, 0, 50, 0
1, 58800, Note_on_c, 0, 84, 75
1, 58800, Note_on_c, 0, 78, 63
1, 58800, Note_on_c, 0, 50, 46
1, 58800, Note_on_c, 0, 62, 56
1, 58816, Control_c, 0, 64, 0
1, 58920, Note_on_c, 0, 62, 0
1, 58920, Note_on_c, 0, 84, 0
1, 58920, Note_on_c, 0, 78, 0
1, 58920, Note_on_c, 0, 50, 0
1, 59040, Tempo, 491803
1, 59040, Note_on_c, 0, 82, 91
1, 59040, Note_on_c, 0, 79, 77
1, 59040, Note_on_c, 0, 51, 57
1, 59040, Note_on_c, 0, 63, 68
1, 59100, Control_c, 0, 64, 127
1, 59280, Note_on_c, 0, 63, 0
1, 59280, Note_on_c, 0, 82, 0
1, 59280, Note_on_c, 0, 79, 0
1, 59280, Note_on_c, 0, 51, 0
1, 59280, Control_c, 0, 64, 0
1, 59400, Tempo, 548697
1, 59400, Note_on_c, 0, 81, 73
1, 59400, Note_on_c, 0, 75, 61
1, 59400, Note_on_c, 0, 48, 45
1, 59400, Note_on_c, 0, 60, 53
1, 59460, Note_on_c, 0, 60, 0
1, 59460, Note_on_c, 0, 81, 0
1, 59460, Note_on_c, 0, 75, 0
1, 59460, Note_on_c, 0, 48, 0
1, 59520, Tempo, 494805
1, 59520, Note_on_c, 0, 70, 72
1, 59520, Note_on_c, 0, 79, 85
1, 59520, Note_on_c, 0, 50, 53
1, 59520, Note_on_c, 0, 62, 63
1, 59570, Control_c, 0, 64, 127
1, 59760, Note_on_c, 0, 62, 0
1, 59760, Note_on_c, 0, 70, 0
1, 59760, Note_on_c, 0, 79, 0
1, 59760, Note_on_c, 0, 50, 0
1, 59813, Control_c, 0, 64, 0
1, 60000, Note_on_c, 0, 72, 69
1, 60000, Note_on_c, 0, 78, 81
1, 60000, Note_on_c, 0, 38, 51
1, 60000, Note_on_c, 0, 50, 61
1, 60240, Tempo, 551420
1, 60240, Note_on_c, 0, 50, 0
1, 60240, Note_on_c, 0, 72, 0
1, 60240, Note_on_c, 0, 78, 0
1, 60240, Note_on_c, 0, 38, 0
1, 60480, Tempo, 508431
1, 60480, Note_on_c, 0, 72, 69
1, 60480, Note_on_c, 0, 81, 82
1, 60480, Note_on_c, 0, 43, 51
1, 60480, Note_on_c, 0, 55, 61
1, 60621, Control_c, 0, 64, 127
1, 60960, Note_on_c, 0, 81, 0
1, 60960, Note_on_c, 0, 72, 0
1, 60960, Note_on_c, 0, 70, 61
1, 60960, Note_on_c, 0, 79, 72
1, 60977, Control_c, 0, 64, 0
1, 61200, Note_on_c, 0, 79, 0
1, 61200, Note_on_c, 0, 55, 0
1, 61200, Note_on_c, 0, 43, 0
1, 61200, Note_on_c, 0, 70, 0
1, 61416, Tempo, 493827
1, 61422, Tempo, 504202
1, 61440, Note_on_c, 0, 56, 25
1, 61440, Note_on_c, 0, 58, 30
1, 61440, Note_on_c, 0, 50, 25
1, 61479, Tempo, 502092
1, 61505, Control_c, 0, 64, 127
1, 61518, Tempo, 500000
1, 61556, Tempo, 497925
1, 61560, Note_on_c, 0, 59, 27
1, 61560, Note_on_c, 0, 51, 22
1, 61561, Note_on_c, 0, 50, 0
1, 61561, Note_on_c, 0, 56, 0
1, 61561, Note_on_c, 0, 58, 0
1, 61595, Tempo, 495868
1, 61633, Tempo, 493827
1, 61671, Tempo, 491803
1, 61680, Note_on_c, 0, 56, 27
1, 61680, Note_on_c, 0, 58, 33
1, 61680, Note_on_c, 0, 50, 27
1, 61681, Note_on_c, 0, 59, 0
1, 61681, Note_on_c, 0, 51, 0
1, 61710, Tempo, 489796
1, 61748, Tempo, 487805
1, 61787, Tempo, 485830
1, 61800, Note_on_c, 0, 59, 27
1, 61800, Note_on_c, 0, 51, 24
1, 61801, Note_on_c, 0, 58, 0
1, 61801, Note_on_c, 0, 50, 0
1, 61801, Note_on_c, 0, 56, 0
1, 61825, Tempo, 483871
1, 61863, Tempo, 481928
1, 61915, Tempo, 481928
1, 61920, Note_on_c, 0, 56, 29
1, 61920, Note_on_c, 0, 58, 35
1, 61920, Note_on_c, 0, 50, 29
1, 61921, Note_on_c, 0, 59, 0
1, 61921, Note_on_c, 0, 51, 0
1, 61928, Control_c, 0, 64, 0
1, 61969, Control_c, 0, 64, 127
1, 61992, Tempo, 480000
1, 62040, Note_on_c, 0, 59, 32
1, 62040, Note_on_c, 0, 51, 25
1, 62041, Note_on_c, 0, 58, 0
1, 62041, Note_on_c, 0, 50, 0
1, 62041, Note_on_c, 0, 56, 0
1, 62069, Tempo, 478088
1, 62160, Note_on_c, 0, 56, 32
1, 62160, Note_on_c, 0, 58, 37
1, 62160, Note_on_c, 0, 50, 32
1, 62161, Note_on_c, 0, 59, 0
1, 62161, Note_on_c, 0, 51, 0
1, 62165, Tempo, 476190
1, 62242, Tempo, 474308
1, 62280, Note_on_c, 0, 59, 30
1, 62280, Note_on_c, 0, 51, 29
1, 62281, Note_on_c, 0, 58, 0
1, 62281, Note_on_c, 0, 50, 0
1, 62281, Note_on_c, 0, 56, 0
1, 62319, Tempo, 472441
1, 62395, Tempo, 470588
1, 62400, Note_on_c, 0, 56, 34
1, 62400, Note_on_c, 0, 58, 41
1, 62400, Note_on_c, 0, 50, 34
1, 62401, Note_on_c, 0, 59, 0
1, 62401, Note_on_c, 0, 51, 0
1, 62409, Control_c, 0, 64, 0
1, 62459, Control_c, 0, 64, 127
1, 62472, Tempo, 472441
1, 62520, Note_on_c, 0, 59, 38
1, 62520, Note_on_c, 0, 51, 30
1, 62521, Note_on_c, 0, 58, 0
1, 62521, Note_on_c, 0, 50, 0
1, 62521, Note_on_c, 0, 56, 0
1, 62530, Tempo, 474308
1, 62587, Tempo, 476190
1, 62640, Note_on_c, 0, 56, 37
1, 62640, Note_on_c, 0, 58, 44
1, 62640, Note_on_c, 0, 50, 37
1, 62641, Note_on_c, 0, 59, 0
1, 62641, Note_on_c, 0, 51, 0
1, 62645, Tempo, 478088
1, 62703, Tempo, 480000
1, 62760, Tempo, 481928
1, 62760, Note_on_c, 0, 59, 35
1, 62760, Note_on_c, 0, 51, 34
1, 62761, Note_on_c, 0, 58, 0
1, 62761, Note_on_c, 0, 50, 0
1, 62761, Note_on_c, 0, 56, 0
1, 62818, Tempo, 483871
1, 62875, Tempo, 485830
1, 62880, Note_on_c, 0, 56, 39
1, 62880, Note_on_c, 0, 58, 46
1, 62880, Note_on_c, 0, 50, 39
1, 62881, Note_on_c, 0, 59, 0
1, 62881, Note_on_c, 0, 51, 0
1, 62899, Control_c, 0, 64, 0
1, 62933, Tempo, 487805
1, 62952, Control_c, 0, 64, 127
1, 62991, Tempo, 489796
1, 63000, Note_on_c, 0, 59, 42
1, 63000, Note_on_c, 0, 51, 34
1, 63001, Note_on_c, 0, 58, 0
1, 63001, Note_on_c, 0, 50, 0
1, 63001, Note_on_c, 0, 56, 0
1, 63048, Tempo, 491803
1, 63106, Tempo, 493827
1, 63120, Note_on_c, 0, 56, 42
1, 63120, Note_on_c, 0, 58, 50
1, 63120, Note_on_c, 0, 50, 42
1, 63121, Note_on_c, 0, 59, 0
1, 63121, Note_on_c, 0, 51, 0
1, 63163, Tempo, 495868
1, 63221, Tempo, 497925
1, 63236, Tempo, 480000
1, 63240, Tempo, 556948
1, 63240, Note_on_c, 0, 59, 41
1, 63240, Note_on_c, 0, 51, 38
1, 63241, Note_on_c, 0, 58, 0
1, 63241, Note_on_c, 0, 50, 0
1, 63241, Note_on_c, 0, 56, 0
1, 63360, Tempo, 503821
1, 63360, Note_on_c, 0, 56, 65
1, 63360, Note_on_c, 0, 58, 65
1, 63360, Note_on_c, 0, 50, 54
1, 63360, Control_c, 0, 64, 0
1, 63361, Note_on_c, 0, 59, 0
1, 63361, Note_on_c, 0, 51, 0
1, 63600, Note_on_c, 0, 58, 0
1, 63600, Note_on_c, 0, 56, 0
1, 63600, Note_on_c, 0, 50, 0
1, 63840, Note_on_c, 0, 80, 85
1, 63840, Note_on_c, 0, 71, 72
1, 63840, Note_on_c, 0, 50, 53
1, 63840, Note_on_c, 0, 53, 64
1, 63946, Control_c, 0, 64, 127
1, 64560, Note_on_c, 0, 53, 0
1, 64560, Note_on_c, 0, 80, 0
1, 64560, Note_on_c, 0, 71, 0
1, 64560, Note_on_c, 0, 50, 0
1, 64560, Note_on_c, 0, 79, 59
1, 64560, Note_on_c, 0, 72, 49
1, 64560, Note_on_c, 0, 51, 36
1, 64560, Note_on_c, 0, 55, 43
1, 64576, Control_c, 0, 64, 0
1, 64800, Tempo, 487805
1, 64800, Note_on_c, 0, 55, 0
1, 64800, Note_on_c, 0, 79, 0
1, 64800, Note_on_c, 0, 72, 0
1, 64800, Note_on_c, 0, 51, 0
1, 64800, Note_on_c, 0, 77, 70
1, 64800, Note_on_c, 0, 68, 58
1, 64800, Note_on_c, 0, 47, 43
1, 64800, Note_on_c, 0, 50, 51
1, 64860, Control_c, 0, 64, 127
1, 65160, Tempo, 548697
1, 65160, Note_on_c, 0, 50, 0
1, 65160, Note_on_c, 0, 77, 0
1, 65160, Note_on_c, 0, 68, 0
1, 65160, Note_on_c, 0, 47, 0
1, 65160, Note_on_c, 0, 75, 53
1, 65160, Note_on_c, 0, 67, 45
1, 65160, Note_on_c, 0, 48, 32
1, 65160, Note_on_c, 0, 51, 39
1, 65167, Control_c, 0, 64, 0
1, 65280, Tempo, 494805
1, 65280, Note_on_c, 0, 51, 0
1, 65280, Note_on_c, 0, 75, 0
1, 65280, Note_on_c, 0, 67, 0
1, 65280, Note_on_c, 0, 48, 0
1, 65280, Note_on_c, 0, 65, 52
1, 65280, Note_on_c, 0, 74, 61
1, 65280, Note_on_c, 0, 50, 38
1, 65280, Note_on_c, 0, 53, 45
1, 65393, Control_c, 0, 64, 127
1, 65760, Note_on_c, 0, 53, 0
1, 65760, Note_on_c, 0, 65, 0
1, 65760, Note_on_c, 0, 74, 0
1, 65760, Note_on_c, 0, 50, 0
1, 65760, Note_on_c, 0, 63, 46
1, 65760, Note_on_c, 0, 72, 54
1, 65760, Note_on_c, 0, 51, 34
1, 65760, Note_on_c, 0, 55, 41
1, 65820, Control_c, 0, 64, 0
1, 66000, Tempo, 551420
1, 66240, Tempo, 508431
1, 66240, Note_on_c, 0, 55, 0
1, 66240, Note_on_c, 0, 63, 0
1, 66240, Note_on_c, 0, 72, 0
1, 66240, Note_on_c, 0, 51, 0
1, 66240, Note_on_c, 0, 62, 40
1, 66240, Note_on_c, 0, 70, 48
1, 66240, Note_on_c, 0, 53, 36
1, 66381, Control_c, 0, 64, 127
1, 66720, Note_on_c, 0, 53, 0
1, 66720, Note_on_c, 0, 70, 0
1, 66720, Note_on_c, 0, 62, 0
1, 66720, Note_on_c, 0, 60, 36
1, 66720, Note_on_c, 0, 69, 42
1, 66720, Note_on_c, 0, 41, 30
1, 66737, Control_c, 0, 64, 0
1, 66960, Note_on_c, 0, 41, 0
1, 66960, Note_on_c, 0, 69, 0
1, 66960, Note_on_c, 0, 60, 0
1, 67200, Tempo, 508431
1, 67200, Note_on_c, 0, 62, 50
1, 67560, Tempo, 556948
1, 67560, Note_on_c, 0, 62, 0
1, 67560, Note_on_c, 0, 63, 46
1, 67680, Tempo, 494805
1, 67680, Note_on_c, 0, 63, 0
1, 67680, Note_on_c, 0, 65, 50
1, 67680, Note_on_c, 0, 46, 40
1, 67737, Control_c, 0, 64, 127
1, 67800, Note_on_c, 0, 46, 0
1, 67920, Note_on_c, 0, 58, 29
1, 68160, Note_on_c, 0, 58, 0
1, 68160, Note_on_c, 0, 62, 34
1, 68171, Control_c, 0, 64, 0
1, 68220, Control_c, 0, 64, 127
1, 68400, Note_on_c, 0, 62, 0
1, 68400, Note_on_c, 0, 58, 29
1, 68610, Note_on_c, 0, 65, 0
1, 68610, Note_on_c, 0, 69, 46
1, 68640, Tempo, 487805
1, 68640, Note_on_c, 0, 69, 0
1, 68640, Note_on_c, 0, 58, 0
1, 68640, Note_on_c, 0, 67, 50
1, 68640, Note_on_c, 0, 63, 34
1, 68655, Control_c, 0, 64, 0
1, 68760, Note_on_c, 0, 67, 0
1, 68760, Note_on_c, 0, 65, 45
1, 68880, Tempo, 517911
1, 68880, Note_on_c, 0, 65, 0
1, 68880, Note_on_c, 0, 63, 0
1, 68880, Note_on_c, 0, 67, 50
1, 68880, Note_on_c, 0, 60, 31
1, 69000, Note_on_c, 0, 67, 0
1, 69000, Note_on_c, 0, 69, 43
1, 69120, Tempo, 492611
1, 69120, Note_on_c, 0, 69, 0
1, 69120, Note_on_c, 0, 60, 0
1, 69120, Note_on_c, 0, 70, 50
1, 69120, Note_on_c, 0, 62, 40
1, 69360, Note_on_c, 0, 62, 0
1, 69360, Note_on_c, 0, 61, 30
1, 69600, Note_on_c, 0, 61, 0
1, 69600, Note_on_c, 0, 70, 0
1, 69600, Note_on_c, 0, 65, 41
1, 69600, Note_on_c, 0, 62, 34
1, 69660, Control_c, 0, 64, 127
1, 69840, Note_on_c, 0, 62, 0
1, 69840, Note_on_c, 0, 58, 30
1, 70020, Note_on_c, 0, 65, 0
1, 70050, Note_on_c, 0, 69, 43
1, 70080, Tempo, 483871
1, 70080, Note_on_c, 0, 69, 0
1, 70080, Note_on_c, 0, 58, 0
1, 70080, Note_on_c, 0, 67, 50
1, 70080, Note_on_c, 0, 63, 34
1, 70099, Control_c, 0, 64, 0
1, 70200, Note_on_c, 0, 67, 0
1, 70200, Note_on_c, 0, 65, 46
1, 70320, Tempo, 515508
1, 70320, Note_on_c, 0, 65, 0
1, 70320, Note_on_c, 0, 63, 0
1, 70320, Note_on_c, 0, 67, 50
1, 70320, Note_on_c, 0, 60, 29
1, 70440, Note_on_c, 0, 67, 0
1, 70440, Note_on_c, 0, 69, 50
1, 70560, Tempo, 494805
1, 70560, Note_on_c, 0, 69, 0
1, 70560, Note_on_c, 0, 60, 0
1, 70560, Note_on_c, 0, 70, 50
1, 70560, Note_on_c, 0, 62, 40
1, 70620, Note_on_c, 0, 70, 0
1, 70800, Note_on_c, 0, 62, 0
1, 70800, Note_on_c, 0, 61, 30
1, 70920, Note_on_c, 0, 69, 46
1, 70980, Note_on_c, 0, 69, 0
1, 71040, Note_on_c, 0, 61, 0
1, 71040, Note_on_c, 0, 70, 56
1, 71040, Note_on_c, 0, 62, 34
1, 71100, Note_on_c, 0, 70, 0
1, 71280, Note_on_c, 0, 62, 0
1, 71280, Note_on_c, 0, 57, 30
1, 71400, Note_on_c, 0, 72, 48
1, 71460, Note_on_c, 0, 72, 0
1, 71520, Note_on_c, 0, 57, 0
1, 71520, Note_on_c, 0, 74, 55
1, 71520, Note_on_c, 0, 58, 34
1, 71580, Note_on_c, 0, 74, 0
1, 71760, Note_on_c, 0, 58, 0
1, 71760, Note_on_c, 0, 55, 30
1, 71880, Tempo, 560748
1, 71880, Note_on_c, 0, 76, 59
1, 71940, Note_on_c, 0, 76, 0
1, 71990, Note_on_c, 0, 55, 0
1, 72000, Tempo, 513128
1, 72000, Note_on_c, 0, 70, 53
1, 72000, Note_on_c, 0, 76, 63
1, 72000, Note_on_c, 0, 53, 40
1, 72000, Control_c, 0, 64, 127
1, 72480, Note_on_c, 0, 76, 0
1, 72480, Note_on_c, 0, 70, 0
1, 72480, Note_on_c, 0, 69, 48
1, 72480, Note_on_c, 0, 77, 57
1, 72480, Note_on_c, 0, 65, 35
1, 72496, Control_c, 0, 64, 0
1, 72720, Note_on_c, 0, 65, 0
1, 72720, Note_on_c, 0, 53, 0
1, 72720, Note_on_c, 0, 69, 0
1, 72720, Note_on_c, 0, 77, 0
1, 72930, Note_on_c, 0, 77, 43
1, 72960, Tempo, 492611
1, 72960, Note_on_c, 0, 77, 0
1, 72960, Note_on_c, 0, 75, 50
1, 73080, Note_on_c, 0, 75, 0
1, 73080, Note_on_c, 0, 74, 46
1, 73200, Note_on_c, 0, 74, 0
1, 73200, Note_on_c, 0, 75, 54
1, 73320, Note_on_c, 0, 75, 0
1, 73320, Note_on_c, 0, 77, 51
1, 73440, Note_on_c, 0, 77, 0
1, 73440, Note_on_c, 0, 79, 59
1, 73497, Control_c, 0, 64, 127
1, 73560, Note_on_c, 0, 41, 37
1, 73680, Note_on_c, 0, 41, 0
1, 73680, Note_on_c, 0, 45, 38
1, 73800, Note_on_c, 0, 45, 0
1, 73800, Note_on_c, 0, 48, 39
1, 73920, Tempo, 487805
1, 73920, Note_on_c, 0, 48, 0
1, 73920, Note_on_c, 0, 79, 0
1, 73920, Note_on_c, 0, 72, 50
1, 73920, Note_on_c, 0, 53, 40
1, 74040, Note_on_c, 0, 53, 0
1, 74040, Note_on_c, 0, 57, 41
1, 74160, Note_on_c, 0, 57, 0
1, 74160, Note_on_c, 0, 60, 42
1, 74280, Tempo, 522830
1, 74280, Note_on_c, 0, 60, 0
1, 74280, Note_on_c, 0, 62, 43
1, 74340, Note_on_c, 0, 72, 0
1, 74370, Note_on_c, 0, 74, 43
1, 74400, Tempo, 490436
1, 74400, Note_on_c, 0, 74, 0
1, 74400, Note_on_c, 0, 62, 0
1, 74400, Note_on_c, 0, 72, 50
1, 74400, Note_on_c, 0, 63, 48
1, 74406, Control_c, 0, 64, 0
1, 74520, Note_on_c, 0, 72, 0
1, 74520, Note_on_c, 0, 71, 46
1, 74640, Note_on_c, 0, 71, 0
1, 74640, Note_on_c, 0, 72, 54
1, 74760, Note_on_c, 0, 72, 0
1, 74760, Note_on_c, 0, 74, 51
1, 74880, Note_on_c, 0, 74, 0
1, 74880, Note_on_c, 0, 75, 59
1, 74933, Control_c, 0, 64, 127
1, 75000, Note_on_c, 0, 63, 0
1, 75000, Note_on_c, 0, 41, 37
1, 75120, Note_on_c, 0, 41, 0
1, 75120, Note_on_c, 0, 45, 41
1, 75240, Note_on_c, 0, 45, 0
1, 75240, Note_on_c, 0, 48, 43
1, 75360, Tempo, 485830
1, 75360, Note_on_c, 0, 48, 0
1, 75360, Note_on_c, 0, 75, 0
1, 75360, Note_on_c, 0, 69, 50
1, 75360, Note_on_c, 0, 53, 44
1, 75480, Note_on_c, 0, 53, 0
1, 75480, Note_on_c, 0, 57, 46
1, 75600, Note_on_c, 0, 57, 0
1, 75600, Note_on_c, 0, 60, 48
1, 75720, Tempo, 515508
1, 75720, Note_on_c, 0, 60, 0
1, 75720, Note_on_c, 0, 63, 49
1, 75780, Note_on_c, 0, 69, 0
1, 75810, Note_on_c, 0, 70, 43
1, 75840, Tempo, 490436
1, 75840, Note_on_c, 0, 70, 0
1, 75840, Note_on_c, 0, 63, 0
1, 75840, Note_on_c, 0, 69, 50
1, 75840, Note_on_c, 0, 66, 55
1, 75854, Control_c, 0, 64, 0
1, 75960, Note_on_c, 0, 69, 0
1, 75960, Note_on_c, 0, 67, 46
1, 76080, Note_on_c, 0, 67, 0
1, 76080, Note_on_c, 0, 69, 52
1, 76200, Tempo, 508431
1, 76200, Note_on_c, 0, 69, 0
1, 76200, Note_on_c, 0, 70, 48
1, 76280, Note_on_c, 0, 70, 0
1, 76290, Note_on_c, 0, 74, 43
1, 76320, Tempo, 490436
1, 76320, Note_on_c, 0, 74, 0
1, 76320, Note_on_c, 0, 72, 53
1, 76440, Note_on_c, 0, 72, 0
1, 76440, Note_on_c, 0, 71, 50
1, 76560, Note_on_c, 0, 71, 0
1, 76560, Note_on_c, 0, 72, 54
1, 76680, Tempo, 510769
1, 76680, Note_on_c, 0, 72, 0
1, 76680, Note_on_c, 0, 74, 51
1, 76760, Note_on_c, 0, 74, 0
1, 76770, Note_on_c, 0, 77, 43
1, 76800, Tempo, 492611
1, 76800, Note_on_c, 0, 77, 0
1, 76800, Note_on_c, 0, 66, 0
1, 76800, Note_on_c, 0, 75, 57
1, 76800, Note_on_c, 0, 65, 38
1, 76800, Note_on_c, 0, 53, 38
1, 76920, Note_on_c, 0, 75, 0
1, 76920, Note_on_c, 0, 74, 52
1, 77040, Note_on_c, 0, 74, 0
1, 77040, Note_on_c, 0, 75, 58
1, 77160, Note_on_c, 0, 75, 0
1, 77160, Note_on_c, 0, 77, 55
1, 77280, Note_on_c, 0, 77, 0
1, 77280, Note_on_c, 0, 53, 0
1, 77280, Note_on_c, 0, 65, 0
1, 77280, Note_on_c, 0, 79, 61
1, 77280, Note_on_c, 0, 53, 32
1, 77280, Note_on_c, 0, 63, 32
1, 77400, Note_on_c, 0, 79, 0
1, 77400, Note_on_c, 0, 75, 59
1, 77520, Tempo, 556948
1, 77520, Note_on_c, 0, 75, 0
1, 77520, Note_on_c, 0, 72, 52
1, 77640, Tempo, 622665
1, 77640, Note_on_c, 0, 72, 0
1, 77640, Note_on_c, 0, 69, 42
1, 77760, Tempo, 494805
1, 77760, Note_on_c, 0, 69, 0
1, 77760, Note_on_c, 0, 63, 0
1, 77760, Note_on_c, 0, 53, 0
1, 77760, Note_on_c, 0, 70, 50
1, 77760, Note_on_c, 0, 46, 40
1, 77817, Control_c, 0, 64, 127
1, 77880, Note_on_c, 0, 46, 0
1, 78000, Note_on_c, 0, 58, 29
1, 78240, Note_on_c, 0, 58, 0
1, 78240, Note_on_c, 0, 70, 0
1, 78240, Note_on_c, 0, 62, 34
1, 78251, Control_c, 0, 64, 0
1, 78300, Control_c, 0, 64, 127
1, 78480, Note_on_c, 0, 62, 0
1, 78480, Note_on_c, 0, 58, 29
1, 78690, Note_on_c, 0, 81, 46
1, 78720, Note_on_c, 0, 81, 0
1, 78720, Note_on_c, 0, 58, 0
1, 78720, Note_on_c, 0, 79, 50
1, 78720, Note_on_c, 0, 63, 34
1, 78735, Control_c, 0, 64, 0
1, 78840, Note_on_c, 0, 79, 0
1, 78840, Note_on_c, 0, 78, 45
1, 78960, Tempo, 517911
1, 78960, Note_on_c, 0, 78, 0
1, 78960, Note_on_c, 0, 63, 0
1, 78960, Note_on_c, 0, 79, 50
1, 78960, Note_on_c, 0, 58, 31
1, 79080, Note_on_c, 0, 79, 0
1, 79080, Note_on_c, 0, 81, 43
1, 79200, Tempo, 492611
1, 79200, Note_on_c, 0, 81, 0
1, 79200, Note_on_c, 0, 58, 0
1, 79200, Note_on_c, 0, 82, 50
1, 79200, Note_on_c, 0, 62, 40
1, 79440, Note_on_c, 0, 62, 0
1, 79440, Note_on_c, 0, 61, 30
1, 79680, Note_on_c, 0, 61, 0
1, 79680, Note_on_c, 0, 82, 0
1, 79680, Note_on_c, 0, 77, 41
1, 79680, Note_on_c, 0, 62, 34
1, 79740, Control_c, 0, 64, 127
1, 79920, Note_on_c, 0, 62, 0
1, 79920, Note_on_c, 0, 58, 30
1, 80100, Note_on_c, 0, 77, 0
1, 80130, Note_on_c, 0, 69, 43
1, 80160, Note_on_c, 0, 69, 0
1, 80160, Note_on_c, 0, 58, 0
1, 80160, Note_on_c, 0, 75, 41
1, 80160, Note_on_c, 0, 67, 50
1, 80160, Note_on_c, 0, 60, 34
1, 80179, Control_c, 0, 64, 0
1, 80280, Note_on_c, 0, 67, 0
1, 80280, Note_on_c, 0, 65, 46
1, 80400, Tempo, 515508
1, 80400, Note_on_c, 0, 65, 0
1, 80400, Note_on_c, 0, 60, 0
1, 80400, Note_on_c, 0, 67, 50
1, 80400, Note_on_c, 0, 53, 29
1, 80520, Note_on_c, 0, 67, 0
1, 80520, Note_on_c, 0, 69, 46
1, 80640, Tempo, 492611
1, 80640, Note_on_c, 0, 69, 0
1, 80640, Note_on_c, 0, 53, 0
1, 80640, Note_on_c, 0, 75, 0
1, 80640, Note_on_c, 0, 74, 44
1, 80640, Note_on_c, 0, 70, 50
1, 80640, Note_on_c, 0, 58, 40
1, 80880, Note_on_c, 0, 58, 0
1, 80880, Note_on_c, 0, 46, 30
1, 81120, Note_on_c, 0, 46, 0
1, 81120, Note_on_c, 0, 70, 0
1, 81120, Note_on_c, 0, 74, 0
1, 81120, Note_on_c, 0, 65, 41
1, 81120, Note_on_c, 0, 50, 34
1, 81180, Control_c, 0, 64, 127
1, 81360, Note_on_c, 0, 50, 0
1, 81360, Note_on_c, 0, 65, 0
1, 81360, Note_on_c, 0, 46, 30
1, 81570, Note_on_c, 0, 69, 43
1, 81600, Tempo, 485830
1, 81600, Note_on_c, 0, 69, 0
1, 81600, Note_on_c, 0, 46, 0
1, 81600, Note_on_c, 0, 67, 50
1, 81600, Note_on_c, 0, 51, 34
1, 81619, Control_c, 0, 64, 0
1, 81720, Note_on_c, 0, 67, 0
1, 81720, Note_on_c, 0, 66, 46
1, 81840, Tempo, 515508
1, 81840, Note_on_c, 0, 66, 0
1, 81840, Note_on_c, 0, 51, 0
1, 81840, Note_on_c, 0, 67, 50
1, 81840, Note_on_c, 0, 46, 29
1, 81960, Note_on_c, 0, 67, 0
1, 81960, Note_on_c, 0, 69, 46
1, 82080, Tempo, 492611
1, 82080, Note_on_c, 0, 69, 0
1, 82080, Note_on_c, 0, 46, 0
1, 82080, Note_on_c, 0, 70, 50
1, 82080, Note_on_c, 0, 50, 40
1, 82320, Note_on_c, 0, 50, 0
1, 82320, Note_on_c, 0, 49, 30
1, 82560, Note_on_c, 0, 49, 0
1, 82560, Note_on_c, 0, 70, 0
1, 82560, Note_on_c, 0, 65, 41
1, 82560, Note_on_c, 0, 50, 34
1, 82620, Control_c, 0, 64, 127
1, 82800, Note_on_c, 0, 50, 0
1, 82800, Note_on_c, 0, 46, 30
1, 82980, Note_on_c, 0, 65, 0
1, 83010, Note_on_c, 0, 57, 36
1, 83040, Tempo, 485830
1, 83040, Note_on_c, 0, 57, 0
1, 83040, Note_on_c, 0, 46, 0
1, 83040, Note_on_c, 0, 63, 34
1, 83040, Note_on_c, 0, 55, 42
1, 83040, Note_on_c, 0, 48, 34
1, 83059, Control_c, 0, 64, 0
1, 83160, Note_on_c, 0, 55, 0
1, 83160, Note_on_c, 0, 53, 39
1, 83280, Tempo, 515508
1, 83280, Note_on_c, 0, 53, 0
1, 83280, Note_on_c, 0, 48, 0
1, 83280, Note_on_c, 0, 55, 42
1, 83280, Note_on_c, 0, 41, 29
1, 83400, Note_on_c, 0, 55, 0
1, 83400, Note_on_c, 0, 57, 39
1, 83520, Note_on_c, 0, 57, 0
1, 83520, Note_on_c, 0, 41, 0
1, 83520, Note_on_c, 0, 63, 0
1, 83520, Note_on_c, 0, 62, 34
1, 83520, Note_on_c, 0, 58, 42
1, 83520, Note_on_c, 0, 46, 40
1, 83616, Control_c, 0, 64, 127
1, 83760, Note_on_c, 0, 46, 0
1, 83760, Note_on_c, 0, 58, 0
1, 83760, Note_on_c, 0, 53, 33
1, 83760, Note_on_c, 0, 50, 30
1, 83947, Control_c, 0, 64, 0
1, 83960, Note_on_c, 0, 53, 0
1, 83970, Tempo, 492611
1, 83970, Note_on_c, 0, 57, 37
1, 84000, Note_on_c, 0, 57, 0
1, 84000, Note_on_c, 0, 50, 0
1, 84000, Note_on_c, 0, 62, 0
1, 84000, Note_on_c, 0, 63, 39
1, 84000, Note_on_c, 0, 55, 43
1, 84000, Note_on_c, 0, 48, 35
1, 84120, Note_on_c, 0, 55, 0
1, 84120, Note_on_c, 0, 53, 40
1, 84240, Tempo, 515508
1, 84240, Note_on_c, 0, 53, 0
1, 84240, Note_on_c, 0, 48, 0
1, 84240, Note_on_c, 0, 55, 44
1, 84240, Note_on_c, 0, 41, 31
1, 84360, Note_on_c, 0, 55, 0
1, 84360, Note_on_c, 0, 57, 40
1, 84480, Note_on_c, 0, 57, 0
1, 84480, Note_on_c, 0, 41, 0
1, 84480, Note_on_c, 0, 63, 0
1, 84480, Note_on_c, 0, 62, 36
1, 84480, Note_on_c, 0, 58, 44
1, 84480, Note_on_c, 0, 46, 36
1, 84572, Control_c, 0, 64, 127
1, 84720, Note_on_c, 0, 46, 0
1, 84720, Note_on_c, 0, 58, 0
1, 84720, Note_on_c, 0, 53, 34
1, 84720, Note_on_c, 0, 50, 31
1, 84900, Note_on_c, 0, 53, 0
1, 84900, Control_c, 0, 64, 0
1, 84930, Tempo, 492611
1, 84930, Note_on_c, 0, 57, 39
1, 84960, Note_on_c, 0, 57, 0
1, 84960, Note_on_c, 0, 50, 0
1, 84960, Note_on_c, 0, 62, 0
1, 84960, Note_on_c, 0, 63, 44
1, 84960, Note_on_c, 0, 55, 46
1, 84960, Note_on_c, 0, 48, 44
1, 85080, Note_on_c, 0, 55, 0
1, 85080, Note_on_c, 0, 53, 43
1, 85200, Tempo, 515508
1, 85200, Note_on_c, 0, 53, 0
1, 85200, Note_on_c, 0, 48, 0
1, 85200, Note_on_c, 0, 55, 47
1, 85200, Note_on_c, 0, 41, 33
1, 85320, Note_on_c, 0, 55, 0
1, 85320, Note_on_c, 0, 57, 44
1, 85440, Tempo, 497018
1, 85440, Note_on_c, 0, 57, 0
1, 85440, Note_on_c, 0, 41, 0
1, 85440, Note_on_c, 0, 63, 0
1, 85440, Note_on_c, 0, 62, 42
1, 85440, Note_on_c, 0, 58, 48
1, 85440, Note_on_c, 0, 46, 45
1, 85521, Control_c, 0, 64, 127
1, 85560, Note_on_c, 0, 46, 0
1, 85560, Note_on_c, 0, 58, 0
1, 85560, Note_on_c, 0, 53, 41
1, 85560, Note_on_c, 0, 50, 37
1, 85680, Note_on_c, 0, 50, 0
1, 85680, Note_on_c, 0, 53, 0
1, 85680, Note_on_c, 0, 62, 0
1, 85680, Note_on_c, 0, 63, 40
1, 85680, Note_on_c, 0, 57, 50
1, 85680, Note_on_c, 0, 41, 46
1, 85693, Control_c, 0, 64, 0
1, 85744, Control_c, 0, 64, 127
1, 85800, Note_on_c, 0, 41, 0
1, 85800, Note_on_c, 0, 57, 0
1, 85800, Note_on_c, 0, 53, 43
1, 85800, Note_on_c, 0, 48, 39
1, 85920, Note_on_c, 0, 48, 0
1, 85920, Note_on_c, 0, 53, 0
1, 85920, Note_on_c, 0, 63, 0
1, 85920, Note_on_c, 0, 62, 49
1, 85920, Note_on_c, 0, 58, 51
1, 85920, Note_on_c, 0, 46, 47
1, 85935, Control_c, 0, 64, 0
1, 85980, Control_c, 0, 64, 127
1, 86040, Note_on_c, 0, 46, 0
1, 86040, Note_on_c, 0, 58, 0
1, 86040, Note_on_c, 0, 53, 46
1, 86040, Note_on_c, 0, 50, 41
1, 86160, Note_on_c, 0, 50, 0
1, 86160, Note_on_c, 0, 53, 0
1, 86160, Note_on_c, 0, 62, 0
1, 86160, Note_on_c, 0, 63, 42
1, 86160, Note_on_c, 0, 57, 52
1, 86160, Note_on_c, 0, 41, 49
1, 86167, Control_c, 0, 64, 0
1, 86220, Control_c, 0, 64, 127
1, 86280, Tempo, 551420
1, 86280, Note_on_c, 0, 41, 0
1, 86280, Note_on_c, 0, 57, 0
1, 86280, Note_on_c, 0, 53, 47
1, 86280, Note_on_c, 0, 48, 43
1, 86400, Tempo, 497018
1, 86400, Note_on_c, 0, 48, 0
1, 86400, Note_on_c, 0, 53, 0
1, 86400, Note_on_c, 0, 63, 0
1, 86400, Note_on_c, 0, 58, 34
1, 86400, Note_on_c, 0, 62, 40
1, 86400, Note_on_c, 0, 46, 24
1, 86400, Note_on_c, 0, 50, 30
1, 86400, Control_c, 0, 64, 0
1, 86520, Note_on_c, 0, 50, 0
1, 86520, Note_on_c, 0, 58, 0
1, 86520, Note_on_c, 0, 62, 0
1, 86520, Note_on_c, 0, 46, 0
1, 86880, Note_on_c, 0, 62, 34
1, 86880, Note_on_c, 0, 70, 40
1, 86880, Note_on_c, 0, 34, 24
1, 86880, Note_on_c, 0, 46, 30
1, 87000, Note_on_c, 0, 46, 0
1, 87000, Note_on_c, 0, 62, 0
1, 87000, Note_on_c, 0, 70, 0
1, 87000, Note_on_c, 0, 34, 0
1, 87180, Tempo, 497018
1, 87360, Tempo, 480000
1, 87360, Marker_t, "Minore Teil 1"
1, 87360, Note_on_c, 0, 62, 62
1, 87480, Note_on_c, 0, 62, 0
1, 87480, Note_on_c, 0, 63, 48
1, 87600, Note_on_c, 0, 63, 0
1, 87600, Note_on_c, 0, 62, 48
1, 87720, Tempo, 519481
1, 87720, Note_on_c, 0, 62, 0
1, 87720, Note_on_c, 0, 60, 48
1, 87840, Tempo, 481928
1, 87840, Note_on_c, 0, 60, 0
1, 87840, Note_on_c, 0, 58, 62
1, 87840, Control_c, 0, 64, 0
1, 87960, Note_on_c, 0, 58, 0
1, 87960, Note_on_c, 0, 60, 48
1, 88080, Note_on_c, 0, 60, 0
1, 88080, Note_on_c, 0, 58, 47
1, 88200, Tempo, 515021
1, 88200, Note_on_c, 0, 58, 0
1, 88200, Note_on_c, 0, 57, 47
1, 88320, Tempo, 481928
1, 88320, Note_on_c, 0, 57, 0
1, 88320, Note_on_c, 0, 62, 61
1, 88320, Note_on_c, 0, 67, 61
1, 88320, Note_on_c, 0, 70, 61
1, 88320, Note_on_c, 0, 74, 79
1, 88320, Note_on_c, 0, 55, 63
1, 88363, Control_c, 0, 64, 127
1, 88440, Note_on_c, 0, 55, 0
1, 88440, Note_on_c, 0, 57, 46
1, 88560, Note_on_c, 0, 57, 0
1, 88560, Note_on_c, 0, 58, 46
1, 88680, Tempo, 510638
1, 88680, Note_on_c, 0, 58, 0
1, 88680, Note_on_c, 0, 57, 46
1, 88800, Tempo, 481928
1, 88800, Note_on_c, 0, 57, 0
1, 88800, Note_on_c, 0, 55, 58
1, 88807, Control_c, 0, 64, 0
1, 88906, Control_c, 0, 64, 127
1, 88920, Note_on_c, 0, 55, 0
1, 88920, Note_on_c, 0, 58, 46
1, 89040, Note_on_c, 0, 58, 0
1, 89040, Note_on_c, 0, 57, 46
1, 89160, Tempo, 506329
1, 89160, Note_on_c, 0, 57, 0
1, 89160, Note_on_c, 0, 55, 45
1, 89270, Note_on_c, 0, 70, 0
1, 89270, Note_on_c, 0, 67, 0
1, 89280, Tempo, 481928
1, 89280, Note_on_c, 0, 55, 0
1, 89280, Note_on_c, 0, 69, 62
1, 89280, Note_on_c, 0, 72, 62
1, 89280, Note_on_c, 0, 54, 59
1, 89286, Control_c, 0, 64, 0
1, 89400, Note_on_c, 0, 54, 0
1, 89400, Note_on_c, 0, 69, 0
1, 89400, Note_on_c, 0, 72, 0
1, 89400, Note_on_c, 0, 55, 45
1, 89520, Note_on_c, 0, 55, 0
1, 89520, Note_on_c, 0, 54, 45
1, 89640, Tempo, 510638
1, 89640, Note_on_c, 0, 54, 0
1, 89640, Note_on_c, 0, 51, 44
1, 89750, Note_on_c, 0, 74, 0
1, 89750, Note_on_c, 0, 62, 0
1, 89760, Tempo, 481928
1, 89760, Note_on_c, 0, 51, 0
1, 89760, Note_on_c, 0, 62, 59
1, 89760, Note_on_c, 0, 74, 81
1, 89760, Note_on_c, 0, 69, 59
1, 89760, Note_on_c, 0, 66, 59
1, 89760, Note_on_c, 0, 50, 57
1, 89823, Control_c, 0, 64, 127
1, 89880, Note_on_c, 0, 50, 0
1, 89880, Note_on_c, 0, 51, 44
1, 90000, Note_on_c, 0, 51, 0
1, 90000, Note_on_c, 0, 50, 42
1, 90120, Tempo, 506329
1, 90120, Note_on_c, 0, 50, 0
1, 90120, Note_on_c, 0, 48, 42
1, 90240, Tempo, 481928
1, 90240, Note_on_c, 0, 48, 0
1, 90240, Note_on_c, 0, 46, 55
1, 90255, Control_c, 0, 64, 0
1, 90360, Note_on_c, 0, 46, 0
1, 90360, Note_on_c, 0, 48, 41
1, 90360, Control_c, 0, 64, 127
1, 90480, Note_on_c, 0, 48, 0
1, 90480, Note_on_c, 0, 46, 41
1, 90600, Tempo, 515021
1, 90600, Note_on_c, 0, 46, 0
1, 90600, Note_on_c, 0, 45, 41
1, 90710, Note_on_c, 0, 69, 0
1, 90710, Note_on_c, 0, 66, 0
1, 90720, Tempo, 487805
1, 90720, Note_on_c, 0, 45, 0
1, 90720, Note_on_c, 0, 70, 62
1, 90720, Note_on_c, 0, 67, 62
1, 90720, Note_on_c, 0, 43, 56
1, 90720, Control_c, 0, 64, 0
1, 90840, Note_on_c, 0, 43, 0
1, 90840, Note_on_c, 0, 70, 0
1, 90840, Note_on_c, 0, 67, 0
1, 90840, Note_on_c, 0, 42, 42
1, 90960, Note_on_c, 0, 42, 0
1, 90960, Note_on_c, 0, 43, 42
1, 91080, Note_on_c, 0, 43, 0
1, 91080, Note_on_c, 0, 45, 42
1, 91190, Note_on_c, 0, 74, 0
1, 91190, Note_on_c, 0, 62, 0
1, 91200, Tempo, 481928
1, 91200, Note_on_c, 0, 45, 0
1, 91200, Note_on_c, 0, 67, 68
1, 91200, Note_on_c, 0, 70, 68
1, 91200, Note_on_c, 0, 79, 89
1, 91200, Note_on_c, 0, 46, 55
1, 91315, Control_c, 0, 64, 127
1, 91320, Note_on_c, 0, 46, 0
1, 91320, Note_on_c, 0, 45, 42
1, 91440, Note_on_c, 0, 45, 0
1, 91440, Note_on_c, 0, 46, 41
1, 91560, Note_on_c, 0, 46, 0
1, 91560, Note_on_c, 0, 47, 41
1, 91680, Note_on_c, 0, 47, 0
1, 91680, Note_on_c, 0, 48, 59
1, 91695, Control_c, 0, 64, 0
1, 91795, Control_c, 0, 64, 127
1, 91800, Note_on_c, 0, 48, 0
1, 91800, Note_on_c, 0, 47, 47
1, 91920, Note_on_c, 0, 47, 0
1, 91920, Note_on_c, 0, 48, 48
1, 92034, Note_on_c, 0, 49, 48
1, 92040, Tempo, 500000
1, 92040, Note_on_c, 0, 48, 0
1, 92154, Note_on_c, 0, 49, 0
1, 92160, Tempo, 478088
1, 92160, Note_on_c, 0, 67, 0
1, 92160, Note_on_c, 0, 70, 0
1, 92160, Note_on_c, 0, 79, 0
1, 92160, Note_on_c, 0, 66, 63
1, 92160, Note_on_c, 0, 69, 63
1, 92160, Note_on_c, 0, 78, 75
1, 92160, Note_on_c, 0, 50, 60
1, 92172, Control_c, 0, 64, 0
1, 92257, Control_c, 0, 64, 127
1, 92280, Note_on_c, 0, 50, 0
1, 92280, Note_on_c, 0, 38, 46
1, 92400, Note_on_c, 0, 38, 0
1, 92400, Note_on_c, 0, 42, 46
1, 92520, Note_on_c, 0, 42, 0
1, 92520, Note_on_c, 0, 45, 42
1, 92640, Note_on_c, 0, 45, 0
1, 92640, Note_on_c, 0, 78, 0
1, 92640, Note_on_c, 0, 69, 0
1, 92640, Note_on_c, 0, 66, 0
1, 92640, Note_on_c, 0, 50, 57
1, 92760, Note_on_c, 0, 50, 0
1, 92760, Note_on_c, 0, 54, 53
1, 92880, Note_on_c, 0, 54, 0
1, 92886, Note_on_c, 0, 57, 56
1, 93000, Tempo, 621762
1, 93000, Note_on_c, 0, 61, 58
1, 93006, Note_on_c, 0, 57, 0
1, 93120, Tempo, 480000
1, 93120, Note_on_c, 0, 61, 0
1, 93120, Note_on_c, 0, 62, 66
1, 93160, Control_c, 0, 64, 0
1, 93240, Note_on_c, 0, 62, 0
1, 93240, Note_on_c, 0, 63, 59
1, 93360, Note_on_c, 0, 63, 0
1, 93360, Note_on_c, 0, 62, 57
1, 93480, Tempo, 519481
1, 93480, Note_on_c, 0, 62, 0
1, 93480, Note_on_c, 0, 60, 56
1, 93600, Tempo, 481928
1, 93600, Note_on_c, 0, 60, 0
1, 93600, Note_on_c, 0, 58, 62
1, 93720, Note_on_c, 0, 58, 0
1, 93720, Note_on_c, 0, 60, 48
1, 93840, Note_on_c, 0, 60, 0
1, 93840, Note_on_c, 0, 58, 47
1, 93960, Tempo, 515021
1, 93960, Note_on_c, 0, 58, 0
1, 93960, Note_on_c, 0, 57, 47
1, 94080, Tempo, 481928
1, 94080, Note_on_c, 0, 57, 0
1, 94080, Note_on_c, 0, 67, 61
1, 94080, Note_on_c, 0, 70, 61
1, 94080, Note_on_c, 0, 74, 61
1, 94080, Note_on_c, 0, 79, 79
1, 94080, Note_on_c, 0, 55, 63
1, 94155, Control_c, 0, 64, 127
1, 94200, Note_on_c, 0, 55, 0
1, 94200, Note_on_c, 0, 57, 46
1, 94320, Note_on_c, 0, 57, 0
1, 94320, Note_on_c, 0, 55, 46
1, 94440, Tempo, 510638
1, 94440, Note_on_c, 0, 55, 0
1, 94440, Note_on_c, 0, 53, 46
1, 94560, Tempo, 481928
1, 94560, Note_on_c, 0, 53, 0
1, 94560, Note_on_c, 0, 74, 0
1, 94560, Note_on_c, 0, 73, 74
1, 94560, Note_on_c, 0, 52, 58
1, 94567, Control_c, 0, 64, 0
1, 94666, Control_c, 0, 64, 127
1, 94680, Note_on_c, 0, 52, 0
1, 94680, Note_on_c, 0, 53, 46
1, 94800, Note_on_c, 0, 53, 0
1, 94800, Note_on_c, 0, 52, 46
1, 94920, Tempo, 506329
1, 94920, Note_on_c, 0, 52, 0
1, 94920, Note_on_c, 0, 50, 45
1, 95040, Tempo, 481928
1, 95040, Note_on_c, 0, 50, 0
1, 95040, Note_on_c, 0, 73, 0
1, 95040, Note_on_c, 0, 76, 80
1, 95040, Note_on_c, 0, 49, 59
1, 95046, Control_c, 0, 64, 0
1, 95160, Note_on_c, 0, 49, 0
1, 95160, Note_on_c, 0, 76, 0
1, 95160, Note_on_c, 0, 50, 45
1, 95280, Note_on_c, 0, 50, 0
1, 95280, Note_on_c, 0, 49, 45
1, 95400, Tempo, 510638
1, 95400, Note_on_c, 0, 49, 0
1, 95400, Note_on_c, 0, 46, 44
1, 95510, Note_on_c, 0, 79, 0
1, 95510, Note_on_c, 0, 67, 0
1, 95520, Tempo, 481928
1, 95520, Note_on_c, 0, 70, 0
1, 95520, Note_on_c, 0, 46, 0
1, 95520, Note_on_c, 0, 85, 86
1, 95520, Note_on_c, 0, 76, 59
1, 95520, Note_on_c, 0, 73, 66
1, 95520, Note_on_c, 0, 45, 57
1, 95600, Control_c, 0, 64, 127
1, 95640, Note_on_c, 0, 45, 0
1, 95640, Note_on_c, 0, 46, 44
1, 95760, Note_on_c, 0, 46, 0
1, 95760, Note_on_c, 0, 45, 42
1, 95880, Tempo, 506329
1, 95880, Note_on_c, 0, 45, 0
1, 95880, Note_on_c, 0, 43, 42
1, 96000, Tempo, 481928
1, 96000, Note_on_c, 0, 43, 0
1, 96000, Note_on_c, 0, 76, 0
1, 96000, Note_on_c, 0, 79, 80
1, 96000, Note_on_c, 0, 41, 55
1, 96015, Control_c, 0, 64, 0
1, 96120, Note_on_c, 0, 41, 0
1, 96120, Note_on_c, 0, 43, 41
1, 96120, Control_c, 0, 64, 127
1, 96240, Note_on_c, 0, 43, 0
1, 96240, Note_on_c, 0, 41, 41
1, 96360, Tempo, 515021
1, 96360, Note_on_c, 0, 41, 0
1, 96360, Note_on_c, 0, 40, 41
1, 96480, Tempo, 487805
1, 96480, Note_on_c, 0, 40, 0
1, 96480, Note_on_c, 0, 79, 0
1, 96480, Note_on_c, 0, 73, 0
1, 96480, Note_on_c, 0, 85, 0
1, 96480, Note_on_c, 0, 74, 74
1, 96480, Note_on_c, 0, 86, 88
1, 96480, Note_on_c, 0, 77, 74
1, 96480, Note_on_c, 0, 38, 56
1, 96480, Control_c, 0, 64, 0
1, 96600, Note_on_c, 0, 38, 0
1, 96600, Note_on_c, 0, 74, 0
1, 96600, Note_on_c, 0, 86, 0
1, 96600, Note_on_c, 0, 77, 0
1, 96600, Note_on_c, 0, 40, 42
1, 96720, Note_on_c, 0, 40, 0
1, 96720, Note_on_c, 0, 41, 42
1, 96840, Note_on_c, 0, 41, 0
1, 96840, Note_on_c, 0, 38, 42
1, 96960, Tempo, 481928
1, 96960, Note_on_c, 0, 38, 0
1, 96960, Note_on_c, 0, 74, 74
1, 96960, Note_on_c, 0, 76, 74
1, 96960, Note_on_c, 0, 86, 88
1, 96960, Note_on_c, 0, 43, 55
1, 97075, Control_c, 0, 64, 127
1, 97080, Note_on_c, 0, 43, 0
1, 97080, Note_on_c, 0, 45, 42
1, 97200, Note_on_c, 0, 45, 0
1, 97200, Note_on_c, 0, 86, 0
1, 97200, Note_on_c, 0, 76, 0
1, 97200, Note_on_c, 0, 74, 0
1, 97200, Note_on_c, 0, 46, 41
1, 97211, Control_c, 0, 64, 0
1, 97320, Note_on_c, 0, 46, 0
1, 97320, Note_on_c, 0, 43, 41
1, 97440, Note_on_c, 0, 43, 0
1, 97440, Note_on_c, 0, 73, 70
1, 97440, Note_on_c, 0, 76, 70
1, 97440, Note_on_c, 0, 85, 83
1, 97440, Note_on_c, 0, 45, 57
1, 97555, Control_c, 0, 64, 127
1, 97560, Note_on_c, 0, 45, 0
1, 97560, Note_on_c, 0, 44, 45
1, 97680, Note_on_c, 0, 44, 0
1, 97680, Note_on_c, 0, 85, 0
1, 97680, Note_on_c, 0, 76, 0
1, 97680, Note_on_c, 0, 73, 0
1, 97680, Note_on_c, 0, 45, 45
1, 97800, Tempo, 500000
1, 97800, Note_on_c, 0, 45, 0
1, 97800, Note_on_c, 0, 33, 45
1, 97920, Tempo, 478088
1, 97920, Note_on_c, 0, 33, 0
1, 97920, Note_on_c, 0, 74, 74
1, 97920, Note_on_c, 0, 77, 74
1, 97920, Note_on_c, 0, 86, 88
1, 97920, Note_on_c, 0, 38, 60
1, 97920, Control_c, 0, 64, 0
1, 98040, Note_on_c, 0, 38, 0
1, 98040, Note_on_c, 0, 41, 46
1, 98040, Control_c, 0, 64, 127
1, 98160, Note_on_c, 0, 41, 0
1, 98160, Note_on_c, 0, 45, 46
1, 98280, Note_on_c, 0, 45, 0
1, 98280, Note_on_c, 0, 50, 42
1, 98400, Note_on_c, 0, 50, 0
1, 98400, Note_on_c, 0, 86, 0
1, 98400, Note_on_c, 0, 77, 0
1, 98400, Note_on_c, 0, 74, 0
1, 98400, Note_on_c, 0, 38, 57
1, 98760, Tempo, 502092
1, 98816, Control_c, 0, 64, 0
1, 98850, Note_on_c, 0, 38, 0
1, 98880, Tempo, 480000
1, 98880, Marker_t, "Minore Teil 1 Wiederholung"
1, 98880, Note_on_c, 0, 62, 62
1, 99000, Note_on_c, 0, 62, 0
1, 99000, Note_on_c, 0, 63, 48
1, 99120, Note_on_c, 0, 63, 0
1, 99120, Note_on_c, 0, 62, 48
1, 99240, Tempo, 519481
1, 99240, Note_on_c, 0, 62, 0
1, 99240, Note_on_c, 0, 60, 48
1, 99360, Tempo, 481928
1, 99360, Note_on_c, 0, 60, 0
1, 99360, Note_on_c, 0, 58, 62
1, 99480, Note_on_c, 0, 58, 0
1, 99480, Note_on_c, 0, 60, 48
1, 99600, Note_on_c, 0, 60, 0
1, 99600, Note_on_c, 0, 58, 47
1, 99720, Tempo, 515021
1, 99720, Note_on_c, 0, 58, 0
1, 99720, Note_on_c, 0, 57, 47
1, 99840, Tempo, 478088
1, 99840, Note_on_c, 0, 57, 0
1, 99840, Note_on_c, 0, 62, 61
1, 99840, Note_on_c, 0, 67, 61
1, 99840, Note_on_c, 0, 70, 61
1, 99840, Note_on_c, 0, 74, 79
1, 99840, Note_on_c, 0, 55, 63
1, 99883, Control_c, 0, 64, 127
1, 99960, Note_on_c, 0, 55, 0
1, 99960, Note_on_c, 0, 57, 46
1, 100080, Note_on_c, 0, 57, 0
1, 100080, Note_on_c, 0, 58, 46
1, 100200, Tempo, 510638
1, 100200, Note_on_c, 0, 58, 0
1, 100200, Note_on_c, 0, 57, 46
1, 100320, Tempo, 481928
1, 100320, Note_on_c, 0, 57, 0
1, 100320, Note_on_c, 0, 55, 58
1, 100327, Control_c, 0, 64, 0
1, 100426, Control_c, 0, 64, 127
1, 100440, Note_on_c, 0, 55, 0
1, 100440, Note_on_c, 0, 58, 46
1, 100560, Note_on_c, 0, 58, 0
1, 100560, Note_on_c, 0, 57, 46
1, 100680, Tempo, 506329
1, 100680, Note_on_c, 0, 57, 0
1, 100680, Note_on_c, 0, 55, 45
1, 100790, Note_on_c, 0, 70, 0
1, 100790, Note_on_c, 0, 67, 0
1, 100800, Tempo, 478088
1, 100800, Note_on_c, 0, 55, 0
1, 100800, Note_on_c, 0, 69, 62
1, 100800, Note_on_c, 0, 72, 62
1, 100800, Note_on_c, 0, 54, 59
1, 100806, Control_c, 0, 64, 0
1, 100920, Note_on_c, 0, 54, 0
1, 100920, Note_on_c, 0, 69, 0
1, 100920, Note_on_c, 0, 72, 0
1, 100920, Note_on_c, 0, 55, 45
1, 101040, Note_on_c, 0, 55, 0
1, 101040, Note_on_c, 0, 54, 45
1, 101160, Tempo, 510638
1, 101160, Note_on_c, 0, 54, 0
1, 101160, Note_on_c, 0, 51, 44
1, 101270, Note_on_c, 0, 74, 0
1, 101270, Note_on_c, 0, 62, 0
1, 101280, Tempo, 481928
1, 101280, Note_on_c, 0, 51, 0
1, 101280, Note_on_c, 0, 62, 59
1, 101280, Note_on_c, 0, 74, 81
1, 101280, Note_on_c, 0, 69, 59
1, 101280, Note_on_c, 0, 66, 59
1, 101280, Note_on_c, 0, 50, 57
1, 101343, Control_c, 0, 64, 127
1, 101400, Note_on_c, 0, 50, 0
1, 101400, Note_on_c, 0, 51, 44
1, 101520, Note_on_c, 0, 51, 0
1, 101520, Note_on_c, 0, 50, 42
1, 101640, Tempo, 506329
1, 101640, Note_on_c, 0, 50, 0
1, 101640, Note_on_c, 0, 48, 42
1, 101760, Tempo, 478088
1, 101760, Note_on_c, 0, 48, 0
1, 101760, Note_on_c, 0, 46, 55
1, 101775, Control_c, 0, 64, 0
1, 101880, Note_on_c, 0, 46, 0
1, 101880, Note_on_c, 0, 48, 41
1, 101880, Control_c, 0, 64, 127
1, 102000, Note_on_c, 0, 48, 0
1, 102000, Note_on_c, 0, 46, 41
1, 102120, Tempo, 515021
1, 102120, Note_on_c, 0, 46, 0
1, 102120, Note_on_c, 0, 45, 41
1, 102230, Note_on_c, 0, 69, 0
1, 102230, Note_on_c, 0, 66, 0
1, 102240, Tempo, 487805
1, 102240, Note_on_c, 0, 45, 0
1, 102240, Note_on_c, 0, 70, 62
1, 102240, Note_on_c, 0, 67, 62
1, 102240, Note_on_c, 0, 43, 56
1, 102240, Control_c, 0, 64, 0
1, 102360, Note_on_c, 0, 43, 0
1, 102360, Note_on_c, 0, 70, 0
1, 102360, Note_on_c, 0, 67, 0
1, 102360, Note_on_c, 0, 42, 42
1, 102480, Note_on_c, 0, 42, 0
1, 102480, Note_on_c, 0, 43, 42
1, 102600, Note_on_c, 0, 43, 0
1, 102600, Note_on_c, 0, 45, 42
1, 102710, Note_on_c, 0, 74, 0
1, 102710, Note_on_c, 0, 62, 0
1, 102720, Tempo, 481928
1, 102720, Note_on_c, 0, 45, 0
1, 102720, Note_on_c, 0, 67, 68
1, 102720, Note_on_c, 0, 70, 68
1, 102720, Note_on_c, 0, 79, 89
1, 102720, Note_on_c, 0, 46, 55
1, 102835, Control_c, 0, 64, 127
1, 102840, Note_on_c, 0, 46, 0
1, 102840, Note_on_c, 0, 45, 42
1, 102960, Note_on_c, 0, 45, 0
1, 102960, Note_on_c, 0, 46, 41
1, 103080, Note_on_c, 0, 46, 0
1, 103080, Note_on_c, 0, 47, 41
1, 103200, Note_on_c, 0, 47, 0
1, 103200, Note_on_c, 0, 48, 59
1, 103215, Control_c, 0, 64, 0
1, 103315, Control_c, 0, 64, 127
1, 103320, Note_on_c, 0, 48, 0
1, 103320, Note_on_c, 0, 47, 47
1, 103440, Note_on_c, 0, 47, 0
1, 103440, Note_on_c, 0, 48, 48
1, 103560, Tempo, 500000
1, 103560, Note_on_c, 0, 48, 0
1, 103560, Note_on_c, 0, 49, 48
1, 103680, Tempo, 478088
1, 103680, Note_on_c, 0, 49, 0
1, 103680, Note_on_c, 0, 79, 0
1, 103680, Note_on_c, 0, 70, 0
1, 103680, Note_on_c, 0, 67, 0
1, 103680, Note_on_c, 0, 66, 63
1, 103680, Note_on_c, 0, 69, 63
1, 103680, Note_on_c, 0, 78, 75
1, 103680, Note_on_c, 0, 50, 60
1, 103692, Control_c, 0, 64, 0
1, 103777, Control_c, 0, 64, 127
1, 103800, Note_on_c, 0, 50, 0
1, 103800, Note_on_c, 0, 38, 46
1, 103920, Note_on_c, 0, 38, 0
1, 103920, Note_on_c, 0, 42, 47
1, 104040, Note_on_c, 0, 42, 0
1, 104040, Note_on_c, 0, 45, 48
1, 104160, Note_on_c, 0, 45, 0
1, 104160, Note_on_c, 0, 78, 0
1, 104160, Note_on_c, 0, 69, 0
1, 104160, Note_on_c, 0, 66, 0
1, 104160, Note_on_c, 0, 50, 57
1, 104280, Note_on_c, 0, 50, 0
1, 104280, Note_on_c, 0, 54, 49
1, 104400, Note_on_c, 0, 54, 0
1, 104406, Note_on_c, 0, 57, 53
1, 104520, Tempo, 618557
1, 104520, Note_on_c, 0, 61, 57
1, 104526, Note_on_c, 0, 57, 0
1, 104640, Tempo, 480000
1, 104640, Note_on_c, 0, 61, 0
1, 104640, Note_on_c, 0, 62, 62
1, 104680, Control_c, 0, 64, 0
1, 104760, Note_on_c, 0, 62, 0
1, 104760, Note_on_c, 0, 63, 57
1, 104880, Note_on_c, 0, 63, 0
1, 104880, Note_on_c, 0, 62, 52
1, 105000, Tempo, 519481
1, 105000, Note_on_c, 0, 62, 0
1, 105000, Note_on_c, 0, 60, 49
1, 105120, Tempo, 481928
1, 105120, Note_on_c, 0, 60, 0
1, 105120, Note_on_c, 0, 58, 62
1, 105240, Note_on_c, 0, 58, 0
1, 105240, Note_on_c, 0, 60, 48
1, 105360, Note_on_c, 0, 60, 0
1, 105360, Note_on_c, 0, 58, 47
1, 105480, Tempo, 515021
1, 105480, Note_on_c, 0, 58, 0
1, 105480, Note_on_c, 0, 57, 47
1, 105600, Tempo, 480000
1, 105600, Note_on_c, 0, 57, 0
1, 105600, Note_on_c, 0, 67, 61
1, 105600, Note_on_c, 0, 70, 61
1, 105600, Note_on_c, 0, 74, 61
1, 105600, Note_on_c, 0, 79, 79
1, 105600, Note_on_c, 0, 55, 63
1, 105675, Control_c, 0, 64, 127
1, 105720, Note_on_c, 0, 55, 0
1, 105720, Note_on_c, 0, 57, 46
1, 105840, Note_on_c, 0, 57, 0
1, 105840, Note_on_c, 0, 55, 46
1, 105960, Tempo, 510638
1, 105960, Note_on_c, 0, 55, 0
1, 105960, Note_on_c, 0, 53, 46
1, 106080, Tempo, 481928
1, 106080, Note_on_c, 0, 53, 0
1, 106080, Note_on_c, 0, 74, 0
1, 106080, Note_on_c, 0, 73, 74
1, 106080, Note_on_c, 0, 52, 58
1, 106087, Control_c, 0, 64, 0
1, 106186, Control_c, 0, 64, 127
1, 106200, Note_on_c, 0, 52, 0
1, 106200, Note_on_c, 0, 53, 46
1, 106320, Note_on_c, 0, 53, 0
1, 106320, Note_on_c, 0, 52, 46
1, 106440, Tempo, 506329
1, 106440, Note_on_c, 0, 52, 0
1, 106440, Note_on_c, 0, 50, 45
1, 106560, Tempo, 481928
1, 106560, Note_on_c, 0, 50, 0
1, 106560, Note_on_c, 0, 73, 0
1, 106560, Note_on_c, 0, 76, 80
1, 106560, Note_on_c, 0, 49, 59
1, 106566, Control_c, 0, 64, 0
1, 106680, Note_on_c, 0, 49, 0
1, 106680, Note_on_c, 0, 76, 0
1, 106680, Note_on_c, 0, 50, 45
1, 106800, Note_on_c, 0, 50, 0
1, 106800, Note_on_c, 0, 49, 45
1, 106920, Tempo, 510638
1, 106920, Note_on_c, 0, 49, 0
1, 106920, Note_on_c, 0, 46, 44
1, 107030, Note_on_c, 0, 79, 0
1, 107030, Note_on_c, 0, 67, 0
1, 107040, Tempo, 476190
1, 107040, Note_on_c, 0, 70, 0
1, 107040, Note_on_c, 0, 46, 0
1, 107040, Note_on_c, 0, 85, 86
1, 107040, Note_on_c, 0, 76, 59
1, 107040, Note_on_c, 0, 73, 66
1, 107040, Note_on_c, 0, 45, 57
1, 107120, Control_c, 0, 64, 127
1, 107160, Note_on_c, 0, 45, 0
1, 107160, Note_on_c, 0, 46, 44
1, 107280, Note_on_c, 0, 46, 0
1, 107280, Note_on_c, 0, 45, 42
1, 107400, Tempo, 506329
1, 107400, Note_on_c, 0, 45, 0
1, 107400, Note_on_c, 0, 43, 42
1, 107520, Tempo, 481928
1, 107520, Note_on_c, 0, 43, 0
1, 107520, Note_on_c, 0, 76, 0
1, 107520, Note_on_c, 0, 79, 80
1, 107520, Note_on_c, 0, 41, 55
1, 107535, Control_c, 0, 64, 0
1, 107640, Note_on_c, 0, 41, 0
1, 107640, Note_on_c, 0, 43, 41
1, 107640, Control_c, 0, 64, 127
1, 107760, Note_on_c, 0, 43, 0
1, 107760, Note_on_c, 0, 41, 41
1, 107880, Tempo, 515021
1, 107880, Note_on_c, 0, 41, 0
1, 107880, Note_on_c, 0, 40, 41
1, 108000, Tempo, 487805
1, 108000, Note_on_c, 0, 40, 0
1, 108000, Note_on_c, 0, 79, 0
1, 108000, Note_on_c, 0, 73, 0
1, 108000, Note_on_c, 0, 85, 0
1, 108000, Note_on_c, 0, 74, 74
1, 108000, Note_on_c, 0, 86, 88
1, 108000, Note_on_c, 0, 77, 74
1, 108000, Note_on_c, 0, 38, 56
1, 108000, Control_c, 0, 64, 0
1, 108120, Note_on_c, 0, 38, 0
1, 108120, Note_on_c, 0, 74, 0
1, 108120, Note_on_c, 0, 86, 0
1, 108120, Note_on_c, 0, 77, 0
1, 108120, Note_on_c, 0, 40, 42
1, 108240, Note_on_c, 0, 40, 0
1, 108240, Note_on_c, 0, 41, 42
1, 108360, Note_on_c, 0, 41, 0
1, 108360, Note_on_c, 0, 38, 42
1, 108480, Tempo, 481928
1, 108480, Note_on_c, 0, 38, 0
1, 108480, Note_on_c, 0, 74, 74
1, 108480, Note_on_c, 0, 76, 74
1, 108480, Note_on_c, 0, 86, 88
1, 108480, Note_on_c, 0, 43, 55
1, 108595, Control_c, 0, 64, 127
1, 108600, Note_on_c, 0, 43, 0
1, 108600, Note_on_c, 0, 45, 42
1, 108720, Note_on_c, 0, 45, 0
1, 108720, Note_on_c, 0, 86, 0
1, 108720, Note_on_c, 0, 76, 0
1, 108720, Note_on_c, 0, 74, 0
1, 108720, Note_on_c, 0, 46, 41
1, 108731, Control_c, 0, 64, 0
1, 108840, Note_on_c, 0, 46, 0
1, 108840, Note_on_c, 0, 43, 41
1, 108960, Note_on_c, 0, 43, 0
1, 108960, Note_on_c, 0, 73, 70
1, 108960, Note_on_c, 0, 76, 70
1, 108960, Note_on_c, 0, 85, 83
1, 108960, Note_on_c, 0, 45, 57
1, 109075, Control_c, 0, 64, 127
1, 109080, Note_on_c, 0, 45, 0
1, 109080, Note_on_c, 0, 44, 45
1, 109200, Note_on_c, 0, 44, 0
1, 109200, Note_on_c, 0, 85, 0
1, 109200, Note_on_c, 0, 76, 0
1, 109200, Note_on_c, 0, 73, 0
1, 109200, Note_on_c, 0, 45, 45
1, 109320, Tempo, 500000
1, 109320, Note_on_c, 0, 45, 0
1, 109320, Note_on_c, 0, 33, 45
1, 109440, Tempo, 478088
1, 109440, Note_on_c, 0, 33, 0
1, 109440, Note_on_c, 0, 74, 74
1, 109440, Note_on_c, 0, 77, 74
1, 109440, Note_on_c, 0, 86, 88
1, 109440, Note_on_c, 0, 38, 60
1, 109440, Control_c, 0, 64, 0
1, 109560, Note_on_c, 0, 38, 0
1, 109560, Note_on_c, 0, 41, 46
1, 109560, Control_c, 0, 64, 127
1, 109680, Note_on_c, 0, 41, 0
1, 109680, Note_on_c, 0, 45, 46
1, 109800, Note_on_c, 0, 45, 0
1, 109800, Note_on_c, 0, 50, 42
1, 109920, Note_on_c, 0, 50, 0
1, 109920, Note_on_c, 0, 86, 0
1, 109920, Note_on_c, 0, 77, 0
1, 109920, Note_on_c, 0, 74, 0
1, 109920, Note_on_c, 0, 38, 57
1, 110280, Tempo, 502092
1, 110316, Control_c, 0, 64, 0
1, 110370, Note_on_c, 0, 38, 0
1, 110400, Tempo, 480000
1, 110400, Marker_t, "Minore Teil 2"
1, 110400, Note_on_c, 0, 80, 74
1, 110520, Tempo, 480000
1, 110520, Note_on_c, 0, 80, 0
1, 110520, Note_on_c, 0, 82, 48
1, 110640, Note_on_c, 0, 82, 0
1, 110640, Note_on_c, 0, 80, 48
1, 110760, Note_on_c, 0, 80, 0
1, 110760, Note_on_c, 0, 79, 48
1, 110880, Tempo, 491803
1, 110880, Note_on_c, 0, 79, 0
1, 110880, Note_on_c, 0, 77, 68
1, 110880, Note_on_c, 0, 68, 67
1, 111000, Tempo, 481928
1, 111000, Note_on_c, 0, 68, 0
1, 111000, Note_on_c, 0, 77, 0
1, 111000, Note_on_c, 0, 79, 48
1, 111000, Note_on_c, 0, 70, 46
1, 111120, Note_on_c, 0, 70, 0
1, 111120, Note_on_c, 0, 79, 0
1, 111120, Note_on_c, 0, 77, 47
1, 111120, Note_on_c, 0, 68, 46
1, 111240, Note_on_c, 0, 68, 0
1, 111240, Note_on_c, 0, 77, 0
1, 111240, Note_on_c, 0, 75, 47
1, 111240, Note_on_c, 0, 67, 46
1, 111360, Tempo, 493827
1, 111360, Note_on_c, 0, 67, 0
1, 111360, Note_on_c, 0, 75, 0
1, 111360, Note_on_c, 0, 74, 63
1, 111360, Note_on_c, 0, 65, 59
1, 111480, Tempo, 481928
1, 111480, Note_on_c, 0, 65, 0
1, 111480, Note_on_c, 0, 74, 0
1, 111480, Note_on_c, 0, 75, 46
1, 111480, Note_on_c, 0, 67, 46
1, 111600, Note_on_c, 0, 67, 0
1, 111600, Note_on_c, 0, 75, 0
1, 111600, Note_on_c, 0, 74, 46
1, 111600, Note_on_c, 0, 65, 46
1, 111720, Note_on_c, 0, 65, 0
1, 111720, Note_on_c, 0, 74, 0
1, 111720, Note_on_c, 0, 72, 46
1, 111720, Note_on_c, 0, 63, 46
1, 111840, Tempo, 515021
1, 111840, Note_on_c, 0, 63, 0
1, 111840, Note_on_c, 0, 72, 0
1, 111840, Note_on_c, 0, 79, 74
1, 111840, Note_on_c, 0, 71, 84
1, 111840, Note_on_c, 0, 55, 56
1, 111840, Note_on_c, 0, 62, 67
1, 111960, Tempo, 480000
1, 111960, Note_on_c, 0, 79, 0
1, 111960, Note_on_c, 0, 80, 48
1, 112080, Note_on_c, 0, 80, 0
1, 112080, Note_on_c, 0, 79, 48
1, 112200, Note_on_c, 0, 79, 0
1, 112200, Note_on_c, 0, 77, 48
1, 112320, Tempo, 491803
1, 112320, Note_on_c, 0, 77, 0
1, 112320, Note_on_c, 0, 62, 0
1, 112320, Note_on_c, 0, 55, 0
1, 112320, Note_on_c, 0, 71, 0
1, 112320, Note_on_c, 0, 72, 66
1, 112320, Note_on_c, 0, 75, 68
1, 112320, Note_on_c, 0, 60, 56
1, 112320, Note_on_c, 0, 63, 67
1, 112440, Tempo, 481928
1, 112440, Note_on_c, 0, 75, 0
1, 112440, Note_on_c, 0, 77, 48
1, 112560, Note_on_c, 0, 77, 0
1, 112560, Note_on_c, 0, 63, 0
1, 112560, Note_on_c, 0, 60, 0
1, 112560, Note_on_c, 0, 72, 0
1, 112560, Note_on_c, 0, 75, 47
1, 112680, Note_on_c, 0, 75, 0
1, 112680, Note_on_c, 0, 74, 47
1, 112800, Tempo, 493827
1, 112800, Note_on_c, 0, 74, 0
1, 112800, Note_on_c, 0, 72, 63
1, 112920, Tempo, 481928
1, 112920, Note_on_c, 0, 71, 46
1, 113040, Note_on_c, 0, 71, 0
1, 113040, Note_on_c, 0, 72, 0
1, 113040, Note_on_c, 0, 72, 46
1, 113160, Note_on_c, 0, 72, 0
1, 113160, Note_on_c, 0, 74, 46
1, 113280, Tempo, 480000
1, 113280, Note_on_c, 0, 74, 0
1, 113280, Note_on_c, 0, 75, 74
1, 113400, Tempo, 480000
1, 113400, Note_on_c, 0, 75, 0
1, 113400, Note_on_c, 0, 77, 48
1, 113520, Note_on_c, 0, 77, 0
1, 113520, Note_on_c, 0, 75, 48
1, 113640, Note_on_c, 0, 75, 0
1, 113640, Note_on_c, 0, 74, 48
1, 113760, Tempo, 491803
1, 113760, Note_on_c, 0, 74, 0
1, 113760, Note_on_c, 0, 72, 68
1, 113760, Note_on_c, 0, 63, 67
1, 113880, Tempo, 478088
1, 113880, Note_on_c, 0, 63, 0
1, 113880, Note_on_c, 0, 72, 0
1, 113880, Note_on_c, 0, 74, 48
1, 113880, Note_on_c, 0, 65, 46
1, 114000, Note_on_c, 0, 65, 0
1, 114000, Note_on_c, 0, 74, 0
1, 114000, Note_on_c, 0, 72, 47
1, 114000, Note_on_c, 0, 63, 46
1, 114120, Note_on_c, 0, 63, 0
1, 114120, Note_on_c, 0, 72, 0
1, 114120, Note_on_c, 0, 70, 47
1, 114120, Note_on_c, 0, 62, 46
1, 114240, Tempo, 493827
1, 114240, Note_on_c, 0, 62, 0
1, 114240, Note_on_c, 0, 70, 0
1, 114240, Note_on_c, 0, 69, 63
1, 114240, Note_on_c, 0, 60, 59
1, 114360, Tempo, 481928
1, 114360, Note_on_c, 0, 60, 0
1, 114360, Note_on_c, 0, 69, 0
1, 114360, Note_on_c, 0, 70, 46
1, 114360, Note_on_c, 0, 62, 46
1, 114480, Note_on_c, 0, 62, 0
1, 114480, Note_on_c, 0, 70, 0
1, 114480, Note_on_c, 0, 69, 46
1, 114480, Note_on_c, 0, 60, 46
1, 114600, Note_on_c, 0, 60, 0
1, 114600, Note_on_c, 0, 69, 0
1, 114600, Note_on_c, 0, 67, 46
1, 114600, Note_on_c, 0, 58, 46
1, 114720, Tempo, 515021
1, 114720, Note_on_c, 0, 58, 0
1, 114720, Note_on_c, 0, 67, 0
1, 114720, Note_on_c, 0, 74, 74
1, 114720, Note_on_c, 0, 66, 79
1, 114720, Note_on_c, 0, 50, 56
1, 114720, Note_on_c, 0, 57, 67
1, 114840, Tempo, 480000
1, 114840, Note_on_c, 0, 74, 0
1, 114840, Note_on_c, 0, 75, 48
1, 114960, Note_on_c, 0, 75, 0
1, 114960, Note_on_c, 0, 74, 48
1, 115080, Note_on_c, 0, 74, 0
1, 115080, Note_on_c, 0, 72, 48
1, 115200, Tempo, 491803
1, 115200, Note_on_c, 0, 72, 0
1, 115200, Note_on_c, 0, 57, 0
1, 115200, Note_on_c, 0, 50, 0
1, 115200, Note_on_c, 0, 66, 0
1, 115200, Note_on_c, 0, 67, 66
1, 115200, Note_on_c, 0, 70, 68
1, 115200, Note_on_c, 0, 55, 56
1, 115200, Note_on_c, 0, 58, 67
1, 115320, Tempo, 481928
1, 115320, Note_on_c, 0, 70, 0
1, 115320, Note_on_c, 0, 72, 48
1, 115440, Note_on_c, 0, 72, 0
1, 115440, Note_on_c, 0, 58, 0
1, 115440, Note_on_c, 0, 55, 0
1, 115440, Note_on_c, 0, 67, 0
1, 115440, Note_on_c, 0, 70, 47
1, 115560, Note_on_c, 0, 70, 0
1, 115560, Note_on_c, 0, 69, 47
1, 115680, Tempo, 493827
1, 115680, Note_on_c, 0, 69, 0
1, 115680, Note_on_c, 0, 67, 63
1, 115800, Tempo, 481928
1, 115800, Note_on_c, 0, 67, 0
1, 115800, Note_on_c, 0, 66, 46
1, 115920, Note_on_c, 0, 66, 0
1, 115920, Note_on_c, 0, 67, 46
1, 116040, Note_on_c, 0, 67, 0
1, 116040, Note_on_c, 0, 69, 46
1, 116160, Tempo, 480000
1, 116160, Note_on_c, 0, 69, 0
1, 116160, Note_on_c, 0, 67, 59
1, 116160, Note_on_c, 0, 70, 59
1, 116160, Note_on_c, 0, 74, 77
1, 116160, Note_on_c, 0, 62, 62
1, 116200, Control_c, 0, 64, 0
1, 116280, Note_on_c, 0, 62, 0
1, 116280, Note_on_c, 0, 63, 48
1, 116400, Note_on_c, 0, 63, 0
1, 116400, Note_on_c, 0, 62, 48
1, 116520, Tempo, 519481
1, 116520, Note_on_c, 0, 62, 0
1, 116520, Note_on_c, 0, 60, 48
1, 116640, Tempo, 476190
1, 116640, Note_on_c, 0, 60, 0
1, 116640, Note_on_c, 0, 58, 62
1, 116760, Note_on_c, 0, 58, 0
1, 116760, Note_on_c, 0, 60, 48
1, 116880, Note_on_c, 0, 60, 0
1, 116880, Note_on_c, 0, 58, 47
1, 117000, Tempo, 515021
1, 117000, Note_on_c, 0, 58, 0
1, 117000, Note_on_c, 0, 57, 47
1, 117120, Tempo, 481928
1, 117120, Note_on_c, 0, 57, 0
1, 117120, Note_on_c, 0, 74, 0
1, 117120, Note_on_c, 0, 70, 0
1, 117120, Note_on_c, 0, 67, 0
1, 117120, Note_on_c, 0, 67, 61
1, 117120, Note_on_c, 0, 70, 61
1, 117120, Note_on_c, 0, 74, 61
1, 117120, Note_on_c, 0, 79, 86
1, 117120, Note_on_c, 0, 55, 63
1, 117195, Control_c, 0, 64, 127
1, 117240, Note_on_c, 0, 55, 0
1, 117240, Note_on_c, 0, 57, 46
1, 117360, Note_on_c, 0, 57, 0
1, 117360, Note_on_c, 0, 55, 46
1, 117480, Tempo, 510638
1, 117480, Note_on_c, 0, 55, 0
1, 117480, Note_on_c, 0, 53, 46
1, 117600, Tempo, 481928
1, 117600, Note_on_c, 0, 53, 0
1, 117600, Note_on_c, 0, 51, 58
1, 117607, Control_c, 0, 64, 0
1, 117706, Control_c, 0, 64, 127
1, 117720, Note_on_c, 0, 51, 0
1, 117720, Note_on_c, 0, 53, 46
1, 117840, Note_on_c, 0, 53, 0
1, 117840, Note_on_c, 0, 51, 46
1, 117960, Tempo, 506329
1, 117960, Note_on_c, 0, 51, 0
1, 117960, Note_on_c, 0, 50, 45
1, 118080, Tempo, 481928
1, 118080, Note_on_c, 0, 50, 0
1, 118080, Note_on_c, 0, 74, 0
1, 118080, Note_on_c, 0, 72, 71
1, 118080, Note_on_c, 0, 75, 80
1, 118080, Note_on_c, 0, 48, 59
1, 118086, Control_c, 0, 64, 0
1, 118200, Note_on_c, 0, 48, 0
1, 118200, Note_on_c, 0, 72, 0
1, 118200, Note_on_c, 0, 75, 0
1, 118200, Note_on_c, 0, 50, 45
1, 118320, Note_on_c, 0, 50, 0
1, 118320, Note_on_c, 0, 48, 45
1, 118440, Tempo, 510638
1, 118440, Note_on_c, 0, 48, 0
1, 118440, Note_on_c, 0, 46, 44
1, 118550, Note_on_c, 0, 67, 0
1, 118550, Note_on_c, 0, 79, 0
1, 118560, Tempo, 476190
1, 118560, Note_on_c, 0, 70, 0
1, 118560, Note_on_c, 0, 46, 0
1, 118560, Note_on_c, 0, 84, 86
1, 118560, Note_on_c, 0, 75, 59
1, 118560, Note_on_c, 0, 72, 66
1, 118560, Note_on_c, 0, 44, 57
1, 118640, Control_c, 0, 64, 127
1, 118680, Note_on_c, 0, 44, 0
1, 118680, Note_on_c, 0, 46, 44
1, 118800, Note_on_c, 0, 46, 0
1, 118800, Note_on_c, 0, 44, 42
1, 118920, Tempo, 506329
1, 118920, Note_on_c, 0, 44, 0
1, 118920, Note_on_c, 0, 43, 42
1, 119040, Tempo, 481928
1, 119040, Note_on_c, 0, 43, 0
1, 119040, Note_on_c, 0, 75, 0
1, 119040, Note_on_c, 0, 81, 69
1, 119040, Note_on_c, 0, 42, 55
1, 119055, Control_c, 0, 64, 0
1, 119160, Note_on_c, 0, 42, 0
1, 119160, Note_on_c, 0, 43, 41
1, 119160, Control_c, 0, 64, 127
1, 119280, Note_on_c, 0, 43, 0
1, 119280, Note_on_c, 0, 42, 41
1, 119400, Tempo, 515021
1, 119400, Note_on_c, 0, 42, 0
1, 119400, Note_on_c, 0, 40, 41
1, 119510, Note_on_c, 0, 81, 0
1, 119520, Tempo, 487805
1, 119520, Note_on_c, 0, 40, 0
1, 119520, Note_on_c, 0, 78, 74
1, 119520, Note_on_c, 0, 81, 66
1, 119520, Note_on_c, 0, 38, 56
1, 119520, Control_c, 0, 64, 0
1, 119640, Note_on_c, 0, 38, 0
1, 119640, Note_on_c, 0, 78, 0
1, 119640, Note_on_c, 0, 84, 0
1, 119640, Note_on_c, 0, 72, 0
1, 119640, Note_on_c, 0, 81, 0
1, 119640, Note_on_c, 0, 40, 42
1, 119760, Note_on_c, 0, 40, 0
1, 119760, Note_on_c, 0, 42, 42
1, 119880, Note_on_c, 0, 42, 0
1, 119880, Note_on_c, 0, 38, 42
1, 120000, Tempo, 481928
1, 120000, Note_on_c, 0, 38, 0
1, 120000, Note_on_c, 0, 79, 74
1, 120000, Note_on_c, 0, 70, 67
1, 120000, Note_on_c, 0, 74, 67
1, 120000, Note_on_c, 0, 82, 88
1, 120000, Note_on_c, 0, 43, 55
1, 120115, Control_c, 0, 64, 127
1, 120120, Note_on_c, 0, 43, 0
1, 120120, Note_on_c, 0, 45, 42
1, 120240, Note_on_c, 0, 45, 0
1, 120240, Note_on_c, 0, 82, 0
1, 120240, Note_on_c, 0, 79, 0
1, 120240, Note_on_c, 0, 70, 0
1, 120240, Note_on_c, 0, 74, 0
1, 120240, Note_on_c, 0, 46, 41
1, 120251, Control_c, 0, 64, 0
1, 120360, Note_on_c, 0, 46, 0
1, 120360, Note_on_c, 0, 43, 41
1, 120480, Note_on_c, 0, 43, 0
1, 120480, Note_on_c, 0, 69, 62
1, 120480, Note_on_c, 0, 66, 62
1, 120480, Note_on_c, 0, 74, 70
1, 120480, Note_on_c, 0, 78, 83
1, 120480, Note_on_c, 0, 50, 57
1, 120595, Control_c, 0, 64, 127
1, 120600, Note_on_c, 0, 50, 0
1, 120600, Note_on_c, 0, 48, 45
1, 120720, Note_on_c, 0, 48, 0
1, 120720, Note_on_c, 0, 78, 0
1, 120720, Note_on_c, 0, 69, 0
1, 120720, Note_on_c, 0, 66, 0
1, 120720, Note_on_c, 0, 74, 0
1, 120720, Note_on_c, 0, 46, 45
1, 120737, Control_c, 0, 64, 0
1, 120840, Tempo, 500000
1, 120840, Note_on_c, 0, 46, 0
1, 120840, Note_on_c, 0, 45, 45
1, 120960, Tempo, 478088
1, 120960, Note_on_c, 0, 45, 0
1, 120960, Note_on_c, 0, 70, 67
1, 120960, Note_on_c, 0, 67, 67
1, 120960, Note_on_c, 0, 74, 74
1, 120960, Note_on_c, 0, 79, 88
1, 120960, Note_on_c, 0, 43, 60
1, 121080, Note_on_c, 0, 43, 0
1, 121080, Note_on_c, 0, 46, 46
1, 121080, Control_c, 0, 64, 127
1, 121200, Note_on_c, 0, 46, 0
1, 121200, Note_on_c, 0, 50, 46
1, 121320, Note_on_c, 0, 50, 0
1, 121320, Note_on_c, 0, 55, 42
1, 121440, Note_on_c, 0, 55, 0
1, 121440, Note_on_c, 0, 79, 0
1, 121440, Note_on_c, 0, 70, 0
1, 121440, Note_on_c, 0, 67, 0
1, 121440, Note_on_c, 0, 74, 0
1, 121440, Note_on_c, 0, 43, 57
1, 121890, Note_on_c, 0, 43, 0
1, 121906, Control_c, 0, 64, 0
1, 121920, Tempo, 480000
1, 121920, Marker_t, "Minore Teil 2 Wiederholung"
1, 121920, Note_on_c, 0, 80, 74
1, 122040, Tempo, 480000
1, 122040, Note_on_c, 0, 80, 0
1, 122040, Note_on_c, 0, 82, 48
1, 122160, Note_on_c, 0, 82, 0
1, 122160, Note_on_c, 0, 80, 48
1, 122280, Note_on_c, 0, 80, 0
1, 122280, Note_on_c, 0, 79, 48
1, 122400, Tempo, 491803
1, 122400, Note_on_c, 0, 79, 0
1, 122400, Note_on_c, 0, 77, 68
1, 122400, Note_on_c, 0, 68, 67
1, 122520, Tempo, 481928
1, 122520, Note_on_c, 0, 68, 0
1, 122520, Note_on_c, 0, 77, 0
1, 122520, Note_on_c, 0, 79, 48
1, 122520, Note_on_c, 0, 70, 46
1, 122640, Note_on_c, 0, 70, 0
1, 122640, Note_on_c, 0, 79, 0
1, 122640, Note_on_c, 0, 77, 47
1, 122640, Note_on_c, 0, 68, 46
1, 122760, Note_on_c, 0, 68, 0
1, 122760, Note_on_c, 0, 77, 0
1, 122760, Note_on_c, 0, 75, 47
1, 122760, Note_on_c, 0, 67, 46
1, 122880, Tempo, 493827
1, 122880, Note_on_c, 0, 67, 0
1, 122880, Note_on_c, 0, 75, 0
1, 122880, Note_on_c, 0, 74, 63
1, 122880, Note_on_c, 0, 65, 59
1, 123000, Tempo, 481928
1, 123000, Note_on_c, 0, 65, 0
1, 123000, Note_on_c, 0, 74, 0
1, 123000, Note_on_c, 0, 75, 46
1, 123000, Note_on_c, 0, 67, 46
1, 123120, Note_on_c, 0, 67, 0
1, 123120, Note_on_c, 0, 75, 0
1, 123120, Note_on_c, 0, 74, 46
1, 123120, Note_on_c, 0, 65, 46
1, 123240, Note_on_c, 0, 65, 0
1, 123240, Note_on_c, 0, 74, 0
1, 123240, Note_on_c, 0, 72, 46
1, 123240, Note_on_c, 0, 63, 46
1, 123360, Tempo, 515021
1, 123360, Note_on_c, 0, 63, 0
1, 123360, Note_on_c, 0, 72, 0
1, 123360, Note_on_c, 0, 79, 74
1, 123360, Note_on_c, 0, 71, 84
1, 123360, Note_on_c, 0, 55, 56
1, 123360, Note_on_c, 0, 62, 67
1, 123480, Tempo, 480000
1, 123480, Note_on_c, 0, 79, 0
1, 123480, Note_on_c, 0, 80, 48
1, 123600, Note_on_c, 0, 80, 0
1, 123600, Note_on_c, 0, 79, 48
1, 123720, Note_on_c, 0, 79, 0
1, 123720, Note_on_c, 0, 77, 48
1, 123840, Tempo, 491803
1, 123840, Note_on_c, 0, 77, 0
1, 123840, Note_on_c, 0, 62, 0
1, 123840, Note_on_c, 0, 55, 0
1, 123840, Note_on_c, 0, 71, 0
1, 123840, Note_on_c, 0, 72, 66
1, 123840, Note_on_c, 0, 75, 68
1, 123840, Note_on_c, 0, 60, 56
1, 123840, Note_on_c, 0, 63, 67
1, 123960, Tempo, 481928
1, 123960, Note_on_c, 0, 75, 0
1, 123960, Note_on_c, 0, 77, 48
1, 124080, Note_on_c, 0, 77, 0
1, 124080, Note_on_c, 0, 63, 0
1, 124080, Note_on_c, 0, 60, 0
1, 124080, Note_on_c, 0, 72, 0
1, 124080, Note_on_c, 0, 75, 47
1, 124200, Note_on_c, 0, 75, 0
1, 124200, Note_on_c, 0, 74, 47
1, 124320, Tempo, 493827
1, 124320, Note_on_c, 0, 74, 0
1, 124320, Note_on_c, 0, 72, 63
1, 124440, Tempo, 481928
1, 124440, Note_on_c, 0, 71, 46
1, 124560, Note_on_c, 0, 71, 0
1, 124560, Note_on_c, 0, 72, 0
1, 124560, Note_on_c, 0, 72, 46
1, 124680, Note_on_c, 0, 72, 0
1, 124680, Note_on_c, 0, 74, 46
1, 124800, Tempo, 480000
1, 124800, Note_on_c, 0, 74, 0
1, 124800, Note_on_c, 0, 75, 74
1, 124920, Tempo, 480000
1, 124920, Note_on_c, 0, 75, 0
1, 124920, Note_on_c, 0, 77, 48
1, 125040, Note_on_c, 0, 77, 0
1, 125040, Note_on_c, 0, 75, 48
1, 125160, Note_on_c, 0, 75, 0
1, 125160, Note_on_c, 0, 74, 48
1, 125280, Tempo, 491803
1, 125280, Note_on_c, 0, 74, 0
1, 125280, Note_on_c, 0, 72, 68
1, 125280, Note_on_c, 0, 63, 67
1, 125400, Tempo, 481928
1, 125400, Note_on_c, 0, 63, 0
1, 125400, Note_on_c, 0, 72, 0
1, 125400, Note_on_c, 0, 74, 48
1, 125400, Note_on_c, 0, 65, 46
1, 125520, Note_on_c, 0, 65, 0
1, 125520, Note_on_c, 0, 74, 0
1, 125520, Note_on_c, 0, 72, 47
1, 125520, Note_on_c, 0, 63, 46
1, 125640, Note_on_c, 0, 63, 0
1, 125640, Note_on_c, 0, 72, 0
1, 125640, Note_on_c, 0, 70, 47
1, 125640, Note_on_c, 0, 62, 46
1, 125760, Tempo, 493827
1, 125760, Note_on_c, 0, 62, 0
1, 125760, Note_on_c, 0, 70, 0
1, 125760, Note_on_c, 0, 69, 63
1, 125760, Note_on_c, 0, 60, 59
1, 125880, Tempo, 481928
1, 125880, Note_on_c, 0, 60, 0
1, 125880, Note_on_c, 0, 69, 0
1, 125880, Note_on_c, 0, 70, 46
1, 125880, Note_on_c, 0, 62, 46
1, 126000, Note_on_c, 0, 62, 0
1, 126000, Note_on_c, 0, 70, 0
1, 126000, Note_on_c, 0, 69, 46
1, 126000, Note_on_c, 0, 60, 46
1, 126120, Note_on_c, 0, 60, 0
1, 126120, Note_on_c, 0, 69, 0
1, 126120, Note_on_c, 0, 67, 46
1, 126120, Note_on_c, 0, 58, 46
1, 126240, Tempo, 515021
1, 126240, Note_on_c, 0, 58, 0
1, 126240, Note_on_c, 0, 67, 0
1, 126240, Note_on_c, 0, 74, 74
1, 126240, Note_on_c, 0, 66, 79
1, 126240, Note_on_c, 0, 50, 56
1, 126240, Note_on_c, 0, 57, 67
1, 126360, Tempo, 480000
1, 126360, Note_on_c, 0, 74, 0
1, 126360, Note_on_c, 0, 75, 48
1, 126480, Note_on_c, 0, 75, 0
1, 126480, Note_on_c, 0, 74, 48
1, 126600, Note_on_c, 0, 74, 0
1, 126600, Note_on_c, 0, 72, 48
1, 126720, Tempo, 491803
1, 126720, Note_on_c, 0, 72, 0
1, 126720, Note_on_c, 0, 57, 0
1, 126720, Note_on_c, 0, 50, 0
1, 126720, Note_on_c, 0, 66, 0
1, 126720, Note_on_c, 0, 67, 66
1, 126720, Note_on_c, 0, 70, 68
1, 126720, Note_on_c, 0, 55, 56
1, 126720, Note_on_c, 0, 58, 67
1, 126840, Tempo, 481928
1, 126840, Note_on_c, 0, 70, 0
1, 126840, Note_on_c, 0, 72, 48
1, 126960, Note_on_c, 0, 72, 0
1, 126960, Note_on_c, 0, 58, 0
1, 126960, Note_on_c, 0, 55, 0
1, 126960, Note_on_c, 0, 67, 0
1, 126960, Note_on_c, 0, 70, 47
1, 127080, Note_on_c, 0, 70, 0
1, 127080, Note_on_c, 0, 69, 47
1, 127200, Tempo, 493827
1, 127200, Note_on_c, 0, 69, 0
1, 127200, Note_on_c, 0, 67, 63
1, 127320, Tempo, 481928
1, 127320, Note_on_c, 0, 67, 0
1, 127320, Note_on_c, 0, 66, 46
1, 127440, Note_on_c, 0, 66, 0
1, 127440, Note_on_c, 0, 67, 46
1, 127560, Note_on_c, 0, 67, 0
1, 127560, Note_on_c, 0, 69, 46
1, 127680, Tempo, 480000
1, 127680, Note_on_c, 0, 69, 0
1, 127680, Note_on_c, 0, 67, 59
1, 127680, Note_on_c, 0, 70, 59
1, 127680, Note_on_c, 0, 74, 77
1, 127680, Note_on_c, 0, 62, 62
1, 127720, Control_c, 0, 64, 0
1, 127800, Note_on_c, 0, 62, 0
1, 127800, Note_on_c, 0, 63, 48
1, 127920, Note_on_c, 0, 63, 0
1, 127920, Note_on_c, 0, 62, 48
1, 128040, Tempo, 519481
1, 128040, Note_on_c, 0, 62, 0
1, 128040, Note_on_c, 0, 60, 48
1, 128160, Tempo, 481928
1, 128160, Note_on_c, 0, 60, 0
1, 128160, Note_on_c, 0, 58, 62
1, 128280, Note_on_c, 0, 58, 0
1, 128280, Note_on_c, 0, 60, 48
1, 128400, Note_on_c, 0, 60, 0
1, 128400, Note_on_c, 0, 58, 47
1, 128520, Tempo, 515021
1, 128520, Note_on_c, 0, 58, 0
1, 128520, Note_on_c, 0, 57, 47
1, 128640, Tempo, 481928
1, 128640, Note_on_c, 0, 57, 0
1, 128640, Note_on_c, 0, 74, 0
1, 128640, Note_on_c, 0, 70, 0
1, 128640, Note_on_c, 0, 67, 0
1, 128640, Note_on_c, 0, 67, 61
1, 128640, Note_on_c, 0, 70, 61
1, 128640, Note_on_c, 0, 74, 61
1, 128640, Note_on_c, 0, 79, 86
1, 128640, Note_on_c, 0, 55, 63
1, 128715, Control_c, 0, 64, 127
1, 128760, Note_on_c, 0, 55, 0
1, 128760, Note_on_c, 0, 57, 46
1, 128880, Note_on_c, 0, 57, 0
1, 128880, Note_on_c, 0, 55, 46
1, 129000, Tempo, 510638
1, 129000, Note_on_c, 0, 55, 0
1, 129000, Note_on_c, 0, 53, 46
1, 129120, Tempo, 481928
1, 129120, Note_on_c, 0, 53, 0
1, 129120, Note_on_c, 0, 51, 58
1, 129127, Control_c, 0, 64, 0
1, 129226, Control_c, 0, 64, 127
1, 129240, Note_on_c, 0, 51, 0
1, 129240, Note_on_c, 0, 53, 46
1, 129360, Note_on_c, 0, 53, 0
1, 129360, Note_on_c, 0, 51, 46
1, 129480, Tempo, 506329
1, 129480, Note_on_c, 0, 51, 0
1, 129480, Note_on_c, 0, 50, 45
1, 129600, Tempo, 481928
1, 129600, Note_on_c, 0, 50, 0
1, 129600, Note_on_c, 0, 74, 0
1, 129600, Note_on_c, 0, 72, 71
1, 129600, Note_on_c, 0, 75, 80
1, 129600, Note_on_c, 0, 48, 59
1, 129606, Control_c, 0, 64, 0
1, 129720, Note_on_c, 0, 48, 0
1, 129720, Note_on_c, 0, 72, 0
1, 129720, Note_on_c, 0, 75, 0
1, 129720, Note_on_c, 0, 50, 45
1, 129840, Note_on_c, 0, 50, 0
1, 129840, Note_on_c, 0, 48, 45
1, 129960, Tempo, 510638
1, 129960, Note_on_c, 0, 48, 0
1, 129960, Note_on_c, 0, 46, 44
1, 130070, Note_on_c, 0, 67, 0
1, 130070, Note_on_c, 0, 79, 0
1, 130080, Tempo, 481928
1, 130080, Note_on_c, 0, 70, 0
1, 130080, Note_on_c, 0, 46, 0
1, 130080, Note_on_c, 0, 84, 86
1, 130080, Note_on_c, 0, 75, 59
1, 130080, Note_on_c, 0, 72, 66
1, 130080, Note_on_c, 0, 44, 57
1, 130160, Control_c, 0, 64, 127
1, 130200, Note_on_c, 0, 44, 0
1, 130200, Note_on_c, 0, 46, 44
1, 130320, Note_on_c, 0, 46, 0
1, 130320, Note_on_c, 0, 44, 42
1, 130440, Tempo, 506329
1, 130440, Note_on_c, 0, 44, 0
1, 130440, Note_on_c, 0, 43, 42
1, 130560, Tempo, 481928
1, 130560, Note_on_c, 0, 43, 0
1, 130560, Note_on_c, 0, 75, 0
1, 130560, Note_on_c, 0, 81, 69
1, 130560, Note_on_c, 0, 42, 55
1, 130575, Control_c, 0, 64, 0
1, 130680, Note_on_c, 0, 42, 0
1, 130680, Note_on_c, 0, 43, 41
1, 130680, Control_c, 0, 64, 127
1, 130800, Note_on_c, 0, 43, 0
1, 130800, Note_on_c, 0, 42, 41
1, 130920, Tempo, 515021
1, 130920, Note_on_c, 0, 42, 0
1, 130920, Note_on_c, 0, 40, 41
1, 131030, Note_on_c, 0, 81, 0
1, 131040, Tempo, 487805
1, 131040, Note_on_c, 0, 40, 0
1, 131040, Note_on_c, 0, 78, 74
1, 131040, Note_on_c, 0, 81, 66
1, 131040, Note_on_c, 0, 38, 56
1, 131040, Control_c, 0, 64, 0
1, 131160, Note_on_c, 0, 38, 0
1, 131160, Note_on_c, 0, 78, 0
1, 131160, Note_on_c, 0, 84, 0
1, 131160, Note_on_c, 0, 72, 0
1, 131160, Note_on_c, 0, 81, 0
1, 131160, Note_on_c, 0, 40, 42
1, 131280, Note_on_c, 0, 40, 0
1, 131280, Note_on_c, 0, 42, 42
1, 131400, Note_on_c, 0, 42, 0
1, 131400, Note_on_c, 0, 38, 42
1, 131520, Tempo, 481928
1, 131520, Note_on_c, 0, 38, 0
1, 131520, Note_on_c, 0, 79, 74
1, 131520, Note_on_c, 0, 70, 67
1, 131520, Note_on_c, 0, 74, 67
1, 131520, Note_on_c, 0, 82, 88
1, 131520, Note_on_c, 0, 43, 55
1, 131635, Control_c, 0, 64, 127
1, 131640, Note_on_c, 0, 43, 0
1, 131640, Note_on_c, 0, 45, 42
1, 131760, Note_on_c, 0, 45, 0
1, 131760, Note_on_c, 0, 82, 0
1, 131760, Note_on_c, 0, 79, 0
1, 131760, Note_on_c, 0, 70, 0
1, 131760, Note_on_c, 0, 74, 0
1, 131760, Note_on_c, 0, 46, 41
1, 131771, Control_c, 0, 64, 0
1, 131880, Note_on_c, 0, 46, 0
1, 131880, Note_on_c, 0, 43, 41
1, 132000, Note_on_c, 0, 43, 0
1, 132000, Note_on_c, 0, 69, 62
1, 132000, Note_on_c, 0, 66, 62
1, 132000, Note_on_c, 0, 74, 70
1, 132000, Note_on_c, 0, 78, 83
1, 132000, Note_on_c, 0, 50, 57
1, 132115, Control_c, 0, 64, 127
1, 132120, Note_on_c, 0, 50, 0
1, 132120, Note_on_c, 0, 48, 45
1, 132240, Note_on_c, 0, 48, 0
1, 132240, Note_on_c, 0, 78, 0
1, 132240, Note_on_c, 0, 69, 0
1, 132240, Note_on_c, 0, 66, 0
1, 132240, Note_on_c, 0, 74, 0
1, 132240, Note_on_c, 0, 46, 45
1, 132257, Control_c, 0, 64, 0
1, 132360, Tempo, 500000
1, 132360, Note_on_c, 0, 46, 0
1, 132360, Note_on_c, 0, 45, 45
1, 132480, Tempo, 478088
1, 132480, Note_on_c, 0, 45, 0
1, 132480, Note_on_c, 0, 70, 67
1, 132480, Note_on_c, 0, 67, 67
1, 132480, Note_on_c, 0, 74, 74
1, 132480, Note_on_c, 0, 79, 88
1, 132480, Note_on_c, 0, 43, 60
1, 132600, Note_on_c, 0, 43, 0
1, 132600, Note_on_c, 0, 46, 46
1, 132600, Control_c, 0, 64, 127
1, 132720, Note_on_c, 0, 46, 0
1, 132720, Note_on_c, 0, 50, 46
1, 132840, Note_on_c, 0, 50, 0
1, 132840, Note_on_c, 0, 55, 42
1, 132960, Tempo, 568720
1, 132960, Note_on_c, 0, 55, 0
1, 132960, Note_on_c, 0, 79, 0
1, 132960, Note_on_c, 0, 70, 0
1, 132960, Note_on_c, 0, 67, 0
1, 132960, Note_on_c, 0, 74, 0
1, 132960, Note_on_c, 0, 43, 57
1, 133200, Tempo, 659341
1, 133410, Note_on_c, 0, 43, 0
1, 133426, Control_c, 0, 64, 0
1, 133440, Tempo, 508431
1, 133440, Marker_t, "Teil 1 D.C."
1, 133440, Note_on_c, 0, 62, 50
1, 133800, Tempo, 556948
1, 133800, Note_on_c, 0, 62, 0
1, 133800, Note_on_c, 0, 63, 46
1, 133920, Tempo, 506329
1, 133920, Note_on_c, 0, 63, 0
1, 133920, Note_on_c, 0, 65, 50
1, 133920, Note_on_c, 0, 46, 40
1, 133977, Control_c, 0, 64, 127
1, 134040, Note_on_c, 0, 46, 0
1, 134160, Note_on_c, 0, 58, 29
1, 134400, Note_on_c, 0, 58, 0
1, 134400, Note_on_c, 0, 62, 34
1, 134411, Control_c, 0, 64, 0
1, 134460, Control_c, 0, 64, 127
1, 134640, Note_on_c, 0, 62, 0
1, 134640, Note_on_c, 0, 58, 29
1, 134850, Note_on_c, 0, 65, 0
1, 134850, Note_on_c, 0, 69, 46
1, 134880, Tempo, 489796
1, 134880, Note_on_c, 0, 69, 0
1, 134880, Note_on_c, 0, 58, 0
1, 134880, Note_on_c, 0, 67, 50
1, 134880, Note_on_c, 0, 63, 34
1, 134895, Control_c, 0, 64, 0
1, 135000, Note_on_c, 0, 67, 0
1, 135000, Note_on_c, 0, 65, 45
1, 135120, Tempo, 517911
1, 135120, Note_on_c, 0, 65, 0
1, 135120, Note_on_c, 0, 63, 0
1, 135120, Note_on_c, 0, 67, 50
1, 135120, Note_on_c, 0, 60, 31
1, 135240, Note_on_c, 0, 67, 0
1, 135240, Note_on_c, 0, 69, 43
1, 135360, Tempo, 492611
1, 135360, Note_on_c, 0, 69, 0
1, 135360, Note_on_c, 0, 60, 0
1, 135360, Note_on_c, 0, 70, 50
1, 135360, Note_on_c, 0, 62, 40
1, 135600, Note_on_c, 0, 62, 0
1, 135600, Note_on_c, 0, 61, 30
1, 135840, Note_on_c, 0, 61, 0
1, 135840, Note_on_c, 0, 70, 0
1, 135840, Note_on_c, 0, 65, 41
1, 135840, Note_on_c, 0, 62, 34
1, 135900, Control_c, 0, 64, 127
1, 136080, Note_on_c, 0, 62, 0
1, 136080, Note_on_c, 0, 58, 30
1, 136260, Note_on_c, 0, 65, 0
1, 136290, Note_on_c, 0, 69, 43
1, 136320, Tempo, 483871
1, 136320, Note_on_c, 0, 69, 0
1, 136320, Note_on_c, 0, 58, 0
1, 136320, Note_on_c, 0, 67, 50
1, 136320, Note_on_c, 0, 63, 34
1, 136339, Control_c, 0, 64, 0
1, 136440, Note_on_c, 0, 67, 0
1, 136440, Note_on_c, 0, 65, 46
1, 136560, Tempo, 515508
1, 136560, Note_on_c, 0, 65, 0
1, 136560, Note_on_c, 0, 63, 0
1, 136560, Note_on_c, 0, 67, 50
1, 136560, Note_on_c, 0, 60, 29
1, 136680, Note_on_c, 0, 67, 0
1, 136680, Note_on_c, 0, 69, 50
1, 136800, Tempo, 494805
1, 136800, Note_on_c, 0, 69, 0
1, 136800, Note_on_c, 0, 60, 0
1, 136800, Note_on_c, 0, 70, 50
1, 136800, Note_on_c, 0, 62, 40
1, 136860, Note_on_c, 0, 70, 0
1, 137040, Note_on_c, 0, 62, 0
1, 137040, Note_on_c, 0, 61, 30
1, 137160, Note_on_c, 0, 69, 46
1, 137220, Note_on_c, 0, 69, 0
1, 137280, Note_on_c, 0, 61, 0
1, 137280, Note_on_c, 0, 70, 56
1, 137280, Note_on_c, 0, 62, 34
1, 137340, Note_on_c, 0, 70, 0
1, 137520, Note_on_c, 0, 62, 0
1, 137520, Note_on_c, 0, 57, 30
1, 137640, Note_on_c, 0, 72, 48
1, 137700, Note_on_c, 0, 72, 0
1, 137760, Note_on_c, 0, 57, 0
1, 137760, Note_on_c, 0, 74, 55
1, 137760, Note_on_c, 0, 58, 34
1, 137820, Note_on_c, 0, 74, 0
1, 138000, Note_on_c, 0, 58, 0
1, 138000, Note_on_c, 0, 55, 30
1, 138120, Tempo, 543331
1, 138120, Note_on_c, 0, 76, 59
1, 138180, Note_on_c, 0, 76, 0
1, 138230, Note_on_c, 0, 55, 0
1, 138240, Tempo, 513128
1, 138240, Note_on_c, 0, 70, 53
1, 138240, Note_on_c, 0, 76, 63
1, 138240, Note_on_c, 0, 53, 40
1, 138240, Control_c, 0, 64, 127
1, 138720, Note_on_c, 0, 76, 0
1, 138720, Note_on_c, 0, 70, 0
1, 138720, Note_on_c, 0, 69, 48
1, 138720, Note_on_c, 0, 77, 57
1, 138720, Note_on_c, 0, 65, 35
1, 138736, Control_c, 0, 64, 0
1, 138960, Note_on_c, 0, 65, 0
1, 138960, Note_on_c, 0, 53, 0
1, 138960, Note_on_c, 0, 69, 0
1, 138960, Note_on_c, 0, 77, 0
1, 139170, Note_on_c, 0, 77, 43
1, 139200, Tempo, 492611
1, 139200, Note_on_c, 0, 77, 0
1, 139200, Note_on_c, 0, 75, 50
1, 139320, Note_on_c, 0, 75, 0
1, 139320, Note_on_c, 0, 74, 46
1, 139440, Note_on_c, 0, 74, 0
1, 139440, Note_on_c, 0, 75, 54
1, 139560, Note_on_c, 0, 75, 0
1, 139560, Note_on_c, 0, 77, 51
1, 139680, Note_on_c, 0, 77, 0
1, 139680, Note_on_c, 0, 79, 59
1, 139737, Control_c, 0, 64, 127
1, 139920, Note_on_c, 0, 53, 36
1, 140160, Note_on_c, 0, 79, 0
1, 140160, Note_on_c, 0, 72, 50
1, 140160, Note_on_c, 0, 57, 40
1, 140400, Note_on_c, 0, 57, 0
1, 140400, Note_on_c, 0, 60, 37
1, 140520, Tempo, 522830
1, 140580, Note_on_c, 0, 72, 0
1, 140610, Note_on_c, 0, 74, 43
1, 140640, Tempo, 481928
1, 140640, Note_on_c, 0, 74, 0
1, 140640, Note_on_c, 0, 60, 0
1, 140640, Note_on_c, 0, 72, 50
1, 140640, Note_on_c, 0, 63, 40
1, 140646, Control_c, 0, 64, 0
1, 140760, Note_on_c, 0, 72, 0
1, 140760, Note_on_c, 0, 71, 46
1, 140880, Tempo, 485830
1, 140880, Note_on_c, 0, 71, 0
1, 140880, Note_on_c, 0, 72, 54
1, 141000, Note_on_c, 0, 72, 0
1, 141000, Note_on_c, 0, 74, 51
1, 141120, Note_on_c, 0, 74, 0
1, 141120, Note_on_c, 0, 75, 59
1, 141173, Control_c, 0, 64, 127
1, 141360, Note_on_c, 0, 63, 0
1, 141360, Note_on_c, 0, 53, 0
1, 141360, Note_on_c, 0, 53, 42
1, 141600, Note_on_c, 0, 75, 0
1, 141600, Note_on_c, 0, 69, 50
1, 141600, Note_on_c, 0, 60, 48
1, 141840, Note_on_c, 0, 60, 0
1, 141840, Note_on_c, 0, 63, 41
1, 141960, Tempo, 515508
1, 142020, Note_on_c, 0, 69, 0
1, 142050, Note_on_c, 0, 70, 43
1, 142080, Tempo, 481928
1, 142080, Note_on_c, 0, 70, 0
1, 142080, Note_on_c, 0, 63, 0
1, 142080, Note_on_c, 0, 69, 50
1, 142080, Note_on_c, 0, 66, 55
1, 142094, Control_c, 0, 64, 0
1, 142200, Note_on_c, 0, 69, 0
1, 142200, Note_on_c, 0, 67, 46
1, 142320, Note_on_c, 0, 67, 0
1, 142320, Note_on_c, 0, 69, 52
1, 142440, Tempo, 508431
1, 142440, Note_on_c, 0, 69, 0
1, 142440, Note_on_c, 0, 70, 48
1, 142520, Note_on_c, 0, 70, 0
1, 142530, Note_on_c, 0, 74, 43
1, 142560, Tempo, 481928
1, 142560, Note_on_c, 0, 74, 0
1, 142560, Note_on_c, 0, 72, 53
1, 142680, Note_on_c, 0, 72, 0
1, 142680, Note_on_c, 0, 71, 50
1, 142800, Note_on_c, 0, 71, 0
1, 142800, Note_on_c, 0, 72, 54
1, 142920, Tempo, 510769
1, 142920, Note_on_c, 0, 72, 0
1, 142920, Note_on_c, 0, 74, 51
1, 143000, Note_on_c, 0, 74, 0
1, 143010, Note_on_c, 0, 77, 43
1, 143040, Tempo, 492611
1, 143040, Note_on_c, 0, 77, 0
1, 143040, Note_on_c, 0, 66, 0
1, 143040, Note_on_c, 0, 53, 0
1, 143040, Note_on_c, 0, 75, 57
1, 143040, Note_on_c, 0, 65, 38
1, 143040, Note_on_c, 0, 53, 38
1, 143160, Note_on_c, 0, 75, 0
1, 143160, Note_on_c, 0, 74, 52
1, 143280, Note_on_c, 0, 74, 0
1, 143280, Note_on_c, 0, 75, 58
1, 143400, Note_on_c, 0, 75, 0
1, 143400, Note_on_c, 0, 77, 55
1, 143520, Note_on_c, 0, 77, 0
1, 143520, Note_on_c, 0, 53, 0
1, 143520, Note_on_c, 0, 65, 0
1, 143520, Note_on_c, 0, 79, 64
1, 143520, Note_on_c, 0, 53, 32
1, 143520, Note_on_c, 0, 63, 32
1, 143580, Note_on_c, 0, 79, 0
1, 143760, Tempo, 556948
1, 143880, Tempo, 622665
1, 143880, Note_on_c, 0, 69, 42
1, 144000, Tempo, 540687
1, 144000, Note_on_c, 0, 69, 0
1, 144000, Note_on_c, 0, 63, 0
1, 144000, Note_on_c, 0, 53, 0
1, 144000, Note_on_c, 0, 72, 50
1, 144000, Note_on_c, 0, 58, 30
1, 144000, Note_on_c, 0, 63, 36
1, 144099, Control_c, 0, 64, 127
1, 144480, Tempo, 568720
1, 144480, Note_on_c, 0, 63, 0
1, 144480, Note_on_c, 0, 72, 0
1, 144480, Note_on_c, 0, 70, 44
1, 144480, Note_on_c, 0, 62, 32
1, 144493, Control_c, 0, 64, 0
1, 144607, Control_c, 0, 64, 127
1, 144720, Note_on_c, 0, 62, 0
1, 144720, Note_on_c, 0, 70, 0
1, 144720, Note_on_c, 0, 58, 0
1, 144861, Control_c, 0, 64, 0
1, 144960, Tempo, 500000
1, 144960, Marker_t, "Teil 2 D.C."
1, 144960, Note_on_c, 0, 69, 38
1, 144960, Note_on_c, 0, 74, 46
1, 144960, Note_on_c, 0, 66, 38
1, 145032, Tempo, 497925
1, 145035, Control_c, 0, 64, 127
1, 145080, Note_on_c, 0, 66, 0
1, 145080, Note_on_c, 0, 74, 0
1, 145080, Note_on_c, 0, 69, 0
1, 145080, Note_on_c, 0, 70, 34
1, 145080, Note_on_c, 0, 73, 41
1, 145080, Note_on_c, 0, 67, 33
1, 145090, Tempo, 495868
1, 145147, Tempo, 493827
1, 145200, Note_on_c, 0, 67, 0
1, 145200, Note_on_c, 0, 73, 0
1, 145200, Note_on_c, 0, 70, 0
1, 145200, Note_on_c, 0, 69, 41
1, 145200, Note_on_c, 0, 74, 49
1, 145200, Note_on_c, 0, 66, 41
1, 145224, Tempo, 491803
1, 145282, Tempo, 489796
1, 145320, Note_on_c, 0, 66, 0
1, 145320, Note_on_c, 0, 74, 0
1, 145320, Note_on_c, 0, 69, 0
1, 145320, Note_on_c, 0, 70, 34
1, 145320, Note_on_c, 0, 73, 40
1, 145320, Note_on_c, 0, 67, 38
1, 145339, Tempo, 487805
1, 145397, Tempo, 485830
1, 145422, Tempo, 483871
1, 145440, Note_on_c, 0, 67, 0
1, 145440, Note_on_c, 0, 73, 0
1, 145440, Note_on_c, 0, 70, 0
1, 145440, Note_on_c, 0, 69, 45
1, 145440, Note_on_c, 0, 74, 53
1, 145440, Note_on_c, 0, 66, 45
1, 145447, Control_c, 0, 64, 0
1, 145479, Tempo, 481928
1, 145490, Control_c, 0, 64, 127
1, 145537, Tempo, 480000
1, 145560, Note_on_c, 0, 66, 0
1, 145560, Note_on_c, 0, 74, 0
1, 145560, Note_on_c, 0, 69, 0
1, 145560, Note_on_c, 0, 70, 40
1, 145560, Note_on_c, 0, 73, 49
1, 145560, Note_on_c, 0, 67, 39
1, 145575, Tempo, 478088
1, 145633, Tempo, 476190
1, 145671, Tempo, 474308
1, 145680, Note_on_c, 0, 67, 0
1, 145680, Note_on_c, 0, 73, 0
1, 145680, Note_on_c, 0, 70, 0
1, 145680, Note_on_c, 0, 69, 48
1, 145680, Note_on_c, 0, 74, 57
1, 145680, Note_on_c, 0, 66, 48
1, 145729, Tempo, 472441
1, 145767, Tempo, 470588
1, 145800, Note_on_c, 0, 66, 0
1, 145800, Note_on_c, 0, 74, 0
1, 145800, Note_on_c, 0, 69, 0
1, 145800, Note_on_c, 0, 70, 39
1, 145800, Note_on_c, 0, 73, 46
1, 145800, Note_on_c, 0, 67, 44
1, 145825, Tempo, 468750
1, 145863, Tempo, 466926
1, 145896, Tempo, 470588
1, 145915, Tempo, 465116
1, 145920, Note_on_c, 0, 67, 0
1, 145920, Note_on_c, 0, 73, 0
1, 145920, Note_on_c, 0, 70, 0
1, 145920, Note_on_c, 0, 69, 52
1, 145920, Note_on_c, 0, 74, 62
1, 145920, Note_on_c, 0, 66, 52
1, 145942, Control_c, 0, 64, 0
1, 145991, Control_c, 0, 64, 127
1, 146040, Note_on_c, 0, 66, 0
1, 146040, Note_on_c, 0, 74, 0
1, 146040, Note_on_c, 0, 69, 0
1, 146040, Note_on_c, 0, 70, 47
1, 146040, Note_on_c, 0, 73, 56
1, 146040, Note_on_c, 0, 67, 44
1, 146050, Tempo, 466926
1, 146160, Note_on_c, 0, 67, 0
1, 146160, Note_on_c, 0, 73, 0
1, 146160, Note_on_c, 0, 70, 0
1, 146160, Note_on_c, 0, 69, 55
1, 146160, Note_on_c, 0, 74, 66
1, 146160, Note_on_c, 0, 66, 55
1, 146165, Tempo, 468750
1, 146280, Tempo, 470588
1, 146280, Note_on_c, 0, 66, 0
1, 146280, Note_on_c, 0, 74, 0
1, 146280, Note_on_c, 0, 69, 0
1, 146280, Note_on_c, 0, 70, 46
1, 146280, Note_on_c, 0, 73, 54
1, 146280, Note_on_c, 0, 67, 51
1, 146395, Tempo, 472441
1, 146400, Note_on_c, 0, 67, 0
1, 146400, Note_on_c, 0, 73, 0
1, 146400, Note_on_c, 0, 70, 0
1, 146400, Note_on_c, 0, 69, 59
1, 146400, Note_on_c, 0, 74, 70
1, 146400, Note_on_c, 0, 66, 59
1, 146416, Control_c, 0, 64, 0
1, 146475, Control_c, 0, 64, 127
1, 146511, Tempo, 474308
1, 146520, Note_on_c, 0, 66, 0
1, 146520, Note_on_c, 0, 74, 0
1, 146520, Note_on_c, 0, 69, 0
1, 146520, Note_on_c, 0, 70, 53
1, 146520, Note_on_c, 0, 73, 63
1, 146520, Note_on_c, 0, 67, 51
1, 146626, Tempo, 476190
1, 146640, Note_on_c, 0, 67, 0
1, 146640, Note_on_c, 0, 73, 0
1, 146640, Note_on_c, 0, 70, 0
1, 146640, Note_on_c, 0, 69, 63
1, 146640, Note_on_c, 0, 74, 74
1, 146640, Note_on_c, 0, 66, 63
1, 146741, Tempo, 478088
1, 146755, Tempo, 419845
1, 146760, Tempo, 556948
1, 146760, Note_on_c, 0, 66, 0
1, 146760, Note_on_c, 0, 74, 0
1, 146760, Note_on_c, 0, 69, 0
1, 146760, Note_on_c, 0, 70, 52
1, 146760, Note_on_c, 0, 73, 61
1, 146760, Note_on_c, 0, 67, 58
1, 146880, Tempo, 503821
1, 146880, Note_on_c, 0, 67, 0
1, 146880, Note_on_c, 0, 73, 0
1, 146880, Note_on_c, 0, 70, 0
1, 146880, Note_on_c, 0, 69, 82
1, 146880, Note_on_c, 0, 74, 82
1, 146880, Note_on_c, 0, 66, 69
1, 146880, Control_c, 0, 64, 0
1, 147120, Note_on_c, 0, 66, 0
1, 147120, Note_on_c, 0, 74, 0
1, 147120, Note_on_c, 0, 69, 0
1, 147360, Note_on_c, 0, 86, 100
1, 147360, Note_on_c, 0, 78, 84
1, 147360, Note_on_c, 0, 50, 62
1, 147360, Note_on_c, 0, 62, 74
1, 147466, Control_c, 0, 64, 127
1, 148080, Note_on_c, 0, 62, 0
1, 148080, Note_on_c, 0, 86, 0
1, 148080, Note_on_c, 0, 78, 0
1, 148080, Note_on_c, 0, 50, 0
1, 148080, Note_on_c, 0, 84, 75
1, 148080, Note_on_c, 0, 78, 63
1, 148080, Note_on_c, 0, 50, 46
1, 148080, Note_on_c, 0, 62, 56
1, 148096, Control_c, 0, 64, 0
1, 148200, Note_on_c, 0, 62, 0
1, 148200, Note_on_c, 0, 84, 0
1, 148200, Note_on_c, 0, 78, 0
1, 148200, Note_on_c, 0, 50, 0
1, 148320, Tempo, 491803
1, 148320, Note_on_c, 0, 82, 91
1, 148320, Note_on_c, 0, 79, 77
1, 148320, Note_on_c, 0, 51, 57
1, 148320, Note_on_c, 0, 63, 68
1, 148380, Control_c, 0, 64, 127
1, 148560, Note_on_c, 0, 63, 0
1, 148560, Note_on_c, 0, 82, 0
1, 148560, Note_on_c, 0, 79, 0
1, 148560, Note_on_c, 0, 51, 0
1, 148560, Control_c, 0, 64, 0
1, 148680, Tempo, 548697
1, 148680, Note_on_c, 0, 81, 73
1, 148680, Note_on_c, 0, 75, 61
1, 148680, Note_on_c, 0, 48, 45
1, 148680, Note_on_c, 0, 60, 53
1, 148740, Note_on_c, 0, 60, 0
1, 148740, Note_on_c, 0, 81, 0
1, 148740, Note_on_c, 0, 75, 0
1, 148740, Note_on_c, 0, 48, 0
1, 148800, Tempo, 494805
1, 148800, Note_on_c, 0, 70, 72
1, 148800, Note_on_c, 0, 79, 85
1, 148800, Note_on_c, 0, 50, 53
1, 148800, Note_on_c, 0, 62, 63
1, 148850, Control_c, 0, 64, 127
1, 149040, Note_on_c, 0, 62, 0
1, 149040, Note_on_c, 0, 70, 0
1, 149040, Note_on_c, 0, 79, 0
1, 149040, Note_on_c, 0, 50, 0
1, 149093, Control_c, 0, 64, 0
1, 149280, Note_on_c, 0, 72, 69
1, 149280, Note_on_c, 0, 78, 81
1, 149280, Note_on_c, 0, 38, 51
1, 149280, Note_on_c, 0, 50, 61
1, 149520, Tempo, 551420
1, 149520, Note_on_c, 0, 50, 0
1, 149520, Note_on_c, 0, 72, 0
1, 149520, Note_on_c, 0, 78, 0
1, 149520, Note_on_c, 0, 38, 0
1, 149760, Tempo, 508431
1, 149760, Note_on_c, 0, 72, 69
1, 149760, Note_on_c, 0, 81, 82
1, 149760, Note_on_c, 0, 43, 51
1, 149760, Note_on_c, 0, 55, 61
1, 149901, Control_c, 0, 64, 127
1, 150240, Note_on_c, 0, 81, 0
1, 150240, Note_on_c, 0, 72, 0
1, 150240, Note_on_c, 0, 70, 61
1, 150240, Note_on_c, 0, 79, 72
1, 150257, Control_c, 0, 64, 0
1, 150480, Note_on_c, 0, 79, 0
1, 150480, Note_on_c, 0, 55, 0
1, 150480, Note_on_c, 0, 43, 0
1, 150480, Note_on_c, 0, 70, 0
1, 150696, Tempo, 493827
1, 150702, Tempo, 504202
1, 150720, Note_on_c, 0, 56, 25
1, 150720, Note_on_c, 0, 58, 30
1, 150720, Note_on_c, 0, 50, 25
1, 150759, Tempo, 502092
1, 150785, Control_c, 0, 64, 127
1, 150798, Tempo, 500000
1, 150836, Tempo, 497925
1, 150840, Note_on_c, 0, 59, 27
1, 150840, Note_on_c, 0, 51, 22
1, 150841, Note_on_c, 0, 50, 0
1, 150841, Note_on_c, 0, 56, 0
1, 150841, Note_on_c, 0, 58, 0
1, 150875, Tempo, 495868
1, 150913, Tempo, 493827
1, 150951, Tempo, 491803
1, 150960, Note_on_c, 0, 56, 27
1, 150960, Note_on_c, 0, 58, 33
1, 150960, Note_on_c, 0, 50, 27
1, 150961, Note_on_c, 0, 59, 0
1, 150961, Note_on_c, 0, 51, 0
1, 150990, Tempo, 489796
1, 151028, Tempo, 487805
1, 151067, Tempo, 485830
1, 151080, Note_on_c, 0, 59, 27
1, 151080, Note_on_c, 0, 51, 24
1, 151081, Note_on_c, 0, 58, 0
1, 151081, Note_on_c, 0, 50, 0
1, 151081, Note_on_c, 0, 56, 0
1, 151105, Tempo, 483871
1, 151143, Tempo, 481928
1, 151179, Tempo, 480000
1, 151200, Note_on_c, 0, 56, 29
1, 151200, Note_on_c, 0, 58, 35
1, 151200, Note_on_c, 0, 50, 29
1, 151201, Note_on_c, 0, 59, 0
1, 151201, Note_on_c, 0, 51, 0
1, 151208, Control_c, 0, 64, 0
1, 151236, Tempo, 478088
1, 151249, Control_c, 0, 64, 127
1, 151294, Tempo, 476190
1, 151320, Note_on_c, 0, 59, 32
1, 151320, Note_on_c, 0, 51, 25
1, 151321, Note_on_c, 0, 58, 0
1, 151321, Note_on_c, 0, 50, 0
1, 151321, Note_on_c, 0, 56, 0
1, 151351, Tempo, 474308
1, 151409, Tempo, 472441
1, 151440, Note_on_c, 0, 56, 32
1, 151440, Note_on_c, 0, 58, 37
1, 151440, Note_on_c, 0, 50, 32
1, 151441, Note_on_c, 0, 59, 0
1, 151441, Note_on_c, 0, 51, 0
1, 151467, Tempo, 470588
1, 151524, Tempo, 468750
1, 151560, Note_on_c, 0, 59, 30
1, 151560, Note_on_c, 0, 51, 29
1, 151561, Note_on_c, 0, 58, 0
1, 151561, Note_on_c, 0, 50, 0
1, 151561, Note_on_c, 0, 56, 0
1, 151582, Tempo, 466926
1, 151620, Tempo, 465116
1, 151675, Tempo, 470588
1, 151680, Note_on_c, 0, 56, 34
1, 151680, Note_on_c, 0, 58, 41
1, 151680, Note_on_c, 0, 50, 34
1, 151681, Note_on_c, 0, 59, 0
1, 151681, Note_on_c, 0, 51, 0
1, 151689, Control_c, 0, 64, 0
1, 151739, Control_c, 0, 64, 127
1, 151752, Tempo, 472441
1, 151800, Note_on_c, 0, 59, 38
1, 151800, Note_on_c, 0, 51, 30
1, 151801, Note_on_c, 0, 58, 0
1, 151801, Note_on_c, 0, 50, 0
1, 151801, Note_on_c, 0, 56, 0
1, 151810, Tempo, 474308
1, 151867, Tempo, 476190
1, 151920, Note_on_c, 0, 56, 37
1, 151920, Note_on_c, 0, 58, 44
1, 151920, Note_on_c, 0, 50, 37
1, 151921, Note_on_c, 0, 59, 0
1, 151921, Note_on_c, 0, 51, 0
1, 151925, Tempo, 478088
1, 151983, Tempo, 480000
1, 152040, Tempo, 481928
1, 152040, Note_on_c, 0, 59, 35
1, 152040, Note_on_c, 0, 51, 34
1, 152041, Note_on_c, 0, 58, 0
1, 152041, Note_on_c, 0, 50, 0
1, 152041, Note_on_c, 0, 56, 0
1, 152098, Tempo, 483871
1, 152155, Tempo, 485830
1, 152160, Note_on_c, 0, 56, 39
1, 152160, Note_on_c, 0, 58, 46
1, 152160, Note_on_c, 0, 50, 39
1, 152161, Note_on_c, 0, 59, 0
1, 152161, Note_on_c, 0, 51, 0
1, 152179, Control_c, 0, 64, 0
1, 152213, Tempo, 487805
1, 152232, Control_c, 0, 64, 127
1, 152271, Tempo, 489796
1, 152280, Note_on_c, 0, 59, 42
1, 152280, Note_on_c, 0, 51, 34
1, 152281, Note_on_c, 0, 58, 0
1, 152281, Note_on_c, 0, 50, 0
1, 152281, Note_on_c, 0, 56, 0
1, 152328, Tempo, 491803
1, 152386, Tempo, 493827
1, 152400, Note_on_c, 0, 56, 41
1, 152400, Note_on_c, 0, 58, 49
1, 152400, Note_on_c, 0, 50, 41
1, 152401, Note_on_c, 0, 59, 0
1, 152401, Note_on_c, 0, 51, 0
1, 152443, Tempo, 495868
1, 152501, Tempo, 497925
1, 152516, Tempo, 480000
1, 152520, Tempo, 556948
1, 152520, Note_on_c, 0, 59, 41
1, 152520, Note_on_c, 0, 51, 38
1, 152521, Note_on_c, 0, 58, 0
1, 152521, Note_on_c, 0, 50, 0
1, 152521, Note_on_c, 0, 56, 0
1, 152640, Tempo, 503821
1, 152640, Note_on_c, 0, 56, 65
1, 152640, Note_on_c, 0, 58, 65
1, 152640, Note_on_c, 0, 50, 54
1, 152640, Control_c, 0, 64, 0
1, 152641, Note_on_c, 0, 59, 0
1, 152641, Note_on_c, 0, 51, 0
1, 152880, Note_on_c, 0, 58, 0
1, 152880, Note_on_c, 0, 56, 0
1, 152880, Note_on_c, 0, 50, 0
1, 153120, Note_on_c, 0, 80, 85
1, 153120, Note_on_c, 0, 71, 72
1, 153120, Note_on_c, 0, 50, 53
1, 153120, Note_on_c, 0, 53, 64
1, 153226, Control_c, 0, 64, 127
1, 153840, Note_on_c, 0, 53, 0
1, 153840, Note_on_c, 0, 80, 0
1, 153840, Note_on_c, 0, 71, 0
1, 153840, Note_on_c, 0, 50, 0
1, 153840, Note_on_c, 0, 79, 59
1, 153840, Note_on_c, 0, 72, 49
1, 153840, Note_on_c, 0, 51, 36
1, 153840, Note_on_c, 0, 55, 43
1, 153856, Control_c, 0, 64, 0
1, 154080, Tempo, 481928
1, 154080, Note_on_c, 0, 55, 0
1, 154080, Note_on_c, 0, 79, 0
1, 154080, Note_on_c, 0, 72, 0
1, 154080, Note_on_c, 0, 51, 0
1, 154080, Note_on_c, 0, 77, 70
1, 154080, Note_on_c, 0, 68, 58
1, 154080, Note_on_c, 0, 47, 43
1, 154080, Note_on_c, 0, 50, 51
1, 154140, Control_c, 0, 64, 127
1, 154440, Tempo, 548697
1, 154440, Note_on_c, 0, 50, 0
1, 154440, Note_on_c, 0, 77, 0
1, 154440, Note_on_c, 0, 68, 0
1, 154440, Note_on_c, 0, 47, 0
1, 154440, Note_on_c, 0, 75, 53
1, 154440, Note_on_c, 0, 67, 45
1, 154440, Note_on_c, 0, 48, 32
1, 154440, Note_on_c, 0, 51, 39
1, 154447, Control_c, 0, 64, 0
1, 154560, Tempo, 494805
1, 154560, Note_on_c, 0, 51, 0
1, 154560, Note_on_c, 0, 75, 0
1, 154560, Note_on_c, 0, 67, 0
1, 154560, Note_on_c, 0, 48, 0
1, 154560, Note_on_c, 0, 65, 52
1, 154560, Note_on_c, 0, 74, 61
1, 154560, Note_on_c, 0, 50, 38
1, 154560, Note_on_c, 0, 53, 45
1, 154673, Control_c, 0, 64, 127
1, 155040, Note_on_c, 0, 53, 0
1, 155040, Note_on_c, 0, 65, 0
1, 155040, Note_on_c, 0, 74, 0
1, 155040, Note_on_c, 0, 50, 0
1, 155040, Note_on_c, 0, 63, 46
1, 155040, Note_on_c, 0, 72, 54
1, 155040, Note_on_c, 0, 51, 34
1, 155040, Note_on_c, 0, 55, 41
1, 155100, Control_c, 0, 64, 0
1, 155280, Tempo, 551420
1, 155520, Tempo, 508431
1, 155520, Note_on_c, 0, 55, 0
1, 155520, Note_on_c, 0, 63, 0
1, 155520, Note_on_c, 0, 72, 0
1, 155520, Note_on_c, 0, 51, 0
1, 155520, Note_on_c, 0, 62, 40
1, 155520, Note_on_c, 0, 70, 48
1, 155520, Note_on_c, 0, 53, 36
1, 155661, Control_c, 0, 64, 127
1, 156000, Note_on_c, 0, 53, 0
1, 156000, Note_on_c, 0, 70, 0
1, 156000, Note_on_c, 0, 62, 0
1, 156000, Note_on_c, 0, 60, 36
1, 156000, Note_on_c, 0, 69, 42
1, 156000, Note_on_c, 0, 41, 30
1, 156017, Control_c, 0, 64, 0
1, 156240, Note_on_c, 0, 41, 0
1, 156240, Note_on_c, 0, 69, 0
1, 156240, Note_on_c, 0, 60, 0
1, 156480, Tempo, 508431
1, 156480, Note_on_c, 0, 62, 50
1, 156840, Tempo, 556948
1, 156840, Note_on_c, 0, 62, 0
1, 156840, Note_on_c, 0, 63, 46
1, 156960, Tempo, 494805
1, 156960, Note_on_c, 0, 63, 0
1, 156960, Note_on_c, 0, 65, 50
1, 156960, Note_on_c, 0, 46, 40
1, 157017, Control_c, 0, 64, 127
1, 157080, Note_on_c, 0, 46, 0
1, 157200, Note_on_c, 0, 58, 29
1, 157440, Note_on_c, 0, 58, 0
1, 157440, Note_on_c, 0, 62, 34
1, 157451, Control_c, 0, 64, 0
1, 157500, Control_c, 0, 64, 127
1, 157680, Note_on_c, 0, 62, 0
1, 157680, Note_on_c, 0, 58, 29
1, 157890, Note_on_c, 0, 65, 0
1, 157890, Note_on_c, 0, 69, 46
1, 157920, Tempo, 483871
1, 157920, Note_on_c, 0, 69, 0
1, 157920, Note_on_c, 0, 58, 0
1, 157920, Note_on_c, 0, 67, 50
1, 157920, Note_on_c, 0, 63, 34
1, 157935, Control_c, 0, 64, 0
1, 158040, Note_on_c, 0, 67, 0
1, 158040, Note_on_c, 0, 65, 45
1, 158160, Tempo, 517911
1, 158160, Note_on_c, 0, 65, 0
1, 158160, Note_on_c, 0, 63, 0
1, 158160, Note_on_c, 0, 67, 50
1, 158160, Note_on_c, 0, 60, 31
1, 158280, Note_on_c, 0, 67, 0
1, 158280, Note_on_c, 0, 69, 43
1, 158400, Tempo, 492611
1, 158400, Note_on_c, 0, 69, 0
1, 158400, Note_on_c, 0, 60, 0
1, 158400, Note_on_c, 0, 70, 50
1, 158400, Note_on_c, 0, 62, 40
1, 158640, Note_on_c, 0, 62, 0
1, 158640, Note_on_c, 0, 61, 30
1, 158880, Note_on_c, 0, 61, 0
1, 158880, Note_on_c, 0, 70, 0
1, 158880, Note_on_c, 0, 65, 41
1, 158880, Note_on_c, 0, 62, 34
1, 158940, Control_c, 0, 64, 127
1, 159120, Note_on_c, 0, 62, 0
1, 159120, Note_on_c, 0, 58, 30
1, 159300, Note_on_c, 0, 65, 0
1, 159330, Note_on_c, 0, 69, 43
1, 159360, Tempo, 481928
1, 159360, Note_on_c, 0, 69, 0
1, 159360, Note_on_c, 0, 58, 0
1, 159360, Note_on_c, 0, 67, 50
1, 159360, Note_on_c, 0, 63, 34
1, 159379, Control_c, 0, 64, 0
1, 159480, Note_on_c, 0, 67, 0
1, 159480, Note_on_c, 0, 65, 46
1, 159600, Tempo, 515508
1, 159600, Note_on_c, 0, 65, 0
1, 159600, Note_on_c, 0, 63, 0
1, 159600, Note_on_c, 0, 67, 50
1, 159600, Note_on_c, 0, 60, 29
1, 159720, Note_on_c, 0, 67, 0
1, 159720, Note_on_c, 0, 69, 50
1, 159840, Tempo, 494805
1, 159840, Note_on_c, 0, 69, 0
1, 159840, Note_on_c, 0, 60, 0
1, 159840, Note_on_c, 0, 70, 50
1, 159840, Note_on_c, 0, 62, 40
1, 159900, Note_on_c, 0, 70, 0
1, 160080, Note_on_c, 0, 62, 0
1, 160080, Note_on_c, 0, 61, 30
1, 160200, Note_on_c, 0, 69, 46
1, 160260, Note_on_c, 0, 69, 0
1, 160320, Note_on_c, 0, 61, 0
1, 160320, Note_on_c, 0, 70, 56
1, 160320, Note_on_c, 0, 62, 34
1, 160380, Note_on_c, 0, 70, 0
1, 160560, Note_on_c, 0, 62, 0
1, 160560, Note_on_c, 0, 57, 30
1, 160680, Note_on_c, 0, 72, 48
1, 160740, Note_on_c, 0, 72, 0
1, 160800, Note_on_c, 0, 57, 0
1, 160800, Note_on_c, 0, 74, 55
1, 160800, Note_on_c, 0, 58, 34
1, 160860, Note_on_c, 0, 74, 0
1, 161040, Note_on_c, 0, 58, 0
1, 161040, Note_on_c, 0, 55, 30
1, 161160, Tempo, 571429
1, 161160, Note_on_c, 0, 76, 59
1, 161220, Note_on_c, 0, 76, 0
1, 161270, Note_on_c, 0, 55, 0
1, 161280, Tempo, 513128
1, 161280, Note_on_c, 0, 70, 53
1, 161280, Note_on_c, 0, 76, 63
1, 161280, Note_on_c, 0, 53, 40
1, 161280, Control_c, 0, 64, 127
1, 161760, Note_on_c, 0, 76, 0
1, 161760, Note_on_c, 0, 70, 0
1, 161760, Note_on_c, 0, 69, 48
1, 161760, Note_on_c, 0, 77, 57
1, 161760, Note_on_c, 0, 65, 35
1, 161776, Control_c, 0, 64, 0
1, 162000, Note_on_c, 0, 65, 0
1, 162000, Note_on_c, 0, 53, 0
1, 162000, Note_on_c, 0, 69, 0
1, 162000, Note_on_c, 0, 77, 0
1, 162210, Note_on_c, 0, 77, 43
1, 162240, Tempo, 492611
1, 162240, Note_on_c, 0, 77, 0
1, 162240, Note_on_c, 0, 75, 50
1, 162360, Note_on_c, 0, 75, 0
1, 162360, Note_on_c, 0, 74, 46
1, 162480, Note_on_c, 0, 74, 0
1, 162480, Note_on_c, 0, 75, 54
1, 162600, Note_on_c, 0, 75, 0
1, 162600, Note_on_c, 0, 77, 51
1, 162720, Note_on_c, 0, 77, 0
1, 162720, Note_on_c, 0, 79, 59
1, 162777, Control_c, 0, 64, 127
1, 162840, Note_on_c, 0, 41, 37
1, 162960, Note_on_c, 0, 41, 0
1, 162960, Note_on_c, 0, 45, 38
1, 163080, Note_on_c, 0, 45, 0
1, 163080, Note_on_c, 0, 48, 39
1, 163200, Tempo, 487805
1, 163200, Note_on_c, 0, 48, 0
1, 163200, Note_on_c, 0, 79, 0
1, 163200, Note_on_c, 0, 72, 50
1, 163200, Note_on_c, 0, 53, 40
1, 163320, Note_on_c, 0, 53, 0
1, 163320, Note_on_c, 0, 57, 41
1, 163440, Note_on_c, 0, 57, 0
1, 163440, Note_on_c, 0, 60, 42
1, 163560, Tempo, 522830
1, 163560, Note_on_c, 0, 60, 0
1, 163560, Note_on_c, 0, 62, 43
1, 163620, Note_on_c, 0, 72, 0
1, 163650, Note_on_c, 0, 74, 43
1, 163680, Tempo, 490436
1, 163680, Note_on_c, 0, 74, 0
1, 163680, Note_on_c, 0, 62, 0
1, 163680, Note_on_c, 0, 72, 50
1, 163680, Note_on_c, 0, 63, 48
1, 163686, Control_c, 0, 64, 0
1, 163800, Note_on_c, 0, 72, 0
1, 163800, Note_on_c, 0, 71, 46
1, 163920, Note_on_c, 0, 71, 0
1, 163920, Note_on_c, 0, 72, 54
1, 164040, Note_on_c, 0, 72, 0
1, 164040, Note_on_c, 0, 74, 51
1, 164160, Note_on_c, 0, 74, 0
1, 164160, Note_on_c, 0, 75, 59
1, 164213, Control_c, 0, 64, 127
1, 164280, Note_on_c, 0, 63, 0
1, 164280, Note_on_c, 0, 41, 37
1, 164400, Note_on_c, 0, 41, 0
1, 164400, Note_on_c, 0, 45, 41
1, 164520, Note_on_c, 0, 45, 0
1, 164520, Note_on_c, 0, 48, 43
1, 164640, Tempo, 485830
1, 164640, Note_on_c, 0, 48, 0
1, 164640, Note_on_c, 0, 75, 0
1, 164640, Note_on_c, 0, 69, 50
1, 164640, Note_on_c, 0, 53, 44
1, 164760, Note_on_c, 0, 53, 0
1, 164760, Note_on_c, 0, 57, 46
1, 164880, Note_on_c, 0, 57, 0
1, 164880, Note_on_c, 0, 60, 48
1, 165000, Tempo, 515508
1, 165000, Note_on_c, 0, 60, 0
1, 165000, Note_on_c, 0, 63, 49
1, 165060, Note_on_c, 0, 69, 0
1, 165090, Note_on_c, 0, 70, 43
1, 165120, Tempo, 490436
1, 165120, Note_on_c, 0, 70, 0
1, 165120, Note_on_c, 0, 63, 0
1, 165120, Note_on_c, 0, 69, 50
1, 165120, Note_on_c, 0, 66, 55
1, 165134, Control_c, 0, 64, 0
1, 165240, Note_on_c, 0, 69, 0
1, 165240, Note_on_c, 0, 67, 46
1, 165360, Note_on_c, 0, 67, 0
1, 165360, Note_on_c, 0, 69, 52
1, 165480, Tempo, 508431
1, 165480, Note_on_c, 0, 69, 0
1, 165480, Note_on_c, 0, 70, 48
1, 165560, Note_on_c, 0, 70, 0
1, 165570, Note_on_c, 0, 74, 43
1, 165600, Tempo, 490436
1, 165600, Note_on_c, 0, 74, 0
1, 165600, Note_on_c, 0, 72, 53
1, 165720, Note_on_c, 0, 72, 0
1, 165720, Note_on_c, 0, 71, 50
1, 165840, Note_on_c, 0, 71, 0
1, 165840, Note_on_c, 0, 72, 54
1, 165960, Tempo, 510769
1, 165960, Note_on_c, 0, 72, 0
1, 165960, Note_on_c, 0, 74, 51
1, 166040, Note_on_c, 0, 74, 0
1, 166050, Note_on_c, 0, 77, 43
1, 166080, Tempo, 492611
1, 166080, Note_on_c, 0, 77, 0
1, 166080, Note_on_c, 0, 66, 0
1, 166080, Note_on_c, 0, 75, 57
1, 166080, Note_on_c, 0, 65, 38
1, 166080, Note_on_c, 0, 53, 38
1, 166200, Note_on_c, 0, 75, 0
1, 166200, Note_on_c, 0, 74, 52
1, 166320, Note_on_c, 0, 74, 0
1, 166320, Note_on_c, 0, 75, 58
1, 166440, Note_on_c, 0, 75, 0
1, 166440, Note_on_c, 0, 77, 55
1, 166560, Note_on_c, 0, 77, 0
1, 166560, Note_on_c, 0, 53, 0
1, 166560, Note_on_c, 0, 65, 0
1, 166560, Note_on_c, 0, 79, 61
1, 166560, Note_on_c, 0, 53, 32
1, 166560, Note_on_c, 0, 63, 32
1, 166680, Note_on_c, 0, 79, 0
1, 166680, Note_on_c, 0, 75, 59
1, 166800, Tempo, 556948
1, 166800, Note_on_c, 0, 75, 0
1, 166800, Note_on_c, 0, 72, 52
1, 166920, Tempo, 622665
1, 166920, Note_on_c, 0, 72, 0
1, 166920, Note_on_c, 0, 69, 42
1, 167040, Tempo, 494805
1, 167040, Note_on_c, 0, 69, 0
1, 167040, Note_on_c, 0, 63, 0
1, 167040, Note_on_c, 0, 53, 0
1, 167040, Note_on_c, 0, 70, 50
1, 167040, Note_on_c, 0, 46, 40
1, 167097, Control_c, 0, 64, 127
1, 167160, Note_on_c, 0, 46, 0
1, 167280, Note_on_c, 0, 58, 29
1, 167520, Note_on_c, 0, 58, 0
1, 167520, Note_on_c, 0, 70, 0
1, 167520, Note_on_c, 0, 62, 34
1, 167531, Control_c, 0, 64, 0
1, 167580, Control_c, 0, 64, 127
1, 167760, Note_on_c, 0, 62, 0
1, 167760, Note_on_c, 0, 58, 29
1, 167970, Note_on_c, 0, 81, 46
1, 168000, Note_on_c, 0, 81, 0
1, 168000, Note_on_c, 0, 58, 0
1, 168000, Note_on_c, 0, 79, 50
1, 168000, Note_on_c, 0, 63, 34
1, 168015, Control_c, 0, 64, 0
1, 168120, Note_on_c, 0, 79, 0
1, 168120, Note_on_c, 0, 78, 45
1, 168240, Tempo, 517911
1, 168240, Note_on_c, 0, 78, 0
1, 168240, Note_on_c, 0, 63, 0
1, 168240, Note_on_c, 0, 79, 50
1, 168240, Note_on_c, 0, 58, 31
1, 168360, Note_on_c, 0, 79, 0
1, 168360, Note_on_c, 0, 81, 43
1, 168480, Tempo, 492611
1, 168480, Note_on_c, 0, 81, 0
1, 168480, Note_on_c, 0, 58, 0
1, 168480, Note_on_c, 0, 82, 50
1, 168480, Note_on_c, 0, 62, 40
1, 168720, Note_on_c, 0, 62, 0
1, 168720, Note_on_c, 0, 61, 30
1, 168960, Note_on_c, 0, 61, 0
1, 168960, Note_on_c, 0, 82, 0
1, 168960, Note_on_c, 0, 77, 41
1, 168960, Note_on_c, 0, 62, 34
1, 169020, Control_c, 0, 64, 127
1, 169200, Note_on_c, 0, 62, 0
1, 169200, Note_on_c, 0, 58, 30
1, 169380, Note_on_c, 0, 77, 0
1, 169410, Note_on_c, 0, 69, 43
1, 169440, Note_on_c, 0, 69, 0
1, 169440, Note_on_c, 0, 58, 0
1, 169440, Note_on_c, 0, 75, 41
1, 169440, Note_on_c, 0, 67, 50
1, 169440, Note_on_c, 0, 60, 34
1, 169459, Control_c, 0, 64, 0
1, 169560, Note_on_c, 0, 67, 0
1, 169560, Note_on_c, 0, 65, 46
1, 169680, Tempo, 515508
1, 169680, Note_on_c, 0, 65, 0
1, 169680, Note_on_c, 0, 60, 0
1, 169680, Note_on_c, 0, 67, 50
1, 169680, Note_on_c, 0, 53, 29
1, 169800, Note_on_c, 0, 67, 0
1, 169800, Note_on_c, 0, 69, 46
1, 169920, Tempo, 492611
1, 169920, Note_on_c, 0, 69, 0
1, 169920, Note_on_c, 0, 53, 0
1, 169920, Note_on_c, 0, 75, 0
1, 169920, Note_on_c, 0, 74, 44
1, 169920, Note_on_c, 0, 70, 50
1, 169920, Note_on_c, 0, 58, 40
1, 170160, Note_on_c, 0, 58, 0
1, 170160, Note_on_c, 0, 46, 30
1, 170400, Note_on_c, 0, 46, 0
1, 170400, Note_on_c, 0, 70, 0
1, 170400, Note_on_c, 0, 74, 0
1, 170400, Note_on_c, 0, 65, 41
1, 170400, Note_on_c, 0, 50, 34
1, 170460, Control_c, 0, 64, 127
1, 170640, Note_on_c, 0, 50, 0
1, 170640, Note_on_c, 0, 65, 0
1, 170640, Note_on_c, 0, 46, 30
1, 170850, Note_on_c, 0, 69, 43
1, 170880, Tempo, 483871
1, 170880, Note_on_c, 0, 69, 0
1, 170880, Note_on_c, 0, 46, 0
1, 170880, Note_on_c, 0, 67, 50
1, 170880, Note_on_c, 0, 51, 34
1, 170899, Control_c, 0, 64, 0
1, 171000, Note_on_c, 0, 67, 0
1, 171000, Note_on_c, 0, 66, 46
1, 171120, Tempo, 515508
1, 171120, Note_on_c, 0, 66, 0
1, 171120, Note_on_c, 0, 51, 0
1, 171120, Note_on_c, 0, 67, 50
1, 171120, Note_on_c, 0, 46, 29
1, 171240, Note_on_c, 0, 67, 0
1, 171240, Note_on_c, 0, 69, 46
1, 171360, Tempo, 492611
1, 171360, Note_on_c, 0, 69, 0
1, 171360, Note_on_c, 0, 46, 0
1, 171360, Note_on_c, 0, 70, 50
1, 171360, Note_on_c, 0, 50, 40
1, 171600, Note_on_c, 0, 50, 0
1, 171600, Note_on_c, 0, 49, 30
1, 171840, Note_on_c, 0, 49, 0
1, 171840, Note_on_c, 0, 70, 0
1, 171840, Note_on_c, 0, 65, 41
1, 171840, Note_on_c, 0, 50, 34
1, 171900, Control_c, 0, 64, 127
1, 172080, Note_on_c, 0, 50, 0
1, 172080, Note_on_c, 0, 46, 30
1, 172260, Note_on_c, 0, 65, 0
1, 172290, Note_on_c, 0, 57, 36
1, 172320, Tempo, 481928
1, 172320, Note_on_c, 0, 57, 0
1, 172320, Note_on_c, 0, 46, 0
1, 172320, Note_on_c, 0, 63, 34
1, 172320, Note_on_c, 0, 55, 42
1, 172320, Note_on_c, 0, 48, 34
1, 172339, Control_c, 0, 64, 0
1, 172440, Note_on_c, 0, 55, 0
1, 172440, Note_on_c, 0, 53, 39
1, 172560, Tempo, 515508
1, 172560, Note_on_c, 0, 53, 0
1, 172560, Note_on_c, 0, 48, 0
1, 172560, Note_on_c, 0, 55, 42
1, 172560, Note_on_c, 0, 41, 29
1, 172680, Note_on_c, 0, 55, 0
1, 172680, Note_on_c, 0, 57, 39
1, 172800, Note_on_c, 0, 57, 0
1, 172800, Note_on_c, 0, 41, 0
1, 172800, Note_on_c, 0, 63, 0
1, 172800, Note_on_c, 0, 62, 34
1, 172800, Note_on_c, 0, 58, 42
1, 172800, Note_on_c, 0, 46, 40
1, 172896, Control_c, 0, 64, 127
1, 173040, Note_on_c, 0, 46, 0
1, 173040, Note_on_c, 0, 58, 0
1, 173040, Note_on_c, 0, 53, 33
1, 173040, Note_on_c, 0, 50, 30
1, 173227, Control_c, 0, 64, 0
1, 173240, Note_on_c, 0, 53, 0
1, 173250, Tempo, 492611
1, 173250, Note_on_c, 0, 57, 37
1, 173280, Tempo, 483871
1, 173280, Note_on_c, 0, 57, 0
1, 173280, Note_on_c, 0, 50, 0
1, 173280, Note_on_c, 0, 62, 0
1, 173280, Note_on_c, 0, 63, 39
1, 173280, Note_on_c, 0, 55, 43
1, 173280, Note_on_c, 0, 48, 35
1, 173400, Note_on_c, 0, 55, 0
1, 173400, Note_on_c, 0, 53, 40
1, 173520, Tempo, 515508
1, 173520, Note_on_c, 0, 53, 0
1, 173520, Note_on_c, 0, 48, 0
1, 173520, Note_on_c, 0, 55, 44
1, 173520, Note_on_c, 0, 41, 31
1, 173640, Note_on_c, 0, 55, 0
1, 173640, Note_on_c, 0, 57, 40
1, 173760, Note_on_c, 0, 57, 0
1, 173760, Note_on_c, 0, 41, 0
1, 173760, Note_on_c, 0, 63, 0
1, 173760, Note_on_c, 0, 62, 36
1, 173760, Note_on_c, 0, 58, 44
1, 173760, Note_on_c, 0, 46, 36
1, 173852, Control_c, 0, 64, 127
1, 174000, Note_on_c, 0, 46, 0
1, 174000, Note_on_c, 0, 58, 0
1, 174000, Note_on_c, 0, 53, 34
1, 174000, Note_on_c, 0, 50, 31
1, 174180, Note_on_c, 0, 53, 0
1, 174210, Tempo, 492611
1, 174210, Note_on_c, 0, 57, 39
1, 174240, Note_on_c, 0, 57, 0
1, 174240, Note_on_c, 0, 50, 0
1, 174240, Note_on_c, 0, 62, 0
1, 174240, Note_on_c, 0, 63, 44
1, 174240, Note_on_c, 0, 55, 46
1, 174240, Note_on_c, 0, 48, 44
1, 174240, Control_c, 0, 64, 0
1, 174360, Note_on_c, 0, 55, 0
1, 174360, Note_on_c, 0, 53, 43
1, 174480, Tempo, 515508
1, 174480, Note_on_c, 0, 53, 0
1, 174480, Note_on_c, 0, 48, 0
1, 174480, Note_on_c, 0, 55, 47
1, 174480, Note_on_c, 0, 41, 33
1, 174600, Note_on_c, 0, 55, 0
1, 174600, Note_on_c, 0, 57, 44
1, 174720, Tempo, 497018
1, 174720, Note_on_c, 0, 57, 0
1, 174720, Note_on_c, 0, 41, 0
1, 174720, Note_on_c, 0, 63, 0
1, 174720, Note_on_c, 0, 62, 42
1, 174720, Note_on_c, 0, 58, 48
1, 174720, Note_on_c, 0, 46, 45
1, 174801, Control_c, 0, 64, 127
1, 174840, Note_on_c, 0, 46, 0
1, 174840, Note_on_c, 0, 58, 0
1, 174840, Note_on_c, 0, 53, 41
1, 174840, Note_on_c, 0, 50, 37
1, 174960, Note_on_c, 0, 50, 0
1, 174960, Note_on_c, 0, 53, 0
1, 174960, Note_on_c, 0, 62, 0
1, 174960, Note_on_c, 0, 63, 40
1, 174960, Note_on_c, 0, 57, 50
1, 174960, Note_on_c, 0, 41, 46
1, 174973, Control_c, 0, 64, 0
1, 175024, Control_c, 0, 64, 127
1, 175080, Note_on_c, 0, 41, 0
1, 175080, Note_on_c, 0, 57, 0
1, 175080, Note_on_c, 0, 53, 43
1, 175080, Note_on_c, 0, 48, 39
1, 175200, Note_on_c, 0, 48, 0
1, 175200, Note_on_c, 0, 53, 0
1, 175200, Note_on_c, 0, 63, 0
1, 175200, Note_on_c, 0, 62, 49
1, 175200, Note_on_c, 0, 58, 51
1, 175200, Note_on_c, 0, 46, 47
1, 175215, Control_c, 0, 64, 0
1, 175260, Control_c, 0, 64, 127
1, 175320, Note_on_c, 0, 46, 0
1, 175320, Note_on_c, 0, 58, 0
1, 175320, Note_on_c, 0, 53, 46
1, 175320, Note_on_c, 0, 50, 41
1, 175440, Note_on_c, 0, 50, 0
1, 175440, Note_on_c, 0, 53, 0
1, 175440, Note_on_c, 0, 62, 0
1, 175440, Note_on_c, 0, 63, 42
1, 175440, Note_on_c, 0, 57, 52
1, 175440, Note_on_c, 0, 41, 49
1, 175447, Control_c, 0, 64, 0
1, 175500, Control_c, 0, 64, 127
1, 175560, Tempo, 551420
1, 175560, Note_on_c, 0, 41, 0
1, 175560, Note_on_c, 0, 57, 0
1, 175560, Note_on_c, 0, 53, 47
1, 175560, Note_on_c, 0, 48, 43
1, 175680, Tempo, 508475
1, 175680, Note_on_c, 0, 48, 0
1, 175680, Note_on_c, 0, 53, 0
1, 175680, Note_on_c, 0, 63, 0
1, 175680, Note_on_c, 0, 58, 34
1, 175680, Note_on_c, 0, 62, 40
1, 175680, Note_on_c, 0, 46, 24
1, 175680, Note_on_c, 0, 50, 30
1, 175680, Control_c, 0, 64, 0
1, 175800, Note_on_c, 0, 50, 0
1, 175800, Note_on_c, 0, 58, 0
1, 175800, Note_on_c, 0, 62, 0
1, 175800, Note_on_c, 0, 46, 0
1, 176160, Note_on_c, 0, 62, 34
1, 176160, Note_on_c, 0, 70, 40
1, 176160, Note_on_c, 0, 34, 24
1, 176160, Note_on_c, 0, 46, 30
1, 176280, Note_on_c, 0, 46, 0
1, 176280, Note_on_c, 0, 62, 0
1, 176280, Note_on_c, 0, 70, 0
1, 176280, Note_on_c, 0, 34, 0
1, 176460, Tempo, 497018
1, 176640, Marker_t, "Fine"
1, 176640, End_track
0, 0, End_of_file
