0, 0, Header, 0, 1, 480
1, 0, Start_track
1, 0, Title_t, "Hammerklaviersonate: 3. Satz"
1, 0, Copyright_t, "Copyright © 2008 by Bernd Krueger"
1, 0, Text_t, "Ludwig van Beethoven"
1, 0, Text_t, "Adagio sostenuto"
1, 0, Text_t, "Erstellt: 14.6.2008\012"
1, 0, Text_t, "Update: 22.8.2012\012"
1, 0, Text_t, "Dauer: 12:44 Minuten\012"
1, 0, Time_signature, 6, 3, 12, 8
1, 0, Key_signature, 3, "major"
1, 0, Tempo, 1304348
1, 0, Program_c, 0, 0
1, 0, Note_on_c, 0, 57, 42
1, 0, Program_c, 0, 0
1, 0, Note_on_c, 0, 33, 23
1, 0, Note_on_c, 0, 45, 28
1, 0, Program_c, 0, 0
1, 0, Control_c, 0, 64, 127
1, 720, Note_on_c, 0, 45, 0
1, 720, Note_on_c, 0, 33, 0
1, 720, Note_on_c, 0, 57, 0
1, 720, Note_on_c, 0, 61, 40
1, 720, Note_on_c, 0, 37, 21
1, 720, Note_on_c, 0, 49, 30
1, 733, Control_c, 0, 64, 0
1, 827, Control_c, 0, 64, 127
1, 1440, Note_on_c, 0, 49, 0
1, 1440, Note_on_c, 0, 37, 0
1, 1440, Note_on_c, 0, 61, 0
1, 1440, Note_on_c, 0, 66, 40
1, 1440, Note_on_c, 0, 61, 40
1, 1440, Note_on_c, 0, 73, 48
1, 1440, Note_on_c, 0, 69, 40
1, 1440, Note_on_c, 0, 42, 29
1, 1440, Note_on_c, 0, 49, 29
1, 1440, Note_on_c, 0, 54, 35
1, 1440, Control_c, 0, 64, 0
1, 1548, Control_c, 0, 64, 127
1, 1920, Tempo, 1348315
1, 1920, Note_on_c, 0, 69, 0
1, 1920, Note_on_c, 0, 73, 0
1, 1920, Note_on_c, 0, 69, 42
1, 2102, Control_c, 0, 64, 0
1, 2160, Tempo, 1318681
1, 2160, Note_on_c, 0, 69, 0
1, 2160, Note_on_c, 0, 54, 0
1, 2160, Note_on_c, 0, 42, 0
1, 2160, Note_on_c, 0, 66, 0
1, 2160, Note_on_c, 0, 61, 0
1, 2160, Note_on_c, 0, 49, 0
1, 2160, Note_on_c, 0, 61, 39
1, 2160, Note_on_c, 0, 69, 47
1, 2160, Note_on_c, 0, 42, 29
1, 2160, Note_on_c, 0, 49, 29
1, 2160, Note_on_c, 0, 54, 35
1, 2193, Control_c, 0, 64, 127
1, 2400, Tempo, 1276596
1, 2400, Note_on_c, 0, 54, 0
1, 2400, Note_on_c, 0, 42, 0
1, 2400, Note_on_c, 0, 61, 0
1, 2400, Note_on_c, 0, 69, 0
1, 2400, Note_on_c, 0, 49, 0
1, 2400, Note_on_c, 0, 61, 34
1, 2400, Note_on_c, 0, 66, 41
1, 2400, Note_on_c, 0, 45, 26
1, 2400, Note_on_c, 0, 49, 26
1, 2400, Note_on_c, 0, 57, 31
1, 2591, Control_c, 0, 64, 0
1, 2640, Tempo, 1411765
1, 2640, Note_on_c, 0, 57, 0
1, 2640, Note_on_c, 0, 45, 0
1, 2640, Note_on_c, 0, 61, 0
1, 2640, Note_on_c, 0, 66, 0
1, 2640, Note_on_c, 0, 49, 0
1, 2640, Note_on_c, 0, 59, 34
1, 2640, Note_on_c, 0, 65, 34
1, 2640, Note_on_c, 0, 68, 41
1, 2640, Note_on_c, 0, 61, 34
1, 2640, Note_on_c, 0, 44, 26
1, 2640, Note_on_c, 0, 49, 26
1, 2640, Note_on_c, 0, 56, 31
1, 2698, Control_c, 0, 64, 127
1, 2880, Tempo, 1304348
1, 2880, Note_on_c, 0, 56, 0
1, 2880, Note_on_c, 0, 44, 0
1, 2880, Note_on_c, 0, 65, 0
1, 2880, Note_on_c, 0, 68, 0
1, 2880, Note_on_c, 0, 59, 0
1, 2880, Note_on_c, 0, 49, 0
1, 2880, Note_on_c, 0, 61, 0
1, 2880, Note_on_c, 0, 57, 42
1, 2880, Note_on_c, 0, 66, 42
1, 2880, Note_on_c, 0, 69, 50
1, 2880, Note_on_c, 0, 61, 42
1, 2880, Note_on_c, 0, 42, 28
1, 2880, Note_on_c, 0, 49, 28
1, 2880, Note_on_c, 0, 54, 34
1, 2886, Control_c, 0, 64, 0
1, 3067, Control_c, 0, 64, 127
1, 3600, Note_on_c, 0, 54, 0
1, 3600, Note_on_c, 0, 42, 0
1, 3600, Note_on_c, 0, 66, 0
1, 3600, Note_on_c, 0, 69, 0
1, 3600, Note_on_c, 0, 57, 0
1, 3600, Note_on_c, 0, 49, 0
1, 3600, Note_on_c, 0, 61, 0
1, 3600, Note_on_c, 0, 59, 47
1, 3600, Note_on_c, 0, 71, 56
1, 3600, Note_on_c, 0, 66, 47
1, 3600, Note_on_c, 0, 38, 33
1, 3600, Note_on_c, 0, 50, 39
1, 3612, Control_c, 0, 64, 0
1, 3800, Control_c, 0, 64, 127
1, 4080, Tempo, 1379310
1, 4080, Note_on_c, 0, 50, 0
1, 4080, Note_on_c, 0, 66, 0
1, 4080, Note_on_c, 0, 59, 0
1, 4080, Note_on_c, 0, 71, 0
1, 4080, Note_on_c, 0, 38, 0
1, 4080, Note_on_c, 0, 66, 46
1, 4080, Note_on_c, 0, 62, 46
1, 4080, Note_on_c, 0, 74, 55
1, 4080, Note_on_c, 0, 35, 34
1, 4080, Note_on_c, 0, 47, 40
1, 4318, Note_on_c, 0, 47, 0
1, 4318, Note_on_c, 0, 62, 0
1, 4318, Note_on_c, 0, 66, 0
1, 4318, Note_on_c, 0, 35, 0
1, 4318, Note_on_c, 0, 74, 0
1, 4320, Tempo, 1290323
1, 4320, Note_on_c, 0, 62, 52
1, 4320, Note_on_c, 0, 74, 62
1, 4320, Note_on_c, 0, 66, 52
1, 4320, Note_on_c, 0, 35, 37
1, 4320, Note_on_c, 0, 47, 46
1, 4320, Control_c, 0, 64, 0
1, 4453, Control_c, 0, 64, 127
1, 4800, Note_on_c, 0, 47, 0
1, 4800, Note_on_c, 0, 66, 0
1, 4800, Note_on_c, 0, 62, 0
1, 4800, Note_on_c, 0, 74, 0
1, 4800, Note_on_c, 0, 35, 0
1, 4800, Note_on_c, 0, 66, 48
1, 4800, Note_on_c, 0, 73, 57
1, 4800, Note_on_c, 0, 61, 48
1, 4800, Note_on_c, 0, 33, 35
1, 4800, Note_on_c, 0, 45, 42
1, 4812, Control_c, 0, 64, 0
1, 4900, Control_c, 0, 64, 127
1, 5038, Note_on_c, 0, 45, 0
1, 5038, Note_on_c, 0, 61, 0
1, 5038, Note_on_c, 0, 66, 0
1, 5038, Note_on_c, 0, 73, 0
1, 5038, Note_on_c, 0, 33, 0
1, 5040, Note_on_c, 0, 66, 53
1, 5040, Note_on_c, 0, 73, 64
1, 5040, Note_on_c, 0, 61, 53
1, 5040, Note_on_c, 0, 33, 39
1, 5040, Note_on_c, 0, 45, 48
1, 5054, Control_c, 0, 64, 0
1, 5140, Control_c, 0, 64, 127
1, 5280, Tempo, 1250000
1, 5280, Note_on_c, 0, 45, 0
1, 5280, Note_on_c, 0, 61, 0
1, 5280, Note_on_c, 0, 66, 0
1, 5280, Note_on_c, 0, 73, 0
1, 5280, Note_on_c, 0, 33, 0
1, 5280, Note_on_c, 0, 65, 49
1, 5280, Note_on_c, 0, 71, 49
1, 5280, Note_on_c, 0, 73, 49
1, 5280, Note_on_c, 0, 77, 60
1, 5280, Note_on_c, 0, 32, 38
1, 5280, Note_on_c, 0, 44, 45
1, 5292, Control_c, 0, 64, 0
1, 5371, Control_c, 0, 64, 127
1, 5520, Tempo, 1379310
1, 5520, Note_on_c, 0, 44, 0
1, 5520, Note_on_c, 0, 71, 0
1, 5520, Note_on_c, 0, 73, 0
1, 5520, Note_on_c, 0, 65, 0
1, 5520, Note_on_c, 0, 32, 0
1, 5520, Note_on_c, 0, 77, 0
1, 5520, Note_on_c, 0, 73, 57
1, 5520, Note_on_c, 0, 69, 52
1, 5520, Note_on_c, 0, 66, 52
1, 5520, Note_on_c, 0, 78, 68
1, 5520, Note_on_c, 0, 30, 40
1, 5520, Note_on_c, 0, 42, 48
1, 5532, Control_c, 0, 64, 0
1, 5595, Control_c, 0, 64, 127
1, 5760, Tempo, 1304348
1, 5760, Note_on_c, 0, 42, 0
1, 5760, Note_on_c, 0, 69, 0
1, 5760, Note_on_c, 0, 66, 0
1, 5760, Note_on_c, 0, 73, 0
1, 5760, Note_on_c, 0, 30, 0
1, 5760, Note_on_c, 0, 78, 0
1, 5760, Note_on_c, 0, 80, 72
1, 5760, Note_on_c, 0, 73, 61
1, 5760, Note_on_c, 0, 68, 61
1, 5760, Note_on_c, 0, 29, 39
1, 5760, Note_on_c, 0, 41, 48
1, 5760, Control_c, 0, 64, 0
1, 5880, Control_c, 0, 64, 127
1, 6480, Note_on_c, 0, 41, 0
1, 6480, Note_on_c, 0, 68, 0
1, 6480, Note_on_c, 0, 80, 0
1, 6480, Note_on_c, 0, 73, 0
1, 6480, Note_on_c, 0, 29, 0
1, 6480, Note_on_c, 0, 74, 51
1, 6480, Note_on_c, 0, 71, 43
1, 6480, Note_on_c, 0, 68, 43
1, 6480, Note_on_c, 0, 59, 30
1, 6480, Note_on_c, 0, 56, 30
1, 6480, Note_on_c, 0, 53, 30
1, 6480, Note_on_c, 0, 62, 36
1, 6490, Control_c, 0, 64, 0
1, 6667, Control_c, 0, 64, 127
1, 7200, Tempo, 1304348
1, 7200, Note_on_c, 0, 62, 0
1, 7200, Note_on_c, 0, 56, 0
1, 7200, Note_on_c, 0, 71, 0
1, 7200, Note_on_c, 0, 68, 0
1, 7200, Note_on_c, 0, 74, 0
1, 7200, Note_on_c, 0, 53, 0
1, 7200, Note_on_c, 0, 59, 0
1, 7200, Note_on_c, 0, 68, 42
1, 7200, Note_on_c, 0, 71, 42
1, 7200, Note_on_c, 0, 74, 50
1, 7200, Note_on_c, 0, 29, 28
1, 7200, Note_on_c, 0, 41, 34
1, 7440, Tempo, 1263158
1, 7680, Tempo, 1363636
1, 7680, Note_on_c, 0, 62, 42
1, 7920, Tempo, 1318681
1, 7920, Note_on_c, 0, 62, 0
1, 7920, Note_on_c, 0, 71, 0
1, 7920, Note_on_c, 0, 74, 0
1, 7920, Note_on_c, 0, 68, 0
1, 7920, Note_on_c, 0, 41, 0
1, 7920, Note_on_c, 0, 29, 0
1, 7920, Note_on_c, 0, 61, 36
1, 7920, Note_on_c, 0, 69, 36
1, 7920, Note_on_c, 0, 73, 43
1, 7920, Note_on_c, 0, 30, 25
1, 7920, Note_on_c, 0, 42, 30
1, 7928, Control_c, 0, 64, 0
1, 8044, Control_c, 0, 64, 127
1, 8400, Tempo, 1395349
1, 8400, Note_on_c, 0, 42, 0
1, 8400, Note_on_c, 0, 73, 0
1, 8400, Note_on_c, 0, 61, 0
1, 8400, Note_on_c, 0, 69, 0
1, 8400, Note_on_c, 0, 30, 0
1, 8400, Note_on_c, 0, 59, 35
1, 8400, Note_on_c, 0, 62, 35
1, 8400, Note_on_c, 0, 65, 35
1, 8400, Note_on_c, 0, 71, 42
1, 8400, Note_on_c, 0, 32, 26
1, 8400, Note_on_c, 0, 44, 31
1, 8408, Control_c, 0, 64, 0
1, 8475, Control_c, 0, 64, 127
1, 8638, Note_on_c, 0, 44, 0
1, 8638, Note_on_c, 0, 62, 0
1, 8638, Note_on_c, 0, 65, 0
1, 8638, Note_on_c, 0, 59, 0
1, 8638, Note_on_c, 0, 32, 0
1, 8638, Note_on_c, 0, 71, 0
1, 8640, Tempo, 1318681
1, 8640, Note_on_c, 0, 59, 40
1, 8640, Note_on_c, 0, 62, 40
1, 8640, Note_on_c, 0, 65, 40
1, 8640, Note_on_c, 0, 71, 48
1, 8640, Note_on_c, 0, 32, 29
1, 8640, Note_on_c, 0, 44, 35
1, 8644, Control_c, 0, 64, 0
1, 8792, Control_c, 0, 64, 127
1, 9353, Note_on_c, 0, 44, 0
1, 9353, Note_on_c, 0, 62, 0
1, 9353, Note_on_c, 0, 65, 0
1, 9353, Note_on_c, 0, 59, 0
1, 9353, Note_on_c, 0, 32, 0
1, 9353, Note_on_c, 0, 71, 0
1, 9360, Note_on_c, 0, 59, 39
1, 9360, Note_on_c, 0, 65, 39
1, 9360, Note_on_c, 0, 62, 39
1, 9360, Note_on_c, 0, 71, 47
1, 9360, Note_on_c, 0, 32, 29
1, 9360, Note_on_c, 0, 44, 35
1, 9372, Control_c, 0, 64, 0
1, 9499, Control_c, 0, 64, 127
1, 9600, Tempo, 1276596
1, 9600, Note_on_c, 0, 44, 0
1, 9600, Note_on_c, 0, 65, 0
1, 9600, Note_on_c, 0, 62, 0
1, 9600, Note_on_c, 0, 59, 0
1, 9600, Note_on_c, 0, 32, 0
1, 9600, Note_on_c, 0, 71, 0
1, 9600, Note_on_c, 0, 66, 34
1, 9600, Note_on_c, 0, 57, 34
1, 9600, Note_on_c, 0, 61, 34
1, 9600, Note_on_c, 0, 69, 41
1, 9600, Note_on_c, 0, 33, 26
1, 9600, Note_on_c, 0, 45, 31
1, 9612, Control_c, 0, 64, 0
1, 9727, Control_c, 0, 64, 127
1, 9840, Tempo, 1318681
1, 9840, Note_on_c, 0, 45, 0
1, 9840, Note_on_c, 0, 57, 0
1, 9840, Note_on_c, 0, 61, 0
1, 9840, Note_on_c, 0, 66, 0
1, 9840, Note_on_c, 0, 33, 0
1, 9840, Note_on_c, 0, 69, 0
1, 9840, Note_on_c, 0, 56, 34
1, 9840, Note_on_c, 0, 62, 34
1, 9840, Note_on_c, 0, 66, 34
1, 9840, Note_on_c, 0, 68, 41
1, 9840, Note_on_c, 0, 35, 26
1, 9840, Note_on_c, 0, 47, 31
1, 9851, Control_c, 0, 64, 0
1, 9954, Control_c, 0, 64, 127
1, 10080, Tempo, 1333333
1, 10080, Note_on_c, 0, 47, 0
1, 10080, Note_on_c, 0, 62, 0
1, 10080, Note_on_c, 0, 66, 0
1, 10080, Note_on_c, 0, 56, 0
1, 10080, Note_on_c, 0, 35, 0
1, 10080, Note_on_c, 0, 68, 0
1, 10080, Note_on_c, 0, 66, 40
1, 10080, Note_on_c, 0, 56, 40
1, 10080, Note_on_c, 0, 63, 40
1, 10080, Note_on_c, 0, 68, 48
1, 10080, Note_on_c, 0, 36, 29
1, 10080, Note_on_c, 0, 48, 35
1, 10082, Control_c, 0, 64, 0
1, 10219, Control_c, 0, 64, 127
1, 10555, Note_on_c, 0, 48, 0
1, 10555, Note_on_c, 0, 56, 0
1, 10555, Note_on_c, 0, 63, 0
1, 10555, Note_on_c, 0, 66, 0
1, 10555, Note_on_c, 0, 36, 0
1, 10555, Note_on_c, 0, 68, 0
1, 10560, Tempo, 1379310
1, 10560, Note_on_c, 0, 63, 36
1, 10560, Note_on_c, 0, 56, 36
1, 10560, Note_on_c, 0, 66, 36
1, 10560, Note_on_c, 0, 68, 43
1, 10560, Note_on_c, 0, 36, 27
1, 10560, Note_on_c, 0, 48, 32
1, 10798, Note_on_c, 0, 48, 0
1, 10798, Note_on_c, 0, 56, 0
1, 10798, Note_on_c, 0, 66, 0
1, 10798, Note_on_c, 0, 63, 0
1, 10798, Note_on_c, 0, 36, 0
1, 10798, Note_on_c, 0, 68, 0
1, 10800, Tempo, 1318681
1, 10800, Note_on_c, 0, 63, 45
1, 10800, Note_on_c, 0, 66, 45
1, 10800, Note_on_c, 0, 56, 45
1, 10800, Note_on_c, 0, 68, 53
1, 10800, Note_on_c, 0, 36, 33
1, 10800, Note_on_c, 0, 48, 40
1, 11038, Note_on_c, 0, 48, 0
1, 11038, Note_on_c, 0, 36, 0
1, 11040, Note_on_c, 0, 56, 0
1, 11040, Note_on_c, 0, 63, 0
1, 11040, Note_on_c, 0, 66, 0
1, 11040, Note_on_c, 0, 68, 0
1, 11040, Note_on_c, 0, 66, 40
1, 11040, Note_on_c, 0, 63, 40
1, 11040, Note_on_c, 0, 57, 40
1, 11040, Note_on_c, 0, 69, 49
1, 11040, Note_on_c, 0, 36, 31
1, 11040, Note_on_c, 0, 48, 37
1, 11050, Control_c, 0, 64, 0
1, 11167, Control_c, 0, 64, 127
1, 11278, Note_on_c, 0, 48, 0
1, 11278, Note_on_c, 0, 36, 0
1, 11280, Tempo, 1411765
1, 11280, Note_on_c, 0, 57, 0
1, 11280, Note_on_c, 0, 66, 0
1, 11280, Note_on_c, 0, 63, 0
1, 11280, Note_on_c, 0, 69, 0
1, 11280, Note_on_c, 0, 54, 42
1, 11280, Note_on_c, 0, 57, 42
1, 11280, Note_on_c, 0, 63, 42
1, 11280, Note_on_c, 0, 66, 52
1, 11280, Note_on_c, 0, 36, 32
1, 11280, Note_on_c, 0, 48, 39
1, 11292, Control_c, 0, 64, 0
1, 11381, Control_c, 0, 64, 127
1, 11520, Tempo, 1276596
1, 11520, Note_on_c, 0, 48, 0
1, 11520, Note_on_c, 0, 57, 0
1, 11520, Note_on_c, 0, 63, 0
1, 11520, Note_on_c, 0, 54, 0
1, 11520, Note_on_c, 0, 36, 0
1, 11520, Note_on_c, 0, 66, 0
1, 11520, Note_on_c, 0, 54, 44
1, 11520, Note_on_c, 0, 57, 44
1, 11520, Note_on_c, 0, 63, 44
1, 11520, Note_on_c, 0, 66, 53
1, 11520, Note_on_c, 0, 37, 32
1, 11520, Note_on_c, 0, 49, 39
1, 11520, Control_c, 0, 64, 0
1, 11646, Control_c, 0, 64, 127
1, 11760, Tempo, 1318681
1, 11760, Note_on_c, 0, 63, 0
1, 11760, Note_on_c, 0, 60, 45
1, 12000, Tempo, 1379310
1, 12000, Note_on_c, 0, 60, 0
1, 12000, Note_on_c, 0, 61, 46
1, 12240, Tempo, 1318681
1, 12240, Note_on_c, 0, 61, 0
1, 12240, Note_on_c, 0, 57, 0
1, 12240, Note_on_c, 0, 66, 0
1, 12240, Note_on_c, 0, 54, 0
1, 12240, Note_on_c, 0, 49, 0
1, 12240, Note_on_c, 0, 37, 0
1, 12240, Note_on_c, 0, 56, 36
1, 12240, Note_on_c, 0, 65, 55
1, 12240, Note_on_c, 0, 53, 36
1, 12240, Note_on_c, 0, 61, 46
1, 12240, Note_on_c, 0, 37, 27
1, 12240, Note_on_c, 0, 49, 32
1, 12248, Control_c, 0, 64, 0
1, 12412, Control_c, 0, 64, 127
1, 12480, Note_on_c, 0, 49, 0
1, 12480, Note_on_c, 0, 65, 0
1, 12480, Note_on_c, 0, 53, 0
1, 12480, Note_on_c, 0, 56, 0
1, 12480, Note_on_c, 0, 37, 0
1, 12480, Note_on_c, 0, 61, 0
1, 12480, Note_on_c, 0, 68, 57
1, 12480, Note_on_c, 0, 49, 31
1, 12480, Note_on_c, 0, 53, 31
1, 12480, Note_on_c, 0, 56, 37
1, 12720, Tempo, 1395349
1, 12720, Note_on_c, 0, 56, 0
1, 12720, Note_on_c, 0, 68, 0
1, 12720, Note_on_c, 0, 49, 0
1, 12720, Note_on_c, 0, 53, 0
1, 12720, Note_on_c, 0, 71, 59
1, 12720, Note_on_c, 0, 49, 31
1, 12720, Note_on_c, 0, 56, 31
1, 12720, Note_on_c, 0, 59, 37
1, 12960, Tempo, 1304348
1, 12960, Note_on_c, 0, 59, 0
1, 12960, Note_on_c, 0, 71, 0
1, 12960, Note_on_c, 0, 49, 0
1, 12960, Note_on_c, 0, 56, 0
1, 12960, Note_on_c, 0, 62, 50
1, 12960, Note_on_c, 0, 65, 50
1, 12960, Note_on_c, 0, 71, 60
1, 12960, Note_on_c, 0, 49, 36
1, 12960, Note_on_c, 0, 59, 43
1, 12960, Control_c, 0, 64, 0
1, 13052, Control_c, 0, 64, 127
1, 13200, Note_on_c, 0, 65, 0
1, 13200, Note_on_c, 0, 68, 50
1, 13440, Tempo, 1363636
1, 13440, Note_on_c, 0, 68, 0
1, 13440, Note_on_c, 0, 59, 0
1, 13440, Note_on_c, 0, 62, 0
1, 13440, Note_on_c, 0, 71, 0
1, 13440, Note_on_c, 0, 49, 0
1, 13440, Note_on_c, 0, 61, 45
1, 13440, Note_on_c, 0, 69, 50
1, 13440, Note_on_c, 0, 66, 45
1, 13440, Note_on_c, 0, 49, 28
1, 13440, Note_on_c, 0, 57, 34
1, 13451, Control_c, 0, 64, 0
1, 13520, Control_c, 0, 64, 127
1, 13678, Note_on_c, 0, 57, 0
1, 13678, Note_on_c, 0, 66, 0
1, 13678, Note_on_c, 0, 61, 0
1, 13678, Note_on_c, 0, 69, 0
1, 13678, Note_on_c, 0, 49, 0
1, 13680, Tempo, 1304348
1, 13680, Note_on_c, 0, 69, 58
1, 13680, Note_on_c, 0, 61, 48
1, 13680, Note_on_c, 0, 66, 48
1, 13680, Note_on_c, 0, 49, 36
1, 13680, Note_on_c, 0, 57, 43
1, 13692, Control_c, 0, 64, 0
1, 13749, Control_c, 0, 64, 127
1, 13920, Note_on_c, 0, 57, 0
1, 13920, Note_on_c, 0, 66, 0
1, 13920, Note_on_c, 0, 69, 0
1, 13920, Note_on_c, 0, 61, 0
1, 13920, Note_on_c, 0, 49, 0
1, 13920, Note_on_c, 0, 65, 42
1, 13920, Note_on_c, 0, 68, 51
1, 13920, Note_on_c, 0, 59, 42
1, 13920, Note_on_c, 0, 62, 42
1, 13920, Note_on_c, 0, 49, 32
1, 13920, Note_on_c, 0, 56, 38
1, 13930, Control_c, 0, 64, 0
1, 13995, Control_c, 0, 64, 127
1, 14160, Note_on_c, 0, 56, 0
1, 14160, Note_on_c, 0, 68, 0
1, 14160, Note_on_c, 0, 59, 0
1, 14160, Note_on_c, 0, 65, 0
1, 14160, Note_on_c, 0, 49, 0
1, 14160, Note_on_c, 0, 62, 0
1, 14160, Note_on_c, 0, 66, 51
1, 14160, Note_on_c, 0, 63, 42
1, 14160, Note_on_c, 0, 57, 42
1, 14160, Note_on_c, 0, 49, 32
1, 14160, Note_on_c, 0, 54, 38
1, 14166, Control_c, 0, 64, 0
1, 14217, Control_c, 0, 64, 127
1, 14280, Tempo, 1481481
1, 14280, Note_on_c, 0, 57, 0
1, 14280, Note_on_c, 0, 60, 42
1, 14400, Tempo, 1318681
1, 14400, Note_on_c, 0, 60, 0
1, 14400, Note_on_c, 0, 54, 0
1, 14400, Note_on_c, 0, 66, 0
1, 14400, Note_on_c, 0, 63, 0
1, 14400, Note_on_c, 0, 49, 0
1, 14400, Note_on_c, 0, 63, 50
1, 14400, Note_on_c, 0, 66, 60
1, 14400, Note_on_c, 0, 57, 50
1, 14400, Note_on_c, 0, 60, 50
1, 14400, Note_on_c, 0, 49, 36
1, 14400, Note_on_c, 0, 54, 43
1, 14400, Control_c, 0, 64, 0
1, 14478, Control_c, 0, 64, 127
1, 14880, Note_on_c, 0, 54, 0
1, 14880, Note_on_c, 0, 66, 0
1, 14880, Note_on_c, 0, 57, 0
1, 14880, Note_on_c, 0, 63, 0
1, 14880, Note_on_c, 0, 49, 0
1, 14880, Note_on_c, 0, 60, 0
1, 14880, Note_on_c, 0, 65, 50
1, 14880, Note_on_c, 0, 61, 45
1, 14880, Note_on_c, 0, 56, 45
1, 14880, Note_on_c, 0, 49, 28
1, 14880, Note_on_c, 0, 53, 34
1, 14886, Control_c, 0, 64, 0
1, 14993, Control_c, 0, 64, 127
1, 15120, Note_on_c, 0, 53, 0
1, 15120, Note_on_c, 0, 56, 0
1, 15120, Note_on_c, 0, 65, 0
1, 15120, Note_on_c, 0, 61, 0
1, 15120, Note_on_c, 0, 49, 0
1, 15120, Note_on_c, 0, 65, 66
1, 15120, Note_on_c, 0, 49, 36
1, 15120, Note_on_c, 0, 53, 49
1, 15132, Control_c, 0, 64, 0
1, 15226, Control_c, 0, 64, 127
1, 15360, Tempo, 1276596
1, 15360, Note_on_c, 0, 53, 0
1, 15360, Note_on_c, 0, 65, 0
1, 15360, Note_on_c, 0, 68, 60
1, 15360, Note_on_c, 0, 56, 45
1, 15600, Tempo, 1304348
1, 15600, Note_on_c, 0, 56, 0
1, 15600, Note_on_c, 0, 68, 0
1, 15600, Note_on_c, 0, 49, 0
1, 15600, Note_on_c, 0, 65, 42
1, 15600, Note_on_c, 0, 71, 63
1, 15600, Note_on_c, 0, 68, 42
1, 15600, Note_on_c, 0, 56, 32
1, 15600, Note_on_c, 0, 49, 32
1, 15600, Note_on_c, 0, 59, 38
1, 15608, Control_c, 0, 64, 0
1, 15678, Control_c, 0, 64, 127
1, 15720, Tempo, 1578947
1, 15720, Note_on_c, 0, 59, 0
1, 15720, Note_on_c, 0, 71, 0
1, 15720, Note_on_c, 0, 74, 63
1, 15720, Note_on_c, 0, 62, 38
1, 15839, Note_on_c, 0, 62, 0
1, 15839, Note_on_c, 0, 74, 0
1, 15840, Tempo, 1276596
1, 15840, Note_on_c, 0, 49, 0
1, 15840, Note_on_c, 0, 56, 0
1, 15840, Note_on_c, 0, 71, 50
1, 15840, Note_on_c, 0, 74, 72
1, 15840, Note_on_c, 0, 59, 36
1, 15840, Note_on_c, 0, 49, 36
1, 15840, Note_on_c, 0, 62, 43
1, 15840, Control_c, 0, 64, 0
1, 15918, Control_c, 0, 64, 127
1, 16080, Tempo, 1318681
1, 16080, Note_on_c, 0, 68, 0
1, 16080, Note_on_c, 0, 65, 0
1, 16080, Note_on_c, 0, 65, 36
1, 16080, Note_on_c, 0, 68, 36
1, 16320, Tempo, 1395349
1, 16320, Note_on_c, 0, 68, 0
1, 16320, Note_on_c, 0, 71, 0
1, 16320, Note_on_c, 0, 62, 0
1, 16320, Note_on_c, 0, 59, 0
1, 16320, Note_on_c, 0, 74, 0
1, 16320, Note_on_c, 0, 65, 0
1, 16320, Note_on_c, 0, 49, 0
1, 16320, Note_on_c, 0, 66, 48
1, 16320, Note_on_c, 0, 73, 54
1, 16320, Note_on_c, 0, 69, 48
1, 16320, Note_on_c, 0, 57, 31
1, 16320, Note_on_c, 0, 49, 31
1, 16320, Note_on_c, 0, 61, 37
1, 16334, Control_c, 0, 64, 0
1, 16405, Control_c, 0, 64, 127
1, 16558, Note_on_c, 0, 61, 0
1, 16558, Note_on_c, 0, 73, 0
1, 16558, Note_on_c, 0, 69, 0
1, 16558, Note_on_c, 0, 66, 0
1, 16558, Note_on_c, 0, 49, 0
1, 16558, Note_on_c, 0, 57, 0
1, 16560, Tempo, 1348315
1, 16560, Note_on_c, 0, 73, 55
1, 16560, Note_on_c, 0, 69, 46
1, 16560, Note_on_c, 0, 49, 34
1, 16560, Note_on_c, 0, 61, 41
1, 16560, Note_on_c, 0, 57, 34
1, 16680, Note_on_c, 0, 66, 46
1, 16800, Note_on_c, 0, 66, 0
1, 16800, Note_on_c, 0, 69, 0
1, 16800, Note_on_c, 0, 49, 0
1, 16800, Note_on_c, 0, 73, 0
1, 16800, Note_on_c, 0, 57, 0
1, 16800, Note_on_c, 0, 61, 0
1, 16800, Note_on_c, 0, 62, 39
1, 16800, Note_on_c, 0, 68, 39
1, 16800, Note_on_c, 0, 71, 47
1, 16800, Note_on_c, 0, 65, 39
1, 16800, Note_on_c, 0, 49, 30
1, 16800, Note_on_c, 0, 59, 36
1, 16800, Note_on_c, 0, 56, 30
1, 16814, Control_c, 0, 64, 0
1, 16892, Control_c, 0, 64, 127
1, 17040, Tempo, 1481481
1, 17040, Note_on_c, 0, 56, 0
1, 17040, Note_on_c, 0, 49, 0
1, 17040, Note_on_c, 0, 68, 0
1, 17040, Note_on_c, 0, 71, 0
1, 17040, Note_on_c, 0, 62, 0
1, 17040, Note_on_c, 0, 59, 0
1, 17040, Note_on_c, 0, 65, 0
1, 17040, Note_on_c, 0, 60, 39
1, 17040, Note_on_c, 0, 66, 39
1, 17040, Note_on_c, 0, 69, 47
1, 17040, Note_on_c, 0, 63, 39
1, 17040, Note_on_c, 0, 49, 29
1, 17040, Note_on_c, 0, 57, 35
1, 17040, Note_on_c, 0, 54, 29
1, 17053, Control_c, 0, 64, 0
1, 17118, Control_c, 0, 64, 127
1, 17278, Note_on_c, 0, 54, 0
1, 17278, Note_on_c, 0, 49, 0
1, 17278, Note_on_c, 0, 66, 0
1, 17278, Note_on_c, 0, 69, 0
1, 17278, Note_on_c, 0, 60, 0
1, 17278, Note_on_c, 0, 57, 0
1, 17278, Note_on_c, 0, 63, 0
1, 17280, Tempo, 1333333
1, 17280, Note_on_c, 0, 66, 45
1, 17280, Note_on_c, 0, 69, 54
1, 17280, Note_on_c, 0, 54, 32
1, 17280, Note_on_c, 0, 49, 32
1, 17280, Note_on_c, 0, 57, 39
1, 17280, Control_c, 0, 64, 0
1, 17440, Control_c, 0, 64, 127
1, 17520, Tempo, 1290323
1, 17520, Note_on_c, 0, 60, 44
1, 17520, Note_on_c, 0, 63, 44
1, 17760, Tempo, 1333333
1, 17760, Note_on_c, 0, 63, 0
1, 17760, Note_on_c, 0, 57, 0
1, 17760, Note_on_c, 0, 69, 0
1, 17760, Note_on_c, 0, 54, 0
1, 17760, Note_on_c, 0, 66, 0
1, 17760, Note_on_c, 0, 60, 0
1, 17760, Note_on_c, 0, 49, 0
1, 17760, Note_on_c, 0, 61, 38
1, 17760, Note_on_c, 0, 65, 38
1, 17760, Note_on_c, 0, 68, 44
1, 17760, Note_on_c, 0, 53, 25
1, 17760, Note_on_c, 0, 49, 25
1, 17760, Note_on_c, 0, 56, 29
1, 17772, Control_c, 0, 64, 0
1, 17886, Control_c, 0, 64, 127
1, 17998, Note_on_c, 0, 56, 0
1, 17998, Note_on_c, 0, 65, 0
1, 17998, Note_on_c, 0, 68, 0
1, 17998, Note_on_c, 0, 61, 0
1, 17998, Note_on_c, 0, 49, 0
1, 17998, Note_on_c, 0, 53, 0
1, 18000, Note_on_c, 0, 68, 43
1, 18000, Note_on_c, 0, 65, 35
1, 18000, Note_on_c, 0, 61, 35
1, 18000, Note_on_c, 0, 53, 26
1, 18000, Note_on_c, 0, 49, 26
1, 18000, Note_on_c, 0, 56, 31
1, 18480, Tempo, 1428571
1, 18480, Note_on_c, 0, 56, 0
1, 18480, Note_on_c, 0, 65, 0
1, 18480, Note_on_c, 0, 61, 0
1, 18480, Note_on_c, 0, 68, 0
1, 18480, Note_on_c, 0, 49, 0
1, 18480, Note_on_c, 0, 53, 0
1, 18480, Note_on_c, 0, 64, 34
1, 18480, Note_on_c, 0, 67, 39
1, 18480, Note_on_c, 0, 61, 34
1, 18480, Note_on_c, 0, 55, 21
1, 18480, Note_on_c, 0, 52, 21
1, 18480, Note_on_c, 0, 49, 21
1, 18480, Note_on_c, 0, 58, 26
1, 18487, Control_c, 0, 64, 0
1, 18583, Control_c, 0, 64, 127
1, 18660, Note_on_c, 0, 58, 0
1, 18660, Note_on_c, 0, 52, 0
1, 18660, Note_on_c, 0, 67, 0
1, 18660, Note_on_c, 0, 61, 0
1, 18660, Note_on_c, 0, 64, 0
1, 18660, Note_on_c, 0, 49, 0
1, 18660, Note_on_c, 0, 55, 0
1, 18660, Note_on_c, 0, 67, 53
1, 18671, Control_c, 0, 64, 0
1, 18700, Control_c, 0, 64, 127
1, 18720, Tempo, 1333333
1, 18720, Note_on_c, 0, 67, 0
1, 18720, Note_on_c, 0, 83, 65
1, 18720, Note_on_c, 0, 50, 32
1, 18720, Note_on_c, 0, 55, 32
1, 18730, Note_on_c, 0, 59, 43
1, 19200, Tempo, 1428571
1, 19200, Note_on_c, 0, 83, 0
1, 19200, Note_on_c, 0, 81, 62
1, 19440, Tempo, 1333333
1, 19440, Note_on_c, 0, 81, 0
1, 19440, Note_on_c, 0, 50, 0
1, 19440, Note_on_c, 0, 55, 0
1, 19440, Note_on_c, 0, 67, 55
1, 19440, Note_on_c, 0, 79, 65
1, 19440, Note_on_c, 0, 59, 30
1, 19440, Note_on_c, 0, 55, 30
1, 19440, Note_on_c, 0, 62, 36
1, 19450, Note_on_c, 0, 59, 0
1, 19452, Control_c, 0, 64, 0
1, 19614, Control_c, 0, 64, 127
1, 19920, Tempo, 1379310
1, 19920, Note_on_c, 0, 79, 0
1, 19920, Note_on_c, 0, 59, 0
1, 19920, Note_on_c, 0, 62, 0
1, 19920, Note_on_c, 0, 78, 64
1, 19920, Note_on_c, 0, 62, 30
1, 20160, Tempo, 1290323
1, 20160, Note_on_c, 0, 62, 0
1, 20160, Note_on_c, 0, 55, 0
1, 20160, Note_on_c, 0, 67, 0
1, 20160, Note_on_c, 0, 78, 0
1, 20160, Note_on_c, 0, 67, 55
1, 20160, Note_on_c, 0, 76, 65
1, 20160, Note_on_c, 0, 64, 39
1, 20160, Note_on_c, 0, 60, 33
1, 20162, Control_c, 0, 64, 0
1, 20340, Control_c, 0, 64, 127
1, 20640, Tempo, 1428571
1, 20640, Note_on_c, 0, 76, 0
1, 20640, Note_on_c, 0, 78, 63
1, 20880, Tempo, 1318681
1, 20880, Note_on_c, 0, 78, 0
1, 20880, Note_on_c, 0, 60, 0
1, 20880, Note_on_c, 0, 64, 0
1, 20880, Note_on_c, 0, 67, 0
1, 20880, Note_on_c, 0, 67, 55
1, 20880, Note_on_c, 0, 79, 65
1, 20880, Note_on_c, 0, 59, 29
1, 20880, Note_on_c, 0, 62, 35
1, 20892, Control_c, 0, 64, 0
1, 21054, Control_c, 0, 64, 127
1, 21360, Tempo, 1411765
1, 21360, Note_on_c, 0, 62, 0
1, 21360, Note_on_c, 0, 67, 0
1, 21360, Note_on_c, 0, 79, 0
1, 21360, Note_on_c, 0, 59, 0
1, 21360, Note_on_c, 0, 66, 64
1, 21360, Note_on_c, 0, 62, 32
1, 21372, Control_c, 0, 64, 0
1, 21494, Control_c, 0, 64, 127
1, 21598, Note_on_c, 0, 62, 0
1, 21598, Note_on_c, 0, 66, 0
1, 21600, Tempo, 1318681
1, 21600, Note_on_c, 0, 66, 60
1, 21600, Note_on_c, 0, 62, 35
1, 21612, Control_c, 0, 64, 0
1, 21739, Control_c, 0, 64, 127
1, 21840, Tempo, 1276596
1, 21840, Note_on_c, 0, 62, 0
1, 21840, Note_on_c, 0, 66, 0
1, 21840, Note_on_c, 0, 66, 45
1, 21840, Note_on_c, 0, 69, 53
1, 21840, Note_on_c, 0, 61, 31
1, 21852, Control_c, 0, 64, 0
1, 21967, Control_c, 0, 64, 127
1, 22080, Tempo, 1318681
1, 22080, Note_on_c, 0, 61, 0
1, 22080, Note_on_c, 0, 69, 0
1, 22080, Note_on_c, 0, 66, 0
1, 22080, Note_on_c, 0, 66, 43
1, 22080, Note_on_c, 0, 69, 43
1, 22080, Note_on_c, 0, 73, 51
1, 22080, Note_on_c, 0, 49, 26
1, 22080, Note_on_c, 0, 54, 26
1, 22080, Note_on_c, 0, 57, 26
1, 22080, Note_on_c, 0, 61, 31
1, 22320, Tempo, 1333333
1, 22320, Note_on_c, 0, 61, 0
1, 22320, Note_on_c, 0, 54, 0
1, 22320, Note_on_c, 0, 69, 0
1, 22320, Note_on_c, 0, 73, 0
1, 22320, Note_on_c, 0, 66, 0
1, 22320, Note_on_c, 0, 57, 0
1, 22320, Note_on_c, 0, 49, 0
1, 22320, Note_on_c, 0, 73, 54
1, 22320, Note_on_c, 0, 65, 45
1, 22320, Note_on_c, 0, 68, 45
1, 22320, Note_on_c, 0, 49, 29
1, 22320, Note_on_c, 0, 53, 29
1, 22320, Note_on_c, 0, 56, 29
1, 22320, Note_on_c, 0, 61, 35
1, 22322, Control_c, 0, 64, 0
1, 22459, Control_c, 0, 64, 127
1, 22795, Note_on_c, 0, 61, 0
1, 22795, Note_on_c, 0, 53, 0
1, 22795, Note_on_c, 0, 65, 0
1, 22795, Note_on_c, 0, 68, 0
1, 22795, Note_on_c, 0, 73, 0
1, 22795, Note_on_c, 0, 56, 0
1, 22795, Note_on_c, 0, 49, 0
1, 22800, Tempo, 1379310
1, 22800, Note_on_c, 0, 73, 43
1, 22800, Note_on_c, 0, 68, 36
1, 22800, Note_on_c, 0, 65, 36
1, 22800, Note_on_c, 0, 49, 27
1, 22800, Note_on_c, 0, 53, 27
1, 22800, Note_on_c, 0, 56, 27
1, 22800, Note_on_c, 0, 61, 32
1, 23038, Note_on_c, 0, 61, 0
1, 23038, Note_on_c, 0, 53, 0
1, 23038, Note_on_c, 0, 68, 0
1, 23038, Note_on_c, 0, 65, 0
1, 23038, Note_on_c, 0, 73, 0
1, 23038, Note_on_c, 0, 56, 0
1, 23038, Note_on_c, 0, 49, 0
1, 23040, Tempo, 1333333
1, 23040, Note_on_c, 0, 68, 40
1, 23040, Note_on_c, 0, 65, 40
1, 23040, Note_on_c, 0, 73, 48
1, 23040, Note_on_c, 0, 49, 29
1, 23040, Note_on_c, 0, 53, 29
1, 23040, Note_on_c, 0, 56, 29
1, 23040, Note_on_c, 0, 61, 35
1, 23520, Tempo, 1379310
1, 23520, Note_on_c, 0, 61, 0
1, 23520, Note_on_c, 0, 53, 0
1, 23520, Note_on_c, 0, 65, 0
1, 23520, Note_on_c, 0, 73, 0
1, 23520, Note_on_c, 0, 68, 0
1, 23520, Note_on_c, 0, 56, 0
1, 23520, Note_on_c, 0, 49, 0
1, 23520, Note_on_c, 0, 66, 36
1, 23520, Note_on_c, 0, 69, 43
1, 23520, Note_on_c, 0, 54, 27
1, 23520, Note_on_c, 0, 57, 27
1, 23520, Note_on_c, 0, 61, 32
1, 23524, Control_c, 0, 64, 0
1, 23626, Control_c, 0, 64, 127
1, 23758, Note_on_c, 0, 61, 0
1, 23758, Note_on_c, 0, 54, 0
1, 23758, Note_on_c, 0, 57, 0
1, 23758, Note_on_c, 0, 66, 0
1, 23758, Note_on_c, 0, 69, 0
1, 23760, Tempo, 1318681
1, 23760, Note_on_c, 0, 66, 37
1, 23760, Note_on_c, 0, 69, 47
1, 23760, Note_on_c, 0, 54, 27
1, 23760, Note_on_c, 0, 57, 27
1, 23760, Note_on_c, 0, 61, 35
1, 23998, Note_on_c, 0, 61, 0
1, 23998, Note_on_c, 0, 54, 0
1, 23998, Note_on_c, 0, 66, 0
1, 23998, Note_on_c, 0, 69, 0
1, 23998, Note_on_c, 0, 57, 0
1, 24000, Tempo, 1276596
1, 24000, Note_on_c, 0, 61, 37
1, 24000, Note_on_c, 0, 66, 45
1, 24000, Note_on_c, 0, 57, 34
1, 24240, Tempo, 1318681
1, 24240, Note_on_c, 0, 57, 0
1, 24240, Note_on_c, 0, 66, 0
1, 24240, Note_on_c, 0, 61, 0
1, 24240, Note_on_c, 0, 68, 44
1, 24240, Note_on_c, 0, 65, 44
1, 24240, Note_on_c, 0, 61, 44
1, 24240, Note_on_c, 0, 56, 33
1, 24240, Note_on_c, 0, 59, 33
1, 24245, Control_c, 0, 64, 0
1, 24360, Note_on_c, 0, 59, 0
1, 24360, Note_on_c, 0, 65, 0
1, 24360, Note_on_c, 0, 68, 0
1, 24360, Note_on_c, 0, 56, 0
1, 24360, Note_on_c, 0, 66, 47
1, 24360, Note_on_c, 0, 69, 47
1, 24360, Note_on_c, 0, 54, 38
1, 24360, Note_on_c, 0, 57, 38
1, 24480, Tempo, 1250000
1, 24480, Note_on_c, 0, 57, 0
1, 24480, Note_on_c, 0, 69, 0
1, 24480, Note_on_c, 0, 61, 0
1, 24480, Note_on_c, 0, 66, 0
1, 24480, Note_on_c, 0, 54, 0
1, 24480, Note_on_c, 0, 68, 51
1, 24480, Note_on_c, 0, 71, 51
1, 24480, Note_on_c, 0, 37, 43
1, 24720, Tempo, 1290323
1, 24720, Note_on_c, 0, 62, 50
1, 24720, Note_on_c, 0, 41, 38
1, 24960, Tempo, 1379310
1, 24960, Note_on_c, 0, 41, 0
1, 24960, Note_on_c, 0, 71, 0
1, 24960, Note_on_c, 0, 68, 0
1, 24960, Note_on_c, 0, 62, 0
1, 24960, Note_on_c, 0, 61, 47
1, 24960, Note_on_c, 0, 66, 47
1, 24960, Note_on_c, 0, 69, 58
1, 24960, Note_on_c, 0, 42, 39
1, 25200, Tempo, 1348315
1, 25200, Note_on_c, 0, 42, 0
1, 25200, Note_on_c, 0, 66, 0
1, 25200, Note_on_c, 0, 69, 0
1, 25200, Note_on_c, 0, 61, 0
1, 25200, Note_on_c, 0, 59, 51
1, 25200, Note_on_c, 0, 69, 60
1, 25200, Note_on_c, 0, 65, 51
1, 25200, Note_on_c, 0, 62, 51
1, 25200, Note_on_c, 0, 44, 42
1, 25440, Tempo, 1276596
1, 25440, Note_on_c, 0, 69, 0
1, 25440, Note_on_c, 0, 68, 57
1, 25560, Note_on_c, 0, 44, 0
1, 25560, Note_on_c, 0, 45, 45
1, 25680, Tempo, 1304348
1, 25680, Note_on_c, 0, 45, 0
1, 25680, Note_on_c, 0, 68, 0
1, 25680, Note_on_c, 0, 65, 0
1, 25680, Note_on_c, 0, 62, 0
1, 25680, Note_on_c, 0, 59, 0
1, 25680, Note_on_c, 0, 66, 54
1, 25680, Note_on_c, 0, 63, 45
1, 25680, Note_on_c, 0, 57, 45
1, 25680, Note_on_c, 0, 47, 48
1, 25800, Note_on_c, 0, 47, 0
1, 25800, Note_on_c, 0, 48, 50
1, 25920, Tempo, 1318681
1, 25920, Note_on_c, 0, 48, 0
1, 25920, Note_on_c, 0, 57, 0
1, 25920, Note_on_c, 0, 37, 0
1, 25920, Note_on_c, 0, 66, 0
1, 25920, Note_on_c, 0, 63, 0
1, 25920, Note_on_c, 0, 57, 50
1, 25920, Note_on_c, 0, 61, 50
1, 25920, Note_on_c, 0, 66, 60
1, 25920, Note_on_c, 0, 37, 36
1, 25920, Note_on_c, 0, 49, 43
1, 25920, Control_c, 0, 64, 0
1, 25998, Control_c, 0, 64, 127
1, 26160, Note_on_c, 0, 66, 0
1, 26160, Note_on_c, 0, 57, 0
1, 26160, Note_on_c, 0, 55, 50
1, 26160, Note_on_c, 0, 64, 56
1, 26171, Control_c, 0, 64, 0
1, 26246, Control_c, 0, 64, 127
1, 26400, Tempo, 1363636
1, 26400, Note_on_c, 0, 64, 0
1, 26400, Note_on_c, 0, 55, 0
1, 26400, Note_on_c, 0, 56, 50
1, 26400, Note_on_c, 0, 65, 56
1, 26412, Control_c, 0, 64, 0
1, 26486, Control_c, 0, 64, 127
1, 26638, Note_on_c, 0, 65, 0
1, 26638, Note_on_c, 0, 56, 0
1, 26640, Tempo, 1318681
1, 26640, Note_on_c, 0, 61, 0
1, 26640, Note_on_c, 0, 56, 50
1, 26640, Note_on_c, 0, 61, 50
1, 26640, Note_on_c, 0, 65, 59
1, 26760, Note_on_c, 0, 49, 0
1, 26760, Note_on_c, 0, 37, 0
1, 26760, Note_on_c, 0, 49, 45
1, 26880, Tempo, 1276596
1, 26880, Note_on_c, 0, 49, 0
1, 26880, Note_on_c, 0, 53, 45
1, 27000, Note_on_c, 0, 53, 0
1, 27000, Note_on_c, 0, 61, 0
1, 27000, Note_on_c, 0, 56, 0
1, 27000, Note_on_c, 0, 65, 0
1, 27000, Note_on_c, 0, 68, 60
1, 27000, Note_on_c, 0, 56, 45
1, 27120, Tempo, 1304348
1, 27120, Note_on_c, 0, 56, 0
1, 27120, Note_on_c, 0, 68, 0
1, 27120, Note_on_c, 0, 71, 63
1, 27120, Note_on_c, 0, 59, 38
1, 27240, Tempo, 1578947
1, 27240, Note_on_c, 0, 59, 0
1, 27240, Note_on_c, 0, 71, 0
1, 27240, Note_on_c, 0, 74, 66
1, 27240, Note_on_c, 0, 62, 38
1, 27359, Note_on_c, 0, 62, 0
1, 27359, Note_on_c, 0, 74, 0
1, 27360, Tempo, 1304348
1, 27360, Note_on_c, 0, 68, 36
1, 27360, Note_on_c, 0, 71, 50
1, 27360, Note_on_c, 0, 74, 71
1, 27360, Note_on_c, 0, 65, 36
1, 27360, Note_on_c, 0, 62, 36
1, 27360, Note_on_c, 0, 37, 36
1, 27360, Control_c, 0, 64, 0
1, 27367, Note_on_c, 0, 49, 43
1, 27438, Control_c, 0, 64, 127
1, 27600, Tempo, 1348315
1, 27600, Note_on_c, 0, 37, 0
1, 27600, Note_on_c, 0, 65, 0
1, 27600, Note_on_c, 0, 68, 0
1, 27600, Note_on_c, 0, 71, 0
1, 27600, Note_on_c, 0, 62, 0
1, 27600, Note_on_c, 0, 65, 36
1, 27600, Note_on_c, 0, 68, 36
1, 27600, Note_on_c, 0, 41, 31
1, 27600, Note_on_c, 0, 49, 31
1, 27600, Note_on_c, 0, 53, 37
1, 27607, Note_on_c, 0, 49, 0
1, 27840, Tempo, 1363636
1, 27840, Note_on_c, 0, 49, 0
1, 27840, Note_on_c, 0, 65, 0
1, 27840, Note_on_c, 0, 68, 0
1, 27840, Note_on_c, 0, 74, 0
1, 27840, Note_on_c, 0, 53, 0
1, 27840, Note_on_c, 0, 41, 0
1, 27840, Note_on_c, 0, 69, 48
1, 27840, Note_on_c, 0, 73, 54
1, 27840, Note_on_c, 0, 49, 31
1, 27840, Note_on_c, 0, 42, 31
1, 27840, Note_on_c, 0, 54, 37
1, 27854, Control_c, 0, 64, 0
1, 27925, Control_c, 0, 64, 127
1, 28080, Tempo, 1348315
1, 28080, Note_on_c, 0, 54, 0
1, 28080, Note_on_c, 0, 49, 0
1, 28080, Note_on_c, 0, 69, 0
1, 28080, Note_on_c, 0, 73, 0
1, 28080, Note_on_c, 0, 42, 0
1, 28080, Note_on_c, 0, 65, 39
1, 28080, Note_on_c, 0, 62, 39
1, 28080, Note_on_c, 0, 73, 55
1, 28080, Note_on_c, 0, 68, 39
1, 28080, Note_on_c, 0, 44, 34
1, 28080, Note_on_c, 0, 56, 41
1, 28080, Note_on_c, 0, 49, 34
1, 28091, Control_c, 0, 64, 0
1, 28200, Control_c, 0, 64, 127
1, 28320, Tempo, 1276596
1, 28320, Note_on_c, 0, 73, 0
1, 28320, Note_on_c, 0, 71, 47
1, 28440, Tempo, 1290323
1, 28440, Note_on_c, 0, 56, 0
1, 28440, Note_on_c, 0, 44, 0
1, 28440, Note_on_c, 0, 49, 0
1, 28440, Note_on_c, 0, 57, 45
1, 28440, Note_on_c, 0, 45, 38
1, 28560, Tempo, 1363636
1, 28560, Note_on_c, 0, 45, 0
1, 28560, Note_on_c, 0, 62, 0
1, 28560, Note_on_c, 0, 71, 0
1, 28560, Note_on_c, 0, 65, 0
1, 28560, Note_on_c, 0, 57, 0
1, 28560, Note_on_c, 0, 68, 0
1, 28560, Note_on_c, 0, 63, 39
1, 28560, Note_on_c, 0, 66, 39
1, 28560, Note_on_c, 0, 69, 47
1, 28560, Note_on_c, 0, 59, 48
1, 28560, Note_on_c, 0, 47, 40
1, 28573, Control_c, 0, 64, 0
1, 28638, Control_c, 0, 64, 127
1, 28680, Tempo, 1428571
1, 28680, Note_on_c, 0, 47, 0
1, 28680, Note_on_c, 0, 59, 0
1, 28680, Note_on_c, 0, 60, 50
1, 28680, Note_on_c, 0, 48, 42
1, 28800, Tempo, 1333333
1, 28800, Note_on_c, 0, 48, 0
1, 28800, Note_on_c, 0, 63, 0
1, 28800, Note_on_c, 0, 69, 0
1, 28800, Note_on_c, 0, 66, 0
1, 28800, Note_on_c, 0, 60, 0
1, 28800, Note_on_c, 0, 66, 45
1, 28800, Note_on_c, 0, 63, 44
1, 28800, Note_on_c, 0, 60, 44
1, 28800, Note_on_c, 0, 69, 54
1, 28800, Note_on_c, 0, 49, 32
1, 28800, Control_c, 0, 64, 0
1, 28960, Control_c, 0, 64, 127
1, 29040, Note_on_c, 0, 60, 0
1, 29040, Note_on_c, 0, 63, 0
1, 29040, Note_on_c, 0, 60, 39
1, 29040, Note_on_c, 0, 63, 39
1, 29040, Note_on_c, 0, 54, 28
1, 29040, Note_on_c, 0, 57, 35
1, 29280, Note_on_c, 0, 57, 0
1, 29280, Note_on_c, 0, 63, 0
1, 29280, Note_on_c, 0, 69, 0
1, 29280, Note_on_c, 0, 66, 0
1, 29280, Note_on_c, 0, 49, 0
1, 29280, Note_on_c, 0, 54, 0
1, 29280, Note_on_c, 0, 60, 0
1, 29280, Note_on_c, 0, 61, 38
1, 29280, Note_on_c, 0, 65, 38
1, 29280, Note_on_c, 0, 68, 44
1, 29280, Note_on_c, 0, 53, 25
1, 29280, Note_on_c, 0, 49, 25
1, 29280, Note_on_c, 0, 56, 29
1, 29292, Control_c, 0, 64, 0
1, 29361, Control_c, 0, 64, 127
1, 29520, Note_on_c, 0, 56, 0
1, 29520, Note_on_c, 0, 65, 0
1, 29520, Note_on_c, 0, 68, 0
1, 29520, Note_on_c, 0, 61, 0
1, 29520, Note_on_c, 0, 49, 0
1, 29520, Note_on_c, 0, 53, 0
1, 29520, Note_on_c, 0, 65, 35
1, 29520, Note_on_c, 0, 61, 35
1, 29520, Note_on_c, 0, 68, 43
1, 29520, Note_on_c, 0, 53, 26
1, 29520, Note_on_c, 0, 49, 26
1, 29520, Note_on_c, 0, 56, 31
1, 29760, Note_on_c, 0, 56, 0
1, 29760, Note_on_c, 0, 61, 0
1, 29760, Note_on_c, 0, 68, 0
1, 29760, Note_on_c, 0, 65, 0
1, 29760, Note_on_c, 0, 49, 0
1, 29760, Note_on_c, 0, 53, 0
1, 29760, Note_on_c, 0, 64, 34
1, 29760, Note_on_c, 0, 67, 39
1, 29760, Note_on_c, 0, 58, 26
1, 29760, Note_on_c, 0, 52, 21
1, 29760, Note_on_c, 0, 49, 21
1, 29760, Note_on_c, 0, 55, 21
1, 29767, Control_c, 0, 64, 0
1, 29856, Control_c, 0, 64, 127
1, 30000, Tempo, 1428571
1, 30000, Note_on_c, 0, 55, 0
1, 30000, Note_on_c, 0, 67, 0
1, 30000, Note_on_c, 0, 58, 0
1, 30000, Note_on_c, 0, 64, 0
1, 30000, Note_on_c, 0, 49, 0
1, 30000, Note_on_c, 0, 52, 0
1, 30000, Note_on_c, 0, 62, 34
1, 30000, Note_on_c, 0, 50, 21
1, 30000, Note_on_c, 0, 55, 21
1, 30000, Note_on_c, 0, 59, 26
1, 30012, Control_c, 0, 64, 0
1, 30057, Control_c, 0, 64, 127
1, 30180, Note_on_c, 0, 62, 0
1, 30180, Note_on_c, 0, 67, 53
1, 30240, Tempo, 1333333
1, 30240, Note_on_c, 0, 67, 0
1, 30240, Note_on_c, 0, 59, 0
1, 30240, Note_on_c, 0, 55, 0
1, 30240, Note_on_c, 0, 50, 0
1, 30240, Note_on_c, 0, 83, 65
1, 30240, Note_on_c, 0, 59, 43
1, 30240, Note_on_c, 0, 43, 32
1, 30240, Note_on_c, 0, 50, 32
1, 30713, Note_on_c, 0, 81, 60
1, 30720, Tempo, 1348315
1, 30720, Note_on_c, 0, 83, 0
1, 30951, Note_on_c, 0, 81, 0
1, 30960, Tempo, 1290323
1, 30960, Note_on_c, 0, 59, 0
1, 30960, Note_on_c, 0, 43, 0
1, 30960, Note_on_c, 0, 50, 0
1, 30960, Note_on_c, 0, 81, 65
1, 30960, Note_on_c, 0, 55, 30
1, 30960, Note_on_c, 0, 47, 30
1, 30960, Note_on_c, 0, 62, 36
1, 30972, Control_c, 0, 64, 0
1, 31134, Control_c, 0, 64, 127
1, 31200, Tempo, 1318681
1, 31200, Note_on_c, 0, 81, 0
1, 31200, Note_on_c, 0, 91, 65
1, 31200, Note_on_c, 0, 79, 46
1, 31440, Tempo, 1379310
1, 31440, Note_on_c, 0, 79, 0
1, 31440, Note_on_c, 0, 91, 0
1, 31440, Note_on_c, 0, 78, 54
1, 31440, Note_on_c, 0, 90, 64
1, 31678, Note_on_c, 0, 90, 0
1, 31678, Note_on_c, 0, 78, 0
1, 31680, Tempo, 1290323
1, 31680, Note_on_c, 0, 55, 0
1, 31680, Note_on_c, 0, 47, 0
1, 31680, Note_on_c, 0, 62, 0
1, 31680, Note_on_c, 0, 90, 69
1, 31680, Note_on_c, 0, 78, 58
1, 31680, Note_on_c, 0, 48, 30
1, 31680, Note_on_c, 0, 64, 42
1, 31680, Note_on_c, 0, 55, 30
1, 31682, Control_c, 0, 64, 0
1, 31860, Control_c, 0, 64, 127
1, 31920, Note_on_c, 0, 78, 0
1, 31920, Note_on_c, 0, 90, 0
1, 31920, Note_on_c, 0, 76, 56
1, 31920, Note_on_c, 0, 88, 67
1, 32160, Tempo, 1304348
1, 32160, Note_on_c, 0, 88, 0
1, 32160, Note_on_c, 0, 76, 0
1, 32160, Note_on_c, 0, 78, 60
1, 32160, Note_on_c, 0, 90, 71
1, 32398, Note_on_c, 0, 90, 0
1, 32398, Note_on_c, 0, 78, 0
1, 32400, Tempo, 1395349
1, 32400, Note_on_c, 0, 64, 0
1, 32400, Note_on_c, 0, 48, 0
1, 32400, Note_on_c, 0, 55, 0
1, 32400, Note_on_c, 0, 90, 75
1, 32400, Note_on_c, 0, 78, 63
1, 32400, Note_on_c, 0, 47, 39
1, 32400, Note_on_c, 0, 55, 39
1, 32400, Note_on_c, 0, 62, 47
1, 32412, Control_c, 0, 64, 0
1, 32640, Tempo, 1304348
1, 32640, Note_on_c, 0, 62, 0
1, 32640, Note_on_c, 0, 78, 0
1, 32640, Note_on_c, 0, 90, 0
1, 32640, Note_on_c, 0, 55, 0
1, 32640, Note_on_c, 0, 91, 72
1, 32640, Note_on_c, 0, 79, 61
1, 32640, Note_on_c, 0, 55, 35
1, 32718, Control_c, 0, 64, 127
1, 32880, Tempo, 1348315
1, 32880, Note_on_c, 0, 55, 0
1, 32880, Note_on_c, 0, 47, 0
1, 32880, Note_on_c, 0, 50, 36
1, 32880, Note_on_c, 0, 54, 43
1, 33000, Note_on_c, 0, 79, 0
1, 33000, Note_on_c, 0, 91, 0
1, 33000, Note_on_c, 0, 78, 64
1, 33000, Note_on_c, 0, 66, 57
1, 33119, Note_on_c, 0, 66, 0
1, 33119, Note_on_c, 0, 78, 0
1, 33120, Tempo, 1318681
1, 33120, Note_on_c, 0, 50, 0
1, 33120, Note_on_c, 0, 54, 0
1, 33120, Note_on_c, 0, 66, 54
1, 33120, Note_on_c, 0, 78, 54
1, 33120, Note_on_c, 0, 50, 35
1, 33120, Note_on_c, 0, 54, 35
1, 33132, Control_c, 0, 64, 0
1, 33259, Control_c, 0, 64, 127
1, 33360, Tempo, 1276596
1, 33360, Note_on_c, 0, 54, 0
1, 33360, Note_on_c, 0, 66, 0
1, 33360, Note_on_c, 0, 78, 0
1, 33360, Note_on_c, 0, 50, 0
1, 33360, Note_on_c, 0, 81, 52
1, 33360, Note_on_c, 0, 69, 52
1, 33360, Note_on_c, 0, 49, 31
1, 33360, Note_on_c, 0, 54, 31
1, 33360, Note_on_c, 0, 57, 31
1, 33372, Control_c, 0, 64, 0
1, 33487, Control_c, 0, 64, 127
1, 33600, Tempo, 1318681
1, 33600, Note_on_c, 0, 57, 0
1, 33600, Note_on_c, 0, 49, 0
1, 33600, Note_on_c, 0, 81, 0
1, 33600, Note_on_c, 0, 69, 0
1, 33600, Note_on_c, 0, 54, 0
1, 33600, Note_on_c, 0, 85, 59
1, 33600, Note_on_c, 0, 73, 59
1, 33600, Note_on_c, 0, 49, 26
1, 33600, Note_on_c, 0, 54, 26
1, 33600, Note_on_c, 0, 57, 26
1, 33600, Note_on_c, 0, 61, 31
1, 33838, Note_on_c, 0, 61, 0
1, 33838, Note_on_c, 0, 73, 0
1, 33838, Note_on_c, 0, 49, 0
1, 33838, Note_on_c, 0, 85, 0
1, 33838, Note_on_c, 0, 57, 0
1, 33838, Note_on_c, 0, 54, 0
1, 33840, Tempo, 1333333
1, 33840, Note_on_c, 0, 73, 62
1, 33840, Note_on_c, 0, 85, 62
1, 33840, Note_on_c, 0, 49, 31
1, 33840, Note_on_c, 0, 53, 31
1, 33840, Note_on_c, 0, 56, 31
1, 33840, Note_on_c, 0, 61, 38
1, 33842, Control_c, 0, 64, 0
1, 33979, Control_c, 0, 64, 127
1, 34320, Tempo, 1379310
1, 34320, Note_on_c, 0, 61, 0
1, 34320, Note_on_c, 0, 85, 0
1, 34320, Note_on_c, 0, 49, 0
1, 34320, Note_on_c, 0, 73, 0
1, 34320, Note_on_c, 0, 56, 0
1, 34320, Note_on_c, 0, 53, 0
1, 34320, Note_on_c, 0, 85, 57
1, 34320, Note_on_c, 0, 73, 57
1, 34320, Note_on_c, 0, 54, 27
1, 34320, Note_on_c, 0, 57, 27
1, 34320, Note_on_c, 0, 61, 32
1, 34322, Control_c, 0, 64, 0
1, 34558, Note_on_c, 0, 61, 0
1, 34558, Note_on_c, 0, 54, 0
1, 34558, Note_on_c, 0, 85, 0
1, 34558, Note_on_c, 0, 73, 0
1, 34558, Note_on_c, 0, 57, 0
1, 34560, Tempo, 1318681
1, 34560, Note_on_c, 0, 85, 63
1, 34560, Note_on_c, 0, 73, 53
1, 34560, Note_on_c, 0, 57, 33
1, 34560, Note_on_c, 0, 54, 33
1, 34560, Note_on_c, 0, 61, 39
1, 34572, Control_c, 0, 64, 0
1, 34699, Control_c, 0, 64, 127
1, 34800, Tempo, 1276596
1, 34800, Note_on_c, 0, 61, 0
1, 34800, Note_on_c, 0, 57, 0
1, 34800, Note_on_c, 0, 85, 0
1, 34800, Note_on_c, 0, 73, 0
1, 34800, Note_on_c, 0, 54, 0
1, 34800, Note_on_c, 0, 74, 52
1, 34800, Note_on_c, 0, 86, 62
1, 34800, Note_on_c, 0, 47, 26
1, 34800, Note_on_c, 0, 62, 34
1, 34812, Control_c, 0, 64, 0
1, 34927, Control_c, 0, 64, 127
1, 35040, Tempo, 1318681
1, 35040, Note_on_c, 0, 62, 0
1, 35040, Note_on_c, 0, 74, 0
1, 35040, Note_on_c, 0, 86, 0
1, 35040, Note_on_c, 0, 67, 47
1, 35040, Note_on_c, 0, 79, 56
1, 35040, Note_on_c, 0, 55, 31
1, 35280, Tempo, 1318681
1, 35280, Note_on_c, 0, 55, 0
1, 35280, Note_on_c, 0, 47, 0
1, 35280, Note_on_c, 0, 67, 0
1, 35280, Note_on_c, 0, 79, 0
1, 35280, Note_on_c, 0, 83, 63
1, 35280, Note_on_c, 0, 71, 53
1, 35280, Note_on_c, 0, 59, 39
1, 35292, Control_c, 0, 64, 0
1, 35419, Control_c, 0, 64, 127
1, 35520, Tempo, 1276596
1, 35520, Note_on_c, 0, 59, 0
1, 35520, Note_on_c, 0, 71, 0
1, 35520, Note_on_c, 0, 83, 0
1, 35520, Note_on_c, 0, 61, 48
1, 35520, Note_on_c, 0, 73, 57
1, 35520, Note_on_c, 0, 37, 26
1, 35520, Note_on_c, 0, 49, 31
1, 35532, Control_c, 0, 64, 0
1, 35647, Control_c, 0, 64, 127
1, 35760, Tempo, 1318681
1, 35760, Note_on_c, 0, 37, 0
1, 35760, Note_on_c, 0, 61, 0
1, 35760, Note_on_c, 0, 73, 0
1, 35760, Note_on_c, 0, 65, 47
1, 35760, Note_on_c, 0, 77, 56
1, 35760, Note_on_c, 0, 53, 31
1, 36000, Tempo, 1395349
1, 36000, Note_on_c, 0, 53, 0
1, 36000, Note_on_c, 0, 49, 0
1, 36000, Note_on_c, 0, 65, 0
1, 36000, Note_on_c, 0, 77, 0
1, 36000, Note_on_c, 0, 78, 63
1, 36000, Note_on_c, 0, 66, 53
1, 36000, Note_on_c, 0, 49, 33
1, 36000, Note_on_c, 0, 42, 33
1, 36000, Note_on_c, 0, 54, 39
1, 36012, Control_c, 0, 64, 0
1, 36139, Control_c, 0, 64, 127
1, 36240, Tempo, 1276596
1, 36240, Note_on_c, 0, 54, 0
1, 36240, Note_on_c, 0, 49, 0
1, 36240, Note_on_c, 0, 78, 0
1, 36240, Note_on_c, 0, 66, 0
1, 36240, Note_on_c, 0, 42, 0
1, 36240, Note_on_c, 0, 73, 57
1, 36240, Note_on_c, 0, 85, 68
1, 36240, Note_on_c, 0, 49, 31
1, 36240, Note_on_c, 0, 41, 31
1, 36240, Note_on_c, 0, 56, 37
1, 36252, Control_c, 0, 64, 0
1, 36367, Control_c, 0, 64, 127
1, 36480, Tempo, 1318681
1, 36600, Note_on_c, 0, 85, 0
1, 36600, Note_on_c, 0, 73, 0
1, 36600, Note_on_c, 0, 68, 41
1, 36600, Note_on_c, 0, 80, 49
1, 36720, Tempo, 1463415
1, 36720, Note_on_c, 0, 80, 0
1, 36720, Note_on_c, 0, 41, 0
1, 36720, Note_on_c, 0, 56, 0
1, 36720, Note_on_c, 0, 49, 0
1, 36720, Note_on_c, 0, 68, 0
1, 36720, Note_on_c, 0, 81, 53
1, 36720, Note_on_c, 0, 69, 45
1, 36720, Note_on_c, 0, 49, 28
1, 36720, Note_on_c, 0, 42, 28
1, 36720, Note_on_c, 0, 54, 33
1, 36732, Control_c, 0, 64, 0
1, 36859, Control_c, 0, 64, 127
1, 36960, Tempo, 1276596
1, 36960, Note_on_c, 0, 54, 0
1, 36960, Note_on_c, 0, 49, 0
1, 36960, Note_on_c, 0, 81, 0
1, 36960, Note_on_c, 0, 69, 0
1, 36960, Note_on_c, 0, 42, 0
1, 36960, Note_on_c, 0, 69, 45
1, 36960, Note_on_c, 0, 81, 54
1, 36960, Note_on_c, 0, 49, 20
1, 36960, Note_on_c, 0, 57, 32
1, 36972, Control_c, 0, 64, 0
1, 37087, Control_c, 0, 64, 127
1, 37200, Tempo, 1318681
1, 37320, Note_on_c, 0, 57, 0
1, 37320, Note_on_c, 0, 69, 0
1, 37320, Note_on_c, 0, 81, 0
1, 37320, Note_on_c, 0, 65, 37
1, 37320, Note_on_c, 0, 77, 44
1, 37320, Note_on_c, 0, 53, 22
1, 37440, Tempo, 1318681
1, 37440, Note_on_c, 0, 53, 0
1, 37440, Note_on_c, 0, 49, 0
1, 37440, Note_on_c, 0, 65, 0
1, 37440, Note_on_c, 0, 77, 0
1, 37440, Control_c, 0, 64, 0
1, 37680, Tempo, 1379310
1, 37680, Note_on_c, 0, 42, 26
1, 37716, Control_c, 0, 64, 127
1, 37800, Note_on_c, 0, 42, 0
1, 37920, Tempo, 1304348
1, 37920, Note_on_c, 0, 61, 26
1, 37920, Note_on_c, 0, 57, 20
1, 37920, Note_on_c, 0, 54, 20
1, 37920, Note_on_c, 0, 49, 20
1, 38040, Note_on_c, 0, 49, 0
1, 38040, Note_on_c, 0, 61, 0
1, 38040, Note_on_c, 0, 57, 0
1, 38040, Note_on_c, 0, 54, 0
1, 38160, Tempo, 1318681
1, 38160, Note_on_c, 0, 61, 31
1, 38160, Note_on_c, 0, 57, 24
1, 38160, Note_on_c, 0, 54, 24
1, 38160, Note_on_c, 0, 49, 24
1, 38280, Note_on_c, 0, 49, 0
1, 38280, Note_on_c, 0, 61, 0
1, 38280, Note_on_c, 0, 57, 0
1, 38280, Note_on_c, 0, 54, 0
1, 38400, Tempo, 1379310
1, 38400, Note_on_c, 0, 42, 26
1, 38520, Note_on_c, 0, 42, 0
1, 38640, Tempo, 1290323
1, 38640, Note_on_c, 0, 61, 26
1, 38640, Note_on_c, 0, 57, 20
1, 38640, Note_on_c, 0, 54, 20
1, 38640, Note_on_c, 0, 49, 20
1, 38760, Note_on_c, 0, 49, 0
1, 38760, Note_on_c, 0, 61, 0
1, 38760, Note_on_c, 0, 57, 0
1, 38760, Note_on_c, 0, 54, 0
1, 38760, Note_on_c, 0, 73, 44
1, 38880, Tempo, 1333333
1, 38880, Note_on_c, 0, 49, 23
1, 38880, Note_on_c, 0, 54, 23
1, 38880, Note_on_c, 0, 57, 23
1, 38880, Note_on_c, 0, 61, 29
1, 38880, Control_c, 0, 64, 0
1, 38958, Control_c, 0, 64, 127
1, 38998, Note_on_c, 0, 73, 0
1, 39000, Note_on_c, 0, 57, 0
1, 39000, Note_on_c, 0, 49, 0
1, 39000, Note_on_c, 0, 54, 0
1, 39000, Note_on_c, 0, 61, 0
1, 39000, Note_on_c, 0, 73, 44
1, 39120, Note_on_c, 0, 42, 26
1, 39238, Note_on_c, 0, 73, 0
1, 39240, Note_on_c, 0, 42, 0
1, 39240, Note_on_c, 0, 73, 44
1, 39360, Note_on_c, 0, 78, 55
1, 39360, Note_on_c, 0, 61, 26
1, 39360, Note_on_c, 0, 57, 20
1, 39360, Note_on_c, 0, 54, 20
1, 39360, Note_on_c, 0, 49, 20
1, 39478, Note_on_c, 0, 73, 0
1, 39480, Note_on_c, 0, 61, 0
1, 39480, Note_on_c, 0, 57, 0
1, 39480, Note_on_c, 0, 54, 0
1, 39480, Note_on_c, 0, 49, 0
1, 39480, Note_on_c, 0, 73, 44
1, 39598, Note_on_c, 0, 78, 0
1, 39600, Note_on_c, 0, 78, 63
1, 39600, Note_on_c, 0, 49, 24
1, 39600, Note_on_c, 0, 54, 24
1, 39600, Note_on_c, 0, 57, 24
1, 39600, Note_on_c, 0, 61, 30
1, 39718, Note_on_c, 0, 73, 0
1, 39720, Note_on_c, 0, 49, 0
1, 39720, Note_on_c, 0, 54, 0
1, 39720, Note_on_c, 0, 57, 0
1, 39720, Note_on_c, 0, 61, 0
1, 39720, Note_on_c, 0, 73, 44
1, 39840, Tempo, 1318681
1, 39840, Note_on_c, 0, 78, 0
1, 39840, Note_on_c, 0, 81, 63
1, 39840, Note_on_c, 0, 42, 26
1, 39958, Note_on_c, 0, 73, 0
1, 39960, Note_on_c, 0, 42, 0
1, 39960, Note_on_c, 0, 73, 48
1, 40080, Tempo, 1379310
1, 40080, Note_on_c, 0, 81, 0
1, 40080, Note_on_c, 0, 85, 68
1, 40080, Note_on_c, 0, 61, 26
1, 40080, Note_on_c, 0, 57, 20
1, 40080, Note_on_c, 0, 54, 20
1, 40080, Note_on_c, 0, 49, 20
1, 40198, Note_on_c, 0, 73, 0
1, 40200, Note_on_c, 0, 61, 0
1, 40200, Note_on_c, 0, 57, 0
1, 40200, Note_on_c, 0, 54, 0
1, 40200, Note_on_c, 0, 49, 0
1, 40200, Note_on_c, 0, 73, 50
1, 40318, Note_on_c, 0, 85, 0
1, 40320, Tempo, 1318681
1, 40320, Note_on_c, 0, 73, 0
1, 40320, Note_on_c, 0, 85, 71
1, 40320, Note_on_c, 0, 53, 23
1, 40320, Note_on_c, 0, 49, 23
1, 40320, Note_on_c, 0, 56, 23
1, 40320, Note_on_c, 0, 59, 23
1, 40320, Note_on_c, 0, 61, 29
1, 40320, Control_c, 0, 64, 0
1, 40415, Control_c, 0, 64, 127
1, 40440, Note_on_c, 0, 61, 0
1, 40440, Note_on_c, 0, 53, 0
1, 40440, Note_on_c, 0, 49, 0
1, 40440, Note_on_c, 0, 56, 0
1, 40440, Note_on_c, 0, 59, 0
1, 40440, Note_on_c, 0, 77, 52
1, 40440, Note_on_c, 0, 83, 52
1, 40560, Note_on_c, 0, 44, 26
1, 40678, Note_on_c, 0, 83, 0
1, 40678, Note_on_c, 0, 77, 0
1, 40680, Tempo, 1445783
1, 40680, Note_on_c, 0, 44, 0
1, 40680, Note_on_c, 0, 77, 37
1, 40680, Note_on_c, 0, 83, 44
1, 40800, Tempo, 1318681
1, 40800, Note_on_c, 0, 85, 0
1, 40800, Note_on_c, 0, 88, 75
1, 40800, Note_on_c, 0, 62, 26
1, 40800, Note_on_c, 0, 59, 20
1, 40800, Note_on_c, 0, 56, 20
1, 40800, Note_on_c, 0, 53, 20
1, 40812, Control_c, 0, 64, 0
1, 40842, Control_c, 0, 64, 127
1, 40920, Note_on_c, 0, 53, 0
1, 40920, Note_on_c, 0, 59, 0
1, 40920, Note_on_c, 0, 83, 0
1, 40920, Note_on_c, 0, 88, 0
1, 40920, Note_on_c, 0, 77, 0
1, 40920, Note_on_c, 0, 56, 0
1, 40920, Note_on_c, 0, 62, 0
1, 40920, Note_on_c, 0, 86, 67
1, 41040, Note_on_c, 0, 86, 0
1, 41040, Note_on_c, 0, 86, 73
1, 41040, Note_on_c, 0, 53, 24
1, 41040, Note_on_c, 0, 56, 24
1, 41040, Note_on_c, 0, 59, 24
1, 41040, Note_on_c, 0, 62, 30
1, 41048, Control_c, 0, 64, 0
1, 41102, Control_c, 0, 64, 127
1, 41160, Note_on_c, 0, 62, 0
1, 41160, Note_on_c, 0, 56, 0
1, 41160, Note_on_c, 0, 59, 0
1, 41160, Note_on_c, 0, 53, 0
1, 41160, Note_on_c, 0, 71, 44
1, 41280, Note_on_c, 0, 86, 0
1, 41280, Note_on_c, 0, 77, 64
1, 41280, Note_on_c, 0, 44, 26
1, 41398, Note_on_c, 0, 71, 0
1, 41400, Note_on_c, 0, 44, 0
1, 41400, Note_on_c, 0, 71, 44
1, 41520, Note_on_c, 0, 77, 0
1, 41520, Note_on_c, 0, 83, 64
1, 41520, Note_on_c, 0, 62, 26
1, 41520, Note_on_c, 0, 59, 20
1, 41520, Note_on_c, 0, 56, 20
1, 41520, Note_on_c, 0, 53, 20
1, 41638, Note_on_c, 0, 71, 0
1, 41640, Note_on_c, 0, 62, 0
1, 41640, Note_on_c, 0, 59, 0
1, 41640, Note_on_c, 0, 56, 0
1, 41640, Note_on_c, 0, 53, 0
1, 41640, Note_on_c, 0, 71, 44
1, 41760, Tempo, 1379310
1, 41760, Note_on_c, 0, 83, 0
1, 41760, Note_on_c, 0, 83, 74
1, 41760, Note_on_c, 0, 53, 23
1, 41760, Note_on_c, 0, 56, 23
1, 41760, Note_on_c, 0, 59, 23
1, 41760, Note_on_c, 0, 62, 29
1, 41760, Control_c, 0, 64, 0
1, 41852, Control_c, 0, 64, 127
1, 41880, Note_on_c, 0, 62, 0
1, 41880, Note_on_c, 0, 71, 0
1, 41880, Note_on_c, 0, 53, 0
1, 41880, Note_on_c, 0, 56, 0
1, 41880, Note_on_c, 0, 59, 0
1, 41880, Note_on_c, 0, 65, 44
1, 42000, Tempo, 1318681
1, 42000, Note_on_c, 0, 83, 0
1, 42000, Note_on_c, 0, 71, 55
1, 42000, Note_on_c, 0, 44, 26
1, 42118, Note_on_c, 0, 65, 0
1, 42120, Tempo, 1395349
1, 42120, Note_on_c, 0, 44, 0
1, 42120, Note_on_c, 0, 65, 39
1, 42240, Tempo, 1304348
1, 42240, Note_on_c, 0, 71, 0
1, 42240, Note_on_c, 0, 73, 63
1, 42240, Note_on_c, 0, 62, 26
1, 42240, Note_on_c, 0, 59, 20
1, 42240, Note_on_c, 0, 56, 20
1, 42240, Note_on_c, 0, 53, 20
1, 42358, Note_on_c, 0, 65, 0
1, 42360, Note_on_c, 0, 62, 0
1, 42360, Note_on_c, 0, 59, 0
1, 42360, Note_on_c, 0, 73, 0
1, 42360, Note_on_c, 0, 53, 0
1, 42360, Note_on_c, 0, 56, 0
1, 42360, Note_on_c, 0, 65, 37
1, 42360, Note_on_c, 0, 74, 65
1, 42479, Note_on_c, 0, 74, 0
1, 42480, Note_on_c, 0, 71, 40
1, 42480, Note_on_c, 0, 74, 66
1, 42480, Note_on_c, 0, 53, 24
1, 42480, Note_on_c, 0, 56, 24
1, 42480, Note_on_c, 0, 59, 24
1, 42480, Note_on_c, 0, 62, 30
1, 42492, Control_c, 0, 64, 0
1, 42560, Control_c, 0, 64, 127
1, 42598, Note_on_c, 0, 65, 0
1, 42600, Note_on_c, 0, 59, 0
1, 42600, Note_on_c, 0, 56, 0
1, 42600, Note_on_c, 0, 53, 0
1, 42600, Note_on_c, 0, 62, 0
1, 42600, Note_on_c, 0, 65, 37
1, 42600, Note_on_c, 0, 71, 44
1, 42720, Note_on_c, 0, 71, 0
1, 42720, Note_on_c, 0, 74, 0
1, 42720, Note_on_c, 0, 73, 63
1, 42720, Note_on_c, 0, 44, 26
1, 42838, Note_on_c, 0, 65, 0
1, 42838, Note_on_c, 0, 71, 0
1, 42840, Note_on_c, 0, 44, 0
1, 42840, Note_on_c, 0, 71, 44
1, 42840, Note_on_c, 0, 65, 37
1, 42960, Note_on_c, 0, 61, 26
1, 42960, Note_on_c, 0, 59, 20
1, 42960, Note_on_c, 0, 56, 20
1, 42960, Note_on_c, 0, 53, 20
1, 42972, Control_c, 0, 64, 0
1, 43029, Control_c, 0, 64, 127
1, 43078, Note_on_c, 0, 65, 0
1, 43078, Note_on_c, 0, 71, 0
1, 43080, Note_on_c, 0, 56, 0
1, 43080, Note_on_c, 0, 61, 0
1, 43080, Note_on_c, 0, 73, 0
1, 43080, Note_on_c, 0, 53, 0
1, 43080, Note_on_c, 0, 59, 0
1, 43080, Note_on_c, 0, 65, 37
1, 43080, Note_on_c, 0, 71, 66
1, 43200, Tempo, 1333333
1, 43200, Note_on_c, 0, 71, 0
1, 43200, Note_on_c, 0, 65, 0
1, 43200, Note_on_c, 0, 71, 63
1, 43200, Note_on_c, 0, 49, 23
1, 43200, Note_on_c, 0, 54, 23
1, 43200, Note_on_c, 0, 57, 23
1, 43200, Note_on_c, 0, 61, 29
1, 43200, Control_c, 0, 64, 0
1, 43267, Control_c, 0, 64, 127
1, 43320, Note_on_c, 0, 61, 0
1, 43320, Note_on_c, 0, 54, 0
1, 43320, Note_on_c, 0, 71, 0
1, 43320, Note_on_c, 0, 49, 0
1, 43320, Note_on_c, 0, 57, 0
1, 43320, Note_on_c, 0, 69, 54
1, 43440, Note_on_c, 0, 42, 26
1, 43560, Note_on_c, 0, 42, 0
1, 43560, Note_on_c, 0, 69, 0
1, 43560, Note_on_c, 0, 73, 63
1, 43680, Note_on_c, 0, 61, 26
1, 43680, Note_on_c, 0, 57, 20
1, 43680, Note_on_c, 0, 54, 20
1, 43680, Note_on_c, 0, 49, 20
1, 43800, Note_on_c, 0, 49, 0
1, 43800, Note_on_c, 0, 57, 0
1, 43800, Note_on_c, 0, 73, 0
1, 43800, Note_on_c, 0, 61, 0
1, 43800, Note_on_c, 0, 54, 0
1, 43800, Note_on_c, 0, 78, 67
1, 43920, Note_on_c, 0, 49, 24
1, 43920, Note_on_c, 0, 54, 24
1, 43920, Note_on_c, 0, 57, 24
1, 43920, Note_on_c, 0, 61, 30
1, 43925, Control_c, 0, 64, 0
1, 43966, Control_c, 0, 64, 127
1, 44000, Note_on_c, 0, 78, 0
1, 44000, Note_on_c, 0, 81, 66
1, 44040, Note_on_c, 0, 57, 0
1, 44040, Note_on_c, 0, 61, 0
1, 44040, Note_on_c, 0, 49, 0
1, 44040, Note_on_c, 0, 54, 0
1, 44080, Note_on_c, 0, 81, 0
1, 44080, Note_on_c, 0, 85, 67
1, 44160, Tempo, 1318681
1, 44160, Note_on_c, 0, 42, 26
1, 44240, Note_on_c, 0, 85, 0
1, 44240, Note_on_c, 0, 90, 70
1, 44280, Note_on_c, 0, 42, 0
1, 44320, Note_on_c, 0, 90, 0
1, 44320, Note_on_c, 0, 92, 71
1, 44400, Tempo, 1379310
1, 44400, Note_on_c, 0, 92, 0
1, 44400, Note_on_c, 0, 93, 75
1, 44400, Note_on_c, 0, 61, 26
1, 44400, Note_on_c, 0, 57, 20
1, 44400, Note_on_c, 0, 54, 20
1, 44400, Note_on_c, 0, 49, 20
1, 44480, Note_on_c, 0, 93, 0
1, 44480, Note_on_c, 0, 90, 73
1, 44520, Note_on_c, 0, 54, 0
1, 44520, Note_on_c, 0, 49, 0
1, 44520, Note_on_c, 0, 61, 0
1, 44520, Note_on_c, 0, 57, 0
1, 44560, Note_on_c, 0, 90, 0
1, 44560, Note_on_c, 0, 85, 63
1, 44625, Tempo, 1379310
1, 44640, Note_on_c, 0, 85, 0
1, 44640, Note_on_c, 0, 85, 68
1, 44640, Note_on_c, 0, 53, 25
1, 44640, Note_on_c, 0, 49, 25
1, 44640, Note_on_c, 0, 56, 25
1, 44640, Note_on_c, 0, 59, 25
1, 44640, Note_on_c, 0, 61, 32
1, 44640, Control_c, 0, 64, 0
1, 44664, Tempo, 1363636
1, 44680, Control_c, 0, 64, 127
1, 44683, Tempo, 1348315
1, 44700, Note_on_c, 0, 85, 0
1, 44700, Note_on_c, 0, 86, 63
1, 44702, Tempo, 1333333
1, 44741, Tempo, 1318681
1, 44760, Tempo, 1304348
1, 44760, Note_on_c, 0, 86, 0
1, 44760, Note_on_c, 0, 61, 0
1, 44760, Note_on_c, 0, 56, 0
1, 44760, Note_on_c, 0, 53, 0
1, 44760, Note_on_c, 0, 49, 0
1, 44760, Note_on_c, 0, 59, 0
1, 44760, Note_on_c, 0, 85, 59
1, 44779, Tempo, 1290323
1, 44790, Note_on_c, 0, 85, 0
1, 44790, Note_on_c, 0, 86, 60
1, 44817, Tempo, 1276596
1, 44820, Note_on_c, 0, 86, 0
1, 44820, Note_on_c, 0, 85, 62
1, 44837, Tempo, 1263158
1, 44850, Note_on_c, 0, 85, 0
1, 44850, Note_on_c, 0, 86, 63
1, 44856, Tempo, 1250000
1, 44875, Tempo, 1237113
1, 44880, Note_on_c, 0, 86, 0
1, 44880, Note_on_c, 0, 85, 64
1, 44880, Note_on_c, 0, 44, 30
1, 44910, Note_on_c, 0, 85, 0
1, 44910, Note_on_c, 0, 86, 65
1, 44940, Note_on_c, 0, 86, 0
1, 44940, Note_on_c, 0, 85, 66
1, 45000, Tempo, 1445783
1, 45000, Note_on_c, 0, 85, 0
1, 45000, Note_on_c, 0, 44, 0
1, 45000, Note_on_c, 0, 84, 69
1, 45060, Note_on_c, 0, 84, 0
1, 45060, Note_on_c, 0, 85, 71
1, 45120, Tempo, 1318681
1, 45120, Note_on_c, 0, 85, 0
1, 45120, Note_on_c, 0, 88, 74
1, 45120, Note_on_c, 0, 62, 32
1, 45120, Note_on_c, 0, 59, 24
1, 45120, Note_on_c, 0, 56, 24
1, 45120, Note_on_c, 0, 53, 24
1, 45125, Control_c, 0, 64, 0
1, 45166, Control_c, 0, 64, 127
1, 45200, Note_on_c, 0, 88, 0
1, 45200, Note_on_c, 0, 85, 69
1, 45240, Tempo, 1379310
1, 45240, Note_on_c, 0, 56, 0
1, 45240, Note_on_c, 0, 53, 0
1, 45240, Note_on_c, 0, 62, 0
1, 45240, Note_on_c, 0, 59, 0
1, 45280, Note_on_c, 0, 85, 0
1, 45280, Note_on_c, 0, 86, 70
1, 45359, Note_on_c, 0, 86, 0
1, 45360, Tempo, 1318681
1, 45360, Note_on_c, 0, 86, 76
1, 45360, Note_on_c, 0, 53, 28
1, 45360, Note_on_c, 0, 56, 28
1, 45360, Note_on_c, 0, 59, 28
1, 45360, Note_on_c, 0, 62, 35
1, 45386, Control_c, 0, 64, 0
1, 45432, Control_c, 0, 64, 127
1, 45440, Note_on_c, 0, 86, 0
1, 45440, Note_on_c, 0, 76, 62
1, 45480, Note_on_c, 0, 59, 0
1, 45480, Note_on_c, 0, 62, 0
1, 45480, Note_on_c, 0, 53, 0
1, 45480, Note_on_c, 0, 56, 0
1, 45520, Note_on_c, 0, 76, 0
1, 45520, Note_on_c, 0, 77, 62
1, 45600, Note_on_c, 0, 77, 0
1, 45600, Note_on_c, 0, 77, 70
1, 45600, Note_on_c, 0, 44, 29
1, 45612, Control_c, 0, 64, 0
1, 45640, Control_c, 0, 64, 127
1, 45680, Note_on_c, 0, 77, 0
1, 45680, Note_on_c, 0, 86, 59
1, 45720, Tempo, 1411765
1, 45720, Note_on_c, 0, 44, 0
1, 45760, Note_on_c, 0, 86, 0
1, 45760, Note_on_c, 0, 85, 60
1, 45839, Note_on_c, 0, 85, 0
1, 45840, Tempo, 1318681
1, 45840, Note_on_c, 0, 85, 67
1, 45840, Note_on_c, 0, 62, 28
1, 45840, Note_on_c, 0, 59, 21
1, 45840, Note_on_c, 0, 56, 21
1, 45840, Note_on_c, 0, 53, 21
1, 45852, Control_c, 0, 64, 0
1, 45883, Control_c, 0, 64, 127
1, 45920, Note_on_c, 0, 85, 0
1, 45920, Note_on_c, 0, 82, 58
1, 45960, Note_on_c, 0, 56, 0
1, 45960, Note_on_c, 0, 53, 0
1, 45960, Note_on_c, 0, 62, 0
1, 45960, Note_on_c, 0, 59, 0
1, 46000, Note_on_c, 0, 82, 0
1, 46000, Note_on_c, 0, 83, 53
1, 46079, Note_on_c, 0, 83, 0
1, 46080, Tempo, 1379310
1, 46080, Note_on_c, 0, 83, 59
1, 46080, Note_on_c, 0, 53, 23
1, 46080, Note_on_c, 0, 56, 23
1, 46080, Note_on_c, 0, 59, 23
1, 46080, Note_on_c, 0, 62, 29
1, 46080, Control_c, 0, 64, 0
1, 46132, Control_c, 0, 64, 127
1, 46140, Note_on_c, 0, 83, 0
1, 46140, Note_on_c, 0, 65, 46
1, 46200, Note_on_c, 0, 65, 0
1, 46200, Note_on_c, 0, 62, 0
1, 46200, Note_on_c, 0, 53, 0
1, 46200, Note_on_c, 0, 56, 0
1, 46200, Note_on_c, 0, 59, 0
1, 46200, Note_on_c, 0, 66, 47
1, 46260, Note_on_c, 0, 66, 0
1, 46260, Note_on_c, 0, 68, 48
1, 46320, Tempo, 1318681
1, 46320, Note_on_c, 0, 68, 0
1, 46320, Note_on_c, 0, 69, 49
1, 46320, Note_on_c, 0, 44, 29
1, 46380, Note_on_c, 0, 69, 0
1, 46380, Note_on_c, 0, 70, 50
1, 46440, Tempo, 1395349
1, 46440, Note_on_c, 0, 70, 0
1, 46440, Note_on_c, 0, 44, 0
1, 46440, Note_on_c, 0, 71, 51
1, 46500, Note_on_c, 0, 71, 0
1, 46500, Note_on_c, 0, 72, 52
1, 46560, Tempo, 1304348
1, 46560, Note_on_c, 0, 72, 0
1, 46560, Note_on_c, 0, 73, 54
1, 46560, Note_on_c, 0, 62, 31
1, 46560, Note_on_c, 0, 59, 24
1, 46560, Note_on_c, 0, 56, 24
1, 46560, Note_on_c, 0, 53, 24
1, 46567, Control_c, 0, 64, 0
1, 46609, Control_c, 0, 64, 127
1, 46640, Note_on_c, 0, 73, 0
1, 46640, Note_on_c, 0, 74, 55
1, 46680, Note_on_c, 0, 56, 0
1, 46680, Note_on_c, 0, 53, 0
1, 46680, Note_on_c, 0, 62, 0
1, 46680, Note_on_c, 0, 59, 0
1, 46720, Note_on_c, 0, 74, 0
1, 46720, Note_on_c, 0, 75, 57
1, 46797, Control_c, 0, 64, 0
1, 46800, Note_on_c, 0, 75, 0
1, 46800, Note_on_c, 0, 76, 58
1, 46800, Note_on_c, 0, 53, 28
1, 46800, Note_on_c, 0, 56, 28
1, 46800, Note_on_c, 0, 59, 28
1, 46800, Note_on_c, 0, 62, 35
1, 46840, Control_c, 0, 64, 127
1, 46880, Note_on_c, 0, 76, 0
1, 46880, Note_on_c, 0, 73, 60
1, 46920, Note_on_c, 0, 59, 0
1, 46920, Note_on_c, 0, 62, 0
1, 46920, Note_on_c, 0, 53, 0
1, 46920, Note_on_c, 0, 56, 0
1, 46960, Note_on_c, 0, 73, 0
1, 46960, Note_on_c, 0, 74, 61
1, 47039, Note_on_c, 0, 74, 0
1, 47040, Note_on_c, 0, 74, 64
1, 47040, Note_on_c, 0, 44, 32
1, 47047, Control_c, 0, 64, 0
1, 47086, Control_c, 0, 64, 127
1, 47100, Note_on_c, 0, 74, 0
1, 47100, Note_on_c, 0, 83, 62
1, 47160, Note_on_c, 0, 83, 0
1, 47160, Note_on_c, 0, 44, 0
1, 47160, Note_on_c, 0, 80, 56
1, 47220, Note_on_c, 0, 80, 0
1, 47220, Note_on_c, 0, 77, 56
1, 47280, Note_on_c, 0, 77, 0
1, 47280, Note_on_c, 0, 74, 62
1, 47280, Note_on_c, 0, 61, 32
1, 47280, Note_on_c, 0, 59, 25
1, 47280, Note_on_c, 0, 56, 25
1, 47280, Note_on_c, 0, 53, 25
1, 47340, Note_on_c, 0, 74, 0
1, 47340, Note_on_c, 0, 72, 57
1, 47400, Note_on_c, 0, 72, 0
1, 47400, Note_on_c, 0, 53, 0
1, 47400, Note_on_c, 0, 61, 0
1, 47400, Note_on_c, 0, 59, 0
1, 47400, Note_on_c, 0, 56, 0
1, 47400, Note_on_c, 0, 74, 55
1, 47460, Note_on_c, 0, 74, 0
1, 47460, Note_on_c, 0, 73, 55
1, 47520, Tempo, 1333333
1, 47520, Note_on_c, 0, 73, 0
1, 47520, Note_on_c, 0, 73, 57
1, 47520, Note_on_c, 0, 54, 28
1, 47520, Note_on_c, 0, 57, 28
1, 47520, Note_on_c, 0, 61, 36
1, 47520, Control_c, 0, 64, 0
1, 47595, Control_c, 0, 64, 127
1, 47640, Note_on_c, 0, 61, 0
1, 47640, Note_on_c, 0, 57, 0
1, 47640, Note_on_c, 0, 54, 0
1, 47640, Note_on_c, 0, 66, 48
1, 47760, Note_on_c, 0, 73, 0
1, 47760, Note_on_c, 0, 78, 62
1, 47760, Note_on_c, 0, 45, 32
1, 47878, Note_on_c, 0, 66, 0
1, 47880, Note_on_c, 0, 45, 0
1, 47880, Note_on_c, 0, 66, 48
1, 48000, Note_on_c, 0, 61, 32
1, 48000, Note_on_c, 0, 57, 25
1, 48000, Note_on_c, 0, 54, 25
1, 48120, Note_on_c, 0, 54, 0
1, 48120, Note_on_c, 0, 61, 0
1, 48120, Note_on_c, 0, 78, 0
1, 48120, Note_on_c, 0, 66, 0
1, 48120, Note_on_c, 0, 57, 0
1, 48120, Note_on_c, 0, 73, 56
1, 48240, Note_on_c, 0, 73, 0
1, 48240, Note_on_c, 0, 74, 62
1, 48240, Note_on_c, 0, 53, 30
1, 48240, Note_on_c, 0, 56, 30
1, 48240, Note_on_c, 0, 59, 30
1, 48240, Note_on_c, 0, 62, 37
1, 48251, Control_c, 0, 64, 0
1, 48343, Control_c, 0, 64, 127
1, 48360, Note_on_c, 0, 62, 0
1, 48360, Note_on_c, 0, 56, 0
1, 48360, Note_on_c, 0, 59, 0
1, 48360, Note_on_c, 0, 53, 0
1, 48360, Note_on_c, 0, 71, 43
1, 48360, Note_on_c, 0, 65, 36
1, 48480, Tempo, 1318681
1, 48480, Note_on_c, 0, 44, 32
1, 48598, Note_on_c, 0, 65, 0
1, 48598, Note_on_c, 0, 71, 0
1, 48600, Note_on_c, 0, 44, 0
1, 48600, Note_on_c, 0, 65, 36
1, 48600, Note_on_c, 0, 71, 43
1, 48720, Tempo, 1379310
1, 48720, Note_on_c, 0, 74, 0
1, 48720, Note_on_c, 0, 73, 56
1, 48720, Note_on_c, 0, 61, 32
1, 48720, Note_on_c, 0, 59, 25
1, 48720, Note_on_c, 0, 56, 25
1, 48720, Note_on_c, 0, 53, 25
1, 48733, Control_c, 0, 64, 0
1, 48795, Control_c, 0, 64, 127
1, 48838, Note_on_c, 0, 71, 0
1, 48838, Note_on_c, 0, 65, 0
1, 48840, Note_on_c, 0, 56, 0
1, 48840, Note_on_c, 0, 59, 0
1, 48840, Note_on_c, 0, 61, 0
1, 48840, Note_on_c, 0, 53, 0
1, 48840, Note_on_c, 0, 65, 36
1, 48840, Note_on_c, 0, 71, 43
1, 48960, Tempo, 1333333
1, 48960, Note_on_c, 0, 71, 0
1, 48960, Note_on_c, 0, 65, 0
1, 48960, Note_on_c, 0, 73, 0
1, 48960, Note_on_c, 0, 73, 62
1, 48960, Note_on_c, 0, 54, 28
1, 48960, Note_on_c, 0, 57, 28
1, 48960, Note_on_c, 0, 61, 36
1, 48960, Control_c, 0, 64, 0
1, 49020, Control_c, 0, 64, 127
1, 49040, Note_on_c, 0, 73, 0
1, 49040, Note_on_c, 0, 85, 57
1, 49080, Note_on_c, 0, 54, 0
1, 49080, Note_on_c, 0, 61, 0
1, 49080, Note_on_c, 0, 57, 0
1, 49120, Note_on_c, 0, 85, 0
1, 49120, Note_on_c, 0, 80, 57
1, 49186, Tempo, 1290323
1, 49200, Note_on_c, 0, 80, 0
1, 49200, Note_on_c, 0, 83, 63
1, 49200, Note_on_c, 0, 45, 32
1, 49260, Note_on_c, 0, 83, 0
1, 49260, Note_on_c, 0, 81, 65
1, 49320, Note_on_c, 0, 81, 0
1, 49320, Note_on_c, 0, 45, 0
1, 49320, Note_on_c, 0, 77, 68
1, 49380, Note_on_c, 0, 77, 0
1, 49380, Note_on_c, 0, 78, 70
1, 49440, Note_on_c, 0, 78, 0
1, 49440, Note_on_c, 0, 80, 71
1, 49440, Note_on_c, 0, 49, 25
1, 49440, Note_on_c, 0, 61, 32
1, 49440, Note_on_c, 0, 57, 25
1, 49440, Note_on_c, 0, 54, 25
1, 49500, Note_on_c, 0, 80, 0
1, 49500, Note_on_c, 0, 78, 70
1, 49560, Note_on_c, 0, 78, 0
1, 49560, Note_on_c, 0, 54, 0
1, 49560, Note_on_c, 0, 49, 0
1, 49560, Note_on_c, 0, 61, 0
1, 49560, Note_on_c, 0, 57, 0
1, 49560, Note_on_c, 0, 81, 68
1, 49600, Note_on_c, 0, 81, 0
1, 49600, Note_on_c, 0, 78, 67
1, 49628, Tempo, 1318681
1, 49640, Note_on_c, 0, 78, 0
1, 49641, Note_on_c, 0, 73, 65
1, 49677, Control_c, 0, 64, 0
1, 49680, Note_on_c, 0, 76, 66
1, 49680, Note_on_c, 0, 49, 30
1, 49680, Note_on_c, 0, 53, 30
1, 49680, Note_on_c, 0, 56, 30
1, 49680, Note_on_c, 0, 59, 30
1, 49680, Note_on_c, 0, 61, 37
1, 49681, Note_on_c, 0, 73, 0
1, 49720, Control_c, 0, 64, 127
1, 49800, Note_on_c, 0, 59, 0
1, 49800, Note_on_c, 0, 49, 0
1, 49800, Note_on_c, 0, 53, 0
1, 49800, Note_on_c, 0, 76, 0
1, 49800, Note_on_c, 0, 61, 0
1, 49800, Note_on_c, 0, 56, 0
1, 49800, Note_on_c, 0, 75, 62
1, 49800, Note_on_c, 0, 71, 52
1, 49800, Note_on_c, 0, 65, 43
1, 49820, Tempo, 1333333
1, 49920, Note_on_c, 0, 75, 0
1, 49920, Note_on_c, 0, 74, 62
1, 49920, Note_on_c, 0, 44, 32
1, 49930, Control_c, 0, 64, 0
1, 49972, Control_c, 0, 64, 127
1, 50012, Tempo, 1348315
1, 50038, Note_on_c, 0, 65, 0
1, 50038, Note_on_c, 0, 71, 0
1, 50040, Note_on_c, 0, 74, 0
1, 50040, Note_on_c, 0, 44, 0
1, 50040, Note_on_c, 0, 74, 58
1, 50040, Note_on_c, 0, 71, 48
1, 50040, Note_on_c, 0, 65, 41
1, 50160, Note_on_c, 0, 61, 32
1, 50160, Note_on_c, 0, 59, 25
1, 50160, Note_on_c, 0, 56, 25
1, 50184, Tempo, 1363636
1, 50278, Note_on_c, 0, 65, 0
1, 50278, Note_on_c, 0, 74, 0
1, 50278, Note_on_c, 0, 71, 0
1, 50280, Note_on_c, 0, 61, 0
1, 50280, Note_on_c, 0, 59, 0
1, 50280, Note_on_c, 0, 56, 0
1, 50280, Note_on_c, 0, 65, 41
1, 50280, Note_on_c, 0, 71, 48
1, 50280, Note_on_c, 0, 73, 58
1, 50400, Tempo, 1333333
1, 50400, Note_on_c, 0, 73, 0
1, 50400, Note_on_c, 0, 71, 0
1, 50400, Note_on_c, 0, 65, 0
1, 50400, Note_on_c, 0, 73, 60
1, 50400, Note_on_c, 0, 57, 30
1, 50400, Note_on_c, 0, 61, 39
1, 50400, Control_c, 0, 64, 0
1, 50486, Control_c, 0, 64, 127
1, 50520, Note_on_c, 0, 61, 0
1, 50520, Note_on_c, 0, 57, 0
1, 50520, Note_on_c, 0, 66, 40
1, 50640, Note_on_c, 0, 45, 35
1, 50760, Tempo, 1290323
1, 50760, Note_on_c, 0, 45, 0
1, 50760, Note_on_c, 0, 66, 0
1, 50760, Note_on_c, 0, 73, 0
1, 50760, Note_on_c, 0, 78, 62
1, 50880, Note_on_c, 0, 61, 36
1, 50880, Note_on_c, 0, 58, 28
1, 50887, Control_c, 0, 64, 0
1, 50995, Control_c, 0, 64, 127
1, 50998, Note_on_c, 0, 78, 0
1, 51000, Note_on_c, 0, 58, 0
1, 51000, Note_on_c, 0, 61, 0
1, 51000, Note_on_c, 0, 78, 63
1, 51120, Note_on_c, 0, 58, 34
1, 51120, Note_on_c, 0, 61, 42
1, 51240, Tempo, 1333333
1, 51240, Note_on_c, 0, 61, 0
1, 51240, Note_on_c, 0, 58, 0
1, 51240, Note_on_c, 0, 66, 40
1, 51360, Tempo, 1318681
1, 51360, Note_on_c, 0, 46, 40
1, 51475, Note_on_c, 0, 78, 0
1, 51480, Tempo, 1290323
1, 51480, Note_on_c, 0, 46, 0
1, 51480, Note_on_c, 0, 66, 0
1, 51480, Note_on_c, 0, 78, 65
1, 51600, Tempo, 1348315
1, 51600, Note_on_c, 0, 63, 40
1, 51600, Note_on_c, 0, 59, 31
1, 51611, Control_c, 0, 64, 0
1, 51697, Control_c, 0, 64, 127
1, 51718, Note_on_c, 0, 78, 0
1, 51720, Note_on_c, 0, 59, 0
1, 51720, Note_on_c, 0, 63, 0
1, 51720, Note_on_c, 0, 78, 67
1, 51840, Tempo, 1290323
1, 51840, Note_on_c, 0, 59, 36
1, 51840, Note_on_c, 0, 63, 47
1, 51960, Tempo, 1363636
1, 51960, Note_on_c, 0, 63, 0
1, 51960, Note_on_c, 0, 59, 0
1, 51960, Note_on_c, 0, 71, 45
1, 52080, Tempo, 1333333
1, 52080, Note_on_c, 0, 47, 42
1, 52200, Tempo, 1304348
1, 52200, Note_on_c, 0, 47, 0
1, 52200, Note_on_c, 0, 71, 0
1, 52200, Note_on_c, 0, 78, 0
1, 52200, Note_on_c, 0, 83, 69
1, 52320, Tempo, 1304348
1, 52320, Note_on_c, 0, 64, 42
1, 52320, Note_on_c, 0, 61, 33
1, 52332, Control_c, 0, 64, 0
1, 52395, Control_c, 0, 64, 127
1, 52438, Note_on_c, 0, 83, 0
1, 52440, Note_on_c, 0, 61, 0
1, 52440, Note_on_c, 0, 64, 0
1, 52440, Note_on_c, 0, 83, 71
1, 52560, Note_on_c, 0, 61, 40
1, 52560, Note_on_c, 0, 64, 50
1, 52680, Tempo, 1363636
1, 52680, Note_on_c, 0, 64, 0
1, 52680, Note_on_c, 0, 61, 0
1, 52680, Note_on_c, 0, 71, 61
1, 52800, Tempo, 1318681
1, 52800, Note_on_c, 0, 49, 44
1, 52915, Note_on_c, 0, 83, 0
1, 52920, Tempo, 1304348
1, 52920, Note_on_c, 0, 49, 0
1, 52920, Note_on_c, 0, 71, 0
1, 52920, Note_on_c, 0, 71, 62
1, 52920, Note_on_c, 0, 83, 73
1, 53040, Tempo, 1333333
1, 53040, Note_on_c, 0, 66, 44
1, 53040, Note_on_c, 0, 63, 35
1, 53055, Control_c, 0, 64, 0
1, 53143, Control_c, 0, 64, 127
1, 53158, Note_on_c, 0, 83, 0
1, 53158, Note_on_c, 0, 71, 0
1, 53160, Note_on_c, 0, 66, 0
1, 53160, Note_on_c, 0, 63, 0
1, 53160, Note_on_c, 0, 71, 63
1, 53160, Note_on_c, 0, 83, 75
1, 53280, Tempo, 1333333
1, 53280, Note_on_c, 0, 66, 49
1, 53280, Note_on_c, 0, 63, 41
1, 53280, Control_c, 0, 64, 0
1, 53349, Control_c, 0, 64, 127
1, 53398, Note_on_c, 0, 83, 0
1, 53398, Note_on_c, 0, 71, 0
1, 53400, Note_on_c, 0, 66, 0
1, 53400, Note_on_c, 0, 63, 0
1, 53400, Note_on_c, 0, 71, 64
1, 53400, Note_on_c, 0, 83, 76
1, 53400, Note_on_c, 0, 51, 41
1, 53520, Note_on_c, 0, 51, 0
1, 53520, Note_on_c, 0, 67, 49
1, 53520, Note_on_c, 0, 64, 41
1, 53528, Control_c, 0, 64, 0
1, 53577, Control_c, 0, 64, 127
1, 53638, Note_on_c, 0, 83, 0
1, 53638, Note_on_c, 0, 71, 0
1, 53640, Note_on_c, 0, 67, 0
1, 53640, Note_on_c, 0, 64, 0
1, 53640, Note_on_c, 0, 71, 65
1, 53640, Note_on_c, 0, 83, 77
1, 53640, Note_on_c, 0, 52, 42
1, 53760, Note_on_c, 0, 52, 0
1, 53760, Note_on_c, 0, 69, 51
1, 53760, Note_on_c, 0, 66, 42
1, 53774, Control_c, 0, 64, 0
1, 53823, Control_c, 0, 64, 127
1, 53878, Note_on_c, 0, 83, 0
1, 53878, Note_on_c, 0, 71, 0
1, 53880, Note_on_c, 0, 69, 0
1, 53880, Note_on_c, 0, 66, 0
1, 53880, Note_on_c, 0, 71, 66
1, 53880, Note_on_c, 0, 83, 78
1, 53880, Note_on_c, 0, 54, 41
1, 53999, Note_on_c, 0, 71, 0
1, 54000, Tempo, 1445783
1, 54000, Note_on_c, 0, 54, 0
1, 54000, Note_on_c, 0, 67, 47
1, 54000, Note_on_c, 0, 71, 56
1, 54012, Control_c, 0, 64, 0
1, 54080, Control_c, 0, 64, 127
1, 54118, Note_on_c, 0, 83, 0
1, 54120, Tempo, 1333333
1, 54120, Note_on_c, 0, 71, 0
1, 54120, Note_on_c, 0, 67, 0
1, 54120, Note_on_c, 0, 88, 80
1, 54120, Note_on_c, 0, 83, 68
1, 54120, Note_on_c, 0, 76, 68
1, 54120, Note_on_c, 0, 55, 44
1, 54240, Tempo, 1333333
1, 54240, Note_on_c, 0, 55, 0
1, 54240, Note_on_c, 0, 68, 48
1, 54240, Note_on_c, 0, 71, 57
1, 54252, Control_c, 0, 64, 0
1, 54258, Tempo, 1348315
1, 54309, Control_c, 0, 64, 127
1, 54335, Tempo, 1363636
1, 54358, Note_on_c, 0, 88, 0
1, 54358, Note_on_c, 0, 76, 0
1, 54358, Note_on_c, 0, 83, 0
1, 54360, Note_on_c, 0, 68, 0
1, 54360, Note_on_c, 0, 71, 0
1, 54360, Note_on_c, 0, 86, 81
1, 54360, Note_on_c, 0, 88, 81
1, 54360, Note_on_c, 0, 83, 68
1, 54360, Note_on_c, 0, 76, 68
1, 54360, Note_on_c, 0, 56, 51
1, 54393, Tempo, 1379310
1, 54450, Tempo, 1395349
1, 54480, Note_on_c, 0, 56, 0
1, 54480, Note_on_c, 0, 69, 52
1, 54480, Note_on_c, 0, 73, 62
1, 54483, Control_c, 0, 64, 0
1, 54508, Tempo, 1411765
1, 54543, Control_c, 0, 64, 127
1, 54566, Tempo, 1428571
1, 54598, Note_on_c, 0, 83, 0
1, 54598, Note_on_c, 0, 76, 0
1, 54598, Note_on_c, 0, 86, 0
1, 54598, Note_on_c, 0, 88, 0
1, 54600, Tempo, 1643836
1, 54600, Note_on_c, 0, 73, 0
1, 54600, Note_on_c, 0, 69, 0
1, 54600, Note_on_c, 0, 88, 82
1, 54600, Note_on_c, 0, 85, 69
1, 54600, Note_on_c, 0, 81, 69
1, 54600, Note_on_c, 0, 76, 69
1, 54600, Note_on_c, 0, 57, 49
1, 54719, Note_on_c, 0, 76, 0
1, 54719, Note_on_c, 0, 81, 0
1, 54719, Note_on_c, 0, 88, 0
1, 54719, Note_on_c, 0, 85, 0
1, 54720, Tempo, 1290323
1, 54720, Note_on_c, 0, 57, 0
1, 54720, Note_on_c, 0, 76, 56
1, 54720, Note_on_c, 0, 88, 73
1, 54720, Note_on_c, 0, 69, 40
1, 54720, Note_on_c, 0, 73, 48
1, 54722, Control_c, 0, 64, 0
1, 54806, Control_c, 0, 64, 127
1, 54840, Note_on_c, 0, 88, 0
1, 54840, Note_on_c, 0, 80, 57
1, 54960, Note_on_c, 0, 80, 0
1, 54960, Note_on_c, 0, 73, 0
1, 54960, Note_on_c, 0, 69, 0
1, 54960, Note_on_c, 0, 76, 0
1, 54960, Note_on_c, 0, 76, 54
1, 54960, Note_on_c, 0, 83, 64
1, 54960, Note_on_c, 0, 61, 40
1, 54960, Note_on_c, 0, 57, 34
1, 54974, Control_c, 0, 64, 0
1, 55029, Control_c, 0, 64, 127
1, 55080, Note_on_c, 0, 83, 0
1, 55080, Note_on_c, 0, 81, 60
1, 55200, Note_on_c, 0, 81, 0
1, 55200, Note_on_c, 0, 76, 0
1, 55200, Note_on_c, 0, 61, 0
1, 55200, Note_on_c, 0, 78, 51
1, 55200, Note_on_c, 0, 80, 60
1, 55200, Note_on_c, 0, 63, 35
1, 55212, Control_c, 0, 64, 0
1, 55269, Control_c, 0, 64, 127
1, 55320, Tempo, 1395349
1, 55320, Note_on_c, 0, 80, 0
1, 55320, Note_on_c, 0, 81, 60
1, 55440, Tempo, 1290323
1, 55440, Note_on_c, 0, 81, 0
1, 55440, Note_on_c, 0, 57, 0
1, 55440, Note_on_c, 0, 84, 69
1, 55440, Note_on_c, 0, 57, 33
1, 55447, Control_c, 0, 64, 0
1, 55520, Control_c, 0, 64, 127
1, 55560, Note_on_c, 0, 78, 0
1, 55560, Note_on_c, 0, 63, 0
1, 55560, Note_on_c, 0, 78, 60
1, 55560, Note_on_c, 0, 63, 32
1, 55680, Note_on_c, 0, 63, 0
1, 55680, Note_on_c, 0, 78, 0
1, 55680, Note_on_c, 0, 84, 0
1, 55680, Note_on_c, 0, 81, 65
1, 55680, Note_on_c, 0, 83, 55
1, 55680, Note_on_c, 0, 66, 38
1, 55692, Control_c, 0, 64, 0
1, 55760, Control_c, 0, 64, 127
1, 55800, Note_on_c, 0, 66, 0
1, 55800, Note_on_c, 0, 79, 57
1, 55800, Note_on_c, 0, 64, 34
1, 55920, Note_on_c, 0, 64, 0
1, 55920, Note_on_c, 0, 79, 0
1, 55920, Note_on_c, 0, 78, 60
1, 55920, Note_on_c, 0, 63, 39
1, 55930, Control_c, 0, 64, 0
1, 55995, Control_c, 0, 64, 127
1, 56040, Tempo, 1395349
1, 56040, Note_on_c, 0, 63, 0
1, 56040, Note_on_c, 0, 81, 0
1, 56040, Note_on_c, 0, 78, 0
1, 56040, Note_on_c, 0, 79, 55
1, 56040, Note_on_c, 0, 64, 35
1, 56160, Tempo, 1290323
1, 56160, Note_on_c, 0, 64, 0
1, 56160, Note_on_c, 0, 79, 0
1, 56160, Note_on_c, 0, 57, 0
1, 56160, Note_on_c, 0, 77, 56
1, 56160, Note_on_c, 0, 57, 34
1, 56160, Note_on_c, 0, 62, 48
1, 56162, Control_c, 0, 64, 0
1, 56246, Control_c, 0, 64, 127
1, 56280, Note_on_c, 0, 80, 57
1, 56400, Note_on_c, 0, 80, 0
1, 56400, Note_on_c, 0, 77, 0
1, 56400, Note_on_c, 0, 83, 0
1, 56400, Note_on_c, 0, 62, 0
1, 56400, Note_on_c, 0, 76, 54
1, 56400, Note_on_c, 0, 82, 64
1, 56400, Note_on_c, 0, 61, 40
1, 56414, Control_c, 0, 64, 0
1, 56469, Control_c, 0, 64, 127
1, 56520, Note_on_c, 0, 82, 0
1, 56520, Note_on_c, 0, 81, 60
1, 56640, Note_on_c, 0, 81, 0
1, 56640, Note_on_c, 0, 80, 60
1, 56652, Control_c, 0, 64, 0
1, 56709, Control_c, 0, 64, 127
1, 56760, Tempo, 1395349
1, 56760, Note_on_c, 0, 80, 0
1, 56760, Note_on_c, 0, 81, 60
1, 56880, Tempo, 1290323
1, 56880, Note_on_c, 0, 81, 0
1, 56880, Note_on_c, 0, 57, 0
1, 56880, Note_on_c, 0, 83, 69
1, 56880, Note_on_c, 0, 57, 33
1, 56887, Control_c, 0, 64, 0
1, 56960, Control_c, 0, 64, 127
1, 57000, Note_on_c, 0, 76, 0
1, 57000, Note_on_c, 0, 61, 0
1, 57000, Note_on_c, 0, 76, 60
1, 57000, Note_on_c, 0, 61, 32
1, 57120, Note_on_c, 0, 61, 0
1, 57120, Note_on_c, 0, 76, 0
1, 57120, Note_on_c, 0, 83, 0
1, 57120, Note_on_c, 0, 79, 65
1, 57120, Note_on_c, 0, 81, 55
1, 57120, Note_on_c, 0, 64, 38
1, 57132, Control_c, 0, 64, 0
1, 57200, Control_c, 0, 64, 127
1, 57240, Note_on_c, 0, 64, 0
1, 57240, Note_on_c, 0, 79, 0
1, 57240, Note_on_c, 0, 78, 57
1, 57240, Note_on_c, 0, 62, 34
1, 57360, Note_on_c, 0, 62, 0
1, 57360, Note_on_c, 0, 78, 0
1, 57360, Note_on_c, 0, 77, 60
1, 57360, Note_on_c, 0, 61, 39
1, 57370, Control_c, 0, 64, 0
1, 57435, Control_c, 0, 64, 127
1, 57480, Tempo, 1395349
1, 57480, Note_on_c, 0, 61, 0
1, 57480, Note_on_c, 0, 77, 0
1, 57480, Note_on_c, 0, 78, 55
1, 57480, Note_on_c, 0, 62, 35
1, 57600, Key_signature, 2, "major"
1, 57600, Tempo, 1290323
1, 57600, Note_on_c, 0, 62, 0
1, 57600, Note_on_c, 0, 78, 0
1, 57600, Note_on_c, 0, 57, 0
1, 57600, Note_on_c, 0, 75, 50
1, 57600, Note_on_c, 0, 57, 33
1, 57600, Note_on_c, 0, 63, 39
1, 57600, Note_on_c, 0, 60, 39
1, 57600, Control_c, 0, 64, 0
1, 57675, Control_c, 0, 64, 127
1, 57720, Note_on_c, 0, 81, 0
1, 57720, Note_on_c, 0, 78, 53
1, 57840, Note_on_c, 0, 78, 0
1, 57840, Note_on_c, 0, 60, 0
1, 57840, Note_on_c, 0, 75, 0
1, 57840, Note_on_c, 0, 63, 0
1, 57840, Note_on_c, 0, 76, 51
1, 57840, Note_on_c, 0, 81, 61
1, 57840, Note_on_c, 0, 64, 39
1, 57840, Note_on_c, 0, 61, 33
1, 57852, Control_c, 0, 64, 0
1, 57915, Control_c, 0, 64, 127
1, 57960, Note_on_c, 0, 81, 0
1, 57960, Note_on_c, 0, 79, 55
1, 58080, Note_on_c, 0, 79, 0
1, 58080, Note_on_c, 0, 61, 0
1, 58080, Note_on_c, 0, 57, 0
1, 58080, Note_on_c, 0, 76, 0
1, 58080, Note_on_c, 0, 64, 0
1, 58080, Note_on_c, 0, 73, 51
1, 58080, Note_on_c, 0, 78, 61
1, 58080, Note_on_c, 0, 63, 39
1, 58080, Note_on_c, 0, 58, 33
1, 58085, Control_c, 0, 64, 0
1, 58132, Control_c, 0, 64, 127
1, 58200, Tempo, 1379310
1, 58200, Note_on_c, 0, 63, 0
1, 58200, Note_on_c, 0, 78, 0
1, 58200, Note_on_c, 0, 79, 55
1, 58200, Note_on_c, 0, 64, 39
1, 58319, Note_on_c, 0, 64, 0
1, 58319, Note_on_c, 0, 79, 0
1, 58320, Tempo, 1276596
1, 58320, Note_on_c, 0, 73, 0
1, 58320, Note_on_c, 0, 58, 0
1, 58320, Note_on_c, 0, 79, 63
1, 58320, Note_on_c, 0, 73, 53
1, 58320, Note_on_c, 0, 64, 45
1, 58320, Note_on_c, 0, 58, 38
1, 58324, Control_c, 0, 64, 0
1, 58417, Control_c, 0, 64, 127
1, 58440, Note_on_c, 0, 64, 0
1, 58440, Note_on_c, 0, 79, 0
1, 58440, Note_on_c, 0, 76, 57
1, 58440, Note_on_c, 0, 61, 39
1, 58560, Note_on_c, 0, 61, 0
1, 58560, Note_on_c, 0, 58, 0
1, 58560, Note_on_c, 0, 73, 0
1, 58560, Note_on_c, 0, 76, 0
1, 58560, Note_on_c, 0, 74, 56
1, 58560, Note_on_c, 0, 79, 67
1, 58560, Note_on_c, 0, 64, 44
1, 58560, Note_on_c, 0, 59, 37
1, 58571, Control_c, 0, 64, 0
1, 58629, Control_c, 0, 64, 127
1, 58680, Note_on_c, 0, 64, 0
1, 58680, Note_on_c, 0, 79, 0
1, 58680, Note_on_c, 0, 78, 58
1, 58680, Note_on_c, 0, 62, 39
1, 58800, Note_on_c, 0, 62, 0
1, 58800, Note_on_c, 0, 59, 0
1, 58800, Note_on_c, 0, 74, 0
1, 58800, Note_on_c, 0, 78, 0
1, 58800, Note_on_c, 0, 76, 68
1, 58800, Note_on_c, 0, 71, 57
1, 58800, Note_on_c, 0, 61, 43
1, 58800, Note_on_c, 0, 56, 36
1, 58813, Control_c, 0, 64, 0
1, 58880, Control_c, 0, 64, 127
1, 58920, Tempo, 1481481
1, 58920, Note_on_c, 0, 61, 0
1, 58920, Note_on_c, 0, 76, 0
1, 58920, Note_on_c, 0, 77, 61
1, 58920, Note_on_c, 0, 62, 39
1, 59039, Note_on_c, 0, 62, 0
1, 59039, Note_on_c, 0, 77, 0
1, 59040, Tempo, 1333333
1, 59040, Note_on_c, 0, 56, 0
1, 59040, Note_on_c, 0, 77, 71
1, 59040, Note_on_c, 0, 56, 39
1, 59040, Note_on_c, 0, 62, 46
1, 59040, Control_c, 0, 64, 0
1, 59120, Control_c, 0, 64, 127
1, 59160, Note_on_c, 0, 71, 0
1, 59160, Note_on_c, 0, 65, 61
1, 59280, Tempo, 1304348
1, 59280, Note_on_c, 0, 65, 0
1, 59280, Note_on_c, 0, 62, 0
1, 59280, Note_on_c, 0, 56, 0
1, 59280, Note_on_c, 0, 77, 0
1, 59280, Note_on_c, 0, 64, 57
1, 59280, Note_on_c, 0, 70, 68
1, 59280, Note_on_c, 0, 76, 68
1, 59280, Note_on_c, 0, 61, 42
1, 59280, Note_on_c, 0, 55, 35
1, 59289, Control_c, 0, 64, 0
1, 59355, Control_c, 0, 64, 127
1, 59400, Note_on_c, 0, 70, 0
1, 59400, Note_on_c, 0, 69, 59
1, 59520, Note_on_c, 0, 69, 0
1, 59520, Note_on_c, 0, 55, 0
1, 59520, Note_on_c, 0, 64, 0
1, 59520, Note_on_c, 0, 76, 0
1, 59520, Note_on_c, 0, 61, 0
1, 59520, Note_on_c, 0, 66, 58
1, 59520, Note_on_c, 0, 68, 69
1, 59520, Note_on_c, 0, 74, 69
1, 59520, Note_on_c, 0, 57, 33
1, 59520, Note_on_c, 0, 54, 33
1, 59520, Note_on_c, 0, 62, 39
1, 59531, Control_c, 0, 64, 0
1, 59583, Control_c, 0, 64, 127
1, 59640, Tempo, 1428571
1, 59640, Note_on_c, 0, 68, 0
1, 59640, Note_on_c, 0, 69, 60
1, 59760, Tempo, 1318681
1, 59760, Note_on_c, 0, 69, 0
1, 59760, Note_on_c, 0, 62, 0
1, 59760, Note_on_c, 0, 57, 0
1, 59760, Note_on_c, 0, 66, 0
1, 59760, Note_on_c, 0, 74, 0
1, 59760, Note_on_c, 0, 54, 0
1, 59760, Note_on_c, 0, 79, 74
1, 59760, Note_on_c, 0, 73, 67
1, 59760, Note_on_c, 0, 52, 45
1, 59760, Note_on_c, 0, 45, 38
1, 59771, Control_c, 0, 64, 0
1, 59846, Control_c, 0, 64, 127
1, 59880, Note_on_c, 0, 52, 0
1, 59880, Note_on_c, 0, 73, 0
1, 59880, Note_on_c, 0, 76, 62
1, 59880, Note_on_c, 0, 49, 39
1, 60000, Note_on_c, 0, 49, 0
1, 60000, Note_on_c, 0, 45, 0
1, 60000, Note_on_c, 0, 79, 0
1, 60000, Note_on_c, 0, 76, 0
1, 60000, Note_on_c, 0, 78, 71
1, 60000, Note_on_c, 0, 74, 60
1, 60000, Note_on_c, 0, 52, 57
1, 60000, Note_on_c, 0, 47, 43
1, 60012, Control_c, 0, 64, 0
1, 60103, Control_c, 0, 64, 127
1, 60120, Note_on_c, 0, 52, 0
1, 60120, Note_on_c, 0, 50, 48
1, 60240, Note_on_c, 0, 50, 0
1, 60240, Note_on_c, 0, 47, 0
1, 60240, Note_on_c, 0, 74, 0
1, 60240, Note_on_c, 0, 78, 0
1, 60240, Note_on_c, 0, 77, 58
1, 60240, Note_on_c, 0, 83, 69
1, 60240, Note_on_c, 0, 71, 58
1, 60240, Note_on_c, 0, 49, 57
1, 60240, Note_on_c, 0, 44, 48
1, 60252, Control_c, 0, 64, 0
1, 60309, Control_c, 0, 64, 127
1, 60360, Tempo, 1463415
1, 60360, Note_on_c, 0, 49, 0
1, 60360, Note_on_c, 0, 50, 53
1, 60480, Tempo, 1333333
1, 60480, Note_on_c, 0, 50, 0
1, 60480, Note_on_c, 0, 44, 0
1, 60480, Note_on_c, 0, 71, 0
1, 60480, Note_on_c, 0, 77, 0
1, 60480, Note_on_c, 0, 71, 61
1, 60480, Note_on_c, 0, 80, 72
1, 60480, Note_on_c, 0, 74, 61
1, 60480, Note_on_c, 0, 41, 51
1, 60480, Note_on_c, 0, 50, 67
1, 60485, Control_c, 0, 64, 0
1, 60549, Control_c, 0, 64, 127
1, 60600, Note_on_c, 0, 50, 0
1, 60600, Note_on_c, 0, 44, 59
1, 60720, Note_on_c, 0, 44, 0
1, 60720, Note_on_c, 0, 41, 0
1, 60720, Note_on_c, 0, 80, 0
1, 60720, Note_on_c, 0, 83, 0
1, 60720, Note_on_c, 0, 71, 0
1, 60720, Note_on_c, 0, 74, 0
1, 60720, Note_on_c, 0, 74, 62
1, 60720, Note_on_c, 0, 69, 62
1, 60720, Note_on_c, 0, 81, 74
1, 60720, Note_on_c, 0, 42, 53
1, 60720, Note_on_c, 0, 47, 69
1, 60727, Control_c, 0, 64, 0
1, 60789, Control_c, 0, 64, 127
1, 60840, Tempo, 1463415
1, 60840, Note_on_c, 0, 47, 0
1, 60840, Note_on_c, 0, 45, 58
1, 60960, Tempo, 1348315
1, 60960, Note_on_c, 0, 45, 0
1, 60960, Note_on_c, 0, 81, 0
1, 60960, Note_on_c, 0, 74, 0
1, 60960, Note_on_c, 0, 69, 0
1, 60960, Note_on_c, 0, 74, 80
1, 60960, Note_on_c, 0, 86, 91
1, 60960, Note_on_c, 0, 44, 69
1, 60963, Control_c, 0, 64, 0
1, 61040, Control_c, 0, 64, 127
1, 61080, Note_on_c, 0, 44, 0
1, 61080, Note_on_c, 0, 42, 0
1, 61080, Note_on_c, 0, 41, 45
1, 61080, Note_on_c, 0, 45, 58
1, 61200, Note_on_c, 0, 45, 0
1, 61200, Note_on_c, 0, 41, 0
1, 61200, Note_on_c, 0, 74, 0
1, 61200, Note_on_c, 0, 74, 82
1, 61200, Note_on_c, 0, 79, 82
1, 61200, Note_on_c, 0, 40, 57
1, 61200, Note_on_c, 0, 45, 68
1, 61200, Control_c, 0, 64, 0
1, 61280, Control_c, 0, 64, 127
1, 61320, Note_on_c, 0, 45, 0
1, 61320, Note_on_c, 0, 40, 0
1, 61320, Note_on_c, 0, 32, 61
1, 61440, Note_on_c, 0, 32, 0
1, 61440, Note_on_c, 0, 79, 0
1, 61440, Note_on_c, 0, 74, 0
1, 61440, Note_on_c, 0, 86, 0
1, 61440, Note_on_c, 0, 76, 73
1, 61440, Note_on_c, 0, 73, 73
1, 61440, Note_on_c, 0, 85, 87
1, 61440, Note_on_c, 0, 79, 73
1, 61440, Note_on_c, 0, 34, 72
1, 61445, Control_c, 0, 64, 0
1, 61520, Control_c, 0, 64, 127
1, 61560, Tempo, 1463415
1, 61560, Note_on_c, 0, 34, 0
1, 61560, Note_on_c, 0, 33, 63
1, 61680, Note_on_c, 0, 33, 0
1, 61680, Note_on_c, 0, 79, 0
1, 61680, Note_on_c, 0, 76, 0
1, 61680, Note_on_c, 0, 73, 0
1, 61680, Note_on_c, 0, 85, 0
1, 61680, Note_on_c, 0, 85, 78
1, 61680, Note_on_c, 0, 79, 78
1, 61680, Note_on_c, 0, 91, 95
1, 61680, Note_on_c, 0, 88, 80
1, 61680, Note_on_c, 0, 32, 72
1, 61685, Control_c, 0, 64, 0
1, 61749, Control_c, 0, 64, 127
1, 61800, Note_on_c, 0, 32, 0
1, 61800, Note_on_c, 0, 33, 62
1, 61910, Note_on_c, 0, 33, 0
1, 61920, Note_on_c, 0, 33, 81
1, 61998, Tempo, 1500000
1, 62040, Note_on_c, 0, 33, 0
1, 62040, Note_on_c, 0, 52, 43
1, 62055, Tempo, 1481481
1, 62113, Tempo, 1463415
1, 62160, Note_on_c, 0, 52, 0
1, 62160, Note_on_c, 0, 49, 47
1, 62163, Control_c, 0, 64, 0
1, 62171, Tempo, 1445783
1, 62209, Tempo, 1428571
1, 62228, Tempo, 1411765
1, 62229, Control_c, 0, 64, 127
1, 62280, Note_on_c, 0, 49, 0
1, 62280, Note_on_c, 0, 91, 0
1, 62280, Note_on_c, 0, 85, 0
1, 62280, Note_on_c, 0, 79, 0
1, 62280, Note_on_c, 0, 88, 0
1, 62280, Note_on_c, 0, 67, 50
1, 62280, Note_on_c, 0, 55, 43
1, 62400, Note_on_c, 0, 55, 0
1, 62400, Note_on_c, 0, 67, 0
1, 62400, Note_on_c, 0, 64, 54
1, 62400, Note_on_c, 0, 52, 48
1, 62411, Control_c, 0, 64, 0
1, 62439, Tempo, 1428571
1, 62492, Control_c, 0, 64, 127
1, 62520, Note_on_c, 0, 52, 0
1, 62520, Note_on_c, 0, 64, 0
1, 62520, Note_on_c, 0, 70, 45
1, 62520, Note_on_c, 0, 58, 43
1, 62640, Note_on_c, 0, 58, 0
1, 62640, Note_on_c, 0, 70, 0
1, 62640, Note_on_c, 0, 68, 52
1, 62640, Note_on_c, 0, 56, 47
1, 62645, Control_c, 0, 64, 0
1, 62651, Tempo, 1445783
1, 62697, Control_c, 0, 64, 127
1, 62760, Note_on_c, 0, 56, 0
1, 62760, Note_on_c, 0, 68, 0
1, 62760, Note_on_c, 0, 69, 45
1, 62760, Note_on_c, 0, 57, 43
1, 62843, Tempo, 1463415
1, 62862, Tempo, 1500000
1, 62880, Note_on_c, 0, 57, 0
1, 62880, Note_on_c, 0, 69, 0
1, 62880, Note_on_c, 0, 64, 50
1, 62880, Note_on_c, 0, 52, 46
1, 62881, Tempo, 1518987
1, 62886, Control_c, 0, 64, 0
1, 62919, Tempo, 1538462
1, 62932, Control_c, 0, 64, 127
1, 62958, Tempo, 1558442
1, 62977, Tempo, 1578947
1, 63000, Note_on_c, 0, 52, 0
1, 63000, Note_on_c, 0, 64, 0
1, 63000, Note_on_c, 0, 71, 45
1, 63000, Note_on_c, 0, 59, 39
1, 63015, Tempo, 1643836
1, 63092, Tempo, 1666667
1, 63120, Note_on_c, 0, 59, 0
1, 63120, Note_on_c, 0, 71, 0
1, 63120, Note_on_c, 0, 69, 49
1, 63120, Note_on_c, 0, 57, 45
1, 63125, Control_c, 0, 64, 0
1, 63188, Tempo, 1690141
1, 63189, Control_c, 0, 64, 127
1, 63240, Note_on_c, 0, 57, 0
1, 63240, Note_on_c, 0, 69, 0
1, 63240, Note_on_c, 0, 67, 45
1, 63240, Note_on_c, 0, 55, 40
1, 63265, Tempo, 1714286
1, 63360, Tempo, 1333333
1, 63360, Note_on_c, 0, 55, 0
1, 63360, Note_on_c, 0, 67, 0
1, 63360, Note_on_c, 0, 66, 49
1, 63360, Note_on_c, 0, 50, 32
1, 63360, Note_on_c, 0, 54, 38
1, 63360, Control_c, 0, 64, 0
1, 63434, Control_c, 0, 64, 127
1, 63480, Note_on_c, 0, 54, 0
1, 63480, Note_on_c, 0, 59, 33
1, 63600, Note_on_c, 0, 59, 0
1, 63600, Note_on_c, 0, 66, 0
1, 63600, Note_on_c, 0, 56, 38
1, 63608, Control_c, 0, 64, 0
1, 63646, Control_c, 0, 64, 127
1, 63720, Note_on_c, 0, 56, 0
1, 63720, Note_on_c, 0, 57, 34
1, 63840, Note_on_c, 0, 57, 0
1, 63840, Note_on_c, 0, 38, 58
1, 63840, Note_on_c, 0, 54, 38
1, 63844, Control_c, 0, 64, 0
1, 63900, Control_c, 0, 64, 127
1, 63960, Note_on_c, 0, 54, 0
1, 63960, Note_on_c, 0, 59, 33
1, 64080, Note_on_c, 0, 59, 0
1, 64080, Note_on_c, 0, 56, 38
1, 64083, Control_c, 0, 64, 0
1, 64137, Control_c, 0, 64, 127
1, 64200, Note_on_c, 0, 56, 0
1, 64200, Note_on_c, 0, 57, 33
1, 64320, Note_on_c, 0, 57, 0
1, 64320, Note_on_c, 0, 54, 32
1, 64330, Control_c, 0, 64, 0
1, 64380, Control_c, 0, 64, 127
1, 64440, Note_on_c, 0, 54, 0
1, 64440, Note_on_c, 0, 59, 28
1, 64560, Tempo, 1250000
1, 64560, Note_on_c, 0, 59, 0
1, 64560, Note_on_c, 0, 38, 0
1, 64560, Note_on_c, 0, 50, 0
1, 64560, Note_on_c, 0, 38, 52
1, 64560, Note_on_c, 0, 50, 27
1, 64560, Note_on_c, 0, 54, 32
1, 64569, Control_c, 0, 64, 0
1, 64634, Control_c, 0, 64, 127
1, 64680, Tempo, 1379310
1, 64680, Note_on_c, 0, 54, 0
1, 64680, Note_on_c, 0, 38, 0
1, 64680, Note_on_c, 0, 33, 46
1, 64680, Note_on_c, 0, 57, 28
1, 64800, Tempo, 1318681
1, 64800, Note_on_c, 0, 57, 0
1, 64800, Note_on_c, 0, 33, 0
1, 64800, Note_on_c, 0, 50, 0
1, 64800, Note_on_c, 0, 33, 52
1, 64800, Note_on_c, 0, 49, 32
1, 64800, Note_on_c, 0, 52, 38
1, 64800, Control_c, 0, 64, 0
1, 64874, Control_c, 0, 64, 127
1, 64920, Note_on_c, 0, 52, 0
1, 64920, Note_on_c, 0, 57, 33
1, 65040, Tempo, 1276596
1, 65040, Note_on_c, 0, 57, 0
1, 65040, Note_on_c, 0, 49, 0
1, 65040, Note_on_c, 0, 50, 32
1, 65040, Note_on_c, 0, 54, 38
1, 65048, Control_c, 0, 64, 0
1, 65086, Control_c, 0, 64, 127
1, 65160, Note_on_c, 0, 54, 0
1, 65160, Note_on_c, 0, 57, 34
1, 65280, Tempo, 1224490
1, 65280, Note_on_c, 0, 57, 0
1, 65280, Note_on_c, 0, 50, 0
1, 65280, Note_on_c, 0, 52, 34
1, 65280, Note_on_c, 0, 55, 41
1, 65284, Control_c, 0, 64, 0
1, 65340, Control_c, 0, 64, 127
1, 65400, Tempo, 1379310
1, 65400, Note_on_c, 0, 55, 0
1, 65400, Note_on_c, 0, 57, 36
1, 65518, Note_on_c, 0, 52, 0
1, 65518, Note_on_c, 0, 33, 0
1, 65520, Tempo, 1237113
1, 65520, Note_on_c, 0, 57, 0
1, 65520, Note_on_c, 0, 33, 52
1, 65520, Note_on_c, 0, 52, 34
1, 65520, Note_on_c, 0, 55, 40
1, 65523, Control_c, 0, 64, 0
1, 65577, Control_c, 0, 64, 127
1, 65640, Tempo, 1333333
1, 65640, Note_on_c, 0, 55, 0
1, 65640, Note_on_c, 0, 57, 34
1, 65760, Tempo, 1318681
1, 65760, Note_on_c, 0, 57, 0
1, 65760, Note_on_c, 0, 52, 0
1, 65760, Note_on_c, 0, 50, 32
1, 65760, Note_on_c, 0, 54, 38
1, 65770, Control_c, 0, 64, 0
1, 65820, Control_c, 0, 64, 127
1, 65880, Note_on_c, 0, 54, 0
1, 65880, Note_on_c, 0, 57, 32
1, 65998, Note_on_c, 0, 33, 0
1, 66000, Note_on_c, 0, 57, 0
1, 66000, Note_on_c, 0, 50, 0
1, 66000, Note_on_c, 0, 33, 52
1, 66000, Note_on_c, 0, 49, 31
1, 66000, Note_on_c, 0, 52, 37
1, 66009, Control_c, 0, 64, 0
1, 66074, Control_c, 0, 64, 127
1, 66120, Tempo, 1428571
1, 66120, Note_on_c, 0, 52, 0
1, 66120, Note_on_c, 0, 57, 34
1, 66240, Tempo, 1304348
1, 66240, Note_on_c, 0, 57, 0
1, 66240, Note_on_c, 0, 49, 0
1, 66240, Note_on_c, 0, 33, 0
1, 66240, Note_on_c, 0, 30, 52
1, 66240, Note_on_c, 0, 50, 32
1, 66240, Note_on_c, 0, 54, 38
1, 66240, Control_c, 0, 64, 0
1, 66314, Control_c, 0, 64, 127
1, 66360, Note_on_c, 0, 54, 0
1, 66360, Note_on_c, 0, 59, 33
1, 66480, Tempo, 1348315
1, 66480, Note_on_c, 0, 59, 0
1, 66480, Note_on_c, 0, 30, 0
1, 66480, Note_on_c, 0, 56, 38
1, 66488, Control_c, 0, 64, 0
1, 66526, Control_c, 0, 64, 127
1, 66600, Note_on_c, 0, 56, 0
1, 66600, Note_on_c, 0, 57, 34
1, 66720, Tempo, 1318681
1, 66720, Note_on_c, 0, 57, 0
1, 66720, Note_on_c, 0, 86, 61
1, 66720, Note_on_c, 0, 74, 53
1, 66720, Note_on_c, 0, 54, 38
1, 66724, Control_c, 0, 64, 0
1, 66780, Control_c, 0, 64, 127
1, 66840, Note_on_c, 0, 54, 0
1, 66840, Note_on_c, 0, 59, 33
1, 66960, Tempo, 1318681
1, 66960, Note_on_c, 0, 59, 0
1, 66960, Note_on_c, 0, 56, 38
1, 66963, Control_c, 0, 64, 0
1, 67017, Control_c, 0, 64, 127
1, 67080, Note_on_c, 0, 56, 0
1, 67080, Note_on_c, 0, 57, 33
1, 67200, Tempo, 1290323
1, 67200, Note_on_c, 0, 57, 0
1, 67200, Note_on_c, 0, 54, 38
1, 67210, Control_c, 0, 64, 0
1, 67260, Control_c, 0, 64, 127
1, 67320, Note_on_c, 0, 54, 0
1, 67320, Note_on_c, 0, 59, 32
1, 67440, Tempo, 1237113
1, 67440, Note_on_c, 0, 59, 0
1, 67440, Note_on_c, 0, 74, 0
1, 67440, Note_on_c, 0, 86, 0
1, 67440, Note_on_c, 0, 50, 0
1, 67440, Note_on_c, 0, 86, 55
1, 67440, Note_on_c, 0, 74, 48
1, 67440, Note_on_c, 0, 50, 29
1, 67440, Note_on_c, 0, 54, 34
1, 67449, Control_c, 0, 64, 0
1, 67514, Control_c, 0, 64, 127
1, 67560, Tempo, 1379310
1, 67560, Note_on_c, 0, 54, 0
1, 67560, Note_on_c, 0, 86, 0
1, 67560, Note_on_c, 0, 74, 0
1, 67560, Note_on_c, 0, 81, 48
1, 67560, Note_on_c, 0, 69, 42
1, 67560, Note_on_c, 0, 57, 29
1, 67679, Note_on_c, 0, 69, 0
1, 67679, Note_on_c, 0, 81, 0
1, 67680, Tempo, 1318681
1, 67680, Note_on_c, 0, 50, 0
1, 67680, Note_on_c, 0, 57, 0
1, 67680, Note_on_c, 0, 81, 55
1, 67680, Note_on_c, 0, 69, 48
1, 67680, Note_on_c, 0, 49, 27
1, 67680, Note_on_c, 0, 52, 32
1, 67680, Control_c, 0, 64, 0
1, 67754, Control_c, 0, 64, 127
1, 67800, Note_on_c, 0, 52, 0
1, 67800, Note_on_c, 0, 57, 28
1, 67920, Tempo, 1290323
1, 67920, Note_on_c, 0, 57, 0
1, 67920, Note_on_c, 0, 49, 0
1, 67920, Note_on_c, 0, 50, 28
1, 67920, Note_on_c, 0, 54, 34
1, 67928, Control_c, 0, 64, 0
1, 67966, Control_c, 0, 64, 127
1, 68040, Note_on_c, 0, 54, 0
1, 68040, Note_on_c, 0, 57, 31
1, 68160, Tempo, 1224490
1, 68160, Note_on_c, 0, 57, 0
1, 68160, Note_on_c, 0, 50, 0
1, 68160, Note_on_c, 0, 52, 32
1, 68160, Note_on_c, 0, 55, 39
1, 68164, Control_c, 0, 64, 0
1, 68220, Control_c, 0, 64, 127
1, 68280, Tempo, 1379310
1, 68280, Note_on_c, 0, 55, 0
1, 68280, Note_on_c, 0, 57, 35
1, 68398, Note_on_c, 0, 81, 0
1, 68398, Note_on_c, 0, 52, 0
1, 68398, Note_on_c, 0, 69, 0
1, 68400, Tempo, 1237113
1, 68400, Note_on_c, 0, 57, 0
1, 68400, Note_on_c, 0, 81, 55
1, 68400, Note_on_c, 0, 69, 48
1, 68400, Note_on_c, 0, 52, 34
1, 68400, Note_on_c, 0, 55, 40
1, 68403, Control_c, 0, 64, 0
1, 68457, Control_c, 0, 64, 127
1, 68520, Tempo, 1333333
1, 68520, Note_on_c, 0, 55, 0
1, 68520, Note_on_c, 0, 57, 34
1, 68640, Tempo, 1318681
1, 68640, Note_on_c, 0, 57, 0
1, 68640, Note_on_c, 0, 52, 0
1, 68640, Note_on_c, 0, 50, 32
1, 68640, Note_on_c, 0, 54, 38
1, 68650, Control_c, 0, 64, 0
1, 68700, Control_c, 0, 64, 127
1, 68760, Note_on_c, 0, 54, 0
1, 68760, Note_on_c, 0, 57, 32
1, 68878, Note_on_c, 0, 81, 0
1, 68878, Note_on_c, 0, 69, 0
1, 68880, Note_on_c, 0, 50, 0
1, 68880, Note_on_c, 0, 57, 0
1, 68880, Note_on_c, 0, 81, 55
1, 68880, Note_on_c, 0, 69, 48
1, 68880, Note_on_c, 0, 49, 31
1, 68880, Note_on_c, 0, 52, 37
1, 68889, Control_c, 0, 64, 0
1, 68954, Control_c, 0, 64, 127
1, 69000, Tempo, 1428571
1, 69000, Note_on_c, 0, 52, 0
1, 69000, Note_on_c, 0, 57, 34
1, 69120, Tempo, 1333333
1, 69120, Note_on_c, 0, 57, 0
1, 69120, Note_on_c, 0, 49, 0
1, 69120, Note_on_c, 0, 69, 0
1, 69120, Note_on_c, 0, 81, 0
1, 69120, Note_on_c, 0, 78, 53
1, 69120, Note_on_c, 0, 66, 45
1, 69120, Note_on_c, 0, 50, 32
1, 69120, Note_on_c, 0, 54, 38
1, 69120, Control_c, 0, 64, 0
1, 69194, Control_c, 0, 64, 127
1, 69201, Note_on_c, 0, 54, 0
1, 69201, Note_on_c, 0, 59, 33
1, 69280, Note_on_c, 0, 57, 33
1, 69281, Note_on_c, 0, 59, 0
1, 69360, Tempo, 1304348
1, 69360, Note_on_c, 0, 78, 0
1, 69360, Note_on_c, 0, 66, 0
1, 69360, Note_on_c, 0, 57, 0
1, 69360, Note_on_c, 0, 56, 38
1, 69368, Control_c, 0, 64, 0
1, 69406, Control_c, 0, 64, 127
1, 69440, Note_on_c, 0, 59, 34
1, 69441, Note_on_c, 0, 56, 0
1, 69520, Note_on_c, 0, 59, 0
1, 69520, Note_on_c, 0, 57, 34
1, 69580, Note_on_c, 0, 57, 0
1, 69600, Note_on_c, 0, 38, 58
1, 69600, Note_on_c, 0, 54, 38
1, 69604, Control_c, 0, 64, 0
1, 69660, Control_c, 0, 64, 127
1, 69681, Note_on_c, 0, 54, 0
1, 69681, Note_on_c, 0, 59, 33
1, 69720, Tempo, 1363636
1, 69760, Note_on_c, 0, 57, 33
1, 69761, Note_on_c, 0, 59, 0
1, 69820, Note_on_c, 0, 57, 0
1, 69840, Tempo, 1318681
1, 69840, Note_on_c, 0, 56, 38
1, 69843, Control_c, 0, 64, 0
1, 69897, Control_c, 0, 64, 127
1, 69920, Note_on_c, 0, 59, 33
1, 69921, Note_on_c, 0, 56, 0
1, 70000, Note_on_c, 0, 59, 0
1, 70000, Note_on_c, 0, 57, 33
1, 70060, Note_on_c, 0, 57, 0
1, 70078, Note_on_c, 0, 38, 0
1, 70080, Note_on_c, 0, 38, 56
1, 70080, Note_on_c, 0, 54, 38
1, 70090, Control_c, 0, 64, 0
1, 70140, Control_c, 0, 64, 127
1, 70161, Note_on_c, 0, 54, 0
1, 70161, Note_on_c, 0, 59, 34
1, 70240, Note_on_c, 0, 57, 34
1, 70241, Note_on_c, 0, 59, 0
1, 70300, Note_on_c, 0, 57, 0
1, 70318, Note_on_c, 0, 38, 0
1, 70320, Tempo, 1379310
1, 70320, Note_on_c, 0, 50, 0
1, 70320, Note_on_c, 0, 38, 56
1, 70320, Note_on_c, 0, 50, 32
1, 70320, Note_on_c, 0, 54, 38
1, 70329, Control_c, 0, 64, 0
1, 70394, Control_c, 0, 64, 127
1, 70400, Note_on_c, 0, 38, 0
1, 70400, Note_on_c, 0, 37, 50
1, 70400, Note_on_c, 0, 58, 34
1, 70401, Note_on_c, 0, 54, 0
1, 70440, Tempo, 1500000
1, 70480, Note_on_c, 0, 58, 0
1, 70480, Note_on_c, 0, 37, 0
1, 70480, Note_on_c, 0, 38, 50
1, 70480, Note_on_c, 0, 57, 34
1, 70540, Note_on_c, 0, 57, 0
1, 70540, Note_on_c, 0, 38, 0
1, 70560, Tempo, 1318681
1, 70560, Note_on_c, 0, 50, 0
1, 70560, Note_on_c, 0, 33, 52
1, 70560, Note_on_c, 0, 49, 32
1, 70560, Note_on_c, 0, 52, 38
1, 70560, Control_c, 0, 64, 0
1, 70634, Control_c, 0, 64, 127
1, 70640, Note_on_c, 0, 59, 33
1, 70641, Note_on_c, 0, 52, 0
1, 70720, Note_on_c, 0, 59, 0
1, 70720, Note_on_c, 0, 57, 33
1, 70780, Note_on_c, 0, 57, 0
1, 70800, Tempo, 1276596
1, 70800, Note_on_c, 0, 49, 0
1, 70800, Note_on_c, 0, 50, 32
1, 70800, Note_on_c, 0, 54, 38
1, 70808, Control_c, 0, 64, 0
1, 70846, Control_c, 0, 64, 127
1, 70880, Note_on_c, 0, 59, 34
1, 70881, Note_on_c, 0, 54, 0
1, 70960, Note_on_c, 0, 59, 0
1, 70960, Note_on_c, 0, 57, 34
1, 71020, Note_on_c, 0, 57, 0
1, 71038, Note_on_c, 0, 33, 0
1, 71040, Tempo, 1224490
1, 71040, Note_on_c, 0, 50, 0
1, 71040, Note_on_c, 0, 33, 52
1, 71040, Note_on_c, 0, 52, 34
1, 71040, Note_on_c, 0, 55, 41
1, 71044, Control_c, 0, 64, 0
1, 71100, Control_c, 0, 64, 127
1, 71120, Note_on_c, 0, 59, 36
1, 71121, Note_on_c, 0, 55, 0
1, 71160, Tempo, 1445783
1, 71200, Note_on_c, 0, 59, 0
1, 71200, Note_on_c, 0, 57, 36
1, 71260, Note_on_c, 0, 57, 0
1, 71278, Note_on_c, 0, 52, 0
1, 71280, Tempo, 1250000
1, 71280, Note_on_c, 0, 52, 34
1, 71280, Note_on_c, 0, 55, 40
1, 71283, Control_c, 0, 64, 0
1, 71337, Control_c, 0, 64, 127
1, 71360, Note_on_c, 0, 59, 34
1, 71361, Note_on_c, 0, 55, 0
1, 71400, Tempo, 1333333
1, 71440, Note_on_c, 0, 59, 0
1, 71440, Note_on_c, 0, 57, 34
1, 71500, Note_on_c, 0, 57, 0
1, 71518, Note_on_c, 0, 33, 0
1, 71520, Tempo, 1290323
1, 71520, Note_on_c, 0, 52, 0
1, 71520, Note_on_c, 0, 33, 52
1, 71520, Note_on_c, 0, 50, 32
1, 71520, Note_on_c, 0, 54, 38
1, 71530, Control_c, 0, 64, 0
1, 71580, Control_c, 0, 64, 127
1, 71600, Note_on_c, 0, 59, 32
1, 71601, Note_on_c, 0, 54, 0
1, 71680, Note_on_c, 0, 59, 0
1, 71680, Note_on_c, 0, 57, 32
1, 71740, Note_on_c, 0, 57, 0
1, 71760, Note_on_c, 0, 50, 0
1, 71760, Note_on_c, 0, 49, 31
1, 71760, Note_on_c, 0, 52, 37
1, 71769, Control_c, 0, 64, 0
1, 71817, Control_c, 0, 64, 127
1, 71840, Note_on_c, 0, 59, 34
1, 71841, Note_on_c, 0, 52, 0
1, 71880, Tempo, 1428571
1, 71920, Note_on_c, 0, 59, 0
1, 71920, Note_on_c, 0, 57, 34
1, 71980, Note_on_c, 0, 57, 0
1, 72000, Tempo, 1333333
1, 72000, Note_on_c, 0, 49, 0
1, 72000, Note_on_c, 0, 33, 0
1, 72000, Note_on_c, 0, 30, 52
1, 72000, Note_on_c, 0, 50, 32
1, 72000, Note_on_c, 0, 54, 38
1, 72000, Control_c, 0, 64, 0
1, 72049, Control_c, 0, 64, 127
1, 72081, Note_on_c, 0, 54, 0
1, 72081, Note_on_c, 0, 59, 39
1, 72160, Note_on_c, 0, 57, 39
1, 72161, Note_on_c, 0, 59, 0
1, 72240, Tempo, 1304348
1, 72240, Note_on_c, 0, 57, 0
1, 72240, Note_on_c, 0, 30, 0
1, 72240, Note_on_c, 0, 56, 46
1, 72248, Control_c, 0, 64, 0
1, 72286, Control_c, 0, 64, 127
1, 72320, Note_on_c, 0, 59, 41
1, 72321, Note_on_c, 0, 56, 0
1, 72360, Tempo, 1379310
1, 72400, Note_on_c, 0, 59, 0
1, 72400, Note_on_c, 0, 57, 42
1, 72460, Note_on_c, 0, 57, 0
1, 72480, Tempo, 1318681
1, 72480, Note_on_c, 0, 86, 70
1, 72480, Note_on_c, 0, 74, 61
1, 72480, Note_on_c, 0, 54, 47
1, 72484, Control_c, 0, 64, 0
1, 72540, Control_c, 0, 64, 127
1, 72561, Note_on_c, 0, 54, 0
1, 72561, Note_on_c, 0, 59, 41
1, 72640, Note_on_c, 0, 57, 42
1, 72641, Note_on_c, 0, 59, 0
1, 72700, Note_on_c, 0, 57, 0
1, 72720, Tempo, 1318681
1, 72720, Note_on_c, 0, 56, 49
1, 72723, Control_c, 0, 64, 0
1, 72777, Control_c, 0, 64, 127
1, 72800, Note_on_c, 0, 59, 42
1, 72801, Note_on_c, 0, 56, 0
1, 72880, Note_on_c, 0, 59, 0
1, 72880, Note_on_c, 0, 57, 43
1, 72940, Note_on_c, 0, 57, 0
1, 72958, Note_on_c, 0, 74, 0
1, 72958, Note_on_c, 0, 86, 0
1, 72960, Note_on_c, 0, 74, 61
1, 72960, Note_on_c, 0, 86, 70
1, 72960, Note_on_c, 0, 54, 50
1, 72970, Control_c, 0, 64, 0
1, 73020, Control_c, 0, 64, 127
1, 73041, Note_on_c, 0, 54, 0
1, 73041, Note_on_c, 0, 59, 45
1, 73120, Note_on_c, 0, 57, 45
1, 73121, Note_on_c, 0, 59, 0
1, 73180, Note_on_c, 0, 57, 0
1, 73198, Note_on_c, 0, 86, 0
1, 73198, Note_on_c, 0, 74, 0
1, 73200, Tempo, 1290323
1, 73200, Note_on_c, 0, 50, 0
1, 73200, Note_on_c, 0, 86, 68
1, 73200, Note_on_c, 0, 74, 59
1, 73200, Note_on_c, 0, 50, 43
1, 73200, Note_on_c, 0, 54, 51
1, 73209, Control_c, 0, 64, 0
1, 73274, Control_c, 0, 64, 127
1, 73280, Note_on_c, 0, 73, 53
1, 73280, Note_on_c, 0, 85, 60
1, 73280, Note_on_c, 0, 58, 50
1, 73281, Note_on_c, 0, 54, 0
1, 73281, Note_on_c, 0, 74, 0
1, 73281, Note_on_c, 0, 86, 0
1, 73320, Tempo, 1379310
1, 73360, Note_on_c, 0, 73, 0
1, 73360, Note_on_c, 0, 85, 0
1, 73360, Note_on_c, 0, 58, 0
1, 73360, Note_on_c, 0, 74, 53
1, 73360, Note_on_c, 0, 86, 60
1, 73360, Note_on_c, 0, 57, 50
1, 73420, Note_on_c, 0, 57, 0
1, 73420, Note_on_c, 0, 86, 0
1, 73440, Tempo, 1318681
1, 73440, Note_on_c, 0, 74, 0
1, 73440, Note_on_c, 0, 50, 0
1, 73440, Note_on_c, 0, 81, 67
1, 73440, Note_on_c, 0, 69, 59
1, 73440, Note_on_c, 0, 49, 44
1, 73440, Note_on_c, 0, 52, 53
1, 73440, Control_c, 0, 64, 0
1, 73486, Control_c, 0, 64, 127
1, 73520, Note_on_c, 0, 59, 46
1, 73521, Note_on_c, 0, 52, 0
1, 73600, Note_on_c, 0, 59, 0
1, 73600, Note_on_c, 0, 57, 46
1, 73660, Note_on_c, 0, 57, 0
1, 73680, Tempo, 1290323
1, 73680, Note_on_c, 0, 49, 0
1, 73680, Note_on_c, 0, 50, 45
1, 73680, Note_on_c, 0, 54, 54
1, 73688, Control_c, 0, 64, 0
1, 73726, Control_c, 0, 64, 127
1, 73760, Note_on_c, 0, 59, 48
1, 73761, Note_on_c, 0, 54, 0
1, 73840, Note_on_c, 0, 59, 0
1, 73840, Note_on_c, 0, 57, 49
1, 73900, Note_on_c, 0, 57, 0
1, 73918, Note_on_c, 0, 81, 0
1, 73919, Note_on_c, 0, 69, 0
1, 73920, Tempo, 1263158
1, 73920, Note_on_c, 0, 50, 0
1, 73920, Note_on_c, 0, 69, 62
1, 73920, Note_on_c, 0, 81, 70
1, 73920, Note_on_c, 0, 52, 50
1, 73920, Note_on_c, 0, 55, 60
1, 73924, Control_c, 0, 64, 0
1, 73980, Control_c, 0, 64, 127
1, 74000, Note_on_c, 0, 59, 53
1, 74001, Note_on_c, 0, 55, 0
1, 74040, Tempo, 1379310
1, 74080, Note_on_c, 0, 59, 0
1, 74080, Note_on_c, 0, 57, 54
1, 74140, Note_on_c, 0, 57, 0
1, 74160, Tempo, 1250000
1, 74160, Note_on_c, 0, 52, 0
1, 74160, Note_on_c, 0, 52, 50
1, 74160, Note_on_c, 0, 55, 60
1, 74163, Control_c, 0, 64, 0
1, 74217, Control_c, 0, 64, 127
1, 74240, Note_on_c, 0, 59, 51
1, 74241, Note_on_c, 0, 55, 0
1, 74280, Tempo, 1333333
1, 74320, Note_on_c, 0, 59, 0
1, 74320, Note_on_c, 0, 57, 51
1, 74380, Note_on_c, 0, 57, 0
1, 74398, Note_on_c, 0, 81, 0
1, 74398, Note_on_c, 0, 69, 0
1, 74400, Tempo, 1290323
1, 74400, Note_on_c, 0, 52, 0
1, 74400, Note_on_c, 0, 69, 61
1, 74400, Note_on_c, 0, 81, 70
1, 74400, Note_on_c, 0, 50, 49
1, 74400, Note_on_c, 0, 54, 58
1, 74410, Control_c, 0, 64, 0
1, 74460, Control_c, 0, 64, 127
1, 74480, Note_on_c, 0, 59, 49
1, 74481, Note_on_c, 0, 54, 0
1, 74560, Note_on_c, 0, 59, 0
1, 74560, Note_on_c, 0, 57, 50
1, 74620, Note_on_c, 0, 57, 0
1, 74640, Tempo, 1318681
1, 74640, Note_on_c, 0, 50, 0
1, 74640, Note_on_c, 0, 49, 49
1, 74640, Note_on_c, 0, 52, 58
1, 74649, Control_c, 0, 64, 0
1, 74714, Control_c, 0, 64, 127
1, 74720, Note_on_c, 0, 57, 53
1, 74721, Note_on_c, 0, 52, 0
1, 74760, Tempo, 1428571
1, 74800, Note_on_c, 0, 81, 0
1, 74800, Note_on_c, 0, 69, 0
1, 74800, Note_on_c, 0, 57, 0
1, 74800, Note_on_c, 0, 67, 45
1, 74800, Note_on_c, 0, 79, 50
1, 74800, Note_on_c, 0, 55, 40
1, 74860, Note_on_c, 0, 55, 0
1, 74880, Tempo, 1290323
1, 74880, Note_on_c, 0, 49, 0
1, 74880, Note_on_c, 0, 67, 0
1, 74880, Note_on_c, 0, 79, 0
1, 74880, Note_on_c, 0, 66, 50
1, 74880, Note_on_c, 0, 78, 50
1, 74880, Note_on_c, 0, 54, 40
1, 74880, Note_on_c, 0, 50, 50
1, 74891, Control_c, 0, 64, 0
1, 74932, Control_c, 0, 64, 127
1, 74960, Note_on_c, 0, 54, 0
1, 74960, Note_on_c, 0, 57, 36
1, 75040, Note_on_c, 0, 57, 0
1, 75040, Note_on_c, 0, 55, 36
1, 75120, Tempo, 1263158
1, 75120, Note_on_c, 0, 55, 0
1, 75120, Note_on_c, 0, 66, 0
1, 75120, Note_on_c, 0, 78, 0
1, 75120, Note_on_c, 0, 66, 40
1, 75120, Note_on_c, 0, 78, 50
1, 75120, Note_on_c, 0, 54, 40
1, 75127, Control_c, 0, 64, 0
1, 75172, Control_c, 0, 64, 127
1, 75200, Note_on_c, 0, 54, 0
1, 75200, Note_on_c, 0, 66, 0
1, 75200, Note_on_c, 0, 76, 40
1, 75200, Note_on_c, 0, 55, 38
1, 75280, Note_on_c, 0, 55, 0
1, 75280, Note_on_c, 0, 76, 0
1, 75280, Note_on_c, 0, 74, 40
1, 75280, Note_on_c, 0, 57, 38
1, 75360, Note_on_c, 0, 57, 0
1, 75360, Note_on_c, 0, 74, 0
1, 75360, Note_on_c, 0, 73, 50
1, 75360, Note_on_c, 0, 59, 40
1, 75364, Control_c, 0, 64, 0
1, 75403, Control_c, 0, 64, 127
1, 75440, Note_on_c, 0, 59, 0
1, 75440, Note_on_c, 0, 73, 0
1, 75440, Note_on_c, 0, 71, 41
1, 75440, Note_on_c, 0, 61, 37
1, 75520, Tempo, 1395349
1, 75520, Note_on_c, 0, 61, 0
1, 75520, Note_on_c, 0, 71, 0
1, 75520, Note_on_c, 0, 69, 43
1, 75520, Note_on_c, 0, 62, 37
1, 75600, Tempo, 1276596
1, 75600, Note_on_c, 0, 62, 0
1, 75600, Note_on_c, 0, 50, 0
1, 75600, Note_on_c, 0, 78, 0
1, 75600, Note_on_c, 0, 69, 0
1, 75600, Note_on_c, 0, 67, 50
1, 75600, Note_on_c, 0, 79, 50
1, 75600, Note_on_c, 0, 64, 40
1, 75600, Note_on_c, 0, 52, 50
1, 75607, Control_c, 0, 64, 0
1, 75649, Control_c, 0, 64, 127
1, 75680, Note_on_c, 0, 67, 0
1, 75680, Note_on_c, 0, 70, 42
1, 75760, Note_on_c, 0, 70, 0
1, 75760, Note_on_c, 0, 69, 42
1, 75840, Tempo, 1200000
1, 75840, Note_on_c, 0, 69, 0
1, 75840, Note_on_c, 0, 64, 0
1, 75840, Note_on_c, 0, 67, 50
1, 75840, Note_on_c, 0, 64, 40
1, 75846, Control_c, 0, 64, 0
1, 75886, Control_c, 0, 64, 127
1, 75920, Tempo, 1224490
1, 75920, Note_on_c, 0, 64, 0
1, 75920, Note_on_c, 0, 67, 0
1, 75920, Note_on_c, 0, 69, 40
1, 75920, Note_on_c, 0, 62, 36
1, 76000, Note_on_c, 0, 62, 0
1, 76000, Note_on_c, 0, 69, 0
1, 76000, Note_on_c, 0, 71, 40
1, 76000, Note_on_c, 0, 61, 36
1, 76080, Note_on_c, 0, 61, 0
1, 76080, Note_on_c, 0, 71, 0
1, 76080, Note_on_c, 0, 73, 50
1, 76080, Note_on_c, 0, 59, 40
1, 76087, Control_c, 0, 64, 0
1, 76135, Control_c, 0, 64, 127
1, 76160, Note_on_c, 0, 59, 0
1, 76160, Note_on_c, 0, 73, 0
1, 76160, Note_on_c, 0, 74, 41
1, 76160, Note_on_c, 0, 57, 35
1, 76240, Tempo, 1363636
1, 76240, Note_on_c, 0, 57, 0
1, 76240, Note_on_c, 0, 74, 0
1, 76240, Note_on_c, 0, 76, 41
1, 76240, Note_on_c, 0, 55, 35
1, 76320, Tempo, 1290323
1, 76320, Note_on_c, 0, 55, 0
1, 76320, Note_on_c, 0, 52, 0
1, 76320, Note_on_c, 0, 79, 0
1, 76320, Note_on_c, 0, 76, 0
1, 76320, Note_on_c, 0, 69, 50
1, 76320, Note_on_c, 0, 81, 50
1, 76320, Note_on_c, 0, 61, 40
1, 76320, Note_on_c, 0, 54, 50
1, 76331, Control_c, 0, 64, 0
1, 76372, Control_c, 0, 64, 127
1, 76400, Note_on_c, 0, 61, 0
1, 76400, Note_on_c, 0, 62, 36
1, 76480, Note_on_c, 0, 62, 0
1, 76480, Note_on_c, 0, 61, 37
1, 76560, Tempo, 1263158
1, 76560, Note_on_c, 0, 61, 0
1, 76560, Note_on_c, 0, 69, 0
1, 76560, Note_on_c, 0, 81, 0
1, 76560, Note_on_c, 0, 69, 42
1, 76560, Note_on_c, 0, 81, 52
1, 76560, Note_on_c, 0, 57, 42
1, 76567, Control_c, 0, 64, 0
1, 76612, Control_c, 0, 64, 127
1, 76640, Note_on_c, 0, 57, 0
1, 76640, Note_on_c, 0, 69, 0
1, 76640, Note_on_c, 0, 79, 42
1, 76640, Note_on_c, 0, 59, 40
1, 76720, Note_on_c, 0, 59, 0
1, 76720, Note_on_c, 0, 79, 0
1, 76720, Note_on_c, 0, 78, 43
1, 76720, Note_on_c, 0, 60, 41
1, 76800, Note_on_c, 0, 60, 0
1, 76800, Note_on_c, 0, 78, 0
1, 76800, Note_on_c, 0, 76, 55
1, 76800, Note_on_c, 0, 62, 44
1, 76804, Control_c, 0, 64, 0
1, 76843, Control_c, 0, 64, 127
1, 76880, Note_on_c, 0, 62, 0
1, 76880, Note_on_c, 0, 76, 0
1, 76880, Note_on_c, 0, 74, 45
1, 76880, Note_on_c, 0, 64, 41
1, 76960, Tempo, 1395349
1, 76960, Note_on_c, 0, 64, 0
1, 76960, Note_on_c, 0, 74, 0
1, 76960, Note_on_c, 0, 72, 48
1, 76960, Note_on_c, 0, 66, 41
1, 77040, Tempo, 1276596
1, 77040, Note_on_c, 0, 66, 0
1, 77040, Note_on_c, 0, 54, 0
1, 77040, Note_on_c, 0, 81, 0
1, 77040, Note_on_c, 0, 72, 0
1, 77040, Note_on_c, 0, 71, 57
1, 77040, Note_on_c, 0, 83, 57
1, 77040, Note_on_c, 0, 67, 46
1, 77040, Note_on_c, 0, 55, 57
1, 77047, Control_c, 0, 64, 0
1, 77089, Control_c, 0, 64, 127
1, 77120, Note_on_c, 0, 71, 0
1, 77120, Note_on_c, 0, 74, 48
1, 77200, Note_on_c, 0, 74, 0
1, 77200, Note_on_c, 0, 72, 49
1, 77280, Tempo, 1200000
1, 77280, Note_on_c, 0, 72, 0
1, 77280, Note_on_c, 0, 71, 60
1, 77286, Control_c, 0, 64, 0
1, 77326, Control_c, 0, 64, 127
1, 77360, Tempo, 1224490
1, 77360, Note_on_c, 0, 71, 0
1, 77360, Note_on_c, 0, 67, 0
1, 77360, Note_on_c, 0, 72, 48
1, 77360, Note_on_c, 0, 66, 43
1, 77440, Note_on_c, 0, 66, 0
1, 77440, Note_on_c, 0, 72, 0
1, 77440, Note_on_c, 0, 74, 49
1, 77440, Note_on_c, 0, 64, 44
1, 77520, Note_on_c, 0, 64, 0
1, 77520, Note_on_c, 0, 74, 0
1, 77520, Note_on_c, 0, 76, 62
1, 77520, Note_on_c, 0, 62, 50
1, 77527, Control_c, 0, 64, 0
1, 77575, Control_c, 0, 64, 127
1, 77600, Note_on_c, 0, 62, 0
1, 77600, Note_on_c, 0, 76, 0
1, 77600, Note_on_c, 0, 78, 51
1, 77600, Note_on_c, 0, 60, 44
1, 77680, Tempo, 1363636
1, 77680, Note_on_c, 0, 60, 0
1, 77680, Note_on_c, 0, 78, 0
1, 77680, Note_on_c, 0, 79, 52
1, 77680, Note_on_c, 0, 59, 44
1, 77760, Tempo, 1290323
1, 77760, Note_on_c, 0, 59, 0
1, 77760, Note_on_c, 0, 55, 0
1, 77760, Note_on_c, 0, 83, 0
1, 77760, Note_on_c, 0, 85, 65
1, 77760, Note_on_c, 0, 64, 52
1, 77760, Note_on_c, 0, 57, 65
1, 77771, Control_c, 0, 64, 0
1, 77812, Control_c, 0, 64, 127
1, 77840, Note_on_c, 0, 64, 0
1, 77840, Note_on_c, 0, 79, 0
1, 77840, Note_on_c, 0, 79, 53
1, 77840, Note_on_c, 0, 61, 47
1, 77920, Note_on_c, 0, 61, 0
1, 77920, Note_on_c, 0, 79, 0
1, 77920, Note_on_c, 0, 78, 54
1, 77920, Note_on_c, 0, 62, 47
1, 78000, Tempo, 1263158
1, 78000, Note_on_c, 0, 62, 0
1, 78000, Note_on_c, 0, 78, 0
1, 78000, Note_on_c, 0, 85, 0
1, 78000, Note_on_c, 0, 76, 54
1, 78000, Note_on_c, 0, 64, 54
1, 78007, Control_c, 0, 64, 0
1, 78052, Control_c, 0, 64, 127
1, 78080, Note_on_c, 0, 64, 0
1, 78080, Note_on_c, 0, 76, 0
1, 78080, Note_on_c, 0, 74, 54
1, 78080, Note_on_c, 0, 66, 51
1, 78160, Note_on_c, 0, 66, 0
1, 78160, Note_on_c, 0, 74, 0
1, 78160, Note_on_c, 0, 73, 55
1, 78160, Note_on_c, 0, 67, 52
1, 78240, Note_on_c, 0, 67, 0
1, 78240, Note_on_c, 0, 73, 0
1, 78240, Note_on_c, 0, 57, 0
1, 78240, Note_on_c, 0, 86, 70
1, 78240, Note_on_c, 0, 74, 70
1, 78240, Note_on_c, 0, 59, 70
1, 78240, Note_on_c, 0, 66, 56
1, 78244, Control_c, 0, 64, 0
1, 78283, Control_c, 0, 64, 127
1, 78320, Note_on_c, 0, 66, 0
1, 78320, Note_on_c, 0, 74, 0
1, 78320, Note_on_c, 0, 76, 57
1, 78320, Note_on_c, 0, 64, 52
1, 78400, Tempo, 1395349
1, 78400, Note_on_c, 0, 64, 0
1, 78400, Note_on_c, 0, 76, 0
1, 78400, Note_on_c, 0, 78, 61
1, 78400, Note_on_c, 0, 62, 52
1, 78480, Tempo, 1276596
1, 78480, Note_on_c, 0, 62, 0
1, 78480, Note_on_c, 0, 86, 0
1, 78480, Note_on_c, 0, 59, 0
1, 78480, Note_on_c, 0, 78, 0
1, 78480, Note_on_c, 0, 76, 72
1, 78480, Note_on_c, 0, 88, 77
1, 78480, Note_on_c, 0, 70, 58
1, 78480, Note_on_c, 0, 61, 72
1, 78487, Control_c, 0, 64, 0
1, 78529, Control_c, 0, 64, 127
1, 78560, Note_on_c, 0, 70, 0
1, 78560, Note_on_c, 0, 76, 0
1, 78560, Note_on_c, 0, 82, 61
1, 78560, Note_on_c, 0, 64, 52
1, 78640, Note_on_c, 0, 64, 0
1, 78640, Note_on_c, 0, 82, 0
1, 78640, Note_on_c, 0, 81, 62
1, 78640, Note_on_c, 0, 66, 53
1, 78720, Tempo, 1200000
1, 78720, Note_on_c, 0, 66, 0
1, 78720, Note_on_c, 0, 81, 0
1, 78720, Note_on_c, 0, 79, 75
1, 78720, Note_on_c, 0, 67, 60
1, 78726, Control_c, 0, 64, 0
1, 78766, Control_c, 0, 64, 127
1, 78800, Tempo, 1224490
1, 78800, Note_on_c, 0, 67, 0
1, 78800, Note_on_c, 0, 79, 0
1, 78800, Note_on_c, 0, 78, 60
1, 78800, Note_on_c, 0, 69, 57
1, 78880, Note_on_c, 0, 69, 0
1, 78880, Note_on_c, 0, 78, 0
1, 78880, Note_on_c, 0, 76, 61
1, 78880, Note_on_c, 0, 70, 58
1, 78960, Note_on_c, 0, 70, 0
1, 78960, Note_on_c, 0, 61, 0
1, 78960, Note_on_c, 0, 88, 0
1, 78960, Note_on_c, 0, 76, 0
1, 78960, Note_on_c, 0, 78, 77
1, 78960, Note_on_c, 0, 90, 83
1, 78960, Note_on_c, 0, 63, 77
1, 78960, Note_on_c, 0, 69, 62
1, 78967, Control_c, 0, 64, 0
1, 79015, Control_c, 0, 64, 127
1, 79040, Note_on_c, 0, 69, 0
1, 79040, Note_on_c, 0, 78, 0
1, 79040, Note_on_c, 0, 79, 63
1, 79040, Note_on_c, 0, 67, 57
1, 79120, Tempo, 1363636
1, 79120, Note_on_c, 0, 67, 0
1, 79120, Note_on_c, 0, 79, 0
1, 79120, Note_on_c, 0, 81, 64
1, 79120, Note_on_c, 0, 66, 58
1, 79200, Tempo, 1276596
1, 79200, Note_on_c, 0, 66, 0
1, 79200, Note_on_c, 0, 90, 0
1, 79200, Note_on_c, 0, 63, 0
1, 79200, Note_on_c, 0, 81, 0
1, 79200, Note_on_c, 0, 91, 88
1, 79200, Note_on_c, 0, 79, 72
1, 79200, Note_on_c, 0, 67, 58
1, 79200, Note_on_c, 0, 64, 72
1, 79207, Control_c, 0, 64, 0
1, 79249, Control_c, 0, 64, 127
1, 79280, Note_on_c, 0, 67, 0
1, 79280, Note_on_c, 0, 79, 0
1, 79280, Note_on_c, 0, 78, 61
1, 79280, Note_on_c, 0, 70, 52
1, 79360, Note_on_c, 0, 70, 0
1, 79360, Note_on_c, 0, 78, 0
1, 79360, Note_on_c, 0, 76, 62
1, 79360, Note_on_c, 0, 73, 53
1, 79440, Tempo, 1200000
1, 79440, Note_on_c, 0, 73, 0
1, 79440, Note_on_c, 0, 64, 0
1, 79440, Note_on_c, 0, 91, 0
1, 79440, Note_on_c, 0, 76, 0
1, 79440, Note_on_c, 0, 81, 74
1, 79440, Note_on_c, 0, 75, 63
1, 79440, Note_on_c, 0, 66, 50
1, 79440, Note_on_c, 0, 72, 51
1, 79446, Control_c, 0, 64, 0
1, 79486, Control_c, 0, 64, 127
1, 79520, Tempo, 1224490
1, 79520, Note_on_c, 0, 72, 0
1, 79520, Note_on_c, 0, 75, 0
1, 79520, Note_on_c, 0, 74, 51
1, 79520, Note_on_c, 0, 71, 48
1, 79600, Note_on_c, 0, 71, 0
1, 79600, Note_on_c, 0, 74, 0
1, 79600, Note_on_c, 0, 75, 51
1, 79600, Note_on_c, 0, 72, 49
1, 79680, Note_on_c, 0, 72, 0
1, 79680, Note_on_c, 0, 81, 0
1, 79680, Note_on_c, 0, 66, 0
1, 79680, Note_on_c, 0, 75, 0
1, 79680, Note_on_c, 0, 83, 70
1, 79680, Note_on_c, 0, 74, 65
1, 79680, Note_on_c, 0, 67, 65
1, 79680, Note_on_c, 0, 71, 52
1, 79687, Control_c, 0, 64, 0
1, 79735, Control_c, 0, 64, 127
1, 79760, Note_on_c, 0, 71, 0
1, 79760, Note_on_c, 0, 74, 0
1, 79760, Note_on_c, 0, 72, 53
1, 79760, Note_on_c, 0, 69, 48
1, 79840, Tempo, 1363636
1, 79840, Note_on_c, 0, 69, 0
1, 79840, Note_on_c, 0, 72, 0
1, 79840, Note_on_c, 0, 67, 0
1, 79840, Note_on_c, 0, 71, 54
1, 79840, Note_on_c, 0, 55, 52
1, 79840, Note_on_c, 0, 67, 52
1, 79920, Tempo, 1276596
1, 79920, Note_on_c, 0, 67, 0
1, 79920, Note_on_c, 0, 83, 0
1, 79920, Note_on_c, 0, 71, 0
1, 79920, Note_on_c, 0, 55, 0
1, 79920, Note_on_c, 0, 74, 53
1, 79920, Note_on_c, 0, 77, 70
1, 79920, Note_on_c, 0, 59, 48
1, 79920, Note_on_c, 0, 56, 52
1, 79925, Control_c, 0, 64, 0
1, 79960, Control_c, 0, 64, 127
1, 80000, Note_on_c, 0, 59, 0
1, 80000, Note_on_c, 0, 74, 0
1, 80000, Note_on_c, 0, 73, 48
1, 80000, Note_on_c, 0, 61, 47
1, 80080, Note_on_c, 0, 61, 0
1, 80080, Note_on_c, 0, 73, 0
1, 80080, Note_on_c, 0, 71, 47
1, 80080, Note_on_c, 0, 62, 39
1, 80160, Tempo, 1318681
1, 80160, Note_on_c, 0, 62, 0
1, 80160, Note_on_c, 0, 71, 0
1, 80160, Note_on_c, 0, 68, 52
1, 80160, Note_on_c, 0, 65, 45
1, 80168, Control_c, 0, 64, 0
1, 80197, Control_c, 0, 64, 127
1, 80240, Note_on_c, 0, 65, 0
1, 80240, Note_on_c, 0, 68, 0
1, 80240, Note_on_c, 0, 69, 46
1, 80240, Note_on_c, 0, 64, 38
1, 80320, Note_on_c, 0, 64, 0
1, 80320, Note_on_c, 0, 69, 0
1, 80320, Note_on_c, 0, 71, 45
1, 80320, Note_on_c, 0, 62, 37
1, 80400, Tempo, 1363636
1, 80400, Note_on_c, 0, 62, 0
1, 80400, Note_on_c, 0, 56, 0
1, 80400, Note_on_c, 0, 77, 0
1, 80400, Note_on_c, 0, 71, 0
1, 80400, Note_on_c, 0, 73, 47
1, 80400, Note_on_c, 0, 76, 58
1, 80400, Note_on_c, 0, 61, 43
1, 80400, Note_on_c, 0, 55, 38
1, 80407, Control_c, 0, 64, 0
1, 80408, Tempo, 1318681
1, 80437, Control_c, 0, 64, 127
1, 80446, Tempo, 1333333
1, 80480, Note_on_c, 0, 61, 0
1, 80480, Note_on_c, 0, 73, 0
1, 80480, Note_on_c, 0, 70, 44
1, 80480, Note_on_c, 0, 63, 36
1, 80485, Tempo, 1348315
1, 80504, Tempo, 1363636
1, 80520, Tempo, 1739130
1, 80560, Note_on_c, 0, 63, 0
1, 80560, Note_on_c, 0, 70, 0
1, 80560, Note_on_c, 0, 69, 43
1, 80560, Note_on_c, 0, 64, 35
1, 80640, Tempo, 1379310
1, 80640, Note_on_c, 0, 64, 0
1, 80640, Note_on_c, 0, 55, 0
1, 80640, Note_on_c, 0, 76, 0
1, 80640, Note_on_c, 0, 69, 0
1, 80640, Note_on_c, 0, 75, 51
1, 80640, Note_on_c, 0, 81, 61
1, 80640, Note_on_c, 0, 66, 39
1, 80640, Note_on_c, 0, 69, 46
1, 80643, Control_c, 0, 64, 0
1, 80774, Control_c, 0, 64, 127
1, 81360, Note_on_c, 0, 69, 0
1, 81360, Note_on_c, 0, 75, 0
1, 81360, Note_on_c, 0, 81, 0
1, 81360, Note_on_c, 0, 66, 0
1, 81360, Note_on_c, 0, 83, 52
1, 81360, Note_on_c, 0, 78, 44
1, 81360, Note_on_c, 0, 71, 44
1, 81360, Note_on_c, 0, 63, 32
1, 81360, Note_on_c, 0, 66, 38
1, 81374, Control_c, 0, 64, 0
1, 81534, Control_c, 0, 64, 127
1, 81838, Note_on_c, 0, 66, 0
1, 81838, Note_on_c, 0, 71, 0
1, 81838, Note_on_c, 0, 83, 0
1, 81838, Note_on_c, 0, 78, 0
1, 81838, Note_on_c, 0, 63, 0
1, 81840, Note_on_c, 0, 78, 51
1, 81840, Note_on_c, 0, 75, 43
1, 81840, Note_on_c, 0, 71, 43
1, 81840, Note_on_c, 0, 59, 26
1, 81840, Note_on_c, 0, 63, 26
1, 81840, Note_on_c, 0, 66, 31
1, 82080, Note_on_c, 0, 66, 0
1, 82080, Note_on_c, 0, 75, 0
1, 82080, Note_on_c, 0, 71, 0
1, 82080, Note_on_c, 0, 78, 0
1, 82080, Note_on_c, 0, 63, 0
1, 82080, Note_on_c, 0, 59, 0
1, 82080, Note_on_c, 0, 81, 61
1, 82080, Note_on_c, 0, 64, 41
1, 82080, Note_on_c, 0, 67, 41
1, 82107, Control_c, 0, 64, 0
1, 82140, Control_c, 0, 64, 127
1, 82200, Note_on_c, 0, 81, 0
1, 82200, Note_on_c, 0, 78, 57
1, 82320, Tempo, 1379310
1, 82320, Note_on_c, 0, 78, 0
1, 82320, Note_on_c, 0, 91, 66
1, 82320, Note_on_c, 0, 79, 66
1, 82440, Note_on_c, 0, 79, 0
1, 82440, Note_on_c, 0, 64, 0
1, 82440, Note_on_c, 0, 67, 0
1, 82440, Note_on_c, 0, 91, 0
1, 82440, Note_on_c, 0, 71, 62
1, 82440, Note_on_c, 0, 83, 62
1, 82440, Note_on_c, 0, 55, 30
1, 82440, Note_on_c, 0, 59, 36
1, 82560, Tempo, 1363636
1, 82560, Note_on_c, 0, 59, 0
1, 82560, Note_on_c, 0, 71, 0
1, 82560, Note_on_c, 0, 83, 0
1, 82560, Note_on_c, 0, 55, 0
1, 82560, Note_on_c, 0, 90, 69
1, 82560, Note_on_c, 0, 78, 69
1, 82560, Note_on_c, 0, 55, 43
1, 82560, Note_on_c, 0, 69, 43
1, 82574, Control_c, 0, 64, 0
1, 82624, Control_c, 0, 64, 127
1, 82680, Tempo, 1500000
1, 82680, Note_on_c, 0, 69, 0
1, 82680, Note_on_c, 0, 90, 0
1, 82680, Note_on_c, 0, 78, 0
1, 82680, Note_on_c, 0, 88, 62
1, 82680, Note_on_c, 0, 76, 62
1, 82680, Note_on_c, 0, 67, 37
1, 82800, Tempo, 1379310
1, 82800, Note_on_c, 0, 67, 0
1, 82800, Note_on_c, 0, 55, 0
1, 82800, Note_on_c, 0, 88, 0
1, 82800, Note_on_c, 0, 76, 0
1, 82800, Note_on_c, 0, 86, 52
1, 82800, Note_on_c, 0, 74, 62
1, 82800, Note_on_c, 0, 66, 46
1, 82800, Note_on_c, 0, 57, 39
1, 82809, Control_c, 0, 64, 0
1, 82874, Control_c, 0, 64, 127
1, 82920, Note_on_c, 0, 66, 0
1, 82920, Note_on_c, 0, 74, 0
1, 82920, Note_on_c, 0, 77, 65
1, 82920, Note_on_c, 0, 68, 39
1, 83040, Tempo, 1333333
1, 83040, Note_on_c, 0, 68, 0
1, 83040, Note_on_c, 0, 77, 0
1, 83040, Note_on_c, 0, 79, 69
1, 83040, Note_on_c, 0, 71, 44
1, 83046, Control_c, 0, 64, 0
1, 83090, Control_c, 0, 64, 127
1, 83160, Note_on_c, 0, 71, 0
1, 83160, Note_on_c, 0, 79, 0
1, 83160, Note_on_c, 0, 78, 64
1, 83160, Note_on_c, 0, 69, 40
1, 83280, Note_on_c, 0, 69, 0
1, 83280, Note_on_c, 0, 57, 0
1, 83280, Note_on_c, 0, 86, 0
1, 83280, Note_on_c, 0, 78, 0
1, 83280, Note_on_c, 0, 73, 54
1, 83280, Note_on_c, 0, 81, 54
1, 83280, Note_on_c, 0, 85, 64
1, 83280, Note_on_c, 0, 76, 54
1, 83280, Note_on_c, 0, 33, 38
1, 83280, Note_on_c, 0, 45, 45
1, 83285, Control_c, 0, 64, 0
1, 83400, Note_on_c, 0, 45, 0
1, 83400, Note_on_c, 0, 81, 0
1, 83400, Note_on_c, 0, 85, 0
1, 83400, Note_on_c, 0, 73, 0
1, 83400, Note_on_c, 0, 33, 0
1, 83400, Note_on_c, 0, 76, 0
1, 83400, Note_on_c, 0, 72, 58
1, 83400, Note_on_c, 0, 81, 58
1, 83400, Note_on_c, 0, 84, 69
1, 83400, Note_on_c, 0, 75, 58
1, 83400, Note_on_c, 0, 31, 38
1, 83400, Note_on_c, 0, 43, 45
1, 83400, Control_c, 0, 64, 127
1, 83460, Note_on_c, 0, 43, 0
1, 83460, Note_on_c, 0, 31, 0
1, 83460, Note_on_c, 0, 30, 39
1, 83460, Note_on_c, 0, 42, 46
1, 83520, Tempo, 1263158
1, 83520, Note_on_c, 0, 42, 0
1, 83520, Note_on_c, 0, 81, 0
1, 83520, Note_on_c, 0, 75, 0
1, 83520, Note_on_c, 0, 72, 0
1, 83520, Note_on_c, 0, 30, 0
1, 83520, Note_on_c, 0, 84, 0
1, 83520, Note_on_c, 0, 84, 72
1, 83520, Note_on_c, 0, 81, 61
1, 83520, Note_on_c, 0, 30, 52
1, 83520, Control_c, 0, 64, 0
1, 83555, Control_c, 0, 64, 127
1, 83580, Note_on_c, 0, 30, 0
1, 83580, Note_on_c, 0, 81, 0
1, 83580, Note_on_c, 0, 78, 71
1, 83580, Note_on_c, 0, 33, 44
1, 83640, Note_on_c, 0, 33, 0
1, 83640, Note_on_c, 0, 78, 0
1, 83640, Note_on_c, 0, 75, 69
1, 83640, Note_on_c, 0, 36, 43
1, 83700, Note_on_c, 0, 36, 0
1, 83700, Note_on_c, 0, 75, 0
1, 83700, Note_on_c, 0, 72, 68
1, 83700, Note_on_c, 0, 39, 42
1, 83760, Note_on_c, 0, 39, 0
1, 83760, Note_on_c, 0, 72, 0
1, 83760, Note_on_c, 0, 84, 0
1, 83760, Note_on_c, 0, 72, 66
1, 83760, Note_on_c, 0, 69, 56
1, 83760, Note_on_c, 0, 42, 41
1, 83767, Control_c, 0, 64, 0
1, 83770, Tempo, 1263158
1, 83797, Control_c, 0, 64, 127
1, 83820, Note_on_c, 0, 42, 0
1, 83820, Note_on_c, 0, 69, 0
1, 83820, Note_on_c, 0, 66, 61
1, 83820, Note_on_c, 0, 45, 40
1, 83880, Note_on_c, 0, 45, 0
1, 83880, Note_on_c, 0, 66, 0
1, 83880, Note_on_c, 0, 63, 59
1, 83880, Note_on_c, 0, 48, 39
1, 83885, Tempo, 1276596
1, 83940, Note_on_c, 0, 48, 0
1, 83940, Note_on_c, 0, 63, 0
1, 83940, Note_on_c, 0, 60, 58
1, 83940, Note_on_c, 0, 51, 38
1, 83981, Tempo, 1290323
1, 84000, Note_on_c, 0, 51, 0
1, 84000, Note_on_c, 0, 60, 0
1, 84000, Note_on_c, 0, 69, 60
1, 84000, Note_on_c, 0, 54, 36
1, 84011, Control_c, 0, 64, 0
1, 84043, Control_c, 0, 64, 127
1, 84060, Note_on_c, 0, 54, 0
1, 84060, Note_on_c, 0, 69, 0
1, 84060, Note_on_c, 0, 63, 48
1, 84060, Note_on_c, 0, 60, 27
1, 84077, Tempo, 1304348
1, 84120, Note_on_c, 0, 60, 0
1, 84120, Note_on_c, 0, 63, 0
1, 84120, Note_on_c, 0, 72, 0
1, 84120, Note_on_c, 0, 71, 48
1, 84120, Note_on_c, 0, 59, 40
1, 84120, Note_on_c, 0, 62, 48
1, 84120, Note_on_c, 0, 55, 27
1, 84125, Control_c, 0, 64, 0
1, 84149, Control_c, 0, 64, 127
1, 84173, Tempo, 1318681
1, 84180, Tempo, 1578947
1, 84180, Note_on_c, 0, 55, 0
1, 84180, Note_on_c, 0, 62, 0
1, 84180, Note_on_c, 0, 59, 0
1, 84180, Note_on_c, 0, 67, 48
1, 84180, Note_on_c, 0, 59, 27
1, 84240, Tempo, 1333333
1, 84240, Note_on_c, 0, 59, 0
1, 84240, Note_on_c, 0, 67, 0
1, 84240, Note_on_c, 0, 71, 0
1, 84240, Note_on_c, 0, 58, 35
1, 84240, Note_on_c, 0, 70, 41
1, 84240, Note_on_c, 0, 67, 35
1, 84240, Note_on_c, 0, 62, 35
1, 84240, Note_on_c, 0, 43, 22
1, 84240, Note_on_c, 0, 55, 26
1, 84250, Control_c, 0, 64, 0
1, 84269, Tempo, 1333333
1, 84295, Control_c, 0, 64, 127
1, 84720, Note_on_c, 0, 55, 0
1, 84720, Note_on_c, 0, 70, 0
1, 84720, Note_on_c, 0, 67, 0
1, 84720, Note_on_c, 0, 58, 0
1, 84720, Note_on_c, 0, 43, 0
1, 84720, Note_on_c, 0, 62, 0
1, 84780, Control_c, 0, 64, 0
1, 84900, Tempo, 1250000
1, 84960, Tempo, 1224490
1, 84960, Note_on_c, 0, 69, 61
1, 84960, Note_on_c, 0, 66, 51
1, 84960, Note_on_c, 0, 33, 39
1, 84983, Control_c, 0, 64, 127
1, 85040, Note_on_c, 0, 33, 0
1, 85040, Note_on_c, 0, 66, 0
1, 85040, Note_on_c, 0, 62, 55
1, 85040, Note_on_c, 0, 38, 34
1, 85120, Tempo, 1428571
1, 85120, Note_on_c, 0, 38, 0
1, 85120, Note_on_c, 0, 62, 0
1, 85120, Note_on_c, 0, 57, 55
1, 85120, Note_on_c, 0, 42, 34
1, 85200, Tempo, 1212121
1, 85200, Note_on_c, 0, 42, 0
1, 85200, Note_on_c, 0, 57, 0
1, 85200, Note_on_c, 0, 69, 0
1, 85200, Note_on_c, 0, 69, 61
1, 85200, Note_on_c, 0, 66, 51
1, 85200, Note_on_c, 0, 45, 39
1, 85213, Control_c, 0, 64, 0
1, 85260, Note_on_c, 0, 66, 0
1, 85260, Note_on_c, 0, 62, 54
1, 85260, Note_on_c, 0, 50, 32
1, 85263, Control_c, 0, 64, 127
1, 85320, Note_on_c, 0, 50, 0
1, 85320, Note_on_c, 0, 62, 0
1, 85320, Note_on_c, 0, 57, 55
1, 85320, Note_on_c, 0, 54, 32
1, 85380, Tempo, 1463415
1, 85380, Note_on_c, 0, 54, 0
1, 85380, Note_on_c, 0, 57, 0
1, 85380, Note_on_c, 0, 66, 55
1, 85380, Note_on_c, 0, 57, 32
1, 85422, Tempo, 1153846
1, 85440, Note_on_c, 0, 57, 0
1, 85440, Note_on_c, 0, 66, 0
1, 85440, Note_on_c, 0, 66, 63
1, 85440, Note_on_c, 0, 50, 38
1, 85446, Control_c, 0, 64, 0
1, 85460, Tempo, 1165049
1, 85469, Control_c, 0, 64, 127
1, 85499, Tempo, 1176471
1, 85500, Note_on_c, 0, 50, 0
1, 85500, Note_on_c, 0, 66, 0
1, 85500, Note_on_c, 0, 62, 54
1, 85500, Note_on_c, 0, 54, 34
1, 85518, Tempo, 1188119
1, 85556, Tempo, 1200000
1, 85560, Note_on_c, 0, 54, 0
1, 85560, Note_on_c, 0, 69, 0
1, 85560, Note_on_c, 0, 45, 0
1, 85560, Note_on_c, 0, 62, 0
1, 85560, Note_on_c, 0, 68, 59
1, 85560, Note_on_c, 0, 65, 50
1, 85560, Note_on_c, 0, 47, 28
1, 85560, Note_on_c, 0, 50, 34
1, 85565, Control_c, 0, 64, 0
1, 85575, Tempo, 1212121
1, 85597, Control_c, 0, 64, 127
1, 85620, Tempo, 1791045
1, 85620, Note_on_c, 0, 50, 0
1, 85620, Note_on_c, 0, 65, 0
1, 85620, Note_on_c, 0, 62, 50
1, 85620, Note_on_c, 0, 53, 34
1, 85663, Tempo, 1304348
1, 85680, Note_on_c, 0, 53, 0
1, 85680, Note_on_c, 0, 68, 0
1, 85680, Note_on_c, 0, 47, 0
1, 85680, Note_on_c, 0, 62, 0
1, 85680, Note_on_c, 0, 64, 48
1, 85680, Note_on_c, 0, 58, 48
1, 85680, Note_on_c, 0, 55, 48
1, 85680, Note_on_c, 0, 67, 57
1, 85680, Note_on_c, 0, 49, 32
1, 85680, Note_on_c, 0, 52, 38
1, 85687, Control_c, 0, 64, 0
1, 85783, Control_c, 0, 64, 127
1, 85918, Note_on_c, 0, 52, 0
1, 85918, Note_on_c, 0, 58, 0
1, 85918, Note_on_c, 0, 55, 0
1, 85918, Note_on_c, 0, 64, 0
1, 85918, Note_on_c, 0, 49, 0
1, 85918, Note_on_c, 0, 67, 0
1, 85920, Note_on_c, 0, 46, 25
1, 85920, Note_on_c, 0, 49, 25
1, 85920, Note_on_c, 0, 52, 25
1, 85920, Note_on_c, 0, 55, 30
1, 86280, Note_on_c, 0, 55, 0
1, 86280, Note_on_c, 0, 46, 0
1, 86280, Note_on_c, 0, 49, 0
1, 86280, Note_on_c, 0, 52, 0
1, 86280, Note_on_c, 0, 47, 22
1, 86280, Note_on_c, 0, 51, 22
1, 86280, Note_on_c, 0, 54, 27
1, 86283, Control_c, 0, 64, 0
1, 86400, Note_on_c, 0, 54, 0
1, 86400, Note_on_c, 0, 51, 0
1, 86400, Note_on_c, 0, 47, 0
1, 86400, Note_on_c, 0, 47, 25
1, 86400, Note_on_c, 0, 51, 25
1, 86400, Note_on_c, 0, 54, 30
1, 86480, Control_c, 0, 64, 127
1, 86875, Note_on_c, 0, 54, 0
1, 86875, Note_on_c, 0, 51, 0
1, 86875, Note_on_c, 0, 47, 0
1, 86880, Tempo, 1276596
1, 86880, Note_on_c, 0, 47, 22
1, 86880, Note_on_c, 0, 51, 22
1, 86880, Note_on_c, 0, 54, 22
1, 86880, Note_on_c, 0, 59, 27
1, 87118, Note_on_c, 0, 59, 0
1, 87118, Note_on_c, 0, 47, 0
1, 87118, Note_on_c, 0, 51, 0
1, 87118, Note_on_c, 0, 54, 0
1, 87120, Tempo, 1318681
1, 87120, Note_on_c, 0, 63, 38
1, 87120, Note_on_c, 0, 66, 45
1, 87120, Note_on_c, 0, 47, 25
1, 87120, Note_on_c, 0, 51, 25
1, 87120, Note_on_c, 0, 54, 25
1, 87120, Note_on_c, 0, 59, 30
1, 87595, Note_on_c, 0, 59, 0
1, 87595, Note_on_c, 0, 66, 0
1, 87595, Note_on_c, 0, 47, 0
1, 87595, Note_on_c, 0, 63, 0
1, 87595, Note_on_c, 0, 54, 0
1, 87595, Note_on_c, 0, 51, 0
1, 87600, Tempo, 1304348
1, 87600, Note_on_c, 0, 63, 36
1, 87600, Note_on_c, 0, 66, 36
1, 87600, Note_on_c, 0, 71, 42
1, 87600, Note_on_c, 0, 47, 22
1, 87600, Note_on_c, 0, 51, 22
1, 87600, Note_on_c, 0, 54, 22
1, 87600, Note_on_c, 0, 59, 27
1, 87838, Note_on_c, 0, 59, 0
1, 87838, Note_on_c, 0, 51, 0
1, 87838, Note_on_c, 0, 66, 0
1, 87838, Note_on_c, 0, 71, 0
1, 87838, Note_on_c, 0, 63, 0
1, 87838, Note_on_c, 0, 54, 0
1, 87838, Note_on_c, 0, 47, 0
1, 87840, Tempo, 1290323
1, 87840, Note_on_c, 0, 59, 38
1, 87840, Note_on_c, 0, 63, 38
1, 87840, Note_on_c, 0, 71, 45
1, 87840, Note_on_c, 0, 66, 38
1, 87840, Note_on_c, 0, 35, 25
1, 87840, Note_on_c, 0, 47, 30
1, 88078, Note_on_c, 0, 47, 0
1, 88078, Note_on_c, 0, 35, 0
1, 88080, Tempo, 1348315
1, 88080, Note_on_c, 0, 30, 25
1, 88080, Note_on_c, 0, 42, 30
1, 88315, Note_on_c, 0, 71, 0
1, 88315, Note_on_c, 0, 66, 0
1, 88315, Note_on_c, 0, 59, 0
1, 88315, Note_on_c, 0, 63, 0
1, 88320, Tempo, 1304348
1, 88320, Note_on_c, 0, 63, 36
1, 88320, Note_on_c, 0, 59, 36
1, 88320, Note_on_c, 0, 71, 44
1, 88320, Note_on_c, 0, 66, 36
1, 88555, Note_on_c, 0, 42, 0
1, 88555, Note_on_c, 0, 30, 0
1, 88558, Note_on_c, 0, 71, 0
1, 88558, Note_on_c, 0, 59, 0
1, 88558, Note_on_c, 0, 66, 0
1, 88558, Note_on_c, 0, 63, 0
1, 88560, Tempo, 1276596
1, 88560, Note_on_c, 0, 64, 38
1, 88560, Note_on_c, 0, 59, 38
1, 88560, Note_on_c, 0, 71, 45
1, 88560, Note_on_c, 0, 31, 25
1, 88560, Note_on_c, 0, 43, 30
1, 88573, Control_c, 0, 64, 0
1, 88798, Note_on_c, 0, 43, 0
1, 88798, Note_on_c, 0, 71, 0
1, 88798, Note_on_c, 0, 64, 0
1, 88798, Note_on_c, 0, 59, 0
1, 88798, Note_on_c, 0, 31, 0
1, 88800, Tempo, 1348315
1, 88800, Note_on_c, 0, 57, 35
1, 88800, Note_on_c, 0, 64, 35
1, 88800, Note_on_c, 0, 61, 35
1, 88800, Note_on_c, 0, 69, 41
1, 88800, Note_on_c, 0, 33, 21
1, 88800, Note_on_c, 0, 45, 25
1, 89040, Tempo, 1395349
1, 89275, Note_on_c, 0, 45, 0
1, 89275, Note_on_c, 0, 64, 0
1, 89275, Note_on_c, 0, 61, 0
1, 89275, Note_on_c, 0, 57, 0
1, 89275, Note_on_c, 0, 33, 0
1, 89275, Note_on_c, 0, 69, 0
1, 89280, Tempo, 1333333
1, 89280, Note_on_c, 0, 57, 35
1, 89280, Note_on_c, 0, 66, 35
1, 89280, Note_on_c, 0, 62, 35
1, 89280, Note_on_c, 0, 69, 41
1, 89280, Note_on_c, 0, 26, 20
1, 89280, Note_on_c, 0, 38, 24
1, 89374, Control_c, 0, 64, 127
1, 89760, Note_on_c, 0, 38, 0
1, 89760, Note_on_c, 0, 66, 0
1, 89760, Note_on_c, 0, 62, 0
1, 89760, Note_on_c, 0, 57, 0
1, 89760, Note_on_c, 0, 26, 0
1, 89760, Note_on_c, 0, 69, 0
1, 89760, Note_on_c, 0, 66, 33
1, 89760, Note_on_c, 0, 54, 22
1, 90000, Note_on_c, 0, 54, 0
1, 90000, Note_on_c, 0, 66, 0
1, 90000, Note_on_c, 0, 57, 42
1, 90000, Note_on_c, 0, 45, 24
1, 90480, Tempo, 1481481
1, 90480, Note_on_c, 0, 45, 0
1, 90480, Note_on_c, 0, 57, 0
1, 90480, Note_on_c, 0, 69, 36
1, 90480, Note_on_c, 0, 57, 21
1, 90720, Tempo, 1318681
1, 90720, Note_on_c, 0, 57, 0
1, 90720, Note_on_c, 0, 69, 0
1, 90720, Note_on_c, 0, 66, 40
1, 90720, Note_on_c, 0, 54, 24
1, 91107, Control_c, 0, 64, 0
1, 91200, Note_on_c, 0, 54, 0
1, 91200, Note_on_c, 0, 66, 0
1, 91200, Note_on_c, 0, 90, 59
1, 91200, Note_on_c, 0, 78, 49
1, 91200, Note_on_c, 0, 81, 49
1, 91200, Note_on_c, 0, 33, 28
1, 91200, Note_on_c, 0, 45, 34
1, 91440, Note_on_c, 0, 45, 0
1, 91440, Note_on_c, 0, 81, 0
1, 91440, Note_on_c, 0, 90, 0
1, 91440, Note_on_c, 0, 78, 0
1, 91440, Note_on_c, 0, 33, 0
1, 91440, Note_on_c, 0, 79, 53
1, 91440, Note_on_c, 0, 76, 53
1, 91440, Note_on_c, 0, 88, 63
1, 91440, Note_on_c, 0, 47, 40
1, 91440, Note_on_c, 0, 35, 27
1, 91440, Note_on_c, 0, 45, 34
1, 91680, Control_c, 0, 64, 127
1, 91920, Note_on_c, 0, 45, 0
1, 91920, Note_on_c, 0, 76, 0
1, 91920, Note_on_c, 0, 88, 0
1, 91920, Note_on_c, 0, 79, 0
1, 91920, Note_on_c, 0, 35, 0
1, 91920, Note_on_c, 0, 47, 0
1, 91920, Note_on_c, 0, 81, 51
1, 91920, Note_on_c, 0, 76, 43
1, 91920, Note_on_c, 0, 69, 43
1, 91920, Note_on_c, 0, 79, 43
1, 91920, Note_on_c, 0, 37, 29
1, 91920, Note_on_c, 0, 49, 29
1, 91920, Note_on_c, 0, 45, 29
1, 91933, Control_c, 0, 64, 0
1, 92158, Note_on_c, 0, 45, 0
1, 92158, Note_on_c, 0, 37, 0
1, 92158, Note_on_c, 0, 76, 0
1, 92158, Note_on_c, 0, 69, 0
1, 92158, Note_on_c, 0, 81, 0
1, 92158, Note_on_c, 0, 49, 0
1, 92158, Note_on_c, 0, 79, 0
1, 92160, Tempo, 1333333
1, 92160, Note_on_c, 0, 69, 45
1, 92160, Note_on_c, 0, 81, 54
1, 92160, Note_on_c, 0, 78, 45
1, 92160, Note_on_c, 0, 45, 30
1, 92160, Note_on_c, 0, 38, 30
1, 92160, Note_on_c, 0, 50, 36
1, 92254, Control_c, 0, 64, 127
1, 92640, Note_on_c, 0, 50, 0
1, 92640, Note_on_c, 0, 81, 0
1, 92640, Note_on_c, 0, 78, 0
1, 92640, Note_on_c, 0, 69, 0
1, 92640, Note_on_c, 0, 38, 0
1, 92640, Note_on_c, 0, 45, 0
1, 92640, Note_on_c, 0, 78, 43
1, 92640, Note_on_c, 0, 66, 33
1, 92880, Note_on_c, 0, 66, 0
1, 92880, Note_on_c, 0, 78, 0
1, 92880, Note_on_c, 0, 69, 50
1, 92880, Note_on_c, 0, 57, 33
1, 93360, Tempo, 1428571
1, 93360, Note_on_c, 0, 57, 0
1, 93360, Note_on_c, 0, 69, 0
1, 93360, Note_on_c, 0, 69, 39
1, 93360, Note_on_c, 0, 81, 47
1, 93360, Note_on_c, 0, 42, 26
1, 93360, Note_on_c, 0, 45, 26
1, 93360, Note_on_c, 0, 54, 31
1, 93600, Tempo, 1318681
1, 93600, Note_on_c, 0, 54, 0
1, 93600, Note_on_c, 0, 42, 0
1, 93600, Note_on_c, 0, 69, 0
1, 93600, Note_on_c, 0, 81, 0
1, 93600, Note_on_c, 0, 45, 0
1, 93600, Note_on_c, 0, 78, 54
1, 93600, Note_on_c, 0, 66, 45
1, 93600, Note_on_c, 0, 45, 28
1, 93600, Note_on_c, 0, 57, 33
1, 93667, Control_c, 0, 64, 0
1, 93814, Control_c, 0, 64, 127
1, 94080, Note_on_c, 0, 57, 0
1, 94080, Note_on_c, 0, 78, 0
1, 94080, Note_on_c, 0, 66, 0
1, 94080, Note_on_c, 0, 45, 0
1, 94080, Note_on_c, 0, 69, 40
1, 94080, Note_on_c, 0, 81, 48
1, 94080, Note_on_c, 0, 42, 28
1, 94080, Note_on_c, 0, 45, 28
1, 94080, Note_on_c, 0, 54, 33
1, 94320, Tempo, 1250000
1, 94320, Note_on_c, 0, 81, 0
1, 94320, Note_on_c, 0, 69, 0
1, 94320, Note_on_c, 0, 79, 56
1, 94320, Note_on_c, 0, 83, 56
1, 94320, Note_on_c, 0, 71, 47
1, 94332, Control_c, 0, 64, 0
1, 94440, Control_c, 0, 64, 127
1, 94560, Tempo, 1318681
1, 94560, Note_on_c, 0, 45, 0
1, 94560, Note_on_c, 0, 54, 0
1, 94560, Note_on_c, 0, 42, 0
1, 94560, Note_on_c, 0, 40, 28
1, 94560, Note_on_c, 0, 45, 28
1, 94560, Note_on_c, 0, 52, 34
1, 94800, Note_on_c, 0, 52, 0
1, 94800, Note_on_c, 0, 83, 0
1, 94800, Note_on_c, 0, 79, 0
1, 94800, Note_on_c, 0, 71, 0
1, 94800, Note_on_c, 0, 45, 0
1, 94800, Note_on_c, 0, 40, 0
1, 94800, Note_on_c, 0, 85, 54
1, 94800, Note_on_c, 0, 76, 45
1, 94800, Note_on_c, 0, 79, 45
1, 94800, Note_on_c, 0, 73, 45
1, 94800, Note_on_c, 0, 33, 29
1, 94800, Note_on_c, 0, 45, 34
1, 94813, Control_c, 0, 64, 0
1, 94907, Control_c, 0, 64, 127
1, 95040, Note_on_c, 0, 45, 0
1, 95040, Note_on_c, 0, 76, 0
1, 95040, Note_on_c, 0, 79, 0
1, 95040, Note_on_c, 0, 85, 0
1, 95040, Note_on_c, 0, 33, 0
1, 95040, Note_on_c, 0, 73, 0
1, 95040, Note_on_c, 0, 78, 50
1, 95040, Note_on_c, 0, 74, 50
1, 95040, Note_on_c, 0, 86, 60
1, 95040, Note_on_c, 0, 38, 30
1, 95040, Note_on_c, 0, 45, 36
1, 95040, Control_c, 0, 64, 0
1, 95214, Control_c, 0, 64, 127
1, 95760, Tempo, 1304348
1, 95760, Note_on_c, 0, 45, 0
1, 95760, Note_on_c, 0, 86, 0
1, 95760, Note_on_c, 0, 78, 0
1, 95760, Note_on_c, 0, 74, 0
1, 95760, Note_on_c, 0, 38, 0
1, 95760, Note_on_c, 0, 88, 68
1, 95760, Note_on_c, 0, 85, 56
1, 95760, Note_on_c, 0, 76, 56
1, 95760, Note_on_c, 0, 33, 31
1, 95760, Note_on_c, 0, 45, 37
1, 95770, Control_c, 0, 64, 0
1, 95894, Control_c, 0, 64, 127
1, 96473, Note_on_c, 0, 45, 0
1, 96473, Note_on_c, 0, 76, 0
1, 96473, Note_on_c, 0, 88, 0
1, 96473, Note_on_c, 0, 85, 0
1, 96473, Note_on_c, 0, 33, 0
1, 96480, Note_on_c, 0, 76, 62
1, 96480, Note_on_c, 0, 88, 73
1, 96480, Note_on_c, 0, 85, 62
1, 96480, Note_on_c, 0, 33, 32
1, 96480, Note_on_c, 0, 45, 38
1, 96960, Tempo, 1276596
1, 96960, Note_on_c, 0, 45, 0
1, 96960, Note_on_c, 0, 85, 0
1, 96960, Note_on_c, 0, 76, 0
1, 96960, Note_on_c, 0, 88, 0
1, 96960, Note_on_c, 0, 33, 0
1, 96960, Note_on_c, 0, 87, 70
1, 96960, Note_on_c, 0, 90, 70
1, 96960, Note_on_c, 0, 78, 59
1, 96960, Note_on_c, 0, 43, 43
1, 96974, Control_c, 0, 64, 0
1, 97031, Control_c, 0, 64, 127
1, 97080, Note_on_c, 0, 43, 0
1, 97080, Note_on_c, 0, 42, 45
1, 97200, Tempo, 1304348
1, 97200, Note_on_c, 0, 42, 0
1, 97200, Note_on_c, 0, 78, 0
1, 97200, Note_on_c, 0, 90, 0
1, 97200, Note_on_c, 0, 87, 0
1, 97200, Note_on_c, 0, 91, 75
1, 97200, Note_on_c, 0, 79, 63
1, 97200, Note_on_c, 0, 88, 75
1, 97200, Note_on_c, 0, 40, 53
1, 97204, Control_c, 0, 64, 0
1, 97236, Control_c, 0, 64, 127
1, 97320, Note_on_c, 0, 40, 0
1, 97320, Note_on_c, 0, 38, 48
1, 97427, Tempo, 1276596
1, 97438, Note_on_c, 0, 91, 0
1, 97438, Note_on_c, 0, 88, 0
1, 97438, Note_on_c, 0, 79, 0
1, 97440, Note_on_c, 0, 38, 0
1, 97440, Note_on_c, 0, 88, 80
1, 97440, Note_on_c, 0, 93, 80
1, 97440, Note_on_c, 0, 81, 68
1, 97440, Note_on_c, 0, 37, 64
1, 97447, Control_c, 0, 64, 0
1, 97486, Control_c, 0, 64, 127
1, 97487, Tempo, 1290323
1, 97520, Note_on_c, 0, 37, 0
1, 97520, Note_on_c, 0, 40, 53
1, 97547, Tempo, 1304348
1, 97600, Note_on_c, 0, 40, 0
1, 97600, Note_on_c, 0, 45, 55
1, 97607, Tempo, 1318681
1, 97667, Tempo, 1333333
1, 97678, Note_on_c, 0, 81, 0
1, 97678, Note_on_c, 0, 88, 0
1, 97678, Note_on_c, 0, 93, 0
1, 97680, Note_on_c, 0, 45, 0
1, 97680, Note_on_c, 0, 88, 72
1, 97680, Note_on_c, 0, 93, 85
1, 97680, Note_on_c, 0, 91, 85
1, 97680, Note_on_c, 0, 81, 72
1, 97680, Note_on_c, 0, 49, 65
1, 97692, Control_c, 0, 64, 0
1, 97727, Tempo, 1348315
1, 97737, Control_c, 0, 64, 127
1, 97760, Note_on_c, 0, 49, 0
1, 97760, Note_on_c, 0, 52, 59
1, 97787, Tempo, 1363636
1, 97840, Note_on_c, 0, 52, 0
1, 97840, Note_on_c, 0, 57, 59
1, 97847, Tempo, 1379310
1, 97907, Tempo, 1395349
1, 97918, Note_on_c, 0, 81, 0
1, 97918, Note_on_c, 0, 91, 0
1, 97918, Note_on_c, 0, 88, 0
1, 97918, Note_on_c, 0, 93, 0
1, 97920, Tempo, 1276596
1, 97920, Note_on_c, 0, 57, 0
1, 97920, Note_on_c, 0, 93, 74
1, 97920, Note_on_c, 0, 81, 62
1, 97920, Note_on_c, 0, 42, 36
1, 97920, Note_on_c, 0, 54, 43
1, 97920, Control_c, 0, 64, 0
1, 98107, Control_c, 0, 64, 127
1, 98160, Tempo, 1212121
1, 98160, Note_on_c, 0, 81, 0
1, 98160, Note_on_c, 0, 93, 0
1, 98160, Note_on_c, 0, 69, 46
1, 98160, Note_on_c, 0, 81, 55
1, 98400, Tempo, 1276596
1, 98400, Note_on_c, 0, 81, 0
1, 98400, Note_on_c, 0, 69, 0
1, 98400, Note_on_c, 0, 66, 46
1, 98400, Note_on_c, 0, 78, 55
1, 98638, Note_on_c, 0, 78, 0
1, 98638, Note_on_c, 0, 66, 0
1, 98640, Note_on_c, 0, 42, 0
1, 98640, Note_on_c, 0, 54, 0
1, 98640, Note_on_c, 0, 66, 51
1, 98640, Note_on_c, 0, 78, 60
1, 98640, Note_on_c, 0, 45, 36
1, 98640, Note_on_c, 0, 57, 43
1, 98880, Note_on_c, 0, 78, 0
1, 98880, Note_on_c, 0, 66, 0
1, 98880, Note_on_c, 0, 62, 46
1, 98880, Note_on_c, 0, 74, 55
1, 99120, Tempo, 1318681
1, 99120, Note_on_c, 0, 74, 0
1, 99120, Note_on_c, 0, 62, 0
1, 99120, Note_on_c, 0, 64, 47
1, 99120, Note_on_c, 0, 76, 56
1, 99360, Tempo, 1263158
1, 99360, Note_on_c, 0, 76, 0
1, 99360, Note_on_c, 0, 57, 0
1, 99360, Note_on_c, 0, 45, 0
1, 99360, Note_on_c, 0, 64, 0
1, 99360, Note_on_c, 0, 66, 51
1, 99360, Note_on_c, 0, 78, 60
1, 99360, Note_on_c, 0, 50, 36
1, 99360, Note_on_c, 0, 62, 43
1, 99360, Control_c, 0, 64, 0
1, 99547, Control_c, 0, 64, 127
1, 99600, Tempo, 1224490
1, 100080, Note_on_c, 0, 62, 0
1, 100080, Note_on_c, 0, 66, 0
1, 100080, Note_on_c, 0, 78, 0
1, 100080, Note_on_c, 0, 50, 0
1, 100080, Note_on_c, 0, 67, 51
1, 100080, Note_on_c, 0, 79, 60
1, 100080, Note_on_c, 0, 47, 36
1, 100080, Note_on_c, 0, 59, 43
1, 100093, Control_c, 0, 64, 0
1, 100240, Control_c, 0, 64, 127
1, 100560, Tempo, 1318681
1, 100560, Note_on_c, 0, 59, 0
1, 100560, Note_on_c, 0, 67, 0
1, 100560, Note_on_c, 0, 79, 0
1, 100560, Note_on_c, 0, 47, 0
1, 100560, Note_on_c, 0, 71, 53
1, 100560, Note_on_c, 0, 83, 63
1, 100560, Note_on_c, 0, 43, 30
1, 100560, Note_on_c, 0, 55, 36
1, 100798, Note_on_c, 0, 83, 0
1, 100798, Note_on_c, 0, 71, 0
1, 100800, Tempo, 1276596
1, 100800, Note_on_c, 0, 43, 0
1, 100800, Note_on_c, 0, 55, 0
1, 100800, Note_on_c, 0, 71, 56
1, 100800, Note_on_c, 0, 79, 56
1, 100800, Note_on_c, 0, 83, 67
1, 100800, Note_on_c, 0, 40, 39
1, 100800, Note_on_c, 0, 52, 47
1, 100800, Control_c, 0, 64, 0
1, 100897, Control_c, 0, 64, 127
1, 101280, Tempo, 1318681
1, 101280, Note_on_c, 0, 52, 0
1, 101280, Note_on_c, 0, 83, 0
1, 101280, Note_on_c, 0, 71, 0
1, 101280, Note_on_c, 0, 79, 0
1, 101280, Note_on_c, 0, 40, 0
1, 101280, Note_on_c, 0, 79, 55
1, 101280, Note_on_c, 0, 82, 65
1, 101280, Note_on_c, 0, 70, 55
1, 101280, Note_on_c, 0, 52, 36
1, 101280, Note_on_c, 0, 55, 43
1, 101294, Control_c, 0, 64, 0
1, 101366, Control_c, 0, 64, 127
1, 101518, Note_on_c, 0, 55, 0
1, 101518, Note_on_c, 0, 70, 0
1, 101518, Note_on_c, 0, 79, 0
1, 101518, Note_on_c, 0, 82, 0
1, 101518, Note_on_c, 0, 52, 0
1, 101520, Tempo, 1250000
1, 101520, Note_on_c, 0, 70, 55
1, 101520, Note_on_c, 0, 82, 65
1, 101520, Note_on_c, 0, 49, 36
1, 101520, Note_on_c, 0, 52, 43
1, 101533, Control_c, 0, 64, 0
1, 101595, Control_c, 0, 64, 127
1, 101760, Note_on_c, 0, 82, 0
1, 101760, Note_on_c, 0, 70, 0
1, 101760, Note_on_c, 0, 88, 64
1, 101760, Note_on_c, 0, 76, 54
1, 102000, Note_on_c, 0, 76, 0
1, 102000, Note_on_c, 0, 52, 0
1, 102000, Note_on_c, 0, 49, 0
1, 102000, Note_on_c, 0, 88, 0
1, 102000, Note_on_c, 0, 89, 66
1, 102000, Note_on_c, 0, 77, 56
1, 102000, Note_on_c, 0, 47, 37
1, 102000, Note_on_c, 0, 50, 44
1, 102014, Control_c, 0, 64, 0
1, 102075, Control_c, 0, 64, 127
1, 102120, Tempo, 1395349
1, 102120, Note_on_c, 0, 50, 0
1, 102120, Note_on_c, 0, 89, 0
1, 102120, Note_on_c, 0, 77, 0
1, 102120, Note_on_c, 0, 47, 0
1, 102120, Note_on_c, 0, 78, 57
1, 102120, Note_on_c, 0, 90, 68
1, 102120, Note_on_c, 0, 46, 38
1, 102120, Note_on_c, 0, 49, 45
1, 102239, Note_on_c, 0, 49, 0
1, 102239, Note_on_c, 0, 78, 0
1, 102239, Note_on_c, 0, 90, 0
1, 102239, Note_on_c, 0, 46, 0
1, 102240, Tempo, 1263158
1, 102240, Note_on_c, 0, 90, 69
1, 102240, Note_on_c, 0, 78, 58
1, 102240, Note_on_c, 0, 46, 47
1, 102240, Control_c, 0, 64, 0
1, 102309, Control_c, 0, 64, 127
1, 102360, Note_on_c, 0, 46, 0
1, 102360, Note_on_c, 0, 49, 44
1, 102480, Note_on_c, 0, 49, 0
1, 102480, Note_on_c, 0, 54, 47
1, 102600, Note_on_c, 0, 54, 0
1, 102600, Note_on_c, 0, 58, 49
1, 102720, Note_on_c, 0, 58, 0
1, 102720, Note_on_c, 0, 61, 51
1, 102840, Note_on_c, 0, 61, 0
1, 102840, Note_on_c, 0, 66, 53
1, 102960, Tempo, 1250000
1, 102960, Note_on_c, 0, 66, 0
1, 102960, Note_on_c, 0, 78, 0
1, 102960, Note_on_c, 0, 90, 0
1, 102960, Note_on_c, 0, 75, 68
1, 102960, Note_on_c, 0, 68, 56
1, 102960, Note_on_c, 0, 66, 47
1, 102960, Note_on_c, 0, 63, 47
1, 102960, Note_on_c, 0, 60, 47
1, 102975, Control_c, 0, 64, 0
1, 103046, Control_c, 0, 64, 127
1, 103080, Note_on_c, 0, 75, 0
1, 103080, Note_on_c, 0, 78, 70
1, 103160, Tempo, 1250000
1, 103200, Note_on_c, 0, 78, 0
1, 103200, Note_on_c, 0, 80, 69
1, 103265, Tempo, 1263158
1, 103320, Note_on_c, 0, 80, 0
1, 103320, Note_on_c, 0, 87, 73
1, 103370, Tempo, 1276596
1, 103440, Note_on_c, 0, 87, 0
1, 103440, Note_on_c, 0, 90, 74
1, 103460, Tempo, 1290323
1, 103560, Note_on_c, 0, 90, 0
1, 103560, Note_on_c, 0, 92, 76
1, 103565, Tempo, 1304348
1, 103655, Tempo, 1318681
1, 103680, Key_signature, 3, "major"
1, 103680, Note_on_c, 0, 92, 0
1, 103680, Note_on_c, 0, 60, 0
1, 103680, Note_on_c, 0, 68, 0
1, 103680, Note_on_c, 0, 66, 0
1, 103680, Note_on_c, 0, 63, 0
1, 103680, Note_on_c, 0, 65, 51
1, 103680, Note_on_c, 0, 77, 60
1, 103680, Note_on_c, 0, 44, 42
1, 103680, Note_on_c, 0, 56, 50
1, 103694, Control_c, 0, 64, 0
1, 103806, Control_c, 0, 64, 127
1, 104160, Note_on_c, 0, 56, 0
1, 104160, Note_on_c, 0, 44, 0
1, 104160, Note_on_c, 0, 41, 38
1, 104160, Note_on_c, 0, 53, 45
1, 104398, Note_on_c, 0, 53, 0
1, 104398, Note_on_c, 0, 41, 0
1, 104400, Tempo, 1318681
1, 104400, Note_on_c, 0, 77, 0
1, 104400, Note_on_c, 0, 65, 0
1, 104400, Note_on_c, 0, 68, 51
1, 104400, Note_on_c, 0, 80, 60
1, 104400, Note_on_c, 0, 41, 42
1, 104400, Note_on_c, 0, 53, 50
1, 104411, Control_c, 0, 64, 0
1, 104560, Control_c, 0, 64, 127
1, 104640, Tempo, 1263158
1, 104640, Note_on_c, 0, 53, 0
1, 104640, Note_on_c, 0, 41, 0
1, 104640, Note_on_c, 0, 68, 0
1, 104640, Note_on_c, 0, 77, 57
1, 104640, Note_on_c, 0, 37, 38
1, 104640, Note_on_c, 0, 49, 45
1, 104880, Tempo, 1348315
1, 104880, Note_on_c, 0, 49, 0
1, 104880, Note_on_c, 0, 80, 0
1, 104880, Note_on_c, 0, 77, 0
1, 104880, Note_on_c, 0, 37, 0
1, 104880, Note_on_c, 0, 80, 61
1, 104880, Note_on_c, 0, 78, 45
1, 104880, Note_on_c, 0, 39, 38
1, 104880, Note_on_c, 0, 51, 45
1, 104886, Control_c, 0, 64, 0
1, 104972, Control_c, 0, 64, 127
1, 105120, Tempo, 1304348
1, 105120, Note_on_c, 0, 51, 0
1, 105120, Note_on_c, 0, 80, 0
1, 105120, Note_on_c, 0, 78, 0
1, 105120, Note_on_c, 0, 39, 0
1, 105120, Note_on_c, 0, 85, 69
1, 105120, Note_on_c, 0, 80, 58
1, 105120, Note_on_c, 0, 41, 42
1, 105120, Note_on_c, 0, 53, 50
1, 105126, Control_c, 0, 64, 0
1, 105240, Control_c, 0, 64, 127
1, 105360, Tempo, 1263158
1, 105360, Note_on_c, 0, 80, 0
1, 105360, Note_on_c, 0, 73, 60
1, 105600, Tempo, 1318681
1, 105600, Note_on_c, 0, 73, 0
1, 105600, Note_on_c, 0, 53, 0
1, 105600, Note_on_c, 0, 41, 0
1, 105600, Note_on_c, 0, 73, 60
1, 105600, Note_on_c, 0, 53, 38
1, 105600, Note_on_c, 0, 56, 45
1, 105838, Note_on_c, 0, 73, 0
1, 105840, Tempo, 1304348
1, 105840, Note_on_c, 0, 85, 0
1, 105840, Note_on_c, 0, 53, 0
1, 105840, Note_on_c, 0, 56, 0
1, 105840, Note_on_c, 0, 81, 68
1, 105840, Note_on_c, 0, 73, 57
1, 105840, Note_on_c, 0, 54, 42
1, 105840, Note_on_c, 0, 57, 50
1, 105843, Control_c, 0, 64, 0
1, 106014, Control_c, 0, 64, 127
1, 106080, Tempo, 1263158
1, 106080, Note_on_c, 0, 73, 0
1, 106080, Note_on_c, 0, 69, 56
1, 106320, Tempo, 1379310
1, 106320, Note_on_c, 0, 69, 0
1, 106320, Note_on_c, 0, 57, 0
1, 106320, Note_on_c, 0, 54, 0
1, 106320, Note_on_c, 0, 81, 0
1, 106320, Note_on_c, 0, 73, 51
1, 106320, Note_on_c, 0, 78, 60
1, 106320, Note_on_c, 0, 66, 51
1, 106320, Note_on_c, 0, 61, 48
1, 106320, Note_on_c, 0, 57, 40
1, 106558, Note_on_c, 0, 78, 0
1, 106560, Tempo, 1304348
1, 106560, Note_on_c, 0, 61, 0
1, 106560, Note_on_c, 0, 73, 0
1, 106560, Note_on_c, 0, 66, 0
1, 106560, Note_on_c, 0, 57, 0
1, 106560, Note_on_c, 0, 90, 73
1, 106560, Note_on_c, 0, 78, 62
1, 106560, Note_on_c, 0, 61, 50
1, 106560, Note_on_c, 0, 57, 42
1, 106563, Control_c, 0, 64, 0
1, 106732, Control_c, 0, 64, 127
1, 106800, Tempo, 1276596
1, 106800, Note_on_c, 0, 78, 0
1, 106800, Note_on_c, 0, 87, 70
1, 107040, Tempo, 1348315
1, 107040, Note_on_c, 0, 87, 0
1, 107040, Note_on_c, 0, 57, 0
1, 107040, Note_on_c, 0, 61, 0
1, 107040, Note_on_c, 0, 90, 0
1, 107040, Note_on_c, 0, 78, 59
1, 107040, Note_on_c, 0, 87, 70
1, 107040, Note_on_c, 0, 90, 70
1, 107040, Note_on_c, 0, 60, 46
1, 107040, Note_on_c, 0, 56, 39
1, 107055, Control_c, 0, 64, 0
1, 107155, Control_c, 0, 64, 127
1, 107278, Note_on_c, 0, 56, 0
1, 107278, Note_on_c, 0, 90, 0
1, 107278, Note_on_c, 0, 78, 0
1, 107278, Note_on_c, 0, 87, 0
1, 107278, Note_on_c, 0, 60, 0
1, 107280, Tempo, 1304348
1, 107280, Note_on_c, 0, 78, 64
1, 107280, Note_on_c, 0, 87, 76
1, 107280, Note_on_c, 0, 90, 76
1, 107280, Note_on_c, 0, 56, 42
1, 107280, Note_on_c, 0, 60, 50
1, 107286, Control_c, 0, 64, 0
1, 107406, Control_c, 0, 64, 127
1, 107520, Tempo, 1263158
1, 107520, Note_on_c, 0, 60, 0
1, 107520, Note_on_c, 0, 90, 0
1, 107520, Note_on_c, 0, 78, 0
1, 107520, Note_on_c, 0, 87, 0
1, 107520, Note_on_c, 0, 56, 0
1, 107520, Note_on_c, 0, 87, 73
1, 107520, Note_on_c, 0, 80, 62
1, 107520, Note_on_c, 0, 78, 62
1, 107520, Note_on_c, 0, 63, 46
1, 107520, Note_on_c, 0, 60, 39
1, 107535, Control_c, 0, 64, 0
1, 107669, Control_c, 0, 64, 127
1, 107760, Tempo, 1304348
1, 107760, Note_on_c, 0, 60, 0
1, 107760, Note_on_c, 0, 78, 0
1, 107760, Note_on_c, 0, 87, 0
1, 107760, Note_on_c, 0, 80, 0
1, 107760, Note_on_c, 0, 63, 0
1, 107760, Note_on_c, 0, 85, 73
1, 107760, Note_on_c, 0, 80, 62
1, 107760, Note_on_c, 0, 77, 62
1, 107760, Note_on_c, 0, 65, 46
1, 107760, Note_on_c, 0, 61, 39
1, 107772, Control_c, 0, 64, 0
1, 107863, Control_c, 0, 64, 127
1, 108000, Key_signature, -3, "major"
1, 108000, Tempo, 1263158
1, 108000, Note_on_c, 0, 61, 0
1, 108000, Note_on_c, 0, 77, 0
1, 108000, Note_on_c, 0, 85, 0
1, 108000, Note_on_c, 0, 80, 0
1, 108000, Note_on_c, 0, 65, 0
1, 108000, Note_on_c, 0, 83, 73
1, 108000, Note_on_c, 0, 80, 62
1, 108000, Note_on_c, 0, 77, 62
1, 108000, Note_on_c, 0, 62, 50
1, 108000, Control_c, 0, 64, 0
1, 108085, Control_c, 0, 64, 127
1, 108120, Note_on_c, 0, 62, 0
1, 108120, Note_on_c, 0, 65, 45
1, 108240, Note_on_c, 0, 65, 0
1, 108240, Note_on_c, 0, 68, 48
1, 108360, Note_on_c, 0, 68, 0
1, 108360, Note_on_c, 0, 74, 51
1, 108480, Note_on_c, 0, 74, 0
1, 108480, Note_on_c, 0, 77, 0
1, 108480, Note_on_c, 0, 80, 0
1, 108480, Note_on_c, 0, 80, 70
1, 108480, Note_on_c, 0, 77, 52
1, 108590, Note_on_c, 0, 77, 0
1, 108590, Note_on_c, 0, 80, 0
1, 108600, Tempo, 1379310
1, 108600, Note_on_c, 0, 77, 67
1, 108600, Note_on_c, 0, 80, 49
1, 108720, Tempo, 1263158
1, 108720, Note_on_c, 0, 80, 0
1, 108720, Note_on_c, 0, 77, 0
1, 108720, Note_on_c, 0, 83, 0
1, 108720, Note_on_c, 0, 50, 61
1, 108720, Note_on_c, 0, 74, 46
1, 108720, Note_on_c, 0, 77, 46
1, 108720, Note_on_c, 0, 80, 46
1, 108720, Note_on_c, 0, 82, 55
1, 108729, Control_c, 0, 64, 0
1, 108805, Control_c, 0, 64, 127
1, 108840, Note_on_c, 0, 50, 0
1, 108840, Note_on_c, 0, 53, 60
1, 108960, Tempo, 1224490
1, 108960, Note_on_c, 0, 53, 0
1, 108960, Note_on_c, 0, 58, 62
1, 109080, Note_on_c, 0, 58, 0
1, 109080, Note_on_c, 0, 62, 64
1, 109200, Tempo, 1276596
1, 109200, Note_on_c, 0, 62, 0
1, 109200, Note_on_c, 0, 82, 0
1, 109200, Note_on_c, 0, 74, 0
1, 109200, Note_on_c, 0, 77, 0
1, 109200, Note_on_c, 0, 80, 0
1, 109200, Note_on_c, 0, 65, 67
1, 109320, Note_on_c, 0, 65, 0
1, 109320, Note_on_c, 0, 70, 69
1, 109438, Note_on_c, 0, 70, 0
1, 109440, Tempo, 1276596
1, 109440, Note_on_c, 0, 70, 62
1, 109440, Note_on_c, 0, 82, 73
1, 109440, Note_on_c, 0, 43, 62
1, 109454, Control_c, 0, 64, 0
1, 109546, Control_c, 0, 64, 127
1, 109560, Note_on_c, 0, 43, 0
1, 109560, Note_on_c, 0, 46, 50
1, 109680, Tempo, 1224490
1, 109680, Note_on_c, 0, 46, 0
1, 109680, Note_on_c, 0, 51, 50
1, 109800, Note_on_c, 0, 51, 0
1, 109800, Note_on_c, 0, 55, 47
1, 109920, Tempo, 1304348
1, 109920, Note_on_c, 0, 55, 0
1, 109920, Note_on_c, 0, 82, 0
1, 109920, Note_on_c, 0, 70, 0
1, 109920, Note_on_c, 0, 67, 56
1, 109920, Note_on_c, 0, 79, 67
1, 109920, Note_on_c, 0, 58, 54
1, 110040, Note_on_c, 0, 58, 0
1, 110040, Note_on_c, 0, 63, 45
1, 110158, Note_on_c, 0, 79, 0
1, 110158, Note_on_c, 0, 67, 0
1, 110160, Tempo, 1250000
1, 110160, Note_on_c, 0, 63, 0
1, 110160, Note_on_c, 0, 67, 62
1, 110160, Note_on_c, 0, 79, 73
1, 110160, Note_on_c, 0, 46, 53
1, 110167, Control_c, 0, 64, 0
1, 110231, Control_c, 0, 64, 127
1, 110280, Note_on_c, 0, 46, 0
1, 110280, Note_on_c, 0, 51, 45
1, 110400, Tempo, 1290323
1, 110400, Note_on_c, 0, 51, 0
1, 110400, Note_on_c, 0, 79, 0
1, 110400, Note_on_c, 0, 67, 0
1, 110400, Note_on_c, 0, 63, 57
1, 110400, Note_on_c, 0, 75, 68
1, 110400, Note_on_c, 0, 55, 51
1, 110520, Note_on_c, 0, 55, 0
1, 110520, Note_on_c, 0, 58, 45
1, 110640, Tempo, 1304348
1, 110640, Note_on_c, 0, 58, 0
1, 110640, Note_on_c, 0, 75, 0
1, 110640, Note_on_c, 0, 63, 0
1, 110640, Note_on_c, 0, 77, 68
1, 110640, Note_on_c, 0, 70, 57
1, 110640, Note_on_c, 0, 65, 57
1, 110640, Note_on_c, 0, 74, 57
1, 110640, Note_on_c, 0, 56, 45
1, 110760, Note_on_c, 0, 56, 0
1, 110760, Note_on_c, 0, 65, 0
1, 110760, Note_on_c, 0, 68, 68
1, 110760, Note_on_c, 0, 53, 45
1, 110880, Tempo, 1276596
1, 110880, Note_on_c, 0, 53, 0
1, 110880, Note_on_c, 0, 77, 0
1, 110880, Note_on_c, 0, 74, 0
1, 110880, Note_on_c, 0, 70, 0
1, 110880, Note_on_c, 0, 68, 0
1, 110880, Note_on_c, 0, 79, 73
1, 110880, Note_on_c, 0, 67, 62
1, 110880, Note_on_c, 0, 70, 62
1, 110880, Note_on_c, 0, 75, 62
1, 110880, Note_on_c, 0, 51, 55
1, 110884, Control_c, 0, 64, 0
1, 110949, Control_c, 0, 64, 127
1, 111000, Note_on_c, 0, 51, 0
1, 111000, Note_on_c, 0, 55, 49
1, 111120, Note_on_c, 0, 55, 0
1, 111120, Note_on_c, 0, 58, 49
1, 111240, Note_on_c, 0, 58, 0
1, 111240, Note_on_c, 0, 63, 49
1, 111360, Tempo, 1318681
1, 111360, Note_on_c, 0, 63, 0
1, 111360, Note_on_c, 0, 75, 0
1, 111360, Note_on_c, 0, 79, 0
1, 111360, Note_on_c, 0, 67, 0
1, 111360, Note_on_c, 0, 70, 0
1, 111360, Note_on_c, 0, 83, 73
1, 111360, Note_on_c, 0, 71, 62
1, 111360, Note_on_c, 0, 44, 54
1, 111364, Control_c, 0, 64, 0
1, 111423, Control_c, 0, 64, 127
1, 111480, Note_on_c, 0, 44, 0
1, 111480, Note_on_c, 0, 56, 47
1, 111600, Tempo, 1276596
1, 111600, Note_on_c, 0, 56, 0
1, 111600, Note_on_c, 0, 71, 0
1, 111600, Note_on_c, 0, 83, 0
1, 111600, Note_on_c, 0, 80, 75
1, 111600, Note_on_c, 0, 68, 63
1, 111600, Note_on_c, 0, 47, 54
1, 111611, Control_c, 0, 64, 0
1, 111692, Control_c, 0, 64, 127
1, 111720, Note_on_c, 0, 47, 0
1, 111720, Note_on_c, 0, 51, 48
1, 111840, Tempo, 1250000
1, 111840, Note_on_c, 0, 51, 0
1, 111840, Note_on_c, 0, 56, 51
1, 111960, Note_on_c, 0, 56, 0
1, 111960, Note_on_c, 0, 59, 45
1, 112080, Tempo, 1304348
1, 112080, Note_on_c, 0, 59, 0
1, 112080, Note_on_c, 0, 68, 0
1, 112080, Note_on_c, 0, 80, 0
1, 112080, Note_on_c, 0, 77, 68
1, 112080, Note_on_c, 0, 65, 57
1, 112080, Note_on_c, 0, 49, 45
1, 112086, Control_c, 0, 64, 0
1, 112149, Control_c, 0, 64, 127
1, 112200, Note_on_c, 0, 49, 0
1, 112200, Note_on_c, 0, 61, 45
1, 112320, Tempo, 1304348
1, 112320, Note_on_c, 0, 61, 0
1, 112320, Note_on_c, 0, 65, 0
1, 112320, Note_on_c, 0, 77, 0
1, 112320, Note_on_c, 0, 85, 84
1, 112320, Note_on_c, 0, 73, 71
1, 112320, Note_on_c, 0, 46, 65
1, 112320, Control_c, 0, 64, 0
1, 112389, Control_c, 0, 64, 127
1, 112440, Note_on_c, 0, 46, 0
1, 112440, Note_on_c, 0, 49, 42
1, 112560, Tempo, 1263158
1, 112560, Note_on_c, 0, 49, 0
1, 112560, Note_on_c, 0, 54, 51
1, 112680, Note_on_c, 0, 54, 0
1, 112680, Note_on_c, 0, 58, 46
1, 112800, Tempo, 1348315
1, 112800, Note_on_c, 0, 58, 0
1, 112800, Note_on_c, 0, 73, 0
1, 112800, Note_on_c, 0, 85, 0
1, 112800, Note_on_c, 0, 70, 66
1, 112800, Note_on_c, 0, 82, 78
1, 112800, Note_on_c, 0, 49, 58
1, 112920, Note_on_c, 0, 49, 0
1, 112920, Note_on_c, 0, 61, 46
1, 113040, Tempo, 1263158
1, 113040, Note_on_c, 0, 61, 0
1, 113040, Note_on_c, 0, 82, 0
1, 113040, Note_on_c, 0, 70, 0
1, 113040, Note_on_c, 0, 79, 81
1, 113040, Note_on_c, 0, 67, 68
1, 113040, Note_on_c, 0, 51, 58
1, 113054, Control_c, 0, 64, 0
1, 113120, Control_c, 0, 64, 127
1, 113160, Note_on_c, 0, 51, 0
1, 113160, Note_on_c, 0, 55, 47
1, 113280, Note_on_c, 0, 55, 0
1, 113280, Note_on_c, 0, 58, 55
1, 113400, Note_on_c, 0, 58, 0
1, 113400, Note_on_c, 0, 61, 47
1, 113520, Tempo, 1318681
1, 113520, Note_on_c, 0, 61, 0
1, 113520, Note_on_c, 0, 67, 0
1, 113520, Note_on_c, 0, 79, 0
1, 113520, Note_on_c, 0, 75, 54
1, 113520, Note_on_c, 0, 55, 30
1, 113526, Control_c, 0, 64, 0
1, 113583, Control_c, 0, 64, 127
1, 113640, Note_on_c, 0, 55, 0
1, 113640, Note_on_c, 0, 63, 27
1, 113640, Note_on_c, 0, 67, 33
1, 113640, Note_on_c, 0, 58, 30
1, 113760, Tempo, 1276596
1, 113760, Note_on_c, 0, 58, 0
1, 113760, Note_on_c, 0, 75, 0
1, 113760, Note_on_c, 0, 63, 0
1, 113760, Note_on_c, 0, 67, 0
1, 113760, Note_on_c, 0, 63, 39
1, 113760, Note_on_c, 0, 71, 46
1, 113760, Note_on_c, 0, 68, 39
1, 113760, Note_on_c, 0, 56, 39
1, 113760, Control_c, 0, 64, 0
1, 113880, Note_on_c, 0, 56, 0
1, 113880, Note_on_c, 0, 59, 26
1, 113886, Control_c, 0, 64, 127
1, 114000, Tempo, 1263158
1, 114000, Note_on_c, 0, 59, 0
1, 114000, Note_on_c, 0, 68, 0
1, 114000, Note_on_c, 0, 63, 0
1, 114000, Note_on_c, 0, 63, 26
1, 114120, Note_on_c, 0, 63, 0
1, 114120, Note_on_c, 0, 68, 26
1, 114238, Note_on_c, 0, 68, 0
1, 114240, Tempo, 1318681
1, 114240, Note_on_c, 0, 71, 0
1, 114240, Note_on_c, 0, 68, 52
1, 114240, Note_on_c, 0, 60, 31
1, 114248, Control_c, 0, 64, 0
1, 114320, Control_c, 0, 64, 127
1, 114360, Note_on_c, 0, 60, 0
1, 114360, Note_on_c, 0, 63, 31
1, 114480, Tempo, 1290323
1, 114480, Note_on_c, 0, 63, 0
1, 114480, Note_on_c, 0, 68, 0
1, 114480, Note_on_c, 0, 76, 58
1, 114480, Note_on_c, 0, 61, 40
1, 114492, Control_c, 0, 64, 0
1, 114572, Control_c, 0, 64, 127
1, 114600, Note_on_c, 0, 61, 0
1, 114600, Note_on_c, 0, 64, 34
1, 114720, Tempo, 1250000
1, 114720, Note_on_c, 0, 64, 0
1, 114720, Note_on_c, 0, 68, 34
1, 114840, Note_on_c, 0, 68, 0
1, 114840, Note_on_c, 0, 73, 29
1, 114958, Note_on_c, 0, 73, 0
1, 114960, Tempo, 1333333
1, 114960, Note_on_c, 0, 76, 0
1, 114960, Note_on_c, 0, 73, 56
1, 114960, Note_on_c, 0, 65, 34
1, 114965, Control_c, 0, 64, 0
1, 115012, Control_c, 0, 64, 127
1, 115080, Note_on_c, 0, 65, 0
1, 115080, Note_on_c, 0, 68, 31
1, 115200, Key_signature, 0, "major"
1, 115200, Tempo, 1276596
1, 115200, Note_on_c, 0, 68, 0
1, 115200, Note_on_c, 0, 73, 0
1, 115200, Note_on_c, 0, 70, 60
1, 115200, Note_on_c, 0, 54, 39
1, 115200, Control_c, 0, 64, 0
1, 115320, Note_on_c, 0, 54, 0
1, 115320, Note_on_c, 0, 58, 31
1, 115326, Control_c, 0, 64, 127
1, 115440, Tempo, 1263158
1, 115440, Note_on_c, 0, 58, 0
1, 115440, Note_on_c, 0, 61, 31
1, 115560, Note_on_c, 0, 61, 0
1, 115560, Note_on_c, 0, 66, 45
1, 115680, Tempo, 1318681
1, 115680, Note_on_c, 0, 66, 0
1, 115680, Note_on_c, 0, 70, 0
1, 115680, Note_on_c, 0, 78, 68
1, 115680, Note_on_c, 0, 90, 80
1, 115680, Note_on_c, 0, 39, 59
1, 115688, Control_c, 0, 64, 0
1, 115760, Control_c, 0, 64, 127
1, 115800, Note_on_c, 0, 39, 0
1, 115800, Note_on_c, 0, 51, 52
1, 115920, Tempo, 1290323
1, 115920, Note_on_c, 0, 51, 0
1, 115920, Note_on_c, 0, 90, 0
1, 115920, Note_on_c, 0, 78, 0
1, 115920, Note_on_c, 0, 75, 73
1, 115920, Note_on_c, 0, 87, 87
1, 115920, Note_on_c, 0, 42, 58
1, 115932, Control_c, 0, 64, 0
1, 116012, Control_c, 0, 64, 127
1, 116040, Note_on_c, 0, 42, 0
1, 116040, Note_on_c, 0, 46, 49
1, 116160, Tempo, 1250000
1, 116160, Note_on_c, 0, 46, 0
1, 116160, Note_on_c, 0, 51, 57
1, 116280, Note_on_c, 0, 51, 0
1, 116280, Note_on_c, 0, 54, 49
1, 116400, Tempo, 1333333
1, 116400, Note_on_c, 0, 54, 0
1, 116400, Note_on_c, 0, 87, 0
1, 116400, Note_on_c, 0, 75, 0
1, 116400, Note_on_c, 0, 72, 70
1, 116400, Note_on_c, 0, 84, 83
1, 116400, Note_on_c, 0, 44, 53
1, 116405, Control_c, 0, 64, 0
1, 116452, Control_c, 0, 64, 127
1, 116520, Note_on_c, 0, 44, 0
1, 116520, Note_on_c, 0, 56, 49
1, 116640, Tempo, 1276596
1, 116640, Note_on_c, 0, 56, 0
1, 116640, Note_on_c, 0, 84, 0
1, 116640, Note_on_c, 0, 72, 0
1, 116640, Note_on_c, 0, 80, 74
1, 116640, Note_on_c, 0, 92, 87
1, 116640, Note_on_c, 0, 40, 59
1, 116640, Control_c, 0, 64, 0
1, 116760, Note_on_c, 0, 40, 0
1, 116760, Note_on_c, 0, 44, 51
1, 116766, Control_c, 0, 64, 127
1, 116880, Tempo, 1263158
1, 116880, Note_on_c, 0, 44, 0
1, 116880, Note_on_c, 0, 49, 52
1, 117000, Note_on_c, 0, 49, 0
1, 117000, Note_on_c, 0, 52, 50
1, 117120, Tempo, 1318681
1, 117120, Note_on_c, 0, 52, 0
1, 117120, Note_on_c, 0, 92, 0
1, 117120, Note_on_c, 0, 80, 0
1, 117120, Note_on_c, 0, 76, 68
1, 117120, Note_on_c, 0, 88, 80
1, 117120, Note_on_c, 0, 44, 50
1, 117128, Control_c, 0, 64, 0
1, 117200, Control_c, 0, 64, 127
1, 117240, Note_on_c, 0, 44, 0
1, 117240, Note_on_c, 0, 56, 45
1, 117360, Tempo, 1290323
1, 117360, Note_on_c, 0, 56, 0
1, 117360, Note_on_c, 0, 88, 0
1, 117360, Note_on_c, 0, 76, 0
1, 117360, Note_on_c, 0, 73, 73
1, 117360, Note_on_c, 0, 85, 87
1, 117360, Note_on_c, 0, 45, 54
1, 117372, Control_c, 0, 64, 0
1, 117452, Control_c, 0, 64, 127
1, 117480, Note_on_c, 0, 45, 0
1, 117480, Note_on_c, 0, 49, 49
1, 117600, Tempo, 1250000
1, 117600, Note_on_c, 0, 49, 0
1, 117600, Note_on_c, 0, 52, 49
1, 117720, Note_on_c, 0, 52, 0
1, 117720, Note_on_c, 0, 57, 49
1, 117838, Note_on_c, 0, 57, 0
1, 117840, Tempo, 1333333
1, 117840, Note_on_c, 0, 85, 0
1, 117840, Note_on_c, 0, 73, 0
1, 117840, Note_on_c, 0, 57, 45
1, 117840, Note_on_c, 0, 69, 53
1, 117840, Note_on_c, 0, 49, 37
1, 117960, Note_on_c, 0, 49, 0
1, 117960, Note_on_c, 0, 61, 34
1, 118080, Tempo, 1276596
1, 118080, Note_on_c, 0, 61, 0
1, 118080, Note_on_c, 0, 69, 0
1, 118080, Note_on_c, 0, 57, 0
1, 118080, Note_on_c, 0, 57, 43
1, 118080, Note_on_c, 0, 66, 51
1, 118080, Note_on_c, 0, 51, 39
1, 118080, Control_c, 0, 64, 0
1, 118149, Control_c, 0, 64, 127
1, 118200, Note_on_c, 0, 54, 31
1, 118315, Note_on_c, 0, 57, 0
1, 118320, Tempo, 1263158
1, 118320, Note_on_c, 0, 58, 31
1, 118322, Control_c, 0, 64, 0
1, 118406, Control_c, 0, 64, 127
1, 118440, Note_on_c, 0, 58, 0
1, 118440, Note_on_c, 0, 63, 31
1, 118558, Note_on_c, 0, 63, 0
1, 118560, Tempo, 1318681
1, 118560, Note_on_c, 0, 66, 0
1, 118560, Note_on_c, 0, 51, 0
1, 118560, Note_on_c, 0, 54, 0
1, 118560, Note_on_c, 0, 63, 56
1, 118560, Note_on_c, 0, 55, 35
1, 118568, Control_c, 0, 64, 0
1, 118640, Control_c, 0, 64, 127
1, 118680, Note_on_c, 0, 55, 0
1, 118680, Note_on_c, 0, 58, 31
1, 118800, Tempo, 1290323
1, 118800, Note_on_c, 0, 58, 0
1, 118800, Note_on_c, 0, 63, 0
1, 118800, Note_on_c, 0, 83, 63
1, 118800, Note_on_c, 0, 56, 37
1, 118812, Control_c, 0, 64, 0
1, 118892, Control_c, 0, 64, 127
1, 118920, Note_on_c, 0, 56, 0
1, 118920, Note_on_c, 0, 59, 34
1, 119040, Tempo, 1250000
1, 119040, Note_on_c, 0, 59, 0
1, 119040, Note_on_c, 0, 63, 34
1, 119160, Note_on_c, 0, 63, 0
1, 119160, Note_on_c, 0, 68, 34
1, 119280, Tempo, 1333333
1, 119280, Note_on_c, 0, 68, 0
1, 119280, Note_on_c, 0, 83, 0
1, 119280, Note_on_c, 0, 80, 53
1, 119280, Note_on_c, 0, 60, 37
1, 119285, Control_c, 0, 64, 0
1, 119332, Control_c, 0, 64, 127
1, 119400, Note_on_c, 0, 60, 0
1, 119400, Note_on_c, 0, 63, 34
1, 119520, Tempo, 1276596
1, 119520, Note_on_c, 0, 63, 0
1, 119520, Note_on_c, 0, 80, 0
1, 119520, Note_on_c, 0, 77, 51
1, 119520, Note_on_c, 0, 61, 41
1, 119520, Control_c, 0, 64, 0
1, 119589, Control_c, 0, 64, 127
1, 119640, Note_on_c, 0, 61, 0
1, 119640, Note_on_c, 0, 65, 31
1, 119760, Tempo, 1263158
1, 119760, Note_on_c, 0, 65, 0
1, 119760, Note_on_c, 0, 68, 31
1, 119880, Note_on_c, 0, 68, 0
1, 119880, Note_on_c, 0, 73, 31
1, 119998, Note_on_c, 0, 73, 0
1, 120000, Tempo, 1318681
1, 120000, Note_on_c, 0, 77, 0
1, 120000, Note_on_c, 0, 85, 59
1, 120000, Note_on_c, 0, 73, 54
1, 120000, Note_on_c, 0, 65, 42
1, 120120, Note_on_c, 0, 65, 0
1, 120120, Note_on_c, 0, 68, 36
1, 120240, Tempo, 1290323
1, 120240, Note_on_c, 0, 68, 0
1, 120240, Note_on_c, 0, 73, 0
1, 120240, Note_on_c, 0, 85, 0
1, 120240, Note_on_c, 0, 81, 60
1, 120240, Note_on_c, 0, 73, 51
1, 120240, Note_on_c, 0, 66, 42
1, 120252, Control_c, 0, 64, 0
1, 120332, Control_c, 0, 64, 127
1, 120360, Note_on_c, 0, 66, 0
1, 120360, Note_on_c, 0, 73, 0
1, 120360, Note_on_c, 0, 78, 51
1, 120360, Note_on_c, 0, 69, 34
1, 120480, Tempo, 1250000
1, 120480, Note_on_c, 0, 69, 0
1, 120480, Note_on_c, 0, 73, 34
1, 120598, Note_on_c, 0, 78, 0
1, 120600, Note_on_c, 0, 73, 0
1, 120600, Note_on_c, 0, 69, 51
1, 120600, Note_on_c, 0, 78, 34
1, 120720, Tempo, 1333333
1, 120720, Note_on_c, 0, 78, 0
1, 120720, Note_on_c, 0, 69, 0
1, 120720, Note_on_c, 0, 81, 0
1, 120720, Note_on_c, 0, 86, 56
1, 120720, Note_on_c, 0, 74, 50
1, 120720, Note_on_c, 0, 59, 37
1, 120725, Control_c, 0, 64, 0
1, 120772, Control_c, 0, 64, 127
1, 120840, Note_on_c, 0, 59, 0
1, 120840, Note_on_c, 0, 71, 34
1, 120840, Note_on_c, 0, 59, 34
1, 120958, Note_on_c, 0, 71, 0
1, 120960, Key_signature, 3, "major"
1, 120960, Note_on_c, 0, 86, 0
1, 120960, Note_on_c, 0, 74, 0
1, 120960, Note_on_c, 0, 59, 0
1, 120960, Note_on_c, 0, 83, 56
1, 120960, Note_on_c, 0, 71, 47
1, 120960, Control_c, 0, 64, 0
1, 121063, Control_c, 0, 64, 127
1, 121080, Note_on_c, 0, 56, 28
1, 121080, Note_on_c, 0, 68, 33
1, 121200, Note_on_c, 0, 68, 0
1, 121200, Note_on_c, 0, 56, 0
1, 121320, Note_on_c, 0, 65, 33
1, 121320, Note_on_c, 0, 53, 28
1, 121440, Note_on_c, 0, 53, 0
1, 121440, Note_on_c, 0, 83, 0
1, 121440, Note_on_c, 0, 71, 0
1, 121440, Note_on_c, 0, 65, 0
1, 121440, Note_on_c, 0, 68, 42
1, 121440, Note_on_c, 0, 80, 50
1, 121680, Note_on_c, 0, 80, 0
1, 121680, Note_on_c, 0, 68, 0
1, 121680, Note_on_c, 0, 77, 46
1, 121680, Note_on_c, 0, 65, 39
1, 121682, Tempo, 1318681
1, 121693, Control_c, 0, 64, 0
1, 121800, Note_on_c, 0, 61, 30
1, 121800, Note_on_c, 0, 49, 25
1, 121829, Control_c, 0, 64, 127
1, 121855, Tempo, 1333333
1, 121920, Note_on_c, 0, 49, 0
1, 121920, Note_on_c, 0, 61, 0
1, 122027, Tempo, 1348315
1, 122040, Note_on_c, 0, 37, 25
1, 122040, Note_on_c, 0, 49, 30
1, 122160, Note_on_c, 0, 49, 0
1, 122160, Note_on_c, 0, 77, 0
1, 122160, Note_on_c, 0, 65, 0
1, 122160, Note_on_c, 0, 37, 0
1, 122160, Note_on_c, 0, 74, 44
1, 122160, Note_on_c, 0, 65, 37
1, 122160, Note_on_c, 0, 68, 37
1, 122160, Note_on_c, 0, 71, 37
1, 122200, Tempo, 1363636
1, 122373, Tempo, 1379310
1, 122398, Note_on_c, 0, 71, 0
1, 122398, Note_on_c, 0, 68, 0
1, 122398, Note_on_c, 0, 65, 0
1, 122398, Note_on_c, 0, 74, 0
1, 122400, Note_on_c, 0, 71, 39
1, 122400, Note_on_c, 0, 65, 27
1, 122400, Note_on_c, 0, 62, 27
1, 122400, Note_on_c, 0, 68, 27
1, 122520, Note_on_c, 0, 37, 22
1, 122520, Note_on_c, 0, 49, 26
1, 122640, Note_on_c, 0, 49, 0
1, 122640, Note_on_c, 0, 37, 0
1, 122760, Note_on_c, 0, 37, 25
1, 122875, Note_on_c, 0, 62, 0
1, 122875, Note_on_c, 0, 68, 0
1, 122875, Note_on_c, 0, 71, 0
1, 122875, Note_on_c, 0, 65, 0
1, 122880, Note_on_c, 0, 37, 0
1, 122880, Note_on_c, 0, 68, 36
1, 122880, Note_on_c, 0, 59, 25
1, 122880, Note_on_c, 0, 62, 25
1, 122880, Note_on_c, 0, 65, 25
1, 123103, Tempo, 1379310
1, 123118, Note_on_c, 0, 65, 0
1, 123118, Note_on_c, 0, 68, 0
1, 123118, Note_on_c, 0, 59, 0
1, 123118, Note_on_c, 0, 62, 0
1, 123120, Note_on_c, 0, 65, 34
1, 123120, Note_on_c, 0, 56, 24
1, 123120, Note_on_c, 0, 59, 24
1, 123120, Note_on_c, 0, 62, 24
1, 123160, Tempo, 1395349
1, 123218, Tempo, 1411765
1, 123240, Note_on_c, 0, 37, 22
1, 123256, Tempo, 1428571
1, 123314, Tempo, 1445783
1, 123352, Tempo, 1463415
1, 123360, Note_on_c, 0, 37, 0
1, 123410, Tempo, 1481481
1, 123467, Tempo, 1500000
1, 123480, Note_on_c, 0, 37, 21
1, 123506, Tempo, 1518987
1, 123563, Tempo, 1538462
1, 123595, Note_on_c, 0, 59, 0
1, 123595, Note_on_c, 0, 62, 0
1, 123595, Note_on_c, 0, 65, 0
1, 123595, Note_on_c, 0, 56, 0
1, 123600, Note_on_c, 0, 37, 0
1, 123600, Note_on_c, 0, 62, 30
1, 123600, Note_on_c, 0, 53, 21
1, 123600, Note_on_c, 0, 56, 21
1, 123600, Note_on_c, 0, 59, 21
1, 123600, Note_on_c, 0, 37, 21
1, 123602, Tempo, 1558442
1, 123840, Tempo, 1304348
1, 123840, Note_on_c, 0, 37, 0
1, 123840, Note_on_c, 0, 37, 30
1, 123840, Control_c, 0, 64, 0
1, 123892, Control_c, 0, 64, 127
1, 123900, Note_on_c, 0, 56, 0
1, 123900, Note_on_c, 0, 59, 0
1, 123900, Note_on_c, 0, 62, 0
1, 123900, Note_on_c, 0, 53, 0
1, 123900, Note_on_c, 0, 59, 30
1, 123960, Note_on_c, 0, 59, 0
1, 123960, Note_on_c, 0, 56, 30
1, 124020, Note_on_c, 0, 56, 0
1, 124020, Note_on_c, 0, 53, 30
1, 124078, Note_on_c, 0, 37, 0
1, 124080, Note_on_c, 0, 53, 0
1, 124080, Note_on_c, 0, 50, 30
1, 124080, Note_on_c, 0, 37, 24
1, 124090, Control_c, 0, 64, 0
1, 124135, Control_c, 0, 64, 127
1, 124140, Note_on_c, 0, 50, 0
1, 124140, Note_on_c, 0, 47, 30
1, 124200, Note_on_c, 0, 47, 0
1, 124200, Note_on_c, 0, 44, 30
1, 124260, Note_on_c, 0, 44, 0
1, 124260, Note_on_c, 0, 47, 30
1, 124293, Tempo, 1276596
1, 124318, Note_on_c, 0, 37, 0
1, 124320, Note_on_c, 0, 47, 0
1, 124320, Note_on_c, 0, 50, 35
1, 124320, Note_on_c, 0, 44, 24
1, 124320, Note_on_c, 0, 37, 20
1, 124330, Control_c, 0, 64, 0
1, 124363, Control_c, 0, 64, 127
1, 124380, Note_on_c, 0, 50, 0
1, 124380, Note_on_c, 0, 53, 30
1, 124440, Note_on_c, 0, 53, 0
1, 124440, Note_on_c, 0, 56, 30
1, 124500, Note_on_c, 0, 56, 0
1, 124500, Note_on_c, 0, 59, 30
1, 124523, Tempo, 1290323
1, 124558, Note_on_c, 0, 37, 0
1, 124558, Note_on_c, 0, 44, 0
1, 124560, Note_on_c, 0, 59, 0
1, 124560, Note_on_c, 0, 59, 30
1, 124560, Note_on_c, 0, 62, 36
1, 124560, Note_on_c, 0, 37, 20
1, 124560, Note_on_c, 0, 44, 24
1, 124571, Control_c, 0, 64, 0
1, 124612, Control_c, 0, 64, 127
1, 124620, Note_on_c, 0, 62, 0
1, 124620, Note_on_c, 0, 59, 0
1, 124620, Note_on_c, 0, 65, 30
1, 124680, Note_on_c, 0, 65, 0
1, 124680, Note_on_c, 0, 68, 30
1, 124735, Tempo, 1304348
1, 124740, Note_on_c, 0, 68, 0
1, 124740, Note_on_c, 0, 71, 30
1, 124798, Note_on_c, 0, 37, 0
1, 124798, Note_on_c, 0, 44, 0
1, 124800, Tempo, 1363636
1, 124800, Note_on_c, 0, 71, 0
1, 124800, Note_on_c, 0, 74, 35
1, 124800, Note_on_c, 0, 71, 29
1, 124800, Note_on_c, 0, 37, 20
1, 124800, Note_on_c, 0, 44, 24
1, 124811, Control_c, 0, 64, 0
1, 124843, Control_c, 0, 64, 127
1, 124860, Note_on_c, 0, 71, 0
1, 124860, Note_on_c, 0, 74, 0
1, 124860, Note_on_c, 0, 77, 30
1, 124920, Note_on_c, 0, 77, 0
1, 124920, Note_on_c, 0, 80, 30
1, 124980, Tempo, 1666667
1, 124980, Note_on_c, 0, 80, 0
1, 124980, Note_on_c, 0, 83, 30
1, 125003, Tempo, 1445783
1, 125038, Note_on_c, 0, 37, 0
1, 125038, Note_on_c, 0, 44, 0
1, 125040, Note_on_c, 0, 83, 0
1, 125040, Note_on_c, 0, 81, 22
1, 125040, Note_on_c, 0, 86, 32
1, 125040, Note_on_c, 0, 30, 20
1, 125040, Note_on_c, 0, 37, 20
1, 125040, Note_on_c, 0, 42, 24
1, 125051, Control_c, 0, 64, 0
1, 125061, Tempo, 1428571
1, 125089, Control_c, 0, 64, 127
1, 125099, Tempo, 1411765
1, 125100, Note_on_c, 0, 86, 0
1, 125100, Note_on_c, 0, 84, 28
1, 125138, Tempo, 1395349
1, 125160, Note_on_c, 0, 84, 0
1, 125160, Note_on_c, 0, 86, 28
1, 125195, Tempo, 1379310
1, 125220, Note_on_c, 0, 86, 0
1, 125220, Note_on_c, 0, 85, 28
1, 125234, Tempo, 1363636
1, 125272, Tempo, 1348315
1, 125278, Note_on_c, 0, 37, 0
1, 125278, Note_on_c, 0, 42, 0
1, 125278, Note_on_c, 0, 30, 0
1, 125280, Note_on_c, 0, 81, 0
1, 125280, Note_on_c, 0, 85, 0
1, 125280, Note_on_c, 0, 81, 24
1, 125280, Note_on_c, 0, 86, 35
1, 125280, Note_on_c, 0, 30, 20
1, 125280, Note_on_c, 0, 37, 20
1, 125280, Note_on_c, 0, 42, 24
1, 125280, Control_c, 0, 64, 0
1, 125332, Control_c, 0, 64, 127
1, 125340, Note_on_c, 0, 86, 0
1, 125340, Note_on_c, 0, 73, 24
1, 125400, Note_on_c, 0, 73, 0
1, 125400, Note_on_c, 0, 86, 28
1, 125460, Note_on_c, 0, 86, 0
1, 125460, Note_on_c, 0, 85, 28
1, 125518, Note_on_c, 0, 37, 0
1, 125518, Note_on_c, 0, 42, 0
1, 125518, Note_on_c, 0, 30, 0
1, 125520, Note_on_c, 0, 81, 0
1, 125520, Note_on_c, 0, 85, 0
1, 125520, Note_on_c, 0, 73, 22
1, 125520, Note_on_c, 0, 81, 32
1, 125520, Note_on_c, 0, 37, 20
1, 125520, Note_on_c, 0, 42, 20
1, 125520, Note_on_c, 0, 49, 24
1, 125530, Control_c, 0, 64, 0
1, 125575, Control_c, 0, 64, 127
1, 125580, Note_on_c, 0, 73, 0
1, 125580, Note_on_c, 0, 85, 28
1, 125640, Note_on_c, 0, 85, 0
1, 125640, Note_on_c, 0, 86, 28
1, 125700, Note_on_c, 0, 86, 0
1, 125700, Note_on_c, 0, 85, 28
1, 125758, Note_on_c, 0, 42, 0
1, 125758, Note_on_c, 0, 49, 0
1, 125758, Note_on_c, 0, 37, 0
1, 125760, Note_on_c, 0, 81, 0
1, 125760, Note_on_c, 0, 85, 0
1, 125760, Note_on_c, 0, 83, 28
1, 125760, Note_on_c, 0, 37, 20
1, 125760, Note_on_c, 0, 42, 20
1, 125760, Note_on_c, 0, 49, 24
1, 125770, Control_c, 0, 64, 0
1, 125803, Control_c, 0, 64, 127
1, 125820, Note_on_c, 0, 83, 0
1, 125820, Note_on_c, 0, 69, 24
1, 125880, Note_on_c, 0, 69, 0
1, 125880, Note_on_c, 0, 83, 28
1, 125940, Tempo, 1558442
1, 125940, Note_on_c, 0, 83, 0
1, 125940, Note_on_c, 0, 81, 26
1, 125998, Note_on_c, 0, 37, 0
1, 125998, Note_on_c, 0, 49, 0
1, 125998, Note_on_c, 0, 42, 0
1, 126000, Tempo, 1318681
1, 126000, Note_on_c, 0, 81, 0
1, 126000, Note_on_c, 0, 69, 28
1, 126000, Note_on_c, 0, 37, 20
1, 126000, Note_on_c, 0, 42, 20
1, 126000, Note_on_c, 0, 49, 24
1, 126011, Control_c, 0, 64, 0
1, 126052, Control_c, 0, 64, 127
1, 126060, Note_on_c, 0, 69, 0
1, 126060, Note_on_c, 0, 81, 28
1, 126120, Note_on_c, 0, 81, 0
1, 126120, Note_on_c, 0, 83, 28
1, 126180, Note_on_c, 0, 83, 0
1, 126180, Note_on_c, 0, 81, 28
1, 126238, Note_on_c, 0, 37, 0
1, 126238, Note_on_c, 0, 49, 0
1, 126238, Note_on_c, 0, 42, 0
1, 126240, Tempo, 1348315
1, 126240, Note_on_c, 0, 81, 0
1, 126240, Note_on_c, 0, 80, 34
1, 126240, Note_on_c, 0, 37, 20
1, 126240, Note_on_c, 0, 42, 20
1, 126240, Note_on_c, 0, 49, 24
1, 126251, Control_c, 0, 64, 0
1, 126283, Control_c, 0, 64, 127
1, 126300, Note_on_c, 0, 80, 0
1, 126300, Note_on_c, 0, 66, 24
1, 126360, Note_on_c, 0, 66, 0
1, 126360, Note_on_c, 0, 80, 28
1, 126420, Tempo, 1500000
1, 126420, Note_on_c, 0, 80, 0
1, 126420, Note_on_c, 0, 78, 28
1, 126478, Note_on_c, 0, 37, 0
1, 126478, Note_on_c, 0, 49, 0
1, 126478, Note_on_c, 0, 42, 0
1, 126480, Tempo, 1318681
1, 126480, Note_on_c, 0, 78, 0
1, 126480, Note_on_c, 0, 68, 28
1, 126480, Note_on_c, 0, 37, 20
1, 126480, Note_on_c, 0, 41, 20
1, 126480, Note_on_c, 0, 49, 24
1, 126491, Control_c, 0, 64, 0
1, 126529, Control_c, 0, 64, 127
1, 126540, Note_on_c, 0, 68, 0
1, 126540, Note_on_c, 0, 80, 28
1, 126600, Note_on_c, 0, 80, 0
1, 126600, Note_on_c, 0, 81, 26
1, 126660, Note_on_c, 0, 81, 0
1, 126660, Note_on_c, 0, 80, 26
1, 126718, Note_on_c, 0, 37, 0
1, 126718, Note_on_c, 0, 49, 0
1, 126718, Note_on_c, 0, 41, 0
1, 126720, Note_on_c, 0, 80, 0
1, 126720, Note_on_c, 0, 69, 31
1, 126720, Note_on_c, 0, 37, 28
1, 126720, Note_on_c, 0, 42, 28
1, 126720, Note_on_c, 0, 49, 34
1, 126720, Control_c, 0, 64, 0
1, 126772, Control_c, 0, 64, 127
1, 126780, Tempo, 1333333
1, 126780, Note_on_c, 0, 69, 0
1, 126780, Note_on_c, 0, 81, 31
1, 126840, Note_on_c, 0, 81, 0
1, 126840, Note_on_c, 0, 83, 29
1, 126900, Note_on_c, 0, 83, 0
1, 126900, Note_on_c, 0, 81, 30
1, 126958, Note_on_c, 0, 37, 0
1, 126958, Note_on_c, 0, 42, 0
1, 126958, Note_on_c, 0, 49, 0
1, 126960, Note_on_c, 0, 81, 0
1, 126960, Note_on_c, 0, 83, 39
1, 126960, Note_on_c, 0, 37, 23
1, 126960, Note_on_c, 0, 42, 23
1, 126960, Note_on_c, 0, 49, 27
1, 126970, Control_c, 0, 64, 0
1, 127015, Control_c, 0, 64, 127
1, 127020, Note_on_c, 0, 83, 0
1, 127020, Note_on_c, 0, 70, 28
1, 127080, Note_on_c, 0, 70, 0
1, 127080, Note_on_c, 0, 83, 35
1, 127140, Note_on_c, 0, 83, 0
1, 127140, Note_on_c, 0, 82, 35
1, 127198, Note_on_c, 0, 37, 0
1, 127198, Note_on_c, 0, 49, 0
1, 127198, Note_on_c, 0, 42, 0
1, 127200, Note_on_c, 0, 82, 0
1, 127200, Note_on_c, 0, 71, 36
1, 127200, Note_on_c, 0, 38, 24
1, 127200, Note_on_c, 0, 42, 24
1, 127200, Note_on_c, 0, 50, 28
1, 127210, Control_c, 0, 64, 0
1, 127243, Control_c, 0, 64, 127
1, 127260, Note_on_c, 0, 71, 0
1, 127260, Note_on_c, 0, 83, 37
1, 127320, Note_on_c, 0, 83, 0
1, 127320, Note_on_c, 0, 85, 37
1, 127380, Note_on_c, 0, 85, 0
1, 127380, Note_on_c, 0, 83, 38
1, 127438, Note_on_c, 0, 38, 0
1, 127438, Note_on_c, 0, 50, 0
1, 127438, Note_on_c, 0, 42, 0
1, 127440, Note_on_c, 0, 83, 0
1, 127440, Note_on_c, 0, 85, 49
1, 127440, Note_on_c, 0, 38, 25
1, 127440, Note_on_c, 0, 42, 25
1, 127440, Note_on_c, 0, 50, 30
1, 127451, Control_c, 0, 64, 0
1, 127492, Control_c, 0, 64, 127
1, 127500, Note_on_c, 0, 85, 0
1, 127500, Note_on_c, 0, 83, 40
1, 127560, Note_on_c, 0, 83, 0
1, 127560, Note_on_c, 0, 71, 34
1, 127620, Note_on_c, 0, 71, 0
1, 127620, Note_on_c, 0, 83, 42
1, 127678, Note_on_c, 0, 38, 0
1, 127678, Note_on_c, 0, 50, 0
1, 127678, Note_on_c, 0, 42, 0
1, 127680, Note_on_c, 0, 83, 0
1, 127680, Note_on_c, 0, 71, 42
1, 127680, Note_on_c, 0, 38, 26
1, 127680, Note_on_c, 0, 42, 26
1, 127680, Note_on_c, 0, 50, 31
1, 127691, Control_c, 0, 64, 0
1, 127723, Control_c, 0, 64, 127
1, 127740, Note_on_c, 0, 71, 0
1, 127740, Note_on_c, 0, 83, 44
1, 127800, Note_on_c, 0, 83, 0
1, 127800, Note_on_c, 0, 85, 42
1, 127860, Tempo, 1558442
1, 127860, Note_on_c, 0, 85, 0
1, 127860, Note_on_c, 0, 83, 42
1, 127918, Note_on_c, 0, 38, 0
1, 127918, Note_on_c, 0, 50, 0
1, 127918, Note_on_c, 0, 42, 0
1, 127920, Tempo, 1348315
1, 127920, Note_on_c, 0, 83, 0
1, 127920, Note_on_c, 0, 88, 55
1, 127920, Note_on_c, 0, 35, 27
1, 127920, Note_on_c, 0, 42, 27
1, 127920, Note_on_c, 0, 47, 32
1, 127931, Control_c, 0, 64, 0
1, 127969, Control_c, 0, 64, 127
1, 127980, Note_on_c, 0, 88, 0
1, 127980, Note_on_c, 0, 86, 46
1, 128040, Note_on_c, 0, 86, 0
1, 128040, Note_on_c, 0, 74, 40
1, 128100, Note_on_c, 0, 74, 0
1, 128100, Note_on_c, 0, 86, 48
1, 128158, Note_on_c, 0, 35, 0
1, 128158, Note_on_c, 0, 47, 0
1, 128158, Note_on_c, 0, 42, 0
1, 128160, Tempo, 1304348
1, 128160, Note_on_c, 0, 86, 0
1, 128160, Note_on_c, 0, 74, 50
1, 128160, Note_on_c, 0, 35, 29
1, 128160, Note_on_c, 0, 42, 29
1, 128160, Note_on_c, 0, 47, 35
1, 128160, Control_c, 0, 64, 0
1, 128212, Control_c, 0, 64, 127
1, 128220, Note_on_c, 0, 74, 0
1, 128220, Note_on_c, 0, 86, 50
1, 128280, Note_on_c, 0, 86, 0
1, 128280, Note_on_c, 0, 88, 51
1, 128340, Note_on_c, 0, 88, 0
1, 128340, Note_on_c, 0, 86, 51
1, 128398, Note_on_c, 0, 35, 0
1, 128398, Note_on_c, 0, 47, 0
1, 128398, Note_on_c, 0, 42, 0
1, 128400, Tempo, 1318681
1, 128400, Note_on_c, 0, 86, 0
1, 128400, Note_on_c, 0, 88, 60
1, 128400, Note_on_c, 0, 47, 29
1, 128400, Note_on_c, 0, 54, 29
1, 128400, Note_on_c, 0, 59, 34
1, 128410, Control_c, 0, 64, 0
1, 128455, Control_c, 0, 64, 127
1, 128460, Note_on_c, 0, 88, 0
1, 128460, Note_on_c, 0, 86, 43
1, 128520, Note_on_c, 0, 86, 0
1, 128520, Note_on_c, 0, 74, 52
1, 128580, Tempo, 1518987
1, 128580, Note_on_c, 0, 74, 0
1, 128580, Note_on_c, 0, 86, 53
1, 128638, Note_on_c, 0, 47, 0
1, 128638, Note_on_c, 0, 59, 0
1, 128638, Note_on_c, 0, 54, 0
1, 128640, Tempo, 1348315
1, 128640, Note_on_c, 0, 86, 0
1, 128640, Note_on_c, 0, 73, 52
1, 128640, Note_on_c, 0, 45, 30
1, 128640, Note_on_c, 0, 54, 30
1, 128640, Note_on_c, 0, 57, 36
1, 128650, Control_c, 0, 64, 0
1, 128683, Control_c, 0, 64, 127
1, 128700, Note_on_c, 0, 73, 0
1, 128700, Note_on_c, 0, 85, 54
1, 128760, Note_on_c, 0, 85, 0
1, 128760, Note_on_c, 0, 86, 54
1, 128820, Note_on_c, 0, 86, 0
1, 128820, Note_on_c, 0, 85, 55
1, 128878, Note_on_c, 0, 45, 0
1, 128878, Note_on_c, 0, 57, 0
1, 128878, Note_on_c, 0, 54, 0
1, 128880, Note_on_c, 0, 85, 0
1, 128880, Note_on_c, 0, 86, 68
1, 128880, Note_on_c, 0, 45, 31
1, 128880, Note_on_c, 0, 54, 31
1, 128880, Note_on_c, 0, 57, 37
1, 128891, Control_c, 0, 64, 0
1, 128932, Control_c, 0, 64, 127
1, 128940, Note_on_c, 0, 86, 0
1, 128940, Note_on_c, 0, 85, 56
1, 129000, Note_on_c, 0, 85, 0
1, 129000, Note_on_c, 0, 73, 47
1, 129060, Note_on_c, 0, 73, 0
1, 129060, Note_on_c, 0, 85, 56
1, 129118, Note_on_c, 0, 45, 0
1, 129118, Note_on_c, 0, 57, 0
1, 129118, Note_on_c, 0, 54, 0
1, 129120, Tempo, 1333333
1, 129120, Note_on_c, 0, 85, 0
1, 129120, Note_on_c, 0, 77, 43
1, 129120, Note_on_c, 0, 83, 57
1, 129120, Note_on_c, 0, 44, 32
1, 129120, Note_on_c, 0, 49, 32
1, 129120, Note_on_c, 0, 56, 38
1, 129131, Control_c, 0, 64, 0
1, 129163, Control_c, 0, 64, 127
1, 129180, Note_on_c, 0, 83, 0
1, 129180, Note_on_c, 0, 77, 0
1, 129180, Note_on_c, 0, 89, 57
1, 129240, Note_on_c, 0, 89, 0
1, 129240, Note_on_c, 0, 90, 58
1, 129300, Tempo, 1500000
1, 129300, Note_on_c, 0, 90, 0
1, 129300, Note_on_c, 0, 89, 58
1, 129358, Note_on_c, 0, 49, 0
1, 129358, Note_on_c, 0, 56, 0
1, 129358, Note_on_c, 0, 44, 0
1, 129360, Tempo, 1333333
1, 129360, Note_on_c, 0, 89, 0
1, 129360, Note_on_c, 0, 92, 70
1, 129360, Note_on_c, 0, 42, 33
1, 129360, Note_on_c, 0, 49, 33
1, 129360, Note_on_c, 0, 54, 39
1, 129371, Control_c, 0, 64, 0
1, 129409, Control_c, 0, 64, 127
1, 129420, Note_on_c, 0, 92, 0
1, 129420, Note_on_c, 0, 90, 59
1, 129480, Note_on_c, 0, 90, 0
1, 129480, Note_on_c, 0, 81, 50
1, 129480, Note_on_c, 0, 78, 50
1, 129540, Tempo, 1500000
1, 129540, Note_on_c, 0, 78, 0
1, 129540, Note_on_c, 0, 81, 0
1, 129540, Note_on_c, 0, 90, 60
1, 129598, Note_on_c, 0, 42, 0
1, 129598, Note_on_c, 0, 54, 0
1, 129598, Note_on_c, 0, 49, 0
1, 129600, Tempo, 1318681
1, 129600, Note_on_c, 0, 90, 0
1, 129600, Note_on_c, 0, 93, 68
1, 129600, Note_on_c, 0, 41, 35
1, 129600, Note_on_c, 0, 49, 35
1, 129600, Note_on_c, 0, 56, 42
1, 129600, Control_c, 0, 64, 0
1, 129652, Control_c, 0, 64, 127
1, 129660, Note_on_c, 0, 93, 0
1, 129660, Note_on_c, 0, 92, 61
1, 129720, Note_on_c, 0, 92, 0
1, 129720, Note_on_c, 0, 80, 61
1, 129780, Note_on_c, 0, 80, 0
1, 129780, Note_on_c, 0, 92, 61
1, 129838, Note_on_c, 0, 41, 0
1, 129838, Note_on_c, 0, 56, 0
1, 129838, Note_on_c, 0, 49, 0
1, 129840, Tempo, 1290323
1, 129840, Note_on_c, 0, 92, 0
1, 129840, Note_on_c, 0, 41, 34
1, 129840, Note_on_c, 0, 49, 34
1, 129840, Note_on_c, 0, 56, 40
1, 129850, Control_c, 0, 64, 0
1, 129895, Control_c, 0, 64, 127
1, 129900, Tempo, 1333333
1, 129900, Note_on_c, 0, 92, 51
1, 129960, Note_on_c, 0, 92, 0
1, 129960, Note_on_c, 0, 80, 60
1, 130020, Note_on_c, 0, 80, 0
1, 130020, Note_on_c, 0, 92, 55
1, 130078, Note_on_c, 0, 56, 0
1, 130078, Note_on_c, 0, 41, 0
1, 130078, Note_on_c, 0, 49, 0
1, 130080, Note_on_c, 0, 92, 0
1, 130080, Note_on_c, 0, 53, 34
1, 130080, Note_on_c, 0, 56, 34
1, 130080, Note_on_c, 0, 59, 34
1, 130080, Note_on_c, 0, 61, 40
1, 130090, Control_c, 0, 64, 0
1, 130123, Control_c, 0, 64, 127
1, 130140, Note_on_c, 0, 92, 54
1, 130200, Note_on_c, 0, 92, 0
1, 130200, Note_on_c, 0, 80, 59
1, 130260, Tempo, 1463415
1, 130260, Note_on_c, 0, 80, 0
1, 130260, Note_on_c, 0, 92, 55
1, 130318, Note_on_c, 0, 61, 0
1, 130318, Note_on_c, 0, 59, 0
1, 130318, Note_on_c, 0, 53, 0
1, 130318, Note_on_c, 0, 56, 0
1, 130320, Tempo, 1304348
1, 130320, Note_on_c, 0, 92, 0
1, 130320, Note_on_c, 0, 53, 34
1, 130320, Note_on_c, 0, 56, 34
1, 130320, Note_on_c, 0, 59, 34
1, 130320, Note_on_c, 0, 62, 40
1, 130331, Control_c, 0, 64, 0
1, 130372, Control_c, 0, 64, 127
1, 130380, Note_on_c, 0, 80, 53
1, 130440, Note_on_c, 0, 80, 0
1, 130440, Note_on_c, 0, 88, 64
1, 130500, Note_on_c, 0, 88, 0
1, 130500, Note_on_c, 0, 86, 53
1, 130558, Note_on_c, 0, 62, 0
1, 130558, Note_on_c, 0, 59, 0
1, 130558, Note_on_c, 0, 53, 0
1, 130558, Note_on_c, 0, 56, 0
1, 130560, Tempo, 1333333
1, 130560, Note_on_c, 0, 86, 0
1, 130560, Note_on_c, 0, 85, 61
1, 130560, Note_on_c, 0, 53, 34
1, 130560, Note_on_c, 0, 56, 34
1, 130560, Note_on_c, 0, 59, 34
1, 130560, Note_on_c, 0, 62, 40
1, 130571, Control_c, 0, 64, 0
1, 130603, Control_c, 0, 64, 127
1, 130620, Note_on_c, 0, 85, 0
1, 130620, Note_on_c, 0, 86, 61
1, 130680, Note_on_c, 0, 86, 0
1, 130680, Note_on_c, 0, 80, 57
1, 130740, Note_on_c, 0, 80, 0
1, 130740, Note_on_c, 0, 86, 57
1, 130798, Note_on_c, 0, 59, 0
1, 130798, Note_on_c, 0, 62, 0
1, 130798, Note_on_c, 0, 53, 0
1, 130798, Note_on_c, 0, 56, 0
1, 130800, Note_on_c, 0, 86, 0
1, 130800, Note_on_c, 0, 53, 34
1, 130800, Note_on_c, 0, 56, 34
1, 130800, Note_on_c, 0, 59, 34
1, 130800, Note_on_c, 0, 62, 40
1, 130811, Control_c, 0, 64, 0
1, 130849, Control_c, 0, 64, 127
1, 130860, Note_on_c, 0, 86, 56
1, 130920, Note_on_c, 0, 86, 0
1, 130920, Note_on_c, 0, 80, 64
1, 130980, Note_on_c, 0, 80, 0
1, 130980, Note_on_c, 0, 86, 56
1, 131038, Note_on_c, 0, 62, 0
1, 131038, Note_on_c, 0, 59, 0
1, 131038, Note_on_c, 0, 53, 0
1, 131038, Note_on_c, 0, 56, 0
1, 131040, Note_on_c, 0, 86, 0
1, 131040, Note_on_c, 0, 74, 61
1, 131040, Note_on_c, 0, 53, 35
1, 131040, Note_on_c, 0, 56, 35
1, 131040, Note_on_c, 0, 59, 35
1, 131040, Note_on_c, 0, 62, 42
1, 131040, Control_c, 0, 64, 0
1, 131092, Control_c, 0, 64, 127
1, 131100, Note_on_c, 0, 74, 0
1, 131100, Note_on_c, 0, 85, 54
1, 131160, Note_on_c, 0, 85, 0
1, 131160, Note_on_c, 0, 88, 58
1, 131220, Tempo, 1538462
1, 131220, Note_on_c, 0, 88, 0
1, 131220, Note_on_c, 0, 86, 53
1, 131278, Note_on_c, 0, 59, 0
1, 131278, Note_on_c, 0, 62, 0
1, 131278, Note_on_c, 0, 53, 0
1, 131278, Note_on_c, 0, 56, 0
1, 131280, Tempo, 1348315
1, 131280, Note_on_c, 0, 86, 0
1, 131280, Note_on_c, 0, 85, 66
1, 131280, Note_on_c, 0, 41, 34
1, 131280, Note_on_c, 0, 44, 34
1, 131280, Note_on_c, 0, 53, 40
1, 131290, Control_c, 0, 64, 0
1, 131335, Control_c, 0, 64, 127
1, 131340, Note_on_c, 0, 85, 0
1, 131340, Note_on_c, 0, 86, 51
1, 131400, Note_on_c, 0, 86, 0
1, 131400, Note_on_c, 0, 74, 61
1, 131460, Note_on_c, 0, 74, 0
1, 131460, Note_on_c, 0, 86, 54
1, 131518, Note_on_c, 0, 41, 0
1, 131518, Note_on_c, 0, 53, 0
1, 131518, Note_on_c, 0, 44, 0
1, 131520, Tempo, 1318681
1, 131520, Note_on_c, 0, 86, 0
1, 131520, Note_on_c, 0, 74, 63
1, 131520, Note_on_c, 0, 41, 34
1, 131520, Note_on_c, 0, 44, 34
1, 131520, Note_on_c, 0, 53, 40
1, 131530, Control_c, 0, 64, 0
1, 131563, Control_c, 0, 64, 127
1, 131580, Note_on_c, 0, 74, 0
1, 131580, Note_on_c, 0, 86, 57
1, 131640, Note_on_c, 0, 86, 0
1, 131640, Note_on_c, 0, 88, 64
1, 131700, Note_on_c, 0, 88, 0
1, 131700, Note_on_c, 0, 86, 57
1, 131758, Note_on_c, 0, 41, 0
1, 131758, Note_on_c, 0, 53, 0
1, 131758, Note_on_c, 0, 44, 0
1, 131758, Note_on_c, 0, 86, 0
1, 131760, Tempo, 1333333
1, 131760, Note_on_c, 0, 86, 66
1, 131760, Note_on_c, 0, 41, 30
1, 131760, Note_on_c, 0, 44, 30
1, 131760, Note_on_c, 0, 53, 36
1, 131771, Control_c, 0, 64, 0
1, 131812, Control_c, 0, 64, 127
1, 131820, Note_on_c, 0, 86, 0
1, 131820, Note_on_c, 0, 85, 53
1, 131880, Note_on_c, 0, 85, 0
1, 131880, Note_on_c, 0, 73, 59
1, 131940, Tempo, 1463415
1, 131940, Note_on_c, 0, 73, 0
1, 131940, Note_on_c, 0, 85, 51
1, 131998, Note_on_c, 0, 41, 0
1, 131998, Note_on_c, 0, 53, 0
1, 131998, Note_on_c, 0, 44, 0
1, 132000, Tempo, 1348315
1, 132000, Note_on_c, 0, 85, 0
1, 132000, Note_on_c, 0, 84, 50
1, 132000, Note_on_c, 0, 42, 28
1, 132000, Note_on_c, 0, 45, 28
1, 132000, Note_on_c, 0, 54, 33
1, 132011, Control_c, 0, 64, 0
1, 132043, Control_c, 0, 64, 127
1, 132060, Note_on_c, 0, 84, 0
1, 132060, Note_on_c, 0, 85, 49
1, 132120, Note_on_c, 0, 85, 0
1, 132120, Note_on_c, 0, 73, 48
1, 132180, Note_on_c, 0, 73, 0
1, 132180, Note_on_c, 0, 85, 47
1, 132238, Note_on_c, 0, 42, 0
1, 132238, Note_on_c, 0, 54, 0
1, 132238, Note_on_c, 0, 45, 0
1, 132240, Tempo, 1318681
1, 132240, Note_on_c, 0, 85, 0
1, 132240, Note_on_c, 0, 82, 55
1, 132240, Note_on_c, 0, 44, 26
1, 132240, Note_on_c, 0, 47, 26
1, 132240, Note_on_c, 0, 56, 31
1, 132251, Control_c, 0, 64, 0
1, 132289, Control_c, 0, 64, 127
1, 132300, Note_on_c, 0, 82, 0
1, 132300, Note_on_c, 0, 83, 46
1, 132360, Note_on_c, 0, 83, 0
1, 132360, Note_on_c, 0, 71, 37
1, 132420, Note_on_c, 0, 71, 0
1, 132420, Note_on_c, 0, 83, 44
1, 132478, Note_on_c, 0, 44, 0
1, 132478, Note_on_c, 0, 56, 0
1, 132478, Note_on_c, 0, 47, 0
1, 132480, Tempo, 1333333
1, 132480, Note_on_c, 0, 83, 0
1, 132480, Note_on_c, 0, 71, 50
1, 132480, Note_on_c, 0, 44, 25
1, 132480, Note_on_c, 0, 47, 25
1, 132480, Note_on_c, 0, 56, 30
1, 132480, Control_c, 0, 64, 0
1, 132532, Control_c, 0, 64, 127
1, 132540, Note_on_c, 0, 71, 0
1, 132540, Note_on_c, 0, 83, 44
1, 132600, Note_on_c, 0, 83, 0
1, 132600, Note_on_c, 0, 85, 45
1, 132660, Tempo, 1481481
1, 132660, Note_on_c, 0, 85, 0
1, 132660, Note_on_c, 0, 83, 46
1, 132718, Note_on_c, 0, 44, 0
1, 132718, Note_on_c, 0, 56, 0
1, 132718, Note_on_c, 0, 47, 0
1, 132720, Tempo, 1348315
1, 132720, Note_on_c, 0, 83, 0
1, 132720, Note_on_c, 0, 82, 55
1, 132720, Note_on_c, 0, 56, 26
1, 132720, Note_on_c, 0, 59, 26
1, 132720, Note_on_c, 0, 62, 26
1, 132720, Note_on_c, 0, 65, 31
1, 132730, Control_c, 0, 64, 0
1, 132775, Control_c, 0, 64, 127
1, 132780, Note_on_c, 0, 82, 0
1, 132780, Note_on_c, 0, 83, 48
1, 132840, Note_on_c, 0, 83, 0
1, 132840, Note_on_c, 0, 71, 43
1, 132900, Note_on_c, 0, 71, 0
1, 132900, Note_on_c, 0, 83, 51
1, 132958, Note_on_c, 0, 62, 0
1, 132958, Note_on_c, 0, 65, 0
1, 132958, Note_on_c, 0, 56, 0
1, 132958, Note_on_c, 0, 59, 0
1, 132960, Note_on_c, 0, 83, 0
1, 132960, Note_on_c, 0, 71, 56
1, 132960, Note_on_c, 0, 56, 29
1, 132960, Note_on_c, 0, 59, 29
1, 132960, Note_on_c, 0, 62, 29
1, 132960, Note_on_c, 0, 65, 35
1, 132970, Control_c, 0, 64, 0
1, 133003, Control_c, 0, 64, 127
1, 133020, Note_on_c, 0, 71, 0
1, 133020, Note_on_c, 0, 83, 54
1, 133080, Note_on_c, 0, 83, 0
1, 133080, Note_on_c, 0, 85, 55
1, 133140, Note_on_c, 0, 85, 0
1, 133140, Note_on_c, 0, 83, 56
1, 133198, Note_on_c, 0, 62, 0
1, 133198, Note_on_c, 0, 65, 0
1, 133198, Note_on_c, 0, 56, 0
1, 133198, Note_on_c, 0, 59, 0
1, 133200, Note_on_c, 0, 83, 0
1, 133200, Note_on_c, 0, 59, 32
1, 133200, Note_on_c, 0, 56, 32
1, 133200, Note_on_c, 0, 62, 32
1, 133200, Note_on_c, 0, 65, 38
1, 133211, Control_c, 0, 64, 0
1, 133252, Control_c, 0, 64, 127
1, 133260, Note_on_c, 0, 85, 49
1, 133320, Note_on_c, 0, 85, 0
1, 133320, Note_on_c, 0, 71, 43
1, 133380, Tempo, 1500000
1, 133380, Note_on_c, 0, 71, 0
1, 133380, Note_on_c, 0, 83, 49
1, 133438, Note_on_c, 0, 65, 0
1, 133438, Note_on_c, 0, 62, 0
1, 133438, Note_on_c, 0, 59, 0
1, 133438, Note_on_c, 0, 56, 0
1, 133440, Tempo, 1290323
1, 133440, Note_on_c, 0, 83, 0
1, 133440, Note_on_c, 0, 57, 31
1, 133440, Note_on_c, 0, 61, 31
1, 133440, Note_on_c, 0, 66, 37
1, 133451, Control_c, 0, 64, 0
1, 133483, Control_c, 0, 64, 127
1, 133500, Note_on_c, 0, 83, 45
1, 133560, Note_on_c, 0, 83, 0
1, 133560, Note_on_c, 0, 69, 43
1, 133620, Note_on_c, 0, 69, 0
1, 133620, Note_on_c, 0, 81, 43
1, 133678, Note_on_c, 0, 66, 0
1, 133678, Note_on_c, 0, 57, 0
1, 133678, Note_on_c, 0, 61, 0
1, 133680, Tempo, 1304348
1, 133680, Note_on_c, 0, 81, 0
1, 133680, Note_on_c, 0, 59, 30
1, 133680, Note_on_c, 0, 62, 30
1, 133680, Note_on_c, 0, 66, 36
1, 133691, Control_c, 0, 64, 0
1, 133729, Control_c, 0, 64, 127
1, 133740, Note_on_c, 0, 81, 49
1, 133799, Note_on_c, 0, 66, 0
1, 133799, Note_on_c, 0, 59, 0
1, 133799, Note_on_c, 0, 62, 0
1, 133800, Note_on_c, 0, 81, 0
1, 133800, Note_on_c, 0, 68, 47
1, 133800, Note_on_c, 0, 60, 30
1, 133800, Note_on_c, 0, 63, 30
1, 133800, Note_on_c, 0, 66, 36
1, 133860, Note_on_c, 0, 68, 0
1, 133860, Note_on_c, 0, 80, 54
1, 133920, Tempo, 1304348
1, 133920, Note_on_c, 0, 80, 0
1, 133920, Note_on_c, 0, 66, 0
1, 133920, Note_on_c, 0, 63, 0
1, 133920, Note_on_c, 0, 60, 0
1, 133920, Note_on_c, 0, 68, 54
1, 133920, Control_c, 0, 64, 0
1, 133972, Control_c, 0, 64, 127
1, 133980, Note_on_c, 0, 68, 0
1, 133980, Note_on_c, 0, 80, 54
1, 134040, Note_on_c, 0, 80, 0
1, 134040, Note_on_c, 0, 79, 51
1, 134040, Note_on_c, 0, 60, 31
1, 134040, Note_on_c, 0, 63, 31
1, 134040, Note_on_c, 0, 66, 31
1, 134040, Note_on_c, 0, 68, 37
1, 134100, Note_on_c, 0, 79, 0
1, 134100, Note_on_c, 0, 80, 51
1, 134160, Note_on_c, 0, 80, 0
1, 134160, Note_on_c, 0, 68, 0
1, 134160, Note_on_c, 0, 60, 0
1, 134160, Note_on_c, 0, 63, 0
1, 134160, Note_on_c, 0, 66, 0
1, 134160, Note_on_c, 0, 81, 61
1, 134170, Control_c, 0, 64, 0
1, 134215, Control_c, 0, 64, 127
1, 134220, Note_on_c, 0, 81, 0
1, 134220, Note_on_c, 0, 80, 43
1, 134280, Note_on_c, 0, 80, 0
1, 134280, Note_on_c, 0, 68, 52
1, 134280, Note_on_c, 0, 60, 29
1, 134280, Note_on_c, 0, 63, 29
1, 134280, Note_on_c, 0, 66, 34
1, 134340, Note_on_c, 0, 68, 0
1, 134340, Note_on_c, 0, 80, 52
1, 134400, Note_on_c, 0, 80, 0
1, 134400, Note_on_c, 0, 66, 0
1, 134400, Note_on_c, 0, 63, 0
1, 134400, Note_on_c, 0, 60, 0
1, 134400, Note_on_c, 0, 68, 50
1, 134410, Control_c, 0, 64, 0
1, 134443, Control_c, 0, 64, 127
1, 134460, Note_on_c, 0, 68, 0
1, 134460, Note_on_c, 0, 80, 51
1, 134520, Note_on_c, 0, 80, 0
1, 134520, Note_on_c, 0, 81, 51
1, 134520, Note_on_c, 0, 66, 28
1, 134520, Note_on_c, 0, 60, 28
1, 134520, Note_on_c, 0, 63, 28
1, 134520, Note_on_c, 0, 68, 34
1, 134580, Note_on_c, 0, 81, 0
1, 134580, Note_on_c, 0, 80, 50
1, 134640, Note_on_c, 0, 80, 0
1, 134640, Note_on_c, 0, 68, 0
1, 134640, Note_on_c, 0, 66, 0
1, 134640, Note_on_c, 0, 60, 0
1, 134640, Note_on_c, 0, 63, 0
1, 134640, Note_on_c, 0, 81, 61
1, 134651, Control_c, 0, 64, 0
1, 134692, Control_c, 0, 64, 127
1, 134700, Note_on_c, 0, 81, 0
1, 134700, Note_on_c, 0, 80, 50
1, 134760, Note_on_c, 0, 80, 0
1, 134760, Note_on_c, 0, 68, 41
1, 134760, Note_on_c, 0, 60, 27
1, 134760, Note_on_c, 0, 63, 27
1, 134760, Note_on_c, 0, 66, 33
1, 134820, Tempo, 1558442
1, 134820, Note_on_c, 0, 68, 0
1, 134820, Note_on_c, 0, 80, 49
1, 134880, Tempo, 1333333
1, 134880, Note_on_c, 0, 80, 0
1, 134880, Note_on_c, 0, 66, 0
1, 134880, Note_on_c, 0, 63, 0
1, 134880, Note_on_c, 0, 60, 0
1, 134880, Note_on_c, 0, 69, 49
1, 134891, Control_c, 0, 64, 0
1, 134923, Control_c, 0, 64, 127
1, 134940, Note_on_c, 0, 69, 0
1, 134940, Note_on_c, 0, 81, 48
1, 135000, Note_on_c, 0, 81, 0
1, 135000, Note_on_c, 0, 83, 48
1, 135000, Note_on_c, 0, 60, 27
1, 135000, Note_on_c, 0, 63, 27
1, 135000, Note_on_c, 0, 66, 27
1, 135000, Note_on_c, 0, 69, 32
1, 135060, Note_on_c, 0, 83, 0
1, 135060, Note_on_c, 0, 81, 48
1, 135120, Note_on_c, 0, 81, 0
1, 135120, Note_on_c, 0, 69, 0
1, 135120, Note_on_c, 0, 60, 0
1, 135120, Note_on_c, 0, 63, 0
1, 135120, Note_on_c, 0, 66, 0
1, 135120, Note_on_c, 0, 80, 57
1, 135131, Control_c, 0, 64, 0
1, 135169, Control_c, 0, 64, 127
1, 135180, Note_on_c, 0, 80, 0
1, 135180, Note_on_c, 0, 78, 47
1, 135240, Note_on_c, 0, 78, 0
1, 135240, Note_on_c, 0, 66, 39
1, 135240, Note_on_c, 0, 54, 26
1, 135240, Note_on_c, 0, 48, 26
1, 135240, Note_on_c, 0, 51, 26
1, 135240, Note_on_c, 0, 57, 31
1, 135300, Tempo, 1463415
1, 135300, Note_on_c, 0, 66, 0
1, 135300, Note_on_c, 0, 78, 47
1, 135360, Tempo, 1304348
1, 135360, Note_on_c, 0, 78, 0
1, 135360, Note_on_c, 0, 57, 0
1, 135360, Note_on_c, 0, 54, 0
1, 135360, Note_on_c, 0, 48, 0
1, 135360, Note_on_c, 0, 51, 0
1, 135360, Note_on_c, 0, 77, 53
1, 135360, Control_c, 0, 64, 0
1, 135412, Control_c, 0, 64, 127
1, 135420, Note_on_c, 0, 77, 0
1, 135420, Note_on_c, 0, 78, 46
1, 135480, Note_on_c, 0, 78, 0
1, 135480, Note_on_c, 0, 66, 45
1, 135480, Note_on_c, 0, 49, 27
1, 135480, Note_on_c, 0, 54, 27
1, 135480, Note_on_c, 0, 57, 32
1, 135540, Note_on_c, 0, 66, 0
1, 135540, Note_on_c, 0, 78, 46
1, 135600, Tempo, 1318681
1, 135600, Note_on_c, 0, 78, 0
1, 135600, Note_on_c, 0, 57, 0
1, 135600, Note_on_c, 0, 54, 0
1, 135600, Note_on_c, 0, 49, 0
1, 135600, Note_on_c, 0, 80, 54
1, 135610, Control_c, 0, 64, 0
1, 135655, Control_c, 0, 64, 127
1, 135660, Note_on_c, 0, 80, 0
1, 135660, Note_on_c, 0, 78, 39
1, 135720, Note_on_c, 0, 78, 0
1, 135720, Note_on_c, 0, 66, 46
1, 135720, Note_on_c, 0, 57, 22
1, 135720, Note_on_c, 0, 49, 22
1, 135720, Note_on_c, 0, 54, 22
1, 135720, Note_on_c, 0, 60, 26
1, 135780, Note_on_c, 0, 66, 0
1, 135780, Note_on_c, 0, 78, 46
1, 135840, Note_on_c, 0, 78, 0
1, 135840, Note_on_c, 0, 60, 0
1, 135840, Note_on_c, 0, 57, 0
1, 135840, Note_on_c, 0, 49, 0
1, 135840, Note_on_c, 0, 54, 0
1, 135840, Note_on_c, 0, 77, 45
1, 135850, Control_c, 0, 64, 0
1, 135883, Control_c, 0, 64, 127
1, 135900, Note_on_c, 0, 77, 0
1, 135900, Note_on_c, 0, 78, 41
1, 135960, Note_on_c, 0, 78, 0
1, 135960, Note_on_c, 0, 66, 46
1, 135960, Note_on_c, 0, 57, 26
1, 135960, Note_on_c, 0, 49, 26
1, 135960, Note_on_c, 0, 54, 26
1, 135960, Note_on_c, 0, 61, 31
1, 136020, Note_on_c, 0, 66, 0
1, 136020, Note_on_c, 0, 78, 40
1, 136080, Note_on_c, 0, 78, 0
1, 136080, Note_on_c, 0, 61, 0
1, 136080, Note_on_c, 0, 57, 0
1, 136080, Note_on_c, 0, 49, 0
1, 136080, Note_on_c, 0, 54, 0
1, 136080, Note_on_c, 0, 53, 26
1, 136080, Note_on_c, 0, 49, 26
1, 136080, Note_on_c, 0, 56, 26
1, 136080, Note_on_c, 0, 61, 31
1, 136091, Control_c, 0, 64, 0
1, 136132, Control_c, 0, 64, 127
1, 136140, Note_on_c, 0, 78, 46
1, 136200, Note_on_c, 0, 78, 0
1, 136200, Note_on_c, 0, 65, 39
1, 136260, Note_on_c, 0, 65, 0
1, 136260, Note_on_c, 0, 77, 46
1, 136320, Tempo, 1290323
1, 136320, Note_on_c, 0, 77, 0
1, 136320, Note_on_c, 0, 56, 0
1, 136320, Note_on_c, 0, 53, 0
1, 136320, Note_on_c, 0, 49, 0
1, 136320, Note_on_c, 0, 61, 0
1, 136320, Note_on_c, 0, 49, 26
1, 136320, Note_on_c, 0, 53, 26
1, 136320, Note_on_c, 0, 56, 31
1, 136331, Control_c, 0, 64, 0
1, 136363, Control_c, 0, 64, 127
1, 136380, Note_on_c, 0, 81, 46
1, 136440, Note_on_c, 0, 81, 0
1, 136440, Note_on_c, 0, 68, 42
1, 136500, Note_on_c, 0, 68, 0
1, 136500, Note_on_c, 0, 80, 46
1, 136560, Note_on_c, 0, 80, 0
1, 136560, Note_on_c, 0, 49, 0
1, 136560, Note_on_c, 0, 53, 0
1, 136560, Note_on_c, 0, 56, 0
1, 136560, Note_on_c, 0, 49, 26
1, 136560, Note_on_c, 0, 56, 26
1, 136560, Note_on_c, 0, 59, 31
1, 136571, Control_c, 0, 64, 0
1, 136609, Control_c, 0, 64, 127
1, 136620, Note_on_c, 0, 85, 46
1, 136680, Note_on_c, 0, 85, 0
1, 136680, Note_on_c, 0, 71, 39
1, 136740, Tempo, 1518987
1, 136740, Note_on_c, 0, 71, 0
1, 136740, Note_on_c, 0, 83, 46
1, 136800, Tempo, 1290323
1, 136800, Note_on_c, 0, 83, 0
1, 136800, Note_on_c, 0, 49, 0
1, 136800, Note_on_c, 0, 56, 0
1, 136800, Note_on_c, 0, 59, 0
1, 136800, Note_on_c, 0, 85, 46
1, 136800, Note_on_c, 0, 49, 27
1, 136800, Note_on_c, 0, 56, 27
1, 136800, Note_on_c, 0, 59, 32
1, 136800, Control_c, 0, 64, 0
1, 136852, Control_c, 0, 64, 127
1, 136860, Note_on_c, 0, 85, 0
1, 136860, Note_on_c, 0, 71, 39
1, 136920, Note_on_c, 0, 71, 0
1, 136920, Note_on_c, 0, 85, 46
1, 136980, Note_on_c, 0, 85, 0
1, 136980, Note_on_c, 0, 83, 46
1, 137040, Note_on_c, 0, 83, 0
1, 137040, Note_on_c, 0, 59, 0
1, 137040, Note_on_c, 0, 56, 0
1, 137040, Note_on_c, 0, 49, 0
1, 137040, Note_on_c, 0, 82, 54
1, 137040, Note_on_c, 0, 49, 23
1, 137040, Note_on_c, 0, 56, 23
1, 137040, Note_on_c, 0, 59, 27
1, 137050, Control_c, 0, 64, 0
1, 137095, Control_c, 0, 64, 127
1, 137100, Note_on_c, 0, 82, 0
1, 137100, Note_on_c, 0, 83, 46
1, 137160, Note_on_c, 0, 83, 0
1, 137160, Note_on_c, 0, 71, 37
1, 137220, Tempo, 1518987
1, 137220, Note_on_c, 0, 71, 0
1, 137220, Note_on_c, 0, 83, 46
1, 137278, Note_on_c, 0, 83, 0
1, 137280, Tempo, 1333333
1, 137280, Note_on_c, 0, 59, 0
1, 137280, Note_on_c, 0, 56, 0
1, 137280, Note_on_c, 0, 49, 0
1, 137280, Note_on_c, 0, 83, 45
1, 137280, Note_on_c, 0, 49, 26
1, 137280, Note_on_c, 0, 54, 26
1, 137280, Note_on_c, 0, 57, 31
1, 137290, Control_c, 0, 64, 0
1, 137323, Control_c, 0, 64, 127
1, 137340, Tempo, 1290323
1, 137340, Note_on_c, 0, 83, 0
1, 137340, Note_on_c, 0, 81, 46
1, 137400, Note_on_c, 0, 81, 0
1, 137400, Note_on_c, 0, 69, 41
1, 137460, Tempo, 1290323
1, 137460, Note_on_c, 0, 69, 0
1, 137460, Note_on_c, 0, 81, 46
1, 137520, Tempo, 1304348
1, 137520, Note_on_c, 0, 81, 0
1, 137520, Note_on_c, 0, 57, 0
1, 137520, Note_on_c, 0, 54, 0
1, 137520, Note_on_c, 0, 49, 0
1, 137520, Note_on_c, 0, 83, 57
1, 137520, Note_on_c, 0, 49, 23
1, 137520, Note_on_c, 0, 54, 23
1, 137520, Note_on_c, 0, 57, 27
1, 137531, Control_c, 0, 64, 0
1, 137572, Control_c, 0, 64, 127
1, 137580, Note_on_c, 0, 83, 0
1, 137580, Note_on_c, 0, 69, 39
1, 137640, Note_on_c, 0, 69, 0
1, 137640, Note_on_c, 0, 83, 44
1, 137700, Note_on_c, 0, 83, 0
1, 137700, Note_on_c, 0, 81, 46
1, 137758, Note_on_c, 0, 81, 0
1, 137760, Note_on_c, 0, 57, 0
1, 137760, Note_on_c, 0, 54, 0
1, 137760, Note_on_c, 0, 49, 0
1, 137760, Note_on_c, 0, 81, 46
1, 137760, Note_on_c, 0, 47, 26
1, 137760, Note_on_c, 0, 50, 26
1, 137760, Note_on_c, 0, 53, 26
1, 137760, Note_on_c, 0, 56, 31
1, 137771, Control_c, 0, 64, 0
1, 137803, Control_c, 0, 64, 127
1, 137820, Note_on_c, 0, 81, 0
1, 137820, Note_on_c, 0, 68, 39
1, 137880, Note_on_c, 0, 68, 0
1, 137880, Note_on_c, 0, 81, 43
1, 137940, Note_on_c, 0, 81, 0
1, 137940, Note_on_c, 0, 80, 43
1, 137998, Note_on_c, 0, 80, 0
1, 138000, Note_on_c, 0, 56, 0
1, 138000, Note_on_c, 0, 47, 0
1, 138000, Note_on_c, 0, 50, 0
1, 138000, Note_on_c, 0, 53, 0
1, 138000, Note_on_c, 0, 80, 55
1, 138000, Note_on_c, 0, 45, 26
1, 138000, Note_on_c, 0, 48, 26
1, 138000, Note_on_c, 0, 51, 26
1, 138000, Note_on_c, 0, 54, 31
1, 138011, Control_c, 0, 64, 0
1, 138049, Control_c, 0, 64, 127
1, 138060, Note_on_c, 0, 80, 0
1, 138060, Note_on_c, 0, 66, 38
1, 138120, Note_on_c, 0, 66, 0
1, 138120, Note_on_c, 0, 80, 39
1, 138180, Tempo, 1445783
1, 138180, Note_on_c, 0, 80, 0
1, 138180, Note_on_c, 0, 78, 46
1, 138240, Tempo, 1276596
1, 138240, Note_on_c, 0, 78, 0
1, 138240, Note_on_c, 0, 54, 0
1, 138240, Note_on_c, 0, 45, 0
1, 138240, Note_on_c, 0, 48, 0
1, 138240, Note_on_c, 0, 51, 0
1, 138240, Note_on_c, 0, 77, 46
1, 138240, Note_on_c, 0, 51, 27
1, 138240, Note_on_c, 0, 46, 27
1, 138240, Note_on_c, 0, 47, 27
1, 138240, Note_on_c, 0, 54, 32
1, 138240, Control_c, 0, 64, 0
1, 138292, Control_c, 0, 64, 127
1, 138300, Note_on_c, 0, 77, 0
1, 138300, Note_on_c, 0, 78, 46
1, 138360, Note_on_c, 0, 78, 0
1, 138360, Note_on_c, 0, 66, 41
1, 138420, Note_on_c, 0, 66, 0
1, 138420, Note_on_c, 0, 78, 46
1, 138480, Tempo, 1304348
1, 138480, Note_on_c, 0, 78, 0
1, 138480, Note_on_c, 0, 54, 0
1, 138480, Note_on_c, 0, 51, 0
1, 138480, Note_on_c, 0, 46, 0
1, 138480, Note_on_c, 0, 47, 0
1, 138480, Note_on_c, 0, 80, 54
1, 138480, Note_on_c, 0, 51, 23
1, 138480, Note_on_c, 0, 46, 23
1, 138480, Note_on_c, 0, 47, 23
1, 138480, Note_on_c, 0, 54, 27
1, 138490, Control_c, 0, 64, 0
1, 138535, Control_c, 0, 64, 127
1, 138540, Note_on_c, 0, 80, 0
1, 138540, Note_on_c, 0, 78, 45
1, 138600, Note_on_c, 0, 78, 0
1, 138600, Note_on_c, 0, 66, 38
1, 138660, Note_on_c, 0, 66, 0
1, 138660, Note_on_c, 0, 78, 46
1, 138720, Note_on_c, 0, 78, 0
1, 138720, Note_on_c, 0, 54, 0
1, 138720, Note_on_c, 0, 51, 0
1, 138720, Note_on_c, 0, 46, 0
1, 138720, Note_on_c, 0, 47, 0
1, 138720, Note_on_c, 0, 65, 45
1, 138720, Note_on_c, 0, 44, 26
1, 138720, Note_on_c, 0, 49, 26
1, 138720, Note_on_c, 0, 53, 31
1, 138730, Control_c, 0, 64, 0
1, 138763, Control_c, 0, 64, 127
1, 138780, Note_on_c, 0, 65, 0
1, 138780, Note_on_c, 0, 77, 42
1, 138840, Note_on_c, 0, 77, 0
1, 138840, Note_on_c, 0, 78, 46
1, 138900, Note_on_c, 0, 78, 0
1, 138900, Note_on_c, 0, 77, 46
1, 138960, Note_on_c, 0, 77, 0
1, 138960, Note_on_c, 0, 53, 0
1, 138960, Note_on_c, 0, 49, 0
1, 138960, Note_on_c, 0, 44, 0
1, 138960, Note_on_c, 0, 78, 57
1, 138960, Note_on_c, 0, 44, 23
1, 138960, Note_on_c, 0, 49, 23
1, 138960, Note_on_c, 0, 53, 27
1, 138971, Control_c, 0, 64, 0
1, 139012, Control_c, 0, 64, 127
1, 139020, Note_on_c, 0, 78, 0
1, 139020, Note_on_c, 0, 65, 39
1, 139080, Note_on_c, 0, 65, 0
1, 139080, Note_on_c, 0, 78, 45
1, 139140, Note_on_c, 0, 78, 0
1, 139140, Note_on_c, 0, 77, 46
1, 139200, Note_on_c, 0, 77, 0
1, 139200, Note_on_c, 0, 53, 0
1, 139200, Note_on_c, 0, 49, 0
1, 139200, Note_on_c, 0, 44, 0
1, 139200, Note_on_c, 0, 68, 51
1, 139200, Note_on_c, 0, 49, 26
1, 139200, Note_on_c, 0, 53, 31
1, 139211, Control_c, 0, 64, 0
1, 139243, Control_c, 0, 64, 127
1, 139260, Note_on_c, 0, 68, 0
1, 139260, Note_on_c, 0, 80, 47
1, 139320, Note_on_c, 0, 80, 0
1, 139320, Note_on_c, 0, 53, 0
1, 139320, Note_on_c, 0, 81, 47
1, 139320, Note_on_c, 0, 53, 31
1, 139320, Note_on_c, 0, 56, 31
1, 139380, Tempo, 1481481
1, 139380, Note_on_c, 0, 81, 0
1, 139380, Note_on_c, 0, 80, 48
1, 139440, Tempo, 1304348
1, 139440, Note_on_c, 0, 80, 0
1, 139440, Note_on_c, 0, 56, 0
1, 139440, Note_on_c, 0, 53, 0
1, 139440, Note_on_c, 0, 49, 0
1, 139440, Note_on_c, 0, 83, 59
1, 139440, Note_on_c, 0, 59, 32
1, 139440, Note_on_c, 0, 49, 27
1, 139440, Note_on_c, 0, 56, 32
1, 139451, Control_c, 0, 64, 0
1, 139489, Control_c, 0, 64, 127
1, 139500, Note_on_c, 0, 83, 0
1, 139500, Note_on_c, 0, 71, 42
1, 139560, Note_on_c, 0, 71, 0
1, 139560, Note_on_c, 0, 56, 0
1, 139560, Note_on_c, 0, 59, 0
1, 139560, Note_on_c, 0, 74, 51
1, 139560, Note_on_c, 0, 62, 34
1, 139560, Note_on_c, 0, 59, 34
1, 139620, Note_on_c, 0, 74, 0
1, 139620, Note_on_c, 0, 86, 53
1, 139680, Tempo, 1290323
1, 139680, Note_on_c, 0, 86, 0
1, 139680, Note_on_c, 0, 59, 0
1, 139680, Note_on_c, 0, 62, 0
1, 139680, Note_on_c, 0, 49, 0
1, 139680, Note_on_c, 0, 85, 58
1, 139680, Note_on_c, 0, 49, 31
1, 139680, Note_on_c, 0, 59, 31
1, 139680, Note_on_c, 0, 62, 37
1, 139680, Control_c, 0, 64, 0
1, 139732, Control_c, 0, 64, 127
1, 139740, Note_on_c, 0, 85, 0
1, 139740, Note_on_c, 0, 86, 55
1, 139800, Note_on_c, 0, 86, 0
1, 139800, Note_on_c, 0, 74, 50
1, 139860, Note_on_c, 0, 74, 0
1, 139860, Note_on_c, 0, 86, 57
1, 139918, Note_on_c, 0, 49, 0
1, 139918, Note_on_c, 0, 62, 0
1, 139918, Note_on_c, 0, 59, 0
1, 139920, Tempo, 1318681
1, 139920, Note_on_c, 0, 86, 0
1, 139920, Note_on_c, 0, 88, 68
1, 139920, Note_on_c, 0, 49, 32
1, 139920, Note_on_c, 0, 59, 32
1, 139920, Note_on_c, 0, 62, 38
1, 139930, Control_c, 0, 64, 0
1, 139975, Control_c, 0, 64, 127
1, 139980, Note_on_c, 0, 88, 0
1, 139980, Note_on_c, 0, 86, 58
1, 140040, Note_on_c, 0, 86, 0
1, 140040, Note_on_c, 0, 74, 50
1, 140100, Tempo, 1463415
1, 140100, Note_on_c, 0, 74, 0
1, 140100, Note_on_c, 0, 86, 61
1, 140158, Note_on_c, 0, 49, 0
1, 140158, Note_on_c, 0, 62, 0
1, 140158, Note_on_c, 0, 59, 0
1, 140158, Note_on_c, 0, 86, 0
1, 140160, Tempo, 1290323
1, 140160, Note_on_c, 0, 86, 60
1, 140160, Note_on_c, 0, 49, 34
1, 140160, Note_on_c, 0, 57, 34
1, 140160, Note_on_c, 0, 61, 41
1, 140170, Control_c, 0, 64, 0
1, 140203, Control_c, 0, 64, 127
1, 140220, Note_on_c, 0, 86, 0
1, 140220, Note_on_c, 0, 73, 52
1, 140280, Note_on_c, 0, 73, 0
1, 140280, Note_on_c, 0, 86, 59
1, 140340, Note_on_c, 0, 86, 0
1, 140340, Note_on_c, 0, 85, 58
1, 140398, Note_on_c, 0, 49, 0
1, 140398, Note_on_c, 0, 61, 0
1, 140398, Note_on_c, 0, 57, 0
1, 140400, Note_on_c, 0, 85, 0
1, 140400, Note_on_c, 0, 49, 35
1, 140400, Note_on_c, 0, 57, 35
1, 140400, Note_on_c, 0, 61, 42
1, 140411, Control_c, 0, 64, 0
1, 140452, Control_c, 0, 64, 127
1, 140460, Note_on_c, 0, 86, 62
1, 140520, Note_on_c, 0, 86, 0
1, 140520, Note_on_c, 0, 73, 50
1, 140580, Note_on_c, 0, 73, 0
1, 140580, Note_on_c, 0, 85, 54
1, 140638, Note_on_c, 0, 61, 0
1, 140638, Note_on_c, 0, 49, 0
1, 140638, Note_on_c, 0, 57, 0
1, 140640, Note_on_c, 0, 85, 0
1, 140640, Note_on_c, 0, 49, 32
1, 140640, Note_on_c, 0, 56, 32
1, 140640, Note_on_c, 0, 59, 38
1, 140651, Control_c, 0, 64, 0
1, 140683, Control_c, 0, 64, 127
1, 140700, Note_on_c, 0, 85, 56
1, 140760, Note_on_c, 0, 85, 0
1, 140760, Note_on_c, 0, 71, 45
1, 140820, Tempo, 1445783
1, 140820, Note_on_c, 0, 71, 0
1, 140820, Note_on_c, 0, 83, 49
1, 140878, Note_on_c, 0, 59, 0
1, 140878, Note_on_c, 0, 49, 0
1, 140878, Note_on_c, 0, 56, 0
1, 140880, Tempo, 1290323
1, 140880, Note_on_c, 0, 83, 0
1, 140880, Note_on_c, 0, 49, 29
1, 140880, Note_on_c, 0, 54, 29
1, 140880, Note_on_c, 0, 57, 34
1, 140891, Control_c, 0, 64, 0
1, 140929, Control_c, 0, 64, 127
1, 140940, Note_on_c, 0, 83, 50
1, 141000, Note_on_c, 0, 83, 0
1, 141000, Note_on_c, 0, 69, 40
1, 141060, Note_on_c, 0, 69, 0
1, 141060, Note_on_c, 0, 81, 47
1, 141118, Note_on_c, 0, 57, 0
1, 141118, Note_on_c, 0, 49, 0
1, 141118, Note_on_c, 0, 54, 0
1, 141120, Note_on_c, 0, 81, 0
1, 141120, Note_on_c, 0, 83, 57
1, 141120, Note_on_c, 0, 49, 33
1, 141120, Note_on_c, 0, 54, 33
1, 141120, Note_on_c, 0, 57, 40
1, 141120, Control_c, 0, 64, 0
1, 141172, Control_c, 0, 64, 127
1, 141180, Tempo, 1250000
1, 141180, Note_on_c, 0, 83, 0
1, 141180, Note_on_c, 0, 69, 45
1, 141240, Note_on_c, 0, 69, 0
1, 141240, Note_on_c, 0, 83, 54
1, 141300, Note_on_c, 0, 83, 0
1, 141300, Note_on_c, 0, 81, 51
1, 141358, Note_on_c, 0, 49, 0
1, 141358, Note_on_c, 0, 57, 0
1, 141358, Note_on_c, 0, 54, 0
1, 141360, Tempo, 1276596
1, 141360, Note_on_c, 0, 81, 0
1, 141360, Note_on_c, 0, 80, 63
1, 141360, Note_on_c, 0, 57, 30
1, 141360, Note_on_c, 0, 49, 30
1, 141360, Note_on_c, 0, 54, 30
1, 141360, Note_on_c, 0, 60, 36
1, 141370, Control_c, 0, 64, 0
1, 141415, Control_c, 0, 64, 127
1, 141420, Note_on_c, 0, 80, 0
1, 141420, Note_on_c, 0, 81, 52
1, 141480, Note_on_c, 0, 81, 0
1, 141480, Note_on_c, 0, 69, 42
1, 141540, Tempo, 1445783
1, 141540, Note_on_c, 0, 69, 0
1, 141540, Note_on_c, 0, 81, 51
1, 141598, Note_on_c, 0, 54, 0
1, 141598, Note_on_c, 0, 60, 0
1, 141598, Note_on_c, 0, 57, 0
1, 141598, Note_on_c, 0, 49, 0
1, 141600, Tempo, 1290323
1, 141600, Note_on_c, 0, 81, 0
1, 141600, Note_on_c, 0, 81, 49
1, 141600, Note_on_c, 0, 53, 28
1, 141600, Note_on_c, 0, 49, 28
1, 141600, Note_on_c, 0, 56, 28
1, 141600, Note_on_c, 0, 61, 33
1, 141610, Control_c, 0, 64, 0
1, 141643, Control_c, 0, 64, 127
1, 141660, Note_on_c, 0, 81, 0
1, 141660, Note_on_c, 0, 68, 42
1, 141720, Note_on_c, 0, 68, 0
1, 141720, Note_on_c, 0, 81, 48
1, 141780, Note_on_c, 0, 81, 0
1, 141780, Note_on_c, 0, 80, 47
1, 141838, Note_on_c, 0, 56, 0
1, 141838, Note_on_c, 0, 61, 0
1, 141838, Note_on_c, 0, 53, 0
1, 141838, Note_on_c, 0, 49, 0
1, 141840, Note_on_c, 0, 80, 0
1, 141840, Note_on_c, 0, 53, 28
1, 141840, Note_on_c, 0, 49, 28
1, 141840, Note_on_c, 0, 56, 28
1, 141840, Note_on_c, 0, 61, 33
1, 141851, Control_c, 0, 64, 0
1, 141892, Control_c, 0, 64, 127
1, 141900, Note_on_c, 0, 80, 50
1, 141960, Note_on_c, 0, 80, 0
1, 141960, Note_on_c, 0, 68, 41
1, 142020, Tempo, 1411765
1, 142020, Note_on_c, 0, 68, 0
1, 142020, Note_on_c, 0, 80, 49
1, 142078, Note_on_c, 0, 61, 0
1, 142078, Note_on_c, 0, 56, 0
1, 142078, Note_on_c, 0, 53, 0
1, 142078, Note_on_c, 0, 49, 0
1, 142080, Tempo, 1290323
1, 142080, Note_on_c, 0, 80, 0
1, 142080, Note_on_c, 0, 53, 27
1, 142080, Note_on_c, 0, 49, 27
1, 142080, Note_on_c, 0, 56, 27
1, 142080, Note_on_c, 0, 61, 32
1, 142091, Control_c, 0, 64, 0
1, 142123, Control_c, 0, 64, 127
1, 142140, Note_on_c, 0, 92, 48
1, 142200, Note_on_c, 0, 92, 0
1, 142200, Note_on_c, 0, 80, 53
1, 142260, Note_on_c, 0, 80, 0
1, 142260, Note_on_c, 0, 92, 48
1, 142318, Note_on_c, 0, 61, 0
1, 142318, Note_on_c, 0, 56, 0
1, 142318, Note_on_c, 0, 53, 0
1, 142318, Note_on_c, 0, 49, 0
1, 142320, Tempo, 1276596
1, 142320, Note_on_c, 0, 92, 0
1, 142320, Note_on_c, 0, 52, 26
1, 142320, Note_on_c, 0, 58, 26
1, 142320, Note_on_c, 0, 49, 26
1, 142320, Note_on_c, 0, 55, 26
1, 142320, Note_on_c, 0, 61, 32
1, 142331, Control_c, 0, 64, 0
1, 142369, Control_c, 0, 64, 127
1, 142380, Note_on_c, 0, 91, 44
1, 142440, Note_on_c, 0, 91, 0
1, 142440, Note_on_c, 0, 79, 51
1, 142500, Note_on_c, 0, 79, 0
1, 142500, Note_on_c, 0, 91, 47
1, 142558, Note_on_c, 0, 61, 0
1, 142558, Note_on_c, 0, 55, 0
1, 142558, Note_on_c, 0, 49, 0
1, 142558, Note_on_c, 0, 52, 0
1, 142558, Note_on_c, 0, 58, 0
1, 142560, Note_on_c, 0, 91, 0
1, 142560, Note_on_c, 0, 55, 26
1, 142560, Note_on_c, 0, 50, 26
1, 142560, Note_on_c, 0, 59, 26
1, 142560, Note_on_c, 0, 62, 31
1, 142560, Control_c, 0, 64, 0
1, 142612, Control_c, 0, 64, 127
1, 142620, Note_on_c, 0, 91, 46
1, 142680, Note_on_c, 0, 91, 0
1, 142680, Note_on_c, 0, 79, 52
1, 142740, Tempo, 1481481
1, 142740, Note_on_c, 0, 79, 0
1, 142740, Note_on_c, 0, 91, 46
1, 142798, Note_on_c, 0, 62, 0
1, 142798, Note_on_c, 0, 59, 0
1, 142798, Note_on_c, 0, 55, 0
1, 142798, Note_on_c, 0, 50, 0
1, 142800, Tempo, 1290323
1, 142800, Note_on_c, 0, 91, 0
1, 142800, Note_on_c, 0, 55, 25
1, 142800, Note_on_c, 0, 50, 25
1, 142800, Note_on_c, 0, 59, 25
1, 142800, Note_on_c, 0, 62, 30
1, 142860, Note_on_c, 0, 91, 45
1, 142920, Note_on_c, 0, 91, 0
1, 142920, Note_on_c, 0, 83, 51
1, 142980, Note_on_c, 0, 83, 0
1, 142980, Note_on_c, 0, 95, 45
1, 143038, Note_on_c, 0, 62, 0
1, 143038, Note_on_c, 0, 59, 0
1, 143038, Note_on_c, 0, 55, 0
1, 143038, Note_on_c, 0, 50, 0
1, 143040, Tempo, 1263158
1, 143040, Note_on_c, 0, 95, 0
1, 143040, Note_on_c, 0, 50, 24
1, 143040, Note_on_c, 0, 59, 24
1, 143040, Note_on_c, 0, 55, 24
1, 143040, Note_on_c, 0, 62, 29
1, 143100, Note_on_c, 0, 95, 44
1, 143160, Note_on_c, 0, 95, 0
1, 143160, Note_on_c, 0, 81, 48
1, 143220, Note_on_c, 0, 81, 0
1, 143220, Note_on_c, 0, 93, 43
1, 143278, Note_on_c, 0, 62, 0
1, 143278, Note_on_c, 0, 55, 0
1, 143278, Note_on_c, 0, 50, 0
1, 143278, Note_on_c, 0, 59, 0
1, 143280, Note_on_c, 0, 93, 0
1, 143280, Note_on_c, 0, 55, 24
1, 143280, Note_on_c, 0, 50, 24
1, 143280, Note_on_c, 0, 59, 24
1, 143280, Note_on_c, 0, 62, 28
1, 143291, Control_c, 0, 64, 0
1, 143332, Control_c, 0, 64, 127
1, 143340, Note_on_c, 0, 93, 43
1, 143400, Note_on_c, 0, 93, 0
1, 143400, Note_on_c, 0, 79, 49
1, 143460, Note_on_c, 0, 79, 0
1, 143460, Note_on_c, 0, 91, 45
1, 143518, Note_on_c, 0, 62, 0
1, 143518, Note_on_c, 0, 59, 0
1, 143518, Note_on_c, 0, 55, 0
1, 143518, Note_on_c, 0, 50, 0
1, 143520, Tempo, 1290323
1, 143520, Note_on_c, 0, 91, 0
1, 143520, Note_on_c, 0, 55, 26
1, 143520, Note_on_c, 0, 59, 26
1, 143520, Note_on_c, 0, 62, 31
1, 143531, Control_c, 0, 64, 0
1, 143563, Control_c, 0, 64, 127
1, 143580, Note_on_c, 0, 91, 48
1, 143640, Note_on_c, 0, 91, 0
1, 143640, Note_on_c, 0, 79, 57
1, 143700, Note_on_c, 0, 79, 0
1, 143700, Note_on_c, 0, 91, 51
1, 143758, Note_on_c, 0, 62, 0
1, 143758, Note_on_c, 0, 55, 0
1, 143758, Note_on_c, 0, 59, 0
1, 143760, Note_on_c, 0, 91, 0
1, 143760, Note_on_c, 0, 59, 29
1, 143760, Note_on_c, 0, 55, 29
1, 143760, Note_on_c, 0, 62, 35
1, 143771, Control_c, 0, 64, 0
1, 143809, Control_c, 0, 64, 127
1, 143820, Note_on_c, 0, 91, 55
1, 143880, Note_on_c, 0, 91, 0
1, 143880, Note_on_c, 0, 79, 61
1, 143940, Tempo, 1428571
1, 143940, Note_on_c, 0, 79, 0
1, 143940, Note_on_c, 0, 78, 57
1, 143940, Note_on_c, 0, 90, 57
1, 143998, Note_on_c, 0, 62, 0
1, 143998, Note_on_c, 0, 59, 0
1, 143998, Note_on_c, 0, 55, 0
1, 144000, Tempo, 1290323
1, 144000, Note_on_c, 0, 78, 0
1, 144000, Note_on_c, 0, 90, 0
1, 144000, Note_on_c, 0, 55, 33
1, 144000, Note_on_c, 0, 60, 33
1, 144000, Note_on_c, 0, 64, 39
1, 144000, Control_c, 0, 64, 0
1, 144052, Control_c, 0, 64, 127
1, 144060, Note_on_c, 0, 90, 60
1, 144120, Note_on_c, 0, 90, 0
1, 144120, Note_on_c, 0, 76, 55
1, 144180, Note_on_c, 0, 76, 0
1, 144180, Note_on_c, 0, 88, 63
1, 144238, Note_on_c, 0, 64, 0
1, 144238, Note_on_c, 0, 55, 0
1, 144238, Note_on_c, 0, 60, 0
1, 144240, Tempo, 1276596
1, 144240, Note_on_c, 0, 88, 0
1, 144240, Note_on_c, 0, 55, 34
1, 144240, Note_on_c, 0, 60, 34
1, 144240, Note_on_c, 0, 64, 41
1, 144250, Control_c, 0, 64, 0
1, 144295, Control_c, 0, 64, 127
1, 144300, Note_on_c, 0, 88, 60
1, 144360, Note_on_c, 0, 88, 0
1, 144360, Note_on_c, 0, 76, 53
1, 144420, Note_on_c, 0, 76, 0
1, 144420, Note_on_c, 0, 88, 57
1, 144478, Note_on_c, 0, 64, 0
1, 144478, Note_on_c, 0, 55, 0
1, 144478, Note_on_c, 0, 60, 0
1, 144480, Tempo, 1304348
1, 144480, Note_on_c, 0, 88, 0
1, 144480, Note_on_c, 0, 60, 30
1, 144480, Note_on_c, 0, 55, 30
1, 144480, Note_on_c, 0, 64, 36
1, 144490, Control_c, 0, 64, 0
1, 144523, Control_c, 0, 64, 127
1, 144540, Note_on_c, 0, 88, 53
1, 144600, Note_on_c, 0, 88, 0
1, 144600, Note_on_c, 0, 76, 57
1, 144660, Tempo, 1379310
1, 144660, Note_on_c, 0, 76, 0
1, 144660, Note_on_c, 0, 78, 50
1, 144660, Note_on_c, 0, 90, 50
1, 144718, Note_on_c, 0, 64, 0
1, 144718, Note_on_c, 0, 60, 0
1, 144718, Note_on_c, 0, 55, 0
1, 144720, Tempo, 1276596
1, 144720, Note_on_c, 0, 78, 0
1, 144720, Note_on_c, 0, 90, 0
1, 144720, Note_on_c, 0, 55, 27
1, 144720, Note_on_c, 0, 59, 27
1, 144720, Note_on_c, 0, 62, 32
1, 144731, Control_c, 0, 64, 0
1, 144772, Control_c, 0, 64, 127
1, 144780, Note_on_c, 0, 90, 47
1, 144840, Note_on_c, 0, 90, 0
1, 144840, Note_on_c, 0, 79, 54
1, 144900, Note_on_c, 0, 79, 0
1, 144900, Note_on_c, 0, 91, 44
1, 144958, Note_on_c, 0, 62, 0
1, 144958, Note_on_c, 0, 55, 0
1, 144958, Note_on_c, 0, 59, 0
1, 144960, Note_on_c, 0, 91, 0
1, 144960, Note_on_c, 0, 50, 24
1, 144960, Note_on_c, 0, 55, 24
1, 144960, Note_on_c, 0, 59, 24
1, 144960, Note_on_c, 0, 62, 28
1, 144971, Control_c, 0, 64, 0
1, 145003, Control_c, 0, 64, 127
1, 145020, Note_on_c, 0, 91, 43
1, 145080, Note_on_c, 0, 91, 0
1, 145080, Note_on_c, 0, 79, 50
1, 145140, Note_on_c, 0, 79, 0
1, 145140, Note_on_c, 0, 91, 43
1, 145198, Note_on_c, 0, 62, 0
1, 145198, Note_on_c, 0, 59, 0
1, 145198, Note_on_c, 0, 50, 0
1, 145198, Note_on_c, 0, 55, 0
1, 145200, Tempo, 1250000
1, 145200, Note_on_c, 0, 91, 0
1, 145200, Note_on_c, 0, 50, 24
1, 145200, Note_on_c, 0, 57, 24
1, 145200, Note_on_c, 0, 54, 24
1, 145200, Note_on_c, 0, 62, 28
1, 145211, Control_c, 0, 64, 0
1, 145249, Control_c, 0, 64, 127
1, 145260, Note_on_c, 0, 91, 43
1, 145320, Note_on_c, 0, 91, 0
1, 145320, Note_on_c, 0, 79, 51
1, 145380, Note_on_c, 0, 79, 0
1, 145380, Note_on_c, 0, 78, 43
1, 145380, Note_on_c, 0, 90, 43
1, 145438, Note_on_c, 0, 62, 0
1, 145438, Note_on_c, 0, 54, 0
1, 145438, Note_on_c, 0, 50, 0
1, 145438, Note_on_c, 0, 57, 0
1, 145440, Note_on_c, 0, 90, 0
1, 145440, Note_on_c, 0, 78, 0
1, 145440, Note_on_c, 0, 90, 52
1, 145440, Note_on_c, 0, 54, 25
1, 145440, Note_on_c, 0, 50, 25
1, 145440, Note_on_c, 0, 57, 25
1, 145440, Note_on_c, 0, 62, 30
1, 145440, Control_c, 0, 64, 0
1, 145492, Control_c, 0, 64, 127
1, 145500, Note_on_c, 0, 90, 0
1, 145500, Note_on_c, 0, 78, 43
1, 145560, Note_on_c, 0, 78, 0
1, 145560, Note_on_c, 0, 78, 43
1, 145620, Note_on_c, 0, 78, 0
1, 145620, Note_on_c, 0, 90, 43
1, 145678, Note_on_c, 0, 57, 0
1, 145678, Note_on_c, 0, 62, 0
1, 145678, Note_on_c, 0, 54, 0
1, 145678, Note_on_c, 0, 50, 0
1, 145680, Note_on_c, 0, 90, 0
1, 145680, Note_on_c, 0, 93, 50
1, 145680, Note_on_c, 0, 54, 24
1, 145680, Note_on_c, 0, 49, 24
1, 145680, Note_on_c, 0, 57, 24
1, 145680, Note_on_c, 0, 61, 28
1, 145690, Control_c, 0, 64, 0
1, 145735, Control_c, 0, 64, 127
1, 145740, Note_on_c, 0, 93, 0
1, 145740, Note_on_c, 0, 81, 36
1, 145800, Note_on_c, 0, 81, 0
1, 145800, Note_on_c, 0, 81, 43
1, 145860, Note_on_c, 0, 81, 0
1, 145860, Note_on_c, 0, 93, 43
1, 145918, Note_on_c, 0, 57, 0
1, 145918, Note_on_c, 0, 54, 0
1, 145918, Note_on_c, 0, 49, 0
1, 145918, Note_on_c, 0, 61, 0
1, 145920, Tempo, 1290323
1, 145920, Note_on_c, 0, 93, 0
1, 145920, Note_on_c, 0, 97, 50
1, 145920, Note_on_c, 0, 54, 24
1, 145920, Note_on_c, 0, 49, 24
1, 145920, Note_on_c, 0, 57, 24
1, 145920, Note_on_c, 0, 61, 28
1, 145980, Note_on_c, 0, 97, 0
1, 145980, Note_on_c, 0, 85, 43
1, 146040, Note_on_c, 0, 85, 0
1, 146040, Note_on_c, 0, 85, 49
1, 146100, Tempo, 1428571
1, 146100, Note_on_c, 0, 85, 0
1, 146100, Note_on_c, 0, 97, 43
1, 146158, Note_on_c, 0, 57, 0
1, 146158, Note_on_c, 0, 61, 0
1, 146158, Note_on_c, 0, 54, 0
1, 146158, Note_on_c, 0, 49, 0
1, 146160, Tempo, 1276596
1, 146160, Note_on_c, 0, 97, 0
1, 146160, Note_on_c, 0, 53, 24
1, 146160, Note_on_c, 0, 49, 24
1, 146160, Note_on_c, 0, 56, 24
1, 146160, Note_on_c, 0, 61, 28
1, 146171, Control_c, 0, 64, 0
1, 146212, Control_c, 0, 64, 127
1, 146220, Note_on_c, 0, 97, 43
1, 146280, Note_on_c, 0, 97, 0
1, 146280, Note_on_c, 0, 85, 49
1, 146340, Note_on_c, 0, 85, 0
1, 146340, Note_on_c, 0, 97, 45
1, 146398, Note_on_c, 0, 61, 0
1, 146398, Note_on_c, 0, 56, 0
1, 146398, Note_on_c, 0, 53, 0
1, 146398, Note_on_c, 0, 49, 0
1, 146400, Tempo, 1250000
1, 146400, Note_on_c, 0, 97, 0
1, 146400, Note_on_c, 0, 49, 26
1, 146400, Note_on_c, 0, 53, 26
1, 146400, Note_on_c, 0, 56, 26
1, 146400, Note_on_c, 0, 61, 31
1, 146460, Note_on_c, 0, 85, 48
1, 146520, Note_on_c, 0, 85, 0
1, 146520, Note_on_c, 0, 73, 45
1, 146580, Note_on_c, 0, 73, 0
1, 146580, Note_on_c, 0, 85, 51
1, 146638, Note_on_c, 0, 61, 0
1, 146638, Note_on_c, 0, 56, 0
1, 146638, Note_on_c, 0, 49, 0
1, 146638, Note_on_c, 0, 53, 0
1, 146640, Note_on_c, 0, 85, 0
1, 146640, Note_on_c, 0, 49, 29
1, 146640, Note_on_c, 0, 53, 29
1, 146640, Note_on_c, 0, 56, 29
1, 146640, Note_on_c, 0, 61, 35
1, 146700, Note_on_c, 0, 97, 55
1, 146760, Note_on_c, 0, 97, 0
1, 146760, Note_on_c, 0, 85, 65
1, 146820, Note_on_c, 0, 85, 0
1, 146820, Note_on_c, 0, 97, 57
1, 146878, Note_on_c, 0, 61, 0
1, 146878, Note_on_c, 0, 56, 0
1, 146878, Note_on_c, 0, 49, 0
1, 146878, Note_on_c, 0, 53, 0
1, 146880, Tempo, 1290323
1, 146880, Note_on_c, 0, 97, 0
1, 146880, Note_on_c, 0, 53, 34
1, 146880, Note_on_c, 0, 49, 34
1, 146880, Note_on_c, 0, 56, 34
1, 146880, Note_on_c, 0, 61, 41
1, 146940, Note_on_c, 0, 85, 60
1, 147000, Note_on_c, 0, 85, 0
1, 147000, Note_on_c, 0, 73, 48
1, 147060, Note_on_c, 0, 73, 0
1, 147060, Note_on_c, 0, 85, 63
1, 147118, Note_on_c, 0, 61, 0
1, 147118, Note_on_c, 0, 56, 0
1, 147118, Note_on_c, 0, 53, 0
1, 147118, Note_on_c, 0, 49, 0
1, 147120, Note_on_c, 0, 85, 0
1, 147120, Note_on_c, 0, 53, 36
1, 147120, Note_on_c, 0, 49, 36
1, 147120, Note_on_c, 0, 56, 36
1, 147120, Note_on_c, 0, 61, 43
1, 147180, Note_on_c, 0, 97, 53
1, 147240, Tempo, 1276596
1, 147240, Note_on_c, 0, 97, 0
1, 147240, Note_on_c, 0, 85, 61
1, 147300, Tempo, 1463415
1, 147300, Note_on_c, 0, 85, 0
1, 147300, Note_on_c, 0, 97, 59
1, 147358, Note_on_c, 0, 61, 0
1, 147358, Note_on_c, 0, 56, 0
1, 147358, Note_on_c, 0, 53, 0
1, 147358, Note_on_c, 0, 49, 0
1, 147360, Tempo, 1276596
1, 147360, Note_on_c, 0, 97, 0
1, 147360, Note_on_c, 0, 93, 55
1, 147360, Note_on_c, 0, 54, 31
1, 147360, Note_on_c, 0, 57, 31
1, 147360, Note_on_c, 0, 61, 37
1, 147370, Control_c, 0, 64, 0
1, 147403, Control_c, 0, 64, 127
1, 147420, Note_on_c, 0, 93, 0
1, 147420, Note_on_c, 0, 81, 54
1, 147480, Note_on_c, 0, 81, 0
1, 147480, Note_on_c, 0, 81, 52
1, 147540, Note_on_c, 0, 81, 0
1, 147540, Note_on_c, 0, 93, 49
1, 147598, Note_on_c, 0, 54, 0
1, 147598, Note_on_c, 0, 61, 0
1, 147598, Note_on_c, 0, 57, 0
1, 147600, Note_on_c, 0, 93, 0
1, 147600, Note_on_c, 0, 93, 52
1, 147600, Note_on_c, 0, 54, 26
1, 147600, Note_on_c, 0, 57, 26
1, 147600, Note_on_c, 0, 61, 32
1, 147660, Note_on_c, 0, 93, 0
1, 147660, Note_on_c, 0, 81, 41
1, 147720, Note_on_c, 0, 81, 0
1, 147720, Note_on_c, 0, 81, 47
1, 147780, Note_on_c, 0, 81, 0
1, 147780, Note_on_c, 0, 93, 44
1, 147838, Note_on_c, 0, 54, 0
1, 147838, Note_on_c, 0, 61, 0
1, 147838, Note_on_c, 0, 57, 0
1, 147840, Note_on_c, 0, 93, 0
1, 147840, Note_on_c, 0, 90, 52
1, 147840, Note_on_c, 0, 61, 32
1, 147840, Note_on_c, 0, 57, 32
1, 147851, Control_c, 0, 64, 0
1, 147883, Control_c, 0, 64, 127
1, 147900, Note_on_c, 0, 90, 0
1, 147900, Note_on_c, 0, 78, 47
1, 147959, Note_on_c, 0, 57, 0
1, 147959, Note_on_c, 0, 61, 0
1, 147960, Tempo, 1304348
1, 147960, Note_on_c, 0, 78, 0
1, 147960, Note_on_c, 0, 78, 47
1, 147960, Note_on_c, 0, 49, 25
1, 147960, Note_on_c, 0, 45, 25
1, 147960, Note_on_c, 0, 57, 30
1, 148020, Note_on_c, 0, 78, 0
1, 148020, Note_on_c, 0, 66, 46
1, 148080, Note_on_c, 0, 66, 0
1, 148080, Note_on_c, 0, 57, 0
1, 148080, Note_on_c, 0, 45, 0
1, 148080, Note_on_c, 0, 49, 0
1, 148080, Note_on_c, 0, 77, 50
1, 148080, Note_on_c, 0, 80, 59
1, 148080, Note_on_c, 0, 71, 50
1, 148080, Note_on_c, 0, 44, 32
1, 148080, Note_on_c, 0, 49, 32
1, 148080, Note_on_c, 0, 56, 37
1, 148091, Control_c, 0, 64, 0
1, 148129, Control_c, 0, 64, 127
1, 148140, Note_on_c, 0, 71, 0
1, 148140, Note_on_c, 0, 77, 0
1, 148140, Note_on_c, 0, 80, 0
1, 148140, Note_on_c, 0, 68, 56
1, 148200, Tempo, 1379310
1, 148200, Note_on_c, 0, 68, 0
1, 148200, Note_on_c, 0, 56, 0
1, 148200, Note_on_c, 0, 49, 0
1, 148200, Note_on_c, 0, 44, 0
1, 148200, Note_on_c, 0, 78, 50
1, 148200, Note_on_c, 0, 81, 59
1, 148200, Note_on_c, 0, 73, 50
1, 148200, Note_on_c, 0, 42, 34
1, 148200, Note_on_c, 0, 49, 34
1, 148200, Note_on_c, 0, 54, 41
1, 148260, Note_on_c, 0, 73, 0
1, 148260, Note_on_c, 0, 78, 0
1, 148260, Note_on_c, 0, 81, 0
1, 148260, Note_on_c, 0, 69, 62
1, 148320, Tempo, 1290323
1, 148320, Note_on_c, 0, 69, 0
1, 148320, Note_on_c, 0, 54, 0
1, 148320, Note_on_c, 0, 49, 0
1, 148320, Note_on_c, 0, 42, 0
1, 148320, Note_on_c, 0, 80, 55
1, 148320, Note_on_c, 0, 83, 65
1, 148320, Note_on_c, 0, 71, 55
1, 148320, Note_on_c, 0, 37, 37
1, 148320, Note_on_c, 0, 49, 44
1, 148320, Control_c, 0, 64, 0
1, 148439, Note_on_c, 0, 49, 0
1, 148439, Note_on_c, 0, 37, 0
1, 148440, Note_on_c, 0, 37, 61
1, 148560, Note_on_c, 0, 80, 0
1, 148560, Note_on_c, 0, 71, 0
1, 148560, Note_on_c, 0, 83, 0
1, 148560, Note_on_c, 0, 68, 50
1, 148560, Note_on_c, 0, 71, 59
1, 148560, Note_on_c, 0, 62, 50
1, 148680, Note_on_c, 0, 37, 0
1, 148680, Note_on_c, 0, 29, 39
1, 148680, Note_on_c, 0, 41, 47
1, 148800, Note_on_c, 0, 68, 0
1, 148800, Note_on_c, 0, 62, 0
1, 148800, Note_on_c, 0, 71, 0
1, 148800, Note_on_c, 0, 61, 50
1, 148800, Note_on_c, 0, 66, 50
1, 148800, Note_on_c, 0, 69, 59
1, 148920, Tempo, 1363636
1, 148920, Note_on_c, 0, 29, 0
1, 148920, Note_on_c, 0, 41, 0
1, 148920, Note_on_c, 0, 30, 39
1, 148920, Note_on_c, 0, 42, 47
1, 149040, Tempo, 1276596
1, 149040, Note_on_c, 0, 66, 0
1, 149040, Note_on_c, 0, 69, 0
1, 149040, Note_on_c, 0, 61, 0
1, 149040, Note_on_c, 0, 59, 51
1, 149040, Note_on_c, 0, 62, 51
1, 149040, Note_on_c, 0, 69, 65
1, 149040, Note_on_c, 0, 65, 55
1, 149160, Note_on_c, 0, 30, 0
1, 149160, Note_on_c, 0, 42, 0
1, 149160, Note_on_c, 0, 32, 39
1, 149160, Note_on_c, 0, 44, 47
1, 149280, Note_on_c, 0, 69, 0
1, 149280, Note_on_c, 0, 59, 0
1, 149280, Note_on_c, 0, 62, 0
1, 149280, Note_on_c, 0, 65, 0
1, 149280, Note_on_c, 0, 62, 50
1, 149280, Note_on_c, 0, 59, 50
1, 149280, Note_on_c, 0, 68, 59
1, 149280, Note_on_c, 0, 65, 59
1, 149400, Note_on_c, 0, 44, 0
1, 149400, Note_on_c, 0, 32, 0
1, 149400, Note_on_c, 0, 33, 41
1, 149400, Note_on_c, 0, 45, 49
1, 149520, Note_on_c, 0, 45, 0
1, 149520, Note_on_c, 0, 65, 0
1, 149520, Note_on_c, 0, 62, 0
1, 149520, Note_on_c, 0, 59, 0
1, 149520, Note_on_c, 0, 33, 0
1, 149520, Note_on_c, 0, 68, 0
1, 149520, Note_on_c, 0, 63, 50
1, 149520, Note_on_c, 0, 57, 50
1, 149520, Note_on_c, 0, 66, 59
1, 149520, Note_on_c, 0, 35, 44
1, 149520, Note_on_c, 0, 47, 52
1, 149640, Tempo, 1379310
1, 149640, Note_on_c, 0, 47, 0
1, 149640, Note_on_c, 0, 35, 0
1, 149640, Note_on_c, 0, 36, 46
1, 149640, Note_on_c, 0, 48, 55
1, 149760, Tempo, 1263158
1, 149760, Note_on_c, 0, 48, 0
1, 149760, Note_on_c, 0, 63, 0
1, 149760, Note_on_c, 0, 66, 0
1, 149760, Note_on_c, 0, 57, 0
1, 149760, Note_on_c, 0, 36, 0
1, 149760, Note_on_c, 0, 63, 56
1, 149760, Note_on_c, 0, 66, 66
1, 149760, Note_on_c, 0, 57, 56
1, 149760, Note_on_c, 0, 37, 42
1, 149760, Note_on_c, 0, 49, 50
1, 149880, Note_on_c, 0, 49, 0
1, 149880, Note_on_c, 0, 37, 0
1, 149880, Note_on_c, 0, 36, 36
1, 149880, Note_on_c, 0, 48, 43
1, 150000, Note_on_c, 0, 48, 0
1, 150000, Note_on_c, 0, 36, 0
1, 150000, Note_on_c, 0, 37, 41
1, 150000, Note_on_c, 0, 49, 49
1, 150120, Note_on_c, 0, 49, 0
1, 150120, Note_on_c, 0, 63, 0
1, 150120, Note_on_c, 0, 37, 0
1, 150120, Note_on_c, 0, 60, 55
1, 150120, Note_on_c, 0, 36, 36
1, 150120, Note_on_c, 0, 48, 43
1, 150240, Note_on_c, 0, 48, 0
1, 150240, Note_on_c, 0, 60, 0
1, 150240, Note_on_c, 0, 36, 0
1, 150240, Note_on_c, 0, 61, 55
1, 150240, Note_on_c, 0, 37, 39
1, 150240, Note_on_c, 0, 49, 46
1, 150360, Note_on_c, 0, 49, 0
1, 150360, Note_on_c, 0, 61, 0
1, 150360, Note_on_c, 0, 37, 0
1, 150360, Note_on_c, 0, 60, 55
1, 150360, Note_on_c, 0, 36, 35
1, 150360, Note_on_c, 0, 48, 42
1, 150480, Note_on_c, 0, 48, 0
1, 150480, Note_on_c, 0, 60, 0
1, 150480, Note_on_c, 0, 66, 0
1, 150480, Note_on_c, 0, 57, 0
1, 150480, Note_on_c, 0, 36, 0
1, 150480, Note_on_c, 0, 56, 50
1, 150480, Note_on_c, 0, 65, 59
1, 150480, Note_on_c, 0, 61, 50
1, 150480, Note_on_c, 0, 37, 40
1, 150480, Note_on_c, 0, 49, 48
1, 150560, Control_c, 0, 64, 127
1, 150600, Note_on_c, 0, 49, 0
1, 150600, Note_on_c, 0, 37, 0
1, 150600, Note_on_c, 0, 53, 36
1, 150720, Tempo, 1333333
1, 150720, Note_on_c, 0, 53, 0
1, 150720, Note_on_c, 0, 56, 46
1, 150840, Tempo, 1263158
1, 150840, Note_on_c, 0, 56, 0
1, 150840, Note_on_c, 0, 68, 57
1, 150840, Note_on_c, 0, 53, 36
1, 150960, Note_on_c, 0, 53, 0
1, 150960, Note_on_c, 0, 68, 0
1, 150960, Note_on_c, 0, 71, 60
1, 150960, Note_on_c, 0, 56, 44
1, 151080, Note_on_c, 0, 56, 0
1, 151080, Note_on_c, 0, 71, 0
1, 151080, Note_on_c, 0, 74, 63
1, 151080, Note_on_c, 0, 59, 36
1, 151200, Tempo, 1290323
1, 151200, Note_on_c, 0, 59, 0
1, 151200, Note_on_c, 0, 56, 0
1, 151200, Note_on_c, 0, 61, 0
1, 151200, Note_on_c, 0, 65, 0
1, 151200, Note_on_c, 0, 74, 0
1, 151200, Note_on_c, 0, 68, 55
1, 151200, Note_on_c, 0, 62, 46
1, 151200, Note_on_c, 0, 74, 65
1, 151200, Note_on_c, 0, 65, 46
1, 151200, Note_on_c, 0, 71, 55
1, 151200, Note_on_c, 0, 49, 31
1, 151200, Note_on_c, 0, 53, 31
1, 151200, Note_on_c, 0, 56, 37
1, 151200, Note_on_c, 0, 59, 44
1, 151200, Control_c, 0, 64, 0
1, 151320, Note_on_c, 0, 59, 0
1, 151320, Note_on_c, 0, 56, 0
1, 151320, Note_on_c, 0, 53, 0
1, 151320, Note_on_c, 0, 49, 0
1, 151320, Note_on_c, 0, 37, 51
1, 151320, Note_on_c, 0, 49, 61
1, 151438, Note_on_c, 0, 62, 0
1, 151438, Note_on_c, 0, 68, 0
1, 151438, Note_on_c, 0, 65, 0
1, 151438, Note_on_c, 0, 74, 0
1, 151438, Note_on_c, 0, 71, 0
1, 151440, Note_on_c, 0, 68, 50
1, 151440, Note_on_c, 0, 74, 59
1, 151440, Note_on_c, 0, 62, 50
1, 151440, Note_on_c, 0, 71, 50
1, 151560, Note_on_c, 0, 49, 0
1, 151560, Note_on_c, 0, 37, 0
1, 151560, Note_on_c, 0, 41, 39
1, 151560, Note_on_c, 0, 53, 47
1, 151678, Note_on_c, 0, 62, 0
1, 151678, Note_on_c, 0, 68, 0
1, 151678, Note_on_c, 0, 74, 0
1, 151678, Note_on_c, 0, 71, 0
1, 151680, Note_on_c, 0, 61, 50
1, 151680, Note_on_c, 0, 73, 59
1, 151680, Note_on_c, 0, 69, 50
1, 151800, Tempo, 1363636
1, 151800, Note_on_c, 0, 53, 0
1, 151800, Note_on_c, 0, 41, 0
1, 151800, Note_on_c, 0, 42, 39
1, 151800, Note_on_c, 0, 54, 47
1, 151918, Note_on_c, 0, 73, 0
1, 151918, Note_on_c, 0, 69, 0
1, 151918, Note_on_c, 0, 61, 0
1, 151920, Tempo, 1276596
1, 151920, Note_on_c, 0, 68, 55
1, 151920, Note_on_c, 0, 73, 65
1, 151920, Note_on_c, 0, 65, 55
1, 151920, Note_on_c, 0, 62, 55
1, 152040, Note_on_c, 0, 42, 0
1, 152040, Note_on_c, 0, 54, 0
1, 152040, Note_on_c, 0, 44, 39
1, 152040, Note_on_c, 0, 56, 47
1, 152158, Note_on_c, 0, 65, 0
1, 152158, Note_on_c, 0, 68, 0
1, 152158, Note_on_c, 0, 73, 0
1, 152158, Note_on_c, 0, 62, 0
1, 152160, Note_on_c, 0, 68, 50
1, 152160, Note_on_c, 0, 71, 59
1, 152160, Note_on_c, 0, 65, 59
1, 152160, Note_on_c, 0, 62, 50
1, 152280, Note_on_c, 0, 56, 0
1, 152280, Note_on_c, 0, 44, 0
1, 152280, Note_on_c, 0, 45, 41
1, 152280, Note_on_c, 0, 57, 49
1, 152398, Note_on_c, 0, 65, 0
1, 152398, Note_on_c, 0, 68, 0
1, 152398, Note_on_c, 0, 71, 0
1, 152398, Note_on_c, 0, 62, 0
1, 152400, Note_on_c, 0, 57, 0
1, 152400, Note_on_c, 0, 45, 0
1, 152400, Note_on_c, 0, 63, 50
1, 152400, Note_on_c, 0, 66, 50
1, 152400, Note_on_c, 0, 69, 59
1, 152400, Note_on_c, 0, 47, 44
1, 152400, Note_on_c, 0, 59, 52
1, 152520, Tempo, 1379310
1, 152520, Note_on_c, 0, 59, 0
1, 152520, Note_on_c, 0, 47, 0
1, 152520, Note_on_c, 0, 48, 46
1, 152520, Note_on_c, 0, 60, 55
1, 152638, Note_on_c, 0, 63, 0
1, 152638, Note_on_c, 0, 69, 0
1, 152638, Note_on_c, 0, 66, 0
1, 152640, Tempo, 1263158
1, 152640, Note_on_c, 0, 66, 56
1, 152640, Note_on_c, 0, 69, 66
1, 152656, Tempo, 1263158
1, 152760, Note_on_c, 0, 48, 0
1, 152760, Note_on_c, 0, 60, 0
1, 152760, Note_on_c, 0, 49, 36
1, 152760, Note_on_c, 0, 61, 43
1, 152809, Tempo, 1276596
1, 152880, Note_on_c, 0, 61, 0
1, 152880, Note_on_c, 0, 49, 0
1, 152880, Note_on_c, 0, 60, 55
1, 152880, Note_on_c, 0, 36, 41
1, 152880, Note_on_c, 0, 48, 49
1, 152944, Tempo, 1290323
1, 153000, Note_on_c, 0, 48, 0
1, 153000, Note_on_c, 0, 60, 0
1, 153000, Note_on_c, 0, 36, 0
1, 153000, Note_on_c, 0, 61, 55
1, 153000, Note_on_c, 0, 37, 36
1, 153000, Note_on_c, 0, 49, 43
1, 153097, Tempo, 1304348
1, 153120, Note_on_c, 0, 49, 0
1, 153120, Note_on_c, 0, 61, 0
1, 153120, Note_on_c, 0, 69, 0
1, 153120, Note_on_c, 0, 66, 0
1, 153120, Note_on_c, 0, 37, 0
1, 153120, Note_on_c, 0, 65, 51
1, 153120, Note_on_c, 0, 68, 51
1, 153120, Note_on_c, 0, 60, 55
1, 153120, Note_on_c, 0, 36, 39
1, 153120, Note_on_c, 0, 48, 46
1, 153232, Tempo, 1318681
1, 153240, Note_on_c, 0, 48, 0
1, 153240, Note_on_c, 0, 60, 0
1, 153240, Note_on_c, 0, 36, 0
1, 153240, Note_on_c, 0, 61, 55
1, 153240, Note_on_c, 0, 37, 35
1, 153240, Note_on_c, 0, 49, 42
1, 153360, Note_on_c, 0, 49, 0
1, 153360, Note_on_c, 0, 61, 0
1, 153360, Note_on_c, 0, 65, 0
1, 153360, Note_on_c, 0, 68, 0
1, 153360, Note_on_c, 0, 37, 0
1, 153360, Note_on_c, 0, 61, 50
1, 153360, Note_on_c, 0, 56, 50
1, 153360, Note_on_c, 0, 65, 50
1, 153360, Note_on_c, 0, 68, 59
1, 153360, Note_on_c, 0, 48, 46
1, 153360, Note_on_c, 0, 36, 39
1, 153366, Tempo, 1333333
1, 153480, Note_on_c, 0, 36, 0
1, 153480, Note_on_c, 0, 48, 0
1, 153480, Note_on_c, 0, 37, 35
1, 153480, Note_on_c, 0, 49, 42
1, 153600, Tempo, 1348315
1, 153600, Note_on_c, 0, 49, 0
1, 153600, Note_on_c, 0, 56, 0
1, 153600, Note_on_c, 0, 68, 0
1, 153600, Note_on_c, 0, 61, 0
1, 153600, Note_on_c, 0, 37, 0
1, 153600, Note_on_c, 0, 65, 0
1, 153600, Note_on_c, 0, 55, 33
1, 153600, Note_on_c, 0, 58, 33
1, 153600, Note_on_c, 0, 64, 39
1, 153600, Note_on_c, 0, 67, 48
1, 153600, Note_on_c, 0, 37, 34
1, 153657, Control_c, 0, 64, 127
1, 153720, Note_on_c, 0, 37, 0
1, 153720, Note_on_c, 0, 46, 30
1, 153840, Note_on_c, 0, 46, 0
1, 153840, Note_on_c, 0, 64, 0
1, 153840, Note_on_c, 0, 55, 0
1, 153840, Note_on_c, 0, 58, 0
1, 153840, Note_on_c, 0, 55, 33
1, 153840, Note_on_c, 0, 59, 33
1, 153840, Note_on_c, 0, 62, 39
1, 153840, Note_on_c, 0, 38, 33
1, 153851, Control_c, 0, 64, 0
1, 153926, Control_c, 0, 64, 127
1, 153960, Note_on_c, 0, 38, 0
1, 153960, Note_on_c, 0, 47, 30
1, 154020, Note_on_c, 0, 67, 0
1, 154020, Note_on_c, 0, 67, 47
1, 154080, Note_on_c, 0, 67, 0
1, 154080, Note_on_c, 0, 47, 0
1, 154080, Note_on_c, 0, 55, 0
1, 154080, Note_on_c, 0, 59, 0
1, 154080, Note_on_c, 0, 62, 0
1, 154080, Note_on_c, 0, 83, 63
1, 154080, Note_on_c, 0, 31, 33
1, 154080, Control_c, 0, 64, 0
1, 154137, Control_c, 0, 64, 127
1, 154200, Note_on_c, 0, 31, 0
1, 154200, Note_on_c, 0, 43, 28
1, 154320, Tempo, 1318681
1, 154320, Note_on_c, 0, 43, 0
1, 154320, Note_on_c, 0, 71, 47
1, 154320, Note_on_c, 0, 50, 28
1, 154440, Note_on_c, 0, 50, 0
1, 154440, Note_on_c, 0, 43, 28
1, 154560, Note_on_c, 0, 43, 0
1, 154560, Note_on_c, 0, 71, 0
1, 154560, Note_on_c, 0, 83, 0
1, 154560, Note_on_c, 0, 69, 37
1, 154560, Note_on_c, 0, 81, 50
1, 154560, Note_on_c, 0, 50, 28
1, 154680, Tempo, 1445783
1, 154680, Note_on_c, 0, 50, 0
1, 154680, Note_on_c, 0, 43, 28
1, 154798, Note_on_c, 0, 81, 0
1, 154798, Note_on_c, 0, 69, 0
1, 154800, Tempo, 1363636
1, 154800, Note_on_c, 0, 43, 0
1, 154800, Note_on_c, 0, 69, 40
1, 154800, Note_on_c, 0, 81, 55
1, 154800, Note_on_c, 0, 35, 33
1, 154810, Control_c, 0, 64, 0
1, 154886, Control_c, 0, 64, 127
1, 154920, Note_on_c, 0, 35, 0
1, 154920, Note_on_c, 0, 43, 28
1, 155040, Tempo, 1333333
1, 155040, Note_on_c, 0, 43, 0
1, 155040, Note_on_c, 0, 81, 0
1, 155040, Note_on_c, 0, 69, 0
1, 155040, Note_on_c, 0, 67, 35
1, 155040, Note_on_c, 0, 79, 48
1, 155040, Note_on_c, 0, 55, 28
1, 155160, Note_on_c, 0, 55, 0
1, 155160, Note_on_c, 0, 43, 28
1, 155280, Note_on_c, 0, 43, 0
1, 155280, Note_on_c, 0, 79, 0
1, 155280, Note_on_c, 0, 67, 0
1, 155280, Note_on_c, 0, 67, 36
1, 155280, Note_on_c, 0, 71, 36
1, 155280, Note_on_c, 0, 79, 49
1, 155280, Note_on_c, 0, 55, 28
1, 155400, Tempo, 1428571
1, 155400, Note_on_c, 0, 55, 0
1, 155400, Note_on_c, 0, 79, 0
1, 155400, Note_on_c, 0, 71, 0
1, 155400, Note_on_c, 0, 74, 33
1, 155400, Note_on_c, 0, 78, 44
1, 155400, Note_on_c, 0, 43, 28
1, 155520, Tempo, 1348315
1, 155520, Note_on_c, 0, 43, 0
1, 155520, Note_on_c, 0, 67, 0
1, 155520, Note_on_c, 0, 74, 0
1, 155520, Note_on_c, 0, 78, 0
1, 155520, Note_on_c, 0, 67, 40
1, 155520, Note_on_c, 0, 74, 48
1, 155520, Note_on_c, 0, 78, 55
1, 155520, Note_on_c, 0, 36, 33
1, 155520, Control_c, 0, 64, 0
1, 155569, Control_c, 0, 64, 127
1, 155640, Note_on_c, 0, 36, 0
1, 155640, Note_on_c, 0, 43, 29
1, 155760, Note_on_c, 0, 43, 0
1, 155760, Note_on_c, 0, 78, 0
1, 155760, Note_on_c, 0, 74, 0
1, 155760, Note_on_c, 0, 67, 0
1, 155760, Note_on_c, 0, 67, 36
1, 155760, Note_on_c, 0, 72, 36
1, 155760, Note_on_c, 0, 76, 49
1, 155760, Note_on_c, 0, 55, 29
1, 155880, Note_on_c, 0, 55, 0
1, 155880, Note_on_c, 0, 43, 29
1, 156000, Tempo, 1395349
1, 156000, Note_on_c, 0, 43, 0
1, 156000, Note_on_c, 0, 76, 0
1, 156000, Note_on_c, 0, 72, 0
1, 156000, Note_on_c, 0, 67, 0
1, 156000, Note_on_c, 0, 76, 48
1, 156000, Note_on_c, 0, 72, 35
1, 156000, Note_on_c, 0, 67, 35
1, 156000, Note_on_c, 0, 55, 29
1, 156012, Control_c, 0, 64, 0
1, 156120, Note_on_c, 0, 55, 0
1, 156120, Note_on_c, 0, 76, 0
1, 156120, Note_on_c, 0, 72, 0
1, 156120, Note_on_c, 0, 67, 0
1, 156120, Note_on_c, 0, 75, 38
1, 156120, Note_on_c, 0, 78, 51
1, 156120, Note_on_c, 0, 69, 38
1, 156120, Note_on_c, 0, 72, 38
1, 156120, Note_on_c, 0, 43, 29
1, 156240, Tempo, 1463415
1, 156240, Note_on_c, 0, 43, 0
1, 156240, Note_on_c, 0, 69, 0
1, 156240, Note_on_c, 0, 75, 0
1, 156240, Note_on_c, 0, 78, 0
1, 156240, Note_on_c, 0, 72, 0
1, 156240, Note_on_c, 0, 75, 40
1, 156240, Note_on_c, 0, 78, 55
1, 156240, Note_on_c, 0, 69, 40
1, 156240, Note_on_c, 0, 72, 40
1, 156240, Note_on_c, 0, 31, 33
1, 156269, Control_c, 0, 64, 127
1, 156360, Tempo, 1395349
1, 156360, Note_on_c, 0, 31, 0
1, 156360, Note_on_c, 0, 69, 0
1, 156360, Note_on_c, 0, 75, 0
1, 156360, Note_on_c, 0, 78, 0
1, 156360, Note_on_c, 0, 72, 0
1, 156360, Note_on_c, 0, 79, 50
1, 156360, Note_on_c, 0, 74, 37
1, 156360, Note_on_c, 0, 71, 37
1, 156360, Note_on_c, 0, 43, 28
1, 156480, Tempo, 1395349
1, 156480, Note_on_c, 0, 43, 0
1, 156480, Note_on_c, 0, 79, 0
1, 156480, Note_on_c, 0, 74, 0
1, 156480, Note_on_c, 0, 71, 0
1, 156480, Note_on_c, 0, 71, 37
1, 156480, Note_on_c, 0, 74, 37
1, 156480, Note_on_c, 0, 79, 50
1, 156480, Note_on_c, 0, 55, 28
1, 156491, Control_c, 0, 64, 0
1, 156532, Control_c, 0, 64, 127
1, 156600, Note_on_c, 0, 55, 0
1, 156600, Note_on_c, 0, 43, 28
1, 156720, Tempo, 1363636
1, 156720, Note_on_c, 0, 43, 0
1, 156720, Note_on_c, 0, 79, 0
1, 156720, Note_on_c, 0, 74, 0
1, 156720, Note_on_c, 0, 71, 0
1, 156720, Note_on_c, 0, 67, 40
1, 156720, Note_on_c, 0, 55, 28
1, 156780, Note_on_c, 0, 55, 0
1, 156780, Note_on_c, 0, 43, 24
1, 156840, Tempo, 1463415
1, 156840, Note_on_c, 0, 43, 0
1, 156840, Note_on_c, 0, 67, 0
1, 156840, Note_on_c, 0, 54, 30
1, 156840, Note_on_c, 0, 66, 36
1, 156840, Note_on_c, 0, 38, 23
1, 156840, Note_on_c, 0, 42, 28
1, 156960, Note_on_c, 0, 42, 0
1, 156960, Note_on_c, 0, 54, 0
1, 156960, Note_on_c, 0, 66, 0
1, 156960, Note_on_c, 0, 38, 0
1, 156960, Note_on_c, 0, 54, 34
1, 156960, Note_on_c, 0, 66, 40
1, 156960, Note_on_c, 0, 38, 25
1, 156960, Note_on_c, 0, 42, 30
1, 156960, Control_c, 0, 64, 0
1, 157057, Control_c, 0, 64, 127
1, 157080, Note_on_c, 0, 42, 0
1, 157080, Note_on_c, 0, 38, 0
1, 157080, Note_on_c, 0, 45, 27
1, 157198, Note_on_c, 0, 66, 0
1, 157198, Note_on_c, 0, 54, 0
1, 157200, Tempo, 1428571
1, 157200, Note_on_c, 0, 45, 0
1, 157200, Note_on_c, 0, 57, 31
1, 157200, Note_on_c, 0, 69, 37
1, 157200, Note_on_c, 0, 66, 31
1, 157200, Note_on_c, 0, 61, 31
1, 157200, Note_on_c, 0, 37, 22
1, 157200, Note_on_c, 0, 42, 22
1, 157200, Note_on_c, 0, 45, 27
1, 157320, Note_on_c, 0, 45, 0
1, 157320, Note_on_c, 0, 37, 0
1, 157320, Note_on_c, 0, 42, 0
1, 157320, Note_on_c, 0, 49, 27
1, 157438, Note_on_c, 0, 66, 0
1, 157438, Note_on_c, 0, 61, 0
1, 157438, Note_on_c, 0, 57, 0
1, 157438, Note_on_c, 0, 69, 0
1, 157440, Note_on_c, 0, 49, 0
1, 157440, Note_on_c, 0, 61, 31
1, 157440, Note_on_c, 0, 73, 37
1, 157440, Note_on_c, 0, 69, 31
1, 157440, Note_on_c, 0, 66, 31
1, 157440, Note_on_c, 0, 37, 22
1, 157440, Note_on_c, 0, 42, 22
1, 157440, Note_on_c, 0, 45, 27
1, 157560, Tempo, 1558442
1, 157560, Note_on_c, 0, 45, 0
1, 157560, Note_on_c, 0, 37, 0
1, 157560, Note_on_c, 0, 42, 0
1, 157560, Note_on_c, 0, 49, 27
1, 157678, Note_on_c, 0, 69, 0
1, 157678, Note_on_c, 0, 66, 0
1, 157678, Note_on_c, 0, 61, 0
1, 157678, Note_on_c, 0, 73, 0
1, 157680, Tempo, 1463415
1, 157680, Note_on_c, 0, 49, 0
1, 157680, Note_on_c, 0, 61, 34
1, 157680, Note_on_c, 0, 73, 41
1, 157680, Note_on_c, 0, 68, 34
1, 157680, Note_on_c, 0, 65, 34
1, 157680, Note_on_c, 0, 37, 28
1, 157680, Note_on_c, 0, 41, 28
1, 157680, Note_on_c, 0, 44, 33
1, 157691, Control_c, 0, 64, 0
1, 157789, Control_c, 0, 64, 127
1, 157800, Note_on_c, 0, 44, 0
1, 157800, Note_on_c, 0, 37, 0
1, 157800, Note_on_c, 0, 41, 0
1, 157800, Note_on_c, 0, 49, 28
1, 157920, Tempo, 1428571
1, 157920, Note_on_c, 0, 49, 0
1, 157920, Note_on_c, 0, 37, 23
1, 157920, Note_on_c, 0, 41, 23
1, 157920, Note_on_c, 0, 44, 28
1, 158040, Note_on_c, 0, 44, 0
1, 158040, Note_on_c, 0, 37, 0
1, 158040, Note_on_c, 0, 41, 0
1, 158040, Note_on_c, 0, 49, 28
1, 158155, Note_on_c, 0, 68, 0
1, 158155, Note_on_c, 0, 65, 0
1, 158155, Note_on_c, 0, 61, 0
1, 158155, Note_on_c, 0, 73, 0
1, 158160, Note_on_c, 0, 49, 0
1, 158160, Note_on_c, 0, 61, 29
1, 158160, Note_on_c, 0, 73, 35
1, 158160, Note_on_c, 0, 69, 29
1, 158160, Note_on_c, 0, 66, 29
1, 158160, Note_on_c, 0, 42, 28
1, 158160, Note_on_c, 0, 45, 28
1, 158172, Control_c, 0, 64, 0
1, 158235, Control_c, 0, 64, 127
1, 158280, Tempo, 1600000
1, 158280, Note_on_c, 0, 45, 0
1, 158280, Note_on_c, 0, 42, 0
1, 158280, Note_on_c, 0, 49, 28
1, 158398, Note_on_c, 0, 69, 0
1, 158398, Note_on_c, 0, 66, 0
1, 158398, Note_on_c, 0, 61, 0
1, 158398, Note_on_c, 0, 73, 0
1, 158400, Tempo, 1481481
1, 158400, Note_on_c, 0, 49, 0
1, 158400, Note_on_c, 0, 61, 36
1, 158400, Note_on_c, 0, 69, 36
1, 158400, Note_on_c, 0, 73, 43
1, 158400, Note_on_c, 0, 42, 26
1, 158400, Note_on_c, 0, 45, 31
1, 158400, Control_c, 0, 64, 0
1, 158486, Control_c, 0, 64, 127
1, 158520, Note_on_c, 0, 45, 0
1, 158520, Note_on_c, 0, 42, 0
1, 158520, Note_on_c, 0, 49, 26
1, 158640, Note_on_c, 0, 49, 0
1, 158640, Note_on_c, 0, 73, 0
1, 158640, Note_on_c, 0, 69, 0
1, 158640, Note_on_c, 0, 61, 0
1, 158640, Note_on_c, 0, 62, 34
1, 158640, Note_on_c, 0, 67, 34
1, 158640, Note_on_c, 0, 74, 40
1, 158640, Note_on_c, 0, 35, 22
1, 158640, Note_on_c, 0, 47, 26
1, 158652, Control_c, 0, 64, 0
1, 158715, Control_c, 0, 64, 127
1, 158760, Note_on_c, 0, 47, 0
1, 158760, Note_on_c, 0, 35, 0
1, 158760, Note_on_c, 0, 50, 26
1, 158880, Note_on_c, 0, 50, 0
1, 158880, Note_on_c, 0, 74, 0
1, 158880, Note_on_c, 0, 67, 0
1, 158880, Note_on_c, 0, 62, 0
1, 158880, Note_on_c, 0, 55, 30
1, 158880, Note_on_c, 0, 67, 36
1, 158880, Note_on_c, 0, 35, 22
1, 158880, Note_on_c, 0, 43, 26
1, 159000, Note_on_c, 0, 43, 0
1, 159000, Note_on_c, 0, 35, 0
1, 159000, Note_on_c, 0, 47, 26
1, 159118, Note_on_c, 0, 47, 0
1, 159120, Tempo, 1578947
1, 159120, Note_on_c, 0, 67, 0
1, 159120, Note_on_c, 0, 55, 0
1, 159120, Note_on_c, 0, 59, 31
1, 159120, Note_on_c, 0, 71, 37
1, 159120, Note_on_c, 0, 35, 26
1, 159120, Note_on_c, 0, 47, 31
1, 159132, Control_c, 0, 64, 0
1, 159223, Control_c, 0, 64, 127
1, 159240, Note_on_c, 0, 47, 0
1, 159240, Note_on_c, 0, 35, 0
1, 159240, Note_on_c, 0, 47, 24
1, 159360, Note_on_c, 0, 47, 0
1, 159360, Note_on_c, 0, 71, 0
1, 159360, Note_on_c, 0, 59, 0
1, 159360, Note_on_c, 0, 61, 37
1, 159360, Note_on_c, 0, 37, 20
1, 159360, Note_on_c, 0, 49, 24
1, 159370, Control_c, 0, 64, 0
1, 159446, Control_c, 0, 64, 127
1, 159480, Note_on_c, 0, 49, 0
1, 159480, Note_on_c, 0, 37, 0
1, 159480, Note_on_c, 0, 49, 24
1, 159600, Note_on_c, 0, 49, 0
1, 159600, Note_on_c, 0, 61, 0
1, 159600, Note_on_c, 0, 65, 31
1, 159600, Note_on_c, 0, 53, 26
1, 159600, Note_on_c, 0, 37, 24
1, 159720, Tempo, 1739130
1, 159720, Note_on_c, 0, 37, 0
1, 159720, Note_on_c, 0, 41, 24
1, 159840, Tempo, 1621622
1, 159840, Note_on_c, 0, 41, 0
1, 159840, Note_on_c, 0, 53, 0
1, 159840, Note_on_c, 0, 65, 0
1, 159840, Note_on_c, 0, 66, 38
1, 159840, Note_on_c, 0, 54, 32
1, 159840, Note_on_c, 0, 30, 29
1, 159840, Control_c, 0, 64, 0
1, 159932, Control_c, 0, 64, 127
1, 159960, Note_on_c, 0, 30, 0
1, 159960, Note_on_c, 0, 37, 22
1, 159960, Note_on_c, 0, 42, 26
1, 160080, Tempo, 1578947
1, 160080, Note_on_c, 0, 42, 0
1, 160080, Note_on_c, 0, 66, 0
1, 160080, Note_on_c, 0, 54, 0
1, 160080, Note_on_c, 0, 37, 0
1, 160080, Note_on_c, 0, 73, 41
1, 160080, Note_on_c, 0, 61, 34
1, 160080, Note_on_c, 0, 29, 26
1, 160091, Control_c, 0, 64, 0
1, 160166, Control_c, 0, 64, 127
1, 160200, Note_on_c, 0, 29, 0
1, 160200, Note_on_c, 0, 37, 21
1, 160200, Note_on_c, 0, 44, 24
1, 160320, Note_on_c, 0, 44, 0
1, 160320, Note_on_c, 0, 37, 0
1, 160320, Note_on_c, 0, 29, 23
1, 160440, Tempo, 1791045
1, 160440, Note_on_c, 0, 29, 0
1, 160440, Note_on_c, 0, 61, 0
1, 160440, Note_on_c, 0, 73, 0
1, 160440, Note_on_c, 0, 68, 29
1, 160440, Note_on_c, 0, 56, 24
1, 160440, Note_on_c, 0, 37, 19
1, 160440, Note_on_c, 0, 44, 22
1, 160560, Tempo, 1690141
1, 160560, Note_on_c, 0, 44, 0
1, 160560, Note_on_c, 0, 68, 0
1, 160560, Note_on_c, 0, 56, 0
1, 160560, Note_on_c, 0, 37, 0
1, 160560, Note_on_c, 0, 69, 31
1, 160560, Note_on_c, 0, 57, 26
1, 160560, Note_on_c, 0, 30, 24
1, 160573, Control_c, 0, 64, 0
1, 160646, Control_c, 0, 64, 127
1, 160680, Note_on_c, 0, 30, 0
1, 160680, Note_on_c, 0, 37, 19
1, 160680, Note_on_c, 0, 45, 23
1, 160800, Note_on_c, 0, 45, 0
1, 160800, Note_on_c, 0, 69, 0
1, 160800, Note_on_c, 0, 57, 0
1, 160800, Note_on_c, 0, 37, 0
1, 160800, Note_on_c, 0, 81, 42
1, 160800, Note_on_c, 0, 69, 34
1, 160800, Note_on_c, 0, 37, 18
1, 160920, Note_on_c, 0, 37, 0
1, 160920, Note_on_c, 0, 49, 18
1, 160920, Note_on_c, 0, 42, 15
1, 161040, Note_on_c, 0, 42, 0
1, 161040, Note_on_c, 0, 49, 0
1, 161040, Note_on_c, 0, 37, 18
1, 161160, Tempo, 1875000
1, 161160, Note_on_c, 0, 37, 0
1, 161160, Note_on_c, 0, 69, 0
1, 161160, Note_on_c, 0, 81, 0
1, 161160, Note_on_c, 0, 77, 25
1, 161160, Note_on_c, 0, 65, 21
1, 161160, Note_on_c, 0, 49, 18
1, 161280, Tempo, 1304348
1, 161280, Note_on_c, 0, 49, 0
1, 161280, Note_on_c, 0, 65, 0
1, 161280, Note_on_c, 0, 77, 0
1, 161280, Control_c, 0, 64, 0
1, 161520, Note_on_c, 0, 38, 24
1, 161520, Note_on_c, 0, 50, 29
1, 161548, Control_c, 0, 64, 127
1, 161640, Note_on_c, 0, 50, 0
1, 161640, Note_on_c, 0, 38, 0
1, 161760, Note_on_c, 0, 69, 23
1, 161760, Note_on_c, 0, 66, 19
1, 161760, Note_on_c, 0, 62, 19
1, 161760, Note_on_c, 0, 57, 19
1, 161880, Note_on_c, 0, 57, 0
1, 161880, Note_on_c, 0, 69, 0
1, 161880, Note_on_c, 0, 66, 0
1, 161880, Note_on_c, 0, 62, 0
1, 162000, Note_on_c, 0, 69, 23
1, 162000, Note_on_c, 0, 66, 19
1, 162000, Note_on_c, 0, 62, 19
1, 162000, Note_on_c, 0, 57, 19
1, 162120, Note_on_c, 0, 57, 0
1, 162120, Note_on_c, 0, 69, 0
1, 162120, Note_on_c, 0, 66, 0
1, 162120, Note_on_c, 0, 62, 0
1, 162240, Note_on_c, 0, 38, 23
1, 162240, Note_on_c, 0, 50, 28
1, 162360, Note_on_c, 0, 50, 0
1, 162360, Note_on_c, 0, 38, 0
1, 162480, Note_on_c, 0, 78, 43
1, 162480, Note_on_c, 0, 69, 23
1, 162480, Note_on_c, 0, 66, 19
1, 162480, Note_on_c, 0, 62, 19
1, 162480, Note_on_c, 0, 57, 19
1, 162600, Note_on_c, 0, 57, 0
1, 162600, Note_on_c, 0, 66, 0
1, 162600, Note_on_c, 0, 62, 0
1, 162600, Note_on_c, 0, 69, 0
1, 162720, Note_on_c, 0, 69, 23
1, 162720, Note_on_c, 0, 66, 19
1, 162720, Note_on_c, 0, 62, 19
1, 162720, Note_on_c, 0, 57, 19
1, 162723, Control_c, 0, 64, 0
1, 162837, Note_on_c, 0, 78, 0
1, 162840, Note_on_c, 0, 62, 0
1, 162840, Note_on_c, 0, 69, 0
1, 162840, Note_on_c, 0, 66, 0
1, 162840, Note_on_c, 0, 57, 0
1, 162840, Note_on_c, 0, 78, 44
1, 162847, Control_c, 0, 64, 127
1, 162960, Note_on_c, 0, 38, 22
1, 162960, Note_on_c, 0, 50, 27
1, 163078, Note_on_c, 0, 78, 0
1, 163080, Note_on_c, 0, 50, 0
1, 163080, Note_on_c, 0, 38, 0
1, 163080, Note_on_c, 0, 78, 44
1, 163200, Tempo, 1290323
1, 163200, Note_on_c, 0, 81, 61
1, 163200, Note_on_c, 0, 69, 23
1, 163200, Note_on_c, 0, 66, 19
1, 163200, Note_on_c, 0, 62, 19
1, 163200, Note_on_c, 0, 57, 19
1, 163318, Note_on_c, 0, 78, 0
1, 163320, Note_on_c, 0, 69, 0
1, 163320, Note_on_c, 0, 66, 0
1, 163320, Note_on_c, 0, 62, 0
1, 163320, Note_on_c, 0, 57, 0
1, 163320, Note_on_c, 0, 78, 49
1, 163438, Note_on_c, 0, 81, 0
1, 163440, Note_on_c, 0, 86, 74
1, 163440, Note_on_c, 0, 69, 23
1, 163440, Note_on_c, 0, 66, 19
1, 163440, Note_on_c, 0, 62, 19
1, 163440, Note_on_c, 0, 57, 19
1, 163558, Note_on_c, 0, 78, 0
1, 163560, Note_on_c, 0, 69, 0
1, 163560, Note_on_c, 0, 66, 0
1, 163560, Note_on_c, 0, 62, 0
1, 163560, Note_on_c, 0, 57, 0
1, 163560, Note_on_c, 0, 78, 54
1, 163680, Tempo, 1276596
1, 163680, Note_on_c, 0, 86, 0
1, 163680, Note_on_c, 0, 88, 71
1, 163680, Note_on_c, 0, 38, 22
1, 163680, Note_on_c, 0, 50, 26
1, 163798, Note_on_c, 0, 78, 0
1, 163800, Note_on_c, 0, 50, 0
1, 163800, Note_on_c, 0, 38, 0
1, 163800, Note_on_c, 0, 78, 52
1, 163920, Note_on_c, 0, 88, 0
1, 163920, Note_on_c, 0, 90, 71
1, 163920, Note_on_c, 0, 69, 23
1, 163920, Note_on_c, 0, 66, 19
1, 163920, Note_on_c, 0, 62, 19
1, 163920, Note_on_c, 0, 57, 19
1, 164038, Note_on_c, 0, 78, 0
1, 164040, Tempo, 1304348
1, 164040, Note_on_c, 0, 69, 0
1, 164040, Note_on_c, 0, 66, 0
1, 164040, Note_on_c, 0, 62, 0
1, 164040, Note_on_c, 0, 57, 0
1, 164040, Note_on_c, 0, 78, 45
1, 164138, Tempo, 1500000
1, 164156, Tempo, 1666667
1, 164160, Note_on_c, 0, 78, 0
1, 164160, Note_on_c, 0, 90, 0
1, 164160, Note_on_c, 0, 90, 69
1, 164160, Note_on_c, 0, 69, 23
1, 164160, Note_on_c, 0, 64, 19
1, 164160, Note_on_c, 0, 61, 19
1, 164160, Note_on_c, 0, 57, 19
1, 164160, Control_c, 0, 64, 0
1, 164165, Tempo, 1600000
1, 164175, Tempo, 1518987
1, 164184, Tempo, 1445783
1, 164190, Note_on_c, 0, 90, 0
1, 164190, Note_on_c, 0, 91, 61
1, 164194, Tempo, 1379310
1, 164204, Tempo, 1318681
1, 164213, Tempo, 1263158
1, 164220, Note_on_c, 0, 91, 0
1, 164220, Note_on_c, 0, 90, 67
1, 164220, Control_c, 0, 64, 127
1, 164223, Tempo, 1212121
1, 164232, Tempo, 1165049
1, 164242, Tempo, 1121495
1, 164250, Note_on_c, 0, 90, 0
1, 164250, Note_on_c, 0, 91, 63
1, 164252, Tempo, 1081081
1, 164271, Tempo, 1090909
1, 164280, Note_on_c, 0, 91, 0
1, 164280, Note_on_c, 0, 57, 0
1, 164280, Note_on_c, 0, 69, 0
1, 164280, Note_on_c, 0, 64, 0
1, 164280, Note_on_c, 0, 61, 0
1, 164280, Note_on_c, 0, 90, 63
1, 164290, Tempo, 1071429
1, 164309, Tempo, 1081081
1, 164310, Note_on_c, 0, 90, 0
1, 164310, Note_on_c, 0, 91, 71
1, 164319, Tempo, 1090909
1, 164328, Tempo, 1100917
1, 164338, Tempo, 1111111
1, 164340, Note_on_c, 0, 91, 0
1, 164340, Note_on_c, 0, 90, 69
1, 164348, Tempo, 1121495
1, 164357, Tempo, 1132075
1, 164367, Tempo, 1142857
1, 164370, Note_on_c, 0, 90, 0
1, 164370, Note_on_c, 0, 91, 78
1, 164376, Tempo, 1153846
1, 164386, Tempo, 1165049
1, 164400, Tempo, 1348315
1, 164400, Note_on_c, 0, 91, 0
1, 164400, Note_on_c, 0, 93, 83
1, 164400, Note_on_c, 0, 37, 22
1, 164400, Note_on_c, 0, 49, 27
1, 164520, Tempo, 1237113
1, 164520, Note_on_c, 0, 49, 0
1, 164520, Note_on_c, 0, 37, 0
1, 164520, Note_on_c, 0, 81, 57
1, 164640, Note_on_c, 0, 93, 0
1, 164640, Note_on_c, 0, 91, 75
1, 164640, Note_on_c, 0, 69, 23
1, 164640, Note_on_c, 0, 64, 19
1, 164640, Note_on_c, 0, 61, 19
1, 164640, Note_on_c, 0, 57, 19
1, 164760, Note_on_c, 0, 57, 0
1, 164760, Note_on_c, 0, 64, 0
1, 164760, Note_on_c, 0, 69, 0
1, 164760, Note_on_c, 0, 61, 0
1, 164880, Note_on_c, 0, 91, 0
1, 164880, Note_on_c, 0, 91, 77
1, 164880, Note_on_c, 0, 69, 23
1, 164880, Note_on_c, 0, 64, 19
1, 164880, Note_on_c, 0, 61, 19
1, 164880, Note_on_c, 0, 57, 19
1, 164995, Note_on_c, 0, 81, 0
1, 165000, Note_on_c, 0, 69, 0
1, 165000, Note_on_c, 0, 64, 0
1, 165000, Note_on_c, 0, 61, 0
1, 165000, Note_on_c, 0, 57, 0
1, 165000, Note_on_c, 0, 81, 56
1, 165120, Note_on_c, 0, 37, 22
1, 165120, Note_on_c, 0, 49, 26
1, 165200, Note_on_c, 0, 91, 0
1, 165240, Note_on_c, 0, 81, 0
1, 165240, Note_on_c, 0, 37, 0
1, 165240, Note_on_c, 0, 49, 0
1, 165240, Note_on_c, 0, 88, 68
1, 165360, Note_on_c, 0, 88, 0
1, 165360, Note_on_c, 0, 85, 62
1, 165360, Note_on_c, 0, 69, 23
1, 165360, Note_on_c, 0, 64, 19
1, 165360, Note_on_c, 0, 61, 19
1, 165360, Note_on_c, 0, 57, 19
1, 165480, Note_on_c, 0, 57, 0
1, 165480, Note_on_c, 0, 64, 0
1, 165480, Note_on_c, 0, 85, 0
1, 165480, Note_on_c, 0, 69, 0
1, 165480, Note_on_c, 0, 61, 0
1, 165480, Note_on_c, 0, 86, 65
1, 165540, Tempo, 1411765
1, 165600, Tempo, 1176471
1, 165600, Note_on_c, 0, 86, 0
1, 165600, Note_on_c, 0, 87, 74
1, 165600, Note_on_c, 0, 69, 23
1, 165600, Note_on_c, 0, 64, 19
1, 165600, Note_on_c, 0, 61, 19
1, 165600, Note_on_c, 0, 57, 19
1, 165626, Control_c, 0, 64, 0
1, 165635, Control_c, 0, 64, 127
1, 165720, Note_on_c, 0, 57, 0
1, 165720, Note_on_c, 0, 64, 0
1, 165720, Note_on_c, 0, 87, 0
1, 165720, Note_on_c, 0, 69, 0
1, 165720, Note_on_c, 0, 61, 0
1, 165720, Note_on_c, 0, 88, 64
1, 165780, Tempo, 1348315
1, 165840, Tempo, 1212121
1, 165840, Note_on_c, 0, 37, 22
1, 165840, Note_on_c, 0, 49, 27
1, 165845, Control_c, 0, 64, 0
1, 165877, Control_c, 0, 64, 127
1, 165920, Note_on_c, 0, 88, 0
1, 165920, Note_on_c, 0, 79, 63
1, 165960, Note_on_c, 0, 49, 0
1, 165960, Note_on_c, 0, 37, 0
1, 166000, Note_on_c, 0, 79, 0
1, 166000, Note_on_c, 0, 78, 64
1, 166080, Tempo, 1188119
1, 166080, Note_on_c, 0, 78, 0
1, 166080, Note_on_c, 0, 79, 64
1, 166080, Note_on_c, 0, 69, 23
1, 166080, Note_on_c, 0, 64, 19
1, 166080, Note_on_c, 0, 61, 19
1, 166080, Note_on_c, 0, 57, 19
1, 166160, Note_on_c, 0, 79, 0
1, 166160, Note_on_c, 0, 81, 66
1, 166200, Note_on_c, 0, 61, 0
1, 166200, Note_on_c, 0, 57, 0
1, 166200, Note_on_c, 0, 69, 0
1, 166200, Note_on_c, 0, 64, 0
1, 166240, Note_on_c, 0, 81, 0
1, 166240, Note_on_c, 0, 82, 68
1, 166320, Tempo, 1165049
1, 166320, Note_on_c, 0, 82, 0
1, 166320, Note_on_c, 0, 85, 70
1, 166320, Note_on_c, 0, 69, 23
1, 166320, Note_on_c, 0, 64, 19
1, 166320, Note_on_c, 0, 61, 19
1, 166320, Note_on_c, 0, 57, 19
1, 166326, Control_c, 0, 64, 0
1, 166380, Control_c, 0, 64, 127
1, 166400, Note_on_c, 0, 85, 0
1, 166400, Note_on_c, 0, 83, 68
1, 166440, Note_on_c, 0, 61, 0
1, 166440, Note_on_c, 0, 57, 0
1, 166440, Note_on_c, 0, 69, 0
1, 166440, Note_on_c, 0, 64, 0
1, 166480, Note_on_c, 0, 83, 0
1, 166480, Note_on_c, 0, 81, 66
1, 166500, Tempo, 1276596
1, 166560, Tempo, 1188119
1, 166560, Note_on_c, 0, 81, 0
1, 166560, Note_on_c, 0, 79, 69
1, 166560, Note_on_c, 0, 37, 22
1, 166560, Note_on_c, 0, 49, 26
1, 166640, Note_on_c, 0, 79, 0
1, 166640, Note_on_c, 0, 78, 65
1, 166680, Note_on_c, 0, 49, 0
1, 166680, Note_on_c, 0, 37, 0
1, 166720, Note_on_c, 0, 78, 0
1, 166720, Note_on_c, 0, 79, 60
1, 166740, Tempo, 1363636
1, 166800, Tempo, 1212121
1, 166800, Note_on_c, 0, 79, 0
1, 166800, Note_on_c, 0, 80, 69
1, 166800, Note_on_c, 0, 69, 23
1, 166800, Note_on_c, 0, 64, 19
1, 166800, Note_on_c, 0, 61, 19
1, 166800, Note_on_c, 0, 57, 19
1, 166808, Control_c, 0, 64, 0
1, 166837, Control_c, 0, 64, 127
1, 166880, Note_on_c, 0, 80, 0
1, 166880, Note_on_c, 0, 81, 64
1, 166920, Note_on_c, 0, 61, 0
1, 166920, Note_on_c, 0, 57, 0
1, 166920, Note_on_c, 0, 69, 0
1, 166920, Note_on_c, 0, 64, 0
1, 166960, Note_on_c, 0, 81, 0
1, 166960, Note_on_c, 0, 76, 59
1, 166980, Tempo, 1428571
1, 167040, Tempo, 1276596
1, 167040, Note_on_c, 0, 76, 0
1, 167040, Note_on_c, 0, 79, 70
1, 167040, Note_on_c, 0, 69, 26
1, 167040, Note_on_c, 0, 66, 21
1, 167040, Note_on_c, 0, 62, 21
1, 167040, Note_on_c, 0, 57, 21
1, 167040, Control_c, 0, 64, 0
1, 167115, Control_c, 0, 64, 127
1, 167160, Note_on_c, 0, 57, 0
1, 167160, Note_on_c, 0, 66, 0
1, 167160, Note_on_c, 0, 79, 0
1, 167160, Note_on_c, 0, 69, 0
1, 167160, Note_on_c, 0, 62, 0
1, 167160, Note_on_c, 0, 78, 64
1, 167280, Tempo, 1224490
1, 167280, Note_on_c, 0, 38, 25
1, 167280, Note_on_c, 0, 50, 31
1, 167400, Note_on_c, 0, 50, 0
1, 167400, Note_on_c, 0, 38, 0
1, 167400, Note_on_c, 0, 78, 0
1, 167400, Note_on_c, 0, 81, 69
1, 167520, Note_on_c, 0, 66, 26
1, 167520, Note_on_c, 0, 62, 21
1, 167520, Note_on_c, 0, 57, 21
1, 167520, Note_on_c, 0, 54, 21
1, 167640, Note_on_c, 0, 54, 0
1, 167640, Note_on_c, 0, 62, 0
1, 167640, Note_on_c, 0, 81, 0
1, 167640, Note_on_c, 0, 66, 0
1, 167640, Note_on_c, 0, 57, 0
1, 167640, Note_on_c, 0, 86, 76
1, 167760, Note_on_c, 0, 66, 26
1, 167760, Note_on_c, 0, 62, 21
1, 167760, Note_on_c, 0, 59, 21
1, 167760, Note_on_c, 0, 54, 21
1, 167770, Control_c, 0, 64, 0
1, 167852, Control_c, 0, 64, 127
1, 167878, Note_on_c, 0, 86, 0
1, 167880, Note_on_c, 0, 59, 0
1, 167880, Note_on_c, 0, 66, 0
1, 167880, Note_on_c, 0, 62, 0
1, 167880, Note_on_c, 0, 54, 0
1, 167880, Note_on_c, 0, 86, 74
1, 168000, Tempo, 1290323
1, 168000, Note_on_c, 0, 35, 25
1, 168000, Note_on_c, 0, 47, 29
1, 168120, Tempo, 1176471
1, 168120, Note_on_c, 0, 47, 0
1, 168120, Note_on_c, 0, 35, 0
1, 168120, Note_on_c, 0, 86, 0
1, 168120, Note_on_c, 0, 88, 78
1, 168240, Note_on_c, 0, 66, 26
1, 168240, Note_on_c, 0, 62, 21
1, 168240, Note_on_c, 0, 59, 21
1, 168240, Note_on_c, 0, 54, 21
1, 168360, Note_on_c, 0, 54, 0
1, 168360, Note_on_c, 0, 62, 0
1, 168360, Note_on_c, 0, 88, 0
1, 168360, Note_on_c, 0, 66, 0
1, 168360, Note_on_c, 0, 59, 0
1, 168360, Note_on_c, 0, 90, 68
1, 168420, Tempo, 1395349
1, 168468, Tempo, 1578947
1, 168478, Tempo, 1558442
1, 168479, Note_on_c, 0, 90, 0
1, 168480, Note_on_c, 0, 90, 62
1, 168480, Note_on_c, 0, 61, 21
1, 168480, Note_on_c, 0, 66, 26
1, 168480, Note_on_c, 0, 64, 21
1, 168480, Note_on_c, 0, 58, 21
1, 168480, Note_on_c, 0, 54, 21
1, 168480, Control_c, 0, 64, 0
1, 168487, Tempo, 1518987
1, 168497, Tempo, 1481481
1, 168506, Tempo, 1445783
1, 168510, Note_on_c, 0, 90, 0
1, 168510, Note_on_c, 0, 91, 59
1, 168516, Tempo, 1411765
1, 168519, Control_c, 0, 64, 127
1, 168526, Tempo, 1379310
1, 168535, Tempo, 1348315
1, 168540, Note_on_c, 0, 91, 0
1, 168540, Note_on_c, 0, 90, 64
1, 168545, Tempo, 1318681
1, 168554, Tempo, 1290323
1, 168564, Tempo, 1263158
1, 168570, Note_on_c, 0, 90, 0
1, 168570, Note_on_c, 0, 91, 60
1, 168574, Tempo, 1237113
1, 168583, Tempo, 1212121
1, 168600, Note_on_c, 0, 91, 0
1, 168600, Note_on_c, 0, 54, 0
1, 168600, Note_on_c, 0, 64, 0
1, 168600, Note_on_c, 0, 61, 0
1, 168600, Note_on_c, 0, 66, 0
1, 168600, Note_on_c, 0, 58, 0
1, 168600, Note_on_c, 0, 90, 67
1, 168602, Tempo, 1200000
1, 168630, Note_on_c, 0, 90, 0
1, 168630, Note_on_c, 0, 91, 62
1, 168641, Tempo, 1188119
1, 168660, Note_on_c, 0, 91, 0
1, 168660, Note_on_c, 0, 90, 69
1, 168679, Tempo, 1176471
1, 168690, Note_on_c, 0, 90, 0
1, 168690, Note_on_c, 0, 91, 65
1, 168718, Tempo, 1165049
1, 168720, Note_on_c, 0, 91, 0
1, 168720, Note_on_c, 0, 90, 72
1, 168720, Note_on_c, 0, 34, 25
1, 168720, Note_on_c, 0, 46, 31
1, 168750, Note_on_c, 0, 90, 0
1, 168750, Note_on_c, 0, 91, 66
1, 168756, Tempo, 1153846
1, 168775, Tempo, 1132075
1, 168780, Note_on_c, 0, 91, 0
1, 168780, Note_on_c, 0, 90, 74
1, 168794, Tempo, 1142857
1, 168810, Note_on_c, 0, 90, 0
1, 168810, Note_on_c, 0, 91, 70
1, 168814, Tempo, 1153846
1, 168833, Tempo, 1165049
1, 168840, Note_on_c, 0, 91, 0
1, 168840, Note_on_c, 0, 46, 0
1, 168840, Note_on_c, 0, 34, 0
1, 168840, Note_on_c, 0, 90, 77
1, 168852, Tempo, 1176471
1, 168862, Tempo, 1200000
1, 168871, Tempo, 1237113
1, 168880, Note_on_c, 0, 90, 0
1, 168880, Note_on_c, 0, 89, 79
1, 168881, Tempo, 1276596
1, 168890, Tempo, 1318681
1, 168900, Tempo, 1791045
1, 168920, Note_on_c, 0, 89, 0
1, 168920, Note_on_c, 0, 90, 75
1, 168960, Tempo, 1363636
1, 168960, Note_on_c, 0, 90, 0
1, 168960, Note_on_c, 0, 93, 84
1, 168960, Note_on_c, 0, 55, 21
1, 168960, Note_on_c, 0, 67, 26
1, 168960, Note_on_c, 0, 64, 21
1, 168960, Note_on_c, 0, 61, 21
1, 168960, Note_on_c, 0, 58, 21
1, 168966, Control_c, 0, 64, 0
1, 168994, Control_c, 0, 64, 127
1, 169080, Tempo, 1276596
1, 169080, Note_on_c, 0, 58, 0
1, 169080, Note_on_c, 0, 55, 0
1, 169080, Note_on_c, 0, 67, 0
1, 169080, Note_on_c, 0, 93, 0
1, 169080, Note_on_c, 0, 61, 0
1, 169080, Note_on_c, 0, 64, 0
1, 169080, Note_on_c, 0, 91, 67
1, 169200, Note_on_c, 0, 91, 0
1, 169200, Note_on_c, 0, 91, 72
1, 169200, Note_on_c, 0, 55, 21
1, 169200, Note_on_c, 0, 67, 26
1, 169200, Note_on_c, 0, 64, 21
1, 169200, Note_on_c, 0, 61, 21
1, 169200, Note_on_c, 0, 58, 21
1, 169320, Note_on_c, 0, 58, 0
1, 169320, Note_on_c, 0, 55, 0
1, 169320, Note_on_c, 0, 67, 0
1, 169320, Note_on_c, 0, 64, 0
1, 169320, Note_on_c, 0, 61, 0
1, 169440, Tempo, 1290323
1, 169440, Note_on_c, 0, 34, 25
1, 169440, Note_on_c, 0, 46, 29
1, 169453, Control_c, 0, 64, 0
1, 169484, Control_c, 0, 64, 127
1, 169520, Note_on_c, 0, 91, 0
1, 169520, Note_on_c, 0, 87, 69
1, 169560, Note_on_c, 0, 46, 0
1, 169560, Note_on_c, 0, 34, 0
1, 169600, Note_on_c, 0, 87, 0
1, 169600, Note_on_c, 0, 88, 72
1, 169680, Note_on_c, 0, 88, 0
1, 169680, Note_on_c, 0, 91, 72
1, 169680, Note_on_c, 0, 55, 21
1, 169680, Note_on_c, 0, 67, 26
1, 169680, Note_on_c, 0, 64, 21
1, 169680, Note_on_c, 0, 61, 21
1, 169680, Note_on_c, 0, 58, 21
1, 169760, Note_on_c, 0, 91, 0
1, 169760, Note_on_c, 0, 90, 67
1, 169800, Note_on_c, 0, 67, 0
1, 169800, Note_on_c, 0, 61, 0
1, 169800, Note_on_c, 0, 64, 0
1, 169800, Note_on_c, 0, 55, 0
1, 169800, Note_on_c, 0, 58, 0
1, 169840, Note_on_c, 0, 90, 0
1, 169840, Note_on_c, 0, 88, 64
1, 169860, Tempo, 1463415
1, 169918, Note_on_c, 0, 88, 0
1, 169920, Tempo, 1290323
1, 169920, Note_on_c, 0, 88, 77
1, 169920, Note_on_c, 0, 61, 21
1, 169920, Note_on_c, 0, 67, 26
1, 169920, Note_on_c, 0, 64, 21
1, 169920, Note_on_c, 0, 58, 21
1, 169920, Note_on_c, 0, 55, 21
1, 169923, Control_c, 0, 64, 0
1, 169960, Control_c, 0, 64, 127
1, 170040, Note_on_c, 0, 55, 0
1, 170040, Note_on_c, 0, 61, 0
1, 170040, Note_on_c, 0, 67, 0
1, 170040, Note_on_c, 0, 64, 0
1, 170040, Note_on_c, 0, 58, 0
1, 170160, Note_on_c, 0, 34, 25
1, 170160, Note_on_c, 0, 46, 31
1, 170240, Note_on_c, 0, 88, 0
1, 170240, Note_on_c, 0, 84, 67
1, 170280, Note_on_c, 0, 46, 0
1, 170280, Note_on_c, 0, 34, 0
1, 170320, Note_on_c, 0, 84, 0
1, 170320, Note_on_c, 0, 85, 64
1, 170400, Tempo, 1276596
1, 170400, Note_on_c, 0, 85, 0
1, 170400, Note_on_c, 0, 88, 76
1, 170400, Note_on_c, 0, 55, 21
1, 170400, Note_on_c, 0, 67, 26
1, 170400, Note_on_c, 0, 64, 21
1, 170400, Note_on_c, 0, 61, 21
1, 170400, Note_on_c, 0, 58, 21
1, 170480, Note_on_c, 0, 88, 0
1, 170480, Note_on_c, 0, 86, 67
1, 170520, Note_on_c, 0, 67, 0
1, 170520, Note_on_c, 0, 61, 0
1, 170520, Note_on_c, 0, 64, 0
1, 170520, Note_on_c, 0, 55, 0
1, 170520, Note_on_c, 0, 58, 0
1, 170560, Note_on_c, 0, 86, 0
1, 170560, Note_on_c, 0, 85, 65
1, 170580, Tempo, 1500000
1, 170640, Tempo, 1276596
1, 170640, Note_on_c, 0, 85, 0
1, 170640, Note_on_c, 0, 83, 72
1, 170640, Note_on_c, 0, 54, 21
1, 170640, Note_on_c, 0, 66, 26
1, 170640, Note_on_c, 0, 64, 21
1, 170640, Note_on_c, 0, 61, 21
1, 170640, Note_on_c, 0, 58, 21
1, 170651, Control_c, 0, 64, 0
1, 170695, Control_c, 0, 64, 127
1, 170700, Note_on_c, 0, 83, 0
1, 170700, Note_on_c, 0, 82, 62
1, 170760, Note_on_c, 0, 82, 0
1, 170760, Note_on_c, 0, 58, 0
1, 170760, Note_on_c, 0, 64, 0
1, 170760, Note_on_c, 0, 54, 0
1, 170760, Note_on_c, 0, 66, 0
1, 170760, Note_on_c, 0, 61, 0
1, 170760, Note_on_c, 0, 86, 66
1, 170820, Note_on_c, 0, 86, 0
1, 170820, Note_on_c, 0, 85, 63
1, 170880, Tempo, 1250000
1, 170880, Note_on_c, 0, 85, 0
1, 170880, Note_on_c, 0, 84, 72
1, 170880, Note_on_c, 0, 34, 25
1, 170880, Note_on_c, 0, 46, 29
1, 170940, Note_on_c, 0, 84, 0
1, 170940, Note_on_c, 0, 85, 63
1, 171000, Note_on_c, 0, 85, 0
1, 171000, Note_on_c, 0, 46, 0
1, 171000, Note_on_c, 0, 34, 0
1, 171000, Note_on_c, 0, 76, 66
1, 171060, Note_on_c, 0, 76, 0
1, 171060, Note_on_c, 0, 79, 60
1, 171120, Tempo, 1263158
1, 171120, Note_on_c, 0, 79, 0
1, 171120, Note_on_c, 0, 77, 72
1, 171120, Note_on_c, 0, 66, 26
1, 171120, Note_on_c, 0, 54, 21
1, 171120, Note_on_c, 0, 64, 21
1, 171120, Note_on_c, 0, 61, 21
1, 171120, Note_on_c, 0, 58, 21
1, 171133, Control_c, 0, 64, 0
1, 171172, Control_c, 0, 64, 127
1, 171180, Note_on_c, 0, 77, 0
1, 171180, Note_on_c, 0, 78, 62
1, 171240, Note_on_c, 0, 78, 0
1, 171240, Note_on_c, 0, 58, 0
1, 171240, Note_on_c, 0, 64, 0
1, 171240, Note_on_c, 0, 66, 0
1, 171240, Note_on_c, 0, 54, 0
1, 171240, Note_on_c, 0, 61, 0
1, 171240, Note_on_c, 0, 73, 66
1, 171300, Note_on_c, 0, 73, 0
1, 171300, Note_on_c, 0, 76, 61
1, 171360, Tempo, 1379310
1, 171360, Note_on_c, 0, 76, 0
1, 171360, Note_on_c, 0, 74, 66
1, 171360, Note_on_c, 0, 59, 21
1, 171360, Note_on_c, 0, 66, 26
1, 171360, Note_on_c, 0, 62, 21
1, 171360, Note_on_c, 0, 54, 21
1, 171360, Control_c, 0, 64, 0
1, 171435, Control_c, 0, 64, 127
1, 171480, Note_on_c, 0, 54, 0
1, 171480, Note_on_c, 0, 66, 0
1, 171480, Note_on_c, 0, 62, 0
1, 171480, Note_on_c, 0, 59, 0
1, 171600, Tempo, 1263158
1, 171600, Note_on_c, 0, 74, 0
1, 171600, Note_on_c, 0, 83, 70
1, 171600, Note_on_c, 0, 35, 25
1, 171600, Note_on_c, 0, 47, 31
1, 171720, Note_on_c, 0, 47, 0
1, 171720, Note_on_c, 0, 35, 0
1, 171840, Note_on_c, 0, 66, 26
1, 171840, Note_on_c, 0, 62, 21
1, 171840, Note_on_c, 0, 59, 21
1, 171840, Note_on_c, 0, 54, 21
1, 171960, Note_on_c, 0, 54, 0
1, 171960, Note_on_c, 0, 62, 0
1, 171960, Note_on_c, 0, 83, 0
1, 171960, Note_on_c, 0, 66, 0
1, 171960, Note_on_c, 0, 59, 0
1, 171960, Note_on_c, 0, 78, 59
1, 172080, Tempo, 1333333
1, 172080, Note_on_c, 0, 78, 0
1, 172080, Note_on_c, 0, 79, 66
1, 172080, Note_on_c, 0, 66, 26
1, 172080, Note_on_c, 0, 64, 21
1, 172080, Note_on_c, 0, 54, 21
1, 172080, Note_on_c, 0, 58, 21
1, 172086, Control_c, 0, 64, 0
1, 172196, Control_c, 0, 64, 127
1, 172200, Tempo, 1250000
1, 172200, Note_on_c, 0, 58, 0
1, 172200, Note_on_c, 0, 64, 0
1, 172200, Note_on_c, 0, 54, 0
1, 172200, Note_on_c, 0, 66, 0
1, 172200, Note_on_c, 0, 70, 39
1, 172200, Note_on_c, 0, 76, 46
1, 172320, Note_on_c, 0, 37, 25
1, 172320, Note_on_c, 0, 49, 29
1, 172438, Note_on_c, 0, 76, 0
1, 172438, Note_on_c, 0, 70, 0
1, 172440, Note_on_c, 0, 49, 0
1, 172440, Note_on_c, 0, 37, 0
1, 172440, Note_on_c, 0, 70, 37
1, 172440, Note_on_c, 0, 76, 44
1, 172560, Note_on_c, 0, 79, 0
1, 172560, Note_on_c, 0, 78, 64
1, 172560, Note_on_c, 0, 66, 26
1, 172560, Note_on_c, 0, 64, 21
1, 172560, Note_on_c, 0, 54, 21
1, 172560, Note_on_c, 0, 58, 21
1, 172678, Note_on_c, 0, 76, 0
1, 172678, Note_on_c, 0, 70, 0
1, 172680, Tempo, 1379310
1, 172680, Note_on_c, 0, 54, 0
1, 172680, Note_on_c, 0, 64, 0
1, 172680, Note_on_c, 0, 66, 0
1, 172680, Note_on_c, 0, 58, 0
1, 172680, Note_on_c, 0, 70, 39
1, 172680, Note_on_c, 0, 76, 46
1, 172800, Tempo, 1348315
1, 172800, Note_on_c, 0, 76, 0
1, 172800, Note_on_c, 0, 70, 0
1, 172800, Note_on_c, 0, 78, 0
1, 172800, Note_on_c, 0, 71, 43
1, 172800, Note_on_c, 0, 74, 43
1, 172800, Note_on_c, 0, 78, 66
1, 172800, Note_on_c, 0, 59, 23
1, 172800, Note_on_c, 0, 66, 28
1, 172800, Note_on_c, 0, 62, 23
1, 172800, Note_on_c, 0, 54, 23
1, 172800, Control_c, 0, 64, 0
1, 172846, Control_c, 0, 64, 127
1, 172860, Note_on_c, 0, 78, 0
1, 172860, Note_on_c, 0, 90, 56
1, 172920, Tempo, 1237113
1, 172920, Note_on_c, 0, 90, 0
1, 172920, Note_on_c, 0, 54, 0
1, 172920, Note_on_c, 0, 66, 0
1, 172920, Note_on_c, 0, 59, 0
1, 172920, Note_on_c, 0, 62, 0
1, 172920, Note_on_c, 0, 85, 59
1, 172980, Note_on_c, 0, 85, 0
1, 172980, Note_on_c, 0, 86, 55
1, 173040, Note_on_c, 0, 86, 0
1, 173040, Note_on_c, 0, 71, 0
1, 173040, Note_on_c, 0, 74, 0
1, 173040, Note_on_c, 0, 88, 66
1, 173040, Note_on_c, 0, 35, 27
1, 173040, Note_on_c, 0, 47, 34
1, 173100, Note_on_c, 0, 88, 0
1, 173100, Note_on_c, 0, 86, 57
1, 173160, Note_on_c, 0, 86, 0
1, 173160, Note_on_c, 0, 47, 0
1, 173160, Note_on_c, 0, 35, 0
1, 173160, Note_on_c, 0, 82, 59
1, 173220, Note_on_c, 0, 82, 0
1, 173220, Note_on_c, 0, 83, 55
1, 173280, Note_on_c, 0, 83, 0
1, 173280, Note_on_c, 0, 85, 66
1, 173280, Note_on_c, 0, 66, 29
1, 173280, Note_on_c, 0, 62, 23
1, 173280, Note_on_c, 0, 59, 23
1, 173280, Note_on_c, 0, 54, 23
1, 173340, Note_on_c, 0, 85, 0
1, 173340, Note_on_c, 0, 83, 60
1, 173400, Note_on_c, 0, 83, 0
1, 173400, Note_on_c, 0, 54, 0
1, 173400, Note_on_c, 0, 66, 0
1, 173400, Note_on_c, 0, 62, 0
1, 173400, Note_on_c, 0, 59, 0
1, 173400, Note_on_c, 0, 86, 66
1, 173440, Note_on_c, 0, 86, 0
1, 173440, Note_on_c, 0, 83, 57
1, 173460, Tempo, 1666667
1, 173480, Note_on_c, 0, 83, 0
1, 173481, Note_on_c, 0, 78, 50
1, 173520, Tempo, 1379310
1, 173520, Note_on_c, 0, 81, 66
1, 173520, Note_on_c, 0, 66, 29
1, 173520, Note_on_c, 0, 64, 24
1, 173520, Note_on_c, 0, 54, 24
1, 173520, Note_on_c, 0, 58, 24
1, 173521, Note_on_c, 0, 78, 0
1, 173527, Control_c, 0, 64, 0
1, 173563, Control_c, 0, 64, 127
1, 173640, Tempo, 1263158
1, 173640, Note_on_c, 0, 66, 0
1, 173640, Note_on_c, 0, 64, 0
1, 173640, Note_on_c, 0, 81, 0
1, 173640, Note_on_c, 0, 58, 0
1, 173640, Note_on_c, 0, 54, 0
1, 173640, Note_on_c, 0, 79, 60
1, 173640, Note_on_c, 0, 70, 31
1, 173640, Note_on_c, 0, 76, 31
1, 173760, Note_on_c, 0, 37, 29
1, 173760, Note_on_c, 0, 49, 33
1, 173878, Note_on_c, 0, 76, 0
1, 173878, Note_on_c, 0, 79, 0
1, 173878, Note_on_c, 0, 70, 0
1, 173880, Note_on_c, 0, 37, 0
1, 173880, Note_on_c, 0, 49, 0
1, 173880, Note_on_c, 0, 76, 31
1, 173880, Note_on_c, 0, 70, 31
1, 173880, Note_on_c, 0, 79, 60
1, 174000, Note_on_c, 0, 66, 30
1, 174000, Note_on_c, 0, 64, 24
1, 174000, Note_on_c, 0, 54, 24
1, 174000, Note_on_c, 0, 58, 24
1, 174118, Note_on_c, 0, 79, 0
1, 174118, Note_on_c, 0, 76, 0
1, 174118, Note_on_c, 0, 70, 0
1, 174120, Tempo, 1348315
1, 174120, Note_on_c, 0, 64, 0
1, 174120, Note_on_c, 0, 66, 0
1, 174120, Note_on_c, 0, 54, 0
1, 174120, Note_on_c, 0, 58, 0
1, 174120, Note_on_c, 0, 78, 64
1, 174120, Note_on_c, 0, 70, 31
1, 174120, Note_on_c, 0, 76, 37
1, 174240, Tempo, 1304348
1, 174240, Note_on_c, 0, 76, 0
1, 174240, Note_on_c, 0, 70, 0
1, 174240, Note_on_c, 0, 78, 0
1, 174240, Note_on_c, 0, 78, 72
1, 174240, Note_on_c, 0, 74, 61
1, 174240, Note_on_c, 0, 71, 61
1, 174240, Note_on_c, 0, 59, 29
1, 174240, Note_on_c, 0, 66, 36
1, 174240, Note_on_c, 0, 62, 29
1, 174240, Note_on_c, 0, 54, 29
1, 174240, Control_c, 0, 64, 0
1, 174315, Control_c, 0, 64, 127
1, 174359, Note_on_c, 0, 71, 0
1, 174359, Note_on_c, 0, 74, 0
1, 174360, Tempo, 1176471
1, 174360, Note_on_c, 0, 62, 0
1, 174360, Note_on_c, 0, 59, 0
1, 174360, Note_on_c, 0, 66, 0
1, 174360, Note_on_c, 0, 54, 0
1, 174360, Note_on_c, 0, 66, 53
1, 174480, Tempo, 1263158
1, 174480, Note_on_c, 0, 38, 46
1, 174480, Note_on_c, 0, 50, 58
1, 174597, Note_on_c, 0, 78, 0
1, 174598, Note_on_c, 0, 66, 0
1, 174600, Note_on_c, 0, 38, 0
1, 174600, Note_on_c, 0, 50, 0
1, 174600, Note_on_c, 0, 66, 59
1, 174600, Note_on_c, 0, 74, 48
1, 174600, Note_on_c, 0, 71, 46
1, 174600, Note_on_c, 0, 78, 71
1, 174719, Note_on_c, 0, 71, 0
1, 174719, Note_on_c, 0, 74, 0
1, 174720, Note_on_c, 0, 70, 58
1, 174720, Note_on_c, 0, 76, 49
1, 174720, Note_on_c, 0, 61, 39
1, 174720, Note_on_c, 0, 54, 31
1, 174720, Note_on_c, 0, 49, 31
1, 174728, Control_c, 0, 64, 0
1, 174791, Control_c, 0, 64, 127
1, 174838, Note_on_c, 0, 66, 0
1, 174838, Note_on_c, 0, 78, 0
1, 174839, Note_on_c, 0, 76, 0
1, 174839, Note_on_c, 0, 70, 0
1, 174840, Tempo, 1363636
1, 174840, Note_on_c, 0, 49, 0
1, 174840, Note_on_c, 0, 61, 0
1, 174840, Note_on_c, 0, 54, 0
1, 174840, Note_on_c, 0, 70, 54
1, 174840, Note_on_c, 0, 78, 70
1, 174840, Note_on_c, 0, 66, 59
1, 174840, Note_on_c, 0, 76, 49
1, 174959, Note_on_c, 0, 76, 0
1, 174959, Note_on_c, 0, 70, 0
1, 174959, Note_on_c, 0, 78, 0
1, 174959, Note_on_c, 0, 66, 0
1, 174960, Tempo, 1263158
1, 174960, Note_on_c, 0, 71, 65
1, 174960, Note_on_c, 0, 66, 65
1, 174960, Note_on_c, 0, 74, 65
1, 174960, Note_on_c, 0, 78, 77
1, 174960, Note_on_c, 0, 59, 39
1, 174960, Note_on_c, 0, 54, 31
1, 174960, Note_on_c, 0, 47, 31
1, 174968, Control_c, 0, 64, 0
1, 175022, Control_c, 0, 64, 127
1, 175079, Note_on_c, 0, 74, 0
1, 175079, Note_on_c, 0, 71, 0
1, 175079, Note_on_c, 0, 66, 0
1, 175080, Tempo, 1200000
1, 175080, Note_on_c, 0, 59, 0
1, 175080, Note_on_c, 0, 47, 0
1, 175080, Note_on_c, 0, 54, 0
1, 175080, Note_on_c, 0, 71, 56
1, 175200, Tempo, 1263158
1, 175200, Note_on_c, 0, 35, 50
1, 175200, Note_on_c, 0, 47, 62
1, 175317, Note_on_c, 0, 78, 0
1, 175318, Note_on_c, 0, 71, 0
1, 175320, Note_on_c, 0, 35, 0
1, 175320, Note_on_c, 0, 47, 0
1, 175320, Note_on_c, 0, 74, 61
1, 175320, Note_on_c, 0, 71, 63
1, 175320, Note_on_c, 0, 83, 75
1, 175320, Note_on_c, 0, 78, 51
1, 175439, Note_on_c, 0, 78, 0
1, 175439, Note_on_c, 0, 74, 0
1, 175440, Note_on_c, 0, 75, 62
1, 175440, Note_on_c, 0, 78, 52
1, 175440, Note_on_c, 0, 57, 41
1, 175440, Note_on_c, 0, 45, 33
1, 175453, Control_c, 0, 64, 0
1, 175519, Control_c, 0, 64, 127
1, 175558, Note_on_c, 0, 83, 0
1, 175558, Note_on_c, 0, 71, 0
1, 175559, Note_on_c, 0, 78, 0
1, 175559, Note_on_c, 0, 75, 0
1, 175560, Tempo, 1395349
1, 175560, Note_on_c, 0, 45, 0
1, 175560, Note_on_c, 0, 57, 0
1, 175560, Note_on_c, 0, 75, 62
1, 175560, Note_on_c, 0, 71, 62
1, 175560, Note_on_c, 0, 78, 52
1, 175560, Note_on_c, 0, 83, 75
1, 175679, Note_on_c, 0, 83, 0
1, 175679, Note_on_c, 0, 75, 0
1, 175679, Note_on_c, 0, 71, 0
1, 175679, Note_on_c, 0, 78, 0
1, 175680, Tempo, 1304348
1, 175680, Note_on_c, 0, 72, 63
1, 175680, Note_on_c, 0, 78, 63
1, 175680, Note_on_c, 0, 75, 63
1, 175680, Note_on_c, 0, 84, 75
1, 175680, Note_on_c, 0, 56, 42
1, 175680, Note_on_c, 0, 44, 33
1, 175709, Control_c, 0, 64, 0
1, 175760, Control_c, 0, 64, 127
1, 175799, Note_on_c, 0, 84, 0
1, 175799, Note_on_c, 0, 75, 0
1, 175799, Note_on_c, 0, 72, 0
1, 175799, Note_on_c, 0, 78, 0
1, 175800, Note_on_c, 0, 44, 0
1, 175800, Note_on_c, 0, 56, 0
1, 175800, Note_on_c, 0, 72, 63
1, 175800, Note_on_c, 0, 78, 63
1, 175800, Note_on_c, 0, 75, 63
1, 175800, Note_on_c, 0, 84, 76
1, 175920, Note_on_c, 0, 32, 53
1, 175920, Note_on_c, 0, 44, 67
1, 176038, Note_on_c, 0, 84, 0
1, 176038, Note_on_c, 0, 75, 0
1, 176038, Note_on_c, 0, 72, 0
1, 176038, Note_on_c, 0, 78, 0
1, 176040, Note_on_c, 0, 44, 0
1, 176040, Note_on_c, 0, 32, 0
1, 176040, Note_on_c, 0, 72, 65
1, 176040, Note_on_c, 0, 78, 78
1, 176040, Note_on_c, 0, 75, 65
1, 176040, Note_on_c, 0, 84, 78
1, 176159, Note_on_c, 0, 75, 0
1, 176159, Note_on_c, 0, 78, 0
1, 176160, Note_on_c, 0, 75, 65
1, 176160, Note_on_c, 0, 81, 78
1, 176160, Note_on_c, 0, 54, 44
1, 176160, Note_on_c, 0, 42, 36
1, 176278, Note_on_c, 0, 72, 0
1, 176278, Note_on_c, 0, 84, 0
1, 176279, Note_on_c, 0, 81, 0
1, 176279, Note_on_c, 0, 75, 0
1, 176280, Tempo, 1395349
1, 176280, Note_on_c, 0, 42, 0
1, 176280, Note_on_c, 0, 54, 0
1, 176280, Note_on_c, 0, 72, 66
1, 176280, Note_on_c, 0, 81, 66
1, 176280, Note_on_c, 0, 84, 79
1, 176280, Note_on_c, 0, 75, 66
1, 176399, Note_on_c, 0, 75, 0
1, 176399, Note_on_c, 0, 72, 0
1, 176399, Note_on_c, 0, 81, 0
1, 176399, Note_on_c, 0, 84, 0
1, 176400, Tempo, 1318681
1, 176400, Note_on_c, 0, 73, 66
1, 176400, Note_on_c, 0, 85, 79
1, 176400, Note_on_c, 0, 80, 66
1, 176400, Note_on_c, 0, 53, 54
1, 176400, Note_on_c, 0, 41, 43
1, 176412, Control_c, 0, 64, 0
1, 176460, Tempo, 1304348
1, 176509, Control_c, 0, 64, 127
1, 176519, Note_on_c, 0, 80, 0
1, 176519, Note_on_c, 0, 73, 0
1, 176519, Note_on_c, 0, 85, 0
1, 176520, Note_on_c, 0, 53, 0
1, 176520, Note_on_c, 0, 41, 0
1, 176520, Note_on_c, 0, 80, 67
1, 176520, Note_on_c, 0, 73, 67
1, 176520, Note_on_c, 0, 85, 80
1, 176520, Note_on_c, 0, 53, 44
1, 176520, Note_on_c, 0, 65, 55
1, 176640, Note_on_c, 0, 65, 0
1, 176640, Note_on_c, 0, 53, 0
1, 176640, Note_on_c, 0, 41, 54
1, 176640, Note_on_c, 0, 53, 66
1, 176758, Note_on_c, 0, 80, 0
1, 176758, Note_on_c, 0, 85, 0
1, 176758, Note_on_c, 0, 73, 0
1, 176760, Note_on_c, 0, 41, 0
1, 176760, Note_on_c, 0, 53, 0
1, 176760, Note_on_c, 0, 73, 68
1, 176760, Note_on_c, 0, 85, 82
1, 176760, Note_on_c, 0, 80, 82
1, 176760, Note_on_c, 0, 53, 54
1, 176760, Note_on_c, 0, 65, 68
1, 176879, Note_on_c, 0, 80, 0
1, 176879, Note_on_c, 0, 73, 0
1, 176880, Note_on_c, 0, 65, 0
1, 176880, Note_on_c, 0, 53, 0
1, 176880, Note_on_c, 0, 78, 82
1, 176880, Note_on_c, 0, 73, 69
1, 176880, Note_on_c, 0, 51, 57
1, 176880, Note_on_c, 0, 39, 46
1, 176888, Control_c, 0, 64, 0
1, 176972, Control_c, 0, 64, 127
1, 176998, Note_on_c, 0, 85, 0
1, 176999, Note_on_c, 0, 78, 0
1, 176999, Note_on_c, 0, 73, 0
1, 177000, Tempo, 1379310
1, 177000, Note_on_c, 0, 51, 0
1, 177000, Note_on_c, 0, 39, 0
1, 177000, Note_on_c, 0, 78, 69
1, 177000, Note_on_c, 0, 73, 69
1, 177000, Note_on_c, 0, 85, 83
1, 177000, Note_on_c, 0, 51, 46
1, 177000, Note_on_c, 0, 63, 57
1, 177119, Note_on_c, 0, 78, 0
1, 177120, Tempo, 1318681
1, 177120, Note_on_c, 0, 51, 0
1, 177120, Note_on_c, 0, 63, 0
1, 177120, Note_on_c, 0, 77, 67
1, 177120, Note_on_c, 0, 37, 44
1, 177120, Note_on_c, 0, 49, 44
1, 177120, Control_c, 0, 64, 0
1, 177217, Control_c, 0, 64, 127
1, 177238, Note_on_c, 0, 85, 0
1, 177238, Note_on_c, 0, 73, 0
1, 177240, Note_on_c, 0, 77, 0
1, 177240, Note_on_c, 0, 84, 65
1, 177240, Note_on_c, 0, 72, 60
1, 177360, Note_on_c, 0, 72, 0
1, 177360, Note_on_c, 0, 49, 0
1, 177360, Note_on_c, 0, 37, 0
1, 177360, Note_on_c, 0, 84, 0
1, 177360, Note_on_c, 0, 87, 59
1, 177360, Note_on_c, 0, 75, 59
1, 177360, Note_on_c, 0, 61, 25
1, 177360, Note_on_c, 0, 65, 25
1, 177360, Note_on_c, 0, 68, 30
1, 177373, Control_c, 0, 64, 0
1, 177446, Control_c, 0, 64, 127
1, 177480, Note_on_c, 0, 75, 0
1, 177480, Note_on_c, 0, 87, 0
1, 177480, Note_on_c, 0, 85, 59
1, 177480, Note_on_c, 0, 73, 59
1, 177600, Note_on_c, 0, 73, 0
1, 177600, Note_on_c, 0, 65, 0
1, 177600, Note_on_c, 0, 68, 0
1, 177600, Note_on_c, 0, 85, 0
1, 177600, Note_on_c, 0, 84, 58
1, 177600, Note_on_c, 0, 72, 58
1, 177600, Note_on_c, 0, 66, 24
1, 177600, Note_on_c, 0, 70, 29
1, 177613, Control_c, 0, 64, 0
1, 177669, Control_c, 0, 64, 127
1, 177720, Tempo, 1411765
1, 177720, Note_on_c, 0, 72, 0
1, 177720, Note_on_c, 0, 84, 0
1, 177720, Note_on_c, 0, 73, 57
1, 177720, Note_on_c, 0, 85, 57
1, 177840, Tempo, 1333333
1, 177840, Note_on_c, 0, 85, 0
1, 177840, Note_on_c, 0, 61, 0
1, 177840, Note_on_c, 0, 66, 0
1, 177840, Note_on_c, 0, 73, 0
1, 177840, Note_on_c, 0, 76, 56
1, 177840, Note_on_c, 0, 88, 56
1, 177840, Note_on_c, 0, 67, 25
1, 177840, Note_on_c, 0, 61, 25
1, 177853, Control_c, 0, 64, 0
1, 177920, Control_c, 0, 64, 127
1, 177960, Note_on_c, 0, 67, 0
1, 177960, Note_on_c, 0, 70, 0
1, 177960, Note_on_c, 0, 70, 30
1, 177960, Note_on_c, 0, 67, 25
1, 178080, Tempo, 1348315
1, 178080, Note_on_c, 0, 67, 0
1, 178080, Note_on_c, 0, 76, 0
1, 178080, Note_on_c, 0, 70, 0
1, 178080, Note_on_c, 0, 88, 0
1, 178080, Note_on_c, 0, 75, 55
1, 178080, Note_on_c, 0, 87, 55
1, 178080, Note_on_c, 0, 70, 25
1, 178080, Note_on_c, 0, 73, 30
1, 178092, Control_c, 0, 64, 0
1, 178155, Control_c, 0, 64, 127
1, 178200, Note_on_c, 0, 73, 0
1, 178200, Note_on_c, 0, 70, 0
1, 178200, Note_on_c, 0, 68, 24
1, 178200, Note_on_c, 0, 71, 29
1, 178320, Tempo, 1379310
1, 178320, Note_on_c, 0, 71, 0
1, 178320, Note_on_c, 0, 68, 0
1, 178320, Note_on_c, 0, 67, 24
1, 178320, Note_on_c, 0, 70, 29
1, 178332, Control_c, 0, 64, 0
1, 178400, Control_c, 0, 64, 127
1, 178440, Note_on_c, 0, 70, 0
1, 178440, Note_on_c, 0, 67, 0
1, 178440, Note_on_c, 0, 68, 24
1, 178440, Note_on_c, 0, 71, 29
1, 178560, Key_signature, 6, "major"
1, 178560, Tempo, 1318681
1, 178560, Note_on_c, 0, 71, 0
1, 178560, Note_on_c, 0, 61, 0
1, 178560, Note_on_c, 0, 68, 0
1, 178560, Note_on_c, 0, 66, 27
1, 178560, Note_on_c, 0, 70, 33
1, 178560, Note_on_c, 0, 61, 27
1, 178560, Control_c, 0, 64, 0
1, 178657, Control_c, 0, 64, 127
1, 178680, Note_on_c, 0, 70, 0
1, 178680, Note_on_c, 0, 66, 0
1, 178680, Note_on_c, 0, 75, 0
1, 178680, Note_on_c, 0, 87, 0
1, 178680, Note_on_c, 0, 84, 55
1, 178680, Note_on_c, 0, 72, 46
1, 178680, Note_on_c, 0, 66, 27
1, 178680, Note_on_c, 0, 69, 33
1, 178800, Note_on_c, 0, 69, 0
1, 178800, Note_on_c, 0, 72, 0
1, 178800, Note_on_c, 0, 66, 0
1, 178800, Note_on_c, 0, 84, 0
1, 178800, Note_on_c, 0, 87, 63
1, 178800, Note_on_c, 0, 75, 53
1, 178800, Note_on_c, 0, 65, 27
1, 178800, Note_on_c, 0, 68, 33
1, 178813, Control_c, 0, 64, 0
1, 178886, Control_c, 0, 64, 127
1, 178920, Note_on_c, 0, 75, 0
1, 178920, Note_on_c, 0, 87, 0
1, 178920, Note_on_c, 0, 85, 55
1, 178920, Note_on_c, 0, 73, 46
1, 179040, Note_on_c, 0, 73, 0
1, 179040, Note_on_c, 0, 85, 0
1, 179040, Note_on_c, 0, 84, 60
1, 179040, Note_on_c, 0, 72, 51
1, 179053, Control_c, 0, 64, 0
1, 179109, Control_c, 0, 64, 127
1, 179160, Tempo, 1411765
1, 179160, Note_on_c, 0, 72, 0
1, 179160, Note_on_c, 0, 84, 0
1, 179160, Note_on_c, 0, 73, 45
1, 179160, Note_on_c, 0, 85, 53
1, 179280, Tempo, 1333333
1, 179280, Note_on_c, 0, 85, 0
1, 179280, Note_on_c, 0, 61, 0
1, 179280, Note_on_c, 0, 73, 0
1, 179280, Note_on_c, 0, 75, 50
1, 179280, Note_on_c, 0, 87, 59
1, 179280, Note_on_c, 0, 61, 25
1, 179293, Control_c, 0, 64, 0
1, 179360, Control_c, 0, 64, 127
1, 179400, Note_on_c, 0, 68, 0
1, 179400, Note_on_c, 0, 65, 0
1, 179400, Note_on_c, 0, 68, 30
1, 179400, Note_on_c, 0, 65, 25
1, 179520, Tempo, 1348315
1, 179520, Note_on_c, 0, 65, 0
1, 179520, Note_on_c, 0, 87, 0
1, 179520, Note_on_c, 0, 68, 0
1, 179520, Note_on_c, 0, 75, 0
1, 179520, Note_on_c, 0, 85, 55
1, 179520, Note_on_c, 0, 73, 46
1, 179520, Note_on_c, 0, 68, 25
1, 179520, Note_on_c, 0, 71, 30
1, 179532, Control_c, 0, 64, 0
1, 179595, Control_c, 0, 64, 127
1, 179640, Note_on_c, 0, 71, 0
1, 179640, Note_on_c, 0, 68, 0
1, 179640, Note_on_c, 0, 66, 24
1, 179640, Note_on_c, 0, 70, 29
1, 179760, Tempo, 1379310
1, 179760, Note_on_c, 0, 70, 0
1, 179760, Note_on_c, 0, 66, 0
1, 179760, Note_on_c, 0, 65, 24
1, 179760, Note_on_c, 0, 68, 29
1, 179772, Control_c, 0, 64, 0
1, 179840, Control_c, 0, 64, 127
1, 179880, Note_on_c, 0, 68, 0
1, 179880, Note_on_c, 0, 65, 0
1, 179880, Note_on_c, 0, 66, 24
1, 179880, Note_on_c, 0, 70, 29
1, 180000, Tempo, 1318681
1, 180000, Note_on_c, 0, 70, 0
1, 180000, Note_on_c, 0, 61, 0
1, 180000, Note_on_c, 0, 66, 0
1, 180000, Note_on_c, 0, 64, 28
1, 180000, Note_on_c, 0, 67, 34
1, 180000, Note_on_c, 0, 61, 28
1, 180000, Control_c, 0, 64, 0
1, 180097, Control_c, 0, 64, 127
1, 180120, Note_on_c, 0, 73, 0
1, 180120, Note_on_c, 0, 85, 0
1, 180120, Note_on_c, 0, 70, 47
1, 180120, Note_on_c, 0, 82, 56
1, 180240, Note_on_c, 0, 82, 0
1, 180240, Note_on_c, 0, 67, 0
1, 180240, Note_on_c, 0, 70, 0
1, 180240, Note_on_c, 0, 64, 0
1, 180240, Note_on_c, 0, 73, 56
1, 180240, Note_on_c, 0, 85, 66
1, 180240, Note_on_c, 0, 65, 24
1, 180240, Note_on_c, 0, 68, 29
1, 180253, Control_c, 0, 64, 0
1, 180326, Control_c, 0, 64, 127
1, 180360, Note_on_c, 0, 85, 0
1, 180360, Note_on_c, 0, 73, 0
1, 180360, Note_on_c, 0, 71, 50
1, 180360, Note_on_c, 0, 83, 59
1, 180480, Note_on_c, 0, 83, 0
1, 180480, Note_on_c, 0, 61, 0
1, 180480, Note_on_c, 0, 68, 0
1, 180480, Note_on_c, 0, 65, 0
1, 180480, Note_on_c, 0, 71, 0
1, 180480, Note_on_c, 0, 70, 56
1, 180480, Note_on_c, 0, 82, 67
1, 180480, Note_on_c, 0, 62, 33
1, 180480, Note_on_c, 0, 65, 33
1, 180480, Note_on_c, 0, 68, 39
1, 180493, Control_c, 0, 64, 0
1, 180549, Control_c, 0, 64, 127
1, 180600, Tempo, 1411765
1, 180600, Note_on_c, 0, 82, 0
1, 180600, Note_on_c, 0, 70, 0
1, 180600, Note_on_c, 0, 83, 60
1, 180600, Note_on_c, 0, 71, 51
1, 180719, Note_on_c, 0, 71, 0
1, 180719, Note_on_c, 0, 83, 0
1, 180720, Tempo, 1333333
1, 180720, Note_on_c, 0, 68, 0
1, 180720, Note_on_c, 0, 62, 0
1, 180720, Note_on_c, 0, 65, 0
1, 180720, Note_on_c, 0, 71, 56
1, 180720, Note_on_c, 0, 83, 67
1, 180720, Note_on_c, 0, 68, 35
1, 180720, Note_on_c, 0, 62, 29
1, 180733, Control_c, 0, 64, 0
1, 180800, Control_c, 0, 64, 127
1, 180840, Note_on_c, 0, 68, 0
1, 180840, Note_on_c, 0, 71, 0
1, 180840, Note_on_c, 0, 83, 0
1, 180840, Note_on_c, 0, 68, 51
1, 180840, Note_on_c, 0, 80, 61
1, 180840, Note_on_c, 0, 65, 31
1, 180960, Tempo, 1348315
1, 180960, Note_on_c, 0, 65, 0
1, 180960, Note_on_c, 0, 62, 0
1, 180960, Note_on_c, 0, 68, 0
1, 180960, Note_on_c, 0, 80, 0
1, 180960, Note_on_c, 0, 71, 57
1, 180960, Note_on_c, 0, 83, 68
1, 180960, Note_on_c, 0, 63, 33
1, 180960, Note_on_c, 0, 68, 39
1, 180972, Control_c, 0, 64, 0
1, 181035, Control_c, 0, 64, 127
1, 181080, Note_on_c, 0, 68, 0
1, 181080, Note_on_c, 0, 71, 0
1, 181080, Note_on_c, 0, 83, 0
1, 181080, Note_on_c, 0, 70, 52
1, 181080, Note_on_c, 0, 82, 62
1, 181080, Note_on_c, 0, 66, 34
1, 181200, Tempo, 1379310
1, 181200, Note_on_c, 0, 66, 0
1, 181200, Note_on_c, 0, 63, 0
1, 181200, Note_on_c, 0, 70, 0
1, 181200, Note_on_c, 0, 82, 0
1, 181200, Note_on_c, 0, 68, 56
1, 181200, Note_on_c, 0, 80, 67
1, 181200, Note_on_c, 0, 60, 34
1, 181200, Note_on_c, 0, 65, 40
1, 181212, Control_c, 0, 64, 0
1, 181280, Control_c, 0, 64, 127
1, 181320, Note_on_c, 0, 65, 0
1, 181320, Note_on_c, 0, 68, 0
1, 181320, Note_on_c, 0, 80, 0
1, 181320, Note_on_c, 0, 69, 52
1, 181320, Note_on_c, 0, 81, 62
1, 181320, Note_on_c, 0, 66, 35
1, 181437, Note_on_c, 0, 81, 0
1, 181437, Note_on_c, 0, 69, 0
1, 181440, Note_on_c, 0, 60, 0
1, 181440, Note_on_c, 0, 66, 0
1, 181440, Note_on_c, 0, 69, 62
1, 181440, Note_on_c, 0, 81, 74
1, 181440, Note_on_c, 0, 60, 39
1, 181440, Note_on_c, 0, 66, 46
1, 181440, Control_c, 0, 64, 0
1, 181537, Control_c, 0, 64, 127
1, 181560, Note_on_c, 0, 66, 0
1, 181560, Note_on_c, 0, 63, 40
1, 181680, Note_on_c, 0, 63, 0
1, 181680, Note_on_c, 0, 60, 0
1, 181680, Note_on_c, 0, 81, 0
1, 181680, Note_on_c, 0, 69, 0
1, 181680, Note_on_c, 0, 80, 69
1, 181680, Note_on_c, 0, 73, 58
1, 181680, Note_on_c, 0, 68, 58
1, 181680, Note_on_c, 0, 59, 38
1, 181680, Note_on_c, 0, 66, 45
1, 181693, Control_c, 0, 64, 0
1, 181766, Control_c, 0, 64, 127
1, 181800, Note_on_c, 0, 66, 0
1, 181800, Note_on_c, 0, 65, 40
1, 181920, Note_on_c, 0, 65, 0
1, 181920, Note_on_c, 0, 59, 0
1, 181920, Note_on_c, 0, 80, 0
1, 181920, Note_on_c, 0, 73, 0
1, 181920, Note_on_c, 0, 68, 0
1, 181920, Note_on_c, 0, 73, 63
1, 181920, Note_on_c, 0, 78, 75
1, 181920, Note_on_c, 0, 58, 42
1, 181920, Note_on_c, 0, 66, 50
1, 181933, Control_c, 0, 64, 0
1, 181989, Control_c, 0, 64, 127
1, 182040, Tempo, 1481481
1, 182040, Note_on_c, 0, 66, 0
1, 182040, Note_on_c, 0, 61, 40
1, 182160, Tempo, 1363636
1, 182160, Note_on_c, 0, 61, 0
1, 182160, Note_on_c, 0, 58, 0
1, 182160, Note_on_c, 0, 78, 0
1, 182160, Note_on_c, 0, 83, 78
1, 182160, Note_on_c, 0, 56, 42
1, 182160, Note_on_c, 0, 61, 42
1, 182160, Note_on_c, 0, 66, 50
1, 182173, Control_c, 0, 64, 0
1, 182240, Control_c, 0, 64, 127
1, 182280, Note_on_c, 0, 66, 0
1, 182280, Note_on_c, 0, 73, 0
1, 182280, Note_on_c, 0, 73, 67
1, 182280, Note_on_c, 0, 65, 40
1, 182400, Note_on_c, 0, 65, 0
1, 182400, Note_on_c, 0, 83, 0
1, 182400, Note_on_c, 0, 61, 0
1, 182400, Note_on_c, 0, 56, 0
1, 182400, Note_on_c, 0, 73, 0
1, 182400, Note_on_c, 0, 80, 67
1, 182400, Note_on_c, 0, 82, 79
1, 182400, Note_on_c, 0, 54, 44
1, 182400, Note_on_c, 0, 61, 44
1, 182400, Note_on_c, 0, 66, 52
1, 182412, Control_c, 0, 64, 0
1, 182475, Control_c, 0, 64, 127
1, 182520, Note_on_c, 0, 80, 0
1, 182520, Note_on_c, 0, 78, 67
1, 182640, Note_on_c, 0, 78, 0
1, 182640, Note_on_c, 0, 66, 0
1, 182640, Note_on_c, 0, 82, 0
1, 182640, Note_on_c, 0, 54, 0
1, 182640, Note_on_c, 0, 61, 0
1, 182640, Note_on_c, 0, 77, 69
1, 182640, Note_on_c, 0, 87, 82
1, 182640, Note_on_c, 0, 47, 39
1, 182640, Note_on_c, 0, 59, 47
1, 182652, Control_c, 0, 64, 0
1, 182720, Control_c, 0, 64, 127
1, 182760, Tempo, 1463415
1, 182760, Note_on_c, 0, 77, 0
1, 182760, Note_on_c, 0, 78, 70
1, 182880, Tempo, 1363636
1, 182880, Note_on_c, 0, 78, 0
1, 182880, Note_on_c, 0, 59, 0
1, 182880, Note_on_c, 0, 47, 0
1, 182880, Note_on_c, 0, 75, 73
1, 182880, Note_on_c, 0, 78, 87
1, 182880, Note_on_c, 0, 47, 46
1, 182880, Note_on_c, 0, 59, 55
1, 182880, Control_c, 0, 64, 0
1, 182977, Control_c, 0, 64, 127
1, 183000, Note_on_c, 0, 59, 0
1, 183000, Note_on_c, 0, 53, 47
1, 183120, Note_on_c, 0, 53, 0
1, 183120, Note_on_c, 0, 47, 0
1, 183120, Note_on_c, 0, 87, 0
1, 183120, Note_on_c, 0, 75, 0
1, 183120, Note_on_c, 0, 78, 0
1, 183120, Note_on_c, 0, 78, 68
1, 183120, Note_on_c, 0, 85, 80
1, 183120, Note_on_c, 0, 73, 68
1, 183120, Note_on_c, 0, 46, 45
1, 183120, Note_on_c, 0, 56, 54
1, 183133, Control_c, 0, 64, 0
1, 183206, Control_c, 0, 64, 127
1, 183240, Tempo, 1500000
1, 183240, Note_on_c, 0, 56, 0
1, 183240, Note_on_c, 0, 54, 49
1, 183360, Tempo, 1363636
1, 183360, Note_on_c, 0, 54, 0
1, 183360, Note_on_c, 0, 46, 0
1, 183360, Note_on_c, 0, 78, 0
1, 183360, Note_on_c, 0, 85, 0
1, 183360, Note_on_c, 0, 73, 0
1, 183360, Note_on_c, 0, 90, 94
1, 183360, Note_on_c, 0, 78, 79
1, 183360, Note_on_c, 0, 45, 46
1, 183360, Note_on_c, 0, 53, 55
1, 183373, Control_c, 0, 64, 0
1, 183429, Control_c, 0, 64, 127
1, 183480, Note_on_c, 0, 53, 0
1, 183480, Note_on_c, 0, 51, 50
1, 183563, Tempo, 1363636
1, 183600, Note_on_c, 0, 51, 0
1, 183600, Note_on_c, 0, 45, 0
1, 183600, Note_on_c, 0, 48, 57
1, 183600, Note_on_c, 0, 44, 48
1, 183613, Control_c, 0, 64, 0
1, 183638, Tempo, 1379310
1, 183680, Control_c, 0, 64, 127
1, 183713, Tempo, 1395349
1, 183720, Note_on_c, 0, 48, 0
1, 183720, Note_on_c, 0, 49, 52
1, 183788, Tempo, 1411765
1, 183840, Note_on_c, 0, 49, 0
1, 183840, Note_on_c, 0, 44, 0
1, 183840, Note_on_c, 0, 78, 0
1, 183840, Note_on_c, 0, 90, 0
1, 183840, Note_on_c, 0, 89, 90
1, 183840, Note_on_c, 0, 77, 76
1, 183840, Note_on_c, 0, 39, 61
1, 183852, Control_c, 0, 64, 0
1, 183863, Tempo, 1428571
1, 183915, Control_c, 0, 64, 127
1, 183938, Tempo, 1445783
1, 183960, Tempo, 1500000
1, 183960, Note_on_c, 0, 39, 0
1, 183960, Note_on_c, 0, 37, 51
1, 184080, Tempo, 1411765
1, 184080, Note_on_c, 0, 37, 0
1, 184080, Note_on_c, 0, 77, 0
1, 184080, Note_on_c, 0, 89, 0
1, 184080, Note_on_c, 0, 95, 93
1, 184080, Note_on_c, 0, 83, 83
1, 184080, Note_on_c, 0, 89, 83
1, 184080, Note_on_c, 0, 92, 83
1, 184080, Note_on_c, 0, 36, 64
1, 184092, Control_c, 0, 64, 0
1, 184160, Control_c, 0, 64, 127
1, 184200, Tempo, 1690141
1, 184200, Note_on_c, 0, 36, 0
1, 184200, Note_on_c, 0, 37, 58
1, 184320, Tempo, 1481481
1, 184320, Note_on_c, 0, 37, 0
1, 184320, Note_on_c, 0, 37, 72
1, 184320, Control_c, 0, 64, 0
1, 184440, Note_on_c, 0, 37, 0
1, 184440, Note_on_c, 0, 56, 32
1, 184560, Note_on_c, 0, 56, 0
1, 184560, Note_on_c, 0, 53, 36
1, 184680, Note_on_c, 0, 53, 0
1, 184680, Note_on_c, 0, 89, 0
1, 184680, Note_on_c, 0, 95, 0
1, 184680, Note_on_c, 0, 83, 0
1, 184680, Note_on_c, 0, 92, 0
1, 184680, Note_on_c, 0, 71, 36
1, 184680, Note_on_c, 0, 59, 31
1, 184800, Note_on_c, 0, 59, 0
1, 184800, Note_on_c, 0, 71, 0
1, 184800, Note_on_c, 0, 68, 40
1, 184800, Note_on_c, 0, 56, 36
1, 184823, Tempo, 1481481
1, 184883, Tempo, 1500000
1, 184920, Note_on_c, 0, 56, 0
1, 184920, Note_on_c, 0, 68, 0
1, 184920, Note_on_c, 0, 74, 36
1, 184920, Note_on_c, 0, 62, 28
1, 184928, Tempo, 1518987
1, 184973, Tempo, 1538462
1, 185033, Tempo, 1558442
1, 185040, Note_on_c, 0, 62, 0
1, 185040, Note_on_c, 0, 74, 0
1, 185040, Note_on_c, 0, 72, 40
1, 185040, Note_on_c, 0, 60, 34
1, 185078, Tempo, 1578947
1, 185123, Tempo, 1600000
1, 185160, Note_on_c, 0, 60, 0
1, 185160, Note_on_c, 0, 72, 0
1, 185160, Note_on_c, 0, 73, 36
1, 185160, Note_on_c, 0, 61, 30
1, 185183, Tempo, 1621622
1, 185228, Tempo, 1643836
1, 185273, Tempo, 1666667
1, 185280, Note_on_c, 0, 61, 0
1, 185280, Note_on_c, 0, 73, 0
1, 185280, Note_on_c, 0, 68, 40
1, 185280, Note_on_c, 0, 56, 34
1, 185333, Tempo, 1690141
1, 185378, Tempo, 1714286
1, 185400, Note_on_c, 0, 56, 0
1, 185400, Note_on_c, 0, 68, 0
1, 185400, Note_on_c, 0, 75, 36
1, 185400, Note_on_c, 0, 63, 29
1, 185423, Tempo, 1739130
1, 185483, Tempo, 1764706
1, 185520, Note_on_c, 0, 63, 0
1, 185520, Note_on_c, 0, 75, 0
1, 185520, Note_on_c, 0, 73, 40
1, 185520, Note_on_c, 0, 61, 34
1, 185528, Tempo, 1791045
1, 185573, Tempo, 1818182
1, 185633, Tempo, 1846154
1, 185640, Note_on_c, 0, 61, 0
1, 185640, Note_on_c, 0, 73, 0
1, 185640, Note_on_c, 0, 71, 35
1, 185640, Note_on_c, 0, 59, 30
1, 185678, Tempo, 1875000
1, 185723, Tempo, 1904762
1, 185760, Tempo, 1333333
1, 185760, Note_on_c, 0, 59, 0
1, 185760, Note_on_c, 0, 71, 0
1, 185760, Note_on_c, 0, 70, 49
1, 185760, Note_on_c, 0, 54, 32
1, 185760, Note_on_c, 0, 58, 38
1, 185760, Control_c, 0, 64, 0
1, 185834, Control_c, 0, 64, 127
1, 185880, Note_on_c, 0, 58, 0
1, 185880, Note_on_c, 0, 63, 33
1, 186000, Note_on_c, 0, 63, 0
1, 186000, Note_on_c, 0, 70, 0
1, 186000, Note_on_c, 0, 60, 38
1, 186008, Control_c, 0, 64, 0
1, 186046, Control_c, 0, 64, 127
1, 186120, Note_on_c, 0, 60, 0
1, 186120, Note_on_c, 0, 61, 34
1, 186240, Note_on_c, 0, 61, 0
1, 186240, Note_on_c, 0, 42, 58
1, 186240, Note_on_c, 0, 58, 38
1, 186244, Control_c, 0, 64, 0
1, 186300, Control_c, 0, 64, 127
1, 186360, Note_on_c, 0, 58, 0
1, 186360, Note_on_c, 0, 63, 33
1, 186480, Note_on_c, 0, 63, 0
1, 186480, Note_on_c, 0, 60, 38
1, 186483, Control_c, 0, 64, 0
1, 186537, Control_c, 0, 64, 127
1, 186600, Note_on_c, 0, 60, 0
1, 186600, Note_on_c, 0, 61, 33
1, 186720, Note_on_c, 0, 61, 0
1, 186720, Note_on_c, 0, 58, 38
1, 186730, Control_c, 0, 64, 0
1, 186780, Control_c, 0, 64, 127
1, 186840, Note_on_c, 0, 58, 0
1, 186840, Note_on_c, 0, 63, 34
1, 186960, Tempo, 1250000
1, 186960, Note_on_c, 0, 63, 0
1, 186960, Note_on_c, 0, 42, 0
1, 186960, Note_on_c, 0, 54, 0
1, 186960, Note_on_c, 0, 42, 52
1, 186960, Note_on_c, 0, 54, 32
1, 186960, Note_on_c, 0, 58, 38
1, 186969, Control_c, 0, 64, 0
1, 187034, Control_c, 0, 64, 127
1, 187080, Tempo, 1379310
1, 187080, Note_on_c, 0, 58, 0
1, 187080, Note_on_c, 0, 42, 0
1, 187080, Note_on_c, 0, 37, 46
1, 187080, Note_on_c, 0, 61, 34
1, 187198, Note_on_c, 0, 37, 0
1, 187200, Tempo, 1318681
1, 187200, Note_on_c, 0, 61, 0
1, 187200, Note_on_c, 0, 54, 0
1, 187200, Note_on_c, 0, 37, 52
1, 187200, Note_on_c, 0, 53, 32
1, 187200, Note_on_c, 0, 56, 38
1, 187200, Control_c, 0, 64, 0
1, 187274, Control_c, 0, 64, 127
1, 187320, Note_on_c, 0, 56, 0
1, 187320, Note_on_c, 0, 61, 33
1, 187440, Tempo, 1276596
1, 187440, Note_on_c, 0, 61, 0
1, 187440, Note_on_c, 0, 53, 0
1, 187440, Note_on_c, 0, 54, 32
1, 187440, Note_on_c, 0, 58, 38
1, 187448, Control_c, 0, 64, 0
1, 187486, Control_c, 0, 64, 127
1, 187560, Note_on_c, 0, 58, 0
1, 187560, Note_on_c, 0, 61, 34
1, 187680, Tempo, 1224490
1, 187680, Note_on_c, 0, 61, 0
1, 187680, Note_on_c, 0, 54, 0
1, 187680, Note_on_c, 0, 56, 34
1, 187680, Note_on_c, 0, 59, 41
1, 187684, Control_c, 0, 64, 0
1, 187740, Control_c, 0, 64, 127
1, 187800, Tempo, 1379310
1, 187800, Note_on_c, 0, 59, 0
1, 187800, Note_on_c, 0, 61, 36
1, 187918, Note_on_c, 0, 37, 0
1, 187920, Tempo, 1237113
1, 187920, Note_on_c, 0, 61, 0
1, 187920, Note_on_c, 0, 56, 0
1, 187920, Note_on_c, 0, 37, 52
1, 187920, Note_on_c, 0, 56, 34
1, 187920, Note_on_c, 0, 59, 40
1, 187923, Control_c, 0, 64, 0
1, 187977, Control_c, 0, 64, 127
1, 188040, Tempo, 1333333
1, 188040, Note_on_c, 0, 59, 0
1, 188040, Note_on_c, 0, 61, 34
1, 188160, Tempo, 1318681
1, 188160, Note_on_c, 0, 61, 0
1, 188160, Note_on_c, 0, 56, 0
1, 188160, Note_on_c, 0, 54, 32
1, 188160, Note_on_c, 0, 58, 38
1, 188170, Control_c, 0, 64, 0
1, 188220, Control_c, 0, 64, 127
1, 188280, Note_on_c, 0, 58, 0
1, 188280, Note_on_c, 0, 61, 32
1, 188398, Note_on_c, 0, 37, 0
1, 188400, Note_on_c, 0, 61, 0
1, 188400, Note_on_c, 0, 54, 0
1, 188400, Note_on_c, 0, 37, 52
1, 188400, Note_on_c, 0, 53, 31
1, 188400, Note_on_c, 0, 56, 37
1, 188409, Control_c, 0, 64, 0
1, 188474, Control_c, 0, 64, 127
1, 188520, Tempo, 1428571
1, 188520, Note_on_c, 0, 56, 0
1, 188520, Note_on_c, 0, 61, 34
1, 188638, Note_on_c, 0, 37, 0
1, 188640, Tempo, 1304348
1, 188640, Note_on_c, 0, 61, 0
1, 188640, Note_on_c, 0, 53, 0
1, 188640, Note_on_c, 0, 34, 52
1, 188640, Note_on_c, 0, 54, 32
1, 188640, Note_on_c, 0, 58, 38
1, 188640, Control_c, 0, 64, 0
1, 188714, Control_c, 0, 64, 127
1, 188760, Note_on_c, 0, 58, 0
1, 188760, Note_on_c, 0, 63, 33
1, 188880, Tempo, 1348315
1, 188880, Note_on_c, 0, 63, 0
1, 188880, Note_on_c, 0, 34, 0
1, 188880, Note_on_c, 0, 60, 38
1, 188888, Control_c, 0, 64, 0
1, 188926, Control_c, 0, 64, 127
1, 189000, Note_on_c, 0, 60, 0
1, 189000, Note_on_c, 0, 61, 34
1, 189120, Tempo, 1318681
1, 189120, Note_on_c, 0, 61, 0
1, 189120, Note_on_c, 0, 90, 61
1, 189120, Note_on_c, 0, 78, 53
1, 189120, Note_on_c, 0, 58, 38
1, 189124, Control_c, 0, 64, 0
1, 189180, Control_c, 0, 64, 127
1, 189240, Note_on_c, 0, 58, 0
1, 189240, Note_on_c, 0, 63, 33
1, 189360, Tempo, 1318681
1, 189360, Note_on_c, 0, 63, 0
1, 189360, Note_on_c, 0, 60, 38
1, 189363, Control_c, 0, 64, 0
1, 189417, Control_c, 0, 64, 127
1, 189480, Note_on_c, 0, 60, 0
1, 189480, Note_on_c, 0, 61, 33
1, 189600, Tempo, 1290323
1, 189600, Note_on_c, 0, 61, 0
1, 189600, Note_on_c, 0, 58, 38
1, 189610, Control_c, 0, 64, 0
1, 189660, Control_c, 0, 64, 127
1, 189720, Note_on_c, 0, 58, 0
1, 189720, Note_on_c, 0, 63, 28
1, 189837, Note_on_c, 0, 78, 0
1, 189837, Note_on_c, 0, 90, 0
1, 189840, Tempo, 1237113
1, 189840, Note_on_c, 0, 54, 0
1, 189840, Note_on_c, 0, 63, 0
1, 189840, Note_on_c, 0, 90, 55
1, 189840, Note_on_c, 0, 78, 48
1, 189840, Note_on_c, 0, 54, 27
1, 189840, Note_on_c, 0, 58, 32
1, 189849, Control_c, 0, 64, 0
1, 189914, Control_c, 0, 64, 127
1, 189959, Note_on_c, 0, 78, 0
1, 189959, Note_on_c, 0, 90, 0
1, 189960, Tempo, 1379310
1, 189960, Note_on_c, 0, 58, 0
1, 189960, Note_on_c, 0, 85, 48
1, 189960, Note_on_c, 0, 73, 42
1, 189960, Note_on_c, 0, 61, 28
1, 190079, Note_on_c, 0, 73, 0
1, 190079, Note_on_c, 0, 85, 0
1, 190080, Tempo, 1318681
1, 190080, Note_on_c, 0, 54, 0
1, 190080, Note_on_c, 0, 61, 0
1, 190080, Note_on_c, 0, 85, 55
1, 190080, Note_on_c, 0, 73, 48
1, 190080, Note_on_c, 0, 53, 32
1, 190080, Note_on_c, 0, 56, 38
1, 190080, Control_c, 0, 64, 0
1, 190154, Control_c, 0, 64, 127
1, 190200, Note_on_c, 0, 56, 0
1, 190200, Note_on_c, 0, 61, 33
1, 190320, Tempo, 1290323
1, 190320, Note_on_c, 0, 61, 0
1, 190320, Note_on_c, 0, 53, 0
1, 190320, Note_on_c, 0, 54, 32
1, 190320, Note_on_c, 0, 58, 38
1, 190328, Control_c, 0, 64, 0
1, 190366, Control_c, 0, 64, 127
1, 190440, Note_on_c, 0, 58, 0
1, 190440, Note_on_c, 0, 61, 34
1, 190560, Tempo, 1224490
1, 190560, Note_on_c, 0, 61, 0
1, 190560, Note_on_c, 0, 54, 0
1, 190560, Note_on_c, 0, 56, 34
1, 190560, Note_on_c, 0, 59, 41
1, 190564, Control_c, 0, 64, 0
1, 190620, Control_c, 0, 64, 127
1, 190680, Tempo, 1379310
1, 190680, Note_on_c, 0, 59, 0
1, 190680, Note_on_c, 0, 61, 36
1, 190793, Note_on_c, 0, 85, 0
1, 190793, Note_on_c, 0, 73, 0
1, 190800, Tempo, 1237113
1, 190800, Note_on_c, 0, 56, 0
1, 190800, Note_on_c, 0, 61, 0
1, 190800, Note_on_c, 0, 85, 55
1, 190800, Note_on_c, 0, 73, 48
1, 190800, Note_on_c, 0, 56, 34
1, 190800, Note_on_c, 0, 59, 40
1, 190803, Control_c, 0, 64, 0
1, 190857, Control_c, 0, 64, 127
1, 190920, Tempo, 1333333
1, 190920, Note_on_c, 0, 59, 0
1, 190920, Note_on_c, 0, 61, 34
1, 191040, Tempo, 1318681
1, 191040, Note_on_c, 0, 61, 0
1, 191040, Note_on_c, 0, 56, 0
1, 191040, Note_on_c, 0, 54, 32
1, 191040, Note_on_c, 0, 58, 38
1, 191050, Control_c, 0, 64, 0
1, 191100, Control_c, 0, 64, 127
1, 191160, Note_on_c, 0, 58, 0
1, 191160, Note_on_c, 0, 61, 32
1, 191275, Note_on_c, 0, 85, 0
1, 191275, Note_on_c, 0, 73, 0
1, 191280, Note_on_c, 0, 54, 0
1, 191280, Note_on_c, 0, 61, 0
1, 191280, Note_on_c, 0, 85, 55
1, 191280, Note_on_c, 0, 73, 48
1, 191280, Note_on_c, 0, 53, 26
1, 191280, Note_on_c, 0, 56, 31
1, 191289, Control_c, 0, 64, 0
1, 191354, Control_c, 0, 64, 127
1, 191400, Tempo, 1428571
1, 191400, Note_on_c, 0, 56, 0
1, 191400, Note_on_c, 0, 61, 28
1, 191518, Note_on_c, 0, 85, 0
1, 191518, Note_on_c, 0, 73, 0
1, 191520, Tempo, 1333333
1, 191520, Note_on_c, 0, 53, 0
1, 191520, Note_on_c, 0, 61, 0
1, 191520, Note_on_c, 0, 82, 53
1, 191520, Note_on_c, 0, 70, 45
1, 191520, Note_on_c, 0, 54, 32
1, 191520, Note_on_c, 0, 58, 38
1, 191520, Control_c, 0, 64, 0
1, 191594, Control_c, 0, 64, 127
1, 191601, Note_on_c, 0, 58, 0
1, 191601, Note_on_c, 0, 63, 33
1, 191680, Note_on_c, 0, 61, 33
1, 191681, Note_on_c, 0, 63, 0
1, 191760, Tempo, 1304348
1, 191760, Note_on_c, 0, 82, 0
1, 191760, Note_on_c, 0, 70, 0
1, 191760, Note_on_c, 0, 61, 0
1, 191760, Note_on_c, 0, 60, 38
1, 191768, Control_c, 0, 64, 0
1, 191806, Control_c, 0, 64, 127
1, 191840, Note_on_c, 0, 63, 34
1, 191841, Note_on_c, 0, 60, 0
1, 191920, Note_on_c, 0, 63, 0
1, 191920, Note_on_c, 0, 61, 34
1, 191980, Note_on_c, 0, 61, 0
1, 192000, Note_on_c, 0, 42, 58
1, 192000, Note_on_c, 0, 58, 38
1, 192004, Control_c, 0, 64, 0
1, 192060, Control_c, 0, 64, 127
1, 192081, Note_on_c, 0, 58, 0
1, 192081, Note_on_c, 0, 63, 33
1, 192120, Tempo, 1363636
1, 192160, Note_on_c, 0, 61, 33
1, 192161, Note_on_c, 0, 63, 0
1, 192220, Note_on_c, 0, 61, 0
1, 192240, Tempo, 1318681
1, 192240, Note_on_c, 0, 60, 38
1, 192243, Control_c, 0, 64, 0
1, 192297, Control_c, 0, 64, 127
1, 192320, Note_on_c, 0, 63, 33
1, 192321, Note_on_c, 0, 60, 0
1, 192400, Note_on_c, 0, 63, 0
1, 192400, Note_on_c, 0, 61, 33
1, 192460, Note_on_c, 0, 61, 0
1, 192475, Note_on_c, 0, 42, 0
1, 192480, Note_on_c, 0, 42, 58
1, 192480, Note_on_c, 0, 58, 38
1, 192490, Control_c, 0, 64, 0
1, 192540, Control_c, 0, 64, 127
1, 192561, Note_on_c, 0, 58, 0
1, 192561, Note_on_c, 0, 63, 34
1, 192640, Note_on_c, 0, 61, 34
1, 192641, Note_on_c, 0, 63, 0
1, 192700, Note_on_c, 0, 61, 0
1, 192718, Note_on_c, 0, 42, 0
1, 192720, Tempo, 1379310
1, 192720, Note_on_c, 0, 54, 0
1, 192720, Note_on_c, 0, 42, 56
1, 192720, Note_on_c, 0, 54, 32
1, 192720, Note_on_c, 0, 58, 38
1, 192729, Control_c, 0, 64, 0
1, 192794, Control_c, 0, 64, 127
1, 192800, Note_on_c, 0, 42, 0
1, 192800, Note_on_c, 0, 41, 50
1, 192800, Note_on_c, 0, 62, 34
1, 192801, Note_on_c, 0, 58, 0
1, 192840, Tempo, 1500000
1, 192880, Note_on_c, 0, 62, 0
1, 192880, Note_on_c, 0, 41, 0
1, 192880, Note_on_c, 0, 42, 50
1, 192880, Note_on_c, 0, 61, 34
1, 192940, Note_on_c, 0, 61, 0
1, 192940, Note_on_c, 0, 42, 0
1, 192960, Tempo, 1318681
1, 192960, Note_on_c, 0, 54, 0
1, 192960, Note_on_c, 0, 37, 52
1, 192960, Note_on_c, 0, 53, 32
1, 192960, Note_on_c, 0, 56, 38
1, 192960, Control_c, 0, 64, 0
1, 193034, Control_c, 0, 64, 127
1, 193040, Note_on_c, 0, 63, 33
1, 193041, Note_on_c, 0, 56, 0
1, 193120, Note_on_c, 0, 63, 0
1, 193120, Note_on_c, 0, 61, 33
1, 193180, Note_on_c, 0, 61, 0
1, 193200, Tempo, 1276596
1, 193200, Note_on_c, 0, 53, 0
1, 193200, Note_on_c, 0, 54, 32
1, 193200, Note_on_c, 0, 58, 38
1, 193208, Control_c, 0, 64, 0
1, 193246, Control_c, 0, 64, 127
1, 193280, Note_on_c, 0, 63, 34
1, 193281, Note_on_c, 0, 58, 0
1, 193360, Note_on_c, 0, 63, 0
1, 193360, Note_on_c, 0, 61, 34
1, 193420, Note_on_c, 0, 61, 0
1, 193435, Note_on_c, 0, 37, 0
1, 193440, Tempo, 1224490
1, 193440, Note_on_c, 0, 54, 0
1, 193440, Note_on_c, 0, 37, 52
1, 193440, Note_on_c, 0, 56, 34
1, 193440, Note_on_c, 0, 59, 41
1, 193444, Control_c, 0, 64, 0
1, 193500, Control_c, 0, 64, 127
1, 193520, Note_on_c, 0, 63, 36
1, 193521, Note_on_c, 0, 59, 0
1, 193560, Tempo, 1445783
1, 193600, Note_on_c, 0, 63, 0
1, 193600, Note_on_c, 0, 61, 36
1, 193660, Note_on_c, 0, 61, 0
1, 193680, Tempo, 1250000
1, 193680, Note_on_c, 0, 56, 0
1, 193680, Note_on_c, 0, 56, 34
1, 193680, Note_on_c, 0, 59, 40
1, 193683, Control_c, 0, 64, 0
1, 193737, Control_c, 0, 64, 127
1, 193760, Note_on_c, 0, 63, 34
1, 193761, Note_on_c, 0, 59, 0
1, 193800, Tempo, 1333333
1, 193840, Note_on_c, 0, 63, 0
1, 193840, Note_on_c, 0, 61, 34
1, 193900, Note_on_c, 0, 61, 0
1, 193915, Note_on_c, 0, 37, 0
1, 193920, Tempo, 1290323
1, 193920, Note_on_c, 0, 56, 0
1, 193920, Note_on_c, 0, 37, 52
1, 193920, Note_on_c, 0, 54, 32
1, 193920, Note_on_c, 0, 58, 38
1, 193930, Control_c, 0, 64, 0
1, 193980, Control_c, 0, 64, 127
1, 194000, Note_on_c, 0, 63, 32
1, 194001, Note_on_c, 0, 58, 0
1, 194080, Note_on_c, 0, 63, 0
1, 194080, Note_on_c, 0, 61, 32
1, 194140, Note_on_c, 0, 61, 0
1, 194160, Note_on_c, 0, 54, 0
1, 194160, Note_on_c, 0, 53, 31
1, 194160, Note_on_c, 0, 56, 37
1, 194169, Control_c, 0, 64, 0
1, 194234, Control_c, 0, 64, 127
1, 194240, Note_on_c, 0, 63, 34
1, 194241, Note_on_c, 0, 56, 0
1, 194280, Tempo, 1428571
1, 194320, Note_on_c, 0, 63, 0
1, 194320, Note_on_c, 0, 61, 34
1, 194380, Note_on_c, 0, 61, 0
1, 194395, Note_on_c, 0, 37, 0
1, 194400, Tempo, 1333333
1, 194400, Note_on_c, 0, 53, 0
1, 194400, Note_on_c, 0, 34, 52
1, 194400, Note_on_c, 0, 54, 32
1, 194400, Note_on_c, 0, 58, 38
1, 194400, Control_c, 0, 64, 0
1, 194449, Control_c, 0, 64, 127
1, 194481, Note_on_c, 0, 58, 0
1, 194481, Note_on_c, 0, 63, 33
1, 194560, Note_on_c, 0, 61, 33
1, 194561, Note_on_c, 0, 63, 0
1, 194640, Tempo, 1304348
1, 194640, Note_on_c, 0, 61, 0
1, 194640, Note_on_c, 0, 34, 0
1, 194640, Note_on_c, 0, 60, 39
1, 194648, Control_c, 0, 64, 0
1, 194686, Control_c, 0, 64, 127
1, 194720, Note_on_c, 0, 63, 34
1, 194721, Note_on_c, 0, 60, 0
1, 194760, Tempo, 1379310
1, 194800, Note_on_c, 0, 63, 0
1, 194800, Note_on_c, 0, 61, 35
1, 194860, Note_on_c, 0, 61, 0
1, 194880, Tempo, 1318681
1, 194880, Note_on_c, 0, 90, 67
1, 194880, Note_on_c, 0, 78, 59
1, 194880, Note_on_c, 0, 58, 39
1, 194884, Control_c, 0, 64, 0
1, 194940, Control_c, 0, 64, 127
1, 194961, Note_on_c, 0, 58, 0
1, 194961, Note_on_c, 0, 63, 34
1, 195040, Note_on_c, 0, 61, 35
1, 195041, Note_on_c, 0, 63, 0
1, 195100, Note_on_c, 0, 61, 0
1, 195120, Tempo, 1318681
1, 195120, Note_on_c, 0, 60, 41
1, 195123, Control_c, 0, 64, 0
1, 195177, Control_c, 0, 64, 127
1, 195200, Note_on_c, 0, 63, 35
1, 195201, Note_on_c, 0, 60, 0
1, 195280, Note_on_c, 0, 63, 0
1, 195280, Note_on_c, 0, 61, 36
1, 195340, Note_on_c, 0, 61, 0
1, 195360, Note_on_c, 0, 58, 42
1, 195370, Control_c, 0, 64, 0
1, 195420, Control_c, 0, 64, 127
1, 195441, Note_on_c, 0, 58, 0
1, 195441, Note_on_c, 0, 63, 38
1, 195520, Note_on_c, 0, 61, 34
1, 195521, Note_on_c, 0, 63, 0
1, 195580, Note_on_c, 0, 61, 0
1, 195593, Note_on_c, 0, 78, 0
1, 195593, Note_on_c, 0, 90, 0
1, 195600, Tempo, 1290323
1, 195600, Note_on_c, 0, 54, 0
1, 195600, Note_on_c, 0, 90, 65
1, 195600, Note_on_c, 0, 78, 57
1, 195600, Note_on_c, 0, 54, 32
1, 195600, Note_on_c, 0, 58, 38
1, 195609, Control_c, 0, 64, 0
1, 195674, Control_c, 0, 64, 127
1, 195680, Note_on_c, 0, 77, 51
1, 195680, Note_on_c, 0, 89, 58
1, 195680, Note_on_c, 0, 62, 34
1, 195681, Note_on_c, 0, 58, 0
1, 195681, Note_on_c, 0, 78, 0
1, 195681, Note_on_c, 0, 90, 0
1, 195720, Tempo, 1379310
1, 195760, Note_on_c, 0, 77, 0
1, 195760, Note_on_c, 0, 89, 0
1, 195760, Note_on_c, 0, 62, 0
1, 195760, Note_on_c, 0, 78, 51
1, 195760, Note_on_c, 0, 90, 58
1, 195760, Note_on_c, 0, 61, 34
1, 195820, Note_on_c, 0, 61, 0
1, 195820, Note_on_c, 0, 90, 0
1, 195840, Tempo, 1318681
1, 195840, Note_on_c, 0, 78, 0
1, 195840, Note_on_c, 0, 54, 0
1, 195840, Note_on_c, 0, 85, 67
1, 195840, Note_on_c, 0, 73, 59
1, 195840, Note_on_c, 0, 53, 39
1, 195840, Note_on_c, 0, 56, 47
1, 195840, Control_c, 0, 64, 0
1, 195886, Control_c, 0, 64, 127
1, 195920, Note_on_c, 0, 63, 41
1, 195921, Note_on_c, 0, 56, 0
1, 196000, Note_on_c, 0, 63, 0
1, 196000, Note_on_c, 0, 61, 41
1, 196060, Note_on_c, 0, 61, 0
1, 196080, Tempo, 1290323
1, 196080, Note_on_c, 0, 53, 0
1, 196080, Note_on_c, 0, 54, 40
1, 196080, Note_on_c, 0, 58, 49
1, 196088, Control_c, 0, 64, 0
1, 196126, Control_c, 0, 64, 127
1, 196160, Note_on_c, 0, 63, 44
1, 196161, Note_on_c, 0, 58, 0
1, 196240, Note_on_c, 0, 63, 0
1, 196240, Note_on_c, 0, 61, 46
1, 196300, Note_on_c, 0, 61, 0
1, 196315, Note_on_c, 0, 73, 0
1, 196315, Note_on_c, 0, 85, 0
1, 196320, Tempo, 1263158
1, 196320, Note_on_c, 0, 54, 0
1, 196320, Note_on_c, 0, 73, 62
1, 196320, Note_on_c, 0, 85, 70
1, 196320, Note_on_c, 0, 56, 47
1, 196320, Note_on_c, 0, 59, 57
1, 196324, Control_c, 0, 64, 0
1, 196380, Control_c, 0, 64, 127
1, 196400, Note_on_c, 0, 63, 51
1, 196401, Note_on_c, 0, 59, 0
1, 196440, Tempo, 1379310
1, 196480, Note_on_c, 0, 63, 0
1, 196480, Note_on_c, 0, 61, 53
1, 196540, Note_on_c, 0, 61, 0
1, 196560, Tempo, 1250000
1, 196560, Note_on_c, 0, 56, 0
1, 196560, Note_on_c, 0, 56, 50
1, 196560, Note_on_c, 0, 59, 60
1, 196563, Control_c, 0, 64, 0
1, 196617, Control_c, 0, 64, 127
1, 196640, Note_on_c, 0, 63, 51
1, 196641, Note_on_c, 0, 59, 0
1, 196680, Tempo, 1333333
1, 196720, Note_on_c, 0, 63, 0
1, 196720, Note_on_c, 0, 61, 51
1, 196780, Note_on_c, 0, 61, 0
1, 196795, Note_on_c, 0, 85, 0
1, 196795, Note_on_c, 0, 73, 0
1, 196800, Tempo, 1290323
1, 196800, Note_on_c, 0, 56, 0
1, 196800, Note_on_c, 0, 73, 63
1, 196800, Note_on_c, 0, 85, 72
1, 196800, Note_on_c, 0, 54, 49
1, 196800, Note_on_c, 0, 58, 58
1, 196810, Control_c, 0, 64, 0
1, 196860, Control_c, 0, 64, 127
1, 196880, Note_on_c, 0, 63, 49
1, 196881, Note_on_c, 0, 58, 0
1, 196960, Note_on_c, 0, 63, 0
1, 196960, Note_on_c, 0, 61, 50
1, 197020, Note_on_c, 0, 61, 0
1, 197040, Tempo, 1318681
1, 197040, Note_on_c, 0, 54, 0
1, 197040, Note_on_c, 0, 53, 49
1, 197040, Note_on_c, 0, 56, 58
1, 197049, Control_c, 0, 64, 0
1, 197114, Control_c, 0, 64, 127
1, 197120, Note_on_c, 0, 61, 53
1, 197121, Note_on_c, 0, 56, 0
1, 197160, Tempo, 1428571
1, 197200, Note_on_c, 0, 85, 0
1, 197200, Note_on_c, 0, 73, 0
1, 197200, Note_on_c, 0, 61, 0
1, 197200, Note_on_c, 0, 71, 45
1, 197200, Note_on_c, 0, 83, 50
1, 197200, Note_on_c, 0, 59, 40
1, 197260, Note_on_c, 0, 59, 0
1, 197280, Tempo, 1290323
1, 197280, Note_on_c, 0, 53, 0
1, 197280, Note_on_c, 0, 71, 0
1, 197280, Note_on_c, 0, 83, 0
1, 197280, Note_on_c, 0, 70, 50
1, 197280, Note_on_c, 0, 82, 50
1, 197280, Note_on_c, 0, 58, 40
1, 197280, Note_on_c, 0, 54, 50
1, 197291, Control_c, 0, 64, 0
1, 197332, Control_c, 0, 64, 127
1, 197360, Note_on_c, 0, 58, 0
1, 197360, Note_on_c, 0, 61, 36
1, 197440, Note_on_c, 0, 61, 0
1, 197440, Note_on_c, 0, 59, 36
1, 197520, Tempo, 1263158
1, 197520, Note_on_c, 0, 59, 0
1, 197520, Note_on_c, 0, 70, 0
1, 197520, Note_on_c, 0, 82, 0
1, 197520, Note_on_c, 0, 70, 40
1, 197520, Note_on_c, 0, 82, 55
1, 197520, Note_on_c, 0, 58, 40
1, 197527, Control_c, 0, 64, 0
1, 197572, Control_c, 0, 64, 127
1, 197600, Note_on_c, 0, 58, 0
1, 197600, Note_on_c, 0, 70, 0
1, 197600, Note_on_c, 0, 80, 40
1, 197600, Note_on_c, 0, 59, 38
1, 197680, Note_on_c, 0, 59, 0
1, 197680, Note_on_c, 0, 80, 0
1, 197680, Note_on_c, 0, 78, 40
1, 197680, Note_on_c, 0, 61, 38
1, 197760, Note_on_c, 0, 61, 0
1, 197760, Note_on_c, 0, 78, 0
1, 197760, Note_on_c, 0, 77, 50
1, 197760, Note_on_c, 0, 63, 40
1, 197764, Control_c, 0, 64, 0
1, 197803, Control_c, 0, 64, 127
1, 197840, Note_on_c, 0, 63, 0
1, 197840, Note_on_c, 0, 77, 0
1, 197840, Note_on_c, 0, 75, 41
1, 197840, Note_on_c, 0, 65, 37
1, 197920, Tempo, 1395349
1, 197920, Note_on_c, 0, 65, 0
1, 197920, Note_on_c, 0, 75, 0
1, 197920, Note_on_c, 0, 73, 43
1, 197920, Note_on_c, 0, 66, 37
1, 198000, Tempo, 1276596
1, 198000, Note_on_c, 0, 66, 0
1, 198000, Note_on_c, 0, 54, 0
1, 198000, Note_on_c, 0, 82, 0
1, 198000, Note_on_c, 0, 73, 0
1, 198000, Note_on_c, 0, 71, 50
1, 198000, Note_on_c, 0, 83, 55
1, 198000, Note_on_c, 0, 68, 40
1, 198000, Note_on_c, 0, 56, 50
1, 198007, Control_c, 0, 64, 0
1, 198049, Control_c, 0, 64, 127
1, 198080, Note_on_c, 0, 71, 0
1, 198080, Note_on_c, 0, 73, 42
1, 198160, Note_on_c, 0, 73, 0
1, 198160, Note_on_c, 0, 70, 42
1, 198240, Tempo, 1200000
1, 198240, Note_on_c, 0, 70, 0
1, 198240, Note_on_c, 0, 71, 50
1, 198246, Control_c, 0, 64, 0
1, 198286, Control_c, 0, 64, 127
1, 198320, Tempo, 1224490
1, 198320, Note_on_c, 0, 71, 0
1, 198320, Note_on_c, 0, 68, 0
1, 198320, Note_on_c, 0, 73, 40
1, 198320, Note_on_c, 0, 66, 36
1, 198400, Note_on_c, 0, 66, 0
1, 198400, Note_on_c, 0, 73, 0
1, 198400, Note_on_c, 0, 75, 40
1, 198400, Note_on_c, 0, 65, 36
1, 198480, Note_on_c, 0, 65, 0
1, 198480, Note_on_c, 0, 75, 0
1, 198480, Note_on_c, 0, 77, 50
1, 198480, Note_on_c, 0, 63, 40
1, 198487, Control_c, 0, 64, 0
1, 198535, Control_c, 0, 64, 127
1, 198560, Note_on_c, 0, 63, 0
1, 198560, Note_on_c, 0, 77, 0
1, 198560, Note_on_c, 0, 78, 41
1, 198560, Note_on_c, 0, 61, 35
1, 198640, Tempo, 1363636
1, 198640, Note_on_c, 0, 61, 0
1, 198640, Note_on_c, 0, 78, 0
1, 198640, Note_on_c, 0, 80, 41
1, 198640, Note_on_c, 0, 59, 35
1, 198720, Tempo, 1290323
1, 198720, Note_on_c, 0, 59, 0
1, 198720, Note_on_c, 0, 56, 0
1, 198720, Note_on_c, 0, 83, 0
1, 198720, Note_on_c, 0, 80, 0
1, 198720, Note_on_c, 0, 73, 50
1, 198720, Note_on_c, 0, 85, 55
1, 198720, Note_on_c, 0, 65, 40
1, 198720, Note_on_c, 0, 58, 50
1, 198731, Control_c, 0, 64, 0
1, 198772, Control_c, 0, 64, 127
1, 198800, Note_on_c, 0, 65, 0
1, 198800, Note_on_c, 0, 66, 36
1, 198880, Note_on_c, 0, 66, 0
1, 198880, Note_on_c, 0, 65, 37
1, 198960, Tempo, 1263158
1, 198960, Note_on_c, 0, 65, 0
1, 198960, Note_on_c, 0, 73, 0
1, 198960, Note_on_c, 0, 85, 0
1, 198960, Note_on_c, 0, 82, 42
1, 198960, Note_on_c, 0, 85, 57
1, 198960, Note_on_c, 0, 61, 42
1, 198967, Control_c, 0, 64, 0
1, 199012, Control_c, 0, 64, 127
1, 199040, Note_on_c, 0, 61, 0
1, 199040, Note_on_c, 0, 82, 0
1, 199040, Note_on_c, 0, 80, 42
1, 199040, Note_on_c, 0, 63, 40
1, 199120, Note_on_c, 0, 63, 0
1, 199120, Note_on_c, 0, 80, 0
1, 199120, Note_on_c, 0, 78, 43
1, 199120, Note_on_c, 0, 64, 41
1, 199200, Note_on_c, 0, 64, 0
1, 199200, Note_on_c, 0, 78, 0
1, 199200, Note_on_c, 0, 76, 55
1, 199200, Note_on_c, 0, 66, 44
1, 199204, Control_c, 0, 64, 0
1, 199243, Control_c, 0, 64, 127
1, 199280, Note_on_c, 0, 66, 0
1, 199280, Note_on_c, 0, 76, 0
1, 199280, Note_on_c, 0, 75, 45
1, 199280, Note_on_c, 0, 68, 41
1, 199360, Tempo, 1395349
1, 199360, Note_on_c, 0, 68, 0
1, 199360, Note_on_c, 0, 75, 0
1, 199360, Note_on_c, 0, 73, 48
1, 199360, Note_on_c, 0, 70, 41
1, 199440, Tempo, 1276596
1, 199440, Note_on_c, 0, 70, 0
1, 199440, Note_on_c, 0, 58, 0
1, 199440, Note_on_c, 0, 85, 0
1, 199440, Note_on_c, 0, 87, 67
1, 199440, Note_on_c, 0, 71, 46
1, 199440, Note_on_c, 0, 59, 57
1, 199447, Control_c, 0, 64, 0
1, 199489, Control_c, 0, 64, 127
1, 199520, Note_on_c, 0, 73, 0
1, 199520, Note_on_c, 0, 75, 48
1, 199600, Note_on_c, 0, 75, 0
1, 199600, Note_on_c, 0, 76, 49
1, 199680, Tempo, 1200000
1, 199680, Note_on_c, 0, 76, 0
1, 199680, Note_on_c, 0, 71, 0
1, 199680, Note_on_c, 0, 75, 60
1, 199680, Note_on_c, 0, 71, 48
1, 199686, Control_c, 0, 64, 0
1, 199726, Control_c, 0, 64, 127
1, 199760, Tempo, 1224490
1, 199760, Note_on_c, 0, 71, 0
1, 199760, Note_on_c, 0, 75, 0
1, 199760, Note_on_c, 0, 77, 48
1, 199760, Note_on_c, 0, 70, 43
1, 199840, Note_on_c, 0, 70, 0
1, 199840, Note_on_c, 0, 77, 0
1, 199840, Note_on_c, 0, 78, 49
1, 199840, Note_on_c, 0, 68, 44
1, 199920, Note_on_c, 0, 68, 0
1, 199920, Note_on_c, 0, 78, 0
1, 199920, Note_on_c, 0, 80, 62
1, 199920, Note_on_c, 0, 66, 50
1, 199927, Control_c, 0, 64, 0
1, 199975, Control_c, 0, 64, 127
1, 200000, Note_on_c, 0, 66, 0
1, 200000, Note_on_c, 0, 80, 0
1, 200000, Note_on_c, 0, 82, 51
1, 200000, Note_on_c, 0, 65, 44
1, 200080, Tempo, 1363636
1, 200080, Note_on_c, 0, 65, 0
1, 200080, Note_on_c, 0, 82, 0
1, 200080, Note_on_c, 0, 83, 52
1, 200080, Note_on_c, 0, 63, 44
1, 200160, Tempo, 1290323
1, 200160, Note_on_c, 0, 63, 0
1, 200160, Note_on_c, 0, 59, 0
1, 200160, Note_on_c, 0, 87, 0
1, 200160, Note_on_c, 0, 89, 71
1, 200160, Note_on_c, 0, 61, 65
1, 200171, Control_c, 0, 64, 0
1, 200212, Control_c, 0, 64, 127
1, 200240, Note_on_c, 0, 83, 0
1, 200240, Note_on_c, 0, 83, 53
1, 200240, Note_on_c, 0, 65, 47
1, 200320, Note_on_c, 0, 65, 0
1, 200320, Note_on_c, 0, 83, 0
1, 200320, Note_on_c, 0, 82, 54
1, 200320, Note_on_c, 0, 66, 47
1, 200400, Tempo, 1263158
1, 200400, Note_on_c, 0, 66, 0
1, 200400, Note_on_c, 0, 82, 0
1, 200400, Note_on_c, 0, 89, 0
1, 200400, Note_on_c, 0, 80, 54
1, 200400, Note_on_c, 0, 68, 54
1, 200407, Control_c, 0, 64, 0
1, 200452, Control_c, 0, 64, 127
1, 200480, Note_on_c, 0, 68, 0
1, 200480, Note_on_c, 0, 80, 0
1, 200480, Note_on_c, 0, 78, 54
1, 200480, Note_on_c, 0, 70, 51
1, 200560, Note_on_c, 0, 70, 0
1, 200560, Note_on_c, 0, 78, 0
1, 200560, Note_on_c, 0, 77, 55
1, 200560, Note_on_c, 0, 71, 52
1, 200640, Note_on_c, 0, 71, 0
1, 200640, Note_on_c, 0, 77, 0
1, 200640, Note_on_c, 0, 61, 0
1, 200640, Note_on_c, 0, 90, 77
1, 200640, Note_on_c, 0, 78, 70
1, 200640, Note_on_c, 0, 63, 70
1, 200640, Note_on_c, 0, 70, 56
1, 200644, Control_c, 0, 64, 0
1, 200683, Control_c, 0, 64, 127
1, 200720, Note_on_c, 0, 70, 0
1, 200720, Note_on_c, 0, 78, 0
1, 200720, Note_on_c, 0, 80, 57
1, 200720, Note_on_c, 0, 68, 52
1, 200800, Tempo, 1395349
1, 200800, Note_on_c, 0, 68, 0
1, 200800, Note_on_c, 0, 80, 0
1, 200800, Note_on_c, 0, 82, 61
1, 200800, Note_on_c, 0, 66, 52
1, 200880, Tempo, 1276596
1, 200880, Note_on_c, 0, 66, 0
1, 200880, Note_on_c, 0, 90, 0
1, 200880, Note_on_c, 0, 63, 0
1, 200880, Note_on_c, 0, 82, 0
1, 200880, Note_on_c, 0, 80, 72
1, 200880, Note_on_c, 0, 92, 84
1, 200880, Note_on_c, 0, 65, 72
1, 200887, Control_c, 0, 64, 0
1, 200929, Control_c, 0, 64, 127
1, 200960, Note_on_c, 0, 80, 0
1, 200960, Note_on_c, 0, 83, 61
1, 200960, Note_on_c, 0, 68, 52
1, 201040, Note_on_c, 0, 68, 0
1, 201040, Note_on_c, 0, 83, 0
1, 201040, Note_on_c, 0, 82, 62
1, 201040, Note_on_c, 0, 70, 53
1, 201120, Tempo, 1200000
1, 201120, Note_on_c, 0, 70, 0
1, 201120, Note_on_c, 0, 82, 0
1, 201120, Note_on_c, 0, 80, 75
1, 201120, Note_on_c, 0, 71, 60
1, 201126, Control_c, 0, 64, 0
1, 201166, Control_c, 0, 64, 127
1, 201200, Tempo, 1224490
1, 201200, Note_on_c, 0, 71, 0
1, 201200, Note_on_c, 0, 80, 0
1, 201200, Note_on_c, 0, 82, 60
1, 201200, Note_on_c, 0, 73, 57
1, 201280, Note_on_c, 0, 73, 0
1, 201280, Note_on_c, 0, 82, 0
1, 201280, Note_on_c, 0, 83, 61
1, 201280, Note_on_c, 0, 75, 58
1, 201360, Note_on_c, 0, 75, 0
1, 201360, Note_on_c, 0, 92, 0
1, 201360, Note_on_c, 0, 65, 0
1, 201360, Note_on_c, 0, 83, 0
1, 201360, Note_on_c, 0, 94, 91
1, 201360, Note_on_c, 0, 82, 77
1, 201360, Note_on_c, 0, 66, 77
1, 201360, Note_on_c, 0, 73, 62
1, 201367, Control_c, 0, 64, 0
1, 201415, Control_c, 0, 64, 127
1, 201440, Note_on_c, 0, 73, 0
1, 201440, Note_on_c, 0, 82, 0
1, 201440, Note_on_c, 0, 83, 63
1, 201440, Note_on_c, 0, 71, 57
1, 201520, Tempo, 1363636
1, 201520, Note_on_c, 0, 71, 0
1, 201520, Note_on_c, 0, 83, 0
1, 201520, Note_on_c, 0, 85, 64
1, 201520, Note_on_c, 0, 70, 58
1, 201600, Tempo, 1276596
1, 201600, Note_on_c, 0, 70, 0
1, 201600, Note_on_c, 0, 94, 0
1, 201600, Note_on_c, 0, 66, 0
1, 201600, Note_on_c, 0, 95, 96
1, 201600, Note_on_c, 0, 76, 58
1, 201600, Note_on_c, 0, 68, 72
1, 201607, Control_c, 0, 64, 0
1, 201649, Control_c, 0, 64, 127
1, 201680, Note_on_c, 0, 76, 0
1, 201680, Note_on_c, 0, 85, 0
1, 201680, Note_on_c, 0, 82, 61
1, 201680, Note_on_c, 0, 73, 52
1, 201760, Note_on_c, 0, 73, 0
1, 201760, Note_on_c, 0, 82, 0
1, 201760, Note_on_c, 0, 83, 62
1, 201760, Note_on_c, 0, 75, 53
1, 201840, Tempo, 1200000
1, 201840, Note_on_c, 0, 75, 0
1, 201840, Note_on_c, 0, 68, 0
1, 201840, Note_on_c, 0, 95, 0
1, 201840, Note_on_c, 0, 83, 0
1, 201840, Note_on_c, 0, 85, 74
1, 201840, Note_on_c, 0, 79, 63
1, 201840, Note_on_c, 0, 70, 61
1, 201840, Note_on_c, 0, 76, 51
1, 201846, Control_c, 0, 64, 0
1, 201886, Control_c, 0, 64, 127
1, 201920, Tempo, 1224490
1, 201920, Note_on_c, 0, 76, 0
1, 201920, Note_on_c, 0, 79, 0
1, 201920, Note_on_c, 0, 78, 51
1, 201920, Note_on_c, 0, 58, 48
1, 201920, Note_on_c, 0, 66, 48
1, 202000, Note_on_c, 0, 66, 0
1, 202000, Note_on_c, 0, 78, 0
1, 202000, Note_on_c, 0, 76, 51
1, 202000, Note_on_c, 0, 67, 49
1, 202080, Note_on_c, 0, 67, 0
1, 202080, Note_on_c, 0, 85, 0
1, 202080, Note_on_c, 0, 58, 0
1, 202080, Note_on_c, 0, 70, 0
1, 202080, Note_on_c, 0, 76, 0
1, 202080, Note_on_c, 0, 87, 70
1, 202080, Note_on_c, 0, 75, 65
1, 202080, Note_on_c, 0, 59, 65
1, 202080, Note_on_c, 0, 66, 52
1, 202087, Control_c, 0, 64, 0
1, 202135, Control_c, 0, 64, 127
1, 202160, Note_on_c, 0, 66, 0
1, 202160, Note_on_c, 0, 75, 0
1, 202160, Note_on_c, 0, 76, 53
1, 202160, Note_on_c, 0, 64, 48
1, 202240, Tempo, 1363636
1, 202240, Note_on_c, 0, 64, 0
1, 202240, Note_on_c, 0, 76, 0
1, 202240, Note_on_c, 0, 78, 54
1, 202240, Note_on_c, 0, 63, 52
1, 202320, Tempo, 1276596
1, 202320, Note_on_c, 0, 63, 0
1, 202320, Note_on_c, 0, 87, 0
1, 202320, Note_on_c, 0, 59, 0
1, 202320, Note_on_c, 0, 81, 70
1, 202320, Note_on_c, 0, 63, 48
1, 202320, Note_on_c, 0, 60, 52
1, 202325, Control_c, 0, 64, 0
1, 202360, Control_c, 0, 64, 127
1, 202400, Note_on_c, 0, 63, 0
1, 202400, Note_on_c, 0, 78, 0
1, 202400, Note_on_c, 0, 77, 48
1, 202400, Note_on_c, 0, 65, 47
1, 202480, Note_on_c, 0, 65, 0
1, 202480, Note_on_c, 0, 77, 0
1, 202480, Note_on_c, 0, 75, 47
1, 202480, Note_on_c, 0, 66, 39
1, 202560, Tempo, 1318681
1, 202560, Note_on_c, 0, 66, 0
1, 202560, Note_on_c, 0, 75, 0
1, 202560, Note_on_c, 0, 72, 52
1, 202560, Note_on_c, 0, 69, 45
1, 202568, Control_c, 0, 64, 0
1, 202597, Control_c, 0, 64, 127
1, 202640, Note_on_c, 0, 69, 0
1, 202640, Note_on_c, 0, 72, 0
1, 202640, Note_on_c, 0, 73, 46
1, 202640, Note_on_c, 0, 68, 38
1, 202720, Note_on_c, 0, 68, 0
1, 202720, Note_on_c, 0, 73, 0
1, 202720, Note_on_c, 0, 75, 45
1, 202720, Note_on_c, 0, 66, 37
1, 202800, Tempo, 1363636
1, 202800, Note_on_c, 0, 66, 0
1, 202800, Note_on_c, 0, 60, 0
1, 202800, Note_on_c, 0, 81, 0
1, 202800, Note_on_c, 0, 75, 0
1, 202800, Note_on_c, 0, 77, 47
1, 202800, Note_on_c, 0, 80, 58
1, 202800, Note_on_c, 0, 61, 43
1, 202800, Note_on_c, 0, 59, 38
1, 202807, Control_c, 0, 64, 0
1, 202808, Tempo, 1318681
1, 202837, Control_c, 0, 64, 127
1, 202846, Tempo, 1333333
1, 202880, Note_on_c, 0, 61, 0
1, 202880, Note_on_c, 0, 77, 0
1, 202880, Note_on_c, 0, 74, 44
1, 202880, Note_on_c, 0, 65, 36
1, 202885, Tempo, 1348315
1, 202904, Tempo, 1363636
1, 202942, Tempo, 1379310
1, 202960, Note_on_c, 0, 65, 0
1, 202960, Note_on_c, 0, 74, 0
1, 202960, Note_on_c, 0, 73, 43
1, 202960, Note_on_c, 0, 68, 35
1, 202961, Tempo, 1395349
1, 203000, Tempo, 1411765
1, 203019, Tempo, 1428571
1, 203040, Note_on_c, 0, 68, 0
1, 203040, Note_on_c, 0, 59, 0
1, 203040, Note_on_c, 0, 80, 0
1, 203040, Note_on_c, 0, 73, 0
1, 203040, Note_on_c, 0, 76, 51
1, 203040, Note_on_c, 0, 79, 51
1, 203040, Note_on_c, 0, 85, 61
1, 203040, Note_on_c, 0, 70, 39
1, 203040, Note_on_c, 0, 73, 46
1, 203043, Control_c, 0, 64, 0
1, 203174, Control_c, 0, 64, 127
1, 203520, Note_on_c, 0, 76, 0
1, 203520, Note_on_c, 0, 75, 51
1, 203760, Note_on_c, 0, 75, 0
1, 203760, Note_on_c, 0, 73, 0
1, 203760, Note_on_c, 0, 79, 0
1, 203760, Note_on_c, 0, 85, 0
1, 203760, Note_on_c, 0, 70, 0
1, 203760, Note_on_c, 0, 87, 52
1, 203760, Note_on_c, 0, 82, 44
1, 203760, Note_on_c, 0, 75, 44
1, 203760, Note_on_c, 0, 67, 32
1, 203760, Note_on_c, 0, 70, 38
1, 203774, Control_c, 0, 64, 0
1, 203934, Control_c, 0, 64, 127
1, 204240, Note_on_c, 0, 70, 0
1, 204240, Note_on_c, 0, 75, 0
1, 204240, Note_on_c, 0, 87, 0
1, 204240, Note_on_c, 0, 82, 0
1, 204240, Note_on_c, 0, 67, 0
1, 204240, Note_on_c, 0, 73, 43
1, 204240, Note_on_c, 0, 75, 43
1, 204240, Note_on_c, 0, 82, 51
1, 204240, Note_on_c, 0, 63, 26
1, 204240, Note_on_c, 0, 67, 31
1, 204480, Tempo, 1428571
1, 204480, Note_on_c, 0, 67, 0
1, 204480, Note_on_c, 0, 82, 0
1, 204480, Note_on_c, 0, 73, 0
1, 204480, Note_on_c, 0, 75, 0
1, 204480, Note_on_c, 0, 63, 0
1, 204480, Note_on_c, 0, 73, 51
1, 204480, Note_on_c, 0, 85, 61
1, 204480, Note_on_c, 0, 70, 41
1, 204507, Control_c, 0, 64, 0
1, 204540, Control_c, 0, 64, 127
1, 204600, Note_on_c, 0, 70, 0
1, 204600, Note_on_c, 0, 85, 0
1, 204600, Note_on_c, 0, 73, 0
1, 204600, Note_on_c, 0, 70, 48
1, 204600, Note_on_c, 0, 82, 57
1, 204600, Note_on_c, 0, 67, 37
1, 204720, Tempo, 1379310
1, 204720, Note_on_c, 0, 67, 0
1, 204720, Note_on_c, 0, 82, 0
1, 204720, Note_on_c, 0, 70, 0
1, 204720, Note_on_c, 0, 83, 74
1, 204720, Note_on_c, 0, 71, 62
1, 204720, Note_on_c, 0, 56, 36
1, 204720, Note_on_c, 0, 68, 46
1, 204840, Tempo, 1463415
1, 204840, Note_on_c, 0, 68, 0
1, 204840, Note_on_c, 0, 83, 0
1, 204840, Note_on_c, 0, 71, 0
1, 204840, Note_on_c, 0, 75, 60
1, 204840, Note_on_c, 0, 87, 71
1, 204840, Note_on_c, 0, 63, 37
1, 204960, Tempo, 1395349
1, 204960, Note_on_c, 0, 63, 0
1, 204960, Note_on_c, 0, 56, 0
1, 204960, Note_on_c, 0, 75, 0
1, 204960, Note_on_c, 0, 87, 0
1, 204960, Note_on_c, 0, 94, 79
1, 204960, Note_on_c, 0, 82, 67
1, 204960, Note_on_c, 0, 47, 49
1, 204960, Note_on_c, 0, 61, 49
1, 204974, Control_c, 0, 64, 0
1, 205024, Control_c, 0, 64, 127
1, 205080, Tempo, 1500000
1, 205080, Note_on_c, 0, 61, 0
1, 205080, Note_on_c, 0, 94, 0
1, 205080, Note_on_c, 0, 82, 0
1, 205080, Note_on_c, 0, 92, 73
1, 205080, Note_on_c, 0, 80, 62
1, 205080, Note_on_c, 0, 59, 47
1, 205200, Tempo, 1379310
1, 205200, Note_on_c, 0, 59, 0
1, 205200, Note_on_c, 0, 47, 0
1, 205200, Note_on_c, 0, 49, 45
1, 205200, Note_on_c, 0, 58, 54
1, 205209, Control_c, 0, 64, 0
1, 205274, Control_c, 0, 64, 127
1, 205320, Note_on_c, 0, 80, 0
1, 205320, Note_on_c, 0, 92, 0
1, 205320, Note_on_c, 0, 90, 72
1, 205320, Note_on_c, 0, 78, 61
1, 205440, Tempo, 1333333
1, 205440, Note_on_c, 0, 49, 0
1, 205440, Note_on_c, 0, 58, 0
1, 205440, Note_on_c, 0, 37, 36
1, 205440, Note_on_c, 0, 46, 43
1, 205446, Control_c, 0, 64, 0
1, 205490, Control_c, 0, 64, 127
1, 205560, Note_on_c, 0, 46, 0
1, 205560, Note_on_c, 0, 78, 0
1, 205560, Note_on_c, 0, 90, 0
1, 205560, Note_on_c, 0, 37, 0
1, 205560, Note_on_c, 0, 66, 56
1, 205560, Note_on_c, 0, 70, 56
1, 205560, Note_on_c, 0, 78, 67
1, 205560, Note_on_c, 0, 37, 33
1, 205560, Note_on_c, 0, 49, 46
1, 205680, Tempo, 1348315
1, 205680, Note_on_c, 0, 78, 0
1, 205680, Note_on_c, 0, 66, 0
1, 205680, Note_on_c, 0, 70, 0
1, 205680, Note_on_c, 0, 65, 58
1, 205680, Note_on_c, 0, 77, 69
1, 205680, Note_on_c, 0, 68, 58
1, 205685, Control_c, 0, 64, 0
1, 205740, Note_on_c, 0, 37, 0
1, 205740, Note_on_c, 0, 49, 0
1, 205740, Note_on_c, 0, 35, 45
1, 205740, Note_on_c, 0, 47, 53
1, 205800, Tempo, 1764706
1, 205800, Note_on_c, 0, 47, 0
1, 205800, Note_on_c, 0, 77, 0
1, 205800, Note_on_c, 0, 68, 0
1, 205800, Note_on_c, 0, 65, 0
1, 205800, Note_on_c, 0, 35, 0
1, 205800, Note_on_c, 0, 73, 64
1, 205800, Note_on_c, 0, 64, 64
1, 205800, Note_on_c, 0, 76, 76
1, 205800, Note_on_c, 0, 67, 64
1, 205800, Note_on_c, 0, 34, 46
1, 205800, Note_on_c, 0, 46, 55
1, 205800, Control_c, 0, 64, 127
1, 205860, Note_on_c, 0, 46, 0
1, 205860, Note_on_c, 0, 34, 0
1, 205860, Note_on_c, 0, 35, 48
1, 205860, Note_on_c, 0, 47, 57
1, 205920, Tempo, 1263158
1, 205920, Note_on_c, 0, 47, 0
1, 205920, Note_on_c, 0, 64, 0
1, 205920, Note_on_c, 0, 67, 0
1, 205920, Note_on_c, 0, 73, 0
1, 205920, Note_on_c, 0, 35, 0
1, 205920, Note_on_c, 0, 76, 0
1, 205920, Note_on_c, 0, 64, 46
1, 205920, Note_on_c, 0, 67, 46
1, 205920, Note_on_c, 0, 73, 46
1, 205920, Note_on_c, 0, 76, 55
1, 205920, Note_on_c, 0, 34, 52
1, 205920, Control_c, 0, 64, 0
1, 205955, Control_c, 0, 64, 127
1, 205980, Note_on_c, 0, 34, 0
1, 205980, Note_on_c, 0, 37, 44
1, 206040, Note_on_c, 0, 37, 0
1, 206040, Note_on_c, 0, 40, 43
1, 206100, Note_on_c, 0, 40, 0
1, 206100, Note_on_c, 0, 43, 42
1, 206160, Note_on_c, 0, 43, 0
1, 206160, Note_on_c, 0, 46, 41
1, 206170, Tempo, 1263158
1, 206220, Note_on_c, 0, 46, 0
1, 206220, Note_on_c, 0, 49, 40
1, 206280, Note_on_c, 0, 49, 0
1, 206280, Note_on_c, 0, 52, 39
1, 206285, Tempo, 1276596
1, 206340, Note_on_c, 0, 52, 0
1, 206340, Note_on_c, 0, 55, 38
1, 206381, Tempo, 1290323
1, 206400, Note_on_c, 0, 55, 0
1, 206400, Note_on_c, 0, 76, 0
1, 206400, Note_on_c, 0, 64, 0
1, 206400, Note_on_c, 0, 67, 0
1, 206400, Note_on_c, 0, 73, 0
1, 206400, Note_on_c, 0, 73, 40
1, 206400, Note_on_c, 0, 76, 51
1, 206400, Note_on_c, 0, 58, 36
1, 206400, Note_on_c, 0, 61, 36
1, 206411, Control_c, 0, 64, 0
1, 206443, Control_c, 0, 64, 127
1, 206460, Note_on_c, 0, 61, 0
1, 206460, Note_on_c, 0, 58, 0
1, 206460, Note_on_c, 0, 73, 0
1, 206460, Note_on_c, 0, 67, 40
1, 206460, Note_on_c, 0, 64, 27
1, 206477, Tempo, 1304348
1, 206520, Note_on_c, 0, 64, 0
1, 206520, Note_on_c, 0, 67, 0
1, 206520, Note_on_c, 0, 76, 0
1, 206520, Note_on_c, 0, 75, 40
1, 206520, Note_on_c, 0, 71, 40
1, 206520, Note_on_c, 0, 59, 27
1, 206525, Control_c, 0, 64, 0
1, 206549, Control_c, 0, 64, 127
1, 206573, Tempo, 1318681
1, 206580, Tempo, 1578947
1, 206580, Note_on_c, 0, 59, 0
1, 206580, Note_on_c, 0, 71, 0
1, 206580, Note_on_c, 0, 66, 40
1, 206580, Note_on_c, 0, 63, 27
1, 206640, Tempo, 1333333
1, 206640, Note_on_c, 0, 63, 0
1, 206640, Note_on_c, 0, 66, 0
1, 206640, Note_on_c, 0, 75, 0
1, 206640, Note_on_c, 0, 62, 29
1, 206640, Note_on_c, 0, 66, 29
1, 206640, Note_on_c, 0, 70, 29
1, 206640, Note_on_c, 0, 74, 34
1, 206640, Note_on_c, 0, 47, 22
1, 206640, Note_on_c, 0, 59, 26
1, 206646, Control_c, 0, 64, 0
1, 206669, Tempo, 1333333
1, 206695, Control_c, 0, 64, 127
1, 207120, Note_on_c, 0, 59, 0
1, 207120, Note_on_c, 0, 66, 0
1, 207120, Note_on_c, 0, 70, 0
1, 207120, Note_on_c, 0, 62, 0
1, 207120, Note_on_c, 0, 47, 0
1, 207120, Note_on_c, 0, 74, 0
1, 207180, Control_c, 0, 64, 0
1, 207300, Tempo, 1250000
1, 207360, Tempo, 1250000
1, 207360, Note_on_c, 0, 66, 51
1, 207360, Note_on_c, 0, 70, 51
1, 207360, Note_on_c, 0, 73, 61
1, 207360, Note_on_c, 0, 61, 51
1, 207360, Note_on_c, 0, 37, 39
1, 207383, Control_c, 0, 64, 127
1, 207440, Note_on_c, 0, 37, 0
1, 207440, Note_on_c, 0, 42, 34
1, 207520, Note_on_c, 0, 42, 0
1, 207520, Note_on_c, 0, 46, 34
1, 207600, Note_on_c, 0, 46, 0
1, 207600, Note_on_c, 0, 49, 31
1, 207680, Note_on_c, 0, 49, 0
1, 207680, Note_on_c, 0, 54, 31
1, 207760, Note_on_c, 0, 54, 0
1, 207760, Note_on_c, 0, 58, 31
1, 207840, Tempo, 1318681
1, 207840, Note_on_c, 0, 58, 0
1, 207840, Note_on_c, 0, 61, 0
1, 207840, Note_on_c, 0, 66, 0
1, 207840, Note_on_c, 0, 70, 0
1, 207840, Note_on_c, 0, 70, 40
1, 207840, Note_on_c, 0, 49, 39
1, 207840, Note_on_c, 0, 54, 38
1, 207846, Control_c, 0, 64, 0
1, 207869, Control_c, 0, 64, 127
1, 207900, Note_on_c, 0, 54, 0
1, 207900, Note_on_c, 0, 70, 0
1, 207900, Note_on_c, 0, 66, 40
1, 207900, Note_on_c, 0, 58, 34
1, 207960, Tempo, 1463415
1, 207960, Note_on_c, 0, 58, 0
1, 207960, Note_on_c, 0, 73, 0
1, 207960, Note_on_c, 0, 49, 0
1, 207960, Note_on_c, 0, 66, 0
1, 207960, Note_on_c, 0, 69, 40
1, 207960, Note_on_c, 0, 72, 40
1, 207960, Note_on_c, 0, 51, 28
1, 207960, Note_on_c, 0, 54, 34
1, 207965, Control_c, 0, 64, 0
1, 207997, Control_c, 0, 64, 127
1, 208020, Tempo, 1643836
1, 208020, Note_on_c, 0, 54, 0
1, 208020, Note_on_c, 0, 69, 0
1, 208020, Note_on_c, 0, 66, 40
1, 208020, Note_on_c, 0, 57, 34
1, 208080, Tempo, 1333333
1, 208080, Note_on_c, 0, 57, 0
1, 208080, Note_on_c, 0, 72, 0
1, 208080, Note_on_c, 0, 51, 0
1, 208080, Note_on_c, 0, 66, 0
1, 208080, Note_on_c, 0, 65, 40
1, 208080, Note_on_c, 0, 71, 48
1, 208080, Note_on_c, 0, 68, 40
1, 208080, Note_on_c, 0, 62, 40
1, 208080, Note_on_c, 0, 50, 32
1, 208080, Note_on_c, 0, 53, 32
1, 208080, Note_on_c, 0, 56, 32
1, 208080, Note_on_c, 0, 59, 38
1, 208087, Control_c, 0, 64, 0
1, 208183, Control_c, 0, 64, 127
1, 208320, Tempo, 1290323
1, 208320, Note_on_c, 0, 59, 0
1, 208320, Note_on_c, 0, 65, 0
1, 208320, Note_on_c, 0, 50, 0
1, 208320, Note_on_c, 0, 71, 0
1, 208320, Note_on_c, 0, 68, 0
1, 208320, Note_on_c, 0, 62, 0
1, 208320, Note_on_c, 0, 53, 0
1, 208320, Note_on_c, 0, 56, 0
1, 208320, Note_on_c, 0, 50, 25
1, 208320, Note_on_c, 0, 53, 25
1, 208320, Note_on_c, 0, 56, 25
1, 208320, Note_on_c, 0, 59, 30
1, 208680, Note_on_c, 0, 59, 0
1, 208680, Note_on_c, 0, 50, 0
1, 208680, Note_on_c, 0, 53, 0
1, 208680, Note_on_c, 0, 56, 0
1, 208680, Note_on_c, 0, 51, 22
1, 208680, Note_on_c, 0, 55, 22
1, 208680, Note_on_c, 0, 58, 27
1, 208683, Control_c, 0, 64, 0
1, 208800, Note_on_c, 0, 58, 0
1, 208800, Note_on_c, 0, 55, 0
1, 208800, Note_on_c, 0, 51, 0
1, 208800, Note_on_c, 0, 51, 25
1, 208800, Note_on_c, 0, 55, 25
1, 208800, Note_on_c, 0, 58, 30
1, 208880, Control_c, 0, 64, 127
1, 209275, Note_on_c, 0, 58, 0
1, 209275, Note_on_c, 0, 55, 0
1, 209275, Note_on_c, 0, 51, 0
1, 209280, Tempo, 1276596
1, 209280, Note_on_c, 0, 51, 22
1, 209280, Note_on_c, 0, 55, 22
1, 209280, Note_on_c, 0, 58, 22
1, 209280, Note_on_c, 0, 63, 27
1, 209518, Note_on_c, 0, 63, 0
1, 209518, Note_on_c, 0, 51, 0
1, 209518, Note_on_c, 0, 55, 0
1, 209518, Note_on_c, 0, 58, 0
1, 209520, Tempo, 1318681
1, 209520, Note_on_c, 0, 67, 38
1, 209520, Note_on_c, 0, 70, 45
1, 209520, Note_on_c, 0, 51, 25
1, 209520, Note_on_c, 0, 55, 25
1, 209520, Note_on_c, 0, 58, 25
1, 209520, Note_on_c, 0, 63, 30
1, 209995, Note_on_c, 0, 63, 0
1, 209995, Note_on_c, 0, 70, 0
1, 209995, Note_on_c, 0, 51, 0
1, 209995, Note_on_c, 0, 67, 0
1, 209995, Note_on_c, 0, 58, 0
1, 209995, Note_on_c, 0, 55, 0
1, 210000, Tempo, 1304348
1, 210000, Note_on_c, 0, 67, 36
1, 210000, Note_on_c, 0, 70, 36
1, 210000, Note_on_c, 0, 75, 42
1, 210000, Note_on_c, 0, 51, 22
1, 210000, Note_on_c, 0, 55, 22
1, 210000, Note_on_c, 0, 58, 22
1, 210000, Note_on_c, 0, 63, 27
1, 210238, Note_on_c, 0, 63, 0
1, 210238, Note_on_c, 0, 55, 0
1, 210238, Note_on_c, 0, 51, 0
1, 210238, Note_on_c, 0, 58, 0
1, 210240, Tempo, 1290323
1, 210240, Note_on_c, 0, 67, 0
1, 210240, Note_on_c, 0, 75, 0
1, 210240, Note_on_c, 0, 70, 0
1, 210240, Note_on_c, 0, 67, 38
1, 210240, Note_on_c, 0, 63, 38
1, 210240, Note_on_c, 0, 70, 38
1, 210240, Note_on_c, 0, 75, 45
1, 210240, Note_on_c, 0, 39, 25
1, 210240, Note_on_c, 0, 51, 30
1, 210480, Tempo, 1348315
1, 210480, Note_on_c, 0, 51, 0
1, 210480, Note_on_c, 0, 39, 0
1, 210480, Note_on_c, 0, 34, 25
1, 210480, Note_on_c, 0, 46, 30
1, 210720, Tempo, 1304348
1, 210720, Note_on_c, 0, 70, 0
1, 210720, Note_on_c, 0, 75, 0
1, 210720, Note_on_c, 0, 67, 0
1, 210720, Note_on_c, 0, 63, 0
1, 210720, Note_on_c, 0, 63, 36
1, 210720, Note_on_c, 0, 75, 44
1, 210720, Note_on_c, 0, 67, 36
1, 210960, Tempo, 1276596
1, 210960, Note_on_c, 0, 67, 0
1, 210960, Note_on_c, 0, 63, 0
1, 210960, Note_on_c, 0, 34, 0
1, 210960, Note_on_c, 0, 46, 0
1, 210960, Note_on_c, 0, 75, 0
1, 210960, Note_on_c, 0, 63, 38
1, 210960, Note_on_c, 0, 66, 38
1, 210960, Note_on_c, 0, 75, 45
1, 210960, Note_on_c, 0, 35, 25
1, 210960, Note_on_c, 0, 47, 30
1, 210973, Control_c, 0, 64, 0
1, 211200, Tempo, 1348315
1, 211200, Note_on_c, 0, 47, 0
1, 211200, Note_on_c, 0, 75, 0
1, 211200, Note_on_c, 0, 63, 0
1, 211200, Note_on_c, 0, 66, 0
1, 211200, Note_on_c, 0, 35, 0
1, 211200, Note_on_c, 0, 61, 35
1, 211200, Note_on_c, 0, 73, 41
1, 211200, Note_on_c, 0, 65, 35
1, 211200, Note_on_c, 0, 37, 21
1, 211200, Note_on_c, 0, 49, 25
1, 211440, Tempo, 1395349
1, 211680, Tempo, 1333333
1, 211680, Note_on_c, 0, 49, 0
1, 211680, Note_on_c, 0, 65, 0
1, 211680, Note_on_c, 0, 61, 0
1, 211680, Note_on_c, 0, 73, 0
1, 211680, Note_on_c, 0, 37, 0
1, 211680, Note_on_c, 0, 61, 35
1, 211680, Note_on_c, 0, 66, 35
1, 211680, Note_on_c, 0, 70, 35
1, 211680, Note_on_c, 0, 73, 41
1, 211680, Note_on_c, 0, 30, 20
1, 211680, Note_on_c, 0, 42, 24
1, 211774, Control_c, 0, 64, 127
1, 212160, Note_on_c, 0, 42, 0
1, 212160, Note_on_c, 0, 66, 0
1, 212160, Note_on_c, 0, 70, 0
1, 212160, Note_on_c, 0, 61, 0
1, 212160, Note_on_c, 0, 30, 0
1, 212160, Note_on_c, 0, 73, 0
1, 212160, Note_on_c, 0, 70, 33
1, 212160, Note_on_c, 0, 58, 22
1, 212400, Note_on_c, 0, 58, 0
1, 212400, Note_on_c, 0, 70, 0
1, 212400, Note_on_c, 0, 61, 42
1, 212400, Note_on_c, 0, 49, 24
1, 212880, Tempo, 1481481
1, 212880, Note_on_c, 0, 49, 0
1, 212880, Note_on_c, 0, 61, 0
1, 212880, Note_on_c, 0, 73, 36
1, 212880, Note_on_c, 0, 61, 21
1, 213120, Tempo, 1318681
1, 213120, Note_on_c, 0, 61, 0
1, 213120, Note_on_c, 0, 73, 0
1, 213120, Note_on_c, 0, 70, 40
1, 213120, Note_on_c, 0, 58, 24
1, 213600, Note_on_c, 0, 58, 0
1, 213600, Note_on_c, 0, 70, 0
1, 213600, Note_on_c, 0, 82, 59
1, 213600, Note_on_c, 0, 73, 49
1, 213600, Note_on_c, 0, 70, 49
1, 213600, Note_on_c, 0, 37, 28
1, 213600, Note_on_c, 0, 49, 34
1, 213612, Control_c, 0, 64, 0
1, 213840, Note_on_c, 0, 70, 0
1, 213840, Note_on_c, 0, 82, 0
1, 213840, Note_on_c, 0, 73, 0
1, 213840, Note_on_c, 0, 68, 53
1, 213840, Note_on_c, 0, 80, 63
1, 213840, Note_on_c, 0, 71, 53
1, 214080, Note_on_c, 0, 37, 0
1, 214080, Note_on_c, 0, 49, 0
1, 214080, Note_on_c, 0, 39, 27
1, 214080, Note_on_c, 0, 51, 40
1, 214080, Control_c, 0, 64, 127
1, 214200, Note_on_c, 0, 51, 0
1, 214200, Note_on_c, 0, 39, 0
1, 214200, Note_on_c, 0, 37, 27
1, 214200, Note_on_c, 0, 49, 40
1, 214320, Note_on_c, 0, 49, 0
1, 214320, Note_on_c, 0, 71, 0
1, 214320, Note_on_c, 0, 80, 0
1, 214320, Note_on_c, 0, 68, 0
1, 214320, Note_on_c, 0, 37, 0
1, 214320, Note_on_c, 0, 73, 51
1, 214320, Note_on_c, 0, 71, 43
1, 214320, Note_on_c, 0, 68, 43
1, 214320, Note_on_c, 0, 61, 43
1, 214320, Note_on_c, 0, 51, 29
1, 214320, Note_on_c, 0, 49, 29
1, 214320, Note_on_c, 0, 39, 29
1, 214333, Control_c, 0, 64, 0
1, 214440, Note_on_c, 0, 39, 0
1, 214440, Note_on_c, 0, 51, 0
1, 214440, Note_on_c, 0, 49, 0
1, 214440, Note_on_c, 0, 41, 29
1, 214440, Note_on_c, 0, 49, 29
1, 214440, Note_on_c, 0, 53, 29
1, 214560, Tempo, 1333333
1, 214560, Note_on_c, 0, 53, 0
1, 214560, Note_on_c, 0, 41, 0
1, 214560, Note_on_c, 0, 71, 0
1, 214560, Note_on_c, 0, 61, 0
1, 214560, Note_on_c, 0, 73, 0
1, 214560, Note_on_c, 0, 49, 0
1, 214560, Note_on_c, 0, 68, 0
1, 214560, Note_on_c, 0, 73, 54
1, 214560, Note_on_c, 0, 61, 45
1, 214560, Note_on_c, 0, 70, 45
1, 214560, Note_on_c, 0, 49, 30
1, 214560, Note_on_c, 0, 42, 30
1, 214560, Note_on_c, 0, 54, 36
1, 214654, Control_c, 0, 64, 127
1, 215040, Note_on_c, 0, 54, 0
1, 215040, Note_on_c, 0, 61, 0
1, 215040, Note_on_c, 0, 70, 0
1, 215040, Note_on_c, 0, 73, 0
1, 215040, Note_on_c, 0, 42, 0
1, 215040, Note_on_c, 0, 49, 0
1, 215040, Note_on_c, 0, 82, 51
1, 215040, Note_on_c, 0, 70, 33
1, 215280, Note_on_c, 0, 70, 0
1, 215280, Note_on_c, 0, 82, 0
1, 215280, Note_on_c, 0, 73, 50
1, 215280, Note_on_c, 0, 61, 37
1, 215760, Tempo, 1428571
1, 215760, Note_on_c, 0, 61, 0
1, 215760, Note_on_c, 0, 73, 0
1, 215760, Note_on_c, 0, 85, 58
1, 215760, Note_on_c, 0, 73, 49
1, 215760, Note_on_c, 0, 34, 28
1, 215760, Note_on_c, 0, 46, 34
1, 216000, Tempo, 1318681
1, 216000, Note_on_c, 0, 46, 0
1, 216000, Note_on_c, 0, 85, 0
1, 216000, Note_on_c, 0, 73, 0
1, 216000, Note_on_c, 0, 34, 0
1, 216000, Note_on_c, 0, 70, 54
1, 216000, Note_on_c, 0, 82, 64
1, 216000, Note_on_c, 0, 37, 34
1, 216000, Note_on_c, 0, 49, 40
1, 216014, Control_c, 0, 64, 0
1, 216078, Control_c, 0, 64, 127
1, 216240, Tempo, 1348315
1, 216240, Note_on_c, 0, 49, 0
1, 216240, Note_on_c, 0, 37, 0
1, 216240, Note_on_c, 0, 49, 28
1, 216240, Note_on_c, 0, 61, 34
1, 216480, Note_on_c, 0, 61, 0
1, 216480, Note_on_c, 0, 70, 0
1, 216480, Note_on_c, 0, 82, 0
1, 216480, Note_on_c, 0, 49, 0
1, 216480, Note_on_c, 0, 73, 52
1, 216480, Note_on_c, 0, 85, 62
1, 216480, Note_on_c, 0, 46, 30
1, 216480, Note_on_c, 0, 49, 30
1, 216480, Note_on_c, 0, 58, 36
1, 216720, Note_on_c, 0, 58, 0
1, 216720, Note_on_c, 0, 46, 0
1, 216720, Note_on_c, 0, 49, 0
1, 216720, Note_on_c, 0, 44, 36
1, 216720, Note_on_c, 0, 49, 36
1, 216720, Note_on_c, 0, 56, 43
1, 216748, Control_c, 0, 64, 0
1, 216840, Control_c, 0, 64, 127
1, 216960, Tempo, 1363636
1, 216960, Note_on_c, 0, 85, 0
1, 216960, Note_on_c, 0, 73, 0
1, 216960, Note_on_c, 0, 85, 56
1, 216960, Note_on_c, 0, 75, 56
1, 216960, Note_on_c, 0, 87, 67
1, 216972, Control_c, 0, 64, 0
1, 217045, Control_c, 0, 64, 127
1, 217080, Note_on_c, 0, 85, 0
1, 217080, Note_on_c, 0, 83, 61
1, 217200, Tempo, 1379310
1, 217200, Note_on_c, 0, 83, 0
1, 217200, Note_on_c, 0, 87, 0
1, 217200, Note_on_c, 0, 49, 0
1, 217200, Note_on_c, 0, 56, 0
1, 217200, Note_on_c, 0, 44, 0
1, 217200, Note_on_c, 0, 75, 0
1, 217200, Note_on_c, 0, 82, 67
1, 217200, Note_on_c, 0, 89, 67
1, 217200, Note_on_c, 0, 77, 56
1, 217200, Note_on_c, 0, 37, 34
1, 217200, Note_on_c, 0, 49, 40
1, 217212, Control_c, 0, 64, 0
1, 217285, Control_c, 0, 64, 127
1, 217320, Tempo, 1500000
1, 217320, Note_on_c, 0, 82, 0
1, 217320, Note_on_c, 0, 83, 60
1, 217440, Tempo, 1500000
1, 217440, Note_on_c, 0, 83, 0
1, 217440, Note_on_c, 0, 49, 0
1, 217440, Note_on_c, 0, 89, 0
1, 217440, Note_on_c, 0, 77, 0
1, 217440, Note_on_c, 0, 37, 0
1, 217440, Note_on_c, 0, 82, 56
1, 217440, Note_on_c, 0, 90, 67
1, 217440, Note_on_c, 0, 78, 56
1, 217440, Note_on_c, 0, 42, 36
1, 217440, Note_on_c, 0, 49, 36
1, 217440, Note_on_c, 0, 54, 43
1, 217440, Control_c, 0, 64, 0
1, 217680, Control_c, 0, 64, 127
1, 218160, Note_on_c, 0, 54, 0
1, 218160, Note_on_c, 0, 90, 0
1, 218160, Note_on_c, 0, 78, 0
1, 218160, Note_on_c, 0, 82, 0
1, 218160, Note_on_c, 0, 49, 0
1, 218160, Note_on_c, 0, 42, 0
1, 218160, Note_on_c, 0, 80, 48
1, 218160, Note_on_c, 0, 89, 48
1, 218160, Note_on_c, 0, 92, 57
1, 218160, Note_on_c, 0, 37, 28
1, 218160, Note_on_c, 0, 49, 33
1, 218640, Tempo, 1714286
1, 218640, Note_on_c, 0, 85, 52
1, 218880, Tempo, 1578947
1, 218880, Note_on_c, 0, 85, 0
1, 218880, Note_on_c, 0, 89, 0
1, 218880, Note_on_c, 0, 92, 0
1, 218880, Note_on_c, 0, 80, 0
1, 218880, Note_on_c, 0, 49, 0
1, 218880, Note_on_c, 0, 37, 0
1, 218880, Note_on_c, 0, 94, 43
1, 218880, Note_on_c, 0, 90, 36
1, 218880, Note_on_c, 0, 85, 36
1, 218880, Note_on_c, 0, 82, 36
1, 218880, Note_on_c, 0, 30, 22
1, 218880, Note_on_c, 0, 42, 26
1, 219360, Tempo, 1500000
1, 219360, Note_on_c, 0, 42, 0
1, 219360, Note_on_c, 0, 90, 0
1, 219360, Note_on_c, 0, 85, 0
1, 219360, Note_on_c, 0, 94, 0
1, 219360, Note_on_c, 0, 30, 0
1, 219360, Note_on_c, 0, 82, 0
1, 219360, Note_on_c, 0, 70, 36
1, 219360, Note_on_c, 0, 73, 36
1, 219360, Note_on_c, 0, 82, 43
1, 219360, Note_on_c, 0, 42, 22
1, 219360, Note_on_c, 0, 54, 26
1, 219360, Control_c, 0, 64, 0
1, 219412, Control_c, 0, 64, 127
1, 219598, Note_on_c, 0, 54, 0
1, 219598, Note_on_c, 0, 82, 0
1, 219598, Note_on_c, 0, 70, 0
1, 219598, Note_on_c, 0, 73, 0
1, 219598, Note_on_c, 0, 42, 0
1, 219600, Note_on_c, 0, 85, 60
1, 219600, Note_on_c, 0, 82, 51
1, 219600, Note_on_c, 0, 73, 51
1, 219600, Note_on_c, 0, 42, 25
1, 219600, Note_on_c, 0, 54, 29
1, 219960, Note_on_c, 0, 73, 0
1, 219960, Note_on_c, 0, 85, 0
1, 219960, Note_on_c, 0, 82, 0
1, 219960, Note_on_c, 0, 86, 67
1, 219960, Note_on_c, 0, 83, 57
1, 219960, Note_on_c, 0, 74, 57
1, 219968, Control_c, 0, 64, 0
1, 220003, Control_c, 0, 64, 127
1, 220080, Tempo, 1621622
1, 220080, Note_on_c, 0, 74, 0
1, 220080, Note_on_c, 0, 86, 0
1, 220080, Note_on_c, 0, 54, 0
1, 220080, Note_on_c, 0, 42, 0
1, 220080, Note_on_c, 0, 83, 0
1, 220080, Note_on_c, 0, 88, 72
1, 220080, Note_on_c, 0, 85, 60
1, 220080, Note_on_c, 0, 76, 60
1, 220080, Note_on_c, 0, 42, 36
1, 220080, Note_on_c, 0, 54, 43
1, 220094, Control_c, 0, 64, 0
1, 220120, Control_c, 0, 64, 127
1, 220200, Note_on_c, 0, 76, 0
1, 220200, Note_on_c, 0, 88, 0
1, 220200, Note_on_c, 0, 85, 0
1, 220200, Note_on_c, 0, 90, 56
1, 220200, Note_on_c, 0, 86, 47
1, 220200, Note_on_c, 0, 78, 47
1, 220260, Tempo, 2142857
1, 220260, Note_on_c, 0, 42, 0
1, 220260, Note_on_c, 0, 54, 0
1, 220260, Note_on_c, 0, 40, 31
1, 220260, Note_on_c, 0, 52, 36
1, 220319, Note_on_c, 0, 86, 0
1, 220319, Note_on_c, 0, 78, 0
1, 220319, Note_on_c, 0, 90, 0
1, 220320, Tempo, 1500000
1, 220320, Note_on_c, 0, 40, 0
1, 220320, Note_on_c, 0, 52, 0
1, 220320, Note_on_c, 0, 90, 51
1, 220320, Note_on_c, 0, 78, 43
1, 220320, Note_on_c, 0, 38, 28
1, 220320, Note_on_c, 0, 50, 33
1, 220320, Control_c, 0, 64, 0
1, 220435, Control_c, 0, 64, 127
1, 220800, Tempo, 1445783
1, 220800, Note_on_c, 0, 78, 0
1, 220800, Note_on_c, 0, 90, 0
1, 220800, Note_on_c, 0, 86, 40
1, 220800, Note_on_c, 0, 74, 34
1, 221036, Note_on_c, 0, 74, 0
1, 221036, Note_on_c, 0, 86, 0
1, 221040, Tempo, 1463415
1, 221040, Note_on_c, 0, 38, 0
1, 221040, Note_on_c, 0, 50, 0
1, 221040, Note_on_c, 0, 86, 46
1, 221040, Note_on_c, 0, 74, 39
1, 221040, Note_on_c, 0, 42, 25
1, 221040, Note_on_c, 0, 54, 30
1, 221052, Control_c, 0, 64, 0
1, 221212, Control_c, 0, 64, 127
1, 221280, Note_on_c, 0, 74, 0
1, 221280, Note_on_c, 0, 86, 0
1, 221280, Note_on_c, 0, 83, 43
1, 221280, Note_on_c, 0, 71, 36
1, 221520, Tempo, 1714286
1, 221520, Note_on_c, 0, 71, 0
1, 221520, Note_on_c, 0, 83, 0
1, 221520, Note_on_c, 0, 73, 36
1, 221520, Note_on_c, 0, 85, 43
1, 221532, Control_c, 0, 64, 0
1, 221657, Control_c, 0, 64, 127
1, 221760, Tempo, 1558442
1, 221760, Note_on_c, 0, 85, 0
1, 221760, Note_on_c, 0, 54, 0
1, 221760, Note_on_c, 0, 42, 0
1, 221760, Note_on_c, 0, 73, 0
1, 221760, Note_on_c, 0, 74, 39
1, 221760, Note_on_c, 0, 86, 47
1, 221760, Note_on_c, 0, 47, 26
1, 221760, Note_on_c, 0, 59, 31
1, 221787, Control_c, 0, 64, 0
1, 221852, Control_c, 0, 64, 127
1, 222240, Note_on_c, 0, 59, 0
1, 222240, Note_on_c, 0, 74, 0
1, 222240, Note_on_c, 0, 86, 0
1, 222240, Note_on_c, 0, 47, 0
1, 222280, Control_c, 0, 64, 0
1, 222720, Note_on_c, 0, 47, 26
1, 222720, Note_on_c, 0, 59, 31
1, 222749, Control_c, 0, 64, 127
1, 222960, Note_on_c, 0, 59, 0
1, 222960, Note_on_c, 0, 47, 0
1, 222960, Note_on_c, 0, 43, 22
1, 222960, Note_on_c, 0, 55, 26
1, 223080, Note_on_c, 0, 55, 0
1, 223080, Note_on_c, 0, 43, 0
1, 223080, Note_on_c, 0, 38, 22
1, 223080, Note_on_c, 0, 50, 26
1, 223197, Note_on_c, 0, 50, 0
1, 223197, Note_on_c, 0, 38, 0
1, 223200, Note_on_c, 0, 71, 39
1, 223200, Note_on_c, 0, 83, 47
1, 223200, Note_on_c, 0, 38, 26
1, 223200, Note_on_c, 0, 50, 31
1, 223203, Control_c, 0, 64, 0
1, 223349, Control_c, 0, 64, 127
1, 223680, Tempo, 1445783
1, 223680, Note_on_c, 0, 50, 0
1, 223680, Note_on_c, 0, 38, 0
1, 223680, Note_on_c, 0, 35, 22
1, 223680, Note_on_c, 0, 47, 26
1, 223886, Control_c, 0, 64, 0
1, 223918, Note_on_c, 0, 47, 0
1, 223918, Note_on_c, 0, 35, 0
1, 223920, Note_on_c, 0, 83, 0
1, 223920, Note_on_c, 0, 71, 0
1, 223920, Note_on_c, 0, 74, 39
1, 223920, Note_on_c, 0, 86, 47
1, 223920, Note_on_c, 0, 35, 26
1, 223920, Note_on_c, 0, 47, 31
1, 224000, Control_c, 0, 64, 127
1, 224160, Note_on_c, 0, 47, 0
1, 224160, Note_on_c, 0, 35, 0
1, 224160, Note_on_c, 0, 31, 22
1, 224160, Note_on_c, 0, 43, 27
1, 224400, Note_on_c, 0, 43, 0
1, 224400, Note_on_c, 0, 31, 0
1, 224400, Note_on_c, 0, 33, 22
1, 224400, Note_on_c, 0, 45, 27
1, 224403, Control_c, 0, 64, 0
1, 224492, Control_c, 0, 64, 127
1, 224520, Tempo, 1714286
1, 224640, Key_signature, 1, "major"
1, 224640, Tempo, 1463415
1, 224640, Note_on_c, 0, 45, 0
1, 224640, Note_on_c, 0, 74, 0
1, 224640, Note_on_c, 0, 86, 0
1, 224640, Note_on_c, 0, 33, 0
1, 224640, Note_on_c, 0, 91, 80
1, 224640, Note_on_c, 0, 79, 67
1, 224640, Note_on_c, 0, 35, 46
1, 224640, Note_on_c, 0, 47, 55
1, 224654, Control_c, 0, 64, 0
1, 224767, Control_c, 0, 64, 127
1, 224880, Note_on_c, 0, 47, 0
1, 224880, Note_on_c, 0, 35, 0
1, 224880, Note_on_c, 0, 47, 49
1, 224880, Note_on_c, 0, 55, 58
1, 225120, Note_on_c, 0, 55, 0
1, 225120, Note_on_c, 0, 47, 0
1, 225120, Note_on_c, 0, 48, 52
1, 225120, Note_on_c, 0, 57, 62
1, 225360, Tempo, 1500000
1, 225360, Note_on_c, 0, 57, 0
1, 225360, Note_on_c, 0, 48, 0
1, 225360, Note_on_c, 0, 50, 54
1, 225360, Note_on_c, 0, 59, 65
1, 225365, Control_c, 0, 64, 0
1, 225438, Control_c, 0, 64, 127
1, 225600, Tempo, 1518987
1, 225600, Note_on_c, 0, 59, 0
1, 225600, Note_on_c, 0, 91, 0
1, 225600, Note_on_c, 0, 79, 0
1, 225600, Note_on_c, 0, 50, 0
1, 225600, Note_on_c, 0, 71, 45
1, 225600, Note_on_c, 0, 74, 54
1, 225600, Note_on_c, 0, 59, 45
1, 225600, Note_on_c, 0, 55, 38
1, 225612, Control_c, 0, 64, 0
1, 225678, Control_c, 0, 64, 127
1, 225720, Tempo, 1379310
1, 225840, Tempo, 1445783
1, 225840, Note_on_c, 0, 55, 0
1, 225840, Note_on_c, 0, 71, 0
1, 225840, Note_on_c, 0, 74, 0
1, 225840, Note_on_c, 0, 59, 0
1, 225840, Note_on_c, 0, 66, 44
1, 225840, Note_on_c, 0, 72, 52
1, 225840, Note_on_c, 0, 50, 33
1, 225840, Note_on_c, 0, 60, 39
1, 225840, Note_on_c, 0, 57, 33
1, 225843, Control_c, 0, 64, 0
1, 225911, Control_c, 0, 64, 127
1, 225960, Tempo, 1764706
1, 225960, Note_on_c, 0, 57, 0
1, 225960, Note_on_c, 0, 50, 0
1, 225960, Note_on_c, 0, 66, 0
1, 225960, Note_on_c, 0, 72, 0
1, 225960, Note_on_c, 0, 60, 0
1, 225960, Note_on_c, 0, 67, 40
1, 225960, Note_on_c, 0, 71, 47
1, 225960, Note_on_c, 0, 59, 34
1, 225960, Note_on_c, 0, 55, 28
1, 226080, Tempo, 1333333
1, 226080, Note_on_c, 0, 55, 0
1, 226080, Note_on_c, 0, 67, 0
1, 226080, Note_on_c, 0, 71, 0
1, 226080, Note_on_c, 0, 59, 0
1, 226080, Note_on_c, 0, 67, 43
1, 226080, Note_on_c, 0, 71, 51
1, 226080, Note_on_c, 0, 55, 36
1, 226080, Note_on_c, 0, 59, 42
1, 226080, Control_c, 0, 64, 0
1, 226154, Control_c, 0, 64, 127
1, 226161, Note_on_c, 0, 59, 0
1, 226161, Note_on_c, 0, 64, 37
1, 226240, Note_on_c, 0, 62, 37
1, 226241, Note_on_c, 0, 64, 0
1, 226320, Tempo, 1304348
1, 226320, Note_on_c, 0, 67, 0
1, 226320, Note_on_c, 0, 71, 0
1, 226320, Note_on_c, 0, 62, 0
1, 226320, Note_on_c, 0, 61, 42
1, 226328, Control_c, 0, 64, 0
1, 226366, Control_c, 0, 64, 127
1, 226400, Note_on_c, 0, 64, 38
1, 226401, Note_on_c, 0, 61, 0
1, 226480, Note_on_c, 0, 64, 0
1, 226480, Note_on_c, 0, 62, 38
1, 226540, Note_on_c, 0, 62, 0
1, 226560, Note_on_c, 0, 43, 58
1, 226560, Note_on_c, 0, 59, 42
1, 226564, Control_c, 0, 64, 0
1, 226620, Control_c, 0, 64, 127
1, 226641, Note_on_c, 0, 59, 0
1, 226641, Note_on_c, 0, 64, 37
1, 226680, Tempo, 1363636
1, 226720, Note_on_c, 0, 62, 37
1, 226721, Note_on_c, 0, 64, 0
1, 226780, Note_on_c, 0, 62, 0
1, 226800, Tempo, 1318681
1, 226800, Note_on_c, 0, 61, 42
1, 226803, Control_c, 0, 64, 0
1, 226857, Control_c, 0, 64, 127
1, 226880, Note_on_c, 0, 64, 37
1, 226881, Note_on_c, 0, 61, 0
1, 226960, Note_on_c, 0, 64, 0
1, 226960, Note_on_c, 0, 62, 37
1, 227020, Note_on_c, 0, 62, 0
1, 227035, Note_on_c, 0, 43, 0
1, 227040, Note_on_c, 0, 43, 58
1, 227040, Note_on_c, 0, 59, 42
1, 227050, Control_c, 0, 64, 0
1, 227100, Control_c, 0, 64, 127
1, 227121, Note_on_c, 0, 59, 0
1, 227121, Note_on_c, 0, 64, 38
1, 227200, Note_on_c, 0, 62, 38
1, 227201, Note_on_c, 0, 64, 0
1, 227260, Note_on_c, 0, 62, 0
1, 227278, Note_on_c, 0, 43, 0
1, 227280, Tempo, 1379310
1, 227280, Note_on_c, 0, 55, 0
1, 227280, Note_on_c, 0, 43, 56
1, 227280, Note_on_c, 0, 55, 36
1, 227280, Note_on_c, 0, 59, 42
1, 227289, Control_c, 0, 64, 0
1, 227354, Control_c, 0, 64, 127
1, 227360, Note_on_c, 0, 43, 0
1, 227360, Note_on_c, 0, 42, 50
1, 227360, Note_on_c, 0, 63, 38
1, 227361, Note_on_c, 0, 59, 0
1, 227400, Tempo, 1500000
1, 227440, Note_on_c, 0, 63, 0
1, 227440, Note_on_c, 0, 42, 0
1, 227440, Note_on_c, 0, 43, 50
1, 227440, Note_on_c, 0, 62, 38
1, 227500, Note_on_c, 0, 62, 0
1, 227500, Note_on_c, 0, 43, 0
1, 227520, Tempo, 1318681
1, 227520, Note_on_c, 0, 55, 0
1, 227520, Note_on_c, 0, 38, 52
1, 227520, Note_on_c, 0, 54, 36
1, 227520, Note_on_c, 0, 57, 42
1, 227520, Control_c, 0, 64, 0
1, 227594, Control_c, 0, 64, 127
1, 227600, Note_on_c, 0, 64, 37
1, 227601, Note_on_c, 0, 57, 0
1, 227680, Note_on_c, 0, 64, 0
1, 227680, Note_on_c, 0, 62, 37
1, 227740, Note_on_c, 0, 62, 0
1, 227760, Tempo, 1276596
1, 227760, Note_on_c, 0, 54, 0
1, 227760, Note_on_c, 0, 55, 36
1, 227760, Note_on_c, 0, 59, 42
1, 227768, Control_c, 0, 64, 0
1, 227806, Control_c, 0, 64, 127
1, 227840, Note_on_c, 0, 64, 38
1, 227841, Note_on_c, 0, 59, 0
1, 227920, Note_on_c, 0, 64, 0
1, 227920, Note_on_c, 0, 62, 38
1, 227980, Note_on_c, 0, 62, 0
1, 227995, Note_on_c, 0, 38, 0
1, 228000, Tempo, 1224490
1, 228000, Note_on_c, 0, 55, 0
1, 228000, Note_on_c, 0, 38, 52
1, 228000, Note_on_c, 0, 57, 38
1, 228000, Note_on_c, 0, 60, 46
1, 228004, Control_c, 0, 64, 0
1, 228060, Control_c, 0, 64, 127
1, 228080, Note_on_c, 0, 64, 40
1, 228081, Note_on_c, 0, 60, 0
1, 228120, Tempo, 1445783
1, 228160, Note_on_c, 0, 64, 0
1, 228160, Note_on_c, 0, 62, 40
1, 228220, Note_on_c, 0, 62, 0
1, 228240, Tempo, 1250000
1, 228240, Note_on_c, 0, 57, 0
1, 228240, Note_on_c, 0, 57, 38
1, 228240, Note_on_c, 0, 60, 45
1, 228243, Control_c, 0, 64, 0
1, 228297, Control_c, 0, 64, 127
1, 228320, Note_on_c, 0, 64, 38
1, 228321, Note_on_c, 0, 60, 0
1, 228360, Tempo, 1333333
1, 228400, Note_on_c, 0, 64, 0
1, 228400, Note_on_c, 0, 62, 38
1, 228460, Note_on_c, 0, 62, 0
1, 228475, Note_on_c, 0, 38, 0
1, 228480, Tempo, 1290323
1, 228480, Note_on_c, 0, 57, 0
1, 228480, Note_on_c, 0, 38, 52
1, 228480, Note_on_c, 0, 55, 36
1, 228480, Note_on_c, 0, 59, 42
1, 228490, Control_c, 0, 64, 0
1, 228540, Control_c, 0, 64, 127
1, 228560, Note_on_c, 0, 64, 36
1, 228561, Note_on_c, 0, 59, 0
1, 228640, Note_on_c, 0, 64, 0
1, 228640, Note_on_c, 0, 62, 36
1, 228700, Note_on_c, 0, 62, 0
1, 228720, Note_on_c, 0, 55, 0
1, 228720, Note_on_c, 0, 54, 35
1, 228720, Note_on_c, 0, 58, 41
1, 228729, Control_c, 0, 64, 0
1, 228794, Control_c, 0, 64, 127
1, 228800, Note_on_c, 0, 58, 0
1, 228800, Note_on_c, 0, 64, 38
1, 228840, Tempo, 1428571
1, 228880, Note_on_c, 0, 64, 0
1, 228880, Note_on_c, 0, 62, 38
1, 228940, Note_on_c, 0, 62, 0
1, 228960, Tempo, 1333333
1, 228960, Note_on_c, 0, 54, 0
1, 228960, Note_on_c, 0, 38, 0
1, 228960, Note_on_c, 0, 35, 48
1, 228960, Note_on_c, 0, 55, 36
1, 228960, Note_on_c, 0, 59, 42
1, 228960, Control_c, 0, 64, 0
1, 229009, Control_c, 0, 64, 127
1, 229041, Note_on_c, 0, 59, 0
1, 229041, Note_on_c, 0, 64, 37
1, 229120, Note_on_c, 0, 62, 37
1, 229121, Note_on_c, 0, 64, 0
1, 229200, Tempo, 1304348
1, 229200, Note_on_c, 0, 62, 0
1, 229200, Note_on_c, 0, 35, 0
1, 229200, Note_on_c, 0, 61, 43
1, 229208, Control_c, 0, 64, 0
1, 229246, Control_c, 0, 64, 127
1, 229280, Note_on_c, 0, 64, 38
1, 229281, Note_on_c, 0, 61, 0
1, 229320, Tempo, 1379310
1, 229360, Note_on_c, 0, 64, 0
1, 229360, Note_on_c, 0, 62, 39
1, 229420, Note_on_c, 0, 62, 0
1, 229440, Tempo, 1318681
1, 229440, Note_on_c, 0, 91, 67
1, 229440, Note_on_c, 0, 79, 59
1, 229440, Note_on_c, 0, 59, 44
1, 229444, Control_c, 0, 64, 0
1, 229500, Control_c, 0, 64, 127
1, 229521, Note_on_c, 0, 59, 0
1, 229521, Note_on_c, 0, 64, 38
1, 229600, Note_on_c, 0, 62, 39
1, 229601, Note_on_c, 0, 64, 0
1, 229660, Note_on_c, 0, 62, 0
1, 229680, Tempo, 1318681
1, 229680, Note_on_c, 0, 61, 46
1, 229683, Control_c, 0, 64, 0
1, 229737, Control_c, 0, 64, 127
1, 229760, Note_on_c, 0, 64, 39
1, 229761, Note_on_c, 0, 61, 0
1, 229840, Note_on_c, 0, 64, 0
1, 229840, Note_on_c, 0, 62, 40
1, 229900, Note_on_c, 0, 62, 0
1, 229915, Note_on_c, 0, 79, 0
1, 229915, Note_on_c, 0, 91, 0
1, 229920, Note_on_c, 0, 79, 59
1, 229920, Note_on_c, 0, 91, 67
1, 229920, Note_on_c, 0, 59, 47
1, 229930, Control_c, 0, 64, 0
1, 229980, Control_c, 0, 64, 127
1, 230001, Note_on_c, 0, 59, 0
1, 230001, Note_on_c, 0, 64, 42
1, 230080, Note_on_c, 0, 62, 42
1, 230081, Note_on_c, 0, 64, 0
1, 230140, Note_on_c, 0, 62, 0
1, 230158, Note_on_c, 0, 91, 0
1, 230158, Note_on_c, 0, 79, 0
1, 230160, Tempo, 1290323
1, 230160, Note_on_c, 0, 55, 0
1, 230160, Note_on_c, 0, 91, 65
1, 230160, Note_on_c, 0, 79, 57
1, 230160, Note_on_c, 0, 55, 40
1, 230160, Note_on_c, 0, 59, 48
1, 230169, Control_c, 0, 64, 0
1, 230234, Control_c, 0, 64, 127
1, 230240, Note_on_c, 0, 78, 51
1, 230240, Note_on_c, 0, 90, 58
1, 230240, Note_on_c, 0, 63, 43
1, 230241, Note_on_c, 0, 59, 0
1, 230241, Note_on_c, 0, 79, 0
1, 230241, Note_on_c, 0, 91, 0
1, 230280, Tempo, 1379310
1, 230320, Note_on_c, 0, 78, 0
1, 230320, Note_on_c, 0, 90, 0
1, 230320, Note_on_c, 0, 63, 0
1, 230320, Note_on_c, 0, 79, 46
1, 230320, Note_on_c, 0, 91, 55
1, 230320, Note_on_c, 0, 62, 43
1, 230380, Note_on_c, 0, 62, 0
1, 230380, Note_on_c, 0, 91, 0
1, 230400, Tempo, 1318681
1, 230400, Note_on_c, 0, 79, 0
1, 230400, Note_on_c, 0, 55, 0
1, 230400, Note_on_c, 0, 86, 67
1, 230400, Note_on_c, 0, 74, 59
1, 230400, Note_on_c, 0, 54, 41
1, 230400, Note_on_c, 0, 57, 50
1, 230400, Control_c, 0, 64, 0
1, 230446, Control_c, 0, 64, 127
1, 230480, Note_on_c, 0, 64, 43
1, 230481, Note_on_c, 0, 57, 0
1, 230560, Note_on_c, 0, 64, 0
1, 230560, Note_on_c, 0, 62, 43
1, 230620, Note_on_c, 0, 62, 0
1, 230640, Tempo, 1290323
1, 230640, Note_on_c, 0, 54, 0
1, 230640, Note_on_c, 0, 55, 42
1, 230640, Note_on_c, 0, 59, 51
1, 230648, Control_c, 0, 64, 0
1, 230686, Control_c, 0, 64, 127
1, 230720, Note_on_c, 0, 64, 45
1, 230721, Note_on_c, 0, 59, 0
1, 230800, Note_on_c, 0, 64, 0
1, 230800, Note_on_c, 0, 62, 46
1, 230860, Note_on_c, 0, 62, 0
1, 230875, Note_on_c, 0, 74, 0
1, 230875, Note_on_c, 0, 86, 0
1, 230880, Tempo, 1263158
1, 230880, Note_on_c, 0, 55, 0
1, 230880, Note_on_c, 0, 74, 62
1, 230880, Note_on_c, 0, 86, 70
1, 230880, Note_on_c, 0, 57, 47
1, 230880, Note_on_c, 0, 60, 57
1, 230884, Control_c, 0, 64, 0
1, 230940, Control_c, 0, 64, 127
1, 230960, Note_on_c, 0, 64, 50
1, 230961, Note_on_c, 0, 60, 0
1, 231000, Tempo, 1379310
1, 231040, Note_on_c, 0, 64, 0
1, 231040, Note_on_c, 0, 62, 51
1, 231100, Note_on_c, 0, 62, 0
1, 231120, Tempo, 1250000
1, 231120, Note_on_c, 0, 57, 0
1, 231120, Note_on_c, 0, 57, 47
1, 231120, Note_on_c, 0, 60, 57
1, 231123, Control_c, 0, 64, 0
1, 231177, Control_c, 0, 64, 127
1, 231200, Note_on_c, 0, 64, 48
1, 231201, Note_on_c, 0, 60, 0
1, 231240, Tempo, 1333333
1, 231280, Note_on_c, 0, 64, 0
1, 231280, Note_on_c, 0, 62, 48
1, 231340, Note_on_c, 0, 62, 0
1, 231355, Note_on_c, 0, 86, 0
1, 231355, Note_on_c, 0, 74, 0
1, 231360, Tempo, 1290323
1, 231360, Note_on_c, 0, 57, 0
1, 231360, Note_on_c, 0, 74, 63
1, 231360, Note_on_c, 0, 86, 72
1, 231360, Note_on_c, 0, 55, 46
1, 231360, Note_on_c, 0, 59, 55
1, 231370, Control_c, 0, 64, 0
1, 231420, Control_c, 0, 64, 127
1, 231440, Note_on_c, 0, 64, 46
1, 231441, Note_on_c, 0, 59, 0
1, 231520, Note_on_c, 0, 64, 0
1, 231520, Note_on_c, 0, 62, 47
1, 231580, Note_on_c, 0, 62, 0
1, 231600, Tempo, 1318681
1, 231600, Note_on_c, 0, 55, 0
1, 231600, Note_on_c, 0, 54, 46
1, 231600, Note_on_c, 0, 58, 55
1, 231609, Control_c, 0, 64, 0
1, 231674, Control_c, 0, 64, 127
1, 231680, Note_on_c, 0, 58, 0
1, 231680, Note_on_c, 0, 64, 50
1, 231720, Tempo, 1428571
1, 231760, Note_on_c, 0, 64, 0
1, 231760, Note_on_c, 0, 62, 38
1, 231820, Note_on_c, 0, 62, 0
1, 231835, Note_on_c, 0, 74, 0
1, 231835, Note_on_c, 0, 86, 0
1, 231840, Tempo, 1318681
1, 231840, Note_on_c, 0, 54, 0
1, 231840, Note_on_c, 0, 86, 73
1, 231840, Note_on_c, 0, 74, 64
1, 231840, Note_on_c, 0, 54, 45
1, 231840, Note_on_c, 0, 58, 55
1, 231840, Control_c, 0, 64, 0
1, 231886, Control_c, 0, 64, 127
1, 231920, Note_on_c, 0, 58, 0
1, 231920, Note_on_c, 0, 64, 50
1, 232000, Note_on_c, 0, 64, 0
1, 232000, Note_on_c, 0, 62, 51
1, 232060, Note_on_c, 0, 62, 0
1, 232080, Tempo, 1290323
1, 232080, Note_on_c, 0, 54, 0
1, 232080, Note_on_c, 0, 55, 50
1, 232080, Note_on_c, 0, 59, 60
1, 232088, Control_c, 0, 64, 0
1, 232126, Control_c, 0, 64, 127
1, 232160, Note_on_c, 0, 64, 54
1, 232161, Note_on_c, 0, 59, 0
1, 232240, Note_on_c, 0, 64, 0
1, 232240, Note_on_c, 0, 62, 55
1, 232300, Note_on_c, 0, 62, 0
1, 232315, Note_on_c, 0, 74, 0
1, 232315, Note_on_c, 0, 86, 0
1, 232320, Tempo, 1263158
1, 232320, Note_on_c, 0, 55, 0
1, 232320, Note_on_c, 0, 74, 71
1, 232320, Note_on_c, 0, 86, 80
1, 232320, Note_on_c, 0, 56, 57
1, 232320, Note_on_c, 0, 59, 69
1, 232324, Control_c, 0, 64, 0
1, 232380, Control_c, 0, 64, 127
1, 232400, Note_on_c, 0, 64, 61
1, 232401, Note_on_c, 0, 59, 0
1, 232440, Tempo, 1379310
1, 232480, Note_on_c, 0, 64, 0
1, 232480, Note_on_c, 0, 62, 63
1, 232540, Note_on_c, 0, 62, 0
1, 232560, Tempo, 1250000
1, 232560, Note_on_c, 0, 56, 0
1, 232560, Note_on_c, 0, 56, 59
1, 232560, Note_on_c, 0, 59, 70
1, 232563, Control_c, 0, 64, 0
1, 232617, Control_c, 0, 64, 127
1, 232640, Note_on_c, 0, 59, 0
1, 232640, Note_on_c, 0, 64, 60
1, 232680, Tempo, 1333333
1, 232720, Note_on_c, 0, 64, 0
1, 232720, Note_on_c, 0, 62, 61
1, 232780, Note_on_c, 0, 62, 0
1, 232795, Note_on_c, 0, 74, 0
1, 232795, Note_on_c, 0, 86, 0
1, 232800, Tempo, 1318681
1, 232800, Note_on_c, 0, 56, 0
1, 232800, Note_on_c, 0, 74, 75
1, 232800, Note_on_c, 0, 86, 84
1, 232800, Note_on_c, 0, 56, 54
1, 232800, Note_on_c, 0, 59, 60
1, 232810, Control_c, 0, 64, 0
1, 232860, Control_c, 0, 64, 127
1, 232880, Note_on_c, 0, 65, 54
1, 232881, Note_on_c, 0, 59, 0
1, 232960, Note_on_c, 0, 65, 0
1, 232960, Note_on_c, 0, 62, 55
1, 233020, Note_on_c, 0, 62, 0
1, 233040, Tempo, 1395349
1, 233040, Note_on_c, 0, 56, 0
1, 233040, Note_on_c, 0, 56, 53
1, 233040, Note_on_c, 0, 59, 63
1, 233049, Control_c, 0, 64, 0
1, 233114, Control_c, 0, 64, 127
1, 233120, Note_on_c, 0, 86, 0
1, 233120, Note_on_c, 0, 74, 0
1, 233120, Note_on_c, 0, 73, 63
1, 233120, Note_on_c, 0, 85, 72
1, 233120, Note_on_c, 0, 65, 57
1, 233121, Note_on_c, 0, 59, 0
1, 233160, Tempo, 1379310
1, 233200, Note_on_c, 0, 85, 0
1, 233200, Note_on_c, 0, 65, 0
1, 233200, Note_on_c, 0, 73, 0
1, 233200, Note_on_c, 0, 74, 64
1, 233200, Note_on_c, 0, 86, 73
1, 233200, Note_on_c, 0, 62, 57
1, 233220, Tempo, 1538462
1, 233260, Note_on_c, 0, 62, 0
1, 233278, Note_on_c, 0, 86, 0
1, 233278, Note_on_c, 0, 74, 0
1, 233280, Tempo, 1318681
1, 233280, Note_on_c, 0, 56, 0
1, 233280, Note_on_c, 0, 78, 74
1, 233280, Note_on_c, 0, 86, 85
1, 233280, Note_on_c, 0, 74, 74
1, 233280, Note_on_c, 0, 57, 55
1, 233280, Note_on_c, 0, 62, 67
1, 233280, Control_c, 0, 64, 0
1, 233326, Control_c, 0, 64, 127
1, 233360, Note_on_c, 0, 62, 0
1, 233360, Note_on_c, 0, 66, 58
1, 233440, Note_on_c, 0, 66, 0
1, 233440, Note_on_c, 0, 64, 59
1, 233500, Note_on_c, 0, 64, 0
1, 233520, Tempo, 1290323
1, 233520, Note_on_c, 0, 57, 0
1, 233520, Note_on_c, 0, 58, 58
1, 233520, Note_on_c, 0, 62, 70
1, 233528, Control_c, 0, 64, 0
1, 233566, Control_c, 0, 64, 127
1, 233600, Note_on_c, 0, 66, 62
1, 233601, Note_on_c, 0, 62, 0
1, 233680, Note_on_c, 0, 66, 0
1, 233680, Note_on_c, 0, 64, 64
1, 233740, Note_on_c, 0, 64, 0
1, 233755, Note_on_c, 0, 78, 0
1, 233755, Note_on_c, 0, 74, 0
1, 233755, Note_on_c, 0, 86, 0
1, 233760, Tempo, 1263158
1, 233760, Note_on_c, 0, 58, 0
1, 233760, Note_on_c, 0, 78, 82
1, 233760, Note_on_c, 0, 74, 82
1, 233760, Note_on_c, 0, 86, 93
1, 233760, Note_on_c, 0, 59, 66
1, 233760, Note_on_c, 0, 62, 79
1, 233764, Control_c, 0, 64, 0
1, 233820, Control_c, 0, 64, 127
1, 233840, Note_on_c, 0, 66, 71
1, 233841, Note_on_c, 0, 62, 0
1, 233880, Tempo, 1379310
1, 233920, Note_on_c, 0, 66, 0
1, 233920, Note_on_c, 0, 64, 72
1, 233980, Note_on_c, 0, 64, 0
1, 234000, Tempo, 1250000
1, 234000, Note_on_c, 0, 59, 0
1, 234000, Note_on_c, 0, 59, 68
1, 234000, Note_on_c, 0, 62, 81
1, 234003, Control_c, 0, 64, 0
1, 234057, Control_c, 0, 64, 127
1, 234080, Note_on_c, 0, 62, 0
1, 234080, Note_on_c, 0, 66, 69
1, 234120, Tempo, 1333333
1, 234160, Note_on_c, 0, 66, 0
1, 234160, Note_on_c, 0, 64, 70
1, 234220, Note_on_c, 0, 64, 0
1, 234235, Note_on_c, 0, 86, 0
1, 234235, Note_on_c, 0, 78, 0
1, 234235, Note_on_c, 0, 74, 0
1, 234240, Tempo, 1318681
1, 234240, Note_on_c, 0, 59, 0
1, 234240, Note_on_c, 0, 78, 86
1, 234240, Note_on_c, 0, 90, 97
1, 234240, Note_on_c, 0, 59, 62
1, 234240, Note_on_c, 0, 62, 69
1, 234250, Control_c, 0, 64, 0
1, 234300, Control_c, 0, 64, 127
1, 234320, Note_on_c, 0, 66, 63
1, 234321, Note_on_c, 0, 62, 0
1, 234400, Note_on_c, 0, 66, 0
1, 234400, Note_on_c, 0, 64, 63
1, 234460, Note_on_c, 0, 64, 0
1, 234480, Tempo, 1333333
1, 234480, Note_on_c, 0, 59, 0
1, 234480, Note_on_c, 0, 59, 61
1, 234480, Note_on_c, 0, 62, 72
1, 234489, Control_c, 0, 64, 0
1, 234554, Control_c, 0, 64, 127
1, 234560, Note_on_c, 0, 90, 0
1, 234560, Note_on_c, 0, 78, 0
1, 234560, Note_on_c, 0, 77, 72
1, 234560, Note_on_c, 0, 89, 82
1, 234560, Note_on_c, 0, 65, 65
1, 234561, Note_on_c, 0, 62, 0
1, 234600, Tempo, 1395349
1, 234640, Note_on_c, 0, 89, 0
1, 234640, Note_on_c, 0, 65, 0
1, 234640, Note_on_c, 0, 77, 0
1, 234640, Note_on_c, 0, 78, 73
1, 234640, Note_on_c, 0, 90, 83
1, 234640, Note_on_c, 0, 66, 66
1, 234660, Tempo, 1481481
1, 234700, Note_on_c, 0, 66, 0
1, 234718, Note_on_c, 0, 90, 0
1, 234718, Note_on_c, 0, 78, 0
1, 234720, Key_signature, 2, "major"
1, 234720, Tempo, 1318681
1, 234720, Note_on_c, 0, 59, 0
1, 234720, Note_on_c, 0, 78, 85
1, 234720, Note_on_c, 0, 90, 97
1, 234720, Note_on_c, 0, 59, 63
1, 234720, Note_on_c, 0, 62, 76
1, 234720, Control_c, 0, 64, 0
1, 234766, Control_c, 0, 64, 127
1, 234800, Note_on_c, 0, 62, 0
1, 234800, Note_on_c, 0, 67, 66
1, 234880, Note_on_c, 0, 67, 0
1, 234880, Note_on_c, 0, 66, 67
1, 234940, Note_on_c, 0, 66, 0
1, 234960, Tempo, 1290323
1, 234960, Note_on_c, 0, 59, 0
1, 234960, Note_on_c, 0, 60, 66
1, 234960, Note_on_c, 0, 63, 79
1, 234968, Control_c, 0, 64, 0
1, 235006, Control_c, 0, 64, 127
1, 235040, Note_on_c, 0, 63, 0
1, 235040, Note_on_c, 0, 68, 71
1, 235120, Note_on_c, 0, 68, 0
1, 235120, Note_on_c, 0, 66, 73
1, 235180, Note_on_c, 0, 66, 0
1, 235195, Note_on_c, 0, 78, 0
1, 235195, Note_on_c, 0, 90, 0
1, 235200, Tempo, 1263158
1, 235200, Note_on_c, 0, 60, 0
1, 235200, Note_on_c, 0, 78, 103
1, 235200, Note_on_c, 0, 90, 103
1, 235200, Note_on_c, 0, 60, 71
1, 235200, Note_on_c, 0, 63, 84
1, 235204, Control_c, 0, 64, 0
1, 235260, Control_c, 0, 64, 127
1, 235280, Note_on_c, 0, 63, 0
1, 235280, Note_on_c, 0, 69, 72
1, 235320, Tempo, 1379310
1, 235360, Note_on_c, 0, 69, 0
1, 235360, Note_on_c, 0, 66, 72
1, 235420, Note_on_c, 0, 66, 0
1, 235440, Tempo, 1250000
1, 235440, Note_on_c, 0, 60, 0
1, 235440, Note_on_c, 0, 48, 73
1, 235440, Note_on_c, 0, 51, 86
1, 235443, Control_c, 0, 64, 0
1, 235497, Control_c, 0, 64, 127
1, 235520, Note_on_c, 0, 51, 0
1, 235520, Note_on_c, 0, 57, 74
1, 235560, Tempo, 1333333
1, 235560, Note_on_c, 0, 78, 0
1, 235560, Note_on_c, 0, 90, 0
1, 235600, Note_on_c, 0, 57, 0
1, 235600, Note_on_c, 0, 54, 74
1, 235660, Note_on_c, 0, 54, 0
1, 235680, Tempo, 1318681
1, 235680, Note_on_c, 0, 48, 0
1, 235680, Note_on_c, 0, 78, 103
1, 235680, Note_on_c, 0, 90, 103
1, 235680, Note_on_c, 0, 60, 69
1, 235680, Note_on_c, 0, 63, 82
1, 235690, Control_c, 0, 64, 0
1, 235740, Control_c, 0, 64, 127
1, 235760, Note_on_c, 0, 63, 0
1, 235760, Note_on_c, 0, 69, 73
1, 235840, Note_on_c, 0, 69, 0
1, 235840, Note_on_c, 0, 66, 73
1, 235900, Note_on_c, 0, 66, 0
1, 235920, Tempo, 1290323
1, 235920, Note_on_c, 0, 60, 0
1, 235920, Note_on_c, 0, 48, 71
1, 235920, Note_on_c, 0, 51, 84
1, 235929, Control_c, 0, 64, 0
1, 235994, Control_c, 0, 64, 127
1, 236000, Note_on_c, 0, 51, 0
1, 236000, Note_on_c, 0, 57, 76
1, 236040, Tempo, 1379310
1, 236040, Note_on_c, 0, 78, 0
1, 236040, Note_on_c, 0, 90, 0
1, 236080, Note_on_c, 0, 57, 0
1, 236080, Note_on_c, 0, 54, 76
1, 236100, Tempo, 1538462
1, 236140, Note_on_c, 0, 54, 0
1, 236160, Tempo, 1363636
1, 236160, Note_on_c, 0, 48, 0
1, 236160, Note_on_c, 0, 90, 102
1, 236160, Note_on_c, 0, 78, 102
1, 236160, Note_on_c, 0, 60, 81
1, 236196, Note_on_c, 0, 60, 0
1, 236220, Note_on_c, 0, 69, 74
1, 236279, Note_on_c, 0, 78, 0
1, 236279, Note_on_c, 0, 90, 0
1, 236280, Note_on_c, 0, 69, 0
1, 236280, Note_on_c, 0, 90, 102
1, 236280, Note_on_c, 0, 66, 74
1, 236280, Note_on_c, 0, 63, 62
1, 236340, Note_on_c, 0, 63, 0
1, 236340, Note_on_c, 0, 66, 0
1, 236340, Note_on_c, 0, 69, 74
1, 236400, Note_on_c, 0, 69, 0
1, 236400, Note_on_c, 0, 48, 81
1, 236436, Note_on_c, 0, 48, 0
1, 236460, Note_on_c, 0, 57, 75
1, 236518, Note_on_c, 0, 90, 0
1, 236520, Note_on_c, 0, 57, 0
1, 236520, Note_on_c, 0, 90, 103
1, 236520, Note_on_c, 0, 51, 63
1, 236520, Note_on_c, 0, 54, 75
1, 236580, Note_on_c, 0, 54, 0
1, 236580, Note_on_c, 0, 51, 0
1, 236580, Note_on_c, 0, 57, 75
1, 236640, Tempo, 1363636
1, 236640, Note_on_c, 0, 57, 0
1, 236640, Note_on_c, 0, 60, 81
1, 236676, Note_on_c, 0, 60, 0
1, 236700, Note_on_c, 0, 69, 74
1, 236758, Note_on_c, 0, 90, 0
1, 236760, Note_on_c, 0, 69, 0
1, 236760, Note_on_c, 0, 90, 104
1, 236760, Note_on_c, 0, 66, 74
1, 236760, Note_on_c, 0, 63, 62
1, 236820, Note_on_c, 0, 63, 0
1, 236820, Note_on_c, 0, 66, 0
1, 236820, Note_on_c, 0, 69, 74
1, 236880, Tempo, 1363636
1, 236880, Note_on_c, 0, 69, 0
1, 236880, Note_on_c, 0, 48, 81
1, 236904, Note_on_c, 0, 48, 0
1, 236920, Note_on_c, 0, 57, 73
1, 236960, Note_on_c, 0, 57, 0
1, 236960, Note_on_c, 0, 51, 73
1, 236961, Note_on_c, 0, 54, 73
1, 236998, Note_on_c, 0, 90, 0
1, 237000, Note_on_c, 0, 51, 0
1, 237000, Note_on_c, 0, 90, 106
1, 237001, Note_on_c, 0, 54, 0
1, 237001, Note_on_c, 0, 57, 73
1, 237040, Note_on_c, 0, 51, 62
1, 237040, Note_on_c, 0, 54, 73
1, 237041, Note_on_c, 0, 57, 0
1, 237080, Note_on_c, 0, 54, 0
1, 237080, Note_on_c, 0, 51, 0
1, 237080, Note_on_c, 0, 57, 73
1, 237120, Tempo, 1379310
1, 237120, Note_on_c, 0, 57, 0
1, 237120, Note_on_c, 0, 60, 81
1, 237144, Note_on_c, 0, 60, 0
1, 237160, Note_on_c, 0, 69, 73
1, 237200, Note_on_c, 0, 69, 0
1, 237200, Note_on_c, 0, 63, 73
1, 237201, Note_on_c, 0, 66, 73
1, 237238, Note_on_c, 0, 90, 0
1, 237240, Note_on_c, 0, 63, 0
1, 237240, Note_on_c, 0, 90, 107
1, 237241, Note_on_c, 0, 66, 0
1, 237241, Note_on_c, 0, 69, 73
1, 237280, Note_on_c, 0, 63, 62
1, 237280, Note_on_c, 0, 66, 73
1, 237281, Note_on_c, 0, 69, 0
1, 237320, Note_on_c, 0, 66, 0
1, 237320, Note_on_c, 0, 63, 0
1, 237320, Note_on_c, 0, 69, 73
1, 237360, Tempo, 1395349
1, 237360, Note_on_c, 0, 69, 0
1, 237360, Note_on_c, 0, 48, 81
1, 237384, Note_on_c, 0, 48, 0
1, 237400, Note_on_c, 0, 57, 74
1, 237440, Note_on_c, 0, 57, 0
1, 237440, Note_on_c, 0, 51, 74
1, 237441, Note_on_c, 0, 54, 74
1, 237478, Note_on_c, 0, 90, 0
1, 237480, Note_on_c, 0, 51, 0
1, 237480, Note_on_c, 0, 90, 108
1, 237481, Note_on_c, 0, 54, 0
1, 237481, Note_on_c, 0, 57, 74
1, 237520, Note_on_c, 0, 51, 62
1, 237520, Note_on_c, 0, 54, 74
1, 237521, Note_on_c, 0, 57, 0
1, 237540, Tempo, 3750000
1, 237560, Note_on_c, 0, 54, 0
1, 237560, Note_on_c, 0, 51, 0
1, 237560, Note_on_c, 0, 57, 74
1, 237600, Key_signature, 3, "major"
1, 237600, Tempo, 1304348
1, 237600, Note_on_c, 0, 57, 0
1, 237600, Note_on_c, 0, 90, 0
1, 237600, Note_on_c, 0, 73, 48
1, 237600, Note_on_c, 0, 61, 38
1, 237600, Control_c, 0, 64, 0
1, 237600, Control_c, 0, 64, 0
1, 237708, Control_c, 0, 64, 127
1, 238080, Tempo, 1348315
1, 238080, Note_on_c, 0, 61, 0
1, 238080, Note_on_c, 0, 73, 0
1, 238080, Note_on_c, 0, 69, 42
1, 238080, Note_on_c, 0, 57, 33
1, 238262, Control_c, 0, 64, 0
1, 238318, Note_on_c, 0, 57, 0
1, 238318, Note_on_c, 0, 69, 0
1, 238320, Tempo, 1318681
1, 238320, Note_on_c, 0, 69, 47
1, 238320, Note_on_c, 0, 57, 35
1, 238353, Control_c, 0, 64, 127
1, 238560, Tempo, 1276596
1, 238560, Note_on_c, 0, 57, 0
1, 238560, Note_on_c, 0, 69, 0
1, 238560, Note_on_c, 0, 66, 41
1, 238560, Note_on_c, 0, 54, 31
1, 238751, Control_c, 0, 64, 0
1, 238800, Tempo, 1411765
1, 238800, Note_on_c, 0, 54, 0
1, 238800, Note_on_c, 0, 66, 0
1, 238800, Note_on_c, 0, 65, 34
1, 238800, Note_on_c, 0, 68, 41
1, 238800, Note_on_c, 0, 61, 34
1, 238800, Note_on_c, 0, 49, 26
1, 238800, Note_on_c, 0, 56, 31
1, 238858, Control_c, 0, 64, 127
1, 239040, Tempo, 1304348
1, 239040, Note_on_c, 0, 56, 0
1, 239040, Note_on_c, 0, 61, 0
1, 239040, Note_on_c, 0, 65, 0
1, 239040, Note_on_c, 0, 68, 0
1, 239040, Note_on_c, 0, 49, 0
1, 239040, Note_on_c, 0, 57, 42
1, 239040, Note_on_c, 0, 66, 42
1, 239040, Note_on_c, 0, 69, 50
1, 239040, Note_on_c, 0, 61, 42
1, 239040, Note_on_c, 0, 42, 28
1, 239040, Note_on_c, 0, 54, 34
1, 239046, Control_c, 0, 64, 0
1, 239227, Control_c, 0, 64, 127
1, 239520, Note_on_c, 0, 54, 0
1, 239520, Note_on_c, 0, 66, 0
1, 239520, Note_on_c, 0, 69, 0
1, 239520, Note_on_c, 0, 57, 0
1, 239520, Note_on_c, 0, 42, 0
1, 239520, Note_on_c, 0, 61, 0
1, 239520, Note_on_c, 0, 58, 47
1, 239520, Note_on_c, 0, 61, 47
1, 239520, Note_on_c, 0, 66, 47
1, 239520, Note_on_c, 0, 70, 56
1, 239520, Note_on_c, 0, 42, 35
1, 239520, Note_on_c, 0, 54, 41
1, 239532, Control_c, 0, 64, 0
1, 239646, Control_c, 0, 64, 127
1, 239760, Note_on_c, 0, 54, 0
1, 239760, Note_on_c, 0, 61, 0
1, 239760, Note_on_c, 0, 66, 0
1, 239760, Note_on_c, 0, 58, 0
1, 239760, Note_on_c, 0, 42, 0
1, 239760, Note_on_c, 0, 70, 0
1, 239760, Note_on_c, 0, 62, 51
1, 239760, Note_on_c, 0, 59, 51
1, 239760, Note_on_c, 0, 71, 61
1, 239760, Note_on_c, 0, 66, 51
1, 239760, Note_on_c, 0, 35, 36
1, 239760, Note_on_c, 0, 47, 43
1, 239772, Control_c, 0, 64, 0
1, 239960, Control_c, 0, 64, 127
1, 240000, Tempo, 1318681
1, 240240, Tempo, 1379310
1, 240240, Note_on_c, 0, 47, 0
1, 240240, Note_on_c, 0, 59, 0
1, 240240, Note_on_c, 0, 71, 0
1, 240240, Note_on_c, 0, 62, 0
1, 240240, Note_on_c, 0, 35, 0
1, 240240, Note_on_c, 0, 66, 0
1, 240240, Note_on_c, 0, 71, 55
1, 240240, Note_on_c, 0, 66, 55
1, 240240, Note_on_c, 0, 62, 55
1, 240240, Note_on_c, 0, 74, 66
1, 240240, Note_on_c, 0, 35, 41
1, 240240, Note_on_c, 0, 47, 49
1, 240360, Tempo, 1643836
1, 240480, Tempo, 1379310
1, 240480, Note_on_c, 0, 47, 0
1, 240480, Note_on_c, 0, 66, 0
1, 240480, Note_on_c, 0, 62, 0
1, 240480, Note_on_c, 0, 71, 0
1, 240480, Note_on_c, 0, 35, 0
1, 240480, Note_on_c, 0, 74, 0
1, 240480, Note_on_c, 0, 71, 67
1, 240480, Note_on_c, 0, 62, 67
1, 240480, Note_on_c, 0, 74, 79
1, 240480, Note_on_c, 0, 65, 67
1, 240480, Note_on_c, 0, 32, 47
1, 240480, Note_on_c, 0, 44, 58
1, 240480, Control_c, 0, 64, 0
1, 240613, Control_c, 0, 64, 127
1, 240960, Tempo, 1333333
1, 240960, Note_on_c, 0, 44, 0
1, 240960, Note_on_c, 0, 62, 0
1, 240960, Note_on_c, 0, 74, 0
1, 240960, Note_on_c, 0, 71, 0
1, 240960, Note_on_c, 0, 32, 0
1, 240960, Note_on_c, 0, 65, 0
1, 240960, Note_on_c, 0, 69, 55
1, 240960, Note_on_c, 0, 66, 55
1, 240960, Note_on_c, 0, 73, 65
1, 240960, Note_on_c, 0, 61, 55
1, 240960, Note_on_c, 0, 33, 40
1, 240960, Note_on_c, 0, 45, 47
1, 240972, Control_c, 0, 64, 0
1, 241060, Control_c, 0, 64, 127
1, 241198, Note_on_c, 0, 45, 0
1, 241198, Note_on_c, 0, 66, 0
1, 241198, Note_on_c, 0, 73, 0
1, 241198, Note_on_c, 0, 69, 0
1, 241198, Note_on_c, 0, 33, 0
1, 241198, Note_on_c, 0, 61, 0
1, 241200, Note_on_c, 0, 69, 63
1, 241200, Note_on_c, 0, 66, 63
1, 241200, Note_on_c, 0, 73, 76
1, 241200, Note_on_c, 0, 61, 63
1, 241200, Note_on_c, 0, 33, 46
1, 241200, Note_on_c, 0, 45, 57
1, 241214, Control_c, 0, 64, 0
1, 241300, Control_c, 0, 64, 127
1, 241440, Tempo, 1304348
1, 241440, Note_on_c, 0, 45, 0
1, 241440, Note_on_c, 0, 66, 0
1, 241440, Note_on_c, 0, 73, 0
1, 241440, Note_on_c, 0, 69, 0
1, 241440, Note_on_c, 0, 33, 0
1, 241440, Note_on_c, 0, 61, 0
1, 241440, Note_on_c, 0, 59, 55
1, 241440, Note_on_c, 0, 62, 55
1, 241440, Note_on_c, 0, 68, 55
1, 241440, Note_on_c, 0, 71, 68
1, 241440, Note_on_c, 0, 35, 43
1, 241440, Note_on_c, 0, 47, 51
1, 241452, Control_c, 0, 64, 0
1, 241531, Control_c, 0, 64, 127
1, 241680, Tempo, 1411765
1, 241680, Note_on_c, 0, 47, 0
1, 241680, Note_on_c, 0, 62, 0
1, 241680, Note_on_c, 0, 68, 0
1, 241680, Note_on_c, 0, 59, 0
1, 241680, Note_on_c, 0, 35, 0
1, 241680, Note_on_c, 0, 71, 0
1, 241680, Note_on_c, 0, 66, 55
1, 241680, Note_on_c, 0, 63, 55
1, 241680, Note_on_c, 0, 57, 55
1, 241680, Note_on_c, 0, 69, 67
1, 241680, Note_on_c, 0, 48, 51
1, 241680, Note_on_c, 0, 36, 42
1, 241692, Control_c, 0, 64, 0
1, 241755, Control_c, 0, 64, 127
1, 241920, Tempo, 1318681
1, 241920, Note_on_c, 0, 36, 0
1, 241920, Note_on_c, 0, 63, 0
1, 241920, Note_on_c, 0, 57, 0
1, 241920, Note_on_c, 0, 66, 0
1, 241920, Note_on_c, 0, 48, 0
1, 241920, Note_on_c, 0, 69, 0
1, 241920, Note_on_c, 0, 66, 48
1, 241920, Note_on_c, 0, 57, 48
1, 241920, Note_on_c, 0, 69, 57
1, 241920, Note_on_c, 0, 63, 48
1, 241920, Note_on_c, 0, 36, 34
1, 241920, Note_on_c, 0, 48, 42
1, 241920, Control_c, 0, 64, 0
1, 242053, Control_c, 0, 64, 127
1, 242160, Note_on_c, 0, 48, 0
1, 242160, Note_on_c, 0, 36, 0
1, 242160, Note_on_c, 0, 61, 46
1, 242160, Note_on_c, 0, 37, 38
1, 242160, Note_on_c, 0, 49, 45
1, 242400, Tempo, 1290323
1, 242400, Note_on_c, 0, 69, 0
1, 242400, Note_on_c, 0, 63, 0
1, 242400, Note_on_c, 0, 66, 0
1, 242400, Note_on_c, 0, 57, 0
1, 242400, Note_on_c, 0, 65, 46
1, 242400, Note_on_c, 0, 56, 46
1, 242400, Note_on_c, 0, 68, 55
1, 242412, Control_c, 0, 64, 0
1, 242500, Control_c, 0, 64, 127
1, 242520, Note_on_c, 0, 49, 0
1, 242520, Note_on_c, 0, 37, 0
1, 242520, Note_on_c, 0, 36, 34
1, 242520, Note_on_c, 0, 48, 40
1, 242640, Note_on_c, 0, 48, 0
1, 242640, Note_on_c, 0, 68, 0
1, 242640, Note_on_c, 0, 61, 0
1, 242640, Note_on_c, 0, 65, 0
1, 242640, Note_on_c, 0, 36, 0
1, 242640, Note_on_c, 0, 56, 0
1, 242640, Note_on_c, 0, 65, 53
1, 242640, Note_on_c, 0, 61, 53
1, 242640, Note_on_c, 0, 68, 64
1, 242640, Note_on_c, 0, 56, 53
1, 242640, Note_on_c, 0, 37, 39
1, 242640, Note_on_c, 0, 49, 48
1, 242654, Control_c, 0, 64, 0
1, 242740, Control_c, 0, 64, 127
1, 242880, Tempo, 1363636
1, 242880, Note_on_c, 0, 49, 0
1, 242880, Note_on_c, 0, 61, 0
1, 242880, Note_on_c, 0, 68, 0
1, 242880, Note_on_c, 0, 65, 0
1, 242880, Note_on_c, 0, 37, 0
1, 242880, Note_on_c, 0, 56, 0
1, 242880, Note_on_c, 0, 55, 49
1, 242880, Note_on_c, 0, 58, 49
1, 242880, Note_on_c, 0, 64, 49
1, 242880, Note_on_c, 0, 67, 60
1, 242880, Note_on_c, 0, 37, 38
1, 242880, Note_on_c, 0, 49, 45
1, 242892, Control_c, 0, 64, 0
1, 242971, Control_c, 0, 64, 127
1, 243120, Tempo, 1379310
1, 243120, Note_on_c, 0, 49, 0
1, 243120, Note_on_c, 0, 58, 0
1, 243120, Note_on_c, 0, 55, 0
1, 243120, Note_on_c, 0, 64, 0
1, 243120, Note_on_c, 0, 37, 0
1, 243120, Note_on_c, 0, 62, 52
1, 243120, Note_on_c, 0, 59, 52
1, 243120, Note_on_c, 0, 55, 52
1, 243120, Note_on_c, 0, 50, 48
1, 243120, Note_on_c, 0, 38, 40
1, 243132, Control_c, 0, 64, 0
1, 243195, Control_c, 0, 64, 127
1, 243300, Tempo, 1666667
1, 243300, Note_on_c, 0, 55, 0
1, 243300, Note_on_c, 0, 59, 0
1, 243300, Note_on_c, 0, 62, 0
1, 243300, Note_on_c, 0, 67, 53
1, 243311, Control_c, 0, 64, 0
1, 243340, Control_c, 0, 64, 127
1, 243360, Tempo, 1333333
1, 243360, Note_on_c, 0, 67, 0
1, 243360, Note_on_c, 0, 38, 0
1, 243360, Note_on_c, 0, 50, 0
1, 243360, Note_on_c, 0, 67, 0
1, 243360, Note_on_c, 0, 83, 65
1, 243360, Note_on_c, 0, 43, 43
1, 243360, Note_on_c, 0, 31, 32
1, 243360, Note_on_c, 0, 38, 32
1, 243600, Note_on_c, 0, 71, 55
1, 243840, Tempo, 1428571
1, 243840, Note_on_c, 0, 71, 0
1, 243840, Note_on_c, 0, 83, 0
1, 243840, Note_on_c, 0, 69, 52
1, 243840, Note_on_c, 0, 81, 62
1, 244078, Note_on_c, 0, 81, 0
1, 244078, Note_on_c, 0, 69, 0
1, 244080, Tempo, 1333333
1, 244080, Note_on_c, 0, 38, 0
1, 244080, Note_on_c, 0, 31, 0
1, 244080, Note_on_c, 0, 43, 0
1, 244080, Note_on_c, 0, 69, 55
1, 244080, Note_on_c, 0, 81, 65
1, 244080, Note_on_c, 0, 43, 30
1, 244080, Note_on_c, 0, 35, 30
1, 244080, Note_on_c, 0, 50, 36
1, 244092, Control_c, 0, 64, 0
1, 244254, Control_c, 0, 64, 127
1, 244320, Note_on_c, 0, 81, 0
1, 244320, Note_on_c, 0, 69, 0
1, 244320, Note_on_c, 0, 67, 51
1, 244320, Note_on_c, 0, 79, 57
1, 244560, Tempo, 1379310
1, 244560, Note_on_c, 0, 79, 0
1, 244560, Note_on_c, 0, 67, 0
1, 244560, Note_on_c, 0, 66, 50
1, 244560, Note_on_c, 0, 78, 57
1, 244798, Note_on_c, 0, 78, 0
1, 244798, Note_on_c, 0, 66, 0
1, 244800, Tempo, 1318681
1, 244800, Note_on_c, 0, 35, 0
1, 244800, Note_on_c, 0, 43, 0
1, 244800, Note_on_c, 0, 50, 0
1, 244800, Note_on_c, 0, 66, 55
1, 244800, Note_on_c, 0, 78, 65
1, 244800, Note_on_c, 0, 36, 33
1, 244800, Note_on_c, 0, 52, 39
1, 244800, Note_on_c, 0, 43, 33
1, 244802, Control_c, 0, 64, 0
1, 244980, Control_c, 0, 64, 127
1, 245040, Note_on_c, 0, 78, 0
1, 245040, Note_on_c, 0, 66, 0
1, 245040, Note_on_c, 0, 64, 52
1, 245040, Note_on_c, 0, 76, 56
1, 245280, Tempo, 1379310
1, 245280, Note_on_c, 0, 76, 0
1, 245280, Note_on_c, 0, 64, 0
1, 245280, Note_on_c, 0, 66, 52
1, 245280, Note_on_c, 0, 78, 56
1, 245518, Note_on_c, 0, 78, 0
1, 245518, Note_on_c, 0, 66, 0
1, 245520, Tempo, 1363636
1, 245520, Note_on_c, 0, 52, 0
1, 245520, Note_on_c, 0, 36, 0
1, 245520, Note_on_c, 0, 43, 0
1, 245520, Note_on_c, 0, 66, 52
1, 245520, Note_on_c, 0, 78, 61
1, 245520, Note_on_c, 0, 35, 29
1, 245520, Note_on_c, 0, 43, 29
1, 245520, Note_on_c, 0, 50, 35
1, 245532, Control_c, 0, 64, 0
1, 245694, Control_c, 0, 64, 127
1, 245760, Note_on_c, 0, 50, 0
1, 245760, Note_on_c, 0, 35, 0
1, 245760, Note_on_c, 0, 66, 0
1, 245760, Note_on_c, 0, 78, 0
1, 245760, Note_on_c, 0, 43, 0
1, 245760, Note_on_c, 0, 67, 55
1, 245760, Note_on_c, 0, 79, 59
1, 245760, Note_on_c, 0, 43, 46
1, 246000, Tempo, 1481481
1, 246000, Note_on_c, 0, 38, 32
1, 246012, Control_c, 0, 64, 0
1, 246120, Note_on_c, 0, 43, 0
1, 246120, Note_on_c, 0, 67, 0
1, 246120, Note_on_c, 0, 79, 0
1, 246120, Note_on_c, 0, 54, 43
1, 246120, Note_on_c, 0, 66, 46
1, 246120, Note_on_c, 0, 42, 38
1, 246134, Control_c, 0, 64, 127
1, 246239, Note_on_c, 0, 42, 0
1, 246239, Note_on_c, 0, 66, 0
1, 246239, Note_on_c, 0, 54, 0
1, 246240, Tempo, 1428571
1, 246240, Note_on_c, 0, 38, 0
1, 246240, Note_on_c, 0, 54, 45
1, 246240, Note_on_c, 0, 66, 60
1, 246240, Note_on_c, 0, 38, 29
1, 246240, Note_on_c, 0, 42, 35
1, 246252, Control_c, 0, 64, 0
1, 246379, Control_c, 0, 64, 127
1, 246480, Tempo, 1379310
1, 246480, Note_on_c, 0, 42, 0
1, 246480, Note_on_c, 0, 54, 0
1, 246480, Note_on_c, 0, 66, 0
1, 246480, Note_on_c, 0, 38, 0
1, 246480, Note_on_c, 0, 57, 45
1, 246480, Note_on_c, 0, 69, 53
1, 246480, Note_on_c, 0, 37, 29
1, 246480, Note_on_c, 0, 45, 31
1, 246492, Control_c, 0, 64, 0
1, 246607, Control_c, 0, 64, 127
1, 246720, Tempo, 1578947
1, 246720, Note_on_c, 0, 45, 0
1, 246720, Note_on_c, 0, 57, 0
1, 246720, Note_on_c, 0, 69, 0
1, 246720, Note_on_c, 0, 37, 0
1, 246720, Note_on_c, 0, 61, 43
1, 246720, Note_on_c, 0, 66, 43
1, 246720, Note_on_c, 0, 69, 43
1, 246720, Note_on_c, 0, 73, 51
1, 246720, Note_on_c, 0, 37, 26
1, 246720, Note_on_c, 0, 49, 31
1, 246958, Note_on_c, 0, 49, 0
1, 246958, Note_on_c, 0, 66, 0
1, 246958, Note_on_c, 0, 69, 0
1, 246958, Note_on_c, 0, 61, 0
1, 246958, Note_on_c, 0, 37, 0
1, 246958, Note_on_c, 0, 73, 0
1, 246960, Tempo, 1411765
1, 246960, Note_on_c, 0, 61, 45
1, 246960, Note_on_c, 0, 73, 54
1, 246960, Note_on_c, 0, 65, 45
1, 246960, Note_on_c, 0, 68, 45
1, 246960, Note_on_c, 0, 37, 29
1, 246960, Note_on_c, 0, 49, 35
1, 246962, Control_c, 0, 64, 0
1, 247099, Control_c, 0, 64, 127
1, 247440, Tempo, 1558442
1, 247440, Note_on_c, 0, 49, 0
1, 247440, Note_on_c, 0, 73, 0
1, 247440, Note_on_c, 0, 65, 0
1, 247440, Note_on_c, 0, 61, 0
1, 247440, Note_on_c, 0, 37, 0
1, 247440, Note_on_c, 0, 68, 0
1, 247440, Note_on_c, 0, 61, 36
1, 247440, Note_on_c, 0, 73, 43
1, 247440, Note_on_c, 0, 69, 36
1, 247440, Note_on_c, 0, 66, 36
1, 247440, Note_on_c, 0, 42, 27
1, 247440, Note_on_c, 0, 49, 32
1, 247454, Control_c, 0, 64, 0
1, 247532, Control_c, 0, 64, 127
1, 247678, Note_on_c, 0, 49, 0
1, 247678, Note_on_c, 0, 73, 0
1, 247678, Note_on_c, 0, 69, 0
1, 247678, Note_on_c, 0, 61, 0
1, 247678, Note_on_c, 0, 42, 0
1, 247678, Note_on_c, 0, 66, 0
1, 247680, Tempo, 1463415
1, 247680, Note_on_c, 0, 69, 40
1, 247680, Note_on_c, 0, 61, 40
1, 247680, Note_on_c, 0, 73, 48
1, 247680, Note_on_c, 0, 42, 29
1, 247680, Note_on_c, 0, 49, 35
1, 247683, Control_c, 0, 64, 0
1, 247758, Control_c, 0, 64, 127
1, 247920, Note_on_c, 0, 42, 0
1, 247920, Note_on_c, 0, 73, 0
1, 247920, Note_on_c, 0, 69, 0
1, 247920, Note_on_c, 0, 61, 0
1, 247920, Note_on_c, 0, 62, 36
1, 247920, Note_on_c, 0, 74, 43
1, 247920, Note_on_c, 0, 67, 36
1, 247920, Note_on_c, 0, 35, 27
1, 247920, Note_on_c, 0, 50, 32
1, 247929, Note_on_c, 0, 49, 0
1, 247934, Control_c, 0, 64, 0
1, 248000, Control_c, 0, 64, 127
1, 248160, Tempo, 1600000
1, 248160, Note_on_c, 0, 74, 0
1, 248160, Note_on_c, 0, 67, 0
1, 248160, Note_on_c, 0, 62, 0
1, 248160, Note_on_c, 0, 50, 0
1, 248160, Note_on_c, 0, 55, 36
1, 248160, Note_on_c, 0, 67, 43
1, 248160, Note_on_c, 0, 43, 32
1, 248400, Tempo, 1643836
1, 248400, Note_on_c, 0, 43, 0
1, 248400, Note_on_c, 0, 67, 0
1, 248400, Note_on_c, 0, 55, 0
1, 248400, Note_on_c, 0, 59, 37
1, 248400, Note_on_c, 0, 71, 47
1, 248400, Note_on_c, 0, 47, 35
1, 248640, Tempo, 1739130
1, 248640, Note_on_c, 0, 47, 0
1, 248640, Note_on_c, 0, 35, 0
1, 248640, Note_on_c, 0, 59, 0
1, 248640, Note_on_c, 0, 71, 0
1, 248640, Note_on_c, 0, 49, 37
1, 248640, Note_on_c, 0, 61, 45
1, 248640, Note_on_c, 0, 37, 35
1, 248654, Control_c, 0, 64, 0
1, 248749, Control_c, 0, 64, 127
1, 248880, Tempo, 1875000
1, 248880, Note_on_c, 0, 37, 0
1, 248880, Note_on_c, 0, 61, 0
1, 248880, Note_on_c, 0, 49, 0
1, 248880, Note_on_c, 0, 65, 44
1, 248880, Note_on_c, 0, 53, 37
1, 248880, Note_on_c, 0, 37, 33
1, 248880, Note_on_c, 0, 41, 33
1, 248885, Control_c, 0, 64, 0
1, 249000, Note_on_c, 0, 41, 0
1, 249000, Note_on_c, 0, 65, 0
1, 249000, Note_on_c, 0, 53, 0
1, 249000, Note_on_c, 0, 54, 32
1, 249000, Note_on_c, 0, 66, 38
1, 249000, Note_on_c, 0, 42, 30
1, 249120, Tempo, 1518987
1, 249120, Note_on_c, 0, 42, 0
1, 249120, Note_on_c, 0, 37, 0
1, 249120, Note_on_c, 0, 54, 0
1, 249120, Note_on_c, 0, 66, 0
1, 249120, Note_on_c, 0, 54, 25
1, 249120, Note_on_c, 0, 58, 25
1, 249120, Note_on_c, 0, 64, 25
1, 249120, Note_on_c, 0, 66, 52
1, 249120, Note_on_c, 0, 37, 29
1, 249120, Note_on_c, 0, 42, 35
1, 249120, Control_c, 0, 64, 127
1, 249360, Note_on_c, 0, 42, 0
1, 249360, Note_on_c, 0, 37, 0
1, 249360, Note_on_c, 0, 30, 23
1, 249360, Note_on_c, 0, 42, 28
1, 249480, Tempo, 1666667
1, 249480, Note_on_c, 0, 54, 0
1, 249480, Note_on_c, 0, 64, 0
1, 249480, Note_on_c, 0, 58, 0
1, 249480, Note_on_c, 0, 66, 25
1, 249600, Tempo, 1518987
1, 249600, Note_on_c, 0, 66, 0
1, 249600, Note_on_c, 0, 42, 0
1, 249600, Note_on_c, 0, 30, 0
1, 249600, Note_on_c, 0, 78, 57
1, 249600, Note_on_c, 0, 34, 23
1, 249600, Note_on_c, 0, 46, 28
1, 249718, Note_on_c, 0, 66, 0
1, 249720, Note_on_c, 0, 66, 25
1, 249840, Note_on_c, 0, 78, 0
1, 249840, Note_on_c, 0, 46, 0
1, 249840, Note_on_c, 0, 34, 0
1, 249840, Note_on_c, 0, 78, 57
1, 249840, Note_on_c, 0, 37, 29
1, 249840, Note_on_c, 0, 49, 35
1, 249845, Control_c, 0, 64, 0
1, 249946, Control_c, 0, 64, 127
1, 249958, Note_on_c, 0, 66, 0
1, 249960, Note_on_c, 0, 66, 25
1, 250080, Tempo, 1463415
1, 250080, Note_on_c, 0, 49, 0
1, 250080, Note_on_c, 0, 37, 0
1, 250080, Note_on_c, 0, 30, 23
1, 250080, Note_on_c, 0, 42, 28
1, 250198, Note_on_c, 0, 66, 0
1, 250200, Note_on_c, 0, 66, 25
1, 250320, Tempo, 1500000
1, 250320, Note_on_c, 0, 78, 0
1, 250320, Note_on_c, 0, 42, 0
1, 250320, Note_on_c, 0, 30, 0
1, 250320, Note_on_c, 0, 73, 50
1, 250320, Note_on_c, 0, 34, 23
1, 250320, Note_on_c, 0, 46, 28
1, 250438, Note_on_c, 0, 66, 0
1, 250440, Tempo, 1578947
1, 250440, Note_on_c, 0, 66, 25
1, 250560, Tempo, 1518987
1, 250560, Note_on_c, 0, 73, 0
1, 250560, Note_on_c, 0, 46, 0
1, 250560, Note_on_c, 0, 34, 0
1, 250560, Note_on_c, 0, 76, 57
1, 250560, Note_on_c, 0, 35, 26
1, 250560, Note_on_c, 0, 47, 31
1, 250564, Control_c, 0, 64, 0
1, 250643, Control_c, 0, 64, 127
1, 250678, Note_on_c, 0, 66, 0
1, 250680, Note_on_c, 0, 66, 25
1, 250800, Note_on_c, 0, 76, 0
1, 250800, Note_on_c, 0, 47, 0
1, 250800, Note_on_c, 0, 35, 0
1, 250800, Note_on_c, 0, 74, 51
1, 250800, Note_on_c, 0, 30, 22
1, 250800, Note_on_c, 0, 42, 27
1, 250812, Control_c, 0, 64, 0
1, 250875, Control_c, 0, 64, 127
1, 250918, Note_on_c, 0, 66, 0
1, 250920, Note_on_c, 0, 62, 25
1, 250920, Note_on_c, 0, 68, 25
1, 250920, Note_on_c, 0, 65, 25
1, 251040, Note_on_c, 0, 74, 0
1, 251040, Note_on_c, 0, 42, 0
1, 251040, Note_on_c, 0, 30, 0
1, 251040, Note_on_c, 0, 71, 51
1, 251040, Note_on_c, 0, 35, 22
1, 251040, Note_on_c, 0, 47, 27
1, 251158, Note_on_c, 0, 62, 0
1, 251158, Note_on_c, 0, 65, 0
1, 251158, Note_on_c, 0, 68, 0
1, 251160, Note_on_c, 0, 62, 25
1, 251160, Note_on_c, 0, 65, 25
1, 251160, Note_on_c, 0, 68, 25
1, 251280, Note_on_c, 0, 47, 0
1, 251280, Note_on_c, 0, 35, 0
1, 251280, Note_on_c, 0, 38, 26
1, 251280, Note_on_c, 0, 50, 31
1, 251398, Note_on_c, 0, 62, 0
1, 251398, Note_on_c, 0, 65, 0
1, 251398, Note_on_c, 0, 68, 0
1, 251400, Note_on_c, 0, 62, 25
1, 251400, Note_on_c, 0, 65, 25
1, 251400, Note_on_c, 0, 68, 25
1, 251520, Tempo, 1558442
1, 251520, Note_on_c, 0, 71, 0
1, 251520, Note_on_c, 0, 50, 0
1, 251520, Note_on_c, 0, 38, 0
1, 251520, Note_on_c, 0, 74, 56
1, 251520, Note_on_c, 0, 30, 21
1, 251520, Note_on_c, 0, 42, 25
1, 251638, Note_on_c, 0, 62, 0
1, 251638, Note_on_c, 0, 68, 0
1, 251638, Note_on_c, 0, 65, 0
1, 251640, Note_on_c, 0, 62, 25
1, 251640, Note_on_c, 0, 65, 25
1, 251640, Note_on_c, 0, 68, 25
1, 251760, Tempo, 1690141
1, 251760, Note_on_c, 0, 74, 0
1, 251760, Note_on_c, 0, 42, 0
1, 251760, Note_on_c, 0, 30, 0
1, 251760, Note_on_c, 0, 71, 53
1, 251760, Note_on_c, 0, 35, 21
1, 251760, Note_on_c, 0, 47, 25
1, 251878, Note_on_c, 0, 62, 0
1, 251878, Note_on_c, 0, 68, 0
1, 251878, Note_on_c, 0, 65, 0
1, 251880, Note_on_c, 0, 62, 25
1, 251880, Note_on_c, 0, 65, 25
1, 251880, Note_on_c, 0, 68, 25
1, 251999, Note_on_c, 0, 68, 0
1, 251999, Note_on_c, 0, 62, 0
1, 251999, Note_on_c, 0, 65, 0
1, 252000, Tempo, 1538462
1, 252000, Note_on_c, 0, 47, 0
1, 252000, Note_on_c, 0, 71, 0
1, 252000, Note_on_c, 0, 35, 0
1, 252000, Note_on_c, 0, 61, 34
1, 252000, Note_on_c, 0, 66, 34
1, 252000, Note_on_c, 0, 70, 48
1, 252000, Note_on_c, 0, 37, 24
1, 252000, Note_on_c, 0, 49, 29
1, 252000, Control_c, 0, 64, 0
1, 252032, Control_c, 0, 64, 127
1, 252080, Note_on_c, 0, 70, 0
1, 252080, Note_on_c, 0, 78, 45
1, 252160, Note_on_c, 0, 78, 0
1, 252160, Note_on_c, 0, 73, 48
1, 252240, Note_on_c, 0, 73, 0
1, 252240, Note_on_c, 0, 37, 0
1, 252240, Note_on_c, 0, 61, 0
1, 252240, Note_on_c, 0, 66, 0
1, 252240, Note_on_c, 0, 49, 0
1, 252240, Note_on_c, 0, 82, 54
1, 252240, Note_on_c, 0, 30, 19
1, 252240, Note_on_c, 0, 42, 23
1, 252320, Note_on_c, 0, 82, 0
1, 252320, Note_on_c, 0, 78, 51
1, 252400, Note_on_c, 0, 78, 0
1, 252400, Note_on_c, 0, 85, 51
1, 252480, Note_on_c, 0, 85, 0
1, 252480, Note_on_c, 0, 42, 0
1, 252480, Note_on_c, 0, 30, 0
1, 252480, Note_on_c, 0, 78, 57
1, 252480, Note_on_c, 0, 34, 20
1, 252480, Note_on_c, 0, 46, 24
1, 252560, Note_on_c, 0, 78, 0
1, 252560, Note_on_c, 0, 91, 63
1, 252640, Tempo, 1690141
1, 252640, Note_on_c, 0, 91, 0
1, 252640, Note_on_c, 0, 90, 59
1, 252720, Tempo, 1538462
1, 252720, Note_on_c, 0, 90, 0
1, 252720, Note_on_c, 0, 46, 0
1, 252720, Note_on_c, 0, 34, 0
1, 252720, Note_on_c, 0, 89, 64
1, 252720, Note_on_c, 0, 37, 26
1, 252720, Note_on_c, 0, 49, 32
1, 252728, Control_c, 0, 64, 0
1, 252775, Control_c, 0, 64, 127
1, 252800, Note_on_c, 0, 89, 0
1, 252800, Note_on_c, 0, 90, 59
1, 252880, Note_on_c, 0, 90, 0
1, 252880, Note_on_c, 0, 88, 59
1, 252960, Note_on_c, 0, 49, 0
1, 252960, Note_on_c, 0, 37, 0
1, 252960, Note_on_c, 0, 30, 22
1, 252960, Note_on_c, 0, 42, 26
1, 253040, Note_on_c, 0, 88, 0
1, 253040, Note_on_c, 0, 85, 57
1, 253120, Note_on_c, 0, 85, 0
1, 253120, Note_on_c, 0, 82, 57
1, 253200, Tempo, 1481481
1, 253200, Note_on_c, 0, 82, 0
1, 253200, Note_on_c, 0, 42, 0
1, 253200, Note_on_c, 0, 30, 0
1, 253200, Note_on_c, 0, 73, 34
1, 253200, Note_on_c, 0, 79, 62
1, 253200, Note_on_c, 0, 34, 22
1, 253200, Note_on_c, 0, 46, 27
1, 253280, Note_on_c, 0, 79, 0
1, 253280, Note_on_c, 0, 78, 60
1, 253360, Tempo, 1714286
1, 253360, Note_on_c, 0, 78, 0
1, 253360, Note_on_c, 0, 76, 60
1, 253440, Tempo, 1518987
1, 253440, Note_on_c, 0, 46, 0
1, 253440, Note_on_c, 0, 73, 0
1, 253440, Note_on_c, 0, 34, 0
1, 253440, Note_on_c, 0, 35, 30
1, 253440, Note_on_c, 0, 47, 36
1, 253440, Control_c, 0, 64, 0
1, 253486, Control_c, 0, 64, 127
1, 253520, Note_on_c, 0, 76, 0
1, 253520, Note_on_c, 0, 73, 59
1, 253600, Note_on_c, 0, 73, 0
1, 253600, Note_on_c, 0, 74, 59
1, 253680, Note_on_c, 0, 74, 0
1, 253680, Note_on_c, 0, 47, 0
1, 253680, Note_on_c, 0, 35, 0
1, 253680, Note_on_c, 0, 83, 63
1, 253680, Note_on_c, 0, 30, 24
1, 253680, Note_on_c, 0, 42, 29
1, 253760, Tempo, 1643836
1, 253760, Note_on_c, 0, 83, 0
1, 253760, Note_on_c, 0, 80, 53
1, 253840, Tempo, 1518987
1, 253840, Note_on_c, 0, 80, 0
1, 253840, Note_on_c, 0, 86, 58
1, 253920, Note_on_c, 0, 42, 0
1, 253920, Note_on_c, 0, 30, 0
1, 253920, Note_on_c, 0, 35, 22
1, 253920, Note_on_c, 0, 47, 27
1, 254000, Note_on_c, 0, 86, 0
1, 254000, Note_on_c, 0, 85, 53
1, 254080, Note_on_c, 0, 85, 0
1, 254080, Note_on_c, 0, 83, 50
1, 254158, Note_on_c, 0, 83, 0
1, 254160, Note_on_c, 0, 47, 0
1, 254160, Note_on_c, 0, 35, 0
1, 254160, Note_on_c, 0, 71, 42
1, 254160, Note_on_c, 0, 74, 42
1, 254160, Note_on_c, 0, 77, 42
1, 254160, Note_on_c, 0, 80, 42
1, 254160, Note_on_c, 0, 83, 52
1, 254160, Note_on_c, 0, 38, 29
1, 254160, Note_on_c, 0, 50, 35
1, 254174, Control_c, 0, 64, 0
1, 254231, Control_c, 0, 64, 127
1, 254240, Note_on_c, 0, 50, 0
1, 254240, Note_on_c, 0, 38, 0
1, 254240, Note_on_c, 0, 30, 33
1, 254320, Note_on_c, 0, 30, 0
1, 254320, Note_on_c, 0, 35, 35
1, 254400, Tempo, 1538462
1, 254400, Note_on_c, 0, 35, 0
1, 254400, Note_on_c, 0, 38, 42
1, 254480, Note_on_c, 0, 38, 0
1, 254480, Note_on_c, 0, 42, 40
1, 254560, Note_on_c, 0, 42, 0
1, 254560, Note_on_c, 0, 47, 38
1, 254635, Note_on_c, 0, 74, 0
1, 254635, Note_on_c, 0, 80, 0
1, 254635, Note_on_c, 0, 77, 0
1, 254635, Note_on_c, 0, 71, 0
1, 254635, Note_on_c, 0, 83, 0
1, 254640, Tempo, 1600000
1, 254640, Note_on_c, 0, 47, 0
1, 254640, Note_on_c, 0, 71, 44
1, 254640, Note_on_c, 0, 74, 44
1, 254640, Note_on_c, 0, 77, 44
1, 254640, Note_on_c, 0, 80, 44
1, 254640, Note_on_c, 0, 83, 56
1, 254640, Note_on_c, 0, 50, 35
1, 254647, Control_c, 0, 64, 0
1, 254707, Control_c, 0, 64, 127
1, 254720, Note_on_c, 0, 50, 0
1, 254720, Note_on_c, 0, 42, 33
1, 254800, Tempo, 1875000
1, 254800, Note_on_c, 0, 42, 0
1, 254800, Note_on_c, 0, 50, 31
1, 254880, Tempo, 1578947
1, 254880, Note_on_c, 0, 50, 0
1, 254880, Note_on_c, 0, 74, 0
1, 254880, Note_on_c, 0, 77, 0
1, 254880, Note_on_c, 0, 71, 0
1, 254880, Note_on_c, 0, 83, 0
1, 254880, Note_on_c, 0, 80, 0
1, 254880, Note_on_c, 0, 70, 43
1, 254880, Note_on_c, 0, 73, 43
1, 254880, Note_on_c, 0, 78, 43
1, 254880, Note_on_c, 0, 82, 54
1, 254880, Note_on_c, 0, 42, 27
1, 254886, Control_c, 0, 64, 0
1, 254944, Control_c, 0, 64, 127
1, 254960, Note_on_c, 0, 42, 0
1, 254960, Note_on_c, 0, 49, 20
1, 255040, Note_on_c, 0, 49, 0
1, 255040, Note_on_c, 0, 42, 20
1, 255120, Note_on_c, 0, 42, 0
1, 255120, Note_on_c, 0, 54, 27
1, 255200, Note_on_c, 0, 54, 0
1, 255200, Note_on_c, 0, 49, 22
1, 255280, Note_on_c, 0, 49, 0
1, 255280, Note_on_c, 0, 54, 22
1, 255360, Note_on_c, 0, 54, 0
1, 255360, Note_on_c, 0, 42, 27
1, 255440, Note_on_c, 0, 42, 0
1, 255440, Note_on_c, 0, 49, 23
1, 255520, Note_on_c, 0, 49, 0
1, 255520, Note_on_c, 0, 42, 23
1, 255600, Note_on_c, 0, 42, 0
1, 255600, Note_on_c, 0, 54, 27
1, 255680, Note_on_c, 0, 54, 0
1, 255680, Note_on_c, 0, 49, 23
1, 255760, Note_on_c, 0, 49, 0
1, 255760, Note_on_c, 0, 54, 23
1, 255840, Note_on_c, 0, 54, 0
1, 255840, Note_on_c, 0, 49, 27
1, 255920, Note_on_c, 0, 49, 0
1, 255920, Note_on_c, 0, 42, 21
1, 256000, Tempo, 1666667
1, 256000, Note_on_c, 0, 42, 0
1, 256000, Note_on_c, 0, 49, 21
1, 256078, Note_on_c, 0, 82, 0
1, 256078, Note_on_c, 0, 78, 0
1, 256078, Note_on_c, 0, 70, 0
1, 256078, Note_on_c, 0, 73, 0
1, 256080, Tempo, 1578947
1, 256080, Note_on_c, 0, 49, 0
1, 256080, Note_on_c, 0, 70, 42
1, 256080, Note_on_c, 0, 73, 42
1, 256080, Note_on_c, 0, 78, 42
1, 256080, Note_on_c, 0, 82, 53
1, 256080, Note_on_c, 0, 54, 27
1, 256160, Note_on_c, 0, 54, 0
1, 256160, Note_on_c, 0, 49, 22
1, 256240, Note_on_c, 0, 49, 0
1, 256240, Note_on_c, 0, 54, 22
1, 256320, Note_on_c, 0, 54, 0
1, 256320, Note_on_c, 0, 37, 27
1, 256400, Note_on_c, 0, 37, 0
1, 256400, Note_on_c, 0, 42, 23
1, 256480, Note_on_c, 0, 42, 0
1, 256480, Note_on_c, 0, 37, 23
1, 256560, Note_on_c, 0, 37, 0
1, 256560, Note_on_c, 0, 49, 27
1, 256640, Note_on_c, 0, 49, 0
1, 256640, Note_on_c, 0, 42, 23
1, 256720, Tempo, 1935484
1, 256720, Note_on_c, 0, 42, 0
1, 256720, Note_on_c, 0, 49, 23
1, 256798, Note_on_c, 0, 82, 0
1, 256798, Note_on_c, 0, 78, 0
1, 256798, Note_on_c, 0, 70, 0
1, 256798, Note_on_c, 0, 73, 0
1, 256800, Tempo, 1578947
1, 256800, Note_on_c, 0, 49, 0
1, 256800, Note_on_c, 0, 90, 50
1, 256800, Note_on_c, 0, 82, 40
1, 256800, Note_on_c, 0, 78, 40
1, 256800, Note_on_c, 0, 37, 26
1, 256880, Note_on_c, 0, 37, 0
1, 256880, Note_on_c, 0, 42, 22
1, 256960, Note_on_c, 0, 42, 0
1, 256960, Note_on_c, 0, 37, 22
1, 257040, Note_on_c, 0, 37, 0
1, 257040, Note_on_c, 0, 49, 27
1, 257120, Note_on_c, 0, 49, 0
1, 257120, Note_on_c, 0, 42, 23
1, 257200, Note_on_c, 0, 42, 0
1, 257200, Note_on_c, 0, 49, 23
1, 257280, Note_on_c, 0, 49, 0
1, 257280, Note_on_c, 0, 37, 27
1, 257360, Note_on_c, 0, 37, 0
1, 257360, Note_on_c, 0, 42, 23
1, 257440, Note_on_c, 0, 42, 0
1, 257440, Note_on_c, 0, 37, 23
1, 257518, Note_on_c, 0, 78, 0
1, 257518, Note_on_c, 0, 90, 0
1, 257518, Note_on_c, 0, 82, 0
1, 257520, Note_on_c, 0, 37, 0
1, 257520, Note_on_c, 0, 78, 36
1, 257520, Note_on_c, 0, 82, 36
1, 257520, Note_on_c, 0, 90, 46
1, 257520, Note_on_c, 0, 49, 27
1, 257600, Note_on_c, 0, 49, 0
1, 257600, Note_on_c, 0, 42, 24
1, 257680, Note_on_c, 0, 42, 0
1, 257680, Note_on_c, 0, 49, 24
1, 257760, Tempo, 1643836
1, 257760, Note_on_c, 0, 49, 0
1, 257760, Note_on_c, 0, 42, 27
1, 257840, Note_on_c, 0, 42, 0
1, 257840, Note_on_c, 0, 37, 23
1, 257920, Note_on_c, 0, 37, 0
1, 257920, Note_on_c, 0, 42, 23
1, 257995, Note_on_c, 0, 78, 0
1, 257995, Note_on_c, 0, 90, 0
1, 257995, Note_on_c, 0, 82, 0
1, 258000, Tempo, 1714286
1, 258000, Note_on_c, 0, 42, 0
1, 258000, Note_on_c, 0, 94, 44
1, 258000, Note_on_c, 0, 85, 35
1, 258000, Note_on_c, 0, 82, 35
1, 258000, Note_on_c, 0, 30, 27
1, 258080, Note_on_c, 0, 30, 0
1, 258080, Note_on_c, 0, 37, 23
1, 258160, Note_on_c, 0, 37, 0
1, 258160, Note_on_c, 0, 30, 23
1, 258240, Note_on_c, 0, 30, 0
1, 258240, Note_on_c, 0, 42, 27
1, 258320, Note_on_c, 0, 42, 0
1, 258320, Note_on_c, 0, 37, 24
1, 258400, Note_on_c, 0, 37, 0
1, 258400, Note_on_c, 0, 42, 24
1, 258480, Note_on_c, 0, 42, 0
1, 258480, Note_on_c, 0, 30, 27
1, 258560, Note_on_c, 0, 30, 0
1, 258560, Note_on_c, 0, 37, 24
1, 258640, Note_on_c, 0, 37, 0
1, 258640, Note_on_c, 0, 30, 24
1, 258720, Note_on_c, 0, 30, 0
1, 258720, Note_on_c, 0, 42, 27
1, 258800, Note_on_c, 0, 42, 0
1, 258800, Note_on_c, 0, 37, 23
1, 258880, Note_on_c, 0, 37, 0
1, 258880, Note_on_c, 0, 42, 23
1, 258951, Note_on_c, 0, 94, 0
1, 258951, Note_on_c, 0, 82, 0
1, 258951, Note_on_c, 0, 85, 0
1, 258960, Note_on_c, 0, 42, 0
1, 258960, Note_on_c, 0, 73, 35
1, 258960, Note_on_c, 0, 37, 27
1, 259040, Note_on_c, 0, 37, 0
1, 259040, Note_on_c, 0, 42, 24
1, 259120, Note_on_c, 0, 42, 0
1, 259120, Note_on_c, 0, 37, 24
1, 259200, Tempo, 1518987
1, 259200, Note_on_c, 0, 37, 0
1, 259200, Note_on_c, 0, 73, 0
1, 259200, Note_on_c, 0, 73, 38
1, 259200, Note_on_c, 0, 49, 30
1, 259267, Control_c, 0, 64, 0
1, 259395, Control_c, 0, 64, 127
1, 259440, Note_on_c, 0, 49, 0
1, 259440, Note_on_c, 0, 61, 26
1, 259680, Tempo, 1621622
1, 259680, Note_on_c, 0, 61, 0
1, 259680, Note_on_c, 0, 73, 0
1, 259680, Note_on_c, 0, 69, 33
1, 259680, Note_on_c, 0, 57, 26
1, 259862, Control_c, 0, 64, 0
1, 259918, Note_on_c, 0, 57, 0
1, 259918, Note_on_c, 0, 69, 0
1, 259920, Tempo, 1558442
1, 259920, Note_on_c, 0, 69, 37
1, 259920, Note_on_c, 0, 57, 28
1, 259953, Control_c, 0, 64, 127
1, 260160, Tempo, 1481481
1, 260160, Note_on_c, 0, 57, 0
1, 260160, Note_on_c, 0, 69, 0
1, 260160, Note_on_c, 0, 66, 32
1, 260160, Note_on_c, 0, 54, 24
1, 260351, Control_c, 0, 64, 0
1, 260400, Tempo, 1578947
1, 260400, Note_on_c, 0, 54, 0
1, 260400, Note_on_c, 0, 66, 0
1, 260400, Note_on_c, 0, 65, 27
1, 260400, Note_on_c, 0, 68, 32
1, 260400, Note_on_c, 0, 61, 27
1, 260400, Note_on_c, 0, 53, 20
1, 260400, Note_on_c, 0, 49, 20
1, 260400, Note_on_c, 0, 56, 24
1, 260458, Control_c, 0, 64, 127
1, 260640, Tempo, 1518987
1, 260640, Note_on_c, 0, 56, 0
1, 260640, Note_on_c, 0, 68, 0
1, 260640, Note_on_c, 0, 61, 0
1, 260640, Note_on_c, 0, 65, 0
1, 260640, Note_on_c, 0, 49, 0
1, 260640, Note_on_c, 0, 53, 0
1, 260640, Note_on_c, 0, 66, 33
1, 260640, Note_on_c, 0, 69, 40
1, 260640, Note_on_c, 0, 61, 33
1, 260640, Note_on_c, 0, 57, 33
1, 260640, Note_on_c, 0, 54, 27
1, 260646, Control_c, 0, 64, 0
1, 260827, Control_c, 0, 64, 127
1, 260880, Note_on_c, 0, 54, 0
1, 260880, Note_on_c, 0, 57, 0
1, 260880, Note_on_c, 0, 42, 28
1, 260880, Note_on_c, 0, 54, 32
1, 261120, Note_on_c, 0, 66, 0
1, 261120, Note_on_c, 0, 61, 0
1, 261120, Note_on_c, 0, 69, 0
1, 261120, Note_on_c, 0, 58, 29
1, 261120, Note_on_c, 0, 61, 29
1, 261120, Note_on_c, 0, 66, 29
1, 261120, Note_on_c, 0, 70, 37
1, 261132, Control_c, 0, 64, 0
1, 261246, Control_c, 0, 64, 127
1, 261360, Note_on_c, 0, 70, 0
1, 261360, Note_on_c, 0, 61, 0
1, 261360, Note_on_c, 0, 58, 0
1, 261360, Note_on_c, 0, 66, 0
1, 261360, Note_on_c, 0, 62, 36
1, 261360, Note_on_c, 0, 59, 36
1, 261360, Note_on_c, 0, 71, 46
1, 261360, Note_on_c, 0, 66, 36
1, 261372, Control_c, 0, 64, 0
1, 261560, Control_c, 0, 64, 127
1, 261600, Tempo, 1500000
1, 261600, Note_on_c, 0, 54, 0
1, 261600, Note_on_c, 0, 42, 0
1, 261600, Note_on_c, 0, 35, 28
1, 261600, Note_on_c, 0, 47, 34
1, 261840, Tempo, 1621622
1, 261840, Note_on_c, 0, 47, 0
1, 261840, Note_on_c, 0, 66, 0
1, 261840, Note_on_c, 0, 62, 0
1, 261840, Note_on_c, 0, 59, 0
1, 261840, Note_on_c, 0, 35, 0
1, 261840, Note_on_c, 0, 71, 0
1, 261840, Note_on_c, 0, 70, 39
1, 261840, Note_on_c, 0, 66, 39
1, 261840, Note_on_c, 0, 61, 39
1, 261840, Note_on_c, 0, 73, 49
1, 261840, Note_on_c, 0, 30, 32
1, 261840, Note_on_c, 0, 42, 39
1, 261851, Control_c, 0, 64, 0
1, 261943, Control_c, 0, 64, 127
1, 262080, Tempo, 1818182
1, 262080, Note_on_c, 0, 42, 0
1, 262080, Note_on_c, 0, 66, 0
1, 262080, Note_on_c, 0, 61, 0
1, 262080, Note_on_c, 0, 70, 0
1, 262080, Note_on_c, 0, 30, 0
1, 262080, Note_on_c, 0, 73, 0
1, 262080, Note_on_c, 0, 71, 44
1, 262080, Note_on_c, 0, 62, 44
1, 262080, Note_on_c, 0, 74, 56
1, 262080, Note_on_c, 0, 66, 44
1, 262080, Note_on_c, 0, 35, 42
1, 262080, Control_c, 0, 64, 0
1, 262132, Control_c, 0, 64, 127
1, 262318, Note_on_c, 0, 66, 0
1, 262318, Note_on_c, 0, 74, 0
1, 262318, Note_on_c, 0, 71, 0
1, 262318, Note_on_c, 0, 62, 0
1, 262320, Tempo, 1621622
1, 262320, Note_on_c, 0, 35, 0
1, 262320, Note_on_c, 0, 71, 28
1, 262320, Note_on_c, 0, 68, 28
1, 262320, Note_on_c, 0, 74, 35
1, 262320, Note_on_c, 0, 62, 28
1, 262320, Note_on_c, 0, 29, 28
1, 262320, Note_on_c, 0, 41, 34
1, 262332, Control_c, 0, 64, 0
1, 262417, Control_c, 0, 64, 127
1, 262560, Tempo, 1621622
1, 262795, Note_on_c, 0, 41, 0
1, 262795, Note_on_c, 0, 68, 0
1, 262795, Note_on_c, 0, 74, 0
1, 262795, Note_on_c, 0, 71, 0
1, 262795, Note_on_c, 0, 29, 0
1, 262795, Note_on_c, 0, 62, 0
1, 262800, Note_on_c, 0, 71, 33
1, 262800, Note_on_c, 0, 68, 33
1, 262800, Note_on_c, 0, 74, 42
1, 262800, Note_on_c, 0, 62, 33
1, 262800, Note_on_c, 0, 29, 28
1, 262800, Note_on_c, 0, 41, 34
1, 263040, Tempo, 1578947
1, 263275, Note_on_c, 0, 41, 0
1, 263275, Note_on_c, 0, 68, 0
1, 263275, Note_on_c, 0, 74, 0
1, 263275, Note_on_c, 0, 71, 0
1, 263275, Note_on_c, 0, 29, 0
1, 263275, Note_on_c, 0, 62, 0
1, 263280, Tempo, 1666667
1, 263280, Note_on_c, 0, 62, 25
1, 263280, Note_on_c, 0, 68, 25
1, 263280, Note_on_c, 0, 71, 25
1, 263280, Note_on_c, 0, 74, 32
1, 263280, Note_on_c, 0, 41, 30
1, 263280, Note_on_c, 0, 29, 25
1, 263292, Control_c, 0, 64, 0
1, 263400, Note_on_c, 0, 29, 0
1, 263400, Note_on_c, 0, 68, 0
1, 263400, Note_on_c, 0, 71, 0
1, 263400, Note_on_c, 0, 62, 0
1, 263400, Note_on_c, 0, 41, 0
1, 263400, Note_on_c, 0, 74, 0
1, 263400, Note_on_c, 0, 70, 25
1, 263400, Note_on_c, 0, 61, 25
1, 263400, Note_on_c, 0, 73, 32
1, 263400, Note_on_c, 0, 30, 26
1, 263400, Note_on_c, 0, 42, 31
1, 263517, Note_on_c, 0, 42, 0
1, 263517, Note_on_c, 0, 73, 0
1, 263517, Note_on_c, 0, 70, 0
1, 263517, Note_on_c, 0, 61, 0
1, 263517, Note_on_c, 0, 30, 0
1, 263520, Note_on_c, 0, 61, 33
1, 263520, Note_on_c, 0, 70, 33
1, 263520, Note_on_c, 0, 73, 39
1, 263520, Note_on_c, 0, 30, 28
1, 263520, Note_on_c, 0, 42, 34
1, 263707, Control_c, 0, 64, 127
1, 264240, Note_on_c, 0, 42, 0
1, 264240, Note_on_c, 0, 30, 0
1, 264240, Note_on_c, 0, 42, 24
1, 264240, Note_on_c, 0, 49, 24
1, 264240, Note_on_c, 0, 58, 29
1, 264960, Note_on_c, 0, 61, 0
1, 264960, Note_on_c, 0, 73, 0
1, 264960, Note_on_c, 0, 70, 0
1, 264960, Note_on_c, 0, 70, 28
1, 264960, Note_on_c, 0, 78, 28
1, 264960, Note_on_c, 0, 85, 33
1, 265680, Note_on_c, 0, 42, 0
1, 265680, Note_on_c, 0, 58, 0
1, 265680, Note_on_c, 0, 49, 0
1, 265680, Note_on_c, 0, 30, 19
1, 265680, Note_on_c, 0, 37, 19
1, 265680, Note_on_c, 0, 46, 23
1, 266398, Note_on_c, 0, 70, 0
1, 266398, Note_on_c, 0, 85, 0
1, 266398, Note_on_c, 0, 78, 0
1, 266400, Note_on_c, 0, 70, 28
1, 266400, Note_on_c, 0, 78, 28
1, 266400, Note_on_c, 0, 85, 33
1, 267120, Note_on_c, 0, 85, 0
1, 267120, Note_on_c, 0, 37, 0
1, 267120, Note_on_c, 0, 30, 0
1, 267120, Note_on_c, 0, 46, 0
1, 267120, Note_on_c, 0, 78, 0
1, 267120, Note_on_c, 0, 70, 0
1, 267120, Note_on_c, 0, 58, 28
1, 267120, Note_on_c, 0, 66, 28
1, 267120, Note_on_c, 0, 73, 33
1, 267120, Note_on_c, 0, 30, 19
1, 267120, Note_on_c, 0, 37, 19
1, 267120, Note_on_c, 0, 46, 23
1, 267797, Tempo, 1621622
1, 267812, Tempo, 1621622
1, 267840, Note_on_c, 0, 46, 0
1, 267840, Note_on_c, 0, 66, 0
1, 267840, Note_on_c, 0, 73, 0
1, 267840, Note_on_c, 0, 58, 0
1, 267840, Note_on_c, 0, 37, 0
1, 267840, Note_on_c, 0, 30, 0
1, 267840, Note_on_c, 0, 30, 16
1, 267842, Tempo, 1643836
1, 267857, Tempo, 1666667
1, 267872, Tempo, 1690141
1, 267887, Tempo, 1714286
1, 267900, Note_on_c, 0, 37, 18
1, 267902, Tempo, 1739130
1, 267917, Tempo, 1764706
1, 267932, Tempo, 1791045
1, 267947, Tempo, 1818182
1, 267960, Note_on_c, 0, 46, 20
1, 267962, Tempo, 1846154
1, 267977, Tempo, 1875000
1, 267992, Tempo, 1904762
1, 268007, Tempo, 1935484
1, 268020, Note_on_c, 0, 58, 24
1, 268022, Tempo, 1967213
1, 268037, Tempo, 2000000
1, 268052, Tempo, 2033898
1, 268067, Tempo, 1904762
1, 268080, Note_on_c, 0, 66, 24
1, 268082, Tempo, 2142857
1, 268097, Tempo, 2448980
1, 268112, Tempo, 2857143
1, 268127, Tempo, 3428571
1, 268140, Note_on_c, 0, 73, 33
1, 268142, Tempo, 4285714
1, 268157, Tempo, 6000000
1, 268320, Note_on_c, 0, 73, 0
1, 268320, Note_on_c, 0, 37, 0
1, 268320, Note_on_c, 0, 46, 0
1, 268320, Note_on_c, 0, 30, 0
1, 268320, Note_on_c, 0, 66, 0
1, 268320, Note_on_c, 0, 58, 0
1, 268640, Control_c, 0, 64, 0
1, 268640, End_track
0, 0, End_of_file
