0, 0, Header, 0, 1, 480
1, 0, Start_track
1, 0, Title_t, "Petite Suite"
1, 0, Title_t, "3. Mazurka"
1, 0, Copyright_t, "Copyright © 2000 by Bernd Krueger"
1, 0, Text_t, "Alexander Borodin"
1, 0, Text_t, "Fertiggestellt am 21.6.2000\012"
1, 0, Text_t, "Update am 21.8.2000\012"
1, 0, Text_t, "Normierung: 23.12.2002\012"
1, 0, Text_t, "Dauer: 2:40 Minuten\012"
1, 0, SMPTE_offset, 96, 0, 3, 0, 0
1, 0, Time_signature, 3, 2, 24, 8
1, 0, Key_signature, 0, "major"
1, 0, Tempo, 355030
1, 0, Marker_t, "Allegro"
1, 0, Program_c, 0, 0
1, 0, Control_c, 0, 7, 100
1, 0, Control_c, 0, 64, 0
1, 0, Control_c, 0, 91, 127
1, 0, Text_t, "bdca426d104a26ac9dcb070447587523"
1, 0, Program_c, 0, 0
1, 0, Control_c, 0, 7, 100
1, 0, Note_on_c, 0, 65, 38
1, 53, Control_c, 0, 64, 127
1, 480, Tempo, 344828
1, 480, Note_on_c, 0, 67, 47
1, 1307, Control_c, 0, 64, 0
1, 1440, Note_on_c, 0, 67, 0
1, 1440, Note_on_c, 0, 65, 0
1, 1440, Note_on_c, 0, 65, 44
1, 1493, Control_c, 0, 64, 127
1, 1920, Note_on_c, 0, 67, 53
1, 2560, Control_c, 0, 64, 0
1, 2880, Tempo, 339443
1, 2880, Note_on_c, 0, 67, 0
1, 2880, Note_on_c, 0, 65, 0
1, 2880, Note_on_c, 0, 65, 48
1, 2907, Control_c, 0, 64, 127
1, 3040, Tempo, 338409
1, 3200, Tempo, 337382
1, 3360, Tempo, 336379
1, 3360, Note_on_c, 0, 67, 58
1, 3520, Tempo, 335364
1, 3680, Tempo, 334355
1, 3707, Control_c, 0, 64, 0
1, 3840, Tempo, 333370
1, 3840, Note_on_c, 0, 65, 0
1, 3840, Note_on_c, 0, 65, 51
1, 3893, Control_c, 0, 64, 127
1, 4000, Tempo, 332373
1, 4160, Tempo, 331382
1, 4320, Tempo, 330396
1, 4320, Note_on_c, 0, 67, 0
1, 4320, Note_on_c, 0, 67, 63
1, 4480, Tempo, 329435
1, 4640, Tempo, 328461
1, 4667, Control_c, 0, 64, 0
1, 4800, Tempo, 327493
1, 4800, Note_on_c, 0, 65, 0
1, 4800, Note_on_c, 0, 65, 55
1, 4853, Control_c, 0, 64, 127
1, 4960, Tempo, 326531
1, 5120, Tempo, 325591
1, 5280, Tempo, 324640
1, 5280, Note_on_c, 0, 67, 0
1, 5280, Note_on_c, 0, 67, 67
1, 5320, Tempo, 324640
1, 5360, Tempo, 325591
1, 5387, Control_c, 0, 64, 0
1, 5400, Tempo, 327493
1, 5440, Tempo, 328461
1, 5480, Tempo, 330396
1, 5520, Tempo, 331382
1, 5560, Tempo, 333370
1, 5600, Tempo, 335364
1, 5640, Tempo, 336379
1, 5760, Tempo, 357931
1, 5760, Note_on_c, 0, 65, 0
1, 5760, Note_on_c, 0, 36, 73
1, 5760, Note_on_c, 0, 43, 73
1, 5859, Control_c, 0, 64, 127
1, 6180, Note_on_c, 0, 67, 0
1, 6180, Note_on_c, 0, 65, 59
1, 6180, Note_on_c, 0, 71, 69
1, 6240, Tempo, 333370
1, 6240, Note_on_c, 0, 43, 0
1, 6240, Note_on_c, 0, 36, 0
1, 6240, Note_on_c, 0, 76, 78
1, 6240, Note_on_c, 0, 67, 63
1, 6720, Tempo, 344689
1, 6946, Control_c, 0, 64, 0
1, 6960, Note_on_c, 0, 76, 0
1, 6960, Note_on_c, 0, 74, 74
1, 7140, Note_on_c, 0, 74, 0
1, 7140, Note_on_c, 0, 72, 64
1, 7200, Note_on_c, 0, 72, 0
1, 7200, Note_on_c, 0, 71, 0
1, 7200, Note_on_c, 0, 65, 0
1, 7200, Note_on_c, 0, 67, 0
1, 7200, Note_on_c, 0, 64, 70
1, 7200, Note_on_c, 0, 76, 79
1, 7200, Note_on_c, 0, 36, 73
1, 7200, Note_on_c, 0, 43, 73
1, 7264, Control_c, 0, 64, 127
1, 7440, Note_on_c, 0, 76, 0
1, 7440, Note_on_c, 0, 64, 0
1, 7560, Note_on_c, 0, 71, 73
1, 7650, Note_on_c, 0, 71, 0
1, 7680, Note_on_c, 0, 36, 0
1, 7680, Note_on_c, 0, 43, 0
1, 7680, Note_on_c, 0, 72, 79
1, 7680, Note_on_c, 0, 64, 66
1, 7680, Note_on_c, 0, 55, 60
1, 7920, Note_on_c, 0, 64, 0
1, 7920, Note_on_c, 0, 72, 0
1, 8040, Note_on_c, 0, 74, 69
1, 8130, Note_on_c, 0, 74, 0
1, 8160, Tempo, 351185
1, 8160, Note_on_c, 0, 55, 0
1, 8160, Note_on_c, 0, 64, 73
1, 8160, Note_on_c, 0, 76, 81
1, 8160, Note_on_c, 0, 60, 67
1, 8400, Control_c, 0, 64, 0
1, 8580, Note_on_c, 0, 76, 0
1, 8580, Note_on_c, 0, 64, 0
1, 8580, Note_on_c, 0, 72, 55
1, 8640, Tempo, 339443
1, 8640, Note_on_c, 0, 60, 0
1, 8640, Note_on_c, 0, 76, 59
1, 8640, Note_on_c, 0, 50, 55
1, 8651, Control_c, 0, 64, 127
1, 8880, Note_on_c, 0, 76, 0
1, 8880, Note_on_c, 0, 72, 0
1, 9000, Tempo, 338409
1, 9000, Note_on_c, 0, 78, 53
1, 9063, Control_c, 0, 64, 0
1, 9090, Note_on_c, 0, 78, 0
1, 9120, Tempo, 343623
1, 9120, Note_on_c, 0, 50, 0
1, 9120, Note_on_c, 0, 72, 52
1, 9120, Note_on_c, 0, 79, 59
1, 9120, Note_on_c, 0, 64, 53
1, 9240, Note_on_c, 0, 64, 0
1, 9240, Note_on_c, 0, 79, 0
1, 9240, Note_on_c, 0, 72, 0
1, 9600, Tempo, 360252
1, 9600, Note_on_c, 0, 81, 61
1, 9600, Note_on_c, 0, 72, 55
1, 9600, Note_on_c, 0, 66, 56
1, 9720, Note_on_c, 0, 66, 0
1, 9720, Note_on_c, 0, 72, 0
1, 9720, Note_on_c, 0, 81, 0
1, 10020, Note_on_c, 0, 79, 57
1, 10031, Control_c, 0, 64, 127
1, 10080, Tempo, 343623
1, 10080, Note_on_c, 0, 79, 0
1, 10080, Note_on_c, 0, 83, 64
1, 10080, Note_on_c, 0, 71, 58
1, 10080, Note_on_c, 0, 67, 63
1, 10560, Tempo, 347907
1, 10560, Note_on_c, 0, 67, 0
1, 10560, Note_on_c, 0, 62, 56
1, 11040, Tempo, 343623
1, 11040, Note_on_c, 0, 62, 0
1, 11040, Note_on_c, 0, 71, 0
1, 11040, Note_on_c, 0, 83, 0
1, 11040, Note_on_c, 0, 71, 53
1, 11040, Note_on_c, 0, 79, 60
1, 11040, Note_on_c, 0, 55, 57
1, 11147, Control_c, 0, 64, 0
1, 11460, Note_on_c, 0, 55, 0
1, 11460, Note_on_c, 0, 79, 0
1, 11460, Note_on_c, 0, 71, 0
1, 11460, Note_on_c, 0, 77, 62
1, 11471, Control_c, 0, 64, 127
1, 11520, Note_on_c, 0, 77, 0
1, 11520, Note_on_c, 0, 81, 71
1, 11520, Note_on_c, 0, 60, 62
1, 11520, Note_on_c, 0, 53, 62
1, 11760, Tempo, 353399
1, 11760, Note_on_c, 0, 81, 0
1, 11760, Note_on_c, 0, 83, 70
1, 11965, Control_c, 0, 64, 0
1, 12000, Tempo, 339443
1, 12000, Note_on_c, 0, 83, 0
1, 12000, Note_on_c, 0, 53, 0
1, 12000, Note_on_c, 0, 60, 0
1, 12000, Note_on_c, 0, 84, 75
1, 12000, Note_on_c, 0, 77, 67
1, 12000, Note_on_c, 0, 69, 67
1, 12000, Note_on_c, 0, 62, 60
1, 12021, Control_c, 0, 64, 127
1, 12160, Note_on_c, 0, 84, 0
1, 12160, Note_on_c, 0, 86, 67
1, 12320, Note_on_c, 0, 86, 0
1, 12320, Note_on_c, 0, 84, 67
1, 12480, Tempo, 345742
1, 12480, Note_on_c, 0, 84, 0
1, 12480, Note_on_c, 0, 83, 72
1, 12720, Note_on_c, 0, 83, 0
1, 12720, Note_on_c, 0, 81, 63
1, 12762, Control_c, 0, 64, 0
1, 12960, Tempo, 342564
1, 12960, Note_on_c, 0, 81, 0
1, 12960, Note_on_c, 0, 77, 0
1, 12960, Note_on_c, 0, 69, 0
1, 12960, Note_on_c, 0, 62, 0
1, 12960, Note_on_c, 0, 76, 67
1, 12960, Note_on_c, 0, 79, 75
1, 12960, Note_on_c, 0, 55, 56
1, 12974, Control_c, 0, 64, 127
1, 13320, Tempo, 353982
1, 13320, Note_on_c, 0, 79, 0
1, 13320, Note_on_c, 0, 76, 0
1, 13320, Note_on_c, 0, 79, 66
1, 13320, Note_on_c, 0, 76, 59
1, 13369, Control_c, 0, 64, 0
1, 13410, Note_on_c, 0, 76, 0
1, 13410, Note_on_c, 0, 79, 0
1, 13440, Tempo, 347907
1, 13440, Note_on_c, 0, 55, 0
1, 13440, Note_on_c, 0, 74, 60
1, 13440, Note_on_c, 0, 77, 67
1, 13440, Note_on_c, 0, 67, 58
1, 13489, Control_c, 0, 64, 127
1, 13920, Note_on_c, 0, 77, 0
1, 13920, Note_on_c, 0, 74, 0
1, 13920, Note_on_c, 0, 72, 56
1, 13920, Note_on_c, 0, 76, 62
1, 14400, Tempo, 342564
1, 14400, Note_on_c, 0, 76, 0
1, 14400, Note_on_c, 0, 72, 0
1, 14400, Note_on_c, 0, 67, 0
1, 14400, Note_on_c, 0, 74, 66
1, 14400, Note_on_c, 0, 71, 59
1, 14400, Note_on_c, 0, 55, 50
1, 14449, Control_c, 0, 64, 0
1, 14760, Tempo, 351906
1, 14760, Note_on_c, 0, 71, 0
1, 14760, Note_on_c, 0, 74, 0
1, 14760, Note_on_c, 0, 71, 53
1, 14760, Note_on_c, 0, 74, 60
1, 14850, Note_on_c, 0, 74, 0
1, 14850, Note_on_c, 0, 71, 0
1, 14880, Tempo, 346821
1, 14880, Note_on_c, 0, 55, 0
1, 14880, Note_on_c, 0, 79, 64
1, 15346, Control_c, 0, 64, 127
1, 15360, Note_on_c, 0, 72, 50
1, 15360, Note_on_c, 0, 76, 56
1, 15360, Note_on_c, 0, 69, 50
1, 15360, Note_on_c, 0, 67, 57
1, 15840, Note_on_c, 0, 67, 0
1, 15840, Note_on_c, 0, 76, 0
1, 15840, Note_on_c, 0, 79, 0
1, 15840, Note_on_c, 0, 72, 0
1, 15840, Note_on_c, 0, 69, 0
1, 15840, Note_on_c, 0, 72, 60
1, 15840, Note_on_c, 0, 69, 53
1, 15840, Note_on_c, 0, 55, 51
1, 15868, Control_c, 0, 64, 0
1, 16200, Tempo, 358209
1, 16200, Note_on_c, 0, 69, 0
1, 16200, Note_on_c, 0, 72, 0
1, 16200, Note_on_c, 0, 72, 57
1, 16200, Note_on_c, 0, 69, 51
1, 16290, Note_on_c, 0, 69, 0
1, 16290, Note_on_c, 0, 72, 0
1, 16320, Tempo, 346821
1, 16320, Note_on_c, 0, 55, 0
1, 16320, Note_on_c, 0, 79, 61
1, 16800, Note_on_c, 0, 71, 48
1, 16800, Note_on_c, 0, 74, 53
1, 16800, Note_on_c, 0, 67, 56
1, 16821, Control_c, 0, 64, 127
1, 17238, Control_c, 0, 64, 0
1, 17280, Tempo, 357931
1, 17280, Note_on_c, 0, 67, 0
1, 17280, Note_on_c, 0, 79, 0
1, 17280, Note_on_c, 0, 71, 0
1, 17280, Note_on_c, 0, 74, 0
1, 17280, Note_on_c, 0, 43, 73
1, 17280, Note_on_c, 0, 36, 73
1, 17379, Control_c, 0, 64, 127
1, 17700, Note_on_c, 0, 65, 60
1, 17700, Note_on_c, 0, 71, 69
1, 17760, Tempo, 333370
1, 17760, Note_on_c, 0, 36, 0
1, 17760, Note_on_c, 0, 43, 0
1, 17760, Note_on_c, 0, 76, 78
1, 17760, Note_on_c, 0, 67, 63
1, 18240, Tempo, 344689
1, 18466, Control_c, 0, 64, 0
1, 18480, Note_on_c, 0, 76, 0
1, 18480, Note_on_c, 0, 74, 74
1, 18660, Note_on_c, 0, 74, 0
1, 18660, Note_on_c, 0, 72, 64
1, 18720, Note_on_c, 0, 72, 0
1, 18720, Note_on_c, 0, 71, 0
1, 18720, Note_on_c, 0, 65, 0
1, 18720, Note_on_c, 0, 67, 0
1, 18720, Note_on_c, 0, 76, 79
1, 18720, Note_on_c, 0, 64, 70
1, 18720, Note_on_c, 0, 36, 73
1, 18720, Note_on_c, 0, 43, 73
1, 18784, Control_c, 0, 64, 127
1, 18960, Note_on_c, 0, 64, 0
1, 18960, Note_on_c, 0, 76, 0
1, 19080, Note_on_c, 0, 71, 73
1, 19170, Note_on_c, 0, 71, 0
1, 19200, Note_on_c, 0, 36, 0
1, 19200, Note_on_c, 0, 43, 0
1, 19200, Note_on_c, 0, 72, 79
1, 19200, Note_on_c, 0, 64, 68
1, 19200, Note_on_c, 0, 55, 57
1, 19440, Note_on_c, 0, 64, 0
1, 19440, Note_on_c, 0, 72, 0
1, 19560, Note_on_c, 0, 74, 69
1, 19650, Note_on_c, 0, 74, 0
1, 19680, Tempo, 351185
1, 19680, Note_on_c, 0, 55, 0
1, 19680, Note_on_c, 0, 64, 73
1, 19680, Note_on_c, 0, 76, 81
1, 19680, Note_on_c, 0, 60, 67
1, 19920, Control_c, 0, 64, 0
1, 20100, Note_on_c, 0, 76, 0
1, 20100, Note_on_c, 0, 64, 0
1, 20100, Note_on_c, 0, 72, 55
1, 20160, Tempo, 339443
1, 20160, Note_on_c, 0, 60, 0
1, 20160, Note_on_c, 0, 76, 59
1, 20160, Note_on_c, 0, 50, 55
1, 20171, Control_c, 0, 64, 127
1, 20400, Note_on_c, 0, 76, 0
1, 20400, Note_on_c, 0, 72, 0
1, 20520, Tempo, 338409
1, 20520, Note_on_c, 0, 78, 53
1, 20583, Control_c, 0, 64, 0
1, 20610, Note_on_c, 0, 78, 0
1, 20640, Tempo, 343623
1, 20640, Note_on_c, 0, 50, 0
1, 20640, Note_on_c, 0, 79, 59
1, 20640, Note_on_c, 0, 72, 52
1, 20640, Note_on_c, 0, 64, 53
1, 20760, Note_on_c, 0, 64, 0
1, 20760, Note_on_c, 0, 72, 0
1, 20760, Note_on_c, 0, 79, 0
1, 21120, Tempo, 360252
1, 21120, Note_on_c, 0, 81, 61
1, 21120, Note_on_c, 0, 72, 55
1, 21120, Note_on_c, 0, 66, 56
1, 21240, Note_on_c, 0, 66, 0
1, 21240, Note_on_c, 0, 72, 0
1, 21240, Note_on_c, 0, 81, 0
1, 21540, Note_on_c, 0, 79, 59
1, 21551, Control_c, 0, 64, 127
1, 21600, Tempo, 343623
1, 21600, Note_on_c, 0, 79, 0
1, 21600, Note_on_c, 0, 71, 58
1, 21600, Note_on_c, 0, 83, 64
1, 21600, Note_on_c, 0, 67, 63
1, 22080, Tempo, 347907
1, 22080, Note_on_c, 0, 67, 0
1, 22080, Note_on_c, 0, 62, 58
1, 22560, Tempo, 343623
1, 22560, Note_on_c, 0, 62, 0
1, 22560, Note_on_c, 0, 83, 0
1, 22560, Note_on_c, 0, 71, 0
1, 22560, Note_on_c, 0, 79, 60
1, 22560, Note_on_c, 0, 71, 53
1, 22560, Note_on_c, 0, 55, 57
1, 22667, Control_c, 0, 64, 0
1, 22980, Note_on_c, 0, 55, 0
1, 22980, Note_on_c, 0, 71, 0
1, 22980, Note_on_c, 0, 79, 0
1, 22980, Note_on_c, 0, 77, 63
1, 22991, Control_c, 0, 64, 127
1, 23040, Tempo, 357931
1, 23040, Note_on_c, 0, 77, 0
1, 23040, Note_on_c, 0, 81, 70
1, 23040, Note_on_c, 0, 60, 62
1, 23040, Note_on_c, 0, 53, 62
1, 23280, Tempo, 353399
1, 23280, Note_on_c, 0, 81, 0
1, 23280, Note_on_c, 0, 83, 67
1, 23485, Control_c, 0, 64, 0
1, 23520, Tempo, 339443
1, 23520, Note_on_c, 0, 83, 0
1, 23520, Note_on_c, 0, 53, 0
1, 23520, Note_on_c, 0, 60, 0
1, 23520, Note_on_c, 0, 77, 67
1, 23520, Note_on_c, 0, 84, 75
1, 23520, Note_on_c, 0, 69, 67
1, 23520, Note_on_c, 0, 62, 60
1, 23541, Control_c, 0, 64, 127
1, 23680, Note_on_c, 0, 84, 0
1, 23680, Note_on_c, 0, 86, 67
1, 23840, Note_on_c, 0, 86, 0
1, 23840, Note_on_c, 0, 84, 67
1, 24000, Tempo, 345742
1, 24000, Note_on_c, 0, 84, 0
1, 24000, Note_on_c, 0, 83, 72
1, 24240, Note_on_c, 0, 83, 0
1, 24240, Note_on_c, 0, 81, 63
1, 24282, Control_c, 0, 64, 0
1, 24480, Tempo, 342564
1, 24480, Note_on_c, 0, 81, 0
1, 24480, Note_on_c, 0, 77, 0
1, 24480, Note_on_c, 0, 69, 0
1, 24480, Note_on_c, 0, 62, 0
1, 24480, Note_on_c, 0, 76, 67
1, 24480, Note_on_c, 0, 79, 75
1, 24480, Note_on_c, 0, 55, 56
1, 24494, Control_c, 0, 64, 127
1, 24840, Tempo, 351906
1, 24840, Note_on_c, 0, 79, 0
1, 24840, Note_on_c, 0, 76, 0
1, 24840, Note_on_c, 0, 79, 66
1, 24840, Note_on_c, 0, 76, 59
1, 24889, Control_c, 0, 64, 0
1, 24930, Note_on_c, 0, 76, 0
1, 24930, Note_on_c, 0, 79, 0
1, 24960, Tempo, 347907
1, 24960, Note_on_c, 0, 55, 0
1, 24960, Note_on_c, 0, 77, 67
1, 24960, Note_on_c, 0, 74, 60
1, 24960, Note_on_c, 0, 67, 58
1, 25009, Control_c, 0, 64, 127
1, 25440, Note_on_c, 0, 74, 0
1, 25440, Note_on_c, 0, 77, 0
1, 25440, Note_on_c, 0, 72, 56
1, 25440, Note_on_c, 0, 76, 62
1, 25920, Tempo, 342564
1, 25920, Note_on_c, 0, 76, 0
1, 25920, Note_on_c, 0, 72, 0
1, 25920, Note_on_c, 0, 67, 0
1, 25920, Note_on_c, 0, 74, 66
1, 25920, Note_on_c, 0, 71, 59
1, 25920, Note_on_c, 0, 55, 50
1, 25969, Control_c, 0, 64, 0
1, 26280, Note_on_c, 0, 71, 0
1, 26280, Note_on_c, 0, 74, 0
1, 26280, Note_on_c, 0, 71, 53
1, 26280, Note_on_c, 0, 74, 60
1, 26320, Tempo, 351906
1, 26370, Note_on_c, 0, 74, 0
1, 26370, Note_on_c, 0, 71, 0
1, 26400, Tempo, 346821
1, 26400, Note_on_c, 0, 55, 0
1, 26400, Note_on_c, 0, 79, 64
1, 26880, Note_on_c, 0, 72, 50
1, 26880, Note_on_c, 0, 69, 50
1, 26880, Note_on_c, 0, 76, 56
1, 26880, Note_on_c, 0, 67, 50
1, 27360, Note_on_c, 0, 67, 0
1, 27360, Note_on_c, 0, 69, 0
1, 27360, Note_on_c, 0, 79, 0
1, 27360, Note_on_c, 0, 72, 0
1, 27360, Note_on_c, 0, 76, 0
1, 27360, Note_on_c, 0, 71, 51
1, 27360, Note_on_c, 0, 74, 57
1, 27360, Note_on_c, 0, 65, 51
1, 27360, Note_on_c, 0, 67, 55
1, 27487, Control_c, 0, 64, 127
1, 27840, Note_on_c, 0, 74, 0
1, 27840, Note_on_c, 0, 76, 56
1, 28080, Tempo, 352299
1, 28080, Note_on_c, 0, 76, 0
1, 28080, Note_on_c, 0, 74, 52
1, 28320, Tempo, 361424
1, 28320, Note_on_c, 0, 74, 0
1, 28320, Note_on_c, 0, 71, 0
1, 28320, Note_on_c, 0, 65, 0
1, 28320, Note_on_c, 0, 67, 0
1, 28320, Note_on_c, 0, 72, 50
1, 28320, Note_on_c, 0, 64, 44
1, 28320, Control_c, 0, 64, 0
1, 28320, Note_on_c, 0, 60, 42
1, 28800, Key_signature, 1, "major"
1, 28800, Tempo, 341511
1, 28800, Note_on_c, 0, 60, 0
1, 28800, Note_on_c, 0, 64, 0
1, 28800, Note_on_c, 0, 72, 0
1, 28800, Control_c, 0, 64, 127
1, 28800, Note_on_c, 0, 43, 49
1, 29040, Tempo, 347907
1, 29040, Note_on_c, 0, 67, 49
1, 29280, Tempo, 351185
1, 29280, Note_on_c, 0, 67, 0
1, 29280, Note_on_c, 0, 59, 44
1, 29280, Note_on_c, 0, 55, 44
1, 29280, Note_on_c, 0, 67, 49
1, 29280, Note_on_c, 0, 50, 38
1, 29520, Note_on_c, 0, 67, 0
1, 29520, Control_c, 0, 64, 0
1, 29760, Tempo, 355661
1, 29760, Note_on_c, 0, 55, 0
1, 29760, Note_on_c, 0, 50, 0
1, 29760, Note_on_c, 0, 59, 0
1, 29760, Note_on_c, 0, 67, 50
1, 29760, Note_on_c, 0, 57, 45
1, 29760, Note_on_c, 0, 60, 45
1, 29760, Note_on_c, 0, 52, 42
1, 29873, Control_c, 0, 64, 127
1, 30099, Control_c, 0, 64, 0
1, 30240, Tempo, 342564
1, 30240, Note_on_c, 0, 52, 0
1, 30240, Note_on_c, 0, 57, 0
1, 30240, Note_on_c, 0, 43, 0
1, 30240, Note_on_c, 0, 67, 0
1, 30240, Note_on_c, 0, 60, 0
1, 30240, Control_c, 0, 64, 127
1, 30240, Note_on_c, 0, 43, 49
1, 30480, Tempo, 349000
1, 30480, Note_on_c, 0, 67, 49
1, 30720, Tempo, 351185
1, 30720, Note_on_c, 0, 67, 0
1, 30720, Note_on_c, 0, 55, 44
1, 30720, Note_on_c, 0, 59, 44
1, 30720, Note_on_c, 0, 67, 49
1, 30720, Note_on_c, 0, 50, 38
1, 30960, Note_on_c, 0, 67, 0
1, 31045, Control_c, 0, 64, 0
1, 31200, Tempo, 354526
1, 31200, Note_on_c, 0, 59, 0
1, 31200, Note_on_c, 0, 50, 0
1, 31200, Note_on_c, 0, 55, 0
1, 31200, Note_on_c, 0, 57, 45
1, 31200, Note_on_c, 0, 60, 45
1, 31200, Note_on_c, 0, 67, 50
1, 31200, Note_on_c, 0, 52, 39
1, 31271, Control_c, 0, 64, 127
1, 31468, Control_c, 0, 64, 0
1, 31680, Tempo, 344689
1, 31680, Note_on_c, 0, 52, 0
1, 31680, Note_on_c, 0, 60, 0
1, 31680, Note_on_c, 0, 43, 0
1, 31680, Note_on_c, 0, 57, 0
1, 31680, Note_on_c, 0, 67, 0
1, 31680, Note_on_c, 0, 43, 49
1, 32160, Tempo, 345742
1, 32160, Note_on_c, 0, 67, 49
1, 32160, Note_on_c, 0, 57, 44
1, 32160, Note_on_c, 0, 60, 44
1, 32160, Note_on_c, 0, 52, 40
1, 32216, Control_c, 0, 64, 127
1, 32400, Tempo, 351185
1, 32400, Note_on_c, 0, 60, 0
1, 32400, Note_on_c, 0, 57, 0
1, 32400, Note_on_c, 0, 64, 40
1, 32640, Tempo, 345742
1, 32640, Note_on_c, 0, 64, 0
1, 32640, Note_on_c, 0, 52, 0
1, 32640, Note_on_c, 0, 67, 0
1, 32640, Note_on_c, 0, 67, 50
1, 32640, Note_on_c, 0, 62, 45
1, 32640, Note_on_c, 0, 54, 40
1, 32824, Control_c, 0, 64, 0
1, 32880, Tempo, 351185
1, 32880, Note_on_c, 0, 62, 0
1, 32880, Note_on_c, 0, 60, 44
1, 33120, Note_on_c, 0, 60, 0
1, 33120, Note_on_c, 0, 54, 0
1, 33120, Note_on_c, 0, 67, 0
1, 33120, Note_on_c, 0, 43, 0
1, 33120, Note_on_c, 0, 59, 47
1, 33120, Note_on_c, 0, 67, 52
1, 33120, Control_c, 0, 64, 127
1, 33120, Note_on_c, 0, 43, 49
1, 33360, Note_on_c, 0, 59, 0
1, 33360, Note_on_c, 0, 60, 42
1, 33560, Tempo, 351185
1, 33600, Note_on_c, 0, 60, 0
1, 33600, Note_on_c, 0, 67, 0
1, 33600, Note_on_c, 0, 59, 41
1, 33600, Note_on_c, 0, 55, 44
1, 33714, Control_c, 0, 64, 0
1, 33760, Tempo, 352299
1, 33840, Note_on_c, 0, 59, 0
1, 33840, Note_on_c, 0, 58, 40
1, 33960, Tempo, 353399
1, 34080, Note_on_c, 0, 58, 0
1, 34080, Note_on_c, 0, 55, 0
1, 34080, Note_on_c, 0, 57, 39
1, 34160, Tempo, 354526
1, 34320, Note_on_c, 0, 57, 0
1, 34320, Note_on_c, 0, 56, 39
1, 34360, Tempo, 355661
1, 34560, Tempo, 335364
1, 34560, Note_on_c, 0, 56, 0
1, 34560, Note_on_c, 0, 43, 0
1, 34560, Note_on_c, 0, 55, 49
1, 34680, Control_c, 0, 64, 127
1, 34800, Tempo, 340483
1, 34800, Note_on_c, 0, 79, 49
1, 35040, Tempo, 346821
1, 35040, Note_on_c, 0, 79, 0
1, 35040, Note_on_c, 0, 71, 44
1, 35040, Note_on_c, 0, 67, 44
1, 35040, Note_on_c, 0, 79, 49
1, 35040, Note_on_c, 0, 62, 38
1, 35280, Note_on_c, 0, 79, 0
1, 35280, Control_c, 0, 64, 0
1, 35520, Tempo, 355661
1, 35520, Note_on_c, 0, 67, 0
1, 35520, Note_on_c, 0, 62, 0
1, 35520, Note_on_c, 0, 71, 0
1, 35520, Note_on_c, 0, 69, 45
1, 35520, Note_on_c, 0, 79, 50
1, 35520, Note_on_c, 0, 72, 45
1, 35520, Note_on_c, 0, 64, 42
1, 35633, Control_c, 0, 64, 127
1, 35859, Control_c, 0, 64, 0
1, 36000, Tempo, 338409
1, 36000, Note_on_c, 0, 64, 0
1, 36000, Note_on_c, 0, 79, 0
1, 36000, Note_on_c, 0, 55, 0
1, 36000, Note_on_c, 0, 69, 0
1, 36000, Note_on_c, 0, 72, 0
1, 36000, Control_c, 0, 64, 127
1, 36000, Note_on_c, 0, 55, 49
1, 36240, Tempo, 343623
1, 36240, Note_on_c, 0, 79, 49
1, 36480, Tempo, 349000
1, 36480, Note_on_c, 0, 79, 0
1, 36480, Note_on_c, 0, 79, 49
1, 36480, Note_on_c, 0, 67, 44
1, 36480, Note_on_c, 0, 71, 44
1, 36480, Note_on_c, 0, 62, 38
1, 36720, Note_on_c, 0, 79, 0
1, 36805, Control_c, 0, 64, 0
1, 36960, Tempo, 354526
1, 36960, Note_on_c, 0, 71, 0
1, 36960, Note_on_c, 0, 62, 0
1, 36960, Note_on_c, 0, 67, 0
1, 36960, Note_on_c, 0, 69, 45
1, 36960, Note_on_c, 0, 72, 45
1, 36960, Note_on_c, 0, 79, 50
1, 36960, Note_on_c, 0, 64, 39
1, 37031, Control_c, 0, 64, 127
1, 37228, Control_c, 0, 64, 0
1, 37440, Tempo, 342564
1, 37440, Note_on_c, 0, 64, 0
1, 37440, Note_on_c, 0, 72, 0
1, 37440, Note_on_c, 0, 55, 0
1, 37440, Note_on_c, 0, 69, 0
1, 37440, Note_on_c, 0, 79, 0
1, 37440, Note_on_c, 0, 55, 49
1, 37920, Tempo, 345742
1, 37920, Note_on_c, 0, 69, 44
1, 37920, Note_on_c, 0, 72, 44
1, 37920, Note_on_c, 0, 79, 49
1, 37920, Note_on_c, 0, 64, 40
1, 37976, Control_c, 0, 64, 127
1, 38160, Tempo, 351185
1, 38160, Note_on_c, 0, 72, 0
1, 38160, Note_on_c, 0, 69, 0
1, 38160, Note_on_c, 0, 76, 40
1, 38400, Tempo, 345742
1, 38400, Note_on_c, 0, 76, 0
1, 38400, Note_on_c, 0, 64, 0
1, 38400, Note_on_c, 0, 79, 0
1, 38400, Note_on_c, 0, 74, 45
1, 38400, Note_on_c, 0, 79, 50
1, 38400, Note_on_c, 0, 66, 40
1, 38584, Control_c, 0, 64, 0
1, 38640, Tempo, 351185
1, 38640, Note_on_c, 0, 74, 0
1, 38640, Note_on_c, 0, 72, 44
1, 38880, Note_on_c, 0, 72, 0
1, 38880, Note_on_c, 0, 66, 0
1, 38880, Note_on_c, 0, 79, 0
1, 38880, Note_on_c, 0, 55, 0
1, 38880, Note_on_c, 0, 79, 52
1, 38880, Note_on_c, 0, 71, 47
1, 38880, Note_on_c, 0, 67, 44
1, 38880, Control_c, 0, 64, 127
1, 39120, Note_on_c, 0, 71, 0
1, 39120, Note_on_c, 0, 72, 42
1, 39320, Tempo, 351185
1, 39360, Note_on_c, 0, 72, 0
1, 39360, Note_on_c, 0, 67, 0
1, 39360, Note_on_c, 0, 79, 0
1, 39360, Note_on_c, 0, 71, 41
1, 39474, Control_c, 0, 64, 0
1, 39520, Tempo, 352299
1, 39600, Note_on_c, 0, 71, 0
1, 39600, Note_on_c, 0, 70, 40
1, 39720, Tempo, 353399
1, 39840, Note_on_c, 0, 70, 0
1, 39840, Note_on_c, 0, 69, 39
1, 39920, Tempo, 354526
1, 40080, Note_on_c, 0, 69, 0
1, 40080, Note_on_c, 0, 68, 39
1, 40120, Tempo, 355661
1, 40320, Tempo, 341511
1, 40320, Note_on_c, 0, 68, 0
1, 40320, Control_c, 0, 64, 127
1, 40320, Note_on_c, 0, 43, 49
1, 40560, Tempo, 347907
1, 40560, Note_on_c, 0, 67, 49
1, 40800, Tempo, 351185
1, 40800, Note_on_c, 0, 67, 0
1, 40800, Note_on_c, 0, 55, 44
1, 40800, Note_on_c, 0, 67, 49
1, 40800, Note_on_c, 0, 59, 44
1, 40800, Note_on_c, 0, 50, 38
1, 41040, Note_on_c, 0, 67, 0
1, 41040, Control_c, 0, 64, 0
1, 41280, Tempo, 355661
1, 41280, Note_on_c, 0, 59, 0
1, 41280, Note_on_c, 0, 50, 0
1, 41280, Note_on_c, 0, 55, 0
1, 41280, Note_on_c, 0, 57, 45
1, 41280, Note_on_c, 0, 67, 50
1, 41280, Note_on_c, 0, 60, 45
1, 41280, Note_on_c, 0, 52, 42
1, 41393, Control_c, 0, 64, 127
1, 41619, Control_c, 0, 64, 0
1, 41760, Tempo, 342564
1, 41760, Note_on_c, 0, 52, 0
1, 41760, Note_on_c, 0, 67, 0
1, 41760, Note_on_c, 0, 43, 0
1, 41760, Note_on_c, 0, 57, 0
1, 41760, Note_on_c, 0, 60, 0
1, 41760, Control_c, 0, 64, 127
1, 41760, Note_on_c, 0, 43, 49
1, 42000, Tempo, 349000
1, 42000, Note_on_c, 0, 67, 49
1, 42240, Tempo, 351185
1, 42240, Note_on_c, 0, 67, 0
1, 42240, Note_on_c, 0, 59, 44
1, 42240, Note_on_c, 0, 55, 44
1, 42240, Note_on_c, 0, 67, 49
1, 42240, Note_on_c, 0, 50, 38
1, 42480, Note_on_c, 0, 67, 0
1, 42565, Control_c, 0, 64, 0
1, 42720, Tempo, 354526
1, 42720, Note_on_c, 0, 55, 0
1, 42720, Note_on_c, 0, 50, 0
1, 42720, Note_on_c, 0, 59, 0
1, 42720, Note_on_c, 0, 67, 50
1, 42720, Note_on_c, 0, 60, 45
1, 42720, Note_on_c, 0, 57, 45
1, 42720, Note_on_c, 0, 52, 39
1, 42791, Control_c, 0, 64, 127
1, 42988, Control_c, 0, 64, 0
1, 43200, Tempo, 344689
1, 43200, Note_on_c, 0, 52, 0
1, 43200, Note_on_c, 0, 60, 0
1, 43200, Note_on_c, 0, 43, 0
1, 43200, Note_on_c, 0, 67, 0
1, 43200, Note_on_c, 0, 57, 0
1, 43200, Note_on_c, 0, 43, 49
1, 43680, Tempo, 345742
1, 43680, Note_on_c, 0, 57, 44
1, 43680, Note_on_c, 0, 67, 49
1, 43680, Note_on_c, 0, 60, 44
1, 43680, Note_on_c, 0, 52, 40
1, 43736, Control_c, 0, 64, 127
1, 43920, Tempo, 351185
1, 43920, Note_on_c, 0, 60, 0
1, 43920, Note_on_c, 0, 57, 0
1, 43920, Note_on_c, 0, 64, 40
1, 44160, Tempo, 345742
1, 44160, Note_on_c, 0, 64, 0
1, 44160, Note_on_c, 0, 52, 0
1, 44160, Note_on_c, 0, 67, 0
1, 44160, Note_on_c, 0, 67, 50
1, 44160, Note_on_c, 0, 62, 45
1, 44160, Note_on_c, 0, 54, 40
1, 44344, Control_c, 0, 64, 0
1, 44400, Tempo, 351185
1, 44400, Note_on_c, 0, 62, 0
1, 44400, Note_on_c, 0, 60, 44
1, 44640, Note_on_c, 0, 60, 0
1, 44640, Note_on_c, 0, 54, 0
1, 44640, Note_on_c, 0, 67, 0
1, 44640, Note_on_c, 0, 43, 0
1, 44640, Note_on_c, 0, 59, 47
1, 44640, Note_on_c, 0, 67, 52
1, 44640, Control_c, 0, 64, 127
1, 44640, Note_on_c, 0, 43, 49
1, 44880, Note_on_c, 0, 59, 0
1, 44880, Note_on_c, 0, 60, 42
1, 45080, Tempo, 351185
1, 45120, Note_on_c, 0, 60, 0
1, 45120, Note_on_c, 0, 67, 0
1, 45120, Note_on_c, 0, 59, 41
1, 45120, Note_on_c, 0, 55, 44
1, 45234, Control_c, 0, 64, 0
1, 45280, Tempo, 352299
1, 45360, Note_on_c, 0, 59, 0
1, 45360, Note_on_c, 0, 58, 40
1, 45480, Tempo, 353399
1, 45600, Note_on_c, 0, 58, 0
1, 45600, Note_on_c, 0, 55, 0
1, 45600, Note_on_c, 0, 57, 39
1, 45680, Tempo, 354526
1, 45840, Note_on_c, 0, 57, 0
1, 45840, Note_on_c, 0, 56, 39
1, 45880, Tempo, 355661
1, 46080, Tempo, 335364
1, 46080, Note_on_c, 0, 56, 0
1, 46080, Note_on_c, 0, 43, 0
1, 46080, Note_on_c, 0, 55, 49
1, 46200, Control_c, 0, 64, 127
1, 46320, Tempo, 340483
1, 46320, Note_on_c, 0, 79, 49
1, 46560, Tempo, 346821
1, 46560, Note_on_c, 0, 79, 0
1, 46560, Note_on_c, 0, 71, 44
1, 46560, Note_on_c, 0, 79, 49
1, 46560, Note_on_c, 0, 67, 44
1, 46560, Note_on_c, 0, 62, 38
1, 46800, Note_on_c, 0, 79, 0
1, 46800, Control_c, 0, 64, 0
1, 47040, Tempo, 355661
1, 47040, Note_on_c, 0, 67, 0
1, 47040, Note_on_c, 0, 62, 0
1, 47040, Note_on_c, 0, 71, 0
1, 47040, Note_on_c, 0, 69, 45
1, 47040, Note_on_c, 0, 72, 45
1, 47040, Note_on_c, 0, 79, 50
1, 47040, Note_on_c, 0, 64, 42
1, 47153, Control_c, 0, 64, 127
1, 47379, Control_c, 0, 64, 0
1, 47520, Tempo, 338409
1, 47520, Note_on_c, 0, 64, 0
1, 47520, Note_on_c, 0, 72, 0
1, 47520, Note_on_c, 0, 55, 0
1, 47520, Note_on_c, 0, 69, 0
1, 47520, Note_on_c, 0, 79, 0
1, 47520, Control_c, 0, 64, 127
1, 47520, Note_on_c, 0, 55, 49
1, 47760, Tempo, 343623
1, 47760, Note_on_c, 0, 79, 49
1, 48000, Tempo, 349000
1, 48000, Note_on_c, 0, 79, 0
1, 48000, Note_on_c, 0, 67, 44
1, 48000, Note_on_c, 0, 79, 49
1, 48000, Note_on_c, 0, 71, 44
1, 48000, Note_on_c, 0, 62, 38
1, 48240, Note_on_c, 0, 79, 0
1, 48325, Control_c, 0, 64, 0
1, 48480, Tempo, 354526
1, 48480, Note_on_c, 0, 71, 0
1, 48480, Note_on_c, 0, 62, 0
1, 48480, Note_on_c, 0, 67, 0
1, 48480, Note_on_c, 0, 69, 45
1, 48480, Note_on_c, 0, 72, 45
1, 48480, Note_on_c, 0, 79, 50
1, 48480, Note_on_c, 0, 64, 39
1, 48551, Control_c, 0, 64, 127
1, 48748, Control_c, 0, 64, 0
1, 48960, Tempo, 342564
1, 48960, Note_on_c, 0, 64, 0
1, 48960, Note_on_c, 0, 72, 0
1, 48960, Note_on_c, 0, 55, 0
1, 48960, Note_on_c, 0, 69, 0
1, 48960, Note_on_c, 0, 79, 0
1, 48960, Note_on_c, 0, 55, 49
1, 49440, Tempo, 345742
1, 49440, Note_on_c, 0, 69, 55
1, 49440, Note_on_c, 0, 72, 55
1, 49440, Note_on_c, 0, 79, 55
1, 49440, Note_on_c, 0, 64, 58
1, 49496, Control_c, 0, 64, 127
1, 49680, Tempo, 351185
1, 49680, Note_on_c, 0, 72, 0
1, 49680, Note_on_c, 0, 69, 0
1, 49680, Note_on_c, 0, 76, 52
1, 49920, Tempo, 345742
1, 49920, Note_on_c, 0, 76, 0
1, 49920, Note_on_c, 0, 74, 59
1, 50104, Control_c, 0, 64, 0
1, 50160, Tempo, 351185
1, 50160, Note_on_c, 0, 74, 0
1, 50160, Note_on_c, 0, 72, 55
1, 50400, Note_on_c, 0, 72, 0
1, 50400, Note_on_c, 0, 64, 0
1, 50400, Note_on_c, 0, 79, 0
1, 50400, Note_on_c, 0, 55, 0
1, 50400, Note_on_c, 0, 79, 71
1, 50400, Note_on_c, 0, 71, 71
1, 50400, Note_on_c, 0, 65, 57
1, 50400, Control_c, 0, 64, 127
1, 50640, Tempo, 356803
1, 50640, Note_on_c, 0, 71, 0
1, 50640, Note_on_c, 0, 76, 62
1, 50880, Tempo, 350079
1, 50880, Note_on_c, 0, 76, 0
1, 50880, Note_on_c, 0, 74, 69
1, 50994, Control_c, 0, 64, 0
1, 51120, Note_on_c, 0, 74, 0
1, 51120, Note_on_c, 0, 72, 61
1, 51360, Tempo, 346821
1, 51360, Note_on_c, 0, 72, 0
1, 51360, Note_on_c, 0, 71, 64
1, 51840, Note_on_c, 0, 79, 0
1, 52080, Tempo, 345742
1, 52080, Note_on_c, 0, 71, 0
1, 52080, Note_on_c, 0, 74, 58
1, 52151, Control_c, 0, 64, 127
1, 52320, Note_on_c, 0, 74, 0
1, 52320, Note_on_c, 0, 72, 61
1, 52560, Note_on_c, 0, 72, 0
1, 52560, Note_on_c, 0, 71, 56
1, 52786, Control_c, 0, 64, 0
1, 52800, Tempo, 349000
1, 52800, Note_on_c, 0, 71, 0
1, 52800, Note_on_c, 0, 69, 59
1, 53080, Tempo, 350079
1, 53360, Tempo, 351185
1, 53520, Note_on_c, 0, 69, 0
1, 53520, Note_on_c, 0, 72, 48
1, 53560, Tempo, 355661
1, 53675, Control_c, 0, 64, 127
1, 53680, Tempo, 356803
1, 53760, Tempo, 357931
1, 53760, Note_on_c, 0, 72, 0
1, 53760, Note_on_c, 0, 71, 53
1, 53840, Tempo, 359088
1, 53920, Tempo, 360252
1, 54000, Tempo, 361424
1, 54000, Note_on_c, 0, 71, 0
1, 54000, Note_on_c, 0, 69, 50
1, 54080, Tempo, 362582
1, 54160, Tempo, 363769
1, 54184, Control_c, 0, 64, 0
1, 54240, Tempo, 750000
1, 54240, Note_on_c, 0, 69, 0
1, 54240, Note_on_c, 0, 67, 44
1, 54720, Key_signature, 0, "major"
1, 54720, Tempo, 356083
1, 54720, Note_on_c, 0, 67, 0
1, 54720, Note_on_c, 0, 65, 0
1, 54720, Note_on_c, 0, 65, 38
1, 54773, Control_c, 0, 64, 127
1, 55200, Tempo, 347826
1, 55200, Note_on_c, 0, 67, 47
1, 56027, Control_c, 0, 64, 0
1, 56160, Tempo, 344828
1, 56160, Note_on_c, 0, 67, 0
1, 56160, Note_on_c, 0, 65, 0
1, 56160, Note_on_c, 0, 65, 44
1, 56213, Control_c, 0, 64, 127
1, 56640, Note_on_c, 0, 67, 53
1, 57280, Control_c, 0, 64, 0
1, 57600, Tempo, 339443
1, 57600, Note_on_c, 0, 67, 0
1, 57600, Note_on_c, 0, 65, 0
1, 57600, Note_on_c, 0, 65, 48
1, 57627, Control_c, 0, 64, 127
1, 57760, Tempo, 338409
1, 57920, Tempo, 337382
1, 58080, Tempo, 336379
1, 58080, Note_on_c, 0, 67, 58
1, 58240, Tempo, 335364
1, 58400, Tempo, 334355
1, 58427, Control_c, 0, 64, 0
1, 58560, Tempo, 333370
1, 58560, Note_on_c, 0, 65, 0
1, 58560, Note_on_c, 0, 65, 51
1, 58613, Control_c, 0, 64, 127
1, 58720, Tempo, 332373
1, 58880, Tempo, 331382
1, 59040, Tempo, 330396
1, 59040, Note_on_c, 0, 67, 0
1, 59040, Note_on_c, 0, 67, 63
1, 59200, Tempo, 329435
1, 59360, Tempo, 328461
1, 59387, Control_c, 0, 64, 0
1, 59520, Tempo, 327493
1, 59520, Note_on_c, 0, 65, 0
1, 59520, Note_on_c, 0, 65, 55
1, 59573, Control_c, 0, 64, 127
1, 59680, Tempo, 326531
1, 59840, Tempo, 325591
1, 60000, Tempo, 324640
1, 60000, Note_on_c, 0, 67, 0
1, 60000, Note_on_c, 0, 67, 67
1, 60040, Tempo, 324640
1, 60080, Tempo, 325591
1, 60107, Control_c, 0, 64, 0
1, 60120, Tempo, 327493
1, 60160, Tempo, 328461
1, 60200, Tempo, 330396
1, 60240, Tempo, 331382
1, 60280, Tempo, 333370
1, 60320, Tempo, 335364
1, 60360, Tempo, 336379
1, 60480, Tempo, 357931
1, 60480, Note_on_c, 0, 65, 0
1, 60480, Note_on_c, 0, 36, 73
1, 60480, Note_on_c, 0, 43, 73
1, 60579, Control_c, 0, 64, 127
1, 60900, Note_on_c, 0, 67, 0
1, 60900, Note_on_c, 0, 71, 69
1, 60900, Note_on_c, 0, 65, 61
1, 60960, Tempo, 333370
1, 60960, Note_on_c, 0, 43, 0
1, 60960, Note_on_c, 0, 36, 0
1, 60960, Note_on_c, 0, 76, 78
1, 60960, Note_on_c, 0, 67, 63
1, 61440, Tempo, 344689
1, 61666, Control_c, 0, 64, 0
1, 61680, Note_on_c, 0, 76, 0
1, 61680, Note_on_c, 0, 74, 74
1, 61860, Note_on_c, 0, 74, 0
1, 61860, Note_on_c, 0, 72, 64
1, 61920, Note_on_c, 0, 72, 0
1, 61920, Note_on_c, 0, 65, 0
1, 61920, Note_on_c, 0, 71, 0
1, 61920, Note_on_c, 0, 67, 0
1, 61920, Note_on_c, 0, 76, 79
1, 61920, Note_on_c, 0, 64, 70
1, 61920, Note_on_c, 0, 36, 73
1, 61920, Note_on_c, 0, 43, 73
1, 61984, Control_c, 0, 64, 127
1, 62160, Note_on_c, 0, 64, 0
1, 62160, Note_on_c, 0, 76, 0
1, 62280, Note_on_c, 0, 71, 73
1, 62370, Note_on_c, 0, 71, 0
1, 62400, Note_on_c, 0, 36, 0
1, 62400, Note_on_c, 0, 43, 0
1, 62400, Note_on_c, 0, 64, 66
1, 62400, Note_on_c, 0, 72, 79
1, 62400, Note_on_c, 0, 55, 59
1, 62640, Note_on_c, 0, 72, 0
1, 62640, Note_on_c, 0, 64, 0
1, 62760, Note_on_c, 0, 74, 69
1, 62850, Note_on_c, 0, 74, 0
1, 62880, Tempo, 351185
1, 62880, Note_on_c, 0, 55, 0
1, 62880, Note_on_c, 0, 76, 81
1, 62880, Note_on_c, 0, 64, 73
1, 62880, Note_on_c, 0, 60, 67
1, 63120, Control_c, 0, 64, 0
1, 63300, Note_on_c, 0, 64, 0
1, 63300, Note_on_c, 0, 76, 0
1, 63300, Note_on_c, 0, 72, 55
1, 63360, Tempo, 339443
1, 63360, Note_on_c, 0, 60, 0
1, 63360, Note_on_c, 0, 76, 59
1, 63360, Note_on_c, 0, 50, 55
1, 63371, Control_c, 0, 64, 127
1, 63600, Note_on_c, 0, 76, 0
1, 63600, Note_on_c, 0, 72, 0
1, 63720, Tempo, 338409
1, 63720, Note_on_c, 0, 78, 53
1, 63783, Control_c, 0, 64, 0
1, 63810, Note_on_c, 0, 78, 0
1, 63840, Tempo, 343623
1, 63840, Note_on_c, 0, 50, 0
1, 63840, Note_on_c, 0, 79, 59
1, 63840, Note_on_c, 0, 72, 52
1, 63840, Note_on_c, 0, 64, 53
1, 63960, Note_on_c, 0, 64, 0
1, 63960, Note_on_c, 0, 72, 0
1, 63960, Note_on_c, 0, 79, 0
1, 64320, Tempo, 360252
1, 64320, Note_on_c, 0, 81, 61
1, 64320, Note_on_c, 0, 72, 55
1, 64320, Note_on_c, 0, 66, 56
1, 64440, Note_on_c, 0, 66, 0
1, 64440, Note_on_c, 0, 72, 0
1, 64440, Note_on_c, 0, 81, 0
1, 64740, Note_on_c, 0, 79, 57
1, 64751, Control_c, 0, 64, 127
1, 64800, Tempo, 343623
1, 64800, Note_on_c, 0, 79, 0
1, 64800, Note_on_c, 0, 71, 58
1, 64800, Note_on_c, 0, 83, 64
1, 64800, Note_on_c, 0, 67, 63
1, 65280, Tempo, 347907
1, 65280, Note_on_c, 0, 67, 0
1, 65280, Note_on_c, 0, 62, 58
1, 65760, Tempo, 343623
1, 65760, Note_on_c, 0, 62, 0
1, 65760, Note_on_c, 0, 83, 0
1, 65760, Note_on_c, 0, 71, 0
1, 65760, Note_on_c, 0, 79, 60
1, 65760, Note_on_c, 0, 71, 53
1, 65760, Note_on_c, 0, 55, 57
1, 65867, Control_c, 0, 64, 0
1, 66180, Note_on_c, 0, 55, 0
1, 66180, Note_on_c, 0, 71, 0
1, 66180, Note_on_c, 0, 79, 0
1, 66180, Note_on_c, 0, 77, 61
1, 66191, Control_c, 0, 64, 127
1, 66240, Note_on_c, 0, 77, 0
1, 66240, Note_on_c, 0, 81, 73
1, 66240, Note_on_c, 0, 60, 62
1, 66240, Note_on_c, 0, 53, 62
1, 66480, Tempo, 353399
1, 66480, Note_on_c, 0, 81, 0
1, 66480, Note_on_c, 0, 83, 70
1, 66685, Control_c, 0, 64, 0
1, 66720, Tempo, 339443
1, 66720, Note_on_c, 0, 83, 0
1, 66720, Note_on_c, 0, 53, 0
1, 66720, Note_on_c, 0, 60, 0
1, 66720, Note_on_c, 0, 84, 75
1, 66720, Note_on_c, 0, 77, 67
1, 66720, Note_on_c, 0, 69, 67
1, 66720, Note_on_c, 0, 62, 60
1, 66741, Control_c, 0, 64, 127
1, 66880, Note_on_c, 0, 84, 0
1, 66880, Note_on_c, 0, 86, 67
1, 67040, Note_on_c, 0, 86, 0
1, 67040, Note_on_c, 0, 84, 67
1, 67200, Tempo, 345742
1, 67200, Note_on_c, 0, 84, 0
1, 67200, Note_on_c, 0, 83, 72
1, 67440, Note_on_c, 0, 83, 0
1, 67440, Note_on_c, 0, 81, 63
1, 67482, Control_c, 0, 64, 0
1, 67680, Tempo, 342564
1, 67680, Note_on_c, 0, 81, 0
1, 67680, Note_on_c, 0, 77, 0
1, 67680, Note_on_c, 0, 69, 0
1, 67680, Note_on_c, 0, 62, 0
1, 67680, Note_on_c, 0, 79, 75
1, 67680, Note_on_c, 0, 76, 67
1, 67680, Note_on_c, 0, 55, 56
1, 67694, Control_c, 0, 64, 127
1, 68040, Tempo, 351906
1, 68040, Note_on_c, 0, 76, 0
1, 68040, Note_on_c, 0, 79, 0
1, 68040, Note_on_c, 0, 76, 59
1, 68040, Note_on_c, 0, 79, 66
1, 68089, Control_c, 0, 64, 0
1, 68130, Note_on_c, 0, 79, 0
1, 68130, Note_on_c, 0, 76, 0
1, 68160, Tempo, 347907
1, 68160, Note_on_c, 0, 55, 0
1, 68160, Note_on_c, 0, 77, 67
1, 68160, Note_on_c, 0, 74, 60
1, 68160, Note_on_c, 0, 67, 58
1, 68209, Control_c, 0, 64, 127
1, 68640, Note_on_c, 0, 74, 0
1, 68640, Note_on_c, 0, 77, 0
1, 68640, Note_on_c, 0, 72, 56
1, 68640, Note_on_c, 0, 76, 62
1, 69120, Tempo, 342564
1, 69120, Note_on_c, 0, 76, 0
1, 69120, Note_on_c, 0, 72, 0
1, 69120, Note_on_c, 0, 67, 0
1, 69120, Note_on_c, 0, 71, 59
1, 69120, Note_on_c, 0, 74, 66
1, 69120, Note_on_c, 0, 55, 50
1, 69169, Control_c, 0, 64, 0
1, 69480, Tempo, 352941
1, 69480, Note_on_c, 0, 74, 0
1, 69480, Note_on_c, 0, 71, 0
1, 69480, Note_on_c, 0, 71, 53
1, 69480, Note_on_c, 0, 74, 60
1, 69570, Note_on_c, 0, 74, 0
1, 69570, Note_on_c, 0, 71, 0
1, 69600, Tempo, 346821
1, 69600, Note_on_c, 0, 55, 0
1, 69600, Note_on_c, 0, 79, 64
1, 70066, Control_c, 0, 64, 127
1, 70080, Note_on_c, 0, 69, 50
1, 70080, Note_on_c, 0, 76, 56
1, 70080, Note_on_c, 0, 72, 50
1, 70080, Note_on_c, 0, 67, 57
1, 70560, Note_on_c, 0, 67, 0
1, 70560, Note_on_c, 0, 76, 0
1, 70560, Note_on_c, 0, 79, 0
1, 70560, Note_on_c, 0, 69, 0
1, 70560, Note_on_c, 0, 72, 0
1, 70560, Note_on_c, 0, 72, 60
1, 70560, Note_on_c, 0, 69, 53
1, 70560, Note_on_c, 0, 55, 51
1, 70588, Control_c, 0, 64, 0
1, 70920, Tempo, 358209
1, 70920, Note_on_c, 0, 69, 0
1, 70920, Note_on_c, 0, 72, 0
1, 70920, Note_on_c, 0, 72, 57
1, 70920, Note_on_c, 0, 69, 51
1, 71010, Note_on_c, 0, 69, 0
1, 71010, Note_on_c, 0, 72, 0
1, 71040, Tempo, 346821
1, 71040, Note_on_c, 0, 55, 0
1, 71040, Note_on_c, 0, 79, 61
1, 71520, Note_on_c, 0, 71, 48
1, 71520, Note_on_c, 0, 74, 53
1, 71520, Note_on_c, 0, 67, 56
1, 71541, Control_c, 0, 64, 127
1, 71958, Control_c, 0, 64, 0
1, 72000, Tempo, 357931
1, 72000, Note_on_c, 0, 67, 0
1, 72000, Note_on_c, 0, 79, 0
1, 72000, Note_on_c, 0, 71, 0
1, 72000, Note_on_c, 0, 74, 0
1, 72000, Note_on_c, 0, 43, 73
1, 72000, Note_on_c, 0, 36, 73
1, 72099, Control_c, 0, 64, 127
1, 72420, Note_on_c, 0, 71, 69
1, 72420, Note_on_c, 0, 65, 62
1, 72480, Tempo, 333370
1, 72480, Note_on_c, 0, 36, 0
1, 72480, Note_on_c, 0, 43, 0
1, 72480, Note_on_c, 0, 76, 78
1, 72480, Note_on_c, 0, 67, 63
1, 72960, Tempo, 344689
1, 73186, Control_c, 0, 64, 0
1, 73200, Note_on_c, 0, 76, 0
1, 73200, Note_on_c, 0, 74, 74
1, 73380, Note_on_c, 0, 74, 0
1, 73380, Note_on_c, 0, 72, 64
1, 73440, Note_on_c, 0, 72, 0
1, 73440, Note_on_c, 0, 65, 0
1, 73440, Note_on_c, 0, 71, 0
1, 73440, Note_on_c, 0, 67, 0
1, 73440, Note_on_c, 0, 76, 79
1, 73440, Note_on_c, 0, 64, 70
1, 73440, Note_on_c, 0, 36, 73
1, 73440, Note_on_c, 0, 43, 73
1, 73504, Control_c, 0, 64, 127
1, 73680, Note_on_c, 0, 64, 0
1, 73680, Note_on_c, 0, 76, 0
1, 73800, Note_on_c, 0, 71, 73
1, 73890, Note_on_c, 0, 71, 0
1, 73920, Note_on_c, 0, 36, 0
1, 73920, Note_on_c, 0, 43, 0
1, 73920, Note_on_c, 0, 64, 67
1, 73920, Note_on_c, 0, 72, 79
1, 73920, Note_on_c, 0, 55, 59
1, 74160, Note_on_c, 0, 72, 0
1, 74160, Note_on_c, 0, 64, 0
1, 74280, Note_on_c, 0, 74, 69
1, 74370, Note_on_c, 0, 74, 0
1, 74400, Tempo, 351185
1, 74400, Note_on_c, 0, 55, 0
1, 74400, Note_on_c, 0, 76, 81
1, 74400, Note_on_c, 0, 64, 73
1, 74400, Note_on_c, 0, 60, 67
1, 74640, Control_c, 0, 64, 0
1, 74820, Note_on_c, 0, 64, 0
1, 74820, Note_on_c, 0, 76, 0
1, 74820, Note_on_c, 0, 72, 52
1, 74880, Tempo, 339443
1, 74880, Note_on_c, 0, 60, 0
1, 74880, Note_on_c, 0, 76, 59
1, 74880, Note_on_c, 0, 50, 55
1, 74891, Control_c, 0, 64, 127
1, 75120, Note_on_c, 0, 76, 0
1, 75120, Note_on_c, 0, 72, 0
1, 75240, Tempo, 338409
1, 75240, Note_on_c, 0, 78, 53
1, 75303, Control_c, 0, 64, 0
1, 75330, Note_on_c, 0, 78, 0
1, 75360, Tempo, 343623
1, 75360, Note_on_c, 0, 50, 0
1, 75360, Note_on_c, 0, 79, 59
1, 75360, Note_on_c, 0, 72, 52
1, 75360, Note_on_c, 0, 64, 53
1, 75480, Note_on_c, 0, 64, 0
1, 75480, Note_on_c, 0, 72, 0
1, 75480, Note_on_c, 0, 79, 0
1, 75840, Tempo, 360252
1, 75840, Note_on_c, 0, 72, 55
1, 75840, Note_on_c, 0, 81, 61
1, 75840, Note_on_c, 0, 66, 56
1, 75960, Note_on_c, 0, 66, 0
1, 75960, Note_on_c, 0, 81, 0
1, 75960, Note_on_c, 0, 72, 0
1, 76260, Note_on_c, 0, 79, 59
1, 76271, Control_c, 0, 64, 127
1, 76320, Tempo, 343623
1, 76320, Note_on_c, 0, 79, 0
1, 76320, Note_on_c, 0, 83, 64
1, 76320, Note_on_c, 0, 71, 58
1, 76320, Note_on_c, 0, 67, 63
1, 76800, Tempo, 347907
1, 76800, Note_on_c, 0, 67, 0
1, 76800, Note_on_c, 0, 62, 57
1, 77280, Tempo, 343623
1, 77280, Note_on_c, 0, 62, 0
1, 77280, Note_on_c, 0, 71, 0
1, 77280, Note_on_c, 0, 83, 0
1, 77280, Note_on_c, 0, 71, 53
1, 77280, Note_on_c, 0, 79, 60
1, 77280, Note_on_c, 0, 55, 57
1, 77387, Control_c, 0, 64, 0
1, 77700, Note_on_c, 0, 55, 0
1, 77700, Note_on_c, 0, 79, 0
1, 77700, Note_on_c, 0, 71, 0
1, 77700, Note_on_c, 0, 77, 66
1, 77711, Control_c, 0, 64, 127
1, 77760, Tempo, 357931
1, 77760, Note_on_c, 0, 77, 0
1, 77760, Note_on_c, 0, 81, 73
1, 77760, Note_on_c, 0, 60, 62
1, 77760, Note_on_c, 0, 53, 62
1, 78000, Tempo, 353399
1, 78000, Note_on_c, 0, 81, 0
1, 78000, Note_on_c, 0, 83, 70
1, 78205, Control_c, 0, 64, 0
1, 78240, Tempo, 339443
1, 78240, Note_on_c, 0, 83, 0
1, 78240, Note_on_c, 0, 53, 0
1, 78240, Note_on_c, 0, 60, 0
1, 78240, Note_on_c, 0, 84, 75
1, 78240, Note_on_c, 0, 77, 67
1, 78240, Note_on_c, 0, 69, 67
1, 78240, Note_on_c, 0, 62, 60
1, 78261, Control_c, 0, 64, 127
1, 78400, Note_on_c, 0, 84, 0
1, 78400, Note_on_c, 0, 86, 67
1, 78560, Note_on_c, 0, 86, 0
1, 78560, Note_on_c, 0, 84, 67
1, 78720, Tempo, 345742
1, 78720, Note_on_c, 0, 84, 0
1, 78720, Note_on_c, 0, 83, 72
1, 78960, Note_on_c, 0, 83, 0
1, 78960, Note_on_c, 0, 81, 63
1, 79002, Control_c, 0, 64, 0
1, 79200, Tempo, 342564
1, 79200, Note_on_c, 0, 81, 0
1, 79200, Note_on_c, 0, 77, 0
1, 79200, Note_on_c, 0, 69, 0
1, 79200, Note_on_c, 0, 62, 0
1, 79200, Note_on_c, 0, 76, 67
1, 79200, Note_on_c, 0, 79, 75
1, 79200, Note_on_c, 0, 55, 56
1, 79214, Control_c, 0, 64, 127
1, 79560, Tempo, 353982
1, 79560, Note_on_c, 0, 79, 0
1, 79560, Note_on_c, 0, 76, 0
1, 79560, Note_on_c, 0, 79, 66
1, 79560, Note_on_c, 0, 76, 59
1, 79609, Control_c, 0, 64, 0
1, 79650, Note_on_c, 0, 76, 0
1, 79650, Note_on_c, 0, 79, 0
1, 79680, Tempo, 347907
1, 79680, Note_on_c, 0, 55, 0
1, 79680, Note_on_c, 0, 77, 67
1, 79680, Note_on_c, 0, 74, 60
1, 79680, Note_on_c, 0, 67, 58
1, 79729, Control_c, 0, 64, 127
1, 80160, Note_on_c, 0, 74, 0
1, 80160, Note_on_c, 0, 77, 0
1, 80160, Note_on_c, 0, 76, 62
1, 80160, Note_on_c, 0, 72, 56
1, 80640, Tempo, 342564
1, 80640, Note_on_c, 0, 72, 0
1, 80640, Note_on_c, 0, 76, 0
1, 80640, Note_on_c, 0, 67, 0
1, 80640, Note_on_c, 0, 71, 59
1, 80640, Note_on_c, 0, 74, 66
1, 80640, Note_on_c, 0, 55, 50
1, 80689, Control_c, 0, 64, 0
1, 81000, Tempo, 352941
1, 81000, Note_on_c, 0, 74, 0
1, 81000, Note_on_c, 0, 71, 0
1, 81000, Note_on_c, 0, 74, 60
1, 81000, Note_on_c, 0, 71, 53
1, 81090, Note_on_c, 0, 71, 0
1, 81090, Note_on_c, 0, 74, 0
1, 81120, Tempo, 346821
1, 81120, Note_on_c, 0, 55, 0
1, 81120, Note_on_c, 0, 79, 64
1, 81600, Note_on_c, 0, 76, 56
1, 81600, Note_on_c, 0, 69, 50
1, 81600, Note_on_c, 0, 72, 50
1, 81600, Note_on_c, 0, 67, 50
1, 82080, Note_on_c, 0, 67, 0
1, 82080, Note_on_c, 0, 69, 0
1, 82080, Note_on_c, 0, 79, 0
1, 82080, Note_on_c, 0, 76, 0
1, 82080, Note_on_c, 0, 72, 0
1, 82080, Note_on_c, 0, 65, 51
1, 82080, Note_on_c, 0, 74, 57
1, 82080, Note_on_c, 0, 71, 51
1, 82080, Note_on_c, 0, 67, 55
1, 82207, Control_c, 0, 64, 127
1, 82560, Note_on_c, 0, 74, 0
1, 82560, Note_on_c, 0, 76, 57
1, 82800, Tempo, 352299
1, 82800, Note_on_c, 0, 76, 0
1, 82800, Note_on_c, 0, 74, 55
1, 83040, Tempo, 361424
1, 83040, Note_on_c, 0, 74, 0
1, 83040, Note_on_c, 0, 65, 0
1, 83040, Note_on_c, 0, 71, 0
1, 83040, Note_on_c, 0, 67, 0
1, 83040, Note_on_c, 0, 64, 48
1, 83040, Note_on_c, 0, 72, 53
1, 83040, Control_c, 0, 64, 0
1, 83040, Note_on_c, 0, 60, 46
1, 83520, Key_signature, -3, "major"
1, 83520, Tempo, 382897
1, 83520, Marker_t, "Meno Mosso"
1, 83520, Note_on_c, 0, 60, 0
1, 83520, Note_on_c, 0, 72, 0
1, 83520, Note_on_c, 0, 64, 0
1, 83520, Note_on_c, 0, 51, 46
1, 83973, Control_c, 0, 64, 127
1, 84000, Tempo, 376294
1, 84000, Note_on_c, 0, 63, 55
1, 84480, Note_on_c, 0, 62, 39
1, 84960, Tempo, 385159
1, 84960, Note_on_c, 0, 62, 0
1, 84960, Note_on_c, 0, 63, 0
1, 84960, Note_on_c, 0, 51, 0
1, 84960, Control_c, 0, 64, 0
1, 84960, Note_on_c, 0, 51, 46
1, 85147, Control_c, 0, 64, 127
1, 85440, Tempo, 376294
1, 85440, Note_on_c, 0, 63, 55
1, 85920, Note_on_c, 0, 62, 40
1, 86400, Tempo, 380662
1, 86400, Note_on_c, 0, 62, 0
1, 86400, Note_on_c, 0, 63, 0
1, 86400, Note_on_c, 0, 51, 0
1, 86400, Control_c, 0, 64, 0
1, 86400, Note_on_c, 0, 51, 46
1, 86560, Control_c, 0, 64, 127
1, 86880, Tempo, 376294
1, 86880, Note_on_c, 0, 63, 52
1, 87360, Note_on_c, 0, 62, 40
1, 87840, Tempo, 382897
1, 87840, Note_on_c, 0, 62, 0
1, 87840, Note_on_c, 0, 63, 0
1, 87840, Note_on_c, 0, 51, 0
1, 87840, Note_on_c, 0, 51, 45
1, 87882, Control_c, 0, 64, 0
1, 88320, Tempo, 376294
1, 88320, Note_on_c, 0, 65, 55
1, 88320, Note_on_c, 0, 63, 46
1, 88320, Control_c, 0, 64, 127
1, 88320, Note_on_c, 0, 63, 49
1, 88800, Tempo, 373088
1, 88800, Note_on_c, 0, 63, 0
1, 88800, Note_on_c, 0, 65, 0
1, 88800, Note_on_c, 0, 67, 55
1, 88800, Note_on_c, 0, 62, 45
1, 89040, Note_on_c, 0, 67, 0
1, 89040, Note_on_c, 0, 68, 53
1, 89280, Tempo, 372024
1, 89280, Note_on_c, 0, 68, 0
1, 89280, Note_on_c, 0, 62, 0
1, 89280, Note_on_c, 0, 51, 0
1, 89280, Note_on_c, 0, 70, 57
1, 89280, Note_on_c, 0, 51, 47
1, 89520, Tempo, 392080
1, 89520, Note_on_c, 0, 70, 0
1, 89520, Note_on_c, 0, 72, 57
1, 89732, Control_c, 0, 64, 0
1, 89760, Tempo, 376294
1, 89760, Note_on_c, 0, 72, 0
1, 89760, Note_on_c, 0, 63, 0
1, 89760, Note_on_c, 0, 70, 60
1, 89760, Note_on_c, 0, 63, 50
1, 89760, Note_on_c, 0, 61, 49
1, 89873, Control_c, 0, 64, 127
1, 90240, Tempo, 372024
1, 90240, Note_on_c, 0, 61, 0
1, 90240, Note_on_c, 0, 70, 0
1, 90240, Note_on_c, 0, 68, 60
1, 90240, Note_on_c, 0, 60, 44
1, 90480, Tempo, 372024
1, 90480, Note_on_c, 0, 68, 0
1, 90480, Note_on_c, 0, 67, 59
1, 90720, Tempo, 369936
1, 90720, Note_on_c, 0, 67, 0
1, 90720, Note_on_c, 0, 60, 0
1, 90720, Note_on_c, 0, 51, 0
1, 90720, Note_on_c, 0, 65, 56
1, 90720, Note_on_c, 0, 51, 45
1, 90960, Tempo, 389737
1, 90960, Note_on_c, 0, 65, 0
1, 90960, Note_on_c, 0, 67, 57
1, 91158, Control_c, 0, 64, 0
1, 91200, Tempo, 376294
1, 91200, Note_on_c, 0, 67, 0
1, 91200, Note_on_c, 0, 63, 0
1, 91200, Note_on_c, 0, 68, 56
1, 91200, Note_on_c, 0, 63, 47
1, 91200, Note_on_c, 0, 60, 49
1, 91271, Control_c, 0, 64, 127
1, 91680, Tempo, 370966
1, 91680, Note_on_c, 0, 60, 0
1, 91680, Note_on_c, 0, 68, 0
1, 91680, Note_on_c, 0, 67, 53
1, 91680, Note_on_c, 0, 59, 45
1, 91920, Note_on_c, 0, 67, 0
1, 91920, Note_on_c, 0, 65, 50
1, 92160, Tempo, 384025
1, 92160, Note_on_c, 0, 65, 0
1, 92160, Note_on_c, 0, 59, 0
1, 92160, Note_on_c, 0, 51, 0
1, 92160, Note_on_c, 0, 67, 55
1, 92160, Control_c, 0, 64, 0
1, 92160, Note_on_c, 0, 51, 44
1, 92280, Note_on_c, 0, 67, 0
1, 92435, Control_c, 0, 64, 127
1, 92640, Tempo, 377382
1, 92640, Note_on_c, 0, 63, 0
1, 92640, Note_on_c, 0, 63, 50
1, 92640, Note_on_c, 0, 58, 45
1, 93120, Tempo, 385852
1, 93120, Note_on_c, 0, 58, 0
1, 93120, Note_on_c, 0, 59, 34
1, 93325, Control_c, 0, 64, 0
1, 93600, Tempo, 382897
1, 93600, Note_on_c, 0, 59, 0
1, 93600, Note_on_c, 0, 63, 0
1, 93600, Note_on_c, 0, 51, 0
1, 93600, Note_on_c, 0, 51, 42
1, 93840, Control_c, 0, 64, 0
1, 94080, Tempo, 376294
1, 94080, Note_on_c, 0, 65, 55
1, 94080, Note_on_c, 0, 63, 46
1, 94080, Control_c, 0, 64, 127
1, 94080, Note_on_c, 0, 63, 44
1, 94560, Tempo, 373088
1, 94560, Note_on_c, 0, 63, 0
1, 94560, Note_on_c, 0, 65, 0
1, 94560, Note_on_c, 0, 67, 55
1, 94560, Note_on_c, 0, 62, 39
1, 94800, Tempo, 366883
1, 94800, Note_on_c, 0, 67, 0
1, 94800, Note_on_c, 0, 68, 53
1, 95040, Tempo, 372024
1, 95040, Note_on_c, 0, 68, 0
1, 95040, Note_on_c, 0, 62, 0
1, 95040, Note_on_c, 0, 51, 0
1, 95040, Note_on_c, 0, 70, 57
1, 95040, Note_on_c, 0, 51, 41
1, 95280, Tempo, 392080
1, 95280, Note_on_c, 0, 70, 0
1, 95280, Note_on_c, 0, 72, 57
1, 95492, Control_c, 0, 64, 0
1, 95520, Tempo, 378072
1, 95520, Note_on_c, 0, 72, 0
1, 95520, Note_on_c, 0, 63, 0
1, 95520, Note_on_c, 0, 70, 60
1, 95520, Note_on_c, 0, 63, 50
1, 95520, Note_on_c, 0, 61, 44
1, 95633, Control_c, 0, 64, 127
1, 95880, Tempo, 365809
1, 95880, Note_on_c, 0, 70, 0
1, 95880, Note_on_c, 0, 72, 57
1, 95940, Note_on_c, 0, 72, 0
1, 95940, Note_on_c, 0, 70, 52
1, 96000, Tempo, 367963
1, 96000, Note_on_c, 0, 70, 0
1, 96000, Note_on_c, 0, 61, 0
1, 96000, Note_on_c, 0, 68, 60
1, 96000, Note_on_c, 0, 60, 39
1, 96240, Tempo, 370165
1, 96240, Note_on_c, 0, 68, 0
1, 96240, Note_on_c, 0, 67, 59
1, 96480, Tempo, 370165
1, 96480, Note_on_c, 0, 67, 0
1, 96480, Note_on_c, 0, 60, 0
1, 96480, Note_on_c, 0, 51, 0
1, 96480, Note_on_c, 0, 65, 58
1, 96480, Note_on_c, 0, 51, 39
1, 96720, Tempo, 389737
1, 96720, Note_on_c, 0, 65, 0
1, 96720, Note_on_c, 0, 67, 57
1, 96918, Control_c, 0, 64, 0
1, 96960, Tempo, 378072
1, 96960, Note_on_c, 0, 67, 0
1, 96960, Note_on_c, 0, 63, 0
1, 96960, Note_on_c, 0, 68, 56
1, 96960, Note_on_c, 0, 63, 47
1, 96960, Note_on_c, 0, 60, 44
1, 97031, Control_c, 0, 64, 127
1, 97320, Tempo, 366883
1, 97320, Note_on_c, 0, 68, 0
1, 97320, Note_on_c, 0, 67, 48
1, 97380, Note_on_c, 0, 67, 0
1, 97380, Note_on_c, 0, 68, 45
1, 97440, Tempo, 370966
1, 97440, Note_on_c, 0, 68, 0
1, 97440, Note_on_c, 0, 60, 0
1, 97440, Note_on_c, 0, 67, 53
1, 97440, Note_on_c, 0, 59, 39
1, 97680, Note_on_c, 0, 67, 0
1, 97680, Note_on_c, 0, 65, 50
1, 97920, Tempo, 384025
1, 97920, Note_on_c, 0, 65, 0
1, 97920, Note_on_c, 0, 59, 0
1, 97920, Note_on_c, 0, 51, 0
1, 97920, Note_on_c, 0, 67, 55
1, 97920, Control_c, 0, 64, 0
1, 97920, Note_on_c, 0, 51, 39
1, 98040, Note_on_c, 0, 67, 0
1, 98195, Control_c, 0, 64, 127
1, 98400, Tempo, 377382
1, 98400, Note_on_c, 0, 63, 0
1, 98400, Note_on_c, 0, 63, 50
1, 98400, Note_on_c, 0, 59, 39
1, 98880, Note_on_c, 0, 59, 0
1, 98880, Note_on_c, 0, 60, 31
1, 99085, Control_c, 0, 64, 0
1, 99360, Tempo, 382897
1, 99360, Note_on_c, 0, 60, 0
1, 99360, Note_on_c, 0, 63, 0
1, 99360, Note_on_c, 0, 51, 0
1, 99360, Note_on_c, 0, 44, 48
1, 99600, Control_c, 0, 64, 0
1, 99840, Tempo, 376294
1, 99840, Note_on_c, 0, 65, 66
1, 99840, Note_on_c, 0, 63, 55
1, 99840, Control_c, 0, 64, 127
1, 99840, Note_on_c, 0, 51, 52
1, 100320, Tempo, 373088
1, 100320, Note_on_c, 0, 65, 0
1, 100320, Note_on_c, 0, 44, 0
1, 100320, Note_on_c, 0, 67, 66
1, 100320, Note_on_c, 0, 44, 48
1, 100560, Tempo, 366883
1, 100560, Note_on_c, 0, 67, 0
1, 100560, Note_on_c, 0, 68, 63
1, 100800, Tempo, 372024
1, 100800, Note_on_c, 0, 68, 0
1, 100800, Note_on_c, 0, 44, 0
1, 100800, Note_on_c, 0, 51, 0
1, 100800, Note_on_c, 0, 70, 68
1, 100800, Note_on_c, 0, 43, 49
1, 101040, Tempo, 392080
1, 101040, Note_on_c, 0, 70, 0
1, 101040, Note_on_c, 0, 72, 68
1, 101252, Control_c, 0, 64, 0
1, 101280, Tempo, 374649
1, 101280, Note_on_c, 0, 72, 0
1, 101280, Note_on_c, 0, 63, 0
1, 101280, Note_on_c, 0, 70, 72
1, 101280, Note_on_c, 0, 63, 60
1, 101280, Note_on_c, 0, 51, 52
1, 101393, Control_c, 0, 64, 127
1, 101640, Tempo, 365809
1, 101760, Tempo, 367963
1, 101760, Note_on_c, 0, 70, 0
1, 101760, Note_on_c, 0, 43, 0
1, 101760, Note_on_c, 0, 68, 73
1, 101760, Note_on_c, 0, 43, 49
1, 102000, Tempo, 370165
1, 102000, Note_on_c, 0, 68, 0
1, 102000, Note_on_c, 0, 67, 70
1, 102240, Tempo, 370165
1, 102240, Note_on_c, 0, 67, 0
1, 102240, Note_on_c, 0, 43, 0
1, 102240, Note_on_c, 0, 51, 0
1, 102240, Note_on_c, 0, 65, 71
1, 102240, Note_on_c, 0, 44, 52
1, 102480, Tempo, 389737
1, 102480, Note_on_c, 0, 65, 0
1, 102480, Note_on_c, 0, 67, 69
1, 102678, Control_c, 0, 64, 0
1, 102720, Tempo, 378072
1, 102720, Note_on_c, 0, 67, 0
1, 102720, Note_on_c, 0, 63, 0
1, 102720, Note_on_c, 0, 68, 73
1, 102720, Note_on_c, 0, 63, 61
1, 102720, Note_on_c, 0, 51, 55
1, 102791, Control_c, 0, 64, 127
1, 103080, Tempo, 366883
1, 103080, Note_on_c, 0, 68, 0
1, 103080, Note_on_c, 0, 67, 68
1, 103140, Note_on_c, 0, 67, 0
1, 103140, Note_on_c, 0, 68, 68
1, 103200, Tempo, 370966
1, 103200, Note_on_c, 0, 68, 0
1, 103200, Note_on_c, 0, 44, 0
1, 103200, Note_on_c, 0, 67, 77
1, 103200, Note_on_c, 0, 44, 52
1, 103440, Note_on_c, 0, 67, 0
1, 103440, Note_on_c, 0, 65, 72
1, 103680, Tempo, 384025
1, 103680, Note_on_c, 0, 65, 0
1, 103680, Note_on_c, 0, 44, 0
1, 103680, Note_on_c, 0, 51, 0
1, 103680, Note_on_c, 0, 67, 77
1, 103680, Control_c, 0, 64, 0
1, 103680, Note_on_c, 0, 46, 53
1, 103800, Note_on_c, 0, 67, 0
1, 103955, Control_c, 0, 64, 127
1, 104160, Tempo, 377382
1, 104160, Note_on_c, 0, 63, 0
1, 104160, Note_on_c, 0, 63, 70
1, 104160, Note_on_c, 0, 51, 59
1, 104640, Note_on_c, 0, 46, 0
1, 104640, Note_on_c, 0, 46, 52
1, 104845, Control_c, 0, 64, 0
1, 105120, Tempo, 382897
1, 105120, Note_on_c, 0, 46, 0
1, 105120, Note_on_c, 0, 51, 0
1, 105120, Note_on_c, 0, 63, 0
1, 105120, Note_on_c, 0, 47, 52
1, 105360, Control_c, 0, 64, 0
1, 105600, Tempo, 376294
1, 105600, Note_on_c, 0, 65, 66
1, 105600, Note_on_c, 0, 63, 55
1, 105600, Control_c, 0, 64, 127
1, 105600, Note_on_c, 0, 51, 52
1, 106080, Tempo, 373088
1, 106080, Note_on_c, 0, 65, 0
1, 106080, Note_on_c, 0, 47, 0
1, 106080, Note_on_c, 0, 67, 66
1, 106080, Note_on_c, 0, 47, 48
1, 106320, Tempo, 366883
1, 106320, Note_on_c, 0, 67, 0
1, 106320, Note_on_c, 0, 68, 63
1, 106560, Tempo, 372024
1, 106560, Note_on_c, 0, 68, 0
1, 106560, Note_on_c, 0, 47, 0
1, 106560, Note_on_c, 0, 51, 0
1, 106560, Note_on_c, 0, 70, 68
1, 106560, Note_on_c, 0, 46, 49
1, 106800, Tempo, 392080
1, 106800, Note_on_c, 0, 70, 0
1, 106800, Note_on_c, 0, 72, 68
1, 107012, Control_c, 0, 64, 0
1, 107040, Tempo, 378072
1, 107040, Note_on_c, 0, 72, 0
1, 107040, Note_on_c, 0, 63, 0
1, 107040, Note_on_c, 0, 70, 72
1, 107040, Note_on_c, 0, 63, 60
1, 107040, Note_on_c, 0, 51, 52
1, 107153, Control_c, 0, 64, 127
1, 107400, Tempo, 365809
1, 107400, Note_on_c, 0, 70, 0
1, 107400, Note_on_c, 0, 72, 61
1, 107460, Note_on_c, 0, 72, 0
1, 107460, Note_on_c, 0, 70, 61
1, 107520, Tempo, 367963
1, 107520, Note_on_c, 0, 70, 0
1, 107520, Note_on_c, 0, 46, 0
1, 107520, Note_on_c, 0, 68, 69
1, 107520, Note_on_c, 0, 46, 49
1, 107760, Tempo, 370165
1, 107760, Note_on_c, 0, 68, 0
1, 107760, Note_on_c, 0, 67, 60
1, 108000, Tempo, 370165
1, 108000, Note_on_c, 0, 67, 0
1, 108000, Note_on_c, 0, 46, 0
1, 108000, Note_on_c, 0, 51, 0
1, 108000, Note_on_c, 0, 65, 62
1, 108000, Note_on_c, 0, 46, 46
1, 108240, Tempo, 389737
1, 108240, Note_on_c, 0, 65, 0
1, 108240, Note_on_c, 0, 67, 57
1, 108438, Control_c, 0, 64, 0
1, 108480, Tempo, 378072
1, 108480, Note_on_c, 0, 67, 0
1, 108480, Note_on_c, 0, 63, 0
1, 108480, Note_on_c, 0, 68, 61
1, 108480, Note_on_c, 0, 63, 61
1, 108480, Note_on_c, 0, 51, 47
1, 108551, Control_c, 0, 64, 127
1, 108840, Tempo, 366883
1, 108840, Note_on_c, 0, 68, 0
1, 108840, Note_on_c, 0, 67, 53
1, 108900, Note_on_c, 0, 67, 0
1, 108900, Note_on_c, 0, 68, 55
1, 108960, Tempo, 370966
1, 108960, Note_on_c, 0, 68, 0
1, 108960, Note_on_c, 0, 46, 0
1, 108960, Note_on_c, 0, 67, 62
1, 108960, Note_on_c, 0, 46, 44
1, 109200, Note_on_c, 0, 67, 0
1, 109200, Note_on_c, 0, 65, 53
1, 109440, Tempo, 384025
1, 109440, Note_on_c, 0, 65, 0
1, 109440, Note_on_c, 0, 46, 0
1, 109440, Note_on_c, 0, 51, 0
1, 109440, Note_on_c, 0, 67, 61
1, 109440, Control_c, 0, 64, 0
1, 109440, Note_on_c, 0, 39, 44
1, 109560, Note_on_c, 0, 67, 0
1, 109715, Control_c, 0, 64, 127
1, 109920, Tempo, 377382
1, 109920, Note_on_c, 0, 63, 0
1, 109920, Note_on_c, 0, 58, 46
1, 109920, Note_on_c, 0, 63, 55
1, 109920, Note_on_c, 0, 51, 46
1, 110400, Note_on_c, 0, 39, 0
1, 110400, Note_on_c, 0, 39, 39
1, 110605, Control_c, 0, 64, 0
1, 110640, Note_on_c, 0, 39, 0
1, 110880, Note_on_c, 0, 51, 0
1, 110880, Note_on_c, 0, 58, 0
1, 110880, Note_on_c, 0, 44, 41
1, 110922, Control_c, 0, 64, 127
1, 111360, Note_on_c, 0, 63, 0
1, 111360, Note_on_c, 0, 60, 48
1, 111360, Note_on_c, 0, 63, 57
1, 111360, Note_on_c, 0, 53, 45
1, 111840, Note_on_c, 0, 44, 0
1, 111840, Note_on_c, 0, 44, 38
1, 112080, Note_on_c, 0, 44, 0
1, 112094, Control_c, 0, 64, 0
1, 112320, Tempo, 386324
1, 112320, Note_on_c, 0, 53, 0
1, 112320, Note_on_c, 0, 63, 0
1, 112320, Note_on_c, 0, 60, 0
1, 112320, Note_on_c, 0, 67, 51
1, 112320, Note_on_c, 0, 39, 40
1, 112440, Note_on_c, 0, 67, 0
1, 112588, Control_c, 0, 64, 127
1, 112800, Note_on_c, 0, 58, 42
1, 112800, Note_on_c, 0, 63, 51
1, 112800, Note_on_c, 0, 51, 42
1, 112840, Tempo, 376932
1, 113280, Note_on_c, 0, 39, 0
1, 113280, Note_on_c, 0, 39, 37
1, 113520, Note_on_c, 0, 39, 0
1, 113647, Control_c, 0, 64, 0
1, 113760, Note_on_c, 0, 51, 0
1, 113760, Note_on_c, 0, 58, 0
1, 113760, Note_on_c, 0, 44, 39
1, 113802, Control_c, 0, 64, 127
1, 114240, Note_on_c, 0, 63, 0
1, 114240, Note_on_c, 0, 60, 44
1, 114240, Note_on_c, 0, 63, 52
1, 114240, Note_on_c, 0, 53, 41
1, 114720, Note_on_c, 0, 44, 0
1, 114720, Note_on_c, 0, 44, 35
1, 114861, Control_c, 0, 64, 0
1, 114960, Note_on_c, 0, 44, 0
1, 115200, Tempo, 392439
1, 115200, Note_on_c, 0, 53, 0
1, 115200, Note_on_c, 0, 63, 0
1, 115200, Note_on_c, 0, 60, 0
1, 115200, Note_on_c, 0, 58, 40
1, 115200, Note_on_c, 0, 67, 48
1, 115200, Note_on_c, 0, 51, 40
1, 115200, Note_on_c, 0, 39, 31
1, 115320, Note_on_c, 0, 67, 0
1, 115468, Control_c, 0, 64, 127
1, 115680, Tempo, 382726
1, 115680, Note_on_c, 0, 58, 0
1, 115680, Note_on_c, 0, 51, 0
1, 115680, Note_on_c, 0, 39, 0
1, 115680, Note_on_c, 0, 63, 50
1, 116160, Note_on_c, 0, 51, 30
1, 116160, Note_on_c, 0, 58, 36
1, 116428, Control_c, 0, 64, 0
1, 116640, Tempo, 393675
1, 116640, Note_on_c, 0, 63, 0
1, 116640, Note_on_c, 0, 67, 47
1, 116760, Note_on_c, 0, 67, 0
1, 116894, Control_c, 0, 64, 127
1, 117120, Tempo, 383926
1, 117120, Note_on_c, 0, 63, 49
1, 117600, Tempo, 388727
1, 117600, Note_on_c, 0, 58, 0
1, 117600, Note_on_c, 0, 51, 0
1, 117600, Note_on_c, 0, 51, 30
1, 117600, Note_on_c, 0, 58, 36
1, 117896, Control_c, 0, 64, 0
1, 118080, Tempo, 403932
1, 118080, Note_on_c, 0, 63, 0
1, 118080, Note_on_c, 0, 67, 45
1, 118200, Note_on_c, 0, 67, 0
1, 118256, Control_c, 0, 64, 127
1, 118560, Tempo, 397456
1, 118560, Note_on_c, 0, 59, 37
1, 118560, Note_on_c, 0, 65, 45
1, 119040, Tempo, 402631
1, 119040, Note_on_c, 0, 58, 0
1, 119040, Note_on_c, 0, 51, 0
1, 119040, Note_on_c, 0, 50, 35
1, 119344, Control_c, 0, 64, 0
1, 119520, Tempo, 438180
1, 119520, Note_on_c, 0, 59, 0
1, 119520, Note_on_c, 0, 65, 0
1, 119520, Note_on_c, 0, 67, 44
1, 119640, Note_on_c, 0, 67, 0
1, 119725, Control_c, 0, 64, 127
1, 120000, Tempo, 482509
1, 120000, Note_on_c, 0, 59, 34
1, 120000, Note_on_c, 0, 65, 39
1, 120480, Tempo, 770218
1, 120480, Note_on_c, 0, 65, 0
1, 120480, Note_on_c, 0, 67, 36
1, 120480, Note_on_c, 0, 43, 30
1, 120685, Control_c, 0, 64, 0
1, 120960, Key_signature, 0, "major"
1, 120960, Tempo, 413365
1, 120960, Marker_t, "Allegro"
1, 120960, Note_on_c, 0, 43, 0
1, 120960, Note_on_c, 0, 50, 0
1, 120960, Note_on_c, 0, 59, 0
1, 120960, Note_on_c, 0, 67, 0
1, 120960, Note_on_c, 0, 65, 38
1, 120961, Tempo, 400000
1, 121013, Control_c, 0, 64, 127
1, 121440, Tempo, 376176
1, 121440, Note_on_c, 0, 67, 47
1, 122267, Control_c, 0, 64, 0
1, 122400, Note_on_c, 0, 67, 0
1, 122400, Note_on_c, 0, 65, 0
1, 122400, Note_on_c, 0, 65, 44
1, 122453, Control_c, 0, 64, 127
1, 122880, Tempo, 358209
1, 122880, Note_on_c, 0, 67, 53
1, 123520, Control_c, 0, 64, 0
1, 123840, Tempo, 339443
1, 123840, Note_on_c, 0, 67, 0
1, 123840, Note_on_c, 0, 65, 0
1, 123840, Note_on_c, 0, 65, 48
1, 123867, Control_c, 0, 64, 127
1, 124000, Tempo, 338409
1, 124160, Tempo, 337382
1, 124320, Tempo, 336379
1, 124320, Note_on_c, 0, 67, 58
1, 124480, Tempo, 335364
1, 124640, Tempo, 334355
1, 124667, Control_c, 0, 64, 0
1, 124800, Tempo, 333370
1, 124800, Note_on_c, 0, 65, 0
1, 124800, Note_on_c, 0, 65, 51
1, 124853, Control_c, 0, 64, 127
1, 124960, Tempo, 332373
1, 125120, Tempo, 331382
1, 125280, Tempo, 330396
1, 125280, Note_on_c, 0, 67, 0
1, 125280, Note_on_c, 0, 67, 63
1, 125440, Tempo, 329435
1, 125600, Tempo, 328461
1, 125627, Control_c, 0, 64, 0
1, 125760, Tempo, 327493
1, 125760, Note_on_c, 0, 65, 0
1, 125760, Note_on_c, 0, 65, 55
1, 125813, Control_c, 0, 64, 127
1, 125920, Tempo, 326531
1, 126080, Tempo, 325591
1, 126240, Tempo, 324640
1, 126240, Note_on_c, 0, 67, 0
1, 126240, Note_on_c, 0, 67, 67
1, 126280, Tempo, 324640
1, 126320, Tempo, 325591
1, 126347, Control_c, 0, 64, 0
1, 126360, Tempo, 327493
1, 126400, Tempo, 328461
1, 126440, Tempo, 330396
1, 126480, Tempo, 331382
1, 126520, Tempo, 333370
1, 126560, Tempo, 335364
1, 126600, Tempo, 336379
1, 126720, Tempo, 357931
1, 126720, Note_on_c, 0, 65, 0
1, 126720, Note_on_c, 0, 36, 73
1, 126720, Note_on_c, 0, 43, 73
1, 126819, Control_c, 0, 64, 127
1, 127140, Note_on_c, 0, 67, 0
1, 127140, Note_on_c, 0, 65, 61
1, 127140, Note_on_c, 0, 71, 69
1, 127200, Tempo, 333370
1, 127200, Note_on_c, 0, 43, 0
1, 127200, Note_on_c, 0, 36, 0
1, 127200, Note_on_c, 0, 76, 78
1, 127200, Note_on_c, 0, 67, 63
1, 127680, Tempo, 344689
1, 127906, Control_c, 0, 64, 0
1, 127920, Note_on_c, 0, 76, 0
1, 127920, Note_on_c, 0, 74, 74
1, 128100, Note_on_c, 0, 74, 0
1, 128100, Note_on_c, 0, 72, 64
1, 128160, Note_on_c, 0, 72, 0
1, 128160, Note_on_c, 0, 71, 0
1, 128160, Note_on_c, 0, 65, 0
1, 128160, Note_on_c, 0, 67, 0
1, 128160, Note_on_c, 0, 64, 70
1, 128160, Note_on_c, 0, 76, 79
1, 128160, Note_on_c, 0, 36, 73
1, 128160, Note_on_c, 0, 43, 73
1, 128224, Control_c, 0, 64, 127
1, 128400, Note_on_c, 0, 76, 0
1, 128400, Note_on_c, 0, 64, 0
1, 128520, Note_on_c, 0, 71, 73
1, 128610, Note_on_c, 0, 71, 0
1, 128640, Note_on_c, 0, 36, 0
1, 128640, Note_on_c, 0, 43, 0
1, 128640, Note_on_c, 0, 64, 79
1, 128640, Note_on_c, 0, 72, 79
1, 128640, Note_on_c, 0, 55, 67
1, 128880, Note_on_c, 0, 72, 0
1, 128880, Note_on_c, 0, 64, 0
1, 129000, Note_on_c, 0, 74, 69
1, 129090, Note_on_c, 0, 74, 0
1, 129120, Tempo, 351185
1, 129120, Note_on_c, 0, 55, 0
1, 129120, Note_on_c, 0, 64, 73
1, 129120, Note_on_c, 0, 76, 81
1, 129120, Note_on_c, 0, 60, 67
1, 129360, Control_c, 0, 64, 0
1, 129540, Note_on_c, 0, 76, 0
1, 129540, Note_on_c, 0, 64, 0
1, 129540, Note_on_c, 0, 72, 55
1, 129600, Tempo, 339443
1, 129600, Note_on_c, 0, 60, 0
1, 129600, Note_on_c, 0, 76, 59
1, 129600, Note_on_c, 0, 50, 55
1, 129611, Control_c, 0, 64, 127
1, 129840, Note_on_c, 0, 76, 0
1, 129840, Note_on_c, 0, 72, 0
1, 129960, Tempo, 338409
1, 129960, Note_on_c, 0, 78, 53
1, 130023, Control_c, 0, 64, 0
1, 130050, Note_on_c, 0, 78, 0
1, 130080, Tempo, 343623
1, 130080, Note_on_c, 0, 50, 0
1, 130080, Note_on_c, 0, 72, 52
1, 130080, Note_on_c, 0, 79, 59
1, 130080, Note_on_c, 0, 64, 53
1, 130200, Note_on_c, 0, 64, 0
1, 130200, Note_on_c, 0, 79, 0
1, 130200, Note_on_c, 0, 72, 0
1, 130560, Tempo, 360252
1, 130560, Note_on_c, 0, 72, 55
1, 130560, Note_on_c, 0, 81, 61
1, 130560, Note_on_c, 0, 66, 56
1, 130680, Note_on_c, 0, 66, 0
1, 130680, Note_on_c, 0, 81, 0
1, 130680, Note_on_c, 0, 72, 0
1, 130980, Note_on_c, 0, 79, 57
1, 130991, Control_c, 0, 64, 127
1, 131040, Tempo, 343623
1, 131040, Note_on_c, 0, 79, 0
1, 131040, Note_on_c, 0, 71, 58
1, 131040, Note_on_c, 0, 83, 64
1, 131040, Note_on_c, 0, 67, 63
1, 131520, Tempo, 347907
1, 131520, Note_on_c, 0, 67, 0
1, 131520, Note_on_c, 0, 62, 57
1, 132000, Tempo, 343623
1, 132000, Note_on_c, 0, 62, 0
1, 132000, Note_on_c, 0, 83, 0
1, 132000, Note_on_c, 0, 71, 0
1, 132000, Note_on_c, 0, 71, 53
1, 132000, Note_on_c, 0, 79, 60
1, 132000, Note_on_c, 0, 55, 57
1, 132107, Control_c, 0, 64, 0
1, 132420, Note_on_c, 0, 55, 0
1, 132420, Note_on_c, 0, 79, 0
1, 132420, Note_on_c, 0, 71, 0
1, 132420, Note_on_c, 0, 77, 62
1, 132431, Control_c, 0, 64, 127
1, 132480, Note_on_c, 0, 77, 0
1, 132480, Note_on_c, 0, 81, 72
1, 132480, Note_on_c, 0, 60, 62
1, 132480, Note_on_c, 0, 53, 62
1, 132720, Tempo, 353399
1, 132720, Note_on_c, 0, 81, 0
1, 132720, Note_on_c, 0, 83, 70
1, 132925, Control_c, 0, 64, 0
1, 132960, Tempo, 339443
1, 132960, Note_on_c, 0, 83, 0
1, 132960, Note_on_c, 0, 53, 0
1, 132960, Note_on_c, 0, 60, 0
1, 132960, Note_on_c, 0, 77, 67
1, 132960, Note_on_c, 0, 84, 75
1, 132960, Note_on_c, 0, 69, 67
1, 132960, Note_on_c, 0, 62, 60
1, 132981, Control_c, 0, 64, 127
1, 133120, Note_on_c, 0, 84, 0
1, 133120, Note_on_c, 0, 86, 67
1, 133280, Note_on_c, 0, 86, 0
1, 133280, Note_on_c, 0, 84, 67
1, 133440, Tempo, 345742
1, 133440, Note_on_c, 0, 84, 0
1, 133440, Note_on_c, 0, 83, 72
1, 133680, Note_on_c, 0, 83, 0
1, 133680, Note_on_c, 0, 81, 63
1, 133722, Control_c, 0, 64, 0
1, 133920, Tempo, 342564
1, 133920, Note_on_c, 0, 81, 0
1, 133920, Note_on_c, 0, 77, 0
1, 133920, Note_on_c, 0, 69, 0
1, 133920, Note_on_c, 0, 62, 0
1, 133920, Note_on_c, 0, 76, 67
1, 133920, Note_on_c, 0, 79, 75
1, 133920, Note_on_c, 0, 55, 56
1, 133934, Control_c, 0, 64, 127
1, 134280, Tempo, 351906
1, 134280, Note_on_c, 0, 79, 0
1, 134280, Note_on_c, 0, 76, 0
1, 134280, Note_on_c, 0, 76, 59
1, 134280, Note_on_c, 0, 79, 66
1, 134329, Control_c, 0, 64, 0
1, 134370, Note_on_c, 0, 79, 0
1, 134370, Note_on_c, 0, 76, 0
1, 134400, Tempo, 347907
1, 134400, Note_on_c, 0, 55, 0
1, 134400, Note_on_c, 0, 74, 60
1, 134400, Note_on_c, 0, 77, 67
1, 134400, Note_on_c, 0, 67, 58
1, 134449, Control_c, 0, 64, 127
1, 134880, Note_on_c, 0, 77, 0
1, 134880, Note_on_c, 0, 74, 0
1, 134880, Note_on_c, 0, 76, 62
1, 134880, Note_on_c, 0, 72, 56
1, 135360, Tempo, 342564
1, 135360, Note_on_c, 0, 72, 0
1, 135360, Note_on_c, 0, 76, 0
1, 135360, Note_on_c, 0, 67, 0
1, 135360, Note_on_c, 0, 71, 59
1, 135360, Note_on_c, 0, 74, 66
1, 135360, Note_on_c, 0, 55, 50
1, 135409, Control_c, 0, 64, 0
1, 135720, Tempo, 353982
1, 135720, Note_on_c, 0, 74, 0
1, 135720, Note_on_c, 0, 71, 0
1, 135720, Note_on_c, 0, 71, 53
1, 135720, Note_on_c, 0, 74, 60
1, 135810, Note_on_c, 0, 74, 0
1, 135810, Note_on_c, 0, 71, 0
1, 135840, Tempo, 346821
1, 135840, Note_on_c, 0, 55, 0
1, 135840, Note_on_c, 0, 79, 64
1, 136306, Control_c, 0, 64, 127
1, 136320, Note_on_c, 0, 69, 50
1, 136320, Note_on_c, 0, 72, 50
1, 136320, Note_on_c, 0, 76, 56
1, 136320, Note_on_c, 0, 67, 57
1, 136800, Note_on_c, 0, 67, 0
1, 136800, Note_on_c, 0, 72, 0
1, 136800, Note_on_c, 0, 79, 0
1, 136800, Note_on_c, 0, 69, 0
1, 136800, Note_on_c, 0, 76, 0
1, 136800, Note_on_c, 0, 69, 53
1, 136800, Note_on_c, 0, 72, 60
1, 136800, Note_on_c, 0, 55, 51
1, 136828, Control_c, 0, 64, 0
1, 137160, Tempo, 356083
1, 137160, Note_on_c, 0, 72, 0
1, 137160, Note_on_c, 0, 69, 0
1, 137160, Note_on_c, 0, 69, 51
1, 137160, Note_on_c, 0, 72, 57
1, 137250, Note_on_c, 0, 72, 0
1, 137250, Note_on_c, 0, 69, 0
1, 137280, Note_on_c, 0, 55, 0
1, 137280, Note_on_c, 0, 79, 61
1, 137320, Tempo, 346821
1, 137760, Note_on_c, 0, 71, 48
1, 137760, Note_on_c, 0, 74, 53
1, 137760, Note_on_c, 0, 67, 56
1, 137781, Control_c, 0, 64, 127
1, 138198, Control_c, 0, 64, 0
1, 138240, Tempo, 357931
1, 138240, Note_on_c, 0, 67, 0
1, 138240, Note_on_c, 0, 79, 0
1, 138240, Note_on_c, 0, 71, 0
1, 138240, Note_on_c, 0, 74, 0
1, 138240, Note_on_c, 0, 43, 73
1, 138240, Note_on_c, 0, 36, 73
1, 138339, Control_c, 0, 64, 127
1, 138660, Note_on_c, 0, 65, 61
1, 138660, Note_on_c, 0, 71, 69
1, 138720, Tempo, 333370
1, 138720, Note_on_c, 0, 36, 0
1, 138720, Note_on_c, 0, 43, 0
1, 138720, Note_on_c, 0, 76, 78
1, 138720, Note_on_c, 0, 67, 63
1, 139200, Tempo, 344689
1, 139426, Control_c, 0, 64, 0
1, 139440, Note_on_c, 0, 76, 0
1, 139440, Note_on_c, 0, 74, 74
1, 139620, Note_on_c, 0, 74, 0
1, 139620, Note_on_c, 0, 72, 64
1, 139680, Note_on_c, 0, 72, 0
1, 139680, Note_on_c, 0, 71, 0
1, 139680, Note_on_c, 0, 65, 0
1, 139680, Note_on_c, 0, 67, 0
1, 139680, Note_on_c, 0, 64, 70
1, 139680, Note_on_c, 0, 76, 79
1, 139680, Note_on_c, 0, 36, 73
1, 139680, Note_on_c, 0, 43, 73
1, 139744, Control_c, 0, 64, 127
1, 139920, Note_on_c, 0, 76, 0
1, 139920, Note_on_c, 0, 64, 0
1, 140040, Note_on_c, 0, 71, 73
1, 140130, Note_on_c, 0, 71, 0
1, 140160, Note_on_c, 0, 36, 0
1, 140160, Note_on_c, 0, 43, 0
1, 140160, Note_on_c, 0, 64, 79
1, 140160, Note_on_c, 0, 72, 79
1, 140160, Note_on_c, 0, 55, 67
1, 140400, Note_on_c, 0, 72, 0
1, 140400, Note_on_c, 0, 64, 0
1, 140520, Note_on_c, 0, 74, 69
1, 140610, Note_on_c, 0, 74, 0
1, 140640, Tempo, 351185
1, 140640, Note_on_c, 0, 55, 0
1, 140640, Note_on_c, 0, 64, 73
1, 140640, Note_on_c, 0, 76, 81
1, 140640, Note_on_c, 0, 60, 67
1, 140880, Control_c, 0, 64, 0
1, 141060, Note_on_c, 0, 76, 0
1, 141060, Note_on_c, 0, 64, 0
1, 141060, Note_on_c, 0, 72, 52
1, 141120, Tempo, 339443
1, 141120, Note_on_c, 0, 60, 0
1, 141120, Note_on_c, 0, 76, 59
1, 141120, Note_on_c, 0, 50, 55
1, 141131, Control_c, 0, 64, 127
1, 141360, Note_on_c, 0, 76, 0
1, 141360, Note_on_c, 0, 72, 0
1, 141480, Tempo, 338409
1, 141480, Note_on_c, 0, 78, 53
1, 141543, Control_c, 0, 64, 0
1, 141570, Note_on_c, 0, 78, 0
1, 141600, Tempo, 343623
1, 141600, Note_on_c, 0, 50, 0
1, 141600, Note_on_c, 0, 72, 52
1, 141600, Note_on_c, 0, 79, 59
1, 141600, Note_on_c, 0, 64, 53
1, 141720, Note_on_c, 0, 64, 0
1, 141720, Note_on_c, 0, 79, 0
1, 141720, Note_on_c, 0, 72, 0
1, 142080, Tempo, 360252
1, 142080, Note_on_c, 0, 72, 55
1, 142080, Note_on_c, 0, 81, 61
1, 142080, Note_on_c, 0, 66, 56
1, 142200, Note_on_c, 0, 66, 0
1, 142200, Note_on_c, 0, 81, 0
1, 142200, Note_on_c, 0, 72, 0
1, 142500, Note_on_c, 0, 79, 59
1, 142511, Control_c, 0, 64, 127
1, 142560, Tempo, 343623
1, 142560, Note_on_c, 0, 79, 0
1, 142560, Note_on_c, 0, 71, 58
1, 142560, Note_on_c, 0, 83, 64
1, 142560, Note_on_c, 0, 67, 63
1, 143040, Tempo, 347907
1, 143040, Note_on_c, 0, 67, 0
1, 143040, Note_on_c, 0, 62, 58
1, 143520, Tempo, 343623
1, 143520, Note_on_c, 0, 62, 0
1, 143520, Note_on_c, 0, 83, 0
1, 143520, Note_on_c, 0, 71, 0
1, 143520, Note_on_c, 0, 71, 53
1, 143520, Note_on_c, 0, 79, 60
1, 143520, Note_on_c, 0, 55, 57
1, 143627, Control_c, 0, 64, 0
1, 143940, Note_on_c, 0, 55, 0
1, 143940, Note_on_c, 0, 79, 0
1, 143940, Note_on_c, 0, 71, 0
1, 143940, Note_on_c, 0, 77, 66
1, 143951, Control_c, 0, 64, 127
1, 144000, Tempo, 357931
1, 144000, Note_on_c, 0, 77, 0
1, 144000, Note_on_c, 0, 81, 72
1, 144000, Note_on_c, 0, 60, 62
1, 144000, Note_on_c, 0, 53, 62
1, 144240, Tempo, 353399
1, 144240, Note_on_c, 0, 81, 0
1, 144240, Note_on_c, 0, 83, 70
1, 144445, Control_c, 0, 64, 0
1, 144480, Tempo, 339443
1, 144480, Note_on_c, 0, 83, 0
1, 144480, Note_on_c, 0, 53, 0
1, 144480, Note_on_c, 0, 60, 0
1, 144480, Note_on_c, 0, 77, 67
1, 144480, Note_on_c, 0, 84, 75
1, 144480, Note_on_c, 0, 69, 67
1, 144480, Note_on_c, 0, 62, 60
1, 144501, Control_c, 0, 64, 127
1, 144640, Note_on_c, 0, 84, 0
1, 144640, Note_on_c, 0, 86, 67
1, 144800, Note_on_c, 0, 86, 0
1, 144800, Note_on_c, 0, 84, 67
1, 144960, Tempo, 345742
1, 144960, Note_on_c, 0, 84, 0
1, 144960, Note_on_c, 0, 83, 72
1, 145200, Note_on_c, 0, 83, 0
1, 145200, Note_on_c, 0, 81, 63
1, 145242, Control_c, 0, 64, 0
1, 145440, Tempo, 342564
1, 145440, Note_on_c, 0, 81, 0
1, 145440, Note_on_c, 0, 77, 0
1, 145440, Note_on_c, 0, 69, 0
1, 145440, Note_on_c, 0, 62, 0
1, 145440, Note_on_c, 0, 76, 67
1, 145440, Note_on_c, 0, 79, 75
1, 145440, Note_on_c, 0, 55, 56
1, 145454, Control_c, 0, 64, 127
1, 145800, Tempo, 351906
1, 145800, Note_on_c, 0, 79, 0
1, 145800, Note_on_c, 0, 76, 0
1, 145800, Note_on_c, 0, 76, 59
1, 145800, Note_on_c, 0, 79, 66
1, 145849, Control_c, 0, 64, 0
1, 145890, Note_on_c, 0, 79, 0
1, 145890, Note_on_c, 0, 76, 0
1, 145920, Tempo, 347907
1, 145920, Note_on_c, 0, 55, 0
1, 145920, Note_on_c, 0, 74, 60
1, 145920, Note_on_c, 0, 77, 67
1, 145920, Note_on_c, 0, 67, 58
1, 145969, Control_c, 0, 64, 127
1, 146400, Note_on_c, 0, 77, 0
1, 146400, Note_on_c, 0, 74, 0
1, 146400, Note_on_c, 0, 76, 62
1, 146400, Note_on_c, 0, 72, 56
1, 146880, Tempo, 342564
1, 146880, Note_on_c, 0, 72, 0
1, 146880, Note_on_c, 0, 76, 0
1, 146880, Note_on_c, 0, 67, 0
1, 146880, Note_on_c, 0, 71, 59
1, 146880, Note_on_c, 0, 74, 66
1, 146880, Note_on_c, 0, 55, 50
1, 146929, Control_c, 0, 64, 0
1, 147240, Tempo, 352941
1, 147240, Note_on_c, 0, 74, 0
1, 147240, Note_on_c, 0, 71, 0
1, 147240, Note_on_c, 0, 71, 53
1, 147240, Note_on_c, 0, 74, 60
1, 147330, Note_on_c, 0, 74, 0
1, 147330, Note_on_c, 0, 71, 0
1, 147360, Tempo, 346821
1, 147360, Note_on_c, 0, 55, 0
1, 147360, Note_on_c, 0, 79, 64
1, 147840, Note_on_c, 0, 69, 50
1, 147840, Note_on_c, 0, 72, 50
1, 147840, Note_on_c, 0, 76, 56
1, 147840, Note_on_c, 0, 67, 50
1, 148320, Note_on_c, 0, 67, 0
1, 148320, Note_on_c, 0, 72, 0
1, 148320, Note_on_c, 0, 79, 0
1, 148320, Note_on_c, 0, 69, 0
1, 148320, Note_on_c, 0, 76, 0
1, 148320, Note_on_c, 0, 74, 57
1, 148320, Note_on_c, 0, 65, 51
1, 148320, Note_on_c, 0, 71, 51
1, 148320, Note_on_c, 0, 67, 55
1, 148447, Control_c, 0, 64, 127
1, 148800, Note_on_c, 0, 74, 0
1, 148800, Note_on_c, 0, 76, 53
1, 149040, Tempo, 352299
1, 149040, Note_on_c, 0, 76, 0
1, 149040, Note_on_c, 0, 74, 51
1, 149280, Tempo, 361424
1, 149280, Note_on_c, 0, 74, 0
1, 149280, Note_on_c, 0, 65, 0
1, 149280, Note_on_c, 0, 71, 0
1, 149280, Note_on_c, 0, 67, 0
1, 149280, Note_on_c, 0, 72, 50
1, 149280, Note_on_c, 0, 64, 44
1, 149280, Control_c, 0, 64, 0
1, 149280, Note_on_c, 0, 60, 42
1, 149760, Key_signature, 1, "major"
1, 149760, Tempo, 341511
1, 149760, Note_on_c, 0, 60, 0
1, 149760, Note_on_c, 0, 64, 0
1, 149760, Note_on_c, 0, 72, 0
1, 149760, Control_c, 0, 64, 127
1, 149760, Note_on_c, 0, 43, 49
1, 150000, Tempo, 347907
1, 150000, Note_on_c, 0, 67, 49
1, 150240, Tempo, 351185
1, 150240, Note_on_c, 0, 67, 0
1, 150240, Note_on_c, 0, 55, 44
1, 150240, Note_on_c, 0, 59, 44
1, 150240, Note_on_c, 0, 67, 49
1, 150240, Note_on_c, 0, 50, 38
1, 150480, Note_on_c, 0, 67, 0
1, 150480, Control_c, 0, 64, 0
1, 150720, Tempo, 355661
1, 150720, Note_on_c, 0, 59, 0
1, 150720, Note_on_c, 0, 50, 0
1, 150720, Note_on_c, 0, 55, 0
1, 150720, Note_on_c, 0, 57, 45
1, 150720, Note_on_c, 0, 60, 45
1, 150720, Note_on_c, 0, 67, 50
1, 150720, Note_on_c, 0, 52, 42
1, 150833, Control_c, 0, 64, 127
1, 151059, Control_c, 0, 64, 0
1, 151200, Tempo, 342564
1, 151200, Note_on_c, 0, 52, 0
1, 151200, Note_on_c, 0, 60, 0
1, 151200, Note_on_c, 0, 43, 0
1, 151200, Note_on_c, 0, 57, 0
1, 151200, Note_on_c, 0, 67, 0
1, 151200, Control_c, 0, 64, 127
1, 151200, Note_on_c, 0, 43, 49
1, 151440, Tempo, 349000
1, 151440, Note_on_c, 0, 67, 49
1, 151680, Tempo, 351185
1, 151680, Note_on_c, 0, 67, 0
1, 151680, Note_on_c, 0, 55, 44
1, 151680, Note_on_c, 0, 59, 44
1, 151680, Note_on_c, 0, 67, 49
1, 151680, Note_on_c, 0, 50, 38
1, 151920, Note_on_c, 0, 67, 0
1, 152005, Control_c, 0, 64, 0
1, 152160, Tempo, 354526
1, 152160, Note_on_c, 0, 59, 0
1, 152160, Note_on_c, 0, 50, 0
1, 152160, Note_on_c, 0, 55, 0
1, 152160, Note_on_c, 0, 67, 50
1, 152160, Note_on_c, 0, 57, 45
1, 152160, Note_on_c, 0, 60, 45
1, 152160, Note_on_c, 0, 52, 39
1, 152231, Control_c, 0, 64, 127
1, 152428, Control_c, 0, 64, 0
1, 152640, Tempo, 344689
1, 152640, Note_on_c, 0, 52, 0
1, 152640, Note_on_c, 0, 57, 0
1, 152640, Note_on_c, 0, 43, 0
1, 152640, Note_on_c, 0, 67, 0
1, 152640, Note_on_c, 0, 60, 0
1, 152640, Note_on_c, 0, 43, 49
1, 153120, Tempo, 345742
1, 153120, Note_on_c, 0, 57, 44
1, 153120, Note_on_c, 0, 60, 44
1, 153120, Note_on_c, 0, 67, 49
1, 153120, Note_on_c, 0, 52, 40
1, 153176, Control_c, 0, 64, 127
1, 153360, Tempo, 351185
1, 153360, Note_on_c, 0, 60, 0
1, 153360, Note_on_c, 0, 57, 0
1, 153360, Note_on_c, 0, 64, 40
1, 153600, Tempo, 345742
1, 153600, Note_on_c, 0, 64, 0
1, 153600, Note_on_c, 0, 52, 0
1, 153600, Note_on_c, 0, 67, 0
1, 153600, Note_on_c, 0, 62, 45
1, 153600, Note_on_c, 0, 67, 50
1, 153600, Note_on_c, 0, 54, 40
1, 153784, Control_c, 0, 64, 0
1, 153840, Tempo, 351185
1, 153840, Note_on_c, 0, 62, 0
1, 153840, Note_on_c, 0, 60, 44
1, 154080, Note_on_c, 0, 60, 0
1, 154080, Note_on_c, 0, 54, 0
1, 154080, Note_on_c, 0, 67, 0
1, 154080, Note_on_c, 0, 43, 0
1, 154080, Note_on_c, 0, 59, 47
1, 154080, Note_on_c, 0, 67, 52
1, 154080, Control_c, 0, 64, 127
1, 154080, Note_on_c, 0, 43, 49
1, 154320, Note_on_c, 0, 59, 0
1, 154320, Note_on_c, 0, 60, 42
1, 154520, Tempo, 351185
1, 154560, Note_on_c, 0, 60, 0
1, 154560, Note_on_c, 0, 67, 0
1, 154560, Note_on_c, 0, 59, 41
1, 154560, Note_on_c, 0, 55, 44
1, 154674, Control_c, 0, 64, 0
1, 154720, Tempo, 352299
1, 154800, Note_on_c, 0, 59, 0
1, 154800, Note_on_c, 0, 58, 40
1, 154920, Tempo, 353399
1, 155040, Note_on_c, 0, 58, 0
1, 155040, Note_on_c, 0, 55, 0
1, 155040, Note_on_c, 0, 57, 39
1, 155120, Tempo, 354526
1, 155280, Note_on_c, 0, 57, 0
1, 155280, Note_on_c, 0, 56, 39
1, 155320, Tempo, 355661
1, 155520, Tempo, 335364
1, 155520, Note_on_c, 0, 56, 0
1, 155520, Note_on_c, 0, 43, 0
1, 155520, Note_on_c, 0, 55, 49
1, 155640, Control_c, 0, 64, 127
1, 155760, Tempo, 340483
1, 155760, Note_on_c, 0, 79, 49
1, 156000, Tempo, 346821
1, 156000, Note_on_c, 0, 79, 0
1, 156000, Note_on_c, 0, 67, 44
1, 156000, Note_on_c, 0, 71, 44
1, 156000, Note_on_c, 0, 79, 49
1, 156000, Note_on_c, 0, 62, 38
1, 156240, Note_on_c, 0, 79, 0
1, 156240, Control_c, 0, 64, 0
1, 156480, Tempo, 355661
1, 156480, Note_on_c, 0, 71, 0
1, 156480, Note_on_c, 0, 62, 0
1, 156480, Note_on_c, 0, 67, 0
1, 156480, Note_on_c, 0, 69, 45
1, 156480, Note_on_c, 0, 72, 45
1, 156480, Note_on_c, 0, 79, 50
1, 156480, Note_on_c, 0, 64, 42
1, 156593, Control_c, 0, 64, 127
1, 156819, Control_c, 0, 64, 0
1, 156960, Tempo, 338409
1, 156960, Note_on_c, 0, 64, 0
1, 156960, Note_on_c, 0, 72, 0
1, 156960, Note_on_c, 0, 55, 0
1, 156960, Note_on_c, 0, 69, 0
1, 156960, Note_on_c, 0, 79, 0
1, 156960, Control_c, 0, 64, 127
1, 156960, Note_on_c, 0, 55, 49
1, 157200, Tempo, 343623
1, 157200, Note_on_c, 0, 79, 49
1, 157440, Tempo, 349000
1, 157440, Note_on_c, 0, 79, 0
1, 157440, Note_on_c, 0, 67, 44
1, 157440, Note_on_c, 0, 71, 44
1, 157440, Note_on_c, 0, 79, 49
1, 157440, Note_on_c, 0, 62, 38
1, 157680, Note_on_c, 0, 79, 0
1, 157765, Control_c, 0, 64, 0
1, 157920, Tempo, 354526
1, 157920, Note_on_c, 0, 71, 0
1, 157920, Note_on_c, 0, 62, 0
1, 157920, Note_on_c, 0, 67, 0
1, 157920, Note_on_c, 0, 79, 50
1, 157920, Note_on_c, 0, 69, 45
1, 157920, Note_on_c, 0, 72, 45
1, 157920, Note_on_c, 0, 64, 39
1, 157991, Control_c, 0, 64, 127
1, 158188, Control_c, 0, 64, 0
1, 158400, Tempo, 342564
1, 158400, Note_on_c, 0, 64, 0
1, 158400, Note_on_c, 0, 69, 0
1, 158400, Note_on_c, 0, 55, 0
1, 158400, Note_on_c, 0, 79, 0
1, 158400, Note_on_c, 0, 72, 0
1, 158400, Note_on_c, 0, 55, 49
1, 158880, Tempo, 345742
1, 158880, Note_on_c, 0, 69, 44
1, 158880, Note_on_c, 0, 72, 44
1, 158880, Note_on_c, 0, 79, 49
1, 158880, Note_on_c, 0, 64, 40
1, 158936, Control_c, 0, 64, 127
1, 159120, Tempo, 351185
1, 159120, Note_on_c, 0, 72, 0
1, 159120, Note_on_c, 0, 69, 0
1, 159120, Note_on_c, 0, 76, 40
1, 159360, Tempo, 345742
1, 159360, Note_on_c, 0, 76, 0
1, 159360, Note_on_c, 0, 64, 0
1, 159360, Note_on_c, 0, 79, 0
1, 159360, Note_on_c, 0, 74, 45
1, 159360, Note_on_c, 0, 79, 50
1, 159360, Note_on_c, 0, 66, 40
1, 159544, Control_c, 0, 64, 0
1, 159600, Tempo, 351185
1, 159600, Note_on_c, 0, 74, 0
1, 159600, Note_on_c, 0, 72, 44
1, 159840, Note_on_c, 0, 72, 0
1, 159840, Note_on_c, 0, 66, 0
1, 159840, Note_on_c, 0, 79, 0
1, 159840, Note_on_c, 0, 55, 0
1, 159840, Note_on_c, 0, 71, 47
1, 159840, Note_on_c, 0, 79, 52
1, 159840, Note_on_c, 0, 67, 44
1, 159840, Control_c, 0, 64, 127
1, 160080, Note_on_c, 0, 71, 0
1, 160080, Note_on_c, 0, 72, 42
1, 160280, Tempo, 351185
1, 160320, Note_on_c, 0, 72, 0
1, 160320, Note_on_c, 0, 67, 0
1, 160320, Note_on_c, 0, 79, 0
1, 160320, Note_on_c, 0, 71, 41
1, 160434, Control_c, 0, 64, 0
1, 160480, Tempo, 352299
1, 160560, Note_on_c, 0, 71, 0
1, 160560, Note_on_c, 0, 70, 40
1, 160680, Tempo, 353399
1, 160800, Note_on_c, 0, 70, 0
1, 160800, Note_on_c, 0, 69, 39
1, 160880, Tempo, 354526
1, 161040, Note_on_c, 0, 69, 0
1, 161040, Note_on_c, 0, 68, 39
1, 161080, Tempo, 355661
1, 161280, Tempo, 341511
1, 161280, Note_on_c, 0, 68, 0
1, 161280, Control_c, 0, 64, 127
1, 161280, Note_on_c, 0, 43, 49
1, 161520, Tempo, 347907
1, 161520, Note_on_c, 0, 67, 49
1, 161760, Tempo, 351185
1, 161760, Note_on_c, 0, 67, 0
1, 161760, Note_on_c, 0, 55, 44
1, 161760, Note_on_c, 0, 59, 44
1, 161760, Note_on_c, 0, 67, 49
1, 161760, Note_on_c, 0, 50, 38
1, 162000, Note_on_c, 0, 67, 0
1, 162000, Control_c, 0, 64, 0
1, 162240, Tempo, 355661
1, 162240, Note_on_c, 0, 59, 0
1, 162240, Note_on_c, 0, 50, 0
1, 162240, Note_on_c, 0, 55, 0
1, 162240, Note_on_c, 0, 57, 45
1, 162240, Note_on_c, 0, 60, 45
1, 162240, Note_on_c, 0, 67, 50
1, 162240, Note_on_c, 0, 52, 42
1, 162353, Control_c, 0, 64, 127
1, 162579, Control_c, 0, 64, 0
1, 162720, Tempo, 342564
1, 162720, Note_on_c, 0, 52, 0
1, 162720, Note_on_c, 0, 60, 0
1, 162720, Note_on_c, 0, 43, 0
1, 162720, Note_on_c, 0, 57, 0
1, 162720, Note_on_c, 0, 67, 0
1, 162720, Control_c, 0, 64, 127
1, 162720, Note_on_c, 0, 43, 49
1, 162960, Tempo, 349000
1, 162960, Note_on_c, 0, 67, 49
1, 163200, Tempo, 351185
1, 163200, Note_on_c, 0, 67, 0
1, 163200, Note_on_c, 0, 55, 44
1, 163200, Note_on_c, 0, 59, 44
1, 163200, Note_on_c, 0, 67, 49
1, 163200, Note_on_c, 0, 50, 38
1, 163440, Note_on_c, 0, 67, 0
1, 163525, Control_c, 0, 64, 0
1, 163680, Tempo, 354526
1, 163680, Note_on_c, 0, 59, 0
1, 163680, Note_on_c, 0, 50, 0
1, 163680, Note_on_c, 0, 55, 0
1, 163680, Note_on_c, 0, 67, 50
1, 163680, Note_on_c, 0, 57, 45
1, 163680, Note_on_c, 0, 60, 45
1, 163680, Note_on_c, 0, 52, 39
1, 163751, Control_c, 0, 64, 127
1, 163948, Control_c, 0, 64, 0
1, 164160, Tempo, 344689
1, 164160, Note_on_c, 0, 52, 0
1, 164160, Note_on_c, 0, 57, 0
1, 164160, Note_on_c, 0, 43, 0
1, 164160, Note_on_c, 0, 67, 0
1, 164160, Note_on_c, 0, 60, 0
1, 164160, Note_on_c, 0, 43, 49
1, 164640, Tempo, 345742
1, 164640, Note_on_c, 0, 57, 44
1, 164640, Note_on_c, 0, 60, 44
1, 164640, Note_on_c, 0, 67, 49
1, 164640, Note_on_c, 0, 52, 40
1, 164696, Control_c, 0, 64, 127
1, 164880, Tempo, 351185
1, 164880, Note_on_c, 0, 60, 0
1, 164880, Note_on_c, 0, 57, 0
1, 164880, Note_on_c, 0, 64, 40
1, 165120, Tempo, 345742
1, 165120, Note_on_c, 0, 64, 0
1, 165120, Note_on_c, 0, 52, 0
1, 165120, Note_on_c, 0, 67, 0
1, 165120, Note_on_c, 0, 62, 45
1, 165120, Note_on_c, 0, 67, 50
1, 165120, Note_on_c, 0, 54, 40
1, 165304, Control_c, 0, 64, 0
1, 165360, Tempo, 351185
1, 165360, Note_on_c, 0, 62, 0
1, 165360, Note_on_c, 0, 60, 44
1, 165600, Note_on_c, 0, 60, 0
1, 165600, Note_on_c, 0, 54, 0
1, 165600, Note_on_c, 0, 67, 0
1, 165600, Note_on_c, 0, 43, 0
1, 165600, Note_on_c, 0, 59, 47
1, 165600, Note_on_c, 0, 67, 52
1, 165600, Control_c, 0, 64, 127
1, 165600, Note_on_c, 0, 43, 49
1, 165840, Note_on_c, 0, 59, 0
1, 165840, Note_on_c, 0, 60, 42
1, 166040, Tempo, 351185
1, 166080, Note_on_c, 0, 60, 0
1, 166080, Note_on_c, 0, 67, 0
1, 166080, Note_on_c, 0, 59, 41
1, 166080, Note_on_c, 0, 55, 44
1, 166194, Control_c, 0, 64, 0
1, 166240, Tempo, 352299
1, 166320, Note_on_c, 0, 59, 0
1, 166320, Note_on_c, 0, 58, 40
1, 166440, Tempo, 353399
1, 166560, Note_on_c, 0, 58, 0
1, 166560, Note_on_c, 0, 55, 0
1, 166560, Note_on_c, 0, 57, 39
1, 166640, Tempo, 354526
1, 166800, Note_on_c, 0, 57, 0
1, 166800, Note_on_c, 0, 56, 39
1, 166840, Tempo, 355661
1, 167040, Tempo, 335364
1, 167040, Note_on_c, 0, 56, 0
1, 167040, Note_on_c, 0, 43, 0
1, 167040, Note_on_c, 0, 55, 49
1, 167160, Control_c, 0, 64, 127
1, 167280, Tempo, 340483
1, 167280, Note_on_c, 0, 79, 49
1, 167520, Tempo, 346821
1, 167520, Note_on_c, 0, 79, 0
1, 167520, Note_on_c, 0, 67, 44
1, 167520, Note_on_c, 0, 71, 44
1, 167520, Note_on_c, 0, 79, 49
1, 167520, Note_on_c, 0, 62, 38
1, 167760, Note_on_c, 0, 79, 0
1, 167760, Control_c, 0, 64, 0
1, 168000, Tempo, 355661
1, 168000, Note_on_c, 0, 71, 0
1, 168000, Note_on_c, 0, 62, 0
1, 168000, Note_on_c, 0, 67, 0
1, 168000, Note_on_c, 0, 69, 45
1, 168000, Note_on_c, 0, 72, 45
1, 168000, Note_on_c, 0, 79, 50
1, 168000, Note_on_c, 0, 64, 42
1, 168113, Control_c, 0, 64, 127
1, 168339, Control_c, 0, 64, 0
1, 168480, Tempo, 338409
1, 168480, Note_on_c, 0, 64, 0
1, 168480, Note_on_c, 0, 72, 0
1, 168480, Note_on_c, 0, 55, 0
1, 168480, Note_on_c, 0, 69, 0
1, 168480, Note_on_c, 0, 79, 0
1, 168480, Control_c, 0, 64, 127
1, 168480, Note_on_c, 0, 55, 49
1, 168720, Tempo, 343623
1, 168720, Note_on_c, 0, 79, 49
1, 168960, Tempo, 349000
1, 168960, Note_on_c, 0, 79, 0
1, 168960, Note_on_c, 0, 67, 44
1, 168960, Note_on_c, 0, 71, 44
1, 168960, Note_on_c, 0, 79, 49
1, 168960, Note_on_c, 0, 62, 38
1, 169200, Note_on_c, 0, 79, 0
1, 169285, Control_c, 0, 64, 0
1, 169440, Tempo, 354526
1, 169440, Note_on_c, 0, 71, 0
1, 169440, Note_on_c, 0, 62, 0
1, 169440, Note_on_c, 0, 67, 0
1, 169440, Note_on_c, 0, 79, 50
1, 169440, Note_on_c, 0, 69, 45
1, 169440, Note_on_c, 0, 72, 45
1, 169440, Note_on_c, 0, 64, 39
1, 169511, Control_c, 0, 64, 127
1, 169708, Control_c, 0, 64, 0
1, 169920, Tempo, 342564
1, 169920, Note_on_c, 0, 64, 0
1, 169920, Note_on_c, 0, 69, 0
1, 169920, Note_on_c, 0, 55, 0
1, 169920, Note_on_c, 0, 79, 0
1, 169920, Note_on_c, 0, 72, 0
1, 169920, Note_on_c, 0, 55, 49
1, 170400, Tempo, 345742
1, 170400, Note_on_c, 0, 69, 55
1, 170400, Note_on_c, 0, 72, 55
1, 170400, Note_on_c, 0, 79, 55
1, 170400, Note_on_c, 0, 64, 58
1, 170456, Control_c, 0, 64, 127
1, 170640, Tempo, 351185
1, 170640, Note_on_c, 0, 72, 0
1, 170640, Note_on_c, 0, 69, 0
1, 170640, Note_on_c, 0, 76, 52
1, 170880, Tempo, 345742
1, 170880, Note_on_c, 0, 76, 0
1, 170880, Note_on_c, 0, 74, 59
1, 171064, Control_c, 0, 64, 0
1, 171120, Tempo, 351185
1, 171120, Note_on_c, 0, 74, 0
1, 171120, Note_on_c, 0, 72, 55
1, 171360, Note_on_c, 0, 72, 0
1, 171360, Note_on_c, 0, 64, 0
1, 171360, Note_on_c, 0, 79, 0
1, 171360, Note_on_c, 0, 55, 0
1, 171360, Note_on_c, 0, 71, 71
1, 171360, Note_on_c, 0, 79, 71
1, 171360, Note_on_c, 0, 65, 57
1, 171360, Control_c, 0, 64, 127
1, 171600, Tempo, 356803
1, 171600, Note_on_c, 0, 71, 0
1, 171600, Note_on_c, 0, 76, 62
1, 171840, Tempo, 350079
1, 171840, Note_on_c, 0, 76, 0
1, 171840, Note_on_c, 0, 74, 69
1, 171954, Control_c, 0, 64, 0
1, 172080, Note_on_c, 0, 74, 0
1, 172080, Note_on_c, 0, 72, 61
1, 172320, Tempo, 346821
1, 172320, Note_on_c, 0, 72, 0
1, 172320, Note_on_c, 0, 71, 64
1, 172800, Note_on_c, 0, 79, 0
1, 173040, Tempo, 345742
1, 173040, Note_on_c, 0, 71, 0
1, 173040, Note_on_c, 0, 74, 58
1, 173040, Control_c, 0, 64, 127
1, 173280, Note_on_c, 0, 74, 0
1, 173280, Note_on_c, 0, 72, 61
1, 173520, Note_on_c, 0, 72, 0
1, 173520, Note_on_c, 0, 71, 56
1, 173732, Control_c, 0, 64, 0
1, 173760, Tempo, 349000
1, 173760, Note_on_c, 0, 71, 0
1, 173760, Note_on_c, 0, 69, 59
1, 174040, Tempo, 350079
1, 174320, Tempo, 351185
1, 174480, Note_on_c, 0, 69, 0
1, 174480, Note_on_c, 0, 72, 48
1, 174520, Tempo, 355661
1, 174635, Control_c, 0, 64, 127
1, 174640, Tempo, 356803
1, 174720, Tempo, 357931
1, 174720, Note_on_c, 0, 72, 0
1, 174720, Note_on_c, 0, 71, 53
1, 174800, Tempo, 359088
1, 174880, Tempo, 360252
1, 174960, Tempo, 361424
1, 174960, Note_on_c, 0, 71, 0
1, 174960, Note_on_c, 0, 69, 50
1, 175040, Tempo, 362582
1, 175120, Tempo, 363769
1, 175129, Control_c, 0, 64, 0
1, 175200, Tempo, 750000
1, 175200, Note_on_c, 0, 69, 0
1, 175200, Note_on_c, 0, 67, 44
1, 175680, Key_signature, 0, "major"
1, 175680, Tempo, 355030
1, 175680, Note_on_c, 0, 67, 0
1, 175680, Note_on_c, 0, 65, 0
1, 175680, Note_on_c, 0, 65, 38
1, 175733, Control_c, 0, 64, 127
1, 176160, Tempo, 344828
1, 176160, Note_on_c, 0, 67, 47
1, 176987, Control_c, 0, 64, 0
1, 177120, Note_on_c, 0, 67, 0
1, 177120, Note_on_c, 0, 65, 0
1, 177120, Note_on_c, 0, 65, 44
1, 177173, Control_c, 0, 64, 127
1, 177600, Note_on_c, 0, 67, 53
1, 178240, Control_c, 0, 64, 0
1, 178560, Tempo, 339443
1, 178560, Note_on_c, 0, 67, 0
1, 178560, Note_on_c, 0, 65, 0
1, 178560, Note_on_c, 0, 65, 48
1, 178587, Control_c, 0, 64, 127
1, 178720, Tempo, 338409
1, 178880, Tempo, 337382
1, 179040, Tempo, 336379
1, 179040, Note_on_c, 0, 67, 58
1, 179200, Tempo, 335364
1, 179360, Tempo, 334355
1, 179387, Control_c, 0, 64, 0
1, 179520, Tempo, 333370
1, 179520, Note_on_c, 0, 65, 0
1, 179520, Note_on_c, 0, 65, 51
1, 179573, Control_c, 0, 64, 127
1, 179680, Tempo, 332373
1, 179840, Tempo, 331382
1, 180000, Tempo, 330396
1, 180000, Note_on_c, 0, 67, 0
1, 180000, Note_on_c, 0, 67, 63
1, 180160, Tempo, 329435
1, 180320, Tempo, 328461
1, 180347, Control_c, 0, 64, 0
1, 180480, Tempo, 327493
1, 180480, Note_on_c, 0, 65, 0
1, 180480, Note_on_c, 0, 65, 55
1, 180533, Control_c, 0, 64, 127
1, 180640, Tempo, 326531
1, 180800, Tempo, 325591
1, 180960, Tempo, 324640
1, 180960, Note_on_c, 0, 67, 0
1, 180960, Note_on_c, 0, 67, 67
1, 181000, Tempo, 324640
1, 181040, Tempo, 325591
1, 181067, Control_c, 0, 64, 0
1, 181080, Tempo, 327493
1, 181120, Tempo, 328461
1, 181160, Tempo, 330396
1, 181200, Tempo, 331382
1, 181240, Tempo, 333370
1, 181280, Tempo, 335364
1, 181320, Tempo, 336379
1, 181440, Tempo, 357931
1, 181440, Note_on_c, 0, 65, 0
1, 181440, Note_on_c, 0, 36, 73
1, 181440, Note_on_c, 0, 43, 73
1, 181539, Control_c, 0, 64, 127
1, 181860, Note_on_c, 0, 67, 0
1, 181860, Note_on_c, 0, 65, 60
1, 181860, Note_on_c, 0, 71, 69
1, 181920, Tempo, 333370
1, 181920, Note_on_c, 0, 43, 0
1, 181920, Note_on_c, 0, 36, 0
1, 181920, Note_on_c, 0, 76, 78
1, 181920, Note_on_c, 0, 67, 63
1, 182400, Tempo, 344689
1, 182626, Control_c, 0, 64, 0
1, 182640, Note_on_c, 0, 76, 0
1, 182640, Note_on_c, 0, 74, 74
1, 182820, Note_on_c, 0, 74, 0
1, 182820, Note_on_c, 0, 72, 64
1, 182880, Note_on_c, 0, 72, 0
1, 182880, Note_on_c, 0, 71, 0
1, 182880, Note_on_c, 0, 65, 0
1, 182880, Note_on_c, 0, 67, 0
1, 182880, Note_on_c, 0, 64, 70
1, 182880, Note_on_c, 0, 76, 79
1, 182880, Note_on_c, 0, 36, 73
1, 182880, Note_on_c, 0, 43, 73
1, 182944, Control_c, 0, 64, 127
1, 183120, Note_on_c, 0, 76, 0
1, 183120, Note_on_c, 0, 64, 0
1, 183240, Note_on_c, 0, 71, 73
1, 183330, Note_on_c, 0, 71, 0
1, 183360, Note_on_c, 0, 36, 0
1, 183360, Note_on_c, 0, 43, 0
1, 183360, Note_on_c, 0, 64, 79
1, 183360, Note_on_c, 0, 72, 79
1, 183360, Note_on_c, 0, 55, 67
1, 183600, Note_on_c, 0, 72, 0
1, 183600, Note_on_c, 0, 64, 0
1, 183720, Note_on_c, 0, 74, 69
1, 183810, Note_on_c, 0, 74, 0
1, 183840, Tempo, 351185
1, 183840, Note_on_c, 0, 55, 0
1, 183840, Note_on_c, 0, 64, 73
1, 183840, Note_on_c, 0, 76, 81
1, 183840, Note_on_c, 0, 60, 67
1, 184080, Control_c, 0, 64, 0
1, 184260, Note_on_c, 0, 76, 0
1, 184260, Note_on_c, 0, 64, 0
1, 184260, Note_on_c, 0, 72, 52
1, 184320, Tempo, 339443
1, 184320, Note_on_c, 0, 60, 0
1, 184320, Note_on_c, 0, 76, 59
1, 184320, Note_on_c, 0, 50, 55
1, 184331, Control_c, 0, 64, 127
1, 184560, Note_on_c, 0, 76, 0
1, 184560, Note_on_c, 0, 72, 0
1, 184680, Tempo, 338409
1, 184680, Note_on_c, 0, 78, 53
1, 184743, Control_c, 0, 64, 0
1, 184770, Note_on_c, 0, 78, 0
1, 184800, Tempo, 343623
1, 184800, Note_on_c, 0, 50, 0
1, 184800, Note_on_c, 0, 72, 52
1, 184800, Note_on_c, 0, 79, 59
1, 184800, Note_on_c, 0, 64, 53
1, 184920, Note_on_c, 0, 64, 0
1, 184920, Note_on_c, 0, 79, 0
1, 184920, Note_on_c, 0, 72, 0
1, 185280, Tempo, 360252
1, 185280, Note_on_c, 0, 72, 55
1, 185280, Note_on_c, 0, 81, 61
1, 185280, Note_on_c, 0, 66, 56
1, 185400, Note_on_c, 0, 66, 0
1, 185400, Note_on_c, 0, 81, 0
1, 185400, Note_on_c, 0, 72, 0
1, 185700, Note_on_c, 0, 79, 57
1, 185711, Control_c, 0, 64, 127
1, 185760, Tempo, 343623
1, 185760, Note_on_c, 0, 79, 0
1, 185760, Note_on_c, 0, 71, 58
1, 185760, Note_on_c, 0, 83, 64
1, 185760, Note_on_c, 0, 67, 63
1, 186240, Tempo, 347907
1, 186240, Note_on_c, 0, 67, 0
1, 186240, Note_on_c, 0, 62, 58
1, 186720, Tempo, 343623
1, 186720, Note_on_c, 0, 62, 0
1, 186720, Note_on_c, 0, 83, 0
1, 186720, Note_on_c, 0, 71, 0
1, 186720, Note_on_c, 0, 71, 53
1, 186720, Note_on_c, 0, 79, 60
1, 186720, Note_on_c, 0, 55, 57
1, 186827, Control_c, 0, 64, 0
1, 187140, Note_on_c, 0, 55, 0
1, 187140, Note_on_c, 0, 79, 0
1, 187140, Note_on_c, 0, 71, 0
1, 187140, Note_on_c, 0, 77, 64
1, 187151, Control_c, 0, 64, 127
1, 187200, Note_on_c, 0, 77, 0
1, 187200, Note_on_c, 0, 81, 70
1, 187200, Note_on_c, 0, 60, 62
1, 187200, Note_on_c, 0, 53, 62
1, 187440, Tempo, 353399
1, 187440, Note_on_c, 0, 81, 0
1, 187440, Note_on_c, 0, 83, 70
1, 187645, Control_c, 0, 64, 0
1, 187680, Tempo, 339443
1, 187680, Note_on_c, 0, 83, 0
1, 187680, Note_on_c, 0, 53, 0
1, 187680, Note_on_c, 0, 60, 0
1, 187680, Note_on_c, 0, 77, 67
1, 187680, Note_on_c, 0, 84, 75
1, 187680, Note_on_c, 0, 69, 67
1, 187680, Note_on_c, 0, 62, 60
1, 187701, Control_c, 0, 64, 127
1, 187840, Note_on_c, 0, 84, 0
1, 187840, Note_on_c, 0, 86, 67
1, 188000, Note_on_c, 0, 86, 0
1, 188000, Note_on_c, 0, 84, 67
1, 188160, Tempo, 345742
1, 188160, Note_on_c, 0, 84, 0
1, 188160, Note_on_c, 0, 83, 72
1, 188400, Note_on_c, 0, 83, 0
1, 188400, Note_on_c, 0, 81, 63
1, 188442, Control_c, 0, 64, 0
1, 188640, Tempo, 342564
1, 188640, Note_on_c, 0, 81, 0
1, 188640, Note_on_c, 0, 77, 0
1, 188640, Note_on_c, 0, 69, 0
1, 188640, Note_on_c, 0, 62, 0
1, 188640, Note_on_c, 0, 76, 67
1, 188640, Note_on_c, 0, 79, 75
1, 188640, Note_on_c, 0, 55, 56
1, 188654, Control_c, 0, 64, 127
1, 189000, Tempo, 353982
1, 189000, Note_on_c, 0, 79, 0
1, 189000, Note_on_c, 0, 76, 0
1, 189000, Note_on_c, 0, 76, 59
1, 189000, Note_on_c, 0, 79, 66
1, 189049, Control_c, 0, 64, 0
1, 189090, Note_on_c, 0, 79, 0
1, 189090, Note_on_c, 0, 76, 0
1, 189120, Tempo, 347907
1, 189120, Note_on_c, 0, 55, 0
1, 189120, Note_on_c, 0, 74, 60
1, 189120, Note_on_c, 0, 77, 67
1, 189120, Note_on_c, 0, 67, 58
1, 189169, Control_c, 0, 64, 127
1, 189600, Note_on_c, 0, 77, 0
1, 189600, Note_on_c, 0, 74, 0
1, 189600, Note_on_c, 0, 76, 62
1, 189600, Note_on_c, 0, 72, 56
1, 190080, Tempo, 342564
1, 190080, Note_on_c, 0, 72, 0
1, 190080, Note_on_c, 0, 76, 0
1, 190080, Note_on_c, 0, 67, 0
1, 190080, Note_on_c, 0, 71, 59
1, 190080, Note_on_c, 0, 74, 66
1, 190080, Note_on_c, 0, 55, 50
1, 190129, Control_c, 0, 64, 0
1, 190440, Tempo, 356083
1, 190440, Note_on_c, 0, 74, 0
1, 190440, Note_on_c, 0, 71, 0
1, 190440, Note_on_c, 0, 71, 53
1, 190440, Note_on_c, 0, 74, 60
1, 190530, Note_on_c, 0, 74, 0
1, 190530, Note_on_c, 0, 71, 0
1, 190560, Tempo, 346821
1, 190560, Note_on_c, 0, 55, 0
1, 190560, Note_on_c, 0, 79, 64
1, 191026, Control_c, 0, 64, 127
1, 191040, Note_on_c, 0, 69, 50
1, 191040, Note_on_c, 0, 72, 50
1, 191040, Note_on_c, 0, 76, 56
1, 191040, Note_on_c, 0, 67, 57
1, 191520, Note_on_c, 0, 67, 0
1, 191520, Note_on_c, 0, 72, 0
1, 191520, Note_on_c, 0, 79, 0
1, 191520, Note_on_c, 0, 69, 0
1, 191520, Note_on_c, 0, 76, 0
1, 191520, Note_on_c, 0, 69, 53
1, 191520, Note_on_c, 0, 72, 60
1, 191520, Note_on_c, 0, 55, 51
1, 191548, Control_c, 0, 64, 0
1, 191880, Tempo, 362538
1, 191880, Note_on_c, 0, 72, 0
1, 191880, Note_on_c, 0, 69, 0
1, 191880, Note_on_c, 0, 69, 51
1, 191880, Note_on_c, 0, 72, 57
1, 191970, Note_on_c, 0, 72, 0
1, 191970, Note_on_c, 0, 69, 0
1, 192000, Tempo, 346821
1, 192000, Note_on_c, 0, 55, 0
1, 192000, Note_on_c, 0, 79, 61
1, 192480, Note_on_c, 0, 71, 48
1, 192480, Note_on_c, 0, 74, 53
1, 192480, Note_on_c, 0, 67, 56
1, 192501, Control_c, 0, 64, 127
1, 192918, Control_c, 0, 64, 0
1, 192960, Tempo, 357931
1, 192960, Note_on_c, 0, 67, 0
1, 192960, Note_on_c, 0, 79, 0
1, 192960, Note_on_c, 0, 71, 0
1, 192960, Note_on_c, 0, 74, 0
1, 192960, Note_on_c, 0, 43, 73
1, 192960, Note_on_c, 0, 36, 73
1, 193059, Control_c, 0, 64, 127
1, 193380, Note_on_c, 0, 65, 61
1, 193380, Note_on_c, 0, 71, 69
1, 193440, Tempo, 333370
1, 193440, Note_on_c, 0, 36, 0
1, 193440, Note_on_c, 0, 43, 0
1, 193440, Note_on_c, 0, 76, 78
1, 193440, Note_on_c, 0, 67, 63
1, 193920, Tempo, 344689
1, 194146, Control_c, 0, 64, 0
1, 194160, Note_on_c, 0, 76, 0
1, 194160, Note_on_c, 0, 74, 74
1, 194340, Note_on_c, 0, 74, 0
1, 194340, Note_on_c, 0, 72, 64
1, 194400, Note_on_c, 0, 72, 0
1, 194400, Note_on_c, 0, 71, 0
1, 194400, Note_on_c, 0, 65, 0
1, 194400, Note_on_c, 0, 67, 0
1, 194400, Note_on_c, 0, 64, 70
1, 194400, Note_on_c, 0, 76, 79
1, 194400, Note_on_c, 0, 36, 73
1, 194400, Note_on_c, 0, 43, 73
1, 194464, Control_c, 0, 64, 127
1, 194640, Note_on_c, 0, 76, 0
1, 194640, Note_on_c, 0, 64, 0
1, 194760, Note_on_c, 0, 71, 73
1, 194850, Note_on_c, 0, 71, 0
1, 194880, Note_on_c, 0, 36, 0
1, 194880, Note_on_c, 0, 43, 0
1, 194880, Note_on_c, 0, 64, 79
1, 194880, Note_on_c, 0, 72, 79
1, 194880, Note_on_c, 0, 55, 67
1, 195120, Note_on_c, 0, 72, 0
1, 195120, Note_on_c, 0, 64, 0
1, 195240, Note_on_c, 0, 74, 69
1, 195330, Note_on_c, 0, 74, 0
1, 195360, Tempo, 351185
1, 195360, Note_on_c, 0, 55, 0
1, 195360, Note_on_c, 0, 64, 73
1, 195360, Note_on_c, 0, 76, 81
1, 195360, Note_on_c, 0, 60, 67
1, 195600, Control_c, 0, 64, 0
1, 195780, Note_on_c, 0, 76, 0
1, 195780, Note_on_c, 0, 64, 0
1, 195780, Note_on_c, 0, 72, 52
1, 195840, Tempo, 339443
1, 195840, Note_on_c, 0, 60, 0
1, 195840, Note_on_c, 0, 76, 59
1, 195840, Note_on_c, 0, 50, 55
1, 195851, Control_c, 0, 64, 127
1, 196080, Note_on_c, 0, 76, 0
1, 196080, Note_on_c, 0, 72, 0
1, 196200, Tempo, 338409
1, 196200, Note_on_c, 0, 78, 53
1, 196263, Control_c, 0, 64, 0
1, 196290, Note_on_c, 0, 78, 0
1, 196320, Tempo, 343623
1, 196320, Note_on_c, 0, 50, 0
1, 196320, Note_on_c, 0, 72, 52
1, 196320, Note_on_c, 0, 79, 59
1, 196320, Note_on_c, 0, 64, 53
1, 196440, Note_on_c, 0, 64, 0
1, 196440, Note_on_c, 0, 79, 0
1, 196440, Note_on_c, 0, 72, 0
1, 196800, Tempo, 360252
1, 196800, Note_on_c, 0, 72, 55
1, 196800, Note_on_c, 0, 81, 61
1, 196800, Note_on_c, 0, 66, 56
1, 196920, Note_on_c, 0, 66, 0
1, 196920, Note_on_c, 0, 81, 0
1, 196920, Note_on_c, 0, 72, 0
1, 197220, Note_on_c, 0, 79, 59
1, 197231, Control_c, 0, 64, 127
1, 197280, Tempo, 343623
1, 197280, Note_on_c, 0, 79, 0
1, 197280, Note_on_c, 0, 71, 58
1, 197280, Note_on_c, 0, 83, 64
1, 197280, Note_on_c, 0, 67, 63
1, 197760, Tempo, 347907
1, 197760, Note_on_c, 0, 67, 0
1, 197760, Note_on_c, 0, 62, 58
1, 198240, Tempo, 343623
1, 198240, Note_on_c, 0, 62, 0
1, 198240, Note_on_c, 0, 83, 0
1, 198240, Note_on_c, 0, 71, 0
1, 198240, Note_on_c, 0, 71, 53
1, 198240, Note_on_c, 0, 79, 60
1, 198240, Note_on_c, 0, 55, 57
1, 198347, Control_c, 0, 64, 0
1, 198660, Note_on_c, 0, 55, 0
1, 198660, Note_on_c, 0, 79, 0
1, 198660, Note_on_c, 0, 71, 0
1, 198660, Note_on_c, 0, 77, 62
1, 198671, Control_c, 0, 64, 127
1, 198720, Tempo, 357931
1, 198720, Note_on_c, 0, 77, 0
1, 198720, Note_on_c, 0, 81, 69
1, 198720, Note_on_c, 0, 60, 62
1, 198720, Note_on_c, 0, 53, 62
1, 198960, Tempo, 353399
1, 198960, Note_on_c, 0, 81, 0
1, 198960, Note_on_c, 0, 83, 70
1, 199165, Control_c, 0, 64, 0
1, 199200, Tempo, 339443
1, 199200, Note_on_c, 0, 83, 0
1, 199200, Note_on_c, 0, 53, 0
1, 199200, Note_on_c, 0, 60, 0
1, 199200, Note_on_c, 0, 77, 67
1, 199200, Note_on_c, 0, 84, 75
1, 199200, Note_on_c, 0, 69, 67
1, 199200, Note_on_c, 0, 62, 60
1, 199221, Control_c, 0, 64, 127
1, 199360, Note_on_c, 0, 84, 0
1, 199360, Note_on_c, 0, 86, 67
1, 199520, Note_on_c, 0, 86, 0
1, 199520, Note_on_c, 0, 84, 67
1, 199680, Tempo, 345742
1, 199680, Note_on_c, 0, 84, 0
1, 199680, Note_on_c, 0, 83, 72
1, 199920, Note_on_c, 0, 83, 0
1, 199920, Note_on_c, 0, 81, 63
1, 199962, Control_c, 0, 64, 0
1, 200160, Tempo, 342564
1, 200160, Note_on_c, 0, 81, 0
1, 200160, Note_on_c, 0, 77, 0
1, 200160, Note_on_c, 0, 69, 0
1, 200160, Note_on_c, 0, 62, 0
1, 200160, Note_on_c, 0, 76, 67
1, 200160, Note_on_c, 0, 79, 75
1, 200160, Note_on_c, 0, 55, 56
1, 200174, Control_c, 0, 64, 127
1, 200520, Tempo, 352941
1, 200520, Note_on_c, 0, 79, 0
1, 200520, Note_on_c, 0, 76, 0
1, 200520, Note_on_c, 0, 76, 59
1, 200520, Note_on_c, 0, 79, 66
1, 200569, Control_c, 0, 64, 0
1, 200610, Note_on_c, 0, 79, 0
1, 200610, Note_on_c, 0, 76, 0
1, 200640, Tempo, 347907
1, 200640, Note_on_c, 0, 55, 0
1, 200640, Note_on_c, 0, 74, 60
1, 200640, Note_on_c, 0, 77, 67
1, 200640, Note_on_c, 0, 67, 58
1, 200689, Control_c, 0, 64, 127
1, 201120, Note_on_c, 0, 77, 0
1, 201120, Note_on_c, 0, 74, 0
1, 201120, Note_on_c, 0, 76, 62
1, 201120, Note_on_c, 0, 72, 56
1, 201600, Tempo, 342564
1, 201600, Note_on_c, 0, 72, 0
1, 201600, Note_on_c, 0, 76, 0
1, 201600, Note_on_c, 0, 67, 0
1, 201600, Note_on_c, 0, 71, 59
1, 201600, Note_on_c, 0, 74, 66
1, 201600, Note_on_c, 0, 55, 50
1, 201649, Control_c, 0, 64, 0
1, 201960, Tempo, 352941
1, 201960, Note_on_c, 0, 74, 0
1, 201960, Note_on_c, 0, 71, 0
1, 201960, Note_on_c, 0, 71, 53
1, 201960, Note_on_c, 0, 74, 60
1, 202050, Note_on_c, 0, 74, 0
1, 202050, Note_on_c, 0, 71, 0
1, 202080, Tempo, 346821
1, 202080, Note_on_c, 0, 55, 0
1, 202080, Note_on_c, 0, 79, 64
1, 202560, Note_on_c, 0, 69, 50
1, 202560, Note_on_c, 0, 72, 50
1, 202560, Note_on_c, 0, 76, 56
1, 202560, Note_on_c, 0, 67, 50
1, 203040, Note_on_c, 0, 67, 0
1, 203040, Note_on_c, 0, 72, 0
1, 203040, Note_on_c, 0, 79, 0
1, 203040, Note_on_c, 0, 69, 0
1, 203040, Note_on_c, 0, 76, 0
1, 203040, Note_on_c, 0, 74, 57
1, 203040, Note_on_c, 0, 65, 51
1, 203040, Note_on_c, 0, 71, 51
1, 203040, Note_on_c, 0, 67, 55
1, 203167, Control_c, 0, 64, 127
1, 203520, Note_on_c, 0, 74, 0
1, 203520, Note_on_c, 0, 76, 53
1, 203760, Tempo, 352299
1, 203760, Note_on_c, 0, 76, 0
1, 203760, Note_on_c, 0, 74, 51
1, 204000, Tempo, 361424
1, 204000, Note_on_c, 0, 74, 0
1, 204000, Note_on_c, 0, 65, 0
1, 204000, Note_on_c, 0, 71, 0
1, 204000, Note_on_c, 0, 67, 0
1, 204000, Note_on_c, 0, 72, 50
1, 204000, Note_on_c, 0, 64, 44
1, 204000, Control_c, 0, 64, 0
1, 204000, Note_on_c, 0, 60, 42
1, 204480, Tempo, 360360
1, 204480, Marker_t, "meno mosso"
1, 204480, Note_on_c, 0, 60, 0
1, 204480, Note_on_c, 0, 64, 0
1, 204480, Note_on_c, 0, 72, 0
1, 204480, Note_on_c, 0, 69, 48
1, 204480, Note_on_c, 0, 72, 48
1, 204480, Note_on_c, 0, 76, 57
1, 204840, Tempo, 384615
1, 204840, Note_on_c, 0, 76, 0
1, 204840, Note_on_c, 0, 72, 0
1, 204840, Note_on_c, 0, 69, 0
1, 204840, Note_on_c, 0, 69, 42
1, 204840, Note_on_c, 0, 72, 42
1, 204840, Note_on_c, 0, 76, 51
1, 204960, Tempo, 365542
1, 204960, Note_on_c, 0, 76, 0
1, 204960, Note_on_c, 0, 72, 0
1, 204960, Note_on_c, 0, 69, 0
1, 204960, Note_on_c, 0, 79, 58
1, 205440, Note_on_c, 0, 71, 40
1, 205440, Note_on_c, 0, 74, 45
1, 205440, Note_on_c, 0, 60, 51
1, 205461, Control_c, 0, 64, 127
1, 205920, Tempo, 361446
1, 205920, Note_on_c, 0, 74, 0
1, 205920, Note_on_c, 0, 79, 0
1, 205920, Note_on_c, 0, 71, 0
1, 205920, Note_on_c, 0, 69, 48
1, 205920, Note_on_c, 0, 72, 48
1, 205920, Note_on_c, 0, 76, 57
1, 206280, Tempo, 387097
1, 206280, Note_on_c, 0, 76, 0
1, 206280, Note_on_c, 0, 72, 0
1, 206280, Note_on_c, 0, 69, 0
1, 206280, Note_on_c, 0, 69, 42
1, 206280, Note_on_c, 0, 72, 42
1, 206280, Note_on_c, 0, 76, 51
1, 206400, Tempo, 366636
1, 206400, Note_on_c, 0, 76, 0
1, 206400, Note_on_c, 0, 72, 0
1, 206400, Note_on_c, 0, 69, 0
1, 206400, Note_on_c, 0, 79, 58
1, 206725, Control_c, 0, 64, 0
1, 206880, Note_on_c, 0, 60, 0
1, 206880, Note_on_c, 0, 71, 40
1, 206880, Note_on_c, 0, 74, 45
1, 206880, Note_on_c, 0, 60, 51
1, 206908, Control_c, 0, 64, 127
1, 207360, Tempo, 370370
1, 207360, Note_on_c, 0, 74, 0
1, 207360, Note_on_c, 0, 79, 0
1, 207360, Note_on_c, 0, 71, 0
1, 207360, Note_on_c, 0, 62, 45
1, 207360, Note_on_c, 0, 65, 45
1, 207360, Note_on_c, 0, 69, 53
1, 207416, Control_c, 0, 64, 0
1, 207466, Control_c, 0, 64, 127
1, 207720, Tempo, 389610
1, 207720, Note_on_c, 0, 69, 0
1, 207720, Note_on_c, 0, 65, 0
1, 207720, Note_on_c, 0, 62, 0
1, 207720, Note_on_c, 0, 62, 40
1, 207720, Note_on_c, 0, 65, 40
1, 207720, Note_on_c, 0, 69, 48
1, 207840, Tempo, 372232
1, 207840, Note_on_c, 0, 69, 0
1, 207840, Note_on_c, 0, 65, 0
1, 207840, Note_on_c, 0, 62, 0
1, 207840, Note_on_c, 0, 72, 55
1, 208193, Control_c, 0, 64, 0
1, 208320, Note_on_c, 0, 60, 0
1, 208320, Note_on_c, 0, 64, 38
1, 208320, Note_on_c, 0, 67, 41
1, 208320, Note_on_c, 0, 60, 51
1, 208433, Control_c, 0, 64, 127
1, 208800, Tempo, 373832
1, 208800, Note_on_c, 0, 67, 0
1, 208800, Note_on_c, 0, 72, 0
1, 208800, Note_on_c, 0, 64, 0
1, 208800, Note_on_c, 0, 62, 45
1, 208800, Note_on_c, 0, 65, 45
1, 208800, Note_on_c, 0, 69, 53
1, 208800, Control_c, 0, 64, 0
1, 208849, Control_c, 0, 64, 127
1, 209160, Tempo, 389610
1, 209160, Note_on_c, 0, 69, 0
1, 209160, Note_on_c, 0, 65, 0
1, 209160, Note_on_c, 0, 62, 0
1, 209160, Note_on_c, 0, 62, 40
1, 209160, Note_on_c, 0, 65, 40
1, 209160, Note_on_c, 0, 69, 48
1, 209280, Tempo, 373367
1, 209280, Note_on_c, 0, 69, 0
1, 209280, Note_on_c, 0, 65, 0
1, 209280, Note_on_c, 0, 62, 0
1, 209280, Note_on_c, 0, 72, 55
1, 209675, Control_c, 0, 64, 0
1, 209760, Tempo, 380349
1, 209760, Note_on_c, 0, 60, 0
1, 209760, Note_on_c, 0, 64, 38
1, 209760, Note_on_c, 0, 67, 41
1, 209760, Note_on_c, 0, 60, 48
1, 209831, Control_c, 0, 64, 127
1, 210240, Tempo, 380952
1, 210240, Note_on_c, 0, 67, 0
1, 210240, Note_on_c, 0, 72, 0
1, 210240, Note_on_c, 0, 64, 0
1, 210240, Note_on_c, 0, 65, 41
1, 210240, Note_on_c, 0, 69, 50
1, 210240, Note_on_c, 0, 62, 41
1, 210240, Control_c, 0, 64, 0
1, 210346, Control_c, 0, 64, 127
1, 210600, Tempo, 415225
1, 210600, Note_on_c, 0, 62, 0
1, 210600, Note_on_c, 0, 69, 0
1, 210600, Note_on_c, 0, 65, 0
1, 210600, Note_on_c, 0, 65, 38
1, 210600, Note_on_c, 0, 69, 45
1, 210600, Note_on_c, 0, 62, 38
1, 210720, Tempo, 387572
1, 210720, Note_on_c, 0, 62, 0
1, 210720, Note_on_c, 0, 69, 0
1, 210720, Note_on_c, 0, 65, 0
1, 210720, Note_on_c, 0, 72, 51
1, 211115, Control_c, 0, 64, 0
1, 211200, Tempo, 404258
1, 211200, Note_on_c, 0, 64, 36
1, 211200, Note_on_c, 0, 67, 39
1, 211680, Tempo, 392567
1, 211680, Note_on_c, 0, 67, 0
1, 211680, Note_on_c, 0, 60, 0
1, 211680, Note_on_c, 0, 72, 0
1, 211680, Note_on_c, 0, 64, 0
1, 211680, Note_on_c, 0, 36, 81
1, 211813, Control_c, 0, 64, 127
1, 212160, Note_on_c, 0, 36, 0
1, 212160, Note_on_c, 0, 84, 86
1, 212160, Note_on_c, 0, 76, 77
1, 212160, Note_on_c, 0, 67, 75
1, 212160, Note_on_c, 0, 60, 68
1, 212480, Control_c, 0, 64, 0
1, 212481, Tempo, 385852
1, 212640, Note_on_c, 0, 60, 0
1, 212640, Note_on_c, 0, 84, 0
1, 212640, Note_on_c, 0, 76, 0
1, 212640, Note_on_c, 0, 67, 0
1, 214560, Tempo, 428571
1, 214560, End_track
0, 0, End_of_file
