0, 0, Header, 0, 1, 480
1, 0, Start_track
1, 0, Title_t, "Petite Suite"
1, 0, Title_t, "6. Serenade"
1, 0, Copyright_t, "Copyright © 2000 by Bernd Krueger"
1, 0, Text_t, "Alexander Borodin"
1, 0, Text_t, "Fertiggestellt am 25.6.00\012"
1, 0, Text_t, "Update am 21.8.2000\012"
1, 0, Text_t, "Normierung: 23.12.2002\012"
1, 0, Text_t, "Dauer: 1:55 Minuten\012"
1, 0, SMPTE_offset, 96, 0, 3, 0, 0
1, 0, Time_signature, 6, 3, 12, 8
1, 0, Key_signature, -5, "major"
1, 0, Tempo, 857878
1, 0, Marker_t, "Allegretto"
1, 0, Program_c, 0, 0
1, 0, Control_c, 0, 7, 100
1, 0, Control_c, 0, 64, 0
1, 0, Text_t, "bdca426d104a26ac9dcb070447587523"
1, 0, Control_c, 0, 91, 127
1, 0, Program_c, 0, 0
1, 0, Control_c, 0, 7, 100
1, 0, Note_on_c, 0, 44, 29
1, 0, Note_on_c, 0, 49, 35
1, 14, Control_c, 0, 64, 127
1, 240, Note_on_c, 0, 49, 0
1, 240, Note_on_c, 0, 44, 0
1, 240, Note_on_c, 0, 54, 29
1, 240, Note_on_c, 0, 58, 36
1, 240, Note_on_c, 0, 49, 29
1, 260, Tempo, 829646
1, 480, Tempo, 818777
1, 480, Note_on_c, 0, 49, 0
1, 480, Note_on_c, 0, 58, 0
1, 480, Note_on_c, 0, 54, 0
1, 480, Note_on_c, 0, 44, 26
1, 480, Note_on_c, 0, 49, 31
1, 600, Tempo, 863682
1, 600, Note_on_c, 0, 49, 0
1, 600, Note_on_c, 0, 44, 0
1, 600, Note_on_c, 0, 49, 24
1, 600, Note_on_c, 0, 54, 24
1, 600, Note_on_c, 0, 58, 29
1, 720, Tempo, 840689
1, 720, Note_on_c, 0, 58, 0
1, 720, Note_on_c, 0, 54, 0
1, 720, Note_on_c, 0, 49, 0
1, 720, Control_c, 0, 64, 0
1, 720, Note_on_c, 0, 44, 29
1, 720, Note_on_c, 0, 49, 35
1, 762, Control_c, 0, 64, 127
1, 960, Tempo, 824176
1, 960, Note_on_c, 0, 49, 0
1, 960, Note_on_c, 0, 44, 0
1, 960, Note_on_c, 0, 54, 29
1, 960, Note_on_c, 0, 61, 36
1, 960, Note_on_c, 0, 58, 29
1, 960, Note_on_c, 0, 49, 29
1, 1200, Tempo, 818777
1, 1200, Note_on_c, 0, 49, 0
1, 1200, Note_on_c, 0, 54, 0
1, 1200, Note_on_c, 0, 61, 0
1, 1200, Note_on_c, 0, 58, 0
1, 1200, Note_on_c, 0, 44, 27
1, 1200, Note_on_c, 0, 49, 33
1, 1320, Tempo, 863682
1, 1320, Note_on_c, 0, 49, 0
1, 1320, Note_on_c, 0, 44, 0
1, 1320, Note_on_c, 0, 61, 29
1, 1320, Note_on_c, 0, 58, 25
1, 1320, Note_on_c, 0, 54, 25
1, 1320, Note_on_c, 0, 49, 25
1, 1341, Control_c, 0, 64, 0
1, 1440, Note_on_c, 0, 49, 0
1, 1440, Note_on_c, 0, 61, 0
1, 1440, Note_on_c, 0, 58, 0
1, 1440, Note_on_c, 0, 54, 0
1, 1440, Note_on_c, 0, 44, 29
1, 1440, Note_on_c, 0, 49, 35
1, 1518, Control_c, 0, 64, 127
1, 1680, Tempo, 829646
1, 1680, Note_on_c, 0, 49, 0
1, 1680, Note_on_c, 0, 44, 0
1, 1680, Note_on_c, 0, 53, 30
1, 1680, Note_on_c, 0, 56, 37
1, 1680, Note_on_c, 0, 49, 30
1, 1920, Tempo, 824176
1, 1920, Note_on_c, 0, 49, 0
1, 1920, Note_on_c, 0, 56, 0
1, 1920, Note_on_c, 0, 53, 0
1, 1920, Note_on_c, 0, 44, 26
1, 1920, Note_on_c, 0, 49, 31
1, 2040, Tempo, 869691
1, 2040, Note_on_c, 0, 49, 0
1, 2040, Note_on_c, 0, 44, 0
1, 2040, Note_on_c, 0, 49, 25
1, 2040, Note_on_c, 0, 53, 25
1, 2040, Note_on_c, 0, 56, 29
1, 2146, Control_c, 0, 64, 0
1, 2160, Tempo, 840689
1, 2160, Note_on_c, 0, 56, 0
1, 2160, Note_on_c, 0, 53, 0
1, 2160, Note_on_c, 0, 49, 0
1, 2160, Note_on_c, 0, 44, 29
1, 2160, Note_on_c, 0, 49, 35
1, 2202, Control_c, 0, 64, 127
1, 2400, Tempo, 824176
1, 2400, Note_on_c, 0, 49, 0
1, 2400, Note_on_c, 0, 44, 0
1, 2400, Note_on_c, 0, 49, 29
1, 2400, Note_on_c, 0, 61, 36
1, 2400, Note_on_c, 0, 53, 29
1, 2640, Tempo, 813559
1, 2640, Note_on_c, 0, 53, 0
1, 2640, Note_on_c, 0, 61, 0
1, 2640, Note_on_c, 0, 49, 0
1, 2640, Note_on_c, 0, 44, 26
1, 2640, Note_on_c, 0, 49, 31
1, 2760, Tempo, 869691
1, 2760, Note_on_c, 0, 49, 0
1, 2760, Note_on_c, 0, 44, 0
1, 2760, Note_on_c, 0, 61, 29
1, 2760, Note_on_c, 0, 53, 24
1, 2760, Note_on_c, 0, 49, 24
1, 2781, Control_c, 0, 64, 0
1, 2880, Tempo, 863682
1, 2880, Note_on_c, 0, 49, 0
1, 2880, Note_on_c, 0, 53, 0
1, 2880, Note_on_c, 0, 61, 0
1, 2880, Note_on_c, 0, 44, 29
1, 2880, Note_on_c, 0, 49, 35
1, 2931, Control_c, 0, 64, 127
1, 3120, Tempo, 829646
1, 3120, Note_on_c, 0, 49, 0
1, 3120, Note_on_c, 0, 44, 0
1, 3120, Note_on_c, 0, 49, 30
1, 3120, Note_on_c, 0, 54, 37
1, 3120, Note_on_c, 0, 51, 30
1, 3360, Tempo, 818777
1, 3360, Note_on_c, 0, 51, 0
1, 3360, Note_on_c, 0, 54, 0
1, 3360, Note_on_c, 0, 49, 0
1, 3360, Note_on_c, 0, 44, 27
1, 3360, Note_on_c, 0, 49, 33
1, 3480, Note_on_c, 0, 49, 0
1, 3480, Note_on_c, 0, 44, 0
1, 3480, Note_on_c, 0, 51, 25
1, 3480, Note_on_c, 0, 49, 25
1, 3480, Note_on_c, 0, 54, 29
1, 3500, Tempo, 863682
1, 3575, Control_c, 0, 64, 0
1, 3600, Tempo, 840689
1, 3600, Note_on_c, 0, 54, 0
1, 3600, Note_on_c, 0, 49, 0
1, 3600, Note_on_c, 0, 51, 0
1, 3600, Note_on_c, 0, 44, 29
1, 3600, Note_on_c, 0, 49, 35
1, 3625, Control_c, 0, 64, 127
1, 3840, Tempo, 824176
1, 3840, Note_on_c, 0, 49, 0
1, 3840, Note_on_c, 0, 44, 0
1, 3840, Note_on_c, 0, 61, 37
1, 3840, Note_on_c, 0, 54, 30
1, 3840, Note_on_c, 0, 51, 30
1, 3840, Note_on_c, 0, 49, 30
1, 4080, Tempo, 813559
1, 4080, Note_on_c, 0, 49, 0
1, 4080, Note_on_c, 0, 61, 0
1, 4080, Note_on_c, 0, 54, 0
1, 4080, Note_on_c, 0, 51, 0
1, 4080, Note_on_c, 0, 44, 27
1, 4080, Note_on_c, 0, 49, 33
1, 4200, Tempo, 863682
1, 4200, Note_on_c, 0, 49, 0
1, 4200, Note_on_c, 0, 44, 0
1, 4200, Note_on_c, 0, 54, 25
1, 4200, Note_on_c, 0, 61, 29
1, 4200, Note_on_c, 0, 51, 25
1, 4200, Note_on_c, 0, 49, 25
1, 4238, Control_c, 0, 64, 0
1, 4320, Tempo, 894321
1, 4320, Note_on_c, 0, 49, 0
1, 4320, Note_on_c, 0, 54, 0
1, 4320, Note_on_c, 0, 61, 0
1, 4320, Note_on_c, 0, 51, 0
1, 4320, Note_on_c, 0, 44, 29
1, 4320, Note_on_c, 0, 49, 35
1, 4440, Control_c, 0, 64, 127
1, 4560, Tempo, 894321
1, 4560, Note_on_c, 0, 49, 0
1, 4560, Note_on_c, 0, 44, 0
1, 4560, Note_on_c, 0, 61, 34
1, 4560, Note_on_c, 0, 53, 28
1, 4560, Note_on_c, 0, 49, 28
1, 4780, Tempo, 900766
1, 4800, Note_on_c, 0, 49, 0
1, 4800, Note_on_c, 0, 53, 0
1, 4800, Note_on_c, 0, 61, 0
1, 4800, Note_on_c, 0, 44, 26
1, 4800, Note_on_c, 0, 49, 30
1, 4980, Tempo, 907167
1, 5040, Note_on_c, 0, 49, 0
1, 5040, Note_on_c, 0, 44, 0
1, 5040, Note_on_c, 0, 53, 25
1, 5040, Note_on_c, 0, 61, 30
1, 5040, Note_on_c, 0, 49, 25
1, 5160, Tempo, 913798
1, 5280, Note_on_c, 0, 49, 0
1, 5280, Note_on_c, 0, 61, 0
1, 5280, Note_on_c, 0, 53, 0
1, 5280, Note_on_c, 0, 44, 23
1, 5280, Note_on_c, 0, 49, 28
1, 5360, Tempo, 920387
1, 5520, Note_on_c, 0, 49, 0
1, 5520, Note_on_c, 0, 44, 0
1, 5520, Note_on_c, 0, 61, 28
1, 5520, Note_on_c, 0, 53, 23
1, 5520, Note_on_c, 0, 49, 23
1, 5540, Tempo, 927214
1, 5740, Tempo, 934143
1, 5760, Note_on_c, 0, 49, 0
1, 5760, Note_on_c, 0, 53, 0
1, 5760, Note_on_c, 0, 61, 0
1, 5760, Note_on_c, 0, 44, 20
1, 5760, Note_on_c, 0, 49, 26
1, 5800, Control_c, 0, 64, 0
1, 5840, Control_c, 0, 64, 127
1, 5920, Tempo, 941029
1, 6000, Note_on_c, 0, 49, 0
1, 6000, Note_on_c, 0, 44, 0
1, 6000, Note_on_c, 0, 49, 19
1, 6000, Note_on_c, 0, 61, 24
1, 6000, Note_on_c, 0, 53, 19
1, 6120, Tempo, 948167
1, 6240, Tempo, 985222
1, 6240, Note_on_c, 0, 53, 0
1, 6240, Note_on_c, 0, 61, 0
1, 6240, Note_on_c, 0, 49, 0
1, 6240, Note_on_c, 0, 44, 19
1, 6240, Note_on_c, 0, 49, 23
1, 6480, Tempo, 1042209
1, 6480, Note_on_c, 0, 49, 0
1, 6480, Note_on_c, 0, 44, 0
1, 6480, Note_on_c, 0, 61, 22
1, 6480, Note_on_c, 0, 53, 18
1, 6480, Note_on_c, 0, 49, 18
1, 6720, Tempo, 846262
1, 6720, Note_on_c, 0, 49, 0
1, 6720, Note_on_c, 0, 53, 0
1, 6720, Note_on_c, 0, 61, 0
1, 6720, Note_on_c, 0, 44, 17
1, 6720, Note_on_c, 0, 49, 19
1, 6960, Note_on_c, 0, 49, 0
1, 6960, Note_on_c, 0, 44, 0
1, 7200, Tempo, 840689
1, 8440, Control_c, 0, 64, 0
1, 8640, Tempo, 863682
1, 8640, Marker_t, "a tempo"
1, 8640, Note_on_c, 0, 54, 38
1, 8640, Note_on_c, 0, 58, 49
1, 8640, Note_on_c, 0, 44, 34
1, 8640, Note_on_c, 0, 49, 41
1, 8760, Note_on_c, 0, 58, 0
1, 8760, Note_on_c, 0, 54, 0
1, 8852, Control_c, 0, 64, 127
1, 8880, Tempo, 829646
1, 8880, Note_on_c, 0, 54, 40
1, 8880, Note_on_c, 0, 58, 53
1, 8880, Note_on_c, 0, 56, 33
1, 8900, Note_on_c, 0, 44, 0
1, 8900, Note_on_c, 0, 49, 0
1, 9120, Tempo, 824176
1, 9120, Note_on_c, 0, 56, 0
1, 9120, Note_on_c, 0, 60, 48
1, 9120, Note_on_c, 0, 44, 31
1, 9120, Note_on_c, 0, 49, 38
1, 9240, Tempo, 863682
1, 9240, Note_on_c, 0, 49, 0
1, 9240, Note_on_c, 0, 44, 0
1, 9240, Note_on_c, 0, 56, 34
1, 9296, Control_c, 0, 64, 0
1, 9360, Tempo, 846262
1, 9360, Note_on_c, 0, 56, 0
1, 9360, Note_on_c, 0, 60, 0
1, 9360, Note_on_c, 0, 63, 50
1, 9360, Note_on_c, 0, 44, 34
1, 9360, Note_on_c, 0, 49, 41
1, 9480, Note_on_c, 0, 63, 0
1, 9600, Tempo, 829646
1, 9600, Note_on_c, 0, 58, 0
1, 9600, Note_on_c, 0, 54, 0
1, 9600, Note_on_c, 0, 58, 41
1, 9600, Note_on_c, 0, 54, 41
1, 9600, Note_on_c, 0, 63, 55
1, 9600, Control_c, 0, 64, 127
1, 9600, Note_on_c, 0, 56, 34
1, 9620, Note_on_c, 0, 44, 0
1, 9620, Note_on_c, 0, 49, 0
1, 9840, Tempo, 813559
1, 9840, Note_on_c, 0, 63, 0
1, 9840, Note_on_c, 0, 56, 0
1, 9840, Note_on_c, 0, 60, 48
1, 9840, Note_on_c, 0, 44, 31
1, 9840, Note_on_c, 0, 49, 38
1, 9960, Tempo, 863682
1, 9960, Note_on_c, 0, 49, 0
1, 9960, Note_on_c, 0, 44, 0
1, 9960, Note_on_c, 0, 56, 33
1, 10016, Control_c, 0, 64, 0
1, 10080, Tempo, 863682
1, 10080, Note_on_c, 0, 56, 0
1, 10080, Note_on_c, 0, 60, 0
1, 10080, Note_on_c, 0, 54, 0
1, 10080, Note_on_c, 0, 58, 0
1, 10080, Note_on_c, 0, 53, 38
1, 10080, Note_on_c, 0, 56, 38
1, 10080, Note_on_c, 0, 61, 46
1, 10080, Note_on_c, 0, 44, 34
1, 10080, Note_on_c, 0, 49, 41
1, 10200, Note_on_c, 0, 61, 0
1, 10200, Note_on_c, 0, 53, 0
1, 10200, Note_on_c, 0, 56, 0
1, 10306, Control_c, 0, 64, 127
1, 10320, Tempo, 829646
1, 10320, Note_on_c, 0, 53, 39
1, 10320, Note_on_c, 0, 61, 48
1, 10320, Note_on_c, 0, 56, 33
1, 10340, Note_on_c, 0, 44, 0
1, 10340, Note_on_c, 0, 49, 0
1, 10560, Tempo, 824176
1, 10560, Note_on_c, 0, 61, 0
1, 10560, Note_on_c, 0, 56, 0
1, 10560, Note_on_c, 0, 60, 47
1, 10560, Note_on_c, 0, 44, 31
1, 10560, Note_on_c, 0, 49, 39
1, 10680, Tempo, 863682
1, 10680, Note_on_c, 0, 49, 0
1, 10680, Note_on_c, 0, 44, 0
1, 10680, Note_on_c, 0, 56, 34
1, 10744, Control_c, 0, 64, 0
1, 10798, Note_on_c, 0, 56, 0
1, 10800, Tempo, 863682
1, 10800, Note_on_c, 0, 60, 0
1, 10800, Note_on_c, 0, 56, 45
1, 10800, Note_on_c, 0, 44, 30
1, 10800, Note_on_c, 0, 49, 37
1, 10856, Control_c, 0, 64, 127
1, 11040, Tempo, 846262
1, 11040, Note_on_c, 0, 44, 0
1, 11040, Note_on_c, 0, 53, 0
1, 11040, Note_on_c, 0, 56, 0
1, 11040, Note_on_c, 0, 53, 42
1, 11040, Note_on_c, 0, 56, 29
1, 11060, Note_on_c, 0, 49, 0
1, 11280, Tempo, 829646
1, 11280, Note_on_c, 0, 56, 0
1, 11280, Note_on_c, 0, 44, 28
1, 11280, Note_on_c, 0, 49, 34
1, 11393, Control_c, 0, 64, 0
1, 11400, Tempo, 881834
1, 11400, Note_on_c, 0, 49, 0
1, 11400, Note_on_c, 0, 44, 0
1, 11400, Note_on_c, 0, 56, 31
1, 11520, Tempo, 863682
1, 11520, Note_on_c, 0, 56, 0
1, 11520, Note_on_c, 0, 53, 0
1, 11520, Note_on_c, 0, 51, 38
1, 11520, Note_on_c, 0, 54, 49
1, 11520, Note_on_c, 0, 44, 34
1, 11520, Note_on_c, 0, 49, 41
1, 11640, Note_on_c, 0, 54, 0
1, 11640, Note_on_c, 0, 51, 0
1, 11732, Control_c, 0, 64, 127
1, 11760, Tempo, 829646
1, 11760, Note_on_c, 0, 51, 40
1, 11760, Note_on_c, 0, 54, 53
1, 11760, Note_on_c, 0, 56, 33
1, 11780, Note_on_c, 0, 44, 0
1, 11780, Note_on_c, 0, 49, 0
1, 12000, Tempo, 824176
1, 12000, Note_on_c, 0, 56, 0
1, 12000, Note_on_c, 0, 58, 48
1, 12000, Note_on_c, 0, 44, 31
1, 12000, Note_on_c, 0, 49, 38
1, 12120, Tempo, 863682
1, 12120, Note_on_c, 0, 49, 0
1, 12120, Note_on_c, 0, 44, 0
1, 12120, Note_on_c, 0, 56, 34
1, 12176, Control_c, 0, 64, 0
1, 12240, Tempo, 846262
1, 12240, Note_on_c, 0, 56, 0
1, 12240, Note_on_c, 0, 58, 0
1, 12240, Note_on_c, 0, 60, 50
1, 12240, Note_on_c, 0, 44, 34
1, 12240, Note_on_c, 0, 49, 41
1, 12360, Note_on_c, 0, 60, 0
1, 12480, Tempo, 829646
1, 12480, Note_on_c, 0, 54, 0
1, 12480, Note_on_c, 0, 51, 0
1, 12480, Note_on_c, 0, 54, 41
1, 12480, Note_on_c, 0, 51, 41
1, 12480, Note_on_c, 0, 60, 55
1, 12480, Control_c, 0, 64, 127
1, 12480, Note_on_c, 0, 56, 34
1, 12500, Note_on_c, 0, 44, 0
1, 12500, Note_on_c, 0, 49, 0
1, 12720, Tempo, 813559
1, 12720, Note_on_c, 0, 60, 0
1, 12720, Note_on_c, 0, 56, 0
1, 12720, Note_on_c, 0, 56, 48
1, 12720, Note_on_c, 0, 44, 31
1, 12720, Note_on_c, 0, 49, 38
1, 12840, Tempo, 863682
1, 12840, Note_on_c, 0, 49, 0
1, 12840, Note_on_c, 0, 44, 0
1, 12840, Note_on_c, 0, 56, 33
1, 12896, Control_c, 0, 64, 0
1, 12960, Tempo, 863682
1, 12960, Note_on_c, 0, 56, 0
1, 12960, Note_on_c, 0, 56, 0
1, 12960, Note_on_c, 0, 51, 0
1, 12960, Note_on_c, 0, 54, 0
1, 12960, Note_on_c, 0, 56, 38
1, 12960, Note_on_c, 0, 61, 46
1, 12960, Note_on_c, 0, 44, 34
1, 12960, Note_on_c, 0, 49, 41
1, 13080, Note_on_c, 0, 61, 0
1, 13080, Note_on_c, 0, 56, 0
1, 13186, Control_c, 0, 64, 127
1, 13200, Tempo, 829646
1, 13200, Note_on_c, 0, 53, 39
1, 13200, Note_on_c, 0, 61, 48
1, 13200, Note_on_c, 0, 56, 33
1, 13220, Note_on_c, 0, 44, 0
1, 13220, Note_on_c, 0, 49, 0
1, 13440, Tempo, 824176
1, 13440, Note_on_c, 0, 56, 0
1, 13440, Note_on_c, 0, 44, 31
1, 13440, Note_on_c, 0, 49, 39
1, 13560, Tempo, 863682
1, 13560, Note_on_c, 0, 49, 0
1, 13560, Note_on_c, 0, 44, 0
1, 13560, Note_on_c, 0, 56, 34
1, 13620, Control_c, 0, 64, 0
1, 13680, Tempo, 863682
1, 13680, Note_on_c, 0, 56, 0
1, 13680, Note_on_c, 0, 61, 0
1, 13680, Note_on_c, 0, 60, 45
1, 13680, Note_on_c, 0, 44, 31
1, 13680, Note_on_c, 0, 49, 38
1, 13800, Note_on_c, 0, 60, 0
1, 13920, Tempo, 840689
1, 13920, Note_on_c, 0, 53, 0
1, 13920, Note_on_c, 0, 53, 39
1, 13920, Note_on_c, 0, 60, 47
1, 13920, Control_c, 0, 64, 127
1, 13920, Note_on_c, 0, 56, 30
1, 13940, Note_on_c, 0, 44, 0
1, 13940, Note_on_c, 0, 49, 0
1, 14160, Tempo, 829646
1, 14160, Note_on_c, 0, 56, 0
1, 14160, Note_on_c, 0, 44, 29
1, 14160, Note_on_c, 0, 49, 36
1, 14273, Control_c, 0, 64, 0
1, 14280, Tempo, 881834
1, 14280, Note_on_c, 0, 49, 0
1, 14280, Note_on_c, 0, 44, 0
1, 14280, Note_on_c, 0, 56, 31
1, 14400, Tempo, 863682
1, 14400, Note_on_c, 0, 56, 0
1, 14400, Note_on_c, 0, 53, 0
1, 14400, Note_on_c, 0, 60, 0
1, 14400, Note_on_c, 0, 54, 38
1, 14400, Note_on_c, 0, 58, 49
1, 14400, Note_on_c, 0, 44, 34
1, 14400, Note_on_c, 0, 49, 41
1, 14520, Note_on_c, 0, 58, 0
1, 14520, Note_on_c, 0, 54, 0
1, 14612, Control_c, 0, 64, 127
1, 14640, Tempo, 829646
1, 14640, Note_on_c, 0, 54, 40
1, 14640, Note_on_c, 0, 58, 53
1, 14640, Note_on_c, 0, 56, 33
1, 14660, Note_on_c, 0, 44, 0
1, 14660, Note_on_c, 0, 49, 0
1, 14880, Tempo, 824176
1, 14880, Note_on_c, 0, 56, 0
1, 14880, Note_on_c, 0, 60, 48
1, 14880, Note_on_c, 0, 44, 31
1, 14880, Note_on_c, 0, 49, 38
1, 15000, Tempo, 863682
1, 15000, Note_on_c, 0, 49, 0
1, 15000, Note_on_c, 0, 44, 0
1, 15000, Note_on_c, 0, 56, 34
1, 15056, Control_c, 0, 64, 0
1, 15120, Tempo, 846262
1, 15120, Note_on_c, 0, 56, 0
1, 15120, Note_on_c, 0, 60, 0
1, 15120, Note_on_c, 0, 63, 50
1, 15120, Note_on_c, 0, 44, 34
1, 15120, Note_on_c, 0, 49, 41
1, 15240, Note_on_c, 0, 63, 0
1, 15360, Tempo, 829646
1, 15360, Note_on_c, 0, 58, 0
1, 15360, Note_on_c, 0, 54, 0
1, 15360, Note_on_c, 0, 58, 41
1, 15360, Note_on_c, 0, 54, 41
1, 15360, Note_on_c, 0, 63, 55
1, 15360, Control_c, 0, 64, 127
1, 15360, Note_on_c, 0, 56, 34
1, 15380, Note_on_c, 0, 44, 0
1, 15380, Note_on_c, 0, 49, 0
1, 15600, Tempo, 813559
1, 15600, Note_on_c, 0, 63, 0
1, 15600, Note_on_c, 0, 56, 0
1, 15600, Note_on_c, 0, 60, 48
1, 15600, Note_on_c, 0, 44, 31
1, 15600, Note_on_c, 0, 49, 38
1, 15720, Tempo, 863682
1, 15720, Note_on_c, 0, 49, 0
1, 15720, Note_on_c, 0, 44, 0
1, 15720, Note_on_c, 0, 56, 33
1, 15776, Control_c, 0, 64, 0
1, 15840, Tempo, 863682
1, 15840, Note_on_c, 0, 56, 0
1, 15840, Note_on_c, 0, 60, 0
1, 15840, Note_on_c, 0, 54, 0
1, 15840, Note_on_c, 0, 58, 0
1, 15840, Note_on_c, 0, 53, 38
1, 15840, Note_on_c, 0, 56, 38
1, 15840, Note_on_c, 0, 61, 46
1, 15840, Note_on_c, 0, 44, 34
1, 15840, Note_on_c, 0, 49, 41
1, 15960, Note_on_c, 0, 61, 0
1, 15960, Note_on_c, 0, 53, 0
1, 15960, Note_on_c, 0, 56, 0
1, 16066, Control_c, 0, 64, 127
1, 16080, Tempo, 829646
1, 16080, Note_on_c, 0, 53, 39
1, 16080, Note_on_c, 0, 61, 48
1, 16080, Note_on_c, 0, 56, 33
1, 16100, Note_on_c, 0, 44, 0
1, 16100, Note_on_c, 0, 49, 0
1, 16320, Tempo, 824176
1, 16320, Note_on_c, 0, 61, 0
1, 16320, Note_on_c, 0, 56, 0
1, 16320, Note_on_c, 0, 60, 47
1, 16320, Note_on_c, 0, 44, 31
1, 16320, Note_on_c, 0, 49, 39
1, 16440, Tempo, 863682
1, 16440, Note_on_c, 0, 49, 0
1, 16440, Note_on_c, 0, 44, 0
1, 16440, Note_on_c, 0, 60, 0
1, 16440, Note_on_c, 0, 61, 42
1, 16440, Note_on_c, 0, 56, 34
1, 16500, Note_on_c, 0, 61, 0
1, 16500, Note_on_c, 0, 60, 38
1, 16528, Control_c, 0, 64, 0
1, 16558, Note_on_c, 0, 56, 0
1, 16560, Tempo, 863682
1, 16560, Note_on_c, 0, 60, 0
1, 16560, Note_on_c, 0, 56, 45
1, 16560, Note_on_c, 0, 44, 30
1, 16560, Note_on_c, 0, 49, 37
1, 16616, Control_c, 0, 64, 127
1, 16800, Tempo, 846262
1, 16800, Note_on_c, 0, 49, 0
1, 16800, Note_on_c, 0, 53, 0
1, 16800, Note_on_c, 0, 56, 0
1, 16800, Note_on_c, 0, 44, 0
1, 16800, Note_on_c, 0, 53, 42
1, 16800, Note_on_c, 0, 56, 29
1, 17040, Tempo, 829646
1, 17040, Note_on_c, 0, 56, 0
1, 17040, Note_on_c, 0, 44, 28
1, 17040, Note_on_c, 0, 49, 34
1, 17153, Control_c, 0, 64, 0
1, 17160, Tempo, 881834
1, 17160, Note_on_c, 0, 49, 0
1, 17160, Note_on_c, 0, 44, 0
1, 17160, Note_on_c, 0, 56, 31
1, 17280, Tempo, 863682
1, 17280, Note_on_c, 0, 56, 0
1, 17280, Note_on_c, 0, 53, 0
1, 17280, Note_on_c, 0, 58, 38
1, 17280, Note_on_c, 0, 54, 38
1, 17280, Note_on_c, 0, 63, 49
1, 17280, Note_on_c, 0, 44, 36
1, 17280, Note_on_c, 0, 49, 42
1, 17400, Note_on_c, 0, 63, 0
1, 17400, Note_on_c, 0, 58, 0
1, 17400, Note_on_c, 0, 54, 0
1, 17492, Control_c, 0, 64, 127
1, 17520, Tempo, 829646
1, 17520, Note_on_c, 0, 63, 53
1, 17520, Note_on_c, 0, 54, 40
1, 17520, Note_on_c, 0, 58, 53
1, 17520, Note_on_c, 0, 56, 34
1, 17540, Note_on_c, 0, 44, 0
1, 17540, Note_on_c, 0, 49, 0
1, 17760, Tempo, 824176
1, 17760, Note_on_c, 0, 63, 0
1, 17760, Note_on_c, 0, 56, 0
1, 17760, Note_on_c, 0, 65, 53
1, 17760, Note_on_c, 0, 44, 31
1, 17760, Note_on_c, 0, 49, 39
1, 17880, Tempo, 863682
1, 17880, Note_on_c, 0, 49, 0
1, 17880, Note_on_c, 0, 44, 0
1, 17880, Note_on_c, 0, 56, 36
1, 17936, Control_c, 0, 64, 0
1, 18000, Tempo, 846262
1, 18000, Note_on_c, 0, 56, 0
1, 18000, Note_on_c, 0, 65, 0
1, 18000, Note_on_c, 0, 66, 59
1, 18000, Note_on_c, 0, 44, 36
1, 18000, Note_on_c, 0, 49, 42
1, 18120, Note_on_c, 0, 66, 0
1, 18240, Tempo, 829646
1, 18240, Note_on_c, 0, 58, 0
1, 18240, Note_on_c, 0, 54, 0
1, 18240, Note_on_c, 0, 58, 41
1, 18240, Note_on_c, 0, 66, 57
1, 18240, Control_c, 0, 64, 127
1, 18240, Note_on_c, 0, 56, 36
1, 18260, Note_on_c, 0, 44, 0
1, 18260, Note_on_c, 0, 49, 0
1, 18480, Tempo, 813559
1, 18480, Note_on_c, 0, 66, 0
1, 18480, Note_on_c, 0, 58, 0
1, 18480, Note_on_c, 0, 56, 0
1, 18480, Note_on_c, 0, 60, 41
1, 18480, Note_on_c, 0, 65, 52
1, 18480, Note_on_c, 0, 44, 31
1, 18480, Note_on_c, 0, 49, 39
1, 18600, Tempo, 863682
1, 18600, Note_on_c, 0, 49, 0
1, 18600, Note_on_c, 0, 44, 0
1, 18600, Note_on_c, 0, 56, 34
1, 18656, Control_c, 0, 64, 0
1, 18720, Tempo, 863682
1, 18720, Note_on_c, 0, 56, 0
1, 18720, Note_on_c, 0, 65, 0
1, 18720, Note_on_c, 0, 60, 0
1, 18720, Note_on_c, 0, 53, 38
1, 18720, Note_on_c, 0, 61, 46
1, 18720, Note_on_c, 0, 44, 31
1, 18720, Note_on_c, 0, 49, 42
1, 18776, Control_c, 0, 64, 127
1, 18960, Tempo, 829646
1, 18960, Note_on_c, 0, 49, 0
1, 18960, Note_on_c, 0, 44, 0
1, 18960, Note_on_c, 0, 56, 36
1, 19200, Tempo, 824176
1, 19200, Note_on_c, 0, 56, 0
1, 19200, Note_on_c, 0, 44, 37
1, 19200, Note_on_c, 0, 49, 41
1, 19320, Tempo, 863682
1, 19320, Note_on_c, 0, 49, 0
1, 19320, Note_on_c, 0, 44, 0
1, 19320, Note_on_c, 0, 56, 38
1, 19440, Tempo, 863682
1, 19440, Note_on_c, 0, 56, 0
1, 19440, Note_on_c, 0, 44, 40
1, 19440, Note_on_c, 0, 49, 45
1, 19458, Control_c, 0, 64, 0
1, 19486, Control_c, 0, 64, 127
1, 19680, Tempo, 840689
1, 19680, Note_on_c, 0, 49, 0
1, 19680, Note_on_c, 0, 44, 0
1, 19680, Note_on_c, 0, 56, 40
1, 19920, Tempo, 829646
1, 19920, Note_on_c, 0, 56, 0
1, 19920, Note_on_c, 0, 44, 42
1, 19920, Note_on_c, 0, 49, 53
1, 20033, Control_c, 0, 64, 0
1, 20040, Tempo, 1042209
1, 20040, Note_on_c, 0, 49, 0
1, 20040, Note_on_c, 0, 44, 0
1, 20040, Note_on_c, 0, 56, 55
1, 20082, Control_c, 0, 64, 127
1, 20100, Tempo, 907167
1, 20100, Note_on_c, 0, 56, 0
1, 20100, Note_on_c, 0, 37, 51
1, 20160, Tempo, 863682
1, 20160, Note_on_c, 0, 61, 0
1, 20160, Note_on_c, 0, 53, 0
1, 20160, Note_on_c, 0, 59, 56
1, 20160, Note_on_c, 0, 62, 56
1, 20160, Note_on_c, 0, 65, 56
1, 20160, Note_on_c, 0, 68, 72
1, 20160, Note_on_c, 0, 49, 56
1, 20400, Tempo, 829646
1, 20400, Note_on_c, 0, 68, 0
1, 20400, Note_on_c, 0, 65, 0
1, 20400, Note_on_c, 0, 62, 0
1, 20400, Note_on_c, 0, 59, 0
1, 20400, Note_on_c, 0, 59, 60
1, 20400, Note_on_c, 0, 62, 60
1, 20400, Note_on_c, 0, 65, 60
1, 20400, Note_on_c, 0, 68, 79
1, 20640, Tempo, 824176
1, 20640, Note_on_c, 0, 37, 0
1, 20640, Note_on_c, 0, 49, 0
1, 20640, Note_on_c, 0, 49, 45
1, 20760, Tempo, 863682
1, 20760, Note_on_c, 0, 68, 0
1, 20760, Note_on_c, 0, 70, 71
1, 20816, Control_c, 0, 64, 0
1, 20880, Tempo, 846262
1, 20880, Note_on_c, 0, 70, 0
1, 20880, Note_on_c, 0, 49, 0
1, 20880, Note_on_c, 0, 68, 73
1, 20880, Control_c, 0, 64, 127
1, 20880, Note_on_c, 0, 37, 56
1, 21000, Note_on_c, 0, 68, 0
1, 21120, Tempo, 829646
1, 21120, Note_on_c, 0, 62, 0
1, 21120, Note_on_c, 0, 59, 0
1, 21120, Note_on_c, 0, 65, 0
1, 21120, Note_on_c, 0, 62, 55
1, 21120, Note_on_c, 0, 59, 55
1, 21120, Note_on_c, 0, 66, 72
1, 21120, Note_on_c, 0, 49, 46
1, 21240, Note_on_c, 0, 66, 0
1, 21240, Note_on_c, 0, 59, 0
1, 21240, Note_on_c, 0, 62, 0
1, 21360, Tempo, 813559
1, 21360, Note_on_c, 0, 49, 0
1, 21360, Note_on_c, 0, 59, 55
1, 21360, Note_on_c, 0, 62, 57
1, 21360, Note_on_c, 0, 65, 71
1, 21360, Note_on_c, 0, 49, 51
1, 21480, Tempo, 863682
1, 21480, Note_on_c, 0, 49, 0
1, 21480, Note_on_c, 0, 62, 0
1, 21480, Note_on_c, 0, 65, 0
1, 21480, Note_on_c, 0, 59, 0
1, 21536, Control_c, 0, 64, 0
1, 21600, Tempo, 863682
1, 21600, Note_on_c, 0, 37, 0
1, 21600, Note_on_c, 0, 66, 68
1, 21600, Note_on_c, 0, 37, 56
1, 21642, Control_c, 0, 64, 127
1, 21840, Tempo, 829646
1, 21840, Note_on_c, 0, 37, 0
1, 21840, Note_on_c, 0, 66, 0
1, 21840, Note_on_c, 0, 58, 57
1, 21840, Note_on_c, 0, 63, 57
1, 21840, Note_on_c, 0, 66, 71
1, 21840, Note_on_c, 0, 49, 45
1, 22080, Tempo, 824176
1, 22080, Note_on_c, 0, 49, 0
1, 22080, Note_on_c, 0, 58, 0
1, 22080, Note_on_c, 0, 63, 0
1, 22080, Note_on_c, 0, 66, 0
1, 22080, Note_on_c, 0, 65, 61
1, 22080, Note_on_c, 0, 37, 52
1, 22140, Note_on_c, 0, 65, 0
1, 22140, Note_on_c, 0, 66, 55
1, 22200, Tempo, 863682
1, 22200, Note_on_c, 0, 66, 0
1, 22200, Note_on_c, 0, 37, 0
1, 22200, Note_on_c, 0, 65, 61
1, 22200, Note_on_c, 0, 49, 46
1, 22260, Note_on_c, 0, 65, 0
1, 22260, Note_on_c, 0, 63, 52
1, 22317, Note_on_c, 0, 63, 0
1, 22320, Tempo, 863682
1, 22320, Note_on_c, 0, 49, 0
1, 22320, Note_on_c, 0, 63, 66
1, 22320, Note_on_c, 0, 37, 50
1, 22348, Control_c, 0, 64, 0
1, 22376, Control_c, 0, 64, 127
1, 22560, Tempo, 846262
1, 22560, Note_on_c, 0, 37, 0
1, 22560, Note_on_c, 0, 58, 51
1, 22560, Note_on_c, 0, 54, 48
1, 22560, Note_on_c, 0, 49, 39
1, 22800, Tempo, 829646
1, 22800, Note_on_c, 0, 49, 0
1, 22800, Note_on_c, 0, 37, 46
1, 22913, Control_c, 0, 64, 0
1, 22920, Tempo, 881834
1, 22920, Note_on_c, 0, 37, 0
1, 22920, Note_on_c, 0, 49, 44
1, 23040, Tempo, 863682
1, 23040, Note_on_c, 0, 49, 0
1, 23040, Note_on_c, 0, 63, 0
1, 23040, Note_on_c, 0, 58, 0
1, 23040, Note_on_c, 0, 54, 0
1, 23040, Note_on_c, 0, 57, 72
1, 23040, Note_on_c, 0, 37, 56
1, 23252, Control_c, 0, 64, 127
1, 23280, Tempo, 829646
1, 23280, Note_on_c, 0, 37, 0
1, 23280, Note_on_c, 0, 65, 72
1, 23280, Note_on_c, 0, 49, 45
1, 23520, Tempo, 824176
1, 23520, Note_on_c, 0, 49, 0
1, 23520, Note_on_c, 0, 37, 51
1, 23640, Tempo, 863682
1, 23640, Note_on_c, 0, 37, 0
1, 23640, Note_on_c, 0, 65, 0
1, 23640, Note_on_c, 0, 63, 66
1, 23640, Note_on_c, 0, 49, 46
1, 23696, Control_c, 0, 64, 0
1, 23700, Note_on_c, 0, 63, 0
1, 23700, Note_on_c, 0, 65, 57
1, 23753, Control_c, 0, 64, 127
1, 23760, Tempo, 846262
1, 23760, Note_on_c, 0, 65, 0
1, 23760, Note_on_c, 0, 49, 0
1, 23760, Note_on_c, 0, 63, 73
1, 23760, Note_on_c, 0, 37, 56
1, 24000, Tempo, 829646
1, 24000, Note_on_c, 0, 37, 0
1, 24000, Note_on_c, 0, 63, 0
1, 24000, Note_on_c, 0, 57, 0
1, 24000, Note_on_c, 0, 65, 57
1, 24000, Note_on_c, 0, 57, 55
1, 24000, Note_on_c, 0, 61, 69
1, 24000, Note_on_c, 0, 49, 46
1, 24240, Tempo, 813559
1, 24240, Note_on_c, 0, 49, 0
1, 24240, Note_on_c, 0, 61, 0
1, 24240, Note_on_c, 0, 60, 69
1, 24240, Note_on_c, 0, 37, 51
1, 24360, Tempo, 863682
1, 24360, Note_on_c, 0, 37, 0
1, 24360, Note_on_c, 0, 49, 45
1, 24416, Control_c, 0, 64, 0
1, 24480, Tempo, 863682
1, 24480, Note_on_c, 0, 49, 0
1, 24480, Note_on_c, 0, 60, 0
1, 24480, Note_on_c, 0, 57, 0
1, 24480, Note_on_c, 0, 65, 0
1, 24480, Note_on_c, 0, 61, 68
1, 24480, Note_on_c, 0, 37, 56
1, 24600, Note_on_c, 0, 61, 0
1, 24706, Control_c, 0, 64, 127
1, 24720, Tempo, 829646
1, 24720, Note_on_c, 0, 65, 52
1, 24720, Note_on_c, 0, 58, 52
1, 24720, Note_on_c, 0, 61, 71
1, 24720, Note_on_c, 0, 49, 45
1, 24740, Note_on_c, 0, 37, 0
1, 24960, Tempo, 824176
1, 24960, Note_on_c, 0, 49, 0
1, 24960, Note_on_c, 0, 37, 52
1, 25080, Tempo, 863682
1, 25080, Note_on_c, 0, 37, 0
1, 25080, Note_on_c, 0, 49, 46
1, 25140, Control_c, 0, 64, 0
1, 25200, Tempo, 863682
1, 25200, Note_on_c, 0, 49, 0
1, 25200, Note_on_c, 0, 65, 0
1, 25200, Note_on_c, 0, 58, 0
1, 25200, Note_on_c, 0, 61, 0
1, 25200, Note_on_c, 0, 60, 66
1, 25200, Note_on_c, 0, 37, 51
1, 25320, Note_on_c, 0, 60, 0
1, 25440, Tempo, 840689
1, 25440, Note_on_c, 0, 65, 53
1, 25440, Note_on_c, 0, 56, 51
1, 25440, Note_on_c, 0, 60, 69
1, 25440, Control_c, 0, 64, 127
1, 25440, Note_on_c, 0, 49, 40
1, 25460, Note_on_c, 0, 37, 0
1, 25680, Tempo, 829646
1, 25680, Note_on_c, 0, 49, 0
1, 25680, Note_on_c, 0, 37, 48
1, 25793, Control_c, 0, 64, 0
1, 25800, Tempo, 1025290
1, 25800, Note_on_c, 0, 37, 0
1, 25800, Note_on_c, 0, 49, 44
1, 25860, Tempo, 907167
1, 25860, Note_on_c, 0, 49, 0
1, 25860, Control_c, 0, 64, 127
1, 25860, Note_on_c, 0, 37, 46
1, 25920, Tempo, 863682
1, 25920, Note_on_c, 0, 65, 0
1, 25920, Note_on_c, 0, 60, 0
1, 25920, Note_on_c, 0, 56, 0
1, 25920, Note_on_c, 0, 59, 56
1, 25920, Note_on_c, 0, 62, 56
1, 25920, Note_on_c, 0, 65, 56
1, 25920, Note_on_c, 0, 68, 72
1, 25920, Note_on_c, 0, 49, 56
1, 26160, Tempo, 829646
1, 26160, Note_on_c, 0, 68, 0
1, 26160, Note_on_c, 0, 65, 0
1, 26160, Note_on_c, 0, 62, 0
1, 26160, Note_on_c, 0, 59, 0
1, 26160, Note_on_c, 0, 59, 60
1, 26160, Note_on_c, 0, 62, 60
1, 26160, Note_on_c, 0, 65, 60
1, 26160, Note_on_c, 0, 68, 79
1, 26400, Tempo, 824176
1, 26400, Note_on_c, 0, 37, 0
1, 26400, Note_on_c, 0, 49, 0
1, 26400, Note_on_c, 0, 49, 45
1, 26520, Tempo, 863682
1, 26520, Note_on_c, 0, 68, 0
1, 26520, Note_on_c, 0, 70, 71
1, 26576, Control_c, 0, 64, 0
1, 26640, Tempo, 846262
1, 26640, Note_on_c, 0, 70, 0
1, 26640, Note_on_c, 0, 49, 0
1, 26640, Note_on_c, 0, 68, 73
1, 26640, Control_c, 0, 64, 127
1, 26640, Note_on_c, 0, 37, 56
1, 26760, Note_on_c, 0, 68, 0
1, 26880, Tempo, 829646
1, 26880, Note_on_c, 0, 62, 0
1, 26880, Note_on_c, 0, 59, 0
1, 26880, Note_on_c, 0, 65, 0
1, 26880, Note_on_c, 0, 62, 55
1, 26880, Note_on_c, 0, 59, 55
1, 26880, Note_on_c, 0, 66, 72
1, 26880, Note_on_c, 0, 49, 46
1, 27000, Note_on_c, 0, 66, 0
1, 27000, Note_on_c, 0, 59, 0
1, 27000, Note_on_c, 0, 62, 0
1, 27120, Tempo, 813559
1, 27120, Note_on_c, 0, 49, 0
1, 27120, Note_on_c, 0, 59, 55
1, 27120, Note_on_c, 0, 62, 57
1, 27120, Note_on_c, 0, 65, 71
1, 27120, Note_on_c, 0, 49, 51
1, 27240, Tempo, 863682
1, 27240, Note_on_c, 0, 49, 0
1, 27240, Note_on_c, 0, 62, 0
1, 27240, Note_on_c, 0, 65, 0
1, 27240, Note_on_c, 0, 59, 0
1, 27296, Control_c, 0, 64, 0
1, 27360, Tempo, 863682
1, 27360, Note_on_c, 0, 37, 0
1, 27360, Note_on_c, 0, 66, 68
1, 27360, Note_on_c, 0, 37, 56
1, 27402, Control_c, 0, 64, 127
1, 27600, Tempo, 829646
1, 27600, Note_on_c, 0, 37, 0
1, 27600, Note_on_c, 0, 66, 0
1, 27600, Note_on_c, 0, 58, 57
1, 27600, Note_on_c, 0, 63, 57
1, 27600, Note_on_c, 0, 66, 71
1, 27600, Note_on_c, 0, 49, 45
1, 27840, Tempo, 824176
1, 27840, Note_on_c, 0, 49, 0
1, 27840, Note_on_c, 0, 58, 0
1, 27840, Note_on_c, 0, 63, 0
1, 27840, Note_on_c, 0, 66, 0
1, 27840, Note_on_c, 0, 65, 61
1, 27840, Note_on_c, 0, 37, 52
1, 27900, Note_on_c, 0, 65, 0
1, 27900, Note_on_c, 0, 66, 55
1, 27960, Tempo, 863682
1, 27960, Note_on_c, 0, 66, 0
1, 27960, Note_on_c, 0, 37, 0
1, 27960, Note_on_c, 0, 65, 61
1, 27960, Note_on_c, 0, 49, 46
1, 28020, Note_on_c, 0, 65, 0
1, 28020, Note_on_c, 0, 63, 52
1, 28077, Note_on_c, 0, 63, 0
1, 28080, Tempo, 863682
1, 28080, Note_on_c, 0, 49, 0
1, 28080, Note_on_c, 0, 63, 66
1, 28080, Note_on_c, 0, 37, 50
1, 28108, Control_c, 0, 64, 0
1, 28136, Control_c, 0, 64, 127
1, 28320, Tempo, 846262
1, 28320, Note_on_c, 0, 37, 0
1, 28320, Note_on_c, 0, 58, 51
1, 28320, Note_on_c, 0, 54, 48
1, 28320, Note_on_c, 0, 49, 39
1, 28560, Tempo, 829646
1, 28560, Note_on_c, 0, 49, 0
1, 28560, Note_on_c, 0, 37, 46
1, 28673, Control_c, 0, 64, 0
1, 28680, Tempo, 881834
1, 28680, Note_on_c, 0, 37, 0
1, 28680, Note_on_c, 0, 49, 44
1, 28800, Tempo, 863682
1, 28800, Note_on_c, 0, 49, 0
1, 28800, Note_on_c, 0, 63, 0
1, 28800, Note_on_c, 0, 58, 0
1, 28800, Note_on_c, 0, 54, 0
1, 28800, Note_on_c, 0, 57, 72
1, 28800, Note_on_c, 0, 37, 56
1, 29012, Control_c, 0, 64, 127
1, 29040, Tempo, 829646
1, 29040, Note_on_c, 0, 37, 0
1, 29040, Note_on_c, 0, 65, 73
1, 29040, Note_on_c, 0, 49, 45
1, 29280, Tempo, 824176
1, 29280, Note_on_c, 0, 49, 0
1, 29280, Note_on_c, 0, 37, 51
1, 29400, Tempo, 863682
1, 29400, Note_on_c, 0, 37, 0
1, 29400, Note_on_c, 0, 65, 0
1, 29400, Note_on_c, 0, 63, 66
1, 29400, Note_on_c, 0, 49, 46
1, 29456, Control_c, 0, 64, 0
1, 29460, Note_on_c, 0, 63, 0
1, 29460, Note_on_c, 0, 65, 57
1, 29520, Tempo, 846262
1, 29520, Note_on_c, 0, 65, 0
1, 29520, Note_on_c, 0, 49, 0
1, 29520, Note_on_c, 0, 63, 73
1, 29520, Note_on_c, 0, 37, 56
1, 29527, Control_c, 0, 64, 127
1, 29760, Tempo, 829646
1, 29760, Note_on_c, 0, 37, 0
1, 29760, Note_on_c, 0, 63, 0
1, 29760, Note_on_c, 0, 57, 0
1, 29760, Note_on_c, 0, 65, 57
1, 29760, Note_on_c, 0, 57, 55
1, 29760, Note_on_c, 0, 61, 69
1, 29760, Note_on_c, 0, 49, 46
1, 30000, Tempo, 813559
1, 30000, Note_on_c, 0, 49, 0
1, 30000, Note_on_c, 0, 61, 0
1, 30000, Note_on_c, 0, 60, 69
1, 30000, Note_on_c, 0, 37, 51
1, 30120, Tempo, 863682
1, 30120, Note_on_c, 0, 37, 0
1, 30120, Note_on_c, 0, 49, 45
1, 30176, Control_c, 0, 64, 0
1, 30240, Tempo, 863682
1, 30240, Note_on_c, 0, 49, 0
1, 30240, Note_on_c, 0, 60, 0
1, 30240, Note_on_c, 0, 57, 0
1, 30240, Note_on_c, 0, 65, 0
1, 30240, Note_on_c, 0, 61, 68
1, 30240, Note_on_c, 0, 37, 56
1, 30360, Note_on_c, 0, 61, 0
1, 30466, Control_c, 0, 64, 127
1, 30480, Tempo, 829646
1, 30480, Note_on_c, 0, 65, 52
1, 30480, Note_on_c, 0, 58, 52
1, 30480, Note_on_c, 0, 61, 71
1, 30480, Note_on_c, 0, 49, 45
1, 30500, Note_on_c, 0, 37, 0
1, 30720, Tempo, 824176
1, 30720, Note_on_c, 0, 49, 0
1, 30720, Note_on_c, 0, 37, 52
1, 30840, Tempo, 863682
1, 30840, Note_on_c, 0, 37, 0
1, 30840, Note_on_c, 0, 49, 46
1, 30900, Control_c, 0, 64, 0
1, 30960, Tempo, 863682
1, 30960, Note_on_c, 0, 49, 0
1, 30960, Note_on_c, 0, 65, 0
1, 30960, Note_on_c, 0, 58, 0
1, 30960, Note_on_c, 0, 61, 0
1, 30960, Note_on_c, 0, 60, 66
1, 30960, Note_on_c, 0, 37, 51
1, 31080, Note_on_c, 0, 60, 0
1, 31200, Tempo, 840689
1, 31200, Note_on_c, 0, 65, 53
1, 31200, Note_on_c, 0, 56, 51
1, 31200, Note_on_c, 0, 60, 69
1, 31200, Control_c, 0, 64, 127
1, 31200, Note_on_c, 0, 49, 40
1, 31220, Note_on_c, 0, 37, 0
1, 31440, Tempo, 829646
1, 31440, Note_on_c, 0, 49, 0
1, 31440, Note_on_c, 0, 37, 48
1, 31553, Control_c, 0, 64, 0
1, 31560, Tempo, 881834
1, 31560, Note_on_c, 0, 37, 0
1, 31560, Note_on_c, 0, 49, 44
1, 31680, Tempo, 863682
1, 31680, Note_on_c, 0, 49, 0
1, 31680, Note_on_c, 0, 65, 0
1, 31680, Note_on_c, 0, 56, 0
1, 31680, Note_on_c, 0, 60, 0
1, 31680, Note_on_c, 0, 66, 50
1, 31680, Note_on_c, 0, 70, 64
1, 31680, Note_on_c, 0, 44, 40
1, 31680, Note_on_c, 0, 49, 50
1, 31800, Note_on_c, 0, 70, 0
1, 31800, Note_on_c, 0, 66, 0
1, 31800, Note_on_c, 0, 54, 40
1, 31820, Note_on_c, 0, 44, 0
1, 31820, Note_on_c, 0, 49, 0
1, 31892, Control_c, 0, 64, 127
1, 31920, Tempo, 829646
1, 31920, Note_on_c, 0, 66, 52
1, 31920, Note_on_c, 0, 70, 69
1, 31920, Note_on_c, 0, 58, 39
1, 31940, Note_on_c, 0, 54, 0
1, 32040, Note_on_c, 0, 58, 0
1, 32040, Note_on_c, 0, 54, 39
1, 32160, Tempo, 824176
1, 32160, Note_on_c, 0, 54, 0
1, 32160, Note_on_c, 0, 72, 62
1, 32160, Note_on_c, 0, 44, 38
1, 32160, Note_on_c, 0, 49, 45
1, 32280, Tempo, 840689
1, 32280, Note_on_c, 0, 49, 0
1, 32280, Note_on_c, 0, 44, 0
1, 32280, Note_on_c, 0, 54, 40
1, 32336, Control_c, 0, 64, 0
1, 32400, Tempo, 846262
1, 32400, Note_on_c, 0, 54, 0
1, 32400, Note_on_c, 0, 72, 0
1, 32400, Note_on_c, 0, 75, 66
1, 32400, Note_on_c, 0, 44, 40
1, 32400, Note_on_c, 0, 49, 50
1, 32520, Note_on_c, 0, 75, 0
1, 32520, Note_on_c, 0, 54, 40
1, 32540, Note_on_c, 0, 44, 0
1, 32540, Note_on_c, 0, 49, 0
1, 32640, Tempo, 829646
1, 32640, Note_on_c, 0, 66, 0
1, 32640, Note_on_c, 0, 70, 0
1, 32640, Note_on_c, 0, 70, 53
1, 32640, Note_on_c, 0, 66, 53
1, 32640, Note_on_c, 0, 75, 72
1, 32640, Control_c, 0, 64, 127
1, 32640, Note_on_c, 0, 60, 40
1, 32660, Note_on_c, 0, 54, 0
1, 32760, Note_on_c, 0, 60, 0
1, 32760, Note_on_c, 0, 54, 40
1, 32880, Tempo, 813559
1, 32880, Note_on_c, 0, 54, 0
1, 32880, Note_on_c, 0, 75, 0
1, 32880, Note_on_c, 0, 72, 62
1, 32880, Note_on_c, 0, 44, 38
1, 32880, Note_on_c, 0, 49, 45
1, 33000, Tempo, 863682
1, 33000, Note_on_c, 0, 49, 0
1, 33000, Note_on_c, 0, 44, 0
1, 33000, Note_on_c, 0, 54, 39
1, 33056, Control_c, 0, 64, 0
1, 33120, Tempo, 863682
1, 33120, Note_on_c, 0, 54, 0
1, 33120, Note_on_c, 0, 72, 0
1, 33120, Note_on_c, 0, 66, 0
1, 33120, Note_on_c, 0, 70, 0
1, 33120, Note_on_c, 0, 65, 50
1, 33120, Note_on_c, 0, 68, 50
1, 33120, Note_on_c, 0, 73, 60
1, 33120, Note_on_c, 0, 44, 40
1, 33120, Note_on_c, 0, 49, 50
1, 33240, Note_on_c, 0, 73, 0
1, 33240, Note_on_c, 0, 65, 0
1, 33240, Note_on_c, 0, 68, 0
1, 33240, Note_on_c, 0, 53, 39
1, 33260, Note_on_c, 0, 44, 0
1, 33260, Note_on_c, 0, 49, 0
1, 33346, Control_c, 0, 64, 127
1, 33360, Tempo, 829646
1, 33360, Note_on_c, 0, 68, 51
1, 33360, Note_on_c, 0, 65, 51
1, 33360, Note_on_c, 0, 73, 62
1, 33360, Note_on_c, 0, 61, 39
1, 33380, Note_on_c, 0, 53, 0
1, 33480, Note_on_c, 0, 61, 0
1, 33480, Note_on_c, 0, 53, 39
1, 33600, Tempo, 824176
1, 33600, Note_on_c, 0, 53, 0
1, 33600, Note_on_c, 0, 73, 0
1, 33600, Note_on_c, 0, 72, 56
1, 33600, Note_on_c, 0, 44, 38
1, 33600, Note_on_c, 0, 49, 46
1, 33680, Note_on_c, 0, 72, 0
1, 33680, Note_on_c, 0, 73, 52
1, 33720, Tempo, 863682
1, 33720, Note_on_c, 0, 44, 0
1, 33720, Note_on_c, 0, 49, 0
1, 33720, Note_on_c, 0, 53, 40
1, 33760, Note_on_c, 0, 73, 0
1, 33760, Note_on_c, 0, 72, 52
1, 33826, Control_c, 0, 64, 0
1, 33840, Tempo, 863682
1, 33840, Note_on_c, 0, 72, 0
1, 33840, Note_on_c, 0, 53, 0
1, 33840, Note_on_c, 0, 65, 0
1, 33840, Note_on_c, 0, 68, 0
1, 33840, Note_on_c, 0, 68, 58
1, 33840, Note_on_c, 0, 44, 31
1, 33840, Note_on_c, 0, 49, 39
1, 33896, Control_c, 0, 64, 127
1, 33960, Note_on_c, 0, 49, 0
1, 33960, Note_on_c, 0, 44, 0
1, 33960, Note_on_c, 0, 53, 36
1, 34080, Tempo, 846262
1, 34080, Note_on_c, 0, 53, 0
1, 34080, Note_on_c, 0, 65, 55
1, 34080, Note_on_c, 0, 56, 31
1, 34200, Note_on_c, 0, 56, 0
1, 34200, Note_on_c, 0, 53, 36
1, 34320, Tempo, 829646
1, 34320, Note_on_c, 0, 53, 0
1, 34320, Note_on_c, 0, 44, 29
1, 34320, Note_on_c, 0, 49, 36
1, 34433, Control_c, 0, 64, 0
1, 34440, Tempo, 881834
1, 34440, Note_on_c, 0, 49, 0
1, 34440, Note_on_c, 0, 44, 0
1, 34440, Note_on_c, 0, 53, 33
1, 34560, Tempo, 846262
1, 34560, Note_on_c, 0, 53, 0
1, 34560, Note_on_c, 0, 65, 0
1, 34560, Note_on_c, 0, 68, 0
1, 34560, Note_on_c, 0, 63, 50
1, 34560, Note_on_c, 0, 66, 64
1, 34560, Note_on_c, 0, 44, 40
1, 34560, Note_on_c, 0, 49, 50
1, 34680, Note_on_c, 0, 66, 0
1, 34680, Note_on_c, 0, 63, 0
1, 34680, Note_on_c, 0, 54, 40
1, 34700, Note_on_c, 0, 44, 0
1, 34700, Note_on_c, 0, 49, 0
1, 34772, Control_c, 0, 64, 127
1, 34800, Tempo, 829646
1, 34800, Note_on_c, 0, 63, 52
1, 34800, Note_on_c, 0, 66, 69
1, 34800, Note_on_c, 0, 58, 39
1, 34820, Note_on_c, 0, 54, 0
1, 34920, Note_on_c, 0, 58, 0
1, 34920, Note_on_c, 0, 54, 40
1, 35040, Tempo, 824176
1, 35040, Note_on_c, 0, 54, 0
1, 35040, Note_on_c, 0, 70, 62
1, 35040, Note_on_c, 0, 44, 38
1, 35040, Note_on_c, 0, 49, 45
1, 35160, Tempo, 840689
1, 35160, Note_on_c, 0, 49, 0
1, 35160, Note_on_c, 0, 44, 0
1, 35160, Note_on_c, 0, 54, 40
1, 35216, Control_c, 0, 64, 0
1, 35280, Tempo, 846262
1, 35280, Note_on_c, 0, 54, 0
1, 35280, Note_on_c, 0, 70, 0
1, 35280, Note_on_c, 0, 72, 66
1, 35280, Note_on_c, 0, 44, 40
1, 35280, Note_on_c, 0, 49, 50
1, 35400, Note_on_c, 0, 72, 0
1, 35400, Note_on_c, 0, 54, 40
1, 35420, Note_on_c, 0, 44, 0
1, 35420, Note_on_c, 0, 49, 0
1, 35520, Tempo, 829646
1, 35520, Note_on_c, 0, 63, 0
1, 35520, Note_on_c, 0, 66, 0
1, 35520, Note_on_c, 0, 66, 53
1, 35520, Note_on_c, 0, 63, 53
1, 35520, Note_on_c, 0, 72, 69
1, 35520, Control_c, 0, 64, 127
1, 35520, Note_on_c, 0, 60, 40
1, 35540, Note_on_c, 0, 54, 0
1, 35640, Note_on_c, 0, 60, 0
1, 35640, Note_on_c, 0, 54, 40
1, 35760, Tempo, 813559
1, 35760, Note_on_c, 0, 54, 0
1, 35760, Note_on_c, 0, 72, 0
1, 35760, Note_on_c, 0, 68, 62
1, 35760, Note_on_c, 0, 44, 38
1, 35760, Note_on_c, 0, 49, 45
1, 35880, Tempo, 863682
1, 35880, Note_on_c, 0, 49, 0
1, 35880, Note_on_c, 0, 44, 0
1, 35880, Note_on_c, 0, 54, 39
1, 35936, Control_c, 0, 64, 0
1, 36000, Tempo, 863682
1, 36000, Note_on_c, 0, 54, 0
1, 36000, Note_on_c, 0, 68, 0
1, 36000, Note_on_c, 0, 63, 0
1, 36000, Note_on_c, 0, 66, 0
1, 36000, Note_on_c, 0, 65, 50
1, 36000, Note_on_c, 0, 73, 60
1, 36000, Note_on_c, 0, 44, 40
1, 36000, Note_on_c, 0, 49, 50
1, 36120, Note_on_c, 0, 73, 0
1, 36120, Note_on_c, 0, 65, 0
1, 36120, Note_on_c, 0, 53, 39
1, 36140, Note_on_c, 0, 44, 0
1, 36140, Note_on_c, 0, 49, 0
1, 36226, Control_c, 0, 64, 127
1, 36240, Tempo, 829646
1, 36240, Note_on_c, 0, 68, 51
1, 36240, Note_on_c, 0, 65, 51
1, 36240, Note_on_c, 0, 73, 62
1, 36240, Note_on_c, 0, 61, 39
1, 36260, Note_on_c, 0, 53, 0
1, 36360, Note_on_c, 0, 61, 0
1, 36360, Note_on_c, 0, 53, 39
1, 36480, Tempo, 824176
1, 36480, Note_on_c, 0, 53, 0
1, 36480, Note_on_c, 0, 44, 38
1, 36480, Note_on_c, 0, 49, 46
1, 36600, Tempo, 863682
1, 36600, Note_on_c, 0, 49, 0
1, 36600, Note_on_c, 0, 44, 0
1, 36600, Note_on_c, 0, 53, 40
1, 36660, Control_c, 0, 64, 0
1, 36720, Tempo, 863682
1, 36720, Note_on_c, 0, 53, 0
1, 36720, Note_on_c, 0, 73, 0
1, 36720, Note_on_c, 0, 72, 58
1, 36720, Note_on_c, 0, 44, 38
1, 36720, Note_on_c, 0, 49, 45
1, 36840, Note_on_c, 0, 72, 0
1, 36840, Note_on_c, 0, 53, 40
1, 36860, Note_on_c, 0, 44, 0
1, 36860, Note_on_c, 0, 49, 0
1, 36960, Tempo, 840689
1, 36960, Note_on_c, 0, 68, 0
1, 36960, Note_on_c, 0, 65, 0
1, 36960, Note_on_c, 0, 68, 51
1, 36960, Note_on_c, 0, 65, 51
1, 36960, Note_on_c, 0, 72, 61
1, 36960, Control_c, 0, 64, 127
1, 36960, Note_on_c, 0, 56, 37
1, 36980, Note_on_c, 0, 53, 0
1, 37080, Note_on_c, 0, 56, 0
1, 37080, Note_on_c, 0, 53, 40
1, 37200, Tempo, 829646
1, 37200, Note_on_c, 0, 53, 0
1, 37200, Note_on_c, 0, 44, 36
1, 37200, Note_on_c, 0, 49, 42
1, 37313, Control_c, 0, 64, 0
1, 37320, Tempo, 881834
1, 37320, Note_on_c, 0, 49, 0
1, 37320, Note_on_c, 0, 44, 0
1, 37320, Note_on_c, 0, 53, 38
1, 37440, Tempo, 863682
1, 37440, Note_on_c, 0, 53, 0
1, 37440, Note_on_c, 0, 72, 0
1, 37440, Note_on_c, 0, 65, 0
1, 37440, Note_on_c, 0, 68, 0
1, 37440, Note_on_c, 0, 66, 50
1, 37440, Note_on_c, 0, 70, 64
1, 37440, Note_on_c, 0, 44, 40
1, 37440, Note_on_c, 0, 49, 50
1, 37560, Note_on_c, 0, 70, 0
1, 37560, Note_on_c, 0, 66, 0
1, 37560, Note_on_c, 0, 54, 40
1, 37580, Note_on_c, 0, 44, 0
1, 37580, Note_on_c, 0, 49, 0
1, 37652, Control_c, 0, 64, 127
1, 37680, Tempo, 829646
1, 37680, Note_on_c, 0, 66, 52
1, 37680, Note_on_c, 0, 70, 69
1, 37680, Note_on_c, 0, 58, 39
1, 37700, Note_on_c, 0, 54, 0
1, 37800, Note_on_c, 0, 58, 0
1, 37800, Note_on_c, 0, 54, 39
1, 37920, Tempo, 824176
1, 37920, Note_on_c, 0, 54, 0
1, 37920, Note_on_c, 0, 72, 62
1, 37920, Note_on_c, 0, 44, 38
1, 37920, Note_on_c, 0, 49, 45
1, 38040, Tempo, 846262
1, 38040, Note_on_c, 0, 49, 0
1, 38040, Note_on_c, 0, 44, 0
1, 38040, Note_on_c, 0, 54, 40
1, 38096, Control_c, 0, 64, 0
1, 38160, Tempo, 846262
1, 38160, Note_on_c, 0, 54, 0
1, 38160, Note_on_c, 0, 72, 0
1, 38160, Note_on_c, 0, 75, 66
1, 38160, Note_on_c, 0, 44, 40
1, 38160, Note_on_c, 0, 49, 50
1, 38280, Note_on_c, 0, 75, 0
1, 38280, Note_on_c, 0, 54, 40
1, 38300, Note_on_c, 0, 44, 0
1, 38300, Note_on_c, 0, 49, 0
1, 38400, Tempo, 829646
1, 38400, Note_on_c, 0, 66, 0
1, 38400, Note_on_c, 0, 70, 0
1, 38400, Note_on_c, 0, 70, 53
1, 38400, Note_on_c, 0, 66, 53
1, 38400, Note_on_c, 0, 75, 71
1, 38400, Control_c, 0, 64, 127
1, 38400, Note_on_c, 0, 60, 40
1, 38420, Note_on_c, 0, 54, 0
1, 38520, Note_on_c, 0, 60, 0
1, 38520, Note_on_c, 0, 54, 40
1, 38640, Tempo, 813559
1, 38640, Note_on_c, 0, 54, 0
1, 38640, Note_on_c, 0, 75, 0
1, 38640, Note_on_c, 0, 72, 62
1, 38640, Note_on_c, 0, 44, 38
1, 38640, Note_on_c, 0, 49, 45
1, 38760, Tempo, 863682
1, 38760, Note_on_c, 0, 49, 0
1, 38760, Note_on_c, 0, 44, 0
1, 38760, Note_on_c, 0, 54, 39
1, 38816, Control_c, 0, 64, 0
1, 38880, Tempo, 863682
1, 38880, Note_on_c, 0, 54, 0
1, 38880, Note_on_c, 0, 72, 0
1, 38880, Note_on_c, 0, 66, 0
1, 38880, Note_on_c, 0, 70, 0
1, 38880, Note_on_c, 0, 65, 50
1, 38880, Note_on_c, 0, 68, 50
1, 38880, Note_on_c, 0, 73, 60
1, 38880, Note_on_c, 0, 44, 40
1, 38880, Note_on_c, 0, 49, 50
1, 39000, Note_on_c, 0, 73, 0
1, 39000, Note_on_c, 0, 65, 0
1, 39000, Note_on_c, 0, 68, 0
1, 39000, Note_on_c, 0, 53, 39
1, 39020, Note_on_c, 0, 44, 0
1, 39020, Note_on_c, 0, 49, 0
1, 39106, Control_c, 0, 64, 127
1, 39120, Tempo, 829646
1, 39120, Note_on_c, 0, 68, 51
1, 39120, Note_on_c, 0, 65, 51
1, 39120, Note_on_c, 0, 73, 62
1, 39120, Note_on_c, 0, 61, 39
1, 39140, Note_on_c, 0, 53, 0
1, 39240, Note_on_c, 0, 61, 0
1, 39240, Note_on_c, 0, 53, 39
1, 39360, Tempo, 824176
1, 39360, Note_on_c, 0, 53, 0
1, 39360, Note_on_c, 0, 73, 0
1, 39360, Note_on_c, 0, 72, 56
1, 39360, Note_on_c, 0, 44, 38
1, 39360, Note_on_c, 0, 49, 46
1, 39440, Note_on_c, 0, 72, 0
1, 39440, Note_on_c, 0, 73, 52
1, 39480, Tempo, 863682
1, 39480, Note_on_c, 0, 44, 0
1, 39480, Note_on_c, 0, 49, 0
1, 39480, Note_on_c, 0, 53, 40
1, 39520, Note_on_c, 0, 73, 0
1, 39520, Note_on_c, 0, 72, 52
1, 39586, Control_c, 0, 64, 0
1, 39600, Tempo, 863682
1, 39600, Note_on_c, 0, 72, 0
1, 39600, Note_on_c, 0, 53, 0
1, 39600, Note_on_c, 0, 65, 0
1, 39600, Note_on_c, 0, 68, 0
1, 39600, Note_on_c, 0, 68, 58
1, 39600, Note_on_c, 0, 44, 31
1, 39600, Note_on_c, 0, 49, 39
1, 39656, Control_c, 0, 64, 127
1, 39720, Note_on_c, 0, 49, 0
1, 39720, Note_on_c, 0, 44, 0
1, 39720, Note_on_c, 0, 53, 36
1, 39840, Tempo, 846262
1, 39840, Note_on_c, 0, 53, 0
1, 39840, Note_on_c, 0, 65, 55
1, 39840, Note_on_c, 0, 56, 31
1, 39960, Note_on_c, 0, 56, 0
1, 39960, Note_on_c, 0, 53, 36
1, 40080, Tempo, 829646
1, 40080, Note_on_c, 0, 53, 0
1, 40080, Note_on_c, 0, 44, 29
1, 40080, Note_on_c, 0, 49, 36
1, 40193, Control_c, 0, 64, 0
1, 40200, Tempo, 881834
1, 40200, Note_on_c, 0, 49, 0
1, 40200, Note_on_c, 0, 44, 0
1, 40200, Note_on_c, 0, 53, 33
1, 40320, Tempo, 863682
1, 40320, Note_on_c, 0, 53, 0
1, 40320, Note_on_c, 0, 65, 0
1, 40320, Note_on_c, 0, 68, 0
1, 40320, Note_on_c, 0, 70, 50
1, 40320, Note_on_c, 0, 66, 50
1, 40320, Note_on_c, 0, 75, 64
1, 40320, Note_on_c, 0, 44, 40
1, 40320, Note_on_c, 0, 49, 50
1, 40440, Note_on_c, 0, 75, 0
1, 40440, Note_on_c, 0, 70, 0
1, 40440, Note_on_c, 0, 66, 0
1, 40440, Note_on_c, 0, 54, 40
1, 40460, Note_on_c, 0, 44, 0
1, 40460, Note_on_c, 0, 49, 0
1, 40532, Control_c, 0, 64, 127
1, 40560, Tempo, 829646
1, 40560, Note_on_c, 0, 70, 52
1, 40560, Note_on_c, 0, 66, 52
1, 40560, Note_on_c, 0, 75, 70
1, 40560, Note_on_c, 0, 58, 39
1, 40580, Note_on_c, 0, 54, 0
1, 40680, Note_on_c, 0, 58, 0
1, 40680, Note_on_c, 0, 54, 40
1, 40800, Tempo, 824176
1, 40800, Note_on_c, 0, 54, 0
1, 40800, Note_on_c, 0, 75, 0
1, 40800, Note_on_c, 0, 77, 70
1, 40800, Note_on_c, 0, 44, 38
1, 40800, Note_on_c, 0, 49, 45
1, 40920, Tempo, 863682
1, 40920, Note_on_c, 0, 49, 0
1, 40920, Note_on_c, 0, 44, 0
1, 40920, Note_on_c, 0, 54, 40
1, 40976, Control_c, 0, 64, 0
1, 41040, Tempo, 846262
1, 41040, Note_on_c, 0, 54, 0
1, 41040, Note_on_c, 0, 77, 0
1, 41040, Note_on_c, 0, 78, 72
1, 41040, Note_on_c, 0, 44, 40
1, 41040, Note_on_c, 0, 49, 50
1, 41160, Note_on_c, 0, 78, 0
1, 41160, Note_on_c, 0, 54, 40
1, 41180, Note_on_c, 0, 44, 0
1, 41180, Note_on_c, 0, 49, 0
1, 41280, Tempo, 829646
1, 41280, Note_on_c, 0, 70, 0
1, 41280, Note_on_c, 0, 66, 0
1, 41280, Note_on_c, 0, 70, 53
1, 41280, Note_on_c, 0, 78, 72
1, 41280, Control_c, 0, 64, 127
1, 41280, Note_on_c, 0, 60, 40
1, 41300, Note_on_c, 0, 54, 0
1, 41400, Note_on_c, 0, 60, 0
1, 41400, Note_on_c, 0, 54, 40
1, 41520, Tempo, 813559
1, 41520, Note_on_c, 0, 54, 0
1, 41520, Note_on_c, 0, 78, 0
1, 41520, Note_on_c, 0, 70, 0
1, 41520, Note_on_c, 0, 68, 51
1, 41520, Note_on_c, 0, 77, 66
1, 41520, Note_on_c, 0, 44, 38
1, 41520, Note_on_c, 0, 49, 45
1, 41640, Tempo, 863682
1, 41640, Note_on_c, 0, 49, 0
1, 41640, Note_on_c, 0, 44, 0
1, 41640, Note_on_c, 0, 54, 39
1, 41696, Control_c, 0, 64, 0
1, 41760, Tempo, 863682
1, 41760, Note_on_c, 0, 54, 0
1, 41760, Note_on_c, 0, 77, 0
1, 41760, Note_on_c, 0, 68, 0
1, 41760, Note_on_c, 0, 65, 50
1, 41760, Note_on_c, 0, 73, 60
1, 41760, Note_on_c, 0, 37, 40
1, 41760, Note_on_c, 0, 44, 50
1, 41880, Note_on_c, 0, 44, 0
1, 41880, Note_on_c, 0, 37, 0
1, 41880, Note_on_c, 0, 49, 39
1, 41986, Control_c, 0, 64, 127
1, 42000, Tempo, 829646
1, 42000, Note_on_c, 0, 49, 0
1, 42000, Note_on_c, 0, 53, 45
1, 42120, Note_on_c, 0, 53, 0
1, 42120, Note_on_c, 0, 56, 39
1, 42240, Tempo, 824176
1, 42240, Note_on_c, 0, 56, 0
1, 42240, Note_on_c, 0, 61, 46
1, 42360, Tempo, 863682
1, 42360, Note_on_c, 0, 61, 0
1, 42360, Note_on_c, 0, 65, 37
1, 42420, Note_on_c, 0, 65, 0
1, 42480, Tempo, 863682
1, 42480, Note_on_c, 0, 65, 0
1, 42480, Note_on_c, 0, 73, 0
1, 42480, Note_on_c, 0, 73, 51
1, 42720, Tempo, 840689
1, 42720, Note_on_c, 0, 65, 40
1, 42960, Tempo, 829646
1, 42960, Note_on_c, 0, 65, 0
1, 42960, Note_on_c, 0, 56, 36
1, 43073, Control_c, 0, 64, 0
1, 43080, Tempo, 881834
1, 43200, Tempo, 840689
1, 43200, Note_on_c, 0, 56, 0
1, 43200, Note_on_c, 0, 73, 0
1, 43200, Note_on_c, 0, 73, 46
1, 43200, Note_on_c, 0, 78, 46
1, 43200, Note_on_c, 0, 82, 55
1, 43200, Note_on_c, 0, 49, 35
1, 43221, Control_c, 0, 64, 127
1, 43320, Note_on_c, 0, 82, 0
1, 43320, Note_on_c, 0, 73, 0
1, 43320, Note_on_c, 0, 78, 0
1, 43440, Tempo, 829646
1, 43440, Note_on_c, 0, 49, 0
1, 43440, Note_on_c, 0, 73, 47
1, 43440, Note_on_c, 0, 78, 47
1, 43440, Note_on_c, 0, 82, 57
1, 43440, Note_on_c, 0, 58, 40
1, 43680, Tempo, 824176
1, 43680, Note_on_c, 0, 49, 34
1, 43800, Tempo, 863682
1, 43800, Control_c, 0, 64, 0
1, 43920, Tempo, 852031
1, 43920, Note_on_c, 0, 49, 0
1, 43920, Note_on_c, 0, 82, 0
1, 43920, Note_on_c, 0, 73, 0
1, 43920, Note_on_c, 0, 78, 0
1, 43920, Note_on_c, 0, 58, 0
1, 43920, Note_on_c, 0, 72, 47
1, 43920, Note_on_c, 0, 75, 47
1, 43920, Note_on_c, 0, 80, 53
1, 43920, Note_on_c, 0, 49, 37
1, 44005, Control_c, 0, 64, 127
1, 44040, Note_on_c, 0, 80, 0
1, 44040, Note_on_c, 0, 72, 0
1, 44040, Note_on_c, 0, 75, 0
1, 44160, Tempo, 840689
1, 44160, Note_on_c, 0, 49, 0
1, 44160, Note_on_c, 0, 72, 47
1, 44160, Note_on_c, 0, 75, 47
1, 44160, Note_on_c, 0, 80, 56
1, 44160, Note_on_c, 0, 60, 41
1, 44400, Tempo, 852031
1, 44400, Note_on_c, 0, 49, 36
1, 44456, Control_c, 0, 64, 0
1, 44640, Tempo, 835073
1, 44640, Note_on_c, 0, 49, 0
1, 44640, Note_on_c, 0, 80, 0
1, 44640, Note_on_c, 0, 72, 0
1, 44640, Note_on_c, 0, 75, 0
1, 44640, Note_on_c, 0, 60, 0
1, 44640, Note_on_c, 0, 77, 55
1, 44640, Note_on_c, 0, 70, 46
1, 44640, Note_on_c, 0, 73, 46
1, 44640, Note_on_c, 0, 49, 37
1, 44661, Control_c, 0, 64, 127
1, 44760, Note_on_c, 0, 73, 0
1, 44760, Note_on_c, 0, 77, 0
1, 44760, Note_on_c, 0, 70, 0
1, 44880, Tempo, 829646
1, 44880, Note_on_c, 0, 49, 0
1, 44880, Note_on_c, 0, 70, 47
1, 44880, Note_on_c, 0, 73, 47
1, 44880, Note_on_c, 0, 77, 57
1, 44880, Note_on_c, 0, 61, 44
1, 45120, Tempo, 824176
1, 45120, Note_on_c, 0, 49, 37
1, 45240, Tempo, 863682
1, 45300, Control_c, 0, 64, 0
1, 45360, Tempo, 808299
1, 45360, Note_on_c, 0, 49, 0
1, 45360, Note_on_c, 0, 77, 0
1, 45360, Note_on_c, 0, 70, 0
1, 45360, Note_on_c, 0, 73, 0
1, 45360, Note_on_c, 0, 61, 0
1, 45360, Note_on_c, 0, 71, 47
1, 45360, Note_on_c, 0, 77, 47
1, 45360, Note_on_c, 0, 80, 53
1, 45360, Control_c, 0, 64, 127
1, 45360, Note_on_c, 0, 49, 39
1, 45480, Note_on_c, 0, 80, 0
1, 45480, Note_on_c, 0, 82, 51
1, 45600, Tempo, 824176
1, 45600, Note_on_c, 0, 82, 0
1, 45600, Note_on_c, 0, 49, 0
1, 45600, Note_on_c, 0, 77, 0
1, 45600, Note_on_c, 0, 71, 0
1, 45600, Note_on_c, 0, 80, 53
1, 45600, Note_on_c, 0, 71, 47
1, 45600, Note_on_c, 0, 62, 45
1, 45606, Note_on_c, 0, 77, 47
1, 45720, Note_on_c, 0, 80, 0
1, 45720, Note_on_c, 0, 78, 50
1, 45780, Note_on_c, 0, 78, 0
1, 45780, Note_on_c, 0, 80, 50
1, 45840, Note_on_c, 0, 80, 0
1, 45840, Note_on_c, 0, 78, 53
1, 45840, Note_on_c, 0, 49, 39
1, 45896, Control_c, 0, 64, 0
1, 45960, Note_on_c, 0, 78, 0
1, 45960, Note_on_c, 0, 77, 51
1, 46080, Tempo, 840689
1, 46080, Note_on_c, 0, 77, 0
1, 46080, Note_on_c, 0, 49, 0
1, 46080, Note_on_c, 0, 71, 0
1, 46080, Note_on_c, 0, 62, 0
1, 46080, Note_on_c, 0, 70, 46
1, 46080, Note_on_c, 0, 75, 46
1, 46080, Note_on_c, 0, 78, 55
1, 46080, Note_on_c, 0, 49, 39
1, 46086, Note_on_c, 0, 77, 0
1, 46101, Control_c, 0, 64, 127
1, 46200, Note_on_c, 0, 78, 0
1, 46200, Note_on_c, 0, 70, 0
1, 46200, Note_on_c, 0, 75, 0
1, 46320, Tempo, 829646
1, 46320, Note_on_c, 0, 49, 0
1, 46320, Note_on_c, 0, 70, 47
1, 46320, Note_on_c, 0, 75, 47
1, 46320, Note_on_c, 0, 78, 57
1, 46320, Note_on_c, 0, 63, 46
1, 46560, Tempo, 824176
1, 46560, Note_on_c, 0, 49, 38
1, 46680, Tempo, 863682
1, 46680, Control_c, 0, 64, 0
1, 46800, Tempo, 852031
1, 46800, Note_on_c, 0, 49, 0
1, 46800, Note_on_c, 0, 78, 0
1, 46800, Note_on_c, 0, 70, 0
1, 46800, Note_on_c, 0, 75, 0
1, 46800, Note_on_c, 0, 63, 0
1, 46800, Note_on_c, 0, 68, 47
1, 46800, Note_on_c, 0, 72, 47
1, 46800, Note_on_c, 0, 77, 53
1, 46800, Note_on_c, 0, 49, 39
1, 46885, Control_c, 0, 64, 127
1, 46920, Note_on_c, 0, 77, 0
1, 46920, Note_on_c, 0, 68, 0
1, 46920, Note_on_c, 0, 72, 0
1, 47040, Tempo, 840689
1, 47040, Note_on_c, 0, 49, 0
1, 47040, Note_on_c, 0, 68, 47
1, 47040, Note_on_c, 0, 72, 47
1, 47040, Note_on_c, 0, 77, 56
1, 47040, Note_on_c, 0, 56, 44
1, 47280, Tempo, 852031
1, 47280, Note_on_c, 0, 49, 37
1, 47336, Control_c, 0, 64, 0
1, 47520, Tempo, 835073
1, 47520, Note_on_c, 0, 49, 0
1, 47520, Note_on_c, 0, 77, 0
1, 47520, Note_on_c, 0, 68, 0
1, 47520, Note_on_c, 0, 72, 0
1, 47520, Note_on_c, 0, 56, 0
1, 47520, Note_on_c, 0, 73, 55
1, 47520, Note_on_c, 0, 65, 46
1, 47520, Note_on_c, 0, 68, 46
1, 47520, Note_on_c, 0, 49, 37
1, 47541, Control_c, 0, 64, 127
1, 47640, Note_on_c, 0, 68, 0
1, 47640, Note_on_c, 0, 73, 0
1, 47640, Note_on_c, 0, 65, 0
1, 47760, Tempo, 829646
1, 47760, Note_on_c, 0, 49, 0
1, 47760, Note_on_c, 0, 65, 47
1, 47760, Note_on_c, 0, 68, 47
1, 47760, Note_on_c, 0, 73, 57
1, 47760, Note_on_c, 0, 61, 42
1, 48000, Tempo, 824176
1, 48000, Note_on_c, 0, 49, 35
1, 48120, Tempo, 863682
1, 48180, Control_c, 0, 64, 0
1, 48240, Tempo, 840689
1, 48240, Note_on_c, 0, 49, 0
1, 48240, Note_on_c, 0, 73, 0
1, 48240, Note_on_c, 0, 65, 0
1, 48240, Note_on_c, 0, 68, 0
1, 48240, Note_on_c, 0, 61, 0
1, 48240, Control_c, 0, 64, 127
1, 48240, Note_on_c, 0, 49, 36
1, 48480, Tempo, 824176
1, 48480, Note_on_c, 0, 49, 0
1, 48480, Note_on_c, 0, 61, 56
1, 48480, Note_on_c, 0, 65, 62
1, 48480, Note_on_c, 0, 56, 46
1, 48600, Note_on_c, 0, 65, 0
1, 48600, Note_on_c, 0, 61, 0
1, 48720, Note_on_c, 0, 61, 52
1, 48720, Note_on_c, 0, 65, 52
1, 48720, Note_on_c, 0, 68, 59
1, 48720, Note_on_c, 0, 49, 39
1, 48776, Control_c, 0, 64, 0
1, 48840, Note_on_c, 0, 68, 0
1, 48840, Note_on_c, 0, 65, 0
1, 48840, Note_on_c, 0, 61, 0
1, 48960, Tempo, 840689
1, 48960, Note_on_c, 0, 56, 0
1, 48960, Note_on_c, 0, 49, 0
1, 48960, Note_on_c, 0, 61, 55
1, 48960, Note_on_c, 0, 66, 55
1, 48960, Note_on_c, 0, 70, 66
1, 48960, Note_on_c, 0, 54, 48
1, 48981, Control_c, 0, 64, 127
1, 49080, Note_on_c, 0, 70, 0
1, 49080, Note_on_c, 0, 61, 0
1, 49080, Note_on_c, 0, 66, 0
1, 49200, Tempo, 829646
1, 49200, Note_on_c, 0, 61, 56
1, 49200, Note_on_c, 0, 66, 56
1, 49200, Note_on_c, 0, 70, 68
1, 49200, Note_on_c, 0, 44, 41
1, 49440, Tempo, 824176
1, 49440, Note_on_c, 0, 44, 0
1, 49440, Note_on_c, 0, 44, 40
1, 49560, Tempo, 863682
1, 49560, Control_c, 0, 64, 0
1, 49680, Tempo, 852031
1, 49680, Note_on_c, 0, 44, 0
1, 49680, Note_on_c, 0, 70, 0
1, 49680, Note_on_c, 0, 54, 0
1, 49680, Note_on_c, 0, 61, 0
1, 49680, Note_on_c, 0, 66, 0
1, 49680, Note_on_c, 0, 60, 57
1, 49680, Note_on_c, 0, 63, 57
1, 49680, Note_on_c, 0, 68, 64
1, 49680, Note_on_c, 0, 56, 51
1, 49765, Control_c, 0, 64, 127
1, 49800, Note_on_c, 0, 68, 0
1, 49800, Note_on_c, 0, 60, 0
1, 49800, Note_on_c, 0, 63, 0
1, 49920, Tempo, 840689
1, 49920, Note_on_c, 0, 60, 58
1, 49920, Note_on_c, 0, 63, 58
1, 49920, Note_on_c, 0, 68, 70
1, 49920, Note_on_c, 0, 44, 44
1, 50160, Tempo, 852031
1, 50160, Note_on_c, 0, 44, 0
1, 50160, Note_on_c, 0, 44, 42
1, 50216, Control_c, 0, 64, 0
1, 50400, Tempo, 835073
1, 50400, Note_on_c, 0, 44, 0
1, 50400, Note_on_c, 0, 68, 0
1, 50400, Note_on_c, 0, 56, 0
1, 50400, Note_on_c, 0, 60, 0
1, 50400, Note_on_c, 0, 63, 0
1, 50400, Note_on_c, 0, 65, 70
1, 50400, Note_on_c, 0, 61, 58
1, 50400, Note_on_c, 0, 58, 56
1, 50421, Control_c, 0, 64, 127
1, 50520, Note_on_c, 0, 61, 0
1, 50520, Note_on_c, 0, 65, 0
1, 50640, Tempo, 829646
1, 50640, Note_on_c, 0, 61, 58
1, 50640, Note_on_c, 0, 65, 71
1, 50640, Note_on_c, 0, 44, 44
1, 50880, Tempo, 824176
1, 50880, Note_on_c, 0, 44, 0
1, 50880, Note_on_c, 0, 44, 44
1, 51000, Tempo, 863682
1, 51060, Control_c, 0, 64, 0
1, 51120, Tempo, 818777
1, 51120, Note_on_c, 0, 44, 0
1, 51120, Note_on_c, 0, 65, 0
1, 51120, Note_on_c, 0, 61, 0
1, 51120, Note_on_c, 0, 58, 0
1, 51120, Note_on_c, 0, 62, 63
1, 51120, Note_on_c, 0, 68, 72
1, 51120, Note_on_c, 0, 59, 59
1, 51120, Control_c, 0, 64, 127
1, 51240, Note_on_c, 0, 68, 0
1, 51240, Note_on_c, 0, 70, 70
1, 51360, Tempo, 824176
1, 51360, Note_on_c, 0, 70, 0
1, 51360, Note_on_c, 0, 62, 0
1, 51360, Note_on_c, 0, 68, 72
1, 51360, Note_on_c, 0, 44, 47
1, 51366, Note_on_c, 0, 62, 63
1, 51480, Note_on_c, 0, 68, 0
1, 51480, Note_on_c, 0, 66, 69
1, 51540, Note_on_c, 0, 66, 0
1, 51540, Note_on_c, 0, 68, 64
1, 51600, Note_on_c, 0, 68, 0
1, 51600, Note_on_c, 0, 44, 0
1, 51600, Note_on_c, 0, 66, 69
1, 51600, Note_on_c, 0, 44, 47
1, 51656, Control_c, 0, 64, 0
1, 51720, Note_on_c, 0, 66, 0
1, 51720, Note_on_c, 0, 65, 66
1, 51840, Tempo, 840689
1, 51840, Note_on_c, 0, 65, 0
1, 51840, Note_on_c, 0, 44, 0
1, 51840, Note_on_c, 0, 59, 0
1, 51840, Note_on_c, 0, 61, 57
1, 51840, Note_on_c, 0, 66, 64
1, 51840, Note_on_c, 0, 58, 49
1, 51846, Note_on_c, 0, 62, 0
1, 51911, Control_c, 0, 64, 127
1, 51960, Note_on_c, 0, 61, 0
1, 51960, Note_on_c, 0, 66, 0
1, 52080, Tempo, 829646
1, 52080, Note_on_c, 0, 61, 58
1, 52080, Note_on_c, 0, 66, 64
1, 52080, Note_on_c, 0, 44, 44
1, 52320, Tempo, 824176
1, 52320, Note_on_c, 0, 44, 0
1, 52320, Note_on_c, 0, 44, 40
1, 52440, Tempo, 863682
1, 52440, Control_c, 0, 64, 0
1, 52560, Tempo, 852031
1, 52560, Note_on_c, 0, 44, 0
1, 52560, Note_on_c, 0, 66, 0
1, 52560, Note_on_c, 0, 61, 0
1, 52560, Note_on_c, 0, 58, 0
1, 52560, Note_on_c, 0, 60, 46
1, 52560, Note_on_c, 0, 65, 53
1, 52560, Note_on_c, 0, 56, 44
1, 52645, Control_c, 0, 64, 127
1, 52680, Note_on_c, 0, 65, 0
1, 52680, Note_on_c, 0, 60, 0
1, 52800, Tempo, 840689
1, 52800, Note_on_c, 0, 60, 44
1, 52800, Note_on_c, 0, 65, 52
1, 52800, Note_on_c, 0, 44, 37
1, 53040, Tempo, 852031
1, 53040, Note_on_c, 0, 56, 0
1, 53040, Note_on_c, 0, 54, 33
1, 53096, Control_c, 0, 64, 0
1, 53280, Tempo, 875912
1, 53280, Note_on_c, 0, 54, 0
1, 53280, Note_on_c, 0, 44, 0
1, 53280, Note_on_c, 0, 65, 0
1, 53280, Note_on_c, 0, 60, 0
1, 53280, Note_on_c, 0, 61, 46
1, 53280, Note_on_c, 0, 53, 38
1, 53280, Note_on_c, 0, 37, 30
1, 53280, Note_on_c, 0, 44, 38
1, 53315, Control_c, 0, 64, 127
1, 53360, Tempo, 882353
1, 53400, Note_on_c, 0, 44, 0
1, 53400, Note_on_c, 0, 37, 0
1, 53400, Note_on_c, 0, 49, 30
1, 53420, Tempo, 888889
1, 53480, Tempo, 895522
1, 53520, Note_on_c, 0, 49, 0
1, 53520, Note_on_c, 0, 53, 0
1, 53520, Note_on_c, 0, 61, 0
1, 53520, Note_on_c, 0, 53, 35
1, 53560, Tempo, 902256
1, 53620, Tempo, 909091
1, 53640, Note_on_c, 0, 53, 0
1, 53640, Note_on_c, 0, 56, 30
1, 53680, Tempo, 916031
1, 53740, Tempo, 923077
1, 53760, Tempo, 960000
1, 53760, Note_on_c, 0, 56, 0
1, 53760, Note_on_c, 0, 61, 36
1, 53880, Tempo, 1043478
1, 53880, Note_on_c, 0, 61, 0
1, 53880, Note_on_c, 0, 65, 30
1, 54000, Tempo, 1132075
1, 54000, Note_on_c, 0, 73, 41
1, 54551, Control_c, 0, 64, 0
1, 54720, Tempo, 857878
1, 54720, Note_on_c, 0, 73, 0
1, 54720, Note_on_c, 0, 65, 0
1, 54720, Note_on_c, 0, 44, 29
1, 54720, Note_on_c, 0, 49, 35
1, 54734, Control_c, 0, 64, 127
1, 54960, Note_on_c, 0, 49, 0
1, 54960, Note_on_c, 0, 44, 0
1, 54960, Note_on_c, 0, 58, 36
1, 54960, Note_on_c, 0, 54, 29
1, 54960, Note_on_c, 0, 49, 29
1, 54980, Tempo, 829646
1, 55200, Tempo, 818777
1, 55200, Note_on_c, 0, 49, 0
1, 55200, Note_on_c, 0, 54, 0
1, 55200, Note_on_c, 0, 58, 0
1, 55200, Note_on_c, 0, 44, 26
1, 55200, Note_on_c, 0, 49, 31
1, 55320, Tempo, 863682
1, 55320, Note_on_c, 0, 49, 0
1, 55320, Note_on_c, 0, 44, 0
1, 55320, Note_on_c, 0, 49, 24
1, 55320, Note_on_c, 0, 54, 24
1, 55320, Note_on_c, 0, 58, 29
1, 55440, Tempo, 840689
1, 55440, Note_on_c, 0, 58, 0
1, 55440, Note_on_c, 0, 54, 0
1, 55440, Note_on_c, 0, 49, 0
1, 55440, Control_c, 0, 64, 0
1, 55440, Note_on_c, 0, 44, 29
1, 55440, Note_on_c, 0, 49, 35
1, 55482, Control_c, 0, 64, 127
1, 55680, Tempo, 824176
1, 55680, Note_on_c, 0, 49, 0
1, 55680, Note_on_c, 0, 44, 0
1, 55680, Note_on_c, 0, 61, 36
1, 55680, Note_on_c, 0, 58, 29
1, 55680, Note_on_c, 0, 54, 29
1, 55680, Note_on_c, 0, 49, 29
1, 55920, Tempo, 818777
1, 55920, Note_on_c, 0, 49, 0
1, 55920, Note_on_c, 0, 61, 0
1, 55920, Note_on_c, 0, 58, 0
1, 55920, Note_on_c, 0, 54, 0
1, 55920, Note_on_c, 0, 44, 27
1, 55920, Note_on_c, 0, 49, 33
1, 56040, Tempo, 863682
1, 56040, Note_on_c, 0, 49, 0
1, 56040, Note_on_c, 0, 44, 0
1, 56040, Note_on_c, 0, 61, 29
1, 56040, Note_on_c, 0, 58, 25
1, 56040, Note_on_c, 0, 54, 25
1, 56040, Note_on_c, 0, 49, 25
1, 56061, Control_c, 0, 64, 0
1, 56160, Note_on_c, 0, 49, 0
1, 56160, Note_on_c, 0, 61, 0
1, 56160, Note_on_c, 0, 58, 0
1, 56160, Note_on_c, 0, 54, 0
1, 56160, Note_on_c, 0, 44, 29
1, 56160, Note_on_c, 0, 49, 35
1, 56238, Control_c, 0, 64, 127
1, 56400, Tempo, 829646
1, 56400, Note_on_c, 0, 49, 0
1, 56400, Note_on_c, 0, 44, 0
1, 56400, Note_on_c, 0, 56, 37
1, 56400, Note_on_c, 0, 53, 30
1, 56400, Note_on_c, 0, 49, 30
1, 56640, Tempo, 824176
1, 56640, Note_on_c, 0, 49, 0
1, 56640, Note_on_c, 0, 53, 0
1, 56640, Note_on_c, 0, 56, 0
1, 56640, Note_on_c, 0, 44, 26
1, 56640, Note_on_c, 0, 49, 31
1, 56760, Tempo, 869691
1, 56760, Note_on_c, 0, 49, 0
1, 56760, Note_on_c, 0, 44, 0
1, 56760, Note_on_c, 0, 49, 25
1, 56760, Note_on_c, 0, 53, 25
1, 56760, Note_on_c, 0, 56, 29
1, 56866, Control_c, 0, 64, 0
1, 56880, Tempo, 840689
1, 56880, Note_on_c, 0, 56, 0
1, 56880, Note_on_c, 0, 53, 0
1, 56880, Note_on_c, 0, 49, 0
1, 56880, Note_on_c, 0, 44, 29
1, 56880, Note_on_c, 0, 49, 35
1, 56922, Control_c, 0, 64, 127
1, 57120, Tempo, 824176
1, 57120, Note_on_c, 0, 49, 0
1, 57120, Note_on_c, 0, 44, 0
1, 57120, Note_on_c, 0, 61, 36
1, 57120, Note_on_c, 0, 53, 29
1, 57120, Note_on_c, 0, 49, 29
1, 57360, Tempo, 813559
1, 57360, Note_on_c, 0, 49, 0
1, 57360, Note_on_c, 0, 53, 0
1, 57360, Note_on_c, 0, 61, 0
1, 57360, Note_on_c, 0, 44, 26
1, 57360, Note_on_c, 0, 49, 31
1, 57480, Tempo, 869691
1, 57480, Note_on_c, 0, 49, 0
1, 57480, Note_on_c, 0, 44, 0
1, 57480, Note_on_c, 0, 61, 29
1, 57480, Note_on_c, 0, 53, 24
1, 57480, Note_on_c, 0, 49, 24
1, 57501, Control_c, 0, 64, 0
1, 57600, Tempo, 863682
1, 57600, Note_on_c, 0, 49, 0
1, 57600, Note_on_c, 0, 53, 0
1, 57600, Note_on_c, 0, 61, 0
1, 57600, Note_on_c, 0, 44, 29
1, 57600, Note_on_c, 0, 49, 35
1, 57651, Control_c, 0, 64, 127
1, 57840, Tempo, 829646
1, 57840, Note_on_c, 0, 49, 0
1, 57840, Note_on_c, 0, 44, 0
1, 57840, Note_on_c, 0, 54, 37
1, 57840, Note_on_c, 0, 51, 30
1, 57840, Note_on_c, 0, 49, 30
1, 58080, Tempo, 818777
1, 58080, Note_on_c, 0, 49, 0
1, 58080, Note_on_c, 0, 51, 0
1, 58080, Note_on_c, 0, 54, 0
1, 58080, Note_on_c, 0, 44, 27
1, 58080, Note_on_c, 0, 49, 33
1, 58200, Note_on_c, 0, 49, 0
1, 58200, Note_on_c, 0, 44, 0
1, 58200, Note_on_c, 0, 49, 25
1, 58200, Note_on_c, 0, 51, 25
1, 58200, Note_on_c, 0, 54, 29
1, 58220, Tempo, 863682
1, 58295, Control_c, 0, 64, 0
1, 58320, Tempo, 840689
1, 58320, Note_on_c, 0, 54, 0
1, 58320, Note_on_c, 0, 51, 0
1, 58320, Note_on_c, 0, 49, 0
1, 58320, Note_on_c, 0, 44, 29
1, 58320, Note_on_c, 0, 49, 35
1, 58345, Control_c, 0, 64, 127
1, 58560, Tempo, 824176
1, 58560, Note_on_c, 0, 49, 0
1, 58560, Note_on_c, 0, 44, 0
1, 58560, Note_on_c, 0, 61, 37
1, 58560, Note_on_c, 0, 54, 30
1, 58560, Note_on_c, 0, 51, 30
1, 58560, Note_on_c, 0, 49, 30
1, 58800, Tempo, 813559
1, 58800, Note_on_c, 0, 49, 0
1, 58800, Note_on_c, 0, 61, 0
1, 58800, Note_on_c, 0, 54, 0
1, 58800, Note_on_c, 0, 51, 0
1, 58800, Note_on_c, 0, 44, 27
1, 58800, Note_on_c, 0, 49, 33
1, 58920, Tempo, 863682
1, 58920, Note_on_c, 0, 49, 0
1, 58920, Note_on_c, 0, 44, 0
1, 58920, Note_on_c, 0, 61, 29
1, 58920, Note_on_c, 0, 54, 25
1, 58920, Note_on_c, 0, 51, 25
1, 58920, Note_on_c, 0, 49, 25
1, 58958, Control_c, 0, 64, 0
1, 59040, Tempo, 894321
1, 59040, Note_on_c, 0, 49, 0
1, 59040, Note_on_c, 0, 61, 0
1, 59040, Note_on_c, 0, 54, 0
1, 59040, Note_on_c, 0, 51, 0
1, 59040, Note_on_c, 0, 44, 29
1, 59040, Note_on_c, 0, 49, 35
1, 59160, Control_c, 0, 64, 127
1, 59280, Tempo, 894321
1, 59280, Note_on_c, 0, 49, 0
1, 59280, Note_on_c, 0, 44, 0
1, 59280, Note_on_c, 0, 61, 34
1, 59280, Note_on_c, 0, 53, 28
1, 59280, Note_on_c, 0, 49, 28
1, 59500, Tempo, 900766
1, 59520, Note_on_c, 0, 49, 0
1, 59520, Note_on_c, 0, 53, 0
1, 59520, Note_on_c, 0, 61, 0
1, 59520, Note_on_c, 0, 44, 26
1, 59520, Note_on_c, 0, 49, 30
1, 59700, Tempo, 907167
1, 59760, Note_on_c, 0, 49, 0
1, 59760, Note_on_c, 0, 44, 0
1, 59760, Note_on_c, 0, 61, 30
1, 59760, Note_on_c, 0, 53, 25
1, 59760, Note_on_c, 0, 49, 25
1, 59880, Tempo, 913798
1, 60000, Note_on_c, 0, 49, 0
1, 60000, Note_on_c, 0, 53, 0
1, 60000, Note_on_c, 0, 61, 0
1, 60000, Note_on_c, 0, 44, 23
1, 60000, Note_on_c, 0, 49, 28
1, 60080, Tempo, 920387
1, 60240, Note_on_c, 0, 49, 0
1, 60240, Note_on_c, 0, 44, 0
1, 60240, Note_on_c, 0, 61, 28
1, 60240, Note_on_c, 0, 53, 23
1, 60240, Note_on_c, 0, 49, 23
1, 60260, Tempo, 927214
1, 60460, Tempo, 934143
1, 60480, Tempo, 916031
1, 60480, Note_on_c, 0, 49, 0
1, 60480, Note_on_c, 0, 53, 0
1, 60480, Note_on_c, 0, 61, 0
1, 60480, Note_on_c, 0, 44, 20
1, 60480, Note_on_c, 0, 49, 26
1, 60520, Control_c, 0, 64, 0
1, 60540, Tempo, 923077
1, 60560, Control_c, 0, 64, 127
1, 60600, Tempo, 930233
1, 60660, Tempo, 937500
1, 60720, Tempo, 944882
1, 60720, Note_on_c, 0, 49, 0
1, 60720, Note_on_c, 0, 44, 0
1, 60720, Note_on_c, 0, 61, 24
1, 60720, Note_on_c, 0, 53, 19
1, 60720, Note_on_c, 0, 49, 19
1, 60780, Tempo, 952381
1, 60840, Tempo, 960000
1, 60900, Tempo, 967742
1, 60960, Tempo, 1034483
1, 60960, Note_on_c, 0, 49, 0
1, 60960, Note_on_c, 0, 53, 0
1, 60960, Note_on_c, 0, 61, 0
1, 60960, Note_on_c, 0, 44, 19
1, 60960, Note_on_c, 0, 49, 23
1, 61200, Tempo, 1090909
1, 61200, Note_on_c, 0, 49, 0
1, 61200, Note_on_c, 0, 44, 0
1, 61200, Note_on_c, 0, 61, 22
1, 61200, Note_on_c, 0, 53, 18
1, 61200, Note_on_c, 0, 49, 18
1, 61440, Tempo, 846262
1, 61440, Note_on_c, 0, 49, 0
1, 61440, Note_on_c, 0, 53, 0
1, 61440, Note_on_c, 0, 61, 0
1, 61440, Note_on_c, 0, 44, 17
1, 61440, Note_on_c, 0, 49, 19
1, 61680, Note_on_c, 0, 49, 0
1, 61680, Note_on_c, 0, 44, 0
1, 63160, Marker_t, "Fine"
1, 63160, Control_c, 0, 64, 0
1, 63360, Tempo, 1008403
1, 63360, End_track
0, 0, End_of_file
