0, 0, Header, 0, 1, 480
1, 0, Start_track
1, 0, Title_t, "Chopin Mazurka Opus 7 No. 2"
1, 0, Copyright_t, "Copyright © 2003 by Bernd Krueger "
1, 0, Text_t, "Frederic Chopin"
1, 0, Text_t, "Vivo ma non troppo"
1, 0, Text_t, "Fertiggestellt am 5.7.2003\012"
1, 0, Text_t, "Update am 7.7.2010\012"
1, 0, Text_t, "Update am 11.2.1014\012"
1, 0, Text_t, "Dauer: 2:42 Minuten\012"
1, 0, SMPTE_offset, 96, 0, 3, 0, 0
1, 0, Time_signature, 3, 2, 24, 8
1, 0, Key_signature, 0, "major"
1, 0, Tempo, 416667
1, 0, Program_c, 0, 0
1, 0, Control_c, 0, 7, 100
1, 0, Control_c, 0, 10, 64
1, 0, Control_c, 0, 91, 127
1, 0, Text_t, "bdca426d104a26ac9dcb070447587523"
1, 0, Program_c, 0, 0
1, 0, Control_c, 0, 7, 100
1, 0, Control_c, 0, 10, 64
1, 0, Control_c, 0, 64, 0
1, 960, Tempo, 430108
1, 960, Note_on_c, 0, 76, 45
1, 1440, Tempo, 416667
1, 1440, Note_on_c, 0, 76, 0
1, 1440, Note_on_c, 0, 77, 46
1, 1800, Note_on_c, 0, 77, 0
1, 1800, Note_on_c, 0, 76, 45
1, 1920, Note_on_c, 0, 76, 0
1, 1920, Note_on_c, 0, 74, 45
1, 1920, Note_on_c, 0, 65, 27
1, 1920, Note_on_c, 0, 62, 22
1, 1920, Note_on_c, 0, 57, 22
1, 1984, Control_c, 0, 64, 127
1, 2160, Tempo, 425532
1, 2400, Tempo, 447761
1, 2400, Note_on_c, 0, 57, 0
1, 2400, Note_on_c, 0, 74, 0
1, 2400, Note_on_c, 0, 65, 0
1, 2400, Note_on_c, 0, 62, 0
1, 2400, Note_on_c, 0, 77, 48
1, 2400, Note_on_c, 0, 65, 27
1, 2400, Note_on_c, 0, 62, 22
1, 2400, Note_on_c, 0, 57, 22
1, 2640, Tempo, 545455
1, 2876, Note_on_c, 0, 77, 0
1, 2880, Tempo, 428571
1, 2880, Note_on_c, 0, 65, 0
1, 2880, Note_on_c, 0, 62, 0
1, 2880, Note_on_c, 0, 57, 0
1, 2880, Note_on_c, 0, 77, 47
1, 2888, Control_c, 0, 64, 0
1, 2920, Tempo, 421053
1, 3174, Control_c, 0, 64, 127
1, 3360, Note_on_c, 0, 65, 25
1, 3360, Note_on_c, 0, 60, 21
1, 3360, Note_on_c, 0, 57, 21
1, 3600, Tempo, 431655
1, 3840, Note_on_c, 0, 57, 0
1, 3840, Note_on_c, 0, 77, 0
1, 3840, Note_on_c, 0, 65, 0
1, 3840, Note_on_c, 0, 60, 0
1, 3840, Note_on_c, 0, 76, 43
1, 3840, Note_on_c, 0, 64, 25
1, 3840, Note_on_c, 0, 60, 21
1, 3840, Note_on_c, 0, 57, 21
1, 3849, Control_c, 0, 64, 0
1, 4320, Tempo, 422535
1, 4320, Note_on_c, 0, 57, 0
1, 4320, Note_on_c, 0, 76, 0
1, 4320, Note_on_c, 0, 64, 0
1, 4320, Note_on_c, 0, 60, 0
1, 4320, Note_on_c, 0, 74, 42
1, 4400, Note_on_c, 0, 74, 0
1, 4400, Note_on_c, 0, 76, 43
1, 4480, Note_on_c, 0, 76, 0
1, 4480, Note_on_c, 0, 74, 44
1, 4560, Note_on_c, 0, 74, 0
1, 4560, Note_on_c, 0, 73, 45
1, 4800, Tempo, 431655
1, 4800, Note_on_c, 0, 73, 0
1, 4800, Note_on_c, 0, 74, 47
1, 4800, Note_on_c, 0, 62, 28
1, 4800, Note_on_c, 0, 52, 23
1, 4800, Note_on_c, 0, 56, 23
1, 5040, Note_on_c, 0, 74, 0
1, 5040, Note_on_c, 0, 75, 45
1, 5280, Tempo, 442804
1, 5280, Note_on_c, 0, 75, 0
1, 5280, Note_on_c, 0, 56, 0
1, 5280, Note_on_c, 0, 52, 0
1, 5280, Note_on_c, 0, 62, 0
1, 5280, Note_on_c, 0, 76, 50
1, 5280, Note_on_c, 0, 62, 25
1, 5280, Note_on_c, 0, 56, 21
1, 5280, Note_on_c, 0, 52, 21
1, 5520, Tempo, 483871
1, 5520, Note_on_c, 0, 76, 0
1, 5520, Note_on_c, 0, 71, 50
1, 5760, Tempo, 431655
1, 5760, Note_on_c, 0, 71, 0
1, 5760, Note_on_c, 0, 52, 0
1, 5760, Note_on_c, 0, 56, 0
1, 5760, Note_on_c, 0, 62, 0
1, 5760, Note_on_c, 0, 74, 54
1, 6240, Note_on_c, 0, 45, 30
1, 6320, Control_c, 0, 64, 127
1, 6720, Note_on_c, 0, 45, 0
1, 6720, Note_on_c, 0, 74, 0
1, 6720, Note_on_c, 0, 72, 45
1, 6720, Note_on_c, 0, 60, 28
1, 6720, Note_on_c, 0, 52, 22
1, 7200, Tempo, 415225
1, 7200, Note_on_c, 0, 52, 0
1, 7200, Note_on_c, 0, 60, 0
1, 7200, Note_on_c, 0, 72, 0
1, 7200, Note_on_c, 0, 69, 62
1, 7202, Control_c, 0, 64, 0
1, 7292, Control_c, 0, 64, 127
1, 7360, Note_on_c, 0, 69, 0
1, 7360, Note_on_c, 0, 71, 57
1, 7520, Note_on_c, 0, 71, 0
1, 7520, Note_on_c, 0, 69, 57
1, 7680, Note_on_c, 0, 69, 0
1, 7680, Note_on_c, 0, 68, 63
1, 7680, Note_on_c, 0, 52, 39
1, 7680, Note_on_c, 0, 60, 46
1, 7688, Control_c, 0, 64, 0
1, 7920, Note_on_c, 0, 60, 0
1, 7920, Note_on_c, 0, 52, 0
1, 7920, Note_on_c, 0, 68, 0
1, 8160, Tempo, 415225
1, 8160, Note_on_c, 0, 69, 67
1, 8160, Note_on_c, 0, 45, 48
1, 8400, Note_on_c, 0, 45, 0
1, 8400, Note_on_c, 0, 69, 0
1, 8640, Tempo, 430108
1, 8640, Note_on_c, 0, 71, 70
1, 8880, Note_on_c, 0, 71, 0
1, 9120, Tempo, 419580
1, 9120, Note_on_c, 0, 76, 72
1, 9120, Note_on_c, 0, 52, 41
1, 9120, Note_on_c, 0, 59, 49
1, 9120, Note_on_c, 0, 55, 41
1, 9247, Control_c, 0, 64, 127
1, 9600, Tempo, 425532
1, 9600, Note_on_c, 0, 55, 0
1, 9600, Note_on_c, 0, 59, 0
1, 9600, Note_on_c, 0, 52, 0
1, 9600, Note_on_c, 0, 47, 56
1, 10080, Tempo, 418118
1, 10080, Note_on_c, 0, 47, 0
1, 10080, Note_on_c, 0, 76, 0
1, 10080, Note_on_c, 0, 71, 76
1, 10088, Control_c, 0, 64, 0
1, 10236, Control_c, 0, 64, 127
1, 10320, Note_on_c, 0, 71, 0
1, 10320, Note_on_c, 0, 67, 73
1, 10560, Note_on_c, 0, 67, 0
1, 10560, Note_on_c, 0, 64, 76
1, 10560, Note_on_c, 0, 47, 45
1, 10560, Note_on_c, 0, 55, 45
1, 10560, Note_on_c, 0, 59, 54
1, 10800, Note_on_c, 0, 64, 0
1, 10800, Note_on_c, 0, 71, 71
1, 11040, Tempo, 433213
1, 11040, Note_on_c, 0, 71, 0
1, 11040, Note_on_c, 0, 59, 0
1, 11040, Note_on_c, 0, 55, 0
1, 11040, Note_on_c, 0, 47, 0
1, 11040, Note_on_c, 0, 63, 73
1, 11040, Note_on_c, 0, 47, 41
1, 11040, Note_on_c, 0, 54, 41
1, 11040, Note_on_c, 0, 59, 49
1, 11050, Control_c, 0, 64, 0
1, 11181, Control_c, 0, 64, 127
1, 11520, Note_on_c, 0, 59, 0
1, 11520, Note_on_c, 0, 63, 0
1, 11520, Note_on_c, 0, 47, 0
1, 11520, Note_on_c, 0, 54, 0
1, 11520, Note_on_c, 0, 64, 76
1, 11520, Note_on_c, 0, 52, 45
1, 11520, Note_on_c, 0, 55, 45
1, 11520, Note_on_c, 0, 59, 54
1, 11532, Control_c, 0, 64, 0
1, 11707, Control_c, 0, 64, 127
1, 12000, Tempo, 504202
1, 12000, Note_on_c, 0, 59, 0
1, 12000, Note_on_c, 0, 55, 0
1, 12000, Note_on_c, 0, 52, 0
1, 12000, Note_on_c, 0, 40, 50
1, 12480, Tempo, 430108
1, 12480, Note_on_c, 0, 40, 0
1, 12480, Note_on_c, 0, 64, 0
1, 12480, Note_on_c, 0, 76, 45
1, 12498, Control_c, 0, 64, 0
1, 12960, Tempo, 416667
1, 12960, Note_on_c, 0, 76, 0
1, 12960, Note_on_c, 0, 77, 46
1, 13320, Note_on_c, 0, 77, 0
1, 13320, Note_on_c, 0, 76, 45
1, 13440, Tempo, 430108
1, 13440, Note_on_c, 0, 76, 0
1, 13440, Note_on_c, 0, 74, 45
1, 13440, Note_on_c, 0, 65, 27
1, 13440, Note_on_c, 0, 62, 22
1, 13440, Note_on_c, 0, 57, 22
1, 13504, Control_c, 0, 64, 127
1, 13680, Tempo, 425532
1, 13920, Tempo, 437956
1, 13920, Note_on_c, 0, 57, 0
1, 13920, Note_on_c, 0, 74, 0
1, 13920, Note_on_c, 0, 65, 0
1, 13920, Note_on_c, 0, 62, 0
1, 13920, Note_on_c, 0, 77, 48
1, 13920, Note_on_c, 0, 65, 27
1, 13920, Note_on_c, 0, 62, 22
1, 13920, Note_on_c, 0, 57, 22
1, 14160, Tempo, 591716
1, 14394, Note_on_c, 0, 77, 0
1, 14400, Tempo, 428571
1, 14400, Note_on_c, 0, 65, 0
1, 14400, Note_on_c, 0, 62, 0
1, 14400, Note_on_c, 0, 57, 0
1, 14400, Note_on_c, 0, 77, 47
1, 14400, Control_c, 0, 64, 0
1, 14440, Tempo, 421053
1, 14720, Control_c, 0, 64, 127
1, 14880, Note_on_c, 0, 65, 25
1, 14880, Note_on_c, 0, 60, 21
1, 14880, Note_on_c, 0, 57, 21
1, 15120, Tempo, 431655
1, 15360, Note_on_c, 0, 57, 0
1, 15360, Note_on_c, 0, 77, 0
1, 15360, Note_on_c, 0, 65, 0
1, 15360, Note_on_c, 0, 60, 0
1, 15360, Note_on_c, 0, 76, 43
1, 15360, Note_on_c, 0, 64, 25
1, 15360, Note_on_c, 0, 60, 21
1, 15360, Note_on_c, 0, 57, 21
1, 15378, Control_c, 0, 64, 0
1, 15840, Tempo, 422535
1, 15840, Note_on_c, 0, 57, 0
1, 15840, Note_on_c, 0, 76, 0
1, 15840, Note_on_c, 0, 64, 0
1, 15840, Note_on_c, 0, 60, 0
1, 15840, Note_on_c, 0, 74, 42
1, 15920, Note_on_c, 0, 74, 0
1, 15920, Note_on_c, 0, 76, 43
1, 16000, Note_on_c, 0, 76, 0
1, 16000, Note_on_c, 0, 74, 44
1, 16080, Note_on_c, 0, 74, 0
1, 16080, Note_on_c, 0, 73, 45
1, 16320, Tempo, 431655
1, 16320, Note_on_c, 0, 73, 0
1, 16320, Note_on_c, 0, 74, 47
1, 16320, Note_on_c, 0, 62, 28
1, 16320, Note_on_c, 0, 52, 23
1, 16320, Note_on_c, 0, 56, 23
1, 16560, Note_on_c, 0, 74, 0
1, 16560, Note_on_c, 0, 75, 45
1, 16800, Tempo, 449438
1, 16800, Note_on_c, 0, 75, 0
1, 16800, Note_on_c, 0, 56, 0
1, 16800, Note_on_c, 0, 52, 0
1, 16800, Note_on_c, 0, 62, 0
1, 16800, Note_on_c, 0, 76, 47
1, 16800, Note_on_c, 0, 62, 25
1, 16800, Note_on_c, 0, 56, 21
1, 16800, Note_on_c, 0, 52, 21
1, 17040, Tempo, 524017
1, 17040, Note_on_c, 0, 76, 0
1, 17040, Note_on_c, 0, 71, 42
1, 17154, Note_on_c, 0, 71, 0
1, 17160, Note_on_c, 0, 71, 47
1, 17280, Tempo, 422535
1, 17280, Note_on_c, 0, 71, 0
1, 17280, Note_on_c, 0, 62, 0
1, 17280, Note_on_c, 0, 56, 0
1, 17280, Note_on_c, 0, 52, 0
1, 17280, Note_on_c, 0, 74, 51
1, 17760, Tempo, 431655
1, 17760, Note_on_c, 0, 53, 21
1, 17760, Note_on_c, 0, 57, 21
1, 17760, Note_on_c, 0, 62, 28
1, 17840, Control_c, 0, 64, 127
1, 18240, Note_on_c, 0, 62, 0
1, 18240, Note_on_c, 0, 74, 0
1, 18240, Note_on_c, 0, 53, 0
1, 18240, Note_on_c, 0, 57, 0
1, 18240, Note_on_c, 0, 72, 45
1, 18240, Note_on_c, 0, 57, 21
1, 18240, Note_on_c, 0, 60, 26
1, 18240, Note_on_c, 0, 53, 21
1, 18720, Tempo, 415225
1, 18720, Note_on_c, 0, 53, 0
1, 18720, Note_on_c, 0, 72, 0
1, 18720, Note_on_c, 0, 57, 0
1, 18720, Note_on_c, 0, 60, 0
1, 18720, Note_on_c, 0, 69, 46
1, 18728, Control_c, 0, 64, 0
1, 18812, Control_c, 0, 64, 127
1, 18880, Note_on_c, 0, 69, 0
1, 18880, Note_on_c, 0, 70, 43
1, 19040, Note_on_c, 0, 70, 0
1, 19040, Note_on_c, 0, 69, 43
1, 19200, Tempo, 452830
1, 19200, Note_on_c, 0, 69, 0
1, 19200, Note_on_c, 0, 67, 47
1, 19200, Note_on_c, 0, 60, 29
1, 19200, Note_on_c, 0, 53, 29
1, 19200, Note_on_c, 0, 63, 34
1, 19208, Control_c, 0, 64, 0
1, 19680, Tempo, 481928
1, 19680, Note_on_c, 0, 63, 0
1, 19680, Note_on_c, 0, 67, 0
1, 19680, Note_on_c, 0, 60, 0
1, 19680, Note_on_c, 0, 53, 0
1, 19680, Note_on_c, 0, 69, 51
1, 19680, Note_on_c, 0, 53, 29
1, 19680, Note_on_c, 0, 60, 29
1, 19680, Note_on_c, 0, 63, 34
1, 20160, Tempo, 519481
1, 20160, Note_on_c, 0, 63, 0
1, 20160, Note_on_c, 0, 69, 0
1, 20160, Note_on_c, 0, 53, 0
1, 20160, Note_on_c, 0, 60, 0
1, 20160, Note_on_c, 0, 70, 53
1, 20160, Note_on_c, 0, 58, 34
1, 20160, Note_on_c, 0, 62, 37
1, 20320, Control_c, 0, 64, 127
1, 20640, Tempo, 481928
1, 20640, Note_on_c, 0, 62, 0
1, 20640, Note_on_c, 0, 70, 0
1, 20640, Note_on_c, 0, 74, 54
1, 20640, Note_on_c, 0, 65, 37
1, 21120, Tempo, 535714
1, 21120, Note_on_c, 0, 65, 0
1, 21120, Note_on_c, 0, 74, 0
1, 21120, Note_on_c, 0, 58, 0
1, 21141, Control_c, 0, 64, 0
1, 21600, Tempo, 427046
1, 21600, Note_on_c, 0, 69, 48
1, 21671, Control_c, 0, 64, 127
1, 21960, Note_on_c, 0, 69, 0
1, 21960, Note_on_c, 0, 68, 44
1, 22080, Tempo, 444444
1, 22080, Note_on_c, 0, 68, 0
1, 22080, Note_on_c, 0, 62, 40
1, 22080, Note_on_c, 0, 64, 48
1, 22080, Note_on_c, 0, 52, 29
1, 22080, Note_on_c, 0, 59, 35
1, 22092, Control_c, 0, 64, 0
1, 22155, Control_c, 0, 64, 127
1, 22560, Tempo, 449438
1, 22560, Note_on_c, 0, 59, 0
1, 22560, Note_on_c, 0, 62, 0
1, 22560, Note_on_c, 0, 64, 0
1, 22560, Note_on_c, 0, 52, 0
1, 22560, Note_on_c, 0, 68, 45
1, 22560, Note_on_c, 0, 62, 38
1, 22560, Note_on_c, 0, 52, 26
1, 22560, Note_on_c, 0, 59, 31
1, 22570, Control_c, 0, 64, 0
1, 22701, Control_c, 0, 64, 127
1, 23040, Note_on_c, 0, 59, 0
1, 23040, Note_on_c, 0, 68, 0
1, 23040, Note_on_c, 0, 62, 0
1, 23040, Note_on_c, 0, 52, 0
1, 23040, Note_on_c, 0, 60, 39
1, 23040, Note_on_c, 0, 69, 46
1, 23040, Note_on_c, 0, 45, 29
1, 23040, Note_on_c, 0, 52, 35
1, 23046, Control_c, 0, 64, 0
1, 23307, Control_c, 0, 64, 127
1, 23520, Tempo, 508475
1, 23520, Note_on_c, 0, 52, 0
1, 23520, Note_on_c, 0, 45, 0
1, 23520, Note_on_c, 0, 60, 0
1, 23520, Note_on_c, 0, 33, 36
1, 24000, Tempo, 430108
1, 24000, Note_on_c, 0, 33, 0
1, 24000, Note_on_c, 0, 69, 0
1, 24000, Note_on_c, 0, 76, 45
1, 24007, Control_c, 0, 64, 0
1, 24480, Tempo, 416667
1, 24480, Note_on_c, 0, 76, 0
1, 24480, Note_on_c, 0, 77, 46
1, 24840, Note_on_c, 0, 77, 0
1, 24840, Note_on_c, 0, 76, 45
1, 24960, Tempo, 430108
1, 24960, Note_on_c, 0, 76, 0
1, 24960, Note_on_c, 0, 74, 45
1, 24960, Note_on_c, 0, 65, 27
1, 24960, Note_on_c, 0, 62, 22
1, 24960, Note_on_c, 0, 57, 22
1, 25052, Control_c, 0, 64, 127
1, 25200, Tempo, 425532
1, 25440, Tempo, 447761
1, 25440, Note_on_c, 0, 57, 0
1, 25440, Note_on_c, 0, 74, 0
1, 25440, Note_on_c, 0, 65, 0
1, 25440, Note_on_c, 0, 62, 0
1, 25440, Note_on_c, 0, 77, 48
1, 25440, Note_on_c, 0, 65, 27
1, 25440, Note_on_c, 0, 62, 22
1, 25440, Note_on_c, 0, 57, 22
1, 25680, Tempo, 606061
1, 25920, Tempo, 428571
1, 25920, Note_on_c, 0, 57, 0
1, 25920, Note_on_c, 0, 77, 0
1, 25920, Note_on_c, 0, 65, 0
1, 25920, Note_on_c, 0, 62, 0
1, 25920, Note_on_c, 0, 77, 47
1, 25925, Control_c, 0, 64, 0
1, 25960, Tempo, 421053
1, 26267, Control_c, 0, 64, 127
1, 26400, Note_on_c, 0, 65, 25
1, 26400, Note_on_c, 0, 60, 21
1, 26400, Note_on_c, 0, 57, 21
1, 26640, Tempo, 431655
1, 26880, Note_on_c, 0, 57, 0
1, 26880, Note_on_c, 0, 77, 0
1, 26880, Note_on_c, 0, 65, 0
1, 26880, Note_on_c, 0, 60, 0
1, 26880, Note_on_c, 0, 76, 43
1, 26880, Note_on_c, 0, 64, 25
1, 26880, Note_on_c, 0, 60, 21
1, 26880, Note_on_c, 0, 57, 21
1, 26887, Control_c, 0, 64, 0
1, 27360, Tempo, 422535
1, 27360, Note_on_c, 0, 57, 0
1, 27360, Note_on_c, 0, 76, 0
1, 27360, Note_on_c, 0, 64, 0
1, 27360, Note_on_c, 0, 60, 0
1, 27360, Note_on_c, 0, 74, 42
1, 27440, Note_on_c, 0, 74, 0
1, 27440, Note_on_c, 0, 76, 43
1, 27520, Note_on_c, 0, 76, 0
1, 27520, Note_on_c, 0, 74, 44
1, 27600, Note_on_c, 0, 74, 0
1, 27600, Note_on_c, 0, 73, 45
1, 27840, Tempo, 431655
1, 27840, Note_on_c, 0, 73, 0
1, 27840, Note_on_c, 0, 74, 47
1, 27840, Note_on_c, 0, 62, 28
1, 27840, Note_on_c, 0, 52, 23
1, 27840, Note_on_c, 0, 56, 23
1, 28080, Note_on_c, 0, 74, 0
1, 28080, Note_on_c, 0, 75, 45
1, 28320, Tempo, 442804
1, 28320, Note_on_c, 0, 75, 0
1, 28320, Note_on_c, 0, 56, 0
1, 28320, Note_on_c, 0, 52, 0
1, 28320, Note_on_c, 0, 62, 0
1, 28320, Note_on_c, 0, 76, 53
1, 28320, Note_on_c, 0, 62, 25
1, 28320, Note_on_c, 0, 56, 21
1, 28320, Note_on_c, 0, 52, 21
1, 28560, Tempo, 483871
1, 28560, Note_on_c, 0, 76, 0
1, 28560, Note_on_c, 0, 71, 48
1, 28800, Tempo, 431655
1, 28800, Note_on_c, 0, 71, 0
1, 28800, Note_on_c, 0, 52, 0
1, 28800, Note_on_c, 0, 56, 0
1, 28800, Note_on_c, 0, 62, 0
1, 28800, Note_on_c, 0, 74, 58
1, 29280, Note_on_c, 0, 45, 30
1, 29360, Control_c, 0, 64, 127
1, 29760, Note_on_c, 0, 45, 0
1, 29760, Note_on_c, 0, 74, 0
1, 29760, Note_on_c, 0, 72, 45
1, 29760, Note_on_c, 0, 60, 28
1, 29760, Note_on_c, 0, 52, 22
1, 30240, Tempo, 415225
1, 30240, Note_on_c, 0, 52, 0
1, 30240, Note_on_c, 0, 60, 0
1, 30240, Note_on_c, 0, 72, 0
1, 30240, Note_on_c, 0, 69, 62
1, 30247, Control_c, 0, 64, 0
1, 30332, Control_c, 0, 64, 127
1, 30400, Note_on_c, 0, 69, 0
1, 30400, Note_on_c, 0, 71, 57
1, 30560, Note_on_c, 0, 71, 0
1, 30560, Note_on_c, 0, 69, 57
1, 30720, Note_on_c, 0, 69, 0
1, 30720, Note_on_c, 0, 68, 63
1, 30720, Note_on_c, 0, 52, 39
1, 30720, Note_on_c, 0, 60, 46
1, 30729, Control_c, 0, 64, 0
1, 30960, Note_on_c, 0, 60, 0
1, 30960, Note_on_c, 0, 52, 0
1, 30960, Note_on_c, 0, 68, 0
1, 31200, Tempo, 415225
1, 31200, Note_on_c, 0, 69, 67
1, 31200, Note_on_c, 0, 45, 48
1, 31440, Note_on_c, 0, 45, 0
1, 31440, Note_on_c, 0, 69, 0
1, 31680, Tempo, 430108
1, 31680, Note_on_c, 0, 71, 70
1, 31920, Note_on_c, 0, 71, 0
1, 32160, Tempo, 419580
1, 32160, Note_on_c, 0, 76, 72
1, 32160, Note_on_c, 0, 52, 41
1, 32160, Note_on_c, 0, 59, 49
1, 32160, Note_on_c, 0, 55, 41
1, 32287, Control_c, 0, 64, 127
1, 32640, Tempo, 425532
1, 32640, Note_on_c, 0, 55, 0
1, 32640, Note_on_c, 0, 59, 0
1, 32640, Note_on_c, 0, 52, 0
1, 32640, Note_on_c, 0, 47, 56
1, 33120, Tempo, 418118
1, 33120, Note_on_c, 0, 47, 0
1, 33120, Note_on_c, 0, 76, 0
1, 33120, Note_on_c, 0, 71, 76
1, 33125, Control_c, 0, 64, 0
1, 33276, Control_c, 0, 64, 127
1, 33360, Note_on_c, 0, 71, 0
1, 33360, Note_on_c, 0, 67, 73
1, 33600, Note_on_c, 0, 67, 0
1, 33600, Note_on_c, 0, 64, 76
1, 33600, Note_on_c, 0, 47, 45
1, 33600, Note_on_c, 0, 55, 45
1, 33600, Note_on_c, 0, 59, 54
1, 33840, Note_on_c, 0, 64, 0
1, 33840, Note_on_c, 0, 71, 71
1, 34080, Tempo, 433213
1, 34080, Note_on_c, 0, 71, 0
1, 34080, Note_on_c, 0, 59, 0
1, 34080, Note_on_c, 0, 55, 0
1, 34080, Note_on_c, 0, 47, 0
1, 34080, Note_on_c, 0, 63, 73
1, 34080, Note_on_c, 0, 47, 41
1, 34080, Note_on_c, 0, 54, 41
1, 34080, Note_on_c, 0, 59, 49
1, 34091, Control_c, 0, 64, 0
1, 34221, Control_c, 0, 64, 127
1, 34560, Note_on_c, 0, 59, 0
1, 34560, Note_on_c, 0, 63, 0
1, 34560, Note_on_c, 0, 47, 0
1, 34560, Note_on_c, 0, 54, 0
1, 34560, Note_on_c, 0, 64, 76
1, 34560, Note_on_c, 0, 52, 45
1, 34560, Note_on_c, 0, 55, 45
1, 34560, Note_on_c, 0, 59, 54
1, 34568, Control_c, 0, 64, 0
1, 34854, Control_c, 0, 64, 127
1, 35040, Tempo, 490998
1, 35040, Note_on_c, 0, 59, 0
1, 35040, Note_on_c, 0, 55, 0
1, 35040, Note_on_c, 0, 52, 0
1, 35040, Note_on_c, 0, 40, 50
1, 35520, Tempo, 430108
1, 35520, Note_on_c, 0, 40, 0
1, 35520, Note_on_c, 0, 64, 0
1, 35520, Note_on_c, 0, 76, 45
1, 35534, Control_c, 0, 64, 0
1, 36000, Tempo, 416667
1, 36000, Note_on_c, 0, 76, 0
1, 36000, Note_on_c, 0, 77, 46
1, 36360, Note_on_c, 0, 77, 0
1, 36360, Note_on_c, 0, 76, 45
1, 36480, Tempo, 430108
1, 36480, Note_on_c, 0, 76, 0
1, 36480, Note_on_c, 0, 74, 45
1, 36480, Note_on_c, 0, 65, 27
1, 36480, Note_on_c, 0, 62, 22
1, 36480, Note_on_c, 0, 57, 22
1, 36572, Control_c, 0, 64, 127
1, 36720, Tempo, 425532
1, 36960, Tempo, 437956
1, 36960, Note_on_c, 0, 57, 0
1, 36960, Note_on_c, 0, 74, 0
1, 36960, Note_on_c, 0, 65, 0
1, 36960, Note_on_c, 0, 62, 0
1, 36960, Note_on_c, 0, 77, 48
1, 36960, Note_on_c, 0, 65, 27
1, 36960, Note_on_c, 0, 62, 22
1, 36960, Note_on_c, 0, 57, 22
1, 37200, Tempo, 489796
1, 37440, Tempo, 428571
1, 37440, Note_on_c, 0, 57, 0
1, 37440, Note_on_c, 0, 77, 0
1, 37440, Note_on_c, 0, 65, 0
1, 37440, Note_on_c, 0, 62, 0
1, 37440, Note_on_c, 0, 77, 47
1, 37450, Control_c, 0, 64, 0
1, 37480, Tempo, 421053
1, 37707, Control_c, 0, 64, 127
1, 37920, Note_on_c, 0, 65, 25
1, 37920, Note_on_c, 0, 60, 21
1, 37920, Note_on_c, 0, 57, 21
1, 38160, Tempo, 431655
1, 38400, Note_on_c, 0, 57, 0
1, 38400, Note_on_c, 0, 77, 0
1, 38400, Note_on_c, 0, 65, 0
1, 38400, Note_on_c, 0, 60, 0
1, 38400, Note_on_c, 0, 76, 43
1, 38400, Note_on_c, 0, 64, 25
1, 38400, Note_on_c, 0, 60, 21
1, 38400, Note_on_c, 0, 57, 21
1, 38410, Control_c, 0, 64, 0
1, 38880, Tempo, 422535
1, 38880, Note_on_c, 0, 57, 0
1, 38880, Note_on_c, 0, 76, 0
1, 38880, Note_on_c, 0, 64, 0
1, 38880, Note_on_c, 0, 60, 0
1, 38880, Note_on_c, 0, 74, 42
1, 38960, Note_on_c, 0, 74, 0
1, 38960, Note_on_c, 0, 76, 43
1, 39040, Note_on_c, 0, 76, 0
1, 39040, Note_on_c, 0, 74, 44
1, 39120, Note_on_c, 0, 74, 0
1, 39120, Note_on_c, 0, 73, 45
1, 39360, Tempo, 431655
1, 39360, Note_on_c, 0, 73, 0
1, 39360, Note_on_c, 0, 74, 47
1, 39360, Note_on_c, 0, 62, 28
1, 39360, Note_on_c, 0, 52, 23
1, 39360, Note_on_c, 0, 56, 23
1, 39600, Note_on_c, 0, 74, 0
1, 39600, Note_on_c, 0, 75, 45
1, 39840, Tempo, 449438
1, 39840, Note_on_c, 0, 75, 0
1, 39840, Note_on_c, 0, 56, 0
1, 39840, Note_on_c, 0, 52, 0
1, 39840, Note_on_c, 0, 62, 0
1, 39840, Note_on_c, 0, 76, 47
1, 39840, Note_on_c, 0, 62, 25
1, 39840, Note_on_c, 0, 56, 21
1, 39840, Note_on_c, 0, 52, 21
1, 40080, Tempo, 552995
1, 40080, Note_on_c, 0, 76, 0
1, 40080, Note_on_c, 0, 71, 42
1, 40194, Note_on_c, 0, 71, 0
1, 40200, Note_on_c, 0, 71, 42
1, 40320, Tempo, 422535
1, 40320, Note_on_c, 0, 71, 0
1, 40320, Note_on_c, 0, 62, 0
1, 40320, Note_on_c, 0, 56, 0
1, 40320, Note_on_c, 0, 52, 0
1, 40320, Note_on_c, 0, 74, 46
1, 40800, Tempo, 431655
1, 40800, Note_on_c, 0, 53, 21
1, 40800, Note_on_c, 0, 57, 21
1, 40800, Note_on_c, 0, 62, 28
1, 40880, Control_c, 0, 64, 127
1, 41280, Note_on_c, 0, 62, 0
1, 41280, Note_on_c, 0, 74, 0
1, 41280, Note_on_c, 0, 53, 0
1, 41280, Note_on_c, 0, 57, 0
1, 41280, Note_on_c, 0, 72, 45
1, 41280, Note_on_c, 0, 57, 21
1, 41280, Note_on_c, 0, 60, 26
1, 41280, Note_on_c, 0, 53, 21
1, 41760, Tempo, 415225
1, 41760, Note_on_c, 0, 53, 0
1, 41760, Note_on_c, 0, 72, 0
1, 41760, Note_on_c, 0, 57, 0
1, 41760, Note_on_c, 0, 60, 0
1, 41760, Note_on_c, 0, 69, 46
1, 41768, Control_c, 0, 64, 0
1, 41852, Control_c, 0, 64, 127
1, 41920, Note_on_c, 0, 69, 0
1, 41920, Note_on_c, 0, 70, 43
1, 42080, Note_on_c, 0, 70, 0
1, 42080, Note_on_c, 0, 69, 43
1, 42240, Tempo, 452830
1, 42240, Note_on_c, 0, 69, 0
1, 42240, Note_on_c, 0, 67, 47
1, 42240, Note_on_c, 0, 60, 29
1, 42240, Note_on_c, 0, 53, 29
1, 42240, Note_on_c, 0, 63, 34
1, 42257, Control_c, 0, 64, 0
1, 42720, Tempo, 476190
1, 42720, Note_on_c, 0, 63, 0
1, 42720, Note_on_c, 0, 67, 0
1, 42720, Note_on_c, 0, 60, 0
1, 42720, Note_on_c, 0, 53, 0
1, 42720, Note_on_c, 0, 69, 54
1, 42720, Note_on_c, 0, 53, 29
1, 42720, Note_on_c, 0, 60, 29
1, 42720, Note_on_c, 0, 63, 34
1, 43200, Tempo, 517241
1, 43200, Note_on_c, 0, 63, 0
1, 43200, Note_on_c, 0, 69, 0
1, 43200, Note_on_c, 0, 53, 0
1, 43200, Note_on_c, 0, 60, 0
1, 43200, Note_on_c, 0, 70, 62
1, 43200, Note_on_c, 0, 58, 34
1, 43200, Note_on_c, 0, 62, 37
1, 43360, Control_c, 0, 64, 127
1, 43680, Tempo, 481928
1, 43680, Note_on_c, 0, 62, 0
1, 43680, Note_on_c, 0, 70, 0
1, 43680, Note_on_c, 0, 74, 59
1, 43680, Note_on_c, 0, 65, 37
1, 44160, Tempo, 535714
1, 44160, Note_on_c, 0, 65, 0
1, 44160, Note_on_c, 0, 74, 0
1, 44160, Note_on_c, 0, 58, 0
1, 44176, Control_c, 0, 64, 0
1, 44640, Tempo, 427046
1, 44640, Note_on_c, 0, 69, 48
1, 44711, Control_c, 0, 64, 127
1, 45000, Note_on_c, 0, 69, 0
1, 45000, Note_on_c, 0, 68, 44
1, 45120, Tempo, 444444
1, 45120, Note_on_c, 0, 68, 0
1, 45120, Note_on_c, 0, 62, 40
1, 45120, Note_on_c, 0, 64, 48
1, 45120, Note_on_c, 0, 52, 29
1, 45120, Note_on_c, 0, 59, 35
1, 45132, Control_c, 0, 64, 0
1, 45223, Control_c, 0, 64, 127
1, 45600, Tempo, 449438
1, 45600, Note_on_c, 0, 59, 0
1, 45600, Note_on_c, 0, 62, 0
1, 45600, Note_on_c, 0, 64, 0
1, 45600, Note_on_c, 0, 52, 0
1, 45600, Note_on_c, 0, 68, 45
1, 45600, Note_on_c, 0, 62, 38
1, 45600, Note_on_c, 0, 52, 26
1, 45600, Note_on_c, 0, 59, 31
1, 45604, Control_c, 0, 64, 0
1, 45741, Control_c, 0, 64, 127
1, 46080, Note_on_c, 0, 59, 0
1, 46080, Note_on_c, 0, 68, 0
1, 46080, Note_on_c, 0, 62, 0
1, 46080, Note_on_c, 0, 52, 0
1, 46080, Note_on_c, 0, 60, 39
1, 46080, Note_on_c, 0, 69, 46
1, 46080, Note_on_c, 0, 45, 29
1, 46080, Note_on_c, 0, 52, 35
1, 46097, Control_c, 0, 64, 0
1, 46267, Control_c, 0, 64, 127
1, 46560, Tempo, 560748
1, 46560, Note_on_c, 0, 52, 0
1, 46560, Note_on_c, 0, 45, 0
1, 46560, Note_on_c, 0, 60, 0
1, 46560, Note_on_c, 0, 33, 30
1, 47040, Tempo, 444444
1, 47040, Note_on_c, 0, 33, 0
1, 47040, Note_on_c, 0, 69, 0
1, 47040, Note_on_c, 0, 71, 51
1, 47054, Control_c, 0, 64, 0
1, 47520, Tempo, 439560
1, 47520, Note_on_c, 0, 71, 0
1, 47520, Note_on_c, 0, 72, 52
1, 47760, Note_on_c, 0, 72, 0
1, 47760, Note_on_c, 0, 74, 53
1, 48000, Tempo, 439560
1, 48000, Note_on_c, 0, 74, 0
1, 48000, Note_on_c, 0, 75, 55
1, 48000, Note_on_c, 0, 66, 32
1, 48000, Note_on_c, 0, 60, 27
1, 48000, Note_on_c, 0, 56, 27
1, 48106, Control_c, 0, 64, 127
1, 48240, Tempo, 425532
1, 48475, Note_on_c, 0, 75, 0
1, 48480, Tempo, 436364
1, 48480, Note_on_c, 0, 66, 0
1, 48480, Note_on_c, 0, 60, 0
1, 48480, Note_on_c, 0, 56, 0
1, 48480, Note_on_c, 0, 75, 60
1, 48480, Note_on_c, 0, 66, 32
1, 48480, Note_on_c, 0, 60, 27
1, 48480, Note_on_c, 0, 56, 27
1, 48720, Tempo, 463320
1, 48840, Note_on_c, 0, 75, 0
1, 48840, Note_on_c, 0, 77, 55
1, 48960, Tempo, 428571
1, 48960, Note_on_c, 0, 77, 0
1, 48960, Note_on_c, 0, 56, 0
1, 48960, Note_on_c, 0, 60, 0
1, 48960, Note_on_c, 0, 66, 0
1, 48960, Note_on_c, 0, 75, 62
1, 48967, Control_c, 0, 64, 0
1, 49189, Control_c, 0, 64, 127
1, 49440, Tempo, 416667
1, 49440, Note_on_c, 0, 66, 33
1, 49440, Note_on_c, 0, 60, 27
1, 49440, Note_on_c, 0, 55, 27
1, 49680, Tempo, 431655
1, 49920, Note_on_c, 0, 55, 0
1, 49920, Note_on_c, 0, 75, 0
1, 49920, Note_on_c, 0, 66, 0
1, 49920, Note_on_c, 0, 60, 0
1, 49920, Note_on_c, 0, 74, 54
1, 49920, Note_on_c, 0, 67, 33
1, 49920, Note_on_c, 0, 59, 27
1, 49920, Note_on_c, 0, 55, 27
1, 49924, Control_c, 0, 64, 0
1, 50400, Tempo, 439560
1, 50400, Note_on_c, 0, 55, 0
1, 50400, Note_on_c, 0, 74, 0
1, 50400, Note_on_c, 0, 67, 0
1, 50400, Note_on_c, 0, 59, 0
1, 50400, Note_on_c, 0, 72, 52
1, 50640, Note_on_c, 0, 72, 0
1, 50640, Note_on_c, 0, 74, 54
1, 50880, Tempo, 439560
1, 50880, Note_on_c, 0, 74, 0
1, 50880, Note_on_c, 0, 75, 57
1, 50880, Note_on_c, 0, 66, 36
1, 50880, Note_on_c, 0, 60, 30
1, 50880, Note_on_c, 0, 56, 30
1, 50986, Control_c, 0, 64, 127
1, 51120, Tempo, 425532
1, 51356, Note_on_c, 0, 75, 0
1, 51360, Tempo, 436364
1, 51360, Note_on_c, 0, 66, 0
1, 51360, Note_on_c, 0, 60, 0
1, 51360, Note_on_c, 0, 56, 0
1, 51360, Note_on_c, 0, 75, 66
1, 51360, Note_on_c, 0, 66, 38
1, 51360, Note_on_c, 0, 60, 31
1, 51360, Note_on_c, 0, 56, 31
1, 51600, Tempo, 463320
1, 51720, Note_on_c, 0, 75, 0
1, 51720, Note_on_c, 0, 77, 62
1, 51840, Tempo, 431655
1, 51840, Note_on_c, 0, 77, 0
1, 51840, Note_on_c, 0, 56, 0
1, 51840, Note_on_c, 0, 60, 0
1, 51840, Note_on_c, 0, 66, 0
1, 51840, Note_on_c, 0, 75, 76
1, 51847, Control_c, 0, 64, 0
1, 52039, Control_c, 0, 64, 127
1, 52320, Tempo, 416667
1, 52320, Note_on_c, 0, 65, 48
1, 52320, Note_on_c, 0, 59, 40
1, 52320, Note_on_c, 0, 56, 40
1, 52560, Tempo, 431655
1, 52800, Tempo, 439560
1, 52800, Note_on_c, 0, 56, 0
1, 52800, Note_on_c, 0, 75, 0
1, 52800, Note_on_c, 0, 65, 0
1, 52800, Note_on_c, 0, 59, 0
1, 52800, Note_on_c, 0, 74, 67
1, 52800, Note_on_c, 0, 65, 48
1, 52800, Note_on_c, 0, 58, 40
1, 52800, Note_on_c, 0, 56, 40
1, 52810, Control_c, 0, 64, 0
1, 53280, Tempo, 419580
1, 53280, Note_on_c, 0, 56, 0
1, 53280, Note_on_c, 0, 74, 0
1, 53280, Note_on_c, 0, 65, 0
1, 53280, Note_on_c, 0, 58, 0
1, 53280, Note_on_c, 0, 82, 86
1, 53417, Control_c, 0, 64, 127
1, 53760, Tempo, 401606
1, 53760, Note_on_c, 0, 65, 59
1, 53760, Note_on_c, 0, 58, 48
1, 53760, Note_on_c, 0, 55, 48
1, 54000, Tempo, 431655
1, 54240, Tempo, 436364
1, 54240, Note_on_c, 0, 55, 0
1, 54240, Note_on_c, 0, 82, 0
1, 54240, Note_on_c, 0, 65, 0
1, 54240, Note_on_c, 0, 58, 0
1, 54240, Note_on_c, 0, 73, 66
1, 54240, Note_on_c, 0, 64, 55
1, 54240, Note_on_c, 0, 58, 46
1, 54240, Note_on_c, 0, 55, 46
1, 54252, Control_c, 0, 64, 0
1, 54720, Tempo, 422535
1, 54720, Note_on_c, 0, 55, 0
1, 54720, Note_on_c, 0, 73, 0
1, 54720, Note_on_c, 0, 64, 0
1, 54720, Note_on_c, 0, 58, 0
1, 54720, Note_on_c, 0, 81, 76
1, 54857, Control_c, 0, 64, 127
1, 55200, Tempo, 408163
1, 55200, Note_on_c, 0, 64, 54
1, 55200, Note_on_c, 0, 57, 42
1, 55200, Note_on_c, 0, 55, 42
1, 55440, Tempo, 431655
1, 55680, Tempo, 437956
1, 55680, Note_on_c, 0, 55, 0
1, 55680, Note_on_c, 0, 81, 0
1, 55680, Note_on_c, 0, 64, 0
1, 55680, Note_on_c, 0, 57, 0
1, 55680, Note_on_c, 0, 72, 62
1, 55680, Note_on_c, 0, 63, 48
1, 55680, Note_on_c, 0, 57, 40
1, 55680, Note_on_c, 0, 54, 40
1, 55691, Control_c, 0, 64, 0
1, 56160, Tempo, 424028
1, 56160, Note_on_c, 0, 54, 0
1, 56160, Note_on_c, 0, 72, 0
1, 56160, Note_on_c, 0, 63, 0
1, 56160, Note_on_c, 0, 57, 0
1, 56160, Note_on_c, 0, 80, 76
1, 56412, Control_c, 0, 64, 127
1, 56640, Tempo, 412655
1, 56640, Note_on_c, 0, 63, 44
1, 56640, Note_on_c, 0, 56, 35
1, 56640, Note_on_c, 0, 53, 35
1, 56880, Tempo, 431655
1, 57120, Tempo, 436364
1, 57120, Note_on_c, 0, 53, 0
1, 57120, Note_on_c, 0, 80, 0
1, 57120, Note_on_c, 0, 63, 0
1, 57120, Note_on_c, 0, 56, 0
1, 57120, Note_on_c, 0, 71, 56
1, 57120, Note_on_c, 0, 62, 39
1, 57120, Note_on_c, 0, 56, 32
1, 57120, Note_on_c, 0, 53, 32
1, 57128, Control_c, 0, 64, 0
1, 57600, Tempo, 428571
1, 57600, Note_on_c, 0, 53, 0
1, 57600, Note_on_c, 0, 71, 0
1, 57600, Note_on_c, 0, 62, 0
1, 57600, Note_on_c, 0, 56, 0
1, 57600, Note_on_c, 0, 79, 67
1, 57640, Tempo, 436364
1, 57737, Control_c, 0, 64, 127
1, 58080, Tempo, 431655
1, 58080, Note_on_c, 0, 62, 36
1, 58080, Note_on_c, 0, 55, 29
1, 58080, Note_on_c, 0, 52, 29
1, 58320, Tempo, 444444
1, 58320, Note_on_c, 0, 79, 0
1, 58320, Note_on_c, 0, 70, 54
1, 58560, Tempo, 454545
1, 58560, Note_on_c, 0, 70, 0
1, 58560, Note_on_c, 0, 52, 0
1, 58560, Note_on_c, 0, 55, 0
1, 58560, Note_on_c, 0, 62, 0
1, 58560, Note_on_c, 0, 69, 45
1, 58560, Note_on_c, 0, 61, 28
1, 58560, Note_on_c, 0, 55, 22
1, 58560, Note_on_c, 0, 52, 22
1, 58563, Control_c, 0, 64, 0
1, 58800, Tempo, 458015
1, 58800, Note_on_c, 0, 69, 0
1, 58800, Note_on_c, 0, 76, 45
1, 59040, Tempo, 427046
1, 59040, Note_on_c, 0, 76, 0
1, 59040, Note_on_c, 0, 52, 0
1, 59040, Note_on_c, 0, 55, 0
1, 59040, Note_on_c, 0, 61, 0
1, 59040, Note_on_c, 0, 77, 46
1, 59040, Note_on_c, 0, 50, 22
1, 59040, Note_on_c, 0, 53, 22
1, 59040, Note_on_c, 0, 62, 28
1, 59280, Note_on_c, 0, 77, 0
1, 59280, Note_on_c, 0, 76, 45
1, 59520, Tempo, 437956
1, 59520, Note_on_c, 0, 76, 0
1, 59520, Note_on_c, 0, 62, 0
1, 59520, Note_on_c, 0, 53, 0
1, 59520, Note_on_c, 0, 50, 0
1, 59520, Note_on_c, 0, 74, 45
1, 59520, Note_on_c, 0, 65, 27
1, 59520, Note_on_c, 0, 62, 22
1, 59520, Note_on_c, 0, 57, 22
1, 59718, Control_c, 0, 64, 127
1, 59760, Tempo, 425532
1, 60000, Tempo, 437956
1, 60000, Note_on_c, 0, 57, 0
1, 60000, Note_on_c, 0, 74, 0
1, 60000, Note_on_c, 0, 65, 0
1, 60000, Note_on_c, 0, 62, 0
1, 60000, Note_on_c, 0, 77, 48
1, 60000, Note_on_c, 0, 65, 27
1, 60000, Note_on_c, 0, 62, 22
1, 60000, Note_on_c, 0, 57, 22
1, 60240, Tempo, 569260
1, 60480, Tempo, 428571
1, 60480, Note_on_c, 0, 57, 0
1, 60480, Note_on_c, 0, 77, 0
1, 60480, Note_on_c, 0, 65, 0
1, 60480, Note_on_c, 0, 62, 0
1, 60480, Note_on_c, 0, 77, 47
1, 60486, Control_c, 0, 64, 0
1, 60520, Tempo, 421053
1, 60774, Control_c, 0, 64, 127
1, 60960, Note_on_c, 0, 65, 25
1, 60960, Note_on_c, 0, 60, 21
1, 60960, Note_on_c, 0, 57, 21
1, 61200, Tempo, 431655
1, 61440, Note_on_c, 0, 57, 0
1, 61440, Note_on_c, 0, 77, 0
1, 61440, Note_on_c, 0, 65, 0
1, 61440, Note_on_c, 0, 60, 0
1, 61440, Note_on_c, 0, 76, 43
1, 61440, Note_on_c, 0, 64, 25
1, 61440, Note_on_c, 0, 60, 21
1, 61440, Note_on_c, 0, 57, 21
1, 61450, Control_c, 0, 64, 0
1, 61920, Tempo, 422535
1, 61920, Note_on_c, 0, 57, 0
1, 61920, Note_on_c, 0, 76, 0
1, 61920, Note_on_c, 0, 64, 0
1, 61920, Note_on_c, 0, 60, 0
1, 61920, Note_on_c, 0, 74, 42
1, 62000, Note_on_c, 0, 74, 0
1, 62000, Note_on_c, 0, 76, 43
1, 62080, Note_on_c, 0, 76, 0
1, 62080, Note_on_c, 0, 74, 44
1, 62160, Note_on_c, 0, 74, 0
1, 62160, Note_on_c, 0, 73, 45
1, 62400, Tempo, 431655
1, 62400, Note_on_c, 0, 73, 0
1, 62400, Note_on_c, 0, 74, 47
1, 62400, Note_on_c, 0, 62, 28
1, 62400, Note_on_c, 0, 52, 23
1, 62400, Note_on_c, 0, 56, 23
1, 62640, Note_on_c, 0, 74, 0
1, 62640, Note_on_c, 0, 75, 45
1, 62880, Tempo, 449438
1, 62880, Note_on_c, 0, 75, 0
1, 62880, Note_on_c, 0, 56, 0
1, 62880, Note_on_c, 0, 52, 0
1, 62880, Note_on_c, 0, 62, 0
1, 62880, Note_on_c, 0, 76, 49
1, 62880, Note_on_c, 0, 62, 25
1, 62880, Note_on_c, 0, 56, 21
1, 62880, Note_on_c, 0, 52, 21
1, 63120, Tempo, 502092
1, 63120, Note_on_c, 0, 76, 0
1, 63120, Note_on_c, 0, 71, 46
1, 63360, Tempo, 422535
1, 63360, Note_on_c, 0, 71, 0
1, 63360, Note_on_c, 0, 52, 0
1, 63360, Note_on_c, 0, 56, 0
1, 63360, Note_on_c, 0, 62, 0
1, 63360, Note_on_c, 0, 74, 55
1, 63840, Tempo, 431655
1, 63840, Note_on_c, 0, 53, 21
1, 63840, Note_on_c, 0, 57, 21
1, 63840, Note_on_c, 0, 62, 28
1, 63920, Control_c, 0, 64, 127
1, 64320, Note_on_c, 0, 62, 0
1, 64320, Note_on_c, 0, 74, 0
1, 64320, Note_on_c, 0, 53, 0
1, 64320, Note_on_c, 0, 57, 0
1, 64320, Note_on_c, 0, 72, 45
1, 64320, Note_on_c, 0, 57, 21
1, 64320, Note_on_c, 0, 60, 26
1, 64320, Note_on_c, 0, 53, 21
1, 64800, Tempo, 415225
1, 64800, Note_on_c, 0, 53, 0
1, 64800, Note_on_c, 0, 72, 0
1, 64800, Note_on_c, 0, 57, 0
1, 64800, Note_on_c, 0, 60, 0
1, 64800, Note_on_c, 0, 69, 46
1, 64806, Control_c, 0, 64, 0
1, 64892, Control_c, 0, 64, 127
1, 64960, Note_on_c, 0, 69, 0
1, 64960, Note_on_c, 0, 70, 43
1, 65120, Note_on_c, 0, 70, 0
1, 65120, Note_on_c, 0, 69, 43
1, 65280, Tempo, 456274
1, 65280, Note_on_c, 0, 69, 0
1, 65280, Note_on_c, 0, 67, 47
1, 65280, Note_on_c, 0, 60, 29
1, 65280, Note_on_c, 0, 53, 29
1, 65280, Note_on_c, 0, 63, 34
1, 65291, Control_c, 0, 64, 0
1, 65320, Tempo, 454545
1, 65760, Tempo, 481928
1, 65760, Note_on_c, 0, 63, 0
1, 65760, Note_on_c, 0, 67, 0
1, 65760, Note_on_c, 0, 60, 0
1, 65760, Note_on_c, 0, 53, 0
1, 65760, Note_on_c, 0, 69, 51
1, 65760, Note_on_c, 0, 53, 29
1, 65760, Note_on_c, 0, 60, 29
1, 65760, Note_on_c, 0, 63, 34
1, 66240, Tempo, 528634
1, 66240, Note_on_c, 0, 63, 0
1, 66240, Note_on_c, 0, 69, 0
1, 66240, Note_on_c, 0, 53, 0
1, 66240, Note_on_c, 0, 60, 0
1, 66240, Note_on_c, 0, 70, 53
1, 66240, Note_on_c, 0, 58, 34
1, 66240, Note_on_c, 0, 62, 37
1, 66400, Control_c, 0, 64, 127
1, 66720, Tempo, 481928
1, 66720, Note_on_c, 0, 62, 0
1, 66720, Note_on_c, 0, 70, 0
1, 66720, Note_on_c, 0, 74, 54
1, 66720, Note_on_c, 0, 65, 37
1, 67200, Tempo, 535714
1, 67200, Note_on_c, 0, 65, 0
1, 67200, Note_on_c, 0, 74, 0
1, 67200, Note_on_c, 0, 58, 0
1, 67213, Control_c, 0, 64, 0
1, 67680, Tempo, 427046
1, 67680, Note_on_c, 0, 69, 48
1, 67751, Control_c, 0, 64, 127
1, 68040, Note_on_c, 0, 69, 0
1, 68040, Note_on_c, 0, 68, 44
1, 68160, Tempo, 444444
1, 68160, Note_on_c, 0, 68, 0
1, 68160, Note_on_c, 0, 62, 40
1, 68160, Note_on_c, 0, 64, 48
1, 68160, Note_on_c, 0, 52, 29
1, 68160, Note_on_c, 0, 59, 35
1, 68170, Control_c, 0, 64, 0
1, 68275, Control_c, 0, 64, 127
1, 68640, Tempo, 449438
1, 68640, Note_on_c, 0, 59, 0
1, 68640, Note_on_c, 0, 62, 0
1, 68640, Note_on_c, 0, 64, 0
1, 68640, Note_on_c, 0, 52, 0
1, 68640, Note_on_c, 0, 68, 45
1, 68640, Note_on_c, 0, 62, 38
1, 68640, Note_on_c, 0, 52, 26
1, 68640, Note_on_c, 0, 59, 31
1, 68650, Control_c, 0, 64, 0
1, 68781, Control_c, 0, 64, 127
1, 69120, Note_on_c, 0, 59, 0
1, 69120, Note_on_c, 0, 68, 0
1, 69120, Note_on_c, 0, 62, 0
1, 69120, Note_on_c, 0, 52, 0
1, 69120, Note_on_c, 0, 60, 39
1, 69120, Note_on_c, 0, 69, 46
1, 69120, Control_c, 0, 64, 0
1, 69120, Note_on_c, 0, 45, 29
1, 69120, Note_on_c, 0, 52, 35
1, 69360, Control_c, 0, 64, 127
1, 69600, Tempo, 573614
1, 69600, Note_on_c, 0, 52, 0
1, 69600, Note_on_c, 0, 45, 0
1, 69600, Note_on_c, 0, 60, 0
1, 69600, Note_on_c, 0, 33, 30
1, 70080, Tempo, 444444
1, 70080, Note_on_c, 0, 33, 0
1, 70080, Note_on_c, 0, 69, 0
1, 70080, Note_on_c, 0, 71, 51
1, 70084, Control_c, 0, 64, 0
1, 70560, Tempo, 439560
1, 70560, Note_on_c, 0, 71, 0
1, 70560, Note_on_c, 0, 72, 52
1, 70800, Note_on_c, 0, 72, 0
1, 70800, Note_on_c, 0, 74, 53
1, 71040, Tempo, 439560
1, 71040, Note_on_c, 0, 74, 0
1, 71040, Note_on_c, 0, 75, 55
1, 71040, Note_on_c, 0, 66, 32
1, 71040, Note_on_c, 0, 60, 27
1, 71040, Note_on_c, 0, 56, 27
1, 71146, Control_c, 0, 64, 127
1, 71280, Tempo, 425532
1, 71516, Note_on_c, 0, 75, 0
1, 71520, Tempo, 436364
1, 71520, Note_on_c, 0, 66, 0
1, 71520, Note_on_c, 0, 60, 0
1, 71520, Note_on_c, 0, 56, 0
1, 71520, Note_on_c, 0, 75, 60
1, 71520, Note_on_c, 0, 66, 32
1, 71520, Note_on_c, 0, 60, 27
1, 71520, Note_on_c, 0, 56, 27
1, 71760, Tempo, 463320
1, 71880, Note_on_c, 0, 75, 0
1, 71880, Note_on_c, 0, 77, 55
1, 72000, Tempo, 428571
1, 72000, Note_on_c, 0, 77, 0
1, 72000, Note_on_c, 0, 56, 0
1, 72000, Note_on_c, 0, 60, 0
1, 72000, Note_on_c, 0, 66, 0
1, 72000, Note_on_c, 0, 75, 62
1, 72007, Control_c, 0, 64, 0
1, 72229, Control_c, 0, 64, 127
1, 72480, Tempo, 416667
1, 72480, Note_on_c, 0, 66, 33
1, 72480, Note_on_c, 0, 60, 27
1, 72480, Note_on_c, 0, 55, 27
1, 72720, Tempo, 431655
1, 72960, Note_on_c, 0, 55, 0
1, 72960, Note_on_c, 0, 75, 0
1, 72960, Note_on_c, 0, 66, 0
1, 72960, Note_on_c, 0, 60, 0
1, 72960, Note_on_c, 0, 74, 54
1, 72960, Note_on_c, 0, 67, 33
1, 72960, Note_on_c, 0, 59, 27
1, 72960, Note_on_c, 0, 55, 27
1, 72965, Control_c, 0, 64, 0
1, 73440, Tempo, 439560
1, 73440, Note_on_c, 0, 55, 0
1, 73440, Note_on_c, 0, 74, 0
1, 73440, Note_on_c, 0, 67, 0
1, 73440, Note_on_c, 0, 59, 0
1, 73440, Note_on_c, 0, 72, 52
1, 73680, Note_on_c, 0, 72, 0
1, 73680, Note_on_c, 0, 74, 54
1, 73920, Tempo, 439560
1, 73920, Note_on_c, 0, 74, 0
1, 73920, Note_on_c, 0, 75, 57
1, 73920, Note_on_c, 0, 66, 36
1, 73920, Note_on_c, 0, 60, 30
1, 73920, Note_on_c, 0, 56, 30
1, 74026, Control_c, 0, 64, 127
1, 74160, Tempo, 425532
1, 74396, Note_on_c, 0, 75, 0
1, 74400, Tempo, 436364
1, 74400, Note_on_c, 0, 66, 0
1, 74400, Note_on_c, 0, 60, 0
1, 74400, Note_on_c, 0, 56, 0
1, 74400, Note_on_c, 0, 75, 66
1, 74400, Note_on_c, 0, 66, 38
1, 74400, Note_on_c, 0, 60, 31
1, 74400, Note_on_c, 0, 56, 31
1, 74640, Tempo, 463320
1, 74760, Note_on_c, 0, 75, 0
1, 74760, Note_on_c, 0, 77, 62
1, 74880, Tempo, 431655
1, 74880, Note_on_c, 0, 77, 0
1, 74880, Note_on_c, 0, 56, 0
1, 74880, Note_on_c, 0, 60, 0
1, 74880, Note_on_c, 0, 66, 0
1, 74880, Note_on_c, 0, 75, 76
1, 74887, Control_c, 0, 64, 0
1, 75017, Control_c, 0, 64, 127
1, 75360, Tempo, 416667
1, 75360, Note_on_c, 0, 65, 48
1, 75360, Note_on_c, 0, 59, 40
1, 75360, Note_on_c, 0, 56, 40
1, 75600, Tempo, 431655
1, 75840, Tempo, 436364
1, 75840, Note_on_c, 0, 56, 0
1, 75840, Note_on_c, 0, 75, 0
1, 75840, Note_on_c, 0, 65, 0
1, 75840, Note_on_c, 0, 59, 0
1, 75840, Note_on_c, 0, 74, 62
1, 75840, Note_on_c, 0, 65, 48
1, 75840, Note_on_c, 0, 58, 40
1, 75840, Note_on_c, 0, 56, 40
1, 75848, Control_c, 0, 64, 0
1, 76320, Tempo, 418118
1, 76320, Note_on_c, 0, 56, 0
1, 76320, Note_on_c, 0, 74, 0
1, 76320, Note_on_c, 0, 65, 0
1, 76320, Note_on_c, 0, 58, 0
1, 76320, Note_on_c, 0, 82, 81
1, 76457, Control_c, 0, 64, 127
1, 76800, Tempo, 399467
1, 76800, Note_on_c, 0, 65, 59
1, 76800, Note_on_c, 0, 58, 48
1, 76800, Note_on_c, 0, 55, 48
1, 77040, Tempo, 431655
1, 77280, Tempo, 436364
1, 77280, Note_on_c, 0, 55, 0
1, 77280, Note_on_c, 0, 82, 0
1, 77280, Note_on_c, 0, 65, 0
1, 77280, Note_on_c, 0, 58, 0
1, 77280, Note_on_c, 0, 73, 62
1, 77280, Note_on_c, 0, 64, 55
1, 77280, Note_on_c, 0, 58, 46
1, 77280, Note_on_c, 0, 55, 46
1, 77291, Control_c, 0, 64, 0
1, 77760, Tempo, 422535
1, 77760, Note_on_c, 0, 55, 0
1, 77760, Note_on_c, 0, 73, 0
1, 77760, Note_on_c, 0, 64, 0
1, 77760, Note_on_c, 0, 58, 0
1, 77760, Note_on_c, 0, 81, 76
1, 77897, Control_c, 0, 64, 127
1, 78240, Tempo, 401606
1, 78240, Note_on_c, 0, 64, 54
1, 78240, Note_on_c, 0, 57, 42
1, 78240, Note_on_c, 0, 55, 42
1, 78480, Tempo, 431655
1, 78720, Tempo, 434783
1, 78720, Note_on_c, 0, 55, 0
1, 78720, Note_on_c, 0, 81, 0
1, 78720, Note_on_c, 0, 64, 0
1, 78720, Note_on_c, 0, 57, 0
1, 78720, Note_on_c, 0, 72, 55
1, 78720, Note_on_c, 0, 63, 48
1, 78720, Note_on_c, 0, 57, 40
1, 78720, Note_on_c, 0, 54, 40
1, 78729, Control_c, 0, 64, 0
1, 79200, Tempo, 425532
1, 79200, Note_on_c, 0, 54, 0
1, 79200, Note_on_c, 0, 72, 0
1, 79200, Note_on_c, 0, 63, 0
1, 79200, Note_on_c, 0, 57, 0
1, 79200, Note_on_c, 0, 80, 71
1, 79337, Control_c, 0, 64, 127
1, 79680, Tempo, 408163
1, 79680, Note_on_c, 0, 63, 44
1, 79680, Note_on_c, 0, 56, 35
1, 79680, Note_on_c, 0, 53, 35
1, 79920, Tempo, 431655
1, 80160, Tempo, 436364
1, 80160, Note_on_c, 0, 53, 0
1, 80160, Note_on_c, 0, 80, 0
1, 80160, Note_on_c, 0, 63, 0
1, 80160, Note_on_c, 0, 56, 0
1, 80160, Note_on_c, 0, 71, 42
1, 80160, Note_on_c, 0, 62, 39
1, 80160, Note_on_c, 0, 56, 32
1, 80160, Note_on_c, 0, 53, 32
1, 80169, Control_c, 0, 64, 0
1, 80640, Tempo, 442804
1, 80640, Note_on_c, 0, 53, 0
1, 80640, Note_on_c, 0, 71, 0
1, 80640, Note_on_c, 0, 62, 0
1, 80640, Note_on_c, 0, 56, 0
1, 80640, Note_on_c, 0, 79, 56
1, 80680, Tempo, 436364
1, 80777, Control_c, 0, 64, 127
1, 81120, Tempo, 428571
1, 81120, Note_on_c, 0, 62, 36
1, 81120, Note_on_c, 0, 55, 29
1, 81120, Note_on_c, 0, 52, 29
1, 81360, Tempo, 444444
1, 81360, Note_on_c, 0, 79, 0
1, 81360, Note_on_c, 0, 70, 47
1, 81600, Tempo, 459770
1, 81600, Note_on_c, 0, 70, 0
1, 81600, Note_on_c, 0, 52, 0
1, 81600, Note_on_c, 0, 55, 0
1, 81600, Note_on_c, 0, 62, 0
1, 81600, Note_on_c, 0, 69, 45
1, 81600, Note_on_c, 0, 61, 28
1, 81600, Note_on_c, 0, 55, 22
1, 81600, Note_on_c, 0, 52, 22
1, 81608, Control_c, 0, 64, 0
1, 81840, Tempo, 478088
1, 81840, Note_on_c, 0, 69, 0
1, 81840, Note_on_c, 0, 76, 45
1, 82080, Tempo, 430108
1, 82080, Note_on_c, 0, 76, 0
1, 82080, Note_on_c, 0, 52, 0
1, 82080, Note_on_c, 0, 55, 0
1, 82080, Note_on_c, 0, 61, 0
1, 82080, Note_on_c, 0, 77, 46
1, 82080, Note_on_c, 0, 50, 22
1, 82080, Note_on_c, 0, 53, 22
1, 82080, Note_on_c, 0, 62, 28
1, 82320, Note_on_c, 0, 77, 0
1, 82320, Note_on_c, 0, 76, 45
1, 82560, Tempo, 430108
1, 82560, Note_on_c, 0, 76, 0
1, 82560, Note_on_c, 0, 62, 0
1, 82560, Note_on_c, 0, 53, 0
1, 82560, Note_on_c, 0, 50, 0
1, 82560, Note_on_c, 0, 74, 45
1, 82560, Note_on_c, 0, 65, 27
1, 82560, Note_on_c, 0, 62, 22
1, 82560, Note_on_c, 0, 57, 22
1, 82659, Control_c, 0, 64, 127
1, 82800, Tempo, 425532
1, 83040, Tempo, 437956
1, 83040, Note_on_c, 0, 57, 0
1, 83040, Note_on_c, 0, 74, 0
1, 83040, Note_on_c, 0, 65, 0
1, 83040, Note_on_c, 0, 62, 0
1, 83040, Note_on_c, 0, 77, 48
1, 83040, Note_on_c, 0, 65, 27
1, 83040, Note_on_c, 0, 62, 22
1, 83040, Note_on_c, 0, 57, 22
1, 83280, Tempo, 587084
1, 83514, Note_on_c, 0, 77, 0
1, 83520, Tempo, 428571
1, 83520, Note_on_c, 0, 65, 0
1, 83520, Note_on_c, 0, 62, 0
1, 83520, Note_on_c, 0, 57, 0
1, 83520, Note_on_c, 0, 77, 47
1, 83530, Control_c, 0, 64, 0
1, 83560, Tempo, 421053
1, 83840, Control_c, 0, 64, 127
1, 84000, Note_on_c, 0, 65, 25
1, 84000, Note_on_c, 0, 60, 21
1, 84000, Note_on_c, 0, 57, 21
1, 84240, Tempo, 431655
1, 84480, Note_on_c, 0, 57, 0
1, 84480, Note_on_c, 0, 77, 0
1, 84480, Note_on_c, 0, 65, 0
1, 84480, Note_on_c, 0, 60, 0
1, 84480, Note_on_c, 0, 76, 43
1, 84480, Note_on_c, 0, 64, 25
1, 84480, Note_on_c, 0, 60, 21
1, 84480, Note_on_c, 0, 57, 21
1, 84487, Control_c, 0, 64, 0
1, 84960, Tempo, 422535
1, 84960, Note_on_c, 0, 57, 0
1, 84960, Note_on_c, 0, 76, 0
1, 84960, Note_on_c, 0, 64, 0
1, 84960, Note_on_c, 0, 60, 0
1, 84960, Note_on_c, 0, 74, 42
1, 85040, Note_on_c, 0, 74, 0
1, 85040, Note_on_c, 0, 76, 43
1, 85120, Note_on_c, 0, 76, 0
1, 85120, Note_on_c, 0, 74, 44
1, 85200, Note_on_c, 0, 74, 0
1, 85200, Note_on_c, 0, 73, 45
1, 85440, Tempo, 431655
1, 85440, Note_on_c, 0, 73, 0
1, 85440, Note_on_c, 0, 74, 47
1, 85440, Note_on_c, 0, 62, 28
1, 85440, Note_on_c, 0, 52, 23
1, 85440, Note_on_c, 0, 56, 23
1, 85680, Note_on_c, 0, 74, 0
1, 85680, Note_on_c, 0, 75, 45
1, 85920, Tempo, 449438
1, 85920, Note_on_c, 0, 75, 0
1, 85920, Note_on_c, 0, 56, 0
1, 85920, Note_on_c, 0, 52, 0
1, 85920, Note_on_c, 0, 62, 0
1, 85920, Note_on_c, 0, 76, 53
1, 85920, Note_on_c, 0, 62, 25
1, 85920, Note_on_c, 0, 56, 21
1, 85920, Note_on_c, 0, 52, 21
1, 86160, Tempo, 530973
1, 86160, Note_on_c, 0, 76, 0
1, 86160, Note_on_c, 0, 71, 46
1, 86400, Tempo, 422535
1, 86400, Note_on_c, 0, 71, 0
1, 86400, Note_on_c, 0, 52, 0
1, 86400, Note_on_c, 0, 56, 0
1, 86400, Note_on_c, 0, 62, 0
1, 86400, Note_on_c, 0, 74, 54
1, 86880, Tempo, 431655
1, 86880, Note_on_c, 0, 53, 21
1, 86880, Note_on_c, 0, 57, 21
1, 86880, Note_on_c, 0, 62, 28
1, 86960, Control_c, 0, 64, 127
1, 87360, Note_on_c, 0, 62, 0
1, 87360, Note_on_c, 0, 74, 0
1, 87360, Note_on_c, 0, 53, 0
1, 87360, Note_on_c, 0, 57, 0
1, 87360, Note_on_c, 0, 72, 45
1, 87360, Note_on_c, 0, 57, 21
1, 87360, Note_on_c, 0, 60, 26
1, 87360, Note_on_c, 0, 53, 21
1, 87840, Tempo, 415225
1, 87840, Note_on_c, 0, 53, 0
1, 87840, Note_on_c, 0, 72, 0
1, 87840, Note_on_c, 0, 57, 0
1, 87840, Note_on_c, 0, 60, 0
1, 87840, Note_on_c, 0, 69, 46
1, 87848, Control_c, 0, 64, 0
1, 87932, Control_c, 0, 64, 127
1, 88000, Note_on_c, 0, 69, 0
1, 88000, Note_on_c, 0, 70, 43
1, 88160, Note_on_c, 0, 70, 0
1, 88160, Note_on_c, 0, 69, 43
1, 88320, Tempo, 456274
1, 88320, Note_on_c, 0, 69, 0
1, 88320, Note_on_c, 0, 67, 47
1, 88320, Note_on_c, 0, 60, 29
1, 88320, Note_on_c, 0, 53, 29
1, 88320, Note_on_c, 0, 63, 34
1, 88331, Control_c, 0, 64, 0
1, 88800, Tempo, 478088
1, 88800, Note_on_c, 0, 63, 0
1, 88800, Note_on_c, 0, 67, 0
1, 88800, Note_on_c, 0, 60, 0
1, 88800, Note_on_c, 0, 53, 0
1, 88800, Note_on_c, 0, 69, 51
1, 88800, Note_on_c, 0, 53, 29
1, 88800, Note_on_c, 0, 60, 29
1, 88800, Note_on_c, 0, 63, 34
1, 89280, Tempo, 560748
1, 89280, Note_on_c, 0, 63, 0
1, 89280, Note_on_c, 0, 69, 0
1, 89280, Note_on_c, 0, 53, 0
1, 89280, Note_on_c, 0, 60, 0
1, 89280, Note_on_c, 0, 70, 61
1, 89280, Note_on_c, 0, 58, 34
1, 89280, Note_on_c, 0, 62, 37
1, 89440, Control_c, 0, 64, 127
1, 89760, Tempo, 481928
1, 89760, Note_on_c, 0, 62, 0
1, 89760, Note_on_c, 0, 70, 0
1, 89760, Note_on_c, 0, 74, 61
1, 89760, Note_on_c, 0, 65, 37
1, 90240, Tempo, 535714
1, 90240, Note_on_c, 0, 65, 0
1, 90240, Note_on_c, 0, 74, 0
1, 90240, Note_on_c, 0, 58, 0
1, 90250, Control_c, 0, 64, 0
1, 90720, Tempo, 427046
1, 90720, Note_on_c, 0, 69, 48
1, 90791, Control_c, 0, 64, 127
1, 91080, Note_on_c, 0, 69, 0
1, 91080, Note_on_c, 0, 68, 44
1, 91200, Tempo, 444444
1, 91200, Note_on_c, 0, 68, 0
1, 91200, Note_on_c, 0, 62, 40
1, 91200, Note_on_c, 0, 64, 48
1, 91200, Note_on_c, 0, 52, 29
1, 91200, Note_on_c, 0, 59, 35
1, 91217, Control_c, 0, 64, 0
1, 91315, Control_c, 0, 64, 127
1, 91680, Tempo, 449438
1, 91680, Note_on_c, 0, 59, 0
1, 91680, Note_on_c, 0, 62, 0
1, 91680, Note_on_c, 0, 64, 0
1, 91680, Note_on_c, 0, 52, 0
1, 91680, Note_on_c, 0, 68, 45
1, 91680, Note_on_c, 0, 62, 38
1, 91680, Note_on_c, 0, 52, 26
1, 91680, Note_on_c, 0, 59, 31
1, 91686, Control_c, 0, 64, 0
1, 91821, Control_c, 0, 64, 127
1, 92160, Note_on_c, 0, 59, 0
1, 92160, Note_on_c, 0, 68, 0
1, 92160, Note_on_c, 0, 62, 0
1, 92160, Note_on_c, 0, 52, 0
1, 92160, Note_on_c, 0, 69, 46
1, 92165, Control_c, 0, 64, 0
1, 92526, Control_c, 0, 64, 127
1, 92640, Tempo, 472441
1, 92640, Note_on_c, 0, 61, 25
1, 92640, Note_on_c, 0, 64, 30
1, 92640, Note_on_c, 0, 45, 19
1, 92640, Note_on_c, 0, 57, 22
1, 93120, Note_on_c, 0, 57, 0
1, 93120, Note_on_c, 0, 64, 0
1, 93120, Note_on_c, 0, 69, 0
1, 93120, Note_on_c, 0, 61, 0
1, 93120, Note_on_c, 0, 45, 0
1, 93120, Note_on_c, 0, 61, 26
1, 93120, Note_on_c, 0, 64, 31
1, 93120, Note_on_c, 0, 45, 20
1, 93120, Note_on_c, 0, 57, 23
1, 93600, Key_signature, 3, "major"
1, 93600, Tempo, 438116
1, 93600, Note_on_c, 0, 64, 0
1, 93600, Note_on_c, 0, 61, 0
1, 93600, Note_on_c, 0, 67, 45
1, 93600, Note_on_c, 0, 73, 54
1, 93607, Control_c, 0, 64, 0
1, 93840, Note_on_c, 0, 73, 0
1, 93960, Note_on_c, 0, 73, 49
1, 94080, Tempo, 423669
1, 94080, Note_on_c, 0, 73, 0
1, 94080, Note_on_c, 0, 67, 0
1, 94080, Note_on_c, 0, 45, 0
1, 94080, Note_on_c, 0, 57, 0
1, 94080, Note_on_c, 0, 66, 45
1, 94080, Note_on_c, 0, 74, 54
1, 94080, Note_on_c, 0, 50, 36
1, 94560, Tempo, 431593
1, 94560, Note_on_c, 0, 50, 0
1, 94560, Note_on_c, 0, 74, 0
1, 94560, Note_on_c, 0, 66, 0
1, 94560, Note_on_c, 0, 65, 44
1, 94560, Note_on_c, 0, 71, 53
1, 94560, Note_on_c, 0, 38, 36
1, 95040, Tempo, 429984
1, 95040, Note_on_c, 0, 38, 0
1, 95040, Note_on_c, 0, 71, 0
1, 95040, Note_on_c, 0, 65, 0
1, 95040, Note_on_c, 0, 62, 45
1, 95040, Note_on_c, 0, 68, 54
1, 95040, Note_on_c, 0, 40, 42
1, 95111, Control_c, 0, 64, 127
1, 95400, Note_on_c, 0, 68, 0
1, 95400, Note_on_c, 0, 64, 51
1, 95520, Tempo, 426803
1, 95520, Note_on_c, 0, 64, 0
1, 95520, Note_on_c, 0, 40, 0
1, 95520, Note_on_c, 0, 62, 0
1, 95520, Note_on_c, 0, 61, 45
1, 95520, Note_on_c, 0, 69, 54
1, 95520, Note_on_c, 0, 45, 35
1, 95536, Control_c, 0, 64, 0
1, 95690, Control_c, 0, 64, 127
1, 96000, Tempo, 433213
1, 96000, Note_on_c, 0, 45, 0
1, 96000, Note_on_c, 0, 52, 39
1, 96240, Note_on_c, 0, 69, 0
1, 96240, Note_on_c, 0, 61, 0
1, 96240, Note_on_c, 0, 68, 45
1, 96240, Note_on_c, 0, 71, 54
1, 96250, Control_c, 0, 64, 0
1, 96480, Tempo, 436459
1, 96480, Note_on_c, 0, 71, 0
1, 96480, Note_on_c, 0, 68, 0
1, 96480, Note_on_c, 0, 52, 0
1, 96480, Note_on_c, 0, 67, 45
1, 96480, Note_on_c, 0, 73, 54
1, 96480, Note_on_c, 0, 57, 44
1, 96565, Control_c, 0, 64, 127
1, 96840, Note_on_c, 0, 73, 0
1, 96840, Note_on_c, 0, 76, 54
1, 96960, Tempo, 428388
1, 96960, Note_on_c, 0, 76, 0
1, 96960, Note_on_c, 0, 57, 0
1, 96960, Note_on_c, 0, 67, 0
1, 96960, Note_on_c, 0, 66, 47
1, 96960, Note_on_c, 0, 74, 56
1, 96960, Control_c, 0, 64, 0
1, 96960, Note_on_c, 0, 50, 41
1, 97320, Note_on_c, 0, 50, 0
1, 97320, Note_on_c, 0, 74, 0
1, 97320, Note_on_c, 0, 66, 0
1, 97440, Tempo, 433213
1, 97440, Note_on_c, 0, 65, 45
1, 97440, Note_on_c, 0, 71, 54
1, 97440, Note_on_c, 0, 38, 36
1, 97920, Tempo, 426803
1, 97920, Note_on_c, 0, 38, 0
1, 97920, Note_on_c, 0, 71, 0
1, 97920, Note_on_c, 0, 65, 0
1, 97920, Note_on_c, 0, 62, 45
1, 97920, Note_on_c, 0, 68, 54
1, 97920, Note_on_c, 0, 40, 41
1, 97984, Control_c, 0, 64, 127
1, 98080, Note_on_c, 0, 68, 0
1, 98080, Note_on_c, 0, 66, 56
1, 98240, Note_on_c, 0, 66, 0
1, 98240, Note_on_c, 0, 64, 57
1, 98400, Tempo, 431593
1, 98400, Note_on_c, 0, 64, 0
1, 98400, Note_on_c, 0, 40, 0
1, 98400, Note_on_c, 0, 62, 0
1, 98400, Note_on_c, 0, 61, 52
1, 98400, Note_on_c, 0, 69, 62
1, 98400, Note_on_c, 0, 45, 36
1, 98416, Control_c, 0, 64, 0
1, 98527, Control_c, 0, 64, 127
1, 98880, Note_on_c, 0, 45, 0
1, 98880, Note_on_c, 0, 52, 41
1, 99120, Tempo, 446097
1, 99120, Note_on_c, 0, 69, 0
1, 99120, Note_on_c, 0, 61, 0
1, 99120, Note_on_c, 0, 68, 45
1, 99120, Note_on_c, 0, 71, 54
1, 99134, Control_c, 0, 64, 0
1, 99360, Tempo, 381194
1, 99360, Note_on_c, 0, 71, 0
1, 99360, Note_on_c, 0, 68, 0
1, 99360, Note_on_c, 0, 52, 0
1, 99360, Note_on_c, 0, 67, 44
1, 99360, Note_on_c, 0, 73, 52
1, 99360, Note_on_c, 0, 57, 44
1, 99420, Note_on_c, 0, 73, 0
1, 99420, Note_on_c, 0, 67, 0
1, 99520, Note_on_c, 0, 67, 45
1, 99520, Note_on_c, 0, 73, 54
1, 99580, Note_on_c, 0, 73, 0
1, 99580, Note_on_c, 0, 67, 0
1, 99680, Note_on_c, 0, 67, 46
1, 99680, Note_on_c, 0, 73, 55
1, 99740, Note_on_c, 0, 73, 0
1, 99740, Note_on_c, 0, 67, 0
1, 99840, Tempo, 423669
1, 99840, Note_on_c, 0, 57, 0
1, 99840, Note_on_c, 0, 66, 50
1, 99840, Note_on_c, 0, 74, 59
1, 99840, Note_on_c, 0, 50, 36
1, 100080, Note_on_c, 0, 50, 0
1, 100080, Note_on_c, 0, 74, 0
1, 100080, Note_on_c, 0, 66, 0
1, 100320, Tempo, 431593
1, 100320, Note_on_c, 0, 65, 44
1, 100320, Note_on_c, 0, 71, 53
1, 100320, Note_on_c, 0, 38, 36
1, 100800, Tempo, 405954
1, 100800, Note_on_c, 0, 38, 0
1, 100800, Note_on_c, 0, 71, 0
1, 100800, Note_on_c, 0, 65, 0
1, 100800, Note_on_c, 0, 62, 45
1, 100800, Note_on_c, 0, 68, 54
1, 100800, Note_on_c, 0, 40, 42
1, 100860, Note_on_c, 0, 68, 0
1, 100860, Note_on_c, 0, 62, 0
1, 100960, Note_on_c, 0, 62, 43
1, 100960, Note_on_c, 0, 66, 51
1, 101020, Note_on_c, 0, 66, 0
1, 101020, Note_on_c, 0, 62, 0
1, 101120, Note_on_c, 0, 62, 43
1, 101120, Note_on_c, 0, 64, 51
1, 101180, Note_on_c, 0, 64, 0
1, 101180, Note_on_c, 0, 62, 0
1, 101280, Tempo, 426803
1, 101280, Note_on_c, 0, 40, 0
1, 101280, Note_on_c, 0, 61, 45
1, 101280, Note_on_c, 0, 69, 54
1, 101280, Note_on_c, 0, 45, 35
1, 101315, Control_c, 0, 64, 127
1, 101760, Tempo, 433213
1, 101760, Note_on_c, 0, 45, 0
1, 101760, Note_on_c, 0, 52, 39
1, 102000, Note_on_c, 0, 69, 0
1, 102000, Note_on_c, 0, 61, 0
1, 102000, Note_on_c, 0, 68, 45
1, 102000, Note_on_c, 0, 71, 54
1, 102012, Control_c, 0, 64, 0
1, 102040, Tempo, 441176
1, 102240, Tempo, 385109
1, 102240, Note_on_c, 0, 71, 0
1, 102240, Note_on_c, 0, 68, 0
1, 102240, Note_on_c, 0, 52, 0
1, 102240, Note_on_c, 0, 67, 43
1, 102240, Note_on_c, 0, 73, 51
1, 102240, Note_on_c, 0, 57, 44
1, 102300, Note_on_c, 0, 73, 0
1, 102300, Note_on_c, 0, 67, 0
1, 102400, Note_on_c, 0, 67, 45
1, 102400, Note_on_c, 0, 74, 54
1, 102460, Note_on_c, 0, 74, 0
1, 102460, Note_on_c, 0, 67, 0
1, 102560, Note_on_c, 0, 67, 47
1, 102560, Note_on_c, 0, 76, 56
1, 102620, Note_on_c, 0, 76, 0
1, 102620, Note_on_c, 0, 67, 0
1, 102720, Tempo, 428388
1, 102720, Note_on_c, 0, 57, 0
1, 102720, Note_on_c, 0, 66, 51
1, 102720, Note_on_c, 0, 74, 61
1, 102720, Note_on_c, 0, 50, 41
1, 102960, Note_on_c, 0, 50, 0
1, 102960, Note_on_c, 0, 74, 0
1, 102960, Note_on_c, 0, 66, 0
1, 103200, Tempo, 433213
1, 103200, Note_on_c, 0, 65, 45
1, 103200, Note_on_c, 0, 71, 54
1, 103200, Note_on_c, 0, 38, 36
1, 103680, Tempo, 389105
1, 103680, Note_on_c, 0, 38, 0
1, 103680, Note_on_c, 0, 71, 0
1, 103680, Note_on_c, 0, 65, 0
1, 103680, Note_on_c, 0, 62, 45
1, 103680, Note_on_c, 0, 68, 54
1, 103680, Note_on_c, 0, 40, 41
1, 103740, Note_on_c, 0, 68, 0
1, 103740, Note_on_c, 0, 62, 0
1, 103840, Note_on_c, 0, 62, 45
1, 103840, Note_on_c, 0, 66, 56
1, 103900, Note_on_c, 0, 66, 0
1, 103900, Note_on_c, 0, 62, 0
1, 104000, Note_on_c, 0, 62, 45
1, 104000, Note_on_c, 0, 64, 57
1, 104060, Note_on_c, 0, 64, 0
1, 104060, Note_on_c, 0, 62, 0
1, 104160, Tempo, 431593
1, 104160, Note_on_c, 0, 40, 0
1, 104160, Note_on_c, 0, 61, 51
1, 104160, Note_on_c, 0, 69, 61
1, 104160, Note_on_c, 0, 45, 36
1, 104195, Control_c, 0, 64, 127
1, 104640, Note_on_c, 0, 45, 0
1, 104640, Note_on_c, 0, 57, 41
1, 105100, Tempo, 438116
1, 105120, Note_on_c, 0, 57, 0
1, 105120, Note_on_c, 0, 69, 0
1, 105120, Note_on_c, 0, 61, 0
1, 105120, Note_on_c, 0, 73, 80
1, 105120, Note_on_c, 0, 69, 68
1, 105120, Note_on_c, 0, 54, 58
1, 105120, Note_on_c, 0, 61, 70
1, 105135, Control_c, 0, 64, 0
1, 105360, Note_on_c, 0, 61, 0
1, 105360, Note_on_c, 0, 73, 0
1, 105360, Note_on_c, 0, 69, 0
1, 105480, Note_on_c, 0, 73, 75
1, 105480, Note_on_c, 0, 69, 64
1, 105480, Note_on_c, 0, 61, 63
1, 105580, Tempo, 423669
1, 105600, Note_on_c, 0, 61, 0
1, 105600, Note_on_c, 0, 69, 0
1, 105600, Note_on_c, 0, 73, 0
1, 105600, Note_on_c, 0, 74, 79
1, 105600, Note_on_c, 0, 71, 67
1, 105600, Note_on_c, 0, 62, 69
1, 105692, Control_c, 0, 64, 127
1, 105960, Note_on_c, 0, 62, 0
1, 105960, Note_on_c, 0, 71, 0
1, 105960, Note_on_c, 0, 74, 0
1, 106060, Tempo, 431593
1, 106080, Note_on_c, 0, 71, 72
1, 106080, Note_on_c, 0, 68, 60
1, 106080, Note_on_c, 0, 59, 63
1, 106433, Control_c, 0, 64, 0
1, 106440, Note_on_c, 0, 59, 0
1, 106440, Note_on_c, 0, 68, 0
1, 106440, Note_on_c, 0, 71, 0
1, 106540, Tempo, 429984
1, 106560, Tempo, 395257
1, 106560, Note_on_c, 0, 54, 0
1, 106560, Note_on_c, 0, 69, 65
1, 106560, Note_on_c, 0, 73, 77
1, 106560, Note_on_c, 0, 54, 55
1, 106560, Note_on_c, 0, 61, 66
1, 106720, Note_on_c, 0, 61, 0
1, 106720, Note_on_c, 0, 69, 0
1, 106720, Note_on_c, 0, 73, 0
1, 106720, Note_on_c, 0, 68, 60
1, 106720, Note_on_c, 0, 71, 72
1, 106720, Note_on_c, 0, 59, 57
1, 106880, Note_on_c, 0, 59, 0
1, 106880, Note_on_c, 0, 71, 0
1, 106880, Note_on_c, 0, 68, 0
1, 106880, Note_on_c, 0, 69, 72
1, 106880, Note_on_c, 0, 66, 60
1, 106880, Note_on_c, 0, 57, 57
1, 107020, Tempo, 426803
1, 107040, Note_on_c, 0, 57, 0
1, 107040, Note_on_c, 0, 66, 0
1, 107040, Note_on_c, 0, 69, 0
1, 107040, Note_on_c, 0, 71, 66
1, 107040, Note_on_c, 0, 74, 78
1, 107040, Note_on_c, 0, 62, 66
1, 107146, Control_c, 0, 64, 127
1, 107400, Note_on_c, 0, 62, 0
1, 107400, Note_on_c, 0, 74, 0
1, 107400, Note_on_c, 0, 71, 0
1, 107500, Tempo, 433213
1, 107520, Note_on_c, 0, 68, 61
1, 107520, Note_on_c, 0, 71, 73
1, 107520, Note_on_c, 0, 59, 57
1, 107880, Note_on_c, 0, 59, 0
1, 107880, Note_on_c, 0, 71, 0
1, 107880, Note_on_c, 0, 68, 0
1, 107880, Control_c, 0, 64, 0
1, 108000, Tempo, 438116
1, 108000, Note_on_c, 0, 54, 0
1, 108000, Note_on_c, 0, 73, 80
1, 108000, Note_on_c, 0, 69, 68
1, 108000, Note_on_c, 0, 54, 58
1, 108000, Note_on_c, 0, 61, 70
1, 108240, Note_on_c, 0, 61, 0
1, 108240, Note_on_c, 0, 73, 0
1, 108240, Note_on_c, 0, 69, 0
1, 108360, Note_on_c, 0, 73, 75
1, 108360, Note_on_c, 0, 69, 64
1, 108360, Note_on_c, 0, 61, 63
1, 108460, Tempo, 423669
1, 108480, Note_on_c, 0, 61, 0
1, 108480, Note_on_c, 0, 69, 0
1, 108480, Note_on_c, 0, 73, 0
1, 108480, Note_on_c, 0, 74, 79
1, 108480, Note_on_c, 0, 71, 67
1, 108480, Note_on_c, 0, 62, 69
1, 108572, Control_c, 0, 64, 127
1, 108840, Note_on_c, 0, 62, 0
1, 108840, Note_on_c, 0, 71, 0
1, 108840, Note_on_c, 0, 74, 0
1, 108940, Tempo, 431593
1, 108960, Note_on_c, 0, 71, 72
1, 108960, Note_on_c, 0, 68, 60
1, 108960, Note_on_c, 0, 59, 63
1, 109320, Note_on_c, 0, 59, 0
1, 109320, Note_on_c, 0, 68, 0
1, 109320, Note_on_c, 0, 71, 0
1, 109362, Control_c, 0, 64, 0
1, 109420, Tempo, 429984
1, 109440, Tempo, 391134
1, 109440, Note_on_c, 0, 54, 0
1, 109440, Note_on_c, 0, 69, 65
1, 109440, Note_on_c, 0, 73, 77
1, 109440, Note_on_c, 0, 54, 55
1, 109440, Note_on_c, 0, 61, 66
1, 109600, Note_on_c, 0, 61, 0
1, 109600, Note_on_c, 0, 69, 0
1, 109600, Note_on_c, 0, 73, 0
1, 109600, Note_on_c, 0, 68, 60
1, 109600, Note_on_c, 0, 71, 72
1, 109600, Note_on_c, 0, 59, 57
1, 109760, Note_on_c, 0, 59, 0
1, 109760, Note_on_c, 0, 71, 0
1, 109760, Note_on_c, 0, 68, 0
1, 109760, Note_on_c, 0, 69, 72
1, 109760, Note_on_c, 0, 66, 60
1, 109760, Note_on_c, 0, 57, 57
1, 109900, Tempo, 426803
1, 109920, Tempo, 433213
1, 109920, Note_on_c, 0, 57, 0
1, 109920, Note_on_c, 0, 54, 0
1, 109920, Note_on_c, 0, 69, 0
1, 109920, Note_on_c, 0, 66, 0
1, 109920, Note_on_c, 0, 78, 75
1, 109920, Note_on_c, 0, 90, 89
1, 109920, Note_on_c, 0, 42, 75
1, 109920, Note_on_c, 0, 54, 75
1, 110026, Control_c, 0, 64, 127
1, 110380, Tempo, 433213
1, 110400, Note_on_c, 0, 54, 0
1, 110400, Note_on_c, 0, 78, 0
1, 110400, Note_on_c, 0, 90, 0
1, 110400, Note_on_c, 0, 42, 0
1, 110400, Note_on_c, 0, 78, 70
1, 110400, Note_on_c, 0, 90, 83
1, 110400, Note_on_c, 0, 42, 65
1, 110400, Note_on_c, 0, 54, 65
1, 110880, Tempo, 438116
1, 110880, Note_on_c, 0, 54, 0
1, 110880, Note_on_c, 0, 78, 0
1, 110880, Note_on_c, 0, 90, 0
1, 110880, Note_on_c, 0, 42, 0
1, 110880, Note_on_c, 0, 73, 80
1, 110880, Note_on_c, 0, 69, 68
1, 110880, Note_on_c, 0, 54, 58
1, 110880, Note_on_c, 0, 61, 70
1, 110882, Control_c, 0, 64, 0
1, 111120, Note_on_c, 0, 61, 0
1, 111120, Note_on_c, 0, 73, 0
1, 111120, Note_on_c, 0, 69, 0
1, 111240, Note_on_c, 0, 73, 75
1, 111240, Note_on_c, 0, 69, 64
1, 111240, Note_on_c, 0, 61, 63
1, 111340, Tempo, 423669
1, 111360, Note_on_c, 0, 61, 0
1, 111360, Note_on_c, 0, 69, 0
1, 111360, Note_on_c, 0, 73, 0
1, 111360, Note_on_c, 0, 74, 79
1, 111360, Note_on_c, 0, 71, 67
1, 111360, Note_on_c, 0, 62, 69
1, 111452, Control_c, 0, 64, 127
1, 111720, Note_on_c, 0, 62, 0
1, 111720, Note_on_c, 0, 71, 0
1, 111720, Note_on_c, 0, 74, 0
1, 111820, Tempo, 431593
1, 111840, Note_on_c, 0, 71, 72
1, 111840, Note_on_c, 0, 68, 60
1, 111840, Note_on_c, 0, 59, 63
1, 112172, Control_c, 0, 64, 0
1, 112200, Note_on_c, 0, 59, 0
1, 112200, Note_on_c, 0, 68, 0
1, 112200, Note_on_c, 0, 71, 0
1, 112300, Tempo, 429984
1, 112320, Tempo, 391134
1, 112320, Note_on_c, 0, 54, 0
1, 112320, Note_on_c, 0, 69, 65
1, 112320, Note_on_c, 0, 73, 77
1, 112320, Note_on_c, 0, 54, 55
1, 112320, Note_on_c, 0, 61, 66
1, 112480, Note_on_c, 0, 61, 0
1, 112480, Note_on_c, 0, 69, 0
1, 112480, Note_on_c, 0, 73, 0
1, 112480, Note_on_c, 0, 68, 60
1, 112480, Note_on_c, 0, 71, 72
1, 112480, Note_on_c, 0, 59, 57
1, 112640, Note_on_c, 0, 59, 0
1, 112640, Note_on_c, 0, 71, 0
1, 112640, Note_on_c, 0, 68, 0
1, 112640, Note_on_c, 0, 69, 72
1, 112640, Note_on_c, 0, 66, 60
1, 112640, Note_on_c, 0, 57, 57
1, 112780, Tempo, 426803
1, 112800, Note_on_c, 0, 57, 0
1, 112800, Note_on_c, 0, 66, 0
1, 112800, Note_on_c, 0, 69, 0
1, 112800, Note_on_c, 0, 71, 66
1, 112800, Note_on_c, 0, 74, 78
1, 112800, Note_on_c, 0, 62, 66
1, 112906, Control_c, 0, 64, 127
1, 113160, Note_on_c, 0, 62, 0
1, 113160, Note_on_c, 0, 74, 0
1, 113160, Note_on_c, 0, 71, 0
1, 113260, Tempo, 433213
1, 113280, Tempo, 441469
1, 113280, Note_on_c, 0, 68, 61
1, 113280, Note_on_c, 0, 71, 73
1, 113280, Note_on_c, 0, 59, 57
1, 113584, Control_c, 0, 64, 0
1, 113640, Note_on_c, 0, 59, 0
1, 113640, Note_on_c, 0, 71, 0
1, 113640, Note_on_c, 0, 68, 0
1, 113760, Tempo, 449438
1, 113760, Note_on_c, 0, 69, 57
1, 113760, Note_on_c, 0, 73, 68
1, 113760, Note_on_c, 0, 61, 53
1, 114000, Tempo, 472441
1, 114000, Note_on_c, 0, 61, 0
1, 114000, Note_on_c, 0, 73, 0
1, 114000, Note_on_c, 0, 75, 71
1, 114000, Note_on_c, 0, 59, 57
1, 114240, Note_on_c, 0, 75, 0
1, 114240, Note_on_c, 0, 54, 0
1, 114240, Note_on_c, 0, 69, 0
1, 114240, Note_on_c, 0, 68, 62
1, 114240, Note_on_c, 0, 76, 74
1, 114240, Note_on_c, 0, 52, 51
1, 115200, Tempo, 461538
1, 115200, Note_on_c, 0, 76, 0
1, 115200, Note_on_c, 0, 59, 0
1, 115200, Note_on_c, 0, 68, 0
1, 115200, Note_on_c, 0, 69, 57
1, 115200, Note_on_c, 0, 73, 68
1, 115200, Note_on_c, 0, 61, 53
1, 115440, Tempo, 540541
1, 115440, Note_on_c, 0, 61, 0
1, 115440, Note_on_c, 0, 73, 0
1, 115440, Note_on_c, 0, 75, 71
1, 115440, Note_on_c, 0, 59, 57
1, 115560, Note_on_c, 0, 75, 0
1, 115560, Note_on_c, 0, 78, 69
1, 115680, Tempo, 470588
1, 115680, Note_on_c, 0, 78, 0
1, 115680, Note_on_c, 0, 52, 0
1, 115680, Note_on_c, 0, 69, 0
1, 115680, Note_on_c, 0, 68, 62
1, 115680, Note_on_c, 0, 76, 74
1, 115680, Note_on_c, 0, 52, 51
1, 115760, Control_c, 0, 64, 127
1, 116400, Note_on_c, 0, 76, 0
1, 116400, Note_on_c, 0, 74, 70
1, 116640, Tempo, 438116
1, 116640, Note_on_c, 0, 74, 0
1, 116640, Note_on_c, 0, 52, 0
1, 116640, Note_on_c, 0, 68, 0
1, 116640, Note_on_c, 0, 59, 0
1, 116640, Note_on_c, 0, 67, 50
1, 116640, Note_on_c, 0, 73, 60
1, 116640, Control_c, 0, 64, 0
1, 116640, Note_on_c, 0, 57, 49
1, 116880, Note_on_c, 0, 73, 0
1, 117000, Note_on_c, 0, 73, 55
1, 117120, Tempo, 423669
1, 117120, Note_on_c, 0, 73, 0
1, 117120, Note_on_c, 0, 57, 0
1, 117120, Note_on_c, 0, 67, 0
1, 117120, Note_on_c, 0, 66, 51
1, 117120, Note_on_c, 0, 74, 61
1, 117120, Note_on_c, 0, 50, 40
1, 117600, Tempo, 431593
1, 117600, Note_on_c, 0, 50, 0
1, 117600, Note_on_c, 0, 74, 0
1, 117600, Note_on_c, 0, 66, 0
1, 117600, Note_on_c, 0, 65, 49
1, 117600, Note_on_c, 0, 71, 59
1, 117600, Note_on_c, 0, 38, 40
1, 118080, Tempo, 429984
1, 118080, Note_on_c, 0, 38, 0
1, 118080, Note_on_c, 0, 71, 0
1, 118080, Note_on_c, 0, 65, 0
1, 118080, Note_on_c, 0, 62, 50
1, 118080, Note_on_c, 0, 68, 60
1, 118080, Note_on_c, 0, 40, 47
1, 118200, Control_c, 0, 64, 127
1, 118440, Note_on_c, 0, 68, 0
1, 118440, Note_on_c, 0, 64, 57
1, 118560, Tempo, 426803
1, 118560, Note_on_c, 0, 64, 0
1, 118560, Note_on_c, 0, 40, 0
1, 118560, Note_on_c, 0, 62, 0
1, 118560, Note_on_c, 0, 61, 50
1, 118560, Note_on_c, 0, 69, 60
1, 118560, Note_on_c, 0, 45, 39
1, 118576, Control_c, 0, 64, 0
1, 118673, Control_c, 0, 64, 127
1, 119040, Tempo, 433213
1, 119040, Note_on_c, 0, 45, 0
1, 119040, Note_on_c, 0, 52, 44
1, 119280, Note_on_c, 0, 69, 0
1, 119280, Note_on_c, 0, 61, 0
1, 119280, Note_on_c, 0, 68, 50
1, 119280, Note_on_c, 0, 71, 60
1, 119291, Control_c, 0, 64, 0
1, 119520, Tempo, 436459
1, 119520, Note_on_c, 0, 71, 0
1, 119520, Note_on_c, 0, 68, 0
1, 119520, Note_on_c, 0, 52, 0
1, 119520, Note_on_c, 0, 67, 51
1, 119520, Note_on_c, 0, 73, 61
1, 119520, Note_on_c, 0, 57, 49
1, 119577, Control_c, 0, 64, 127
1, 119880, Note_on_c, 0, 73, 0
1, 119880, Note_on_c, 0, 76, 60
1, 120000, Tempo, 428388
1, 120000, Note_on_c, 0, 76, 0
1, 120000, Note_on_c, 0, 57, 0
1, 120000, Note_on_c, 0, 67, 0
1, 120000, Note_on_c, 0, 66, 53
1, 120000, Note_on_c, 0, 74, 63
1, 120000, Note_on_c, 0, 50, 46
1, 120014, Control_c, 0, 64, 0
1, 120480, Tempo, 433213
1, 120480, Note_on_c, 0, 50, 0
1, 120480, Note_on_c, 0, 74, 0
1, 120480, Note_on_c, 0, 66, 0
1, 120480, Note_on_c, 0, 65, 50
1, 120480, Note_on_c, 0, 71, 60
1, 120480, Note_on_c, 0, 38, 40
1, 120960, Tempo, 426803
1, 120960, Note_on_c, 0, 38, 0
1, 120960, Note_on_c, 0, 71, 0
1, 120960, Note_on_c, 0, 65, 0
1, 120960, Note_on_c, 0, 62, 51
1, 120960, Note_on_c, 0, 68, 61
1, 120960, Note_on_c, 0, 40, 46
1, 121059, Control_c, 0, 64, 127
1, 121120, Note_on_c, 0, 68, 0
1, 121120, Note_on_c, 0, 66, 63
1, 121280, Note_on_c, 0, 66, 0
1, 121280, Note_on_c, 0, 64, 64
1, 121440, Tempo, 431593
1, 121440, Note_on_c, 0, 64, 0
1, 121440, Note_on_c, 0, 40, 0
1, 121440, Note_on_c, 0, 62, 0
1, 121440, Note_on_c, 0, 61, 58
1, 121440, Note_on_c, 0, 69, 69
1, 121440, Note_on_c, 0, 45, 40
1, 121456, Control_c, 0, 64, 0
1, 121560, Control_c, 0, 64, 127
1, 121920, Note_on_c, 0, 45, 0
1, 121920, Note_on_c, 0, 52, 46
1, 122160, Note_on_c, 0, 69, 0
1, 122160, Note_on_c, 0, 61, 0
1, 122160, Note_on_c, 0, 68, 50
1, 122160, Note_on_c, 0, 71, 60
1, 122176, Control_c, 0, 64, 0
1, 122400, Tempo, 379267
1, 122400, Note_on_c, 0, 71, 0
1, 122400, Note_on_c, 0, 68, 0
1, 122400, Note_on_c, 0, 52, 0
1, 122400, Note_on_c, 0, 67, 49
1, 122400, Note_on_c, 0, 73, 58
1, 122400, Note_on_c, 0, 57, 49
1, 122460, Note_on_c, 0, 73, 0
1, 122460, Note_on_c, 0, 67, 0
1, 122560, Note_on_c, 0, 67, 50
1, 122560, Note_on_c, 0, 73, 60
1, 122620, Note_on_c, 0, 73, 0
1, 122620, Note_on_c, 0, 67, 0
1, 122720, Note_on_c, 0, 67, 52
1, 122720, Note_on_c, 0, 73, 62
1, 122780, Note_on_c, 0, 73, 0
1, 122780, Note_on_c, 0, 67, 0
1, 122880, Tempo, 423669
1, 122880, Note_on_c, 0, 57, 0
1, 122880, Note_on_c, 0, 66, 56
1, 122880, Note_on_c, 0, 74, 66
1, 122880, Note_on_c, 0, 50, 40
1, 123120, Note_on_c, 0, 74, 0
1, 123120, Note_on_c, 0, 66, 0
1, 123360, Tempo, 431593
1, 123360, Note_on_c, 0, 50, 0
1, 123360, Note_on_c, 0, 65, 49
1, 123360, Note_on_c, 0, 71, 59
1, 123360, Note_on_c, 0, 38, 40
1, 123840, Tempo, 385109
1, 123840, Note_on_c, 0, 38, 0
1, 123840, Note_on_c, 0, 71, 0
1, 123840, Note_on_c, 0, 65, 0
1, 123840, Note_on_c, 0, 62, 51
1, 123840, Note_on_c, 0, 68, 61
1, 123840, Note_on_c, 0, 40, 47
1, 123900, Note_on_c, 0, 68, 0
1, 123900, Note_on_c, 0, 62, 0
1, 124000, Note_on_c, 0, 62, 48
1, 124000, Note_on_c, 0, 66, 57
1, 124060, Note_on_c, 0, 66, 0
1, 124060, Note_on_c, 0, 62, 0
1, 124160, Note_on_c, 0, 62, 48
1, 124160, Note_on_c, 0, 64, 57
1, 124220, Note_on_c, 0, 64, 0
1, 124220, Note_on_c, 0, 62, 0
1, 124320, Tempo, 426803
1, 124320, Note_on_c, 0, 40, 0
1, 124320, Note_on_c, 0, 61, 50
1, 124320, Note_on_c, 0, 69, 60
1, 124320, Note_on_c, 0, 45, 39
1, 124374, Control_c, 0, 64, 127
1, 124800, Tempo, 433213
1, 124800, Note_on_c, 0, 45, 0
1, 124800, Note_on_c, 0, 52, 44
1, 125040, Note_on_c, 0, 69, 0
1, 125040, Note_on_c, 0, 61, 0
1, 125040, Note_on_c, 0, 68, 50
1, 125040, Note_on_c, 0, 71, 60
1, 125053, Control_c, 0, 64, 0
1, 125280, Tempo, 383142
1, 125280, Note_on_c, 0, 71, 0
1, 125280, Note_on_c, 0, 68, 0
1, 125280, Note_on_c, 0, 52, 0
1, 125280, Note_on_c, 0, 67, 48
1, 125280, Note_on_c, 0, 73, 57
1, 125280, Note_on_c, 0, 57, 49
1, 125340, Note_on_c, 0, 73, 0
1, 125340, Note_on_c, 0, 67, 0
1, 125440, Note_on_c, 0, 67, 50
1, 125440, Note_on_c, 0, 74, 60
1, 125500, Note_on_c, 0, 74, 0
1, 125500, Note_on_c, 0, 67, 0
1, 125600, Note_on_c, 0, 67, 53
1, 125600, Note_on_c, 0, 76, 63
1, 125660, Note_on_c, 0, 76, 0
1, 125660, Note_on_c, 0, 67, 0
1, 125760, Tempo, 428388
1, 125760, Note_on_c, 0, 57, 0
1, 125760, Note_on_c, 0, 66, 57
1, 125760, Note_on_c, 0, 74, 68
1, 125760, Note_on_c, 0, 50, 46
1, 126000, Note_on_c, 0, 74, 0
1, 126000, Note_on_c, 0, 66, 0
1, 126240, Tempo, 433213
1, 126240, Note_on_c, 0, 50, 0
1, 126240, Note_on_c, 0, 65, 50
1, 126240, Note_on_c, 0, 71, 60
1, 126240, Note_on_c, 0, 38, 40
1, 126720, Tempo, 387097
1, 126720, Note_on_c, 0, 38, 0
1, 126720, Note_on_c, 0, 71, 0
1, 126720, Note_on_c, 0, 65, 0
1, 126720, Note_on_c, 0, 62, 51
1, 126720, Note_on_c, 0, 68, 61
1, 126720, Note_on_c, 0, 40, 46
1, 126780, Note_on_c, 0, 68, 0
1, 126780, Note_on_c, 0, 62, 0
1, 126880, Note_on_c, 0, 62, 51
1, 126880, Note_on_c, 0, 66, 63
1, 126940, Note_on_c, 0, 66, 0
1, 126940, Note_on_c, 0, 62, 0
1, 127040, Note_on_c, 0, 62, 51
1, 127040, Note_on_c, 0, 64, 64
1, 127100, Note_on_c, 0, 64, 0
1, 127100, Note_on_c, 0, 62, 0
1, 127200, Tempo, 431593
1, 127200, Note_on_c, 0, 40, 0
1, 127200, Note_on_c, 0, 61, 57
1, 127200, Note_on_c, 0, 69, 68
1, 127200, Note_on_c, 0, 45, 40
1, 127257, Control_c, 0, 64, 127
1, 127680, Note_on_c, 0, 45, 0
1, 127680, Note_on_c, 0, 57, 46
1, 128140, Tempo, 438116
1, 128160, Tempo, 438116
1, 128160, Note_on_c, 0, 57, 0
1, 128160, Note_on_c, 0, 69, 0
1, 128160, Note_on_c, 0, 61, 0
1, 128160, Note_on_c, 0, 73, 80
1, 128160, Note_on_c, 0, 69, 68
1, 128160, Note_on_c, 0, 54, 58
1, 128160, Note_on_c, 0, 61, 70
1, 128164, Control_c, 0, 64, 0
1, 128400, Note_on_c, 0, 61, 0
1, 128400, Note_on_c, 0, 73, 0
1, 128400, Note_on_c, 0, 69, 0
1, 128520, Note_on_c, 0, 73, 75
1, 128520, Note_on_c, 0, 69, 64
1, 128520, Note_on_c, 0, 61, 63
1, 128620, Tempo, 423669
1, 128640, Note_on_c, 0, 61, 0
1, 128640, Note_on_c, 0, 69, 0
1, 128640, Note_on_c, 0, 73, 0
1, 128640, Note_on_c, 0, 74, 79
1, 128640, Note_on_c, 0, 71, 67
1, 128640, Note_on_c, 0, 62, 69
1, 128732, Control_c, 0, 64, 127
1, 129000, Note_on_c, 0, 62, 0
1, 129000, Note_on_c, 0, 71, 0
1, 129000, Note_on_c, 0, 74, 0
1, 129100, Tempo, 431593
1, 129120, Note_on_c, 0, 71, 72
1, 129120, Note_on_c, 0, 68, 60
1, 129120, Note_on_c, 0, 59, 63
1, 129480, Note_on_c, 0, 59, 0
1, 129480, Note_on_c, 0, 68, 0
1, 129480, Note_on_c, 0, 71, 0
1, 129522, Control_c, 0, 64, 0
1, 129580, Tempo, 429984
1, 129600, Tempo, 383142
1, 129600, Note_on_c, 0, 54, 0
1, 129600, Note_on_c, 0, 69, 65
1, 129600, Note_on_c, 0, 73, 77
1, 129600, Note_on_c, 0, 54, 55
1, 129600, Note_on_c, 0, 61, 66
1, 129760, Note_on_c, 0, 61, 0
1, 129760, Note_on_c, 0, 69, 0
1, 129760, Note_on_c, 0, 73, 0
1, 129760, Note_on_c, 0, 68, 60
1, 129760, Note_on_c, 0, 71, 72
1, 129760, Note_on_c, 0, 59, 57
1, 129920, Note_on_c, 0, 59, 0
1, 129920, Note_on_c, 0, 71, 0
1, 129920, Note_on_c, 0, 68, 0
1, 129920, Note_on_c, 0, 69, 72
1, 129920, Note_on_c, 0, 66, 60
1, 129920, Note_on_c, 0, 57, 57
1, 130060, Tempo, 426803
1, 130080, Note_on_c, 0, 57, 0
1, 130080, Note_on_c, 0, 66, 0
1, 130080, Note_on_c, 0, 69, 0
1, 130080, Note_on_c, 0, 71, 66
1, 130080, Note_on_c, 0, 74, 78
1, 130080, Note_on_c, 0, 62, 66
1, 130186, Control_c, 0, 64, 127
1, 130440, Note_on_c, 0, 62, 0
1, 130440, Note_on_c, 0, 74, 0
1, 130440, Note_on_c, 0, 71, 0
1, 130540, Tempo, 433213
1, 130560, Note_on_c, 0, 68, 61
1, 130560, Note_on_c, 0, 71, 73
1, 130560, Note_on_c, 0, 59, 57
1, 130920, Note_on_c, 0, 59, 0
1, 130920, Note_on_c, 0, 71, 0
1, 130920, Note_on_c, 0, 68, 0
1, 131005, Control_c, 0, 64, 0
1, 131040, Tempo, 438116
1, 131040, Note_on_c, 0, 54, 0
1, 131040, Note_on_c, 0, 73, 80
1, 131040, Note_on_c, 0, 69, 68
1, 131040, Note_on_c, 0, 54, 58
1, 131040, Note_on_c, 0, 61, 70
1, 131280, Note_on_c, 0, 61, 0
1, 131280, Note_on_c, 0, 73, 0
1, 131280, Note_on_c, 0, 69, 0
1, 131400, Note_on_c, 0, 73, 75
1, 131400, Note_on_c, 0, 69, 64
1, 131400, Note_on_c, 0, 61, 63
1, 131500, Tempo, 423669
1, 131520, Note_on_c, 0, 61, 0
1, 131520, Note_on_c, 0, 69, 0
1, 131520, Note_on_c, 0, 73, 0
1, 131520, Note_on_c, 0, 74, 79
1, 131520, Note_on_c, 0, 71, 67
1, 131520, Note_on_c, 0, 62, 69
1, 131612, Control_c, 0, 64, 127
1, 131880, Note_on_c, 0, 62, 0
1, 131880, Note_on_c, 0, 71, 0
1, 131880, Note_on_c, 0, 74, 0
1, 131980, Tempo, 431593
1, 132000, Note_on_c, 0, 71, 72
1, 132000, Note_on_c, 0, 68, 60
1, 132000, Note_on_c, 0, 59, 63
1, 132360, Note_on_c, 0, 59, 0
1, 132360, Note_on_c, 0, 68, 0
1, 132360, Note_on_c, 0, 71, 0
1, 132402, Control_c, 0, 64, 0
1, 132460, Tempo, 429984
1, 132480, Tempo, 387097
1, 132480, Note_on_c, 0, 54, 0
1, 132480, Note_on_c, 0, 69, 65
1, 132480, Note_on_c, 0, 73, 77
1, 132480, Note_on_c, 0, 54, 55
1, 132480, Note_on_c, 0, 61, 66
1, 132640, Note_on_c, 0, 61, 0
1, 132640, Note_on_c, 0, 69, 0
1, 132640, Note_on_c, 0, 73, 0
1, 132640, Note_on_c, 0, 68, 60
1, 132640, Note_on_c, 0, 71, 72
1, 132640, Note_on_c, 0, 59, 57
1, 132800, Note_on_c, 0, 59, 0
1, 132800, Note_on_c, 0, 71, 0
1, 132800, Note_on_c, 0, 68, 0
1, 132800, Note_on_c, 0, 69, 72
1, 132800, Note_on_c, 0, 66, 60
1, 132800, Note_on_c, 0, 57, 57
1, 132940, Tempo, 426803
1, 132960, Tempo, 433213
1, 132960, Note_on_c, 0, 57, 0
1, 132960, Note_on_c, 0, 54, 0
1, 132960, Note_on_c, 0, 69, 0
1, 132960, Note_on_c, 0, 66, 0
1, 132960, Note_on_c, 0, 78, 75
1, 132960, Note_on_c, 0, 90, 89
1, 132960, Note_on_c, 0, 42, 75
1, 132960, Note_on_c, 0, 54, 75
1, 133066, Control_c, 0, 64, 127
1, 133420, Tempo, 433213
1, 133440, Note_on_c, 0, 54, 0
1, 133440, Note_on_c, 0, 78, 0
1, 133440, Note_on_c, 0, 90, 0
1, 133440, Note_on_c, 0, 42, 0
1, 133440, Note_on_c, 0, 78, 70
1, 133440, Note_on_c, 0, 90, 83
1, 133440, Note_on_c, 0, 42, 65
1, 133440, Note_on_c, 0, 54, 65
1, 133920, Tempo, 438116
1, 133920, Note_on_c, 0, 54, 0
1, 133920, Note_on_c, 0, 78, 0
1, 133920, Note_on_c, 0, 90, 0
1, 133920, Note_on_c, 0, 42, 0
1, 133920, Note_on_c, 0, 73, 80
1, 133920, Note_on_c, 0, 69, 68
1, 133920, Note_on_c, 0, 54, 58
1, 133920, Note_on_c, 0, 61, 70
1, 133923, Control_c, 0, 64, 0
1, 134160, Note_on_c, 0, 61, 0
1, 134160, Note_on_c, 0, 73, 0
1, 134160, Note_on_c, 0, 69, 0
1, 134280, Note_on_c, 0, 73, 75
1, 134280, Note_on_c, 0, 69, 64
1, 134280, Note_on_c, 0, 61, 63
1, 134380, Tempo, 423669
1, 134400, Note_on_c, 0, 61, 0
1, 134400, Note_on_c, 0, 69, 0
1, 134400, Note_on_c, 0, 73, 0
1, 134400, Note_on_c, 0, 74, 79
1, 134400, Note_on_c, 0, 71, 67
1, 134400, Note_on_c, 0, 62, 69
1, 134492, Control_c, 0, 64, 127
1, 134760, Note_on_c, 0, 62, 0
1, 134760, Note_on_c, 0, 71, 0
1, 134760, Note_on_c, 0, 74, 0
1, 134860, Tempo, 431593
1, 134880, Note_on_c, 0, 71, 72
1, 134880, Note_on_c, 0, 68, 60
1, 134880, Note_on_c, 0, 59, 63
1, 135240, Note_on_c, 0, 59, 0
1, 135240, Note_on_c, 0, 68, 0
1, 135240, Note_on_c, 0, 71, 0
1, 135282, Control_c, 0, 64, 0
1, 135340, Tempo, 429984
1, 135360, Tempo, 389105
1, 135360, Note_on_c, 0, 54, 0
1, 135360, Note_on_c, 0, 69, 65
1, 135360, Note_on_c, 0, 73, 77
1, 135360, Note_on_c, 0, 54, 55
1, 135360, Note_on_c, 0, 61, 66
1, 135520, Note_on_c, 0, 61, 0
1, 135520, Note_on_c, 0, 69, 0
1, 135520, Note_on_c, 0, 73, 0
1, 135520, Note_on_c, 0, 68, 60
1, 135520, Note_on_c, 0, 71, 72
1, 135520, Note_on_c, 0, 59, 57
1, 135680, Note_on_c, 0, 59, 0
1, 135680, Note_on_c, 0, 71, 0
1, 135680, Note_on_c, 0, 68, 0
1, 135680, Note_on_c, 0, 69, 72
1, 135680, Note_on_c, 0, 66, 60
1, 135680, Note_on_c, 0, 57, 57
1, 135820, Tempo, 426803
1, 135840, Note_on_c, 0, 57, 0
1, 135840, Note_on_c, 0, 66, 0
1, 135840, Note_on_c, 0, 69, 0
1, 135840, Note_on_c, 0, 71, 66
1, 135840, Note_on_c, 0, 74, 78
1, 135840, Note_on_c, 0, 62, 66
1, 135946, Control_c, 0, 64, 127
1, 136200, Note_on_c, 0, 62, 0
1, 136200, Note_on_c, 0, 74, 0
1, 136200, Note_on_c, 0, 71, 0
1, 136300, Tempo, 433213
1, 136320, Tempo, 441469
1, 136320, Note_on_c, 0, 68, 61
1, 136320, Note_on_c, 0, 71, 73
1, 136320, Note_on_c, 0, 59, 57
1, 136680, Note_on_c, 0, 59, 0
1, 136680, Note_on_c, 0, 71, 0
1, 136680, Note_on_c, 0, 68, 0
1, 136765, Control_c, 0, 64, 0
1, 136800, Tempo, 446595
1, 136800, Note_on_c, 0, 69, 57
1, 136800, Note_on_c, 0, 73, 68
1, 136800, Note_on_c, 0, 61, 53
1, 136840, Tempo, 452830
1, 137040, Tempo, 474308
1, 137040, Note_on_c, 0, 61, 0
1, 137040, Note_on_c, 0, 73, 0
1, 137040, Note_on_c, 0, 75, 71
1, 137040, Note_on_c, 0, 59, 57
1, 137280, Note_on_c, 0, 75, 0
1, 137280, Note_on_c, 0, 54, 0
1, 137280, Note_on_c, 0, 69, 0
1, 137280, Note_on_c, 0, 68, 62
1, 137280, Note_on_c, 0, 76, 74
1, 137280, Note_on_c, 0, 52, 51
1, 138240, Tempo, 511073
1, 138240, Note_on_c, 0, 76, 0
1, 138240, Note_on_c, 0, 59, 0
1, 138240, Note_on_c, 0, 68, 0
1, 138240, Note_on_c, 0, 69, 57
1, 138240, Note_on_c, 0, 73, 68
1, 138240, Note_on_c, 0, 61, 53
1, 138480, Tempo, 582524
1, 138480, Note_on_c, 0, 61, 0
1, 138480, Note_on_c, 0, 73, 0
1, 138480, Note_on_c, 0, 75, 71
1, 138480, Note_on_c, 0, 59, 57
1, 138600, Note_on_c, 0, 75, 0
1, 138600, Note_on_c, 0, 78, 69
1, 138720, Tempo, 472441
1, 138720, Note_on_c, 0, 78, 0
1, 138720, Note_on_c, 0, 52, 0
1, 138720, Note_on_c, 0, 69, 0
1, 138720, Note_on_c, 0, 68, 62
1, 138720, Note_on_c, 0, 76, 74
1, 138720, Note_on_c, 0, 52, 51
1, 138892, Control_c, 0, 64, 127
1, 139440, Note_on_c, 0, 76, 0
1, 139440, Note_on_c, 0, 74, 70
1, 139680, Tempo, 438116
1, 139680, Note_on_c, 0, 74, 0
1, 139680, Note_on_c, 0, 52, 0
1, 139680, Note_on_c, 0, 68, 0
1, 139680, Note_on_c, 0, 59, 0
1, 139680, Note_on_c, 0, 67, 50
1, 139680, Note_on_c, 0, 73, 60
1, 139680, Note_on_c, 0, 57, 49
1, 139685, Control_c, 0, 64, 0
1, 139920, Note_on_c, 0, 73, 0
1, 140040, Note_on_c, 0, 73, 55
1, 140160, Tempo, 423669
1, 140160, Note_on_c, 0, 73, 0
1, 140160, Note_on_c, 0, 57, 0
1, 140160, Note_on_c, 0, 67, 0
1, 140160, Note_on_c, 0, 66, 51
1, 140160, Note_on_c, 0, 74, 61
1, 140160, Note_on_c, 0, 50, 40
1, 140640, Tempo, 431593
1, 140640, Note_on_c, 0, 50, 0
1, 140640, Note_on_c, 0, 74, 0
1, 140640, Note_on_c, 0, 66, 0
1, 140640, Note_on_c, 0, 65, 49
1, 140640, Note_on_c, 0, 71, 59
1, 140640, Note_on_c, 0, 38, 40
1, 141120, Tempo, 429984
1, 141120, Note_on_c, 0, 38, 0
1, 141120, Note_on_c, 0, 71, 0
1, 141120, Note_on_c, 0, 65, 0
1, 141120, Note_on_c, 0, 62, 50
1, 141120, Note_on_c, 0, 68, 60
1, 141120, Note_on_c, 0, 40, 47
1, 141219, Control_c, 0, 64, 127
1, 141480, Note_on_c, 0, 68, 0
1, 141480, Note_on_c, 0, 64, 57
1, 141600, Tempo, 426803
1, 141600, Note_on_c, 0, 64, 0
1, 141600, Note_on_c, 0, 40, 0
1, 141600, Note_on_c, 0, 62, 0
1, 141600, Note_on_c, 0, 61, 50
1, 141600, Note_on_c, 0, 69, 60
1, 141600, Note_on_c, 0, 45, 39
1, 141616, Control_c, 0, 64, 0
1, 141784, Control_c, 0, 64, 127
1, 142080, Tempo, 433213
1, 142080, Note_on_c, 0, 45, 0
1, 142080, Note_on_c, 0, 52, 44
1, 142320, Note_on_c, 0, 69, 0
1, 142320, Note_on_c, 0, 61, 0
1, 142320, Note_on_c, 0, 68, 50
1, 142320, Note_on_c, 0, 71, 60
1, 142330, Control_c, 0, 64, 0
1, 142560, Tempo, 436459
1, 142560, Note_on_c, 0, 71, 0
1, 142560, Note_on_c, 0, 68, 0
1, 142560, Note_on_c, 0, 52, 0
1, 142560, Note_on_c, 0, 67, 51
1, 142560, Note_on_c, 0, 73, 61
1, 142560, Note_on_c, 0, 57, 49
1, 142920, Note_on_c, 0, 73, 0
1, 142920, Note_on_c, 0, 76, 60
1, 143040, Tempo, 428388
1, 143040, Note_on_c, 0, 76, 0
1, 143040, Note_on_c, 0, 57, 0
1, 143040, Note_on_c, 0, 67, 0
1, 143040, Note_on_c, 0, 66, 53
1, 143040, Note_on_c, 0, 74, 63
1, 143040, Note_on_c, 0, 50, 46
1, 143520, Tempo, 433213
1, 143520, Note_on_c, 0, 50, 0
1, 143520, Note_on_c, 0, 74, 0
1, 143520, Note_on_c, 0, 66, 0
1, 143520, Note_on_c, 0, 65, 50
1, 143520, Note_on_c, 0, 71, 60
1, 143520, Note_on_c, 0, 38, 40
1, 144000, Tempo, 426803
1, 144000, Note_on_c, 0, 38, 0
1, 144000, Note_on_c, 0, 71, 0
1, 144000, Note_on_c, 0, 65, 0
1, 144000, Note_on_c, 0, 62, 51
1, 144000, Note_on_c, 0, 68, 61
1, 144000, Note_on_c, 0, 40, 46
1, 144127, Control_c, 0, 64, 127
1, 144160, Note_on_c, 0, 68, 0
1, 144160, Note_on_c, 0, 66, 63
1, 144320, Note_on_c, 0, 66, 0
1, 144320, Note_on_c, 0, 64, 64
1, 144480, Tempo, 431593
1, 144480, Note_on_c, 0, 64, 0
1, 144480, Note_on_c, 0, 40, 0
1, 144480, Note_on_c, 0, 62, 0
1, 144480, Note_on_c, 0, 61, 58
1, 144480, Note_on_c, 0, 69, 69
1, 144480, Note_on_c, 0, 45, 40
1, 144493, Control_c, 0, 64, 0
1, 144657, Control_c, 0, 64, 127
1, 144960, Note_on_c, 0, 45, 0
1, 144960, Note_on_c, 0, 52, 46
1, 145200, Note_on_c, 0, 69, 0
1, 145200, Note_on_c, 0, 61, 0
1, 145200, Note_on_c, 0, 68, 50
1, 145200, Note_on_c, 0, 71, 60
1, 145207, Control_c, 0, 64, 0
1, 145440, Tempo, 381194
1, 145440, Note_on_c, 0, 71, 0
1, 145440, Note_on_c, 0, 68, 0
1, 145440, Note_on_c, 0, 52, 0
1, 145440, Note_on_c, 0, 67, 49
1, 145440, Note_on_c, 0, 73, 58
1, 145440, Note_on_c, 0, 57, 49
1, 145500, Note_on_c, 0, 73, 0
1, 145500, Note_on_c, 0, 67, 0
1, 145600, Note_on_c, 0, 67, 50
1, 145600, Note_on_c, 0, 73, 60
1, 145660, Note_on_c, 0, 73, 0
1, 145660, Note_on_c, 0, 67, 0
1, 145760, Note_on_c, 0, 67, 52
1, 145760, Note_on_c, 0, 73, 62
1, 145820, Note_on_c, 0, 73, 0
1, 145820, Note_on_c, 0, 67, 0
1, 145920, Tempo, 423669
1, 145920, Note_on_c, 0, 57, 0
1, 145920, Note_on_c, 0, 66, 56
1, 145920, Note_on_c, 0, 74, 66
1, 145920, Note_on_c, 0, 50, 40
1, 146160, Note_on_c, 0, 74, 0
1, 146160, Note_on_c, 0, 66, 0
1, 146400, Tempo, 431593
1, 146400, Note_on_c, 0, 50, 0
1, 146400, Note_on_c, 0, 65, 49
1, 146400, Note_on_c, 0, 71, 59
1, 146400, Note_on_c, 0, 38, 40
1, 146880, Tempo, 381194
1, 146880, Note_on_c, 0, 38, 0
1, 146880, Note_on_c, 0, 71, 0
1, 146880, Note_on_c, 0, 65, 0
1, 146880, Note_on_c, 0, 62, 51
1, 146880, Note_on_c, 0, 68, 61
1, 146880, Note_on_c, 0, 40, 47
1, 146940, Note_on_c, 0, 68, 0
1, 146940, Note_on_c, 0, 62, 0
1, 147040, Note_on_c, 0, 62, 48
1, 147040, Note_on_c, 0, 66, 57
1, 147100, Note_on_c, 0, 66, 0
1, 147100, Note_on_c, 0, 62, 0
1, 147200, Note_on_c, 0, 62, 48
1, 147200, Note_on_c, 0, 64, 57
1, 147260, Note_on_c, 0, 64, 0
1, 147260, Note_on_c, 0, 62, 0
1, 147360, Tempo, 426803
1, 147360, Note_on_c, 0, 40, 0
1, 147360, Note_on_c, 0, 61, 50
1, 147360, Note_on_c, 0, 69, 60
1, 147360, Note_on_c, 0, 45, 39
1, 147477, Control_c, 0, 64, 127
1, 147840, Tempo, 433213
1, 147840, Note_on_c, 0, 45, 0
1, 147840, Note_on_c, 0, 52, 44
1, 148080, Note_on_c, 0, 69, 0
1, 148080, Note_on_c, 0, 61, 0
1, 148080, Note_on_c, 0, 68, 50
1, 148080, Note_on_c, 0, 71, 60
1, 148091, Control_c, 0, 64, 0
1, 148320, Tempo, 383142
1, 148320, Note_on_c, 0, 71, 0
1, 148320, Note_on_c, 0, 68, 0
1, 148320, Note_on_c, 0, 52, 0
1, 148320, Note_on_c, 0, 67, 48
1, 148320, Note_on_c, 0, 73, 57
1, 148320, Note_on_c, 0, 57, 49
1, 148380, Note_on_c, 0, 73, 0
1, 148380, Note_on_c, 0, 67, 0
1, 148480, Note_on_c, 0, 67, 50
1, 148480, Note_on_c, 0, 74, 60
1, 148540, Note_on_c, 0, 74, 0
1, 148540, Note_on_c, 0, 67, 0
1, 148640, Note_on_c, 0, 67, 53
1, 148640, Note_on_c, 0, 76, 63
1, 148700, Note_on_c, 0, 76, 0
1, 148700, Note_on_c, 0, 67, 0
1, 148800, Tempo, 428388
1, 148800, Note_on_c, 0, 57, 0
1, 148800, Note_on_c, 0, 66, 57
1, 148800, Note_on_c, 0, 74, 68
1, 148800, Note_on_c, 0, 50, 46
1, 149040, Note_on_c, 0, 74, 0
1, 149040, Note_on_c, 0, 66, 0
1, 149280, Tempo, 433213
1, 149280, Note_on_c, 0, 50, 0
1, 149280, Note_on_c, 0, 65, 50
1, 149280, Note_on_c, 0, 71, 60
1, 149280, Note_on_c, 0, 38, 40
1, 149760, Tempo, 443164
1, 149760, Note_on_c, 0, 38, 0
1, 149760, Note_on_c, 0, 71, 0
1, 149760, Note_on_c, 0, 65, 0
1, 149760, Note_on_c, 0, 62, 51
1, 149760, Note_on_c, 0, 68, 61
1, 149760, Note_on_c, 0, 40, 46
1, 149820, Note_on_c, 0, 68, 0
1, 149820, Note_on_c, 0, 62, 0
1, 149920, Note_on_c, 0, 62, 51
1, 149920, Note_on_c, 0, 66, 63
1, 149980, Note_on_c, 0, 66, 0
1, 149980, Note_on_c, 0, 62, 0
1, 150080, Note_on_c, 0, 62, 51
1, 150080, Note_on_c, 0, 64, 64
1, 150140, Note_on_c, 0, 64, 0
1, 150140, Note_on_c, 0, 62, 0
1, 150240, Tempo, 884956
1, 150240, Note_on_c, 0, 40, 0
1, 150240, Note_on_c, 0, 61, 57
1, 150240, Note_on_c, 0, 69, 68
1, 150240, Note_on_c, 0, 33, 34
1, 150240, Note_on_c, 0, 45, 40
1, 150344, Control_c, 0, 64, 127
1, 150720, Tempo, 458015
1, 150720, Note_on_c, 0, 45, 0
1, 150720, Note_on_c, 0, 61, 0
1, 150720, Note_on_c, 0, 69, 0
1, 150720, Note_on_c, 0, 33, 0
1, 150720, Note_on_c, 0, 76, 45
1, 150737, Control_c, 0, 64, 0
1, 151200, Key_signature, 0, "major"
1, 151200, Tempo, 416667
1, 151200, Note_on_c, 0, 76, 0
1, 151200, Note_on_c, 0, 77, 46
1, 151560, Note_on_c, 0, 77, 0
1, 151560, Note_on_c, 0, 76, 45
1, 151680, Tempo, 430108
1, 151680, Note_on_c, 0, 76, 0
1, 151680, Note_on_c, 0, 74, 45
1, 151680, Note_on_c, 0, 65, 27
1, 151680, Note_on_c, 0, 62, 22
1, 151680, Note_on_c, 0, 57, 22
1, 151793, Control_c, 0, 64, 127
1, 151920, Tempo, 425532
1, 152160, Tempo, 447761
1, 152160, Note_on_c, 0, 57, 0
1, 152160, Note_on_c, 0, 74, 0
1, 152160, Note_on_c, 0, 65, 0
1, 152160, Note_on_c, 0, 62, 0
1, 152160, Note_on_c, 0, 77, 48
1, 152160, Note_on_c, 0, 65, 27
1, 152160, Note_on_c, 0, 62, 22
1, 152160, Note_on_c, 0, 57, 22
1, 152400, Tempo, 610998
1, 152635, Note_on_c, 0, 77, 0
1, 152640, Tempo, 428571
1, 152640, Note_on_c, 0, 65, 0
1, 152640, Note_on_c, 0, 62, 0
1, 152640, Note_on_c, 0, 57, 0
1, 152640, Note_on_c, 0, 77, 47
1, 152645, Control_c, 0, 64, 0
1, 152680, Tempo, 421053
1, 153014, Control_c, 0, 64, 127
1, 153120, Note_on_c, 0, 65, 25
1, 153120, Note_on_c, 0, 60, 21
1, 153120, Note_on_c, 0, 57, 21
1, 153360, Tempo, 431655
1, 153600, Note_on_c, 0, 57, 0
1, 153600, Note_on_c, 0, 77, 0
1, 153600, Note_on_c, 0, 65, 0
1, 153600, Note_on_c, 0, 60, 0
1, 153600, Note_on_c, 0, 76, 43
1, 153600, Note_on_c, 0, 64, 25
1, 153600, Note_on_c, 0, 60, 21
1, 153600, Note_on_c, 0, 57, 21
1, 153619, Control_c, 0, 64, 0
1, 154080, Tempo, 422535
1, 154080, Note_on_c, 0, 57, 0
1, 154080, Note_on_c, 0, 76, 0
1, 154080, Note_on_c, 0, 64, 0
1, 154080, Note_on_c, 0, 60, 0
1, 154080, Note_on_c, 0, 74, 42
1, 154160, Note_on_c, 0, 74, 0
1, 154160, Note_on_c, 0, 76, 43
1, 154240, Note_on_c, 0, 76, 0
1, 154240, Note_on_c, 0, 74, 44
1, 154320, Note_on_c, 0, 74, 0
1, 154320, Note_on_c, 0, 73, 45
1, 154560, Tempo, 431655
1, 154560, Note_on_c, 0, 73, 0
1, 154560, Note_on_c, 0, 74, 47
1, 154560, Note_on_c, 0, 62, 28
1, 154560, Note_on_c, 0, 52, 23
1, 154560, Note_on_c, 0, 56, 23
1, 154800, Note_on_c, 0, 74, 0
1, 154800, Note_on_c, 0, 75, 45
1, 155040, Tempo, 442804
1, 155040, Note_on_c, 0, 75, 0
1, 155040, Note_on_c, 0, 56, 0
1, 155040, Note_on_c, 0, 52, 0
1, 155040, Note_on_c, 0, 62, 0
1, 155040, Note_on_c, 0, 76, 51
1, 155040, Note_on_c, 0, 62, 25
1, 155040, Note_on_c, 0, 56, 21
1, 155040, Note_on_c, 0, 52, 21
1, 155280, Tempo, 483871
1, 155280, Note_on_c, 0, 76, 0
1, 155280, Note_on_c, 0, 71, 46
1, 155520, Tempo, 431655
1, 155520, Note_on_c, 0, 71, 0
1, 155520, Note_on_c, 0, 52, 0
1, 155520, Note_on_c, 0, 56, 0
1, 155520, Note_on_c, 0, 62, 0
1, 155520, Note_on_c, 0, 74, 54
1, 156000, Note_on_c, 0, 45, 30
1, 156080, Control_c, 0, 64, 127
1, 156480, Note_on_c, 0, 45, 0
1, 156480, Note_on_c, 0, 74, 0
1, 156480, Note_on_c, 0, 72, 45
1, 156480, Note_on_c, 0, 60, 28
1, 156480, Note_on_c, 0, 52, 22
1, 156960, Tempo, 415225
1, 156960, Note_on_c, 0, 52, 0
1, 156960, Note_on_c, 0, 60, 0
1, 156960, Note_on_c, 0, 72, 0
1, 156960, Note_on_c, 0, 69, 62
1, 156964, Control_c, 0, 64, 0
1, 157052, Control_c, 0, 64, 127
1, 157120, Note_on_c, 0, 69, 0
1, 157120, Note_on_c, 0, 71, 57
1, 157280, Note_on_c, 0, 71, 0
1, 157280, Note_on_c, 0, 69, 57
1, 157440, Note_on_c, 0, 69, 0
1, 157440, Note_on_c, 0, 68, 63
1, 157440, Note_on_c, 0, 52, 39
1, 157440, Note_on_c, 0, 60, 46
1, 157450, Control_c, 0, 64, 0
1, 157680, Note_on_c, 0, 60, 0
1, 157680, Note_on_c, 0, 52, 0
1, 157680, Note_on_c, 0, 68, 0
1, 157920, Tempo, 415225
1, 157920, Note_on_c, 0, 69, 67
1, 157920, Note_on_c, 0, 45, 48
1, 158160, Note_on_c, 0, 45, 0
1, 158160, Note_on_c, 0, 69, 0
1, 158400, Tempo, 430108
1, 158400, Note_on_c, 0, 71, 70
1, 158640, Note_on_c, 0, 71, 0
1, 158880, Tempo, 419580
1, 158880, Note_on_c, 0, 76, 72
1, 158880, Note_on_c, 0, 52, 41
1, 158880, Note_on_c, 0, 59, 49
1, 158880, Note_on_c, 0, 55, 41
1, 159007, Control_c, 0, 64, 127
1, 159360, Tempo, 425532
1, 159360, Note_on_c, 0, 55, 0
1, 159360, Note_on_c, 0, 59, 0
1, 159360, Note_on_c, 0, 52, 0
1, 159360, Note_on_c, 0, 47, 56
1, 159840, Tempo, 418118
1, 159840, Note_on_c, 0, 47, 0
1, 159840, Note_on_c, 0, 76, 0
1, 159840, Note_on_c, 0, 71, 76
1, 159848, Control_c, 0, 64, 0
1, 160024, Control_c, 0, 64, 127
1, 160080, Note_on_c, 0, 71, 0
1, 160080, Note_on_c, 0, 67, 73
1, 160320, Note_on_c, 0, 67, 0
1, 160320, Note_on_c, 0, 64, 76
1, 160320, Note_on_c, 0, 47, 45
1, 160320, Note_on_c, 0, 55, 45
1, 160320, Note_on_c, 0, 59, 54
1, 160560, Note_on_c, 0, 64, 0
1, 160560, Note_on_c, 0, 71, 71
1, 160800, Tempo, 433213
1, 160800, Note_on_c, 0, 71, 0
1, 160800, Note_on_c, 0, 59, 0
1, 160800, Note_on_c, 0, 55, 0
1, 160800, Note_on_c, 0, 47, 0
1, 160800, Note_on_c, 0, 63, 73
1, 160800, Note_on_c, 0, 47, 41
1, 160800, Note_on_c, 0, 54, 41
1, 160800, Note_on_c, 0, 59, 49
1, 160809, Control_c, 0, 64, 0
1, 160941, Control_c, 0, 64, 127
1, 161280, Note_on_c, 0, 59, 0
1, 161280, Note_on_c, 0, 63, 0
1, 161280, Note_on_c, 0, 47, 0
1, 161280, Note_on_c, 0, 54, 0
1, 161280, Note_on_c, 0, 64, 76
1, 161280, Note_on_c, 0, 52, 45
1, 161280, Note_on_c, 0, 55, 45
1, 161280, Note_on_c, 0, 59, 54
1, 161284, Control_c, 0, 64, 0
1, 161467, Control_c, 0, 64, 127
1, 161760, Tempo, 458015
1, 161760, Note_on_c, 0, 59, 0
1, 161760, Note_on_c, 0, 55, 0
1, 161760, Note_on_c, 0, 52, 0
1, 161760, Note_on_c, 0, 40, 50
1, 162240, Tempo, 430108
1, 162240, Note_on_c, 0, 40, 0
1, 162240, Note_on_c, 0, 64, 0
1, 162240, Note_on_c, 0, 76, 45
1, 162254, Control_c, 0, 64, 0
1, 162720, Tempo, 416667
1, 162720, Note_on_c, 0, 76, 0
1, 162720, Note_on_c, 0, 77, 46
1, 163080, Note_on_c, 0, 77, 0
1, 163080, Note_on_c, 0, 76, 45
1, 163200, Tempo, 430108
1, 163200, Note_on_c, 0, 76, 0
1, 163200, Note_on_c, 0, 74, 45
1, 163200, Note_on_c, 0, 65, 27
1, 163200, Note_on_c, 0, 62, 22
1, 163200, Note_on_c, 0, 57, 22
1, 163391, Control_c, 0, 64, 127
1, 163440, Tempo, 425532
1, 163680, Tempo, 437956
1, 163680, Note_on_c, 0, 57, 0
1, 163680, Note_on_c, 0, 74, 0
1, 163680, Note_on_c, 0, 65, 0
1, 163680, Note_on_c, 0, 62, 0
1, 163680, Note_on_c, 0, 77, 48
1, 163680, Note_on_c, 0, 65, 27
1, 163680, Note_on_c, 0, 62, 22
1, 163680, Note_on_c, 0, 57, 22
1, 163920, Tempo, 659341
1, 164156, Note_on_c, 0, 77, 0
1, 164160, Tempo, 428571
1, 164160, Note_on_c, 0, 65, 0
1, 164160, Note_on_c, 0, 62, 0
1, 164160, Note_on_c, 0, 57, 0
1, 164160, Note_on_c, 0, 77, 47
1, 164169, Control_c, 0, 64, 0
1, 164200, Tempo, 421053
1, 164374, Control_c, 0, 64, 127
1, 164640, Note_on_c, 0, 65, 25
1, 164640, Note_on_c, 0, 60, 21
1, 164640, Note_on_c, 0, 57, 21
1, 164880, Tempo, 431655
1, 165120, Note_on_c, 0, 57, 0
1, 165120, Note_on_c, 0, 77, 0
1, 165120, Note_on_c, 0, 65, 0
1, 165120, Note_on_c, 0, 60, 0
1, 165120, Note_on_c, 0, 76, 43
1, 165120, Note_on_c, 0, 64, 25
1, 165120, Note_on_c, 0, 60, 21
1, 165120, Note_on_c, 0, 57, 21
1, 165134, Control_c, 0, 64, 0
1, 165600, Tempo, 422535
1, 165600, Note_on_c, 0, 57, 0
1, 165600, Note_on_c, 0, 76, 0
1, 165600, Note_on_c, 0, 64, 0
1, 165600, Note_on_c, 0, 60, 0
1, 165600, Note_on_c, 0, 74, 42
1, 165680, Note_on_c, 0, 74, 0
1, 165680, Note_on_c, 0, 76, 43
1, 165760, Note_on_c, 0, 76, 0
1, 165760, Note_on_c, 0, 74, 44
1, 165840, Note_on_c, 0, 74, 0
1, 165840, Note_on_c, 0, 73, 45
1, 166080, Tempo, 431655
1, 166080, Note_on_c, 0, 73, 0
1, 166080, Note_on_c, 0, 74, 47
1, 166080, Note_on_c, 0, 62, 28
1, 166080, Note_on_c, 0, 52, 23
1, 166080, Note_on_c, 0, 56, 23
1, 166320, Note_on_c, 0, 74, 0
1, 166320, Note_on_c, 0, 75, 45
1, 166560, Tempo, 449438
1, 166560, Note_on_c, 0, 75, 0
1, 166560, Note_on_c, 0, 56, 0
1, 166560, Note_on_c, 0, 52, 0
1, 166560, Note_on_c, 0, 62, 0
1, 166560, Note_on_c, 0, 76, 47
1, 166560, Note_on_c, 0, 62, 25
1, 166560, Note_on_c, 0, 56, 21
1, 166560, Note_on_c, 0, 52, 21
1, 166800, Tempo, 521739
1, 166800, Note_on_c, 0, 76, 0
1, 166800, Note_on_c, 0, 71, 42
1, 166915, Note_on_c, 0, 71, 0
1, 166920, Note_on_c, 0, 71, 42
1, 167040, Tempo, 422535
1, 167040, Note_on_c, 0, 71, 0
1, 167040, Note_on_c, 0, 62, 0
1, 167040, Note_on_c, 0, 56, 0
1, 167040, Note_on_c, 0, 52, 0
1, 167040, Note_on_c, 0, 74, 53
1, 167520, Tempo, 431655
1, 167520, Note_on_c, 0, 53, 21
1, 167520, Note_on_c, 0, 57, 21
1, 167520, Note_on_c, 0, 62, 28
1, 167600, Control_c, 0, 64, 127
1, 168000, Note_on_c, 0, 62, 0
1, 168000, Note_on_c, 0, 74, 0
1, 168000, Note_on_c, 0, 53, 0
1, 168000, Note_on_c, 0, 57, 0
1, 168000, Note_on_c, 0, 72, 45
1, 168000, Note_on_c, 0, 57, 21
1, 168000, Note_on_c, 0, 60, 26
1, 168000, Note_on_c, 0, 53, 21
1, 168480, Tempo, 415225
1, 168480, Note_on_c, 0, 53, 0
1, 168480, Note_on_c, 0, 72, 0
1, 168480, Note_on_c, 0, 57, 0
1, 168480, Note_on_c, 0, 60, 0
1, 168480, Note_on_c, 0, 69, 41
1, 168488, Control_c, 0, 64, 0
1, 168572, Control_c, 0, 64, 127
1, 168640, Note_on_c, 0, 69, 0
1, 168640, Note_on_c, 0, 70, 38
1, 168800, Note_on_c, 0, 70, 0
1, 168800, Note_on_c, 0, 69, 38
1, 168960, Tempo, 456274
1, 168960, Note_on_c, 0, 69, 0
1, 168960, Note_on_c, 0, 67, 42
1, 168960, Note_on_c, 0, 60, 26
1, 168960, Note_on_c, 0, 53, 26
1, 168960, Note_on_c, 0, 63, 30
1, 168968, Control_c, 0, 64, 0
1, 169440, Tempo, 494234
1, 169440, Note_on_c, 0, 63, 0
1, 169440, Note_on_c, 0, 67, 0
1, 169440, Note_on_c, 0, 60, 0
1, 169440, Note_on_c, 0, 53, 0
1, 169440, Note_on_c, 0, 69, 45
1, 169440, Note_on_c, 0, 53, 26
1, 169440, Note_on_c, 0, 60, 26
1, 169440, Note_on_c, 0, 63, 30
1, 169920, Tempo, 582524
1, 169920, Note_on_c, 0, 63, 0
1, 169920, Note_on_c, 0, 69, 0
1, 169920, Note_on_c, 0, 53, 0
1, 169920, Note_on_c, 0, 60, 0
1, 169920, Note_on_c, 0, 70, 47
1, 169920, Note_on_c, 0, 58, 30
1, 169920, Note_on_c, 0, 62, 33
1, 170080, Control_c, 0, 64, 127
1, 170400, Tempo, 529101
1, 170400, Note_on_c, 0, 62, 0
1, 170400, Note_on_c, 0, 70, 0
1, 170400, Note_on_c, 0, 74, 48
1, 170400, Note_on_c, 0, 65, 33
1, 170880, Tempo, 564972
1, 170880, Note_on_c, 0, 65, 0
1, 170880, Note_on_c, 0, 74, 0
1, 170880, Note_on_c, 0, 58, 0
1, 170885, Control_c, 0, 64, 0
1, 171360, Tempo, 478469
1, 171360, Note_on_c, 0, 69, 40
1, 171431, Control_c, 0, 64, 127
1, 171720, Note_on_c, 0, 69, 0
1, 171720, Note_on_c, 0, 68, 37
1, 171840, Tempo, 500835
1, 171840, Note_on_c, 0, 68, 0
1, 171840, Note_on_c, 0, 62, 34
1, 171840, Note_on_c, 0, 64, 40
1, 171840, Note_on_c, 0, 52, 24
1, 171840, Note_on_c, 0, 59, 29
1, 171856, Control_c, 0, 64, 0
1, 171966, Control_c, 0, 64, 127
1, 172320, Tempo, 525394
1, 172320, Note_on_c, 0, 59, 0
1, 172320, Note_on_c, 0, 62, 0
1, 172320, Note_on_c, 0, 64, 0
1, 172320, Note_on_c, 0, 52, 0
1, 172320, Note_on_c, 0, 68, 38
1, 172320, Note_on_c, 0, 62, 32
1, 172320, Note_on_c, 0, 52, 22
1, 172320, Note_on_c, 0, 59, 26
1, 172329, Control_c, 0, 64, 0
1, 172461, Control_c, 0, 64, 127
1, 172800, Tempo, 573614
1, 172800, Note_on_c, 0, 59, 0
1, 172800, Note_on_c, 0, 68, 0
1, 172800, Note_on_c, 0, 62, 0
1, 172800, Note_on_c, 0, 52, 0
1, 172800, Note_on_c, 0, 60, 33
1, 172800, Note_on_c, 0, 69, 39
1, 172800, Control_c, 0, 64, 0
1, 172800, Note_on_c, 0, 45, 24
1, 172800, Note_on_c, 0, 52, 29
1, 172987, Control_c, 0, 64, 127
1, 173280, Tempo, 536673
1, 173280, Note_on_c, 0, 52, 0
1, 173280, Note_on_c, 0, 45, 0
1, 173280, Note_on_c, 0, 60, 0
1, 173280, Note_on_c, 0, 33, 25
1, 173760, Note_on_c, 0, 33, 0
1, 173760, Note_on_c, 0, 69, 0
1, 173814, Control_c, 0, 64, 0
1, 174240, Tempo, 600000
1, 174240, End_track
0, 0, End_of_file
