0, 0, Header, 0, 1, 480
1, 0, Start_track
1, 0, Title_t, "Chopin Etude  No. 12, Opus 25"
1, 0, Copyright_t, "Copyright © 2003 by Bernd Krueger "
1, 0, Text_t, "Frederic Chopin"
1, 0, Text_t, "Allegro molto con fuoco"
1, 0, Text_t, "Fertiggestellt am  31.3.2003\012"
1, 0, Text_t, "Dauer: 2:19 Minuten\012"
1, 0, SMPTE_offset, 96, 0, 3, 0, 0
1, 0, Time_signature, 4, 2, 24, 8
1, 0, Key_signature, -3, "major"
1, 0, Tempo, 428571
1, 0, Program_c, 0, 1
1, 0, Control_c, 0, 7, 100
1, 0, Control_c, 0, 10, 64
1, 0, Note_on_c, 0, 51, 83
1, 0, Text_t, "bdca426d104a26ac9dcb070447587523"
1, 0, Control_c, 0, 91, 127
1, 0, Program_c, 0, 1
1, 0, Control_c, 0, 7, 100
1, 0, Control_c, 0, 10, 64
1, 0, Control_c, 0, 64, 127
1, 0, Note_on_c, 0, 36, 61
1, 40, Tempo, 425532
1, 80, Tempo, 422535
1, 119, Note_on_c, 0, 36, 0
1, 119, Note_on_c, 0, 51, 0
1, 120, Tempo, 419580
1, 120, Note_on_c, 0, 55, 52
1, 120, Note_on_c, 0, 43, 41
1, 160, Tempo, 416667
1, 200, Tempo, 413793
1, 239, Note_on_c, 0, 43, 0
1, 239, Note_on_c, 0, 55, 0
1, 240, Tempo, 409556
1, 240, Note_on_c, 0, 63, 52
1, 240, Note_on_c, 0, 48, 41
1, 280, Tempo, 406780
1, 320, Tempo, 404040
1, 359, Note_on_c, 0, 48, 0
1, 359, Note_on_c, 0, 63, 0
1, 360, Tempo, 401338
1, 360, Note_on_c, 0, 63, 53
1, 360, Note_on_c, 0, 48, 42
1, 400, Tempo, 398671
1, 440, Tempo, 394737
1, 479, Note_on_c, 0, 48, 0
1, 479, Note_on_c, 0, 63, 0
1, 480, Tempo, 393443
1, 480, Note_on_c, 0, 67, 62
1, 480, Note_on_c, 0, 55, 53
1, 520, Tempo, 392157
1, 599, Note_on_c, 0, 55, 0
1, 599, Note_on_c, 0, 67, 0
1, 600, Tempo, 390879
1, 600, Note_on_c, 0, 75, 55
1, 600, Note_on_c, 0, 60, 44
1, 680, Tempo, 389610
1, 719, Note_on_c, 0, 60, 0
1, 719, Note_on_c, 0, 75, 0
1, 720, Note_on_c, 0, 75, 53
1, 720, Note_on_c, 0, 60, 42
1, 760, Tempo, 388350
1, 839, Note_on_c, 0, 60, 0
1, 839, Note_on_c, 0, 75, 0
1, 840, Tempo, 387097
1, 840, Note_on_c, 0, 79, 53
1, 840, Note_on_c, 0, 67, 42
1, 920, Tempo, 385852
1, 959, Note_on_c, 0, 67, 0
1, 959, Note_on_c, 0, 79, 0
1, 960, Tempo, 384615
1, 960, Note_on_c, 0, 87, 71
1, 960, Note_on_c, 0, 72, 51
1, 1040, Tempo, 385852
1, 1079, Note_on_c, 0, 72, 0
1, 1079, Note_on_c, 0, 87, 0
1, 1080, Note_on_c, 0, 79, 57
1, 1080, Note_on_c, 0, 67, 42
1, 1120, Tempo, 387097
1, 1199, Note_on_c, 0, 67, 0
1, 1199, Note_on_c, 0, 79, 0
1, 1200, Tempo, 388350
1, 1200, Note_on_c, 0, 75, 57
1, 1200, Note_on_c, 0, 60, 42
1, 1280, Tempo, 389610
1, 1319, Note_on_c, 0, 60, 0
1, 1319, Note_on_c, 0, 75, 0
1, 1320, Note_on_c, 0, 75, 57
1, 1320, Note_on_c, 0, 60, 42
1, 1360, Tempo, 390879
1, 1439, Note_on_c, 0, 60, 0
1, 1439, Note_on_c, 0, 75, 0
1, 1440, Tempo, 393443
1, 1440, Note_on_c, 0, 67, 64
1, 1440, Note_on_c, 0, 55, 50
1, 1480, Tempo, 401338
1, 1520, Tempo, 404040
1, 1559, Note_on_c, 0, 55, 0
1, 1559, Note_on_c, 0, 67, 0
1, 1560, Tempo, 408163
1, 1560, Note_on_c, 0, 63, 55
1, 1560, Note_on_c, 0, 48, 42
1, 1600, Tempo, 412371
1, 1640, Tempo, 415225
1, 1679, Note_on_c, 0, 48, 0
1, 1679, Note_on_c, 0, 63, 0
1, 1680, Tempo, 419580
1, 1680, Note_on_c, 0, 63, 56
1, 1680, Note_on_c, 0, 48, 42
1, 1720, Tempo, 424028
1, 1760, Tempo, 428571
1, 1799, Note_on_c, 0, 48, 0
1, 1799, Note_on_c, 0, 63, 0
1, 1800, Tempo, 439560
1, 1800, Note_on_c, 0, 55, 56
1, 1800, Note_on_c, 0, 43, 42
1, 1840, Tempo, 446097
1, 1880, Tempo, 402685
1, 1919, Note_on_c, 0, 43, 0
1, 1919, Note_on_c, 0, 55, 0
1, 1920, Tempo, 410959
1, 1920, Note_on_c, 0, 50, 84
1, 1920, Text_t, "bdca426d104a26ac9dcb070447587523"
1, 1920, Control_c, 0, 91, 127
1, 1920, Note_on_c, 0, 36, 59
1, 1948, Control_c, 0, 64, 0
1, 1960, Tempo, 409556
1, 2000, Tempo, 408163
1, 2005, Control_c, 0, 64, 127
1, 2039, Note_on_c, 0, 36, 0
1, 2039, Note_on_c, 0, 50, 0
1, 2040, Tempo, 406780
1, 2040, Note_on_c, 0, 56, 52
1, 2040, Note_on_c, 0, 41, 46
1, 2080, Tempo, 405405
1, 2120, Tempo, 402685
1, 2159, Note_on_c, 0, 41, 0
1, 2159, Note_on_c, 0, 56, 0
1, 2160, Tempo, 401338
1, 2160, Note_on_c, 0, 62, 52
1, 2160, Note_on_c, 0, 48, 40
1, 2200, Tempo, 400000
1, 2240, Tempo, 398671
1, 2279, Note_on_c, 0, 48, 0
1, 2279, Note_on_c, 0, 62, 0
1, 2280, Tempo, 397351
1, 2280, Note_on_c, 0, 62, 52
1, 2280, Note_on_c, 0, 48, 40
1, 2320, Tempo, 394737
1, 2399, Note_on_c, 0, 48, 0
1, 2399, Note_on_c, 0, 62, 0
1, 2400, Tempo, 394737
1, 2400, Note_on_c, 0, 68, 67
1, 2400, Note_on_c, 0, 53, 57
1, 2480, Tempo, 393443
1, 2519, Note_on_c, 0, 53, 0
1, 2519, Note_on_c, 0, 68, 0
1, 2520, Note_on_c, 0, 74, 55
1, 2520, Note_on_c, 0, 60, 40
1, 2560, Tempo, 392157
1, 2639, Note_on_c, 0, 60, 0
1, 2639, Note_on_c, 0, 74, 0
1, 2640, Tempo, 390879
1, 2640, Note_on_c, 0, 74, 53
1, 2640, Note_on_c, 0, 60, 40
1, 2720, Tempo, 389610
1, 2759, Note_on_c, 0, 60, 0
1, 2759, Note_on_c, 0, 74, 0
1, 2760, Note_on_c, 0, 80, 53
1, 2760, Note_on_c, 0, 65, 41
1, 2800, Tempo, 388350
1, 2879, Note_on_c, 0, 65, 0
1, 2879, Note_on_c, 0, 80, 0
1, 2880, Tempo, 387097
1, 2880, Note_on_c, 0, 86, 77
1, 2880, Note_on_c, 0, 72, 56
1, 2999, Note_on_c, 0, 72, 0
1, 2999, Note_on_c, 0, 86, 0
1, 3000, Tempo, 388350
1, 3000, Note_on_c, 0, 80, 58
1, 3000, Note_on_c, 0, 65, 46
1, 3080, Tempo, 389610
1, 3119, Note_on_c, 0, 65, 0
1, 3119, Note_on_c, 0, 80, 0
1, 3120, Note_on_c, 0, 74, 58
1, 3120, Note_on_c, 0, 60, 46
1, 3160, Tempo, 390879
1, 3239, Note_on_c, 0, 60, 0
1, 3239, Note_on_c, 0, 74, 0
1, 3240, Tempo, 392157
1, 3240, Note_on_c, 0, 74, 58
1, 3240, Note_on_c, 0, 60, 46
1, 3320, Tempo, 393443
1, 3359, Note_on_c, 0, 60, 0
1, 3359, Note_on_c, 0, 74, 0
1, 3360, Tempo, 396040
1, 3360, Note_on_c, 0, 68, 66
1, 3360, Note_on_c, 0, 53, 53
1, 3400, Tempo, 400000
1, 3440, Tempo, 402685
1, 3479, Note_on_c, 0, 53, 0
1, 3479, Note_on_c, 0, 68, 0
1, 3480, Tempo, 406780
1, 3480, Note_on_c, 0, 62, 58
1, 3480, Note_on_c, 0, 48, 42
1, 3520, Tempo, 409556
1, 3560, Tempo, 413793
1, 3599, Note_on_c, 0, 48, 0
1, 3599, Note_on_c, 0, 62, 0
1, 3600, Tempo, 418118
1, 3600, Note_on_c, 0, 62, 58
1, 3600, Note_on_c, 0, 48, 42
1, 3640, Tempo, 421053
1, 3680, Tempo, 425532
1, 3719, Note_on_c, 0, 48, 0
1, 3719, Note_on_c, 0, 62, 0
1, 3720, Tempo, 428571
1, 3720, Note_on_c, 0, 56, 57
1, 3720, Note_on_c, 0, 41, 42
1, 3760, Tempo, 433213
1, 3800, Tempo, 437956
1, 3839, Note_on_c, 0, 41, 0
1, 3839, Note_on_c, 0, 56, 0
1, 3840, Tempo, 401338
1, 3840, Note_on_c, 0, 53, 90
1, 3840, Text_t, "bdca426d104a26ac9dcb070447587523"
1, 3840, Control_c, 0, 91, 127
1, 3840, Note_on_c, 0, 36, 64
1, 3845, Control_c, 0, 64, 0
1, 3939, Control_c, 0, 64, 127
1, 3959, Note_on_c, 0, 36, 0
1, 3959, Note_on_c, 0, 53, 0
1, 3960, Tempo, 400000
1, 3960, Note_on_c, 0, 60, 59
1, 3960, Note_on_c, 0, 44, 48
1, 4079, Note_on_c, 0, 44, 0
1, 4079, Note_on_c, 0, 60, 0
1, 4080, Tempo, 398671
1, 4080, Note_on_c, 0, 65, 60
1, 4080, Note_on_c, 0, 48, 48
1, 4160, Tempo, 397351
1, 4199, Note_on_c, 0, 48, 0
1, 4199, Note_on_c, 0, 65, 0
1, 4200, Note_on_c, 0, 65, 60
1, 4200, Note_on_c, 0, 48, 48
1, 4280, Tempo, 396040
1, 4319, Note_on_c, 0, 48, 0
1, 4319, Note_on_c, 0, 65, 0
1, 4320, Note_on_c, 0, 72, 70
1, 4320, Note_on_c, 0, 56, 60
1, 4400, Tempo, 394737
1, 4439, Note_on_c, 0, 56, 0
1, 4439, Note_on_c, 0, 72, 0
1, 4440, Note_on_c, 0, 77, 61
1, 4440, Note_on_c, 0, 60, 48
1, 4480, Tempo, 393443
1, 4559, Note_on_c, 0, 60, 0
1, 4559, Note_on_c, 0, 77, 0
1, 4560, Note_on_c, 0, 77, 61
1, 4560, Note_on_c, 0, 60, 48
1, 4600, Tempo, 392157
1, 4679, Note_on_c, 0, 60, 0
1, 4679, Note_on_c, 0, 77, 0
1, 4680, Note_on_c, 0, 84, 61
1, 4680, Note_on_c, 0, 68, 48
1, 4720, Tempo, 390879
1, 4799, Note_on_c, 0, 68, 0
1, 4799, Note_on_c, 0, 84, 0
1, 4800, Tempo, 389610
1, 4800, Note_on_c, 0, 89, 78
1, 4800, Note_on_c, 0, 72, 59
1, 4919, Note_on_c, 0, 72, 0
1, 4919, Note_on_c, 0, 89, 0
1, 4920, Note_on_c, 0, 84, 63
1, 4920, Note_on_c, 0, 68, 48
1, 4960, Tempo, 390879
1, 5039, Note_on_c, 0, 68, 0
1, 5039, Note_on_c, 0, 84, 0
1, 5040, Note_on_c, 0, 77, 63
1, 5040, Note_on_c, 0, 60, 49
1, 5080, Tempo, 392157
1, 5159, Note_on_c, 0, 60, 0
1, 5159, Note_on_c, 0, 77, 0
1, 5160, Note_on_c, 0, 77, 63
1, 5160, Note_on_c, 0, 60, 49
1, 5200, Tempo, 393443
1, 5279, Note_on_c, 0, 60, 0
1, 5279, Note_on_c, 0, 77, 0
1, 5280, Tempo, 393443
1, 5280, Note_on_c, 0, 72, 72
1, 5280, Note_on_c, 0, 56, 56
1, 5320, Tempo, 397351
1, 5360, Tempo, 401338
1, 5399, Note_on_c, 0, 56, 0
1, 5399, Note_on_c, 0, 72, 0
1, 5400, Tempo, 405405
1, 5400, Note_on_c, 0, 65, 63
1, 5400, Note_on_c, 0, 48, 44
1, 5440, Tempo, 409556
1, 5480, Tempo, 413793
1, 5519, Note_on_c, 0, 48, 0
1, 5519, Note_on_c, 0, 65, 0
1, 5520, Tempo, 418118
1, 5520, Note_on_c, 0, 65, 63
1, 5520, Note_on_c, 0, 48, 44
1, 5560, Tempo, 422535
1, 5600, Tempo, 427046
1, 5639, Note_on_c, 0, 48, 0
1, 5639, Note_on_c, 0, 65, 0
1, 5640, Tempo, 431655
1, 5640, Note_on_c, 0, 60, 63
1, 5640, Note_on_c, 0, 44, 44
1, 5680, Tempo, 436364
1, 5720, Tempo, 441176
1, 5759, Note_on_c, 0, 44, 0
1, 5759, Note_on_c, 0, 60, 0
1, 5760, Tempo, 402685
1, 5760, Note_on_c, 0, 51, 96
1, 5760, Text_t, "bdca426d104a26ac9dcb070447587523"
1, 5760, Control_c, 0, 91, 127
1, 5760, Note_on_c, 0, 36, 73
1, 5765, Control_c, 0, 64, 0
1, 5838, Control_c, 0, 64, 127
1, 5879, Note_on_c, 0, 36, 0
1, 5879, Note_on_c, 0, 51, 0
1, 5880, Tempo, 401338
1, 5880, Note_on_c, 0, 55, 62
1, 5880, Note_on_c, 0, 43, 50
1, 5960, Tempo, 400000
1, 5999, Note_on_c, 0, 43, 0
1, 5999, Note_on_c, 0, 55, 0
1, 6000, Note_on_c, 0, 63, 62
1, 6000, Note_on_c, 0, 48, 50
1, 6040, Tempo, 398671
1, 6119, Note_on_c, 0, 48, 0
1, 6119, Note_on_c, 0, 63, 0
1, 6120, Tempo, 397351
1, 6120, Note_on_c, 0, 63, 63
1, 6120, Note_on_c, 0, 48, 50
1, 6200, Tempo, 396040
1, 6239, Note_on_c, 0, 48, 0
1, 6239, Note_on_c, 0, 63, 0
1, 6240, Note_on_c, 0, 67, 74
1, 6240, Note_on_c, 0, 55, 63
1, 6280, Tempo, 394737
1, 6359, Note_on_c, 0, 55, 0
1, 6359, Note_on_c, 0, 67, 0
1, 6360, Tempo, 393443
1, 6360, Note_on_c, 0, 75, 64
1, 6360, Note_on_c, 0, 60, 51
1, 6440, Tempo, 392157
1, 6479, Note_on_c, 0, 60, 0
1, 6479, Note_on_c, 0, 75, 0
1, 6480, Note_on_c, 0, 75, 63
1, 6480, Note_on_c, 0, 60, 50
1, 6520, Tempo, 390879
1, 6599, Note_on_c, 0, 60, 0
1, 6599, Note_on_c, 0, 75, 0
1, 6600, Tempo, 389610
1, 6600, Note_on_c, 0, 79, 63
1, 6600, Note_on_c, 0, 67, 50
1, 6680, Tempo, 388350
1, 6719, Note_on_c, 0, 67, 0
1, 6719, Note_on_c, 0, 79, 0
1, 6720, Note_on_c, 0, 87, 86
1, 6720, Note_on_c, 0, 72, 62
1, 6800, Tempo, 389610
1, 6839, Note_on_c, 0, 72, 0
1, 6839, Note_on_c, 0, 87, 0
1, 6840, Note_on_c, 0, 79, 67
1, 6840, Note_on_c, 0, 67, 51
1, 6880, Tempo, 390879
1, 6959, Note_on_c, 0, 67, 0
1, 6959, Note_on_c, 0, 79, 0
1, 6960, Note_on_c, 0, 75, 67
1, 6960, Note_on_c, 0, 60, 51
1, 7000, Tempo, 392157
1, 7079, Note_on_c, 0, 60, 0
1, 7079, Note_on_c, 0, 75, 0
1, 7080, Tempo, 393443
1, 7080, Note_on_c, 0, 75, 67
1, 7080, Note_on_c, 0, 60, 50
1, 7199, Note_on_c, 0, 60, 0
1, 7199, Note_on_c, 0, 75, 0
1, 7200, Tempo, 394737
1, 7200, Note_on_c, 0, 67, 74
1, 7200, Note_on_c, 0, 55, 58
1, 7240, Tempo, 398671
1, 7280, Tempo, 404040
1, 7319, Note_on_c, 0, 55, 0
1, 7319, Note_on_c, 0, 67, 0
1, 7320, Tempo, 408163
1, 7320, Note_on_c, 0, 63, 63
1, 7320, Note_on_c, 0, 48, 49
1, 7360, Tempo, 413793
1, 7400, Tempo, 419580
1, 7439, Note_on_c, 0, 48, 0
1, 7439, Note_on_c, 0, 63, 0
1, 7440, Tempo, 424028
1, 7440, Note_on_c, 0, 63, 63
1, 7440, Note_on_c, 0, 48, 49
1, 7480, Tempo, 430108
1, 7520, Tempo, 434783
1, 7559, Note_on_c, 0, 48, 0
1, 7559, Note_on_c, 0, 63, 0
1, 7560, Tempo, 441176
1, 7560, Note_on_c, 0, 55, 63
1, 7560, Note_on_c, 0, 43, 49
1, 7600, Tempo, 447761
1, 7679, Note_on_c, 0, 43, 0
1, 7679, Note_on_c, 0, 55, 0
1, 7680, Tempo, 401338
1, 7680, Note_on_c, 0, 50, 97
1, 7680, Text_t, "bdca426d104a26ac9dcb070447587523"
1, 7680, Control_c, 0, 91, 127
1, 7680, Note_on_c, 0, 36, 66
1, 7708, Control_c, 0, 64, 0
1, 7736, Control_c, 0, 64, 127
1, 7799, Note_on_c, 0, 36, 0
1, 7799, Note_on_c, 0, 50, 0
1, 7800, Tempo, 400000
1, 7800, Note_on_c, 0, 56, 59
1, 7800, Note_on_c, 0, 41, 51
1, 7880, Tempo, 398671
1, 7919, Note_on_c, 0, 41, 0
1, 7919, Note_on_c, 0, 56, 0
1, 7920, Note_on_c, 0, 62, 59
1, 7920, Note_on_c, 0, 48, 45
1, 8000, Tempo, 397351
1, 8039, Note_on_c, 0, 48, 0
1, 8039, Note_on_c, 0, 62, 0
1, 8040, Note_on_c, 0, 62, 59
1, 8040, Note_on_c, 0, 48, 45
1, 8080, Tempo, 396040
1, 8159, Note_on_c, 0, 48, 0
1, 8159, Note_on_c, 0, 62, 0
1, 8160, Tempo, 394737
1, 8160, Note_on_c, 0, 68, 72
1, 8160, Note_on_c, 0, 53, 61
1, 8279, Note_on_c, 0, 53, 0
1, 8279, Note_on_c, 0, 68, 0
1, 8280, Tempo, 393443
1, 8280, Note_on_c, 0, 74, 59
1, 8280, Note_on_c, 0, 60, 44
1, 8360, Tempo, 392157
1, 8399, Note_on_c, 0, 60, 0
1, 8399, Note_on_c, 0, 74, 0
1, 8400, Note_on_c, 0, 74, 58
1, 8400, Note_on_c, 0, 60, 44
1, 8480, Tempo, 390879
1, 8519, Note_on_c, 0, 60, 0
1, 8519, Note_on_c, 0, 74, 0
1, 8520, Note_on_c, 0, 80, 58
1, 8520, Note_on_c, 0, 65, 44
1, 8560, Tempo, 389610
1, 8639, Note_on_c, 0, 65, 0
1, 8639, Note_on_c, 0, 80, 0
1, 8640, Tempo, 388350
1, 8640, Note_on_c, 0, 86, 86
1, 8640, Note_on_c, 0, 72, 60
1, 8759, Note_on_c, 0, 72, 0
1, 8759, Note_on_c, 0, 86, 0
1, 8760, Tempo, 389610
1, 8760, Note_on_c, 0, 80, 61
1, 8760, Note_on_c, 0, 65, 48
1, 8840, Tempo, 390879
1, 8879, Note_on_c, 0, 65, 0
1, 8879, Note_on_c, 0, 80, 0
1, 8880, Note_on_c, 0, 74, 60
1, 8880, Note_on_c, 0, 60, 48
1, 8960, Tempo, 392157
1, 8999, Note_on_c, 0, 60, 0
1, 8999, Note_on_c, 0, 74, 0
1, 9000, Note_on_c, 0, 74, 60
1, 9000, Note_on_c, 0, 60, 48
1, 9040, Tempo, 393443
1, 9119, Note_on_c, 0, 60, 0
1, 9119, Note_on_c, 0, 74, 0
1, 9120, Tempo, 394737
1, 9120, Note_on_c, 0, 68, 67
1, 9120, Note_on_c, 0, 53, 53
1, 9160, Tempo, 394737
1, 9200, Tempo, 398671
1, 9239, Note_on_c, 0, 53, 0
1, 9239, Note_on_c, 0, 68, 0
1, 9240, Tempo, 402685
1, 9240, Note_on_c, 0, 62, 59
1, 9240, Note_on_c, 0, 48, 42
1, 9280, Tempo, 406780
1, 9320, Tempo, 410959
1, 9359, Note_on_c, 0, 48, 0
1, 9359, Note_on_c, 0, 62, 0
1, 9360, Tempo, 415225
1, 9360, Note_on_c, 0, 62, 58
1, 9360, Note_on_c, 0, 48, 42
1, 9400, Tempo, 419580
1, 9440, Tempo, 424028
1, 9479, Note_on_c, 0, 48, 0
1, 9479, Note_on_c, 0, 62, 0
1, 9480, Tempo, 428571
1, 9480, Note_on_c, 0, 56, 57
1, 9480, Note_on_c, 0, 41, 42
1, 9520, Tempo, 433213
1, 9560, Tempo, 439560
1, 9599, Note_on_c, 0, 41, 0
1, 9599, Note_on_c, 0, 56, 0
1, 9600, Tempo, 401338
1, 9600, Note_on_c, 0, 51, 93
1, 9600, Text_t, "bdca426d104a26ac9dcb070447587523"
1, 9600, Control_c, 0, 91, 127
1, 9600, Note_on_c, 0, 36, 64
1, 9606, Control_c, 0, 64, 0
1, 9657, Control_c, 0, 64, 127
1, 9719, Note_on_c, 0, 36, 0
1, 9719, Note_on_c, 0, 51, 0
1, 9720, Note_on_c, 0, 56, 59
1, 9720, Note_on_c, 0, 41, 48
1, 9760, Tempo, 400000
1, 9839, Note_on_c, 0, 41, 0
1, 9839, Note_on_c, 0, 56, 0
1, 9840, Note_on_c, 0, 63, 59
1, 9840, Note_on_c, 0, 47, 48
1, 9920, Tempo, 398671
1, 9959, Note_on_c, 0, 47, 0
1, 9959, Note_on_c, 0, 63, 0
1, 9960, Note_on_c, 0, 63, 58
1, 9960, Note_on_c, 0, 48, 47
1, 10079, Note_on_c, 0, 48, 0
1, 10079, Note_on_c, 0, 63, 0
1, 10080, Tempo, 397351
1, 10080, Note_on_c, 0, 68, 68
1, 10080, Note_on_c, 0, 56, 58
1, 10199, Note_on_c, 0, 56, 0
1, 10199, Note_on_c, 0, 68, 0
1, 10200, Note_on_c, 0, 75, 58
1, 10200, Note_on_c, 0, 59, 46
1, 10240, Tempo, 396040
1, 10319, Note_on_c, 0, 59, 0
1, 10319, Note_on_c, 0, 75, 0
1, 10320, Note_on_c, 0, 75, 58
1, 10320, Note_on_c, 0, 60, 46
1, 10400, Tempo, 394737
1, 10439, Note_on_c, 0, 60, 0
1, 10439, Note_on_c, 0, 75, 0
1, 10440, Note_on_c, 0, 80, 58
1, 10440, Note_on_c, 0, 65, 46
1, 10520, Tempo, 393443
1, 10559, Note_on_c, 0, 65, 0
1, 10559, Note_on_c, 0, 80, 0
1, 10560, Note_on_c, 0, 87, 75
1, 10560, Note_on_c, 0, 71, 55
1, 10640, Tempo, 394737
1, 10679, Note_on_c, 0, 71, 0
1, 10679, Note_on_c, 0, 87, 0
1, 10680, Note_on_c, 0, 80, 59
1, 10680, Note_on_c, 0, 65, 45
1, 10760, Tempo, 396040
1, 10799, Note_on_c, 0, 65, 0
1, 10799, Note_on_c, 0, 80, 0
1, 10800, Note_on_c, 0, 75, 58
1, 10800, Note_on_c, 0, 60, 45
1, 10840, Tempo, 397351
1, 10919, Note_on_c, 0, 60, 0
1, 10919, Note_on_c, 0, 75, 0
1, 10920, Note_on_c, 0, 75, 58
1, 10920, Note_on_c, 0, 59, 45
1, 10960, Tempo, 398671
1, 11039, Note_on_c, 0, 59, 0
1, 11039, Note_on_c, 0, 75, 0
1, 11040, Tempo, 400000
1, 11040, Note_on_c, 0, 68, 64
1, 11040, Note_on_c, 0, 53, 50
1, 11080, Tempo, 402685
1, 11120, Tempo, 405405
1, 11159, Note_on_c, 0, 53, 0
1, 11159, Note_on_c, 0, 68, 0
1, 11160, Tempo, 409556
1, 11160, Note_on_c, 0, 63, 57
1, 11160, Note_on_c, 0, 48, 39
1, 11200, Tempo, 412371
1, 11240, Tempo, 416667
1, 11279, Note_on_c, 0, 48, 0
1, 11279, Note_on_c, 0, 63, 0
1, 11280, Tempo, 419580
1, 11280, Note_on_c, 0, 63, 57
1, 11280, Note_on_c, 0, 47, 39
1, 11320, Tempo, 424028
1, 11360, Tempo, 427046
1, 11399, Note_on_c, 0, 47, 0
1, 11399, Note_on_c, 0, 63, 0
1, 11400, Tempo, 431655
1, 11400, Note_on_c, 0, 56, 56
1, 11400, Note_on_c, 0, 41, 38
1, 11440, Tempo, 400000
1, 11519, Note_on_c, 0, 41, 0
1, 11519, Note_on_c, 0, 56, 0
1, 11520, Tempo, 433213
1, 11520, Note_on_c, 0, 48, 88
1, 11520, Text_t, "bdca426d104a26ac9dcb070447587523"
1, 11520, Control_c, 0, 91, 127
1, 11520, Note_on_c, 0, 36, 60
1, 11534, Control_c, 0, 64, 0
1, 11560, Tempo, 431655
1, 11592, Control_c, 0, 64, 127
1, 11600, Tempo, 428571
1, 11639, Note_on_c, 0, 36, 0
1, 11639, Note_on_c, 0, 48, 0
1, 11640, Tempo, 425532
1, 11640, Note_on_c, 0, 51, 55
1, 11640, Note_on_c, 0, 43, 44
1, 11680, Tempo, 422535
1, 11720, Tempo, 421053
1, 11759, Note_on_c, 0, 43, 0
1, 11759, Note_on_c, 0, 51, 0
1, 11760, Tempo, 418118
1, 11760, Note_on_c, 0, 60, 55
1, 11760, Note_on_c, 0, 48, 44
1, 11800, Tempo, 415225
1, 11840, Tempo, 412371
1, 11879, Note_on_c, 0, 48, 0
1, 11879, Note_on_c, 0, 60, 0
1, 11880, Tempo, 410959
1, 11880, Note_on_c, 0, 60, 55
1, 11880, Note_on_c, 0, 48, 44
1, 11920, Tempo, 408163
1, 11960, Tempo, 405405
1, 11999, Note_on_c, 0, 48, 0
1, 11999, Note_on_c, 0, 60, 0
1, 12000, Tempo, 402685
1, 12000, Note_on_c, 0, 63, 59
1, 12000, Note_on_c, 0, 55, 50
1, 12040, Tempo, 400000
1, 12119, Note_on_c, 0, 55, 0
1, 12119, Note_on_c, 0, 63, 0
1, 12120, Note_on_c, 0, 72, 66
1, 12120, Note_on_c, 0, 60, 38
1, 12239, Note_on_c, 0, 60, 0
1, 12240, Note_on_c, 0, 63, 50
1, 12240, Note_on_c, 0, 55, 38
1, 12359, Note_on_c, 0, 55, 0
1, 12359, Note_on_c, 0, 63, 0
1, 12360, Note_on_c, 0, 60, 49
1, 12360, Note_on_c, 0, 48, 38
1, 12479, Note_on_c, 0, 48, 0
1, 12479, Note_on_c, 0, 60, 0
1, 12480, Note_on_c, 0, 63, 56
1, 12480, Note_on_c, 0, 55, 47
1, 12495, Control_c, 0, 64, 0
1, 12551, Control_c, 0, 64, 127
1, 12599, Note_on_c, 0, 55, 0
1, 12599, Note_on_c, 0, 63, 0
1, 12600, Note_on_c, 0, 72, 0
1, 12600, Note_on_c, 0, 70, 61
1, 12600, Note_on_c, 0, 60, 37
1, 12719, Note_on_c, 0, 60, 0
1, 12720, Note_on_c, 0, 63, 49
1, 12720, Note_on_c, 0, 55, 37
1, 12839, Note_on_c, 0, 55, 0
1, 12839, Note_on_c, 0, 63, 0
1, 12840, Note_on_c, 0, 60, 48
1, 12840, Note_on_c, 0, 48, 35
1, 12959, Note_on_c, 0, 48, 0
1, 12959, Note_on_c, 0, 60, 0
1, 12960, Note_on_c, 0, 63, 53
1, 12960, Note_on_c, 0, 55, 41
1, 12974, Control_c, 0, 64, 0
1, 13002, Control_c, 0, 64, 127
1, 13079, Note_on_c, 0, 55, 0
1, 13079, Note_on_c, 0, 63, 0
1, 13080, Note_on_c, 0, 70, 0
1, 13080, Note_on_c, 0, 68, 57
1, 13080, Note_on_c, 0, 60, 31
1, 13199, Note_on_c, 0, 60, 0
1, 13200, Note_on_c, 0, 63, 46
1, 13200, Note_on_c, 0, 55, 31
1, 13319, Note_on_c, 0, 55, 0
1, 13319, Note_on_c, 0, 63, 0
1, 13320, Note_on_c, 0, 60, 46
1, 13320, Note_on_c, 0, 48, 31
1, 13400, Tempo, 389610
1, 13439, Note_on_c, 0, 48, 0
1, 13439, Note_on_c, 0, 60, 0
1, 13440, Note_on_c, 0, 62, 50
1, 13440, Note_on_c, 0, 55, 44
1, 13445, Control_c, 0, 64, 0
1, 13480, Tempo, 397351
1, 13497, Control_c, 0, 64, 127
1, 13559, Note_on_c, 0, 55, 0
1, 13559, Note_on_c, 0, 62, 0
1, 13560, Note_on_c, 0, 68, 0
1, 13560, Note_on_c, 0, 67, 56
1, 13560, Note_on_c, 0, 59, 34
1, 13600, Tempo, 398671
1, 13679, Note_on_c, 0, 59, 0
1, 13680, Tempo, 400000
1, 13680, Note_on_c, 0, 62, 42
1, 13680, Note_on_c, 0, 55, 33
1, 13760, Tempo, 401338
1, 13799, Note_on_c, 0, 55, 0
1, 13799, Note_on_c, 0, 62, 0
1, 13800, Note_on_c, 0, 59, 42
1, 13800, Note_on_c, 0, 48, 33
1, 13840, Tempo, 402685
1, 13919, Note_on_c, 0, 48, 0
1, 13919, Note_on_c, 0, 59, 0
1, 13920, Tempo, 404040
1, 13920, Note_on_c, 0, 61, 48
1, 13920, Note_on_c, 0, 55, 39
1, 13931, Control_c, 0, 64, 0
1, 13971, Control_c, 0, 64, 127
1, 14000, Tempo, 405405
1, 14039, Note_on_c, 0, 55, 0
1, 14039, Note_on_c, 0, 61, 0
1, 14040, Note_on_c, 0, 67, 0
1, 14040, Note_on_c, 0, 67, 52
1, 14040, Note_on_c, 0, 58, 31
1, 14080, Tempo, 406780
1, 14159, Note_on_c, 0, 58, 0
1, 14160, Tempo, 408163
1, 14160, Note_on_c, 0, 61, 42
1, 14160, Note_on_c, 0, 55, 31
1, 14240, Tempo, 409556
1, 14279, Note_on_c, 0, 55, 0
1, 14279, Note_on_c, 0, 61, 0
1, 14280, Note_on_c, 0, 58, 40
1, 14280, Note_on_c, 0, 48, 30
1, 14320, Tempo, 410959
1, 14399, Note_on_c, 0, 48, 0
1, 14399, Note_on_c, 0, 58, 0
1, 14400, Tempo, 412371
1, 14400, Note_on_c, 0, 60, 46
1, 14400, Note_on_c, 0, 53, 35
1, 14409, Control_c, 0, 64, 0
1, 14449, Control_c, 0, 64, 127
1, 14480, Tempo, 413793
1, 14519, Note_on_c, 0, 53, 0
1, 14519, Note_on_c, 0, 60, 0
1, 14520, Note_on_c, 0, 67, 0
1, 14520, Note_on_c, 0, 65, 49
1, 14520, Note_on_c, 0, 57, 26
1, 14560, Tempo, 415225
1, 14639, Note_on_c, 0, 57, 0
1, 14640, Tempo, 416667
1, 14640, Note_on_c, 0, 60, 39
1, 14640, Note_on_c, 0, 53, 26
1, 14720, Tempo, 418118
1, 14759, Note_on_c, 0, 53, 0
1, 14759, Note_on_c, 0, 60, 0
1, 14760, Note_on_c, 0, 57, 38
1, 14760, Note_on_c, 0, 48, 26
1, 14800, Tempo, 419580
1, 14879, Note_on_c, 0, 48, 0
1, 14879, Note_on_c, 0, 57, 0
1, 14880, Tempo, 421053
1, 14880, Note_on_c, 0, 59, 42
1, 14880, Note_on_c, 0, 53, 34
1, 14887, Control_c, 0, 64, 0
1, 14920, Tempo, 415225
1, 14929, Control_c, 0, 64, 127
1, 14960, Tempo, 425532
1, 14999, Note_on_c, 0, 53, 0
1, 14999, Note_on_c, 0, 59, 0
1, 15000, Tempo, 436364
1, 15000, Note_on_c, 0, 65, 0
1, 15000, Note_on_c, 0, 65, 47
1, 15000, Note_on_c, 0, 56, 25
1, 15040, Tempo, 447761
1, 15080, Tempo, 459770
1, 15119, Note_on_c, 0, 56, 0
1, 15120, Tempo, 472441
1, 15120, Note_on_c, 0, 59, 37
1, 15120, Note_on_c, 0, 53, 25
1, 15160, Tempo, 485830
1, 15200, Tempo, 500000
1, 15239, Note_on_c, 0, 53, 0
1, 15239, Note_on_c, 0, 59, 0
1, 15240, Tempo, 515021
1, 15240, Note_on_c, 0, 56, 35
1, 15240, Note_on_c, 0, 48, 24
1, 15280, Tempo, 530973
1, 15320, Tempo, 550459
1, 15359, Note_on_c, 0, 48, 0
1, 15359, Note_on_c, 0, 56, 0
1, 15360, Tempo, 433213
1, 15360, Note_on_c, 0, 65, 0
1, 15360, Note_on_c, 0, 51, 85
1, 15360, Text_t, "bdca426d104a26ac9dcb070447587523"
1, 15360, Control_c, 0, 91, 127
1, 15360, Note_on_c, 0, 36, 64
1, 15379, Control_c, 0, 64, 0
1, 15400, Tempo, 430108
1, 15440, Tempo, 427046
1, 15452, Control_c, 0, 64, 127
1, 15479, Note_on_c, 0, 36, 0
1, 15479, Note_on_c, 0, 51, 0
1, 15480, Tempo, 422535
1, 15480, Note_on_c, 0, 55, 56
1, 15480, Note_on_c, 0, 43, 44
1, 15520, Tempo, 419580
1, 15560, Tempo, 416667
1, 15599, Note_on_c, 0, 43, 0
1, 15599, Note_on_c, 0, 55, 0
1, 15600, Tempo, 412371
1, 15600, Note_on_c, 0, 63, 56
1, 15600, Note_on_c, 0, 48, 44
1, 15640, Tempo, 409556
1, 15680, Tempo, 405405
1, 15719, Note_on_c, 0, 48, 0
1, 15719, Note_on_c, 0, 63, 0
1, 15720, Tempo, 402685
1, 15720, Note_on_c, 0, 63, 56
1, 15720, Note_on_c, 0, 48, 44
1, 15760, Tempo, 400000
1, 15800, Tempo, 396040
1, 15839, Note_on_c, 0, 48, 0
1, 15839, Note_on_c, 0, 63, 0
1, 15840, Tempo, 398671
1, 15840, Note_on_c, 0, 67, 64
1, 15840, Note_on_c, 0, 55, 56
1, 15920, Tempo, 397351
1, 15959, Note_on_c, 0, 55, 0
1, 15959, Note_on_c, 0, 67, 0
1, 15960, Note_on_c, 0, 75, 57
1, 15960, Note_on_c, 0, 60, 45
1, 16000, Tempo, 396040
1, 16079, Note_on_c, 0, 60, 0
1, 16079, Note_on_c, 0, 75, 0
1, 16080, Tempo, 394737
1, 16080, Note_on_c, 0, 75, 56
1, 16080, Note_on_c, 0, 60, 44
1, 16160, Tempo, 393443
1, 16199, Note_on_c, 0, 60, 0
1, 16199, Note_on_c, 0, 75, 0
1, 16200, Note_on_c, 0, 79, 56
1, 16200, Note_on_c, 0, 67, 45
1, 16240, Tempo, 392157
1, 16319, Note_on_c, 0, 67, 0
1, 16319, Note_on_c, 0, 79, 0
1, 16320, Tempo, 390879
1, 16320, Note_on_c, 0, 87, 79
1, 16320, Note_on_c, 0, 72, 53
1, 16400, Tempo, 392157
1, 16439, Note_on_c, 0, 72, 0
1, 16439, Note_on_c, 0, 87, 0
1, 16440, Note_on_c, 0, 79, 58
1, 16440, Note_on_c, 0, 67, 45
1, 16480, Tempo, 393443
1, 16559, Note_on_c, 0, 67, 0
1, 16559, Note_on_c, 0, 79, 0
1, 16560, Tempo, 394737
1, 16560, Note_on_c, 0, 75, 58
1, 16560, Note_on_c, 0, 60, 45
1, 16640, Tempo, 396040
1, 16679, Note_on_c, 0, 60, 0
1, 16679, Note_on_c, 0, 75, 0
1, 16680, Note_on_c, 0, 75, 58
1, 16680, Note_on_c, 0, 60, 45
1, 16720, Tempo, 397351
1, 16799, Note_on_c, 0, 60, 0
1, 16799, Note_on_c, 0, 75, 0
1, 16800, Tempo, 393443
1, 16800, Note_on_c, 0, 67, 66
1, 16800, Note_on_c, 0, 55, 51
1, 16840, Tempo, 397351
1, 16880, Tempo, 402685
1, 16919, Note_on_c, 0, 55, 0
1, 16919, Note_on_c, 0, 67, 0
1, 16920, Tempo, 406780
1, 16920, Note_on_c, 0, 63, 56
1, 16920, Note_on_c, 0, 48, 44
1, 16960, Tempo, 412371
1, 17000, Tempo, 418118
1, 17039, Note_on_c, 0, 48, 0
1, 17039, Note_on_c, 0, 63, 0
1, 17040, Tempo, 422535
1, 17040, Note_on_c, 0, 63, 57
1, 17040, Note_on_c, 0, 48, 44
1, 17080, Tempo, 428571
1, 17120, Tempo, 434783
1, 17159, Note_on_c, 0, 48, 0
1, 17159, Note_on_c, 0, 63, 0
1, 17160, Tempo, 439560
1, 17160, Note_on_c, 0, 55, 57
1, 17160, Note_on_c, 0, 43, 44
1, 17200, Tempo, 446097
1, 17240, Tempo, 402685
1, 17279, Note_on_c, 0, 43, 0
1, 17279, Note_on_c, 0, 55, 0
1, 17280, Note_on_c, 0, 50, 91
1, 17280, Text_t, "bdca426d104a26ac9dcb070447587523"
1, 17280, Control_c, 0, 91, 127
1, 17280, Note_on_c, 0, 36, 60
1, 17308, Control_c, 0, 64, 0
1, 17320, Tempo, 412371
1, 17360, Tempo, 410959
1, 17365, Control_c, 0, 64, 127
1, 17399, Note_on_c, 0, 36, 0
1, 17399, Note_on_c, 0, 50, 0
1, 17400, Tempo, 409556
1, 17400, Note_on_c, 0, 56, 53
1, 17400, Note_on_c, 0, 41, 46
1, 17440, Tempo, 406780
1, 17480, Tempo, 405405
1, 17519, Note_on_c, 0, 41, 0
1, 17519, Note_on_c, 0, 56, 0
1, 17520, Tempo, 404040
1, 17520, Note_on_c, 0, 62, 53
1, 17520, Note_on_c, 0, 48, 40
1, 17560, Tempo, 401338
1, 17600, Tempo, 400000
1, 17639, Note_on_c, 0, 48, 0
1, 17639, Note_on_c, 0, 62, 0
1, 17640, Tempo, 398671
1, 17640, Note_on_c, 0, 62, 53
1, 17640, Note_on_c, 0, 48, 40
1, 17680, Tempo, 396040
1, 17759, Note_on_c, 0, 48, 0
1, 17759, Note_on_c, 0, 62, 0
1, 17760, Tempo, 394737
1, 17760, Note_on_c, 0, 68, 67
1, 17760, Note_on_c, 0, 53, 57
1, 17840, Tempo, 393443
1, 17879, Note_on_c, 0, 53, 0
1, 17879, Note_on_c, 0, 68, 0
1, 17880, Note_on_c, 0, 74, 55
1, 17880, Note_on_c, 0, 60, 41
1, 17920, Tempo, 392157
1, 17999, Note_on_c, 0, 60, 0
1, 17999, Note_on_c, 0, 74, 0
1, 18000, Tempo, 390879
1, 18000, Note_on_c, 0, 74, 53
1, 18000, Note_on_c, 0, 60, 41
1, 18080, Tempo, 389610
1, 18119, Note_on_c, 0, 60, 0
1, 18119, Note_on_c, 0, 74, 0
1, 18120, Note_on_c, 0, 80, 53
1, 18120, Note_on_c, 0, 65, 41
1, 18160, Tempo, 388350
1, 18239, Note_on_c, 0, 65, 0
1, 18239, Note_on_c, 0, 80, 0
1, 18240, Tempo, 387097
1, 18240, Note_on_c, 0, 86, 75
1, 18240, Note_on_c, 0, 72, 56
1, 18359, Note_on_c, 0, 72, 0
1, 18359, Note_on_c, 0, 86, 0
1, 18360, Tempo, 388350
1, 18360, Note_on_c, 0, 80, 58
1, 18360, Note_on_c, 0, 65, 46
1, 18440, Tempo, 389610
1, 18479, Note_on_c, 0, 65, 0
1, 18479, Note_on_c, 0, 80, 0
1, 18480, Note_on_c, 0, 74, 57
1, 18480, Note_on_c, 0, 60, 46
1, 18520, Tempo, 390879
1, 18599, Note_on_c, 0, 60, 0
1, 18599, Note_on_c, 0, 74, 0
1, 18600, Tempo, 392157
1, 18600, Note_on_c, 0, 74, 57
1, 18600, Note_on_c, 0, 60, 46
1, 18680, Tempo, 393443
1, 18719, Note_on_c, 0, 60, 0
1, 18719, Note_on_c, 0, 74, 0
1, 18720, Tempo, 396040
1, 18720, Note_on_c, 0, 68, 64
1, 18720, Note_on_c, 0, 53, 52
1, 18760, Tempo, 400000
1, 18800, Tempo, 402685
1, 18839, Note_on_c, 0, 53, 0
1, 18839, Note_on_c, 0, 68, 0
1, 18840, Tempo, 406780
1, 18840, Note_on_c, 0, 62, 57
1, 18840, Note_on_c, 0, 48, 41
1, 18880, Tempo, 409556
1, 18920, Tempo, 413793
1, 18959, Note_on_c, 0, 48, 0
1, 18959, Note_on_c, 0, 62, 0
1, 18960, Tempo, 418118
1, 18960, Note_on_c, 0, 62, 57
1, 18960, Note_on_c, 0, 48, 41
1, 19000, Tempo, 421053
1, 19040, Tempo, 425532
1, 19079, Note_on_c, 0, 48, 0
1, 19079, Note_on_c, 0, 62, 0
1, 19080, Tempo, 428571
1, 19080, Note_on_c, 0, 56, 56
1, 19080, Note_on_c, 0, 41, 41
1, 19120, Tempo, 433213
1, 19160, Tempo, 437956
1, 19199, Note_on_c, 0, 41, 0
1, 19199, Note_on_c, 0, 56, 0
1, 19200, Tempo, 401338
1, 19200, Note_on_c, 0, 53, 92
1, 19200, Text_t, "bdca426d104a26ac9dcb070447587523"
1, 19200, Control_c, 0, 91, 127
1, 19200, Note_on_c, 0, 36, 63
1, 19204, Control_c, 0, 64, 0
1, 19271, Control_c, 0, 64, 127
1, 19319, Note_on_c, 0, 36, 0
1, 19319, Note_on_c, 0, 53, 0
1, 19320, Tempo, 400000
1, 19320, Note_on_c, 0, 60, 58
1, 19320, Note_on_c, 0, 44, 47
1, 19439, Note_on_c, 0, 44, 0
1, 19439, Note_on_c, 0, 60, 0
1, 19440, Tempo, 398671
1, 19440, Note_on_c, 0, 65, 58
1, 19440, Note_on_c, 0, 48, 47
1, 19520, Tempo, 397351
1, 19559, Note_on_c, 0, 48, 0
1, 19559, Note_on_c, 0, 65, 0
1, 19560, Note_on_c, 0, 65, 59
1, 19560, Note_on_c, 0, 48, 48
1, 19640, Tempo, 396040
1, 19679, Note_on_c, 0, 48, 0
1, 19679, Note_on_c, 0, 65, 0
1, 19680, Note_on_c, 0, 72, 69
1, 19680, Note_on_c, 0, 56, 59
1, 19760, Tempo, 394737
1, 19799, Note_on_c, 0, 56, 0
1, 19799, Note_on_c, 0, 72, 0
1, 19800, Note_on_c, 0, 77, 60
1, 19800, Note_on_c, 0, 60, 47
1, 19840, Tempo, 393443
1, 19919, Note_on_c, 0, 60, 0
1, 19919, Note_on_c, 0, 77, 0
1, 19920, Note_on_c, 0, 77, 60
1, 19920, Note_on_c, 0, 60, 47
1, 19960, Tempo, 392157
1, 20039, Note_on_c, 0, 60, 0
1, 20039, Note_on_c, 0, 77, 0
1, 20040, Note_on_c, 0, 84, 60
1, 20040, Note_on_c, 0, 68, 47
1, 20080, Tempo, 390879
1, 20159, Note_on_c, 0, 68, 0
1, 20159, Note_on_c, 0, 84, 0
1, 20160, Tempo, 389610
1, 20160, Note_on_c, 0, 89, 80
1, 20160, Note_on_c, 0, 72, 57
1, 20279, Note_on_c, 0, 72, 0
1, 20279, Note_on_c, 0, 89, 0
1, 20280, Note_on_c, 0, 84, 61
1, 20280, Note_on_c, 0, 68, 47
1, 20320, Tempo, 390879
1, 20399, Note_on_c, 0, 68, 0
1, 20399, Note_on_c, 0, 84, 0
1, 20400, Note_on_c, 0, 77, 61
1, 20400, Note_on_c, 0, 60, 47
1, 20440, Tempo, 392157
1, 20519, Note_on_c, 0, 60, 0
1, 20519, Note_on_c, 0, 77, 0
1, 20520, Note_on_c, 0, 77, 61
1, 20520, Note_on_c, 0, 60, 47
1, 20560, Tempo, 393443
1, 20639, Note_on_c, 0, 60, 0
1, 20639, Note_on_c, 0, 77, 0
1, 20640, Tempo, 393443
1, 20640, Note_on_c, 0, 72, 69
1, 20640, Note_on_c, 0, 56, 53
1, 20680, Tempo, 397351
1, 20720, Tempo, 401338
1, 20759, Note_on_c, 0, 56, 0
1, 20759, Note_on_c, 0, 72, 0
1, 20760, Tempo, 405405
1, 20760, Note_on_c, 0, 65, 60
1, 20760, Note_on_c, 0, 48, 41
1, 20800, Tempo, 409556
1, 20840, Tempo, 413793
1, 20879, Note_on_c, 0, 48, 0
1, 20879, Note_on_c, 0, 65, 0
1, 20880, Tempo, 418118
1, 20880, Note_on_c, 0, 65, 60
1, 20880, Note_on_c, 0, 48, 41
1, 20920, Tempo, 422535
1, 20960, Tempo, 427046
1, 20999, Note_on_c, 0, 48, 0
1, 20999, Note_on_c, 0, 65, 0
1, 21000, Tempo, 431655
1, 21000, Note_on_c, 0, 60, 60
1, 21000, Note_on_c, 0, 44, 41
1, 21040, Tempo, 436364
1, 21080, Tempo, 441176
1, 21119, Note_on_c, 0, 44, 0
1, 21119, Note_on_c, 0, 60, 0
1, 21120, Tempo, 402685
1, 21120, Note_on_c, 0, 52, 93
1, 21120, Text_t, "bdca426d104a26ac9dcb070447587523"
1, 21120, Control_c, 0, 91, 127
1, 21120, Note_on_c, 0, 36, 69
1, 21126, Control_c, 0, 64, 0
1, 21177, Control_c, 0, 64, 127
1, 21239, Note_on_c, 0, 36, 0
1, 21239, Note_on_c, 0, 52, 0
1, 21240, Tempo, 401338
1, 21240, Note_on_c, 0, 60, 60
1, 21240, Note_on_c, 0, 43, 47
1, 21320, Tempo, 400000
1, 21359, Note_on_c, 0, 43, 0
1, 21359, Note_on_c, 0, 60, 0
1, 21360, Note_on_c, 0, 64, 60
1, 21360, Note_on_c, 0, 48, 47
1, 21400, Tempo, 398671
1, 21479, Note_on_c, 0, 48, 0
1, 21479, Note_on_c, 0, 64, 0
1, 21480, Tempo, 397351
1, 21480, Note_on_c, 0, 64, 60
1, 21480, Note_on_c, 0, 48, 47
1, 21560, Tempo, 396040
1, 21599, Note_on_c, 0, 48, 0
1, 21599, Note_on_c, 0, 64, 0
1, 21600, Note_on_c, 0, 72, 70
1, 21600, Note_on_c, 0, 55, 60
1, 21640, Tempo, 394737
1, 21719, Note_on_c, 0, 55, 0
1, 21719, Note_on_c, 0, 72, 0
1, 21720, Tempo, 393443
1, 21720, Note_on_c, 0, 76, 61
1, 21720, Note_on_c, 0, 60, 48
1, 21800, Tempo, 392157
1, 21839, Note_on_c, 0, 60, 0
1, 21839, Note_on_c, 0, 76, 0
1, 21840, Note_on_c, 0, 76, 60
1, 21840, Note_on_c, 0, 60, 47
1, 21880, Tempo, 390879
1, 21959, Note_on_c, 0, 60, 0
1, 21959, Note_on_c, 0, 76, 0
1, 21960, Tempo, 389610
1, 21960, Note_on_c, 0, 84, 60
1, 21960, Note_on_c, 0, 67, 47
1, 22040, Tempo, 388350
1, 22079, Note_on_c, 0, 67, 0
1, 22079, Note_on_c, 0, 84, 0
1, 22080, Note_on_c, 0, 88, 81
1, 22080, Note_on_c, 0, 72, 58
1, 22160, Tempo, 389610
1, 22199, Note_on_c, 0, 72, 0
1, 22199, Note_on_c, 0, 88, 0
1, 22200, Note_on_c, 0, 84, 62
1, 22200, Note_on_c, 0, 67, 48
1, 22240, Tempo, 390879
1, 22319, Note_on_c, 0, 67, 0
1, 22319, Note_on_c, 0, 84, 0
1, 22320, Note_on_c, 0, 76, 62
1, 22320, Note_on_c, 0, 60, 48
1, 22360, Tempo, 392157
1, 22439, Note_on_c, 0, 60, 0
1, 22439, Note_on_c, 0, 76, 0
1, 22440, Tempo, 393443
1, 22440, Note_on_c, 0, 76, 62
1, 22440, Note_on_c, 0, 60, 48
1, 22559, Note_on_c, 0, 60, 0
1, 22559, Note_on_c, 0, 76, 0
1, 22560, Tempo, 394737
1, 22560, Note_on_c, 0, 72, 70
1, 22560, Note_on_c, 0, 55, 55
1, 22600, Tempo, 398671
1, 22640, Tempo, 404040
1, 22679, Note_on_c, 0, 55, 0
1, 22679, Note_on_c, 0, 72, 0
1, 22680, Tempo, 408163
1, 22680, Note_on_c, 0, 64, 60
1, 22680, Note_on_c, 0, 48, 47
1, 22720, Tempo, 413793
1, 22760, Tempo, 419580
1, 22799, Note_on_c, 0, 48, 0
1, 22799, Note_on_c, 0, 64, 0
1, 22800, Tempo, 424028
1, 22800, Note_on_c, 0, 64, 60
1, 22800, Note_on_c, 0, 48, 47
1, 22840, Tempo, 430108
1, 22880, Tempo, 434783
1, 22919, Note_on_c, 0, 48, 0
1, 22919, Note_on_c, 0, 64, 0
1, 22920, Tempo, 441176
1, 22920, Note_on_c, 0, 60, 61
1, 22920, Note_on_c, 0, 43, 47
1, 22960, Tempo, 447761
1, 23039, Note_on_c, 0, 43, 0
1, 23039, Note_on_c, 0, 60, 0
1, 23040, Tempo, 401338
1, 23040, Note_on_c, 0, 56, 96
1, 23040, Text_t, "bdca426d104a26ac9dcb070447587523"
1, 23040, Control_c, 0, 91, 127
1, 23040, Note_on_c, 0, 41, 71
1, 23062, Control_c, 0, 64, 0
1, 23108, Control_c, 0, 64, 127
1, 23159, Note_on_c, 0, 41, 0
1, 23159, Note_on_c, 0, 56, 0
1, 23160, Tempo, 400000
1, 23160, Note_on_c, 0, 61, 63
1, 23160, Note_on_c, 0, 49, 53
1, 23240, Tempo, 398671
1, 23279, Note_on_c, 0, 49, 0
1, 23279, Note_on_c, 0, 61, 0
1, 23280, Note_on_c, 0, 68, 63
1, 23280, Note_on_c, 0, 53, 47
1, 23360, Tempo, 397351
1, 23399, Note_on_c, 0, 53, 0
1, 23399, Note_on_c, 0, 68, 0
1, 23400, Note_on_c, 0, 68, 63
1, 23400, Note_on_c, 0, 53, 47
1, 23440, Tempo, 396040
1, 23519, Note_on_c, 0, 53, 0
1, 23519, Note_on_c, 0, 68, 0
1, 23520, Tempo, 394737
1, 23520, Note_on_c, 0, 73, 79
1, 23520, Note_on_c, 0, 61, 67
1, 23639, Note_on_c, 0, 61, 0
1, 23639, Note_on_c, 0, 73, 0
1, 23640, Tempo, 393443
1, 23640, Note_on_c, 0, 80, 64
1, 23640, Note_on_c, 0, 65, 47
1, 23720, Tempo, 392157
1, 23759, Note_on_c, 0, 65, 0
1, 23759, Note_on_c, 0, 80, 0
1, 23760, Note_on_c, 0, 80, 63
1, 23760, Note_on_c, 0, 65, 48
1, 23840, Tempo, 390879
1, 23879, Note_on_c, 0, 65, 0
1, 23879, Note_on_c, 0, 80, 0
1, 23880, Note_on_c, 0, 85, 63
1, 23880, Note_on_c, 0, 73, 48
1, 23920, Tempo, 389610
1, 23999, Note_on_c, 0, 73, 0
1, 23999, Note_on_c, 0, 85, 0
1, 24000, Tempo, 388350
1, 24000, Note_on_c, 0, 92, 83
1, 24000, Note_on_c, 0, 77, 66
1, 24119, Note_on_c, 0, 77, 0
1, 24119, Note_on_c, 0, 92, 0
1, 24120, Tempo, 389610
1, 24120, Note_on_c, 0, 85, 69
1, 24120, Note_on_c, 0, 73, 53
1, 24200, Tempo, 390879
1, 24239, Note_on_c, 0, 73, 0
1, 24239, Note_on_c, 0, 85, 0
1, 24240, Note_on_c, 0, 80, 67
1, 24240, Note_on_c, 0, 65, 53
1, 24320, Tempo, 392157
1, 24359, Note_on_c, 0, 65, 0
1, 24359, Note_on_c, 0, 80, 0
1, 24360, Note_on_c, 0, 80, 67
1, 24360, Note_on_c, 0, 65, 53
1, 24400, Tempo, 393443
1, 24479, Note_on_c, 0, 65, 0
1, 24479, Note_on_c, 0, 80, 0
1, 24480, Tempo, 394737
1, 24480, Note_on_c, 0, 73, 77
1, 24480, Note_on_c, 0, 61, 60
1, 24520, Tempo, 394737
1, 24560, Tempo, 398671
1, 24599, Note_on_c, 0, 61, 0
1, 24599, Note_on_c, 0, 73, 0
1, 24600, Tempo, 402685
1, 24600, Note_on_c, 0, 68, 67
1, 24600, Note_on_c, 0, 53, 48
1, 24640, Tempo, 406780
1, 24680, Tempo, 410959
1, 24719, Note_on_c, 0, 53, 0
1, 24719, Note_on_c, 0, 68, 0
1, 24720, Tempo, 415225
1, 24720, Note_on_c, 0, 68, 67
1, 24720, Note_on_c, 0, 53, 48
1, 24760, Tempo, 419580
1, 24800, Tempo, 424028
1, 24839, Note_on_c, 0, 53, 0
1, 24839, Note_on_c, 0, 68, 0
1, 24840, Tempo, 428571
1, 24840, Note_on_c, 0, 61, 66
1, 24840, Note_on_c, 0, 49, 48
1, 24880, Tempo, 433213
1, 24920, Tempo, 398671
1, 24959, Note_on_c, 0, 49, 0
1, 24959, Note_on_c, 0, 61, 0
1, 24960, Note_on_c, 0, 55, 102
1, 24960, Text_t, "bdca426d104a26ac9dcb070447587523"
1, 24960, Control_c, 0, 91, 127
1, 24960, Note_on_c, 0, 43, 76
1, 24984, Control_c, 0, 64, 0
1, 25028, Control_c, 0, 64, 127
1, 25079, Note_on_c, 0, 43, 0
1, 25079, Note_on_c, 0, 55, 0
1, 25080, Note_on_c, 0, 59, 70
1, 25080, Note_on_c, 0, 50, 57
1, 25160, Tempo, 397351
1, 25199, Note_on_c, 0, 50, 0
1, 25199, Note_on_c, 0, 59, 0
1, 25200, Note_on_c, 0, 67, 70
1, 25200, Note_on_c, 0, 53, 57
1, 25319, Note_on_c, 0, 53, 0
1, 25319, Note_on_c, 0, 67, 0
1, 25320, Note_on_c, 0, 67, 70
1, 25320, Note_on_c, 0, 55, 57
1, 25400, Tempo, 396040
1, 25439, Note_on_c, 0, 55, 0
1, 25439, Note_on_c, 0, 67, 0
1, 25440, Note_on_c, 0, 71, 84
1, 25440, Note_on_c, 0, 62, 71
1, 25559, Note_on_c, 0, 62, 0
1, 25559, Note_on_c, 0, 71, 0
1, 25560, Note_on_c, 0, 79, 73
1, 25560, Note_on_c, 0, 65, 55
1, 25640, Tempo, 394737
1, 25679, Note_on_c, 0, 65, 0
1, 25679, Note_on_c, 0, 79, 0
1, 25680, Note_on_c, 0, 79, 73
1, 25680, Note_on_c, 0, 67, 55
1, 25799, Note_on_c, 0, 67, 0
1, 25799, Note_on_c, 0, 79, 0
1, 25800, Note_on_c, 0, 83, 73
1, 25800, Note_on_c, 0, 71, 55
1, 25840, Tempo, 393443
1, 25919, Note_on_c, 0, 71, 0
1, 25919, Note_on_c, 0, 83, 0
1, 25920, Note_on_c, 0, 91, 84
1, 25920, Note_on_c, 0, 77, 69
1, 25960, Tempo, 394737
1, 26039, Note_on_c, 0, 77, 0
1, 26039, Note_on_c, 0, 91, 0
1, 26040, Tempo, 396040
1, 26040, Note_on_c, 0, 83, 74
1, 26040, Note_on_c, 0, 71, 54
1, 26159, Note_on_c, 0, 71, 0
1, 26159, Note_on_c, 0, 83, 0
1, 26160, Tempo, 397351
1, 26160, Note_on_c, 0, 79, 74
1, 26160, Note_on_c, 0, 67, 54
1, 26240, Tempo, 398671
1, 26279, Note_on_c, 0, 67, 0
1, 26279, Note_on_c, 0, 79, 0
1, 26280, Note_on_c, 0, 79, 75
1, 26280, Note_on_c, 0, 65, 54
1, 26320, Tempo, 393443
1, 26360, Tempo, 396040
1, 26399, Note_on_c, 0, 65, 0
1, 26399, Note_on_c, 0, 79, 0
1, 26400, Tempo, 404040
1, 26400, Note_on_c, 0, 71, 84
1, 26400, Note_on_c, 0, 62, 64
1, 26440, Tempo, 410959
1, 26480, Tempo, 418118
1, 26519, Note_on_c, 0, 62, 0
1, 26519, Note_on_c, 0, 71, 0
1, 26520, Tempo, 425532
1, 26520, Note_on_c, 0, 67, 74
1, 26520, Note_on_c, 0, 55, 51
1, 26560, Tempo, 433213
1, 26600, Tempo, 441176
1, 26639, Note_on_c, 0, 55, 0
1, 26639, Note_on_c, 0, 67, 0
1, 26640, Tempo, 449438
1, 26640, Note_on_c, 0, 67, 74
1, 26640, Note_on_c, 0, 50, 51
1, 26680, Tempo, 458015
1, 26720, Tempo, 466926
1, 26759, Note_on_c, 0, 50, 0
1, 26759, Note_on_c, 0, 67, 0
1, 26760, Tempo, 476190
1, 26760, Note_on_c, 0, 59, 74
1, 26760, Note_on_c, 0, 43, 51
1, 26800, Tempo, 485830
1, 26840, Tempo, 495868
1, 26879, Note_on_c, 0, 43, 0
1, 26879, Note_on_c, 0, 59, 0
1, 26880, Tempo, 506329
1, 26880, Note_on_c, 0, 52, 107
1, 26880, Text_t, "bdca426d104a26ac9dcb070447587523"
1, 26880, Control_c, 0, 91, 127
1, 26880, Note_on_c, 0, 36, 80
1, 26891, Control_c, 0, 64, 0
1, 26920, Tempo, 421053
1, 26943, Control_c, 0, 64, 127
1, 26960, Tempo, 418118
1, 26999, Note_on_c, 0, 36, 0
1, 26999, Note_on_c, 0, 52, 0
1, 27000, Tempo, 413793
1, 27000, Note_on_c, 0, 55, 71
1, 27000, Note_on_c, 0, 43, 59
1, 27040, Tempo, 410959
1, 27080, Tempo, 408163
1, 27119, Note_on_c, 0, 43, 0
1, 27119, Note_on_c, 0, 55, 0
1, 27120, Tempo, 405405
1, 27120, Note_on_c, 0, 64, 72
1, 27120, Note_on_c, 0, 48, 59
1, 27160, Tempo, 401338
1, 27200, Tempo, 398671
1, 27239, Note_on_c, 0, 48, 0
1, 27239, Note_on_c, 0, 64, 0
1, 27240, Tempo, 396040
1, 27240, Note_on_c, 0, 64, 72
1, 27240, Note_on_c, 0, 48, 59
1, 27280, Tempo, 392157
1, 27320, Tempo, 393443
1, 27359, Note_on_c, 0, 48, 0
1, 27359, Note_on_c, 0, 64, 0
1, 27360, Note_on_c, 0, 67, 85
1, 27360, Note_on_c, 0, 55, 72
1, 27440, Tempo, 392157
1, 27479, Note_on_c, 0, 55, 0
1, 27479, Note_on_c, 0, 67, 0
1, 27480, Note_on_c, 0, 76, 74
1, 27480, Note_on_c, 0, 60, 58
1, 27520, Tempo, 390879
1, 27599, Note_on_c, 0, 60, 0
1, 27599, Note_on_c, 0, 76, 0
1, 27600, Note_on_c, 0, 76, 74
1, 27600, Note_on_c, 0, 60, 58
1, 27640, Tempo, 389610
1, 27719, Note_on_c, 0, 60, 0
1, 27719, Note_on_c, 0, 76, 0
1, 27720, Note_on_c, 0, 79, 74
1, 27720, Note_on_c, 0, 67, 58
1, 27760, Tempo, 388350
1, 27839, Note_on_c, 0, 67, 0
1, 27839, Note_on_c, 0, 79, 0
1, 27840, Tempo, 387097
1, 27840, Note_on_c, 0, 88, 88
1, 27840, Note_on_c, 0, 72, 70
1, 27920, Tempo, 388350
1, 27959, Note_on_c, 0, 72, 0
1, 27959, Note_on_c, 0, 88, 0
1, 27960, Note_on_c, 0, 88, 77
1, 27960, Note_on_c, 0, 72, 58
1, 28000, Tempo, 389610
1, 28079, Note_on_c, 0, 72, 0
1, 28079, Note_on_c, 0, 88, 0
1, 28080, Tempo, 390879
1, 28080, Note_on_c, 0, 91, 77
1, 28080, Note_on_c, 0, 79, 58
1, 28160, Tempo, 392157
1, 28199, Note_on_c, 0, 79, 0
1, 28199, Note_on_c, 0, 91, 0
1, 28200, Note_on_c, 0, 100, 77
1, 28200, Note_on_c, 0, 84, 58
1, 28240, Tempo, 393443
1, 28280, Tempo, 396040
1, 28319, Note_on_c, 0, 84, 0
1, 28319, Note_on_c, 0, 100, 0
1, 28320, Tempo, 398671
1, 28320, Note_on_c, 0, 91, 86
1, 28320, Note_on_c, 0, 79, 66
1, 28360, Tempo, 402685
1, 28400, Tempo, 405405
1, 28439, Note_on_c, 0, 79, 0
1, 28439, Note_on_c, 0, 91, 0
1, 28440, Tempo, 409556
1, 28440, Note_on_c, 0, 88, 75
1, 28440, Note_on_c, 0, 72, 52
1, 28480, Tempo, 412371
1, 28520, Tempo, 416667
1, 28559, Note_on_c, 0, 72, 0
1, 28559, Note_on_c, 0, 88, 0
1, 28560, Tempo, 419580
1, 28560, Note_on_c, 0, 88, 75
1, 28560, Note_on_c, 0, 72, 52
1, 28600, Tempo, 424028
1, 28640, Tempo, 427046
1, 28679, Note_on_c, 0, 72, 0
1, 28679, Note_on_c, 0, 88, 0
1, 28680, Tempo, 431655
1, 28680, Note_on_c, 0, 79, 75
1, 28680, Note_on_c, 0, 67, 52
1, 28720, Tempo, 400000
1, 28799, Note_on_c, 0, 67, 0
1, 28799, Note_on_c, 0, 79, 0
1, 28800, Tempo, 406780
1, 28800, Note_on_c, 0, 76, 75
1, 28800, Text_t, "bdca426d104a26ac9dcb070447587523"
1, 28800, Control_c, 0, 91, 127
1, 28800, Note_on_c, 0, 60, 70
1, 28802, Control_c, 0, 64, 0
1, 28841, Control_c, 0, 64, 127
1, 28919, Note_on_c, 0, 60, 0
1, 28919, Note_on_c, 0, 76, 0
1, 28920, Tempo, 405405
1, 28920, Note_on_c, 0, 76, 63
1, 28920, Note_on_c, 0, 60, 51
1, 29039, Note_on_c, 0, 60, 0
1, 29039, Note_on_c, 0, 76, 0
1, 29040, Tempo, 404040
1, 29040, Note_on_c, 0, 67, 63
1, 29040, Note_on_c, 0, 55, 51
1, 29120, Tempo, 402685
1, 29159, Note_on_c, 0, 55, 0
1, 29159, Note_on_c, 0, 67, 0
1, 29160, Note_on_c, 0, 64, 63
1, 29160, Note_on_c, 0, 48, 51
1, 29240, Tempo, 401338
1, 29279, Note_on_c, 0, 48, 0
1, 29279, Note_on_c, 0, 64, 0
1, 29280, Note_on_c, 0, 64, 95
1, 29280, Note_on_c, 0, 48, 63
1, 29320, Tempo, 400000
1, 29399, Note_on_c, 0, 48, 0
1, 29400, Note_on_c, 0, 55, 64
1, 29400, Note_on_c, 0, 43, 50
1, 29519, Note_on_c, 0, 43, 0
1, 29519, Note_on_c, 0, 55, 0
1, 29520, Note_on_c, 0, 52, 64
1, 29520, Note_on_c, 0, 36, 50
1, 29639, Note_on_c, 0, 36, 0
1, 29639, Note_on_c, 0, 52, 0
1, 29640, Note_on_c, 0, 55, 64
1, 29640, Note_on_c, 0, 43, 50
1, 29759, Note_on_c, 0, 43, 0
1, 29759, Note_on_c, 0, 55, 0
1, 29760, Note_on_c, 0, 64, 0
1, 29760, Note_on_c, 0, 50, 95
1, 29760, Note_on_c, 0, 47, 78
1, 29779, Control_c, 0, 64, 0
1, 29800, Tempo, 402685
1, 29846, Control_c, 0, 64, 127
1, 29879, Note_on_c, 0, 47, 0
1, 29879, Note_on_c, 0, 50, 0
1, 29880, Note_on_c, 0, 55, 67
1, 29880, Note_on_c, 0, 43, 50
1, 29920, Tempo, 401338
1, 29999, Note_on_c, 0, 43, 0
1, 29999, Note_on_c, 0, 55, 0
1, 30000, Note_on_c, 0, 62, 84
1, 30000, Note_on_c, 0, 36, 50
1, 30040, Tempo, 400000
1, 30119, Note_on_c, 0, 36, 0
1, 30119, Note_on_c, 0, 62, 0
1, 30120, Note_on_c, 0, 55, 68
1, 30120, Note_on_c, 0, 43, 50
1, 30160, Tempo, 398671
1, 30200, Tempo, 396040
1, 30239, Note_on_c, 0, 43, 0
1, 30239, Note_on_c, 0, 55, 0
1, 30240, Tempo, 398671
1, 30240, Note_on_c, 0, 53, 94
1, 30240, Note_on_c, 0, 50, 79
1, 30257, Control_c, 0, 64, 0
1, 30280, Tempo, 402685
1, 30314, Control_c, 0, 64, 127
1, 30320, Tempo, 405405
1, 30359, Note_on_c, 0, 50, 0
1, 30359, Note_on_c, 0, 53, 0
1, 30360, Tempo, 409556
1, 30360, Note_on_c, 0, 55, 70
1, 30360, Note_on_c, 0, 43, 45
1, 30400, Tempo, 412371
1, 30440, Tempo, 416667
1, 30479, Note_on_c, 0, 43, 0
1, 30479, Note_on_c, 0, 55, 0
1, 30480, Tempo, 419580
1, 30480, Note_on_c, 0, 67, 83
1, 30480, Note_on_c, 0, 36, 45
1, 30520, Tempo, 424028
1, 30560, Tempo, 427046
1, 30599, Note_on_c, 0, 36, 0
1, 30599, Note_on_c, 0, 67, 0
1, 30600, Tempo, 431655
1, 30600, Note_on_c, 0, 55, 64
1, 30600, Note_on_c, 0, 43, 45
1, 30640, Tempo, 400000
1, 30719, Note_on_c, 0, 43, 0
1, 30719, Note_on_c, 0, 55, 0
1, 30720, Tempo, 398671
1, 30720, Note_on_c, 0, 52, 106
1, 30720, Text_t, "bdca426d104a26ac9dcb070447587523"
1, 30720, Control_c, 0, 91, 127
1, 30720, Note_on_c, 0, 36, 77
1, 30741, Control_c, 0, 64, 0
1, 30783, Control_c, 0, 64, 127
1, 30839, Note_on_c, 0, 36, 0
1, 30839, Note_on_c, 0, 52, 0
1, 30840, Tempo, 397351
1, 30840, Note_on_c, 0, 55, 69
1, 30840, Note_on_c, 0, 43, 56
1, 30959, Note_on_c, 0, 43, 0
1, 30959, Note_on_c, 0, 55, 0
1, 30960, Tempo, 396040
1, 30960, Note_on_c, 0, 64, 69
1, 30960, Note_on_c, 0, 48, 56
1, 31040, Tempo, 394737
1, 31079, Note_on_c, 0, 48, 0
1, 31079, Note_on_c, 0, 64, 0
1, 31080, Note_on_c, 0, 64, 69
1, 31080, Note_on_c, 0, 48, 56
1, 31160, Tempo, 393443
1, 31199, Note_on_c, 0, 48, 0
1, 31200, Note_on_c, 0, 67, 80
1, 31200, Note_on_c, 0, 55, 69
1, 31280, Tempo, 392157
1, 31319, Note_on_c, 0, 55, 0
1, 31319, Note_on_c, 0, 67, 0
1, 31320, Note_on_c, 0, 64, 0
1, 31320, Note_on_c, 0, 76, 70
1, 31320, Note_on_c, 0, 60, 55
1, 31360, Tempo, 390879
1, 31439, Note_on_c, 0, 60, 0
1, 31439, Note_on_c, 0, 76, 0
1, 31440, Note_on_c, 0, 76, 70
1, 31440, Note_on_c, 0, 60, 55
1, 31480, Tempo, 389610
1, 31559, Note_on_c, 0, 60, 0
1, 31559, Note_on_c, 0, 76, 0
1, 31560, Note_on_c, 0, 79, 70
1, 31560, Note_on_c, 0, 67, 55
1, 31600, Tempo, 388350
1, 31679, Note_on_c, 0, 67, 0
1, 31679, Note_on_c, 0, 79, 0
1, 31680, Tempo, 387097
1, 31680, Note_on_c, 0, 88, 87
1, 31680, Note_on_c, 0, 72, 66
1, 31760, Tempo, 388350
1, 31799, Note_on_c, 0, 72, 0
1, 31799, Note_on_c, 0, 88, 0
1, 31800, Note_on_c, 0, 88, 71
1, 31800, Note_on_c, 0, 72, 55
1, 31840, Tempo, 389610
1, 31919, Note_on_c, 0, 72, 0
1, 31919, Note_on_c, 0, 88, 0
1, 31920, Tempo, 390879
1, 31920, Note_on_c, 0, 91, 71
1, 31920, Note_on_c, 0, 79, 55
1, 32000, Tempo, 392157
1, 32039, Note_on_c, 0, 79, 0
1, 32039, Note_on_c, 0, 91, 0
1, 32040, Note_on_c, 0, 100, 71
1, 32040, Note_on_c, 0, 84, 55
1, 32080, Tempo, 393443
1, 32120, Tempo, 396040
1, 32159, Note_on_c, 0, 84, 0
1, 32159, Note_on_c, 0, 100, 0
1, 32160, Tempo, 398671
1, 32160, Note_on_c, 0, 91, 80
1, 32160, Note_on_c, 0, 79, 61
1, 32200, Tempo, 402685
1, 32240, Tempo, 405405
1, 32279, Note_on_c, 0, 79, 0
1, 32279, Note_on_c, 0, 91, 0
1, 32280, Tempo, 409556
1, 32280, Note_on_c, 0, 88, 69
1, 32280, Note_on_c, 0, 72, 48
1, 32320, Tempo, 412371
1, 32360, Tempo, 416667
1, 32399, Note_on_c, 0, 72, 0
1, 32399, Note_on_c, 0, 88, 0
1, 32400, Tempo, 419580
1, 32400, Note_on_c, 0, 88, 69
1, 32400, Note_on_c, 0, 72, 48
1, 32440, Tempo, 424028
1, 32480, Tempo, 427046
1, 32519, Note_on_c, 0, 72, 0
1, 32519, Note_on_c, 0, 88, 0
1, 32520, Tempo, 431655
1, 32520, Note_on_c, 0, 79, 69
1, 32520, Note_on_c, 0, 67, 48
1, 32560, Tempo, 400000
1, 32639, Note_on_c, 0, 67, 0
1, 32639, Note_on_c, 0, 79, 0
1, 32640, Tempo, 415225
1, 32640, Note_on_c, 0, 76, 72
1, 32640, Text_t, "bdca426d104a26ac9dcb070447587523"
1, 32640, Control_c, 0, 91, 127
1, 32640, Control_c, 0, 64, 0
1, 32640, Note_on_c, 0, 60, 68
1, 32681, Control_c, 0, 64, 127
1, 32720, Tempo, 413793
1, 32759, Note_on_c, 0, 60, 0
1, 32759, Note_on_c, 0, 76, 0
1, 32760, Note_on_c, 0, 76, 62
1, 32760, Note_on_c, 0, 60, 50
1, 32800, Tempo, 412371
1, 32879, Note_on_c, 0, 60, 0
1, 32879, Note_on_c, 0, 76, 0
1, 32880, Tempo, 410959
1, 32880, Note_on_c, 0, 67, 62
1, 32880, Note_on_c, 0, 55, 50
1, 32960, Tempo, 409556
1, 32999, Note_on_c, 0, 55, 0
1, 32999, Note_on_c, 0, 67, 0
1, 33000, Note_on_c, 0, 64, 62
1, 33000, Note_on_c, 0, 48, 50
1, 33040, Tempo, 408163
1, 33119, Note_on_c, 0, 48, 0
1, 33119, Note_on_c, 0, 64, 0
1, 33120, Tempo, 406780
1, 33120, Note_on_c, 0, 64, 92
1, 33120, Note_on_c, 0, 48, 61
1, 33160, Tempo, 405405
1, 33239, Note_on_c, 0, 48, 0
1, 33240, Note_on_c, 0, 55, 62
1, 33240, Note_on_c, 0, 43, 49
1, 33359, Note_on_c, 0, 43, 0
1, 33359, Note_on_c, 0, 55, 0
1, 33360, Note_on_c, 0, 52, 62
1, 33360, Note_on_c, 0, 36, 49
1, 33479, Note_on_c, 0, 36, 0
1, 33479, Note_on_c, 0, 52, 0
1, 33480, Note_on_c, 0, 55, 62
1, 33480, Note_on_c, 0, 43, 49
1, 33599, Note_on_c, 0, 43, 0
1, 33599, Note_on_c, 0, 55, 0
1, 33600, Note_on_c, 0, 64, 0
1, 33600, Note_on_c, 0, 50, 89
1, 33600, Note_on_c, 0, 47, 64
1, 33619, Control_c, 0, 64, 0
1, 33686, Control_c, 0, 64, 127
1, 33719, Note_on_c, 0, 47, 0
1, 33719, Note_on_c, 0, 50, 0
1, 33720, Note_on_c, 0, 55, 63
1, 33720, Note_on_c, 0, 43, 49
1, 33839, Note_on_c, 0, 43, 0
1, 33839, Note_on_c, 0, 55, 0
1, 33840, Note_on_c, 0, 62, 69
1, 33840, Note_on_c, 0, 36, 49
1, 33959, Note_on_c, 0, 36, 0
1, 33960, Note_on_c, 0, 55, 66
1, 33960, Note_on_c, 0, 43, 49
1, 34000, Tempo, 405405
1, 34040, Tempo, 408163
1, 34079, Note_on_c, 0, 43, 0
1, 34079, Note_on_c, 0, 55, 0
1, 34080, Tempo, 410959
1, 34080, Note_on_c, 0, 48, 86
1, 34080, Note_on_c, 0, 45, 62
1, 34094, Control_c, 0, 64, 0
1, 34120, Tempo, 415225
1, 34154, Control_c, 0, 64, 127
1, 34160, Tempo, 418118
1, 34199, Note_on_c, 0, 45, 0
1, 34199, Note_on_c, 0, 48, 0
1, 34200, Tempo, 422535
1, 34200, Note_on_c, 0, 55, 67
1, 34200, Note_on_c, 0, 43, 42
1, 34240, Tempo, 425532
1, 34280, Tempo, 430108
1, 34319, Note_on_c, 0, 43, 0
1, 34319, Note_on_c, 0, 55, 0
1, 34320, Tempo, 433213
1, 34320, Note_on_c, 0, 62, 0
1, 34320, Note_on_c, 0, 60, 68
1, 34320, Note_on_c, 0, 36, 42
1, 34360, Tempo, 437956
1, 34400, Tempo, 441176
1, 34439, Note_on_c, 0, 36, 0
1, 34440, Tempo, 446097
1, 34440, Note_on_c, 0, 55, 62
1, 34440, Note_on_c, 0, 43, 42
1, 34480, Tempo, 449438
1, 34520, Tempo, 454545
1, 34559, Note_on_c, 0, 43, 0
1, 34559, Note_on_c, 0, 55, 0
1, 34560, Tempo, 398671
1, 34560, Note_on_c, 0, 60, 0
1, 34560, Note_on_c, 0, 50, 95
1, 34560, Text_t, "bdca426d104a26ac9dcb070447587523"
1, 34560, Control_c, 0, 91, 127
1, 34560, Note_on_c, 0, 36, 73
1, 34576, Control_c, 0, 64, 0
1, 34651, Control_c, 0, 64, 127
1, 34679, Note_on_c, 0, 36, 0
1, 34679, Note_on_c, 0, 50, 0
1, 34680, Tempo, 397351
1, 34680, Note_on_c, 0, 55, 67
1, 34680, Note_on_c, 0, 43, 53
1, 34799, Note_on_c, 0, 43, 0
1, 34799, Note_on_c, 0, 55, 0
1, 34800, Tempo, 396040
1, 34800, Note_on_c, 0, 62, 67
1, 34800, Note_on_c, 0, 47, 53
1, 34880, Tempo, 394737
1, 34919, Note_on_c, 0, 47, 0
1, 34919, Note_on_c, 0, 62, 0
1, 34920, Note_on_c, 0, 62, 67
1, 34920, Note_on_c, 0, 47, 53
1, 35000, Tempo, 393443
1, 35039, Note_on_c, 0, 47, 0
1, 35040, Note_on_c, 0, 67, 78
1, 35040, Note_on_c, 0, 55, 67
1, 35120, Tempo, 392157
1, 35159, Note_on_c, 0, 55, 0
1, 35159, Note_on_c, 0, 67, 0
1, 35160, Note_on_c, 0, 62, 0
1, 35160, Note_on_c, 0, 74, 68
1, 35160, Note_on_c, 0, 59, 52
1, 35200, Tempo, 390879
1, 35279, Note_on_c, 0, 59, 0
1, 35279, Note_on_c, 0, 74, 0
1, 35280, Note_on_c, 0, 74, 67
1, 35280, Note_on_c, 0, 60, 52
1, 35320, Tempo, 389610
1, 35399, Note_on_c, 0, 60, 0
1, 35399, Note_on_c, 0, 74, 0
1, 35400, Note_on_c, 0, 79, 67
1, 35400, Note_on_c, 0, 67, 52
1, 35440, Tempo, 388350
1, 35519, Note_on_c, 0, 67, 0
1, 35519, Note_on_c, 0, 79, 0
1, 35520, Tempo, 387097
1, 35520, Note_on_c, 0, 86, 80
1, 35520, Note_on_c, 0, 71, 63
1, 35600, Tempo, 388350
1, 35639, Note_on_c, 0, 71, 0
1, 35639, Note_on_c, 0, 86, 0
1, 35640, Note_on_c, 0, 86, 68
1, 35640, Note_on_c, 0, 72, 52
1, 35680, Tempo, 389610
1, 35759, Note_on_c, 0, 72, 0
1, 35759, Note_on_c, 0, 86, 0
1, 35760, Tempo, 390879
1, 35760, Note_on_c, 0, 91, 68
1, 35760, Note_on_c, 0, 79, 52
1, 35840, Tempo, 392157
1, 35879, Note_on_c, 0, 79, 0
1, 35879, Note_on_c, 0, 91, 0
1, 35880, Note_on_c, 0, 98, 68
1, 35880, Note_on_c, 0, 83, 52
1, 35920, Tempo, 393443
1, 35960, Tempo, 396040
1, 35999, Note_on_c, 0, 83, 0
1, 35999, Note_on_c, 0, 98, 0
1, 36000, Tempo, 398671
1, 36000, Note_on_c, 0, 91, 78
1, 36000, Note_on_c, 0, 79, 59
1, 36040, Tempo, 402685
1, 36080, Tempo, 405405
1, 36119, Note_on_c, 0, 79, 0
1, 36119, Note_on_c, 0, 91, 0
1, 36120, Tempo, 409556
1, 36120, Note_on_c, 0, 86, 67
1, 36120, Note_on_c, 0, 72, 47
1, 36160, Tempo, 412371
1, 36200, Tempo, 416667
1, 36239, Note_on_c, 0, 72, 0
1, 36239, Note_on_c, 0, 86, 0
1, 36240, Tempo, 419580
1, 36240, Note_on_c, 0, 86, 67
1, 36240, Note_on_c, 0, 71, 47
1, 36280, Tempo, 424028
1, 36320, Tempo, 427046
1, 36359, Note_on_c, 0, 71, 0
1, 36359, Note_on_c, 0, 86, 0
1, 36360, Tempo, 412371
1, 36360, Note_on_c, 0, 79, 67
1, 36360, Note_on_c, 0, 67, 46
1, 36440, Tempo, 410959
1, 36479, Note_on_c, 0, 67, 0
1, 36479, Note_on_c, 0, 79, 0
1, 36480, Note_on_c, 0, 74, 70
1, 36480, Text_t, "bdca426d104a26ac9dcb070447587523"
1, 36480, Control_c, 0, 91, 127
1, 36480, Note_on_c, 0, 60, 66
1, 36482, Control_c, 0, 64, 0
1, 36520, Tempo, 409556
1, 36521, Control_c, 0, 64, 127
1, 36599, Note_on_c, 0, 60, 0
1, 36599, Note_on_c, 0, 74, 0
1, 36600, Tempo, 408163
1, 36600, Note_on_c, 0, 74, 60
1, 36600, Note_on_c, 0, 59, 48
1, 36680, Tempo, 406780
1, 36719, Note_on_c, 0, 59, 0
1, 36719, Note_on_c, 0, 74, 0
1, 36720, Note_on_c, 0, 67, 60
1, 36720, Note_on_c, 0, 55, 48
1, 36760, Tempo, 405405
1, 36839, Note_on_c, 0, 55, 0
1, 36839, Note_on_c, 0, 67, 0
1, 36840, Tempo, 404040
1, 36840, Note_on_c, 0, 62, 60
1, 36840, Note_on_c, 0, 48, 48
1, 36920, Tempo, 402685
1, 36959, Note_on_c, 0, 48, 0
1, 36959, Note_on_c, 0, 62, 0
1, 36960, Note_on_c, 0, 62, 83
1, 36960, Note_on_c, 0, 47, 52
1, 37040, Tempo, 404040
1, 37079, Note_on_c, 0, 47, 0
1, 37080, Note_on_c, 0, 55, 53
1, 37080, Note_on_c, 0, 43, 40
1, 37120, Tempo, 405405
1, 37199, Note_on_c, 0, 43, 0
1, 37199, Note_on_c, 0, 55, 0
1, 37200, Note_on_c, 0, 50, 53
1, 37200, Note_on_c, 0, 36, 40
1, 37240, Tempo, 406780
1, 37319, Note_on_c, 0, 36, 0
1, 37319, Note_on_c, 0, 50, 0
1, 37320, Tempo, 408163
1, 37320, Note_on_c, 0, 55, 53
1, 37320, Note_on_c, 0, 43, 40
1, 37400, Tempo, 409556
1, 37439, Note_on_c, 0, 43, 0
1, 37439, Note_on_c, 0, 55, 0
1, 37440, Note_on_c, 0, 62, 0
1, 37440, Note_on_c, 0, 48, 80
1, 37440, Note_on_c, 0, 45, 56
1, 37459, Control_c, 0, 64, 0
1, 37520, Tempo, 410959
1, 37526, Control_c, 0, 64, 127
1, 37559, Note_on_c, 0, 45, 0
1, 37559, Note_on_c, 0, 48, 0
1, 37560, Note_on_c, 0, 53, 55
1, 37560, Note_on_c, 0, 41, 40
1, 37600, Tempo, 412371
1, 37679, Note_on_c, 0, 41, 0
1, 37679, Note_on_c, 0, 53, 0
1, 37680, Tempo, 413793
1, 37680, Note_on_c, 0, 60, 59
1, 37680, Note_on_c, 0, 36, 40
1, 37799, Note_on_c, 0, 36, 0
1, 37800, Tempo, 415225
1, 37800, Note_on_c, 0, 53, 57
1, 37800, Note_on_c, 0, 41, 40
1, 37880, Tempo, 416667
1, 37919, Note_on_c, 0, 41, 0
1, 37919, Note_on_c, 0, 53, 0
1, 37920, Note_on_c, 0, 48, 75
1, 37920, Note_on_c, 0, 45, 53
1, 37934, Control_c, 0, 64, 0
1, 37960, Tempo, 418118
1, 37994, Control_c, 0, 64, 127
1, 38000, Tempo, 419580
1, 38039, Note_on_c, 0, 45, 0
1, 38039, Note_on_c, 0, 48, 0
1, 38040, Tempo, 421053
1, 38040, Note_on_c, 0, 53, 58
1, 38040, Note_on_c, 0, 41, 37
1, 38080, Tempo, 422535
1, 38120, Tempo, 424028
1, 38159, Note_on_c, 0, 41, 0
1, 38159, Note_on_c, 0, 53, 0
1, 38160, Tempo, 425532
1, 38160, Note_on_c, 0, 60, 0
1, 38160, Note_on_c, 0, 57, 59
1, 38160, Note_on_c, 0, 36, 37
1, 38200, Tempo, 427046
1, 38240, Tempo, 428571
1, 38279, Note_on_c, 0, 36, 0
1, 38280, Tempo, 430108
1, 38280, Note_on_c, 0, 53, 53
1, 38280, Note_on_c, 0, 41, 37
1, 38320, Tempo, 431655
1, 38340, Tempo, 421053
1, 38380, Tempo, 422535
1, 38399, Note_on_c, 0, 41, 0
1, 38399, Note_on_c, 0, 53, 0
1, 38400, Tempo, 401338
1, 38400, Note_on_c, 0, 57, 0
1, 38400, Note_on_c, 0, 48, 77
1, 38400, Text_t, "bdca426d104a26ac9dcb070447587523"
1, 38400, Control_c, 0, 91, 127
1, 38400, Note_on_c, 0, 36, 58
1, 38402, Control_c, 0, 64, 0
1, 38462, Control_c, 0, 64, 127
1, 38519, Note_on_c, 0, 36, 0
1, 38519, Note_on_c, 0, 48, 0
1, 38520, Tempo, 400000
1, 38520, Note_on_c, 0, 53, 52
1, 38520, Note_on_c, 0, 44, 41
1, 38639, Note_on_c, 0, 44, 0
1, 38639, Note_on_c, 0, 53, 0
1, 38640, Tempo, 398671
1, 38640, Note_on_c, 0, 60, 52
1, 38640, Note_on_c, 0, 48, 41
1, 38720, Tempo, 397351
1, 38759, Note_on_c, 0, 48, 0
1, 38759, Note_on_c, 0, 60, 0
1, 38760, Note_on_c, 0, 60, 52
1, 38760, Note_on_c, 0, 48, 41
1, 38840, Tempo, 396040
1, 38879, Note_on_c, 0, 48, 0
1, 38879, Note_on_c, 0, 60, 0
1, 38880, Note_on_c, 0, 65, 61
1, 38880, Note_on_c, 0, 56, 52
1, 38960, Tempo, 394737
1, 38999, Note_on_c, 0, 56, 0
1, 38999, Note_on_c, 0, 65, 0
1, 39000, Note_on_c, 0, 72, 53
1, 39000, Note_on_c, 0, 60, 40
1, 39040, Tempo, 393443
1, 39119, Note_on_c, 0, 60, 0
1, 39119, Note_on_c, 0, 72, 0
1, 39120, Note_on_c, 0, 72, 53
1, 39120, Note_on_c, 0, 60, 40
1, 39160, Tempo, 392157
1, 39239, Note_on_c, 0, 60, 0
1, 39239, Note_on_c, 0, 72, 0
1, 39240, Note_on_c, 0, 77, 53
1, 39240, Note_on_c, 0, 68, 40
1, 39280, Tempo, 390879
1, 39359, Note_on_c, 0, 68, 0
1, 39359, Note_on_c, 0, 77, 0
1, 39360, Tempo, 389610
1, 39360, Note_on_c, 0, 84, 69
1, 39360, Note_on_c, 0, 72, 51
1, 39479, Note_on_c, 0, 72, 0
1, 39479, Note_on_c, 0, 84, 0
1, 39480, Note_on_c, 0, 77, 55
1, 39480, Note_on_c, 0, 68, 40
1, 39520, Tempo, 390879
1, 39599, Note_on_c, 0, 68, 0
1, 39599, Note_on_c, 0, 77, 0
1, 39600, Note_on_c, 0, 72, 55
1, 39600, Note_on_c, 0, 60, 40
1, 39640, Tempo, 392157
1, 39719, Note_on_c, 0, 60, 0
1, 39719, Note_on_c, 0, 72, 0
1, 39720, Note_on_c, 0, 72, 55
1, 39720, Note_on_c, 0, 60, 40
1, 39760, Tempo, 393443
1, 39839, Note_on_c, 0, 60, 0
1, 39839, Note_on_c, 0, 72, 0
1, 39840, Tempo, 393443
1, 39840, Note_on_c, 0, 65, 61
1, 39840, Note_on_c, 0, 56, 48
1, 39880, Tempo, 397351
1, 39920, Tempo, 401338
1, 39959, Note_on_c, 0, 56, 0
1, 39959, Note_on_c, 0, 65, 0
1, 39960, Tempo, 405405
1, 39960, Note_on_c, 0, 60, 53
1, 39960, Note_on_c, 0, 48, 37
1, 40000, Tempo, 409556
1, 40040, Tempo, 413793
1, 40079, Note_on_c, 0, 48, 0
1, 40079, Note_on_c, 0, 60, 0
1, 40080, Tempo, 418118
1, 40080, Note_on_c, 0, 60, 53
1, 40080, Note_on_c, 0, 48, 37
1, 40120, Tempo, 422535
1, 40160, Tempo, 427046
1, 40199, Note_on_c, 0, 48, 0
1, 40199, Note_on_c, 0, 60, 0
1, 40200, Tempo, 431655
1, 40200, Note_on_c, 0, 53, 53
1, 40200, Note_on_c, 0, 44, 37
1, 40240, Tempo, 436364
1, 40280, Tempo, 441176
1, 40319, Note_on_c, 0, 44, 0
1, 40319, Note_on_c, 0, 53, 0
1, 40320, Tempo, 401338
1, 40320, Note_on_c, 0, 48, 77
1, 40320, Text_t, "bdca426d104a26ac9dcb070447587523"
1, 40320, Control_c, 0, 91, 127
1, 40320, Note_on_c, 0, 36, 58
1, 40329, Control_c, 0, 64, 0
1, 40388, Control_c, 0, 64, 127
1, 40439, Note_on_c, 0, 36, 0
1, 40439, Note_on_c, 0, 48, 0
1, 40440, Tempo, 400000
1, 40440, Note_on_c, 0, 52, 52
1, 40440, Note_on_c, 0, 43, 41
1, 40559, Note_on_c, 0, 43, 0
1, 40559, Note_on_c, 0, 52, 0
1, 40560, Tempo, 398671
1, 40560, Note_on_c, 0, 60, 52
1, 40560, Note_on_c, 0, 48, 41
1, 40640, Tempo, 397351
1, 40679, Note_on_c, 0, 48, 0
1, 40679, Note_on_c, 0, 60, 0
1, 40680, Note_on_c, 0, 60, 52
1, 40680, Note_on_c, 0, 48, 41
1, 40760, Tempo, 396040
1, 40799, Note_on_c, 0, 48, 0
1, 40799, Note_on_c, 0, 60, 0
1, 40800, Note_on_c, 0, 64, 61
1, 40800, Note_on_c, 0, 55, 52
1, 40880, Tempo, 394737
1, 40919, Note_on_c, 0, 55, 0
1, 40919, Note_on_c, 0, 64, 0
1, 40920, Note_on_c, 0, 72, 53
1, 40920, Note_on_c, 0, 60, 40
1, 40960, Tempo, 393443
1, 41039, Note_on_c, 0, 60, 0
1, 41039, Note_on_c, 0, 72, 0
1, 41040, Note_on_c, 0, 72, 53
1, 41040, Note_on_c, 0, 60, 40
1, 41080, Tempo, 392157
1, 41159, Note_on_c, 0, 60, 0
1, 41159, Note_on_c, 0, 72, 0
1, 41160, Note_on_c, 0, 76, 53
1, 41160, Note_on_c, 0, 67, 40
1, 41200, Tempo, 390879
1, 41279, Note_on_c, 0, 67, 0
1, 41279, Note_on_c, 0, 76, 0
1, 41280, Tempo, 389610
1, 41280, Note_on_c, 0, 84, 69
1, 41280, Note_on_c, 0, 72, 51
1, 41399, Note_on_c, 0, 72, 0
1, 41399, Note_on_c, 0, 84, 0
1, 41400, Note_on_c, 0, 76, 55
1, 41400, Note_on_c, 0, 67, 40
1, 41440, Tempo, 390879
1, 41519, Note_on_c, 0, 67, 0
1, 41519, Note_on_c, 0, 76, 0
1, 41520, Note_on_c, 0, 72, 55
1, 41520, Note_on_c, 0, 60, 40
1, 41560, Tempo, 392157
1, 41639, Note_on_c, 0, 60, 0
1, 41639, Note_on_c, 0, 72, 0
1, 41640, Note_on_c, 0, 72, 55
1, 41640, Note_on_c, 0, 60, 40
1, 41680, Tempo, 393443
1, 41759, Note_on_c, 0, 60, 0
1, 41759, Note_on_c, 0, 72, 0
1, 41760, Tempo, 393443
1, 41760, Note_on_c, 0, 64, 61
1, 41760, Note_on_c, 0, 55, 48
1, 41800, Tempo, 402685
1, 41840, Tempo, 416667
1, 41879, Note_on_c, 0, 55, 0
1, 41879, Note_on_c, 0, 64, 0
1, 41880, Tempo, 433213
1, 41880, Note_on_c, 0, 60, 53
1, 41880, Note_on_c, 0, 48, 37
1, 41920, Tempo, 451128
1, 41960, Tempo, 468750
1, 41999, Note_on_c, 0, 48, 0
1, 41999, Note_on_c, 0, 60, 0
1, 42000, Tempo, 489796
1, 42000, Note_on_c, 0, 60, 53
1, 42000, Note_on_c, 0, 48, 37
1, 42040, Tempo, 512821
1, 42080, Tempo, 535714
1, 42119, Note_on_c, 0, 48, 0
1, 42119, Note_on_c, 0, 60, 0
1, 42120, Tempo, 563380
1, 42120, Note_on_c, 0, 52, 53
1, 42120, Note_on_c, 0, 43, 37
1, 42160, Tempo, 594059
1, 42200, Tempo, 628272
1, 42239, Note_on_c, 0, 43, 0
1, 42239, Note_on_c, 0, 52, 0
1, 42240, Tempo, 412371
1, 42240, Note_on_c, 0, 48, 75
1, 42240, Text_t, "bdca426d104a26ac9dcb070447587523"
1, 42240, Control_c, 0, 91, 127
1, 42240, Note_on_c, 0, 32, 53
1, 42247, Control_c, 0, 64, 0
1, 42304, Control_c, 0, 64, 127
1, 42359, Note_on_c, 0, 32, 0
1, 42359, Note_on_c, 0, 48, 0
1, 42360, Tempo, 410959
1, 42360, Note_on_c, 0, 51, 48
1, 42360, Note_on_c, 0, 39, 38
1, 42440, Tempo, 409556
1, 42479, Note_on_c, 0, 39, 0
1, 42479, Note_on_c, 0, 51, 0
1, 42480, Note_on_c, 0, 60, 48
1, 42480, Note_on_c, 0, 44, 38
1, 42520, Tempo, 408163
1, 42599, Note_on_c, 0, 44, 0
1, 42599, Note_on_c, 0, 60, 0
1, 42600, Note_on_c, 0, 60, 48
1, 42600, Note_on_c, 0, 44, 38
1, 42640, Tempo, 406780
1, 42719, Note_on_c, 0, 44, 0
1, 42719, Note_on_c, 0, 60, 0
1, 42720, Tempo, 405405
1, 42720, Note_on_c, 0, 63, 56
1, 42720, Note_on_c, 0, 51, 48
1, 42800, Tempo, 404040
1, 42839, Note_on_c, 0, 51, 0
1, 42839, Note_on_c, 0, 63, 0
1, 42840, Note_on_c, 0, 72, 49
1, 42840, Note_on_c, 0, 56, 37
1, 42920, Tempo, 402685
1, 42959, Note_on_c, 0, 56, 0
1, 42959, Note_on_c, 0, 72, 0
1, 42960, Note_on_c, 0, 72, 49
1, 42960, Note_on_c, 0, 56, 37
1, 43000, Tempo, 401338
1, 43079, Note_on_c, 0, 56, 0
1, 43079, Note_on_c, 0, 72, 0
1, 43080, Tempo, 400000
1, 43080, Note_on_c, 0, 75, 49
1, 43080, Note_on_c, 0, 63, 37
1, 43160, Tempo, 398671
1, 43199, Note_on_c, 0, 63, 0
1, 43199, Note_on_c, 0, 75, 0
1, 43200, Note_on_c, 0, 84, 63
1, 43200, Note_on_c, 0, 68, 47
1, 43319, Note_on_c, 0, 68, 0
1, 43319, Note_on_c, 0, 84, 0
1, 43320, Tempo, 400000
1, 43320, Note_on_c, 0, 84, 49
1, 43320, Note_on_c, 0, 68, 37
1, 43439, Note_on_c, 0, 68, 0
1, 43439, Note_on_c, 0, 84, 0
1, 43440, Tempo, 401338
1, 43440, Note_on_c, 0, 87, 49
1, 43440, Note_on_c, 0, 75, 37
1, 43559, Note_on_c, 0, 75, 0
1, 43559, Note_on_c, 0, 87, 0
1, 43560, Tempo, 402685
1, 43560, Note_on_c, 0, 96, 49
1, 43560, Note_on_c, 0, 80, 37
1, 43679, Note_on_c, 0, 80, 0
1, 43679, Note_on_c, 0, 96, 0
1, 43680, Tempo, 404040
1, 43680, Note_on_c, 0, 87, 56
1, 43680, Note_on_c, 0, 75, 44
1, 43799, Note_on_c, 0, 75, 0
1, 43799, Note_on_c, 0, 87, 0
1, 43800, Tempo, 405405
1, 43800, Note_on_c, 0, 84, 49
1, 43800, Note_on_c, 0, 68, 34
1, 43840, Tempo, 409556
1, 43880, Tempo, 413793
1, 43919, Note_on_c, 0, 68, 0
1, 43919, Note_on_c, 0, 84, 0
1, 43920, Tempo, 418118
1, 43920, Note_on_c, 0, 84, 49
1, 43920, Note_on_c, 0, 68, 34
1, 43960, Tempo, 422535
1, 44000, Tempo, 427046
1, 44039, Note_on_c, 0, 68, 0
1, 44039, Note_on_c, 0, 84, 0
1, 44040, Tempo, 431655
1, 44040, Note_on_c, 0, 75, 49
1, 44040, Note_on_c, 0, 63, 34
1, 44080, Tempo, 436364
1, 44120, Tempo, 441176
1, 44159, Note_on_c, 0, 63, 0
1, 44159, Note_on_c, 0, 75, 0
1, 44160, Tempo, 413793
1, 44160, Note_on_c, 0, 72, 60
1, 44160, Text_t, "bdca426d104a26ac9dcb070447587523"
1, 44160, Control_c, 0, 91, 127
1, 44160, Note_on_c, 0, 56, 50
1, 44163, Control_c, 0, 64, 0
1, 44218, Control_c, 0, 64, 127
1, 44279, Note_on_c, 0, 56, 0
1, 44279, Note_on_c, 0, 72, 0
1, 44280, Tempo, 412371
1, 44280, Note_on_c, 0, 72, 48
1, 44280, Note_on_c, 0, 56, 38
1, 44360, Tempo, 410959
1, 44399, Note_on_c, 0, 56, 0
1, 44399, Note_on_c, 0, 72, 0
1, 44400, Note_on_c, 0, 63, 48
1, 44400, Note_on_c, 0, 51, 38
1, 44440, Tempo, 409556
1, 44519, Note_on_c, 0, 51, 0
1, 44519, Note_on_c, 0, 63, 0
1, 44520, Tempo, 408163
1, 44520, Note_on_c, 0, 60, 48
1, 44520, Note_on_c, 0, 44, 38
1, 44600, Tempo, 406780
1, 44639, Note_on_c, 0, 44, 0
1, 44639, Note_on_c, 0, 60, 0
1, 44640, Tempo, 402685
1, 44640, Note_on_c, 0, 60, 69
1, 44640, Note_on_c, 0, 44, 48
1, 44759, Note_on_c, 0, 44, 0
1, 44760, Note_on_c, 0, 51, 49
1, 44760, Note_on_c, 0, 39, 37
1, 44879, Note_on_c, 0, 39, 0
1, 44879, Note_on_c, 0, 51, 0
1, 44880, Note_on_c, 0, 48, 49
1, 44880, Note_on_c, 0, 32, 37
1, 44999, Note_on_c, 0, 32, 0
1, 44999, Note_on_c, 0, 48, 0
1, 45000, Note_on_c, 0, 51, 49
1, 45000, Note_on_c, 0, 39, 37
1, 45119, Note_on_c, 0, 39, 0
1, 45119, Note_on_c, 0, 51, 0
1, 45120, Tempo, 404040
1, 45120, Note_on_c, 0, 60, 0
1, 45120, Note_on_c, 0, 46, 69
1, 45120, Note_on_c, 0, 43, 47
1, 45137, Control_c, 0, 64, 0
1, 45211, Control_c, 0, 64, 127
1, 45239, Note_on_c, 0, 43, 0
1, 45239, Note_on_c, 0, 46, 0
1, 45240, Tempo, 405405
1, 45240, Note_on_c, 0, 51, 49
1, 45240, Note_on_c, 0, 39, 37
1, 45320, Tempo, 406780
1, 45359, Note_on_c, 0, 39, 0
1, 45359, Note_on_c, 0, 51, 0
1, 45360, Note_on_c, 0, 58, 64
1, 45360, Note_on_c, 0, 32, 37
1, 45400, Tempo, 408163
1, 45479, Note_on_c, 0, 32, 0
1, 45479, Note_on_c, 0, 58, 0
1, 45480, Tempo, 409556
1, 45480, Note_on_c, 0, 51, 51
1, 45480, Note_on_c, 0, 39, 37
1, 45520, Tempo, 410959
1, 45599, Note_on_c, 0, 39, 0
1, 45599, Note_on_c, 0, 51, 0
1, 45600, Note_on_c, 0, 49, 68
1, 45600, Note_on_c, 0, 46, 44
1, 45611, Control_c, 0, 64, 0
1, 45657, Control_c, 0, 64, 127
1, 45719, Note_on_c, 0, 46, 0
1, 45719, Note_on_c, 0, 49, 0
1, 45720, Tempo, 412371
1, 45720, Note_on_c, 0, 51, 49
1, 45720, Note_on_c, 0, 39, 34
1, 45760, Tempo, 409556
1, 45800, Tempo, 413793
1, 45839, Note_on_c, 0, 39, 0
1, 45839, Note_on_c, 0, 51, 0
1, 45840, Tempo, 418118
1, 45840, Note_on_c, 0, 63, 60
1, 45840, Note_on_c, 0, 32, 34
1, 45880, Tempo, 422535
1, 45920, Tempo, 427046
1, 45959, Note_on_c, 0, 32, 0
1, 45959, Note_on_c, 0, 63, 0
1, 45960, Tempo, 431655
1, 45960, Note_on_c, 0, 51, 49
1, 45960, Note_on_c, 0, 39, 34
1, 46000, Tempo, 436364
1, 46040, Tempo, 441176
1, 46079, Note_on_c, 0, 39, 0
1, 46079, Note_on_c, 0, 51, 0
1, 46080, Tempo, 401338
1, 46080, Note_on_c, 0, 48, 75
1, 46080, Text_t, "bdca426d104a26ac9dcb070447587523"
1, 46080, Control_c, 0, 91, 127
1, 46080, Control_c, 0, 64, 0
1, 46080, Note_on_c, 0, 32, 53
1, 46146, Control_c, 0, 64, 127
1, 46199, Note_on_c, 0, 32, 0
1, 46199, Note_on_c, 0, 48, 0
1, 46200, Tempo, 400000
1, 46200, Note_on_c, 0, 51, 48
1, 46200, Note_on_c, 0, 39, 38
1, 46319, Note_on_c, 0, 39, 0
1, 46319, Note_on_c, 0, 51, 0
1, 46320, Tempo, 398671
1, 46320, Note_on_c, 0, 60, 48
1, 46320, Note_on_c, 0, 44, 38
1, 46400, Tempo, 397351
1, 46439, Note_on_c, 0, 44, 0
1, 46439, Note_on_c, 0, 60, 0
1, 46440, Note_on_c, 0, 60, 48
1, 46440, Note_on_c, 0, 44, 38
1, 46520, Tempo, 396040
1, 46559, Note_on_c, 0, 44, 0
1, 46560, Note_on_c, 0, 63, 56
1, 46560, Note_on_c, 0, 51, 48
1, 46640, Tempo, 394737
1, 46679, Note_on_c, 0, 51, 0
1, 46679, Note_on_c, 0, 63, 0
1, 46680, Note_on_c, 0, 60, 0
1, 46680, Note_on_c, 0, 72, 49
1, 46680, Note_on_c, 0, 56, 37
1, 46720, Tempo, 393443
1, 46799, Note_on_c, 0, 56, 0
1, 46799, Note_on_c, 0, 72, 0
1, 46800, Note_on_c, 0, 72, 49
1, 46800, Note_on_c, 0, 56, 37
1, 46840, Tempo, 392157
1, 46919, Note_on_c, 0, 56, 0
1, 46919, Note_on_c, 0, 72, 0
1, 46920, Note_on_c, 0, 75, 49
1, 46920, Note_on_c, 0, 63, 37
1, 46960, Tempo, 390879
1, 47039, Note_on_c, 0, 63, 0
1, 47039, Note_on_c, 0, 75, 0
1, 47040, Tempo, 389610
1, 47040, Note_on_c, 0, 84, 63
1, 47040, Note_on_c, 0, 68, 47
1, 47159, Note_on_c, 0, 68, 0
1, 47159, Note_on_c, 0, 84, 0
1, 47160, Note_on_c, 0, 84, 49
1, 47160, Note_on_c, 0, 68, 37
1, 47200, Tempo, 390879
1, 47279, Note_on_c, 0, 68, 0
1, 47279, Note_on_c, 0, 84, 0
1, 47280, Note_on_c, 0, 87, 49
1, 47280, Note_on_c, 0, 75, 37
1, 47320, Tempo, 392157
1, 47399, Note_on_c, 0, 75, 0
1, 47399, Note_on_c, 0, 87, 0
1, 47400, Note_on_c, 0, 96, 49
1, 47400, Note_on_c, 0, 80, 37
1, 47440, Tempo, 393443
1, 47519, Note_on_c, 0, 80, 0
1, 47519, Note_on_c, 0, 96, 0
1, 47520, Tempo, 393443
1, 47520, Note_on_c, 0, 87, 56
1, 47520, Note_on_c, 0, 75, 44
1, 47560, Tempo, 397351
1, 47600, Tempo, 401338
1, 47639, Note_on_c, 0, 75, 0
1, 47639, Note_on_c, 0, 87, 0
1, 47640, Tempo, 405405
1, 47640, Note_on_c, 0, 84, 49
1, 47640, Note_on_c, 0, 68, 34
1, 47680, Tempo, 409556
1, 47720, Tempo, 413793
1, 47759, Note_on_c, 0, 68, 0
1, 47759, Note_on_c, 0, 84, 0
1, 47760, Tempo, 418118
1, 47760, Note_on_c, 0, 84, 49
1, 47760, Note_on_c, 0, 68, 34
1, 47800, Tempo, 422535
1, 47840, Tempo, 427046
1, 47879, Note_on_c, 0, 68, 0
1, 47879, Note_on_c, 0, 84, 0
1, 47880, Tempo, 431655
1, 47880, Note_on_c, 0, 75, 49
1, 47880, Note_on_c, 0, 63, 34
1, 47920, Tempo, 436364
1, 47960, Tempo, 418118
1, 47999, Note_on_c, 0, 63, 0
1, 47999, Note_on_c, 0, 75, 0
1, 48000, Note_on_c, 0, 72, 60
1, 48000, Text_t, "bdca426d104a26ac9dcb070447587523"
1, 48000, Control_c, 0, 91, 127
1, 48000, Note_on_c, 0, 56, 50
1, 48019, Control_c, 0, 64, 0
1, 48080, Tempo, 416667
1, 48119, Note_on_c, 0, 56, 0
1, 48119, Note_on_c, 0, 72, 0
1, 48120, Note_on_c, 0, 72, 48
1, 48120, Control_c, 0, 64, 127
1, 48120, Note_on_c, 0, 56, 38
1, 48160, Tempo, 415225
1, 48239, Note_on_c, 0, 56, 0
1, 48239, Note_on_c, 0, 72, 0
1, 48240, Tempo, 413793
1, 48240, Note_on_c, 0, 63, 48
1, 48240, Note_on_c, 0, 51, 38
1, 48320, Tempo, 412371
1, 48359, Note_on_c, 0, 51, 0
1, 48359, Note_on_c, 0, 63, 0
1, 48360, Note_on_c, 0, 60, 48
1, 48360, Note_on_c, 0, 44, 38
1, 48400, Tempo, 410959
1, 48479, Note_on_c, 0, 44, 0
1, 48479, Note_on_c, 0, 60, 0
1, 48480, Tempo, 409556
1, 48480, Note_on_c, 0, 60, 69
1, 48480, Note_on_c, 0, 44, 48
1, 48560, Tempo, 408163
1, 48599, Note_on_c, 0, 44, 0
1, 48600, Tempo, 404040
1, 48600, Note_on_c, 0, 51, 49
1, 48600, Note_on_c, 0, 39, 37
1, 48719, Note_on_c, 0, 39, 0
1, 48719, Note_on_c, 0, 51, 0
1, 48720, Note_on_c, 0, 48, 49
1, 48720, Note_on_c, 0, 32, 37
1, 48839, Note_on_c, 0, 32, 0
1, 48839, Note_on_c, 0, 48, 0
1, 48840, Note_on_c, 0, 51, 49
1, 48840, Note_on_c, 0, 39, 37
1, 48880, Tempo, 406780
1, 48959, Note_on_c, 0, 39, 0
1, 48959, Note_on_c, 0, 51, 0
1, 48960, Note_on_c, 0, 60, 0
1, 48960, Note_on_c, 0, 46, 69
1, 48960, Note_on_c, 0, 43, 47
1, 48977, Control_c, 0, 64, 0
1, 49000, Tempo, 408163
1, 49051, Control_c, 0, 64, 127
1, 49079, Note_on_c, 0, 43, 0
1, 49079, Note_on_c, 0, 46, 0
1, 49080, Tempo, 409556
1, 49080, Note_on_c, 0, 51, 49
1, 49080, Note_on_c, 0, 39, 37
1, 49160, Tempo, 410959
1, 49199, Note_on_c, 0, 39, 0
1, 49199, Note_on_c, 0, 51, 0
1, 49200, Note_on_c, 0, 58, 64
1, 49200, Note_on_c, 0, 32, 37
1, 49280, Tempo, 412371
1, 49319, Note_on_c, 0, 32, 0
1, 49319, Note_on_c, 0, 58, 0
1, 49320, Note_on_c, 0, 51, 51
1, 49320, Note_on_c, 0, 39, 37
1, 49360, Tempo, 413793
1, 49439, Note_on_c, 0, 39, 0
1, 49439, Note_on_c, 0, 51, 0
1, 49440, Tempo, 415225
1, 49440, Note_on_c, 0, 44, 68
1, 49440, Note_on_c, 0, 41, 44
1, 49451, Control_c, 0, 64, 0
1, 49497, Control_c, 0, 64, 127
1, 49520, Tempo, 416667
1, 49559, Note_on_c, 0, 41, 0
1, 49559, Note_on_c, 0, 44, 0
1, 49560, Tempo, 405405
1, 49560, Note_on_c, 0, 51, 49
1, 49560, Note_on_c, 0, 39, 34
1, 49600, Tempo, 409556
1, 49640, Tempo, 413793
1, 49679, Note_on_c, 0, 39, 0
1, 49679, Note_on_c, 0, 51, 0
1, 49680, Tempo, 418118
1, 49680, Note_on_c, 0, 56, 60
1, 49680, Note_on_c, 0, 32, 34
1, 49720, Tempo, 422535
1, 49760, Tempo, 427046
1, 49799, Note_on_c, 0, 32, 0
1, 49799, Note_on_c, 0, 56, 0
1, 49800, Tempo, 431655
1, 49800, Note_on_c, 0, 51, 49
1, 49800, Note_on_c, 0, 39, 34
1, 49840, Tempo, 436364
1, 49880, Tempo, 441176
1, 49919, Note_on_c, 0, 39, 0
1, 49919, Note_on_c, 0, 51, 0
1, 49920, Tempo, 401338
1, 49920, Note_on_c, 0, 46, 75
1, 49920, Text_t, "bdca426d104a26ac9dcb070447587523"
1, 49920, Control_c, 0, 91, 127
1, 49920, Note_on_c, 0, 32, 53
1, 49922, Control_c, 0, 64, 0
1, 49983, Control_c, 0, 64, 127
1, 50039, Note_on_c, 0, 32, 0
1, 50039, Note_on_c, 0, 46, 0
1, 50040, Tempo, 400000
1, 50040, Note_on_c, 0, 51, 48
1, 50040, Note_on_c, 0, 39, 38
1, 50159, Note_on_c, 0, 39, 0
1, 50159, Note_on_c, 0, 51, 0
1, 50160, Tempo, 398671
1, 50160, Note_on_c, 0, 58, 48
1, 50160, Note_on_c, 0, 43, 38
1, 50240, Tempo, 397351
1, 50279, Note_on_c, 0, 43, 0
1, 50279, Note_on_c, 0, 58, 0
1, 50280, Note_on_c, 0, 58, 48
1, 50280, Note_on_c, 0, 44, 38
1, 50360, Tempo, 396040
1, 50399, Note_on_c, 0, 44, 0
1, 50400, Note_on_c, 0, 63, 56
1, 50400, Note_on_c, 0, 51, 48
1, 50480, Tempo, 394737
1, 50519, Note_on_c, 0, 51, 0
1, 50519, Note_on_c, 0, 63, 0
1, 50520, Note_on_c, 0, 58, 0
1, 50520, Note_on_c, 0, 70, 49
1, 50520, Note_on_c, 0, 55, 37
1, 50560, Tempo, 393443
1, 50639, Note_on_c, 0, 55, 0
1, 50639, Note_on_c, 0, 70, 0
1, 50640, Note_on_c, 0, 70, 49
1, 50640, Note_on_c, 0, 56, 37
1, 50680, Tempo, 392157
1, 50759, Note_on_c, 0, 56, 0
1, 50759, Note_on_c, 0, 70, 0
1, 50760, Note_on_c, 0, 75, 49
1, 50760, Note_on_c, 0, 63, 37
1, 50800, Tempo, 390879
1, 50879, Note_on_c, 0, 63, 0
1, 50879, Note_on_c, 0, 75, 0
1, 50880, Tempo, 389610
1, 50880, Note_on_c, 0, 82, 63
1, 50880, Note_on_c, 0, 67, 47
1, 50999, Note_on_c, 0, 67, 0
1, 50999, Note_on_c, 0, 82, 0
1, 51000, Note_on_c, 0, 82, 49
1, 51000, Note_on_c, 0, 68, 37
1, 51040, Tempo, 390879
1, 51119, Note_on_c, 0, 68, 0
1, 51119, Note_on_c, 0, 82, 0
1, 51120, Note_on_c, 0, 87, 49
1, 51120, Note_on_c, 0, 75, 37
1, 51160, Tempo, 392157
1, 51239, Note_on_c, 0, 75, 0
1, 51239, Note_on_c, 0, 87, 0
1, 51240, Note_on_c, 0, 94, 49
1, 51240, Note_on_c, 0, 79, 37
1, 51280, Tempo, 393443
1, 51359, Note_on_c, 0, 79, 0
1, 51359, Note_on_c, 0, 94, 0
1, 51360, Tempo, 393443
1, 51360, Note_on_c, 0, 87, 56
1, 51360, Note_on_c, 0, 75, 44
1, 51400, Tempo, 397351
1, 51440, Tempo, 401338
1, 51479, Note_on_c, 0, 75, 0
1, 51479, Note_on_c, 0, 87, 0
1, 51480, Tempo, 405405
1, 51480, Note_on_c, 0, 82, 49
1, 51480, Note_on_c, 0, 68, 34
1, 51520, Tempo, 409556
1, 51560, Tempo, 413793
1, 51599, Note_on_c, 0, 68, 0
1, 51599, Note_on_c, 0, 82, 0
1, 51600, Tempo, 418118
1, 51600, Note_on_c, 0, 82, 49
1, 51600, Note_on_c, 0, 67, 34
1, 51640, Tempo, 422535
1, 51680, Tempo, 427046
1, 51719, Note_on_c, 0, 67, 0
1, 51719, Note_on_c, 0, 82, 0
1, 51720, Tempo, 431655
1, 51720, Note_on_c, 0, 75, 49
1, 51720, Note_on_c, 0, 63, 34
1, 51760, Tempo, 436364
1, 51800, Tempo, 441176
1, 51839, Note_on_c, 0, 63, 0
1, 51839, Note_on_c, 0, 75, 0
1, 51840, Tempo, 410959
1, 51840, Note_on_c, 0, 70, 60
1, 51840, Text_t, "bdca426d104a26ac9dcb070447587523"
1, 51840, Control_c, 0, 91, 127
1, 51840, Note_on_c, 0, 56, 50
1, 51848, Control_c, 0, 64, 0
1, 51903, Control_c, 0, 64, 127
1, 51959, Note_on_c, 0, 56, 0
1, 51959, Note_on_c, 0, 70, 0
1, 51960, Note_on_c, 0, 70, 48
1, 51960, Note_on_c, 0, 55, 38
1, 52079, Note_on_c, 0, 55, 0
1, 52079, Note_on_c, 0, 70, 0
1, 52080, Note_on_c, 0, 63, 48
1, 52080, Note_on_c, 0, 51, 38
1, 52199, Note_on_c, 0, 51, 0
1, 52199, Note_on_c, 0, 63, 0
1, 52200, Note_on_c, 0, 58, 48
1, 52200, Note_on_c, 0, 44, 38
1, 52319, Note_on_c, 0, 44, 0
1, 52319, Note_on_c, 0, 58, 0
1, 52320, Tempo, 410959
1, 52320, Note_on_c, 0, 58, 66
1, 52320, Note_on_c, 0, 43, 45
1, 52439, Note_on_c, 0, 43, 0
1, 52440, Note_on_c, 0, 51, 46
1, 52440, Note_on_c, 0, 39, 35
1, 52480, Tempo, 412371
1, 52559, Note_on_c, 0, 39, 0
1, 52559, Note_on_c, 0, 51, 0
1, 52560, Note_on_c, 0, 46, 46
1, 52560, Note_on_c, 0, 32, 35
1, 52640, Tempo, 413793
1, 52679, Note_on_c, 0, 32, 0
1, 52679, Note_on_c, 0, 46, 0
1, 52680, Note_on_c, 0, 51, 46
1, 52680, Note_on_c, 0, 39, 35
1, 52760, Tempo, 412371
1, 52799, Note_on_c, 0, 39, 0
1, 52799, Note_on_c, 0, 51, 0
1, 52800, Note_on_c, 0, 58, 0
1, 52800, Note_on_c, 0, 44, 66
1, 52800, Note_on_c, 0, 41, 44
1, 52817, Control_c, 0, 64, 0
1, 52840, Tempo, 413793
1, 52891, Control_c, 0, 64, 127
1, 52919, Note_on_c, 0, 41, 0
1, 52919, Note_on_c, 0, 44, 0
1, 52920, Tempo, 415225
1, 52920, Note_on_c, 0, 49, 47
1, 52920, Note_on_c, 0, 37, 35
1, 52960, Tempo, 416667
1, 53039, Note_on_c, 0, 37, 0
1, 53039, Note_on_c, 0, 49, 0
1, 53040, Tempo, 418118
1, 53040, Note_on_c, 0, 56, 61
1, 53040, Note_on_c, 0, 32, 35
1, 53120, Tempo, 419580
1, 53159, Note_on_c, 0, 32, 0
1, 53160, Tempo, 421053
1, 53160, Note_on_c, 0, 49, 49
1, 53160, Note_on_c, 0, 37, 35
1, 53240, Tempo, 422535
1, 53279, Note_on_c, 0, 37, 0
1, 53279, Note_on_c, 0, 49, 0
1, 53280, Note_on_c, 0, 44, 63
1, 53280, Note_on_c, 0, 41, 41
1, 53291, Control_c, 0, 64, 0
1, 53320, Tempo, 424028
1, 53337, Control_c, 0, 64, 127
1, 53360, Tempo, 425532
1, 53399, Note_on_c, 0, 41, 0
1, 53399, Note_on_c, 0, 44, 0
1, 53400, Note_on_c, 0, 49, 46
1, 53400, Note_on_c, 0, 37, 31
1, 53440, Tempo, 427046
1, 53480, Tempo, 428571
1, 53519, Note_on_c, 0, 37, 0
1, 53519, Note_on_c, 0, 49, 0
1, 53520, Tempo, 431655
1, 53520, Note_on_c, 0, 56, 0
1, 53520, Note_on_c, 0, 53, 56
1, 53520, Note_on_c, 0, 32, 31
1, 53560, Tempo, 436364
1, 53600, Tempo, 441176
1, 53639, Note_on_c, 0, 32, 0
1, 53640, Tempo, 444444
1, 53640, Note_on_c, 0, 49, 46
1, 53640, Note_on_c, 0, 37, 31
1, 53680, Tempo, 449438
1, 53720, Tempo, 454545
1, 53759, Note_on_c, 0, 37, 0
1, 53759, Note_on_c, 0, 49, 0
1, 53760, Tempo, 401338
1, 53760, Note_on_c, 0, 53, 0
1, 53760, Note_on_c, 0, 44, 72
1, 53760, Text_t, "bdca426d104a26ac9dcb070447587523"
1, 53760, Control_c, 0, 91, 127
1, 53760, Note_on_c, 0, 32, 50
1, 53781, Control_c, 0, 64, 0
1, 53811, Control_c, 0, 64, 127
1, 53879, Note_on_c, 0, 32, 0
1, 53879, Note_on_c, 0, 44, 0
1, 53880, Tempo, 400000
1, 53880, Note_on_c, 0, 49, 45
1, 53880, Note_on_c, 0, 40, 36
1, 53999, Note_on_c, 0, 40, 0
1, 53999, Note_on_c, 0, 49, 0
1, 54000, Tempo, 398671
1, 54000, Note_on_c, 0, 56, 45
1, 54000, Note_on_c, 0, 44, 36
1, 54080, Tempo, 397351
1, 54119, Note_on_c, 0, 44, 0
1, 54119, Note_on_c, 0, 56, 0
1, 54120, Note_on_c, 0, 56, 45
1, 54120, Note_on_c, 0, 44, 35
1, 54200, Tempo, 396040
1, 54239, Note_on_c, 0, 44, 0
1, 54239, Note_on_c, 0, 56, 0
1, 54240, Note_on_c, 0, 61, 52
1, 54240, Note_on_c, 0, 52, 45
1, 54320, Tempo, 394737
1, 54359, Note_on_c, 0, 52, 0
1, 54359, Note_on_c, 0, 61, 0
1, 54360, Note_on_c, 0, 68, 45
1, 54360, Note_on_c, 0, 56, 34
1, 54400, Tempo, 393443
1, 54479, Note_on_c, 0, 56, 0
1, 54479, Note_on_c, 0, 68, 0
1, 54480, Note_on_c, 0, 68, 45
1, 54480, Note_on_c, 0, 56, 34
1, 54520, Tempo, 392157
1, 54599, Note_on_c, 0, 56, 0
1, 54599, Note_on_c, 0, 68, 0
1, 54600, Note_on_c, 0, 73, 44
1, 54600, Note_on_c, 0, 64, 33
1, 54640, Tempo, 390879
1, 54719, Note_on_c, 0, 64, 0
1, 54719, Note_on_c, 0, 73, 0
1, 54720, Tempo, 389610
1, 54720, Note_on_c, 0, 80, 62
1, 54720, Note_on_c, 0, 68, 42
1, 54839, Note_on_c, 0, 68, 0
1, 54839, Note_on_c, 0, 80, 0
1, 54840, Note_on_c, 0, 73, 45
1, 54840, Note_on_c, 0, 64, 33
1, 54880, Tempo, 390879
1, 54959, Note_on_c, 0, 64, 0
1, 54959, Note_on_c, 0, 73, 0
1, 54960, Note_on_c, 0, 68, 45
1, 54960, Note_on_c, 0, 56, 33
1, 55000, Tempo, 392157
1, 55079, Note_on_c, 0, 56, 0
1, 55079, Note_on_c, 0, 68, 0
1, 55080, Note_on_c, 0, 68, 44
1, 55080, Note_on_c, 0, 56, 33
1, 55120, Tempo, 393443
1, 55199, Note_on_c, 0, 56, 0
1, 55199, Note_on_c, 0, 68, 0
1, 55200, Tempo, 393443
1, 55200, Note_on_c, 0, 61, 50
1, 55200, Note_on_c, 0, 52, 39
1, 55240, Tempo, 397351
1, 55280, Tempo, 401338
1, 55319, Note_on_c, 0, 52, 0
1, 55319, Note_on_c, 0, 61, 0
1, 55320, Tempo, 405405
1, 55320, Note_on_c, 0, 56, 42
1, 55320, Note_on_c, 0, 44, 30
1, 55360, Tempo, 409556
1, 55400, Tempo, 413793
1, 55439, Note_on_c, 0, 44, 0
1, 55439, Note_on_c, 0, 56, 0
1, 55440, Tempo, 418118
1, 55440, Note_on_c, 0, 56, 42
1, 55440, Note_on_c, 0, 44, 30
1, 55480, Tempo, 422535
1, 55520, Tempo, 427046
1, 55559, Note_on_c, 0, 44, 0
1, 55559, Note_on_c, 0, 56, 0
1, 55560, Tempo, 431655
1, 55560, Note_on_c, 0, 49, 42
1, 55560, Note_on_c, 0, 40, 29
1, 55600, Tempo, 436364
1, 55640, Tempo, 441176
1, 55679, Note_on_c, 0, 40, 0
1, 55679, Note_on_c, 0, 49, 0
1, 55680, Tempo, 401338
1, 55680, Note_on_c, 0, 44, 64
1, 55680, Text_t, "bdca426d104a26ac9dcb070447587523"
1, 55680, Control_c, 0, 91, 127
1, 55680, Note_on_c, 0, 32, 44
1, 55688, Control_c, 0, 64, 0
1, 55743, Control_c, 0, 64, 127
1, 55799, Note_on_c, 0, 32, 0
1, 55799, Note_on_c, 0, 44, 0
1, 55800, Tempo, 400000
1, 55800, Note_on_c, 0, 48, 42
1, 55800, Note_on_c, 0, 39, 33
1, 55919, Note_on_c, 0, 39, 0
1, 55919, Note_on_c, 0, 48, 0
1, 55920, Tempo, 398671
1, 55920, Note_on_c, 0, 56, 41
1, 55920, Note_on_c, 0, 44, 31
1, 56000, Tempo, 397351
1, 56039, Note_on_c, 0, 44, 0
1, 56039, Note_on_c, 0, 56, 0
1, 56040, Note_on_c, 0, 56, 41
1, 56040, Note_on_c, 0, 44, 31
1, 56080, Tempo, 397351
1, 56159, Note_on_c, 0, 44, 0
1, 56159, Note_on_c, 0, 56, 0
1, 56160, Note_on_c, 0, 60, 50
1, 56160, Note_on_c, 0, 51, 38
1, 56279, Note_on_c, 0, 51, 0
1, 56279, Note_on_c, 0, 60, 0
1, 56280, Note_on_c, 0, 68, 39
1, 56280, Note_on_c, 0, 56, 29
1, 56399, Note_on_c, 0, 56, 0
1, 56399, Note_on_c, 0, 68, 0
1, 56400, Note_on_c, 0, 60, 38
1, 56400, Note_on_c, 0, 51, 29
1, 56519, Note_on_c, 0, 51, 0
1, 56519, Note_on_c, 0, 60, 0
1, 56520, Note_on_c, 0, 56, 38
1, 56520, Note_on_c, 0, 44, 29
1, 56600, Tempo, 400000
1, 56639, Note_on_c, 0, 44, 0
1, 56639, Note_on_c, 0, 56, 0
1, 56640, Note_on_c, 0, 42, 61
1, 56640, Note_on_c, 0, 32, 42
1, 56657, Control_c, 0, 64, 0
1, 56731, Control_c, 0, 64, 127
1, 56759, Note_on_c, 0, 32, 0
1, 56759, Note_on_c, 0, 42, 0
1, 56760, Tempo, 401338
1, 56760, Note_on_c, 0, 48, 39
1, 56760, Note_on_c, 0, 38, 29
1, 56879, Note_on_c, 0, 38, 0
1, 56879, Note_on_c, 0, 48, 0
1, 56880, Tempo, 402685
1, 56880, Note_on_c, 0, 54, 46
1, 56880, Note_on_c, 0, 44, 28
1, 56999, Note_on_c, 0, 44, 0
1, 56999, Note_on_c, 0, 54, 0
1, 57000, Tempo, 404040
1, 57000, Note_on_c, 0, 54, 40
1, 57000, Note_on_c, 0, 44, 28
1, 57119, Note_on_c, 0, 44, 0
1, 57119, Note_on_c, 0, 54, 0
1, 57120, Tempo, 406780
1, 57120, Note_on_c, 0, 60, 48
1, 57120, Note_on_c, 0, 50, 33
1, 57160, Tempo, 412371
1, 57200, Tempo, 419580
1, 57239, Note_on_c, 0, 50, 0
1, 57239, Note_on_c, 0, 60, 0
1, 57240, Tempo, 427046
1, 57240, Note_on_c, 0, 66, 37
1, 57240, Note_on_c, 0, 56, 25
1, 57280, Tempo, 433213
1, 57320, Tempo, 441176
1, 57359, Note_on_c, 0, 56, 0
1, 57359, Note_on_c, 0, 66, 0
1, 57360, Tempo, 449438
1, 57360, Note_on_c, 0, 60, 44
1, 57360, Note_on_c, 0, 50, 25
1, 57400, Tempo, 458015
1, 57440, Tempo, 465116
1, 57479, Note_on_c, 0, 50, 0
1, 57480, Tempo, 474308
1, 57480, Note_on_c, 0, 60, 0
1, 57480, Note_on_c, 0, 54, 36
1, 57480, Note_on_c, 0, 44, 25
1, 57520, Tempo, 483871
1, 57560, Tempo, 408163
1, 57599, Note_on_c, 0, 44, 0
1, 57599, Note_on_c, 0, 54, 0
1, 57600, Note_on_c, 0, 43, 61
1, 57600, Text_t, "bdca426d104a26ac9dcb070447587523"
1, 57600, Control_c, 0, 91, 127
1, 57600, Note_on_c, 0, 31, 42
1, 57621, Control_c, 0, 64, 0
1, 57669, Control_c, 0, 64, 127
1, 57719, Note_on_c, 0, 31, 0
1, 57719, Note_on_c, 0, 43, 0
1, 57720, Tempo, 406780
1, 57720, Note_on_c, 0, 47, 38
1, 57720, Note_on_c, 0, 38, 30
1, 57839, Note_on_c, 0, 38, 0
1, 57839, Note_on_c, 0, 47, 0
1, 57840, Tempo, 405405
1, 57840, Note_on_c, 0, 55, 38
1, 57840, Note_on_c, 0, 43, 30
1, 57959, Note_on_c, 0, 43, 0
1, 57959, Note_on_c, 0, 55, 0
1, 57960, Tempo, 404040
1, 57960, Note_on_c, 0, 55, 38
1, 57960, Note_on_c, 0, 43, 30
1, 58079, Note_on_c, 0, 43, 0
1, 58079, Note_on_c, 0, 55, 0
1, 58080, Tempo, 402685
1, 58080, Note_on_c, 0, 59, 46
1, 58080, Note_on_c, 0, 50, 36
1, 58199, Note_on_c, 0, 50, 0
1, 58199, Note_on_c, 0, 59, 0
1, 58200, Tempo, 401338
1, 58200, Note_on_c, 0, 67, 39
1, 58200, Note_on_c, 0, 55, 29
1, 58319, Note_on_c, 0, 55, 0
1, 58319, Note_on_c, 0, 67, 0
1, 58320, Tempo, 400000
1, 58320, Note_on_c, 0, 67, 39
1, 58320, Note_on_c, 0, 55, 29
1, 58439, Note_on_c, 0, 55, 0
1, 58439, Note_on_c, 0, 67, 0
1, 58440, Tempo, 398671
1, 58440, Note_on_c, 0, 71, 40
1, 58440, Note_on_c, 0, 62, 29
1, 58559, Note_on_c, 0, 62, 0
1, 58559, Note_on_c, 0, 71, 0
1, 58560, Tempo, 397351
1, 58560, Note_on_c, 0, 79, 56
1, 58560, Note_on_c, 0, 67, 41
1, 58640, Tempo, 394737
1, 58679, Note_on_c, 0, 67, 0
1, 58679, Note_on_c, 0, 79, 0
1, 58680, Note_on_c, 0, 71, 41
1, 58680, Note_on_c, 0, 62, 29
1, 58720, Tempo, 396040
1, 58799, Note_on_c, 0, 62, 0
1, 58799, Note_on_c, 0, 71, 0
1, 58800, Tempo, 397351
1, 58800, Note_on_c, 0, 67, 41
1, 58800, Note_on_c, 0, 55, 30
1, 58880, Tempo, 398671
1, 58919, Note_on_c, 0, 55, 0
1, 58919, Note_on_c, 0, 67, 0
1, 58920, Note_on_c, 0, 67, 41
1, 58920, Note_on_c, 0, 55, 30
1, 58960, Tempo, 400000
1, 59039, Note_on_c, 0, 55, 0
1, 59039, Note_on_c, 0, 67, 0
1, 59040, Tempo, 401338
1, 59040, Note_on_c, 0, 59, 47
1, 59040, Note_on_c, 0, 50, 36
1, 59080, Tempo, 397351
1, 59120, Tempo, 401338
1, 59159, Note_on_c, 0, 50, 0
1, 59159, Note_on_c, 0, 59, 0
1, 59160, Tempo, 405405
1, 59160, Note_on_c, 0, 55, 41
1, 59160, Note_on_c, 0, 43, 28
1, 59200, Tempo, 409556
1, 59240, Tempo, 413793
1, 59279, Note_on_c, 0, 43, 0
1, 59279, Note_on_c, 0, 55, 0
1, 59280, Tempo, 418118
1, 59280, Note_on_c, 0, 55, 41
1, 59280, Note_on_c, 0, 43, 28
1, 59320, Tempo, 422535
1, 59360, Tempo, 427046
1, 59399, Note_on_c, 0, 43, 0
1, 59399, Note_on_c, 0, 55, 0
1, 59400, Tempo, 431655
1, 59400, Note_on_c, 0, 47, 41
1, 59400, Note_on_c, 0, 38, 28
1, 59440, Tempo, 436364
1, 59480, Tempo, 441176
1, 59519, Note_on_c, 0, 38, 0
1, 59519, Note_on_c, 0, 47, 0
1, 59520, Tempo, 401338
1, 59520, Note_on_c, 0, 44, 66
1, 59520, Text_t, "bdca426d104a26ac9dcb070447587523"
1, 59520, Control_c, 0, 91, 127
1, 59520, Note_on_c, 0, 31, 46
1, 59548, Control_c, 0, 64, 0
1, 59560, Tempo, 401338
1, 59598, Control_c, 0, 64, 127
1, 59639, Note_on_c, 0, 31, 0
1, 59639, Note_on_c, 0, 44, 0
1, 59640, Note_on_c, 0, 48, 41
1, 59640, Note_on_c, 0, 39, 31
1, 59720, Tempo, 400000
1, 59759, Note_on_c, 0, 39, 0
1, 59759, Note_on_c, 0, 48, 0
1, 59760, Note_on_c, 0, 56, 41
1, 59760, Note_on_c, 0, 43, 31
1, 59879, Note_on_c, 0, 43, 0
1, 59879, Note_on_c, 0, 56, 0
1, 59880, Tempo, 398671
1, 59880, Note_on_c, 0, 56, 41
1, 59880, Note_on_c, 0, 43, 31
1, 59999, Note_on_c, 0, 43, 0
1, 59999, Note_on_c, 0, 56, 0
1, 60000, Note_on_c, 0, 60, 49
1, 60000, Note_on_c, 0, 51, 39
1, 60040, Tempo, 397351
1, 60119, Note_on_c, 0, 51, 0
1, 60119, Note_on_c, 0, 60, 0
1, 60120, Note_on_c, 0, 68, 44
1, 60120, Note_on_c, 0, 55, 33
1, 60200, Tempo, 396040
1, 60239, Note_on_c, 0, 55, 0
1, 60239, Note_on_c, 0, 68, 0
1, 60240, Note_on_c, 0, 68, 44
1, 60240, Note_on_c, 0, 55, 33
1, 60359, Note_on_c, 0, 55, 0
1, 60359, Note_on_c, 0, 68, 0
1, 60360, Tempo, 394737
1, 60360, Note_on_c, 0, 72, 44
1, 60360, Note_on_c, 0, 63, 33
1, 60479, Note_on_c, 0, 63, 0
1, 60479, Note_on_c, 0, 72, 0
1, 60480, Tempo, 393443
1, 60480, Note_on_c, 0, 80, 60
1, 60480, Note_on_c, 0, 67, 45
1, 60599, Note_on_c, 0, 67, 0
1, 60599, Note_on_c, 0, 80, 0
1, 60600, Note_on_c, 0, 72, 45
1, 60600, Note_on_c, 0, 63, 33
1, 60640, Tempo, 394737
1, 60719, Note_on_c, 0, 63, 0
1, 60719, Note_on_c, 0, 72, 0
1, 60720, Note_on_c, 0, 68, 45
1, 60720, Note_on_c, 0, 55, 33
1, 60800, Tempo, 396040
1, 60839, Note_on_c, 0, 55, 0
1, 60839, Note_on_c, 0, 68, 0
1, 60840, Note_on_c, 0, 68, 45
1, 60840, Note_on_c, 0, 55, 33
1, 60959, Note_on_c, 0, 55, 0
1, 60959, Note_on_c, 0, 68, 0
1, 60960, Tempo, 397351
1, 60960, Note_on_c, 0, 60, 51
1, 60960, Note_on_c, 0, 51, 39
1, 61079, Note_on_c, 0, 51, 0
1, 61079, Note_on_c, 0, 60, 0
1, 61080, Note_on_c, 0, 56, 45
1, 61080, Note_on_c, 0, 43, 31
1, 61120, Tempo, 398671
1, 61160, Tempo, 413793
1, 61199, Note_on_c, 0, 43, 0
1, 61199, Note_on_c, 0, 56, 0
1, 61200, Tempo, 418118
1, 61200, Note_on_c, 0, 56, 45
1, 61200, Note_on_c, 0, 43, 31
1, 61240, Tempo, 422535
1, 61280, Tempo, 427046
1, 61319, Note_on_c, 0, 43, 0
1, 61319, Note_on_c, 0, 56, 0
1, 61320, Tempo, 431655
1, 61320, Note_on_c, 0, 48, 45
1, 61320, Note_on_c, 0, 39, 31
1, 61360, Tempo, 436364
1, 61400, Tempo, 441176
1, 61439, Note_on_c, 0, 39, 0
1, 61439, Note_on_c, 0, 48, 0
1, 61440, Tempo, 401338
1, 61440, Note_on_c, 0, 48, 72
1, 61440, Text_t, "bdca426d104a26ac9dcb070447587523"
1, 61440, Control_c, 0, 91, 127
1, 61440, Note_on_c, 0, 31, 50
1, 61454, Control_c, 0, 64, 0
1, 61509, Control_c, 0, 64, 127
1, 61559, Note_on_c, 0, 31, 0
1, 61559, Note_on_c, 0, 48, 0
1, 61560, Tempo, 400000
1, 61560, Note_on_c, 0, 53, 45
1, 61560, Note_on_c, 0, 38, 36
1, 61679, Note_on_c, 0, 38, 0
1, 61679, Note_on_c, 0, 53, 0
1, 61680, Tempo, 398671
1, 61680, Note_on_c, 0, 60, 45
1, 61680, Note_on_c, 0, 44, 36
1, 61760, Tempo, 397351
1, 61799, Note_on_c, 0, 44, 0
1, 61799, Note_on_c, 0, 60, 0
1, 61800, Note_on_c, 0, 60, 45
1, 61800, Note_on_c, 0, 44, 36
1, 61880, Tempo, 396040
1, 61919, Note_on_c, 0, 44, 0
1, 61919, Note_on_c, 0, 60, 0
1, 61920, Note_on_c, 0, 65, 52
1, 61920, Note_on_c, 0, 50, 42
1, 62000, Tempo, 394737
1, 62039, Note_on_c, 0, 50, 0
1, 62039, Note_on_c, 0, 65, 0
1, 62040, Note_on_c, 0, 72, 46
1, 62040, Note_on_c, 0, 56, 34
1, 62080, Tempo, 393443
1, 62159, Note_on_c, 0, 56, 0
1, 62159, Note_on_c, 0, 72, 0
1, 62160, Note_on_c, 0, 72, 46
1, 62160, Note_on_c, 0, 56, 34
1, 62200, Tempo, 392157
1, 62279, Note_on_c, 0, 56, 0
1, 62279, Note_on_c, 0, 72, 0
1, 62280, Note_on_c, 0, 77, 45
1, 62280, Note_on_c, 0, 62, 34
1, 62320, Tempo, 390879
1, 62399, Note_on_c, 0, 62, 0
1, 62399, Note_on_c, 0, 77, 0
1, 62400, Tempo, 389610
1, 62400, Note_on_c, 0, 84, 64
1, 62400, Note_on_c, 0, 68, 46
1, 62519, Note_on_c, 0, 68, 0
1, 62519, Note_on_c, 0, 84, 0
1, 62520, Note_on_c, 0, 77, 46
1, 62520, Note_on_c, 0, 62, 34
1, 62560, Tempo, 390879
1, 62639, Note_on_c, 0, 62, 0
1, 62639, Note_on_c, 0, 77, 0
1, 62640, Note_on_c, 0, 72, 46
1, 62640, Note_on_c, 0, 56, 34
1, 62680, Tempo, 392157
1, 62759, Note_on_c, 0, 56, 0
1, 62759, Note_on_c, 0, 72, 0
1, 62760, Note_on_c, 0, 72, 46
1, 62760, Note_on_c, 0, 56, 34
1, 62800, Tempo, 393443
1, 62879, Note_on_c, 0, 56, 0
1, 62879, Note_on_c, 0, 72, 0
1, 62880, Tempo, 393443
1, 62880, Note_on_c, 0, 65, 51
1, 62880, Note_on_c, 0, 50, 39
1, 62920, Tempo, 397351
1, 62960, Tempo, 401338
1, 62999, Note_on_c, 0, 50, 0
1, 62999, Note_on_c, 0, 65, 0
1, 63000, Tempo, 405405
1, 63000, Note_on_c, 0, 60, 45
1, 63000, Note_on_c, 0, 44, 31
1, 63040, Tempo, 409556
1, 63080, Tempo, 413793
1, 63119, Note_on_c, 0, 44, 0
1, 63119, Note_on_c, 0, 60, 0
1, 63120, Tempo, 418118
1, 63120, Note_on_c, 0, 60, 45
1, 63120, Note_on_c, 0, 44, 31
1, 63160, Tempo, 422535
1, 63200, Tempo, 427046
1, 63239, Note_on_c, 0, 44, 0
1, 63239, Note_on_c, 0, 60, 0
1, 63240, Tempo, 431655
1, 63240, Note_on_c, 0, 53, 45
1, 63240, Note_on_c, 0, 38, 31
1, 63280, Tempo, 436364
1, 63320, Tempo, 441176
1, 63359, Note_on_c, 0, 38, 0
1, 63359, Note_on_c, 0, 53, 0
1, 63360, Tempo, 401338
1, 63360, Note_on_c, 0, 47, 69
1, 63360, Text_t, "bdca426d104a26ac9dcb070447587523"
1, 63360, Control_c, 0, 91, 127
1, 63360, Note_on_c, 0, 31, 49
1, 63377, Control_c, 0, 64, 0
1, 63423, Control_c, 0, 64, 127
1, 63479, Note_on_c, 0, 31, 0
1, 63479, Note_on_c, 0, 47, 0
1, 63480, Tempo, 400000
1, 63480, Note_on_c, 0, 53, 44
1, 63480, Note_on_c, 0, 38, 34
1, 63599, Note_on_c, 0, 38, 0
1, 63599, Note_on_c, 0, 53, 0
1, 63600, Tempo, 398671
1, 63600, Note_on_c, 0, 59, 44
1, 63600, Note_on_c, 0, 43, 34
1, 63680, Tempo, 397351
1, 63719, Note_on_c, 0, 43, 0
1, 63719, Note_on_c, 0, 59, 0
1, 63720, Note_on_c, 0, 59, 44
1, 63720, Note_on_c, 0, 43, 34
1, 63800, Tempo, 396040
1, 63839, Note_on_c, 0, 43, 0
1, 63839, Note_on_c, 0, 59, 0
1, 63840, Note_on_c, 0, 65, 51
1, 63840, Note_on_c, 0, 50, 42
1, 63920, Tempo, 394737
1, 63959, Note_on_c, 0, 50, 0
1, 63959, Note_on_c, 0, 65, 0
1, 63960, Note_on_c, 0, 71, 44
1, 63960, Note_on_c, 0, 55, 34
1, 64000, Tempo, 393443
1, 64079, Note_on_c, 0, 55, 0
1, 64079, Note_on_c, 0, 71, 0
1, 64080, Note_on_c, 0, 71, 44
1, 64080, Note_on_c, 0, 55, 34
1, 64120, Tempo, 392157
1, 64199, Note_on_c, 0, 55, 0
1, 64199, Note_on_c, 0, 71, 0
1, 64200, Note_on_c, 0, 77, 44
1, 64200, Note_on_c, 0, 62, 33
1, 64240, Tempo, 390879
1, 64319, Note_on_c, 0, 62, 0
1, 64319, Note_on_c, 0, 77, 0
1, 64320, Tempo, 389610
1, 64320, Note_on_c, 0, 83, 62
1, 64320, Note_on_c, 0, 67, 45
1, 64439, Note_on_c, 0, 67, 0
1, 64439, Note_on_c, 0, 83, 0
1, 64440, Note_on_c, 0, 77, 45
1, 64440, Note_on_c, 0, 62, 33
1, 64480, Tempo, 390879
1, 64559, Note_on_c, 0, 62, 0
1, 64559, Note_on_c, 0, 77, 0
1, 64560, Note_on_c, 0, 71, 45
1, 64560, Note_on_c, 0, 55, 33
1, 64600, Tempo, 392157
1, 64679, Note_on_c, 0, 55, 0
1, 64679, Note_on_c, 0, 71, 0
1, 64680, Note_on_c, 0, 71, 45
1, 64680, Note_on_c, 0, 55, 33
1, 64720, Tempo, 393443
1, 64799, Note_on_c, 0, 55, 0
1, 64799, Note_on_c, 0, 71, 0
1, 64800, Tempo, 393443
1, 64800, Note_on_c, 0, 65, 50
1, 64800, Note_on_c, 0, 50, 39
1, 64840, Tempo, 397351
1, 64880, Tempo, 401338
1, 64919, Note_on_c, 0, 50, 0
1, 64919, Note_on_c, 0, 65, 0
1, 64920, Tempo, 405405
1, 64920, Note_on_c, 0, 59, 44
1, 64920, Note_on_c, 0, 43, 30
1, 64960, Tempo, 409556
1, 65000, Tempo, 413793
1, 65039, Note_on_c, 0, 43, 0
1, 65039, Note_on_c, 0, 59, 0
1, 65040, Tempo, 418118
1, 65040, Note_on_c, 0, 59, 44
1, 65040, Note_on_c, 0, 43, 30
1, 65080, Tempo, 422535
1, 65120, Tempo, 427046
1, 65159, Note_on_c, 0, 43, 0
1, 65159, Note_on_c, 0, 59, 0
1, 65160, Tempo, 431655
1, 65160, Note_on_c, 0, 53, 44
1, 65160, Note_on_c, 0, 38, 30
1, 65200, Tempo, 436364
1, 65240, Tempo, 441176
1, 65279, Note_on_c, 0, 38, 0
1, 65279, Note_on_c, 0, 53, 0
1, 65280, Tempo, 401338
1, 65280, Note_on_c, 0, 47, 68
1, 65280, Text_t, "bdca426d104a26ac9dcb070447587523"
1, 65280, Control_c, 0, 91, 127
1, 65280, Note_on_c, 0, 31, 48
1, 65297, Control_c, 0, 64, 0
1, 65331, Control_c, 0, 64, 127
1, 65399, Note_on_c, 0, 31, 0
1, 65399, Note_on_c, 0, 47, 0
1, 65400, Tempo, 400000
1, 65400, Note_on_c, 0, 53, 42
1, 65400, Note_on_c, 0, 38, 34
1, 65519, Note_on_c, 0, 38, 0
1, 65519, Note_on_c, 0, 53, 0
1, 65520, Tempo, 398671
1, 65520, Note_on_c, 0, 59, 42
1, 65520, Note_on_c, 0, 43, 34
1, 65600, Tempo, 397351
1, 65639, Note_on_c, 0, 43, 0
1, 65639, Note_on_c, 0, 59, 0
1, 65640, Note_on_c, 0, 59, 42
1, 65640, Note_on_c, 0, 43, 34
1, 65720, Tempo, 396040
1, 65759, Note_on_c, 0, 43, 0
1, 65759, Note_on_c, 0, 59, 0
1, 65760, Note_on_c, 0, 65, 50
1, 65760, Note_on_c, 0, 50, 41
1, 65840, Tempo, 394737
1, 65879, Note_on_c, 0, 50, 0
1, 65879, Note_on_c, 0, 65, 0
1, 65880, Note_on_c, 0, 71, 42
1, 65880, Note_on_c, 0, 55, 33
1, 65920, Tempo, 393443
1, 65999, Note_on_c, 0, 55, 0
1, 65999, Note_on_c, 0, 71, 0
1, 66000, Note_on_c, 0, 71, 42
1, 66000, Note_on_c, 0, 55, 33
1, 66040, Tempo, 392157
1, 66119, Note_on_c, 0, 55, 0
1, 66119, Note_on_c, 0, 71, 0
1, 66120, Note_on_c, 0, 77, 45
1, 66120, Note_on_c, 0, 62, 33
1, 66160, Tempo, 390879
1, 66239, Note_on_c, 0, 62, 0
1, 66239, Note_on_c, 0, 77, 0
1, 66240, Tempo, 389610
1, 66240, Note_on_c, 0, 83, 62
1, 66240, Note_on_c, 0, 67, 46
1, 66359, Note_on_c, 0, 67, 0
1, 66359, Note_on_c, 0, 83, 0
1, 66360, Note_on_c, 0, 77, 46
1, 66360, Note_on_c, 0, 62, 33
1, 66400, Tempo, 390879
1, 66479, Note_on_c, 0, 62, 0
1, 66479, Note_on_c, 0, 77, 0
1, 66480, Note_on_c, 0, 71, 46
1, 66480, Note_on_c, 0, 55, 33
1, 66520, Tempo, 392157
1, 66599, Note_on_c, 0, 55, 0
1, 66599, Note_on_c, 0, 71, 0
1, 66600, Note_on_c, 0, 71, 46
1, 66600, Note_on_c, 0, 55, 33
1, 66640, Tempo, 393443
1, 66719, Note_on_c, 0, 55, 0
1, 66719, Note_on_c, 0, 71, 0
1, 66720, Tempo, 393443
1, 66720, Note_on_c, 0, 65, 51
1, 66720, Note_on_c, 0, 50, 39
1, 66760, Tempo, 397351
1, 66800, Tempo, 401338
1, 66839, Note_on_c, 0, 50, 0
1, 66839, Note_on_c, 0, 65, 0
1, 66840, Tempo, 405405
1, 66840, Note_on_c, 0, 59, 45
1, 66840, Note_on_c, 0, 43, 31
1, 66880, Tempo, 409556
1, 66920, Tempo, 413793
1, 66959, Note_on_c, 0, 43, 0
1, 66959, Note_on_c, 0, 59, 0
1, 66960, Tempo, 418118
1, 66960, Note_on_c, 0, 59, 45
1, 66960, Note_on_c, 0, 43, 31
1, 67000, Tempo, 422535
1, 67040, Tempo, 427046
1, 67079, Note_on_c, 0, 43, 0
1, 67079, Note_on_c, 0, 59, 0
1, 67080, Tempo, 431655
1, 67080, Note_on_c, 0, 53, 45
1, 67080, Note_on_c, 0, 38, 31
1, 67120, Tempo, 436364
1, 67160, Tempo, 441176
1, 67199, Note_on_c, 0, 38, 0
1, 67199, Note_on_c, 0, 53, 0
1, 67200, Tempo, 401338
1, 67200, Note_on_c, 0, 48, 73
1, 67200, Text_t, "bdca426d104a26ac9dcb070447587523"
1, 67200, Control_c, 0, 91, 127
1, 67200, Note_on_c, 0, 32, 51
1, 67226, Control_c, 0, 64, 0
1, 67240, Tempo, 398671
1, 67264, Control_c, 0, 64, 127
1, 67319, Note_on_c, 0, 32, 0
1, 67319, Note_on_c, 0, 48, 0
1, 67320, Tempo, 397351
1, 67320, Note_on_c, 0, 53, 47
1, 67320, Note_on_c, 0, 41, 36
1, 67400, Tempo, 396040
1, 67439, Note_on_c, 0, 41, 0
1, 67439, Note_on_c, 0, 53, 0
1, 67440, Note_on_c, 0, 60, 47
1, 67440, Note_on_c, 0, 44, 36
1, 67480, Tempo, 394737
1, 67559, Note_on_c, 0, 44, 0
1, 67559, Note_on_c, 0, 60, 0
1, 67560, Tempo, 393443
1, 67560, Note_on_c, 0, 60, 47
1, 67560, Note_on_c, 0, 44, 36
1, 67640, Tempo, 392157
1, 67679, Note_on_c, 0, 44, 0
1, 67679, Note_on_c, 0, 60, 0
1, 67680, Note_on_c, 0, 65, 56
1, 67680, Note_on_c, 0, 53, 46
1, 67720, Tempo, 390879
1, 67799, Note_on_c, 0, 53, 0
1, 67799, Note_on_c, 0, 65, 0
1, 67800, Tempo, 389610
1, 67800, Note_on_c, 0, 72, 48
1, 67800, Note_on_c, 0, 56, 36
1, 67880, Tempo, 388350
1, 67919, Note_on_c, 0, 56, 0
1, 67919, Note_on_c, 0, 72, 0
1, 67920, Note_on_c, 0, 72, 48
1, 67920, Note_on_c, 0, 56, 36
1, 67960, Tempo, 387097
1, 68039, Note_on_c, 0, 56, 0
1, 68039, Note_on_c, 0, 72, 0
1, 68040, Tempo, 385852
1, 68040, Note_on_c, 0, 77, 48
1, 68040, Note_on_c, 0, 65, 36
1, 68080, Tempo, 384615
1, 68159, Note_on_c, 0, 65, 0
1, 68159, Note_on_c, 0, 77, 0
1, 68160, Tempo, 385852
1, 68160, Note_on_c, 0, 84, 69
1, 68160, Note_on_c, 0, 68, 49
1, 68240, Tempo, 387097
1, 68279, Note_on_c, 0, 68, 0
1, 68279, Note_on_c, 0, 84, 0
1, 68280, Note_on_c, 0, 77, 49
1, 68280, Note_on_c, 0, 65, 36
1, 68320, Tempo, 388350
1, 68399, Note_on_c, 0, 65, 0
1, 68399, Note_on_c, 0, 77, 0
1, 68400, Tempo, 389610
1, 68400, Note_on_c, 0, 72, 50
1, 68400, Note_on_c, 0, 56, 36
1, 68480, Tempo, 390879
1, 68519, Note_on_c, 0, 56, 0
1, 68519, Note_on_c, 0, 72, 0
1, 68520, Note_on_c, 0, 72, 50
1, 68520, Note_on_c, 0, 56, 36
1, 68560, Tempo, 392157
1, 68639, Note_on_c, 0, 56, 0
1, 68639, Note_on_c, 0, 72, 0
1, 68640, Tempo, 393443
1, 68640, Note_on_c, 0, 65, 57
1, 68640, Note_on_c, 0, 53, 45
1, 68680, Tempo, 397351
1, 68720, Tempo, 401338
1, 68759, Note_on_c, 0, 53, 0
1, 68759, Note_on_c, 0, 65, 0
1, 68760, Tempo, 405405
1, 68760, Note_on_c, 0, 60, 49
1, 68760, Note_on_c, 0, 44, 34
1, 68800, Tempo, 409556
1, 68840, Tempo, 413793
1, 68879, Note_on_c, 0, 44, 0
1, 68879, Note_on_c, 0, 60, 0
1, 68880, Tempo, 418118
1, 68880, Note_on_c, 0, 60, 49
1, 68880, Note_on_c, 0, 44, 34
1, 68920, Tempo, 422535
1, 68960, Tempo, 427046
1, 68999, Note_on_c, 0, 44, 0
1, 68999, Note_on_c, 0, 60, 0
1, 69000, Tempo, 431655
1, 69000, Note_on_c, 0, 53, 49
1, 69000, Note_on_c, 0, 41, 34
1, 69040, Tempo, 436364
1, 69080, Tempo, 397351
1, 69119, Note_on_c, 0, 41, 0
1, 69119, Note_on_c, 0, 53, 0
1, 69120, Note_on_c, 0, 51, 79
1, 69120, Text_t, "bdca426d104a26ac9dcb070447587523"
1, 69120, Control_c, 0, 91, 127
1, 69120, Note_on_c, 0, 33, 56
1, 69136, Control_c, 0, 64, 0
1, 69200, Tempo, 396040
1, 69200, Control_c, 0, 64, 127
1, 69239, Note_on_c, 0, 33, 0
1, 69239, Note_on_c, 0, 51, 0
1, 69240, Note_on_c, 0, 54, 49
1, 69240, Note_on_c, 0, 42, 39
1, 69280, Tempo, 394737
1, 69359, Note_on_c, 0, 42, 0
1, 69359, Note_on_c, 0, 54, 0
1, 69360, Tempo, 393443
1, 69360, Note_on_c, 0, 63, 49
1, 69360, Note_on_c, 0, 45, 39
1, 69479, Note_on_c, 0, 45, 0
1, 69479, Note_on_c, 0, 63, 0
1, 69480, Tempo, 392157
1, 69480, Note_on_c, 0, 63, 49
1, 69480, Note_on_c, 0, 45, 39
1, 69560, Tempo, 390879
1, 69599, Note_on_c, 0, 45, 0
1, 69599, Note_on_c, 0, 63, 0
1, 69600, Note_on_c, 0, 66, 59
1, 69600, Note_on_c, 0, 54, 48
1, 69640, Tempo, 389610
1, 69719, Note_on_c, 0, 54, 0
1, 69719, Note_on_c, 0, 66, 0
1, 69720, Tempo, 388350
1, 69720, Note_on_c, 0, 75, 50
1, 69720, Note_on_c, 0, 57, 38
1, 69839, Note_on_c, 0, 57, 0
1, 69839, Note_on_c, 0, 75, 0
1, 69840, Tempo, 387097
1, 69840, Note_on_c, 0, 75, 50
1, 69840, Note_on_c, 0, 57, 38
1, 69920, Tempo, 385852
1, 69959, Note_on_c, 0, 57, 0
1, 69959, Note_on_c, 0, 75, 0
1, 69960, Note_on_c, 0, 78, 51
1, 69960, Note_on_c, 0, 66, 39
1, 70000, Tempo, 384615
1, 70079, Note_on_c, 0, 66, 0
1, 70079, Note_on_c, 0, 78, 0
1, 70080, Tempo, 383387
1, 70080, Note_on_c, 0, 87, 69
1, 70080, Note_on_c, 0, 69, 52
1, 70160, Tempo, 384615
1, 70199, Note_on_c, 0, 69, 0
1, 70199, Note_on_c, 0, 87, 0
1, 70200, Tempo, 385852
1, 70200, Note_on_c, 0, 78, 52
1, 70200, Note_on_c, 0, 66, 39
1, 70240, Tempo, 387097
1, 70280, Tempo, 388350
1, 70319, Note_on_c, 0, 66, 0
1, 70319, Note_on_c, 0, 78, 0
1, 70320, Tempo, 389610
1, 70320, Note_on_c, 0, 75, 52
1, 70320, Note_on_c, 0, 57, 39
1, 70360, Tempo, 390879
1, 70400, Tempo, 392157
1, 70439, Note_on_c, 0, 57, 0
1, 70439, Note_on_c, 0, 75, 0
1, 70440, Tempo, 393443
1, 70440, Note_on_c, 0, 75, 52
1, 70440, Note_on_c, 0, 57, 39
1, 70480, Tempo, 394737
1, 70559, Note_on_c, 0, 57, 0
1, 70559, Note_on_c, 0, 75, 0
1, 70560, Tempo, 393443
1, 70560, Note_on_c, 0, 66, 60
1, 70560, Note_on_c, 0, 54, 47
1, 70600, Tempo, 397351
1, 70640, Tempo, 401338
1, 70679, Note_on_c, 0, 54, 0
1, 70679, Note_on_c, 0, 66, 0
1, 70680, Tempo, 405405
1, 70680, Note_on_c, 0, 63, 52
1, 70680, Note_on_c, 0, 45, 37
1, 70720, Tempo, 409556
1, 70760, Tempo, 413793
1, 70799, Note_on_c, 0, 45, 0
1, 70799, Note_on_c, 0, 63, 0
1, 70800, Tempo, 418118
1, 70800, Note_on_c, 0, 63, 52
1, 70800, Note_on_c, 0, 45, 37
1, 70840, Tempo, 422535
1, 70880, Tempo, 427046
1, 70919, Note_on_c, 0, 45, 0
1, 70919, Note_on_c, 0, 63, 0
1, 70920, Tempo, 431655
1, 70920, Note_on_c, 0, 54, 52
1, 70920, Note_on_c, 0, 42, 37
1, 70960, Tempo, 436364
1, 71000, Tempo, 441176
1, 71039, Note_on_c, 0, 42, 0
1, 71039, Note_on_c, 0, 54, 0
1, 71040, Tempo, 401338
1, 71040, Note_on_c, 0, 50, 84
1, 71040, Text_t, "bdca426d104a26ac9dcb070447587523"
1, 71040, Control_c, 0, 91, 127
1, 71040, Note_on_c, 0, 34, 59
1, 71054, Control_c, 0, 64, 0
1, 71104, Control_c, 0, 64, 127
1, 71159, Note_on_c, 0, 34, 0
1, 71159, Note_on_c, 0, 50, 0
1, 71160, Tempo, 400000
1, 71160, Note_on_c, 0, 55, 51
1, 71160, Note_on_c, 0, 43, 41
1, 71279, Note_on_c, 0, 43, 0
1, 71279, Note_on_c, 0, 55, 0
1, 71280, Tempo, 398671
1, 71280, Note_on_c, 0, 62, 51
1, 71280, Note_on_c, 0, 46, 41
1, 71360, Tempo, 397351
1, 71399, Note_on_c, 0, 46, 0
1, 71399, Note_on_c, 0, 62, 0
1, 71400, Note_on_c, 0, 62, 51
1, 71400, Note_on_c, 0, 46, 41
1, 71480, Tempo, 396040
1, 71519, Note_on_c, 0, 46, 0
1, 71519, Note_on_c, 0, 62, 0
1, 71520, Note_on_c, 0, 67, 63
1, 71520, Note_on_c, 0, 55, 51
1, 71600, Tempo, 394737
1, 71639, Note_on_c, 0, 55, 0
1, 71639, Note_on_c, 0, 67, 0
1, 71640, Note_on_c, 0, 74, 53
1, 71640, Note_on_c, 0, 58, 42
1, 71680, Tempo, 393443
1, 71759, Note_on_c, 0, 58, 0
1, 71759, Note_on_c, 0, 74, 0
1, 71760, Note_on_c, 0, 74, 53
1, 71760, Note_on_c, 0, 58, 42
1, 71800, Tempo, 392157
1, 71879, Note_on_c, 0, 58, 0
1, 71879, Note_on_c, 0, 74, 0
1, 71880, Note_on_c, 0, 79, 53
1, 71880, Note_on_c, 0, 67, 42
1, 71920, Tempo, 390879
1, 71999, Note_on_c, 0, 67, 0
1, 71999, Note_on_c, 0, 79, 0
1, 72000, Tempo, 389610
1, 72000, Note_on_c, 0, 86, 77
1, 72000, Note_on_c, 0, 70, 56
1, 72119, Note_on_c, 0, 70, 0
1, 72119, Note_on_c, 0, 86, 0
1, 72120, Note_on_c, 0, 79, 56
1, 72120, Note_on_c, 0, 67, 42
1, 72160, Tempo, 390879
1, 72239, Note_on_c, 0, 67, 0
1, 72239, Note_on_c, 0, 79, 0
1, 72240, Note_on_c, 0, 74, 57
1, 72240, Note_on_c, 0, 58, 42
1, 72280, Tempo, 392157
1, 72359, Note_on_c, 0, 58, 0
1, 72359, Note_on_c, 0, 74, 0
1, 72360, Note_on_c, 0, 74, 57
1, 72360, Note_on_c, 0, 58, 42
1, 72400, Tempo, 393443
1, 72479, Note_on_c, 0, 58, 0
1, 72479, Note_on_c, 0, 74, 0
1, 72480, Tempo, 393443
1, 72480, Note_on_c, 0, 67, 66
1, 72480, Note_on_c, 0, 55, 50
1, 72520, Tempo, 397351
1, 72560, Tempo, 401338
1, 72599, Note_on_c, 0, 55, 0
1, 72599, Note_on_c, 0, 67, 0
1, 72600, Tempo, 405405
1, 72600, Note_on_c, 0, 62, 56
1, 72600, Note_on_c, 0, 46, 38
1, 72640, Tempo, 409556
1, 72680, Tempo, 413793
1, 72719, Note_on_c, 0, 46, 0
1, 72719, Note_on_c, 0, 62, 0
1, 72720, Tempo, 418118
1, 72720, Note_on_c, 0, 62, 56
1, 72720, Note_on_c, 0, 46, 38
1, 72760, Tempo, 422535
1, 72800, Tempo, 427046
1, 72839, Note_on_c, 0, 46, 0
1, 72839, Note_on_c, 0, 62, 0
1, 72840, Tempo, 431655
1, 72840, Note_on_c, 0, 55, 56
1, 72840, Note_on_c, 0, 43, 38
1, 72880, Tempo, 436364
1, 72920, Tempo, 441176
1, 72959, Note_on_c, 0, 43, 0
1, 72959, Note_on_c, 0, 55, 0
1, 72960, Tempo, 401338
1, 72960, Note_on_c, 0, 50, 91
1, 72960, Text_t, "bdca426d104a26ac9dcb070447587523"
1, 72960, Control_c, 0, 91, 127
1, 72960, Note_on_c, 0, 35, 62
1, 72971, Control_c, 0, 64, 0
1, 73023, Control_c, 0, 64, 127
1, 73079, Note_on_c, 0, 35, 0
1, 73079, Note_on_c, 0, 50, 0
1, 73080, Tempo, 400000
1, 73080, Note_on_c, 0, 56, 57
1, 73080, Note_on_c, 0, 41, 45
1, 73199, Note_on_c, 0, 41, 0
1, 73199, Note_on_c, 0, 56, 0
1, 73200, Tempo, 398671
1, 73200, Note_on_c, 0, 62, 57
1, 73200, Note_on_c, 0, 47, 45
1, 73280, Tempo, 397351
1, 73319, Note_on_c, 0, 47, 0
1, 73319, Note_on_c, 0, 62, 0
1, 73320, Note_on_c, 0, 62, 57
1, 73320, Note_on_c, 0, 47, 45
1, 73400, Tempo, 396040
1, 73439, Note_on_c, 0, 47, 0
1, 73439, Note_on_c, 0, 62, 0
1, 73440, Note_on_c, 0, 68, 68
1, 73440, Note_on_c, 0, 53, 55
1, 73520, Tempo, 394737
1, 73559, Note_on_c, 0, 53, 0
1, 73559, Note_on_c, 0, 68, 0
1, 73560, Note_on_c, 0, 74, 58
1, 73560, Note_on_c, 0, 59, 44
1, 73600, Tempo, 393443
1, 73679, Note_on_c, 0, 59, 0
1, 73679, Note_on_c, 0, 74, 0
1, 73680, Note_on_c, 0, 74, 58
1, 73680, Note_on_c, 0, 59, 44
1, 73720, Tempo, 392157
1, 73799, Note_on_c, 0, 59, 0
1, 73799, Note_on_c, 0, 74, 0
1, 73800, Note_on_c, 0, 80, 58
1, 73800, Note_on_c, 0, 65, 45
1, 73840, Tempo, 390879
1, 73919, Note_on_c, 0, 65, 0
1, 73919, Note_on_c, 0, 80, 0
1, 73920, Tempo, 389610
1, 73920, Note_on_c, 0, 86, 77
1, 73920, Note_on_c, 0, 71, 59
1, 74039, Note_on_c, 0, 71, 0
1, 74039, Note_on_c, 0, 86, 0
1, 74040, Note_on_c, 0, 80, 59
1, 74040, Note_on_c, 0, 65, 45
1, 74080, Tempo, 390879
1, 74159, Note_on_c, 0, 65, 0
1, 74159, Note_on_c, 0, 80, 0
1, 74160, Note_on_c, 0, 74, 59
1, 74160, Note_on_c, 0, 59, 45
1, 74200, Tempo, 392157
1, 74279, Note_on_c, 0, 59, 0
1, 74279, Note_on_c, 0, 74, 0
1, 74280, Note_on_c, 0, 74, 59
1, 74280, Note_on_c, 0, 59, 45
1, 74320, Tempo, 393443
1, 74399, Note_on_c, 0, 59, 0
1, 74399, Note_on_c, 0, 74, 0
1, 74400, Tempo, 393443
1, 74400, Note_on_c, 0, 68, 69
1, 74400, Note_on_c, 0, 53, 52
1, 74440, Tempo, 397351
1, 74480, Tempo, 401338
1, 74519, Note_on_c, 0, 53, 0
1, 74519, Note_on_c, 0, 68, 0
1, 74520, Tempo, 405405
1, 74520, Note_on_c, 0, 62, 60
1, 74520, Note_on_c, 0, 47, 40
1, 74560, Tempo, 409556
1, 74600, Tempo, 413793
1, 74639, Note_on_c, 0, 47, 0
1, 74639, Note_on_c, 0, 62, 0
1, 74640, Tempo, 418118
1, 74640, Note_on_c, 0, 62, 60
1, 74640, Note_on_c, 0, 47, 40
1, 74680, Tempo, 422535
1, 74720, Tempo, 427046
1, 74759, Note_on_c, 0, 47, 0
1, 74759, Note_on_c, 0, 62, 0
1, 74760, Tempo, 431655
1, 74760, Note_on_c, 0, 56, 60
1, 74760, Note_on_c, 0, 41, 40
1, 74800, Tempo, 436364
1, 74840, Tempo, 441176
1, 74879, Note_on_c, 0, 41, 0
1, 74879, Note_on_c, 0, 56, 0
1, 74880, Tempo, 401338
1, 74880, Note_on_c, 0, 51, 94
1, 74880, Text_t, "bdca426d104a26ac9dcb070447587523"
1, 74880, Control_c, 0, 91, 127
1, 74880, Note_on_c, 0, 36, 67
1, 74894, Control_c, 0, 64, 0
1, 74936, Control_c, 0, 64, 127
1, 74999, Note_on_c, 0, 36, 0
1, 74999, Note_on_c, 0, 51, 0
1, 75000, Tempo, 400000
1, 75000, Note_on_c, 0, 56, 59
1, 75000, Note_on_c, 0, 41, 46
1, 75119, Note_on_c, 0, 41, 0
1, 75119, Note_on_c, 0, 56, 0
1, 75120, Tempo, 398671
1, 75120, Note_on_c, 0, 63, 59
1, 75120, Note_on_c, 0, 48, 46
1, 75200, Tempo, 397351
1, 75239, Note_on_c, 0, 48, 0
1, 75239, Note_on_c, 0, 63, 0
1, 75240, Note_on_c, 0, 63, 59
1, 75240, Note_on_c, 0, 48, 46
1, 75320, Tempo, 396040
1, 75359, Note_on_c, 0, 48, 0
1, 75359, Note_on_c, 0, 63, 0
1, 75360, Note_on_c, 0, 68, 71
1, 75360, Note_on_c, 0, 53, 57
1, 75440, Tempo, 394737
1, 75479, Note_on_c, 0, 53, 0
1, 75479, Note_on_c, 0, 68, 0
1, 75480, Note_on_c, 0, 75, 61
1, 75480, Note_on_c, 0, 60, 48
1, 75520, Tempo, 393443
1, 75599, Note_on_c, 0, 60, 0
1, 75599, Note_on_c, 0, 75, 0
1, 75600, Note_on_c, 0, 75, 61
1, 75600, Note_on_c, 0, 60, 48
1, 75640, Tempo, 392157
1, 75719, Note_on_c, 0, 60, 0
1, 75719, Note_on_c, 0, 75, 0
1, 75720, Note_on_c, 0, 80, 61
1, 75720, Note_on_c, 0, 65, 48
1, 75760, Tempo, 390879
1, 75839, Note_on_c, 0, 65, 0
1, 75839, Note_on_c, 0, 80, 0
1, 75840, Tempo, 389610
1, 75840, Note_on_c, 0, 87, 84
1, 75840, Note_on_c, 0, 72, 62
1, 75959, Note_on_c, 0, 72, 0
1, 75959, Note_on_c, 0, 87, 0
1, 75960, Note_on_c, 0, 80, 62
1, 75960, Note_on_c, 0, 65, 48
1, 76000, Tempo, 390879
1, 76079, Note_on_c, 0, 65, 0
1, 76079, Note_on_c, 0, 80, 0
1, 76080, Note_on_c, 0, 75, 64
1, 76080, Note_on_c, 0, 60, 48
1, 76120, Tempo, 392157
1, 76199, Note_on_c, 0, 60, 0
1, 76199, Note_on_c, 0, 75, 0
1, 76200, Note_on_c, 0, 75, 64
1, 76200, Note_on_c, 0, 60, 48
1, 76240, Tempo, 393443
1, 76319, Note_on_c, 0, 60, 0
1, 76319, Note_on_c, 0, 75, 0
1, 76320, Tempo, 393443
1, 76320, Note_on_c, 0, 68, 73
1, 76320, Note_on_c, 0, 53, 56
1, 76360, Tempo, 396040
1, 76400, Tempo, 401338
1, 76439, Note_on_c, 0, 53, 0
1, 76439, Note_on_c, 0, 68, 0
1, 76440, Tempo, 406780
1, 76440, Note_on_c, 0, 63, 63
1, 76440, Note_on_c, 0, 48, 42
1, 76480, Tempo, 413793
1, 76520, Tempo, 419580
1, 76559, Note_on_c, 0, 48, 0
1, 76559, Note_on_c, 0, 63, 0
1, 76560, Tempo, 425532
1, 76560, Note_on_c, 0, 63, 63
1, 76560, Note_on_c, 0, 48, 42
1, 76600, Tempo, 433213
1, 76640, Tempo, 519481
1, 76679, Note_on_c, 0, 48, 0
1, 76679, Note_on_c, 0, 63, 0
1, 76680, Tempo, 542986
1, 76680, Note_on_c, 0, 56, 63
1, 76680, Note_on_c, 0, 41, 42
1, 76720, Tempo, 568720
1, 76760, Tempo, 597015
1, 76799, Note_on_c, 0, 41, 0
1, 76799, Note_on_c, 0, 56, 0
1, 76800, Tempo, 401338
1, 76800, Note_on_c, 0, 55, 97
1, 76800, Text_t, "bdca426d104a26ac9dcb070447587523"
1, 76800, Control_c, 0, 91, 127
1, 76800, Note_on_c, 0, 39, 71
1, 76821, Control_c, 0, 64, 0
1, 76864, Control_c, 0, 64, 127
1, 76919, Note_on_c, 0, 39, 0
1, 76919, Note_on_c, 0, 55, 0
1, 76920, Tempo, 400000
1, 76920, Note_on_c, 0, 60, 63
1, 76920, Note_on_c, 0, 44, 51
1, 77039, Note_on_c, 0, 44, 0
1, 77039, Note_on_c, 0, 60, 0
1, 77040, Tempo, 398671
1, 77040, Note_on_c, 0, 67, 63
1, 77040, Note_on_c, 0, 51, 51
1, 77120, Tempo, 397351
1, 77159, Note_on_c, 0, 51, 0
1, 77159, Note_on_c, 0, 67, 0
1, 77160, Note_on_c, 0, 67, 63
1, 77160, Note_on_c, 0, 51, 51
1, 77240, Tempo, 396040
1, 77279, Note_on_c, 0, 51, 0
1, 77279, Note_on_c, 0, 67, 0
1, 77280, Note_on_c, 0, 72, 74
1, 77280, Note_on_c, 0, 56, 61
1, 77360, Tempo, 394737
1, 77399, Note_on_c, 0, 56, 0
1, 77399, Note_on_c, 0, 72, 0
1, 77400, Note_on_c, 0, 79, 64
1, 77400, Note_on_c, 0, 63, 49
1, 77440, Tempo, 393443
1, 77519, Note_on_c, 0, 63, 0
1, 77519, Note_on_c, 0, 79, 0
1, 77520, Note_on_c, 0, 79, 64
1, 77520, Note_on_c, 0, 63, 49
1, 77560, Tempo, 392157
1, 77639, Note_on_c, 0, 63, 0
1, 77639, Note_on_c, 0, 79, 0
1, 77640, Note_on_c, 0, 84, 66
1, 77640, Note_on_c, 0, 68, 50
1, 77680, Tempo, 390879
1, 77759, Note_on_c, 0, 68, 0
1, 77759, Note_on_c, 0, 84, 0
1, 77760, Tempo, 389610
1, 77760, Note_on_c, 0, 91, 88
1, 77760, Note_on_c, 0, 75, 67
1, 77879, Note_on_c, 0, 75, 0
1, 77879, Note_on_c, 0, 91, 0
1, 77880, Note_on_c, 0, 84, 67
1, 77880, Note_on_c, 0, 68, 50
1, 77920, Tempo, 390879
1, 77999, Note_on_c, 0, 68, 0
1, 77999, Note_on_c, 0, 84, 0
1, 78000, Note_on_c, 0, 79, 67
1, 78000, Note_on_c, 0, 63, 50
1, 78040, Tempo, 392157
1, 78119, Note_on_c, 0, 63, 0
1, 78119, Note_on_c, 0, 79, 0
1, 78120, Note_on_c, 0, 79, 67
1, 78120, Note_on_c, 0, 63, 50
1, 78160, Tempo, 393443
1, 78239, Note_on_c, 0, 63, 0
1, 78239, Note_on_c, 0, 79, 0
1, 78240, Tempo, 393443
1, 78240, Note_on_c, 0, 72, 77
1, 78240, Note_on_c, 0, 56, 59
1, 78280, Tempo, 397351
1, 78320, Tempo, 401338
1, 78359, Note_on_c, 0, 56, 0
1, 78359, Note_on_c, 0, 72, 0
1, 78360, Tempo, 405405
1, 78360, Note_on_c, 0, 67, 67
1, 78360, Note_on_c, 0, 51, 47
1, 78400, Tempo, 409556
1, 78440, Tempo, 413793
1, 78479, Note_on_c, 0, 51, 0
1, 78479, Note_on_c, 0, 67, 0
1, 78480, Tempo, 418118
1, 78480, Note_on_c, 0, 67, 67
1, 78480, Note_on_c, 0, 51, 47
1, 78520, Tempo, 422535
1, 78560, Tempo, 427046
1, 78599, Note_on_c, 0, 51, 0
1, 78599, Note_on_c, 0, 67, 0
1, 78600, Tempo, 431655
1, 78600, Note_on_c, 0, 60, 67
1, 78600, Note_on_c, 0, 44, 47
1, 78640, Tempo, 436364
1, 78680, Tempo, 398671
1, 78719, Note_on_c, 0, 44, 0
1, 78719, Note_on_c, 0, 60, 0
1, 78720, Note_on_c, 0, 53, 101
1, 78720, Text_t, "bdca426d104a26ac9dcb070447587523"
1, 78720, Control_c, 0, 91, 127
1, 78720, Note_on_c, 0, 38, 71
1, 78726, Control_c, 0, 64, 0
1, 78760, Tempo, 397351
1, 78789, Control_c, 0, 64, 127
1, 78839, Note_on_c, 0, 38, 0
1, 78839, Note_on_c, 0, 53, 0
1, 78840, Tempo, 396040
1, 78840, Note_on_c, 0, 60, 66
1, 78840, Note_on_c, 0, 44, 51
1, 78920, Tempo, 394737
1, 78959, Note_on_c, 0, 44, 0
1, 78959, Note_on_c, 0, 60, 0
1, 78960, Note_on_c, 0, 65, 66
1, 78960, Note_on_c, 0, 50, 51
1, 79000, Tempo, 393443
1, 79079, Note_on_c, 0, 50, 0
1, 79079, Note_on_c, 0, 65, 0
1, 79080, Tempo, 392157
1, 79080, Note_on_c, 0, 65, 66
1, 79080, Note_on_c, 0, 50, 51
1, 79160, Tempo, 390879
1, 79199, Note_on_c, 0, 50, 0
1, 79199, Note_on_c, 0, 65, 0
1, 79200, Note_on_c, 0, 72, 80
1, 79200, Note_on_c, 0, 56, 63
1, 79240, Tempo, 389610
1, 79319, Note_on_c, 0, 56, 0
1, 79319, Note_on_c, 0, 72, 0
1, 79320, Tempo, 388350
1, 79320, Note_on_c, 0, 77, 68
1, 79320, Note_on_c, 0, 62, 52
1, 79400, Tempo, 387097
1, 79439, Note_on_c, 0, 62, 0
1, 79439, Note_on_c, 0, 77, 0
1, 79440, Note_on_c, 0, 77, 68
1, 79440, Note_on_c, 0, 62, 52
1, 79480, Tempo, 385852
1, 79559, Note_on_c, 0, 62, 0
1, 79559, Note_on_c, 0, 77, 0
1, 79560, Tempo, 384615
1, 79560, Note_on_c, 0, 84, 68
1, 79560, Note_on_c, 0, 68, 52
1, 79640, Tempo, 383387
1, 79679, Note_on_c, 0, 68, 0
1, 79679, Note_on_c, 0, 84, 0
1, 79680, Note_on_c, 0, 89, 88
1, 79680, Note_on_c, 0, 74, 71
1, 79720, Tempo, 384615
1, 79760, Tempo, 385852
1, 79799, Note_on_c, 0, 74, 0
1, 79799, Note_on_c, 0, 89, 0
1, 79800, Tempo, 387097
1, 79800, Note_on_c, 0, 83, 71
1, 79800, Note_on_c, 0, 68, 52
1, 79840, Tempo, 388350
1, 79919, Note_on_c, 0, 68, 0
1, 79919, Note_on_c, 0, 83, 0
1, 79920, Tempo, 389610
1, 79920, Note_on_c, 0, 77, 72
1, 79920, Note_on_c, 0, 62, 52
1, 79960, Tempo, 390879
1, 80000, Tempo, 392157
1, 80039, Note_on_c, 0, 62, 0
1, 80039, Note_on_c, 0, 77, 0
1, 80040, Tempo, 393443
1, 80040, Note_on_c, 0, 77, 72
1, 80040, Note_on_c, 0, 62, 52
1, 80080, Tempo, 393443
1, 80159, Note_on_c, 0, 62, 0
1, 80159, Note_on_c, 0, 77, 0
1, 80160, Tempo, 394737
1, 80160, Note_on_c, 0, 71, 81
1, 80160, Note_on_c, 0, 56, 63
1, 80200, Tempo, 398671
1, 80240, Tempo, 401338
1, 80279, Note_on_c, 0, 56, 0
1, 80279, Note_on_c, 0, 71, 0
1, 80280, Tempo, 404040
1, 80280, Note_on_c, 0, 65, 69
1, 80280, Note_on_c, 0, 50, 49
1, 80320, Tempo, 408163
1, 80360, Tempo, 410959
1, 80399, Note_on_c, 0, 50, 0
1, 80399, Note_on_c, 0, 65, 0
1, 80400, Tempo, 413793
1, 80400, Note_on_c, 0, 65, 69
1, 80400, Note_on_c, 0, 50, 49
1, 80440, Tempo, 418118
1, 80480, Tempo, 508475
1, 80519, Note_on_c, 0, 50, 0
1, 80519, Note_on_c, 0, 65, 0
1, 80520, Tempo, 526316
1, 80520, Note_on_c, 0, 59, 69
1, 80520, Note_on_c, 0, 44, 49
1, 80560, Tempo, 547945
1, 80600, Tempo, 571429
1, 80639, Note_on_c, 0, 44, 0
1, 80639, Note_on_c, 0, 59, 0
1, 80640, Tempo, 401338
1, 80640, Note_on_c, 0, 56, 108
1, 80640, Text_t, "bdca426d104a26ac9dcb070447587523"
1, 80640, Control_c, 0, 91, 127
1, 80640, Note_on_c, 0, 43, 77
1, 80657, Control_c, 0, 64, 0
1, 80691, Control_c, 0, 64, 127
1, 80759, Note_on_c, 0, 43, 0
1, 80759, Note_on_c, 0, 56, 0
1, 80760, Tempo, 400000
1, 80760, Note_on_c, 0, 59, 67
1, 80760, Note_on_c, 0, 50, 53
1, 80879, Note_on_c, 0, 50, 0
1, 80879, Note_on_c, 0, 59, 0
1, 80880, Tempo, 398671
1, 80880, Note_on_c, 0, 68, 67
1, 80880, Note_on_c, 0, 53, 53
1, 80960, Tempo, 397351
1, 80999, Note_on_c, 0, 53, 0
1, 80999, Note_on_c, 0, 68, 0
1, 81000, Note_on_c, 0, 68, 67
1, 81000, Note_on_c, 0, 55, 53
1, 81080, Tempo, 396040
1, 81119, Note_on_c, 0, 55, 0
1, 81119, Note_on_c, 0, 68, 0
1, 81120, Note_on_c, 0, 71, 81
1, 81120, Note_on_c, 0, 62, 64
1, 81200, Tempo, 394737
1, 81239, Note_on_c, 0, 62, 0
1, 81239, Note_on_c, 0, 71, 0
1, 81240, Note_on_c, 0, 80, 70
1, 81240, Note_on_c, 0, 65, 50
1, 81280, Tempo, 393443
1, 81359, Note_on_c, 0, 65, 0
1, 81359, Note_on_c, 0, 80, 0
1, 81360, Note_on_c, 0, 80, 70
1, 81360, Note_on_c, 0, 67, 51
1, 81400, Tempo, 392157
1, 81479, Note_on_c, 0, 67, 0
1, 81479, Note_on_c, 0, 80, 0
1, 81480, Note_on_c, 0, 83, 70
1, 81480, Note_on_c, 0, 74, 51
1, 81520, Tempo, 390879
1, 81599, Note_on_c, 0, 74, 0
1, 81599, Note_on_c, 0, 83, 0
1, 81600, Tempo, 389610
1, 81600, Note_on_c, 0, 92, 92
1, 81600, Note_on_c, 0, 77, 73
1, 81719, Note_on_c, 0, 77, 0
1, 81719, Note_on_c, 0, 92, 0
1, 81720, Note_on_c, 0, 83, 67
1, 81720, Note_on_c, 0, 74, 53
1, 81760, Tempo, 390879
1, 81839, Note_on_c, 0, 74, 0
1, 81839, Note_on_c, 0, 83, 0
1, 81840, Note_on_c, 0, 80, 69
1, 81840, Note_on_c, 0, 67, 53
1, 81880, Tempo, 392157
1, 81959, Note_on_c, 0, 67, 0
1, 81959, Note_on_c, 0, 80, 0
1, 81960, Note_on_c, 0, 80, 69
1, 81960, Note_on_c, 0, 65, 53
1, 82000, Tempo, 393443
1, 82079, Note_on_c, 0, 65, 0
1, 82079, Note_on_c, 0, 80, 0
1, 82080, Tempo, 393443
1, 82080, Note_on_c, 0, 71, 82
1, 82080, Note_on_c, 0, 62, 63
1, 82120, Tempo, 397351
1, 82160, Tempo, 401338
1, 82199, Note_on_c, 0, 62, 0
1, 82199, Note_on_c, 0, 71, 0
1, 82200, Tempo, 405405
1, 82200, Note_on_c, 0, 68, 67
1, 82200, Note_on_c, 0, 55, 50
1, 82240, Tempo, 409556
1, 82280, Tempo, 413793
1, 82319, Note_on_c, 0, 55, 0
1, 82319, Note_on_c, 0, 68, 0
1, 82320, Tempo, 418118
1, 82320, Note_on_c, 0, 68, 67
1, 82320, Note_on_c, 0, 53, 50
1, 82360, Tempo, 422535
1, 82400, Tempo, 427046
1, 82439, Note_on_c, 0, 53, 0
1, 82439, Note_on_c, 0, 68, 0
1, 82440, Tempo, 431655
1, 82440, Note_on_c, 0, 59, 67
1, 82440, Note_on_c, 0, 50, 50
1, 82480, Tempo, 436364
1, 82520, Tempo, 441176
1, 82559, Note_on_c, 0, 50, 0
1, 82559, Note_on_c, 0, 59, 0
1, 82560, Tempo, 401338
1, 82560, Note_on_c, 0, 55, 106
1, 82560, Text_t, "bdca426d104a26ac9dcb070447587523"
1, 82560, Control_c, 0, 91, 127
1, 82560, Note_on_c, 0, 43, 77
1, 82577, Control_c, 0, 64, 0
1, 82600, Tempo, 400000
1, 82617, Control_c, 0, 64, 127
1, 82679, Note_on_c, 0, 43, 0
1, 82679, Note_on_c, 0, 55, 0
1, 82680, Tempo, 398671
1, 82680, Note_on_c, 0, 59, 67
1, 82680, Note_on_c, 0, 50, 53
1, 82760, Tempo, 397351
1, 82799, Note_on_c, 0, 50, 0
1, 82799, Note_on_c, 0, 59, 0
1, 82800, Note_on_c, 0, 67, 67
1, 82800, Note_on_c, 0, 53, 53
1, 82840, Tempo, 396040
1, 82919, Note_on_c, 0, 53, 0
1, 82919, Note_on_c, 0, 67, 0
1, 82920, Tempo, 394737
1, 82920, Note_on_c, 0, 67, 67
1, 82920, Note_on_c, 0, 55, 53
1, 83000, Tempo, 393443
1, 83039, Note_on_c, 0, 55, 0
1, 83039, Note_on_c, 0, 67, 0
1, 83040, Note_on_c, 0, 71, 81
1, 83040, Note_on_c, 0, 62, 64
1, 83080, Tempo, 392157
1, 83159, Note_on_c, 0, 62, 0
1, 83159, Note_on_c, 0, 71, 0
1, 83160, Tempo, 390879
1, 83160, Note_on_c, 0, 79, 70
1, 83160, Note_on_c, 0, 65, 50
1, 83240, Tempo, 389610
1, 83279, Note_on_c, 0, 65, 0
1, 83279, Note_on_c, 0, 79, 0
1, 83280, Note_on_c, 0, 79, 70
1, 83280, Note_on_c, 0, 67, 51
1, 83320, Tempo, 388350
1, 83399, Note_on_c, 0, 67, 0
1, 83399, Note_on_c, 0, 79, 0
1, 83400, Tempo, 387097
1, 83400, Note_on_c, 0, 83, 70
1, 83400, Note_on_c, 0, 74, 51
1, 83480, Tempo, 385852
1, 83519, Note_on_c, 0, 74, 0
1, 83519, Note_on_c, 0, 83, 0
1, 83520, Tempo, 384615
1, 83520, Note_on_c, 0, 91, 90
1, 83520, Note_on_c, 0, 77, 73
1, 83600, Tempo, 385852
1, 83639, Note_on_c, 0, 77, 0
1, 83639, Note_on_c, 0, 91, 0
1, 83640, Tempo, 387097
1, 83640, Note_on_c, 0, 83, 67
1, 83640, Note_on_c, 0, 74, 53
1, 83720, Tempo, 388350
1, 83759, Note_on_c, 0, 74, 0
1, 83759, Note_on_c, 0, 83, 0
1, 83760, Tempo, 389610
1, 83760, Note_on_c, 0, 79, 69
1, 83760, Note_on_c, 0, 67, 53
1, 83840, Tempo, 390879
1, 83879, Note_on_c, 0, 67, 0
1, 83879, Note_on_c, 0, 79, 0
1, 83880, Tempo, 392157
1, 83880, Note_on_c, 0, 79, 69
1, 83880, Note_on_c, 0, 65, 53
1, 83920, Tempo, 393443
1, 83999, Note_on_c, 0, 65, 0
1, 83999, Note_on_c, 0, 79, 0
1, 84000, Tempo, 393443
1, 84000, Note_on_c, 0, 71, 82
1, 84000, Note_on_c, 0, 62, 63
1, 84040, Tempo, 397351
1, 84080, Tempo, 401338
1, 84119, Note_on_c, 0, 62, 0
1, 84119, Note_on_c, 0, 71, 0
1, 84120, Tempo, 405405
1, 84120, Note_on_c, 0, 67, 67
1, 84120, Note_on_c, 0, 55, 50
1, 84160, Tempo, 409556
1, 84200, Tempo, 413793
1, 84239, Note_on_c, 0, 55, 0
1, 84239, Note_on_c, 0, 67, 0
1, 84240, Tempo, 418118
1, 84240, Note_on_c, 0, 67, 67
1, 84240, Note_on_c, 0, 53, 50
1, 84280, Tempo, 422535
1, 84320, Tempo, 427046
1, 84359, Note_on_c, 0, 53, 0
1, 84359, Note_on_c, 0, 67, 0
1, 84360, Tempo, 431655
1, 84360, Note_on_c, 0, 59, 67
1, 84360, Note_on_c, 0, 50, 50
1, 84400, Tempo, 436364
1, 84440, Tempo, 412371
1, 84479, Note_on_c, 0, 50, 0
1, 84479, Note_on_c, 0, 59, 0
1, 84480, Note_on_c, 0, 43, 100
1, 84480, Text_t, "bdca426d104a26ac9dcb070447587523"
1, 84480, Control_c, 0, 91, 127
1, 84480, Note_on_c, 0, 31, 74
1, 84497, Control_c, 0, 64, 0
1, 84560, Tempo, 410959
1, 84560, Control_c, 0, 64, 127
1, 84599, Note_on_c, 0, 31, 0
1, 84599, Note_on_c, 0, 43, 0
1, 84600, Note_on_c, 0, 47, 61
1, 84600, Note_on_c, 0, 38, 44
1, 84640, Tempo, 409556
1, 84719, Note_on_c, 0, 38, 0
1, 84719, Note_on_c, 0, 47, 0
1, 84720, Note_on_c, 0, 55, 62
1, 84720, Note_on_c, 0, 43, 44
1, 84760, Tempo, 408163
1, 84839, Note_on_c, 0, 43, 0
1, 84839, Note_on_c, 0, 55, 0
1, 84840, Tempo, 406780
1, 84840, Note_on_c, 0, 55, 64
1, 84840, Note_on_c, 0, 43, 44
1, 84959, Note_on_c, 0, 43, 0
1, 84959, Note_on_c, 0, 55, 0
1, 84960, Tempo, 405405
1, 84960, Note_on_c, 0, 59, 75
1, 84960, Note_on_c, 0, 50, 58
1, 85040, Tempo, 404040
1, 85079, Note_on_c, 0, 50, 0
1, 85079, Note_on_c, 0, 59, 0
1, 85080, Note_on_c, 0, 67, 66
1, 85080, Note_on_c, 0, 55, 40
1, 85160, Tempo, 402685
1, 85199, Note_on_c, 0, 55, 0
1, 85199, Note_on_c, 0, 67, 0
1, 85200, Note_on_c, 0, 59, 67
1, 85200, Note_on_c, 0, 50, 40
1, 85240, Tempo, 401338
1, 85319, Note_on_c, 0, 50, 0
1, 85319, Note_on_c, 0, 59, 0
1, 85320, Note_on_c, 0, 55, 68
1, 85320, Note_on_c, 0, 43, 41
1, 85360, Tempo, 400000
1, 85400, Tempo, 398671
1, 85439, Note_on_c, 0, 43, 0
1, 85439, Note_on_c, 0, 55, 0
1, 85440, Note_on_c, 0, 43, 105
1, 85440, Note_on_c, 0, 32, 63
1, 85454, Control_c, 0, 64, 0
1, 85509, Control_c, 0, 64, 127
1, 85520, Tempo, 400000
1, 85559, Note_on_c, 0, 32, 0
1, 85559, Note_on_c, 0, 43, 0
1, 85560, Note_on_c, 0, 48, 68
1, 85560, Note_on_c, 0, 36, 44
1, 85600, Tempo, 401338
1, 85679, Note_on_c, 0, 36, 0
1, 85679, Note_on_c, 0, 48, 0
1, 85680, Note_on_c, 0, 55, 68
1, 85680, Note_on_c, 0, 44, 44
1, 85720, Tempo, 402685
1, 85799, Note_on_c, 0, 44, 0
1, 85799, Note_on_c, 0, 55, 0
1, 85800, Tempo, 404040
1, 85800, Note_on_c, 0, 55, 69
1, 85800, Note_on_c, 0, 44, 44
1, 85880, Tempo, 405405
1, 85919, Note_on_c, 0, 44, 0
1, 85919, Note_on_c, 0, 55, 0
1, 85920, Tempo, 406780
1, 85920, Note_on_c, 0, 60, 80
1, 85920, Note_on_c, 0, 48, 58
1, 85960, Tempo, 409556
1, 86000, Tempo, 412371
1, 86039, Note_on_c, 0, 48, 0
1, 86039, Note_on_c, 0, 60, 0
1, 86040, Tempo, 413793
1, 86040, Note_on_c, 0, 67, 70
1, 86040, Note_on_c, 0, 56, 41
1, 86080, Tempo, 416667
1, 86120, Tempo, 419580
1, 86159, Note_on_c, 0, 56, 0
1, 86159, Note_on_c, 0, 67, 0
1, 86160, Tempo, 421053
1, 86160, Note_on_c, 0, 60, 71
1, 86160, Note_on_c, 0, 48, 41
1, 86200, Tempo, 424028
1, 86240, Tempo, 427046
1, 86279, Note_on_c, 0, 48, 0
1, 86279, Note_on_c, 0, 60, 0
1, 86280, Tempo, 428571
1, 86280, Note_on_c, 0, 55, 72
1, 86280, Note_on_c, 0, 44, 41
1, 86320, Tempo, 431655
1, 86360, Tempo, 434783
1, 86380, Tempo, 418118
1, 86399, Note_on_c, 0, 44, 0
1, 86399, Note_on_c, 0, 55, 0
1, 86400, Tempo, 412371
1, 86400, Note_on_c, 0, 43, 106
1, 86400, Text_t, "bdca426d104a26ac9dcb070447587523"
1, 86400, Control_c, 0, 91, 127
1, 86400, Note_on_c, 0, 33, 71
1, 86405, Control_c, 0, 64, 0
1, 86449, Control_c, 0, 64, 127
1, 86480, Tempo, 410959
1, 86519, Note_on_c, 0, 33, 0
1, 86519, Note_on_c, 0, 43, 0
1, 86520, Note_on_c, 0, 49, 69
1, 86520, Note_on_c, 0, 37, 43
1, 86560, Tempo, 409556
1, 86600, Tempo, 408163
1, 86639, Note_on_c, 0, 37, 0
1, 86639, Note_on_c, 0, 49, 0
1, 86640, Note_on_c, 0, 55, 70
1, 86640, Note_on_c, 0, 45, 44
1, 86680, Tempo, 406780
1, 86720, Tempo, 405405
1, 86759, Note_on_c, 0, 45, 0
1, 86759, Note_on_c, 0, 55, 0
1, 86760, Note_on_c, 0, 55, 71
1, 86760, Note_on_c, 0, 45, 45
1, 86800, Tempo, 404040
1, 86840, Tempo, 402685
1, 86879, Note_on_c, 0, 45, 0
1, 86879, Note_on_c, 0, 55, 0
1, 86880, Note_on_c, 0, 61, 81
1, 86880, Note_on_c, 0, 49, 61
1, 86999, Note_on_c, 0, 49, 0
1, 86999, Note_on_c, 0, 61, 0
1, 87000, Note_on_c, 0, 67, 72
1, 87000, Note_on_c, 0, 57, 46
1, 87119, Note_on_c, 0, 57, 0
1, 87119, Note_on_c, 0, 67, 0
1, 87120, Note_on_c, 0, 61, 74
1, 87120, Note_on_c, 0, 49, 47
1, 87239, Note_on_c, 0, 49, 0
1, 87239, Note_on_c, 0, 61, 0
1, 87240, Note_on_c, 0, 55, 76
1, 87240, Note_on_c, 0, 45, 48
1, 87320, Tempo, 402685
1, 87359, Note_on_c, 0, 45, 0
1, 87359, Note_on_c, 0, 55, 0
1, 87360, Tempo, 404040
1, 87360, Note_on_c, 0, 43, 109
1, 87360, Note_on_c, 0, 34, 70
1, 87374, Control_c, 0, 64, 0
1, 87400, Tempo, 405405
1, 87429, Control_c, 0, 64, 127
1, 87440, Tempo, 408163
1, 87479, Note_on_c, 0, 34, 0
1, 87479, Note_on_c, 0, 43, 0
1, 87480, Tempo, 409556
1, 87480, Note_on_c, 0, 49, 73
1, 87480, Note_on_c, 0, 37, 50
1, 87520, Tempo, 410959
1, 87560, Tempo, 413793
1, 87599, Note_on_c, 0, 37, 0
1, 87599, Note_on_c, 0, 49, 0
1, 87600, Tempo, 415225
1, 87600, Note_on_c, 0, 55, 75
1, 87600, Note_on_c, 0, 46, 51
1, 87640, Tempo, 416667
1, 87680, Tempo, 419580
1, 87719, Note_on_c, 0, 46, 0
1, 87719, Note_on_c, 0, 55, 0
1, 87720, Tempo, 421053
1, 87720, Note_on_c, 0, 49, 75
1, 87720, Note_on_c, 0, 37, 50
1, 87760, Tempo, 424028
1, 87800, Tempo, 409556
1, 87839, Note_on_c, 0, 37, 0
1, 87839, Note_on_c, 0, 49, 0
1, 87840, Tempo, 416667
1, 87840, Note_on_c, 0, 43, 96
1, 87840, Note_on_c, 0, 35, 69
1, 87851, Control_c, 0, 64, 0
1, 87880, Tempo, 424028
1, 87891, Control_c, 0, 64, 127
1, 87920, Tempo, 431655
1, 87959, Note_on_c, 0, 35, 0
1, 87959, Note_on_c, 0, 43, 0
1, 87960, Tempo, 439560
1, 87960, Note_on_c, 0, 50, 73
1, 87960, Note_on_c, 0, 38, 50
1, 88000, Tempo, 447761
1, 88040, Tempo, 458015
1, 88079, Note_on_c, 0, 38, 0
1, 88079, Note_on_c, 0, 50, 0
1, 88080, Tempo, 466926
1, 88080, Note_on_c, 0, 55, 72
1, 88080, Note_on_c, 0, 47, 50
1, 88120, Tempo, 476190
1, 88160, Tempo, 485830
1, 88199, Note_on_c, 0, 47, 0
1, 88199, Note_on_c, 0, 55, 0
1, 88200, Tempo, 542986
1, 88200, Note_on_c, 0, 50, 72
1, 88200, Note_on_c, 0, 38, 51
1, 88319, Note_on_c, 0, 38, 0
1, 88319, Note_on_c, 0, 50, 0
1, 88320, Tempo, 428571
1, 88320, Note_on_c, 0, 51, 108
1, 88320, Text_t, "bdca426d104a26ac9dcb070447587523"
1, 88320, Control_c, 0, 91, 127
1, 88320, Note_on_c, 0, 36, 82
1, 88327, Control_c, 0, 64, 0
1, 88360, Tempo, 425532
1, 88398, Control_c, 0, 64, 127
1, 88400, Tempo, 422535
1, 88439, Note_on_c, 0, 36, 0
1, 88439, Note_on_c, 0, 51, 0
1, 88440, Tempo, 419580
1, 88440, Note_on_c, 0, 55, 70
1, 88440, Note_on_c, 0, 43, 56
1, 88480, Tempo, 416667
1, 88520, Tempo, 413793
1, 88559, Note_on_c, 0, 43, 0
1, 88559, Note_on_c, 0, 55, 0
1, 88560, Tempo, 409556
1, 88560, Note_on_c, 0, 63, 70
1, 88560, Note_on_c, 0, 48, 56
1, 88600, Tempo, 406780
1, 88640, Tempo, 404040
1, 88679, Note_on_c, 0, 48, 0
1, 88679, Note_on_c, 0, 63, 0
1, 88680, Tempo, 401338
1, 88680, Note_on_c, 0, 63, 70
1, 88680, Note_on_c, 0, 48, 56
1, 88720, Tempo, 398671
1, 88760, Tempo, 394737
1, 88799, Note_on_c, 0, 48, 0
1, 88799, Note_on_c, 0, 63, 0
1, 88800, Tempo, 393443
1, 88800, Note_on_c, 0, 67, 82
1, 88800, Note_on_c, 0, 55, 70
1, 88840, Tempo, 392157
1, 88919, Note_on_c, 0, 55, 0
1, 88919, Note_on_c, 0, 67, 0
1, 88920, Tempo, 390879
1, 88920, Note_on_c, 0, 75, 72
1, 88920, Note_on_c, 0, 60, 57
1, 89000, Tempo, 389610
1, 89039, Note_on_c, 0, 60, 0
1, 89039, Note_on_c, 0, 75, 0
1, 89040, Note_on_c, 0, 75, 70
1, 89040, Note_on_c, 0, 60, 56
1, 89080, Tempo, 388350
1, 89159, Note_on_c, 0, 60, 0
1, 89159, Note_on_c, 0, 75, 0
1, 89160, Tempo, 387097
1, 89160, Note_on_c, 0, 79, 70
1, 89160, Note_on_c, 0, 67, 56
1, 89240, Tempo, 385852
1, 89279, Note_on_c, 0, 67, 0
1, 89279, Note_on_c, 0, 79, 0
1, 89280, Tempo, 384615
1, 89280, Note_on_c, 0, 87, 90
1, 89280, Note_on_c, 0, 72, 67
1, 89360, Tempo, 385852
1, 89399, Note_on_c, 0, 72, 0
1, 89399, Note_on_c, 0, 87, 0
1, 89400, Note_on_c, 0, 79, 74
1, 89400, Note_on_c, 0, 67, 56
1, 89440, Tempo, 387097
1, 89519, Note_on_c, 0, 67, 0
1, 89519, Note_on_c, 0, 79, 0
1, 89520, Tempo, 388350
1, 89520, Note_on_c, 0, 75, 74
1, 89520, Note_on_c, 0, 60, 56
1, 89600, Tempo, 389610
1, 89639, Note_on_c, 0, 60, 0
1, 89639, Note_on_c, 0, 75, 0
1, 89640, Note_on_c, 0, 75, 74
1, 89640, Note_on_c, 0, 60, 56
1, 89680, Tempo, 390879
1, 89759, Note_on_c, 0, 60, 0
1, 89759, Note_on_c, 0, 75, 0
1, 89760, Tempo, 393443
1, 89760, Note_on_c, 0, 67, 82
1, 89760, Note_on_c, 0, 55, 63
1, 89800, Tempo, 397351
1, 89840, Tempo, 402685
1, 89879, Note_on_c, 0, 55, 0
1, 89879, Note_on_c, 0, 67, 0
1, 89880, Tempo, 406780
1, 89880, Note_on_c, 0, 63, 70
1, 89880, Note_on_c, 0, 48, 55
1, 89920, Tempo, 412371
1, 89960, Tempo, 418118
1, 89999, Note_on_c, 0, 48, 0
1, 89999, Note_on_c, 0, 63, 0
1, 90000, Tempo, 422535
1, 90000, Note_on_c, 0, 63, 70
1, 90000, Note_on_c, 0, 48, 55
1, 90040, Tempo, 428571
1, 90080, Tempo, 434783
1, 90119, Note_on_c, 0, 48, 0
1, 90119, Note_on_c, 0, 63, 0
1, 90120, Tempo, 439560
1, 90120, Note_on_c, 0, 55, 70
1, 90120, Note_on_c, 0, 43, 55
1, 90160, Tempo, 446097
1, 90200, Tempo, 402685
1, 90239, Note_on_c, 0, 43, 0
1, 90239, Note_on_c, 0, 55, 0
1, 90240, Tempo, 410959
1, 90240, Note_on_c, 0, 50, 107
1, 90240, Text_t, "bdca426d104a26ac9dcb070447587523"
1, 90240, Control_c, 0, 91, 127
1, 90240, Note_on_c, 0, 36, 75
1, 90258, Control_c, 0, 64, 0
1, 90280, Tempo, 409556
1, 90289, Control_c, 0, 64, 127
1, 90320, Tempo, 408163
1, 90359, Note_on_c, 0, 36, 0
1, 90359, Note_on_c, 0, 50, 0
1, 90360, Tempo, 406780
1, 90360, Note_on_c, 0, 56, 66
1, 90360, Note_on_c, 0, 41, 57
1, 90400, Tempo, 405405
1, 90440, Tempo, 402685
1, 90479, Note_on_c, 0, 41, 0
1, 90479, Note_on_c, 0, 56, 0
1, 90480, Tempo, 401338
1, 90480, Note_on_c, 0, 62, 66
1, 90480, Note_on_c, 0, 48, 51
1, 90520, Tempo, 400000
1, 90560, Tempo, 398671
1, 90599, Note_on_c, 0, 48, 0
1, 90599, Note_on_c, 0, 62, 0
1, 90600, Tempo, 397351
1, 90600, Note_on_c, 0, 62, 66
1, 90600, Note_on_c, 0, 48, 51
1, 90640, Tempo, 394737
1, 90719, Note_on_c, 0, 48, 0
1, 90719, Note_on_c, 0, 62, 0
1, 90720, Tempo, 394737
1, 90720, Note_on_c, 0, 68, 82
1, 90720, Note_on_c, 0, 53, 70
1, 90800, Tempo, 393443
1, 90839, Note_on_c, 0, 53, 0
1, 90839, Note_on_c, 0, 68, 0
1, 90840, Note_on_c, 0, 74, 67
1, 90840, Note_on_c, 0, 60, 51
1, 90880, Tempo, 392157
1, 90959, Note_on_c, 0, 60, 0
1, 90959, Note_on_c, 0, 74, 0
1, 90960, Tempo, 390879
1, 90960, Note_on_c, 0, 74, 66
1, 90960, Note_on_c, 0, 60, 51
1, 91040, Tempo, 389610
1, 91079, Note_on_c, 0, 60, 0
1, 91079, Note_on_c, 0, 74, 0
1, 91080, Note_on_c, 0, 80, 66
1, 91080, Note_on_c, 0, 65, 51
1, 91120, Tempo, 388350
1, 91199, Note_on_c, 0, 65, 0
1, 91199, Note_on_c, 0, 80, 0
1, 91200, Tempo, 387097
1, 91200, Note_on_c, 0, 86, 92
1, 91200, Note_on_c, 0, 72, 69
1, 91319, Note_on_c, 0, 72, 0
1, 91319, Note_on_c, 0, 86, 0
1, 91320, Tempo, 388350
1, 91320, Note_on_c, 0, 80, 72
1, 91320, Note_on_c, 0, 65, 56
1, 91400, Tempo, 389610
1, 91439, Note_on_c, 0, 65, 0
1, 91439, Note_on_c, 0, 80, 0
1, 91440, Note_on_c, 0, 74, 70
1, 91440, Note_on_c, 0, 60, 56
1, 91480, Tempo, 390879
1, 91559, Note_on_c, 0, 60, 0
1, 91559, Note_on_c, 0, 74, 0
1, 91560, Tempo, 392157
1, 91560, Note_on_c, 0, 74, 70
1, 91560, Note_on_c, 0, 60, 56
1, 91640, Tempo, 393443
1, 91679, Note_on_c, 0, 60, 0
1, 91679, Note_on_c, 0, 74, 0
1, 91680, Tempo, 396040
1, 91680, Note_on_c, 0, 68, 79
1, 91680, Note_on_c, 0, 53, 63
1, 91720, Tempo, 400000
1, 91760, Tempo, 402685
1, 91799, Note_on_c, 0, 53, 0
1, 91799, Note_on_c, 0, 68, 0
1, 91800, Tempo, 406780
1, 91800, Note_on_c, 0, 62, 69
1, 91800, Note_on_c, 0, 48, 51
1, 91840, Tempo, 409556
1, 91880, Tempo, 413793
1, 91919, Note_on_c, 0, 48, 0
1, 91919, Note_on_c, 0, 62, 0
1, 91920, Tempo, 418118
1, 91920, Note_on_c, 0, 62, 69
1, 91920, Note_on_c, 0, 48, 51
1, 91960, Tempo, 421053
1, 92000, Tempo, 425532
1, 92039, Note_on_c, 0, 48, 0
1, 92039, Note_on_c, 0, 62, 0
1, 92040, Tempo, 428571
1, 92040, Note_on_c, 0, 56, 67
1, 92040, Note_on_c, 0, 41, 51
1, 92080, Tempo, 433213
1, 92120, Tempo, 437956
1, 92159, Note_on_c, 0, 41, 0
1, 92159, Note_on_c, 0, 56, 0
1, 92160, Tempo, 401338
1, 92160, Note_on_c, 0, 53, 107
1, 92160, Text_t, "bdca426d104a26ac9dcb070447587523"
1, 92160, Control_c, 0, 91, 127
1, 92160, Note_on_c, 0, 36, 78
1, 92178, Control_c, 0, 64, 0
1, 92226, Control_c, 0, 64, 127
1, 92279, Note_on_c, 0, 36, 0
1, 92279, Note_on_c, 0, 53, 0
1, 92280, Tempo, 400000
1, 92280, Note_on_c, 0, 60, 70
1, 92280, Note_on_c, 0, 44, 57
1, 92399, Note_on_c, 0, 44, 0
1, 92399, Note_on_c, 0, 60, 0
1, 92400, Tempo, 398671
1, 92400, Note_on_c, 0, 65, 70
1, 92400, Note_on_c, 0, 48, 57
1, 92480, Tempo, 397351
1, 92519, Note_on_c, 0, 48, 0
1, 92519, Note_on_c, 0, 65, 0
1, 92520, Note_on_c, 0, 65, 70
1, 92520, Note_on_c, 0, 48, 57
1, 92600, Tempo, 396040
1, 92639, Note_on_c, 0, 48, 0
1, 92639, Note_on_c, 0, 65, 0
1, 92640, Note_on_c, 0, 72, 82
1, 92640, Note_on_c, 0, 56, 70
1, 92720, Tempo, 394737
1, 92759, Note_on_c, 0, 56, 0
1, 92759, Note_on_c, 0, 72, 0
1, 92760, Note_on_c, 0, 77, 72
1, 92760, Note_on_c, 0, 60, 56
1, 92800, Tempo, 393443
1, 92879, Note_on_c, 0, 60, 0
1, 92879, Note_on_c, 0, 77, 0
1, 92880, Note_on_c, 0, 77, 72
1, 92880, Note_on_c, 0, 60, 56
1, 92920, Tempo, 392157
1, 92999, Note_on_c, 0, 60, 0
1, 92999, Note_on_c, 0, 77, 0
1, 93000, Note_on_c, 0, 84, 72
1, 93000, Note_on_c, 0, 68, 56
1, 93040, Tempo, 390879
1, 93119, Note_on_c, 0, 68, 0
1, 93119, Note_on_c, 0, 84, 0
1, 93120, Tempo, 389610
1, 93120, Note_on_c, 0, 89, 88
1, 93120, Note_on_c, 0, 72, 67
1, 93239, Note_on_c, 0, 72, 0
1, 93239, Note_on_c, 0, 89, 0
1, 93240, Note_on_c, 0, 84, 74
1, 93240, Note_on_c, 0, 68, 56
1, 93280, Tempo, 390879
1, 93359, Note_on_c, 0, 68, 0
1, 93359, Note_on_c, 0, 84, 0
1, 93360, Note_on_c, 0, 77, 74
1, 93360, Note_on_c, 0, 60, 56
1, 93400, Tempo, 392157
1, 93479, Note_on_c, 0, 60, 0
1, 93479, Note_on_c, 0, 77, 0
1, 93480, Note_on_c, 0, 77, 74
1, 93480, Note_on_c, 0, 60, 56
1, 93520, Tempo, 393443
1, 93599, Note_on_c, 0, 60, 0
1, 93599, Note_on_c, 0, 77, 0
1, 93600, Tempo, 393443
1, 93600, Note_on_c, 0, 72, 82
1, 93600, Note_on_c, 0, 56, 63
1, 93640, Tempo, 397351
1, 93680, Tempo, 401338
1, 93719, Note_on_c, 0, 56, 0
1, 93719, Note_on_c, 0, 72, 0
1, 93720, Tempo, 405405
1, 93720, Note_on_c, 0, 65, 72
1, 93720, Note_on_c, 0, 48, 50
1, 93760, Tempo, 409556
1, 93800, Tempo, 413793
1, 93839, Note_on_c, 0, 48, 0
1, 93839, Note_on_c, 0, 65, 0
1, 93840, Tempo, 418118
1, 93840, Note_on_c, 0, 65, 72
1, 93840, Note_on_c, 0, 48, 50
1, 93880, Tempo, 422535
1, 93920, Tempo, 427046
1, 93959, Note_on_c, 0, 48, 0
1, 93959, Note_on_c, 0, 65, 0
1, 93960, Tempo, 431655
1, 93960, Note_on_c, 0, 60, 72
1, 93960, Note_on_c, 0, 44, 50
1, 94000, Tempo, 436364
1, 94040, Tempo, 441176
1, 94079, Note_on_c, 0, 44, 0
1, 94079, Note_on_c, 0, 60, 0
1, 94080, Tempo, 402685
1, 94080, Note_on_c, 0, 51, 109
1, 94080, Text_t, "bdca426d104a26ac9dcb070447587523"
1, 94080, Control_c, 0, 91, 127
1, 94080, Note_on_c, 0, 36, 82
1, 94087, Control_c, 0, 64, 0
1, 94144, Control_c, 0, 64, 127
1, 94199, Note_on_c, 0, 36, 0
1, 94199, Note_on_c, 0, 51, 0
1, 94200, Tempo, 401338
1, 94200, Note_on_c, 0, 55, 70
1, 94200, Note_on_c, 0, 43, 56
1, 94280, Tempo, 400000
1, 94319, Note_on_c, 0, 43, 0
1, 94319, Note_on_c, 0, 55, 0
1, 94320, Note_on_c, 0, 63, 70
1, 94320, Note_on_c, 0, 48, 56
1, 94360, Tempo, 398671
1, 94439, Note_on_c, 0, 48, 0
1, 94439, Note_on_c, 0, 63, 0
1, 94440, Tempo, 397351
1, 94440, Note_on_c, 0, 63, 70
1, 94440, Note_on_c, 0, 48, 56
1, 94520, Tempo, 396040
1, 94559, Note_on_c, 0, 48, 0
1, 94559, Note_on_c, 0, 63, 0
1, 94560, Note_on_c, 0, 67, 82
1, 94560, Note_on_c, 0, 55, 70
1, 94600, Tempo, 394737
1, 94679, Note_on_c, 0, 55, 0
1, 94679, Note_on_c, 0, 67, 0
1, 94680, Tempo, 393443
1, 94680, Note_on_c, 0, 75, 72
1, 94680, Note_on_c, 0, 60, 57
1, 94760, Tempo, 392157
1, 94799, Note_on_c, 0, 60, 0
1, 94799, Note_on_c, 0, 75, 0
1, 94800, Note_on_c, 0, 75, 70
1, 94800, Note_on_c, 0, 60, 56
1, 94840, Tempo, 390879
1, 94919, Note_on_c, 0, 60, 0
1, 94919, Note_on_c, 0, 75, 0
1, 94920, Tempo, 389610
1, 94920, Note_on_c, 0, 79, 70
1, 94920, Note_on_c, 0, 67, 56
1, 95000, Tempo, 388350
1, 95039, Note_on_c, 0, 67, 0
1, 95039, Note_on_c, 0, 79, 0
1, 95040, Note_on_c, 0, 87, 91
1, 95040, Note_on_c, 0, 72, 67
1, 95120, Tempo, 389610
1, 95159, Note_on_c, 0, 72, 0
1, 95159, Note_on_c, 0, 87, 0
1, 95160, Note_on_c, 0, 79, 74
1, 95160, Note_on_c, 0, 67, 56
1, 95200, Tempo, 390879
1, 95279, Note_on_c, 0, 67, 0
1, 95279, Note_on_c, 0, 79, 0
1, 95280, Note_on_c, 0, 75, 74
1, 95280, Note_on_c, 0, 60, 56
1, 95320, Tempo, 392157
1, 95399, Note_on_c, 0, 60, 0
1, 95399, Note_on_c, 0, 75, 0
1, 95400, Tempo, 393443
1, 95400, Note_on_c, 0, 75, 74
1, 95400, Note_on_c, 0, 60, 56
1, 95519, Note_on_c, 0, 60, 0
1, 95519, Note_on_c, 0, 75, 0
1, 95520, Tempo, 394737
1, 95520, Note_on_c, 0, 67, 82
1, 95520, Note_on_c, 0, 55, 63
1, 95560, Tempo, 398671
1, 95600, Tempo, 404040
1, 95639, Note_on_c, 0, 55, 0
1, 95639, Note_on_c, 0, 67, 0
1, 95640, Tempo, 408163
1, 95640, Note_on_c, 0, 63, 70
1, 95640, Note_on_c, 0, 48, 55
1, 95680, Tempo, 413793
1, 95720, Tempo, 419580
1, 95759, Note_on_c, 0, 48, 0
1, 95759, Note_on_c, 0, 63, 0
1, 95760, Tempo, 424028
1, 95760, Note_on_c, 0, 63, 70
1, 95760, Note_on_c, 0, 48, 55
1, 95800, Tempo, 430108
1, 95840, Tempo, 434783
1, 95879, Note_on_c, 0, 48, 0
1, 95879, Note_on_c, 0, 63, 0
1, 95880, Tempo, 441176
1, 95880, Note_on_c, 0, 55, 70
1, 95880, Note_on_c, 0, 43, 55
1, 95920, Tempo, 447761
1, 95999, Note_on_c, 0, 43, 0
1, 95999, Note_on_c, 0, 55, 0
1, 96000, Tempo, 401338
1, 96000, Note_on_c, 0, 50, 110
1, 96000, Text_t, "bdca426d104a26ac9dcb070447587523"
1, 96000, Control_c, 0, 91, 127
1, 96000, Note_on_c, 0, 36, 75
1, 96018, Control_c, 0, 64, 0
1, 96069, Control_c, 0, 64, 127
1, 96119, Note_on_c, 0, 36, 0
1, 96119, Note_on_c, 0, 50, 0
1, 96120, Tempo, 400000
1, 96120, Note_on_c, 0, 56, 66
1, 96120, Note_on_c, 0, 41, 57
1, 96200, Tempo, 398671
1, 96239, Note_on_c, 0, 41, 0
1, 96239, Note_on_c, 0, 56, 0
1, 96240, Note_on_c, 0, 62, 66
1, 96240, Note_on_c, 0, 48, 51
1, 96320, Tempo, 397351
1, 96359, Note_on_c, 0, 48, 0
1, 96359, Note_on_c, 0, 62, 0
1, 96360, Note_on_c, 0, 62, 66
1, 96360, Note_on_c, 0, 48, 51
1, 96400, Tempo, 396040
1, 96479, Note_on_c, 0, 48, 0
1, 96479, Note_on_c, 0, 62, 0
1, 96480, Tempo, 394737
1, 96480, Note_on_c, 0, 68, 82
1, 96480, Note_on_c, 0, 53, 70
1, 96599, Note_on_c, 0, 53, 0
1, 96599, Note_on_c, 0, 68, 0
1, 96600, Tempo, 393443
1, 96600, Note_on_c, 0, 74, 67
1, 96600, Note_on_c, 0, 60, 51
1, 96680, Tempo, 392157
1, 96719, Note_on_c, 0, 60, 0
1, 96719, Note_on_c, 0, 74, 0
1, 96720, Note_on_c, 0, 74, 66
1, 96720, Note_on_c, 0, 60, 51
1, 96800, Tempo, 390879
1, 96839, Note_on_c, 0, 60, 0
1, 96839, Note_on_c, 0, 74, 0
1, 96840, Note_on_c, 0, 80, 66
1, 96840, Note_on_c, 0, 65, 51
1, 96880, Tempo, 389610
1, 96959, Note_on_c, 0, 65, 0
1, 96959, Note_on_c, 0, 80, 0
1, 96960, Tempo, 388350
1, 96960, Note_on_c, 0, 86, 95
1, 96960, Note_on_c, 0, 72, 69
1, 97079, Note_on_c, 0, 72, 0
1, 97079, Note_on_c, 0, 86, 0
1, 97080, Tempo, 389610
1, 97080, Note_on_c, 0, 80, 72
1, 97080, Note_on_c, 0, 65, 56
1, 97160, Tempo, 390879
1, 97199, Note_on_c, 0, 65, 0
1, 97199, Note_on_c, 0, 80, 0
1, 97200, Note_on_c, 0, 74, 70
1, 97200, Note_on_c, 0, 60, 56
1, 97280, Tempo, 392157
1, 97319, Note_on_c, 0, 60, 0
1, 97319, Note_on_c, 0, 74, 0
1, 97320, Note_on_c, 0, 74, 70
1, 97320, Note_on_c, 0, 60, 56
1, 97360, Tempo, 393443
1, 97439, Note_on_c, 0, 60, 0
1, 97439, Note_on_c, 0, 74, 0
1, 97440, Tempo, 394737
1, 97440, Note_on_c, 0, 68, 79
1, 97440, Note_on_c, 0, 53, 63
1, 97480, Tempo, 394737
1, 97520, Tempo, 398671
1, 97559, Note_on_c, 0, 53, 0
1, 97559, Note_on_c, 0, 68, 0
1, 97560, Tempo, 402685
1, 97560, Note_on_c, 0, 62, 69
1, 97560, Note_on_c, 0, 48, 51
1, 97600, Tempo, 406780
1, 97640, Tempo, 410959
1, 97679, Note_on_c, 0, 48, 0
1, 97679, Note_on_c, 0, 62, 0
1, 97680, Tempo, 415225
1, 97680, Note_on_c, 0, 62, 69
1, 97680, Note_on_c, 0, 48, 51
1, 97720, Tempo, 419580
1, 97760, Tempo, 424028
1, 97799, Note_on_c, 0, 48, 0
1, 97799, Note_on_c, 0, 62, 0
1, 97800, Tempo, 428571
1, 97800, Note_on_c, 0, 56, 67
1, 97800, Note_on_c, 0, 41, 51
1, 97840, Tempo, 433213
1, 97880, Tempo, 439560
1, 97919, Note_on_c, 0, 41, 0
1, 97919, Note_on_c, 0, 56, 0
1, 97920, Tempo, 400000
1, 97920, Note_on_c, 0, 51, 109
1, 97920, Text_t, "bdca426d104a26ac9dcb070447587523"
1, 97920, Control_c, 0, 91, 127
1, 97920, Note_on_c, 0, 36, 78
1, 97931, Control_c, 0, 64, 0
1, 97971, Control_c, 0, 64, 127
1, 98039, Note_on_c, 0, 36, 0
1, 98039, Note_on_c, 0, 51, 0
1, 98040, Note_on_c, 0, 56, 70
1, 98040, Note_on_c, 0, 41, 57
1, 98080, Tempo, 398671
1, 98159, Note_on_c, 0, 41, 0
1, 98159, Note_on_c, 0, 56, 0
1, 98160, Note_on_c, 0, 63, 70
1, 98160, Note_on_c, 0, 47, 57
1, 98240, Tempo, 397351
1, 98279, Note_on_c, 0, 47, 0
1, 98279, Note_on_c, 0, 63, 0
1, 98280, Note_on_c, 0, 63, 70
1, 98280, Note_on_c, 0, 48, 57
1, 98399, Note_on_c, 0, 48, 0
1, 98399, Note_on_c, 0, 63, 0
1, 98400, Tempo, 396040
1, 98400, Note_on_c, 0, 68, 82
1, 98400, Note_on_c, 0, 56, 70
1, 98519, Note_on_c, 0, 56, 0
1, 98519, Note_on_c, 0, 68, 0
1, 98520, Note_on_c, 0, 75, 72
1, 98520, Note_on_c, 0, 59, 56
1, 98560, Tempo, 394737
1, 98639, Note_on_c, 0, 59, 0
1, 98639, Note_on_c, 0, 75, 0
1, 98640, Note_on_c, 0, 75, 72
1, 98640, Note_on_c, 0, 60, 56
1, 98720, Tempo, 393443
1, 98759, Note_on_c, 0, 60, 0
1, 98759, Note_on_c, 0, 75, 0
1, 98760, Note_on_c, 0, 80, 72
1, 98760, Note_on_c, 0, 65, 56
1, 98840, Tempo, 392157
1, 98879, Note_on_c, 0, 65, 0
1, 98879, Note_on_c, 0, 80, 0
1, 98880, Note_on_c, 0, 87, 94
1, 98880, Note_on_c, 0, 71, 67
1, 98999, Note_on_c, 0, 71, 0
1, 98999, Note_on_c, 0, 87, 0
1, 99000, Note_on_c, 0, 80, 74
1, 99000, Note_on_c, 0, 65, 56
1, 99040, Tempo, 393443
1, 99119, Note_on_c, 0, 65, 0
1, 99119, Note_on_c, 0, 80, 0
1, 99120, Note_on_c, 0, 75, 74
1, 99120, Note_on_c, 0, 60, 56
1, 99239, Note_on_c, 0, 60, 0
1, 99239, Note_on_c, 0, 75, 0
1, 99240, Tempo, 394737
1, 99240, Note_on_c, 0, 75, 74
1, 99240, Note_on_c, 0, 59, 56
1, 99280, Tempo, 393443
1, 99320, Tempo, 396040
1, 99359, Note_on_c, 0, 59, 0
1, 99359, Note_on_c, 0, 75, 0
1, 99360, Tempo, 398671
1, 99360, Note_on_c, 0, 68, 82
1, 99360, Note_on_c, 0, 53, 63
1, 99400, Tempo, 402685
1, 99440, Tempo, 405405
1, 99479, Note_on_c, 0, 53, 0
1, 99479, Note_on_c, 0, 68, 0
1, 99480, Tempo, 409556
1, 99480, Note_on_c, 0, 63, 72
1, 99480, Note_on_c, 0, 48, 50
1, 99520, Tempo, 412371
1, 99560, Tempo, 416667
1, 99599, Note_on_c, 0, 48, 0
1, 99599, Note_on_c, 0, 63, 0
1, 99600, Tempo, 415225
1, 99600, Note_on_c, 0, 63, 72
1, 99600, Note_on_c, 0, 47, 50
1, 99640, Tempo, 433213
1, 99680, Tempo, 452830
1, 99719, Note_on_c, 0, 47, 0
1, 99719, Note_on_c, 0, 63, 0
1, 99720, Tempo, 476190
1, 99720, Note_on_c, 0, 56, 72
1, 99720, Note_on_c, 0, 41, 50
1, 99760, Tempo, 500000
1, 99800, Tempo, 528634
1, 99839, Note_on_c, 0, 41, 0
1, 99839, Note_on_c, 0, 56, 0
1, 99840, Tempo, 398671
1, 99840, Note_on_c, 0, 48, 106
1, 99840, Text_t, "bdca426d104a26ac9dcb070447587523"
1, 99840, Control_c, 0, 91, 127
1, 99840, Note_on_c, 0, 36, 78
1, 99854, Control_c, 0, 64, 0
1, 99880, Tempo, 397351
1, 99904, Control_c, 0, 64, 127
1, 99959, Note_on_c, 0, 36, 0
1, 99959, Note_on_c, 0, 48, 0
1, 99960, Tempo, 396040
1, 99960, Note_on_c, 0, 51, 70
1, 99960, Note_on_c, 0, 43, 57
1, 100000, Tempo, 394737
1, 100079, Note_on_c, 0, 43, 0
1, 100079, Note_on_c, 0, 51, 0
1, 100080, Tempo, 393443
1, 100080, Note_on_c, 0, 60, 70
1, 100080, Note_on_c, 0, 48, 57
1, 100120, Tempo, 392157
1, 100199, Note_on_c, 0, 48, 0
1, 100199, Note_on_c, 0, 60, 0
1, 100200, Tempo, 390879
1, 100200, Note_on_c, 0, 60, 70
1, 100200, Note_on_c, 0, 48, 57
1, 100240, Tempo, 389610
1, 100280, Tempo, 388350
1, 100319, Note_on_c, 0, 48, 0
1, 100319, Note_on_c, 0, 60, 0
1, 100320, Tempo, 393443
1, 100320, Note_on_c, 0, 63, 78
1, 100320, Note_on_c, 0, 55, 66
1, 100439, Note_on_c, 0, 55, 0
1, 100439, Note_on_c, 0, 63, 0
1, 100440, Note_on_c, 0, 72, 85
1, 100440, Note_on_c, 0, 60, 51
1, 100559, Note_on_c, 0, 60, 0
1, 100560, Note_on_c, 0, 63, 66
1, 100560, Note_on_c, 0, 55, 51
1, 100679, Note_on_c, 0, 55, 0
1, 100679, Note_on_c, 0, 63, 0
1, 100680, Note_on_c, 0, 60, 64
1, 100680, Note_on_c, 0, 48, 50
1, 100799, Note_on_c, 0, 48, 0
1, 100799, Note_on_c, 0, 60, 0
1, 100800, Note_on_c, 0, 63, 74
1, 100800, Note_on_c, 0, 55, 61
1, 100815, Control_c, 0, 64, 0
1, 100871, Control_c, 0, 64, 127
1, 100919, Note_on_c, 0, 55, 0
1, 100919, Note_on_c, 0, 63, 0
1, 100920, Note_on_c, 0, 72, 0
1, 100920, Note_on_c, 0, 70, 81
1, 100920, Note_on_c, 0, 60, 49
1, 101039, Note_on_c, 0, 60, 0
1, 101040, Note_on_c, 0, 63, 64
1, 101040, Note_on_c, 0, 55, 49
1, 101159, Note_on_c, 0, 55, 0
1, 101159, Note_on_c, 0, 63, 0
1, 101160, Note_on_c, 0, 60, 64
1, 101160, Note_on_c, 0, 48, 48
1, 101279, Note_on_c, 0, 48, 0
1, 101279, Note_on_c, 0, 60, 0
1, 101280, Note_on_c, 0, 63, 73
1, 101280, Note_on_c, 0, 55, 55
1, 101294, Control_c, 0, 64, 0
1, 101322, Control_c, 0, 64, 127
1, 101399, Note_on_c, 0, 55, 0
1, 101399, Note_on_c, 0, 63, 0
1, 101400, Note_on_c, 0, 70, 0
1, 101400, Note_on_c, 0, 68, 77
1, 101400, Note_on_c, 0, 60, 41
1, 101519, Note_on_c, 0, 60, 0
1, 101520, Note_on_c, 0, 63, 60
1, 101520, Note_on_c, 0, 55, 41
1, 101639, Note_on_c, 0, 55, 0
1, 101639, Note_on_c, 0, 63, 0
1, 101640, Note_on_c, 0, 60, 60
1, 101640, Note_on_c, 0, 48, 41
1, 101720, Tempo, 389610
1, 101759, Note_on_c, 0, 48, 0
1, 101759, Note_on_c, 0, 60, 0
1, 101760, Note_on_c, 0, 62, 69
1, 101760, Note_on_c, 0, 55, 58
1, 101762, Control_c, 0, 64, 0
1, 101800, Tempo, 390879
1, 101817, Control_c, 0, 64, 127
1, 101879, Note_on_c, 0, 55, 0
1, 101879, Note_on_c, 0, 62, 0
1, 101880, Tempo, 392157
1, 101880, Note_on_c, 0, 68, 0
1, 101880, Note_on_c, 0, 67, 75
1, 101880, Note_on_c, 0, 59, 47
1, 101960, Tempo, 393443
1, 101999, Note_on_c, 0, 59, 0
1, 102000, Note_on_c, 0, 62, 58
1, 102000, Note_on_c, 0, 55, 46
1, 102040, Tempo, 394737
1, 102119, Note_on_c, 0, 55, 0
1, 102119, Note_on_c, 0, 62, 0
1, 102120, Tempo, 396040
1, 102120, Note_on_c, 0, 59, 58
1, 102120, Note_on_c, 0, 48, 46
1, 102160, Tempo, 397351
1, 102239, Note_on_c, 0, 48, 0
1, 102239, Note_on_c, 0, 59, 0
1, 102240, Tempo, 398671
1, 102240, Note_on_c, 0, 61, 66
1, 102240, Note_on_c, 0, 55, 53
1, 102251, Control_c, 0, 64, 0
1, 102291, Control_c, 0, 64, 127
1, 102320, Tempo, 400000
1, 102359, Note_on_c, 0, 55, 0
1, 102359, Note_on_c, 0, 61, 0
1, 102360, Note_on_c, 0, 67, 0
1, 102360, Note_on_c, 0, 67, 73
1, 102360, Note_on_c, 0, 58, 44
1, 102400, Tempo, 401338
1, 102479, Note_on_c, 0, 58, 0
1, 102480, Tempo, 402685
1, 102480, Note_on_c, 0, 61, 58
1, 102480, Note_on_c, 0, 55, 44
1, 102520, Tempo, 404040
1, 102599, Note_on_c, 0, 55, 0
1, 102599, Note_on_c, 0, 61, 0
1, 102600, Tempo, 405405
1, 102600, Note_on_c, 0, 58, 56
1, 102600, Note_on_c, 0, 48, 41
1, 102680, Tempo, 406780
1, 102719, Note_on_c, 0, 48, 0
1, 102719, Note_on_c, 0, 58, 0
1, 102720, Note_on_c, 0, 60, 63
1, 102720, Note_on_c, 0, 53, 49
1, 102730, Control_c, 0, 64, 0
1, 102760, Tempo, 408163
1, 102776, Control_c, 0, 64, 127
1, 102839, Note_on_c, 0, 53, 0
1, 102839, Note_on_c, 0, 60, 0
1, 102840, Tempo, 409556
1, 102840, Note_on_c, 0, 67, 0
1, 102840, Note_on_c, 0, 65, 70
1, 102840, Note_on_c, 0, 57, 37
1, 102880, Tempo, 410959
1, 102959, Note_on_c, 0, 57, 0
1, 102960, Tempo, 412371
1, 102960, Note_on_c, 0, 60, 55
1, 102960, Note_on_c, 0, 53, 37
1, 103040, Tempo, 413793
1, 103079, Note_on_c, 0, 53, 0
1, 103079, Note_on_c, 0, 60, 0
1, 103080, Note_on_c, 0, 57, 53
1, 103080, Note_on_c, 0, 48, 37
1, 103120, Tempo, 415225
1, 103199, Note_on_c, 0, 48, 0
1, 103199, Note_on_c, 0, 57, 0
1, 103200, Tempo, 416667
1, 103200, Note_on_c, 0, 59, 59
1, 103200, Note_on_c, 0, 53, 48
1, 103209, Control_c, 0, 64, 0
1, 103240, Tempo, 415225
1, 103256, Control_c, 0, 64, 127
1, 103280, Tempo, 425532
1, 103319, Note_on_c, 0, 53, 0
1, 103319, Note_on_c, 0, 59, 0
1, 103320, Tempo, 436364
1, 103320, Note_on_c, 0, 65, 0
1, 103320, Note_on_c, 0, 65, 66
1, 103320, Note_on_c, 0, 56, 36
1, 103360, Tempo, 447761
1, 103400, Tempo, 459770
1, 103439, Note_on_c, 0, 56, 0
1, 103440, Tempo, 472441
1, 103440, Note_on_c, 0, 59, 52
1, 103440, Note_on_c, 0, 53, 36
1, 103480, Tempo, 485830
1, 103520, Tempo, 500000
1, 103559, Note_on_c, 0, 53, 0
1, 103559, Note_on_c, 0, 59, 0
1, 103560, Tempo, 515021
1, 103560, Note_on_c, 0, 56, 50
1, 103560, Note_on_c, 0, 48, 35
1, 103600, Tempo, 530973
1, 103640, Tempo, 550459
1, 103679, Note_on_c, 0, 48, 0
1, 103679, Note_on_c, 0, 56, 0
1, 103680, Tempo, 433213
1, 103680, Note_on_c, 0, 65, 0
1, 103680, Note_on_c, 0, 51, 84
1, 103680, Text_t, "bdca426d104a26ac9dcb070447587523"
1, 103680, Control_c, 0, 91, 127
1, 103680, Note_on_c, 0, 36, 62
1, 103700, Control_c, 0, 64, 0
1, 103720, Tempo, 430108
1, 103747, Control_c, 0, 64, 127
1, 103760, Tempo, 427046
1, 103799, Note_on_c, 0, 36, 0
1, 103799, Note_on_c, 0, 51, 0
1, 103800, Tempo, 422535
1, 103800, Note_on_c, 0, 55, 52
1, 103800, Note_on_c, 0, 43, 42
1, 103840, Tempo, 419580
1, 103880, Tempo, 416667
1, 103919, Note_on_c, 0, 43, 0
1, 103919, Note_on_c, 0, 55, 0
1, 103920, Tempo, 412371
1, 103920, Note_on_c, 0, 63, 52
1, 103920, Note_on_c, 0, 48, 42
1, 103960, Tempo, 409556
1, 104000, Tempo, 405405
1, 104039, Note_on_c, 0, 48, 0
1, 104039, Note_on_c, 0, 63, 0
1, 104040, Tempo, 402685
1, 104040, Note_on_c, 0, 63, 53
1, 104040, Note_on_c, 0, 48, 42
1, 104080, Tempo, 400000
1, 104120, Tempo, 396040
1, 104159, Note_on_c, 0, 48, 0
1, 104159, Note_on_c, 0, 63, 0
1, 104160, Tempo, 393443
1, 104160, Note_on_c, 0, 67, 63
1, 104160, Note_on_c, 0, 55, 53
1, 104200, Tempo, 389610
1, 104279, Note_on_c, 0, 55, 0
1, 104279, Note_on_c, 0, 67, 0
1, 104280, Tempo, 390879
1, 104280, Note_on_c, 0, 75, 56
1, 104280, Note_on_c, 0, 60, 45
1, 104360, Tempo, 389610
1, 104399, Note_on_c, 0, 60, 0
1, 104399, Note_on_c, 0, 75, 0
1, 104400, Note_on_c, 0, 75, 55
1, 104400, Note_on_c, 0, 60, 44
1, 104440, Tempo, 388350
1, 104519, Note_on_c, 0, 60, 0
1, 104519, Note_on_c, 0, 75, 0
1, 104520, Tempo, 387097
1, 104520, Note_on_c, 0, 79, 55
1, 104520, Note_on_c, 0, 67, 44
1, 104600, Tempo, 385852
1, 104639, Note_on_c, 0, 67, 0
1, 104639, Note_on_c, 0, 79, 0
1, 104640, Tempo, 384615
1, 104640, Note_on_c, 0, 87, 79
1, 104640, Note_on_c, 0, 72, 52
1, 104720, Tempo, 385852
1, 104759, Note_on_c, 0, 72, 0
1, 104759, Note_on_c, 0, 87, 0
1, 104760, Note_on_c, 0, 79, 58
1, 104760, Note_on_c, 0, 67, 44
1, 104800, Tempo, 387097
1, 104879, Note_on_c, 0, 67, 0
1, 104879, Note_on_c, 0, 79, 0
1, 104880, Tempo, 388350
1, 104880, Note_on_c, 0, 75, 59
1, 104880, Note_on_c, 0, 60, 45
1, 104960, Tempo, 389610
1, 104999, Note_on_c, 0, 60, 0
1, 104999, Note_on_c, 0, 75, 0
1, 105000, Note_on_c, 0, 75, 59
1, 105000, Note_on_c, 0, 60, 45
1, 105040, Tempo, 390879
1, 105119, Note_on_c, 0, 60, 0
1, 105119, Note_on_c, 0, 75, 0
1, 105120, Tempo, 393443
1, 105120, Note_on_c, 0, 67, 67
1, 105120, Note_on_c, 0, 55, 51
1, 105160, Tempo, 397351
1, 105200, Tempo, 402685
1, 105239, Note_on_c, 0, 55, 0
1, 105239, Note_on_c, 0, 67, 0
1, 105240, Tempo, 406780
1, 105240, Note_on_c, 0, 63, 56
1, 105240, Note_on_c, 0, 48, 44
1, 105280, Tempo, 412371
1, 105320, Tempo, 418118
1, 105359, Note_on_c, 0, 48, 0
1, 105359, Note_on_c, 0, 63, 0
1, 105360, Tempo, 422535
1, 105360, Note_on_c, 0, 63, 56
1, 105360, Note_on_c, 0, 48, 44
1, 105400, Tempo, 428571
1, 105440, Tempo, 434783
1, 105479, Note_on_c, 0, 48, 0
1, 105479, Note_on_c, 0, 63, 0
1, 105480, Tempo, 439560
1, 105480, Note_on_c, 0, 55, 57
1, 105480, Note_on_c, 0, 43, 45
1, 105520, Tempo, 446097
1, 105560, Tempo, 402685
1, 105599, Note_on_c, 0, 43, 0
1, 105599, Note_on_c, 0, 55, 0
1, 105600, Note_on_c, 0, 50, 92
1, 105600, Text_t, "bdca426d104a26ac9dcb070447587523"
1, 105600, Control_c, 0, 91, 127
1, 105600, Note_on_c, 0, 36, 61
1, 105624, Control_c, 0, 64, 0
1, 105640, Tempo, 412371
1, 105666, Control_c, 0, 64, 127
1, 105680, Tempo, 410959
1, 105719, Note_on_c, 0, 36, 0
1, 105719, Note_on_c, 0, 50, 0
1, 105720, Tempo, 409556
1, 105720, Note_on_c, 0, 56, 55
1, 105720, Note_on_c, 0, 41, 47
1, 105760, Tempo, 406780
1, 105800, Tempo, 405405
1, 105839, Note_on_c, 0, 41, 0
1, 105839, Note_on_c, 0, 56, 0
1, 105840, Tempo, 404040
1, 105840, Note_on_c, 0, 62, 55
1, 105840, Note_on_c, 0, 48, 42
1, 105880, Tempo, 401338
1, 105920, Tempo, 400000
1, 105959, Note_on_c, 0, 48, 0
1, 105959, Note_on_c, 0, 62, 0
1, 105960, Tempo, 398671
1, 105960, Note_on_c, 0, 62, 55
1, 105960, Note_on_c, 0, 48, 42
1, 106000, Tempo, 396040
1, 106079, Note_on_c, 0, 48, 0
1, 106079, Note_on_c, 0, 62, 0
1, 106080, Tempo, 394737
1, 106080, Note_on_c, 0, 68, 69
1, 106080, Note_on_c, 0, 53, 58
1, 106160, Tempo, 393443
1, 106199, Note_on_c, 0, 53, 0
1, 106199, Note_on_c, 0, 68, 0
1, 106200, Note_on_c, 0, 74, 56
1, 106200, Note_on_c, 0, 60, 42
1, 106240, Tempo, 392157
1, 106319, Note_on_c, 0, 60, 0
1, 106319, Note_on_c, 0, 74, 0
1, 106320, Tempo, 390879
1, 106320, Note_on_c, 0, 74, 56
1, 106320, Note_on_c, 0, 60, 44
1, 106400, Tempo, 389610
1, 106439, Note_on_c, 0, 60, 0
1, 106439, Note_on_c, 0, 74, 0
1, 106440, Note_on_c, 0, 80, 56
1, 106440, Note_on_c, 0, 65, 44
1, 106480, Tempo, 388350
1, 106559, Note_on_c, 0, 65, 0
1, 106559, Note_on_c, 0, 80, 0
1, 106560, Tempo, 387097
1, 106560, Note_on_c, 0, 86, 79
1, 106560, Note_on_c, 0, 72, 59
1, 106679, Note_on_c, 0, 72, 0
1, 106679, Note_on_c, 0, 86, 0
1, 106680, Tempo, 388350
1, 106680, Note_on_c, 0, 80, 61
1, 106680, Note_on_c, 0, 65, 48
1, 106760, Tempo, 389610
1, 106799, Note_on_c, 0, 65, 0
1, 106799, Note_on_c, 0, 80, 0
1, 106800, Note_on_c, 0, 74, 59
1, 106800, Note_on_c, 0, 60, 48
1, 106840, Tempo, 390879
1, 106919, Note_on_c, 0, 60, 0
1, 106919, Note_on_c, 0, 74, 0
1, 106920, Tempo, 392157
1, 106920, Note_on_c, 0, 74, 60
1, 106920, Note_on_c, 0, 60, 48
1, 107000, Tempo, 393443
1, 107039, Note_on_c, 0, 60, 0
1, 107039, Note_on_c, 0, 74, 0
1, 107040, Tempo, 396040
1, 107040, Note_on_c, 0, 68, 68
1, 107040, Note_on_c, 0, 53, 55
1, 107080, Tempo, 400000
1, 107120, Tempo, 402685
1, 107159, Note_on_c, 0, 53, 0
1, 107159, Note_on_c, 0, 68, 0
1, 107160, Tempo, 406780
1, 107160, Note_on_c, 0, 62, 60
1, 107160, Note_on_c, 0, 48, 45
1, 107200, Tempo, 409556
1, 107240, Tempo, 413793
1, 107279, Note_on_c, 0, 48, 0
1, 107279, Note_on_c, 0, 62, 0
1, 107280, Tempo, 418118
1, 107280, Note_on_c, 0, 62, 60
1, 107280, Note_on_c, 0, 48, 45
1, 107320, Tempo, 421053
1, 107360, Tempo, 425532
1, 107399, Note_on_c, 0, 48, 0
1, 107399, Note_on_c, 0, 62, 0
1, 107400, Tempo, 428571
1, 107400, Note_on_c, 0, 56, 59
1, 107400, Note_on_c, 0, 41, 45
1, 107440, Tempo, 433213
1, 107480, Tempo, 437956
1, 107519, Note_on_c, 0, 41, 0
1, 107519, Note_on_c, 0, 56, 0
1, 107520, Tempo, 418118
1, 107520, Note_on_c, 0, 52, 100
1, 107520, Text_t, "bdca426d104a26ac9dcb070447587523"
1, 107520, Control_c, 0, 91, 127
1, 107520, Note_on_c, 0, 36, 67
1, 107528, Tempo, 416667
1, 107536, Tempo, 415225
1, 107543, Control_c, 0, 64, 0
1, 107544, Tempo, 413793
1, 107552, Tempo, 412371
1, 107560, Tempo, 412371
1, 107577, Control_c, 0, 64, 127
1, 107600, Tempo, 410959
1, 107639, Note_on_c, 0, 36, 0
1, 107639, Note_on_c, 0, 52, 0
1, 107640, Tempo, 409556
1, 107640, Note_on_c, 0, 58, 58
1, 107640, Note_on_c, 0, 43, 50
1, 107680, Tempo, 406780
1, 107720, Tempo, 405405
1, 107759, Note_on_c, 0, 43, 0
1, 107759, Note_on_c, 0, 58, 0
1, 107760, Tempo, 404040
1, 107760, Note_on_c, 0, 64, 59
1, 107760, Note_on_c, 0, 48, 46
1, 107800, Tempo, 401338
1, 107840, Tempo, 400000
1, 107879, Note_on_c, 0, 48, 0
1, 107879, Note_on_c, 0, 64, 0
1, 107880, Tempo, 398671
1, 107880, Note_on_c, 0, 64, 59
1, 107880, Note_on_c, 0, 48, 46
1, 107920, Tempo, 396040
1, 107999, Note_on_c, 0, 48, 0
1, 107999, Note_on_c, 0, 64, 0
1, 108000, Tempo, 394737
1, 108000, Note_on_c, 0, 70, 74
1, 108000, Note_on_c, 0, 55, 62
1, 108080, Tempo, 393443
1, 108119, Note_on_c, 0, 55, 0
1, 108119, Note_on_c, 0, 70, 0
1, 108120, Note_on_c, 0, 76, 61
1, 108120, Note_on_c, 0, 60, 46
1, 108160, Tempo, 392157
1, 108239, Note_on_c, 0, 60, 0
1, 108239, Note_on_c, 0, 76, 0
1, 108240, Tempo, 390879
1, 108240, Note_on_c, 0, 76, 60
1, 108240, Note_on_c, 0, 60, 46
1, 108320, Tempo, 389610
1, 108359, Note_on_c, 0, 60, 0
1, 108359, Note_on_c, 0, 76, 0
1, 108360, Note_on_c, 0, 82, 60
1, 108360, Note_on_c, 0, 67, 47
1, 108400, Tempo, 388350
1, 108479, Note_on_c, 0, 67, 0
1, 108479, Note_on_c, 0, 82, 0
1, 108480, Tempo, 387097
1, 108480, Note_on_c, 0, 88, 84
1, 108480, Note_on_c, 0, 72, 62
1, 108599, Note_on_c, 0, 72, 0
1, 108599, Note_on_c, 0, 88, 0
1, 108600, Tempo, 388350
1, 108600, Note_on_c, 0, 82, 67
1, 108600, Note_on_c, 0, 67, 49
1, 108680, Tempo, 389610
1, 108719, Note_on_c, 0, 67, 0
1, 108719, Note_on_c, 0, 82, 0
1, 108720, Note_on_c, 0, 76, 64
1, 108720, Note_on_c, 0, 60, 49
1, 108760, Tempo, 390879
1, 108839, Note_on_c, 0, 60, 0
1, 108839, Note_on_c, 0, 76, 0
1, 108840, Tempo, 392157
1, 108840, Note_on_c, 0, 76, 64
1, 108840, Note_on_c, 0, 60, 49
1, 108920, Tempo, 393443
1, 108959, Note_on_c, 0, 60, 0
1, 108959, Note_on_c, 0, 76, 0
1, 108960, Tempo, 396040
1, 108960, Note_on_c, 0, 70, 73
1, 108960, Note_on_c, 0, 55, 59
1, 109000, Tempo, 400000
1, 109040, Tempo, 402685
1, 109079, Note_on_c, 0, 55, 0
1, 109079, Note_on_c, 0, 70, 0
1, 109080, Tempo, 406780
1, 109080, Note_on_c, 0, 64, 63
1, 109080, Note_on_c, 0, 48, 48
1, 109120, Tempo, 409556
1, 109160, Tempo, 413793
1, 109199, Note_on_c, 0, 48, 0
1, 109199, Note_on_c, 0, 64, 0
1, 109200, Tempo, 418118
1, 109200, Note_on_c, 0, 64, 64
1, 109200, Note_on_c, 0, 48, 48
1, 109240, Tempo, 421053
1, 109280, Tempo, 425532
1, 109319, Note_on_c, 0, 48, 0
1, 109319, Note_on_c, 0, 64, 0
1, 109320, Tempo, 428571
1, 109320, Note_on_c, 0, 59, 63
1, 109320, Note_on_c, 0, 43, 48
1, 109360, Tempo, 433213
1, 109400, Tempo, 437956
1, 109440, Tempo, 418118
1, 109440, Note_on_c, 0, 53, 102
1, 109440, Text_t, "bdca426d104a26ac9dcb070447587523"
1, 109440, Control_c, 0, 91, 127
1, 109440, Note_on_c, 0, 37, 68
1, 109456, Tempo, 416667
1, 109466, Control_c, 0, 64, 0
1, 109472, Tempo, 415225
1, 109486, Control_c, 0, 64, 127
1, 109488, Tempo, 413793
1, 109520, Tempo, 410959
1, 109559, Note_on_c, 0, 37, 0
1, 109559, Note_on_c, 0, 53, 0
1, 109560, Tempo, 409556
1, 109560, Note_on_c, 0, 43, 0
1, 109560, Note_on_c, 0, 59, 0
1, 109560, Note_on_c, 0, 56, 60
1, 109560, Note_on_c, 0, 44, 51
1, 109600, Tempo, 406780
1, 109640, Tempo, 405405
1, 109679, Note_on_c, 0, 44, 0
1, 109679, Note_on_c, 0, 56, 0
1, 109680, Tempo, 404040
1, 109680, Note_on_c, 0, 65, 60
1, 109680, Note_on_c, 0, 49, 46
1, 109720, Tempo, 401338
1, 109799, Note_on_c, 0, 49, 0
1, 109799, Note_on_c, 0, 65, 0
1, 109800, Note_on_c, 0, 65, 60
1, 109800, Note_on_c, 0, 49, 46
1, 109840, Tempo, 400000
1, 109919, Note_on_c, 0, 49, 0
1, 109919, Note_on_c, 0, 65, 0
1, 109920, Tempo, 398671
1, 109920, Note_on_c, 0, 68, 74
1, 109920, Note_on_c, 0, 56, 62
1, 110000, Tempo, 397351
1, 110039, Note_on_c, 0, 56, 0
1, 110039, Note_on_c, 0, 68, 0
1, 110040, Note_on_c, 0, 77, 61
1, 110040, Note_on_c, 0, 61, 46
1, 110080, Tempo, 396040
1, 110159, Note_on_c, 0, 61, 0
1, 110159, Note_on_c, 0, 77, 0
1, 110160, Tempo, 394737
1, 110160, Note_on_c, 0, 77, 60
1, 110160, Note_on_c, 0, 61, 46
1, 110240, Tempo, 393443
1, 110279, Note_on_c, 0, 61, 0
1, 110279, Note_on_c, 0, 77, 0
1, 110280, Note_on_c, 0, 80, 60
1, 110280, Note_on_c, 0, 68, 46
1, 110320, Tempo, 392157
1, 110399, Note_on_c, 0, 68, 0
1, 110399, Note_on_c, 0, 80, 0
1, 110400, Tempo, 390879
1, 110400, Note_on_c, 0, 89, 83
1, 110400, Note_on_c, 0, 73, 62
1, 110519, Note_on_c, 0, 73, 0
1, 110519, Note_on_c, 0, 89, 0
1, 110520, Note_on_c, 0, 80, 64
1, 110520, Note_on_c, 0, 68, 48
1, 110600, Tempo, 392157
1, 110639, Note_on_c, 0, 68, 0
1, 110639, Note_on_c, 0, 80, 0
1, 110640, Note_on_c, 0, 77, 62
1, 110640, Note_on_c, 0, 61, 48
1, 110759, Note_on_c, 0, 61, 0
1, 110759, Note_on_c, 0, 77, 0
1, 110760, Tempo, 393443
1, 110760, Note_on_c, 0, 77, 62
1, 110760, Note_on_c, 0, 61, 48
1, 110879, Note_on_c, 0, 61, 0
1, 110879, Note_on_c, 0, 77, 0
1, 110880, Note_on_c, 0, 68, 71
1, 110880, Note_on_c, 0, 56, 58
1, 110920, Tempo, 394737
1, 110960, Tempo, 402685
1, 110999, Note_on_c, 0, 56, 0
1, 110999, Note_on_c, 0, 68, 0
1, 111000, Tempo, 406780
1, 111000, Note_on_c, 0, 65, 62
1, 111000, Note_on_c, 0, 49, 46
1, 111040, Tempo, 409556
1, 111080, Tempo, 413793
1, 111119, Note_on_c, 0, 49, 0
1, 111119, Note_on_c, 0, 65, 0
1, 111120, Tempo, 418118
1, 111120, Note_on_c, 0, 65, 62
1, 111120, Note_on_c, 0, 49, 46
1, 111160, Tempo, 421053
1, 111200, Tempo, 425532
1, 111239, Note_on_c, 0, 49, 0
1, 111239, Note_on_c, 0, 65, 0
1, 111240, Tempo, 428571
1, 111240, Note_on_c, 0, 56, 61
1, 111240, Note_on_c, 0, 44, 46
1, 111280, Tempo, 433213
1, 111320, Tempo, 437956
1, 111359, Note_on_c, 0, 44, 0
1, 111359, Note_on_c, 0, 56, 0
1, 111360, Tempo, 416667
1, 111360, Note_on_c, 0, 53, 97
1, 111360, Text_t, "bdca426d104a26ac9dcb070447587523"
1, 111360, Control_c, 0, 91, 127
1, 111360, Note_on_c, 0, 37, 66
1, 111368, Tempo, 415225
1, 111376, Tempo, 413793
1, 111382, Control_c, 0, 64, 0
1, 111384, Tempo, 412371
1, 111400, Tempo, 412371
1, 111429, Control_c, 0, 64, 127
1, 111440, Tempo, 410959
1, 111479, Note_on_c, 0, 37, 0
1, 111479, Note_on_c, 0, 53, 0
1, 111480, Tempo, 409556
1, 111480, Note_on_c, 0, 56, 58
1, 111480, Note_on_c, 0, 44, 49
1, 111520, Tempo, 406780
1, 111560, Tempo, 405405
1, 111599, Note_on_c, 0, 44, 0
1, 111599, Note_on_c, 0, 56, 0
1, 111600, Tempo, 404040
1, 111600, Note_on_c, 0, 65, 58
1, 111600, Note_on_c, 0, 49, 44
1, 111640, Tempo, 401338
1, 111680, Tempo, 400000
1, 111719, Note_on_c, 0, 49, 0
1, 111719, Note_on_c, 0, 65, 0
1, 111720, Tempo, 398671
1, 111720, Note_on_c, 0, 65, 58
1, 111720, Note_on_c, 0, 49, 44
1, 111760, Tempo, 396040
1, 111839, Note_on_c, 0, 49, 0
1, 111839, Note_on_c, 0, 65, 0
1, 111840, Tempo, 394737
1, 111840, Note_on_c, 0, 68, 71
1, 111840, Note_on_c, 0, 56, 61
1, 111920, Tempo, 393443
1, 111959, Note_on_c, 0, 56, 0
1, 111959, Note_on_c, 0, 68, 0
1, 111960, Note_on_c, 0, 77, 59
1, 111960, Note_on_c, 0, 61, 44
1, 112000, Tempo, 392157
1, 112079, Note_on_c, 0, 61, 0
1, 112079, Note_on_c, 0, 77, 0
1, 112080, Tempo, 390879
1, 112080, Note_on_c, 0, 77, 58
1, 112080, Note_on_c, 0, 61, 44
1, 112160, Tempo, 389610
1, 112199, Note_on_c, 0, 61, 0
1, 112199, Note_on_c, 0, 77, 0
1, 112200, Note_on_c, 0, 80, 58
1, 112200, Note_on_c, 0, 68, 44
1, 112240, Tempo, 388350
1, 112319, Note_on_c, 0, 68, 0
1, 112319, Note_on_c, 0, 80, 0
1, 112320, Tempo, 387097
1, 112320, Note_on_c, 0, 89, 81
1, 112320, Note_on_c, 0, 73, 60
1, 112439, Note_on_c, 0, 73, 0
1, 112439, Note_on_c, 0, 89, 0
1, 112440, Tempo, 388350
1, 112440, Note_on_c, 0, 80, 63
1, 112440, Note_on_c, 0, 68, 44
1, 112520, Tempo, 389610
1, 112559, Note_on_c, 0, 68, 0
1, 112559, Note_on_c, 0, 80, 0
1, 112560, Note_on_c, 0, 77, 62
1, 112560, Note_on_c, 0, 61, 44
1, 112600, Tempo, 390879
1, 112679, Note_on_c, 0, 61, 0
1, 112679, Note_on_c, 0, 77, 0
1, 112680, Tempo, 392157
1, 112680, Note_on_c, 0, 77, 62
1, 112680, Note_on_c, 0, 61, 44
1, 112760, Tempo, 393443
1, 112799, Note_on_c, 0, 61, 0
1, 112799, Note_on_c, 0, 77, 0
1, 112800, Tempo, 396040
1, 112800, Note_on_c, 0, 68, 69
1, 112800, Note_on_c, 0, 56, 56
1, 112840, Tempo, 400000
1, 112880, Tempo, 402685
1, 112919, Note_on_c, 0, 56, 0
1, 112919, Note_on_c, 0, 68, 0
1, 112920, Tempo, 406780
1, 112920, Note_on_c, 0, 65, 60
1, 112920, Note_on_c, 0, 49, 44
1, 112960, Tempo, 409556
1, 113000, Tempo, 413793
1, 113039, Note_on_c, 0, 49, 0
1, 113039, Note_on_c, 0, 65, 0
1, 113040, Tempo, 418118
1, 113040, Note_on_c, 0, 65, 60
1, 113040, Note_on_c, 0, 49, 44
1, 113080, Tempo, 421053
1, 113120, Tempo, 425532
1, 113159, Note_on_c, 0, 49, 0
1, 113159, Note_on_c, 0, 65, 0
1, 113160, Tempo, 428571
1, 113160, Note_on_c, 0, 56, 59
1, 113160, Note_on_c, 0, 44, 44
1, 113200, Tempo, 433213
1, 113240, Tempo, 437956
1, 113278, Tempo, 418118
1, 113279, Note_on_c, 0, 44, 0
1, 113279, Note_on_c, 0, 56, 0
1, 113280, Note_on_c, 0, 52, 101
1, 113280, Text_t, "bdca426d104a26ac9dcb070447587523"
1, 113280, Control_c, 0, 91, 127
1, 113280, Note_on_c, 0, 37, 67
1, 113294, Tempo, 416667
1, 113301, Control_c, 0, 64, 0
1, 113310, Tempo, 415225
1, 113318, Tempo, 413793
1, 113320, Tempo, 412371
1, 113331, Control_c, 0, 64, 127
1, 113360, Tempo, 410959
1, 113399, Note_on_c, 0, 37, 0
1, 113399, Note_on_c, 0, 52, 0
1, 113400, Tempo, 409556
1, 113400, Note_on_c, 0, 58, 59
1, 113400, Note_on_c, 0, 43, 50
1, 113440, Tempo, 406780
1, 113480, Tempo, 405405
1, 113519, Note_on_c, 0, 43, 0
1, 113519, Note_on_c, 0, 58, 0
1, 113520, Tempo, 404040
1, 113520, Note_on_c, 0, 64, 59
1, 113520, Note_on_c, 0, 49, 46
1, 113560, Tempo, 401338
1, 113600, Tempo, 400000
1, 113639, Note_on_c, 0, 49, 0
1, 113639, Note_on_c, 0, 64, 0
1, 113640, Tempo, 398671
1, 113640, Note_on_c, 0, 64, 59
1, 113640, Note_on_c, 0, 49, 46
1, 113680, Tempo, 396040
1, 113759, Note_on_c, 0, 49, 0
1, 113759, Note_on_c, 0, 64, 0
1, 113760, Tempo, 394737
1, 113760, Note_on_c, 0, 70, 74
1, 113760, Note_on_c, 0, 55, 62
1, 113840, Tempo, 393443
1, 113879, Note_on_c, 0, 55, 0
1, 113879, Note_on_c, 0, 70, 0
1, 113880, Note_on_c, 0, 76, 60
1, 113880, Note_on_c, 0, 61, 46
1, 113920, Tempo, 392157
1, 113999, Note_on_c, 0, 61, 0
1, 113999, Note_on_c, 0, 76, 0
1, 114000, Tempo, 390879
1, 114000, Note_on_c, 0, 76, 59
1, 114000, Note_on_c, 0, 61, 46
1, 114080, Tempo, 389610
1, 114119, Note_on_c, 0, 61, 0
1, 114119, Note_on_c, 0, 76, 0
1, 114120, Note_on_c, 0, 82, 59
1, 114120, Note_on_c, 0, 67, 46
1, 114160, Tempo, 388350
1, 114239, Note_on_c, 0, 67, 0
1, 114239, Note_on_c, 0, 82, 0
1, 114240, Tempo, 387097
1, 114240, Note_on_c, 0, 88, 85
1, 114240, Note_on_c, 0, 73, 61
1, 114359, Note_on_c, 0, 73, 0
1, 114359, Note_on_c, 0, 88, 0
1, 114360, Tempo, 388350
1, 114360, Note_on_c, 0, 82, 64
1, 114360, Note_on_c, 0, 67, 48
1, 114440, Tempo, 389610
1, 114479, Note_on_c, 0, 67, 0
1, 114479, Note_on_c, 0, 82, 0
1, 114480, Note_on_c, 0, 76, 63
1, 114480, Note_on_c, 0, 61, 48
1, 114520, Tempo, 390879
1, 114599, Note_on_c, 0, 61, 0
1, 114599, Note_on_c, 0, 76, 0
1, 114600, Tempo, 392157
1, 114600, Note_on_c, 0, 76, 63
1, 114600, Note_on_c, 0, 61, 47
1, 114680, Tempo, 393443
1, 114719, Note_on_c, 0, 61, 0
1, 114719, Note_on_c, 0, 76, 0
1, 114720, Tempo, 396040
1, 114720, Note_on_c, 0, 70, 71
1, 114720, Note_on_c, 0, 55, 58
1, 114760, Tempo, 400000
1, 114800, Tempo, 402685
1, 114839, Note_on_c, 0, 55, 0
1, 114839, Note_on_c, 0, 70, 0
1, 114840, Tempo, 406780
1, 114840, Note_on_c, 0, 64, 61
1, 114840, Note_on_c, 0, 49, 46
1, 114880, Tempo, 409556
1, 114920, Tempo, 413793
1, 114959, Note_on_c, 0, 49, 0
1, 114959, Note_on_c, 0, 64, 0
1, 114960, Tempo, 418118
1, 114960, Note_on_c, 0, 64, 61
1, 114960, Note_on_c, 0, 49, 46
1, 115000, Tempo, 421053
1, 115040, Tempo, 425532
1, 115079, Note_on_c, 0, 49, 0
1, 115079, Note_on_c, 0, 64, 0
1, 115080, Tempo, 428571
1, 115080, Note_on_c, 0, 58, 60
1, 115080, Note_on_c, 0, 43, 46
1, 115120, Tempo, 433213
1, 115160, Tempo, 437956
1, 115190, Tempo, 416667
1, 115199, Note_on_c, 0, 43, 0
1, 115199, Note_on_c, 0, 58, 0
1, 115200, Note_on_c, 0, 53, 103
1, 115200, Text_t, "bdca426d104a26ac9dcb070447587523"
1, 115200, Control_c, 0, 91, 127
1, 115200, Note_on_c, 0, 37, 69
1, 115220, Control_c, 0, 64, 0
1, 115238, Tempo, 415225
1, 115240, Tempo, 412371
1, 115266, Control_c, 0, 64, 127
1, 115280, Tempo, 410959
1, 115319, Note_on_c, 0, 37, 0
1, 115319, Note_on_c, 0, 53, 0
1, 115320, Tempo, 409556
1, 115320, Note_on_c, 0, 59, 61
1, 115320, Note_on_c, 0, 44, 51
1, 115360, Tempo, 406780
1, 115400, Tempo, 405405
1, 115439, Note_on_c, 0, 44, 0
1, 115439, Note_on_c, 0, 59, 0
1, 115440, Tempo, 404040
1, 115440, Note_on_c, 0, 65, 61
1, 115440, Note_on_c, 0, 49, 47
1, 115480, Tempo, 400000
1, 115559, Note_on_c, 0, 49, 0
1, 115559, Note_on_c, 0, 65, 0
1, 115560, Tempo, 398671
1, 115560, Note_on_c, 0, 65, 61
1, 115560, Note_on_c, 0, 49, 47
1, 115600, Tempo, 397351
1, 115640, Tempo, 396040
1, 115679, Note_on_c, 0, 49, 0
1, 115679, Note_on_c, 0, 65, 0
1, 115680, Note_on_c, 0, 71, 75
1, 115680, Note_on_c, 0, 56, 66
1, 115720, Tempo, 394737
1, 115760, Tempo, 393443
1, 115799, Note_on_c, 0, 56, 0
1, 115799, Note_on_c, 0, 71, 0
1, 115800, Tempo, 392157
1, 115800, Note_on_c, 0, 77, 62
1, 115800, Note_on_c, 0, 61, 47
1, 115880, Tempo, 390879
1, 115919, Note_on_c, 0, 61, 0
1, 115919, Note_on_c, 0, 77, 0
1, 115920, Tempo, 389610
1, 115920, Note_on_c, 0, 77, 61
1, 115920, Note_on_c, 0, 61, 47
1, 115960, Tempo, 388350
1, 116039, Note_on_c, 0, 61, 0
1, 116039, Note_on_c, 0, 77, 0
1, 116040, Tempo, 387097
1, 116040, Note_on_c, 0, 83, 61
1, 116040, Note_on_c, 0, 68, 47
1, 116080, Tempo, 385852
1, 116120, Tempo, 384615
1, 116159, Note_on_c, 0, 68, 0
1, 116159, Note_on_c, 0, 83, 0
1, 116160, Note_on_c, 0, 89, 86
1, 116160, Note_on_c, 0, 73, 64
1, 116200, Tempo, 385852
1, 116240, Tempo, 387097
1, 116279, Note_on_c, 0, 73, 0
1, 116279, Note_on_c, 0, 89, 0
1, 116280, Note_on_c, 0, 83, 67
1, 116280, Note_on_c, 0, 68, 47
1, 116320, Tempo, 388350
1, 116360, Tempo, 389610
1, 116399, Note_on_c, 0, 68, 0
1, 116399, Note_on_c, 0, 83, 0
1, 116400, Note_on_c, 0, 77, 66
1, 116400, Note_on_c, 0, 61, 47
1, 116440, Tempo, 390879
1, 116480, Tempo, 392157
1, 116519, Note_on_c, 0, 61, 0
1, 116519, Note_on_c, 0, 77, 0
1, 116520, Tempo, 392157
1, 116520, Note_on_c, 0, 77, 66
1, 116520, Note_on_c, 0, 61, 47
1, 116600, Tempo, 393443
1, 116639, Note_on_c, 0, 61, 0
1, 116639, Note_on_c, 0, 77, 0
1, 116640, Tempo, 396040
1, 116640, Note_on_c, 0, 71, 73
1, 116640, Note_on_c, 0, 56, 60
1, 116680, Tempo, 400000
1, 116720, Tempo, 402685
1, 116759, Note_on_c, 0, 56, 0
1, 116759, Note_on_c, 0, 71, 0
1, 116760, Tempo, 406780
1, 116760, Note_on_c, 0, 65, 64
1, 116760, Note_on_c, 0, 49, 47
1, 116800, Tempo, 409556
1, 116840, Tempo, 412371
1, 116879, Note_on_c, 0, 49, 0
1, 116879, Note_on_c, 0, 65, 0
1, 116880, Tempo, 425532
1, 116880, Note_on_c, 0, 65, 64
1, 116880, Note_on_c, 0, 49, 47
1, 116920, Tempo, 441176
1, 116960, Tempo, 458015
1, 116999, Note_on_c, 0, 49, 0
1, 116999, Note_on_c, 0, 65, 0
1, 117000, Tempo, 476190
1, 117000, Note_on_c, 0, 59, 62
1, 117000, Note_on_c, 0, 44, 47
1, 117040, Tempo, 495868
1, 117080, Tempo, 418118
1, 117119, Note_on_c, 0, 59, 0
1, 117120, Tempo, 422535
1, 117120, Note_on_c, 0, 55, 105
1, 117120, Text_t, "bdca426d104a26ac9dcb070447587523"
1, 117120, Control_c, 0, 91, 127
1, 117120, Note_on_c, 0, 38, 72
1, 117144, Control_c, 0, 64, 0
1, 117190, Control_c, 0, 64, 127
1, 117200, Tempo, 421053
1, 117239, Note_on_c, 0, 38, 0
1, 117239, Note_on_c, 0, 55, 0
1, 117240, Tempo, 419580
1, 117240, Note_on_c, 0, 44, 0
1, 117240, Note_on_c, 0, 59, 61
1, 117240, Note_on_c, 0, 43, 51
1, 117320, Tempo, 418118
1, 117359, Note_on_c, 0, 43, 0
1, 117359, Note_on_c, 0, 59, 0
1, 117360, Tempo, 416667
1, 117360, Note_on_c, 0, 67, 62
1, 117360, Note_on_c, 0, 50, 49
1, 117440, Tempo, 415225
1, 117479, Note_on_c, 0, 50, 0
1, 117479, Note_on_c, 0, 67, 0
1, 117480, Tempo, 413793
1, 117480, Note_on_c, 0, 67, 63
1, 117480, Note_on_c, 0, 50, 49
1, 117560, Tempo, 412371
1, 117599, Note_on_c, 0, 50, 0
1, 117599, Note_on_c, 0, 67, 0
1, 117600, Tempo, 410959
1, 117600, Note_on_c, 0, 71, 79
1, 117600, Note_on_c, 0, 55, 67
1, 117719, Note_on_c, 0, 55, 0
1, 117719, Note_on_c, 0, 71, 0
1, 117720, Note_on_c, 0, 79, 62
1, 117720, Note_on_c, 0, 62, 49
1, 117839, Note_on_c, 0, 62, 0
1, 117839, Note_on_c, 0, 79, 0
1, 117840, Note_on_c, 0, 71, 64
1, 117840, Note_on_c, 0, 55, 49
1, 117959, Note_on_c, 0, 55, 0
1, 117959, Note_on_c, 0, 71, 0
1, 117960, Note_on_c, 0, 67, 66
1, 117960, Note_on_c, 0, 50, 49
1, 118079, Note_on_c, 0, 50, 0
1, 118079, Note_on_c, 0, 67, 0
1, 118080, Note_on_c, 0, 56, 106
1, 118080, Note_on_c, 0, 38, 67
1, 118120, Tempo, 412371
1, 118199, Note_on_c, 0, 38, 0
1, 118199, Note_on_c, 0, 56, 0
1, 118200, Note_on_c, 0, 59, 70
1, 118200, Note_on_c, 0, 41, 50
1, 118280, Tempo, 413793
1, 118319, Note_on_c, 0, 41, 0
1, 118319, Note_on_c, 0, 59, 0
1, 118320, Note_on_c, 0, 68, 68
1, 118320, Note_on_c, 0, 50, 50
1, 118439, Note_on_c, 0, 50, 0
1, 118439, Note_on_c, 0, 68, 0
1, 118440, Tempo, 415225
1, 118440, Note_on_c, 0, 68, 68
1, 118440, Note_on_c, 0, 50, 50
1, 118559, Note_on_c, 0, 50, 0
1, 118559, Note_on_c, 0, 68, 0
1, 118560, Tempo, 416667
1, 118560, Note_on_c, 0, 71, 75
1, 118560, Note_on_c, 0, 53, 61
1, 118600, Tempo, 419580
1, 118640, Tempo, 422535
1, 118679, Note_on_c, 0, 53, 0
1, 118679, Note_on_c, 0, 71, 0
1, 118680, Tempo, 425532
1, 118680, Note_on_c, 0, 80, 67
1, 118680, Note_on_c, 0, 62, 49
1, 118720, Tempo, 430108
1, 118760, Tempo, 433213
1, 118799, Note_on_c, 0, 62, 0
1, 118799, Note_on_c, 0, 80, 0
1, 118800, Tempo, 436364
1, 118800, Note_on_c, 0, 71, 67
1, 118800, Note_on_c, 0, 53, 49
1, 118840, Tempo, 439560
1, 118880, Tempo, 444444
1, 118919, Note_on_c, 0, 53, 0
1, 118919, Note_on_c, 0, 71, 0
1, 118920, Tempo, 447761
1, 118920, Note_on_c, 0, 68, 64
1, 118920, Note_on_c, 0, 50, 49
1, 118960, Tempo, 451128
1, 119000, Tempo, 456274
1, 119038, Tempo, 416667
1, 119039, Note_on_c, 0, 50, 0
1, 119039, Note_on_c, 0, 68, 0
1, 119040, Note_on_c, 0, 55, 108
1, 119040, Text_t, "bdca426d104a26ac9dcb070447587523"
1, 119040, Control_c, 0, 91, 127
1, 119040, Note_on_c, 0, 39, 73
1, 119054, Tempo, 415225
1, 119060, Control_c, 0, 64, 0
1, 119070, Tempo, 413793
1, 119080, Tempo, 412371
1, 119104, Control_c, 0, 64, 127
1, 119120, Tempo, 410959
1, 119159, Note_on_c, 0, 39, 0
1, 119159, Note_on_c, 0, 55, 0
1, 119160, Tempo, 409556
1, 119160, Note_on_c, 0, 60, 64
1, 119160, Note_on_c, 0, 48, 55
1, 119200, Tempo, 406780
1, 119240, Tempo, 405405
1, 119279, Note_on_c, 0, 48, 0
1, 119279, Note_on_c, 0, 60, 0
1, 119280, Tempo, 404040
1, 119280, Note_on_c, 0, 67, 64
1, 119280, Note_on_c, 0, 51, 50
1, 119320, Tempo, 401338
1, 119360, Tempo, 400000
1, 119399, Note_on_c, 0, 51, 0
1, 119399, Note_on_c, 0, 67, 0
1, 119400, Tempo, 398671
1, 119400, Note_on_c, 0, 67, 64
1, 119400, Note_on_c, 0, 51, 50
1, 119440, Tempo, 396040
1, 119519, Note_on_c, 0, 51, 0
1, 119519, Note_on_c, 0, 67, 0
1, 119520, Tempo, 394737
1, 119520, Note_on_c, 0, 72, 81
1, 119520, Note_on_c, 0, 60, 69
1, 119600, Tempo, 393443
1, 119639, Note_on_c, 0, 60, 0
1, 119639, Note_on_c, 0, 72, 0
1, 119640, Note_on_c, 0, 79, 67
1, 119640, Note_on_c, 0, 63, 50
1, 119680, Tempo, 392157
1, 119759, Note_on_c, 0, 63, 0
1, 119759, Note_on_c, 0, 79, 0
1, 119760, Tempo, 390879
1, 119760, Note_on_c, 0, 79, 64
1, 119760, Note_on_c, 0, 63, 50
1, 119840, Tempo, 389610
1, 119879, Note_on_c, 0, 63, 0
1, 119879, Note_on_c, 0, 79, 0
1, 119880, Note_on_c, 0, 84, 64
1, 119880, Note_on_c, 0, 72, 50
1, 119920, Tempo, 388350
1, 119999, Note_on_c, 0, 72, 0
1, 119999, Note_on_c, 0, 84, 0
1, 120000, Tempo, 387097
1, 120000, Note_on_c, 0, 91, 93
1, 120000, Note_on_c, 0, 75, 69
1, 120119, Note_on_c, 0, 75, 0
1, 120119, Note_on_c, 0, 91, 0
1, 120120, Tempo, 388350
1, 120120, Note_on_c, 0, 84, 71
1, 120120, Note_on_c, 0, 72, 50
1, 120200, Tempo, 389610
1, 120239, Note_on_c, 0, 72, 0
1, 120239, Note_on_c, 0, 84, 0
1, 120240, Note_on_c, 0, 79, 70
1, 120240, Note_on_c, 0, 63, 50
1, 120280, Tempo, 390879
1, 120359, Note_on_c, 0, 63, 0
1, 120359, Note_on_c, 0, 79, 0
1, 120360, Tempo, 392157
1, 120360, Note_on_c, 0, 79, 70
1, 120360, Note_on_c, 0, 63, 50
1, 120440, Tempo, 393443
1, 120479, Note_on_c, 0, 63, 0
1, 120479, Note_on_c, 0, 79, 0
1, 120480, Tempo, 396040
1, 120480, Note_on_c, 0, 72, 78
1, 120480, Note_on_c, 0, 60, 63
1, 120520, Tempo, 400000
1, 120560, Tempo, 402685
1, 120599, Note_on_c, 0, 60, 0
1, 120599, Note_on_c, 0, 72, 0
1, 120600, Tempo, 406780
1, 120600, Note_on_c, 0, 67, 69
1, 120600, Note_on_c, 0, 51, 50
1, 120640, Tempo, 409556
1, 120680, Tempo, 413793
1, 120719, Note_on_c, 0, 51, 0
1, 120719, Note_on_c, 0, 67, 0
1, 120720, Tempo, 418118
1, 120720, Note_on_c, 0, 67, 69
1, 120720, Note_on_c, 0, 51, 50
1, 120760, Tempo, 424028
1, 120800, Tempo, 461538
1, 120839, Note_on_c, 0, 51, 0
1, 120839, Note_on_c, 0, 67, 0
1, 120840, Tempo, 508475
1, 120840, Note_on_c, 0, 60, 68
1, 120840, Note_on_c, 0, 48, 50
1, 120880, Tempo, 563380
1, 120920, Tempo, 634921
1, 120958, Tempo, 419580
1, 120958, Note_on_c, 0, 60, 0
1, 120959, Note_on_c, 0, 48, 0
1, 120960, Note_on_c, 0, 60, 107
1, 120960, Text_t, "bdca426d104a26ac9dcb070447587523"
1, 120960, Control_c, 0, 91, 127
1, 120960, Note_on_c, 0, 40, 77
1, 120974, Tempo, 418118
1, 120982, Tempo, 416667
1, 120985, Control_c, 0, 64, 0
1, 120990, Tempo, 415225
1, 121000, Tempo, 412371
1, 121006, Control_c, 0, 64, 127
1, 121040, Tempo, 410959
1, 121079, Note_on_c, 0, 40, 0
1, 121079, Note_on_c, 0, 60, 0
1, 121080, Tempo, 409556
1, 121080, Note_on_c, 0, 67, 67
1, 121080, Note_on_c, 0, 48, 58
1, 121120, Tempo, 406780
1, 121160, Tempo, 405405
1, 121199, Note_on_c, 0, 48, 0
1, 121199, Note_on_c, 0, 67, 0
1, 121200, Tempo, 404040
1, 121200, Note_on_c, 0, 72, 67
1, 121200, Note_on_c, 0, 52, 52
1, 121240, Tempo, 401338
1, 121280, Tempo, 400000
1, 121319, Note_on_c, 0, 52, 0
1, 121319, Note_on_c, 0, 72, 0
1, 121320, Tempo, 398671
1, 121320, Note_on_c, 0, 72, 67
1, 121320, Note_on_c, 0, 52, 52
1, 121360, Tempo, 396040
1, 121439, Note_on_c, 0, 52, 0
1, 121439, Note_on_c, 0, 72, 0
1, 121440, Tempo, 394737
1, 121440, Note_on_c, 0, 79, 83
1, 121440, Note_on_c, 0, 60, 72
1, 121520, Tempo, 393443
1, 121559, Note_on_c, 0, 60, 0
1, 121559, Note_on_c, 0, 79, 0
1, 121560, Note_on_c, 0, 84, 69
1, 121560, Note_on_c, 0, 64, 52
1, 121600, Tempo, 392157
1, 121679, Note_on_c, 0, 64, 0
1, 121679, Note_on_c, 0, 84, 0
1, 121680, Tempo, 390879
1, 121680, Note_on_c, 0, 84, 67
1, 121680, Note_on_c, 0, 64, 52
1, 121760, Tempo, 389610
1, 121799, Note_on_c, 0, 64, 0
1, 121799, Note_on_c, 0, 84, 0
1, 121800, Note_on_c, 0, 91, 67
1, 121800, Note_on_c, 0, 72, 52
1, 121840, Tempo, 388350
1, 121919, Note_on_c, 0, 72, 0
1, 121919, Note_on_c, 0, 91, 0
1, 121920, Tempo, 387097
1, 121920, Note_on_c, 0, 96, 95
1, 121920, Note_on_c, 0, 76, 71
1, 122039, Note_on_c, 0, 76, 0
1, 122039, Note_on_c, 0, 96, 0
1, 122040, Tempo, 388350
1, 122040, Note_on_c, 0, 91, 73
1, 122040, Note_on_c, 0, 72, 52
1, 122120, Tempo, 389610
1, 122159, Note_on_c, 0, 72, 0
1, 122159, Note_on_c, 0, 91, 0
1, 122160, Note_on_c, 0, 84, 72
1, 122160, Note_on_c, 0, 64, 52
1, 122200, Tempo, 390879
1, 122279, Note_on_c, 0, 64, 0
1, 122279, Note_on_c, 0, 84, 0
1, 122280, Tempo, 392157
1, 122280, Note_on_c, 0, 84, 72
1, 122280, Note_on_c, 0, 64, 52
1, 122360, Tempo, 393443
1, 122399, Note_on_c, 0, 64, 0
1, 122399, Note_on_c, 0, 84, 0
1, 122400, Tempo, 396040
1, 122400, Note_on_c, 0, 79, 80
1, 122400, Note_on_c, 0, 60, 64
1, 122440, Tempo, 400000
1, 122480, Tempo, 402685
1, 122519, Note_on_c, 0, 60, 0
1, 122519, Note_on_c, 0, 79, 0
1, 122520, Tempo, 406780
1, 122520, Note_on_c, 0, 72, 71
1, 122520, Note_on_c, 0, 52, 52
1, 122560, Tempo, 409556
1, 122600, Tempo, 413793
1, 122639, Note_on_c, 0, 52, 0
1, 122639, Note_on_c, 0, 72, 0
1, 122640, Tempo, 418118
1, 122640, Note_on_c, 0, 72, 71
1, 122640, Note_on_c, 0, 52, 52
1, 122680, Tempo, 421053
1, 122720, Tempo, 425532
1, 122759, Note_on_c, 0, 52, 0
1, 122759, Note_on_c, 0, 72, 0
1, 122760, Tempo, 428571
1, 122760, Note_on_c, 0, 67, 69
1, 122760, Note_on_c, 0, 48, 52
1, 122800, Tempo, 433213
1, 122840, Tempo, 437956
1, 122878, Tempo, 418118
1, 122879, Note_on_c, 0, 48, 0
1, 122879, Note_on_c, 0, 67, 0
1, 122880, Tempo, 421053
1, 122880, Note_on_c, 0, 58, 105
1, 122880, Text_t, "bdca426d104a26ac9dcb070447587523"
1, 122880, Control_c, 0, 91, 127
1, 122880, Note_on_c, 0, 41, 72
1, 122902, Control_c, 0, 64, 0
1, 122920, Tempo, 419580
1, 122958, Control_c, 0, 64, 127
1, 122960, Tempo, 418118
1, 122999, Note_on_c, 0, 41, 0
1, 122999, Note_on_c, 0, 58, 0
1, 123000, Tempo, 416667
1, 123000, Note_on_c, 0, 60, 64
1, 123000, Note_on_c, 0, 48, 51
1, 123040, Tempo, 415225
1, 123080, Tempo, 413793
1, 123119, Note_on_c, 0, 48, 0
1, 123119, Note_on_c, 0, 60, 0
1, 123120, Tempo, 412371
1, 123120, Note_on_c, 0, 70, 64
1, 123120, Note_on_c, 0, 53, 49
1, 123160, Tempo, 410959
1, 123200, Tempo, 409556
1, 123239, Note_on_c, 0, 53, 0
1, 123239, Note_on_c, 0, 70, 0
1, 123240, Tempo, 408163
1, 123240, Note_on_c, 0, 70, 64
1, 123240, Note_on_c, 0, 53, 49
1, 123280, Tempo, 406780
1, 123320, Tempo, 405405
1, 123359, Note_on_c, 0, 53, 0
1, 123359, Note_on_c, 0, 70, 0
1, 123360, Tempo, 402685
1, 123360, Note_on_c, 0, 72, 80
1, 123360, Note_on_c, 0, 60, 67
1, 123479, Note_on_c, 0, 60, 0
1, 123479, Note_on_c, 0, 72, 0
1, 123480, Note_on_c, 0, 82, 64
1, 123480, Note_on_c, 0, 65, 49
1, 123599, Note_on_c, 0, 65, 0
1, 123599, Note_on_c, 0, 82, 0
1, 123600, Note_on_c, 0, 72, 64
1, 123600, Note_on_c, 0, 60, 49
1, 123719, Note_on_c, 0, 60, 0
1, 123719, Note_on_c, 0, 72, 0
1, 123720, Note_on_c, 0, 70, 64
1, 123720, Note_on_c, 0, 53, 49
1, 123839, Note_on_c, 0, 53, 0
1, 123839, Note_on_c, 0, 70, 0
1, 123840, Note_on_c, 0, 56, 103
1, 123840, Note_on_c, 0, 41, 66
1, 123920, Tempo, 404040
1, 123959, Note_on_c, 0, 41, 0
1, 123959, Note_on_c, 0, 56, 0
1, 123960, Note_on_c, 0, 60, 69
1, 123960, Note_on_c, 0, 48, 50
1, 124079, Note_on_c, 0, 48, 0
1, 124079, Note_on_c, 0, 60, 0
1, 124080, Note_on_c, 0, 68, 67
1, 124080, Note_on_c, 0, 53, 50
1, 124199, Note_on_c, 0, 53, 0
1, 124199, Note_on_c, 0, 68, 0
1, 124200, Note_on_c, 0, 68, 67
1, 124200, Note_on_c, 0, 53, 50
1, 124319, Note_on_c, 0, 53, 0
1, 124319, Note_on_c, 0, 68, 0
1, 124320, Note_on_c, 0, 72, 77
1, 124320, Note_on_c, 0, 60, 62
1, 124439, Note_on_c, 0, 60, 0
1, 124439, Note_on_c, 0, 72, 0
1, 124440, Tempo, 406780
1, 124440, Note_on_c, 0, 80, 66
1, 124440, Note_on_c, 0, 65, 49
1, 124480, Tempo, 409556
1, 124520, Tempo, 413793
1, 124559, Note_on_c, 0, 65, 0
1, 124559, Note_on_c, 0, 80, 0
1, 124560, Tempo, 418118
1, 124560, Note_on_c, 0, 72, 66
1, 124560, Note_on_c, 0, 60, 49
1, 124600, Tempo, 421053
1, 124640, Tempo, 425532
1, 124679, Note_on_c, 0, 60, 0
1, 124679, Note_on_c, 0, 72, 0
1, 124680, Tempo, 428571
1, 124680, Note_on_c, 0, 68, 64
1, 124680, Note_on_c, 0, 53, 49
1, 124720, Tempo, 433213
1, 124760, Tempo, 437956
1, 124798, Tempo, 419580
1, 124798, Note_on_c, 0, 53, 0
1, 124799, Note_on_c, 0, 68, 0
1, 124800, Tempo, 424028
1, 124800, Note_on_c, 0, 53, 103
1, 124800, Text_t, "bdca426d104a26ac9dcb070447587523"
1, 124800, Control_c, 0, 91, 127
1, 124800, Note_on_c, 0, 41, 73
1, 124822, Control_c, 0, 64, 0
1, 124840, Tempo, 422535
1, 124880, Tempo, 421053
1, 124885, Control_c, 0, 64, 127
1, 124919, Note_on_c, 0, 41, 0
1, 124919, Note_on_c, 0, 53, 0
1, 124920, Tempo, 419580
1, 124920, Note_on_c, 0, 56, 64
1, 124920, Note_on_c, 0, 48, 52
1, 124960, Tempo, 418118
1, 125000, Tempo, 416667
1, 125039, Note_on_c, 0, 48, 0
1, 125039, Note_on_c, 0, 56, 0
1, 125040, Tempo, 413793
1, 125040, Note_on_c, 0, 65, 64
1, 125040, Note_on_c, 0, 53, 49
1, 125080, Tempo, 412371
1, 125120, Tempo, 410959
1, 125159, Note_on_c, 0, 53, 0
1, 125159, Note_on_c, 0, 65, 0
1, 125160, Tempo, 409556
1, 125160, Note_on_c, 0, 65, 64
1, 125160, Note_on_c, 0, 53, 49
1, 125200, Tempo, 408163
1, 125240, Tempo, 406780
1, 125279, Note_on_c, 0, 53, 0
1, 125279, Note_on_c, 0, 65, 0
1, 125280, Tempo, 404040
1, 125280, Note_on_c, 0, 68, 81
1, 125280, Note_on_c, 0, 60, 69
1, 125399, Note_on_c, 0, 60, 0
1, 125399, Note_on_c, 0, 68, 0
1, 125400, Note_on_c, 0, 77, 66
1, 125400, Note_on_c, 0, 65, 49
1, 125519, Note_on_c, 0, 65, 0
1, 125519, Note_on_c, 0, 77, 0
1, 125520, Note_on_c, 0, 68, 64
1, 125520, Note_on_c, 0, 60, 49
1, 125639, Note_on_c, 0, 60, 0
1, 125639, Note_on_c, 0, 68, 0
1, 125640, Note_on_c, 0, 65, 64
1, 125640, Note_on_c, 0, 53, 49
1, 125759, Note_on_c, 0, 53, 0
1, 125759, Note_on_c, 0, 65, 0
1, 125760, Note_on_c, 0, 50, 103
1, 125760, Note_on_c, 0, 41, 67
1, 125879, Note_on_c, 0, 41, 0
1, 125879, Note_on_c, 0, 50, 0
1, 125880, Note_on_c, 0, 56, 70
1, 125880, Note_on_c, 0, 48, 50
1, 125999, Note_on_c, 0, 48, 0
1, 125999, Note_on_c, 0, 56, 0
1, 126000, Note_on_c, 0, 62, 69
1, 126000, Note_on_c, 0, 53, 50
1, 126080, Tempo, 405405
1, 126119, Note_on_c, 0, 53, 0
1, 126119, Note_on_c, 0, 62, 0
1, 126120, Note_on_c, 0, 62, 69
1, 126120, Note_on_c, 0, 53, 50
1, 126200, Tempo, 404040
1, 126239, Note_on_c, 0, 53, 0
1, 126239, Note_on_c, 0, 62, 0
1, 126240, Tempo, 405405
1, 126240, Note_on_c, 0, 68, 77
1, 126240, Note_on_c, 0, 60, 62
1, 126280, Tempo, 408163
1, 126320, Tempo, 410959
1, 126359, Note_on_c, 0, 60, 0
1, 126359, Note_on_c, 0, 68, 0
1, 126360, Tempo, 413793
1, 126360, Note_on_c, 0, 74, 67
1, 126360, Note_on_c, 0, 65, 49
1, 126400, Tempo, 415225
1, 126440, Tempo, 418118
1, 126479, Note_on_c, 0, 65, 0
1, 126479, Note_on_c, 0, 74, 0
1, 126480, Tempo, 421053
1, 126480, Note_on_c, 0, 68, 67
1, 126480, Note_on_c, 0, 60, 49
1, 126520, Tempo, 424028
1, 126560, Tempo, 425532
1, 126599, Note_on_c, 0, 60, 0
1, 126599, Note_on_c, 0, 68, 0
1, 126600, Tempo, 428571
1, 126600, Note_on_c, 0, 62, 66
1, 126600, Note_on_c, 0, 53, 49
1, 126640, Tempo, 431655
1, 126680, Tempo, 434783
1, 126718, Tempo, 415225
1, 126719, Note_on_c, 0, 53, 0
1, 126719, Note_on_c, 0, 62, 0
1, 126720, Note_on_c, 0, 55, 110
1, 126720, Text_t, "bdca426d104a26ac9dcb070447587523"
1, 126720, Control_c, 0, 91, 127
1, 126720, Note_on_c, 0, 43, 74
1, 126742, Control_c, 0, 64, 0
1, 126750, Tempo, 413793
1, 126760, Tempo, 412371
1, 126800, Tempo, 410959
1, 126805, Control_c, 0, 64, 127
1, 126839, Note_on_c, 0, 43, 0
1, 126839, Note_on_c, 0, 55, 0
1, 126840, Tempo, 409556
1, 126840, Note_on_c, 0, 60, 70
1, 126840, Note_on_c, 0, 51, 56
1, 126880, Tempo, 406780
1, 126920, Tempo, 405405
1, 126959, Note_on_c, 0, 51, 0
1, 126959, Note_on_c, 0, 60, 0
1, 126960, Tempo, 404040
1, 126960, Note_on_c, 0, 67, 70
1, 126960, Note_on_c, 0, 55, 56
1, 127000, Tempo, 401338
1, 127040, Tempo, 400000
1, 127079, Note_on_c, 0, 55, 0
1, 127079, Note_on_c, 0, 67, 0
1, 127080, Tempo, 398671
1, 127080, Note_on_c, 0, 67, 70
1, 127080, Note_on_c, 0, 55, 53
1, 127120, Tempo, 396040
1, 127199, Note_on_c, 0, 55, 0
1, 127199, Note_on_c, 0, 67, 0
1, 127200, Tempo, 394737
1, 127200, Note_on_c, 0, 72, 85
1, 127200, Note_on_c, 0, 63, 66
1, 127280, Tempo, 393443
1, 127319, Note_on_c, 0, 63, 0
1, 127319, Note_on_c, 0, 72, 0
1, 127320, Note_on_c, 0, 79, 71
1, 127320, Note_on_c, 0, 67, 53
1, 127360, Tempo, 392157
1, 127439, Note_on_c, 0, 67, 0
1, 127439, Note_on_c, 0, 79, 0
1, 127440, Tempo, 390879
1, 127440, Note_on_c, 0, 79, 70
1, 127440, Note_on_c, 0, 67, 53
1, 127520, Tempo, 389610
1, 127559, Note_on_c, 0, 67, 0
1, 127559, Note_on_c, 0, 79, 0
1, 127560, Note_on_c, 0, 84, 70
1, 127560, Note_on_c, 0, 75, 53
1, 127600, Tempo, 388350
1, 127679, Note_on_c, 0, 75, 0
1, 127679, Note_on_c, 0, 84, 0
1, 127680, Tempo, 387097
1, 127680, Note_on_c, 0, 91, 97
1, 127680, Note_on_c, 0, 79, 72
1, 127799, Note_on_c, 0, 79, 0
1, 127799, Note_on_c, 0, 91, 0
1, 127800, Tempo, 388350
1, 127800, Note_on_c, 0, 84, 75
1, 127800, Note_on_c, 0, 75, 53
1, 127880, Tempo, 389610
1, 127919, Note_on_c, 0, 75, 0
1, 127919, Note_on_c, 0, 84, 0
1, 127920, Note_on_c, 0, 79, 73
1, 127920, Note_on_c, 0, 67, 53
1, 127960, Tempo, 390879
1, 128039, Note_on_c, 0, 67, 0
1, 128039, Note_on_c, 0, 79, 0
1, 128040, Tempo, 392157
1, 128040, Note_on_c, 0, 79, 73
1, 128040, Note_on_c, 0, 67, 53
1, 128120, Tempo, 393443
1, 128159, Note_on_c, 0, 67, 0
1, 128159, Note_on_c, 0, 79, 0
1, 128160, Tempo, 396040
1, 128160, Note_on_c, 0, 72, 82
1, 128160, Note_on_c, 0, 63, 67
1, 128200, Tempo, 400000
1, 128240, Tempo, 402685
1, 128279, Note_on_c, 0, 63, 0
1, 128279, Note_on_c, 0, 72, 0
1, 128280, Tempo, 406780
1, 128280, Note_on_c, 0, 67, 72
1, 128280, Note_on_c, 0, 55, 53
1, 128320, Tempo, 409556
1, 128360, Tempo, 413793
1, 128399, Note_on_c, 0, 55, 0
1, 128399, Note_on_c, 0, 67, 0
1, 128400, Tempo, 418118
1, 128400, Note_on_c, 0, 67, 72
1, 128400, Note_on_c, 0, 55, 53
1, 128440, Tempo, 421053
1, 128480, Tempo, 424028
1, 128519, Note_on_c, 0, 55, 0
1, 128519, Note_on_c, 0, 67, 0
1, 128520, Tempo, 476190
1, 128520, Note_on_c, 0, 60, 71
1, 128520, Note_on_c, 0, 51, 53
1, 128560, Tempo, 542986
1, 128600, Tempo, 634921
1, 128638, Tempo, 428571
1, 128639, Note_on_c, 0, 51, 0
1, 128639, Note_on_c, 0, 60, 0
1, 128640, Note_on_c, 0, 56, 108
1, 128640, Text_t, "bdca426d104a26ac9dcb070447587523"
1, 128640, Control_c, 0, 91, 127
1, 128640, Note_on_c, 0, 43, 74
1, 128646, Tempo, 427046
1, 128654, Tempo, 424028
1, 128661, Control_c, 0, 64, 0
1, 128662, Tempo, 421053
1, 128670, Tempo, 418118
1, 128678, Tempo, 415225
1, 128680, Tempo, 412371
1, 128696, Control_c, 0, 64, 127
1, 128720, Tempo, 410959
1, 128759, Note_on_c, 0, 43, 0
1, 128759, Note_on_c, 0, 56, 0
1, 128760, Tempo, 409556
1, 128760, Note_on_c, 0, 60, 70
1, 128760, Note_on_c, 0, 51, 56
1, 128800, Tempo, 406780
1, 128840, Tempo, 405405
1, 128879, Note_on_c, 0, 51, 0
1, 128879, Note_on_c, 0, 60, 0
1, 128880, Tempo, 404040
1, 128880, Note_on_c, 0, 68, 70
1, 128880, Note_on_c, 0, 55, 56
1, 128920, Tempo, 401338
1, 128960, Tempo, 400000
1, 128999, Note_on_c, 0, 55, 0
1, 128999, Note_on_c, 0, 68, 0
1, 129000, Tempo, 398671
1, 129000, Note_on_c, 0, 68, 70
1, 129000, Note_on_c, 0, 55, 53
1, 129040, Tempo, 396040
1, 129119, Note_on_c, 0, 55, 0
1, 129119, Note_on_c, 0, 68, 0
1, 129120, Tempo, 394737
1, 129120, Note_on_c, 0, 72, 85
1, 129120, Note_on_c, 0, 63, 66
1, 129200, Tempo, 393443
1, 129239, Note_on_c, 0, 63, 0
1, 129239, Note_on_c, 0, 72, 0
1, 129240, Note_on_c, 0, 80, 71
1, 129240, Note_on_c, 0, 67, 53
1, 129280, Tempo, 392157
1, 129359, Note_on_c, 0, 67, 0
1, 129359, Note_on_c, 0, 80, 0
1, 129360, Tempo, 390879
1, 129360, Note_on_c, 0, 80, 70
1, 129360, Note_on_c, 0, 67, 53
1, 129440, Tempo, 389610
1, 129479, Note_on_c, 0, 67, 0
1, 129479, Note_on_c, 0, 80, 0
1, 129480, Note_on_c, 0, 84, 70
1, 129480, Note_on_c, 0, 75, 53
1, 129520, Tempo, 388350
1, 129599, Note_on_c, 0, 75, 0
1, 129599, Note_on_c, 0, 84, 0
1, 129600, Tempo, 387097
1, 129600, Note_on_c, 0, 92, 97
1, 129600, Note_on_c, 0, 79, 72
1, 129719, Note_on_c, 0, 79, 0
1, 129719, Note_on_c, 0, 92, 0
1, 129720, Tempo, 388350
1, 129720, Note_on_c, 0, 84, 75
1, 129720, Note_on_c, 0, 75, 53
1, 129800, Tempo, 389610
1, 129839, Note_on_c, 0, 75, 0
1, 129839, Note_on_c, 0, 84, 0
1, 129840, Note_on_c, 0, 80, 73
1, 129840, Note_on_c, 0, 67, 53
1, 129880, Tempo, 390879
1, 129959, Note_on_c, 0, 67, 0
1, 129959, Note_on_c, 0, 80, 0
1, 129960, Tempo, 392157
1, 129960, Note_on_c, 0, 80, 73
1, 129960, Note_on_c, 0, 67, 53
1, 130040, Tempo, 393443
1, 130079, Note_on_c, 0, 67, 0
1, 130079, Note_on_c, 0, 80, 0
1, 130080, Tempo, 396040
1, 130080, Note_on_c, 0, 72, 82
1, 130080, Note_on_c, 0, 63, 67
1, 130120, Tempo, 400000
1, 130160, Tempo, 402685
1, 130199, Note_on_c, 0, 63, 0
1, 130199, Note_on_c, 0, 72, 0
1, 130200, Tempo, 406780
1, 130200, Note_on_c, 0, 68, 72
1, 130200, Note_on_c, 0, 55, 53
1, 130240, Tempo, 409556
1, 130280, Tempo, 413793
1, 130319, Note_on_c, 0, 55, 0
1, 130319, Note_on_c, 0, 68, 0
1, 130320, Tempo, 418118
1, 130320, Note_on_c, 0, 68, 72
1, 130320, Note_on_c, 0, 55, 53
1, 130360, Tempo, 421053
1, 130400, Tempo, 425532
1, 130439, Note_on_c, 0, 55, 0
1, 130439, Note_on_c, 0, 68, 0
1, 130440, Tempo, 428571
1, 130440, Note_on_c, 0, 60, 71
1, 130440, Note_on_c, 0, 51, 53
1, 130480, Tempo, 433213
1, 130520, Tempo, 437956
1, 130558, Tempo, 418118
1, 130559, Note_on_c, 0, 51, 0
1, 130559, Note_on_c, 0, 60, 0
1, 130560, Note_on_c, 0, 56, 110
1, 130560, Text_t, "bdca426d104a26ac9dcb070447587523"
1, 130560, Control_c, 0, 91, 127
1, 130560, Note_on_c, 0, 43, 74
1, 130574, Tempo, 416667
1, 130580, Control_c, 0, 64, 0
1, 130582, Tempo, 415225
1, 130590, Tempo, 413793
1, 130600, Tempo, 416667
1, 130629, Control_c, 0, 64, 127
1, 130640, Tempo, 415225
1, 130679, Note_on_c, 0, 43, 0
1, 130679, Note_on_c, 0, 56, 0
1, 130680, Tempo, 413793
1, 130680, Note_on_c, 0, 59, 70
1, 130680, Note_on_c, 0, 50, 56
1, 130720, Tempo, 412371
1, 130760, Tempo, 410959
1, 130799, Note_on_c, 0, 50, 0
1, 130799, Note_on_c, 0, 59, 0
1, 130800, Tempo, 408163
1, 130800, Note_on_c, 0, 68, 70
1, 130800, Note_on_c, 0, 53, 56
1, 130840, Tempo, 406780
1, 130880, Tempo, 405405
1, 130919, Note_on_c, 0, 53, 0
1, 130919, Note_on_c, 0, 68, 0
1, 130920, Tempo, 404040
1, 130920, Note_on_c, 0, 68, 70
1, 130920, Note_on_c, 0, 55, 53
1, 130960, Tempo, 401338
1, 131039, Note_on_c, 0, 55, 0
1, 131039, Note_on_c, 0, 68, 0
1, 131040, Note_on_c, 0, 71, 85
1, 131040, Note_on_c, 0, 62, 66
1, 131120, Tempo, 400000
1, 131159, Note_on_c, 0, 62, 0
1, 131159, Note_on_c, 0, 71, 0
1, 131160, Note_on_c, 0, 80, 71
1, 131160, Note_on_c, 0, 65, 53
1, 131240, Tempo, 398671
1, 131279, Note_on_c, 0, 65, 0
1, 131279, Note_on_c, 0, 80, 0
1, 131280, Note_on_c, 0, 80, 70
1, 131280, Note_on_c, 0, 67, 53
1, 131399, Note_on_c, 0, 67, 0
1, 131399, Note_on_c, 0, 80, 0
1, 131400, Tempo, 397351
1, 131400, Note_on_c, 0, 83, 70
1, 131400, Note_on_c, 0, 74, 53
1, 131519, Note_on_c, 0, 74, 0
1, 131519, Note_on_c, 0, 83, 0
1, 131520, Tempo, 396040
1, 131520, Note_on_c, 0, 92, 97
1, 131520, Note_on_c, 0, 77, 72
1, 131639, Note_on_c, 0, 77, 0
1, 131639, Note_on_c, 0, 92, 0
1, 131640, Tempo, 397351
1, 131640, Note_on_c, 0, 83, 75
1, 131640, Note_on_c, 0, 74, 53
1, 131759, Note_on_c, 0, 74, 0
1, 131759, Note_on_c, 0, 83, 0
1, 131760, Tempo, 398671
1, 131760, Note_on_c, 0, 80, 73
1, 131760, Note_on_c, 0, 67, 53
1, 131840, Tempo, 400000
1, 131879, Note_on_c, 0, 67, 0
1, 131879, Note_on_c, 0, 80, 0
1, 131880, Note_on_c, 0, 80, 73
1, 131880, Note_on_c, 0, 65, 53
1, 131960, Tempo, 401338
1, 131999, Note_on_c, 0, 65, 0
1, 131999, Note_on_c, 0, 80, 0
1, 132000, Note_on_c, 0, 71, 82
1, 132000, Note_on_c, 0, 62, 67
1, 132040, Tempo, 402685
1, 132080, Tempo, 402685
1, 132119, Note_on_c, 0, 62, 0
1, 132119, Note_on_c, 0, 71, 0
1, 132120, Tempo, 406780
1, 132120, Note_on_c, 0, 68, 72
1, 132120, Note_on_c, 0, 55, 53
1, 132160, Tempo, 409556
1, 132200, Tempo, 413793
1, 132239, Note_on_c, 0, 55, 0
1, 132239, Note_on_c, 0, 68, 0
1, 132240, Tempo, 418118
1, 132240, Note_on_c, 0, 68, 72
1, 132240, Note_on_c, 0, 53, 53
1, 132280, Tempo, 421053
1, 132320, Tempo, 425532
1, 132359, Note_on_c, 0, 53, 0
1, 132359, Note_on_c, 0, 68, 0
1, 132360, Tempo, 428571
1, 132360, Note_on_c, 0, 59, 71
1, 132360, Note_on_c, 0, 50, 53
1, 132400, Tempo, 433213
1, 132440, Tempo, 437956
1, 132470, Tempo, 419580
1, 132479, Note_on_c, 0, 50, 0
1, 132479, Note_on_c, 0, 59, 0
1, 132480, Tempo, 415225
1, 132480, Note_on_c, 0, 55, 108
1, 132480, Text_t, "bdca426d104a26ac9dcb070447587523"
1, 132480, Control_c, 0, 91, 127
1, 132480, Note_on_c, 0, 43, 74
1, 132503, Control_c, 0, 64, 0
1, 132520, Tempo, 413793
1, 132549, Control_c, 0, 64, 127
1, 132560, Tempo, 412371
1, 132599, Note_on_c, 0, 43, 0
1, 132599, Note_on_c, 0, 55, 0
1, 132600, Tempo, 410959
1, 132600, Note_on_c, 0, 59, 70
1, 132600, Note_on_c, 0, 50, 56
1, 132640, Tempo, 409556
1, 132680, Tempo, 408163
1, 132719, Note_on_c, 0, 50, 0
1, 132719, Note_on_c, 0, 59, 0
1, 132720, Tempo, 406780
1, 132720, Note_on_c, 0, 67, 70
1, 132720, Note_on_c, 0, 53, 56
1, 132760, Tempo, 405405
1, 132800, Tempo, 404040
1, 132839, Note_on_c, 0, 53, 0
1, 132839, Note_on_c, 0, 67, 0
1, 132840, Tempo, 402685
1, 132840, Note_on_c, 0, 67, 70
1, 132840, Note_on_c, 0, 55, 53
1, 132880, Tempo, 401338
1, 132920, Tempo, 400000
1, 132959, Note_on_c, 0, 55, 0
1, 132959, Note_on_c, 0, 67, 0
1, 132960, Note_on_c, 0, 71, 85
1, 132960, Note_on_c, 0, 62, 66
1, 133079, Note_on_c, 0, 62, 0
1, 133079, Note_on_c, 0, 71, 0
1, 133080, Tempo, 398671
1, 133080, Note_on_c, 0, 79, 71
1, 133080, Note_on_c, 0, 65, 53
1, 133199, Note_on_c, 0, 65, 0
1, 133199, Note_on_c, 0, 79, 0
1, 133200, Note_on_c, 0, 79, 70
1, 133200, Note_on_c, 0, 67, 53
1, 133240, Tempo, 397351
1, 133319, Note_on_c, 0, 67, 0
1, 133319, Note_on_c, 0, 79, 0
1, 133320, Note_on_c, 0, 83, 70
1, 133320, Note_on_c, 0, 74, 53
1, 133400, Tempo, 396040
1, 133439, Note_on_c, 0, 74, 0
1, 133439, Note_on_c, 0, 83, 0
1, 133440, Note_on_c, 0, 91, 97
1, 133440, Note_on_c, 0, 77, 72
1, 133520, Tempo, 397351
1, 133559, Note_on_c, 0, 77, 0
1, 133559, Note_on_c, 0, 91, 0
1, 133560, Note_on_c, 0, 83, 75
1, 133560, Note_on_c, 0, 74, 53
1, 133640, Tempo, 398671
1, 133679, Note_on_c, 0, 74, 0
1, 133679, Note_on_c, 0, 83, 0
1, 133680, Note_on_c, 0, 79, 73
1, 133680, Note_on_c, 0, 67, 53
1, 133760, Tempo, 400000
1, 133799, Note_on_c, 0, 67, 0
1, 133799, Note_on_c, 0, 79, 0
1, 133800, Note_on_c, 0, 79, 73
1, 133800, Note_on_c, 0, 65, 53
1, 133880, Tempo, 401338
1, 133919, Note_on_c, 0, 65, 0
1, 133919, Note_on_c, 0, 79, 0
1, 133920, Tempo, 396040
1, 133920, Note_on_c, 0, 71, 82
1, 133920, Note_on_c, 0, 62, 67
1, 133960, Tempo, 400000
1, 134000, Tempo, 402685
1, 134039, Note_on_c, 0, 62, 0
1, 134039, Note_on_c, 0, 71, 0
1, 134040, Tempo, 406780
1, 134040, Note_on_c, 0, 67, 72
1, 134040, Note_on_c, 0, 55, 53
1, 134080, Tempo, 409556
1, 134110, Tempo, 410959
1, 134150, Tempo, 428571
1, 134159, Note_on_c, 0, 55, 0
1, 134159, Note_on_c, 0, 67, 0
1, 134160, Note_on_c, 0, 67, 72
1, 134160, Note_on_c, 0, 50, 53
1, 134190, Tempo, 449438
1, 134230, Tempo, 472441
1, 134240, Tempo, 470588
1, 134279, Note_on_c, 0, 50, 0
1, 134279, Note_on_c, 0, 67, 0
1, 134280, Tempo, 545455
1, 134280, Note_on_c, 0, 59, 71
1, 134280, Note_on_c, 0, 43, 53
1, 134320, Tempo, 648649
1, 134360, Tempo, 800000
1, 134390, Tempo, 591133
1, 134399, Note_on_c, 0, 43, 0
1, 134399, Note_on_c, 0, 59, 0
1, 134400, Note_on_c, 0, 52, 108
1, 134400, Text_t, "bdca426d104a26ac9dcb070447587523"
1, 134400, Control_c, 0, 91, 127
1, 134400, Note_on_c, 0, 36, 74
1, 134406, Tempo, 418118
1, 134414, Tempo, 416667
1, 134422, Control_c, 0, 64, 0
1, 134430, Tempo, 415225
1, 134438, Tempo, 413793
1, 134446, Tempo, 412371
1, 134466, Control_c, 0, 64, 127
1, 134480, Tempo, 410959
1, 134519, Note_on_c, 0, 36, 0
1, 134519, Note_on_c, 0, 52, 0
1, 134520, Tempo, 409556
1, 134520, Note_on_c, 0, 55, 70
1, 134520, Note_on_c, 0, 43, 56
1, 134560, Tempo, 406780
1, 134600, Tempo, 405405
1, 134639, Note_on_c, 0, 43, 0
1, 134639, Note_on_c, 0, 55, 0
1, 134640, Tempo, 404040
1, 134640, Note_on_c, 0, 64, 70
1, 134640, Note_on_c, 0, 48, 56
1, 134680, Tempo, 401338
1, 134720, Tempo, 400000
1, 134759, Note_on_c, 0, 48, 0
1, 134759, Note_on_c, 0, 64, 0
1, 134760, Tempo, 398671
1, 134760, Note_on_c, 0, 64, 70
1, 134760, Note_on_c, 0, 48, 53
1, 134800, Tempo, 396040
1, 134879, Note_on_c, 0, 48, 0
1, 134879, Note_on_c, 0, 64, 0
1, 134880, Tempo, 394737
1, 134880, Note_on_c, 0, 67, 85
1, 134880, Note_on_c, 0, 55, 66
1, 134960, Tempo, 393443
1, 134999, Note_on_c, 0, 55, 0
1, 134999, Note_on_c, 0, 67, 0
1, 135000, Note_on_c, 0, 76, 71
1, 135000, Note_on_c, 0, 60, 53
1, 135040, Tempo, 392157
1, 135119, Note_on_c, 0, 60, 0
1, 135119, Note_on_c, 0, 76, 0
1, 135120, Tempo, 390879
1, 135120, Note_on_c, 0, 76, 70
1, 135120, Note_on_c, 0, 60, 53
1, 135200, Tempo, 389610
1, 135239, Note_on_c, 0, 60, 0
1, 135239, Note_on_c, 0, 76, 0
1, 135240, Note_on_c, 0, 79, 70
1, 135240, Note_on_c, 0, 67, 53
1, 135280, Tempo, 388350
1, 135359, Note_on_c, 0, 67, 0
1, 135359, Note_on_c, 0, 79, 0
1, 135360, Tempo, 387097
1, 135360, Note_on_c, 0, 88, 93
1, 135360, Note_on_c, 0, 72, 72
1, 135479, Note_on_c, 0, 72, 0
1, 135479, Note_on_c, 0, 88, 0
1, 135480, Tempo, 388350
1, 135480, Note_on_c, 0, 88, 75
1, 135480, Note_on_c, 0, 72, 53
1, 135560, Tempo, 389610
1, 135599, Note_on_c, 0, 72, 0
1, 135599, Note_on_c, 0, 88, 0
1, 135600, Note_on_c, 0, 91, 73
1, 135600, Note_on_c, 0, 79, 53
1, 135640, Tempo, 390879
1, 135719, Note_on_c, 0, 79, 0
1, 135719, Note_on_c, 0, 91, 0
1, 135720, Tempo, 392157
1, 135720, Note_on_c, 0, 100, 73
1, 135720, Note_on_c, 0, 84, 53
1, 135800, Tempo, 393443
1, 135839, Note_on_c, 0, 84, 0
1, 135839, Note_on_c, 0, 100, 0
1, 135840, Tempo, 396040
1, 135840, Note_on_c, 0, 91, 82
1, 135840, Note_on_c, 0, 79, 67
1, 135880, Tempo, 400000
1, 135920, Tempo, 402685
1, 135959, Note_on_c, 0, 79, 0
1, 135959, Note_on_c, 0, 91, 0
1, 135960, Tempo, 406780
1, 135960, Note_on_c, 0, 88, 72
1, 135960, Note_on_c, 0, 72, 53
1, 136000, Tempo, 409556
1, 136040, Tempo, 413793
1, 136079, Note_on_c, 0, 72, 0
1, 136079, Note_on_c, 0, 88, 0
1, 136080, Tempo, 418118
1, 136080, Note_on_c, 0, 88, 72
1, 136080, Note_on_c, 0, 72, 53
1, 136120, Tempo, 421053
1, 136160, Tempo, 425532
1, 136199, Note_on_c, 0, 72, 0
1, 136199, Note_on_c, 0, 88, 0
1, 136200, Tempo, 428571
1, 136200, Note_on_c, 0, 79, 71
1, 136200, Note_on_c, 0, 67, 53
1, 136240, Tempo, 433213
1, 136280, Tempo, 421053
1, 136319, Note_on_c, 0, 67, 0
1, 136319, Note_on_c, 0, 79, 0
1, 136320, Note_on_c, 0, 76, 81
1, 136320, Text_t, "bdca426d104a26ac9dcb070447587523"
1, 136320, Control_c, 0, 91, 127
1, 136320, Note_on_c, 0, 60, 69
1, 136360, Tempo, 419580
1, 136400, Tempo, 418118
1, 136439, Note_on_c, 0, 60, 0
1, 136439, Note_on_c, 0, 76, 0
1, 136440, Note_on_c, 0, 76, 69
1, 136440, Note_on_c, 0, 60, 52
1, 136480, Tempo, 416667
1, 136520, Tempo, 415225
1, 136559, Note_on_c, 0, 60, 0
1, 136559, Note_on_c, 0, 76, 0
1, 136560, Note_on_c, 0, 67, 69
1, 136560, Note_on_c, 0, 55, 52
1, 136600, Tempo, 413793
1, 136640, Tempo, 412371
1, 136679, Note_on_c, 0, 55, 0
1, 136679, Note_on_c, 0, 67, 0
1, 136680, Note_on_c, 0, 64, 69
1, 136680, Note_on_c, 0, 48, 52
1, 136720, Tempo, 410959
1, 136760, Tempo, 409556
1, 136799, Note_on_c, 0, 48, 0
1, 136799, Note_on_c, 0, 64, 0
1, 136800, Tempo, 408163
1, 136800, Note_on_c, 0, 64, 101
1, 136800, Note_on_c, 0, 48, 61
1, 136919, Note_on_c, 0, 48, 0
1, 136920, Note_on_c, 0, 55, 70
1, 136920, Note_on_c, 0, 43, 50
1, 137039, Note_on_c, 0, 43, 0
1, 137039, Note_on_c, 0, 55, 0
1, 137040, Note_on_c, 0, 52, 70
1, 137040, Note_on_c, 0, 36, 50
1, 137159, Note_on_c, 0, 36, 0
1, 137159, Note_on_c, 0, 52, 0
1, 137160, Note_on_c, 0, 55, 70
1, 137160, Note_on_c, 0, 43, 50
1, 137240, Tempo, 409556
1, 137279, Note_on_c, 0, 43, 0
1, 137279, Note_on_c, 0, 55, 0
1, 137280, Note_on_c, 0, 64, 0
1, 137280, Note_on_c, 0, 50, 106
1, 137280, Note_on_c, 0, 47, 59
1, 137297, Control_c, 0, 64, 0
1, 137360, Tempo, 410959
1, 137371, Control_c, 0, 64, 127
1, 137399, Note_on_c, 0, 47, 0
1, 137399, Note_on_c, 0, 50, 0
1, 137400, Note_on_c, 0, 55, 63
1, 137400, Note_on_c, 0, 43, 50
1, 137480, Tempo, 412371
1, 137519, Note_on_c, 0, 43, 0
1, 137519, Note_on_c, 0, 55, 0
1, 137520, Note_on_c, 0, 62, 82
1, 137520, Note_on_c, 0, 36, 50
1, 137560, Tempo, 413793
1, 137639, Note_on_c, 0, 36, 0
1, 137639, Note_on_c, 0, 62, 0
1, 137640, Note_on_c, 0, 55, 66
1, 137640, Note_on_c, 0, 43, 50
1, 137680, Tempo, 415225
1, 137759, Note_on_c, 0, 43, 0
1, 137759, Note_on_c, 0, 55, 0
1, 137760, Tempo, 416667
1, 137760, Note_on_c, 0, 53, 102
1, 137760, Note_on_c, 0, 50, 56
1, 137771, Control_c, 0, 64, 0
1, 137817, Control_c, 0, 64, 127
1, 137879, Note_on_c, 0, 50, 0
1, 137879, Note_on_c, 0, 53, 0
1, 137880, Tempo, 418118
1, 137880, Note_on_c, 0, 55, 62
1, 137880, Note_on_c, 0, 43, 49
1, 137960, Tempo, 419580
1, 137999, Note_on_c, 0, 43, 0
1, 137999, Note_on_c, 0, 55, 0
1, 138000, Tempo, 418118
1, 138000, Note_on_c, 0, 67, 75
1, 138000, Note_on_c, 0, 36, 49
1, 138040, Tempo, 422535
1, 138080, Tempo, 427046
1, 138119, Note_on_c, 0, 36, 0
1, 138120, Tempo, 431655
1, 138120, Note_on_c, 0, 55, 62
1, 138120, Note_on_c, 0, 43, 49
1, 138160, Tempo, 436364
1, 138200, Tempo, 441176
1, 138239, Note_on_c, 0, 43, 0
1, 138239, Note_on_c, 0, 55, 0
1, 138240, Tempo, 418118
1, 138240, Note_on_c, 0, 67, 0
1, 138240, Note_on_c, 0, 52, 108
1, 138240, Text_t, "bdca426d104a26ac9dcb070447587523"
1, 138240, Control_c, 0, 91, 127
1, 138240, Note_on_c, 0, 36, 74
1, 138246, Tempo, 418118
1, 138254, Tempo, 416667
1, 138258, Control_c, 0, 64, 0
1, 138270, Tempo, 415225
1, 138278, Tempo, 413793
1, 138280, Control_c, 0, 64, 127
1, 138286, Tempo, 412371
1, 138320, Tempo, 410959
1, 138359, Note_on_c, 0, 36, 0
1, 138359, Note_on_c, 0, 52, 0
1, 138360, Tempo, 409556
1, 138360, Note_on_c, 0, 55, 70
1, 138360, Note_on_c, 0, 43, 56
1, 138400, Tempo, 406780
1, 138440, Tempo, 405405
1, 138479, Note_on_c, 0, 43, 0
1, 138479, Note_on_c, 0, 55, 0
1, 138480, Tempo, 404040
1, 138480, Note_on_c, 0, 64, 70
1, 138480, Note_on_c, 0, 48, 56
1, 138520, Tempo, 401338
1, 138560, Tempo, 400000
1, 138599, Note_on_c, 0, 48, 0
1, 138599, Note_on_c, 0, 64, 0
1, 138600, Tempo, 398671
1, 138600, Note_on_c, 0, 64, 70
1, 138600, Note_on_c, 0, 48, 53
1, 138640, Tempo, 396040
1, 138719, Note_on_c, 0, 48, 0
1, 138719, Note_on_c, 0, 64, 0
1, 138720, Tempo, 394737
1, 138720, Note_on_c, 0, 67, 85
1, 138720, Note_on_c, 0, 55, 66
1, 138800, Tempo, 393443
1, 138839, Note_on_c, 0, 55, 0
1, 138839, Note_on_c, 0, 67, 0
1, 138840, Note_on_c, 0, 76, 71
1, 138840, Note_on_c, 0, 60, 53
1, 138880, Tempo, 392157
1, 138959, Note_on_c, 0, 60, 0
1, 138959, Note_on_c, 0, 76, 0
1, 138960, Tempo, 390879
1, 138960, Note_on_c, 0, 76, 70
1, 138960, Note_on_c, 0, 60, 53
1, 139040, Tempo, 389610
1, 139079, Note_on_c, 0, 60, 0
1, 139079, Note_on_c, 0, 76, 0
1, 139080, Note_on_c, 0, 79, 70
1, 139080, Note_on_c, 0, 67, 53
1, 139120, Tempo, 388350
1, 139199, Note_on_c, 0, 67, 0
1, 139199, Note_on_c, 0, 79, 0
1, 139200, Tempo, 387097
1, 139200, Note_on_c, 0, 88, 83
1, 139200, Note_on_c, 0, 72, 72
1, 139319, Note_on_c, 0, 72, 0
1, 139319, Note_on_c, 0, 88, 0
1, 139320, Tempo, 388350
1, 139320, Note_on_c, 0, 88, 75
1, 139320, Note_on_c, 0, 72, 53
1, 139400, Tempo, 389610
1, 139439, Note_on_c, 0, 72, 0
1, 139439, Note_on_c, 0, 88, 0
1, 139440, Note_on_c, 0, 91, 73
1, 139440, Note_on_c, 0, 79, 53
1, 139480, Tempo, 390879
1, 139559, Note_on_c, 0, 79, 0
1, 139559, Note_on_c, 0, 91, 0
1, 139560, Tempo, 392157
1, 139560, Note_on_c, 0, 100, 73
1, 139560, Note_on_c, 0, 84, 53
1, 139640, Tempo, 393443
1, 139679, Note_on_c, 0, 84, 0
1, 139679, Note_on_c, 0, 100, 0
1, 139680, Tempo, 396040
1, 139680, Note_on_c, 0, 91, 82
1, 139680, Note_on_c, 0, 79, 67
1, 139720, Tempo, 400000
1, 139760, Tempo, 402685
1, 139799, Note_on_c, 0, 79, 0
1, 139799, Note_on_c, 0, 91, 0
1, 139800, Tempo, 406780
1, 139800, Note_on_c, 0, 88, 72
1, 139800, Note_on_c, 0, 72, 53
1, 139840, Tempo, 409556
1, 139880, Tempo, 413793
1, 139919, Note_on_c, 0, 72, 0
1, 139919, Note_on_c, 0, 88, 0
1, 139920, Tempo, 418118
1, 139920, Note_on_c, 0, 88, 72
1, 139920, Note_on_c, 0, 72, 53
1, 139960, Tempo, 421053
1, 140000, Tempo, 425532
1, 140039, Note_on_c, 0, 72, 0
1, 140039, Note_on_c, 0, 88, 0
1, 140040, Tempo, 428571
1, 140040, Note_on_c, 0, 79, 71
1, 140040, Note_on_c, 0, 67, 53
1, 140080, Tempo, 433213
1, 140120, Tempo, 437956
1, 140159, Note_on_c, 0, 67, 0
1, 140159, Note_on_c, 0, 79, 0
1, 140160, Tempo, 415225
1, 140160, Note_on_c, 0, 76, 81
1, 140160, Text_t, "bdca426d104a26ac9dcb070447587523"
1, 140160, Control_c, 0, 91, 127
1, 140160, Note_on_c, 0, 60, 69
1, 140279, Note_on_c, 0, 60, 0
1, 140279, Note_on_c, 0, 76, 0
1, 140280, Note_on_c, 0, 76, 69
1, 140280, Note_on_c, 0, 60, 52
1, 140399, Note_on_c, 0, 60, 0
1, 140399, Note_on_c, 0, 76, 0
1, 140400, Note_on_c, 0, 67, 69
1, 140400, Note_on_c, 0, 55, 52
1, 140480, Tempo, 413793
1, 140519, Note_on_c, 0, 55, 0
1, 140519, Note_on_c, 0, 67, 0
1, 140520, Note_on_c, 0, 64, 69
1, 140520, Note_on_c, 0, 48, 52
1, 140639, Note_on_c, 0, 48, 0
1, 140639, Note_on_c, 0, 64, 0
1, 140640, Note_on_c, 0, 64, 105
1, 140640, Note_on_c, 0, 48, 61
1, 140759, Note_on_c, 0, 48, 0
1, 140760, Note_on_c, 0, 55, 70
1, 140760, Note_on_c, 0, 43, 50
1, 140800, Tempo, 412371
1, 140879, Note_on_c, 0, 43, 0
1, 140879, Note_on_c, 0, 55, 0
1, 140880, Note_on_c, 0, 52, 70
1, 140880, Note_on_c, 0, 36, 50
1, 140999, Note_on_c, 0, 36, 0
1, 140999, Note_on_c, 0, 52, 0
1, 141000, Note_on_c, 0, 55, 70
1, 141000, Note_on_c, 0, 43, 50
1, 141080, Tempo, 410959
1, 141119, Note_on_c, 0, 43, 0
1, 141119, Note_on_c, 0, 55, 0
1, 141120, Note_on_c, 0, 64, 0
1, 141120, Note_on_c, 0, 50, 104
1, 141120, Note_on_c, 0, 47, 59
1, 141137, Control_c, 0, 64, 0
1, 141211, Control_c, 0, 64, 127
1, 141239, Note_on_c, 0, 47, 0
1, 141239, Note_on_c, 0, 50, 0
1, 141240, Tempo, 412371
1, 141240, Note_on_c, 0, 55, 63
1, 141240, Note_on_c, 0, 43, 50
1, 141359, Note_on_c, 0, 43, 0
1, 141359, Note_on_c, 0, 55, 0
1, 141360, Tempo, 413793
1, 141360, Note_on_c, 0, 62, 82
1, 141360, Note_on_c, 0, 36, 50
1, 141479, Note_on_c, 0, 36, 0
1, 141480, Note_on_c, 0, 55, 66
1, 141480, Note_on_c, 0, 43, 50
1, 141520, Tempo, 415225
1, 141560, Tempo, 415225
1, 141599, Note_on_c, 0, 43, 0
1, 141599, Note_on_c, 0, 55, 0
1, 141600, Tempo, 416667
1, 141600, Note_on_c, 0, 48, 103
1, 141600, Note_on_c, 0, 45, 56
1, 141611, Control_c, 0, 64, 0
1, 141640, Tempo, 419580
1, 141657, Control_c, 0, 64, 127
1, 141680, Tempo, 422535
1, 141719, Note_on_c, 0, 45, 0
1, 141719, Note_on_c, 0, 48, 0
1, 141720, Tempo, 425532
1, 141720, Note_on_c, 0, 55, 62
1, 141720, Note_on_c, 0, 43, 49
1, 141760, Tempo, 428571
1, 141800, Tempo, 431655
1, 141839, Note_on_c, 0, 43, 0
1, 141839, Note_on_c, 0, 55, 0
1, 141840, Tempo, 434783
1, 141840, Note_on_c, 0, 62, 0
1, 141840, Note_on_c, 0, 60, 75
1, 141840, Note_on_c, 0, 36, 49
1, 141880, Tempo, 437956
1, 141920, Tempo, 441176
1, 141959, Note_on_c, 0, 36, 0
1, 141960, Tempo, 444444
1, 141960, Note_on_c, 0, 55, 62
1, 141960, Note_on_c, 0, 43, 49
1, 142000, Tempo, 447761
1, 142040, Tempo, 451128
1, 142079, Note_on_c, 0, 43, 0
1, 142079, Note_on_c, 0, 55, 0
1, 142080, Tempo, 424028
1, 142080, Note_on_c, 0, 60, 0
1, 142080, Note_on_c, 0, 50, 109
1, 142080, Text_t, "bdca426d104a26ac9dcb070447587523"
1, 142080, Control_c, 0, 91, 127
1, 142080, Note_on_c, 0, 36, 74
1, 142086, Tempo, 418118
1, 142094, Tempo, 416667
1, 142098, Control_c, 0, 64, 0
1, 142110, Tempo, 415225
1, 142118, Tempo, 413793
1, 142126, Tempo, 412371
1, 142126, Control_c, 0, 64, 127
1, 142160, Tempo, 410959
1, 142199, Note_on_c, 0, 36, 0
1, 142199, Note_on_c, 0, 50, 0
1, 142200, Tempo, 409556
1, 142200, Note_on_c, 0, 55, 70
1, 142200, Note_on_c, 0, 43, 56
1, 142240, Tempo, 406780
1, 142280, Tempo, 405405
1, 142319, Note_on_c, 0, 43, 0
1, 142319, Note_on_c, 0, 55, 0
1, 142320, Tempo, 404040
1, 142320, Note_on_c, 0, 62, 70
1, 142320, Note_on_c, 0, 47, 56
1, 142360, Tempo, 401338
1, 142400, Tempo, 400000
1, 142439, Note_on_c, 0, 47, 0
1, 142439, Note_on_c, 0, 62, 0
1, 142440, Tempo, 398671
1, 142440, Note_on_c, 0, 62, 70
1, 142440, Note_on_c, 0, 48, 53
1, 142480, Tempo, 396040
1, 142559, Note_on_c, 0, 48, 0
1, 142560, Tempo, 394737
1, 142560, Note_on_c, 0, 67, 85
1, 142560, Note_on_c, 0, 55, 66
1, 142640, Tempo, 393443
1, 142679, Note_on_c, 0, 55, 0
1, 142679, Note_on_c, 0, 67, 0
1, 142680, Note_on_c, 0, 62, 0
1, 142680, Note_on_c, 0, 74, 71
1, 142680, Note_on_c, 0, 59, 53
1, 142720, Tempo, 392157
1, 142799, Note_on_c, 0, 59, 0
1, 142799, Note_on_c, 0, 74, 0
1, 142800, Tempo, 390879
1, 142800, Note_on_c, 0, 74, 70
1, 142800, Note_on_c, 0, 60, 53
1, 142880, Tempo, 389610
1, 142919, Note_on_c, 0, 60, 0
1, 142919, Note_on_c, 0, 74, 0
1, 142920, Note_on_c, 0, 79, 70
1, 142920, Note_on_c, 0, 67, 53
1, 142960, Tempo, 388350
1, 143039, Note_on_c, 0, 67, 0
1, 143039, Note_on_c, 0, 79, 0
1, 143040, Tempo, 387097
1, 143040, Note_on_c, 0, 86, 87
1, 143040, Note_on_c, 0, 71, 72
1, 143159, Note_on_c, 0, 71, 0
1, 143159, Note_on_c, 0, 86, 0
1, 143160, Tempo, 388350
1, 143160, Note_on_c, 0, 86, 75
1, 143160, Note_on_c, 0, 72, 53
1, 143240, Tempo, 389610
1, 143279, Note_on_c, 0, 72, 0
1, 143279, Note_on_c, 0, 86, 0
1, 143280, Note_on_c, 0, 91, 73
1, 143280, Note_on_c, 0, 79, 53
1, 143320, Tempo, 390879
1, 143399, Note_on_c, 0, 79, 0
1, 143399, Note_on_c, 0, 91, 0
1, 143400, Tempo, 392157
1, 143400, Note_on_c, 0, 98, 73
1, 143400, Note_on_c, 0, 83, 53
1, 143480, Tempo, 393443
1, 143519, Note_on_c, 0, 83, 0
1, 143519, Note_on_c, 0, 98, 0
1, 143520, Tempo, 396040
1, 143520, Note_on_c, 0, 91, 82
1, 143520, Note_on_c, 0, 79, 67
1, 143560, Tempo, 400000
1, 143600, Tempo, 402685
1, 143639, Note_on_c, 0, 79, 0
1, 143639, Note_on_c, 0, 91, 0
1, 143640, Tempo, 406780
1, 143640, Note_on_c, 0, 86, 72
1, 143640, Note_on_c, 0, 72, 53
1, 143680, Tempo, 409556
1, 143720, Tempo, 413793
1, 143759, Note_on_c, 0, 72, 0
1, 143759, Note_on_c, 0, 86, 0
1, 143760, Tempo, 418118
1, 143760, Note_on_c, 0, 86, 72
1, 143760, Note_on_c, 0, 71, 53
1, 143800, Tempo, 421053
1, 143840, Tempo, 425532
1, 143879, Note_on_c, 0, 71, 0
1, 143879, Note_on_c, 0, 86, 0
1, 143880, Tempo, 428571
1, 143880, Note_on_c, 0, 79, 71
1, 143880, Note_on_c, 0, 67, 53
1, 143920, Tempo, 433213
1, 143960, Tempo, 412371
1, 143999, Note_on_c, 0, 67, 0
1, 143999, Note_on_c, 0, 79, 0
1, 144000, Note_on_c, 0, 74, 81
1, 144000, Text_t, "bdca426d104a26ac9dcb070447587523"
1, 144000, Control_c, 0, 91, 127
1, 144000, Note_on_c, 0, 60, 69
1, 144119, Note_on_c, 0, 60, 0
1, 144119, Note_on_c, 0, 74, 0
1, 144120, Tempo, 410959
1, 144120, Note_on_c, 0, 74, 69
1, 144120, Note_on_c, 0, 59, 52
1, 144239, Note_on_c, 0, 59, 0
1, 144239, Note_on_c, 0, 74, 0
1, 144240, Note_on_c, 0, 67, 69
1, 144240, Note_on_c, 0, 55, 52
1, 144280, Tempo, 409556
1, 144359, Note_on_c, 0, 55, 0
1, 144359, Note_on_c, 0, 67, 0
1, 144360, Note_on_c, 0, 62, 69
1, 144360, Note_on_c, 0, 48, 52
1, 144440, Tempo, 408163
1, 144479, Note_on_c, 0, 48, 0
1, 144479, Note_on_c, 0, 62, 0
1, 144480, Note_on_c, 0, 62, 101
1, 144480, Note_on_c, 0, 47, 61
1, 144599, Note_on_c, 0, 47, 0
1, 144600, Tempo, 406780
1, 144600, Note_on_c, 0, 55, 70
1, 144600, Note_on_c, 0, 43, 50
1, 144719, Note_on_c, 0, 43, 0
1, 144719, Note_on_c, 0, 55, 0
1, 144720, Note_on_c, 0, 50, 70
1, 144720, Note_on_c, 0, 36, 50
1, 144760, Tempo, 405405
1, 144839, Note_on_c, 0, 36, 0
1, 144839, Note_on_c, 0, 50, 0
1, 144840, Note_on_c, 0, 55, 70
1, 144840, Note_on_c, 0, 43, 50
1, 144920, Tempo, 404040
1, 144959, Note_on_c, 0, 43, 0
1, 144959, Note_on_c, 0, 55, 0
1, 144960, Note_on_c, 0, 62, 0
1, 144960, Note_on_c, 0, 48, 100
1, 144960, Note_on_c, 0, 45, 59
1, 144971, Control_c, 0, 64, 0
1, 145017, Control_c, 0, 64, 127
1, 145040, Tempo, 405405
1, 145079, Note_on_c, 0, 45, 0
1, 145079, Note_on_c, 0, 48, 0
1, 145080, Note_on_c, 0, 53, 63
1, 145080, Note_on_c, 0, 41, 50
1, 145120, Tempo, 406780
1, 145199, Note_on_c, 0, 41, 0
1, 145199, Note_on_c, 0, 53, 0
1, 145200, Note_on_c, 0, 60, 82
1, 145200, Note_on_c, 0, 36, 50
1, 145240, Tempo, 408163
1, 145319, Note_on_c, 0, 36, 0
1, 145320, Tempo, 409556
1, 145320, Note_on_c, 0, 53, 66
1, 145320, Note_on_c, 0, 41, 50
1, 145400, Tempo, 412371
1, 145439, Note_on_c, 0, 41, 0
1, 145439, Note_on_c, 0, 53, 0
1, 145440, Tempo, 415225
1, 145440, Note_on_c, 0, 48, 99
1, 145440, Note_on_c, 0, 45, 56
1, 145451, Control_c, 0, 64, 0
1, 145480, Tempo, 418118
1, 145497, Control_c, 0, 64, 127
1, 145520, Tempo, 422535
1, 145559, Note_on_c, 0, 45, 0
1, 145559, Note_on_c, 0, 48, 0
1, 145560, Tempo, 425532
1, 145560, Note_on_c, 0, 53, 62
1, 145560, Note_on_c, 0, 41, 49
1, 145600, Tempo, 428571
1, 145640, Tempo, 433213
1, 145679, Note_on_c, 0, 41, 0
1, 145679, Note_on_c, 0, 53, 0
1, 145680, Tempo, 436364
1, 145680, Note_on_c, 0, 60, 0
1, 145680, Note_on_c, 0, 57, 75
1, 145680, Note_on_c, 0, 36, 49
1, 145720, Tempo, 439560
1, 145760, Tempo, 444444
1, 145799, Note_on_c, 0, 36, 0
1, 145800, Tempo, 447761
1, 145800, Note_on_c, 0, 53, 62
1, 145800, Note_on_c, 0, 41, 49
1, 145840, Tempo, 451128
1, 145880, Tempo, 456274
1, 145919, Note_on_c, 0, 41, 0
1, 145919, Note_on_c, 0, 53, 0
1, 145920, Tempo, 421053
1, 145920, Note_on_c, 0, 57, 0
1, 145920, Note_on_c, 0, 48, 100
1, 145920, Text_t, "bdca426d104a26ac9dcb070447587523"
1, 145920, Control_c, 0, 91, 127
1, 145920, Note_on_c, 0, 36, 69
1, 145924, Tempo, 424028
1, 145926, Tempo, 418118
1, 145934, Tempo, 416667
1, 145938, Control_c, 0, 64, 0
1, 145950, Tempo, 415225
1, 145958, Tempo, 413793
1, 145966, Tempo, 412371
1, 146000, Tempo, 410959
1, 146005, Control_c, 0, 64, 127
1, 146039, Note_on_c, 0, 36, 0
1, 146039, Note_on_c, 0, 48, 0
1, 146040, Tempo, 409556
1, 146040, Note_on_c, 0, 53, 70
1, 146040, Note_on_c, 0, 44, 55
1, 146080, Tempo, 406780
1, 146120, Tempo, 405405
1, 146159, Note_on_c, 0, 44, 0
1, 146159, Note_on_c, 0, 53, 0
1, 146160, Tempo, 404040
1, 146160, Note_on_c, 0, 60, 70
1, 146160, Note_on_c, 0, 48, 55
1, 146200, Tempo, 401338
1, 146240, Tempo, 400000
1, 146279, Note_on_c, 0, 48, 0
1, 146279, Note_on_c, 0, 60, 0
1, 146280, Tempo, 398671
1, 146280, Note_on_c, 0, 60, 70
1, 146280, Note_on_c, 0, 48, 55
1, 146320, Tempo, 396040
1, 146399, Note_on_c, 0, 48, 0
1, 146399, Note_on_c, 0, 60, 0
1, 146400, Tempo, 394737
1, 146400, Note_on_c, 0, 65, 85
1, 146400, Note_on_c, 0, 56, 63
1, 146480, Tempo, 393443
1, 146519, Note_on_c, 0, 56, 0
1, 146519, Note_on_c, 0, 65, 0
1, 146520, Note_on_c, 0, 72, 71
1, 146520, Note_on_c, 0, 60, 53
1, 146560, Tempo, 392157
1, 146639, Note_on_c, 0, 60, 0
1, 146639, Note_on_c, 0, 72, 0
1, 146640, Tempo, 390879
1, 146640, Note_on_c, 0, 72, 70
1, 146640, Note_on_c, 0, 60, 53
1, 146720, Tempo, 389610
1, 146759, Note_on_c, 0, 60, 0
1, 146759, Note_on_c, 0, 72, 0
1, 146760, Note_on_c, 0, 77, 70
1, 146760, Note_on_c, 0, 68, 53
1, 146800, Tempo, 388350
1, 146879, Note_on_c, 0, 68, 0
1, 146879, Note_on_c, 0, 77, 0
1, 146880, Tempo, 387097
1, 146880, Note_on_c, 0, 84, 91
1, 146880, Note_on_c, 0, 72, 67
1, 146999, Note_on_c, 0, 72, 0
1, 146999, Note_on_c, 0, 84, 0
1, 147000, Tempo, 388350
1, 147000, Note_on_c, 0, 84, 73
1, 147000, Note_on_c, 0, 72, 53
1, 147080, Tempo, 389610
1, 147119, Note_on_c, 0, 72, 0
1, 147119, Note_on_c, 0, 84, 0
1, 147120, Note_on_c, 0, 89, 73
1, 147120, Note_on_c, 0, 80, 53
1, 147160, Tempo, 390879
1, 147239, Note_on_c, 0, 80, 0
1, 147239, Note_on_c, 0, 89, 0
1, 147240, Tempo, 392157
1, 147240, Note_on_c, 0, 96, 73
1, 147240, Note_on_c, 0, 84, 53
1, 147320, Tempo, 393443
1, 147359, Note_on_c, 0, 84, 0
1, 147359, Note_on_c, 0, 96, 0
1, 147360, Tempo, 396040
1, 147360, Note_on_c, 0, 89, 82
1, 147360, Note_on_c, 0, 80, 67
1, 147400, Tempo, 400000
1, 147440, Tempo, 402685
1, 147479, Note_on_c, 0, 80, 0
1, 147479, Note_on_c, 0, 89, 0
1, 147480, Tempo, 406780
1, 147480, Note_on_c, 0, 84, 72
1, 147480, Note_on_c, 0, 72, 53
1, 147520, Tempo, 409556
1, 147560, Tempo, 413793
1, 147599, Note_on_c, 0, 72, 0
1, 147599, Note_on_c, 0, 84, 0
1, 147600, Tempo, 418118
1, 147600, Note_on_c, 0, 84, 72
1, 147600, Note_on_c, 0, 72, 53
1, 147640, Tempo, 421053
1, 147680, Tempo, 425532
1, 147719, Note_on_c, 0, 72, 0
1, 147719, Note_on_c, 0, 84, 0
1, 147720, Tempo, 428571
1, 147720, Note_on_c, 0, 77, 71
1, 147720, Note_on_c, 0, 68, 53
1, 147760, Tempo, 433213
1, 147800, Tempo, 408163
1, 147839, Note_on_c, 0, 68, 0
1, 147839, Note_on_c, 0, 77, 0
1, 147840, Note_on_c, 0, 72, 81
1, 147840, Text_t, "bdca426d104a26ac9dcb070447587523"
1, 147840, Control_c, 0, 91, 127
1, 147840, Note_on_c, 0, 60, 69
1, 147959, Note_on_c, 0, 60, 0
1, 147959, Note_on_c, 0, 72, 0
1, 147960, Tempo, 406780
1, 147960, Note_on_c, 0, 72, 69
1, 147960, Note_on_c, 0, 60, 52
1, 148079, Note_on_c, 0, 60, 0
1, 148079, Note_on_c, 0, 72, 0
1, 148080, Tempo, 405405
1, 148080, Note_on_c, 0, 65, 69
1, 148080, Note_on_c, 0, 56, 52
1, 148199, Note_on_c, 0, 56, 0
1, 148199, Note_on_c, 0, 65, 0
1, 148200, Note_on_c, 0, 60, 69
1, 148200, Note_on_c, 0, 48, 52
1, 148240, Tempo, 404040
1, 148319, Note_on_c, 0, 48, 0
1, 148319, Note_on_c, 0, 60, 0
1, 148320, Note_on_c, 0, 60, 104
1, 148320, Note_on_c, 0, 48, 61
1, 148360, Tempo, 402685
1, 148439, Note_on_c, 0, 48, 0
1, 148440, Note_on_c, 0, 53, 73
1, 148440, Note_on_c, 0, 44, 50
1, 148520, Tempo, 401338
1, 148559, Note_on_c, 0, 44, 0
1, 148559, Note_on_c, 0, 53, 0
1, 148560, Note_on_c, 0, 48, 73
1, 148560, Note_on_c, 0, 36, 50
1, 148640, Tempo, 400000
1, 148679, Note_on_c, 0, 36, 0
1, 148679, Note_on_c, 0, 48, 0
1, 148680, Note_on_c, 0, 53, 73
1, 148680, Note_on_c, 0, 44, 50
1, 148720, Tempo, 401338
1, 148799, Note_on_c, 0, 44, 0
1, 148799, Note_on_c, 0, 53, 0
1, 148800, Tempo, 402685
1, 148800, Note_on_c, 0, 60, 0
1, 148800, Note_on_c, 0, 48, 103
1, 148800, Note_on_c, 0, 36, 59
1, 148818, Control_c, 0, 64, 0
1, 148880, Tempo, 404040
1, 148892, Control_c, 0, 64, 127
1, 148919, Note_on_c, 0, 36, 0
1, 148919, Note_on_c, 0, 48, 0
1, 148920, Note_on_c, 0, 53, 68
1, 148920, Note_on_c, 0, 44, 50
1, 148960, Tempo, 405405
1, 149000, Tempo, 406780
1, 149039, Note_on_c, 0, 44, 0
1, 149039, Note_on_c, 0, 53, 0
1, 149040, Note_on_c, 0, 60, 82
1, 149040, Note_on_c, 0, 48, 50
1, 149080, Tempo, 408163
1, 149159, Note_on_c, 0, 48, 0
1, 149160, Tempo, 409556
1, 149160, Note_on_c, 0, 53, 66
1, 149160, Note_on_c, 0, 44, 50
1, 149240, Tempo, 410959
1, 149279, Note_on_c, 0, 44, 0
1, 149279, Note_on_c, 0, 53, 0
1, 149280, Tempo, 412371
1, 149280, Note_on_c, 0, 48, 100
1, 149280, Note_on_c, 0, 36, 56
1, 149291, Control_c, 0, 64, 0
1, 149320, Tempo, 397351
1, 149337, Control_c, 0, 64, 127
1, 149360, Tempo, 401338
1, 149399, Note_on_c, 0, 36, 0
1, 149399, Note_on_c, 0, 48, 0
1, 149400, Tempo, 405405
1, 149400, Note_on_c, 0, 53, 62
1, 149400, Note_on_c, 0, 44, 49
1, 149440, Tempo, 409556
1, 149480, Tempo, 413793
1, 149519, Note_on_c, 0, 44, 0
1, 149519, Note_on_c, 0, 53, 0
1, 149520, Tempo, 418118
1, 149520, Note_on_c, 0, 60, 0
1, 149520, Note_on_c, 0, 62, 75
1, 149520, Note_on_c, 0, 48, 49
1, 149560, Tempo, 422535
1, 149600, Tempo, 427046
1, 149639, Note_on_c, 0, 48, 0
1, 149640, Tempo, 431655
1, 149640, Note_on_c, 0, 53, 62
1, 149640, Note_on_c, 0, 44, 49
1, 149680, Tempo, 436364
1, 149720, Tempo, 441176
1, 149759, Note_on_c, 0, 44, 0
1, 149759, Note_on_c, 0, 53, 0
1, 149760, Tempo, 425532
1, 149760, Note_on_c, 0, 62, 0
1, 149760, Note_on_c, 0, 48, 107
1, 149760, Text_t, "bdca426d104a26ac9dcb070447587523"
1, 149760, Control_c, 0, 91, 127
1, 149760, Note_on_c, 0, 36, 74
1, 149766, Tempo, 418118
1, 149774, Tempo, 416667
1, 149780, Control_c, 0, 64, 0
1, 149790, Tempo, 415225
1, 149798, Tempo, 413793
1, 149806, Tempo, 412371
1, 149809, Control_c, 0, 64, 127
1, 149840, Tempo, 410959
1, 149879, Note_on_c, 0, 36, 0
1, 149879, Note_on_c, 0, 48, 0
1, 149880, Tempo, 409556
1, 149880, Note_on_c, 0, 53, 73
1, 149880, Note_on_c, 0, 44, 56
1, 149920, Tempo, 406780
1, 149960, Tempo, 405405
1, 149999, Note_on_c, 0, 44, 0
1, 149999, Note_on_c, 0, 53, 0
1, 150000, Tempo, 404040
1, 150000, Note_on_c, 0, 60, 73
1, 150000, Note_on_c, 0, 48, 56
1, 150040, Tempo, 401338
1, 150080, Tempo, 400000
1, 150119, Note_on_c, 0, 48, 0
1, 150119, Note_on_c, 0, 60, 0
1, 150120, Tempo, 398671
1, 150120, Note_on_c, 0, 60, 73
1, 150120, Note_on_c, 0, 48, 53
1, 150160, Tempo, 396040
1, 150239, Note_on_c, 0, 48, 0
1, 150239, Note_on_c, 0, 60, 0
1, 150240, Tempo, 394737
1, 150240, Note_on_c, 0, 65, 85
1, 150240, Note_on_c, 0, 56, 66
1, 150320, Tempo, 393443
1, 150359, Note_on_c, 0, 56, 0
1, 150359, Note_on_c, 0, 65, 0
1, 150360, Note_on_c, 0, 72, 71
1, 150360, Note_on_c, 0, 60, 53
1, 150400, Tempo, 392157
1, 150479, Note_on_c, 0, 60, 0
1, 150479, Note_on_c, 0, 72, 0
1, 150480, Tempo, 390879
1, 150480, Note_on_c, 0, 72, 70
1, 150480, Note_on_c, 0, 60, 53
1, 150560, Tempo, 389610
1, 150599, Note_on_c, 0, 60, 0
1, 150599, Note_on_c, 0, 72, 0
1, 150600, Note_on_c, 0, 77, 70
1, 150600, Note_on_c, 0, 68, 53
1, 150640, Tempo, 388350
1, 150719, Note_on_c, 0, 68, 0
1, 150719, Note_on_c, 0, 77, 0
1, 150720, Tempo, 387097
1, 150720, Note_on_c, 0, 84, 89
1, 150720, Note_on_c, 0, 72, 72
1, 150839, Note_on_c, 0, 72, 0
1, 150839, Note_on_c, 0, 84, 0
1, 150840, Tempo, 388350
1, 150840, Note_on_c, 0, 84, 75
1, 150840, Note_on_c, 0, 72, 53
1, 150920, Tempo, 389610
1, 150959, Note_on_c, 0, 72, 0
1, 150959, Note_on_c, 0, 84, 0
1, 150960, Note_on_c, 0, 89, 73
1, 150960, Note_on_c, 0, 80, 53
1, 151000, Tempo, 390879
1, 151079, Note_on_c, 0, 80, 0
1, 151079, Note_on_c, 0, 89, 0
1, 151080, Tempo, 392157
1, 151080, Note_on_c, 0, 96, 73
1, 151080, Note_on_c, 0, 84, 53
1, 151160, Tempo, 393443
1, 151199, Note_on_c, 0, 84, 0
1, 151199, Note_on_c, 0, 96, 0
1, 151200, Tempo, 396040
1, 151200, Note_on_c, 0, 89, 82
1, 151200, Note_on_c, 0, 80, 67
1, 151240, Tempo, 400000
1, 151280, Tempo, 402685
1, 151319, Note_on_c, 0, 80, 0
1, 151319, Note_on_c, 0, 89, 0
1, 151320, Tempo, 406780
1, 151320, Note_on_c, 0, 84, 72
1, 151320, Note_on_c, 0, 72, 53
1, 151360, Tempo, 409556
1, 151400, Tempo, 413793
1, 151439, Note_on_c, 0, 72, 0
1, 151439, Note_on_c, 0, 84, 0
1, 151440, Tempo, 418118
1, 151440, Note_on_c, 0, 84, 72
1, 151440, Note_on_c, 0, 72, 53
1, 151480, Tempo, 421053
1, 151520, Tempo, 425532
1, 151559, Note_on_c, 0, 72, 0
1, 151559, Note_on_c, 0, 84, 0
1, 151560, Tempo, 428571
1, 151560, Note_on_c, 0, 77, 71
1, 151560, Note_on_c, 0, 68, 53
1, 151600, Tempo, 433213
1, 151640, Tempo, 437956
1, 151679, Note_on_c, 0, 68, 0
1, 151679, Note_on_c, 0, 77, 0
1, 151680, Tempo, 409556
1, 151680, Note_on_c, 0, 72, 81
1, 151680, Text_t, "bdca426d104a26ac9dcb070447587523"
1, 151680, Control_c, 0, 91, 127
1, 151680, Note_on_c, 0, 60, 69
1, 151799, Note_on_c, 0, 60, 0
1, 151799, Note_on_c, 0, 72, 0
1, 151800, Tempo, 408163
1, 151800, Note_on_c, 0, 72, 69
1, 151800, Note_on_c, 0, 60, 52
1, 151919, Note_on_c, 0, 60, 0
1, 151919, Note_on_c, 0, 72, 0
1, 151920, Tempo, 406780
1, 151920, Note_on_c, 0, 65, 69
1, 151920, Note_on_c, 0, 56, 52
1, 152039, Note_on_c, 0, 56, 0
1, 152039, Note_on_c, 0, 65, 0
1, 152040, Tempo, 405405
1, 152040, Note_on_c, 0, 60, 69
1, 152040, Note_on_c, 0, 48, 52
1, 152159, Note_on_c, 0, 48, 0
1, 152159, Note_on_c, 0, 60, 0
1, 152160, Tempo, 404040
1, 152160, Note_on_c, 0, 60, 106
1, 152160, Note_on_c, 0, 48, 72
1, 152279, Note_on_c, 0, 48, 0
1, 152280, Tempo, 402685
1, 152280, Note_on_c, 0, 53, 70
1, 152280, Note_on_c, 0, 44, 50
1, 152399, Note_on_c, 0, 44, 0
1, 152399, Note_on_c, 0, 53, 0
1, 152400, Tempo, 401338
1, 152400, Note_on_c, 0, 48, 70
1, 152400, Note_on_c, 0, 36, 50
1, 152519, Note_on_c, 0, 36, 0
1, 152519, Note_on_c, 0, 48, 0
1, 152520, Tempo, 400000
1, 152520, Note_on_c, 0, 53, 70
1, 152520, Note_on_c, 0, 44, 50
1, 152600, Tempo, 401338
1, 152639, Note_on_c, 0, 44, 0
1, 152639, Note_on_c, 0, 53, 0
1, 152640, Note_on_c, 0, 60, 0
1, 152640, Note_on_c, 0, 48, 105
1, 152640, Note_on_c, 0, 36, 69
1, 152648, Control_c, 0, 64, 0
1, 152680, Tempo, 402685
1, 152696, Control_c, 0, 64, 127
1, 152759, Note_on_c, 0, 36, 0
1, 152759, Note_on_c, 0, 48, 0
1, 152760, Tempo, 404040
1, 152760, Note_on_c, 0, 53, 63
1, 152760, Note_on_c, 0, 44, 50
1, 152840, Tempo, 405405
1, 152879, Note_on_c, 0, 44, 0
1, 152879, Note_on_c, 0, 53, 0
1, 152880, Note_on_c, 0, 60, 82
1, 152880, Note_on_c, 0, 48, 50
1, 152920, Tempo, 406780
1, 152999, Note_on_c, 0, 48, 0
1, 153000, Tempo, 408163
1, 153000, Note_on_c, 0, 53, 66
1, 153000, Note_on_c, 0, 44, 50
1, 153080, Tempo, 409556
1, 153119, Note_on_c, 0, 44, 0
1, 153119, Note_on_c, 0, 53, 0
1, 153120, Note_on_c, 0, 48, 104
1, 153120, Note_on_c, 0, 36, 71
1, 153131, Control_c, 0, 64, 0
1, 153160, Tempo, 410959
1, 153177, Control_c, 0, 64, 127
1, 153239, Note_on_c, 0, 36, 0
1, 153239, Note_on_c, 0, 48, 0
1, 153240, Tempo, 412371
1, 153240, Note_on_c, 0, 53, 62
1, 153240, Note_on_c, 0, 44, 49
1, 153280, Tempo, 413793
1, 153320, Tempo, 413793
1, 153359, Note_on_c, 0, 44, 0
1, 153359, Note_on_c, 0, 53, 0
1, 153360, Tempo, 418118
1, 153360, Note_on_c, 0, 60, 0
1, 153360, Note_on_c, 0, 62, 75
1, 153360, Note_on_c, 0, 48, 49
1, 153400, Tempo, 422535
1, 153440, Tempo, 427046
1, 153479, Note_on_c, 0, 48, 0
1, 153480, Tempo, 431655
1, 153480, Note_on_c, 0, 53, 62
1, 153480, Note_on_c, 0, 44, 49
1, 153520, Tempo, 436364
1, 153560, Tempo, 415225
1, 153599, Note_on_c, 0, 44, 0
1, 153599, Note_on_c, 0, 53, 0
1, 153600, Note_on_c, 0, 62, 0
1, 153600, Note_on_c, 0, 52, 83
1, 153600, Text_t, "bdca426d104a26ac9dcb070447587523"
1, 153600, Control_c, 0, 91, 127
1, 153600, Note_on_c, 0, 36, 101
1, 153614, Control_c, 0, 64, 0
1, 153686, Control_c, 0, 64, 127
1, 153719, Note_on_c, 0, 36, 0
1, 153719, Note_on_c, 0, 52, 0
1, 153720, Tempo, 413793
1, 153720, Note_on_c, 0, 55, 69
1, 153720, Note_on_c, 0, 43, 57
1, 153839, Note_on_c, 0, 43, 0
1, 153839, Note_on_c, 0, 55, 0
1, 153840, Note_on_c, 0, 64, 69
1, 153840, Note_on_c, 0, 48, 57
1, 153880, Tempo, 412371
1, 153959, Note_on_c, 0, 48, 0
1, 153959, Note_on_c, 0, 64, 0
1, 153960, Note_on_c, 0, 55, 70
1, 153960, Note_on_c, 0, 43, 57
1, 154040, Tempo, 410959
1, 154079, Note_on_c, 0, 43, 0
1, 154079, Note_on_c, 0, 55, 0
1, 154080, Tempo, 410959
1, 154080, Note_on_c, 0, 52, 84
1, 154080, Note_on_c, 0, 31, 96
1, 154199, Note_on_c, 0, 31, 0
1, 154199, Note_on_c, 0, 52, 0
1, 154200, Note_on_c, 0, 55, 72
1, 154200, Note_on_c, 0, 43, 55
1, 154319, Note_on_c, 0, 43, 0
1, 154319, Note_on_c, 0, 55, 0
1, 154320, Note_on_c, 0, 64, 73
1, 154320, Note_on_c, 0, 48, 55
1, 154439, Note_on_c, 0, 48, 0
1, 154439, Note_on_c, 0, 64, 0
1, 154440, Note_on_c, 0, 55, 73
1, 154440, Note_on_c, 0, 43, 55
1, 154480, Tempo, 412371
1, 154559, Note_on_c, 0, 43, 0
1, 154559, Note_on_c, 0, 55, 0
1, 154560, Tempo, 413793
1, 154560, Note_on_c, 0, 52, 88
1, 154560, Note_on_c, 0, 36, 104
1, 154600, Tempo, 415225
1, 154640, Tempo, 416667
1, 154679, Note_on_c, 0, 36, 0
1, 154679, Note_on_c, 0, 52, 0
1, 154680, Note_on_c, 0, 55, 72
1, 154680, Note_on_c, 0, 43, 54
1, 154720, Tempo, 418118
1, 154760, Tempo, 419580
1, 154799, Note_on_c, 0, 43, 0
1, 154799, Note_on_c, 0, 55, 0
1, 154800, Tempo, 421053
1, 154800, Note_on_c, 0, 64, 73
1, 154800, Note_on_c, 0, 48, 57
1, 154880, Tempo, 422535
1, 154919, Note_on_c, 0, 48, 0
1, 154919, Note_on_c, 0, 64, 0
1, 154920, Tempo, 424028
1, 154920, Note_on_c, 0, 55, 73
1, 154920, Note_on_c, 0, 43, 60
1, 154960, Tempo, 425532
1, 155039, Note_on_c, 0, 43, 0
1, 155039, Note_on_c, 0, 55, 0
1, 155040, Tempo, 431655
1, 155040, Note_on_c, 0, 52, 86
1, 155040, Note_on_c, 0, 31, 97
1, 155120, Tempo, 433213
1, 155159, Note_on_c, 0, 31, 0
1, 155159, Note_on_c, 0, 52, 0
1, 155160, Note_on_c, 0, 55, 72
1, 155160, Note_on_c, 0, 43, 59
1, 155200, Tempo, 434783
1, 155240, Tempo, 436364
1, 155279, Note_on_c, 0, 43, 0
1, 155279, Note_on_c, 0, 55, 0
1, 155280, Note_on_c, 0, 64, 73
1, 155280, Note_on_c, 0, 48, 59
1, 155320, Tempo, 437956
1, 155360, Tempo, 439560
1, 155399, Note_on_c, 0, 48, 0
1, 155399, Note_on_c, 0, 64, 0
1, 155400, Tempo, 431655
1, 155400, Note_on_c, 0, 55, 73
1, 155400, Note_on_c, 0, 43, 59
1, 155440, Tempo, 436364
1, 155480, Tempo, 434783
1, 155519, Note_on_c, 0, 43, 0
1, 155519, Note_on_c, 0, 55, 0
1, 155520, Note_on_c, 0, 52, 95
1, 155520, Text_t, "bdca426d104a26ac9dcb070447587523"
1, 155520, Control_c, 0, 91, 127
1, 155520, Note_on_c, 0, 36, 107
1, 155600, Tempo, 433213
1, 155639, Note_on_c, 0, 36, 0
1, 155639, Note_on_c, 0, 52, 0
1, 155640, Note_on_c, 0, 55, 79
1, 155640, Note_on_c, 0, 43, 65
1, 155680, Tempo, 431655
1, 155759, Note_on_c, 0, 43, 0
1, 155759, Note_on_c, 0, 55, 0
1, 155760, Tempo, 430108
1, 155760, Note_on_c, 0, 64, 79
1, 155760, Note_on_c, 0, 48, 65
1, 155879, Note_on_c, 0, 48, 0
1, 155879, Note_on_c, 0, 64, 0
1, 155880, Tempo, 428571
1, 155880, Note_on_c, 0, 55, 79
1, 155880, Note_on_c, 0, 43, 64
1, 155960, Tempo, 427046
1, 155999, Note_on_c, 0, 43, 0
1, 155999, Note_on_c, 0, 55, 0
1, 156000, Note_on_c, 0, 52, 94
1, 156000, Note_on_c, 0, 31, 104
1, 156040, Tempo, 425532
1, 156119, Note_on_c, 0, 31, 0
1, 156119, Note_on_c, 0, 52, 0
1, 156120, Note_on_c, 0, 55, 80
1, 156120, Note_on_c, 0, 43, 58
1, 156239, Note_on_c, 0, 43, 0
1, 156239, Note_on_c, 0, 55, 0
1, 156240, Note_on_c, 0, 64, 80
1, 156240, Note_on_c, 0, 48, 58
1, 156359, Note_on_c, 0, 48, 0
1, 156359, Note_on_c, 0, 64, 0
1, 156360, Note_on_c, 0, 55, 80
1, 156360, Note_on_c, 0, 43, 58
1, 156400, Tempo, 424028
1, 156440, Tempo, 425532
1, 156479, Note_on_c, 0, 43, 0
1, 156479, Note_on_c, 0, 55, 0
1, 156480, Tempo, 427046
1, 156480, Note_on_c, 0, 52, 94
1, 156480, Note_on_c, 0, 36, 113
1, 156520, Tempo, 428571
1, 156560, Tempo, 430108
1, 156599, Note_on_c, 0, 36, 0
1, 156599, Note_on_c, 0, 52, 0
1, 156600, Tempo, 431655
1, 156600, Note_on_c, 0, 55, 77
1, 156600, Note_on_c, 0, 43, 57
1, 156640, Tempo, 433213
1, 156680, Tempo, 434783
1, 156719, Note_on_c, 0, 43, 0
1, 156719, Note_on_c, 0, 55, 0
1, 156720, Tempo, 436364
1, 156720, Note_on_c, 0, 64, 77
1, 156720, Note_on_c, 0, 48, 57
1, 156760, Tempo, 437956
1, 156800, Tempo, 439560
1, 156839, Note_on_c, 0, 48, 0
1, 156839, Note_on_c, 0, 64, 0
1, 156840, Tempo, 441176
1, 156840, Note_on_c, 0, 55, 77
1, 156840, Note_on_c, 0, 43, 57
1, 156880, Tempo, 442804
1, 156920, Tempo, 439560
1, 156959, Note_on_c, 0, 43, 0
1, 156959, Note_on_c, 0, 55, 0
1, 156960, Tempo, 442804
1, 156960, Note_on_c, 0, 52, 90
1, 156960, Note_on_c, 0, 31, 108
1, 157000, Tempo, 446097
1, 157040, Tempo, 451128
1, 157079, Note_on_c, 0, 31, 0
1, 157079, Note_on_c, 0, 52, 0
1, 157080, Tempo, 454545
1, 157080, Note_on_c, 0, 55, 74
1, 157080, Note_on_c, 0, 43, 57
1, 157120, Tempo, 459770
1, 157160, Tempo, 463320
1, 157199, Note_on_c, 0, 43, 0
1, 157199, Note_on_c, 0, 55, 0
1, 157200, Tempo, 468750
1, 157200, Note_on_c, 0, 64, 74
1, 157200, Note_on_c, 0, 48, 57
1, 157240, Tempo, 474308
1, 157280, Tempo, 478088
1, 157319, Note_on_c, 0, 48, 0
1, 157319, Note_on_c, 0, 64, 0
1, 157320, Tempo, 483871
1, 157320, Note_on_c, 0, 55, 74
1, 157320, Note_on_c, 0, 43, 57
1, 157360, Tempo, 487805
1, 157400, Tempo, 493827
1, 157439, Note_on_c, 0, 43, 0
1, 157439, Note_on_c, 0, 55, 0
1, 157440, Tempo, 500000
1, 157440, Note_on_c, 0, 52, 111
1, 157440, Note_on_c, 0, 24, 97
1, 157440, Note_on_c, 0, 36, 111
1, 157524, Control_c, 0, 64, 0
1, 157897, Control_c, 0, 64, 127
1, 157920, Note_on_c, 0, 36, 0
1, 157920, Note_on_c, 0, 24, 0
1, 157920, Note_on_c, 0, 52, 0
1, 158400, Tempo, 1200000
1, 158400, Note_on_c, 0, 72, 105
1, 158400, Note_on_c, 0, 64, 94
1, 158400, Note_on_c, 0, 67, 94
1, 158400, Note_on_c, 0, 76, 111
1, 158400, Note_on_c, 0, 48, 70
1, 158400, Note_on_c, 0, 55, 77
1, 158400, Note_on_c, 0, 60, 82
1, 159360, Tempo, 401338
1, 159360, Note_on_c, 0, 60, 0
1, 159360, Note_on_c, 0, 48, 0
1, 159360, Note_on_c, 0, 64, 0
1, 159360, Note_on_c, 0, 67, 0
1, 159360, Note_on_c, 0, 72, 0
1, 159360, Note_on_c, 0, 55, 0
1, 159360, Note_on_c, 0, 76, 0
1, 161280, Control_c, 0, 64, 0
1, 161280, End_track
0, 0, End_of_file
