0, 0, Header, 0, 1, 480
1, 0, Start_track
1, 0, Title_t, "Chopin Etude  No. 2, Opus 25"
1, 0, Copyright_t, "Copyright © 2003 by Bernd Krueger "
1, 0, Text_t, "Frederic Chopin"
1, 0, Text_t, "Presto"
1, 0, Text_t, "Fertiggestellt am 31.1.2003\012"
1, 0, Text_t, "Update am 16.2.2014\012"
1, 0, Text_t, "Dauer: 1:31 Minuten\012"
1, 0, SMPTE_offset, 96, 0, 3, 0, 0
1, 0, Time_signature, 2, 2, 24, 8
1, 0, Key_signature, -4, "major"
1, 0, Tempo, 572355
1, 0, Program_c, 0, 0
1, 0, Control_c, 0, 7, 100
1, 0, Control_c, 0, 10, 64
1, 0, Text_t, "bdca426d104a26ac9dcb070447587523"
1, 0, Control_c, 0, 91, 127
1, 0, Program_c, 0, 0
1, 0, Control_c, 0, 7, 100
1, 0, Control_c, 0, 10, 64
1, 0, Control_c, 0, 64, 0
1, 720, Note_on_c, 0, 72, 51
1, 800, Tempo, 704722
1, 940, Tempo, 594471
1, 960, Tempo, 594471
1, 960, Note_on_c, 0, 72, 0
1, 960, Note_on_c, 0, 72, 55
1, 960, Note_on_c, 0, 52, 39
1, 1040, Note_on_c, 0, 73, 46
1, 1050, Note_on_c, 0, 72, 0
1, 1080, Tempo, 591774
1, 1120, Note_on_c, 0, 71, 46
1, 1120, Note_on_c, 0, 67, 31
1, 1130, Note_on_c, 0, 73, 0
1, 1130, Note_on_c, 0, 52, 0
1, 1200, Tempo, 588928
1, 1200, Note_on_c, 0, 72, 46
1, 1210, Note_on_c, 0, 71, 0
1, 1280, Tempo, 567591
1, 1280, Note_on_c, 0, 75, 50
1, 1280, Note_on_c, 0, 60, 27
1, 1290, Note_on_c, 0, 72, 0
1, 1290, Note_on_c, 0, 67, 0
1, 1360, Note_on_c, 0, 73, 46
1, 1370, Note_on_c, 0, 75, 0
1, 1420, Tempo, 583431
1, 1440, Note_on_c, 0, 73, 0
1, 1440, Note_on_c, 0, 60, 0
1, 1440, Note_on_c, 0, 72, 53
1, 1440, Note_on_c, 0, 58, 39
1, 1460, Tempo, 594471
1, 1520, Note_on_c, 0, 73, 49
1, 1530, Note_on_c, 0, 72, 0
1, 1560, Tempo, 591774
1, 1600, Note_on_c, 0, 71, 49
1, 1600, Note_on_c, 0, 67, 33
1, 1610, Note_on_c, 0, 73, 0
1, 1610, Note_on_c, 0, 58, 0
1, 1640, Tempo, 588928
1, 1680, Note_on_c, 0, 72, 49
1, 1690, Note_on_c, 0, 71, 0
1, 1740, Tempo, 586224
1, 1760, Tempo, 570125
1, 1760, Note_on_c, 0, 78, 51
1, 1760, Note_on_c, 0, 60, 29
1, 1770, Note_on_c, 0, 72, 0
1, 1770, Note_on_c, 0, 67, 0
1, 1840, Note_on_c, 0, 79, 48
1, 1850, Note_on_c, 0, 78, 0
1, 1900, Tempo, 580720
1, 1920, Tempo, 583431
1, 1920, Note_on_c, 0, 79, 0
1, 1920, Note_on_c, 0, 60, 0
1, 1920, Note_on_c, 0, 72, 57
1, 1920, Note_on_c, 0, 53, 41
1, 1980, Tempo, 580720
1, 2000, Note_on_c, 0, 73, 52
1, 2010, Note_on_c, 0, 72, 0
1, 2020, Tempo, 578090
1, 2060, Tempo, 575374
1, 2080, Note_on_c, 0, 71, 48
1, 2080, Note_on_c, 0, 68, 37
1, 2090, Note_on_c, 0, 73, 0
1, 2090, Note_on_c, 0, 53, 0
1, 2120, Tempo, 572792
1, 2160, Tempo, 570125
1, 2160, Note_on_c, 0, 72, 49
1, 2170, Note_on_c, 0, 71, 0
1, 2200, Tempo, 567591
1, 2240, Tempo, 565025
1, 2240, Note_on_c, 0, 75, 52
1, 2240, Note_on_c, 0, 60, 35
1, 2250, Note_on_c, 0, 72, 0
1, 2250, Note_on_c, 0, 68, 0
1, 2320, Tempo, 577812
1, 2320, Note_on_c, 0, 73, 49
1, 2330, Note_on_c, 0, 75, 0
1, 2400, Tempo, 559963
1, 2400, Note_on_c, 0, 73, 0
1, 2400, Note_on_c, 0, 60, 0
1, 2400, Note_on_c, 0, 72, 58
1, 2400, Note_on_c, 0, 56, 44
1, 2480, Note_on_c, 0, 73, 50
1, 2490, Note_on_c, 0, 72, 0
1, 2560, Note_on_c, 0, 71, 50
1, 2560, Note_on_c, 0, 68, 38
1, 2570, Note_on_c, 0, 73, 0
1, 2570, Note_on_c, 0, 56, 0
1, 2640, Note_on_c, 0, 72, 50
1, 2650, Note_on_c, 0, 71, 0
1, 2720, Note_on_c, 0, 80, 53
1, 2720, Note_on_c, 0, 60, 36
1, 2730, Note_on_c, 0, 72, 0
1, 2730, Note_on_c, 0, 68, 0
1, 2800, Tempo, 588928
1, 2800, Note_on_c, 0, 77, 49
1, 2810, Note_on_c, 0, 80, 0
1, 2880, Tempo, 555042
1, 2880, Note_on_c, 0, 77, 0
1, 2880, Note_on_c, 0, 60, 0
1, 2880, Note_on_c, 0, 76, 60
1, 2880, Note_on_c, 0, 55, 48
1, 2900, Tempo, 559963
1, 2960, Note_on_c, 0, 77, 53
1, 2970, Note_on_c, 0, 76, 0
1, 3040, Note_on_c, 0, 76, 55
1, 3040, Note_on_c, 0, 70, 39
1, 3050, Note_on_c, 0, 77, 0
1, 3050, Note_on_c, 0, 55, 0
1, 3080, Tempo, 555042
1, 3120, Tempo, 557517
1, 3120, Note_on_c, 0, 75, 56
1, 3130, Note_on_c, 0, 76, 0
1, 3160, Tempo, 559963
1, 3200, Tempo, 562535
1, 3200, Note_on_c, 0, 76, 57
1, 3200, Note_on_c, 0, 64, 36
1, 3210, Note_on_c, 0, 75, 0
1, 3210, Note_on_c, 0, 70, 0
1, 3240, Tempo, 565025
1, 3260, Tempo, 567591
1, 3280, Tempo, 586224
1, 3280, Note_on_c, 0, 79, 60
1, 3290, Note_on_c, 0, 76, 0
1, 3360, Tempo, 624090
1, 3360, Note_on_c, 0, 79, 0
1, 3360, Note_on_c, 0, 64, 0
1, 3360, Note_on_c, 0, 82, 64
1, 3360, Note_on_c, 0, 61, 49
1, 3440, Tempo, 552639
1, 3440, Note_on_c, 0, 84, 60
1, 3450, Note_on_c, 0, 82, 0
1, 3520, Note_on_c, 0, 82, 61
1, 3520, Note_on_c, 0, 70, 44
1, 3530, Note_on_c, 0, 84, 0
1, 3530, Note_on_c, 0, 61, 0
1, 3600, Note_on_c, 0, 81, 63
1, 3610, Note_on_c, 0, 82, 0
1, 3680, Note_on_c, 0, 82, 62
1, 3680, Note_on_c, 0, 64, 39
1, 3690, Note_on_c, 0, 81, 0
1, 3690, Note_on_c, 0, 70, 0
1, 3760, Tempo, 572792
1, 3760, Note_on_c, 0, 85, 66
1, 3770, Note_on_c, 0, 82, 0
1, 3840, Tempo, 636740
1, 3840, Note_on_c, 0, 85, 0
1, 3840, Note_on_c, 0, 64, 0
1, 3840, Note_on_c, 0, 84, 70
1, 3840, Note_on_c, 0, 56, 55
1, 3920, Tempo, 565025
1, 3920, Note_on_c, 0, 85, 61
1, 3930, Note_on_c, 0, 84, 0
1, 4000, Note_on_c, 0, 84, 61
1, 4000, Note_on_c, 0, 68, 45
1, 4010, Note_on_c, 0, 85, 0
1, 4010, Note_on_c, 0, 56, 0
1, 4080, Note_on_c, 0, 83, 61
1, 4090, Note_on_c, 0, 84, 0
1, 4160, Note_on_c, 0, 84, 62
1, 4160, Note_on_c, 0, 65, 44
1, 4170, Note_on_c, 0, 83, 0
1, 4170, Note_on_c, 0, 68, 0
1, 4240, Tempo, 594471
1, 4240, Note_on_c, 0, 79, 60
1, 4250, Note_on_c, 0, 84, 0
1, 4320, Tempo, 575374
1, 4320, Note_on_c, 0, 79, 0
1, 4320, Note_on_c, 0, 65, 0
1, 4320, Note_on_c, 0, 80, 62
1, 4320, Note_on_c, 0, 60, 50
1, 4400, Note_on_c, 0, 82, 56
1, 4410, Note_on_c, 0, 80, 0
1, 4480, Note_on_c, 0, 80, 56
1, 4480, Note_on_c, 0, 68, 40
1, 4490, Note_on_c, 0, 82, 0
1, 4490, Note_on_c, 0, 60, 0
1, 4560, Note_on_c, 0, 79, 56
1, 4570, Note_on_c, 0, 80, 0
1, 4640, Note_on_c, 0, 80, 57
1, 4640, Note_on_c, 0, 65, 40
1, 4650, Note_on_c, 0, 79, 0
1, 4650, Note_on_c, 0, 68, 0
1, 4720, Note_on_c, 0, 76, 52
1, 4730, Note_on_c, 0, 80, 0
1, 4800, Tempo, 575374
1, 4800, Note_on_c, 0, 76, 0
1, 4800, Note_on_c, 0, 65, 0
1, 4800, Note_on_c, 0, 77, 60
1, 4800, Note_on_c, 0, 46, 48
1, 4834, Control_c, 0, 64, 127
1, 4880, Tempo, 572792
1, 4880, Note_on_c, 0, 79, 51
1, 4890, Note_on_c, 0, 77, 0
1, 4960, Tempo, 570125
1, 4960, Note_on_c, 0, 77, 51
1, 4960, Note_on_c, 0, 61, 37
1, 4970, Note_on_c, 0, 79, 0
1, 4970, Note_on_c, 0, 46, 0
1, 5040, Tempo, 567591
1, 5040, Note_on_c, 0, 76, 52
1, 5050, Note_on_c, 0, 77, 0
1, 5120, Tempo, 565025
1, 5120, Note_on_c, 0, 77, 55
1, 5120, Note_on_c, 0, 55, 36
1, 5130, Note_on_c, 0, 76, 0
1, 5130, Note_on_c, 0, 61, 0
1, 5200, Tempo, 562535
1, 5200, Note_on_c, 0, 72, 50
1, 5210, Note_on_c, 0, 77, 0
1, 5280, Tempo, 559963
1, 5280, Note_on_c, 0, 72, 0
1, 5280, Note_on_c, 0, 55, 0
1, 5280, Note_on_c, 0, 73, 60
1, 5280, Note_on_c, 0, 53, 48
1, 5286, Control_c, 0, 64, 0
1, 5300, Tempo, 559963
1, 5309, Control_c, 0, 64, 127
1, 5360, Note_on_c, 0, 75, 51
1, 5370, Note_on_c, 0, 73, 0
1, 5380, Tempo, 562535
1, 5440, Tempo, 565025
1, 5440, Note_on_c, 0, 73, 51
1, 5440, Note_on_c, 0, 61, 37
1, 5450, Note_on_c, 0, 75, 0
1, 5450, Note_on_c, 0, 53, 0
1, 5500, Tempo, 567591
1, 5520, Note_on_c, 0, 72, 51
1, 5530, Note_on_c, 0, 73, 0
1, 5560, Tempo, 570125
1, 5600, Note_on_c, 0, 73, 55
1, 5600, Note_on_c, 0, 55, 35
1, 5610, Note_on_c, 0, 72, 0
1, 5610, Note_on_c, 0, 61, 0
1, 5620, Tempo, 572792
1, 5680, Tempo, 597372
1, 5680, Note_on_c, 0, 71, 51
1, 5690, Note_on_c, 0, 73, 0
1, 5760, Tempo, 572792
1, 5760, Note_on_c, 0, 71, 0
1, 5760, Note_on_c, 0, 55, 0
1, 5760, Note_on_c, 0, 72, 58
1, 5760, Note_on_c, 0, 48, 48
1, 5769, Control_c, 0, 64, 0
1, 5840, Tempo, 570125
1, 5840, Note_on_c, 0, 73, 52
1, 5850, Note_on_c, 0, 72, 0
1, 5920, Tempo, 567591
1, 5920, Note_on_c, 0, 72, 48
1, 5920, Note_on_c, 0, 60, 37
1, 5930, Note_on_c, 0, 73, 0
1, 5930, Note_on_c, 0, 48, 0
1, 6000, Tempo, 565025
1, 6000, Note_on_c, 0, 71, 48
1, 6010, Note_on_c, 0, 72, 0
1, 6080, Tempo, 562535
1, 6080, Note_on_c, 0, 72, 55
1, 6080, Note_on_c, 0, 56, 37
1, 6090, Note_on_c, 0, 71, 0
1, 6090, Note_on_c, 0, 60, 0
1, 6160, Tempo, 559963
1, 6160, Note_on_c, 0, 67, 50
1, 6170, Note_on_c, 0, 72, 0
1, 6220, Tempo, 557517
1, 6240, Note_on_c, 0, 67, 0
1, 6240, Note_on_c, 0, 56, 0
1, 6240, Note_on_c, 0, 68, 56
1, 6240, Note_on_c, 0, 53, 48
1, 6320, Note_on_c, 0, 70, 49
1, 6330, Note_on_c, 0, 68, 0
1, 6400, Note_on_c, 0, 68, 48
1, 6400, Note_on_c, 0, 60, 39
1, 6410, Note_on_c, 0, 70, 0
1, 6410, Note_on_c, 0, 53, 0
1, 6480, Note_on_c, 0, 67, 46
1, 6490, Note_on_c, 0, 68, 0
1, 6560, Note_on_c, 0, 68, 55
1, 6560, Note_on_c, 0, 56, 39
1, 6570, Note_on_c, 0, 67, 0
1, 6570, Note_on_c, 0, 60, 0
1, 6640, Tempo, 588928
1, 6640, Note_on_c, 0, 65, 46
1, 6650, Note_on_c, 0, 68, 0
1, 6720, Tempo, 570125
1, 6720, Note_on_c, 0, 65, 0
1, 6720, Note_on_c, 0, 56, 0
1, 6720, Note_on_c, 0, 64, 60
1, 6720, Note_on_c, 0, 48, 48
1, 6760, Tempo, 567591
1, 6769, Control_c, 0, 64, 127
1, 6800, Tempo, 565025
1, 6800, Note_on_c, 0, 67, 55
1, 6810, Note_on_c, 0, 64, 0
1, 6840, Tempo, 562535
1, 6880, Tempo, 559963
1, 6880, Note_on_c, 0, 70, 56
1, 6880, Note_on_c, 0, 64, 39
1, 6890, Note_on_c, 0, 67, 0
1, 6890, Note_on_c, 0, 48, 0
1, 6900, Tempo, 557517
1, 6960, Note_on_c, 0, 73, 58
1, 6970, Note_on_c, 0, 70, 0
1, 7040, Note_on_c, 0, 76, 60
1, 7040, Note_on_c, 0, 60, 40
1, 7050, Note_on_c, 0, 73, 0
1, 7050, Note_on_c, 0, 64, 0
1, 7120, Tempo, 597372
1, 7120, Note_on_c, 0, 79, 61
1, 7130, Note_on_c, 0, 76, 0
1, 7200, Tempo, 660284
1, 7200, Note_on_c, 0, 79, 0
1, 7200, Note_on_c, 0, 60, 0
1, 7200, Note_on_c, 0, 82, 67
1, 7200, Note_on_c, 0, 55, 49
1, 7220, Control_c, 0, 64, 0
1, 7254, Control_c, 0, 64, 127
1, 7260, Tempo, 605938
1, 7280, Note_on_c, 0, 85, 60
1, 7290, Note_on_c, 0, 82, 0
1, 7300, Tempo, 603136
1, 7320, Tempo, 600180
1, 7360, Tempo, 597372
1, 7360, Note_on_c, 0, 84, 61
1, 7360, Note_on_c, 0, 64, 44
1, 7370, Note_on_c, 0, 85, 0
1, 7370, Note_on_c, 0, 55, 0
1, 7380, Tempo, 594471
1, 7420, Tempo, 591774
1, 7440, Tempo, 588928
1, 7440, Note_on_c, 0, 82, 62
1, 7450, Note_on_c, 0, 84, 0
1, 7480, Tempo, 586224
1, 7500, Tempo, 583431
1, 7520, Note_on_c, 0, 80, 61
1, 7520, Note_on_c, 0, 58, 45
1, 7530, Note_on_c, 0, 82, 0
1, 7530, Note_on_c, 0, 64, 0
1, 7540, Tempo, 580720
1, 7560, Tempo, 578090
1, 7580, Tempo, 575374
1, 7600, Tempo, 621054
1, 7600, Note_on_c, 0, 79, 62
1, 7610, Note_on_c, 0, 80, 0
1, 7680, Tempo, 621054
1, 7680, Note_on_c, 0, 79, 0
1, 7680, Note_on_c, 0, 58, 0
1, 7680, Note_on_c, 0, 82, 68
1, 7680, Note_on_c, 0, 53, 55
1, 7686, Control_c, 0, 64, 0
1, 7760, Tempo, 583431
1, 7760, Note_on_c, 0, 84, 67
1, 7770, Note_on_c, 0, 82, 0
1, 7780, Tempo, 594471
1, 7840, Note_on_c, 0, 80, 63
1, 7840, Note_on_c, 0, 65, 42
1, 7850, Note_on_c, 0, 84, 0
1, 7850, Note_on_c, 0, 53, 0
1, 7920, Note_on_c, 0, 79, 63
1, 7930, Note_on_c, 0, 80, 0
1, 7960, Tempo, 597372
1, 8000, Note_on_c, 0, 80, 59
1, 8000, Note_on_c, 0, 60, 35
1, 8010, Note_on_c, 0, 79, 0
1, 8010, Note_on_c, 0, 65, 0
1, 8080, Note_on_c, 0, 77, 53
1, 8090, Note_on_c, 0, 80, 0
1, 8120, Tempo, 600180
1, 8140, Tempo, 603136
1, 8160, Note_on_c, 0, 77, 0
1, 8160, Note_on_c, 0, 60, 0
1, 8160, Note_on_c, 0, 76, 61
1, 8160, Note_on_c, 0, 56, 39
1, 8180, Tempo, 597372
1, 8240, Tempo, 600180
1, 8240, Note_on_c, 0, 79, 49
1, 8250, Note_on_c, 0, 76, 0
1, 8300, Tempo, 603136
1, 8320, Note_on_c, 0, 77, 48
1, 8320, Note_on_c, 0, 65, 35
1, 8330, Note_on_c, 0, 79, 0
1, 8330, Note_on_c, 0, 56, 0
1, 8360, Tempo, 605938
1, 8400, Note_on_c, 0, 76, 48
1, 8410, Note_on_c, 0, 77, 0
1, 8420, Tempo, 608952
1, 8480, Tempo, 611933
1, 8480, Note_on_c, 0, 77, 48
1, 8480, Note_on_c, 0, 61, 30
1, 8490, Note_on_c, 0, 76, 0
1, 8490, Note_on_c, 0, 65, 0
1, 8540, Tempo, 615006
1, 8560, Note_on_c, 0, 73, 45
1, 8570, Note_on_c, 0, 77, 0
1, 8600, Tempo, 617983
1, 8640, Tempo, 597372
1, 8640, Note_on_c, 0, 73, 0
1, 8640, Note_on_c, 0, 61, 0
1, 8640, Note_on_c, 0, 72, 53
1, 8640, Note_on_c, 0, 52, 37
1, 8720, Tempo, 594471
1, 8720, Note_on_c, 0, 73, 44
1, 8730, Note_on_c, 0, 72, 0
1, 8800, Tempo, 591774
1, 8800, Note_on_c, 0, 71, 44
1, 8800, Note_on_c, 0, 67, 33
1, 8810, Note_on_c, 0, 73, 0
1, 8810, Note_on_c, 0, 52, 0
1, 8880, Tempo, 588928
1, 8880, Note_on_c, 0, 72, 44
1, 8890, Note_on_c, 0, 71, 0
1, 8960, Tempo, 570125
1, 8960, Note_on_c, 0, 75, 49
1, 8960, Note_on_c, 0, 60, 29
1, 8970, Note_on_c, 0, 72, 0
1, 8970, Note_on_c, 0, 67, 0
1, 9040, Tempo, 603136
1, 9040, Note_on_c, 0, 73, 45
1, 9050, Note_on_c, 0, 75, 0
1, 9120, Tempo, 588928
1, 9120, Note_on_c, 0, 73, 0
1, 9120, Note_on_c, 0, 60, 0
1, 9120, Note_on_c, 0, 72, 55
1, 9120, Note_on_c, 0, 58, 39
1, 9200, Note_on_c, 0, 73, 46
1, 9210, Note_on_c, 0, 72, 0
1, 9240, Tempo, 586224
1, 9280, Note_on_c, 0, 71, 46
1, 9280, Note_on_c, 0, 67, 34
1, 9290, Note_on_c, 0, 73, 0
1, 9290, Note_on_c, 0, 58, 0
1, 9340, Tempo, 583431
1, 9360, Note_on_c, 0, 72, 46
1, 9370, Note_on_c, 0, 71, 0
1, 9440, Tempo, 580720
1, 9440, Note_on_c, 0, 78, 51
1, 9440, Note_on_c, 0, 60, 31
1, 9450, Note_on_c, 0, 72, 0
1, 9450, Note_on_c, 0, 67, 0
1, 9460, Tempo, 565025
1, 9520, Tempo, 597372
1, 9520, Note_on_c, 0, 79, 46
1, 9530, Note_on_c, 0, 78, 0
1, 9600, Tempo, 583431
1, 9600, Note_on_c, 0, 79, 0
1, 9600, Note_on_c, 0, 60, 0
1, 9600, Note_on_c, 0, 72, 57
1, 9600, Note_on_c, 0, 53, 40
1, 9680, Tempo, 580720
1, 9680, Note_on_c, 0, 73, 46
1, 9690, Note_on_c, 0, 72, 0
1, 9740, Tempo, 578090
1, 9760, Note_on_c, 0, 71, 46
1, 9760, Note_on_c, 0, 68, 35
1, 9770, Note_on_c, 0, 73, 0
1, 9770, Note_on_c, 0, 53, 0
1, 9800, Tempo, 575374
1, 9840, Note_on_c, 0, 72, 47
1, 9850, Note_on_c, 0, 71, 0
1, 9860, Tempo, 572792
1, 9920, Tempo, 570125
1, 9920, Note_on_c, 0, 75, 52
1, 9920, Note_on_c, 0, 60, 31
1, 9930, Note_on_c, 0, 72, 0
1, 9930, Note_on_c, 0, 68, 0
1, 9980, Tempo, 567591
1, 10000, Tempo, 577812
1, 10000, Note_on_c, 0, 73, 47
1, 10010, Note_on_c, 0, 75, 0
1, 10080, Tempo, 555042
1, 10080, Note_on_c, 0, 73, 0
1, 10080, Note_on_c, 0, 60, 0
1, 10080, Note_on_c, 0, 72, 58
1, 10080, Note_on_c, 0, 56, 46
1, 10160, Note_on_c, 0, 73, 48
1, 10170, Note_on_c, 0, 72, 0
1, 10240, Note_on_c, 0, 71, 49
1, 10240, Note_on_c, 0, 68, 38
1, 10250, Note_on_c, 0, 73, 0
1, 10250, Note_on_c, 0, 56, 0
1, 10320, Note_on_c, 0, 72, 49
1, 10330, Note_on_c, 0, 71, 0
1, 10400, Note_on_c, 0, 80, 53
1, 10400, Note_on_c, 0, 60, 34
1, 10410, Note_on_c, 0, 72, 0
1, 10410, Note_on_c, 0, 68, 0
1, 10480, Tempo, 588928
1, 10480, Note_on_c, 0, 77, 50
1, 10490, Note_on_c, 0, 80, 0
1, 10560, Tempo, 555042
1, 10560, Note_on_c, 0, 77, 0
1, 10560, Note_on_c, 0, 60, 0
1, 10560, Note_on_c, 0, 75, 60
1, 10560, Note_on_c, 0, 55, 48
1, 10640, Note_on_c, 0, 77, 53
1, 10650, Note_on_c, 0, 75, 0
1, 10720, Note_on_c, 0, 75, 56
1, 10720, Note_on_c, 0, 70, 39
1, 10730, Note_on_c, 0, 77, 0
1, 10730, Note_on_c, 0, 55, 0
1, 10740, Tempo, 552639
1, 10780, Tempo, 555042
1, 10800, Note_on_c, 0, 74, 57
1, 10810, Note_on_c, 0, 75, 0
1, 10820, Tempo, 557517
1, 10860, Tempo, 559963
1, 10880, Note_on_c, 0, 75, 60
1, 10880, Note_on_c, 0, 63, 42
1, 10890, Note_on_c, 0, 74, 0
1, 10890, Note_on_c, 0, 70, 0
1, 10900, Tempo, 562535
1, 10940, Tempo, 565025
1, 10960, Tempo, 586224
1, 10960, Note_on_c, 0, 79, 62
1, 10970, Note_on_c, 0, 75, 0
1, 11040, Tempo, 570125
1, 11040, Note_on_c, 0, 79, 0
1, 11040, Note_on_c, 0, 63, 0
1, 11040, Note_on_c, 0, 82, 70
1, 11040, Note_on_c, 0, 61, 51
1, 11120, Tempo, 552639
1, 11120, Note_on_c, 0, 84, 62
1, 11130, Note_on_c, 0, 82, 0
1, 11200, Tempo, 550156
1, 11200, Note_on_c, 0, 82, 64
1, 11200, Note_on_c, 0, 70, 46
1, 11210, Note_on_c, 0, 84, 0
1, 11210, Note_on_c, 0, 61, 0
1, 11260, Tempo, 547795
1, 11280, Note_on_c, 0, 81, 66
1, 11290, Note_on_c, 0, 82, 0
1, 11340, Tempo, 545355
1, 11360, Note_on_c, 0, 82, 64
1, 11360, Note_on_c, 0, 63, 45
1, 11370, Note_on_c, 0, 81, 0
1, 11370, Note_on_c, 0, 70, 0
1, 11400, Tempo, 543085
1, 11440, Tempo, 592710
1, 11440, Note_on_c, 0, 89, 66
1, 11450, Note_on_c, 0, 82, 0
1, 11520, Tempo, 704722
1, 11520, Note_on_c, 0, 89, 0
1, 11520, Note_on_c, 0, 63, 0
1, 11520, Note_on_c, 0, 87, 82
1, 11520, Note_on_c, 0, 56, 59
1, 11600, Tempo, 565025
1, 11600, Note_on_c, 0, 89, 70
1, 11610, Note_on_c, 0, 87, 0
1, 11680, Note_on_c, 0, 87, 70
1, 11680, Note_on_c, 0, 68, 48
1, 11690, Note_on_c, 0, 89, 0
1, 11690, Note_on_c, 0, 56, 0
1, 11760, Note_on_c, 0, 86, 70
1, 11770, Note_on_c, 0, 87, 0
1, 11840, Note_on_c, 0, 87, 66
1, 11840, Note_on_c, 0, 63, 48
1, 11850, Note_on_c, 0, 86, 0
1, 11850, Note_on_c, 0, 68, 0
1, 11920, Tempo, 594471
1, 11920, Note_on_c, 0, 83, 64
1, 11930, Note_on_c, 0, 87, 0
1, 12000, Tempo, 588928
1, 12000, Note_on_c, 0, 83, 0
1, 12000, Note_on_c, 0, 63, 0
1, 12000, Note_on_c, 0, 84, 68
1, 12000, Note_on_c, 0, 60, 56
1, 12040, Tempo, 586224
1, 12080, Tempo, 583431
1, 12080, Note_on_c, 0, 85, 61
1, 12090, Note_on_c, 0, 84, 0
1, 12120, Tempo, 580720
1, 12160, Tempo, 578090
1, 12160, Note_on_c, 0, 84, 61
1, 12160, Note_on_c, 0, 68, 45
1, 12170, Note_on_c, 0, 85, 0
1, 12170, Note_on_c, 0, 60, 0
1, 12240, Note_on_c, 0, 83, 61
1, 12250, Note_on_c, 0, 84, 0
1, 12320, Note_on_c, 0, 84, 61
1, 12320, Note_on_c, 0, 63, 45
1, 12330, Note_on_c, 0, 83, 0
1, 12330, Note_on_c, 0, 68, 0
1, 12400, Note_on_c, 0, 79, 60
1, 12410, Note_on_c, 0, 84, 0
1, 12480, Tempo, 624090
1, 12480, Note_on_c, 0, 79, 0
1, 12480, Note_on_c, 0, 63, 0
1, 12480, Note_on_c, 0, 80, 70
1, 12480, Note_on_c, 0, 49, 51
1, 12560, Tempo, 580720
1, 12560, Note_on_c, 0, 82, 56
1, 12570, Note_on_c, 0, 80, 0
1, 12640, Note_on_c, 0, 80, 56
1, 12640, Note_on_c, 0, 65, 42
1, 12650, Note_on_c, 0, 82, 0
1, 12650, Note_on_c, 0, 49, 0
1, 12720, Note_on_c, 0, 79, 56
1, 12730, Note_on_c, 0, 80, 0
1, 12800, Note_on_c, 0, 80, 58
1, 12800, Note_on_c, 0, 58, 39
1, 12810, Note_on_c, 0, 79, 0
1, 12810, Note_on_c, 0, 65, 0
1, 12880, Tempo, 594471
1, 12880, Note_on_c, 0, 76, 57
1, 12890, Note_on_c, 0, 80, 0
1, 12960, Tempo, 575374
1, 12960, Note_on_c, 0, 76, 0
1, 12960, Note_on_c, 0, 58, 0
1, 12960, Note_on_c, 0, 77, 61
1, 12960, Note_on_c, 0, 56, 48
1, 12980, Tempo, 578090
1, 13040, Note_on_c, 0, 79, 52
1, 13050, Note_on_c, 0, 77, 0
1, 13120, Note_on_c, 0, 77, 52
1, 13120, Note_on_c, 0, 65, 38
1, 13130, Note_on_c, 0, 79, 0
1, 13130, Note_on_c, 0, 56, 0
1, 13160, Tempo, 572792
1, 13200, Tempo, 575374
1, 13200, Note_on_c, 0, 76, 52
1, 13210, Note_on_c, 0, 77, 0
1, 13220, Tempo, 578090
1, 13260, Tempo, 580720
1, 13280, Tempo, 583431
1, 13280, Note_on_c, 0, 77, 53
1, 13280, Note_on_c, 0, 58, 38
1, 13290, Note_on_c, 0, 76, 0
1, 13290, Note_on_c, 0, 65, 0
1, 13320, Tempo, 586224
1, 13340, Tempo, 588928
1, 13360, Note_on_c, 0, 73, 52
1, 13370, Note_on_c, 0, 77, 0
1, 13380, Tempo, 591774
1, 13400, Tempo, 580720
1, 13440, Tempo, 578090
1, 13440, Note_on_c, 0, 73, 0
1, 13440, Note_on_c, 0, 58, 0
1, 13440, Note_on_c, 0, 72, 60
1, 13440, Note_on_c, 0, 51, 48
1, 13480, Tempo, 575374
1, 13520, Tempo, 572792
1, 13520, Note_on_c, 0, 73, 55
1, 13530, Note_on_c, 0, 72, 0
1, 13560, Tempo, 570125
1, 13600, Tempo, 567591
1, 13600, Note_on_c, 0, 70, 52
1, 13600, Note_on_c, 0, 63, 39
1, 13610, Note_on_c, 0, 73, 0
1, 13610, Note_on_c, 0, 51, 0
1, 13620, Tempo, 562535
1, 13640, Tempo, 570125
1, 13680, Note_on_c, 0, 67, 56
1, 13690, Note_on_c, 0, 70, 0
1, 13760, Note_on_c, 0, 68, 57
1, 13760, Note_on_c, 0, 60, 40
1, 13770, Note_on_c, 0, 67, 0
1, 13770, Note_on_c, 0, 63, 0
1, 13840, Tempo, 586224
1, 13840, Note_on_c, 0, 70, 57
1, 13850, Note_on_c, 0, 68, 0
1, 13920, Tempo, 575374
1, 13920, Note_on_c, 0, 70, 0
1, 13920, Note_on_c, 0, 60, 0
1, 13920, Note_on_c, 0, 72, 60
1, 13920, Note_on_c, 0, 56, 49
1, 14000, Note_on_c, 0, 73, 58
1, 14010, Note_on_c, 0, 72, 0
1, 14080, Note_on_c, 0, 75, 60
1, 14080, Note_on_c, 0, 63, 44
1, 14090, Note_on_c, 0, 73, 0
1, 14090, Note_on_c, 0, 56, 0
1, 14160, Note_on_c, 0, 77, 61
1, 14170, Note_on_c, 0, 75, 0
1, 14240, Note_on_c, 0, 79, 61
1, 14240, Note_on_c, 0, 60, 45
1, 14250, Note_on_c, 0, 77, 0
1, 14250, Note_on_c, 0, 63, 0
1, 14320, Tempo, 592710
1, 14320, Note_on_c, 0, 80, 61
1, 14330, Note_on_c, 0, 79, 0
1, 14400, Tempo, 567591
1, 14400, Note_on_c, 0, 80, 0
1, 14400, Note_on_c, 0, 60, 0
1, 14400, Note_on_c, 0, 79, 68
1, 14400, Note_on_c, 0, 51, 55
1, 14480, Tempo, 565025
1, 14480, Note_on_c, 0, 80, 58
1, 14490, Note_on_c, 0, 79, 0
1, 14560, Note_on_c, 0, 77, 58
1, 14560, Note_on_c, 0, 63, 45
1, 14570, Note_on_c, 0, 80, 0
1, 14570, Note_on_c, 0, 51, 0
1, 14640, Note_on_c, 0, 75, 58
1, 14650, Note_on_c, 0, 77, 0
1, 14720, Note_on_c, 0, 77, 61
1, 14720, Note_on_c, 0, 61, 39
1, 14730, Note_on_c, 0, 75, 0
1, 14730, Note_on_c, 0, 63, 0
1, 14800, Tempo, 594471
1, 14800, Note_on_c, 0, 73, 60
1, 14810, Note_on_c, 0, 77, 0
1, 14880, Tempo, 575374
1, 14880, Note_on_c, 0, 73, 0
1, 14880, Note_on_c, 0, 61, 0
1, 14880, Note_on_c, 0, 72, 64
1, 14880, Note_on_c, 0, 55, 50
1, 14960, Note_on_c, 0, 73, 56
1, 14970, Note_on_c, 0, 72, 0
1, 15040, Note_on_c, 0, 70, 53
1, 15040, Note_on_c, 0, 63, 40
1, 15050, Note_on_c, 0, 73, 0
1, 15050, Note_on_c, 0, 55, 0
1, 15120, Note_on_c, 0, 72, 53
1, 15130, Note_on_c, 0, 70, 0
1, 15200, Note_on_c, 0, 65, 57
1, 15200, Note_on_c, 0, 61, 38
1, 15210, Note_on_c, 0, 72, 0
1, 15210, Note_on_c, 0, 63, 0
1, 15280, Note_on_c, 0, 67, 52
1, 15290, Note_on_c, 0, 65, 0
1, 15360, Tempo, 559963
1, 15360, Note_on_c, 0, 67, 0
1, 15360, Note_on_c, 0, 61, 0
1, 15360, Note_on_c, 0, 68, 60
1, 15360, Note_on_c, 0, 44, 48
1, 15397, Control_c, 0, 64, 127
1, 15440, Note_on_c, 0, 70, 51
1, 15450, Note_on_c, 0, 68, 0
1, 15520, Note_on_c, 0, 68, 51
1, 15520, Note_on_c, 0, 60, 39
1, 15530, Note_on_c, 0, 70, 0
1, 15530, Note_on_c, 0, 44, 0
1, 15600, Note_on_c, 0, 67, 49
1, 15610, Note_on_c, 0, 68, 0
1, 15680, Note_on_c, 0, 68, 51
1, 15680, Note_on_c, 0, 51, 36
1, 15690, Note_on_c, 0, 67, 0
1, 15690, Note_on_c, 0, 60, 0
1, 15760, Tempo, 594471
1, 15760, Note_on_c, 0, 69, 53
1, 15770, Note_on_c, 0, 68, 0
1, 15840, Tempo, 580720
1, 15840, Note_on_c, 0, 69, 0
1, 15840, Note_on_c, 0, 51, 0
1, 15840, Note_on_c, 0, 70, 60
1, 15840, Note_on_c, 0, 52, 53
1, 15849, Control_c, 0, 64, 0
1, 15920, Note_on_c, 0, 72, 52
1, 15930, Note_on_c, 0, 70, 0
1, 16000, Note_on_c, 0, 70, 52
1, 16000, Note_on_c, 0, 61, 39
1, 16010, Note_on_c, 0, 72, 0
1, 16010, Note_on_c, 0, 52, 0
1, 16080, Note_on_c, 0, 72, 51
1, 16090, Note_on_c, 0, 70, 0
1, 16160, Note_on_c, 0, 65, 49
1, 16160, Note_on_c, 0, 51, 35
1, 16170, Note_on_c, 0, 72, 0
1, 16170, Note_on_c, 0, 61, 0
1, 16240, Tempo, 588928
1, 16240, Note_on_c, 0, 67, 55
1, 16250, Note_on_c, 0, 65, 0
1, 16320, Tempo, 559963
1, 16320, Note_on_c, 0, 67, 0
1, 16320, Note_on_c, 0, 51, 0
1, 16320, Note_on_c, 0, 68, 60
1, 16320, Note_on_c, 0, 44, 48
1, 16357, Control_c, 0, 64, 127
1, 16400, Note_on_c, 0, 70, 55
1, 16410, Note_on_c, 0, 68, 0
1, 16480, Note_on_c, 0, 68, 49
1, 16480, Note_on_c, 0, 60, 39
1, 16490, Note_on_c, 0, 70, 0
1, 16490, Note_on_c, 0, 44, 0
1, 16560, Note_on_c, 0, 67, 49
1, 16570, Note_on_c, 0, 68, 0
1, 16640, Note_on_c, 0, 68, 51
1, 16640, Note_on_c, 0, 51, 35
1, 16650, Note_on_c, 0, 67, 0
1, 16650, Note_on_c, 0, 60, 0
1, 16720, Tempo, 594471
1, 16720, Note_on_c, 0, 69, 55
1, 16730, Note_on_c, 0, 68, 0
1, 16800, Tempo, 580720
1, 16800, Note_on_c, 0, 69, 0
1, 16800, Note_on_c, 0, 51, 0
1, 16800, Note_on_c, 0, 70, 60
1, 16800, Note_on_c, 0, 52, 50
1, 16811, Control_c, 0, 64, 0
1, 16880, Note_on_c, 0, 72, 55
1, 16890, Note_on_c, 0, 70, 0
1, 16960, Note_on_c, 0, 70, 55
1, 16960, Note_on_c, 0, 61, 39
1, 16970, Note_on_c, 0, 72, 0
1, 16970, Note_on_c, 0, 52, 0
1, 17040, Note_on_c, 0, 72, 51
1, 17050, Note_on_c, 0, 70, 0
1, 17120, Note_on_c, 0, 65, 51
1, 17120, Note_on_c, 0, 51, 36
1, 17130, Note_on_c, 0, 72, 0
1, 17130, Note_on_c, 0, 61, 0
1, 17200, Tempo, 588928
1, 17200, Note_on_c, 0, 67, 51
1, 17210, Note_on_c, 0, 65, 0
1, 17280, Tempo, 559963
1, 17280, Note_on_c, 0, 67, 0
1, 17280, Note_on_c, 0, 51, 0
1, 17280, Note_on_c, 0, 68, 60
1, 17280, Note_on_c, 0, 44, 48
1, 17317, Control_c, 0, 64, 127
1, 17360, Note_on_c, 0, 70, 55
1, 17370, Note_on_c, 0, 68, 0
1, 17440, Note_on_c, 0, 68, 50
1, 17440, Note_on_c, 0, 60, 39
1, 17450, Note_on_c, 0, 70, 0
1, 17450, Note_on_c, 0, 44, 0
1, 17520, Note_on_c, 0, 67, 48
1, 17530, Note_on_c, 0, 68, 0
1, 17600, Note_on_c, 0, 68, 51
1, 17600, Note_on_c, 0, 51, 34
1, 17610, Note_on_c, 0, 67, 0
1, 17610, Note_on_c, 0, 60, 0
1, 17680, Tempo, 594471
1, 17680, Note_on_c, 0, 70, 55
1, 17690, Note_on_c, 0, 68, 0
1, 17760, Tempo, 580720
1, 17760, Note_on_c, 0, 70, 0
1, 17760, Note_on_c, 0, 51, 0
1, 17760, Note_on_c, 0, 72, 60
1, 17760, Note_on_c, 0, 48, 50
1, 17767, Control_c, 0, 64, 0
1, 17800, Tempo, 578090
1, 17803, Control_c, 0, 64, 127
1, 17840, Note_on_c, 0, 72, 0
1, 17840, Note_on_c, 0, 73, 55
1, 17860, Tempo, 580720
1, 17920, Tempo, 583431
1, 17920, Note_on_c, 0, 73, 0
1, 17920, Note_on_c, 0, 72, 50
1, 17920, Note_on_c, 0, 55, 38
1, 17930, Note_on_c, 0, 48, 0
1, 17960, Tempo, 586224
1, 18000, Note_on_c, 0, 72, 0
1, 18000, Note_on_c, 0, 71, 49
1, 18020, Tempo, 588928
1, 18080, Tempo, 591774
1, 18080, Note_on_c, 0, 71, 0
1, 18080, Note_on_c, 0, 72, 52
1, 18080, Note_on_c, 0, 58, 34
1, 18090, Note_on_c, 0, 55, 0
1, 18120, Tempo, 594471
1, 18160, Tempo, 588928
1, 18160, Note_on_c, 0, 72, 0
1, 18160, Note_on_c, 0, 73, 49
1, 18240, Tempo, 605938
1, 18240, Note_on_c, 0, 73, 0
1, 18240, Note_on_c, 0, 58, 0
1, 18240, Note_on_c, 0, 72, 57
1, 18240, Note_on_c, 0, 63, 47
1, 18280, Tempo, 608952
1, 18320, Tempo, 611933
1, 18320, Note_on_c, 0, 72, 0
1, 18320, Note_on_c, 0, 73, 52
1, 18360, Tempo, 615006
1, 18400, Tempo, 617983
1, 18400, Note_on_c, 0, 73, 0
1, 18400, Note_on_c, 0, 72, 51
1, 18440, Tempo, 621054
1, 18460, Tempo, 624090
1, 18480, Note_on_c, 0, 72, 0
1, 18480, Note_on_c, 0, 63, 0
1, 18480, Note_on_c, 0, 71, 44
1, 18500, Tempo, 627287
1, 18540, Tempo, 630385
1, 18560, Note_on_c, 0, 71, 0
1, 18560, Note_on_c, 0, 72, 46
1, 18580, Tempo, 633580
1, 18620, Tempo, 636740
1, 18640, Tempo, 640068
1, 18640, Note_on_c, 0, 72, 0
1, 18640, Note_on_c, 0, 73, 46
1, 18680, Tempo, 643363
1, 18720, Tempo, 646691
1, 18720, Note_on_c, 0, 73, 0
1, 18720, Note_on_c, 0, 72, 48
1, 18760, Tempo, 649984
1, 18800, Tempo, 653381
1, 18800, Note_on_c, 0, 72, 0
1, 18800, Note_on_c, 0, 73, 42
1, 18820, Tempo, 656814
1, 18860, Tempo, 660284
1, 18880, Note_on_c, 0, 73, 0
1, 18880, Note_on_c, 0, 72, 39
1, 18900, Tempo, 663790
1, 18940, Tempo, 663790
1, 18960, Tempo, 674460
1, 18960, Note_on_c, 0, 72, 0
1, 18960, Note_on_c, 0, 73, 37
1, 18980, Tempo, 685479
1, 19000, Tempo, 700853
1, 19020, Tempo, 712758
1, 19040, Tempo, 729395
1, 19040, Note_on_c, 0, 73, 0
1, 19040, Note_on_c, 0, 72, 36
1, 19060, Tempo, 742299
1, 19080, Tempo, 755763
1, 19100, Tempo, 774393
1, 19120, Tempo, 788955
1, 19120, Note_on_c, 0, 72, 0
1, 19120, Note_on_c, 0, 73, 33
1, 19140, Tempo, 809280
1, 19160, Tempo, 689259
1, 19174, Control_c, 0, 64, 0
1, 19180, Tempo, 693081
1, 19200, Tempo, 627287
1, 19200, Note_on_c, 0, 73, 0
1, 19200, Note_on_c, 0, 72, 53
1, 19200, Note_on_c, 0, 52, 39
1, 19280, Note_on_c, 0, 73, 45
1, 19290, Note_on_c, 0, 72, 0
1, 19300, Tempo, 591774
1, 19360, Note_on_c, 0, 71, 45
1, 19360, Note_on_c, 0, 67, 31
1, 19370, Note_on_c, 0, 73, 0
1, 19370, Note_on_c, 0, 52, 0
1, 19400, Tempo, 588928
1, 19440, Note_on_c, 0, 72, 45
1, 19450, Note_on_c, 0, 71, 0
1, 19480, Tempo, 591774
1, 19520, Tempo, 572792
1, 19520, Note_on_c, 0, 75, 49
1, 19520, Note_on_c, 0, 60, 30
1, 19530, Note_on_c, 0, 72, 0
1, 19530, Note_on_c, 0, 67, 0
1, 19600, Note_on_c, 0, 73, 46
1, 19610, Note_on_c, 0, 75, 0
1, 19620, Tempo, 597372
1, 19660, Tempo, 591774
1, 19680, Note_on_c, 0, 73, 0
1, 19680, Note_on_c, 0, 60, 0
1, 19680, Note_on_c, 0, 72, 55
1, 19680, Note_on_c, 0, 58, 40
1, 19740, Tempo, 588928
1, 19760, Note_on_c, 0, 73, 48
1, 19770, Note_on_c, 0, 72, 0
1, 19780, Tempo, 586224
1, 19840, Note_on_c, 0, 71, 48
1, 19840, Note_on_c, 0, 67, 35
1, 19850, Note_on_c, 0, 73, 0
1, 19850, Note_on_c, 0, 58, 0
1, 19860, Tempo, 583431
1, 19920, Tempo, 580720
1, 19920, Note_on_c, 0, 72, 48
1, 19930, Note_on_c, 0, 71, 0
1, 20000, Tempo, 567591
1, 20000, Note_on_c, 0, 78, 51
1, 20000, Note_on_c, 0, 60, 30
1, 20010, Note_on_c, 0, 72, 0
1, 20010, Note_on_c, 0, 67, 0
1, 20060, Tempo, 575374
1, 20080, Tempo, 603136
1, 20080, Note_on_c, 0, 79, 48
1, 20090, Note_on_c, 0, 78, 0
1, 20140, Tempo, 594471
1, 20160, Tempo, 583431
1, 20160, Note_on_c, 0, 79, 0
1, 20160, Note_on_c, 0, 60, 0
1, 20160, Note_on_c, 0, 72, 57
1, 20160, Note_on_c, 0, 53, 42
1, 20220, Tempo, 580720
1, 20240, Note_on_c, 0, 73, 51
1, 20250, Note_on_c, 0, 72, 0
1, 20260, Tempo, 578090
1, 20300, Tempo, 575374
1, 20320, Note_on_c, 0, 71, 47
1, 20320, Note_on_c, 0, 68, 37
1, 20330, Note_on_c, 0, 73, 0
1, 20330, Note_on_c, 0, 53, 0
1, 20360, Tempo, 572792
1, 20400, Tempo, 570125
1, 20400, Note_on_c, 0, 72, 49
1, 20410, Note_on_c, 0, 71, 0
1, 20440, Tempo, 567591
1, 20480, Tempo, 565025
1, 20480, Note_on_c, 0, 75, 52
1, 20480, Note_on_c, 0, 60, 34
1, 20490, Note_on_c, 0, 72, 0
1, 20490, Note_on_c, 0, 68, 0
1, 20560, Tempo, 577812
1, 20560, Note_on_c, 0, 73, 49
1, 20570, Note_on_c, 0, 75, 0
1, 20640, Tempo, 559963
1, 20640, Note_on_c, 0, 73, 0
1, 20640, Note_on_c, 0, 60, 0
1, 20640, Note_on_c, 0, 72, 58
1, 20640, Note_on_c, 0, 56, 46
1, 20720, Note_on_c, 0, 73, 49
1, 20730, Note_on_c, 0, 72, 0
1, 20800, Note_on_c, 0, 71, 50
1, 20800, Note_on_c, 0, 68, 38
1, 20810, Note_on_c, 0, 73, 0
1, 20810, Note_on_c, 0, 56, 0
1, 20880, Note_on_c, 0, 72, 50
1, 20890, Note_on_c, 0, 71, 0
1, 20960, Note_on_c, 0, 80, 53
1, 20960, Note_on_c, 0, 60, 36
1, 20970, Note_on_c, 0, 72, 0
1, 20970, Note_on_c, 0, 68, 0
1, 21040, Tempo, 588928
1, 21040, Note_on_c, 0, 77, 49
1, 21050, Note_on_c, 0, 80, 0
1, 21120, Tempo, 555042
1, 21120, Note_on_c, 0, 77, 0
1, 21120, Note_on_c, 0, 60, 0
1, 21120, Note_on_c, 0, 76, 60
1, 21120, Note_on_c, 0, 55, 48
1, 21140, Tempo, 559963
1, 21200, Note_on_c, 0, 77, 53
1, 21210, Note_on_c, 0, 76, 0
1, 21280, Note_on_c, 0, 76, 55
1, 21280, Note_on_c, 0, 70, 39
1, 21290, Note_on_c, 0, 77, 0
1, 21290, Note_on_c, 0, 55, 0
1, 21320, Tempo, 555042
1, 21360, Tempo, 557517
1, 21360, Note_on_c, 0, 75, 56
1, 21370, Note_on_c, 0, 76, 0
1, 21400, Tempo, 559963
1, 21440, Tempo, 562535
1, 21440, Note_on_c, 0, 76, 57
1, 21440, Note_on_c, 0, 64, 36
1, 21450, Note_on_c, 0, 75, 0
1, 21450, Note_on_c, 0, 70, 0
1, 21480, Tempo, 565025
1, 21500, Tempo, 567591
1, 21520, Tempo, 586224
1, 21520, Note_on_c, 0, 79, 60
1, 21530, Note_on_c, 0, 76, 0
1, 21600, Tempo, 624090
1, 21600, Note_on_c, 0, 79, 0
1, 21600, Note_on_c, 0, 64, 0
1, 21600, Note_on_c, 0, 82, 68
1, 21600, Note_on_c, 0, 61, 49
1, 21680, Tempo, 552639
1, 21680, Note_on_c, 0, 84, 60
1, 21690, Note_on_c, 0, 82, 0
1, 21760, Note_on_c, 0, 82, 61
1, 21760, Note_on_c, 0, 70, 44
1, 21770, Note_on_c, 0, 84, 0
1, 21770, Note_on_c, 0, 61, 0
1, 21840, Note_on_c, 0, 81, 63
1, 21850, Note_on_c, 0, 82, 0
1, 21920, Note_on_c, 0, 82, 62
1, 21920, Note_on_c, 0, 64, 39
1, 21930, Note_on_c, 0, 81, 0
1, 21930, Note_on_c, 0, 70, 0
1, 22000, Tempo, 592710
1, 22000, Note_on_c, 0, 85, 66
1, 22010, Note_on_c, 0, 82, 0
1, 22080, Tempo, 689259
1, 22080, Note_on_c, 0, 85, 0
1, 22080, Note_on_c, 0, 64, 0
1, 22080, Note_on_c, 0, 84, 70
1, 22080, Note_on_c, 0, 56, 55
1, 22160, Tempo, 565025
1, 22160, Note_on_c, 0, 85, 61
1, 22170, Note_on_c, 0, 84, 0
1, 22240, Note_on_c, 0, 84, 61
1, 22240, Note_on_c, 0, 68, 45
1, 22250, Note_on_c, 0, 85, 0
1, 22250, Note_on_c, 0, 56, 0
1, 22320, Note_on_c, 0, 83, 61
1, 22330, Note_on_c, 0, 84, 0
1, 22400, Note_on_c, 0, 84, 62
1, 22400, Note_on_c, 0, 65, 44
1, 22410, Note_on_c, 0, 83, 0
1, 22410, Note_on_c, 0, 68, 0
1, 22480, Tempo, 594471
1, 22480, Note_on_c, 0, 79, 60
1, 22490, Note_on_c, 0, 84, 0
1, 22560, Tempo, 575374
1, 22560, Note_on_c, 0, 79, 0
1, 22560, Note_on_c, 0, 65, 0
1, 22560, Note_on_c, 0, 80, 63
1, 22560, Note_on_c, 0, 60, 50
1, 22640, Note_on_c, 0, 82, 56
1, 22650, Note_on_c, 0, 80, 0
1, 22720, Note_on_c, 0, 80, 56
1, 22720, Note_on_c, 0, 68, 40
1, 22730, Note_on_c, 0, 82, 0
1, 22730, Note_on_c, 0, 60, 0
1, 22800, Note_on_c, 0, 79, 56
1, 22810, Note_on_c, 0, 80, 0
1, 22880, Note_on_c, 0, 80, 57
1, 22880, Note_on_c, 0, 65, 40
1, 22890, Note_on_c, 0, 79, 0
1, 22890, Note_on_c, 0, 68, 0
1, 22960, Note_on_c, 0, 76, 52
1, 22970, Note_on_c, 0, 80, 0
1, 23040, Tempo, 575374
1, 23040, Note_on_c, 0, 76, 0
1, 23040, Note_on_c, 0, 65, 0
1, 23040, Note_on_c, 0, 77, 59
1, 23040, Note_on_c, 0, 46, 48
1, 23060, Tempo, 580720
1, 23074, Control_c, 0, 64, 127
1, 23120, Note_on_c, 0, 79, 51
1, 23130, Note_on_c, 0, 77, 0
1, 23160, Tempo, 578090
1, 23200, Note_on_c, 0, 77, 51
1, 23200, Note_on_c, 0, 61, 36
1, 23210, Note_on_c, 0, 79, 0
1, 23210, Note_on_c, 0, 46, 0
1, 23240, Tempo, 575374
1, 23280, Note_on_c, 0, 76, 52
1, 23290, Note_on_c, 0, 77, 0
1, 23340, Tempo, 572792
1, 23360, Note_on_c, 0, 77, 55
1, 23360, Note_on_c, 0, 55, 36
1, 23370, Note_on_c, 0, 76, 0
1, 23370, Note_on_c, 0, 61, 0
1, 23420, Tempo, 570125
1, 23440, Note_on_c, 0, 72, 50
1, 23450, Note_on_c, 0, 77, 0
1, 23500, Tempo, 567591
1, 23520, Note_on_c, 0, 72, 0
1, 23520, Note_on_c, 0, 55, 0
1, 23520, Note_on_c, 0, 73, 56
1, 23520, Note_on_c, 0, 53, 48
1, 23526, Control_c, 0, 64, 0
1, 23549, Control_c, 0, 64, 127
1, 23560, Tempo, 570125
1, 23600, Note_on_c, 0, 75, 51
1, 23610, Note_on_c, 0, 73, 0
1, 23620, Tempo, 572792
1, 23680, Tempo, 575374
1, 23680, Note_on_c, 0, 73, 51
1, 23680, Note_on_c, 0, 61, 36
1, 23690, Note_on_c, 0, 75, 0
1, 23690, Note_on_c, 0, 53, 0
1, 23740, Tempo, 578090
1, 23760, Note_on_c, 0, 72, 51
1, 23770, Note_on_c, 0, 73, 0
1, 23800, Tempo, 580720
1, 23840, Note_on_c, 0, 73, 55
1, 23840, Note_on_c, 0, 55, 36
1, 23850, Note_on_c, 0, 72, 0
1, 23850, Note_on_c, 0, 61, 0
1, 23860, Tempo, 583431
1, 23920, Tempo, 597372
1, 23920, Note_on_c, 0, 71, 51
1, 23930, Note_on_c, 0, 73, 0
1, 24000, Tempo, 578090
1, 24000, Note_on_c, 0, 71, 0
1, 24000, Note_on_c, 0, 55, 0
1, 24000, Note_on_c, 0, 72, 58
1, 24000, Note_on_c, 0, 48, 48
1, 24009, Control_c, 0, 64, 0
1, 24080, Note_on_c, 0, 73, 52
1, 24090, Note_on_c, 0, 72, 0
1, 24100, Tempo, 575374
1, 24160, Note_on_c, 0, 72, 48
1, 24160, Note_on_c, 0, 60, 39
1, 24170, Note_on_c, 0, 73, 0
1, 24170, Note_on_c, 0, 48, 0
1, 24200, Tempo, 572792
1, 24240, Note_on_c, 0, 71, 48
1, 24250, Note_on_c, 0, 72, 0
1, 24300, Tempo, 570125
1, 24320, Note_on_c, 0, 72, 55
1, 24320, Note_on_c, 0, 56, 39
1, 24330, Note_on_c, 0, 71, 0
1, 24330, Note_on_c, 0, 60, 0
1, 24400, Tempo, 567591
1, 24400, Note_on_c, 0, 67, 50
1, 24410, Note_on_c, 0, 72, 0
1, 24480, Tempo, 565025
1, 24480, Note_on_c, 0, 67, 0
1, 24480, Note_on_c, 0, 56, 0
1, 24480, Note_on_c, 0, 68, 57
1, 24480, Note_on_c, 0, 53, 48
1, 24560, Note_on_c, 0, 70, 49
1, 24570, Note_on_c, 0, 68, 0
1, 24640, Note_on_c, 0, 68, 48
1, 24640, Note_on_c, 0, 60, 39
1, 24650, Note_on_c, 0, 70, 0
1, 24650, Note_on_c, 0, 53, 0
1, 24720, Note_on_c, 0, 67, 46
1, 24730, Note_on_c, 0, 68, 0
1, 24800, Note_on_c, 0, 68, 55
1, 24800, Note_on_c, 0, 56, 39
1, 24810, Note_on_c, 0, 67, 0
1, 24810, Note_on_c, 0, 60, 0
1, 24880, Tempo, 588928
1, 24880, Note_on_c, 0, 65, 46
1, 24890, Note_on_c, 0, 68, 0
1, 24960, Tempo, 570125
1, 24960, Note_on_c, 0, 65, 0
1, 24960, Note_on_c, 0, 56, 0
1, 24960, Note_on_c, 0, 64, 60
1, 24960, Note_on_c, 0, 48, 48
1, 25000, Tempo, 567591
1, 25009, Control_c, 0, 64, 127
1, 25040, Tempo, 565025
1, 25040, Note_on_c, 0, 67, 55
1, 25050, Note_on_c, 0, 64, 0
1, 25080, Tempo, 562535
1, 25120, Tempo, 559963
1, 25120, Note_on_c, 0, 70, 56
1, 25120, Note_on_c, 0, 64, 39
1, 25130, Note_on_c, 0, 67, 0
1, 25130, Note_on_c, 0, 48, 0
1, 25140, Tempo, 557517
1, 25200, Note_on_c, 0, 73, 58
1, 25210, Note_on_c, 0, 70, 0
1, 25280, Note_on_c, 0, 76, 60
1, 25280, Note_on_c, 0, 60, 40
1, 25290, Note_on_c, 0, 73, 0
1, 25290, Note_on_c, 0, 64, 0
1, 25360, Tempo, 597372
1, 25360, Note_on_c, 0, 79, 61
1, 25370, Note_on_c, 0, 76, 0
1, 25440, Tempo, 660284
1, 25440, Note_on_c, 0, 79, 0
1, 25440, Note_on_c, 0, 60, 0
1, 25440, Note_on_c, 0, 82, 70
1, 25440, Note_on_c, 0, 55, 49
1, 25458, Control_c, 0, 64, 0
1, 25494, Control_c, 0, 64, 127
1, 25500, Tempo, 605938
1, 25520, Note_on_c, 0, 85, 60
1, 25530, Note_on_c, 0, 82, 0
1, 25540, Tempo, 603136
1, 25560, Tempo, 600180
1, 25600, Tempo, 597372
1, 25600, Note_on_c, 0, 84, 61
1, 25600, Note_on_c, 0, 64, 44
1, 25610, Note_on_c, 0, 85, 0
1, 25610, Note_on_c, 0, 55, 0
1, 25620, Tempo, 594471
1, 25660, Tempo, 591774
1, 25680, Tempo, 588928
1, 25680, Note_on_c, 0, 82, 62
1, 25690, Note_on_c, 0, 84, 0
1, 25720, Tempo, 586224
1, 25740, Tempo, 583431
1, 25760, Note_on_c, 0, 80, 61
1, 25760, Note_on_c, 0, 58, 45
1, 25770, Note_on_c, 0, 82, 0
1, 25770, Note_on_c, 0, 64, 0
1, 25780, Tempo, 580720
1, 25800, Tempo, 578090
1, 25820, Tempo, 575374
1, 25840, Tempo, 621054
1, 25840, Note_on_c, 0, 79, 62
1, 25850, Note_on_c, 0, 80, 0
1, 25920, Tempo, 621054
1, 25920, Note_on_c, 0, 79, 0
1, 25920, Note_on_c, 0, 58, 0
1, 25920, Note_on_c, 0, 82, 70
1, 25920, Control_c, 0, 64, 0
1, 25920, Note_on_c, 0, 53, 55
1, 26000, Tempo, 583431
1, 26000, Note_on_c, 0, 84, 67
1, 26010, Note_on_c, 0, 82, 0
1, 26060, Tempo, 586224
1, 26080, Note_on_c, 0, 80, 63
1, 26080, Note_on_c, 0, 65, 42
1, 26090, Note_on_c, 0, 84, 0
1, 26090, Note_on_c, 0, 53, 0
1, 26120, Tempo, 588928
1, 26160, Note_on_c, 0, 79, 63
1, 26170, Note_on_c, 0, 80, 0
1, 26180, Tempo, 591774
1, 26220, Tempo, 594471
1, 26240, Note_on_c, 0, 80, 59
1, 26240, Note_on_c, 0, 60, 35
1, 26250, Note_on_c, 0, 79, 0
1, 26250, Note_on_c, 0, 65, 0
1, 26280, Tempo, 597372
1, 26320, Note_on_c, 0, 77, 53
1, 26330, Note_on_c, 0, 80, 0
1, 26340, Tempo, 600180
1, 26380, Tempo, 603136
1, 26400, Tempo, 600180
1, 26400, Note_on_c, 0, 77, 0
1, 26400, Note_on_c, 0, 60, 0
1, 26400, Note_on_c, 0, 76, 61
1, 26400, Note_on_c, 0, 56, 41
1, 26460, Tempo, 603136
1, 26480, Note_on_c, 0, 79, 49
1, 26490, Note_on_c, 0, 76, 0
1, 26520, Tempo, 605938
1, 26560, Note_on_c, 0, 77, 48
1, 26560, Note_on_c, 0, 65, 35
1, 26570, Note_on_c, 0, 79, 0
1, 26570, Note_on_c, 0, 56, 0
1, 26580, Tempo, 608952
1, 26620, Tempo, 611933
1, 26640, Note_on_c, 0, 76, 48
1, 26650, Note_on_c, 0, 77, 0
1, 26680, Tempo, 615006
1, 26720, Note_on_c, 0, 77, 48
1, 26720, Note_on_c, 0, 61, 30
1, 26730, Note_on_c, 0, 76, 0
1, 26730, Note_on_c, 0, 65, 0
1, 26740, Tempo, 617983
1, 26780, Tempo, 621054
1, 26800, Tempo, 630385
1, 26800, Note_on_c, 0, 73, 45
1, 26810, Note_on_c, 0, 77, 0
1, 26880, Tempo, 615006
1, 26880, Note_on_c, 0, 73, 0
1, 26880, Note_on_c, 0, 61, 0
1, 26880, Note_on_c, 0, 72, 53
1, 26880, Note_on_c, 0, 52, 39
1, 26960, Tempo, 611933
1, 26960, Note_on_c, 0, 73, 44
1, 26970, Note_on_c, 0, 72, 0
1, 27040, Tempo, 608952
1, 27040, Note_on_c, 0, 71, 44
1, 27040, Note_on_c, 0, 67, 31
1, 27050, Note_on_c, 0, 73, 0
1, 27050, Note_on_c, 0, 52, 0
1, 27120, Tempo, 605938
1, 27120, Note_on_c, 0, 72, 44
1, 27130, Note_on_c, 0, 71, 0
1, 27200, Tempo, 575374
1, 27200, Note_on_c, 0, 75, 49
1, 27200, Note_on_c, 0, 60, 28
1, 27210, Note_on_c, 0, 72, 0
1, 27210, Note_on_c, 0, 67, 0
1, 27280, Tempo, 600180
1, 27280, Note_on_c, 0, 73, 45
1, 27290, Note_on_c, 0, 75, 0
1, 27360, Tempo, 597372
1, 27360, Note_on_c, 0, 73, 0
1, 27360, Note_on_c, 0, 60, 0
1, 27360, Note_on_c, 0, 72, 55
1, 27360, Note_on_c, 0, 58, 39
1, 27440, Tempo, 594471
1, 27440, Note_on_c, 0, 73, 46
1, 27450, Note_on_c, 0, 72, 0
1, 27500, Tempo, 591774
1, 27520, Note_on_c, 0, 71, 46
1, 27520, Note_on_c, 0, 67, 34
1, 27530, Note_on_c, 0, 73, 0
1, 27530, Note_on_c, 0, 58, 0
1, 27560, Tempo, 588928
1, 27600, Note_on_c, 0, 72, 46
1, 27610, Note_on_c, 0, 71, 0
1, 27620, Tempo, 586224
1, 27680, Tempo, 570125
1, 27680, Note_on_c, 0, 78, 51
1, 27680, Note_on_c, 0, 60, 30
1, 27690, Note_on_c, 0, 72, 0
1, 27690, Note_on_c, 0, 67, 0
1, 27740, Tempo, 580720
1, 27760, Tempo, 611933
1, 27760, Note_on_c, 0, 79, 46
1, 27770, Note_on_c, 0, 78, 0
1, 27840, Tempo, 583431
1, 27840, Note_on_c, 0, 79, 0
1, 27840, Note_on_c, 0, 60, 0
1, 27840, Note_on_c, 0, 72, 57
1, 27840, Note_on_c, 0, 53, 45
1, 27920, Tempo, 580720
1, 27920, Note_on_c, 0, 73, 46
1, 27930, Note_on_c, 0, 72, 0
1, 27980, Tempo, 578090
1, 28000, Note_on_c, 0, 71, 46
1, 28000, Note_on_c, 0, 68, 36
1, 28010, Note_on_c, 0, 73, 0
1, 28010, Note_on_c, 0, 53, 0
1, 28040, Tempo, 575374
1, 28080, Note_on_c, 0, 72, 47
1, 28090, Note_on_c, 0, 71, 0
1, 28100, Tempo, 572792
1, 28160, Tempo, 570125
1, 28160, Note_on_c, 0, 75, 52
1, 28160, Note_on_c, 0, 60, 29
1, 28170, Note_on_c, 0, 72, 0
1, 28170, Note_on_c, 0, 68, 0
1, 28220, Tempo, 567591
1, 28240, Tempo, 577812
1, 28240, Note_on_c, 0, 73, 47
1, 28250, Note_on_c, 0, 75, 0
1, 28320, Tempo, 555042
1, 28320, Note_on_c, 0, 73, 0
1, 28320, Note_on_c, 0, 60, 0
1, 28320, Note_on_c, 0, 72, 53
1, 28320, Note_on_c, 0, 56, 46
1, 28340, Tempo, 578090
1, 28400, Tempo, 555042
1, 28400, Note_on_c, 0, 73, 48
1, 28410, Note_on_c, 0, 72, 0
1, 28480, Note_on_c, 0, 71, 49
1, 28480, Note_on_c, 0, 68, 38
1, 28490, Note_on_c, 0, 73, 0
1, 28490, Note_on_c, 0, 56, 0
1, 28560, Note_on_c, 0, 72, 49
1, 28570, Note_on_c, 0, 71, 0
1, 28640, Note_on_c, 0, 80, 53
1, 28640, Note_on_c, 0, 60, 34
1, 28650, Note_on_c, 0, 72, 0
1, 28650, Note_on_c, 0, 68, 0
1, 28720, Tempo, 588928
1, 28720, Note_on_c, 0, 77, 50
1, 28730, Note_on_c, 0, 80, 0
1, 28800, Tempo, 555042
1, 28800, Note_on_c, 0, 77, 0
1, 28800, Note_on_c, 0, 60, 0
1, 28800, Note_on_c, 0, 75, 60
1, 28800, Note_on_c, 0, 55, 48
1, 28880, Note_on_c, 0, 77, 53
1, 28890, Note_on_c, 0, 75, 0
1, 28960, Note_on_c, 0, 75, 56
1, 28960, Note_on_c, 0, 70, 39
1, 28970, Note_on_c, 0, 77, 0
1, 28970, Note_on_c, 0, 55, 0
1, 28980, Tempo, 552639
1, 29020, Tempo, 555042
1, 29040, Note_on_c, 0, 74, 57
1, 29050, Note_on_c, 0, 75, 0
1, 29060, Tempo, 557517
1, 29100, Tempo, 559963
1, 29120, Note_on_c, 0, 75, 60
1, 29120, Note_on_c, 0, 63, 42
1, 29130, Note_on_c, 0, 74, 0
1, 29130, Note_on_c, 0, 70, 0
1, 29140, Tempo, 562535
1, 29180, Tempo, 565025
1, 29200, Tempo, 586224
1, 29200, Note_on_c, 0, 79, 62
1, 29210, Note_on_c, 0, 75, 0
1, 29280, Tempo, 570125
1, 29280, Note_on_c, 0, 79, 0
1, 29280, Note_on_c, 0, 63, 0
1, 29280, Note_on_c, 0, 82, 70
1, 29280, Note_on_c, 0, 61, 51
1, 29360, Tempo, 552639
1, 29360, Note_on_c, 0, 84, 62
1, 29370, Note_on_c, 0, 82, 0
1, 29440, Tempo, 550156
1, 29440, Note_on_c, 0, 82, 64
1, 29440, Note_on_c, 0, 70, 46
1, 29450, Note_on_c, 0, 84, 0
1, 29450, Note_on_c, 0, 61, 0
1, 29500, Tempo, 547795
1, 29520, Note_on_c, 0, 81, 66
1, 29530, Note_on_c, 0, 82, 0
1, 29580, Tempo, 545355
1, 29600, Note_on_c, 0, 82, 64
1, 29600, Note_on_c, 0, 63, 45
1, 29610, Note_on_c, 0, 81, 0
1, 29610, Note_on_c, 0, 70, 0
1, 29640, Tempo, 543085
1, 29680, Tempo, 592710
1, 29680, Note_on_c, 0, 89, 66
1, 29690, Note_on_c, 0, 82, 0
1, 29760, Tempo, 704722
1, 29760, Note_on_c, 0, 89, 0
1, 29760, Note_on_c, 0, 63, 0
1, 29760, Note_on_c, 0, 87, 82
1, 29760, Note_on_c, 0, 56, 59
1, 29840, Tempo, 565025
1, 29840, Note_on_c, 0, 89, 70
1, 29850, Note_on_c, 0, 87, 0
1, 29920, Note_on_c, 0, 87, 70
1, 29920, Note_on_c, 0, 68, 48
1, 29930, Note_on_c, 0, 89, 0
1, 29930, Note_on_c, 0, 56, 0
1, 30000, Note_on_c, 0, 86, 70
1, 30010, Note_on_c, 0, 87, 0
1, 30080, Note_on_c, 0, 87, 66
1, 30080, Note_on_c, 0, 63, 48
1, 30090, Note_on_c, 0, 86, 0
1, 30090, Note_on_c, 0, 68, 0
1, 30160, Tempo, 594471
1, 30160, Note_on_c, 0, 83, 64
1, 30170, Note_on_c, 0, 87, 0
1, 30240, Tempo, 588928
1, 30240, Note_on_c, 0, 83, 0
1, 30240, Note_on_c, 0, 63, 0
1, 30240, Note_on_c, 0, 84, 69
1, 30240, Note_on_c, 0, 60, 56
1, 30280, Tempo, 586224
1, 30320, Tempo, 583431
1, 30320, Note_on_c, 0, 85, 61
1, 30330, Note_on_c, 0, 84, 0
1, 30360, Tempo, 580720
1, 30400, Tempo, 578090
1, 30400, Note_on_c, 0, 84, 61
1, 30400, Note_on_c, 0, 68, 45
1, 30410, Note_on_c, 0, 85, 0
1, 30410, Note_on_c, 0, 60, 0
1, 30480, Note_on_c, 0, 83, 61
1, 30490, Note_on_c, 0, 84, 0
1, 30560, Note_on_c, 0, 84, 61
1, 30560, Note_on_c, 0, 63, 45
1, 30570, Note_on_c, 0, 83, 0
1, 30570, Note_on_c, 0, 68, 0
1, 30640, Note_on_c, 0, 79, 60
1, 30650, Note_on_c, 0, 84, 0
1, 30720, Tempo, 667260
1, 30720, Note_on_c, 0, 79, 0
1, 30720, Note_on_c, 0, 63, 0
1, 30720, Note_on_c, 0, 80, 66
1, 30720, Note_on_c, 0, 49, 51
1, 30800, Tempo, 565025
1, 30800, Note_on_c, 0, 82, 56
1, 30810, Note_on_c, 0, 80, 0
1, 30820, Tempo, 572792
1, 30880, Note_on_c, 0, 80, 56
1, 30880, Note_on_c, 0, 65, 42
1, 30890, Note_on_c, 0, 82, 0
1, 30890, Note_on_c, 0, 49, 0
1, 30960, Note_on_c, 0, 79, 56
1, 30970, Note_on_c, 0, 80, 0
1, 31040, Note_on_c, 0, 80, 58
1, 31040, Note_on_c, 0, 58, 39
1, 31050, Note_on_c, 0, 79, 0
1, 31050, Note_on_c, 0, 65, 0
1, 31120, Tempo, 594471
1, 31120, Note_on_c, 0, 76, 57
1, 31130, Note_on_c, 0, 80, 0
1, 31200, Tempo, 575374
1, 31200, Note_on_c, 0, 76, 0
1, 31200, Note_on_c, 0, 58, 0
1, 31200, Note_on_c, 0, 77, 61
1, 31200, Note_on_c, 0, 56, 48
1, 31280, Note_on_c, 0, 79, 52
1, 31290, Note_on_c, 0, 77, 0
1, 31360, Note_on_c, 0, 77, 52
1, 31360, Note_on_c, 0, 65, 36
1, 31370, Note_on_c, 0, 79, 0
1, 31370, Note_on_c, 0, 56, 0
1, 31400, Tempo, 572792
1, 31440, Tempo, 575374
1, 31440, Note_on_c, 0, 76, 52
1, 31450, Note_on_c, 0, 77, 0
1, 31460, Tempo, 578090
1, 31500, Tempo, 580720
1, 31520, Tempo, 583431
1, 31520, Note_on_c, 0, 77, 53
1, 31520, Note_on_c, 0, 58, 36
1, 31530, Note_on_c, 0, 76, 0
1, 31530, Note_on_c, 0, 65, 0
1, 31560, Tempo, 586224
1, 31580, Tempo, 588928
1, 31600, Note_on_c, 0, 73, 52
1, 31610, Note_on_c, 0, 77, 0
1, 31620, Tempo, 591774
1, 31640, Tempo, 594471
1, 31660, Tempo, 572792
1, 31680, Note_on_c, 0, 73, 0
1, 31680, Note_on_c, 0, 58, 0
1, 31680, Note_on_c, 0, 72, 60
1, 31680, Note_on_c, 0, 51, 48
1, 31700, Tempo, 580720
1, 31760, Tempo, 578090
1, 31760, Note_on_c, 0, 73, 55
1, 31770, Note_on_c, 0, 72, 0
1, 31800, Tempo, 575374
1, 31840, Tempo, 572792
1, 31840, Note_on_c, 0, 70, 52
1, 31840, Note_on_c, 0, 63, 39
1, 31850, Note_on_c, 0, 73, 0
1, 31850, Note_on_c, 0, 51, 0
1, 31880, Tempo, 570125
1, 31920, Note_on_c, 0, 67, 56
1, 31930, Note_on_c, 0, 70, 0
1, 32000, Note_on_c, 0, 68, 57
1, 32000, Note_on_c, 0, 60, 40
1, 32010, Note_on_c, 0, 67, 0
1, 32010, Note_on_c, 0, 63, 0
1, 32080, Tempo, 586224
1, 32080, Note_on_c, 0, 70, 57
1, 32090, Note_on_c, 0, 68, 0
1, 32160, Tempo, 575374
1, 32160, Note_on_c, 0, 70, 0
1, 32160, Note_on_c, 0, 60, 0
1, 32160, Note_on_c, 0, 72, 63
1, 32160, Note_on_c, 0, 56, 49
1, 32240, Note_on_c, 0, 73, 58
1, 32250, Note_on_c, 0, 72, 0
1, 32320, Note_on_c, 0, 75, 60
1, 32320, Note_on_c, 0, 63, 44
1, 32330, Note_on_c, 0, 73, 0
1, 32330, Note_on_c, 0, 56, 0
1, 32400, Note_on_c, 0, 77, 61
1, 32410, Note_on_c, 0, 75, 0
1, 32480, Note_on_c, 0, 79, 61
1, 32480, Note_on_c, 0, 60, 45
1, 32490, Note_on_c, 0, 77, 0
1, 32490, Note_on_c, 0, 63, 0
1, 32560, Tempo, 592710
1, 32560, Note_on_c, 0, 80, 61
1, 32570, Note_on_c, 0, 79, 0
1, 32640, Tempo, 567591
1, 32640, Note_on_c, 0, 80, 0
1, 32640, Note_on_c, 0, 60, 0
1, 32640, Note_on_c, 0, 79, 68
1, 32640, Note_on_c, 0, 51, 55
1, 32720, Tempo, 565025
1, 32720, Note_on_c, 0, 80, 58
1, 32730, Note_on_c, 0, 79, 0
1, 32800, Note_on_c, 0, 77, 58
1, 32800, Note_on_c, 0, 63, 45
1, 32810, Note_on_c, 0, 80, 0
1, 32810, Note_on_c, 0, 51, 0
1, 32880, Note_on_c, 0, 75, 58
1, 32890, Note_on_c, 0, 77, 0
1, 32960, Note_on_c, 0, 77, 61
1, 32960, Note_on_c, 0, 61, 39
1, 32970, Note_on_c, 0, 75, 0
1, 32970, Note_on_c, 0, 63, 0
1, 33040, Tempo, 594471
1, 33040, Note_on_c, 0, 73, 60
1, 33050, Note_on_c, 0, 77, 0
1, 33120, Tempo, 575374
1, 33120, Note_on_c, 0, 73, 0
1, 33120, Note_on_c, 0, 61, 0
1, 33120, Note_on_c, 0, 72, 62
1, 33120, Note_on_c, 0, 55, 50
1, 33200, Note_on_c, 0, 73, 56
1, 33210, Note_on_c, 0, 72, 0
1, 33280, Note_on_c, 0, 70, 53
1, 33280, Note_on_c, 0, 63, 40
1, 33290, Note_on_c, 0, 73, 0
1, 33290, Note_on_c, 0, 55, 0
1, 33360, Note_on_c, 0, 72, 53
1, 33370, Note_on_c, 0, 70, 0
1, 33440, Note_on_c, 0, 65, 57
1, 33440, Note_on_c, 0, 61, 38
1, 33450, Note_on_c, 0, 72, 0
1, 33450, Note_on_c, 0, 63, 0
1, 33520, Note_on_c, 0, 67, 52
1, 33530, Note_on_c, 0, 65, 0
1, 33600, Tempo, 559963
1, 33600, Note_on_c, 0, 67, 0
1, 33600, Note_on_c, 0, 61, 0
1, 33600, Note_on_c, 0, 68, 60
1, 33600, Note_on_c, 0, 44, 48
1, 33637, Control_c, 0, 64, 127
1, 33680, Note_on_c, 0, 70, 51
1, 33690, Note_on_c, 0, 68, 0
1, 33760, Note_on_c, 0, 68, 51
1, 33760, Note_on_c, 0, 60, 39
1, 33770, Note_on_c, 0, 70, 0
1, 33770, Note_on_c, 0, 44, 0
1, 33840, Note_on_c, 0, 67, 49
1, 33850, Note_on_c, 0, 68, 0
1, 33920, Note_on_c, 0, 68, 51
1, 33920, Note_on_c, 0, 51, 36
1, 33930, Note_on_c, 0, 67, 0
1, 33930, Note_on_c, 0, 60, 0
1, 34000, Tempo, 594471
1, 34000, Note_on_c, 0, 69, 53
1, 34010, Note_on_c, 0, 68, 0
1, 34080, Tempo, 580720
1, 34080, Note_on_c, 0, 69, 0
1, 34080, Note_on_c, 0, 51, 0
1, 34080, Note_on_c, 0, 70, 60
1, 34080, Note_on_c, 0, 52, 53
1, 34088, Control_c, 0, 64, 0
1, 34160, Note_on_c, 0, 72, 52
1, 34170, Note_on_c, 0, 70, 0
1, 34240, Note_on_c, 0, 70, 52
1, 34240, Note_on_c, 0, 61, 39
1, 34250, Note_on_c, 0, 72, 0
1, 34250, Note_on_c, 0, 52, 0
1, 34320, Note_on_c, 0, 72, 51
1, 34330, Note_on_c, 0, 70, 0
1, 34400, Note_on_c, 0, 65, 49
1, 34400, Note_on_c, 0, 51, 35
1, 34410, Note_on_c, 0, 72, 0
1, 34410, Note_on_c, 0, 61, 0
1, 34480, Tempo, 588928
1, 34480, Note_on_c, 0, 67, 55
1, 34490, Note_on_c, 0, 65, 0
1, 34560, Tempo, 559963
1, 34560, Note_on_c, 0, 67, 0
1, 34560, Note_on_c, 0, 51, 0
1, 34560, Note_on_c, 0, 68, 60
1, 34560, Note_on_c, 0, 44, 48
1, 34597, Control_c, 0, 64, 127
1, 34640, Note_on_c, 0, 70, 55
1, 34650, Note_on_c, 0, 68, 0
1, 34720, Note_on_c, 0, 68, 49
1, 34720, Note_on_c, 0, 60, 39
1, 34730, Note_on_c, 0, 70, 0
1, 34730, Note_on_c, 0, 44, 0
1, 34800, Note_on_c, 0, 67, 49
1, 34810, Note_on_c, 0, 68, 0
1, 34880, Note_on_c, 0, 68, 51
1, 34880, Note_on_c, 0, 51, 35
1, 34890, Note_on_c, 0, 67, 0
1, 34890, Note_on_c, 0, 60, 0
1, 34960, Tempo, 594471
1, 34960, Note_on_c, 0, 69, 55
1, 34970, Note_on_c, 0, 68, 0
1, 35040, Tempo, 580720
1, 35040, Note_on_c, 0, 69, 0
1, 35040, Note_on_c, 0, 51, 0
1, 35040, Note_on_c, 0, 70, 60
1, 35040, Note_on_c, 0, 52, 50
1, 35050, Control_c, 0, 64, 0
1, 35120, Note_on_c, 0, 72, 55
1, 35130, Note_on_c, 0, 70, 0
1, 35200, Note_on_c, 0, 70, 55
1, 35200, Note_on_c, 0, 61, 39
1, 35210, Note_on_c, 0, 72, 0
1, 35210, Note_on_c, 0, 52, 0
1, 35280, Note_on_c, 0, 72, 51
1, 35290, Note_on_c, 0, 70, 0
1, 35360, Note_on_c, 0, 65, 51
1, 35360, Note_on_c, 0, 51, 36
1, 35370, Note_on_c, 0, 72, 0
1, 35370, Note_on_c, 0, 61, 0
1, 35440, Tempo, 588928
1, 35440, Note_on_c, 0, 67, 51
1, 35450, Note_on_c, 0, 65, 0
1, 35520, Tempo, 559963
1, 35520, Note_on_c, 0, 67, 0
1, 35520, Note_on_c, 0, 51, 0
1, 35520, Note_on_c, 0, 68, 60
1, 35520, Note_on_c, 0, 44, 48
1, 35557, Control_c, 0, 64, 127
1, 35600, Note_on_c, 0, 70, 55
1, 35610, Note_on_c, 0, 68, 0
1, 35680, Note_on_c, 0, 68, 50
1, 35680, Note_on_c, 0, 60, 39
1, 35690, Note_on_c, 0, 70, 0
1, 35690, Note_on_c, 0, 44, 0
1, 35760, Note_on_c, 0, 67, 48
1, 35770, Note_on_c, 0, 68, 0
1, 35840, Note_on_c, 0, 68, 51
1, 35840, Note_on_c, 0, 51, 34
1, 35850, Note_on_c, 0, 67, 0
1, 35850, Note_on_c, 0, 60, 0
1, 35920, Tempo, 594471
1, 35920, Note_on_c, 0, 70, 55
1, 35930, Note_on_c, 0, 68, 0
1, 36000, Tempo, 580720
1, 36000, Note_on_c, 0, 70, 0
1, 36000, Note_on_c, 0, 51, 0
1, 36000, Note_on_c, 0, 72, 67
1, 36000, Note_on_c, 0, 42, 51
1, 36010, Control_c, 0, 64, 0
1, 36020, Tempo, 570125
1, 36040, Tempo, 578090
1, 36043, Control_c, 0, 64, 127
1, 36080, Note_on_c, 0, 72, 0
1, 36080, Note_on_c, 0, 73, 61
1, 36160, Note_on_c, 0, 73, 0
1, 36160, Note_on_c, 0, 72, 55
1, 36160, Note_on_c, 0, 63, 39
1, 36170, Note_on_c, 0, 42, 0
1, 36240, Note_on_c, 0, 72, 0
1, 36240, Note_on_c, 0, 71, 55
1, 36320, Note_on_c, 0, 71, 0
1, 36320, Note_on_c, 0, 72, 62
1, 36320, Note_on_c, 0, 58, 35
1, 36330, Note_on_c, 0, 63, 0
1, 36400, Tempo, 588928
1, 36400, Note_on_c, 0, 72, 0
1, 36400, Note_on_c, 0, 73, 55
1, 36480, Tempo, 559963
1, 36480, Note_on_c, 0, 73, 0
1, 36480, Note_on_c, 0, 58, 0
1, 36480, Note_on_c, 0, 75, 64
1, 36480, Note_on_c, 0, 54, 58
1, 36560, Note_on_c, 0, 77, 61
1, 36570, Note_on_c, 0, 75, 0
1, 36640, Note_on_c, 0, 75, 61
1, 36640, Note_on_c, 0, 63, 49
1, 36650, Note_on_c, 0, 77, 0
1, 36650, Note_on_c, 0, 54, 0
1, 36720, Note_on_c, 0, 77, 66
1, 36730, Note_on_c, 0, 75, 0
1, 36800, Note_on_c, 0, 75, 61
1, 36800, Note_on_c, 0, 58, 45
1, 36810, Note_on_c, 0, 77, 0
1, 36810, Note_on_c, 0, 63, 0
1, 36880, Tempo, 594471
1, 36880, Note_on_c, 0, 73, 61
1, 36890, Note_on_c, 0, 75, 0
1, 36960, Tempo, 580720
1, 36960, Note_on_c, 0, 73, 0
1, 36960, Note_on_c, 0, 58, 0
1, 36960, Note_on_c, 0, 72, 62
1, 36960, Note_on_c, 0, 53, 51
1, 36967, Control_c, 0, 64, 0
1, 37000, Tempo, 578090
1, 37040, Note_on_c, 0, 72, 0
1, 37040, Note_on_c, 0, 73, 61
1, 37060, Tempo, 580720
1, 37120, Tempo, 583431
1, 37120, Note_on_c, 0, 73, 0
1, 37120, Note_on_c, 0, 72, 60
1, 37120, Note_on_c, 0, 63, 39
1, 37130, Note_on_c, 0, 53, 0
1, 37160, Tempo, 586224
1, 37200, Note_on_c, 0, 72, 0
1, 37200, Note_on_c, 0, 73, 58
1, 37220, Tempo, 588928
1, 37280, Tempo, 591774
1, 37280, Note_on_c, 0, 73, 0
1, 37280, Note_on_c, 0, 67, 57
1, 37280, Note_on_c, 0, 57, 36
1, 37290, Note_on_c, 0, 63, 0
1, 37320, Tempo, 594471
1, 37360, Tempo, 588928
1, 37360, Note_on_c, 0, 67, 0
1, 37360, Note_on_c, 0, 69, 52
1, 37440, Tempo, 559963
1, 37440, Note_on_c, 0, 69, 0
1, 37440, Note_on_c, 0, 57, 0
1, 37440, Note_on_c, 0, 70, 68
1, 37440, Note_on_c, 0, 46, 55
1, 37477, Control_c, 0, 64, 127
1, 37520, Note_on_c, 0, 72, 57
1, 37530, Note_on_c, 0, 70, 0
1, 37600, Note_on_c, 0, 70, 57
1, 37600, Note_on_c, 0, 61, 45
1, 37610, Note_on_c, 0, 72, 0
1, 37610, Note_on_c, 0, 46, 0
1, 37680, Note_on_c, 0, 69, 55
1, 37690, Note_on_c, 0, 70, 0
1, 37760, Note_on_c, 0, 70, 57
1, 37760, Note_on_c, 0, 53, 39
1, 37770, Note_on_c, 0, 69, 0
1, 37770, Note_on_c, 0, 61, 0
1, 37840, Tempo, 594471
1, 37840, Note_on_c, 0, 71, 60
1, 37850, Note_on_c, 0, 70, 0
1, 37920, Tempo, 580720
1, 37920, Note_on_c, 0, 71, 0
1, 37920, Note_on_c, 0, 53, 0
1, 37920, Note_on_c, 0, 72, 68
1, 37920, Note_on_c, 0, 54, 55
1, 37929, Control_c, 0, 64, 0
1, 38000, Note_on_c, 0, 73, 60
1, 38010, Note_on_c, 0, 72, 0
1, 38080, Note_on_c, 0, 72, 60
1, 38080, Note_on_c, 0, 63, 46
1, 38090, Note_on_c, 0, 73, 0
1, 38090, Note_on_c, 0, 54, 0
1, 38160, Note_on_c, 0, 73, 58
1, 38170, Note_on_c, 0, 72, 0
1, 38240, Note_on_c, 0, 67, 56
1, 38240, Note_on_c, 0, 53, 39
1, 38250, Note_on_c, 0, 73, 0
1, 38250, Note_on_c, 0, 63, 0
1, 38320, Tempo, 588928
1, 38320, Note_on_c, 0, 69, 62
1, 38330, Note_on_c, 0, 67, 0
1, 38400, Tempo, 559963
1, 38400, Note_on_c, 0, 69, 0
1, 38400, Note_on_c, 0, 53, 0
1, 38400, Note_on_c, 0, 70, 68
1, 38400, Note_on_c, 0, 46, 55
1, 38437, Control_c, 0, 64, 127
1, 38480, Note_on_c, 0, 72, 58
1, 38490, Note_on_c, 0, 70, 0
1, 38560, Note_on_c, 0, 70, 58
1, 38560, Note_on_c, 0, 61, 46
1, 38570, Note_on_c, 0, 72, 0
1, 38570, Note_on_c, 0, 46, 0
1, 38640, Note_on_c, 0, 69, 56
1, 38650, Note_on_c, 0, 70, 0
1, 38720, Note_on_c, 0, 70, 58
1, 38720, Note_on_c, 0, 53, 39
1, 38730, Note_on_c, 0, 69, 0
1, 38730, Note_on_c, 0, 61, 0
1, 38800, Tempo, 594471
1, 38800, Note_on_c, 0, 71, 61
1, 38810, Note_on_c, 0, 70, 0
1, 38880, Tempo, 580720
1, 38880, Note_on_c, 0, 71, 0
1, 38880, Note_on_c, 0, 53, 0
1, 38880, Note_on_c, 0, 72, 69
1, 38880, Note_on_c, 0, 54, 56
1, 38887, Control_c, 0, 64, 0
1, 38960, Note_on_c, 0, 73, 60
1, 38970, Note_on_c, 0, 72, 0
1, 39040, Note_on_c, 0, 72, 60
1, 39040, Note_on_c, 0, 63, 46
1, 39050, Note_on_c, 0, 73, 0
1, 39050, Note_on_c, 0, 54, 0
1, 39120, Note_on_c, 0, 73, 58
1, 39130, Note_on_c, 0, 72, 0
1, 39200, Note_on_c, 0, 67, 56
1, 39200, Note_on_c, 0, 53, 39
1, 39210, Note_on_c, 0, 73, 0
1, 39210, Note_on_c, 0, 63, 0
1, 39280, Tempo, 588928
1, 39280, Note_on_c, 0, 69, 63
1, 39290, Note_on_c, 0, 67, 0
1, 39360, Tempo, 559963
1, 39360, Note_on_c, 0, 69, 0
1, 39360, Note_on_c, 0, 53, 0
1, 39360, Note_on_c, 0, 70, 69
1, 39360, Note_on_c, 0, 46, 56
1, 39397, Control_c, 0, 64, 127
1, 39440, Note_on_c, 0, 72, 60
1, 39450, Note_on_c, 0, 70, 0
1, 39520, Note_on_c, 0, 70, 60
1, 39520, Note_on_c, 0, 61, 47
1, 39530, Note_on_c, 0, 72, 0
1, 39530, Note_on_c, 0, 46, 0
1, 39600, Note_on_c, 0, 69, 58
1, 39610, Note_on_c, 0, 70, 0
1, 39680, Note_on_c, 0, 70, 62
1, 39680, Note_on_c, 0, 53, 44
1, 39690, Note_on_c, 0, 69, 0
1, 39690, Note_on_c, 0, 61, 0
1, 39760, Tempo, 594471
1, 39760, Note_on_c, 0, 72, 64
1, 39770, Note_on_c, 0, 70, 0
1, 39840, Tempo, 567591
1, 39840, Note_on_c, 0, 72, 0
1, 39840, Note_on_c, 0, 53, 0
1, 39840, Note_on_c, 0, 74, 74
1, 39840, Note_on_c, 0, 44, 67
1, 39847, Control_c, 0, 64, 0
1, 39920, Note_on_c, 0, 75, 64
1, 39930, Note_on_c, 0, 74, 0
1, 40000, Note_on_c, 0, 74, 67
1, 40000, Note_on_c, 0, 60, 50
1, 40010, Note_on_c, 0, 75, 0
1, 40010, Note_on_c, 0, 44, 0
1, 40080, Note_on_c, 0, 73, 67
1, 40090, Note_on_c, 0, 74, 0
1, 40160, Note_on_c, 0, 74, 64
1, 40160, Note_on_c, 0, 53, 45
1, 40170, Note_on_c, 0, 73, 0
1, 40170, Note_on_c, 0, 60, 0
1, 40240, Tempo, 588928
1, 40240, Note_on_c, 0, 75, 73
1, 40250, Note_on_c, 0, 74, 0
1, 40320, Tempo, 559963
1, 40320, Note_on_c, 0, 75, 0
1, 40320, Note_on_c, 0, 53, 0
1, 40320, Note_on_c, 0, 77, 81
1, 40320, Note_on_c, 0, 50, 66
1, 40360, Control_c, 0, 64, 127
1, 40400, Note_on_c, 0, 79, 69
1, 40410, Note_on_c, 0, 77, 0
1, 40480, Note_on_c, 0, 77, 68
1, 40480, Note_on_c, 0, 60, 53
1, 40490, Note_on_c, 0, 79, 0
1, 40490, Note_on_c, 0, 50, 0
1, 40560, Note_on_c, 0, 79, 64
1, 40570, Note_on_c, 0, 77, 0
1, 40640, Note_on_c, 0, 77, 67
1, 40640, Note_on_c, 0, 53, 47
1, 40650, Note_on_c, 0, 79, 0
1, 40650, Note_on_c, 0, 60, 0
1, 40720, Tempo, 594471
1, 40720, Note_on_c, 0, 75, 69
1, 40730, Note_on_c, 0, 77, 0
1, 40800, Tempo, 580720
1, 40800, Note_on_c, 0, 75, 0
1, 40800, Note_on_c, 0, 53, 0
1, 40800, Note_on_c, 0, 74, 78
1, 40800, Note_on_c, 0, 43, 66
1, 40811, Control_c, 0, 64, 0
1, 40880, Note_on_c, 0, 75, 67
1, 40890, Note_on_c, 0, 74, 0
1, 40960, Note_on_c, 0, 74, 67
1, 40960, Note_on_c, 0, 59, 50
1, 40970, Note_on_c, 0, 75, 0
1, 40970, Note_on_c, 0, 43, 0
1, 41040, Note_on_c, 0, 75, 64
1, 41050, Note_on_c, 0, 74, 0
1, 41120, Note_on_c, 0, 69, 62
1, 41120, Note_on_c, 0, 53, 42
1, 41130, Note_on_c, 0, 75, 0
1, 41130, Note_on_c, 0, 59, 0
1, 41200, Tempo, 588928
1, 41200, Note_on_c, 0, 71, 68
1, 41210, Note_on_c, 0, 69, 0
1, 41280, Tempo, 559963
1, 41280, Note_on_c, 0, 71, 0
1, 41280, Note_on_c, 0, 53, 0
1, 41280, Note_on_c, 0, 72, 78
1, 41280, Note_on_c, 0, 48, 66
1, 41320, Control_c, 0, 64, 127
1, 41360, Note_on_c, 0, 73, 69
1, 41370, Note_on_c, 0, 72, 0
1, 41440, Note_on_c, 0, 72, 68
1, 41440, Note_on_c, 0, 64, 53
1, 41450, Note_on_c, 0, 73, 0
1, 41450, Note_on_c, 0, 48, 0
1, 41520, Note_on_c, 0, 71, 64
1, 41530, Note_on_c, 0, 72, 0
1, 41600, Note_on_c, 0, 72, 67
1, 41600, Note_on_c, 0, 58, 47
1, 41610, Note_on_c, 0, 71, 0
1, 41610, Note_on_c, 0, 64, 0
1, 41680, Tempo, 700853
1, 41680, Note_on_c, 0, 79, 69
1, 41690, Note_on_c, 0, 72, 0
1, 41760, Tempo, 557517
1, 41760, Note_on_c, 0, 79, 0
1, 41760, Note_on_c, 0, 58, 0
1, 41760, Note_on_c, 0, 80, 75
1, 41760, Note_on_c, 0, 56, 64
1, 41768, Control_c, 0, 64, 0
1, 41840, Tempo, 559963
1, 41840, Note_on_c, 0, 82, 69
1, 41850, Note_on_c, 0, 80, 0
1, 41920, Tempo, 562535
1, 41920, Note_on_c, 0, 80, 69
1, 41920, Note_on_c, 0, 65, 52
1, 41930, Note_on_c, 0, 82, 0
1, 41930, Note_on_c, 0, 56, 0
1, 41980, Tempo, 565025
1, 42000, Note_on_c, 0, 79, 66
1, 42010, Note_on_c, 0, 80, 0
1, 42060, Tempo, 567591
1, 42080, Note_on_c, 0, 80, 63
1, 42080, Note_on_c, 0, 60, 44
1, 42090, Note_on_c, 0, 79, 0
1, 42090, Note_on_c, 0, 65, 0
1, 42120, Tempo, 570125
1, 42160, Tempo, 588928
1, 42160, Note_on_c, 0, 76, 70
1, 42170, Note_on_c, 0, 80, 0
1, 42240, Tempo, 565025
1, 42240, Note_on_c, 0, 76, 0
1, 42240, Note_on_c, 0, 60, 0
1, 42240, Note_on_c, 0, 77, 73
1, 42240, Note_on_c, 0, 48, 60
1, 42320, Note_on_c, 0, 79, 69
1, 42330, Note_on_c, 0, 77, 0
1, 42400, Note_on_c, 0, 77, 69
1, 42400, Note_on_c, 0, 61, 51
1, 42410, Note_on_c, 0, 79, 0
1, 42410, Note_on_c, 0, 48, 0
1, 42480, Note_on_c, 0, 75, 62
1, 42490, Note_on_c, 0, 77, 0
1, 42560, Note_on_c, 0, 73, 68
1, 42560, Note_on_c, 0, 56, 46
1, 42570, Note_on_c, 0, 75, 0
1, 42570, Note_on_c, 0, 61, 0
1, 42640, Tempo, 594471
1, 42640, Note_on_c, 0, 72, 68
1, 42650, Note_on_c, 0, 73, 0
1, 42720, Tempo, 562535
1, 42720, Note_on_c, 0, 72, 0
1, 42720, Note_on_c, 0, 56, 0
1, 42720, Note_on_c, 0, 70, 75
1, 42720, Note_on_c, 0, 53, 59
1, 42800, Note_on_c, 0, 68, 68
1, 42810, Note_on_c, 0, 70, 0
1, 42820, Tempo, 565025
1, 42880, Note_on_c, 0, 67, 64
1, 42880, Note_on_c, 0, 61, 49
1, 42890, Note_on_c, 0, 68, 0
1, 42890, Note_on_c, 0, 53, 0
1, 42900, Tempo, 567591
1, 42960, Note_on_c, 0, 65, 62
1, 42970, Note_on_c, 0, 67, 0
1, 42980, Tempo, 570125
1, 43040, Note_on_c, 0, 67, 59
1, 43040, Note_on_c, 0, 56, 44
1, 43050, Note_on_c, 0, 65, 0
1, 43050, Note_on_c, 0, 61, 0
1, 43060, Tempo, 572792
1, 43120, Tempo, 588928
1, 43120, Note_on_c, 0, 68, 58
1, 43130, Note_on_c, 0, 67, 0
1, 43200, Tempo, 562535
1, 43200, Note_on_c, 0, 68, 0
1, 43200, Note_on_c, 0, 56, 0
1, 43200, Note_on_c, 0, 67, 74
1, 43200, Note_on_c, 0, 48, 55
1, 43280, Note_on_c, 0, 73, 58
1, 43290, Note_on_c, 0, 67, 0
1, 43360, Note_on_c, 0, 72, 57
1, 43360, Note_on_c, 0, 64, 45
1, 43370, Note_on_c, 0, 73, 0
1, 43370, Note_on_c, 0, 48, 0
1, 43440, Note_on_c, 0, 71, 53
1, 43450, Note_on_c, 0, 72, 0
1, 43520, Note_on_c, 0, 72, 56
1, 43520, Note_on_c, 0, 58, 38
1, 43530, Note_on_c, 0, 71, 0
1, 43530, Note_on_c, 0, 64, 0
1, 43600, Tempo, 740741
1, 43600, Note_on_c, 0, 79, 58
1, 43610, Note_on_c, 0, 72, 0
1, 43680, Tempo, 580720
1, 43680, Note_on_c, 0, 79, 0
1, 43680, Note_on_c, 0, 58, 0
1, 43680, Note_on_c, 0, 80, 59
1, 43680, Note_on_c, 0, 56, 48
1, 43760, Note_on_c, 0, 82, 49
1, 43770, Note_on_c, 0, 80, 0
1, 43840, Note_on_c, 0, 80, 49
1, 43840, Note_on_c, 0, 65, 38
1, 43850, Note_on_c, 0, 82, 0
1, 43850, Note_on_c, 0, 56, 0
1, 43920, Note_on_c, 0, 79, 48
1, 43930, Note_on_c, 0, 80, 0
1, 44000, Note_on_c, 0, 80, 47
1, 44000, Note_on_c, 0, 60, 31
1, 44010, Note_on_c, 0, 79, 0
1, 44010, Note_on_c, 0, 65, 0
1, 44080, Tempo, 588928
1, 44080, Note_on_c, 0, 76, 50
1, 44090, Note_on_c, 0, 80, 0
1, 44160, Tempo, 565025
1, 44160, Note_on_c, 0, 76, 0
1, 44160, Note_on_c, 0, 60, 0
1, 44160, Note_on_c, 0, 77, 56
1, 44160, Note_on_c, 0, 48, 45
1, 44180, Tempo, 567591
1, 44240, Note_on_c, 0, 79, 49
1, 44250, Note_on_c, 0, 77, 0
1, 44320, Note_on_c, 0, 77, 49
1, 44320, Note_on_c, 0, 61, 38
1, 44330, Note_on_c, 0, 79, 0
1, 44330, Note_on_c, 0, 48, 0
1, 44400, Note_on_c, 0, 75, 46
1, 44410, Note_on_c, 0, 77, 0
1, 44480, Note_on_c, 0, 73, 49
1, 44480, Note_on_c, 0, 56, 33
1, 44490, Note_on_c, 0, 75, 0
1, 44490, Note_on_c, 0, 61, 0
1, 44560, Tempo, 594471
1, 44560, Note_on_c, 0, 72, 49
1, 44570, Note_on_c, 0, 73, 0
1, 44640, Tempo, 580720
1, 44640, Note_on_c, 0, 72, 0
1, 44640, Note_on_c, 0, 56, 0
1, 44640, Note_on_c, 0, 70, 55
1, 44640, Note_on_c, 0, 53, 42
1, 44660, Tempo, 559963
1, 44720, Tempo, 562535
1, 44720, Note_on_c, 0, 68, 49
1, 44730, Note_on_c, 0, 70, 0
1, 44780, Tempo, 565025
1, 44800, Note_on_c, 0, 67, 48
1, 44800, Note_on_c, 0, 61, 33
1, 44810, Note_on_c, 0, 68, 0
1, 44810, Note_on_c, 0, 53, 0
1, 44840, Tempo, 567591
1, 44880, Note_on_c, 0, 65, 45
1, 44890, Note_on_c, 0, 67, 0
1, 44900, Tempo, 570125
1, 44960, Tempo, 572792
1, 44960, Note_on_c, 0, 67, 42
1, 44960, Note_on_c, 0, 56, 31
1, 44970, Note_on_c, 0, 65, 0
1, 44970, Note_on_c, 0, 61, 0
1, 45000, Tempo, 575374
1, 45040, Tempo, 588928
1, 45040, Note_on_c, 0, 68, 40
1, 45050, Note_on_c, 0, 67, 0
1, 45120, Tempo, 580720
1, 45120, Note_on_c, 0, 68, 0
1, 45120, Note_on_c, 0, 56, 0
1, 45120, Note_on_c, 0, 67, 56
1, 45120, Note_on_c, 0, 48, 45
1, 45200, Note_on_c, 0, 79, 48
1, 45210, Note_on_c, 0, 67, 0
1, 45280, Note_on_c, 0, 77, 49
1, 45280, Note_on_c, 0, 64, 34
1, 45290, Note_on_c, 0, 79, 0
1, 45290, Note_on_c, 0, 48, 0
1, 45360, Note_on_c, 0, 76, 46
1, 45370, Note_on_c, 0, 77, 0
1, 45440, Note_on_c, 0, 73, 49
1, 45440, Note_on_c, 0, 55, 30
1, 45450, Note_on_c, 0, 76, 0
1, 45450, Note_on_c, 0, 64, 0
1, 45520, Note_on_c, 0, 72, 49
1, 45530, Note_on_c, 0, 73, 0
1, 45600, Tempo, 570125
1, 45600, Note_on_c, 0, 72, 0
1, 45600, Note_on_c, 0, 55, 0
1, 45600, Note_on_c, 0, 70, 52
1, 45600, Note_on_c, 0, 53, 38
1, 45640, Tempo, 572792
1, 45680, Tempo, 575374
1, 45680, Note_on_c, 0, 68, 49
1, 45690, Note_on_c, 0, 70, 0
1, 45720, Tempo, 578090
1, 45760, Tempo, 580720
1, 45760, Note_on_c, 0, 67, 48
1, 45760, Note_on_c, 0, 61, 35
1, 45770, Note_on_c, 0, 68, 0
1, 45770, Note_on_c, 0, 53, 0
1, 45780, Tempo, 583431
1, 45820, Tempo, 586224
1, 45840, Note_on_c, 0, 65, 45
1, 45850, Note_on_c, 0, 67, 0
1, 45860, Tempo, 588928
1, 45900, Tempo, 591774
1, 45920, Note_on_c, 0, 67, 42
1, 45920, Note_on_c, 0, 56, 31
1, 45930, Note_on_c, 0, 65, 0
1, 45930, Note_on_c, 0, 61, 0
1, 45940, Tempo, 594471
1, 45960, Tempo, 597372
1, 46000, Tempo, 617983
1, 46000, Note_on_c, 0, 68, 40
1, 46010, Note_on_c, 0, 67, 0
1, 46080, Tempo, 712758
1, 46080, Note_on_c, 0, 68, 0
1, 46080, Note_on_c, 0, 56, 0
1, 46080, Note_on_c, 0, 67, 50
1, 46080, Note_on_c, 0, 48, 35
1, 46160, Tempo, 591774
1, 46160, Note_on_c, 0, 79, 48
1, 46170, Note_on_c, 0, 67, 0
1, 46240, Note_on_c, 0, 77, 49
1, 46240, Note_on_c, 0, 64, 34
1, 46250, Note_on_c, 0, 79, 0
1, 46250, Note_on_c, 0, 48, 0
1, 46320, Note_on_c, 0, 76, 46
1, 46330, Note_on_c, 0, 77, 0
1, 46400, Note_on_c, 0, 73, 49
1, 46400, Note_on_c, 0, 55, 29
1, 46410, Note_on_c, 0, 76, 0
1, 46410, Note_on_c, 0, 64, 0
1, 46480, Tempo, 594471
1, 46480, Note_on_c, 0, 72, 49
1, 46490, Note_on_c, 0, 73, 0
1, 46520, Tempo, 586224
1, 46560, Note_on_c, 0, 72, 0
1, 46560, Note_on_c, 0, 55, 0
1, 46560, Note_on_c, 0, 70, 51
1, 46560, Note_on_c, 0, 53, 35
1, 46600, Tempo, 588928
1, 46640, Note_on_c, 0, 68, 49
1, 46650, Note_on_c, 0, 70, 0
1, 46680, Tempo, 591774
1, 46720, Note_on_c, 0, 67, 48
1, 46720, Note_on_c, 0, 61, 30
1, 46730, Note_on_c, 0, 68, 0
1, 46730, Note_on_c, 0, 53, 0
1, 46740, Tempo, 594471
1, 46800, Note_on_c, 0, 65, 45
1, 46810, Note_on_c, 0, 67, 0
1, 46820, Tempo, 597372
1, 46880, Tempo, 600180
1, 46880, Note_on_c, 0, 67, 42
1, 46880, Note_on_c, 0, 56, 28
1, 46890, Note_on_c, 0, 65, 0
1, 46890, Note_on_c, 0, 61, 0
1, 46960, Tempo, 603136
1, 46960, Note_on_c, 0, 68, 40
1, 46970, Note_on_c, 0, 67, 0
1, 47020, Tempo, 605938
1, 47040, Tempo, 591774
1, 47040, Note_on_c, 0, 68, 0
1, 47040, Note_on_c, 0, 56, 0
1, 47040, Note_on_c, 0, 67, 53
1, 47040, Note_on_c, 0, 48, 38
1, 47077, Control_c, 0, 64, 127
1, 47120, Note_on_c, 0, 73, 49
1, 47130, Note_on_c, 0, 67, 0
1, 47200, Note_on_c, 0, 72, 45
1, 47200, Note_on_c, 0, 60, 30
1, 47210, Note_on_c, 0, 73, 0
1, 47210, Note_on_c, 0, 48, 0
1, 47280, Note_on_c, 0, 71, 42
1, 47290, Note_on_c, 0, 72, 0
1, 47360, Note_on_c, 0, 72, 46
1, 47360, Note_on_c, 0, 64, 26
1, 47370, Note_on_c, 0, 71, 0
1, 47370, Note_on_c, 0, 60, 0
1, 47440, Tempo, 594471
1, 47440, Note_on_c, 0, 73, 49
1, 47450, Note_on_c, 0, 72, 0
1, 47520, Tempo, 580720
1, 47520, Note_on_c, 0, 73, 0
1, 47520, Note_on_c, 0, 64, 0
1, 47520, Note_on_c, 0, 72, 53
1, 47529, Control_c, 0, 64, 0
1, 47560, Tempo, 578090
1, 47563, Control_c, 0, 64, 127
1, 47600, Note_on_c, 0, 72, 0
1, 47600, Note_on_c, 0, 73, 49
1, 47620, Tempo, 580720
1, 47680, Tempo, 583431
1, 47680, Note_on_c, 0, 73, 0
1, 47680, Note_on_c, 0, 72, 47
1, 47720, Tempo, 586224
1, 47760, Note_on_c, 0, 72, 0
1, 47760, Note_on_c, 0, 71, 47
1, 47780, Tempo, 588928
1, 47840, Tempo, 591774
1, 47840, Note_on_c, 0, 71, 0
1, 47840, Note_on_c, 0, 72, 51
1, 47880, Tempo, 594471
1, 47920, Tempo, 588928
1, 47920, Note_on_c, 0, 72, 0
1, 47920, Note_on_c, 0, 73, 49
1, 48000, Tempo, 605938
1, 48000, Note_on_c, 0, 73, 0
1, 48000, Note_on_c, 0, 72, 59
1, 48040, Tempo, 608952
1, 48080, Tempo, 611933
1, 48080, Note_on_c, 0, 72, 0
1, 48080, Note_on_c, 0, 73, 56
1, 48120, Tempo, 615006
1, 48160, Tempo, 617983
1, 48160, Note_on_c, 0, 73, 0
1, 48160, Note_on_c, 0, 72, 56
1, 48200, Tempo, 621054
1, 48220, Tempo, 624090
1, 48240, Note_on_c, 0, 72, 0
1, 48240, Note_on_c, 0, 71, 49
1, 48260, Tempo, 627287
1, 48300, Tempo, 630385
1, 48320, Note_on_c, 0, 71, 0
1, 48320, Note_on_c, 0, 72, 49
1, 48340, Tempo, 633580
1, 48380, Tempo, 636740
1, 48400, Tempo, 640068
1, 48400, Note_on_c, 0, 72, 0
1, 48400, Note_on_c, 0, 73, 50
1, 48440, Tempo, 643363
1, 48480, Tempo, 646691
1, 48480, Note_on_c, 0, 73, 0
1, 48480, Note_on_c, 0, 72, 51
1, 48520, Tempo, 649984
1, 48560, Tempo, 653381
1, 48560, Note_on_c, 0, 72, 0
1, 48560, Note_on_c, 0, 73, 46
1, 48580, Tempo, 656814
1, 48620, Tempo, 660284
1, 48640, Note_on_c, 0, 73, 0
1, 48640, Note_on_c, 0, 72, 42
1, 48660, Tempo, 663790
1, 48700, Tempo, 663790
1, 48720, Tempo, 674460
1, 48720, Note_on_c, 0, 72, 0
1, 48720, Note_on_c, 0, 73, 39
1, 48740, Tempo, 685479
1, 48760, Tempo, 700853
1, 48780, Tempo, 712758
1, 48800, Tempo, 729395
1, 48800, Note_on_c, 0, 73, 0
1, 48800, Note_on_c, 0, 72, 38
1, 48820, Tempo, 742299
1, 48840, Tempo, 755763
1, 48860, Tempo, 774393
1, 48880, Tempo, 788955
1, 48880, Note_on_c, 0, 72, 0
1, 48880, Note_on_c, 0, 73, 35
1, 48900, Tempo, 809280
1, 48920, Tempo, 689259
1, 48934, Control_c, 0, 64, 0
1, 48940, Tempo, 693081
1, 48960, Tempo, 627287
1, 48960, Note_on_c, 0, 73, 0
1, 48960, Note_on_c, 0, 72, 48
1, 48960, Note_on_c, 0, 52, 39
1, 49040, Note_on_c, 0, 73, 41
1, 49050, Note_on_c, 0, 72, 0
1, 49060, Tempo, 591774
1, 49120, Note_on_c, 0, 71, 41
1, 49120, Note_on_c, 0, 67, 33
1, 49130, Note_on_c, 0, 73, 0
1, 49130, Note_on_c, 0, 52, 0
1, 49160, Tempo, 588928
1, 49200, Note_on_c, 0, 72, 40
1, 49210, Note_on_c, 0, 71, 0
1, 49240, Tempo, 591774
1, 49280, Tempo, 570125
1, 49280, Note_on_c, 0, 75, 49
1, 49280, Note_on_c, 0, 60, 31
1, 49290, Note_on_c, 0, 72, 0
1, 49290, Note_on_c, 0, 67, 0
1, 49360, Note_on_c, 0, 73, 46
1, 49370, Note_on_c, 0, 75, 0
1, 49420, Tempo, 591774
1, 49440, Tempo, 591774
1, 49440, Note_on_c, 0, 73, 0
1, 49440, Note_on_c, 0, 60, 0
1, 49440, Note_on_c, 0, 72, 55
1, 49440, Note_on_c, 0, 58, 40
1, 49520, Tempo, 588928
1, 49520, Note_on_c, 0, 73, 48
1, 49530, Note_on_c, 0, 72, 0
1, 49580, Tempo, 586224
1, 49600, Note_on_c, 0, 71, 48
1, 49600, Note_on_c, 0, 67, 33
1, 49610, Note_on_c, 0, 73, 0
1, 49610, Note_on_c, 0, 58, 0
1, 49640, Tempo, 583431
1, 49680, Note_on_c, 0, 72, 48
1, 49690, Note_on_c, 0, 71, 0
1, 49700, Tempo, 580720
1, 49760, Tempo, 578090
1, 49760, Note_on_c, 0, 78, 51
1, 49760, Note_on_c, 0, 60, 31
1, 49770, Note_on_c, 0, 72, 0
1, 49770, Note_on_c, 0, 67, 0
1, 49820, Tempo, 575374
1, 49840, Tempo, 583431
1, 49840, Note_on_c, 0, 79, 48
1, 49850, Note_on_c, 0, 78, 0
1, 49900, Tempo, 594471
1, 49920, Tempo, 583431
1, 49920, Note_on_c, 0, 79, 0
1, 49920, Note_on_c, 0, 60, 0
1, 49920, Note_on_c, 0, 72, 57
1, 49920, Note_on_c, 0, 53, 45
1, 49980, Tempo, 580720
1, 50000, Note_on_c, 0, 73, 51
1, 50010, Note_on_c, 0, 72, 0
1, 50020, Tempo, 578090
1, 50060, Tempo, 575374
1, 50080, Note_on_c, 0, 71, 47
1, 50080, Note_on_c, 0, 68, 37
1, 50090, Note_on_c, 0, 73, 0
1, 50090, Note_on_c, 0, 53, 0
1, 50120, Tempo, 572792
1, 50160, Tempo, 570125
1, 50160, Note_on_c, 0, 72, 49
1, 50170, Note_on_c, 0, 71, 0
1, 50200, Tempo, 567591
1, 50240, Tempo, 565025
1, 50240, Note_on_c, 0, 75, 52
1, 50240, Note_on_c, 0, 60, 34
1, 50250, Note_on_c, 0, 72, 0
1, 50250, Note_on_c, 0, 68, 0
1, 50320, Tempo, 577812
1, 50320, Note_on_c, 0, 73, 49
1, 50330, Note_on_c, 0, 75, 0
1, 50400, Tempo, 559963
1, 50400, Note_on_c, 0, 73, 0
1, 50400, Note_on_c, 0, 60, 0
1, 50400, Note_on_c, 0, 72, 58
1, 50400, Note_on_c, 0, 56, 46
1, 50480, Note_on_c, 0, 73, 49
1, 50490, Note_on_c, 0, 72, 0
1, 50560, Note_on_c, 0, 71, 50
1, 50560, Note_on_c, 0, 68, 38
1, 50570, Note_on_c, 0, 73, 0
1, 50570, Note_on_c, 0, 56, 0
1, 50640, Note_on_c, 0, 72, 50
1, 50650, Note_on_c, 0, 71, 0
1, 50720, Note_on_c, 0, 80, 53
1, 50720, Note_on_c, 0, 60, 36
1, 50730, Note_on_c, 0, 72, 0
1, 50730, Note_on_c, 0, 68, 0
1, 50800, Tempo, 588928
1, 50800, Note_on_c, 0, 77, 49
1, 50810, Note_on_c, 0, 80, 0
1, 50880, Tempo, 555042
1, 50880, Note_on_c, 0, 77, 0
1, 50880, Note_on_c, 0, 60, 0
1, 50880, Note_on_c, 0, 76, 60
1, 50880, Note_on_c, 0, 55, 48
1, 50900, Tempo, 559963
1, 50960, Note_on_c, 0, 77, 53
1, 50970, Note_on_c, 0, 76, 0
1, 51040, Note_on_c, 0, 76, 55
1, 51040, Note_on_c, 0, 70, 39
1, 51050, Note_on_c, 0, 77, 0
1, 51050, Note_on_c, 0, 55, 0
1, 51080, Tempo, 555042
1, 51120, Tempo, 557517
1, 51120, Note_on_c, 0, 75, 56
1, 51130, Note_on_c, 0, 76, 0
1, 51160, Tempo, 559963
1, 51200, Tempo, 562535
1, 51200, Note_on_c, 0, 76, 57
1, 51200, Note_on_c, 0, 64, 36
1, 51210, Note_on_c, 0, 75, 0
1, 51210, Note_on_c, 0, 70, 0
1, 51240, Tempo, 565025
1, 51260, Tempo, 567591
1, 51280, Tempo, 586224
1, 51280, Note_on_c, 0, 79, 60
1, 51290, Note_on_c, 0, 76, 0
1, 51360, Tempo, 624090
1, 51360, Note_on_c, 0, 79, 0
1, 51360, Note_on_c, 0, 64, 0
1, 51360, Note_on_c, 0, 82, 68
1, 51360, Note_on_c, 0, 61, 49
1, 51440, Tempo, 552639
1, 51440, Note_on_c, 0, 84, 60
1, 51450, Note_on_c, 0, 82, 0
1, 51520, Note_on_c, 0, 82, 61
1, 51520, Note_on_c, 0, 70, 44
1, 51530, Note_on_c, 0, 84, 0
1, 51530, Note_on_c, 0, 61, 0
1, 51600, Note_on_c, 0, 81, 63
1, 51610, Note_on_c, 0, 82, 0
1, 51680, Note_on_c, 0, 82, 62
1, 51680, Note_on_c, 0, 64, 39
1, 51690, Note_on_c, 0, 81, 0
1, 51690, Note_on_c, 0, 70, 0
1, 51760, Tempo, 592710
1, 51760, Note_on_c, 0, 85, 66
1, 51770, Note_on_c, 0, 82, 0
1, 51840, Tempo, 689259
1, 51840, Note_on_c, 0, 85, 0
1, 51840, Note_on_c, 0, 64, 0
1, 51840, Note_on_c, 0, 84, 72
1, 51840, Note_on_c, 0, 56, 55
1, 51920, Tempo, 565025
1, 51920, Note_on_c, 0, 85, 61
1, 51930, Note_on_c, 0, 84, 0
1, 52000, Note_on_c, 0, 84, 61
1, 52000, Note_on_c, 0, 68, 45
1, 52010, Note_on_c, 0, 85, 0
1, 52010, Note_on_c, 0, 56, 0
1, 52080, Note_on_c, 0, 83, 61
1, 52090, Note_on_c, 0, 84, 0
1, 52160, Note_on_c, 0, 84, 62
1, 52160, Note_on_c, 0, 65, 44
1, 52170, Note_on_c, 0, 83, 0
1, 52170, Note_on_c, 0, 68, 0
1, 52240, Tempo, 594471
1, 52240, Note_on_c, 0, 79, 60
1, 52250, Note_on_c, 0, 84, 0
1, 52320, Tempo, 575374
1, 52320, Note_on_c, 0, 79, 0
1, 52320, Note_on_c, 0, 65, 0
1, 52320, Note_on_c, 0, 80, 64
1, 52320, Note_on_c, 0, 60, 50
1, 52400, Note_on_c, 0, 82, 56
1, 52410, Note_on_c, 0, 80, 0
1, 52480, Note_on_c, 0, 80, 56
1, 52480, Note_on_c, 0, 68, 40
1, 52490, Note_on_c, 0, 82, 0
1, 52490, Note_on_c, 0, 60, 0
1, 52560, Note_on_c, 0, 79, 56
1, 52570, Note_on_c, 0, 80, 0
1, 52640, Note_on_c, 0, 80, 57
1, 52640, Note_on_c, 0, 65, 40
1, 52650, Note_on_c, 0, 79, 0
1, 52650, Note_on_c, 0, 68, 0
1, 52720, Note_on_c, 0, 76, 52
1, 52730, Note_on_c, 0, 80, 0
1, 52800, Tempo, 575374
1, 52800, Note_on_c, 0, 76, 0
1, 52800, Note_on_c, 0, 65, 0
1, 52800, Note_on_c, 0, 77, 60
1, 52800, Note_on_c, 0, 46, 48
1, 52834, Control_c, 0, 64, 127
1, 52880, Tempo, 572792
1, 52880, Note_on_c, 0, 79, 51
1, 52890, Note_on_c, 0, 77, 0
1, 52960, Tempo, 570125
1, 52960, Note_on_c, 0, 77, 51
1, 52960, Note_on_c, 0, 61, 37
1, 52970, Note_on_c, 0, 79, 0
1, 52970, Note_on_c, 0, 46, 0
1, 53040, Tempo, 567591
1, 53040, Note_on_c, 0, 76, 52
1, 53050, Note_on_c, 0, 77, 0
1, 53120, Tempo, 565025
1, 53120, Note_on_c, 0, 77, 55
1, 53120, Note_on_c, 0, 55, 37
1, 53130, Note_on_c, 0, 76, 0
1, 53130, Note_on_c, 0, 61, 0
1, 53200, Tempo, 562535
1, 53200, Note_on_c, 0, 72, 50
1, 53210, Note_on_c, 0, 77, 0
1, 53280, Tempo, 559963
1, 53280, Note_on_c, 0, 72, 0
1, 53280, Note_on_c, 0, 55, 0
1, 53280, Note_on_c, 0, 73, 60
1, 53280, Note_on_c, 0, 53, 48
1, 53286, Control_c, 0, 64, 0
1, 53300, Tempo, 559963
1, 53309, Control_c, 0, 64, 127
1, 53360, Note_on_c, 0, 75, 51
1, 53370, Note_on_c, 0, 73, 0
1, 53380, Tempo, 562535
1, 53440, Tempo, 565025
1, 53440, Note_on_c, 0, 73, 51
1, 53440, Note_on_c, 0, 61, 37
1, 53450, Note_on_c, 0, 75, 0
1, 53450, Note_on_c, 0, 53, 0
1, 53500, Tempo, 567591
1, 53520, Note_on_c, 0, 72, 51
1, 53530, Note_on_c, 0, 73, 0
1, 53560, Tempo, 570125
1, 53600, Note_on_c, 0, 73, 55
1, 53600, Note_on_c, 0, 55, 37
1, 53610, Note_on_c, 0, 72, 0
1, 53610, Note_on_c, 0, 61, 0
1, 53620, Tempo, 572792
1, 53680, Tempo, 597372
1, 53680, Note_on_c, 0, 71, 51
1, 53690, Note_on_c, 0, 73, 0
1, 53760, Tempo, 572792
1, 53760, Note_on_c, 0, 71, 0
1, 53760, Note_on_c, 0, 55, 0
1, 53760, Note_on_c, 0, 72, 60
1, 53760, Note_on_c, 0, 48, 48
1, 53769, Control_c, 0, 64, 0
1, 53840, Tempo, 570125
1, 53840, Note_on_c, 0, 73, 52
1, 53850, Note_on_c, 0, 72, 0
1, 53920, Tempo, 567591
1, 53920, Note_on_c, 0, 72, 48
1, 53920, Note_on_c, 0, 60, 39
1, 53930, Note_on_c, 0, 73, 0
1, 53930, Note_on_c, 0, 48, 0
1, 54000, Tempo, 565025
1, 54000, Note_on_c, 0, 71, 48
1, 54010, Note_on_c, 0, 72, 0
1, 54080, Tempo, 562535
1, 54080, Note_on_c, 0, 72, 55
1, 54080, Note_on_c, 0, 56, 39
1, 54090, Note_on_c, 0, 71, 0
1, 54090, Note_on_c, 0, 60, 0
1, 54160, Tempo, 559963
1, 54160, Note_on_c, 0, 67, 50
1, 54170, Note_on_c, 0, 72, 0
1, 54220, Tempo, 557517
1, 54240, Note_on_c, 0, 67, 0
1, 54240, Note_on_c, 0, 56, 0
1, 54240, Note_on_c, 0, 68, 57
1, 54240, Note_on_c, 0, 53, 48
1, 54320, Note_on_c, 0, 70, 49
1, 54330, Note_on_c, 0, 68, 0
1, 54400, Note_on_c, 0, 68, 48
1, 54400, Note_on_c, 0, 60, 39
1, 54410, Note_on_c, 0, 70, 0
1, 54410, Note_on_c, 0, 53, 0
1, 54480, Note_on_c, 0, 67, 46
1, 54490, Note_on_c, 0, 68, 0
1, 54560, Note_on_c, 0, 68, 55
1, 54560, Note_on_c, 0, 56, 39
1, 54570, Note_on_c, 0, 67, 0
1, 54570, Note_on_c, 0, 60, 0
1, 54640, Tempo, 588928
1, 54640, Note_on_c, 0, 65, 46
1, 54650, Note_on_c, 0, 68, 0
1, 54720, Tempo, 570125
1, 54720, Note_on_c, 0, 65, 0
1, 54720, Note_on_c, 0, 56, 0
1, 54720, Note_on_c, 0, 64, 60
1, 54720, Note_on_c, 0, 48, 48
1, 54760, Tempo, 567591
1, 54769, Control_c, 0, 64, 127
1, 54800, Tempo, 565025
1, 54800, Note_on_c, 0, 67, 55
1, 54810, Note_on_c, 0, 64, 0
1, 54840, Tempo, 562535
1, 54880, Tempo, 559963
1, 54880, Note_on_c, 0, 70, 56
1, 54880, Note_on_c, 0, 64, 39
1, 54890, Note_on_c, 0, 67, 0
1, 54890, Note_on_c, 0, 48, 0
1, 54900, Tempo, 557517
1, 54960, Note_on_c, 0, 73, 58
1, 54970, Note_on_c, 0, 70, 0
1, 55040, Note_on_c, 0, 76, 60
1, 55040, Note_on_c, 0, 60, 40
1, 55050, Note_on_c, 0, 73, 0
1, 55050, Note_on_c, 0, 64, 0
1, 55120, Tempo, 597372
1, 55120, Note_on_c, 0, 79, 61
1, 55130, Note_on_c, 0, 76, 0
1, 55200, Tempo, 660284
1, 55200, Note_on_c, 0, 79, 0
1, 55200, Note_on_c, 0, 60, 0
1, 55200, Note_on_c, 0, 82, 70
1, 55200, Note_on_c, 0, 55, 49
1, 55217, Control_c, 0, 64, 0
1, 55254, Control_c, 0, 64, 127
1, 55260, Tempo, 605938
1, 55260, Note_on_c, 0, 82, 0
1, 55280, Note_on_c, 0, 85, 60
1, 55300, Tempo, 603136
1, 55320, Tempo, 600180
1, 55340, Note_on_c, 0, 85, 0
1, 55360, Tempo, 597372
1, 55360, Note_on_c, 0, 84, 61
1, 55360, Note_on_c, 0, 64, 44
1, 55370, Note_on_c, 0, 55, 0
1, 55380, Tempo, 594471
1, 55420, Tempo, 591774
1, 55420, Note_on_c, 0, 84, 0
1, 55440, Tempo, 588928
1, 55440, Note_on_c, 0, 82, 62
1, 55480, Tempo, 586224
1, 55500, Tempo, 583431
1, 55500, Note_on_c, 0, 82, 0
1, 55520, Note_on_c, 0, 80, 61
1, 55520, Note_on_c, 0, 58, 45
1, 55530, Note_on_c, 0, 64, 0
1, 55540, Tempo, 580720
1, 55560, Tempo, 578090
1, 55580, Tempo, 575374
1, 55580, Note_on_c, 0, 80, 0
1, 55600, Tempo, 621054
1, 55600, Note_on_c, 0, 79, 62
1, 55660, Note_on_c, 0, 79, 0
1, 55680, Tempo, 621054
1, 55680, Note_on_c, 0, 58, 0
1, 55680, Note_on_c, 0, 82, 69
1, 55680, Note_on_c, 0, 53, 51
1, 55687, Control_c, 0, 64, 0
1, 55760, Tempo, 583431
1, 55760, Note_on_c, 0, 84, 67
1, 55770, Note_on_c, 0, 82, 0
1, 55820, Tempo, 586224
1, 55840, Note_on_c, 0, 80, 64
1, 55840, Note_on_c, 0, 65, 44
1, 55850, Note_on_c, 0, 84, 0
1, 55850, Note_on_c, 0, 53, 0
1, 55880, Tempo, 588928
1, 55920, Note_on_c, 0, 79, 66
1, 55930, Note_on_c, 0, 80, 0
1, 55940, Tempo, 591774
1, 55980, Tempo, 594471
1, 56000, Note_on_c, 0, 80, 61
1, 56000, Note_on_c, 0, 60, 37
1, 56010, Note_on_c, 0, 79, 0
1, 56010, Note_on_c, 0, 65, 0
1, 56040, Tempo, 597372
1, 56080, Note_on_c, 0, 77, 57
1, 56090, Note_on_c, 0, 80, 0
1, 56100, Tempo, 600180
1, 56140, Tempo, 603136
1, 56160, Note_on_c, 0, 77, 0
1, 56160, Note_on_c, 0, 60, 0
1, 56160, Note_on_c, 0, 76, 64
1, 56160, Note_on_c, 0, 56, 48
1, 56180, Tempo, 600180
1, 56200, Tempo, 600180
1, 56240, Tempo, 603136
1, 56240, Note_on_c, 0, 79, 52
1, 56250, Note_on_c, 0, 76, 0
1, 56260, Tempo, 605938
1, 56280, Tempo, 608952
1, 56320, Tempo, 611933
1, 56320, Note_on_c, 0, 77, 51
1, 56320, Note_on_c, 0, 65, 38
1, 56330, Note_on_c, 0, 79, 0
1, 56330, Note_on_c, 0, 56, 0
1, 56340, Tempo, 615006
1, 56360, Tempo, 617983
1, 56380, Tempo, 621054
1, 56400, Note_on_c, 0, 76, 52
1, 56410, Note_on_c, 0, 77, 0
1, 56420, Tempo, 624090
1, 56440, Tempo, 627287
1, 56460, Tempo, 630385
1, 56480, Note_on_c, 0, 77, 52
1, 56480, Note_on_c, 0, 61, 34
1, 56490, Note_on_c, 0, 76, 0
1, 56490, Note_on_c, 0, 65, 0
1, 56500, Tempo, 633580
1, 56520, Tempo, 636740
1, 56540, Tempo, 640068
1, 56560, Tempo, 633580
1, 56560, Note_on_c, 0, 73, 50
1, 56570, Note_on_c, 0, 77, 0
1, 56640, Tempo, 615006
1, 56640, Note_on_c, 0, 73, 0
1, 56640, Note_on_c, 0, 61, 0
1, 56640, Note_on_c, 0, 72, 60
1, 56640, Note_on_c, 0, 52, 48
1, 56720, Tempo, 611933
1, 56720, Note_on_c, 0, 73, 49
1, 56730, Note_on_c, 0, 72, 0
1, 56800, Tempo, 608952
1, 56800, Note_on_c, 0, 71, 49
1, 56800, Note_on_c, 0, 67, 37
1, 56810, Note_on_c, 0, 73, 0
1, 56810, Note_on_c, 0, 52, 0
1, 56880, Tempo, 605938
1, 56880, Note_on_c, 0, 72, 49
1, 56890, Note_on_c, 0, 71, 0
1, 56960, Tempo, 578090
1, 56960, Note_on_c, 0, 75, 55
1, 56960, Note_on_c, 0, 60, 31
1, 56970, Note_on_c, 0, 72, 0
1, 56970, Note_on_c, 0, 67, 0
1, 57040, Tempo, 600180
1, 57040, Note_on_c, 0, 73, 49
1, 57050, Note_on_c, 0, 75, 0
1, 57120, Tempo, 591774
1, 57120, Note_on_c, 0, 73, 0
1, 57120, Note_on_c, 0, 60, 0
1, 57120, Note_on_c, 0, 72, 60
1, 57120, Note_on_c, 0, 58, 48
1, 57200, Tempo, 588928
1, 57200, Note_on_c, 0, 73, 50
1, 57210, Note_on_c, 0, 72, 0
1, 57280, Tempo, 586224
1, 57280, Note_on_c, 0, 71, 50
1, 57280, Note_on_c, 0, 67, 37
1, 57290, Note_on_c, 0, 73, 0
1, 57290, Note_on_c, 0, 58, 0
1, 57360, Tempo, 583431
1, 57360, Note_on_c, 0, 72, 50
1, 57370, Note_on_c, 0, 71, 0
1, 57440, Tempo, 575374
1, 57440, Note_on_c, 0, 78, 55
1, 57440, Note_on_c, 0, 60, 34
1, 57450, Note_on_c, 0, 72, 0
1, 57450, Note_on_c, 0, 67, 0
1, 57500, Tempo, 578090
1, 57520, Tempo, 611933
1, 57520, Note_on_c, 0, 79, 49
1, 57530, Note_on_c, 0, 78, 0
1, 57600, Tempo, 583431
1, 57600, Note_on_c, 0, 79, 0
1, 57600, Note_on_c, 0, 60, 0
1, 57600, Note_on_c, 0, 72, 60
1, 57600, Note_on_c, 0, 53, 48
1, 57680, Tempo, 580720
1, 57680, Note_on_c, 0, 73, 49
1, 57690, Note_on_c, 0, 72, 0
1, 57740, Tempo, 578090
1, 57760, Note_on_c, 0, 71, 49
1, 57760, Note_on_c, 0, 68, 39
1, 57770, Note_on_c, 0, 73, 0
1, 57770, Note_on_c, 0, 53, 0
1, 57800, Tempo, 575374
1, 57840, Note_on_c, 0, 72, 49
1, 57850, Note_on_c, 0, 71, 0
1, 57860, Tempo, 572792
1, 57920, Tempo, 570125
1, 57920, Note_on_c, 0, 75, 55
1, 57920, Note_on_c, 0, 60, 34
1, 57930, Note_on_c, 0, 72, 0
1, 57930, Note_on_c, 0, 68, 0
1, 57980, Tempo, 567591
1, 58000, Tempo, 577812
1, 58000, Note_on_c, 0, 73, 49
1, 58010, Note_on_c, 0, 75, 0
1, 58080, Tempo, 555042
1, 58080, Note_on_c, 0, 73, 0
1, 58080, Note_on_c, 0, 60, 0
1, 58080, Note_on_c, 0, 72, 57
1, 58080, Note_on_c, 0, 56, 48
1, 58160, Note_on_c, 0, 73, 50
1, 58170, Note_on_c, 0, 72, 0
1, 58240, Note_on_c, 0, 71, 50
1, 58240, Note_on_c, 0, 68, 39
1, 58250, Note_on_c, 0, 73, 0
1, 58250, Note_on_c, 0, 56, 0
1, 58320, Note_on_c, 0, 72, 50
1, 58330, Note_on_c, 0, 71, 0
1, 58400, Note_on_c, 0, 80, 55
1, 58400, Note_on_c, 0, 60, 35
1, 58410, Note_on_c, 0, 72, 0
1, 58410, Note_on_c, 0, 68, 0
1, 58480, Tempo, 588928
1, 58480, Note_on_c, 0, 77, 51
1, 58490, Note_on_c, 0, 80, 0
1, 58560, Tempo, 562535
1, 58560, Note_on_c, 0, 77, 0
1, 58560, Note_on_c, 0, 60, 0
1, 58560, Note_on_c, 0, 76, 60
1, 58560, Note_on_c, 0, 55, 48
1, 58640, Note_on_c, 0, 77, 53
1, 58650, Note_on_c, 0, 76, 0
1, 58720, Tempo, 557517
1, 58720, Note_on_c, 0, 76, 56
1, 58720, Note_on_c, 0, 70, 39
1, 58730, Note_on_c, 0, 77, 0
1, 58730, Note_on_c, 0, 55, 0
1, 58740, Tempo, 559963
1, 58760, Tempo, 562535
1, 58780, Tempo, 565025
1, 58800, Tempo, 567591
1, 58800, Note_on_c, 0, 75, 57
1, 58810, Note_on_c, 0, 76, 0
1, 58820, Tempo, 570125
1, 58840, Tempo, 572792
1, 58860, Tempo, 575374
1, 58880, Tempo, 578090
1, 58880, Note_on_c, 0, 76, 60
1, 58880, Note_on_c, 0, 64, 42
1, 58890, Note_on_c, 0, 75, 0
1, 58890, Note_on_c, 0, 70, 0
1, 58900, Tempo, 580720
1, 58920, Tempo, 583431
1, 58940, Tempo, 588928
1, 58960, Tempo, 586224
1, 58960, Note_on_c, 0, 79, 62
1, 58970, Note_on_c, 0, 76, 0
1, 59040, Tempo, 583431
1, 59040, Note_on_c, 0, 79, 0
1, 59040, Note_on_c, 0, 64, 0
1, 59040, Note_on_c, 0, 82, 70
1, 59040, Note_on_c, 0, 61, 51
1, 59120, Tempo, 565025
1, 59120, Note_on_c, 0, 84, 62
1, 59130, Note_on_c, 0, 82, 0
1, 59200, Tempo, 562535
1, 59200, Note_on_c, 0, 82, 64
1, 59200, Note_on_c, 0, 70, 46
1, 59210, Note_on_c, 0, 84, 0
1, 59210, Note_on_c, 0, 61, 0
1, 59280, Tempo, 559963
1, 59280, Note_on_c, 0, 81, 66
1, 59290, Note_on_c, 0, 82, 0
1, 59360, Tempo, 557517
1, 59360, Note_on_c, 0, 82, 64
1, 59360, Note_on_c, 0, 63, 45
1, 59370, Note_on_c, 0, 81, 0
1, 59370, Note_on_c, 0, 70, 0
1, 59420, Tempo, 555042
1, 59440, Tempo, 592710
1, 59440, Note_on_c, 0, 85, 66
1, 59450, Note_on_c, 0, 82, 0
1, 59520, Tempo, 734844
1, 59520, Note_on_c, 0, 85, 0
1, 59520, Note_on_c, 0, 63, 0
1, 59520, Note_on_c, 0, 84, 77
1, 59520, Note_on_c, 0, 56, 59
1, 59594, Control_c, 0, 64, 127
1, 59600, Tempo, 631845
1, 59600, Note_on_c, 0, 92, 68
1, 59610, Note_on_c, 0, 84, 0
1, 59680, Note_on_c, 0, 91, 67
1, 59680, Note_on_c, 0, 68, 48
1, 59690, Note_on_c, 0, 92, 0
1, 59690, Note_on_c, 0, 56, 0
1, 59760, Note_on_c, 0, 90, 70
1, 59770, Note_on_c, 0, 91, 0
1, 59840, Note_on_c, 0, 89, 67
1, 59840, Note_on_c, 0, 65, 48
1, 59850, Note_on_c, 0, 90, 0
1, 59850, Note_on_c, 0, 68, 0
1, 59920, Tempo, 622794
1, 59920, Note_on_c, 0, 88, 64
1, 59930, Note_on_c, 0, 89, 0
1, 60000, Note_on_c, 0, 88, 0
1, 60000, Note_on_c, 0, 65, 0
1, 60000, Note_on_c, 0, 87, 69
1, 60000, Note_on_c, 0, 60, 53
1, 60040, Tempo, 625782
1, 60080, Note_on_c, 0, 86, 61
1, 60090, Note_on_c, 0, 87, 0
1, 60140, Tempo, 628799
1, 60160, Note_on_c, 0, 85, 61
1, 60160, Note_on_c, 0, 68, 45
1, 60170, Note_on_c, 0, 86, 0
1, 60170, Note_on_c, 0, 60, 0
1, 60240, Tempo, 627287
1, 60240, Note_on_c, 0, 84, 61
1, 60250, Note_on_c, 0, 85, 0
1, 60260, Tempo, 630385
1, 60280, Tempo, 633580
1, 60300, Tempo, 636740
1, 60320, Tempo, 640068
1, 60320, Note_on_c, 0, 83, 61
1, 60320, Note_on_c, 0, 65, 45
1, 60330, Note_on_c, 0, 84, 0
1, 60330, Note_on_c, 0, 68, 0
1, 60340, Tempo, 643363
1, 60360, Tempo, 649984
1, 60380, Tempo, 653381
1, 60400, Tempo, 656814
1, 60400, Note_on_c, 0, 82, 60
1, 60410, Note_on_c, 0, 83, 0
1, 60420, Tempo, 660284
1, 60440, Tempo, 663790
1, 60460, Tempo, 670841
1, 60480, Tempo, 695733
1, 60480, Note_on_c, 0, 82, 0
1, 60480, Note_on_c, 0, 65, 0
1, 60480, Note_on_c, 0, 81, 61
1, 60480, Note_on_c, 0, 46, 51
1, 60491, Control_c, 0, 64, 0
1, 60514, Control_c, 0, 64, 127
1, 60560, Tempo, 636740
1, 60560, Note_on_c, 0, 80, 56
1, 60570, Note_on_c, 0, 81, 0
1, 60580, Tempo, 643363
1, 60640, Note_on_c, 0, 79, 56
1, 60640, Note_on_c, 0, 61, 42
1, 60650, Note_on_c, 0, 80, 0
1, 60650, Note_on_c, 0, 46, 0
1, 60720, Note_on_c, 0, 89, 59
1, 60730, Note_on_c, 0, 79, 0
1, 60800, Note_on_c, 0, 85, 57
1, 60800, Note_on_c, 0, 55, 39
1, 60810, Note_on_c, 0, 89, 0
1, 60810, Note_on_c, 0, 61, 0
1, 60880, Tempo, 624090
1, 60880, Note_on_c, 0, 82, 56
1, 60890, Note_on_c, 0, 85, 0
1, 60940, Tempo, 627287
1, 60960, Note_on_c, 0, 82, 0
1, 60960, Note_on_c, 0, 55, 0
1, 60960, Note_on_c, 0, 79, 57
1, 60960, Note_on_c, 0, 53, 44
1, 60980, Tempo, 630385
1, 61020, Tempo, 633580
1, 61040, Note_on_c, 0, 77, 52
1, 61050, Note_on_c, 0, 79, 0
1, 61060, Tempo, 636740
1, 61100, Tempo, 640068
1, 61120, Note_on_c, 0, 73, 52
1, 61120, Note_on_c, 0, 61, 36
1, 61130, Note_on_c, 0, 77, 0
1, 61130, Note_on_c, 0, 53, 0
1, 61140, Tempo, 643363
1, 61180, Tempo, 646691
1, 61200, Note_on_c, 0, 70, 52
1, 61210, Note_on_c, 0, 73, 0
1, 61220, Tempo, 649984
1, 61260, Tempo, 653381
1, 61280, Note_on_c, 0, 67, 53
1, 61280, Note_on_c, 0, 55, 36
1, 61290, Note_on_c, 0, 70, 0
1, 61290, Note_on_c, 0, 61, 0
1, 61300, Tempo, 656814
1, 61340, Tempo, 660284
1, 61360, Note_on_c, 0, 73, 52
1, 61370, Note_on_c, 0, 67, 0
1, 61380, Tempo, 663790
1, 61400, Tempo, 656814
1, 61420, Tempo, 637959
1, 61440, Tempo, 643363
1, 61440, Note_on_c, 0, 73, 0
1, 61440, Note_on_c, 0, 55, 0
1, 61440, Note_on_c, 0, 72, 60
1, 61440, Note_on_c, 0, 48, 42
1, 61451, Control_c, 0, 64, 0
1, 61474, Control_c, 0, 64, 127
1, 61520, Note_on_c, 0, 73, 55
1, 61530, Note_on_c, 0, 72, 0
1, 61600, Note_on_c, 0, 71, 52
1, 61600, Note_on_c, 0, 65, 35
1, 61610, Note_on_c, 0, 73, 0
1, 61610, Note_on_c, 0, 48, 0
1, 61680, Note_on_c, 0, 72, 55
1, 61690, Note_on_c, 0, 71, 0
1, 61760, Note_on_c, 0, 68, 56
1, 61760, Note_on_c, 0, 60, 35
1, 61770, Note_on_c, 0, 72, 0
1, 61770, Note_on_c, 0, 65, 0
1, 61840, Tempo, 677660
1, 61840, Note_on_c, 0, 70, 55
1, 61850, Note_on_c, 0, 68, 0
1, 61920, Tempo, 634921
1, 61920, Note_on_c, 0, 70, 0
1, 61920, Note_on_c, 0, 60, 0
1, 61920, Note_on_c, 0, 72, 59
1, 61920, Note_on_c, 0, 56, 41
1, 61939, Control_c, 0, 64, 0
1, 61940, Tempo, 643363
1, 62000, Note_on_c, 0, 73, 55
1, 62010, Note_on_c, 0, 72, 0
1, 62080, Note_on_c, 0, 72, 53
1, 62080, Note_on_c, 0, 65, 35
1, 62090, Note_on_c, 0, 73, 0
1, 62090, Note_on_c, 0, 56, 0
1, 62160, Note_on_c, 0, 73, 55
1, 62170, Note_on_c, 0, 72, 0
1, 62240, Note_on_c, 0, 77, 58
1, 62240, Note_on_c, 0, 60, 34
1, 62250, Note_on_c, 0, 73, 0
1, 62250, Note_on_c, 0, 65, 0
1, 62320, Tempo, 664011
1, 62320, Note_on_c, 0, 75, 52
1, 62330, Note_on_c, 0, 77, 0
1, 62400, Tempo, 640068
1, 62400, Note_on_c, 0, 75, 0
1, 62400, Note_on_c, 0, 60, 0
1, 62400, Note_on_c, 0, 72, 60
1, 62400, Note_on_c, 0, 48, 40
1, 62480, Note_on_c, 0, 73, 50
1, 62490, Note_on_c, 0, 72, 0
1, 62560, Note_on_c, 0, 70, 50
1, 62560, Note_on_c, 0, 63, 33
1, 62570, Note_on_c, 0, 73, 0
1, 62570, Note_on_c, 0, 48, 0
1, 62640, Note_on_c, 0, 72, 51
1, 62650, Note_on_c, 0, 70, 0
1, 62720, Note_on_c, 0, 75, 57
1, 62720, Note_on_c, 0, 55, 33
1, 62730, Note_on_c, 0, 72, 0
1, 62730, Note_on_c, 0, 63, 0
1, 62800, Tempo, 674157
1, 62800, Note_on_c, 0, 73, 53
1, 62810, Note_on_c, 0, 75, 0
1, 62880, Tempo, 662325
1, 62880, Note_on_c, 0, 73, 0
1, 62880, Note_on_c, 0, 55, 0
1, 62880, Note_on_c, 0, 70, 59
1, 62880, Note_on_c, 0, 53, 39
1, 62960, Note_on_c, 0, 72, 46
1, 62970, Note_on_c, 0, 70, 0
1, 63040, Note_on_c, 0, 68, 46
1, 63040, Note_on_c, 0, 61, 33
1, 63050, Note_on_c, 0, 72, 0
1, 63050, Note_on_c, 0, 53, 0
1, 63120, Note_on_c, 0, 70, 49
1, 63130, Note_on_c, 0, 68, 0
1, 63200, Note_on_c, 0, 73, 51
1, 63200, Note_on_c, 0, 52, 30
1, 63210, Note_on_c, 0, 70, 0
1, 63210, Note_on_c, 0, 61, 0
1, 63280, Note_on_c, 0, 72, 47
1, 63290, Note_on_c, 0, 73, 0
1, 63360, Tempo, 895522
1, 63360, Note_on_c, 0, 72, 0
1, 63360, Note_on_c, 0, 52, 0
1, 63360, Note_on_c, 0, 65, 60
1, 63360, Note_on_c, 0, 53, 39
1, 63406, Control_c, 0, 64, 127
1, 63440, Tempo, 759494
1, 63440, Note_on_c, 0, 84, 53
1, 63450, Note_on_c, 0, 65, 0
1, 63520, Note_on_c, 0, 82, 52
1, 63520, Note_on_c, 0, 68, 35
1, 63530, Note_on_c, 0, 84, 0
1, 63530, Note_on_c, 0, 53, 0
1, 63600, Note_on_c, 0, 80, 51
1, 63610, Note_on_c, 0, 82, 0
1, 63680, Note_on_c, 0, 79, 50
1, 63680, Note_on_c, 0, 60, 31
1, 63690, Note_on_c, 0, 80, 0
1, 63690, Note_on_c, 0, 68, 0
1, 63760, Note_on_c, 0, 77, 49
1, 63770, Note_on_c, 0, 79, 0
1, 63780, Tempo, 750000
1, 63840, Tempo, 754717
1, 63840, Note_on_c, 0, 77, 0
1, 63840, Note_on_c, 0, 60, 0
1, 63840, Note_on_c, 0, 75, 52
1, 63840, Note_on_c, 0, 58, 36
1, 63851, Control_c, 0, 64, 0
1, 63880, Tempo, 759494
1, 63920, Tempo, 764331
1, 63920, Note_on_c, 0, 73, 44
1, 63930, Note_on_c, 0, 75, 0
1, 63960, Tempo, 769231
1, 64000, Tempo, 774194
1, 64000, Note_on_c, 0, 72, 41
1, 64000, Note_on_c, 0, 67, 27
1, 64010, Note_on_c, 0, 73, 0
1, 64010, Note_on_c, 0, 58, 0
1, 64040, Tempo, 779221
1, 64080, Note_on_c, 0, 70, 39
1, 64090, Note_on_c, 0, 72, 0
1, 64100, Tempo, 784314
1, 64140, Tempo, 789474
1, 64160, Note_on_c, 0, 72, 37
1, 64160, Note_on_c, 0, 61, 26
1, 64170, Note_on_c, 0, 70, 0
1, 64170, Note_on_c, 0, 67, 0
1, 64180, Tempo, 794702
1, 64220, Tempo, 800000
1, 64240, Note_on_c, 0, 73, 35
1, 64250, Note_on_c, 0, 72, 0
1, 64260, Tempo, 805369
1, 64300, Tempo, 810811
1, 64320, Time_signature, 5, 3, 12, 8
1, 64320, Tempo, 914634
1, 64320, Note_on_c, 0, 73, 0
1, 64320, Note_on_c, 0, 61, 0
1, 64320, Note_on_c, 0, 65, 55
1, 64320, Note_on_c, 0, 53, 36
1, 64366, Control_c, 0, 64, 127
1, 64400, Tempo, 810811
1, 64400, Note_on_c, 0, 84, 51
1, 64410, Note_on_c, 0, 65, 0
1, 64440, Tempo, 816327
1, 64480, Tempo, 821918
1, 64480, Note_on_c, 0, 82, 51
1, 64480, Note_on_c, 0, 68, 28
1, 64490, Note_on_c, 0, 84, 0
1, 64490, Note_on_c, 0, 53, 0
1, 64500, Tempo, 827586
1, 64540, Tempo, 833333
1, 64560, Tempo, 839161
1, 64560, Note_on_c, 0, 80, 50
1, 64570, Note_on_c, 0, 82, 0
1, 64600, Tempo, 845070
1, 64640, Tempo, 851064
1, 64640, Note_on_c, 0, 79, 49
1, 64640, Note_on_c, 0, 60, 28
1, 64650, Note_on_c, 0, 80, 0
1, 64650, Note_on_c, 0, 68, 0
1, 64660, Tempo, 857143
1, 64700, Tempo, 863309
1, 64720, Tempo, 869565
1, 64720, Note_on_c, 0, 77, 48
1, 64730, Note_on_c, 0, 79, 0
1, 64760, Tempo, 875912
1, 64800, Tempo, 882353
1, 64800, Note_on_c, 0, 77, 0
1, 64800, Note_on_c, 0, 60, 0
1, 64800, Note_on_c, 0, 75, 42
1, 64800, Note_on_c, 0, 58, 35
1, 64813, Control_c, 0, 64, 0
1, 64820, Tempo, 888889
1, 64860, Tempo, 895522
1, 64880, Tempo, 902256
1, 64880, Note_on_c, 0, 73, 41
1, 64890, Note_on_c, 0, 75, 0
1, 64920, Tempo, 909091
1, 64960, Tempo, 916031
1, 64960, Note_on_c, 0, 72, 39
1, 64960, Note_on_c, 0, 67, 31
1, 64970, Note_on_c, 0, 73, 0
1, 64970, Note_on_c, 0, 58, 0
1, 64980, Tempo, 923077
1, 65020, Tempo, 930233
1, 65040, Tempo, 937500
1, 65040, Note_on_c, 0, 70, 40
1, 65050, Note_on_c, 0, 72, 0
1, 65120, Note_on_c, 0, 72, 40
1, 65120, Note_on_c, 0, 61, 28
1, 65130, Note_on_c, 0, 70, 0
1, 65130, Note_on_c, 0, 67, 0
1, 65200, Note_on_c, 0, 75, 50
1, 65210, Note_on_c, 0, 72, 0
1, 65280, Tempo, 860462
1, 65280, Note_on_c, 0, 75, 0
1, 65280, Note_on_c, 0, 73, 46
1, 65400, Tempo, 1257862
1, 65400, Note_on_c, 0, 73, 0
1, 65400, Note_on_c, 0, 72, 44
1, 65520, Time_signature, 2, 2, 24, 8
1, 65520, Tempo, 921093
1, 65520, Note_on_c, 0, 72, 0
1, 65520, Note_on_c, 0, 61, 0
1, 65520, Note_on_c, 0, 53, 27
1, 65580, Note_on_c, 0, 60, 33
1, 65587, Control_c, 0, 64, 127
1, 65640, Note_on_c, 0, 65, 40
1, 65700, Note_on_c, 0, 68, 40
1, 65760, Tempo, 2424242
1, 65760, Note_on_c, 0, 72, 55
1, 66000, Tempo, 1348921
1, 66000, Note_on_c, 0, 72, 0
1, 66000, Note_on_c, 0, 72, 44
1, 66240, Tempo, 1538856
1, 66240, Note_on_c, 0, 72, 0
1, 66240, Note_on_c, 0, 72, 41
1, 66480, Note_on_c, 0, 72, 0
1, 66480, Note_on_c, 0, 72, 40
1, 67440, Note_on_c, 0, 72, 0
1, 67440, Note_on_c, 0, 68, 0
1, 67440, Note_on_c, 0, 53, 0
1, 67440, Note_on_c, 0, 60, 0
1, 67440, Note_on_c, 0, 65, 0
1, 67893, Control_c, 0, 64, 0
1, 71040, Tempo, 535714
1, 89280, Tempo, 535714
1, 91200, Tempo, 535714
1, 91200, End_track
0, 0, End_of_file
