0, 0, Header, 0, 1, 480
1, 0, Start_track
1, 0, Title_t, "Clementi: Sonatine Opus 36 Nr. 3, 1. Satz"
1, 0, Copyright_t, "Copyright © 2010 by Bernd Krueger"
1, 0, Text_t, "Muzio Clementi"
1, 0, Text_t, "Spiritoso"
1, 0, Text_t, "Erstellt:  12.12.2010\012"
1, 0, Text_t, "Dauer: 2:54 Minuten\012"
1, 0, Time_signature, 4, 2, 24, 8
1, 0, Key_signature, 0, "major"
1, 0, Tempo, 475851
1, 0, Marker_t, "Teil 1"
1, 0, Program_c, 0, 0
1, 0, Note_on_c, 0, 79, 70
1, 0, Program_c, 0, 0
1, 0, Note_on_c, 0, 64, 40
1, 0, Program_c, 0, 0
1, 28, Control_c, 0, 64, 127
1, 240, Note_on_c, 0, 64, 0
1, 240, Note_on_c, 0, 60, 32
1, 480, Note_on_c, 0, 60, 0
1, 480, Note_on_c, 0, 64, 35
1, 720, Tempo, 510247
1, 720, Note_on_c, 0, 64, 0
1, 720, Note_on_c, 0, 79, 0
1, 720, Note_on_c, 0, 76, 65
1, 720, Note_on_c, 0, 60, 32
1, 960, Tempo, 472106
1, 960, Note_on_c, 0, 60, 0
1, 960, Note_on_c, 0, 76, 0
1, 960, Note_on_c, 0, 72, 70
1, 960, Note_on_c, 0, 64, 40
1, 973, Control_c, 0, 64, 0
1, 1200, Note_on_c, 0, 64, 0
1, 1200, Note_on_c, 0, 72, 0
1, 1200, Note_on_c, 0, 67, 65
1, 1200, Note_on_c, 0, 60, 29
1, 1320, Note_on_c, 0, 67, 0
1, 1440, Note_on_c, 0, 60, 0
1, 1440, Note_on_c, 0, 67, 65
1, 1440, Note_on_c, 0, 64, 37
1, 1560, Note_on_c, 0, 67, 0
1, 1680, Tempo, 508087
1, 1680, Note_on_c, 0, 64, 0
1, 1680, Note_on_c, 0, 67, 65
1, 1680, Note_on_c, 0, 60, 32
1, 1800, Note_on_c, 0, 67, 0
1, 1920, Tempo, 472106
1, 1920, Note_on_c, 0, 60, 0
1, 1920, Note_on_c, 0, 79, 70
1, 1920, Note_on_c, 0, 64, 40
1, 2012, Control_c, 0, 64, 127
1, 2160, Note_on_c, 0, 64, 0
1, 2160, Note_on_c, 0, 60, 32
1, 2400, Note_on_c, 0, 60, 0
1, 2400, Note_on_c, 0, 64, 35
1, 2640, Tempo, 491441
1, 2640, Note_on_c, 0, 64, 0
1, 2640, Note_on_c, 0, 79, 0
1, 2640, Note_on_c, 0, 76, 59
1, 2640, Note_on_c, 0, 60, 32
1, 2856, Tempo, 475851
1, 2880, Note_on_c, 0, 60, 0
1, 2880, Note_on_c, 0, 76, 0
1, 2880, Note_on_c, 0, 72, 63
1, 2880, Note_on_c, 0, 64, 40
1, 2895, Control_c, 0, 64, 0
1, 2952, Tempo, 473971
1, 3000, Note_on_c, 0, 72, 0
1, 3000, Note_on_c, 0, 74, 61
1, 3024, Tempo, 472106
1, 3096, Tempo, 470256
1, 3120, Note_on_c, 0, 74, 0
1, 3120, Note_on_c, 0, 64, 0
1, 3120, Note_on_c, 0, 76, 62
1, 3120, Note_on_c, 0, 60, 29
1, 3168, Tempo, 468421
1, 3240, Tempo, 466599
1, 3240, Note_on_c, 0, 76, 0
1, 3240, Note_on_c, 0, 77, 63
1, 3312, Tempo, 468421
1, 3360, Tempo, 470256
1, 3360, Note_on_c, 0, 77, 0
1, 3360, Note_on_c, 0, 60, 0
1, 3360, Note_on_c, 0, 79, 64
1, 3360, Note_on_c, 0, 64, 37
1, 3408, Tempo, 472106
1, 3480, Tempo, 473971
1, 3480, Note_on_c, 0, 79, 0
1, 3480, Note_on_c, 0, 81, 65
1, 3528, Tempo, 475851
1, 3576, Tempo, 477745
1, 3600, Note_on_c, 0, 81, 0
1, 3600, Note_on_c, 0, 64, 0
1, 3600, Note_on_c, 0, 83, 67
1, 3600, Note_on_c, 0, 60, 32
1, 3648, Tempo, 479655
1, 3696, Tempo, 481580
1, 3720, Note_on_c, 0, 83, 0
1, 3720, Note_on_c, 0, 84, 70
1, 3744, Tempo, 483520
1, 3792, Tempo, 485476
1, 3840, Tempo, 470256
1, 3840, Note_on_c, 0, 84, 0
1, 3840, Note_on_c, 0, 60, 0
1, 3840, Note_on_c, 0, 83, 76
1, 3840, Note_on_c, 0, 65, 40
1, 4080, Note_on_c, 0, 65, 0
1, 4080, Note_on_c, 0, 83, 0
1, 4080, Note_on_c, 0, 81, 65
1, 4080, Note_on_c, 0, 60, 32
1, 4200, Note_on_c, 0, 81, 0
1, 4320, Note_on_c, 0, 60, 0
1, 4320, Note_on_c, 0, 81, 70
1, 4320, Note_on_c, 0, 65, 35
1, 4440, Note_on_c, 0, 81, 0
1, 4560, Tempo, 489436
1, 4560, Note_on_c, 0, 65, 0
1, 4560, Note_on_c, 0, 81, 68
1, 4560, Note_on_c, 0, 60, 32
1, 4680, Note_on_c, 0, 81, 0
1, 4800, Tempo, 468421
1, 4800, Note_on_c, 0, 60, 0
1, 4800, Note_on_c, 0, 83, 70
1, 4800, Note_on_c, 0, 65, 40
1, 4920, Note_on_c, 0, 83, 0
1, 4920, Note_on_c, 0, 81, 64
1, 5040, Note_on_c, 0, 81, 0
1, 5040, Note_on_c, 0, 65, 0
1, 5040, Note_on_c, 0, 80, 70
1, 5040, Note_on_c, 0, 60, 29
1, 5160, Note_on_c, 0, 80, 0
1, 5160, Note_on_c, 0, 81, 65
1, 5280, Note_on_c, 0, 81, 0
1, 5280, Note_on_c, 0, 60, 0
1, 5280, Note_on_c, 0, 84, 70
1, 5280, Note_on_c, 0, 65, 37
1, 5460, Note_on_c, 0, 84, 0
1, 5520, Tempo, 505945
1, 5520, Note_on_c, 0, 65, 0
1, 5520, Note_on_c, 0, 81, 63
1, 5520, Note_on_c, 0, 60, 32
1, 5700, Note_on_c, 0, 81, 0
1, 5760, Tempo, 481580
1, 5760, Note_on_c, 0, 60, 0
1, 5760, Note_on_c, 0, 78, 73
1, 5760, Note_on_c, 0, 64, 40
1, 6000, Note_on_c, 0, 64, 0
1, 6000, Note_on_c, 0, 78, 0
1, 6000, Note_on_c, 0, 79, 65
1, 6000, Note_on_c, 0, 60, 32
1, 6120, Note_on_c, 0, 79, 0
1, 6240, Note_on_c, 0, 60, 0
1, 6240, Note_on_c, 0, 79, 70
1, 6240, Note_on_c, 0, 64, 35
1, 6360, Note_on_c, 0, 79, 0
1, 6480, Note_on_c, 0, 64, 0
1, 6480, Note_on_c, 0, 79, 64
1, 6480, Note_on_c, 0, 60, 32
1, 6600, Note_on_c, 0, 79, 0
1, 6720, Tempo, 475851
1, 6720, Note_on_c, 0, 60, 0
1, 6720, Note_on_c, 0, 79, 71
1, 6720, Note_on_c, 0, 64, 38
1, 6777, Control_c, 0, 64, 127
1, 6960, Tempo, 462999
1, 6960, Note_on_c, 0, 64, 0
1, 6960, Note_on_c, 0, 60, 29
1, 7200, Note_on_c, 0, 60, 0
1, 7200, Note_on_c, 0, 79, 0
1, 7200, Note_on_c, 0, 64, 37
1, 7207, Control_c, 0, 64, 0
1, 7440, Tempo, 487448
1, 7440, Note_on_c, 0, 64, 0
1, 7440, Note_on_c, 0, 60, 30
1, 7680, Tempo, 468421
1, 7680, Note_on_c, 0, 60, 0
1, 7680, Note_on_c, 0, 74, 42
1, 7680, Note_on_c, 0, 77, 50
1, 7680, Note_on_c, 0, 67, 35
1, 7800, Note_on_c, 0, 77, 0
1, 7800, Note_on_c, 0, 74, 0
1, 7920, Note_on_c, 0, 77, 46
1, 7920, Note_on_c, 0, 74, 39
1, 8040, Note_on_c, 0, 74, 0
1, 8040, Note_on_c, 0, 77, 0
1, 8160, Tempo, 475851
1, 8160, Note_on_c, 0, 67, 0
1, 8160, Note_on_c, 0, 72, 42
1, 8160, Note_on_c, 0, 76, 50
1, 8280, Note_on_c, 0, 76, 0
1, 8280, Note_on_c, 0, 72, 0
1, 8400, Tempo, 495499
1, 8400, Note_on_c, 0, 76, 41
1, 8400, Note_on_c, 0, 72, 34
1, 8520, Note_on_c, 0, 72, 0
1, 8520, Note_on_c, 0, 76, 0
1, 8640, Tempo, 470256
1, 8640, Note_on_c, 0, 71, 42
1, 8640, Note_on_c, 0, 74, 50
1, 8640, Note_on_c, 0, 67, 45
1, 8760, Note_on_c, 0, 67, 0
1, 8880, Note_on_c, 0, 67, 40
1, 9000, Note_on_c, 0, 67, 0
1, 9120, Tempo, 475851
1, 9120, Note_on_c, 0, 74, 0
1, 9120, Note_on_c, 0, 71, 0
1, 9120, Note_on_c, 0, 65, 45
1, 9240, Note_on_c, 0, 65, 0
1, 9360, Tempo, 491441
1, 9360, Note_on_c, 0, 65, 38
1, 9480, Note_on_c, 0, 65, 0
1, 9600, Tempo, 468421
1, 9600, Note_on_c, 0, 76, 42
1, 9600, Note_on_c, 0, 79, 50
1, 9600, Note_on_c, 0, 64, 35
1, 9720, Note_on_c, 0, 79, 0
1, 9720, Note_on_c, 0, 76, 0
1, 9840, Note_on_c, 0, 79, 46
1, 9840, Note_on_c, 0, 76, 39
1, 9960, Note_on_c, 0, 76, 0
1, 9960, Note_on_c, 0, 79, 0
1, 10080, Tempo, 475851
1, 10080, Note_on_c, 0, 64, 0
1, 10080, Note_on_c, 0, 74, 42
1, 10080, Note_on_c, 0, 77, 50
1, 10200, Note_on_c, 0, 77, 0
1, 10200, Note_on_c, 0, 74, 0
1, 10320, Tempo, 495499
1, 10320, Note_on_c, 0, 77, 41
1, 10320, Note_on_c, 0, 74, 34
1, 10440, Note_on_c, 0, 74, 0
1, 10440, Note_on_c, 0, 77, 0
1, 10560, Tempo, 470256
1, 10560, Note_on_c, 0, 72, 42
1, 10560, Note_on_c, 0, 76, 50
1, 10560, Note_on_c, 0, 69, 45
1, 10680, Note_on_c, 0, 69, 0
1, 10800, Note_on_c, 0, 69, 40
1, 10920, Note_on_c, 0, 69, 0
1, 11040, Tempo, 475851
1, 11040, Note_on_c, 0, 76, 0
1, 11040, Note_on_c, 0, 72, 0
1, 11040, Note_on_c, 0, 67, 45
1, 11160, Note_on_c, 0, 67, 0
1, 11280, Tempo, 491441
1, 11280, Note_on_c, 0, 67, 38
1, 11400, Note_on_c, 0, 67, 0
1, 11520, Tempo, 462999
1, 11520, Note_on_c, 0, 81, 58
1, 11520, Note_on_c, 0, 65, 45
1, 11640, Note_on_c, 0, 65, 0
1, 11640, Note_on_c, 0, 81, 0
1, 11640, Note_on_c, 0, 77, 43
1, 11760, Note_on_c, 0, 77, 0
1, 11760, Note_on_c, 0, 76, 43
1, 11880, Note_on_c, 0, 76, 0
1, 11880, Note_on_c, 0, 74, 43
1, 12000, Note_on_c, 0, 74, 0
1, 12000, Note_on_c, 0, 81, 50
1, 12120, Note_on_c, 0, 81, 0
1, 12120, Note_on_c, 0, 77, 43
1, 12240, Note_on_c, 0, 77, 0
1, 12240, Note_on_c, 0, 76, 43
1, 12240, Note_on_c, 0, 65, 39
1, 12360, Tempo, 512426
1, 12360, Note_on_c, 0, 65, 0
1, 12360, Note_on_c, 0, 76, 0
1, 12360, Note_on_c, 0, 74, 43
1, 12480, Tempo, 485476
1, 12480, Note_on_c, 0, 74, 0
1, 12480, Note_on_c, 0, 76, 58
1, 12480, Note_on_c, 0, 67, 45
1, 12600, Tempo, 472106
1, 12600, Note_on_c, 0, 67, 0
1, 12600, Note_on_c, 0, 76, 0
1, 12600, Note_on_c, 0, 79, 42
1, 12720, Note_on_c, 0, 79, 0
1, 12720, Note_on_c, 0, 76, 42
1, 12840, Note_on_c, 0, 76, 0
1, 12840, Note_on_c, 0, 72, 42
1, 12960, Note_on_c, 0, 72, 0
1, 12960, Note_on_c, 0, 74, 54
1, 12960, Note_on_c, 0, 55, 40
1, 13080, Note_on_c, 0, 55, 0
1, 13080, Note_on_c, 0, 74, 0
1, 13080, Note_on_c, 0, 77, 45
1, 13200, Note_on_c, 0, 77, 0
1, 13200, Note_on_c, 0, 74, 45
1, 13320, Tempo, 525901
1, 13320, Note_on_c, 0, 74, 0
1, 13320, Note_on_c, 0, 71, 45
1, 13440, Tempo, 468421
1, 13440, Note_on_c, 0, 71, 0
1, 13440, Note_on_c, 0, 72, 50
1, 13440, Note_on_c, 0, 60, 35
1, 13560, Note_on_c, 0, 60, 0
1, 13560, Note_on_c, 0, 72, 0
1, 13680, Note_on_c, 0, 72, 46
1, 13800, Note_on_c, 0, 72, 0
1, 13920, Tempo, 475851
1, 13920, Note_on_c, 0, 71, 42
1, 13920, Note_on_c, 0, 74, 50
1, 13920, Note_on_c, 0, 55, 39
1, 14040, Note_on_c, 0, 55, 0
1, 14040, Note_on_c, 0, 74, 0
1, 14040, Note_on_c, 0, 71, 0
1, 14160, Tempo, 495499
1, 14160, Note_on_c, 0, 74, 41
1, 14160, Note_on_c, 0, 71, 34
1, 14280, Note_on_c, 0, 71, 0
1, 14280, Note_on_c, 0, 74, 0
1, 14400, Tempo, 470256
1, 14400, Note_on_c, 0, 72, 42
1, 14400, Note_on_c, 0, 76, 50
1, 14400, Note_on_c, 0, 60, 45
1, 14485, Control_c, 0, 64, 127
1, 14640, Note_on_c, 0, 60, 0
1, 14640, Note_on_c, 0, 76, 0
1, 14640, Note_on_c, 0, 72, 0
1, 14640, Note_on_c, 0, 55, 40
1, 14880, Tempo, 475851
1, 14880, Note_on_c, 0, 55, 0
1, 14880, Note_on_c, 0, 52, 45
1, 15120, Tempo, 491441
1, 15120, Note_on_c, 0, 52, 0
1, 15120, Note_on_c, 0, 48, 38
1, 15360, Tempo, 468421
1, 15360, Note_on_c, 0, 48, 0
1, 15360, Note_on_c, 0, 62, 46
1, 15360, Note_on_c, 0, 65, 55
1, 15360, Note_on_c, 0, 55, 38
1, 15360, Control_c, 0, 64, 0
1, 15480, Note_on_c, 0, 65, 0
1, 15480, Note_on_c, 0, 62, 0
1, 15600, Note_on_c, 0, 65, 50
1, 15600, Note_on_c, 0, 62, 42
1, 15720, Note_on_c, 0, 62, 0
1, 15720, Note_on_c, 0, 65, 0
1, 15840, Tempo, 475851
1, 15840, Note_on_c, 0, 55, 0
1, 15840, Note_on_c, 0, 60, 46
1, 15840, Note_on_c, 0, 64, 55
1, 15960, Note_on_c, 0, 64, 0
1, 15960, Note_on_c, 0, 60, 0
1, 16080, Tempo, 495499
1, 16080, Note_on_c, 0, 64, 45
1, 16080, Note_on_c, 0, 60, 37
1, 16200, Note_on_c, 0, 60, 0
1, 16200, Note_on_c, 0, 64, 0
1, 16320, Tempo, 470256
1, 16320, Note_on_c, 0, 59, 46
1, 16320, Note_on_c, 0, 62, 55
1, 16320, Note_on_c, 0, 55, 49
1, 16440, Note_on_c, 0, 55, 0
1, 16560, Note_on_c, 0, 55, 44
1, 16680, Note_on_c, 0, 55, 0
1, 16800, Tempo, 475851
1, 16800, Note_on_c, 0, 62, 0
1, 16800, Note_on_c, 0, 59, 0
1, 16800, Note_on_c, 0, 53, 49
1, 16920, Note_on_c, 0, 53, 0
1, 17040, Tempo, 491441
1, 17040, Note_on_c, 0, 53, 41
1, 17160, Note_on_c, 0, 53, 0
1, 17280, Tempo, 472106
1, 17280, Note_on_c, 0, 67, 61
1, 17280, Note_on_c, 0, 64, 51
1, 17280, Note_on_c, 0, 52, 49
1, 17400, Note_on_c, 0, 52, 0
1, 17400, Note_on_c, 0, 64, 0
1, 17400, Note_on_c, 0, 67, 0
1, 17520, Note_on_c, 0, 64, 45
1, 17520, Note_on_c, 0, 67, 54
1, 17640, Note_on_c, 0, 67, 0
1, 17640, Note_on_c, 0, 64, 0
1, 17760, Tempo, 475851
1, 17760, Note_on_c, 0, 71, 62
1, 17760, Note_on_c, 0, 65, 52
1, 17880, Note_on_c, 0, 65, 0
1, 17880, Note_on_c, 0, 71, 0
1, 18000, Note_on_c, 0, 65, 45
1, 18000, Note_on_c, 0, 71, 54
1, 18000, Note_on_c, 0, 56, 41
1, 18120, Tempo, 479272
1, 18120, Note_on_c, 0, 56, 0
1, 18120, Note_on_c, 0, 71, 0
1, 18120, Note_on_c, 0, 65, 0
1, 18240, Tempo, 473971
1, 18240, Note_on_c, 0, 72, 65
1, 18240, Note_on_c, 0, 64, 55
1, 18240, Note_on_c, 0, 57, 49
1, 18360, Note_on_c, 0, 57, 0
1, 18360, Note_on_c, 0, 64, 0
1, 18360, Note_on_c, 0, 72, 0
1, 18480, Note_on_c, 0, 64, 45
1, 18480, Note_on_c, 0, 72, 54
1, 18600, Note_on_c, 0, 72, 0
1, 18600, Note_on_c, 0, 64, 0
1, 18720, Note_on_c, 0, 67, 58
1, 18720, Note_on_c, 0, 73, 69
1, 18720, Note_on_c, 0, 52, 50
1, 18840, Note_on_c, 0, 52, 0
1, 18840, Note_on_c, 0, 73, 0
1, 18840, Note_on_c, 0, 67, 0
1, 18960, Note_on_c, 0, 67, 52
1, 18960, Note_on_c, 0, 73, 63
1, 19080, Tempo, 503821
1, 19080, Note_on_c, 0, 73, 0
1, 19080, Note_on_c, 0, 67, 0
1, 19200, Tempo, 473971
1, 19200, Note_on_c, 0, 69, 62
1, 19200, Note_on_c, 0, 74, 74
1, 19200, Note_on_c, 0, 53, 61
1, 19320, Note_on_c, 0, 53, 0
1, 19320, Note_on_c, 0, 74, 0
1, 19320, Note_on_c, 0, 69, 0
1, 19440, Note_on_c, 0, 74, 66
1, 19440, Note_on_c, 0, 69, 56
1, 19440, Note_on_c, 0, 53, 46
1, 19560, Note_on_c, 0, 53, 0
1, 19560, Note_on_c, 0, 69, 0
1, 19560, Note_on_c, 0, 74, 0
1, 19680, Note_on_c, 0, 74, 64
1, 19680, Note_on_c, 0, 77, 76
1, 19680, Note_on_c, 0, 50, 53
1, 19800, Note_on_c, 0, 50, 0
1, 19800, Note_on_c, 0, 77, 0
1, 19800, Note_on_c, 0, 74, 0
1, 19920, Note_on_c, 0, 77, 70
1, 19920, Note_on_c, 0, 74, 59
1, 19920, Note_on_c, 0, 50, 49
1, 20040, Tempo, 510247
1, 20040, Note_on_c, 0, 50, 0
1, 20040, Note_on_c, 0, 74, 0
1, 20040, Note_on_c, 0, 77, 0
1, 20160, Tempo, 472106
1, 20160, Note_on_c, 0, 72, 66
1, 20160, Note_on_c, 0, 76, 78
1, 20160, Note_on_c, 0, 55, 58
1, 20280, Note_on_c, 0, 55, 0
1, 20280, Note_on_c, 0, 76, 0
1, 20280, Note_on_c, 0, 72, 0
1, 20400, Note_on_c, 0, 72, 58
1, 20400, Note_on_c, 0, 76, 69
1, 20400, Note_on_c, 0, 55, 50
1, 20520, Note_on_c, 0, 55, 0
1, 20520, Note_on_c, 0, 76, 0
1, 20520, Note_on_c, 0, 72, 0
1, 20640, Note_on_c, 0, 71, 66
1, 20640, Note_on_c, 0, 74, 78
1, 20640, Note_on_c, 0, 43, 56
1, 20760, Note_on_c, 0, 43, 0
1, 20760, Note_on_c, 0, 74, 0
1, 20760, Note_on_c, 0, 71, 0
1, 20880, Note_on_c, 0, 71, 58
1, 20880, Note_on_c, 0, 74, 69
1, 20880, Note_on_c, 0, 43, 50
1, 21000, Tempo, 540103
1, 21000, Note_on_c, 0, 43, 0
1, 21000, Note_on_c, 0, 74, 0
1, 21000, Note_on_c, 0, 71, 0
1, 21120, Tempo, 499625
1, 21120, Note_on_c, 0, 72, 86
1, 21120, Note_on_c, 0, 48, 56
1, 21360, Note_on_c, 0, 48, 0
1, 21360, Note_on_c, 0, 72, 0
1, 21600, Note_on_c, 0, 84, 82
1, 21600, Note_on_c, 0, 76, 69
1, 21600, Note_on_c, 0, 79, 69
1, 21600, Note_on_c, 0, 36, 41
1, 21600, Note_on_c, 0, 48, 49
1, 21840, Note_on_c, 0, 48, 0
1, 21840, Note_on_c, 0, 79, 0
1, 21840, Note_on_c, 0, 84, 0
1, 21840, Note_on_c, 0, 76, 0
1, 21840, Note_on_c, 0, 36, 0
1, 22080, Note_on_c, 0, 76, 68
1, 22080, Note_on_c, 0, 79, 68
1, 22080, Note_on_c, 0, 84, 80
1, 22080, Note_on_c, 0, 36, 41
1, 22080, Note_on_c, 0, 48, 49
1, 22320, Note_on_c, 0, 48, 0
1, 22320, Note_on_c, 0, 84, 0
1, 22320, Note_on_c, 0, 76, 0
1, 22320, Note_on_c, 0, 79, 0
1, 22320, Note_on_c, 0, 36, 0
1, 23040, Tempo, 468421
1, 23040, Note_on_c, 0, 79, 58
1, 23040, Note_on_c, 0, 55, 40
1, 23052, Control_c, 0, 64, 127
1, 23280, Tempo, 468421
1, 23280, Note_on_c, 0, 55, 0
1, 23280, Note_on_c, 0, 59, 31
1, 23400, Tempo, 508087
1, 23520, Tempo, 468421
1, 23520, Note_on_c, 0, 59, 0
1, 23520, Note_on_c, 0, 79, 0
1, 23520, Note_on_c, 0, 81, 55
1, 23520, Note_on_c, 0, 62, 39
1, 23531, Control_c, 0, 64, 0
1, 23640, Note_on_c, 0, 81, 0
1, 23640, Note_on_c, 0, 79, 46
1, 23760, Note_on_c, 0, 79, 0
1, 23760, Note_on_c, 0, 62, 0
1, 23760, Note_on_c, 0, 78, 50
1, 23880, Note_on_c, 0, 78, 0
1, 23880, Note_on_c, 0, 76, 46
1, 24000, Tempo, 464792
1, 24000, Note_on_c, 0, 76, 0
1, 24000, Note_on_c, 0, 74, 57
1, 24000, Note_on_c, 0, 55, 40
1, 24086, Control_c, 0, 64, 127
1, 24240, Note_on_c, 0, 55, 0
1, 24240, Note_on_c, 0, 59, 30
1, 24360, Tempo, 491441
1, 24480, Tempo, 466599
1, 24480, Note_on_c, 0, 59, 0
1, 24480, Note_on_c, 0, 74, 0
1, 24480, Note_on_c, 0, 76, 54
1, 24480, Note_on_c, 0, 62, 36
1, 24499, Control_c, 0, 64, 0
1, 24600, Note_on_c, 0, 76, 0
1, 24600, Note_on_c, 0, 74, 42
1, 24720, Note_on_c, 0, 74, 0
1, 24720, Note_on_c, 0, 62, 0
1, 24720, Note_on_c, 0, 72, 53
1, 24840, Tempo, 477745
1, 24840, Note_on_c, 0, 72, 0
1, 24840, Note_on_c, 0, 71, 50
1, 24960, Tempo, 485476
1, 24960, Note_on_c, 0, 71, 0
1, 24960, Note_on_c, 0, 69, 55
1, 24960, Note_on_c, 0, 55, 40
1, 25080, Tempo, 464792
1, 25080, Note_on_c, 0, 69, 0
1, 25140, Note_on_c, 0, 71, 42
1, 25200, Note_on_c, 0, 71, 0
1, 25200, Note_on_c, 0, 55, 0
1, 25200, Note_on_c, 0, 69, 50
1, 25200, Note_on_c, 0, 60, 32
1, 25320, Note_on_c, 0, 69, 0
1, 25320, Note_on_c, 0, 68, 47
1, 25440, Note_on_c, 0, 68, 0
1, 25440, Note_on_c, 0, 60, 0
1, 25440, Note_on_c, 0, 69, 50
1, 25440, Note_on_c, 0, 64, 38
1, 25560, Note_on_c, 0, 69, 0
1, 25680, Tempo, 473971
1, 25680, Note_on_c, 0, 64, 0
1, 25680, Note_on_c, 0, 71, 46
1, 25800, Tempo, 495499
1, 25800, Note_on_c, 0, 71, 0
1, 25920, Tempo, 483520
1, 25920, Note_on_c, 0, 72, 50
1, 25920, Note_on_c, 0, 55, 40
1, 25952, Control_c, 0, 64, 127
1, 26040, Tempo, 470256
1, 26160, Tempo, 464792
1, 26160, Note_on_c, 0, 55, 0
1, 26160, Note_on_c, 0, 72, 0
1, 26160, Note_on_c, 0, 60, 33
1, 26400, Note_on_c, 0, 60, 0
1, 26400, Note_on_c, 0, 64, 36
1, 26408, Control_c, 0, 64, 0
1, 26640, Note_on_c, 0, 64, 0
1, 26640, Note_on_c, 0, 84, 55
1, 26760, Note_on_c, 0, 84, 0
1, 26760, Note_on_c, 0, 83, 49
1, 26880, Tempo, 462999
1, 26880, Note_on_c, 0, 83, 0
1, 26880, Note_on_c, 0, 81, 55
1, 26880, Note_on_c, 0, 54, 40
1, 26895, Tempo, 454236
1, 26967, Tempo, 455962
1, 27000, Note_on_c, 0, 81, 0
1, 27000, Note_on_c, 0, 83, 53
1, 27039, Tempo, 457701
1, 27111, Tempo, 459453
1, 27120, Note_on_c, 0, 83, 0
1, 27120, Note_on_c, 0, 54, 0
1, 27120, Note_on_c, 0, 81, 55
1, 27120, Note_on_c, 0, 57, 31
1, 27183, Tempo, 461219
1, 27240, Note_on_c, 0, 81, 0
1, 27240, Note_on_c, 0, 83, 54
1, 27255, Tempo, 462999
1, 27327, Tempo, 464792
1, 27351, Tempo, 452523
1, 27360, Note_on_c, 0, 83, 0
1, 27360, Note_on_c, 0, 57, 0
1, 27360, Note_on_c, 0, 84, 62
1, 27360, Note_on_c, 0, 62, 39
1, 27423, Tempo, 454236
1, 27471, Tempo, 455962
1, 27480, Note_on_c, 0, 84, 0
1, 27480, Note_on_c, 0, 83, 54
1, 27519, Tempo, 457701
1, 27567, Tempo, 459453
1, 27600, Note_on_c, 0, 83, 0
1, 27600, Note_on_c, 0, 62, 0
1, 27600, Note_on_c, 0, 81, 55
1, 27615, Tempo, 461219
1, 27663, Tempo, 462999
1, 27720, Tempo, 493462
1, 27720, Note_on_c, 0, 81, 0
1, 27720, Note_on_c, 0, 83, 53
1, 27831, Tempo, 454236
1, 27840, Note_on_c, 0, 83, 0
1, 27840, Note_on_c, 0, 84, 62
1, 27840, Note_on_c, 0, 54, 40
1, 27960, Note_on_c, 0, 84, 0
1, 27960, Note_on_c, 0, 83, 55
1, 27975, Tempo, 455962
1, 28080, Note_on_c, 0, 83, 0
1, 28080, Note_on_c, 0, 54, 0
1, 28080, Note_on_c, 0, 81, 55
1, 28080, Note_on_c, 0, 57, 30
1, 28095, Tempo, 457701
1, 28200, Note_on_c, 0, 81, 0
1, 28200, Note_on_c, 0, 79, 54
1, 28215, Tempo, 459453
1, 28320, Note_on_c, 0, 79, 0
1, 28320, Note_on_c, 0, 57, 0
1, 28320, Note_on_c, 0, 78, 61
1, 28320, Note_on_c, 0, 62, 36
1, 28335, Tempo, 461219
1, 28440, Note_on_c, 0, 78, 0
1, 28440, Note_on_c, 0, 76, 55
1, 28479, Tempo, 462999
1, 28560, Note_on_c, 0, 76, 0
1, 28560, Note_on_c, 0, 62, 0
1, 28560, Note_on_c, 0, 74, 58
1, 28599, Tempo, 464792
1, 28680, Note_on_c, 0, 74, 0
1, 28680, Note_on_c, 0, 72, 54
1, 28719, Tempo, 466599
1, 28800, Tempo, 483520
1, 28800, Note_on_c, 0, 72, 0
1, 28800, Note_on_c, 0, 71, 55
1, 28800, Note_on_c, 0, 55, 40
1, 28903, Control_c, 0, 64, 127
1, 29040, Tempo, 461219
1, 29040, Note_on_c, 0, 55, 0
1, 29040, Note_on_c, 0, 71, 0
1, 29040, Note_on_c, 0, 59, 32
1, 29160, Tempo, 481580
1, 29247, Tempo, 470256
1, 29280, Tempo, 547495
1, 29280, Note_on_c, 0, 59, 0
1, 29280, Note_on_c, 0, 62, 38
1, 29296, Control_c, 0, 64, 0
1, 29367, Tempo, 468421
1, 29400, Tempo, 468421
1, 29400, Note_on_c, 0, 67, 47
1, 29463, Tempo, 466599
1, 29520, Note_on_c, 0, 67, 0
1, 29520, Note_on_c, 0, 62, 0
1, 29520, Note_on_c, 0, 69, 48
1, 29583, Tempo, 464792
1, 29640, Note_on_c, 0, 69, 0
1, 29640, Note_on_c, 0, 71, 50
1, 29679, Tempo, 462999
1, 29760, Note_on_c, 0, 71, 0
1, 29760, Note_on_c, 0, 72, 52
1, 29799, Tempo, 461219
1, 29880, Note_on_c, 0, 72, 0
1, 29880, Note_on_c, 0, 74, 52
1, 29895, Tempo, 459453
1, 30000, Note_on_c, 0, 74, 0
1, 30000, Note_on_c, 0, 76, 54
1, 30015, Tempo, 457701
1, 30111, Tempo, 455962
1, 30120, Note_on_c, 0, 76, 0
1, 30120, Note_on_c, 0, 78, 55
1, 30159, Tempo, 454236
1, 30240, Note_on_c, 0, 78, 0
1, 30240, Note_on_c, 0, 79, 56
1, 30303, Tempo, 452523
1, 30327, Tempo, 454236
1, 30360, Tempo, 489436
1, 30360, Note_on_c, 0, 79, 0
1, 30360, Note_on_c, 0, 81, 55
1, 30432, Tempo, 478507
1, 30448, Tempo, 480423
1, 30464, Tempo, 482354
1, 30480, Tempo, 484301
1, 30480, Note_on_c, 0, 81, 0
1, 30480, Note_on_c, 0, 83, 61
1, 30496, Tempo, 486263
1, 30512, Tempo, 488242
1, 30528, Tempo, 490236
1, 30544, Tempo, 492247
1, 30560, Tempo, 494275
1, 30576, Tempo, 496319
1, 30592, Tempo, 498380
1, 30600, Note_on_c, 0, 83, 0
1, 30600, Note_on_c, 0, 81, 57
1, 30608, Tempo, 500459
1, 30624, Tempo, 502555
1, 30640, Tempo, 504668
1, 30656, Tempo, 506800
1, 30672, Tempo, 508949
1, 30688, Tempo, 511117
1, 30704, Tempo, 515508
1, 30720, Tempo, 461219
1, 30720, Note_on_c, 0, 81, 0
1, 30720, Note_on_c, 0, 79, 61
1, 30720, Note_on_c, 0, 52, 40
1, 30795, Control_c, 0, 64, 127
1, 30960, Note_on_c, 0, 52, 0
1, 30960, Note_on_c, 0, 79, 0
1, 30960, Note_on_c, 0, 55, 32
1, 31200, Tempo, 530551
1, 31200, Note_on_c, 0, 55, 0
1, 31200, Note_on_c, 0, 59, 38
1, 31220, Control_c, 0, 64, 0
1, 31310, Tempo, 473971
1, 31320, Note_on_c, 0, 67, 48
1, 31368, Tempo, 472106
1, 31406, Tempo, 470256
1, 31440, Note_on_c, 0, 67, 0
1, 31440, Note_on_c, 0, 59, 0
1, 31440, Note_on_c, 0, 69, 49
1, 31445, Tempo, 468421
1, 31483, Tempo, 466599
1, 31522, Tempo, 464792
1, 31560, Note_on_c, 0, 69, 0
1, 31560, Note_on_c, 0, 71, 52
1, 31579, Tempo, 462999
1, 31618, Tempo, 461219
1, 31656, Tempo, 459453
1, 31680, Note_on_c, 0, 71, 0
1, 31680, Note_on_c, 0, 72, 53
1, 31694, Tempo, 457701
1, 31733, Tempo, 455962
1, 31771, Tempo, 454236
1, 31800, Note_on_c, 0, 72, 0
1, 31800, Note_on_c, 0, 74, 56
1, 31920, Note_on_c, 0, 74, 0
1, 31920, Note_on_c, 0, 76, 56
1, 32040, Note_on_c, 0, 76, 0
1, 32040, Note_on_c, 0, 78, 57
1, 32160, Tempo, 459453
1, 32160, Note_on_c, 0, 78, 0
1, 32160, Note_on_c, 0, 79, 58
1, 32190, Tempo, 461219
1, 32205, Tempo, 462999
1, 32235, Tempo, 464792
1, 32250, Tempo, 466599
1, 32280, Tempo, 468421
1, 32280, Note_on_c, 0, 79, 0
1, 32280, Note_on_c, 0, 81, 61
1, 32295, Tempo, 470256
1, 32325, Tempo, 472106
1, 32340, Tempo, 473971
1, 32370, Tempo, 475851
1, 32385, Tempo, 477745
1, 32400, Note_on_c, 0, 81, 0
1, 32400, Note_on_c, 0, 83, 64
1, 32415, Tempo, 479655
1, 32430, Tempo, 481580
1, 32460, Tempo, 483520
1, 32475, Tempo, 485476
1, 32505, Tempo, 487448
1, 32520, Tempo, 489436
1, 32520, Note_on_c, 0, 83, 0
1, 32520, Note_on_c, 0, 84, 70
1, 32550, Tempo, 491441
1, 32565, Tempo, 493462
1, 32595, Tempo, 495499
1, 32610, Tempo, 497554
1, 32640, Tempo, 472106
1, 32640, Note_on_c, 0, 84, 0
1, 32640, Note_on_c, 0, 86, 77
1, 32640, Note_on_c, 0, 47, 54
1, 32760, Note_on_c, 0, 86, 0
1, 32880, Tempo, 485476
1, 32880, Note_on_c, 0, 47, 0
1, 32880, Note_on_c, 0, 86, 70
1, 32880, Note_on_c, 0, 55, 40
1, 33000, Note_on_c, 0, 86, 0
1, 33120, Tempo, 472106
1, 33120, Note_on_c, 0, 55, 0
1, 33120, Note_on_c, 0, 84, 70
1, 33120, Note_on_c, 0, 47, 45
1, 33240, Note_on_c, 0, 84, 0
1, 33240, Note_on_c, 0, 83, 63
1, 33360, Note_on_c, 0, 83, 0
1, 33360, Note_on_c, 0, 47, 0
1, 33360, Note_on_c, 0, 81, 63
1, 33360, Note_on_c, 0, 55, 40
1, 33480, Note_on_c, 0, 81, 0
1, 33480, Note_on_c, 0, 83, 63
1, 33600, Note_on_c, 0, 83, 0
1, 33600, Note_on_c, 0, 55, 0
1, 33600, Note_on_c, 0, 79, 70
1, 33600, Note_on_c, 0, 47, 53
1, 33720, Note_on_c, 0, 79, 0
1, 33840, Tempo, 485476
1, 33840, Note_on_c, 0, 47, 0
1, 33840, Note_on_c, 0, 79, 63
1, 33840, Note_on_c, 0, 55, 40
1, 33960, Note_on_c, 0, 79, 0
1, 34080, Tempo, 472106
1, 34080, Note_on_c, 0, 55, 0
1, 34080, Note_on_c, 0, 75, 70
1, 34080, Note_on_c, 0, 47, 48
1, 34200, Note_on_c, 0, 75, 0
1, 34320, Note_on_c, 0, 47, 0
1, 34320, Note_on_c, 0, 75, 59
1, 34320, Note_on_c, 0, 55, 40
1, 34440, Note_on_c, 0, 75, 0
1, 34560, Tempo, 470256
1, 34560, Note_on_c, 0, 55, 0
1, 34560, Note_on_c, 0, 76, 68
1, 34560, Note_on_c, 0, 48, 54
1, 34680, Note_on_c, 0, 76, 0
1, 34800, Note_on_c, 0, 48, 0
1, 34800, Note_on_c, 0, 76, 62
1, 34800, Note_on_c, 0, 55, 40
1, 34920, Note_on_c, 0, 76, 0
1, 35040, Note_on_c, 0, 55, 0
1, 35040, Note_on_c, 0, 74, 64
1, 35040, Note_on_c, 0, 48, 45
1, 35160, Note_on_c, 0, 74, 0
1, 35160, Note_on_c, 0, 72, 57
1, 35280, Note_on_c, 0, 72, 0
1, 35280, Note_on_c, 0, 48, 0
1, 35280, Note_on_c, 0, 71, 57
1, 35280, Note_on_c, 0, 55, 40
1, 35400, Note_on_c, 0, 71, 0
1, 35400, Note_on_c, 0, 72, 58
1, 35520, Note_on_c, 0, 72, 0
1, 35520, Note_on_c, 0, 55, 0
1, 35520, Note_on_c, 0, 69, 65
1, 35520, Note_on_c, 0, 48, 53
1, 35640, Note_on_c, 0, 69, 0
1, 35760, Tempo, 483520
1, 35760, Note_on_c, 0, 48, 0
1, 35760, Note_on_c, 0, 69, 54
1, 35760, Note_on_c, 0, 55, 40
1, 35880, Note_on_c, 0, 69, 0
1, 36000, Tempo, 468421
1, 36000, Note_on_c, 0, 55, 0
1, 36000, Note_on_c, 0, 64, 57
1, 36000, Note_on_c, 0, 48, 48
1, 36120, Note_on_c, 0, 64, 0
1, 36240, Note_on_c, 0, 48, 0
1, 36240, Note_on_c, 0, 64, 52
1, 36240, Note_on_c, 0, 55, 40
1, 36360, Note_on_c, 0, 64, 0
1, 36480, Note_on_c, 0, 55, 0
1, 36480, Note_on_c, 0, 62, 63
1, 36480, Note_on_c, 0, 50, 54
1, 36600, Note_on_c, 0, 62, 0
1, 36720, Note_on_c, 0, 50, 0
1, 36720, Note_on_c, 0, 62, 58
1, 36720, Note_on_c, 0, 55, 40
1, 36840, Note_on_c, 0, 62, 0
1, 36960, Note_on_c, 0, 55, 0
1, 36960, Note_on_c, 0, 74, 63
1, 36960, Note_on_c, 0, 50, 45
1, 37080, Note_on_c, 0, 74, 0
1, 37080, Note_on_c, 0, 71, 56
1, 37200, Tempo, 489436
1, 37200, Note_on_c, 0, 71, 0
1, 37200, Note_on_c, 0, 50, 0
1, 37200, Note_on_c, 0, 69, 58
1, 37200, Note_on_c, 0, 55, 40
1, 37320, Note_on_c, 0, 69, 0
1, 37320, Note_on_c, 0, 67, 56
1, 37435, Tempo, 487448
1, 37440, Note_on_c, 0, 67, 0
1, 37440, Note_on_c, 0, 55, 0
1, 37440, Note_on_c, 0, 69, 47
1, 37440, Note_on_c, 0, 50, 53
1, 37495, Tempo, 485476
1, 37520, Note_on_c, 0, 69, 0
1, 37520, Note_on_c, 0, 71, 43
1, 37525, Tempo, 483520
1, 37536, Control_c, 0, 64, 127
1, 37555, Tempo, 481580
1, 37585, Tempo, 479655
1, 37600, Note_on_c, 0, 71, 0
1, 37600, Note_on_c, 0, 69, 50
1, 37615, Tempo, 477745
1, 37645, Tempo, 475851
1, 37675, Tempo, 473971
1, 37680, Note_on_c, 0, 69, 0
1, 37680, Note_on_c, 0, 50, 0
1, 37680, Note_on_c, 0, 71, 46
1, 37680, Note_on_c, 0, 54, 40
1, 37705, Tempo, 472106
1, 37735, Tempo, 470256
1, 37760, Note_on_c, 0, 71, 0
1, 37760, Note_on_c, 0, 69, 54
1, 37765, Tempo, 468421
1, 37840, Note_on_c, 0, 69, 0
1, 37840, Note_on_c, 0, 71, 53
1, 37920, Note_on_c, 0, 71, 0
1, 37920, Note_on_c, 0, 54, 0
1, 37920, Note_on_c, 0, 69, 57
1, 37920, Note_on_c, 0, 50, 48
1, 38000, Note_on_c, 0, 69, 0
1, 38000, Note_on_c, 0, 71, 53
1, 38065, Tempo, 468421
1, 38080, Note_on_c, 0, 71, 0
1, 38080, Note_on_c, 0, 69, 56
1, 38095, Tempo, 470256
1, 38125, Tempo, 472106
1, 38155, Tempo, 473971
1, 38160, Note_on_c, 0, 69, 0
1, 38160, Note_on_c, 0, 50, 0
1, 38160, Note_on_c, 0, 71, 51
1, 38160, Note_on_c, 0, 54, 33
1, 38185, Tempo, 475851
1, 38215, Tempo, 477745
1, 38220, Note_on_c, 0, 71, 0
1, 38220, Note_on_c, 0, 69, 56
1, 38245, Tempo, 479655
1, 38275, Tempo, 481580
1, 38280, Note_on_c, 0, 69, 0
1, 38280, Note_on_c, 0, 67, 49
1, 38305, Tempo, 483520
1, 38335, Tempo, 485476
1, 38340, Note_on_c, 0, 67, 0
1, 38340, Note_on_c, 0, 69, 49
1, 38400, Tempo, 506800
1, 38400, Note_on_c, 0, 69, 0
1, 38400, Note_on_c, 0, 54, 0
1, 38400, Note_on_c, 0, 47, 40
1, 38450, Control_c, 0, 64, 0
1, 38640, Note_on_c, 0, 47, 0
1, 38640, Note_on_c, 0, 86, 54
1, 38640, Note_on_c, 0, 55, 22
1, 38760, Tempo, 472106
1, 38760, Note_on_c, 0, 86, 0
1, 38880, Note_on_c, 0, 55, 0
1, 38880, Note_on_c, 0, 47, 26
1, 39120, Note_on_c, 0, 47, 0
1, 39120, Note_on_c, 0, 83, 45
1, 39120, Note_on_c, 0, 55, 21
1, 39240, Note_on_c, 0, 83, 0
1, 39360, Tempo, 475851
1, 39360, Note_on_c, 0, 55, 0
1, 39360, Note_on_c, 0, 47, 33
1, 39600, Note_on_c, 0, 47, 0
1, 39600, Note_on_c, 0, 79, 57
1, 39600, Note_on_c, 0, 55, 31
1, 39720, Note_on_c, 0, 79, 0
1, 39840, Tempo, 487448
1, 39840, Note_on_c, 0, 55, 0
1, 39840, Note_on_c, 0, 47, 39
1, 40080, Tempo, 521331
1, 40080, Note_on_c, 0, 47, 0
1, 40080, Note_on_c, 0, 75, 63
1, 40080, Note_on_c, 0, 55, 35
1, 40200, Note_on_c, 0, 75, 0
1, 40320, Tempo, 475851
1, 40320, Note_on_c, 0, 55, 0
1, 40320, Note_on_c, 0, 48, 49
1, 40560, Note_on_c, 0, 48, 0
1, 40560, Note_on_c, 0, 76, 56
1, 40560, Note_on_c, 0, 55, 41
1, 40680, Note_on_c, 0, 76, 0
1, 40680, Note_on_c, 0, 75, 50
1, 40800, Note_on_c, 0, 75, 0
1, 40800, Note_on_c, 0, 55, 0
1, 40800, Note_on_c, 0, 76, 57
1, 40800, Note_on_c, 0, 48, 49
1, 40868, Tempo, 479655
1, 40920, Note_on_c, 0, 76, 0
1, 40920, Note_on_c, 0, 78, 60
1, 41018, Tempo, 477745
1, 41040, Note_on_c, 0, 78, 0
1, 41040, Note_on_c, 0, 48, 0
1, 41040, Note_on_c, 0, 79, 61
1, 41040, Note_on_c, 0, 55, 39
1, 41138, Tempo, 475851
1, 41160, Note_on_c, 0, 79, 0
1, 41160, Note_on_c, 0, 78, 55
1, 41258, Tempo, 473971
1, 41280, Note_on_c, 0, 78, 0
1, 41280, Note_on_c, 0, 55, 0
1, 41280, Note_on_c, 0, 76, 61
1, 41280, Note_on_c, 0, 48, 49
1, 41378, Tempo, 472106
1, 41400, Note_on_c, 0, 76, 0
1, 41400, Note_on_c, 0, 74, 53
1, 41520, Note_on_c, 0, 74, 0
1, 41520, Note_on_c, 0, 48, 0
1, 41520, Note_on_c, 0, 72, 56
1, 41520, Note_on_c, 0, 55, 39
1, 41558, Tempo, 473971
1, 41640, Note_on_c, 0, 72, 0
1, 41640, Note_on_c, 0, 71, 51
1, 41708, Tempo, 475851
1, 41760, Note_on_c, 0, 71, 0
1, 41760, Note_on_c, 0, 55, 0
1, 41760, Note_on_c, 0, 69, 56
1, 41760, Note_on_c, 0, 48, 49
1, 41858, Tempo, 477745
1, 41880, Note_on_c, 0, 69, 0
1, 41880, Note_on_c, 0, 67, 60
1, 42000, Note_on_c, 0, 67, 0
1, 42000, Note_on_c, 0, 48, 0
1, 42000, Note_on_c, 0, 66, 63
1, 42000, Note_on_c, 0, 55, 40
1, 42008, Tempo, 479655
1, 42120, Tempo, 510247
1, 42120, Note_on_c, 0, 66, 0
1, 42120, Note_on_c, 0, 64, 65
1, 42240, Tempo, 475851
1, 42240, Note_on_c, 0, 64, 0
1, 42240, Note_on_c, 0, 55, 0
1, 42240, Note_on_c, 0, 62, 72
1, 42240, Note_on_c, 0, 50, 49
1, 42248, Tempo, 487448
1, 42338, Tempo, 485476
1, 42360, Note_on_c, 0, 62, 0
1, 42360, Note_on_c, 0, 67, 56
1, 42428, Tempo, 483520
1, 42480, Note_on_c, 0, 67, 0
1, 42480, Note_on_c, 0, 50, 0
1, 42480, Note_on_c, 0, 71, 56
1, 42480, Note_on_c, 0, 55, 41
1, 42488, Tempo, 481580
1, 42578, Tempo, 479655
1, 42600, Note_on_c, 0, 71, 0
1, 42600, Note_on_c, 0, 74, 56
1, 42638, Tempo, 477745
1, 42720, Note_on_c, 0, 74, 0
1, 42720, Note_on_c, 0, 55, 0
1, 42720, Note_on_c, 0, 72, 59
1, 42720, Note_on_c, 0, 50, 49
1, 42728, Tempo, 475851
1, 42788, Tempo, 473971
1, 42840, Note_on_c, 0, 72, 0
1, 42840, Note_on_c, 0, 71, 50
1, 42960, Note_on_c, 0, 71, 0
1, 42960, Note_on_c, 0, 50, 0
1, 42960, Note_on_c, 0, 69, 50
1, 42960, Note_on_c, 0, 55, 39
1, 43080, Note_on_c, 0, 69, 0
1, 43080, Note_on_c, 0, 67, 50
1, 43200, Tempo, 487448
1, 43200, Note_on_c, 0, 67, 0
1, 43200, Note_on_c, 0, 55, 0
1, 43200, Note_on_c, 0, 69, 51
1, 43200, Note_on_c, 0, 50, 53
1, 43255, Tempo, 485476
1, 43280, Note_on_c, 0, 69, 0
1, 43280, Note_on_c, 0, 71, 47
1, 43285, Tempo, 483520
1, 43296, Control_c, 0, 64, 127
1, 43315, Tempo, 481580
1, 43345, Tempo, 479655
1, 43360, Note_on_c, 0, 71, 0
1, 43360, Note_on_c, 0, 69, 55
1, 43375, Tempo, 477745
1, 43405, Tempo, 475851
1, 43435, Tempo, 473971
1, 43440, Note_on_c, 0, 69, 0
1, 43440, Note_on_c, 0, 50, 0
1, 43440, Note_on_c, 0, 71, 50
1, 43440, Note_on_c, 0, 54, 40
1, 43465, Tempo, 472106
1, 43495, Tempo, 470256
1, 43520, Note_on_c, 0, 71, 0
1, 43520, Note_on_c, 0, 69, 59
1, 43525, Tempo, 468421
1, 43600, Note_on_c, 0, 69, 0
1, 43600, Note_on_c, 0, 71, 58
1, 43680, Note_on_c, 0, 71, 0
1, 43680, Note_on_c, 0, 54, 0
1, 43680, Note_on_c, 0, 69, 62
1, 43680, Note_on_c, 0, 50, 48
1, 43760, Note_on_c, 0, 69, 0
1, 43760, Note_on_c, 0, 71, 58
1, 43825, Tempo, 468421
1, 43840, Note_on_c, 0, 71, 0
1, 43840, Note_on_c, 0, 69, 61
1, 43855, Tempo, 470256
1, 43885, Tempo, 472106
1, 43915, Tempo, 473971
1, 43920, Note_on_c, 0, 69, 0
1, 43920, Note_on_c, 0, 50, 0
1, 43920, Note_on_c, 0, 71, 56
1, 43920, Note_on_c, 0, 54, 33
1, 43945, Tempo, 475851
1, 43975, Tempo, 477745
1, 43980, Note_on_c, 0, 71, 0
1, 43980, Note_on_c, 0, 69, 61
1, 44005, Tempo, 479655
1, 44035, Tempo, 481580
1, 44040, Note_on_c, 0, 69, 0
1, 44040, Note_on_c, 0, 67, 53
1, 44065, Tempo, 483520
1, 44095, Tempo, 485476
1, 44100, Note_on_c, 0, 67, 0
1, 44100, Note_on_c, 0, 69, 53
1, 44160, Note_on_c, 0, 69, 0
1, 44160, Note_on_c, 0, 54, 0
1, 44160, Note_on_c, 0, 67, 68
1, 44160, Note_on_c, 0, 43, 58
1, 44160, Control_c, 0, 64, 0
1, 44280, Note_on_c, 0, 43, 0
1, 44400, Note_on_c, 0, 67, 0
1, 44400, Note_on_c, 0, 55, 55
1, 44520, Note_on_c, 0, 55, 0
1, 44654, Note_on_c, 0, 62, 67
1, 44774, Note_on_c, 0, 62, 0
1, 44880, Note_on_c, 0, 62, 62
1, 45000, Note_on_c, 0, 62, 0
1, 45120, Tempo, 461219
1, 45120, Note_on_c, 0, 59, 57
1, 45120, Note_on_c, 0, 67, 68
1, 45120, Note_on_c, 0, 43, 58
1, 45240, Note_on_c, 0, 43, 0
1, 45240, Note_on_c, 0, 67, 0
1, 45240, Note_on_c, 0, 59, 0
1, 45360, Tempo, 483520
1, 45360, Note_on_c, 0, 55, 52
1, 45480, Note_on_c, 0, 55, 0
1, 45600, Note_on_c, 0, 62, 64
1, 45720, Note_on_c, 0, 62, 0
1, 45840, Note_on_c, 0, 62, 68
1, 45960, Note_on_c, 0, 62, 0
1, 46080, Tempo, 461219
1, 46080, Note_on_c, 0, 60, 57
1, 46080, Note_on_c, 0, 69, 68
1, 46080, Note_on_c, 0, 43, 58
1, 46200, Note_on_c, 0, 43, 0
1, 46200, Note_on_c, 0, 69, 0
1, 46200, Note_on_c, 0, 60, 0
1, 46320, Tempo, 502555
1, 46320, Note_on_c, 0, 55, 52
1, 46440, Note_on_c, 0, 55, 0
1, 46560, Tempo, 482354
1, 46560, Note_on_c, 0, 62, 42
1, 46680, Note_on_c, 0, 62, 0
1, 46800, Note_on_c, 0, 62, 33
1, 46920, Note_on_c, 0, 62, 0
1, 47040, Tempo, 462999
1, 47040, Note_on_c, 0, 57, 35
1, 47040, Note_on_c, 0, 66, 42
1, 47040, Note_on_c, 0, 43, 34
1, 47160, Note_on_c, 0, 43, 0
1, 47160, Note_on_c, 0, 66, 0
1, 47160, Note_on_c, 0, 57, 0
1, 47280, Tempo, 481580
1, 47280, Note_on_c, 0, 55, 26
1, 47400, Note_on_c, 0, 55, 0
1, 47520, Tempo, 503821
1, 47520, Note_on_c, 0, 62, 60
1, 47640, Note_on_c, 0, 62, 0
1, 47760, Tempo, 537683
1, 47760, Note_on_c, 0, 62, 69
1, 47880, Note_on_c, 0, 62, 0
1, 48000, Tempo, 516840
1, 48000, Note_on_c, 0, 67, 74
1, 48000, Note_on_c, 0, 59, 62
1, 48000, Note_on_c, 0, 43, 58
1, 48085, Control_c, 0, 64, 127
1, 48120, Tempo, 519076
1, 48240, Note_on_c, 0, 43, 0
1, 48240, Note_on_c, 0, 55, 48
1, 48480, Tempo, 599460
1, 48480, Note_on_c, 0, 55, 0
1, 48480, Note_on_c, 0, 59, 0
1, 48480, Note_on_c, 0, 67, 0
1, 48480, Note_on_c, 0, 67, 62
1, 48480, Note_on_c, 0, 59, 52
1, 48480, Note_on_c, 0, 50, 58
1, 48720, Tempo, 673476
1, 48720, Note_on_c, 0, 50, 0
1, 48720, Note_on_c, 0, 47, 49
1, 48960, Tempo, 621182
1, 48960, Note_on_c, 0, 47, 0
1, 48960, Note_on_c, 0, 59, 0
1, 48960, Note_on_c, 0, 67, 0
1, 48960, Note_on_c, 0, 59, 57
1, 48960, Note_on_c, 0, 67, 68
1, 48960, Note_on_c, 0, 43, 58
1, 49080, Tempo, 617983
1, 49341, Control_c, 0, 64, 0
1, 49440, Note_on_c, 0, 43, 0
1, 49440, Note_on_c, 0, 67, 0
1, 49440, Note_on_c, 0, 59, 0
1, 49920, Tempo, 475851
1, 49920, Marker_t, "Teil 1 - Wiederholung"
1, 49920, Note_on_c, 0, 79, 70
1, 49920, Note_on_c, 0, 64, 40
1, 49948, Control_c, 0, 64, 127
1, 50160, Note_on_c, 0, 64, 0
1, 50160, Note_on_c, 0, 60, 32
1, 50400, Note_on_c, 0, 60, 0
1, 50400, Note_on_c, 0, 64, 35
1, 50640, Tempo, 510247
1, 50640, Note_on_c, 0, 64, 0
1, 50640, Note_on_c, 0, 79, 0
1, 50640, Note_on_c, 0, 76, 65
1, 50640, Note_on_c, 0, 60, 32
1, 50880, Tempo, 472106
1, 50880, Note_on_c, 0, 60, 0
1, 50880, Note_on_c, 0, 76, 0
1, 50880, Note_on_c, 0, 72, 70
1, 50880, Note_on_c, 0, 64, 40
1, 50893, Control_c, 0, 64, 0
1, 51120, Note_on_c, 0, 64, 0
1, 51120, Note_on_c, 0, 72, 0
1, 51120, Note_on_c, 0, 67, 65
1, 51120, Note_on_c, 0, 60, 29
1, 51240, Note_on_c, 0, 67, 0
1, 51360, Note_on_c, 0, 60, 0
1, 51360, Note_on_c, 0, 67, 65
1, 51360, Note_on_c, 0, 64, 37
1, 51480, Note_on_c, 0, 67, 0
1, 51600, Tempo, 508087
1, 51600, Note_on_c, 0, 64, 0
1, 51600, Note_on_c, 0, 67, 65
1, 51600, Note_on_c, 0, 60, 32
1, 51720, Note_on_c, 0, 67, 0
1, 51840, Tempo, 472106
1, 51840, Note_on_c, 0, 60, 0
1, 51840, Note_on_c, 0, 79, 70
1, 51840, Note_on_c, 0, 64, 40
1, 51932, Control_c, 0, 64, 127
1, 52080, Note_on_c, 0, 64, 0
1, 52080, Note_on_c, 0, 60, 32
1, 52320, Note_on_c, 0, 60, 0
1, 52320, Note_on_c, 0, 64, 35
1, 52560, Tempo, 491441
1, 52560, Note_on_c, 0, 64, 0
1, 52560, Note_on_c, 0, 79, 0
1, 52560, Note_on_c, 0, 76, 59
1, 52560, Note_on_c, 0, 60, 32
1, 52776, Tempo, 475851
1, 52800, Note_on_c, 0, 60, 0
1, 52800, Note_on_c, 0, 76, 0
1, 52800, Note_on_c, 0, 72, 63
1, 52800, Note_on_c, 0, 64, 40
1, 52815, Control_c, 0, 64, 0
1, 52872, Tempo, 473971
1, 52920, Note_on_c, 0, 72, 0
1, 52920, Note_on_c, 0, 74, 61
1, 52944, Tempo, 472106
1, 53016, Tempo, 470256
1, 53040, Note_on_c, 0, 74, 0
1, 53040, Note_on_c, 0, 64, 0
1, 53040, Note_on_c, 0, 76, 62
1, 53040, Note_on_c, 0, 60, 29
1, 53088, Tempo, 468421
1, 53160, Tempo, 466599
1, 53160, Note_on_c, 0, 76, 0
1, 53160, Note_on_c, 0, 77, 63
1, 53232, Tempo, 468421
1, 53280, Tempo, 470256
1, 53280, Note_on_c, 0, 77, 0
1, 53280, Note_on_c, 0, 60, 0
1, 53280, Note_on_c, 0, 79, 64
1, 53280, Note_on_c, 0, 64, 37
1, 53328, Tempo, 472106
1, 53400, Tempo, 473971
1, 53400, Note_on_c, 0, 79, 0
1, 53400, Note_on_c, 0, 81, 65
1, 53448, Tempo, 475851
1, 53496, Tempo, 477745
1, 53520, Note_on_c, 0, 81, 0
1, 53520, Note_on_c, 0, 64, 0
1, 53520, Note_on_c, 0, 83, 67
1, 53520, Note_on_c, 0, 60, 32
1, 53568, Tempo, 479655
1, 53616, Tempo, 481580
1, 53640, Note_on_c, 0, 83, 0
1, 53640, Note_on_c, 0, 84, 70
1, 53664, Tempo, 483520
1, 53712, Tempo, 485476
1, 53760, Tempo, 470256
1, 53760, Note_on_c, 0, 84, 0
1, 53760, Note_on_c, 0, 60, 0
1, 53760, Note_on_c, 0, 83, 76
1, 53760, Note_on_c, 0, 65, 40
1, 54000, Note_on_c, 0, 65, 0
1, 54000, Note_on_c, 0, 83, 0
1, 54000, Note_on_c, 0, 81, 65
1, 54000, Note_on_c, 0, 60, 32
1, 54120, Note_on_c, 0, 81, 0
1, 54240, Note_on_c, 0, 60, 0
1, 54240, Note_on_c, 0, 81, 70
1, 54240, Note_on_c, 0, 65, 35
1, 54360, Note_on_c, 0, 81, 0
1, 54480, Tempo, 489436
1, 54480, Note_on_c, 0, 65, 0
1, 54480, Note_on_c, 0, 81, 68
1, 54480, Note_on_c, 0, 60, 32
1, 54600, Note_on_c, 0, 81, 0
1, 54720, Tempo, 468421
1, 54720, Note_on_c, 0, 60, 0
1, 54720, Note_on_c, 0, 83, 70
1, 54720, Note_on_c, 0, 65, 40
1, 54840, Note_on_c, 0, 83, 0
1, 54840, Note_on_c, 0, 81, 64
1, 54960, Note_on_c, 0, 81, 0
1, 54960, Note_on_c, 0, 65, 0
1, 54960, Note_on_c, 0, 80, 70
1, 54960, Note_on_c, 0, 60, 29
1, 55080, Note_on_c, 0, 80, 0
1, 55080, Note_on_c, 0, 81, 65
1, 55200, Note_on_c, 0, 81, 0
1, 55200, Note_on_c, 0, 60, 0
1, 55200, Note_on_c, 0, 84, 70
1, 55200, Note_on_c, 0, 65, 37
1, 55380, Note_on_c, 0, 84, 0
1, 55440, Tempo, 505945
1, 55440, Note_on_c, 0, 65, 0
1, 55440, Note_on_c, 0, 81, 63
1, 55440, Note_on_c, 0, 60, 32
1, 55620, Note_on_c, 0, 81, 0
1, 55680, Tempo, 481580
1, 55680, Note_on_c, 0, 60, 0
1, 55680, Note_on_c, 0, 78, 73
1, 55680, Note_on_c, 0, 64, 40
1, 55920, Note_on_c, 0, 64, 0
1, 55920, Note_on_c, 0, 78, 0
1, 55920, Note_on_c, 0, 79, 65
1, 55920, Note_on_c, 0, 60, 32
1, 56040, Note_on_c, 0, 79, 0
1, 56160, Note_on_c, 0, 60, 0
1, 56160, Note_on_c, 0, 79, 70
1, 56160, Note_on_c, 0, 64, 35
1, 56280, Note_on_c, 0, 79, 0
1, 56400, Note_on_c, 0, 64, 0
1, 56400, Note_on_c, 0, 79, 64
1, 56400, Note_on_c, 0, 60, 32
1, 56520, Note_on_c, 0, 79, 0
1, 56640, Tempo, 475851
1, 56640, Note_on_c, 0, 60, 0
1, 56640, Note_on_c, 0, 79, 71
1, 56640, Note_on_c, 0, 64, 38
1, 56697, Control_c, 0, 64, 127
1, 56880, Tempo, 462999
1, 56880, Note_on_c, 0, 64, 0
1, 56880, Note_on_c, 0, 60, 29
1, 57120, Note_on_c, 0, 60, 0
1, 57120, Note_on_c, 0, 79, 0
1, 57120, Note_on_c, 0, 64, 37
1, 57127, Control_c, 0, 64, 0
1, 57360, Tempo, 487448
1, 57360, Note_on_c, 0, 64, 0
1, 57360, Note_on_c, 0, 60, 30
1, 57600, Tempo, 468421
1, 57600, Note_on_c, 0, 60, 0
1, 57600, Note_on_c, 0, 74, 42
1, 57600, Note_on_c, 0, 77, 50
1, 57600, Note_on_c, 0, 67, 35
1, 57720, Note_on_c, 0, 77, 0
1, 57720, Note_on_c, 0, 74, 0
1, 57840, Note_on_c, 0, 77, 46
1, 57840, Note_on_c, 0, 74, 39
1, 57960, Note_on_c, 0, 74, 0
1, 57960, Note_on_c, 0, 77, 0
1, 58080, Tempo, 475851
1, 58080, Note_on_c, 0, 67, 0
1, 58080, Note_on_c, 0, 72, 42
1, 58080, Note_on_c, 0, 76, 50
1, 58200, Note_on_c, 0, 76, 0
1, 58200, Note_on_c, 0, 72, 0
1, 58320, Tempo, 495499
1, 58320, Note_on_c, 0, 76, 41
1, 58320, Note_on_c, 0, 72, 34
1, 58440, Note_on_c, 0, 72, 0
1, 58440, Note_on_c, 0, 76, 0
1, 58560, Tempo, 470256
1, 58560, Note_on_c, 0, 71, 42
1, 58560, Note_on_c, 0, 74, 50
1, 58560, Note_on_c, 0, 67, 45
1, 58680, Note_on_c, 0, 67, 0
1, 58800, Note_on_c, 0, 67, 40
1, 58920, Note_on_c, 0, 67, 0
1, 59040, Tempo, 475851
1, 59040, Note_on_c, 0, 74, 0
1, 59040, Note_on_c, 0, 71, 0
1, 59040, Note_on_c, 0, 65, 45
1, 59160, Note_on_c, 0, 65, 0
1, 59280, Tempo, 491441
1, 59280, Note_on_c, 0, 65, 38
1, 59400, Note_on_c, 0, 65, 0
1, 59520, Tempo, 468421
1, 59520, Note_on_c, 0, 76, 42
1, 59520, Note_on_c, 0, 79, 50
1, 59520, Note_on_c, 0, 64, 35
1, 59640, Note_on_c, 0, 79, 0
1, 59640, Note_on_c, 0, 76, 0
1, 59760, Note_on_c, 0, 79, 46
1, 59760, Note_on_c, 0, 76, 39
1, 59880, Note_on_c, 0, 76, 0
1, 59880, Note_on_c, 0, 79, 0
1, 60000, Tempo, 475851
1, 60000, Note_on_c, 0, 64, 0
1, 60000, Note_on_c, 0, 74, 42
1, 60000, Note_on_c, 0, 77, 50
1, 60120, Note_on_c, 0, 77, 0
1, 60120, Note_on_c, 0, 74, 0
1, 60240, Tempo, 495499
1, 60240, Note_on_c, 0, 77, 41
1, 60240, Note_on_c, 0, 74, 34
1, 60360, Note_on_c, 0, 74, 0
1, 60360, Note_on_c, 0, 77, 0
1, 60480, Tempo, 470256
1, 60480, Note_on_c, 0, 72, 42
1, 60480, Note_on_c, 0, 76, 50
1, 60480, Note_on_c, 0, 69, 45
1, 60600, Note_on_c, 0, 69, 0
1, 60720, Note_on_c, 0, 69, 40
1, 60840, Note_on_c, 0, 69, 0
1, 60960, Tempo, 475851
1, 60960, Note_on_c, 0, 76, 0
1, 60960, Note_on_c, 0, 72, 0
1, 60960, Note_on_c, 0, 67, 45
1, 61080, Note_on_c, 0, 67, 0
1, 61200, Tempo, 491441
1, 61200, Note_on_c, 0, 67, 38
1, 61320, Note_on_c, 0, 67, 0
1, 61440, Tempo, 462999
1, 61440, Note_on_c, 0, 81, 58
1, 61440, Note_on_c, 0, 65, 45
1, 61560, Note_on_c, 0, 65, 0
1, 61560, Note_on_c, 0, 81, 0
1, 61560, Note_on_c, 0, 77, 43
1, 61680, Note_on_c, 0, 77, 0
1, 61680, Note_on_c, 0, 76, 43
1, 61800, Note_on_c, 0, 76, 0
1, 61800, Note_on_c, 0, 74, 43
1, 61920, Note_on_c, 0, 74, 0
1, 61920, Note_on_c, 0, 81, 50
1, 62040, Note_on_c, 0, 81, 0
1, 62040, Note_on_c, 0, 77, 43
1, 62160, Note_on_c, 0, 77, 0
1, 62160, Note_on_c, 0, 76, 43
1, 62160, Note_on_c, 0, 65, 39
1, 62280, Tempo, 512426
1, 62280, Note_on_c, 0, 65, 0
1, 62280, Note_on_c, 0, 76, 0
1, 62280, Note_on_c, 0, 74, 43
1, 62400, Tempo, 485476
1, 62400, Note_on_c, 0, 74, 0
1, 62400, Note_on_c, 0, 76, 58
1, 62400, Note_on_c, 0, 67, 45
1, 62520, Tempo, 472106
1, 62520, Note_on_c, 0, 67, 0
1, 62520, Note_on_c, 0, 76, 0
1, 62520, Note_on_c, 0, 79, 42
1, 62640, Note_on_c, 0, 79, 0
1, 62640, Note_on_c, 0, 76, 42
1, 62760, Note_on_c, 0, 76, 0
1, 62760, Note_on_c, 0, 72, 42
1, 62880, Note_on_c, 0, 72, 0
1, 62880, Note_on_c, 0, 74, 54
1, 62880, Note_on_c, 0, 55, 40
1, 63000, Note_on_c, 0, 55, 0
1, 63000, Note_on_c, 0, 74, 0
1, 63000, Note_on_c, 0, 77, 45
1, 63120, Note_on_c, 0, 77, 0
1, 63120, Note_on_c, 0, 74, 45
1, 63240, Tempo, 525901
1, 63240, Note_on_c, 0, 74, 0
1, 63240, Note_on_c, 0, 71, 45
1, 63360, Tempo, 468421
1, 63360, Note_on_c, 0, 71, 0
1, 63360, Note_on_c, 0, 72, 50
1, 63360, Note_on_c, 0, 60, 35
1, 63480, Note_on_c, 0, 60, 0
1, 63480, Note_on_c, 0, 72, 0
1, 63600, Note_on_c, 0, 72, 46
1, 63720, Note_on_c, 0, 72, 0
1, 63840, Tempo, 475851
1, 63840, Note_on_c, 0, 71, 42
1, 63840, Note_on_c, 0, 74, 50
1, 63840, Note_on_c, 0, 55, 39
1, 63960, Note_on_c, 0, 55, 0
1, 63960, Note_on_c, 0, 74, 0
1, 63960, Note_on_c, 0, 71, 0
1, 64080, Tempo, 495499
1, 64080, Note_on_c, 0, 74, 41
1, 64080, Note_on_c, 0, 71, 34
1, 64200, Note_on_c, 0, 71, 0
1, 64200, Note_on_c, 0, 74, 0
1, 64320, Tempo, 470256
1, 64320, Note_on_c, 0, 72, 42
1, 64320, Note_on_c, 0, 76, 50
1, 64320, Note_on_c, 0, 60, 45
1, 64405, Control_c, 0, 64, 127
1, 64560, Note_on_c, 0, 60, 0
1, 64560, Note_on_c, 0, 76, 0
1, 64560, Note_on_c, 0, 72, 0
1, 64560, Note_on_c, 0, 55, 40
1, 64800, Tempo, 475851
1, 64800, Note_on_c, 0, 55, 0
1, 64800, Note_on_c, 0, 52, 45
1, 65040, Tempo, 491441
1, 65040, Note_on_c, 0, 52, 0
1, 65040, Note_on_c, 0, 48, 38
1, 65280, Tempo, 468421
1, 65280, Note_on_c, 0, 48, 0
1, 65280, Note_on_c, 0, 62, 46
1, 65280, Note_on_c, 0, 65, 55
1, 65280, Note_on_c, 0, 55, 38
1, 65280, Control_c, 0, 64, 0
1, 65400, Note_on_c, 0, 65, 0
1, 65400, Note_on_c, 0, 62, 0
1, 65520, Note_on_c, 0, 65, 50
1, 65520, Note_on_c, 0, 62, 42
1, 65640, Note_on_c, 0, 62, 0
1, 65640, Note_on_c, 0, 65, 0
1, 65760, Tempo, 475851
1, 65760, Note_on_c, 0, 55, 0
1, 65760, Note_on_c, 0, 60, 46
1, 65760, Note_on_c, 0, 64, 55
1, 65880, Note_on_c, 0, 64, 0
1, 65880, Note_on_c, 0, 60, 0
1, 66000, Tempo, 495499
1, 66000, Note_on_c, 0, 64, 45
1, 66000, Note_on_c, 0, 60, 37
1, 66120, Note_on_c, 0, 60, 0
1, 66120, Note_on_c, 0, 64, 0
1, 66240, Tempo, 470256
1, 66240, Note_on_c, 0, 59, 46
1, 66240, Note_on_c, 0, 62, 55
1, 66240, Note_on_c, 0, 55, 49
1, 66360, Note_on_c, 0, 55, 0
1, 66480, Note_on_c, 0, 55, 44
1, 66600, Note_on_c, 0, 55, 0
1, 66720, Tempo, 475851
1, 66720, Note_on_c, 0, 62, 0
1, 66720, Note_on_c, 0, 59, 0
1, 66720, Note_on_c, 0, 53, 49
1, 66840, Note_on_c, 0, 53, 0
1, 66960, Tempo, 491441
1, 66960, Note_on_c, 0, 53, 41
1, 67080, Note_on_c, 0, 53, 0
1, 67200, Tempo, 472106
1, 67200, Note_on_c, 0, 67, 61
1, 67200, Note_on_c, 0, 64, 51
1, 67200, Note_on_c, 0, 52, 49
1, 67320, Note_on_c, 0, 52, 0
1, 67320, Note_on_c, 0, 64, 0
1, 67320, Note_on_c, 0, 67, 0
1, 67440, Note_on_c, 0, 64, 45
1, 67440, Note_on_c, 0, 67, 54
1, 67560, Note_on_c, 0, 67, 0
1, 67560, Note_on_c, 0, 64, 0
1, 67680, Tempo, 475851
1, 67680, Note_on_c, 0, 71, 62
1, 67680, Note_on_c, 0, 65, 52
1, 67800, Note_on_c, 0, 65, 0
1, 67800, Note_on_c, 0, 71, 0
1, 67920, Note_on_c, 0, 65, 45
1, 67920, Note_on_c, 0, 71, 54
1, 67920, Note_on_c, 0, 56, 41
1, 68040, Tempo, 460865
1, 68040, Note_on_c, 0, 56, 0
1, 68040, Note_on_c, 0, 71, 0
1, 68040, Note_on_c, 0, 65, 0
1, 68160, Tempo, 473971
1, 68160, Note_on_c, 0, 72, 65
1, 68160, Note_on_c, 0, 64, 55
1, 68160, Note_on_c, 0, 57, 49
1, 68280, Note_on_c, 0, 57, 0
1, 68280, Note_on_c, 0, 64, 0
1, 68280, Note_on_c, 0, 72, 0
1, 68400, Note_on_c, 0, 64, 45
1, 68400, Note_on_c, 0, 72, 54
1, 68520, Note_on_c, 0, 72, 0
1, 68520, Note_on_c, 0, 64, 0
1, 68640, Note_on_c, 0, 67, 58
1, 68640, Note_on_c, 0, 73, 69
1, 68640, Note_on_c, 0, 52, 50
1, 68760, Note_on_c, 0, 52, 0
1, 68760, Note_on_c, 0, 73, 0
1, 68760, Note_on_c, 0, 67, 0
1, 68880, Note_on_c, 0, 67, 52
1, 68880, Note_on_c, 0, 73, 63
1, 69000, Tempo, 503821
1, 69000, Note_on_c, 0, 73, 0
1, 69000, Note_on_c, 0, 67, 0
1, 69120, Tempo, 473971
1, 69120, Note_on_c, 0, 69, 62
1, 69120, Note_on_c, 0, 74, 74
1, 69120, Note_on_c, 0, 53, 61
1, 69240, Note_on_c, 0, 53, 0
1, 69240, Note_on_c, 0, 74, 0
1, 69240, Note_on_c, 0, 69, 0
1, 69360, Note_on_c, 0, 74, 66
1, 69360, Note_on_c, 0, 69, 56
1, 69360, Note_on_c, 0, 53, 46
1, 69480, Note_on_c, 0, 53, 0
1, 69480, Note_on_c, 0, 69, 0
1, 69480, Note_on_c, 0, 74, 0
1, 69600, Note_on_c, 0, 74, 64
1, 69600, Note_on_c, 0, 77, 76
1, 69600, Note_on_c, 0, 50, 53
1, 69720, Note_on_c, 0, 50, 0
1, 69720, Note_on_c, 0, 77, 0
1, 69720, Note_on_c, 0, 74, 0
1, 69840, Note_on_c, 0, 77, 70
1, 69840, Note_on_c, 0, 74, 59
1, 69840, Note_on_c, 0, 50, 49
1, 69960, Tempo, 510247
1, 69960, Note_on_c, 0, 50, 0
1, 69960, Note_on_c, 0, 74, 0
1, 69960, Note_on_c, 0, 77, 0
1, 70080, Tempo, 472106
1, 70080, Note_on_c, 0, 72, 66
1, 70080, Note_on_c, 0, 76, 78
1, 70080, Note_on_c, 0, 55, 58
1, 70200, Note_on_c, 0, 55, 0
1, 70200, Note_on_c, 0, 76, 0
1, 70200, Note_on_c, 0, 72, 0
1, 70320, Note_on_c, 0, 72, 58
1, 70320, Note_on_c, 0, 76, 69
1, 70320, Note_on_c, 0, 55, 50
1, 70440, Note_on_c, 0, 55, 0
1, 70440, Note_on_c, 0, 76, 0
1, 70440, Note_on_c, 0, 72, 0
1, 70560, Note_on_c, 0, 71, 66
1, 70560, Note_on_c, 0, 74, 78
1, 70560, Note_on_c, 0, 43, 56
1, 70680, Note_on_c, 0, 43, 0
1, 70680, Note_on_c, 0, 74, 0
1, 70680, Note_on_c, 0, 71, 0
1, 70800, Note_on_c, 0, 71, 58
1, 70800, Note_on_c, 0, 74, 69
1, 70800, Note_on_c, 0, 43, 50
1, 70920, Tempo, 540103
1, 70920, Note_on_c, 0, 43, 0
1, 70920, Note_on_c, 0, 74, 0
1, 70920, Note_on_c, 0, 71, 0
1, 71040, Tempo, 499625
1, 71040, Note_on_c, 0, 72, 86
1, 71040, Note_on_c, 0, 48, 56
1, 71280, Note_on_c, 0, 48, 0
1, 71280, Note_on_c, 0, 72, 0
1, 71520, Note_on_c, 0, 84, 82
1, 71520, Note_on_c, 0, 76, 69
1, 71520, Note_on_c, 0, 79, 69
1, 71520, Note_on_c, 0, 36, 41
1, 71520, Note_on_c, 0, 48, 49
1, 71760, Note_on_c, 0, 48, 0
1, 71760, Note_on_c, 0, 79, 0
1, 71760, Note_on_c, 0, 84, 0
1, 71760, Note_on_c, 0, 76, 0
1, 71760, Note_on_c, 0, 36, 0
1, 72000, Note_on_c, 0, 76, 68
1, 72000, Note_on_c, 0, 79, 68
1, 72000, Note_on_c, 0, 84, 80
1, 72000, Note_on_c, 0, 36, 41
1, 72000, Note_on_c, 0, 48, 49
1, 72240, Note_on_c, 0, 48, 0
1, 72240, Note_on_c, 0, 84, 0
1, 72240, Note_on_c, 0, 76, 0
1, 72240, Note_on_c, 0, 79, 0
1, 72240, Note_on_c, 0, 36, 0
1, 72960, Tempo, 468421
1, 72960, Note_on_c, 0, 79, 58
1, 72960, Note_on_c, 0, 55, 40
1, 72972, Control_c, 0, 64, 127
1, 73200, Tempo, 468421
1, 73200, Note_on_c, 0, 55, 0
1, 73200, Note_on_c, 0, 59, 31
1, 73320, Tempo, 508087
1, 73440, Tempo, 468421
1, 73440, Note_on_c, 0, 59, 0
1, 73440, Note_on_c, 0, 79, 0
1, 73440, Note_on_c, 0, 81, 55
1, 73440, Note_on_c, 0, 62, 39
1, 73451, Control_c, 0, 64, 0
1, 73560, Note_on_c, 0, 81, 0
1, 73560, Note_on_c, 0, 79, 46
1, 73680, Note_on_c, 0, 79, 0
1, 73680, Note_on_c, 0, 62, 0
1, 73680, Note_on_c, 0, 78, 50
1, 73800, Note_on_c, 0, 78, 0
1, 73800, Note_on_c, 0, 76, 46
1, 73920, Tempo, 464792
1, 73920, Note_on_c, 0, 76, 0
1, 73920, Note_on_c, 0, 74, 57
1, 73920, Note_on_c, 0, 55, 40
1, 74006, Control_c, 0, 64, 127
1, 74160, Note_on_c, 0, 55, 0
1, 74160, Note_on_c, 0, 59, 30
1, 74280, Tempo, 491441
1, 74400, Tempo, 466599
1, 74400, Note_on_c, 0, 59, 0
1, 74400, Note_on_c, 0, 74, 0
1, 74400, Note_on_c, 0, 76, 54
1, 74400, Note_on_c, 0, 62, 36
1, 74419, Control_c, 0, 64, 0
1, 74520, Note_on_c, 0, 76, 0
1, 74520, Note_on_c, 0, 74, 42
1, 74640, Note_on_c, 0, 74, 0
1, 74640, Note_on_c, 0, 62, 0
1, 74640, Note_on_c, 0, 72, 53
1, 74760, Tempo, 477745
1, 74760, Note_on_c, 0, 72, 0
1, 74760, Note_on_c, 0, 71, 50
1, 74880, Tempo, 485476
1, 74880, Note_on_c, 0, 71, 0
1, 74880, Note_on_c, 0, 69, 55
1, 74880, Note_on_c, 0, 55, 40
1, 75000, Tempo, 464792
1, 75000, Note_on_c, 0, 69, 0
1, 75060, Note_on_c, 0, 71, 42
1, 75120, Note_on_c, 0, 71, 0
1, 75120, Note_on_c, 0, 55, 0
1, 75120, Note_on_c, 0, 69, 50
1, 75120, Note_on_c, 0, 60, 32
1, 75240, Note_on_c, 0, 69, 0
1, 75240, Note_on_c, 0, 68, 47
1, 75360, Note_on_c, 0, 68, 0
1, 75360, Note_on_c, 0, 60, 0
1, 75360, Note_on_c, 0, 69, 50
1, 75360, Note_on_c, 0, 64, 38
1, 75480, Note_on_c, 0, 69, 0
1, 75600, Tempo, 473971
1, 75600, Note_on_c, 0, 64, 0
1, 75600, Note_on_c, 0, 71, 46
1, 75720, Tempo, 495499
1, 75720, Note_on_c, 0, 71, 0
1, 75840, Tempo, 483520
1, 75840, Note_on_c, 0, 72, 50
1, 75840, Note_on_c, 0, 55, 40
1, 75872, Control_c, 0, 64, 127
1, 75960, Tempo, 470256
1, 76080, Tempo, 464792
1, 76080, Note_on_c, 0, 55, 0
1, 76080, Note_on_c, 0, 72, 0
1, 76080, Note_on_c, 0, 60, 33
1, 76320, Note_on_c, 0, 60, 0
1, 76320, Note_on_c, 0, 64, 36
1, 76328, Control_c, 0, 64, 0
1, 76560, Note_on_c, 0, 64, 0
1, 76560, Note_on_c, 0, 84, 55
1, 76680, Note_on_c, 0, 84, 0
1, 76680, Note_on_c, 0, 83, 49
1, 76800, Tempo, 462999
1, 76800, Note_on_c, 0, 83, 0
1, 76800, Note_on_c, 0, 81, 55
1, 76800, Note_on_c, 0, 54, 40
1, 76815, Tempo, 454236
1, 76887, Tempo, 455962
1, 76920, Note_on_c, 0, 81, 0
1, 76920, Note_on_c, 0, 83, 53
1, 76959, Tempo, 457701
1, 77031, Tempo, 459453
1, 77040, Note_on_c, 0, 83, 0
1, 77040, Note_on_c, 0, 54, 0
1, 77040, Note_on_c, 0, 81, 55
1, 77040, Note_on_c, 0, 57, 31
1, 77103, Tempo, 461219
1, 77160, Note_on_c, 0, 81, 0
1, 77160, Note_on_c, 0, 83, 54
1, 77175, Tempo, 462999
1, 77247, Tempo, 464792
1, 77271, Tempo, 452523
1, 77280, Note_on_c, 0, 83, 0
1, 77280, Note_on_c, 0, 57, 0
1, 77280, Note_on_c, 0, 84, 62
1, 77280, Note_on_c, 0, 62, 39
1, 77343, Tempo, 454236
1, 77391, Tempo, 455962
1, 77400, Note_on_c, 0, 84, 0
1, 77400, Note_on_c, 0, 83, 54
1, 77439, Tempo, 457701
1, 77487, Tempo, 459453
1, 77520, Note_on_c, 0, 83, 0
1, 77520, Note_on_c, 0, 62, 0
1, 77520, Note_on_c, 0, 81, 55
1, 77535, Tempo, 461219
1, 77583, Tempo, 462999
1, 77640, Tempo, 493462
1, 77640, Note_on_c, 0, 81, 0
1, 77640, Note_on_c, 0, 83, 53
1, 77751, Tempo, 454236
1, 77760, Note_on_c, 0, 83, 0
1, 77760, Note_on_c, 0, 84, 62
1, 77760, Note_on_c, 0, 54, 40
1, 77880, Note_on_c, 0, 84, 0
1, 77880, Note_on_c, 0, 83, 55
1, 77895, Tempo, 455962
1, 78000, Note_on_c, 0, 83, 0
1, 78000, Note_on_c, 0, 54, 0
1, 78000, Note_on_c, 0, 81, 55
1, 78000, Note_on_c, 0, 57, 30
1, 78015, Tempo, 457701
1, 78120, Note_on_c, 0, 81, 0
1, 78120, Note_on_c, 0, 79, 54
1, 78135, Tempo, 459453
1, 78240, Note_on_c, 0, 79, 0
1, 78240, Note_on_c, 0, 57, 0
1, 78240, Note_on_c, 0, 78, 61
1, 78240, Note_on_c, 0, 62, 36
1, 78255, Tempo, 461219
1, 78360, Note_on_c, 0, 78, 0
1, 78360, Note_on_c, 0, 76, 55
1, 78399, Tempo, 462999
1, 78480, Note_on_c, 0, 76, 0
1, 78480, Note_on_c, 0, 62, 0
1, 78480, Note_on_c, 0, 74, 58
1, 78519, Tempo, 464792
1, 78600, Note_on_c, 0, 74, 0
1, 78600, Note_on_c, 0, 72, 54
1, 78639, Tempo, 466599
1, 78720, Tempo, 483520
1, 78720, Note_on_c, 0, 72, 0
1, 78720, Note_on_c, 0, 71, 55
1, 78720, Note_on_c, 0, 55, 40
1, 78823, Control_c, 0, 64, 127
1, 78960, Tempo, 461219
1, 78960, Note_on_c, 0, 55, 0
1, 78960, Note_on_c, 0, 71, 0
1, 78960, Note_on_c, 0, 59, 32
1, 79080, Tempo, 481580
1, 79167, Tempo, 470256
1, 79200, Tempo, 547495
1, 79200, Note_on_c, 0, 59, 0
1, 79200, Note_on_c, 0, 62, 38
1, 79216, Control_c, 0, 64, 0
1, 79287, Tempo, 468421
1, 79320, Tempo, 468421
1, 79320, Note_on_c, 0, 67, 47
1, 79383, Tempo, 466599
1, 79440, Note_on_c, 0, 67, 0
1, 79440, Note_on_c, 0, 62, 0
1, 79440, Note_on_c, 0, 69, 48
1, 79503, Tempo, 464792
1, 79560, Note_on_c, 0, 69, 0
1, 79560, Note_on_c, 0, 71, 50
1, 79599, Tempo, 462999
1, 79680, Note_on_c, 0, 71, 0
1, 79680, Note_on_c, 0, 72, 52
1, 79719, Tempo, 461219
1, 79800, Note_on_c, 0, 72, 0
1, 79800, Note_on_c, 0, 74, 52
1, 79815, Tempo, 459453
1, 79920, Note_on_c, 0, 74, 0
1, 79920, Note_on_c, 0, 76, 54
1, 79935, Tempo, 457701
1, 80031, Tempo, 455962
1, 80040, Note_on_c, 0, 76, 0
1, 80040, Note_on_c, 0, 78, 55
1, 80079, Tempo, 454236
1, 80160, Note_on_c, 0, 78, 0
1, 80160, Note_on_c, 0, 79, 56
1, 80223, Tempo, 452523
1, 80247, Tempo, 454236
1, 80280, Tempo, 489436
1, 80280, Note_on_c, 0, 79, 0
1, 80280, Note_on_c, 0, 81, 55
1, 80352, Tempo, 478507
1, 80368, Tempo, 480423
1, 80384, Tempo, 482354
1, 80400, Tempo, 484301
1, 80400, Note_on_c, 0, 81, 0
1, 80400, Note_on_c, 0, 83, 61
1, 80416, Tempo, 486263
1, 80432, Tempo, 488242
1, 80448, Tempo, 490236
1, 80464, Tempo, 492247
1, 80480, Tempo, 494275
1, 80496, Tempo, 496319
1, 80512, Tempo, 498380
1, 80520, Note_on_c, 0, 83, 0
1, 80520, Note_on_c, 0, 81, 57
1, 80528, Tempo, 500459
1, 80544, Tempo, 502555
1, 80560, Tempo, 504668
1, 80576, Tempo, 506800
1, 80592, Tempo, 508949
1, 80608, Tempo, 511117
1, 80624, Tempo, 515508
1, 80640, Tempo, 461219
1, 80640, Note_on_c, 0, 81, 0
1, 80640, Note_on_c, 0, 79, 61
1, 80640, Note_on_c, 0, 52, 40
1, 80715, Control_c, 0, 64, 127
1, 80880, Note_on_c, 0, 52, 0
1, 80880, Note_on_c, 0, 79, 0
1, 80880, Note_on_c, 0, 55, 32
1, 81120, Tempo, 530551
1, 81120, Note_on_c, 0, 55, 0
1, 81120, Note_on_c, 0, 59, 38
1, 81140, Control_c, 0, 64, 0
1, 81230, Tempo, 473971
1, 81240, Note_on_c, 0, 67, 48
1, 81288, Tempo, 472106
1, 81326, Tempo, 470256
1, 81360, Note_on_c, 0, 67, 0
1, 81360, Note_on_c, 0, 59, 0
1, 81360, Note_on_c, 0, 69, 49
1, 81365, Tempo, 468421
1, 81403, Tempo, 466599
1, 81442, Tempo, 464792
1, 81480, Note_on_c, 0, 69, 0
1, 81480, Note_on_c, 0, 71, 52
1, 81499, Tempo, 462999
1, 81538, Tempo, 461219
1, 81576, Tempo, 459453
1, 81600, Note_on_c, 0, 71, 0
1, 81600, Note_on_c, 0, 72, 53
1, 81614, Tempo, 457701
1, 81653, Tempo, 455962
1, 81691, Tempo, 454236
1, 81720, Note_on_c, 0, 72, 0
1, 81720, Note_on_c, 0, 74, 56
1, 81840, Note_on_c, 0, 74, 0
1, 81840, Note_on_c, 0, 76, 56
1, 81960, Note_on_c, 0, 76, 0
1, 81960, Note_on_c, 0, 78, 57
1, 82080, Tempo, 459453
1, 82080, Note_on_c, 0, 78, 0
1, 82080, Note_on_c, 0, 79, 58
1, 82110, Tempo, 461219
1, 82125, Tempo, 462999
1, 82155, Tempo, 464792
1, 82170, Tempo, 466599
1, 82200, Tempo, 468421
1, 82200, Note_on_c, 0, 79, 0
1, 82200, Note_on_c, 0, 81, 61
1, 82215, Tempo, 470256
1, 82245, Tempo, 472106
1, 82260, Tempo, 473971
1, 82290, Tempo, 475851
1, 82305, Tempo, 477745
1, 82320, Note_on_c, 0, 81, 0
1, 82320, Note_on_c, 0, 83, 64
1, 82335, Tempo, 479655
1, 82350, Tempo, 481580
1, 82380, Tempo, 483520
1, 82395, Tempo, 485476
1, 82425, Tempo, 487448
1, 82440, Tempo, 489436
1, 82440, Note_on_c, 0, 83, 0
1, 82440, Note_on_c, 0, 84, 70
1, 82470, Tempo, 491441
1, 82485, Tempo, 493462
1, 82515, Tempo, 495499
1, 82530, Tempo, 497554
1, 82560, Tempo, 472106
1, 82560, Note_on_c, 0, 84, 0
1, 82560, Note_on_c, 0, 86, 77
1, 82560, Note_on_c, 0, 47, 54
1, 82680, Note_on_c, 0, 86, 0
1, 82800, Tempo, 485476
1, 82800, Note_on_c, 0, 47, 0
1, 82800, Note_on_c, 0, 86, 70
1, 82800, Note_on_c, 0, 55, 40
1, 82920, Note_on_c, 0, 86, 0
1, 83040, Tempo, 472106
1, 83040, Note_on_c, 0, 55, 0
1, 83040, Note_on_c, 0, 84, 70
1, 83040, Note_on_c, 0, 47, 45
1, 83160, Note_on_c, 0, 84, 0
1, 83160, Note_on_c, 0, 83, 63
1, 83280, Note_on_c, 0, 83, 0
1, 83280, Note_on_c, 0, 47, 0
1, 83280, Note_on_c, 0, 81, 63
1, 83280, Note_on_c, 0, 55, 40
1, 83400, Note_on_c, 0, 81, 0
1, 83400, Note_on_c, 0, 83, 63
1, 83520, Note_on_c, 0, 83, 0
1, 83520, Note_on_c, 0, 55, 0
1, 83520, Note_on_c, 0, 79, 70
1, 83520, Note_on_c, 0, 47, 53
1, 83640, Note_on_c, 0, 79, 0
1, 83760, Tempo, 485476
1, 83760, Note_on_c, 0, 47, 0
1, 83760, Note_on_c, 0, 79, 63
1, 83760, Note_on_c, 0, 55, 40
1, 83880, Note_on_c, 0, 79, 0
1, 84000, Tempo, 472106
1, 84000, Note_on_c, 0, 55, 0
1, 84000, Note_on_c, 0, 75, 70
1, 84000, Note_on_c, 0, 47, 48
1, 84120, Note_on_c, 0, 75, 0
1, 84240, Note_on_c, 0, 47, 0
1, 84240, Note_on_c, 0, 75, 59
1, 84240, Note_on_c, 0, 55, 40
1, 84360, Note_on_c, 0, 75, 0
1, 84480, Tempo, 470256
1, 84480, Note_on_c, 0, 55, 0
1, 84480, Note_on_c, 0, 76, 68
1, 84480, Note_on_c, 0, 48, 54
1, 84600, Note_on_c, 0, 76, 0
1, 84720, Note_on_c, 0, 48, 0
1, 84720, Note_on_c, 0, 76, 62
1, 84720, Note_on_c, 0, 55, 40
1, 84840, Note_on_c, 0, 76, 0
1, 84960, Note_on_c, 0, 55, 0
1, 84960, Note_on_c, 0, 74, 64
1, 84960, Note_on_c, 0, 48, 45
1, 85080, Note_on_c, 0, 74, 0
1, 85080, Note_on_c, 0, 72, 57
1, 85200, Note_on_c, 0, 72, 0
1, 85200, Note_on_c, 0, 48, 0
1, 85200, Note_on_c, 0, 71, 57
1, 85200, Note_on_c, 0, 55, 40
1, 85320, Note_on_c, 0, 71, 0
1, 85320, Note_on_c, 0, 72, 58
1, 85440, Note_on_c, 0, 72, 0
1, 85440, Note_on_c, 0, 55, 0
1, 85440, Note_on_c, 0, 69, 65
1, 85440, Note_on_c, 0, 48, 53
1, 85560, Note_on_c, 0, 69, 0
1, 85680, Tempo, 483520
1, 85680, Note_on_c, 0, 48, 0
1, 85680, Note_on_c, 0, 69, 54
1, 85680, Note_on_c, 0, 55, 40
1, 85800, Note_on_c, 0, 69, 0
1, 85920, Tempo, 468421
1, 85920, Note_on_c, 0, 55, 0
1, 85920, Note_on_c, 0, 64, 57
1, 85920, Note_on_c, 0, 48, 48
1, 86040, Note_on_c, 0, 64, 0
1, 86160, Note_on_c, 0, 48, 0
1, 86160, Note_on_c, 0, 64, 52
1, 86160, Note_on_c, 0, 55, 40
1, 86280, Note_on_c, 0, 64, 0
1, 86400, Note_on_c, 0, 55, 0
1, 86400, Note_on_c, 0, 62, 63
1, 86400, Note_on_c, 0, 50, 54
1, 86520, Note_on_c, 0, 62, 0
1, 86640, Note_on_c, 0, 50, 0
1, 86640, Note_on_c, 0, 62, 58
1, 86640, Note_on_c, 0, 55, 40
1, 86760, Note_on_c, 0, 62, 0
1, 86880, Note_on_c, 0, 55, 0
1, 86880, Note_on_c, 0, 74, 63
1, 86880, Note_on_c, 0, 50, 45
1, 87000, Note_on_c, 0, 74, 0
1, 87000, Note_on_c, 0, 71, 56
1, 87120, Tempo, 489436
1, 87120, Note_on_c, 0, 71, 0
1, 87120, Note_on_c, 0, 50, 0
1, 87120, Note_on_c, 0, 69, 58
1, 87120, Note_on_c, 0, 55, 40
1, 87240, Note_on_c, 0, 69, 0
1, 87240, Note_on_c, 0, 67, 56
1, 87355, Tempo, 487448
1, 87360, Note_on_c, 0, 67, 0
1, 87360, Note_on_c, 0, 55, 0
1, 87360, Note_on_c, 0, 69, 47
1, 87360, Note_on_c, 0, 50, 53
1, 87415, Tempo, 485476
1, 87440, Note_on_c, 0, 69, 0
1, 87440, Note_on_c, 0, 71, 43
1, 87445, Tempo, 483520
1, 87456, Control_c, 0, 64, 127
1, 87475, Tempo, 481580
1, 87505, Tempo, 479655
1, 87520, Note_on_c, 0, 71, 0
1, 87520, Note_on_c, 0, 69, 50
1, 87535, Tempo, 477745
1, 87565, Tempo, 475851
1, 87595, Tempo, 473971
1, 87600, Note_on_c, 0, 69, 0
1, 87600, Note_on_c, 0, 50, 0
1, 87600, Note_on_c, 0, 71, 46
1, 87600, Note_on_c, 0, 54, 40
1, 87625, Tempo, 472106
1, 87655, Tempo, 470256
1, 87680, Note_on_c, 0, 71, 0
1, 87680, Note_on_c, 0, 69, 54
1, 87685, Tempo, 468421
1, 87760, Note_on_c, 0, 69, 0
1, 87760, Note_on_c, 0, 71, 53
1, 87840, Note_on_c, 0, 71, 0
1, 87840, Note_on_c, 0, 54, 0
1, 87840, Note_on_c, 0, 69, 57
1, 87840, Note_on_c, 0, 50, 48
1, 87920, Note_on_c, 0, 69, 0
1, 87920, Note_on_c, 0, 71, 53
1, 87985, Tempo, 468421
1, 88000, Note_on_c, 0, 71, 0
1, 88000, Note_on_c, 0, 69, 56
1, 88015, Tempo, 470256
1, 88045, Tempo, 472106
1, 88075, Tempo, 473971
1, 88080, Note_on_c, 0, 69, 0
1, 88080, Note_on_c, 0, 50, 0
1, 88080, Note_on_c, 0, 71, 51
1, 88080, Note_on_c, 0, 54, 33
1, 88105, Tempo, 475851
1, 88135, Tempo, 477745
1, 88140, Note_on_c, 0, 71, 0
1, 88140, Note_on_c, 0, 69, 56
1, 88165, Tempo, 479655
1, 88195, Tempo, 481580
1, 88200, Note_on_c, 0, 69, 0
1, 88200, Note_on_c, 0, 67, 49
1, 88225, Tempo, 483520
1, 88255, Tempo, 485476
1, 88260, Note_on_c, 0, 67, 0
1, 88260, Note_on_c, 0, 69, 49
1, 88320, Tempo, 506800
1, 88320, Note_on_c, 0, 69, 0
1, 88320, Note_on_c, 0, 54, 0
1, 88320, Note_on_c, 0, 47, 40
1, 88370, Control_c, 0, 64, 0
1, 88560, Note_on_c, 0, 47, 0
1, 88560, Note_on_c, 0, 86, 54
1, 88560, Note_on_c, 0, 55, 22
1, 88680, Tempo, 472106
1, 88680, Note_on_c, 0, 86, 0
1, 88800, Note_on_c, 0, 55, 0
1, 88800, Note_on_c, 0, 47, 26
1, 89040, Note_on_c, 0, 47, 0
1, 89040, Note_on_c, 0, 83, 45
1, 89040, Note_on_c, 0, 55, 21
1, 89160, Note_on_c, 0, 83, 0
1, 89280, Tempo, 475851
1, 89280, Note_on_c, 0, 55, 0
1, 89280, Note_on_c, 0, 47, 33
1, 89520, Note_on_c, 0, 47, 0
1, 89520, Note_on_c, 0, 79, 57
1, 89520, Note_on_c, 0, 55, 31
1, 89640, Note_on_c, 0, 79, 0
1, 89760, Tempo, 487448
1, 89760, Note_on_c, 0, 55, 0
1, 89760, Note_on_c, 0, 47, 39
1, 90000, Tempo, 521331
1, 90000, Note_on_c, 0, 47, 0
1, 90000, Note_on_c, 0, 75, 63
1, 90000, Note_on_c, 0, 55, 35
1, 90120, Note_on_c, 0, 75, 0
1, 90240, Tempo, 475851
1, 90240, Note_on_c, 0, 55, 0
1, 90240, Note_on_c, 0, 48, 49
1, 90480, Note_on_c, 0, 48, 0
1, 90480, Note_on_c, 0, 76, 56
1, 90480, Note_on_c, 0, 55, 41
1, 90600, Note_on_c, 0, 76, 0
1, 90600, Note_on_c, 0, 75, 50
1, 90720, Note_on_c, 0, 75, 0
1, 90720, Note_on_c, 0, 55, 0
1, 90720, Note_on_c, 0, 76, 57
1, 90720, Note_on_c, 0, 48, 49
1, 90788, Tempo, 479655
1, 90840, Note_on_c, 0, 76, 0
1, 90840, Note_on_c, 0, 78, 60
1, 90938, Tempo, 477745
1, 90960, Note_on_c, 0, 78, 0
1, 90960, Note_on_c, 0, 48, 0
1, 90960, Note_on_c, 0, 79, 61
1, 90960, Note_on_c, 0, 55, 39
1, 91058, Tempo, 475851
1, 91080, Note_on_c, 0, 79, 0
1, 91080, Note_on_c, 0, 78, 55
1, 91178, Tempo, 473971
1, 91200, Note_on_c, 0, 78, 0
1, 91200, Note_on_c, 0, 55, 0
1, 91200, Note_on_c, 0, 76, 61
1, 91200, Note_on_c, 0, 48, 49
1, 91298, Tempo, 472106
1, 91320, Note_on_c, 0, 76, 0
1, 91320, Note_on_c, 0, 74, 53
1, 91440, Note_on_c, 0, 74, 0
1, 91440, Note_on_c, 0, 48, 0
1, 91440, Note_on_c, 0, 72, 56
1, 91440, Note_on_c, 0, 55, 39
1, 91478, Tempo, 473971
1, 91560, Note_on_c, 0, 72, 0
1, 91560, Note_on_c, 0, 71, 51
1, 91628, Tempo, 475851
1, 91680, Note_on_c, 0, 71, 0
1, 91680, Note_on_c, 0, 55, 0
1, 91680, Note_on_c, 0, 69, 56
1, 91680, Note_on_c, 0, 48, 49
1, 91778, Tempo, 477745
1, 91800, Note_on_c, 0, 69, 0
1, 91800, Note_on_c, 0, 67, 60
1, 91920, Note_on_c, 0, 67, 0
1, 91920, Note_on_c, 0, 48, 0
1, 91920, Note_on_c, 0, 66, 63
1, 91920, Note_on_c, 0, 55, 40
1, 91928, Tempo, 479655
1, 92040, Tempo, 510247
1, 92040, Note_on_c, 0, 66, 0
1, 92040, Note_on_c, 0, 64, 65
1, 92160, Tempo, 475851
1, 92160, Note_on_c, 0, 64, 0
1, 92160, Note_on_c, 0, 55, 0
1, 92160, Note_on_c, 0, 62, 72
1, 92160, Note_on_c, 0, 50, 49
1, 92168, Tempo, 487448
1, 92258, Tempo, 485476
1, 92280, Note_on_c, 0, 62, 0
1, 92280, Note_on_c, 0, 67, 56
1, 92348, Tempo, 483520
1, 92400, Note_on_c, 0, 67, 0
1, 92400, Note_on_c, 0, 50, 0
1, 92400, Note_on_c, 0, 71, 56
1, 92400, Note_on_c, 0, 55, 41
1, 92408, Tempo, 481580
1, 92498, Tempo, 479655
1, 92520, Note_on_c, 0, 71, 0
1, 92520, Note_on_c, 0, 74, 56
1, 92558, Tempo, 477745
1, 92640, Note_on_c, 0, 74, 0
1, 92640, Note_on_c, 0, 55, 0
1, 92640, Note_on_c, 0, 72, 59
1, 92640, Note_on_c, 0, 50, 49
1, 92648, Tempo, 475851
1, 92708, Tempo, 473971
1, 92760, Note_on_c, 0, 72, 0
1, 92760, Note_on_c, 0, 71, 50
1, 92880, Note_on_c, 0, 71, 0
1, 92880, Note_on_c, 0, 50, 0
1, 92880, Note_on_c, 0, 69, 50
1, 92880, Note_on_c, 0, 55, 39
1, 93000, Note_on_c, 0, 69, 0
1, 93000, Note_on_c, 0, 67, 50
1, 93120, Tempo, 487448
1, 93120, Note_on_c, 0, 67, 0
1, 93120, Note_on_c, 0, 55, 0
1, 93120, Note_on_c, 0, 69, 51
1, 93120, Note_on_c, 0, 50, 53
1, 93175, Tempo, 485476
1, 93200, Note_on_c, 0, 69, 0
1, 93200, Note_on_c, 0, 71, 47
1, 93205, Tempo, 483520
1, 93216, Control_c, 0, 64, 127
1, 93235, Tempo, 481580
1, 93265, Tempo, 479655
1, 93280, Note_on_c, 0, 71, 0
1, 93280, Note_on_c, 0, 69, 55
1, 93295, Tempo, 477745
1, 93325, Tempo, 475851
1, 93355, Tempo, 473971
1, 93360, Note_on_c, 0, 69, 0
1, 93360, Note_on_c, 0, 50, 0
1, 93360, Note_on_c, 0, 71, 50
1, 93360, Note_on_c, 0, 54, 40
1, 93385, Tempo, 472106
1, 93415, Tempo, 470256
1, 93440, Note_on_c, 0, 71, 0
1, 93440, Note_on_c, 0, 69, 59
1, 93445, Tempo, 468421
1, 93520, Note_on_c, 0, 69, 0
1, 93520, Note_on_c, 0, 71, 58
1, 93600, Note_on_c, 0, 71, 0
1, 93600, Note_on_c, 0, 54, 0
1, 93600, Note_on_c, 0, 69, 62
1, 93600, Note_on_c, 0, 50, 48
1, 93680, Note_on_c, 0, 69, 0
1, 93680, Note_on_c, 0, 71, 58
1, 93745, Tempo, 468421
1, 93760, Note_on_c, 0, 71, 0
1, 93760, Note_on_c, 0, 69, 61
1, 93775, Tempo, 470256
1, 93805, Tempo, 472106
1, 93835, Tempo, 473971
1, 93840, Note_on_c, 0, 69, 0
1, 93840, Note_on_c, 0, 50, 0
1, 93840, Note_on_c, 0, 71, 56
1, 93840, Note_on_c, 0, 54, 33
1, 93865, Tempo, 475851
1, 93895, Tempo, 477745
1, 93900, Note_on_c, 0, 71, 0
1, 93900, Note_on_c, 0, 69, 61
1, 93925, Tempo, 479655
1, 93955, Tempo, 481580
1, 93960, Note_on_c, 0, 69, 0
1, 93960, Note_on_c, 0, 67, 53
1, 93985, Tempo, 483520
1, 94015, Tempo, 485476
1, 94020, Note_on_c, 0, 67, 0
1, 94020, Note_on_c, 0, 69, 53
1, 94080, Note_on_c, 0, 69, 0
1, 94080, Note_on_c, 0, 54, 0
1, 94080, Note_on_c, 0, 67, 68
1, 94080, Note_on_c, 0, 43, 58
1, 94080, Control_c, 0, 64, 0
1, 94200, Note_on_c, 0, 43, 0
1, 94320, Note_on_c, 0, 67, 0
1, 94320, Note_on_c, 0, 55, 55
1, 94440, Note_on_c, 0, 55, 0
1, 94574, Note_on_c, 0, 62, 67
1, 94694, Note_on_c, 0, 62, 0
1, 94800, Note_on_c, 0, 62, 62
1, 94920, Note_on_c, 0, 62, 0
1, 95040, Tempo, 461219
1, 95040, Note_on_c, 0, 59, 57
1, 95040, Note_on_c, 0, 67, 68
1, 95040, Note_on_c, 0, 43, 58
1, 95160, Note_on_c, 0, 43, 0
1, 95160, Note_on_c, 0, 67, 0
1, 95160, Note_on_c, 0, 59, 0
1, 95280, Tempo, 483520
1, 95280, Note_on_c, 0, 55, 52
1, 95400, Note_on_c, 0, 55, 0
1, 95520, Note_on_c, 0, 62, 64
1, 95640, Note_on_c, 0, 62, 0
1, 95760, Note_on_c, 0, 62, 68
1, 95880, Note_on_c, 0, 62, 0
1, 96000, Tempo, 461219
1, 96000, Note_on_c, 0, 60, 57
1, 96000, Note_on_c, 0, 69, 68
1, 96000, Note_on_c, 0, 43, 58
1, 96120, Note_on_c, 0, 43, 0
1, 96120, Note_on_c, 0, 69, 0
1, 96120, Note_on_c, 0, 60, 0
1, 96240, Tempo, 502555
1, 96240, Note_on_c, 0, 55, 52
1, 96360, Note_on_c, 0, 55, 0
1, 96480, Tempo, 482354
1, 96480, Note_on_c, 0, 62, 42
1, 96600, Note_on_c, 0, 62, 0
1, 96720, Note_on_c, 0, 62, 33
1, 96840, Note_on_c, 0, 62, 0
1, 96960, Tempo, 462999
1, 96960, Note_on_c, 0, 57, 35
1, 96960, Note_on_c, 0, 66, 42
1, 96960, Note_on_c, 0, 43, 34
1, 97080, Note_on_c, 0, 43, 0
1, 97080, Note_on_c, 0, 66, 0
1, 97080, Note_on_c, 0, 57, 0
1, 97200, Tempo, 481580
1, 97200, Note_on_c, 0, 55, 26
1, 97320, Note_on_c, 0, 55, 0
1, 97440, Tempo, 503821
1, 97440, Note_on_c, 0, 62, 60
1, 97560, Note_on_c, 0, 62, 0
1, 97680, Tempo, 537683
1, 97680, Note_on_c, 0, 62, 69
1, 97800, Note_on_c, 0, 62, 0
1, 97920, Tempo, 516840
1, 97920, Note_on_c, 0, 67, 74
1, 97920, Note_on_c, 0, 59, 62
1, 97920, Note_on_c, 0, 43, 58
1, 98005, Control_c, 0, 64, 127
1, 98040, Tempo, 519076
1, 98160, Note_on_c, 0, 43, 0
1, 98160, Note_on_c, 0, 55, 48
1, 98400, Tempo, 599460
1, 98400, Note_on_c, 0, 55, 0
1, 98400, Note_on_c, 0, 59, 0
1, 98400, Note_on_c, 0, 67, 0
1, 98400, Note_on_c, 0, 67, 62
1, 98400, Note_on_c, 0, 59, 52
1, 98400, Note_on_c, 0, 50, 58
1, 98640, Tempo, 673476
1, 98640, Note_on_c, 0, 50, 0
1, 98640, Note_on_c, 0, 47, 49
1, 98880, Tempo, 621182
1, 98880, Note_on_c, 0, 47, 0
1, 98880, Note_on_c, 0, 59, 0
1, 98880, Note_on_c, 0, 67, 0
1, 98880, Note_on_c, 0, 59, 57
1, 98880, Note_on_c, 0, 67, 68
1, 98880, Note_on_c, 0, 43, 58
1, 99000, Tempo, 617983
1, 99261, Control_c, 0, 64, 0
1, 99360, Note_on_c, 0, 43, 0
1, 99360, Note_on_c, 0, 67, 0
1, 99360, Note_on_c, 0, 59, 0
1, 99840, Tempo, 475851
1, 99840, Marker_t, "Teil 2"
1, 99840, Note_on_c, 0, 67, 49
1, 99840, Note_on_c, 0, 59, 28
1, 99868, Control_c, 0, 64, 127
1, 100080, Note_on_c, 0, 59, 0
1, 100080, Note_on_c, 0, 55, 22
1, 100320, Note_on_c, 0, 55, 0
1, 100320, Note_on_c, 0, 59, 24
1, 100560, Tempo, 510247
1, 100560, Note_on_c, 0, 59, 0
1, 100560, Note_on_c, 0, 67, 0
1, 100560, Note_on_c, 0, 71, 45
1, 100560, Note_on_c, 0, 55, 22
1, 100800, Tempo, 472106
1, 100800, Note_on_c, 0, 55, 0
1, 100800, Note_on_c, 0, 71, 0
1, 100800, Note_on_c, 0, 74, 49
1, 100800, Note_on_c, 0, 59, 28
1, 100813, Control_c, 0, 64, 0
1, 101040, Note_on_c, 0, 59, 0
1, 101040, Note_on_c, 0, 74, 0
1, 101040, Note_on_c, 0, 79, 45
1, 101040, Note_on_c, 0, 55, 20
1, 101160, Note_on_c, 0, 79, 0
1, 101280, Note_on_c, 0, 55, 0
1, 101280, Note_on_c, 0, 79, 45
1, 101280, Note_on_c, 0, 59, 25
1, 101400, Note_on_c, 0, 79, 0
1, 101520, Tempo, 508087
1, 101520, Note_on_c, 0, 59, 0
1, 101520, Note_on_c, 0, 79, 45
1, 101520, Note_on_c, 0, 55, 22
1, 101640, Note_on_c, 0, 79, 0
1, 101760, Tempo, 472851
1, 101760, Note_on_c, 0, 55, 0
1, 101760, Note_on_c, 0, 69, 49
1, 101760, Note_on_c, 0, 60, 28
1, 101880, Note_on_c, 0, 69, 0
1, 101880, Note_on_c, 0, 71, 42
1, 102000, Note_on_c, 0, 71, 0
1, 102000, Note_on_c, 0, 60, 0
1, 102000, Note_on_c, 0, 72, 42
1, 102000, Note_on_c, 0, 55, 22
1, 102120, Note_on_c, 0, 72, 0
1, 102120, Note_on_c, 0, 71, 42
1, 102240, Note_on_c, 0, 71, 0
1, 102240, Note_on_c, 0, 55, 0
1, 102240, Note_on_c, 0, 69, 49
1, 102240, Note_on_c, 0, 60, 24
1, 102360, Note_on_c, 0, 69, 0
1, 102360, Note_on_c, 0, 71, 42
1, 102480, Tempo, 515508
1, 102480, Note_on_c, 0, 71, 0
1, 102480, Note_on_c, 0, 60, 0
1, 102480, Note_on_c, 0, 72, 42
1, 102480, Note_on_c, 0, 55, 22
1, 102600, Tempo, 470995
1, 102600, Note_on_c, 0, 72, 0
1, 102600, Note_on_c, 0, 71, 42
1, 102720, Note_on_c, 0, 71, 0
1, 102720, Note_on_c, 0, 55, 0
1, 102720, Note_on_c, 0, 69, 49
1, 102720, Note_on_c, 0, 60, 28
1, 102812, Control_c, 0, 64, 127
1, 102960, Note_on_c, 0, 60, 0
1, 102960, Note_on_c, 0, 69, 0
1, 102960, Note_on_c, 0, 55, 20
1, 103200, Note_on_c, 0, 55, 0
1, 103200, Note_on_c, 0, 60, 25
1, 103440, Tempo, 508949
1, 103440, Note_on_c, 0, 60, 0
1, 103440, Note_on_c, 0, 55, 22
1, 103680, Tempo, 475851
1, 103680, Note_on_c, 0, 55, 0
1, 103680, Note_on_c, 0, 71, 49
1, 103680, Note_on_c, 0, 62, 28
1, 103690, Control_c, 0, 64, 0
1, 103779, Control_c, 0, 64, 127
1, 103920, Note_on_c, 0, 62, 0
1, 103920, Note_on_c, 0, 55, 22
1, 104160, Note_on_c, 0, 55, 0
1, 104160, Note_on_c, 0, 62, 24
1, 104400, Tempo, 510247
1, 104400, Note_on_c, 0, 62, 0
1, 104400, Note_on_c, 0, 71, 0
1, 104400, Note_on_c, 0, 74, 45
1, 104400, Note_on_c, 0, 55, 22
1, 104640, Tempo, 472106
1, 104640, Note_on_c, 0, 55, 0
1, 104640, Note_on_c, 0, 74, 0
1, 104640, Note_on_c, 0, 77, 53
1, 104640, Note_on_c, 0, 62, 30
1, 104653, Control_c, 0, 64, 0
1, 104880, Note_on_c, 0, 62, 0
1, 104880, Note_on_c, 0, 77, 0
1, 104880, Note_on_c, 0, 83, 50
1, 104880, Note_on_c, 0, 55, 22
1, 105000, Note_on_c, 0, 83, 0
1, 105120, Note_on_c, 0, 55, 0
1, 105120, Note_on_c, 0, 83, 52
1, 105120, Note_on_c, 0, 62, 29
1, 105240, Note_on_c, 0, 83, 0
1, 105360, Tempo, 508087
1, 105360, Note_on_c, 0, 62, 0
1, 105360, Note_on_c, 0, 83, 54
1, 105360, Note_on_c, 0, 55, 26
1, 105480, Note_on_c, 0, 83, 0
1, 105600, Tempo, 472851
1, 105600, Note_on_c, 0, 55, 0
1, 105600, Note_on_c, 0, 72, 63
1, 105600, Note_on_c, 0, 64, 35
1, 105840, Note_on_c, 0, 64, 0
1, 105840, Note_on_c, 0, 72, 0
1, 105840, Note_on_c, 0, 74, 54
1, 105840, Note_on_c, 0, 55, 27
1, 105960, Note_on_c, 0, 74, 0
1, 105960, Note_on_c, 0, 76, 56
1, 106080, Note_on_c, 0, 76, 0
1, 106080, Note_on_c, 0, 55, 0
1, 106080, Note_on_c, 0, 77, 58
1, 106080, Note_on_c, 0, 64, 30
1, 106200, Note_on_c, 0, 77, 0
1, 106200, Note_on_c, 0, 79, 62
1, 106320, Tempo, 515508
1, 106320, Note_on_c, 0, 79, 0
1, 106320, Note_on_c, 0, 64, 0
1, 106320, Note_on_c, 0, 81, 63
1, 106320, Note_on_c, 0, 55, 27
1, 106440, Tempo, 470995
1, 106440, Note_on_c, 0, 81, 0
1, 106440, Note_on_c, 0, 83, 67
1, 106560, Note_on_c, 0, 83, 0
1, 106560, Note_on_c, 0, 55, 0
1, 106560, Note_on_c, 0, 84, 74
1, 106560, Note_on_c, 0, 64, 40
1, 106687, Control_c, 0, 64, 127
1, 106800, Note_on_c, 0, 64, 0
1, 106800, Note_on_c, 0, 84, 0
1, 106800, Note_on_c, 0, 55, 33
1, 107040, Note_on_c, 0, 55, 0
1, 107040, Note_on_c, 0, 64, 43
1, 107280, Tempo, 490236
1, 107280, Note_on_c, 0, 64, 0
1, 107280, Note_on_c, 0, 55, 35
1, 107520, Tempo, 472106
1, 107520, Note_on_c, 0, 55, 0
1, 107520, Note_on_c, 0, 86, 77
1, 107520, Note_on_c, 0, 65, 54
1, 107527, Control_c, 0, 64, 0
1, 107640, Note_on_c, 0, 86, 0
1, 107760, Tempo, 485476
1, 107760, Note_on_c, 0, 65, 0
1, 107760, Note_on_c, 0, 86, 66
1, 107760, Note_on_c, 0, 55, 40
1, 107880, Note_on_c, 0, 86, 0
1, 108000, Tempo, 472106
1, 108000, Note_on_c, 0, 55, 0
1, 108000, Note_on_c, 0, 83, 70
1, 108000, Note_on_c, 0, 65, 45
1, 108120, Note_on_c, 0, 83, 0
1, 108240, Note_on_c, 0, 65, 0
1, 108240, Note_on_c, 0, 83, 63
1, 108240, Note_on_c, 0, 55, 40
1, 108360, Note_on_c, 0, 83, 0
1, 108480, Note_on_c, 0, 55, 0
1, 108480, Note_on_c, 0, 79, 70
1, 108480, Note_on_c, 0, 65, 53
1, 108600, Note_on_c, 0, 79, 0
1, 108720, Tempo, 485476
1, 108720, Note_on_c, 0, 65, 0
1, 108720, Note_on_c, 0, 79, 59
1, 108720, Note_on_c, 0, 55, 40
1, 108840, Note_on_c, 0, 79, 0
1, 108960, Tempo, 465513
1, 108960, Note_on_c, 0, 55, 0
1, 108960, Note_on_c, 0, 79, 70
1, 108960, Note_on_c, 0, 65, 48
1, 109080, Note_on_c, 0, 79, 0
1, 109080, Note_on_c, 0, 81, 58
1, 109200, Note_on_c, 0, 81, 0
1, 109200, Note_on_c, 0, 65, 0
1, 109200, Note_on_c, 0, 83, 63
1, 109200, Note_on_c, 0, 55, 40
1, 109320, Note_on_c, 0, 83, 0
1, 109320, Note_on_c, 0, 79, 56
1, 109440, Tempo, 470995
1, 109440, Note_on_c, 0, 79, 0
1, 109440, Note_on_c, 0, 55, 0
1, 109440, Note_on_c, 0, 84, 70
1, 109440, Note_on_c, 0, 63, 54
1, 109560, Note_on_c, 0, 84, 0
1, 109680, Tempo, 485476
1, 109680, Note_on_c, 0, 63, 0
1, 109680, Note_on_c, 0, 84, 63
1, 109680, Note_on_c, 0, 55, 40
1, 109800, Note_on_c, 0, 84, 0
1, 109920, Tempo, 472106
1, 109920, Note_on_c, 0, 55, 0
1, 109920, Note_on_c, 0, 79, 70
1, 109920, Note_on_c, 0, 63, 45
1, 110040, Note_on_c, 0, 79, 0
1, 110160, Note_on_c, 0, 63, 0
1, 110160, Note_on_c, 0, 79, 63
1, 110160, Note_on_c, 0, 55, 40
1, 110280, Note_on_c, 0, 79, 0
1, 110400, Note_on_c, 0, 55, 0
1, 110400, Note_on_c, 0, 75, 70
1, 110400, Note_on_c, 0, 63, 53
1, 110520, Note_on_c, 0, 75, 0
1, 110640, Tempo, 485476
1, 110640, Note_on_c, 0, 63, 0
1, 110640, Note_on_c, 0, 75, 59
1, 110640, Note_on_c, 0, 55, 40
1, 110760, Note_on_c, 0, 75, 0
1, 110880, Tempo, 465513
1, 110880, Note_on_c, 0, 55, 0
1, 110880, Note_on_c, 0, 72, 69
1, 110880, Note_on_c, 0, 63, 48
1, 111000, Note_on_c, 0, 72, 0
1, 111000, Note_on_c, 0, 74, 54
1, 111120, Note_on_c, 0, 74, 0
1, 111120, Note_on_c, 0, 63, 0
1, 111120, Note_on_c, 0, 75, 62
1, 111120, Note_on_c, 0, 55, 40
1, 111240, Note_on_c, 0, 75, 0
1, 111240, Note_on_c, 0, 72, 55
1, 111360, Tempo, 469153
1, 111360, Note_on_c, 0, 72, 0
1, 111360, Note_on_c, 0, 55, 0
1, 111360, Note_on_c, 0, 71, 70
1, 111360, Note_on_c, 0, 62, 48
1, 111480, Note_on_c, 0, 71, 0
1, 111600, Note_on_c, 0, 62, 0
1, 111600, Note_on_c, 0, 71, 58
1, 111600, Note_on_c, 0, 55, 37
1, 111720, Note_on_c, 0, 71, 0
1, 111840, Note_on_c, 0, 55, 0
1, 111840, Note_on_c, 0, 68, 63
1, 111840, Note_on_c, 0, 60, 42
1, 111960, Note_on_c, 0, 68, 0
1, 112080, Note_on_c, 0, 60, 0
1, 112080, Note_on_c, 0, 68, 52
1, 112080, Note_on_c, 0, 55, 32
1, 112200, Note_on_c, 0, 68, 0
1, 112320, Tempo, 474721
1, 112320, Note_on_c, 0, 55, 0
1, 112320, Note_on_c, 0, 67, 58
1, 112320, Note_on_c, 0, 59, 43
1, 112440, Note_on_c, 0, 67, 0
1, 112560, Note_on_c, 0, 59, 0
1, 112560, Note_on_c, 0, 67, 49
1, 112560, Note_on_c, 0, 55, 32
1, 112680, Note_on_c, 0, 67, 0
1, 112800, Note_on_c, 0, 55, 0
1, 112800, Note_on_c, 0, 66, 56
1, 112800, Note_on_c, 0, 60, 41
1, 112920, Note_on_c, 0, 66, 0
1, 113040, Tempo, 502555
1, 113040, Note_on_c, 0, 60, 0
1, 113040, Note_on_c, 0, 66, 51
1, 113040, Note_on_c, 0, 55, 26
1, 113160, Note_on_c, 0, 66, 0
1, 113280, Tempo, 478507
1, 113280, Note_on_c, 0, 55, 0
1, 113280, Note_on_c, 0, 67, 55
1, 113280, Note_on_c, 0, 59, 33
1, 113280, Note_on_c, 0, 55, 28
1, 113400, Note_on_c, 0, 67, 0
1, 113520, Note_on_c, 0, 67, 43
1, 113640, Note_on_c, 0, 67, 0
1, 113760, Note_on_c, 0, 59, 0
1, 113760, Note_on_c, 0, 66, 54
1, 113760, Note_on_c, 0, 60, 25
1, 113880, Note_on_c, 0, 66, 0
1, 114000, Tempo, 492247
1, 114000, Note_on_c, 0, 66, 43
1, 114120, Note_on_c, 0, 66, 0
1, 114240, Tempo, 478507
1, 114240, Note_on_c, 0, 60, 0
1, 114240, Note_on_c, 0, 67, 50
1, 114240, Note_on_c, 0, 59, 35
1, 114360, Note_on_c, 0, 67, 0
1, 114480, Note_on_c, 0, 67, 40
1, 114600, Note_on_c, 0, 67, 0
1, 114720, Note_on_c, 0, 59, 0
1, 114720, Note_on_c, 0, 66, 46
1, 114720, Note_on_c, 0, 60, 29
1, 114840, Note_on_c, 0, 66, 0
1, 114960, Tempo, 513303
1, 114960, Note_on_c, 0, 66, 31
1, 115080, Note_on_c, 0, 66, 0
1, 115200, Tempo, 490236
1, 115200, Note_on_c, 0, 60, 0
1, 115200, Note_on_c, 0, 55, 0
1, 115200, Note_on_c, 0, 67, 41
1, 115200, Note_on_c, 0, 55, 24
1, 115200, Note_on_c, 0, 59, 32
1, 115299, Tempo, 486263
1, 115320, Note_on_c, 0, 67, 0
1, 115440, Note_on_c, 0, 67, 34
1, 115555, Tempo, 488242
1, 115560, Note_on_c, 0, 67, 0
1, 115680, Note_on_c, 0, 59, 0
1, 115680, Note_on_c, 0, 55, 0
1, 115680, Note_on_c, 0, 66, 41
1, 115800, Note_on_c, 0, 66, 0
1, 115811, Tempo, 490236
1, 115920, Note_on_c, 0, 66, 35
1, 116040, Note_on_c, 0, 66, 0
1, 116067, Tempo, 492247
1, 116160, Note_on_c, 0, 67, 41
1, 116163, Tempo, 513303
1, 116280, Note_on_c, 0, 67, 0
1, 116400, Note_on_c, 0, 67, 34
1, 116520, Note_on_c, 0, 67, 0
1, 116640, Note_on_c, 0, 66, 40
1, 116643, Tempo, 513303
1, 116675, Tempo, 515508
1, 116707, Tempo, 519976
1, 116739, Tempo, 522239
1, 116760, Note_on_c, 0, 66, 0
1, 116771, Tempo, 526824
1, 116803, Tempo, 515508
1, 116867, Tempo, 517732
1, 116880, Tempo, 566626
1, 116880, Note_on_c, 0, 66, 33
1, 117000, Note_on_c, 0, 66, 0
1, 117120, Tempo, 475851
1, 117120, Note_on_c, 0, 67, 63
1, 117120, Note_on_c, 0, 52, 36
1, 117148, Control_c, 0, 64, 127
1, 117360, Note_on_c, 0, 52, 0
1, 117360, Note_on_c, 0, 48, 28
1, 117600, Note_on_c, 0, 48, 0
1, 117600, Note_on_c, 0, 52, 31
1, 117840, Tempo, 510247
1, 117840, Note_on_c, 0, 52, 0
1, 117840, Note_on_c, 0, 67, 0
1, 117840, Note_on_c, 0, 64, 58
1, 117840, Note_on_c, 0, 48, 28
1, 118080, Tempo, 472106
1, 118080, Note_on_c, 0, 48, 0
1, 118080, Note_on_c, 0, 64, 0
1, 118080, Note_on_c, 0, 60, 63
1, 118080, Note_on_c, 0, 52, 36
1, 118093, Control_c, 0, 64, 0
1, 118320, Note_on_c, 0, 52, 0
1, 118320, Note_on_c, 0, 60, 0
1, 118320, Note_on_c, 0, 55, 58
1, 118320, Note_on_c, 0, 48, 26
1, 118440, Note_on_c, 0, 55, 0
1, 118560, Note_on_c, 0, 48, 0
1, 118560, Note_on_c, 0, 55, 58
1, 118560, Note_on_c, 0, 52, 33
1, 118680, Note_on_c, 0, 55, 0
1, 118800, Tempo, 508087
1, 118800, Note_on_c, 0, 52, 0
1, 118800, Note_on_c, 0, 55, 58
1, 118800, Note_on_c, 0, 48, 28
1, 118920, Note_on_c, 0, 55, 0
1, 119040, Tempo, 472106
1, 119040, Note_on_c, 0, 48, 0
1, 119040, Note_on_c, 0, 67, 63
1, 119040, Note_on_c, 0, 52, 36
1, 119132, Control_c, 0, 64, 127
1, 119280, Note_on_c, 0, 52, 0
1, 119280, Note_on_c, 0, 48, 28
1, 119520, Note_on_c, 0, 48, 0
1, 119520, Note_on_c, 0, 52, 31
1, 119760, Tempo, 491441
1, 119760, Note_on_c, 0, 52, 0
1, 119760, Note_on_c, 0, 67, 0
1, 119760, Note_on_c, 0, 64, 53
1, 119760, Note_on_c, 0, 48, 28
1, 119976, Tempo, 475851
1, 120000, Note_on_c, 0, 48, 0
1, 120000, Note_on_c, 0, 64, 0
1, 120000, Note_on_c, 0, 60, 56
1, 120000, Note_on_c, 0, 52, 36
1, 120015, Control_c, 0, 64, 0
1, 120072, Tempo, 473971
1, 120120, Note_on_c, 0, 60, 0
1, 120120, Note_on_c, 0, 62, 54
1, 120144, Tempo, 472106
1, 120216, Tempo, 470256
1, 120240, Note_on_c, 0, 62, 0
1, 120240, Note_on_c, 0, 52, 0
1, 120240, Note_on_c, 0, 64, 55
1, 120240, Note_on_c, 0, 48, 26
1, 120288, Tempo, 468421
1, 120360, Tempo, 466599
1, 120360, Note_on_c, 0, 64, 0
1, 120360, Note_on_c, 0, 65, 56
1, 120432, Tempo, 468421
1, 120480, Tempo, 470256
1, 120480, Note_on_c, 0, 65, 0
1, 120480, Note_on_c, 0, 48, 0
1, 120480, Note_on_c, 0, 67, 57
1, 120480, Note_on_c, 0, 52, 33
1, 120528, Tempo, 472106
1, 120600, Tempo, 473971
1, 120600, Note_on_c, 0, 67, 0
1, 120600, Note_on_c, 0, 69, 58
1, 120648, Tempo, 475851
1, 120696, Tempo, 477745
1, 120720, Note_on_c, 0, 69, 0
1, 120720, Note_on_c, 0, 52, 0
1, 120720, Note_on_c, 0, 71, 60
1, 120720, Note_on_c, 0, 48, 28
1, 120768, Tempo, 479655
1, 120816, Tempo, 481580
1, 120840, Note_on_c, 0, 71, 0
1, 120840, Note_on_c, 0, 72, 63
1, 120864, Tempo, 483520
1, 120912, Tempo, 485476
1, 120960, Tempo, 470256
1, 120960, Note_on_c, 0, 72, 0
1, 120960, Note_on_c, 0, 48, 0
1, 120960, Note_on_c, 0, 71, 68
1, 120960, Note_on_c, 0, 53, 36
1, 121200, Note_on_c, 0, 53, 0
1, 121200, Note_on_c, 0, 71, 0
1, 121200, Note_on_c, 0, 69, 58
1, 121200, Note_on_c, 0, 48, 28
1, 121320, Note_on_c, 0, 69, 0
1, 121440, Note_on_c, 0, 48, 0
1, 121440, Note_on_c, 0, 69, 63
1, 121440, Note_on_c, 0, 53, 31
1, 121560, Note_on_c, 0, 69, 0
1, 121680, Tempo, 489436
1, 121680, Note_on_c, 0, 53, 0
1, 121680, Note_on_c, 0, 69, 61
1, 121680, Note_on_c, 0, 48, 28
1, 121800, Note_on_c, 0, 69, 0
1, 121920, Tempo, 468421
1, 121920, Note_on_c, 0, 48, 0
1, 121920, Note_on_c, 0, 71, 63
1, 121920, Note_on_c, 0, 53, 36
1, 122040, Note_on_c, 0, 71, 0
1, 122040, Note_on_c, 0, 69, 57
1, 122160, Note_on_c, 0, 69, 0
1, 122160, Note_on_c, 0, 53, 0
1, 122160, Note_on_c, 0, 68, 63
1, 122160, Note_on_c, 0, 48, 26
1, 122280, Note_on_c, 0, 68, 0
1, 122280, Note_on_c, 0, 69, 58
1, 122400, Note_on_c, 0, 69, 0
1, 122400, Note_on_c, 0, 48, 0
1, 122400, Note_on_c, 0, 72, 63
1, 122400, Note_on_c, 0, 53, 33
1, 122580, Note_on_c, 0, 72, 0
1, 122640, Tempo, 505945
1, 122640, Note_on_c, 0, 53, 0
1, 122640, Note_on_c, 0, 69, 56
1, 122640, Note_on_c, 0, 48, 28
1, 122820, Note_on_c, 0, 69, 0
1, 122880, Tempo, 481580
1, 122880, Note_on_c, 0, 48, 0
1, 122880, Note_on_c, 0, 66, 65
1, 122880, Note_on_c, 0, 52, 36
1, 123120, Note_on_c, 0, 52, 0
1, 123120, Note_on_c, 0, 66, 0
1, 123120, Note_on_c, 0, 67, 58
1, 123120, Note_on_c, 0, 48, 28
1, 123240, Note_on_c, 0, 67, 0
1, 123360, Note_on_c, 0, 48, 0
1, 123360, Note_on_c, 0, 67, 63
1, 123360, Note_on_c, 0, 52, 31
1, 123480, Note_on_c, 0, 67, 0
1, 123600, Note_on_c, 0, 52, 0
1, 123600, Note_on_c, 0, 67, 57
1, 123600, Note_on_c, 0, 48, 28
1, 123720, Note_on_c, 0, 67, 0
1, 123840, Tempo, 475851
1, 123840, Note_on_c, 0, 48, 0
1, 123840, Note_on_c, 0, 67, 63
1, 123840, Note_on_c, 0, 52, 34
1, 123897, Control_c, 0, 64, 127
1, 124080, Tempo, 462999
1, 124080, Note_on_c, 0, 52, 0
1, 124080, Note_on_c, 0, 48, 26
1, 124320, Note_on_c, 0, 48, 0
1, 124320, Note_on_c, 0, 67, 0
1, 124320, Note_on_c, 0, 52, 33
1, 124327, Control_c, 0, 64, 0
1, 124560, Tempo, 487448
1, 124560, Note_on_c, 0, 52, 0
1, 124560, Note_on_c, 0, 48, 27
1, 124800, Tempo, 468421
1, 124800, Note_on_c, 0, 48, 0
1, 124800, Note_on_c, 0, 62, 37
1, 124800, Note_on_c, 0, 65, 45
1, 124800, Note_on_c, 0, 55, 31
1, 124920, Note_on_c, 0, 65, 0
1, 124920, Note_on_c, 0, 62, 0
1, 125040, Note_on_c, 0, 65, 41
1, 125040, Note_on_c, 0, 62, 35
1, 125160, Note_on_c, 0, 62, 0
1, 125160, Note_on_c, 0, 65, 0
1, 125280, Tempo, 475851
1, 125280, Note_on_c, 0, 55, 0
1, 125280, Note_on_c, 0, 60, 37
1, 125280, Note_on_c, 0, 64, 45
1, 125400, Note_on_c, 0, 64, 0
1, 125400, Note_on_c, 0, 60, 0
1, 125520, Tempo, 495499
1, 125520, Note_on_c, 0, 64, 36
1, 125520, Note_on_c, 0, 60, 30
1, 125640, Note_on_c, 0, 60, 0
1, 125640, Note_on_c, 0, 64, 0
1, 125760, Tempo, 470256
1, 125760, Note_on_c, 0, 59, 37
1, 125760, Note_on_c, 0, 62, 45
1, 125760, Note_on_c, 0, 55, 40
1, 125880, Note_on_c, 0, 55, 0
1, 126000, Note_on_c, 0, 55, 36
1, 126120, Note_on_c, 0, 55, 0
1, 126240, Tempo, 475851
1, 126240, Note_on_c, 0, 62, 0
1, 126240, Note_on_c, 0, 59, 0
1, 126240, Note_on_c, 0, 53, 40
1, 126360, Note_on_c, 0, 53, 0
1, 126480, Tempo, 491441
1, 126480, Note_on_c, 0, 53, 34
1, 126600, Note_on_c, 0, 53, 0
1, 126720, Tempo, 468421
1, 126720, Note_on_c, 0, 64, 37
1, 126720, Note_on_c, 0, 67, 45
1, 126720, Note_on_c, 0, 52, 31
1, 126840, Note_on_c, 0, 67, 0
1, 126840, Note_on_c, 0, 64, 0
1, 126960, Note_on_c, 0, 67, 41
1, 126960, Note_on_c, 0, 64, 35
1, 127080, Note_on_c, 0, 64, 0
1, 127080, Note_on_c, 0, 67, 0
1, 127200, Tempo, 475851
1, 127200, Note_on_c, 0, 52, 0
1, 127200, Note_on_c, 0, 62, 37
1, 127200, Note_on_c, 0, 65, 45
1, 127320, Note_on_c, 0, 65, 0
1, 127320, Note_on_c, 0, 62, 0
1, 127440, Tempo, 478507
1, 127440, Note_on_c, 0, 65, 36
1, 127440, Note_on_c, 0, 62, 30
1, 127560, Note_on_c, 0, 62, 0
1, 127560, Note_on_c, 0, 65, 0
1, 127680, Tempo, 470256
1, 127680, Note_on_c, 0, 60, 37
1, 127680, Note_on_c, 0, 64, 45
1, 127680, Note_on_c, 0, 57, 40
1, 127800, Note_on_c, 0, 57, 0
1, 127920, Note_on_c, 0, 57, 36
1, 128040, Note_on_c, 0, 57, 0
1, 128160, Tempo, 475851
1, 128160, Note_on_c, 0, 64, 0
1, 128160, Note_on_c, 0, 60, 0
1, 128160, Note_on_c, 0, 55, 40
1, 128280, Note_on_c, 0, 55, 0
1, 128400, Tempo, 491441
1, 128400, Note_on_c, 0, 55, 34
1, 128520, Note_on_c, 0, 55, 0
1, 128640, Tempo, 472106
1, 128640, Note_on_c, 0, 69, 61
1, 128640, Note_on_c, 0, 65, 51
1, 128640, Note_on_c, 0, 53, 40
1, 128760, Note_on_c, 0, 53, 0
1, 128760, Note_on_c, 0, 65, 0
1, 128760, Note_on_c, 0, 69, 0
1, 128880, Note_on_c, 0, 65, 45
1, 128880, Note_on_c, 0, 69, 54
1, 128880, Note_on_c, 0, 53, 36
1, 129000, Note_on_c, 0, 53, 0
1, 129000, Note_on_c, 0, 69, 0
1, 129000, Note_on_c, 0, 65, 0
1, 129120, Tempo, 470256
1, 129120, Note_on_c, 0, 73, 66
1, 129120, Note_on_c, 0, 67, 55
1, 129120, Note_on_c, 0, 52, 43
1, 129240, Note_on_c, 0, 52, 0
1, 129240, Note_on_c, 0, 67, 0
1, 129240, Note_on_c, 0, 73, 0
1, 129360, Tempo, 461219
1, 129360, Note_on_c, 0, 67, 48
1, 129360, Note_on_c, 0, 73, 58
1, 129360, Note_on_c, 0, 52, 36
1, 129480, Note_on_c, 0, 52, 0
1, 129480, Note_on_c, 0, 73, 0
1, 129480, Note_on_c, 0, 67, 0
1, 129600, Tempo, 473971
1, 129600, Note_on_c, 0, 74, 68
1, 129600, Note_on_c, 0, 65, 58
1, 129600, Note_on_c, 0, 50, 32
1, 129720, Tempo, 470256
1, 129720, Note_on_c, 0, 65, 0
1, 129720, Note_on_c, 0, 74, 0
1, 129840, Note_on_c, 0, 65, 48
1, 129840, Note_on_c, 0, 74, 57
1, 129960, Note_on_c, 0, 74, 0
1, 129960, Note_on_c, 0, 65, 0
1, 130080, Tempo, 470256
1, 130080, Note_on_c, 0, 50, 0
1, 130080, Note_on_c, 0, 66, 56
1, 130080, Note_on_c, 0, 72, 67
1, 130200, Note_on_c, 0, 72, 0
1, 130200, Note_on_c, 0, 66, 0
1, 130320, Tempo, 466599
1, 130320, Note_on_c, 0, 66, 51
1, 130320, Note_on_c, 0, 72, 62
1, 130440, Note_on_c, 0, 72, 0
1, 130440, Note_on_c, 0, 66, 0
1, 130560, Tempo, 470256
1, 130560, Note_on_c, 0, 71, 68
1, 130560, Note_on_c, 0, 67, 57
1, 130560, Note_on_c, 0, 55, 44
1, 130680, Note_on_c, 0, 55, 0
1, 130680, Note_on_c, 0, 67, 0
1, 130680, Note_on_c, 0, 71, 0
1, 130800, Note_on_c, 0, 67, 51
1, 130800, Note_on_c, 0, 71, 61
1, 130800, Note_on_c, 0, 55, 41
1, 130920, Note_on_c, 0, 55, 0
1, 130920, Note_on_c, 0, 71, 0
1, 130920, Note_on_c, 0, 67, 0
1, 131040, Tempo, 470256
1, 131040, Note_on_c, 0, 75, 71
1, 131040, Note_on_c, 0, 69, 59
1, 131040, Note_on_c, 0, 53, 46
1, 131160, Note_on_c, 0, 53, 0
1, 131160, Note_on_c, 0, 69, 0
1, 131160, Note_on_c, 0, 75, 0
1, 131280, Tempo, 473971
1, 131280, Note_on_c, 0, 69, 52
1, 131280, Note_on_c, 0, 75, 63
1, 131280, Note_on_c, 0, 53, 39
1, 131400, Note_on_c, 0, 53, 0
1, 131400, Note_on_c, 0, 75, 0
1, 131400, Note_on_c, 0, 69, 0
1, 131520, Tempo, 472106
1, 131520, Note_on_c, 0, 76, 71
1, 131520, Note_on_c, 0, 68, 60
1, 131520, Note_on_c, 0, 52, 47
1, 131640, Note_on_c, 0, 52, 0
1, 131640, Note_on_c, 0, 68, 0
1, 131640, Note_on_c, 0, 76, 0
1, 131760, Note_on_c, 0, 68, 54
1, 131760, Note_on_c, 0, 76, 64
1, 131760, Note_on_c, 0, 52, 43
1, 131880, Note_on_c, 0, 52, 0
1, 131880, Note_on_c, 0, 76, 0
1, 131880, Note_on_c, 0, 68, 0
1, 132000, Tempo, 475851
1, 132000, Note_on_c, 0, 68, 62
1, 132000, Note_on_c, 0, 76, 75
1, 132000, Note_on_c, 0, 71, 62
1, 132000, Note_on_c, 0, 50, 48
1, 132120, Note_on_c, 0, 50, 0
1, 132120, Note_on_c, 0, 68, 0
1, 132120, Note_on_c, 0, 76, 0
1, 132120, Note_on_c, 0, 71, 0
1, 132240, Tempo, 468421
1, 132240, Note_on_c, 0, 68, 55
1, 132240, Note_on_c, 0, 71, 55
1, 132240, Note_on_c, 0, 76, 66
1, 132240, Note_on_c, 0, 50, 41
1, 132360, Note_on_c, 0, 50, 0
1, 132360, Note_on_c, 0, 68, 0
1, 132360, Note_on_c, 0, 71, 0
1, 132360, Note_on_c, 0, 76, 0
1, 132480, Tempo, 472106
1, 132480, Note_on_c, 0, 72, 63
1, 132480, Note_on_c, 0, 76, 76
1, 132480, Note_on_c, 0, 69, 63
1, 132480, Note_on_c, 0, 48, 50
1, 132600, Note_on_c, 0, 48, 0
1, 132600, Note_on_c, 0, 72, 0
1, 132600, Note_on_c, 0, 76, 0
1, 132600, Note_on_c, 0, 69, 0
1, 132720, Note_on_c, 0, 72, 56
1, 132720, Note_on_c, 0, 69, 56
1, 132720, Note_on_c, 0, 76, 67
1, 132720, Note_on_c, 0, 48, 45
1, 132840, Note_on_c, 0, 48, 0
1, 132840, Note_on_c, 0, 72, 0
1, 132840, Note_on_c, 0, 69, 0
1, 132840, Note_on_c, 0, 76, 0
1, 132960, Note_on_c, 0, 71, 65
1, 132960, Note_on_c, 0, 76, 77
1, 132960, Note_on_c, 0, 74, 65
1, 132960, Note_on_c, 0, 47, 50
1, 133080, Note_on_c, 0, 47, 0
1, 133080, Note_on_c, 0, 71, 0
1, 133080, Note_on_c, 0, 76, 0
1, 133080, Note_on_c, 0, 74, 0
1, 133200, Note_on_c, 0, 74, 56
1, 133200, Note_on_c, 0, 71, 56
1, 133200, Note_on_c, 0, 76, 67
1, 133200, Note_on_c, 0, 47, 42
1, 133320, Tempo, 466599
1, 133320, Note_on_c, 0, 47, 0
1, 133320, Note_on_c, 0, 74, 0
1, 133320, Note_on_c, 0, 71, 0
1, 133320, Note_on_c, 0, 76, 0
1, 133440, Tempo, 470256
1, 133440, Note_on_c, 0, 72, 63
1, 133440, Note_on_c, 0, 76, 76
1, 133440, Note_on_c, 0, 45, 50
1, 133560, Note_on_c, 0, 45, 0
1, 133560, Note_on_c, 0, 76, 0
1, 133560, Note_on_c, 0, 72, 0
1, 133680, Note_on_c, 0, 72, 56
1, 133680, Note_on_c, 0, 76, 67
1, 133680, Note_on_c, 0, 45, 45
1, 133800, Note_on_c, 0, 45, 0
1, 133800, Note_on_c, 0, 76, 0
1, 133800, Note_on_c, 0, 72, 0
1, 133920, Tempo, 475851
1, 133920, Note_on_c, 0, 76, 83
1, 133920, Note_on_c, 0, 73, 70
1, 133920, Note_on_c, 0, 43, 54
1, 134040, Note_on_c, 0, 43, 0
1, 134040, Note_on_c, 0, 73, 0
1, 134040, Note_on_c, 0, 76, 0
1, 134160, Note_on_c, 0, 73, 60
1, 134160, Note_on_c, 0, 76, 72
1, 134160, Note_on_c, 0, 43, 45
1, 134280, Note_on_c, 0, 43, 0
1, 134280, Note_on_c, 0, 76, 0
1, 134280, Note_on_c, 0, 73, 0
1, 134400, Tempo, 472106
1, 134400, Note_on_c, 0, 74, 68
1, 134400, Note_on_c, 0, 77, 82
1, 134400, Note_on_c, 0, 41, 54
1, 134520, Note_on_c, 0, 41, 0
1, 134520, Note_on_c, 0, 77, 0
1, 134520, Note_on_c, 0, 74, 0
1, 134640, Note_on_c, 0, 74, 60
1, 134640, Note_on_c, 0, 77, 72
1, 134640, Note_on_c, 0, 41, 48
1, 134760, Note_on_c, 0, 41, 0
1, 134760, Note_on_c, 0, 77, 0
1, 134760, Note_on_c, 0, 74, 0
1, 134880, Tempo, 475851
1, 134880, Note_on_c, 0, 79, 83
1, 134880, Note_on_c, 0, 76, 70
1, 134880, Note_on_c, 0, 40, 54
1, 135000, Note_on_c, 0, 40, 0
1, 135000, Note_on_c, 0, 76, 0
1, 135000, Note_on_c, 0, 79, 0
1, 135120, Note_on_c, 0, 76, 60
1, 135120, Note_on_c, 0, 79, 72
1, 135120, Note_on_c, 0, 40, 45
1, 135240, Tempo, 493462
1, 135240, Note_on_c, 0, 40, 0
1, 135240, Note_on_c, 0, 79, 0
1, 135240, Note_on_c, 0, 76, 0
1, 135360, Note_on_c, 0, 81, 87
1, 135360, Note_on_c, 0, 77, 73
1, 135360, Note_on_c, 0, 38, 61
1, 135427, Tempo, 482354
1, 135555, Tempo, 484301
1, 135600, Note_on_c, 0, 38, 0
1, 135600, Note_on_c, 0, 77, 0
1, 135600, Note_on_c, 0, 81, 0
1, 135600, Note_on_c, 0, 79, 80
1, 135600, Note_on_c, 0, 76, 68
1, 135600, Note_on_c, 0, 40, 51
1, 135651, Tempo, 486263
1, 135747, Tempo, 488242
1, 135840, Note_on_c, 0, 40, 0
1, 135840, Note_on_c, 0, 76, 0
1, 135840, Note_on_c, 0, 79, 0
1, 135840, Note_on_c, 0, 77, 86
1, 135840, Note_on_c, 0, 74, 73
1, 135840, Note_on_c, 0, 41, 63
1, 135843, Tempo, 490236
1, 135971, Tempo, 492247
1, 136067, Tempo, 494275
1, 136080, Note_on_c, 0, 41, 0
1, 136080, Note_on_c, 0, 74, 0
1, 136080, Note_on_c, 0, 77, 0
1, 136080, Note_on_c, 0, 76, 81
1, 136080, Note_on_c, 0, 72, 68
1, 136080, Note_on_c, 0, 42, 56
1, 136163, Tempo, 496319
1, 136259, Tempo, 498380
1, 136320, Note_on_c, 0, 42, 0
1, 136320, Note_on_c, 0, 72, 0
1, 136320, Note_on_c, 0, 76, 0
1, 136320, Note_on_c, 0, 71, 73
1, 136320, Note_on_c, 0, 74, 87
1, 136320, Note_on_c, 0, 43, 66
1, 136440, Note_on_c, 0, 43, 0
1, 136560, Note_on_c, 0, 74, 0
1, 136560, Note_on_c, 0, 71, 0
1, 136560, Note_on_c, 0, 43, 55
1, 136680, Note_on_c, 0, 43, 0
1, 136800, Tempo, 488242
1, 136800, Note_on_c, 0, 77, 79
1, 136800, Note_on_c, 0, 71, 67
1, 136800, Note_on_c, 0, 43, 64
1, 136920, Note_on_c, 0, 43, 0
1, 136920, Note_on_c, 0, 71, 0
1, 136920, Note_on_c, 0, 77, 0
1, 137040, Note_on_c, 0, 71, 61
1, 137040, Note_on_c, 0, 77, 72
1, 137040, Note_on_c, 0, 43, 55
1, 137160, Note_on_c, 0, 43, 0
1, 137160, Note_on_c, 0, 77, 0
1, 137160, Note_on_c, 0, 71, 0
1, 137280, Tempo, 500459
1, 137280, Note_on_c, 0, 76, 79
1, 137280, Note_on_c, 0, 72, 67
1, 137280, Note_on_c, 0, 43, 63
1, 137400, Note_on_c, 0, 43, 0
1, 137520, Note_on_c, 0, 72, 0
1, 137520, Note_on_c, 0, 76, 0
1, 137520, Note_on_c, 0, 43, 56
1, 137640, Note_on_c, 0, 43, 0
1, 137760, Tempo, 490236
1, 137760, Note_on_c, 0, 72, 78
1, 137760, Note_on_c, 0, 66, 66
1, 137760, Note_on_c, 0, 43, 66
1, 137880, Note_on_c, 0, 43, 0
1, 137880, Note_on_c, 0, 66, 0
1, 137880, Note_on_c, 0, 72, 0
1, 138000, Note_on_c, 0, 66, 58
1, 138000, Note_on_c, 0, 72, 69
1, 138000, Note_on_c, 0, 43, 57
1, 138120, Note_on_c, 0, 43, 0
1, 138120, Note_on_c, 0, 72, 0
1, 138120, Note_on_c, 0, 66, 0
1, 138240, Tempo, 500459
1, 138240, Note_on_c, 0, 67, 66
1, 138240, Note_on_c, 0, 71, 78
1, 138240, Note_on_c, 0, 43, 66
1, 138360, Note_on_c, 0, 43, 0
1, 138480, Note_on_c, 0, 71, 0
1, 138480, Note_on_c, 0, 67, 0
1, 138480, Note_on_c, 0, 43, 55
1, 138600, Note_on_c, 0, 43, 0
1, 138720, Tempo, 490236
1, 138720, Note_on_c, 0, 59, 62
1, 138720, Note_on_c, 0, 65, 74
1, 138720, Note_on_c, 0, 43, 64
1, 138840, Note_on_c, 0, 43, 0
1, 138840, Note_on_c, 0, 65, 0
1, 138840, Note_on_c, 0, 59, 0
1, 138960, Note_on_c, 0, 65, 65
1, 138960, Note_on_c, 0, 59, 55
1, 138960, Note_on_c, 0, 43, 55
1, 139080, Note_on_c, 0, 43, 0
1, 139080, Note_on_c, 0, 59, 0
1, 139080, Note_on_c, 0, 65, 0
1, 139200, Tempo, 504668
1, 139200, Note_on_c, 0, 60, 62
1, 139200, Note_on_c, 0, 64, 74
1, 139200, Note_on_c, 0, 43, 63
1, 139320, Note_on_c, 0, 43, 0
1, 139440, Note_on_c, 0, 64, 0
1, 139440, Note_on_c, 0, 60, 0
1, 139440, Note_on_c, 0, 43, 56
1, 139560, Note_on_c, 0, 43, 0
1, 139680, Tempo, 494275
1, 139680, Note_on_c, 0, 54, 62
1, 139680, Note_on_c, 0, 60, 74
1, 139680, Note_on_c, 0, 43, 66
1, 139800, Note_on_c, 0, 43, 0
1, 139800, Note_on_c, 0, 60, 0
1, 139800, Note_on_c, 0, 54, 0
1, 139920, Note_on_c, 0, 54, 56
1, 139920, Note_on_c, 0, 60, 66
1, 139920, Note_on_c, 0, 43, 57
1, 140040, Tempo, 506800
1, 140040, Note_on_c, 0, 43, 0
1, 140040, Note_on_c, 0, 60, 0
1, 140040, Note_on_c, 0, 54, 0
1, 140160, Note_on_c, 0, 55, 64
1, 140160, Note_on_c, 0, 59, 76
1, 140160, Note_on_c, 0, 43, 66
1, 140400, Note_on_c, 0, 43, 0
1, 140400, Note_on_c, 0, 59, 0
1, 140400, Note_on_c, 0, 55, 0
1, 140640, Note_on_c, 0, 59, 73
1, 140640, Note_on_c, 0, 62, 73
1, 140640, Note_on_c, 0, 67, 87
1, 140640, Note_on_c, 0, 43, 66
1, 140760, Control_c, 0, 64, 127
1, 140880, Note_on_c, 0, 43, 0
1, 140880, Note_on_c, 0, 59, 0
1, 140880, Note_on_c, 0, 62, 0
1, 140880, Note_on_c, 0, 67, 0
1, 141120, Note_on_c, 0, 59, 73
1, 141120, Note_on_c, 0, 62, 73
1, 141120, Note_on_c, 0, 67, 87
1, 141120, Note_on_c, 0, 43, 66
1, 141360, Note_on_c, 0, 43, 0
1, 141360, Note_on_c, 0, 59, 0
1, 141360, Note_on_c, 0, 62, 0
1, 141360, Note_on_c, 0, 67, 0
1, 141480, Control_c, 0, 64, 0
1, 142080, Tempo, 468421
1, 142080, Note_on_c, 0, 84, 58
1, 142080, Note_on_c, 0, 60, 40
1, 142092, Control_c, 0, 64, 127
1, 142320, Tempo, 468421
1, 142320, Note_on_c, 0, 60, 0
1, 142320, Note_on_c, 0, 64, 31
1, 142440, Tempo, 508087
1, 142560, Tempo, 468421
1, 142560, Note_on_c, 0, 64, 0
1, 142560, Note_on_c, 0, 84, 0
1, 142560, Note_on_c, 0, 86, 55
1, 142560, Note_on_c, 0, 67, 39
1, 142571, Control_c, 0, 64, 0
1, 142680, Note_on_c, 0, 86, 0
1, 142680, Note_on_c, 0, 84, 46
1, 142800, Note_on_c, 0, 84, 0
1, 142800, Note_on_c, 0, 67, 0
1, 142800, Note_on_c, 0, 83, 50
1, 142920, Note_on_c, 0, 83, 0
1, 142920, Note_on_c, 0, 81, 46
1, 143040, Tempo, 464792
1, 143040, Note_on_c, 0, 81, 0
1, 143040, Note_on_c, 0, 79, 57
1, 143040, Note_on_c, 0, 60, 40
1, 143126, Control_c, 0, 64, 127
1, 143280, Note_on_c, 0, 60, 0
1, 143280, Note_on_c, 0, 64, 30
1, 143400, Tempo, 491441
1, 143520, Tempo, 466599
1, 143520, Note_on_c, 0, 64, 0
1, 143520, Note_on_c, 0, 79, 0
1, 143520, Note_on_c, 0, 81, 54
1, 143520, Note_on_c, 0, 67, 36
1, 143539, Control_c, 0, 64, 0
1, 143640, Note_on_c, 0, 81, 0
1, 143640, Note_on_c, 0, 79, 42
1, 143760, Note_on_c, 0, 79, 0
1, 143760, Note_on_c, 0, 67, 0
1, 143760, Note_on_c, 0, 77, 53
1, 143880, Tempo, 477745
1, 143880, Note_on_c, 0, 77, 0
1, 143880, Note_on_c, 0, 76, 50
1, 144000, Tempo, 485476
1, 144000, Note_on_c, 0, 76, 0
1, 144000, Note_on_c, 0, 74, 55
1, 144000, Note_on_c, 0, 60, 40
1, 144120, Tempo, 464792
1, 144120, Note_on_c, 0, 74, 0
1, 144180, Note_on_c, 0, 76, 42
1, 144240, Note_on_c, 0, 76, 0
1, 144240, Note_on_c, 0, 60, 0
1, 144240, Note_on_c, 0, 74, 50
1, 144240, Note_on_c, 0, 65, 32
1, 144360, Note_on_c, 0, 74, 0
1, 144360, Note_on_c, 0, 73, 47
1, 144480, Note_on_c, 0, 73, 0
1, 144480, Note_on_c, 0, 65, 0
1, 144480, Note_on_c, 0, 74, 50
1, 144480, Note_on_c, 0, 69, 38
1, 144600, Note_on_c, 0, 74, 0
1, 144720, Tempo, 473971
1, 144720, Note_on_c, 0, 69, 0
1, 144720, Note_on_c, 0, 76, 46
1, 144840, Tempo, 495499
1, 144840, Note_on_c, 0, 76, 0
1, 144960, Tempo, 483520
1, 144960, Note_on_c, 0, 77, 50
1, 144960, Note_on_c, 0, 60, 40
1, 144992, Control_c, 0, 64, 127
1, 145080, Tempo, 470256
1, 145200, Tempo, 464792
1, 145200, Note_on_c, 0, 60, 0
1, 145200, Note_on_c, 0, 77, 0
1, 145200, Note_on_c, 0, 65, 33
1, 145440, Note_on_c, 0, 65, 0
1, 145440, Note_on_c, 0, 69, 36
1, 145448, Control_c, 0, 64, 0
1, 145680, Note_on_c, 0, 69, 0
1, 145680, Note_on_c, 0, 89, 55
1, 145800, Note_on_c, 0, 89, 0
1, 145800, Note_on_c, 0, 88, 49
1, 145920, Tempo, 462999
1, 145920, Note_on_c, 0, 88, 0
1, 145920, Note_on_c, 0, 86, 55
1, 145920, Note_on_c, 0, 59, 40
1, 145935, Tempo, 454236
1, 146007, Tempo, 455962
1, 146040, Note_on_c, 0, 86, 0
1, 146040, Note_on_c, 0, 88, 53
1, 146079, Tempo, 457701
1, 146151, Tempo, 459453
1, 146160, Note_on_c, 0, 88, 0
1, 146160, Note_on_c, 0, 59, 0
1, 146160, Note_on_c, 0, 86, 55
1, 146160, Note_on_c, 0, 62, 31
1, 146223, Tempo, 461219
1, 146280, Note_on_c, 0, 86, 0
1, 146280, Note_on_c, 0, 88, 54
1, 146295, Tempo, 462999
1, 146367, Tempo, 464792
1, 146391, Tempo, 452523
1, 146400, Note_on_c, 0, 88, 0
1, 146400, Note_on_c, 0, 62, 0
1, 146400, Note_on_c, 0, 89, 62
1, 146400, Note_on_c, 0, 67, 39
1, 146463, Tempo, 454236
1, 146511, Tempo, 455962
1, 146520, Note_on_c, 0, 89, 0
1, 146520, Note_on_c, 0, 88, 54
1, 146559, Tempo, 457701
1, 146607, Tempo, 459453
1, 146640, Note_on_c, 0, 88, 0
1, 146640, Note_on_c, 0, 67, 0
1, 146640, Note_on_c, 0, 86, 55
1, 146655, Tempo, 461219
1, 146703, Tempo, 462999
1, 146760, Tempo, 493462
1, 146760, Note_on_c, 0, 86, 0
1, 146760, Note_on_c, 0, 88, 53
1, 146871, Tempo, 454236
1, 146880, Note_on_c, 0, 88, 0
1, 146880, Note_on_c, 0, 89, 62
1, 146880, Note_on_c, 0, 59, 40
1, 147000, Note_on_c, 0, 89, 0
1, 147000, Note_on_c, 0, 88, 55
1, 147015, Tempo, 455962
1, 147120, Note_on_c, 0, 88, 0
1, 147120, Note_on_c, 0, 59, 0
1, 147120, Note_on_c, 0, 86, 55
1, 147120, Note_on_c, 0, 62, 30
1, 147135, Tempo, 457701
1, 147240, Note_on_c, 0, 86, 0
1, 147240, Note_on_c, 0, 84, 54
1, 147255, Tempo, 459453
1, 147360, Note_on_c, 0, 84, 0
1, 147360, Note_on_c, 0, 62, 0
1, 147360, Note_on_c, 0, 83, 61
1, 147360, Note_on_c, 0, 67, 36
1, 147375, Tempo, 461219
1, 147480, Note_on_c, 0, 83, 0
1, 147480, Note_on_c, 0, 81, 55
1, 147519, Tempo, 462999
1, 147600, Note_on_c, 0, 81, 0
1, 147600, Note_on_c, 0, 67, 0
1, 147600, Note_on_c, 0, 79, 58
1, 147639, Tempo, 464792
1, 147720, Note_on_c, 0, 79, 0
1, 147720, Note_on_c, 0, 77, 54
1, 147759, Tempo, 466599
1, 147840, Tempo, 483520
1, 147840, Note_on_c, 0, 77, 0
1, 147840, Note_on_c, 0, 76, 55
1, 147840, Note_on_c, 0, 60, 40
1, 147943, Control_c, 0, 64, 127
1, 148080, Tempo, 461219
1, 148080, Note_on_c, 0, 60, 0
1, 148080, Note_on_c, 0, 76, 0
1, 148080, Note_on_c, 0, 64, 32
1, 148200, Tempo, 481580
1, 148287, Tempo, 470256
1, 148320, Tempo, 547495
1, 148320, Note_on_c, 0, 64, 0
1, 148320, Note_on_c, 0, 67, 38
1, 148336, Control_c, 0, 64, 0
1, 148407, Tempo, 468421
1, 148440, Tempo, 468421
1, 148440, Note_on_c, 0, 72, 47
1, 148503, Tempo, 466599
1, 148560, Note_on_c, 0, 72, 0
1, 148560, Note_on_c, 0, 67, 0
1, 148560, Note_on_c, 0, 74, 48
1, 148623, Tempo, 464792
1, 148680, Note_on_c, 0, 74, 0
1, 148680, Note_on_c, 0, 76, 50
1, 148719, Tempo, 462999
1, 148800, Note_on_c, 0, 76, 0
1, 148800, Note_on_c, 0, 77, 52
1, 148839, Tempo, 461219
1, 148920, Note_on_c, 0, 77, 0
1, 148920, Note_on_c, 0, 79, 52
1, 148935, Tempo, 459453
1, 149040, Note_on_c, 0, 79, 0
1, 149040, Note_on_c, 0, 81, 54
1, 149055, Tempo, 457701
1, 149151, Tempo, 455962
1, 149160, Note_on_c, 0, 81, 0
1, 149160, Note_on_c, 0, 83, 55
1, 149199, Tempo, 454236
1, 149280, Note_on_c, 0, 83, 0
1, 149280, Note_on_c, 0, 84, 56
1, 149343, Tempo, 452523
1, 149367, Tempo, 454236
1, 149400, Tempo, 489436
1, 149400, Note_on_c, 0, 84, 0
1, 149400, Note_on_c, 0, 86, 55
1, 149472, Tempo, 478507
1, 149488, Tempo, 480423
1, 149504, Tempo, 482354
1, 149520, Tempo, 484301
1, 149520, Note_on_c, 0, 86, 0
1, 149520, Note_on_c, 0, 88, 61
1, 149536, Tempo, 486263
1, 149552, Tempo, 488242
1, 149568, Tempo, 490236
1, 149584, Tempo, 492247
1, 149600, Tempo, 494275
1, 149616, Tempo, 496319
1, 149632, Tempo, 498380
1, 149640, Note_on_c, 0, 88, 0
1, 149640, Note_on_c, 0, 86, 57
1, 149648, Tempo, 500459
1, 149664, Tempo, 502555
1, 149680, Tempo, 504668
1, 149696, Tempo, 506800
1, 149712, Tempo, 508949
1, 149728, Tempo, 511117
1, 149744, Tempo, 515508
1, 149760, Tempo, 461219
1, 149760, Note_on_c, 0, 86, 0
1, 149760, Note_on_c, 0, 84, 61
1, 149760, Note_on_c, 0, 57, 40
1, 149835, Control_c, 0, 64, 127
1, 150000, Note_on_c, 0, 57, 0
1, 150000, Note_on_c, 0, 84, 0
1, 150000, Note_on_c, 0, 60, 32
1, 150240, Tempo, 530551
1, 150240, Note_on_c, 0, 60, 0
1, 150240, Note_on_c, 0, 64, 38
1, 150260, Control_c, 0, 64, 0
1, 150350, Tempo, 473971
1, 150360, Note_on_c, 0, 72, 48
1, 150408, Tempo, 472106
1, 150446, Tempo, 470256
1, 150480, Note_on_c, 0, 72, 0
1, 150480, Note_on_c, 0, 64, 0
1, 150480, Note_on_c, 0, 74, 49
1, 150485, Tempo, 468421
1, 150523, Tempo, 466599
1, 150562, Tempo, 464792
1, 150600, Note_on_c, 0, 74, 0
1, 150600, Note_on_c, 0, 76, 52
1, 150619, Tempo, 462999
1, 150658, Tempo, 461219
1, 150696, Tempo, 459453
1, 150720, Note_on_c, 0, 76, 0
1, 150720, Note_on_c, 0, 77, 53
1, 150734, Tempo, 457701
1, 150773, Tempo, 455962
1, 150811, Tempo, 454236
1, 150840, Note_on_c, 0, 77, 0
1, 150840, Note_on_c, 0, 79, 56
1, 150960, Note_on_c, 0, 79, 0
1, 150960, Note_on_c, 0, 81, 56
1, 151080, Note_on_c, 0, 81, 0
1, 151080, Note_on_c, 0, 83, 57
1, 151200, Tempo, 459453
1, 151200, Note_on_c, 0, 83, 0
1, 151200, Note_on_c, 0, 84, 58
1, 151230, Tempo, 461219
1, 151245, Tempo, 462999
1, 151275, Tempo, 464792
1, 151290, Tempo, 466599
1, 151320, Tempo, 468421
1, 151320, Note_on_c, 0, 84, 0
1, 151320, Note_on_c, 0, 86, 61
1, 151335, Tempo, 470256
1, 151365, Tempo, 472106
1, 151380, Tempo, 473971
1, 151410, Tempo, 475851
1, 151425, Tempo, 477745
1, 151440, Note_on_c, 0, 86, 0
1, 151440, Note_on_c, 0, 88, 64
1, 151455, Tempo, 479655
1, 151470, Tempo, 481580
1, 151500, Tempo, 483520
1, 151515, Tempo, 485476
1, 151545, Tempo, 487448
1, 151560, Tempo, 489436
1, 151560, Note_on_c, 0, 88, 0
1, 151560, Note_on_c, 0, 86, 70
1, 151590, Tempo, 491441
1, 151605, Tempo, 493462
1, 151635, Tempo, 495499
1, 151650, Tempo, 497554
1, 151680, Tempo, 472106
1, 151680, Note_on_c, 0, 86, 0
1, 151680, Note_on_c, 0, 84, 77
1, 151680, Note_on_c, 0, 52, 54
1, 151800, Note_on_c, 0, 84, 0
1, 151920, Tempo, 485476
1, 151920, Note_on_c, 0, 52, 0
1, 151920, Note_on_c, 0, 84, 70
1, 151920, Note_on_c, 0, 60, 40
1, 152040, Note_on_c, 0, 84, 0
1, 152160, Tempo, 472106
1, 152160, Note_on_c, 0, 60, 0
1, 152160, Note_on_c, 0, 79, 70
1, 152160, Note_on_c, 0, 52, 45
1, 152280, Note_on_c, 0, 79, 0
1, 152400, Note_on_c, 0, 52, 0
1, 152400, Note_on_c, 0, 79, 63
1, 152400, Note_on_c, 0, 60, 40
1, 152520, Note_on_c, 0, 79, 0
1, 152640, Note_on_c, 0, 60, 0
1, 152640, Note_on_c, 0, 76, 70
1, 152640, Note_on_c, 0, 52, 53
1, 152760, Note_on_c, 0, 76, 0
1, 152880, Tempo, 485476
1, 152880, Note_on_c, 0, 52, 0
1, 152880, Note_on_c, 0, 76, 63
1, 152880, Note_on_c, 0, 60, 40
1, 153000, Note_on_c, 0, 76, 0
1, 153120, Tempo, 472106
1, 153120, Note_on_c, 0, 60, 0
1, 153120, Note_on_c, 0, 74, 64
1, 153120, Note_on_c, 0, 52, 48
1, 153240, Note_on_c, 0, 74, 0
1, 153240, Note_on_c, 0, 72, 57
1, 153360, Note_on_c, 0, 72, 0
1, 153360, Note_on_c, 0, 52, 0
1, 153360, Note_on_c, 0, 71, 57
1, 153360, Note_on_c, 0, 60, 40
1, 153480, Note_on_c, 0, 71, 0
1, 153480, Note_on_c, 0, 72, 58
1, 153600, Tempo, 470256
1, 153600, Note_on_c, 0, 72, 0
1, 153600, Note_on_c, 0, 60, 0
1, 153600, Note_on_c, 0, 69, 68
1, 153600, Note_on_c, 0, 53, 54
1, 153720, Note_on_c, 0, 69, 0
1, 153840, Note_on_c, 0, 53, 0
1, 153840, Note_on_c, 0, 69, 68
1, 153840, Note_on_c, 0, 60, 40
1, 153960, Note_on_c, 0, 69, 0
1, 154080, Note_on_c, 0, 60, 0
1, 154080, Note_on_c, 0, 65, 64
1, 154080, Note_on_c, 0, 53, 45
1, 154200, Note_on_c, 0, 65, 0
1, 154320, Note_on_c, 0, 53, 0
1, 154320, Note_on_c, 0, 65, 57
1, 154320, Note_on_c, 0, 60, 40
1, 154440, Note_on_c, 0, 65, 0
1, 154560, Note_on_c, 0, 60, 0
1, 154560, Note_on_c, 0, 62, 65
1, 154560, Note_on_c, 0, 53, 53
1, 154680, Note_on_c, 0, 62, 0
1, 154800, Tempo, 483520
1, 154800, Note_on_c, 0, 53, 0
1, 154800, Note_on_c, 0, 62, 54
1, 154800, Note_on_c, 0, 60, 40
1, 154920, Note_on_c, 0, 62, 0
1, 155040, Tempo, 468421
1, 155040, Note_on_c, 0, 60, 0
1, 155040, Note_on_c, 0, 69, 57
1, 155040, Note_on_c, 0, 53, 48
1, 155160, Note_on_c, 0, 69, 0
1, 155280, Note_on_c, 0, 53, 0
1, 155280, Note_on_c, 0, 69, 52
1, 155280, Note_on_c, 0, 60, 40
1, 155400, Note_on_c, 0, 69, 0
1, 155520, Note_on_c, 0, 60, 0
1, 155520, Note_on_c, 0, 67, 63
1, 155520, Note_on_c, 0, 55, 54
1, 155640, Note_on_c, 0, 67, 0
1, 155760, Note_on_c, 0, 55, 0
1, 155760, Note_on_c, 0, 67, 58
1, 155760, Note_on_c, 0, 60, 40
1, 155880, Note_on_c, 0, 67, 0
1, 156000, Note_on_c, 0, 60, 0
1, 156000, Note_on_c, 0, 69, 63
1, 156000, Note_on_c, 0, 55, 45
1, 156120, Note_on_c, 0, 69, 0
1, 156120, Note_on_c, 0, 67, 56
1, 156240, Tempo, 489436
1, 156240, Note_on_c, 0, 67, 0
1, 156240, Note_on_c, 0, 55, 0
1, 156240, Note_on_c, 0, 65, 58
1, 156240, Note_on_c, 0, 60, 40
1, 156360, Note_on_c, 0, 65, 0
1, 156360, Note_on_c, 0, 64, 56
1, 156475, Tempo, 487448
1, 156480, Note_on_c, 0, 64, 0
1, 156480, Note_on_c, 0, 60, 0
1, 156480, Note_on_c, 0, 62, 47
1, 156480, Note_on_c, 0, 55, 53
1, 156535, Tempo, 485476
1, 156560, Note_on_c, 0, 62, 0
1, 156560, Note_on_c, 0, 64, 43
1, 156565, Tempo, 483520
1, 156576, Control_c, 0, 64, 127
1, 156595, Tempo, 481580
1, 156625, Tempo, 479655
1, 156640, Note_on_c, 0, 64, 0
1, 156640, Note_on_c, 0, 62, 50
1, 156655, Tempo, 477745
1, 156685, Tempo, 475851
1, 156715, Tempo, 473971
1, 156720, Note_on_c, 0, 62, 0
1, 156720, Note_on_c, 0, 55, 0
1, 156720, Note_on_c, 0, 64, 46
1, 156720, Note_on_c, 0, 59, 40
1, 156745, Tempo, 472106
1, 156775, Tempo, 470256
1, 156800, Note_on_c, 0, 64, 0
1, 156800, Note_on_c, 0, 62, 54
1, 156805, Tempo, 468421
1, 156880, Note_on_c, 0, 62, 0
1, 156880, Note_on_c, 0, 64, 53
1, 156960, Note_on_c, 0, 64, 0
1, 156960, Note_on_c, 0, 59, 0
1, 156960, Note_on_c, 0, 62, 57
1, 156960, Note_on_c, 0, 55, 48
1, 157040, Note_on_c, 0, 62, 0
1, 157040, Note_on_c, 0, 64, 53
1, 157105, Tempo, 468421
1, 157120, Note_on_c, 0, 64, 0
1, 157120, Note_on_c, 0, 62, 56
1, 157135, Tempo, 470256
1, 157165, Tempo, 472106
1, 157195, Tempo, 473971
1, 157200, Note_on_c, 0, 62, 0
1, 157200, Note_on_c, 0, 55, 0
1, 157200, Note_on_c, 0, 64, 51
1, 157200, Note_on_c, 0, 59, 33
1, 157225, Tempo, 475851
1, 157255, Tempo, 477745
1, 157260, Note_on_c, 0, 64, 0
1, 157260, Note_on_c, 0, 62, 56
1, 157285, Tempo, 479655
1, 157315, Tempo, 481580
1, 157320, Note_on_c, 0, 62, 0
1, 157320, Note_on_c, 0, 60, 49
1, 157345, Tempo, 483520
1, 157375, Tempo, 485476
1, 157380, Note_on_c, 0, 60, 0
1, 157380, Note_on_c, 0, 62, 49
1, 157440, Tempo, 483520
1, 157440, Note_on_c, 0, 62, 0
1, 157440, Note_on_c, 0, 59, 0
1, 157440, Note_on_c, 0, 64, 60
1, 157440, Note_on_c, 0, 48, 40
1, 157440, Control_c, 0, 64, 0
1, 157581, Control_c, 0, 64, 127
1, 157680, Tempo, 461219
1, 157680, Note_on_c, 0, 48, 0
1, 157680, Note_on_c, 0, 64, 0
1, 157680, Note_on_c, 0, 52, 32
1, 157800, Tempo, 481580
1, 157887, Tempo, 470256
1, 157920, Tempo, 547495
1, 157920, Note_on_c, 0, 52, 0
1, 157920, Note_on_c, 0, 55, 38
1, 157936, Control_c, 0, 64, 0
1, 158007, Tempo, 468421
1, 158040, Tempo, 468421
1, 158040, Note_on_c, 0, 60, 47
1, 158103, Tempo, 466599
1, 158160, Note_on_c, 0, 60, 0
1, 158160, Note_on_c, 0, 55, 0
1, 158160, Note_on_c, 0, 62, 48
1, 158223, Tempo, 464792
1, 158280, Note_on_c, 0, 62, 0
1, 158280, Note_on_c, 0, 64, 50
1, 158319, Tempo, 462999
1, 158400, Note_on_c, 0, 64, 0
1, 158400, Note_on_c, 0, 65, 52
1, 158439, Tempo, 461219
1, 158520, Note_on_c, 0, 65, 0
1, 158520, Note_on_c, 0, 67, 52
1, 158535, Tempo, 459453
1, 158640, Note_on_c, 0, 67, 0
1, 158640, Note_on_c, 0, 69, 54
1, 158655, Tempo, 457701
1, 158751, Tempo, 455962
1, 158760, Note_on_c, 0, 69, 0
1, 158760, Note_on_c, 0, 71, 55
1, 158799, Tempo, 454236
1, 158880, Note_on_c, 0, 71, 0
1, 158880, Note_on_c, 0, 72, 56
1, 158943, Tempo, 452523
1, 158967, Tempo, 454236
1, 159000, Tempo, 489436
1, 159000, Note_on_c, 0, 72, 0
1, 159000, Note_on_c, 0, 74, 55
1, 159072, Tempo, 478507
1, 159088, Tempo, 480423
1, 159104, Tempo, 482354
1, 159120, Tempo, 484301
1, 159120, Note_on_c, 0, 74, 0
1, 159120, Note_on_c, 0, 76, 61
1, 159136, Tempo, 486263
1, 159152, Tempo, 488242
1, 159168, Tempo, 490236
1, 159184, Tempo, 492247
1, 159200, Tempo, 494275
1, 159216, Tempo, 496319
1, 159232, Tempo, 498380
1, 159240, Note_on_c, 0, 76, 0
1, 159240, Note_on_c, 0, 74, 57
1, 159248, Tempo, 500459
1, 159264, Tempo, 502555
1, 159280, Tempo, 504668
1, 159296, Tempo, 506800
1, 159312, Tempo, 508949
1, 159328, Tempo, 511117
1, 159344, Tempo, 515508
1, 159360, Tempo, 461219
1, 159360, Note_on_c, 0, 74, 0
1, 159360, Note_on_c, 0, 72, 61
1, 159360, Note_on_c, 0, 45, 40
1, 159435, Control_c, 0, 64, 127
1, 159600, Note_on_c, 0, 45, 0
1, 159600, Note_on_c, 0, 72, 0
1, 159600, Note_on_c, 0, 48, 32
1, 159840, Tempo, 530551
1, 159840, Note_on_c, 0, 48, 0
1, 159840, Note_on_c, 0, 52, 38
1, 159860, Control_c, 0, 64, 0
1, 159950, Tempo, 473971
1, 159960, Note_on_c, 0, 60, 48
1, 160008, Tempo, 472106
1, 160046, Tempo, 470256
1, 160080, Note_on_c, 0, 60, 0
1, 160080, Note_on_c, 0, 52, 0
1, 160080, Note_on_c, 0, 62, 49
1, 160085, Tempo, 468421
1, 160123, Tempo, 466599
1, 160162, Tempo, 464792
1, 160200, Note_on_c, 0, 62, 0
1, 160200, Note_on_c, 0, 64, 52
1, 160219, Tempo, 462999
1, 160258, Tempo, 461219
1, 160296, Tempo, 459453
1, 160320, Note_on_c, 0, 64, 0
1, 160320, Note_on_c, 0, 65, 53
1, 160334, Tempo, 457701
1, 160373, Tempo, 455962
1, 160411, Tempo, 454236
1, 160440, Note_on_c, 0, 65, 0
1, 160440, Note_on_c, 0, 67, 56
1, 160560, Note_on_c, 0, 67, 0
1, 160560, Note_on_c, 0, 69, 56
1, 160680, Note_on_c, 0, 69, 0
1, 160680, Note_on_c, 0, 71, 57
1, 160800, Tempo, 459453
1, 160800, Note_on_c, 0, 71, 0
1, 160800, Note_on_c, 0, 72, 58
1, 160830, Tempo, 461219
1, 160845, Tempo, 462999
1, 160875, Tempo, 464792
1, 160890, Tempo, 466599
1, 160920, Tempo, 468421
1, 160920, Note_on_c, 0, 72, 0
1, 160920, Note_on_c, 0, 74, 61
1, 160935, Tempo, 470256
1, 160965, Tempo, 472106
1, 160980, Tempo, 473971
1, 161010, Tempo, 475851
1, 161025, Tempo, 477745
1, 161040, Note_on_c, 0, 74, 0
1, 161040, Note_on_c, 0, 76, 64
1, 161055, Tempo, 479655
1, 161070, Tempo, 481580
1, 161100, Tempo, 483520
1, 161115, Tempo, 485476
1, 161145, Tempo, 487448
1, 161160, Tempo, 489436
1, 161160, Note_on_c, 0, 76, 0
1, 161160, Note_on_c, 0, 77, 70
1, 161190, Tempo, 491441
1, 161205, Tempo, 493462
1, 161235, Tempo, 495499
1, 161250, Tempo, 497554
1, 161280, Tempo, 506800
1, 161280, Note_on_c, 0, 77, 0
1, 161280, Note_on_c, 0, 79, 74
1, 161280, Note_on_c, 0, 40, 40
1, 161330, Control_c, 0, 64, 0
1, 161400, Note_on_c, 0, 79, 0
1, 161520, Note_on_c, 0, 40, 0
1, 161520, Note_on_c, 0, 79, 61
1, 161520, Note_on_c, 0, 48, 22
1, 161640, Tempo, 472106
1, 161640, Note_on_c, 0, 79, 0
1, 161760, Note_on_c, 0, 48, 0
1, 161760, Note_on_c, 0, 40, 26
1, 162000, Note_on_c, 0, 40, 0
1, 162000, Note_on_c, 0, 76, 45
1, 162000, Note_on_c, 0, 48, 21
1, 162120, Note_on_c, 0, 76, 0
1, 162240, Tempo, 475851
1, 162240, Note_on_c, 0, 48, 0
1, 162240, Note_on_c, 0, 40, 33
1, 162480, Note_on_c, 0, 40, 0
1, 162480, Note_on_c, 0, 72, 57
1, 162480, Note_on_c, 0, 48, 31
1, 162600, Note_on_c, 0, 72, 0
1, 162720, Tempo, 487448
1, 162720, Note_on_c, 0, 48, 0
1, 162720, Note_on_c, 0, 40, 39
1, 162960, Tempo, 521331
1, 162960, Note_on_c, 0, 40, 0
1, 162960, Note_on_c, 0, 68, 63
1, 162960, Note_on_c, 0, 48, 35
1, 163080, Note_on_c, 0, 68, 0
1, 163200, Tempo, 475851
1, 163200, Note_on_c, 0, 48, 0
1, 163200, Note_on_c, 0, 41, 49
1, 163440, Note_on_c, 0, 41, 0
1, 163440, Note_on_c, 0, 69, 56
1, 163440, Note_on_c, 0, 48, 41
1, 163560, Note_on_c, 0, 69, 0
1, 163560, Note_on_c, 0, 68, 50
1, 163680, Note_on_c, 0, 68, 0
1, 163680, Note_on_c, 0, 48, 0
1, 163680, Note_on_c, 0, 69, 57
1, 163680, Note_on_c, 0, 41, 49
1, 163748, Tempo, 479655
1, 163800, Note_on_c, 0, 69, 0
1, 163800, Note_on_c, 0, 71, 60
1, 163898, Tempo, 477745
1, 163920, Note_on_c, 0, 71, 0
1, 163920, Note_on_c, 0, 41, 0
1, 163920, Note_on_c, 0, 72, 61
1, 163920, Note_on_c, 0, 48, 39
1, 164018, Tempo, 475851
1, 164040, Note_on_c, 0, 72, 0
1, 164040, Note_on_c, 0, 71, 55
1, 164138, Tempo, 473971
1, 164160, Note_on_c, 0, 71, 0
1, 164160, Note_on_c, 0, 48, 0
1, 164160, Note_on_c, 0, 69, 61
1, 164160, Note_on_c, 0, 41, 49
1, 164258, Tempo, 472106
1, 164280, Note_on_c, 0, 69, 0
1, 164280, Note_on_c, 0, 67, 53
1, 164400, Note_on_c, 0, 67, 0
1, 164400, Note_on_c, 0, 41, 0
1, 164400, Note_on_c, 0, 65, 56
1, 164400, Note_on_c, 0, 48, 39
1, 164438, Tempo, 473971
1, 164520, Note_on_c, 0, 65, 0
1, 164520, Note_on_c, 0, 64, 51
1, 164588, Tempo, 475851
1, 164640, Note_on_c, 0, 64, 0
1, 164640, Note_on_c, 0, 48, 0
1, 164640, Note_on_c, 0, 62, 56
1, 164640, Note_on_c, 0, 41, 49
1, 164738, Tempo, 477745
1, 164760, Note_on_c, 0, 62, 0
1, 164760, Note_on_c, 0, 60, 60
1, 164880, Note_on_c, 0, 60, 0
1, 164880, Note_on_c, 0, 41, 0
1, 164880, Note_on_c, 0, 59, 63
1, 164880, Note_on_c, 0, 48, 40
1, 164888, Tempo, 479655
1, 165000, Tempo, 510247
1, 165000, Note_on_c, 0, 59, 0
1, 165000, Note_on_c, 0, 57, 65
1, 165120, Tempo, 475851
1, 165120, Note_on_c, 0, 57, 0
1, 165120, Note_on_c, 0, 48, 0
1, 165120, Note_on_c, 0, 55, 72
1, 165120, Note_on_c, 0, 43, 49
1, 165128, Tempo, 487448
1, 165218, Tempo, 485476
1, 165240, Note_on_c, 0, 55, 0
1, 165240, Note_on_c, 0, 60, 56
1, 165308, Tempo, 483520
1, 165360, Note_on_c, 0, 60, 0
1, 165360, Note_on_c, 0, 43, 0
1, 165360, Note_on_c, 0, 64, 56
1, 165360, Note_on_c, 0, 48, 41
1, 165368, Tempo, 481580
1, 165458, Tempo, 479655
1, 165480, Note_on_c, 0, 64, 0
1, 165480, Note_on_c, 0, 67, 56
1, 165518, Tempo, 477745
1, 165600, Note_on_c, 0, 67, 0
1, 165600, Note_on_c, 0, 48, 0
1, 165600, Note_on_c, 0, 65, 59
1, 165600, Note_on_c, 0, 43, 49
1, 165608, Tempo, 475851
1, 165668, Tempo, 473971
1, 165720, Note_on_c, 0, 65, 0
1, 165720, Note_on_c, 0, 64, 50
1, 165840, Note_on_c, 0, 64, 0
1, 165840, Note_on_c, 0, 43, 0
1, 165840, Note_on_c, 0, 62, 50
1, 165840, Note_on_c, 0, 48, 39
1, 165960, Note_on_c, 0, 62, 0
1, 165960, Note_on_c, 0, 60, 50
1, 166080, Tempo, 487448
1, 166080, Note_on_c, 0, 60, 0
1, 166080, Note_on_c, 0, 48, 0
1, 166080, Note_on_c, 0, 62, 51
1, 166080, Note_on_c, 0, 43, 53
1, 166135, Tempo, 485476
1, 166160, Note_on_c, 0, 62, 0
1, 166160, Note_on_c, 0, 64, 47
1, 166165, Tempo, 483520
1, 166176, Control_c, 0, 64, 127
1, 166195, Tempo, 481580
1, 166225, Tempo, 479655
1, 166240, Note_on_c, 0, 64, 0
1, 166240, Note_on_c, 0, 62, 55
1, 166255, Tempo, 477745
1, 166285, Tempo, 475851
1, 166315, Tempo, 473971
1, 166320, Note_on_c, 0, 62, 0
1, 166320, Note_on_c, 0, 43, 0
1, 166320, Note_on_c, 0, 64, 50
1, 166320, Note_on_c, 0, 47, 40
1, 166345, Tempo, 472106
1, 166375, Tempo, 470256
1, 166400, Note_on_c, 0, 64, 0
1, 166400, Note_on_c, 0, 62, 59
1, 166405, Tempo, 468421
1, 166480, Note_on_c, 0, 62, 0
1, 166480, Note_on_c, 0, 64, 58
1, 166560, Note_on_c, 0, 64, 0
1, 166560, Note_on_c, 0, 47, 0
1, 166560, Note_on_c, 0, 62, 62
1, 166560, Note_on_c, 0, 43, 48
1, 166640, Note_on_c, 0, 62, 0
1, 166640, Note_on_c, 0, 64, 58
1, 166705, Tempo, 468421
1, 166720, Note_on_c, 0, 64, 0
1, 166720, Note_on_c, 0, 62, 61
1, 166735, Tempo, 470256
1, 166765, Tempo, 472106
1, 166795, Tempo, 473971
1, 166800, Note_on_c, 0, 62, 0
1, 166800, Note_on_c, 0, 43, 0
1, 166800, Note_on_c, 0, 64, 56
1, 166800, Note_on_c, 0, 47, 33
1, 166825, Tempo, 475851
1, 166855, Tempo, 477745
1, 166860, Note_on_c, 0, 64, 0
1, 166860, Note_on_c, 0, 62, 61
1, 166885, Tempo, 479655
1, 166915, Tempo, 481580
1, 166920, Note_on_c, 0, 62, 0
1, 166920, Note_on_c, 0, 60, 53
1, 166945, Tempo, 483520
1, 166975, Tempo, 485476
1, 166980, Note_on_c, 0, 60, 0
1, 166980, Note_on_c, 0, 62, 53
1, 167040, Note_on_c, 0, 62, 0
1, 167040, Note_on_c, 0, 47, 0
1, 167040, Note_on_c, 0, 60, 68
1, 167040, Note_on_c, 0, 36, 58
1, 167040, Control_c, 0, 64, 0
1, 167160, Note_on_c, 0, 36, 0
1, 167280, Note_on_c, 0, 60, 0
1, 167280, Note_on_c, 0, 48, 55
1, 167400, Note_on_c, 0, 48, 0
1, 167534, Note_on_c, 0, 55, 67
1, 167654, Note_on_c, 0, 55, 0
1, 167760, Note_on_c, 0, 55, 62
1, 167880, Note_on_c, 0, 55, 0
1, 168000, Tempo, 461219
1, 168000, Note_on_c, 0, 52, 57
1, 168000, Note_on_c, 0, 60, 68
1, 168000, Note_on_c, 0, 36, 58
1, 168120, Note_on_c, 0, 36, 0
1, 168120, Note_on_c, 0, 60, 0
1, 168120, Note_on_c, 0, 52, 0
1, 168240, Tempo, 483520
1, 168240, Note_on_c, 0, 48, 52
1, 168360, Note_on_c, 0, 48, 0
1, 168480, Note_on_c, 0, 55, 64
1, 168600, Note_on_c, 0, 55, 0
1, 168720, Note_on_c, 0, 55, 68
1, 168840, Note_on_c, 0, 55, 0
1, 168960, Tempo, 461219
1, 168960, Note_on_c, 0, 53, 57
1, 168960, Note_on_c, 0, 62, 68
1, 168960, Note_on_c, 0, 36, 58
1, 169080, Note_on_c, 0, 36, 0
1, 169080, Note_on_c, 0, 62, 0
1, 169080, Note_on_c, 0, 53, 0
1, 169200, Tempo, 502555
1, 169200, Note_on_c, 0, 48, 52
1, 169320, Note_on_c, 0, 48, 0
1, 169440, Tempo, 482354
1, 169440, Note_on_c, 0, 55, 37
1, 169560, Note_on_c, 0, 55, 0
1, 169680, Note_on_c, 0, 55, 29
1, 169800, Note_on_c, 0, 55, 0
1, 169920, Tempo, 462999
1, 169920, Note_on_c, 0, 50, 31
1, 169920, Note_on_c, 0, 59, 37
1, 169920, Note_on_c, 0, 36, 30
1, 170040, Note_on_c, 0, 36, 0
1, 170040, Note_on_c, 0, 59, 0
1, 170040, Note_on_c, 0, 50, 0
1, 170160, Tempo, 535284
1, 170160, Note_on_c, 0, 48, 23
1, 170280, Note_on_c, 0, 48, 0
1, 170400, Tempo, 516840
1, 170400, Note_on_c, 0, 55, 69
1, 170520, Note_on_c, 0, 55, 0
1, 170640, Tempo, 595297
1, 170640, Note_on_c, 0, 55, 79
1, 170760, Note_on_c, 0, 55, 0
1, 170880, Tempo, 636335
1, 170880, Note_on_c, 0, 60, 74
1, 170880, Note_on_c, 0, 52, 62
1, 170880, Note_on_c, 0, 36, 49
1, 170880, Note_on_c, 0, 48, 58
1, 170965, Control_c, 0, 64, 127
1, 171360, Tempo, 761518
1, 171360, Note_on_c, 0, 48, 0
1, 171360, Note_on_c, 0, 60, 0
1, 171360, Note_on_c, 0, 52, 0
1, 171360, Note_on_c, 0, 36, 0
1, 171360, Note_on_c, 0, 60, 62
1, 171360, Note_on_c, 0, 52, 52
1, 171360, Note_on_c, 0, 36, 49
1, 171360, Note_on_c, 0, 48, 58
1, 171600, Tempo, 940586
1, 171840, Tempo, 738098
1, 171840, Note_on_c, 0, 48, 0
1, 171840, Note_on_c, 0, 60, 0
1, 171840, Note_on_c, 0, 52, 0
1, 171840, Note_on_c, 0, 36, 0
1, 171840, Note_on_c, 0, 52, 57
1, 171840, Note_on_c, 0, 60, 68
1, 171840, Note_on_c, 0, 48, 58
1, 171840, Note_on_c, 0, 36, 49
1, 172221, Control_c, 0, 64, 0
1, 172320, Note_on_c, 0, 36, 0
1, 172320, Note_on_c, 0, 52, 0
1, 172320, Note_on_c, 0, 60, 0
1, 172320, Note_on_c, 0, 48, 0
1, 172320, End_track
0, 0, End_of_file
