0, 0, Header, 0, 1, 480
1, 0, Start_track
1, 0, Title_t, "Clementi: Sonatine Opus 36 Nr. 6, 1. Satz"
1, 0, Copyright_t, "Copyright © 2011 by Bernd Krueger"
1, 0, Text_t, "Muzio Clementi"
1, 0, Text_t, "Allegro con spirito"
1, 0, Text_t, "Erstellt: 16.1.2011\012"
1, 0, Text_t, "Update: 3.7.2011\012"
1, 0, Text_t, "Dauer: 5:21 minuten\012"
1, 0, Time_signature, 4, 2, 24, 8
1, 0, Key_signature, 2, "major"
1, 0, Tempo, 427686
1, 0, Program_c, 0, 0
1, 0, Program_c, 0, 0
1, 0, Program_c, 0, 0
1, 1440, Tempo, 418439
1, 1440, Marker_t, "Teil 1"
1, 1440, Note_on_c, 0, 71, 50
1, 1560, Note_on_c, 0, 71, 0
1, 1560, Note_on_c, 0, 69, 46
1, 1680, Tempo, 449809
1, 1680, Note_on_c, 0, 69, 0
1, 1680, Note_on_c, 0, 68, 46
1, 1800, Note_on_c, 0, 68, 0
1, 1800, Note_on_c, 0, 69, 46
1, 1920, Tempo, 439915
1, 1920, Note_on_c, 0, 69, 0
1, 1920, Note_on_c, 0, 74, 55
1, 1920, Note_on_c, 0, 50, 32
1, 2160, Tempo, 435129
1, 2160, Note_on_c, 0, 50, 0
1, 2160, Note_on_c, 0, 57, 26
1, 2400, Tempo, 427381
1, 2400, Note_on_c, 0, 57, 0
1, 2400, Note_on_c, 0, 54, 26
1, 2640, Note_on_c, 0, 54, 0
1, 2640, Note_on_c, 0, 74, 0
1, 2640, Note_on_c, 0, 69, 42
1, 2640, Note_on_c, 0, 57, 26
1, 2880, Note_on_c, 0, 57, 0
1, 2880, Note_on_c, 0, 69, 0
1, 2880, Note_on_c, 0, 66, 46
1, 2880, Note_on_c, 0, 50, 30
1, 3120, Note_on_c, 0, 50, 0
1, 3120, Note_on_c, 0, 66, 0
1, 3120, Note_on_c, 0, 69, 43
1, 3120, Note_on_c, 0, 57, 28
1, 3360, Note_on_c, 0, 57, 0
1, 3360, Note_on_c, 0, 69, 0
1, 3360, Note_on_c, 0, 74, 46
1, 3360, Note_on_c, 0, 54, 28
1, 3600, Tempo, 458400
1, 3600, Note_on_c, 0, 54, 0
1, 3600, Note_on_c, 0, 74, 0
1, 3600, Note_on_c, 0, 78, 46
1, 3600, Note_on_c, 0, 57, 28
1, 3780, Note_on_c, 0, 78, 0
1, 3780, Note_on_c, 0, 69, 45
1, 3840, Tempo, 427686
1, 3840, Note_on_c, 0, 69, 0
1, 3840, Note_on_c, 0, 57, 0
1, 3840, Note_on_c, 0, 81, 54
1, 3840, Note_on_c, 0, 50, 37
1, 4080, Note_on_c, 0, 50, 0
1, 4080, Note_on_c, 0, 57, 26
1, 4320, Tempo, 433557
1, 4320, Note_on_c, 0, 57, 0
1, 4320, Note_on_c, 0, 54, 26
1, 4560, Tempo, 419903
1, 4560, Note_on_c, 0, 54, 0
1, 4560, Note_on_c, 0, 81, 0
1, 4560, Note_on_c, 0, 78, 40
1, 4560, Note_on_c, 0, 57, 26
1, 4680, Note_on_c, 0, 78, 0
1, 4680, Note_on_c, 0, 74, 40
1, 4800, Tempo, 427381
1, 4800, Note_on_c, 0, 74, 0
1, 4800, Note_on_c, 0, 57, 0
1, 4800, Note_on_c, 0, 69, 47
1, 4800, Note_on_c, 0, 50, 31
1, 4920, Note_on_c, 0, 69, 0
1, 5040, Note_on_c, 0, 50, 0
1, 5040, Note_on_c, 0, 57, 27
1, 5280, Tempo, 416985
1, 5280, Note_on_c, 0, 57, 0
1, 5280, Note_on_c, 0, 74, 45
1, 5280, Note_on_c, 0, 54, 27
1, 5400, Note_on_c, 0, 74, 0
1, 5400, Note_on_c, 0, 76, 40
1, 5520, Note_on_c, 0, 76, 0
1, 5520, Note_on_c, 0, 54, 0
1, 5520, Note_on_c, 0, 74, 40
1, 5520, Note_on_c, 0, 57, 27
1, 5640, Note_on_c, 0, 74, 0
1, 5640, Note_on_c, 0, 73, 41
1, 5760, Tempo, 433557
1, 5760, Note_on_c, 0, 73, 0
1, 5760, Note_on_c, 0, 57, 0
1, 5760, Note_on_c, 0, 71, 48
1, 5760, Note_on_c, 0, 50, 32
1, 5880, Note_on_c, 0, 71, 0
1, 6000, Note_on_c, 0, 50, 0
1, 6000, Note_on_c, 0, 59, 26
1, 6240, Tempo, 419903
1, 6240, Note_on_c, 0, 59, 0
1, 6240, Note_on_c, 0, 74, 45
1, 6240, Note_on_c, 0, 55, 26
1, 6360, Note_on_c, 0, 74, 0
1, 6360, Note_on_c, 0, 76, 39
1, 6480, Note_on_c, 0, 76, 0
1, 6480, Note_on_c, 0, 55, 0
1, 6480, Note_on_c, 0, 74, 40
1, 6480, Note_on_c, 0, 59, 26
1, 6600, Note_on_c, 0, 74, 0
1, 6600, Note_on_c, 0, 73, 41
1, 6720, Tempo, 431997
1, 6720, Note_on_c, 0, 73, 0
1, 6720, Note_on_c, 0, 59, 0
1, 6720, Note_on_c, 0, 71, 46
1, 6720, Note_on_c, 0, 50, 31
1, 6840, Note_on_c, 0, 71, 0
1, 6960, Note_on_c, 0, 50, 0
1, 6960, Note_on_c, 0, 59, 27
1, 7200, Note_on_c, 0, 59, 0
1, 7200, Note_on_c, 0, 86, 48
1, 7200, Note_on_c, 0, 55, 27
1, 7320, Tempo, 424358
1, 7320, Note_on_c, 0, 86, 0
1, 7320, Note_on_c, 0, 83, 40
1, 7440, Note_on_c, 0, 83, 0
1, 7440, Note_on_c, 0, 55, 0
1, 7440, Note_on_c, 0, 86, 44
1, 7440, Note_on_c, 0, 59, 27
1, 7560, Note_on_c, 0, 86, 0
1, 7560, Note_on_c, 0, 83, 40
1, 7680, Note_on_c, 0, 83, 0
1, 7680, Note_on_c, 0, 59, 0
1, 7680, Note_on_c, 0, 81, 50
1, 7680, Note_on_c, 0, 50, 37
1, 7800, Tempo, 427381
1, 7800, Note_on_c, 0, 81, 0
1, 7800, Note_on_c, 0, 86, 51
1, 7920, Note_on_c, 0, 86, 0
1, 7920, Note_on_c, 0, 50, 0
1, 7920, Note_on_c, 0, 85, 48
1, 7920, Note_on_c, 0, 57, 26
1, 8040, Note_on_c, 0, 85, 0
1, 8040, Note_on_c, 0, 83, 46
1, 8080, Tempo, 425864
1, 8160, Tempo, 427381
1, 8160, Note_on_c, 0, 83, 0
1, 8160, Note_on_c, 0, 57, 0
1, 8160, Note_on_c, 0, 81, 48
1, 8160, Note_on_c, 0, 54, 26
1, 8200, Tempo, 428908
1, 8280, Tempo, 430447
1, 8280, Note_on_c, 0, 81, 0
1, 8280, Note_on_c, 0, 79, 43
1, 8320, Tempo, 431997
1, 8360, Tempo, 433557
1, 8400, Tempo, 458400
1, 8400, Note_on_c, 0, 79, 0
1, 8400, Note_on_c, 0, 54, 0
1, 8400, Note_on_c, 0, 78, 43
1, 8400, Note_on_c, 0, 57, 26
1, 8520, Note_on_c, 0, 78, 0
1, 8520, Note_on_c, 0, 76, 42
1, 8640, Tempo, 431997
1, 8640, Note_on_c, 0, 76, 0
1, 8640, Note_on_c, 0, 57, 0
1, 8640, Note_on_c, 0, 74, 48
1, 8640, Note_on_c, 0, 54, 31
1, 8880, Note_on_c, 0, 54, 0
1, 8880, Note_on_c, 0, 57, 21
1, 9120, Note_on_c, 0, 57, 0
1, 9120, Note_on_c, 0, 74, 0
1, 9120, Note_on_c, 0, 50, 22
1, 9360, Note_on_c, 0, 50, 0
1, 9360, Note_on_c, 0, 66, 41
1, 9360, Note_on_c, 0, 57, 22
1, 9600, Tempo, 436713
1, 9600, Note_on_c, 0, 57, 0
1, 9600, Note_on_c, 0, 66, 0
1, 9600, Note_on_c, 0, 67, 46
1, 9600, Note_on_c, 0, 49, 29
1, 9720, Note_on_c, 0, 67, 0
1, 9840, Note_on_c, 0, 49, 0
1, 9840, Note_on_c, 0, 67, 41
1, 9840, Note_on_c, 0, 57, 24
1, 9960, Tempo, 425864
1, 9960, Note_on_c, 0, 67, 0
1, 10080, Note_on_c, 0, 57, 0
1, 10080, Note_on_c, 0, 69, 50
1, 10080, Note_on_c, 0, 52, 24
1, 10200, Note_on_c, 0, 69, 0
1, 10200, Note_on_c, 0, 67, 41
1, 10320, Tempo, 458400
1, 10320, Note_on_c, 0, 67, 0
1, 10320, Note_on_c, 0, 52, 0
1, 10320, Note_on_c, 0, 66, 42
1, 10320, Note_on_c, 0, 57, 24
1, 10440, Note_on_c, 0, 66, 0
1, 10440, Note_on_c, 0, 67, 48
1, 10560, Tempo, 431997
1, 10560, Note_on_c, 0, 67, 0
1, 10560, Note_on_c, 0, 57, 0
1, 10560, Note_on_c, 0, 76, 56
1, 10560, Note_on_c, 0, 49, 31
1, 10800, Note_on_c, 0, 49, 0
1, 10800, Note_on_c, 0, 57, 27
1, 11040, Note_on_c, 0, 57, 0
1, 11040, Note_on_c, 0, 52, 27
1, 11280, Note_on_c, 0, 52, 0
1, 11280, Note_on_c, 0, 76, 0
1, 11280, Note_on_c, 0, 67, 40
1, 11280, Note_on_c, 0, 57, 27
1, 11520, Tempo, 436713
1, 11520, Note_on_c, 0, 57, 0
1, 11520, Note_on_c, 0, 67, 0
1, 11520, Note_on_c, 0, 66, 46
1, 11520, Note_on_c, 0, 50, 32
1, 11640, Note_on_c, 0, 66, 0
1, 11760, Note_on_c, 0, 50, 0
1, 11760, Note_on_c, 0, 66, 40
1, 11760, Note_on_c, 0, 57, 23
1, 11880, Note_on_c, 0, 66, 0
1, 12000, Tempo, 428908
1, 12000, Note_on_c, 0, 57, 0
1, 12000, Note_on_c, 0, 67, 50
1, 12000, Note_on_c, 0, 54, 23
1, 12120, Note_on_c, 0, 67, 0
1, 12120, Note_on_c, 0, 66, 40
1, 12240, Tempo, 454925
1, 12240, Note_on_c, 0, 66, 0
1, 12240, Note_on_c, 0, 54, 0
1, 12240, Note_on_c, 0, 64, 46
1, 12240, Note_on_c, 0, 57, 23
1, 12360, Note_on_c, 0, 64, 0
1, 12360, Note_on_c, 0, 66, 48
1, 12480, Tempo, 431997
1, 12480, Note_on_c, 0, 66, 0
1, 12480, Note_on_c, 0, 57, 0
1, 12480, Note_on_c, 0, 74, 56
1, 12480, Note_on_c, 0, 50, 31
1, 12720, Note_on_c, 0, 50, 0
1, 12720, Note_on_c, 0, 57, 27
1, 12960, Note_on_c, 0, 57, 0
1, 12960, Note_on_c, 0, 54, 27
1, 13200, Note_on_c, 0, 54, 0
1, 13200, Note_on_c, 0, 74, 0
1, 13200, Note_on_c, 0, 66, 40
1, 13200, Note_on_c, 0, 57, 27
1, 13440, Tempo, 438308
1, 13440, Note_on_c, 0, 57, 0
1, 13440, Note_on_c, 0, 66, 0
1, 13440, Note_on_c, 0, 66, 47
1, 13440, Note_on_c, 0, 43, 32
1, 13440, Note_on_c, 0, 55, 32
1, 13680, Note_on_c, 0, 66, 0
1, 13680, Note_on_c, 0, 64, 37
1, 13920, Note_on_c, 0, 64, 0
1, 13920, Note_on_c, 0, 67, 40
1, 14160, Tempo, 453206
1, 14160, Note_on_c, 0, 67, 0
1, 14160, Note_on_c, 0, 71, 37
1, 14400, Tempo, 433557
1, 14400, Note_on_c, 0, 71, 0
1, 14400, Note_on_c, 0, 55, 0
1, 14400, Note_on_c, 0, 43, 0
1, 14400, Note_on_c, 0, 71, 45
1, 14400, Note_on_c, 0, 45, 32
1, 14400, Note_on_c, 0, 57, 32
1, 14640, Note_on_c, 0, 71, 0
1, 14640, Note_on_c, 0, 61, 37
1, 14880, Tempo, 436713
1, 14880, Note_on_c, 0, 61, 0
1, 14880, Note_on_c, 0, 64, 40
1, 15120, Tempo, 469153
1, 15120, Note_on_c, 0, 64, 0
1, 15120, Note_on_c, 0, 69, 37
1, 15360, Tempo, 439915
1, 15360, Note_on_c, 0, 69, 0
1, 15360, Note_on_c, 0, 57, 0
1, 15360, Note_on_c, 0, 45, 0
1, 15360, Note_on_c, 0, 67, 45
1, 15360, Note_on_c, 0, 64, 45
1, 15600, Note_on_c, 0, 38, 31
1, 15840, Note_on_c, 0, 38, 0
1, 15840, Note_on_c, 0, 42, 32
1, 16080, Tempo, 446462
1, 16080, Note_on_c, 0, 42, 0
1, 16080, Note_on_c, 0, 45, 34
1, 16320, Note_on_c, 0, 45, 0
1, 16320, Note_on_c, 0, 64, 0
1, 16320, Note_on_c, 0, 67, 0
1, 16320, Note_on_c, 0, 62, 40
1, 16320, Note_on_c, 0, 66, 40
1, 16320, Note_on_c, 0, 50, 36
1, 16440, Tempo, 438308
1, 16560, Note_on_c, 0, 50, 0
1, 16560, Note_on_c, 0, 45, 31
1, 16800, Note_on_c, 0, 45, 0
1, 16800, Note_on_c, 0, 66, 0
1, 16800, Note_on_c, 0, 62, 0
1, 16800, Note_on_c, 0, 38, 32
1, 17040, Note_on_c, 0, 38, 0
1, 17040, Note_on_c, 0, 66, 40
1, 17040, Note_on_c, 0, 50, 31
1, 17240, Tempo, 436713
1, 17280, Note_on_c, 0, 50, 0
1, 17280, Note_on_c, 0, 66, 0
1, 17280, Note_on_c, 0, 67, 46
1, 17280, Note_on_c, 0, 49, 43
1, 17360, Tempo, 435129
1, 17400, Note_on_c, 0, 67, 0
1, 17400, Note_on_c, 0, 64, 37
1, 17480, Tempo, 433557
1, 17520, Note_on_c, 0, 64, 0
1, 17520, Note_on_c, 0, 49, 0
1, 17520, Note_on_c, 0, 66, 38
1, 17520, Note_on_c, 0, 57, 36
1, 17600, Tempo, 431997
1, 17640, Note_on_c, 0, 66, 0
1, 17640, Note_on_c, 0, 67, 39
1, 17720, Tempo, 430447
1, 17760, Note_on_c, 0, 67, 0
1, 17760, Note_on_c, 0, 57, 0
1, 17760, Note_on_c, 0, 69, 46
1, 17760, Note_on_c, 0, 52, 40
1, 17840, Tempo, 428908
1, 17880, Note_on_c, 0, 69, 0
1, 17880, Note_on_c, 0, 71, 39
1, 17920, Tempo, 427381
1, 18000, Note_on_c, 0, 71, 0
1, 18000, Note_on_c, 0, 52, 0
1, 18000, Note_on_c, 0, 73, 39
1, 18000, Note_on_c, 0, 57, 36
1, 18040, Tempo, 424358
1, 18120, Note_on_c, 0, 73, 0
1, 18120, Note_on_c, 0, 74, 40
1, 18240, Note_on_c, 0, 74, 0
1, 18240, Note_on_c, 0, 57, 0
1, 18240, Note_on_c, 0, 76, 48
1, 18240, Note_on_c, 0, 49, 46
1, 18360, Note_on_c, 0, 76, 0
1, 18360, Note_on_c, 0, 74, 40
1, 18480, Note_on_c, 0, 74, 0
1, 18480, Note_on_c, 0, 49, 0
1, 18480, Note_on_c, 0, 73, 41
1, 18480, Note_on_c, 0, 57, 36
1, 18600, Note_on_c, 0, 73, 0
1, 18600, Note_on_c, 0, 71, 42
1, 18720, Note_on_c, 0, 71, 0
1, 18720, Note_on_c, 0, 57, 0
1, 18720, Note_on_c, 0, 69, 48
1, 18720, Note_on_c, 0, 52, 39
1, 18840, Note_on_c, 0, 69, 0
1, 18840, Note_on_c, 0, 67, 41
1, 18960, Tempo, 469153
1, 18960, Note_on_c, 0, 67, 0
1, 18960, Note_on_c, 0, 52, 0
1, 18960, Note_on_c, 0, 66, 41
1, 18960, Note_on_c, 0, 57, 36
1, 19080, Note_on_c, 0, 66, 0
1, 19080, Note_on_c, 0, 64, 41
1, 19200, Tempo, 430447
1, 19200, Note_on_c, 0, 64, 0
1, 19200, Note_on_c, 0, 57, 0
1, 19200, Note_on_c, 0, 66, 49
1, 19200, Note_on_c, 0, 50, 47
1, 19320, Note_on_c, 0, 66, 0
1, 19320, Note_on_c, 0, 62, 40
1, 19440, Note_on_c, 0, 62, 0
1, 19440, Note_on_c, 0, 50, 0
1, 19440, Note_on_c, 0, 64, 40
1, 19440, Note_on_c, 0, 57, 36
1, 19560, Note_on_c, 0, 64, 0
1, 19560, Note_on_c, 0, 66, 42
1, 19680, Note_on_c, 0, 66, 0
1, 19680, Note_on_c, 0, 57, 0
1, 19680, Note_on_c, 0, 67, 51
1, 19680, Note_on_c, 0, 54, 41
1, 19800, Note_on_c, 0, 67, 0
1, 19800, Note_on_c, 0, 69, 42
1, 19920, Note_on_c, 0, 69, 0
1, 19920, Note_on_c, 0, 54, 0
1, 19920, Note_on_c, 0, 71, 44
1, 19920, Note_on_c, 0, 57, 36
1, 20040, Note_on_c, 0, 71, 0
1, 20040, Note_on_c, 0, 73, 46
1, 20160, Tempo, 431997
1, 20160, Note_on_c, 0, 73, 0
1, 20160, Note_on_c, 0, 57, 0
1, 20160, Note_on_c, 0, 74, 57
1, 20160, Note_on_c, 0, 50, 48
1, 20224, Tempo, 433557
1, 20256, Tempo, 435129
1, 20280, Note_on_c, 0, 74, 0
1, 20280, Note_on_c, 0, 76, 47
1, 20288, Tempo, 436713
1, 20320, Tempo, 438308
1, 20352, Tempo, 439915
1, 20384, Tempo, 441534
1, 20400, Note_on_c, 0, 76, 0
1, 20400, Note_on_c, 0, 50, 0
1, 20400, Note_on_c, 0, 78, 49
1, 20400, Note_on_c, 0, 57, 40
1, 20448, Tempo, 443164
1, 20480, Tempo, 444807
1, 20512, Tempo, 446462
1, 20520, Note_on_c, 0, 78, 0
1, 20520, Note_on_c, 0, 79, 48
1, 20544, Tempo, 448129
1, 20576, Tempo, 449809
1, 20608, Tempo, 451501
1, 20640, Note_on_c, 0, 79, 0
1, 20640, Note_on_c, 0, 57, 0
1, 20640, Note_on_c, 0, 81, 57
1, 20640, Note_on_c, 0, 54, 45
1, 20672, Tempo, 453206
1, 20704, Tempo, 454925
1, 20736, Tempo, 456656
1, 20760, Note_on_c, 0, 81, 0
1, 20760, Note_on_c, 0, 83, 57
1, 20768, Tempo, 458400
1, 20800, Tempo, 460158
1, 20832, Tempo, 461929
1, 20880, Note_on_c, 0, 83, 0
1, 20880, Note_on_c, 0, 54, 0
1, 20880, Note_on_c, 0, 85, 64
1, 20880, Note_on_c, 0, 57, 43
1, 20896, Tempo, 463714
1, 20928, Tempo, 465513
1, 20960, Tempo, 467326
1, 20992, Tempo, 469153
1, 21000, Note_on_c, 0, 85, 0
1, 21000, Note_on_c, 0, 86, 69
1, 21024, Tempo, 470995
1, 21056, Tempo, 472851
1, 21088, Tempo, 474721
1, 21120, Tempo, 476607
1, 21120, Note_on_c, 0, 86, 0
1, 21120, Note_on_c, 0, 57, 0
1, 21120, Note_on_c, 0, 55, 58
1, 21120, Note_on_c, 0, 43, 49
1, 21240, Note_on_c, 0, 71, 54
1, 21320, Tempo, 438661
1, 21360, Note_on_c, 0, 71, 0
1, 21360, Note_on_c, 0, 76, 55
1, 21400, Tempo, 437063
1, 21480, Tempo, 435477
1, 21480, Note_on_c, 0, 76, 0
1, 21480, Note_on_c, 0, 79, 61
1, 21560, Tempo, 433902
1, 21600, Tempo, 432339
1, 21600, Note_on_c, 0, 79, 0
1, 21600, Note_on_c, 0, 83, 65
1, 21680, Tempo, 430787
1, 21720, Note_on_c, 0, 83, 0
1, 21720, Note_on_c, 0, 81, 59
1, 21760, Tempo, 429246
1, 21840, Tempo, 427716
1, 21840, Note_on_c, 0, 81, 0
1, 21840, Note_on_c, 0, 79, 59
1, 21880, Tempo, 427716
1, 21960, Note_on_c, 0, 79, 0
1, 21960, Note_on_c, 0, 78, 55
1, 22080, Note_on_c, 0, 78, 0
1, 22080, Note_on_c, 0, 43, 0
1, 22080, Note_on_c, 0, 55, 0
1, 22080, Note_on_c, 0, 76, 54
1, 22080, Note_on_c, 0, 45, 41
1, 22080, Note_on_c, 0, 57, 49
1, 22200, Note_on_c, 0, 76, 0
1, 22200, Note_on_c, 0, 74, 53
1, 22320, Tempo, 429246
1, 22320, Note_on_c, 0, 74, 0
1, 22320, Note_on_c, 0, 73, 51
1, 22400, Tempo, 430447
1, 22440, Note_on_c, 0, 73, 0
1, 22440, Note_on_c, 0, 71, 51
1, 22496, Tempo, 431997
1, 22560, Tempo, 433557
1, 22560, Note_on_c, 0, 71, 0
1, 22560, Note_on_c, 0, 57, 0
1, 22560, Note_on_c, 0, 45, 0
1, 22560, Note_on_c, 0, 69, 55
1, 22560, Note_on_c, 0, 45, 38
1, 22560, Note_on_c, 0, 57, 45
1, 22656, Tempo, 435129
1, 22680, Note_on_c, 0, 69, 0
1, 22680, Note_on_c, 0, 67, 60
1, 22752, Tempo, 436713
1, 22800, Note_on_c, 0, 67, 0
1, 22800, Note_on_c, 0, 66, 63
1, 22816, Tempo, 438308
1, 22912, Tempo, 439915
1, 22920, Note_on_c, 0, 66, 0
1, 22920, Note_on_c, 0, 64, 65
1, 23040, Tempo, 427381
1, 23040, Note_on_c, 0, 64, 0
1, 23040, Note_on_c, 0, 57, 0
1, 23040, Note_on_c, 0, 45, 0
1, 23040, Note_on_c, 0, 62, 78
1, 23040, Note_on_c, 0, 38, 63
1, 23280, Note_on_c, 0, 38, 0
1, 23280, Note_on_c, 0, 42, 50
1, 23520, Tempo, 435129
1, 23520, Note_on_c, 0, 42, 0
1, 23520, Note_on_c, 0, 45, 56
1, 23760, Tempo, 427381
1, 23760, Note_on_c, 0, 45, 0
1, 23760, Note_on_c, 0, 62, 0
1, 23760, Note_on_c, 0, 62, 61
1, 23760, Note_on_c, 0, 50, 50
1, 24000, Note_on_c, 0, 50, 0
1, 24000, Note_on_c, 0, 62, 0
1, 24000, Note_on_c, 0, 61, 65
1, 24000, Note_on_c, 0, 38, 46
1, 24240, Note_on_c, 0, 38, 0
1, 24240, Note_on_c, 0, 61, 0
1, 24240, Note_on_c, 0, 62, 63
1, 24240, Note_on_c, 0, 50, 36
1, 24480, Note_on_c, 0, 50, 0
1, 24480, Note_on_c, 0, 62, 0
1, 24480, Note_on_c, 0, 60, 65
1, 24480, Note_on_c, 0, 38, 42
1, 24720, Tempo, 439915
1, 24720, Note_on_c, 0, 38, 0
1, 24720, Note_on_c, 0, 60, 0
1, 24720, Note_on_c, 0, 66, 62
1, 24720, Note_on_c, 0, 50, 37
1, 24960, Tempo, 425864
1, 24960, Note_on_c, 0, 50, 0
1, 24960, Note_on_c, 0, 66, 0
1, 24960, Note_on_c, 0, 59, 65
1, 24960, Note_on_c, 0, 38, 46
1, 25200, Note_on_c, 0, 38, 0
1, 25200, Note_on_c, 0, 59, 0
1, 25200, Note_on_c, 0, 67, 63
1, 25200, Note_on_c, 0, 50, 29
1, 25440, Tempo, 418439
1, 25440, Note_on_c, 0, 50, 0
1, 25440, Note_on_c, 0, 67, 0
1, 25440, Note_on_c, 0, 69, 65
1, 25440, Note_on_c, 0, 38, 35
1, 25560, Note_on_c, 0, 69, 0
1, 25560, Note_on_c, 0, 67, 62
1, 25680, Note_on_c, 0, 67, 0
1, 25680, Note_on_c, 0, 38, 0
1, 25680, Note_on_c, 0, 66, 62
1, 25680, Note_on_c, 0, 50, 30
1, 25800, Note_on_c, 0, 66, 0
1, 25800, Note_on_c, 0, 67, 62
1, 25920, Tempo, 433557
1, 25920, Note_on_c, 0, 67, 0
1, 25920, Note_on_c, 0, 50, 0
1, 25920, Note_on_c, 0, 71, 71
1, 25920, Note_on_c, 0, 38, 46
1, 26160, Note_on_c, 0, 38, 0
1, 26160, Note_on_c, 0, 71, 0
1, 26160, Note_on_c, 0, 67, 65
1, 26160, Note_on_c, 0, 50, 29
1, 26400, Note_on_c, 0, 50, 0
1, 26400, Note_on_c, 0, 67, 0
1, 26400, Note_on_c, 0, 64, 70
1, 26400, Note_on_c, 0, 38, 35
1, 26640, Tempo, 474721
1, 26640, Note_on_c, 0, 38, 0
1, 26640, Note_on_c, 0, 64, 0
1, 26640, Note_on_c, 0, 73, 68
1, 26640, Note_on_c, 0, 50, 29
1, 26880, Tempo, 427381
1, 26880, Note_on_c, 0, 50, 0
1, 26880, Note_on_c, 0, 73, 0
1, 26880, Note_on_c, 0, 66, 73
1, 26880, Note_on_c, 0, 74, 82
1, 26880, Note_on_c, 0, 38, 63
1, 27120, Note_on_c, 0, 38, 0
1, 27120, Note_on_c, 0, 42, 50
1, 27360, Tempo, 435129
1, 27360, Note_on_c, 0, 42, 0
1, 27360, Note_on_c, 0, 45, 56
1, 27600, Tempo, 427381
1, 27600, Note_on_c, 0, 45, 0
1, 27600, Note_on_c, 0, 74, 0
1, 27600, Note_on_c, 0, 66, 0
1, 27600, Note_on_c, 0, 74, 67
1, 27600, Note_on_c, 0, 50, 50
1, 27840, Note_on_c, 0, 50, 0
1, 27840, Note_on_c, 0, 74, 0
1, 27840, Note_on_c, 0, 73, 71
1, 27840, Note_on_c, 0, 38, 46
1, 28080, Note_on_c, 0, 38, 0
1, 28080, Note_on_c, 0, 73, 0
1, 28080, Note_on_c, 0, 74, 69
1, 28080, Note_on_c, 0, 50, 31
1, 28320, Note_on_c, 0, 50, 0
1, 28320, Note_on_c, 0, 74, 0
1, 28320, Note_on_c, 0, 72, 71
1, 28320, Note_on_c, 0, 38, 36
1, 28560, Tempo, 439915
1, 28560, Note_on_c, 0, 38, 0
1, 28560, Note_on_c, 0, 72, 0
1, 28560, Note_on_c, 0, 78, 68
1, 28560, Note_on_c, 0, 50, 32
1, 28800, Tempo, 425864
1, 28800, Note_on_c, 0, 50, 0
1, 28800, Note_on_c, 0, 78, 0
1, 28800, Note_on_c, 0, 71, 71
1, 28800, Note_on_c, 0, 38, 46
1, 29040, Note_on_c, 0, 38, 0
1, 29040, Note_on_c, 0, 71, 0
1, 29040, Note_on_c, 0, 79, 69
1, 29040, Note_on_c, 0, 50, 32
1, 29280, Tempo, 418439
1, 29280, Note_on_c, 0, 50, 0
1, 29280, Note_on_c, 0, 79, 0
1, 29280, Note_on_c, 0, 81, 71
1, 29280, Note_on_c, 0, 38, 40
1, 29400, Note_on_c, 0, 81, 0
1, 29400, Note_on_c, 0, 79, 68
1, 29520, Note_on_c, 0, 79, 0
1, 29520, Note_on_c, 0, 38, 0
1, 29520, Note_on_c, 0, 78, 68
1, 29520, Note_on_c, 0, 50, 33
1, 29640, Note_on_c, 0, 78, 0
1, 29640, Note_on_c, 0, 79, 68
1, 29760, Tempo, 435129
1, 29760, Note_on_c, 0, 79, 0
1, 29760, Note_on_c, 0, 50, 0
1, 29760, Note_on_c, 0, 83, 78
1, 29760, Note_on_c, 0, 38, 46
1, 30000, Note_on_c, 0, 38, 0
1, 30000, Note_on_c, 0, 83, 0
1, 30000, Note_on_c, 0, 79, 71
1, 30000, Note_on_c, 0, 50, 32
1, 30240, Note_on_c, 0, 50, 0
1, 30240, Note_on_c, 0, 79, 0
1, 30240, Note_on_c, 0, 76, 77
1, 30240, Note_on_c, 0, 38, 38
1, 30480, Tempo, 453206
1, 30480, Note_on_c, 0, 38, 0
1, 30480, Note_on_c, 0, 76, 0
1, 30480, Note_on_c, 0, 85, 71
1, 30480, Note_on_c, 0, 50, 34
1, 30720, Tempo, 427381
1, 30720, Note_on_c, 0, 50, 0
1, 30720, Note_on_c, 0, 85, 0
1, 30720, Note_on_c, 0, 78, 73
1, 30720, Note_on_c, 0, 86, 82
1, 30720, Note_on_c, 0, 50, 63
1, 30960, Note_on_c, 0, 50, 0
1, 30960, Note_on_c, 0, 54, 42
1, 31200, Tempo, 438308
1, 31200, Note_on_c, 0, 54, 0
1, 31200, Note_on_c, 0, 57, 42
1, 31440, Tempo, 427381
1, 31440, Note_on_c, 0, 57, 0
1, 31440, Note_on_c, 0, 86, 0
1, 31440, Note_on_c, 0, 78, 0
1, 31440, Note_on_c, 0, 86, 69
1, 31440, Note_on_c, 0, 62, 41
1, 31680, Note_on_c, 0, 62, 0
1, 31680, Note_on_c, 0, 86, 0
1, 31680, Note_on_c, 0, 80, 77
1, 31680, Note_on_c, 0, 59, 41
1, 31800, Note_on_c, 0, 80, 0
1, 31920, Note_on_c, 0, 59, 0
1, 31920, Note_on_c, 0, 80, 73
1, 31920, Note_on_c, 0, 62, 40
1, 32040, Note_on_c, 0, 80, 0
1, 32160, Tempo, 415541
1, 32160, Note_on_c, 0, 62, 0
1, 32160, Note_on_c, 0, 83, 71
1, 32160, Note_on_c, 0, 57, 49
1, 32280, Note_on_c, 0, 83, 0
1, 32280, Note_on_c, 0, 81, 61
1, 32400, Tempo, 444807
1, 32400, Note_on_c, 0, 81, 0
1, 32400, Note_on_c, 0, 57, 0
1, 32400, Note_on_c, 0, 80, 65
1, 32400, Note_on_c, 0, 62, 41
1, 32520, Note_on_c, 0, 80, 0
1, 32520, Note_on_c, 0, 81, 62
1, 32640, Tempo, 427381
1, 32640, Note_on_c, 0, 81, 0
1, 32640, Note_on_c, 0, 62, 0
1, 32640, Note_on_c, 0, 83, 71
1, 32640, Note_on_c, 0, 56, 63
1, 32880, Note_on_c, 0, 56, 0
1, 32880, Note_on_c, 0, 83, 0
1, 32880, Note_on_c, 0, 62, 32
1, 33120, Tempo, 438308
1, 33120, Note_on_c, 0, 62, 0
1, 33120, Note_on_c, 0, 52, 38
1, 33360, Tempo, 427381
1, 33360, Note_on_c, 0, 52, 0
1, 33360, Note_on_c, 0, 86, 69
1, 33360, Note_on_c, 0, 62, 32
1, 33600, Note_on_c, 0, 62, 0
1, 33600, Note_on_c, 0, 86, 0
1, 33600, Note_on_c, 0, 80, 77
1, 33600, Note_on_c, 0, 59, 41
1, 33720, Note_on_c, 0, 80, 0
1, 33840, Note_on_c, 0, 59, 0
1, 33840, Note_on_c, 0, 80, 73
1, 33840, Note_on_c, 0, 62, 40
1, 33960, Note_on_c, 0, 80, 0
1, 34080, Tempo, 415541
1, 34080, Note_on_c, 0, 62, 0
1, 34080, Note_on_c, 0, 83, 71
1, 34080, Note_on_c, 0, 57, 49
1, 34200, Note_on_c, 0, 83, 0
1, 34200, Note_on_c, 0, 81, 61
1, 34320, Tempo, 451501
1, 34320, Note_on_c, 0, 81, 0
1, 34320, Note_on_c, 0, 57, 0
1, 34320, Note_on_c, 0, 80, 65
1, 34320, Note_on_c, 0, 62, 41
1, 34440, Note_on_c, 0, 80, 0
1, 34440, Note_on_c, 0, 81, 62
1, 34560, Tempo, 439915
1, 34560, Note_on_c, 0, 81, 0
1, 34560, Note_on_c, 0, 62, 0
1, 34560, Note_on_c, 0, 83, 71
1, 34560, Note_on_c, 0, 56, 63
1, 34800, Tempo, 433557
1, 34800, Note_on_c, 0, 56, 0
1, 34800, Note_on_c, 0, 83, 0
1, 34800, Note_on_c, 0, 62, 32
1, 34920, Tempo, 428908
1, 35040, Tempo, 438308
1, 35040, Note_on_c, 0, 62, 0
1, 35040, Note_on_c, 0, 52, 39
1, 35280, Tempo, 428449
1, 35280, Note_on_c, 0, 83, 59
1, 35400, Note_on_c, 0, 83, 0
1, 35400, Note_on_c, 0, 85, 59
1, 35520, Tempo, 436427
1, 35520, Note_on_c, 0, 85, 0
1, 35520, Note_on_c, 0, 52, 0
1, 35520, Note_on_c, 0, 86, 65
1, 35640, Note_on_c, 0, 86, 0
1, 35640, Note_on_c, 0, 85, 61
1, 35760, Note_on_c, 0, 85, 0
1, 35760, Note_on_c, 0, 83, 61
1, 35880, Note_on_c, 0, 83, 0
1, 35880, Note_on_c, 0, 85, 61
1, 36000, Note_on_c, 0, 85, 0
1, 36000, Note_on_c, 0, 86, 65
1, 36120, Note_on_c, 0, 86, 0
1, 36120, Note_on_c, 0, 85, 61
1, 36240, Note_on_c, 0, 85, 0
1, 36240, Note_on_c, 0, 83, 61
1, 36360, Note_on_c, 0, 83, 0
1, 36360, Note_on_c, 0, 85, 61
1, 36480, Tempo, 434814
1, 36480, Note_on_c, 0, 85, 0
1, 36480, Note_on_c, 0, 86, 65
1, 36480, Note_on_c, 0, 40, 63
1, 36483, Tempo, 433213
1, 36600, Note_on_c, 0, 40, 0
1, 36600, Note_on_c, 0, 86, 0
1, 36600, Note_on_c, 0, 85, 61
1, 36675, Tempo, 431624
1, 36720, Note_on_c, 0, 85, 0
1, 36720, Note_on_c, 0, 83, 61
1, 36720, Note_on_c, 0, 52, 56
1, 36835, Tempo, 430015
1, 36840, Note_on_c, 0, 52, 0
1, 36840, Note_on_c, 0, 83, 0
1, 36840, Note_on_c, 0, 85, 61
1, 36960, Note_on_c, 0, 85, 0
1, 36960, Note_on_c, 0, 86, 65
1, 36960, Note_on_c, 0, 40, 63
1, 36995, Tempo, 428449
1, 37080, Note_on_c, 0, 40, 0
1, 37080, Note_on_c, 0, 86, 0
1, 37080, Note_on_c, 0, 85, 61
1, 37155, Tempo, 426894
1, 37200, Note_on_c, 0, 85, 0
1, 37200, Note_on_c, 0, 83, 61
1, 37200, Note_on_c, 0, 52, 56
1, 37315, Tempo, 425351
1, 37320, Tempo, 460405
1, 37320, Note_on_c, 0, 52, 0
1, 37320, Note_on_c, 0, 83, 0
1, 37320, Note_on_c, 0, 85, 61
1, 37411, Tempo, 431624
1, 37440, Note_on_c, 0, 85, 0
1, 37440, Note_on_c, 0, 86, 66
1, 37440, Note_on_c, 0, 42, 63
1, 37539, Tempo, 430015
1, 37560, Note_on_c, 0, 42, 0
1, 37560, Note_on_c, 0, 86, 0
1, 37560, Note_on_c, 0, 85, 62
1, 37667, Tempo, 428449
1, 37680, Note_on_c, 0, 85, 0
1, 37680, Note_on_c, 0, 83, 61
1, 37680, Note_on_c, 0, 54, 57
1, 37795, Tempo, 426894
1, 37800, Note_on_c, 0, 54, 0
1, 37800, Note_on_c, 0, 83, 0
1, 37800, Note_on_c, 0, 81, 61
1, 37920, Note_on_c, 0, 81, 0
1, 37920, Note_on_c, 0, 80, 59
1, 37920, Note_on_c, 0, 44, 63
1, 37923, Tempo, 425351
1, 38040, Note_on_c, 0, 44, 0
1, 38040, Note_on_c, 0, 80, 0
1, 38040, Note_on_c, 0, 78, 58
1, 38051, Tempo, 423819
1, 38160, Note_on_c, 0, 78, 0
1, 38160, Note_on_c, 0, 76, 57
1, 38160, Note_on_c, 0, 56, 57
1, 38179, Tempo, 422297
1, 38280, Note_on_c, 0, 56, 0
1, 38280, Note_on_c, 0, 76, 0
1, 38280, Note_on_c, 0, 74, 55
1, 38307, Tempo, 420787
1, 38400, Note_on_c, 0, 74, 0
1, 38400, Note_on_c, 0, 73, 61
1, 38400, Note_on_c, 0, 45, 63
1, 38403, Tempo, 426894
1, 38520, Note_on_c, 0, 45, 0
1, 38520, Note_on_c, 0, 73, 0
1, 38520, Note_on_c, 0, 69, 55
1, 38640, Note_on_c, 0, 69, 0
1, 38640, Note_on_c, 0, 71, 55
1, 38640, Note_on_c, 0, 57, 56
1, 38760, Note_on_c, 0, 57, 0
1, 38760, Note_on_c, 0, 71, 0
1, 38760, Note_on_c, 0, 73, 56
1, 38880, Note_on_c, 0, 73, 0
1, 38880, Note_on_c, 0, 74, 56
1, 38880, Note_on_c, 0, 45, 63
1, 39000, Note_on_c, 0, 45, 0
1, 39000, Note_on_c, 0, 74, 0
1, 39000, Note_on_c, 0, 76, 56
1, 39120, Note_on_c, 0, 76, 0
1, 39120, Note_on_c, 0, 78, 60
1, 39120, Note_on_c, 0, 57, 56
1, 39240, Tempo, 473410
1, 39240, Note_on_c, 0, 57, 0
1, 39240, Note_on_c, 0, 78, 0
1, 39240, Note_on_c, 0, 80, 62
1, 39360, Tempo, 433213
1, 39360, Note_on_c, 0, 80, 0
1, 39360, Note_on_c, 0, 81, 63
1, 39360, Note_on_c, 0, 54, 63
1, 39600, Note_on_c, 0, 54, 0
1, 39600, Note_on_c, 0, 81, 0
1, 39600, Note_on_c, 0, 69, 56
1, 39600, Note_on_c, 0, 57, 55
1, 39720, Tempo, 428449
1, 39840, Tempo, 425351
1, 39840, Note_on_c, 0, 57, 0
1, 39840, Note_on_c, 0, 69, 0
1, 39840, Note_on_c, 0, 71, 63
1, 39840, Note_on_c, 0, 54, 63
1, 39960, Note_on_c, 0, 71, 0
1, 39960, Note_on_c, 0, 69, 57
1, 40080, Note_on_c, 0, 69, 0
1, 40080, Note_on_c, 0, 54, 0
1, 40080, Note_on_c, 0, 68, 57
1, 40080, Note_on_c, 0, 57, 56
1, 40200, Tempo, 548697
1, 40200, Note_on_c, 0, 68, 0
1, 40200, Note_on_c, 0, 69, 57
1, 40320, Tempo, 433213
1, 40320, Note_on_c, 0, 69, 0
1, 40320, Note_on_c, 0, 57, 0
1, 40320, Note_on_c, 0, 81, 63
1, 40320, Note_on_c, 0, 49, 63
1, 40560, Note_on_c, 0, 49, 0
1, 40560, Note_on_c, 0, 81, 0
1, 40560, Note_on_c, 0, 69, 56
1, 40560, Note_on_c, 0, 57, 55
1, 40800, Tempo, 425351
1, 40800, Note_on_c, 0, 57, 0
1, 40800, Note_on_c, 0, 69, 0
1, 40800, Note_on_c, 0, 71, 63
1, 40800, Note_on_c, 0, 49, 63
1, 40920, Note_on_c, 0, 71, 0
1, 40920, Note_on_c, 0, 69, 57
1, 41040, Note_on_c, 0, 69, 0
1, 41040, Note_on_c, 0, 49, 0
1, 41040, Note_on_c, 0, 68, 57
1, 41040, Note_on_c, 0, 57, 56
1, 41160, Tempo, 506116
1, 41160, Note_on_c, 0, 68, 0
1, 41160, Note_on_c, 0, 69, 57
1, 41280, Tempo, 433213
1, 41280, Note_on_c, 0, 69, 0
1, 41280, Note_on_c, 0, 57, 0
1, 41280, Note_on_c, 0, 81, 63
1, 41280, Note_on_c, 0, 51, 53
1, 41280, Note_on_c, 0, 54, 63
1, 41520, Note_on_c, 0, 54, 0
1, 41520, Note_on_c, 0, 81, 0
1, 41520, Note_on_c, 0, 69, 56
1, 41520, Note_on_c, 0, 57, 55
1, 41760, Tempo, 425351
1, 41760, Note_on_c, 0, 57, 0
1, 41760, Note_on_c, 0, 69, 0
1, 41760, Note_on_c, 0, 51, 0
1, 41760, Note_on_c, 0, 71, 63
1, 41760, Note_on_c, 0, 51, 53
1, 41760, Note_on_c, 0, 54, 63
1, 41880, Note_on_c, 0, 71, 0
1, 41880, Note_on_c, 0, 69, 57
1, 42000, Note_on_c, 0, 69, 0
1, 42000, Note_on_c, 0, 54, 0
1, 42000, Note_on_c, 0, 68, 57
1, 42000, Note_on_c, 0, 57, 56
1, 42120, Tempo, 473410
1, 42120, Note_on_c, 0, 68, 0
1, 42120, Note_on_c, 0, 69, 57
1, 42240, Tempo, 462214
1, 42240, Note_on_c, 0, 69, 0
1, 42240, Note_on_c, 0, 57, 0
1, 42240, Note_on_c, 0, 51, 0
1, 42240, Note_on_c, 0, 68, 67
1, 42240, Note_on_c, 0, 52, 68
1, 42360, Note_on_c, 0, 52, 0
1, 42360, Note_on_c, 0, 68, 0
1, 42720, Tempo, 455063
1, 42720, Note_on_c, 0, 68, 60
1, 42720, Note_on_c, 0, 71, 60
1, 42720, Note_on_c, 0, 76, 72
1, 42720, Note_on_c, 0, 40, 53
1, 42720, Note_on_c, 0, 52, 63
1, 42840, Note_on_c, 0, 52, 0
1, 42840, Note_on_c, 0, 76, 0
1, 42840, Note_on_c, 0, 68, 0
1, 42840, Note_on_c, 0, 71, 0
1, 42840, Note_on_c, 0, 40, 0
1, 43200, Tempo, 508302
1, 43200, Note_on_c, 0, 76, 74
1, 43200, Note_on_c, 0, 71, 63
1, 43200, Note_on_c, 0, 68, 63
1, 43200, Note_on_c, 0, 40, 53
1, 43200, Note_on_c, 0, 52, 63
1, 43320, Note_on_c, 0, 52, 0
1, 43320, Note_on_c, 0, 68, 0
1, 43320, Note_on_c, 0, 76, 0
1, 43320, Note_on_c, 0, 71, 0
1, 43320, Note_on_c, 0, 40, 0
1, 43680, Tempo, 455063
1, 43680, Note_on_c, 0, 74, 50
1, 43920, Note_on_c, 0, 74, 0
1, 43920, Note_on_c, 0, 73, 46
1, 44160, Note_on_c, 0, 73, 0
1, 44160, Note_on_c, 0, 71, 50
1, 44160, Note_on_c, 0, 62, 31
1, 44400, Note_on_c, 0, 62, 0
1, 44400, Note_on_c, 0, 64, 24
1, 44520, Note_on_c, 0, 71, 0
1, 44640, Note_on_c, 0, 64, 0
1, 44640, Note_on_c, 0, 71, 47
1, 44640, Note_on_c, 0, 62, 31
1, 44880, Tempo, 467763
1, 44880, Note_on_c, 0, 62, 0
1, 44880, Note_on_c, 0, 64, 26
1, 45120, Tempo, 453309
1, 45120, Note_on_c, 0, 64, 0
1, 45120, Note_on_c, 0, 71, 0
1, 45120, Note_on_c, 0, 76, 50
1, 45120, Note_on_c, 0, 62, 31
1, 45268, Control_c, 0, 64, 127
1, 45360, Note_on_c, 0, 62, 0
1, 45360, Note_on_c, 0, 64, 25
1, 45600, Note_on_c, 0, 64, 0
1, 45600, Note_on_c, 0, 76, 0
1, 45600, Note_on_c, 0, 68, 46
1, 45600, Note_on_c, 0, 62, 31
1, 45609, Control_c, 0, 64, 0
1, 45706, Control_c, 0, 64, 127
1, 45840, Tempo, 481193
1, 45840, Note_on_c, 0, 62, 0
1, 45840, Note_on_c, 0, 64, 28
1, 46080, Tempo, 455063
1, 46080, Note_on_c, 0, 64, 0
1, 46080, Note_on_c, 0, 68, 0
1, 46080, Note_on_c, 0, 71, 50
1, 46080, Note_on_c, 0, 61, 31
1, 46080, Control_c, 0, 64, 0
1, 46320, Tempo, 446395
1, 46320, Note_on_c, 0, 61, 0
1, 46320, Note_on_c, 0, 64, 18
1, 46560, Tempo, 434814
1, 46560, Note_on_c, 0, 64, 0
1, 46560, Note_on_c, 0, 61, 20
1, 46800, Tempo, 453309
1, 46800, Note_on_c, 0, 61, 0
1, 46800, Note_on_c, 0, 64, 15
1, 47040, Note_on_c, 0, 64, 0
1, 47040, Note_on_c, 0, 71, 0
1, 47040, Note_on_c, 0, 69, 44
1, 47040, Note_on_c, 0, 61, 31
1, 47160, Tempo, 455063
1, 47266, Control_c, 0, 64, 127
1, 47280, Note_on_c, 0, 61, 0
1, 47280, Note_on_c, 0, 64, 23
1, 47520, Tempo, 441371
1, 47520, Note_on_c, 0, 64, 0
1, 47520, Note_on_c, 0, 69, 0
1, 47520, Note_on_c, 0, 71, 51
1, 47520, Note_on_c, 0, 61, 33
1, 47535, Control_c, 0, 64, 0
1, 47760, Tempo, 471513
1, 47760, Note_on_c, 0, 61, 0
1, 47760, Note_on_c, 0, 71, 0
1, 47760, Note_on_c, 0, 73, 52
1, 47760, Note_on_c, 0, 64, 30
1, 48000, Tempo, 456830
1, 48000, Note_on_c, 0, 64, 0
1, 48000, Note_on_c, 0, 73, 0
1, 48000, Note_on_c, 0, 74, 60
1, 48000, Note_on_c, 0, 59, 38
1, 48240, Note_on_c, 0, 59, 0
1, 48240, Note_on_c, 0, 64, 24
1, 48360, Note_on_c, 0, 74, 0
1, 48480, Note_on_c, 0, 64, 0
1, 48480, Note_on_c, 0, 74, 47
1, 48480, Note_on_c, 0, 52, 31
1, 48516, Control_c, 0, 64, 127
1, 48720, Tempo, 462214
1, 48720, Note_on_c, 0, 52, 0
1, 48720, Note_on_c, 0, 64, 26
1, 48960, Tempo, 455063
1, 48960, Note_on_c, 0, 64, 0
1, 48960, Note_on_c, 0, 74, 0
1, 48960, Note_on_c, 0, 73, 50
1, 48960, Note_on_c, 0, 57, 31
1, 48974, Control_c, 0, 64, 0
1, 49094, Control_c, 0, 64, 127
1, 49200, Note_on_c, 0, 57, 0
1, 49200, Note_on_c, 0, 64, 25
1, 49440, Note_on_c, 0, 64, 0
1, 49440, Note_on_c, 0, 73, 0
1, 49440, Note_on_c, 0, 73, 46
1, 49440, Note_on_c, 0, 52, 31
1, 49680, Tempo, 481193
1, 49680, Note_on_c, 0, 52, 0
1, 49680, Note_on_c, 0, 64, 28
1, 49920, Tempo, 446395
1, 49920, Note_on_c, 0, 64, 0
1, 49920, Note_on_c, 0, 73, 0
1, 49920, Note_on_c, 0, 71, 54
1, 49920, Note_on_c, 0, 56, 31
1, 49932, Control_c, 0, 64, 0
1, 50160, Tempo, 499625
1, 50160, Note_on_c, 0, 56, 0
1, 50160, Note_on_c, 0, 71, 0
1, 50160, Note_on_c, 0, 64, 23
1, 50400, Tempo, 453309
1, 50400, Note_on_c, 0, 64, 0
1, 50400, Note_on_c, 0, 76, 49
1, 50400, Note_on_c, 0, 52, 30
1, 50526, Control_c, 0, 64, 127
1, 50640, Note_on_c, 0, 52, 0
1, 50640, Note_on_c, 0, 64, 24
1, 50880, Tempo, 443033
1, 50880, Note_on_c, 0, 64, 0
1, 50880, Note_on_c, 0, 56, 31
1, 51120, Note_on_c, 0, 56, 0
1, 51120, Note_on_c, 0, 64, 23
1, 51360, Tempo, 443033
1, 51360, Note_on_c, 0, 64, 0
1, 51360, Note_on_c, 0, 76, 0
1, 51360, Note_on_c, 0, 74, 50
1, 51360, Note_on_c, 0, 59, 31
1, 51379, Control_c, 0, 64, 0
1, 51600, Tempo, 464073
1, 51600, Note_on_c, 0, 59, 0
1, 51600, Note_on_c, 0, 74, 0
1, 51600, Note_on_c, 0, 73, 46
1, 51600, Note_on_c, 0, 64, 23
1, 51840, Tempo, 453309
1, 51840, Note_on_c, 0, 64, 0
1, 51840, Note_on_c, 0, 73, 0
1, 51840, Note_on_c, 0, 71, 50
1, 51840, Note_on_c, 0, 62, 31
1, 52080, Note_on_c, 0, 62, 0
1, 52080, Note_on_c, 0, 64, 24
1, 52200, Note_on_c, 0, 71, 0
1, 52320, Tempo, 446395
1, 52320, Note_on_c, 0, 64, 0
1, 52320, Note_on_c, 0, 71, 47
1, 52320, Note_on_c, 0, 62, 31
1, 52348, Control_c, 0, 64, 127
1, 52560, Note_on_c, 0, 62, 0
1, 52560, Note_on_c, 0, 64, 26
1, 52800, Tempo, 453309
1, 52800, Note_on_c, 0, 64, 0
1, 52800, Note_on_c, 0, 71, 0
1, 52800, Note_on_c, 0, 76, 50
1, 52800, Note_on_c, 0, 62, 31
1, 52807, Control_c, 0, 64, 0
1, 52906, Control_c, 0, 64, 127
1, 53040, Note_on_c, 0, 62, 0
1, 53040, Note_on_c, 0, 64, 25
1, 53280, Note_on_c, 0, 64, 0
1, 53280, Note_on_c, 0, 76, 0
1, 53280, Note_on_c, 0, 68, 46
1, 53280, Note_on_c, 0, 62, 31
1, 53293, Control_c, 0, 64, 0
1, 53421, Control_c, 0, 64, 127
1, 53520, Tempo, 481193
1, 53520, Note_on_c, 0, 62, 0
1, 53520, Note_on_c, 0, 64, 28
1, 53760, Tempo, 455063
1, 53760, Note_on_c, 0, 64, 0
1, 53760, Note_on_c, 0, 68, 0
1, 53760, Note_on_c, 0, 71, 50
1, 53760, Note_on_c, 0, 61, 31
1, 53777, Control_c, 0, 64, 0
1, 54000, Tempo, 438052
1, 54000, Note_on_c, 0, 61, 0
1, 54000, Note_on_c, 0, 64, 23
1, 54240, Note_on_c, 0, 64, 0
1, 54240, Note_on_c, 0, 61, 24
1, 54480, Tempo, 458610
1, 54480, Note_on_c, 0, 61, 0
1, 54480, Note_on_c, 0, 64, 19
1, 54720, Tempo, 453309
1, 54720, Note_on_c, 0, 64, 0
1, 54720, Note_on_c, 0, 71, 0
1, 54720, Note_on_c, 0, 69, 44
1, 54720, Note_on_c, 0, 61, 31
1, 54890, Control_c, 0, 64, 127
1, 54960, Note_on_c, 0, 61, 0
1, 54960, Note_on_c, 0, 64, 23
1, 55200, Tempo, 443033
1, 55200, Note_on_c, 0, 64, 0
1, 55200, Note_on_c, 0, 69, 0
1, 55200, Note_on_c, 0, 81, 50
1, 55200, Note_on_c, 0, 61, 31
1, 55440, Tempo, 471513
1, 55440, Note_on_c, 0, 61, 0
1, 55440, Note_on_c, 0, 81, 0
1, 55440, Note_on_c, 0, 76, 46
1, 55440, Note_on_c, 0, 64, 23
1, 55680, Tempo, 453309
1, 55680, Note_on_c, 0, 64, 0
1, 55680, Note_on_c, 0, 76, 0
1, 55680, Note_on_c, 0, 73, 50
1, 55680, Note_on_c, 0, 52, 31
1, 55688, Control_c, 0, 64, 0
1, 55920, Note_on_c, 0, 52, 0
1, 55920, Note_on_c, 0, 64, 24
1, 56040, Tempo, 446395
1, 56040, Note_on_c, 0, 73, 0
1, 56160, Note_on_c, 0, 64, 0
1, 56160, Note_on_c, 0, 73, 47
1, 56160, Note_on_c, 0, 57, 31
1, 56217, Control_c, 0, 64, 127
1, 56400, Note_on_c, 0, 57, 0
1, 56400, Note_on_c, 0, 64, 26
1, 56640, Tempo, 453309
1, 56640, Note_on_c, 0, 64, 0
1, 56640, Note_on_c, 0, 52, 31
1, 56880, Note_on_c, 0, 52, 0
1, 56880, Note_on_c, 0, 73, 0
1, 56880, Note_on_c, 0, 76, 50
1, 56880, Note_on_c, 0, 64, 25
1, 57120, Note_on_c, 0, 64, 0
1, 57120, Note_on_c, 0, 76, 0
1, 57120, Note_on_c, 0, 74, 46
1, 57120, Note_on_c, 0, 56, 31
1, 57137, Control_c, 0, 64, 0
1, 57226, Control_c, 0, 64, 127
1, 57360, Tempo, 481193
1, 57360, Note_on_c, 0, 56, 0
1, 57360, Note_on_c, 0, 74, 0
1, 57360, Note_on_c, 0, 71, 44
1, 57360, Note_on_c, 0, 64, 28
1, 57600, Tempo, 423819
1, 57600, Note_on_c, 0, 64, 0
1, 57600, Note_on_c, 0, 71, 0
1, 57600, Note_on_c, 0, 69, 54
1, 57600, Note_on_c, 0, 57, 34
1, 57600, Note_on_c, 0, 61, 40
1, 57614, Control_c, 0, 64, 0
1, 57720, Note_on_c, 0, 69, 0
1, 57720, Note_on_c, 0, 71, 46
1, 57840, Note_on_c, 0, 71, 0
1, 57840, Note_on_c, 0, 69, 53
1, 57960, Note_on_c, 0, 69, 0
1, 57960, Note_on_c, 0, 71, 46
1, 58080, Note_on_c, 0, 71, 0
1, 58080, Note_on_c, 0, 61, 0
1, 58080, Note_on_c, 0, 57, 0
1, 58080, Note_on_c, 0, 73, 57
1, 58140, Note_on_c, 0, 73, 0
1, 58320, Tempo, 456830
1, 58320, Note_on_c, 0, 69, 51
1, 58380, Note_on_c, 0, 69, 0
1, 58560, Tempo, 430015
1, 58560, Note_on_c, 0, 66, 54
1, 58560, Note_on_c, 0, 57, 26
1, 58560, Note_on_c, 0, 62, 31
1, 58680, Tempo, 426894
1, 58680, Note_on_c, 0, 62, 0
1, 58680, Note_on_c, 0, 57, 0
1, 58680, Note_on_c, 0, 66, 0
1, 58680, Note_on_c, 0, 69, 46
1, 58800, Note_on_c, 0, 69, 0
1, 58800, Note_on_c, 0, 66, 53
1, 58920, Note_on_c, 0, 66, 0
1, 58920, Note_on_c, 0, 69, 46
1, 59040, Note_on_c, 0, 69, 0
1, 59040, Note_on_c, 0, 68, 55
1, 59040, Note_on_c, 0, 59, 31
1, 59040, Note_on_c, 0, 57, 26
1, 59160, Note_on_c, 0, 57, 0
1, 59160, Note_on_c, 0, 59, 0
1, 59160, Note_on_c, 0, 68, 0
1, 59160, Note_on_c, 0, 71, 46
1, 59280, Tempo, 456830
1, 59280, Note_on_c, 0, 71, 0
1, 59280, Note_on_c, 0, 68, 53
1, 59400, Note_on_c, 0, 68, 0
1, 59400, Note_on_c, 0, 71, 46
1, 59520, Tempo, 423819
1, 59520, Note_on_c, 0, 71, 0
1, 59520, Note_on_c, 0, 69, 54
1, 59520, Note_on_c, 0, 57, 34
1, 59520, Note_on_c, 0, 61, 40
1, 59640, Note_on_c, 0, 69, 0
1, 59640, Note_on_c, 0, 71, 46
1, 59760, Note_on_c, 0, 71, 0
1, 59760, Note_on_c, 0, 69, 53
1, 59880, Note_on_c, 0, 69, 0
1, 59880, Note_on_c, 0, 71, 46
1, 60000, Note_on_c, 0, 71, 0
1, 60000, Note_on_c, 0, 61, 0
1, 60000, Note_on_c, 0, 57, 0
1, 60000, Note_on_c, 0, 73, 57
1, 60060, Note_on_c, 0, 73, 0
1, 60240, Tempo, 456830
1, 60240, Note_on_c, 0, 69, 51
1, 60300, Note_on_c, 0, 69, 0
1, 60480, Tempo, 430015
1, 60480, Note_on_c, 0, 66, 54
1, 60480, Note_on_c, 0, 57, 26
1, 60480, Note_on_c, 0, 62, 31
1, 60600, Tempo, 426894
1, 60600, Note_on_c, 0, 62, 0
1, 60600, Note_on_c, 0, 57, 0
1, 60600, Note_on_c, 0, 66, 0
1, 60600, Note_on_c, 0, 69, 46
1, 60720, Note_on_c, 0, 69, 0
1, 60720, Note_on_c, 0, 66, 53
1, 60840, Note_on_c, 0, 66, 0
1, 60840, Note_on_c, 0, 69, 46
1, 60960, Tempo, 436427
1, 60960, Note_on_c, 0, 69, 0
1, 60960, Note_on_c, 0, 68, 55
1, 60960, Note_on_c, 0, 59, 31
1, 60960, Note_on_c, 0, 57, 26
1, 61080, Note_on_c, 0, 57, 0
1, 61080, Note_on_c, 0, 59, 0
1, 61080, Note_on_c, 0, 68, 0
1, 61080, Note_on_c, 0, 71, 46
1, 61200, Tempo, 456830
1, 61200, Note_on_c, 0, 71, 0
1, 61200, Note_on_c, 0, 68, 53
1, 61320, Tempo, 483170
1, 61320, Note_on_c, 0, 68, 0
1, 61320, Note_on_c, 0, 71, 46
1, 61421, Tempo, 453309
1, 61440, Note_on_c, 0, 71, 0
1, 61440, Note_on_c, 0, 69, 56
1, 61440, Note_on_c, 0, 57, 34
1, 61440, Note_on_c, 0, 61, 40
1, 61453, Tempo, 451535
1, 61485, Tempo, 449809
1, 61517, Tempo, 448096
1, 61549, Tempo, 444708
1, 61560, Note_on_c, 0, 69, 0
1, 61560, Note_on_c, 0, 71, 53
1, 61581, Tempo, 443033
1, 61613, Tempo, 441371
1, 61645, Tempo, 438052
1, 61677, Tempo, 436427
1, 61680, Note_on_c, 0, 71, 0
1, 61680, Note_on_c, 0, 73, 55
1, 61709, Tempo, 434814
1, 61741, Tempo, 431624
1, 61775, Tempo, 436427
1, 61800, Note_on_c, 0, 73, 0
1, 61800, Note_on_c, 0, 74, 56
1, 61871, Tempo, 434814
1, 61920, Note_on_c, 0, 74, 0
1, 61920, Note_on_c, 0, 61, 0
1, 61920, Note_on_c, 0, 57, 0
1, 61920, Note_on_c, 0, 76, 58
1, 61967, Tempo, 433213
1, 62040, Note_on_c, 0, 76, 0
1, 62040, Note_on_c, 0, 78, 58
1, 62063, Tempo, 431624
1, 62159, Tempo, 430015
1, 62160, Note_on_c, 0, 78, 0
1, 62160, Note_on_c, 0, 80, 58
1, 62255, Tempo, 428449
1, 62280, Tempo, 483170
1, 62280, Note_on_c, 0, 80, 0
1, 62280, Note_on_c, 0, 81, 62
1, 62400, Tempo, 436427
1, 62400, Note_on_c, 0, 81, 0
1, 62400, Note_on_c, 0, 69, 71
1, 62400, Note_on_c, 0, 42, 55
1, 62400, Note_on_c, 0, 54, 65
1, 62520, Note_on_c, 0, 69, 0
1, 62520, Note_on_c, 0, 71, 71
1, 62607, Tempo, 436427
1, 62640, Note_on_c, 0, 71, 0
1, 62640, Note_on_c, 0, 54, 0
1, 62640, Note_on_c, 0, 42, 0
1, 62640, Note_on_c, 0, 73, 71
1, 62760, Note_on_c, 0, 73, 0
1, 62760, Note_on_c, 0, 74, 72
1, 62863, Tempo, 434814
1, 62880, Note_on_c, 0, 74, 0
1, 62880, Note_on_c, 0, 76, 73
1, 62880, Note_on_c, 0, 54, 57
1, 62880, Note_on_c, 0, 42, 48
1, 63000, Note_on_c, 0, 76, 0
1, 63000, Note_on_c, 0, 78, 74
1, 63119, Tempo, 433213
1, 63120, Note_on_c, 0, 78, 0
1, 63120, Note_on_c, 0, 42, 0
1, 63120, Note_on_c, 0, 54, 0
1, 63120, Note_on_c, 0, 80, 77
1, 63240, Tempo, 493340
1, 63240, Note_on_c, 0, 80, 0
1, 63240, Note_on_c, 0, 81, 78
1, 63336, Tempo, 434814
1, 63360, Note_on_c, 0, 81, 0
1, 63360, Note_on_c, 0, 78, 82
1, 63360, Note_on_c, 0, 38, 54
1, 63360, Note_on_c, 0, 50, 64
1, 63464, Tempo, 436427
1, 63480, Note_on_c, 0, 78, 0
1, 63480, Note_on_c, 0, 76, 78
1, 63576, Tempo, 438052
1, 63600, Note_on_c, 0, 76, 0
1, 63600, Note_on_c, 0, 50, 0
1, 63600, Note_on_c, 0, 38, 0
1, 63600, Note_on_c, 0, 74, 78
1, 63704, Tempo, 439689
1, 63720, Note_on_c, 0, 74, 0
1, 63720, Note_on_c, 0, 73, 74
1, 63816, Tempo, 441371
1, 63840, Note_on_c, 0, 73, 0
1, 63840, Note_on_c, 0, 71, 71
1, 63840, Note_on_c, 0, 50, 56
1, 63840, Note_on_c, 0, 38, 47
1, 63944, Tempo, 443033
1, 63960, Note_on_c, 0, 71, 0
1, 63960, Note_on_c, 0, 69, 70
1, 64056, Tempo, 444708
1, 64080, Note_on_c, 0, 69, 0
1, 64080, Note_on_c, 0, 38, 0
1, 64080, Note_on_c, 0, 50, 0
1, 64080, Note_on_c, 0, 68, 73
1, 64184, Tempo, 446395
1, 64200, Note_on_c, 0, 68, 0
1, 64200, Note_on_c, 0, 66, 72
1, 64296, Tempo, 448096
1, 64320, Tempo, 469631
1, 64320, Note_on_c, 0, 66, 0
1, 64320, Note_on_c, 0, 64, 81
1, 64320, Note_on_c, 0, 52, 66
1, 64320, Note_on_c, 0, 40, 56
1, 64440, Note_on_c, 0, 40, 0
1, 64440, Note_on_c, 0, 52, 0
1, 64440, Note_on_c, 0, 64, 0
1, 64800, Note_on_c, 0, 62, 62
1, 64800, Note_on_c, 0, 64, 62
1, 64800, Note_on_c, 0, 68, 73
1, 64800, Note_on_c, 0, 40, 47
1, 64800, Note_on_c, 0, 52, 56
1, 64920, Note_on_c, 0, 52, 0
1, 64920, Note_on_c, 0, 68, 0
1, 64920, Note_on_c, 0, 62, 0
1, 64920, Note_on_c, 0, 64, 0
1, 64920, Note_on_c, 0, 40, 0
1, 65280, Tempo, 423819
1, 65280, Note_on_c, 0, 69, 43
1, 65280, Note_on_c, 0, 45, 27
1, 65280, Note_on_c, 0, 57, 32
1, 65400, Note_on_c, 0, 69, 0
1, 65400, Note_on_c, 0, 73, 36
1, 65520, Note_on_c, 0, 73, 0
1, 65520, Note_on_c, 0, 76, 42
1, 65640, Note_on_c, 0, 76, 0
1, 65640, Note_on_c, 0, 74, 36
1, 65760, Note_on_c, 0, 74, 0
1, 65760, Note_on_c, 0, 57, 0
1, 65760, Note_on_c, 0, 45, 0
1, 65760, Note_on_c, 0, 73, 45
1, 65880, Note_on_c, 0, 73, 0
1, 65880, Note_on_c, 0, 71, 42
1, 66000, Tempo, 456830
1, 66000, Note_on_c, 0, 71, 0
1, 66000, Note_on_c, 0, 69, 40
1, 66120, Note_on_c, 0, 69, 0
1, 66120, Note_on_c, 0, 68, 37
1, 66240, Tempo, 430015
1, 66240, Note_on_c, 0, 68, 0
1, 66240, Note_on_c, 0, 66, 43
1, 66240, Note_on_c, 0, 57, 20
1, 66240, Note_on_c, 0, 62, 24
1, 66360, Tempo, 426894
1, 66360, Note_on_c, 0, 62, 0
1, 66360, Note_on_c, 0, 57, 0
1, 66360, Note_on_c, 0, 66, 0
1, 66360, Note_on_c, 0, 69, 36
1, 66480, Note_on_c, 0, 69, 0
1, 66480, Note_on_c, 0, 66, 42
1, 66600, Note_on_c, 0, 66, 0
1, 66600, Note_on_c, 0, 69, 36
1, 66720, Note_on_c, 0, 69, 0
1, 66720, Note_on_c, 0, 68, 44
1, 66720, Note_on_c, 0, 59, 24
1, 66720, Note_on_c, 0, 57, 20
1, 66840, Note_on_c, 0, 57, 0
1, 66840, Note_on_c, 0, 59, 0
1, 66840, Note_on_c, 0, 68, 0
1, 66840, Note_on_c, 0, 71, 36
1, 66960, Tempo, 456830
1, 66960, Note_on_c, 0, 71, 0
1, 66960, Note_on_c, 0, 68, 42
1, 67080, Note_on_c, 0, 68, 0
1, 67080, Note_on_c, 0, 71, 36
1, 67200, Tempo, 423819
1, 67200, Note_on_c, 0, 71, 0
1, 67200, Note_on_c, 0, 69, 43
1, 67200, Note_on_c, 0, 57, 27
1, 67200, Note_on_c, 0, 61, 32
1, 67320, Note_on_c, 0, 69, 0
1, 67320, Note_on_c, 0, 73, 36
1, 67440, Note_on_c, 0, 73, 0
1, 67440, Note_on_c, 0, 76, 42
1, 67560, Note_on_c, 0, 76, 0
1, 67560, Note_on_c, 0, 74, 36
1, 67680, Note_on_c, 0, 74, 0
1, 67680, Note_on_c, 0, 61, 0
1, 67680, Note_on_c, 0, 57, 0
1, 67680, Note_on_c, 0, 73, 45
1, 67800, Note_on_c, 0, 73, 0
1, 67800, Note_on_c, 0, 71, 42
1, 67920, Tempo, 456830
1, 67920, Note_on_c, 0, 71, 0
1, 67920, Note_on_c, 0, 69, 40
1, 68040, Note_on_c, 0, 69, 0
1, 68040, Note_on_c, 0, 68, 37
1, 68160, Tempo, 430015
1, 68160, Note_on_c, 0, 68, 0
1, 68160, Note_on_c, 0, 66, 43
1, 68160, Note_on_c, 0, 57, 20
1, 68160, Note_on_c, 0, 62, 24
1, 68280, Tempo, 426894
1, 68280, Note_on_c, 0, 62, 0
1, 68280, Note_on_c, 0, 57, 0
1, 68280, Note_on_c, 0, 66, 0
1, 68280, Note_on_c, 0, 69, 36
1, 68400, Note_on_c, 0, 69, 0
1, 68400, Note_on_c, 0, 66, 42
1, 68520, Note_on_c, 0, 66, 0
1, 68520, Note_on_c, 0, 69, 36
1, 68640, Note_on_c, 0, 69, 0
1, 68640, Note_on_c, 0, 68, 44
1, 68640, Note_on_c, 0, 59, 24
1, 68640, Note_on_c, 0, 57, 20
1, 68760, Note_on_c, 0, 57, 0
1, 68760, Note_on_c, 0, 59, 0
1, 68760, Note_on_c, 0, 68, 0
1, 68760, Note_on_c, 0, 71, 36
1, 68880, Tempo, 456830
1, 68880, Note_on_c, 0, 71, 0
1, 68880, Note_on_c, 0, 68, 42
1, 69000, Note_on_c, 0, 68, 0
1, 69000, Note_on_c, 0, 71, 36
1, 69120, Tempo, 436427
1, 69120, Note_on_c, 0, 71, 0
1, 69120, Note_on_c, 0, 69, 52
1, 69120, Note_on_c, 0, 57, 27
1, 69120, Note_on_c, 0, 61, 32
1, 69240, Note_on_c, 0, 69, 0
1, 69240, Note_on_c, 0, 71, 53
1, 69327, Tempo, 436427
1, 69360, Note_on_c, 0, 71, 0
1, 69360, Note_on_c, 0, 73, 54
1, 69480, Note_on_c, 0, 73, 0
1, 69480, Note_on_c, 0, 74, 56
1, 69583, Tempo, 434814
1, 69600, Note_on_c, 0, 74, 0
1, 69600, Note_on_c, 0, 61, 0
1, 69600, Note_on_c, 0, 57, 0
1, 69600, Note_on_c, 0, 76, 59
1, 69720, Note_on_c, 0, 76, 0
1, 69720, Note_on_c, 0, 78, 62
1, 69839, Tempo, 433213
1, 69840, Note_on_c, 0, 78, 0
1, 69840, Note_on_c, 0, 80, 65
1, 69960, Tempo, 493340
1, 69960, Note_on_c, 0, 80, 0
1, 69960, Note_on_c, 0, 81, 68
1, 70056, Tempo, 434814
1, 70080, Note_on_c, 0, 81, 0
1, 70080, Note_on_c, 0, 78, 75
1, 70080, Note_on_c, 0, 38, 58
1, 70184, Tempo, 436427
1, 70200, Note_on_c, 0, 78, 0
1, 70200, Note_on_c, 0, 76, 71
1, 70296, Tempo, 438052
1, 70320, Note_on_c, 0, 76, 0
1, 70320, Note_on_c, 0, 38, 0
1, 70320, Note_on_c, 0, 74, 74
1, 70320, Note_on_c, 0, 50, 50
1, 70424, Tempo, 439689
1, 70440, Note_on_c, 0, 74, 0
1, 70440, Note_on_c, 0, 73, 72
1, 70536, Tempo, 441371
1, 70560, Note_on_c, 0, 73, 0
1, 70560, Note_on_c, 0, 50, 0
1, 70560, Note_on_c, 0, 71, 70
1, 70560, Note_on_c, 0, 38, 55
1, 70664, Tempo, 443033
1, 70680, Note_on_c, 0, 71, 0
1, 70680, Note_on_c, 0, 69, 71
1, 70776, Tempo, 444708
1, 70800, Note_on_c, 0, 69, 0
1, 70800, Note_on_c, 0, 38, 0
1, 70800, Note_on_c, 0, 68, 76
1, 70800, Note_on_c, 0, 50, 48
1, 70904, Tempo, 446395
1, 70920, Note_on_c, 0, 68, 0
1, 70920, Note_on_c, 0, 66, 77
1, 71016, Tempo, 448096
1, 71040, Tempo, 455063
1, 71040, Note_on_c, 0, 66, 0
1, 71040, Note_on_c, 0, 50, 0
1, 71040, Note_on_c, 0, 64, 85
1, 71040, Note_on_c, 0, 40, 57
1, 71115, Control_c, 0, 64, 127
1, 71280, Note_on_c, 0, 40, 0
1, 71280, Note_on_c, 0, 64, 0
1, 71280, Note_on_c, 0, 73, 72
1, 71280, Note_on_c, 0, 69, 72
1, 71280, Note_on_c, 0, 52, 49
1, 71400, Note_on_c, 0, 52, 0
1, 71400, Note_on_c, 0, 69, 0
1, 71400, Note_on_c, 0, 73, 0
1, 71520, Note_on_c, 0, 73, 80
1, 71520, Note_on_c, 0, 69, 80
1, 71520, Note_on_c, 0, 40, 57
1, 71640, Note_on_c, 0, 40, 0
1, 71640, Note_on_c, 0, 69, 0
1, 71640, Note_on_c, 0, 73, 0
1, 71760, Tempo, 481193
1, 71760, Note_on_c, 0, 69, 72
1, 71760, Note_on_c, 0, 73, 72
1, 71760, Note_on_c, 0, 52, 49
1, 71880, Note_on_c, 0, 52, 0
1, 71880, Note_on_c, 0, 73, 0
1, 71880, Note_on_c, 0, 69, 0
1, 72000, Tempo, 455063
1, 72000, Note_on_c, 0, 73, 80
1, 72000, Note_on_c, 0, 69, 80
1, 72000, Note_on_c, 0, 40, 57
1, 72035, Control_c, 0, 64, 0
1, 72137, Control_c, 0, 64, 127
1, 72240, Note_on_c, 0, 40, 0
1, 72240, Note_on_c, 0, 69, 0
1, 72240, Note_on_c, 0, 73, 0
1, 72240, Note_on_c, 0, 74, 72
1, 72240, Note_on_c, 0, 71, 72
1, 72240, Note_on_c, 0, 52, 49
1, 72360, Note_on_c, 0, 52, 0
1, 72360, Note_on_c, 0, 71, 0
1, 72360, Note_on_c, 0, 74, 0
1, 72480, Note_on_c, 0, 71, 80
1, 72480, Note_on_c, 0, 68, 80
1, 72480, Note_on_c, 0, 40, 57
1, 72497, Control_c, 0, 64, 0
1, 72560, Control_c, 0, 64, 127
1, 72600, Note_on_c, 0, 40, 0
1, 72600, Note_on_c, 0, 68, 0
1, 72600, Note_on_c, 0, 71, 0
1, 72720, Note_on_c, 0, 68, 72
1, 72720, Note_on_c, 0, 71, 72
1, 72720, Note_on_c, 0, 52, 49
1, 72840, Note_on_c, 0, 52, 0
1, 72840, Note_on_c, 0, 71, 0
1, 72840, Note_on_c, 0, 68, 0
1, 72960, Tempo, 477289
1, 72960, Note_on_c, 0, 69, 83
1, 72960, Note_on_c, 0, 45, 57
1, 72974, Control_c, 0, 64, 0
1, 73123, Control_c, 0, 64, 127
1, 73200, Note_on_c, 0, 45, 0
1, 73200, Note_on_c, 0, 69, 0
1, 73200, Note_on_c, 0, 57, 52
1, 73440, Tempo, 501756
1, 73440, Note_on_c, 0, 57, 0
1, 73440, Note_on_c, 0, 76, 79
1, 73440, Note_on_c, 0, 73, 79
1, 73440, Note_on_c, 0, 69, 79
1, 73440, Note_on_c, 0, 81, 79
1, 73440, Note_on_c, 0, 52, 57
1, 73560, Note_on_c, 0, 81, 0
1, 73560, Note_on_c, 0, 69, 0
1, 73560, Note_on_c, 0, 76, 0
1, 73560, Note_on_c, 0, 73, 0
1, 73680, Note_on_c, 0, 52, 0
1, 73680, Note_on_c, 0, 49, 51
1, 73920, Note_on_c, 0, 49, 0
1, 73920, Note_on_c, 0, 81, 79
1, 73920, Note_on_c, 0, 76, 79
1, 73920, Note_on_c, 0, 73, 79
1, 73920, Note_on_c, 0, 69, 79
1, 73920, Note_on_c, 0, 45, 62
1, 74040, Tempo, 581339
1, 74040, Note_on_c, 0, 45, 0
1, 74040, Note_on_c, 0, 73, 0
1, 74040, Note_on_c, 0, 81, 0
1, 74040, Note_on_c, 0, 76, 0
1, 74040, Note_on_c, 0, 69, 0
1, 74160, Tempo, 990262
1, 74280, Control_c, 0, 64, 0
1, 74400, Tempo, 409026
1, 74400, Marker_t, "Teil 1 Wiederholung"
1, 74400, Note_on_c, 0, 71, 50
1, 74520, Note_on_c, 0, 71, 0
1, 74520, Note_on_c, 0, 69, 46
1, 74640, Tempo, 449809
1, 74640, Note_on_c, 0, 69, 0
1, 74640, Note_on_c, 0, 68, 46
1, 74760, Note_on_c, 0, 68, 0
1, 74760, Note_on_c, 0, 69, 46
1, 74880, Tempo, 439915
1, 74880, Note_on_c, 0, 69, 0
1, 74880, Note_on_c, 0, 74, 55
1, 74880, Note_on_c, 0, 50, 32
1, 75120, Tempo, 435129
1, 75120, Note_on_c, 0, 50, 0
1, 75120, Note_on_c, 0, 57, 26
1, 75360, Tempo, 427381
1, 75360, Note_on_c, 0, 57, 0
1, 75360, Note_on_c, 0, 54, 26
1, 75600, Note_on_c, 0, 54, 0
1, 75600, Note_on_c, 0, 74, 0
1, 75600, Note_on_c, 0, 69, 42
1, 75600, Note_on_c, 0, 57, 26
1, 75840, Note_on_c, 0, 57, 0
1, 75840, Note_on_c, 0, 69, 0
1, 75840, Note_on_c, 0, 66, 46
1, 75840, Note_on_c, 0, 50, 30
1, 76080, Note_on_c, 0, 50, 0
1, 76080, Note_on_c, 0, 66, 0
1, 76080, Note_on_c, 0, 69, 43
1, 76080, Note_on_c, 0, 57, 28
1, 76320, Note_on_c, 0, 57, 0
1, 76320, Note_on_c, 0, 69, 0
1, 76320, Note_on_c, 0, 74, 46
1, 76320, Note_on_c, 0, 54, 28
1, 76560, Tempo, 458400
1, 76560, Note_on_c, 0, 54, 0
1, 76560, Note_on_c, 0, 74, 0
1, 76560, Note_on_c, 0, 78, 46
1, 76560, Note_on_c, 0, 57, 28
1, 76740, Note_on_c, 0, 78, 0
1, 76740, Note_on_c, 0, 69, 45
1, 76800, Tempo, 427686
1, 76800, Note_on_c, 0, 69, 0
1, 76800, Note_on_c, 0, 57, 0
1, 76800, Note_on_c, 0, 81, 54
1, 76800, Note_on_c, 0, 50, 37
1, 77040, Note_on_c, 0, 50, 0
1, 77040, Note_on_c, 0, 57, 26
1, 77280, Tempo, 433557
1, 77280, Note_on_c, 0, 57, 0
1, 77280, Note_on_c, 0, 54, 26
1, 77520, Tempo, 419903
1, 77520, Note_on_c, 0, 54, 0
1, 77520, Note_on_c, 0, 81, 0
1, 77520, Note_on_c, 0, 78, 40
1, 77520, Note_on_c, 0, 57, 26
1, 77640, Note_on_c, 0, 78, 0
1, 77640, Note_on_c, 0, 74, 40
1, 77760, Tempo, 427381
1, 77760, Note_on_c, 0, 74, 0
1, 77760, Note_on_c, 0, 57, 0
1, 77760, Note_on_c, 0, 69, 47
1, 77760, Note_on_c, 0, 50, 31
1, 77880, Note_on_c, 0, 69, 0
1, 78000, Note_on_c, 0, 50, 0
1, 78000, Note_on_c, 0, 57, 27
1, 78240, Tempo, 416985
1, 78240, Note_on_c, 0, 57, 0
1, 78240, Note_on_c, 0, 74, 45
1, 78240, Note_on_c, 0, 54, 27
1, 78360, Note_on_c, 0, 74, 0
1, 78360, Note_on_c, 0, 76, 40
1, 78480, Note_on_c, 0, 76, 0
1, 78480, Note_on_c, 0, 54, 0
1, 78480, Note_on_c, 0, 74, 40
1, 78480, Note_on_c, 0, 57, 27
1, 78600, Note_on_c, 0, 74, 0
1, 78600, Note_on_c, 0, 73, 41
1, 78720, Tempo, 433557
1, 78720, Note_on_c, 0, 73, 0
1, 78720, Note_on_c, 0, 57, 0
1, 78720, Note_on_c, 0, 71, 48
1, 78720, Note_on_c, 0, 50, 32
1, 78840, Note_on_c, 0, 71, 0
1, 78960, Note_on_c, 0, 50, 0
1, 78960, Note_on_c, 0, 59, 26
1, 79200, Tempo, 419903
1, 79200, Note_on_c, 0, 59, 0
1, 79200, Note_on_c, 0, 74, 45
1, 79200, Note_on_c, 0, 55, 26
1, 79320, Note_on_c, 0, 74, 0
1, 79320, Note_on_c, 0, 76, 39
1, 79440, Note_on_c, 0, 76, 0
1, 79440, Note_on_c, 0, 55, 0
1, 79440, Note_on_c, 0, 74, 40
1, 79440, Note_on_c, 0, 59, 26
1, 79560, Note_on_c, 0, 74, 0
1, 79560, Note_on_c, 0, 73, 41
1, 79680, Tempo, 431997
1, 79680, Note_on_c, 0, 73, 0
1, 79680, Note_on_c, 0, 59, 0
1, 79680, Note_on_c, 0, 71, 46
1, 79680, Note_on_c, 0, 50, 31
1, 79800, Note_on_c, 0, 71, 0
1, 79920, Note_on_c, 0, 50, 0
1, 79920, Note_on_c, 0, 59, 27
1, 80160, Note_on_c, 0, 59, 0
1, 80160, Note_on_c, 0, 86, 48
1, 80160, Note_on_c, 0, 55, 27
1, 80280, Tempo, 424358
1, 80280, Note_on_c, 0, 86, 0
1, 80280, Note_on_c, 0, 83, 40
1, 80400, Note_on_c, 0, 83, 0
1, 80400, Note_on_c, 0, 55, 0
1, 80400, Note_on_c, 0, 86, 44
1, 80400, Note_on_c, 0, 59, 27
1, 80520, Note_on_c, 0, 86, 0
1, 80520, Note_on_c, 0, 83, 40
1, 80640, Note_on_c, 0, 83, 0
1, 80640, Note_on_c, 0, 59, 0
1, 80640, Note_on_c, 0, 81, 50
1, 80640, Note_on_c, 0, 50, 37
1, 80760, Tempo, 427381
1, 80760, Note_on_c, 0, 81, 0
1, 80760, Note_on_c, 0, 86, 51
1, 80880, Note_on_c, 0, 86, 0
1, 80880, Note_on_c, 0, 50, 0
1, 80880, Note_on_c, 0, 85, 48
1, 80880, Note_on_c, 0, 57, 26
1, 81000, Note_on_c, 0, 85, 0
1, 81000, Note_on_c, 0, 83, 46
1, 81040, Tempo, 425864
1, 81084, Tempo, 424689
1, 81120, Note_on_c, 0, 83, 0
1, 81120, Note_on_c, 0, 57, 0
1, 81120, Note_on_c, 0, 81, 48
1, 81120, Note_on_c, 0, 54, 26
1, 81124, Tempo, 426197
1, 81164, Tempo, 427716
1, 81204, Tempo, 429246
1, 81240, Note_on_c, 0, 81, 0
1, 81240, Note_on_c, 0, 79, 43
1, 81244, Tempo, 430787
1, 81284, Tempo, 440270
1, 81324, Tempo, 450180
1, 81360, Tempo, 458400
1, 81360, Note_on_c, 0, 79, 0
1, 81360, Note_on_c, 0, 54, 0
1, 81360, Note_on_c, 0, 78, 43
1, 81360, Note_on_c, 0, 57, 26
1, 81480, Note_on_c, 0, 78, 0
1, 81480, Note_on_c, 0, 76, 42
1, 81600, Tempo, 431997
1, 81600, Note_on_c, 0, 76, 0
1, 81600, Note_on_c, 0, 57, 0
1, 81600, Note_on_c, 0, 74, 48
1, 81600, Note_on_c, 0, 54, 31
1, 81840, Note_on_c, 0, 54, 0
1, 81840, Note_on_c, 0, 57, 21
1, 82080, Note_on_c, 0, 57, 0
1, 82080, Note_on_c, 0, 74, 0
1, 82080, Note_on_c, 0, 50, 22
1, 82320, Note_on_c, 0, 50, 0
1, 82320, Note_on_c, 0, 66, 41
1, 82320, Note_on_c, 0, 57, 22
1, 82560, Tempo, 436713
1, 82560, Note_on_c, 0, 57, 0
1, 82560, Note_on_c, 0, 66, 0
1, 82560, Note_on_c, 0, 67, 46
1, 82560, Note_on_c, 0, 49, 29
1, 82680, Note_on_c, 0, 67, 0
1, 82800, Note_on_c, 0, 49, 0
1, 82800, Note_on_c, 0, 67, 41
1, 82800, Note_on_c, 0, 57, 24
1, 82920, Tempo, 420227
1, 82920, Note_on_c, 0, 67, 0
1, 83040, Note_on_c, 0, 57, 0
1, 83040, Note_on_c, 0, 69, 50
1, 83040, Note_on_c, 0, 52, 24
1, 83160, Note_on_c, 0, 69, 0
1, 83160, Note_on_c, 0, 67, 41
1, 83280, Tempo, 458400
1, 83280, Note_on_c, 0, 67, 0
1, 83280, Note_on_c, 0, 52, 0
1, 83280, Note_on_c, 0, 66, 42
1, 83280, Note_on_c, 0, 57, 24
1, 83400, Note_on_c, 0, 66, 0
1, 83400, Note_on_c, 0, 67, 48
1, 83520, Tempo, 431997
1, 83520, Note_on_c, 0, 67, 0
1, 83520, Note_on_c, 0, 57, 0
1, 83520, Note_on_c, 0, 76, 56
1, 83520, Note_on_c, 0, 49, 31
1, 83760, Note_on_c, 0, 49, 0
1, 83760, Note_on_c, 0, 57, 27
1, 84000, Note_on_c, 0, 57, 0
1, 84000, Note_on_c, 0, 52, 27
1, 84240, Note_on_c, 0, 52, 0
1, 84240, Note_on_c, 0, 76, 0
1, 84240, Note_on_c, 0, 67, 40
1, 84240, Note_on_c, 0, 57, 27
1, 84480, Tempo, 436713
1, 84480, Note_on_c, 0, 57, 0
1, 84480, Note_on_c, 0, 67, 0
1, 84480, Note_on_c, 0, 66, 46
1, 84480, Note_on_c, 0, 50, 32
1, 84600, Note_on_c, 0, 66, 0
1, 84720, Note_on_c, 0, 50, 0
1, 84720, Note_on_c, 0, 66, 40
1, 84720, Note_on_c, 0, 57, 23
1, 84840, Note_on_c, 0, 66, 0
1, 84960, Tempo, 421704
1, 84960, Note_on_c, 0, 57, 0
1, 84960, Note_on_c, 0, 67, 50
1, 84960, Note_on_c, 0, 54, 23
1, 85080, Note_on_c, 0, 67, 0
1, 85080, Note_on_c, 0, 66, 40
1, 85200, Tempo, 455304
1, 85200, Note_on_c, 0, 66, 0
1, 85200, Note_on_c, 0, 54, 0
1, 85200, Note_on_c, 0, 64, 46
1, 85200, Note_on_c, 0, 57, 23
1, 85320, Note_on_c, 0, 64, 0
1, 85320, Note_on_c, 0, 66, 48
1, 85440, Tempo, 431997
1, 85440, Note_on_c, 0, 66, 0
1, 85440, Note_on_c, 0, 57, 0
1, 85440, Note_on_c, 0, 74, 56
1, 85440, Note_on_c, 0, 50, 31
1, 85680, Note_on_c, 0, 50, 0
1, 85680, Note_on_c, 0, 57, 27
1, 85920, Note_on_c, 0, 57, 0
1, 85920, Note_on_c, 0, 54, 27
1, 86160, Note_on_c, 0, 54, 0
1, 86160, Note_on_c, 0, 74, 0
1, 86160, Note_on_c, 0, 66, 40
1, 86160, Note_on_c, 0, 57, 27
1, 86400, Tempo, 438308
1, 86400, Note_on_c, 0, 57, 0
1, 86400, Note_on_c, 0, 66, 0
1, 86400, Note_on_c, 0, 66, 47
1, 86400, Note_on_c, 0, 43, 32
1, 86400, Note_on_c, 0, 55, 32
1, 86640, Note_on_c, 0, 66, 0
1, 86640, Note_on_c, 0, 64, 37
1, 86880, Note_on_c, 0, 64, 0
1, 86880, Note_on_c, 0, 67, 40
1, 87120, Tempo, 453206
1, 87120, Note_on_c, 0, 67, 0
1, 87120, Note_on_c, 0, 71, 37
1, 87360, Tempo, 433557
1, 87360, Note_on_c, 0, 71, 0
1, 87360, Note_on_c, 0, 55, 0
1, 87360, Note_on_c, 0, 43, 0
1, 87360, Note_on_c, 0, 71, 45
1, 87360, Note_on_c, 0, 45, 32
1, 87360, Note_on_c, 0, 57, 32
1, 87600, Note_on_c, 0, 71, 0
1, 87600, Note_on_c, 0, 61, 37
1, 87840, Tempo, 436713
1, 87840, Note_on_c, 0, 61, 0
1, 87840, Note_on_c, 0, 64, 40
1, 88080, Tempo, 469153
1, 88080, Note_on_c, 0, 64, 0
1, 88080, Note_on_c, 0, 69, 37
1, 88320, Tempo, 439915
1, 88320, Note_on_c, 0, 69, 0
1, 88320, Note_on_c, 0, 57, 0
1, 88320, Note_on_c, 0, 45, 0
1, 88320, Note_on_c, 0, 67, 45
1, 88320, Note_on_c, 0, 64, 45
1, 88560, Note_on_c, 0, 38, 31
1, 88800, Note_on_c, 0, 38, 0
1, 88800, Note_on_c, 0, 42, 32
1, 89040, Tempo, 446462
1, 89040, Note_on_c, 0, 42, 0
1, 89040, Note_on_c, 0, 45, 34
1, 89280, Note_on_c, 0, 45, 0
1, 89280, Note_on_c, 0, 64, 0
1, 89280, Note_on_c, 0, 67, 0
1, 89280, Note_on_c, 0, 62, 40
1, 89280, Note_on_c, 0, 66, 40
1, 89280, Note_on_c, 0, 50, 36
1, 89400, Tempo, 438308
1, 89520, Note_on_c, 0, 50, 0
1, 89520, Note_on_c, 0, 45, 31
1, 89760, Note_on_c, 0, 45, 0
1, 89760, Note_on_c, 0, 66, 0
1, 89760, Note_on_c, 0, 62, 0
1, 89760, Note_on_c, 0, 38, 32
1, 90000, Note_on_c, 0, 38, 0
1, 90000, Note_on_c, 0, 66, 40
1, 90000, Note_on_c, 0, 50, 31
1, 90200, Tempo, 436713
1, 90240, Note_on_c, 0, 50, 0
1, 90240, Note_on_c, 0, 66, 0
1, 90240, Note_on_c, 0, 67, 46
1, 90240, Note_on_c, 0, 49, 43
1, 90320, Tempo, 435129
1, 90360, Note_on_c, 0, 67, 0
1, 90360, Note_on_c, 0, 64, 37
1, 90440, Tempo, 433557
1, 90480, Note_on_c, 0, 64, 0
1, 90480, Note_on_c, 0, 49, 0
1, 90480, Note_on_c, 0, 66, 38
1, 90480, Note_on_c, 0, 57, 36
1, 90560, Tempo, 431997
1, 90600, Note_on_c, 0, 66, 0
1, 90600, Note_on_c, 0, 67, 39
1, 90680, Tempo, 430447
1, 90720, Note_on_c, 0, 67, 0
1, 90720, Note_on_c, 0, 57, 0
1, 90720, Note_on_c, 0, 69, 46
1, 90720, Note_on_c, 0, 52, 40
1, 90800, Tempo, 428908
1, 90840, Note_on_c, 0, 69, 0
1, 90840, Note_on_c, 0, 71, 39
1, 90880, Tempo, 427381
1, 90960, Note_on_c, 0, 71, 0
1, 90960, Note_on_c, 0, 52, 0
1, 90960, Note_on_c, 0, 73, 39
1, 90960, Note_on_c, 0, 57, 36
1, 91000, Tempo, 424358
1, 91080, Note_on_c, 0, 73, 0
1, 91080, Note_on_c, 0, 74, 40
1, 91200, Note_on_c, 0, 74, 0
1, 91200, Note_on_c, 0, 57, 0
1, 91200, Note_on_c, 0, 76, 48
1, 91200, Note_on_c, 0, 49, 46
1, 91320, Note_on_c, 0, 76, 0
1, 91320, Note_on_c, 0, 74, 40
1, 91440, Note_on_c, 0, 74, 0
1, 91440, Note_on_c, 0, 49, 0
1, 91440, Note_on_c, 0, 73, 41
1, 91440, Note_on_c, 0, 57, 36
1, 91560, Note_on_c, 0, 73, 0
1, 91560, Note_on_c, 0, 71, 42
1, 91680, Note_on_c, 0, 71, 0
1, 91680, Note_on_c, 0, 57, 0
1, 91680, Note_on_c, 0, 69, 48
1, 91680, Note_on_c, 0, 52, 39
1, 91800, Note_on_c, 0, 69, 0
1, 91800, Note_on_c, 0, 67, 41
1, 91920, Tempo, 469153
1, 91920, Note_on_c, 0, 67, 0
1, 91920, Note_on_c, 0, 52, 0
1, 91920, Note_on_c, 0, 66, 41
1, 91920, Note_on_c, 0, 57, 36
1, 92040, Note_on_c, 0, 66, 0
1, 92040, Note_on_c, 0, 64, 41
1, 92160, Tempo, 430447
1, 92160, Note_on_c, 0, 64, 0
1, 92160, Note_on_c, 0, 57, 0
1, 92160, Note_on_c, 0, 66, 49
1, 92160, Note_on_c, 0, 50, 47
1, 92280, Note_on_c, 0, 66, 0
1, 92280, Note_on_c, 0, 62, 40
1, 92400, Note_on_c, 0, 62, 0
1, 92400, Note_on_c, 0, 50, 0
1, 92400, Note_on_c, 0, 64, 40
1, 92400, Note_on_c, 0, 57, 36
1, 92520, Note_on_c, 0, 64, 0
1, 92520, Note_on_c, 0, 66, 42
1, 92640, Note_on_c, 0, 66, 0
1, 92640, Note_on_c, 0, 57, 0
1, 92640, Note_on_c, 0, 67, 51
1, 92640, Note_on_c, 0, 54, 41
1, 92760, Note_on_c, 0, 67, 0
1, 92760, Note_on_c, 0, 69, 42
1, 92880, Note_on_c, 0, 69, 0
1, 92880, Note_on_c, 0, 54, 0
1, 92880, Note_on_c, 0, 71, 44
1, 92880, Note_on_c, 0, 57, 36
1, 93000, Note_on_c, 0, 71, 0
1, 93000, Note_on_c, 0, 73, 46
1, 93120, Tempo, 431997
1, 93120, Note_on_c, 0, 73, 0
1, 93120, Note_on_c, 0, 57, 0
1, 93120, Note_on_c, 0, 74, 57
1, 93120, Note_on_c, 0, 50, 48
1, 93184, Tempo, 433557
1, 93216, Tempo, 435129
1, 93240, Note_on_c, 0, 74, 0
1, 93240, Note_on_c, 0, 76, 47
1, 93248, Tempo, 436713
1, 93280, Tempo, 438308
1, 93312, Tempo, 439915
1, 93344, Tempo, 441534
1, 93360, Note_on_c, 0, 76, 0
1, 93360, Note_on_c, 0, 50, 0
1, 93360, Note_on_c, 0, 78, 49
1, 93360, Note_on_c, 0, 57, 40
1, 93408, Tempo, 443164
1, 93440, Tempo, 444807
1, 93472, Tempo, 446462
1, 93480, Note_on_c, 0, 78, 0
1, 93480, Note_on_c, 0, 79, 48
1, 93504, Tempo, 448129
1, 93536, Tempo, 449809
1, 93568, Tempo, 451501
1, 93600, Note_on_c, 0, 79, 0
1, 93600, Note_on_c, 0, 57, 0
1, 93600, Note_on_c, 0, 81, 57
1, 93600, Note_on_c, 0, 54, 45
1, 93632, Tempo, 453206
1, 93664, Tempo, 454925
1, 93696, Tempo, 456656
1, 93720, Note_on_c, 0, 81, 0
1, 93720, Note_on_c, 0, 83, 57
1, 93728, Tempo, 458400
1, 93760, Tempo, 460158
1, 93792, Tempo, 461929
1, 93840, Note_on_c, 0, 83, 0
1, 93840, Note_on_c, 0, 54, 0
1, 93840, Note_on_c, 0, 85, 64
1, 93840, Note_on_c, 0, 57, 43
1, 93856, Tempo, 463714
1, 93888, Tempo, 465513
1, 93920, Tempo, 467326
1, 93952, Tempo, 469153
1, 93960, Note_on_c, 0, 85, 0
1, 93960, Note_on_c, 0, 86, 69
1, 93984, Tempo, 470995
1, 94016, Tempo, 472851
1, 94048, Tempo, 474721
1, 94080, Tempo, 476607
1, 94080, Note_on_c, 0, 86, 0
1, 94080, Note_on_c, 0, 57, 0
1, 94080, Note_on_c, 0, 55, 58
1, 94080, Note_on_c, 0, 43, 49
1, 94200, Note_on_c, 0, 71, 54
1, 94320, Tempo, 428908
1, 94320, Note_on_c, 0, 71, 0
1, 94320, Note_on_c, 0, 76, 55
1, 94368, Tempo, 441534
1, 94400, Tempo, 439915
1, 94432, Tempo, 438308
1, 94440, Note_on_c, 0, 76, 0
1, 94440, Note_on_c, 0, 79, 61
1, 94464, Tempo, 436713
1, 94496, Tempo, 435129
1, 94528, Tempo, 433557
1, 94560, Tempo, 431997
1, 94560, Note_on_c, 0, 79, 0
1, 94560, Note_on_c, 0, 83, 65
1, 94592, Tempo, 430447
1, 94624, Tempo, 428908
1, 94656, Tempo, 427381
1, 94680, Note_on_c, 0, 83, 0
1, 94680, Note_on_c, 0, 81, 59
1, 94800, Note_on_c, 0, 81, 0
1, 94800, Note_on_c, 0, 79, 59
1, 94920, Note_on_c, 0, 79, 0
1, 94920, Note_on_c, 0, 78, 55
1, 95040, Note_on_c, 0, 78, 0
1, 95040, Note_on_c, 0, 43, 0
1, 95040, Note_on_c, 0, 55, 0
1, 95040, Note_on_c, 0, 76, 54
1, 95040, Note_on_c, 0, 45, 41
1, 95040, Note_on_c, 0, 57, 49
1, 95160, Note_on_c, 0, 76, 0
1, 95160, Note_on_c, 0, 74, 53
1, 95168, Tempo, 427381
1, 95264, Tempo, 428908
1, 95280, Note_on_c, 0, 74, 0
1, 95280, Note_on_c, 0, 73, 51
1, 95360, Tempo, 430447
1, 95400, Note_on_c, 0, 73, 0
1, 95400, Note_on_c, 0, 71, 51
1, 95456, Tempo, 431997
1, 95520, Tempo, 433557
1, 95520, Note_on_c, 0, 71, 0
1, 95520, Note_on_c, 0, 57, 0
1, 95520, Note_on_c, 0, 45, 0
1, 95520, Note_on_c, 0, 69, 55
1, 95520, Note_on_c, 0, 45, 38
1, 95520, Note_on_c, 0, 57, 45
1, 95616, Tempo, 435129
1, 95640, Note_on_c, 0, 69, 0
1, 95640, Note_on_c, 0, 67, 60
1, 95712, Tempo, 436713
1, 95760, Note_on_c, 0, 67, 0
1, 95760, Note_on_c, 0, 66, 63
1, 95776, Tempo, 438308
1, 95872, Tempo, 439915
1, 95880, Note_on_c, 0, 66, 0
1, 95880, Note_on_c, 0, 64, 65
1, 96000, Tempo, 427381
1, 96000, Note_on_c, 0, 64, 0
1, 96000, Note_on_c, 0, 57, 0
1, 96000, Note_on_c, 0, 45, 0
1, 96000, Note_on_c, 0, 62, 78
1, 96000, Note_on_c, 0, 38, 63
1, 96240, Note_on_c, 0, 38, 0
1, 96240, Note_on_c, 0, 42, 50
1, 96480, Tempo, 435129
1, 96480, Note_on_c, 0, 42, 0
1, 96480, Note_on_c, 0, 45, 56
1, 96720, Tempo, 427381
1, 96720, Note_on_c, 0, 45, 0
1, 96720, Note_on_c, 0, 62, 0
1, 96720, Note_on_c, 0, 62, 61
1, 96720, Note_on_c, 0, 50, 50
1, 96960, Note_on_c, 0, 50, 0
1, 96960, Note_on_c, 0, 62, 0
1, 96960, Note_on_c, 0, 61, 65
1, 96960, Note_on_c, 0, 38, 46
1, 97200, Note_on_c, 0, 38, 0
1, 97200, Note_on_c, 0, 61, 0
1, 97200, Note_on_c, 0, 62, 63
1, 97200, Note_on_c, 0, 50, 32
1, 97440, Note_on_c, 0, 50, 0
1, 97440, Note_on_c, 0, 62, 0
1, 97440, Note_on_c, 0, 60, 65
1, 97440, Note_on_c, 0, 38, 39
1, 97680, Tempo, 439915
1, 97680, Note_on_c, 0, 38, 0
1, 97680, Note_on_c, 0, 60, 0
1, 97680, Note_on_c, 0, 66, 62
1, 97680, Note_on_c, 0, 50, 35
1, 97920, Tempo, 425864
1, 97920, Note_on_c, 0, 50, 0
1, 97920, Note_on_c, 0, 66, 0
1, 97920, Note_on_c, 0, 59, 65
1, 97920, Note_on_c, 0, 38, 46
1, 98160, Note_on_c, 0, 38, 0
1, 98160, Note_on_c, 0, 59, 0
1, 98160, Note_on_c, 0, 67, 63
1, 98160, Note_on_c, 0, 50, 32
1, 98400, Tempo, 418439
1, 98400, Note_on_c, 0, 50, 0
1, 98400, Note_on_c, 0, 67, 0
1, 98400, Note_on_c, 0, 69, 65
1, 98400, Note_on_c, 0, 38, 37
1, 98520, Note_on_c, 0, 69, 0
1, 98520, Note_on_c, 0, 67, 62
1, 98640, Note_on_c, 0, 67, 0
1, 98640, Note_on_c, 0, 38, 0
1, 98640, Note_on_c, 0, 66, 62
1, 98640, Note_on_c, 0, 50, 32
1, 98760, Note_on_c, 0, 66, 0
1, 98760, Note_on_c, 0, 67, 62
1, 98880, Tempo, 433557
1, 98880, Note_on_c, 0, 67, 0
1, 98880, Note_on_c, 0, 50, 0
1, 98880, Note_on_c, 0, 71, 71
1, 98880, Note_on_c, 0, 38, 46
1, 99120, Note_on_c, 0, 38, 0
1, 99120, Note_on_c, 0, 71, 0
1, 99120, Note_on_c, 0, 67, 65
1, 99120, Note_on_c, 0, 50, 34
1, 99360, Note_on_c, 0, 50, 0
1, 99360, Note_on_c, 0, 67, 0
1, 99360, Note_on_c, 0, 64, 70
1, 99360, Note_on_c, 0, 38, 39
1, 99600, Tempo, 482781
1, 99600, Note_on_c, 0, 38, 0
1, 99600, Note_on_c, 0, 64, 0
1, 99600, Note_on_c, 0, 73, 65
1, 99600, Note_on_c, 0, 50, 33
1, 99840, Tempo, 427381
1, 99840, Note_on_c, 0, 50, 0
1, 99840, Note_on_c, 0, 73, 0
1, 99840, Note_on_c, 0, 66, 73
1, 99840, Note_on_c, 0, 74, 82
1, 99840, Note_on_c, 0, 38, 63
1, 100080, Note_on_c, 0, 38, 0
1, 100080, Note_on_c, 0, 42, 50
1, 100320, Tempo, 435129
1, 100320, Note_on_c, 0, 42, 0
1, 100320, Note_on_c, 0, 45, 56
1, 100560, Tempo, 427381
1, 100560, Note_on_c, 0, 45, 0
1, 100560, Note_on_c, 0, 74, 0
1, 100560, Note_on_c, 0, 66, 0
1, 100560, Note_on_c, 0, 74, 67
1, 100560, Note_on_c, 0, 50, 50
1, 100800, Note_on_c, 0, 50, 0
1, 100800, Note_on_c, 0, 74, 0
1, 100800, Note_on_c, 0, 73, 71
1, 100800, Note_on_c, 0, 38, 46
1, 101040, Note_on_c, 0, 38, 0
1, 101040, Note_on_c, 0, 73, 0
1, 101040, Note_on_c, 0, 74, 69
1, 101040, Note_on_c, 0, 50, 31
1, 101280, Note_on_c, 0, 50, 0
1, 101280, Note_on_c, 0, 74, 0
1, 101280, Note_on_c, 0, 72, 71
1, 101280, Note_on_c, 0, 38, 38
1, 101520, Tempo, 439915
1, 101520, Note_on_c, 0, 38, 0
1, 101520, Note_on_c, 0, 72, 0
1, 101520, Note_on_c, 0, 78, 68
1, 101520, Note_on_c, 0, 50, 31
1, 101760, Tempo, 425864
1, 101760, Note_on_c, 0, 50, 0
1, 101760, Note_on_c, 0, 78, 0
1, 101760, Note_on_c, 0, 71, 71
1, 101760, Note_on_c, 0, 38, 46
1, 102000, Note_on_c, 0, 38, 0
1, 102000, Note_on_c, 0, 71, 0
1, 102000, Note_on_c, 0, 79, 69
1, 102000, Note_on_c, 0, 50, 31
1, 102240, Tempo, 418439
1, 102240, Note_on_c, 0, 50, 0
1, 102240, Note_on_c, 0, 79, 0
1, 102240, Note_on_c, 0, 81, 71
1, 102240, Note_on_c, 0, 38, 36
1, 102360, Note_on_c, 0, 81, 0
1, 102360, Note_on_c, 0, 79, 68
1, 102480, Note_on_c, 0, 79, 0
1, 102480, Note_on_c, 0, 38, 0
1, 102480, Note_on_c, 0, 78, 68
1, 102480, Note_on_c, 0, 50, 32
1, 102600, Note_on_c, 0, 78, 0
1, 102600, Note_on_c, 0, 79, 68
1, 102720, Tempo, 435129
1, 102720, Note_on_c, 0, 79, 0
1, 102720, Note_on_c, 0, 50, 0
1, 102720, Note_on_c, 0, 83, 78
1, 102720, Note_on_c, 0, 38, 46
1, 102960, Note_on_c, 0, 38, 0
1, 102960, Note_on_c, 0, 83, 0
1, 102960, Note_on_c, 0, 79, 71
1, 102960, Note_on_c, 0, 50, 32
1, 103200, Note_on_c, 0, 50, 0
1, 103200, Note_on_c, 0, 79, 0
1, 103200, Note_on_c, 0, 76, 77
1, 103200, Note_on_c, 0, 38, 37
1, 103440, Tempo, 453206
1, 103440, Note_on_c, 0, 38, 0
1, 103440, Note_on_c, 0, 76, 0
1, 103440, Note_on_c, 0, 85, 71
1, 103440, Note_on_c, 0, 50, 32
1, 103680, Tempo, 427381
1, 103680, Note_on_c, 0, 50, 0
1, 103680, Note_on_c, 0, 85, 0
1, 103680, Note_on_c, 0, 78, 73
1, 103680, Note_on_c, 0, 86, 82
1, 103680, Note_on_c, 0, 50, 63
1, 103920, Note_on_c, 0, 50, 0
1, 103920, Note_on_c, 0, 54, 42
1, 104160, Tempo, 438308
1, 104160, Note_on_c, 0, 54, 0
1, 104160, Note_on_c, 0, 57, 42
1, 104400, Tempo, 427381
1, 104400, Note_on_c, 0, 57, 0
1, 104400, Note_on_c, 0, 86, 0
1, 104400, Note_on_c, 0, 78, 0
1, 104400, Note_on_c, 0, 86, 69
1, 104400, Note_on_c, 0, 62, 41
1, 104640, Note_on_c, 0, 62, 0
1, 104640, Note_on_c, 0, 86, 0
1, 104640, Note_on_c, 0, 80, 77
1, 104640, Note_on_c, 0, 59, 41
1, 104760, Note_on_c, 0, 80, 0
1, 104880, Note_on_c, 0, 59, 0
1, 104880, Note_on_c, 0, 80, 73
1, 104880, Note_on_c, 0, 62, 40
1, 105000, Note_on_c, 0, 80, 0
1, 105120, Tempo, 415541
1, 105120, Note_on_c, 0, 62, 0
1, 105120, Note_on_c, 0, 83, 71
1, 105120, Note_on_c, 0, 57, 49
1, 105240, Note_on_c, 0, 83, 0
1, 105240, Note_on_c, 0, 81, 61
1, 105360, Tempo, 444807
1, 105360, Note_on_c, 0, 81, 0
1, 105360, Note_on_c, 0, 57, 0
1, 105360, Note_on_c, 0, 80, 65
1, 105360, Note_on_c, 0, 62, 41
1, 105480, Note_on_c, 0, 80, 0
1, 105480, Note_on_c, 0, 81, 62
1, 105600, Tempo, 427381
1, 105600, Note_on_c, 0, 81, 0
1, 105600, Note_on_c, 0, 62, 0
1, 105600, Note_on_c, 0, 83, 71
1, 105600, Note_on_c, 0, 56, 63
1, 105840, Note_on_c, 0, 56, 0
1, 105840, Note_on_c, 0, 83, 0
1, 105840, Note_on_c, 0, 62, 32
1, 106080, Tempo, 438308
1, 106080, Note_on_c, 0, 62, 0
1, 106080, Note_on_c, 0, 52, 38
1, 106320, Tempo, 427381
1, 106320, Note_on_c, 0, 52, 0
1, 106320, Note_on_c, 0, 86, 69
1, 106320, Note_on_c, 0, 62, 32
1, 106560, Note_on_c, 0, 62, 0
1, 106560, Note_on_c, 0, 86, 0
1, 106560, Note_on_c, 0, 80, 77
1, 106560, Note_on_c, 0, 59, 41
1, 106680, Note_on_c, 0, 80, 0
1, 106800, Note_on_c, 0, 59, 0
1, 106800, Note_on_c, 0, 80, 73
1, 106800, Note_on_c, 0, 62, 40
1, 106920, Note_on_c, 0, 80, 0
1, 107040, Tempo, 415541
1, 107040, Note_on_c, 0, 62, 0
1, 107040, Note_on_c, 0, 83, 71
1, 107040, Note_on_c, 0, 57, 49
1, 107160, Note_on_c, 0, 83, 0
1, 107160, Note_on_c, 0, 81, 61
1, 107280, Tempo, 451501
1, 107280, Note_on_c, 0, 81, 0
1, 107280, Note_on_c, 0, 57, 0
1, 107280, Note_on_c, 0, 80, 65
1, 107280, Note_on_c, 0, 62, 41
1, 107400, Note_on_c, 0, 80, 0
1, 107400, Note_on_c, 0, 81, 62
1, 107520, Tempo, 439915
1, 107520, Note_on_c, 0, 81, 0
1, 107520, Note_on_c, 0, 62, 0
1, 107520, Note_on_c, 0, 83, 71
1, 107520, Note_on_c, 0, 56, 63
1, 107760, Tempo, 433557
1, 107760, Note_on_c, 0, 56, 0
1, 107760, Note_on_c, 0, 83, 0
1, 107760, Note_on_c, 0, 62, 32
1, 107880, Tempo, 428908
1, 108000, Tempo, 438308
1, 108000, Note_on_c, 0, 62, 0
1, 108000, Note_on_c, 0, 52, 39
1, 108240, Tempo, 428816
1, 108240, Note_on_c, 0, 83, 59
1, 108360, Note_on_c, 0, 83, 0
1, 108360, Note_on_c, 0, 85, 59
1, 108480, Tempo, 436808
1, 108480, Note_on_c, 0, 85, 0
1, 108480, Note_on_c, 0, 52, 0
1, 108480, Note_on_c, 0, 86, 65
1, 108600, Note_on_c, 0, 86, 0
1, 108600, Note_on_c, 0, 85, 61
1, 108720, Note_on_c, 0, 85, 0
1, 108720, Note_on_c, 0, 83, 61
1, 108840, Note_on_c, 0, 83, 0
1, 108840, Note_on_c, 0, 85, 61
1, 108960, Note_on_c, 0, 85, 0
1, 108960, Note_on_c, 0, 86, 65
1, 109080, Note_on_c, 0, 86, 0
1, 109080, Note_on_c, 0, 85, 61
1, 109200, Note_on_c, 0, 85, 0
1, 109200, Note_on_c, 0, 83, 61
1, 109320, Note_on_c, 0, 83, 0
1, 109320, Note_on_c, 0, 85, 61
1, 109440, Tempo, 435193
1, 109440, Note_on_c, 0, 85, 0
1, 109440, Note_on_c, 0, 86, 65
1, 109440, Note_on_c, 0, 40, 63
1, 109443, Tempo, 433557
1, 109560, Note_on_c, 0, 40, 0
1, 109560, Note_on_c, 0, 86, 0
1, 109560, Note_on_c, 0, 85, 61
1, 109635, Tempo, 431965
1, 109680, Note_on_c, 0, 85, 0
1, 109680, Note_on_c, 0, 83, 61
1, 109680, Note_on_c, 0, 52, 56
1, 109795, Tempo, 430385
1, 109800, Note_on_c, 0, 52, 0
1, 109800, Note_on_c, 0, 83, 0
1, 109800, Note_on_c, 0, 85, 61
1, 109920, Note_on_c, 0, 85, 0
1, 109920, Note_on_c, 0, 86, 65
1, 109920, Note_on_c, 0, 40, 63
1, 109955, Tempo, 428816
1, 110040, Note_on_c, 0, 40, 0
1, 110040, Note_on_c, 0, 86, 0
1, 110040, Note_on_c, 0, 85, 61
1, 110115, Tempo, 427259
1, 110160, Note_on_c, 0, 85, 0
1, 110160, Note_on_c, 0, 83, 61
1, 110160, Note_on_c, 0, 52, 56
1, 110275, Tempo, 425713
1, 110280, Tempo, 460794
1, 110280, Note_on_c, 0, 52, 0
1, 110280, Note_on_c, 0, 83, 0
1, 110280, Note_on_c, 0, 85, 61
1, 110355, Tempo, 438661
1, 110400, Note_on_c, 0, 85, 0
1, 110400, Note_on_c, 0, 86, 66
1, 110400, Note_on_c, 0, 42, 63
1, 110435, Tempo, 437063
1, 110515, Tempo, 435477
1, 110520, Note_on_c, 0, 42, 0
1, 110520, Note_on_c, 0, 86, 0
1, 110520, Note_on_c, 0, 85, 62
1, 110595, Tempo, 433902
1, 110640, Note_on_c, 0, 85, 0
1, 110640, Note_on_c, 0, 83, 61
1, 110640, Note_on_c, 0, 54, 57
1, 110675, Tempo, 432339
1, 110755, Tempo, 430787
1, 110760, Note_on_c, 0, 54, 0
1, 110760, Note_on_c, 0, 83, 0
1, 110760, Note_on_c, 0, 81, 61
1, 110835, Tempo, 429246
1, 110880, Note_on_c, 0, 81, 0
1, 110880, Note_on_c, 0, 80, 59
1, 110880, Note_on_c, 0, 44, 63
1, 110915, Tempo, 427716
1, 110995, Tempo, 426197
1, 111000, Note_on_c, 0, 44, 0
1, 111000, Note_on_c, 0, 80, 0
1, 111000, Note_on_c, 0, 78, 58
1, 111075, Tempo, 424689
1, 111120, Note_on_c, 0, 78, 0
1, 111120, Note_on_c, 0, 76, 57
1, 111120, Note_on_c, 0, 56, 57
1, 111155, Tempo, 423191
1, 111235, Tempo, 421704
1, 111240, Note_on_c, 0, 56, 0
1, 111240, Note_on_c, 0, 76, 0
1, 111240, Note_on_c, 0, 74, 55
1, 111315, Tempo, 420227
1, 111360, Note_on_c, 0, 74, 0
1, 111360, Note_on_c, 0, 73, 61
1, 111360, Note_on_c, 0, 45, 63
1, 111363, Tempo, 427259
1, 111480, Note_on_c, 0, 45, 0
1, 111480, Note_on_c, 0, 73, 0
1, 111480, Note_on_c, 0, 69, 55
1, 111600, Note_on_c, 0, 69, 0
1, 111600, Note_on_c, 0, 71, 55
1, 111600, Note_on_c, 0, 57, 56
1, 111720, Note_on_c, 0, 57, 0
1, 111720, Note_on_c, 0, 71, 0
1, 111720, Note_on_c, 0, 73, 56
1, 111840, Note_on_c, 0, 73, 0
1, 111840, Note_on_c, 0, 74, 56
1, 111840, Note_on_c, 0, 45, 63
1, 111960, Note_on_c, 0, 45, 0
1, 111960, Note_on_c, 0, 74, 0
1, 111960, Note_on_c, 0, 76, 56
1, 112080, Note_on_c, 0, 76, 0
1, 112080, Note_on_c, 0, 78, 60
1, 112080, Note_on_c, 0, 57, 56
1, 112200, Tempo, 473821
1, 112200, Note_on_c, 0, 57, 0
1, 112200, Note_on_c, 0, 78, 0
1, 112200, Note_on_c, 0, 80, 62
1, 112320, Tempo, 433557
1, 112320, Note_on_c, 0, 80, 0
1, 112320, Note_on_c, 0, 81, 63
1, 112320, Note_on_c, 0, 54, 63
1, 112560, Note_on_c, 0, 54, 0
1, 112560, Note_on_c, 0, 81, 0
1, 112560, Note_on_c, 0, 69, 56
1, 112560, Note_on_c, 0, 57, 55
1, 112680, Tempo, 428816
1, 112800, Tempo, 425713
1, 112800, Note_on_c, 0, 57, 0
1, 112800, Note_on_c, 0, 69, 0
1, 112800, Note_on_c, 0, 71, 63
1, 112800, Note_on_c, 0, 54, 63
1, 112920, Note_on_c, 0, 71, 0
1, 112920, Note_on_c, 0, 69, 57
1, 113040, Note_on_c, 0, 69, 0
1, 113040, Note_on_c, 0, 54, 0
1, 113040, Note_on_c, 0, 68, 57
1, 113040, Note_on_c, 0, 57, 56
1, 113160, Tempo, 549199
1, 113160, Note_on_c, 0, 68, 0
1, 113160, Note_on_c, 0, 69, 57
1, 113280, Tempo, 433557
1, 113280, Note_on_c, 0, 69, 0
1, 113280, Note_on_c, 0, 57, 0
1, 113280, Note_on_c, 0, 81, 63
1, 113280, Note_on_c, 0, 49, 63
1, 113520, Note_on_c, 0, 49, 0
1, 113520, Note_on_c, 0, 81, 0
1, 113520, Note_on_c, 0, 69, 56
1, 113520, Note_on_c, 0, 57, 55
1, 113760, Tempo, 425713
1, 113760, Note_on_c, 0, 57, 0
1, 113760, Note_on_c, 0, 69, 0
1, 113760, Note_on_c, 0, 71, 63
1, 113760, Note_on_c, 0, 49, 63
1, 113880, Note_on_c, 0, 71, 0
1, 113880, Note_on_c, 0, 69, 57
1, 114000, Note_on_c, 0, 69, 0
1, 114000, Note_on_c, 0, 49, 0
1, 114000, Note_on_c, 0, 68, 57
1, 114000, Note_on_c, 0, 57, 56
1, 114120, Tempo, 520472
1, 114120, Note_on_c, 0, 68, 0
1, 114120, Note_on_c, 0, 69, 57
1, 114240, Tempo, 433557
1, 114240, Note_on_c, 0, 69, 0
1, 114240, Note_on_c, 0, 57, 0
1, 114240, Note_on_c, 0, 81, 63
1, 114240, Note_on_c, 0, 51, 53
1, 114240, Note_on_c, 0, 54, 63
1, 114480, Note_on_c, 0, 54, 0
1, 114480, Note_on_c, 0, 81, 0
1, 114480, Note_on_c, 0, 69, 56
1, 114480, Note_on_c, 0, 57, 55
1, 114720, Tempo, 425713
1, 114720, Note_on_c, 0, 57, 0
1, 114720, Note_on_c, 0, 69, 0
1, 114720, Note_on_c, 0, 51, 0
1, 114720, Note_on_c, 0, 71, 63
1, 114720, Note_on_c, 0, 51, 53
1, 114720, Note_on_c, 0, 54, 63
1, 114840, Note_on_c, 0, 71, 0
1, 114840, Note_on_c, 0, 69, 57
1, 114960, Note_on_c, 0, 69, 0
1, 114960, Note_on_c, 0, 54, 0
1, 114960, Note_on_c, 0, 68, 57
1, 114960, Note_on_c, 0, 57, 56
1, 115080, Tempo, 473821
1, 115080, Note_on_c, 0, 68, 0
1, 115080, Note_on_c, 0, 69, 57
1, 115200, Tempo, 462606
1, 115200, Note_on_c, 0, 69, 0
1, 115200, Note_on_c, 0, 57, 0
1, 115200, Note_on_c, 0, 51, 0
1, 115200, Note_on_c, 0, 68, 67
1, 115200, Note_on_c, 0, 52, 68
1, 115320, Note_on_c, 0, 52, 0
1, 115320, Note_on_c, 0, 68, 0
1, 115680, Tempo, 455443
1, 115680, Note_on_c, 0, 68, 60
1, 115680, Note_on_c, 0, 71, 60
1, 115680, Note_on_c, 0, 76, 72
1, 115680, Note_on_c, 0, 40, 53
1, 115680, Note_on_c, 0, 52, 63
1, 115800, Note_on_c, 0, 52, 0
1, 115800, Note_on_c, 0, 76, 0
1, 115800, Note_on_c, 0, 68, 0
1, 115800, Note_on_c, 0, 71, 0
1, 115800, Note_on_c, 0, 40, 0
1, 116160, Tempo, 508733
1, 116160, Note_on_c, 0, 76, 74
1, 116160, Note_on_c, 0, 71, 63
1, 116160, Note_on_c, 0, 68, 63
1, 116160, Note_on_c, 0, 40, 53
1, 116160, Note_on_c, 0, 52, 63
1, 116280, Note_on_c, 0, 52, 0
1, 116280, Note_on_c, 0, 68, 0
1, 116280, Note_on_c, 0, 76, 0
1, 116280, Note_on_c, 0, 71, 0
1, 116280, Note_on_c, 0, 40, 0
1, 116640, Tempo, 455443
1, 116640, Note_on_c, 0, 74, 50
1, 116880, Note_on_c, 0, 74, 0
1, 116880, Note_on_c, 0, 73, 46
1, 117120, Note_on_c, 0, 73, 0
1, 117120, Note_on_c, 0, 71, 50
1, 117120, Note_on_c, 0, 62, 31
1, 117360, Note_on_c, 0, 62, 0
1, 117360, Note_on_c, 0, 64, 24
1, 117480, Note_on_c, 0, 71, 0
1, 117600, Note_on_c, 0, 64, 0
1, 117600, Note_on_c, 0, 71, 47
1, 117600, Note_on_c, 0, 62, 31
1, 117840, Tempo, 468165
1, 117840, Note_on_c, 0, 62, 0
1, 117840, Note_on_c, 0, 64, 26
1, 118080, Tempo, 453686
1, 118080, Note_on_c, 0, 64, 0
1, 118080, Note_on_c, 0, 71, 0
1, 118080, Note_on_c, 0, 76, 50
1, 118080, Note_on_c, 0, 62, 31
1, 118228, Control_c, 0, 64, 127
1, 118320, Note_on_c, 0, 62, 0
1, 118320, Note_on_c, 0, 64, 25
1, 118560, Tempo, 445170
1, 118560, Note_on_c, 0, 64, 0
1, 118560, Note_on_c, 0, 76, 0
1, 118560, Note_on_c, 0, 68, 46
1, 118560, Note_on_c, 0, 62, 31
1, 118569, Control_c, 0, 64, 0
1, 118666, Control_c, 0, 64, 127
1, 118800, Tempo, 481580
1, 118800, Note_on_c, 0, 62, 0
1, 118800, Note_on_c, 0, 64, 28
1, 119040, Tempo, 455443
1, 119040, Note_on_c, 0, 64, 0
1, 119040, Note_on_c, 0, 68, 0
1, 119040, Note_on_c, 0, 71, 50
1, 119040, Note_on_c, 0, 61, 31
1, 119040, Control_c, 0, 64, 0
1, 119280, Tempo, 446761
1, 119280, Note_on_c, 0, 61, 0
1, 119280, Note_on_c, 0, 64, 18
1, 119520, Tempo, 435193
1, 119520, Note_on_c, 0, 64, 0
1, 119520, Note_on_c, 0, 61, 20
1, 119760, Tempo, 453686
1, 119760, Note_on_c, 0, 61, 0
1, 119760, Note_on_c, 0, 64, 15
1, 120000, Note_on_c, 0, 64, 0
1, 120000, Note_on_c, 0, 71, 0
1, 120000, Note_on_c, 0, 69, 44
1, 120000, Note_on_c, 0, 61, 31
1, 120120, Tempo, 455443
1, 120226, Control_c, 0, 64, 127
1, 120240, Note_on_c, 0, 61, 0
1, 120240, Note_on_c, 0, 64, 23
1, 120480, Tempo, 441729
1, 120480, Note_on_c, 0, 64, 0
1, 120480, Note_on_c, 0, 69, 0
1, 120480, Note_on_c, 0, 71, 51
1, 120480, Note_on_c, 0, 61, 33
1, 120495, Control_c, 0, 64, 0
1, 120720, Tempo, 471921
1, 120720, Note_on_c, 0, 61, 0
1, 120720, Note_on_c, 0, 71, 0
1, 120720, Note_on_c, 0, 73, 52
1, 120720, Note_on_c, 0, 64, 30
1, 120960, Tempo, 453583
1, 120960, Note_on_c, 0, 64, 0
1, 120960, Note_on_c, 0, 73, 0
1, 120960, Note_on_c, 0, 74, 60
1, 120960, Note_on_c, 0, 59, 38
1, 121200, Note_on_c, 0, 59, 0
1, 121200, Note_on_c, 0, 64, 24
1, 121320, Note_on_c, 0, 74, 0
1, 121440, Note_on_c, 0, 64, 0
1, 121440, Note_on_c, 0, 74, 47
1, 121440, Note_on_c, 0, 52, 31
1, 121476, Control_c, 0, 64, 127
1, 121680, Tempo, 462606
1, 121680, Note_on_c, 0, 52, 0
1, 121680, Note_on_c, 0, 64, 26
1, 121920, Tempo, 455443
1, 121920, Note_on_c, 0, 64, 0
1, 121920, Note_on_c, 0, 74, 0
1, 121920, Note_on_c, 0, 73, 50
1, 121920, Note_on_c, 0, 57, 31
1, 121934, Control_c, 0, 64, 0
1, 122054, Control_c, 0, 64, 127
1, 122160, Note_on_c, 0, 57, 0
1, 122160, Note_on_c, 0, 64, 25
1, 122400, Note_on_c, 0, 64, 0
1, 122400, Note_on_c, 0, 73, 0
1, 122400, Note_on_c, 0, 73, 46
1, 122400, Note_on_c, 0, 52, 31
1, 122640, Tempo, 492692
1, 122640, Note_on_c, 0, 52, 0
1, 122640, Note_on_c, 0, 64, 28
1, 122880, Tempo, 446761
1, 122880, Note_on_c, 0, 64, 0
1, 122880, Note_on_c, 0, 73, 0
1, 122880, Note_on_c, 0, 71, 54
1, 122880, Note_on_c, 0, 56, 31
1, 122892, Control_c, 0, 64, 0
1, 123120, Tempo, 500042
1, 123120, Note_on_c, 0, 56, 0
1, 123120, Note_on_c, 0, 71, 0
1, 123120, Note_on_c, 0, 64, 23
1, 123360, Tempo, 450180
1, 123360, Note_on_c, 0, 64, 0
1, 123360, Note_on_c, 0, 76, 49
1, 123360, Note_on_c, 0, 52, 30
1, 123486, Control_c, 0, 64, 127
1, 123600, Note_on_c, 0, 52, 0
1, 123600, Note_on_c, 0, 64, 24
1, 123840, Tempo, 443393
1, 123840, Note_on_c, 0, 64, 0
1, 123840, Note_on_c, 0, 56, 31
1, 124080, Note_on_c, 0, 56, 0
1, 124080, Note_on_c, 0, 64, 23
1, 124320, Tempo, 443393
1, 124320, Note_on_c, 0, 64, 0
1, 124320, Note_on_c, 0, 76, 0
1, 124320, Note_on_c, 0, 74, 50
1, 124320, Note_on_c, 0, 59, 31
1, 124339, Control_c, 0, 64, 0
1, 124560, Tempo, 464432
1, 124560, Note_on_c, 0, 59, 0
1, 124560, Note_on_c, 0, 74, 0
1, 124560, Note_on_c, 0, 73, 46
1, 124560, Note_on_c, 0, 64, 23
1, 124800, Tempo, 453686
1, 124800, Note_on_c, 0, 64, 0
1, 124800, Note_on_c, 0, 73, 0
1, 124800, Note_on_c, 0, 71, 50
1, 124800, Note_on_c, 0, 62, 31
1, 125040, Note_on_c, 0, 62, 0
1, 125040, Note_on_c, 0, 64, 24
1, 125160, Note_on_c, 0, 71, 0
1, 125280, Tempo, 446761
1, 125280, Note_on_c, 0, 64, 0
1, 125280, Note_on_c, 0, 71, 47
1, 125280, Note_on_c, 0, 62, 31
1, 125308, Control_c, 0, 64, 127
1, 125520, Note_on_c, 0, 62, 0
1, 125520, Note_on_c, 0, 64, 26
1, 125760, Tempo, 453686
1, 125760, Note_on_c, 0, 64, 0
1, 125760, Note_on_c, 0, 71, 0
1, 125760, Note_on_c, 0, 76, 50
1, 125760, Note_on_c, 0, 62, 31
1, 125767, Control_c, 0, 64, 0
1, 125866, Control_c, 0, 64, 127
1, 126000, Note_on_c, 0, 62, 0
1, 126000, Note_on_c, 0, 64, 25
1, 126240, Note_on_c, 0, 64, 0
1, 126240, Note_on_c, 0, 76, 0
1, 126240, Note_on_c, 0, 68, 46
1, 126240, Note_on_c, 0, 62, 31
1, 126253, Control_c, 0, 64, 0
1, 126381, Control_c, 0, 64, 127
1, 126480, Tempo, 481580
1, 126480, Note_on_c, 0, 62, 0
1, 126480, Note_on_c, 0, 64, 28
1, 126720, Tempo, 455443
1, 126720, Note_on_c, 0, 64, 0
1, 126720, Note_on_c, 0, 68, 0
1, 126720, Note_on_c, 0, 71, 50
1, 126720, Note_on_c, 0, 61, 31
1, 126737, Control_c, 0, 64, 0
1, 126960, Tempo, 438436
1, 126960, Note_on_c, 0, 61, 0
1, 126960, Note_on_c, 0, 64, 23
1, 127200, Note_on_c, 0, 64, 0
1, 127200, Note_on_c, 0, 61, 24
1, 127440, Tempo, 458996
1, 127440, Note_on_c, 0, 61, 0
1, 127440, Note_on_c, 0, 64, 19
1, 127680, Tempo, 453686
1, 127680, Note_on_c, 0, 64, 0
1, 127680, Note_on_c, 0, 71, 0
1, 127680, Note_on_c, 0, 69, 44
1, 127680, Note_on_c, 0, 61, 31
1, 127850, Control_c, 0, 64, 127
1, 127920, Tempo, 478927
1, 127920, Note_on_c, 0, 61, 0
1, 127920, Note_on_c, 0, 64, 23
1, 128160, Tempo, 443393
1, 128160, Note_on_c, 0, 64, 0
1, 128160, Note_on_c, 0, 69, 0
1, 128160, Note_on_c, 0, 81, 50
1, 128160, Note_on_c, 0, 61, 31
1, 128400, Tempo, 471921
1, 128400, Note_on_c, 0, 61, 0
1, 128400, Note_on_c, 0, 81, 0
1, 128400, Note_on_c, 0, 76, 46
1, 128400, Note_on_c, 0, 64, 23
1, 128640, Tempo, 453686
1, 128640, Note_on_c, 0, 64, 0
1, 128640, Note_on_c, 0, 76, 0
1, 128640, Note_on_c, 0, 73, 50
1, 128640, Note_on_c, 0, 52, 31
1, 128648, Control_c, 0, 64, 0
1, 128880, Note_on_c, 0, 52, 0
1, 128880, Note_on_c, 0, 64, 24
1, 129000, Tempo, 446761
1, 129000, Note_on_c, 0, 73, 0
1, 129120, Note_on_c, 0, 64, 0
1, 129120, Note_on_c, 0, 73, 47
1, 129120, Note_on_c, 0, 57, 31
1, 129177, Control_c, 0, 64, 127
1, 129360, Note_on_c, 0, 57, 0
1, 129360, Note_on_c, 0, 64, 26
1, 129600, Tempo, 453686
1, 129600, Note_on_c, 0, 64, 0
1, 129600, Note_on_c, 0, 52, 31
1, 129840, Note_on_c, 0, 52, 0
1, 129840, Note_on_c, 0, 73, 0
1, 129840, Note_on_c, 0, 76, 50
1, 129840, Note_on_c, 0, 64, 25
1, 130080, Note_on_c, 0, 64, 0
1, 130080, Note_on_c, 0, 76, 0
1, 130080, Note_on_c, 0, 74, 46
1, 130080, Note_on_c, 0, 56, 31
1, 130097, Control_c, 0, 64, 0
1, 130186, Control_c, 0, 64, 127
1, 130320, Tempo, 481580
1, 130320, Note_on_c, 0, 56, 0
1, 130320, Note_on_c, 0, 74, 0
1, 130320, Note_on_c, 0, 71, 44
1, 130320, Note_on_c, 0, 64, 28
1, 130560, Tempo, 424178
1, 130560, Note_on_c, 0, 64, 0
1, 130560, Note_on_c, 0, 71, 0
1, 130560, Note_on_c, 0, 69, 54
1, 130560, Note_on_c, 0, 57, 34
1, 130560, Note_on_c, 0, 61, 40
1, 130574, Control_c, 0, 64, 0
1, 130680, Note_on_c, 0, 69, 0
1, 130680, Note_on_c, 0, 71, 46
1, 130800, Note_on_c, 0, 71, 0
1, 130800, Note_on_c, 0, 69, 53
1, 130920, Note_on_c, 0, 69, 0
1, 130920, Note_on_c, 0, 71, 46
1, 131040, Note_on_c, 0, 71, 0
1, 131040, Note_on_c, 0, 61, 0
1, 131040, Note_on_c, 0, 57, 0
1, 131040, Note_on_c, 0, 73, 57
1, 131100, Note_on_c, 0, 73, 0
1, 131280, Tempo, 457213
1, 131280, Note_on_c, 0, 69, 51
1, 131340, Note_on_c, 0, 69, 0
1, 131520, Tempo, 430385
1, 131520, Note_on_c, 0, 66, 54
1, 131520, Note_on_c, 0, 57, 26
1, 131520, Note_on_c, 0, 62, 31
1, 131640, Tempo, 427259
1, 131640, Note_on_c, 0, 62, 0
1, 131640, Note_on_c, 0, 57, 0
1, 131640, Note_on_c, 0, 66, 0
1, 131640, Note_on_c, 0, 69, 46
1, 131760, Note_on_c, 0, 69, 0
1, 131760, Note_on_c, 0, 66, 53
1, 131880, Note_on_c, 0, 66, 0
1, 131880, Note_on_c, 0, 69, 46
1, 132000, Note_on_c, 0, 69, 0
1, 132000, Note_on_c, 0, 68, 55
1, 132000, Note_on_c, 0, 59, 31
1, 132000, Note_on_c, 0, 57, 26
1, 132120, Note_on_c, 0, 57, 0
1, 132120, Note_on_c, 0, 59, 0
1, 132120, Note_on_c, 0, 68, 0
1, 132120, Note_on_c, 0, 71, 46
1, 132240, Tempo, 457213
1, 132240, Note_on_c, 0, 71, 0
1, 132240, Note_on_c, 0, 68, 53
1, 132360, Note_on_c, 0, 68, 0
1, 132360, Note_on_c, 0, 71, 46
1, 132480, Tempo, 424178
1, 132480, Note_on_c, 0, 71, 0
1, 132480, Note_on_c, 0, 69, 54
1, 132480, Note_on_c, 0, 57, 34
1, 132480, Note_on_c, 0, 61, 40
1, 132600, Note_on_c, 0, 69, 0
1, 132600, Note_on_c, 0, 71, 46
1, 132720, Note_on_c, 0, 71, 0
1, 132720, Note_on_c, 0, 69, 53
1, 132840, Note_on_c, 0, 69, 0
1, 132840, Note_on_c, 0, 71, 46
1, 132960, Note_on_c, 0, 71, 0
1, 132960, Note_on_c, 0, 61, 0
1, 132960, Note_on_c, 0, 57, 0
1, 132960, Note_on_c, 0, 73, 57
1, 133020, Note_on_c, 0, 73, 0
1, 133200, Tempo, 457213
1, 133200, Note_on_c, 0, 69, 51
1, 133260, Note_on_c, 0, 69, 0
1, 133440, Tempo, 430385
1, 133440, Note_on_c, 0, 66, 54
1, 133440, Note_on_c, 0, 57, 26
1, 133440, Note_on_c, 0, 62, 31
1, 133560, Tempo, 427259
1, 133560, Note_on_c, 0, 62, 0
1, 133560, Note_on_c, 0, 57, 0
1, 133560, Note_on_c, 0, 66, 0
1, 133560, Note_on_c, 0, 69, 46
1, 133680, Note_on_c, 0, 69, 0
1, 133680, Note_on_c, 0, 66, 53
1, 133800, Note_on_c, 0, 66, 0
1, 133800, Note_on_c, 0, 69, 46
1, 133920, Tempo, 436808
1, 133920, Note_on_c, 0, 69, 0
1, 133920, Note_on_c, 0, 68, 55
1, 133920, Note_on_c, 0, 59, 31
1, 133920, Note_on_c, 0, 57, 26
1, 134040, Note_on_c, 0, 57, 0
1, 134040, Note_on_c, 0, 59, 0
1, 134040, Note_on_c, 0, 68, 0
1, 134040, Note_on_c, 0, 71, 46
1, 134160, Tempo, 457213
1, 134160, Note_on_c, 0, 71, 0
1, 134160, Note_on_c, 0, 68, 53
1, 134280, Tempo, 483598
1, 134280, Note_on_c, 0, 68, 0
1, 134280, Note_on_c, 0, 71, 46
1, 134381, Tempo, 453686
1, 134400, Note_on_c, 0, 71, 0
1, 134400, Note_on_c, 0, 69, 56
1, 134400, Note_on_c, 0, 57, 34
1, 134400, Note_on_c, 0, 61, 40
1, 134413, Tempo, 451943
1, 134445, Tempo, 450214
1, 134477, Tempo, 448464
1, 134509, Tempo, 445071
1, 134520, Note_on_c, 0, 69, 0
1, 134520, Note_on_c, 0, 71, 53
1, 134541, Tempo, 443393
1, 134573, Tempo, 441729
1, 134605, Tempo, 438436
1, 134637, Tempo, 436808
1, 134640, Note_on_c, 0, 71, 0
1, 134640, Note_on_c, 0, 73, 55
1, 134669, Tempo, 435193
1, 134701, Tempo, 431965
1, 134735, Tempo, 436808
1, 134760, Note_on_c, 0, 73, 0
1, 134760, Note_on_c, 0, 74, 56
1, 134831, Tempo, 435193
1, 134880, Note_on_c, 0, 74, 0
1, 134880, Note_on_c, 0, 61, 0
1, 134880, Note_on_c, 0, 57, 0
1, 134880, Note_on_c, 0, 76, 58
1, 134927, Tempo, 433557
1, 135000, Note_on_c, 0, 76, 0
1, 135000, Note_on_c, 0, 78, 58
1, 135023, Tempo, 431965
1, 135119, Tempo, 430385
1, 135120, Note_on_c, 0, 78, 0
1, 135120, Note_on_c, 0, 80, 58
1, 135215, Tempo, 428816
1, 135240, Tempo, 483598
1, 135240, Note_on_c, 0, 80, 0
1, 135240, Note_on_c, 0, 81, 62
1, 135360, Tempo, 436808
1, 135360, Note_on_c, 0, 81, 0
1, 135360, Note_on_c, 0, 69, 71
1, 135360, Note_on_c, 0, 42, 55
1, 135360, Note_on_c, 0, 54, 65
1, 135480, Note_on_c, 0, 69, 0
1, 135480, Note_on_c, 0, 71, 71
1, 135567, Tempo, 436808
1, 135600, Note_on_c, 0, 71, 0
1, 135600, Note_on_c, 0, 54, 0
1, 135600, Note_on_c, 0, 42, 0
1, 135600, Note_on_c, 0, 73, 71
1, 135720, Note_on_c, 0, 73, 0
1, 135720, Note_on_c, 0, 74, 72
1, 135823, Tempo, 435193
1, 135840, Note_on_c, 0, 74, 0
1, 135840, Note_on_c, 0, 76, 73
1, 135840, Note_on_c, 0, 54, 57
1, 135840, Note_on_c, 0, 42, 48
1, 135960, Note_on_c, 0, 76, 0
1, 135960, Note_on_c, 0, 78, 74
1, 136079, Tempo, 433557
1, 136080, Note_on_c, 0, 78, 0
1, 136080, Note_on_c, 0, 42, 0
1, 136080, Note_on_c, 0, 54, 0
1, 136080, Note_on_c, 0, 80, 77
1, 136200, Tempo, 493746
1, 136200, Note_on_c, 0, 80, 0
1, 136200, Note_on_c, 0, 81, 78
1, 136296, Tempo, 435193
1, 136320, Note_on_c, 0, 81, 0
1, 136320, Note_on_c, 0, 78, 82
1, 136320, Note_on_c, 0, 38, 54
1, 136320, Note_on_c, 0, 50, 64
1, 136424, Tempo, 436808
1, 136440, Note_on_c, 0, 78, 0
1, 136440, Note_on_c, 0, 76, 78
1, 136536, Tempo, 438436
1, 136560, Note_on_c, 0, 76, 0
1, 136560, Note_on_c, 0, 50, 0
1, 136560, Note_on_c, 0, 38, 0
1, 136560, Note_on_c, 0, 74, 78
1, 136664, Tempo, 440076
1, 136680, Note_on_c, 0, 74, 0
1, 136680, Note_on_c, 0, 73, 74
1, 136776, Tempo, 441729
1, 136800, Note_on_c, 0, 73, 0
1, 136800, Note_on_c, 0, 71, 71
1, 136800, Note_on_c, 0, 50, 56
1, 136800, Note_on_c, 0, 38, 47
1, 136904, Tempo, 443393
1, 136920, Note_on_c, 0, 71, 0
1, 136920, Note_on_c, 0, 69, 70
1, 137016, Tempo, 445071
1, 137040, Note_on_c, 0, 69, 0
1, 137040, Note_on_c, 0, 38, 0
1, 137040, Note_on_c, 0, 50, 0
1, 137040, Note_on_c, 0, 68, 73
1, 137144, Tempo, 446761
1, 137160, Note_on_c, 0, 68, 0
1, 137160, Note_on_c, 0, 66, 72
1, 137256, Tempo, 448464
1, 137280, Tempo, 470035
1, 137280, Note_on_c, 0, 66, 0
1, 137280, Note_on_c, 0, 64, 81
1, 137280, Note_on_c, 0, 52, 66
1, 137280, Note_on_c, 0, 40, 56
1, 137400, Note_on_c, 0, 40, 0
1, 137400, Note_on_c, 0, 52, 0
1, 137400, Note_on_c, 0, 64, 0
1, 137760, Note_on_c, 0, 62, 62
1, 137760, Note_on_c, 0, 64, 62
1, 137760, Note_on_c, 0, 68, 73
1, 137760, Note_on_c, 0, 40, 47
1, 137760, Note_on_c, 0, 52, 56
1, 137880, Note_on_c, 0, 52, 0
1, 137880, Note_on_c, 0, 68, 0
1, 137880, Note_on_c, 0, 62, 0
1, 137880, Note_on_c, 0, 64, 0
1, 137880, Note_on_c, 0, 40, 0
1, 138240, Tempo, 424178
1, 138240, Note_on_c, 0, 69, 43
1, 138240, Note_on_c, 0, 57, 27
1, 138240, Note_on_c, 0, 61, 32
1, 138360, Note_on_c, 0, 69, 0
1, 138360, Note_on_c, 0, 73, 36
1, 138480, Note_on_c, 0, 73, 0
1, 138480, Note_on_c, 0, 76, 42
1, 138600, Note_on_c, 0, 76, 0
1, 138600, Note_on_c, 0, 74, 36
1, 138720, Note_on_c, 0, 74, 0
1, 138720, Note_on_c, 0, 61, 0
1, 138720, Note_on_c, 0, 57, 0
1, 138720, Note_on_c, 0, 73, 45
1, 138840, Note_on_c, 0, 73, 0
1, 138840, Note_on_c, 0, 71, 42
1, 138960, Tempo, 457213
1, 138960, Note_on_c, 0, 71, 0
1, 138960, Note_on_c, 0, 69, 40
1, 139080, Note_on_c, 0, 69, 0
1, 139080, Note_on_c, 0, 68, 37
1, 139200, Tempo, 430385
1, 139200, Note_on_c, 0, 68, 0
1, 139200, Note_on_c, 0, 66, 43
1, 139200, Note_on_c, 0, 57, 20
1, 139200, Note_on_c, 0, 62, 24
1, 139320, Tempo, 427259
1, 139320, Note_on_c, 0, 62, 0
1, 139320, Note_on_c, 0, 57, 0
1, 139320, Note_on_c, 0, 66, 0
1, 139320, Note_on_c, 0, 69, 36
1, 139440, Note_on_c, 0, 69, 0
1, 139440, Note_on_c, 0, 66, 42
1, 139560, Note_on_c, 0, 66, 0
1, 139560, Note_on_c, 0, 69, 36
1, 139680, Note_on_c, 0, 69, 0
1, 139680, Note_on_c, 0, 68, 44
1, 139680, Note_on_c, 0, 59, 24
1, 139680, Note_on_c, 0, 57, 20
1, 139800, Note_on_c, 0, 57, 0
1, 139800, Note_on_c, 0, 59, 0
1, 139800, Note_on_c, 0, 68, 0
1, 139800, Note_on_c, 0, 71, 36
1, 139920, Tempo, 457213
1, 139920, Note_on_c, 0, 71, 0
1, 139920, Note_on_c, 0, 68, 42
1, 140040, Note_on_c, 0, 68, 0
1, 140040, Note_on_c, 0, 71, 36
1, 140160, Tempo, 424178
1, 140160, Note_on_c, 0, 71, 0
1, 140160, Note_on_c, 0, 69, 43
1, 140160, Note_on_c, 0, 45, 27
1, 140160, Note_on_c, 0, 57, 32
1, 140280, Note_on_c, 0, 69, 0
1, 140280, Note_on_c, 0, 73, 36
1, 140400, Note_on_c, 0, 73, 0
1, 140400, Note_on_c, 0, 76, 42
1, 140520, Note_on_c, 0, 76, 0
1, 140520, Note_on_c, 0, 74, 36
1, 140640, Note_on_c, 0, 74, 0
1, 140640, Note_on_c, 0, 57, 0
1, 140640, Note_on_c, 0, 45, 0
1, 140640, Note_on_c, 0, 73, 45
1, 140760, Note_on_c, 0, 73, 0
1, 140760, Note_on_c, 0, 71, 42
1, 140880, Tempo, 457213
1, 140880, Note_on_c, 0, 71, 0
1, 140880, Note_on_c, 0, 69, 40
1, 141000, Note_on_c, 0, 69, 0
1, 141000, Note_on_c, 0, 68, 37
1, 141120, Tempo, 430385
1, 141120, Note_on_c, 0, 68, 0
1, 141120, Note_on_c, 0, 66, 43
1, 141120, Note_on_c, 0, 57, 20
1, 141120, Note_on_c, 0, 62, 24
1, 141240, Tempo, 427259
1, 141240, Note_on_c, 0, 62, 0
1, 141240, Note_on_c, 0, 57, 0
1, 141240, Note_on_c, 0, 66, 0
1, 141240, Note_on_c, 0, 69, 36
1, 141360, Note_on_c, 0, 69, 0
1, 141360, Note_on_c, 0, 66, 42
1, 141480, Note_on_c, 0, 66, 0
1, 141480, Note_on_c, 0, 69, 36
1, 141600, Note_on_c, 0, 69, 0
1, 141600, Note_on_c, 0, 68, 44
1, 141600, Note_on_c, 0, 59, 24
1, 141600, Note_on_c, 0, 57, 20
1, 141720, Note_on_c, 0, 57, 0
1, 141720, Note_on_c, 0, 59, 0
1, 141720, Note_on_c, 0, 68, 0
1, 141720, Note_on_c, 0, 71, 36
1, 141840, Tempo, 457213
1, 141840, Note_on_c, 0, 71, 0
1, 141840, Note_on_c, 0, 68, 42
1, 141960, Note_on_c, 0, 68, 0
1, 141960, Note_on_c, 0, 71, 36
1, 142080, Tempo, 436808
1, 142080, Note_on_c, 0, 71, 0
1, 142080, Note_on_c, 0, 69, 52
1, 142080, Note_on_c, 0, 61, 32
1, 142086, Note_on_c, 0, 57, 27
1, 142200, Note_on_c, 0, 69, 0
1, 142200, Note_on_c, 0, 71, 53
1, 142287, Tempo, 436808
1, 142320, Note_on_c, 0, 71, 0
1, 142320, Note_on_c, 0, 73, 54
1, 142440, Note_on_c, 0, 73, 0
1, 142440, Note_on_c, 0, 74, 56
1, 142543, Tempo, 435193
1, 142560, Note_on_c, 0, 74, 0
1, 142560, Note_on_c, 0, 61, 0
1, 142560, Note_on_c, 0, 76, 59
1, 142566, Note_on_c, 0, 57, 0
1, 142680, Note_on_c, 0, 76, 0
1, 142680, Note_on_c, 0, 78, 62
1, 142799, Tempo, 433557
1, 142800, Note_on_c, 0, 78, 0
1, 142800, Note_on_c, 0, 80, 65
1, 142920, Tempo, 493746
1, 142920, Note_on_c, 0, 80, 0
1, 142920, Note_on_c, 0, 81, 68
1, 143016, Tempo, 435193
1, 143040, Note_on_c, 0, 81, 0
1, 143040, Note_on_c, 0, 78, 75
1, 143040, Note_on_c, 0, 38, 58
1, 143144, Tempo, 436808
1, 143160, Note_on_c, 0, 78, 0
1, 143160, Note_on_c, 0, 76, 71
1, 143256, Tempo, 438436
1, 143280, Note_on_c, 0, 76, 0
1, 143280, Note_on_c, 0, 38, 0
1, 143280, Note_on_c, 0, 74, 74
1, 143280, Note_on_c, 0, 50, 50
1, 143384, Tempo, 440076
1, 143400, Note_on_c, 0, 74, 0
1, 143400, Note_on_c, 0, 73, 72
1, 143496, Tempo, 441729
1, 143520, Note_on_c, 0, 73, 0
1, 143520, Note_on_c, 0, 50, 0
1, 143520, Note_on_c, 0, 71, 70
1, 143520, Note_on_c, 0, 38, 55
1, 143624, Tempo, 443393
1, 143640, Note_on_c, 0, 71, 0
1, 143640, Note_on_c, 0, 69, 71
1, 143736, Tempo, 445071
1, 143760, Note_on_c, 0, 69, 0
1, 143760, Note_on_c, 0, 38, 0
1, 143760, Note_on_c, 0, 68, 76
1, 143760, Note_on_c, 0, 50, 48
1, 143864, Tempo, 446761
1, 143880, Note_on_c, 0, 68, 0
1, 143880, Note_on_c, 0, 66, 77
1, 143976, Tempo, 448464
1, 144000, Tempo, 455443
1, 144000, Note_on_c, 0, 66, 0
1, 144000, Note_on_c, 0, 50, 0
1, 144000, Note_on_c, 0, 64, 85
1, 144000, Note_on_c, 0, 40, 57
1, 144035, Control_c, 0, 64, 127
1, 144240, Note_on_c, 0, 40, 0
1, 144240, Note_on_c, 0, 64, 0
1, 144240, Note_on_c, 0, 73, 72
1, 144240, Note_on_c, 0, 69, 72
1, 144240, Note_on_c, 0, 52, 49
1, 144360, Note_on_c, 0, 52, 0
1, 144360, Note_on_c, 0, 69, 0
1, 144360, Note_on_c, 0, 73, 0
1, 144480, Note_on_c, 0, 73, 80
1, 144480, Note_on_c, 0, 69, 80
1, 144480, Note_on_c, 0, 40, 57
1, 144600, Note_on_c, 0, 40, 0
1, 144600, Note_on_c, 0, 69, 0
1, 144600, Note_on_c, 0, 73, 0
1, 144720, Tempo, 481580
1, 144720, Note_on_c, 0, 69, 72
1, 144720, Note_on_c, 0, 73, 72
1, 144720, Note_on_c, 0, 52, 49
1, 144840, Note_on_c, 0, 52, 0
1, 144840, Note_on_c, 0, 73, 0
1, 144840, Note_on_c, 0, 69, 0
1, 144960, Tempo, 455443
1, 144960, Note_on_c, 0, 73, 80
1, 144960, Note_on_c, 0, 69, 80
1, 144960, Note_on_c, 0, 40, 57
1, 144995, Control_c, 0, 64, 0
1, 145097, Control_c, 0, 64, 127
1, 145200, Note_on_c, 0, 40, 0
1, 145200, Note_on_c, 0, 69, 0
1, 145200, Note_on_c, 0, 73, 0
1, 145200, Note_on_c, 0, 74, 72
1, 145200, Note_on_c, 0, 71, 72
1, 145200, Note_on_c, 0, 52, 49
1, 145320, Note_on_c, 0, 52, 0
1, 145320, Note_on_c, 0, 71, 0
1, 145320, Note_on_c, 0, 74, 0
1, 145440, Note_on_c, 0, 71, 80
1, 145440, Note_on_c, 0, 68, 80
1, 145440, Note_on_c, 0, 40, 57
1, 145457, Control_c, 0, 64, 0
1, 145520, Control_c, 0, 64, 127
1, 145560, Note_on_c, 0, 40, 0
1, 145560, Note_on_c, 0, 68, 0
1, 145560, Note_on_c, 0, 71, 0
1, 145680, Note_on_c, 0, 68, 72
1, 145680, Note_on_c, 0, 71, 72
1, 145680, Note_on_c, 0, 52, 49
1, 145800, Note_on_c, 0, 52, 0
1, 145800, Note_on_c, 0, 71, 0
1, 145800, Note_on_c, 0, 68, 0
1, 145920, Tempo, 477669
1, 145920, Note_on_c, 0, 69, 83
1, 145920, Note_on_c, 0, 45, 57
1, 145934, Control_c, 0, 64, 0
1, 146083, Control_c, 0, 64, 127
1, 146160, Note_on_c, 0, 45, 0
1, 146160, Note_on_c, 0, 69, 0
1, 146160, Note_on_c, 0, 57, 52
1, 146400, Tempo, 502176
1, 146400, Note_on_c, 0, 57, 0
1, 146400, Note_on_c, 0, 76, 79
1, 146400, Note_on_c, 0, 73, 79
1, 146400, Note_on_c, 0, 69, 79
1, 146400, Note_on_c, 0, 81, 79
1, 146400, Note_on_c, 0, 52, 57
1, 146520, Note_on_c, 0, 81, 0
1, 146520, Note_on_c, 0, 69, 0
1, 146520, Note_on_c, 0, 76, 0
1, 146520, Note_on_c, 0, 73, 0
1, 146640, Note_on_c, 0, 52, 0
1, 146640, Note_on_c, 0, 49, 51
1, 146880, Tempo, 645161
1, 146880, Note_on_c, 0, 49, 0
1, 146880, Note_on_c, 0, 81, 79
1, 146880, Note_on_c, 0, 76, 79
1, 146880, Note_on_c, 0, 73, 79
1, 146880, Note_on_c, 0, 69, 79
1, 146880, Note_on_c, 0, 45, 62
1, 147000, Tempo, 990262
1, 147000, Note_on_c, 0, 45, 0
1, 147000, Note_on_c, 0, 73, 0
1, 147000, Note_on_c, 0, 81, 0
1, 147000, Note_on_c, 0, 76, 0
1, 147000, Note_on_c, 0, 69, 0
1, 147240, Tempo, 451162
1, 147240, Control_c, 0, 64, 0
1, 147300, Tempo, 444148
1, 147360, Marker_t, "Teil 2"
1, 147360, Note_on_c, 0, 69, 46
1, 147480, Note_on_c, 0, 69, 0
1, 147480, Note_on_c, 0, 71, 47
1, 147600, Note_on_c, 0, 71, 0
1, 147600, Note_on_c, 0, 73, 48
1, 147720, Note_on_c, 0, 73, 0
1, 147720, Note_on_c, 0, 74, 49
1, 147840, Tempo, 439207
1, 147840, Note_on_c, 0, 74, 0
1, 147840, Note_on_c, 0, 76, 52
1, 147840, Note_on_c, 0, 57, 35
1, 147960, Note_on_c, 0, 57, 0
1, 147960, Note_on_c, 0, 76, 0
1, 148080, Note_on_c, 0, 57, 27
1, 148200, Note_on_c, 0, 57, 0
1, 148320, Tempo, 434373
1, 148320, Note_on_c, 0, 73, 48
1, 148320, Note_on_c, 0, 69, 48
1, 148320, Note_on_c, 0, 57, 30
1, 148440, Note_on_c, 0, 57, 0
1, 148440, Note_on_c, 0, 69, 0
1, 148440, Note_on_c, 0, 73, 0
1, 148560, Note_on_c, 0, 57, 27
1, 148680, Note_on_c, 0, 57, 0
1, 148800, Tempo, 431189
1, 148800, Note_on_c, 0, 71, 50
1, 148800, Note_on_c, 0, 74, 50
1, 148800, Note_on_c, 0, 57, 31
1, 148920, Note_on_c, 0, 57, 0
1, 148920, Note_on_c, 0, 74, 0
1, 148920, Note_on_c, 0, 71, 0
1, 149040, Note_on_c, 0, 57, 27
1, 149160, Note_on_c, 0, 57, 0
1, 149280, Note_on_c, 0, 76, 47
1, 149280, Note_on_c, 0, 73, 47
1, 149280, Note_on_c, 0, 57, 30
1, 149400, Note_on_c, 0, 57, 0
1, 149400, Note_on_c, 0, 73, 0
1, 149400, Note_on_c, 0, 76, 0
1, 149520, Tempo, 472962
1, 149520, Note_on_c, 0, 57, 27
1, 149640, Note_on_c, 0, 57, 0
1, 149760, Tempo, 428388
1, 149760, Note_on_c, 0, 74, 50
1, 149760, Note_on_c, 0, 71, 50
1, 149760, Note_on_c, 0, 57, 35
1, 149880, Note_on_c, 0, 57, 0
1, 150000, Note_on_c, 0, 57, 29
1, 150120, Note_on_c, 0, 57, 0
1, 150240, Note_on_c, 0, 57, 31
1, 150360, Note_on_c, 0, 57, 0
1, 150480, Note_on_c, 0, 71, 0
1, 150480, Note_on_c, 0, 74, 0
1, 150480, Note_on_c, 0, 76, 43
1, 150480, Note_on_c, 0, 73, 43
1, 150480, Note_on_c, 0, 57, 29
1, 150600, Note_on_c, 0, 57, 0
1, 150720, Note_on_c, 0, 73, 0
1, 150720, Note_on_c, 0, 76, 0
1, 150720, Note_on_c, 0, 78, 47
1, 150720, Note_on_c, 0, 74, 47
1, 150720, Note_on_c, 0, 57, 32
1, 150840, Note_on_c, 0, 57, 0
1, 150960, Tempo, 458295
1, 150960, Note_on_c, 0, 57, 29
1, 151080, Note_on_c, 0, 57, 0
1, 151200, Tempo, 436300
1, 151200, Note_on_c, 0, 74, 0
1, 151200, Note_on_c, 0, 78, 0
1, 151200, Note_on_c, 0, 71, 46
1, 151200, Note_on_c, 0, 57, 32
1, 151205, Tempo, 442837
1, 151237, Tempo, 426834
1, 151320, Note_on_c, 0, 57, 0
1, 151320, Note_on_c, 0, 71, 0
1, 151320, Note_on_c, 0, 73, 47
1, 151440, Note_on_c, 0, 73, 0
1, 151440, Note_on_c, 0, 74, 48
1, 151440, Note_on_c, 0, 57, 29
1, 151461, Tempo, 428388
1, 151560, Note_on_c, 0, 57, 0
1, 151560, Note_on_c, 0, 74, 0
1, 151560, Note_on_c, 0, 76, 49
1, 151680, Note_on_c, 0, 76, 0
1, 151680, Note_on_c, 0, 78, 52
1, 151680, Note_on_c, 0, 57, 35
1, 151685, Tempo, 429923
1, 151800, Note_on_c, 0, 57, 0
1, 151800, Note_on_c, 0, 78, 0
1, 151920, Note_on_c, 0, 57, 27
1, 152040, Note_on_c, 0, 57, 0
1, 152160, Note_on_c, 0, 74, 48
1, 152160, Note_on_c, 0, 71, 43
1, 152160, Note_on_c, 0, 57, 30
1, 152280, Note_on_c, 0, 57, 0
1, 152280, Note_on_c, 0, 71, 0
1, 152280, Note_on_c, 0, 74, 0
1, 152400, Note_on_c, 0, 57, 27
1, 152520, Note_on_c, 0, 57, 0
1, 152640, Note_on_c, 0, 73, 45
1, 152640, Note_on_c, 0, 76, 50
1, 152640, Note_on_c, 0, 57, 31
1, 152760, Note_on_c, 0, 57, 0
1, 152760, Note_on_c, 0, 76, 0
1, 152760, Note_on_c, 0, 73, 0
1, 152880, Note_on_c, 0, 57, 27
1, 153000, Note_on_c, 0, 57, 0
1, 153120, Note_on_c, 0, 78, 47
1, 153120, Note_on_c, 0, 74, 42
1, 153120, Note_on_c, 0, 57, 30
1, 153240, Note_on_c, 0, 57, 0
1, 153240, Note_on_c, 0, 74, 0
1, 153240, Note_on_c, 0, 78, 0
1, 153360, Tempo, 472962
1, 153360, Note_on_c, 0, 57, 27
1, 153480, Note_on_c, 0, 57, 0
1, 153600, Tempo, 428388
1, 153600, Note_on_c, 0, 76, 50
1, 153600, Note_on_c, 0, 73, 45
1, 153600, Note_on_c, 0, 57, 35
1, 153720, Note_on_c, 0, 57, 0
1, 153840, Note_on_c, 0, 57, 29
1, 153960, Note_on_c, 0, 57, 0
1, 154080, Note_on_c, 0, 57, 31
1, 154200, Note_on_c, 0, 57, 0
1, 154320, Note_on_c, 0, 73, 0
1, 154320, Note_on_c, 0, 76, 0
1, 154320, Note_on_c, 0, 78, 43
1, 154320, Note_on_c, 0, 74, 38
1, 154320, Note_on_c, 0, 57, 29
1, 154440, Note_on_c, 0, 57, 0
1, 154560, Note_on_c, 0, 74, 0
1, 154560, Note_on_c, 0, 78, 0
1, 154560, Note_on_c, 0, 79, 47
1, 154560, Note_on_c, 0, 76, 42
1, 154560, Note_on_c, 0, 57, 32
1, 154680, Note_on_c, 0, 57, 0
1, 154800, Tempo, 458295
1, 154800, Note_on_c, 0, 57, 29
1, 154920, Note_on_c, 0, 57, 0
1, 155040, Tempo, 433088
1, 155040, Note_on_c, 0, 76, 0
1, 155040, Note_on_c, 0, 79, 0
1, 155040, Note_on_c, 0, 79, 62
1, 155040, Note_on_c, 0, 57, 41
1, 155160, Note_on_c, 0, 57, 0
1, 155160, Note_on_c, 0, 79, 0
1, 155160, Note_on_c, 0, 81, 47
1, 155280, Note_on_c, 0, 81, 0
1, 155280, Note_on_c, 0, 83, 50
1, 155280, Note_on_c, 0, 57, 37
1, 155400, Note_on_c, 0, 57, 0
1, 155400, Note_on_c, 0, 83, 0
1, 155400, Note_on_c, 0, 81, 46
1, 155520, Tempo, 426834
1, 155520, Note_on_c, 0, 81, 0
1, 155520, Note_on_c, 0, 79, 61
1, 155520, Note_on_c, 0, 57, 48
1, 155640, Note_on_c, 0, 79, 0
1, 155640, Note_on_c, 0, 81, 48
1, 155760, Note_on_c, 0, 81, 0
1, 155760, Note_on_c, 0, 78, 50
1, 155880, Note_on_c, 0, 78, 0
1, 155880, Note_on_c, 0, 79, 47
1, 156000, Note_on_c, 0, 79, 0
1, 156000, Note_on_c, 0, 57, 0
1, 156000, Note_on_c, 0, 76, 57
1, 156120, Note_on_c, 0, 76, 0
1, 156120, Note_on_c, 0, 78, 48
1, 156240, Note_on_c, 0, 78, 0
1, 156240, Note_on_c, 0, 74, 50
1, 156360, Note_on_c, 0, 74, 0
1, 156360, Note_on_c, 0, 76, 48
1, 156480, Note_on_c, 0, 76, 0
1, 156480, Note_on_c, 0, 73, 56
1, 156549, Tempo, 425291
1, 156581, Tempo, 423759
1, 156600, Note_on_c, 0, 73, 0
1, 156600, Note_on_c, 0, 74, 48
1, 156645, Tempo, 425291
1, 156709, Tempo, 426834
1, 156720, Note_on_c, 0, 74, 0
1, 156720, Note_on_c, 0, 71, 50
1, 156773, Tempo, 428388
1, 156805, Tempo, 429923
1, 156840, Note_on_c, 0, 71, 0
1, 156840, Note_on_c, 0, 73, 47
1, 156869, Tempo, 431499
1, 156933, Tempo, 433088
1, 156960, Note_on_c, 0, 73, 0
1, 156960, Note_on_c, 0, 69, 56
1, 156965, Tempo, 434688
1, 156997, Tempo, 446163
1, 157029, Tempo, 439528
1, 157061, Tempo, 441176
1, 157080, Note_on_c, 0, 69, 0
1, 157080, Note_on_c, 0, 71, 42
1, 157093, Tempo, 444510
1, 157125, Tempo, 446163
1, 157157, Tempo, 449573
1, 157189, Tempo, 451297
1, 157200, Note_on_c, 0, 71, 0
1, 157200, Note_on_c, 0, 67, 50
1, 157221, Tempo, 454752
1, 157253, Tempo, 456517
1, 157285, Tempo, 460087
1, 157317, Tempo, 461894
1, 157320, Note_on_c, 0, 67, 0
1, 157320, Note_on_c, 0, 69, 42
1, 157349, Tempo, 465513
1, 157381, Tempo, 467363
1, 157413, Tempo, 471069
1, 157440, Tempo, 434688
1, 157440, Note_on_c, 0, 69, 0
1, 157440, Note_on_c, 0, 66, 61
1, 157440, Note_on_c, 0, 50, 41
1, 157680, Note_on_c, 0, 50, 0
1, 157680, Note_on_c, 0, 62, 30
1, 157800, Note_on_c, 0, 62, 0
1, 157920, Note_on_c, 0, 66, 0
1, 157920, Note_on_c, 0, 62, 34
1, 158040, Note_on_c, 0, 62, 0
1, 158160, Note_on_c, 0, 62, 30
1, 158280, Note_on_c, 0, 62, 0
1, 158400, Note_on_c, 0, 62, 36
1, 158520, Note_on_c, 0, 62, 0
1, 158640, Note_on_c, 0, 62, 30
1, 158760, Note_on_c, 0, 62, 0
1, 158880, Tempo, 436300
1, 158880, Note_on_c, 0, 74, 46
1, 158880, Note_on_c, 0, 62, 34
1, 158885, Tempo, 434688
1, 159000, Note_on_c, 0, 62, 0
1, 159000, Note_on_c, 0, 74, 0
1, 159000, Note_on_c, 0, 76, 47
1, 159013, Tempo, 433088
1, 159120, Note_on_c, 0, 76, 0
1, 159120, Note_on_c, 0, 78, 48
1, 159120, Note_on_c, 0, 62, 30
1, 159141, Tempo, 431499
1, 159240, Note_on_c, 0, 62, 0
1, 159240, Note_on_c, 0, 78, 0
1, 159240, Note_on_c, 0, 79, 49
1, 159269, Tempo, 429923
1, 159360, Note_on_c, 0, 79, 0
1, 159360, Note_on_c, 0, 81, 52
1, 159360, Note_on_c, 0, 62, 35
1, 159397, Tempo, 428388
1, 159480, Note_on_c, 0, 62, 0
1, 159480, Note_on_c, 0, 81, 0
1, 159600, Note_on_c, 0, 62, 27
1, 159720, Note_on_c, 0, 62, 0
1, 159840, Note_on_c, 0, 78, 48
1, 159840, Note_on_c, 0, 74, 43
1, 159840, Note_on_c, 0, 62, 30
1, 159960, Note_on_c, 0, 62, 0
1, 159960, Note_on_c, 0, 74, 0
1, 159960, Note_on_c, 0, 78, 0
1, 160080, Note_on_c, 0, 62, 27
1, 160200, Note_on_c, 0, 62, 0
1, 160320, Note_on_c, 0, 76, 45
1, 160320, Note_on_c, 0, 79, 50
1, 160320, Note_on_c, 0, 62, 31
1, 160440, Note_on_c, 0, 62, 0
1, 160440, Note_on_c, 0, 79, 0
1, 160440, Note_on_c, 0, 76, 0
1, 160560, Note_on_c, 0, 62, 27
1, 160680, Note_on_c, 0, 62, 0
1, 160800, Note_on_c, 0, 81, 47
1, 160800, Note_on_c, 0, 78, 42
1, 160800, Note_on_c, 0, 62, 30
1, 160920, Note_on_c, 0, 62, 0
1, 160920, Note_on_c, 0, 78, 0
1, 160920, Note_on_c, 0, 81, 0
1, 161040, Tempo, 472962
1, 161040, Note_on_c, 0, 62, 27
1, 161160, Note_on_c, 0, 62, 0
1, 161280, Tempo, 428388
1, 161280, Note_on_c, 0, 79, 50
1, 161280, Note_on_c, 0, 76, 45
1, 161280, Note_on_c, 0, 62, 35
1, 161400, Note_on_c, 0, 62, 0
1, 161520, Note_on_c, 0, 62, 29
1, 161640, Note_on_c, 0, 62, 0
1, 161760, Note_on_c, 0, 62, 31
1, 161880, Note_on_c, 0, 62, 0
1, 162000, Note_on_c, 0, 76, 0
1, 162000, Note_on_c, 0, 79, 0
1, 162000, Note_on_c, 0, 81, 43
1, 162000, Note_on_c, 0, 78, 38
1, 162000, Note_on_c, 0, 62, 29
1, 162120, Note_on_c, 0, 62, 0
1, 162240, Note_on_c, 0, 78, 0
1, 162240, Note_on_c, 0, 81, 0
1, 162240, Note_on_c, 0, 83, 47
1, 162240, Note_on_c, 0, 79, 42
1, 162240, Note_on_c, 0, 62, 32
1, 162360, Note_on_c, 0, 62, 0
1, 162480, Tempo, 458295
1, 162480, Note_on_c, 0, 62, 29
1, 162600, Note_on_c, 0, 62, 0
1, 162693, Tempo, 423759
1, 162720, Note_on_c, 0, 79, 0
1, 162720, Note_on_c, 0, 83, 0
1, 162720, Note_on_c, 0, 76, 46
1, 162720, Note_on_c, 0, 62, 34
1, 162821, Tempo, 425291
1, 162840, Note_on_c, 0, 62, 0
1, 162840, Note_on_c, 0, 76, 0
1, 162840, Note_on_c, 0, 78, 47
1, 162949, Tempo, 426834
1, 162960, Note_on_c, 0, 78, 0
1, 162960, Note_on_c, 0, 79, 48
1, 162960, Note_on_c, 0, 62, 30
1, 163077, Tempo, 428388
1, 163080, Note_on_c, 0, 62, 0
1, 163080, Note_on_c, 0, 79, 0
1, 163080, Note_on_c, 0, 81, 49
1, 163200, Note_on_c, 0, 81, 0
1, 163200, Note_on_c, 0, 83, 52
1, 163200, Note_on_c, 0, 62, 35
1, 163205, Tempo, 429923
1, 163320, Note_on_c, 0, 62, 0
1, 163320, Note_on_c, 0, 83, 0
1, 163440, Note_on_c, 0, 62, 27
1, 163560, Note_on_c, 0, 62, 0
1, 163680, Note_on_c, 0, 79, 52
1, 163680, Note_on_c, 0, 76, 47
1, 163680, Note_on_c, 0, 62, 33
1, 163800, Note_on_c, 0, 62, 0
1, 163800, Note_on_c, 0, 76, 0
1, 163800, Note_on_c, 0, 79, 0
1, 163920, Note_on_c, 0, 62, 30
1, 164040, Note_on_c, 0, 62, 0
1, 164160, Note_on_c, 0, 78, 52
1, 164160, Note_on_c, 0, 81, 58
1, 164160, Note_on_c, 0, 62, 35
1, 164280, Note_on_c, 0, 62, 0
1, 164280, Note_on_c, 0, 81, 0
1, 164280, Note_on_c, 0, 78, 0
1, 164400, Note_on_c, 0, 62, 32
1, 164520, Note_on_c, 0, 62, 0
1, 164640, Note_on_c, 0, 83, 57
1, 164640, Note_on_c, 0, 79, 51
1, 164640, Note_on_c, 0, 62, 36
1, 164760, Note_on_c, 0, 62, 0
1, 164760, Note_on_c, 0, 79, 0
1, 164760, Note_on_c, 0, 83, 0
1, 164880, Tempo, 472962
1, 164880, Note_on_c, 0, 62, 34
1, 165000, Note_on_c, 0, 62, 0
1, 165120, Tempo, 428388
1, 165120, Note_on_c, 0, 81, 67
1, 165120, Note_on_c, 0, 78, 53
1, 165120, Note_on_c, 0, 62, 48
1, 165360, Note_on_c, 0, 78, 0
1, 165360, Note_on_c, 0, 81, 0
1, 165360, Note_on_c, 0, 84, 56
1, 165600, Tempo, 437892
1, 165600, Note_on_c, 0, 84, 0
1, 165600, Note_on_c, 0, 62, 0
1, 165600, Note_on_c, 0, 78, 56
1, 165600, Note_on_c, 0, 81, 63
1, 165720, Note_on_c, 0, 81, 0
1, 165720, Note_on_c, 0, 78, 0
1, 165840, Note_on_c, 0, 81, 57
1, 165840, Note_on_c, 0, 78, 50
1, 165960, Note_on_c, 0, 78, 0
1, 165960, Note_on_c, 0, 81, 0
1, 166080, Tempo, 428388
1, 166080, Note_on_c, 0, 78, 39
1, 166080, Note_on_c, 0, 81, 47
1, 166080, Note_on_c, 0, 63, 37
1, 166320, Note_on_c, 0, 81, 0
1, 166320, Note_on_c, 0, 78, 0
1, 166320, Note_on_c, 0, 84, 39
1, 166440, Note_on_c, 0, 63, 0
1, 166560, Tempo, 436300
1, 166560, Note_on_c, 0, 84, 0
1, 166560, Note_on_c, 0, 81, 43
1, 166560, Note_on_c, 0, 78, 36
1, 166560, Note_on_c, 0, 63, 37
1, 166680, Note_on_c, 0, 78, 0
1, 166680, Note_on_c, 0, 81, 0
1, 166800, Tempo, 450958
1, 166800, Note_on_c, 0, 78, 30
1, 166800, Note_on_c, 0, 81, 36
1, 166920, Note_on_c, 0, 81, 0
1, 166920, Note_on_c, 0, 78, 0
1, 166920, Note_on_c, 0, 63, 0
1, 167040, Tempo, 428388
1, 167040, Note_on_c, 0, 78, 39
1, 167040, Note_on_c, 0, 81, 47
1, 167040, Note_on_c, 0, 64, 37
1, 167280, Note_on_c, 0, 81, 0
1, 167280, Note_on_c, 0, 78, 0
1, 167280, Note_on_c, 0, 83, 39
1, 167520, Tempo, 436300
1, 167520, Note_on_c, 0, 83, 0
1, 167520, Note_on_c, 0, 64, 0
1, 167520, Note_on_c, 0, 79, 43
1, 167520, Note_on_c, 0, 76, 36
1, 167640, Note_on_c, 0, 76, 0
1, 167640, Note_on_c, 0, 79, 0
1, 167760, Tempo, 445831
1, 167760, Note_on_c, 0, 76, 30
1, 167760, Note_on_c, 0, 79, 36
1, 167880, Note_on_c, 0, 79, 0
1, 167880, Note_on_c, 0, 76, 0
1, 168000, Tempo, 428388
1, 168000, Note_on_c, 0, 76, 39
1, 168000, Note_on_c, 0, 79, 47
1, 168000, Note_on_c, 0, 61, 37
1, 168240, Note_on_c, 0, 79, 0
1, 168240, Note_on_c, 0, 76, 0
1, 168240, Note_on_c, 0, 82, 39
1, 168360, Note_on_c, 0, 61, 0
1, 168480, Tempo, 436300
1, 168480, Note_on_c, 0, 82, 0
1, 168480, Note_on_c, 0, 79, 43
1, 168480, Note_on_c, 0, 76, 36
1, 168480, Note_on_c, 0, 61, 37
1, 168600, Note_on_c, 0, 76, 0
1, 168600, Note_on_c, 0, 79, 0
1, 168720, Tempo, 466999
1, 168720, Note_on_c, 0, 76, 30
1, 168720, Note_on_c, 0, 79, 36
1, 168840, Note_on_c, 0, 79, 0
1, 168840, Note_on_c, 0, 76, 0
1, 168840, Note_on_c, 0, 61, 0
1, 168960, Tempo, 428388
1, 168960, Note_on_c, 0, 76, 39
1, 168960, Note_on_c, 0, 79, 47
1, 168960, Note_on_c, 0, 62, 37
1, 169200, Note_on_c, 0, 79, 0
1, 169200, Note_on_c, 0, 76, 0
1, 169200, Note_on_c, 0, 81, 39
1, 169440, Tempo, 436300
1, 169440, Note_on_c, 0, 81, 0
1, 169440, Note_on_c, 0, 62, 0
1, 169440, Note_on_c, 0, 78, 43
1, 169440, Note_on_c, 0, 74, 36
1, 169560, Note_on_c, 0, 74, 0
1, 169560, Note_on_c, 0, 78, 0
1, 169680, Note_on_c, 0, 74, 30
1, 169680, Note_on_c, 0, 78, 36
1, 169800, Note_on_c, 0, 78, 0
1, 169800, Note_on_c, 0, 74, 0
1, 169920, Tempo, 428388
1, 169920, Note_on_c, 0, 78, 53
1, 169920, Note_on_c, 0, 74, 45
1, 169920, Note_on_c, 0, 58, 45
1, 170160, Note_on_c, 0, 74, 0
1, 170160, Note_on_c, 0, 78, 0
1, 170160, Note_on_c, 0, 79, 42
1, 170280, Note_on_c, 0, 58, 0
1, 170400, Tempo, 436300
1, 170400, Note_on_c, 0, 79, 0
1, 170400, Note_on_c, 0, 73, 45
1, 170400, Note_on_c, 0, 76, 53
1, 170400, Note_on_c, 0, 58, 41
1, 170520, Note_on_c, 0, 76, 0
1, 170520, Note_on_c, 0, 73, 0
1, 170640, Tempo, 456517
1, 170640, Note_on_c, 0, 76, 45
1, 170640, Note_on_c, 0, 73, 38
1, 170760, Note_on_c, 0, 73, 0
1, 170760, Note_on_c, 0, 76, 0
1, 170760, Note_on_c, 0, 58, 0
1, 170880, Tempo, 428388
1, 170880, Note_on_c, 0, 76, 59
1, 170880, Note_on_c, 0, 73, 50
1, 170880, Note_on_c, 0, 59, 50
1, 171120, Note_on_c, 0, 73, 0
1, 171120, Note_on_c, 0, 76, 0
1, 171120, Note_on_c, 0, 78, 49
1, 171240, Note_on_c, 0, 59, 0
1, 171360, Tempo, 436300
1, 171360, Note_on_c, 0, 78, 0
1, 171360, Note_on_c, 0, 71, 48
1, 171360, Note_on_c, 0, 74, 57
1, 171360, Note_on_c, 0, 59, 46
1, 171480, Note_on_c, 0, 74, 0
1, 171480, Note_on_c, 0, 71, 0
1, 171600, Tempo, 456517
1, 171600, Note_on_c, 0, 74, 48
1, 171600, Note_on_c, 0, 71, 40
1, 171720, Note_on_c, 0, 71, 0
1, 171720, Note_on_c, 0, 74, 0
1, 171720, Note_on_c, 0, 59, 0
1, 171840, Tempo, 428388
1, 171840, Note_on_c, 0, 74, 65
1, 171840, Note_on_c, 0, 71, 55
1, 171840, Note_on_c, 0, 54, 50
1, 171840, Note_on_c, 0, 42, 42
1, 172080, Note_on_c, 0, 71, 0
1, 172080, Note_on_c, 0, 74, 0
1, 172080, Note_on_c, 0, 76, 51
1, 172200, Note_on_c, 0, 54, 0
1, 172200, Note_on_c, 0, 42, 0
1, 172320, Tempo, 436300
1, 172320, Note_on_c, 0, 76, 0
1, 172320, Note_on_c, 0, 72, 60
1, 172320, Note_on_c, 0, 69, 51
1, 172320, Note_on_c, 0, 54, 42
1, 172320, Note_on_c, 0, 42, 35
1, 172440, Note_on_c, 0, 69, 0
1, 172440, Note_on_c, 0, 72, 0
1, 172560, Tempo, 456517
1, 172560, Note_on_c, 0, 69, 41
1, 172560, Note_on_c, 0, 72, 49
1, 172680, Note_on_c, 0, 72, 0
1, 172680, Note_on_c, 0, 42, 0
1, 172680, Note_on_c, 0, 54, 0
1, 172680, Note_on_c, 0, 69, 0
1, 172800, Tempo, 439528
1, 172800, Note_on_c, 0, 71, 68
1, 172800, Note_on_c, 0, 55, 56
1, 172800, Note_on_c, 0, 43, 47
1, 172800, Control_c, 0, 64, 127
1, 172920, Note_on_c, 0, 71, 0
1, 172920, Note_on_c, 0, 62, 50
1, 173040, Note_on_c, 0, 62, 0
1, 173040, Note_on_c, 0, 71, 55
1, 173160, Note_on_c, 0, 71, 0
1, 173160, Note_on_c, 0, 62, 49
1, 173280, Note_on_c, 0, 62, 0
1, 173280, Note_on_c, 0, 43, 0
1, 173280, Note_on_c, 0, 55, 0
1, 173280, Note_on_c, 0, 66, 66
1, 173280, Note_on_c, 0, 60, 53
1, 173280, Note_on_c, 0, 48, 45
1, 173299, Control_c, 0, 64, 0
1, 173400, Note_on_c, 0, 66, 0
1, 173400, Note_on_c, 0, 62, 48
1, 173400, Control_c, 0, 64, 127
1, 173520, Note_on_c, 0, 62, 0
1, 173520, Note_on_c, 0, 66, 53
1, 173640, Note_on_c, 0, 66, 0
1, 173640, Note_on_c, 0, 62, 47
1, 173760, Note_on_c, 0, 62, 0
1, 173760, Note_on_c, 0, 48, 0
1, 173760, Note_on_c, 0, 60, 0
1, 173760, Note_on_c, 0, 67, 63
1, 173760, Note_on_c, 0, 59, 61
1, 173760, Note_on_c, 0, 47, 51
1, 173778, Control_c, 0, 64, 0
1, 173880, Note_on_c, 0, 67, 0
1, 173880, Note_on_c, 0, 62, 48
1, 173880, Control_c, 0, 64, 127
1, 174000, Note_on_c, 0, 62, 0
1, 174000, Note_on_c, 0, 67, 53
1, 174120, Note_on_c, 0, 67, 0
1, 174120, Note_on_c, 0, 62, 48
1, 174219, Tempo, 437892
1, 174240, Note_on_c, 0, 62, 0
1, 174240, Note_on_c, 0, 47, 0
1, 174240, Note_on_c, 0, 59, 0
1, 174240, Note_on_c, 0, 69, 63
1, 174240, Note_on_c, 0, 54, 54
1, 174240, Note_on_c, 0, 42, 45
1, 174256, Control_c, 0, 64, 0
1, 174283, Tempo, 439528
1, 174346, Control_c, 0, 64, 127
1, 174360, Note_on_c, 0, 69, 0
1, 174360, Note_on_c, 0, 62, 47
1, 174379, Tempo, 439528
1, 174475, Tempo, 441176
1, 174480, Note_on_c, 0, 62, 0
1, 174480, Note_on_c, 0, 69, 53
1, 174571, Tempo, 442837
1, 174600, Note_on_c, 0, 69, 0
1, 174600, Note_on_c, 0, 62, 47
1, 174667, Tempo, 444510
1, 174720, Note_on_c, 0, 62, 0
1, 174720, Note_on_c, 0, 42, 0
1, 174720, Note_on_c, 0, 54, 0
1, 174720, Note_on_c, 0, 71, 68
1, 174720, Note_on_c, 0, 55, 56
1, 174720, Note_on_c, 0, 43, 47
1, 174728, Control_c, 0, 64, 0
1, 174731, Tempo, 446163
1, 174795, Control_c, 0, 64, 127
1, 174840, Tempo, 442837
1, 174840, Note_on_c, 0, 71, 0
1, 174840, Note_on_c, 0, 62, 50
1, 174960, Note_on_c, 0, 62, 0
1, 174960, Note_on_c, 0, 71, 55
1, 175080, Note_on_c, 0, 71, 0
1, 175080, Note_on_c, 0, 62, 49
1, 175200, Tempo, 437892
1, 175200, Note_on_c, 0, 62, 0
1, 175200, Note_on_c, 0, 43, 0
1, 175200, Note_on_c, 0, 55, 0
1, 175200, Note_on_c, 0, 67, 66
1, 175200, Note_on_c, 0, 52, 53
1, 175200, Note_on_c, 0, 40, 45
1, 175216, Control_c, 0, 64, 0
1, 175280, Control_c, 0, 64, 127
1, 175320, Note_on_c, 0, 67, 0
1, 175320, Note_on_c, 0, 61, 48
1, 175440, Note_on_c, 0, 61, 0
1, 175440, Note_on_c, 0, 67, 53
1, 175560, Note_on_c, 0, 67, 0
1, 175560, Note_on_c, 0, 61, 47
1, 175680, Tempo, 441176
1, 175680, Note_on_c, 0, 61, 0
1, 175680, Note_on_c, 0, 40, 0
1, 175680, Note_on_c, 0, 52, 0
1, 175680, Note_on_c, 0, 66, 63
1, 175680, Note_on_c, 0, 50, 61
1, 175680, Note_on_c, 0, 38, 51
1, 175695, Control_c, 0, 64, 0
1, 175743, Control_c, 0, 64, 127
1, 175800, Note_on_c, 0, 66, 0
1, 175800, Note_on_c, 0, 62, 48
1, 175920, Note_on_c, 0, 62, 0
1, 175920, Note_on_c, 0, 66, 53
1, 176040, Note_on_c, 0, 66, 0
1, 176040, Note_on_c, 0, 62, 48
1, 176160, Tempo, 446163
1, 176160, Note_on_c, 0, 62, 0
1, 176160, Note_on_c, 0, 38, 0
1, 176160, Note_on_c, 0, 50, 0
1, 176160, Note_on_c, 0, 65, 63
1, 176160, Note_on_c, 0, 44, 54
1, 176160, Note_on_c, 0, 32, 45
1, 176171, Tempo, 442837
1, 176177, Control_c, 0, 64, 0
1, 176235, Tempo, 444510
1, 176246, Control_c, 0, 64, 127
1, 176267, Tempo, 446163
1, 176280, Note_on_c, 0, 65, 0
1, 176280, Note_on_c, 0, 62, 47
1, 176299, Tempo, 447861
1, 176331, Tempo, 449573
1, 176395, Tempo, 451297
1, 176400, Note_on_c, 0, 62, 0
1, 176400, Note_on_c, 0, 65, 53
1, 176427, Tempo, 453035
1, 176459, Tempo, 454752
1, 176491, Tempo, 456517
1, 176520, Note_on_c, 0, 65, 0
1, 176520, Note_on_c, 0, 62, 47
1, 176555, Tempo, 458295
1, 176587, Tempo, 460087
1, 176619, Tempo, 461894
1, 176640, Tempo, 426834
1, 176640, Note_on_c, 0, 62, 0
1, 176640, Note_on_c, 0, 32, 0
1, 176640, Note_on_c, 0, 44, 0
1, 176640, Note_on_c, 0, 64, 70
1, 176640, Note_on_c, 0, 33, 45
1, 176640, Note_on_c, 0, 45, 54
1, 176643, Control_c, 0, 64, 0
1, 176726, Control_c, 0, 64, 127
1, 176760, Note_on_c, 0, 64, 0
1, 176760, Note_on_c, 0, 61, 63
1, 176880, Note_on_c, 0, 61, 0
1, 176880, Note_on_c, 0, 64, 63
1, 177000, Tempo, 461894
1, 177000, Note_on_c, 0, 64, 0
1, 177000, Note_on_c, 0, 61, 63
1, 177120, Tempo, 441176
1, 177120, Note_on_c, 0, 61, 0
1, 177120, Note_on_c, 0, 45, 0
1, 177120, Note_on_c, 0, 33, 0
1, 177120, Note_on_c, 0, 69, 72
1, 177136, Control_c, 0, 64, 0
1, 177240, Note_on_c, 0, 69, 0
1, 177360, Note_on_c, 0, 45, 49
1, 177360, Note_on_c, 0, 33, 41
1, 177480, Note_on_c, 0, 33, 0
1, 177480, Note_on_c, 0, 45, 0
1, 177600, Tempo, 426834
1, 177600, Note_on_c, 0, 65, 69
1, 177600, Note_on_c, 0, 33, 45
1, 177600, Note_on_c, 0, 45, 54
1, 177697, Control_c, 0, 64, 127
1, 177720, Note_on_c, 0, 65, 0
1, 177720, Note_on_c, 0, 62, 63
1, 177840, Note_on_c, 0, 62, 0
1, 177840, Note_on_c, 0, 65, 63
1, 177960, Tempo, 463679
1, 177960, Note_on_c, 0, 65, 0
1, 177960, Note_on_c, 0, 62, 63
1, 178080, Tempo, 441176
1, 178080, Note_on_c, 0, 62, 0
1, 178080, Note_on_c, 0, 45, 0
1, 178080, Note_on_c, 0, 33, 0
1, 178080, Note_on_c, 0, 69, 71
1, 178095, Control_c, 0, 64, 0
1, 178200, Note_on_c, 0, 69, 0
1, 178320, Note_on_c, 0, 45, 48
1, 178320, Note_on_c, 0, 33, 40
1, 178440, Note_on_c, 0, 33, 0
1, 178440, Note_on_c, 0, 45, 0
1, 178560, Tempo, 425291
1, 178560, Note_on_c, 0, 64, 69
1, 178560, Note_on_c, 0, 33, 45
1, 178560, Note_on_c, 0, 45, 54
1, 178663, Control_c, 0, 64, 127
1, 178680, Note_on_c, 0, 64, 0
1, 178680, Note_on_c, 0, 61, 58
1, 178800, Note_on_c, 0, 61, 0
1, 178800, Note_on_c, 0, 64, 58
1, 178920, Tempo, 456517
1, 178920, Note_on_c, 0, 64, 0
1, 178920, Note_on_c, 0, 61, 57
1, 179040, Tempo, 444510
1, 179040, Note_on_c, 0, 61, 0
1, 179040, Note_on_c, 0, 45, 0
1, 179040, Note_on_c, 0, 33, 0
1, 179040, Note_on_c, 0, 69, 66
1, 179057, Control_c, 0, 64, 0
1, 179160, Note_on_c, 0, 69, 0
1, 179280, Note_on_c, 0, 33, 30
1, 179280, Note_on_c, 0, 45, 36
1, 179400, Note_on_c, 0, 45, 0
1, 179400, Note_on_c, 0, 33, 0
1, 179520, Tempo, 436300
1, 179520, Note_on_c, 0, 68, 55
1, 179520, Note_on_c, 0, 45, 41
1, 179520, Note_on_c, 0, 33, 34
1, 179635, Control_c, 0, 64, 127
1, 179640, Note_on_c, 0, 68, 0
1, 179640, Note_on_c, 0, 62, 43
1, 179760, Note_on_c, 0, 62, 0
1, 179760, Note_on_c, 0, 68, 43
1, 179880, Tempo, 490637
1, 179880, Note_on_c, 0, 68, 0
1, 179880, Note_on_c, 0, 62, 43
1, 180000, Tempo, 456517
1, 180000, Note_on_c, 0, 62, 0
1, 180000, Note_on_c, 0, 33, 0
1, 180000, Note_on_c, 0, 45, 0
1, 180000, Note_on_c, 0, 71, 55
1, 180016, Control_c, 0, 64, 0
1, 180120, Note_on_c, 0, 71, 0
1, 180240, Note_on_c, 0, 33, 21
1, 180240, Note_on_c, 0, 45, 25
1, 180360, Tempo, 619259
1, 180360, Note_on_c, 0, 45, 0
1, 180360, Note_on_c, 0, 33, 0
1, 180471, Tempo, 579766
1, 180480, Note_on_c, 0, 67, 41
1, 180480, Note_on_c, 0, 33, 28
1, 180480, Note_on_c, 0, 45, 34
1, 180491, Tempo, 621826
1, 180516, Tempo, 625065
1, 180541, Tempo, 631645
1, 180565, Control_c, 0, 64, 127
1, 180567, Tempo, 634988
1, 180592, Tempo, 641780
1, 180600, Note_on_c, 0, 67, 0
1, 180600, Note_on_c, 0, 64, 34
1, 180617, Tempo, 645231
1, 180642, Tempo, 652245
1, 180668, Tempo, 659413
1, 180693, Tempo, 663057
1, 180718, Tempo, 670466
1, 180720, Note_on_c, 0, 64, 0
1, 180720, Note_on_c, 0, 67, 34
1, 180743, Tempo, 674233
1, 180769, Tempo, 681896
1, 180794, Tempo, 689734
1, 180840, Tempo, 832062
1, 180840, Note_on_c, 0, 67, 0
1, 180840, Note_on_c, 0, 64, 34
1, 180960, Tempo, 498960
1, 180960, Note_on_c, 0, 64, 0
1, 180960, Note_on_c, 0, 73, 39
1, 180976, Control_c, 0, 64, 0
1, 181440, Note_on_c, 0, 73, 0
1, 181440, Note_on_c, 0, 45, 0
1, 181440, Note_on_c, 0, 33, 0
1, 181500, Tempo, 498960
1, 181920, Tempo, 418439
1, 181920, Note_on_c, 0, 71, 50
1, 182040, Note_on_c, 0, 71, 0
1, 182040, Note_on_c, 0, 69, 46
1, 182160, Tempo, 449809
1, 182160, Note_on_c, 0, 69, 0
1, 182160, Note_on_c, 0, 68, 46
1, 182280, Note_on_c, 0, 68, 0
1, 182280, Note_on_c, 0, 69, 46
1, 182400, Tempo, 439915
1, 182400, Note_on_c, 0, 69, 0
1, 182400, Note_on_c, 0, 66, 48
1, 182400, Note_on_c, 0, 74, 55
1, 182400, Note_on_c, 0, 50, 32
1, 182640, Tempo, 435129
1, 182640, Note_on_c, 0, 50, 0
1, 182640, Note_on_c, 0, 57, 26
1, 182880, Tempo, 427381
1, 182880, Note_on_c, 0, 57, 0
1, 182880, Note_on_c, 0, 54, 26
1, 183120, Note_on_c, 0, 54, 0
1, 183120, Note_on_c, 0, 74, 0
1, 183120, Note_on_c, 0, 66, 0
1, 183120, Note_on_c, 0, 69, 42
1, 183120, Note_on_c, 0, 57, 26
1, 183360, Note_on_c, 0, 57, 0
1, 183360, Note_on_c, 0, 69, 0
1, 183360, Note_on_c, 0, 66, 46
1, 183360, Note_on_c, 0, 50, 30
1, 183600, Note_on_c, 0, 50, 0
1, 183600, Note_on_c, 0, 66, 0
1, 183600, Note_on_c, 0, 69, 43
1, 183600, Note_on_c, 0, 57, 28
1, 183840, Note_on_c, 0, 57, 0
1, 183840, Note_on_c, 0, 69, 0
1, 183840, Note_on_c, 0, 74, 46
1, 183840, Note_on_c, 0, 54, 28
1, 184080, Tempo, 458400
1, 184080, Note_on_c, 0, 54, 0
1, 184080, Note_on_c, 0, 74, 0
1, 184080, Note_on_c, 0, 78, 46
1, 184080, Note_on_c, 0, 57, 28
1, 184260, Note_on_c, 0, 78, 0
1, 184260, Note_on_c, 0, 69, 45
1, 184320, Tempo, 427686
1, 184320, Note_on_c, 0, 69, 0
1, 184320, Note_on_c, 0, 57, 0
1, 184320, Note_on_c, 0, 81, 54
1, 184320, Note_on_c, 0, 50, 37
1, 184560, Note_on_c, 0, 50, 0
1, 184560, Note_on_c, 0, 57, 26
1, 184800, Tempo, 433557
1, 184800, Note_on_c, 0, 57, 0
1, 184800, Note_on_c, 0, 54, 26
1, 185040, Tempo, 419903
1, 185040, Note_on_c, 0, 54, 0
1, 185040, Note_on_c, 0, 81, 0
1, 185040, Note_on_c, 0, 78, 40
1, 185040, Note_on_c, 0, 57, 26
1, 185160, Note_on_c, 0, 78, 0
1, 185160, Note_on_c, 0, 74, 40
1, 185280, Tempo, 427381
1, 185280, Note_on_c, 0, 74, 0
1, 185280, Note_on_c, 0, 57, 0
1, 185280, Note_on_c, 0, 69, 47
1, 185280, Note_on_c, 0, 50, 31
1, 185400, Note_on_c, 0, 69, 0
1, 185520, Note_on_c, 0, 50, 0
1, 185520, Note_on_c, 0, 57, 27
1, 185760, Tempo, 416985
1, 185760, Note_on_c, 0, 57, 0
1, 185760, Note_on_c, 0, 74, 45
1, 185760, Note_on_c, 0, 54, 27
1, 185880, Tempo, 418760
1, 185880, Note_on_c, 0, 74, 0
1, 185880, Note_on_c, 0, 76, 40
1, 186000, Note_on_c, 0, 76, 0
1, 186000, Note_on_c, 0, 54, 0
1, 186000, Note_on_c, 0, 74, 40
1, 186000, Note_on_c, 0, 57, 27
1, 186120, Note_on_c, 0, 74, 0
1, 186120, Note_on_c, 0, 73, 41
1, 186240, Tempo, 433557
1, 186240, Note_on_c, 0, 73, 0
1, 186240, Note_on_c, 0, 57, 0
1, 186240, Note_on_c, 0, 71, 48
1, 186240, Note_on_c, 0, 50, 32
1, 186360, Note_on_c, 0, 71, 0
1, 186480, Note_on_c, 0, 50, 0
1, 186480, Note_on_c, 0, 59, 26
1, 186720, Tempo, 419903
1, 186720, Note_on_c, 0, 59, 0
1, 186720, Note_on_c, 0, 74, 45
1, 186720, Note_on_c, 0, 55, 26
1, 186840, Note_on_c, 0, 74, 0
1, 186840, Note_on_c, 0, 76, 39
1, 186960, Note_on_c, 0, 76, 0
1, 186960, Note_on_c, 0, 55, 0
1, 186960, Note_on_c, 0, 74, 40
1, 186960, Note_on_c, 0, 59, 26
1, 187080, Note_on_c, 0, 74, 0
1, 187080, Note_on_c, 0, 73, 41
1, 187200, Tempo, 431997
1, 187200, Note_on_c, 0, 73, 0
1, 187200, Note_on_c, 0, 59, 0
1, 187200, Note_on_c, 0, 71, 46
1, 187200, Note_on_c, 0, 50, 31
1, 187320, Note_on_c, 0, 71, 0
1, 187440, Note_on_c, 0, 50, 0
1, 187440, Note_on_c, 0, 59, 27
1, 187680, Note_on_c, 0, 59, 0
1, 187680, Note_on_c, 0, 86, 48
1, 187680, Note_on_c, 0, 55, 27
1, 187800, Tempo, 424358
1, 187800, Note_on_c, 0, 86, 0
1, 187800, Note_on_c, 0, 83, 40
1, 187920, Note_on_c, 0, 83, 0
1, 187920, Note_on_c, 0, 55, 0
1, 187920, Note_on_c, 0, 86, 44
1, 187920, Note_on_c, 0, 59, 27
1, 188040, Note_on_c, 0, 86, 0
1, 188040, Note_on_c, 0, 83, 40
1, 188160, Note_on_c, 0, 83, 0
1, 188160, Note_on_c, 0, 59, 0
1, 188160, Note_on_c, 0, 81, 50
1, 188160, Note_on_c, 0, 50, 37
1, 188280, Tempo, 427381
1, 188280, Note_on_c, 0, 81, 0
1, 188280, Note_on_c, 0, 86, 51
1, 188400, Note_on_c, 0, 86, 0
1, 188400, Note_on_c, 0, 50, 0
1, 188400, Note_on_c, 0, 85, 48
1, 188400, Note_on_c, 0, 57, 26
1, 188520, Note_on_c, 0, 85, 0
1, 188520, Note_on_c, 0, 83, 46
1, 188560, Tempo, 425864
1, 188581, Tempo, 424689
1, 188621, Tempo, 426197
1, 188640, Note_on_c, 0, 83, 0
1, 188640, Note_on_c, 0, 57, 0
1, 188640, Note_on_c, 0, 81, 48
1, 188640, Note_on_c, 0, 54, 26
1, 188661, Tempo, 429246
1, 188701, Tempo, 432339
1, 188741, Tempo, 435477
1, 188760, Note_on_c, 0, 81, 0
1, 188760, Note_on_c, 0, 79, 43
1, 188781, Tempo, 438661
1, 188800, Tempo, 431997
1, 188840, Tempo, 433557
1, 188880, Tempo, 482781
1, 188880, Note_on_c, 0, 79, 0
1, 188880, Note_on_c, 0, 54, 0
1, 188880, Note_on_c, 0, 78, 43
1, 188880, Note_on_c, 0, 57, 26
1, 189000, Note_on_c, 0, 78, 0
1, 189000, Note_on_c, 0, 76, 42
1, 189120, Tempo, 431997
1, 189120, Note_on_c, 0, 76, 0
1, 189120, Note_on_c, 0, 57, 0
1, 189120, Note_on_c, 0, 74, 48
1, 189120, Note_on_c, 0, 54, 31
1, 189360, Note_on_c, 0, 54, 0
1, 189360, Note_on_c, 0, 57, 21
1, 189600, Note_on_c, 0, 57, 0
1, 189600, Note_on_c, 0, 74, 0
1, 189600, Note_on_c, 0, 50, 22
1, 189840, Note_on_c, 0, 50, 0
1, 189840, Note_on_c, 0, 66, 41
1, 189840, Note_on_c, 0, 57, 22
1, 190080, Tempo, 436713
1, 190080, Note_on_c, 0, 57, 0
1, 190080, Note_on_c, 0, 66, 0
1, 190080, Note_on_c, 0, 67, 46
1, 190080, Note_on_c, 0, 49, 29
1, 190200, Note_on_c, 0, 67, 0
1, 190320, Note_on_c, 0, 49, 0
1, 190320, Note_on_c, 0, 67, 41
1, 190320, Note_on_c, 0, 57, 24
1, 190440, Tempo, 425864
1, 190440, Note_on_c, 0, 67, 0
1, 190560, Note_on_c, 0, 57, 0
1, 190560, Note_on_c, 0, 69, 50
1, 190560, Note_on_c, 0, 52, 24
1, 190680, Note_on_c, 0, 69, 0
1, 190680, Note_on_c, 0, 67, 41
1, 190800, Tempo, 458400
1, 190800, Note_on_c, 0, 67, 0
1, 190800, Note_on_c, 0, 52, 0
1, 190800, Note_on_c, 0, 66, 42
1, 190800, Note_on_c, 0, 57, 24
1, 190920, Note_on_c, 0, 66, 0
1, 190920, Note_on_c, 0, 67, 48
1, 191040, Tempo, 431997
1, 191040, Note_on_c, 0, 67, 0
1, 191040, Note_on_c, 0, 57, 0
1, 191040, Note_on_c, 0, 76, 56
1, 191040, Note_on_c, 0, 49, 31
1, 191280, Note_on_c, 0, 49, 0
1, 191280, Note_on_c, 0, 57, 27
1, 191520, Note_on_c, 0, 57, 0
1, 191520, Note_on_c, 0, 52, 27
1, 191760, Note_on_c, 0, 52, 0
1, 191760, Note_on_c, 0, 76, 0
1, 191760, Note_on_c, 0, 67, 40
1, 191760, Note_on_c, 0, 57, 27
1, 192000, Tempo, 436713
1, 192000, Note_on_c, 0, 57, 0
1, 192000, Note_on_c, 0, 67, 0
1, 192000, Note_on_c, 0, 66, 46
1, 192000, Note_on_c, 0, 50, 32
1, 192120, Note_on_c, 0, 66, 0
1, 192240, Note_on_c, 0, 50, 0
1, 192240, Note_on_c, 0, 66, 40
1, 192240, Note_on_c, 0, 57, 23
1, 192360, Note_on_c, 0, 66, 0
1, 192480, Tempo, 428908
1, 192480, Note_on_c, 0, 57, 0
1, 192480, Note_on_c, 0, 67, 50
1, 192480, Note_on_c, 0, 54, 23
1, 192600, Note_on_c, 0, 67, 0
1, 192600, Note_on_c, 0, 66, 40
1, 192720, Tempo, 454925
1, 192720, Note_on_c, 0, 66, 0
1, 192720, Note_on_c, 0, 54, 0
1, 192720, Note_on_c, 0, 64, 46
1, 192720, Note_on_c, 0, 57, 23
1, 192840, Note_on_c, 0, 64, 0
1, 192840, Note_on_c, 0, 66, 48
1, 192960, Tempo, 431997
1, 192960, Note_on_c, 0, 66, 0
1, 192960, Note_on_c, 0, 57, 0
1, 192960, Note_on_c, 0, 74, 56
1, 192960, Note_on_c, 0, 50, 31
1, 193200, Note_on_c, 0, 50, 0
1, 193200, Note_on_c, 0, 57, 27
1, 193440, Note_on_c, 0, 57, 0
1, 193440, Note_on_c, 0, 54, 27
1, 193680, Note_on_c, 0, 54, 0
1, 193680, Note_on_c, 0, 74, 0
1, 193680, Note_on_c, 0, 66, 40
1, 193680, Note_on_c, 0, 57, 27
1, 193920, Tempo, 438308
1, 193920, Note_on_c, 0, 57, 0
1, 193920, Note_on_c, 0, 66, 0
1, 193920, Note_on_c, 0, 66, 47
1, 193920, Note_on_c, 0, 43, 32
1, 193920, Note_on_c, 0, 55, 32
1, 194160, Note_on_c, 0, 66, 0
1, 194160, Note_on_c, 0, 64, 37
1, 194400, Note_on_c, 0, 64, 0
1, 194400, Note_on_c, 0, 67, 40
1, 194640, Tempo, 453206
1, 194640, Note_on_c, 0, 67, 0
1, 194640, Note_on_c, 0, 71, 37
1, 194880, Tempo, 433557
1, 194880, Note_on_c, 0, 71, 0
1, 194880, Note_on_c, 0, 55, 0
1, 194880, Note_on_c, 0, 43, 0
1, 194880, Note_on_c, 0, 71, 45
1, 194880, Note_on_c, 0, 45, 32
1, 194880, Note_on_c, 0, 57, 32
1, 195120, Note_on_c, 0, 71, 0
1, 195120, Note_on_c, 0, 61, 37
1, 195360, Tempo, 436713
1, 195360, Note_on_c, 0, 61, 0
1, 195360, Note_on_c, 0, 64, 40
1, 195600, Tempo, 469153
1, 195600, Note_on_c, 0, 64, 0
1, 195600, Note_on_c, 0, 69, 37
1, 195840, Tempo, 439915
1, 195840, Note_on_c, 0, 69, 0
1, 195840, Note_on_c, 0, 57, 0
1, 195840, Note_on_c, 0, 45, 0
1, 195840, Note_on_c, 0, 67, 45
1, 195840, Note_on_c, 0, 64, 45
1, 196080, Note_on_c, 0, 38, 31
1, 196320, Note_on_c, 0, 38, 0
1, 196320, Note_on_c, 0, 42, 32
1, 196560, Tempo, 446462
1, 196560, Note_on_c, 0, 42, 0
1, 196560, Note_on_c, 0, 45, 34
1, 196800, Note_on_c, 0, 45, 0
1, 196800, Note_on_c, 0, 64, 0
1, 196800, Note_on_c, 0, 67, 0
1, 196800, Note_on_c, 0, 62, 40
1, 196800, Note_on_c, 0, 66, 40
1, 196800, Note_on_c, 0, 50, 36
1, 196920, Tempo, 438308
1, 197040, Note_on_c, 0, 50, 0
1, 197040, Note_on_c, 0, 45, 31
1, 197280, Note_on_c, 0, 45, 0
1, 197280, Note_on_c, 0, 66, 0
1, 197280, Note_on_c, 0, 62, 0
1, 197280, Note_on_c, 0, 38, 32
1, 197520, Note_on_c, 0, 38, 0
1, 197520, Note_on_c, 0, 66, 40
1, 197520, Note_on_c, 0, 50, 31
1, 197720, Tempo, 436713
1, 197760, Note_on_c, 0, 50, 0
1, 197760, Note_on_c, 0, 66, 0
1, 197760, Note_on_c, 0, 67, 46
1, 197760, Note_on_c, 0, 49, 43
1, 197840, Tempo, 435129
1, 197880, Note_on_c, 0, 67, 0
1, 197880, Note_on_c, 0, 64, 37
1, 197960, Tempo, 433557
1, 198000, Note_on_c, 0, 64, 0
1, 198000, Note_on_c, 0, 49, 0
1, 198000, Note_on_c, 0, 66, 38
1, 198000, Note_on_c, 0, 57, 36
1, 198080, Tempo, 431997
1, 198120, Note_on_c, 0, 66, 0
1, 198120, Note_on_c, 0, 67, 39
1, 198200, Tempo, 430447
1, 198240, Note_on_c, 0, 67, 0
1, 198240, Note_on_c, 0, 57, 0
1, 198240, Note_on_c, 0, 69, 46
1, 198240, Note_on_c, 0, 52, 40
1, 198320, Tempo, 428908
1, 198360, Note_on_c, 0, 69, 0
1, 198360, Note_on_c, 0, 71, 39
1, 198400, Tempo, 427381
1, 198480, Note_on_c, 0, 71, 0
1, 198480, Note_on_c, 0, 52, 0
1, 198480, Note_on_c, 0, 73, 39
1, 198480, Note_on_c, 0, 57, 36
1, 198520, Tempo, 424358
1, 198600, Note_on_c, 0, 73, 0
1, 198600, Note_on_c, 0, 74, 40
1, 198720, Note_on_c, 0, 74, 0
1, 198720, Note_on_c, 0, 57, 0
1, 198720, Note_on_c, 0, 76, 48
1, 198720, Note_on_c, 0, 49, 46
1, 198840, Note_on_c, 0, 76, 0
1, 198840, Note_on_c, 0, 74, 40
1, 198960, Note_on_c, 0, 74, 0
1, 198960, Note_on_c, 0, 49, 0
1, 198960, Note_on_c, 0, 73, 41
1, 198960, Note_on_c, 0, 57, 36
1, 199080, Note_on_c, 0, 73, 0
1, 199080, Note_on_c, 0, 71, 42
1, 199200, Note_on_c, 0, 71, 0
1, 199200, Note_on_c, 0, 57, 0
1, 199200, Note_on_c, 0, 69, 48
1, 199200, Note_on_c, 0, 52, 39
1, 199320, Note_on_c, 0, 69, 0
1, 199320, Note_on_c, 0, 67, 41
1, 199440, Tempo, 469153
1, 199440, Note_on_c, 0, 67, 0
1, 199440, Note_on_c, 0, 52, 0
1, 199440, Note_on_c, 0, 66, 41
1, 199440, Note_on_c, 0, 57, 36
1, 199560, Note_on_c, 0, 66, 0
1, 199560, Note_on_c, 0, 64, 41
1, 199680, Tempo, 430447
1, 199680, Note_on_c, 0, 64, 0
1, 199680, Note_on_c, 0, 57, 0
1, 199680, Note_on_c, 0, 66, 49
1, 199680, Note_on_c, 0, 50, 47
1, 199800, Note_on_c, 0, 66, 0
1, 199800, Note_on_c, 0, 62, 40
1, 199920, Note_on_c, 0, 62, 0
1, 199920, Note_on_c, 0, 50, 0
1, 199920, Note_on_c, 0, 64, 40
1, 199920, Note_on_c, 0, 57, 36
1, 200040, Note_on_c, 0, 64, 0
1, 200040, Note_on_c, 0, 66, 42
1, 200160, Note_on_c, 0, 66, 0
1, 200160, Note_on_c, 0, 57, 0
1, 200160, Note_on_c, 0, 67, 51
1, 200160, Note_on_c, 0, 54, 41
1, 200280, Note_on_c, 0, 67, 0
1, 200280, Note_on_c, 0, 69, 42
1, 200400, Note_on_c, 0, 69, 0
1, 200400, Note_on_c, 0, 54, 0
1, 200400, Note_on_c, 0, 71, 44
1, 200400, Note_on_c, 0, 57, 36
1, 200520, Note_on_c, 0, 71, 0
1, 200520, Note_on_c, 0, 73, 46
1, 200640, Tempo, 431997
1, 200640, Note_on_c, 0, 73, 0
1, 200640, Note_on_c, 0, 57, 0
1, 200640, Note_on_c, 0, 74, 57
1, 200640, Note_on_c, 0, 50, 48
1, 200704, Tempo, 433557
1, 200736, Tempo, 435129
1, 200760, Note_on_c, 0, 74, 0
1, 200760, Note_on_c, 0, 76, 47
1, 200768, Tempo, 436713
1, 200800, Tempo, 438308
1, 200832, Tempo, 439915
1, 200864, Tempo, 441534
1, 200880, Note_on_c, 0, 76, 0
1, 200880, Note_on_c, 0, 50, 0
1, 200880, Note_on_c, 0, 78, 49
1, 200880, Note_on_c, 0, 57, 40
1, 200928, Tempo, 443164
1, 200960, Tempo, 444807
1, 200992, Tempo, 446462
1, 201000, Note_on_c, 0, 78, 0
1, 201000, Note_on_c, 0, 79, 48
1, 201024, Tempo, 448129
1, 201056, Tempo, 449809
1, 201088, Tempo, 451501
1, 201120, Note_on_c, 0, 79, 0
1, 201120, Note_on_c, 0, 57, 0
1, 201120, Note_on_c, 0, 81, 57
1, 201120, Note_on_c, 0, 54, 45
1, 201152, Tempo, 453206
1, 201184, Tempo, 454925
1, 201216, Tempo, 456656
1, 201240, Note_on_c, 0, 81, 0
1, 201240, Note_on_c, 0, 83, 57
1, 201248, Tempo, 458400
1, 201280, Tempo, 460158
1, 201312, Tempo, 461929
1, 201360, Note_on_c, 0, 83, 0
1, 201360, Note_on_c, 0, 54, 0
1, 201360, Note_on_c, 0, 85, 64
1, 201360, Note_on_c, 0, 57, 43
1, 201376, Tempo, 463714
1, 201408, Tempo, 465513
1, 201440, Tempo, 467326
1, 201472, Tempo, 469153
1, 201480, Note_on_c, 0, 85, 0
1, 201480, Note_on_c, 0, 86, 69
1, 201504, Tempo, 470995
1, 201536, Tempo, 472851
1, 201568, Tempo, 474721
1, 201600, Tempo, 476607
1, 201600, Note_on_c, 0, 86, 0
1, 201600, Note_on_c, 0, 57, 0
1, 201600, Note_on_c, 0, 55, 58
1, 201600, Note_on_c, 0, 43, 49
1, 201720, Note_on_c, 0, 71, 54
1, 201840, Tempo, 428908
1, 201840, Note_on_c, 0, 71, 0
1, 201840, Note_on_c, 0, 76, 55
1, 201888, Tempo, 441534
1, 201920, Tempo, 439915
1, 201952, Tempo, 438308
1, 201960, Note_on_c, 0, 76, 0
1, 201960, Note_on_c, 0, 79, 61
1, 201984, Tempo, 436713
1, 202016, Tempo, 435129
1, 202048, Tempo, 433557
1, 202080, Tempo, 431997
1, 202080, Note_on_c, 0, 79, 0
1, 202080, Note_on_c, 0, 83, 65
1, 202112, Tempo, 430447
1, 202144, Tempo, 428908
1, 202176, Tempo, 427381
1, 202200, Note_on_c, 0, 83, 0
1, 202200, Note_on_c, 0, 81, 59
1, 202320, Note_on_c, 0, 81, 0
1, 202320, Note_on_c, 0, 79, 59
1, 202440, Note_on_c, 0, 79, 0
1, 202440, Note_on_c, 0, 78, 55
1, 202560, Note_on_c, 0, 78, 0
1, 202560, Note_on_c, 0, 43, 0
1, 202560, Note_on_c, 0, 55, 0
1, 202560, Note_on_c, 0, 76, 54
1, 202560, Note_on_c, 0, 45, 41
1, 202560, Note_on_c, 0, 57, 49
1, 202680, Note_on_c, 0, 76, 0
1, 202680, Note_on_c, 0, 74, 53
1, 202688, Tempo, 427381
1, 202784, Tempo, 428908
1, 202800, Note_on_c, 0, 74, 0
1, 202800, Note_on_c, 0, 73, 51
1, 202880, Tempo, 430447
1, 202920, Note_on_c, 0, 73, 0
1, 202920, Note_on_c, 0, 71, 51
1, 202976, Tempo, 431997
1, 203040, Tempo, 433557
1, 203040, Note_on_c, 0, 71, 0
1, 203040, Note_on_c, 0, 57, 0
1, 203040, Note_on_c, 0, 45, 0
1, 203040, Note_on_c, 0, 69, 55
1, 203040, Note_on_c, 0, 45, 38
1, 203040, Note_on_c, 0, 57, 45
1, 203136, Tempo, 435129
1, 203160, Note_on_c, 0, 69, 0
1, 203160, Note_on_c, 0, 67, 60
1, 203232, Tempo, 436713
1, 203280, Note_on_c, 0, 67, 0
1, 203280, Note_on_c, 0, 66, 63
1, 203296, Tempo, 438308
1, 203392, Tempo, 439915
1, 203400, Note_on_c, 0, 66, 0
1, 203400, Note_on_c, 0, 64, 65
1, 203520, Tempo, 427381
1, 203520, Note_on_c, 0, 64, 0
1, 203520, Note_on_c, 0, 57, 0
1, 203520, Note_on_c, 0, 45, 0
1, 203520, Note_on_c, 0, 62, 78
1, 203520, Note_on_c, 0, 38, 63
1, 203760, Note_on_c, 0, 38, 0
1, 203760, Note_on_c, 0, 42, 50
1, 204000, Tempo, 435129
1, 204000, Note_on_c, 0, 42, 0
1, 204000, Note_on_c, 0, 45, 56
1, 204240, Tempo, 427381
1, 204240, Note_on_c, 0, 45, 0
1, 204240, Note_on_c, 0, 62, 0
1, 204240, Note_on_c, 0, 62, 61
1, 204240, Note_on_c, 0, 50, 50
1, 204480, Note_on_c, 0, 50, 0
1, 204480, Note_on_c, 0, 62, 0
1, 204480, Note_on_c, 0, 61, 65
1, 204480, Note_on_c, 0, 38, 46
1, 204720, Note_on_c, 0, 38, 0
1, 204720, Note_on_c, 0, 61, 0
1, 204720, Note_on_c, 0, 62, 63
1, 204720, Note_on_c, 0, 50, 36
1, 204960, Note_on_c, 0, 50, 0
1, 204960, Note_on_c, 0, 62, 0
1, 204960, Note_on_c, 0, 60, 65
1, 204960, Note_on_c, 0, 38, 40
1, 205200, Tempo, 439915
1, 205200, Note_on_c, 0, 38, 0
1, 205200, Note_on_c, 0, 60, 0
1, 205200, Note_on_c, 0, 66, 62
1, 205200, Note_on_c, 0, 50, 36
1, 205440, Tempo, 425864
1, 205440, Note_on_c, 0, 50, 0
1, 205440, Note_on_c, 0, 66, 0
1, 205440, Note_on_c, 0, 59, 65
1, 205440, Note_on_c, 0, 38, 46
1, 205680, Note_on_c, 0, 38, 0
1, 205680, Note_on_c, 0, 59, 0
1, 205680, Note_on_c, 0, 67, 63
1, 205680, Note_on_c, 0, 50, 30
1, 205920, Tempo, 418439
1, 205920, Note_on_c, 0, 50, 0
1, 205920, Note_on_c, 0, 67, 0
1, 205920, Note_on_c, 0, 69, 65
1, 205920, Note_on_c, 0, 38, 36
1, 206040, Note_on_c, 0, 69, 0
1, 206040, Note_on_c, 0, 67, 62
1, 206160, Note_on_c, 0, 67, 0
1, 206160, Note_on_c, 0, 38, 0
1, 206160, Note_on_c, 0, 66, 62
1, 206160, Note_on_c, 0, 50, 31
1, 206280, Note_on_c, 0, 66, 0
1, 206280, Note_on_c, 0, 67, 62
1, 206400, Tempo, 433557
1, 206400, Note_on_c, 0, 67, 0
1, 206400, Note_on_c, 0, 50, 0
1, 206400, Note_on_c, 0, 71, 71
1, 206400, Note_on_c, 0, 38, 46
1, 206640, Note_on_c, 0, 38, 0
1, 206640, Note_on_c, 0, 71, 0
1, 206640, Note_on_c, 0, 67, 65
1, 206640, Note_on_c, 0, 50, 33
1, 206880, Note_on_c, 0, 50, 0
1, 206880, Note_on_c, 0, 67, 0
1, 206880, Note_on_c, 0, 64, 70
1, 206880, Note_on_c, 0, 38, 38
1, 207120, Tempo, 474721
1, 207120, Note_on_c, 0, 38, 0
1, 207120, Note_on_c, 0, 64, 0
1, 207120, Note_on_c, 0, 73, 68
1, 207120, Note_on_c, 0, 50, 32
1, 207360, Tempo, 427381
1, 207360, Note_on_c, 0, 50, 0
1, 207360, Note_on_c, 0, 73, 0
1, 207360, Note_on_c, 0, 66, 73
1, 207360, Note_on_c, 0, 74, 82
1, 207360, Note_on_c, 0, 38, 63
1, 207600, Note_on_c, 0, 38, 0
1, 207600, Note_on_c, 0, 42, 50
1, 207840, Tempo, 435129
1, 207840, Note_on_c, 0, 42, 0
1, 207840, Note_on_c, 0, 45, 56
1, 208080, Tempo, 427381
1, 208080, Note_on_c, 0, 45, 0
1, 208080, Note_on_c, 0, 74, 0
1, 208080, Note_on_c, 0, 66, 0
1, 208080, Note_on_c, 0, 74, 67
1, 208080, Note_on_c, 0, 50, 50
1, 208320, Note_on_c, 0, 50, 0
1, 208320, Note_on_c, 0, 74, 0
1, 208320, Note_on_c, 0, 73, 71
1, 208320, Note_on_c, 0, 38, 46
1, 208560, Note_on_c, 0, 38, 0
1, 208560, Note_on_c, 0, 73, 0
1, 208560, Note_on_c, 0, 74, 69
1, 208560, Note_on_c, 0, 50, 32
1, 208800, Note_on_c, 0, 50, 0
1, 208800, Note_on_c, 0, 74, 0
1, 208800, Note_on_c, 0, 72, 71
1, 208800, Note_on_c, 0, 38, 37
1, 209040, Tempo, 439915
1, 209040, Note_on_c, 0, 38, 0
1, 209040, Note_on_c, 0, 72, 0
1, 209040, Note_on_c, 0, 78, 68
1, 209040, Note_on_c, 0, 50, 33
1, 209280, Tempo, 425864
1, 209280, Note_on_c, 0, 50, 0
1, 209280, Note_on_c, 0, 78, 0
1, 209280, Note_on_c, 0, 71, 71
1, 209280, Note_on_c, 0, 38, 46
1, 209400, Note_on_c, 0, 71, 0
1, 209400, Note_on_c, 0, 79, 64
1, 209520, Note_on_c, 0, 79, 0
1, 209520, Note_on_c, 0, 38, 0
1, 209520, Note_on_c, 0, 78, 69
1, 209520, Note_on_c, 0, 50, 31
1, 209640, Note_on_c, 0, 78, 0
1, 209640, Note_on_c, 0, 79, 65
1, 209760, Tempo, 418439
1, 209760, Note_on_c, 0, 79, 0
1, 209760, Note_on_c, 0, 50, 0
1, 209760, Note_on_c, 0, 81, 71
1, 209760, Note_on_c, 0, 38, 36
1, 209880, Note_on_c, 0, 81, 0
1, 209880, Note_on_c, 0, 79, 68
1, 210000, Note_on_c, 0, 79, 0
1, 210000, Note_on_c, 0, 38, 0
1, 210000, Note_on_c, 0, 78, 68
1, 210000, Note_on_c, 0, 50, 30
1, 210120, Note_on_c, 0, 78, 0
1, 210120, Note_on_c, 0, 79, 68
1, 210240, Tempo, 424628
1, 210240, Note_on_c, 0, 79, 0
1, 210240, Note_on_c, 0, 50, 0
1, 210240, Note_on_c, 0, 83, 78
1, 210240, Note_on_c, 0, 38, 46
1, 210480, Note_on_c, 0, 38, 0
1, 210480, Note_on_c, 0, 83, 0
1, 210480, Note_on_c, 0, 79, 71
1, 210480, Note_on_c, 0, 50, 31
1, 210720, Note_on_c, 0, 50, 0
1, 210720, Note_on_c, 0, 79, 0
1, 210720, Note_on_c, 0, 76, 77
1, 210720, Note_on_c, 0, 38, 37
1, 210960, Tempo, 442282
1, 210960, Note_on_c, 0, 38, 0
1, 210960, Note_on_c, 0, 76, 0
1, 210960, Note_on_c, 0, 85, 71
1, 210960, Note_on_c, 0, 50, 35
1, 211200, Tempo, 417072
1, 211200, Note_on_c, 0, 50, 0
1, 211200, Note_on_c, 0, 85, 0
1, 211200, Note_on_c, 0, 86, 88
1, 211200, Note_on_c, 0, 38, 63
1, 211237, Tempo, 423101
1, 211320, Note_on_c, 0, 86, 0
1, 211320, Note_on_c, 0, 74, 64
1, 211397, Tempo, 421585
1, 211440, Note_on_c, 0, 74, 0
1, 211440, Note_on_c, 0, 38, 0
1, 211440, Note_on_c, 0, 76, 64
1, 211440, Note_on_c, 0, 50, 36
1, 211557, Tempo, 420080
1, 211560, Note_on_c, 0, 76, 0
1, 211560, Note_on_c, 0, 78, 64
1, 211680, Note_on_c, 0, 78, 0
1, 211680, Note_on_c, 0, 50, 0
1, 211680, Note_on_c, 0, 79, 64
1, 211680, Note_on_c, 0, 38, 45
1, 211717, Tempo, 418556
1, 211800, Note_on_c, 0, 79, 0
1, 211800, Note_on_c, 0, 81, 67
1, 211877, Tempo, 417072
1, 211920, Note_on_c, 0, 81, 0
1, 211920, Note_on_c, 0, 38, 0
1, 211920, Note_on_c, 0, 83, 68
1, 211920, Note_on_c, 0, 50, 35
1, 212037, Tempo, 415599
1, 212040, Tempo, 443951
1, 212040, Note_on_c, 0, 83, 0
1, 212040, Note_on_c, 0, 85, 70
1, 212160, Tempo, 423101
1, 212160, Note_on_c, 0, 85, 0
1, 212160, Note_on_c, 0, 50, 0
1, 212160, Note_on_c, 0, 86, 82
1, 212160, Note_on_c, 0, 37, 49
1, 212280, Note_on_c, 0, 86, 0
1, 212280, Note_on_c, 0, 74, 71
1, 212360, Tempo, 424628
1, 212400, Note_on_c, 0, 74, 0
1, 212400, Note_on_c, 0, 37, 0
1, 212400, Note_on_c, 0, 76, 71
1, 212400, Note_on_c, 0, 49, 36
1, 212460, Tempo, 423101
1, 212520, Note_on_c, 0, 76, 0
1, 212520, Note_on_c, 0, 78, 71
1, 212560, Tempo, 421585
1, 212640, Note_on_c, 0, 78, 0
1, 212640, Note_on_c, 0, 49, 0
1, 212640, Note_on_c, 0, 79, 71
1, 212640, Note_on_c, 0, 37, 43
1, 212660, Tempo, 420080
1, 212760, Tempo, 418556
1, 212760, Note_on_c, 0, 79, 0
1, 212760, Note_on_c, 0, 81, 71
1, 212860, Tempo, 417072
1, 212880, Note_on_c, 0, 81, 0
1, 212880, Note_on_c, 0, 37, 0
1, 212880, Note_on_c, 0, 83, 73
1, 212880, Note_on_c, 0, 49, 36
1, 212960, Tempo, 415599
1, 213000, Tempo, 480808
1, 213000, Note_on_c, 0, 83, 0
1, 213000, Note_on_c, 0, 85, 77
1, 213120, Tempo, 423101
1, 213120, Note_on_c, 0, 85, 0
1, 213120, Note_on_c, 0, 49, 0
1, 213120, Note_on_c, 0, 86, 82
1, 213120, Note_on_c, 0, 35, 65
1, 213240, Note_on_c, 0, 86, 0
1, 213240, Note_on_c, 0, 74, 71
1, 213320, Tempo, 424628
1, 213360, Note_on_c, 0, 74, 0
1, 213360, Note_on_c, 0, 35, 0
1, 213360, Note_on_c, 0, 76, 71
1, 213360, Note_on_c, 0, 47, 38
1, 213420, Tempo, 423101
1, 213480, Note_on_c, 0, 76, 0
1, 213480, Note_on_c, 0, 78, 71
1, 213520, Tempo, 421585
1, 213600, Note_on_c, 0, 78, 0
1, 213600, Note_on_c, 0, 47, 0
1, 213600, Note_on_c, 0, 79, 71
1, 213600, Note_on_c, 0, 35, 48
1, 213620, Tempo, 420080
1, 213720, Tempo, 418556
1, 213720, Note_on_c, 0, 79, 0
1, 213720, Note_on_c, 0, 81, 71
1, 213820, Tempo, 417072
1, 213840, Tempo, 478889
1, 213840, Note_on_c, 0, 81, 0
1, 213840, Note_on_c, 0, 35, 0
1, 213840, Note_on_c, 0, 83, 73
1, 213840, Note_on_c, 0, 47, 41
1, 213960, Tempo, 451841
1, 213960, Note_on_c, 0, 83, 0
1, 213960, Note_on_c, 0, 85, 77
1, 214080, Note_on_c, 0, 85, 0
1, 214080, Note_on_c, 0, 47, 0
1, 214080, Note_on_c, 0, 86, 89
1, 214080, Note_on_c, 0, 32, 66
1, 214320, Note_on_c, 0, 32, 0
1, 214320, Note_on_c, 0, 86, 0
1, 214320, Note_on_c, 0, 74, 76
1, 214320, Note_on_c, 0, 44, 45
1, 214560, Tempo, 424628
1, 214560, Note_on_c, 0, 44, 0
1, 214560, Note_on_c, 0, 74, 0
1, 214560, Note_on_c, 0, 76, 86
1, 214560, Note_on_c, 0, 32, 56
1, 214680, Note_on_c, 0, 76, 0
1, 214680, Note_on_c, 0, 74, 71
1, 214800, Note_on_c, 0, 74, 0
1, 214800, Note_on_c, 0, 32, 0
1, 214800, Note_on_c, 0, 73, 75
1, 214800, Note_on_c, 0, 44, 45
1, 214920, Tempo, 472627
1, 214920, Note_on_c, 0, 73, 0
1, 214920, Note_on_c, 0, 74, 77
1, 215040, Tempo, 461432
1, 215040, Note_on_c, 0, 74, 0
1, 215040, Note_on_c, 0, 44, 0
1, 215040, Note_on_c, 0, 73, 69
1, 215040, Note_on_c, 0, 76, 69
1, 215040, Note_on_c, 0, 81, 82
1, 215040, Note_on_c, 0, 45, 75
1, 215040, Note_on_c, 0, 33, 75
1, 215160, Note_on_c, 0, 33, 0
1, 215160, Note_on_c, 0, 81, 0
1, 215160, Note_on_c, 0, 73, 0
1, 215160, Note_on_c, 0, 76, 0
1, 215160, Note_on_c, 0, 45, 0
1, 215520, Tempo, 454305
1, 215520, Note_on_c, 0, 73, 56
1, 215520, Note_on_c, 0, 76, 56
1, 215520, Note_on_c, 0, 81, 67
1, 215520, Note_on_c, 0, 45, 49
1, 215520, Note_on_c, 0, 57, 59
1, 215640, Note_on_c, 0, 57, 0
1, 215640, Note_on_c, 0, 81, 0
1, 215640, Note_on_c, 0, 73, 0
1, 215640, Note_on_c, 0, 76, 0
1, 215640, Note_on_c, 0, 45, 0
1, 216000, Tempo, 507442
1, 216000, Note_on_c, 0, 81, 69
1, 216000, Note_on_c, 0, 76, 59
1, 216000, Note_on_c, 0, 73, 59
1, 216000, Note_on_c, 0, 45, 49
1, 216000, Note_on_c, 0, 57, 59
1, 216120, Note_on_c, 0, 57, 0
1, 216120, Note_on_c, 0, 73, 0
1, 216120, Note_on_c, 0, 81, 0
1, 216120, Note_on_c, 0, 76, 0
1, 216120, Note_on_c, 0, 45, 0
1, 216480, Tempo, 454305
1, 216480, Note_on_c, 0, 79, 50
1, 216720, Note_on_c, 0, 79, 0
1, 216720, Note_on_c, 0, 78, 46
1, 216960, Note_on_c, 0, 78, 0
1, 216960, Note_on_c, 0, 76, 50
1, 216960, Note_on_c, 0, 67, 31
1, 217200, Note_on_c, 0, 67, 0
1, 217200, Note_on_c, 0, 69, 24
1, 217320, Note_on_c, 0, 76, 0
1, 217440, Note_on_c, 0, 69, 0
1, 217440, Note_on_c, 0, 76, 47
1, 217440, Note_on_c, 0, 67, 31
1, 217680, Tempo, 466962
1, 217680, Note_on_c, 0, 67, 0
1, 217680, Note_on_c, 0, 69, 26
1, 217920, Tempo, 452523
1, 217920, Note_on_c, 0, 69, 0
1, 217920, Note_on_c, 0, 76, 0
1, 217920, Note_on_c, 0, 81, 50
1, 217920, Note_on_c, 0, 67, 31
1, 218068, Control_c, 0, 64, 127
1, 218160, Note_on_c, 0, 67, 0
1, 218160, Note_on_c, 0, 69, 25
1, 218400, Note_on_c, 0, 69, 0
1, 218400, Note_on_c, 0, 81, 0
1, 218400, Note_on_c, 0, 73, 46
1, 218400, Note_on_c, 0, 67, 31
1, 218409, Control_c, 0, 64, 0
1, 218506, Control_c, 0, 64, 127
1, 218640, Tempo, 480384
1, 218640, Note_on_c, 0, 67, 0
1, 218640, Note_on_c, 0, 69, 28
1, 218880, Tempo, 454305
1, 218880, Note_on_c, 0, 69, 0
1, 218880, Note_on_c, 0, 73, 0
1, 218880, Note_on_c, 0, 76, 50
1, 218880, Note_on_c, 0, 66, 31
1, 218880, Control_c, 0, 64, 0
1, 219120, Tempo, 445633
1, 219120, Note_on_c, 0, 66, 0
1, 219120, Note_on_c, 0, 69, 18
1, 219360, Tempo, 434091
1, 219360, Note_on_c, 0, 69, 0
1, 219360, Note_on_c, 0, 66, 20
1, 219600, Tempo, 452523
1, 219600, Note_on_c, 0, 66, 0
1, 219600, Note_on_c, 0, 69, 15
1, 219840, Note_on_c, 0, 69, 0
1, 219840, Note_on_c, 0, 76, 0
1, 219840, Note_on_c, 0, 74, 44
1, 219840, Note_on_c, 0, 66, 31
1, 219960, Tempo, 454305
1, 220066, Control_c, 0, 64, 127
1, 220080, Note_on_c, 0, 66, 0
1, 220080, Note_on_c, 0, 69, 23
1, 220320, Tempo, 440626
1, 220320, Note_on_c, 0, 69, 0
1, 220320, Note_on_c, 0, 74, 0
1, 220320, Note_on_c, 0, 76, 51
1, 220320, Note_on_c, 0, 66, 33
1, 220335, Control_c, 0, 64, 0
1, 220560, Tempo, 470736
1, 220560, Note_on_c, 0, 66, 0
1, 220560, Note_on_c, 0, 76, 0
1, 220560, Note_on_c, 0, 78, 52
1, 220560, Note_on_c, 0, 69, 30
1, 220800, Tempo, 456066
1, 220800, Note_on_c, 0, 69, 0
1, 220800, Note_on_c, 0, 78, 0
1, 220800, Note_on_c, 0, 79, 60
1, 220800, Note_on_c, 0, 64, 38
1, 221040, Note_on_c, 0, 64, 0
1, 221040, Note_on_c, 0, 69, 24
1, 221160, Note_on_c, 0, 79, 0
1, 221280, Note_on_c, 0, 69, 0
1, 221280, Note_on_c, 0, 79, 47
1, 221280, Note_on_c, 0, 57, 31
1, 221316, Control_c, 0, 64, 127
1, 221520, Tempo, 461432
1, 221520, Note_on_c, 0, 57, 0
1, 221520, Note_on_c, 0, 69, 26
1, 221760, Tempo, 454305
1, 221760, Note_on_c, 0, 69, 0
1, 221760, Note_on_c, 0, 79, 0
1, 221760, Note_on_c, 0, 78, 50
1, 221760, Note_on_c, 0, 62, 31
1, 221774, Control_c, 0, 64, 0
1, 221894, Control_c, 0, 64, 127
1, 222000, Note_on_c, 0, 62, 0
1, 222000, Note_on_c, 0, 69, 25
1, 222240, Note_on_c, 0, 69, 0
1, 222240, Note_on_c, 0, 78, 0
1, 222240, Note_on_c, 0, 78, 46
1, 222240, Note_on_c, 0, 57, 31
1, 222480, Tempo, 480384
1, 222480, Note_on_c, 0, 57, 0
1, 222480, Note_on_c, 0, 69, 28
1, 222720, Tempo, 445633
1, 222720, Note_on_c, 0, 69, 0
1, 222720, Note_on_c, 0, 78, 0
1, 222720, Note_on_c, 0, 76, 54
1, 222720, Note_on_c, 0, 61, 31
1, 222732, Control_c, 0, 64, 0
1, 222960, Tempo, 498795
1, 222960, Note_on_c, 0, 61, 0
1, 222960, Note_on_c, 0, 76, 0
1, 222960, Note_on_c, 0, 69, 23
1, 223200, Tempo, 452523
1, 223200, Note_on_c, 0, 69, 0
1, 223200, Note_on_c, 0, 81, 49
1, 223200, Note_on_c, 0, 57, 30
1, 223326, Control_c, 0, 64, 127
1, 223440, Note_on_c, 0, 57, 0
1, 223440, Note_on_c, 0, 69, 24
1, 223680, Tempo, 442282
1, 223680, Note_on_c, 0, 69, 0
1, 223680, Note_on_c, 0, 61, 31
1, 223920, Note_on_c, 0, 61, 0
1, 223920, Note_on_c, 0, 69, 23
1, 224160, Tempo, 442282
1, 224160, Note_on_c, 0, 69, 0
1, 224160, Note_on_c, 0, 81, 0
1, 224160, Note_on_c, 0, 79, 50
1, 224160, Note_on_c, 0, 64, 31
1, 224179, Control_c, 0, 64, 0
1, 224400, Tempo, 463285
1, 224400, Note_on_c, 0, 64, 0
1, 224400, Note_on_c, 0, 79, 0
1, 224400, Note_on_c, 0, 78, 46
1, 224400, Note_on_c, 0, 69, 23
1, 224640, Tempo, 452523
1, 224640, Note_on_c, 0, 69, 0
1, 224640, Note_on_c, 0, 78, 0
1, 224640, Note_on_c, 0, 76, 50
1, 224640, Note_on_c, 0, 67, 31
1, 224880, Note_on_c, 0, 67, 0
1, 224880, Note_on_c, 0, 69, 24
1, 225000, Note_on_c, 0, 76, 0
1, 225120, Tempo, 445633
1, 225120, Note_on_c, 0, 69, 0
1, 225120, Note_on_c, 0, 76, 47
1, 225120, Note_on_c, 0, 67, 31
1, 225148, Control_c, 0, 64, 127
1, 225360, Note_on_c, 0, 67, 0
1, 225360, Note_on_c, 0, 69, 26
1, 225600, Tempo, 452523
1, 225600, Note_on_c, 0, 69, 0
1, 225600, Note_on_c, 0, 76, 0
1, 225600, Note_on_c, 0, 81, 50
1, 225600, Note_on_c, 0, 67, 31
1, 225607, Control_c, 0, 64, 0
1, 225706, Control_c, 0, 64, 127
1, 225840, Note_on_c, 0, 67, 0
1, 225840, Note_on_c, 0, 69, 25
1, 226080, Note_on_c, 0, 69, 0
1, 226080, Note_on_c, 0, 81, 0
1, 226080, Note_on_c, 0, 73, 46
1, 226080, Note_on_c, 0, 67, 31
1, 226093, Control_c, 0, 64, 0
1, 226221, Control_c, 0, 64, 127
1, 226320, Tempo, 480384
1, 226320, Note_on_c, 0, 67, 0
1, 226320, Note_on_c, 0, 69, 28
1, 226560, Tempo, 454305
1, 226560, Note_on_c, 0, 69, 0
1, 226560, Note_on_c, 0, 73, 0
1, 226560, Note_on_c, 0, 76, 50
1, 226560, Note_on_c, 0, 66, 31
1, 226577, Control_c, 0, 64, 0
1, 226800, Tempo, 437318
1, 226800, Note_on_c, 0, 66, 0
1, 226800, Note_on_c, 0, 69, 23
1, 227040, Note_on_c, 0, 69, 0
1, 227040, Note_on_c, 0, 66, 24
1, 227280, Tempo, 457841
1, 227280, Note_on_c, 0, 66, 0
1, 227280, Note_on_c, 0, 69, 19
1, 227520, Tempo, 452523
1, 227520, Note_on_c, 0, 69, 0
1, 227520, Note_on_c, 0, 76, 0
1, 227520, Note_on_c, 0, 74, 44
1, 227520, Note_on_c, 0, 66, 31
1, 227690, Control_c, 0, 64, 127
1, 227760, Note_on_c, 0, 66, 0
1, 227760, Note_on_c, 0, 69, 23
1, 228000, Tempo, 442282
1, 228000, Note_on_c, 0, 69, 0
1, 228000, Note_on_c, 0, 74, 0
1, 228000, Note_on_c, 0, 86, 50
1, 228000, Note_on_c, 0, 66, 31
1, 228240, Tempo, 470736
1, 228240, Note_on_c, 0, 66, 0
1, 228240, Note_on_c, 0, 86, 0
1, 228240, Note_on_c, 0, 81, 46
1, 228240, Note_on_c, 0, 69, 23
1, 228480, Tempo, 452523
1, 228480, Note_on_c, 0, 69, 0
1, 228480, Note_on_c, 0, 81, 0
1, 228480, Note_on_c, 0, 78, 50
1, 228480, Note_on_c, 0, 57, 31
1, 228488, Control_c, 0, 64, 0
1, 228720, Note_on_c, 0, 57, 0
1, 228720, Note_on_c, 0, 69, 24
1, 228840, Tempo, 445633
1, 228840, Note_on_c, 0, 78, 0
1, 228960, Note_on_c, 0, 69, 0
1, 228960, Note_on_c, 0, 78, 47
1, 228960, Note_on_c, 0, 62, 31
1, 229017, Control_c, 0, 64, 127
1, 229200, Note_on_c, 0, 62, 0
1, 229200, Note_on_c, 0, 69, 26
1, 229440, Tempo, 452523
1, 229440, Note_on_c, 0, 69, 0
1, 229440, Note_on_c, 0, 57, 31
1, 229680, Note_on_c, 0, 57, 0
1, 229680, Note_on_c, 0, 78, 0
1, 229680, Note_on_c, 0, 81, 50
1, 229680, Note_on_c, 0, 69, 25
1, 229920, Note_on_c, 0, 69, 0
1, 229920, Note_on_c, 0, 81, 0
1, 229920, Note_on_c, 0, 79, 46
1, 229920, Note_on_c, 0, 61, 31
1, 229937, Control_c, 0, 64, 0
1, 230026, Control_c, 0, 64, 127
1, 230160, Tempo, 480384
1, 230160, Note_on_c, 0, 61, 0
1, 230160, Note_on_c, 0, 79, 0
1, 230160, Note_on_c, 0, 76, 44
1, 230160, Note_on_c, 0, 69, 28
1, 230400, Tempo, 423101
1, 230400, Note_on_c, 0, 69, 0
1, 230400, Note_on_c, 0, 76, 0
1, 230400, Note_on_c, 0, 74, 54
1, 230400, Note_on_c, 0, 62, 34
1, 230400, Note_on_c, 0, 66, 40
1, 230414, Control_c, 0, 64, 0
1, 230520, Note_on_c, 0, 74, 0
1, 230520, Note_on_c, 0, 76, 46
1, 230640, Note_on_c, 0, 76, 0
1, 230640, Note_on_c, 0, 74, 53
1, 230760, Note_on_c, 0, 74, 0
1, 230760, Note_on_c, 0, 76, 46
1, 230880, Note_on_c, 0, 76, 0
1, 230880, Note_on_c, 0, 66, 0
1, 230880, Note_on_c, 0, 62, 0
1, 230880, Note_on_c, 0, 78, 57
1, 230940, Note_on_c, 0, 78, 0
1, 231120, Tempo, 456066
1, 231120, Note_on_c, 0, 74, 51
1, 231180, Note_on_c, 0, 74, 0
1, 231360, Tempo, 429307
1, 231360, Note_on_c, 0, 71, 54
1, 231360, Note_on_c, 0, 62, 26
1, 231360, Note_on_c, 0, 67, 31
1, 231480, Tempo, 426167
1, 231480, Note_on_c, 0, 67, 0
1, 231480, Note_on_c, 0, 62, 0
1, 231480, Note_on_c, 0, 71, 0
1, 231480, Note_on_c, 0, 74, 46
1, 231600, Note_on_c, 0, 74, 0
1, 231600, Note_on_c, 0, 71, 53
1, 231720, Note_on_c, 0, 71, 0
1, 231720, Note_on_c, 0, 74, 46
1, 231840, Note_on_c, 0, 74, 0
1, 231840, Note_on_c, 0, 73, 55
1, 231840, Note_on_c, 0, 64, 31
1, 231840, Note_on_c, 0, 62, 26
1, 231960, Note_on_c, 0, 62, 0
1, 231960, Note_on_c, 0, 64, 0
1, 231960, Note_on_c, 0, 73, 0
1, 231960, Note_on_c, 0, 76, 46
1, 232080, Tempo, 456066
1, 232080, Note_on_c, 0, 76, 0
1, 232080, Note_on_c, 0, 73, 53
1, 232200, Note_on_c, 0, 73, 0
1, 232200, Note_on_c, 0, 76, 46
1, 232320, Tempo, 423101
1, 232320, Note_on_c, 0, 76, 0
1, 232320, Note_on_c, 0, 74, 54
1, 232320, Note_on_c, 0, 62, 34
1, 232320, Note_on_c, 0, 66, 40
1, 232440, Note_on_c, 0, 74, 0
1, 232440, Note_on_c, 0, 76, 46
1, 232560, Note_on_c, 0, 76, 0
1, 232560, Note_on_c, 0, 74, 53
1, 232680, Note_on_c, 0, 74, 0
1, 232680, Note_on_c, 0, 76, 46
1, 232800, Note_on_c, 0, 76, 0
1, 232800, Note_on_c, 0, 66, 0
1, 232800, Note_on_c, 0, 62, 0
1, 232800, Note_on_c, 0, 78, 57
1, 232860, Note_on_c, 0, 78, 0
1, 233040, Tempo, 456066
1, 233040, Note_on_c, 0, 74, 51
1, 233100, Note_on_c, 0, 74, 0
1, 233280, Tempo, 429307
1, 233280, Note_on_c, 0, 71, 54
1, 233280, Note_on_c, 0, 62, 26
1, 233280, Note_on_c, 0, 67, 31
1, 233400, Tempo, 426167
1, 233400, Note_on_c, 0, 67, 0
1, 233400, Note_on_c, 0, 62, 0
1, 233400, Note_on_c, 0, 71, 0
1, 233400, Note_on_c, 0, 74, 46
1, 233520, Note_on_c, 0, 74, 0
1, 233520, Note_on_c, 0, 71, 53
1, 233640, Note_on_c, 0, 71, 0
1, 233640, Note_on_c, 0, 74, 46
1, 233760, Tempo, 435698
1, 233760, Note_on_c, 0, 74, 0
1, 233760, Note_on_c, 0, 73, 55
1, 233760, Note_on_c, 0, 64, 31
1, 233760, Note_on_c, 0, 62, 26
1, 233880, Note_on_c, 0, 62, 0
1, 233880, Note_on_c, 0, 64, 0
1, 233880, Note_on_c, 0, 73, 0
1, 233880, Note_on_c, 0, 76, 46
1, 234000, Tempo, 456066
1, 234000, Note_on_c, 0, 76, 0
1, 234000, Note_on_c, 0, 73, 53
1, 234120, Tempo, 482354
1, 234120, Note_on_c, 0, 73, 0
1, 234120, Note_on_c, 0, 76, 46
1, 234221, Tempo, 452523
1, 234240, Note_on_c, 0, 76, 0
1, 234240, Note_on_c, 0, 74, 56
1, 234240, Note_on_c, 0, 62, 34
1, 234240, Note_on_c, 0, 66, 40
1, 234253, Tempo, 450789
1, 234285, Tempo, 449068
1, 234317, Tempo, 447361
1, 234349, Tempo, 443951
1, 234360, Note_on_c, 0, 74, 0
1, 234360, Note_on_c, 0, 76, 53
1, 234381, Tempo, 442282
1, 234413, Tempo, 440626
1, 234445, Tempo, 437318
1, 234477, Tempo, 435698
1, 234480, Note_on_c, 0, 76, 0
1, 234480, Note_on_c, 0, 78, 55
1, 234509, Tempo, 434091
1, 234541, Tempo, 430880
1, 234575, Tempo, 435698
1, 234600, Note_on_c, 0, 78, 0
1, 234600, Note_on_c, 0, 79, 56
1, 234671, Tempo, 434091
1, 234720, Note_on_c, 0, 79, 0
1, 234720, Note_on_c, 0, 66, 0
1, 234720, Note_on_c, 0, 62, 0
1, 234720, Note_on_c, 0, 81, 58
1, 234767, Tempo, 432464
1, 234840, Note_on_c, 0, 81, 0
1, 234840, Note_on_c, 0, 83, 58
1, 234863, Tempo, 430880
1, 234959, Tempo, 429307
1, 234960, Note_on_c, 0, 83, 0
1, 234960, Note_on_c, 0, 85, 58
1, 235055, Tempo, 427746
1, 235080, Tempo, 482354
1, 235080, Note_on_c, 0, 85, 0
1, 235080, Note_on_c, 0, 86, 62
1, 235200, Tempo, 435698
1, 235200, Note_on_c, 0, 86, 0
1, 235200, Note_on_c, 0, 74, 71
1, 235200, Note_on_c, 0, 47, 55
1, 235200, Note_on_c, 0, 59, 65
1, 235320, Note_on_c, 0, 74, 0
1, 235320, Note_on_c, 0, 76, 71
1, 235407, Tempo, 435698
1, 235440, Note_on_c, 0, 76, 0
1, 235440, Note_on_c, 0, 59, 0
1, 235440, Note_on_c, 0, 47, 0
1, 235440, Note_on_c, 0, 78, 71
1, 235560, Note_on_c, 0, 78, 0
1, 235560, Note_on_c, 0, 79, 72
1, 235663, Tempo, 434091
1, 235680, Note_on_c, 0, 79, 0
1, 235680, Note_on_c, 0, 81, 73
1, 235680, Note_on_c, 0, 59, 57
1, 235680, Note_on_c, 0, 47, 48
1, 235800, Note_on_c, 0, 81, 0
1, 235800, Note_on_c, 0, 83, 74
1, 235919, Tempo, 432464
1, 235920, Note_on_c, 0, 83, 0
1, 235920, Note_on_c, 0, 47, 0
1, 235920, Note_on_c, 0, 59, 0
1, 235920, Note_on_c, 0, 85, 77
1, 236040, Tempo, 492490
1, 236040, Note_on_c, 0, 85, 0
1, 236040, Note_on_c, 0, 86, 78
1, 236136, Tempo, 434091
1, 236160, Note_on_c, 0, 86, 0
1, 236160, Note_on_c, 0, 83, 82
1, 236160, Note_on_c, 0, 43, 54
1, 236160, Note_on_c, 0, 55, 64
1, 236264, Tempo, 435698
1, 236280, Note_on_c, 0, 83, 0
1, 236280, Note_on_c, 0, 81, 78
1, 236376, Tempo, 437318
1, 236400, Note_on_c, 0, 81, 0
1, 236400, Note_on_c, 0, 55, 0
1, 236400, Note_on_c, 0, 43, 0
1, 236400, Note_on_c, 0, 79, 78
1, 236504, Tempo, 438949
1, 236520, Note_on_c, 0, 79, 0
1, 236520, Note_on_c, 0, 78, 74
1, 236616, Tempo, 440626
1, 236640, Note_on_c, 0, 78, 0
1, 236640, Note_on_c, 0, 76, 71
1, 236640, Note_on_c, 0, 55, 56
1, 236640, Note_on_c, 0, 43, 47
1, 236744, Tempo, 442282
1, 236760, Note_on_c, 0, 76, 0
1, 236760, Note_on_c, 0, 74, 70
1, 236856, Tempo, 443951
1, 236880, Note_on_c, 0, 74, 0
1, 236880, Note_on_c, 0, 43, 0
1, 236880, Note_on_c, 0, 55, 0
1, 236880, Note_on_c, 0, 73, 73
1, 236984, Tempo, 445633
1, 237000, Note_on_c, 0, 73, 0
1, 237000, Note_on_c, 0, 71, 72
1, 237096, Tempo, 447361
1, 237120, Tempo, 468823
1, 237120, Note_on_c, 0, 71, 0
1, 237120, Note_on_c, 0, 69, 81
1, 237120, Note_on_c, 0, 57, 66
1, 237120, Note_on_c, 0, 45, 56
1, 237240, Note_on_c, 0, 45, 0
1, 237240, Note_on_c, 0, 57, 0
1, 237240, Note_on_c, 0, 69, 0
1, 237600, Note_on_c, 0, 67, 62
1, 237600, Note_on_c, 0, 69, 62
1, 237600, Note_on_c, 0, 73, 73
1, 237600, Note_on_c, 0, 45, 47
1, 237600, Note_on_c, 0, 57, 56
1, 237720, Note_on_c, 0, 57, 0
1, 237720, Note_on_c, 0, 73, 0
1, 237720, Note_on_c, 0, 67, 0
1, 237720, Note_on_c, 0, 69, 0
1, 237720, Note_on_c, 0, 45, 0
1, 238080, Tempo, 423101
1, 238080, Note_on_c, 0, 74, 43
1, 238080, Note_on_c, 0, 50, 27
1, 238080, Note_on_c, 0, 62, 32
1, 238200, Note_on_c, 0, 74, 0
1, 238200, Note_on_c, 0, 78, 36
1, 238320, Note_on_c, 0, 78, 0
1, 238320, Note_on_c, 0, 81, 42
1, 238440, Note_on_c, 0, 81, 0
1, 238440, Note_on_c, 0, 79, 36
1, 238560, Note_on_c, 0, 79, 0
1, 238560, Note_on_c, 0, 62, 0
1, 238560, Note_on_c, 0, 50, 0
1, 238560, Note_on_c, 0, 78, 45
1, 238680, Note_on_c, 0, 78, 0
1, 238680, Note_on_c, 0, 76, 42
1, 238800, Tempo, 456066
1, 238800, Note_on_c, 0, 76, 0
1, 238800, Note_on_c, 0, 74, 40
1, 238920, Note_on_c, 0, 74, 0
1, 238920, Note_on_c, 0, 73, 37
1, 239040, Tempo, 429307
1, 239040, Note_on_c, 0, 73, 0
1, 239040, Note_on_c, 0, 71, 43
1, 239040, Note_on_c, 0, 62, 20
1, 239040, Note_on_c, 0, 67, 24
1, 239160, Tempo, 426167
1, 239160, Note_on_c, 0, 67, 0
1, 239160, Note_on_c, 0, 62, 0
1, 239160, Note_on_c, 0, 71, 0
1, 239160, Note_on_c, 0, 74, 36
1, 239280, Note_on_c, 0, 74, 0
1, 239280, Note_on_c, 0, 71, 42
1, 239400, Note_on_c, 0, 71, 0
1, 239400, Note_on_c, 0, 74, 36
1, 239520, Note_on_c, 0, 74, 0
1, 239520, Note_on_c, 0, 73, 44
1, 239520, Note_on_c, 0, 64, 24
1, 239520, Note_on_c, 0, 62, 20
1, 239640, Note_on_c, 0, 62, 0
1, 239640, Note_on_c, 0, 64, 0
1, 239640, Note_on_c, 0, 73, 0
1, 239640, Note_on_c, 0, 76, 36
1, 239760, Tempo, 456066
1, 239760, Note_on_c, 0, 76, 0
1, 239760, Note_on_c, 0, 73, 42
1, 239880, Note_on_c, 0, 73, 0
1, 239880, Note_on_c, 0, 76, 36
1, 240000, Tempo, 423101
1, 240000, Note_on_c, 0, 76, 0
1, 240000, Note_on_c, 0, 74, 43
1, 240000, Note_on_c, 0, 62, 27
1, 240000, Note_on_c, 0, 66, 32
1, 240120, Note_on_c, 0, 74, 0
1, 240120, Note_on_c, 0, 78, 36
1, 240240, Note_on_c, 0, 78, 0
1, 240240, Note_on_c, 0, 81, 42
1, 240360, Note_on_c, 0, 81, 0
1, 240360, Note_on_c, 0, 79, 36
1, 240480, Note_on_c, 0, 79, 0
1, 240480, Note_on_c, 0, 66, 0
1, 240480, Note_on_c, 0, 62, 0
1, 240480, Note_on_c, 0, 78, 45
1, 240600, Note_on_c, 0, 78, 0
1, 240600, Note_on_c, 0, 76, 42
1, 240720, Tempo, 456066
1, 240720, Note_on_c, 0, 76, 0
1, 240720, Note_on_c, 0, 74, 40
1, 240840, Note_on_c, 0, 74, 0
1, 240840, Note_on_c, 0, 73, 37
1, 240960, Tempo, 429307
1, 240960, Note_on_c, 0, 73, 0
1, 240960, Note_on_c, 0, 71, 43
1, 240960, Note_on_c, 0, 62, 20
1, 240960, Note_on_c, 0, 67, 24
1, 241080, Tempo, 426167
1, 241080, Note_on_c, 0, 67, 0
1, 241080, Note_on_c, 0, 62, 0
1, 241080, Note_on_c, 0, 71, 0
1, 241080, Note_on_c, 0, 74, 36
1, 241200, Note_on_c, 0, 74, 0
1, 241200, Note_on_c, 0, 71, 42
1, 241320, Note_on_c, 0, 71, 0
1, 241320, Note_on_c, 0, 74, 36
1, 241440, Note_on_c, 0, 74, 0
1, 241440, Note_on_c, 0, 73, 44
1, 241440, Note_on_c, 0, 64, 24
1, 241440, Note_on_c, 0, 62, 20
1, 241560, Note_on_c, 0, 62, 0
1, 241560, Note_on_c, 0, 64, 0
1, 241560, Note_on_c, 0, 73, 0
1, 241560, Note_on_c, 0, 76, 36
1, 241680, Tempo, 456066
1, 241680, Note_on_c, 0, 76, 0
1, 241680, Note_on_c, 0, 73, 42
1, 241800, Note_on_c, 0, 73, 0
1, 241800, Note_on_c, 0, 76, 36
1, 241920, Tempo, 435698
1, 241920, Note_on_c, 0, 76, 0
1, 241920, Note_on_c, 0, 74, 52
1, 241920, Note_on_c, 0, 62, 27
1, 241920, Note_on_c, 0, 66, 32
1, 242040, Note_on_c, 0, 74, 0
1, 242040, Note_on_c, 0, 78, 56
1, 242127, Tempo, 435698
1, 242160, Note_on_c, 0, 78, 0
1, 242160, Note_on_c, 0, 81, 59
1, 242280, Note_on_c, 0, 81, 0
1, 242280, Note_on_c, 0, 79, 56
1, 242383, Tempo, 434091
1, 242400, Note_on_c, 0, 79, 0
1, 242400, Note_on_c, 0, 66, 0
1, 242400, Note_on_c, 0, 62, 0
1, 242400, Note_on_c, 0, 78, 59
1, 242520, Note_on_c, 0, 78, 0
1, 242520, Note_on_c, 0, 76, 60
1, 242639, Tempo, 432464
1, 242640, Note_on_c, 0, 76, 0
1, 242640, Note_on_c, 0, 74, 61
1, 242760, Tempo, 492490
1, 242760, Note_on_c, 0, 74, 0
1, 242760, Note_on_c, 0, 73, 65
1, 242856, Tempo, 434091
1, 242880, Note_on_c, 0, 73, 0
1, 242880, Note_on_c, 0, 71, 69
1, 242880, Note_on_c, 0, 31, 58
1, 242984, Tempo, 435698
1, 243000, Note_on_c, 0, 71, 0
1, 243000, Note_on_c, 0, 69, 71
1, 243096, Tempo, 437318
1, 243120, Note_on_c, 0, 69, 0
1, 243120, Note_on_c, 0, 31, 0
1, 243120, Note_on_c, 0, 67, 70
1, 243120, Note_on_c, 0, 43, 50
1, 243224, Tempo, 438949
1, 243240, Note_on_c, 0, 67, 0
1, 243240, Note_on_c, 0, 66, 69
1, 243336, Tempo, 440626
1, 243360, Note_on_c, 0, 66, 0
1, 243360, Note_on_c, 0, 43, 0
1, 243360, Note_on_c, 0, 64, 69
1, 243360, Note_on_c, 0, 31, 55
1, 243464, Tempo, 442282
1, 243480, Note_on_c, 0, 64, 0
1, 243480, Note_on_c, 0, 62, 70
1, 243576, Tempo, 443951
1, 243600, Note_on_c, 0, 62, 0
1, 243600, Note_on_c, 0, 31, 0
1, 243600, Note_on_c, 0, 61, 72
1, 243600, Note_on_c, 0, 43, 48
1, 243704, Tempo, 445633
1, 243720, Note_on_c, 0, 61, 0
1, 243720, Note_on_c, 0, 59, 76
1, 243816, Tempo, 447361
1, 243840, Tempo, 454305
1, 243840, Note_on_c, 0, 59, 0
1, 243840, Note_on_c, 0, 43, 0
1, 243840, Note_on_c, 0, 57, 85
1, 243840, Note_on_c, 0, 33, 57
1, 243915, Control_c, 0, 64, 127
1, 244080, Note_on_c, 0, 33, 0
1, 244080, Note_on_c, 0, 57, 0
1, 244080, Note_on_c, 0, 66, 72
1, 244080, Note_on_c, 0, 62, 72
1, 244080, Note_on_c, 0, 45, 49
1, 244105, Control_c, 0, 64, 0
1, 244200, Note_on_c, 0, 45, 0
1, 244200, Note_on_c, 0, 62, 0
1, 244200, Note_on_c, 0, 66, 0
1, 244320, Note_on_c, 0, 66, 80
1, 244320, Note_on_c, 0, 62, 80
1, 244320, Note_on_c, 0, 33, 57
1, 244440, Note_on_c, 0, 33, 0
1, 244440, Note_on_c, 0, 62, 0
1, 244440, Note_on_c, 0, 66, 0
1, 244560, Tempo, 480384
1, 244560, Note_on_c, 0, 62, 72
1, 244560, Note_on_c, 0, 66, 72
1, 244560, Note_on_c, 0, 45, 49
1, 244680, Note_on_c, 0, 45, 0
1, 244680, Note_on_c, 0, 66, 0
1, 244680, Note_on_c, 0, 62, 0
1, 244800, Tempo, 454305
1, 244800, Note_on_c, 0, 66, 80
1, 244800, Note_on_c, 0, 62, 80
1, 244800, Note_on_c, 0, 33, 57
1, 244871, Control_c, 0, 64, 127
1, 245040, Note_on_c, 0, 33, 0
1, 245040, Note_on_c, 0, 62, 0
1, 245040, Note_on_c, 0, 66, 0
1, 245040, Note_on_c, 0, 67, 72
1, 245040, Note_on_c, 0, 64, 72
1, 245040, Note_on_c, 0, 45, 49
1, 245053, Control_c, 0, 64, 0
1, 245160, Note_on_c, 0, 45, 0
1, 245160, Note_on_c, 0, 64, 0
1, 245160, Note_on_c, 0, 67, 0
1, 245280, Note_on_c, 0, 64, 80
1, 245280, Note_on_c, 0, 61, 80
1, 245280, Note_on_c, 0, 33, 57
1, 245400, Note_on_c, 0, 33, 0
1, 245400, Note_on_c, 0, 61, 0
1, 245400, Note_on_c, 0, 64, 0
1, 245520, Note_on_c, 0, 61, 72
1, 245520, Note_on_c, 0, 64, 72
1, 245520, Note_on_c, 0, 45, 49
1, 245640, Note_on_c, 0, 45, 0
1, 245640, Note_on_c, 0, 64, 0
1, 245640, Note_on_c, 0, 61, 0
1, 245760, Tempo, 476455
1, 245760, Note_on_c, 0, 62, 83
1, 245760, Note_on_c, 0, 38, 57
1, 245923, Control_c, 0, 64, 127
1, 246000, Note_on_c, 0, 38, 0
1, 246000, Note_on_c, 0, 62, 0
1, 246000, Note_on_c, 0, 50, 52
1, 246240, Tempo, 492692
1, 246240, Note_on_c, 0, 50, 0
1, 246240, Note_on_c, 0, 69, 79
1, 246240, Note_on_c, 0, 66, 79
1, 246240, Note_on_c, 0, 62, 79
1, 246240, Note_on_c, 0, 74, 79
1, 246240, Note_on_c, 0, 45, 57
1, 246360, Note_on_c, 0, 74, 0
1, 246360, Note_on_c, 0, 62, 0
1, 246360, Note_on_c, 0, 69, 0
1, 246360, Note_on_c, 0, 66, 0
1, 246480, Tempo, 525026
1, 246480, Note_on_c, 0, 45, 0
1, 246480, Note_on_c, 0, 42, 51
1, 246720, Note_on_c, 0, 42, 0
1, 246720, Note_on_c, 0, 74, 79
1, 246720, Note_on_c, 0, 69, 79
1, 246720, Note_on_c, 0, 66, 79
1, 246720, Note_on_c, 0, 62, 79
1, 246720, Note_on_c, 0, 38, 62
1, 246840, Tempo, 580383
1, 246840, Note_on_c, 0, 38, 0
1, 246840, Note_on_c, 0, 66, 0
1, 246840, Note_on_c, 0, 74, 0
1, 246840, Note_on_c, 0, 69, 0
1, 246840, Note_on_c, 0, 62, 0
1, 246960, Tempo, 928936
1, 247080, Control_c, 0, 64, 0
1, 247140, Tempo, 580383
1, 247200, Tempo, 444148
1, 247200, Marker_t, "Teil 2 Wiederholung"
1, 247200, Note_on_c, 0, 69, 46
1, 247320, Note_on_c, 0, 69, 0
1, 247320, Note_on_c, 0, 71, 47
1, 247440, Note_on_c, 0, 71, 0
1, 247440, Note_on_c, 0, 73, 48
1, 247560, Note_on_c, 0, 73, 0
1, 247560, Note_on_c, 0, 74, 49
1, 247680, Tempo, 445170
1, 247680, Note_on_c, 0, 74, 0
1, 247680, Note_on_c, 0, 76, 52
1, 247680, Note_on_c, 0, 57, 35
1, 247800, Note_on_c, 0, 57, 0
1, 247800, Note_on_c, 0, 76, 0
1, 247920, Note_on_c, 0, 57, 27
1, 248040, Note_on_c, 0, 57, 0
1, 248160, Tempo, 438661
1, 248160, Note_on_c, 0, 73, 48
1, 248160, Note_on_c, 0, 69, 48
1, 248160, Note_on_c, 0, 57, 30
1, 248280, Note_on_c, 0, 57, 0
1, 248280, Note_on_c, 0, 69, 0
1, 248280, Note_on_c, 0, 73, 0
1, 248400, Note_on_c, 0, 57, 27
1, 248520, Note_on_c, 0, 57, 0
1, 248640, Tempo, 431189
1, 248640, Note_on_c, 0, 71, 50
1, 248640, Note_on_c, 0, 74, 50
1, 248640, Note_on_c, 0, 57, 31
1, 248760, Note_on_c, 0, 57, 0
1, 248760, Note_on_c, 0, 74, 0
1, 248760, Note_on_c, 0, 71, 0
1, 248880, Note_on_c, 0, 57, 27
1, 249000, Note_on_c, 0, 57, 0
1, 249120, Note_on_c, 0, 76, 47
1, 249120, Note_on_c, 0, 73, 47
1, 249120, Note_on_c, 0, 57, 30
1, 249240, Note_on_c, 0, 57, 0
1, 249240, Note_on_c, 0, 73, 0
1, 249240, Note_on_c, 0, 76, 0
1, 249360, Tempo, 472962
1, 249360, Note_on_c, 0, 57, 27
1, 249480, Note_on_c, 0, 57, 0
1, 249600, Tempo, 428388
1, 249600, Note_on_c, 0, 74, 50
1, 249600, Note_on_c, 0, 71, 50
1, 249600, Note_on_c, 0, 57, 35
1, 249720, Note_on_c, 0, 57, 0
1, 249840, Note_on_c, 0, 57, 29
1, 249960, Note_on_c, 0, 57, 0
1, 250080, Note_on_c, 0, 57, 31
1, 250200, Note_on_c, 0, 57, 0
1, 250320, Note_on_c, 0, 71, 0
1, 250320, Note_on_c, 0, 74, 0
1, 250320, Note_on_c, 0, 76, 43
1, 250320, Note_on_c, 0, 73, 43
1, 250320, Note_on_c, 0, 57, 29
1, 250440, Note_on_c, 0, 57, 0
1, 250560, Note_on_c, 0, 73, 0
1, 250560, Note_on_c, 0, 76, 0
1, 250560, Note_on_c, 0, 78, 47
1, 250560, Note_on_c, 0, 74, 47
1, 250560, Note_on_c, 0, 57, 32
1, 250680, Note_on_c, 0, 57, 0
1, 250800, Tempo, 458295
1, 250800, Note_on_c, 0, 57, 29
1, 250920, Note_on_c, 0, 57, 0
1, 251040, Tempo, 436300
1, 251040, Note_on_c, 0, 74, 0
1, 251040, Note_on_c, 0, 78, 0
1, 251040, Note_on_c, 0, 71, 46
1, 251040, Note_on_c, 0, 57, 32
1, 251045, Tempo, 442837
1, 251077, Tempo, 426834
1, 251160, Note_on_c, 0, 57, 0
1, 251160, Note_on_c, 0, 71, 0
1, 251160, Note_on_c, 0, 73, 47
1, 251280, Note_on_c, 0, 73, 0
1, 251280, Note_on_c, 0, 74, 48
1, 251280, Note_on_c, 0, 57, 29
1, 251301, Tempo, 428388
1, 251400, Note_on_c, 0, 57, 0
1, 251400, Note_on_c, 0, 74, 0
1, 251400, Note_on_c, 0, 76, 49
1, 251520, Note_on_c, 0, 76, 0
1, 251520, Note_on_c, 0, 78, 52
1, 251520, Note_on_c, 0, 57, 35
1, 251525, Tempo, 429923
1, 251640, Note_on_c, 0, 57, 0
1, 251640, Note_on_c, 0, 78, 0
1, 251760, Note_on_c, 0, 57, 27
1, 251880, Note_on_c, 0, 57, 0
1, 252000, Note_on_c, 0, 74, 48
1, 252000, Note_on_c, 0, 71, 43
1, 252000, Note_on_c, 0, 57, 30
1, 252120, Note_on_c, 0, 57, 0
1, 252120, Note_on_c, 0, 71, 0
1, 252120, Note_on_c, 0, 74, 0
1, 252240, Note_on_c, 0, 57, 27
1, 252360, Note_on_c, 0, 57, 0
1, 252480, Note_on_c, 0, 73, 45
1, 252480, Note_on_c, 0, 76, 50
1, 252480, Note_on_c, 0, 57, 31
1, 252600, Note_on_c, 0, 57, 0
1, 252600, Note_on_c, 0, 76, 0
1, 252600, Note_on_c, 0, 73, 0
1, 252720, Note_on_c, 0, 57, 27
1, 252840, Note_on_c, 0, 57, 0
1, 252960, Note_on_c, 0, 78, 47
1, 252960, Note_on_c, 0, 74, 42
1, 252960, Note_on_c, 0, 57, 30
1, 253080, Note_on_c, 0, 57, 0
1, 253080, Note_on_c, 0, 74, 0
1, 253080, Note_on_c, 0, 78, 0
1, 253200, Tempo, 472962
1, 253200, Note_on_c, 0, 57, 27
1, 253320, Note_on_c, 0, 57, 0
1, 253440, Tempo, 428388
1, 253440, Note_on_c, 0, 76, 50
1, 253440, Note_on_c, 0, 73, 45
1, 253440, Note_on_c, 0, 57, 35
1, 253560, Note_on_c, 0, 57, 0
1, 253680, Note_on_c, 0, 57, 29
1, 253800, Note_on_c, 0, 57, 0
1, 253920, Note_on_c, 0, 57, 31
1, 254040, Note_on_c, 0, 57, 0
1, 254160, Note_on_c, 0, 73, 0
1, 254160, Note_on_c, 0, 76, 0
1, 254160, Note_on_c, 0, 78, 43
1, 254160, Note_on_c, 0, 74, 38
1, 254160, Note_on_c, 0, 57, 29
1, 254280, Note_on_c, 0, 57, 0
1, 254400, Note_on_c, 0, 74, 0
1, 254400, Note_on_c, 0, 78, 0
1, 254400, Note_on_c, 0, 79, 47
1, 254400, Note_on_c, 0, 76, 42
1, 254400, Note_on_c, 0, 57, 32
1, 254520, Note_on_c, 0, 57, 0
1, 254640, Tempo, 458295
1, 254640, Note_on_c, 0, 57, 29
1, 254760, Note_on_c, 0, 57, 0
1, 254880, Tempo, 433088
1, 254880, Note_on_c, 0, 76, 0
1, 254880, Note_on_c, 0, 79, 0
1, 254880, Note_on_c, 0, 79, 62
1, 254880, Note_on_c, 0, 57, 41
1, 255000, Note_on_c, 0, 57, 0
1, 255000, Note_on_c, 0, 79, 0
1, 255000, Note_on_c, 0, 81, 47
1, 255120, Note_on_c, 0, 81, 0
1, 255120, Note_on_c, 0, 83, 50
1, 255120, Note_on_c, 0, 57, 37
1, 255240, Note_on_c, 0, 57, 0
1, 255240, Note_on_c, 0, 83, 0
1, 255240, Note_on_c, 0, 81, 46
1, 255360, Tempo, 426834
1, 255360, Note_on_c, 0, 81, 0
1, 255360, Note_on_c, 0, 79, 61
1, 255360, Note_on_c, 0, 57, 48
1, 255480, Note_on_c, 0, 79, 0
1, 255480, Note_on_c, 0, 81, 48
1, 255600, Note_on_c, 0, 81, 0
1, 255600, Note_on_c, 0, 78, 50
1, 255720, Note_on_c, 0, 78, 0
1, 255720, Note_on_c, 0, 79, 47
1, 255840, Note_on_c, 0, 79, 0
1, 255840, Note_on_c, 0, 57, 0
1, 255840, Note_on_c, 0, 76, 57
1, 255960, Note_on_c, 0, 76, 0
1, 255960, Note_on_c, 0, 78, 48
1, 256080, Note_on_c, 0, 78, 0
1, 256080, Note_on_c, 0, 74, 50
1, 256200, Note_on_c, 0, 74, 0
1, 256200, Note_on_c, 0, 76, 48
1, 256320, Note_on_c, 0, 76, 0
1, 256320, Note_on_c, 0, 73, 56
1, 256389, Tempo, 425291
1, 256421, Tempo, 423759
1, 256440, Note_on_c, 0, 73, 0
1, 256440, Note_on_c, 0, 74, 48
1, 256485, Tempo, 425291
1, 256549, Tempo, 426834
1, 256560, Note_on_c, 0, 74, 0
1, 256560, Note_on_c, 0, 71, 50
1, 256613, Tempo, 428388
1, 256645, Tempo, 429923
1, 256680, Note_on_c, 0, 71, 0
1, 256680, Note_on_c, 0, 73, 47
1, 256709, Tempo, 431499
1, 256773, Tempo, 433088
1, 256800, Note_on_c, 0, 73, 0
1, 256800, Note_on_c, 0, 69, 56
1, 256805, Tempo, 434688
1, 256837, Tempo, 446163
1, 256869, Tempo, 439528
1, 256901, Tempo, 441176
1, 256920, Note_on_c, 0, 69, 0
1, 256920, Note_on_c, 0, 71, 42
1, 256933, Tempo, 444510
1, 256965, Tempo, 446163
1, 256997, Tempo, 449573
1, 257029, Tempo, 451297
1, 257040, Note_on_c, 0, 71, 0
1, 257040, Note_on_c, 0, 67, 50
1, 257061, Tempo, 454752
1, 257093, Tempo, 456517
1, 257125, Tempo, 460087
1, 257157, Tempo, 461894
1, 257160, Note_on_c, 0, 67, 0
1, 257160, Note_on_c, 0, 69, 42
1, 257189, Tempo, 465513
1, 257221, Tempo, 467363
1, 257253, Tempo, 471069
1, 257280, Tempo, 434688
1, 257280, Note_on_c, 0, 69, 0
1, 257280, Note_on_c, 0, 66, 61
1, 257280, Note_on_c, 0, 50, 41
1, 257520, Note_on_c, 0, 50, 0
1, 257520, Note_on_c, 0, 62, 30
1, 257640, Note_on_c, 0, 62, 0
1, 257760, Note_on_c, 0, 66, 0
1, 257760, Note_on_c, 0, 62, 34
1, 257880, Note_on_c, 0, 62, 0
1, 258000, Note_on_c, 0, 62, 30
1, 258120, Note_on_c, 0, 62, 0
1, 258240, Note_on_c, 0, 62, 36
1, 258360, Note_on_c, 0, 62, 0
1, 258480, Note_on_c, 0, 62, 30
1, 258600, Note_on_c, 0, 62, 0
1, 258720, Tempo, 436300
1, 258720, Note_on_c, 0, 74, 46
1, 258720, Note_on_c, 0, 62, 34
1, 258725, Tempo, 434688
1, 258840, Note_on_c, 0, 62, 0
1, 258840, Note_on_c, 0, 74, 0
1, 258840, Note_on_c, 0, 76, 47
1, 258853, Tempo, 433088
1, 258960, Note_on_c, 0, 76, 0
1, 258960, Note_on_c, 0, 78, 48
1, 258960, Note_on_c, 0, 62, 30
1, 258981, Tempo, 431499
1, 259080, Note_on_c, 0, 62, 0
1, 259080, Note_on_c, 0, 78, 0
1, 259080, Note_on_c, 0, 79, 49
1, 259109, Tempo, 429923
1, 259200, Note_on_c, 0, 79, 0
1, 259200, Note_on_c, 0, 81, 52
1, 259200, Note_on_c, 0, 62, 35
1, 259237, Tempo, 428388
1, 259320, Note_on_c, 0, 62, 0
1, 259320, Note_on_c, 0, 81, 0
1, 259440, Note_on_c, 0, 62, 27
1, 259560, Note_on_c, 0, 62, 0
1, 259680, Note_on_c, 0, 78, 48
1, 259680, Note_on_c, 0, 74, 43
1, 259680, Note_on_c, 0, 62, 30
1, 259800, Note_on_c, 0, 62, 0
1, 259800, Note_on_c, 0, 74, 0
1, 259800, Note_on_c, 0, 78, 0
1, 259920, Note_on_c, 0, 62, 27
1, 260040, Note_on_c, 0, 62, 0
1, 260160, Note_on_c, 0, 76, 45
1, 260160, Note_on_c, 0, 79, 50
1, 260160, Note_on_c, 0, 62, 31
1, 260280, Note_on_c, 0, 62, 0
1, 260280, Note_on_c, 0, 79, 0
1, 260280, Note_on_c, 0, 76, 0
1, 260400, Note_on_c, 0, 62, 27
1, 260520, Note_on_c, 0, 62, 0
1, 260640, Note_on_c, 0, 81, 47
1, 260640, Note_on_c, 0, 78, 42
1, 260640, Note_on_c, 0, 62, 30
1, 260760, Note_on_c, 0, 62, 0
1, 260760, Note_on_c, 0, 78, 0
1, 260760, Note_on_c, 0, 81, 0
1, 260880, Tempo, 472962
1, 260880, Note_on_c, 0, 62, 27
1, 261000, Note_on_c, 0, 62, 0
1, 261120, Tempo, 428388
1, 261120, Note_on_c, 0, 79, 50
1, 261120, Note_on_c, 0, 76, 45
1, 261120, Note_on_c, 0, 62, 35
1, 261240, Note_on_c, 0, 62, 0
1, 261360, Note_on_c, 0, 62, 29
1, 261480, Note_on_c, 0, 62, 0
1, 261600, Note_on_c, 0, 62, 31
1, 261720, Note_on_c, 0, 62, 0
1, 261840, Note_on_c, 0, 76, 0
1, 261840, Note_on_c, 0, 79, 0
1, 261840, Note_on_c, 0, 81, 43
1, 261840, Note_on_c, 0, 78, 38
1, 261840, Note_on_c, 0, 62, 29
1, 261960, Note_on_c, 0, 62, 0
1, 262080, Note_on_c, 0, 78, 0
1, 262080, Note_on_c, 0, 81, 0
1, 262080, Note_on_c, 0, 83, 47
1, 262080, Note_on_c, 0, 79, 42
1, 262080, Note_on_c, 0, 62, 32
1, 262200, Note_on_c, 0, 62, 0
1, 262320, Tempo, 458295
1, 262320, Note_on_c, 0, 62, 29
1, 262440, Note_on_c, 0, 62, 0
1, 262533, Tempo, 423759
1, 262560, Note_on_c, 0, 79, 0
1, 262560, Note_on_c, 0, 83, 0
1, 262560, Note_on_c, 0, 76, 46
1, 262560, Note_on_c, 0, 62, 34
1, 262661, Tempo, 425291
1, 262680, Note_on_c, 0, 62, 0
1, 262680, Note_on_c, 0, 76, 0
1, 262680, Note_on_c, 0, 78, 47
1, 262789, Tempo, 426834
1, 262800, Note_on_c, 0, 78, 0
1, 262800, Note_on_c, 0, 79, 48
1, 262800, Note_on_c, 0, 62, 30
1, 262917, Tempo, 428388
1, 262920, Note_on_c, 0, 62, 0
1, 262920, Note_on_c, 0, 79, 0
1, 262920, Note_on_c, 0, 81, 49
1, 263040, Note_on_c, 0, 81, 0
1, 263040, Note_on_c, 0, 83, 52
1, 263040, Note_on_c, 0, 62, 35
1, 263045, Tempo, 429923
1, 263160, Note_on_c, 0, 62, 0
1, 263160, Note_on_c, 0, 83, 0
1, 263280, Note_on_c, 0, 62, 27
1, 263400, Note_on_c, 0, 62, 0
1, 263520, Note_on_c, 0, 79, 52
1, 263520, Note_on_c, 0, 76, 47
1, 263520, Note_on_c, 0, 62, 33
1, 263640, Note_on_c, 0, 62, 0
1, 263640, Note_on_c, 0, 76, 0
1, 263640, Note_on_c, 0, 79, 0
1, 263760, Note_on_c, 0, 62, 30
1, 263880, Note_on_c, 0, 62, 0
1, 264000, Note_on_c, 0, 78, 52
1, 264000, Note_on_c, 0, 81, 58
1, 264000, Note_on_c, 0, 62, 35
1, 264120, Note_on_c, 0, 62, 0
1, 264120, Note_on_c, 0, 81, 0
1, 264120, Note_on_c, 0, 78, 0
1, 264240, Note_on_c, 0, 62, 32
1, 264360, Note_on_c, 0, 62, 0
1, 264480, Tempo, 438661
1, 264480, Note_on_c, 0, 83, 57
1, 264480, Note_on_c, 0, 79, 51
1, 264480, Note_on_c, 0, 62, 36
1, 264600, Note_on_c, 0, 62, 0
1, 264600, Note_on_c, 0, 79, 0
1, 264600, Note_on_c, 0, 83, 0
1, 264720, Tempo, 475135
1, 264720, Note_on_c, 0, 62, 34
1, 264840, Note_on_c, 0, 62, 0
1, 264960, Tempo, 428388
1, 264960, Note_on_c, 0, 81, 67
1, 264960, Note_on_c, 0, 78, 53
1, 264960, Note_on_c, 0, 62, 48
1, 265200, Note_on_c, 0, 78, 0
1, 265200, Note_on_c, 0, 81, 0
1, 265200, Note_on_c, 0, 84, 56
1, 265440, Tempo, 437892
1, 265440, Note_on_c, 0, 84, 0
1, 265440, Note_on_c, 0, 62, 0
1, 265440, Note_on_c, 0, 78, 56
1, 265440, Note_on_c, 0, 81, 63
1, 265560, Note_on_c, 0, 81, 0
1, 265560, Note_on_c, 0, 78, 0
1, 265680, Note_on_c, 0, 81, 57
1, 265680, Note_on_c, 0, 78, 50
1, 265800, Note_on_c, 0, 78, 0
1, 265800, Note_on_c, 0, 81, 0
1, 265920, Tempo, 428388
1, 265920, Note_on_c, 0, 78, 39
1, 265920, Note_on_c, 0, 81, 47
1, 265920, Note_on_c, 0, 63, 37
1, 266160, Note_on_c, 0, 81, 0
1, 266160, Note_on_c, 0, 78, 0
1, 266160, Note_on_c, 0, 84, 39
1, 266280, Note_on_c, 0, 63, 0
1, 266400, Tempo, 436300
1, 266400, Note_on_c, 0, 84, 0
1, 266400, Note_on_c, 0, 81, 43
1, 266400, Note_on_c, 0, 78, 36
1, 266400, Note_on_c, 0, 63, 37
1, 266520, Note_on_c, 0, 78, 0
1, 266520, Note_on_c, 0, 81, 0
1, 266640, Tempo, 450958
1, 266640, Note_on_c, 0, 78, 30
1, 266640, Note_on_c, 0, 81, 36
1, 266760, Note_on_c, 0, 81, 0
1, 266760, Note_on_c, 0, 78, 0
1, 266760, Note_on_c, 0, 63, 0
1, 266880, Tempo, 428388
1, 266880, Note_on_c, 0, 78, 39
1, 266880, Note_on_c, 0, 81, 47
1, 266880, Note_on_c, 0, 64, 37
1, 267120, Note_on_c, 0, 81, 0
1, 267120, Note_on_c, 0, 78, 0
1, 267120, Note_on_c, 0, 83, 39
1, 267360, Tempo, 436300
1, 267360, Note_on_c, 0, 83, 0
1, 267360, Note_on_c, 0, 64, 0
1, 267360, Note_on_c, 0, 79, 43
1, 267360, Note_on_c, 0, 76, 36
1, 267480, Note_on_c, 0, 76, 0
1, 267480, Note_on_c, 0, 79, 0
1, 267600, Tempo, 445831
1, 267600, Note_on_c, 0, 76, 30
1, 267600, Note_on_c, 0, 79, 36
1, 267720, Note_on_c, 0, 79, 0
1, 267720, Note_on_c, 0, 76, 0
1, 267840, Tempo, 428388
1, 267840, Note_on_c, 0, 76, 39
1, 267840, Note_on_c, 0, 79, 47
1, 267840, Note_on_c, 0, 61, 37
1, 268080, Note_on_c, 0, 79, 0
1, 268080, Note_on_c, 0, 76, 0
1, 268080, Note_on_c, 0, 82, 39
1, 268200, Note_on_c, 0, 61, 0
1, 268320, Tempo, 436300
1, 268320, Note_on_c, 0, 82, 0
1, 268320, Note_on_c, 0, 79, 43
1, 268320, Note_on_c, 0, 76, 36
1, 268320, Note_on_c, 0, 61, 37
1, 268440, Note_on_c, 0, 76, 0
1, 268440, Note_on_c, 0, 79, 0
1, 268560, Tempo, 466999
1, 268560, Note_on_c, 0, 76, 30
1, 268560, Note_on_c, 0, 79, 36
1, 268680, Note_on_c, 0, 79, 0
1, 268680, Note_on_c, 0, 76, 0
1, 268680, Note_on_c, 0, 61, 0
1, 268800, Tempo, 428388
1, 268800, Note_on_c, 0, 76, 39
1, 268800, Note_on_c, 0, 79, 47
1, 268800, Note_on_c, 0, 62, 37
1, 269040, Note_on_c, 0, 79, 0
1, 269040, Note_on_c, 0, 76, 0
1, 269040, Note_on_c, 0, 81, 39
1, 269280, Tempo, 436300
1, 269280, Note_on_c, 0, 81, 0
1, 269280, Note_on_c, 0, 62, 0
1, 269280, Note_on_c, 0, 78, 43
1, 269280, Note_on_c, 0, 74, 36
1, 269400, Note_on_c, 0, 74, 0
1, 269400, Note_on_c, 0, 78, 0
1, 269520, Note_on_c, 0, 74, 30
1, 269520, Note_on_c, 0, 78, 36
1, 269640, Note_on_c, 0, 78, 0
1, 269640, Note_on_c, 0, 74, 0
1, 269760, Tempo, 428388
1, 269760, Note_on_c, 0, 78, 53
1, 269760, Note_on_c, 0, 74, 45
1, 269760, Note_on_c, 0, 58, 45
1, 270000, Note_on_c, 0, 74, 0
1, 270000, Note_on_c, 0, 78, 0
1, 270000, Note_on_c, 0, 79, 42
1, 270120, Note_on_c, 0, 58, 0
1, 270240, Tempo, 436300
1, 270240, Note_on_c, 0, 79, 0
1, 270240, Note_on_c, 0, 73, 45
1, 270240, Note_on_c, 0, 76, 53
1, 270240, Note_on_c, 0, 58, 41
1, 270360, Note_on_c, 0, 76, 0
1, 270360, Note_on_c, 0, 73, 0
1, 270480, Tempo, 456517
1, 270480, Note_on_c, 0, 76, 45
1, 270480, Note_on_c, 0, 73, 38
1, 270600, Note_on_c, 0, 73, 0
1, 270600, Note_on_c, 0, 76, 0
1, 270600, Note_on_c, 0, 58, 0
1, 270720, Tempo, 428388
1, 270720, Note_on_c, 0, 76, 59
1, 270720, Note_on_c, 0, 73, 50
1, 270720, Note_on_c, 0, 59, 50
1, 270960, Note_on_c, 0, 73, 0
1, 270960, Note_on_c, 0, 76, 0
1, 270960, Note_on_c, 0, 78, 49
1, 271080, Note_on_c, 0, 59, 0
1, 271200, Tempo, 436300
1, 271200, Note_on_c, 0, 78, 0
1, 271200, Note_on_c, 0, 71, 48
1, 271200, Note_on_c, 0, 74, 57
1, 271200, Note_on_c, 0, 59, 46
1, 271320, Note_on_c, 0, 74, 0
1, 271320, Note_on_c, 0, 71, 0
1, 271440, Tempo, 456517
1, 271440, Note_on_c, 0, 74, 48
1, 271440, Note_on_c, 0, 71, 40
1, 271560, Note_on_c, 0, 71, 0
1, 271560, Note_on_c, 0, 74, 0
1, 271560, Note_on_c, 0, 59, 0
1, 271680, Tempo, 428388
1, 271680, Note_on_c, 0, 74, 65
1, 271680, Note_on_c, 0, 71, 55
1, 271680, Note_on_c, 0, 54, 50
1, 271680, Note_on_c, 0, 42, 42
1, 271920, Note_on_c, 0, 71, 0
1, 271920, Note_on_c, 0, 74, 0
1, 271920, Note_on_c, 0, 76, 51
1, 272040, Note_on_c, 0, 54, 0
1, 272040, Note_on_c, 0, 42, 0
1, 272160, Tempo, 436300
1, 272160, Note_on_c, 0, 76, 0
1, 272160, Note_on_c, 0, 72, 60
1, 272160, Note_on_c, 0, 69, 51
1, 272160, Note_on_c, 0, 54, 42
1, 272160, Note_on_c, 0, 42, 35
1, 272280, Note_on_c, 0, 69, 0
1, 272280, Note_on_c, 0, 72, 0
1, 272400, Tempo, 456517
1, 272400, Note_on_c, 0, 69, 41
1, 272400, Note_on_c, 0, 72, 49
1, 272520, Note_on_c, 0, 72, 0
1, 272520, Note_on_c, 0, 42, 0
1, 272520, Note_on_c, 0, 54, 0
1, 272520, Note_on_c, 0, 69, 0
1, 272640, Tempo, 439528
1, 272640, Note_on_c, 0, 71, 68
1, 272640, Note_on_c, 0, 55, 56
1, 272640, Note_on_c, 0, 43, 47
1, 272640, Control_c, 0, 64, 127
1, 272684, Tempo, 440270
1, 272760, Note_on_c, 0, 71, 0
1, 272760, Note_on_c, 0, 62, 50
1, 272804, Tempo, 438661
1, 272880, Note_on_c, 0, 62, 0
1, 272880, Note_on_c, 0, 71, 55
1, 272884, Tempo, 437063
1, 273000, Note_on_c, 0, 71, 0
1, 273000, Note_on_c, 0, 62, 49
1, 273004, Tempo, 435477
1, 273084, Tempo, 433902
1, 273120, Note_on_c, 0, 62, 0
1, 273120, Note_on_c, 0, 43, 0
1, 273120, Note_on_c, 0, 55, 0
1, 273120, Note_on_c, 0, 66, 66
1, 273120, Note_on_c, 0, 60, 53
1, 273120, Note_on_c, 0, 48, 45
1, 273139, Control_c, 0, 64, 0
1, 273240, Note_on_c, 0, 66, 0
1, 273240, Note_on_c, 0, 62, 48
1, 273240, Control_c, 0, 64, 127
1, 273360, Note_on_c, 0, 62, 0
1, 273360, Note_on_c, 0, 66, 53
1, 273480, Note_on_c, 0, 66, 0
1, 273480, Note_on_c, 0, 62, 47
1, 273600, Note_on_c, 0, 62, 0
1, 273600, Note_on_c, 0, 48, 0
1, 273600, Note_on_c, 0, 60, 0
1, 273600, Note_on_c, 0, 67, 63
1, 273600, Note_on_c, 0, 59, 61
1, 273600, Note_on_c, 0, 47, 51
1, 273618, Control_c, 0, 64, 0
1, 273720, Note_on_c, 0, 67, 0
1, 273720, Note_on_c, 0, 62, 48
1, 273720, Control_c, 0, 64, 127
1, 273840, Note_on_c, 0, 62, 0
1, 273840, Note_on_c, 0, 67, 53
1, 273960, Note_on_c, 0, 67, 0
1, 273960, Note_on_c, 0, 62, 48
1, 274059, Tempo, 437892
1, 274080, Note_on_c, 0, 62, 0
1, 274080, Note_on_c, 0, 47, 0
1, 274080, Note_on_c, 0, 59, 0
1, 274080, Note_on_c, 0, 69, 63
1, 274080, Note_on_c, 0, 54, 54
1, 274080, Note_on_c, 0, 42, 45
1, 274096, Control_c, 0, 64, 0
1, 274123, Tempo, 439528
1, 274186, Control_c, 0, 64, 127
1, 274200, Note_on_c, 0, 69, 0
1, 274200, Note_on_c, 0, 62, 47
1, 274219, Tempo, 439528
1, 274315, Tempo, 441176
1, 274320, Note_on_c, 0, 62, 0
1, 274320, Note_on_c, 0, 69, 53
1, 274411, Tempo, 442837
1, 274440, Note_on_c, 0, 69, 0
1, 274440, Note_on_c, 0, 62, 47
1, 274507, Tempo, 444510
1, 274560, Note_on_c, 0, 62, 0
1, 274560, Note_on_c, 0, 42, 0
1, 274560, Note_on_c, 0, 54, 0
1, 274560, Note_on_c, 0, 71, 68
1, 274560, Note_on_c, 0, 55, 56
1, 274560, Note_on_c, 0, 43, 47
1, 274568, Control_c, 0, 64, 0
1, 274571, Tempo, 446163
1, 274635, Control_c, 0, 64, 127
1, 274680, Tempo, 442837
1, 274680, Note_on_c, 0, 71, 0
1, 274680, Note_on_c, 0, 62, 50
1, 274800, Note_on_c, 0, 62, 0
1, 274800, Note_on_c, 0, 71, 55
1, 274920, Note_on_c, 0, 71, 0
1, 274920, Note_on_c, 0, 62, 49
1, 275040, Tempo, 437892
1, 275040, Note_on_c, 0, 62, 0
1, 275040, Note_on_c, 0, 43, 0
1, 275040, Note_on_c, 0, 55, 0
1, 275040, Note_on_c, 0, 67, 66
1, 275040, Note_on_c, 0, 52, 53
1, 275040, Note_on_c, 0, 40, 45
1, 275056, Control_c, 0, 64, 0
1, 275084, Tempo, 433902
1, 275120, Control_c, 0, 64, 127
1, 275160, Note_on_c, 0, 67, 0
1, 275160, Note_on_c, 0, 61, 48
1, 275280, Note_on_c, 0, 61, 0
1, 275280, Note_on_c, 0, 67, 53
1, 275400, Note_on_c, 0, 67, 0
1, 275400, Note_on_c, 0, 61, 47
1, 275520, Tempo, 441176
1, 275520, Note_on_c, 0, 61, 0
1, 275520, Note_on_c, 0, 40, 0
1, 275520, Note_on_c, 0, 52, 0
1, 275520, Note_on_c, 0, 66, 63
1, 275520, Note_on_c, 0, 50, 61
1, 275520, Note_on_c, 0, 38, 51
1, 275535, Control_c, 0, 64, 0
1, 275583, Control_c, 0, 64, 127
1, 275640, Note_on_c, 0, 66, 0
1, 275640, Note_on_c, 0, 62, 48
1, 275760, Note_on_c, 0, 62, 0
1, 275760, Note_on_c, 0, 66, 53
1, 275880, Note_on_c, 0, 66, 0
1, 275880, Note_on_c, 0, 62, 48
1, 276000, Tempo, 446163
1, 276000, Note_on_c, 0, 62, 0
1, 276000, Note_on_c, 0, 38, 0
1, 276000, Note_on_c, 0, 50, 0
1, 276000, Note_on_c, 0, 65, 63
1, 276000, Note_on_c, 0, 44, 54
1, 276000, Note_on_c, 0, 32, 45
1, 276011, Tempo, 442837
1, 276017, Control_c, 0, 64, 0
1, 276075, Tempo, 444510
1, 276086, Control_c, 0, 64, 127
1, 276107, Tempo, 446163
1, 276120, Note_on_c, 0, 65, 0
1, 276120, Note_on_c, 0, 62, 47
1, 276139, Tempo, 447861
1, 276171, Tempo, 449573
1, 276235, Tempo, 451297
1, 276240, Note_on_c, 0, 62, 0
1, 276240, Note_on_c, 0, 65, 53
1, 276267, Tempo, 453035
1, 276299, Tempo, 454752
1, 276331, Tempo, 456517
1, 276360, Note_on_c, 0, 65, 0
1, 276360, Note_on_c, 0, 62, 47
1, 276395, Tempo, 458295
1, 276427, Tempo, 460087
1, 276459, Tempo, 461894
1, 276480, Tempo, 426834
1, 276480, Note_on_c, 0, 62, 0
1, 276480, Note_on_c, 0, 32, 0
1, 276480, Note_on_c, 0, 44, 0
1, 276480, Note_on_c, 0, 64, 70
1, 276480, Note_on_c, 0, 33, 45
1, 276480, Note_on_c, 0, 45, 54
1, 276483, Control_c, 0, 64, 0
1, 276566, Control_c, 0, 64, 127
1, 276600, Note_on_c, 0, 64, 0
1, 276600, Note_on_c, 0, 61, 63
1, 276720, Note_on_c, 0, 61, 0
1, 276720, Note_on_c, 0, 64, 63
1, 276840, Tempo, 461894
1, 276840, Note_on_c, 0, 64, 0
1, 276840, Note_on_c, 0, 61, 63
1, 276960, Tempo, 441176
1, 276960, Note_on_c, 0, 61, 0
1, 276960, Note_on_c, 0, 45, 0
1, 276960, Note_on_c, 0, 33, 0
1, 276960, Note_on_c, 0, 69, 72
1, 276976, Control_c, 0, 64, 0
1, 277080, Note_on_c, 0, 69, 0
1, 277200, Note_on_c, 0, 45, 49
1, 277200, Note_on_c, 0, 33, 41
1, 277320, Note_on_c, 0, 33, 0
1, 277320, Note_on_c, 0, 45, 0
1, 277440, Tempo, 426834
1, 277440, Note_on_c, 0, 65, 69
1, 277440, Note_on_c, 0, 33, 45
1, 277440, Note_on_c, 0, 45, 54
1, 277537, Control_c, 0, 64, 127
1, 277560, Note_on_c, 0, 65, 0
1, 277560, Note_on_c, 0, 62, 63
1, 277680, Note_on_c, 0, 62, 0
1, 277680, Note_on_c, 0, 65, 63
1, 277800, Tempo, 463679
1, 277800, Note_on_c, 0, 65, 0
1, 277800, Note_on_c, 0, 62, 63
1, 277920, Tempo, 441176
1, 277920, Note_on_c, 0, 62, 0
1, 277920, Note_on_c, 0, 45, 0
1, 277920, Note_on_c, 0, 33, 0
1, 277920, Note_on_c, 0, 69, 71
1, 277935, Control_c, 0, 64, 0
1, 278040, Note_on_c, 0, 69, 0
1, 278160, Note_on_c, 0, 45, 48
1, 278160, Note_on_c, 0, 33, 40
1, 278280, Note_on_c, 0, 33, 0
1, 278280, Note_on_c, 0, 45, 0
1, 278400, Tempo, 425291
1, 278400, Note_on_c, 0, 64, 69
1, 278400, Note_on_c, 0, 33, 45
1, 278400, Note_on_c, 0, 45, 54
1, 278503, Control_c, 0, 64, 127
1, 278520, Note_on_c, 0, 64, 0
1, 278520, Note_on_c, 0, 61, 58
1, 278640, Note_on_c, 0, 61, 0
1, 278640, Note_on_c, 0, 64, 58
1, 278760, Tempo, 456517
1, 278760, Note_on_c, 0, 64, 0
1, 278760, Note_on_c, 0, 61, 57
1, 278880, Tempo, 444510
1, 278880, Note_on_c, 0, 61, 0
1, 278880, Note_on_c, 0, 45, 0
1, 278880, Note_on_c, 0, 33, 0
1, 278880, Note_on_c, 0, 69, 66
1, 278897, Control_c, 0, 64, 0
1, 279000, Note_on_c, 0, 69, 0
1, 279120, Note_on_c, 0, 33, 30
1, 279120, Note_on_c, 0, 45, 36
1, 279240, Note_on_c, 0, 45, 0
1, 279240, Note_on_c, 0, 33, 0
1, 279360, Tempo, 436300
1, 279360, Note_on_c, 0, 68, 55
1, 279360, Note_on_c, 0, 45, 41
1, 279360, Note_on_c, 0, 33, 34
1, 279475, Control_c, 0, 64, 127
1, 279480, Note_on_c, 0, 68, 0
1, 279480, Note_on_c, 0, 62, 43
1, 279600, Note_on_c, 0, 62, 0
1, 279600, Note_on_c, 0, 68, 43
1, 279720, Tempo, 490637
1, 279720, Note_on_c, 0, 68, 0
1, 279720, Note_on_c, 0, 62, 43
1, 279840, Tempo, 456517
1, 279840, Note_on_c, 0, 62, 0
1, 279840, Note_on_c, 0, 33, 0
1, 279840, Note_on_c, 0, 45, 0
1, 279840, Note_on_c, 0, 71, 55
1, 279856, Control_c, 0, 64, 0
1, 279960, Note_on_c, 0, 71, 0
1, 280080, Note_on_c, 0, 33, 21
1, 280080, Note_on_c, 0, 45, 25
1, 280200, Tempo, 619259
1, 280200, Note_on_c, 0, 45, 0
1, 280200, Note_on_c, 0, 33, 0
1, 280311, Tempo, 579766
1, 280320, Note_on_c, 0, 67, 41
1, 280320, Note_on_c, 0, 33, 28
1, 280320, Note_on_c, 0, 45, 34
1, 280324, Tempo, 625782
1, 280364, Tempo, 632378
1, 280404, Tempo, 642536
1, 280405, Control_c, 0, 64, 127
1, 280440, Note_on_c, 0, 67, 0
1, 280440, Note_on_c, 0, 64, 34
1, 280444, Tempo, 653026
1, 280484, Tempo, 663864
1, 280524, Tempo, 675068
1, 280560, Note_on_c, 0, 64, 0
1, 280560, Note_on_c, 0, 67, 34
1, 280564, Tempo, 686656
1, 280604, Tempo, 698649
1, 280644, Tempo, 711069
1, 280680, Tempo, 883913
1, 280680, Note_on_c, 0, 67, 0
1, 280680, Note_on_c, 0, 64, 34
1, 280800, Tempo, 498960
1, 280800, Note_on_c, 0, 64, 0
1, 280800, Note_on_c, 0, 73, 39
1, 280816, Control_c, 0, 64, 0
1, 281280, Note_on_c, 0, 73, 0
1, 281280, Note_on_c, 0, 45, 0
1, 281280, Note_on_c, 0, 33, 0
1, 281340, Tempo, 498960
1, 281760, Tempo, 418439
1, 281760, Note_on_c, 0, 71, 50
1, 281880, Note_on_c, 0, 71, 0
1, 281880, Note_on_c, 0, 69, 46
1, 282000, Tempo, 449809
1, 282000, Note_on_c, 0, 69, 0
1, 282000, Note_on_c, 0, 68, 46
1, 282120, Note_on_c, 0, 68, 0
1, 282120, Note_on_c, 0, 69, 46
1, 282240, Tempo, 439915
1, 282240, Note_on_c, 0, 69, 0
1, 282240, Note_on_c, 0, 66, 48
1, 282240, Note_on_c, 0, 74, 55
1, 282240, Note_on_c, 0, 50, 32
1, 282480, Tempo, 435129
1, 282480, Note_on_c, 0, 50, 0
1, 282480, Note_on_c, 0, 57, 26
1, 282720, Tempo, 427381
1, 282720, Note_on_c, 0, 57, 0
1, 282720, Note_on_c, 0, 54, 26
1, 282960, Note_on_c, 0, 54, 0
1, 282960, Note_on_c, 0, 74, 0
1, 282960, Note_on_c, 0, 66, 0
1, 282960, Note_on_c, 0, 69, 42
1, 282960, Note_on_c, 0, 57, 26
1, 283200, Note_on_c, 0, 57, 0
1, 283200, Note_on_c, 0, 69, 0
1, 283200, Note_on_c, 0, 66, 46
1, 283200, Note_on_c, 0, 50, 30
1, 283440, Note_on_c, 0, 50, 0
1, 283440, Note_on_c, 0, 66, 0
1, 283440, Note_on_c, 0, 69, 43
1, 283440, Note_on_c, 0, 57, 28
1, 283680, Note_on_c, 0, 57, 0
1, 283680, Note_on_c, 0, 69, 0
1, 283680, Note_on_c, 0, 74, 46
1, 283680, Note_on_c, 0, 54, 28
1, 283920, Tempo, 458400
1, 283920, Note_on_c, 0, 54, 0
1, 283920, Note_on_c, 0, 74, 0
1, 283920, Note_on_c, 0, 78, 46
1, 283920, Note_on_c, 0, 57, 28
1, 284100, Note_on_c, 0, 78, 0
1, 284100, Note_on_c, 0, 69, 45
1, 284160, Tempo, 427686
1, 284160, Note_on_c, 0, 69, 0
1, 284160, Note_on_c, 0, 57, 0
1, 284160, Note_on_c, 0, 81, 54
1, 284160, Note_on_c, 0, 50, 37
1, 284400, Note_on_c, 0, 50, 0
1, 284400, Note_on_c, 0, 57, 26
1, 284640, Tempo, 433557
1, 284640, Note_on_c, 0, 57, 0
1, 284640, Note_on_c, 0, 54, 26
1, 284880, Tempo, 419903
1, 284880, Note_on_c, 0, 54, 0
1, 284880, Note_on_c, 0, 81, 0
1, 284880, Note_on_c, 0, 78, 40
1, 284880, Note_on_c, 0, 57, 26
1, 285000, Note_on_c, 0, 78, 0
1, 285000, Note_on_c, 0, 74, 40
1, 285120, Tempo, 427381
1, 285120, Note_on_c, 0, 74, 0
1, 285120, Note_on_c, 0, 57, 0
1, 285120, Note_on_c, 0, 69, 47
1, 285120, Note_on_c, 0, 50, 31
1, 285240, Note_on_c, 0, 69, 0
1, 285360, Note_on_c, 0, 50, 0
1, 285360, Note_on_c, 0, 57, 27
1, 285600, Tempo, 416985
1, 285600, Note_on_c, 0, 57, 0
1, 285600, Note_on_c, 0, 74, 45
1, 285600, Note_on_c, 0, 54, 27
1, 285720, Note_on_c, 0, 74, 0
1, 285720, Note_on_c, 0, 76, 40
1, 285840, Note_on_c, 0, 76, 0
1, 285840, Note_on_c, 0, 54, 0
1, 285840, Note_on_c, 0, 74, 40
1, 285840, Note_on_c, 0, 57, 27
1, 285960, Note_on_c, 0, 74, 0
1, 285960, Note_on_c, 0, 73, 41
1, 286080, Tempo, 433557
1, 286080, Note_on_c, 0, 73, 0
1, 286080, Note_on_c, 0, 57, 0
1, 286080, Note_on_c, 0, 71, 48
1, 286080, Note_on_c, 0, 50, 32
1, 286200, Note_on_c, 0, 71, 0
1, 286320, Note_on_c, 0, 50, 0
1, 286320, Note_on_c, 0, 59, 26
1, 286560, Tempo, 419903
1, 286560, Note_on_c, 0, 59, 0
1, 286560, Note_on_c, 0, 74, 45
1, 286560, Note_on_c, 0, 55, 26
1, 286680, Note_on_c, 0, 74, 0
1, 286680, Note_on_c, 0, 76, 39
1, 286800, Note_on_c, 0, 76, 0
1, 286800, Note_on_c, 0, 55, 0
1, 286800, Note_on_c, 0, 74, 40
1, 286800, Note_on_c, 0, 59, 26
1, 286920, Note_on_c, 0, 74, 0
1, 286920, Note_on_c, 0, 73, 41
1, 287040, Tempo, 431997
1, 287040, Note_on_c, 0, 73, 0
1, 287040, Note_on_c, 0, 59, 0
1, 287040, Note_on_c, 0, 71, 46
1, 287040, Note_on_c, 0, 50, 31
1, 287160, Note_on_c, 0, 71, 0
1, 287280, Note_on_c, 0, 50, 0
1, 287280, Note_on_c, 0, 59, 27
1, 287520, Note_on_c, 0, 59, 0
1, 287520, Note_on_c, 0, 86, 48
1, 287520, Note_on_c, 0, 55, 27
1, 287640, Tempo, 424358
1, 287640, Note_on_c, 0, 86, 0
1, 287640, Note_on_c, 0, 83, 40
1, 287760, Note_on_c, 0, 83, 0
1, 287760, Note_on_c, 0, 55, 0
1, 287760, Note_on_c, 0, 86, 44
1, 287760, Note_on_c, 0, 59, 27
1, 287880, Note_on_c, 0, 86, 0
1, 287880, Note_on_c, 0, 83, 40
1, 288000, Note_on_c, 0, 83, 0
1, 288000, Note_on_c, 0, 59, 0
1, 288000, Note_on_c, 0, 81, 50
1, 288000, Note_on_c, 0, 50, 37
1, 288120, Tempo, 427381
1, 288120, Note_on_c, 0, 81, 0
1, 288120, Note_on_c, 0, 86, 51
1, 288240, Note_on_c, 0, 86, 0
1, 288240, Note_on_c, 0, 50, 0
1, 288240, Note_on_c, 0, 85, 48
1, 288240, Note_on_c, 0, 57, 26
1, 288360, Note_on_c, 0, 85, 0
1, 288360, Note_on_c, 0, 83, 46
1, 288400, Tempo, 425864
1, 288444, Tempo, 426197
1, 288480, Note_on_c, 0, 83, 0
1, 288480, Note_on_c, 0, 57, 0
1, 288480, Note_on_c, 0, 81, 48
1, 288480, Note_on_c, 0, 54, 26
1, 288484, Tempo, 427716
1, 288524, Tempo, 429246
1, 288564, Tempo, 430787
1, 288600, Note_on_c, 0, 81, 0
1, 288600, Note_on_c, 0, 79, 43
1, 288604, Tempo, 432339
1, 288644, Tempo, 433902
1, 288720, Tempo, 467727
1, 288720, Note_on_c, 0, 79, 0
1, 288720, Note_on_c, 0, 54, 0
1, 288720, Note_on_c, 0, 78, 43
1, 288720, Note_on_c, 0, 57, 26
1, 288840, Note_on_c, 0, 78, 0
1, 288840, Note_on_c, 0, 76, 42
1, 288960, Tempo, 431997
1, 288960, Note_on_c, 0, 76, 0
1, 288960, Note_on_c, 0, 57, 0
1, 288960, Note_on_c, 0, 74, 48
1, 288960, Note_on_c, 0, 54, 31
1, 289200, Note_on_c, 0, 54, 0
1, 289200, Note_on_c, 0, 57, 18
1, 289440, Note_on_c, 0, 57, 0
1, 289440, Note_on_c, 0, 74, 0
1, 289440, Note_on_c, 0, 50, 22
1, 289680, Note_on_c, 0, 50, 0
1, 289680, Note_on_c, 0, 66, 41
1, 289680, Note_on_c, 0, 57, 19
1, 289920, Tempo, 436713
1, 289920, Note_on_c, 0, 57, 0
1, 289920, Note_on_c, 0, 66, 0
1, 289920, Note_on_c, 0, 67, 46
1, 289920, Note_on_c, 0, 49, 29
1, 290040, Note_on_c, 0, 67, 0
1, 290160, Note_on_c, 0, 49, 0
1, 290160, Note_on_c, 0, 67, 41
1, 290160, Note_on_c, 0, 57, 24
1, 290280, Tempo, 425864
1, 290280, Note_on_c, 0, 67, 0
1, 290400, Tempo, 421704
1, 290400, Note_on_c, 0, 57, 0
1, 290400, Note_on_c, 0, 69, 50
1, 290400, Note_on_c, 0, 52, 24
1, 290520, Note_on_c, 0, 69, 0
1, 290520, Note_on_c, 0, 67, 41
1, 290640, Tempo, 458400
1, 290640, Note_on_c, 0, 67, 0
1, 290640, Note_on_c, 0, 52, 0
1, 290640, Note_on_c, 0, 66, 42
1, 290640, Note_on_c, 0, 57, 24
1, 290760, Note_on_c, 0, 66, 0
1, 290760, Note_on_c, 0, 67, 48
1, 290880, Tempo, 431997
1, 290880, Note_on_c, 0, 67, 0
1, 290880, Note_on_c, 0, 57, 0
1, 290880, Note_on_c, 0, 76, 56
1, 290880, Note_on_c, 0, 49, 31
1, 291120, Note_on_c, 0, 49, 0
1, 291120, Note_on_c, 0, 57, 27
1, 291360, Note_on_c, 0, 57, 0
1, 291360, Note_on_c, 0, 52, 27
1, 291600, Note_on_c, 0, 52, 0
1, 291600, Note_on_c, 0, 76, 0
1, 291600, Note_on_c, 0, 67, 40
1, 291600, Note_on_c, 0, 57, 27
1, 291840, Tempo, 436713
1, 291840, Note_on_c, 0, 57, 0
1, 291840, Note_on_c, 0, 67, 0
1, 291840, Note_on_c, 0, 66, 46
1, 291840, Note_on_c, 0, 50, 32
1, 291960, Note_on_c, 0, 66, 0
1, 292080, Note_on_c, 0, 50, 0
1, 292080, Note_on_c, 0, 66, 40
1, 292080, Note_on_c, 0, 57, 23
1, 292200, Note_on_c, 0, 66, 0
1, 292320, Tempo, 421704
1, 292320, Note_on_c, 0, 57, 0
1, 292320, Note_on_c, 0, 67, 50
1, 292320, Note_on_c, 0, 54, 23
1, 292440, Note_on_c, 0, 67, 0
1, 292440, Note_on_c, 0, 66, 40
1, 292560, Tempo, 454925
1, 292560, Note_on_c, 0, 66, 0
1, 292560, Note_on_c, 0, 54, 0
1, 292560, Note_on_c, 0, 64, 46
1, 292560, Note_on_c, 0, 57, 23
1, 292680, Note_on_c, 0, 64, 0
1, 292680, Note_on_c, 0, 66, 48
1, 292800, Tempo, 431997
1, 292800, Note_on_c, 0, 66, 0
1, 292800, Note_on_c, 0, 57, 0
1, 292800, Note_on_c, 0, 74, 56
1, 292800, Note_on_c, 0, 50, 31
1, 293040, Note_on_c, 0, 50, 0
1, 293040, Note_on_c, 0, 57, 27
1, 293280, Note_on_c, 0, 57, 0
1, 293280, Note_on_c, 0, 54, 27
1, 293520, Note_on_c, 0, 54, 0
1, 293520, Note_on_c, 0, 74, 0
1, 293520, Note_on_c, 0, 66, 40
1, 293520, Note_on_c, 0, 57, 27
1, 293760, Tempo, 438308
1, 293760, Note_on_c, 0, 57, 0
1, 293760, Note_on_c, 0, 66, 0
1, 293760, Note_on_c, 0, 66, 47
1, 293760, Note_on_c, 0, 43, 32
1, 293760, Note_on_c, 0, 55, 32
1, 294000, Note_on_c, 0, 66, 0
1, 294000, Note_on_c, 0, 64, 37
1, 294240, Note_on_c, 0, 64, 0
1, 294240, Note_on_c, 0, 67, 40
1, 294480, Tempo, 453206
1, 294480, Note_on_c, 0, 67, 0
1, 294480, Note_on_c, 0, 71, 37
1, 294720, Tempo, 433557
1, 294720, Note_on_c, 0, 71, 0
1, 294720, Note_on_c, 0, 55, 0
1, 294720, Note_on_c, 0, 43, 0
1, 294720, Note_on_c, 0, 71, 45
1, 294720, Note_on_c, 0, 45, 32
1, 294720, Note_on_c, 0, 57, 32
1, 294960, Note_on_c, 0, 71, 0
1, 294960, Note_on_c, 0, 61, 37
1, 295200, Tempo, 436713
1, 295200, Note_on_c, 0, 61, 0
1, 295200, Note_on_c, 0, 64, 40
1, 295440, Tempo, 469153
1, 295440, Note_on_c, 0, 64, 0
1, 295440, Note_on_c, 0, 69, 37
1, 295680, Tempo, 439915
1, 295680, Note_on_c, 0, 69, 0
1, 295680, Note_on_c, 0, 57, 0
1, 295680, Note_on_c, 0, 45, 0
1, 295680, Note_on_c, 0, 67, 45
1, 295680, Note_on_c, 0, 64, 45
1, 295920, Note_on_c, 0, 38, 31
1, 296160, Note_on_c, 0, 38, 0
1, 296160, Note_on_c, 0, 42, 32
1, 296400, Tempo, 446462
1, 296400, Note_on_c, 0, 42, 0
1, 296400, Note_on_c, 0, 45, 34
1, 296640, Note_on_c, 0, 45, 0
1, 296640, Note_on_c, 0, 64, 0
1, 296640, Note_on_c, 0, 67, 0
1, 296640, Note_on_c, 0, 62, 40
1, 296640, Note_on_c, 0, 66, 40
1, 296640, Note_on_c, 0, 50, 36
1, 296760, Tempo, 438308
1, 296880, Note_on_c, 0, 50, 0
1, 296880, Note_on_c, 0, 45, 31
1, 297120, Note_on_c, 0, 45, 0
1, 297120, Note_on_c, 0, 66, 0
1, 297120, Note_on_c, 0, 62, 0
1, 297120, Note_on_c, 0, 38, 32
1, 297360, Note_on_c, 0, 38, 0
1, 297360, Note_on_c, 0, 66, 40
1, 297360, Note_on_c, 0, 50, 31
1, 297560, Tempo, 436713
1, 297600, Note_on_c, 0, 50, 0
1, 297600, Note_on_c, 0, 66, 0
1, 297600, Note_on_c, 0, 67, 46
1, 297600, Note_on_c, 0, 49, 43
1, 297680, Tempo, 435129
1, 297720, Note_on_c, 0, 67, 0
1, 297720, Note_on_c, 0, 64, 37
1, 297800, Tempo, 433557
1, 297840, Note_on_c, 0, 64, 0
1, 297840, Note_on_c, 0, 49, 0
1, 297840, Note_on_c, 0, 66, 38
1, 297840, Note_on_c, 0, 57, 36
1, 297920, Tempo, 431997
1, 297960, Note_on_c, 0, 66, 0
1, 297960, Note_on_c, 0, 67, 39
1, 298040, Tempo, 430447
1, 298080, Note_on_c, 0, 67, 0
1, 298080, Note_on_c, 0, 57, 0
1, 298080, Note_on_c, 0, 69, 46
1, 298080, Note_on_c, 0, 52, 40
1, 298160, Tempo, 428908
1, 298200, Note_on_c, 0, 69, 0
1, 298200, Note_on_c, 0, 71, 39
1, 298240, Tempo, 427381
1, 298320, Note_on_c, 0, 71, 0
1, 298320, Note_on_c, 0, 52, 0
1, 298320, Note_on_c, 0, 73, 39
1, 298320, Note_on_c, 0, 57, 36
1, 298360, Tempo, 424358
1, 298440, Note_on_c, 0, 73, 0
1, 298440, Note_on_c, 0, 74, 40
1, 298560, Note_on_c, 0, 74, 0
1, 298560, Note_on_c, 0, 57, 0
1, 298560, Note_on_c, 0, 76, 48
1, 298560, Note_on_c, 0, 49, 46
1, 298680, Note_on_c, 0, 76, 0
1, 298680, Note_on_c, 0, 74, 40
1, 298800, Note_on_c, 0, 74, 0
1, 298800, Note_on_c, 0, 49, 0
1, 298800, Note_on_c, 0, 73, 41
1, 298800, Note_on_c, 0, 57, 36
1, 298920, Note_on_c, 0, 73, 0
1, 298920, Note_on_c, 0, 71, 42
1, 299040, Note_on_c, 0, 71, 0
1, 299040, Note_on_c, 0, 57, 0
1, 299040, Note_on_c, 0, 69, 48
1, 299040, Note_on_c, 0, 52, 39
1, 299160, Note_on_c, 0, 69, 0
1, 299160, Note_on_c, 0, 67, 41
1, 299280, Tempo, 469153
1, 299280, Note_on_c, 0, 67, 0
1, 299280, Note_on_c, 0, 52, 0
1, 299280, Note_on_c, 0, 66, 41
1, 299280, Note_on_c, 0, 57, 36
1, 299400, Note_on_c, 0, 66, 0
1, 299400, Note_on_c, 0, 64, 41
1, 299520, Tempo, 430447
1, 299520, Note_on_c, 0, 64, 0
1, 299520, Note_on_c, 0, 57, 0
1, 299520, Note_on_c, 0, 66, 49
1, 299520, Note_on_c, 0, 50, 47
1, 299640, Note_on_c, 0, 66, 0
1, 299640, Note_on_c, 0, 62, 40
1, 299760, Note_on_c, 0, 62, 0
1, 299760, Note_on_c, 0, 50, 0
1, 299760, Note_on_c, 0, 64, 40
1, 299760, Note_on_c, 0, 57, 36
1, 299880, Note_on_c, 0, 64, 0
1, 299880, Note_on_c, 0, 66, 42
1, 300000, Note_on_c, 0, 66, 0
1, 300000, Note_on_c, 0, 57, 0
1, 300000, Note_on_c, 0, 67, 51
1, 300000, Note_on_c, 0, 54, 41
1, 300120, Note_on_c, 0, 67, 0
1, 300120, Note_on_c, 0, 69, 42
1, 300240, Note_on_c, 0, 69, 0
1, 300240, Note_on_c, 0, 54, 0
1, 300240, Note_on_c, 0, 71, 44
1, 300240, Note_on_c, 0, 57, 36
1, 300360, Note_on_c, 0, 71, 0
1, 300360, Note_on_c, 0, 73, 46
1, 300480, Tempo, 431997
1, 300480, Note_on_c, 0, 73, 0
1, 300480, Note_on_c, 0, 57, 0
1, 300480, Note_on_c, 0, 74, 57
1, 300480, Note_on_c, 0, 50, 48
1, 300544, Tempo, 433557
1, 300576, Tempo, 435129
1, 300600, Note_on_c, 0, 74, 0
1, 300600, Note_on_c, 0, 76, 47
1, 300608, Tempo, 436713
1, 300640, Tempo, 438308
1, 300672, Tempo, 439915
1, 300704, Tempo, 441534
1, 300720, Note_on_c, 0, 76, 0
1, 300720, Note_on_c, 0, 50, 0
1, 300720, Note_on_c, 0, 78, 49
1, 300720, Note_on_c, 0, 57, 40
1, 300768, Tempo, 443164
1, 300800, Tempo, 444807
1, 300832, Tempo, 446462
1, 300840, Note_on_c, 0, 78, 0
1, 300840, Note_on_c, 0, 79, 48
1, 300864, Tempo, 448129
1, 300896, Tempo, 449809
1, 300928, Tempo, 451501
1, 300960, Note_on_c, 0, 79, 0
1, 300960, Note_on_c, 0, 57, 0
1, 300960, Note_on_c, 0, 81, 57
1, 300960, Note_on_c, 0, 54, 45
1, 300992, Tempo, 453206
1, 301024, Tempo, 454925
1, 301056, Tempo, 456656
1, 301080, Note_on_c, 0, 81, 0
1, 301080, Note_on_c, 0, 83, 57
1, 301088, Tempo, 458400
1, 301120, Tempo, 460158
1, 301152, Tempo, 461929
1, 301200, Note_on_c, 0, 83, 0
1, 301200, Note_on_c, 0, 54, 0
1, 301200, Note_on_c, 0, 85, 64
1, 301200, Note_on_c, 0, 57, 43
1, 301216, Tempo, 463714
1, 301248, Tempo, 465513
1, 301280, Tempo, 467326
1, 301312, Tempo, 469153
1, 301320, Note_on_c, 0, 85, 0
1, 301320, Note_on_c, 0, 86, 69
1, 301344, Tempo, 470995
1, 301376, Tempo, 472851
1, 301408, Tempo, 474721
1, 301440, Tempo, 476607
1, 301440, Note_on_c, 0, 86, 0
1, 301440, Note_on_c, 0, 57, 0
1, 301440, Note_on_c, 0, 55, 58
1, 301440, Note_on_c, 0, 43, 49
1, 301560, Note_on_c, 0, 71, 54
1, 301644, Tempo, 445170
1, 301680, Note_on_c, 0, 71, 0
1, 301680, Note_on_c, 0, 76, 55
1, 301724, Tempo, 443525
1, 301764, Tempo, 441891
1, 301800, Note_on_c, 0, 76, 0
1, 301800, Note_on_c, 0, 79, 61
1, 301844, Tempo, 440270
1, 301884, Tempo, 438661
1, 301920, Note_on_c, 0, 79, 0
1, 301920, Note_on_c, 0, 83, 65
1, 301964, Tempo, 437063
1, 302004, Tempo, 435477
1, 302040, Note_on_c, 0, 83, 0
1, 302040, Note_on_c, 0, 81, 59
1, 302084, Tempo, 433902
1, 302124, Tempo, 432339
1, 302160, Note_on_c, 0, 81, 0
1, 302160, Note_on_c, 0, 79, 59
1, 302280, Note_on_c, 0, 79, 0
1, 302280, Note_on_c, 0, 78, 55
1, 302400, Note_on_c, 0, 78, 0
1, 302400, Note_on_c, 0, 43, 0
1, 302400, Note_on_c, 0, 55, 0
1, 302400, Note_on_c, 0, 76, 54
1, 302400, Note_on_c, 0, 45, 41
1, 302400, Note_on_c, 0, 57, 49
1, 302484, Tempo, 427716
1, 302520, Note_on_c, 0, 76, 0
1, 302520, Note_on_c, 0, 74, 53
1, 302640, Note_on_c, 0, 74, 0
1, 302640, Note_on_c, 0, 73, 51
1, 302644, Tempo, 429246
1, 302760, Note_on_c, 0, 73, 0
1, 302760, Note_on_c, 0, 71, 51
1, 302804, Tempo, 430787
1, 302880, Note_on_c, 0, 71, 0
1, 302880, Note_on_c, 0, 57, 0
1, 302880, Note_on_c, 0, 45, 0
1, 302880, Note_on_c, 0, 69, 55
1, 302880, Note_on_c, 0, 45, 38
1, 302880, Note_on_c, 0, 57, 45
1, 302924, Tempo, 432339
1, 303000, Note_on_c, 0, 69, 0
1, 303000, Note_on_c, 0, 67, 60
1, 303084, Tempo, 433902
1, 303120, Note_on_c, 0, 67, 0
1, 303120, Note_on_c, 0, 66, 63
1, 303204, Tempo, 435477
1, 303232, Tempo, 439915
1, 303240, Note_on_c, 0, 66, 0
1, 303240, Note_on_c, 0, 64, 65
1, 303360, Tempo, 427381
1, 303360, Note_on_c, 0, 64, 0
1, 303360, Note_on_c, 0, 57, 0
1, 303360, Note_on_c, 0, 45, 0
1, 303360, Note_on_c, 0, 62, 78
1, 303360, Note_on_c, 0, 38, 63
1, 303600, Note_on_c, 0, 38, 0
1, 303600, Note_on_c, 0, 42, 50
1, 303840, Tempo, 435129
1, 303840, Note_on_c, 0, 42, 0
1, 303840, Note_on_c, 0, 45, 56
1, 304080, Tempo, 427381
1, 304080, Note_on_c, 0, 45, 0
1, 304080, Note_on_c, 0, 62, 0
1, 304080, Note_on_c, 0, 62, 61
1, 304080, Note_on_c, 0, 50, 50
1, 304320, Note_on_c, 0, 50, 0
1, 304320, Note_on_c, 0, 62, 0
1, 304320, Note_on_c, 0, 61, 65
1, 304320, Note_on_c, 0, 38, 46
1, 304560, Note_on_c, 0, 38, 0
1, 304560, Note_on_c, 0, 61, 0
1, 304560, Note_on_c, 0, 62, 63
1, 304560, Note_on_c, 0, 50, 33
1, 304800, Note_on_c, 0, 50, 0
1, 304800, Note_on_c, 0, 62, 0
1, 304800, Note_on_c, 0, 60, 65
1, 304800, Note_on_c, 0, 38, 37
1, 305040, Tempo, 439915
1, 305040, Note_on_c, 0, 38, 0
1, 305040, Note_on_c, 0, 60, 0
1, 305040, Note_on_c, 0, 66, 62
1, 305040, Note_on_c, 0, 50, 32
1, 305280, Tempo, 425864
1, 305280, Note_on_c, 0, 50, 0
1, 305280, Note_on_c, 0, 66, 0
1, 305280, Note_on_c, 0, 59, 65
1, 305280, Note_on_c, 0, 38, 46
1, 305520, Note_on_c, 0, 38, 0
1, 305520, Note_on_c, 0, 59, 0
1, 305520, Note_on_c, 0, 67, 63
1, 305520, Note_on_c, 0, 50, 31
1, 305760, Tempo, 418439
1, 305760, Note_on_c, 0, 50, 0
1, 305760, Note_on_c, 0, 67, 0
1, 305760, Note_on_c, 0, 69, 65
1, 305760, Note_on_c, 0, 38, 36
1, 305880, Note_on_c, 0, 69, 0
1, 305880, Note_on_c, 0, 67, 62
1, 306000, Note_on_c, 0, 67, 0
1, 306000, Note_on_c, 0, 38, 0
1, 306000, Note_on_c, 0, 66, 62
1, 306000, Note_on_c, 0, 50, 33
1, 306120, Note_on_c, 0, 66, 0
1, 306120, Note_on_c, 0, 67, 62
1, 306240, Tempo, 433557
1, 306240, Note_on_c, 0, 67, 0
1, 306240, Note_on_c, 0, 50, 0
1, 306240, Note_on_c, 0, 71, 71
1, 306240, Note_on_c, 0, 38, 46
1, 306480, Note_on_c, 0, 38, 0
1, 306480, Note_on_c, 0, 71, 0
1, 306480, Note_on_c, 0, 67, 65
1, 306480, Note_on_c, 0, 50, 32
1, 306720, Note_on_c, 0, 50, 0
1, 306720, Note_on_c, 0, 67, 0
1, 306720, Note_on_c, 0, 64, 70
1, 306720, Note_on_c, 0, 38, 37
1, 306960, Tempo, 474721
1, 306960, Note_on_c, 0, 38, 0
1, 306960, Note_on_c, 0, 64, 0
1, 306960, Note_on_c, 0, 73, 68
1, 306960, Note_on_c, 0, 50, 32
1, 307200, Tempo, 427381
1, 307200, Note_on_c, 0, 50, 0
1, 307200, Note_on_c, 0, 73, 0
1, 307200, Note_on_c, 0, 66, 73
1, 307200, Note_on_c, 0, 74, 82
1, 307200, Note_on_c, 0, 38, 63
1, 307440, Note_on_c, 0, 38, 0
1, 307440, Note_on_c, 0, 42, 50
1, 307680, Tempo, 435129
1, 307680, Note_on_c, 0, 42, 0
1, 307680, Note_on_c, 0, 45, 56
1, 307920, Tempo, 427381
1, 307920, Note_on_c, 0, 45, 0
1, 307920, Note_on_c, 0, 74, 0
1, 307920, Note_on_c, 0, 66, 0
1, 307920, Note_on_c, 0, 74, 67
1, 307920, Note_on_c, 0, 50, 50
1, 308160, Note_on_c, 0, 50, 0
1, 308160, Note_on_c, 0, 74, 0
1, 308160, Note_on_c, 0, 73, 71
1, 308160, Note_on_c, 0, 38, 46
1, 308400, Note_on_c, 0, 38, 0
1, 308400, Note_on_c, 0, 73, 0
1, 308400, Note_on_c, 0, 74, 69
1, 308400, Note_on_c, 0, 50, 32
1, 308640, Note_on_c, 0, 50, 0
1, 308640, Note_on_c, 0, 74, 0
1, 308640, Note_on_c, 0, 72, 71
1, 308640, Note_on_c, 0, 38, 38
1, 308880, Tempo, 439915
1, 308880, Note_on_c, 0, 38, 0
1, 308880, Note_on_c, 0, 72, 0
1, 308880, Note_on_c, 0, 78, 68
1, 308880, Note_on_c, 0, 50, 34
1, 309120, Tempo, 425864
1, 309120, Note_on_c, 0, 50, 0
1, 309120, Note_on_c, 0, 78, 0
1, 309120, Note_on_c, 0, 71, 71
1, 309120, Note_on_c, 0, 38, 46
1, 309240, Note_on_c, 0, 71, 0
1, 309240, Note_on_c, 0, 79, 64
1, 309360, Note_on_c, 0, 79, 0
1, 309360, Note_on_c, 0, 38, 0
1, 309360, Note_on_c, 0, 78, 69
1, 309360, Note_on_c, 0, 50, 32
1, 309480, Note_on_c, 0, 78, 0
1, 309480, Note_on_c, 0, 79, 65
1, 309600, Tempo, 418439
1, 309600, Note_on_c, 0, 79, 0
1, 309600, Note_on_c, 0, 50, 0
1, 309600, Note_on_c, 0, 81, 71
1, 309600, Note_on_c, 0, 38, 36
1, 309720, Note_on_c, 0, 81, 0
1, 309720, Note_on_c, 0, 79, 68
1, 309840, Note_on_c, 0, 79, 0
1, 309840, Note_on_c, 0, 38, 0
1, 309840, Note_on_c, 0, 78, 68
1, 309840, Note_on_c, 0, 50, 32
1, 309960, Note_on_c, 0, 78, 0
1, 309960, Note_on_c, 0, 79, 68
1, 310080, Tempo, 424628
1, 310080, Note_on_c, 0, 79, 0
1, 310080, Note_on_c, 0, 50, 0
1, 310080, Note_on_c, 0, 83, 78
1, 310080, Note_on_c, 0, 38, 46
1, 310320, Note_on_c, 0, 38, 0
1, 310320, Note_on_c, 0, 83, 0
1, 310320, Note_on_c, 0, 79, 71
1, 310320, Note_on_c, 0, 50, 33
1, 310560, Note_on_c, 0, 50, 0
1, 310560, Note_on_c, 0, 79, 0
1, 310560, Note_on_c, 0, 76, 77
1, 310560, Note_on_c, 0, 38, 39
1, 310800, Tempo, 442282
1, 310800, Note_on_c, 0, 38, 0
1, 310800, Note_on_c, 0, 76, 0
1, 310800, Note_on_c, 0, 85, 71
1, 310800, Note_on_c, 0, 50, 36
1, 311040, Tempo, 417072
1, 311040, Note_on_c, 0, 50, 0
1, 311040, Note_on_c, 0, 85, 0
1, 311040, Note_on_c, 0, 86, 88
1, 311040, Note_on_c, 0, 38, 63
1, 311077, Tempo, 423101
1, 311160, Note_on_c, 0, 86, 0
1, 311160, Note_on_c, 0, 74, 64
1, 311237, Tempo, 421585
1, 311280, Note_on_c, 0, 74, 0
1, 311280, Note_on_c, 0, 38, 0
1, 311280, Note_on_c, 0, 76, 64
1, 311280, Note_on_c, 0, 50, 37
1, 311397, Tempo, 420080
1, 311400, Note_on_c, 0, 76, 0
1, 311400, Note_on_c, 0, 78, 64
1, 311520, Note_on_c, 0, 78, 0
1, 311520, Note_on_c, 0, 50, 0
1, 311520, Note_on_c, 0, 79, 64
1, 311520, Note_on_c, 0, 38, 42
1, 311557, Tempo, 418556
1, 311640, Note_on_c, 0, 79, 0
1, 311640, Note_on_c, 0, 81, 67
1, 311717, Tempo, 417072
1, 311760, Note_on_c, 0, 81, 0
1, 311760, Note_on_c, 0, 38, 0
1, 311760, Note_on_c, 0, 83, 68
1, 311760, Note_on_c, 0, 50, 38
1, 311877, Tempo, 415599
1, 311880, Tempo, 443951
1, 311880, Note_on_c, 0, 83, 0
1, 311880, Note_on_c, 0, 85, 70
1, 312000, Tempo, 423101
1, 312000, Note_on_c, 0, 85, 0
1, 312000, Note_on_c, 0, 50, 0
1, 312000, Note_on_c, 0, 86, 82
1, 312000, Note_on_c, 0, 37, 49
1, 312120, Note_on_c, 0, 86, 0
1, 312120, Note_on_c, 0, 74, 71
1, 312200, Tempo, 424628
1, 312240, Note_on_c, 0, 74, 0
1, 312240, Note_on_c, 0, 37, 0
1, 312240, Note_on_c, 0, 76, 71
1, 312240, Note_on_c, 0, 49, 36
1, 312300, Tempo, 423101
1, 312360, Note_on_c, 0, 76, 0
1, 312360, Note_on_c, 0, 78, 71
1, 312400, Tempo, 421585
1, 312480, Note_on_c, 0, 78, 0
1, 312480, Note_on_c, 0, 49, 0
1, 312480, Note_on_c, 0, 79, 72
1, 312480, Note_on_c, 0, 37, 42
1, 312500, Tempo, 420080
1, 312600, Tempo, 418556
1, 312600, Note_on_c, 0, 79, 0
1, 312600, Note_on_c, 0, 81, 73
1, 312700, Tempo, 417072
1, 312720, Note_on_c, 0, 81, 0
1, 312720, Note_on_c, 0, 37, 0
1, 312720, Note_on_c, 0, 83, 75
1, 312720, Note_on_c, 0, 49, 38
1, 312800, Tempo, 415599
1, 312840, Tempo, 480808
1, 312840, Note_on_c, 0, 83, 0
1, 312840, Note_on_c, 0, 85, 80
1, 312960, Tempo, 423101
1, 312960, Note_on_c, 0, 85, 0
1, 312960, Note_on_c, 0, 49, 0
1, 312960, Note_on_c, 0, 86, 86
1, 312960, Note_on_c, 0, 35, 68
1, 313080, Note_on_c, 0, 86, 0
1, 313080, Note_on_c, 0, 74, 74
1, 313160, Tempo, 424628
1, 313200, Note_on_c, 0, 74, 0
1, 313200, Note_on_c, 0, 35, 0
1, 313200, Note_on_c, 0, 76, 75
1, 313200, Note_on_c, 0, 47, 38
1, 313260, Tempo, 423101
1, 313320, Note_on_c, 0, 76, 0
1, 313320, Note_on_c, 0, 78, 75
1, 313324, Tempo, 424689
1, 313364, Tempo, 427716
1, 313404, Tempo, 430787
1, 313440, Note_on_c, 0, 78, 0
1, 313440, Note_on_c, 0, 47, 0
1, 313440, Note_on_c, 0, 79, 75
1, 313440, Note_on_c, 0, 35, 47
1, 313444, Tempo, 433902
1, 313484, Tempo, 437063
1, 313524, Tempo, 440270
1, 313560, Note_on_c, 0, 79, 0
1, 313560, Note_on_c, 0, 81, 75
1, 313564, Tempo, 443525
1, 313604, Tempo, 446828
1, 313680, Tempo, 478889
1, 313680, Note_on_c, 0, 81, 0
1, 313680, Note_on_c, 0, 35, 0
1, 313680, Note_on_c, 0, 83, 78
1, 313680, Note_on_c, 0, 47, 43
1, 313800, Tempo, 451841
1, 313800, Note_on_c, 0, 83, 0
1, 313800, Note_on_c, 0, 85, 83
1, 313920, Note_on_c, 0, 85, 0
1, 313920, Note_on_c, 0, 47, 0
1, 313920, Note_on_c, 0, 86, 97
1, 313920, Note_on_c, 0, 32, 72
1, 314160, Note_on_c, 0, 32, 0
1, 314160, Note_on_c, 0, 86, 0
1, 314160, Note_on_c, 0, 74, 76
1, 314160, Note_on_c, 0, 44, 45
1, 314400, Tempo, 424628
1, 314400, Note_on_c, 0, 44, 0
1, 314400, Note_on_c, 0, 74, 0
1, 314400, Note_on_c, 0, 76, 86
1, 314400, Note_on_c, 0, 32, 52
1, 314520, Note_on_c, 0, 76, 0
1, 314520, Note_on_c, 0, 74, 71
1, 314640, Note_on_c, 0, 74, 0
1, 314640, Note_on_c, 0, 32, 0
1, 314640, Note_on_c, 0, 73, 75
1, 314640, Note_on_c, 0, 44, 45
1, 314760, Tempo, 472627
1, 314760, Note_on_c, 0, 73, 0
1, 314760, Note_on_c, 0, 74, 77
1, 314880, Tempo, 461432
1, 314880, Note_on_c, 0, 74, 0
1, 314880, Note_on_c, 0, 44, 0
1, 314880, Note_on_c, 0, 73, 69
1, 314880, Note_on_c, 0, 76, 69
1, 314880, Note_on_c, 0, 81, 82
1, 314880, Note_on_c, 0, 45, 75
1, 314880, Note_on_c, 0, 33, 75
1, 315000, Note_on_c, 0, 33, 0
1, 315000, Note_on_c, 0, 81, 0
1, 315000, Note_on_c, 0, 73, 0
1, 315000, Note_on_c, 0, 76, 0
1, 315000, Note_on_c, 0, 45, 0
1, 315360, Tempo, 475135
1, 315360, Note_on_c, 0, 73, 56
1, 315360, Note_on_c, 0, 76, 56
1, 315360, Note_on_c, 0, 81, 67
1, 315360, Note_on_c, 0, 45, 49
1, 315360, Note_on_c, 0, 57, 59
1, 315480, Note_on_c, 0, 57, 0
1, 315480, Note_on_c, 0, 81, 0
1, 315480, Note_on_c, 0, 73, 0
1, 315480, Note_on_c, 0, 76, 0
1, 315480, Note_on_c, 0, 45, 0
1, 315840, Tempo, 507442
1, 315840, Note_on_c, 0, 81, 69
1, 315840, Note_on_c, 0, 76, 59
1, 315840, Note_on_c, 0, 73, 59
1, 315840, Note_on_c, 0, 45, 49
1, 315840, Note_on_c, 0, 57, 59
1, 315960, Note_on_c, 0, 57, 0
1, 315960, Note_on_c, 0, 73, 0
1, 315960, Note_on_c, 0, 81, 0
1, 315960, Note_on_c, 0, 76, 0
1, 315960, Note_on_c, 0, 45, 0
1, 316320, Tempo, 454305
1, 316320, Note_on_c, 0, 79, 50
1, 316560, Note_on_c, 0, 79, 0
1, 316560, Note_on_c, 0, 78, 46
1, 316800, Note_on_c, 0, 78, 0
1, 316800, Note_on_c, 0, 76, 50
1, 316800, Note_on_c, 0, 67, 31
1, 317040, Note_on_c, 0, 67, 0
1, 317040, Note_on_c, 0, 69, 24
1, 317160, Note_on_c, 0, 76, 0
1, 317280, Note_on_c, 0, 69, 0
1, 317280, Note_on_c, 0, 76, 47
1, 317280, Note_on_c, 0, 67, 31
1, 317520, Tempo, 466962
1, 317520, Note_on_c, 0, 67, 0
1, 317520, Note_on_c, 0, 69, 26
1, 317760, Tempo, 452523
1, 317760, Note_on_c, 0, 69, 0
1, 317760, Note_on_c, 0, 76, 0
1, 317760, Note_on_c, 0, 81, 50
1, 317760, Note_on_c, 0, 67, 31
1, 317908, Control_c, 0, 64, 127
1, 318000, Note_on_c, 0, 67, 0
1, 318000, Note_on_c, 0, 69, 25
1, 318240, Note_on_c, 0, 69, 0
1, 318240, Note_on_c, 0, 81, 0
1, 318240, Note_on_c, 0, 73, 46
1, 318240, Note_on_c, 0, 67, 31
1, 318249, Control_c, 0, 64, 0
1, 318346, Control_c, 0, 64, 127
1, 318480, Tempo, 480384
1, 318480, Note_on_c, 0, 67, 0
1, 318480, Note_on_c, 0, 69, 28
1, 318720, Tempo, 454305
1, 318720, Note_on_c, 0, 69, 0
1, 318720, Note_on_c, 0, 73, 0
1, 318720, Note_on_c, 0, 76, 50
1, 318720, Note_on_c, 0, 66, 31
1, 318720, Control_c, 0, 64, 0
1, 318960, Tempo, 445633
1, 318960, Note_on_c, 0, 66, 0
1, 318960, Note_on_c, 0, 69, 18
1, 319200, Tempo, 434091
1, 319200, Note_on_c, 0, 69, 0
1, 319200, Note_on_c, 0, 66, 20
1, 319440, Tempo, 452523
1, 319440, Note_on_c, 0, 66, 0
1, 319440, Note_on_c, 0, 69, 15
1, 319680, Note_on_c, 0, 69, 0
1, 319680, Note_on_c, 0, 76, 0
1, 319680, Note_on_c, 0, 74, 44
1, 319680, Note_on_c, 0, 66, 31
1, 319800, Tempo, 443525
1, 319906, Control_c, 0, 64, 127
1, 319920, Note_on_c, 0, 66, 0
1, 319920, Note_on_c, 0, 69, 23
1, 320160, Tempo, 432339
1, 320160, Note_on_c, 0, 69, 0
1, 320160, Note_on_c, 0, 74, 0
1, 320160, Note_on_c, 0, 76, 51
1, 320160, Note_on_c, 0, 66, 33
1, 320175, Control_c, 0, 64, 0
1, 320400, Tempo, 470736
1, 320400, Note_on_c, 0, 66, 0
1, 320400, Note_on_c, 0, 76, 0
1, 320400, Note_on_c, 0, 78, 52
1, 320400, Note_on_c, 0, 69, 30
1, 320640, Tempo, 456066
1, 320640, Note_on_c, 0, 69, 0
1, 320640, Note_on_c, 0, 78, 0
1, 320640, Note_on_c, 0, 79, 60
1, 320640, Note_on_c, 0, 64, 38
1, 320880, Note_on_c, 0, 64, 0
1, 320880, Note_on_c, 0, 69, 24
1, 321000, Note_on_c, 0, 79, 0
1, 321120, Note_on_c, 0, 69, 0
1, 321120, Note_on_c, 0, 79, 47
1, 321120, Note_on_c, 0, 57, 31
1, 321156, Control_c, 0, 64, 127
1, 321360, Tempo, 461432
1, 321360, Note_on_c, 0, 57, 0
1, 321360, Note_on_c, 0, 69, 26
1, 321600, Tempo, 454305
1, 321600, Note_on_c, 0, 69, 0
1, 321600, Note_on_c, 0, 79, 0
1, 321600, Note_on_c, 0, 78, 50
1, 321600, Note_on_c, 0, 62, 31
1, 321614, Control_c, 0, 64, 0
1, 321734, Control_c, 0, 64, 127
1, 321840, Note_on_c, 0, 62, 0
1, 321840, Note_on_c, 0, 69, 25
1, 322080, Note_on_c, 0, 69, 0
1, 322080, Note_on_c, 0, 78, 0
1, 322080, Note_on_c, 0, 78, 46
1, 322080, Note_on_c, 0, 57, 31
1, 322320, Tempo, 480384
1, 322320, Note_on_c, 0, 57, 0
1, 322320, Note_on_c, 0, 69, 28
1, 322560, Tempo, 445633
1, 322560, Note_on_c, 0, 69, 0
1, 322560, Note_on_c, 0, 78, 0
1, 322560, Note_on_c, 0, 76, 54
1, 322560, Note_on_c, 0, 61, 31
1, 322572, Control_c, 0, 64, 0
1, 322800, Tempo, 518224
1, 322800, Note_on_c, 0, 61, 0
1, 322800, Note_on_c, 0, 76, 0
1, 322800, Note_on_c, 0, 69, 23
1, 323040, Tempo, 452523
1, 323040, Note_on_c, 0, 69, 0
1, 323040, Note_on_c, 0, 81, 49
1, 323040, Note_on_c, 0, 57, 30
1, 323166, Control_c, 0, 64, 127
1, 323280, Note_on_c, 0, 57, 0
1, 323280, Note_on_c, 0, 69, 24
1, 323520, Tempo, 442282
1, 323520, Note_on_c, 0, 69, 0
1, 323520, Note_on_c, 0, 61, 31
1, 323760, Note_on_c, 0, 61, 0
1, 323760, Note_on_c, 0, 69, 23
1, 323880, Tempo, 435477
1, 324000, Tempo, 442282
1, 324000, Note_on_c, 0, 69, 0
1, 324000, Note_on_c, 0, 81, 0
1, 324000, Note_on_c, 0, 79, 50
1, 324000, Note_on_c, 0, 64, 31
1, 324019, Control_c, 0, 64, 0
1, 324240, Tempo, 463285
1, 324240, Note_on_c, 0, 64, 0
1, 324240, Note_on_c, 0, 79, 0
1, 324240, Note_on_c, 0, 78, 46
1, 324240, Note_on_c, 0, 69, 23
1, 324480, Tempo, 452523
1, 324480, Note_on_c, 0, 69, 0
1, 324480, Note_on_c, 0, 78, 0
1, 324480, Note_on_c, 0, 76, 50
1, 324480, Note_on_c, 0, 67, 31
1, 324720, Note_on_c, 0, 67, 0
1, 324720, Note_on_c, 0, 69, 24
1, 324840, Note_on_c, 0, 76, 0
1, 324960, Tempo, 445633
1, 324960, Note_on_c, 0, 69, 0
1, 324960, Note_on_c, 0, 76, 47
1, 324960, Note_on_c, 0, 67, 31
1, 324988, Control_c, 0, 64, 127
1, 325200, Note_on_c, 0, 67, 0
1, 325200, Note_on_c, 0, 69, 26
1, 325440, Tempo, 452523
1, 325440, Note_on_c, 0, 69, 0
1, 325440, Note_on_c, 0, 76, 0
1, 325440, Note_on_c, 0, 81, 50
1, 325440, Note_on_c, 0, 67, 31
1, 325447, Control_c, 0, 64, 0
1, 325546, Control_c, 0, 64, 127
1, 325680, Note_on_c, 0, 67, 0
1, 325680, Note_on_c, 0, 69, 25
1, 325920, Note_on_c, 0, 69, 0
1, 325920, Note_on_c, 0, 81, 0
1, 325920, Note_on_c, 0, 73, 46
1, 325920, Note_on_c, 0, 67, 31
1, 325933, Control_c, 0, 64, 0
1, 326061, Control_c, 0, 64, 127
1, 326160, Tempo, 480384
1, 326160, Note_on_c, 0, 67, 0
1, 326160, Note_on_c, 0, 69, 28
1, 326400, Tempo, 454305
1, 326400, Note_on_c, 0, 69, 0
1, 326400, Note_on_c, 0, 73, 0
1, 326400, Note_on_c, 0, 76, 50
1, 326400, Note_on_c, 0, 66, 31
1, 326417, Control_c, 0, 64, 0
1, 326640, Tempo, 437318
1, 326640, Note_on_c, 0, 66, 0
1, 326640, Note_on_c, 0, 69, 23
1, 326880, Note_on_c, 0, 69, 0
1, 326880, Note_on_c, 0, 66, 24
1, 327120, Tempo, 457841
1, 327120, Note_on_c, 0, 66, 0
1, 327120, Note_on_c, 0, 69, 19
1, 327360, Tempo, 452523
1, 327360, Note_on_c, 0, 69, 0
1, 327360, Note_on_c, 0, 76, 0
1, 327360, Note_on_c, 0, 74, 44
1, 327360, Note_on_c, 0, 66, 31
1, 327530, Control_c, 0, 64, 127
1, 327600, Note_on_c, 0, 66, 0
1, 327600, Note_on_c, 0, 69, 23
1, 327840, Tempo, 433902
1, 327840, Note_on_c, 0, 69, 0
1, 327840, Note_on_c, 0, 74, 0
1, 327840, Note_on_c, 0, 86, 50
1, 327840, Note_on_c, 0, 66, 31
1, 328080, Tempo, 470736
1, 328080, Note_on_c, 0, 66, 0
1, 328080, Note_on_c, 0, 86, 0
1, 328080, Note_on_c, 0, 81, 46
1, 328080, Note_on_c, 0, 69, 23
1, 328320, Tempo, 452523
1, 328320, Note_on_c, 0, 69, 0
1, 328320, Note_on_c, 0, 81, 0
1, 328320, Note_on_c, 0, 78, 50
1, 328320, Note_on_c, 0, 57, 31
1, 328328, Control_c, 0, 64, 0
1, 328560, Note_on_c, 0, 57, 0
1, 328560, Note_on_c, 0, 69, 24
1, 328680, Tempo, 445633
1, 328680, Note_on_c, 0, 78, 0
1, 328800, Note_on_c, 0, 69, 0
1, 328800, Note_on_c, 0, 78, 47
1, 328800, Note_on_c, 0, 62, 31
1, 328857, Control_c, 0, 64, 127
1, 329040, Note_on_c, 0, 62, 0
1, 329040, Note_on_c, 0, 69, 26
1, 329280, Tempo, 452523
1, 329280, Note_on_c, 0, 69, 0
1, 329280, Note_on_c, 0, 57, 31
1, 329520, Note_on_c, 0, 57, 0
1, 329520, Note_on_c, 0, 78, 0
1, 329520, Note_on_c, 0, 81, 50
1, 329520, Note_on_c, 0, 69, 25
1, 329760, Note_on_c, 0, 69, 0
1, 329760, Note_on_c, 0, 81, 0
1, 329760, Note_on_c, 0, 79, 46
1, 329760, Note_on_c, 0, 61, 31
1, 329777, Control_c, 0, 64, 0
1, 329866, Control_c, 0, 64, 127
1, 330000, Tempo, 480384
1, 330000, Note_on_c, 0, 61, 0
1, 330000, Note_on_c, 0, 79, 0
1, 330000, Note_on_c, 0, 76, 44
1, 330000, Note_on_c, 0, 69, 28
1, 330240, Tempo, 423101
1, 330240, Note_on_c, 0, 69, 0
1, 330240, Note_on_c, 0, 76, 0
1, 330240, Note_on_c, 0, 74, 54
1, 330240, Note_on_c, 0, 62, 34
1, 330240, Note_on_c, 0, 66, 40
1, 330254, Control_c, 0, 64, 0
1, 330360, Note_on_c, 0, 74, 0
1, 330360, Note_on_c, 0, 76, 46
1, 330480, Note_on_c, 0, 76, 0
1, 330480, Note_on_c, 0, 74, 53
1, 330600, Note_on_c, 0, 74, 0
1, 330600, Note_on_c, 0, 76, 46
1, 330720, Note_on_c, 0, 76, 0
1, 330720, Note_on_c, 0, 66, 0
1, 330720, Note_on_c, 0, 62, 0
1, 330720, Note_on_c, 0, 78, 57
1, 330780, Note_on_c, 0, 78, 0
1, 330960, Tempo, 456066
1, 330960, Note_on_c, 0, 74, 51
1, 331020, Note_on_c, 0, 74, 0
1, 331200, Tempo, 429307
1, 331200, Note_on_c, 0, 71, 54
1, 331200, Note_on_c, 0, 62, 26
1, 331200, Note_on_c, 0, 67, 31
1, 331320, Tempo, 426167
1, 331320, Note_on_c, 0, 67, 0
1, 331320, Note_on_c, 0, 62, 0
1, 331320, Note_on_c, 0, 71, 0
1, 331320, Note_on_c, 0, 74, 46
1, 331440, Note_on_c, 0, 74, 0
1, 331440, Note_on_c, 0, 71, 53
1, 331560, Note_on_c, 0, 71, 0
1, 331560, Note_on_c, 0, 74, 46
1, 331680, Note_on_c, 0, 74, 0
1, 331680, Note_on_c, 0, 73, 55
1, 331680, Note_on_c, 0, 64, 31
1, 331680, Note_on_c, 0, 62, 26
1, 331800, Note_on_c, 0, 62, 0
1, 331800, Note_on_c, 0, 64, 0
1, 331800, Note_on_c, 0, 73, 0
1, 331800, Note_on_c, 0, 76, 46
1, 331920, Tempo, 456066
1, 331920, Note_on_c, 0, 76, 0
1, 331920, Note_on_c, 0, 73, 53
1, 332040, Note_on_c, 0, 73, 0
1, 332040, Note_on_c, 0, 76, 46
1, 332160, Tempo, 423101
1, 332160, Note_on_c, 0, 76, 0
1, 332160, Note_on_c, 0, 74, 54
1, 332160, Note_on_c, 0, 62, 34
1, 332160, Note_on_c, 0, 66, 40
1, 332280, Note_on_c, 0, 74, 0
1, 332280, Note_on_c, 0, 76, 46
1, 332400, Note_on_c, 0, 76, 0
1, 332400, Note_on_c, 0, 74, 53
1, 332520, Note_on_c, 0, 74, 0
1, 332520, Note_on_c, 0, 76, 46
1, 332640, Note_on_c, 0, 76, 0
1, 332640, Note_on_c, 0, 66, 0
1, 332640, Note_on_c, 0, 62, 0
1, 332640, Note_on_c, 0, 78, 57
1, 332700, Note_on_c, 0, 78, 0
1, 332880, Tempo, 456066
1, 332880, Note_on_c, 0, 74, 51
1, 332940, Note_on_c, 0, 74, 0
1, 333120, Tempo, 429307
1, 333120, Note_on_c, 0, 71, 54
1, 333120, Note_on_c, 0, 62, 26
1, 333120, Note_on_c, 0, 67, 31
1, 333240, Tempo, 426167
1, 333240, Note_on_c, 0, 67, 0
1, 333240, Note_on_c, 0, 62, 0
1, 333240, Note_on_c, 0, 71, 0
1, 333240, Note_on_c, 0, 74, 46
1, 333360, Note_on_c, 0, 74, 0
1, 333360, Note_on_c, 0, 71, 53
1, 333480, Note_on_c, 0, 71, 0
1, 333480, Note_on_c, 0, 74, 46
1, 333600, Tempo, 435698
1, 333600, Note_on_c, 0, 74, 0
1, 333600, Note_on_c, 0, 73, 55
1, 333600, Note_on_c, 0, 64, 31
1, 333600, Note_on_c, 0, 62, 26
1, 333720, Note_on_c, 0, 62, 0
1, 333720, Note_on_c, 0, 64, 0
1, 333720, Note_on_c, 0, 73, 0
1, 333720, Note_on_c, 0, 76, 46
1, 333840, Tempo, 456066
1, 333840, Note_on_c, 0, 76, 0
1, 333840, Note_on_c, 0, 73, 53
1, 333960, Tempo, 482354
1, 333960, Note_on_c, 0, 73, 0
1, 333960, Note_on_c, 0, 76, 46
1, 334061, Tempo, 452523
1, 334080, Note_on_c, 0, 76, 0
1, 334080, Note_on_c, 0, 74, 56
1, 334080, Note_on_c, 0, 62, 34
1, 334080, Note_on_c, 0, 66, 40
1, 334093, Tempo, 450789
1, 334125, Tempo, 449068
1, 334157, Tempo, 447361
1, 334189, Tempo, 443951
1, 334200, Note_on_c, 0, 74, 0
1, 334200, Note_on_c, 0, 76, 53
1, 334221, Tempo, 442282
1, 334253, Tempo, 440626
1, 334285, Tempo, 437318
1, 334317, Tempo, 435698
1, 334320, Note_on_c, 0, 76, 0
1, 334320, Note_on_c, 0, 78, 55
1, 334349, Tempo, 434091
1, 334381, Tempo, 430880
1, 334415, Tempo, 435698
1, 334440, Note_on_c, 0, 78, 0
1, 334440, Note_on_c, 0, 79, 56
1, 334511, Tempo, 434091
1, 334560, Note_on_c, 0, 79, 0
1, 334560, Note_on_c, 0, 66, 0
1, 334560, Note_on_c, 0, 62, 0
1, 334560, Note_on_c, 0, 81, 58
1, 334607, Tempo, 432464
1, 334680, Note_on_c, 0, 81, 0
1, 334680, Note_on_c, 0, 83, 58
1, 334703, Tempo, 430880
1, 334799, Tempo, 429307
1, 334800, Note_on_c, 0, 83, 0
1, 334800, Note_on_c, 0, 85, 58
1, 334895, Tempo, 427746
1, 334920, Tempo, 482354
1, 334920, Note_on_c, 0, 85, 0
1, 334920, Note_on_c, 0, 86, 62
1, 335040, Tempo, 435698
1, 335040, Note_on_c, 0, 86, 0
1, 335040, Note_on_c, 0, 74, 71
1, 335040, Note_on_c, 0, 47, 55
1, 335040, Note_on_c, 0, 59, 65
1, 335160, Note_on_c, 0, 74, 0
1, 335160, Note_on_c, 0, 76, 71
1, 335247, Tempo, 435698
1, 335280, Note_on_c, 0, 76, 0
1, 335280, Note_on_c, 0, 59, 0
1, 335280, Note_on_c, 0, 47, 0
1, 335280, Note_on_c, 0, 78, 71
1, 335400, Note_on_c, 0, 78, 0
1, 335400, Note_on_c, 0, 79, 72
1, 335503, Tempo, 434091
1, 335520, Note_on_c, 0, 79, 0
1, 335520, Note_on_c, 0, 81, 73
1, 335520, Note_on_c, 0, 59, 57
1, 335520, Note_on_c, 0, 47, 48
1, 335640, Note_on_c, 0, 81, 0
1, 335640, Note_on_c, 0, 83, 74
1, 335759, Tempo, 432464
1, 335760, Note_on_c, 0, 83, 0
1, 335760, Note_on_c, 0, 47, 0
1, 335760, Note_on_c, 0, 59, 0
1, 335760, Note_on_c, 0, 85, 77
1, 335880, Tempo, 492490
1, 335880, Note_on_c, 0, 85, 0
1, 335880, Note_on_c, 0, 86, 78
1, 335976, Tempo, 434091
1, 336000, Note_on_c, 0, 86, 0
1, 336000, Note_on_c, 0, 83, 82
1, 336000, Note_on_c, 0, 43, 54
1, 336000, Note_on_c, 0, 55, 64
1, 336104, Tempo, 435698
1, 336120, Note_on_c, 0, 83, 0
1, 336120, Note_on_c, 0, 81, 78
1, 336216, Tempo, 437318
1, 336240, Note_on_c, 0, 81, 0
1, 336240, Note_on_c, 0, 55, 0
1, 336240, Note_on_c, 0, 43, 0
1, 336240, Note_on_c, 0, 79, 78
1, 336344, Tempo, 438949
1, 336360, Note_on_c, 0, 79, 0
1, 336360, Note_on_c, 0, 78, 74
1, 336456, Tempo, 440626
1, 336480, Note_on_c, 0, 78, 0
1, 336480, Note_on_c, 0, 76, 71
1, 336480, Note_on_c, 0, 55, 56
1, 336480, Note_on_c, 0, 43, 47
1, 336584, Tempo, 442282
1, 336600, Note_on_c, 0, 76, 0
1, 336600, Note_on_c, 0, 74, 70
1, 336696, Tempo, 443951
1, 336720, Note_on_c, 0, 74, 0
1, 336720, Note_on_c, 0, 43, 0
1, 336720, Note_on_c, 0, 55, 0
1, 336720, Note_on_c, 0, 73, 73
1, 336824, Tempo, 445633
1, 336840, Note_on_c, 0, 73, 0
1, 336840, Note_on_c, 0, 71, 72
1, 336936, Tempo, 447361
1, 336960, Tempo, 468823
1, 336960, Note_on_c, 0, 71, 0
1, 336960, Note_on_c, 0, 69, 81
1, 336960, Note_on_c, 0, 57, 66
1, 336960, Note_on_c, 0, 45, 56
1, 337080, Note_on_c, 0, 45, 0
1, 337080, Note_on_c, 0, 57, 0
1, 337080, Note_on_c, 0, 69, 0
1, 337440, Note_on_c, 0, 67, 62
1, 337440, Note_on_c, 0, 69, 62
1, 337440, Note_on_c, 0, 73, 73
1, 337440, Note_on_c, 0, 45, 47
1, 337440, Note_on_c, 0, 57, 56
1, 337560, Note_on_c, 0, 57, 0
1, 337560, Note_on_c, 0, 73, 0
1, 337560, Note_on_c, 0, 67, 0
1, 337560, Note_on_c, 0, 69, 0
1, 337560, Note_on_c, 0, 45, 0
1, 337920, Tempo, 423101
1, 337920, Note_on_c, 0, 74, 43
1, 337920, Note_on_c, 0, 50, 27
1, 337920, Note_on_c, 0, 62, 32
1, 338040, Note_on_c, 0, 74, 0
1, 338040, Note_on_c, 0, 78, 36
1, 338160, Note_on_c, 0, 78, 0
1, 338160, Note_on_c, 0, 81, 42
1, 338280, Note_on_c, 0, 81, 0
1, 338280, Note_on_c, 0, 79, 36
1, 338400, Note_on_c, 0, 79, 0
1, 338400, Note_on_c, 0, 62, 0
1, 338400, Note_on_c, 0, 50, 0
1, 338400, Note_on_c, 0, 78, 45
1, 338520, Note_on_c, 0, 78, 0
1, 338520, Note_on_c, 0, 76, 42
1, 338640, Tempo, 456066
1, 338640, Note_on_c, 0, 76, 0
1, 338640, Note_on_c, 0, 74, 40
1, 338760, Note_on_c, 0, 74, 0
1, 338760, Note_on_c, 0, 73, 37
1, 338880, Tempo, 429307
1, 338880, Note_on_c, 0, 73, 0
1, 338880, Note_on_c, 0, 71, 43
1, 338880, Note_on_c, 0, 62, 20
1, 338880, Note_on_c, 0, 67, 24
1, 339000, Tempo, 426167
1, 339000, Note_on_c, 0, 67, 0
1, 339000, Note_on_c, 0, 62, 0
1, 339000, Note_on_c, 0, 71, 0
1, 339000, Note_on_c, 0, 74, 36
1, 339120, Note_on_c, 0, 74, 0
1, 339120, Note_on_c, 0, 71, 42
1, 339240, Note_on_c, 0, 71, 0
1, 339240, Note_on_c, 0, 74, 36
1, 339360, Note_on_c, 0, 74, 0
1, 339360, Note_on_c, 0, 73, 44
1, 339360, Note_on_c, 0, 64, 24
1, 339360, Note_on_c, 0, 62, 20
1, 339480, Note_on_c, 0, 62, 0
1, 339480, Note_on_c, 0, 64, 0
1, 339480, Note_on_c, 0, 73, 0
1, 339480, Note_on_c, 0, 76, 36
1, 339600, Tempo, 456066
1, 339600, Note_on_c, 0, 76, 0
1, 339600, Note_on_c, 0, 73, 42
1, 339720, Note_on_c, 0, 73, 0
1, 339720, Note_on_c, 0, 76, 36
1, 339840, Tempo, 423101
1, 339840, Note_on_c, 0, 76, 0
1, 339840, Note_on_c, 0, 74, 43
1, 339840, Note_on_c, 0, 62, 27
1, 339840, Note_on_c, 0, 66, 32
1, 339960, Note_on_c, 0, 74, 0
1, 339960, Note_on_c, 0, 78, 36
1, 340080, Note_on_c, 0, 78, 0
1, 340080, Note_on_c, 0, 81, 42
1, 340200, Note_on_c, 0, 81, 0
1, 340200, Note_on_c, 0, 79, 36
1, 340320, Note_on_c, 0, 79, 0
1, 340320, Note_on_c, 0, 66, 0
1, 340320, Note_on_c, 0, 62, 0
1, 340320, Note_on_c, 0, 78, 45
1, 340440, Note_on_c, 0, 78, 0
1, 340440, Note_on_c, 0, 76, 42
1, 340560, Tempo, 456066
1, 340560, Note_on_c, 0, 76, 0
1, 340560, Note_on_c, 0, 74, 40
1, 340680, Note_on_c, 0, 74, 0
1, 340680, Note_on_c, 0, 73, 37
1, 340800, Tempo, 429307
1, 340800, Note_on_c, 0, 73, 0
1, 340800, Note_on_c, 0, 71, 43
1, 340800, Note_on_c, 0, 62, 20
1, 340800, Note_on_c, 0, 67, 24
1, 340920, Tempo, 426167
1, 340920, Note_on_c, 0, 67, 0
1, 340920, Note_on_c, 0, 62, 0
1, 340920, Note_on_c, 0, 71, 0
1, 340920, Note_on_c, 0, 74, 36
1, 341040, Note_on_c, 0, 74, 0
1, 341040, Note_on_c, 0, 71, 42
1, 341160, Note_on_c, 0, 71, 0
1, 341160, Note_on_c, 0, 74, 36
1, 341280, Note_on_c, 0, 74, 0
1, 341280, Note_on_c, 0, 73, 44
1, 341280, Note_on_c, 0, 64, 24
1, 341280, Note_on_c, 0, 62, 20
1, 341400, Note_on_c, 0, 62, 0
1, 341400, Note_on_c, 0, 64, 0
1, 341400, Note_on_c, 0, 73, 0
1, 341400, Note_on_c, 0, 76, 36
1, 341520, Tempo, 456066
1, 341520, Note_on_c, 0, 76, 0
1, 341520, Note_on_c, 0, 73, 42
1, 341640, Note_on_c, 0, 73, 0
1, 341640, Note_on_c, 0, 76, 36
1, 341760, Tempo, 435698
1, 341760, Note_on_c, 0, 76, 0
1, 341760, Note_on_c, 0, 74, 52
1, 341760, Note_on_c, 0, 62, 27
1, 341760, Note_on_c, 0, 66, 32
1, 341880, Note_on_c, 0, 74, 0
1, 341880, Note_on_c, 0, 78, 56
1, 341967, Tempo, 435698
1, 342000, Note_on_c, 0, 78, 0
1, 342000, Note_on_c, 0, 81, 59
1, 342120, Note_on_c, 0, 81, 0
1, 342120, Note_on_c, 0, 79, 56
1, 342223, Tempo, 434091
1, 342240, Note_on_c, 0, 79, 0
1, 342240, Note_on_c, 0, 66, 0
1, 342240, Note_on_c, 0, 62, 0
1, 342240, Note_on_c, 0, 78, 59
1, 342360, Note_on_c, 0, 78, 0
1, 342360, Note_on_c, 0, 76, 60
1, 342479, Tempo, 432464
1, 342480, Note_on_c, 0, 76, 0
1, 342480, Note_on_c, 0, 74, 61
1, 342600, Tempo, 492490
1, 342600, Note_on_c, 0, 74, 0
1, 342600, Note_on_c, 0, 73, 65
1, 342696, Tempo, 434091
1, 342720, Note_on_c, 0, 73, 0
1, 342720, Note_on_c, 0, 71, 69
1, 342720, Note_on_c, 0, 31, 58
1, 342824, Tempo, 435698
1, 342840, Note_on_c, 0, 71, 0
1, 342840, Note_on_c, 0, 69, 71
1, 342936, Tempo, 437318
1, 342960, Note_on_c, 0, 69, 0
1, 342960, Note_on_c, 0, 31, 0
1, 342960, Note_on_c, 0, 67, 70
1, 342960, Note_on_c, 0, 43, 50
1, 343064, Tempo, 438949
1, 343080, Note_on_c, 0, 67, 0
1, 343080, Note_on_c, 0, 66, 69
1, 343176, Tempo, 440626
1, 343200, Note_on_c, 0, 66, 0
1, 343200, Note_on_c, 0, 43, 0
1, 343200, Note_on_c, 0, 64, 69
1, 343200, Note_on_c, 0, 31, 55
1, 343304, Tempo, 442282
1, 343320, Note_on_c, 0, 64, 0
1, 343320, Note_on_c, 0, 62, 70
1, 343416, Tempo, 443951
1, 343440, Note_on_c, 0, 62, 0
1, 343440, Note_on_c, 0, 31, 0
1, 343440, Note_on_c, 0, 61, 72
1, 343440, Note_on_c, 0, 43, 48
1, 343544, Tempo, 445633
1, 343560, Note_on_c, 0, 61, 0
1, 343560, Note_on_c, 0, 59, 76
1, 343656, Tempo, 447361
1, 343680, Tempo, 454305
1, 343680, Note_on_c, 0, 59, 0
1, 343680, Note_on_c, 0, 43, 0
1, 343680, Note_on_c, 0, 57, 85
1, 343680, Note_on_c, 0, 33, 57
1, 343755, Control_c, 0, 64, 127
1, 343920, Note_on_c, 0, 33, 0
1, 343920, Note_on_c, 0, 57, 0
1, 343920, Note_on_c, 0, 66, 72
1, 343920, Note_on_c, 0, 62, 72
1, 343920, Note_on_c, 0, 45, 49
1, 343945, Control_c, 0, 64, 0
1, 344040, Note_on_c, 0, 45, 0
1, 344040, Note_on_c, 0, 62, 0
1, 344040, Note_on_c, 0, 66, 0
1, 344160, Note_on_c, 0, 66, 80
1, 344160, Note_on_c, 0, 62, 80
1, 344160, Note_on_c, 0, 33, 57
1, 344280, Note_on_c, 0, 33, 0
1, 344280, Note_on_c, 0, 62, 0
1, 344280, Note_on_c, 0, 66, 0
1, 344400, Tempo, 480384
1, 344400, Note_on_c, 0, 62, 72
1, 344400, Note_on_c, 0, 66, 72
1, 344400, Note_on_c, 0, 45, 49
1, 344520, Note_on_c, 0, 45, 0
1, 344520, Note_on_c, 0, 66, 0
1, 344520, Note_on_c, 0, 62, 0
1, 344640, Tempo, 454305
1, 344640, Note_on_c, 0, 66, 80
1, 344640, Note_on_c, 0, 62, 80
1, 344640, Note_on_c, 0, 33, 57
1, 344711, Control_c, 0, 64, 127
1, 344880, Note_on_c, 0, 33, 0
1, 344880, Note_on_c, 0, 62, 0
1, 344880, Note_on_c, 0, 66, 0
1, 344880, Note_on_c, 0, 67, 72
1, 344880, Note_on_c, 0, 64, 72
1, 344880, Note_on_c, 0, 45, 49
1, 344893, Control_c, 0, 64, 0
1, 345000, Note_on_c, 0, 45, 0
1, 345000, Note_on_c, 0, 64, 0
1, 345000, Note_on_c, 0, 67, 0
1, 345120, Note_on_c, 0, 64, 80
1, 345120, Note_on_c, 0, 61, 80
1, 345120, Note_on_c, 0, 33, 57
1, 345240, Note_on_c, 0, 33, 0
1, 345240, Note_on_c, 0, 61, 0
1, 345240, Note_on_c, 0, 64, 0
1, 345360, Note_on_c, 0, 61, 72
1, 345360, Note_on_c, 0, 64, 72
1, 345360, Note_on_c, 0, 45, 49
1, 345480, Note_on_c, 0, 45, 0
1, 345480, Note_on_c, 0, 64, 0
1, 345480, Note_on_c, 0, 61, 0
1, 345600, Tempo, 482781
1, 345600, Note_on_c, 0, 62, 83
1, 345600, Note_on_c, 0, 38, 57
1, 345763, Control_c, 0, 64, 127
1, 345840, Tempo, 503018
1, 345840, Note_on_c, 0, 38, 0
1, 345840, Note_on_c, 0, 62, 0
1, 345840, Note_on_c, 0, 50, 52
1, 346080, Tempo, 539180
1, 346080, Note_on_c, 0, 50, 0
1, 346080, Note_on_c, 0, 69, 79
1, 346080, Note_on_c, 0, 66, 79
1, 346080, Note_on_c, 0, 62, 79
1, 346080, Note_on_c, 0, 74, 79
1, 346080, Note_on_c, 0, 45, 57
1, 346200, Tempo, 595356
1, 346200, Note_on_c, 0, 74, 0
1, 346200, Note_on_c, 0, 62, 0
1, 346200, Note_on_c, 0, 69, 0
1, 346200, Note_on_c, 0, 66, 0
1, 346320, Tempo, 675828
1, 346320, Note_on_c, 0, 45, 0
1, 346320, Note_on_c, 0, 42, 51
1, 346440, Tempo, 683527
1, 346560, Tempo, 718649
1, 346560, Note_on_c, 0, 42, 0
1, 346560, Note_on_c, 0, 74, 79
1, 346560, Note_on_c, 0, 69, 79
1, 346560, Note_on_c, 0, 66, 79
1, 346560, Note_on_c, 0, 62, 79
1, 346560, Note_on_c, 0, 38, 62
1, 347040, Note_on_c, 0, 38, 0
1, 347040, Note_on_c, 0, 66, 0
1, 347040, Note_on_c, 0, 74, 0
1, 347040, Note_on_c, 0, 69, 0
1, 347040, Note_on_c, 0, 62, 0
1, 347520, Control_c, 0, 64, 0
1, 347520, End_track
0, 0, End_of_file
