0, 0, Header, 0, 1, 480
1, 0, Start_track
1, 0, Title_t, "Clementi: Sonatine Opus 36 Nr. 5, 3. Satz"
1, 0, Title_t, "Romdo"
1, 0, Copyright_t, "Copyright © 2011 by Bernd Krueger"
1, 0, Text_t, "Muzio Clementi"
1, 0, Text_t, "Allegro di molto"
1, 0, Text_t, "Erstellt:  8.1.2011\012"
1, 0, Text_t, "Dauer: 2:56 Minuten\012"
1, 0, Time_signature, 2, 2, 24, 8
1, 0, Key_signature, 1, "major"
1, 0, Tempo, 497141
1, 0, Program_c, 0, 0
1, 0, Program_c, 0, 0
1, 0, Program_c, 0, 0
1, 480, Marker_t, "Teil 1"
1, 480, Note_on_c, 0, 79, 48
1, 600, Note_on_c, 0, 79, 0
1, 600, Note_on_c, 0, 81, 54
1, 720, Note_on_c, 0, 81, 0
1, 720, Note_on_c, 0, 83, 55
1, 840, Note_on_c, 0, 83, 0
1, 840, Note_on_c, 0, 84, 60
1, 960, Tempo, 516396
1, 960, Note_on_c, 0, 84, 0
1, 960, Note_on_c, 0, 86, 63
1, 960, Note_on_c, 0, 59, 34
1, 960, Note_on_c, 0, 67, 40
1, 1080, Note_on_c, 0, 67, 0
1, 1080, Note_on_c, 0, 59, 0
1, 1200, Note_on_c, 0, 67, 34
1, 1200, Note_on_c, 0, 59, 28
1, 1320, Note_on_c, 0, 59, 0
1, 1320, Note_on_c, 0, 67, 0
1, 1440, Tempo, 499210
1, 1440, Note_on_c, 0, 86, 0
1, 1440, Note_on_c, 0, 84, 55
1, 1560, Note_on_c, 0, 84, 0
1, 1560, Note_on_c, 0, 83, 51
1, 1680, Note_on_c, 0, 83, 0
1, 1680, Note_on_c, 0, 81, 51
1, 1800, Note_on_c, 0, 81, 0
1, 1800, Note_on_c, 0, 79, 51
1, 1920, Tempo, 516396
1, 1920, Note_on_c, 0, 79, 0
1, 1920, Note_on_c, 0, 78, 58
1, 1920, Note_on_c, 0, 62, 34
1, 1920, Note_on_c, 0, 69, 40
1, 2040, Note_on_c, 0, 69, 0
1, 2040, Note_on_c, 0, 62, 0
1, 2160, Note_on_c, 0, 69, 34
1, 2160, Note_on_c, 0, 62, 28
1, 2280, Note_on_c, 0, 62, 0
1, 2280, Note_on_c, 0, 69, 0
1, 2400, Tempo, 497141
1, 2400, Note_on_c, 0, 78, 0
1, 2400, Note_on_c, 0, 79, 55
1, 2520, Note_on_c, 0, 79, 0
1, 2520, Note_on_c, 0, 78, 51
1, 2640, Note_on_c, 0, 78, 0
1, 2640, Note_on_c, 0, 76, 53
1, 2760, Note_on_c, 0, 76, 0
1, 2760, Note_on_c, 0, 74, 51
1, 2880, Tempo, 514183
1, 2880, Note_on_c, 0, 74, 0
1, 2880, Note_on_c, 0, 79, 55
1, 2880, Note_on_c, 0, 67, 34
1, 2880, Note_on_c, 0, 71, 40
1, 3000, Note_on_c, 0, 71, 0
1, 3000, Note_on_c, 0, 67, 0
1, 3000, Note_on_c, 0, 79, 0
1, 3120, Tempo, 539617
1, 3120, Note_on_c, 0, 79, 50
1, 3120, Note_on_c, 0, 71, 36
1, 3120, Note_on_c, 0, 67, 30
1, 3240, Note_on_c, 0, 67, 0
1, 3240, Note_on_c, 0, 71, 0
1, 3240, Note_on_c, 0, 79, 0
1, 3360, Tempo, 497141
1, 3360, Note_on_c, 0, 81, 55
1, 3360, Note_on_c, 0, 67, 34
1, 3360, Note_on_c, 0, 71, 40
1, 3480, Note_on_c, 0, 71, 0
1, 3480, Note_on_c, 0, 67, 0
1, 3480, Note_on_c, 0, 81, 0
1, 3480, Note_on_c, 0, 79, 50
1, 3600, Note_on_c, 0, 79, 0
1, 3600, Note_on_c, 0, 78, 51
1, 3600, Note_on_c, 0, 71, 35
1, 3600, Note_on_c, 0, 67, 29
1, 3720, Note_on_c, 0, 67, 0
1, 3720, Note_on_c, 0, 71, 0
1, 3720, Note_on_c, 0, 78, 0
1, 3720, Note_on_c, 0, 79, 47
1, 3840, Tempo, 514183
1, 3840, Note_on_c, 0, 79, 0
1, 3840, Note_on_c, 0, 81, 55
1, 3840, Note_on_c, 0, 62, 34
1, 3840, Note_on_c, 0, 69, 40
1, 3960, Note_on_c, 0, 69, 0
1, 3960, Note_on_c, 0, 62, 0
1, 4080, Note_on_c, 0, 69, 35
1, 4080, Note_on_c, 0, 62, 29
1, 4200, Note_on_c, 0, 62, 0
1, 4200, Note_on_c, 0, 69, 0
1, 4320, Tempo, 497141
1, 4320, Note_on_c, 0, 81, 0
1, 4320, Note_on_c, 0, 81, 48
1, 4440, Note_on_c, 0, 81, 0
1, 4440, Note_on_c, 0, 83, 54
1, 4560, Note_on_c, 0, 83, 0
1, 4560, Note_on_c, 0, 84, 58
1, 4680, Note_on_c, 0, 84, 0
1, 4680, Note_on_c, 0, 86, 62
1, 4800, Tempo, 516396
1, 4800, Note_on_c, 0, 86, 0
1, 4800, Note_on_c, 0, 88, 65
1, 4800, Note_on_c, 0, 66, 34
1, 4800, Note_on_c, 0, 72, 40
1, 4920, Note_on_c, 0, 72, 0
1, 4920, Note_on_c, 0, 66, 0
1, 5040, Note_on_c, 0, 72, 34
1, 5040, Note_on_c, 0, 66, 28
1, 5160, Note_on_c, 0, 66, 0
1, 5160, Note_on_c, 0, 72, 0
1, 5280, Tempo, 499210
1, 5280, Note_on_c, 0, 88, 0
1, 5280, Note_on_c, 0, 86, 55
1, 5400, Note_on_c, 0, 86, 0
1, 5400, Note_on_c, 0, 84, 51
1, 5520, Note_on_c, 0, 84, 0
1, 5520, Note_on_c, 0, 83, 51
1, 5640, Note_on_c, 0, 83, 0
1, 5640, Note_on_c, 0, 81, 51
1, 5760, Tempo, 505519
1, 5760, Note_on_c, 0, 81, 0
1, 5760, Note_on_c, 0, 86, 58
1, 5760, Note_on_c, 0, 67, 34
1, 5760, Note_on_c, 0, 71, 40
1, 5850, Note_on_c, 0, 86, 0
1, 5880, Note_on_c, 0, 71, 0
1, 5880, Note_on_c, 0, 67, 0
1, 6000, Tempo, 534807
1, 6000, Note_on_c, 0, 86, 54
1, 6090, Note_on_c, 0, 86, 0
1, 6240, Tempo, 497141
1, 6240, Note_on_c, 0, 84, 55
1, 6240, Note_on_c, 0, 67, 28
1, 6240, Note_on_c, 0, 71, 34
1, 6360, Note_on_c, 0, 71, 0
1, 6360, Note_on_c, 0, 67, 0
1, 6360, Note_on_c, 0, 84, 0
1, 6360, Note_on_c, 0, 83, 51
1, 6480, Note_on_c, 0, 83, 0
1, 6480, Note_on_c, 0, 81, 53
1, 6600, Note_on_c, 0, 81, 0
1, 6600, Note_on_c, 0, 79, 51
1, 6720, Tempo, 514183
1, 6720, Note_on_c, 0, 79, 0
1, 6720, Note_on_c, 0, 84, 55
1, 6720, Note_on_c, 0, 62, 34
1, 6720, Note_on_c, 0, 69, 40
1, 6810, Note_on_c, 0, 84, 0
1, 6840, Note_on_c, 0, 69, 0
1, 6840, Note_on_c, 0, 62, 0
1, 6960, Note_on_c, 0, 84, 50
1, 7050, Note_on_c, 0, 84, 0
1, 7200, Tempo, 497141
1, 7200, Note_on_c, 0, 83, 55
1, 7200, Note_on_c, 0, 62, 34
1, 7200, Note_on_c, 0, 69, 40
1, 7320, Note_on_c, 0, 69, 0
1, 7320, Note_on_c, 0, 62, 0
1, 7320, Note_on_c, 0, 83, 0
1, 7320, Note_on_c, 0, 81, 50
1, 7440, Tempo, 525440
1, 7440, Note_on_c, 0, 81, 0
1, 7440, Note_on_c, 0, 79, 51
1, 7560, Tempo, 590029
1, 7560, Note_on_c, 0, 79, 0
1, 7560, Note_on_c, 0, 78, 47
1, 7680, Tempo, 557155
1, 7680, Note_on_c, 0, 78, 0
1, 7680, Note_on_c, 0, 79, 55
1, 7680, Note_on_c, 0, 59, 34
1, 7680, Note_on_c, 0, 67, 40
1, 7800, Note_on_c, 0, 67, 0
1, 7800, Note_on_c, 0, 59, 0
1, 7920, Note_on_c, 0, 79, 0
1, 8160, Tempo, 497141
1, 8160, Note_on_c, 0, 67, 60
1, 8280, Note_on_c, 0, 67, 0
1, 8280, Note_on_c, 0, 69, 67
1, 8400, Note_on_c, 0, 69, 0
1, 8400, Note_on_c, 0, 71, 70
1, 8520, Note_on_c, 0, 71, 0
1, 8520, Note_on_c, 0, 72, 76
1, 8640, Tempo, 516396
1, 8640, Note_on_c, 0, 72, 0
1, 8640, Note_on_c, 0, 74, 80
1, 8640, Note_on_c, 0, 55, 42
1, 8640, Note_on_c, 0, 59, 50
1, 8760, Note_on_c, 0, 59, 0
1, 8760, Note_on_c, 0, 55, 0
1, 8880, Note_on_c, 0, 59, 42
1, 8880, Note_on_c, 0, 55, 35
1, 9000, Note_on_c, 0, 55, 0
1, 9000, Note_on_c, 0, 59, 0
1, 9120, Tempo, 499210
1, 9120, Note_on_c, 0, 74, 0
1, 9120, Note_on_c, 0, 72, 68
1, 9240, Note_on_c, 0, 72, 0
1, 9240, Note_on_c, 0, 71, 63
1, 9360, Note_on_c, 0, 71, 0
1, 9360, Note_on_c, 0, 69, 63
1, 9480, Note_on_c, 0, 69, 0
1, 9480, Note_on_c, 0, 67, 63
1, 9600, Tempo, 516396
1, 9600, Note_on_c, 0, 67, 0
1, 9600, Note_on_c, 0, 66, 72
1, 9600, Note_on_c, 0, 57, 42
1, 9600, Note_on_c, 0, 60, 50
1, 9720, Note_on_c, 0, 60, 0
1, 9720, Note_on_c, 0, 57, 0
1, 9840, Note_on_c, 0, 60, 42
1, 9840, Note_on_c, 0, 57, 35
1, 9960, Note_on_c, 0, 57, 0
1, 9960, Note_on_c, 0, 60, 0
1, 10080, Tempo, 497141
1, 10080, Note_on_c, 0, 66, 0
1, 10080, Note_on_c, 0, 67, 68
1, 10200, Note_on_c, 0, 67, 0
1, 10200, Note_on_c, 0, 66, 63
1, 10320, Note_on_c, 0, 66, 0
1, 10320, Note_on_c, 0, 64, 66
1, 10440, Note_on_c, 0, 64, 0
1, 10440, Note_on_c, 0, 62, 63
1, 10560, Tempo, 514183
1, 10560, Note_on_c, 0, 62, 0
1, 10560, Note_on_c, 0, 67, 68
1, 10560, Note_on_c, 0, 55, 42
1, 10560, Note_on_c, 0, 59, 50
1, 10680, Note_on_c, 0, 59, 0
1, 10680, Note_on_c, 0, 55, 0
1, 10680, Note_on_c, 0, 67, 0
1, 10800, Tempo, 539617
1, 10800, Note_on_c, 0, 67, 62
1, 10800, Note_on_c, 0, 59, 45
1, 10800, Note_on_c, 0, 55, 37
1, 10920, Note_on_c, 0, 55, 0
1, 10920, Note_on_c, 0, 59, 0
1, 10920, Note_on_c, 0, 67, 0
1, 11040, Tempo, 497141
1, 11040, Note_on_c, 0, 69, 68
1, 11040, Note_on_c, 0, 55, 42
1, 11040, Note_on_c, 0, 59, 50
1, 11160, Note_on_c, 0, 59, 0
1, 11160, Note_on_c, 0, 55, 0
1, 11160, Note_on_c, 0, 69, 0
1, 11160, Note_on_c, 0, 67, 62
1, 11280, Note_on_c, 0, 67, 0
1, 11280, Note_on_c, 0, 66, 63
1, 11280, Note_on_c, 0, 59, 43
1, 11280, Note_on_c, 0, 55, 36
1, 11400, Note_on_c, 0, 55, 0
1, 11400, Note_on_c, 0, 59, 0
1, 11400, Note_on_c, 0, 66, 0
1, 11400, Note_on_c, 0, 67, 58
1, 11520, Tempo, 514183
1, 11520, Note_on_c, 0, 67, 0
1, 11520, Note_on_c, 0, 69, 68
1, 11520, Note_on_c, 0, 50, 42
1, 11520, Note_on_c, 0, 57, 50
1, 11640, Note_on_c, 0, 57, 0
1, 11640, Note_on_c, 0, 50, 0
1, 11760, Note_on_c, 0, 57, 43
1, 11760, Note_on_c, 0, 50, 36
1, 11880, Note_on_c, 0, 50, 0
1, 11880, Note_on_c, 0, 57, 0
1, 12000, Tempo, 497141
1, 12000, Note_on_c, 0, 69, 0
1, 12000, Note_on_c, 0, 69, 60
1, 12120, Note_on_c, 0, 69, 0
1, 12120, Note_on_c, 0, 71, 67
1, 12240, Note_on_c, 0, 71, 0
1, 12240, Note_on_c, 0, 72, 70
1, 12360, Note_on_c, 0, 72, 0
1, 12360, Note_on_c, 0, 74, 73
1, 12480, Tempo, 507657
1, 12480, Note_on_c, 0, 74, 0
1, 12480, Note_on_c, 0, 76, 80
1, 12480, Note_on_c, 0, 54, 42
1, 12480, Note_on_c, 0, 60, 50
1, 12600, Note_on_c, 0, 60, 0
1, 12600, Note_on_c, 0, 54, 0
1, 12720, Tempo, 518627
1, 12720, Note_on_c, 0, 60, 42
1, 12720, Note_on_c, 0, 54, 35
1, 12840, Note_on_c, 0, 54, 0
1, 12840, Note_on_c, 0, 60, 0
1, 12960, Tempo, 499210
1, 12960, Note_on_c, 0, 76, 0
1, 12960, Note_on_c, 0, 74, 68
1, 13080, Note_on_c, 0, 74, 0
1, 13080, Note_on_c, 0, 72, 63
1, 13200, Note_on_c, 0, 72, 0
1, 13200, Note_on_c, 0, 71, 63
1, 13320, Note_on_c, 0, 71, 0
1, 13320, Note_on_c, 0, 69, 63
1, 13440, Tempo, 516396
1, 13440, Note_on_c, 0, 69, 0
1, 13440, Note_on_c, 0, 74, 72
1, 13440, Note_on_c, 0, 55, 42
1, 13440, Note_on_c, 0, 59, 50
1, 13530, Note_on_c, 0, 74, 0
1, 13560, Note_on_c, 0, 59, 0
1, 13560, Note_on_c, 0, 55, 0
1, 13680, Tempo, 534807
1, 13680, Note_on_c, 0, 74, 58
1, 13770, Note_on_c, 0, 74, 0
1, 13920, Tempo, 497141
1, 13920, Note_on_c, 0, 72, 68
1, 13920, Note_on_c, 0, 55, 35
1, 13920, Note_on_c, 0, 59, 42
1, 14040, Note_on_c, 0, 59, 0
1, 14040, Note_on_c, 0, 55, 0
1, 14040, Note_on_c, 0, 72, 0
1, 14040, Note_on_c, 0, 71, 63
1, 14160, Note_on_c, 0, 71, 0
1, 14160, Note_on_c, 0, 69, 66
1, 14280, Note_on_c, 0, 69, 0
1, 14280, Note_on_c, 0, 67, 63
1, 14400, Tempo, 509814
1, 14400, Note_on_c, 0, 67, 0
1, 14400, Note_on_c, 0, 72, 68
1, 14400, Note_on_c, 0, 50, 42
1, 14400, Note_on_c, 0, 57, 50
1, 14490, Note_on_c, 0, 72, 0
1, 14520, Note_on_c, 0, 57, 0
1, 14520, Note_on_c, 0, 50, 0
1, 14640, Tempo, 518627
1, 14640, Note_on_c, 0, 72, 57
1, 14730, Note_on_c, 0, 72, 0
1, 14880, Tempo, 497141
1, 14880, Note_on_c, 0, 71, 68
1, 14880, Note_on_c, 0, 50, 42
1, 14880, Note_on_c, 0, 57, 50
1, 15000, Note_on_c, 0, 57, 0
1, 15000, Note_on_c, 0, 50, 0
1, 15000, Note_on_c, 0, 71, 0
1, 15000, Note_on_c, 0, 69, 62
1, 15120, Tempo, 525440
1, 15120, Note_on_c, 0, 69, 0
1, 15120, Note_on_c, 0, 67, 63
1, 15240, Tempo, 534807
1, 15240, Note_on_c, 0, 67, 0
1, 15240, Note_on_c, 0, 66, 58
1, 15360, Tempo, 505519
1, 15360, Note_on_c, 0, 66, 0
1, 15360, Note_on_c, 0, 67, 68
1, 15360, Note_on_c, 0, 55, 42
1, 15360, Note_on_c, 0, 59, 50
1, 15450, Note_on_c, 0, 67, 0
1, 15480, Note_on_c, 0, 59, 0
1, 15480, Note_on_c, 0, 55, 0
1, 15600, Tempo, 567698
1, 15600, Note_on_c, 0, 67, 57
1, 15690, Note_on_c, 0, 67, 0
1, 15840, Tempo, 499210
1, 15840, Note_on_c, 0, 79, 54
1, 15960, Note_on_c, 0, 79, 0
1, 15960, Note_on_c, 0, 78, 41
1, 16080, Note_on_c, 0, 78, 0
1, 16080, Note_on_c, 0, 79, 43
1, 16200, Note_on_c, 0, 79, 0
1, 16200, Note_on_c, 0, 76, 40
1, 16320, Tempo, 523149
1, 16320, Note_on_c, 0, 76, 0
1, 16320, Note_on_c, 0, 73, 48
1, 16320, Note_on_c, 0, 64, 34
1, 16320, Note_on_c, 0, 67, 40
1, 16440, Note_on_c, 0, 73, 0
1, 16560, Note_on_c, 0, 73, 43
1, 16680, Note_on_c, 0, 73, 0
1, 16800, Tempo, 499210
1, 16800, Note_on_c, 0, 67, 0
1, 16800, Note_on_c, 0, 64, 0
1, 16800, Note_on_c, 0, 74, 48
1, 16800, Note_on_c, 0, 67, 37
1, 16800, Note_on_c, 0, 64, 31
1, 16920, Note_on_c, 0, 74, 0
1, 16920, Note_on_c, 0, 73, 40
1, 17040, Note_on_c, 0, 73, 0
1, 17040, Note_on_c, 0, 71, 42
1, 17160, Note_on_c, 0, 71, 0
1, 17160, Note_on_c, 0, 69, 40
1, 17280, Tempo, 523149
1, 17280, Note_on_c, 0, 69, 0
1, 17280, Note_on_c, 0, 64, 0
1, 17280, Note_on_c, 0, 67, 0
1, 17280, Note_on_c, 0, 74, 48
1, 17280, Note_on_c, 0, 62, 34
1, 17280, Note_on_c, 0, 66, 40
1, 17400, Note_on_c, 0, 74, 0
1, 17520, Note_on_c, 0, 74, 45
1, 17640, Note_on_c, 0, 74, 0
1, 17760, Tempo, 499210
1, 17760, Note_on_c, 0, 66, 0
1, 17760, Note_on_c, 0, 62, 0
1, 17760, Note_on_c, 0, 81, 53
1, 17880, Note_on_c, 0, 81, 0
1, 17880, Note_on_c, 0, 78, 41
1, 18000, Note_on_c, 0, 78, 0
1, 18000, Note_on_c, 0, 81, 43
1, 18120, Note_on_c, 0, 81, 0
1, 18120, Note_on_c, 0, 74, 40
1, 18240, Tempo, 523149
1, 18240, Note_on_c, 0, 74, 0
1, 18240, Note_on_c, 0, 73, 48
1, 18240, Note_on_c, 0, 64, 34
1, 18240, Note_on_c, 0, 67, 40
1, 18360, Note_on_c, 0, 73, 0
1, 18480, Note_on_c, 0, 73, 43
1, 18600, Note_on_c, 0, 73, 0
1, 18720, Tempo, 499210
1, 18720, Note_on_c, 0, 67, 0
1, 18720, Note_on_c, 0, 64, 0
1, 18720, Note_on_c, 0, 74, 48
1, 18720, Note_on_c, 0, 67, 37
1, 18720, Note_on_c, 0, 64, 31
1, 18840, Note_on_c, 0, 74, 0
1, 18840, Note_on_c, 0, 73, 40
1, 18960, Note_on_c, 0, 73, 0
1, 18960, Note_on_c, 0, 71, 42
1, 19080, Note_on_c, 0, 71, 0
1, 19080, Note_on_c, 0, 73, 40
1, 19200, Tempo, 523149
1, 19200, Note_on_c, 0, 73, 0
1, 19200, Note_on_c, 0, 64, 0
1, 19200, Note_on_c, 0, 67, 0
1, 19200, Note_on_c, 0, 74, 48
1, 19200, Note_on_c, 0, 62, 34
1, 19200, Note_on_c, 0, 66, 40
1, 19440, Note_on_c, 0, 74, 0
1, 19440, Note_on_c, 0, 76, 46
1, 19560, Tempo, 507657
1, 19560, Note_on_c, 0, 76, 0
1, 19560, Note_on_c, 0, 78, 49
1, 19680, Tempo, 499210
1, 19680, Note_on_c, 0, 78, 0
1, 19680, Note_on_c, 0, 66, 0
1, 19680, Note_on_c, 0, 62, 0
1, 19680, Note_on_c, 0, 79, 56
1, 19800, Note_on_c, 0, 79, 0
1, 19800, Note_on_c, 0, 78, 41
1, 19920, Note_on_c, 0, 78, 0
1, 19920, Note_on_c, 0, 79, 43
1, 20040, Note_on_c, 0, 79, 0
1, 20040, Note_on_c, 0, 76, 40
1, 20160, Tempo, 523149
1, 20160, Note_on_c, 0, 76, 0
1, 20160, Note_on_c, 0, 73, 48
1, 20160, Note_on_c, 0, 64, 34
1, 20160, Note_on_c, 0, 67, 40
1, 20280, Note_on_c, 0, 73, 0
1, 20400, Note_on_c, 0, 73, 43
1, 20520, Note_on_c, 0, 73, 0
1, 20640, Tempo, 499210
1, 20640, Note_on_c, 0, 67, 0
1, 20640, Note_on_c, 0, 64, 0
1, 20640, Note_on_c, 0, 74, 48
1, 20640, Note_on_c, 0, 67, 37
1, 20640, Note_on_c, 0, 64, 31
1, 20760, Note_on_c, 0, 74, 0
1, 20760, Note_on_c, 0, 73, 40
1, 20880, Note_on_c, 0, 73, 0
1, 20880, Note_on_c, 0, 71, 42
1, 21000, Note_on_c, 0, 71, 0
1, 21000, Note_on_c, 0, 73, 40
1, 21120, Tempo, 523149
1, 21120, Note_on_c, 0, 73, 0
1, 21120, Note_on_c, 0, 64, 0
1, 21120, Note_on_c, 0, 67, 0
1, 21120, Note_on_c, 0, 74, 54
1, 21120, Note_on_c, 0, 62, 34
1, 21120, Note_on_c, 0, 66, 40
1, 21202, Tempo, 514183
1, 21240, Note_on_c, 0, 74, 0
1, 21240, Note_on_c, 0, 76, 52
1, 21282, Tempo, 511989
1, 21360, Note_on_c, 0, 76, 0
1, 21360, Note_on_c, 0, 78, 54
1, 21362, Tempo, 509814
1, 21442, Tempo, 507657
1, 21480, Note_on_c, 0, 78, 0
1, 21480, Note_on_c, 0, 79, 55
1, 21522, Tempo, 505519
1, 21600, Note_on_c, 0, 79, 0
1, 21600, Note_on_c, 0, 66, 0
1, 21600, Note_on_c, 0, 62, 0
1, 21600, Note_on_c, 0, 81, 57
1, 21602, Tempo, 507657
1, 21662, Tempo, 509814
1, 21720, Note_on_c, 0, 81, 0
1, 21720, Note_on_c, 0, 83, 60
1, 21742, Tempo, 511989
1, 21802, Tempo, 514183
1, 21840, Note_on_c, 0, 83, 0
1, 21840, Note_on_c, 0, 85, 62
1, 21862, Tempo, 516396
1, 21942, Tempo, 518627
1, 21960, Note_on_c, 0, 85, 0
1, 21960, Note_on_c, 0, 86, 63
1, 22002, Tempo, 520879
1, 22062, Tempo, 523149
1, 22080, Tempo, 523149
1, 22080, Note_on_c, 0, 86, 0
1, 22080, Note_on_c, 0, 57, 51
1, 22080, Note_on_c, 0, 64, 51
1, 22080, Note_on_c, 0, 67, 60
1, 22320, Tempo, 509814
1, 22320, Note_on_c, 0, 79, 58
1, 22440, Note_on_c, 0, 79, 0
1, 22440, Note_on_c, 0, 76, 58
1, 22560, Tempo, 503398
1, 22560, Note_on_c, 0, 76, 0
1, 22560, Note_on_c, 0, 67, 0
1, 22560, Note_on_c, 0, 64, 0
1, 22560, Note_on_c, 0, 57, 0
1, 22560, Note_on_c, 0, 73, 65
1, 22560, Note_on_c, 0, 67, 57
1, 22560, Note_on_c, 0, 64, 48
1, 22560, Note_on_c, 0, 57, 48
1, 22680, Note_on_c, 0, 73, 0
1, 22680, Note_on_c, 0, 76, 58
1, 22800, Note_on_c, 0, 76, 0
1, 22800, Note_on_c, 0, 73, 58
1, 22920, Note_on_c, 0, 73, 0
1, 22920, Note_on_c, 0, 76, 58
1, 23022, Tempo, 520879
1, 23040, Note_on_c, 0, 76, 0
1, 23040, Note_on_c, 0, 57, 0
1, 23040, Note_on_c, 0, 64, 0
1, 23040, Note_on_c, 0, 67, 0
1, 23040, Note_on_c, 0, 74, 68
1, 23040, Note_on_c, 0, 62, 51
1, 23040, Note_on_c, 0, 66, 60
1, 23104, Control_c, 0, 64, 127
1, 23160, Note_on_c, 0, 74, 0
1, 23160, Note_on_c, 0, 78, 58
1, 23280, Tempo, 507657
1, 23280, Note_on_c, 0, 78, 0
1, 23280, Note_on_c, 0, 81, 58
1, 23400, Note_on_c, 0, 81, 0
1, 23400, Note_on_c, 0, 78, 58
1, 23520, Note_on_c, 0, 78, 0
1, 23520, Note_on_c, 0, 81, 64
1, 23640, Note_on_c, 0, 81, 0
1, 23640, Note_on_c, 0, 78, 58
1, 23760, Note_on_c, 0, 78, 0
1, 23760, Note_on_c, 0, 81, 58
1, 23880, Note_on_c, 0, 81, 0
1, 23880, Note_on_c, 0, 78, 58
1, 24000, Tempo, 514183
1, 24000, Note_on_c, 0, 78, 0
1, 24000, Note_on_c, 0, 66, 0
1, 24000, Note_on_c, 0, 62, 0
1, 24000, Note_on_c, 0, 76, 68
1, 24000, Note_on_c, 0, 62, 51
1, 24000, Note_on_c, 0, 67, 60
1, 24021, Control_c, 0, 64, 0
1, 24071, Control_c, 0, 64, 127
1, 24120, Note_on_c, 0, 76, 0
1, 24120, Note_on_c, 0, 79, 57
1, 24240, Tempo, 505519
1, 24240, Note_on_c, 0, 79, 0
1, 24240, Note_on_c, 0, 83, 57
1, 24360, Note_on_c, 0, 83, 0
1, 24360, Note_on_c, 0, 79, 57
1, 24480, Note_on_c, 0, 79, 0
1, 24480, Note_on_c, 0, 83, 64
1, 24600, Note_on_c, 0, 83, 0
1, 24600, Note_on_c, 0, 79, 57
1, 24720, Note_on_c, 0, 79, 0
1, 24720, Note_on_c, 0, 83, 57
1, 24840, Note_on_c, 0, 83, 0
1, 24840, Note_on_c, 0, 79, 57
1, 24960, Tempo, 518627
1, 24960, Note_on_c, 0, 79, 0
1, 24960, Note_on_c, 0, 67, 0
1, 24960, Note_on_c, 0, 62, 0
1, 24960, Note_on_c, 0, 78, 65
1, 24960, Note_on_c, 0, 62, 51
1, 24960, Note_on_c, 0, 69, 60
1, 24981, Control_c, 0, 64, 0
1, 25052, Control_c, 0, 64, 127
1, 25080, Note_on_c, 0, 78, 0
1, 25080, Note_on_c, 0, 81, 54
1, 25200, Tempo, 505519
1, 25200, Note_on_c, 0, 81, 0
1, 25200, Note_on_c, 0, 84, 54
1, 25320, Note_on_c, 0, 84, 0
1, 25320, Note_on_c, 0, 81, 54
1, 25440, Note_on_c, 0, 81, 0
1, 25440, Note_on_c, 0, 84, 62
1, 25560, Note_on_c, 0, 84, 0
1, 25560, Note_on_c, 0, 81, 53
1, 25680, Note_on_c, 0, 81, 0
1, 25680, Note_on_c, 0, 84, 53
1, 25800, Note_on_c, 0, 84, 0
1, 25800, Note_on_c, 0, 81, 53
1, 25920, Tempo, 523149
1, 25920, Note_on_c, 0, 81, 0
1, 25920, Note_on_c, 0, 69, 0
1, 25920, Note_on_c, 0, 62, 0
1, 25920, Note_on_c, 0, 78, 55
1, 25934, Control_c, 0, 64, 0
1, 26040, Note_on_c, 0, 78, 0
1, 26040, Note_on_c, 0, 81, 45
1, 26160, Tempo, 507657
1, 26160, Note_on_c, 0, 81, 0
1, 26160, Note_on_c, 0, 84, 44
1, 26280, Note_on_c, 0, 84, 0
1, 26280, Note_on_c, 0, 81, 43
1, 26400, Tempo, 520879
1, 26400, Note_on_c, 0, 81, 0
1, 26400, Note_on_c, 0, 78, 49
1, 26520, Note_on_c, 0, 78, 0
1, 26520, Note_on_c, 0, 81, 42
1, 26640, Tempo, 507657
1, 26640, Note_on_c, 0, 81, 0
1, 26640, Note_on_c, 0, 84, 41
1, 26760, Note_on_c, 0, 84, 0
1, 26760, Note_on_c, 0, 81, 41
1, 26842, Tempo, 503398
1, 26862, Tempo, 499210
1, 26880, Note_on_c, 0, 81, 0
1, 26880, Note_on_c, 0, 78, 51
1, 26922, Tempo, 501295
1, 26962, Tempo, 503398
1, 27000, Note_on_c, 0, 78, 0
1, 27000, Note_on_c, 0, 74, 42
1, 27002, Tempo, 505519
1, 27042, Tempo, 507657
1, 27082, Tempo, 509814
1, 27120, Note_on_c, 0, 74, 0
1, 27120, Note_on_c, 0, 76, 47
1, 27122, Tempo, 511989
1, 27162, Tempo, 514183
1, 27202, Tempo, 516396
1, 27240, Note_on_c, 0, 76, 0
1, 27240, Note_on_c, 0, 78, 48
1, 27242, Tempo, 518627
1, 27282, Tempo, 520879
1, 27322, Tempo, 523149
1, 27360, Note_on_c, 0, 78, 0
1, 27360, Note_on_c, 0, 79, 50
1, 27362, Tempo, 525440
1, 27422, Tempo, 520879
1, 27462, Tempo, 518627
1, 27480, Note_on_c, 0, 79, 0
1, 27480, Note_on_c, 0, 81, 54
1, 27502, Tempo, 516396
1, 27542, Tempo, 514183
1, 27600, Note_on_c, 0, 81, 0
1, 27600, Note_on_c, 0, 83, 56
1, 27602, Tempo, 511989
1, 27642, Tempo, 509814
1, 27682, Tempo, 507657
1, 27720, Note_on_c, 0, 83, 0
1, 27720, Note_on_c, 0, 84, 61
1, 27722, Tempo, 505519
1, 27762, Tempo, 503398
1, 27840, Tempo, 516396
1, 27840, Note_on_c, 0, 84, 0
1, 27840, Note_on_c, 0, 86, 68
1, 27840, Note_on_c, 0, 59, 34
1, 27840, Note_on_c, 0, 67, 40
1, 27960, Note_on_c, 0, 67, 0
1, 27960, Note_on_c, 0, 59, 0
1, 28080, Note_on_c, 0, 67, 34
1, 28080, Note_on_c, 0, 59, 28
1, 28200, Note_on_c, 0, 59, 0
1, 28200, Note_on_c, 0, 67, 0
1, 28320, Tempo, 499210
1, 28320, Note_on_c, 0, 86, 0
1, 28320, Note_on_c, 0, 84, 55
1, 28440, Note_on_c, 0, 84, 0
1, 28440, Note_on_c, 0, 83, 51
1, 28560, Note_on_c, 0, 83, 0
1, 28560, Note_on_c, 0, 81, 51
1, 28680, Note_on_c, 0, 81, 0
1, 28680, Note_on_c, 0, 79, 51
1, 28800, Tempo, 516396
1, 28800, Note_on_c, 0, 79, 0
1, 28800, Note_on_c, 0, 78, 58
1, 28800, Note_on_c, 0, 62, 34
1, 28800, Note_on_c, 0, 69, 40
1, 28920, Note_on_c, 0, 69, 0
1, 28920, Note_on_c, 0, 62, 0
1, 29040, Note_on_c, 0, 69, 34
1, 29040, Note_on_c, 0, 62, 28
1, 29160, Note_on_c, 0, 62, 0
1, 29160, Note_on_c, 0, 69, 0
1, 29280, Tempo, 497141
1, 29280, Note_on_c, 0, 78, 0
1, 29280, Note_on_c, 0, 79, 55
1, 29400, Note_on_c, 0, 79, 0
1, 29400, Note_on_c, 0, 78, 51
1, 29520, Note_on_c, 0, 78, 0
1, 29520, Note_on_c, 0, 76, 53
1, 29640, Note_on_c, 0, 76, 0
1, 29640, Note_on_c, 0, 74, 51
1, 29760, Tempo, 514183
1, 29760, Note_on_c, 0, 74, 0
1, 29760, Note_on_c, 0, 79, 55
1, 29760, Note_on_c, 0, 67, 34
1, 29760, Note_on_c, 0, 71, 40
1, 29880, Note_on_c, 0, 71, 0
1, 29880, Note_on_c, 0, 67, 0
1, 29880, Note_on_c, 0, 79, 0
1, 30000, Tempo, 539617
1, 30000, Note_on_c, 0, 79, 50
1, 30000, Note_on_c, 0, 71, 36
1, 30000, Note_on_c, 0, 67, 30
1, 30120, Note_on_c, 0, 67, 0
1, 30120, Note_on_c, 0, 71, 0
1, 30120, Note_on_c, 0, 79, 0
1, 30240, Tempo, 497141
1, 30240, Note_on_c, 0, 81, 55
1, 30240, Note_on_c, 0, 67, 34
1, 30240, Note_on_c, 0, 71, 40
1, 30360, Note_on_c, 0, 71, 0
1, 30360, Note_on_c, 0, 67, 0
1, 30360, Note_on_c, 0, 81, 0
1, 30360, Note_on_c, 0, 79, 50
1, 30480, Note_on_c, 0, 79, 0
1, 30480, Note_on_c, 0, 78, 51
1, 30480, Note_on_c, 0, 71, 35
1, 30480, Note_on_c, 0, 67, 29
1, 30600, Note_on_c, 0, 67, 0
1, 30600, Note_on_c, 0, 71, 0
1, 30600, Note_on_c, 0, 78, 0
1, 30600, Note_on_c, 0, 79, 47
1, 30720, Tempo, 514183
1, 30720, Note_on_c, 0, 79, 0
1, 30720, Note_on_c, 0, 81, 55
1, 30720, Note_on_c, 0, 62, 34
1, 30720, Note_on_c, 0, 69, 40
1, 30840, Note_on_c, 0, 69, 0
1, 30840, Note_on_c, 0, 62, 0
1, 30960, Note_on_c, 0, 69, 35
1, 30960, Note_on_c, 0, 62, 29
1, 31080, Note_on_c, 0, 62, 0
1, 31080, Note_on_c, 0, 69, 0
1, 31200, Tempo, 497141
1, 31200, Note_on_c, 0, 81, 0
1, 31200, Note_on_c, 0, 81, 48
1, 31320, Note_on_c, 0, 81, 0
1, 31320, Note_on_c, 0, 83, 54
1, 31440, Note_on_c, 0, 83, 0
1, 31440, Note_on_c, 0, 84, 56
1, 31560, Note_on_c, 0, 84, 0
1, 31560, Note_on_c, 0, 86, 60
1, 31680, Tempo, 505519
1, 31680, Note_on_c, 0, 86, 0
1, 31680, Note_on_c, 0, 88, 65
1, 31680, Note_on_c, 0, 66, 34
1, 31680, Note_on_c, 0, 72, 40
1, 31800, Note_on_c, 0, 72, 0
1, 31800, Note_on_c, 0, 66, 0
1, 31920, Tempo, 516396
1, 31920, Note_on_c, 0, 72, 34
1, 31920, Note_on_c, 0, 66, 28
1, 32040, Note_on_c, 0, 66, 0
1, 32040, Note_on_c, 0, 72, 0
1, 32160, Tempo, 499210
1, 32160, Note_on_c, 0, 88, 0
1, 32160, Note_on_c, 0, 86, 55
1, 32280, Note_on_c, 0, 86, 0
1, 32280, Note_on_c, 0, 84, 51
1, 32400, Note_on_c, 0, 84, 0
1, 32400, Note_on_c, 0, 83, 51
1, 32520, Note_on_c, 0, 83, 0
1, 32520, Note_on_c, 0, 81, 51
1, 32640, Tempo, 505519
1, 32640, Note_on_c, 0, 81, 0
1, 32640, Note_on_c, 0, 86, 58
1, 32640, Note_on_c, 0, 67, 34
1, 32640, Note_on_c, 0, 71, 40
1, 32730, Note_on_c, 0, 86, 0
1, 32760, Note_on_c, 0, 71, 0
1, 32760, Note_on_c, 0, 67, 0
1, 32880, Tempo, 534807
1, 32880, Note_on_c, 0, 86, 58
1, 32970, Note_on_c, 0, 86, 0
1, 33120, Tempo, 497141
1, 33120, Note_on_c, 0, 84, 55
1, 33120, Note_on_c, 0, 67, 28
1, 33120, Note_on_c, 0, 71, 34
1, 33240, Note_on_c, 0, 71, 0
1, 33240, Note_on_c, 0, 67, 0
1, 33240, Note_on_c, 0, 84, 0
1, 33240, Note_on_c, 0, 83, 51
1, 33360, Note_on_c, 0, 83, 0
1, 33360, Note_on_c, 0, 81, 53
1, 33480, Note_on_c, 0, 81, 0
1, 33480, Note_on_c, 0, 79, 51
1, 33600, Tempo, 503398
1, 33600, Note_on_c, 0, 79, 0
1, 33600, Note_on_c, 0, 84, 55
1, 33600, Note_on_c, 0, 62, 34
1, 33600, Note_on_c, 0, 69, 40
1, 33690, Note_on_c, 0, 84, 0
1, 33720, Note_on_c, 0, 69, 0
1, 33720, Note_on_c, 0, 62, 0
1, 33840, Tempo, 516396
1, 33840, Note_on_c, 0, 84, 50
1, 33930, Note_on_c, 0, 84, 0
1, 34080, Tempo, 497141
1, 34080, Note_on_c, 0, 83, 55
1, 34080, Note_on_c, 0, 62, 34
1, 34080, Note_on_c, 0, 69, 40
1, 34200, Note_on_c, 0, 69, 0
1, 34200, Note_on_c, 0, 62, 0
1, 34200, Note_on_c, 0, 83, 0
1, 34200, Note_on_c, 0, 81, 50
1, 34320, Tempo, 525440
1, 34320, Note_on_c, 0, 81, 0
1, 34320, Note_on_c, 0, 79, 51
1, 34440, Tempo, 590029
1, 34440, Note_on_c, 0, 79, 0
1, 34440, Note_on_c, 0, 78, 47
1, 34560, Tempo, 562377
1, 34560, Note_on_c, 0, 78, 0
1, 34560, Note_on_c, 0, 79, 55
1, 34560, Note_on_c, 0, 59, 34
1, 34560, Note_on_c, 0, 67, 40
1, 34680, Note_on_c, 0, 67, 0
1, 34680, Note_on_c, 0, 59, 0
1, 34800, Note_on_c, 0, 79, 0
1, 35040, Tempo, 497141
1, 35040, Note_on_c, 0, 67, 60
1, 35160, Note_on_c, 0, 67, 0
1, 35160, Note_on_c, 0, 69, 67
1, 35280, Note_on_c, 0, 69, 0
1, 35280, Note_on_c, 0, 71, 70
1, 35400, Note_on_c, 0, 71, 0
1, 35400, Note_on_c, 0, 72, 72
1, 35520, Tempo, 516396
1, 35520, Note_on_c, 0, 72, 0
1, 35520, Note_on_c, 0, 74, 76
1, 35520, Note_on_c, 0, 43, 50
1, 35760, Note_on_c, 0, 43, 0
1, 35760, Note_on_c, 0, 47, 46
1, 36000, Tempo, 499210
1, 36000, Note_on_c, 0, 47, 0
1, 36000, Note_on_c, 0, 74, 0
1, 36000, Note_on_c, 0, 72, 68
1, 36000, Note_on_c, 0, 50, 45
1, 36120, Note_on_c, 0, 72, 0
1, 36120, Note_on_c, 0, 71, 63
1, 36240, Note_on_c, 0, 71, 0
1, 36240, Note_on_c, 0, 50, 0
1, 36240, Note_on_c, 0, 69, 63
1, 36240, Note_on_c, 0, 55, 45
1, 36360, Note_on_c, 0, 69, 0
1, 36360, Note_on_c, 0, 67, 63
1, 36480, Tempo, 516396
1, 36480, Note_on_c, 0, 67, 0
1, 36480, Note_on_c, 0, 55, 0
1, 36480, Note_on_c, 0, 66, 72
1, 36480, Note_on_c, 0, 45, 50
1, 36720, Note_on_c, 0, 45, 0
1, 36720, Note_on_c, 0, 48, 46
1, 36960, Tempo, 497141
1, 36960, Note_on_c, 0, 48, 0
1, 36960, Note_on_c, 0, 66, 0
1, 36960, Note_on_c, 0, 67, 68
1, 36960, Note_on_c, 0, 50, 45
1, 37080, Note_on_c, 0, 67, 0
1, 37080, Note_on_c, 0, 66, 63
1, 37200, Note_on_c, 0, 66, 0
1, 37200, Note_on_c, 0, 50, 0
1, 37200, Note_on_c, 0, 64, 66
1, 37200, Note_on_c, 0, 54, 45
1, 37320, Note_on_c, 0, 64, 0
1, 37320, Note_on_c, 0, 62, 63
1, 37440, Tempo, 514183
1, 37440, Note_on_c, 0, 62, 0
1, 37440, Note_on_c, 0, 54, 0
1, 37440, Note_on_c, 0, 67, 68
1, 37440, Note_on_c, 0, 43, 50
1, 37560, Note_on_c, 0, 67, 0
1, 37680, Tempo, 532434
1, 37680, Note_on_c, 0, 43, 0
1, 37680, Note_on_c, 0, 67, 62
1, 37680, Note_on_c, 0, 47, 46
1, 37800, Note_on_c, 0, 67, 0
1, 37920, Tempo, 497141
1, 37920, Note_on_c, 0, 47, 0
1, 37920, Note_on_c, 0, 69, 68
1, 37920, Note_on_c, 0, 50, 45
1, 38040, Note_on_c, 0, 69, 0
1, 38040, Note_on_c, 0, 67, 62
1, 38160, Note_on_c, 0, 67, 0
1, 38160, Note_on_c, 0, 50, 0
1, 38160, Note_on_c, 0, 66, 63
1, 38160, Note_on_c, 0, 55, 45
1, 38280, Note_on_c, 0, 66, 0
1, 38280, Note_on_c, 0, 67, 58
1, 38400, Tempo, 514183
1, 38400, Note_on_c, 0, 67, 0
1, 38400, Note_on_c, 0, 55, 0
1, 38400, Note_on_c, 0, 69, 68
1, 38400, Note_on_c, 0, 38, 50
1, 38640, Note_on_c, 0, 38, 0
1, 38640, Note_on_c, 0, 50, 46
1, 38880, Tempo, 497141
1, 38880, Note_on_c, 0, 50, 0
1, 38880, Note_on_c, 0, 69, 0
1, 38880, Note_on_c, 0, 69, 60
1, 38880, Note_on_c, 0, 54, 45
1, 39000, Note_on_c, 0, 69, 0
1, 39000, Note_on_c, 0, 71, 67
1, 39120, Note_on_c, 0, 71, 0
1, 39120, Note_on_c, 0, 54, 0
1, 39120, Note_on_c, 0, 72, 70
1, 39120, Note_on_c, 0, 57, 45
1, 39240, Note_on_c, 0, 72, 0
1, 39240, Note_on_c, 0, 74, 73
1, 39360, Tempo, 507657
1, 39360, Note_on_c, 0, 74, 0
1, 39360, Note_on_c, 0, 57, 0
1, 39360, Note_on_c, 0, 76, 80
1, 39360, Note_on_c, 0, 60, 50
1, 39360, Note_on_c, 0, 54, 42
1, 39480, Note_on_c, 0, 54, 0
1, 39480, Note_on_c, 0, 60, 0
1, 39600, Tempo, 516396
1, 39600, Note_on_c, 0, 54, 35
1, 39600, Note_on_c, 0, 60, 42
1, 39720, Note_on_c, 0, 60, 0
1, 39720, Note_on_c, 0, 54, 0
1, 39840, Tempo, 499210
1, 39840, Note_on_c, 0, 76, 0
1, 39840, Note_on_c, 0, 74, 68
1, 39960, Note_on_c, 0, 74, 0
1, 39960, Note_on_c, 0, 72, 63
1, 40080, Note_on_c, 0, 72, 0
1, 40080, Note_on_c, 0, 71, 63
1, 40200, Note_on_c, 0, 71, 0
1, 40200, Note_on_c, 0, 69, 63
1, 40320, Tempo, 505519
1, 40320, Note_on_c, 0, 69, 0
1, 40320, Note_on_c, 0, 74, 72
1, 40320, Note_on_c, 0, 59, 50
1, 40320, Note_on_c, 0, 55, 42
1, 40410, Note_on_c, 0, 74, 0
1, 40440, Note_on_c, 0, 55, 0
1, 40440, Note_on_c, 0, 59, 0
1, 40560, Tempo, 534807
1, 40560, Note_on_c, 0, 74, 62
1, 40650, Note_on_c, 0, 74, 0
1, 40800, Tempo, 497141
1, 40800, Note_on_c, 0, 72, 68
1, 40800, Note_on_c, 0, 59, 42
1, 40800, Note_on_c, 0, 55, 35
1, 40920, Note_on_c, 0, 55, 0
1, 40920, Note_on_c, 0, 59, 0
1, 40920, Note_on_c, 0, 72, 0
1, 40920, Note_on_c, 0, 71, 63
1, 41040, Note_on_c, 0, 71, 0
1, 41040, Note_on_c, 0, 69, 66
1, 41160, Note_on_c, 0, 69, 0
1, 41160, Note_on_c, 0, 67, 63
1, 41280, Tempo, 503398
1, 41280, Note_on_c, 0, 67, 0
1, 41280, Note_on_c, 0, 72, 68
1, 41280, Note_on_c, 0, 57, 50
1, 41280, Note_on_c, 0, 50, 42
1, 41370, Note_on_c, 0, 72, 0
1, 41400, Note_on_c, 0, 50, 0
1, 41400, Note_on_c, 0, 57, 0
1, 41520, Tempo, 516396
1, 41520, Note_on_c, 0, 72, 57
1, 41610, Note_on_c, 0, 72, 0
1, 41760, Tempo, 497141
1, 41760, Note_on_c, 0, 71, 68
1, 41760, Note_on_c, 0, 50, 42
1, 41760, Note_on_c, 0, 57, 50
1, 41880, Note_on_c, 0, 57, 0
1, 41880, Note_on_c, 0, 50, 0
1, 41880, Note_on_c, 0, 71, 0
1, 41880, Note_on_c, 0, 69, 62
1, 42000, Tempo, 525440
1, 42000, Note_on_c, 0, 69, 0
1, 42000, Note_on_c, 0, 67, 63
1, 42120, Tempo, 534807
1, 42120, Note_on_c, 0, 67, 0
1, 42120, Note_on_c, 0, 66, 58
1, 42240, Tempo, 525440
1, 42240, Note_on_c, 0, 66, 0
1, 42240, Note_on_c, 0, 67, 68
1, 42240, Note_on_c, 0, 43, 50
1, 42442, Tempo, 518627
1, 42480, Note_on_c, 0, 43, 0
1, 42480, Note_on_c, 0, 67, 0
1, 42480, Note_on_c, 0, 45, 35
1, 42522, Tempo, 516396
1, 42600, Note_on_c, 0, 45, 0
1, 42600, Note_on_c, 0, 47, 37
1, 42602, Tempo, 514183
1, 42662, Tempo, 511989
1, 42720, Note_on_c, 0, 47, 0
1, 42720, Note_on_c, 0, 48, 39
1, 42742, Tempo, 509814
1, 42802, Tempo, 507657
1, 42840, Note_on_c, 0, 48, 0
1, 42840, Note_on_c, 0, 50, 41
1, 42882, Tempo, 505519
1, 42942, Tempo, 501295
1, 42960, Note_on_c, 0, 50, 0
1, 42960, Note_on_c, 0, 52, 45
1, 42962, Tempo, 503398
1, 42982, Tempo, 505519
1, 43002, Tempo, 507657
1, 43022, Tempo, 509814
1, 43042, Tempo, 511989
1, 43062, Tempo, 514183
1, 43080, Note_on_c, 0, 52, 0
1, 43080, Note_on_c, 0, 54, 48
1, 43082, Tempo, 516396
1, 43102, Tempo, 518627
1, 43122, Tempo, 520879
1, 43142, Tempo, 525440
1, 43182, Tempo, 523149
1, 43200, Tempo, 537201
1, 43200, Note_on_c, 0, 54, 0
1, 43200, Note_on_c, 0, 55, 54
1, 43320, Note_on_c, 0, 55, 0
1, 43440, Tempo, 520879
1, 43440, Note_on_c, 0, 76, 46
1, 43440, Note_on_c, 0, 72, 39
1, 43530, Note_on_c, 0, 72, 0
1, 43530, Note_on_c, 0, 76, 0
1, 43680, Tempo, 525440
1, 43680, Note_on_c, 0, 71, 45
1, 43680, Note_on_c, 0, 74, 53
1, 43770, Note_on_c, 0, 74, 0
1, 43770, Note_on_c, 0, 71, 0
1, 43920, Tempo, 546996
1, 43920, Note_on_c, 0, 76, 49
1, 43920, Note_on_c, 0, 72, 41
1, 44010, Note_on_c, 0, 72, 0
1, 44010, Note_on_c, 0, 76, 0
1, 44160, Tempo, 525440
1, 44160, Note_on_c, 0, 71, 45
1, 44160, Note_on_c, 0, 74, 54
1, 44160, Note_on_c, 0, 43, 46
1, 44280, Note_on_c, 0, 74, 0
1, 44280, Note_on_c, 0, 71, 0
1, 44362, Tempo, 518627
1, 44400, Note_on_c, 0, 43, 0
1, 44400, Note_on_c, 0, 45, 35
1, 44442, Tempo, 516396
1, 44520, Note_on_c, 0, 45, 0
1, 44520, Note_on_c, 0, 47, 37
1, 44522, Tempo, 514183
1, 44582, Tempo, 511989
1, 44640, Note_on_c, 0, 47, 0
1, 44640, Note_on_c, 0, 48, 39
1, 44662, Tempo, 509814
1, 44722, Tempo, 507657
1, 44760, Note_on_c, 0, 48, 0
1, 44760, Note_on_c, 0, 50, 41
1, 44802, Tempo, 505519
1, 44862, Tempo, 501295
1, 44880, Note_on_c, 0, 50, 0
1, 44880, Note_on_c, 0, 52, 45
1, 44882, Tempo, 503398
1, 44902, Tempo, 505519
1, 44922, Tempo, 507657
1, 44942, Tempo, 509814
1, 44962, Tempo, 511989
1, 44982, Tempo, 514183
1, 45000, Note_on_c, 0, 52, 0
1, 45000, Note_on_c, 0, 54, 48
1, 45002, Tempo, 516396
1, 45022, Tempo, 518627
1, 45042, Tempo, 520879
1, 45062, Tempo, 525440
1, 45102, Tempo, 523149
1, 45120, Tempo, 537201
1, 45120, Note_on_c, 0, 54, 0
1, 45120, Note_on_c, 0, 55, 54
1, 45240, Note_on_c, 0, 55, 0
1, 45360, Tempo, 520879
1, 45360, Note_on_c, 0, 76, 50
1, 45360, Note_on_c, 0, 72, 42
1, 45450, Note_on_c, 0, 72, 0
1, 45450, Note_on_c, 0, 76, 0
1, 45600, Tempo, 523149
1, 45600, Note_on_c, 0, 71, 49
1, 45600, Note_on_c, 0, 74, 58
1, 45690, Note_on_c, 0, 74, 0
1, 45690, Note_on_c, 0, 71, 0
1, 45840, Tempo, 539617
1, 45840, Note_on_c, 0, 76, 53
1, 45840, Note_on_c, 0, 72, 45
1, 45930, Note_on_c, 0, 72, 0
1, 45930, Note_on_c, 0, 76, 0
1, 46080, Tempo, 525440
1, 46080, Note_on_c, 0, 71, 49
1, 46080, Note_on_c, 0, 74, 59
1, 46080, Note_on_c, 0, 43, 50
1, 46200, Note_on_c, 0, 74, 0
1, 46200, Note_on_c, 0, 71, 0
1, 46282, Tempo, 518627
1, 46320, Note_on_c, 0, 43, 0
1, 46320, Note_on_c, 0, 45, 40
1, 46362, Tempo, 516396
1, 46440, Note_on_c, 0, 45, 0
1, 46440, Note_on_c, 0, 47, 44
1, 46442, Tempo, 514183
1, 46502, Tempo, 511989
1, 46560, Note_on_c, 0, 47, 0
1, 46560, Note_on_c, 0, 48, 47
1, 46582, Tempo, 509814
1, 46642, Tempo, 507657
1, 46680, Note_on_c, 0, 48, 0
1, 46680, Note_on_c, 0, 50, 51
1, 46722, Tempo, 505519
1, 46782, Tempo, 501295
1, 46800, Note_on_c, 0, 50, 0
1, 46800, Note_on_c, 0, 52, 54
1, 46802, Tempo, 503398
1, 46822, Tempo, 505519
1, 46842, Tempo, 507657
1, 46862, Tempo, 509814
1, 46882, Tempo, 511989
1, 46902, Tempo, 514183
1, 46920, Note_on_c, 0, 52, 0
1, 46920, Note_on_c, 0, 54, 56
1, 46922, Tempo, 516396
1, 46942, Tempo, 518627
1, 46962, Tempo, 520879
1, 46982, Tempo, 525440
1, 47022, Tempo, 523149
1, 47040, Tempo, 537201
1, 47040, Note_on_c, 0, 54, 0
1, 47040, Note_on_c, 0, 55, 60
1, 47160, Note_on_c, 0, 55, 0
1, 47280, Tempo, 523149
1, 47280, Note_on_c, 0, 67, 56
1, 47280, Note_on_c, 0, 76, 64
1, 47280, Note_on_c, 0, 60, 52
1, 47400, Note_on_c, 0, 60, 0
1, 47400, Note_on_c, 0, 76, 0
1, 47400, Note_on_c, 0, 67, 0
1, 47520, Tempo, 516396
1, 47520, Note_on_c, 0, 74, 74
1, 47520, Note_on_c, 0, 67, 65
1, 47520, Note_on_c, 0, 59, 57
1, 47640, Note_on_c, 0, 59, 0
1, 47640, Note_on_c, 0, 67, 0
1, 47640, Note_on_c, 0, 74, 0
1, 47760, Tempo, 532434
1, 47760, Note_on_c, 0, 67, 57
1, 47760, Note_on_c, 0, 76, 65
1, 47760, Note_on_c, 0, 60, 54
1, 47880, Note_on_c, 0, 60, 0
1, 47880, Note_on_c, 0, 76, 0
1, 47880, Note_on_c, 0, 67, 0
1, 48000, Tempo, 518627
1, 48000, Note_on_c, 0, 74, 74
1, 48000, Note_on_c, 0, 67, 65
1, 48000, Note_on_c, 0, 59, 57
1, 48120, Note_on_c, 0, 59, 0
1, 48120, Note_on_c, 0, 67, 0
1, 48120, Note_on_c, 0, 74, 0
1, 48240, Note_on_c, 0, 67, 55
1, 48240, Note_on_c, 0, 74, 63
1, 48240, Note_on_c, 0, 59, 49
1, 48360, Note_on_c, 0, 59, 0
1, 48360, Note_on_c, 0, 74, 0
1, 48360, Note_on_c, 0, 67, 0
1, 48480, Note_on_c, 0, 72, 72
1, 48480, Note_on_c, 0, 69, 63
1, 48480, Note_on_c, 0, 60, 54
1, 48600, Note_on_c, 0, 60, 0
1, 48600, Note_on_c, 0, 69, 0
1, 48600, Note_on_c, 0, 72, 0
1, 48720, Tempo, 537201
1, 48720, Note_on_c, 0, 72, 62
1, 48720, Note_on_c, 0, 69, 54
1, 48720, Note_on_c, 0, 60, 50
1, 48840, Note_on_c, 0, 60, 0
1, 48840, Note_on_c, 0, 69, 0
1, 48840, Note_on_c, 0, 72, 0
1, 48960, Tempo, 518627
1, 48960, Note_on_c, 0, 71, 71
1, 48960, Note_on_c, 0, 67, 62
1, 48960, Note_on_c, 0, 62, 50
1, 49080, Note_on_c, 0, 62, 0
1, 49080, Note_on_c, 0, 67, 0
1, 49080, Note_on_c, 0, 71, 0
1, 49200, Note_on_c, 0, 71, 60
1, 49200, Note_on_c, 0, 67, 53
1, 49200, Note_on_c, 0, 62, 48
1, 49320, Note_on_c, 0, 62, 0
1, 49320, Note_on_c, 0, 67, 0
1, 49320, Note_on_c, 0, 71, 0
1, 49440, Tempo, 554580
1, 49440, Note_on_c, 0, 69, 71
1, 49440, Note_on_c, 0, 66, 62
1, 49440, Note_on_c, 0, 50, 54
1, 49560, Note_on_c, 0, 50, 0
1, 49560, Note_on_c, 0, 66, 0
1, 49560, Note_on_c, 0, 69, 0
1, 49680, Tempo, 590029
1, 49680, Note_on_c, 0, 69, 58
1, 49680, Note_on_c, 0, 66, 51
1, 49680, Note_on_c, 0, 50, 48
1, 49800, Note_on_c, 0, 50, 0
1, 49800, Note_on_c, 0, 66, 0
1, 49800, Note_on_c, 0, 69, 0
1, 49920, Tempo, 537201
1, 49920, Note_on_c, 0, 67, 71
1, 49920, Note_on_c, 0, 55, 54
1, 50040, Note_on_c, 0, 55, 0
1, 50040, Note_on_c, 0, 67, 0
1, 50400, Tempo, 497141
1, 50400, Note_on_c, 0, 86, 48
1, 50422, Tempo, 485084
1, 50482, Tempo, 487053
1, 50520, Note_on_c, 0, 86, 0
1, 50520, Note_on_c, 0, 84, 54
1, 50542, Tempo, 489037
1, 50602, Tempo, 491039
1, 50640, Note_on_c, 0, 84, 0
1, 50640, Note_on_c, 0, 83, 56
1, 50642, Tempo, 493056
1, 50702, Tempo, 495090
1, 50760, Note_on_c, 0, 83, 0
1, 50760, Note_on_c, 0, 81, 58
1, 50762, Tempo, 497141
1, 50822, Tempo, 499210
1, 50862, Tempo, 501295
1, 50880, Tempo, 516396
1, 50880, Note_on_c, 0, 81, 0
1, 50880, Note_on_c, 0, 79, 61
1, 51000, Note_on_c, 0, 79, 0
1, 51120, Note_on_c, 0, 79, 53
1, 51240, Note_on_c, 0, 79, 0
1, 51360, Tempo, 534807
1, 51360, Note_on_c, 0, 74, 58
1, 51360, Note_on_c, 0, 62, 25
1, 51360, Note_on_c, 0, 69, 34
1, 51480, Note_on_c, 0, 74, 0
1, 51600, Tempo, 552029
1, 51600, Note_on_c, 0, 74, 49
1, 51720, Note_on_c, 0, 74, 0
1, 51840, Tempo, 516396
1, 51840, Note_on_c, 0, 69, 0
1, 51840, Note_on_c, 0, 62, 0
1, 51840, Note_on_c, 0, 71, 58
1, 51840, Note_on_c, 0, 67, 40
1, 51960, Note_on_c, 0, 67, 0
1, 51960, Note_on_c, 0, 71, 0
1, 52320, Tempo, 497141
1, 52320, Note_on_c, 0, 86, 48
1, 52342, Tempo, 487053
1, 52422, Tempo, 489037
1, 52440, Note_on_c, 0, 86, 0
1, 52440, Note_on_c, 0, 84, 54
1, 52482, Tempo, 491039
1, 52560, Note_on_c, 0, 84, 0
1, 52560, Note_on_c, 0, 83, 56
1, 52562, Tempo, 493056
1, 52622, Tempo, 495090
1, 52680, Note_on_c, 0, 83, 0
1, 52680, Note_on_c, 0, 81, 58
1, 52702, Tempo, 497141
1, 52762, Tempo, 499210
1, 52800, Tempo, 516396
1, 52800, Note_on_c, 0, 81, 0
1, 52800, Note_on_c, 0, 79, 61
1, 52920, Note_on_c, 0, 79, 0
1, 53040, Note_on_c, 0, 79, 53
1, 53160, Note_on_c, 0, 79, 0
1, 53280, Tempo, 534807
1, 53280, Note_on_c, 0, 74, 58
1, 53280, Note_on_c, 0, 62, 25
1, 53280, Note_on_c, 0, 69, 34
1, 53400, Note_on_c, 0, 74, 0
1, 53520, Tempo, 552029
1, 53520, Note_on_c, 0, 74, 49
1, 53640, Note_on_c, 0, 74, 0
1, 53760, Tempo, 516396
1, 53760, Note_on_c, 0, 69, 0
1, 53760, Note_on_c, 0, 62, 0
1, 53760, Note_on_c, 0, 71, 58
1, 53760, Note_on_c, 0, 67, 40
1, 53880, Note_on_c, 0, 67, 0
1, 53880, Note_on_c, 0, 71, 0
1, 54240, Tempo, 542054
1, 54240, Note_on_c, 0, 78, 80
1, 54240, Note_on_c, 0, 72, 67
1, 54240, Note_on_c, 0, 69, 67
1, 54240, Note_on_c, 0, 50, 39
1, 54240, Note_on_c, 0, 62, 46
1, 54360, Note_on_c, 0, 62, 0
1, 54360, Note_on_c, 0, 69, 0
1, 54360, Note_on_c, 0, 78, 0
1, 54360, Note_on_c, 0, 72, 0
1, 54360, Note_on_c, 0, 50, 0
1, 54720, Tempo, 537201
1, 54720, Note_on_c, 0, 79, 87
1, 54720, Note_on_c, 0, 74, 73
1, 54720, Note_on_c, 0, 71, 73
1, 54720, Note_on_c, 0, 59, 51
1, 54720, Note_on_c, 0, 55, 43
1, 54840, Note_on_c, 0, 55, 0
1, 54840, Note_on_c, 0, 71, 0
1, 54840, Note_on_c, 0, 79, 0
1, 54840, Note_on_c, 0, 74, 0
1, 54840, Note_on_c, 0, 59, 0
1, 55200, Tempo, 552029
1, 55200, Note_on_c, 0, 78, 80
1, 55200, Note_on_c, 0, 74, 67
1, 55200, Note_on_c, 0, 69, 67
1, 55200, Note_on_c, 0, 50, 39
1, 55200, Note_on_c, 0, 62, 46
1, 55320, Note_on_c, 0, 62, 0
1, 55320, Note_on_c, 0, 69, 0
1, 55320, Note_on_c, 0, 78, 0
1, 55320, Note_on_c, 0, 74, 0
1, 55320, Note_on_c, 0, 50, 0
1, 55680, Tempo, 730016
1, 55680, Note_on_c, 0, 79, 90
1, 55680, Note_on_c, 0, 74, 77
1, 55680, Note_on_c, 0, 71, 77
1, 55680, Note_on_c, 0, 59, 52
1, 55680, Note_on_c, 0, 55, 44
1, 55800, Note_on_c, 0, 55, 0
1, 55800, Note_on_c, 0, 71, 0
1, 55800, Note_on_c, 0, 79, 0
1, 55800, Note_on_c, 0, 74, 0
1, 55800, Note_on_c, 0, 59, 0
1, 56160, Tempo, 514183
1, 56160, Marker_t, "Teil 2"
1, 56160, Note_on_c, 0, 71, 52
1, 56280, Note_on_c, 0, 71, 0
1, 56400, Tempo, 520879
1, 56400, Note_on_c, 0, 71, 42
1, 56520, Note_on_c, 0, 71, 0
1, 56640, Tempo, 516396
1, 56640, Note_on_c, 0, 71, 52
1, 56760, Note_on_c, 0, 71, 0
1, 56880, Tempo, 505519
1, 56880, Note_on_c, 0, 71, 40
1, 57000, Note_on_c, 0, 71, 0
1, 57120, Tempo, 495090
1, 57120, Note_on_c, 0, 76, 46
1, 57120, Note_on_c, 0, 67, 30
1, 57240, Note_on_c, 0, 76, 0
1, 57360, Note_on_c, 0, 76, 38
1, 57480, Note_on_c, 0, 76, 0
1, 57600, Tempo, 511989
1, 57600, Note_on_c, 0, 67, 0
1, 57600, Note_on_c, 0, 75, 52
1, 57600, Note_on_c, 0, 66, 30
1, 57720, Note_on_c, 0, 75, 0
1, 57840, Tempo, 489037
1, 57840, Note_on_c, 0, 75, 40
1, 57960, Note_on_c, 0, 75, 0
1, 58080, Tempo, 497141
1, 58080, Note_on_c, 0, 66, 0
1, 58080, Note_on_c, 0, 71, 43
1, 58200, Note_on_c, 0, 71, 0
1, 58320, Tempo, 507657
1, 58320, Note_on_c, 0, 71, 33
1, 58440, Note_on_c, 0, 71, 0
1, 58560, Tempo, 503398
1, 58560, Note_on_c, 0, 71, 52
1, 58680, Note_on_c, 0, 71, 0
1, 58800, Note_on_c, 0, 71, 38
1, 58920, Tempo, 509814
1, 58920, Note_on_c, 0, 71, 0
1, 59040, Tempo, 493056
1, 59040, Note_on_c, 0, 79, 45
1, 59040, Note_on_c, 0, 64, 30
1, 59160, Note_on_c, 0, 79, 0
1, 59280, Note_on_c, 0, 79, 38
1, 59400, Note_on_c, 0, 79, 0
1, 59520, Tempo, 503398
1, 59520, Note_on_c, 0, 64, 0
1, 59520, Note_on_c, 0, 78, 52
1, 59520, Note_on_c, 0, 63, 30
1, 59640, Note_on_c, 0, 78, 0
1, 59760, Tempo, 487053
1, 59760, Note_on_c, 0, 78, 42
1, 59880, Note_on_c, 0, 78, 0
1, 60000, Tempo, 493056
1, 60000, Note_on_c, 0, 63, 0
1, 60000, Note_on_c, 0, 83, 49
1, 60000, Note_on_c, 0, 62, 30
1, 60120, Note_on_c, 0, 83, 0
1, 60240, Tempo, 487053
1, 60240, Note_on_c, 0, 83, 44
1, 60360, Note_on_c, 0, 83, 0
1, 60480, Tempo, 491039
1, 60480, Note_on_c, 0, 62, 0
1, 60480, Note_on_c, 0, 76, 52
1, 60480, Note_on_c, 0, 61, 30
1, 60600, Note_on_c, 0, 76, 0
1, 60720, Tempo, 489037
1, 60720, Note_on_c, 0, 76, 42
1, 60840, Note_on_c, 0, 76, 0
1, 60960, Tempo, 499210
1, 60960, Note_on_c, 0, 61, 0
1, 60960, Note_on_c, 0, 81, 49
1, 60960, Note_on_c, 0, 60, 30
1, 61080, Note_on_c, 0, 81, 0
1, 61200, Tempo, 495090
1, 61200, Note_on_c, 0, 81, 44
1, 61320, Note_on_c, 0, 81, 0
1, 61440, Tempo, 505519
1, 61440, Note_on_c, 0, 60, 0
1, 61440, Note_on_c, 0, 74, 52
1, 61440, Note_on_c, 0, 59, 30
1, 61560, Note_on_c, 0, 74, 0
1, 61680, Note_on_c, 0, 74, 46
1, 61800, Tempo, 516396
1, 61800, Note_on_c, 0, 74, 0
1, 61920, Tempo, 493056
1, 61920, Note_on_c, 0, 59, 0
1, 61920, Note_on_c, 0, 81, 62
1, 61920, Note_on_c, 0, 52, 30
1, 62040, Note_on_c, 0, 81, 0
1, 62040, Note_on_c, 0, 79, 51
1, 62160, Note_on_c, 0, 79, 0
1, 62160, Note_on_c, 0, 78, 51
1, 62280, Note_on_c, 0, 78, 0
1, 62280, Note_on_c, 0, 79, 52
1, 62400, Tempo, 505519
1, 62400, Note_on_c, 0, 79, 0
1, 62400, Note_on_c, 0, 52, 0
1, 62400, Note_on_c, 0, 76, 63
1, 62400, Note_on_c, 0, 55, 30
1, 62520, Note_on_c, 0, 76, 0
1, 62640, Tempo, 493056
1, 62640, Note_on_c, 0, 76, 45
1, 62760, Note_on_c, 0, 76, 0
1, 62880, Tempo, 499210
1, 62880, Note_on_c, 0, 55, 0
1, 62880, Note_on_c, 0, 73, 52
1, 62880, Note_on_c, 0, 52, 30
1, 63000, Note_on_c, 0, 73, 0
1, 63120, Note_on_c, 0, 73, 44
1, 63240, Note_on_c, 0, 73, 0
1, 63360, Tempo, 505519
1, 63360, Note_on_c, 0, 52, 0
1, 63360, Note_on_c, 0, 70, 52
1, 63360, Note_on_c, 0, 54, 30
1, 63480, Note_on_c, 0, 70, 0
1, 63600, Note_on_c, 0, 70, 42
1, 63720, Note_on_c, 0, 70, 0
1, 63840, Tempo, 497141
1, 63840, Note_on_c, 0, 66, 51
1, 63960, Note_on_c, 0, 66, 0
1, 64080, Tempo, 520879
1, 64080, Note_on_c, 0, 66, 43
1, 64200, Note_on_c, 0, 66, 0
1, 64320, Tempo, 516396
1, 64320, Note_on_c, 0, 54, 0
1, 64320, Note_on_c, 0, 66, 53
1, 64440, Note_on_c, 0, 66, 0
1, 64560, Tempo, 505519
1, 64560, Note_on_c, 0, 66, 43
1, 64680, Note_on_c, 0, 66, 0
1, 64800, Tempo, 493056
1, 64800, Note_on_c, 0, 71, 63
1, 64800, Note_on_c, 0, 62, 37
1, 64920, Note_on_c, 0, 71, 0
1, 65040, Note_on_c, 0, 71, 55
1, 65160, Note_on_c, 0, 71, 0
1, 65280, Tempo, 520879
1, 65280, Note_on_c, 0, 62, 0
1, 65280, Note_on_c, 0, 70, 67
1, 65280, Note_on_c, 0, 61, 37
1, 65400, Note_on_c, 0, 70, 0
1, 65520, Tempo, 501295
1, 65520, Note_on_c, 0, 70, 48
1, 65640, Note_on_c, 0, 70, 0
1, 65760, Tempo, 491039
1, 65760, Note_on_c, 0, 61, 0
1, 65760, Note_on_c, 0, 66, 57
1, 65880, Note_on_c, 0, 66, 0
1, 66000, Note_on_c, 0, 66, 48
1, 66120, Note_on_c, 0, 66, 0
1, 66240, Tempo, 505519
1, 66240, Note_on_c, 0, 66, 61
1, 66360, Note_on_c, 0, 66, 0
1, 66480, Note_on_c, 0, 66, 50
1, 66600, Tempo, 509814
1, 66600, Note_on_c, 0, 66, 0
1, 66720, Tempo, 491039
1, 66720, Note_on_c, 0, 74, 62
1, 66720, Note_on_c, 0, 59, 37
1, 66840, Note_on_c, 0, 74, 0
1, 66960, Note_on_c, 0, 74, 49
1, 67080, Note_on_c, 0, 74, 0
1, 67200, Tempo, 497141
1, 67200, Note_on_c, 0, 59, 0
1, 67200, Note_on_c, 0, 73, 71
1, 67200, Note_on_c, 0, 58, 37
1, 67320, Note_on_c, 0, 73, 0
1, 67440, Tempo, 481193
1, 67440, Note_on_c, 0, 73, 56
1, 67560, Note_on_c, 0, 73, 0
1, 67680, Tempo, 493056
1, 67680, Note_on_c, 0, 58, 0
1, 67680, Note_on_c, 0, 78, 68
1, 67680, Note_on_c, 0, 57, 37
1, 67800, Note_on_c, 0, 78, 0
1, 67920, Tempo, 481193
1, 67920, Note_on_c, 0, 78, 50
1, 68040, Note_on_c, 0, 78, 0
1, 68160, Tempo, 499210
1, 68160, Note_on_c, 0, 57, 0
1, 68160, Note_on_c, 0, 71, 69
1, 68160, Note_on_c, 0, 56, 37
1, 68280, Note_on_c, 0, 71, 0
1, 68400, Tempo, 485084
1, 68400, Note_on_c, 0, 71, 55
1, 68520, Note_on_c, 0, 71, 0
1, 68640, Tempo, 501295
1, 68640, Note_on_c, 0, 56, 0
1, 68640, Note_on_c, 0, 76, 65
1, 68640, Note_on_c, 0, 55, 37
1, 68760, Note_on_c, 0, 76, 0
1, 68880, Tempo, 487053
1, 68880, Note_on_c, 0, 76, 56
1, 69000, Note_on_c, 0, 76, 0
1, 69120, Tempo, 499210
1, 69120, Note_on_c, 0, 55, 0
1, 69120, Note_on_c, 0, 69, 68
1, 69120, Note_on_c, 0, 54, 37
1, 69240, Note_on_c, 0, 69, 0
1, 69360, Note_on_c, 0, 69, 60
1, 69480, Tempo, 523149
1, 69480, Note_on_c, 0, 69, 0
1, 69600, Tempo, 501295
1, 69600, Note_on_c, 0, 54, 0
1, 69600, Note_on_c, 0, 74, 65
1, 69600, Note_on_c, 0, 47, 40
1, 69720, Note_on_c, 0, 74, 0
1, 69840, Note_on_c, 0, 74, 56
1, 69960, Note_on_c, 0, 74, 0
1, 70080, Tempo, 518627
1, 70080, Note_on_c, 0, 47, 0
1, 70080, Note_on_c, 0, 74, 74
1, 70080, Note_on_c, 0, 52, 55
1, 70320, Tempo, 501295
1, 70320, Note_on_c, 0, 74, 0
1, 70320, Note_on_c, 0, 68, 63
1, 70560, Tempo, 485084
1, 70560, Note_on_c, 0, 68, 0
1, 70560, Note_on_c, 0, 52, 0
1, 70560, Note_on_c, 0, 69, 76
1, 70560, Note_on_c, 0, 40, 53
1, 70680, Note_on_c, 0, 69, 0
1, 70680, Note_on_c, 0, 68, 55
1, 70800, Note_on_c, 0, 68, 0
1, 70800, Note_on_c, 0, 66, 63
1, 70920, Tempo, 534807
1, 70920, Note_on_c, 0, 66, 0
1, 70920, Note_on_c, 0, 68, 55
1, 71040, Tempo, 514183
1, 71040, Note_on_c, 0, 68, 0
1, 71040, Note_on_c, 0, 40, 0
1, 71040, Note_on_c, 0, 71, 73
1, 71040, Note_on_c, 0, 45, 62
1, 71160, Note_on_c, 0, 45, 0
1, 71280, Note_on_c, 0, 71, 0
1, 71280, Note_on_c, 0, 69, 55
1, 71520, Tempo, 487053
1, 71520, Note_on_c, 0, 69, 0
1, 71520, Note_on_c, 0, 56, 69
1, 71640, Note_on_c, 0, 56, 0
1, 71640, Note_on_c, 0, 57, 62
1, 71760, Note_on_c, 0, 57, 0
1, 71760, Note_on_c, 0, 56, 70
1, 71880, Note_on_c, 0, 56, 0
1, 71880, Note_on_c, 0, 57, 62
1, 72000, Tempo, 527751
1, 72000, Note_on_c, 0, 57, 0
1, 72000, Note_on_c, 0, 45, 72
1, 72120, Note_on_c, 0, 45, 0
1, 72240, Note_on_c, 0, 45, 62
1, 72360, Note_on_c, 0, 45, 0
1, 72480, Tempo, 514183
1, 72480, Note_on_c, 0, 66, 70
1, 72480, Note_on_c, 0, 62, 59
1, 72600, Note_on_c, 0, 62, 0
1, 72600, Note_on_c, 0, 66, 0
1, 72720, Note_on_c, 0, 66, 64
1, 72720, Note_on_c, 0, 62, 54
1, 72840, Note_on_c, 0, 62, 0
1, 72840, Note_on_c, 0, 66, 0
1, 72960, Tempo, 523149
1, 72960, Note_on_c, 0, 61, 58
1, 72960, Note_on_c, 0, 64, 69
1, 73080, Note_on_c, 0, 64, 0
1, 73080, Note_on_c, 0, 61, 0
1, 73200, Note_on_c, 0, 64, 59
1, 73200, Note_on_c, 0, 61, 50
1, 73320, Note_on_c, 0, 61, 0
1, 73320, Note_on_c, 0, 64, 0
1, 73440, Tempo, 489037
1, 73440, Note_on_c, 0, 56, 69
1, 73560, Note_on_c, 0, 56, 0
1, 73560, Note_on_c, 0, 57, 62
1, 73680, Note_on_c, 0, 57, 0
1, 73680, Note_on_c, 0, 56, 70
1, 73800, Note_on_c, 0, 56, 0
1, 73800, Note_on_c, 0, 57, 62
1, 73920, Tempo, 527751
1, 73920, Note_on_c, 0, 57, 0
1, 73920, Note_on_c, 0, 45, 72
1, 74040, Note_on_c, 0, 45, 0
1, 74160, Note_on_c, 0, 45, 62
1, 74280, Note_on_c, 0, 45, 0
1, 74400, Tempo, 507657
1, 74400, Note_on_c, 0, 66, 70
1, 74400, Note_on_c, 0, 63, 59
1, 74520, Note_on_c, 0, 63, 0
1, 74520, Note_on_c, 0, 66, 0
1, 74640, Tempo, 532434
1, 74640, Note_on_c, 0, 66, 64
1, 74640, Note_on_c, 0, 63, 54
1, 74760, Note_on_c, 0, 63, 0
1, 74760, Note_on_c, 0, 66, 0
1, 74880, Tempo, 518627
1, 74880, Note_on_c, 0, 64, 58
1, 74880, Note_on_c, 0, 67, 69
1, 75000, Note_on_c, 0, 67, 0
1, 75000, Note_on_c, 0, 64, 0
1, 75120, Note_on_c, 0, 67, 59
1, 75120, Note_on_c, 0, 64, 50
1, 75240, Note_on_c, 0, 64, 0
1, 75240, Note_on_c, 0, 67, 0
1, 75360, Tempo, 495090
1, 75360, Note_on_c, 0, 79, 73
1, 75360, Note_on_c, 0, 76, 62
1, 75360, Note_on_c, 0, 57, 55
1, 75360, Note_on_c, 0, 61, 65
1, 75480, Note_on_c, 0, 61, 0
1, 75480, Note_on_c, 0, 79, 0
1, 75480, Note_on_c, 0, 76, 0
1, 75480, Note_on_c, 0, 57, 0
1, 75600, Tempo, 509814
1, 75600, Note_on_c, 0, 79, 66
1, 75600, Note_on_c, 0, 76, 56
1, 75600, Note_on_c, 0, 61, 58
1, 75600, Note_on_c, 0, 57, 49
1, 75720, Note_on_c, 0, 57, 0
1, 75720, Note_on_c, 0, 79, 0
1, 75720, Note_on_c, 0, 76, 0
1, 75720, Note_on_c, 0, 61, 0
1, 75840, Note_on_c, 0, 76, 74
1, 75840, Note_on_c, 0, 73, 62
1, 75840, Note_on_c, 0, 61, 55
1, 75840, Note_on_c, 0, 64, 65
1, 75960, Note_on_c, 0, 64, 0
1, 75960, Note_on_c, 0, 76, 0
1, 75960, Note_on_c, 0, 73, 0
1, 75960, Note_on_c, 0, 61, 0
1, 76080, Tempo, 520879
1, 76080, Note_on_c, 0, 76, 68
1, 76080, Note_on_c, 0, 73, 57
1, 76080, Note_on_c, 0, 64, 58
1, 76080, Note_on_c, 0, 61, 49
1, 76200, Note_on_c, 0, 61, 0
1, 76200, Note_on_c, 0, 76, 0
1, 76200, Note_on_c, 0, 73, 0
1, 76200, Note_on_c, 0, 64, 0
1, 76320, Tempo, 501295
1, 76320, Note_on_c, 0, 73, 74
1, 76320, Note_on_c, 0, 69, 62
1, 76320, Note_on_c, 0, 64, 55
1, 76320, Note_on_c, 0, 67, 65
1, 76440, Note_on_c, 0, 67, 0
1, 76440, Note_on_c, 0, 73, 0
1, 76440, Note_on_c, 0, 69, 0
1, 76440, Note_on_c, 0, 64, 0
1, 76560, Tempo, 549501
1, 76560, Note_on_c, 0, 73, 69
1, 76560, Note_on_c, 0, 69, 58
1, 76560, Note_on_c, 0, 67, 59
1, 76560, Note_on_c, 0, 64, 50
1, 76680, Note_on_c, 0, 64, 0
1, 76680, Note_on_c, 0, 73, 0
1, 76680, Note_on_c, 0, 69, 0
1, 76680, Note_on_c, 0, 67, 0
1, 76800, Tempo, 529895
1, 76800, Note_on_c, 0, 81, 76
1, 76800, Note_on_c, 0, 62, 55
1, 76800, Note_on_c, 0, 66, 65
1, 76920, Note_on_c, 0, 66, 0
1, 76920, Note_on_c, 0, 62, 0
1, 77040, Note_on_c, 0, 66, 61
1, 77040, Note_on_c, 0, 62, 51
1, 77160, Note_on_c, 0, 62, 0
1, 77160, Note_on_c, 0, 66, 0
1, 77280, Tempo, 505348
1, 77280, Note_on_c, 0, 81, 0
1, 77280, Note_on_c, 0, 79, 76
1, 77400, Note_on_c, 0, 79, 0
1, 77400, Note_on_c, 0, 78, 70
1, 77520, Note_on_c, 0, 78, 0
1, 77520, Note_on_c, 0, 76, 70
1, 77640, Note_on_c, 0, 76, 0
1, 77640, Note_on_c, 0, 74, 70
1, 77760, Tempo, 520698
1, 77760, Note_on_c, 0, 74, 0
1, 77760, Note_on_c, 0, 73, 76
1, 77760, Note_on_c, 0, 43, 45
1, 77760, Note_on_c, 0, 55, 53
1, 77880, Note_on_c, 0, 55, 0
1, 77880, Note_on_c, 0, 43, 0
1, 78000, Note_on_c, 0, 73, 0
1, 78000, Note_on_c, 0, 71, 69
1, 78000, Note_on_c, 0, 55, 47
1, 78000, Note_on_c, 0, 43, 39
1, 78120, Note_on_c, 0, 43, 0
1, 78120, Note_on_c, 0, 55, 0
1, 78240, Tempo, 505348
1, 78240, Note_on_c, 0, 71, 0
1, 78240, Note_on_c, 0, 69, 73
1, 78360, Note_on_c, 0, 69, 0
1, 78360, Note_on_c, 0, 67, 64
1, 78480, Note_on_c, 0, 67, 0
1, 78480, Note_on_c, 0, 66, 64
1, 78600, Note_on_c, 0, 66, 0
1, 78600, Note_on_c, 0, 64, 64
1, 78720, Tempo, 522967
1, 78720, Note_on_c, 0, 64, 0
1, 78720, Note_on_c, 0, 62, 72
1, 78720, Note_on_c, 0, 45, 41
1, 78720, Note_on_c, 0, 54, 49
1, 78840, Note_on_c, 0, 54, 0
1, 78840, Note_on_c, 0, 45, 0
1, 78960, Note_on_c, 0, 45, 36
1, 78960, Note_on_c, 0, 54, 43
1, 79080, Note_on_c, 0, 54, 0
1, 79080, Note_on_c, 0, 45, 0
1, 79200, Tempo, 503229
1, 79200, Note_on_c, 0, 62, 0
1, 79200, Note_on_c, 0, 64, 59
1, 79320, Note_on_c, 0, 64, 0
1, 79320, Note_on_c, 0, 62, 49
1, 79440, Note_on_c, 0, 62, 0
1, 79440, Note_on_c, 0, 61, 49
1, 79560, Note_on_c, 0, 61, 0
1, 79560, Note_on_c, 0, 59, 49
1, 79680, Tempo, 522967
1, 79680, Note_on_c, 0, 59, 0
1, 79680, Note_on_c, 0, 57, 57
1, 79680, Note_on_c, 0, 49, 39
1, 79680, Note_on_c, 0, 45, 33
1, 79800, Note_on_c, 0, 45, 0
1, 79800, Note_on_c, 0, 49, 0
1, 79920, Note_on_c, 0, 49, 33
1, 79920, Note_on_c, 0, 45, 28
1, 80040, Note_on_c, 0, 45, 0
1, 80040, Note_on_c, 0, 49, 0
1, 80160, Tempo, 509641
1, 80160, Note_on_c, 0, 57, 0
1, 80160, Note_on_c, 0, 57, 54
1, 80162, Tempo, 516218
1, 80202, Tempo, 518448
1, 80242, Tempo, 520698
1, 80280, Note_on_c, 0, 57, 0
1, 80280, Note_on_c, 0, 55, 48
1, 80282, Tempo, 522967
1, 80322, Tempo, 525256
1, 80342, Tempo, 527565
1, 80382, Tempo, 529895
1, 80400, Note_on_c, 0, 55, 0
1, 80400, Note_on_c, 0, 54, 45
1, 80422, Tempo, 532245
1, 80462, Tempo, 534616
1, 80482, Tempo, 537009
1, 80520, Note_on_c, 0, 54, 0
1, 80520, Note_on_c, 0, 52, 43
1, 80522, Tempo, 539423
1, 80562, Tempo, 541859
1, 80602, Tempo, 544316
1, 80622, Tempo, 546797
1, 80640, Tempo, 522967
1, 80640, Note_on_c, 0, 52, 0
1, 80640, Note_on_c, 0, 50, 48
1, 80640, Note_on_c, 0, 38, 31
1, 80760, Note_on_c, 0, 50, 0
1, 80880, Note_on_c, 0, 50, 45
1, 81000, Note_on_c, 0, 50, 0
1, 81120, Tempo, 514183
1, 81120, Note_on_c, 0, 38, 0
1, 81120, Note_on_c, 0, 54, 48
1, 81240, Note_on_c, 0, 54, 0
1, 81360, Tempo, 520879
1, 81360, Note_on_c, 0, 54, 39
1, 81480, Note_on_c, 0, 54, 0
1, 81600, Tempo, 523149
1, 81600, Note_on_c, 0, 59, 48
1, 81720, Note_on_c, 0, 59, 0
1, 81840, Tempo, 505519
1, 81840, Note_on_c, 0, 59, 37
1, 81960, Note_on_c, 0, 59, 0
1, 82080, Tempo, 509814
1, 82080, Note_on_c, 0, 56, 42
1, 82080, Note_on_c, 0, 50, 30
1, 82200, Note_on_c, 0, 56, 0
1, 82320, Note_on_c, 0, 56, 35
1, 82440, Note_on_c, 0, 56, 0
1, 82560, Tempo, 520879
1, 82560, Note_on_c, 0, 50, 0
1, 82560, Note_on_c, 0, 57, 48
1, 82560, Note_on_c, 0, 49, 30
1, 82680, Note_on_c, 0, 57, 0
1, 82800, Tempo, 501295
1, 82800, Note_on_c, 0, 57, 37
1, 82920, Note_on_c, 0, 57, 0
1, 83040, Tempo, 514183
1, 83040, Note_on_c, 0, 49, 0
1, 83040, Note_on_c, 0, 64, 40
1, 83160, Note_on_c, 0, 64, 0
1, 83280, Tempo, 520879
1, 83280, Note_on_c, 0, 64, 33
1, 83400, Note_on_c, 0, 64, 0
1, 83520, Tempo, 523149
1, 83520, Note_on_c, 0, 69, 42
1, 83640, Note_on_c, 0, 69, 0
1, 83760, Tempo, 505519
1, 83760, Note_on_c, 0, 69, 31
1, 83880, Note_on_c, 0, 69, 0
1, 84000, Tempo, 509814
1, 84000, Note_on_c, 0, 66, 39
1, 84000, Note_on_c, 0, 48, 25
1, 84120, Note_on_c, 0, 66, 0
1, 84240, Note_on_c, 0, 66, 32
1, 84360, Note_on_c, 0, 66, 0
1, 84480, Tempo, 520879
1, 84480, Note_on_c, 0, 48, 0
1, 84480, Note_on_c, 0, 67, 40
1, 84480, Note_on_c, 0, 47, 25
1, 84600, Note_on_c, 0, 67, 0
1, 84720, Tempo, 501295
1, 84720, Note_on_c, 0, 67, 35
1, 84840, Note_on_c, 0, 67, 0
1, 84960, Note_on_c, 0, 47, 0
1, 84960, Note_on_c, 0, 71, 45
1, 85080, Note_on_c, 0, 71, 0
1, 85200, Note_on_c, 0, 71, 51
1, 85320, Note_on_c, 0, 71, 0
1, 85440, Tempo, 495090
1, 85440, Note_on_c, 0, 71, 68
1, 85440, Note_on_c, 0, 55, 40
1, 85680, Note_on_c, 0, 71, 0
1, 85680, Note_on_c, 0, 64, 53
1, 85920, Note_on_c, 0, 64, 0
1, 85920, Note_on_c, 0, 55, 0
1, 85920, Note_on_c, 0, 71, 59
1, 85920, Note_on_c, 0, 56, 42
1, 86160, Tempo, 527565
1, 86160, Note_on_c, 0, 71, 0
1, 86160, Note_on_c, 0, 62, 48
1, 86400, Tempo, 520698
1, 86400, Note_on_c, 0, 62, 0
1, 86400, Note_on_c, 0, 56, 0
1, 86400, Note_on_c, 0, 62, 57
1, 86400, Note_on_c, 0, 57, 49
1, 86640, Note_on_c, 0, 62, 0
1, 86640, Note_on_c, 0, 61, 48
1, 86880, Tempo, 503229
1, 86880, Note_on_c, 0, 61, 0
1, 86880, Note_on_c, 0, 57, 0
1, 86880, Note_on_c, 0, 76, 64
1, 87000, Note_on_c, 0, 76, 0
1, 87120, Tempo, 518448
1, 87120, Note_on_c, 0, 76, 56
1, 87240, Note_on_c, 0, 76, 0
1, 87360, Tempo, 493056
1, 87360, Note_on_c, 0, 76, 68
1, 87360, Note_on_c, 0, 60, 52
1, 87600, Note_on_c, 0, 76, 0
1, 87600, Note_on_c, 0, 69, 53
1, 87840, Note_on_c, 0, 69, 0
1, 87840, Note_on_c, 0, 60, 0
1, 87840, Note_on_c, 0, 76, 65
1, 87840, Note_on_c, 0, 59, 47
1, 88080, Tempo, 527565
1, 88080, Note_on_c, 0, 76, 0
1, 88080, Note_on_c, 0, 67, 53
1, 88320, Tempo, 511814
1, 88320, Note_on_c, 0, 67, 0
1, 88320, Note_on_c, 0, 59, 0
1, 88320, Note_on_c, 0, 67, 69
1, 88320, Note_on_c, 0, 58, 53
1, 88560, Note_on_c, 0, 67, 0
1, 88560, Note_on_c, 0, 66, 59
1, 88800, Tempo, 503229
1, 88800, Note_on_c, 0, 66, 0
1, 88800, Note_on_c, 0, 58, 0
1, 88800, Note_on_c, 0, 74, 64
1, 88800, Note_on_c, 0, 59, 39
1, 88920, Note_on_c, 0, 74, 0
1, 89040, Tempo, 518448
1, 89040, Note_on_c, 0, 74, 56
1, 89160, Note_on_c, 0, 74, 0
1, 89280, Tempo, 518448
1, 89280, Note_on_c, 0, 59, 0
1, 89280, Note_on_c, 0, 64, 61
1, 89280, Note_on_c, 0, 55, 46
1, 89400, Note_on_c, 0, 64, 0
1, 89520, Note_on_c, 0, 64, 53
1, 89640, Note_on_c, 0, 64, 0
1, 89760, Tempo, 507485
1, 89760, Note_on_c, 0, 55, 0
1, 89760, Note_on_c, 0, 69, 57
1, 89760, Note_on_c, 0, 57, 37
1, 89880, Note_on_c, 0, 69, 0
1, 89880, Note_on_c, 0, 67, 51
1, 90000, Tempo, 527565
1, 90000, Note_on_c, 0, 67, 0
1, 90000, Note_on_c, 0, 66, 46
1, 90120, Note_on_c, 0, 66, 0
1, 90120, Note_on_c, 0, 64, 41
1, 90240, Note_on_c, 0, 64, 0
1, 90240, Note_on_c, 0, 57, 0
1, 90240, Note_on_c, 0, 62, 35
1, 90240, Note_on_c, 0, 38, 33
1, 90283, Control_c, 0, 64, 127
1, 90360, Note_on_c, 0, 62, 0
1, 90360, Note_on_c, 0, 66, 31
1, 90480, Note_on_c, 0, 66, 0
1, 90480, Note_on_c, 0, 62, 35
1, 90600, Note_on_c, 0, 62, 0
1, 90600, Note_on_c, 0, 66, 31
1, 90720, Tempo, 518448
1, 90720, Note_on_c, 0, 66, 0
1, 90720, Note_on_c, 0, 38, 0
1, 90720, Note_on_c, 0, 62, 35
1, 90720, Note_on_c, 0, 42, 32
1, 90722, Tempo, 511989
1, 90840, Note_on_c, 0, 62, 0
1, 90840, Note_on_c, 0, 66, 31
1, 90942, Tempo, 509814
1, 90960, Note_on_c, 0, 66, 0
1, 90960, Note_on_c, 0, 62, 35
1, 91080, Note_on_c, 0, 62, 0
1, 91080, Note_on_c, 0, 66, 31
1, 91162, Tempo, 507657
1, 91200, Note_on_c, 0, 66, 0
1, 91200, Note_on_c, 0, 42, 0
1, 91200, Note_on_c, 0, 62, 35
1, 91200, Note_on_c, 0, 47, 34
1, 91200, Control_c, 0, 64, 0
1, 91292, Control_c, 0, 64, 127
1, 91320, Note_on_c, 0, 62, 0
1, 91320, Note_on_c, 0, 66, 31
1, 91440, Note_on_c, 0, 66, 0
1, 91440, Note_on_c, 0, 62, 35
1, 91560, Note_on_c, 0, 62, 0
1, 91560, Note_on_c, 0, 66, 31
1, 91680, Tempo, 522967
1, 91680, Note_on_c, 0, 66, 0
1, 91680, Note_on_c, 0, 47, 0
1, 91680, Note_on_c, 0, 62, 35
1, 91680, Note_on_c, 0, 44, 31
1, 91689, Control_c, 0, 64, 0
1, 91786, Control_c, 0, 64, 127
1, 91800, Note_on_c, 0, 62, 0
1, 91800, Note_on_c, 0, 66, 31
1, 91920, Note_on_c, 0, 66, 0
1, 91920, Note_on_c, 0, 62, 35
1, 92040, Note_on_c, 0, 62, 0
1, 92040, Note_on_c, 0, 66, 31
1, 92160, Tempo, 516218
1, 92160, Note_on_c, 0, 66, 0
1, 92160, Note_on_c, 0, 44, 0
1, 92160, Note_on_c, 0, 62, 35
1, 92160, Note_on_c, 0, 45, 34
1, 92160, Control_c, 0, 64, 0
1, 92280, Note_on_c, 0, 62, 0
1, 92280, Note_on_c, 0, 64, 31
1, 92316, Control_c, 0, 64, 127
1, 92400, Note_on_c, 0, 64, 0
1, 92400, Note_on_c, 0, 62, 35
1, 92520, Note_on_c, 0, 62, 0
1, 92520, Note_on_c, 0, 64, 31
1, 92622, Tempo, 509814
1, 92640, Note_on_c, 0, 64, 0
1, 92640, Note_on_c, 0, 45, 0
1, 92640, Note_on_c, 0, 62, 35
1, 92640, Note_on_c, 0, 52, 34
1, 92760, Tempo, 516218
1, 92760, Note_on_c, 0, 62, 0
1, 92760, Note_on_c, 0, 64, 31
1, 92782, Tempo, 507657
1, 92880, Note_on_c, 0, 64, 0
1, 92880, Note_on_c, 0, 62, 35
1, 93000, Note_on_c, 0, 62, 0
1, 93000, Note_on_c, 0, 64, 31
1, 93120, Tempo, 509814
1, 93120, Note_on_c, 0, 64, 0
1, 93120, Note_on_c, 0, 52, 0
1, 93120, Note_on_c, 0, 61, 35
1, 93120, Note_on_c, 0, 57, 40
1, 93120, Control_c, 0, 64, 0
1, 93172, Control_c, 0, 64, 127
1, 93240, Note_on_c, 0, 61, 0
1, 93240, Note_on_c, 0, 64, 31
1, 93360, Note_on_c, 0, 64, 0
1, 93360, Note_on_c, 0, 61, 35
1, 93480, Note_on_c, 0, 61, 0
1, 93480, Note_on_c, 0, 64, 31
1, 93600, Tempo, 525256
1, 93600, Note_on_c, 0, 64, 0
1, 93600, Note_on_c, 0, 57, 0
1, 93600, Note_on_c, 0, 60, 35
1, 93600, Note_on_c, 0, 50, 31
1, 93615, Control_c, 0, 64, 0
1, 93675, Control_c, 0, 64, 127
1, 93720, Note_on_c, 0, 60, 0
1, 93720, Note_on_c, 0, 66, 31
1, 93840, Note_on_c, 0, 66, 0
1, 93840, Note_on_c, 0, 60, 35
1, 93960, Note_on_c, 0, 60, 0
1, 93960, Note_on_c, 0, 66, 31
1, 94080, Tempo, 520879
1, 94080, Note_on_c, 0, 66, 0
1, 94080, Note_on_c, 0, 50, 0
1, 94080, Note_on_c, 0, 59, 40
1, 94080, Note_on_c, 0, 55, 34
1, 94086, Control_c, 0, 64, 0
1, 94144, Control_c, 0, 64, 127
1, 94200, Note_on_c, 0, 59, 0
1, 94200, Note_on_c, 0, 67, 37
1, 94320, Note_on_c, 0, 67, 0
1, 94320, Note_on_c, 0, 59, 41
1, 94440, Note_on_c, 0, 59, 0
1, 94440, Note_on_c, 0, 67, 37
1, 94560, Tempo, 503398
1, 94560, Note_on_c, 0, 67, 0
1, 94560, Note_on_c, 0, 55, 0
1, 94560, Note_on_c, 0, 71, 46
1, 94576, Control_c, 0, 64, 0
1, 94680, Note_on_c, 0, 71, 0
1, 94680, Note_on_c, 0, 69, 53
1, 94800, Note_on_c, 0, 69, 0
1, 94800, Note_on_c, 0, 67, 55
1, 94920, Note_on_c, 0, 67, 0
1, 94920, Note_on_c, 0, 66, 53
1, 95040, Tempo, 511989
1, 95040, Note_on_c, 0, 66, 0
1, 95040, Note_on_c, 0, 64, 59
1, 95040, Note_on_c, 0, 55, 55
1, 95160, Note_on_c, 0, 64, 0
1, 95160, Note_on_c, 0, 66, 53
1, 95280, Note_on_c, 0, 66, 0
1, 95280, Note_on_c, 0, 64, 53
1, 95400, Note_on_c, 0, 64, 0
1, 95400, Note_on_c, 0, 66, 53
1, 95520, Tempo, 501295
1, 95520, Note_on_c, 0, 66, 0
1, 95520, Note_on_c, 0, 55, 0
1, 95520, Note_on_c, 0, 67, 61
1, 95640, Note_on_c, 0, 67, 0
1, 95640, Note_on_c, 0, 66, 55
1, 95760, Note_on_c, 0, 66, 0
1, 95760, Note_on_c, 0, 64, 54
1, 95880, Note_on_c, 0, 64, 0
1, 95880, Note_on_c, 0, 62, 54
1, 96000, Tempo, 507657
1, 96000, Note_on_c, 0, 62, 0
1, 96000, Note_on_c, 0, 61, 61
1, 96000, Note_on_c, 0, 55, 60
1, 96000, Note_on_c, 0, 52, 51
1, 96000, Note_on_c, 0, 45, 51
1, 96120, Note_on_c, 0, 61, 0
1, 96120, Note_on_c, 0, 62, 53
1, 96240, Note_on_c, 0, 62, 0
1, 96240, Note_on_c, 0, 61, 54
1, 96360, Note_on_c, 0, 61, 0
1, 96360, Note_on_c, 0, 62, 54
1, 96480, Tempo, 501295
1, 96480, Note_on_c, 0, 62, 0
1, 96480, Note_on_c, 0, 45, 0
1, 96480, Note_on_c, 0, 52, 0
1, 96480, Note_on_c, 0, 55, 0
1, 96480, Note_on_c, 0, 64, 62
1, 96600, Note_on_c, 0, 64, 0
1, 96600, Note_on_c, 0, 62, 54
1, 96720, Note_on_c, 0, 62, 0
1, 96720, Note_on_c, 0, 61, 54
1, 96840, Note_on_c, 0, 61, 0
1, 96840, Note_on_c, 0, 59, 54
1, 96946, Tempo, 495090
1, 96960, Note_on_c, 0, 59, 0
1, 96960, Note_on_c, 0, 57, 62
1, 96960, Note_on_c, 0, 55, 64
1, 96960, Note_on_c, 0, 52, 53
1, 96960, Note_on_c, 0, 45, 53
1, 97026, Tempo, 497141
1, 97080, Note_on_c, 0, 45, 0
1, 97080, Note_on_c, 0, 57, 0
1, 97080, Note_on_c, 0, 55, 0
1, 97080, Note_on_c, 0, 52, 0
1, 97080, Note_on_c, 0, 59, 62
1, 97106, Tempo, 499210
1, 97186, Tempo, 501295
1, 97200, Note_on_c, 0, 59, 0
1, 97200, Note_on_c, 0, 61, 65
1, 97266, Tempo, 503398
1, 97320, Note_on_c, 0, 61, 0
1, 97320, Note_on_c, 0, 62, 68
1, 97326, Tempo, 505519
1, 97406, Tempo, 507657
1, 97440, Note_on_c, 0, 62, 0
1, 97440, Note_on_c, 0, 64, 73
1, 97440, Note_on_c, 0, 55, 62
1, 97440, Note_on_c, 0, 52, 53
1, 97440, Note_on_c, 0, 45, 53
1, 97486, Tempo, 509814
1, 97560, Note_on_c, 0, 45, 0
1, 97560, Note_on_c, 0, 64, 0
1, 97560, Note_on_c, 0, 55, 0
1, 97560, Note_on_c, 0, 52, 0
1, 97560, Note_on_c, 0, 66, 75
1, 97566, Tempo, 511989
1, 97626, Tempo, 514183
1, 97680, Note_on_c, 0, 66, 0
1, 97680, Note_on_c, 0, 67, 79
1, 97706, Tempo, 516396
1, 97786, Tempo, 518627
1, 97800, Note_on_c, 0, 67, 0
1, 97800, Note_on_c, 0, 69, 83
1, 97866, Tempo, 520879
1, 97920, Tempo, 499210
1, 97920, Note_on_c, 0, 69, 0
1, 97920, Note_on_c, 0, 62, 97
1, 97920, Note_on_c, 0, 54, 76
1, 97920, Note_on_c, 0, 50, 76
1, 97970, Control_c, 0, 64, 127
1, 98040, Note_on_c, 0, 62, 0
1, 98040, Note_on_c, 0, 66, 70
1, 98160, Note_on_c, 0, 66, 0
1, 98160, Note_on_c, 0, 69, 78
1, 98280, Note_on_c, 0, 69, 0
1, 98280, Note_on_c, 0, 74, 74
1, 98400, Tempo, 523149
1, 98400, Note_on_c, 0, 74, 0
1, 98400, Note_on_c, 0, 50, 0
1, 98400, Note_on_c, 0, 54, 0
1, 98400, Note_on_c, 0, 71, 84
1, 98400, Note_on_c, 0, 55, 68
1, 98400, Note_on_c, 0, 43, 57
1, 98410, Control_c, 0, 64, 0
1, 98520, Note_on_c, 0, 71, 0
1, 98640, Note_on_c, 0, 71, 79
1, 98760, Note_on_c, 0, 71, 0
1, 98880, Note_on_c, 0, 43, 0
1, 98880, Note_on_c, 0, 55, 0
1, 98880, Note_on_c, 0, 62, 88
1, 98880, Note_on_c, 0, 54, 75
1, 98880, Note_on_c, 0, 50, 63
1, 98880, Note_on_c, 0, 45, 63
1, 99000, Note_on_c, 0, 62, 0
1, 99120, Note_on_c, 0, 62, 74
1, 99240, Note_on_c, 0, 62, 0
1, 99360, Tempo, 503398
1, 99360, Note_on_c, 0, 45, 0
1, 99360, Note_on_c, 0, 50, 0
1, 99360, Note_on_c, 0, 54, 0
1, 99360, Note_on_c, 0, 66, 78
1, 99360, Note_on_c, 0, 45, 54
1, 99360, Note_on_c, 0, 49, 54
1, 99360, Note_on_c, 0, 55, 63
1, 99480, Note_on_c, 0, 66, 0
1, 99480, Note_on_c, 0, 64, 69
1, 99600, Note_on_c, 0, 64, 0
1, 99600, Note_on_c, 0, 62, 69
1, 99720, Tempo, 554580
1, 99720, Note_on_c, 0, 62, 0
1, 99720, Note_on_c, 0, 64, 69
1, 99840, Tempo, 499210
1, 99840, Note_on_c, 0, 64, 0
1, 99840, Note_on_c, 0, 55, 0
1, 99840, Note_on_c, 0, 49, 0
1, 99840, Note_on_c, 0, 45, 0
1, 99840, Note_on_c, 0, 62, 97
1, 99840, Note_on_c, 0, 54, 76
1, 99840, Note_on_c, 0, 50, 76
1, 99918, Control_c, 0, 64, 127
1, 99960, Note_on_c, 0, 62, 0
1, 99960, Note_on_c, 0, 66, 70
1, 100080, Note_on_c, 0, 66, 0
1, 100080, Note_on_c, 0, 69, 78
1, 100200, Note_on_c, 0, 69, 0
1, 100200, Note_on_c, 0, 74, 74
1, 100320, Tempo, 523149
1, 100320, Note_on_c, 0, 74, 0
1, 100320, Note_on_c, 0, 50, 0
1, 100320, Note_on_c, 0, 54, 0
1, 100320, Note_on_c, 0, 71, 84
1, 100320, Note_on_c, 0, 55, 68
1, 100320, Note_on_c, 0, 43, 57
1, 100334, Control_c, 0, 64, 0
1, 100440, Note_on_c, 0, 71, 0
1, 100560, Note_on_c, 0, 71, 79
1, 100680, Note_on_c, 0, 71, 0
1, 100800, Note_on_c, 0, 43, 0
1, 100800, Note_on_c, 0, 55, 0
1, 100800, Note_on_c, 0, 62, 88
1, 100800, Note_on_c, 0, 54, 75
1, 100800, Note_on_c, 0, 50, 63
1, 100800, Note_on_c, 0, 45, 63
1, 100920, Note_on_c, 0, 62, 0
1, 101040, Note_on_c, 0, 62, 74
1, 101160, Note_on_c, 0, 62, 0
1, 101280, Tempo, 503398
1, 101280, Note_on_c, 0, 45, 0
1, 101280, Note_on_c, 0, 50, 0
1, 101280, Note_on_c, 0, 54, 0
1, 101280, Note_on_c, 0, 66, 69
1, 101280, Note_on_c, 0, 45, 54
1, 101280, Note_on_c, 0, 49, 54
1, 101280, Note_on_c, 0, 55, 63
1, 101400, Note_on_c, 0, 66, 0
1, 101400, Note_on_c, 0, 64, 52
1, 101520, Note_on_c, 0, 64, 0
1, 101520, Note_on_c, 0, 62, 58
1, 101640, Tempo, 554580
1, 101640, Note_on_c, 0, 62, 0
1, 101640, Note_on_c, 0, 64, 49
1, 101760, Tempo, 530082
1, 101760, Note_on_c, 0, 64, 0
1, 101760, Note_on_c, 0, 55, 0
1, 101760, Note_on_c, 0, 49, 0
1, 101760, Note_on_c, 0, 45, 0
1, 101760, Note_on_c, 0, 62, 61
1, 101760, Note_on_c, 0, 54, 49
1, 101760, Note_on_c, 0, 50, 41
1, 101880, Note_on_c, 0, 50, 0
1, 101880, Note_on_c, 0, 54, 0
1, 101880, Note_on_c, 0, 62, 0
1, 102000, Note_on_c, 0, 54, 49
1, 102000, Note_on_c, 0, 50, 41
1, 102120, Note_on_c, 0, 50, 0
1, 102120, Note_on_c, 0, 54, 0
1, 102240, Tempo, 497141
1, 102240, Note_on_c, 0, 62, 43
1, 102360, Note_on_c, 0, 62, 0
1, 102360, Note_on_c, 0, 64, 48
1, 102480, Note_on_c, 0, 64, 0
1, 102480, Note_on_c, 0, 66, 50
1, 102600, Note_on_c, 0, 66, 0
1, 102600, Note_on_c, 0, 67, 52
1, 102720, Tempo, 516396
1, 102720, Note_on_c, 0, 67, 0
1, 102720, Note_on_c, 0, 69, 54
1, 102720, Note_on_c, 0, 50, 30
1, 102720, Note_on_c, 0, 54, 36
1, 102840, Note_on_c, 0, 54, 0
1, 102840, Note_on_c, 0, 50, 0
1, 102960, Note_on_c, 0, 69, 0
1, 102960, Note_on_c, 0, 54, 30
1, 102960, Note_on_c, 0, 50, 25
1, 103080, Note_on_c, 0, 50, 0
1, 103080, Note_on_c, 0, 54, 0
1, 103200, Tempo, 497141
1, 103200, Note_on_c, 0, 66, 43
1, 103320, Note_on_c, 0, 66, 0
1, 103320, Note_on_c, 0, 67, 48
1, 103440, Note_on_c, 0, 67, 0
1, 103440, Note_on_c, 0, 69, 50
1, 103560, Note_on_c, 0, 69, 0
1, 103560, Note_on_c, 0, 71, 52
1, 103680, Tempo, 516396
1, 103680, Note_on_c, 0, 71, 0
1, 103680, Note_on_c, 0, 72, 54
1, 103680, Note_on_c, 0, 50, 30
1, 103680, Note_on_c, 0, 54, 36
1, 103800, Note_on_c, 0, 54, 0
1, 103800, Note_on_c, 0, 50, 0
1, 103920, Tempo, 532434
1, 103920, Note_on_c, 0, 72, 0
1, 103920, Note_on_c, 0, 54, 30
1, 103920, Note_on_c, 0, 50, 25
1, 104040, Note_on_c, 0, 50, 0
1, 104040, Note_on_c, 0, 54, 0
1, 104160, Tempo, 497141
1, 104160, Note_on_c, 0, 74, 32
1, 104280, Note_on_c, 0, 74, 0
1, 104280, Note_on_c, 0, 76, 36
1, 104400, Note_on_c, 0, 76, 0
1, 104400, Note_on_c, 0, 78, 37
1, 104520, Note_on_c, 0, 78, 0
1, 104520, Note_on_c, 0, 79, 39
1, 104640, Tempo, 532434
1, 104640, Note_on_c, 0, 79, 0
1, 104640, Note_on_c, 0, 81, 40
1, 104640, Note_on_c, 0, 62, 20
1, 104640, Note_on_c, 0, 66, 23
1, 104760, Note_on_c, 0, 66, 0
1, 104760, Note_on_c, 0, 62, 0
1, 104880, Note_on_c, 0, 81, 0
1, 104880, Note_on_c, 0, 66, 20
1, 104880, Note_on_c, 0, 62, 16
1, 105000, Note_on_c, 0, 62, 0
1, 105000, Note_on_c, 0, 66, 0
1, 105120, Tempo, 509814
1, 105120, Note_on_c, 0, 78, 32
1, 105240, Note_on_c, 0, 78, 0
1, 105240, Note_on_c, 0, 79, 36
1, 105360, Note_on_c, 0, 79, 0
1, 105360, Note_on_c, 0, 81, 37
1, 105480, Note_on_c, 0, 81, 0
1, 105480, Note_on_c, 0, 83, 39
1, 105600, Tempo, 537201
1, 105600, Note_on_c, 0, 83, 0
1, 105600, Note_on_c, 0, 84, 40
1, 105600, Note_on_c, 0, 66, 20
1, 105600, Note_on_c, 0, 62, 20
1, 105600, Note_on_c, 0, 69, 23
1, 105720, Note_on_c, 0, 69, 0
1, 105720, Note_on_c, 0, 62, 0
1, 105720, Note_on_c, 0, 66, 0
1, 105840, Note_on_c, 0, 84, 0
1, 105840, Note_on_c, 0, 66, 16
1, 105840, Note_on_c, 0, 69, 20
1, 105840, Note_on_c, 0, 62, 16
1, 105960, Note_on_c, 0, 62, 0
1, 105960, Note_on_c, 0, 69, 0
1, 105960, Note_on_c, 0, 66, 0
1, 106080, Tempo, 511989
1, 106080, Note_on_c, 0, 78, 32
1, 106200, Note_on_c, 0, 78, 0
1, 106200, Note_on_c, 0, 79, 36
1, 106320, Note_on_c, 0, 79, 0
1, 106320, Note_on_c, 0, 81, 37
1, 106440, Note_on_c, 0, 81, 0
1, 106440, Note_on_c, 0, 83, 39
1, 106560, Tempo, 532434
1, 106560, Note_on_c, 0, 83, 0
1, 106560, Note_on_c, 0, 84, 40
1, 106560, Note_on_c, 0, 66, 20
1, 106560, Note_on_c, 0, 62, 20
1, 106560, Note_on_c, 0, 69, 23
1, 106680, Note_on_c, 0, 69, 0
1, 106680, Note_on_c, 0, 62, 0
1, 106680, Note_on_c, 0, 66, 0
1, 106800, Tempo, 587142
1, 106800, Note_on_c, 0, 84, 0
1, 106800, Note_on_c, 0, 66, 16
1, 106800, Note_on_c, 0, 69, 20
1, 106800, Note_on_c, 0, 62, 16
1, 106920, Note_on_c, 0, 62, 0
1, 106920, Note_on_c, 0, 69, 0
1, 106920, Note_on_c, 0, 66, 0
1, 107040, Tempo, 575871
1, 107040, Note_on_c, 0, 84, 39
1, 107160, Note_on_c, 0, 84, 0
1, 107160, Note_on_c, 0, 86, 32
1, 107280, Note_on_c, 0, 86, 0
1, 107280, Note_on_c, 0, 88, 37
1, 107400, Tempo, 627025
1, 107400, Note_on_c, 0, 88, 0
1, 107400, Note_on_c, 0, 86, 32
1, 107520, Tempo, 592944
1, 107520, Note_on_c, 0, 86, 0
1, 107520, Note_on_c, 0, 84, 43
1, 108000, Tempo, 501295
1, 108000, Note_on_c, 0, 84, 0
1, 108960, Tempo, 497141
1, 108960, Marker_t, "Teil 1 Wiederholung"
1, 108960, Note_on_c, 0, 79, 48
1, 109080, Note_on_c, 0, 79, 0
1, 109080, Note_on_c, 0, 81, 54
1, 109200, Note_on_c, 0, 81, 0
1, 109200, Note_on_c, 0, 83, 55
1, 109320, Note_on_c, 0, 83, 0
1, 109320, Note_on_c, 0, 84, 60
1, 109440, Tempo, 516396
1, 109440, Note_on_c, 0, 84, 0
1, 109440, Note_on_c, 0, 86, 63
1, 109440, Note_on_c, 0, 59, 34
1, 109440, Note_on_c, 0, 67, 40
1, 109560, Note_on_c, 0, 67, 0
1, 109560, Note_on_c, 0, 59, 0
1, 109680, Note_on_c, 0, 67, 34
1, 109680, Note_on_c, 0, 59, 28
1, 109800, Note_on_c, 0, 59, 0
1, 109800, Note_on_c, 0, 67, 0
1, 109920, Tempo, 499210
1, 109920, Note_on_c, 0, 86, 0
1, 109920, Note_on_c, 0, 84, 55
1, 110040, Note_on_c, 0, 84, 0
1, 110040, Note_on_c, 0, 83, 51
1, 110160, Note_on_c, 0, 83, 0
1, 110160, Note_on_c, 0, 81, 51
1, 110280, Note_on_c, 0, 81, 0
1, 110280, Note_on_c, 0, 79, 51
1, 110400, Tempo, 516396
1, 110400, Note_on_c, 0, 79, 0
1, 110400, Note_on_c, 0, 78, 58
1, 110400, Note_on_c, 0, 62, 34
1, 110400, Note_on_c, 0, 69, 40
1, 110520, Note_on_c, 0, 69, 0
1, 110520, Note_on_c, 0, 62, 0
1, 110640, Note_on_c, 0, 69, 34
1, 110640, Note_on_c, 0, 62, 28
1, 110760, Note_on_c, 0, 62, 0
1, 110760, Note_on_c, 0, 69, 0
1, 110880, Tempo, 497141
1, 110880, Note_on_c, 0, 78, 0
1, 110880, Note_on_c, 0, 79, 55
1, 111000, Note_on_c, 0, 79, 0
1, 111000, Note_on_c, 0, 78, 51
1, 111120, Note_on_c, 0, 78, 0
1, 111120, Note_on_c, 0, 76, 53
1, 111240, Note_on_c, 0, 76, 0
1, 111240, Note_on_c, 0, 74, 51
1, 111360, Tempo, 514183
1, 111360, Note_on_c, 0, 74, 0
1, 111360, Note_on_c, 0, 79, 55
1, 111360, Note_on_c, 0, 67, 34
1, 111360, Note_on_c, 0, 71, 40
1, 111480, Note_on_c, 0, 71, 0
1, 111480, Note_on_c, 0, 67, 0
1, 111480, Note_on_c, 0, 79, 0
1, 111600, Tempo, 539617
1, 111600, Note_on_c, 0, 79, 50
1, 111600, Note_on_c, 0, 71, 36
1, 111600, Note_on_c, 0, 67, 30
1, 111720, Note_on_c, 0, 67, 0
1, 111720, Note_on_c, 0, 71, 0
1, 111720, Note_on_c, 0, 79, 0
1, 111840, Tempo, 497141
1, 111840, Note_on_c, 0, 81, 55
1, 111840, Note_on_c, 0, 67, 34
1, 111840, Note_on_c, 0, 71, 40
1, 111960, Note_on_c, 0, 71, 0
1, 111960, Note_on_c, 0, 67, 0
1, 111960, Note_on_c, 0, 81, 0
1, 111960, Note_on_c, 0, 79, 50
1, 112080, Note_on_c, 0, 79, 0
1, 112080, Note_on_c, 0, 78, 51
1, 112080, Note_on_c, 0, 71, 35
1, 112080, Note_on_c, 0, 67, 29
1, 112200, Note_on_c, 0, 67, 0
1, 112200, Note_on_c, 0, 71, 0
1, 112200, Note_on_c, 0, 78, 0
1, 112200, Note_on_c, 0, 79, 47
1, 112320, Tempo, 514183
1, 112320, Note_on_c, 0, 79, 0
1, 112320, Note_on_c, 0, 81, 55
1, 112320, Note_on_c, 0, 62, 34
1, 112320, Note_on_c, 0, 69, 40
1, 112440, Note_on_c, 0, 69, 0
1, 112440, Note_on_c, 0, 62, 0
1, 112560, Note_on_c, 0, 69, 35
1, 112560, Note_on_c, 0, 62, 29
1, 112680, Note_on_c, 0, 62, 0
1, 112680, Note_on_c, 0, 69, 0
1, 112800, Tempo, 497141
1, 112800, Note_on_c, 0, 81, 0
1, 112800, Note_on_c, 0, 81, 48
1, 112920, Note_on_c, 0, 81, 0
1, 112920, Note_on_c, 0, 83, 54
1, 113040, Note_on_c, 0, 83, 0
1, 113040, Note_on_c, 0, 84, 58
1, 113160, Note_on_c, 0, 84, 0
1, 113160, Note_on_c, 0, 86, 62
1, 113280, Tempo, 516396
1, 113280, Note_on_c, 0, 86, 0
1, 113280, Note_on_c, 0, 88, 65
1, 113280, Note_on_c, 0, 66, 34
1, 113280, Note_on_c, 0, 72, 40
1, 113400, Note_on_c, 0, 72, 0
1, 113400, Note_on_c, 0, 66, 0
1, 113520, Note_on_c, 0, 72, 34
1, 113520, Note_on_c, 0, 66, 28
1, 113640, Note_on_c, 0, 66, 0
1, 113640, Note_on_c, 0, 72, 0
1, 113760, Tempo, 499210
1, 113760, Note_on_c, 0, 88, 0
1, 113760, Note_on_c, 0, 86, 55
1, 113880, Note_on_c, 0, 86, 0
1, 113880, Note_on_c, 0, 84, 51
1, 114000, Note_on_c, 0, 84, 0
1, 114000, Note_on_c, 0, 83, 51
1, 114120, Note_on_c, 0, 83, 0
1, 114120, Note_on_c, 0, 81, 51
1, 114240, Tempo, 491039
1, 114240, Note_on_c, 0, 81, 0
1, 114240, Note_on_c, 0, 86, 58
1, 114240, Note_on_c, 0, 67, 34
1, 114240, Note_on_c, 0, 71, 40
1, 114330, Note_on_c, 0, 86, 0
1, 114360, Note_on_c, 0, 71, 0
1, 114360, Note_on_c, 0, 67, 0
1, 114480, Tempo, 534807
1, 114480, Note_on_c, 0, 86, 54
1, 114570, Note_on_c, 0, 86, 0
1, 114720, Tempo, 497141
1, 114720, Note_on_c, 0, 84, 55
1, 114720, Note_on_c, 0, 67, 28
1, 114720, Note_on_c, 0, 71, 34
1, 114840, Note_on_c, 0, 71, 0
1, 114840, Note_on_c, 0, 67, 0
1, 114840, Note_on_c, 0, 84, 0
1, 114840, Note_on_c, 0, 83, 51
1, 114960, Note_on_c, 0, 83, 0
1, 114960, Note_on_c, 0, 81, 53
1, 115080, Note_on_c, 0, 81, 0
1, 115080, Note_on_c, 0, 79, 51
1, 115200, Tempo, 497141
1, 115200, Note_on_c, 0, 79, 0
1, 115200, Note_on_c, 0, 84, 55
1, 115200, Note_on_c, 0, 62, 34
1, 115200, Note_on_c, 0, 69, 40
1, 115290, Note_on_c, 0, 84, 0
1, 115320, Note_on_c, 0, 69, 0
1, 115320, Note_on_c, 0, 62, 0
1, 115440, Tempo, 509814
1, 115440, Note_on_c, 0, 84, 50
1, 115530, Note_on_c, 0, 84, 0
1, 115680, Tempo, 497141
1, 115680, Note_on_c, 0, 83, 55
1, 115680, Note_on_c, 0, 62, 34
1, 115680, Note_on_c, 0, 69, 40
1, 115800, Note_on_c, 0, 69, 0
1, 115800, Note_on_c, 0, 62, 0
1, 115800, Note_on_c, 0, 83, 0
1, 115800, Note_on_c, 0, 81, 50
1, 115920, Tempo, 525440
1, 115920, Note_on_c, 0, 81, 0
1, 115920, Note_on_c, 0, 79, 51
1, 116040, Tempo, 590029
1, 116040, Note_on_c, 0, 79, 0
1, 116040, Note_on_c, 0, 78, 47
1, 116160, Tempo, 557155
1, 116160, Note_on_c, 0, 78, 0
1, 116160, Note_on_c, 0, 79, 55
1, 116160, Note_on_c, 0, 59, 34
1, 116160, Note_on_c, 0, 67, 40
1, 116280, Note_on_c, 0, 67, 0
1, 116280, Note_on_c, 0, 59, 0
1, 116400, Note_on_c, 0, 79, 0
1, 116640, Tempo, 497141
1, 116640, Note_on_c, 0, 67, 60
1, 116760, Note_on_c, 0, 67, 0
1, 116760, Note_on_c, 0, 69, 67
1, 116880, Note_on_c, 0, 69, 0
1, 116880, Note_on_c, 0, 71, 70
1, 117000, Note_on_c, 0, 71, 0
1, 117000, Note_on_c, 0, 72, 76
1, 117120, Tempo, 516396
1, 117120, Note_on_c, 0, 72, 0
1, 117120, Note_on_c, 0, 74, 80
1, 117120, Note_on_c, 0, 55, 42
1, 117120, Note_on_c, 0, 59, 50
1, 117240, Note_on_c, 0, 59, 0
1, 117240, Note_on_c, 0, 55, 0
1, 117360, Note_on_c, 0, 59, 42
1, 117360, Note_on_c, 0, 55, 35
1, 117480, Note_on_c, 0, 55, 0
1, 117480, Note_on_c, 0, 59, 0
1, 117600, Tempo, 499210
1, 117600, Note_on_c, 0, 74, 0
1, 117600, Note_on_c, 0, 72, 68
1, 117720, Note_on_c, 0, 72, 0
1, 117720, Note_on_c, 0, 71, 63
1, 117840, Note_on_c, 0, 71, 0
1, 117840, Note_on_c, 0, 69, 63
1, 117960, Note_on_c, 0, 69, 0
1, 117960, Note_on_c, 0, 67, 63
1, 118080, Tempo, 516396
1, 118080, Note_on_c, 0, 67, 0
1, 118080, Note_on_c, 0, 66, 72
1, 118080, Note_on_c, 0, 57, 42
1, 118080, Note_on_c, 0, 60, 50
1, 118200, Note_on_c, 0, 60, 0
1, 118200, Note_on_c, 0, 57, 0
1, 118320, Note_on_c, 0, 60, 42
1, 118320, Note_on_c, 0, 57, 35
1, 118440, Note_on_c, 0, 57, 0
1, 118440, Note_on_c, 0, 60, 0
1, 118560, Tempo, 497141
1, 118560, Note_on_c, 0, 66, 0
1, 118560, Note_on_c, 0, 67, 68
1, 118680, Note_on_c, 0, 67, 0
1, 118680, Note_on_c, 0, 66, 63
1, 118800, Note_on_c, 0, 66, 0
1, 118800, Note_on_c, 0, 64, 66
1, 118920, Note_on_c, 0, 64, 0
1, 118920, Note_on_c, 0, 62, 63
1, 119040, Tempo, 514183
1, 119040, Note_on_c, 0, 62, 0
1, 119040, Note_on_c, 0, 67, 68
1, 119040, Note_on_c, 0, 55, 42
1, 119040, Note_on_c, 0, 59, 50
1, 119160, Note_on_c, 0, 59, 0
1, 119160, Note_on_c, 0, 55, 0
1, 119160, Note_on_c, 0, 67, 0
1, 119280, Tempo, 539617
1, 119280, Note_on_c, 0, 67, 62
1, 119280, Note_on_c, 0, 59, 45
1, 119280, Note_on_c, 0, 55, 37
1, 119400, Note_on_c, 0, 55, 0
1, 119400, Note_on_c, 0, 59, 0
1, 119400, Note_on_c, 0, 67, 0
1, 119520, Tempo, 497141
1, 119520, Note_on_c, 0, 69, 68
1, 119520, Note_on_c, 0, 55, 42
1, 119520, Note_on_c, 0, 59, 50
1, 119640, Note_on_c, 0, 59, 0
1, 119640, Note_on_c, 0, 55, 0
1, 119640, Note_on_c, 0, 69, 0
1, 119640, Note_on_c, 0, 67, 62
1, 119760, Note_on_c, 0, 67, 0
1, 119760, Note_on_c, 0, 66, 63
1, 119760, Note_on_c, 0, 59, 43
1, 119760, Note_on_c, 0, 55, 36
1, 119880, Note_on_c, 0, 55, 0
1, 119880, Note_on_c, 0, 59, 0
1, 119880, Note_on_c, 0, 66, 0
1, 119880, Note_on_c, 0, 67, 58
1, 120000, Tempo, 514183
1, 120000, Note_on_c, 0, 67, 0
1, 120000, Note_on_c, 0, 69, 68
1, 120000, Note_on_c, 0, 50, 42
1, 120000, Note_on_c, 0, 57, 50
1, 120120, Note_on_c, 0, 57, 0
1, 120120, Note_on_c, 0, 50, 0
1, 120240, Note_on_c, 0, 57, 43
1, 120240, Note_on_c, 0, 50, 36
1, 120360, Note_on_c, 0, 50, 0
1, 120360, Note_on_c, 0, 57, 0
1, 120480, Tempo, 497141
1, 120480, Note_on_c, 0, 69, 0
1, 120480, Note_on_c, 0, 69, 60
1, 120600, Note_on_c, 0, 69, 0
1, 120600, Note_on_c, 0, 71, 67
1, 120720, Note_on_c, 0, 71, 0
1, 120720, Note_on_c, 0, 72, 70
1, 120840, Note_on_c, 0, 72, 0
1, 120840, Note_on_c, 0, 74, 73
1, 120960, Tempo, 507657
1, 120960, Note_on_c, 0, 74, 0
1, 120960, Note_on_c, 0, 76, 80
1, 120960, Note_on_c, 0, 54, 42
1, 120960, Note_on_c, 0, 60, 50
1, 121080, Note_on_c, 0, 60, 0
1, 121080, Note_on_c, 0, 54, 0
1, 121200, Tempo, 518627
1, 121200, Note_on_c, 0, 60, 42
1, 121200, Note_on_c, 0, 54, 35
1, 121320, Note_on_c, 0, 54, 0
1, 121320, Note_on_c, 0, 60, 0
1, 121440, Tempo, 499210
1, 121440, Note_on_c, 0, 76, 0
1, 121440, Note_on_c, 0, 74, 68
1, 121560, Note_on_c, 0, 74, 0
1, 121560, Note_on_c, 0, 72, 63
1, 121680, Note_on_c, 0, 72, 0
1, 121680, Note_on_c, 0, 71, 63
1, 121800, Note_on_c, 0, 71, 0
1, 121800, Note_on_c, 0, 69, 63
1, 121920, Tempo, 516396
1, 121920, Note_on_c, 0, 69, 0
1, 121920, Note_on_c, 0, 74, 72
1, 121920, Note_on_c, 0, 55, 42
1, 121920, Note_on_c, 0, 59, 50
1, 122010, Note_on_c, 0, 74, 0
1, 122040, Note_on_c, 0, 59, 0
1, 122040, Note_on_c, 0, 55, 0
1, 122160, Tempo, 534807
1, 122160, Note_on_c, 0, 74, 58
1, 122250, Note_on_c, 0, 74, 0
1, 122400, Tempo, 497141
1, 122400, Note_on_c, 0, 72, 68
1, 122400, Note_on_c, 0, 55, 35
1, 122400, Note_on_c, 0, 59, 42
1, 122520, Note_on_c, 0, 59, 0
1, 122520, Note_on_c, 0, 55, 0
1, 122520, Note_on_c, 0, 72, 0
1, 122520, Note_on_c, 0, 71, 63
1, 122640, Note_on_c, 0, 71, 0
1, 122640, Note_on_c, 0, 69, 66
1, 122760, Note_on_c, 0, 69, 0
1, 122760, Note_on_c, 0, 67, 63
1, 122880, Tempo, 509814
1, 122880, Note_on_c, 0, 67, 0
1, 122880, Note_on_c, 0, 72, 68
1, 122880, Note_on_c, 0, 50, 42
1, 122880, Note_on_c, 0, 57, 50
1, 122970, Note_on_c, 0, 72, 0
1, 123000, Note_on_c, 0, 57, 0
1, 123000, Note_on_c, 0, 50, 0
1, 123120, Tempo, 518627
1, 123120, Note_on_c, 0, 72, 57
1, 123210, Note_on_c, 0, 72, 0
1, 123360, Tempo, 497141
1, 123360, Note_on_c, 0, 71, 68
1, 123360, Note_on_c, 0, 50, 42
1, 123360, Note_on_c, 0, 57, 50
1, 123480, Note_on_c, 0, 57, 0
1, 123480, Note_on_c, 0, 50, 0
1, 123480, Note_on_c, 0, 71, 0
1, 123480, Note_on_c, 0, 69, 62
1, 123600, Tempo, 525440
1, 123600, Note_on_c, 0, 69, 0
1, 123600, Note_on_c, 0, 67, 63
1, 123720, Tempo, 534807
1, 123720, Note_on_c, 0, 67, 0
1, 123720, Note_on_c, 0, 66, 58
1, 123840, Tempo, 505519
1, 123840, Note_on_c, 0, 66, 0
1, 123840, Note_on_c, 0, 67, 68
1, 123840, Note_on_c, 0, 55, 42
1, 123840, Note_on_c, 0, 59, 50
1, 123930, Note_on_c, 0, 67, 0
1, 123960, Note_on_c, 0, 59, 0
1, 123960, Note_on_c, 0, 55, 0
1, 124080, Tempo, 567698
1, 124080, Note_on_c, 0, 67, 57
1, 124170, Note_on_c, 0, 67, 0
1, 124320, Tempo, 499210
1, 124320, Note_on_c, 0, 79, 54
1, 124440, Note_on_c, 0, 79, 0
1, 124440, Note_on_c, 0, 78, 41
1, 124560, Note_on_c, 0, 78, 0
1, 124560, Note_on_c, 0, 79, 43
1, 124680, Note_on_c, 0, 79, 0
1, 124680, Note_on_c, 0, 76, 40
1, 124800, Tempo, 523149
1, 124800, Note_on_c, 0, 76, 0
1, 124800, Note_on_c, 0, 73, 48
1, 124800, Note_on_c, 0, 64, 34
1, 124800, Note_on_c, 0, 67, 40
1, 124920, Note_on_c, 0, 73, 0
1, 125040, Note_on_c, 0, 73, 43
1, 125160, Note_on_c, 0, 73, 0
1, 125280, Tempo, 499210
1, 125280, Note_on_c, 0, 67, 0
1, 125280, Note_on_c, 0, 64, 0
1, 125280, Note_on_c, 0, 74, 48
1, 125280, Note_on_c, 0, 67, 37
1, 125280, Note_on_c, 0, 64, 31
1, 125400, Note_on_c, 0, 74, 0
1, 125400, Note_on_c, 0, 73, 40
1, 125520, Note_on_c, 0, 73, 0
1, 125520, Note_on_c, 0, 71, 42
1, 125640, Note_on_c, 0, 71, 0
1, 125640, Note_on_c, 0, 69, 40
1, 125760, Tempo, 523149
1, 125760, Note_on_c, 0, 69, 0
1, 125760, Note_on_c, 0, 64, 0
1, 125760, Note_on_c, 0, 67, 0
1, 125760, Note_on_c, 0, 74, 48
1, 125760, Note_on_c, 0, 62, 34
1, 125760, Note_on_c, 0, 66, 40
1, 125880, Note_on_c, 0, 74, 0
1, 126000, Note_on_c, 0, 74, 45
1, 126120, Note_on_c, 0, 74, 0
1, 126240, Tempo, 499210
1, 126240, Note_on_c, 0, 66, 0
1, 126240, Note_on_c, 0, 62, 0
1, 126240, Note_on_c, 0, 81, 53
1, 126360, Note_on_c, 0, 81, 0
1, 126360, Note_on_c, 0, 78, 41
1, 126480, Note_on_c, 0, 78, 0
1, 126480, Note_on_c, 0, 81, 43
1, 126600, Note_on_c, 0, 81, 0
1, 126600, Note_on_c, 0, 74, 40
1, 126720, Tempo, 523149
1, 126720, Note_on_c, 0, 74, 0
1, 126720, Note_on_c, 0, 73, 48
1, 126720, Note_on_c, 0, 64, 34
1, 126720, Note_on_c, 0, 67, 40
1, 126840, Note_on_c, 0, 73, 0
1, 126960, Note_on_c, 0, 73, 43
1, 127080, Note_on_c, 0, 73, 0
1, 127200, Tempo, 499210
1, 127200, Note_on_c, 0, 67, 0
1, 127200, Note_on_c, 0, 64, 0
1, 127200, Note_on_c, 0, 74, 48
1, 127200, Note_on_c, 0, 67, 37
1, 127200, Note_on_c, 0, 64, 31
1, 127320, Note_on_c, 0, 74, 0
1, 127320, Note_on_c, 0, 73, 40
1, 127440, Note_on_c, 0, 73, 0
1, 127440, Note_on_c, 0, 71, 42
1, 127560, Note_on_c, 0, 71, 0
1, 127560, Note_on_c, 0, 73, 40
1, 127680, Tempo, 523149
1, 127680, Note_on_c, 0, 73, 0
1, 127680, Note_on_c, 0, 64, 0
1, 127680, Note_on_c, 0, 67, 0
1, 127680, Note_on_c, 0, 74, 48
1, 127680, Note_on_c, 0, 62, 34
1, 127680, Note_on_c, 0, 66, 40
1, 127920, Note_on_c, 0, 74, 0
1, 127920, Note_on_c, 0, 76, 46
1, 128040, Tempo, 507657
1, 128040, Note_on_c, 0, 76, 0
1, 128040, Note_on_c, 0, 78, 49
1, 128160, Tempo, 499210
1, 128160, Note_on_c, 0, 78, 0
1, 128160, Note_on_c, 0, 66, 0
1, 128160, Note_on_c, 0, 62, 0
1, 128160, Note_on_c, 0, 79, 56
1, 128280, Note_on_c, 0, 79, 0
1, 128280, Note_on_c, 0, 78, 41
1, 128400, Note_on_c, 0, 78, 0
1, 128400, Note_on_c, 0, 79, 43
1, 128520, Note_on_c, 0, 79, 0
1, 128520, Note_on_c, 0, 76, 40
1, 128640, Tempo, 523149
1, 128640, Note_on_c, 0, 76, 0
1, 128640, Note_on_c, 0, 73, 48
1, 128640, Note_on_c, 0, 64, 34
1, 128640, Note_on_c, 0, 67, 40
1, 128760, Note_on_c, 0, 73, 0
1, 128880, Note_on_c, 0, 73, 43
1, 129000, Note_on_c, 0, 73, 0
1, 129120, Tempo, 499210
1, 129120, Note_on_c, 0, 67, 0
1, 129120, Note_on_c, 0, 64, 0
1, 129120, Note_on_c, 0, 74, 48
1, 129120, Note_on_c, 0, 67, 37
1, 129120, Note_on_c, 0, 64, 31
1, 129240, Note_on_c, 0, 74, 0
1, 129240, Note_on_c, 0, 73, 40
1, 129360, Note_on_c, 0, 73, 0
1, 129360, Note_on_c, 0, 71, 42
1, 129480, Note_on_c, 0, 71, 0
1, 129480, Note_on_c, 0, 73, 40
1, 129600, Tempo, 523149
1, 129600, Note_on_c, 0, 73, 0
1, 129600, Note_on_c, 0, 64, 0
1, 129600, Note_on_c, 0, 67, 0
1, 129600, Note_on_c, 0, 74, 54
1, 129600, Note_on_c, 0, 62, 34
1, 129600, Note_on_c, 0, 66, 40
1, 129682, Tempo, 514183
1, 129720, Note_on_c, 0, 74, 0
1, 129720, Note_on_c, 0, 76, 52
1, 129762, Tempo, 511989
1, 129840, Note_on_c, 0, 76, 0
1, 129840, Note_on_c, 0, 78, 54
1, 129842, Tempo, 509814
1, 129922, Tempo, 507657
1, 129960, Note_on_c, 0, 78, 0
1, 129960, Note_on_c, 0, 79, 55
1, 130002, Tempo, 505519
1, 130080, Note_on_c, 0, 79, 0
1, 130080, Note_on_c, 0, 66, 0
1, 130080, Note_on_c, 0, 62, 0
1, 130080, Note_on_c, 0, 81, 57
1, 130082, Tempo, 507657
1, 130142, Tempo, 509814
1, 130200, Note_on_c, 0, 81, 0
1, 130200, Note_on_c, 0, 83, 60
1, 130222, Tempo, 511989
1, 130282, Tempo, 514183
1, 130320, Note_on_c, 0, 83, 0
1, 130320, Note_on_c, 0, 85, 62
1, 130342, Tempo, 516396
1, 130422, Tempo, 518627
1, 130440, Note_on_c, 0, 85, 0
1, 130440, Note_on_c, 0, 86, 63
1, 130482, Tempo, 520879
1, 130542, Tempo, 523149
1, 130560, Tempo, 523149
1, 130560, Note_on_c, 0, 86, 0
1, 130560, Note_on_c, 0, 57, 51
1, 130560, Note_on_c, 0, 64, 51
1, 130560, Note_on_c, 0, 67, 60
1, 130800, Tempo, 509814
1, 130800, Note_on_c, 0, 79, 58
1, 130920, Note_on_c, 0, 79, 0
1, 130920, Note_on_c, 0, 76, 58
1, 131040, Tempo, 503398
1, 131040, Note_on_c, 0, 76, 0
1, 131040, Note_on_c, 0, 67, 0
1, 131040, Note_on_c, 0, 64, 0
1, 131040, Note_on_c, 0, 57, 0
1, 131040, Note_on_c, 0, 73, 65
1, 131040, Note_on_c, 0, 67, 57
1, 131040, Note_on_c, 0, 64, 48
1, 131040, Note_on_c, 0, 57, 48
1, 131160, Note_on_c, 0, 73, 0
1, 131160, Note_on_c, 0, 76, 58
1, 131280, Note_on_c, 0, 76, 0
1, 131280, Note_on_c, 0, 73, 58
1, 131400, Note_on_c, 0, 73, 0
1, 131400, Note_on_c, 0, 76, 58
1, 131502, Tempo, 520879
1, 131520, Note_on_c, 0, 76, 0
1, 131520, Note_on_c, 0, 57, 0
1, 131520, Note_on_c, 0, 64, 0
1, 131520, Note_on_c, 0, 67, 0
1, 131520, Note_on_c, 0, 74, 68
1, 131520, Note_on_c, 0, 62, 51
1, 131520, Note_on_c, 0, 66, 60
1, 131584, Control_c, 0, 64, 127
1, 131640, Note_on_c, 0, 74, 0
1, 131640, Note_on_c, 0, 78, 58
1, 131760, Tempo, 507657
1, 131760, Note_on_c, 0, 78, 0
1, 131760, Note_on_c, 0, 81, 58
1, 131880, Note_on_c, 0, 81, 0
1, 131880, Note_on_c, 0, 78, 58
1, 132000, Note_on_c, 0, 78, 0
1, 132000, Note_on_c, 0, 81, 64
1, 132120, Note_on_c, 0, 81, 0
1, 132120, Note_on_c, 0, 78, 58
1, 132240, Note_on_c, 0, 78, 0
1, 132240, Note_on_c, 0, 81, 58
1, 132360, Note_on_c, 0, 81, 0
1, 132360, Note_on_c, 0, 78, 58
1, 132480, Tempo, 514183
1, 132480, Note_on_c, 0, 78, 0
1, 132480, Note_on_c, 0, 66, 0
1, 132480, Note_on_c, 0, 62, 0
1, 132480, Note_on_c, 0, 76, 68
1, 132480, Note_on_c, 0, 62, 51
1, 132480, Note_on_c, 0, 67, 60
1, 132501, Control_c, 0, 64, 0
1, 132551, Control_c, 0, 64, 127
1, 132600, Note_on_c, 0, 76, 0
1, 132600, Note_on_c, 0, 79, 57
1, 132720, Tempo, 505519
1, 132720, Note_on_c, 0, 79, 0
1, 132720, Note_on_c, 0, 83, 57
1, 132840, Note_on_c, 0, 83, 0
1, 132840, Note_on_c, 0, 79, 57
1, 132960, Note_on_c, 0, 79, 0
1, 132960, Note_on_c, 0, 83, 64
1, 133080, Note_on_c, 0, 83, 0
1, 133080, Note_on_c, 0, 79, 57
1, 133200, Note_on_c, 0, 79, 0
1, 133200, Note_on_c, 0, 83, 57
1, 133320, Note_on_c, 0, 83, 0
1, 133320, Note_on_c, 0, 79, 57
1, 133440, Tempo, 518627
1, 133440, Note_on_c, 0, 79, 0
1, 133440, Note_on_c, 0, 67, 0
1, 133440, Note_on_c, 0, 62, 0
1, 133440, Note_on_c, 0, 78, 65
1, 133440, Note_on_c, 0, 62, 51
1, 133440, Note_on_c, 0, 69, 60
1, 133461, Control_c, 0, 64, 0
1, 133532, Control_c, 0, 64, 127
1, 133560, Note_on_c, 0, 78, 0
1, 133560, Note_on_c, 0, 81, 54
1, 133680, Tempo, 505519
1, 133680, Note_on_c, 0, 81, 0
1, 133680, Note_on_c, 0, 84, 54
1, 133800, Note_on_c, 0, 84, 0
1, 133800, Note_on_c, 0, 81, 54
1, 133920, Note_on_c, 0, 81, 0
1, 133920, Note_on_c, 0, 84, 62
1, 134040, Note_on_c, 0, 84, 0
1, 134040, Note_on_c, 0, 81, 53
1, 134160, Note_on_c, 0, 81, 0
1, 134160, Note_on_c, 0, 84, 53
1, 134280, Note_on_c, 0, 84, 0
1, 134280, Note_on_c, 0, 81, 53
1, 134400, Tempo, 523149
1, 134400, Note_on_c, 0, 81, 0
1, 134400, Note_on_c, 0, 69, 0
1, 134400, Note_on_c, 0, 62, 0
1, 134400, Note_on_c, 0, 78, 55
1, 134414, Control_c, 0, 64, 0
1, 134520, Note_on_c, 0, 78, 0
1, 134520, Note_on_c, 0, 81, 45
1, 134640, Tempo, 507657
1, 134640, Note_on_c, 0, 81, 0
1, 134640, Note_on_c, 0, 84, 44
1, 134760, Note_on_c, 0, 84, 0
1, 134760, Note_on_c, 0, 81, 43
1, 134880, Tempo, 520879
1, 134880, Note_on_c, 0, 81, 0
1, 134880, Note_on_c, 0, 78, 49
1, 135000, Note_on_c, 0, 78, 0
1, 135000, Note_on_c, 0, 81, 42
1, 135120, Tempo, 507657
1, 135120, Note_on_c, 0, 81, 0
1, 135120, Note_on_c, 0, 84, 41
1, 135240, Note_on_c, 0, 84, 0
1, 135240, Note_on_c, 0, 81, 41
1, 135322, Tempo, 503398
1, 135342, Tempo, 499210
1, 135360, Note_on_c, 0, 81, 0
1, 135360, Note_on_c, 0, 78, 51
1, 135402, Tempo, 501295
1, 135442, Tempo, 503398
1, 135480, Note_on_c, 0, 78, 0
1, 135480, Note_on_c, 0, 74, 42
1, 135482, Tempo, 505519
1, 135522, Tempo, 507657
1, 135562, Tempo, 509814
1, 135600, Note_on_c, 0, 74, 0
1, 135600, Note_on_c, 0, 76, 47
1, 135602, Tempo, 511989
1, 135642, Tempo, 514183
1, 135682, Tempo, 516396
1, 135720, Note_on_c, 0, 76, 0
1, 135720, Note_on_c, 0, 78, 48
1, 135722, Tempo, 518627
1, 135762, Tempo, 520879
1, 135802, Tempo, 523149
1, 135840, Note_on_c, 0, 78, 0
1, 135840, Note_on_c, 0, 79, 50
1, 135842, Tempo, 525440
1, 135902, Tempo, 520879
1, 135942, Tempo, 518627
1, 135960, Note_on_c, 0, 79, 0
1, 135960, Note_on_c, 0, 81, 54
1, 135982, Tempo, 516396
1, 136022, Tempo, 514183
1, 136080, Note_on_c, 0, 81, 0
1, 136080, Note_on_c, 0, 83, 56
1, 136082, Tempo, 511989
1, 136122, Tempo, 509814
1, 136162, Tempo, 507657
1, 136200, Note_on_c, 0, 83, 0
1, 136200, Note_on_c, 0, 84, 61
1, 136202, Tempo, 505519
1, 136242, Tempo, 503398
1, 136320, Tempo, 516396
1, 136320, Note_on_c, 0, 84, 0
1, 136320, Note_on_c, 0, 86, 68
1, 136320, Note_on_c, 0, 59, 34
1, 136320, Note_on_c, 0, 67, 40
1, 136440, Note_on_c, 0, 67, 0
1, 136440, Note_on_c, 0, 59, 0
1, 136560, Note_on_c, 0, 67, 34
1, 136560, Note_on_c, 0, 59, 28
1, 136680, Note_on_c, 0, 59, 0
1, 136680, Note_on_c, 0, 67, 0
1, 136800, Tempo, 499210
1, 136800, Note_on_c, 0, 86, 0
1, 136800, Note_on_c, 0, 84, 55
1, 136920, Note_on_c, 0, 84, 0
1, 136920, Note_on_c, 0, 83, 51
1, 137040, Note_on_c, 0, 83, 0
1, 137040, Note_on_c, 0, 81, 51
1, 137160, Note_on_c, 0, 81, 0
1, 137160, Note_on_c, 0, 79, 51
1, 137280, Tempo, 516396
1, 137280, Note_on_c, 0, 79, 0
1, 137280, Note_on_c, 0, 78, 58
1, 137280, Note_on_c, 0, 62, 34
1, 137280, Note_on_c, 0, 69, 40
1, 137400, Note_on_c, 0, 69, 0
1, 137400, Note_on_c, 0, 62, 0
1, 137520, Note_on_c, 0, 69, 34
1, 137520, Note_on_c, 0, 62, 28
1, 137640, Note_on_c, 0, 62, 0
1, 137640, Note_on_c, 0, 69, 0
1, 137760, Tempo, 497141
1, 137760, Note_on_c, 0, 78, 0
1, 137760, Note_on_c, 0, 79, 55
1, 137880, Note_on_c, 0, 79, 0
1, 137880, Note_on_c, 0, 78, 51
1, 138000, Note_on_c, 0, 78, 0
1, 138000, Note_on_c, 0, 76, 53
1, 138120, Note_on_c, 0, 76, 0
1, 138120, Note_on_c, 0, 74, 51
1, 138240, Tempo, 514183
1, 138240, Note_on_c, 0, 74, 0
1, 138240, Note_on_c, 0, 79, 55
1, 138240, Note_on_c, 0, 67, 34
1, 138240, Note_on_c, 0, 71, 40
1, 138360, Note_on_c, 0, 71, 0
1, 138360, Note_on_c, 0, 67, 0
1, 138360, Note_on_c, 0, 79, 0
1, 138480, Tempo, 539617
1, 138480, Note_on_c, 0, 79, 50
1, 138480, Note_on_c, 0, 71, 36
1, 138480, Note_on_c, 0, 67, 30
1, 138600, Note_on_c, 0, 67, 0
1, 138600, Note_on_c, 0, 71, 0
1, 138600, Note_on_c, 0, 79, 0
1, 138720, Tempo, 497141
1, 138720, Note_on_c, 0, 81, 55
1, 138720, Note_on_c, 0, 67, 34
1, 138720, Note_on_c, 0, 71, 40
1, 138840, Note_on_c, 0, 71, 0
1, 138840, Note_on_c, 0, 67, 0
1, 138840, Note_on_c, 0, 81, 0
1, 138840, Note_on_c, 0, 79, 50
1, 138960, Note_on_c, 0, 79, 0
1, 138960, Note_on_c, 0, 78, 51
1, 138960, Note_on_c, 0, 71, 35
1, 138960, Note_on_c, 0, 67, 29
1, 139080, Note_on_c, 0, 67, 0
1, 139080, Note_on_c, 0, 71, 0
1, 139080, Note_on_c, 0, 78, 0
1, 139080, Note_on_c, 0, 79, 47
1, 139200, Tempo, 514183
1, 139200, Note_on_c, 0, 79, 0
1, 139200, Note_on_c, 0, 81, 55
1, 139200, Note_on_c, 0, 62, 34
1, 139200, Note_on_c, 0, 69, 40
1, 139320, Note_on_c, 0, 69, 0
1, 139320, Note_on_c, 0, 62, 0
1, 139440, Note_on_c, 0, 69, 35
1, 139440, Note_on_c, 0, 62, 29
1, 139560, Note_on_c, 0, 62, 0
1, 139560, Note_on_c, 0, 69, 0
1, 139680, Tempo, 497141
1, 139680, Note_on_c, 0, 81, 0
1, 139680, Note_on_c, 0, 81, 48
1, 139800, Note_on_c, 0, 81, 0
1, 139800, Note_on_c, 0, 83, 54
1, 139920, Note_on_c, 0, 83, 0
1, 139920, Note_on_c, 0, 84, 56
1, 140040, Note_on_c, 0, 84, 0
1, 140040, Note_on_c, 0, 86, 60
1, 140160, Tempo, 505519
1, 140160, Note_on_c, 0, 86, 0
1, 140160, Note_on_c, 0, 88, 65
1, 140160, Note_on_c, 0, 66, 34
1, 140160, Note_on_c, 0, 72, 40
1, 140280, Note_on_c, 0, 72, 0
1, 140280, Note_on_c, 0, 66, 0
1, 140400, Tempo, 516396
1, 140400, Note_on_c, 0, 72, 34
1, 140400, Note_on_c, 0, 66, 28
1, 140520, Note_on_c, 0, 66, 0
1, 140520, Note_on_c, 0, 72, 0
1, 140640, Tempo, 499210
1, 140640, Note_on_c, 0, 88, 0
1, 140640, Note_on_c, 0, 86, 55
1, 140760, Note_on_c, 0, 86, 0
1, 140760, Note_on_c, 0, 84, 51
1, 140880, Note_on_c, 0, 84, 0
1, 140880, Note_on_c, 0, 83, 51
1, 141000, Note_on_c, 0, 83, 0
1, 141000, Note_on_c, 0, 81, 51
1, 141120, Tempo, 505519
1, 141120, Note_on_c, 0, 81, 0
1, 141120, Note_on_c, 0, 86, 58
1, 141120, Note_on_c, 0, 67, 34
1, 141120, Note_on_c, 0, 71, 40
1, 141210, Note_on_c, 0, 86, 0
1, 141240, Note_on_c, 0, 71, 0
1, 141240, Note_on_c, 0, 67, 0
1, 141360, Tempo, 534807
1, 141360, Note_on_c, 0, 86, 58
1, 141450, Note_on_c, 0, 86, 0
1, 141600, Tempo, 497141
1, 141600, Note_on_c, 0, 84, 55
1, 141600, Note_on_c, 0, 67, 28
1, 141600, Note_on_c, 0, 71, 34
1, 141720, Note_on_c, 0, 71, 0
1, 141720, Note_on_c, 0, 67, 0
1, 141720, Note_on_c, 0, 84, 0
1, 141720, Note_on_c, 0, 83, 51
1, 141840, Note_on_c, 0, 83, 0
1, 141840, Note_on_c, 0, 81, 53
1, 141960, Note_on_c, 0, 81, 0
1, 141960, Note_on_c, 0, 79, 51
1, 142080, Tempo, 503398
1, 142080, Note_on_c, 0, 79, 0
1, 142080, Note_on_c, 0, 84, 55
1, 142080, Note_on_c, 0, 62, 34
1, 142080, Note_on_c, 0, 69, 40
1, 142170, Note_on_c, 0, 84, 0
1, 142200, Note_on_c, 0, 69, 0
1, 142200, Note_on_c, 0, 62, 0
1, 142320, Tempo, 516396
1, 142320, Note_on_c, 0, 84, 50
1, 142410, Note_on_c, 0, 84, 0
1, 142560, Tempo, 497141
1, 142560, Note_on_c, 0, 83, 55
1, 142560, Note_on_c, 0, 62, 34
1, 142560, Note_on_c, 0, 69, 40
1, 142680, Note_on_c, 0, 69, 0
1, 142680, Note_on_c, 0, 62, 0
1, 142680, Note_on_c, 0, 83, 0
1, 142680, Note_on_c, 0, 81, 50
1, 142800, Tempo, 525440
1, 142800, Note_on_c, 0, 81, 0
1, 142800, Note_on_c, 0, 79, 51
1, 142920, Tempo, 590029
1, 142920, Note_on_c, 0, 79, 0
1, 142920, Note_on_c, 0, 78, 47
1, 143040, Tempo, 562377
1, 143040, Note_on_c, 0, 78, 0
1, 143040, Note_on_c, 0, 79, 55
1, 143040, Note_on_c, 0, 59, 34
1, 143040, Note_on_c, 0, 67, 40
1, 143160, Note_on_c, 0, 67, 0
1, 143160, Note_on_c, 0, 59, 0
1, 143280, Note_on_c, 0, 79, 0
1, 143520, Tempo, 497141
1, 143520, Note_on_c, 0, 67, 60
1, 143640, Note_on_c, 0, 67, 0
1, 143640, Note_on_c, 0, 69, 67
1, 143760, Note_on_c, 0, 69, 0
1, 143760, Note_on_c, 0, 71, 70
1, 143880, Note_on_c, 0, 71, 0
1, 143880, Note_on_c, 0, 72, 72
1, 144000, Tempo, 516396
1, 144000, Note_on_c, 0, 72, 0
1, 144000, Note_on_c, 0, 74, 76
1, 144000, Note_on_c, 0, 43, 50
1, 144240, Note_on_c, 0, 43, 0
1, 144240, Note_on_c, 0, 47, 46
1, 144480, Tempo, 499210
1, 144480, Note_on_c, 0, 47, 0
1, 144480, Note_on_c, 0, 74, 0
1, 144480, Note_on_c, 0, 72, 68
1, 144480, Note_on_c, 0, 50, 45
1, 144600, Note_on_c, 0, 72, 0
1, 144600, Note_on_c, 0, 71, 63
1, 144720, Note_on_c, 0, 71, 0
1, 144720, Note_on_c, 0, 50, 0
1, 144720, Note_on_c, 0, 69, 63
1, 144720, Note_on_c, 0, 55, 45
1, 144840, Note_on_c, 0, 69, 0
1, 144840, Note_on_c, 0, 67, 63
1, 144960, Tempo, 516396
1, 144960, Note_on_c, 0, 67, 0
1, 144960, Note_on_c, 0, 55, 0
1, 144960, Note_on_c, 0, 66, 72
1, 144960, Note_on_c, 0, 45, 50
1, 145200, Note_on_c, 0, 45, 0
1, 145200, Note_on_c, 0, 48, 46
1, 145440, Tempo, 497141
1, 145440, Note_on_c, 0, 48, 0
1, 145440, Note_on_c, 0, 66, 0
1, 145440, Note_on_c, 0, 67, 68
1, 145440, Note_on_c, 0, 50, 45
1, 145560, Note_on_c, 0, 67, 0
1, 145560, Note_on_c, 0, 66, 63
1, 145680, Note_on_c, 0, 66, 0
1, 145680, Note_on_c, 0, 50, 0
1, 145680, Note_on_c, 0, 64, 66
1, 145680, Note_on_c, 0, 54, 45
1, 145800, Note_on_c, 0, 64, 0
1, 145800, Note_on_c, 0, 62, 63
1, 145920, Tempo, 514183
1, 145920, Note_on_c, 0, 62, 0
1, 145920, Note_on_c, 0, 54, 0
1, 145920, Note_on_c, 0, 67, 68
1, 145920, Note_on_c, 0, 43, 50
1, 146040, Note_on_c, 0, 67, 0
1, 146160, Tempo, 532434
1, 146160, Note_on_c, 0, 43, 0
1, 146160, Note_on_c, 0, 67, 62
1, 146160, Note_on_c, 0, 47, 46
1, 146280, Note_on_c, 0, 67, 0
1, 146400, Tempo, 497141
1, 146400, Note_on_c, 0, 47, 0
1, 146400, Note_on_c, 0, 69, 68
1, 146400, Note_on_c, 0, 50, 45
1, 146520, Note_on_c, 0, 69, 0
1, 146520, Note_on_c, 0, 67, 62
1, 146640, Note_on_c, 0, 67, 0
1, 146640, Note_on_c, 0, 50, 0
1, 146640, Note_on_c, 0, 66, 63
1, 146640, Note_on_c, 0, 55, 45
1, 146760, Note_on_c, 0, 66, 0
1, 146760, Note_on_c, 0, 67, 58
1, 146880, Tempo, 514183
1, 146880, Note_on_c, 0, 67, 0
1, 146880, Note_on_c, 0, 55, 0
1, 146880, Note_on_c, 0, 69, 68
1, 146880, Note_on_c, 0, 38, 50
1, 147120, Note_on_c, 0, 38, 0
1, 147120, Note_on_c, 0, 50, 46
1, 147360, Tempo, 497141
1, 147360, Note_on_c, 0, 50, 0
1, 147360, Note_on_c, 0, 69, 0
1, 147360, Note_on_c, 0, 69, 60
1, 147360, Note_on_c, 0, 54, 45
1, 147480, Note_on_c, 0, 69, 0
1, 147480, Note_on_c, 0, 71, 67
1, 147502, Tempo, 497141
1, 147562, Tempo, 495090
1, 147600, Note_on_c, 0, 71, 0
1, 147600, Note_on_c, 0, 54, 0
1, 147600, Note_on_c, 0, 72, 70
1, 147600, Note_on_c, 0, 57, 45
1, 147622, Tempo, 493056
1, 147682, Tempo, 491039
1, 147720, Note_on_c, 0, 72, 0
1, 147720, Note_on_c, 0, 74, 73
1, 147742, Tempo, 489037
1, 147802, Tempo, 487053
1, 147840, Tempo, 507657
1, 147840, Note_on_c, 0, 74, 0
1, 147840, Note_on_c, 0, 57, 0
1, 147840, Note_on_c, 0, 76, 80
1, 147840, Note_on_c, 0, 60, 50
1, 147840, Note_on_c, 0, 54, 42
1, 147960, Note_on_c, 0, 54, 0
1, 147960, Note_on_c, 0, 60, 0
1, 148080, Tempo, 516396
1, 148080, Note_on_c, 0, 54, 35
1, 148080, Note_on_c, 0, 60, 42
1, 148200, Note_on_c, 0, 60, 0
1, 148200, Note_on_c, 0, 54, 0
1, 148320, Tempo, 499210
1, 148320, Note_on_c, 0, 76, 0
1, 148320, Note_on_c, 0, 74, 68
1, 148440, Note_on_c, 0, 74, 0
1, 148440, Note_on_c, 0, 72, 63
1, 148502, Tempo, 489037
1, 148560, Note_on_c, 0, 72, 0
1, 148560, Note_on_c, 0, 71, 63
1, 148562, Tempo, 491039
1, 148622, Tempo, 493056
1, 148662, Tempo, 495090
1, 148680, Note_on_c, 0, 71, 0
1, 148680, Note_on_c, 0, 69, 63
1, 148722, Tempo, 497141
1, 148762, Tempo, 499210
1, 148800, Tempo, 505519
1, 148800, Note_on_c, 0, 69, 0
1, 148800, Note_on_c, 0, 74, 72
1, 148800, Note_on_c, 0, 59, 50
1, 148800, Note_on_c, 0, 55, 42
1, 148890, Note_on_c, 0, 74, 0
1, 148920, Note_on_c, 0, 55, 0
1, 148920, Note_on_c, 0, 59, 0
1, 149040, Tempo, 534807
1, 149040, Note_on_c, 0, 74, 62
1, 149130, Note_on_c, 0, 74, 0
1, 149280, Tempo, 497141
1, 149280, Note_on_c, 0, 72, 68
1, 149280, Note_on_c, 0, 59, 42
1, 149280, Note_on_c, 0, 55, 35
1, 149322, Tempo, 487053
1, 149400, Note_on_c, 0, 55, 0
1, 149400, Note_on_c, 0, 59, 0
1, 149400, Note_on_c, 0, 72, 0
1, 149400, Note_on_c, 0, 71, 63
1, 149402, Tempo, 489037
1, 149482, Tempo, 491039
1, 149520, Note_on_c, 0, 71, 0
1, 149520, Note_on_c, 0, 69, 66
1, 149562, Tempo, 493056
1, 149640, Note_on_c, 0, 69, 0
1, 149640, Note_on_c, 0, 67, 63
1, 149642, Tempo, 495090
1, 149702, Tempo, 497141
1, 149760, Tempo, 503398
1, 149760, Note_on_c, 0, 67, 0
1, 149760, Note_on_c, 0, 72, 68
1, 149760, Note_on_c, 0, 57, 50
1, 149760, Note_on_c, 0, 50, 42
1, 149850, Note_on_c, 0, 72, 0
1, 149880, Note_on_c, 0, 50, 0
1, 149880, Note_on_c, 0, 57, 0
1, 150000, Tempo, 516396
1, 150000, Note_on_c, 0, 72, 57
1, 150090, Note_on_c, 0, 72, 0
1, 150240, Tempo, 497141
1, 150240, Note_on_c, 0, 71, 68
1, 150240, Note_on_c, 0, 50, 42
1, 150240, Note_on_c, 0, 57, 50
1, 150360, Note_on_c, 0, 57, 0
1, 150360, Note_on_c, 0, 50, 0
1, 150360, Note_on_c, 0, 71, 0
1, 150360, Note_on_c, 0, 69, 62
1, 150480, Tempo, 525440
1, 150480, Note_on_c, 0, 69, 0
1, 150480, Note_on_c, 0, 67, 63
1, 150600, Tempo, 534807
1, 150600, Note_on_c, 0, 67, 0
1, 150600, Note_on_c, 0, 66, 58
1, 150720, Tempo, 525440
1, 150720, Note_on_c, 0, 66, 0
1, 150720, Note_on_c, 0, 67, 68
1, 150720, Note_on_c, 0, 43, 50
1, 150922, Tempo, 518627
1, 150960, Note_on_c, 0, 43, 0
1, 150960, Note_on_c, 0, 67, 0
1, 150960, Note_on_c, 0, 45, 35
1, 151002, Tempo, 516396
1, 151080, Note_on_c, 0, 45, 0
1, 151080, Note_on_c, 0, 47, 37
1, 151082, Tempo, 514183
1, 151142, Tempo, 511989
1, 151200, Note_on_c, 0, 47, 0
1, 151200, Note_on_c, 0, 48, 39
1, 151222, Tempo, 509814
1, 151282, Tempo, 507657
1, 151320, Note_on_c, 0, 48, 0
1, 151320, Note_on_c, 0, 50, 41
1, 151362, Tempo, 505519
1, 151422, Tempo, 501295
1, 151440, Note_on_c, 0, 50, 0
1, 151440, Note_on_c, 0, 52, 45
1, 151442, Tempo, 503398
1, 151462, Tempo, 505519
1, 151482, Tempo, 507657
1, 151502, Tempo, 509814
1, 151522, Tempo, 511989
1, 151542, Tempo, 514183
1, 151560, Note_on_c, 0, 52, 0
1, 151560, Note_on_c, 0, 54, 48
1, 151562, Tempo, 516396
1, 151582, Tempo, 518627
1, 151602, Tempo, 520879
1, 151622, Tempo, 525440
1, 151662, Tempo, 523149
1, 151680, Tempo, 537201
1, 151680, Note_on_c, 0, 54, 0
1, 151680, Note_on_c, 0, 55, 54
1, 151800, Note_on_c, 0, 55, 0
1, 151920, Tempo, 520879
1, 151920, Note_on_c, 0, 76, 46
1, 151920, Note_on_c, 0, 72, 39
1, 152010, Note_on_c, 0, 72, 0
1, 152010, Note_on_c, 0, 76, 0
1, 152160, Tempo, 525440
1, 152160, Note_on_c, 0, 71, 45
1, 152160, Note_on_c, 0, 74, 53
1, 152250, Note_on_c, 0, 74, 0
1, 152250, Note_on_c, 0, 71, 0
1, 152400, Tempo, 546996
1, 152400, Note_on_c, 0, 76, 49
1, 152400, Note_on_c, 0, 72, 41
1, 152490, Note_on_c, 0, 72, 0
1, 152490, Note_on_c, 0, 76, 0
1, 152640, Tempo, 525440
1, 152640, Note_on_c, 0, 71, 45
1, 152640, Note_on_c, 0, 74, 54
1, 152640, Note_on_c, 0, 43, 46
1, 152760, Note_on_c, 0, 74, 0
1, 152760, Note_on_c, 0, 71, 0
1, 152782, Tempo, 520879
1, 152842, Tempo, 518627
1, 152880, Note_on_c, 0, 43, 0
1, 152880, Note_on_c, 0, 45, 35
1, 152882, Tempo, 516396
1, 152922, Tempo, 514183
1, 152962, Tempo, 511989
1, 153000, Note_on_c, 0, 45, 0
1, 153000, Note_on_c, 0, 47, 37
1, 153022, Tempo, 509814
1, 153062, Tempo, 507657
1, 153102, Tempo, 505519
1, 153120, Note_on_c, 0, 47, 0
1, 153120, Note_on_c, 0, 48, 39
1, 153142, Tempo, 503398
1, 153202, Tempo, 501295
1, 153240, Note_on_c, 0, 48, 0
1, 153240, Note_on_c, 0, 50, 41
1, 153242, Tempo, 499210
1, 153282, Tempo, 497141
1, 153322, Tempo, 495090
1, 153342, Tempo, 501295
1, 153360, Note_on_c, 0, 50, 0
1, 153360, Note_on_c, 0, 52, 45
1, 153362, Tempo, 503398
1, 153382, Tempo, 505519
1, 153402, Tempo, 507657
1, 153422, Tempo, 509814
1, 153442, Tempo, 511989
1, 153462, Tempo, 514183
1, 153480, Note_on_c, 0, 52, 0
1, 153480, Note_on_c, 0, 54, 48
1, 153482, Tempo, 516396
1, 153502, Tempo, 518627
1, 153522, Tempo, 520879
1, 153542, Tempo, 525440
1, 153582, Tempo, 523149
1, 153600, Tempo, 537201
1, 153600, Note_on_c, 0, 54, 0
1, 153600, Note_on_c, 0, 55, 54
1, 153720, Note_on_c, 0, 55, 0
1, 153840, Tempo, 520879
1, 153840, Note_on_c, 0, 76, 50
1, 153840, Note_on_c, 0, 72, 42
1, 153930, Note_on_c, 0, 72, 0
1, 153930, Note_on_c, 0, 76, 0
1, 154080, Tempo, 523149
1, 154080, Note_on_c, 0, 71, 49
1, 154080, Note_on_c, 0, 74, 58
1, 154170, Note_on_c, 0, 74, 0
1, 154170, Note_on_c, 0, 71, 0
1, 154320, Tempo, 539617
1, 154320, Note_on_c, 0, 76, 53
1, 154320, Note_on_c, 0, 72, 45
1, 154410, Note_on_c, 0, 72, 0
1, 154410, Note_on_c, 0, 76, 0
1, 154560, Tempo, 525440
1, 154560, Note_on_c, 0, 71, 49
1, 154560, Note_on_c, 0, 74, 59
1, 154560, Note_on_c, 0, 43, 50
1, 154680, Note_on_c, 0, 74, 0
1, 154680, Note_on_c, 0, 71, 0
1, 154762, Tempo, 518627
1, 154800, Note_on_c, 0, 43, 0
1, 154800, Note_on_c, 0, 45, 40
1, 154802, Tempo, 514183
1, 154862, Tempo, 511989
1, 154920, Note_on_c, 0, 45, 0
1, 154920, Note_on_c, 0, 47, 44
1, 154922, Tempo, 509814
1, 154962, Tempo, 507657
1, 155022, Tempo, 505519
1, 155040, Note_on_c, 0, 47, 0
1, 155040, Note_on_c, 0, 48, 47
1, 155062, Tempo, 503398
1, 155122, Tempo, 501295
1, 155160, Note_on_c, 0, 48, 0
1, 155160, Note_on_c, 0, 50, 51
1, 155162, Tempo, 499210
1, 155222, Tempo, 497141
1, 155262, Tempo, 495090
1, 155280, Note_on_c, 0, 50, 0
1, 155280, Note_on_c, 0, 52, 54
1, 155282, Tempo, 503398
1, 155302, Tempo, 505519
1, 155322, Tempo, 507657
1, 155342, Tempo, 509814
1, 155362, Tempo, 511989
1, 155382, Tempo, 514183
1, 155400, Note_on_c, 0, 52, 0
1, 155400, Note_on_c, 0, 54, 56
1, 155402, Tempo, 516396
1, 155422, Tempo, 518627
1, 155442, Tempo, 520879
1, 155462, Tempo, 525440
1, 155502, Tempo, 523149
1, 155520, Tempo, 537201
1, 155520, Note_on_c, 0, 54, 0
1, 155520, Note_on_c, 0, 55, 60
1, 155640, Note_on_c, 0, 55, 0
1, 155760, Tempo, 523149
1, 155760, Note_on_c, 0, 67, 56
1, 155760, Note_on_c, 0, 76, 64
1, 155760, Note_on_c, 0, 60, 52
1, 155880, Note_on_c, 0, 60, 0
1, 155880, Note_on_c, 0, 76, 0
1, 155880, Note_on_c, 0, 67, 0
1, 156000, Tempo, 516396
1, 156000, Note_on_c, 0, 74, 74
1, 156000, Note_on_c, 0, 67, 65
1, 156000, Note_on_c, 0, 59, 57
1, 156120, Note_on_c, 0, 59, 0
1, 156120, Note_on_c, 0, 67, 0
1, 156120, Note_on_c, 0, 74, 0
1, 156240, Tempo, 532434
1, 156240, Note_on_c, 0, 67, 57
1, 156240, Note_on_c, 0, 76, 65
1, 156240, Note_on_c, 0, 60, 54
1, 156360, Note_on_c, 0, 60, 0
1, 156360, Note_on_c, 0, 76, 0
1, 156360, Note_on_c, 0, 67, 0
1, 156480, Tempo, 518627
1, 156480, Note_on_c, 0, 74, 74
1, 156480, Note_on_c, 0, 67, 65
1, 156480, Note_on_c, 0, 59, 57
1, 156600, Note_on_c, 0, 59, 0
1, 156600, Note_on_c, 0, 67, 0
1, 156600, Note_on_c, 0, 74, 0
1, 156720, Note_on_c, 0, 67, 55
1, 156720, Note_on_c, 0, 74, 63
1, 156720, Note_on_c, 0, 59, 49
1, 156840, Note_on_c, 0, 59, 0
1, 156840, Note_on_c, 0, 74, 0
1, 156840, Note_on_c, 0, 67, 0
1, 156960, Note_on_c, 0, 72, 72
1, 156960, Note_on_c, 0, 69, 63
1, 156960, Note_on_c, 0, 60, 54
1, 157080, Note_on_c, 0, 60, 0
1, 157080, Note_on_c, 0, 69, 0
1, 157080, Note_on_c, 0, 72, 0
1, 157200, Tempo, 537201
1, 157200, Note_on_c, 0, 72, 62
1, 157200, Note_on_c, 0, 69, 54
1, 157200, Note_on_c, 0, 60, 50
1, 157320, Note_on_c, 0, 60, 0
1, 157320, Note_on_c, 0, 69, 0
1, 157320, Note_on_c, 0, 72, 0
1, 157440, Tempo, 518627
1, 157440, Note_on_c, 0, 71, 71
1, 157440, Note_on_c, 0, 67, 62
1, 157440, Note_on_c, 0, 62, 50
1, 157560, Note_on_c, 0, 62, 0
1, 157560, Note_on_c, 0, 67, 0
1, 157560, Note_on_c, 0, 71, 0
1, 157680, Note_on_c, 0, 71, 60
1, 157680, Note_on_c, 0, 67, 53
1, 157680, Note_on_c, 0, 62, 48
1, 157800, Note_on_c, 0, 62, 0
1, 157800, Note_on_c, 0, 67, 0
1, 157800, Note_on_c, 0, 71, 0
1, 157920, Tempo, 554580
1, 157920, Note_on_c, 0, 69, 71
1, 157920, Note_on_c, 0, 66, 62
1, 157920, Note_on_c, 0, 50, 54
1, 158040, Note_on_c, 0, 50, 0
1, 158040, Note_on_c, 0, 66, 0
1, 158040, Note_on_c, 0, 69, 0
1, 158160, Tempo, 590029
1, 158160, Note_on_c, 0, 69, 58
1, 158160, Note_on_c, 0, 66, 51
1, 158160, Note_on_c, 0, 50, 48
1, 158280, Note_on_c, 0, 50, 0
1, 158280, Note_on_c, 0, 66, 0
1, 158280, Note_on_c, 0, 69, 0
1, 158400, Tempo, 537201
1, 158400, Note_on_c, 0, 67, 71
1, 158400, Note_on_c, 0, 55, 54
1, 158520, Note_on_c, 0, 55, 0
1, 158520, Note_on_c, 0, 67, 0
1, 158880, Tempo, 497141
1, 158880, Note_on_c, 0, 86, 48
1, 158902, Tempo, 481193
1, 158962, Tempo, 483131
1, 159000, Note_on_c, 0, 86, 0
1, 159000, Note_on_c, 0, 84, 54
1, 159002, Tempo, 485084
1, 159042, Tempo, 487053
1, 159082, Tempo, 489037
1, 159120, Note_on_c, 0, 84, 0
1, 159120, Note_on_c, 0, 83, 56
1, 159122, Tempo, 491039
1, 159162, Tempo, 493056
1, 159202, Tempo, 495090
1, 159240, Note_on_c, 0, 83, 0
1, 159240, Note_on_c, 0, 81, 58
1, 159242, Tempo, 497141
1, 159282, Tempo, 499210
1, 159322, Tempo, 501295
1, 159342, Tempo, 501295
1, 159360, Tempo, 516396
1, 159360, Note_on_c, 0, 81, 0
1, 159360, Note_on_c, 0, 79, 61
1, 159480, Note_on_c, 0, 79, 0
1, 159600, Note_on_c, 0, 79, 53
1, 159720, Note_on_c, 0, 79, 0
1, 159840, Tempo, 546996
1, 159840, Note_on_c, 0, 74, 58
1, 159840, Note_on_c, 0, 62, 25
1, 159840, Note_on_c, 0, 69, 34
1, 159960, Note_on_c, 0, 74, 0
1, 160080, Tempo, 570396
1, 160080, Note_on_c, 0, 74, 49
1, 160200, Note_on_c, 0, 74, 0
1, 160320, Tempo, 516396
1, 160320, Note_on_c, 0, 69, 0
1, 160320, Note_on_c, 0, 62, 0
1, 160320, Note_on_c, 0, 71, 58
1, 160320, Note_on_c, 0, 67, 40
1, 160440, Note_on_c, 0, 67, 0
1, 160440, Note_on_c, 0, 71, 0
1, 160800, Tempo, 497141
1, 160800, Note_on_c, 0, 86, 48
1, 160822, Tempo, 475473
1, 160862, Tempo, 477365
1, 160902, Tempo, 479272
1, 160920, Note_on_c, 0, 86, 0
1, 160920, Note_on_c, 0, 84, 54
1, 160942, Tempo, 481193
1, 160962, Tempo, 483131
1, 161002, Tempo, 485084
1, 161040, Note_on_c, 0, 84, 0
1, 161040, Note_on_c, 0, 83, 56
1, 161042, Tempo, 487053
1, 161082, Tempo, 489037
1, 161102, Tempo, 491039
1, 161142, Tempo, 493056
1, 161160, Note_on_c, 0, 83, 0
1, 161160, Note_on_c, 0, 81, 58
1, 161182, Tempo, 495090
1, 161222, Tempo, 497141
1, 161242, Tempo, 499210
1, 161280, Tempo, 516396
1, 161280, Note_on_c, 0, 81, 0
1, 161280, Note_on_c, 0, 79, 61
1, 161400, Note_on_c, 0, 79, 0
1, 161520, Note_on_c, 0, 79, 53
1, 161640, Note_on_c, 0, 79, 0
1, 161760, Tempo, 546996
1, 161760, Note_on_c, 0, 74, 58
1, 161760, Note_on_c, 0, 62, 25
1, 161760, Note_on_c, 0, 69, 34
1, 161880, Note_on_c, 0, 74, 0
1, 162000, Tempo, 578648
1, 162000, Note_on_c, 0, 74, 49
1, 162120, Tempo, 578648
1, 162120, Note_on_c, 0, 74, 0
1, 162240, Tempo, 516396
1, 162240, Note_on_c, 0, 69, 0
1, 162240, Note_on_c, 0, 62, 0
1, 162240, Note_on_c, 0, 71, 58
1, 162240, Note_on_c, 0, 67, 40
1, 162360, Note_on_c, 0, 67, 0
1, 162360, Note_on_c, 0, 71, 0
1, 162720, Tempo, 562377
1, 162720, Note_on_c, 0, 78, 88
1, 162720, Note_on_c, 0, 72, 73
1, 162720, Note_on_c, 0, 69, 73
1, 162720, Note_on_c, 0, 50, 42
1, 162720, Note_on_c, 0, 62, 50
1, 162840, Note_on_c, 0, 62, 0
1, 162840, Note_on_c, 0, 69, 0
1, 162840, Note_on_c, 0, 78, 0
1, 162840, Note_on_c, 0, 72, 0
1, 162840, Note_on_c, 0, 50, 0
1, 163200, Tempo, 544514
1, 163200, Note_on_c, 0, 79, 95
1, 163200, Note_on_c, 0, 74, 80
1, 163200, Note_on_c, 0, 71, 80
1, 163200, Note_on_c, 0, 59, 56
1, 163200, Note_on_c, 0, 55, 47
1, 163320, Note_on_c, 0, 55, 0
1, 163320, Note_on_c, 0, 71, 0
1, 163320, Note_on_c, 0, 79, 0
1, 163320, Note_on_c, 0, 74, 0
1, 163320, Note_on_c, 0, 59, 0
1, 163680, Tempo, 578648
1, 163680, Note_on_c, 0, 78, 88
1, 163680, Note_on_c, 0, 74, 73
1, 163680, Note_on_c, 0, 69, 73
1, 163680, Note_on_c, 0, 50, 42
1, 163680, Note_on_c, 0, 62, 50
1, 163800, Note_on_c, 0, 62, 0
1, 163800, Note_on_c, 0, 69, 0
1, 163800, Note_on_c, 0, 78, 0
1, 163800, Note_on_c, 0, 74, 0
1, 163800, Note_on_c, 0, 50, 0
1, 164160, Tempo, 730016
1, 164160, Note_on_c, 0, 79, 99
1, 164160, Note_on_c, 0, 74, 84
1, 164160, Note_on_c, 0, 71, 84
1, 164160, Note_on_c, 0, 59, 57
1, 164160, Note_on_c, 0, 55, 48
1, 164280, Note_on_c, 0, 55, 0
1, 164280, Note_on_c, 0, 71, 0
1, 164280, Note_on_c, 0, 79, 0
1, 164280, Note_on_c, 0, 74, 0
1, 164280, Note_on_c, 0, 59, 0
1, 164280, End_track
0, 0, End_of_file
