0, 0, Header, 0, 1, 480
1, 0, Start_track
1, 0, Title_t, "Clementi: Sonatine Opus 36 Nr. 1, 2. Satz"
1, 0, Copyright_t, "Copyright © 2010 by Bernd Krueger"
1, 0, Text_t, "Muzio Clementi"
1, 0, Text_t, "Andante"
1, 0, Text_t, "Erstellt: 17.11.2010\012"
1, 0, Text_t, "Dauer: 1:08 Minuten\012"
1, 0, Time_signature, 3, 2, 24, 8
1, 0, Key_signature, -1, "major"
1, 0, Tempo, 877321
1, 0, Program_c, 0, 0
1, 0, Note_on_c, 0, 72, 50
1, 0, Program_c, 0, 0
1, 0, Note_on_c, 0, 53, 24
1, 0, Program_c, 0, 0
1, 78, Control_c, 0, 64, 127
1, 160, Note_on_c, 0, 53, 0
1, 160, Note_on_c, 0, 57, 20
1, 320, Note_on_c, 0, 57, 0
1, 320, Note_on_c, 0, 60, 20
1, 480, Note_on_c, 0, 60, 0
1, 480, Note_on_c, 0, 53, 24
1, 640, Note_on_c, 0, 53, 0
1, 640, Note_on_c, 0, 57, 20
1, 800, Note_on_c, 0, 57, 0
1, 800, Note_on_c, 0, 60, 20
1, 960, Note_on_c, 0, 60, 0
1, 960, Note_on_c, 0, 72, 0
1, 960, Note_on_c, 0, 77, 49
1, 960, Note_on_c, 0, 53, 24
1, 1120, Note_on_c, 0, 53, 0
1, 1120, Note_on_c, 0, 57, 20
1, 1280, Tempo, 924642
1, 1280, Note_on_c, 0, 57, 0
1, 1280, Note_on_c, 0, 60, 20
1, 1440, Tempo, 870954
1, 1440, Note_on_c, 0, 60, 0
1, 1440, Note_on_c, 0, 77, 0
1, 1440, Note_on_c, 0, 69, 50
1, 1440, Note_on_c, 0, 53, 24
1, 1468, Control_c, 0, 64, 0
1, 1546, Control_c, 0, 64, 127
1, 1600, Note_on_c, 0, 53, 0
1, 1600, Note_on_c, 0, 57, 20
1, 1760, Note_on_c, 0, 57, 0
1, 1760, Note_on_c, 0, 60, 20
1, 1920, Note_on_c, 0, 60, 0
1, 1920, Note_on_c, 0, 53, 24
1, 2080, Note_on_c, 0, 53, 0
1, 2080, Note_on_c, 0, 57, 20
1, 2240, Note_on_c, 0, 57, 0
1, 2240, Note_on_c, 0, 60, 20
1, 2400, Note_on_c, 0, 60, 0
1, 2400, Note_on_c, 0, 69, 0
1, 2400, Note_on_c, 0, 72, 49
1, 2400, Note_on_c, 0, 53, 24
1, 2560, Note_on_c, 0, 53, 0
1, 2560, Note_on_c, 0, 57, 20
1, 2720, Tempo, 931822
1, 2720, Note_on_c, 0, 57, 0
1, 2720, Note_on_c, 0, 60, 20
1, 2880, Tempo, 864678
1, 2880, Note_on_c, 0, 60, 0
1, 2880, Note_on_c, 0, 72, 0
1, 2880, Note_on_c, 0, 65, 44
1, 2880, Note_on_c, 0, 48, 24
1, 2880, Control_c, 0, 64, 0
1, 2979, Control_c, 0, 64, 127
1, 3040, Note_on_c, 0, 48, 0
1, 3040, Note_on_c, 0, 53, 20
1, 3200, Note_on_c, 0, 53, 0
1, 3200, Note_on_c, 0, 57, 20
1, 3360, Note_on_c, 0, 57, 0
1, 3360, Note_on_c, 0, 48, 24
1, 3520, Note_on_c, 0, 48, 0
1, 3520, Note_on_c, 0, 53, 21
1, 3680, Note_on_c, 0, 53, 0
1, 3680, Note_on_c, 0, 57, 21
1, 3821, Tempo, 877321
1, 3840, Note_on_c, 0, 57, 0
1, 3840, Note_on_c, 0, 65, 0
1, 3840, Note_on_c, 0, 67, 33
1, 3840, Note_on_c, 0, 48, 24
1, 3855, Control_c, 0, 64, 0
1, 3898, Tempo, 870954
1, 3900, Note_on_c, 0, 67, 0
1, 3900, Note_on_c, 0, 69, 30
1, 3900, Control_c, 0, 64, 127
1, 3955, Tempo, 864678
1, 3960, Note_on_c, 0, 69, 0
1, 3960, Note_on_c, 0, 67, 35
1, 4000, Note_on_c, 0, 48, 0
1, 4000, Note_on_c, 0, 52, 20
1, 4013, Tempo, 858492
1, 4020, Note_on_c, 0, 67, 0
1, 4020, Note_on_c, 0, 69, 32
1, 4071, Tempo, 852394
1, 4080, Note_on_c, 0, 69, 0
1, 4080, Note_on_c, 0, 67, 39
1, 4120, Note_on_c, 0, 67, 0
1, 4120, Note_on_c, 0, 69, 33
1, 4128, Tempo, 846382
1, 4160, Tempo, 846382
1, 4160, Note_on_c, 0, 69, 0
1, 4160, Note_on_c, 0, 52, 0
1, 4160, Note_on_c, 0, 67, 38
1, 4160, Note_on_c, 0, 55, 20
1, 4186, Tempo, 840454
1, 4200, Note_on_c, 0, 67, 0
1, 4200, Note_on_c, 0, 69, 35
1, 4230, Note_on_c, 0, 69, 0
1, 4230, Note_on_c, 0, 67, 39
1, 4243, Tempo, 834608
1, 4260, Note_on_c, 0, 67, 0
1, 4260, Note_on_c, 0, 65, 34
1, 4290, Note_on_c, 0, 65, 0
1, 4290, Note_on_c, 0, 67, 34
1, 4320, Note_on_c, 0, 67, 0
1, 4320, Note_on_c, 0, 55, 0
1, 4320, Note_on_c, 0, 69, 49
1, 4320, Note_on_c, 0, 53, 24
1, 4320, Control_c, 0, 64, 0
1, 4339, Tempo, 840454
1, 4384, Control_c, 0, 64, 127
1, 4480, Note_on_c, 0, 53, 0
1, 4480, Note_on_c, 0, 57, 20
1, 4640, Note_on_c, 0, 57, 0
1, 4640, Note_on_c, 0, 60, 20
1, 4800, Tempo, 846382
1, 4800, Note_on_c, 0, 60, 0
1, 4800, Note_on_c, 0, 69, 0
1, 4800, Note_on_c, 0, 65, 31
1, 4960, Note_on_c, 0, 65, 0
1, 4960, Note_on_c, 0, 69, 34
1, 5120, Tempo, 870954
1, 5120, Note_on_c, 0, 69, 0
1, 5120, Note_on_c, 0, 72, 37
1, 5280, Tempo, 883783
1, 5280, Note_on_c, 0, 72, 0
1, 5280, Note_on_c, 0, 77, 42
1, 5360, Note_on_c, 0, 77, 0
1, 5440, Note_on_c, 0, 77, 39
1, 5520, Note_on_c, 0, 77, 0
1, 5600, Note_on_c, 0, 77, 35
1, 5680, Note_on_c, 0, 77, 0
1, 5760, Tempo, 840454
1, 5760, Note_on_c, 0, 74, 49
1, 5760, Note_on_c, 0, 53, 24
1, 5760, Control_c, 0, 64, 0
1, 5824, Control_c, 0, 64, 127
1, 5920, Note_on_c, 0, 53, 0
1, 5920, Note_on_c, 0, 58, 20
1, 6080, Note_on_c, 0, 58, 0
1, 6080, Note_on_c, 0, 62, 20
1, 6240, Tempo, 864678
1, 6240, Note_on_c, 0, 62, 0
1, 6240, Note_on_c, 0, 74, 0
1, 6240, Note_on_c, 0, 65, 31
1, 6400, Note_on_c, 0, 65, 0
1, 6400, Note_on_c, 0, 70, 34
1, 6560, Note_on_c, 0, 70, 0
1, 6560, Note_on_c, 0, 74, 37
1, 6720, Tempo, 883783
1, 6720, Note_on_c, 0, 74, 0
1, 6720, Note_on_c, 0, 77, 42
1, 6800, Note_on_c, 0, 77, 0
1, 6880, Note_on_c, 0, 77, 39
1, 6960, Note_on_c, 0, 77, 0
1, 7040, Note_on_c, 0, 77, 35
1, 7120, Note_on_c, 0, 77, 0
1, 7200, Tempo, 846382
1, 7200, Note_on_c, 0, 72, 49
1, 7200, Note_on_c, 0, 53, 24
1, 7200, Control_c, 0, 64, 0
1, 7264, Control_c, 0, 64, 127
1, 7360, Note_on_c, 0, 53, 0
1, 7360, Note_on_c, 0, 57, 20
1, 7520, Tempo, 896995
1, 7520, Note_on_c, 0, 57, 0
1, 7520, Note_on_c, 0, 60, 20
1, 7680, Tempo, 840454
1, 7680, Note_on_c, 0, 60, 0
1, 7680, Note_on_c, 0, 72, 0
1, 7680, Note_on_c, 0, 81, 53
1, 7680, Note_on_c, 0, 53, 24
1, 7737, Control_c, 0, 64, 0
1, 7840, Note_on_c, 0, 53, 0
1, 7840, Note_on_c, 0, 81, 0
1, 7840, Note_on_c, 0, 79, 42
1, 7840, Note_on_c, 0, 57, 20
1, 8000, Note_on_c, 0, 57, 0
1, 8000, Note_on_c, 0, 79, 0
1, 8000, Note_on_c, 0, 77, 42
1, 8000, Note_on_c, 0, 60, 23
1, 8160, Note_on_c, 0, 60, 0
1, 8160, Note_on_c, 0, 77, 0
1, 8160, Note_on_c, 0, 76, 51
1, 8160, Note_on_c, 0, 53, 24
1, 8320, Note_on_c, 0, 53, 0
1, 8320, Note_on_c, 0, 76, 0
1, 8320, Note_on_c, 0, 74, 42
1, 8320, Note_on_c, 0, 57, 21
1, 8480, Tempo, 883783
1, 8480, Note_on_c, 0, 57, 0
1, 8480, Note_on_c, 0, 74, 0
1, 8480, Note_on_c, 0, 72, 42
1, 8480, Note_on_c, 0, 60, 21
1, 8640, Tempo, 834608
1, 8640, Note_on_c, 0, 60, 0
1, 8640, Note_on_c, 0, 72, 0
1, 8640, Note_on_c, 0, 72, 51
1, 8640, Note_on_c, 0, 58, 37
1, 8704, Control_c, 0, 64, 127
1, 8800, Note_on_c, 0, 72, 0
1, 8800, Note_on_c, 0, 64, 46
1, 8960, Note_on_c, 0, 64, 0
1, 8960, Note_on_c, 0, 67, 47
1, 9120, Tempo, 817550
1, 9120, Note_on_c, 0, 67, 0
1, 9120, Note_on_c, 0, 58, 0
1, 9120, Note_on_c, 0, 72, 57
1, 9120, Note_on_c, 0, 57, 40
1, 9133, Control_c, 0, 64, 0
1, 9233, Control_c, 0, 64, 127
1, 9280, Note_on_c, 0, 72, 0
1, 9280, Note_on_c, 0, 65, 49
1, 9440, Note_on_c, 0, 65, 0
1, 9440, Note_on_c, 0, 69, 49
1, 9600, Tempo, 823158
1, 9600, Note_on_c, 0, 69, 0
1, 9600, Note_on_c, 0, 57, 0
1, 9600, Note_on_c, 0, 72, 62
1, 9600, Note_on_c, 0, 53, 45
1, 9614, Control_c, 0, 64, 0
1, 9727, Control_c, 0, 64, 127
1, 9760, Note_on_c, 0, 72, 0
1, 9760, Note_on_c, 0, 65, 53
1, 9920, Tempo, 903751
1, 9920, Note_on_c, 0, 65, 0
1, 9920, Note_on_c, 0, 69, 51
1, 10080, Tempo, 840454
1, 10080, Note_on_c, 0, 69, 0
1, 10080, Note_on_c, 0, 53, 0
1, 10080, Note_on_c, 0, 72, 62
1, 10080, Note_on_c, 0, 48, 45
1, 10090, Control_c, 0, 64, 0
1, 10193, Control_c, 0, 64, 127
1, 10240, Note_on_c, 0, 48, 0
1, 10240, Note_on_c, 0, 53, 39
1, 10400, Note_on_c, 0, 53, 0
1, 10400, Note_on_c, 0, 57, 39
1, 10440, Tempo, 896995
1, 10440, Note_on_c, 0, 72, 0
1, 10440, Note_on_c, 0, 69, 48
1, 10560, Tempo, 846382
1, 10560, Note_on_c, 0, 69, 0
1, 10560, Note_on_c, 0, 57, 0
1, 10560, Note_on_c, 0, 67, 43
1, 10560, Note_on_c, 0, 48, 31
1, 10576, Control_c, 0, 64, 0
1, 10666, Control_c, 0, 64, 127
1, 10720, Note_on_c, 0, 48, 0
1, 10720, Note_on_c, 0, 52, 26
1, 10880, Note_on_c, 0, 52, 0
1, 10880, Note_on_c, 0, 55, 26
1, 11040, Note_on_c, 0, 55, 0
1, 11040, Note_on_c, 0, 67, 0
1, 11040, Note_on_c, 0, 48, 31
1, 11200, Note_on_c, 0, 48, 0
1, 11200, Note_on_c, 0, 52, 29
1, 11360, Tempo, 890340
1, 11360, Note_on_c, 0, 52, 0
1, 11360, Note_on_c, 0, 55, 30
1, 11520, Tempo, 846382
1, 11520, Note_on_c, 0, 55, 0
1, 11520, Note_on_c, 0, 74, 43
1, 11520, Note_on_c, 0, 77, 51
1, 11520, Note_on_c, 0, 43, 40
1, 11523, Control_c, 0, 64, 0
1, 11600, Note_on_c, 0, 77, 0
1, 11600, Note_on_c, 0, 74, 0
1, 11600, Control_c, 0, 64, 127
1, 11680, Note_on_c, 0, 77, 48
1, 11680, Note_on_c, 0, 74, 40
1, 11760, Note_on_c, 0, 74, 0
1, 11760, Note_on_c, 0, 77, 0
1, 11840, Note_on_c, 0, 77, 48
1, 11840, Note_on_c, 0, 74, 40
1, 11920, Note_on_c, 0, 74, 0
1, 11920, Note_on_c, 0, 77, 0
1, 12000, Tempo, 828844
1, 12000, Note_on_c, 0, 72, 43
1, 12000, Note_on_c, 0, 76, 51
1, 12022, Control_c, 0, 64, 0
1, 12080, Note_on_c, 0, 76, 0
1, 12080, Note_on_c, 0, 72, 0
1, 12097, Control_c, 0, 64, 127
1, 12160, Note_on_c, 0, 76, 45
1, 12160, Note_on_c, 0, 72, 38
1, 12240, Note_on_c, 0, 72, 0
1, 12240, Note_on_c, 0, 76, 0
1, 12320, Note_on_c, 0, 76, 45
1, 12320, Note_on_c, 0, 72, 38
1, 12400, Note_on_c, 0, 72, 0
1, 12400, Note_on_c, 0, 76, 0
1, 12480, Note_on_c, 0, 43, 0
1, 12480, Note_on_c, 0, 71, 36
1, 12480, Note_on_c, 0, 74, 43
1, 12480, Note_on_c, 0, 53, 45
1, 12492, Control_c, 0, 64, 0
1, 12555, Control_c, 0, 64, 127
1, 12560, Note_on_c, 0, 74, 0
1, 12560, Note_on_c, 0, 71, 0
1, 12640, Note_on_c, 0, 71, 42
1, 12640, Note_on_c, 0, 74, 50
1, 12720, Note_on_c, 0, 74, 0
1, 12720, Note_on_c, 0, 71, 0
1, 12800, Tempo, 890340
1, 12800, Note_on_c, 0, 71, 45
1, 12800, Note_on_c, 0, 74, 54
1, 12880, Note_on_c, 0, 74, 0
1, 12880, Note_on_c, 0, 71, 0
1, 12960, Tempo, 840454
1, 12960, Note_on_c, 0, 53, 0
1, 12960, Note_on_c, 0, 79, 67
1, 12960, Note_on_c, 0, 52, 36
1, 12960, Control_c, 0, 64, 0
1, 13017, Control_c, 0, 64, 127
1, 13120, Note_on_c, 0, 52, 0
1, 13120, Note_on_c, 0, 55, 29
1, 13280, Note_on_c, 0, 55, 0
1, 13280, Note_on_c, 0, 60, 29
1, 13440, Note_on_c, 0, 60, 0
1, 13440, Note_on_c, 0, 79, 0
1, 13440, Note_on_c, 0, 67, 51
1, 13440, Note_on_c, 0, 52, 40
1, 13448, Control_c, 0, 64, 0
1, 13600, Note_on_c, 0, 67, 0
1, 13600, Note_on_c, 0, 69, 48
1, 13760, Note_on_c, 0, 69, 0
1, 13760, Note_on_c, 0, 71, 48
1, 13920, Note_on_c, 0, 71, 0
1, 13920, Note_on_c, 0, 72, 51
1, 14080, Note_on_c, 0, 72, 0
1, 14080, Note_on_c, 0, 74, 47
1, 14240, Tempo, 877321
1, 14240, Note_on_c, 0, 74, 0
1, 14240, Note_on_c, 0, 76, 47
1, 14400, Tempo, 840454
1, 14400, Note_on_c, 0, 76, 0
1, 14400, Note_on_c, 0, 52, 0
1, 14400, Note_on_c, 0, 69, 51
1, 14400, Note_on_c, 0, 53, 40
1, 14429, Control_c, 0, 64, 127
1, 14560, Note_on_c, 0, 69, 0
1, 14560, Note_on_c, 0, 77, 47
1, 14720, Note_on_c, 0, 77, 0
1, 14720, Note_on_c, 0, 74, 46
1, 14880, Note_on_c, 0, 74, 0
1, 14880, Note_on_c, 0, 53, 0
1, 14880, Note_on_c, 0, 72, 55
1, 14880, Note_on_c, 0, 64, 46
1, 14880, Note_on_c, 0, 55, 40
1, 14897, Control_c, 0, 64, 0
1, 14943, Control_c, 0, 64, 127
1, 14960, Note_on_c, 0, 64, 0
1, 14960, Note_on_c, 0, 72, 0
1, 15040, Note_on_c, 0, 72, 48
1, 15040, Note_on_c, 0, 64, 40
1, 15120, Note_on_c, 0, 64, 0
1, 15120, Note_on_c, 0, 72, 0
1, 15200, Note_on_c, 0, 72, 46
1, 15200, Note_on_c, 0, 64, 39
1, 15280, Note_on_c, 0, 64, 0
1, 15280, Note_on_c, 0, 72, 0
1, 15360, Note_on_c, 0, 55, 0
1, 15360, Note_on_c, 0, 71, 54
1, 15360, Note_on_c, 0, 62, 45
1, 15360, Note_on_c, 0, 43, 35
1, 15378, Control_c, 0, 64, 0
1, 15440, Note_on_c, 0, 62, 0
1, 15440, Note_on_c, 0, 71, 0
1, 15440, Control_c, 0, 64, 127
1, 15520, Note_on_c, 0, 71, 46
1, 15520, Note_on_c, 0, 62, 39
1, 15600, Note_on_c, 0, 62, 0
1, 15600, Note_on_c, 0, 71, 0
1, 15680, Tempo, 954047
1, 15680, Note_on_c, 0, 71, 46
1, 15680, Note_on_c, 0, 62, 39
1, 15760, Note_on_c, 0, 62, 0
1, 15760, Note_on_c, 0, 71, 0
1, 15840, Tempo, 852394
1, 15840, Note_on_c, 0, 43, 0
1, 15840, Note_on_c, 0, 74, 58
1, 15840, Note_on_c, 0, 65, 49
1, 15840, Note_on_c, 0, 36, 40
1, 15840, Control_c, 0, 64, 0
1, 16134, Control_c, 0, 64, 127
1, 16320, Tempo, 877321
1, 16320, Note_on_c, 0, 36, 0
1, 16320, Note_on_c, 0, 43, 35
1, 16800, Tempo, 924642
1, 16800, Note_on_c, 0, 43, 0
1, 16800, Note_on_c, 0, 65, 0
1, 16800, Note_on_c, 0, 74, 0
1, 16800, Note_on_c, 0, 64, 38
1, 16800, Note_on_c, 0, 72, 45
1, 16800, Note_on_c, 0, 48, 39
1, 16819, Control_c, 0, 64, 0
1, 17280, Tempo, 852394
1, 17280, Note_on_c, 0, 48, 0
1, 17280, Note_on_c, 0, 72, 0
1, 17280, Note_on_c, 0, 64, 0
1, 17280, Note_on_c, 0, 72, 43
1, 17440, Note_on_c, 0, 72, 0
1, 17440, Note_on_c, 0, 72, 45
1, 17600, Note_on_c, 0, 72, 0
1, 17600, Note_on_c, 0, 72, 49
1, 17760, Tempo, 846382
1, 17760, Note_on_c, 0, 72, 0
1, 17760, Note_on_c, 0, 75, 54
1, 17920, Note_on_c, 0, 75, 0
1, 17920, Note_on_c, 0, 74, 49
1, 18080, Note_on_c, 0, 74, 0
1, 18080, Note_on_c, 0, 72, 48
1, 18240, Tempo, 840454
1, 18240, Note_on_c, 0, 72, 0
1, 18240, Note_on_c, 0, 70, 43
1, 18400, Note_on_c, 0, 70, 0
1, 18400, Note_on_c, 0, 69, 39
1, 18560, Tempo, 917571
1, 18560, Note_on_c, 0, 69, 0
1, 18560, Note_on_c, 0, 67, 39
1, 18720, Tempo, 852394
1, 18720, Note_on_c, 0, 67, 0
1, 18720, Note_on_c, 0, 66, 47
1, 18720, Note_on_c, 0, 60, 37
1, 18784, Control_c, 0, 64, 127
1, 18880, Note_on_c, 0, 66, 0
1, 18880, Note_on_c, 0, 69, 41
1, 19040, Note_on_c, 0, 69, 0
1, 19040, Note_on_c, 0, 62, 41
1, 19200, Tempo, 840454
1, 19200, Note_on_c, 0, 62, 0
1, 19200, Note_on_c, 0, 60, 0
1, 19200, Note_on_c, 0, 67, 48
1, 19200, Note_on_c, 0, 58, 34
1, 19213, Control_c, 0, 64, 0
1, 19313, Control_c, 0, 64, 127
1, 19360, Note_on_c, 0, 67, 0
1, 19360, Note_on_c, 0, 70, 39
1, 19520, Note_on_c, 0, 70, 0
1, 19520, Note_on_c, 0, 62, 39
1, 19680, Note_on_c, 0, 62, 0
1, 19680, Note_on_c, 0, 58, 0
1, 19680, Note_on_c, 0, 69, 51
1, 19680, Note_on_c, 0, 54, 38
1, 19694, Control_c, 0, 64, 0
1, 19807, Control_c, 0, 64, 127
1, 19840, Note_on_c, 0, 69, 0
1, 19840, Note_on_c, 0, 72, 43
1, 20000, Tempo, 890340
1, 20000, Note_on_c, 0, 72, 0
1, 20000, Note_on_c, 0, 62, 43
1, 20160, Tempo, 828844
1, 20160, Note_on_c, 0, 62, 0
1, 20160, Note_on_c, 0, 54, 0
1, 20160, Note_on_c, 0, 70, 43
1, 20160, Control_c, 0, 64, 0
1, 20304, Note_on_c, 0, 70, 0
1, 20320, Note_on_c, 0, 70, 45
1, 20464, Note_on_c, 0, 70, 0
1, 20480, Note_on_c, 0, 70, 49
1, 20624, Note_on_c, 0, 70, 0
1, 20646, Note_on_c, 0, 74, 54
1, 20800, Note_on_c, 0, 72, 48
1, 20806, Note_on_c, 0, 74, 0
1, 20960, Note_on_c, 0, 72, 0
1, 20960, Note_on_c, 0, 70, 48
1, 21120, Tempo, 840454
1, 21120, Note_on_c, 0, 70, 0
1, 21120, Note_on_c, 0, 69, 43
1, 21280, Note_on_c, 0, 69, 0
1, 21280, Note_on_c, 0, 67, 39
1, 21440, Tempo, 917571
1, 21440, Note_on_c, 0, 67, 0
1, 21440, Note_on_c, 0, 65, 39
1, 21600, Tempo, 828844
1, 21600, Note_on_c, 0, 65, 0
1, 21600, Note_on_c, 0, 64, 47
1, 21600, Note_on_c, 0, 58, 37
1, 21664, Control_c, 0, 64, 127
1, 21760, Note_on_c, 0, 64, 0
1, 21760, Note_on_c, 0, 67, 41
1, 21920, Note_on_c, 0, 67, 0
1, 21920, Note_on_c, 0, 60, 41
1, 22080, Note_on_c, 0, 60, 0
1, 22080, Note_on_c, 0, 58, 0
1, 22080, Note_on_c, 0, 65, 48
1, 22080, Note_on_c, 0, 57, 34
1, 22093, Control_c, 0, 64, 0
1, 22193, Control_c, 0, 64, 127
1, 22240, Note_on_c, 0, 65, 0
1, 22240, Note_on_c, 0, 69, 39
1, 22400, Tempo, 870954
1, 22400, Note_on_c, 0, 69, 0
1, 22400, Note_on_c, 0, 72, 39
1, 22560, Tempo, 840454
1, 22560, Note_on_c, 0, 72, 0
1, 22560, Note_on_c, 0, 57, 0
1, 22560, Note_on_c, 0, 69, 43
1, 22560, Note_on_c, 0, 72, 51
1, 22560, Note_on_c, 0, 53, 38
1, 22574, Control_c, 0, 64, 0
1, 22687, Control_c, 0, 64, 127
1, 22720, Note_on_c, 0, 72, 0
1, 22720, Note_on_c, 0, 69, 0
1, 22720, Note_on_c, 0, 67, 37
1, 22720, Note_on_c, 0, 70, 43
1, 22880, Tempo, 883783
1, 22880, Note_on_c, 0, 70, 0
1, 22880, Note_on_c, 0, 67, 0
1, 22880, Note_on_c, 0, 65, 35
1, 22880, Note_on_c, 0, 69, 43
1, 23040, Tempo, 852394
1, 23040, Note_on_c, 0, 69, 0
1, 23040, Note_on_c, 0, 65, 0
1, 23040, Note_on_c, 0, 53, 0
1, 23040, Note_on_c, 0, 65, 43
1, 23040, Note_on_c, 0, 69, 51
1, 23040, Note_on_c, 0, 48, 37
1, 23040, Control_c, 0, 64, 0
1, 23153, Control_c, 0, 64, 127
1, 23200, Note_on_c, 0, 48, 0
1, 23200, Note_on_c, 0, 60, 31
1, 23360, Note_on_c, 0, 60, 0
1, 23360, Note_on_c, 0, 60, 31
1, 23520, Note_on_c, 0, 60, 0
1, 23520, Note_on_c, 0, 69, 0
1, 23520, Note_on_c, 0, 65, 0
1, 23520, Note_on_c, 0, 64, 29
1, 23520, Note_on_c, 0, 67, 35
1, 23520, Note_on_c, 0, 60, 37
1, 23533, Control_c, 0, 64, 0
1, 23680, Note_on_c, 0, 67, 0
1, 23680, Note_on_c, 0, 64, 0
1, 23680, Note_on_c, 0, 69, 36
1, 23680, Note_on_c, 0, 72, 43
1, 23767, Control_c, 0, 64, 127
1, 23800, Note_on_c, 0, 72, 0
1, 23800, Note_on_c, 0, 69, 0
1, 23840, Note_on_c, 0, 69, 36
1, 23840, Note_on_c, 0, 72, 43
1, 23960, Note_on_c, 0, 72, 0
1, 23960, Note_on_c, 0, 69, 0
1, 24000, Note_on_c, 0, 60, 0
1, 24000, Note_on_c, 0, 69, 39
1, 24000, Note_on_c, 0, 72, 47
1, 24160, Note_on_c, 0, 72, 0
1, 24160, Note_on_c, 0, 69, 0
1, 24160, Note_on_c, 0, 70, 42
1, 24160, Note_on_c, 0, 67, 35
1, 24170, Control_c, 0, 64, 0
1, 24320, Tempo, 931822
1, 24320, Note_on_c, 0, 67, 0
1, 24320, Note_on_c, 0, 70, 0
1, 24320, Note_on_c, 0, 69, 41
1, 24320, Note_on_c, 0, 65, 34
1, 24480, Tempo, 852394
1, 24480, Note_on_c, 0, 65, 0
1, 24480, Note_on_c, 0, 69, 0
1, 24480, Note_on_c, 0, 65, 43
1, 24480, Note_on_c, 0, 69, 51
1, 24480, Note_on_c, 0, 48, 37
1, 24480, Control_c, 0, 64, 0
1, 24593, Control_c, 0, 64, 127
1, 24640, Note_on_c, 0, 48, 0
1, 24640, Note_on_c, 0, 60, 31
1, 24800, Note_on_c, 0, 60, 0
1, 24800, Note_on_c, 0, 60, 31
1, 24960, Tempo, 870954
1, 24960, Note_on_c, 0, 60, 0
1, 24960, Note_on_c, 0, 69, 0
1, 24960, Note_on_c, 0, 65, 0
1, 24960, Note_on_c, 0, 64, 29
1, 24960, Note_on_c, 0, 67, 35
1, 24960, Note_on_c, 0, 60, 37
1, 24973, Control_c, 0, 64, 0
1, 25120, Note_on_c, 0, 60, 0
1, 25120, Note_on_c, 0, 62, 32
1, 25280, Note_on_c, 0, 62, 0
1, 25280, Note_on_c, 0, 60, 32
1, 25440, Note_on_c, 0, 60, 0
1, 25440, Note_on_c, 0, 67, 0
1, 25440, Note_on_c, 0, 64, 0
1, 25440, Note_on_c, 0, 58, 37
1, 25600, Note_on_c, 0, 58, 0
1, 25600, Note_on_c, 0, 57, 35
1, 25760, Note_on_c, 0, 57, 0
1, 25760, Note_on_c, 0, 55, 31
1, 25920, Tempo, 864678
1, 25920, Note_on_c, 0, 55, 0
1, 25920, Note_on_c, 0, 72, 52
1, 25920, Note_on_c, 0, 53, 24
1, 25998, Control_c, 0, 64, 127
1, 26080, Note_on_c, 0, 53, 0
1, 26080, Note_on_c, 0, 57, 20
1, 26240, Note_on_c, 0, 57, 0
1, 26240, Note_on_c, 0, 60, 20
1, 26400, Note_on_c, 0, 60, 0
1, 26400, Note_on_c, 0, 53, 24
1, 26560, Note_on_c, 0, 53, 0
1, 26560, Note_on_c, 0, 57, 20
1, 26720, Note_on_c, 0, 57, 0
1, 26720, Note_on_c, 0, 60, 20
1, 26880, Note_on_c, 0, 60, 0
1, 26880, Note_on_c, 0, 72, 0
1, 26880, Note_on_c, 0, 77, 50
1, 26880, Note_on_c, 0, 53, 24
1, 27040, Note_on_c, 0, 53, 0
1, 27040, Note_on_c, 0, 57, 20
1, 27200, Note_on_c, 0, 57, 0
1, 27200, Note_on_c, 0, 60, 20
1, 27360, Note_on_c, 0, 60, 0
1, 27360, Note_on_c, 0, 77, 0
1, 27360, Note_on_c, 0, 69, 44
1, 27360, Note_on_c, 0, 53, 24
1, 27388, Control_c, 0, 64, 0
1, 27466, Control_c, 0, 64, 127
1, 27520, Note_on_c, 0, 53, 0
1, 27520, Note_on_c, 0, 57, 20
1, 27680, Note_on_c, 0, 57, 0
1, 27680, Note_on_c, 0, 60, 20
1, 27840, Note_on_c, 0, 60, 0
1, 27840, Note_on_c, 0, 53, 24
1, 28000, Note_on_c, 0, 53, 0
1, 28000, Note_on_c, 0, 57, 20
1, 28160, Note_on_c, 0, 57, 0
1, 28160, Note_on_c, 0, 60, 20
1, 28320, Note_on_c, 0, 60, 0
1, 28320, Note_on_c, 0, 69, 0
1, 28320, Note_on_c, 0, 72, 46
1, 28320, Note_on_c, 0, 53, 24
1, 28480, Note_on_c, 0, 53, 0
1, 28480, Note_on_c, 0, 57, 20
1, 28640, Tempo, 939114
1, 28640, Note_on_c, 0, 57, 0
1, 28640, Note_on_c, 0, 60, 20
1, 28800, Tempo, 858492
1, 28800, Note_on_c, 0, 60, 0
1, 28800, Note_on_c, 0, 72, 0
1, 28800, Note_on_c, 0, 63, 54
1, 28800, Note_on_c, 0, 53, 26
1, 28800, Control_c, 0, 64, 0
1, 28899, Control_c, 0, 64, 127
1, 28960, Note_on_c, 0, 53, 0
1, 28960, Note_on_c, 0, 57, 22
1, 29120, Note_on_c, 0, 57, 0
1, 29120, Note_on_c, 0, 60, 22
1, 29280, Note_on_c, 0, 60, 0
1, 29280, Note_on_c, 0, 53, 27
1, 29440, Note_on_c, 0, 53, 0
1, 29440, Note_on_c, 0, 57, 23
1, 29600, Note_on_c, 0, 57, 0
1, 29600, Note_on_c, 0, 60, 24
1, 29718, Tempo, 890340
1, 29760, Note_on_c, 0, 60, 0
1, 29760, Note_on_c, 0, 63, 0
1, 29760, Note_on_c, 0, 63, 33
1, 29760, Note_on_c, 0, 53, 27
1, 29775, Control_c, 0, 64, 0
1, 29795, Tempo, 883783
1, 29820, Note_on_c, 0, 63, 0
1, 29820, Note_on_c, 0, 65, 30
1, 29820, Control_c, 0, 64, 127
1, 29853, Tempo, 877321
1, 29880, Note_on_c, 0, 65, 0
1, 29880, Note_on_c, 0, 63, 36
1, 29920, Note_on_c, 0, 53, 0
1, 29920, Note_on_c, 0, 57, 23
1, 29929, Tempo, 870954
1, 29940, Note_on_c, 0, 63, 0
1, 29940, Note_on_c, 0, 65, 33
1, 29987, Tempo, 864678
1, 30000, Note_on_c, 0, 65, 0
1, 30000, Note_on_c, 0, 63, 41
1, 30040, Note_on_c, 0, 63, 0
1, 30040, Note_on_c, 0, 65, 35
1, 30045, Tempo, 858492
1, 30080, Note_on_c, 0, 65, 0
1, 30080, Note_on_c, 0, 57, 0
1, 30080, Note_on_c, 0, 63, 41
1, 30080, Note_on_c, 0, 60, 25
1, 30120, Note_on_c, 0, 63, 0
1, 30120, Note_on_c, 0, 65, 38
1, 30121, Tempo, 852394
1, 30150, Note_on_c, 0, 65, 0
1, 30150, Note_on_c, 0, 63, 43
1, 30179, Tempo, 846382
1, 30180, Note_on_c, 0, 63, 0
1, 30180, Note_on_c, 0, 62, 38
1, 30210, Note_on_c, 0, 62, 0
1, 30210, Note_on_c, 0, 63, 38
1, 30237, Tempo, 840454
1, 30240, Tempo, 858492
1, 30240, Note_on_c, 0, 63, 0
1, 30240, Note_on_c, 0, 60, 0
1, 30240, Note_on_c, 0, 62, 35
1, 30240, Note_on_c, 0, 58, 33
1, 30240, Control_c, 0, 64, 0
1, 30304, Control_c, 0, 64, 127
1, 30400, Note_on_c, 0, 62, 0
1, 30400, Note_on_c, 0, 65, 34
1, 30560, Note_on_c, 0, 65, 0
1, 30560, Note_on_c, 0, 70, 37
1, 30720, Tempo, 864678
1, 30720, Note_on_c, 0, 70, 0
1, 30720, Note_on_c, 0, 74, 42
1, 30800, Note_on_c, 0, 74, 0
1, 30880, Note_on_c, 0, 74, 39
1, 30960, Note_on_c, 0, 74, 0
1, 31040, Tempo, 946522
1, 31040, Note_on_c, 0, 74, 35
1, 31120, Note_on_c, 0, 74, 0
1, 31200, Tempo, 864678
1, 31200, Note_on_c, 0, 58, 0
1, 31200, Note_on_c, 0, 74, 43
1, 31680, Tempo, 840454
1, 31680, Note_on_c, 0, 74, 0
1, 31680, Note_on_c, 0, 67, 43
1, 31680, Note_on_c, 0, 70, 51
1, 31680, Note_on_c, 0, 36, 40
1, 31680, Control_c, 0, 64, 0
1, 31683, Control_c, 0, 64, 0
1, 31760, Note_on_c, 0, 70, 0
1, 31760, Note_on_c, 0, 67, 0
1, 31760, Control_c, 0, 64, 127
1, 31840, Note_on_c, 0, 70, 48
1, 31840, Note_on_c, 0, 67, 40
1, 31920, Note_on_c, 0, 67, 0
1, 31920, Note_on_c, 0, 70, 0
1, 32000, Note_on_c, 0, 70, 50
1, 32000, Note_on_c, 0, 67, 42
1, 32080, Note_on_c, 0, 67, 0
1, 32080, Note_on_c, 0, 70, 0
1, 32160, Tempo, 852394
1, 32160, Note_on_c, 0, 65, 46
1, 32160, Note_on_c, 0, 69, 55
1, 32182, Control_c, 0, 64, 0
1, 32220, Control_c, 0, 64, 127
1, 32240, Note_on_c, 0, 69, 0
1, 32240, Note_on_c, 0, 65, 0
1, 32320, Note_on_c, 0, 69, 49
1, 32320, Note_on_c, 0, 65, 42
1, 32400, Note_on_c, 0, 65, 0
1, 32400, Note_on_c, 0, 69, 0
1, 32480, Note_on_c, 0, 69, 50
1, 32480, Note_on_c, 0, 65, 42
1, 32560, Note_on_c, 0, 65, 0
1, 32560, Note_on_c, 0, 69, 0
1, 32640, Note_on_c, 0, 36, 0
1, 32640, Note_on_c, 0, 64, 36
1, 32640, Note_on_c, 0, 67, 44
1, 32640, Note_on_c, 0, 46, 52
1, 32652, Control_c, 0, 64, 0
1, 32715, Control_c, 0, 64, 127
1, 32720, Note_on_c, 0, 67, 0
1, 32720, Note_on_c, 0, 64, 0
1, 32800, Note_on_c, 0, 64, 44
1, 32800, Note_on_c, 0, 67, 53
1, 32880, Note_on_c, 0, 67, 0
1, 32880, Note_on_c, 0, 64, 0
1, 32960, Tempo, 917571
1, 32960, Note_on_c, 0, 64, 48
1, 32960, Note_on_c, 0, 67, 58
1, 33040, Note_on_c, 0, 67, 0
1, 33040, Note_on_c, 0, 64, 0
1, 33120, Tempo, 864678
1, 33120, Note_on_c, 0, 46, 0
1, 33120, Note_on_c, 0, 72, 73
1, 33120, Note_on_c, 0, 45, 45
1, 33120, Control_c, 0, 64, 0
1, 33177, Control_c, 0, 64, 127
1, 33280, Note_on_c, 0, 45, 0
1, 33280, Note_on_c, 0, 48, 37
1, 33440, Note_on_c, 0, 48, 0
1, 33440, Note_on_c, 0, 53, 37
1, 33480, Note_on_c, 0, 72, 0
1, 33480, Note_on_c, 0, 65, 58
1, 33600, Tempo, 852394
1, 33600, Note_on_c, 0, 65, 0
1, 33600, Note_on_c, 0, 53, 0
1, 33600, Note_on_c, 0, 77, 71
1, 33600, Note_on_c, 0, 45, 36
1, 33608, Control_c, 0, 64, 0
1, 33760, Note_on_c, 0, 45, 0
1, 33760, Note_on_c, 0, 77, 0
1, 33760, Note_on_c, 0, 76, 57
1, 33760, Note_on_c, 0, 48, 31
1, 33920, Note_on_c, 0, 48, 0
1, 33920, Note_on_c, 0, 76, 0
1, 33920, Note_on_c, 0, 74, 53
1, 33920, Note_on_c, 0, 53, 31
1, 34080, Note_on_c, 0, 53, 0
1, 34080, Note_on_c, 0, 74, 0
1, 34080, Note_on_c, 0, 72, 63
1, 34080, Note_on_c, 0, 45, 36
1, 34240, Note_on_c, 0, 45, 0
1, 34240, Note_on_c, 0, 72, 0
1, 34240, Note_on_c, 0, 70, 57
1, 34240, Note_on_c, 0, 48, 31
1, 34400, Tempo, 924642
1, 34400, Note_on_c, 0, 48, 0
1, 34400, Note_on_c, 0, 70, 0
1, 34400, Note_on_c, 0, 69, 49
1, 34400, Note_on_c, 0, 53, 31
1, 34560, Tempo, 846382
1, 34560, Note_on_c, 0, 53, 0
1, 34560, Note_on_c, 0, 69, 0
1, 34560, Note_on_c, 0, 67, 65
1, 34560, Note_on_c, 0, 46, 36
1, 34568, Control_c, 0, 64, 0
1, 34608, Control_c, 0, 64, 127
1, 34720, Note_on_c, 0, 46, 0
1, 34720, Note_on_c, 0, 67, 0
1, 34720, Note_on_c, 0, 70, 57
1, 34720, Note_on_c, 0, 50, 31
1, 34880, Note_on_c, 0, 50, 0
1, 34880, Note_on_c, 0, 70, 0
1, 34880, Note_on_c, 0, 74, 53
1, 34880, Note_on_c, 0, 55, 31
1, 35040, Tempo, 864678
1, 35040, Note_on_c, 0, 55, 0
1, 35040, Note_on_c, 0, 74, 0
1, 35040, Note_on_c, 0, 65, 65
1, 35040, Note_on_c, 0, 48, 36
1, 35050, Control_c, 0, 64, 0
1, 35088, Control_c, 0, 64, 127
1, 35200, Note_on_c, 0, 48, 0
1, 35200, Note_on_c, 0, 53, 31
1, 35360, Note_on_c, 0, 53, 0
1, 35360, Note_on_c, 0, 57, 31
1, 35440, Tempo, 917571
1, 35520, Note_on_c, 0, 57, 0
1, 35520, Note_on_c, 0, 65, 0
1, 35520, Note_on_c, 0, 67, 42
1, 35520, Note_on_c, 0, 48, 31
1, 35535, Control_c, 0, 64, 0
1, 35555, Tempo, 910609
1, 35580, Note_on_c, 0, 67, 0
1, 35580, Note_on_c, 0, 69, 39
1, 35580, Control_c, 0, 64, 127
1, 35640, Note_on_c, 0, 69, 0
1, 35640, Note_on_c, 0, 67, 45
1, 35670, Tempo, 903751
1, 35680, Note_on_c, 0, 48, 0
1, 35680, Note_on_c, 0, 52, 26
1, 35700, Note_on_c, 0, 67, 0
1, 35700, Note_on_c, 0, 69, 41
1, 35760, Note_on_c, 0, 69, 0
1, 35760, Note_on_c, 0, 67, 50
1, 35766, Tempo, 896995
1, 35800, Note_on_c, 0, 67, 0
1, 35800, Note_on_c, 0, 69, 42
1, 35840, Note_on_c, 0, 69, 0
1, 35840, Note_on_c, 0, 52, 0
1, 35840, Note_on_c, 0, 67, 49
1, 35840, Note_on_c, 0, 55, 26
1, 35880, Note_on_c, 0, 67, 0
1, 35880, Note_on_c, 0, 69, 45
1, 35881, Tempo, 890340
1, 35910, Note_on_c, 0, 69, 0
1, 35910, Note_on_c, 0, 67, 50
1, 35940, Note_on_c, 0, 67, 0
1, 35940, Note_on_c, 0, 65, 44
1, 35970, Note_on_c, 0, 65, 0
1, 35970, Note_on_c, 0, 67, 44
1, 35977, Tempo, 883783
1, 36000, Tempo, 910609
1, 36000, Note_on_c, 0, 67, 0
1, 36000, Note_on_c, 0, 55, 0
1, 36000, Note_on_c, 0, 65, 63
1, 36000, Note_on_c, 0, 41, 36
1, 36000, Control_c, 0, 64, 0
1, 36064, Control_c, 0, 64, 127
1, 36160, Note_on_c, 0, 41, 0
1, 36160, Note_on_c, 0, 45, 29
1, 36320, Note_on_c, 0, 45, 0
1, 36320, Note_on_c, 0, 48, 29
1, 36480, Tempo, 1001837
1, 36480, Note_on_c, 0, 48, 0
1, 36480, Note_on_c, 0, 53, 36
1, 36640, Tempo, 1093095
1, 36640, Note_on_c, 0, 53, 0
1, 36640, Note_on_c, 0, 48, 36
1, 36800, Tempo, 1604707
1, 36800, Note_on_c, 0, 48, 0
1, 36800, Note_on_c, 0, 45, 36
1, 36960, Note_on_c, 0, 45, 0
1, 36960, Note_on_c, 0, 41, 36
1, 37440, Note_on_c, 0, 41, 0
1, 37440, Note_on_c, 0, 65, 0
1, 38400, Control_c, 0, 64, 0
1, 38400, End_track
0, 0, End_of_file
