0, 0, Header, 0, 1, 480
1, 0, Start_track
1, 0, Title_t, "Debussy: Childrens Corner 6"
1, 0, Copyright_t, "Copyright © 2011 by Bernd Krueger"
1, 0, Text_t, "Bernd Krueger"
1, 0, Text_t, "Allegro giusto"
1, 0, Text_t, "Erstellt: 14.7.2011\012"
1, 0, Text_t, "Dauer: 2:23 Minuten\012"
1, 0, Time_signature, 2, 2, 24, 8
1, 0, Key_signature, -3, "major"
1, 0, Tempo, 531726
1, 0, Program_c, 0, 0
1, 0, Note_on_c, 0, 82, 80
1, 0, Program_c, 0, 0
1, 0, Note_on_c, 0, 70, 68
1, 0, Program_c, 0, 0
1, 120, Note_on_c, 0, 70, 0
1, 120, Note_on_c, 0, 82, 0
1, 120, Note_on_c, 0, 80, 74
1, 120, Note_on_c, 0, 68, 62
1, 240, Note_on_c, 0, 68, 0
1, 240, Note_on_c, 0, 80, 0
1, 360, Note_on_c, 0, 82, 74
1, 360, Note_on_c, 0, 70, 62
1, 480, Tempo, 559701
1, 480, Note_on_c, 0, 70, 0
1, 480, Note_on_c, 0, 82, 0
1, 480, Note_on_c, 0, 77, 76
1, 480, Note_on_c, 0, 65, 64
1, 600, Note_on_c, 0, 65, 0
1, 600, Note_on_c, 0, 77, 0
1, 720, Tempo, 531726
1, 720, Note_on_c, 0, 82, 80
1, 720, Note_on_c, 0, 70, 68
1, 810, Note_on_c, 0, 70, 0
1, 810, Note_on_c, 0, 82, 0
1, 960, Note_on_c, 0, 80, 80
1, 960, Note_on_c, 0, 68, 68
1, 1080, Note_on_c, 0, 68, 0
1, 1080, Note_on_c, 0, 80, 0
1, 1080, Note_on_c, 0, 77, 80
1, 1080, Note_on_c, 0, 65, 68
1, 1200, Tempo, 554836
1, 1200, Note_on_c, 0, 65, 0
1, 1200, Note_on_c, 0, 77, 0
1, 1320, Note_on_c, 0, 75, 74
1, 1320, Note_on_c, 0, 63, 62
1, 1440, Tempo, 529521
1, 1440, Note_on_c, 0, 63, 0
1, 1440, Note_on_c, 0, 75, 0
1, 1440, Note_on_c, 0, 71, 80
1, 1440, Note_on_c, 0, 59, 68
1, 1920, Note_on_c, 0, 59, 0
1, 1920, Note_on_c, 0, 71, 0
1, 2040, Tempo, 518762
1, 2040, Note_on_c, 0, 68, 80
1, 2040, Note_on_c, 0, 56, 65
1, 2160, Note_on_c, 0, 56, 0
1, 2160, Note_on_c, 0, 68, 0
1, 2160, Note_on_c, 0, 65, 79
1, 2160, Note_on_c, 0, 53, 65
1, 2167, Control_c, 0, 64, 127
1, 2280, Note_on_c, 0, 53, 0
1, 2280, Note_on_c, 0, 65, 0
1, 2280, Note_on_c, 0, 63, 84
1, 2280, Note_on_c, 0, 51, 67
1, 2400, Tempo, 529521
1, 2400, Note_on_c, 0, 51, 0
1, 2400, Note_on_c, 0, 63, 0
1, 2400, Note_on_c, 0, 59, 86
1, 2400, Note_on_c, 0, 47, 71
1, 2420, Control_c, 0, 64, 0
1, 2880, Note_on_c, 0, 47, 0
1, 2880, Note_on_c, 0, 59, 0
1, 3000, Tempo, 520879
1, 3000, Note_on_c, 0, 56, 80
1, 3000, Note_on_c, 0, 44, 65
1, 3120, Note_on_c, 0, 44, 0
1, 3120, Note_on_c, 0, 56, 0
1, 3120, Note_on_c, 0, 53, 79
1, 3120, Note_on_c, 0, 41, 65
1, 3148, Control_c, 0, 64, 127
1, 3240, Note_on_c, 0, 41, 0
1, 3240, Note_on_c, 0, 53, 0
1, 3240, Note_on_c, 0, 51, 84
1, 3240, Note_on_c, 0, 39, 67
1, 3360, Tempo, 557258
1, 3360, Note_on_c, 0, 39, 0
1, 3360, Note_on_c, 0, 51, 0
1, 3360, Note_on_c, 0, 47, 86
1, 3360, Note_on_c, 0, 35, 71
1, 3375, Control_c, 0, 64, 0
1, 3600, Tempo, 525164
1, 3600, Note_on_c, 0, 35, 0
1, 3600, Note_on_c, 0, 47, 0
1, 3600, Note_on_c, 0, 55, 97
1, 3600, Note_on_c, 0, 50, 82
1, 3600, Note_on_c, 0, 46, 78
1, 3600, Note_on_c, 0, 34, 66
1, 3840, Note_on_c, 0, 34, 0
1, 3840, Note_on_c, 0, 55, 0
1, 3840, Note_on_c, 0, 50, 0
1, 3840, Note_on_c, 0, 46, 0
1, 4800, Tempo, 527333
1, 4800, Note_on_c, 0, 39, 40
1, 4800, Note_on_c, 0, 46, 40
1, 4890, Note_on_c, 0, 46, 0
1, 4890, Note_on_c, 0, 39, 0
1, 5040, Note_on_c, 0, 51, 40
1, 5040, Note_on_c, 0, 58, 40
1, 5040, Note_on_c, 0, 55, 33
1, 5040, Note_on_c, 0, 53, 33
1, 5130, Note_on_c, 0, 53, 0
1, 5130, Note_on_c, 0, 51, 0
1, 5130, Note_on_c, 0, 58, 0
1, 5130, Note_on_c, 0, 55, 0
1, 5280, Tempo, 537201
1, 5280, Note_on_c, 0, 39, 40
1, 5280, Note_on_c, 0, 46, 40
1, 5370, Note_on_c, 0, 46, 0
1, 5370, Note_on_c, 0, 39, 0
1, 5520, Tempo, 462642
1, 5520, Note_on_c, 0, 58, 57
1, 5520, Note_on_c, 0, 51, 50
1, 5520, Note_on_c, 0, 55, 35
1, 5520, Note_on_c, 0, 53, 35
1, 5538, Control_c, 0, 64, 127
1, 5580, Note_on_c, 0, 51, 0
1, 5580, Note_on_c, 0, 58, 0
1, 5610, Note_on_c, 0, 55, 0
1, 5610, Note_on_c, 0, 53, 0
1, 5640, Note_on_c, 0, 58, 64
1, 5640, Note_on_c, 0, 51, 56
1, 5700, Note_on_c, 0, 51, 0
1, 5700, Note_on_c, 0, 58, 0
1, 5760, Tempo, 527333
1, 5760, Note_on_c, 0, 39, 40
1, 5760, Note_on_c, 0, 46, 40
1, 5760, Control_c, 0, 64, 0
1, 5850, Note_on_c, 0, 46, 0
1, 5850, Note_on_c, 0, 39, 0
1, 6000, Note_on_c, 0, 51, 40
1, 6000, Note_on_c, 0, 58, 40
1, 6000, Note_on_c, 0, 55, 33
1, 6000, Note_on_c, 0, 53, 33
1, 6090, Note_on_c, 0, 53, 0
1, 6090, Note_on_c, 0, 51, 0
1, 6090, Note_on_c, 0, 58, 0
1, 6090, Note_on_c, 0, 55, 0
1, 6240, Note_on_c, 0, 39, 40
1, 6240, Note_on_c, 0, 46, 40
1, 6330, Note_on_c, 0, 46, 0
1, 6330, Note_on_c, 0, 39, 0
1, 6480, Note_on_c, 0, 51, 40
1, 6480, Note_on_c, 0, 58, 40
1, 6480, Note_on_c, 0, 55, 33
1, 6480, Note_on_c, 0, 53, 33
1, 6570, Note_on_c, 0, 53, 0
1, 6570, Note_on_c, 0, 51, 0
1, 6570, Note_on_c, 0, 58, 0
1, 6570, Note_on_c, 0, 55, 0
1, 6720, Tempo, 539617
1, 6720, Note_on_c, 0, 39, 40
1, 6720, Note_on_c, 0, 46, 40
1, 6810, Note_on_c, 0, 46, 0
1, 6810, Note_on_c, 0, 39, 0
1, 6960, Tempo, 460865
1, 6960, Note_on_c, 0, 58, 57
1, 6960, Note_on_c, 0, 51, 50
1, 6960, Note_on_c, 0, 55, 35
1, 6960, Note_on_c, 0, 53, 35
1, 6985, Control_c, 0, 64, 127
1, 7020, Note_on_c, 0, 51, 0
1, 7020, Note_on_c, 0, 58, 0
1, 7050, Note_on_c, 0, 55, 0
1, 7050, Note_on_c, 0, 53, 0
1, 7080, Note_on_c, 0, 58, 64
1, 7080, Note_on_c, 0, 51, 56
1, 7140, Note_on_c, 0, 51, 0
1, 7140, Note_on_c, 0, 58, 0
1, 7200, Tempo, 529521
1, 7200, Note_on_c, 0, 39, 40
1, 7200, Note_on_c, 0, 46, 40
1, 7207, Control_c, 0, 64, 0
1, 7290, Note_on_c, 0, 46, 0
1, 7290, Note_on_c, 0, 39, 0
1, 7440, Note_on_c, 0, 51, 40
1, 7440, Note_on_c, 0, 58, 40
1, 7440, Note_on_c, 0, 55, 33
1, 7440, Note_on_c, 0, 53, 33
1, 7530, Note_on_c, 0, 53, 0
1, 7530, Note_on_c, 0, 51, 0
1, 7530, Note_on_c, 0, 58, 0
1, 7530, Note_on_c, 0, 55, 0
1, 7680, Note_on_c, 0, 39, 34
1, 7680, Note_on_c, 0, 46, 34
1, 7770, Note_on_c, 0, 46, 0
1, 7770, Note_on_c, 0, 39, 0
1, 7920, Note_on_c, 0, 51, 32
1, 7920, Note_on_c, 0, 58, 32
1, 7920, Note_on_c, 0, 55, 27
1, 7920, Note_on_c, 0, 53, 27
1, 8010, Note_on_c, 0, 53, 0
1, 8010, Note_on_c, 0, 51, 0
1, 8010, Note_on_c, 0, 58, 0
1, 8010, Note_on_c, 0, 55, 0
1, 8160, Note_on_c, 0, 39, 31
1, 8160, Note_on_c, 0, 46, 31
1, 8250, Note_on_c, 0, 46, 0
1, 8250, Note_on_c, 0, 39, 0
1, 8400, Tempo, 547695
1, 8400, Note_on_c, 0, 51, 29
1, 8400, Note_on_c, 0, 58, 29
1, 8400, Note_on_c, 0, 55, 24
1, 8400, Note_on_c, 0, 53, 24
1, 8490, Note_on_c, 0, 53, 0
1, 8490, Note_on_c, 0, 51, 0
1, 8490, Note_on_c, 0, 58, 0
1, 8490, Note_on_c, 0, 55, 0
1, 8640, Tempo, 512514
1, 8640, Note_on_c, 0, 70, 80
1, 8640, Note_on_c, 0, 39, 40
1, 8640, Note_on_c, 0, 46, 40
1, 8640, Control_c, 0, 64, 127
1, 8730, Note_on_c, 0, 46, 0
1, 8730, Note_on_c, 0, 39, 0
1, 8760, Note_on_c, 0, 70, 0
1, 8760, Note_on_c, 0, 68, 74
1, 8767, Control_c, 0, 64, 0
1, 8880, Tempo, 529521
1, 8880, Note_on_c, 0, 68, 0
1, 8880, Note_on_c, 0, 59, 45
1, 8880, Note_on_c, 0, 63, 45
1, 8880, Note_on_c, 0, 56, 33
1, 8880, Note_on_c, 0, 53, 33
1, 8970, Note_on_c, 0, 53, 0
1, 8970, Note_on_c, 0, 56, 0
1, 9000, Note_on_c, 0, 63, 0
1, 9000, Note_on_c, 0, 59, 0
1, 9000, Note_on_c, 0, 70, 74
1, 9017, Control_c, 0, 64, 127
1, 9120, Note_on_c, 0, 70, 0
1, 9120, Note_on_c, 0, 65, 76
1, 9120, Note_on_c, 0, 39, 40
1, 9120, Note_on_c, 0, 46, 40
1, 9132, Control_c, 0, 64, 0
1, 9210, Note_on_c, 0, 46, 0
1, 9210, Note_on_c, 0, 39, 0
1, 9240, Note_on_c, 0, 65, 0
1, 9360, Note_on_c, 0, 59, 45
1, 9360, Note_on_c, 0, 63, 45
1, 9360, Note_on_c, 0, 70, 80
1, 9360, Note_on_c, 0, 56, 35
1, 9360, Note_on_c, 0, 53, 35
1, 9450, Note_on_c, 0, 53, 0
1, 9450, Note_on_c, 0, 70, 0
1, 9450, Note_on_c, 0, 56, 0
1, 9480, Note_on_c, 0, 63, 0
1, 9480, Note_on_c, 0, 59, 0
1, 9600, Tempo, 512514
1, 9600, Note_on_c, 0, 68, 80
1, 9600, Note_on_c, 0, 39, 40
1, 9600, Note_on_c, 0, 46, 40
1, 9628, Control_c, 0, 64, 127
1, 9690, Note_on_c, 0, 46, 0
1, 9690, Note_on_c, 0, 39, 0
1, 9720, Note_on_c, 0, 68, 0
1, 9720, Note_on_c, 0, 65, 80
1, 9727, Control_c, 0, 64, 0
1, 9840, Tempo, 527333
1, 9840, Note_on_c, 0, 65, 0
1, 9840, Note_on_c, 0, 59, 45
1, 9840, Note_on_c, 0, 56, 33
1, 9840, Note_on_c, 0, 53, 33
1, 9930, Note_on_c, 0, 53, 0
1, 9930, Note_on_c, 0, 56, 0
1, 9930, Note_on_c, 0, 59, 0
1, 9960, Note_on_c, 0, 63, 74
1, 9999, Control_c, 0, 64, 127
1, 10080, Tempo, 550055
1, 10080, Note_on_c, 0, 63, 0
1, 10080, Note_on_c, 0, 59, 80
1, 10080, Note_on_c, 0, 39, 40
1, 10080, Note_on_c, 0, 46, 40
1, 10133, Control_c, 0, 64, 0
1, 10170, Note_on_c, 0, 46, 0
1, 10170, Note_on_c, 0, 39, 0
1, 10200, Note_on_c, 0, 59, 0
1, 10320, Tempo, 527333
1, 10320, Note_on_c, 0, 59, 72
1, 10320, Note_on_c, 0, 63, 80
1, 10320, Note_on_c, 0, 56, 33
1, 10320, Note_on_c, 0, 53, 33
1, 10380, Note_on_c, 0, 63, 0
1, 10380, Note_on_c, 0, 59, 0
1, 10410, Note_on_c, 0, 56, 0
1, 10410, Note_on_c, 0, 53, 0
1, 10560, Tempo, 550055
1, 10560, Note_on_c, 0, 58, 80
1, 10560, Note_on_c, 0, 39, 34
1, 10560, Note_on_c, 0, 46, 40
1, 10560, Control_c, 0, 64, 127
1, 10650, Note_on_c, 0, 46, 0
1, 10650, Note_on_c, 0, 39, 0
1, 10650, Note_on_c, 0, 58, 0
1, 10680, Note_on_c, 0, 58, 74
1, 10800, Tempo, 533950
1, 10800, Note_on_c, 0, 58, 0
1, 10800, Note_on_c, 0, 55, 33
1, 10800, Note_on_c, 0, 53, 28
1, 10890, Note_on_c, 0, 53, 0
1, 10890, Note_on_c, 0, 55, 0
1, 10920, Note_on_c, 0, 60, 74
1, 11040, Tempo, 527333
1, 11040, Note_on_c, 0, 60, 0
1, 11040, Note_on_c, 0, 58, 76
1, 11040, Note_on_c, 0, 46, 47
1, 11040, Note_on_c, 0, 39, 39
1, 11053, Control_c, 0, 64, 0
1, 11130, Note_on_c, 0, 39, 0
1, 11130, Note_on_c, 0, 46, 0
1, 11160, Note_on_c, 0, 58, 0
1, 11250, Note_on_c, 0, 63, 68
1, 11280, Tempo, 564653
1, 11280, Note_on_c, 0, 70, 80
1, 11280, Note_on_c, 0, 53, 34
1, 11280, Note_on_c, 0, 55, 41
1, 11370, Note_on_c, 0, 55, 0
1, 11370, Note_on_c, 0, 63, 0
1, 11370, Note_on_c, 0, 70, 0
1, 11370, Note_on_c, 0, 53, 0
1, 11520, Tempo, 545355
1, 11520, Note_on_c, 0, 58, 80
1, 11520, Note_on_c, 0, 46, 50
1, 11520, Note_on_c, 0, 39, 42
1, 11610, Note_on_c, 0, 39, 0
1, 11610, Note_on_c, 0, 46, 0
1, 11760, Note_on_c, 0, 53, 34
1, 11760, Note_on_c, 0, 55, 40
1, 11850, Note_on_c, 0, 55, 0
1, 11850, Note_on_c, 0, 53, 0
1, 12000, Note_on_c, 0, 46, 43
1, 12000, Note_on_c, 0, 39, 36
1, 12090, Note_on_c, 0, 39, 0
1, 12090, Note_on_c, 0, 46, 0
1, 12240, Note_on_c, 0, 53, 29
1, 12240, Note_on_c, 0, 55, 35
1, 12330, Note_on_c, 0, 55, 0
1, 12330, Note_on_c, 0, 53, 0
1, 12480, Tempo, 512514
1, 12480, Note_on_c, 0, 58, 0
1, 12480, Note_on_c, 0, 58, 64
1, 12480, Note_on_c, 0, 39, 40
1, 12480, Note_on_c, 0, 46, 40
1, 12480, Control_c, 0, 64, 127
1, 12570, Note_on_c, 0, 46, 0
1, 12570, Note_on_c, 0, 39, 0
1, 12600, Note_on_c, 0, 58, 0
1, 12600, Note_on_c, 0, 56, 57
1, 12607, Control_c, 0, 64, 0
1, 12720, Tempo, 529521
1, 12720, Note_on_c, 0, 56, 0
1, 12720, Note_on_c, 0, 53, 33
1, 12720, Note_on_c, 0, 51, 33
1, 12810, Note_on_c, 0, 51, 0
1, 12810, Note_on_c, 0, 53, 0
1, 12840, Note_on_c, 0, 58, 56
1, 12857, Control_c, 0, 64, 127
1, 12960, Note_on_c, 0, 58, 0
1, 12960, Note_on_c, 0, 60, 64
1, 12960, Note_on_c, 0, 39, 40
1, 12960, Note_on_c, 0, 46, 40
1, 12972, Control_c, 0, 64, 0
1, 13050, Note_on_c, 0, 46, 0
1, 13050, Note_on_c, 0, 39, 0
1, 13080, Note_on_c, 0, 60, 0
1, 13200, Tempo, 550055
1, 13200, Note_on_c, 0, 56, 53
1, 13200, Note_on_c, 0, 53, 35
1, 13200, Note_on_c, 0, 51, 35
1, 13290, Note_on_c, 0, 51, 0
1, 13290, Note_on_c, 0, 53, 0
1, 13290, Note_on_c, 0, 56, 0
1, 13440, Tempo, 512514
1, 13440, Note_on_c, 0, 58, 64
1, 13440, Note_on_c, 0, 39, 40
1, 13440, Note_on_c, 0, 46, 40
1, 13440, Control_c, 0, 64, 127
1, 13530, Note_on_c, 0, 46, 0
1, 13530, Note_on_c, 0, 39, 0
1, 13560, Note_on_c, 0, 58, 0
1, 13560, Note_on_c, 0, 56, 57
1, 13567, Control_c, 0, 64, 0
1, 13680, Tempo, 529521
1, 13680, Note_on_c, 0, 56, 0
1, 13680, Note_on_c, 0, 53, 33
1, 13680, Note_on_c, 0, 51, 33
1, 13770, Note_on_c, 0, 51, 0
1, 13770, Note_on_c, 0, 53, 0
1, 13800, Note_on_c, 0, 58, 56
1, 13817, Control_c, 0, 64, 127
1, 13920, Note_on_c, 0, 58, 0
1, 13920, Note_on_c, 0, 59, 64
1, 13920, Note_on_c, 0, 39, 40
1, 13920, Note_on_c, 0, 46, 40
1, 13932, Control_c, 0, 64, 0
1, 14010, Note_on_c, 0, 46, 0
1, 14010, Note_on_c, 0, 39, 0
1, 14040, Note_on_c, 0, 59, 0
1, 14160, Tempo, 550055
1, 14160, Note_on_c, 0, 56, 53
1, 14160, Note_on_c, 0, 53, 35
1, 14160, Note_on_c, 0, 51, 35
1, 14250, Note_on_c, 0, 51, 0
1, 14250, Note_on_c, 0, 53, 0
1, 14250, Note_on_c, 0, 56, 0
1, 14400, Tempo, 512514
1, 14400, Note_on_c, 0, 58, 64
1, 14400, Note_on_c, 0, 46, 54
1, 14436, Control_c, 0, 64, 127
1, 14520, Note_on_c, 0, 46, 0
1, 14520, Note_on_c, 0, 58, 0
1, 14520, Note_on_c, 0, 56, 59
1, 14520, Note_on_c, 0, 44, 50
1, 14605, Control_c, 0, 64, 0
1, 14640, Tempo, 529521
1, 14640, Note_on_c, 0, 44, 0
1, 14640, Note_on_c, 0, 56, 0
1, 14760, Note_on_c, 0, 53, 59
1, 14760, Note_on_c, 0, 41, 50
1, 14850, Note_on_c, 0, 41, 0
1, 14850, Note_on_c, 0, 53, 0
1, 14873, Control_c, 0, 64, 127
1, 14880, Note_on_c, 0, 51, 61
1, 14880, Note_on_c, 0, 39, 51
1, 14986, Control_c, 0, 64, 0
1, 15000, Note_on_c, 0, 39, 0
1, 15000, Note_on_c, 0, 51, 0
1, 15120, Note_on_c, 0, 50, 65
1, 15120, Note_on_c, 0, 38, 55
1, 15240, Note_on_c, 0, 38, 0
1, 15240, Note_on_c, 0, 50, 0
1, 15360, Tempo, 543036
1, 15360, Note_on_c, 0, 48, 71
1, 15360, Note_on_c, 0, 36, 60
1, 15367, Control_c, 0, 64, 127
1, 15480, Note_on_c, 0, 36, 0
1, 15480, Note_on_c, 0, 48, 0
1, 15480, Control_c, 0, 64, 0
1, 15600, Tempo, 557258
1, 15600, Note_on_c, 0, 43, 68
1, 15600, Note_on_c, 0, 31, 57
1, 15643, Control_c, 0, 64, 127
1, 15720, Note_on_c, 0, 31, 0
1, 15720, Note_on_c, 0, 43, 0
1, 15741, Control_c, 0, 64, 0
1, 15840, Tempo, 569746
1, 15840, Note_on_c, 0, 48, 76
1, 15840, Note_on_c, 0, 36, 64
1, 15918, Control_c, 0, 64, 127
1, 15960, Note_on_c, 0, 36, 0
1, 15960, Note_on_c, 0, 48, 0
1, 15996, Control_c, 0, 64, 0
1, 16080, Note_on_c, 0, 50, 80
1, 16080, Note_on_c, 0, 38, 68
1, 16144, Control_c, 0, 64, 127
1, 16200, Note_on_c, 0, 38, 0
1, 16200, Note_on_c, 0, 50, 0
1, 16257, Control_c, 0, 64, 0
1, 16320, Tempo, 512514
1, 16320, Note_on_c, 0, 70, 80
1, 16320, Note_on_c, 0, 39, 40
1, 16320, Note_on_c, 0, 46, 40
1, 16320, Control_c, 0, 64, 127
1, 16410, Note_on_c, 0, 46, 0
1, 16410, Note_on_c, 0, 39, 0
1, 16440, Note_on_c, 0, 70, 0
1, 16440, Note_on_c, 0, 68, 74
1, 16447, Control_c, 0, 64, 0
1, 16560, Tempo, 529521
1, 16560, Note_on_c, 0, 68, 0
1, 16560, Note_on_c, 0, 59, 45
1, 16560, Note_on_c, 0, 63, 45
1, 16560, Note_on_c, 0, 56, 33
1, 16560, Note_on_c, 0, 53, 33
1, 16650, Note_on_c, 0, 53, 0
1, 16650, Note_on_c, 0, 56, 0
1, 16680, Note_on_c, 0, 63, 0
1, 16680, Note_on_c, 0, 59, 0
1, 16680, Note_on_c, 0, 70, 74
1, 16697, Control_c, 0, 64, 127
1, 16800, Note_on_c, 0, 70, 0
1, 16800, Note_on_c, 0, 65, 76
1, 16800, Note_on_c, 0, 39, 40
1, 16800, Note_on_c, 0, 46, 40
1, 16812, Control_c, 0, 64, 0
1, 16890, Note_on_c, 0, 46, 0
1, 16890, Note_on_c, 0, 39, 0
1, 16920, Note_on_c, 0, 65, 0
1, 17040, Note_on_c, 0, 59, 45
1, 17040, Note_on_c, 0, 63, 45
1, 17040, Note_on_c, 0, 70, 80
1, 17040, Note_on_c, 0, 56, 35
1, 17040, Note_on_c, 0, 53, 35
1, 17130, Note_on_c, 0, 53, 0
1, 17130, Note_on_c, 0, 70, 0
1, 17130, Note_on_c, 0, 56, 0
1, 17160, Note_on_c, 0, 63, 0
1, 17160, Note_on_c, 0, 59, 0
1, 17280, Tempo, 512514
1, 17280, Note_on_c, 0, 68, 80
1, 17280, Note_on_c, 0, 39, 40
1, 17280, Note_on_c, 0, 46, 40
1, 17308, Control_c, 0, 64, 127
1, 17370, Note_on_c, 0, 46, 0
1, 17370, Note_on_c, 0, 39, 0
1, 17400, Note_on_c, 0, 68, 0
1, 17400, Note_on_c, 0, 65, 80
1, 17407, Control_c, 0, 64, 0
1, 17520, Tempo, 527333
1, 17520, Note_on_c, 0, 65, 0
1, 17520, Note_on_c, 0, 59, 45
1, 17520, Note_on_c, 0, 56, 33
1, 17520, Note_on_c, 0, 53, 33
1, 17610, Note_on_c, 0, 53, 0
1, 17610, Note_on_c, 0, 56, 0
1, 17610, Note_on_c, 0, 59, 0
1, 17640, Note_on_c, 0, 63, 74
1, 17679, Control_c, 0, 64, 127
1, 17760, Tempo, 550055
1, 17760, Note_on_c, 0, 63, 0
1, 17760, Note_on_c, 0, 59, 80
1, 17760, Note_on_c, 0, 39, 40
1, 17760, Note_on_c, 0, 46, 40
1, 17813, Control_c, 0, 64, 0
1, 17850, Note_on_c, 0, 46, 0
1, 17850, Note_on_c, 0, 39, 0
1, 17880, Note_on_c, 0, 59, 0
1, 18000, Tempo, 527333
1, 18000, Note_on_c, 0, 59, 72
1, 18000, Note_on_c, 0, 63, 80
1, 18000, Note_on_c, 0, 56, 33
1, 18000, Note_on_c, 0, 53, 33
1, 18060, Note_on_c, 0, 63, 0
1, 18060, Note_on_c, 0, 59, 0
1, 18090, Note_on_c, 0, 56, 0
1, 18090, Note_on_c, 0, 53, 0
1, 18240, Tempo, 550055
1, 18240, Note_on_c, 0, 58, 80
1, 18240, Note_on_c, 0, 39, 34
1, 18240, Note_on_c, 0, 46, 40
1, 18240, Control_c, 0, 64, 127
1, 18330, Note_on_c, 0, 46, 0
1, 18330, Note_on_c, 0, 39, 0
1, 18330, Note_on_c, 0, 58, 0
1, 18360, Note_on_c, 0, 58, 74
1, 18480, Tempo, 533950
1, 18480, Note_on_c, 0, 58, 0
1, 18480, Note_on_c, 0, 55, 33
1, 18480, Note_on_c, 0, 53, 28
1, 18570, Note_on_c, 0, 53, 0
1, 18570, Note_on_c, 0, 55, 0
1, 18600, Note_on_c, 0, 60, 74
1, 18720, Tempo, 527333
1, 18720, Note_on_c, 0, 60, 0
1, 18720, Note_on_c, 0, 58, 76
1, 18720, Note_on_c, 0, 46, 47
1, 18720, Note_on_c, 0, 39, 39
1, 18733, Control_c, 0, 64, 0
1, 18810, Note_on_c, 0, 39, 0
1, 18810, Note_on_c, 0, 46, 0
1, 18840, Note_on_c, 0, 58, 0
1, 18930, Note_on_c, 0, 63, 68
1, 18960, Tempo, 564653
1, 18960, Note_on_c, 0, 70, 80
1, 18960, Note_on_c, 0, 53, 34
1, 18960, Note_on_c, 0, 55, 41
1, 19050, Note_on_c, 0, 55, 0
1, 19050, Note_on_c, 0, 63, 0
1, 19050, Note_on_c, 0, 70, 0
1, 19050, Note_on_c, 0, 53, 0
1, 19200, Tempo, 545355
1, 19200, Note_on_c, 0, 58, 80
1, 19200, Note_on_c, 0, 46, 50
1, 19200, Note_on_c, 0, 39, 42
1, 19290, Note_on_c, 0, 39, 0
1, 19290, Note_on_c, 0, 46, 0
1, 19440, Note_on_c, 0, 53, 34
1, 19440, Note_on_c, 0, 55, 40
1, 19530, Note_on_c, 0, 55, 0
1, 19530, Note_on_c, 0, 53, 0
1, 19680, Note_on_c, 0, 46, 43
1, 19680, Note_on_c, 0, 39, 36
1, 19770, Note_on_c, 0, 39, 0
1, 19770, Note_on_c, 0, 46, 0
1, 19920, Note_on_c, 0, 53, 29
1, 19920, Note_on_c, 0, 55, 35
1, 20010, Note_on_c, 0, 55, 0
1, 20010, Note_on_c, 0, 53, 0
1, 20160, Tempo, 512514
1, 20160, Note_on_c, 0, 58, 0
1, 20160, Note_on_c, 0, 58, 55
1, 20160, Note_on_c, 0, 42, 34
1, 20160, Note_on_c, 0, 49, 40
1, 20160, Control_c, 0, 64, 127
1, 20250, Note_on_c, 0, 49, 0
1, 20250, Note_on_c, 0, 42, 0
1, 20250, Note_on_c, 0, 58, 0
1, 20280, Note_on_c, 0, 58, 49
1, 20287, Control_c, 0, 64, 0
1, 20400, Tempo, 529521
1, 20400, Note_on_c, 0, 58, 0
1, 20400, Note_on_c, 0, 49, 28
1, 20400, Note_on_c, 0, 56, 33
1, 20400, Note_on_c, 0, 54, 28
1, 20460, Note_on_c, 0, 49, 0
1, 20490, Note_on_c, 0, 54, 0
1, 20490, Note_on_c, 0, 56, 0
1, 20520, Note_on_c, 0, 60, 53
1, 20537, Control_c, 0, 64, 127
1, 20640, Note_on_c, 0, 60, 0
1, 20640, Note_on_c, 0, 58, 61
1, 20640, Note_on_c, 0, 42, 34
1, 20640, Note_on_c, 0, 49, 40
1, 20652, Control_c, 0, 64, 0
1, 20730, Note_on_c, 0, 49, 0
1, 20730, Note_on_c, 0, 42, 0
1, 20760, Note_on_c, 0, 58, 0
1, 20880, Tempo, 550055
1, 20880, Note_on_c, 0, 61, 53
1, 20880, Note_on_c, 0, 49, 29
1, 20880, Note_on_c, 0, 57, 35
1, 20880, Note_on_c, 0, 54, 29
1, 20940, Note_on_c, 0, 49, 0
1, 20970, Note_on_c, 0, 61, 0
1, 20970, Note_on_c, 0, 57, 0
1, 20970, Note_on_c, 0, 54, 0
1, 21120, Tempo, 512514
1, 21120, Note_on_c, 0, 63, 64
1, 21120, Note_on_c, 0, 49, 43
1, 21120, Note_on_c, 0, 42, 36
1, 21210, Note_on_c, 0, 42, 0
1, 21210, Note_on_c, 0, 49, 0
1, 21210, Note_on_c, 0, 63, 0
1, 21360, Tempo, 529521
1, 21360, Note_on_c, 0, 65, 61
1, 21360, Note_on_c, 0, 54, 31
1, 21360, Note_on_c, 0, 58, 37
1, 21360, Note_on_c, 0, 49, 31
1, 21420, Note_on_c, 0, 49, 0
1, 21450, Note_on_c, 0, 65, 0
1, 21450, Note_on_c, 0, 54, 0
1, 21450, Note_on_c, 0, 58, 0
1, 21600, Note_on_c, 0, 63, 65
1, 21600, Note_on_c, 0, 49, 45
1, 21600, Note_on_c, 0, 42, 38
1, 21690, Note_on_c, 0, 42, 0
1, 21690, Note_on_c, 0, 49, 0
1, 21690, Note_on_c, 0, 63, 0
1, 21840, Note_on_c, 0, 66, 71
1, 21840, Note_on_c, 0, 54, 35
1, 21840, Note_on_c, 0, 59, 42
1, 21840, Note_on_c, 0, 49, 35
1, 21900, Note_on_c, 0, 49, 0
1, 21930, Note_on_c, 0, 66, 0
1, 21930, Note_on_c, 0, 54, 0
1, 21930, Note_on_c, 0, 59, 0
1, 22080, Tempo, 550055
1, 22080, Note_on_c, 0, 65, 80
1, 22080, Control_c, 0, 64, 127
1, 22170, Note_on_c, 0, 65, 0
1, 22200, Note_on_c, 0, 65, 74
1, 22320, Tempo, 533950
1, 22320, Note_on_c, 0, 65, 0
1, 22320, Note_on_c, 0, 64, 67
1, 22320, Note_on_c, 0, 61, 42
1, 22410, Note_on_c, 0, 61, 0
1, 22440, Note_on_c, 0, 64, 0
1, 22440, Note_on_c, 0, 67, 74
1, 22560, Tempo, 527333
1, 22560, Note_on_c, 0, 67, 0
1, 22560, Note_on_c, 0, 65, 76
1, 22560, Note_on_c, 0, 60, 57
1, 22560, Note_on_c, 0, 63, 64
1, 22573, Control_c, 0, 64, 0
1, 22770, Note_on_c, 0, 65, 0
1, 22770, Note_on_c, 0, 67, 68
1, 22800, Tempo, 564653
1, 22800, Note_on_c, 0, 63, 0
1, 22800, Note_on_c, 0, 60, 0
1, 22800, Note_on_c, 0, 74, 80
1, 22800, Note_on_c, 0, 63, 58
1, 22800, Note_on_c, 0, 57, 49
1, 22800, Note_on_c, 0, 53, 49
1, 22860, Note_on_c, 0, 53, 0
1, 22860, Control_c, 0, 64, 127
1, 22890, Note_on_c, 0, 63, 0
1, 22890, Note_on_c, 0, 67, 0
1, 22890, Note_on_c, 0, 74, 0
1, 22890, Note_on_c, 0, 57, 0
1, 23040, Tempo, 588120
1, 23040, Note_on_c, 0, 70, 85
1, 23040, Note_on_c, 0, 62, 72
1, 23040, Note_on_c, 0, 53, 62
1, 23040, Note_on_c, 0, 58, 73
1, 23040, Note_on_c, 0, 46, 62
1, 23040, Control_c, 0, 64, 0
1, 23220, Control_c, 0, 64, 127
1, 23280, Note_on_c, 0, 46, 0
1, 23280, Note_on_c, 0, 53, 0
1, 23280, Note_on_c, 0, 58, 0
1, 23520, Note_on_c, 0, 62, 0
1, 23520, Note_on_c, 0, 70, 0
1, 23520, Note_on_c, 0, 82, 90
1, 23520, Note_on_c, 0, 94, 106
1, 23520, Note_on_c, 0, 34, 60
1, 23520, Note_on_c, 0, 46, 71
1, 23760, Note_on_c, 0, 46, 0
1, 23760, Note_on_c, 0, 82, 0
1, 23760, Note_on_c, 0, 94, 0
1, 23760, Note_on_c, 0, 34, 0
1, 23760, Control_c, 0, 64, 0
1, 24000, Tempo, 512514
1, 24000, Note_on_c, 0, 60, 54
1, 24000, Note_on_c, 0, 63, 64
1, 24000, Note_on_c, 0, 56, 40
1, 24000, Note_on_c, 0, 58, 40
1, 24000, Control_c, 0, 64, 127
1, 24090, Note_on_c, 0, 58, 0
1, 24090, Note_on_c, 0, 56, 0
1, 24120, Note_on_c, 0, 63, 0
1, 24120, Note_on_c, 0, 60, 0
1, 24120, Note_on_c, 0, 62, 48
1, 24120, Note_on_c, 0, 65, 57
1, 24127, Control_c, 0, 64, 0
1, 24240, Tempo, 529521
1, 24240, Note_on_c, 0, 70, 33
1, 24240, Note_on_c, 0, 68, 33
1, 24330, Note_on_c, 0, 68, 0
1, 24330, Note_on_c, 0, 70, 0
1, 24360, Note_on_c, 0, 65, 0
1, 24360, Note_on_c, 0, 62, 0
1, 24360, Note_on_c, 0, 63, 47
1, 24360, Note_on_c, 0, 67, 56
1, 24377, Control_c, 0, 64, 127
1, 24480, Note_on_c, 0, 67, 0
1, 24480, Note_on_c, 0, 63, 0
1, 24480, Note_on_c, 0, 62, 54
1, 24480, Note_on_c, 0, 65, 64
1, 24480, Note_on_c, 0, 56, 40
1, 24480, Note_on_c, 0, 58, 40
1, 24492, Control_c, 0, 64, 0
1, 24570, Note_on_c, 0, 58, 0
1, 24570, Note_on_c, 0, 62, 0
1, 24570, Note_on_c, 0, 65, 0
1, 24570, Note_on_c, 0, 56, 0
1, 24720, Tempo, 568720
1, 24720, Note_on_c, 0, 60, 45
1, 24720, Note_on_c, 0, 63, 53
1, 24720, Note_on_c, 0, 70, 35
1, 24720, Note_on_c, 0, 68, 35
1, 24810, Note_on_c, 0, 68, 0
1, 24810, Note_on_c, 0, 60, 0
1, 24810, Note_on_c, 0, 63, 0
1, 24810, Note_on_c, 0, 70, 0
1, 24960, Tempo, 579710
1, 24960, Note_on_c, 0, 65, 53
1, 24960, Note_on_c, 0, 62, 45
1, 24960, Note_on_c, 0, 56, 40
1, 24960, Note_on_c, 0, 58, 40
1, 24998, Control_c, 0, 64, 127
1, 25050, Note_on_c, 0, 58, 0
1, 25050, Note_on_c, 0, 56, 0
1, 25200, Note_on_c, 0, 70, 33
1, 25200, Note_on_c, 0, 68, 33
1, 25290, Note_on_c, 0, 68, 0
1, 25290, Note_on_c, 0, 70, 0
1, 25320, Control_c, 0, 64, 0
1, 25440, Note_on_c, 0, 94, 64
1, 25440, Note_on_c, 0, 82, 54
1, 25440, Note_on_c, 0, 56, 40
1, 25440, Note_on_c, 0, 58, 40
1, 25510, Control_c, 0, 64, 127
1, 25530, Note_on_c, 0, 58, 0
1, 25530, Note_on_c, 0, 56, 0
1, 25680, Note_on_c, 0, 94, 0
1, 25680, Note_on_c, 0, 82, 0
1, 25680, Note_on_c, 0, 70, 35
1, 25680, Note_on_c, 0, 68, 35
1, 25770, Note_on_c, 0, 68, 0
1, 25770, Note_on_c, 0, 70, 0
1, 25920, Tempo, 512514
1, 25920, Note_on_c, 0, 62, 0
1, 25920, Note_on_c, 0, 65, 0
1, 25920, Note_on_c, 0, 60, 54
1, 25920, Note_on_c, 0, 63, 64
1, 25920, Note_on_c, 0, 55, 40
1, 25920, Note_on_c, 0, 58, 40
1, 25920, Control_c, 0, 64, 0
1, 25983, Control_c, 0, 64, 127
1, 26010, Note_on_c, 0, 58, 0
1, 26010, Note_on_c, 0, 55, 0
1, 26040, Note_on_c, 0, 63, 0
1, 26040, Note_on_c, 0, 60, 0
1, 26040, Note_on_c, 0, 62, 48
1, 26040, Note_on_c, 0, 65, 57
1, 26047, Control_c, 0, 64, 0
1, 26160, Tempo, 529521
1, 26160, Note_on_c, 0, 70, 33
1, 26250, Note_on_c, 0, 70, 0
1, 26280, Note_on_c, 0, 65, 0
1, 26280, Note_on_c, 0, 62, 0
1, 26280, Note_on_c, 0, 63, 47
1, 26280, Note_on_c, 0, 67, 56
1, 26297, Control_c, 0, 64, 127
1, 26400, Note_on_c, 0, 67, 0
1, 26400, Note_on_c, 0, 63, 0
1, 26400, Note_on_c, 0, 62, 54
1, 26400, Note_on_c, 0, 65, 64
1, 26400, Note_on_c, 0, 55, 40
1, 26400, Note_on_c, 0, 58, 40
1, 26412, Control_c, 0, 64, 0
1, 26490, Note_on_c, 0, 58, 0
1, 26490, Note_on_c, 0, 55, 0
1, 26520, Note_on_c, 0, 65, 0
1, 26520, Note_on_c, 0, 62, 0
1, 26640, Tempo, 558140
1, 26640, Note_on_c, 0, 60, 45
1, 26640, Note_on_c, 0, 63, 53
1, 26640, Note_on_c, 0, 70, 35
1, 26730, Note_on_c, 0, 70, 0
1, 26730, Note_on_c, 0, 63, 0
1, 26730, Note_on_c, 0, 60, 0
1, 26880, Tempo, 545455
1, 26880, Note_on_c, 0, 65, 53
1, 26880, Note_on_c, 0, 62, 45
1, 26880, Note_on_c, 0, 55, 40
1, 26880, Note_on_c, 0, 58, 40
1, 27000, Note_on_c, 0, 58, 0
1, 27000, Note_on_c, 0, 65, 0
1, 27000, Note_on_c, 0, 62, 0
1, 27000, Note_on_c, 0, 55, 0
1, 27120, Tempo, 555556
1, 27120, Note_on_c, 0, 60, 53
1, 27120, Note_on_c, 0, 63, 53
1, 27120, Note_on_c, 0, 70, 33
1, 27210, Note_on_c, 0, 70, 0
1, 27360, Tempo, 533333
1, 27360, Note_on_c, 0, 63, 0
1, 27360, Note_on_c, 0, 60, 0
1, 27360, Note_on_c, 0, 62, 53
1, 27360, Note_on_c, 0, 65, 53
1, 27360, Note_on_c, 0, 55, 40
1, 27360, Note_on_c, 0, 58, 40
1, 27430, Control_c, 0, 64, 127
1, 27600, Note_on_c, 0, 58, 0
1, 27600, Note_on_c, 0, 62, 0
1, 27600, Note_on_c, 0, 65, 0
1, 27600, Note_on_c, 0, 55, 0
1, 27600, Note_on_c, 0, 67, 53
1, 27600, Note_on_c, 0, 70, 53
1, 27600, Note_on_c, 0, 72, 53
1, 27600, Note_on_c, 0, 63, 35
1, 27690, Note_on_c, 0, 63, 0
1, 27720, Note_on_c, 0, 67, 0
1, 27720, Note_on_c, 0, 70, 0
1, 27720, Note_on_c, 0, 72, 0
1, 27840, Tempo, 512514
1, 27840, Note_on_c, 0, 56, 36
1, 27840, Note_on_c, 0, 60, 36
1, 27840, Note_on_c, 0, 63, 42
1, 27840, Note_on_c, 0, 46, 44
1, 27840, Control_c, 0, 64, 0
1, 27960, Note_on_c, 0, 46, 0
1, 27960, Note_on_c, 0, 48, 39
1, 28080, Tempo, 529521
1, 28080, Note_on_c, 0, 48, 0
1, 28200, Note_on_c, 0, 50, 39
1, 28320, Note_on_c, 0, 50, 0
1, 28320, Note_on_c, 0, 48, 44
1, 28440, Note_on_c, 0, 48, 0
1, 28560, Tempo, 568720
1, 28560, Note_on_c, 0, 46, 37
1, 28650, Note_on_c, 0, 46, 0
1, 28800, Tempo, 512514
1, 28800, Note_on_c, 0, 46, 44
1, 28920, Note_on_c, 0, 46, 0
1, 28920, Note_on_c, 0, 48, 39
1, 29040, Tempo, 529521
1, 29040, Note_on_c, 0, 48, 0
1, 29160, Note_on_c, 0, 50, 39
1, 29280, Note_on_c, 0, 50, 0
1, 29280, Note_on_c, 0, 48, 44
1, 29400, Note_on_c, 0, 48, 0
1, 29520, Tempo, 568720
1, 29520, Note_on_c, 0, 46, 37
1, 29610, Note_on_c, 0, 46, 0
1, 29760, Tempo, 515021
1, 29760, Note_on_c, 0, 63, 0
1, 29760, Note_on_c, 0, 60, 0
1, 29760, Note_on_c, 0, 56, 0
1, 29760, Note_on_c, 0, 55, 30
1, 29760, Note_on_c, 0, 60, 30
1, 29760, Note_on_c, 0, 63, 36
1, 29760, Note_on_c, 0, 46, 37
1, 29880, Note_on_c, 0, 46, 0
1, 29880, Note_on_c, 0, 48, 33
1, 30000, Tempo, 538117
1, 30000, Note_on_c, 0, 48, 0
1, 30120, Note_on_c, 0, 50, 33
1, 30240, Tempo, 547945
1, 30240, Note_on_c, 0, 50, 0
1, 30240, Note_on_c, 0, 48, 37
1, 30360, Note_on_c, 0, 48, 0
1, 30480, Tempo, 568720
1, 30480, Note_on_c, 0, 46, 31
1, 30570, Note_on_c, 0, 46, 0
1, 30720, Tempo, 512514
1, 30720, Note_on_c, 0, 55, 0
1, 30720, Note_on_c, 0, 60, 0
1, 30720, Note_on_c, 0, 63, 0
1, 30840, Note_on_c, 0, 46, 65
1, 30840, Note_on_c, 0, 34, 65
1, 30960, Tempo, 542986
1, 30960, Note_on_c, 0, 34, 0
1, 30960, Note_on_c, 0, 46, 0
1, 30960, Note_on_c, 0, 48, 65
1, 30960, Note_on_c, 0, 36, 65
1, 31080, Note_on_c, 0, 36, 0
1, 31080, Note_on_c, 0, 48, 0
1, 31080, Note_on_c, 0, 50, 67
1, 31080, Note_on_c, 0, 38, 67
1, 31200, Tempo, 579710
1, 31200, Note_on_c, 0, 38, 0
1, 31200, Note_on_c, 0, 50, 0
1, 31200, Note_on_c, 0, 48, 68
1, 31200, Note_on_c, 0, 36, 68
1, 31320, Note_on_c, 0, 36, 0
1, 31320, Note_on_c, 0, 48, 0
1, 31440, Tempo, 600000
1, 31440, Note_on_c, 0, 46, 62
1, 31440, Note_on_c, 0, 22, 55
1, 31440, Note_on_c, 0, 34, 62
1, 31530, Note_on_c, 0, 34, 0
1, 31530, Note_on_c, 0, 22, 0
1, 31530, Note_on_c, 0, 46, 0
1, 31680, Tempo, 512514
1, 31680, Note_on_c, 0, 60, 54
1, 31680, Note_on_c, 0, 63, 64
1, 31680, Note_on_c, 0, 56, 40
1, 31680, Note_on_c, 0, 58, 40
1, 31680, Control_c, 0, 64, 127
1, 31770, Note_on_c, 0, 58, 0
1, 31770, Note_on_c, 0, 56, 0
1, 31800, Note_on_c, 0, 63, 0
1, 31800, Note_on_c, 0, 60, 0
1, 31800, Note_on_c, 0, 62, 48
1, 31800, Note_on_c, 0, 65, 57
1, 31807, Control_c, 0, 64, 0
1, 31920, Tempo, 529521
1, 31920, Note_on_c, 0, 70, 33
1, 31920, Note_on_c, 0, 68, 33
1, 32010, Note_on_c, 0, 68, 0
1, 32010, Note_on_c, 0, 70, 0
1, 32040, Note_on_c, 0, 65, 0
1, 32040, Note_on_c, 0, 62, 0
1, 32040, Note_on_c, 0, 63, 47
1, 32040, Note_on_c, 0, 67, 56
1, 32057, Control_c, 0, 64, 127
1, 32160, Note_on_c, 0, 67, 0
1, 32160, Note_on_c, 0, 63, 0
1, 32160, Note_on_c, 0, 62, 54
1, 32160, Note_on_c, 0, 65, 64
1, 32160, Note_on_c, 0, 56, 40
1, 32160, Note_on_c, 0, 58, 40
1, 32172, Control_c, 0, 64, 0
1, 32250, Note_on_c, 0, 58, 0
1, 32250, Note_on_c, 0, 62, 0
1, 32250, Note_on_c, 0, 65, 0
1, 32250, Note_on_c, 0, 56, 0
1, 32400, Tempo, 568720
1, 32400, Note_on_c, 0, 60, 45
1, 32400, Note_on_c, 0, 63, 53
1, 32400, Note_on_c, 0, 70, 35
1, 32400, Note_on_c, 0, 68, 35
1, 32490, Note_on_c, 0, 68, 0
1, 32490, Note_on_c, 0, 60, 0
1, 32490, Note_on_c, 0, 63, 0
1, 32490, Note_on_c, 0, 70, 0
1, 32640, Tempo, 579710
1, 32640, Note_on_c, 0, 65, 53
1, 32640, Note_on_c, 0, 62, 45
1, 32640, Note_on_c, 0, 56, 40
1, 32640, Note_on_c, 0, 58, 40
1, 32678, Control_c, 0, 64, 127
1, 32730, Note_on_c, 0, 58, 0
1, 32730, Note_on_c, 0, 56, 0
1, 32880, Note_on_c, 0, 70, 33
1, 32880, Note_on_c, 0, 68, 33
1, 32970, Note_on_c, 0, 68, 0
1, 32970, Note_on_c, 0, 70, 0
1, 33000, Control_c, 0, 64, 0
1, 33120, Note_on_c, 0, 94, 64
1, 33120, Note_on_c, 0, 82, 54
1, 33120, Note_on_c, 0, 56, 40
1, 33120, Note_on_c, 0, 58, 40
1, 33190, Control_c, 0, 64, 127
1, 33210, Note_on_c, 0, 58, 0
1, 33210, Note_on_c, 0, 56, 0
1, 33360, Note_on_c, 0, 94, 0
1, 33360, Note_on_c, 0, 82, 0
1, 33360, Note_on_c, 0, 70, 35
1, 33360, Note_on_c, 0, 68, 35
1, 33450, Note_on_c, 0, 68, 0
1, 33450, Note_on_c, 0, 70, 0
1, 33600, Tempo, 512514
1, 33600, Note_on_c, 0, 62, 0
1, 33600, Note_on_c, 0, 65, 0
1, 33600, Note_on_c, 0, 60, 54
1, 33600, Note_on_c, 0, 63, 64
1, 33600, Note_on_c, 0, 55, 40
1, 33600, Note_on_c, 0, 58, 40
1, 33600, Control_c, 0, 64, 0
1, 33663, Control_c, 0, 64, 127
1, 33690, Note_on_c, 0, 58, 0
1, 33690, Note_on_c, 0, 55, 0
1, 33720, Note_on_c, 0, 63, 0
1, 33720, Note_on_c, 0, 60, 0
1, 33720, Note_on_c, 0, 62, 48
1, 33720, Note_on_c, 0, 65, 57
1, 33727, Control_c, 0, 64, 0
1, 33840, Tempo, 529521
1, 33840, Note_on_c, 0, 67, 33
1, 33840, Note_on_c, 0, 70, 33
1, 33930, Note_on_c, 0, 70, 0
1, 33930, Note_on_c, 0, 67, 0
1, 33960, Note_on_c, 0, 65, 0
1, 33960, Note_on_c, 0, 62, 0
1, 33960, Note_on_c, 0, 63, 47
1, 33960, Note_on_c, 0, 67, 56
1, 33977, Control_c, 0, 64, 127
1, 34080, Note_on_c, 0, 67, 0
1, 34080, Note_on_c, 0, 63, 0
1, 34080, Note_on_c, 0, 62, 54
1, 34080, Note_on_c, 0, 65, 64
1, 34080, Note_on_c, 0, 55, 40
1, 34080, Note_on_c, 0, 58, 40
1, 34092, Control_c, 0, 64, 0
1, 34170, Note_on_c, 0, 58, 0
1, 34170, Note_on_c, 0, 55, 0
1, 34200, Note_on_c, 0, 65, 0
1, 34200, Note_on_c, 0, 62, 0
1, 34320, Tempo, 558140
1, 34320, Note_on_c, 0, 60, 45
1, 34320, Note_on_c, 0, 63, 53
1, 34320, Note_on_c, 0, 67, 33
1, 34320, Note_on_c, 0, 70, 35
1, 34410, Note_on_c, 0, 70, 0
1, 34410, Note_on_c, 0, 60, 0
1, 34410, Note_on_c, 0, 63, 0
1, 34410, Note_on_c, 0, 67, 0
1, 34560, Tempo, 545455
1, 34560, Note_on_c, 0, 65, 53
1, 34560, Note_on_c, 0, 62, 45
1, 34560, Note_on_c, 0, 55, 40
1, 34560, Note_on_c, 0, 58, 40
1, 34680, Note_on_c, 0, 58, 0
1, 34680, Note_on_c, 0, 65, 0
1, 34680, Note_on_c, 0, 62, 0
1, 34680, Note_on_c, 0, 55, 0
1, 34800, Tempo, 555556
1, 34800, Note_on_c, 0, 60, 53
1, 34800, Note_on_c, 0, 63, 53
1, 34800, Note_on_c, 0, 67, 33
1, 34800, Note_on_c, 0, 70, 33
1, 34890, Note_on_c, 0, 70, 0
1, 34890, Note_on_c, 0, 67, 0
1, 35040, Tempo, 533333
1, 35040, Note_on_c, 0, 63, 0
1, 35040, Note_on_c, 0, 60, 0
1, 35040, Note_on_c, 0, 62, 53
1, 35040, Note_on_c, 0, 65, 53
1, 35040, Note_on_c, 0, 55, 40
1, 35040, Note_on_c, 0, 58, 40
1, 35110, Control_c, 0, 64, 127
1, 35280, Note_on_c, 0, 58, 0
1, 35280, Note_on_c, 0, 62, 0
1, 35280, Note_on_c, 0, 65, 0
1, 35280, Note_on_c, 0, 55, 0
1, 35280, Note_on_c, 0, 67, 53
1, 35280, Note_on_c, 0, 70, 53
1, 35280, Note_on_c, 0, 72, 53
1, 35280, Note_on_c, 0, 63, 35
1, 35370, Note_on_c, 0, 63, 0
1, 35400, Note_on_c, 0, 67, 0
1, 35400, Note_on_c, 0, 70, 0
1, 35400, Note_on_c, 0, 72, 0
1, 35520, Tempo, 531726
1, 35520, Note_on_c, 0, 71, 60
1, 35520, Note_on_c, 0, 75, 60
1, 35520, Note_on_c, 0, 82, 80
1, 35520, Note_on_c, 0, 59, 51
1, 35520, Note_on_c, 0, 63, 51
1, 35520, Note_on_c, 0, 70, 68
1, 35520, Control_c, 0, 64, 0
1, 35640, Note_on_c, 0, 70, 0
1, 35640, Note_on_c, 0, 82, 0
1, 35640, Note_on_c, 0, 80, 74
1, 35640, Note_on_c, 0, 68, 62
1, 35760, Note_on_c, 0, 68, 0
1, 35760, Note_on_c, 0, 80, 0
1, 35880, Note_on_c, 0, 82, 74
1, 35880, Note_on_c, 0, 70, 62
1, 36000, Tempo, 559701
1, 36000, Note_on_c, 0, 70, 0
1, 36000, Note_on_c, 0, 82, 0
1, 36000, Note_on_c, 0, 77, 76
1, 36000, Note_on_c, 0, 65, 64
1, 36120, Note_on_c, 0, 65, 0
1, 36120, Note_on_c, 0, 77, 0
1, 36240, Tempo, 531726
1, 36240, Note_on_c, 0, 82, 80
1, 36240, Note_on_c, 0, 70, 68
1, 36330, Note_on_c, 0, 70, 0
1, 36330, Note_on_c, 0, 82, 0
1, 36480, Note_on_c, 0, 80, 80
1, 36480, Note_on_c, 0, 68, 68
1, 36600, Note_on_c, 0, 68, 0
1, 36600, Note_on_c, 0, 80, 0
1, 36600, Note_on_c, 0, 77, 80
1, 36600, Note_on_c, 0, 65, 68
1, 36720, Tempo, 554836
1, 36720, Note_on_c, 0, 65, 0
1, 36720, Note_on_c, 0, 77, 0
1, 36840, Note_on_c, 0, 75, 74
1, 36840, Note_on_c, 0, 63, 62
1, 36960, Tempo, 529521
1, 36960, Note_on_c, 0, 63, 0
1, 36960, Note_on_c, 0, 75, 0
1, 36960, Note_on_c, 0, 63, 0
1, 36960, Note_on_c, 0, 71, 0
1, 36960, Note_on_c, 0, 75, 0
1, 36960, Note_on_c, 0, 59, 0
1, 36960, Note_on_c, 0, 71, 80
1, 36960, Note_on_c, 0, 59, 68
1, 37440, Tempo, 529521
1, 37440, Note_on_c, 0, 59, 0
1, 37440, Note_on_c, 0, 71, 0
1, 37560, Tempo, 520879
1, 37560, Note_on_c, 0, 68, 80
1, 37560, Note_on_c, 0, 56, 65
1, 37680, Note_on_c, 0, 56, 0
1, 37680, Note_on_c, 0, 68, 0
1, 37680, Note_on_c, 0, 65, 79
1, 37680, Note_on_c, 0, 53, 65
1, 37708, Control_c, 0, 64, 127
1, 37800, Note_on_c, 0, 53, 0
1, 37800, Note_on_c, 0, 65, 0
1, 37800, Note_on_c, 0, 63, 84
1, 37800, Note_on_c, 0, 51, 67
1, 37920, Tempo, 557258
1, 37920, Note_on_c, 0, 51, 0
1, 37920, Note_on_c, 0, 63, 0
1, 37920, Note_on_c, 0, 59, 86
1, 37920, Note_on_c, 0, 47, 71
1, 37935, Control_c, 0, 64, 0
1, 38040, Note_on_c, 0, 47, 0
1, 38040, Note_on_c, 0, 59, 0
1, 38160, Tempo, 525164
1, 38160, Note_on_c, 0, 55, 97
1, 38160, Note_on_c, 0, 50, 82
1, 38160, Note_on_c, 0, 46, 78
1, 38160, Note_on_c, 0, 34, 66
1, 38400, Tempo, 527333
1, 38400, Note_on_c, 0, 34, 0
1, 38400, Note_on_c, 0, 55, 0
1, 38400, Note_on_c, 0, 50, 0
1, 38400, Note_on_c, 0, 46, 0
1, 38400, Control_c, 0, 64, 0
1, 38640, Note_on_c, 0, 51, 40
1, 38640, Note_on_c, 0, 58, 40
1, 38640, Note_on_c, 0, 55, 33
1, 38640, Note_on_c, 0, 53, 33
1, 38730, Note_on_c, 0, 53, 0
1, 38730, Note_on_c, 0, 51, 0
1, 38730, Note_on_c, 0, 58, 0
1, 38730, Note_on_c, 0, 55, 0
1, 38880, Note_on_c, 0, 39, 40
1, 38880, Note_on_c, 0, 46, 40
1, 38970, Note_on_c, 0, 46, 0
1, 38970, Note_on_c, 0, 39, 0
1, 39120, Tempo, 591133
1, 39120, Note_on_c, 0, 51, 40
1, 39120, Note_on_c, 0, 58, 40
1, 39120, Note_on_c, 0, 55, 33
1, 39120, Note_on_c, 0, 53, 33
1, 39210, Note_on_c, 0, 53, 0
1, 39210, Note_on_c, 0, 51, 0
1, 39210, Note_on_c, 0, 58, 0
1, 39210, Note_on_c, 0, 55, 0
1, 39360, Tempo, 526316
1, 39360, Note_on_c, 0, 39, 34
1, 39360, Note_on_c, 0, 46, 40
1, 39360, Control_c, 0, 64, 127
1, 39840, Note_on_c, 0, 46, 0
1, 39840, Note_on_c, 0, 39, 0
1, 39840, Control_c, 0, 64, 0
1, 40320, Tempo, 527333
1, 40320, Control_c, 0, 64, 0
1, 40560, Note_on_c, 0, 51, 39
1, 40560, Note_on_c, 0, 58, 39
1, 40560, Note_on_c, 0, 55, 32
1, 40560, Note_on_c, 0, 53, 32
1, 40650, Note_on_c, 0, 53, 0
1, 40650, Note_on_c, 0, 51, 0
1, 40650, Note_on_c, 0, 58, 0
1, 40650, Note_on_c, 0, 55, 0
1, 40800, Note_on_c, 0, 39, 38
1, 40800, Note_on_c, 0, 46, 38
1, 40890, Note_on_c, 0, 46, 0
1, 40890, Note_on_c, 0, 39, 0
1, 41040, Tempo, 591133
1, 41040, Note_on_c, 0, 51, 36
1, 41040, Note_on_c, 0, 58, 36
1, 41040, Note_on_c, 0, 55, 29
1, 41040, Note_on_c, 0, 53, 29
1, 41130, Note_on_c, 0, 53, 0
1, 41130, Note_on_c, 0, 51, 0
1, 41130, Note_on_c, 0, 58, 0
1, 41130, Note_on_c, 0, 55, 0
1, 41280, Tempo, 526316
1, 41280, Note_on_c, 0, 39, 29
1, 41280, Note_on_c, 0, 46, 34
1, 41280, Control_c, 0, 64, 127
1, 41760, Note_on_c, 0, 46, 0
1, 41760, Note_on_c, 0, 39, 0
1, 41760, Control_c, 0, 64, 0
1, 42240, Tempo, 527333
1, 42240, Control_c, 0, 64, 0
1, 42480, Note_on_c, 0, 51, 39
1, 42480, Note_on_c, 0, 58, 39
1, 42480, Note_on_c, 0, 55, 32
1, 42480, Note_on_c, 0, 53, 32
1, 42570, Note_on_c, 0, 53, 0
1, 42570, Note_on_c, 0, 51, 0
1, 42570, Note_on_c, 0, 58, 0
1, 42570, Note_on_c, 0, 55, 0
1, 42720, Note_on_c, 0, 39, 38
1, 42720, Note_on_c, 0, 46, 38
1, 42810, Note_on_c, 0, 46, 0
1, 42810, Note_on_c, 0, 39, 0
1, 42960, Tempo, 591133
1, 42960, Note_on_c, 0, 51, 36
1, 42960, Note_on_c, 0, 58, 36
1, 42960, Note_on_c, 0, 55, 30
1, 42960, Note_on_c, 0, 53, 30
1, 43050, Note_on_c, 0, 53, 0
1, 43050, Note_on_c, 0, 51, 0
1, 43050, Note_on_c, 0, 58, 0
1, 43050, Note_on_c, 0, 55, 0
1, 43200, Tempo, 526316
1, 43200, Note_on_c, 0, 39, 34
1, 43200, Control_c, 0, 64, 127
1, 43680, Note_on_c, 0, 39, 0
1, 43680, Note_on_c, 0, 41, 34
1, 43680, Control_c, 0, 64, 0
1, 44160, Key_signature, -6, "major"
1, 44160, Tempo, 535714
1, 44160, Note_on_c, 0, 41, 0
1, 44160, Note_on_c, 0, 42, 30
1, 44160, Note_on_c, 0, 49, 30
1, 44280, Note_on_c, 0, 42, 0
1, 44340, Note_on_c, 0, 57, 25
1, 44400, Note_on_c, 0, 57, 0
1, 44400, Note_on_c, 0, 61, 30
1, 44400, Note_on_c, 0, 58, 25
1, 44460, Note_on_c, 0, 58, 0
1, 44460, Note_on_c, 0, 61, 0
1, 44640, Note_on_c, 0, 42, 29
1, 44760, Note_on_c, 0, 42, 0
1, 44820, Note_on_c, 0, 57, 25
1, 44880, Note_on_c, 0, 57, 0
1, 44880, Note_on_c, 0, 61, 30
1, 44880, Note_on_c, 0, 58, 25
1, 44940, Note_on_c, 0, 58, 0
1, 44940, Note_on_c, 0, 61, 0
1, 45120, Note_on_c, 0, 42, 30
1, 45240, Note_on_c, 0, 42, 0
1, 45300, Note_on_c, 0, 55, 25
1, 45360, Tempo, 528634
1, 45360, Note_on_c, 0, 55, 0
1, 45360, Note_on_c, 0, 56, 28
1, 45360, Note_on_c, 0, 59, 33
1, 45420, Note_on_c, 0, 59, 0
1, 45420, Note_on_c, 0, 56, 0
1, 45600, Tempo, 517241
1, 45600, Note_on_c, 0, 42, 29
1, 45720, Note_on_c, 0, 42, 0
1, 45780, Note_on_c, 0, 56, 25
1, 45840, Note_on_c, 0, 56, 0
1, 45840, Note_on_c, 0, 65, 38
1, 45840, Note_on_c, 0, 60, 38
1, 45840, Note_on_c, 0, 57, 32
1, 45900, Note_on_c, 0, 57, 0
1, 45900, Note_on_c, 0, 60, 0
1, 45900, Note_on_c, 0, 65, 0
1, 46020, Note_on_c, 0, 51, 24
1, 46080, Tempo, 535714
1, 46080, Note_on_c, 0, 51, 0
1, 46080, Note_on_c, 0, 49, 0
1, 46080, Note_on_c, 0, 42, 30
1, 46080, Note_on_c, 0, 49, 30
1, 46200, Note_on_c, 0, 42, 0
1, 46260, Note_on_c, 0, 57, 25
1, 46320, Note_on_c, 0, 57, 0
1, 46320, Note_on_c, 0, 61, 30
1, 46320, Note_on_c, 0, 58, 25
1, 46380, Note_on_c, 0, 58, 0
1, 46380, Note_on_c, 0, 61, 0
1, 46560, Note_on_c, 0, 42, 29
1, 46680, Note_on_c, 0, 42, 0
1, 46740, Note_on_c, 0, 57, 25
1, 46800, Note_on_c, 0, 57, 0
1, 46800, Note_on_c, 0, 61, 30
1, 46800, Note_on_c, 0, 58, 25
1, 46860, Note_on_c, 0, 58, 0
1, 46860, Note_on_c, 0, 61, 0
1, 47040, Note_on_c, 0, 42, 30
1, 47160, Note_on_c, 0, 42, 0
1, 47220, Note_on_c, 0, 55, 25
1, 47280, Tempo, 528634
1, 47280, Note_on_c, 0, 55, 0
1, 47280, Note_on_c, 0, 56, 28
1, 47280, Note_on_c, 0, 59, 33
1, 47340, Note_on_c, 0, 59, 0
1, 47340, Note_on_c, 0, 56, 0
1, 47520, Tempo, 517241
1, 47520, Note_on_c, 0, 42, 29
1, 47640, Note_on_c, 0, 42, 0
1, 47700, Note_on_c, 0, 56, 25
1, 47760, Note_on_c, 0, 56, 0
1, 47760, Note_on_c, 0, 65, 38
1, 47760, Note_on_c, 0, 60, 38
1, 47760, Note_on_c, 0, 57, 32
1, 47820, Note_on_c, 0, 57, 0
1, 47820, Note_on_c, 0, 60, 0
1, 47820, Note_on_c, 0, 65, 0
1, 48000, Tempo, 535714
1, 48000, Note_on_c, 0, 49, 0
1, 48000, Note_on_c, 0, 49, 30
1, 48180, Note_on_c, 0, 57, 25
1, 48240, Note_on_c, 0, 57, 0
1, 48240, Note_on_c, 0, 61, 30
1, 48240, Note_on_c, 0, 58, 25
1, 48240, Note_on_c, 0, 42, 29
1, 48300, Note_on_c, 0, 58, 0
1, 48300, Note_on_c, 0, 61, 0
1, 48360, Note_on_c, 0, 42, 0
1, 48480, Tempo, 540541
1, 48480, Note_on_c, 0, 41, 29
1, 48600, Note_on_c, 0, 41, 0
1, 48720, Tempo, 563380
1, 48720, Note_on_c, 0, 39, 29
1, 48840, Note_on_c, 0, 39, 0
1, 48960, Tempo, 547945
1, 48960, Note_on_c, 0, 37, 37
1, 49200, Tempo, 517241
1, 49200, Note_on_c, 0, 37, 0
1, 49380, Note_on_c, 0, 57, 25
1, 49440, Tempo, 517241
1, 49440, Note_on_c, 0, 57, 0
1, 49440, Note_on_c, 0, 58, 28
1, 49440, Note_on_c, 0, 61, 33
1, 49500, Note_on_c, 0, 61, 0
1, 49500, Note_on_c, 0, 58, 0
1, 49920, Tempo, 535714
1, 49920, Note_on_c, 0, 49, 0
1, 50160, Note_on_c, 0, 42, 29
1, 50280, Note_on_c, 0, 42, 0
1, 50400, Tempo, 540541
1, 50400, Note_on_c, 0, 41, 29
1, 50520, Note_on_c, 0, 41, 0
1, 50640, Tempo, 563380
1, 50640, Note_on_c, 0, 39, 29
1, 50760, Note_on_c, 0, 39, 0
1, 50880, Tempo, 547945
1, 50880, Note_on_c, 0, 37, 37
1, 51000, Note_on_c, 0, 37, 0
1, 51120, Tempo, 517241
1, 51120, Note_on_c, 0, 35, 32
1, 51153, Tempo, 524017
1, 51192, Tempo, 526316
1, 51211, Tempo, 528634
1, 51230, Tempo, 530973
1, 51240, Note_on_c, 0, 35, 0
1, 51249, Tempo, 533333
1, 51269, Tempo, 535714
1, 51288, Tempo, 538117
1, 51300, Note_on_c, 0, 48, 21
1, 51307, Tempo, 540541
1, 51326, Tempo, 542986
1, 51345, Tempo, 545455
1, 51360, Note_on_c, 0, 48, 0
1, 51360, Note_on_c, 0, 47, 22
1, 51360, Note_on_c, 0, 51, 27
1, 51360, Note_on_c, 0, 34, 30
1, 51365, Tempo, 547945
1, 51384, Tempo, 550459
1, 51420, Note_on_c, 0, 51, 0
1, 51420, Note_on_c, 0, 47, 0
1, 51480, Note_on_c, 0, 34, 0
1, 51600, Tempo, 588235
1, 51600, Note_on_c, 0, 32, 30
1, 51720, Note_on_c, 0, 32, 0
1, 51840, Tempo, 535714
1, 51840, Note_on_c, 0, 42, 30
1, 51840, Note_on_c, 0, 49, 30
1, 51960, Note_on_c, 0, 42, 0
1, 52020, Note_on_c, 0, 57, 25
1, 52080, Note_on_c, 0, 57, 0
1, 52080, Note_on_c, 0, 61, 30
1, 52080, Note_on_c, 0, 58, 25
1, 52140, Note_on_c, 0, 58, 0
1, 52140, Note_on_c, 0, 61, 0
1, 52320, Note_on_c, 0, 42, 29
1, 52440, Note_on_c, 0, 42, 0
1, 52500, Note_on_c, 0, 57, 25
1, 52560, Note_on_c, 0, 57, 0
1, 52560, Note_on_c, 0, 61, 30
1, 52560, Note_on_c, 0, 58, 25
1, 52620, Note_on_c, 0, 58, 0
1, 52620, Note_on_c, 0, 61, 0
1, 52800, Note_on_c, 0, 42, 30
1, 52920, Note_on_c, 0, 42, 0
1, 52980, Note_on_c, 0, 55, 25
1, 53040, Tempo, 528634
1, 53040, Note_on_c, 0, 55, 0
1, 53040, Note_on_c, 0, 56, 28
1, 53040, Note_on_c, 0, 59, 33
1, 53100, Note_on_c, 0, 59, 0
1, 53100, Note_on_c, 0, 56, 0
1, 53280, Tempo, 517241
1, 53280, Note_on_c, 0, 42, 29
1, 53400, Note_on_c, 0, 42, 0
1, 53460, Note_on_c, 0, 56, 25
1, 53520, Note_on_c, 0, 56, 0
1, 53520, Note_on_c, 0, 65, 38
1, 53520, Note_on_c, 0, 60, 38
1, 53520, Note_on_c, 0, 57, 32
1, 53580, Note_on_c, 0, 57, 0
1, 53580, Note_on_c, 0, 60, 0
1, 53580, Note_on_c, 0, 65, 0
1, 53700, Note_on_c, 0, 51, 24
1, 53760, Tempo, 535714
1, 53760, Note_on_c, 0, 51, 0
1, 53760, Note_on_c, 0, 49, 0
1, 53760, Note_on_c, 0, 42, 30
1, 53760, Note_on_c, 0, 49, 30
1, 53880, Note_on_c, 0, 42, 0
1, 53940, Note_on_c, 0, 57, 25
1, 54000, Note_on_c, 0, 57, 0
1, 54000, Note_on_c, 0, 61, 30
1, 54000, Note_on_c, 0, 58, 25
1, 54060, Note_on_c, 0, 58, 0
1, 54060, Note_on_c, 0, 61, 0
1, 54240, Note_on_c, 0, 42, 29
1, 54360, Note_on_c, 0, 42, 0
1, 54420, Note_on_c, 0, 57, 25
1, 54480, Note_on_c, 0, 57, 0
1, 54480, Note_on_c, 0, 61, 30
1, 54480, Note_on_c, 0, 58, 25
1, 54540, Note_on_c, 0, 58, 0
1, 54540, Note_on_c, 0, 61, 0
1, 54720, Note_on_c, 0, 42, 30
1, 54840, Note_on_c, 0, 42, 0
1, 54900, Note_on_c, 0, 55, 25
1, 54960, Tempo, 528634
1, 54960, Note_on_c, 0, 55, 0
1, 54960, Note_on_c, 0, 56, 28
1, 54960, Note_on_c, 0, 59, 33
1, 55020, Note_on_c, 0, 59, 0
1, 55020, Note_on_c, 0, 56, 0
1, 55200, Tempo, 517241
1, 55200, Note_on_c, 0, 42, 29
1, 55320, Note_on_c, 0, 42, 0
1, 55380, Note_on_c, 0, 56, 25
1, 55440, Note_on_c, 0, 56, 0
1, 55440, Note_on_c, 0, 65, 38
1, 55440, Note_on_c, 0, 60, 38
1, 55440, Note_on_c, 0, 57, 32
1, 55500, Note_on_c, 0, 57, 0
1, 55500, Note_on_c, 0, 60, 0
1, 55500, Note_on_c, 0, 65, 0
1, 55680, Tempo, 535714
1, 55680, Note_on_c, 0, 49, 0
1, 55680, Note_on_c, 0, 49, 30
1, 55860, Note_on_c, 0, 57, 25
1, 55920, Note_on_c, 0, 57, 0
1, 55920, Note_on_c, 0, 61, 30
1, 55920, Note_on_c, 0, 58, 25
1, 55920, Note_on_c, 0, 42, 29
1, 55980, Note_on_c, 0, 58, 0
1, 55980, Note_on_c, 0, 61, 0
1, 56040, Note_on_c, 0, 42, 0
1, 56160, Tempo, 540541
1, 56160, Note_on_c, 0, 41, 29
1, 56280, Note_on_c, 0, 41, 0
1, 56400, Tempo, 563380
1, 56400, Note_on_c, 0, 39, 29
1, 56520, Note_on_c, 0, 39, 0
1, 56640, Tempo, 547945
1, 56640, Note_on_c, 0, 37, 37
1, 56880, Tempo, 517241
1, 56880, Note_on_c, 0, 37, 0
1, 57120, Tempo, 517241
1, 57840, Tempo, 648649
1, 57840, Note_on_c, 0, 49, 0
1, 57840, Note_on_c, 0, 39, 37
1, 58080, Note_on_c, 0, 39, 0
1, 58080, Note_on_c, 0, 57, 46
1, 58080, Note_on_c, 0, 41, 41
1, 58165, Control_c, 0, 64, 127
1, 58320, Note_on_c, 0, 41, 0
1, 58320, Note_on_c, 0, 42, 38
1, 58333, Control_c, 0, 64, 0
1, 58433, Control_c, 0, 64, 127
1, 58560, Tempo, 736196
1, 58560, Note_on_c, 0, 42, 0
1, 58560, Note_on_c, 0, 65, 63
1, 58560, Note_on_c, 0, 45, 49
1, 58572, Control_c, 0, 64, 0
1, 58640, Control_c, 0, 64, 127
1, 58800, Tempo, 784314
1, 58800, Note_on_c, 0, 45, 0
1, 58800, Note_on_c, 0, 46, 42
1, 58821, Control_c, 0, 64, 0
1, 58915, Control_c, 0, 64, 127
1, 59040, Tempo, 816327
1, 59040, Note_on_c, 0, 46, 0
1, 59040, Note_on_c, 0, 47, 55
1, 59063, Control_c, 0, 64, 0
1, 59177, Control_c, 0, 64, 127
1, 59280, Tempo, 952381
1, 59280, Note_on_c, 0, 47, 0
1, 59280, Note_on_c, 0, 65, 0
1, 59280, Note_on_c, 0, 57, 0
1, 59280, Note_on_c, 0, 64, 68
1, 59280, Note_on_c, 0, 58, 68
1, 59280, Note_on_c, 0, 48, 46
1, 59293, Control_c, 0, 64, 0
1, 59372, Control_c, 0, 64, 127
1, 59520, Tempo, 1027397
1, 59520, Note_on_c, 0, 48, 0
1, 59520, Note_on_c, 0, 58, 0
1, 59520, Note_on_c, 0, 64, 0
1, 59520, Note_on_c, 0, 63, 49
1, 59520, Note_on_c, 0, 59, 41
1, 59520, Note_on_c, 0, 49, 29
1, 59520, Note_on_c, 0, 44, 24
1, 59528, Control_c, 0, 64, 0
1, 59640, Tempo, 534283
1, 59700, Note_on_c, 0, 74, 25
1, 59760, Tempo, 528634
1, 59760, Note_on_c, 0, 74, 0
1, 59760, Note_on_c, 0, 71, 28
1, 59760, Note_on_c, 0, 75, 33
1, 59760, Note_on_c, 0, 56, 29
1, 59760, Note_on_c, 0, 59, 29
1, 59760, Note_on_c, 0, 65, 29
1, 59820, Note_on_c, 0, 65, 0
1, 59820, Note_on_c, 0, 59, 0
1, 59820, Note_on_c, 0, 56, 0
1, 59820, Note_on_c, 0, 71, 0
1, 59820, Note_on_c, 0, 75, 0
1, 59940, Note_on_c, 0, 72, 25
1, 60000, Tempo, 517241
1, 60000, Note_on_c, 0, 72, 0
1, 60000, Note_on_c, 0, 71, 28
1, 60000, Note_on_c, 0, 73, 33
1, 60000, Note_on_c, 0, 56, 29
1, 60000, Note_on_c, 0, 59, 29
1, 60000, Note_on_c, 0, 65, 29
1, 60060, Note_on_c, 0, 65, 0
1, 60060, Note_on_c, 0, 59, 0
1, 60060, Note_on_c, 0, 56, 0
1, 60060, Note_on_c, 0, 71, 0
1, 60060, Note_on_c, 0, 73, 0
1, 60180, Note_on_c, 0, 74, 25
1, 60240, Note_on_c, 0, 74, 0
1, 60240, Note_on_c, 0, 75, 38
1, 60240, Note_on_c, 0, 71, 38
1, 60240, Note_on_c, 0, 59, 29
1, 60240, Note_on_c, 0, 56, 29
1, 60240, Note_on_c, 0, 65, 29
1, 60300, Note_on_c, 0, 65, 0
1, 60300, Note_on_c, 0, 56, 0
1, 60300, Note_on_c, 0, 59, 0
1, 60300, Note_on_c, 0, 75, 0
1, 60300, Note_on_c, 0, 71, 0
1, 60480, Note_on_c, 0, 44, 0
1, 60480, Note_on_c, 0, 49, 0
1, 60480, Note_on_c, 0, 59, 0
1, 60480, Note_on_c, 0, 63, 0
1, 60660, Tempo, 534283
1, 60660, Note_on_c, 0, 74, 25
1, 60720, Tempo, 528634
1, 60720, Note_on_c, 0, 74, 0
1, 60720, Note_on_c, 0, 71, 28
1, 60720, Note_on_c, 0, 75, 33
1, 60720, Note_on_c, 0, 56, 29
1, 60720, Note_on_c, 0, 59, 29
1, 60720, Note_on_c, 0, 65, 29
1, 60780, Note_on_c, 0, 65, 0
1, 60780, Note_on_c, 0, 56, 0
1, 60780, Note_on_c, 0, 71, 0
1, 60780, Note_on_c, 0, 75, 0
1, 60780, Note_on_c, 0, 59, 0
1, 60900, Note_on_c, 0, 72, 25
1, 60960, Tempo, 517241
1, 60960, Note_on_c, 0, 72, 0
1, 60960, Note_on_c, 0, 71, 28
1, 60960, Note_on_c, 0, 73, 33
1, 60960, Note_on_c, 0, 56, 29
1, 60960, Note_on_c, 0, 59, 29
1, 60960, Note_on_c, 0, 65, 29
1, 61020, Note_on_c, 0, 65, 0
1, 61020, Note_on_c, 0, 56, 0
1, 61020, Note_on_c, 0, 71, 0
1, 61020, Note_on_c, 0, 73, 0
1, 61020, Note_on_c, 0, 59, 0
1, 61140, Note_on_c, 0, 74, 25
1, 61200, Note_on_c, 0, 74, 0
1, 61200, Note_on_c, 0, 75, 38
1, 61200, Note_on_c, 0, 71, 38
1, 61200, Note_on_c, 0, 59, 29
1, 61200, Note_on_c, 0, 56, 29
1, 61200, Note_on_c, 0, 65, 29
1, 61260, Note_on_c, 0, 65, 0
1, 61260, Note_on_c, 0, 59, 0
1, 61260, Note_on_c, 0, 75, 0
1, 61260, Note_on_c, 0, 71, 0
1, 61260, Note_on_c, 0, 56, 0
1, 61920, Tempo, 648649
1, 61920, Note_on_c, 0, 57, 46
1, 62005, Control_c, 0, 64, 127
1, 62400, Tempo, 736196
1, 62400, Note_on_c, 0, 65, 63
1, 62400, Note_on_c, 0, 49, 29
1, 62640, Tempo, 784314
1, 62880, Tempo, 816327
1, 63120, Tempo, 952381
1, 63120, Note_on_c, 0, 65, 0
1, 63120, Note_on_c, 0, 64, 68
1, 63133, Control_c, 0, 64, 0
1, 63212, Control_c, 0, 64, 127
1, 63360, Tempo, 1027397
1, 63360, Note_on_c, 0, 64, 0
1, 63360, Note_on_c, 0, 57, 0
1, 63360, Note_on_c, 0, 63, 49
1, 63360, Note_on_c, 0, 58, 41
1, 63360, Note_on_c, 0, 42, 24
1, 63368, Control_c, 0, 64, 0
1, 63480, Tempo, 534283
1, 63540, Note_on_c, 0, 74, 25
1, 63560, Control_c, 0, 64, 127
1, 63600, Tempo, 528634
1, 63600, Note_on_c, 0, 74, 0
1, 63600, Note_on_c, 0, 70, 28
1, 63600, Note_on_c, 0, 75, 33
1, 63600, Note_on_c, 0, 58, 29
1, 63600, Note_on_c, 0, 61, 29
1, 63600, Note_on_c, 0, 66, 29
1, 63632, Control_c, 0, 64, 0
1, 63660, Note_on_c, 0, 66, 0
1, 63660, Note_on_c, 0, 61, 0
1, 63660, Note_on_c, 0, 58, 0
1, 63660, Note_on_c, 0, 70, 0
1, 63660, Note_on_c, 0, 75, 0
1, 63780, Note_on_c, 0, 72, 25
1, 63806, Control_c, 0, 64, 127
1, 63840, Tempo, 517241
1, 63840, Note_on_c, 0, 72, 0
1, 63840, Note_on_c, 0, 70, 28
1, 63840, Note_on_c, 0, 73, 33
1, 63840, Note_on_c, 0, 58, 29
1, 63840, Note_on_c, 0, 61, 29
1, 63840, Note_on_c, 0, 66, 29
1, 63869, Control_c, 0, 64, 0
1, 63900, Note_on_c, 0, 66, 0
1, 63900, Note_on_c, 0, 61, 0
1, 63900, Note_on_c, 0, 58, 0
1, 63900, Note_on_c, 0, 70, 0
1, 63900, Note_on_c, 0, 73, 0
1, 64020, Note_on_c, 0, 74, 25
1, 64029, Control_c, 0, 64, 127
1, 64080, Note_on_c, 0, 74, 0
1, 64080, Note_on_c, 0, 75, 38
1, 64080, Note_on_c, 0, 70, 38
1, 64080, Note_on_c, 0, 61, 29
1, 64080, Note_on_c, 0, 58, 29
1, 64080, Note_on_c, 0, 66, 29
1, 64140, Note_on_c, 0, 66, 0
1, 64140, Note_on_c, 0, 58, 0
1, 64140, Note_on_c, 0, 61, 0
1, 64140, Note_on_c, 0, 75, 0
1, 64140, Note_on_c, 0, 70, 0
1, 64177, Control_c, 0, 64, 0
1, 64320, Note_on_c, 0, 42, 0
1, 64320, Note_on_c, 0, 58, 0
1, 64320, Note_on_c, 0, 63, 0
1, 64320, Note_on_c, 0, 49, 0
1, 64500, Tempo, 534283
1, 64500, Note_on_c, 0, 74, 25
1, 64512, Control_c, 0, 64, 127
1, 64560, Tempo, 528634
1, 64560, Note_on_c, 0, 74, 0
1, 64560, Note_on_c, 0, 70, 28
1, 64560, Note_on_c, 0, 75, 33
1, 64560, Note_on_c, 0, 58, 29
1, 64560, Note_on_c, 0, 61, 29
1, 64560, Note_on_c, 0, 66, 29
1, 64575, Control_c, 0, 64, 0
1, 64620, Note_on_c, 0, 66, 0
1, 64620, Note_on_c, 0, 58, 0
1, 64620, Note_on_c, 0, 70, 0
1, 64620, Note_on_c, 0, 75, 0
1, 64620, Note_on_c, 0, 61, 0
1, 64740, Note_on_c, 0, 72, 25
1, 64752, Control_c, 0, 64, 127
1, 64800, Tempo, 517241
1, 64800, Note_on_c, 0, 72, 0
1, 64800, Note_on_c, 0, 70, 28
1, 64800, Note_on_c, 0, 73, 33
1, 64800, Note_on_c, 0, 58, 29
1, 64800, Note_on_c, 0, 61, 29
1, 64800, Note_on_c, 0, 66, 29
1, 64820, Control_c, 0, 64, 0
1, 64860, Note_on_c, 0, 66, 0
1, 64860, Note_on_c, 0, 58, 0
1, 64860, Note_on_c, 0, 70, 0
1, 64860, Note_on_c, 0, 73, 0
1, 64860, Note_on_c, 0, 61, 0
1, 64980, Note_on_c, 0, 74, 25
1, 64989, Control_c, 0, 64, 127
1, 65040, Note_on_c, 0, 74, 0
1, 65040, Note_on_c, 0, 75, 38
1, 65040, Note_on_c, 0, 70, 38
1, 65040, Note_on_c, 0, 61, 29
1, 65040, Note_on_c, 0, 58, 29
1, 65040, Note_on_c, 0, 66, 29
1, 65069, Control_c, 0, 64, 0
1, 65100, Note_on_c, 0, 66, 0
1, 65100, Note_on_c, 0, 61, 0
1, 65100, Note_on_c, 0, 75, 0
1, 65100, Note_on_c, 0, 70, 0
1, 65100, Note_on_c, 0, 58, 0
1, 65760, Tempo, 648649
1, 65760, Note_on_c, 0, 69, 50
1, 65760, Note_on_c, 0, 57, 42
1, 66240, Tempo, 736196
1, 66240, Note_on_c, 0, 57, 0
1, 66240, Note_on_c, 0, 69, 0
1, 66240, Note_on_c, 0, 77, 63
1, 66240, Note_on_c, 0, 65, 53
1, 66300, Control_c, 0, 64, 127
1, 66480, Tempo, 784314
1, 66480, Note_on_c, 0, 65, 0
1, 66480, Note_on_c, 0, 77, 0
1, 66480, Note_on_c, 0, 80, 74
1, 66480, Note_on_c, 0, 68, 62
1, 66720, Tempo, 816327
1, 66960, Tempo, 952381
1, 66960, Note_on_c, 0, 68, 0
1, 66960, Note_on_c, 0, 80, 0
1, 66960, Note_on_c, 0, 78, 68
1, 66960, Note_on_c, 0, 66, 57
1, 66973, Control_c, 0, 64, 0
1, 67052, Control_c, 0, 64, 127
1, 67200, Tempo, 517688
1, 67200, Note_on_c, 0, 66, 0
1, 67200, Note_on_c, 0, 78, 0
1, 67200, Note_on_c, 0, 70, 57
1, 67200, Note_on_c, 0, 75, 68
1, 67200, Note_on_c, 0, 49, 29
1, 67200, Control_c, 0, 64, 0
1, 67271, Control_c, 0, 64, 127
1, 67320, Note_on_c, 0, 75, 0
1, 67320, Note_on_c, 0, 78, 74
1, 67440, Tempo, 517688
1, 67440, Note_on_c, 0, 70, 0
1, 67440, Note_on_c, 0, 68, 72
1, 67440, Note_on_c, 0, 65, 49
1, 67440, Note_on_c, 0, 56, 41
1, 67440, Note_on_c, 0, 59, 41
1, 67560, Tempo, 556070
1, 67560, Note_on_c, 0, 78, 0
1, 67560, Note_on_c, 0, 77, 68
1, 67680, Tempo, 517688
1, 67680, Note_on_c, 0, 77, 0
1, 67680, Note_on_c, 0, 68, 0
1, 67680, Note_on_c, 0, 65, 0
1, 67680, Note_on_c, 0, 73, 78
1, 67680, Note_on_c, 0, 66, 66
1, 67680, Note_on_c, 0, 63, 49
1, 67687, Control_c, 0, 64, 0
1, 67765, Control_c, 0, 64, 127
1, 67920, Tempo, 536193
1, 67920, Note_on_c, 0, 63, 0
1, 67920, Note_on_c, 0, 66, 0
1, 67920, Note_on_c, 0, 65, 57
1, 67920, Note_on_c, 0, 61, 41
1, 68160, Tempo, 550964
1, 68160, Note_on_c, 0, 61, 0
1, 68160, Note_on_c, 0, 56, 0
1, 68160, Note_on_c, 0, 73, 0
1, 68160, Note_on_c, 0, 59, 0
1, 68160, Note_on_c, 0, 65, 0
1, 68160, Note_on_c, 0, 49, 0
1, 68160, Note_on_c, 0, 63, 48
1, 68160, Note_on_c, 0, 68, 57
1, 68160, Note_on_c, 0, 54, 41
1, 68160, Note_on_c, 0, 59, 34
1, 68160, Control_c, 0, 64, 0
1, 68231, Control_c, 0, 64, 127
1, 68280, Note_on_c, 0, 68, 0
1, 68280, Note_on_c, 0, 71, 61
1, 68400, Tempo, 597610
1, 68400, Note_on_c, 0, 63, 0
1, 68400, Note_on_c, 0, 54, 0
1, 68400, Note_on_c, 0, 61, 55
1, 68400, Note_on_c, 0, 53, 41
1, 68520, Tempo, 706714
1, 68520, Note_on_c, 0, 71, 0
1, 68520, Note_on_c, 0, 70, 57
1, 68640, Tempo, 642398
1, 68640, Note_on_c, 0, 70, 0
1, 68640, Note_on_c, 0, 53, 0
1, 68640, Note_on_c, 0, 61, 0
1, 68640, Note_on_c, 0, 59, 42
1, 68640, Note_on_c, 0, 61, 50
1, 68640, Note_on_c, 0, 51, 36
1, 68647, Control_c, 0, 64, 0
1, 68725, Control_c, 0, 64, 127
1, 68880, Tempo, 732601
1, 68880, Note_on_c, 0, 51, 0
1, 68880, Note_on_c, 0, 59, 0
1, 68880, Note_on_c, 0, 58, 42
1, 68880, Note_on_c, 0, 49, 34
1, 69120, Note_on_c, 0, 61, 0
1, 69120, Note_on_c, 0, 42, 29
1, 69120, Control_c, 0, 64, 0
1, 69360, Note_on_c, 0, 49, 0
1, 69360, Note_on_c, 0, 58, 0
1, 69360, Note_on_c, 0, 49, 34
1, 69600, Tempo, 648649
1, 69600, Note_on_c, 0, 57, 46
1, 69685, Control_c, 0, 64, 127
1, 69840, Note_on_c, 0, 49, 0
1, 69840, Note_on_c, 0, 59, 0
1, 69840, Note_on_c, 0, 49, 34
1, 69853, Control_c, 0, 64, 0
1, 69953, Control_c, 0, 64, 127
1, 70080, Tempo, 736196
1, 70080, Note_on_c, 0, 42, 0
1, 70080, Note_on_c, 0, 65, 63
1, 70080, Note_on_c, 0, 43, 29
1, 70092, Control_c, 0, 64, 0
1, 70160, Control_c, 0, 64, 127
1, 70320, Tempo, 784314
1, 70320, Note_on_c, 0, 49, 0
1, 70320, Note_on_c, 0, 49, 42
1, 70341, Control_c, 0, 64, 0
1, 70435, Control_c, 0, 64, 127
1, 70560, Tempo, 816327
1, 70560, Note_on_c, 0, 57, 0
1, 70560, Note_on_c, 0, 58, 68
1, 70583, Control_c, 0, 64, 0
1, 70697, Control_c, 0, 64, 127
1, 70800, Tempo, 952381
1, 70800, Note_on_c, 0, 65, 0
1, 70800, Note_on_c, 0, 64, 68
1, 70813, Control_c, 0, 64, 0
1, 70892, Control_c, 0, 64, 127
1, 71040, Tempo, 1027397
1, 71040, Note_on_c, 0, 64, 0
1, 71040, Note_on_c, 0, 58, 0
1, 71040, Note_on_c, 0, 43, 0
1, 71040, Note_on_c, 0, 49, 0
1, 71040, Note_on_c, 0, 63, 49
1, 71040, Note_on_c, 0, 59, 41
1, 71040, Note_on_c, 0, 49, 29
1, 71040, Note_on_c, 0, 44, 24
1, 71048, Control_c, 0, 64, 0
1, 71160, Tempo, 534283
1, 71220, Note_on_c, 0, 74, 25
1, 71280, Tempo, 528634
1, 71280, Note_on_c, 0, 74, 0
1, 71280, Note_on_c, 0, 71, 28
1, 71280, Note_on_c, 0, 75, 33
1, 71280, Note_on_c, 0, 56, 29
1, 71280, Note_on_c, 0, 59, 29
1, 71280, Note_on_c, 0, 66, 29
1, 71340, Note_on_c, 0, 66, 0
1, 71340, Note_on_c, 0, 59, 0
1, 71340, Note_on_c, 0, 56, 0
1, 71340, Note_on_c, 0, 71, 0
1, 71340, Note_on_c, 0, 75, 0
1, 71460, Note_on_c, 0, 72, 25
1, 71520, Tempo, 517241
1, 71520, Note_on_c, 0, 72, 0
1, 71520, Note_on_c, 0, 71, 28
1, 71520, Note_on_c, 0, 73, 33
1, 71520, Note_on_c, 0, 56, 29
1, 71520, Note_on_c, 0, 59, 29
1, 71520, Note_on_c, 0, 65, 29
1, 71580, Note_on_c, 0, 65, 0
1, 71580, Note_on_c, 0, 59, 0
1, 71580, Note_on_c, 0, 56, 0
1, 71580, Note_on_c, 0, 71, 0
1, 71580, Note_on_c, 0, 73, 0
1, 71700, Note_on_c, 0, 74, 25
1, 71760, Note_on_c, 0, 74, 0
1, 71760, Note_on_c, 0, 75, 38
1, 71760, Note_on_c, 0, 71, 38
1, 71760, Note_on_c, 0, 59, 29
1, 71760, Note_on_c, 0, 56, 29
1, 71760, Note_on_c, 0, 63, 29
1, 71820, Note_on_c, 0, 63, 0
1, 71820, Note_on_c, 0, 56, 0
1, 71820, Note_on_c, 0, 59, 0
1, 71820, Note_on_c, 0, 75, 0
1, 71820, Note_on_c, 0, 71, 0
1, 72000, Note_on_c, 0, 44, 0
1, 72000, Note_on_c, 0, 49, 0
1, 72000, Note_on_c, 0, 59, 0
1, 72000, Note_on_c, 0, 63, 0
1, 72240, Note_on_c, 0, 54, 34
1, 72420, Tempo, 732601
1, 72480, Tempo, 648649
1, 72480, Note_on_c, 0, 54, 0
1, 72480, Note_on_c, 0, 57, 46
1, 72480, Note_on_c, 0, 53, 34
1, 72565, Control_c, 0, 64, 127
1, 72720, Note_on_c, 0, 53, 0
1, 72720, Note_on_c, 0, 51, 34
1, 72733, Control_c, 0, 64, 0
1, 72833, Control_c, 0, 64, 127
1, 72960, Tempo, 736196
1, 72960, Note_on_c, 0, 65, 63
1, 72972, Control_c, 0, 64, 0
1, 73040, Control_c, 0, 64, 127
1, 73200, Tempo, 784314
1, 73221, Control_c, 0, 64, 0
1, 73315, Control_c, 0, 64, 127
1, 73440, Tempo, 816327
1, 73440, Note_on_c, 0, 51, 0
1, 73440, Note_on_c, 0, 48, 32
1, 73463, Control_c, 0, 64, 0
1, 73577, Control_c, 0, 64, 127
1, 73680, Tempo, 952381
1, 73680, Note_on_c, 0, 65, 0
1, 73680, Note_on_c, 0, 64, 53
1, 73693, Control_c, 0, 64, 0
1, 73772, Control_c, 0, 64, 127
1, 73920, Tempo, 1027397
1, 73920, Note_on_c, 0, 64, 0
1, 73920, Note_on_c, 0, 48, 0
1, 73920, Note_on_c, 0, 57, 0
1, 73920, Note_on_c, 0, 63, 49
1, 73920, Note_on_c, 0, 58, 41
1, 73920, Note_on_c, 0, 49, 29
1, 73920, Note_on_c, 0, 42, 24
1, 73928, Control_c, 0, 64, 0
1, 74040, Tempo, 534283
1, 74100, Note_on_c, 0, 74, 25
1, 74109, Control_c, 0, 64, 127
1, 74160, Tempo, 528634
1, 74160, Note_on_c, 0, 74, 0
1, 74160, Note_on_c, 0, 70, 28
1, 74160, Note_on_c, 0, 75, 33
1, 74160, Note_on_c, 0, 58, 29
1, 74160, Note_on_c, 0, 61, 29
1, 74160, Note_on_c, 0, 66, 29
1, 74220, Note_on_c, 0, 66, 0
1, 74220, Note_on_c, 0, 61, 0
1, 74220, Note_on_c, 0, 58, 0
1, 74220, Note_on_c, 0, 70, 0
1, 74220, Note_on_c, 0, 75, 0
1, 74252, Control_c, 0, 64, 0
1, 74340, Note_on_c, 0, 72, 25
1, 74395, Control_c, 0, 64, 127
1, 74400, Tempo, 517241
1, 74400, Note_on_c, 0, 72, 0
1, 74400, Note_on_c, 0, 70, 28
1, 74400, Note_on_c, 0, 73, 33
1, 74400, Note_on_c, 0, 58, 29
1, 74400, Note_on_c, 0, 61, 29
1, 74400, Note_on_c, 0, 65, 29
1, 74460, Note_on_c, 0, 65, 0
1, 74460, Note_on_c, 0, 61, 0
1, 74460, Note_on_c, 0, 58, 0
1, 74460, Note_on_c, 0, 70, 0
1, 74460, Note_on_c, 0, 73, 0
1, 74460, Control_c, 0, 64, 0
1, 74580, Note_on_c, 0, 74, 25
1, 74617, Control_c, 0, 64, 127
1, 74640, Note_on_c, 0, 74, 0
1, 74640, Note_on_c, 0, 75, 38
1, 74640, Note_on_c, 0, 70, 38
1, 74640, Note_on_c, 0, 61, 29
1, 74640, Note_on_c, 0, 58, 29
1, 74640, Note_on_c, 0, 63, 29
1, 74700, Note_on_c, 0, 63, 0
1, 74700, Note_on_c, 0, 58, 0
1, 74700, Note_on_c, 0, 61, 0
1, 74700, Note_on_c, 0, 75, 0
1, 74700, Note_on_c, 0, 70, 0
1, 74732, Control_c, 0, 64, 0
1, 74880, Note_on_c, 0, 42, 0
1, 74880, Note_on_c, 0, 49, 0
1, 74880, Note_on_c, 0, 58, 0
1, 74880, Note_on_c, 0, 63, 0
1, 75360, Tempo, 648649
1, 75360, Note_on_c, 0, 73, 50
1, 75360, Note_on_c, 0, 61, 42
1, 75840, Tempo, 736196
1, 75840, Note_on_c, 0, 61, 0
1, 75840, Note_on_c, 0, 73, 0
1, 75840, Note_on_c, 0, 81, 63
1, 75840, Note_on_c, 0, 69, 53
1, 75900, Control_c, 0, 64, 127
1, 76080, Tempo, 784314
1, 76080, Note_on_c, 0, 69, 0
1, 76080, Note_on_c, 0, 81, 0
1, 76080, Note_on_c, 0, 83, 74
1, 76080, Note_on_c, 0, 71, 62
1, 76320, Tempo, 816327
1, 76560, Tempo, 952381
1, 76560, Note_on_c, 0, 71, 0
1, 76560, Note_on_c, 0, 83, 0
1, 76560, Note_on_c, 0, 82, 68
1, 76560, Note_on_c, 0, 70, 57
1, 76573, Control_c, 0, 64, 0
1, 76652, Control_c, 0, 64, 127
1, 76800, Tempo, 517688
1, 76800, Note_on_c, 0, 70, 0
1, 76800, Note_on_c, 0, 82, 0
1, 76800, Note_on_c, 0, 70, 57
1, 76800, Note_on_c, 0, 77, 68
1, 76800, Note_on_c, 0, 47, 29
1, 76800, Control_c, 0, 64, 0
1, 76871, Control_c, 0, 64, 127
1, 76920, Note_on_c, 0, 77, 0
1, 76920, Note_on_c, 0, 80, 74
1, 77040, Tempo, 517688
1, 77040, Note_on_c, 0, 70, 0
1, 77040, Note_on_c, 0, 68, 72
1, 77040, Note_on_c, 0, 59, 41
1, 77040, Note_on_c, 0, 63, 49
1, 77040, Note_on_c, 0, 56, 30
1, 77040, Note_on_c, 0, 54, 30
1, 77160, Tempo, 556070
1, 77160, Note_on_c, 0, 80, 0
1, 77160, Note_on_c, 0, 78, 68
1, 77280, Tempo, 517688
1, 77280, Note_on_c, 0, 78, 0
1, 77280, Note_on_c, 0, 68, 0
1, 77280, Note_on_c, 0, 75, 78
1, 77280, Note_on_c, 0, 66, 66
1, 77287, Control_c, 0, 64, 0
1, 77365, Control_c, 0, 64, 127
1, 77520, Tempo, 536193
1, 77520, Note_on_c, 0, 66, 0
1, 77520, Note_on_c, 0, 65, 57
1, 77760, Tempo, 525855
1, 77760, Note_on_c, 0, 65, 0
1, 77760, Note_on_c, 0, 75, 0
1, 77760, Note_on_c, 0, 54, 0
1, 77760, Note_on_c, 0, 59, 0
1, 77760, Note_on_c, 0, 47, 0
1, 77760, Note_on_c, 0, 56, 0
1, 77760, Note_on_c, 0, 63, 0
1, 77760, Note_on_c, 0, 70, 57
1, 77760, Note_on_c, 0, 63, 41
1, 77760, Control_c, 0, 64, 0
1, 77831, Control_c, 0, 64, 127
1, 77880, Note_on_c, 0, 70, 0
1, 77880, Note_on_c, 0, 73, 61
1, 78000, Tempo, 570885
1, 78000, Note_on_c, 0, 63, 0
1, 78000, Note_on_c, 0, 61, 41
1, 78120, Note_on_c, 0, 73, 0
1, 78120, Note_on_c, 0, 71, 57
1, 78240, Tempo, 521286
1, 78240, Note_on_c, 0, 71, 0
1, 78240, Note_on_c, 0, 61, 0
1, 78240, Note_on_c, 0, 65, 50
1, 78240, Note_on_c, 0, 59, 36
1, 78247, Control_c, 0, 64, 0
1, 78325, Control_c, 0, 64, 127
1, 78400, Note_on_c, 0, 59, 0
1, 78400, Note_on_c, 0, 58, 36
1, 78560, Note_on_c, 0, 58, 0
1, 78560, Note_on_c, 0, 56, 36
1, 78600, Tempo, 731707
1, 78600, Note_on_c, 0, 65, 0
1, 78600, Note_on_c, 0, 66, 50
1, 78720, Tempo, 525855
1, 78720, Note_on_c, 0, 66, 0
1, 78720, Note_on_c, 0, 56, 0
1, 78720, Note_on_c, 0, 54, 31
1, 78720, Note_on_c, 0, 59, 31
1, 78720, Note_on_c, 0, 63, 31
1, 78720, Note_on_c, 0, 46, 31
1, 78720, Control_c, 0, 64, 0
1, 78798, Control_c, 0, 64, 127
1, 78840, Note_on_c, 0, 46, 0
1, 78840, Note_on_c, 0, 49, 41
1, 78960, Tempo, 570885
1, 79080, Note_on_c, 0, 49, 0
1, 79080, Note_on_c, 0, 47, 37
1, 79095, Control_c, 0, 64, 0
1, 79200, Note_on_c, 0, 47, 0
1, 79200, Note_on_c, 0, 37, 31
1, 79680, Tempo, 547995
1, 79800, Note_on_c, 0, 37, 0
1, 79800, Note_on_c, 0, 39, 33
1, 80040, Tempo, 606122
1, 80040, Note_on_c, 0, 39, 0
1, 80040, Note_on_c, 0, 41, 27
1, 80160, Tempo, 550509
1, 80160, Note_on_c, 0, 41, 0
1, 80160, Note_on_c, 0, 39, 34
1, 80400, Note_on_c, 0, 39, 0
1, 80400, Note_on_c, 0, 37, 31
1, 80880, Tempo, 528681
1, 81000, Note_on_c, 0, 70, 43
1, 81092, Control_c, 0, 64, 127
1, 81120, Tempo, 547995
1, 81120, Note_on_c, 0, 70, 0
1, 81120, Note_on_c, 0, 68, 47
1, 81360, Note_on_c, 0, 68, 0
1, 81360, Note_on_c, 0, 70, 41
1, 81600, Note_on_c, 0, 70, 0
1, 81840, Tempo, 524063
1, 81960, Note_on_c, 0, 70, 43
1, 81960, Control_c, 0, 64, 0
1, 82052, Control_c, 0, 64, 127
1, 82080, Tempo, 543036
1, 82080, Note_on_c, 0, 70, 0
1, 82080, Note_on_c, 0, 68, 47
1, 82320, Tempo, 603015
1, 82320, Note_on_c, 0, 68, 0
1, 82320, Note_on_c, 0, 70, 41
1, 82560, Tempo, 525855
1, 82560, Note_on_c, 0, 70, 0
1, 82560, Note_on_c, 0, 37, 0
1, 82560, Note_on_c, 0, 63, 0
1, 82560, Note_on_c, 0, 59, 0
1, 82560, Note_on_c, 0, 54, 0
1, 82560, Note_on_c, 0, 54, 31
1, 82560, Note_on_c, 0, 59, 31
1, 82560, Note_on_c, 0, 61, 31
1, 82560, Note_on_c, 0, 46, 31
1, 82560, Control_c, 0, 64, 0
1, 82638, Control_c, 0, 64, 127
1, 82680, Note_on_c, 0, 46, 0
1, 82680, Note_on_c, 0, 49, 41
1, 82800, Tempo, 570885
1, 82920, Note_on_c, 0, 49, 0
1, 82920, Note_on_c, 0, 47, 37
1, 82935, Control_c, 0, 64, 0
1, 83040, Tempo, 547995
1, 83040, Note_on_c, 0, 47, 0
1, 83040, Note_on_c, 0, 37, 31
1, 83111, Control_c, 0, 64, 127
1, 83160, Note_on_c, 0, 37, 0
1, 83160, Note_on_c, 0, 39, 30
1, 83400, Note_on_c, 0, 39, 0
1, 83400, Note_on_c, 0, 41, 33
1, 83411, Control_c, 0, 64, 0
1, 83520, Note_on_c, 0, 41, 0
1, 83520, Note_on_c, 0, 54, 0
1, 83520, Note_on_c, 0, 53, 31
1, 83520, Note_on_c, 0, 39, 30
1, 83753, Note_on_c, 0, 37, 27
1, 83760, Note_on_c, 0, 39, 0
1, 83880, Tempo, 538165
1, 83880, Note_on_c, 0, 70, 34
1, 83965, Control_c, 0, 64, 127
1, 84000, Tempo, 571483
1, 84000, Note_on_c, 0, 70, 0
1, 84000, Note_on_c, 0, 68, 39
1, 84240, Note_on_c, 0, 68, 0
1, 84240, Note_on_c, 0, 70, 34
1, 84480, Note_on_c, 0, 70, 0
1, 84840, Tempo, 663057
1, 84840, Note_on_c, 0, 70, 33
1, 84850, Control_c, 0, 64, 0
1, 84925, Control_c, 0, 64, 127
1, 84960, Tempo, 710143
1, 84960, Note_on_c, 0, 70, 0
1, 84960, Note_on_c, 0, 68, 40
1, 85080, Tempo, 718649
1, 85200, Note_on_c, 0, 68, 0
1, 85200, Note_on_c, 0, 70, 32
1, 85433, Note_on_c, 0, 37, 0
1, 85440, Key_signature, -3, "major"
1, 85440, Tempo, 549501
1, 85440, Note_on_c, 0, 53, 0
1, 85440, Note_on_c, 0, 59, 0
1, 85440, Note_on_c, 0, 61, 0
1, 85440, Note_on_c, 0, 70, 0
1, 85440, Note_on_c, 0, 70, 39
1, 85440, Control_c, 0, 64, 0
1, 85560, Note_on_c, 0, 70, 0
1, 85560, Note_on_c, 0, 68, 34
1, 85680, Note_on_c, 0, 68, 0
1, 85800, Note_on_c, 0, 70, 42
1, 85920, Tempo, 584283
1, 85920, Note_on_c, 0, 70, 0
1, 85920, Note_on_c, 0, 65, 45
1, 86040, Note_on_c, 0, 65, 0
1, 86160, Tempo, 552029
1, 86160, Note_on_c, 0, 70, 48
1, 86250, Note_on_c, 0, 70, 0
1, 86400, Tempo, 581452
1, 86400, Note_on_c, 0, 68, 39
1, 86520, Note_on_c, 0, 68, 0
1, 86520, Note_on_c, 0, 65, 34
1, 86640, Note_on_c, 0, 65, 0
1, 86760, Note_on_c, 0, 63, 42
1, 86880, Tempo, 640410
1, 86880, Note_on_c, 0, 63, 0
1, 86880, Note_on_c, 0, 59, 45
1, 87000, Note_on_c, 0, 59, 0
1, 87120, Tempo, 611060
1, 87120, Note_on_c, 0, 63, 48
1, 87210, Note_on_c, 0, 63, 0
1, 87360, Tempo, 550055
1, 87360, Note_on_c, 0, 58, 80
1, 87360, Note_on_c, 0, 39, 34
1, 87360, Note_on_c, 0, 46, 40
1, 87360, Control_c, 0, 64, 127
1, 87450, Note_on_c, 0, 46, 0
1, 87450, Note_on_c, 0, 39, 0
1, 87450, Note_on_c, 0, 58, 0
1, 87480, Note_on_c, 0, 58, 74
1, 87600, Tempo, 533950
1, 87600, Note_on_c, 0, 58, 0
1, 87600, Note_on_c, 0, 55, 33
1, 87600, Note_on_c, 0, 53, 28
1, 87690, Note_on_c, 0, 53, 0
1, 87690, Note_on_c, 0, 55, 0
1, 87720, Note_on_c, 0, 60, 74
1, 87840, Tempo, 527333
1, 87840, Note_on_c, 0, 60, 0
1, 87840, Note_on_c, 0, 58, 76
1, 87840, Note_on_c, 0, 46, 47
1, 87840, Note_on_c, 0, 39, 39
1, 87853, Control_c, 0, 64, 0
1, 87930, Note_on_c, 0, 39, 0
1, 87930, Note_on_c, 0, 46, 0
1, 87960, Note_on_c, 0, 58, 0
1, 88050, Note_on_c, 0, 63, 68
1, 88080, Tempo, 564653
1, 88080, Note_on_c, 0, 70, 80
1, 88080, Note_on_c, 0, 53, 34
1, 88080, Note_on_c, 0, 55, 41
1, 88170, Note_on_c, 0, 55, 0
1, 88170, Note_on_c, 0, 63, 0
1, 88170, Note_on_c, 0, 70, 0
1, 88170, Note_on_c, 0, 53, 0
1, 88320, Tempo, 545355
1, 88320, Note_on_c, 0, 58, 80
1, 88320, Note_on_c, 0, 46, 50
1, 88320, Note_on_c, 0, 39, 42
1, 88410, Note_on_c, 0, 39, 0
1, 88410, Note_on_c, 0, 46, 0
1, 88560, Note_on_c, 0, 53, 34
1, 88560, Note_on_c, 0, 55, 40
1, 88650, Note_on_c, 0, 55, 0
1, 88650, Note_on_c, 0, 53, 0
1, 88800, Note_on_c, 0, 46, 43
1, 88800, Note_on_c, 0, 39, 36
1, 88890, Note_on_c, 0, 39, 0
1, 88890, Note_on_c, 0, 46, 0
1, 89040, Note_on_c, 0, 53, 29
1, 89040, Note_on_c, 0, 55, 35
1, 89130, Note_on_c, 0, 55, 0
1, 89130, Note_on_c, 0, 53, 0
1, 89280, Tempo, 512514
1, 89280, Note_on_c, 0, 58, 0
1, 89280, Note_on_c, 0, 58, 64
1, 89280, Note_on_c, 0, 39, 40
1, 89280, Note_on_c, 0, 46, 40
1, 89280, Control_c, 0, 64, 127
1, 89370, Note_on_c, 0, 46, 0
1, 89370, Note_on_c, 0, 39, 0
1, 89400, Note_on_c, 0, 58, 0
1, 89400, Note_on_c, 0, 56, 57
1, 89407, Control_c, 0, 64, 0
1, 89520, Tempo, 529521
1, 89520, Note_on_c, 0, 56, 0
1, 89520, Note_on_c, 0, 53, 33
1, 89520, Note_on_c, 0, 51, 33
1, 89610, Note_on_c, 0, 51, 0
1, 89610, Note_on_c, 0, 53, 0
1, 89640, Note_on_c, 0, 58, 56
1, 89657, Control_c, 0, 64, 127
1, 89760, Note_on_c, 0, 58, 0
1, 89760, Note_on_c, 0, 60, 64
1, 89760, Note_on_c, 0, 39, 40
1, 89760, Note_on_c, 0, 46, 40
1, 89772, Control_c, 0, 64, 0
1, 89850, Note_on_c, 0, 46, 0
1, 89850, Note_on_c, 0, 39, 0
1, 89850, Note_on_c, 0, 60, 0
1, 90000, Tempo, 550055
1, 90000, Note_on_c, 0, 56, 53
1, 90000, Note_on_c, 0, 53, 35
1, 90000, Note_on_c, 0, 51, 35
1, 90090, Note_on_c, 0, 51, 0
1, 90090, Note_on_c, 0, 53, 0
1, 90090, Note_on_c, 0, 56, 0
1, 90240, Tempo, 512514
1, 90240, Note_on_c, 0, 58, 64
1, 90240, Note_on_c, 0, 39, 40
1, 90240, Note_on_c, 0, 46, 40
1, 90240, Control_c, 0, 64, 127
1, 90330, Note_on_c, 0, 46, 0
1, 90330, Note_on_c, 0, 39, 0
1, 90360, Note_on_c, 0, 58, 0
1, 90360, Note_on_c, 0, 56, 57
1, 90367, Control_c, 0, 64, 0
1, 90480, Tempo, 529521
1, 90480, Note_on_c, 0, 56, 0
1, 90480, Note_on_c, 0, 53, 33
1, 90480, Note_on_c, 0, 51, 33
1, 90570, Note_on_c, 0, 51, 0
1, 90570, Note_on_c, 0, 53, 0
1, 90600, Note_on_c, 0, 58, 56
1, 90617, Control_c, 0, 64, 127
1, 90720, Note_on_c, 0, 58, 0
1, 90720, Note_on_c, 0, 59, 64
1, 90720, Note_on_c, 0, 39, 40
1, 90720, Note_on_c, 0, 46, 40
1, 90732, Control_c, 0, 64, 0
1, 90810, Note_on_c, 0, 46, 0
1, 90810, Note_on_c, 0, 39, 0
1, 90810, Note_on_c, 0, 59, 0
1, 90960, Tempo, 550055
1, 90960, Note_on_c, 0, 56, 53
1, 90960, Note_on_c, 0, 53, 35
1, 90960, Note_on_c, 0, 51, 35
1, 91050, Note_on_c, 0, 51, 0
1, 91050, Note_on_c, 0, 53, 0
1, 91050, Note_on_c, 0, 56, 0
1, 91200, Tempo, 512514
1, 91200, Note_on_c, 0, 58, 64
1, 91200, Note_on_c, 0, 46, 54
1, 91236, Control_c, 0, 64, 127
1, 91320, Note_on_c, 0, 46, 0
1, 91320, Note_on_c, 0, 58, 0
1, 91320, Note_on_c, 0, 56, 59
1, 91320, Note_on_c, 0, 44, 50
1, 91405, Control_c, 0, 64, 0
1, 91440, Tempo, 529521
1, 91440, Note_on_c, 0, 44, 0
1, 91440, Note_on_c, 0, 56, 0
1, 91560, Note_on_c, 0, 53, 59
1, 91560, Note_on_c, 0, 41, 50
1, 91650, Note_on_c, 0, 41, 0
1, 91650, Note_on_c, 0, 53, 0
1, 91673, Control_c, 0, 64, 127
1, 91680, Note_on_c, 0, 51, 61
1, 91680, Note_on_c, 0, 39, 51
1, 91786, Control_c, 0, 64, 0
1, 91800, Note_on_c, 0, 39, 0
1, 91800, Note_on_c, 0, 51, 0
1, 91920, Note_on_c, 0, 50, 65
1, 91920, Note_on_c, 0, 38, 55
1, 92040, Note_on_c, 0, 38, 0
1, 92040, Note_on_c, 0, 50, 0
1, 92160, Tempo, 543036
1, 92160, Note_on_c, 0, 48, 71
1, 92160, Note_on_c, 0, 36, 60
1, 92167, Control_c, 0, 64, 127
1, 92280, Note_on_c, 0, 36, 0
1, 92280, Note_on_c, 0, 48, 0
1, 92280, Control_c, 0, 64, 0
1, 92400, Tempo, 557258
1, 92400, Note_on_c, 0, 43, 68
1, 92400, Note_on_c, 0, 31, 57
1, 92443, Control_c, 0, 64, 127
1, 92520, Note_on_c, 0, 31, 0
1, 92520, Note_on_c, 0, 43, 0
1, 92541, Control_c, 0, 64, 0
1, 92640, Tempo, 569746
1, 92640, Note_on_c, 0, 48, 76
1, 92640, Note_on_c, 0, 36, 64
1, 92718, Control_c, 0, 64, 127
1, 92760, Note_on_c, 0, 36, 0
1, 92760, Note_on_c, 0, 48, 0
1, 92796, Control_c, 0, 64, 0
1, 92880, Note_on_c, 0, 50, 80
1, 92880, Note_on_c, 0, 38, 68
1, 92944, Control_c, 0, 64, 127
1, 93000, Note_on_c, 0, 38, 0
1, 93000, Note_on_c, 0, 50, 0
1, 93057, Control_c, 0, 64, 0
1, 93120, Tempo, 512514
1, 93120, Note_on_c, 0, 70, 80
1, 93120, Note_on_c, 0, 39, 40
1, 93120, Note_on_c, 0, 46, 40
1, 93120, Control_c, 0, 64, 127
1, 93210, Note_on_c, 0, 46, 0
1, 93210, Note_on_c, 0, 39, 0
1, 93240, Note_on_c, 0, 70, 0
1, 93240, Note_on_c, 0, 68, 74
1, 93247, Control_c, 0, 64, 0
1, 93360, Tempo, 529521
1, 93360, Note_on_c, 0, 68, 0
1, 93360, Note_on_c, 0, 63, 45
1, 93360, Note_on_c, 0, 59, 45
1, 93360, Note_on_c, 0, 56, 33
1, 93360, Note_on_c, 0, 53, 33
1, 93450, Note_on_c, 0, 53, 0
1, 93450, Note_on_c, 0, 56, 0
1, 93480, Note_on_c, 0, 59, 0
1, 93480, Note_on_c, 0, 63, 0
1, 93480, Note_on_c, 0, 70, 74
1, 93497, Control_c, 0, 64, 127
1, 93600, Note_on_c, 0, 70, 0
1, 93600, Note_on_c, 0, 65, 76
1, 93600, Note_on_c, 0, 39, 40
1, 93600, Note_on_c, 0, 46, 40
1, 93612, Control_c, 0, 64, 0
1, 93690, Note_on_c, 0, 46, 0
1, 93690, Note_on_c, 0, 39, 0
1, 93720, Note_on_c, 0, 65, 0
1, 93840, Note_on_c, 0, 59, 45
1, 93840, Note_on_c, 0, 63, 45
1, 93840, Note_on_c, 0, 70, 80
1, 93840, Note_on_c, 0, 56, 35
1, 93840, Note_on_c, 0, 53, 35
1, 93930, Note_on_c, 0, 53, 0
1, 93930, Note_on_c, 0, 70, 0
1, 93930, Note_on_c, 0, 56, 0
1, 93960, Note_on_c, 0, 63, 0
1, 93960, Note_on_c, 0, 59, 0
1, 94080, Tempo, 512514
1, 94080, Note_on_c, 0, 68, 80
1, 94080, Note_on_c, 0, 39, 40
1, 94080, Note_on_c, 0, 46, 40
1, 94108, Control_c, 0, 64, 127
1, 94170, Note_on_c, 0, 46, 0
1, 94170, Note_on_c, 0, 39, 0
1, 94200, Note_on_c, 0, 68, 0
1, 94200, Note_on_c, 0, 65, 80
1, 94207, Control_c, 0, 64, 0
1, 94320, Tempo, 527333
1, 94320, Note_on_c, 0, 65, 0
1, 94320, Note_on_c, 0, 59, 45
1, 94320, Note_on_c, 0, 56, 33
1, 94320, Note_on_c, 0, 53, 33
1, 94410, Note_on_c, 0, 53, 0
1, 94410, Note_on_c, 0, 56, 0
1, 94410, Note_on_c, 0, 59, 0
1, 94440, Note_on_c, 0, 63, 74
1, 94479, Control_c, 0, 64, 127
1, 94560, Tempo, 550055
1, 94560, Note_on_c, 0, 63, 0
1, 94560, Note_on_c, 0, 59, 80
1, 94560, Note_on_c, 0, 39, 40
1, 94560, Note_on_c, 0, 46, 40
1, 94613, Control_c, 0, 64, 0
1, 94650, Note_on_c, 0, 46, 0
1, 94650, Note_on_c, 0, 39, 0
1, 94680, Note_on_c, 0, 59, 0
1, 94800, Tempo, 527333
1, 94800, Note_on_c, 0, 63, 80
1, 94800, Note_on_c, 0, 59, 72
1, 94800, Note_on_c, 0, 56, 33
1, 94800, Note_on_c, 0, 53, 33
1, 94860, Note_on_c, 0, 53, 0
1, 94860, Note_on_c, 0, 63, 0
1, 94860, Note_on_c, 0, 59, 0
1, 94860, Note_on_c, 0, 56, 0
1, 95040, Tempo, 550055
1, 95040, Note_on_c, 0, 58, 80
1, 95040, Note_on_c, 0, 39, 34
1, 95040, Note_on_c, 0, 46, 40
1, 95040, Control_c, 0, 64, 127
1, 95130, Note_on_c, 0, 46, 0
1, 95130, Note_on_c, 0, 39, 0
1, 95130, Note_on_c, 0, 58, 0
1, 95160, Note_on_c, 0, 58, 74
1, 95280, Tempo, 533950
1, 95280, Note_on_c, 0, 58, 0
1, 95280, Note_on_c, 0, 55, 33
1, 95280, Note_on_c, 0, 53, 28
1, 95370, Note_on_c, 0, 53, 0
1, 95370, Note_on_c, 0, 55, 0
1, 95400, Note_on_c, 0, 60, 74
1, 95520, Tempo, 527333
1, 95520, Note_on_c, 0, 60, 0
1, 95520, Note_on_c, 0, 58, 76
1, 95520, Note_on_c, 0, 46, 47
1, 95520, Note_on_c, 0, 39, 39
1, 95533, Control_c, 0, 64, 0
1, 95610, Note_on_c, 0, 39, 0
1, 95610, Note_on_c, 0, 46, 0
1, 95640, Note_on_c, 0, 58, 0
1, 95730, Note_on_c, 0, 63, 68
1, 95760, Tempo, 564653
1, 95760, Note_on_c, 0, 70, 80
1, 95760, Note_on_c, 0, 53, 34
1, 95760, Note_on_c, 0, 55, 41
1, 95850, Note_on_c, 0, 55, 0
1, 95850, Note_on_c, 0, 63, 0
1, 95850, Note_on_c, 0, 70, 0
1, 95850, Note_on_c, 0, 53, 0
1, 96000, Tempo, 545355
1, 96000, Note_on_c, 0, 58, 80
1, 96000, Note_on_c, 0, 46, 50
1, 96000, Note_on_c, 0, 39, 42
1, 96090, Note_on_c, 0, 39, 0
1, 96090, Note_on_c, 0, 46, 0
1, 96240, Note_on_c, 0, 53, 34
1, 96240, Note_on_c, 0, 55, 40
1, 96330, Note_on_c, 0, 55, 0
1, 96330, Note_on_c, 0, 53, 0
1, 96480, Note_on_c, 0, 46, 43
1, 96480, Note_on_c, 0, 39, 36
1, 96570, Note_on_c, 0, 39, 0
1, 96570, Note_on_c, 0, 46, 0
1, 96720, Note_on_c, 0, 53, 29
1, 96720, Note_on_c, 0, 55, 35
1, 96810, Note_on_c, 0, 55, 0
1, 96810, Note_on_c, 0, 53, 0
1, 96960, Tempo, 512514
1, 96960, Note_on_c, 0, 58, 0
1, 96960, Note_on_c, 0, 58, 55
1, 96960, Note_on_c, 0, 42, 34
1, 96960, Note_on_c, 0, 49, 40
1, 96960, Control_c, 0, 64, 127
1, 97050, Note_on_c, 0, 49, 0
1, 97050, Note_on_c, 0, 42, 0
1, 97050, Note_on_c, 0, 58, 0
1, 97080, Note_on_c, 0, 58, 49
1, 97087, Control_c, 0, 64, 0
1, 97200, Tempo, 529521
1, 97200, Note_on_c, 0, 58, 0
1, 97200, Note_on_c, 0, 49, 28
1, 97200, Note_on_c, 0, 56, 33
1, 97200, Note_on_c, 0, 54, 28
1, 97260, Note_on_c, 0, 49, 0
1, 97290, Note_on_c, 0, 54, 0
1, 97290, Note_on_c, 0, 56, 0
1, 97320, Note_on_c, 0, 60, 53
1, 97337, Control_c, 0, 64, 127
1, 97440, Note_on_c, 0, 60, 0
1, 97440, Note_on_c, 0, 58, 61
1, 97440, Note_on_c, 0, 42, 34
1, 97440, Note_on_c, 0, 49, 40
1, 97452, Control_c, 0, 64, 0
1, 97530, Note_on_c, 0, 49, 0
1, 97530, Note_on_c, 0, 42, 0
1, 97530, Note_on_c, 0, 58, 0
1, 97680, Tempo, 550055
1, 97680, Note_on_c, 0, 61, 53
1, 97680, Note_on_c, 0, 49, 29
1, 97680, Note_on_c, 0, 57, 35
1, 97680, Note_on_c, 0, 54, 29
1, 97740, Note_on_c, 0, 49, 0
1, 97770, Note_on_c, 0, 61, 0
1, 97770, Note_on_c, 0, 57, 0
1, 97770, Note_on_c, 0, 54, 0
1, 97920, Tempo, 512514
1, 97920, Note_on_c, 0, 63, 64
1, 97920, Note_on_c, 0, 49, 43
1, 97920, Note_on_c, 0, 42, 36
1, 98010, Note_on_c, 0, 42, 0
1, 98010, Note_on_c, 0, 49, 0
1, 98010, Note_on_c, 0, 63, 0
1, 98160, Tempo, 529521
1, 98160, Note_on_c, 0, 65, 61
1, 98160, Note_on_c, 0, 54, 31
1, 98160, Note_on_c, 0, 58, 37
1, 98160, Note_on_c, 0, 49, 31
1, 98220, Note_on_c, 0, 49, 0
1, 98250, Note_on_c, 0, 65, 0
1, 98250, Note_on_c, 0, 54, 0
1, 98250, Note_on_c, 0, 58, 0
1, 98400, Note_on_c, 0, 63, 65
1, 98400, Note_on_c, 0, 49, 45
1, 98400, Note_on_c, 0, 42, 38
1, 98490, Note_on_c, 0, 42, 0
1, 98490, Note_on_c, 0, 49, 0
1, 98490, Note_on_c, 0, 63, 0
1, 98640, Note_on_c, 0, 66, 71
1, 98640, Note_on_c, 0, 54, 35
1, 98640, Note_on_c, 0, 59, 42
1, 98640, Note_on_c, 0, 49, 35
1, 98700, Note_on_c, 0, 49, 0
1, 98730, Note_on_c, 0, 66, 0
1, 98730, Note_on_c, 0, 54, 0
1, 98730, Note_on_c, 0, 59, 0
1, 98880, Tempo, 550055
1, 98880, Note_on_c, 0, 65, 80
1, 98880, Control_c, 0, 64, 127
1, 98970, Note_on_c, 0, 65, 0
1, 99000, Note_on_c, 0, 65, 74
1, 99120, Tempo, 533950
1, 99120, Note_on_c, 0, 65, 0
1, 99120, Note_on_c, 0, 64, 67
1, 99120, Note_on_c, 0, 61, 42
1, 99210, Note_on_c, 0, 61, 0
1, 99240, Note_on_c, 0, 64, 0
1, 99240, Note_on_c, 0, 67, 74
1, 99360, Tempo, 527333
1, 99360, Note_on_c, 0, 67, 0
1, 99360, Note_on_c, 0, 65, 76
1, 99360, Note_on_c, 0, 60, 57
1, 99360, Note_on_c, 0, 63, 64
1, 99373, Control_c, 0, 64, 0
1, 99570, Note_on_c, 0, 65, 0
1, 99570, Note_on_c, 0, 67, 68
1, 99600, Tempo, 564653
1, 99600, Note_on_c, 0, 63, 0
1, 99600, Note_on_c, 0, 60, 0
1, 99600, Note_on_c, 0, 74, 80
1, 99600, Note_on_c, 0, 63, 58
1, 99600, Note_on_c, 0, 57, 49
1, 99600, Note_on_c, 0, 53, 49
1, 99660, Note_on_c, 0, 53, 0
1, 99660, Control_c, 0, 64, 127
1, 99690, Note_on_c, 0, 63, 0
1, 99690, Note_on_c, 0, 67, 0
1, 99690, Note_on_c, 0, 74, 0
1, 99690, Note_on_c, 0, 57, 0
1, 99840, Tempo, 588120
1, 99840, Note_on_c, 0, 62, 72
1, 99840, Note_on_c, 0, 70, 85
1, 99840, Note_on_c, 0, 53, 62
1, 99840, Note_on_c, 0, 58, 73
1, 99840, Note_on_c, 0, 46, 62
1, 99840, Control_c, 0, 64, 0
1, 100020, Control_c, 0, 64, 127
1, 100080, Note_on_c, 0, 46, 0
1, 100080, Note_on_c, 0, 53, 0
1, 100080, Note_on_c, 0, 58, 0
1, 100320, Note_on_c, 0, 70, 0
1, 100320, Note_on_c, 0, 62, 0
1, 100320, Note_on_c, 0, 94, 106
1, 100320, Note_on_c, 0, 82, 90
1, 100320, Note_on_c, 0, 34, 60
1, 100320, Note_on_c, 0, 46, 71
1, 100560, Note_on_c, 0, 46, 0
1, 100560, Note_on_c, 0, 94, 0
1, 100560, Note_on_c, 0, 82, 0
1, 100560, Note_on_c, 0, 34, 0
1, 100560, Control_c, 0, 64, 0
1, 100800, Tempo, 512514
1, 100800, Note_on_c, 0, 63, 64
1, 100800, Note_on_c, 0, 60, 54
1, 100800, Note_on_c, 0, 56, 40
1, 100800, Note_on_c, 0, 58, 40
1, 100800, Control_c, 0, 64, 127
1, 100890, Note_on_c, 0, 58, 0
1, 100890, Note_on_c, 0, 56, 0
1, 100920, Note_on_c, 0, 60, 0
1, 100920, Note_on_c, 0, 63, 0
1, 100920, Note_on_c, 0, 62, 48
1, 100920, Note_on_c, 0, 65, 57
1, 100927, Control_c, 0, 64, 0
1, 101040, Tempo, 529521
1, 101040, Note_on_c, 0, 70, 33
1, 101040, Note_on_c, 0, 68, 33
1, 101130, Note_on_c, 0, 68, 0
1, 101130, Note_on_c, 0, 70, 0
1, 101160, Note_on_c, 0, 65, 0
1, 101160, Note_on_c, 0, 62, 0
1, 101160, Note_on_c, 0, 67, 56
1, 101160, Note_on_c, 0, 63, 47
1, 101177, Control_c, 0, 64, 127
1, 101280, Note_on_c, 0, 63, 0
1, 101280, Note_on_c, 0, 67, 0
1, 101280, Note_on_c, 0, 62, 54
1, 101280, Note_on_c, 0, 65, 64
1, 101280, Note_on_c, 0, 56, 40
1, 101280, Note_on_c, 0, 58, 40
1, 101292, Control_c, 0, 64, 0
1, 101370, Note_on_c, 0, 58, 0
1, 101370, Note_on_c, 0, 62, 0
1, 101370, Note_on_c, 0, 65, 0
1, 101370, Note_on_c, 0, 56, 0
1, 101520, Tempo, 568720
1, 101520, Note_on_c, 0, 60, 45
1, 101520, Note_on_c, 0, 63, 53
1, 101520, Note_on_c, 0, 70, 35
1, 101520, Note_on_c, 0, 68, 35
1, 101610, Note_on_c, 0, 68, 0
1, 101610, Note_on_c, 0, 60, 0
1, 101610, Note_on_c, 0, 63, 0
1, 101610, Note_on_c, 0, 70, 0
1, 101760, Tempo, 579710
1, 101760, Note_on_c, 0, 65, 53
1, 101760, Note_on_c, 0, 62, 45
1, 101760, Note_on_c, 0, 56, 40
1, 101760, Note_on_c, 0, 58, 40
1, 101798, Control_c, 0, 64, 127
1, 101850, Note_on_c, 0, 58, 0
1, 101850, Note_on_c, 0, 56, 0
1, 102000, Note_on_c, 0, 70, 33
1, 102000, Note_on_c, 0, 68, 33
1, 102090, Note_on_c, 0, 68, 0
1, 102090, Note_on_c, 0, 70, 0
1, 102120, Control_c, 0, 64, 0
1, 102240, Note_on_c, 0, 94, 64
1, 102240, Note_on_c, 0, 82, 54
1, 102240, Note_on_c, 0, 56, 40
1, 102240, Note_on_c, 0, 58, 40
1, 102310, Control_c, 0, 64, 127
1, 102330, Note_on_c, 0, 58, 0
1, 102330, Note_on_c, 0, 56, 0
1, 102480, Note_on_c, 0, 94, 0
1, 102480, Note_on_c, 0, 82, 0
1, 102480, Note_on_c, 0, 70, 35
1, 102480, Note_on_c, 0, 68, 35
1, 102570, Note_on_c, 0, 68, 0
1, 102570, Note_on_c, 0, 70, 0
1, 102720, Tempo, 512514
1, 102720, Note_on_c, 0, 62, 0
1, 102720, Note_on_c, 0, 65, 0
1, 102720, Note_on_c, 0, 60, 54
1, 102720, Note_on_c, 0, 63, 64
1, 102720, Note_on_c, 0, 55, 40
1, 102720, Note_on_c, 0, 58, 40
1, 102720, Control_c, 0, 64, 0
1, 102783, Control_c, 0, 64, 127
1, 102810, Note_on_c, 0, 58, 0
1, 102810, Note_on_c, 0, 55, 0
1, 102840, Note_on_c, 0, 63, 0
1, 102840, Note_on_c, 0, 60, 0
1, 102840, Note_on_c, 0, 65, 57
1, 102840, Note_on_c, 0, 62, 48
1, 102847, Control_c, 0, 64, 0
1, 102960, Tempo, 529521
1, 102960, Note_on_c, 0, 70, 33
1, 103050, Note_on_c, 0, 70, 0
1, 103080, Note_on_c, 0, 62, 0
1, 103080, Note_on_c, 0, 65, 0
1, 103080, Note_on_c, 0, 67, 56
1, 103080, Note_on_c, 0, 63, 47
1, 103097, Control_c, 0, 64, 127
1, 103200, Note_on_c, 0, 63, 0
1, 103200, Note_on_c, 0, 67, 0
1, 103200, Note_on_c, 0, 65, 64
1, 103200, Note_on_c, 0, 62, 54
1, 103200, Note_on_c, 0, 55, 40
1, 103200, Note_on_c, 0, 58, 40
1, 103212, Control_c, 0, 64, 0
1, 103290, Note_on_c, 0, 58, 0
1, 103290, Note_on_c, 0, 65, 0
1, 103290, Note_on_c, 0, 62, 0
1, 103290, Note_on_c, 0, 55, 0
1, 103440, Tempo, 558140
1, 103440, Note_on_c, 0, 60, 45
1, 103440, Note_on_c, 0, 63, 53
1, 103440, Note_on_c, 0, 70, 35
1, 103530, Note_on_c, 0, 70, 0
1, 103530, Note_on_c, 0, 63, 0
1, 103530, Note_on_c, 0, 60, 0
1, 103680, Tempo, 545455
1, 103680, Note_on_c, 0, 65, 53
1, 103680, Note_on_c, 0, 62, 45
1, 103680, Note_on_c, 0, 55, 40
1, 103680, Note_on_c, 0, 58, 40
1, 103800, Note_on_c, 0, 58, 0
1, 103800, Note_on_c, 0, 65, 0
1, 103800, Note_on_c, 0, 62, 0
1, 103800, Note_on_c, 0, 55, 0
1, 103920, Tempo, 555556
1, 103920, Note_on_c, 0, 60, 53
1, 103920, Note_on_c, 0, 63, 53
1, 103920, Note_on_c, 0, 70, 33
1, 104010, Note_on_c, 0, 70, 0
1, 104160, Tempo, 533333
1, 104160, Note_on_c, 0, 63, 0
1, 104160, Note_on_c, 0, 60, 0
1, 104160, Note_on_c, 0, 62, 53
1, 104160, Note_on_c, 0, 65, 53
1, 104160, Note_on_c, 0, 55, 40
1, 104160, Note_on_c, 0, 58, 40
1, 104230, Control_c, 0, 64, 127
1, 104400, Note_on_c, 0, 58, 0
1, 104400, Note_on_c, 0, 62, 0
1, 104400, Note_on_c, 0, 65, 0
1, 104400, Note_on_c, 0, 55, 0
1, 104400, Note_on_c, 0, 70, 53
1, 104400, Note_on_c, 0, 72, 53
1, 104400, Note_on_c, 0, 67, 53
1, 104400, Note_on_c, 0, 63, 35
1, 104490, Note_on_c, 0, 63, 0
1, 104520, Tempo, 588235
1, 104520, Note_on_c, 0, 70, 0
1, 104520, Note_on_c, 0, 72, 0
1, 104520, Note_on_c, 0, 67, 0
1, 104640, Tempo, 512514
1, 104640, Note_on_c, 0, 57, 36
1, 104640, Note_on_c, 0, 61, 36
1, 104640, Note_on_c, 0, 64, 42
1, 104640, Note_on_c, 0, 47, 44
1, 104640, Control_c, 0, 64, 0
1, 104760, Note_on_c, 0, 47, 0
1, 104760, Note_on_c, 0, 49, 39
1, 104880, Tempo, 529521
1, 104880, Note_on_c, 0, 49, 0
1, 105000, Note_on_c, 0, 51, 39
1, 105120, Note_on_c, 0, 51, 0
1, 105120, Note_on_c, 0, 49, 44
1, 105240, Note_on_c, 0, 49, 0
1, 105360, Tempo, 568720
1, 105360, Note_on_c, 0, 47, 37
1, 105450, Note_on_c, 0, 47, 0
1, 105600, Tempo, 512514
1, 105600, Note_on_c, 0, 57, 0
1, 105600, Note_on_c, 0, 61, 0
1, 105600, Note_on_c, 0, 64, 0
1, 105600, Note_on_c, 0, 56, 36
1, 105600, Note_on_c, 0, 60, 36
1, 105600, Note_on_c, 0, 65, 42
1, 105600, Note_on_c, 0, 46, 44
1, 105720, Note_on_c, 0, 46, 0
1, 105720, Note_on_c, 0, 48, 39
1, 105840, Tempo, 529521
1, 105840, Note_on_c, 0, 48, 0
1, 105960, Note_on_c, 0, 50, 39
1, 106080, Note_on_c, 0, 50, 0
1, 106080, Note_on_c, 0, 48, 44
1, 106200, Note_on_c, 0, 48, 0
1, 106320, Tempo, 568720
1, 106320, Note_on_c, 0, 46, 37
1, 106410, Note_on_c, 0, 46, 0
1, 106560, Tempo, 515021
1, 106560, Note_on_c, 0, 56, 0
1, 106560, Note_on_c, 0, 60, 0
1, 106560, Note_on_c, 0, 65, 0
1, 106560, Note_on_c, 0, 55, 30
1, 106560, Note_on_c, 0, 58, 36
1, 106560, Note_on_c, 0, 53, 30
1, 106560, Note_on_c, 0, 46, 37
1, 106680, Note_on_c, 0, 46, 0
1, 106680, Note_on_c, 0, 48, 33
1, 106800, Tempo, 538117
1, 106800, Note_on_c, 0, 48, 0
1, 106920, Note_on_c, 0, 50, 33
1, 107040, Tempo, 547945
1, 107040, Note_on_c, 0, 50, 0
1, 107040, Note_on_c, 0, 48, 37
1, 107160, Note_on_c, 0, 48, 0
1, 107280, Tempo, 568720
1, 107280, Note_on_c, 0, 46, 31
1, 107370, Note_on_c, 0, 46, 0
1, 107520, Tempo, 512514
1, 107520, Note_on_c, 0, 53, 0
1, 107520, Note_on_c, 0, 51, 30
1, 107640, Note_on_c, 0, 46, 70
1, 107640, Note_on_c, 0, 34, 70
1, 107760, Tempo, 542986
1, 107760, Note_on_c, 0, 34, 0
1, 107760, Note_on_c, 0, 46, 0
1, 107760, Note_on_c, 0, 48, 69
1, 107760, Note_on_c, 0, 36, 70
1, 107880, Note_on_c, 0, 36, 0
1, 107880, Note_on_c, 0, 48, 0
1, 107880, Note_on_c, 0, 50, 73
1, 107880, Note_on_c, 0, 38, 73
1, 108000, Tempo, 579710
1, 108000, Note_on_c, 0, 38, 0
1, 108000, Note_on_c, 0, 50, 0
1, 108000, Note_on_c, 0, 48, 76
1, 108000, Note_on_c, 0, 36, 78
1, 108120, Note_on_c, 0, 36, 0
1, 108120, Note_on_c, 0, 48, 0
1, 108240, Tempo, 948017
1, 108240, Note_on_c, 0, 22, 74
1, 108240, Note_on_c, 0, 34, 83
1, 108330, Note_on_c, 0, 34, 0
1, 108330, Note_on_c, 0, 22, 0
1, 108480, Tempo, 512514
1, 108480, Note_on_c, 0, 55, 0
1, 108480, Note_on_c, 0, 58, 0
1, 108480, Note_on_c, 0, 51, 0
1, 108480, Note_on_c, 0, 60, 54
1, 108480, Note_on_c, 0, 63, 64
1, 108480, Note_on_c, 0, 56, 40
1, 108480, Note_on_c, 0, 58, 40
1, 108480, Control_c, 0, 64, 127
1, 108570, Note_on_c, 0, 58, 0
1, 108570, Note_on_c, 0, 56, 0
1, 108600, Note_on_c, 0, 63, 0
1, 108600, Note_on_c, 0, 60, 0
1, 108600, Note_on_c, 0, 62, 48
1, 108600, Note_on_c, 0, 65, 57
1, 108607, Control_c, 0, 64, 0
1, 108720, Tempo, 529521
1, 108720, Note_on_c, 0, 70, 33
1, 108720, Note_on_c, 0, 68, 33
1, 108810, Note_on_c, 0, 68, 0
1, 108810, Note_on_c, 0, 70, 0
1, 108840, Note_on_c, 0, 65, 0
1, 108840, Note_on_c, 0, 62, 0
1, 108840, Note_on_c, 0, 67, 56
1, 108840, Note_on_c, 0, 63, 47
1, 108857, Control_c, 0, 64, 127
1, 108960, Note_on_c, 0, 63, 0
1, 108960, Note_on_c, 0, 67, 0
1, 108960, Note_on_c, 0, 65, 64
1, 108960, Note_on_c, 0, 62, 54
1, 108960, Note_on_c, 0, 56, 40
1, 108960, Note_on_c, 0, 58, 40
1, 108972, Control_c, 0, 64, 0
1, 109050, Note_on_c, 0, 58, 0
1, 109050, Note_on_c, 0, 65, 0
1, 109050, Note_on_c, 0, 62, 0
1, 109050, Note_on_c, 0, 56, 0
1, 109200, Tempo, 568720
1, 109200, Note_on_c, 0, 63, 53
1, 109200, Note_on_c, 0, 60, 45
1, 109200, Note_on_c, 0, 70, 35
1, 109200, Note_on_c, 0, 68, 35
1, 109290, Note_on_c, 0, 68, 0
1, 109290, Note_on_c, 0, 63, 0
1, 109290, Note_on_c, 0, 60, 0
1, 109290, Note_on_c, 0, 70, 0
1, 109440, Tempo, 579710
1, 109440, Note_on_c, 0, 62, 45
1, 109440, Note_on_c, 0, 65, 53
1, 109440, Note_on_c, 0, 56, 40
1, 109440, Note_on_c, 0, 58, 40
1, 109478, Control_c, 0, 64, 127
1, 109530, Note_on_c, 0, 58, 0
1, 109530, Note_on_c, 0, 56, 0
1, 109680, Tempo, 631579
1, 109680, Note_on_c, 0, 70, 33
1, 109680, Note_on_c, 0, 68, 33
1, 109770, Note_on_c, 0, 68, 0
1, 109770, Note_on_c, 0, 70, 0
1, 109800, Control_c, 0, 64, 0
1, 109920, Tempo, 579710
1, 109920, Note_on_c, 0, 94, 64
1, 109920, Note_on_c, 0, 82, 54
1, 109920, Note_on_c, 0, 56, 40
1, 109920, Note_on_c, 0, 58, 40
1, 109990, Control_c, 0, 64, 127
1, 110010, Note_on_c, 0, 58, 0
1, 110010, Note_on_c, 0, 56, 0
1, 110160, Note_on_c, 0, 94, 0
1, 110160, Note_on_c, 0, 82, 0
1, 110160, Note_on_c, 0, 70, 35
1, 110160, Note_on_c, 0, 68, 35
1, 110250, Note_on_c, 0, 68, 0
1, 110250, Note_on_c, 0, 70, 0
1, 110400, Tempo, 512514
1, 110400, Note_on_c, 0, 65, 0
1, 110400, Note_on_c, 0, 62, 0
1, 110400, Note_on_c, 0, 60, 54
1, 110400, Note_on_c, 0, 63, 64
1, 110400, Note_on_c, 0, 55, 40
1, 110400, Note_on_c, 0, 58, 40
1, 110400, Control_c, 0, 64, 0
1, 110463, Control_c, 0, 64, 127
1, 110490, Note_on_c, 0, 58, 0
1, 110490, Note_on_c, 0, 55, 0
1, 110520, Note_on_c, 0, 63, 0
1, 110520, Note_on_c, 0, 60, 0
1, 110520, Note_on_c, 0, 62, 48
1, 110520, Note_on_c, 0, 65, 57
1, 110527, Control_c, 0, 64, 0
1, 110640, Tempo, 529521
1, 110640, Note_on_c, 0, 67, 33
1, 110640, Note_on_c, 0, 70, 33
1, 110730, Note_on_c, 0, 70, 0
1, 110730, Note_on_c, 0, 67, 0
1, 110760, Note_on_c, 0, 65, 0
1, 110760, Note_on_c, 0, 62, 0
1, 110760, Note_on_c, 0, 67, 56
1, 110760, Note_on_c, 0, 63, 47
1, 110777, Control_c, 0, 64, 127
1, 110880, Note_on_c, 0, 63, 0
1, 110880, Note_on_c, 0, 67, 0
1, 110880, Note_on_c, 0, 65, 64
1, 110880, Note_on_c, 0, 62, 54
1, 110880, Note_on_c, 0, 55, 40
1, 110880, Note_on_c, 0, 58, 40
1, 110892, Control_c, 0, 64, 0
1, 110970, Note_on_c, 0, 58, 0
1, 110970, Note_on_c, 0, 65, 0
1, 110970, Note_on_c, 0, 62, 0
1, 110970, Note_on_c, 0, 55, 0
1, 111120, Tempo, 558140
1, 111120, Note_on_c, 0, 63, 53
1, 111120, Note_on_c, 0, 60, 45
1, 111120, Note_on_c, 0, 67, 33
1, 111120, Note_on_c, 0, 70, 35
1, 111210, Note_on_c, 0, 70, 0
1, 111210, Note_on_c, 0, 63, 0
1, 111210, Note_on_c, 0, 60, 0
1, 111210, Note_on_c, 0, 67, 0
1, 111360, Tempo, 545455
1, 111360, Note_on_c, 0, 62, 45
1, 111360, Note_on_c, 0, 65, 53
1, 111360, Note_on_c, 0, 55, 40
1, 111360, Note_on_c, 0, 58, 40
1, 111480, Note_on_c, 0, 58, 0
1, 111480, Note_on_c, 0, 62, 0
1, 111480, Note_on_c, 0, 65, 0
1, 111480, Note_on_c, 0, 55, 0
1, 111600, Tempo, 555556
1, 111600, Note_on_c, 0, 63, 53
1, 111600, Note_on_c, 0, 60, 53
1, 111600, Note_on_c, 0, 67, 33
1, 111600, Note_on_c, 0, 70, 33
1, 111690, Note_on_c, 0, 70, 0
1, 111690, Note_on_c, 0, 67, 0
1, 111840, Tempo, 533333
1, 111840, Note_on_c, 0, 60, 0
1, 111840, Note_on_c, 0, 63, 0
1, 111840, Note_on_c, 0, 65, 53
1, 111840, Note_on_c, 0, 62, 53
1, 111840, Note_on_c, 0, 55, 40
1, 111840, Note_on_c, 0, 58, 40
1, 111910, Control_c, 0, 64, 127
1, 112080, Note_on_c, 0, 58, 0
1, 112080, Note_on_c, 0, 65, 0
1, 112080, Note_on_c, 0, 62, 0
1, 112080, Note_on_c, 0, 55, 0
1, 112080, Note_on_c, 0, 70, 53
1, 112080, Note_on_c, 0, 67, 53
1, 112080, Note_on_c, 0, 72, 53
1, 112080, Note_on_c, 0, 63, 35
1, 112170, Note_on_c, 0, 63, 0
1, 112200, Note_on_c, 0, 70, 0
1, 112200, Note_on_c, 0, 67, 0
1, 112200, Note_on_c, 0, 72, 0
1, 112320, Tempo, 531726
1, 112320, Note_on_c, 0, 71, 60
1, 112320, Note_on_c, 0, 82, 80
1, 112320, Note_on_c, 0, 75, 60
1, 112320, Note_on_c, 0, 59, 51
1, 112320, Note_on_c, 0, 63, 51
1, 112320, Note_on_c, 0, 70, 68
1, 112320, Control_c, 0, 64, 0
1, 112440, Note_on_c, 0, 70, 0
1, 112440, Note_on_c, 0, 82, 0
1, 112440, Note_on_c, 0, 80, 74
1, 112440, Note_on_c, 0, 68, 62
1, 112560, Note_on_c, 0, 68, 0
1, 112560, Note_on_c, 0, 80, 0
1, 112680, Note_on_c, 0, 82, 74
1, 112680, Note_on_c, 0, 70, 62
1, 112800, Tempo, 559701
1, 112800, Note_on_c, 0, 70, 0
1, 112800, Note_on_c, 0, 82, 0
1, 112800, Note_on_c, 0, 77, 76
1, 112800, Note_on_c, 0, 65, 64
1, 112920, Note_on_c, 0, 65, 0
1, 112920, Note_on_c, 0, 77, 0
1, 113040, Tempo, 531726
1, 113040, Note_on_c, 0, 82, 80
1, 113040, Note_on_c, 0, 70, 68
1, 113130, Note_on_c, 0, 70, 0
1, 113130, Note_on_c, 0, 82, 0
1, 113280, Note_on_c, 0, 80, 80
1, 113280, Note_on_c, 0, 68, 68
1, 113400, Note_on_c, 0, 68, 0
1, 113400, Note_on_c, 0, 80, 0
1, 113400, Note_on_c, 0, 77, 80
1, 113400, Note_on_c, 0, 65, 68
1, 113520, Tempo, 554836
1, 113520, Note_on_c, 0, 65, 0
1, 113520, Note_on_c, 0, 77, 0
1, 113640, Note_on_c, 0, 75, 74
1, 113640, Note_on_c, 0, 63, 62
1, 113760, Tempo, 529521
1, 113760, Note_on_c, 0, 63, 0
1, 113760, Note_on_c, 0, 75, 0
1, 113760, Note_on_c, 0, 63, 0
1, 113760, Note_on_c, 0, 71, 0
1, 113760, Note_on_c, 0, 75, 0
1, 113760, Note_on_c, 0, 59, 0
1, 113760, Note_on_c, 0, 71, 80
1, 113760, Note_on_c, 0, 59, 68
1, 114240, Tempo, 529521
1, 114240, Note_on_c, 0, 59, 0
1, 114240, Note_on_c, 0, 71, 0
1, 114360, Tempo, 520879
1, 114360, Note_on_c, 0, 68, 80
1, 114360, Note_on_c, 0, 56, 65
1, 114480, Note_on_c, 0, 56, 0
1, 114480, Note_on_c, 0, 68, 0
1, 114480, Note_on_c, 0, 65, 79
1, 114480, Note_on_c, 0, 53, 65
1, 114508, Control_c, 0, 64, 127
1, 114600, Note_on_c, 0, 53, 0
1, 114600, Note_on_c, 0, 65, 0
1, 114600, Note_on_c, 0, 63, 84
1, 114600, Note_on_c, 0, 51, 67
1, 114720, Tempo, 557258
1, 114720, Note_on_c, 0, 51, 0
1, 114720, Note_on_c, 0, 63, 0
1, 114720, Note_on_c, 0, 59, 86
1, 114720, Note_on_c, 0, 47, 71
1, 114735, Control_c, 0, 64, 0
1, 114840, Note_on_c, 0, 47, 0
1, 114840, Note_on_c, 0, 59, 0
1, 114960, Tempo, 525164
1, 114960, Note_on_c, 0, 55, 97
1, 114960, Note_on_c, 0, 50, 82
1, 114960, Note_on_c, 0, 46, 78
1, 114960, Note_on_c, 0, 34, 66
1, 115200, Tempo, 527333
1, 115200, Note_on_c, 0, 34, 0
1, 115200, Note_on_c, 0, 55, 0
1, 115200, Note_on_c, 0, 50, 0
1, 115200, Note_on_c, 0, 46, 0
1, 115200, Control_c, 0, 64, 0
1, 115440, Note_on_c, 0, 58, 40
1, 115440, Note_on_c, 0, 51, 40
1, 115440, Note_on_c, 0, 55, 33
1, 115440, Note_on_c, 0, 53, 33
1, 115530, Note_on_c, 0, 53, 0
1, 115530, Note_on_c, 0, 58, 0
1, 115530, Note_on_c, 0, 51, 0
1, 115530, Note_on_c, 0, 55, 0
1, 115680, Note_on_c, 0, 39, 40
1, 115680, Note_on_c, 0, 46, 40
1, 115770, Note_on_c, 0, 46, 0
1, 115770, Note_on_c, 0, 39, 0
1, 115920, Tempo, 591133
1, 115920, Note_on_c, 0, 58, 40
1, 115920, Note_on_c, 0, 51, 40
1, 115920, Note_on_c, 0, 55, 33
1, 115920, Note_on_c, 0, 53, 33
1, 116010, Note_on_c, 0, 53, 0
1, 116010, Note_on_c, 0, 58, 0
1, 116010, Note_on_c, 0, 51, 0
1, 116010, Note_on_c, 0, 55, 0
1, 116160, Tempo, 526316
1, 116160, Note_on_c, 0, 39, 34
1, 116160, Note_on_c, 0, 46, 40
1, 116160, Control_c, 0, 64, 127
1, 116640, Note_on_c, 0, 46, 0
1, 116640, Note_on_c, 0, 39, 0
1, 116640, Control_c, 0, 64, 0
1, 117120, Tempo, 527333
1, 117120, Control_c, 0, 64, 0
1, 117360, Note_on_c, 0, 51, 33
1, 117360, Note_on_c, 0, 58, 33
1, 117360, Note_on_c, 0, 55, 27
1, 117360, Note_on_c, 0, 53, 27
1, 117450, Note_on_c, 0, 53, 0
1, 117450, Note_on_c, 0, 51, 0
1, 117450, Note_on_c, 0, 58, 0
1, 117450, Note_on_c, 0, 55, 0
1, 117600, Note_on_c, 0, 39, 32
1, 117600, Note_on_c, 0, 46, 32
1, 117690, Note_on_c, 0, 46, 0
1, 117690, Note_on_c, 0, 39, 0
1, 117840, Tempo, 591133
1, 117840, Note_on_c, 0, 51, 30
1, 117840, Note_on_c, 0, 58, 30
1, 117840, Note_on_c, 0, 55, 24
1, 117840, Note_on_c, 0, 53, 24
1, 117930, Note_on_c, 0, 53, 0
1, 117930, Note_on_c, 0, 51, 0
1, 117930, Note_on_c, 0, 58, 0
1, 117930, Note_on_c, 0, 55, 0
1, 118080, Tempo, 526316
1, 118080, Note_on_c, 0, 39, 24
1, 118080, Note_on_c, 0, 46, 28
1, 118080, Control_c, 0, 64, 127
1, 118560, Tempo, 547945
1, 118560, Note_on_c, 0, 46, 0
1, 118560, Note_on_c, 0, 39, 0
1, 118560, Control_c, 0, 64, 0
1, 119040, Tempo, 571429
1, 119040, Control_c, 0, 64, 0
1, 119280, Note_on_c, 0, 58, 28
1, 119280, Note_on_c, 0, 51, 28
1, 119280, Note_on_c, 0, 55, 22
1, 119280, Note_on_c, 0, 53, 22
1, 119370, Note_on_c, 0, 53, 0
1, 119370, Note_on_c, 0, 58, 0
1, 119370, Note_on_c, 0, 51, 0
1, 119370, Note_on_c, 0, 55, 0
1, 119520, Note_on_c, 0, 39, 27
1, 119520, Note_on_c, 0, 46, 27
1, 119610, Note_on_c, 0, 46, 0
1, 119610, Note_on_c, 0, 39, 0
1, 119760, Tempo, 621762
1, 119760, Note_on_c, 0, 58, 25
1, 119760, Note_on_c, 0, 51, 25
1, 119760, Note_on_c, 0, 55, 21
1, 119760, Note_on_c, 0, 53, 21
1, 119850, Note_on_c, 0, 53, 0
1, 119850, Note_on_c, 0, 58, 0
1, 119850, Note_on_c, 0, 51, 0
1, 119850, Note_on_c, 0, 55, 0
1, 120000, Tempo, 591133
1, 120456, Tempo, 627025
1, 120480, Note_on_c, 0, 47, 70
1, 120480, Note_on_c, 0, 35, 59
1, 120705, Tempo, 573121
1, 120720, Note_on_c, 0, 35, 0
1, 120720, Note_on_c, 0, 47, 0
1, 120720, Note_on_c, 0, 46, 75
1, 120720, Note_on_c, 0, 34, 63
1, 120744, Tempo, 570396
1, 120763, Tempo, 567698
1, 120780, Note_on_c, 0, 44, 77
1, 120780, Note_on_c, 0, 32, 65
1, 120782, Tempo, 565025
1, 120786, Note_on_c, 0, 34, 0
1, 120786, Note_on_c, 0, 46, 0
1, 120801, Tempo, 562377
1, 120821, Tempo, 559754
1, 120840, Note_on_c, 0, 43, 79
1, 120840, Note_on_c, 0, 31, 67
1, 120846, Note_on_c, 0, 44, 0
1, 120846, Note_on_c, 0, 32, 0
1, 120859, Tempo, 557155
1, 120878, Tempo, 554580
1, 120897, Tempo, 552029
1, 120900, Note_on_c, 0, 41, 81
1, 120900, Note_on_c, 0, 29, 68
1, 120906, Note_on_c, 0, 43, 0
1, 120906, Note_on_c, 0, 31, 0
1, 120917, Tempo, 549501
1, 120955, Tempo, 640410
1, 120960, Tempo, 575319
1, 120960, Note_on_c, 0, 51, 85
1, 120960, Note_on_c, 0, 27, 61
1, 120960, Note_on_c, 0, 39, 72
1, 120966, Note_on_c, 0, 41, 0
1, 120966, Note_on_c, 0, 29, 0
1, 121031, Control_c, 0, 64, 127
1, 121200, Note_on_c, 0, 27, 0
1, 121200, Note_on_c, 0, 51, 0
1, 121200, Note_on_c, 0, 39, 0
1, 121200, Control_c, 0, 64, 0
1, 121920, Tempo, 653666
1, 121920, Note_on_c, 0, 51, 89
1, 121920, Note_on_c, 0, 27, 62
1, 121920, Note_on_c, 0, 39, 74
1, 121948, Control_c, 0, 64, 127
1, 122160, Note_on_c, 0, 39, 0
1, 122160, Note_on_c, 0, 27, 0
1, 122160, Note_on_c, 0, 51, 0
1, 122344, Control_c, 0, 64, 0
1, 122344, End_track
0, 0, End_of_file
