0, 0, Header, 0, 1, 480
1, 0, Start_track
1, 0, Title_t, "Grieg: Lyrische Stücke, Albumblatt, Opus 42 Nr. 2"
1, 0, Copyright_t, "Copyright © 2012 by Bernd Krueger"
1, 0, Text_t, "Bernd Krueger"
1, 0, Text_t, "Allegro vivace e grazioso"
1, 0, Text_t, "Erstellt: 24.9.2012\012"
1, 0, Text_t, "Dauer: 3:07 Minuten\012"
1, 0, Time_signature, 6, 3, 12, 8
1, 0, Key_signature, -1, "major"
1, 0, Tempo, 418468
1, 0, Marker_t, "Teil 1"
1, 0, Program_c, 0, 0
1, 0, Note_on_c, 0, 57, 34
1, 0, Note_on_c, 0, 69, 42
1, 0, Program_c, 0, 0
1, 0, Note_on_c, 0, 41, 24
1, 0, Note_on_c, 0, 48, 28
1, 0, Program_c, 0, 0
1, 360, Tempo, 396852
1, 360, Note_on_c, 0, 69, 0
1, 360, Note_on_c, 0, 67, 31
1, 480, Note_on_c, 0, 67, 0
1, 480, Note_on_c, 0, 65, 31
1, 600, Tempo, 451875
1, 600, Note_on_c, 0, 65, 0
1, 600, Note_on_c, 0, 67, 31
1, 720, Tempo, 418468
1, 720, Note_on_c, 0, 67, 0
1, 720, Note_on_c, 0, 48, 0
1, 720, Note_on_c, 0, 57, 0
1, 720, Note_on_c, 0, 58, 30
1, 720, Note_on_c, 0, 69, 36
1, 720, Note_on_c, 0, 50, 24
1, 805, Control_c, 0, 64, 127
1, 1200, Note_on_c, 0, 69, 0
1, 1200, Note_on_c, 0, 65, 36
1, 1320, Tempo, 453789
1, 1440, Tempo, 420109
1, 1440, Note_on_c, 0, 65, 0
1, 1440, Note_on_c, 0, 50, 0
1, 1440, Note_on_c, 0, 58, 0
1, 1440, Note_on_c, 0, 60, 34
1, 1440, Note_on_c, 0, 69, 42
1, 1440, Note_on_c, 0, 52, 28
1, 1447, Control_c, 0, 64, 0
1, 1800, Tempo, 396852
1, 1800, Note_on_c, 0, 69, 0
1, 1800, Note_on_c, 0, 67, 32
1, 1920, Note_on_c, 0, 67, 0
1, 1920, Note_on_c, 0, 65, 32
1, 2040, Tempo, 455719
1, 2040, Note_on_c, 0, 65, 0
1, 2040, Note_on_c, 0, 67, 32
1, 2160, Tempo, 441501
1, 2160, Note_on_c, 0, 67, 0
1, 2160, Note_on_c, 0, 52, 0
1, 2160, Note_on_c, 0, 60, 0
1, 2160, Note_on_c, 0, 58, 30
1, 2160, Note_on_c, 0, 69, 36
1, 2160, Note_on_c, 0, 50, 24
1, 2248, Control_c, 0, 64, 127
1, 2760, Tempo, 451875
1, 2820, Note_on_c, 0, 50, 0
1, 2820, Note_on_c, 0, 69, 0
1, 2820, Note_on_c, 0, 58, 0
1, 2820, Note_on_c, 0, 41, 25
1, 2850, Note_on_c, 0, 48, 29
1, 2880, Tempo, 423400
1, 2880, Note_on_c, 0, 41, 0
1, 2880, Note_on_c, 0, 65, 36
1, 2880, Note_on_c, 0, 72, 45
1, 2880, Note_on_c, 0, 57, 30
1, 2880, Control_c, 0, 64, 0
1, 3004, Control_c, 0, 64, 127
1, 3240, Tempo, 396852
1, 3240, Note_on_c, 0, 72, 0
1, 3240, Note_on_c, 0, 74, 38
1, 3360, Note_on_c, 0, 74, 0
1, 3360, Note_on_c, 0, 76, 42
1, 3480, Note_on_c, 0, 76, 0
1, 3480, Note_on_c, 0, 74, 38
1, 3600, Tempo, 423400
1, 3600, Note_on_c, 0, 74, 0
1, 3600, Note_on_c, 0, 57, 0
1, 3600, Note_on_c, 0, 65, 0
1, 3600, Note_on_c, 0, 72, 47
1, 3600, Note_on_c, 0, 65, 38
1, 3600, Note_on_c, 0, 58, 30
1, 3617, Control_c, 0, 64, 0
1, 3678, Control_c, 0, 64, 127
1, 4080, Tempo, 480115
1, 4080, Note_on_c, 0, 65, 0
1, 4080, Note_on_c, 0, 72, 0
1, 4080, Note_on_c, 0, 64, 42
1, 4080, Note_on_c, 0, 68, 42
1, 4097, Control_c, 0, 64, 0
1, 4140, Control_c, 0, 64, 127
1, 4260, Note_on_c, 0, 41, 23
1, 4290, Note_on_c, 0, 48, 0
1, 4290, Note_on_c, 0, 48, 27
1, 4320, Tempo, 453789
1, 4320, Note_on_c, 0, 68, 0
1, 4320, Note_on_c, 0, 58, 0
1, 4320, Note_on_c, 0, 64, 0
1, 4320, Note_on_c, 0, 41, 0
1, 4320, Note_on_c, 0, 72, 48
1, 4320, Note_on_c, 0, 65, 40
1, 4320, Note_on_c, 0, 57, 32
1, 4335, Control_c, 0, 64, 0
1, 4467, Control_c, 0, 64, 127
1, 5040, Note_on_c, 0, 57, 0
1, 5040, Note_on_c, 0, 72, 0
1, 5040, Note_on_c, 0, 77, 52
1, 5490, Note_on_c, 0, 48, 0
1, 5494, Control_c, 0, 64, 0
1, 5520, Note_on_c, 0, 65, 0
1, 5520, Note_on_c, 0, 41, 0
1, 5520, Note_on_c, 0, 77, 0
1, 5760, Tempo, 418468
1, 5760, Note_on_c, 0, 60, 40
1, 5760, Note_on_c, 0, 72, 50
1, 5760, Note_on_c, 0, 45, 29
1, 5760, Note_on_c, 0, 52, 34
1, 6120, Tempo, 396852
1, 6120, Note_on_c, 0, 72, 0
1, 6120, Note_on_c, 0, 71, 37
1, 6240, Note_on_c, 0, 71, 0
1, 6240, Note_on_c, 0, 69, 37
1, 6360, Tempo, 451875
1, 6360, Note_on_c, 0, 69, 0
1, 6360, Note_on_c, 0, 71, 37
1, 6480, Tempo, 418468
1, 6480, Note_on_c, 0, 71, 0
1, 6480, Note_on_c, 0, 52, 0
1, 6480, Note_on_c, 0, 60, 0
1, 6480, Note_on_c, 0, 62, 36
1, 6480, Note_on_c, 0, 72, 43
1, 6480, Note_on_c, 0, 53, 29
1, 6565, Control_c, 0, 64, 127
1, 6960, Note_on_c, 0, 72, 0
1, 6960, Note_on_c, 0, 69, 43
1, 7080, Tempo, 453789
1, 7200, Tempo, 420109
1, 7200, Note_on_c, 0, 69, 0
1, 7200, Note_on_c, 0, 53, 0
1, 7200, Note_on_c, 0, 62, 0
1, 7200, Note_on_c, 0, 64, 40
1, 7200, Note_on_c, 0, 72, 50
1, 7200, Note_on_c, 0, 55, 34
1, 7207, Control_c, 0, 64, 0
1, 7560, Tempo, 396852
1, 7560, Note_on_c, 0, 72, 0
1, 7560, Note_on_c, 0, 71, 38
1, 7680, Note_on_c, 0, 71, 0
1, 7680, Note_on_c, 0, 69, 38
1, 7800, Tempo, 455719
1, 7800, Note_on_c, 0, 69, 0
1, 7800, Note_on_c, 0, 71, 38
1, 7920, Tempo, 444774
1, 7920, Note_on_c, 0, 71, 0
1, 7920, Note_on_c, 0, 55, 0
1, 7920, Note_on_c, 0, 64, 0
1, 7920, Note_on_c, 0, 62, 36
1, 7920, Note_on_c, 0, 72, 43
1, 7920, Note_on_c, 0, 53, 29
1, 8044, Control_c, 0, 64, 127
1, 8520, Tempo, 451875
1, 8580, Note_on_c, 0, 53, 0
1, 8580, Note_on_c, 0, 72, 0
1, 8580, Note_on_c, 0, 62, 0
1, 8580, Note_on_c, 0, 45, 25
1, 8610, Note_on_c, 0, 52, 29
1, 8640, Tempo, 423400
1, 8640, Note_on_c, 0, 45, 0
1, 8640, Note_on_c, 0, 69, 40
1, 8640, Note_on_c, 0, 76, 50
1, 8640, Note_on_c, 0, 60, 34
1, 8640, Control_c, 0, 64, 0
1, 8764, Control_c, 0, 64, 127
1, 9000, Tempo, 396852
1, 9000, Note_on_c, 0, 76, 0
1, 9000, Note_on_c, 0, 77, 42
1, 9120, Note_on_c, 0, 77, 0
1, 9120, Note_on_c, 0, 79, 46
1, 9240, Note_on_c, 0, 79, 0
1, 9240, Note_on_c, 0, 77, 42
1, 9360, Tempo, 423400
1, 9360, Note_on_c, 0, 77, 0
1, 9360, Note_on_c, 0, 60, 0
1, 9360, Note_on_c, 0, 69, 0
1, 9360, Note_on_c, 0, 76, 51
1, 9360, Note_on_c, 0, 69, 41
1, 9360, Note_on_c, 0, 62, 33
1, 9377, Control_c, 0, 64, 0
1, 9438, Control_c, 0, 64, 127
1, 9840, Tempo, 480115
1, 9840, Note_on_c, 0, 69, 0
1, 9840, Note_on_c, 0, 76, 0
1, 9840, Note_on_c, 0, 68, 45
1, 9840, Note_on_c, 0, 72, 45
1, 9857, Control_c, 0, 64, 0
1, 9900, Control_c, 0, 64, 127
1, 10050, Note_on_c, 0, 52, 0
1, 10080, Tempo, 440755
1, 10080, Note_on_c, 0, 68, 0
1, 10080, Note_on_c, 0, 62, 0
1, 10080, Note_on_c, 0, 45, 0
1, 10080, Note_on_c, 0, 72, 0
1, 10080, Note_on_c, 0, 76, 51
1, 10080, Note_on_c, 0, 69, 42
1, 10080, Note_on_c, 0, 45, 25
1, 10080, Note_on_c, 0, 52, 29
1, 10080, Note_on_c, 0, 60, 34
1, 10095, Control_c, 0, 64, 0
1, 10227, Control_c, 0, 64, 127
1, 10800, Note_on_c, 0, 76, 0
1, 10800, Note_on_c, 0, 81, 53
1, 11040, Tempo, 428480
1, 11040, Note_on_c, 0, 69, 0
1, 11040, Note_on_c, 0, 68, 57
1, 11048, Control_c, 0, 64, 0
1, 11280, Tempo, 446263
1, 11280, Note_on_c, 0, 68, 0
1, 11280, Note_on_c, 0, 67, 61
1, 11520, Tempo, 423400
1, 11520, Note_on_c, 0, 67, 0
1, 11520, Note_on_c, 0, 60, 0
1, 11520, Note_on_c, 0, 52, 0
1, 11520, Note_on_c, 0, 45, 0
1, 11520, Note_on_c, 0, 66, 70
1, 11520, Note_on_c, 0, 50, 29
1, 11520, Note_on_c, 0, 60, 34
1, 11577, Control_c, 0, 64, 127
1, 12000, Note_on_c, 0, 81, 0
1, 12000, Note_on_c, 0, 78, 53
1, 12240, Tempo, 410481
1, 12240, Note_on_c, 0, 78, 0
1, 12240, Note_on_c, 0, 74, 53
1, 12261, Control_c, 0, 64, 0
1, 12480, Note_on_c, 0, 74, 0
1, 12480, Note_on_c, 0, 75, 53
1, 12720, Tempo, 442576
1, 12720, Note_on_c, 0, 75, 0
1, 12720, Note_on_c, 0, 76, 53
1, 12900, Note_on_c, 0, 60, 0
1, 12900, Note_on_c, 0, 50, 0
1, 12900, Note_on_c, 0, 43, 34
1, 12930, Note_on_c, 0, 50, 34
1, 12960, Tempo, 418468
1, 12960, Note_on_c, 0, 66, 0
1, 12960, Note_on_c, 0, 76, 0
1, 12960, Note_on_c, 0, 65, 42
1, 12960, Note_on_c, 0, 77, 53
1, 12960, Note_on_c, 0, 59, 34
1, 13080, Control_c, 0, 64, 127
1, 13440, Tempo, 431903
1, 13440, Note_on_c, 0, 77, 0
1, 13440, Note_on_c, 0, 74, 49
1, 13680, Tempo, 440755
1, 13680, Note_on_c, 0, 74, 0
1, 13680, Note_on_c, 0, 71, 41
1, 14100, Note_on_c, 0, 50, 0
1, 14160, Note_on_c, 0, 59, 0
1, 14160, Note_on_c, 0, 43, 0
1, 14160, Note_on_c, 0, 65, 0
1, 14160, Note_on_c, 0, 71, 0
1, 14174, Control_c, 0, 64, 0
1, 14400, Tempo, 423400
1, 14400, Note_on_c, 0, 66, 64
1, 14400, Note_on_c, 0, 50, 29
1, 14400, Note_on_c, 0, 60, 34
1, 14457, Control_c, 0, 64, 127
1, 14640, Note_on_c, 0, 81, 53
1, 14880, Note_on_c, 0, 81, 0
1, 14880, Note_on_c, 0, 78, 47
1, 15120, Tempo, 410481
1, 15120, Note_on_c, 0, 78, 0
1, 15120, Note_on_c, 0, 74, 49
1, 15141, Control_c, 0, 64, 0
1, 15360, Note_on_c, 0, 74, 0
1, 15360, Note_on_c, 0, 75, 53
1, 15600, Tempo, 442576
1, 15600, Note_on_c, 0, 75, 0
1, 15600, Note_on_c, 0, 76, 54
1, 15780, Note_on_c, 0, 60, 0
1, 15780, Note_on_c, 0, 50, 0
1, 15780, Note_on_c, 0, 43, 38
1, 15810, Note_on_c, 0, 50, 40
1, 15840, Tempo, 418468
1, 15840, Note_on_c, 0, 66, 0
1, 15840, Note_on_c, 0, 65, 42
1, 15840, Note_on_c, 0, 59, 43
1, 15960, Control_c, 0, 64, 127
1, 16080, Note_on_c, 0, 76, 0
1, 16080, Note_on_c, 0, 77, 62
1, 16320, Tempo, 431903
1, 16320, Note_on_c, 0, 77, 0
1, 16320, Note_on_c, 0, 74, 53
1, 16560, Tempo, 440755
1, 16560, Note_on_c, 0, 74, 0
1, 16560, Note_on_c, 0, 69, 56
1, 16567, Control_c, 0, 64, 0
1, 16800, Note_on_c, 0, 69, 0
1, 16800, Note_on_c, 0, 70, 58
1, 16980, Note_on_c, 0, 50, 0
1, 17040, Note_on_c, 0, 59, 0
1, 17040, Note_on_c, 0, 70, 0
1, 17040, Note_on_c, 0, 43, 0
1, 17040, Note_on_c, 0, 71, 63
1, 17190, Note_on_c, 0, 65, 0
1, 17190, Note_on_c, 0, 43, 40
1, 17220, Note_on_c, 0, 50, 43
1, 17250, Note_on_c, 0, 57, 46
1, 17280, Tempo, 422089
1, 17280, Note_on_c, 0, 60, 48
1, 17520, Note_on_c, 0, 71, 0
1, 17520, Note_on_c, 0, 72, 58
1, 17760, Note_on_c, 0, 72, 0
1, 17760, Note_on_c, 0, 69, 53
1, 18000, Note_on_c, 0, 69, 0
1, 18000, Note_on_c, 0, 61, 47
1, 18240, Note_on_c, 0, 61, 0
1, 18240, Note_on_c, 0, 62, 43
1, 18480, Tempo, 444774
1, 18480, Note_on_c, 0, 62, 0
1, 18480, Note_on_c, 0, 64, 44
1, 18720, Tempo, 420433
1, 18720, Note_on_c, 0, 64, 0
1, 18720, Note_on_c, 0, 65, 46
1, 18960, Note_on_c, 0, 65, 0
1, 18960, Note_on_c, 0, 68, 42
1, 19200, Tempo, 437541
1, 19200, Note_on_c, 0, 68, 0
1, 19200, Note_on_c, 0, 60, 0
1, 19200, Note_on_c, 0, 43, 0
1, 19200, Note_on_c, 0, 50, 0
1, 19200, Note_on_c, 0, 57, 0
1, 19200, Note_on_c, 0, 69, 39
1, 19440, Tempo, 448498
1, 19440, Note_on_c, 0, 69, 0
1, 19440, Note_on_c, 0, 73, 31
1, 19680, Note_on_c, 0, 73, 0
1, 19680, Note_on_c, 0, 65, 25
1, 19680, Note_on_c, 0, 69, 25
1, 19680, Note_on_c, 0, 74, 32
1, 19708, Tempo, 456100
1, 19740, Note_on_c, 0, 74, 0
1, 19740, Note_on_c, 0, 69, 0
1, 19740, Note_on_c, 0, 65, 0
1, 19766, Tempo, 458050
1, 19824, Tempo, 459982
1, 19881, Tempo, 461965
1, 19920, Note_on_c, 0, 69, 26
1, 19920, Note_on_c, 0, 74, 26
1, 19920, Note_on_c, 0, 77, 33
1, 19939, Tempo, 463965
1, 19980, Note_on_c, 0, 77, 0
1, 19980, Note_on_c, 0, 74, 0
1, 19980, Note_on_c, 0, 69, 0
1, 19996, Tempo, 465983
1, 20054, Tempo, 467982
1, 20112, Tempo, 470035
1, 20160, Note_on_c, 0, 81, 40
1, 20160, Note_on_c, 0, 77, 32
1, 20160, Note_on_c, 0, 74, 32
1, 20169, Tempo, 472106
1, 20220, Note_on_c, 0, 74, 0
1, 20220, Note_on_c, 0, 77, 0
1, 20220, Note_on_c, 0, 81, 0
1, 20640, Tempo, 422089
1, 21600, Note_on_c, 0, 64, 40
1, 21600, Note_on_c, 0, 59, 36
1, 21600, Note_on_c, 0, 53, 36
1, 21600, Note_on_c, 0, 44, 44
1, 22800, Tempo, 452250
1, 22800, Note_on_c, 0, 44, 0
1, 22800, Note_on_c, 0, 43, 32
1, 23040, Tempo, 420109
1, 23040, Note_on_c, 0, 43, 0
1, 23040, Note_on_c, 0, 53, 0
1, 23040, Note_on_c, 0, 59, 0
1, 23040, Note_on_c, 0, 64, 0
1, 23040, Note_on_c, 0, 60, 40
1, 23040, Note_on_c, 0, 36, 21
1, 23040, Note_on_c, 0, 52, 32
1, 23040, Note_on_c, 0, 43, 27
1, 23143, Control_c, 0, 64, 127
1, 23400, Tempo, 396852
1, 23400, Note_on_c, 0, 60, 0
1, 23400, Note_on_c, 0, 59, 30
1, 23520, Note_on_c, 0, 59, 0
1, 23520, Note_on_c, 0, 60, 30
1, 23640, Tempo, 455719
1, 23640, Note_on_c, 0, 60, 0
1, 23640, Note_on_c, 0, 62, 30
1, 23760, Tempo, 444774
1, 23760, Note_on_c, 0, 62, 0
1, 23760, Note_on_c, 0, 43, 0
1, 23760, Note_on_c, 0, 52, 0
1, 23760, Note_on_c, 0, 36, 0
1, 23760, Note_on_c, 0, 64, 34
1, 23760, Note_on_c, 0, 53, 30
1, 23760, Note_on_c, 0, 59, 38
1, 23760, Note_on_c, 0, 44, 38
1, 23760, Note_on_c, 0, 56, 30
1, 23777, Control_c, 0, 64, 0
1, 23852, Control_c, 0, 64, 127
1, 24360, Tempo, 451875
1, 24480, Tempo, 420109
1, 24480, Note_on_c, 0, 56, 0
1, 24480, Note_on_c, 0, 59, 0
1, 24480, Note_on_c, 0, 64, 0
1, 24480, Note_on_c, 0, 53, 0
1, 24480, Note_on_c, 0, 44, 0
1, 24480, Note_on_c, 0, 60, 40
1, 24480, Note_on_c, 0, 36, 21
1, 24480, Note_on_c, 0, 52, 32
1, 24480, Note_on_c, 0, 43, 27
1, 24486, Control_c, 0, 64, 0
1, 24583, Control_c, 0, 64, 127
1, 24840, Tempo, 396852
1, 24840, Note_on_c, 0, 60, 0
1, 24840, Note_on_c, 0, 59, 30
1, 24960, Note_on_c, 0, 59, 0
1, 24960, Note_on_c, 0, 60, 30
1, 25080, Tempo, 455719
1, 25080, Note_on_c, 0, 60, 0
1, 25080, Note_on_c, 0, 62, 30
1, 25200, Tempo, 443131
1, 25200, Note_on_c, 0, 62, 0
1, 25200, Note_on_c, 0, 43, 0
1, 25200, Note_on_c, 0, 52, 0
1, 25200, Note_on_c, 0, 36, 0
1, 25200, Note_on_c, 0, 64, 34
1, 25200, Note_on_c, 0, 53, 30
1, 25200, Note_on_c, 0, 59, 38
1, 25200, Note_on_c, 0, 44, 38
1, 25200, Note_on_c, 0, 56, 30
1, 25217, Control_c, 0, 64, 0
1, 25292, Control_c, 0, 64, 127
1, 25800, Tempo, 451875
1, 25920, Tempo, 417159
1, 25920, Note_on_c, 0, 56, 0
1, 25920, Note_on_c, 0, 59, 0
1, 25920, Note_on_c, 0, 64, 0
1, 25920, Note_on_c, 0, 53, 0
1, 25920, Note_on_c, 0, 44, 0
1, 25920, Note_on_c, 0, 60, 29
1, 25920, Note_on_c, 0, 52, 24
1, 25920, Note_on_c, 0, 36, 22
1, 25920, Note_on_c, 0, 43, 26
1, 25920, Control_c, 0, 64, 0
1, 26067, Control_c, 0, 64, 127
1, 26160, Note_on_c, 0, 43, 0
1, 26160, Note_on_c, 0, 60, 0
1, 26160, Note_on_c, 0, 52, 0
1, 26160, Note_on_c, 0, 36, 0
1, 26637, Note_on_c, 0, 64, 22
1, 26640, Tempo, 425411
1, 26640, Note_on_c, 0, 72, 27
1, 26640, Note_on_c, 0, 48, 22
1, 26640, Note_on_c, 0, 55, 26
1, 26880, Note_on_c, 0, 55, 0
1, 26880, Note_on_c, 0, 48, 0
1, 26880, Note_on_c, 0, 72, 0
1, 26882, Note_on_c, 0, 64, 0
1, 27360, Tempo, 444774
1, 27360, Note_on_c, 0, 84, 28
1, 27360, Note_on_c, 0, 76, 23
1, 27360, Note_on_c, 0, 60, 23
1, 27360, Note_on_c, 0, 67, 28
1, 28347, Control_c, 0, 64, 0
1, 28560, Note_on_c, 0, 67, 0
1, 28560, Note_on_c, 0, 84, 0
1, 28560, Note_on_c, 0, 76, 0
1, 28560, Note_on_c, 0, 60, 0
1, 28800, Tempo, 418468
1, 28800, Marker_t, "Teil 1 Wiederholung"
1, 28800, Note_on_c, 0, 57, 34
1, 28800, Note_on_c, 0, 69, 42
1, 28800, Note_on_c, 0, 41, 24
1, 28800, Note_on_c, 0, 48, 28
1, 29160, Tempo, 396852
1, 29160, Note_on_c, 0, 69, 0
1, 29160, Note_on_c, 0, 67, 31
1, 29280, Note_on_c, 0, 67, 0
1, 29280, Note_on_c, 0, 65, 31
1, 29400, Tempo, 451875
1, 29400, Note_on_c, 0, 65, 0
1, 29400, Note_on_c, 0, 67, 31
1, 29520, Tempo, 418468
1, 29520, Note_on_c, 0, 67, 0
1, 29520, Note_on_c, 0, 48, 0
1, 29520, Note_on_c, 0, 57, 0
1, 29520, Note_on_c, 0, 58, 30
1, 29520, Note_on_c, 0, 69, 36
1, 29520, Note_on_c, 0, 50, 24
1, 29605, Control_c, 0, 64, 127
1, 30000, Note_on_c, 0, 69, 0
1, 30000, Note_on_c, 0, 65, 36
1, 30120, Tempo, 453789
1, 30240, Tempo, 420109
1, 30240, Note_on_c, 0, 65, 0
1, 30240, Note_on_c, 0, 50, 0
1, 30240, Note_on_c, 0, 58, 0
1, 30240, Note_on_c, 0, 60, 34
1, 30240, Note_on_c, 0, 69, 42
1, 30240, Note_on_c, 0, 52, 28
1, 30247, Control_c, 0, 64, 0
1, 30600, Tempo, 396852
1, 30600, Note_on_c, 0, 69, 0
1, 30600, Note_on_c, 0, 67, 32
1, 30720, Note_on_c, 0, 67, 0
1, 30720, Note_on_c, 0, 65, 32
1, 30840, Tempo, 455719
1, 30840, Note_on_c, 0, 65, 0
1, 30840, Note_on_c, 0, 67, 32
1, 30960, Tempo, 441501
1, 30960, Note_on_c, 0, 67, 0
1, 30960, Note_on_c, 0, 52, 0
1, 30960, Note_on_c, 0, 60, 0
1, 30960, Note_on_c, 0, 58, 30
1, 30960, Note_on_c, 0, 69, 36
1, 30960, Note_on_c, 0, 50, 24
1, 31048, Control_c, 0, 64, 127
1, 31560, Tempo, 451875
1, 31620, Note_on_c, 0, 50, 0
1, 31620, Note_on_c, 0, 69, 0
1, 31620, Note_on_c, 0, 58, 0
1, 31620, Note_on_c, 0, 41, 22
1, 31650, Note_on_c, 0, 48, 26
1, 31680, Tempo, 423400
1, 31680, Note_on_c, 0, 41, 0
1, 31680, Note_on_c, 0, 65, 36
1, 31680, Note_on_c, 0, 72, 45
1, 31680, Note_on_c, 0, 57, 30
1, 31680, Control_c, 0, 64, 0
1, 31804, Control_c, 0, 64, 127
1, 32040, Tempo, 396852
1, 32040, Note_on_c, 0, 72, 0
1, 32040, Note_on_c, 0, 74, 38
1, 32160, Note_on_c, 0, 74, 0
1, 32160, Note_on_c, 0, 76, 42
1, 32280, Note_on_c, 0, 76, 0
1, 32280, Note_on_c, 0, 74, 38
1, 32400, Tempo, 423400
1, 32400, Note_on_c, 0, 74, 0
1, 32400, Note_on_c, 0, 57, 0
1, 32400, Note_on_c, 0, 65, 0
1, 32400, Note_on_c, 0, 72, 47
1, 32400, Note_on_c, 0, 65, 38
1, 32400, Note_on_c, 0, 58, 30
1, 32417, Control_c, 0, 64, 0
1, 32478, Control_c, 0, 64, 127
1, 32880, Tempo, 480115
1, 32880, Note_on_c, 0, 65, 0
1, 32880, Note_on_c, 0, 72, 0
1, 32880, Note_on_c, 0, 64, 42
1, 32880, Note_on_c, 0, 68, 42
1, 32897, Control_c, 0, 64, 0
1, 32940, Control_c, 0, 64, 127
1, 33060, Note_on_c, 0, 41, 23
1, 33090, Note_on_c, 0, 48, 0
1, 33090, Note_on_c, 0, 48, 27
1, 33120, Tempo, 453789
1, 33120, Note_on_c, 0, 68, 0
1, 33120, Note_on_c, 0, 58, 0
1, 33120, Note_on_c, 0, 64, 0
1, 33120, Note_on_c, 0, 41, 0
1, 33120, Note_on_c, 0, 72, 48
1, 33120, Note_on_c, 0, 65, 39
1, 33120, Note_on_c, 0, 57, 32
1, 33135, Control_c, 0, 64, 0
1, 33267, Control_c, 0, 64, 127
1, 33840, Note_on_c, 0, 57, 0
1, 33840, Note_on_c, 0, 72, 0
1, 33840, Note_on_c, 0, 77, 51
1, 34290, Note_on_c, 0, 48, 0
1, 34294, Control_c, 0, 64, 0
1, 34320, Note_on_c, 0, 65, 0
1, 34320, Note_on_c, 0, 41, 0
1, 34320, Note_on_c, 0, 77, 0
1, 34560, Tempo, 418468
1, 34560, Note_on_c, 0, 60, 40
1, 34560, Note_on_c, 0, 72, 50
1, 34560, Note_on_c, 0, 45, 29
1, 34560, Note_on_c, 0, 52, 34
1, 34920, Tempo, 396852
1, 34920, Note_on_c, 0, 72, 0
1, 34920, Note_on_c, 0, 71, 37
1, 35040, Note_on_c, 0, 71, 0
1, 35040, Note_on_c, 0, 69, 37
1, 35160, Tempo, 451875
1, 35160, Note_on_c, 0, 69, 0
1, 35160, Note_on_c, 0, 71, 37
1, 35280, Tempo, 418468
1, 35280, Note_on_c, 0, 71, 0
1, 35280, Note_on_c, 0, 52, 0
1, 35280, Note_on_c, 0, 60, 0
1, 35280, Note_on_c, 0, 62, 36
1, 35280, Note_on_c, 0, 72, 43
1, 35280, Note_on_c, 0, 53, 29
1, 35365, Control_c, 0, 64, 127
1, 35760, Note_on_c, 0, 72, 0
1, 35760, Note_on_c, 0, 69, 43
1, 35880, Tempo, 453789
1, 36000, Tempo, 420109
1, 36000, Note_on_c, 0, 69, 0
1, 36000, Note_on_c, 0, 53, 0
1, 36000, Note_on_c, 0, 62, 0
1, 36000, Note_on_c, 0, 64, 40
1, 36000, Note_on_c, 0, 72, 50
1, 36000, Note_on_c, 0, 55, 34
1, 36007, Control_c, 0, 64, 0
1, 36360, Tempo, 396852
1, 36360, Note_on_c, 0, 72, 0
1, 36360, Note_on_c, 0, 71, 38
1, 36480, Note_on_c, 0, 71, 0
1, 36480, Note_on_c, 0, 69, 38
1, 36600, Tempo, 455719
1, 36600, Note_on_c, 0, 69, 0
1, 36600, Note_on_c, 0, 71, 38
1, 36720, Tempo, 444774
1, 36720, Note_on_c, 0, 71, 0
1, 36720, Note_on_c, 0, 55, 0
1, 36720, Note_on_c, 0, 64, 0
1, 36720, Note_on_c, 0, 62, 36
1, 36720, Note_on_c, 0, 72, 43
1, 36720, Note_on_c, 0, 53, 29
1, 36844, Control_c, 0, 64, 127
1, 37320, Tempo, 451875
1, 37380, Note_on_c, 0, 53, 0
1, 37380, Note_on_c, 0, 72, 0
1, 37380, Note_on_c, 0, 62, 0
1, 37380, Note_on_c, 0, 45, 25
1, 37410, Note_on_c, 0, 52, 29
1, 37440, Tempo, 423400
1, 37440, Note_on_c, 0, 45, 0
1, 37440, Note_on_c, 0, 69, 40
1, 37440, Note_on_c, 0, 76, 50
1, 37440, Note_on_c, 0, 60, 34
1, 37440, Control_c, 0, 64, 0
1, 37564, Control_c, 0, 64, 127
1, 37800, Tempo, 396852
1, 37800, Note_on_c, 0, 76, 0
1, 37800, Note_on_c, 0, 77, 42
1, 37920, Note_on_c, 0, 77, 0
1, 37920, Note_on_c, 0, 79, 46
1, 38040, Note_on_c, 0, 79, 0
1, 38040, Note_on_c, 0, 77, 42
1, 38160, Tempo, 423400
1, 38160, Note_on_c, 0, 77, 0
1, 38160, Note_on_c, 0, 60, 0
1, 38160, Note_on_c, 0, 69, 0
1, 38160, Note_on_c, 0, 76, 51
1, 38160, Note_on_c, 0, 69, 41
1, 38160, Note_on_c, 0, 62, 33
1, 38177, Control_c, 0, 64, 0
1, 38238, Control_c, 0, 64, 127
1, 38640, Tempo, 480115
1, 38640, Note_on_c, 0, 69, 0
1, 38640, Note_on_c, 0, 76, 0
1, 38640, Note_on_c, 0, 68, 45
1, 38640, Note_on_c, 0, 72, 45
1, 38657, Control_c, 0, 64, 0
1, 38700, Control_c, 0, 64, 127
1, 38850, Note_on_c, 0, 52, 0
1, 38880, Tempo, 440755
1, 38880, Note_on_c, 0, 68, 0
1, 38880, Note_on_c, 0, 62, 0
1, 38880, Note_on_c, 0, 45, 0
1, 38880, Note_on_c, 0, 72, 0
1, 38880, Note_on_c, 0, 76, 51
1, 38880, Note_on_c, 0, 69, 42
1, 38880, Note_on_c, 0, 45, 25
1, 38880, Note_on_c, 0, 52, 29
1, 38880, Note_on_c, 0, 60, 34
1, 38895, Control_c, 0, 64, 0
1, 39027, Control_c, 0, 64, 127
1, 39600, Note_on_c, 0, 76, 0
1, 39600, Note_on_c, 0, 81, 53
1, 39840, Tempo, 428480
1, 39840, Note_on_c, 0, 69, 0
1, 39840, Note_on_c, 0, 68, 57
1, 39848, Control_c, 0, 64, 0
1, 40080, Tempo, 446263
1, 40080, Note_on_c, 0, 68, 0
1, 40080, Note_on_c, 0, 67, 61
1, 40320, Tempo, 423400
1, 40320, Note_on_c, 0, 67, 0
1, 40320, Note_on_c, 0, 60, 0
1, 40320, Note_on_c, 0, 52, 0
1, 40320, Note_on_c, 0, 45, 0
1, 40320, Note_on_c, 0, 66, 70
1, 40320, Note_on_c, 0, 50, 29
1, 40320, Note_on_c, 0, 60, 34
1, 40377, Control_c, 0, 64, 127
1, 40800, Note_on_c, 0, 81, 0
1, 40800, Note_on_c, 0, 78, 53
1, 41040, Tempo, 410481
1, 41040, Note_on_c, 0, 78, 0
1, 41040, Note_on_c, 0, 74, 53
1, 41061, Control_c, 0, 64, 0
1, 41280, Note_on_c, 0, 74, 0
1, 41280, Note_on_c, 0, 75, 53
1, 41520, Tempo, 442576
1, 41520, Note_on_c, 0, 75, 0
1, 41520, Note_on_c, 0, 76, 53
1, 41700, Note_on_c, 0, 60, 0
1, 41700, Note_on_c, 0, 50, 0
1, 41700, Note_on_c, 0, 43, 34
1, 41730, Note_on_c, 0, 50, 34
1, 41760, Tempo, 418468
1, 41760, Note_on_c, 0, 66, 0
1, 41760, Note_on_c, 0, 76, 0
1, 41760, Note_on_c, 0, 65, 42
1, 41760, Note_on_c, 0, 77, 53
1, 41760, Note_on_c, 0, 59, 34
1, 41880, Control_c, 0, 64, 127
1, 42240, Tempo, 431903
1, 42240, Note_on_c, 0, 77, 0
1, 42240, Note_on_c, 0, 74, 50
1, 42480, Tempo, 440755
1, 42480, Note_on_c, 0, 74, 0
1, 42480, Note_on_c, 0, 71, 46
1, 42900, Note_on_c, 0, 50, 0
1, 42960, Note_on_c, 0, 59, 0
1, 42960, Note_on_c, 0, 43, 0
1, 42960, Note_on_c, 0, 65, 0
1, 42960, Note_on_c, 0, 71, 0
1, 42974, Control_c, 0, 64, 0
1, 43200, Tempo, 423400
1, 43200, Note_on_c, 0, 66, 64
1, 43200, Note_on_c, 0, 50, 29
1, 43200, Note_on_c, 0, 60, 34
1, 43257, Control_c, 0, 64, 127
1, 43440, Note_on_c, 0, 81, 53
1, 43680, Note_on_c, 0, 81, 0
1, 43680, Note_on_c, 0, 78, 47
1, 43920, Tempo, 410481
1, 43920, Note_on_c, 0, 78, 0
1, 43920, Note_on_c, 0, 74, 49
1, 43941, Control_c, 0, 64, 0
1, 44160, Note_on_c, 0, 74, 0
1, 44160, Note_on_c, 0, 75, 53
1, 44400, Tempo, 442576
1, 44400, Note_on_c, 0, 75, 0
1, 44400, Note_on_c, 0, 76, 54
1, 44580, Note_on_c, 0, 60, 0
1, 44580, Note_on_c, 0, 50, 0
1, 44580, Note_on_c, 0, 43, 38
1, 44610, Note_on_c, 0, 50, 40
1, 44640, Tempo, 418468
1, 44640, Note_on_c, 0, 66, 0
1, 44640, Note_on_c, 0, 65, 42
1, 44640, Note_on_c, 0, 59, 43
1, 44760, Control_c, 0, 64, 127
1, 44880, Note_on_c, 0, 76, 0
1, 44880, Note_on_c, 0, 77, 60
1, 45120, Tempo, 431903
1, 45120, Note_on_c, 0, 77, 0
1, 45120, Note_on_c, 0, 74, 53
1, 45360, Tempo, 440755
1, 45360, Note_on_c, 0, 74, 0
1, 45360, Note_on_c, 0, 69, 56
1, 45367, Control_c, 0, 64, 0
1, 45600, Note_on_c, 0, 69, 0
1, 45600, Note_on_c, 0, 70, 58
1, 45780, Note_on_c, 0, 50, 0
1, 45840, Note_on_c, 0, 59, 0
1, 45840, Note_on_c, 0, 70, 0
1, 45840, Note_on_c, 0, 43, 0
1, 45840, Note_on_c, 0, 71, 63
1, 45990, Note_on_c, 0, 65, 0
1, 45990, Note_on_c, 0, 43, 40
1, 46020, Note_on_c, 0, 50, 43
1, 46050, Note_on_c, 0, 57, 46
1, 46080, Tempo, 422089
1, 46080, Note_on_c, 0, 60, 48
1, 46320, Note_on_c, 0, 71, 0
1, 46320, Note_on_c, 0, 72, 58
1, 46560, Note_on_c, 0, 72, 0
1, 46560, Note_on_c, 0, 69, 53
1, 46800, Note_on_c, 0, 69, 0
1, 46800, Note_on_c, 0, 61, 47
1, 47040, Note_on_c, 0, 61, 0
1, 47040, Note_on_c, 0, 62, 43
1, 47280, Tempo, 444774
1, 47280, Note_on_c, 0, 62, 0
1, 47280, Note_on_c, 0, 64, 44
1, 47520, Tempo, 420433
1, 47520, Note_on_c, 0, 64, 0
1, 47520, Note_on_c, 0, 65, 46
1, 47760, Note_on_c, 0, 65, 0
1, 47760, Note_on_c, 0, 68, 42
1, 48000, Tempo, 437541
1, 48000, Note_on_c, 0, 68, 0
1, 48000, Note_on_c, 0, 60, 0
1, 48000, Note_on_c, 0, 43, 0
1, 48000, Note_on_c, 0, 50, 0
1, 48000, Note_on_c, 0, 57, 0
1, 48000, Note_on_c, 0, 69, 39
1, 48240, Tempo, 448498
1, 48240, Note_on_c, 0, 69, 0
1, 48240, Note_on_c, 0, 73, 31
1, 48480, Note_on_c, 0, 73, 0
1, 48480, Note_on_c, 0, 65, 25
1, 48480, Note_on_c, 0, 69, 25
1, 48480, Note_on_c, 0, 74, 32
1, 48508, Tempo, 456100
1, 48540, Note_on_c, 0, 74, 0
1, 48540, Note_on_c, 0, 69, 0
1, 48540, Note_on_c, 0, 65, 0
1, 48566, Tempo, 458050
1, 48624, Tempo, 459982
1, 48681, Tempo, 461965
1, 48720, Note_on_c, 0, 69, 26
1, 48720, Note_on_c, 0, 74, 26
1, 48720, Note_on_c, 0, 77, 33
1, 48739, Tempo, 463965
1, 48780, Note_on_c, 0, 77, 0
1, 48780, Note_on_c, 0, 74, 0
1, 48780, Note_on_c, 0, 69, 0
1, 48796, Tempo, 465983
1, 48854, Tempo, 467982
1, 48912, Tempo, 470035
1, 48960, Note_on_c, 0, 81, 40
1, 48960, Note_on_c, 0, 77, 32
1, 48960, Note_on_c, 0, 74, 32
1, 48969, Tempo, 472106
1, 49020, Note_on_c, 0, 74, 0
1, 49020, Note_on_c, 0, 77, 0
1, 49020, Note_on_c, 0, 81, 0
1, 49440, Tempo, 422089
1, 50400, Note_on_c, 0, 64, 40
1, 50400, Note_on_c, 0, 59, 36
1, 50400, Note_on_c, 0, 53, 36
1, 50400, Note_on_c, 0, 44, 44
1, 51600, Tempo, 452250
1, 51600, Note_on_c, 0, 44, 0
1, 51600, Note_on_c, 0, 43, 32
1, 51840, Tempo, 420109
1, 51840, Note_on_c, 0, 43, 0
1, 51840, Note_on_c, 0, 53, 0
1, 51840, Note_on_c, 0, 59, 0
1, 51840, Note_on_c, 0, 64, 0
1, 51840, Note_on_c, 0, 60, 40
1, 51840, Note_on_c, 0, 36, 21
1, 51840, Note_on_c, 0, 52, 32
1, 51840, Note_on_c, 0, 43, 27
1, 51943, Control_c, 0, 64, 127
1, 52200, Tempo, 396852
1, 52200, Note_on_c, 0, 60, 0
1, 52200, Note_on_c, 0, 59, 30
1, 52320, Note_on_c, 0, 59, 0
1, 52320, Note_on_c, 0, 60, 30
1, 52440, Tempo, 455719
1, 52440, Note_on_c, 0, 60, 0
1, 52440, Note_on_c, 0, 62, 30
1, 52560, Tempo, 444774
1, 52560, Note_on_c, 0, 62, 0
1, 52560, Note_on_c, 0, 43, 0
1, 52560, Note_on_c, 0, 52, 0
1, 52560, Note_on_c, 0, 36, 0
1, 52560, Note_on_c, 0, 64, 34
1, 52560, Note_on_c, 0, 53, 30
1, 52560, Note_on_c, 0, 59, 38
1, 52560, Note_on_c, 0, 44, 38
1, 52560, Note_on_c, 0, 56, 30
1, 52577, Control_c, 0, 64, 0
1, 52652, Control_c, 0, 64, 127
1, 53160, Tempo, 451875
1, 53280, Tempo, 420109
1, 53280, Note_on_c, 0, 56, 0
1, 53280, Note_on_c, 0, 59, 0
1, 53280, Note_on_c, 0, 64, 0
1, 53280, Note_on_c, 0, 53, 0
1, 53280, Note_on_c, 0, 44, 0
1, 53280, Note_on_c, 0, 60, 40
1, 53280, Note_on_c, 0, 36, 21
1, 53280, Note_on_c, 0, 52, 32
1, 53280, Note_on_c, 0, 43, 27
1, 53286, Control_c, 0, 64, 0
1, 53383, Control_c, 0, 64, 127
1, 53640, Tempo, 396852
1, 53640, Note_on_c, 0, 60, 0
1, 53640, Note_on_c, 0, 59, 30
1, 53760, Note_on_c, 0, 59, 0
1, 53760, Note_on_c, 0, 60, 30
1, 53880, Tempo, 455719
1, 53880, Note_on_c, 0, 60, 0
1, 53880, Note_on_c, 0, 62, 30
1, 54000, Tempo, 443131
1, 54000, Note_on_c, 0, 62, 0
1, 54000, Note_on_c, 0, 43, 0
1, 54000, Note_on_c, 0, 52, 0
1, 54000, Note_on_c, 0, 36, 0
1, 54000, Note_on_c, 0, 64, 34
1, 54000, Note_on_c, 0, 53, 30
1, 54000, Note_on_c, 0, 59, 38
1, 54000, Note_on_c, 0, 44, 38
1, 54000, Note_on_c, 0, 56, 30
1, 54017, Control_c, 0, 64, 0
1, 54092, Control_c, 0, 64, 127
1, 54600, Tempo, 451875
1, 54720, Tempo, 417159
1, 54720, Note_on_c, 0, 56, 0
1, 54720, Note_on_c, 0, 59, 0
1, 54720, Note_on_c, 0, 64, 0
1, 54720, Note_on_c, 0, 53, 0
1, 54720, Note_on_c, 0, 44, 0
1, 54720, Note_on_c, 0, 60, 29
1, 54720, Note_on_c, 0, 52, 24
1, 54720, Note_on_c, 0, 36, 22
1, 54720, Note_on_c, 0, 43, 26
1, 54720, Control_c, 0, 64, 0
1, 54880, Control_c, 0, 64, 127
1, 54960, Note_on_c, 0, 43, 0
1, 54960, Note_on_c, 0, 60, 0
1, 54960, Note_on_c, 0, 52, 0
1, 54960, Note_on_c, 0, 36, 0
1, 55437, Note_on_c, 0, 64, 22
1, 55440, Tempo, 425411
1, 55440, Note_on_c, 0, 72, 27
1, 55440, Note_on_c, 0, 48, 22
1, 55440, Note_on_c, 0, 55, 26
1, 55680, Note_on_c, 0, 55, 0
1, 55680, Note_on_c, 0, 48, 0
1, 55680, Note_on_c, 0, 72, 0
1, 55682, Note_on_c, 0, 64, 0
1, 56160, Tempo, 444774
1, 56160, Note_on_c, 0, 84, 28
1, 56160, Note_on_c, 0, 76, 23
1, 56160, Note_on_c, 0, 60, 23
1, 56160, Note_on_c, 0, 67, 28
1, 57147, Control_c, 0, 64, 0
1, 57360, Note_on_c, 0, 67, 0
1, 57360, Note_on_c, 0, 84, 0
1, 57360, Note_on_c, 0, 76, 0
1, 57360, Note_on_c, 0, 60, 0
1, 57600, Tempo, 418468
1, 57600, Marker_t, "Teil 2"
1, 57600, Note_on_c, 0, 62, 34
1, 57600, Note_on_c, 0, 67, 42
1, 57600, Note_on_c, 0, 48, 24
1, 57600, Note_on_c, 0, 58, 28
1, 57960, Tempo, 396852
1, 57960, Note_on_c, 0, 67, 0
1, 57960, Note_on_c, 0, 66, 31
1, 58080, Note_on_c, 0, 66, 0
1, 58080, Note_on_c, 0, 67, 31
1, 58200, Tempo, 451875
1, 58200, Note_on_c, 0, 67, 0
1, 58200, Note_on_c, 0, 69, 31
1, 58320, Tempo, 418468
1, 58320, Note_on_c, 0, 69, 0
1, 58320, Note_on_c, 0, 70, 36
1, 58800, Note_on_c, 0, 58, 0
1, 58800, Note_on_c, 0, 62, 0
1, 58800, Note_on_c, 0, 64, 36
1, 58800, Note_on_c, 0, 60, 34
1, 58920, Tempo, 453789
1, 59040, Tempo, 418468
1, 59040, Note_on_c, 0, 60, 0
1, 59040, Note_on_c, 0, 64, 0
1, 59040, Note_on_c, 0, 65, 34
1, 59040, Note_on_c, 0, 62, 37
1, 59400, Tempo, 396852
1, 59400, Note_on_c, 0, 70, 0
1, 59400, Note_on_c, 0, 69, 36
1, 59520, Note_on_c, 0, 69, 0
1, 59520, Note_on_c, 0, 70, 38
1, 59640, Tempo, 451875
1, 59640, Note_on_c, 0, 70, 0
1, 59640, Note_on_c, 0, 72, 40
1, 59760, Tempo, 418468
1, 59760, Note_on_c, 0, 72, 0
1, 59760, Note_on_c, 0, 74, 44
1, 60240, Note_on_c, 0, 62, 0
1, 60240, Note_on_c, 0, 65, 0
1, 60240, Note_on_c, 0, 66, 42
1, 60240, Note_on_c, 0, 63, 37
1, 60360, Tempo, 453789
1, 60420, Note_on_c, 0, 63, 0
1, 60420, Note_on_c, 0, 48, 37
1, 60450, Note_on_c, 0, 58, 41
1, 60480, Tempo, 432526
1, 60480, Note_on_c, 0, 66, 0
1, 60480, Note_on_c, 0, 48, 0
1, 60480, Note_on_c, 0, 64, 47
1, 60540, Control_c, 0, 64, 127
1, 60617, Tempo, 430973
1, 60720, Note_on_c, 0, 64, 0
1, 60720, Note_on_c, 0, 58, 0
1, 60720, Note_on_c, 0, 48, 0
1, 60720, Note_on_c, 0, 67, 48
1, 60751, Tempo, 429430
1, 60840, Note_on_c, 0, 67, 0
1, 60840, Note_on_c, 0, 74, 0
1, 60840, Note_on_c, 0, 73, 42
1, 60840, Note_on_c, 0, 70, 42
1, 60866, Tempo, 427899
1, 60960, Note_on_c, 0, 70, 0
1, 60960, Note_on_c, 0, 73, 0
1, 60960, Note_on_c, 0, 67, 46
1, 60981, Tempo, 426379
1, 61080, Note_on_c, 0, 67, 0
1, 61080, Note_on_c, 0, 70, 42
1, 61080, Note_on_c, 0, 74, 42
1, 61097, Tempo, 424869
1, 61200, Note_on_c, 0, 74, 0
1, 61200, Note_on_c, 0, 70, 0
1, 61200, Note_on_c, 0, 70, 47
1, 61212, Tempo, 423370
1, 61290, Note_on_c, 0, 70, 0
1, 61320, Note_on_c, 0, 74, 41
1, 61320, Note_on_c, 0, 78, 41
1, 61346, Tempo, 421882
1, 61410, Note_on_c, 0, 78, 0
1, 61410, Note_on_c, 0, 74, 0
1, 61440, Note_on_c, 0, 70, 45
1, 61461, Tempo, 420404
1, 61530, Note_on_c, 0, 70, 0
1, 61560, Note_on_c, 0, 79, 39
1, 61560, Note_on_c, 0, 74, 39
1, 61577, Tempo, 418936
1, 61650, Note_on_c, 0, 74, 0
1, 61650, Note_on_c, 0, 79, 0
1, 61680, Note_on_c, 0, 74, 43
1, 61692, Tempo, 417478
1, 61770, Note_on_c, 0, 74, 0
1, 61800, Note_on_c, 0, 81, 37
1, 61800, Note_on_c, 0, 79, 37
1, 61807, Tempo, 416031
1, 61890, Note_on_c, 0, 79, 0
1, 61890, Note_on_c, 0, 81, 0
1, 61920, Note_on_c, 0, 74, 43
1, 61922, Tempo, 414594
1, 62010, Note_on_c, 0, 74, 0
1, 62040, Note_on_c, 0, 82, 36
1, 62040, Note_on_c, 0, 79, 36
1, 62130, Note_on_c, 0, 79, 0
1, 62130, Note_on_c, 0, 82, 0
1, 62153, Tempo, 413166
1, 62160, Note_on_c, 0, 79, 41
1, 62210, Tempo, 407553
1, 62249, Tempo, 408942
1, 62250, Note_on_c, 0, 79, 0
1, 62268, Tempo, 410341
1, 62280, Note_on_c, 0, 85, 34
1, 62280, Note_on_c, 0, 82, 34
1, 62287, Tempo, 411749
1, 62325, Tempo, 413166
1, 62345, Tempo, 414594
1, 62364, Tempo, 416031
1, 62370, Note_on_c, 0, 82, 0
1, 62370, Note_on_c, 0, 85, 0
1, 62383, Tempo, 417478
1, 62400, Note_on_c, 0, 79, 38
1, 62421, Tempo, 418936
1, 62441, Tempo, 420404
1, 62460, Tempo, 421882
1, 62490, Note_on_c, 0, 79, 0
1, 62498, Tempo, 423370
1, 62517, Tempo, 424869
1, 62520, Note_on_c, 0, 86, 33
1, 62520, Note_on_c, 0, 82, 33
1, 62537, Tempo, 426379
1, 62556, Tempo, 430973
1, 62575, Tempo, 434091
1, 62594, Tempo, 437254
1, 62610, Note_on_c, 0, 82, 0
1, 62610, Note_on_c, 0, 86, 0
1, 62613, Tempo, 440464
1, 62633, Tempo, 445368
1, 62640, Note_on_c, 0, 91, 48
1, 62652, Tempo, 448699
1, 62671, Tempo, 452080
1, 62690, Tempo, 457247
1, 62709, Tempo, 460759
1, 62729, Tempo, 464324
1, 62748, Tempo, 467946
1, 62760, Note_on_c, 0, 91, 0
1, 62767, Tempo, 473485
1, 62786, Tempo, 477251
1, 62805, Tempo, 481078
1, 62825, Tempo, 486934
1, 63033, Control_c, 0, 64, 0
1, 63360, Tempo, 418468
1, 63360, Note_on_c, 0, 67, 37
1, 63360, Note_on_c, 0, 72, 46
1, 63360, Note_on_c, 0, 53, 26
1, 63360, Note_on_c, 0, 63, 30
1, 63720, Tempo, 396852
1, 63720, Note_on_c, 0, 72, 0
1, 63720, Note_on_c, 0, 71, 34
1, 63840, Note_on_c, 0, 71, 0
1, 63840, Note_on_c, 0, 72, 35
1, 63960, Tempo, 451875
1, 63960, Note_on_c, 0, 72, 0
1, 63960, Note_on_c, 0, 74, 35
1, 64080, Tempo, 418468
1, 64080, Note_on_c, 0, 74, 0
1, 64080, Note_on_c, 0, 75, 41
1, 64560, Note_on_c, 0, 63, 0
1, 64560, Note_on_c, 0, 67, 0
1, 64560, Note_on_c, 0, 69, 42
1, 64560, Note_on_c, 0, 65, 40
1, 64680, Tempo, 453789
1, 64800, Tempo, 418468
1, 64800, Note_on_c, 0, 65, 0
1, 64800, Note_on_c, 0, 69, 0
1, 64800, Note_on_c, 0, 70, 41
1, 64800, Note_on_c, 0, 67, 44
1, 65160, Tempo, 396852
1, 65160, Note_on_c, 0, 75, 0
1, 65160, Note_on_c, 0, 74, 44
1, 65280, Note_on_c, 0, 74, 0
1, 65280, Note_on_c, 0, 75, 47
1, 65400, Tempo, 451875
1, 65400, Note_on_c, 0, 75, 0
1, 65400, Note_on_c, 0, 77, 50
1, 65520, Tempo, 418468
1, 65520, Note_on_c, 0, 77, 0
1, 65520, Note_on_c, 0, 79, 55
1, 66000, Note_on_c, 0, 67, 0
1, 66000, Note_on_c, 0, 70, 0
1, 66000, Note_on_c, 0, 71, 42
1, 66000, Note_on_c, 0, 68, 37
1, 66120, Tempo, 453789
1, 66180, Note_on_c, 0, 68, 0
1, 66180, Note_on_c, 0, 53, 37
1, 66210, Note_on_c, 0, 63, 41
1, 66240, Tempo, 432526
1, 66240, Note_on_c, 0, 71, 0
1, 66240, Note_on_c, 0, 53, 0
1, 66240, Note_on_c, 0, 69, 47
1, 66300, Control_c, 0, 64, 127
1, 66377, Tempo, 430973
1, 66480, Note_on_c, 0, 69, 0
1, 66480, Note_on_c, 0, 63, 0
1, 66480, Note_on_c, 0, 53, 0
1, 66480, Note_on_c, 0, 72, 48
1, 66511, Tempo, 429430
1, 66600, Note_on_c, 0, 72, 0
1, 66600, Note_on_c, 0, 79, 0
1, 66600, Note_on_c, 0, 78, 42
1, 66600, Note_on_c, 0, 75, 42
1, 66626, Tempo, 427899
1, 66720, Note_on_c, 0, 75, 0
1, 66720, Note_on_c, 0, 78, 0
1, 66720, Note_on_c, 0, 72, 46
1, 66741, Tempo, 426379
1, 66840, Note_on_c, 0, 72, 0
1, 66840, Note_on_c, 0, 75, 42
1, 66840, Note_on_c, 0, 79, 42
1, 66857, Tempo, 424869
1, 66960, Note_on_c, 0, 79, 0
1, 66960, Note_on_c, 0, 75, 0
1, 66960, Note_on_c, 0, 75, 47
1, 66972, Tempo, 423370
1, 67050, Note_on_c, 0, 75, 0
1, 67080, Note_on_c, 0, 79, 41
1, 67080, Note_on_c, 0, 83, 41
1, 67106, Tempo, 421882
1, 67170, Note_on_c, 0, 83, 0
1, 67170, Note_on_c, 0, 79, 0
1, 67200, Note_on_c, 0, 75, 45
1, 67221, Tempo, 420404
1, 67290, Note_on_c, 0, 75, 0
1, 67320, Note_on_c, 0, 84, 39
1, 67320, Note_on_c, 0, 79, 39
1, 67337, Tempo, 418936
1, 67410, Note_on_c, 0, 79, 0
1, 67410, Note_on_c, 0, 84, 0
1, 67440, Note_on_c, 0, 79, 43
1, 67452, Tempo, 417478
1, 67530, Note_on_c, 0, 79, 0
1, 67560, Note_on_c, 0, 86, 37
1, 67560, Note_on_c, 0, 84, 37
1, 67567, Tempo, 416031
1, 67650, Note_on_c, 0, 84, 0
1, 67650, Note_on_c, 0, 86, 0
1, 67680, Note_on_c, 0, 79, 43
1, 67682, Tempo, 414594
1, 67770, Note_on_c, 0, 79, 0
1, 67800, Note_on_c, 0, 87, 36
1, 67800, Note_on_c, 0, 84, 36
1, 67890, Note_on_c, 0, 84, 0
1, 67890, Note_on_c, 0, 87, 0
1, 67913, Tempo, 413166
1, 67920, Note_on_c, 0, 84, 41
1, 67970, Tempo, 407553
1, 68009, Tempo, 408942
1, 68010, Note_on_c, 0, 84, 0
1, 68028, Tempo, 410341
1, 68040, Note_on_c, 0, 90, 34
1, 68040, Note_on_c, 0, 87, 34
1, 68047, Tempo, 411749
1, 68085, Tempo, 413166
1, 68105, Tempo, 414594
1, 68124, Tempo, 416031
1, 68130, Note_on_c, 0, 87, 0
1, 68130, Note_on_c, 0, 90, 0
1, 68143, Tempo, 417478
1, 68160, Note_on_c, 0, 84, 38
1, 68181, Tempo, 418936
1, 68201, Tempo, 420404
1, 68220, Tempo, 421882
1, 68250, Note_on_c, 0, 84, 0
1, 68258, Tempo, 423370
1, 68277, Tempo, 424869
1, 68280, Note_on_c, 0, 91, 33
1, 68280, Note_on_c, 0, 87, 33
1, 68297, Tempo, 426379
1, 68316, Tempo, 430973
1, 68335, Tempo, 434091
1, 68354, Tempo, 437254
1, 68370, Note_on_c, 0, 87, 0
1, 68370, Note_on_c, 0, 91, 0
1, 68373, Tempo, 440464
1, 68393, Tempo, 445368
1, 68400, Note_on_c, 0, 96, 48
1, 68412, Tempo, 448699
1, 68431, Tempo, 452080
1, 68450, Tempo, 457247
1, 68469, Tempo, 460759
1, 68489, Tempo, 464324
1, 68508, Tempo, 467946
1, 68520, Note_on_c, 0, 96, 0
1, 68527, Tempo, 473485
1, 68546, Tempo, 477251
1, 68565, Tempo, 481078
1, 68585, Tempo, 486934
1, 68793, Control_c, 0, 64, 0
1, 69120, Tempo, 414594
1, 69120, Note_on_c, 0, 46, 58
1, 69180, Tempo, 411749
1, 69240, Note_on_c, 0, 82, 31
1, 69240, Note_on_c, 0, 86, 31
1, 69240, Control_c, 0, 64, 127
1, 69295, Tempo, 410341
1, 69360, Note_on_c, 0, 86, 0
1, 69360, Note_on_c, 0, 82, 0
1, 69360, Note_on_c, 0, 88, 35
1, 69410, Tempo, 408942
1, 69480, Note_on_c, 0, 88, 0
1, 69480, Note_on_c, 0, 82, 30
1, 69480, Note_on_c, 0, 86, 30
1, 69506, Tempo, 407553
1, 69600, Note_on_c, 0, 86, 0
1, 69600, Note_on_c, 0, 82, 0
1, 69600, Note_on_c, 0, 46, 0
1, 69600, Note_on_c, 0, 89, 35
1, 69600, Note_on_c, 0, 53, 52
1, 69621, Tempo, 406174
1, 69717, Tempo, 404804
1, 69720, Note_on_c, 0, 89, 0
1, 69720, Note_on_c, 0, 86, 31
1, 69720, Note_on_c, 0, 82, 31
1, 69840, Note_on_c, 0, 82, 0
1, 69840, Note_on_c, 0, 86, 0
1, 69840, Note_on_c, 0, 53, 0
1, 69840, Note_on_c, 0, 58, 58
1, 69960, Note_on_c, 0, 86, 30
1, 69960, Note_on_c, 0, 82, 30
1, 70080, Note_on_c, 0, 82, 0
1, 70080, Note_on_c, 0, 86, 0
1, 70080, Note_on_c, 0, 88, 35
1, 70200, Note_on_c, 0, 88, 0
1, 70200, Note_on_c, 0, 86, 32
1, 70200, Note_on_c, 0, 82, 32
1, 70320, Note_on_c, 0, 82, 0
1, 70320, Note_on_c, 0, 86, 0
1, 70320, Note_on_c, 0, 58, 0
1, 70320, Note_on_c, 0, 89, 35
1, 70320, Note_on_c, 0, 60, 53
1, 70370, Tempo, 402091
1, 70409, Tempo, 403443
1, 70428, Tempo, 404804
1, 70440, Note_on_c, 0, 89, 0
1, 70440, Note_on_c, 0, 82, 31
1, 70440, Note_on_c, 0, 86, 31
1, 70466, Tempo, 406174
1, 70485, Tempo, 407553
1, 70505, Tempo, 408942
1, 70543, Tempo, 410341
1, 70560, Note_on_c, 0, 86, 0
1, 70560, Note_on_c, 0, 82, 0
1, 70560, Note_on_c, 0, 60, 0
1, 70560, Note_on_c, 0, 62, 63
1, 70562, Tempo, 411749
1, 70581, Tempo, 413166
1, 70677, Tempo, 413166
1, 70680, Note_on_c, 0, 82, 34
1, 70680, Note_on_c, 0, 86, 34
1, 70800, Note_on_c, 0, 86, 0
1, 70800, Note_on_c, 0, 82, 0
1, 70800, Note_on_c, 0, 88, 39
1, 70869, Tempo, 411749
1, 70920, Note_on_c, 0, 88, 0
1, 70920, Note_on_c, 0, 82, 34
1, 70920, Note_on_c, 0, 86, 34
1, 71040, Note_on_c, 0, 86, 0
1, 71040, Note_on_c, 0, 82, 0
1, 71040, Note_on_c, 0, 62, 0
1, 71040, Note_on_c, 0, 89, 41
1, 71040, Note_on_c, 0, 65, 65
1, 71042, Tempo, 410341
1, 71160, Note_on_c, 0, 89, 0
1, 71160, Note_on_c, 0, 86, 37
1, 71160, Note_on_c, 0, 82, 37
1, 71234, Tempo, 408942
1, 71280, Note_on_c, 0, 82, 0
1, 71280, Note_on_c, 0, 86, 0
1, 71280, Note_on_c, 0, 65, 0
1, 71280, Note_on_c, 0, 70, 74
1, 71400, Note_on_c, 0, 86, 37
1, 71400, Note_on_c, 0, 82, 37
1, 71407, Tempo, 407553
1, 71520, Note_on_c, 0, 82, 0
1, 71520, Note_on_c, 0, 86, 0
1, 71520, Note_on_c, 0, 88, 45
1, 71580, Tempo, 406174
1, 71640, Note_on_c, 0, 88, 0
1, 71640, Note_on_c, 0, 86, 41
1, 71640, Note_on_c, 0, 82, 41
1, 71760, Note_on_c, 0, 82, 0
1, 71760, Note_on_c, 0, 86, 0
1, 71760, Note_on_c, 0, 70, 0
1, 71760, Note_on_c, 0, 89, 46
1, 71760, Note_on_c, 0, 69, 58
1, 71880, Tempo, 453789
1, 71880, Note_on_c, 0, 89, 0
1, 71880, Note_on_c, 0, 82, 42
1, 71880, Note_on_c, 0, 86, 42
1, 71910, Note_on_c, 0, 69, 0
1, 71910, Note_on_c, 0, 52, 41
1, 71930, Control_c, 0, 64, 0
1, 71940, Note_on_c, 0, 59, 47
1, 71970, Note_on_c, 0, 62, 53
1, 72000, Tempo, 435667
1, 72000, Note_on_c, 0, 86, 0
1, 72000, Note_on_c, 0, 82, 0
1, 72000, Note_on_c, 0, 69, 81
1, 72000, Control_c, 0, 64, 127
1, 72021, Tempo, 410341
1, 72120, Note_on_c, 0, 83, 42
1, 72120, Note_on_c, 0, 86, 42
1, 72240, Note_on_c, 0, 86, 0
1, 72240, Note_on_c, 0, 83, 0
1, 72240, Note_on_c, 0, 88, 47
1, 72271, Tempo, 403443
1, 72360, Note_on_c, 0, 88, 0
1, 72360, Note_on_c, 0, 83, 39
1, 72360, Note_on_c, 0, 86, 39
1, 72386, Tempo, 402091
1, 72480, Note_on_c, 0, 86, 0
1, 72480, Note_on_c, 0, 83, 0
1, 72480, Note_on_c, 0, 89, 45
1, 72501, Tempo, 400748
1, 72597, Tempo, 399414
1, 72600, Note_on_c, 0, 89, 0
1, 72600, Note_on_c, 0, 86, 39
1, 72600, Note_on_c, 0, 83, 39
1, 72713, Tempo, 398089
1, 72720, Note_on_c, 0, 83, 0
1, 72720, Note_on_c, 0, 86, 0
1, 72809, Tempo, 396773
1, 72840, Note_on_c, 0, 86, 36
1, 72840, Note_on_c, 0, 83, 36
1, 72960, Note_on_c, 0, 83, 0
1, 72960, Note_on_c, 0, 86, 0
1, 72960, Note_on_c, 0, 88, 42
1, 73080, Note_on_c, 0, 88, 0
1, 73080, Note_on_c, 0, 86, 37
1, 73080, Note_on_c, 0, 83, 37
1, 73200, Note_on_c, 0, 83, 0
1, 73200, Note_on_c, 0, 86, 0
1, 73200, Note_on_c, 0, 89, 40
1, 73320, Note_on_c, 0, 89, 0
1, 73320, Note_on_c, 0, 83, 35
1, 73320, Note_on_c, 0, 86, 35
1, 73404, Tempo, 418936
1, 73423, Tempo, 420404
1, 73440, Note_on_c, 0, 86, 0
1, 73440, Note_on_c, 0, 69, 0
1, 73440, Note_on_c, 0, 83, 0
1, 73440, Note_on_c, 0, 68, 52
1, 73560, Note_on_c, 0, 83, 31
1, 73560, Note_on_c, 0, 86, 31
1, 73596, Tempo, 398089
1, 73680, Note_on_c, 0, 86, 0
1, 73680, Note_on_c, 0, 83, 0
1, 73680, Note_on_c, 0, 88, 35
1, 73711, Tempo, 396773
1, 73800, Note_on_c, 0, 88, 0
1, 73800, Note_on_c, 0, 83, 30
1, 73800, Note_on_c, 0, 86, 30
1, 73807, Tempo, 395465
1, 73920, Note_on_c, 0, 86, 0
1, 73920, Note_on_c, 0, 59, 0
1, 73920, Note_on_c, 0, 62, 0
1, 73920, Note_on_c, 0, 52, 0
1, 73920, Note_on_c, 0, 83, 0
1, 73920, Note_on_c, 0, 68, 0
1, 73920, Note_on_c, 0, 89, 35
1, 74040, Note_on_c, 0, 89, 0
1, 74040, Note_on_c, 0, 86, 31
1, 74040, Note_on_c, 0, 83, 31
1, 74160, Note_on_c, 0, 83, 0
1, 74160, Note_on_c, 0, 86, 0
1, 74280, Note_on_c, 0, 86, 30
1, 74280, Note_on_c, 0, 83, 30
1, 74287, Tempo, 394166
1, 74345, Tempo, 395465
1, 74400, Note_on_c, 0, 83, 0
1, 74400, Note_on_c, 0, 86, 0
1, 74400, Note_on_c, 0, 88, 35
1, 74402, Tempo, 396773
1, 74441, Tempo, 398089
1, 74498, Tempo, 399414
1, 74520, Note_on_c, 0, 88, 0
1, 74520, Note_on_c, 0, 86, 32
1, 74520, Note_on_c, 0, 83, 32
1, 74556, Tempo, 400748
1, 74594, Tempo, 402091
1, 74640, Note_on_c, 0, 83, 0
1, 74640, Note_on_c, 0, 86, 0
1, 74640, Note_on_c, 0, 89, 35
1, 74652, Tempo, 403443
1, 74709, Tempo, 404804
1, 74748, Tempo, 406174
1, 74760, Note_on_c, 0, 89, 0
1, 74760, Note_on_c, 0, 83, 31
1, 74760, Note_on_c, 0, 86, 31
1, 74805, Tempo, 407553
1, 74844, Tempo, 408942
1, 74880, Tempo, 414594
1, 74880, Note_on_c, 0, 86, 0
1, 74880, Note_on_c, 0, 83, 0
1, 74880, Note_on_c, 0, 46, 58
1, 74880, Control_c, 0, 64, 0
1, 74940, Tempo, 411749
1, 75000, Note_on_c, 0, 82, 31
1, 75000, Note_on_c, 0, 85, 31
1, 75000, Control_c, 0, 64, 127
1, 75055, Tempo, 410341
1, 75120, Note_on_c, 0, 85, 0
1, 75120, Note_on_c, 0, 82, 0
1, 75120, Note_on_c, 0, 88, 35
1, 75170, Tempo, 408942
1, 75240, Note_on_c, 0, 88, 0
1, 75240, Note_on_c, 0, 82, 30
1, 75240, Note_on_c, 0, 85, 30
1, 75266, Tempo, 407553
1, 75360, Note_on_c, 0, 85, 0
1, 75360, Note_on_c, 0, 82, 0
1, 75360, Note_on_c, 0, 46, 0
1, 75360, Note_on_c, 0, 89, 35
1, 75360, Note_on_c, 0, 53, 52
1, 75381, Tempo, 406174
1, 75477, Tempo, 404804
1, 75480, Note_on_c, 0, 89, 0
1, 75480, Note_on_c, 0, 85, 31
1, 75480, Note_on_c, 0, 82, 31
1, 75600, Note_on_c, 0, 82, 0
1, 75600, Note_on_c, 0, 85, 0
1, 75600, Note_on_c, 0, 53, 0
1, 75600, Note_on_c, 0, 58, 58
1, 75720, Note_on_c, 0, 85, 30
1, 75720, Note_on_c, 0, 82, 30
1, 75840, Note_on_c, 0, 82, 0
1, 75840, Note_on_c, 0, 85, 0
1, 75840, Note_on_c, 0, 88, 36
1, 75960, Note_on_c, 0, 88, 0
1, 75960, Note_on_c, 0, 85, 32
1, 75960, Note_on_c, 0, 82, 32
1, 76080, Note_on_c, 0, 82, 0
1, 76080, Note_on_c, 0, 85, 0
1, 76080, Note_on_c, 0, 58, 0
1, 76080, Note_on_c, 0, 89, 36
1, 76080, Note_on_c, 0, 60, 53
1, 76130, Tempo, 402091
1, 76169, Tempo, 403443
1, 76188, Tempo, 404804
1, 76200, Note_on_c, 0, 89, 0
1, 76200, Note_on_c, 0, 82, 32
1, 76200, Note_on_c, 0, 85, 32
1, 76226, Tempo, 406174
1, 76245, Tempo, 407553
1, 76265, Tempo, 408942
1, 76303, Tempo, 410341
1, 76320, Note_on_c, 0, 85, 0
1, 76320, Note_on_c, 0, 82, 0
1, 76320, Note_on_c, 0, 60, 0
1, 76320, Note_on_c, 0, 61, 63
1, 76322, Tempo, 411749
1, 76341, Tempo, 413166
1, 76437, Tempo, 413166
1, 76440, Note_on_c, 0, 82, 35
1, 76440, Note_on_c, 0, 85, 35
1, 76560, Note_on_c, 0, 85, 0
1, 76560, Note_on_c, 0, 82, 0
1, 76560, Note_on_c, 0, 88, 40
1, 76629, Tempo, 411749
1, 76680, Note_on_c, 0, 88, 0
1, 76680, Note_on_c, 0, 82, 36
1, 76680, Note_on_c, 0, 85, 36
1, 76800, Note_on_c, 0, 85, 0
1, 76800, Note_on_c, 0, 82, 0
1, 76800, Note_on_c, 0, 61, 0
1, 76800, Note_on_c, 0, 89, 44
1, 76800, Note_on_c, 0, 65, 70
1, 76802, Tempo, 410341
1, 76920, Note_on_c, 0, 89, 0
1, 76920, Note_on_c, 0, 85, 40
1, 76920, Note_on_c, 0, 82, 40
1, 76994, Tempo, 408942
1, 77040, Note_on_c, 0, 82, 0
1, 77040, Note_on_c, 0, 85, 0
1, 77040, Note_on_c, 0, 65, 0
1, 77040, Note_on_c, 0, 70, 76
1, 77160, Note_on_c, 0, 85, 40
1, 77160, Note_on_c, 0, 82, 40
1, 77167, Tempo, 407553
1, 77280, Note_on_c, 0, 82, 0
1, 77280, Note_on_c, 0, 85, 0
1, 77280, Note_on_c, 0, 88, 50
1, 77340, Tempo, 406174
1, 77400, Note_on_c, 0, 88, 0
1, 77400, Note_on_c, 0, 85, 46
1, 77400, Note_on_c, 0, 82, 46
1, 77520, Note_on_c, 0, 82, 0
1, 77520, Note_on_c, 0, 85, 0
1, 77520, Note_on_c, 0, 70, 0
1, 77520, Note_on_c, 0, 89, 53
1, 77520, Note_on_c, 0, 68, 62
1, 77640, Tempo, 453789
1, 77640, Note_on_c, 0, 89, 0
1, 77640, Note_on_c, 0, 82, 49
1, 77640, Note_on_c, 0, 85, 49
1, 77670, Note_on_c, 0, 68, 0
1, 77670, Note_on_c, 0, 51, 43
1, 77690, Control_c, 0, 64, 0
1, 77700, Note_on_c, 0, 58, 51
1, 77730, Note_on_c, 0, 61, 57
1, 77760, Tempo, 435667
1, 77760, Note_on_c, 0, 85, 0
1, 77760, Note_on_c, 0, 82, 0
1, 77760, Note_on_c, 0, 68, 86
1, 77760, Control_c, 0, 64, 127
1, 77781, Tempo, 410341
1, 77880, Note_on_c, 0, 82, 46
1, 77880, Note_on_c, 0, 85, 46
1, 78000, Note_on_c, 0, 85, 0
1, 78000, Note_on_c, 0, 82, 0
1, 78000, Note_on_c, 0, 88, 52
1, 78031, Tempo, 403443
1, 78120, Note_on_c, 0, 88, 0
1, 78120, Note_on_c, 0, 82, 43
1, 78120, Note_on_c, 0, 85, 43
1, 78146, Tempo, 402091
1, 78240, Note_on_c, 0, 85, 0
1, 78240, Note_on_c, 0, 82, 0
1, 78240, Note_on_c, 0, 89, 50
1, 78261, Tempo, 400748
1, 78357, Tempo, 399414
1, 78360, Note_on_c, 0, 89, 0
1, 78360, Note_on_c, 0, 85, 44
1, 78360, Note_on_c, 0, 82, 44
1, 78473, Tempo, 398089
1, 78480, Note_on_c, 0, 82, 0
1, 78480, Note_on_c, 0, 85, 0
1, 78569, Tempo, 396773
1, 78600, Note_on_c, 0, 82, 43
1, 78600, Note_on_c, 0, 85, 43
1, 78720, Note_on_c, 0, 85, 0
1, 78720, Note_on_c, 0, 82, 0
1, 78720, Note_on_c, 0, 88, 53
1, 78840, Note_on_c, 0, 88, 0
1, 78840, Note_on_c, 0, 82, 46
1, 78840, Note_on_c, 0, 85, 46
1, 78960, Note_on_c, 0, 85, 0
1, 78960, Note_on_c, 0, 82, 0
1, 78960, Note_on_c, 0, 89, 53
1, 79080, Note_on_c, 0, 89, 0
1, 79080, Note_on_c, 0, 85, 46
1, 79080, Note_on_c, 0, 82, 46
1, 79164, Tempo, 418936
1, 79183, Tempo, 420404
1, 79200, Note_on_c, 0, 82, 0
1, 79200, Note_on_c, 0, 68, 0
1, 79200, Note_on_c, 0, 85, 0
1, 79200, Note_on_c, 0, 67, 62
1, 79320, Note_on_c, 0, 82, 43
1, 79320, Note_on_c, 0, 85, 43
1, 79356, Tempo, 398089
1, 79440, Note_on_c, 0, 85, 0
1, 79440, Note_on_c, 0, 82, 0
1, 79440, Note_on_c, 0, 88, 53
1, 79471, Tempo, 396773
1, 79560, Note_on_c, 0, 88, 0
1, 79560, Note_on_c, 0, 82, 45
1, 79560, Note_on_c, 0, 85, 45
1, 79567, Tempo, 395465
1, 79680, Note_on_c, 0, 85, 0
1, 79680, Note_on_c, 0, 58, 0
1, 79680, Note_on_c, 0, 61, 0
1, 79680, Note_on_c, 0, 51, 0
1, 79680, Note_on_c, 0, 82, 0
1, 79680, Note_on_c, 0, 67, 0
1, 79680, Note_on_c, 0, 89, 53
1, 79800, Note_on_c, 0, 89, 0
1, 79800, Note_on_c, 0, 85, 44
1, 79800, Note_on_c, 0, 82, 44
1, 79860, Note_on_c, 0, 49, 60
1, 79880, Control_c, 0, 64, 0
1, 79920, Note_on_c, 0, 49, 0
1, 79920, Note_on_c, 0, 82, 0
1, 79920, Note_on_c, 0, 85, 0
1, 79920, Note_on_c, 0, 66, 80
1, 79923, Control_c, 0, 64, 127
1, 80040, Note_on_c, 0, 85, 45
1, 80040, Note_on_c, 0, 82, 45
1, 80047, Tempo, 394166
1, 80105, Tempo, 395465
1, 80160, Note_on_c, 0, 82, 0
1, 80160, Note_on_c, 0, 85, 0
1, 80160, Note_on_c, 0, 89, 49
1, 80162, Tempo, 396773
1, 80201, Tempo, 398089
1, 80258, Tempo, 399414
1, 80280, Note_on_c, 0, 89, 0
1, 80280, Note_on_c, 0, 82, 43
1, 80280, Note_on_c, 0, 85, 43
1, 80316, Tempo, 400748
1, 80354, Tempo, 402091
1, 80400, Note_on_c, 0, 85, 0
1, 80400, Note_on_c, 0, 82, 0
1, 80400, Note_on_c, 0, 66, 0
1, 80400, Note_on_c, 0, 90, 49
1, 80400, Note_on_c, 0, 65, 76
1, 80412, Tempo, 403443
1, 80520, Note_on_c, 0, 90, 0
1, 80520, Note_on_c, 0, 85, 42
1, 80520, Note_on_c, 0, 82, 42
1, 80580, Tempo, 1034661
1, 80580, Note_on_c, 0, 48, 73
1, 80580, Note_on_c, 0, 36, 73
1, 80640, Tempo, 441209
1, 80640, Note_on_c, 0, 82, 0
1, 80640, Note_on_c, 0, 65, 0
1, 80640, Note_on_c, 0, 85, 0
1, 80640, Note_on_c, 0, 55, 64
1, 80640, Note_on_c, 0, 58, 64
1, 80640, Note_on_c, 0, 65, 69
1, 80707, Control_c, 0, 64, 0
1, 80760, Tempo, 390905
1, 80760, Note_on_c, 0, 85, 56
1, 80760, Note_on_c, 0, 82, 56
1, 80840, Control_c, 0, 64, 127
1, 80880, Note_on_c, 0, 82, 0
1, 80880, Note_on_c, 0, 85, 0
1, 80880, Note_on_c, 0, 90, 63
1, 81000, Note_on_c, 0, 90, 0
1, 81000, Note_on_c, 0, 82, 53
1, 81000, Note_on_c, 0, 85, 53
1, 81120, Note_on_c, 0, 85, 0
1, 81120, Note_on_c, 0, 82, 0
1, 81120, Note_on_c, 0, 91, 62
1, 81240, Note_on_c, 0, 91, 0
1, 81240, Note_on_c, 0, 85, 52
1, 81240, Note_on_c, 0, 82, 52
1, 81360, Tempo, 421082
1, 81360, Note_on_c, 0, 82, 0
1, 81360, Note_on_c, 0, 85, 0
1, 81480, Tempo, 393468
1, 81480, Note_on_c, 0, 85, 56
1, 81480, Note_on_c, 0, 82, 56
1, 81600, Note_on_c, 0, 82, 0
1, 81600, Note_on_c, 0, 85, 0
1, 81600, Note_on_c, 0, 90, 61
1, 81720, Note_on_c, 0, 90, 0
1, 81720, Note_on_c, 0, 82, 53
1, 81720, Note_on_c, 0, 85, 53
1, 81840, Note_on_c, 0, 85, 0
1, 81840, Note_on_c, 0, 82, 0
1, 81840, Note_on_c, 0, 91, 61
1, 81960, Note_on_c, 0, 91, 0
1, 81960, Note_on_c, 0, 85, 52
1, 81960, Note_on_c, 0, 82, 52
1, 82080, Tempo, 447795
1, 82080, Note_on_c, 0, 82, 0
1, 82080, Note_on_c, 0, 65, 0
1, 82080, Note_on_c, 0, 85, 0
1, 82080, Note_on_c, 0, 64, 66
1, 82200, Tempo, 389636
1, 82200, Note_on_c, 0, 85, 51
1, 82200, Note_on_c, 0, 82, 51
1, 82320, Note_on_c, 0, 82, 0
1, 82320, Note_on_c, 0, 85, 0
1, 82320, Note_on_c, 0, 90, 58
1, 82440, Note_on_c, 0, 90, 0
1, 82440, Note_on_c, 0, 82, 49
1, 82440, Note_on_c, 0, 85, 49
1, 82560, Note_on_c, 0, 85, 0
1, 82560, Note_on_c, 0, 82, 0
1, 82560, Note_on_c, 0, 91, 57
1, 82680, Note_on_c, 0, 91, 0
1, 82680, Note_on_c, 0, 85, 48
1, 82680, Note_on_c, 0, 82, 48
1, 82800, Tempo, 428602
1, 82800, Note_on_c, 0, 82, 0
1, 82800, Note_on_c, 0, 85, 0
1, 82920, Tempo, 390905
1, 82920, Note_on_c, 0, 82, 51
1, 82920, Note_on_c, 0, 79, 51
1, 83040, Note_on_c, 0, 79, 0
1, 83040, Note_on_c, 0, 82, 0
1, 83040, Note_on_c, 0, 87, 56
1, 83160, Note_on_c, 0, 87, 0
1, 83160, Note_on_c, 0, 79, 49
1, 83160, Note_on_c, 0, 82, 49
1, 83280, Note_on_c, 0, 82, 0
1, 83280, Note_on_c, 0, 79, 0
1, 83280, Note_on_c, 0, 88, 56
1, 83400, Note_on_c, 0, 88, 0
1, 83400, Note_on_c, 0, 82, 48
1, 83400, Note_on_c, 0, 79, 48
1, 83520, Tempo, 428602
1, 83520, Note_on_c, 0, 79, 0
1, 83520, Note_on_c, 0, 82, 0
1, 83640, Tempo, 393468
1, 83640, Note_on_c, 0, 79, 45
1, 83640, Note_on_c, 0, 76, 45
1, 83760, Note_on_c, 0, 76, 0
1, 83760, Note_on_c, 0, 79, 0
1, 83760, Note_on_c, 0, 84, 50
1, 83880, Note_on_c, 0, 84, 0
1, 83880, Note_on_c, 0, 76, 42
1, 83880, Note_on_c, 0, 79, 42
1, 84000, Note_on_c, 0, 79, 0
1, 84000, Note_on_c, 0, 76, 0
1, 84000, Note_on_c, 0, 85, 48
1, 84120, Note_on_c, 0, 85, 0
1, 84120, Note_on_c, 0, 79, 39
1, 84120, Note_on_c, 0, 76, 39
1, 84240, Tempo, 421082
1, 84240, Note_on_c, 0, 76, 0
1, 84240, Note_on_c, 0, 79, 0
1, 84300, Tempo, 400027
1, 84360, Note_on_c, 0, 76, 41
1, 84360, Note_on_c, 0, 73, 41
1, 84480, Note_on_c, 0, 73, 0
1, 84480, Note_on_c, 0, 76, 0
1, 84480, Note_on_c, 0, 81, 44
1, 84600, Note_on_c, 0, 81, 0
1, 84600, Note_on_c, 0, 73, 38
1, 84600, Note_on_c, 0, 76, 38
1, 84720, Note_on_c, 0, 76, 0
1, 84720, Note_on_c, 0, 73, 0
1, 84720, Note_on_c, 0, 82, 43
1, 84840, Note_on_c, 0, 82, 0
1, 84840, Note_on_c, 0, 76, 36
1, 84840, Note_on_c, 0, 73, 36
1, 84960, Tempo, 436395
1, 84960, Note_on_c, 0, 73, 0
1, 84960, Note_on_c, 0, 76, 0
1, 85080, Tempo, 408191
1, 85080, Note_on_c, 0, 73, 38
1, 85080, Note_on_c, 0, 70, 38
1, 85200, Note_on_c, 0, 70, 0
1, 85200, Note_on_c, 0, 73, 0
1, 85200, Note_on_c, 0, 78, 42
1, 85320, Note_on_c, 0, 78, 0
1, 85320, Note_on_c, 0, 70, 35
1, 85320, Note_on_c, 0, 73, 35
1, 85440, Note_on_c, 0, 73, 0
1, 85440, Note_on_c, 0, 70, 0
1, 85440, Note_on_c, 0, 79, 40
1, 85560, Note_on_c, 0, 79, 0
1, 85560, Note_on_c, 0, 73, 33
1, 85560, Note_on_c, 0, 70, 33
1, 85680, Tempo, 442837
1, 85680, Note_on_c, 0, 70, 0
1, 85680, Note_on_c, 0, 73, 0
1, 85740, Tempo, 424058
1, 85800, Note_on_c, 0, 70, 34
1, 85800, Note_on_c, 0, 67, 34
1, 85920, Note_on_c, 0, 67, 0
1, 85920, Note_on_c, 0, 70, 0
1, 85920, Note_on_c, 0, 75, 37
1, 86040, Note_on_c, 0, 75, 0
1, 86040, Note_on_c, 0, 67, 31
1, 86040, Note_on_c, 0, 70, 31
1, 86160, Note_on_c, 0, 70, 0
1, 86160, Note_on_c, 0, 48, 0
1, 86160, Note_on_c, 0, 64, 0
1, 86160, Note_on_c, 0, 58, 0
1, 86160, Note_on_c, 0, 36, 0
1, 86160, Note_on_c, 0, 67, 0
1, 86160, Note_on_c, 0, 55, 0
1, 86160, Note_on_c, 0, 76, 35
1, 86280, Note_on_c, 0, 76, 0
1, 86280, Note_on_c, 0, 70, 30
1, 86280, Note_on_c, 0, 67, 30
1, 86400, Note_on_c, 0, 67, 0
1, 86400, Note_on_c, 0, 70, 0
1, 86400, Control_c, 0, 64, 0
1, 87780, Note_on_c, 0, 49, 29
1, 87806, Control_c, 0, 64, 127
1, 87840, Tempo, 448799
1, 87840, Note_on_c, 0, 58, 37
1, 87960, Tempo, 416118
1, 87960, Note_on_c, 0, 67, 29
1, 87960, Note_on_c, 0, 70, 29
1, 88080, Note_on_c, 0, 70, 0
1, 88080, Note_on_c, 0, 49, 0
1, 88080, Note_on_c, 0, 58, 0
1, 88080, Note_on_c, 0, 67, 0
1, 88080, Note_on_c, 0, 72, 35
1, 88200, Note_on_c, 0, 72, 0
1, 88200, Note_on_c, 0, 67, 30
1, 88200, Note_on_c, 0, 70, 30
1, 88320, Note_on_c, 0, 70, 0
1, 88320, Note_on_c, 0, 67, 0
1, 88320, Note_on_c, 0, 73, 35
1, 88440, Note_on_c, 0, 73, 0
1, 88440, Note_on_c, 0, 67, 31
1, 88440, Note_on_c, 0, 70, 31
1, 88560, Tempo, 445467
1, 88560, Note_on_c, 0, 70, 0
1, 88560, Note_on_c, 0, 67, 0
1, 88560, Note_on_c, 0, 37, 29
1, 88680, Tempo, 417566
1, 88680, Note_on_c, 0, 67, 29
1, 88680, Note_on_c, 0, 70, 29
1, 88740, Tempo, 416118
1, 88800, Note_on_c, 0, 70, 0
1, 88800, Note_on_c, 0, 67, 0
1, 88800, Note_on_c, 0, 37, 0
1, 88800, Note_on_c, 0, 72, 35
1, 88920, Note_on_c, 0, 72, 0
1, 88920, Note_on_c, 0, 67, 31
1, 88920, Note_on_c, 0, 70, 31
1, 89040, Note_on_c, 0, 70, 0
1, 89040, Note_on_c, 0, 67, 0
1, 89040, Note_on_c, 0, 73, 35
1, 89160, Note_on_c, 0, 73, 0
1, 89160, Note_on_c, 0, 67, 30
1, 89160, Note_on_c, 0, 70, 30
1, 89220, Tempo, 501295
1, 89280, Tempo, 416118
1, 89280, Note_on_c, 0, 70, 0
1, 89280, Note_on_c, 0, 67, 0
1, 89280, Note_on_c, 0, 78, 47
1, 89280, Control_c, 0, 64, 0
1, 89467, Control_c, 0, 64, 127
1, 90427, Control_c, 0, 64, 0
1, 90660, Tempo, 424058
1, 90660, Note_on_c, 0, 48, 29
1, 90686, Control_c, 0, 64, 127
1, 90720, Tempo, 448799
1, 90720, Note_on_c, 0, 78, 0
1, 90720, Note_on_c, 0, 58, 37
1, 90840, Tempo, 416118
1, 90840, Note_on_c, 0, 64, 29
1, 90840, Note_on_c, 0, 70, 29
1, 90960, Note_on_c, 0, 70, 0
1, 90960, Note_on_c, 0, 48, 0
1, 90960, Note_on_c, 0, 58, 0
1, 90960, Note_on_c, 0, 64, 0
1, 90960, Note_on_c, 0, 73, 37
1, 91080, Note_on_c, 0, 73, 0
1, 91080, Note_on_c, 0, 64, 32
1, 91080, Note_on_c, 0, 70, 32
1, 91200, Note_on_c, 0, 70, 0
1, 91200, Note_on_c, 0, 64, 0
1, 91200, Note_on_c, 0, 74, 38
1, 91320, Note_on_c, 0, 74, 0
1, 91320, Note_on_c, 0, 64, 35
1, 91320, Note_on_c, 0, 70, 35
1, 91440, Tempo, 445467
1, 91440, Note_on_c, 0, 70, 0
1, 91440, Note_on_c, 0, 64, 0
1, 91440, Note_on_c, 0, 36, 33
1, 91560, Tempo, 417566
1, 91560, Note_on_c, 0, 64, 34
1, 91560, Note_on_c, 0, 70, 34
1, 91620, Tempo, 416118
1, 91680, Note_on_c, 0, 70, 0
1, 91680, Note_on_c, 0, 64, 0
1, 91680, Note_on_c, 0, 36, 0
1, 91680, Note_on_c, 0, 73, 42
1, 91800, Note_on_c, 0, 73, 0
1, 91800, Note_on_c, 0, 64, 37
1, 91800, Note_on_c, 0, 70, 37
1, 91920, Note_on_c, 0, 70, 0
1, 91920, Note_on_c, 0, 64, 0
1, 91920, Note_on_c, 0, 74, 43
1, 92040, Note_on_c, 0, 74, 0
1, 92040, Note_on_c, 0, 64, 38
1, 92040, Note_on_c, 0, 70, 38
1, 92100, Tempo, 501295
1, 92160, Tempo, 416118
1, 92160, Note_on_c, 0, 70, 0
1, 92160, Note_on_c, 0, 64, 0
1, 92160, Note_on_c, 0, 79, 62
1, 92160, Control_c, 0, 64, 0
1, 92347, Control_c, 0, 64, 127
1, 93600, Control_c, 0, 64, 0
1, 94080, Note_on_c, 0, 79, 0
1, 94080, Note_on_c, 0, 69, 43
1, 94320, Note_on_c, 0, 69, 0
1, 94320, Note_on_c, 0, 70, 50
1, 94800, Note_on_c, 0, 70, 0
1, 94800, Note_on_c, 0, 72, 43
1, 95040, Note_on_c, 0, 72, 0
1, 95040, Note_on_c, 0, 73, 52
1, 95520, Note_on_c, 0, 73, 0
1, 95520, Note_on_c, 0, 74, 43
1, 95760, Note_on_c, 0, 74, 0
1, 95760, Note_on_c, 0, 66, 51
1, 96240, Note_on_c, 0, 66, 0
1, 96240, Note_on_c, 0, 67, 37
1, 96480, Note_on_c, 0, 67, 0
1, 96480, Note_on_c, 0, 69, 48
1, 96960, Note_on_c, 0, 69, 0
1, 96960, Note_on_c, 0, 70, 39
1, 97200, Note_on_c, 0, 70, 0
1, 97200, Note_on_c, 0, 61, 35
1, 97680, Note_on_c, 0, 61, 0
1, 97680, Note_on_c, 0, 62, 26
1, 97920, Note_on_c, 0, 62, 0
1, 97920, Note_on_c, 0, 64, 39
1, 98400, Tempo, 437350
1, 98400, Note_on_c, 0, 64, 0
1, 98400, Note_on_c, 0, 65, 25
1, 98580, Note_on_c, 0, 65, 0
1, 98580, Note_on_c, 0, 36, 24
1, 98640, Tempo, 455615
1, 98640, Note_on_c, 0, 67, 34
1, 98640, Note_on_c, 0, 52, 31
1, 99120, Tempo, 501295
1, 99120, Note_on_c, 0, 52, 0
1, 99120, Note_on_c, 0, 67, 0
1, 99120, Note_on_c, 0, 68, 27
1, 99120, Note_on_c, 0, 50, 27
1, 99360, Tempo, 418468
1, 99360, Note_on_c, 0, 50, 0
1, 99360, Note_on_c, 0, 68, 0
1, 99360, Note_on_c, 0, 36, 0
1, 99360, Note_on_c, 0, 57, 30
1, 99360, Note_on_c, 0, 69, 37
1, 99360, Note_on_c, 0, 41, 21
1, 99360, Note_on_c, 0, 48, 25
1, 99720, Tempo, 396852
1, 99720, Note_on_c, 0, 69, 0
1, 99720, Note_on_c, 0, 67, 27
1, 99840, Note_on_c, 0, 67, 0
1, 99840, Note_on_c, 0, 65, 27
1, 99960, Tempo, 451875
1, 99960, Note_on_c, 0, 65, 0
1, 99960, Note_on_c, 0, 67, 27
1, 100080, Tempo, 418468
1, 100080, Note_on_c, 0, 67, 0
1, 100080, Note_on_c, 0, 48, 0
1, 100080, Note_on_c, 0, 57, 0
1, 100080, Note_on_c, 0, 58, 27
1, 100080, Note_on_c, 0, 69, 32
1, 100080, Note_on_c, 0, 50, 21
1, 100165, Control_c, 0, 64, 127
1, 100560, Note_on_c, 0, 69, 0
1, 100560, Note_on_c, 0, 65, 32
1, 100680, Tempo, 453789
1, 100800, Tempo, 420109
1, 100800, Note_on_c, 0, 65, 0
1, 100800, Note_on_c, 0, 50, 0
1, 100800, Note_on_c, 0, 58, 0
1, 100800, Note_on_c, 0, 60, 30
1, 100800, Note_on_c, 0, 69, 37
1, 100800, Note_on_c, 0, 52, 25
1, 100807, Control_c, 0, 64, 0
1, 101160, Tempo, 396852
1, 101160, Note_on_c, 0, 69, 0
1, 101160, Note_on_c, 0, 67, 28
1, 101280, Note_on_c, 0, 67, 0
1, 101280, Note_on_c, 0, 65, 28
1, 101400, Tempo, 455719
1, 101400, Note_on_c, 0, 65, 0
1, 101400, Note_on_c, 0, 67, 28
1, 101520, Tempo, 441501
1, 101520, Note_on_c, 0, 67, 0
1, 101520, Note_on_c, 0, 52, 0
1, 101520, Note_on_c, 0, 60, 0
1, 101520, Note_on_c, 0, 58, 27
1, 101520, Note_on_c, 0, 69, 32
1, 101520, Note_on_c, 0, 50, 21
1, 101608, Control_c, 0, 64, 127
1, 102120, Tempo, 451875
1, 102180, Note_on_c, 0, 50, 0
1, 102180, Note_on_c, 0, 69, 0
1, 102180, Note_on_c, 0, 58, 0
1, 102180, Note_on_c, 0, 41, 25
1, 102210, Note_on_c, 0, 48, 29
1, 102240, Tempo, 423400
1, 102240, Note_on_c, 0, 41, 0
1, 102240, Note_on_c, 0, 65, 36
1, 102240, Note_on_c, 0, 72, 45
1, 102240, Note_on_c, 0, 57, 30
1, 102240, Control_c, 0, 64, 0
1, 102364, Control_c, 0, 64, 127
1, 102600, Tempo, 396852
1, 102600, Note_on_c, 0, 72, 0
1, 102600, Note_on_c, 0, 74, 38
1, 102720, Note_on_c, 0, 74, 0
1, 102720, Note_on_c, 0, 76, 42
1, 102840, Note_on_c, 0, 76, 0
1, 102840, Note_on_c, 0, 74, 38
1, 102960, Tempo, 423400
1, 102960, Note_on_c, 0, 74, 0
1, 102960, Note_on_c, 0, 57, 0
1, 102960, Note_on_c, 0, 65, 0
1, 102960, Note_on_c, 0, 72, 47
1, 102960, Note_on_c, 0, 65, 38
1, 102960, Note_on_c, 0, 58, 30
1, 102977, Control_c, 0, 64, 0
1, 103038, Control_c, 0, 64, 127
1, 103440, Tempo, 480115
1, 103440, Note_on_c, 0, 65, 0
1, 103440, Note_on_c, 0, 72, 0
1, 103440, Note_on_c, 0, 64, 42
1, 103440, Note_on_c, 0, 68, 42
1, 103457, Control_c, 0, 64, 0
1, 103500, Control_c, 0, 64, 127
1, 103620, Note_on_c, 0, 41, 23
1, 103650, Note_on_c, 0, 48, 0
1, 103650, Note_on_c, 0, 48, 27
1, 103680, Tempo, 453789
1, 103680, Note_on_c, 0, 68, 0
1, 103680, Note_on_c, 0, 58, 0
1, 103680, Note_on_c, 0, 64, 0
1, 103680, Note_on_c, 0, 41, 0
1, 103680, Note_on_c, 0, 72, 48
1, 103680, Note_on_c, 0, 65, 40
1, 103680, Note_on_c, 0, 57, 32
1, 103695, Control_c, 0, 64, 0
1, 103827, Control_c, 0, 64, 127
1, 104400, Note_on_c, 0, 57, 0
1, 104400, Note_on_c, 0, 72, 0
1, 104400, Note_on_c, 0, 77, 52
1, 104850, Note_on_c, 0, 48, 0
1, 104854, Control_c, 0, 64, 0
1, 104880, Note_on_c, 0, 65, 0
1, 104880, Note_on_c, 0, 41, 0
1, 104880, Note_on_c, 0, 77, 0
1, 105120, Tempo, 418468
1, 105120, Note_on_c, 0, 60, 40
1, 105120, Note_on_c, 0, 72, 50
1, 105120, Note_on_c, 0, 45, 29
1, 105120, Note_on_c, 0, 52, 34
1, 105480, Tempo, 396852
1, 105480, Note_on_c, 0, 72, 0
1, 105480, Note_on_c, 0, 71, 37
1, 105600, Note_on_c, 0, 71, 0
1, 105600, Note_on_c, 0, 69, 37
1, 105720, Tempo, 451875
1, 105720, Note_on_c, 0, 69, 0
1, 105720, Note_on_c, 0, 71, 37
1, 105840, Tempo, 418468
1, 105840, Note_on_c, 0, 71, 0
1, 105840, Note_on_c, 0, 52, 0
1, 105840, Note_on_c, 0, 60, 0
1, 105840, Note_on_c, 0, 62, 36
1, 105840, Note_on_c, 0, 72, 43
1, 105840, Note_on_c, 0, 53, 29
1, 105925, Control_c, 0, 64, 127
1, 106320, Note_on_c, 0, 72, 0
1, 106320, Note_on_c, 0, 69, 43
1, 106440, Tempo, 453789
1, 106560, Tempo, 420109
1, 106560, Note_on_c, 0, 69, 0
1, 106560, Note_on_c, 0, 53, 0
1, 106560, Note_on_c, 0, 62, 0
1, 106560, Note_on_c, 0, 64, 40
1, 106560, Note_on_c, 0, 72, 50
1, 106560, Note_on_c, 0, 55, 34
1, 106567, Control_c, 0, 64, 0
1, 106920, Tempo, 396852
1, 106920, Note_on_c, 0, 72, 0
1, 106920, Note_on_c, 0, 71, 38
1, 107040, Note_on_c, 0, 71, 0
1, 107040, Note_on_c, 0, 69, 38
1, 107160, Tempo, 455719
1, 107160, Note_on_c, 0, 69, 0
1, 107160, Note_on_c, 0, 71, 38
1, 107280, Tempo, 444774
1, 107280, Note_on_c, 0, 71, 0
1, 107280, Note_on_c, 0, 55, 0
1, 107280, Note_on_c, 0, 64, 0
1, 107280, Note_on_c, 0, 62, 36
1, 107280, Note_on_c, 0, 72, 43
1, 107280, Note_on_c, 0, 53, 29
1, 107404, Control_c, 0, 64, 127
1, 107880, Tempo, 451875
1, 107940, Note_on_c, 0, 53, 0
1, 107940, Note_on_c, 0, 72, 0
1, 107940, Note_on_c, 0, 62, 0
1, 107940, Note_on_c, 0, 45, 25
1, 107970, Note_on_c, 0, 52, 29
1, 108000, Tempo, 423400
1, 108000, Note_on_c, 0, 45, 0
1, 108000, Note_on_c, 0, 69, 40
1, 108000, Note_on_c, 0, 76, 50
1, 108000, Note_on_c, 0, 60, 34
1, 108000, Control_c, 0, 64, 0
1, 108124, Control_c, 0, 64, 127
1, 108360, Tempo, 396852
1, 108360, Note_on_c, 0, 76, 0
1, 108360, Note_on_c, 0, 77, 42
1, 108480, Note_on_c, 0, 77, 0
1, 108480, Note_on_c, 0, 79, 46
1, 108600, Note_on_c, 0, 79, 0
1, 108600, Note_on_c, 0, 77, 42
1, 108720, Tempo, 423400
1, 108720, Note_on_c, 0, 77, 0
1, 108720, Note_on_c, 0, 60, 0
1, 108720, Note_on_c, 0, 69, 0
1, 108720, Note_on_c, 0, 76, 51
1, 108720, Note_on_c, 0, 69, 41
1, 108720, Note_on_c, 0, 62, 33
1, 108737, Control_c, 0, 64, 0
1, 108798, Control_c, 0, 64, 127
1, 109200, Tempo, 480115
1, 109200, Note_on_c, 0, 69, 0
1, 109200, Note_on_c, 0, 76, 0
1, 109200, Note_on_c, 0, 68, 45
1, 109200, Note_on_c, 0, 72, 45
1, 109217, Control_c, 0, 64, 0
1, 109260, Control_c, 0, 64, 127
1, 109380, Note_on_c, 0, 45, 25
1, 109410, Note_on_c, 0, 52, 0
1, 109410, Note_on_c, 0, 52, 29
1, 109440, Tempo, 440755
1, 109440, Note_on_c, 0, 72, 0
1, 109440, Note_on_c, 0, 62, 0
1, 109440, Note_on_c, 0, 68, 0
1, 109440, Note_on_c, 0, 45, 0
1, 109440, Note_on_c, 0, 76, 51
1, 109440, Note_on_c, 0, 69, 42
1, 109440, Note_on_c, 0, 60, 34
1, 109455, Control_c, 0, 64, 0
1, 109587, Control_c, 0, 64, 127
1, 110160, Note_on_c, 0, 76, 0
1, 110160, Note_on_c, 0, 81, 53
1, 110400, Tempo, 428480
1, 110400, Note_on_c, 0, 69, 0
1, 110400, Note_on_c, 0, 68, 57
1, 110408, Control_c, 0, 64, 0
1, 110640, Tempo, 446263
1, 110640, Note_on_c, 0, 68, 0
1, 110640, Note_on_c, 0, 67, 61
1, 110850, Note_on_c, 0, 52, 0
1, 110880, Tempo, 423400
1, 110880, Note_on_c, 0, 60, 0
1, 110880, Note_on_c, 0, 45, 0
1, 110880, Note_on_c, 0, 67, 0
1, 110880, Note_on_c, 0, 66, 70
1, 110880, Note_on_c, 0, 50, 29
1, 110880, Note_on_c, 0, 60, 34
1, 110937, Control_c, 0, 64, 127
1, 111360, Note_on_c, 0, 81, 0
1, 111360, Note_on_c, 0, 78, 53
1, 111600, Tempo, 410481
1, 111600, Note_on_c, 0, 78, 0
1, 111600, Note_on_c, 0, 74, 53
1, 111621, Control_c, 0, 64, 0
1, 111840, Note_on_c, 0, 74, 0
1, 111840, Note_on_c, 0, 75, 53
1, 112080, Tempo, 442576
1, 112080, Note_on_c, 0, 75, 0
1, 112080, Note_on_c, 0, 76, 53
1, 112260, Note_on_c, 0, 60, 0
1, 112260, Note_on_c, 0, 50, 0
1, 112260, Note_on_c, 0, 43, 34
1, 112290, Note_on_c, 0, 50, 34
1, 112320, Tempo, 418468
1, 112320, Note_on_c, 0, 66, 0
1, 112320, Note_on_c, 0, 76, 0
1, 112320, Note_on_c, 0, 65, 42
1, 112320, Note_on_c, 0, 77, 53
1, 112320, Note_on_c, 0, 59, 34
1, 112440, Control_c, 0, 64, 127
1, 112800, Tempo, 431903
1, 112800, Note_on_c, 0, 77, 0
1, 112800, Note_on_c, 0, 74, 50
1, 113040, Tempo, 440755
1, 113040, Note_on_c, 0, 74, 0
1, 113040, Note_on_c, 0, 71, 49
1, 113460, Note_on_c, 0, 50, 0
1, 113520, Note_on_c, 0, 59, 0
1, 113520, Note_on_c, 0, 43, 0
1, 113520, Note_on_c, 0, 65, 0
1, 113520, Note_on_c, 0, 71, 0
1, 113534, Control_c, 0, 64, 0
1, 113760, Tempo, 423400
1, 113760, Note_on_c, 0, 66, 64
1, 113760, Note_on_c, 0, 50, 29
1, 113760, Note_on_c, 0, 60, 34
1, 113817, Control_c, 0, 64, 127
1, 114000, Note_on_c, 0, 81, 53
1, 114240, Note_on_c, 0, 81, 0
1, 114240, Note_on_c, 0, 78, 47
1, 114480, Tempo, 410481
1, 114480, Note_on_c, 0, 78, 0
1, 114480, Note_on_c, 0, 74, 49
1, 114501, Control_c, 0, 64, 0
1, 114720, Note_on_c, 0, 74, 0
1, 114720, Note_on_c, 0, 75, 53
1, 114960, Tempo, 442576
1, 114960, Note_on_c, 0, 75, 0
1, 114960, Note_on_c, 0, 76, 54
1, 115140, Note_on_c, 0, 60, 0
1, 115140, Note_on_c, 0, 50, 0
1, 115140, Note_on_c, 0, 43, 38
1, 115170, Note_on_c, 0, 50, 40
1, 115200, Tempo, 418468
1, 115200, Note_on_c, 0, 66, 0
1, 115200, Note_on_c, 0, 65, 42
1, 115200, Note_on_c, 0, 59, 43
1, 115320, Control_c, 0, 64, 127
1, 115440, Note_on_c, 0, 76, 0
1, 115440, Note_on_c, 0, 77, 62
1, 115680, Tempo, 431903
1, 115680, Note_on_c, 0, 77, 0
1, 115680, Note_on_c, 0, 74, 53
1, 115920, Tempo, 440755
1, 115920, Note_on_c, 0, 74, 0
1, 115920, Note_on_c, 0, 71, 56
1, 115927, Control_c, 0, 64, 0
1, 116550, Note_on_c, 0, 71, 0
1, 116550, Note_on_c, 0, 59, 0
1, 116550, Note_on_c, 0, 50, 0
1, 116550, Note_on_c, 0, 43, 0
1, 116550, Note_on_c, 0, 65, 0
1, 116550, Note_on_c, 0, 55, 38
1, 116580, Note_on_c, 0, 62, 40
1, 116610, Note_on_c, 0, 65, 44
1, 116640, Tempo, 423400
1, 116640, Note_on_c, 0, 74, 57
1, 116640, Note_on_c, 0, 86, 80
1, 116640, Note_on_c, 0, 70, 57
1, 116697, Control_c, 0, 64, 127
1, 117120, Note_on_c, 0, 86, 0
1, 117120, Note_on_c, 0, 82, 62
1, 117360, Tempo, 410481
1, 117360, Note_on_c, 0, 82, 0
1, 117360, Note_on_c, 0, 78, 53
1, 117381, Control_c, 0, 64, 0
1, 117600, Note_on_c, 0, 78, 0
1, 117600, Note_on_c, 0, 79, 60
1, 117840, Tempo, 442576
1, 117840, Note_on_c, 0, 79, 0
1, 117840, Note_on_c, 0, 81, 63
1, 117990, Note_on_c, 0, 70, 0
1, 117990, Note_on_c, 0, 65, 0
1, 117990, Note_on_c, 0, 55, 0
1, 117990, Note_on_c, 0, 62, 0
1, 117990, Note_on_c, 0, 48, 40
1, 118020, Note_on_c, 0, 55, 41
1, 118050, Note_on_c, 0, 58, 42
1, 118080, Tempo, 418468
1, 118080, Note_on_c, 0, 74, 0
1, 118080, Note_on_c, 0, 81, 0
1, 118080, Note_on_c, 0, 82, 71
1, 118080, Note_on_c, 0, 70, 60
1, 118080, Note_on_c, 0, 64, 54
1, 118200, Control_c, 0, 64, 127
1, 118560, Tempo, 431903
1, 118560, Note_on_c, 0, 82, 0
1, 118560, Note_on_c, 0, 79, 57
1, 118800, Tempo, 440755
1, 118800, Note_on_c, 0, 79, 0
1, 118800, Note_on_c, 0, 76, 53
1, 119330, Note_on_c, 0, 55, 0
1, 119430, Tempo, 440755
1, 119430, Note_on_c, 0, 48, 0
1, 119430, Note_on_c, 0, 58, 0
1, 119430, Note_on_c, 0, 64, 0
1, 119430, Note_on_c, 0, 55, 38
1, 119443, Control_c, 0, 64, 0
1, 119460, Note_on_c, 0, 62, 40
1, 119490, Note_on_c, 0, 65, 44
1, 119520, Tempo, 423400
1, 119520, Note_on_c, 0, 76, 0
1, 119520, Note_on_c, 0, 70, 0
1, 119520, Note_on_c, 0, 74, 68
1, 119520, Note_on_c, 0, 70, 57
1, 119573, Control_c, 0, 64, 127
1, 119760, Note_on_c, 0, 86, 70
1, 120000, Note_on_c, 0, 86, 0
1, 120000, Note_on_c, 0, 82, 62
1, 120240, Tempo, 410481
1, 120240, Note_on_c, 0, 82, 0
1, 120240, Note_on_c, 0, 78, 53
1, 120258, Control_c, 0, 64, 0
1, 120480, Note_on_c, 0, 78, 0
1, 120480, Note_on_c, 0, 79, 60
1, 120720, Tempo, 442576
1, 120720, Note_on_c, 0, 79, 0
1, 120720, Note_on_c, 0, 81, 63
1, 120870, Note_on_c, 0, 70, 0
1, 120870, Note_on_c, 0, 62, 0
1, 120870, Note_on_c, 0, 65, 0
1, 120870, Note_on_c, 0, 55, 0
1, 120870, Note_on_c, 0, 48, 40
1, 120900, Note_on_c, 0, 55, 41
1, 120930, Note_on_c, 0, 58, 42
1, 120960, Tempo, 418468
1, 120960, Note_on_c, 0, 74, 0
1, 120960, Note_on_c, 0, 70, 59
1, 120960, Note_on_c, 0, 64, 57
1, 121034, Control_c, 0, 64, 127
1, 121200, Note_on_c, 0, 81, 0
1, 121200, Note_on_c, 0, 82, 62
1, 121440, Tempo, 431903
1, 121440, Note_on_c, 0, 82, 0
1, 121440, Note_on_c, 0, 79, 57
1, 121680, Tempo, 440755
1, 121680, Note_on_c, 0, 79, 0
1, 121680, Note_on_c, 0, 73, 56
1, 121687, Control_c, 0, 64, 0
1, 121920, Note_on_c, 0, 73, 0
1, 121920, Note_on_c, 0, 74, 58
1, 122160, Note_on_c, 0, 74, 0
1, 122160, Note_on_c, 0, 76, 63
1, 122210, Note_on_c, 0, 55, 0
1, 122301, Control_c, 0, 64, 0
1, 122310, Note_on_c, 0, 48, 0
1, 122310, Note_on_c, 0, 58, 0
1, 122310, Note_on_c, 0, 64, 0
1, 122310, Note_on_c, 0, 46, 40
1, 122340, Note_on_c, 0, 55, 43
1, 122370, Note_on_c, 0, 62, 46
1, 122400, Tempo, 422089
1, 122400, Note_on_c, 0, 70, 0
1, 122400, Note_on_c, 0, 65, 48
1, 122640, Note_on_c, 0, 76, 0
1, 122640, Note_on_c, 0, 77, 58
1, 122880, Note_on_c, 0, 77, 0
1, 122880, Note_on_c, 0, 74, 53
1, 123120, Note_on_c, 0, 74, 0
1, 123120, Note_on_c, 0, 66, 47
1, 123360, Note_on_c, 0, 66, 0
1, 123360, Note_on_c, 0, 67, 43
1, 123600, Tempo, 444774
1, 123600, Note_on_c, 0, 67, 0
1, 123600, Note_on_c, 0, 69, 44
1, 123840, Tempo, 420433
1, 123840, Note_on_c, 0, 69, 0
1, 123840, Note_on_c, 0, 70, 46
1, 124080, Note_on_c, 0, 70, 0
1, 124080, Note_on_c, 0, 73, 42
1, 124320, Tempo, 437541
1, 124320, Note_on_c, 0, 73, 0
1, 124320, Note_on_c, 0, 65, 0
1, 124320, Note_on_c, 0, 55, 0
1, 124320, Note_on_c, 0, 46, 0
1, 124320, Note_on_c, 0, 62, 0
1, 124320, Note_on_c, 0, 74, 39
1, 124560, Tempo, 448498
1, 124560, Note_on_c, 0, 74, 0
1, 124560, Note_on_c, 0, 78, 31
1, 124800, Note_on_c, 0, 78, 0
1, 124800, Note_on_c, 0, 70, 25
1, 124800, Note_on_c, 0, 74, 25
1, 124800, Note_on_c, 0, 79, 32
1, 124828, Tempo, 456100
1, 124860, Note_on_c, 0, 79, 0
1, 124860, Note_on_c, 0, 74, 0
1, 124860, Note_on_c, 0, 70, 0
1, 124886, Tempo, 458050
1, 124944, Tempo, 459982
1, 125001, Tempo, 461965
1, 125040, Note_on_c, 0, 74, 26
1, 125040, Note_on_c, 0, 79, 26
1, 125040, Note_on_c, 0, 82, 33
1, 125059, Tempo, 463965
1, 125100, Note_on_c, 0, 82, 0
1, 125100, Note_on_c, 0, 79, 0
1, 125100, Note_on_c, 0, 74, 0
1, 125116, Tempo, 465983
1, 125174, Tempo, 467982
1, 125232, Tempo, 470035
1, 125280, Note_on_c, 0, 86, 40
1, 125280, Note_on_c, 0, 82, 32
1, 125280, Note_on_c, 0, 79, 32
1, 125289, Tempo, 472106
1, 125340, Note_on_c, 0, 79, 0
1, 125340, Note_on_c, 0, 82, 0
1, 125340, Note_on_c, 0, 86, 0
1, 126720, Tempo, 422089
1, 126720, Note_on_c, 0, 58, 36
1, 126720, Note_on_c, 0, 64, 36
1, 126720, Note_on_c, 0, 69, 40
1, 126720, Note_on_c, 0, 49, 44
1, 127920, Tempo, 452250
1, 127920, Note_on_c, 0, 49, 0
1, 127920, Note_on_c, 0, 48, 32
1, 128160, Tempo, 420109
1, 128160, Note_on_c, 0, 48, 0
1, 128160, Note_on_c, 0, 69, 0
1, 128160, Note_on_c, 0, 64, 0
1, 128160, Note_on_c, 0, 58, 0
1, 128160, Note_on_c, 0, 57, 32
1, 128160, Note_on_c, 0, 65, 40
1, 128160, Note_on_c, 0, 41, 21
1, 128160, Note_on_c, 0, 48, 27
1, 128263, Control_c, 0, 64, 127
1, 128520, Tempo, 396852
1, 128520, Note_on_c, 0, 65, 0
1, 128520, Note_on_c, 0, 64, 30
1, 128640, Note_on_c, 0, 64, 0
1, 128640, Note_on_c, 0, 65, 30
1, 128760, Tempo, 455719
1, 128760, Note_on_c, 0, 65, 0
1, 128760, Note_on_c, 0, 67, 30
1, 128880, Tempo, 444774
1, 128880, Note_on_c, 0, 67, 0
1, 128880, Note_on_c, 0, 48, 0
1, 128880, Note_on_c, 0, 41, 0
1, 128880, Note_on_c, 0, 57, 0
1, 128880, Note_on_c, 0, 58, 30
1, 128880, Note_on_c, 0, 64, 38
1, 128880, Note_on_c, 0, 69, 34
1, 128880, Note_on_c, 0, 49, 38
1, 128880, Note_on_c, 0, 61, 30
1, 128897, Control_c, 0, 64, 0
1, 128972, Control_c, 0, 64, 127
1, 129480, Tempo, 451875
1, 129600, Tempo, 420109
1, 129600, Note_on_c, 0, 61, 0
1, 129600, Note_on_c, 0, 69, 0
1, 129600, Note_on_c, 0, 58, 0
1, 129600, Note_on_c, 0, 64, 0
1, 129600, Note_on_c, 0, 49, 0
1, 129600, Note_on_c, 0, 65, 40
1, 129600, Note_on_c, 0, 41, 21
1, 129600, Note_on_c, 0, 57, 32
1, 129600, Note_on_c, 0, 48, 27
1, 129606, Control_c, 0, 64, 0
1, 129703, Control_c, 0, 64, 127
1, 129960, Tempo, 396852
1, 129960, Note_on_c, 0, 65, 0
1, 129960, Note_on_c, 0, 64, 30
1, 130080, Note_on_c, 0, 64, 0
1, 130080, Note_on_c, 0, 65, 30
1, 130200, Tempo, 455719
1, 130200, Note_on_c, 0, 65, 0
1, 130200, Note_on_c, 0, 67, 30
1, 130320, Tempo, 443131
1, 130320, Note_on_c, 0, 67, 0
1, 130320, Note_on_c, 0, 48, 0
1, 130320, Note_on_c, 0, 57, 0
1, 130320, Note_on_c, 0, 41, 0
1, 130320, Note_on_c, 0, 64, 38
1, 130320, Note_on_c, 0, 58, 30
1, 130320, Note_on_c, 0, 69, 34
1, 130320, Note_on_c, 0, 49, 38
1, 130320, Note_on_c, 0, 61, 30
1, 130337, Control_c, 0, 64, 0
1, 130412, Control_c, 0, 64, 127
1, 130920, Tempo, 451875
1, 131040, Tempo, 417159
1, 131040, Note_on_c, 0, 61, 0
1, 131040, Note_on_c, 0, 69, 0
1, 131040, Note_on_c, 0, 64, 0
1, 131040, Note_on_c, 0, 58, 0
1, 131040, Note_on_c, 0, 49, 0
1, 131040, Note_on_c, 0, 65, 29
1, 131040, Note_on_c, 0, 57, 24
1, 131040, Note_on_c, 0, 41, 22
1, 131040, Note_on_c, 0, 48, 26
1, 131040, Control_c, 0, 64, 0
1, 131227, Control_c, 0, 64, 127
1, 131280, Note_on_c, 0, 48, 0
1, 131280, Note_on_c, 0, 65, 0
1, 131280, Note_on_c, 0, 57, 0
1, 131280, Note_on_c, 0, 41, 0
1, 131760, Tempo, 425411
1, 131760, Note_on_c, 0, 69, 22
1, 131760, Note_on_c, 0, 77, 27
1, 131760, Note_on_c, 0, 53, 22
1, 131760, Note_on_c, 0, 60, 26
1, 132000, Note_on_c, 0, 60, 0
1, 132000, Note_on_c, 0, 53, 0
1, 132000, Note_on_c, 0, 77, 0
1, 132005, Note_on_c, 0, 69, 0
1, 132480, Tempo, 444774
1, 132480, Note_on_c, 0, 89, 28
1, 132480, Note_on_c, 0, 81, 23
1, 132480, Note_on_c, 0, 65, 23
1, 132480, Note_on_c, 0, 72, 28
1, 133467, Control_c, 0, 64, 0
1, 133680, Note_on_c, 0, 72, 0
1, 133680, Note_on_c, 0, 89, 0
1, 133680, Note_on_c, 0, 81, 0
1, 133680, Note_on_c, 0, 65, 0
1, 133920, Tempo, 418468
1, 133920, Marker_t, "Teil 2 Wiederholung"
1, 133920, Note_on_c, 0, 62, 34
1, 133920, Note_on_c, 0, 67, 42
1, 133920, Note_on_c, 0, 48, 24
1, 133920, Note_on_c, 0, 58, 28
1, 134280, Tempo, 396852
1, 134280, Note_on_c, 0, 67, 0
1, 134280, Note_on_c, 0, 66, 31
1, 134400, Note_on_c, 0, 66, 0
1, 134400, Note_on_c, 0, 67, 31
1, 134520, Tempo, 451875
1, 134520, Note_on_c, 0, 67, 0
1, 134520, Note_on_c, 0, 69, 31
1, 134640, Tempo, 418468
1, 134640, Note_on_c, 0, 69, 0
1, 134640, Note_on_c, 0, 70, 36
1, 135120, Note_on_c, 0, 58, 0
1, 135120, Note_on_c, 0, 62, 0
1, 135120, Note_on_c, 0, 64, 36
1, 135120, Note_on_c, 0, 60, 34
1, 135240, Tempo, 453789
1, 135360, Tempo, 418468
1, 135360, Note_on_c, 0, 60, 0
1, 135360, Note_on_c, 0, 64, 0
1, 135360, Note_on_c, 0, 65, 34
1, 135360, Note_on_c, 0, 62, 37
1, 135720, Tempo, 396852
1, 135720, Note_on_c, 0, 70, 0
1, 135720, Note_on_c, 0, 69, 36
1, 135840, Note_on_c, 0, 69, 0
1, 135840, Note_on_c, 0, 70, 38
1, 135960, Tempo, 451875
1, 135960, Note_on_c, 0, 70, 0
1, 135960, Note_on_c, 0, 72, 40
1, 136080, Tempo, 418468
1, 136080, Note_on_c, 0, 72, 0
1, 136080, Note_on_c, 0, 74, 44
1, 136560, Note_on_c, 0, 62, 0
1, 136560, Note_on_c, 0, 65, 0
1, 136560, Note_on_c, 0, 66, 42
1, 136560, Note_on_c, 0, 63, 37
1, 136680, Tempo, 453789
1, 136740, Note_on_c, 0, 63, 0
1, 136740, Note_on_c, 0, 48, 37
1, 136770, Note_on_c, 0, 58, 41
1, 136800, Tempo, 432526
1, 136800, Note_on_c, 0, 66, 0
1, 136800, Note_on_c, 0, 48, 0
1, 136800, Note_on_c, 0, 64, 47
1, 136860, Control_c, 0, 64, 127
1, 136937, Tempo, 430973
1, 137040, Note_on_c, 0, 64, 0
1, 137040, Note_on_c, 0, 58, 0
1, 137040, Note_on_c, 0, 48, 0
1, 137040, Note_on_c, 0, 67, 48
1, 137071, Tempo, 429430
1, 137160, Note_on_c, 0, 67, 0
1, 137160, Note_on_c, 0, 74, 0
1, 137160, Note_on_c, 0, 73, 42
1, 137160, Note_on_c, 0, 70, 42
1, 137186, Tempo, 427899
1, 137280, Note_on_c, 0, 70, 0
1, 137280, Note_on_c, 0, 73, 0
1, 137280, Note_on_c, 0, 67, 46
1, 137301, Tempo, 426379
1, 137400, Note_on_c, 0, 67, 0
1, 137400, Note_on_c, 0, 70, 42
1, 137400, Note_on_c, 0, 74, 42
1, 137417, Tempo, 424869
1, 137520, Note_on_c, 0, 74, 0
1, 137520, Note_on_c, 0, 70, 0
1, 137520, Note_on_c, 0, 70, 47
1, 137532, Tempo, 423370
1, 137610, Note_on_c, 0, 70, 0
1, 137640, Note_on_c, 0, 74, 41
1, 137640, Note_on_c, 0, 78, 41
1, 137666, Tempo, 421882
1, 137730, Note_on_c, 0, 78, 0
1, 137730, Note_on_c, 0, 74, 0
1, 137760, Note_on_c, 0, 70, 45
1, 137781, Tempo, 420404
1, 137850, Note_on_c, 0, 70, 0
1, 137880, Note_on_c, 0, 79, 39
1, 137880, Note_on_c, 0, 74, 39
1, 137897, Tempo, 418936
1, 137970, Note_on_c, 0, 74, 0
1, 137970, Note_on_c, 0, 79, 0
1, 138000, Note_on_c, 0, 74, 43
1, 138012, Tempo, 417478
1, 138090, Note_on_c, 0, 74, 0
1, 138120, Note_on_c, 0, 81, 37
1, 138120, Note_on_c, 0, 79, 37
1, 138127, Tempo, 416031
1, 138210, Note_on_c, 0, 79, 0
1, 138210, Note_on_c, 0, 81, 0
1, 138240, Note_on_c, 0, 74, 43
1, 138242, Tempo, 414594
1, 138330, Note_on_c, 0, 74, 0
1, 138360, Note_on_c, 0, 82, 36
1, 138360, Note_on_c, 0, 79, 36
1, 138450, Note_on_c, 0, 79, 0
1, 138450, Note_on_c, 0, 82, 0
1, 138473, Tempo, 413166
1, 138480, Note_on_c, 0, 79, 41
1, 138530, Tempo, 407553
1, 138569, Tempo, 408942
1, 138570, Note_on_c, 0, 79, 0
1, 138588, Tempo, 410341
1, 138600, Note_on_c, 0, 85, 34
1, 138600, Note_on_c, 0, 82, 34
1, 138607, Tempo, 411749
1, 138645, Tempo, 413166
1, 138665, Tempo, 414594
1, 138684, Tempo, 416031
1, 138690, Note_on_c, 0, 82, 0
1, 138690, Note_on_c, 0, 85, 0
1, 138703, Tempo, 417478
1, 138720, Note_on_c, 0, 79, 38
1, 138741, Tempo, 418936
1, 138761, Tempo, 420404
1, 138780, Tempo, 421882
1, 138810, Note_on_c, 0, 79, 0
1, 138818, Tempo, 423370
1, 138837, Tempo, 424869
1, 138840, Note_on_c, 0, 86, 33
1, 138840, Note_on_c, 0, 82, 33
1, 138857, Tempo, 426379
1, 138876, Tempo, 430973
1, 138895, Tempo, 434091
1, 138914, Tempo, 437254
1, 138930, Note_on_c, 0, 82, 0
1, 138930, Note_on_c, 0, 86, 0
1, 138933, Tempo, 440464
1, 138953, Tempo, 445368
1, 138960, Note_on_c, 0, 91, 48
1, 138972, Tempo, 448699
1, 138991, Tempo, 452080
1, 139010, Tempo, 457247
1, 139029, Tempo, 460759
1, 139049, Tempo, 464324
1, 139068, Tempo, 467946
1, 139080, Note_on_c, 0, 91, 0
1, 139087, Tempo, 473485
1, 139106, Tempo, 477251
1, 139125, Tempo, 481078
1, 139145, Tempo, 486934
1, 139353, Control_c, 0, 64, 0
1, 139680, Tempo, 418468
1, 139680, Note_on_c, 0, 67, 37
1, 139680, Note_on_c, 0, 72, 46
1, 139680, Note_on_c, 0, 53, 26
1, 139680, Note_on_c, 0, 63, 30
1, 140040, Tempo, 396852
1, 140040, Note_on_c, 0, 72, 0
1, 140040, Note_on_c, 0, 71, 34
1, 140160, Note_on_c, 0, 71, 0
1, 140160, Note_on_c, 0, 72, 35
1, 140280, Tempo, 451875
1, 140280, Note_on_c, 0, 72, 0
1, 140280, Note_on_c, 0, 74, 35
1, 140400, Tempo, 418468
1, 140400, Note_on_c, 0, 74, 0
1, 140400, Note_on_c, 0, 75, 41
1, 140880, Note_on_c, 0, 63, 0
1, 140880, Note_on_c, 0, 67, 0
1, 140880, Note_on_c, 0, 69, 42
1, 140880, Note_on_c, 0, 65, 40
1, 141000, Tempo, 453789
1, 141120, Tempo, 418468
1, 141120, Note_on_c, 0, 65, 0
1, 141120, Note_on_c, 0, 69, 0
1, 141120, Note_on_c, 0, 70, 41
1, 141120, Note_on_c, 0, 67, 44
1, 141480, Tempo, 396852
1, 141480, Note_on_c, 0, 75, 0
1, 141480, Note_on_c, 0, 74, 44
1, 141600, Note_on_c, 0, 74, 0
1, 141600, Note_on_c, 0, 75, 47
1, 141720, Tempo, 451875
1, 141720, Note_on_c, 0, 75, 0
1, 141720, Note_on_c, 0, 77, 50
1, 141840, Tempo, 418468
1, 141840, Note_on_c, 0, 77, 0
1, 141840, Note_on_c, 0, 79, 55
1, 142320, Note_on_c, 0, 67, 0
1, 142320, Note_on_c, 0, 70, 0
1, 142320, Note_on_c, 0, 71, 42
1, 142320, Note_on_c, 0, 68, 37
1, 142440, Tempo, 453789
1, 142500, Note_on_c, 0, 68, 0
1, 142500, Note_on_c, 0, 53, 37
1, 142530, Note_on_c, 0, 63, 41
1, 142560, Tempo, 432526
1, 142560, Note_on_c, 0, 71, 0
1, 142560, Note_on_c, 0, 53, 0
1, 142560, Note_on_c, 0, 69, 47
1, 142620, Control_c, 0, 64, 127
1, 142697, Tempo, 430973
1, 142800, Note_on_c, 0, 69, 0
1, 142800, Note_on_c, 0, 63, 0
1, 142800, Note_on_c, 0, 53, 0
1, 142800, Note_on_c, 0, 72, 48
1, 142831, Tempo, 429430
1, 142920, Note_on_c, 0, 72, 0
1, 142920, Note_on_c, 0, 79, 0
1, 142920, Note_on_c, 0, 78, 42
1, 142920, Note_on_c, 0, 75, 42
1, 142946, Tempo, 427899
1, 143040, Note_on_c, 0, 75, 0
1, 143040, Note_on_c, 0, 78, 0
1, 143040, Note_on_c, 0, 72, 46
1, 143061, Tempo, 426379
1, 143160, Note_on_c, 0, 72, 0
1, 143160, Note_on_c, 0, 75, 42
1, 143160, Note_on_c, 0, 79, 42
1, 143177, Tempo, 424869
1, 143280, Note_on_c, 0, 79, 0
1, 143280, Note_on_c, 0, 75, 0
1, 143280, Note_on_c, 0, 75, 47
1, 143292, Tempo, 423370
1, 143370, Note_on_c, 0, 75, 0
1, 143400, Note_on_c, 0, 79, 41
1, 143400, Note_on_c, 0, 83, 41
1, 143426, Tempo, 421882
1, 143490, Note_on_c, 0, 83, 0
1, 143490, Note_on_c, 0, 79, 0
1, 143520, Note_on_c, 0, 75, 45
1, 143541, Tempo, 420404
1, 143610, Note_on_c, 0, 75, 0
1, 143640, Note_on_c, 0, 84, 39
1, 143640, Note_on_c, 0, 79, 39
1, 143657, Tempo, 418936
1, 143730, Note_on_c, 0, 79, 0
1, 143730, Note_on_c, 0, 84, 0
1, 143760, Note_on_c, 0, 79, 43
1, 143772, Tempo, 417478
1, 143850, Note_on_c, 0, 79, 0
1, 143880, Note_on_c, 0, 86, 37
1, 143880, Note_on_c, 0, 84, 37
1, 143887, Tempo, 416031
1, 143970, Note_on_c, 0, 84, 0
1, 143970, Note_on_c, 0, 86, 0
1, 144000, Note_on_c, 0, 79, 43
1, 144002, Tempo, 414594
1, 144090, Note_on_c, 0, 79, 0
1, 144120, Note_on_c, 0, 87, 36
1, 144120, Note_on_c, 0, 84, 36
1, 144210, Note_on_c, 0, 84, 0
1, 144210, Note_on_c, 0, 87, 0
1, 144233, Tempo, 413166
1, 144240, Note_on_c, 0, 84, 41
1, 144290, Tempo, 407553
1, 144329, Tempo, 408942
1, 144330, Note_on_c, 0, 84, 0
1, 144348, Tempo, 410341
1, 144360, Note_on_c, 0, 90, 34
1, 144360, Note_on_c, 0, 87, 34
1, 144367, Tempo, 411749
1, 144405, Tempo, 413166
1, 144425, Tempo, 414594
1, 144444, Tempo, 416031
1, 144450, Note_on_c, 0, 87, 0
1, 144450, Note_on_c, 0, 90, 0
1, 144463, Tempo, 417478
1, 144480, Note_on_c, 0, 84, 38
1, 144501, Tempo, 418936
1, 144521, Tempo, 420404
1, 144540, Tempo, 421882
1, 144570, Note_on_c, 0, 84, 0
1, 144578, Tempo, 423370
1, 144597, Tempo, 424869
1, 144600, Note_on_c, 0, 91, 33
1, 144600, Note_on_c, 0, 87, 33
1, 144617, Tempo, 426379
1, 144636, Tempo, 430973
1, 144655, Tempo, 434091
1, 144674, Tempo, 437254
1, 144690, Note_on_c, 0, 87, 0
1, 144690, Note_on_c, 0, 91, 0
1, 144693, Tempo, 440464
1, 144713, Tempo, 445368
1, 144720, Note_on_c, 0, 96, 48
1, 144732, Tempo, 448699
1, 144751, Tempo, 452080
1, 144770, Tempo, 457247
1, 144789, Tempo, 460759
1, 144809, Tempo, 464324
1, 144828, Tempo, 467946
1, 144840, Note_on_c, 0, 96, 0
1, 144847, Tempo, 473485
1, 144866, Tempo, 477251
1, 144885, Tempo, 481078
1, 144905, Tempo, 486934
1, 145113, Control_c, 0, 64, 0
1, 145440, Tempo, 414594
1, 145440, Note_on_c, 0, 46, 58
1, 145500, Tempo, 411749
1, 145560, Note_on_c, 0, 82, 31
1, 145560, Note_on_c, 0, 86, 31
1, 145560, Control_c, 0, 64, 127
1, 145615, Tempo, 410341
1, 145680, Note_on_c, 0, 86, 0
1, 145680, Note_on_c, 0, 82, 0
1, 145680, Note_on_c, 0, 88, 35
1, 145730, Tempo, 408942
1, 145800, Note_on_c, 0, 88, 0
1, 145800, Note_on_c, 0, 82, 30
1, 145800, Note_on_c, 0, 86, 30
1, 145826, Tempo, 407553
1, 145920, Note_on_c, 0, 86, 0
1, 145920, Note_on_c, 0, 82, 0
1, 145920, Note_on_c, 0, 46, 0
1, 145920, Note_on_c, 0, 89, 35
1, 145920, Note_on_c, 0, 53, 52
1, 145941, Tempo, 406174
1, 146037, Tempo, 404804
1, 146040, Note_on_c, 0, 89, 0
1, 146040, Note_on_c, 0, 86, 31
1, 146040, Note_on_c, 0, 82, 31
1, 146160, Note_on_c, 0, 82, 0
1, 146160, Note_on_c, 0, 86, 0
1, 146160, Note_on_c, 0, 53, 0
1, 146160, Note_on_c, 0, 58, 58
1, 146280, Note_on_c, 0, 86, 30
1, 146280, Note_on_c, 0, 82, 30
1, 146400, Note_on_c, 0, 82, 0
1, 146400, Note_on_c, 0, 86, 0
1, 146400, Note_on_c, 0, 88, 35
1, 146520, Note_on_c, 0, 88, 0
1, 146520, Note_on_c, 0, 86, 32
1, 146520, Note_on_c, 0, 82, 32
1, 146640, Note_on_c, 0, 82, 0
1, 146640, Note_on_c, 0, 86, 0
1, 146640, Note_on_c, 0, 58, 0
1, 146640, Note_on_c, 0, 89, 35
1, 146640, Note_on_c, 0, 60, 53
1, 146690, Tempo, 402091
1, 146729, Tempo, 403443
1, 146748, Tempo, 404804
1, 146760, Note_on_c, 0, 89, 0
1, 146760, Note_on_c, 0, 82, 31
1, 146760, Note_on_c, 0, 86, 31
1, 146786, Tempo, 406174
1, 146805, Tempo, 407553
1, 146825, Tempo, 408942
1, 146863, Tempo, 410341
1, 146880, Note_on_c, 0, 86, 0
1, 146880, Note_on_c, 0, 82, 0
1, 146880, Note_on_c, 0, 60, 0
1, 146880, Note_on_c, 0, 62, 63
1, 146882, Tempo, 411749
1, 146901, Tempo, 413166
1, 146997, Tempo, 413166
1, 147000, Note_on_c, 0, 82, 34
1, 147000, Note_on_c, 0, 86, 34
1, 147120, Note_on_c, 0, 86, 0
1, 147120, Note_on_c, 0, 82, 0
1, 147120, Note_on_c, 0, 88, 39
1, 147189, Tempo, 411749
1, 147240, Note_on_c, 0, 88, 0
1, 147240, Note_on_c, 0, 82, 34
1, 147240, Note_on_c, 0, 86, 34
1, 147360, Note_on_c, 0, 86, 0
1, 147360, Note_on_c, 0, 82, 0
1, 147360, Note_on_c, 0, 62, 0
1, 147360, Note_on_c, 0, 89, 41
1, 147360, Note_on_c, 0, 65, 68
1, 147362, Tempo, 410341
1, 147480, Note_on_c, 0, 89, 0
1, 147480, Note_on_c, 0, 86, 37
1, 147480, Note_on_c, 0, 82, 37
1, 147554, Tempo, 408942
1, 147600, Note_on_c, 0, 82, 0
1, 147600, Note_on_c, 0, 86, 0
1, 147600, Note_on_c, 0, 65, 0
1, 147600, Note_on_c, 0, 70, 73
1, 147720, Note_on_c, 0, 86, 37
1, 147720, Note_on_c, 0, 82, 37
1, 147727, Tempo, 407553
1, 147840, Note_on_c, 0, 82, 0
1, 147840, Note_on_c, 0, 86, 0
1, 147840, Note_on_c, 0, 88, 45
1, 147900, Tempo, 406174
1, 147960, Note_on_c, 0, 88, 0
1, 147960, Note_on_c, 0, 86, 41
1, 147960, Note_on_c, 0, 82, 41
1, 148080, Note_on_c, 0, 82, 0
1, 148080, Note_on_c, 0, 86, 0
1, 148080, Note_on_c, 0, 70, 0
1, 148080, Note_on_c, 0, 89, 46
1, 148080, Note_on_c, 0, 69, 58
1, 148200, Tempo, 453789
1, 148200, Note_on_c, 0, 89, 0
1, 148200, Note_on_c, 0, 82, 42
1, 148200, Note_on_c, 0, 86, 42
1, 148230, Note_on_c, 0, 69, 0
1, 148230, Note_on_c, 0, 52, 41
1, 148250, Control_c, 0, 64, 0
1, 148260, Note_on_c, 0, 59, 47
1, 148290, Note_on_c, 0, 62, 53
1, 148320, Tempo, 435667
1, 148320, Note_on_c, 0, 86, 0
1, 148320, Note_on_c, 0, 82, 0
1, 148320, Note_on_c, 0, 69, 81
1, 148320, Control_c, 0, 64, 127
1, 148341, Tempo, 410341
1, 148440, Note_on_c, 0, 83, 42
1, 148440, Note_on_c, 0, 86, 42
1, 148560, Note_on_c, 0, 86, 0
1, 148560, Note_on_c, 0, 83, 0
1, 148560, Note_on_c, 0, 88, 47
1, 148591, Tempo, 403443
1, 148680, Note_on_c, 0, 88, 0
1, 148680, Note_on_c, 0, 83, 39
1, 148680, Note_on_c, 0, 86, 39
1, 148706, Tempo, 402091
1, 148800, Note_on_c, 0, 86, 0
1, 148800, Note_on_c, 0, 83, 0
1, 148800, Note_on_c, 0, 89, 45
1, 148821, Tempo, 400748
1, 148917, Tempo, 399414
1, 148920, Note_on_c, 0, 89, 0
1, 148920, Note_on_c, 0, 86, 39
1, 148920, Note_on_c, 0, 83, 39
1, 149033, Tempo, 398089
1, 149040, Note_on_c, 0, 83, 0
1, 149040, Note_on_c, 0, 86, 0
1, 149129, Tempo, 396773
1, 149160, Note_on_c, 0, 86, 36
1, 149160, Note_on_c, 0, 83, 36
1, 149280, Note_on_c, 0, 83, 0
1, 149280, Note_on_c, 0, 86, 0
1, 149280, Note_on_c, 0, 88, 42
1, 149400, Note_on_c, 0, 88, 0
1, 149400, Note_on_c, 0, 86, 37
1, 149400, Note_on_c, 0, 83, 37
1, 149520, Note_on_c, 0, 83, 0
1, 149520, Note_on_c, 0, 86, 0
1, 149520, Note_on_c, 0, 89, 40
1, 149640, Note_on_c, 0, 89, 0
1, 149640, Note_on_c, 0, 83, 35
1, 149640, Note_on_c, 0, 86, 35
1, 149724, Tempo, 418936
1, 149743, Tempo, 420404
1, 149760, Note_on_c, 0, 86, 0
1, 149760, Note_on_c, 0, 69, 0
1, 149760, Note_on_c, 0, 83, 0
1, 149760, Note_on_c, 0, 68, 52
1, 149880, Note_on_c, 0, 83, 31
1, 149880, Note_on_c, 0, 86, 31
1, 149916, Tempo, 398089
1, 150000, Note_on_c, 0, 86, 0
1, 150000, Note_on_c, 0, 83, 0
1, 150000, Note_on_c, 0, 88, 35
1, 150031, Tempo, 396773
1, 150120, Note_on_c, 0, 88, 0
1, 150120, Note_on_c, 0, 83, 30
1, 150120, Note_on_c, 0, 86, 30
1, 150127, Tempo, 395465
1, 150240, Note_on_c, 0, 86, 0
1, 150240, Note_on_c, 0, 59, 0
1, 150240, Note_on_c, 0, 62, 0
1, 150240, Note_on_c, 0, 52, 0
1, 150240, Note_on_c, 0, 83, 0
1, 150240, Note_on_c, 0, 68, 0
1, 150240, Note_on_c, 0, 89, 35
1, 150360, Note_on_c, 0, 89, 0
1, 150360, Note_on_c, 0, 86, 31
1, 150360, Note_on_c, 0, 83, 31
1, 150480, Note_on_c, 0, 83, 0
1, 150480, Note_on_c, 0, 86, 0
1, 150600, Note_on_c, 0, 86, 30
1, 150600, Note_on_c, 0, 83, 30
1, 150607, Tempo, 394166
1, 150665, Tempo, 395465
1, 150720, Note_on_c, 0, 83, 0
1, 150720, Note_on_c, 0, 86, 0
1, 150720, Note_on_c, 0, 88, 35
1, 150722, Tempo, 396773
1, 150761, Tempo, 398089
1, 150818, Tempo, 399414
1, 150840, Note_on_c, 0, 88, 0
1, 150840, Note_on_c, 0, 86, 32
1, 150840, Note_on_c, 0, 83, 32
1, 150876, Tempo, 400748
1, 150914, Tempo, 402091
1, 150960, Note_on_c, 0, 83, 0
1, 150960, Note_on_c, 0, 86, 0
1, 150960, Note_on_c, 0, 89, 35
1, 150972, Tempo, 403443
1, 151029, Tempo, 404804
1, 151068, Tempo, 406174
1, 151080, Note_on_c, 0, 89, 0
1, 151080, Note_on_c, 0, 83, 31
1, 151080, Note_on_c, 0, 86, 31
1, 151125, Tempo, 407553
1, 151164, Tempo, 408942
1, 151200, Tempo, 414594
1, 151200, Note_on_c, 0, 86, 0
1, 151200, Note_on_c, 0, 83, 0
1, 151200, Note_on_c, 0, 46, 58
1, 151200, Control_c, 0, 64, 0
1, 151260, Tempo, 411749
1, 151320, Note_on_c, 0, 82, 31
1, 151320, Note_on_c, 0, 85, 31
1, 151320, Control_c, 0, 64, 127
1, 151375, Tempo, 410341
1, 151440, Note_on_c, 0, 85, 0
1, 151440, Note_on_c, 0, 82, 0
1, 151440, Note_on_c, 0, 88, 35
1, 151490, Tempo, 408942
1, 151560, Note_on_c, 0, 88, 0
1, 151560, Note_on_c, 0, 82, 30
1, 151560, Note_on_c, 0, 85, 30
1, 151586, Tempo, 407553
1, 151680, Note_on_c, 0, 85, 0
1, 151680, Note_on_c, 0, 82, 0
1, 151680, Note_on_c, 0, 46, 0
1, 151680, Note_on_c, 0, 89, 35
1, 151680, Note_on_c, 0, 53, 52
1, 151701, Tempo, 406174
1, 151797, Tempo, 404804
1, 151800, Note_on_c, 0, 89, 0
1, 151800, Note_on_c, 0, 85, 31
1, 151800, Note_on_c, 0, 82, 31
1, 151920, Note_on_c, 0, 82, 0
1, 151920, Note_on_c, 0, 85, 0
1, 151920, Note_on_c, 0, 53, 0
1, 151920, Note_on_c, 0, 58, 58
1, 152040, Note_on_c, 0, 85, 30
1, 152040, Note_on_c, 0, 82, 30
1, 152160, Note_on_c, 0, 82, 0
1, 152160, Note_on_c, 0, 85, 0
1, 152160, Note_on_c, 0, 88, 36
1, 152280, Note_on_c, 0, 88, 0
1, 152280, Note_on_c, 0, 85, 32
1, 152280, Note_on_c, 0, 82, 32
1, 152400, Note_on_c, 0, 82, 0
1, 152400, Note_on_c, 0, 85, 0
1, 152400, Note_on_c, 0, 58, 0
1, 152400, Note_on_c, 0, 89, 36
1, 152400, Note_on_c, 0, 60, 53
1, 152450, Tempo, 402091
1, 152489, Tempo, 403443
1, 152508, Tempo, 404804
1, 152520, Note_on_c, 0, 89, 0
1, 152520, Note_on_c, 0, 82, 32
1, 152520, Note_on_c, 0, 85, 32
1, 152546, Tempo, 406174
1, 152565, Tempo, 407553
1, 152585, Tempo, 408942
1, 152623, Tempo, 410341
1, 152640, Note_on_c, 0, 85, 0
1, 152640, Note_on_c, 0, 82, 0
1, 152640, Note_on_c, 0, 60, 0
1, 152640, Note_on_c, 0, 61, 63
1, 152642, Tempo, 411749
1, 152661, Tempo, 413166
1, 152757, Tempo, 413166
1, 152760, Note_on_c, 0, 82, 35
1, 152760, Note_on_c, 0, 85, 35
1, 152880, Note_on_c, 0, 85, 0
1, 152880, Note_on_c, 0, 82, 0
1, 152880, Note_on_c, 0, 88, 40
1, 152949, Tempo, 411749
1, 153000, Note_on_c, 0, 88, 0
1, 153000, Note_on_c, 0, 82, 36
1, 153000, Note_on_c, 0, 85, 36
1, 153120, Note_on_c, 0, 85, 0
1, 153120, Note_on_c, 0, 82, 0
1, 153120, Note_on_c, 0, 61, 0
1, 153120, Note_on_c, 0, 89, 44
1, 153120, Note_on_c, 0, 65, 70
1, 153122, Tempo, 410341
1, 153240, Note_on_c, 0, 89, 0
1, 153240, Note_on_c, 0, 85, 40
1, 153240, Note_on_c, 0, 82, 40
1, 153314, Tempo, 408942
1, 153360, Note_on_c, 0, 82, 0
1, 153360, Note_on_c, 0, 85, 0
1, 153360, Note_on_c, 0, 65, 0
1, 153360, Note_on_c, 0, 70, 77
1, 153480, Note_on_c, 0, 85, 40
1, 153480, Note_on_c, 0, 82, 40
1, 153487, Tempo, 407553
1, 153600, Note_on_c, 0, 82, 0
1, 153600, Note_on_c, 0, 85, 0
1, 153600, Note_on_c, 0, 88, 50
1, 153660, Tempo, 406174
1, 153720, Note_on_c, 0, 88, 0
1, 153720, Note_on_c, 0, 85, 46
1, 153720, Note_on_c, 0, 82, 46
1, 153840, Note_on_c, 0, 82, 0
1, 153840, Note_on_c, 0, 85, 0
1, 153840, Note_on_c, 0, 70, 0
1, 153840, Note_on_c, 0, 89, 53
1, 153840, Note_on_c, 0, 68, 62
1, 153960, Tempo, 453789
1, 153960, Note_on_c, 0, 89, 0
1, 153960, Note_on_c, 0, 82, 49
1, 153960, Note_on_c, 0, 85, 49
1, 153990, Note_on_c, 0, 68, 0
1, 153990, Note_on_c, 0, 51, 43
1, 154010, Control_c, 0, 64, 0
1, 154020, Note_on_c, 0, 58, 51
1, 154050, Note_on_c, 0, 61, 57
1, 154080, Tempo, 435667
1, 154080, Note_on_c, 0, 85, 0
1, 154080, Note_on_c, 0, 82, 0
1, 154080, Note_on_c, 0, 68, 81
1, 154080, Control_c, 0, 64, 127
1, 154101, Tempo, 410341
1, 154200, Note_on_c, 0, 82, 46
1, 154200, Note_on_c, 0, 85, 46
1, 154320, Note_on_c, 0, 85, 0
1, 154320, Note_on_c, 0, 82, 0
1, 154320, Note_on_c, 0, 88, 52
1, 154351, Tempo, 403443
1, 154440, Note_on_c, 0, 88, 0
1, 154440, Note_on_c, 0, 82, 43
1, 154440, Note_on_c, 0, 85, 43
1, 154466, Tempo, 402091
1, 154560, Note_on_c, 0, 85, 0
1, 154560, Note_on_c, 0, 82, 0
1, 154560, Note_on_c, 0, 89, 50
1, 154581, Tempo, 400748
1, 154677, Tempo, 399414
1, 154680, Note_on_c, 0, 89, 0
1, 154680, Note_on_c, 0, 85, 44
1, 154680, Note_on_c, 0, 82, 44
1, 154793, Tempo, 398089
1, 154800, Note_on_c, 0, 82, 0
1, 154800, Note_on_c, 0, 85, 0
1, 154889, Tempo, 396773
1, 154920, Note_on_c, 0, 82, 43
1, 154920, Note_on_c, 0, 85, 43
1, 155040, Note_on_c, 0, 85, 0
1, 155040, Note_on_c, 0, 82, 0
1, 155040, Note_on_c, 0, 88, 53
1, 155160, Note_on_c, 0, 88, 0
1, 155160, Note_on_c, 0, 82, 46
1, 155160, Note_on_c, 0, 85, 46
1, 155280, Note_on_c, 0, 85, 0
1, 155280, Note_on_c, 0, 82, 0
1, 155280, Note_on_c, 0, 89, 53
1, 155400, Note_on_c, 0, 89, 0
1, 155400, Note_on_c, 0, 85, 46
1, 155400, Note_on_c, 0, 82, 46
1, 155484, Tempo, 418936
1, 155503, Tempo, 420404
1, 155520, Note_on_c, 0, 82, 0
1, 155520, Note_on_c, 0, 68, 0
1, 155520, Note_on_c, 0, 85, 0
1, 155520, Note_on_c, 0, 67, 62
1, 155640, Note_on_c, 0, 82, 43
1, 155640, Note_on_c, 0, 85, 43
1, 155676, Tempo, 398089
1, 155760, Note_on_c, 0, 85, 0
1, 155760, Note_on_c, 0, 82, 0
1, 155760, Note_on_c, 0, 88, 53
1, 155791, Tempo, 396773
1, 155880, Note_on_c, 0, 88, 0
1, 155880, Note_on_c, 0, 82, 45
1, 155880, Note_on_c, 0, 85, 45
1, 155887, Tempo, 395465
1, 156000, Note_on_c, 0, 85, 0
1, 156000, Note_on_c, 0, 58, 0
1, 156000, Note_on_c, 0, 61, 0
1, 156000, Note_on_c, 0, 51, 0
1, 156000, Note_on_c, 0, 82, 0
1, 156000, Note_on_c, 0, 67, 0
1, 156000, Note_on_c, 0, 89, 53
1, 156120, Note_on_c, 0, 89, 0
1, 156120, Note_on_c, 0, 85, 44
1, 156120, Note_on_c, 0, 82, 44
1, 156180, Note_on_c, 0, 49, 60
1, 156200, Control_c, 0, 64, 0
1, 156240, Note_on_c, 0, 49, 0
1, 156240, Note_on_c, 0, 82, 0
1, 156240, Note_on_c, 0, 85, 0
1, 156240, Note_on_c, 0, 66, 80
1, 156243, Control_c, 0, 64, 127
1, 156360, Note_on_c, 0, 85, 45
1, 156360, Note_on_c, 0, 82, 45
1, 156367, Tempo, 394166
1, 156425, Tempo, 395465
1, 156480, Note_on_c, 0, 82, 0
1, 156480, Note_on_c, 0, 85, 0
1, 156480, Note_on_c, 0, 89, 49
1, 156482, Tempo, 396773
1, 156521, Tempo, 398089
1, 156578, Tempo, 399414
1, 156600, Note_on_c, 0, 89, 0
1, 156600, Note_on_c, 0, 82, 43
1, 156600, Note_on_c, 0, 85, 43
1, 156636, Tempo, 400748
1, 156674, Tempo, 402091
1, 156720, Note_on_c, 0, 85, 0
1, 156720, Note_on_c, 0, 82, 0
1, 156720, Note_on_c, 0, 66, 0
1, 156720, Note_on_c, 0, 90, 49
1, 156720, Note_on_c, 0, 65, 76
1, 156732, Tempo, 403443
1, 156840, Note_on_c, 0, 90, 0
1, 156840, Note_on_c, 0, 85, 42
1, 156840, Note_on_c, 0, 82, 42
1, 156900, Tempo, 1034661
1, 156900, Note_on_c, 0, 48, 77
1, 156900, Note_on_c, 0, 36, 77
1, 156960, Tempo, 441209
1, 156960, Note_on_c, 0, 82, 0
1, 156960, Note_on_c, 0, 65, 0
1, 156960, Note_on_c, 0, 85, 0
1, 156960, Note_on_c, 0, 55, 64
1, 156960, Note_on_c, 0, 58, 64
1, 156960, Note_on_c, 0, 65, 69
1, 157027, Control_c, 0, 64, 0
1, 157080, Tempo, 390905
1, 157080, Note_on_c, 0, 85, 56
1, 157080, Note_on_c, 0, 82, 56
1, 157160, Control_c, 0, 64, 127
1, 157200, Note_on_c, 0, 82, 0
1, 157200, Note_on_c, 0, 85, 0
1, 157200, Note_on_c, 0, 90, 63
1, 157320, Note_on_c, 0, 90, 0
1, 157320, Note_on_c, 0, 82, 53
1, 157320, Note_on_c, 0, 85, 53
1, 157440, Note_on_c, 0, 85, 0
1, 157440, Note_on_c, 0, 82, 0
1, 157440, Note_on_c, 0, 91, 62
1, 157560, Note_on_c, 0, 91, 0
1, 157560, Note_on_c, 0, 85, 52
1, 157560, Note_on_c, 0, 82, 52
1, 157680, Tempo, 421082
1, 157680, Note_on_c, 0, 82, 0
1, 157680, Note_on_c, 0, 85, 0
1, 157800, Tempo, 393468
1, 157800, Note_on_c, 0, 85, 56
1, 157800, Note_on_c, 0, 82, 56
1, 157920, Note_on_c, 0, 82, 0
1, 157920, Note_on_c, 0, 85, 0
1, 157920, Note_on_c, 0, 90, 61
1, 158040, Note_on_c, 0, 90, 0
1, 158040, Note_on_c, 0, 82, 53
1, 158040, Note_on_c, 0, 85, 53
1, 158160, Note_on_c, 0, 85, 0
1, 158160, Note_on_c, 0, 82, 0
1, 158160, Note_on_c, 0, 91, 61
1, 158280, Note_on_c, 0, 91, 0
1, 158280, Note_on_c, 0, 85, 52
1, 158280, Note_on_c, 0, 82, 52
1, 158400, Tempo, 447795
1, 158400, Note_on_c, 0, 82, 0
1, 158400, Note_on_c, 0, 65, 0
1, 158400, Note_on_c, 0, 85, 0
1, 158400, Note_on_c, 0, 64, 66
1, 158520, Tempo, 389636
1, 158520, Note_on_c, 0, 85, 51
1, 158520, Note_on_c, 0, 82, 51
1, 158640, Note_on_c, 0, 82, 0
1, 158640, Note_on_c, 0, 85, 0
1, 158640, Note_on_c, 0, 90, 58
1, 158760, Note_on_c, 0, 90, 0
1, 158760, Note_on_c, 0, 82, 49
1, 158760, Note_on_c, 0, 85, 49
1, 158880, Note_on_c, 0, 85, 0
1, 158880, Note_on_c, 0, 82, 0
1, 158880, Note_on_c, 0, 91, 57
1, 159000, Note_on_c, 0, 91, 0
1, 159000, Note_on_c, 0, 85, 48
1, 159000, Note_on_c, 0, 82, 48
1, 159120, Tempo, 428602
1, 159120, Note_on_c, 0, 82, 0
1, 159120, Note_on_c, 0, 85, 0
1, 159240, Tempo, 390905
1, 159240, Note_on_c, 0, 82, 51
1, 159240, Note_on_c, 0, 79, 51
1, 159360, Note_on_c, 0, 79, 0
1, 159360, Note_on_c, 0, 82, 0
1, 159360, Note_on_c, 0, 87, 56
1, 159480, Note_on_c, 0, 87, 0
1, 159480, Note_on_c, 0, 79, 49
1, 159480, Note_on_c, 0, 82, 49
1, 159600, Note_on_c, 0, 82, 0
1, 159600, Note_on_c, 0, 79, 0
1, 159600, Note_on_c, 0, 88, 56
1, 159720, Note_on_c, 0, 88, 0
1, 159720, Note_on_c, 0, 82, 48
1, 159720, Note_on_c, 0, 79, 48
1, 159840, Tempo, 428602
1, 159840, Note_on_c, 0, 79, 0
1, 159840, Note_on_c, 0, 82, 0
1, 159960, Tempo, 393468
1, 159960, Note_on_c, 0, 79, 45
1, 159960, Note_on_c, 0, 76, 45
1, 160080, Note_on_c, 0, 76, 0
1, 160080, Note_on_c, 0, 79, 0
1, 160080, Note_on_c, 0, 84, 50
1, 160200, Note_on_c, 0, 84, 0
1, 160200, Note_on_c, 0, 76, 42
1, 160200, Note_on_c, 0, 79, 42
1, 160320, Note_on_c, 0, 79, 0
1, 160320, Note_on_c, 0, 76, 0
1, 160320, Note_on_c, 0, 85, 48
1, 160440, Note_on_c, 0, 85, 0
1, 160440, Note_on_c, 0, 79, 39
1, 160440, Note_on_c, 0, 76, 39
1, 160560, Tempo, 421082
1, 160560, Note_on_c, 0, 76, 0
1, 160560, Note_on_c, 0, 79, 0
1, 160620, Tempo, 400027
1, 160680, Note_on_c, 0, 76, 41
1, 160680, Note_on_c, 0, 73, 41
1, 160800, Note_on_c, 0, 73, 0
1, 160800, Note_on_c, 0, 76, 0
1, 160800, Note_on_c, 0, 81, 44
1, 160920, Note_on_c, 0, 81, 0
1, 160920, Note_on_c, 0, 73, 38
1, 160920, Note_on_c, 0, 76, 38
1, 161040, Note_on_c, 0, 76, 0
1, 161040, Note_on_c, 0, 73, 0
1, 161040, Note_on_c, 0, 82, 43
1, 161160, Note_on_c, 0, 82, 0
1, 161160, Note_on_c, 0, 76, 36
1, 161160, Note_on_c, 0, 73, 36
1, 161280, Tempo, 436395
1, 161280, Note_on_c, 0, 73, 0
1, 161280, Note_on_c, 0, 76, 0
1, 161400, Tempo, 408191
1, 161400, Note_on_c, 0, 73, 38
1, 161400, Note_on_c, 0, 70, 38
1, 161520, Note_on_c, 0, 70, 0
1, 161520, Note_on_c, 0, 73, 0
1, 161520, Note_on_c, 0, 78, 42
1, 161640, Note_on_c, 0, 78, 0
1, 161640, Note_on_c, 0, 70, 35
1, 161640, Note_on_c, 0, 73, 35
1, 161760, Note_on_c, 0, 73, 0
1, 161760, Note_on_c, 0, 70, 0
1, 161760, Note_on_c, 0, 79, 40
1, 161880, Note_on_c, 0, 79, 0
1, 161880, Note_on_c, 0, 73, 33
1, 161880, Note_on_c, 0, 70, 33
1, 162000, Tempo, 442837
1, 162000, Note_on_c, 0, 70, 0
1, 162000, Note_on_c, 0, 73, 0
1, 162060, Tempo, 424058
1, 162120, Note_on_c, 0, 70, 34
1, 162120, Note_on_c, 0, 67, 34
1, 162240, Note_on_c, 0, 67, 0
1, 162240, Note_on_c, 0, 70, 0
1, 162240, Note_on_c, 0, 75, 37
1, 162360, Note_on_c, 0, 75, 0
1, 162360, Note_on_c, 0, 67, 31
1, 162360, Note_on_c, 0, 70, 31
1, 162480, Note_on_c, 0, 70, 0
1, 162480, Note_on_c, 0, 48, 0
1, 162480, Note_on_c, 0, 64, 0
1, 162480, Note_on_c, 0, 58, 0
1, 162480, Note_on_c, 0, 36, 0
1, 162480, Note_on_c, 0, 67, 0
1, 162480, Note_on_c, 0, 55, 0
1, 162480, Note_on_c, 0, 76, 35
1, 162600, Note_on_c, 0, 76, 0
1, 162600, Note_on_c, 0, 70, 30
1, 162600, Note_on_c, 0, 67, 30
1, 162720, Note_on_c, 0, 67, 0
1, 162720, Note_on_c, 0, 70, 0
1, 162720, Control_c, 0, 64, 0
1, 164100, Note_on_c, 0, 49, 29
1, 164126, Control_c, 0, 64, 127
1, 164160, Tempo, 448799
1, 164160, Note_on_c, 0, 58, 37
1, 164280, Tempo, 416118
1, 164280, Note_on_c, 0, 67, 29
1, 164280, Note_on_c, 0, 70, 29
1, 164400, Note_on_c, 0, 70, 0
1, 164400, Note_on_c, 0, 49, 0
1, 164400, Note_on_c, 0, 58, 0
1, 164400, Note_on_c, 0, 67, 0
1, 164400, Note_on_c, 0, 72, 35
1, 164520, Note_on_c, 0, 72, 0
1, 164520, Note_on_c, 0, 67, 30
1, 164520, Note_on_c, 0, 70, 30
1, 164640, Note_on_c, 0, 70, 0
1, 164640, Note_on_c, 0, 67, 0
1, 164640, Note_on_c, 0, 73, 35
1, 164760, Note_on_c, 0, 73, 0
1, 164760, Note_on_c, 0, 67, 31
1, 164760, Note_on_c, 0, 70, 31
1, 164880, Tempo, 445467
1, 164880, Note_on_c, 0, 70, 0
1, 164880, Note_on_c, 0, 67, 0
1, 164880, Note_on_c, 0, 37, 29
1, 165000, Tempo, 417566
1, 165000, Note_on_c, 0, 67, 29
1, 165000, Note_on_c, 0, 70, 29
1, 165060, Tempo, 416118
1, 165120, Note_on_c, 0, 70, 0
1, 165120, Note_on_c, 0, 67, 0
1, 165120, Note_on_c, 0, 37, 0
1, 165120, Note_on_c, 0, 72, 35
1, 165240, Note_on_c, 0, 72, 0
1, 165240, Note_on_c, 0, 67, 31
1, 165240, Note_on_c, 0, 70, 31
1, 165360, Note_on_c, 0, 70, 0
1, 165360, Note_on_c, 0, 67, 0
1, 165360, Note_on_c, 0, 73, 35
1, 165480, Note_on_c, 0, 73, 0
1, 165480, Note_on_c, 0, 67, 30
1, 165480, Note_on_c, 0, 70, 30
1, 165540, Tempo, 501295
1, 165600, Tempo, 416118
1, 165600, Note_on_c, 0, 70, 0
1, 165600, Note_on_c, 0, 67, 0
1, 165600, Note_on_c, 0, 78, 47
1, 165600, Control_c, 0, 64, 0
1, 165787, Control_c, 0, 64, 127
1, 166747, Control_c, 0, 64, 0
1, 166980, Tempo, 424058
1, 166980, Note_on_c, 0, 48, 29
1, 167006, Control_c, 0, 64, 127
1, 167040, Tempo, 448799
1, 167040, Note_on_c, 0, 78, 0
1, 167040, Note_on_c, 0, 58, 37
1, 167160, Tempo, 416118
1, 167160, Note_on_c, 0, 64, 29
1, 167160, Note_on_c, 0, 70, 29
1, 167280, Note_on_c, 0, 70, 0
1, 167280, Note_on_c, 0, 48, 0
1, 167280, Note_on_c, 0, 58, 0
1, 167280, Note_on_c, 0, 64, 0
1, 167280, Note_on_c, 0, 73, 37
1, 167400, Note_on_c, 0, 73, 0
1, 167400, Note_on_c, 0, 64, 32
1, 167400, Note_on_c, 0, 70, 32
1, 167520, Note_on_c, 0, 70, 0
1, 167520, Note_on_c, 0, 64, 0
1, 167520, Note_on_c, 0, 74, 38
1, 167640, Note_on_c, 0, 74, 0
1, 167640, Note_on_c, 0, 64, 35
1, 167640, Note_on_c, 0, 70, 35
1, 167760, Tempo, 445467
1, 167760, Note_on_c, 0, 70, 0
1, 167760, Note_on_c, 0, 64, 0
1, 167760, Note_on_c, 0, 36, 33
1, 167880, Tempo, 417566
1, 167880, Note_on_c, 0, 64, 34
1, 167880, Note_on_c, 0, 70, 34
1, 167940, Tempo, 416118
1, 168000, Note_on_c, 0, 70, 0
1, 168000, Note_on_c, 0, 64, 0
1, 168000, Note_on_c, 0, 36, 0
1, 168000, Note_on_c, 0, 73, 42
1, 168120, Note_on_c, 0, 73, 0
1, 168120, Note_on_c, 0, 64, 37
1, 168120, Note_on_c, 0, 70, 37
1, 168240, Note_on_c, 0, 70, 0
1, 168240, Note_on_c, 0, 64, 0
1, 168240, Note_on_c, 0, 74, 43
1, 168360, Note_on_c, 0, 74, 0
1, 168360, Note_on_c, 0, 64, 38
1, 168360, Note_on_c, 0, 70, 38
1, 168420, Tempo, 501295
1, 168480, Tempo, 416118
1, 168480, Note_on_c, 0, 70, 0
1, 168480, Note_on_c, 0, 64, 0
1, 168480, Note_on_c, 0, 79, 62
1, 168480, Control_c, 0, 64, 0
1, 168667, Control_c, 0, 64, 127
1, 169920, Control_c, 0, 64, 0
1, 170400, Note_on_c, 0, 79, 0
1, 170400, Note_on_c, 0, 69, 43
1, 170640, Note_on_c, 0, 69, 0
1, 170640, Note_on_c, 0, 70, 50
1, 171120, Note_on_c, 0, 70, 0
1, 171120, Note_on_c, 0, 72, 43
1, 171360, Note_on_c, 0, 72, 0
1, 171360, Note_on_c, 0, 73, 52
1, 171840, Note_on_c, 0, 73, 0
1, 171840, Note_on_c, 0, 74, 43
1, 172080, Note_on_c, 0, 74, 0
1, 172080, Note_on_c, 0, 66, 51
1, 172560, Note_on_c, 0, 66, 0
1, 172560, Note_on_c, 0, 67, 37
1, 172800, Note_on_c, 0, 67, 0
1, 172800, Note_on_c, 0, 69, 48
1, 173280, Note_on_c, 0, 69, 0
1, 173280, Note_on_c, 0, 70, 39
1, 173520, Note_on_c, 0, 70, 0
1, 173520, Note_on_c, 0, 61, 35
1, 174000, Note_on_c, 0, 61, 0
1, 174000, Note_on_c, 0, 62, 26
1, 174240, Note_on_c, 0, 62, 0
1, 174240, Note_on_c, 0, 64, 39
1, 174720, Tempo, 437350
1, 174720, Note_on_c, 0, 64, 0
1, 174720, Note_on_c, 0, 65, 25
1, 174900, Note_on_c, 0, 65, 0
1, 174900, Note_on_c, 0, 36, 24
1, 174960, Tempo, 455615
1, 174960, Note_on_c, 0, 67, 34
1, 174960, Note_on_c, 0, 52, 31
1, 175440, Tempo, 501295
1, 175440, Note_on_c, 0, 52, 0
1, 175440, Note_on_c, 0, 67, 0
1, 175440, Note_on_c, 0, 68, 27
1, 175440, Note_on_c, 0, 50, 27
1, 175680, Tempo, 418468
1, 175680, Note_on_c, 0, 50, 0
1, 175680, Note_on_c, 0, 68, 0
1, 175680, Note_on_c, 0, 36, 0
1, 175680, Note_on_c, 0, 57, 30
1, 175680, Note_on_c, 0, 69, 37
1, 175680, Note_on_c, 0, 41, 21
1, 175680, Note_on_c, 0, 48, 25
1, 176040, Tempo, 396852
1, 176040, Note_on_c, 0, 69, 0
1, 176040, Note_on_c, 0, 67, 27
1, 176160, Note_on_c, 0, 67, 0
1, 176160, Note_on_c, 0, 65, 27
1, 176280, Tempo, 451875
1, 176280, Note_on_c, 0, 65, 0
1, 176280, Note_on_c, 0, 67, 27
1, 176400, Tempo, 418468
1, 176400, Note_on_c, 0, 67, 0
1, 176400, Note_on_c, 0, 48, 0
1, 176400, Note_on_c, 0, 57, 0
1, 176400, Note_on_c, 0, 58, 27
1, 176400, Note_on_c, 0, 69, 32
1, 176400, Note_on_c, 0, 50, 21
1, 176485, Control_c, 0, 64, 127
1, 176880, Note_on_c, 0, 69, 0
1, 176880, Note_on_c, 0, 65, 32
1, 177000, Tempo, 453789
1, 177120, Tempo, 420109
1, 177120, Note_on_c, 0, 65, 0
1, 177120, Note_on_c, 0, 50, 0
1, 177120, Note_on_c, 0, 58, 0
1, 177120, Note_on_c, 0, 60, 30
1, 177120, Note_on_c, 0, 69, 37
1, 177120, Note_on_c, 0, 52, 25
1, 177127, Control_c, 0, 64, 0
1, 177480, Tempo, 396852
1, 177480, Note_on_c, 0, 69, 0
1, 177480, Note_on_c, 0, 67, 28
1, 177600, Note_on_c, 0, 67, 0
1, 177600, Note_on_c, 0, 65, 28
1, 177720, Tempo, 455719
1, 177720, Note_on_c, 0, 65, 0
1, 177720, Note_on_c, 0, 67, 28
1, 177840, Tempo, 441501
1, 177840, Note_on_c, 0, 67, 0
1, 177840, Note_on_c, 0, 52, 0
1, 177840, Note_on_c, 0, 60, 0
1, 177840, Note_on_c, 0, 58, 27
1, 177840, Note_on_c, 0, 69, 32
1, 177840, Note_on_c, 0, 50, 21
1, 177928, Control_c, 0, 64, 127
1, 178440, Tempo, 451875
1, 178500, Note_on_c, 0, 50, 0
1, 178500, Note_on_c, 0, 69, 0
1, 178500, Note_on_c, 0, 58, 0
1, 178500, Note_on_c, 0, 41, 25
1, 178530, Note_on_c, 0, 48, 29
1, 178560, Tempo, 423400
1, 178560, Note_on_c, 0, 41, 0
1, 178560, Note_on_c, 0, 65, 36
1, 178560, Note_on_c, 0, 72, 45
1, 178560, Note_on_c, 0, 57, 30
1, 178560, Control_c, 0, 64, 0
1, 178684, Control_c, 0, 64, 127
1, 178920, Tempo, 396852
1, 178920, Note_on_c, 0, 72, 0
1, 178920, Note_on_c, 0, 74, 38
1, 179040, Note_on_c, 0, 74, 0
1, 179040, Note_on_c, 0, 76, 42
1, 179160, Note_on_c, 0, 76, 0
1, 179160, Note_on_c, 0, 74, 38
1, 179280, Tempo, 423400
1, 179280, Note_on_c, 0, 74, 0
1, 179280, Note_on_c, 0, 57, 0
1, 179280, Note_on_c, 0, 65, 0
1, 179280, Note_on_c, 0, 72, 47
1, 179280, Note_on_c, 0, 65, 38
1, 179280, Note_on_c, 0, 58, 30
1, 179297, Control_c, 0, 64, 0
1, 179358, Control_c, 0, 64, 127
1, 179760, Tempo, 480115
1, 179760, Note_on_c, 0, 65, 0
1, 179760, Note_on_c, 0, 72, 0
1, 179760, Note_on_c, 0, 64, 42
1, 179760, Note_on_c, 0, 68, 42
1, 179777, Control_c, 0, 64, 0
1, 179820, Control_c, 0, 64, 127
1, 179940, Note_on_c, 0, 41, 23
1, 179970, Note_on_c, 0, 48, 0
1, 179970, Note_on_c, 0, 48, 27
1, 180000, Tempo, 453789
1, 180000, Note_on_c, 0, 68, 0
1, 180000, Note_on_c, 0, 58, 0
1, 180000, Note_on_c, 0, 64, 0
1, 180000, Note_on_c, 0, 41, 0
1, 180000, Note_on_c, 0, 72, 48
1, 180000, Note_on_c, 0, 65, 40
1, 180000, Note_on_c, 0, 57, 32
1, 180015, Control_c, 0, 64, 0
1, 180147, Control_c, 0, 64, 127
1, 180720, Note_on_c, 0, 57, 0
1, 180720, Note_on_c, 0, 72, 0
1, 180720, Note_on_c, 0, 77, 48
1, 181170, Note_on_c, 0, 48, 0
1, 181174, Control_c, 0, 64, 0
1, 181200, Note_on_c, 0, 65, 0
1, 181200, Note_on_c, 0, 41, 0
1, 181200, Note_on_c, 0, 77, 0
1, 181440, Tempo, 418468
1, 181440, Note_on_c, 0, 60, 40
1, 181440, Note_on_c, 0, 72, 50
1, 181440, Note_on_c, 0, 45, 29
1, 181440, Note_on_c, 0, 52, 34
1, 181800, Tempo, 396852
1, 181800, Note_on_c, 0, 72, 0
1, 181800, Note_on_c, 0, 71, 37
1, 181920, Note_on_c, 0, 71, 0
1, 181920, Note_on_c, 0, 69, 37
1, 182040, Tempo, 451875
1, 182040, Note_on_c, 0, 69, 0
1, 182040, Note_on_c, 0, 71, 37
1, 182160, Tempo, 418468
1, 182160, Note_on_c, 0, 71, 0
1, 182160, Note_on_c, 0, 52, 0
1, 182160, Note_on_c, 0, 60, 0
1, 182160, Note_on_c, 0, 62, 36
1, 182160, Note_on_c, 0, 72, 43
1, 182160, Note_on_c, 0, 53, 29
1, 182245, Control_c, 0, 64, 127
1, 182640, Note_on_c, 0, 72, 0
1, 182640, Note_on_c, 0, 69, 43
1, 182760, Tempo, 453789
1, 182880, Tempo, 420109
1, 182880, Note_on_c, 0, 69, 0
1, 182880, Note_on_c, 0, 53, 0
1, 182880, Note_on_c, 0, 62, 0
1, 182880, Note_on_c, 0, 64, 40
1, 182880, Note_on_c, 0, 72, 50
1, 182880, Note_on_c, 0, 55, 34
1, 182887, Control_c, 0, 64, 0
1, 183240, Tempo, 396852
1, 183240, Note_on_c, 0, 72, 0
1, 183240, Note_on_c, 0, 71, 38
1, 183360, Note_on_c, 0, 71, 0
1, 183360, Note_on_c, 0, 69, 38
1, 183480, Tempo, 455719
1, 183480, Note_on_c, 0, 69, 0
1, 183480, Note_on_c, 0, 71, 38
1, 183600, Tempo, 444774
1, 183600, Note_on_c, 0, 71, 0
1, 183600, Note_on_c, 0, 55, 0
1, 183600, Note_on_c, 0, 64, 0
1, 183600, Note_on_c, 0, 62, 36
1, 183600, Note_on_c, 0, 72, 43
1, 183600, Note_on_c, 0, 53, 29
1, 183724, Control_c, 0, 64, 127
1, 184200, Tempo, 451875
1, 184260, Note_on_c, 0, 53, 0
1, 184260, Note_on_c, 0, 72, 0
1, 184260, Note_on_c, 0, 62, 0
1, 184260, Note_on_c, 0, 45, 25
1, 184290, Note_on_c, 0, 52, 29
1, 184320, Tempo, 423400
1, 184320, Note_on_c, 0, 45, 0
1, 184320, Note_on_c, 0, 69, 40
1, 184320, Note_on_c, 0, 76, 50
1, 184320, Note_on_c, 0, 60, 34
1, 184320, Control_c, 0, 64, 0
1, 184444, Control_c, 0, 64, 127
1, 184680, Tempo, 396852
1, 184680, Note_on_c, 0, 76, 0
1, 184680, Note_on_c, 0, 77, 42
1, 184800, Note_on_c, 0, 77, 0
1, 184800, Note_on_c, 0, 79, 46
1, 184920, Note_on_c, 0, 79, 0
1, 184920, Note_on_c, 0, 77, 42
1, 185040, Tempo, 423400
1, 185040, Note_on_c, 0, 77, 0
1, 185040, Note_on_c, 0, 60, 0
1, 185040, Note_on_c, 0, 69, 0
1, 185040, Note_on_c, 0, 76, 51
1, 185040, Note_on_c, 0, 69, 41
1, 185040, Note_on_c, 0, 62, 33
1, 185057, Control_c, 0, 64, 0
1, 185118, Control_c, 0, 64, 127
1, 185520, Tempo, 480115
1, 185520, Note_on_c, 0, 69, 0
1, 185520, Note_on_c, 0, 76, 0
1, 185520, Note_on_c, 0, 68, 45
1, 185520, Note_on_c, 0, 72, 45
1, 185537, Control_c, 0, 64, 0
1, 185580, Control_c, 0, 64, 127
1, 185700, Note_on_c, 0, 45, 25
1, 185730, Note_on_c, 0, 52, 0
1, 185730, Note_on_c, 0, 52, 29
1, 185760, Tempo, 440755
1, 185760, Note_on_c, 0, 72, 0
1, 185760, Note_on_c, 0, 62, 0
1, 185760, Note_on_c, 0, 68, 0
1, 185760, Note_on_c, 0, 45, 0
1, 185760, Note_on_c, 0, 76, 51
1, 185760, Note_on_c, 0, 69, 42
1, 185760, Note_on_c, 0, 60, 34
1, 185775, Control_c, 0, 64, 0
1, 185907, Control_c, 0, 64, 127
1, 186480, Note_on_c, 0, 76, 0
1, 186480, Note_on_c, 0, 81, 53
1, 186720, Tempo, 428480
1, 186720, Note_on_c, 0, 69, 0
1, 186720, Note_on_c, 0, 68, 57
1, 186728, Control_c, 0, 64, 0
1, 186960, Tempo, 446263
1, 186960, Note_on_c, 0, 68, 0
1, 186960, Note_on_c, 0, 67, 61
1, 187170, Note_on_c, 0, 52, 0
1, 187200, Tempo, 423400
1, 187200, Note_on_c, 0, 60, 0
1, 187200, Note_on_c, 0, 45, 0
1, 187200, Note_on_c, 0, 67, 0
1, 187200, Note_on_c, 0, 66, 70
1, 187200, Note_on_c, 0, 50, 29
1, 187200, Note_on_c, 0, 60, 34
1, 187257, Control_c, 0, 64, 127
1, 187680, Note_on_c, 0, 81, 0
1, 187680, Note_on_c, 0, 78, 53
1, 187920, Tempo, 410481
1, 187920, Note_on_c, 0, 78, 0
1, 187920, Note_on_c, 0, 74, 53
1, 187941, Control_c, 0, 64, 0
1, 188160, Note_on_c, 0, 74, 0
1, 188160, Note_on_c, 0, 75, 53
1, 188400, Tempo, 442576
1, 188400, Note_on_c, 0, 75, 0
1, 188400, Note_on_c, 0, 76, 53
1, 188580, Note_on_c, 0, 60, 0
1, 188580, Note_on_c, 0, 50, 0
1, 188580, Note_on_c, 0, 43, 34
1, 188610, Note_on_c, 0, 50, 34
1, 188640, Tempo, 418468
1, 188640, Note_on_c, 0, 66, 0
1, 188640, Note_on_c, 0, 76, 0
1, 188640, Note_on_c, 0, 65, 44
1, 188640, Note_on_c, 0, 77, 53
1, 188640, Note_on_c, 0, 59, 34
1, 188760, Control_c, 0, 64, 127
1, 189120, Tempo, 431903
1, 189120, Note_on_c, 0, 77, 0
1, 189120, Note_on_c, 0, 74, 50
1, 189360, Tempo, 440755
1, 189360, Note_on_c, 0, 74, 0
1, 189360, Note_on_c, 0, 71, 47
1, 189780, Note_on_c, 0, 50, 0
1, 189840, Note_on_c, 0, 59, 0
1, 189840, Note_on_c, 0, 43, 0
1, 189840, Note_on_c, 0, 65, 0
1, 189840, Note_on_c, 0, 71, 0
1, 189854, Control_c, 0, 64, 0
1, 190080, Tempo, 423400
1, 190080, Note_on_c, 0, 66, 64
1, 190080, Note_on_c, 0, 50, 29
1, 190080, Note_on_c, 0, 60, 34
1, 190137, Control_c, 0, 64, 127
1, 190320, Note_on_c, 0, 81, 53
1, 190560, Note_on_c, 0, 81, 0
1, 190560, Note_on_c, 0, 78, 47
1, 190800, Tempo, 410481
1, 190800, Note_on_c, 0, 78, 0
1, 190800, Note_on_c, 0, 74, 49
1, 190821, Control_c, 0, 64, 0
1, 191040, Note_on_c, 0, 74, 0
1, 191040, Note_on_c, 0, 75, 53
1, 191280, Tempo, 442576
1, 191280, Note_on_c, 0, 75, 0
1, 191280, Note_on_c, 0, 76, 54
1, 191460, Note_on_c, 0, 60, 0
1, 191460, Note_on_c, 0, 50, 0
1, 191460, Note_on_c, 0, 43, 38
1, 191490, Note_on_c, 0, 50, 40
1, 191520, Tempo, 418468
1, 191520, Note_on_c, 0, 66, 0
1, 191520, Note_on_c, 0, 65, 44
1, 191520, Note_on_c, 0, 59, 43
1, 191640, Control_c, 0, 64, 127
1, 191760, Note_on_c, 0, 76, 0
1, 191760, Note_on_c, 0, 77, 62
1, 192000, Tempo, 431903
1, 192000, Note_on_c, 0, 77, 0
1, 192000, Note_on_c, 0, 74, 53
1, 192240, Tempo, 440755
1, 192240, Note_on_c, 0, 74, 0
1, 192240, Note_on_c, 0, 71, 56
1, 192247, Control_c, 0, 64, 0
1, 192870, Note_on_c, 0, 71, 0
1, 192870, Note_on_c, 0, 59, 0
1, 192870, Note_on_c, 0, 50, 0
1, 192870, Note_on_c, 0, 43, 0
1, 192870, Note_on_c, 0, 65, 0
1, 192870, Note_on_c, 0, 55, 38
1, 192900, Note_on_c, 0, 62, 40
1, 192930, Note_on_c, 0, 65, 44
1, 192960, Tempo, 423400
1, 192960, Note_on_c, 0, 74, 57
1, 192960, Note_on_c, 0, 86, 80
1, 192960, Note_on_c, 0, 70, 57
1, 193017, Control_c, 0, 64, 127
1, 193440, Note_on_c, 0, 86, 0
1, 193440, Note_on_c, 0, 82, 62
1, 193680, Tempo, 410481
1, 193680, Note_on_c, 0, 82, 0
1, 193680, Note_on_c, 0, 78, 53
1, 193701, Control_c, 0, 64, 0
1, 193920, Note_on_c, 0, 78, 0
1, 193920, Note_on_c, 0, 79, 60
1, 194160, Tempo, 442576
1, 194160, Note_on_c, 0, 79, 0
1, 194160, Note_on_c, 0, 81, 63
1, 194310, Note_on_c, 0, 70, 0
1, 194310, Note_on_c, 0, 65, 0
1, 194310, Note_on_c, 0, 55, 0
1, 194310, Note_on_c, 0, 62, 0
1, 194310, Note_on_c, 0, 48, 40
1, 194340, Note_on_c, 0, 55, 41
1, 194370, Note_on_c, 0, 58, 42
1, 194400, Tempo, 418468
1, 194400, Note_on_c, 0, 74, 0
1, 194400, Note_on_c, 0, 81, 0
1, 194400, Note_on_c, 0, 82, 71
1, 194400, Note_on_c, 0, 70, 60
1, 194400, Note_on_c, 0, 64, 57
1, 194520, Control_c, 0, 64, 127
1, 194880, Tempo, 431903
1, 194880, Note_on_c, 0, 82, 0
1, 194880, Note_on_c, 0, 79, 55
1, 195120, Tempo, 440755
1, 195120, Note_on_c, 0, 79, 0
1, 195120, Note_on_c, 0, 76, 50
1, 195650, Note_on_c, 0, 55, 0
1, 195750, Tempo, 440755
1, 195750, Note_on_c, 0, 48, 0
1, 195750, Note_on_c, 0, 58, 0
1, 195750, Note_on_c, 0, 64, 0
1, 195750, Note_on_c, 0, 55, 38
1, 195763, Control_c, 0, 64, 0
1, 195780, Note_on_c, 0, 62, 40
1, 195810, Note_on_c, 0, 65, 44
1, 195840, Tempo, 423400
1, 195840, Note_on_c, 0, 76, 0
1, 195840, Note_on_c, 0, 70, 0
1, 195840, Note_on_c, 0, 74, 68
1, 195840, Note_on_c, 0, 70, 57
1, 195893, Control_c, 0, 64, 127
1, 196080, Note_on_c, 0, 86, 70
1, 196320, Note_on_c, 0, 86, 0
1, 196320, Note_on_c, 0, 82, 62
1, 196560, Tempo, 410481
1, 196560, Note_on_c, 0, 82, 0
1, 196560, Note_on_c, 0, 78, 53
1, 196578, Control_c, 0, 64, 0
1, 196800, Note_on_c, 0, 78, 0
1, 196800, Note_on_c, 0, 79, 60
1, 197040, Tempo, 442576
1, 197040, Note_on_c, 0, 79, 0
1, 197040, Note_on_c, 0, 81, 63
1, 197190, Note_on_c, 0, 70, 0
1, 197190, Note_on_c, 0, 62, 0
1, 197190, Note_on_c, 0, 65, 0
1, 197190, Note_on_c, 0, 55, 0
1, 197190, Note_on_c, 0, 48, 40
1, 197220, Note_on_c, 0, 55, 41
1, 197250, Note_on_c, 0, 58, 42
1, 197280, Tempo, 418468
1, 197280, Note_on_c, 0, 74, 0
1, 197280, Note_on_c, 0, 70, 59
1, 197280, Note_on_c, 0, 64, 57
1, 197354, Control_c, 0, 64, 127
1, 197520, Note_on_c, 0, 81, 0
1, 197520, Note_on_c, 0, 82, 62
1, 197760, Tempo, 431903
1, 197760, Note_on_c, 0, 82, 0
1, 197760, Note_on_c, 0, 79, 57
1, 198000, Tempo, 440755
1, 198000, Note_on_c, 0, 79, 0
1, 198000, Note_on_c, 0, 73, 56
1, 198007, Control_c, 0, 64, 0
1, 198240, Note_on_c, 0, 73, 0
1, 198240, Note_on_c, 0, 74, 58
1, 198480, Note_on_c, 0, 74, 0
1, 198480, Note_on_c, 0, 76, 63
1, 198530, Note_on_c, 0, 55, 0
1, 198621, Control_c, 0, 64, 0
1, 198630, Note_on_c, 0, 48, 0
1, 198630, Note_on_c, 0, 58, 0
1, 198630, Note_on_c, 0, 64, 0
1, 198630, Note_on_c, 0, 46, 40
1, 198660, Note_on_c, 0, 55, 43
1, 198690, Note_on_c, 0, 62, 46
1, 198720, Tempo, 422089
1, 198720, Note_on_c, 0, 70, 0
1, 198720, Note_on_c, 0, 65, 48
1, 198960, Note_on_c, 0, 76, 0
1, 198960, Note_on_c, 0, 77, 58
1, 199200, Note_on_c, 0, 77, 0
1, 199200, Note_on_c, 0, 74, 53
1, 199440, Note_on_c, 0, 74, 0
1, 199440, Note_on_c, 0, 66, 47
1, 199680, Note_on_c, 0, 66, 0
1, 199680, Note_on_c, 0, 67, 43
1, 199920, Tempo, 444774
1, 199920, Note_on_c, 0, 67, 0
1, 199920, Note_on_c, 0, 69, 44
1, 200160, Tempo, 420433
1, 200160, Note_on_c, 0, 69, 0
1, 200160, Note_on_c, 0, 70, 46
1, 200400, Note_on_c, 0, 70, 0
1, 200400, Note_on_c, 0, 73, 42
1, 200640, Tempo, 437541
1, 200640, Note_on_c, 0, 73, 0
1, 200640, Note_on_c, 0, 65, 0
1, 200640, Note_on_c, 0, 55, 0
1, 200640, Note_on_c, 0, 46, 0
1, 200640, Note_on_c, 0, 62, 0
1, 200640, Note_on_c, 0, 74, 39
1, 200880, Tempo, 448498
1, 200880, Note_on_c, 0, 74, 0
1, 200880, Note_on_c, 0, 78, 31
1, 201120, Note_on_c, 0, 78, 0
1, 201120, Note_on_c, 0, 70, 25
1, 201120, Note_on_c, 0, 74, 25
1, 201120, Note_on_c, 0, 79, 32
1, 201148, Tempo, 456100
1, 201180, Note_on_c, 0, 79, 0
1, 201180, Note_on_c, 0, 74, 0
1, 201180, Note_on_c, 0, 70, 0
1, 201206, Tempo, 458050
1, 201264, Tempo, 459982
1, 201321, Tempo, 461965
1, 201360, Note_on_c, 0, 74, 26
1, 201360, Note_on_c, 0, 79, 26
1, 201360, Note_on_c, 0, 82, 33
1, 201379, Tempo, 463965
1, 201420, Note_on_c, 0, 82, 0
1, 201420, Note_on_c, 0, 79, 0
1, 201420, Note_on_c, 0, 74, 0
1, 201436, Tempo, 465983
1, 201494, Tempo, 467982
1, 201552, Tempo, 470035
1, 201600, Note_on_c, 0, 86, 40
1, 201600, Note_on_c, 0, 82, 32
1, 201600, Note_on_c, 0, 79, 32
1, 201609, Tempo, 472106
1, 201660, Note_on_c, 0, 79, 0
1, 201660, Note_on_c, 0, 82, 0
1, 201660, Note_on_c, 0, 86, 0
1, 203040, Tempo, 422089
1, 203040, Note_on_c, 0, 58, 36
1, 203040, Note_on_c, 0, 64, 36
1, 203040, Note_on_c, 0, 69, 40
1, 203040, Note_on_c, 0, 49, 44
1, 204240, Tempo, 452250
1, 204240, Note_on_c, 0, 49, 0
1, 204240, Note_on_c, 0, 48, 32
1, 204480, Tempo, 420109
1, 204480, Note_on_c, 0, 48, 0
1, 204480, Note_on_c, 0, 69, 0
1, 204480, Note_on_c, 0, 64, 0
1, 204480, Note_on_c, 0, 58, 0
1, 204480, Note_on_c, 0, 57, 32
1, 204480, Note_on_c, 0, 65, 40
1, 204480, Note_on_c, 0, 41, 21
1, 204480, Note_on_c, 0, 48, 27
1, 204583, Control_c, 0, 64, 127
1, 204840, Tempo, 396852
1, 204840, Note_on_c, 0, 65, 0
1, 204840, Note_on_c, 0, 64, 30
1, 204960, Note_on_c, 0, 64, 0
1, 204960, Note_on_c, 0, 65, 30
1, 205080, Tempo, 455719
1, 205080, Note_on_c, 0, 65, 0
1, 205080, Note_on_c, 0, 67, 30
1, 205200, Tempo, 444774
1, 205200, Note_on_c, 0, 67, 0
1, 205200, Note_on_c, 0, 48, 0
1, 205200, Note_on_c, 0, 41, 0
1, 205200, Note_on_c, 0, 57, 0
1, 205200, Note_on_c, 0, 58, 30
1, 205200, Note_on_c, 0, 64, 38
1, 205200, Note_on_c, 0, 69, 34
1, 205200, Note_on_c, 0, 49, 38
1, 205200, Note_on_c, 0, 61, 30
1, 205217, Control_c, 0, 64, 0
1, 205292, Control_c, 0, 64, 127
1, 205800, Tempo, 451875
1, 205920, Tempo, 420109
1, 205920, Note_on_c, 0, 61, 0
1, 205920, Note_on_c, 0, 69, 0
1, 205920, Note_on_c, 0, 58, 0
1, 205920, Note_on_c, 0, 64, 0
1, 205920, Note_on_c, 0, 49, 0
1, 205920, Note_on_c, 0, 65, 40
1, 205920, Note_on_c, 0, 41, 21
1, 205920, Note_on_c, 0, 57, 32
1, 205920, Note_on_c, 0, 48, 27
1, 205926, Control_c, 0, 64, 0
1, 206023, Control_c, 0, 64, 127
1, 206280, Tempo, 396852
1, 206280, Note_on_c, 0, 65, 0
1, 206280, Note_on_c, 0, 64, 30
1, 206400, Note_on_c, 0, 64, 0
1, 206400, Note_on_c, 0, 65, 30
1, 206520, Tempo, 455719
1, 206520, Note_on_c, 0, 65, 0
1, 206520, Note_on_c, 0, 67, 30
1, 206640, Tempo, 443131
1, 206640, Note_on_c, 0, 67, 0
1, 206640, Note_on_c, 0, 48, 0
1, 206640, Note_on_c, 0, 57, 0
1, 206640, Note_on_c, 0, 41, 0
1, 206640, Note_on_c, 0, 64, 38
1, 206640, Note_on_c, 0, 58, 30
1, 206640, Note_on_c, 0, 69, 34
1, 206640, Note_on_c, 0, 49, 38
1, 206640, Note_on_c, 0, 61, 30
1, 206657, Control_c, 0, 64, 0
1, 206732, Control_c, 0, 64, 127
1, 206880, Tempo, 453172
1, 207240, Tempo, 486224
1, 207360, Tempo, 456621
1, 207360, Note_on_c, 0, 61, 0
1, 207360, Note_on_c, 0, 69, 0
1, 207360, Note_on_c, 0, 64, 0
1, 207360, Note_on_c, 0, 58, 0
1, 207360, Note_on_c, 0, 49, 0
1, 207360, Note_on_c, 0, 57, 24
1, 207360, Note_on_c, 0, 41, 22
1, 207360, Note_on_c, 0, 48, 26
1, 207360, Control_c, 0, 64, 0
1, 207370, Note_on_c, 0, 65, 29
1, 207600, Note_on_c, 0, 48, 0
1, 207600, Note_on_c, 0, 57, 0
1, 207600, Note_on_c, 0, 41, 0
1, 207610, Note_on_c, 0, 65, 0
1, 207614, Control_c, 0, 64, 127
1, 208080, Tempo, 524476
1, 208080, Note_on_c, 0, 69, 19
1, 208080, Note_on_c, 0, 77, 24
1, 208080, Note_on_c, 0, 53, 19
1, 208080, Note_on_c, 0, 60, 23
1, 208320, Note_on_c, 0, 60, 0
1, 208320, Note_on_c, 0, 53, 0
1, 208320, Note_on_c, 0, 77, 0
1, 208325, Note_on_c, 0, 69, 0
1, 208800, Tempo, 543478
1, 208800, Note_on_c, 0, 89, 25
1, 208800, Note_on_c, 0, 81, 20
1, 208800, Note_on_c, 0, 65, 20
1, 208800, Note_on_c, 0, 72, 25
1, 209787, Control_c, 0, 64, 0
1, 210000, Note_on_c, 0, 72, 0
1, 210000, Note_on_c, 0, 89, 0
1, 210000, Note_on_c, 0, 81, 0
1, 210000, Note_on_c, 0, 65, 0
1, 210000, End_track
0, 0, End_of_file
