0, 0, Header, 0, 1, 480
1, 0, Start_track
1, 0, Title_t, "Lyric Pieces Op. 12 No. 12 Valse"
1, 0, Copyright_t, "Copyright © 2007 by Bernd Krueger"
1, 0, Text_t, "Edvard Grieg"
1, 0, Text_t, "Allegro moderato"
1, 0, Text_t, "Erstellt: 5.5.2007\012"
1, 0, Text_t, "Update: 27.10.2012\012"
1, 0, Text_t, "Dauer: 1:48 Minuten\012"
1, 0, Time_signature, 3, 2, 24, 8
1, 0, Key_signature, 0, "major"
1, 0, Tempo, 428571
1, 0, Program_c, 0, 0
1, 0, Control_c, 0, 7, 101
1, 0, Program_c, 0, 0
1, 0, Note_on_c, 0, 45, 36
1, 0, Program_c, 0, 0
1, 0, Control_c, 0, 64, 127
1, 480, Tempo, 422535
1, 480, Note_on_c, 0, 45, 0
1, 480, Note_on_c, 0, 60, 28
1, 480, Note_on_c, 0, 52, 24
1, 960, Tempo, 433213
1, 960, Note_on_c, 0, 52, 0
1, 960, Note_on_c, 0, 60, 0
1, 960, Note_on_c, 0, 52, 24
1, 960, Note_on_c, 0, 60, 29
1, 1440, Tempo, 428571
1, 1440, Note_on_c, 0, 60, 0
1, 1440, Note_on_c, 0, 52, 0
1, 1440, Note_on_c, 0, 45, 36
1, 1920, Tempo, 419287
1, 1920, Note_on_c, 0, 45, 0
1, 1920, Note_on_c, 0, 52, 24
1, 1920, Note_on_c, 0, 60, 28
1, 2400, Tempo, 425230
1, 2400, Note_on_c, 0, 60, 0
1, 2400, Note_on_c, 0, 52, 0
1, 2400, Note_on_c, 0, 60, 29
1, 2400, Note_on_c, 0, 52, 24
1, 2880, Tempo, 432900
1, 2880, Note_on_c, 0, 52, 0
1, 2880, Note_on_c, 0, 60, 0
1, 2880, Note_on_c, 0, 64, 50
1, 2880, Note_on_c, 0, 45, 36
1, 2880, Control_c, 0, 64, 0
1, 2983, Control_c, 0, 64, 127
1, 3360, Tempo, 412371
1, 3360, Note_on_c, 0, 45, 0
1, 3360, Note_on_c, 0, 64, 0
1, 3360, Note_on_c, 0, 66, 49
1, 3360, Note_on_c, 0, 52, 24
1, 3360, Note_on_c, 0, 60, 29
1, 3480, Note_on_c, 0, 66, 0
1, 3526, Control_c, 0, 64, 0
1, 3600, Note_on_c, 0, 68, 49
1, 3660, Note_on_c, 0, 68, 0
1, 3840, Tempo, 420757
1, 3840, Note_on_c, 0, 60, 0
1, 3840, Note_on_c, 0, 52, 0
1, 3840, Note_on_c, 0, 69, 53
1, 3840, Note_on_c, 0, 60, 29
1, 3840, Note_on_c, 0, 52, 24
1, 4080, Note_on_c, 0, 69, 0
1, 4320, Tempo, 426743
1, 4320, Note_on_c, 0, 52, 0
1, 4320, Note_on_c, 0, 60, 0
1, 4320, Note_on_c, 0, 69, 56
1, 4320, Note_on_c, 0, 45, 36
1, 4384, Control_c, 0, 64, 127
1, 4800, Tempo, 403769
1, 4800, Note_on_c, 0, 45, 0
1, 4800, Note_on_c, 0, 69, 0
1, 4800, Note_on_c, 0, 71, 58
1, 4800, Note_on_c, 0, 62, 28
1, 4800, Note_on_c, 0, 52, 24
1, 4920, Note_on_c, 0, 71, 0
1, 4932, Control_c, 0, 64, 0
1, 5040, Note_on_c, 0, 68, 50
1, 5100, Note_on_c, 0, 68, 0
1, 5280, Tempo, 430108
1, 5280, Note_on_c, 0, 52, 0
1, 5280, Note_on_c, 0, 62, 0
1, 5280, Note_on_c, 0, 66, 48
1, 5280, Note_on_c, 0, 62, 29
1, 5280, Note_on_c, 0, 52, 24
1, 5400, Note_on_c, 0, 66, 0
1, 5700, Note_on_c, 0, 69, 39
1, 5760, Tempo, 437956
1, 5760, Note_on_c, 0, 69, 0
1, 5760, Note_on_c, 0, 52, 0
1, 5760, Note_on_c, 0, 62, 0
1, 5760, Note_on_c, 0, 66, 50
1, 5760, Note_on_c, 0, 45, 36
1, 5880, Note_on_c, 0, 66, 0
1, 6240, Tempo, 421053
1, 6240, Note_on_c, 0, 45, 0
1, 6240, Note_on_c, 0, 64, 47
1, 6240, Note_on_c, 0, 60, 26
1, 6240, Note_on_c, 0, 52, 21
1, 6332, Control_c, 0, 64, 127
1, 6720, Tempo, 430108
1, 6720, Note_on_c, 0, 52, 0
1, 6720, Note_on_c, 0, 60, 0
1, 6720, Note_on_c, 0, 60, 26
1, 6720, Note_on_c, 0, 52, 21
1, 7200, Tempo, 428571
1, 7200, Note_on_c, 0, 52, 0
1, 7200, Note_on_c, 0, 60, 0
1, 7200, Note_on_c, 0, 45, 36
1, 7680, Tempo, 413508
1, 7680, Note_on_c, 0, 45, 0
1, 7680, Note_on_c, 0, 64, 0
1, 7680, Note_on_c, 0, 52, 21
1, 7680, Note_on_c, 0, 60, 25
1, 8160, Tempo, 433213
1, 8160, Note_on_c, 0, 60, 0
1, 8160, Note_on_c, 0, 52, 0
1, 8160, Note_on_c, 0, 60, 26
1, 8160, Note_on_c, 0, 52, 21
1, 8640, Tempo, 417827
1, 8640, Note_on_c, 0, 52, 0
1, 8640, Note_on_c, 0, 60, 0
1, 8640, Note_on_c, 0, 45, 36
1, 8640, Control_c, 0, 64, 0
1, 8743, Control_c, 0, 64, 127
1, 8880, Tempo, 418118
1, 8880, Note_on_c, 0, 64, 43
1, 9000, Note_on_c, 0, 64, 0
1, 9120, Tempo, 412371
1, 9120, Note_on_c, 0, 45, 0
1, 9120, Note_on_c, 0, 66, 46
1, 9120, Note_on_c, 0, 60, 29
1, 9120, Note_on_c, 0, 52, 24
1, 9180, Note_on_c, 0, 66, 0
1, 9240, Control_c, 0, 64, 0
1, 9360, Note_on_c, 0, 68, 49
1, 9420, Note_on_c, 0, 68, 0
1, 9600, Tempo, 427046
1, 9600, Note_on_c, 0, 52, 0
1, 9600, Note_on_c, 0, 60, 0
1, 9600, Note_on_c, 0, 68, 54
1, 9600, Note_on_c, 0, 52, 24
1, 9600, Note_on_c, 0, 60, 29
1, 9840, Note_on_c, 0, 68, 0
1, 9840, Note_on_c, 0, 69, 51
1, 10080, Tempo, 405132
1, 10080, Note_on_c, 0, 69, 0
1, 10080, Note_on_c, 0, 60, 0
1, 10080, Note_on_c, 0, 52, 0
1, 10080, Note_on_c, 0, 45, 36
1, 10144, Control_c, 0, 64, 127
1, 10320, Tempo, 413793
1, 10320, Note_on_c, 0, 69, 51
1, 10380, Note_on_c, 0, 69, 0
1, 10560, Tempo, 408163
1, 10560, Note_on_c, 0, 45, 0
1, 10560, Note_on_c, 0, 71, 56
1, 10560, Note_on_c, 0, 52, 24
1, 10560, Note_on_c, 0, 62, 28
1, 10620, Tempo, 401070
1, 10620, Note_on_c, 0, 71, 0
1, 10677, Control_c, 0, 64, 0
1, 10800, Note_on_c, 0, 68, 50
1, 10860, Note_on_c, 0, 68, 0
1, 11040, Tempo, 430108
1, 11040, Note_on_c, 0, 62, 0
1, 11040, Note_on_c, 0, 52, 0
1, 11040, Note_on_c, 0, 68, 48
1, 11040, Note_on_c, 0, 62, 29
1, 11040, Note_on_c, 0, 52, 24
1, 11280, Note_on_c, 0, 68, 0
1, 11280, Note_on_c, 0, 66, 50
1, 11400, Note_on_c, 0, 66, 0
1, 11460, Note_on_c, 0, 69, 39
1, 11520, Tempo, 437956
1, 11520, Note_on_c, 0, 69, 0
1, 11520, Note_on_c, 0, 52, 0
1, 11520, Note_on_c, 0, 62, 0
1, 11520, Note_on_c, 0, 66, 50
1, 11520, Note_on_c, 0, 45, 36
1, 11640, Note_on_c, 0, 66, 0
1, 12000, Tempo, 417827
1, 12000, Note_on_c, 0, 45, 0
1, 12000, Note_on_c, 0, 64, 47
1, 12000, Note_on_c, 0, 60, 26
1, 12000, Note_on_c, 0, 52, 21
1, 12217, Control_c, 0, 64, 127
1, 12480, Tempo, 430108
1, 12480, Note_on_c, 0, 52, 0
1, 12480, Note_on_c, 0, 60, 0
1, 12480, Note_on_c, 0, 60, 26
1, 12480, Note_on_c, 0, 52, 21
1, 12960, Tempo, 428571
1, 12960, Note_on_c, 0, 52, 0
1, 12960, Note_on_c, 0, 60, 0
1, 12960, Note_on_c, 0, 45, 36
1, 13440, Tempo, 412088
1, 13440, Note_on_c, 0, 45, 0
1, 13440, Note_on_c, 0, 64, 0
1, 13440, Note_on_c, 0, 60, 25
1, 13440, Note_on_c, 0, 52, 21
1, 13920, Note_on_c, 0, 52, 0
1, 13920, Note_on_c, 0, 60, 0
1, 13920, Note_on_c, 0, 52, 21
1, 13920, Note_on_c, 0, 60, 26
1, 13980, Tempo, 419287
1, 14160, Tempo, 434468
1, 14347, Control_c, 0, 64, 0
1, 14400, Tempo, 430108
1, 14400, Note_on_c, 0, 60, 0
1, 14400, Note_on_c, 0, 52, 0
1, 14400, Note_on_c, 0, 67, 37
1, 14400, Note_on_c, 0, 76, 44
1, 14400, Note_on_c, 0, 60, 28
1, 14400, Note_on_c, 0, 64, 33
1, 14641, Note_on_c, 0, 64, 0
1, 14641, Note_on_c, 0, 67, 0
1, 14641, Note_on_c, 0, 76, 0
1, 14641, Note_on_c, 0, 60, 0
1, 14880, Tempo, 424028
1, 14880, Note_on_c, 0, 76, 48
1, 14880, Note_on_c, 0, 68, 40
1, 14880, Note_on_c, 0, 65, 36
1, 14880, Note_on_c, 0, 60, 30
1, 15121, Note_on_c, 0, 60, 0
1, 15121, Note_on_c, 0, 76, 0
1, 15121, Note_on_c, 0, 68, 0
1, 15121, Note_on_c, 0, 65, 0
1, 15360, Tempo, 421053
1, 15360, Note_on_c, 0, 69, 44
1, 15360, Note_on_c, 0, 76, 52
1, 15360, Note_on_c, 0, 60, 33
1, 15360, Note_on_c, 0, 66, 39
1, 15601, Note_on_c, 0, 66, 0
1, 15601, Note_on_c, 0, 69, 0
1, 15601, Note_on_c, 0, 76, 0
1, 15601, Note_on_c, 0, 60, 0
1, 15840, Tempo, 415225
1, 15840, Note_on_c, 0, 71, 45
1, 15840, Note_on_c, 0, 76, 54
1, 15840, Note_on_c, 0, 62, 38
1, 15840, Note_on_c, 0, 67, 45
1, 15840, Note_on_c, 0, 55, 38
1, 15967, Control_c, 0, 64, 127
1, 16000, Note_on_c, 0, 76, 0
1, 16000, Note_on_c, 0, 74, 44
1, 16160, Note_on_c, 0, 74, 0
1, 16160, Note_on_c, 0, 72, 44
1, 16320, Tempo, 416667
1, 16320, Note_on_c, 0, 72, 0
1, 16320, Note_on_c, 0, 74, 48
1, 16333, Control_c, 0, 64, 0
1, 16546, Control_c, 0, 64, 127
1, 16800, Tempo, 446097
1, 17280, Tempo, 428571
1, 17280, Note_on_c, 0, 74, 0
1, 17280, Note_on_c, 0, 55, 0
1, 17280, Note_on_c, 0, 71, 0
1, 17280, Note_on_c, 0, 62, 0
1, 17280, Note_on_c, 0, 67, 0
1, 17280, Note_on_c, 0, 72, 44
1, 17280, Note_on_c, 0, 64, 37
1, 17280, Note_on_c, 0, 60, 33
1, 17280, Note_on_c, 0, 57, 28
1, 17287, Control_c, 0, 64, 0
1, 17522, Note_on_c, 0, 57, 0
1, 17522, Note_on_c, 0, 72, 0
1, 17522, Note_on_c, 0, 64, 0
1, 17522, Note_on_c, 0, 60, 0
1, 17760, Tempo, 424028
1, 17760, Note_on_c, 0, 72, 48
1, 17760, Note_on_c, 0, 65, 40
1, 17760, Note_on_c, 0, 57, 30
1, 17760, Note_on_c, 0, 62, 36
1, 18002, Note_on_c, 0, 62, 0
1, 18002, Note_on_c, 0, 72, 0
1, 18002, Note_on_c, 0, 65, 0
1, 18002, Note_on_c, 0, 57, 0
1, 18240, Tempo, 421053
1, 18240, Note_on_c, 0, 66, 44
1, 18240, Note_on_c, 0, 72, 52
1, 18240, Note_on_c, 0, 63, 39
1, 18240, Note_on_c, 0, 57, 33
1, 18482, Note_on_c, 0, 57, 0
1, 18482, Note_on_c, 0, 66, 0
1, 18482, Note_on_c, 0, 72, 0
1, 18482, Note_on_c, 0, 63, 0
1, 18720, Tempo, 415225
1, 18720, Note_on_c, 0, 67, 45
1, 18720, Note_on_c, 0, 72, 54
1, 18720, Note_on_c, 0, 59, 38
1, 18720, Note_on_c, 0, 64, 45
1, 18720, Note_on_c, 0, 52, 38
1, 18819, Control_c, 0, 64, 127
1, 18880, Note_on_c, 0, 72, 0
1, 18880, Note_on_c, 0, 71, 44
1, 19040, Note_on_c, 0, 71, 0
1, 19040, Note_on_c, 0, 69, 44
1, 19200, Tempo, 416667
1, 19200, Note_on_c, 0, 69, 0
1, 19200, Note_on_c, 0, 71, 48
1, 19213, Control_c, 0, 64, 0
1, 19426, Control_c, 0, 64, 127
1, 19680, Tempo, 447761
1, 20160, Tempo, 409556
1, 20160, Note_on_c, 0, 71, 0
1, 20160, Note_on_c, 0, 52, 0
1, 20160, Note_on_c, 0, 67, 0
1, 20160, Note_on_c, 0, 59, 0
1, 20160, Note_on_c, 0, 64, 0
1, 20160, Note_on_c, 0, 65, 45
1, 20160, Note_on_c, 0, 71, 54
1, 20160, Note_on_c, 0, 60, 45
1, 20160, Note_on_c, 0, 53, 38
1, 20160, Control_c, 0, 64, 0
1, 20224, Control_c, 0, 64, 127
1, 20320, Note_on_c, 0, 71, 0
1, 20320, Note_on_c, 0, 69, 44
1, 20480, Note_on_c, 0, 69, 0
1, 20480, Note_on_c, 0, 67, 44
1, 20640, Tempo, 416667
1, 20640, Note_on_c, 0, 67, 0
1, 20640, Note_on_c, 0, 69, 48
1, 20653, Control_c, 0, 64, 0
1, 20866, Control_c, 0, 64, 127
1, 21600, Tempo, 409556
1, 21600, Note_on_c, 0, 69, 0
1, 21600, Note_on_c, 0, 53, 0
1, 21600, Note_on_c, 0, 60, 0
1, 21600, Note_on_c, 0, 65, 0
1, 21600, Note_on_c, 0, 65, 59
1, 21600, Note_on_c, 0, 67, 43
1, 21600, Note_on_c, 0, 55, 41
1, 21600, Note_on_c, 0, 60, 49
1, 21600, Control_c, 0, 64, 0
1, 21607, Note_on_c, 0, 48, 41
1, 21664, Control_c, 0, 64, 127
1, 21760, Note_on_c, 0, 65, 0
1, 21763, Note_on_c, 0, 64, 48
1, 21918, Note_on_c, 0, 62, 48
1, 21923, Note_on_c, 0, 64, 0
1, 22078, Note_on_c, 0, 62, 0
1, 22080, Tempo, 416667
1, 22080, Note_on_c, 0, 64, 52
1, 22093, Control_c, 0, 64, 0
1, 22306, Control_c, 0, 64, 127
1, 23040, Tempo, 441176
1, 23040, Note_on_c, 0, 64, 0
1, 23040, Note_on_c, 0, 60, 0
1, 23040, Note_on_c, 0, 67, 0
1, 23040, Note_on_c, 0, 55, 0
1, 23040, Note_on_c, 0, 60, 51
1, 23040, Note_on_c, 0, 65, 61
1, 23040, Note_on_c, 0, 57, 52
1, 23040, Note_on_c, 0, 50, 44
1, 23040, Control_c, 0, 64, 0
1, 23047, Note_on_c, 0, 48, 0
1, 23520, Tempo, 459770
1, 23520, Note_on_c, 0, 57, 0
1, 23520, Note_on_c, 0, 60, 0
1, 23520, Note_on_c, 0, 65, 0
1, 23520, Note_on_c, 0, 50, 0
1, 23520, Note_on_c, 0, 67, 61
1, 23520, Note_on_c, 0, 60, 51
1, 23520, Note_on_c, 0, 52, 42
1, 23520, Note_on_c, 0, 57, 50
1, 23640, Note_on_c, 0, 57, 0
1, 23640, Note_on_c, 0, 67, 0
1, 23640, Note_on_c, 0, 60, 0
1, 23640, Note_on_c, 0, 52, 0
1, 23760, Tempo, 474308
1, 23760, Note_on_c, 0, 69, 57
1, 23760, Note_on_c, 0, 60, 48
1, 23760, Note_on_c, 0, 57, 48
1, 23760, Note_on_c, 0, 53, 40
1, 23880, Note_on_c, 0, 53, 0
1, 23880, Note_on_c, 0, 69, 0
1, 23880, Note_on_c, 0, 60, 0
1, 23880, Note_on_c, 0, 57, 0
1, 24000, Tempo, 576369
1, 24000, Note_on_c, 0, 65, 66
1, 24000, Note_on_c, 0, 60, 56
1, 24000, Note_on_c, 0, 50, 48
1, 24000, Note_on_c, 0, 57, 57
1, 24180, Note_on_c, 0, 57, 0
1, 24180, Note_on_c, 0, 65, 0
1, 24180, Note_on_c, 0, 60, 0
1, 24180, Note_on_c, 0, 50, 0
1, 24480, Tempo, 722892
1, 24480, Note_on_c, 0, 62, 48
1, 24480, Note_on_c, 0, 59, 40
1, 24480, Note_on_c, 0, 57, 42
1, 24480, Note_on_c, 0, 53, 35
1, 24540, Tempo, 815217
1, 24660, Note_on_c, 0, 53, 0
1, 24660, Note_on_c, 0, 62, 0
1, 24660, Note_on_c, 0, 59, 0
1, 24660, Note_on_c, 0, 57, 0
1, 24960, Tempo, 887574
1, 24960, Note_on_c, 0, 64, 41
1, 24960, Note_on_c, 0, 59, 34
1, 24960, Note_on_c, 0, 52, 35
1, 24960, Note_on_c, 0, 56, 42
1, 25200, Control_c, 0, 64, 127
1, 25920, Tempo, 428571
1, 25920, Note_on_c, 0, 56, 0
1, 25920, Note_on_c, 0, 64, 0
1, 25920, Note_on_c, 0, 59, 0
1, 25920, Note_on_c, 0, 52, 0
1, 25920, Note_on_c, 0, 45, 36
1, 25920, Control_c, 0, 64, 0
1, 26267, Control_c, 0, 64, 127
1, 26400, Tempo, 422535
1, 26400, Note_on_c, 0, 45, 0
1, 26400, Note_on_c, 0, 60, 28
1, 26400, Note_on_c, 0, 52, 24
1, 26880, Tempo, 433213
1, 26880, Note_on_c, 0, 52, 0
1, 26880, Note_on_c, 0, 60, 0
1, 26880, Note_on_c, 0, 60, 29
1, 26880, Note_on_c, 0, 52, 24
1, 27360, Tempo, 428571
1, 27360, Note_on_c, 0, 52, 0
1, 27360, Note_on_c, 0, 60, 0
1, 27360, Note_on_c, 0, 45, 36
1, 27840, Tempo, 419287
1, 27840, Note_on_c, 0, 45, 0
1, 27840, Note_on_c, 0, 52, 24
1, 27840, Note_on_c, 0, 60, 28
1, 27900, Tempo, 414938
1, 28320, Tempo, 425230
1, 28320, Note_on_c, 0, 60, 0
1, 28320, Note_on_c, 0, 52, 0
1, 28320, Note_on_c, 0, 52, 24
1, 28320, Note_on_c, 0, 60, 29
1, 28800, Tempo, 432900
1, 28800, Note_on_c, 0, 60, 0
1, 28800, Note_on_c, 0, 52, 0
1, 28800, Note_on_c, 0, 64, 50
1, 28800, Note_on_c, 0, 45, 36
1, 28805, Control_c, 0, 64, 0
1, 28903, Control_c, 0, 64, 127
1, 29280, Tempo, 412371
1, 29280, Note_on_c, 0, 45, 0
1, 29280, Note_on_c, 0, 64, 0
1, 29280, Note_on_c, 0, 66, 48
1, 29280, Note_on_c, 0, 52, 24
1, 29280, Note_on_c, 0, 60, 29
1, 29400, Note_on_c, 0, 66, 0
1, 29412, Control_c, 0, 64, 0
1, 29520, Note_on_c, 0, 68, 46
1, 29580, Note_on_c, 0, 68, 0
1, 29760, Tempo, 420757
1, 29760, Note_on_c, 0, 60, 0
1, 29760, Note_on_c, 0, 52, 0
1, 29760, Note_on_c, 0, 69, 53
1, 29760, Note_on_c, 0, 52, 24
1, 29760, Note_on_c, 0, 60, 29
1, 30000, Note_on_c, 0, 69, 0
1, 30240, Tempo, 426743
1, 30240, Note_on_c, 0, 60, 0
1, 30240, Note_on_c, 0, 52, 0
1, 30240, Note_on_c, 0, 69, 54
1, 30240, Note_on_c, 0, 45, 36
1, 30304, Control_c, 0, 64, 127
1, 30720, Tempo, 402414
1, 30720, Note_on_c, 0, 45, 0
1, 30720, Note_on_c, 0, 69, 0
1, 30720, Note_on_c, 0, 71, 58
1, 30720, Note_on_c, 0, 52, 24
1, 30720, Note_on_c, 0, 62, 28
1, 30840, Note_on_c, 0, 71, 0
1, 30860, Control_c, 0, 64, 0
1, 30960, Note_on_c, 0, 68, 53
1, 31020, Note_on_c, 0, 68, 0
1, 31200, Tempo, 419287
1, 31200, Note_on_c, 0, 62, 0
1, 31200, Note_on_c, 0, 52, 0
1, 31200, Note_on_c, 0, 66, 48
1, 31200, Note_on_c, 0, 52, 24
1, 31200, Note_on_c, 0, 62, 29
1, 31440, Note_on_c, 0, 66, 0
1, 31620, Note_on_c, 0, 69, 39
1, 31680, Tempo, 437956
1, 31680, Note_on_c, 0, 69, 0
1, 31680, Note_on_c, 0, 62, 0
1, 31680, Note_on_c, 0, 52, 0
1, 31680, Note_on_c, 0, 66, 50
1, 31680, Note_on_c, 0, 45, 36
1, 31800, Note_on_c, 0, 66, 0
1, 32160, Tempo, 421053
1, 32160, Note_on_c, 0, 45, 0
1, 32160, Note_on_c, 0, 64, 47
1, 32160, Note_on_c, 0, 60, 26
1, 32160, Note_on_c, 0, 52, 21
1, 32366, Control_c, 0, 64, 127
1, 32640, Tempo, 430108
1, 32640, Note_on_c, 0, 52, 0
1, 32640, Note_on_c, 0, 60, 0
1, 32640, Note_on_c, 0, 52, 21
1, 32640, Note_on_c, 0, 60, 26
1, 33120, Tempo, 428571
1, 33120, Note_on_c, 0, 60, 0
1, 33120, Note_on_c, 0, 52, 0
1, 33120, Note_on_c, 0, 45, 36
1, 33600, Tempo, 422535
1, 33600, Note_on_c, 0, 45, 0
1, 33600, Note_on_c, 0, 64, 0
1, 33600, Note_on_c, 0, 60, 25
1, 33600, Note_on_c, 0, 52, 21
1, 33660, Tempo, 413508
1, 34080, Tempo, 433213
1, 34080, Note_on_c, 0, 52, 0
1, 34080, Note_on_c, 0, 60, 0
1, 34080, Note_on_c, 0, 60, 26
1, 34080, Note_on_c, 0, 52, 21
1, 34560, Tempo, 412088
1, 34560, Note_on_c, 0, 52, 0
1, 34560, Note_on_c, 0, 60, 0
1, 34560, Note_on_c, 0, 45, 36
1, 34560, Control_c, 0, 64, 0
1, 34663, Control_c, 0, 64, 127
1, 34680, Tempo, 412088
1, 34800, Tempo, 418118
1, 34800, Note_on_c, 0, 64, 43
1, 34860, Note_on_c, 0, 64, 0
1, 35040, Tempo, 412371
1, 35040, Note_on_c, 0, 45, 0
1, 35040, Note_on_c, 0, 66, 48
1, 35040, Note_on_c, 0, 52, 24
1, 35040, Note_on_c, 0, 60, 29
1, 35100, Note_on_c, 0, 66, 0
1, 35175, Control_c, 0, 64, 0
1, 35280, Note_on_c, 0, 68, 44
1, 35340, Note_on_c, 0, 68, 0
1, 35520, Tempo, 427046
1, 35520, Note_on_c, 0, 60, 0
1, 35520, Note_on_c, 0, 52, 0
1, 35520, Note_on_c, 0, 68, 54
1, 35520, Note_on_c, 0, 52, 24
1, 35520, Note_on_c, 0, 60, 29
1, 35760, Note_on_c, 0, 68, 0
1, 35760, Note_on_c, 0, 69, 50
1, 36000, Tempo, 407886
1, 36000, Note_on_c, 0, 69, 0
1, 36000, Note_on_c, 0, 60, 0
1, 36000, Note_on_c, 0, 52, 0
1, 36000, Note_on_c, 0, 45, 36
1, 36064, Control_c, 0, 64, 127
1, 36240, Tempo, 413793
1, 36240, Note_on_c, 0, 69, 52
1, 36300, Note_on_c, 0, 69, 0
1, 36480, Tempo, 408163
1, 36480, Note_on_c, 0, 45, 0
1, 36480, Note_on_c, 0, 71, 56
1, 36480, Note_on_c, 0, 52, 24
1, 36480, Note_on_c, 0, 62, 28
1, 36540, Note_on_c, 0, 71, 0
1, 36623, Control_c, 0, 64, 0
1, 36720, Note_on_c, 0, 68, 50
1, 36780, Note_on_c, 0, 68, 0
1, 36960, Tempo, 430108
1, 36960, Note_on_c, 0, 62, 0
1, 36960, Note_on_c, 0, 52, 0
1, 36960, Note_on_c, 0, 68, 48
1, 36960, Note_on_c, 0, 52, 24
1, 36960, Note_on_c, 0, 62, 29
1, 37200, Note_on_c, 0, 68, 0
1, 37200, Note_on_c, 0, 66, 50
1, 37320, Note_on_c, 0, 66, 0
1, 37380, Note_on_c, 0, 69, 39
1, 37440, Tempo, 437956
1, 37440, Note_on_c, 0, 69, 0
1, 37440, Note_on_c, 0, 62, 0
1, 37440, Note_on_c, 0, 52, 0
1, 37440, Note_on_c, 0, 66, 50
1, 37440, Note_on_c, 0, 45, 36
1, 37560, Note_on_c, 0, 66, 0
1, 37920, Tempo, 417827
1, 37920, Note_on_c, 0, 45, 0
1, 37920, Note_on_c, 0, 64, 47
1, 37920, Note_on_c, 0, 52, 21
1, 37920, Note_on_c, 0, 60, 26
1, 38012, Control_c, 0, 64, 127
1, 38400, Tempo, 430108
1, 38400, Note_on_c, 0, 60, 0
1, 38400, Note_on_c, 0, 52, 0
1, 38400, Note_on_c, 0, 60, 26
1, 38400, Note_on_c, 0, 52, 21
1, 38880, Tempo, 428571
1, 38880, Note_on_c, 0, 52, 0
1, 38880, Note_on_c, 0, 60, 0
1, 38880, Note_on_c, 0, 45, 36
1, 39120, Tempo, 420757
1, 39360, Tempo, 410678
1, 39360, Note_on_c, 0, 45, 0
1, 39360, Note_on_c, 0, 64, 0
1, 39360, Note_on_c, 0, 60, 25
1, 39360, Note_on_c, 0, 52, 21
1, 39840, Tempo, 433213
1, 39840, Note_on_c, 0, 52, 0
1, 39840, Note_on_c, 0, 60, 0
1, 39840, Note_on_c, 0, 60, 26
1, 39840, Note_on_c, 0, 52, 21
1, 40267, Control_c, 0, 64, 0
1, 40320, Tempo, 430108
1, 40320, Note_on_c, 0, 52, 0
1, 40320, Note_on_c, 0, 60, 0
1, 40320, Note_on_c, 0, 67, 37
1, 40320, Note_on_c, 0, 76, 44
1, 40320, Note_on_c, 0, 60, 28
1, 40320, Note_on_c, 0, 64, 33
1, 40562, Note_on_c, 0, 64, 0
1, 40562, Note_on_c, 0, 67, 0
1, 40562, Note_on_c, 0, 76, 0
1, 40562, Note_on_c, 0, 60, 0
1, 40800, Tempo, 424028
1, 40800, Note_on_c, 0, 68, 40
1, 40800, Note_on_c, 0, 76, 48
1, 40800, Note_on_c, 0, 65, 36
1, 40800, Note_on_c, 0, 60, 30
1, 41042, Note_on_c, 0, 60, 0
1, 41042, Note_on_c, 0, 68, 0
1, 41042, Note_on_c, 0, 76, 0
1, 41042, Note_on_c, 0, 65, 0
1, 41280, Tempo, 421053
1, 41280, Note_on_c, 0, 69, 44
1, 41280, Note_on_c, 0, 76, 52
1, 41280, Note_on_c, 0, 66, 39
1, 41280, Note_on_c, 0, 60, 33
1, 41522, Note_on_c, 0, 60, 0
1, 41522, Note_on_c, 0, 69, 0
1, 41522, Note_on_c, 0, 76, 0
1, 41522, Note_on_c, 0, 66, 0
1, 41760, Tempo, 415225
1, 41760, Note_on_c, 0, 76, 54
1, 41760, Note_on_c, 0, 71, 45
1, 41760, Note_on_c, 0, 55, 38
1, 41760, Note_on_c, 0, 67, 45
1, 41760, Note_on_c, 0, 62, 38
1, 41873, Control_c, 0, 64, 127
1, 41920, Note_on_c, 0, 76, 0
1, 41920, Note_on_c, 0, 74, 44
1, 42080, Note_on_c, 0, 74, 0
1, 42080, Note_on_c, 0, 72, 44
1, 42240, Tempo, 416667
1, 42240, Note_on_c, 0, 72, 0
1, 42240, Note_on_c, 0, 74, 48
1, 42253, Control_c, 0, 64, 0
1, 42466, Control_c, 0, 64, 127
1, 42720, Tempo, 446097
1, 43200, Tempo, 428571
1, 43200, Note_on_c, 0, 74, 0
1, 43200, Note_on_c, 0, 62, 0
1, 43200, Note_on_c, 0, 71, 0
1, 43200, Note_on_c, 0, 55, 0
1, 43200, Note_on_c, 0, 67, 0
1, 43200, Note_on_c, 0, 64, 37
1, 43200, Note_on_c, 0, 72, 44
1, 43200, Note_on_c, 0, 60, 33
1, 43200, Note_on_c, 0, 57, 28
1, 43200, Control_c, 0, 64, 0
1, 43442, Note_on_c, 0, 57, 0
1, 43442, Note_on_c, 0, 64, 0
1, 43442, Note_on_c, 0, 72, 0
1, 43442, Note_on_c, 0, 60, 0
1, 43680, Tempo, 424028
1, 43680, Note_on_c, 0, 72, 48
1, 43680, Note_on_c, 0, 65, 40
1, 43680, Note_on_c, 0, 62, 36
1, 43680, Note_on_c, 0, 57, 30
1, 43922, Note_on_c, 0, 57, 0
1, 43922, Note_on_c, 0, 72, 0
1, 43922, Note_on_c, 0, 65, 0
1, 43922, Note_on_c, 0, 62, 0
1, 44160, Tempo, 421053
1, 44160, Note_on_c, 0, 72, 52
1, 44160, Note_on_c, 0, 66, 44
1, 44160, Note_on_c, 0, 63, 39
1, 44160, Note_on_c, 0, 57, 33
1, 44402, Note_on_c, 0, 57, 0
1, 44402, Note_on_c, 0, 72, 0
1, 44402, Note_on_c, 0, 66, 0
1, 44402, Note_on_c, 0, 63, 0
1, 44640, Tempo, 415225
1, 44640, Note_on_c, 0, 72, 54
1, 44640, Note_on_c, 0, 67, 45
1, 44640, Note_on_c, 0, 52, 38
1, 44640, Note_on_c, 0, 64, 45
1, 44640, Note_on_c, 0, 59, 38
1, 44774, Control_c, 0, 64, 127
1, 44800, Note_on_c, 0, 72, 0
1, 44800, Note_on_c, 0, 71, 44
1, 44960, Note_on_c, 0, 71, 0
1, 44960, Note_on_c, 0, 69, 44
1, 45120, Tempo, 416667
1, 45120, Note_on_c, 0, 69, 0
1, 45120, Note_on_c, 0, 71, 48
1, 45133, Control_c, 0, 64, 0
1, 45346, Control_c, 0, 64, 127
1, 45600, Tempo, 447761
1, 46080, Tempo, 409556
1, 46080, Note_on_c, 0, 71, 0
1, 46080, Note_on_c, 0, 59, 0
1, 46080, Note_on_c, 0, 67, 0
1, 46080, Note_on_c, 0, 52, 0
1, 46080, Note_on_c, 0, 64, 0
1, 46080, Note_on_c, 0, 65, 45
1, 46080, Note_on_c, 0, 71, 54
1, 46080, Note_on_c, 0, 53, 38
1, 46080, Note_on_c, 0, 60, 45
1, 46080, Control_c, 0, 64, 0
1, 46144, Control_c, 0, 64, 127
1, 46240, Note_on_c, 0, 71, 0
1, 46240, Note_on_c, 0, 69, 44
1, 46400, Note_on_c, 0, 69, 0
1, 46400, Note_on_c, 0, 67, 44
1, 46560, Tempo, 416667
1, 46560, Note_on_c, 0, 67, 0
1, 46560, Note_on_c, 0, 69, 48
1, 46573, Control_c, 0, 64, 0
1, 46786, Control_c, 0, 64, 127
1, 47520, Tempo, 409556
1, 47520, Note_on_c, 0, 69, 0
1, 47520, Note_on_c, 0, 60, 0
1, 47520, Note_on_c, 0, 53, 0
1, 47520, Note_on_c, 0, 65, 0
1, 47520, Note_on_c, 0, 65, 59
1, 47520, Note_on_c, 0, 67, 44
1, 47520, Note_on_c, 0, 60, 49
1, 47520, Note_on_c, 0, 55, 41
1, 47520, Control_c, 0, 64, 0
1, 47527, Note_on_c, 0, 48, 41
1, 47584, Control_c, 0, 64, 127
1, 47680, Note_on_c, 0, 65, 0
1, 47683, Note_on_c, 0, 64, 48
1, 47838, Note_on_c, 0, 62, 48
1, 47843, Note_on_c, 0, 64, 0
1, 47998, Note_on_c, 0, 62, 0
1, 48000, Tempo, 416667
1, 48000, Note_on_c, 0, 64, 52
1, 48013, Control_c, 0, 64, 0
1, 48226, Control_c, 0, 64, 127
1, 48960, Tempo, 441176
1, 48960, Note_on_c, 0, 64, 0
1, 48960, Note_on_c, 0, 55, 0
1, 48960, Note_on_c, 0, 67, 0
1, 48960, Note_on_c, 0, 60, 0
1, 48960, Note_on_c, 0, 60, 51
1, 48960, Note_on_c, 0, 65, 61
1, 48960, Note_on_c, 0, 50, 44
1, 48960, Note_on_c, 0, 57, 52
1, 48960, Control_c, 0, 64, 0
1, 48967, Note_on_c, 0, 48, 0
1, 49440, Tempo, 459770
1, 49440, Note_on_c, 0, 50, 0
1, 49440, Note_on_c, 0, 60, 0
1, 49440, Note_on_c, 0, 65, 0
1, 49440, Note_on_c, 0, 57, 0
1, 49440, Note_on_c, 0, 60, 51
1, 49440, Note_on_c, 0, 67, 61
1, 49440, Note_on_c, 0, 57, 50
1, 49440, Note_on_c, 0, 52, 42
1, 49560, Note_on_c, 0, 52, 0
1, 49560, Note_on_c, 0, 60, 0
1, 49560, Note_on_c, 0, 67, 0
1, 49560, Note_on_c, 0, 57, 0
1, 49680, Tempo, 474308
1, 49680, Note_on_c, 0, 60, 48
1, 49680, Note_on_c, 0, 69, 57
1, 49680, Note_on_c, 0, 53, 40
1, 49680, Note_on_c, 0, 57, 48
1, 49800, Note_on_c, 0, 57, 0
1, 49800, Note_on_c, 0, 60, 0
1, 49800, Note_on_c, 0, 69, 0
1, 49800, Note_on_c, 0, 53, 0
1, 49920, Tempo, 565504
1, 49920, Note_on_c, 0, 60, 56
1, 49920, Note_on_c, 0, 65, 66
1, 49920, Note_on_c, 0, 50, 48
1, 49920, Note_on_c, 0, 57, 57
1, 50100, Note_on_c, 0, 57, 0
1, 50100, Note_on_c, 0, 60, 0
1, 50100, Note_on_c, 0, 65, 0
1, 50100, Note_on_c, 0, 50, 0
1, 50400, Tempo, 815217
1, 50400, Note_on_c, 0, 62, 48
1, 50400, Note_on_c, 0, 59, 40
1, 50400, Note_on_c, 0, 53, 35
1, 50400, Note_on_c, 0, 57, 42
1, 50580, Note_on_c, 0, 57, 0
1, 50580, Note_on_c, 0, 62, 0
1, 50580, Note_on_c, 0, 59, 0
1, 50580, Note_on_c, 0, 53, 0
1, 50880, Tempo, 894188
1, 50880, Note_on_c, 0, 59, 34
1, 50880, Note_on_c, 0, 64, 41
1, 50880, Note_on_c, 0, 52, 35
1, 50880, Note_on_c, 0, 56, 42
1, 51840, Key_signature, 3, "major"
1, 51840, Tempo, 426743
1, 51840, Note_on_c, 0, 56, 0
1, 51840, Note_on_c, 0, 59, 0
1, 51840, Note_on_c, 0, 64, 0
1, 51840, Note_on_c, 0, 52, 0
1, 51840, Note_on_c, 0, 69, 52
1, 51921, Control_c, 0, 64, 127
1, 52320, Tempo, 408163
1, 52320, Note_on_c, 0, 73, 39
1, 52320, Note_on_c, 0, 76, 47
1, 52800, Tempo, 430108
1, 52800, Note_on_c, 0, 76, 0
1, 52800, Note_on_c, 0, 73, 0
1, 52800, Note_on_c, 0, 69, 0
1, 52800, Note_on_c, 0, 73, 39
1, 52800, Note_on_c, 0, 76, 47
1, 52800, Note_on_c, 0, 71, 54
1, 52814, Control_c, 0, 64, 0
1, 52885, Control_c, 0, 64, 127
1, 53040, Note_on_c, 0, 71, 0
1, 53040, Note_on_c, 0, 68, 50
1, 53220, Note_on_c, 0, 68, 0
1, 53220, Note_on_c, 0, 69, 39
1, 53280, Tempo, 437956
1, 53280, Note_on_c, 0, 69, 0
1, 53280, Note_on_c, 0, 76, 0
1, 53280, Note_on_c, 0, 73, 0
1, 53280, Note_on_c, 0, 66, 50
1, 53287, Control_c, 0, 64, 0
1, 53520, Note_on_c, 0, 66, 0
1, 53520, Note_on_c, 0, 64, 50
1, 53640, Note_on_c, 0, 64, 0
1, 53760, Tempo, 421053
1, 53760, Note_on_c, 0, 76, 47
1, 53760, Note_on_c, 0, 68, 39
1, 53760, Note_on_c, 0, 74, 39
1, 53760, Note_on_c, 0, 64, 47
1, 53852, Control_c, 0, 64, 127
1, 54240, Tempo, 430108
1, 54240, Note_on_c, 0, 74, 0
1, 54240, Note_on_c, 0, 76, 0
1, 54240, Note_on_c, 0, 68, 0
1, 54240, Note_on_c, 0, 68, 39
1, 54240, Note_on_c, 0, 74, 39
1, 54240, Note_on_c, 0, 76, 47
1, 54720, Tempo, 426743
1, 54720, Note_on_c, 0, 76, 0
1, 54720, Note_on_c, 0, 64, 0
1, 54720, Note_on_c, 0, 68, 0
1, 54720, Note_on_c, 0, 74, 0
1, 54720, Note_on_c, 0, 69, 52
1, 54720, Control_c, 0, 64, 0
1, 54960, Control_c, 0, 64, 127
1, 55200, Tempo, 408163
1, 55200, Note_on_c, 0, 69, 0
1, 55200, Note_on_c, 0, 73, 39
1, 55200, Note_on_c, 0, 76, 47
1, 55200, Note_on_c, 0, 71, 54
1, 55440, Note_on_c, 0, 71, 0
1, 55440, Note_on_c, 0, 73, 54
1, 55680, Tempo, 430108
1, 55680, Note_on_c, 0, 73, 0
1, 55680, Note_on_c, 0, 76, 0
1, 55680, Note_on_c, 0, 73, 0
1, 55680, Note_on_c, 0, 73, 39
1, 55680, Note_on_c, 0, 76, 47
1, 55680, Note_on_c, 0, 69, 54
1, 55694, Control_c, 0, 64, 0
1, 55765, Control_c, 0, 64, 127
1, 55920, Note_on_c, 0, 69, 0
1, 55920, Note_on_c, 0, 66, 50
1, 56100, Note_on_c, 0, 66, 0
1, 56100, Note_on_c, 0, 68, 39
1, 56160, Tempo, 437956
1, 56160, Note_on_c, 0, 68, 0
1, 56160, Note_on_c, 0, 76, 0
1, 56160, Note_on_c, 0, 73, 0
1, 56160, Note_on_c, 0, 66, 50
1, 56167, Control_c, 0, 64, 0
1, 56400, Note_on_c, 0, 66, 0
1, 56400, Note_on_c, 0, 64, 50
1, 56520, Note_on_c, 0, 64, 0
1, 56640, Tempo, 421053
1, 56640, Note_on_c, 0, 74, 35
1, 56640, Note_on_c, 0, 68, 35
1, 56640, Note_on_c, 0, 76, 42
1, 56640, Note_on_c, 0, 64, 47
1, 56732, Control_c, 0, 64, 127
1, 57120, Tempo, 430108
1, 57120, Note_on_c, 0, 76, 0
1, 57120, Note_on_c, 0, 74, 0
1, 57120, Note_on_c, 0, 68, 0
1, 57120, Note_on_c, 0, 68, 35
1, 57120, Note_on_c, 0, 74, 35
1, 57120, Note_on_c, 0, 76, 42
1, 57600, Tempo, 426743
1, 57600, Note_on_c, 0, 76, 0
1, 57600, Note_on_c, 0, 64, 0
1, 57600, Note_on_c, 0, 68, 0
1, 57600, Note_on_c, 0, 74, 0
1, 57600, Note_on_c, 0, 69, 52
1, 57600, Control_c, 0, 64, 0
1, 57784, Control_c, 0, 64, 127
1, 58080, Tempo, 408163
1, 58080, Note_on_c, 0, 73, 39
1, 58080, Note_on_c, 0, 76, 47
1, 58560, Tempo, 430108
1, 58560, Note_on_c, 0, 76, 0
1, 58560, Note_on_c, 0, 73, 0
1, 58560, Note_on_c, 0, 69, 0
1, 58560, Note_on_c, 0, 76, 47
1, 58560, Note_on_c, 0, 73, 39
1, 58560, Note_on_c, 0, 64, 54
1, 58574, Control_c, 0, 64, 0
1, 58730, Control_c, 0, 64, 127
1, 58800, Tempo, 436047
1, 58800, Note_on_c, 0, 64, 0
1, 58800, Note_on_c, 0, 66, 50
1, 59040, Note_on_c, 0, 66, 0
1, 59040, Note_on_c, 0, 73, 0
1, 59040, Note_on_c, 0, 76, 0
1, 59040, Note_on_c, 0, 66, 54
1, 59061, Control_c, 0, 64, 0
1, 59153, Control_c, 0, 64, 127
1, 59280, Note_on_c, 0, 66, 0
1, 59280, Note_on_c, 0, 68, 50
1, 59520, Note_on_c, 0, 68, 0
1, 59520, Note_on_c, 0, 73, 39
1, 59520, Note_on_c, 0, 76, 47
1, 59520, Note_on_c, 0, 68, 52
1, 59533, Control_c, 0, 64, 0
1, 59704, Control_c, 0, 64, 127
1, 60000, Tempo, 432900
1, 60000, Note_on_c, 0, 76, 0
1, 60000, Note_on_c, 0, 73, 0
1, 60000, Note_on_c, 0, 73, 39
1, 60000, Note_on_c, 0, 76, 47
1, 60480, Tempo, 439239
1, 60480, Note_on_c, 0, 76, 0
1, 60480, Note_on_c, 0, 73, 0
1, 60480, Note_on_c, 0, 68, 0
1, 60480, Note_on_c, 0, 68, 54
1, 60494, Control_c, 0, 64, 0
1, 60600, Tempo, 440852
1, 60720, Note_on_c, 0, 68, 0
1, 60720, Note_on_c, 0, 71, 57
1, 60960, Tempo, 436047
1, 60960, Note_on_c, 0, 71, 0
1, 60960, Note_on_c, 0, 73, 40
1, 60960, Note_on_c, 0, 76, 49
1, 60960, Note_on_c, 0, 71, 61
1, 61080, Tempo, 437637
1, 61200, Note_on_c, 0, 71, 0
1, 61200, Note_on_c, 0, 69, 54
1, 61440, Tempo, 457666
1, 61440, Note_on_c, 0, 69, 0
1, 61440, Note_on_c, 0, 76, 0
1, 61440, Note_on_c, 0, 73, 0
1, 61440, Note_on_c, 0, 73, 40
1, 61440, Note_on_c, 0, 76, 49
1, 61440, Note_on_c, 0, 64, 61
1, 61680, Tempo, 540054
1, 61680, Note_on_c, 0, 64, 0
1, 61680, Note_on_c, 0, 66, 56
1, 61920, Tempo, 519031
1, 61920, Note_on_c, 0, 66, 0
1, 61920, Note_on_c, 0, 76, 0
1, 61920, Note_on_c, 0, 73, 0
1, 61920, Note_on_c, 0, 66, 57
1, 61941, Control_c, 0, 64, 0
1, 62076, Control_c, 0, 64, 127
1, 62160, Note_on_c, 0, 66, 0
1, 62160, Note_on_c, 0, 68, 45
1, 62400, Tempo, 542495
1, 62400, Note_on_c, 0, 68, 0
1, 62400, Note_on_c, 0, 76, 42
1, 62400, Note_on_c, 0, 73, 35
1, 62400, Note_on_c, 0, 68, 51
1, 62413, Control_c, 0, 64, 0
1, 62640, Control_c, 0, 64, 127
1, 62880, Tempo, 587659
1, 62880, Note_on_c, 0, 73, 0
1, 62880, Note_on_c, 0, 76, 0
1, 62880, Note_on_c, 0, 73, 35
1, 62880, Note_on_c, 0, 76, 42
1, 63360, Tempo, 449102
1, 63360, Note_on_c, 0, 76, 0
1, 63360, Note_on_c, 0, 73, 0
1, 63360, Note_on_c, 0, 68, 0
1, 63360, Note_on_c, 0, 69, 52
1, 63385, Control_c, 0, 64, 0
1, 63494, Control_c, 0, 64, 127
1, 63840, Tempo, 423729
1, 63840, Note_on_c, 0, 73, 39
1, 63840, Note_on_c, 0, 76, 47
1, 64320, Tempo, 434468
1, 64320, Note_on_c, 0, 76, 0
1, 64320, Note_on_c, 0, 73, 0
1, 64320, Note_on_c, 0, 69, 0
1, 64320, Note_on_c, 0, 73, 39
1, 64320, Note_on_c, 0, 76, 47
1, 64320, Note_on_c, 0, 71, 54
1, 64334, Control_c, 0, 64, 0
1, 64405, Control_c, 0, 64, 127
1, 64560, Note_on_c, 0, 71, 0
1, 64560, Note_on_c, 0, 68, 50
1, 64740, Note_on_c, 0, 68, 0
1, 64740, Note_on_c, 0, 69, 39
1, 64800, Tempo, 437956
1, 64800, Note_on_c, 0, 69, 0
1, 64800, Note_on_c, 0, 76, 0
1, 64800, Note_on_c, 0, 73, 0
1, 64800, Note_on_c, 0, 66, 50
1, 64807, Control_c, 0, 64, 0
1, 65040, Note_on_c, 0, 66, 0
1, 65040, Note_on_c, 0, 64, 50
1, 65160, Note_on_c, 0, 64, 0
1, 65280, Tempo, 421053
1, 65280, Note_on_c, 0, 76, 47
1, 65280, Note_on_c, 0, 68, 39
1, 65280, Note_on_c, 0, 74, 39
1, 65280, Note_on_c, 0, 64, 47
1, 65372, Control_c, 0, 64, 127
1, 65760, Tempo, 430108
1, 65760, Note_on_c, 0, 74, 0
1, 65760, Note_on_c, 0, 76, 0
1, 65760, Note_on_c, 0, 68, 0
1, 65760, Note_on_c, 0, 68, 39
1, 65760, Note_on_c, 0, 74, 39
1, 65760, Note_on_c, 0, 76, 47
1, 66240, Tempo, 426743
1, 66240, Note_on_c, 0, 76, 0
1, 66240, Note_on_c, 0, 64, 0
1, 66240, Note_on_c, 0, 68, 0
1, 66240, Note_on_c, 0, 74, 0
1, 66240, Note_on_c, 0, 69, 52
1, 66240, Control_c, 0, 64, 0
1, 66480, Control_c, 0, 64, 127
1, 66720, Tempo, 408163
1, 66720, Note_on_c, 0, 69, 0
1, 66720, Note_on_c, 0, 73, 39
1, 66720, Note_on_c, 0, 76, 47
1, 66720, Note_on_c, 0, 71, 54
1, 66960, Note_on_c, 0, 71, 0
1, 66960, Note_on_c, 0, 73, 54
1, 67200, Tempo, 430108
1, 67200, Note_on_c, 0, 73, 0
1, 67200, Note_on_c, 0, 76, 0
1, 67200, Note_on_c, 0, 73, 0
1, 67200, Note_on_c, 0, 73, 39
1, 67200, Note_on_c, 0, 76, 47
1, 67200, Note_on_c, 0, 69, 54
1, 67214, Control_c, 0, 64, 0
1, 67285, Control_c, 0, 64, 127
1, 67440, Note_on_c, 0, 69, 0
1, 67440, Note_on_c, 0, 66, 50
1, 67620, Note_on_c, 0, 66, 0
1, 67620, Note_on_c, 0, 68, 39
1, 67680, Tempo, 437956
1, 67680, Note_on_c, 0, 68, 0
1, 67680, Note_on_c, 0, 76, 0
1, 67680, Note_on_c, 0, 73, 0
1, 67680, Note_on_c, 0, 66, 50
1, 67687, Control_c, 0, 64, 0
1, 67920, Note_on_c, 0, 66, 0
1, 67920, Note_on_c, 0, 64, 50
1, 68040, Note_on_c, 0, 64, 0
1, 68160, Tempo, 421053
1, 68160, Note_on_c, 0, 74, 35
1, 68160, Note_on_c, 0, 68, 35
1, 68160, Note_on_c, 0, 76, 42
1, 68160, Note_on_c, 0, 64, 47
1, 68252, Control_c, 0, 64, 127
1, 68640, Tempo, 430108
1, 68640, Note_on_c, 0, 76, 0
1, 68640, Note_on_c, 0, 74, 0
1, 68640, Note_on_c, 0, 68, 0
1, 68640, Note_on_c, 0, 68, 35
1, 68640, Note_on_c, 0, 74, 35
1, 68640, Note_on_c, 0, 76, 42
1, 69120, Tempo, 426743
1, 69120, Note_on_c, 0, 76, 0
1, 69120, Note_on_c, 0, 64, 0
1, 69120, Note_on_c, 0, 68, 0
1, 69120, Note_on_c, 0, 74, 0
1, 69120, Note_on_c, 0, 69, 52
1, 69120, Control_c, 0, 64, 0
1, 69304, Control_c, 0, 64, 127
1, 69600, Tempo, 408163
1, 69600, Note_on_c, 0, 73, 39
1, 69600, Note_on_c, 0, 76, 47
1, 70080, Tempo, 430108
1, 70080, Note_on_c, 0, 76, 0
1, 70080, Note_on_c, 0, 73, 0
1, 70080, Note_on_c, 0, 69, 0
1, 70080, Note_on_c, 0, 76, 47
1, 70080, Note_on_c, 0, 73, 39
1, 70080, Note_on_c, 0, 64, 54
1, 70094, Control_c, 0, 64, 0
1, 70221, Control_c, 0, 64, 127
1, 70320, Note_on_c, 0, 64, 0
1, 70320, Note_on_c, 0, 66, 50
1, 70560, Tempo, 437637
1, 70560, Note_on_c, 0, 66, 0
1, 70560, Note_on_c, 0, 73, 0
1, 70560, Note_on_c, 0, 76, 0
1, 70560, Note_on_c, 0, 66, 59
1, 70581, Control_c, 0, 64, 0
1, 70800, Note_on_c, 0, 66, 0
1, 70800, Note_on_c, 0, 67, 48
1, 70920, Note_on_c, 0, 67, 0
1, 71040, Note_on_c, 0, 73, 42
1, 71040, Note_on_c, 0, 76, 51
1, 71040, Note_on_c, 0, 67, 57
1, 71157, Control_c, 0, 64, 127
1, 71520, Tempo, 455927
1, 71520, Note_on_c, 0, 76, 0
1, 71520, Note_on_c, 0, 73, 0
1, 71520, Note_on_c, 0, 73, 42
1, 71520, Note_on_c, 0, 76, 51
1, 72000, Tempo, 449102
1, 72000, Note_on_c, 0, 76, 0
1, 72000, Note_on_c, 0, 73, 0
1, 72000, Note_on_c, 0, 67, 0
1, 72000, Note_on_c, 0, 67, 64
1, 72021, Control_c, 0, 64, 0
1, 72240, Note_on_c, 0, 67, 0
1, 72240, Note_on_c, 0, 68, 53
1, 72360, Note_on_c, 0, 68, 0
1, 72480, Note_on_c, 0, 73, 46
1, 72480, Note_on_c, 0, 76, 56
1, 72480, Note_on_c, 0, 68, 62
1, 72597, Control_c, 0, 64, 127
1, 72960, Note_on_c, 0, 76, 0
1, 72960, Note_on_c, 0, 73, 0
1, 72960, Note_on_c, 0, 73, 46
1, 72960, Note_on_c, 0, 76, 56
1, 73080, Tempo, 481889
1, 73440, Tempo, 495458
1, 73440, Note_on_c, 0, 76, 0
1, 73440, Note_on_c, 0, 73, 0
1, 73440, Note_on_c, 0, 68, 0
1, 73440, Note_on_c, 0, 68, 70
1, 73461, Control_c, 0, 64, 0
1, 73680, Tempo, 538165
1, 73680, Note_on_c, 0, 68, 0
1, 73680, Note_on_c, 0, 69, 60
1, 73800, Note_on_c, 0, 69, 0
1, 73920, Tempo, 562852
1, 73920, Note_on_c, 0, 76, 61
1, 73920, Note_on_c, 0, 73, 50
1, 73920, Note_on_c, 0, 69, 68
1, 74037, Control_c, 0, 64, 127
1, 74400, Tempo, 570885
1, 74400, Note_on_c, 0, 73, 0
1, 74400, Note_on_c, 0, 76, 0
1, 74400, Note_on_c, 0, 73, 50
1, 74400, Note_on_c, 0, 76, 61
1, 74520, Tempo, 718649
1, 74753, Control_c, 0, 64, 0
1, 74880, Key_signature, 0, "major"
1, 74880, Tempo, 439239
1, 74880, Note_on_c, 0, 76, 0
1, 74880, Note_on_c, 0, 73, 0
1, 74880, Note_on_c, 0, 69, 0
1, 74880, Note_on_c, 0, 45, 32
1, 75360, Tempo, 428266
1, 75360, Note_on_c, 0, 45, 0
1, 75360, Note_on_c, 0, 52, 21
1, 75360, Note_on_c, 0, 60, 25
1, 75360, Control_c, 0, 64, 127
1, 75840, Tempo, 437637
1, 75840, Note_on_c, 0, 60, 0
1, 75840, Note_on_c, 0, 52, 0
1, 75840, Note_on_c, 0, 60, 26
1, 75840, Note_on_c, 0, 52, 21
1, 76320, Tempo, 428571
1, 76320, Note_on_c, 0, 52, 0
1, 76320, Note_on_c, 0, 60, 0
1, 76320, Note_on_c, 0, 45, 32
1, 76560, Tempo, 422238
1, 76800, Tempo, 417827
1, 76800, Note_on_c, 0, 45, 0
1, 76800, Note_on_c, 0, 52, 21
1, 76800, Note_on_c, 0, 60, 25
1, 77280, Tempo, 425230
1, 77280, Note_on_c, 0, 60, 0
1, 77280, Note_on_c, 0, 52, 0
1, 77280, Note_on_c, 0, 60, 26
1, 77280, Note_on_c, 0, 52, 21
1, 77760, Tempo, 432900
1, 77760, Note_on_c, 0, 52, 0
1, 77760, Note_on_c, 0, 60, 0
1, 77760, Note_on_c, 0, 64, 45
1, 77760, Note_on_c, 0, 45, 32
1, 77760, Control_c, 0, 64, 0
1, 77863, Control_c, 0, 64, 127
1, 78240, Tempo, 412371
1, 78240, Note_on_c, 0, 45, 0
1, 78240, Note_on_c, 0, 64, 0
1, 78240, Note_on_c, 0, 66, 42
1, 78240, Note_on_c, 0, 60, 26
1, 78240, Note_on_c, 0, 52, 21
1, 78360, Note_on_c, 0, 66, 0
1, 78363, Control_c, 0, 64, 0
1, 78480, Note_on_c, 0, 68, 39
1, 78540, Note_on_c, 0, 68, 0
1, 78720, Tempo, 420757
1, 78720, Note_on_c, 0, 52, 0
1, 78720, Note_on_c, 0, 60, 0
1, 78720, Note_on_c, 0, 69, 47
1, 78720, Note_on_c, 0, 52, 21
1, 78720, Note_on_c, 0, 60, 26
1, 78960, Note_on_c, 0, 69, 0
1, 79200, Tempo, 426743
1, 79200, Note_on_c, 0, 60, 0
1, 79200, Note_on_c, 0, 52, 0
1, 79200, Note_on_c, 0, 69, 49
1, 79200, Note_on_c, 0, 45, 32
1, 79264, Control_c, 0, 64, 127
1, 79680, Tempo, 408163
1, 79680, Note_on_c, 0, 45, 0
1, 79680, Note_on_c, 0, 69, 0
1, 79680, Note_on_c, 0, 71, 52
1, 79680, Note_on_c, 0, 52, 21
1, 79680, Note_on_c, 0, 62, 25
1, 79800, Note_on_c, 0, 71, 0
1, 79809, Control_c, 0, 64, 0
1, 79920, Note_on_c, 0, 68, 45
1, 79980, Note_on_c, 0, 68, 0
1, 80160, Tempo, 430108
1, 80160, Note_on_c, 0, 62, 0
1, 80160, Note_on_c, 0, 52, 0
1, 80160, Note_on_c, 0, 66, 43
1, 80160, Note_on_c, 0, 62, 26
1, 80160, Note_on_c, 0, 52, 21
1, 80400, Note_on_c, 0, 66, 0
1, 80580, Note_on_c, 0, 69, 35
1, 80640, Tempo, 437956
1, 80640, Note_on_c, 0, 69, 0
1, 80640, Note_on_c, 0, 52, 0
1, 80640, Note_on_c, 0, 62, 0
1, 80640, Note_on_c, 0, 66, 45
1, 80640, Note_on_c, 0, 45, 32
1, 80760, Note_on_c, 0, 66, 0
1, 81120, Tempo, 421053
1, 81120, Note_on_c, 0, 45, 0
1, 81120, Note_on_c, 0, 64, 42
1, 81120, Note_on_c, 0, 52, 19
1, 81120, Note_on_c, 0, 60, 23
1, 81212, Control_c, 0, 64, 127
1, 81600, Tempo, 430108
1, 81600, Note_on_c, 0, 60, 0
1, 81600, Note_on_c, 0, 52, 0
1, 81600, Note_on_c, 0, 60, 23
1, 81600, Note_on_c, 0, 52, 19
1, 82080, Tempo, 428571
1, 82080, Note_on_c, 0, 52, 0
1, 82080, Note_on_c, 0, 60, 0
1, 82080, Note_on_c, 0, 45, 32
1, 82560, Tempo, 422535
1, 82560, Note_on_c, 0, 45, 0
1, 82560, Note_on_c, 0, 64, 0
1, 82560, Note_on_c, 0, 52, 19
1, 82560, Note_on_c, 0, 60, 22
1, 83040, Tempo, 433213
1, 83040, Note_on_c, 0, 60, 0
1, 83040, Note_on_c, 0, 52, 0
1, 83040, Note_on_c, 0, 60, 23
1, 83040, Note_on_c, 0, 52, 19
1, 83520, Tempo, 413508
1, 83520, Note_on_c, 0, 52, 0
1, 83520, Note_on_c, 0, 60, 0
1, 83520, Note_on_c, 0, 45, 32
1, 83520, Control_c, 0, 64, 0
1, 83623, Control_c, 0, 64, 127
1, 83640, Tempo, 414938
1, 83760, Tempo, 418118
1, 83760, Note_on_c, 0, 64, 38
1, 83820, Note_on_c, 0, 64, 0
1, 84000, Tempo, 412371
1, 84000, Note_on_c, 0, 45, 0
1, 84000, Note_on_c, 0, 66, 43
1, 84000, Note_on_c, 0, 60, 26
1, 84000, Note_on_c, 0, 52, 21
1, 84060, Note_on_c, 0, 66, 0
1, 84120, Control_c, 0, 64, 0
1, 84240, Note_on_c, 0, 68, 39
1, 84300, Note_on_c, 0, 68, 0
1, 84480, Tempo, 427046
1, 84480, Note_on_c, 0, 52, 0
1, 84480, Note_on_c, 0, 60, 0
1, 84480, Note_on_c, 0, 68, 45
1, 84480, Note_on_c, 0, 52, 21
1, 84480, Note_on_c, 0, 60, 26
1, 84720, Note_on_c, 0, 68, 0
1, 84720, Note_on_c, 0, 69, 45
1, 84960, Tempo, 407886
1, 84960, Note_on_c, 0, 69, 0
1, 84960, Note_on_c, 0, 60, 0
1, 84960, Note_on_c, 0, 52, 0
1, 84960, Note_on_c, 0, 45, 32
1, 85024, Control_c, 0, 64, 127
1, 85200, Tempo, 413793
1, 85200, Note_on_c, 0, 69, 46
1, 85260, Note_on_c, 0, 69, 0
1, 85440, Tempo, 408163
1, 85440, Note_on_c, 0, 45, 0
1, 85440, Note_on_c, 0, 71, 51
1, 85440, Note_on_c, 0, 62, 25
1, 85440, Note_on_c, 0, 52, 21
1, 85500, Note_on_c, 0, 71, 0
1, 85555, Control_c, 0, 64, 0
1, 85680, Note_on_c, 0, 68, 45
1, 85740, Note_on_c, 0, 68, 0
1, 85920, Tempo, 430108
1, 85920, Note_on_c, 0, 52, 0
1, 85920, Note_on_c, 0, 62, 0
1, 85920, Note_on_c, 0, 68, 43
1, 85920, Note_on_c, 0, 62, 26
1, 85920, Note_on_c, 0, 52, 21
1, 86160, Note_on_c, 0, 68, 0
1, 86160, Note_on_c, 0, 66, 45
1, 86280, Note_on_c, 0, 66, 0
1, 86340, Note_on_c, 0, 69, 35
1, 86400, Tempo, 437956
1, 86400, Note_on_c, 0, 69, 0
1, 86400, Note_on_c, 0, 52, 0
1, 86400, Note_on_c, 0, 62, 0
1, 86400, Note_on_c, 0, 66, 45
1, 86400, Note_on_c, 0, 45, 32
1, 86520, Note_on_c, 0, 66, 0
1, 86880, Tempo, 417827
1, 86880, Note_on_c, 0, 45, 0
1, 86880, Note_on_c, 0, 64, 42
1, 86880, Note_on_c, 0, 52, 19
1, 86880, Note_on_c, 0, 60, 23
1, 86972, Control_c, 0, 64, 127
1, 87360, Tempo, 430108
1, 87360, Note_on_c, 0, 60, 0
1, 87360, Note_on_c, 0, 52, 0
1, 87360, Note_on_c, 0, 52, 19
1, 87360, Note_on_c, 0, 60, 23
1, 87840, Tempo, 428571
1, 87840, Note_on_c, 0, 60, 0
1, 87840, Note_on_c, 0, 52, 0
1, 87840, Note_on_c, 0, 45, 32
1, 88320, Tempo, 419287
1, 88320, Note_on_c, 0, 45, 0
1, 88320, Note_on_c, 0, 64, 0
1, 88320, Note_on_c, 0, 52, 19
1, 88320, Note_on_c, 0, 60, 22
1, 88800, Tempo, 433213
1, 88800, Note_on_c, 0, 60, 0
1, 88800, Note_on_c, 0, 52, 0
1, 88800, Note_on_c, 0, 60, 23
1, 88800, Note_on_c, 0, 52, 19
1, 89227, Control_c, 0, 64, 0
1, 89280, Tempo, 430108
1, 89280, Note_on_c, 0, 52, 0
1, 89280, Note_on_c, 0, 60, 0
1, 89280, Note_on_c, 0, 67, 37
1, 89280, Note_on_c, 0, 76, 44
1, 89280, Note_on_c, 0, 64, 33
1, 89280, Note_on_c, 0, 60, 28
1, 89522, Note_on_c, 0, 60, 0
1, 89522, Note_on_c, 0, 67, 0
1, 89522, Note_on_c, 0, 76, 0
1, 89522, Note_on_c, 0, 64, 0
1, 89760, Tempo, 424028
1, 89760, Note_on_c, 0, 68, 40
1, 89760, Note_on_c, 0, 76, 48
1, 89760, Note_on_c, 0, 65, 36
1, 89760, Note_on_c, 0, 60, 30
1, 90002, Note_on_c, 0, 60, 0
1, 90002, Note_on_c, 0, 68, 0
1, 90002, Note_on_c, 0, 76, 0
1, 90002, Note_on_c, 0, 65, 0
1, 90240, Tempo, 421053
1, 90240, Note_on_c, 0, 76, 52
1, 90240, Note_on_c, 0, 69, 44
1, 90240, Note_on_c, 0, 60, 33
1, 90240, Note_on_c, 0, 66, 39
1, 90482, Note_on_c, 0, 66, 0
1, 90482, Note_on_c, 0, 76, 0
1, 90482, Note_on_c, 0, 69, 0
1, 90482, Note_on_c, 0, 60, 0
1, 90720, Tempo, 415225
1, 90720, Note_on_c, 0, 71, 45
1, 90720, Note_on_c, 0, 76, 54
1, 90720, Note_on_c, 0, 62, 38
1, 90720, Note_on_c, 0, 67, 45
1, 90720, Note_on_c, 0, 55, 38
1, 90784, Control_c, 0, 64, 127
1, 90880, Note_on_c, 0, 76, 0
1, 90880, Note_on_c, 0, 74, 44
1, 91040, Note_on_c, 0, 74, 0
1, 91040, Note_on_c, 0, 72, 44
1, 91200, Tempo, 416667
1, 91200, Note_on_c, 0, 72, 0
1, 91200, Note_on_c, 0, 74, 48
1, 91213, Control_c, 0, 64, 0
1, 91426, Control_c, 0, 64, 127
1, 91680, Tempo, 446097
1, 92160, Tempo, 428571
1, 92160, Note_on_c, 0, 74, 0
1, 92160, Note_on_c, 0, 55, 0
1, 92160, Note_on_c, 0, 71, 0
1, 92160, Note_on_c, 0, 62, 0
1, 92160, Note_on_c, 0, 67, 0
1, 92160, Note_on_c, 0, 72, 44
1, 92160, Note_on_c, 0, 64, 37
1, 92160, Note_on_c, 0, 57, 28
1, 92160, Note_on_c, 0, 60, 33
1, 92160, Control_c, 0, 64, 0
1, 92402, Note_on_c, 0, 60, 0
1, 92402, Note_on_c, 0, 72, 0
1, 92402, Note_on_c, 0, 64, 0
1, 92402, Note_on_c, 0, 57, 0
1, 92640, Tempo, 424028
1, 92640, Note_on_c, 0, 72, 48
1, 92640, Note_on_c, 0, 65, 40
1, 92640, Note_on_c, 0, 57, 30
1, 92640, Note_on_c, 0, 62, 36
1, 92882, Note_on_c, 0, 62, 0
1, 92882, Note_on_c, 0, 72, 0
1, 92882, Note_on_c, 0, 65, 0
1, 92882, Note_on_c, 0, 57, 0
1, 93120, Tempo, 421053
1, 93120, Note_on_c, 0, 72, 52
1, 93120, Note_on_c, 0, 66, 44
1, 93120, Note_on_c, 0, 63, 39
1, 93120, Note_on_c, 0, 57, 33
1, 93362, Note_on_c, 0, 57, 0
1, 93362, Note_on_c, 0, 72, 0
1, 93362, Note_on_c, 0, 66, 0
1, 93362, Note_on_c, 0, 63, 0
1, 93600, Tempo, 415225
1, 93600, Note_on_c, 0, 67, 45
1, 93600, Note_on_c, 0, 72, 54
1, 93600, Note_on_c, 0, 52, 38
1, 93600, Note_on_c, 0, 64, 45
1, 93600, Note_on_c, 0, 59, 38
1, 93713, Control_c, 0, 64, 127
1, 93760, Note_on_c, 0, 72, 0
1, 93760, Note_on_c, 0, 71, 44
1, 93920, Note_on_c, 0, 71, 0
1, 93920, Note_on_c, 0, 69, 44
1, 94080, Tempo, 416667
1, 94080, Note_on_c, 0, 69, 0
1, 94080, Note_on_c, 0, 71, 48
1, 94093, Control_c, 0, 64, 0
1, 94306, Control_c, 0, 64, 127
1, 94560, Tempo, 447761
1, 95040, Tempo, 409556
1, 95040, Note_on_c, 0, 71, 0
1, 95040, Note_on_c, 0, 59, 0
1, 95040, Note_on_c, 0, 67, 0
1, 95040, Note_on_c, 0, 52, 0
1, 95040, Note_on_c, 0, 64, 0
1, 95040, Note_on_c, 0, 71, 54
1, 95040, Note_on_c, 0, 65, 45
1, 95040, Note_on_c, 0, 53, 38
1, 95040, Note_on_c, 0, 60, 45
1, 95040, Control_c, 0, 64, 0
1, 95139, Control_c, 0, 64, 127
1, 95200, Note_on_c, 0, 71, 0
1, 95200, Note_on_c, 0, 69, 44
1, 95360, Note_on_c, 0, 69, 0
1, 95360, Note_on_c, 0, 67, 44
1, 95520, Tempo, 416667
1, 95520, Note_on_c, 0, 67, 0
1, 95520, Note_on_c, 0, 69, 48
1, 95533, Control_c, 0, 64, 0
1, 95746, Control_c, 0, 64, 127
1, 96480, Tempo, 409556
1, 96480, Note_on_c, 0, 69, 0
1, 96480, Note_on_c, 0, 60, 0
1, 96480, Note_on_c, 0, 53, 0
1, 96480, Note_on_c, 0, 65, 0
1, 96480, Note_on_c, 0, 67, 49
1, 96480, Note_on_c, 0, 65, 59
1, 96480, Note_on_c, 0, 55, 41
1, 96480, Note_on_c, 0, 60, 49
1, 96480, Control_c, 0, 64, 0
1, 96487, Note_on_c, 0, 48, 41
1, 96586, Control_c, 0, 64, 127
1, 96640, Note_on_c, 0, 65, 0
1, 96643, Note_on_c, 0, 64, 48
1, 96798, Note_on_c, 0, 62, 48
1, 96803, Note_on_c, 0, 64, 0
1, 96958, Note_on_c, 0, 62, 0
1, 96960, Tempo, 416667
1, 96960, Note_on_c, 0, 64, 52
1, 96973, Control_c, 0, 64, 0
1, 97186, Control_c, 0, 64, 127
1, 97920, Tempo, 450789
1, 97920, Note_on_c, 0, 64, 0
1, 97920, Note_on_c, 0, 60, 0
1, 97920, Note_on_c, 0, 67, 0
1, 97920, Note_on_c, 0, 55, 0
1, 97920, Note_on_c, 0, 60, 51
1, 97920, Note_on_c, 0, 65, 61
1, 97920, Note_on_c, 0, 57, 52
1, 97920, Note_on_c, 0, 50, 44
1, 97920, Control_c, 0, 64, 0
1, 97927, Note_on_c, 0, 48, 0
1, 98400, Tempo, 475813
1, 98400, Note_on_c, 0, 57, 0
1, 98400, Note_on_c, 0, 60, 0
1, 98400, Note_on_c, 0, 65, 0
1, 98400, Note_on_c, 0, 50, 0
1, 98400, Note_on_c, 0, 60, 51
1, 98400, Note_on_c, 0, 67, 61
1, 98400, Note_on_c, 0, 57, 50
1, 98400, Note_on_c, 0, 52, 42
1, 98520, Note_on_c, 0, 52, 0
1, 98520, Note_on_c, 0, 60, 0
1, 98520, Note_on_c, 0, 67, 0
1, 98520, Note_on_c, 0, 57, 0
1, 98640, Tempo, 499584
1, 98640, Note_on_c, 0, 60, 48
1, 98640, Note_on_c, 0, 69, 57
1, 98640, Note_on_c, 0, 57, 48
1, 98640, Note_on_c, 0, 53, 40
1, 98760, Note_on_c, 0, 53, 0
1, 98760, Note_on_c, 0, 60, 0
1, 98760, Note_on_c, 0, 69, 0
1, 98760, Note_on_c, 0, 57, 0
1, 98880, Tempo, 641026
1, 98880, Note_on_c, 0, 60, 56
1, 98880, Note_on_c, 0, 65, 66
1, 98880, Note_on_c, 0, 50, 48
1, 98880, Note_on_c, 0, 57, 57
1, 99060, Note_on_c, 0, 57, 0
1, 99060, Note_on_c, 0, 60, 0
1, 99060, Note_on_c, 0, 65, 0
1, 99060, Note_on_c, 0, 50, 0
1, 99360, Tempo, 943396
1, 99360, Note_on_c, 0, 59, 40
1, 99360, Note_on_c, 0, 62, 48
1, 99360, Note_on_c, 0, 57, 42
1, 99360, Note_on_c, 0, 53, 35
1, 99540, Note_on_c, 0, 53, 0
1, 99540, Note_on_c, 0, 59, 0
1, 99540, Note_on_c, 0, 62, 0
1, 99540, Note_on_c, 0, 57, 0
1, 99840, Tempo, 990099
1, 99840, Note_on_c, 0, 64, 41
1, 99840, Note_on_c, 0, 59, 34
1, 99840, Note_on_c, 0, 56, 42
1, 99840, Note_on_c, 0, 52, 35
1, 100080, Control_c, 0, 64, 127
1, 100800, Key_signature, 3, "major"
1, 100800, Tempo, 426743
1, 100800, Note_on_c, 0, 52, 0
1, 100800, Note_on_c, 0, 64, 0
1, 100800, Note_on_c, 0, 59, 0
1, 100800, Note_on_c, 0, 56, 0
1, 100800, Note_on_c, 0, 69, 46
1, 100800, Note_on_c, 0, 61, 36
1, 100800, Note_on_c, 0, 52, 31
1, 100800, Note_on_c, 0, 45, 27
1, 100854, Control_c, 0, 64, 0
1, 100913, Control_c, 0, 64, 127
1, 101280, Tempo, 414938
1, 101760, Tempo, 430108
1, 101760, Note_on_c, 0, 69, 0
1, 101760, Note_on_c, 0, 71, 48
1, 101772, Control_c, 0, 64, 0
1, 101845, Control_c, 0, 64, 127
1, 102000, Note_on_c, 0, 71, 0
1, 102000, Note_on_c, 0, 68, 45
1, 102180, Note_on_c, 0, 68, 0
1, 102180, Note_on_c, 0, 69, 35
1, 102240, Tempo, 437956
1, 102240, Note_on_c, 0, 69, 0
1, 102240, Note_on_c, 0, 61, 0
1, 102240, Note_on_c, 0, 62, 36
1, 102240, Note_on_c, 0, 66, 45
1, 102254, Control_c, 0, 64, 0
1, 102360, Control_c, 0, 64, 127
1, 102480, Note_on_c, 0, 66, 0
1, 102480, Note_on_c, 0, 64, 45
1, 102600, Note_on_c, 0, 64, 0
1, 102720, Tempo, 421053
1, 102720, Note_on_c, 0, 64, 42
1, 103200, Tempo, 442478
1, 103680, Tempo, 426743
1, 103680, Note_on_c, 0, 64, 0
1, 103680, Note_on_c, 0, 45, 0
1, 103680, Note_on_c, 0, 52, 0
1, 103680, Note_on_c, 0, 62, 0
1, 103680, Note_on_c, 0, 69, 46
1, 103680, Note_on_c, 0, 61, 36
1, 103680, Note_on_c, 0, 52, 31
1, 103680, Note_on_c, 0, 45, 27
1, 103698, Control_c, 0, 64, 0
1, 103860, Control_c, 0, 64, 127
1, 104160, Tempo, 416378
1, 104160, Note_on_c, 0, 69, 0
1, 104160, Note_on_c, 0, 71, 48
1, 104400, Note_on_c, 0, 71, 0
1, 104400, Note_on_c, 0, 73, 48
1, 104640, Tempo, 430108
1, 104640, Note_on_c, 0, 73, 0
1, 104640, Note_on_c, 0, 69, 48
1, 104668, Control_c, 0, 64, 0
1, 104750, Control_c, 0, 64, 127
1, 104880, Note_on_c, 0, 69, 0
1, 104880, Note_on_c, 0, 66, 45
1, 105060, Note_on_c, 0, 66, 0
1, 105060, Note_on_c, 0, 68, 35
1, 105120, Tempo, 437956
1, 105120, Note_on_c, 0, 68, 0
1, 105120, Note_on_c, 0, 61, 0
1, 105120, Note_on_c, 0, 62, 36
1, 105120, Note_on_c, 0, 66, 45
1, 105120, Control_c, 0, 64, 0
1, 105206, Control_c, 0, 64, 127
1, 105360, Note_on_c, 0, 66, 0
1, 105360, Note_on_c, 0, 64, 45
1, 105480, Note_on_c, 0, 64, 0
1, 105600, Tempo, 429799
1, 105600, Note_on_c, 0, 64, 42
1, 106080, Tempo, 505902
1, 106500, Note_on_c, 0, 64, 0
1, 106500, Note_on_c, 0, 62, 0
1, 106500, Note_on_c, 0, 69, 35
1, 106560, Tempo, 495458
1, 106560, Note_on_c, 0, 69, 0
1, 106560, Note_on_c, 0, 52, 0
1, 106560, Note_on_c, 0, 45, 0
1, 106560, Note_on_c, 0, 61, 36
1, 106560, Note_on_c, 0, 66, 45
1, 106560, Note_on_c, 0, 52, 31
1, 106560, Note_on_c, 0, 45, 27
1, 106680, Note_on_c, 0, 66, 0
1, 106730, Control_c, 0, 64, 0
1, 107040, Tempo, 479616
1, 107040, Note_on_c, 0, 64, 42
1, 107147, Control_c, 0, 64, 127
1, 108000, Tempo, 470219
1, 108454, Control_c, 0, 64, 0
1, 108480, Note_on_c, 0, 64, 0
1, 108480, Note_on_c, 0, 45, 0
1, 108480, Note_on_c, 0, 52, 0
1, 108480, Note_on_c, 0, 61, 0
1, 109380, Note_on_c, 0, 69, 31
1, 109440, Tempo, 557621
1, 109440, Note_on_c, 0, 69, 0
1, 109440, Note_on_c, 0, 60, 32
1, 109440, Note_on_c, 0, 65, 40
1, 109440, Note_on_c, 0, 52, 27
1, 109440, Note_on_c, 0, 45, 24
1, 109560, Note_on_c, 0, 65, 0
1, 109610, Control_c, 0, 64, 0
1, 109920, Tempo, 596421
1, 109920, Note_on_c, 0, 64, 37
1, 110027, Control_c, 0, 64, 127
1, 112320, Note_on_c, 0, 64, 0
1, 112320, Note_on_c, 0, 45, 0
1, 112320, Note_on_c, 0, 52, 0
1, 112320, Note_on_c, 0, 60, 0
1, 112320, Note_on_c, 0, 33, 24
1, 112800, Note_on_c, 0, 33, 0
1, 113337, Control_c, 0, 64, 0
1, 113337, End_track
0, 0, End_of_file
