0, 0, Header, 0, 1, 480
1, 0, Start_track
1, 0, Title_t, "Klaviersonate in G-Dur Hoboken XVI:40"
1, 0, Title_t, "2. Satz"
1, 0, Copyright_t, "Copyright © 1998 von Bernd Krüger. http://www.piano-midi.de"
1, 0, Text_t, "Joseph Haydn"
1, 0, Text_t, "Presto"
1, 0, Text_t, "Fertiggestellt am 1.2.98\012"
1, 0, Text_t, "Update am 5.10.99\012"
1, 0, Text_t, "Update am 21.6.2002\012"
1, 0, Text_t, "Normierung: 23.12.2002\012"
1, 0, Text_t, "Update am 29.11.2011\012"
1, 0, Text_t, "Dauer: 2:59 Minuten\012"
1, 0, Time_signature, 4, 2, 24, 8
1, 0, Key_signature, 1, "major"
1, 0, Tempo, 375000
1, 0, Marker_t, "Presto - Teil 1"
1, 0, Program_c, 0, 0
1, 0, Control_c, 0, 7, 100
1, 0, Control_c, 0, 10, 64
1, 0, Text_t, "bdca426d104a26ac9dcb070447587523"
1, 0, Program_c, 0, 0
1, 0, Control_c, 0, 7, 100
1, 0, Control_c, 0, 10, 64
1, 0, Control_c, 0, 91, 127
1, 1, Note_on_c, 0, 67, 60
1, 1, Note_on_c, 0, 59, 40
1, 1, Note_on_c, 0, 55, 34
1, 74, Control_c, 0, 64, 127
1, 240, Note_on_c, 0, 55, 34
1, 240, Note_on_c, 0, 59, 40
1, 241, Note_on_c, 0, 55, 0
1, 241, Note_on_c, 0, 59, 0
1, 360, Note_on_c, 0, 71, 48
1, 361, Note_on_c, 0, 67, 0
1, 381, Control_c, 0, 64, 0
1, 420, Note_on_c, 0, 71, 0
1, 420, Note_on_c, 0, 69, 48
1, 480, Note_on_c, 0, 69, 0
1, 480, Note_on_c, 0, 59, 0
1, 480, Note_on_c, 0, 55, 0
1, 480, Note_on_c, 0, 67, 56
1, 480, Note_on_c, 0, 59, 40
1, 480, Note_on_c, 0, 55, 34
1, 720, Note_on_c, 0, 55, 0
1, 720, Note_on_c, 0, 59, 0
1, 720, Note_on_c, 0, 67, 0
1, 720, Note_on_c, 0, 59, 39
1, 720, Note_on_c, 0, 55, 33
1, 960, Note_on_c, 0, 55, 0
1, 960, Note_on_c, 0, 59, 0
1, 960, Note_on_c, 0, 59, 40
1, 960, Note_on_c, 0, 55, 34
1, 1017, Control_c, 0, 64, 127
1, 1200, Note_on_c, 0, 55, 0
1, 1200, Note_on_c, 0, 59, 0
1, 1200, Note_on_c, 0, 62, 53
1, 1200, Note_on_c, 0, 59, 41
1, 1200, Note_on_c, 0, 55, 34
1, 1440, Note_on_c, 0, 55, 0
1, 1440, Note_on_c, 0, 59, 0
1, 1440, Note_on_c, 0, 62, 0
1, 1440, Note_on_c, 0, 67, 53
1, 1440, Note_on_c, 0, 59, 41
1, 1440, Note_on_c, 0, 55, 34
1, 1680, Note_on_c, 0, 55, 0
1, 1680, Note_on_c, 0, 59, 0
1, 1680, Note_on_c, 0, 67, 0
1, 1680, Note_on_c, 0, 71, 53
1, 1680, Note_on_c, 0, 59, 41
1, 1680, Note_on_c, 0, 55, 34
1, 1920, Tempo, 368098
1, 1920, Note_on_c, 0, 55, 0
1, 1920, Note_on_c, 0, 59, 0
1, 1920, Note_on_c, 0, 71, 0
1, 1920, Note_on_c, 0, 71, 57
1, 1920, Note_on_c, 0, 60, 44
1, 1920, Note_on_c, 0, 55, 37
1, 1920, Control_c, 0, 64, 0
1, 2040, Note_on_c, 0, 71, 0
1, 2040, Note_on_c, 0, 69, 54
1, 2160, Note_on_c, 0, 69, 0
1, 2160, Note_on_c, 0, 67, 54
1, 2280, Note_on_c, 0, 67, 0
1, 2280, Note_on_c, 0, 69, 54
1, 2400, Note_on_c, 0, 69, 0
1, 2400, Note_on_c, 0, 55, 0
1, 2400, Note_on_c, 0, 60, 0
1, 2400, Note_on_c, 0, 67, 57
1, 2400, Note_on_c, 0, 55, 34
1, 2400, Note_on_c, 0, 59, 41
1, 2640, Tempo, 357143
1, 2640, Note_on_c, 0, 59, 0
1, 2640, Note_on_c, 0, 55, 0
1, 2640, Note_on_c, 0, 67, 0
1, 2640, Note_on_c, 0, 74, 54
1, 2880, Note_on_c, 0, 74, 0
1, 2880, Note_on_c, 0, 74, 54
1, 2880, Note_on_c, 0, 65, 41
1, 2880, Note_on_c, 0, 67, 41
1, 3000, Note_on_c, 0, 67, 0
1, 3000, Note_on_c, 0, 65, 0
1, 3000, Note_on_c, 0, 74, 0
1, 3120, Note_on_c, 0, 74, 54
1, 3120, Note_on_c, 0, 65, 41
1, 3120, Note_on_c, 0, 67, 41
1, 3240, Note_on_c, 0, 67, 0
1, 3240, Note_on_c, 0, 65, 0
1, 3240, Note_on_c, 0, 74, 0
1, 3360, Note_on_c, 0, 74, 54
1, 3360, Note_on_c, 0, 67, 41
1, 3360, Note_on_c, 0, 65, 41
1, 3480, Note_on_c, 0, 65, 0
1, 3480, Note_on_c, 0, 67, 0
1, 3480, Note_on_c, 0, 74, 0
1, 3600, Tempo, 348837
1, 3600, Note_on_c, 0, 74, 54
1, 3600, Note_on_c, 0, 65, 41
1, 3600, Note_on_c, 0, 67, 41
1, 3720, Note_on_c, 0, 67, 0
1, 3720, Note_on_c, 0, 65, 0
1, 3720, Note_on_c, 0, 74, 0
1, 3840, Tempo, 358209
1, 3840, Note_on_c, 0, 74, 57
1, 3840, Note_on_c, 0, 67, 46
1, 3840, Note_on_c, 0, 64, 46
1, 3932, Control_c, 0, 64, 127
1, 4200, Note_on_c, 0, 74, 0
1, 4200, Note_on_c, 0, 76, 47
1, 4214, Control_c, 0, 64, 0
1, 4260, Note_on_c, 0, 76, 0
1, 4260, Note_on_c, 0, 74, 47
1, 4320, Note_on_c, 0, 74, 0
1, 4320, Note_on_c, 0, 72, 52
1, 4560, Note_on_c, 0, 72, 0
1, 4560, Note_on_c, 0, 64, 0
1, 4560, Note_on_c, 0, 67, 0
1, 4560, Note_on_c, 0, 71, 50
1, 4560, Note_on_c, 0, 65, 41
1, 4560, Note_on_c, 0, 62, 41
1, 4800, Tempo, 369231
1, 4800, Note_on_c, 0, 62, 0
1, 4800, Note_on_c, 0, 65, 0
1, 4800, Note_on_c, 0, 71, 0
1, 4800, Note_on_c, 0, 69, 52
1, 4800, Note_on_c, 0, 64, 49
1, 4800, Note_on_c, 0, 60, 49
1, 4899, Control_c, 0, 64, 127
1, 5040, Tempo, 361446
1, 5040, Note_on_c, 0, 69, 0
1, 5040, Note_on_c, 0, 81, 68
1, 5280, Note_on_c, 0, 60, 0
1, 5280, Note_on_c, 0, 64, 0
1, 5280, Note_on_c, 0, 61, 50
1, 5280, Note_on_c, 0, 64, 50
1, 5292, Control_c, 0, 64, 0
1, 5354, Control_c, 0, 64, 127
1, 5520, Note_on_c, 0, 81, 0
1, 5520, Note_on_c, 0, 79, 65
1, 5760, Tempo, 358209
1, 5760, Note_on_c, 0, 79, 0
1, 5760, Note_on_c, 0, 64, 0
1, 5760, Note_on_c, 0, 61, 0
1, 5760, Note_on_c, 0, 79, 63
1, 5760, Note_on_c, 0, 62, 46
1, 5771, Control_c, 0, 64, 0
1, 5845, Control_c, 0, 64, 127
1, 5880, Note_on_c, 0, 79, 0
1, 5880, Note_on_c, 0, 78, 54
1, 6000, Note_on_c, 0, 78, 0
1, 6000, Note_on_c, 0, 76, 54
1, 6120, Note_on_c, 0, 76, 0
1, 6120, Note_on_c, 0, 74, 54
1, 6240, Tempo, 366972
1, 6240, Note_on_c, 0, 74, 0
1, 6240, Note_on_c, 0, 62, 0
1, 6240, Note_on_c, 0, 74, 54
1, 6255, Control_c, 0, 64, 0
1, 6367, Control_c, 0, 64, 127
1, 6480, Tempo, 358209
1, 6480, Note_on_c, 0, 74, 0
1, 6480, Note_on_c, 0, 74, 56
1, 6720, Note_on_c, 0, 74, 0
1, 6720, Note_on_c, 0, 74, 54
1, 6737, Control_c, 0, 64, 0
1, 6840, Note_on_c, 0, 74, 0
1, 6840, Note_on_c, 0, 76, 52
1, 6960, Note_on_c, 0, 76, 0
1, 6960, Note_on_c, 0, 72, 54
1, 7080, Note_on_c, 0, 72, 0
1, 7080, Note_on_c, 0, 74, 52
1, 7200, Note_on_c, 0, 74, 0
1, 7200, Note_on_c, 0, 71, 54
1, 7320, Note_on_c, 0, 71, 0
1, 7320, Note_on_c, 0, 72, 51
1, 7440, Note_on_c, 0, 72, 0
1, 7440, Note_on_c, 0, 69, 54
1, 7560, Note_on_c, 0, 69, 0
1, 7560, Note_on_c, 0, 71, 52
1, 7680, Tempo, 375000
1, 7680, Note_on_c, 0, 71, 0
1, 7680, Control_c, 0, 91, 127
1, 7680, Control_c, 0, 91, 127
1, 7681, Note_on_c, 0, 67, 60
1, 7681, Note_on_c, 0, 55, 34
1, 7681, Note_on_c, 0, 59, 40
1, 7754, Control_c, 0, 64, 127
1, 7920, Note_on_c, 0, 59, 40
1, 7920, Note_on_c, 0, 55, 34
1, 7921, Note_on_c, 0, 59, 0
1, 7921, Note_on_c, 0, 55, 0
1, 8040, Note_on_c, 0, 71, 46
1, 8041, Note_on_c, 0, 67, 0
1, 8048, Control_c, 0, 64, 0
1, 8100, Note_on_c, 0, 71, 0
1, 8100, Note_on_c, 0, 69, 47
1, 8160, Note_on_c, 0, 69, 0
1, 8160, Note_on_c, 0, 55, 0
1, 8160, Note_on_c, 0, 59, 0
1, 8160, Note_on_c, 0, 67, 56
1, 8160, Note_on_c, 0, 55, 34
1, 8160, Note_on_c, 0, 59, 40
1, 8400, Note_on_c, 0, 59, 0
1, 8400, Note_on_c, 0, 55, 0
1, 8400, Note_on_c, 0, 67, 0
1, 8400, Note_on_c, 0, 55, 33
1, 8400, Note_on_c, 0, 59, 39
1, 8640, Note_on_c, 0, 59, 0
1, 8640, Note_on_c, 0, 55, 0
1, 8640, Note_on_c, 0, 55, 34
1, 8640, Note_on_c, 0, 59, 40
1, 8711, Control_c, 0, 64, 127
1, 8880, Tempo, 368098
1, 8880, Note_on_c, 0, 59, 0
1, 8880, Note_on_c, 0, 55, 0
1, 8880, Note_on_c, 0, 62, 53
1, 8880, Note_on_c, 0, 59, 41
1, 8880, Note_on_c, 0, 55, 34
1, 9120, Note_on_c, 0, 55, 0
1, 9120, Note_on_c, 0, 59, 0
1, 9120, Note_on_c, 0, 62, 0
1, 9120, Note_on_c, 0, 67, 53
1, 9120, Note_on_c, 0, 55, 34
1, 9120, Note_on_c, 0, 59, 41
1, 9360, Note_on_c, 0, 59, 0
1, 9360, Note_on_c, 0, 55, 0
1, 9360, Note_on_c, 0, 67, 0
1, 9360, Note_on_c, 0, 71, 53
1, 9360, Note_on_c, 0, 55, 34
1, 9360, Note_on_c, 0, 59, 41
1, 9600, Tempo, 368098
1, 9600, Note_on_c, 0, 59, 0
1, 9600, Note_on_c, 0, 55, 0
1, 9600, Note_on_c, 0, 71, 0
1, 9600, Note_on_c, 0, 71, 57
1, 9600, Note_on_c, 0, 60, 44
1, 9600, Note_on_c, 0, 55, 44
1, 9600, Control_c, 0, 64, 0
1, 9720, Note_on_c, 0, 71, 0
1, 9720, Note_on_c, 0, 69, 54
1, 9840, Note_on_c, 0, 69, 0
1, 9840, Note_on_c, 0, 67, 54
1, 9960, Note_on_c, 0, 67, 0
1, 9960, Note_on_c, 0, 69, 54
1, 10080, Note_on_c, 0, 69, 0
1, 10080, Note_on_c, 0, 55, 0
1, 10080, Note_on_c, 0, 60, 0
1, 10080, Note_on_c, 0, 67, 57
1, 10080, Note_on_c, 0, 59, 41
1, 10080, Note_on_c, 0, 55, 41
1, 10320, Tempo, 357143
1, 10320, Note_on_c, 0, 55, 0
1, 10320, Note_on_c, 0, 59, 0
1, 10320, Note_on_c, 0, 67, 0
1, 10320, Note_on_c, 0, 76, 54
1, 10560, Note_on_c, 0, 76, 0
1, 10560, Note_on_c, 0, 76, 54
1, 10560, Note_on_c, 0, 71, 41
1, 10560, Note_on_c, 0, 67, 41
1, 10680, Note_on_c, 0, 67, 0
1, 10680, Note_on_c, 0, 71, 0
1, 10680, Note_on_c, 0, 76, 0
1, 10800, Note_on_c, 0, 76, 54
1, 10800, Note_on_c, 0, 71, 41
1, 10800, Note_on_c, 0, 67, 41
1, 10920, Note_on_c, 0, 67, 0
1, 10920, Note_on_c, 0, 71, 0
1, 10920, Note_on_c, 0, 76, 0
1, 11040, Note_on_c, 0, 76, 54
1, 11040, Note_on_c, 0, 71, 41
1, 11040, Note_on_c, 0, 67, 41
1, 11160, Note_on_c, 0, 67, 0
1, 11160, Note_on_c, 0, 71, 0
1, 11160, Note_on_c, 0, 76, 0
1, 11280, Tempo, 348837
1, 11280, Note_on_c, 0, 76, 54
1, 11280, Note_on_c, 0, 67, 41
1, 11280, Note_on_c, 0, 71, 41
1, 11400, Note_on_c, 0, 71, 0
1, 11400, Note_on_c, 0, 67, 0
1, 11400, Note_on_c, 0, 76, 0
1, 11520, Tempo, 357143
1, 11520, Note_on_c, 0, 76, 57
1, 11520, Note_on_c, 0, 67, 39
1, 11520, Note_on_c, 0, 71, 46
1, 11566, Control_c, 0, 64, 127
1, 11760, Note_on_c, 0, 71, 0
1, 11760, Note_on_c, 0, 67, 0
1, 11760, Note_on_c, 0, 67, 39
1, 11760, Note_on_c, 0, 71, 46
1, 11880, Note_on_c, 0, 76, 0
1, 11880, Note_on_c, 0, 79, 50
1, 11940, Note_on_c, 0, 79, 0
1, 11940, Note_on_c, 0, 81, 52
1, 12000, Note_on_c, 0, 81, 0
1, 12000, Note_on_c, 0, 71, 0
1, 12000, Note_on_c, 0, 67, 0
1, 12000, Note_on_c, 0, 83, 60
1, 12000, Note_on_c, 0, 71, 46
1, 12000, Note_on_c, 0, 67, 39
1, 12018, Control_c, 0, 64, 0
1, 12052, Control_c, 0, 64, 127
1, 12240, Note_on_c, 0, 67, 0
1, 12240, Note_on_c, 0, 71, 0
1, 12240, Note_on_c, 0, 71, 46
1, 12240, Note_on_c, 0, 67, 39
1, 12360, Tempo, 348837
1, 12360, Note_on_c, 0, 83, 0
1, 12360, Note_on_c, 0, 79, 49
1, 12420, Note_on_c, 0, 79, 0
1, 12420, Note_on_c, 0, 76, 49
1, 12480, Tempo, 363636
1, 12480, Note_on_c, 0, 76, 0
1, 12480, Note_on_c, 0, 67, 0
1, 12480, Note_on_c, 0, 71, 0
1, 12480, Note_on_c, 0, 74, 60
1, 12480, Note_on_c, 0, 57, 39
1, 12480, Note_on_c, 0, 66, 46
1, 12494, Control_c, 0, 64, 0
1, 12580, Control_c, 0, 64, 127
1, 12720, Note_on_c, 0, 66, 0
1, 12720, Note_on_c, 0, 57, 0
1, 12720, Note_on_c, 0, 57, 39
1, 12720, Note_on_c, 0, 66, 46
1, 12960, Tempo, 358209
1, 12960, Note_on_c, 0, 66, 0
1, 12960, Note_on_c, 0, 57, 0
1, 12960, Note_on_c, 0, 74, 0
1, 12960, Note_on_c, 0, 73, 52
1, 12960, Note_on_c, 0, 57, 39
1, 12960, Note_on_c, 0, 64, 46
1, 12975, Control_c, 0, 64, 0
1, 13020, Control_c, 0, 64, 127
1, 13040, Note_on_c, 0, 73, 0
1, 13040, Note_on_c, 0, 74, 43
1, 13120, Note_on_c, 0, 74, 0
1, 13120, Note_on_c, 0, 73, 48
1, 13200, Note_on_c, 0, 73, 0
1, 13200, Note_on_c, 0, 64, 0
1, 13200, Note_on_c, 0, 57, 0
1, 13200, Note_on_c, 0, 74, 43
1, 13200, Note_on_c, 0, 64, 46
1, 13200, Note_on_c, 0, 57, 39
1, 13260, Note_on_c, 0, 74, 0
1, 13260, Note_on_c, 0, 73, 48
1, 13320, Note_on_c, 0, 73, 0
1, 13320, Note_on_c, 0, 74, 42
1, 13380, Note_on_c, 0, 74, 0
1, 13380, Note_on_c, 0, 73, 47
1, 13440, Note_on_c, 0, 73, 0
1, 13440, Note_on_c, 0, 57, 0
1, 13440, Note_on_c, 0, 64, 0
1, 13440, Note_on_c, 0, 74, 52
1, 13440, Note_on_c, 0, 62, 37
1, 13440, Note_on_c, 0, 66, 44
1, 13440, Control_c, 0, 64, 0
1, 13560, Note_on_c, 0, 74, 0
1, 13560, Note_on_c, 0, 76, 49
1, 13680, Note_on_c, 0, 76, 0
1, 13680, Note_on_c, 0, 66, 0
1, 13680, Note_on_c, 0, 62, 0
1, 13680, Note_on_c, 0, 78, 50
1, 13680, Note_on_c, 0, 62, 32
1, 13680, Note_on_c, 0, 66, 38
1, 13800, Note_on_c, 0, 78, 0
1, 13800, Note_on_c, 0, 79, 51
1, 13920, Note_on_c, 0, 79, 0
1, 13920, Note_on_c, 0, 66, 0
1, 13920, Note_on_c, 0, 62, 0
1, 13920, Note_on_c, 0, 81, 51
1, 13920, Note_on_c, 0, 66, 38
1, 13920, Note_on_c, 0, 62, 32
1, 14040, Note_on_c, 0, 81, 0
1, 14040, Note_on_c, 0, 78, 51
1, 14160, Note_on_c, 0, 78, 0
1, 14160, Note_on_c, 0, 62, 0
1, 14160, Note_on_c, 0, 66, 0
1, 14160, Note_on_c, 0, 76, 50
1, 14160, Note_on_c, 0, 62, 32
1, 14160, Note_on_c, 0, 66, 38
1, 14280, Note_on_c, 0, 76, 0
1, 14280, Note_on_c, 0, 74, 50
1, 14400, Note_on_c, 0, 74, 0
1, 14400, Note_on_c, 0, 66, 0
1, 14400, Note_on_c, 0, 62, 0
1, 14400, Note_on_c, 0, 73, 53
1, 14400, Note_on_c, 0, 62, 36
1, 14400, Note_on_c, 0, 67, 43
1, 14520, Note_on_c, 0, 73, 0
1, 14520, Note_on_c, 0, 74, 48
1, 14640, Note_on_c, 0, 74, 0
1, 14640, Note_on_c, 0, 67, 0
1, 14640, Note_on_c, 0, 62, 0
1, 14640, Note_on_c, 0, 76, 49
1, 14640, Note_on_c, 0, 62, 32
1, 14640, Note_on_c, 0, 67, 38
1, 14760, Note_on_c, 0, 76, 0
1, 14760, Note_on_c, 0, 78, 49
1, 14880, Note_on_c, 0, 78, 0
1, 14880, Note_on_c, 0, 67, 0
1, 14880, Note_on_c, 0, 62, 0
1, 14880, Note_on_c, 0, 79, 49
1, 14880, Note_on_c, 0, 62, 32
1, 14880, Note_on_c, 0, 67, 38
1, 15000, Note_on_c, 0, 79, 0
1, 15000, Note_on_c, 0, 76, 49
1, 15120, Note_on_c, 0, 76, 0
1, 15120, Note_on_c, 0, 67, 0
1, 15120, Note_on_c, 0, 62, 0
1, 15120, Note_on_c, 0, 74, 48
1, 15120, Note_on_c, 0, 67, 38
1, 15120, Note_on_c, 0, 62, 32
1, 15240, Note_on_c, 0, 74, 0
1, 15240, Note_on_c, 0, 73, 48
1, 15360, Note_on_c, 0, 73, 0
1, 15360, Note_on_c, 0, 62, 0
1, 15360, Note_on_c, 0, 67, 0
1, 15360, Note_on_c, 0, 74, 52
1, 15360, Note_on_c, 0, 66, 44
1, 15360, Note_on_c, 0, 62, 37
1, 15480, Note_on_c, 0, 74, 0
1, 15480, Note_on_c, 0, 76, 47
1, 15600, Note_on_c, 0, 76, 0
1, 15600, Note_on_c, 0, 62, 0
1, 15600, Note_on_c, 0, 66, 0
1, 15600, Note_on_c, 0, 78, 48
1, 15600, Note_on_c, 0, 66, 38
1, 15600, Note_on_c, 0, 62, 32
1, 15720, Note_on_c, 0, 78, 0
1, 15720, Note_on_c, 0, 79, 49
1, 15840, Note_on_c, 0, 79, 0
1, 15840, Note_on_c, 0, 62, 0
1, 15840, Note_on_c, 0, 66, 0
1, 15840, Note_on_c, 0, 81, 50
1, 15840, Note_on_c, 0, 66, 38
1, 15840, Note_on_c, 0, 62, 32
1, 15960, Note_on_c, 0, 81, 0
1, 15960, Note_on_c, 0, 78, 49
1, 16080, Note_on_c, 0, 78, 0
1, 16080, Note_on_c, 0, 62, 0
1, 16080, Note_on_c, 0, 66, 0
1, 16080, Note_on_c, 0, 76, 48
1, 16080, Note_on_c, 0, 66, 38
1, 16080, Note_on_c, 0, 62, 32
1, 16200, Note_on_c, 0, 76, 0
1, 16200, Note_on_c, 0, 74, 47
1, 16320, Note_on_c, 0, 74, 0
1, 16320, Note_on_c, 0, 62, 0
1, 16320, Note_on_c, 0, 66, 0
1, 16320, Note_on_c, 0, 73, 53
1, 16320, Note_on_c, 0, 67, 44
1, 16320, Note_on_c, 0, 62, 37
1, 16440, Note_on_c, 0, 73, 0
1, 16440, Note_on_c, 0, 74, 47
1, 16560, Note_on_c, 0, 74, 0
1, 16560, Note_on_c, 0, 62, 0
1, 16560, Note_on_c, 0, 67, 0
1, 16560, Note_on_c, 0, 76, 47
1, 16560, Note_on_c, 0, 67, 38
1, 16560, Note_on_c, 0, 62, 32
1, 16680, Note_on_c, 0, 76, 0
1, 16680, Note_on_c, 0, 78, 48
1, 16800, Note_on_c, 0, 78, 0
1, 16800, Note_on_c, 0, 62, 0
1, 16800, Note_on_c, 0, 67, 0
1, 16800, Note_on_c, 0, 79, 49
1, 16800, Note_on_c, 0, 67, 38
1, 16800, Note_on_c, 0, 62, 32
1, 16920, Note_on_c, 0, 79, 0
1, 16920, Note_on_c, 0, 76, 49
1, 17040, Note_on_c, 0, 76, 0
1, 17040, Note_on_c, 0, 62, 0
1, 17040, Note_on_c, 0, 67, 0
1, 17040, Note_on_c, 0, 74, 48
1, 17040, Note_on_c, 0, 67, 38
1, 17040, Note_on_c, 0, 62, 32
1, 17160, Note_on_c, 0, 74, 0
1, 17160, Note_on_c, 0, 73, 48
1, 17280, Tempo, 382166
1, 17280, Note_on_c, 0, 73, 0
1, 17280, Note_on_c, 0, 62, 0
1, 17280, Note_on_c, 0, 67, 0
1, 17280, Note_on_c, 0, 74, 58
1, 17280, Note_on_c, 0, 66, 45
1, 17280, Note_on_c, 0, 62, 38
1, 17346, Control_c, 0, 64, 127
1, 17700, Note_on_c, 0, 74, 0
1, 17700, Note_on_c, 0, 85, 77
1, 17760, Note_on_c, 0, 85, 0
1, 17760, Note_on_c, 0, 62, 0
1, 17760, Note_on_c, 0, 66, 0
1, 17760, Note_on_c, 0, 86, 87
1, 17775, Control_c, 0, 64, 0
1, 17900, Control_c, 0, 64, 127
1, 18240, Note_on_c, 0, 86, 0
1, 18240, Note_on_c, 0, 38, 69
1, 18240, Note_on_c, 0, 50, 69
1, 18720, Note_on_c, 0, 50, 0
1, 18720, Note_on_c, 0, 38, 0
1, 18749, Control_c, 0, 64, 0
1, 19200, Tempo, 375000
1, 19200, Marker_t, "Teil 1 Wiederholung"
1, 19200, Control_c, 0, 91, 127
1, 19200, Control_c, 0, 91, 127
1, 19201, Note_on_c, 0, 67, 60
1, 19201, Note_on_c, 0, 55, 34
1, 19201, Note_on_c, 0, 59, 40
1, 19271, Control_c, 0, 64, 127
1, 19440, Note_on_c, 0, 55, 34
1, 19440, Note_on_c, 0, 59, 40
1, 19441, Note_on_c, 0, 59, 0
1, 19441, Note_on_c, 0, 55, 0
1, 19560, Note_on_c, 0, 71, 48
1, 19561, Note_on_c, 0, 67, 0
1, 19581, Control_c, 0, 64, 0
1, 19620, Note_on_c, 0, 71, 0
1, 19620, Note_on_c, 0, 69, 48
1, 19680, Note_on_c, 0, 69, 0
1, 19680, Note_on_c, 0, 59, 0
1, 19680, Note_on_c, 0, 55, 0
1, 19680, Note_on_c, 0, 67, 56
1, 19680, Note_on_c, 0, 55, 34
1, 19680, Note_on_c, 0, 59, 40
1, 19920, Note_on_c, 0, 59, 0
1, 19920, Note_on_c, 0, 55, 0
1, 19920, Note_on_c, 0, 67, 0
1, 19920, Note_on_c, 0, 55, 33
1, 19920, Note_on_c, 0, 59, 39
1, 20160, Note_on_c, 0, 59, 0
1, 20160, Note_on_c, 0, 55, 0
1, 20160, Note_on_c, 0, 55, 34
1, 20160, Note_on_c, 0, 59, 40
1, 20217, Control_c, 0, 64, 127
1, 20400, Note_on_c, 0, 59, 0
1, 20400, Note_on_c, 0, 55, 0
1, 20400, Note_on_c, 0, 62, 53
1, 20400, Note_on_c, 0, 55, 34
1, 20400, Note_on_c, 0, 59, 41
1, 20640, Note_on_c, 0, 59, 0
1, 20640, Note_on_c, 0, 55, 0
1, 20640, Note_on_c, 0, 62, 0
1, 20640, Note_on_c, 0, 67, 53
1, 20640, Note_on_c, 0, 55, 34
1, 20640, Note_on_c, 0, 59, 41
1, 20880, Note_on_c, 0, 59, 0
1, 20880, Note_on_c, 0, 55, 0
1, 20880, Note_on_c, 0, 67, 0
1, 20880, Note_on_c, 0, 71, 53
1, 20880, Note_on_c, 0, 55, 34
1, 20880, Note_on_c, 0, 59, 41
1, 21120, Tempo, 368098
1, 21120, Note_on_c, 0, 59, 0
1, 21120, Note_on_c, 0, 55, 0
1, 21120, Note_on_c, 0, 71, 0
1, 21120, Note_on_c, 0, 71, 57
1, 21120, Note_on_c, 0, 55, 37
1, 21120, Note_on_c, 0, 60, 44
1, 21120, Control_c, 0, 64, 0
1, 21240, Note_on_c, 0, 71, 0
1, 21240, Note_on_c, 0, 69, 54
1, 21360, Note_on_c, 0, 69, 0
1, 21360, Note_on_c, 0, 67, 54
1, 21480, Note_on_c, 0, 67, 0
1, 21480, Note_on_c, 0, 69, 54
1, 21600, Note_on_c, 0, 69, 0
1, 21600, Note_on_c, 0, 60, 0
1, 21600, Note_on_c, 0, 55, 0
1, 21600, Note_on_c, 0, 67, 57
1, 21600, Note_on_c, 0, 55, 34
1, 21600, Note_on_c, 0, 59, 41
1, 21840, Tempo, 357143
1, 21840, Note_on_c, 0, 59, 0
1, 21840, Note_on_c, 0, 55, 0
1, 21840, Note_on_c, 0, 67, 0
1, 21840, Note_on_c, 0, 74, 54
1, 22080, Note_on_c, 0, 74, 0
1, 22080, Note_on_c, 0, 74, 54
1, 22080, Note_on_c, 0, 65, 41
1, 22080, Note_on_c, 0, 67, 41
1, 22200, Note_on_c, 0, 67, 0
1, 22200, Note_on_c, 0, 65, 0
1, 22200, Note_on_c, 0, 74, 0
1, 22320, Note_on_c, 0, 74, 54
1, 22320, Note_on_c, 0, 65, 41
1, 22320, Note_on_c, 0, 67, 41
1, 22440, Note_on_c, 0, 67, 0
1, 22440, Note_on_c, 0, 65, 0
1, 22440, Note_on_c, 0, 74, 0
1, 22560, Note_on_c, 0, 74, 54
1, 22560, Note_on_c, 0, 65, 41
1, 22560, Note_on_c, 0, 67, 41
1, 22680, Note_on_c, 0, 67, 0
1, 22680, Note_on_c, 0, 65, 0
1, 22680, Note_on_c, 0, 74, 0
1, 22800, Tempo, 348837
1, 22800, Note_on_c, 0, 74, 54
1, 22800, Note_on_c, 0, 67, 41
1, 22800, Note_on_c, 0, 65, 41
1, 22920, Note_on_c, 0, 65, 0
1, 22920, Note_on_c, 0, 67, 0
1, 22920, Note_on_c, 0, 74, 0
1, 23040, Tempo, 358209
1, 23040, Note_on_c, 0, 74, 57
1, 23040, Note_on_c, 0, 64, 46
1, 23040, Note_on_c, 0, 67, 46
1, 23132, Control_c, 0, 64, 127
1, 23400, Note_on_c, 0, 74, 0
1, 23400, Note_on_c, 0, 76, 47
1, 23414, Control_c, 0, 64, 0
1, 23460, Note_on_c, 0, 76, 0
1, 23460, Note_on_c, 0, 74, 47
1, 23520, Note_on_c, 0, 74, 0
1, 23520, Note_on_c, 0, 72, 52
1, 23760, Note_on_c, 0, 72, 0
1, 23760, Note_on_c, 0, 67, 0
1, 23760, Note_on_c, 0, 64, 0
1, 23760, Note_on_c, 0, 71, 50
1, 23760, Note_on_c, 0, 62, 41
1, 23760, Note_on_c, 0, 65, 41
1, 24000, Tempo, 369231
1, 24000, Note_on_c, 0, 65, 0
1, 24000, Note_on_c, 0, 62, 0
1, 24000, Note_on_c, 0, 71, 0
1, 24000, Note_on_c, 0, 69, 52
1, 24000, Note_on_c, 0, 60, 49
1, 24000, Note_on_c, 0, 64, 49
1, 24099, Control_c, 0, 64, 127
1, 24240, Tempo, 361446
1, 24240, Note_on_c, 0, 69, 0
1, 24240, Note_on_c, 0, 81, 68
1, 24480, Note_on_c, 0, 64, 0
1, 24480, Note_on_c, 0, 60, 0
1, 24480, Note_on_c, 0, 61, 50
1, 24480, Note_on_c, 0, 64, 50
1, 24492, Control_c, 0, 64, 0
1, 24554, Control_c, 0, 64, 127
1, 24720, Note_on_c, 0, 81, 0
1, 24720, Note_on_c, 0, 79, 65
1, 24960, Tempo, 358209
1, 24960, Note_on_c, 0, 79, 0
1, 24960, Note_on_c, 0, 64, 0
1, 24960, Note_on_c, 0, 61, 0
1, 24960, Note_on_c, 0, 79, 63
1, 24960, Note_on_c, 0, 62, 46
1, 24971, Control_c, 0, 64, 0
1, 25045, Control_c, 0, 64, 127
1, 25080, Note_on_c, 0, 79, 0
1, 25080, Note_on_c, 0, 78, 54
1, 25200, Note_on_c, 0, 78, 0
1, 25200, Note_on_c, 0, 76, 54
1, 25320, Note_on_c, 0, 76, 0
1, 25320, Note_on_c, 0, 74, 54
1, 25440, Tempo, 366972
1, 25440, Note_on_c, 0, 74, 0
1, 25440, Note_on_c, 0, 62, 0
1, 25440, Note_on_c, 0, 74, 54
1, 25455, Control_c, 0, 64, 0
1, 25567, Control_c, 0, 64, 127
1, 25680, Tempo, 358209
1, 25680, Note_on_c, 0, 74, 0
1, 25680, Note_on_c, 0, 74, 56
1, 25920, Note_on_c, 0, 74, 0
1, 25920, Note_on_c, 0, 74, 54
1, 25937, Control_c, 0, 64, 0
1, 26040, Note_on_c, 0, 74, 0
1, 26040, Note_on_c, 0, 76, 52
1, 26160, Note_on_c, 0, 76, 0
1, 26160, Note_on_c, 0, 72, 54
1, 26280, Note_on_c, 0, 72, 0
1, 26280, Note_on_c, 0, 74, 52
1, 26400, Note_on_c, 0, 74, 0
1, 26400, Note_on_c, 0, 71, 54
1, 26520, Note_on_c, 0, 71, 0
1, 26520, Note_on_c, 0, 72, 51
1, 26640, Note_on_c, 0, 72, 0
1, 26640, Note_on_c, 0, 69, 54
1, 26760, Note_on_c, 0, 69, 0
1, 26760, Note_on_c, 0, 71, 52
1, 26880, Tempo, 375000
1, 26880, Note_on_c, 0, 71, 0
1, 26880, Control_c, 0, 91, 127
1, 26880, Control_c, 0, 91, 127
1, 26881, Note_on_c, 0, 67, 60
1, 26881, Note_on_c, 0, 55, 34
1, 26881, Note_on_c, 0, 59, 40
1, 26954, Control_c, 0, 64, 127
1, 27120, Note_on_c, 0, 55, 34
1, 27120, Note_on_c, 0, 59, 40
1, 27121, Note_on_c, 0, 59, 0
1, 27121, Note_on_c, 0, 55, 0
1, 27240, Note_on_c, 0, 71, 46
1, 27241, Note_on_c, 0, 67, 0
1, 27248, Control_c, 0, 64, 0
1, 27300, Note_on_c, 0, 71, 0
1, 27300, Note_on_c, 0, 69, 47
1, 27360, Note_on_c, 0, 69, 0
1, 27360, Note_on_c, 0, 59, 0
1, 27360, Note_on_c, 0, 55, 0
1, 27360, Note_on_c, 0, 67, 56
1, 27360, Note_on_c, 0, 55, 34
1, 27360, Note_on_c, 0, 59, 40
1, 27600, Note_on_c, 0, 59, 0
1, 27600, Note_on_c, 0, 55, 0
1, 27600, Note_on_c, 0, 67, 0
1, 27600, Note_on_c, 0, 55, 33
1, 27600, Note_on_c, 0, 59, 39
1, 27840, Note_on_c, 0, 59, 0
1, 27840, Note_on_c, 0, 55, 0
1, 27840, Note_on_c, 0, 55, 34
1, 27840, Note_on_c, 0, 59, 40
1, 27911, Control_c, 0, 64, 127
1, 28080, Tempo, 368098
1, 28080, Note_on_c, 0, 59, 0
1, 28080, Note_on_c, 0, 55, 0
1, 28080, Note_on_c, 0, 62, 53
1, 28080, Note_on_c, 0, 55, 34
1, 28080, Note_on_c, 0, 59, 41
1, 28320, Note_on_c, 0, 59, 0
1, 28320, Note_on_c, 0, 55, 0
1, 28320, Note_on_c, 0, 62, 0
1, 28320, Note_on_c, 0, 67, 53
1, 28320, Note_on_c, 0, 55, 34
1, 28320, Note_on_c, 0, 59, 41
1, 28560, Note_on_c, 0, 59, 0
1, 28560, Note_on_c, 0, 55, 0
1, 28560, Note_on_c, 0, 67, 0
1, 28560, Note_on_c, 0, 71, 53
1, 28560, Note_on_c, 0, 55, 34
1, 28560, Note_on_c, 0, 59, 41
1, 28800, Tempo, 368098
1, 28800, Note_on_c, 0, 59, 0
1, 28800, Note_on_c, 0, 55, 0
1, 28800, Note_on_c, 0, 71, 0
1, 28800, Note_on_c, 0, 71, 57
1, 28800, Note_on_c, 0, 55, 37
1, 28800, Note_on_c, 0, 60, 44
1, 28800, Control_c, 0, 64, 0
1, 28920, Note_on_c, 0, 71, 0
1, 28920, Note_on_c, 0, 69, 54
1, 29040, Note_on_c, 0, 69, 0
1, 29040, Note_on_c, 0, 67, 54
1, 29160, Note_on_c, 0, 67, 0
1, 29160, Note_on_c, 0, 69, 54
1, 29280, Note_on_c, 0, 69, 0
1, 29280, Note_on_c, 0, 60, 0
1, 29280, Note_on_c, 0, 55, 0
1, 29280, Note_on_c, 0, 67, 57
1, 29280, Note_on_c, 0, 55, 34
1, 29280, Note_on_c, 0, 59, 41
1, 29520, Tempo, 357143
1, 29520, Note_on_c, 0, 59, 0
1, 29520, Note_on_c, 0, 55, 0
1, 29520, Note_on_c, 0, 67, 0
1, 29520, Note_on_c, 0, 76, 54
1, 29760, Note_on_c, 0, 76, 0
1, 29760, Note_on_c, 0, 76, 54
1, 29760, Note_on_c, 0, 71, 41
1, 29760, Note_on_c, 0, 67, 41
1, 29880, Note_on_c, 0, 67, 0
1, 29880, Note_on_c, 0, 71, 0
1, 29880, Note_on_c, 0, 76, 0
1, 30000, Note_on_c, 0, 76, 54
1, 30000, Note_on_c, 0, 71, 41
1, 30000, Note_on_c, 0, 67, 41
1, 30120, Note_on_c, 0, 67, 0
1, 30120, Note_on_c, 0, 71, 0
1, 30120, Note_on_c, 0, 76, 0
1, 30240, Note_on_c, 0, 76, 54
1, 30240, Note_on_c, 0, 71, 41
1, 30240, Note_on_c, 0, 67, 41
1, 30360, Note_on_c, 0, 67, 0
1, 30360, Note_on_c, 0, 71, 0
1, 30360, Note_on_c, 0, 76, 0
1, 30480, Tempo, 348837
1, 30480, Note_on_c, 0, 76, 54
1, 30480, Note_on_c, 0, 67, 41
1, 30480, Note_on_c, 0, 71, 41
1, 30600, Note_on_c, 0, 71, 0
1, 30600, Note_on_c, 0, 67, 0
1, 30600, Note_on_c, 0, 76, 0
1, 30720, Tempo, 357143
1, 30720, Note_on_c, 0, 76, 57
1, 30720, Note_on_c, 0, 71, 46
1, 30720, Note_on_c, 0, 67, 39
1, 30766, Control_c, 0, 64, 127
1, 30960, Note_on_c, 0, 67, 0
1, 30960, Note_on_c, 0, 71, 0
1, 30960, Note_on_c, 0, 67, 39
1, 30960, Note_on_c, 0, 71, 46
1, 31080, Note_on_c, 0, 76, 0
1, 31080, Note_on_c, 0, 79, 50
1, 31140, Note_on_c, 0, 79, 0
1, 31140, Note_on_c, 0, 81, 52
1, 31200, Note_on_c, 0, 81, 0
1, 31200, Note_on_c, 0, 71, 0
1, 31200, Note_on_c, 0, 67, 0
1, 31200, Note_on_c, 0, 83, 60
1, 31200, Note_on_c, 0, 67, 39
1, 31200, Note_on_c, 0, 71, 46
1, 31218, Control_c, 0, 64, 0
1, 31252, Control_c, 0, 64, 127
1, 31440, Note_on_c, 0, 71, 0
1, 31440, Note_on_c, 0, 67, 0
1, 31440, Note_on_c, 0, 67, 39
1, 31440, Note_on_c, 0, 71, 46
1, 31560, Tempo, 348837
1, 31560, Note_on_c, 0, 83, 0
1, 31560, Note_on_c, 0, 79, 49
1, 31620, Note_on_c, 0, 79, 0
1, 31620, Note_on_c, 0, 76, 49
1, 31680, Tempo, 363636
1, 31680, Note_on_c, 0, 76, 0
1, 31680, Note_on_c, 0, 71, 0
1, 31680, Note_on_c, 0, 67, 0
1, 31680, Note_on_c, 0, 74, 60
1, 31680, Note_on_c, 0, 66, 46
1, 31680, Note_on_c, 0, 57, 39
1, 31694, Control_c, 0, 64, 0
1, 31780, Control_c, 0, 64, 127
1, 31920, Note_on_c, 0, 57, 0
1, 31920, Note_on_c, 0, 66, 0
1, 31920, Note_on_c, 0, 57, 39
1, 31920, Note_on_c, 0, 66, 46
1, 32160, Tempo, 358209
1, 32160, Note_on_c, 0, 66, 0
1, 32160, Note_on_c, 0, 57, 0
1, 32160, Note_on_c, 0, 74, 0
1, 32160, Note_on_c, 0, 73, 52
1, 32160, Note_on_c, 0, 57, 39
1, 32160, Note_on_c, 0, 64, 46
1, 32175, Control_c, 0, 64, 0
1, 32220, Control_c, 0, 64, 127
1, 32240, Note_on_c, 0, 73, 0
1, 32240, Note_on_c, 0, 74, 43
1, 32320, Note_on_c, 0, 74, 0
1, 32320, Note_on_c, 0, 73, 48
1, 32400, Note_on_c, 0, 73, 0
1, 32400, Note_on_c, 0, 64, 0
1, 32400, Note_on_c, 0, 57, 0
1, 32400, Note_on_c, 0, 74, 43
1, 32400, Note_on_c, 0, 57, 39
1, 32400, Note_on_c, 0, 64, 46
1, 32460, Note_on_c, 0, 74, 0
1, 32460, Note_on_c, 0, 73, 48
1, 32520, Note_on_c, 0, 73, 0
1, 32520, Note_on_c, 0, 74, 42
1, 32580, Note_on_c, 0, 74, 0
1, 32580, Note_on_c, 0, 73, 47
1, 32640, Note_on_c, 0, 73, 0
1, 32640, Note_on_c, 0, 64, 0
1, 32640, Note_on_c, 0, 57, 0
1, 32640, Note_on_c, 0, 74, 54
1, 32640, Note_on_c, 0, 62, 37
1, 32640, Note_on_c, 0, 66, 44
1, 32640, Control_c, 0, 64, 0
1, 32760, Note_on_c, 0, 74, 0
1, 32760, Note_on_c, 0, 76, 49
1, 32880, Note_on_c, 0, 76, 0
1, 32880, Note_on_c, 0, 66, 0
1, 32880, Note_on_c, 0, 62, 0
1, 32880, Note_on_c, 0, 78, 50
1, 32880, Note_on_c, 0, 62, 32
1, 32880, Note_on_c, 0, 66, 38
1, 33000, Note_on_c, 0, 78, 0
1, 33000, Note_on_c, 0, 79, 51
1, 33120, Note_on_c, 0, 79, 0
1, 33120, Note_on_c, 0, 66, 0
1, 33120, Note_on_c, 0, 62, 0
1, 33120, Note_on_c, 0, 81, 51
1, 33120, Note_on_c, 0, 62, 32
1, 33120, Note_on_c, 0, 66, 38
1, 33240, Note_on_c, 0, 81, 0
1, 33240, Note_on_c, 0, 78, 51
1, 33360, Note_on_c, 0, 78, 0
1, 33360, Note_on_c, 0, 66, 0
1, 33360, Note_on_c, 0, 62, 0
1, 33360, Note_on_c, 0, 76, 50
1, 33360, Note_on_c, 0, 62, 32
1, 33360, Note_on_c, 0, 66, 38
1, 33480, Note_on_c, 0, 76, 0
1, 33480, Note_on_c, 0, 74, 50
1, 33600, Note_on_c, 0, 74, 0
1, 33600, Note_on_c, 0, 66, 0
1, 33600, Note_on_c, 0, 62, 0
1, 33600, Note_on_c, 0, 73, 53
1, 33600, Note_on_c, 0, 62, 36
1, 33600, Note_on_c, 0, 67, 43
1, 33720, Note_on_c, 0, 73, 0
1, 33720, Note_on_c, 0, 74, 48
1, 33840, Note_on_c, 0, 74, 0
1, 33840, Note_on_c, 0, 67, 0
1, 33840, Note_on_c, 0, 62, 0
1, 33840, Note_on_c, 0, 76, 49
1, 33840, Note_on_c, 0, 62, 32
1, 33840, Note_on_c, 0, 67, 38
1, 33960, Note_on_c, 0, 76, 0
1, 33960, Note_on_c, 0, 78, 49
1, 34080, Note_on_c, 0, 78, 0
1, 34080, Note_on_c, 0, 67, 0
1, 34080, Note_on_c, 0, 62, 0
1, 34080, Note_on_c, 0, 79, 49
1, 34080, Note_on_c, 0, 62, 32
1, 34080, Note_on_c, 0, 67, 38
1, 34200, Note_on_c, 0, 79, 0
1, 34200, Note_on_c, 0, 76, 49
1, 34320, Note_on_c, 0, 76, 0
1, 34320, Note_on_c, 0, 67, 0
1, 34320, Note_on_c, 0, 62, 0
1, 34320, Note_on_c, 0, 74, 48
1, 34320, Note_on_c, 0, 62, 32
1, 34320, Note_on_c, 0, 67, 38
1, 34440, Note_on_c, 0, 74, 0
1, 34440, Note_on_c, 0, 73, 48
1, 34560, Note_on_c, 0, 73, 0
1, 34560, Note_on_c, 0, 67, 0
1, 34560, Note_on_c, 0, 62, 0
1, 34560, Note_on_c, 0, 74, 52
1, 34560, Note_on_c, 0, 62, 37
1, 34560, Note_on_c, 0, 66, 44
1, 34680, Note_on_c, 0, 74, 0
1, 34680, Note_on_c, 0, 76, 47
1, 34800, Note_on_c, 0, 76, 0
1, 34800, Note_on_c, 0, 66, 0
1, 34800, Note_on_c, 0, 62, 0
1, 34800, Note_on_c, 0, 78, 48
1, 34800, Note_on_c, 0, 62, 32
1, 34800, Note_on_c, 0, 66, 38
1, 34920, Note_on_c, 0, 78, 0
1, 34920, Note_on_c, 0, 79, 49
1, 35040, Note_on_c, 0, 79, 0
1, 35040, Note_on_c, 0, 66, 0
1, 35040, Note_on_c, 0, 62, 0
1, 35040, Note_on_c, 0, 81, 50
1, 35040, Note_on_c, 0, 62, 32
1, 35040, Note_on_c, 0, 66, 38
1, 35160, Note_on_c, 0, 81, 0
1, 35160, Note_on_c, 0, 78, 49
1, 35280, Note_on_c, 0, 78, 0
1, 35280, Note_on_c, 0, 66, 0
1, 35280, Note_on_c, 0, 62, 0
1, 35280, Note_on_c, 0, 76, 48
1, 35280, Note_on_c, 0, 62, 32
1, 35280, Note_on_c, 0, 66, 38
1, 35400, Note_on_c, 0, 76, 0
1, 35400, Note_on_c, 0, 74, 47
1, 35520, Note_on_c, 0, 74, 0
1, 35520, Note_on_c, 0, 66, 0
1, 35520, Note_on_c, 0, 62, 0
1, 35520, Note_on_c, 0, 73, 53
1, 35520, Note_on_c, 0, 62, 37
1, 35520, Note_on_c, 0, 67, 44
1, 35640, Note_on_c, 0, 73, 0
1, 35640, Note_on_c, 0, 74, 47
1, 35760, Note_on_c, 0, 74, 0
1, 35760, Note_on_c, 0, 67, 0
1, 35760, Note_on_c, 0, 62, 0
1, 35760, Note_on_c, 0, 76, 47
1, 35760, Note_on_c, 0, 62, 32
1, 35760, Note_on_c, 0, 67, 38
1, 35880, Note_on_c, 0, 76, 0
1, 35880, Note_on_c, 0, 78, 48
1, 36000, Note_on_c, 0, 78, 0
1, 36000, Note_on_c, 0, 67, 0
1, 36000, Note_on_c, 0, 62, 0
1, 36000, Note_on_c, 0, 79, 49
1, 36000, Note_on_c, 0, 62, 32
1, 36000, Note_on_c, 0, 67, 38
1, 36120, Note_on_c, 0, 79, 0
1, 36120, Note_on_c, 0, 76, 49
1, 36240, Note_on_c, 0, 76, 0
1, 36240, Note_on_c, 0, 67, 0
1, 36240, Note_on_c, 0, 62, 0
1, 36240, Note_on_c, 0, 74, 48
1, 36240, Note_on_c, 0, 62, 32
1, 36240, Note_on_c, 0, 67, 38
1, 36360, Note_on_c, 0, 74, 0
1, 36360, Note_on_c, 0, 73, 48
1, 36480, Tempo, 382166
1, 36480, Note_on_c, 0, 73, 0
1, 36480, Note_on_c, 0, 67, 0
1, 36480, Note_on_c, 0, 62, 0
1, 36480, Note_on_c, 0, 74, 58
1, 36480, Note_on_c, 0, 62, 38
1, 36480, Note_on_c, 0, 66, 45
1, 36546, Control_c, 0, 64, 127
1, 36900, Note_on_c, 0, 74, 0
1, 36900, Note_on_c, 0, 85, 77
1, 36960, Note_on_c, 0, 85, 0
1, 36960, Note_on_c, 0, 66, 0
1, 36960, Note_on_c, 0, 62, 0
1, 36960, Note_on_c, 0, 86, 87
1, 36975, Control_c, 0, 64, 0
1, 37100, Control_c, 0, 64, 127
1, 37440, Note_on_c, 0, 86, 0
1, 37440, Note_on_c, 0, 38, 69
1, 37440, Note_on_c, 0, 50, 69
1, 37920, Note_on_c, 0, 50, 0
1, 37920, Note_on_c, 0, 38, 0
1, 37949, Control_c, 0, 64, 0
1, 38400, Tempo, 361446
1, 38400, Marker_t, "Teil 2"
1, 38400, Note_on_c, 0, 77, 53
1, 38400, Note_on_c, 0, 62, 45
1, 38400, Note_on_c, 0, 58, 38
1, 38520, Control_c, 0, 64, 127
1, 38760, Note_on_c, 0, 77, 0
1, 38760, Note_on_c, 0, 74, 45
1, 38820, Note_on_c, 0, 74, 0
1, 38820, Note_on_c, 0, 75, 45
1, 38880, Note_on_c, 0, 75, 0
1, 38880, Note_on_c, 0, 58, 0
1, 38880, Note_on_c, 0, 62, 0
1, 38880, Note_on_c, 0, 77, 54
1, 38892, Control_c, 0, 64, 0
1, 39120, Tempo, 405405
1, 39120, Note_on_c, 0, 77, 0
1, 39120, Note_on_c, 0, 62, 41
1, 39120, Note_on_c, 0, 58, 34
1, 39360, Tempo, 400000
1, 39360, Note_on_c, 0, 58, 0
1, 39360, Note_on_c, 0, 62, 0
1, 39360, Note_on_c, 0, 63, 45
1, 39360, Note_on_c, 0, 60, 38
1, 39600, Tempo, 379747
1, 39600, Note_on_c, 0, 69, 50
1, 39840, Note_on_c, 0, 69, 0
1, 39840, Note_on_c, 0, 60, 0
1, 39840, Note_on_c, 0, 63, 0
1, 39840, Note_on_c, 0, 69, 50
1, 39917, Control_c, 0, 64, 127
1, 40080, Note_on_c, 0, 69, 0
1, 40080, Note_on_c, 0, 69, 50
1, 40080, Note_on_c, 0, 60, 34
1, 40080, Note_on_c, 0, 63, 41
1, 40320, Tempo, 361446
1, 40320, Note_on_c, 0, 63, 0
1, 40320, Note_on_c, 0, 60, 0
1, 40320, Note_on_c, 0, 69, 0
1, 40320, Note_on_c, 0, 70, 53
1, 40320, Note_on_c, 0, 62, 38
1, 40320, Note_on_c, 0, 65, 45
1, 40320, Control_c, 0, 64, 0
1, 40472, Control_c, 0, 64, 127
1, 40680, Note_on_c, 0, 70, 0
1, 40680, Note_on_c, 0, 70, 45
1, 40691, Control_c, 0, 64, 0
1, 40740, Note_on_c, 0, 70, 0
1, 40740, Note_on_c, 0, 72, 45
1, 40800, Note_on_c, 0, 72, 0
1, 40800, Note_on_c, 0, 65, 0
1, 40800, Note_on_c, 0, 62, 0
1, 40800, Note_on_c, 0, 74, 54
1, 41040, Tempo, 405405
1, 41040, Note_on_c, 0, 74, 0
1, 41040, Note_on_c, 0, 62, 41
1, 41040, Note_on_c, 0, 58, 34
1, 41280, Tempo, 400000
1, 41280, Note_on_c, 0, 58, 0
1, 41280, Note_on_c, 0, 62, 0
1, 41280, Note_on_c, 0, 57, 38
1, 41280, Note_on_c, 0, 60, 45
1, 41520, Tempo, 385852
1, 41520, Note_on_c, 0, 66, 50
1, 41760, Note_on_c, 0, 66, 0
1, 41760, Note_on_c, 0, 60, 0
1, 41760, Note_on_c, 0, 57, 0
1, 41760, Note_on_c, 0, 66, 50
1, 41827, Control_c, 0, 64, 127
1, 42000, Note_on_c, 0, 66, 0
1, 42000, Note_on_c, 0, 66, 50
1, 42000, Note_on_c, 0, 60, 41
1, 42000, Note_on_c, 0, 57, 34
1, 42240, Tempo, 361446
1, 42240, Note_on_c, 0, 57, 0
1, 42240, Note_on_c, 0, 60, 0
1, 42240, Note_on_c, 0, 66, 0
1, 42240, Note_on_c, 0, 67, 57
1, 42240, Note_on_c, 0, 62, 49
1, 42240, Note_on_c, 0, 58, 41
1, 42259, Control_c, 0, 64, 0
1, 42388, Control_c, 0, 64, 127
1, 42600, Note_on_c, 0, 67, 0
1, 42600, Note_on_c, 0, 67, 45
1, 42619, Control_c, 0, 64, 0
1, 42660, Note_on_c, 0, 67, 0
1, 42660, Note_on_c, 0, 69, 45
1, 42720, Note_on_c, 0, 69, 0
1, 42720, Note_on_c, 0, 58, 0
1, 42720, Note_on_c, 0, 62, 0
1, 42720, Note_on_c, 0, 70, 57
1, 42960, Tempo, 405405
1, 42960, Note_on_c, 0, 70, 0
1, 42960, Note_on_c, 0, 58, 43
1, 42960, Note_on_c, 0, 55, 36
1, 43200, Tempo, 400000
1, 43200, Note_on_c, 0, 55, 0
1, 43200, Note_on_c, 0, 58, 0
1, 43200, Note_on_c, 0, 55, 48
1, 43200, Note_on_c, 0, 51, 40
1, 43440, Note_on_c, 0, 61, 55
1, 43680, Note_on_c, 0, 61, 0
1, 43680, Note_on_c, 0, 51, 0
1, 43680, Note_on_c, 0, 55, 0
1, 43680, Note_on_c, 0, 61, 57
1, 43740, Control_c, 0, 64, 127
1, 43920, Note_on_c, 0, 61, 0
1, 43920, Note_on_c, 0, 61, 60
1, 43920, Note_on_c, 0, 51, 55
1, 43920, Note_on_c, 0, 55, 55
1, 44160, Tempo, 361446
1, 44160, Note_on_c, 0, 55, 0
1, 44160, Note_on_c, 0, 51, 0
1, 44160, Note_on_c, 0, 61, 0
1, 44160, Note_on_c, 0, 62, 68
1, 44160, Note_on_c, 0, 50, 58
1, 44160, Note_on_c, 0, 54, 58
1, 44160, Control_c, 0, 64, 0
1, 44294, Control_c, 0, 64, 127
1, 44520, Note_on_c, 0, 54, 0
1, 44520, Note_on_c, 0, 50, 0
1, 44520, Note_on_c, 0, 62, 0
1, 44520, Note_on_c, 0, 54, 51
1, 44520, Note_on_c, 0, 42, 51
1, 44541, Control_c, 0, 64, 0
1, 44580, Note_on_c, 0, 42, 0
1, 44580, Note_on_c, 0, 54, 0
1, 44580, Note_on_c, 0, 55, 51
1, 44580, Note_on_c, 0, 43, 51
1, 44640, Tempo, 410959
1, 44640, Note_on_c, 0, 43, 0
1, 44640, Note_on_c, 0, 55, 0
1, 44640, Note_on_c, 0, 57, 75
1, 44640, Note_on_c, 0, 45, 61
1, 44707, Control_c, 0, 64, 127
1, 44880, Tempo, 422535
1, 44880, Note_on_c, 0, 45, 0
1, 44880, Note_on_c, 0, 57, 0
1, 44880, Note_on_c, 0, 54, 68
1, 44880, Note_on_c, 0, 42, 56
1, 44892, Control_c, 0, 64, 0
1, 45120, Note_on_c, 0, 42, 0
1, 45120, Note_on_c, 0, 54, 0
1, 45120, Note_on_c, 0, 50, 68
1, 45120, Note_on_c, 0, 38, 56
1, 45194, Control_c, 0, 64, 127
1, 45600, Note_on_c, 0, 38, 0
1, 45600, Note_on_c, 0, 50, 0
1, 45611, Control_c, 0, 64, 0
1, 46080, Tempo, 375000
1, 46080, Control_c, 0, 91, 127
1, 46080, Control_c, 0, 91, 127
1, 46081, Note_on_c, 0, 67, 60
1, 46081, Note_on_c, 0, 55, 34
1, 46081, Note_on_c, 0, 59, 40
1, 46133, Control_c, 0, 64, 127
1, 46320, Note_on_c, 0, 55, 34
1, 46320, Note_on_c, 0, 59, 40
1, 46321, Note_on_c, 0, 59, 0
1, 46321, Note_on_c, 0, 55, 0
1, 46440, Note_on_c, 0, 71, 46
1, 46441, Note_on_c, 0, 67, 0
1, 46453, Control_c, 0, 64, 0
1, 46500, Note_on_c, 0, 71, 0
1, 46500, Note_on_c, 0, 69, 47
1, 46560, Note_on_c, 0, 69, 0
1, 46560, Note_on_c, 0, 59, 0
1, 46560, Note_on_c, 0, 55, 0
1, 46560, Note_on_c, 0, 67, 56
1, 46560, Note_on_c, 0, 55, 34
1, 46560, Note_on_c, 0, 59, 40
1, 46800, Note_on_c, 0, 59, 0
1, 46800, Note_on_c, 0, 55, 0
1, 46800, Note_on_c, 0, 67, 0
1, 46800, Note_on_c, 0, 55, 33
1, 46800, Note_on_c, 0, 59, 39
1, 47040, Note_on_c, 0, 59, 0
1, 47040, Note_on_c, 0, 55, 0
1, 47040, Note_on_c, 0, 55, 34
1, 47040, Note_on_c, 0, 59, 40
1, 47136, Control_c, 0, 64, 127
1, 47280, Tempo, 368098
1, 47280, Note_on_c, 0, 59, 0
1, 47280, Note_on_c, 0, 55, 0
1, 47280, Note_on_c, 0, 62, 53
1, 47280, Note_on_c, 0, 55, 34
1, 47280, Note_on_c, 0, 59, 41
1, 47520, Note_on_c, 0, 59, 0
1, 47520, Note_on_c, 0, 55, 0
1, 47520, Note_on_c, 0, 62, 0
1, 47520, Note_on_c, 0, 67, 53
1, 47520, Note_on_c, 0, 55, 34
1, 47520, Note_on_c, 0, 59, 41
1, 47760, Note_on_c, 0, 59, 0
1, 47760, Note_on_c, 0, 55, 0
1, 47760, Note_on_c, 0, 67, 0
1, 47760, Note_on_c, 0, 71, 53
1, 47760, Note_on_c, 0, 55, 34
1, 47760, Note_on_c, 0, 59, 41
1, 48000, Tempo, 368098
1, 48000, Note_on_c, 0, 59, 0
1, 48000, Note_on_c, 0, 55, 0
1, 48000, Note_on_c, 0, 71, 0
1, 48000, Note_on_c, 0, 71, 57
1, 48000, Note_on_c, 0, 55, 37
1, 48000, Note_on_c, 0, 60, 44
1, 48000, Control_c, 0, 64, 0
1, 48120, Note_on_c, 0, 71, 0
1, 48120, Note_on_c, 0, 69, 54
1, 48240, Note_on_c, 0, 69, 0
1, 48240, Note_on_c, 0, 67, 54
1, 48360, Note_on_c, 0, 67, 0
1, 48360, Note_on_c, 0, 69, 54
1, 48480, Note_on_c, 0, 69, 0
1, 48480, Note_on_c, 0, 60, 0
1, 48480, Note_on_c, 0, 55, 0
1, 48480, Note_on_c, 0, 67, 57
1, 48480, Note_on_c, 0, 55, 34
1, 48480, Note_on_c, 0, 59, 41
1, 48720, Tempo, 360360
1, 48720, Note_on_c, 0, 59, 0
1, 48720, Note_on_c, 0, 55, 0
1, 48720, Note_on_c, 0, 67, 0
1, 48720, Note_on_c, 0, 76, 54
1, 48960, Note_on_c, 0, 76, 0
1, 48960, Note_on_c, 0, 76, 54
1, 48960, Note_on_c, 0, 74, 36
1, 48960, Note_on_c, 0, 68, 36
1, 49080, Note_on_c, 0, 68, 0
1, 49080, Note_on_c, 0, 74, 0
1, 49080, Note_on_c, 0, 76, 0
1, 49200, Note_on_c, 0, 76, 54
1, 49200, Note_on_c, 0, 74, 36
1, 49200, Note_on_c, 0, 68, 36
1, 49320, Note_on_c, 0, 68, 0
1, 49320, Note_on_c, 0, 74, 0
1, 49320, Note_on_c, 0, 76, 0
1, 49440, Note_on_c, 0, 76, 54
1, 49440, Note_on_c, 0, 74, 36
1, 49440, Note_on_c, 0, 68, 36
1, 49560, Note_on_c, 0, 68, 0
1, 49560, Note_on_c, 0, 74, 0
1, 49560, Note_on_c, 0, 76, 0
1, 49680, Tempo, 355030
1, 49680, Note_on_c, 0, 76, 54
1, 49680, Note_on_c, 0, 68, 36
1, 49680, Note_on_c, 0, 74, 36
1, 49800, Note_on_c, 0, 74, 0
1, 49800, Note_on_c, 0, 68, 0
1, 49800, Note_on_c, 0, 76, 0
1, 49920, Tempo, 366972
1, 49920, Note_on_c, 0, 76, 57
1, 49920, Note_on_c, 0, 72, 41
1, 49920, Note_on_c, 0, 69, 41
1, 49984, Control_c, 0, 64, 127
1, 50280, Tempo, 352941
1, 50280, Note_on_c, 0, 76, 0
1, 50280, Note_on_c, 0, 81, 52
1, 50340, Note_on_c, 0, 81, 0
1, 50340, Note_on_c, 0, 83, 52
1, 50400, Tempo, 365854
1, 50400, Note_on_c, 0, 83, 0
1, 50400, Note_on_c, 0, 69, 0
1, 50400, Note_on_c, 0, 72, 0
1, 50400, Note_on_c, 0, 84, 50
1, 50443, Control_c, 0, 64, 0
1, 50640, Note_on_c, 0, 84, 0
1, 50640, Note_on_c, 0, 76, 54
1, 50760, Tempo, 372671
1, 50880, Note_on_c, 0, 76, 0
1, 50880, Note_on_c, 0, 74, 54
1, 50880, Note_on_c, 0, 66, 36
1, 50880, Note_on_c, 0, 72, 36
1, 51000, Note_on_c, 0, 72, 0
1, 51000, Note_on_c, 0, 66, 0
1, 51000, Note_on_c, 0, 74, 0
1, 51120, Note_on_c, 0, 74, 54
1, 51120, Note_on_c, 0, 66, 36
1, 51120, Note_on_c, 0, 72, 36
1, 51240, Note_on_c, 0, 72, 0
1, 51240, Note_on_c, 0, 66, 0
1, 51240, Note_on_c, 0, 74, 0
1, 51360, Note_on_c, 0, 74, 54
1, 51360, Note_on_c, 0, 66, 36
1, 51360, Note_on_c, 0, 72, 36
1, 51480, Note_on_c, 0, 72, 0
1, 51480, Note_on_c, 0, 66, 0
1, 51480, Note_on_c, 0, 74, 0
1, 51600, Note_on_c, 0, 74, 54
1, 51600, Note_on_c, 0, 66, 36
1, 51600, Note_on_c, 0, 72, 36
1, 51720, Note_on_c, 0, 72, 0
1, 51720, Note_on_c, 0, 66, 0
1, 51720, Note_on_c, 0, 74, 0
1, 51840, Tempo, 364742
1, 51840, Note_on_c, 0, 74, 57
1, 51840, Note_on_c, 0, 71, 41
1, 51840, Note_on_c, 0, 67, 41
1, 51883, Control_c, 0, 64, 127
1, 52200, Tempo, 353982
1, 52200, Note_on_c, 0, 74, 0
1, 52200, Note_on_c, 0, 79, 49
1, 52260, Note_on_c, 0, 79, 0
1, 52260, Note_on_c, 0, 81, 48
1, 52320, Tempo, 362538
1, 52320, Note_on_c, 0, 81, 0
1, 52320, Note_on_c, 0, 67, 0
1, 52320, Note_on_c, 0, 71, 0
1, 52320, Note_on_c, 0, 83, 45
1, 52337, Control_c, 0, 64, 0
1, 52560, Note_on_c, 0, 83, 0
1, 54600, Tempo, 378549
1, 54600, Note_on_c, 0, 83, 39
1, 54660, Note_on_c, 0, 83, 0
1, 54660, Note_on_c, 0, 81, 39
1, 54720, Tempo, 378549
1, 54720, Note_on_c, 0, 81, 0
1, 54720, Note_on_c, 0, 79, 47
1, 54840, Note_on_c, 0, 79, 0
1, 55080, Note_on_c, 0, 79, 39
1, 55140, Note_on_c, 0, 79, 0
1, 55140, Note_on_c, 0, 78, 39
1, 55200, Tempo, 378549
1, 55200, Note_on_c, 0, 78, 0
1, 55200, Note_on_c, 0, 76, 50
1, 55320, Note_on_c, 0, 76, 0
1, 55560, Note_on_c, 0, 76, 38
1, 55620, Note_on_c, 0, 76, 0
1, 55620, Note_on_c, 0, 74, 38
1, 55680, Tempo, 378549
1, 55680, Note_on_c, 0, 74, 0
1, 55680, Note_on_c, 0, 72, 50
1, 55680, Note_on_c, 0, 64, 34
1, 55680, Note_on_c, 0, 67, 34
1, 55920, Note_on_c, 0, 67, 0
1, 55920, Note_on_c, 0, 64, 0
1, 55920, Note_on_c, 0, 72, 0
1, 56520, Note_on_c, 0, 75, 51
1, 56520, Note_on_c, 0, 67, 44
1, 56580, Note_on_c, 0, 67, 0
1, 56580, Note_on_c, 0, 75, 0
1, 56580, Note_on_c, 0, 74, 51
1, 56580, Note_on_c, 0, 65, 44
1, 56640, Tempo, 382166
1, 56640, Note_on_c, 0, 65, 0
1, 56640, Note_on_c, 0, 74, 0
1, 56640, Note_on_c, 0, 72, 59
1, 56640, Note_on_c, 0, 63, 55
1, 56726, Control_c, 0, 64, 127
1, 56880, Note_on_c, 0, 72, 0
1, 56880, Note_on_c, 0, 72, 55
1, 57120, Note_on_c, 0, 72, 0
1, 57120, Note_on_c, 0, 63, 0
1, 57120, Note_on_c, 0, 72, 55
1, 57360, Note_on_c, 0, 72, 0
1, 57360, Note_on_c, 0, 72, 55
1, 57480, Note_on_c, 0, 69, 49
1, 57492, Control_c, 0, 64, 0
1, 57540, Note_on_c, 0, 69, 0
1, 57540, Note_on_c, 0, 67, 49
1, 57600, Tempo, 363636
1, 57600, Note_on_c, 0, 67, 0
1, 57600, Note_on_c, 0, 72, 0
1, 57600, Note_on_c, 0, 72, 58
1, 57600, Note_on_c, 0, 62, 56
1, 57600, Note_on_c, 0, 66, 56
1, 57713, Control_c, 0, 64, 127
1, 57960, Tempo, 348837
1, 57960, Note_on_c, 0, 72, 0
1, 57960, Note_on_c, 0, 74, 46
1, 57974, Control_c, 0, 64, 0
1, 58020, Note_on_c, 0, 74, 0
1, 58020, Note_on_c, 0, 72, 46
1, 58080, Tempo, 363636
1, 58080, Note_on_c, 0, 72, 0
1, 58080, Note_on_c, 0, 66, 0
1, 58080, Note_on_c, 0, 62, 0
1, 58080, Note_on_c, 0, 71, 56
1, 58080, Note_on_c, 0, 64, 46
1, 58080, Note_on_c, 0, 67, 46
1, 58190, Control_c, 0, 64, 127
1, 58320, Note_on_c, 0, 71, 0
1, 58320, Note_on_c, 0, 71, 57
1, 58560, Tempo, 373832
1, 58560, Note_on_c, 0, 71, 0
1, 58560, Note_on_c, 0, 67, 0
1, 58560, Note_on_c, 0, 64, 0
1, 58560, Note_on_c, 0, 69, 60
1, 58560, Note_on_c, 0, 60, 46
1, 58560, Note_on_c, 0, 64, 46
1, 58573, Control_c, 0, 64, 0
1, 58673, Control_c, 0, 64, 127
1, 58800, Tempo, 380952
1, 58800, Note_on_c, 0, 69, 0
1, 58800, Note_on_c, 0, 76, 56
1, 59040, Note_on_c, 0, 76, 0
1, 59040, Note_on_c, 0, 64, 0
1, 59040, Note_on_c, 0, 60, 0
1, 59040, Note_on_c, 0, 74, 56
1, 59040, Note_on_c, 0, 62, 46
1, 59058, Control_c, 0, 64, 0
1, 59128, Control_c, 0, 64, 127
1, 59280, Note_on_c, 0, 74, 0
1, 59280, Note_on_c, 0, 66, 56
1, 59520, Tempo, 358209
1, 59520, Note_on_c, 0, 66, 0
1, 59520, Note_on_c, 0, 62, 0
1, 59520, Note_on_c, 0, 67, 54
1, 59520, Note_on_c, 0, 55, 37
1, 59520, Note_on_c, 0, 59, 44
1, 59520, Control_c, 0, 64, 0
1, 59640, Note_on_c, 0, 67, 0
1, 59640, Note_on_c, 0, 69, 49
1, 59760, Note_on_c, 0, 69, 0
1, 59760, Note_on_c, 0, 59, 0
1, 59760, Note_on_c, 0, 55, 0
1, 59760, Note_on_c, 0, 71, 50
1, 59760, Note_on_c, 0, 55, 32
1, 59760, Note_on_c, 0, 59, 38
1, 59880, Note_on_c, 0, 71, 0
1, 59880, Note_on_c, 0, 72, 51
1, 60000, Note_on_c, 0, 72, 0
1, 60000, Note_on_c, 0, 59, 0
1, 60000, Note_on_c, 0, 55, 0
1, 60000, Note_on_c, 0, 74, 51
1, 60000, Note_on_c, 0, 55, 32
1, 60000, Note_on_c, 0, 59, 38
1, 60120, Note_on_c, 0, 74, 0
1, 60120, Note_on_c, 0, 71, 51
1, 60240, Note_on_c, 0, 71, 0
1, 60240, Note_on_c, 0, 59, 0
1, 60240, Note_on_c, 0, 55, 0
1, 60240, Note_on_c, 0, 69, 50
1, 60240, Note_on_c, 0, 55, 32
1, 60240, Note_on_c, 0, 59, 38
1, 60360, Note_on_c, 0, 69, 0
1, 60360, Note_on_c, 0, 67, 50
1, 60480, Note_on_c, 0, 67, 0
1, 60480, Note_on_c, 0, 59, 0
1, 60480, Note_on_c, 0, 55, 0
1, 60480, Note_on_c, 0, 66, 53
1, 60480, Note_on_c, 0, 55, 36
1, 60480, Note_on_c, 0, 60, 43
1, 60600, Note_on_c, 0, 66, 0
1, 60600, Note_on_c, 0, 67, 48
1, 60720, Note_on_c, 0, 67, 0
1, 60720, Note_on_c, 0, 60, 0
1, 60720, Note_on_c, 0, 55, 0
1, 60720, Note_on_c, 0, 69, 49
1, 60720, Note_on_c, 0, 55, 32
1, 60720, Note_on_c, 0, 60, 38
1, 60840, Note_on_c, 0, 69, 0
1, 60840, Note_on_c, 0, 71, 49
1, 60960, Note_on_c, 0, 71, 0
1, 60960, Note_on_c, 0, 60, 0
1, 60960, Note_on_c, 0, 55, 0
1, 60960, Note_on_c, 0, 72, 49
1, 60960, Note_on_c, 0, 55, 32
1, 60960, Note_on_c, 0, 60, 38
1, 61080, Note_on_c, 0, 72, 0
1, 61080, Note_on_c, 0, 69, 49
1, 61200, Note_on_c, 0, 69, 0
1, 61200, Note_on_c, 0, 60, 0
1, 61200, Note_on_c, 0, 55, 0
1, 61200, Note_on_c, 0, 67, 48
1, 61200, Note_on_c, 0, 55, 32
1, 61200, Note_on_c, 0, 60, 38
1, 61320, Note_on_c, 0, 67, 0
1, 61320, Note_on_c, 0, 66, 48
1, 61440, Note_on_c, 0, 66, 0
1, 61440, Note_on_c, 0, 60, 0
1, 61440, Note_on_c, 0, 55, 0
1, 61440, Note_on_c, 0, 67, 52
1, 61440, Note_on_c, 0, 55, 37
1, 61440, Note_on_c, 0, 59, 44
1, 61560, Note_on_c, 0, 67, 0
1, 61560, Note_on_c, 0, 69, 47
1, 61680, Note_on_c, 0, 69, 0
1, 61680, Note_on_c, 0, 59, 0
1, 61680, Note_on_c, 0, 55, 0
1, 61680, Note_on_c, 0, 71, 48
1, 61680, Note_on_c, 0, 55, 32
1, 61680, Note_on_c, 0, 59, 38
1, 61800, Note_on_c, 0, 71, 0
1, 61800, Note_on_c, 0, 72, 49
1, 61920, Note_on_c, 0, 72, 0
1, 61920, Note_on_c, 0, 59, 0
1, 61920, Note_on_c, 0, 55, 0
1, 61920, Note_on_c, 0, 74, 50
1, 61920, Note_on_c, 0, 55, 32
1, 61920, Note_on_c, 0, 59, 38
1, 62040, Note_on_c, 0, 74, 0
1, 62040, Note_on_c, 0, 71, 49
1, 62160, Note_on_c, 0, 71, 0
1, 62160, Note_on_c, 0, 59, 0
1, 62160, Note_on_c, 0, 55, 0
1, 62160, Note_on_c, 0, 69, 48
1, 62160, Note_on_c, 0, 55, 32
1, 62160, Note_on_c, 0, 59, 38
1, 62280, Note_on_c, 0, 69, 0
1, 62280, Note_on_c, 0, 67, 47
1, 62400, Note_on_c, 0, 67, 0
1, 62400, Note_on_c, 0, 59, 0
1, 62400, Note_on_c, 0, 55, 0
1, 62400, Note_on_c, 0, 66, 53
1, 62400, Note_on_c, 0, 55, 37
1, 62400, Note_on_c, 0, 60, 44
1, 62520, Note_on_c, 0, 66, 0
1, 62520, Note_on_c, 0, 67, 47
1, 62640, Note_on_c, 0, 67, 0
1, 62640, Note_on_c, 0, 60, 0
1, 62640, Note_on_c, 0, 55, 0
1, 62640, Note_on_c, 0, 69, 47
1, 62640, Note_on_c, 0, 55, 32
1, 62640, Note_on_c, 0, 60, 38
1, 62760, Note_on_c, 0, 69, 0
1, 62760, Note_on_c, 0, 71, 48
1, 62880, Note_on_c, 0, 71, 0
1, 62880, Note_on_c, 0, 60, 0
1, 62880, Note_on_c, 0, 55, 0
1, 62880, Note_on_c, 0, 72, 49
1, 62880, Note_on_c, 0, 55, 32
1, 62880, Note_on_c, 0, 60, 38
1, 63000, Note_on_c, 0, 72, 0
1, 63000, Note_on_c, 0, 69, 49
1, 63120, Note_on_c, 0, 69, 0
1, 63120, Note_on_c, 0, 60, 0
1, 63120, Note_on_c, 0, 55, 0
1, 63120, Note_on_c, 0, 67, 48
1, 63120, Note_on_c, 0, 55, 32
1, 63120, Note_on_c, 0, 60, 38
1, 63240, Note_on_c, 0, 67, 0
1, 63240, Note_on_c, 0, 66, 48
1, 63360, Tempo, 382166
1, 63360, Note_on_c, 0, 66, 0
1, 63360, Note_on_c, 0, 60, 0
1, 63360, Note_on_c, 0, 55, 0
1, 63360, Note_on_c, 0, 67, 58
1, 63360, Note_on_c, 0, 55, 38
1, 63360, Note_on_c, 0, 59, 45
1, 63487, Control_c, 0, 64, 127
1, 63780, Note_on_c, 0, 67, 0
1, 63780, Note_on_c, 0, 78, 65
1, 63840, Note_on_c, 0, 78, 0
1, 63840, Note_on_c, 0, 59, 0
1, 63840, Note_on_c, 0, 55, 0
1, 63840, Note_on_c, 0, 79, 76
1, 63851, Control_c, 0, 64, 0
1, 63907, Control_c, 0, 64, 127
1, 64320, Note_on_c, 0, 79, 0
1, 64320, Note_on_c, 0, 31, 69
1, 64320, Note_on_c, 0, 43, 69
1, 64800, Note_on_c, 0, 43, 0
1, 64800, Note_on_c, 0, 31, 0
1, 64814, Control_c, 0, 64, 0
1, 65280, Tempo, 361446
1, 65280, Marker_t, "Teil 2 Wiederholung"
1, 65280, Note_on_c, 0, 77, 53
1, 65280, Note_on_c, 0, 62, 45
1, 65280, Note_on_c, 0, 58, 38
1, 65403, Control_c, 0, 64, 127
1, 65640, Note_on_c, 0, 77, 0
1, 65640, Note_on_c, 0, 74, 45
1, 65700, Note_on_c, 0, 74, 0
1, 65700, Note_on_c, 0, 75, 45
1, 65760, Note_on_c, 0, 75, 0
1, 65760, Note_on_c, 0, 58, 0
1, 65760, Note_on_c, 0, 62, 0
1, 65760, Note_on_c, 0, 77, 54
1, 65772, Control_c, 0, 64, 0
1, 66000, Tempo, 405405
1, 66000, Note_on_c, 0, 77, 0
1, 66000, Note_on_c, 0, 62, 41
1, 66000, Note_on_c, 0, 58, 34
1, 66240, Tempo, 400000
1, 66240, Note_on_c, 0, 58, 0
1, 66240, Note_on_c, 0, 62, 0
1, 66240, Note_on_c, 0, 63, 45
1, 66240, Note_on_c, 0, 60, 38
1, 66480, Tempo, 379747
1, 66480, Note_on_c, 0, 69, 50
1, 66720, Note_on_c, 0, 69, 0
1, 66720, Note_on_c, 0, 60, 0
1, 66720, Note_on_c, 0, 63, 0
1, 66720, Note_on_c, 0, 69, 50
1, 66797, Control_c, 0, 64, 127
1, 66960, Note_on_c, 0, 69, 0
1, 66960, Note_on_c, 0, 69, 50
1, 66960, Note_on_c, 0, 60, 34
1, 66960, Note_on_c, 0, 63, 41
1, 67200, Tempo, 361446
1, 67200, Note_on_c, 0, 63, 0
1, 67200, Note_on_c, 0, 60, 0
1, 67200, Note_on_c, 0, 69, 0
1, 67200, Note_on_c, 0, 70, 53
1, 67200, Note_on_c, 0, 62, 38
1, 67200, Note_on_c, 0, 65, 45
1, 67200, Control_c, 0, 64, 0
1, 67352, Control_c, 0, 64, 127
1, 67560, Note_on_c, 0, 70, 0
1, 67560, Note_on_c, 0, 70, 45
1, 67571, Control_c, 0, 64, 0
1, 67620, Note_on_c, 0, 70, 0
1, 67620, Note_on_c, 0, 72, 45
1, 67680, Note_on_c, 0, 72, 0
1, 67680, Note_on_c, 0, 65, 0
1, 67680, Note_on_c, 0, 62, 0
1, 67680, Note_on_c, 0, 74, 54
1, 67920, Tempo, 405405
1, 67920, Note_on_c, 0, 74, 0
1, 67920, Note_on_c, 0, 62, 41
1, 67920, Note_on_c, 0, 58, 34
1, 68160, Tempo, 400000
1, 68160, Note_on_c, 0, 58, 0
1, 68160, Note_on_c, 0, 62, 0
1, 68160, Note_on_c, 0, 57, 38
1, 68160, Note_on_c, 0, 60, 45
1, 68400, Tempo, 385852
1, 68400, Note_on_c, 0, 66, 50
1, 68640, Note_on_c, 0, 66, 0
1, 68640, Note_on_c, 0, 60, 0
1, 68640, Note_on_c, 0, 57, 0
1, 68640, Note_on_c, 0, 66, 50
1, 68707, Control_c, 0, 64, 127
1, 68880, Note_on_c, 0, 66, 0
1, 68880, Note_on_c, 0, 66, 50
1, 68880, Note_on_c, 0, 60, 41
1, 68880, Note_on_c, 0, 57, 34
1, 69120, Tempo, 361446
1, 69120, Note_on_c, 0, 57, 0
1, 69120, Note_on_c, 0, 60, 0
1, 69120, Note_on_c, 0, 66, 0
1, 69120, Note_on_c, 0, 67, 57
1, 69120, Note_on_c, 0, 62, 49
1, 69120, Note_on_c, 0, 58, 41
1, 69139, Control_c, 0, 64, 0
1, 69268, Control_c, 0, 64, 127
1, 69480, Note_on_c, 0, 67, 0
1, 69480, Note_on_c, 0, 67, 45
1, 69499, Control_c, 0, 64, 0
1, 69540, Note_on_c, 0, 67, 0
1, 69540, Note_on_c, 0, 69, 45
1, 69600, Note_on_c, 0, 69, 0
1, 69600, Note_on_c, 0, 58, 0
1, 69600, Note_on_c, 0, 62, 0
1, 69600, Note_on_c, 0, 70, 57
1, 69840, Tempo, 405405
1, 69840, Note_on_c, 0, 70, 0
1, 69840, Note_on_c, 0, 58, 43
1, 69840, Note_on_c, 0, 55, 36
1, 70080, Tempo, 400000
1, 70080, Note_on_c, 0, 55, 0
1, 70080, Note_on_c, 0, 58, 0
1, 70080, Note_on_c, 0, 55, 48
1, 70080, Note_on_c, 0, 51, 40
1, 70320, Note_on_c, 0, 61, 54
1, 70560, Note_on_c, 0, 61, 0
1, 70560, Note_on_c, 0, 51, 0
1, 70560, Note_on_c, 0, 55, 0
1, 70560, Note_on_c, 0, 61, 57
1, 70620, Control_c, 0, 64, 127
1, 70800, Note_on_c, 0, 61, 0
1, 70800, Note_on_c, 0, 61, 60
1, 70800, Note_on_c, 0, 51, 55
1, 70800, Note_on_c, 0, 55, 55
1, 71040, Tempo, 361446
1, 71040, Note_on_c, 0, 55, 0
1, 71040, Note_on_c, 0, 51, 0
1, 71040, Note_on_c, 0, 61, 0
1, 71040, Note_on_c, 0, 62, 68
1, 71040, Note_on_c, 0, 50, 58
1, 71040, Note_on_c, 0, 54, 58
1, 71040, Control_c, 0, 64, 0
1, 71174, Control_c, 0, 64, 127
1, 71400, Note_on_c, 0, 54, 0
1, 71400, Note_on_c, 0, 50, 0
1, 71400, Note_on_c, 0, 62, 0
1, 71400, Note_on_c, 0, 54, 51
1, 71400, Note_on_c, 0, 42, 51
1, 71421, Control_c, 0, 64, 0
1, 71460, Note_on_c, 0, 42, 0
1, 71460, Note_on_c, 0, 54, 0
1, 71460, Note_on_c, 0, 55, 51
1, 71460, Note_on_c, 0, 43, 51
1, 71520, Tempo, 410959
1, 71520, Note_on_c, 0, 43, 0
1, 71520, Note_on_c, 0, 55, 0
1, 71520, Note_on_c, 0, 57, 75
1, 71520, Note_on_c, 0, 45, 61
1, 71587, Control_c, 0, 64, 127
1, 71760, Tempo, 422535
1, 71760, Note_on_c, 0, 45, 0
1, 71760, Note_on_c, 0, 57, 0
1, 71760, Note_on_c, 0, 54, 68
1, 71760, Note_on_c, 0, 42, 56
1, 71772, Control_c, 0, 64, 0
1, 72000, Note_on_c, 0, 42, 0
1, 72000, Note_on_c, 0, 54, 0
1, 72000, Note_on_c, 0, 50, 68
1, 72000, Note_on_c, 0, 38, 56
1, 72074, Control_c, 0, 64, 127
1, 72480, Note_on_c, 0, 38, 0
1, 72480, Note_on_c, 0, 50, 0
1, 72491, Control_c, 0, 64, 0
1, 72960, Tempo, 375000
1, 72960, Control_c, 0, 91, 127
1, 72960, Control_c, 0, 91, 127
1, 72961, Note_on_c, 0, 67, 60
1, 72961, Note_on_c, 0, 55, 34
1, 72961, Note_on_c, 0, 59, 40
1, 73013, Control_c, 0, 64, 127
1, 73200, Note_on_c, 0, 55, 34
1, 73200, Note_on_c, 0, 59, 40
1, 73201, Note_on_c, 0, 59, 0
1, 73201, Note_on_c, 0, 55, 0
1, 73320, Note_on_c, 0, 71, 46
1, 73321, Note_on_c, 0, 67, 0
1, 73333, Control_c, 0, 64, 0
1, 73380, Note_on_c, 0, 71, 0
1, 73380, Note_on_c, 0, 69, 47
1, 73440, Note_on_c, 0, 69, 0
1, 73440, Note_on_c, 0, 59, 0
1, 73440, Note_on_c, 0, 55, 0
1, 73440, Note_on_c, 0, 67, 56
1, 73440, Note_on_c, 0, 55, 34
1, 73440, Note_on_c, 0, 59, 40
1, 73680, Note_on_c, 0, 59, 0
1, 73680, Note_on_c, 0, 55, 0
1, 73680, Note_on_c, 0, 67, 0
1, 73680, Note_on_c, 0, 55, 33
1, 73680, Note_on_c, 0, 59, 39
1, 73920, Note_on_c, 0, 59, 0
1, 73920, Note_on_c, 0, 55, 0
1, 73920, Note_on_c, 0, 55, 34
1, 73920, Note_on_c, 0, 59, 40
1, 74016, Control_c, 0, 64, 127
1, 74160, Tempo, 368098
1, 74160, Note_on_c, 0, 59, 0
1, 74160, Note_on_c, 0, 55, 0
1, 74160, Note_on_c, 0, 62, 53
1, 74160, Note_on_c, 0, 55, 34
1, 74160, Note_on_c, 0, 59, 41
1, 74400, Note_on_c, 0, 59, 0
1, 74400, Note_on_c, 0, 55, 0
1, 74400, Note_on_c, 0, 62, 0
1, 74400, Note_on_c, 0, 67, 53
1, 74400, Note_on_c, 0, 55, 34
1, 74400, Note_on_c, 0, 59, 41
1, 74640, Note_on_c, 0, 59, 0
1, 74640, Note_on_c, 0, 55, 0
1, 74640, Note_on_c, 0, 67, 0
1, 74640, Note_on_c, 0, 71, 53
1, 74640, Note_on_c, 0, 55, 34
1, 74640, Note_on_c, 0, 59, 41
1, 74880, Tempo, 368098
1, 74880, Note_on_c, 0, 59, 0
1, 74880, Note_on_c, 0, 55, 0
1, 74880, Note_on_c, 0, 71, 0
1, 74880, Note_on_c, 0, 71, 57
1, 74880, Note_on_c, 0, 55, 37
1, 74880, Note_on_c, 0, 60, 44
1, 74880, Control_c, 0, 64, 0
1, 75000, Note_on_c, 0, 71, 0
1, 75000, Note_on_c, 0, 69, 54
1, 75120, Note_on_c, 0, 69, 0
1, 75120, Note_on_c, 0, 67, 54
1, 75240, Note_on_c, 0, 67, 0
1, 75240, Note_on_c, 0, 69, 54
1, 75360, Note_on_c, 0, 69, 0
1, 75360, Note_on_c, 0, 60, 0
1, 75360, Note_on_c, 0, 55, 0
1, 75360, Note_on_c, 0, 67, 57
1, 75360, Note_on_c, 0, 55, 34
1, 75360, Note_on_c, 0, 59, 41
1, 75600, Tempo, 360360
1, 75600, Note_on_c, 0, 59, 0
1, 75600, Note_on_c, 0, 55, 0
1, 75600, Note_on_c, 0, 67, 0
1, 75600, Note_on_c, 0, 76, 54
1, 75840, Note_on_c, 0, 76, 0
1, 75840, Note_on_c, 0, 76, 54
1, 75840, Note_on_c, 0, 74, 36
1, 75840, Note_on_c, 0, 68, 36
1, 75960, Note_on_c, 0, 68, 0
1, 75960, Note_on_c, 0, 74, 0
1, 75960, Note_on_c, 0, 76, 0
1, 76080, Note_on_c, 0, 76, 54
1, 76080, Note_on_c, 0, 74, 36
1, 76080, Note_on_c, 0, 68, 36
1, 76200, Note_on_c, 0, 68, 0
1, 76200, Note_on_c, 0, 74, 0
1, 76200, Note_on_c, 0, 76, 0
1, 76320, Note_on_c, 0, 76, 54
1, 76320, Note_on_c, 0, 74, 36
1, 76320, Note_on_c, 0, 68, 36
1, 76440, Note_on_c, 0, 68, 0
1, 76440, Note_on_c, 0, 74, 0
1, 76440, Note_on_c, 0, 76, 0
1, 76560, Tempo, 355030
1, 76560, Note_on_c, 0, 76, 54
1, 76560, Note_on_c, 0, 68, 36
1, 76560, Note_on_c, 0, 74, 36
1, 76680, Note_on_c, 0, 74, 0
1, 76680, Note_on_c, 0, 68, 0
1, 76680, Note_on_c, 0, 76, 0
1, 76800, Tempo, 366972
1, 76800, Note_on_c, 0, 76, 57
1, 76800, Note_on_c, 0, 72, 41
1, 76800, Note_on_c, 0, 69, 41
1, 76917, Control_c, 0, 64, 127
1, 77160, Tempo, 352941
1, 77160, Note_on_c, 0, 76, 0
1, 77160, Note_on_c, 0, 81, 52
1, 77220, Note_on_c, 0, 81, 0
1, 77220, Note_on_c, 0, 83, 52
1, 77280, Tempo, 365854
1, 77280, Note_on_c, 0, 83, 0
1, 77280, Note_on_c, 0, 69, 0
1, 77280, Note_on_c, 0, 72, 0
1, 77280, Note_on_c, 0, 84, 50
1, 77323, Control_c, 0, 64, 0
1, 77520, Note_on_c, 0, 84, 0
1, 77520, Note_on_c, 0, 76, 54
1, 77640, Tempo, 372671
1, 77760, Note_on_c, 0, 76, 0
1, 77760, Note_on_c, 0, 74, 54
1, 77760, Note_on_c, 0, 66, 36
1, 77760, Note_on_c, 0, 72, 36
1, 77880, Note_on_c, 0, 72, 0
1, 77880, Note_on_c, 0, 66, 0
1, 77880, Note_on_c, 0, 74, 0
1, 78000, Note_on_c, 0, 74, 54
1, 78000, Note_on_c, 0, 66, 36
1, 78000, Note_on_c, 0, 72, 36
1, 78120, Note_on_c, 0, 72, 0
1, 78120, Note_on_c, 0, 66, 0
1, 78120, Note_on_c, 0, 74, 0
1, 78240, Note_on_c, 0, 74, 54
1, 78240, Note_on_c, 0, 66, 36
1, 78240, Note_on_c, 0, 72, 36
1, 78360, Note_on_c, 0, 72, 0
1, 78360, Note_on_c, 0, 66, 0
1, 78360, Note_on_c, 0, 74, 0
1, 78480, Note_on_c, 0, 74, 54
1, 78480, Note_on_c, 0, 66, 36
1, 78480, Note_on_c, 0, 72, 36
1, 78600, Note_on_c, 0, 72, 0
1, 78600, Note_on_c, 0, 66, 0
1, 78600, Note_on_c, 0, 74, 0
1, 78720, Tempo, 364742
1, 78720, Note_on_c, 0, 74, 57
1, 78720, Note_on_c, 0, 71, 41
1, 78720, Note_on_c, 0, 67, 41
1, 78805, Control_c, 0, 64, 127
1, 79080, Tempo, 353982
1, 79080, Note_on_c, 0, 74, 0
1, 79080, Note_on_c, 0, 79, 49
1, 79140, Note_on_c, 0, 79, 0
1, 79140, Note_on_c, 0, 81, 48
1, 79200, Tempo, 362538
1, 79200, Note_on_c, 0, 81, 0
1, 79200, Note_on_c, 0, 67, 0
1, 79200, Note_on_c, 0, 71, 0
1, 79200, Note_on_c, 0, 83, 45
1, 79217, Control_c, 0, 64, 0
1, 79440, Note_on_c, 0, 83, 0
1, 81480, Tempo, 378549
1, 81480, Note_on_c, 0, 83, 39
1, 81540, Note_on_c, 0, 83, 0
1, 81540, Note_on_c, 0, 81, 39
1, 81600, Tempo, 378549
1, 81600, Note_on_c, 0, 81, 0
1, 81600, Note_on_c, 0, 79, 47
1, 81720, Note_on_c, 0, 79, 0
1, 81960, Note_on_c, 0, 79, 39
1, 82020, Note_on_c, 0, 79, 0
1, 82020, Note_on_c, 0, 78, 39
1, 82080, Tempo, 378549
1, 82080, Note_on_c, 0, 78, 0
1, 82080, Note_on_c, 0, 76, 50
1, 82200, Note_on_c, 0, 76, 0
1, 82440, Note_on_c, 0, 76, 38
1, 82500, Note_on_c, 0, 76, 0
1, 82500, Note_on_c, 0, 74, 38
1, 82560, Tempo, 378549
1, 82560, Note_on_c, 0, 74, 0
1, 82560, Note_on_c, 0, 72, 50
1, 82560, Note_on_c, 0, 64, 34
1, 82560, Note_on_c, 0, 67, 34
1, 82800, Note_on_c, 0, 67, 0
1, 82800, Note_on_c, 0, 64, 0
1, 82800, Note_on_c, 0, 72, 0
1, 83400, Note_on_c, 0, 75, 51
1, 83400, Note_on_c, 0, 67, 44
1, 83460, Note_on_c, 0, 67, 0
1, 83460, Note_on_c, 0, 75, 0
1, 83460, Note_on_c, 0, 74, 51
1, 83460, Note_on_c, 0, 65, 44
1, 83520, Tempo, 382166
1, 83520, Note_on_c, 0, 65, 0
1, 83520, Note_on_c, 0, 74, 0
1, 83520, Note_on_c, 0, 72, 59
1, 83520, Note_on_c, 0, 63, 55
1, 83606, Control_c, 0, 64, 127
1, 83760, Note_on_c, 0, 72, 0
1, 83760, Note_on_c, 0, 72, 55
1, 84000, Note_on_c, 0, 72, 0
1, 84000, Note_on_c, 0, 63, 0
1, 84000, Note_on_c, 0, 72, 55
1, 84240, Note_on_c, 0, 72, 0
1, 84240, Note_on_c, 0, 72, 55
1, 84360, Note_on_c, 0, 69, 47
1, 84372, Control_c, 0, 64, 0
1, 84420, Note_on_c, 0, 69, 0
1, 84420, Note_on_c, 0, 67, 47
1, 84480, Tempo, 363636
1, 84480, Note_on_c, 0, 67, 0
1, 84480, Note_on_c, 0, 72, 0
1, 84480, Note_on_c, 0, 72, 60
1, 84480, Note_on_c, 0, 62, 56
1, 84480, Note_on_c, 0, 66, 56
1, 84593, Control_c, 0, 64, 127
1, 84840, Tempo, 348837
1, 84840, Note_on_c, 0, 72, 0
1, 84840, Note_on_c, 0, 74, 46
1, 84854, Control_c, 0, 64, 0
1, 84900, Note_on_c, 0, 74, 0
1, 84900, Note_on_c, 0, 72, 46
1, 84960, Tempo, 363636
1, 84960, Note_on_c, 0, 72, 0
1, 84960, Note_on_c, 0, 66, 0
1, 84960, Note_on_c, 0, 62, 0
1, 84960, Note_on_c, 0, 71, 56
1, 84960, Note_on_c, 0, 64, 46
1, 84960, Note_on_c, 0, 67, 46
1, 85070, Control_c, 0, 64, 127
1, 85200, Note_on_c, 0, 71, 0
1, 85200, Note_on_c, 0, 71, 57
1, 85440, Tempo, 373832
1, 85440, Note_on_c, 0, 71, 0
1, 85440, Note_on_c, 0, 67, 0
1, 85440, Note_on_c, 0, 64, 0
1, 85440, Note_on_c, 0, 69, 60
1, 85440, Note_on_c, 0, 60, 46
1, 85440, Note_on_c, 0, 64, 46
1, 85453, Control_c, 0, 64, 0
1, 85553, Control_c, 0, 64, 127
1, 85680, Tempo, 380952
1, 85680, Note_on_c, 0, 69, 0
1, 85680, Note_on_c, 0, 76, 56
1, 85920, Note_on_c, 0, 76, 0
1, 85920, Note_on_c, 0, 64, 0
1, 85920, Note_on_c, 0, 60, 0
1, 85920, Note_on_c, 0, 74, 56
1, 85920, Note_on_c, 0, 62, 46
1, 85938, Control_c, 0, 64, 0
1, 86008, Control_c, 0, 64, 127
1, 86160, Note_on_c, 0, 74, 0
1, 86160, Note_on_c, 0, 66, 56
1, 86400, Tempo, 358209
1, 86400, Note_on_c, 0, 66, 0
1, 86400, Note_on_c, 0, 62, 0
1, 86400, Note_on_c, 0, 67, 54
1, 86400, Note_on_c, 0, 55, 37
1, 86400, Note_on_c, 0, 59, 44
1, 86400, Control_c, 0, 64, 0
1, 86520, Note_on_c, 0, 67, 0
1, 86520, Note_on_c, 0, 69, 49
1, 86640, Note_on_c, 0, 69, 0
1, 86640, Note_on_c, 0, 59, 0
1, 86640, Note_on_c, 0, 55, 0
1, 86640, Note_on_c, 0, 71, 50
1, 86640, Note_on_c, 0, 55, 32
1, 86640, Note_on_c, 0, 59, 38
1, 86760, Note_on_c, 0, 71, 0
1, 86760, Note_on_c, 0, 72, 51
1, 86880, Note_on_c, 0, 72, 0
1, 86880, Note_on_c, 0, 59, 0
1, 86880, Note_on_c, 0, 55, 0
1, 86880, Note_on_c, 0, 74, 51
1, 86880, Note_on_c, 0, 55, 32
1, 86880, Note_on_c, 0, 59, 38
1, 87000, Note_on_c, 0, 74, 0
1, 87000, Note_on_c, 0, 71, 51
1, 87120, Note_on_c, 0, 71, 0
1, 87120, Note_on_c, 0, 59, 0
1, 87120, Note_on_c, 0, 55, 0
1, 87120, Note_on_c, 0, 69, 50
1, 87120, Note_on_c, 0, 55, 32
1, 87120, Note_on_c, 0, 59, 38
1, 87240, Note_on_c, 0, 69, 0
1, 87240, Note_on_c, 0, 67, 50
1, 87360, Note_on_c, 0, 67, 0
1, 87360, Note_on_c, 0, 59, 0
1, 87360, Note_on_c, 0, 55, 0
1, 87360, Note_on_c, 0, 66, 53
1, 87360, Note_on_c, 0, 55, 36
1, 87360, Note_on_c, 0, 60, 43
1, 87480, Note_on_c, 0, 66, 0
1, 87480, Note_on_c, 0, 67, 48
1, 87600, Note_on_c, 0, 67, 0
1, 87600, Note_on_c, 0, 60, 0
1, 87600, Note_on_c, 0, 55, 0
1, 87600, Note_on_c, 0, 69, 49
1, 87600, Note_on_c, 0, 55, 32
1, 87600, Note_on_c, 0, 60, 38
1, 87720, Note_on_c, 0, 69, 0
1, 87720, Note_on_c, 0, 71, 49
1, 87840, Note_on_c, 0, 71, 0
1, 87840, Note_on_c, 0, 60, 0
1, 87840, Note_on_c, 0, 55, 0
1, 87840, Note_on_c, 0, 72, 49
1, 87840, Note_on_c, 0, 55, 32
1, 87840, Note_on_c, 0, 60, 38
1, 87960, Note_on_c, 0, 72, 0
1, 87960, Note_on_c, 0, 69, 49
1, 88080, Note_on_c, 0, 69, 0
1, 88080, Note_on_c, 0, 60, 0
1, 88080, Note_on_c, 0, 55, 0
1, 88080, Note_on_c, 0, 67, 48
1, 88080, Note_on_c, 0, 55, 32
1, 88080, Note_on_c, 0, 60, 38
1, 88200, Note_on_c, 0, 67, 0
1, 88200, Note_on_c, 0, 66, 48
1, 88320, Note_on_c, 0, 66, 0
1, 88320, Note_on_c, 0, 60, 0
1, 88320, Note_on_c, 0, 55, 0
1, 88320, Note_on_c, 0, 67, 52
1, 88320, Note_on_c, 0, 55, 37
1, 88320, Note_on_c, 0, 59, 44
1, 88440, Note_on_c, 0, 67, 0
1, 88440, Note_on_c, 0, 69, 47
1, 88560, Note_on_c, 0, 69, 0
1, 88560, Note_on_c, 0, 59, 0
1, 88560, Note_on_c, 0, 55, 0
1, 88560, Note_on_c, 0, 71, 48
1, 88560, Note_on_c, 0, 55, 32
1, 88560, Note_on_c, 0, 59, 38
1, 88680, Note_on_c, 0, 71, 0
1, 88680, Note_on_c, 0, 72, 49
1, 88800, Note_on_c, 0, 72, 0
1, 88800, Note_on_c, 0, 59, 0
1, 88800, Note_on_c, 0, 55, 0
1, 88800, Note_on_c, 0, 74, 50
1, 88800, Note_on_c, 0, 55, 32
1, 88800, Note_on_c, 0, 59, 38
1, 88920, Note_on_c, 0, 74, 0
1, 88920, Note_on_c, 0, 71, 49
1, 89040, Note_on_c, 0, 71, 0
1, 89040, Note_on_c, 0, 59, 0
1, 89040, Note_on_c, 0, 55, 0
1, 89040, Note_on_c, 0, 69, 48
1, 89040, Note_on_c, 0, 55, 32
1, 89040, Note_on_c, 0, 59, 38
1, 89160, Note_on_c, 0, 69, 0
1, 89160, Note_on_c, 0, 67, 47
1, 89280, Note_on_c, 0, 67, 0
1, 89280, Note_on_c, 0, 59, 0
1, 89280, Note_on_c, 0, 55, 0
1, 89280, Note_on_c, 0, 66, 53
1, 89280, Note_on_c, 0, 55, 37
1, 89280, Note_on_c, 0, 60, 44
1, 89400, Note_on_c, 0, 66, 0
1, 89400, Note_on_c, 0, 67, 47
1, 89520, Note_on_c, 0, 67, 0
1, 89520, Note_on_c, 0, 60, 0
1, 89520, Note_on_c, 0, 55, 0
1, 89520, Note_on_c, 0, 69, 47
1, 89520, Note_on_c, 0, 55, 32
1, 89520, Note_on_c, 0, 60, 38
1, 89640, Note_on_c, 0, 69, 0
1, 89640, Note_on_c, 0, 71, 48
1, 89760, Note_on_c, 0, 71, 0
1, 89760, Note_on_c, 0, 60, 0
1, 89760, Note_on_c, 0, 55, 0
1, 89760, Note_on_c, 0, 72, 49
1, 89760, Note_on_c, 0, 55, 32
1, 89760, Note_on_c, 0, 60, 38
1, 89880, Note_on_c, 0, 72, 0
1, 89880, Note_on_c, 0, 69, 49
1, 90000, Note_on_c, 0, 69, 0
1, 90000, Note_on_c, 0, 60, 0
1, 90000, Note_on_c, 0, 55, 0
1, 90000, Note_on_c, 0, 67, 48
1, 90000, Note_on_c, 0, 55, 32
1, 90000, Note_on_c, 0, 60, 38
1, 90120, Note_on_c, 0, 67, 0
1, 90120, Note_on_c, 0, 66, 48
1, 90240, Tempo, 382166
1, 90240, Note_on_c, 0, 66, 0
1, 90240, Note_on_c, 0, 60, 0
1, 90240, Note_on_c, 0, 55, 0
1, 90240, Note_on_c, 0, 67, 58
1, 90240, Note_on_c, 0, 55, 38
1, 90240, Note_on_c, 0, 59, 45
1, 90360, Control_c, 0, 64, 127
1, 90660, Note_on_c, 0, 67, 0
1, 90660, Note_on_c, 0, 78, 65
1, 90720, Note_on_c, 0, 78, 0
1, 90720, Note_on_c, 0, 59, 0
1, 90720, Note_on_c, 0, 55, 0
1, 90720, Note_on_c, 0, 79, 76
1, 90731, Control_c, 0, 64, 0
1, 90787, Control_c, 0, 64, 127
1, 91200, Note_on_c, 0, 79, 0
1, 91200, Note_on_c, 0, 31, 69
1, 91200, Note_on_c, 0, 43, 69
1, 91680, Note_on_c, 0, 43, 0
1, 91680, Note_on_c, 0, 31, 0
1, 91694, Control_c, 0, 64, 0
1, 92160, Tempo, 410959
1, 92160, Marker_t, "Teil 3"
1, 92160, Note_on_c, 0, 40, 60
1, 92160, Note_on_c, 0, 52, 60
1, 92366, Control_c, 0, 64, 127
1, 92400, Tempo, 419580
1, 92400, Note_on_c, 0, 64, 57
1, 92640, Tempo, 401338
1, 92640, Note_on_c, 0, 64, 0
1, 92640, Note_on_c, 0, 52, 0
1, 92640, Note_on_c, 0, 40, 0
1, 92640, Note_on_c, 0, 76, 65
1, 92880, Tempo, 387097
1, 92880, Note_on_c, 0, 67, 39
1, 92880, Note_on_c, 0, 71, 39
1, 93120, Tempo, 397351
1, 93120, Note_on_c, 0, 71, 0
1, 93120, Note_on_c, 0, 67, 0
1, 93120, Note_on_c, 0, 66, 45
1, 93120, Note_on_c, 0, 69, 45
1, 93141, Control_c, 0, 64, 0
1, 93360, Tempo, 404040
1, 93360, Note_on_c, 0, 76, 0
1, 93360, Note_on_c, 0, 75, 56
1, 93440, Control_c, 0, 64, 127
1, 93600, Tempo, 398671
1, 93600, Note_on_c, 0, 75, 0
1, 93600, Note_on_c, 0, 78, 70
1, 93840, Tempo, 383387
1, 93840, Note_on_c, 0, 69, 0
1, 93840, Note_on_c, 0, 66, 0
1, 93840, Note_on_c, 0, 69, 39
1, 93840, Note_on_c, 0, 72, 39
1, 94080, Tempo, 397351
1, 94080, Note_on_c, 0, 72, 0
1, 94080, Note_on_c, 0, 69, 0
1, 94080, Note_on_c, 0, 67, 45
1, 94080, Note_on_c, 0, 71, 45
1, 94080, Control_c, 0, 64, 0
1, 94286, Control_c, 0, 64, 127
1, 94320, Tempo, 409556
1, 94320, Note_on_c, 0, 78, 0
1, 94320, Note_on_c, 0, 76, 55
1, 94560, Tempo, 405405
1, 94560, Note_on_c, 0, 76, 0
1, 94560, Note_on_c, 0, 79, 72
1, 94800, Tempo, 389610
1, 94800, Note_on_c, 0, 71, 0
1, 94800, Note_on_c, 0, 67, 0
1, 94800, Note_on_c, 0, 64, 40
1, 94800, Note_on_c, 0, 70, 40
1, 94821, Control_c, 0, 64, 0
1, 95040, Tempo, 401338
1, 95040, Note_on_c, 0, 70, 0
1, 95040, Note_on_c, 0, 64, 0
1, 95040, Note_on_c, 0, 62, 45
1, 95040, Note_on_c, 0, 71, 45
1, 95189, Control_c, 0, 64, 127
1, 95280, Tempo, 408163
1, 95280, Note_on_c, 0, 79, 0
1, 95280, Note_on_c, 0, 78, 63
1, 95520, Tempo, 401338
1, 95520, Note_on_c, 0, 78, 0
1, 95520, Note_on_c, 0, 83, 78
1, 95760, Tempo, 392157
1, 95760, Note_on_c, 0, 71, 0
1, 95760, Note_on_c, 0, 62, 0
1, 95760, Note_on_c, 0, 62, 45
1, 95760, Note_on_c, 0, 66, 45
1, 96000, Tempo, 401338
1, 96000, Note_on_c, 0, 66, 0
1, 96000, Note_on_c, 0, 62, 0
1, 96000, Note_on_c, 0, 61, 48
1, 96000, Note_on_c, 0, 64, 48
1, 96000, Control_c, 0, 64, 0
1, 96160, Control_c, 0, 64, 127
1, 96240, Tempo, 388350
1, 96240, Note_on_c, 0, 83, 0
1, 96240, Note_on_c, 0, 82, 66
1, 96480, Tempo, 401338
1, 96480, Note_on_c, 0, 82, 0
1, 96480, Note_on_c, 0, 88, 72
1, 96480, Note_on_c, 0, 85, 72
1, 96720, Note_on_c, 0, 64, 0
1, 96720, Note_on_c, 0, 61, 0
1, 96720, Note_on_c, 0, 58, 48
1, 96960, Note_on_c, 0, 58, 0
1, 96960, Note_on_c, 0, 59, 54
1, 96985, Control_c, 0, 64, 0
1, 97155, Control_c, 0, 64, 127
1, 97200, Tempo, 405405
1, 97200, Note_on_c, 0, 88, 0
1, 97200, Note_on_c, 0, 85, 0
1, 97200, Note_on_c, 0, 83, 60
1, 97200, Note_on_c, 0, 86, 60
1, 97440, Note_on_c, 0, 59, 0
1, 97440, Note_on_c, 0, 64, 49
1, 97680, Note_on_c, 0, 86, 0
1, 97680, Note_on_c, 0, 83, 0
1, 97680, Note_on_c, 0, 85, 56
1, 97680, Note_on_c, 0, 76, 56
1, 97687, Control_c, 0, 64, 0
1, 97920, Note_on_c, 0, 64, 0
1, 97920, Note_on_c, 0, 66, 49
1, 97920, Control_c, 0, 64, 127
1, 98160, Note_on_c, 0, 76, 0
1, 98160, Note_on_c, 0, 85, 0
1, 98160, Note_on_c, 0, 74, 57
1, 98160, Note_on_c, 0, 83, 57
1, 98177, Control_c, 0, 64, 0
1, 98309, Control_c, 0, 64, 127
1, 98400, Tempo, 400000
1, 98400, Note_on_c, 0, 66, 0
1, 98400, Note_on_c, 0, 66, 49
1, 98416, Control_c, 0, 64, 0
1, 98640, Note_on_c, 0, 83, 0
1, 98640, Note_on_c, 0, 74, 0
1, 98640, Note_on_c, 0, 73, 57
1, 98640, Note_on_c, 0, 82, 57
1, 98880, Note_on_c, 0, 82, 0
1, 98880, Note_on_c, 0, 73, 0
1, 98880, Note_on_c, 0, 66, 0
1, 98880, Note_on_c, 0, 59, 49
1, 98903, Control_c, 0, 64, 127
1, 99120, Tempo, 393443
1, 99120, Note_on_c, 0, 71, 56
1, 99360, Note_on_c, 0, 71, 0
1, 99360, Note_on_c, 0, 59, 0
1, 99360, Note_on_c, 0, 83, 66
1, 99497, Control_c, 0, 64, 0
1, 99600, Note_on_c, 0, 83, 0
1, 99600, Note_on_c, 0, 39, 56
1, 99600, Note_on_c, 0, 51, 56
1, 99840, Tempo, 410959
1, 99840, Note_on_c, 0, 51, 0
1, 99840, Note_on_c, 0, 39, 0
1, 99840, Note_on_c, 0, 40, 60
1, 99840, Note_on_c, 0, 52, 60
1, 100080, Tempo, 416667
1, 100080, Note_on_c, 0, 64, 57
1, 100080, Control_c, 0, 64, 127
1, 100320, Tempo, 401338
1, 100320, Note_on_c, 0, 64, 0
1, 100320, Note_on_c, 0, 52, 0
1, 100320, Note_on_c, 0, 40, 0
1, 100320, Note_on_c, 0, 76, 65
1, 100560, Tempo, 390879
1, 100560, Note_on_c, 0, 67, 39
1, 100560, Note_on_c, 0, 71, 39
1, 100800, Tempo, 401338
1, 100800, Note_on_c, 0, 71, 0
1, 100800, Note_on_c, 0, 67, 0
1, 100800, Note_on_c, 0, 66, 45
1, 100800, Note_on_c, 0, 69, 45
1, 100821, Control_c, 0, 64, 0
1, 101040, Tempo, 410959
1, 101040, Note_on_c, 0, 76, 0
1, 101040, Note_on_c, 0, 75, 56
1, 101120, Control_c, 0, 64, 127
1, 101280, Tempo, 401338
1, 101280, Note_on_c, 0, 75, 0
1, 101280, Note_on_c, 0, 78, 70
1, 101520, Tempo, 388350
1, 101520, Note_on_c, 0, 69, 0
1, 101520, Note_on_c, 0, 66, 0
1, 101520, Note_on_c, 0, 69, 39
1, 101520, Note_on_c, 0, 72, 39
1, 101760, Tempo, 401338
1, 101760, Note_on_c, 0, 72, 0
1, 101760, Note_on_c, 0, 69, 0
1, 101760, Note_on_c, 0, 67, 45
1, 101760, Note_on_c, 0, 71, 45
1, 101760, Control_c, 0, 64, 0
1, 101966, Control_c, 0, 64, 127
1, 102000, Tempo, 408163
1, 102000, Note_on_c, 0, 78, 0
1, 102000, Note_on_c, 0, 76, 55
1, 102240, Tempo, 405405
1, 102240, Note_on_c, 0, 76, 0
1, 102240, Note_on_c, 0, 79, 72
1, 102480, Tempo, 389610
1, 102480, Note_on_c, 0, 71, 0
1, 102480, Note_on_c, 0, 67, 0
1, 102480, Note_on_c, 0, 64, 40
1, 102480, Note_on_c, 0, 70, 40
1, 102501, Control_c, 0, 64, 0
1, 102720, Tempo, 401338
1, 102720, Note_on_c, 0, 70, 0
1, 102720, Note_on_c, 0, 64, 0
1, 102720, Note_on_c, 0, 62, 45
1, 102720, Note_on_c, 0, 71, 45
1, 102869, Control_c, 0, 64, 127
1, 102960, Tempo, 408163
1, 102960, Note_on_c, 0, 79, 0
1, 102960, Note_on_c, 0, 78, 63
1, 103200, Tempo, 401338
1, 103200, Note_on_c, 0, 78, 0
1, 103200, Note_on_c, 0, 83, 76
1, 103440, Tempo, 392157
1, 103440, Note_on_c, 0, 71, 0
1, 103440, Note_on_c, 0, 62, 0
1, 103440, Note_on_c, 0, 62, 45
1, 103440, Note_on_c, 0, 66, 45
1, 103680, Tempo, 401338
1, 103680, Note_on_c, 0, 66, 0
1, 103680, Note_on_c, 0, 62, 0
1, 103680, Note_on_c, 0, 61, 48
1, 103680, Note_on_c, 0, 64, 48
1, 103680, Control_c, 0, 64, 0
1, 103840, Control_c, 0, 64, 127
1, 103920, Tempo, 408163
1, 103920, Note_on_c, 0, 83, 0
1, 103920, Note_on_c, 0, 82, 66
1, 104160, Tempo, 398671
1, 104160, Note_on_c, 0, 82, 0
1, 104160, Note_on_c, 0, 88, 72
1, 104160, Note_on_c, 0, 85, 72
1, 104400, Note_on_c, 0, 64, 0
1, 104400, Note_on_c, 0, 61, 0
1, 104400, Note_on_c, 0, 58, 48
1, 104640, Note_on_c, 0, 58, 0
1, 104640, Note_on_c, 0, 59, 54
1, 104665, Control_c, 0, 64, 0
1, 104835, Control_c, 0, 64, 127
1, 104880, Tempo, 406780
1, 104880, Note_on_c, 0, 88, 0
1, 104880, Note_on_c, 0, 85, 0
1, 104880, Note_on_c, 0, 83, 60
1, 104880, Note_on_c, 0, 86, 60
1, 105120, Note_on_c, 0, 59, 0
1, 105120, Note_on_c, 0, 64, 49
1, 105360, Tempo, 397351
1, 105360, Note_on_c, 0, 86, 0
1, 105360, Note_on_c, 0, 83, 0
1, 105360, Note_on_c, 0, 85, 56
1, 105360, Note_on_c, 0, 76, 56
1, 105367, Control_c, 0, 64, 0
1, 105600, Note_on_c, 0, 64, 0
1, 105600, Note_on_c, 0, 66, 49
1, 105600, Control_c, 0, 64, 127
1, 105840, Note_on_c, 0, 76, 0
1, 105840, Note_on_c, 0, 85, 0
1, 105840, Note_on_c, 0, 74, 57
1, 105840, Note_on_c, 0, 83, 57
1, 105857, Control_c, 0, 64, 0
1, 105989, Control_c, 0, 64, 127
1, 106080, Note_on_c, 0, 66, 0
1, 106080, Note_on_c, 0, 66, 49
1, 106096, Control_c, 0, 64, 0
1, 106320, Note_on_c, 0, 83, 0
1, 106320, Note_on_c, 0, 74, 0
1, 106320, Note_on_c, 0, 73, 57
1, 106320, Note_on_c, 0, 82, 57
1, 106560, Note_on_c, 0, 82, 0
1, 106560, Note_on_c, 0, 73, 0
1, 106560, Note_on_c, 0, 66, 0
1, 106560, Note_on_c, 0, 59, 49
1, 106583, Control_c, 0, 64, 127
1, 106800, Tempo, 393443
1, 106800, Note_on_c, 0, 71, 56
1, 107040, Note_on_c, 0, 71, 0
1, 107040, Note_on_c, 0, 59, 0
1, 107040, Note_on_c, 0, 83, 66
1, 107177, Control_c, 0, 64, 0
1, 107280, Note_on_c, 0, 83, 0
1, 107280, Note_on_c, 0, 35, 56
1, 107280, Note_on_c, 0, 47, 56
1, 107520, Note_on_c, 0, 47, 0
1, 107520, Note_on_c, 0, 35, 0
1, 107520, Note_on_c, 0, 36, 60
1, 107520, Note_on_c, 0, 48, 60
1, 107726, Control_c, 0, 64, 127
1, 107760, Tempo, 419580
1, 107760, Note_on_c, 0, 69, 57
1, 108000, Tempo, 401338
1, 108000, Note_on_c, 0, 69, 0
1, 108000, Note_on_c, 0, 48, 0
1, 108000, Note_on_c, 0, 36, 0
1, 108000, Note_on_c, 0, 81, 68
1, 108240, Tempo, 390879
1, 108240, Note_on_c, 0, 60, 35
1, 108240, Note_on_c, 0, 64, 42
1, 108480, Tempo, 401338
1, 108480, Note_on_c, 0, 64, 0
1, 108480, Note_on_c, 0, 60, 0
1, 108480, Note_on_c, 0, 59, 40
1, 108480, Note_on_c, 0, 62, 48
1, 108489, Control_c, 0, 64, 0
1, 108720, Tempo, 384615
1, 108720, Note_on_c, 0, 81, 0
1, 108720, Note_on_c, 0, 80, 56
1, 108812, Control_c, 0, 64, 127
1, 108960, Tempo, 406780
1, 108960, Note_on_c, 0, 80, 0
1, 108960, Note_on_c, 0, 86, 70
1, 109200, Note_on_c, 0, 62, 0
1, 109200, Note_on_c, 0, 59, 0
1, 109200, Note_on_c, 0, 59, 40
1, 109200, Note_on_c, 0, 56, 34
1, 109440, Note_on_c, 0, 56, 0
1, 109440, Note_on_c, 0, 59, 0
1, 109440, Note_on_c, 0, 57, 39
1, 109440, Note_on_c, 0, 60, 46
1, 109440, Control_c, 0, 64, 0
1, 109596, Control_c, 0, 64, 127
1, 109680, Tempo, 405405
1, 109680, Note_on_c, 0, 86, 0
1, 109680, Note_on_c, 0, 84, 61
1, 109800, Tempo, 406780
1, 109920, Tempo, 408163
1, 109920, Note_on_c, 0, 60, 0
1, 109920, Note_on_c, 0, 57, 0
1, 109920, Note_on_c, 0, 62, 44
1, 109920, Note_on_c, 0, 59, 37
1, 109934, Control_c, 0, 64, 0
1, 110040, Tempo, 409556
1, 110076, Control_c, 0, 64, 127
1, 110160, Tempo, 410959
1, 110160, Note_on_c, 0, 84, 0
1, 110160, Note_on_c, 0, 83, 59
1, 110280, Tempo, 412371
1, 110400, Tempo, 413793
1, 110400, Note_on_c, 0, 59, 0
1, 110400, Note_on_c, 0, 62, 0
1, 110400, Note_on_c, 0, 64, 40
1, 110400, Note_on_c, 0, 60, 34
1, 110417, Control_c, 0, 64, 0
1, 110520, Tempo, 415225
1, 110570, Control_c, 0, 64, 127
1, 110640, Tempo, 416667
1, 110640, Note_on_c, 0, 83, 0
1, 110640, Note_on_c, 0, 81, 57
1, 110661, Control_c, 0, 64, 0
1, 110760, Tempo, 418118
1, 110860, Tempo, 419580
1, 110880, Tempo, 430108
1, 110880, Note_on_c, 0, 81, 0
1, 110880, Note_on_c, 0, 60, 0
1, 110880, Note_on_c, 0, 64, 0
1, 111120, Tempo, 421053
1, 111120, Note_on_c, 0, 78, 43
1, 111360, Tempo, 402685
1, 111360, Note_on_c, 0, 78, 0
1, 111360, Note_on_c, 0, 79, 49
1, 111516, Control_c, 0, 64, 127
1, 111600, Note_on_c, 0, 71, 30
1, 111600, Note_on_c, 0, 74, 30
1, 111840, Note_on_c, 0, 74, 0
1, 111840, Note_on_c, 0, 71, 0
1, 111840, Note_on_c, 0, 69, 35
1, 111840, Note_on_c, 0, 72, 35
1, 111857, Control_c, 0, 64, 0
1, 112038, Control_c, 0, 64, 127
1, 112080, Tempo, 388350
1, 112080, Note_on_c, 0, 79, 0
1, 112080, Note_on_c, 0, 78, 45
1, 112320, Tempo, 401338
1, 112320, Note_on_c, 0, 78, 0
1, 112320, Note_on_c, 0, 72, 0
1, 112320, Note_on_c, 0, 69, 0
1, 112320, Note_on_c, 0, 84, 49
1, 112320, Note_on_c, 0, 81, 49
1, 112560, Note_on_c, 0, 66, 31
1, 112800, Note_on_c, 0, 66, 0
1, 112800, Note_on_c, 0, 67, 36
1, 112885, Control_c, 0, 64, 0
1, 113020, Tempo, 404040
1, 113040, Note_on_c, 0, 81, 0
1, 113040, Note_on_c, 0, 84, 0
1, 113040, Note_on_c, 0, 79, 45
1, 113040, Note_on_c, 0, 83, 45
1, 113040, Control_c, 0, 64, 127
1, 113200, Tempo, 405405
1, 113280, Note_on_c, 0, 67, 0
1, 113280, Note_on_c, 0, 63, 36
1, 113380, Tempo, 406780
1, 113520, Note_on_c, 0, 83, 0
1, 113520, Note_on_c, 0, 79, 0
1, 113520, Note_on_c, 0, 78, 43
1, 113520, Note_on_c, 0, 81, 43
1, 113530, Control_c, 0, 64, 0
1, 113560, Tempo, 408163
1, 113619, Control_c, 0, 64, 127
1, 113740, Tempo, 409556
1, 113760, Note_on_c, 0, 63, 0
1, 113760, Note_on_c, 0, 64, 30
1, 113920, Tempo, 410959
1, 114000, Tempo, 421053
1, 114000, Note_on_c, 0, 81, 0
1, 114000, Note_on_c, 0, 78, 0
1, 114000, Note_on_c, 0, 76, 42
1, 114000, Note_on_c, 0, 79, 42
1, 114017, Control_c, 0, 64, 0
1, 114106, Control_c, 0, 64, 127
1, 114240, Note_on_c, 0, 64, 0
1, 114240, Note_on_c, 0, 59, 35
1, 114480, Tempo, 447761
1, 114480, Note_on_c, 0, 79, 0
1, 114480, Note_on_c, 0, 76, 0
1, 114480, Note_on_c, 0, 75, 44
1, 114480, Note_on_c, 0, 78, 44
1, 114493, Control_c, 0, 64, 0
1, 114720, Tempo, 389610
1, 114720, Note_on_c, 0, 78, 0
1, 114720, Note_on_c, 0, 75, 0
1, 114720, Note_on_c, 0, 59, 0
1, 114720, Note_on_c, 0, 83, 58
1, 114840, Note_on_c, 0, 83, 0
1, 114840, Note_on_c, 0, 81, 58
1, 114854, Control_c, 0, 64, 127
1, 114960, Note_on_c, 0, 81, 0
1, 114960, Note_on_c, 0, 79, 58
1, 115080, Note_on_c, 0, 79, 0
1, 115080, Note_on_c, 0, 78, 58
1, 115200, Tempo, 401338
1, 115200, Note_on_c, 0, 78, 0
1, 115200, Note_on_c, 0, 76, 66
1, 115208, Control_c, 0, 64, 0
1, 115349, Control_c, 0, 64, 127
1, 115440, Tempo, 393443
1, 115440, Note_on_c, 0, 52, 55
1, 115680, Tempo, 402685
1, 115680, Note_on_c, 0, 52, 0
1, 115680, Note_on_c, 0, 76, 0
1, 115680, Note_on_c, 0, 64, 62
1, 115920, Tempo, 418118
1, 115920, Note_on_c, 0, 67, 55
1, 115920, Note_on_c, 0, 76, 55
1, 116160, Tempo, 401338
1, 116160, Note_on_c, 0, 76, 0
1, 116160, Note_on_c, 0, 67, 0
1, 116160, Note_on_c, 0, 69, 60
1, 116160, Note_on_c, 0, 78, 60
1, 116168, Control_c, 0, 64, 0
1, 116400, Tempo, 393443
1, 116400, Note_on_c, 0, 64, 0
1, 116400, Note_on_c, 0, 63, 47
1, 116640, Tempo, 401338
1, 116640, Note_on_c, 0, 63, 0
1, 116640, Note_on_c, 0, 66, 51
1, 116709, Control_c, 0, 64, 127
1, 116880, Tempo, 409556
1, 116880, Note_on_c, 0, 78, 0
1, 116880, Note_on_c, 0, 69, 0
1, 116880, Note_on_c, 0, 69, 55
1, 116880, Note_on_c, 0, 78, 55
1, 117120, Tempo, 404040
1, 117120, Note_on_c, 0, 78, 0
1, 117120, Note_on_c, 0, 69, 0
1, 117120, Note_on_c, 0, 71, 60
1, 117120, Note_on_c, 0, 79, 60
1, 117124, Control_c, 0, 64, 0
1, 117360, Tempo, 393443
1, 117360, Note_on_c, 0, 66, 0
1, 117360, Note_on_c, 0, 64, 49
1, 117459, Control_c, 0, 64, 127
1, 117600, Tempo, 402685
1, 117600, Note_on_c, 0, 64, 0
1, 117600, Note_on_c, 0, 67, 54
1, 117840, Tempo, 408163
1, 117840, Note_on_c, 0, 79, 0
1, 117840, Note_on_c, 0, 71, 0
1, 117840, Note_on_c, 0, 71, 58
1, 117840, Note_on_c, 0, 79, 58
1, 118080, Tempo, 401338
1, 118080, Note_on_c, 0, 79, 0
1, 118080, Note_on_c, 0, 71, 0
1, 118080, Note_on_c, 0, 72, 66
1, 118080, Note_on_c, 0, 81, 66
1, 118097, Control_c, 0, 64, 0
1, 118320, Tempo, 384615
1, 118320, Note_on_c, 0, 67, 0
1, 118320, Note_on_c, 0, 66, 47
1, 118447, Control_c, 0, 64, 127
1, 118560, Tempo, 401338
1, 118560, Note_on_c, 0, 66, 0
1, 118560, Note_on_c, 0, 69, 51
1, 118800, Tempo, 408163
1, 118800, Note_on_c, 0, 81, 0
1, 118800, Note_on_c, 0, 72, 0
1, 118800, Note_on_c, 0, 78, 55
1, 119040, Tempo, 396040
1, 119040, Note_on_c, 0, 78, 0
1, 119040, Note_on_c, 0, 75, 60
1, 119040, Control_c, 0, 64, 0
1, 119196, Control_c, 0, 64, 127
1, 119280, Tempo, 384615
1, 119280, Note_on_c, 0, 69, 0
1, 119280, Note_on_c, 0, 66, 53
1, 119520, Tempo, 396040
1, 119520, Note_on_c, 0, 66, 0
1, 119520, Note_on_c, 0, 63, 58
1, 119760, Tempo, 404040
1, 119760, Note_on_c, 0, 75, 0
1, 119760, Note_on_c, 0, 72, 56
1, 120000, Tempo, 396040
1, 120000, Note_on_c, 0, 72, 0
1, 120000, Note_on_c, 0, 69, 60
1, 120240, Tempo, 383387
1, 120240, Note_on_c, 0, 63, 0
1, 120240, Note_on_c, 0, 60, 54
1, 120480, Tempo, 396040
1, 120480, Note_on_c, 0, 60, 0
1, 120480, Note_on_c, 0, 57, 58
1, 120720, Tempo, 404040
1, 120720, Note_on_c, 0, 69, 0
1, 120720, Note_on_c, 0, 66, 56
1, 120960, Tempo, 394737
1, 120960, Note_on_c, 0, 66, 0
1, 120960, Note_on_c, 0, 63, 61
1, 121200, Tempo, 384615
1, 121200, Note_on_c, 0, 57, 0
1, 121200, Note_on_c, 0, 54, 52
1, 121440, Tempo, 394737
1, 121440, Note_on_c, 0, 54, 0
1, 121440, Note_on_c, 0, 51, 50
1, 121680, Tempo, 380952
1, 121680, Note_on_c, 0, 51, 0
1, 121680, Note_on_c, 0, 63, 0
1, 121680, Note_on_c, 0, 63, 49
1, 121680, Note_on_c, 0, 51, 42
1, 121693, Control_c, 0, 64, 0
1, 121800, Note_on_c, 0, 51, 0
1, 121800, Note_on_c, 0, 63, 0
1, 121800, Note_on_c, 0, 60, 49
1, 121800, Note_on_c, 0, 48, 42
1, 121857, Control_c, 0, 64, 127
1, 121920, Tempo, 393443
1, 121920, Note_on_c, 0, 48, 0
1, 121920, Note_on_c, 0, 60, 0
1, 121920, Note_on_c, 0, 57, 58
1, 121920, Note_on_c, 0, 45, 55
1, 121991, Control_c, 0, 64, 0
1, 122040, Note_on_c, 0, 45, 0
1, 122040, Note_on_c, 0, 57, 0
1, 122160, Tempo, 380952
1, 122160, Note_on_c, 0, 60, 49
1, 122160, Note_on_c, 0, 48, 42
1, 122210, Control_c, 0, 64, 127
1, 122280, Note_on_c, 0, 48, 0
1, 122280, Note_on_c, 0, 60, 0
1, 122280, Note_on_c, 0, 57, 49
1, 122280, Note_on_c, 0, 45, 42
1, 122400, Tempo, 392157
1, 122400, Note_on_c, 0, 45, 0
1, 122400, Note_on_c, 0, 57, 0
1, 122400, Note_on_c, 0, 54, 58
1, 122400, Note_on_c, 0, 42, 56
1, 122450, Control_c, 0, 64, 0
1, 122520, Note_on_c, 0, 42, 0
1, 122520, Note_on_c, 0, 54, 0
1, 122640, Tempo, 379747
1, 122640, Note_on_c, 0, 57, 54
1, 122640, Note_on_c, 0, 45, 49
1, 122725, Control_c, 0, 64, 127
1, 122760, Note_on_c, 0, 45, 0
1, 122760, Note_on_c, 0, 57, 0
1, 122760, Note_on_c, 0, 54, 54
1, 122760, Note_on_c, 0, 42, 49
1, 122880, Tempo, 401338
1, 122880, Note_on_c, 0, 42, 0
1, 122880, Note_on_c, 0, 54, 0
1, 122880, Note_on_c, 0, 51, 75
1, 122880, Note_on_c, 0, 39, 63
1, 122885, Control_c, 0, 64, 0
1, 123120, Note_on_c, 0, 39, 0
1, 123120, Note_on_c, 0, 51, 0
1, 123600, Tempo, 377358
1, 123600, Note_on_c, 0, 84, 40
1, 123652, Control_c, 0, 64, 127
1, 123720, Note_on_c, 0, 84, 0
1, 123720, Note_on_c, 0, 81, 40
1, 123840, Tempo, 383387
1, 123840, Note_on_c, 0, 81, 0
1, 123840, Note_on_c, 0, 78, 44
1, 123920, Control_c, 0, 64, 0
1, 123960, Note_on_c, 0, 78, 0
1, 124080, Tempo, 375000
1, 124080, Note_on_c, 0, 81, 40
1, 124166, Control_c, 0, 64, 127
1, 124200, Note_on_c, 0, 81, 0
1, 124200, Note_on_c, 0, 78, 40
1, 124320, Tempo, 382166
1, 124320, Note_on_c, 0, 78, 0
1, 124320, Note_on_c, 0, 75, 44
1, 124389, Control_c, 0, 64, 0
1, 124440, Note_on_c, 0, 75, 0
1, 124560, Tempo, 377358
1, 124560, Note_on_c, 0, 78, 36
1, 124640, Control_c, 0, 64, 127
1, 124680, Note_on_c, 0, 78, 0
1, 124680, Note_on_c, 0, 75, 36
1, 124800, Tempo, 385852
1, 124800, Note_on_c, 0, 75, 0
1, 124800, Note_on_c, 0, 72, 43
1, 124800, Control_c, 0, 64, 0
1, 125040, Note_on_c, 0, 72, 0
1, 125280, Tempo, 377358
1, 126000, Tempo, 408163
1, 126000, Note_on_c, 0, 60, 57
1, 126240, Tempo, 398671
1, 126240, Note_on_c, 0, 60, 0
1, 126240, Note_on_c, 0, 59, 60
1, 126240, Note_on_c, 0, 51, 52
1, 126480, Tempo, 390879
1, 126480, Note_on_c, 0, 59, 0
1, 126480, Note_on_c, 0, 69, 58
1, 126720, Tempo, 397351
1, 126720, Note_on_c, 0, 69, 0
1, 126720, Note_on_c, 0, 51, 0
1, 126720, Note_on_c, 0, 52, 54
1, 126960, Tempo, 389610
1, 126960, Note_on_c, 0, 52, 0
1, 126960, Note_on_c, 0, 59, 56
1, 126960, Note_on_c, 0, 67, 56
1, 126980, Tempo, 387097
1, 127160, Tempo, 388350
1, 127200, Note_on_c, 0, 67, 0
1, 127200, Note_on_c, 0, 59, 0
1, 127200, Note_on_c, 0, 45, 51
1, 127320, Tempo, 389610
1, 127440, Note_on_c, 0, 45, 0
1, 127440, Note_on_c, 0, 57, 55
1, 127440, Note_on_c, 0, 66, 55
1, 127500, Tempo, 390879
1, 127660, Tempo, 392157
1, 127680, Note_on_c, 0, 66, 0
1, 127680, Note_on_c, 0, 57, 0
1, 127680, Note_on_c, 0, 47, 51
1, 127840, Tempo, 393443
1, 127920, Note_on_c, 0, 47, 0
1, 127920, Note_on_c, 0, 55, 55
1, 127920, Note_on_c, 0, 64, 55
1, 128000, Tempo, 394737
1, 128160, Tempo, 396040
1, 128160, Note_on_c, 0, 64, 0
1, 128160, Note_on_c, 0, 55, 0
1, 128160, Note_on_c, 0, 47, 51
1, 128400, Tempo, 377358
1, 128400, Note_on_c, 0, 47, 0
1, 128400, Note_on_c, 0, 54, 55
1, 128400, Note_on_c, 0, 63, 55
1, 128640, Tempo, 387097
1, 128640, Note_on_c, 0, 63, 0
1, 128640, Note_on_c, 0, 54, 0
1, 128640, Note_on_c, 0, 55, 66
1, 128640, Note_on_c, 0, 64, 66
1, 128823, Control_c, 0, 64, 127
1, 128880, Tempo, 375000
1, 128880, Note_on_c, 0, 52, 48
1, 129120, Tempo, 380952
1, 129120, Note_on_c, 0, 52, 0
1, 129120, Note_on_c, 0, 64, 0
1, 129120, Note_on_c, 0, 55, 0
1, 129120, Note_on_c, 0, 40, 53
1, 129246, Control_c, 0, 64, 0
1, 129360, Tempo, 396040
1, 129360, Note_on_c, 0, 40, 0
1, 129360, Note_on_c, 0, 87, 50
1, 129600, Tempo, 402685
1, 129600, Note_on_c, 0, 87, 0
1, 129600, Note_on_c, 0, 88, 55
1, 129680, Control_c, 0, 64, 127
1, 129840, Tempo, 394737
1, 129840, Note_on_c, 0, 52, 38
1, 130080, Tempo, 402685
1, 130080, Note_on_c, 0, 52, 0
1, 130080, Note_on_c, 0, 88, 0
1, 130080, Note_on_c, 0, 40, 43
1, 130229, Control_c, 0, 64, 0
1, 130320, Tempo, 394737
1, 130320, Note_on_c, 0, 40, 0
1, 130320, Note_on_c, 0, 64, 50
1, 130540, Tempo, 377358
1, 130560, Tempo, 402685
1, 130560, Note_on_c, 0, 64, 0
1, 130560, Note_on_c, 0, 62, 54
1, 130560, Note_on_c, 0, 65, 54
1, 130744, Control_c, 0, 64, 127
1, 130800, Tempo, 396040
1, 130800, Note_on_c, 0, 52, 43
1, 131040, Tempo, 400000
1, 131040, Note_on_c, 0, 52, 0
1, 131040, Note_on_c, 0, 65, 0
1, 131040, Note_on_c, 0, 62, 0
1, 131040, Note_on_c, 0, 40, 47
1, 131210, Control_c, 0, 64, 0
1, 131280, Tempo, 392157
1, 131280, Note_on_c, 0, 40, 0
1, 131280, Note_on_c, 0, 62, 46
1, 131280, Note_on_c, 0, 65, 46
1, 131520, Tempo, 385852
1, 131520, Note_on_c, 0, 65, 0
1, 131520, Note_on_c, 0, 62, 0
1, 131520, Note_on_c, 0, 59, 52
1, 131520, Note_on_c, 0, 68, 52
1, 131647, Control_c, 0, 64, 127
1, 131760, Tempo, 392157
1, 131760, Note_on_c, 0, 52, 48
1, 132000, Tempo, 384615
1, 132000, Note_on_c, 0, 52, 0
1, 132000, Note_on_c, 0, 68, 0
1, 132000, Note_on_c, 0, 59, 0
1, 132000, Note_on_c, 0, 40, 52
1, 132170, Control_c, 0, 64, 0
1, 132240, Tempo, 392157
1, 132240, Note_on_c, 0, 40, 0
1, 132240, Note_on_c, 0, 59, 50
1, 132240, Note_on_c, 0, 68, 50
1, 132480, Tempo, 383387
1, 132480, Note_on_c, 0, 68, 0
1, 132480, Note_on_c, 0, 59, 0
1, 132480, Note_on_c, 0, 60, 54
1, 132480, Note_on_c, 0, 69, 54
1, 132686, Control_c, 0, 64, 127
1, 132720, Tempo, 388350
1, 132720, Note_on_c, 0, 52, 51
1, 132960, Tempo, 384615
1, 132960, Note_on_c, 0, 52, 0
1, 132960, Note_on_c, 0, 69, 0
1, 132960, Note_on_c, 0, 60, 0
1, 132960, Note_on_c, 0, 40, 59
1, 133109, Control_c, 0, 64, 0
1, 133200, Tempo, 394737
1, 133200, Note_on_c, 0, 40, 0
1, 133200, Note_on_c, 0, 60, 51
1, 133200, Note_on_c, 0, 69, 51
1, 133440, Tempo, 382166
1, 133440, Note_on_c, 0, 69, 0
1, 133440, Note_on_c, 0, 60, 0
1, 133440, Note_on_c, 0, 61, 54
1, 133440, Note_on_c, 0, 67, 54
1, 133635, Control_c, 0, 64, 127
1, 133680, Tempo, 390879
1, 133680, Note_on_c, 0, 51, 52
1, 133920, Tempo, 384615
1, 133920, Note_on_c, 0, 51, 0
1, 133920, Note_on_c, 0, 67, 0
1, 133920, Note_on_c, 0, 61, 0
1, 133920, Note_on_c, 0, 39, 55
1, 134057, Control_c, 0, 64, 0
1, 134160, Tempo, 390879
1, 134160, Note_on_c, 0, 39, 0
1, 134160, Note_on_c, 0, 61, 52
1, 134160, Note_on_c, 0, 67, 52
1, 134400, Tempo, 384615
1, 134400, Note_on_c, 0, 67, 0
1, 134400, Note_on_c, 0, 61, 0
1, 134400, Note_on_c, 0, 62, 56
1, 134400, Note_on_c, 0, 66, 56
1, 134560, Control_c, 0, 64, 127
1, 134640, Tempo, 390879
1, 134640, Note_on_c, 0, 50, 47
1, 134880, Tempo, 383387
1, 134880, Note_on_c, 0, 50, 0
1, 134880, Note_on_c, 0, 66, 0
1, 134880, Note_on_c, 0, 62, 0
1, 134880, Note_on_c, 0, 38, 52
1, 135052, Control_c, 0, 64, 0
1, 135120, Tempo, 393443
1, 135120, Note_on_c, 0, 38, 0
1, 135120, Note_on_c, 0, 85, 53
1, 135360, Tempo, 380952
1, 135360, Note_on_c, 0, 85, 0
1, 135360, Note_on_c, 0, 86, 59
1, 135463, Control_c, 0, 64, 127
1, 135600, Tempo, 385852
1, 135600, Note_on_c, 0, 50, 35
1, 135840, Tempo, 378549
1, 135840, Note_on_c, 0, 50, 0
1, 135840, Note_on_c, 0, 86, 0
1, 135840, Note_on_c, 0, 38, 40
1, 135966, Control_c, 0, 64, 0
1, 136080, Tempo, 398671
1, 136080, Note_on_c, 0, 38, 0
1, 136080, Note_on_c, 0, 62, 43
1, 136320, Tempo, 387097
1, 136320, Note_on_c, 0, 62, 0
1, 136320, Note_on_c, 0, 61, 46
1, 136320, Note_on_c, 0, 64, 46
1, 136476, Control_c, 0, 64, 127
1, 136560, Tempo, 392157
1, 136560, Note_on_c, 0, 50, 38
1, 136800, Tempo, 387097
1, 136800, Note_on_c, 0, 50, 0
1, 136800, Note_on_c, 0, 64, 0
1, 136800, Note_on_c, 0, 61, 0
1, 136800, Note_on_c, 0, 38, 43
1, 136956, Control_c, 0, 64, 0
1, 137040, Tempo, 397351
1, 137040, Note_on_c, 0, 38, 0
1, 137040, Note_on_c, 0, 61, 38
1, 137040, Note_on_c, 0, 64, 38
1, 137280, Tempo, 382166
1, 137280, Note_on_c, 0, 64, 0
1, 137280, Note_on_c, 0, 61, 0
1, 137280, Note_on_c, 0, 60, 43
1, 137280, Note_on_c, 0, 66, 43
1, 137520, Tempo, 396040
1, 137520, Note_on_c, 0, 50, 36
1, 137548, Control_c, 0, 64, 127
1, 137760, Tempo, 409556
1, 137760, Note_on_c, 0, 50, 0
1, 137760, Note_on_c, 0, 66, 0
1, 137760, Note_on_c, 0, 60, 0
1, 137760, Note_on_c, 0, 38, 41
1, 137958, Control_c, 0, 64, 0
1, 138000, Tempo, 382166
1, 138000, Note_on_c, 0, 38, 0
1, 138000, Note_on_c, 0, 62, 51
1, 138240, Tempo, 375000
1, 138240, Note_on_c, 0, 62, 0
1, 138240, Control_c, 0, 91, 127
1, 138240, Control_c, 0, 91, 127
1, 138241, Note_on_c, 0, 67, 60
1, 138241, Note_on_c, 0, 55, 34
1, 138241, Note_on_c, 0, 59, 40
1, 138339, Control_c, 0, 64, 127
1, 138480, Note_on_c, 0, 55, 34
1, 138480, Note_on_c, 0, 59, 40
1, 138481, Note_on_c, 0, 59, 0
1, 138481, Note_on_c, 0, 55, 0
1, 138595, Control_c, 0, 64, 0
1, 138600, Note_on_c, 0, 71, 48
1, 138601, Note_on_c, 0, 67, 0
1, 138660, Note_on_c, 0, 71, 0
1, 138660, Note_on_c, 0, 69, 48
1, 138720, Note_on_c, 0, 69, 0
1, 138720, Note_on_c, 0, 59, 0
1, 138720, Note_on_c, 0, 55, 0
1, 138720, Note_on_c, 0, 67, 56
1, 138720, Note_on_c, 0, 55, 34
1, 138720, Note_on_c, 0, 59, 40
1, 138960, Note_on_c, 0, 59, 0
1, 138960, Note_on_c, 0, 55, 0
1, 138960, Note_on_c, 0, 67, 0
1, 138960, Note_on_c, 0, 55, 33
1, 138960, Note_on_c, 0, 59, 39
1, 139200, Note_on_c, 0, 59, 0
1, 139200, Note_on_c, 0, 55, 0
1, 139200, Note_on_c, 0, 55, 34
1, 139200, Note_on_c, 0, 59, 40
1, 139285, Control_c, 0, 64, 127
1, 139440, Note_on_c, 0, 59, 0
1, 139440, Note_on_c, 0, 55, 0
1, 139440, Note_on_c, 0, 62, 53
1, 139440, Note_on_c, 0, 55, 34
1, 139440, Note_on_c, 0, 59, 41
1, 139680, Note_on_c, 0, 59, 0
1, 139680, Note_on_c, 0, 55, 0
1, 139680, Note_on_c, 0, 62, 0
1, 139680, Note_on_c, 0, 67, 53
1, 139680, Note_on_c, 0, 55, 34
1, 139680, Note_on_c, 0, 59, 41
1, 139920, Note_on_c, 0, 59, 0
1, 139920, Note_on_c, 0, 55, 0
1, 139920, Note_on_c, 0, 67, 0
1, 139920, Note_on_c, 0, 71, 53
1, 139920, Note_on_c, 0, 55, 34
1, 139920, Note_on_c, 0, 59, 41
1, 140160, Tempo, 368098
1, 140160, Note_on_c, 0, 59, 0
1, 140160, Note_on_c, 0, 55, 0
1, 140160, Note_on_c, 0, 71, 0
1, 140160, Note_on_c, 0, 71, 57
1, 140160, Note_on_c, 0, 55, 37
1, 140160, Note_on_c, 0, 60, 44
1, 140160, Control_c, 0, 64, 0
1, 140280, Note_on_c, 0, 71, 0
1, 140280, Note_on_c, 0, 69, 54
1, 140400, Note_on_c, 0, 69, 0
1, 140400, Note_on_c, 0, 67, 54
1, 140520, Note_on_c, 0, 67, 0
1, 140520, Note_on_c, 0, 69, 54
1, 140640, Note_on_c, 0, 69, 0
1, 140640, Note_on_c, 0, 60, 0
1, 140640, Note_on_c, 0, 55, 0
1, 140640, Note_on_c, 0, 67, 57
1, 140640, Note_on_c, 0, 55, 41
1, 140640, Note_on_c, 0, 59, 41
1, 140880, Tempo, 357143
1, 140880, Note_on_c, 0, 59, 0
1, 140880, Note_on_c, 0, 55, 0
1, 140880, Note_on_c, 0, 67, 0
1, 140880, Note_on_c, 0, 74, 54
1, 141120, Note_on_c, 0, 74, 0
1, 141120, Note_on_c, 0, 74, 54
1, 141120, Note_on_c, 0, 65, 41
1, 141120, Note_on_c, 0, 67, 41
1, 141240, Note_on_c, 0, 67, 0
1, 141240, Note_on_c, 0, 65, 0
1, 141240, Note_on_c, 0, 74, 0
1, 141360, Note_on_c, 0, 74, 54
1, 141360, Note_on_c, 0, 65, 41
1, 141360, Note_on_c, 0, 67, 41
1, 141480, Note_on_c, 0, 67, 0
1, 141480, Note_on_c, 0, 65, 0
1, 141480, Note_on_c, 0, 74, 0
1, 141600, Note_on_c, 0, 74, 54
1, 141600, Note_on_c, 0, 65, 41
1, 141600, Note_on_c, 0, 67, 41
1, 141720, Note_on_c, 0, 67, 0
1, 141720, Note_on_c, 0, 65, 0
1, 141720, Note_on_c, 0, 74, 0
1, 141840, Tempo, 348837
1, 141840, Note_on_c, 0, 74, 54
1, 141840, Note_on_c, 0, 67, 41
1, 141840, Note_on_c, 0, 65, 41
1, 141960, Note_on_c, 0, 65, 0
1, 141960, Note_on_c, 0, 67, 0
1, 141960, Note_on_c, 0, 74, 0
1, 142080, Tempo, 358209
1, 142080, Note_on_c, 0, 74, 57
1, 142080, Note_on_c, 0, 64, 46
1, 142080, Note_on_c, 0, 67, 46
1, 142130, Control_c, 0, 64, 127
1, 142440, Note_on_c, 0, 74, 0
1, 142440, Note_on_c, 0, 76, 47
1, 142500, Note_on_c, 0, 76, 0
1, 142500, Note_on_c, 0, 74, 47
1, 142560, Note_on_c, 0, 74, 0
1, 142560, Note_on_c, 0, 72, 52
1, 142578, Control_c, 0, 64, 0
1, 142800, Note_on_c, 0, 72, 0
1, 142800, Note_on_c, 0, 67, 0
1, 142800, Note_on_c, 0, 64, 0
1, 142800, Note_on_c, 0, 71, 50
1, 142800, Note_on_c, 0, 62, 41
1, 142800, Note_on_c, 0, 65, 41
1, 143040, Tempo, 369231
1, 143040, Note_on_c, 0, 65, 0
1, 143040, Note_on_c, 0, 62, 0
1, 143040, Note_on_c, 0, 71, 0
1, 143040, Note_on_c, 0, 69, 52
1, 143040, Note_on_c, 0, 60, 49
1, 143040, Note_on_c, 0, 64, 49
1, 143171, Control_c, 0, 64, 127
1, 143280, Tempo, 361446
1, 143280, Note_on_c, 0, 69, 0
1, 143280, Note_on_c, 0, 81, 69
1, 143520, Note_on_c, 0, 64, 0
1, 143520, Note_on_c, 0, 60, 0
1, 143520, Note_on_c, 0, 61, 50
1, 143520, Note_on_c, 0, 64, 50
1, 143539, Control_c, 0, 64, 0
1, 143612, Control_c, 0, 64, 127
1, 143760, Note_on_c, 0, 81, 0
1, 143760, Note_on_c, 0, 79, 65
1, 144000, Tempo, 358209
1, 144000, Note_on_c, 0, 79, 0
1, 144000, Note_on_c, 0, 64, 0
1, 144000, Note_on_c, 0, 61, 0
1, 144000, Note_on_c, 0, 79, 63
1, 144000, Note_on_c, 0, 62, 46
1, 144007, Control_c, 0, 64, 0
1, 144120, Note_on_c, 0, 79, 0
1, 144120, Note_on_c, 0, 78, 54
1, 144170, Control_c, 0, 64, 127
1, 144240, Note_on_c, 0, 78, 0
1, 144240, Note_on_c, 0, 76, 54
1, 144360, Note_on_c, 0, 76, 0
1, 144360, Note_on_c, 0, 74, 54
1, 144480, Tempo, 366972
1, 144480, Note_on_c, 0, 74, 0
1, 144480, Note_on_c, 0, 62, 0
1, 144480, Note_on_c, 0, 74, 54
1, 144497, Control_c, 0, 64, 0
1, 144593, Control_c, 0, 64, 127
1, 144720, Tempo, 358209
1, 144720, Note_on_c, 0, 74, 0
1, 144720, Note_on_c, 0, 74, 56
1, 144960, Note_on_c, 0, 74, 0
1, 144960, Note_on_c, 0, 74, 54
1, 144973, Control_c, 0, 64, 0
1, 145080, Note_on_c, 0, 74, 0
1, 145080, Note_on_c, 0, 76, 52
1, 145200, Note_on_c, 0, 76, 0
1, 145200, Note_on_c, 0, 72, 54
1, 145320, Note_on_c, 0, 72, 0
1, 145320, Note_on_c, 0, 74, 52
1, 145440, Note_on_c, 0, 74, 0
1, 145440, Note_on_c, 0, 71, 54
1, 145560, Note_on_c, 0, 71, 0
1, 145560, Note_on_c, 0, 72, 51
1, 145680, Note_on_c, 0, 72, 0
1, 145680, Note_on_c, 0, 69, 54
1, 145800, Note_on_c, 0, 69, 0
1, 145800, Note_on_c, 0, 71, 52
1, 145920, Tempo, 375000
1, 145920, Note_on_c, 0, 71, 0
1, 145920, Control_c, 0, 91, 127
1, 145920, Control_c, 0, 91, 127
1, 145921, Note_on_c, 0, 67, 60
1, 145921, Note_on_c, 0, 55, 34
1, 145921, Note_on_c, 0, 59, 40
1, 145970, Control_c, 0, 64, 127
1, 146160, Note_on_c, 0, 55, 30
1, 146160, Note_on_c, 0, 59, 36
1, 146161, Note_on_c, 0, 59, 0
1, 146161, Note_on_c, 0, 55, 0
1, 146280, Note_on_c, 0, 71, 46
1, 146281, Note_on_c, 0, 67, 0
1, 146291, Control_c, 0, 64, 0
1, 146340, Note_on_c, 0, 71, 0
1, 146340, Note_on_c, 0, 69, 47
1, 146400, Note_on_c, 0, 69, 0
1, 146400, Note_on_c, 0, 59, 0
1, 146400, Note_on_c, 0, 55, 0
1, 146400, Note_on_c, 0, 67, 56
1, 146400, Note_on_c, 0, 55, 30
1, 146400, Note_on_c, 0, 59, 36
1, 146520, Note_on_c, 0, 67, 0
1, 146520, Note_on_c, 0, 62, 48
1, 146640, Note_on_c, 0, 62, 0
1, 146640, Note_on_c, 0, 59, 0
1, 146640, Note_on_c, 0, 55, 0
1, 146640, Note_on_c, 0, 71, 48
1, 146640, Note_on_c, 0, 55, 30
1, 146640, Note_on_c, 0, 59, 36
1, 146760, Note_on_c, 0, 71, 0
1, 146760, Note_on_c, 0, 69, 48
1, 146880, Note_on_c, 0, 69, 0
1, 146880, Note_on_c, 0, 59, 0
1, 146880, Note_on_c, 0, 55, 0
1, 146880, Note_on_c, 0, 67, 56
1, 146880, Note_on_c, 0, 55, 34
1, 146880, Note_on_c, 0, 59, 40
1, 147000, Note_on_c, 0, 67, 0
1, 147000, Note_on_c, 0, 62, 48
1, 147120, Tempo, 368098
1, 147120, Note_on_c, 0, 62, 0
1, 147120, Note_on_c, 0, 59, 0
1, 147120, Note_on_c, 0, 55, 0
1, 147120, Note_on_c, 0, 67, 48
1, 147120, Note_on_c, 0, 55, 32
1, 147120, Note_on_c, 0, 59, 38
1, 147240, Note_on_c, 0, 67, 0
1, 147240, Note_on_c, 0, 71, 48
1, 147360, Note_on_c, 0, 71, 0
1, 147360, Note_on_c, 0, 59, 0
1, 147360, Note_on_c, 0, 55, 0
1, 147360, Note_on_c, 0, 74, 56
1, 147360, Note_on_c, 0, 55, 32
1, 147360, Note_on_c, 0, 59, 38
1, 147480, Note_on_c, 0, 74, 0
1, 147480, Note_on_c, 0, 71, 52
1, 147600, Note_on_c, 0, 71, 0
1, 147600, Note_on_c, 0, 59, 0
1, 147600, Note_on_c, 0, 55, 0
1, 147600, Note_on_c, 0, 69, 52
1, 147600, Note_on_c, 0, 55, 32
1, 147600, Note_on_c, 0, 59, 38
1, 147720, Tempo, 382166
1, 147720, Note_on_c, 0, 69, 0
1, 147720, Note_on_c, 0, 67, 52
1, 147840, Tempo, 368098
1, 147840, Note_on_c, 0, 67, 0
1, 147840, Note_on_c, 0, 59, 0
1, 147840, Note_on_c, 0, 55, 0
1, 147840, Note_on_c, 0, 71, 59
1, 147840, Note_on_c, 0, 55, 37
1, 147840, Note_on_c, 0, 60, 44
1, 147960, Note_on_c, 0, 71, 0
1, 147960, Note_on_c, 0, 69, 52
1, 148080, Note_on_c, 0, 69, 0
1, 148080, Note_on_c, 0, 67, 52
1, 148200, Note_on_c, 0, 67, 0
1, 148200, Note_on_c, 0, 69, 52
1, 148320, Tempo, 382166
1, 148320, Note_on_c, 0, 69, 0
1, 148320, Note_on_c, 0, 60, 0
1, 148320, Note_on_c, 0, 55, 0
1, 148320, Note_on_c, 0, 67, 54
1, 148320, Note_on_c, 0, 55, 34
1, 148320, Note_on_c, 0, 59, 41
1, 148560, Tempo, 355030
1, 148560, Note_on_c, 0, 59, 0
1, 148560, Note_on_c, 0, 55, 0
1, 148560, Note_on_c, 0, 67, 0
1, 148560, Note_on_c, 0, 76, 54
1, 148720, Tempo, 353982
1, 148800, Note_on_c, 0, 76, 0
1, 148800, Note_on_c, 0, 75, 51
1, 148800, Note_on_c, 0, 71, 41
1, 148800, Note_on_c, 0, 67, 41
1, 148880, Tempo, 352941
1, 148920, Note_on_c, 0, 75, 0
1, 148920, Note_on_c, 0, 76, 52
1, 149040, Tempo, 351906
1, 149040, Note_on_c, 0, 76, 0
1, 149040, Note_on_c, 0, 67, 0
1, 149040, Note_on_c, 0, 71, 0
1, 149040, Note_on_c, 0, 77, 53
1, 149040, Note_on_c, 0, 71, 38
1, 149040, Note_on_c, 0, 67, 38
1, 149160, Note_on_c, 0, 77, 0
1, 149160, Note_on_c, 0, 78, 54
1, 149200, Tempo, 350877
1, 149280, Note_on_c, 0, 78, 0
1, 149280, Note_on_c, 0, 67, 0
1, 149280, Note_on_c, 0, 71, 0
1, 149280, Note_on_c, 0, 79, 56
1, 149280, Note_on_c, 0, 71, 44
1, 149280, Note_on_c, 0, 67, 44
1, 149360, Tempo, 349854
1, 149400, Note_on_c, 0, 79, 0
1, 149400, Note_on_c, 0, 80, 57
1, 149520, Tempo, 348837
1, 149520, Note_on_c, 0, 80, 0
1, 149520, Note_on_c, 0, 67, 0
1, 149520, Note_on_c, 0, 71, 0
1, 149520, Note_on_c, 0, 81, 58
1, 149520, Note_on_c, 0, 67, 41
1, 149520, Note_on_c, 0, 71, 41
1, 149640, Note_on_c, 0, 81, 0
1, 149640, Note_on_c, 0, 82, 59
1, 149740, Tempo, 365854
1, 149760, Tempo, 364742
1, 149760, Note_on_c, 0, 82, 0
1, 149760, Note_on_c, 0, 71, 0
1, 149760, Note_on_c, 0, 67, 0
1, 149760, Note_on_c, 0, 83, 68
1, 149760, Note_on_c, 0, 71, 46
1, 149760, Note_on_c, 0, 67, 39
1, 149823, Control_c, 0, 64, 127
1, 150000, Note_on_c, 0, 67, 0
1, 150000, Note_on_c, 0, 71, 0
1, 150000, Note_on_c, 0, 67, 39
1, 150000, Note_on_c, 0, 71, 46
1, 150240, Tempo, 357143
1, 150240, Note_on_c, 0, 71, 0
1, 150240, Note_on_c, 0, 67, 0
1, 150240, Note_on_c, 0, 83, 0
1, 150240, Note_on_c, 0, 81, 60
1, 150240, Note_on_c, 0, 67, 39
1, 150240, Note_on_c, 0, 71, 46
1, 150257, Control_c, 0, 64, 0
1, 150360, Note_on_c, 0, 81, 0
1, 150360, Note_on_c, 0, 79, 56
1, 150480, Note_on_c, 0, 79, 0
1, 150480, Note_on_c, 0, 71, 0
1, 150480, Note_on_c, 0, 67, 0
1, 150480, Note_on_c, 0, 78, 56
1, 150480, Note_on_c, 0, 67, 39
1, 150480, Note_on_c, 0, 71, 46
1, 150600, Note_on_c, 0, 78, 0
1, 150600, Note_on_c, 0, 76, 56
1, 150720, Tempo, 363636
1, 150720, Note_on_c, 0, 76, 0
1, 150720, Note_on_c, 0, 71, 0
1, 150720, Note_on_c, 0, 67, 0
1, 150720, Note_on_c, 0, 74, 60
1, 150720, Note_on_c, 0, 66, 46
1, 150720, Note_on_c, 0, 57, 39
1, 150809, Control_c, 0, 64, 127
1, 150960, Note_on_c, 0, 57, 0
1, 150960, Note_on_c, 0, 66, 0
1, 150960, Note_on_c, 0, 57, 39
1, 150960, Note_on_c, 0, 66, 46
1, 151200, Tempo, 358209
1, 151200, Note_on_c, 0, 66, 0
1, 151200, Note_on_c, 0, 57, 0
1, 151200, Note_on_c, 0, 74, 0
1, 151200, Note_on_c, 0, 73, 52
1, 151200, Note_on_c, 0, 57, 39
1, 151200, Note_on_c, 0, 64, 46
1, 151222, Control_c, 0, 64, 0
1, 151275, Control_c, 0, 64, 127
1, 151280, Note_on_c, 0, 73, 0
1, 151280, Note_on_c, 0, 74, 43
1, 151360, Note_on_c, 0, 74, 0
1, 151360, Note_on_c, 0, 73, 48
1, 151440, Tempo, 370370
1, 151440, Note_on_c, 0, 73, 0
1, 151440, Note_on_c, 0, 64, 0
1, 151440, Note_on_c, 0, 57, 0
1, 151440, Note_on_c, 0, 74, 43
1, 151440, Note_on_c, 0, 57, 39
1, 151440, Note_on_c, 0, 64, 46
1, 151500, Note_on_c, 0, 74, 0
1, 151500, Note_on_c, 0, 73, 48
1, 151560, Note_on_c, 0, 73, 0
1, 151560, Note_on_c, 0, 74, 42
1, 151620, Note_on_c, 0, 74, 0
1, 151620, Note_on_c, 0, 73, 47
1, 151680, Tempo, 358209
1, 151680, Note_on_c, 0, 73, 0
1, 151680, Note_on_c, 0, 64, 0
1, 151680, Note_on_c, 0, 57, 0
1, 151680, Note_on_c, 0, 74, 54
1, 151680, Note_on_c, 0, 62, 37
1, 151680, Note_on_c, 0, 66, 44
1, 151697, Control_c, 0, 64, 0
1, 151800, Note_on_c, 0, 74, 0
1, 151800, Note_on_c, 0, 76, 50
1, 151920, Note_on_c, 0, 76, 0
1, 151920, Note_on_c, 0, 66, 0
1, 151920, Note_on_c, 0, 62, 0
1, 151920, Note_on_c, 0, 78, 51
1, 151920, Note_on_c, 0, 62, 32
1, 151920, Note_on_c, 0, 66, 38
1, 152040, Note_on_c, 0, 78, 0
1, 152040, Note_on_c, 0, 79, 52
1, 152160, Note_on_c, 0, 79, 0
1, 152160, Note_on_c, 0, 66, 0
1, 152160, Note_on_c, 0, 62, 0
1, 152160, Note_on_c, 0, 81, 53
1, 152160, Note_on_c, 0, 62, 32
1, 152160, Note_on_c, 0, 66, 38
1, 152280, Note_on_c, 0, 81, 0
1, 152280, Note_on_c, 0, 83, 54
1, 152400, Tempo, 363636
1, 152400, Note_on_c, 0, 83, 0
1, 152400, Note_on_c, 0, 66, 0
1, 152400, Note_on_c, 0, 62, 0
1, 152400, Note_on_c, 0, 85, 55
1, 152400, Note_on_c, 0, 62, 32
1, 152400, Note_on_c, 0, 66, 38
1, 152520, Note_on_c, 0, 85, 0
1, 152520, Note_on_c, 0, 86, 56
1, 152640, Tempo, 358209
1, 152640, Note_on_c, 0, 86, 0
1, 152640, Note_on_c, 0, 66, 0
1, 152640, Note_on_c, 0, 62, 0
1, 152640, Note_on_c, 0, 85, 59
1, 152640, Note_on_c, 0, 62, 36
1, 152640, Note_on_c, 0, 67, 43
1, 152760, Note_on_c, 0, 85, 0
1, 152760, Note_on_c, 0, 88, 55
1, 152880, Note_on_c, 0, 88, 0
1, 152880, Note_on_c, 0, 67, 0
1, 152880, Note_on_c, 0, 62, 0
1, 152880, Note_on_c, 0, 85, 55
1, 152880, Note_on_c, 0, 62, 32
1, 152880, Note_on_c, 0, 67, 38
1, 153000, Note_on_c, 0, 85, 0
1, 153000, Note_on_c, 0, 81, 55
1, 153120, Tempo, 358209
1, 153120, Note_on_c, 0, 81, 0
1, 153120, Note_on_c, 0, 67, 0
1, 153120, Note_on_c, 0, 62, 0
1, 153120, Note_on_c, 0, 79, 58
1, 153120, Note_on_c, 0, 62, 32
1, 153120, Note_on_c, 0, 67, 38
1, 153240, Tempo, 359281
1, 153240, Note_on_c, 0, 79, 0
1, 153240, Note_on_c, 0, 83, 55
1, 153360, Tempo, 360360
1, 153360, Note_on_c, 0, 83, 0
1, 153360, Note_on_c, 0, 67, 0
1, 153360, Note_on_c, 0, 62, 0
1, 153360, Note_on_c, 0, 79, 55
1, 153360, Note_on_c, 0, 62, 32
1, 153360, Note_on_c, 0, 67, 38
1, 153480, Tempo, 361446
1, 153480, Note_on_c, 0, 79, 0
1, 153480, Note_on_c, 0, 76, 55
1, 153580, Tempo, 362538
1, 153600, Tempo, 358209
1, 153600, Note_on_c, 0, 76, 0
1, 153600, Note_on_c, 0, 67, 0
1, 153600, Note_on_c, 0, 62, 0
1, 153600, Note_on_c, 0, 78, 57
1, 153600, Note_on_c, 0, 62, 37
1, 153600, Note_on_c, 0, 66, 44
1, 153720, Note_on_c, 0, 78, 0
1, 153720, Note_on_c, 0, 81, 53
1, 153840, Note_on_c, 0, 81, 0
1, 153840, Note_on_c, 0, 66, 0
1, 153840, Note_on_c, 0, 62, 0
1, 153840, Note_on_c, 0, 79, 53
1, 153840, Note_on_c, 0, 62, 32
1, 153840, Note_on_c, 0, 66, 38
1, 153960, Note_on_c, 0, 79, 0
1, 153960, Note_on_c, 0, 78, 53
1, 154080, Note_on_c, 0, 78, 0
1, 154080, Note_on_c, 0, 66, 0
1, 154080, Note_on_c, 0, 62, 0
1, 154080, Note_on_c, 0, 76, 55
1, 154080, Note_on_c, 0, 62, 32
1, 154080, Note_on_c, 0, 66, 38
1, 154200, Note_on_c, 0, 76, 0
1, 154200, Note_on_c, 0, 74, 53
1, 154320, Note_on_c, 0, 74, 0
1, 154320, Note_on_c, 0, 66, 0
1, 154320, Note_on_c, 0, 62, 0
1, 154320, Note_on_c, 0, 73, 53
1, 154320, Note_on_c, 0, 62, 32
1, 154320, Note_on_c, 0, 66, 38
1, 154440, Note_on_c, 0, 73, 0
1, 154440, Note_on_c, 0, 71, 53
1, 154560, Note_on_c, 0, 71, 0
1, 154560, Note_on_c, 0, 66, 0
1, 154560, Note_on_c, 0, 62, 0
1, 154560, Note_on_c, 0, 69, 56
1, 154560, Note_on_c, 0, 62, 37
1, 154560, Note_on_c, 0, 67, 44
1, 154680, Note_on_c, 0, 69, 0
1, 154680, Note_on_c, 0, 71, 52
1, 154800, Note_on_c, 0, 71, 0
1, 154800, Note_on_c, 0, 67, 0
1, 154800, Note_on_c, 0, 62, 0
1, 154800, Note_on_c, 0, 73, 52
1, 154800, Note_on_c, 0, 62, 32
1, 154800, Note_on_c, 0, 67, 38
1, 154920, Note_on_c, 0, 73, 0
1, 154920, Note_on_c, 0, 74, 52
1, 155040, Note_on_c, 0, 74, 0
1, 155040, Note_on_c, 0, 67, 0
1, 155040, Note_on_c, 0, 62, 0
1, 155040, Note_on_c, 0, 76, 55
1, 155040, Note_on_c, 0, 62, 32
1, 155040, Note_on_c, 0, 67, 38
1, 155160, Note_on_c, 0, 76, 0
1, 155160, Note_on_c, 0, 78, 51
1, 155280, Note_on_c, 0, 78, 0
1, 155280, Note_on_c, 0, 67, 0
1, 155280, Note_on_c, 0, 62, 0
1, 155280, Note_on_c, 0, 79, 53
1, 155280, Note_on_c, 0, 62, 32
1, 155280, Note_on_c, 0, 67, 38
1, 155400, Note_on_c, 0, 79, 0
1, 155400, Note_on_c, 0, 76, 54
1, 155520, Tempo, 357143
1, 155520, Note_on_c, 0, 76, 0
1, 155520, Note_on_c, 0, 67, 0
1, 155520, Note_on_c, 0, 62, 0
1, 155520, Note_on_c, 0, 74, 56
1, 155520, Note_on_c, 0, 62, 38
1, 155520, Note_on_c, 0, 66, 45
1, 155580, Tempo, 358209
1, 155620, Tempo, 359281
1, 155640, Note_on_c, 0, 74, 0
1, 155640, Note_on_c, 0, 76, 56
1, 155660, Tempo, 360360
1, 155700, Tempo, 361446
1, 155760, Tempo, 362538
1, 155760, Note_on_c, 0, 76, 0
1, 155760, Note_on_c, 0, 66, 0
1, 155760, Note_on_c, 0, 62, 0
1, 155760, Note_on_c, 0, 78, 59
1, 155760, Note_on_c, 0, 62, 34
1, 155760, Note_on_c, 0, 66, 41
1, 155800, Tempo, 363636
1, 155840, Tempo, 364742
1, 155880, Tempo, 365854
1, 155880, Note_on_c, 0, 78, 0
1, 155880, Note_on_c, 0, 79, 61
1, 155940, Tempo, 366972
1, 155980, Tempo, 368098
1, 156000, Note_on_c, 0, 79, 0
1, 156000, Note_on_c, 0, 66, 0
1, 156000, Note_on_c, 0, 62, 0
1, 156000, Note_on_c, 0, 81, 61
1, 156000, Note_on_c, 0, 62, 38
1, 156000, Note_on_c, 0, 66, 45
1, 156020, Tempo, 369231
1, 156060, Tempo, 370370
1, 156120, Tempo, 371517
1, 156120, Note_on_c, 0, 81, 0
1, 156120, Note_on_c, 0, 83, 64
1, 156160, Tempo, 372671
1, 156200, Tempo, 373832
1, 156240, Tempo, 375000
1, 156240, Note_on_c, 0, 83, 0
1, 156240, Note_on_c, 0, 66, 0
1, 156240, Note_on_c, 0, 62, 0
1, 156240, Note_on_c, 0, 85, 66
1, 156240, Note_on_c, 0, 62, 34
1, 156240, Note_on_c, 0, 66, 40
1, 156300, Tempo, 376176
1, 156360, Tempo, 394737
1, 156360, Note_on_c, 0, 66, 0
1, 156360, Note_on_c, 0, 62, 0
1, 156360, Note_on_c, 0, 85, 0
1, 156360, Note_on_c, 0, 86, 66
1, 156420, Note_on_c, 0, 86, 0
1, 156460, Tempo, 380952
1, 156480, Note_on_c, 0, 74, 64
1, 156480, Note_on_c, 0, 62, 40
1, 156480, Note_on_c, 0, 66, 48
1, 156960, Note_on_c, 0, 66, 0
1, 156960, Note_on_c, 0, 62, 0
1, 156960, Note_on_c, 0, 74, 0
1, 157440, Tempo, 375000
1, 157440, Control_c, 0, 91, 127
1, 157440, Control_c, 0, 91, 127
1, 157441, Note_on_c, 0, 67, 60
1, 157441, Note_on_c, 0, 55, 34
1, 157441, Note_on_c, 0, 59, 40
1, 157507, Control_c, 0, 64, 127
1, 157680, Note_on_c, 0, 55, 30
1, 157680, Note_on_c, 0, 59, 36
1, 157681, Note_on_c, 0, 59, 0
1, 157681, Note_on_c, 0, 55, 0
1, 157800, Note_on_c, 0, 71, 46
1, 157801, Note_on_c, 0, 67, 0
1, 157816, Control_c, 0, 64, 0
1, 157860, Note_on_c, 0, 71, 0
1, 157860, Note_on_c, 0, 69, 47
1, 157920, Note_on_c, 0, 69, 0
1, 157920, Note_on_c, 0, 59, 0
1, 157920, Note_on_c, 0, 55, 0
1, 157920, Note_on_c, 0, 67, 56
1, 157920, Note_on_c, 0, 55, 30
1, 157920, Note_on_c, 0, 59, 36
1, 158040, Note_on_c, 0, 67, 0
1, 158040, Note_on_c, 0, 62, 48
1, 158160, Note_on_c, 0, 62, 0
1, 158160, Note_on_c, 0, 59, 0
1, 158160, Note_on_c, 0, 55, 0
1, 158160, Note_on_c, 0, 71, 48
1, 158160, Note_on_c, 0, 55, 30
1, 158160, Note_on_c, 0, 59, 36
1, 158280, Note_on_c, 0, 71, 0
1, 158280, Note_on_c, 0, 69, 48
1, 158400, Note_on_c, 0, 69, 0
1, 158400, Note_on_c, 0, 59, 0
1, 158400, Note_on_c, 0, 55, 0
1, 158400, Note_on_c, 0, 67, 56
1, 158400, Note_on_c, 0, 55, 34
1, 158400, Note_on_c, 0, 59, 40
1, 158520, Note_on_c, 0, 67, 0
1, 158520, Note_on_c, 0, 62, 48
1, 158640, Tempo, 368098
1, 158640, Note_on_c, 0, 62, 0
1, 158640, Note_on_c, 0, 59, 0
1, 158640, Note_on_c, 0, 55, 0
1, 158640, Note_on_c, 0, 67, 48
1, 158640, Note_on_c, 0, 55, 32
1, 158640, Note_on_c, 0, 59, 38
1, 158760, Note_on_c, 0, 67, 0
1, 158760, Note_on_c, 0, 71, 48
1, 158880, Note_on_c, 0, 71, 0
1, 158880, Note_on_c, 0, 59, 0
1, 158880, Note_on_c, 0, 55, 0
1, 158880, Note_on_c, 0, 74, 56
1, 158880, Note_on_c, 0, 55, 32
1, 158880, Note_on_c, 0, 59, 38
1, 159000, Note_on_c, 0, 74, 0
1, 159000, Note_on_c, 0, 71, 52
1, 159120, Note_on_c, 0, 71, 0
1, 159120, Note_on_c, 0, 59, 0
1, 159120, Note_on_c, 0, 55, 0
1, 159120, Note_on_c, 0, 69, 52
1, 159120, Note_on_c, 0, 55, 32
1, 159120, Note_on_c, 0, 59, 38
1, 159240, Tempo, 387097
1, 159240, Note_on_c, 0, 69, 0
1, 159240, Note_on_c, 0, 67, 52
1, 159360, Tempo, 368098
1, 159360, Note_on_c, 0, 67, 0
1, 159360, Note_on_c, 0, 59, 0
1, 159360, Note_on_c, 0, 55, 0
1, 159360, Note_on_c, 0, 71, 59
1, 159360, Note_on_c, 0, 55, 37
1, 159360, Note_on_c, 0, 60, 44
1, 159480, Note_on_c, 0, 71, 0
1, 159480, Note_on_c, 0, 69, 52
1, 159600, Note_on_c, 0, 69, 0
1, 159600, Note_on_c, 0, 67, 52
1, 159720, Note_on_c, 0, 67, 0
1, 159720, Note_on_c, 0, 69, 52
1, 159840, Tempo, 382166
1, 159840, Note_on_c, 0, 69, 0
1, 159840, Note_on_c, 0, 60, 0
1, 159840, Note_on_c, 0, 55, 0
1, 159840, Note_on_c, 0, 67, 54
1, 159840, Note_on_c, 0, 55, 34
1, 159840, Note_on_c, 0, 59, 41
1, 159932, Control_c, 0, 64, 127
1, 160080, Tempo, 377358
1, 160080, Note_on_c, 0, 59, 0
1, 160080, Note_on_c, 0, 55, 0
1, 160080, Note_on_c, 0, 67, 0
1, 160080, Note_on_c, 0, 74, 52
1, 160320, Note_on_c, 0, 74, 0
1, 160320, Note_on_c, 0, 74, 54
1, 160320, Note_on_c, 0, 65, 38
1, 160335, Control_c, 0, 64, 0
1, 160423, Control_c, 0, 64, 127
1, 160440, Note_on_c, 0, 65, 0
1, 160440, Note_on_c, 0, 67, 33
1, 160560, Note_on_c, 0, 67, 0
1, 160560, Note_on_c, 0, 74, 0
1, 160560, Note_on_c, 0, 74, 52
1, 160560, Note_on_c, 0, 65, 38
1, 160680, Note_on_c, 0, 65, 0
1, 160680, Note_on_c, 0, 67, 33
1, 160800, Note_on_c, 0, 67, 0
1, 160800, Note_on_c, 0, 74, 0
1, 160800, Note_on_c, 0, 74, 52
1, 160800, Note_on_c, 0, 65, 38
1, 160920, Note_on_c, 0, 65, 0
1, 160920, Note_on_c, 0, 67, 34
1, 161040, Tempo, 369231
1, 161040, Note_on_c, 0, 67, 0
1, 161040, Note_on_c, 0, 74, 0
1, 161040, Note_on_c, 0, 74, 52
1, 161040, Note_on_c, 0, 65, 38
1, 161160, Note_on_c, 0, 65, 0
1, 161160, Note_on_c, 0, 67, 33
1, 161280, Tempo, 353982
1, 161280, Note_on_c, 0, 67, 0
1, 161280, Note_on_c, 0, 74, 0
1, 161280, Note_on_c, 0, 74, 57
1, 161280, Note_on_c, 0, 64, 52
1, 161296, Control_c, 0, 64, 0
1, 161400, Note_on_c, 0, 74, 0
1, 161400, Note_on_c, 0, 79, 54
1, 161520, Note_on_c, 0, 79, 0
1, 161520, Note_on_c, 0, 76, 54
1, 161640, Note_on_c, 0, 76, 0
1, 161640, Note_on_c, 0, 74, 54
1, 161760, Note_on_c, 0, 74, 0
1, 161760, Note_on_c, 0, 64, 0
1, 161760, Note_on_c, 0, 72, 57
1, 161880, Note_on_c, 0, 72, 0
1, 161880, Note_on_c, 0, 76, 54
1, 162000, Note_on_c, 0, 76, 0
1, 162000, Note_on_c, 0, 72, 54
1, 162000, Note_on_c, 0, 64, 48
1, 162120, Note_on_c, 0, 64, 0
1, 162120, Note_on_c, 0, 72, 0
1, 162120, Note_on_c, 0, 71, 54
1, 162120, Note_on_c, 0, 62, 48
1, 162240, Tempo, 364742
1, 162240, Note_on_c, 0, 62, 0
1, 162240, Note_on_c, 0, 71, 0
1, 162240, Note_on_c, 0, 69, 57
1, 162240, Note_on_c, 0, 60, 52
1, 162360, Tempo, 353982
1, 162360, Note_on_c, 0, 69, 0
1, 162360, Note_on_c, 0, 88, 57
1, 162480, Note_on_c, 0, 88, 0
1, 162480, Note_on_c, 0, 84, 57
1, 162600, Note_on_c, 0, 84, 0
1, 162600, Note_on_c, 0, 83, 57
1, 162700, Tempo, 362538
1, 162720, Note_on_c, 0, 83, 0
1, 162720, Note_on_c, 0, 60, 0
1, 162720, Note_on_c, 0, 81, 57
1, 162840, Tempo, 353982
1, 162840, Note_on_c, 0, 81, 0
1, 162840, Note_on_c, 0, 84, 54
1, 162960, Note_on_c, 0, 84, 0
1, 162960, Note_on_c, 0, 81, 54
1, 162960, Note_on_c, 0, 61, 52
1, 163080, Note_on_c, 0, 81, 0
1, 163080, Note_on_c, 0, 79, 54
1, 163200, Note_on_c, 0, 79, 0
1, 163200, Note_on_c, 0, 61, 0
1, 163200, Note_on_c, 0, 78, 57
1, 163200, Note_on_c, 0, 62, 58
1, 163320, Note_on_c, 0, 78, 0
1, 163320, Note_on_c, 0, 79, 54
1, 163440, Note_on_c, 0, 79, 0
1, 163440, Note_on_c, 0, 81, 54
1, 163560, Note_on_c, 0, 81, 0
1, 163560, Note_on_c, 0, 79, 54
1, 163680, Note_on_c, 0, 79, 0
1, 163680, Note_on_c, 0, 78, 56
1, 163800, Note_on_c, 0, 78, 0
1, 163800, Note_on_c, 0, 76, 54
1, 163920, Tempo, 368098
1, 163920, Note_on_c, 0, 76, 0
1, 163920, Note_on_c, 0, 74, 54
1, 164040, Note_on_c, 0, 74, 0
1, 164040, Note_on_c, 0, 73, 54
1, 164160, Tempo, 363636
1, 164160, Note_on_c, 0, 73, 0
1, 164160, Note_on_c, 0, 62, 0
1, 164160, Note_on_c, 0, 74, 58
1, 164160, Note_on_c, 0, 50, 52
1, 164252, Control_c, 0, 64, 127
1, 164280, Note_on_c, 0, 74, 0
1, 164280, Note_on_c, 0, 86, 54
1, 164360, Tempo, 364742
1, 164400, Note_on_c, 0, 86, 0
1, 164400, Note_on_c, 0, 72, 58
1, 164415, Control_c, 0, 64, 0
1, 164492, Control_c, 0, 64, 127
1, 164520, Note_on_c, 0, 72, 0
1, 164520, Note_on_c, 0, 84, 53
1, 164540, Tempo, 365854
1, 164640, Note_on_c, 0, 84, 0
1, 164640, Note_on_c, 0, 50, 0
1, 164640, Note_on_c, 0, 71, 61
1, 164657, Control_c, 0, 64, 0
1, 164737, Control_c, 0, 64, 127
1, 164740, Tempo, 366972
1, 164760, Note_on_c, 0, 71, 0
1, 164760, Note_on_c, 0, 83, 56
1, 164880, Note_on_c, 0, 83, 0
1, 164880, Note_on_c, 0, 69, 61
1, 164898, Control_c, 0, 64, 0
1, 164920, Tempo, 368098
1, 164960, Control_c, 0, 64, 127
1, 165000, Note_on_c, 0, 69, 0
1, 165000, Note_on_c, 0, 81, 56
1, 165100, Tempo, 369231
1, 165120, Tempo, 375000
1, 165120, Note_on_c, 0, 81, 0
1, 165120, Control_c, 0, 91, 127
1, 165120, Note_on_c, 0, 55, 34
1, 165120, Note_on_c, 0, 59, 40
1, 165120, Control_c, 0, 91, 127
1, 165121, Note_on_c, 0, 67, 66
1, 165131, Control_c, 0, 64, 0
1, 165184, Control_c, 0, 64, 127
1, 165360, Note_on_c, 0, 59, 0
1, 165360, Note_on_c, 0, 55, 0
1, 165360, Note_on_c, 0, 55, 30
1, 165360, Note_on_c, 0, 59, 36
1, 165480, Note_on_c, 0, 71, 46
1, 165481, Note_on_c, 0, 67, 0
1, 165498, Control_c, 0, 64, 0
1, 165540, Note_on_c, 0, 71, 0
1, 165540, Note_on_c, 0, 69, 47
1, 165600, Note_on_c, 0, 69, 0
1, 165600, Note_on_c, 0, 59, 0
1, 165600, Note_on_c, 0, 55, 0
1, 165600, Note_on_c, 0, 67, 56
1, 165600, Note_on_c, 0, 55, 30
1, 165600, Note_on_c, 0, 59, 36
1, 165720, Note_on_c, 0, 67, 0
1, 165720, Note_on_c, 0, 62, 48
1, 165840, Note_on_c, 0, 62, 0
1, 165840, Note_on_c, 0, 59, 0
1, 165840, Note_on_c, 0, 55, 0
1, 165840, Note_on_c, 0, 71, 48
1, 165840, Note_on_c, 0, 55, 30
1, 165840, Note_on_c, 0, 59, 36
1, 165960, Note_on_c, 0, 71, 0
1, 165960, Note_on_c, 0, 69, 48
1, 166080, Note_on_c, 0, 69, 0
1, 166080, Note_on_c, 0, 59, 0
1, 166080, Note_on_c, 0, 55, 0
1, 166080, Note_on_c, 0, 67, 56
1, 166080, Note_on_c, 0, 55, 34
1, 166080, Note_on_c, 0, 59, 40
1, 166200, Note_on_c, 0, 67, 0
1, 166200, Note_on_c, 0, 62, 48
1, 166320, Tempo, 368098
1, 166320, Note_on_c, 0, 62, 0
1, 166320, Note_on_c, 0, 59, 0
1, 166320, Note_on_c, 0, 55, 0
1, 166320, Note_on_c, 0, 67, 48
1, 166320, Note_on_c, 0, 55, 32
1, 166320, Note_on_c, 0, 59, 38
1, 166440, Note_on_c, 0, 67, 0
1, 166440, Note_on_c, 0, 71, 48
1, 166560, Note_on_c, 0, 71, 0
1, 166560, Note_on_c, 0, 59, 0
1, 166560, Note_on_c, 0, 55, 0
1, 166560, Note_on_c, 0, 74, 56
1, 166560, Note_on_c, 0, 55, 32
1, 166560, Note_on_c, 0, 59, 38
1, 166680, Note_on_c, 0, 74, 0
1, 166680, Note_on_c, 0, 71, 52
1, 166800, Note_on_c, 0, 71, 0
1, 166800, Note_on_c, 0, 59, 0
1, 166800, Note_on_c, 0, 55, 0
1, 166800, Note_on_c, 0, 69, 52
1, 166800, Note_on_c, 0, 55, 32
1, 166800, Note_on_c, 0, 59, 38
1, 166920, Tempo, 384615
1, 166920, Note_on_c, 0, 69, 0
1, 166920, Note_on_c, 0, 67, 52
1, 167040, Tempo, 368098
1, 167040, Note_on_c, 0, 67, 0
1, 167040, Note_on_c, 0, 59, 0
1, 167040, Note_on_c, 0, 55, 0
1, 167040, Note_on_c, 0, 71, 59
1, 167040, Note_on_c, 0, 55, 37
1, 167040, Note_on_c, 0, 60, 44
1, 167160, Note_on_c, 0, 71, 0
1, 167160, Note_on_c, 0, 69, 52
1, 167280, Note_on_c, 0, 69, 0
1, 167280, Note_on_c, 0, 67, 52
1, 167400, Note_on_c, 0, 67, 0
1, 167400, Note_on_c, 0, 69, 52
1, 167520, Tempo, 380952
1, 167520, Note_on_c, 0, 69, 0
1, 167520, Note_on_c, 0, 60, 0
1, 167520, Note_on_c, 0, 55, 0
1, 167520, Note_on_c, 0, 67, 54
1, 167520, Note_on_c, 0, 55, 34
1, 167520, Note_on_c, 0, 59, 41
1, 167760, Tempo, 355030
1, 167760, Note_on_c, 0, 59, 0
1, 167760, Note_on_c, 0, 55, 0
1, 167760, Note_on_c, 0, 67, 0
1, 167760, Note_on_c, 0, 76, 54
1, 167920, Tempo, 353982
1, 168000, Note_on_c, 0, 76, 0
1, 168000, Note_on_c, 0, 75, 51
1, 168000, Note_on_c, 0, 71, 41
1, 168000, Note_on_c, 0, 67, 41
1, 168080, Tempo, 352941
1, 168120, Note_on_c, 0, 75, 0
1, 168120, Note_on_c, 0, 76, 52
1, 168240, Tempo, 351906
1, 168240, Note_on_c, 0, 76, 0
1, 168240, Note_on_c, 0, 67, 0
1, 168240, Note_on_c, 0, 71, 0
1, 168240, Note_on_c, 0, 77, 53
1, 168240, Note_on_c, 0, 71, 38
1, 168240, Note_on_c, 0, 67, 38
1, 168360, Note_on_c, 0, 77, 0
1, 168360, Note_on_c, 0, 78, 54
1, 168400, Tempo, 350877
1, 168480, Note_on_c, 0, 78, 0
1, 168480, Note_on_c, 0, 67, 0
1, 168480, Note_on_c, 0, 71, 0
1, 168480, Note_on_c, 0, 79, 56
1, 168480, Note_on_c, 0, 71, 44
1, 168480, Note_on_c, 0, 67, 44
1, 168560, Tempo, 349854
1, 168600, Note_on_c, 0, 79, 0
1, 168600, Note_on_c, 0, 80, 57
1, 168720, Tempo, 348837
1, 168720, Note_on_c, 0, 80, 0
1, 168720, Note_on_c, 0, 67, 0
1, 168720, Note_on_c, 0, 71, 0
1, 168720, Note_on_c, 0, 81, 58
1, 168720, Note_on_c, 0, 67, 41
1, 168720, Note_on_c, 0, 71, 41
1, 168840, Note_on_c, 0, 81, 0
1, 168840, Note_on_c, 0, 82, 59
1, 168940, Tempo, 365854
1, 168960, Tempo, 364742
1, 168960, Note_on_c, 0, 82, 0
1, 168960, Note_on_c, 0, 71, 0
1, 168960, Note_on_c, 0, 67, 0
1, 168960, Note_on_c, 0, 83, 68
1, 168960, Note_on_c, 0, 71, 46
1, 168960, Note_on_c, 0, 67, 39
1, 169023, Control_c, 0, 64, 127
1, 169200, Note_on_c, 0, 67, 0
1, 169200, Note_on_c, 0, 71, 0
1, 169200, Note_on_c, 0, 67, 39
1, 169200, Note_on_c, 0, 71, 46
1, 169440, Tempo, 357143
1, 169440, Note_on_c, 0, 71, 0
1, 169440, Note_on_c, 0, 67, 0
1, 169440, Note_on_c, 0, 83, 0
1, 169440, Note_on_c, 0, 81, 60
1, 169440, Note_on_c, 0, 67, 39
1, 169440, Note_on_c, 0, 71, 46
1, 169463, Control_c, 0, 64, 0
1, 169560, Note_on_c, 0, 81, 0
1, 169560, Note_on_c, 0, 79, 56
1, 169680, Note_on_c, 0, 79, 0
1, 169680, Note_on_c, 0, 71, 0
1, 169680, Note_on_c, 0, 67, 0
1, 169680, Note_on_c, 0, 78, 56
1, 169680, Note_on_c, 0, 67, 39
1, 169680, Note_on_c, 0, 71, 46
1, 169800, Note_on_c, 0, 78, 0
1, 169800, Note_on_c, 0, 76, 56
1, 169920, Tempo, 363636
1, 169920, Note_on_c, 0, 76, 0
1, 169920, Note_on_c, 0, 71, 0
1, 169920, Note_on_c, 0, 67, 0
1, 169920, Note_on_c, 0, 74, 60
1, 169920, Note_on_c, 0, 66, 46
1, 169920, Note_on_c, 0, 57, 39
1, 169986, Control_c, 0, 64, 127
1, 170160, Note_on_c, 0, 57, 0
1, 170160, Note_on_c, 0, 66, 0
1, 170160, Note_on_c, 0, 57, 39
1, 170160, Note_on_c, 0, 66, 46
1, 170400, Tempo, 358209
1, 170400, Note_on_c, 0, 66, 0
1, 170400, Note_on_c, 0, 57, 0
1, 170400, Note_on_c, 0, 74, 0
1, 170400, Note_on_c, 0, 73, 52
1, 170400, Note_on_c, 0, 57, 39
1, 170400, Note_on_c, 0, 64, 46
1, 170413, Control_c, 0, 64, 0
1, 170477, Control_c, 0, 64, 127
1, 170480, Note_on_c, 0, 73, 0
1, 170480, Note_on_c, 0, 74, 43
1, 170560, Note_on_c, 0, 74, 0
1, 170560, Note_on_c, 0, 73, 48
1, 170640, Tempo, 370370
1, 170640, Note_on_c, 0, 73, 0
1, 170640, Note_on_c, 0, 64, 0
1, 170640, Note_on_c, 0, 57, 0
1, 170640, Note_on_c, 0, 74, 43
1, 170640, Note_on_c, 0, 57, 39
1, 170640, Note_on_c, 0, 64, 46
1, 170700, Note_on_c, 0, 74, 0
1, 170700, Note_on_c, 0, 73, 48
1, 170760, Note_on_c, 0, 73, 0
1, 170760, Note_on_c, 0, 74, 42
1, 170820, Note_on_c, 0, 74, 0
1, 170820, Note_on_c, 0, 73, 47
1, 170880, Tempo, 358209
1, 170880, Note_on_c, 0, 73, 0
1, 170880, Note_on_c, 0, 64, 0
1, 170880, Note_on_c, 0, 57, 0
1, 170880, Note_on_c, 0, 74, 54
1, 170880, Note_on_c, 0, 62, 37
1, 170880, Note_on_c, 0, 66, 44
1, 170888, Control_c, 0, 64, 0
1, 171000, Note_on_c, 0, 74, 0
1, 171000, Note_on_c, 0, 76, 50
1, 171120, Note_on_c, 0, 76, 0
1, 171120, Note_on_c, 0, 66, 0
1, 171120, Note_on_c, 0, 62, 0
1, 171120, Note_on_c, 0, 78, 51
1, 171120, Note_on_c, 0, 62, 32
1, 171120, Note_on_c, 0, 66, 38
1, 171240, Note_on_c, 0, 78, 0
1, 171240, Note_on_c, 0, 79, 52
1, 171360, Note_on_c, 0, 79, 0
1, 171360, Note_on_c, 0, 66, 0
1, 171360, Note_on_c, 0, 62, 0
1, 171360, Note_on_c, 0, 81, 53
1, 171360, Note_on_c, 0, 62, 32
1, 171360, Note_on_c, 0, 66, 38
1, 171480, Note_on_c, 0, 81, 0
1, 171480, Note_on_c, 0, 83, 54
1, 171600, Tempo, 363636
1, 171600, Note_on_c, 0, 83, 0
1, 171600, Note_on_c, 0, 66, 0
1, 171600, Note_on_c, 0, 62, 0
1, 171600, Note_on_c, 0, 85, 55
1, 171600, Note_on_c, 0, 62, 32
1, 171600, Note_on_c, 0, 66, 38
1, 171720, Note_on_c, 0, 85, 0
1, 171720, Note_on_c, 0, 86, 56
1, 171840, Tempo, 358209
1, 171840, Note_on_c, 0, 86, 0
1, 171840, Note_on_c, 0, 66, 0
1, 171840, Note_on_c, 0, 62, 0
1, 171840, Note_on_c, 0, 85, 59
1, 171840, Note_on_c, 0, 62, 36
1, 171840, Note_on_c, 0, 67, 43
1, 171960, Note_on_c, 0, 85, 0
1, 171960, Note_on_c, 0, 88, 55
1, 172080, Note_on_c, 0, 88, 0
1, 172080, Note_on_c, 0, 67, 0
1, 172080, Note_on_c, 0, 62, 0
1, 172080, Note_on_c, 0, 85, 55
1, 172080, Note_on_c, 0, 62, 32
1, 172080, Note_on_c, 0, 67, 38
1, 172200, Note_on_c, 0, 85, 0
1, 172200, Note_on_c, 0, 81, 55
1, 172320, Tempo, 358209
1, 172320, Note_on_c, 0, 81, 0
1, 172320, Note_on_c, 0, 67, 0
1, 172320, Note_on_c, 0, 62, 0
1, 172320, Note_on_c, 0, 79, 58
1, 172320, Note_on_c, 0, 62, 32
1, 172320, Note_on_c, 0, 67, 38
1, 172440, Tempo, 359281
1, 172440, Note_on_c, 0, 79, 0
1, 172440, Note_on_c, 0, 83, 55
1, 172560, Tempo, 360360
1, 172560, Note_on_c, 0, 83, 0
1, 172560, Note_on_c, 0, 67, 0
1, 172560, Note_on_c, 0, 62, 0
1, 172560, Note_on_c, 0, 79, 55
1, 172560, Note_on_c, 0, 62, 32
1, 172560, Note_on_c, 0, 67, 38
1, 172680, Tempo, 361446
1, 172680, Note_on_c, 0, 79, 0
1, 172680, Note_on_c, 0, 76, 55
1, 172780, Tempo, 362538
1, 172800, Tempo, 358209
1, 172800, Note_on_c, 0, 76, 0
1, 172800, Note_on_c, 0, 67, 0
1, 172800, Note_on_c, 0, 62, 0
1, 172800, Note_on_c, 0, 78, 57
1, 172800, Note_on_c, 0, 62, 37
1, 172800, Note_on_c, 0, 66, 44
1, 172920, Note_on_c, 0, 78, 0
1, 172920, Note_on_c, 0, 81, 53
1, 173040, Note_on_c, 0, 81, 0
1, 173040, Note_on_c, 0, 66, 0
1, 173040, Note_on_c, 0, 62, 0
1, 173040, Note_on_c, 0, 79, 53
1, 173040, Note_on_c, 0, 62, 32
1, 173040, Note_on_c, 0, 66, 38
1, 173160, Note_on_c, 0, 79, 0
1, 173160, Note_on_c, 0, 78, 53
1, 173280, Note_on_c, 0, 78, 0
1, 173280, Note_on_c, 0, 66, 0
1, 173280, Note_on_c, 0, 62, 0
1, 173280, Note_on_c, 0, 76, 55
1, 173280, Note_on_c, 0, 62, 32
1, 173280, Note_on_c, 0, 66, 38
1, 173400, Note_on_c, 0, 76, 0
1, 173400, Note_on_c, 0, 74, 53
1, 173520, Note_on_c, 0, 74, 0
1, 173520, Note_on_c, 0, 66, 0
1, 173520, Note_on_c, 0, 62, 0
1, 173520, Note_on_c, 0, 73, 53
1, 173520, Note_on_c, 0, 62, 32
1, 173520, Note_on_c, 0, 66, 38
1, 173640, Note_on_c, 0, 73, 0
1, 173640, Note_on_c, 0, 71, 53
1, 173760, Note_on_c, 0, 71, 0
1, 173760, Note_on_c, 0, 66, 0
1, 173760, Note_on_c, 0, 62, 0
1, 173760, Note_on_c, 0, 69, 56
1, 173760, Note_on_c, 0, 62, 37
1, 173760, Note_on_c, 0, 67, 44
1, 173880, Note_on_c, 0, 69, 0
1, 173880, Note_on_c, 0, 71, 52
1, 174000, Note_on_c, 0, 71, 0
1, 174000, Note_on_c, 0, 67, 0
1, 174000, Note_on_c, 0, 62, 0
1, 174000, Note_on_c, 0, 73, 52
1, 174000, Note_on_c, 0, 62, 32
1, 174000, Note_on_c, 0, 67, 38
1, 174120, Note_on_c, 0, 73, 0
1, 174120, Note_on_c, 0, 74, 52
1, 174240, Note_on_c, 0, 74, 0
1, 174240, Note_on_c, 0, 67, 0
1, 174240, Note_on_c, 0, 62, 0
1, 174240, Note_on_c, 0, 76, 55
1, 174240, Note_on_c, 0, 62, 32
1, 174240, Note_on_c, 0, 67, 38
1, 174360, Note_on_c, 0, 76, 0
1, 174360, Note_on_c, 0, 78, 51
1, 174480, Note_on_c, 0, 78, 0
1, 174480, Note_on_c, 0, 67, 0
1, 174480, Note_on_c, 0, 62, 0
1, 174480, Note_on_c, 0, 79, 53
1, 174480, Note_on_c, 0, 62, 32
1, 174480, Note_on_c, 0, 67, 38
1, 174600, Note_on_c, 0, 79, 0
1, 174600, Note_on_c, 0, 76, 54
1, 174720, Tempo, 358209
1, 174720, Note_on_c, 0, 76, 0
1, 174720, Note_on_c, 0, 67, 0
1, 174720, Note_on_c, 0, 62, 0
1, 174720, Note_on_c, 0, 74, 56
1, 174720, Note_on_c, 0, 62, 38
1, 174720, Note_on_c, 0, 66, 45
1, 174760, Tempo, 359281
1, 174780, Tempo, 360360
1, 174820, Tempo, 361446
1, 174840, Tempo, 362538
1, 174840, Note_on_c, 0, 74, 0
1, 174840, Note_on_c, 0, 76, 56
1, 174880, Tempo, 363636
1, 174900, Tempo, 364742
1, 174940, Tempo, 365854
1, 174960, Tempo, 366972
1, 174960, Note_on_c, 0, 76, 0
1, 174960, Note_on_c, 0, 66, 0
1, 174960, Note_on_c, 0, 62, 0
1, 174960, Note_on_c, 0, 78, 59
1, 174960, Note_on_c, 0, 62, 34
1, 174960, Note_on_c, 0, 66, 41
1, 175000, Tempo, 368098
1, 175020, Tempo, 369231
1, 175060, Tempo, 370370
1, 175080, Tempo, 371517
1, 175080, Note_on_c, 0, 78, 0
1, 175080, Note_on_c, 0, 79, 61
1, 175120, Tempo, 372671
1, 175140, Tempo, 373832
1, 175180, Tempo, 375000
1, 175200, Tempo, 376176
1, 175200, Note_on_c, 0, 79, 0
1, 175200, Note_on_c, 0, 66, 0
1, 175200, Note_on_c, 0, 62, 0
1, 175200, Note_on_c, 0, 81, 61
1, 175200, Note_on_c, 0, 62, 38
1, 175200, Note_on_c, 0, 66, 45
1, 175240, Tempo, 377358
1, 175260, Tempo, 378549
1, 175300, Tempo, 379747
1, 175320, Tempo, 380952
1, 175320, Note_on_c, 0, 81, 0
1, 175320, Note_on_c, 0, 83, 63
1, 175360, Tempo, 382166
1, 175380, Tempo, 383387
1, 175420, Tempo, 384615
1, 175440, Tempo, 385852
1, 175440, Note_on_c, 0, 83, 0
1, 175440, Note_on_c, 0, 66, 0
1, 175440, Note_on_c, 0, 62, 0
1, 175440, Note_on_c, 0, 85, 66
1, 175440, Note_on_c, 0, 62, 34
1, 175440, Note_on_c, 0, 66, 40
1, 175480, Tempo, 387097
1, 175500, Tempo, 388350
1, 175520, Tempo, 389610
1, 175560, Tempo, 408163
1, 175560, Note_on_c, 0, 66, 0
1, 175560, Note_on_c, 0, 62, 0
1, 175560, Note_on_c, 0, 85, 0
1, 175560, Note_on_c, 0, 86, 69
1, 175620, Note_on_c, 0, 86, 0
1, 175660, Tempo, 380952
1, 175680, Note_on_c, 0, 74, 66
1, 175680, Note_on_c, 0, 62, 40
1, 175680, Note_on_c, 0, 66, 48
1, 175740, Control_c, 0, 64, 127
1, 176160, Note_on_c, 0, 66, 0
1, 176160, Note_on_c, 0, 62, 0
1, 176160, Note_on_c, 0, 74, 0
1, 176181, Control_c, 0, 64, 0
1, 176640, Tempo, 364742
1, 176640, Marker_t, "Teil 4"
1, 176640, Note_on_c, 0, 77, 54
1, 176640, Note_on_c, 0, 58, 45
1, 176695, Control_c, 0, 64, 127
1, 176760, Note_on_c, 0, 58, 0
1, 176760, Note_on_c, 0, 65, 39
1, 176880, Note_on_c, 0, 65, 0
1, 176880, Note_on_c, 0, 62, 45
1, 177000, Note_on_c, 0, 62, 0
1, 177000, Note_on_c, 0, 77, 0
1, 177000, Note_on_c, 0, 74, 47
1, 177000, Note_on_c, 0, 65, 38
1, 177060, Note_on_c, 0, 74, 0
1, 177060, Note_on_c, 0, 75, 47
1, 177120, Note_on_c, 0, 75, 0
1, 177120, Note_on_c, 0, 65, 0
1, 177120, Note_on_c, 0, 77, 55
1, 177120, Note_on_c, 0, 58, 45
1, 177132, Control_c, 0, 64, 0
1, 177175, Control_c, 0, 64, 127
1, 177240, Note_on_c, 0, 58, 0
1, 177240, Note_on_c, 0, 65, 41
1, 177360, Tempo, 410959
1, 177360, Note_on_c, 0, 65, 0
1, 177360, Note_on_c, 0, 77, 0
1, 177360, Note_on_c, 0, 89, 84
1, 177360, Note_on_c, 0, 62, 45
1, 177480, Note_on_c, 0, 62, 0
1, 177480, Note_on_c, 0, 65, 39
1, 177600, Tempo, 400000
1, 177600, Note_on_c, 0, 65, 0
1, 177600, Note_on_c, 0, 60, 45
1, 177617, Control_c, 0, 64, 0
1, 177652, Control_c, 0, 64, 127
1, 177720, Note_on_c, 0, 60, 0
1, 177720, Note_on_c, 0, 65, 39
1, 177840, Tempo, 379747
1, 177840, Note_on_c, 0, 65, 0
1, 177840, Note_on_c, 0, 89, 0
1, 177840, Note_on_c, 0, 69, 51
1, 177840, Note_on_c, 0, 63, 45
1, 177855, Control_c, 0, 64, 0
1, 177909, Control_c, 0, 64, 127
1, 177960, Note_on_c, 0, 63, 0
1, 177960, Note_on_c, 0, 65, 39
1, 178080, Note_on_c, 0, 65, 0
1, 178080, Note_on_c, 0, 69, 0
1, 178080, Note_on_c, 0, 69, 51
1, 178080, Note_on_c, 0, 60, 45
1, 178200, Note_on_c, 0, 60, 0
1, 178200, Note_on_c, 0, 65, 41
1, 178320, Note_on_c, 0, 65, 0
1, 178320, Note_on_c, 0, 69, 0
1, 178320, Note_on_c, 0, 69, 51
1, 178320, Note_on_c, 0, 63, 45
1, 178440, Note_on_c, 0, 63, 0
1, 178440, Note_on_c, 0, 65, 40
1, 178560, Tempo, 364742
1, 178560, Note_on_c, 0, 65, 0
1, 178560, Note_on_c, 0, 69, 0
1, 178560, Note_on_c, 0, 70, 54
1, 178560, Note_on_c, 0, 58, 45
1, 178560, Control_c, 0, 64, 0
1, 178656, Control_c, 0, 64, 127
1, 178680, Note_on_c, 0, 58, 0
1, 178680, Note_on_c, 0, 65, 40
1, 178800, Note_on_c, 0, 65, 0
1, 178800, Note_on_c, 0, 62, 45
1, 178920, Note_on_c, 0, 62, 0
1, 178920, Note_on_c, 0, 70, 0
1, 178920, Note_on_c, 0, 70, 47
1, 178920, Note_on_c, 0, 65, 40
1, 178980, Note_on_c, 0, 70, 0
1, 178980, Note_on_c, 0, 72, 47
1, 179040, Note_on_c, 0, 72, 0
1, 179040, Note_on_c, 0, 65, 0
1, 179040, Note_on_c, 0, 74, 55
1, 179040, Note_on_c, 0, 58, 45
1, 179056, Control_c, 0, 64, 0
1, 179107, Control_c, 0, 64, 127
1, 179160, Note_on_c, 0, 58, 0
1, 179160, Note_on_c, 0, 65, 40
1, 179280, Tempo, 425532
1, 179280, Note_on_c, 0, 65, 0
1, 179280, Note_on_c, 0, 74, 0
1, 179280, Note_on_c, 0, 86, 79
1, 179280, Note_on_c, 0, 62, 45
1, 179400, Note_on_c, 0, 62, 0
1, 179400, Note_on_c, 0, 65, 39
1, 179520, Tempo, 400000
1, 179520, Note_on_c, 0, 65, 0
1, 179520, Note_on_c, 0, 57, 45
1, 179536, Control_c, 0, 64, 0
1, 179594, Control_c, 0, 64, 127
1, 179640, Note_on_c, 0, 57, 0
1, 179640, Note_on_c, 0, 62, 39
1, 179760, Tempo, 385852
1, 179760, Note_on_c, 0, 62, 0
1, 179760, Note_on_c, 0, 86, 0
1, 179760, Note_on_c, 0, 66, 51
1, 179760, Note_on_c, 0, 60, 45
1, 179769, Control_c, 0, 64, 0
1, 179848, Control_c, 0, 64, 127
1, 179880, Note_on_c, 0, 60, 0
1, 179880, Note_on_c, 0, 62, 41
1, 180000, Note_on_c, 0, 62, 0
1, 180000, Note_on_c, 0, 66, 0
1, 180000, Note_on_c, 0, 66, 51
1, 180000, Note_on_c, 0, 57, 45
1, 180120, Note_on_c, 0, 57, 0
1, 180120, Note_on_c, 0, 62, 40
1, 180240, Note_on_c, 0, 62, 0
1, 180240, Note_on_c, 0, 66, 0
1, 180240, Note_on_c, 0, 66, 51
1, 180240, Note_on_c, 0, 60, 45
1, 180360, Note_on_c, 0, 60, 0
1, 180360, Note_on_c, 0, 62, 40
1, 180480, Tempo, 361446
1, 180480, Note_on_c, 0, 62, 0
1, 180480, Note_on_c, 0, 66, 0
1, 180480, Note_on_c, 0, 67, 59
1, 180480, Note_on_c, 0, 55, 45
1, 180493, Control_c, 0, 64, 0
1, 180583, Control_c, 0, 64, 127
1, 180600, Note_on_c, 0, 55, 0
1, 180600, Note_on_c, 0, 62, 40
1, 180720, Note_on_c, 0, 62, 0
1, 180720, Note_on_c, 0, 58, 45
1, 180840, Note_on_c, 0, 58, 0
1, 180840, Note_on_c, 0, 67, 0
1, 180840, Note_on_c, 0, 67, 47
1, 180840, Note_on_c, 0, 62, 39
1, 180900, Note_on_c, 0, 67, 0
1, 180900, Note_on_c, 0, 69, 47
1, 180960, Note_on_c, 0, 69, 0
1, 180960, Note_on_c, 0, 62, 0
1, 180960, Note_on_c, 0, 70, 59
1, 180960, Note_on_c, 0, 55, 45
1, 180981, Control_c, 0, 64, 0
1, 181038, Control_c, 0, 64, 127
1, 181080, Note_on_c, 0, 55, 0
1, 181080, Note_on_c, 0, 62, 40
1, 181200, Tempo, 412371
1, 181200, Note_on_c, 0, 62, 0
1, 181200, Note_on_c, 0, 70, 0
1, 181200, Note_on_c, 0, 82, 78
1, 181200, Note_on_c, 0, 58, 45
1, 181320, Note_on_c, 0, 58, 0
1, 181320, Note_on_c, 0, 62, 40
1, 181440, Tempo, 400000
1, 181440, Note_on_c, 0, 62, 0
1, 181440, Note_on_c, 0, 51, 45
1, 181455, Control_c, 0, 64, 0
1, 181497, Control_c, 0, 64, 127
1, 181560, Note_on_c, 0, 51, 0
1, 181560, Note_on_c, 0, 55, 39
1, 181680, Note_on_c, 0, 55, 0
1, 181680, Note_on_c, 0, 82, 0
1, 181680, Note_on_c, 0, 61, 55
1, 181680, Note_on_c, 0, 54, 45
1, 181691, Control_c, 0, 64, 0
1, 181754, Control_c, 0, 64, 127
1, 181800, Note_on_c, 0, 54, 0
1, 181800, Note_on_c, 0, 55, 39
1, 181920, Note_on_c, 0, 55, 0
1, 181920, Note_on_c, 0, 61, 0
1, 181920, Note_on_c, 0, 61, 55
1, 181920, Note_on_c, 0, 51, 45
1, 182040, Note_on_c, 0, 51, 0
1, 182040, Note_on_c, 0, 55, 39
1, 182160, Note_on_c, 0, 55, 0
1, 182160, Note_on_c, 0, 61, 0
1, 182160, Note_on_c, 0, 61, 55
1, 182160, Note_on_c, 0, 54, 45
1, 182280, Note_on_c, 0, 54, 0
1, 182280, Note_on_c, 0, 55, 39
1, 182400, Tempo, 361446
1, 182400, Note_on_c, 0, 55, 0
1, 182400, Note_on_c, 0, 61, 0
1, 182400, Note_on_c, 0, 62, 54
1, 182400, Note_on_c, 0, 50, 58
1, 182400, Control_c, 0, 64, 0
1, 182520, Note_on_c, 0, 62, 0
1, 182520, Note_on_c, 0, 64, 56
1, 182640, Note_on_c, 0, 64, 0
1, 182640, Note_on_c, 0, 66, 57
1, 182760, Note_on_c, 0, 66, 0
1, 182760, Note_on_c, 0, 67, 59
1, 182880, Tempo, 410959
1, 182880, Note_on_c, 0, 67, 0
1, 182880, Note_on_c, 0, 50, 0
1, 182880, Note_on_c, 0, 69, 60
1, 183000, Note_on_c, 0, 69, 0
1, 183000, Note_on_c, 0, 66, 57
1, 183120, Tempo, 422535
1, 183120, Note_on_c, 0, 66, 0
1, 183120, Note_on_c, 0, 67, 60
1, 183240, Note_on_c, 0, 67, 0
1, 183240, Note_on_c, 0, 64, 56
1, 183360, Note_on_c, 0, 64, 0
1, 183360, Note_on_c, 0, 62, 68
1, 183360, Note_on_c, 0, 38, 60
1, 183480, Note_on_c, 0, 38, 0
1, 183480, Note_on_c, 0, 50, 60
1, 183600, Note_on_c, 0, 50, 0
1, 183600, Note_on_c, 0, 36, 60
1, 183720, Note_on_c, 0, 36, 0
1, 183720, Note_on_c, 0, 48, 59
1, 183840, Note_on_c, 0, 48, 0
1, 183840, Note_on_c, 0, 62, 0
1, 183840, Note_on_c, 0, 35, 58
1, 183960, Note_on_c, 0, 35, 0
1, 183960, Note_on_c, 0, 47, 57
1, 184080, Note_on_c, 0, 47, 0
1, 184080, Note_on_c, 0, 33, 56
1, 184200, Note_on_c, 0, 33, 0
1, 184200, Note_on_c, 0, 45, 56
1, 184320, Tempo, 375000
1, 184320, Note_on_c, 0, 45, 0
1, 184320, Control_c, 0, 91, 127
1, 184320, Note_on_c, 0, 31, 65
1, 184320, Control_c, 0, 91, 127
1, 184321, Note_on_c, 0, 67, 60
1, 184408, Control_c, 0, 64, 127
1, 184680, Note_on_c, 0, 71, 46
1, 184681, Note_on_c, 0, 67, 0
1, 184691, Control_c, 0, 64, 0
1, 184740, Note_on_c, 0, 71, 0
1, 184740, Note_on_c, 0, 69, 47
1, 184800, Note_on_c, 0, 69, 0
1, 184800, Note_on_c, 0, 31, 0
1, 184800, Note_on_c, 0, 67, 56
1, 184800, Note_on_c, 0, 55, 30
1, 184800, Note_on_c, 0, 59, 36
1, 184920, Note_on_c, 0, 67, 0
1, 184920, Note_on_c, 0, 62, 48
1, 185040, Note_on_c, 0, 62, 0
1, 185040, Note_on_c, 0, 59, 0
1, 185040, Note_on_c, 0, 55, 0
1, 185040, Note_on_c, 0, 71, 48
1, 185040, Note_on_c, 0, 55, 30
1, 185040, Note_on_c, 0, 59, 36
1, 185160, Note_on_c, 0, 71, 0
1, 185160, Note_on_c, 0, 69, 48
1, 185280, Note_on_c, 0, 69, 0
1, 185280, Note_on_c, 0, 59, 0
1, 185280, Note_on_c, 0, 55, 0
1, 185280, Note_on_c, 0, 67, 56
1, 185280, Note_on_c, 0, 55, 34
1, 185280, Note_on_c, 0, 59, 40
1, 185400, Note_on_c, 0, 67, 0
1, 185400, Note_on_c, 0, 62, 48
1, 185520, Tempo, 368098
1, 185520, Note_on_c, 0, 62, 0
1, 185520, Note_on_c, 0, 59, 0
1, 185520, Note_on_c, 0, 55, 0
1, 185520, Note_on_c, 0, 67, 48
1, 185520, Note_on_c, 0, 55, 32
1, 185520, Note_on_c, 0, 59, 38
1, 185640, Note_on_c, 0, 67, 0
1, 185640, Note_on_c, 0, 71, 48
1, 185760, Note_on_c, 0, 71, 0
1, 185760, Note_on_c, 0, 59, 0
1, 185760, Note_on_c, 0, 55, 0
1, 185760, Note_on_c, 0, 74, 56
1, 185760, Note_on_c, 0, 55, 32
1, 185760, Note_on_c, 0, 59, 38
1, 185880, Note_on_c, 0, 74, 0
1, 185880, Note_on_c, 0, 71, 52
1, 186000, Note_on_c, 0, 71, 0
1, 186000, Note_on_c, 0, 59, 0
1, 186000, Note_on_c, 0, 55, 0
1, 186000, Note_on_c, 0, 69, 52
1, 186000, Note_on_c, 0, 55, 32
1, 186000, Note_on_c, 0, 59, 38
1, 186120, Tempo, 382166
1, 186120, Note_on_c, 0, 69, 0
1, 186120, Note_on_c, 0, 67, 52
1, 186240, Tempo, 368098
1, 186240, Note_on_c, 0, 67, 0
1, 186240, Note_on_c, 0, 59, 0
1, 186240, Note_on_c, 0, 55, 0
1, 186240, Note_on_c, 0, 71, 59
1, 186240, Note_on_c, 0, 55, 37
1, 186240, Note_on_c, 0, 60, 44
1, 186360, Note_on_c, 0, 71, 0
1, 186360, Note_on_c, 0, 69, 52
1, 186480, Note_on_c, 0, 69, 0
1, 186480, Note_on_c, 0, 67, 52
1, 186600, Note_on_c, 0, 67, 0
1, 186600, Note_on_c, 0, 69, 52
1, 186720, Tempo, 384615
1, 186720, Note_on_c, 0, 69, 0
1, 186720, Note_on_c, 0, 60, 0
1, 186720, Note_on_c, 0, 55, 0
1, 186720, Note_on_c, 0, 67, 54
1, 186720, Note_on_c, 0, 55, 34
1, 186720, Note_on_c, 0, 59, 41
1, 186960, Tempo, 365854
1, 186960, Note_on_c, 0, 59, 0
1, 186960, Note_on_c, 0, 55, 0
1, 186960, Note_on_c, 0, 67, 0
1, 186960, Note_on_c, 0, 88, 46
1, 187080, Note_on_c, 0, 88, 0
1, 187080, Note_on_c, 0, 76, 44
1, 187200, Note_on_c, 0, 76, 0
1, 187200, Note_on_c, 0, 88, 47
1, 187200, Note_on_c, 0, 74, 41
1, 187200, Note_on_c, 0, 68, 41
1, 187240, Tempo, 366972
1, 187320, Note_on_c, 0, 88, 0
1, 187320, Note_on_c, 0, 76, 44
1, 187440, Note_on_c, 0, 76, 0
1, 187440, Note_on_c, 0, 68, 0
1, 187440, Note_on_c, 0, 74, 0
1, 187440, Note_on_c, 0, 88, 49
1, 187440, Note_on_c, 0, 74, 38
1, 187440, Note_on_c, 0, 68, 38
1, 187500, Tempo, 368098
1, 187560, Note_on_c, 0, 88, 0
1, 187560, Note_on_c, 0, 76, 45
1, 187680, Note_on_c, 0, 76, 0
1, 187680, Note_on_c, 0, 68, 0
1, 187680, Note_on_c, 0, 74, 0
1, 187680, Note_on_c, 0, 88, 51
1, 187680, Note_on_c, 0, 74, 44
1, 187680, Note_on_c, 0, 68, 44
1, 187760, Tempo, 369231
1, 187800, Note_on_c, 0, 88, 0
1, 187800, Note_on_c, 0, 76, 46
1, 187920, Note_on_c, 0, 76, 0
1, 187920, Note_on_c, 0, 68, 0
1, 187920, Note_on_c, 0, 74, 0
1, 187920, Note_on_c, 0, 88, 52
1, 187920, Note_on_c, 0, 68, 41
1, 187920, Note_on_c, 0, 74, 41
1, 188020, Tempo, 370370
1, 188040, Tempo, 373832
1, 188040, Note_on_c, 0, 88, 0
1, 188040, Note_on_c, 0, 76, 49
1, 188160, Tempo, 365854
1, 188160, Note_on_c, 0, 76, 0
1, 188160, Note_on_c, 0, 74, 0
1, 188160, Note_on_c, 0, 68, 0
1, 188160, Note_on_c, 0, 88, 54
1, 188160, Note_on_c, 0, 69, 50
1, 188160, Note_on_c, 0, 72, 50
1, 188460, Note_on_c, 0, 88, 0
1, 188460, Note_on_c, 0, 86, 48
1, 188520, Note_on_c, 0, 86, 0
1, 188520, Note_on_c, 0, 84, 48
1, 188580, Note_on_c, 0, 84, 0
1, 188580, Note_on_c, 0, 83, 47
1, 188640, Tempo, 380952
1, 188640, Note_on_c, 0, 83, 0
1, 188640, Note_on_c, 0, 72, 0
1, 188640, Note_on_c, 0, 69, 0
1, 188640, Note_on_c, 0, 81, 47
1, 188880, Tempo, 364742
1, 188880, Note_on_c, 0, 81, 0
1, 188880, Note_on_c, 0, 86, 46
1, 189000, Note_on_c, 0, 86, 0
1, 189000, Note_on_c, 0, 74, 44
1, 189120, Note_on_c, 0, 74, 0
1, 189120, Note_on_c, 0, 86, 47
1, 189120, Note_on_c, 0, 72, 41
1, 189120, Note_on_c, 0, 66, 41
1, 189160, Tempo, 365854
1, 189240, Note_on_c, 0, 86, 0
1, 189240, Note_on_c, 0, 74, 44
1, 189360, Note_on_c, 0, 74, 0
1, 189360, Note_on_c, 0, 66, 0
1, 189360, Note_on_c, 0, 72, 0
1, 189360, Note_on_c, 0, 86, 49
1, 189360, Note_on_c, 0, 72, 38
1, 189360, Note_on_c, 0, 66, 38
1, 189420, Tempo, 366972
1, 189480, Note_on_c, 0, 86, 0
1, 189480, Note_on_c, 0, 74, 45
1, 189600, Note_on_c, 0, 74, 0
1, 189600, Note_on_c, 0, 66, 0
1, 189600, Note_on_c, 0, 72, 0
1, 189600, Note_on_c, 0, 86, 51
1, 189600, Note_on_c, 0, 72, 44
1, 189600, Note_on_c, 0, 66, 44
1, 189680, Tempo, 368098
1, 189720, Note_on_c, 0, 86, 0
1, 189720, Note_on_c, 0, 74, 46
1, 189840, Note_on_c, 0, 74, 0
1, 189840, Note_on_c, 0, 66, 0
1, 189840, Note_on_c, 0, 72, 0
1, 189840, Note_on_c, 0, 86, 52
1, 189840, Note_on_c, 0, 66, 41
1, 189840, Note_on_c, 0, 72, 41
1, 189940, Tempo, 369231
1, 189960, Tempo, 373832
1, 189960, Note_on_c, 0, 86, 0
1, 189960, Note_on_c, 0, 74, 49
1, 190080, Tempo, 365854
1, 190080, Note_on_c, 0, 74, 0
1, 190080, Note_on_c, 0, 72, 0
1, 190080, Note_on_c, 0, 66, 0
1, 190080, Note_on_c, 0, 86, 54
1, 190080, Note_on_c, 0, 67, 50
1, 190080, Note_on_c, 0, 71, 50
1, 190380, Note_on_c, 0, 86, 0
1, 190380, Note_on_c, 0, 84, 48
1, 190440, Note_on_c, 0, 84, 0
1, 190440, Note_on_c, 0, 83, 48
1, 190500, Note_on_c, 0, 83, 0
1, 190500, Note_on_c, 0, 81, 47
1, 190560, Note_on_c, 0, 81, 0
1, 190560, Note_on_c, 0, 71, 0
1, 190560, Note_on_c, 0, 67, 0
1, 190560, Note_on_c, 0, 79, 47
1, 190800, Note_on_c, 0, 79, 0
1, 191040, Tempo, 274600
1, 192720, Tempo, 360360
1, 192720, Note_on_c, 0, 86, 39
1, 192780, Note_on_c, 0, 86, 0
1, 192780, Note_on_c, 0, 84, 39
1, 192840, Note_on_c, 0, 84, 0
1, 192840, Note_on_c, 0, 83, 39
1, 192900, Note_on_c, 0, 83, 0
1, 192900, Note_on_c, 0, 81, 39
1, 192960, Note_on_c, 0, 81, 0
1, 192960, Note_on_c, 0, 79, 47
1, 193080, Note_on_c, 0, 79, 0
1, 193200, Note_on_c, 0, 83, 39
1, 193260, Note_on_c, 0, 83, 0
1, 193260, Note_on_c, 0, 81, 39
1, 193320, Note_on_c, 0, 81, 0
1, 193320, Note_on_c, 0, 79, 39
1, 193380, Note_on_c, 0, 79, 0
1, 193380, Note_on_c, 0, 78, 39
1, 193440, Note_on_c, 0, 78, 0
1, 193440, Note_on_c, 0, 76, 50
1, 193560, Note_on_c, 0, 76, 0
1, 193680, Note_on_c, 0, 79, 38
1, 193740, Note_on_c, 0, 79, 0
1, 193740, Note_on_c, 0, 78, 38
1, 193800, Note_on_c, 0, 78, 0
1, 193800, Note_on_c, 0, 76, 38
1, 193860, Note_on_c, 0, 76, 0
1, 193860, Note_on_c, 0, 74, 38
1, 193920, Note_on_c, 0, 74, 0
1, 193920, Note_on_c, 0, 72, 50
1, 193920, Note_on_c, 0, 64, 34
1, 193920, Note_on_c, 0, 67, 34
1, 194003, Control_c, 0, 64, 127
1, 194400, Tempo, 365854
1, 194400, Note_on_c, 0, 67, 0
1, 194400, Note_on_c, 0, 64, 0
1, 194400, Note_on_c, 0, 72, 0
1, 194406, Control_c, 0, 64, 0
1, 194640, Note_on_c, 0, 79, 52
1, 194700, Note_on_c, 0, 79, 0
1, 194700, Note_on_c, 0, 77, 52
1, 194760, Note_on_c, 0, 77, 0
1, 194760, Note_on_c, 0, 75, 52
1, 194820, Note_on_c, 0, 75, 0
1, 194820, Note_on_c, 0, 74, 52
1, 194880, Note_on_c, 0, 74, 0
1, 194880, Note_on_c, 0, 72, 63
1, 194880, Note_on_c, 0, 63, 45
1, 194952, Control_c, 0, 64, 127
1, 195000, Note_on_c, 0, 63, 0
1, 195000, Note_on_c, 0, 67, 38
1, 195120, Note_on_c, 0, 67, 0
1, 195120, Note_on_c, 0, 72, 0
1, 195120, Note_on_c, 0, 83, 63
1, 195120, Note_on_c, 0, 63, 45
1, 195132, Control_c, 0, 64, 0
1, 195183, Control_c, 0, 64, 127
1, 195240, Note_on_c, 0, 63, 0
1, 195240, Note_on_c, 0, 67, 38
1, 195360, Note_on_c, 0, 67, 0
1, 195360, Note_on_c, 0, 83, 0
1, 195360, Note_on_c, 0, 84, 71
1, 195360, Note_on_c, 0, 63, 45
1, 195375, Control_c, 0, 64, 0
1, 195417, Control_c, 0, 64, 127
1, 195480, Note_on_c, 0, 63, 0
1, 195480, Note_on_c, 0, 67, 39
1, 195600, Tempo, 387097
1, 195600, Note_on_c, 0, 67, 0
1, 195600, Note_on_c, 0, 84, 0
1, 195600, Note_on_c, 0, 84, 66
1, 195600, Note_on_c, 0, 63, 45
1, 195720, Note_on_c, 0, 63, 0
1, 195720, Note_on_c, 0, 67, 39
1, 195840, Tempo, 369231
1, 195840, Note_on_c, 0, 67, 0
1, 195840, Note_on_c, 0, 84, 0
1, 195840, Note_on_c, 0, 84, 64
1, 195840, Note_on_c, 0, 62, 50
1, 195840, Note_on_c, 0, 66, 50
1, 195840, Control_c, 0, 64, 0
1, 195960, Note_on_c, 0, 84, 0
1, 195960, Note_on_c, 0, 83, 57
1, 196080, Note_on_c, 0, 83, 0
1, 196080, Note_on_c, 0, 84, 57
1, 196200, Tempo, 376176
1, 196200, Note_on_c, 0, 84, 0
1, 196200, Note_on_c, 0, 81, 57
1, 196320, Tempo, 369231
1, 196320, Note_on_c, 0, 81, 0
1, 196320, Note_on_c, 0, 66, 0
1, 196320, Note_on_c, 0, 62, 0
1, 196320, Note_on_c, 0, 83, 64
1, 196320, Note_on_c, 0, 67, 46
1, 196440, Note_on_c, 0, 83, 0
1, 196440, Note_on_c, 0, 81, 57
1, 196560, Note_on_c, 0, 81, 0
1, 196560, Note_on_c, 0, 83, 57
1, 196680, Tempo, 376176
1, 196680, Note_on_c, 0, 83, 0
1, 196680, Note_on_c, 0, 79, 57
1, 196800, Tempo, 370370
1, 196800, Note_on_c, 0, 79, 0
1, 196800, Note_on_c, 0, 67, 0
1, 196800, Note_on_c, 0, 81, 63
1, 196800, Note_on_c, 0, 60, 49
1, 196800, Note_on_c, 0, 72, 49
1, 196920, Note_on_c, 0, 81, 0
1, 196920, Note_on_c, 0, 80, 57
1, 197040, Note_on_c, 0, 80, 0
1, 197040, Note_on_c, 0, 81, 57
1, 197160, Tempo, 379747
1, 197160, Note_on_c, 0, 81, 0
1, 197160, Note_on_c, 0, 76, 57
1, 197280, Tempo, 370370
1, 197280, Note_on_c, 0, 76, 0
1, 197280, Note_on_c, 0, 72, 0
1, 197280, Note_on_c, 0, 60, 0
1, 197280, Note_on_c, 0, 79, 63
1, 197280, Note_on_c, 0, 62, 47
1, 197280, Note_on_c, 0, 72, 47
1, 197400, Note_on_c, 0, 79, 0
1, 197400, Note_on_c, 0, 78, 57
1, 197520, Note_on_c, 0, 78, 0
1, 197520, Note_on_c, 0, 76, 57
1, 197640, Tempo, 377358
1, 197640, Note_on_c, 0, 76, 0
1, 197640, Note_on_c, 0, 74, 57
1, 197760, Tempo, 372671
1, 197760, Note_on_c, 0, 74, 0
1, 197760, Note_on_c, 0, 72, 0
1, 197760, Note_on_c, 0, 62, 0
1, 197760, Note_on_c, 0, 79, 65
1, 197760, Note_on_c, 0, 67, 39
1, 197760, Note_on_c, 0, 71, 47
1, 197859, Control_c, 0, 64, 127
1, 197880, Note_on_c, 0, 79, 0
1, 197880, Note_on_c, 0, 74, 56
1, 197980, Tempo, 371517
1, 198000, Note_on_c, 0, 74, 0
1, 198000, Note_on_c, 0, 71, 0
1, 198000, Note_on_c, 0, 67, 0
1, 198000, Note_on_c, 0, 79, 58
1, 198000, Note_on_c, 0, 67, 34
1, 198000, Note_on_c, 0, 71, 40
1, 198120, Note_on_c, 0, 79, 0
1, 198120, Note_on_c, 0, 83, 61
1, 198180, Tempo, 370370
1, 198240, Note_on_c, 0, 83, 0
1, 198240, Note_on_c, 0, 71, 0
1, 198240, Note_on_c, 0, 67, 0
1, 198240, Note_on_c, 0, 86, 68
1, 198240, Note_on_c, 0, 67, 36
1, 198240, Note_on_c, 0, 71, 43
1, 198360, Note_on_c, 0, 86, 0
1, 198360, Note_on_c, 0, 83, 62
1, 198380, Tempo, 369231
1, 198480, Note_on_c, 0, 83, 0
1, 198480, Note_on_c, 0, 71, 0
1, 198480, Note_on_c, 0, 67, 0
1, 198480, Note_on_c, 0, 81, 60
1, 198480, Note_on_c, 0, 67, 34
1, 198480, Note_on_c, 0, 71, 40
1, 198580, Tempo, 368098
1, 198600, Tempo, 383387
1, 198600, Note_on_c, 0, 81, 0
1, 198600, Note_on_c, 0, 79, 57
1, 198720, Tempo, 372671
1, 198720, Note_on_c, 0, 79, 0
1, 198720, Note_on_c, 0, 71, 0
1, 198720, Note_on_c, 0, 67, 0
1, 198720, Note_on_c, 0, 78, 64
1, 198720, Note_on_c, 0, 67, 36
1, 198720, Note_on_c, 0, 72, 43
1, 198730, Control_c, 0, 64, 0
1, 198840, Note_on_c, 0, 78, 0
1, 198840, Note_on_c, 0, 74, 56
1, 198840, Control_c, 0, 64, 127
1, 198960, Note_on_c, 0, 74, 0
1, 198960, Note_on_c, 0, 72, 0
1, 198960, Note_on_c, 0, 67, 0
1, 198960, Note_on_c, 0, 78, 56
1, 198960, Note_on_c, 0, 67, 31
1, 198960, Note_on_c, 0, 72, 37
1, 199080, Note_on_c, 0, 78, 0
1, 199080, Note_on_c, 0, 81, 56
1, 199200, Note_on_c, 0, 81, 0
1, 199200, Note_on_c, 0, 72, 0
1, 199200, Note_on_c, 0, 67, 0
1, 199200, Note_on_c, 0, 84, 64
1, 199200, Note_on_c, 0, 67, 36
1, 199200, Note_on_c, 0, 72, 43
1, 199320, Note_on_c, 0, 84, 0
1, 199320, Note_on_c, 0, 81, 57
1, 199440, Note_on_c, 0, 81, 0
1, 199440, Note_on_c, 0, 72, 0
1, 199440, Note_on_c, 0, 67, 0
1, 199440, Note_on_c, 0, 79, 57
1, 199440, Note_on_c, 0, 67, 31
1, 199440, Note_on_c, 0, 72, 37
1, 199540, Tempo, 366972
1, 199560, Tempo, 378549
1, 199560, Note_on_c, 0, 79, 0
1, 199560, Note_on_c, 0, 78, 57
1, 199680, Tempo, 372671
1, 199680, Note_on_c, 0, 78, 0
1, 199680, Note_on_c, 0, 72, 0
1, 199680, Note_on_c, 0, 67, 0
1, 199680, Note_on_c, 0, 79, 65
1, 199680, Note_on_c, 0, 67, 39
1, 199680, Note_on_c, 0, 71, 47
1, 199692, Control_c, 0, 64, 0
1, 199800, Note_on_c, 0, 79, 0
1, 199800, Note_on_c, 0, 74, 56
1, 199828, Control_c, 0, 64, 127
1, 199900, Tempo, 371517
1, 199920, Note_on_c, 0, 74, 0
1, 199920, Note_on_c, 0, 71, 0
1, 199920, Note_on_c, 0, 67, 0
1, 199920, Note_on_c, 0, 79, 58
1, 199920, Note_on_c, 0, 67, 34
1, 199920, Note_on_c, 0, 71, 40
1, 200040, Note_on_c, 0, 79, 0
1, 200040, Note_on_c, 0, 83, 61
1, 200100, Tempo, 370370
1, 200160, Note_on_c, 0, 83, 0
1, 200160, Note_on_c, 0, 71, 0
1, 200160, Note_on_c, 0, 67, 0
1, 200160, Note_on_c, 0, 86, 68
1, 200160, Note_on_c, 0, 67, 36
1, 200160, Note_on_c, 0, 71, 43
1, 200280, Note_on_c, 0, 86, 0
1, 200280, Note_on_c, 0, 83, 62
1, 200300, Tempo, 369231
1, 200400, Note_on_c, 0, 83, 0
1, 200400, Note_on_c, 0, 71, 0
1, 200400, Note_on_c, 0, 67, 0
1, 200400, Note_on_c, 0, 81, 60
1, 200400, Note_on_c, 0, 67, 34
1, 200400, Note_on_c, 0, 71, 40
1, 200500, Tempo, 368098
1, 200520, Tempo, 383387
1, 200520, Note_on_c, 0, 81, 0
1, 200520, Note_on_c, 0, 79, 57
1, 200640, Tempo, 372671
1, 200640, Note_on_c, 0, 79, 0
1, 200640, Note_on_c, 0, 71, 0
1, 200640, Note_on_c, 0, 67, 0
1, 200640, Note_on_c, 0, 78, 64
1, 200640, Note_on_c, 0, 67, 36
1, 200640, Note_on_c, 0, 72, 43
1, 200658, Control_c, 0, 64, 0
1, 200760, Note_on_c, 0, 78, 0
1, 200760, Note_on_c, 0, 74, 56
1, 200803, Control_c, 0, 64, 127
1, 200880, Note_on_c, 0, 74, 0
1, 200880, Note_on_c, 0, 72, 0
1, 200880, Note_on_c, 0, 67, 0
1, 200880, Note_on_c, 0, 78, 56
1, 200880, Note_on_c, 0, 67, 31
1, 200880, Note_on_c, 0, 72, 37
1, 201000, Note_on_c, 0, 78, 0
1, 201000, Note_on_c, 0, 81, 56
1, 201120, Note_on_c, 0, 81, 0
1, 201120, Note_on_c, 0, 72, 0
1, 201120, Note_on_c, 0, 67, 0
1, 201120, Note_on_c, 0, 84, 64
1, 201120, Note_on_c, 0, 67, 36
1, 201120, Note_on_c, 0, 72, 43
1, 201240, Note_on_c, 0, 84, 0
1, 201240, Note_on_c, 0, 81, 57
1, 201360, Note_on_c, 0, 81, 0
1, 201360, Note_on_c, 0, 72, 0
1, 201360, Note_on_c, 0, 67, 0
1, 201360, Note_on_c, 0, 79, 57
1, 201360, Note_on_c, 0, 67, 31
1, 201360, Note_on_c, 0, 72, 37
1, 201460, Tempo, 366972
1, 201480, Tempo, 378549
1, 201480, Note_on_c, 0, 79, 0
1, 201480, Note_on_c, 0, 78, 57
1, 201600, Note_on_c, 0, 78, 0
1, 201600, Note_on_c, 0, 72, 0
1, 201600, Note_on_c, 0, 67, 0
1, 201600, Note_on_c, 0, 79, 65
1, 201600, Note_on_c, 0, 67, 39
1, 201600, Note_on_c, 0, 71, 47
1, 201621, Control_c, 0, 64, 0
1, 201706, Control_c, 0, 64, 127
1, 201720, Note_on_c, 0, 79, 0
1, 201720, Note_on_c, 0, 83, 59
1, 201840, Note_on_c, 0, 83, 0
1, 201840, Note_on_c, 0, 79, 59
1, 201960, Note_on_c, 0, 79, 0
1, 201960, Note_on_c, 0, 74, 59
1, 202080, Note_on_c, 0, 74, 0
1, 202080, Note_on_c, 0, 71, 0
1, 202080, Note_on_c, 0, 67, 0
1, 202080, Note_on_c, 0, 71, 65
1, 202200, Note_on_c, 0, 71, 0
1, 202200, Note_on_c, 0, 67, 56
1, 202320, Note_on_c, 0, 67, 0
1, 202320, Note_on_c, 0, 62, 55
1, 202440, Note_on_c, 0, 62, 0
1, 202440, Note_on_c, 0, 59, 54
1, 202560, Note_on_c, 0, 59, 0
1, 202560, Note_on_c, 0, 55, 60
1, 202758, Control_c, 0, 64, 0
1, 202800, Note_on_c, 0, 55, 0
1, 203520, Tempo, 364742
1, 203520, Marker_t, "Teil 4 Wiederholung"
1, 203520, Note_on_c, 0, 77, 54
1, 203520, Note_on_c, 0, 58, 45
1, 203583, Control_c, 0, 64, 127
1, 203640, Note_on_c, 0, 58, 0
1, 203640, Note_on_c, 0, 65, 39
1, 203760, Note_on_c, 0, 65, 0
1, 203760, Note_on_c, 0, 62, 45
1, 203880, Note_on_c, 0, 62, 0
1, 203880, Note_on_c, 0, 77, 0
1, 203880, Note_on_c, 0, 74, 47
1, 203880, Note_on_c, 0, 65, 38
1, 203940, Note_on_c, 0, 74, 0
1, 203940, Note_on_c, 0, 75, 47
1, 204000, Note_on_c, 0, 75, 0
1, 204000, Note_on_c, 0, 65, 0
1, 204000, Note_on_c, 0, 77, 55
1, 204000, Note_on_c, 0, 58, 45
1, 204012, Control_c, 0, 64, 0
1, 204055, Control_c, 0, 64, 127
1, 204120, Note_on_c, 0, 58, 0
1, 204120, Note_on_c, 0, 65, 41
1, 204240, Tempo, 410959
1, 204240, Note_on_c, 0, 65, 0
1, 204240, Note_on_c, 0, 77, 0
1, 204240, Note_on_c, 0, 89, 84
1, 204240, Note_on_c, 0, 62, 45
1, 204360, Note_on_c, 0, 62, 0
1, 204360, Note_on_c, 0, 65, 39
1, 204480, Tempo, 400000
1, 204480, Note_on_c, 0, 65, 0
1, 204480, Note_on_c, 0, 60, 45
1, 204497, Control_c, 0, 64, 0
1, 204532, Control_c, 0, 64, 127
1, 204600, Note_on_c, 0, 60, 0
1, 204600, Note_on_c, 0, 65, 39
1, 204720, Tempo, 379747
1, 204720, Note_on_c, 0, 65, 0
1, 204720, Note_on_c, 0, 89, 0
1, 204720, Note_on_c, 0, 69, 51
1, 204720, Note_on_c, 0, 63, 45
1, 204735, Control_c, 0, 64, 0
1, 204789, Control_c, 0, 64, 127
1, 204840, Note_on_c, 0, 63, 0
1, 204840, Note_on_c, 0, 65, 39
1, 204960, Note_on_c, 0, 65, 0
1, 204960, Note_on_c, 0, 69, 0
1, 204960, Note_on_c, 0, 69, 51
1, 204960, Note_on_c, 0, 60, 45
1, 205080, Note_on_c, 0, 60, 0
1, 205080, Note_on_c, 0, 65, 41
1, 205200, Note_on_c, 0, 65, 0
1, 205200, Note_on_c, 0, 69, 0
1, 205200, Note_on_c, 0, 69, 51
1, 205200, Note_on_c, 0, 63, 45
1, 205320, Note_on_c, 0, 63, 0
1, 205320, Note_on_c, 0, 65, 40
1, 205440, Tempo, 364742
1, 205440, Note_on_c, 0, 65, 0
1, 205440, Note_on_c, 0, 69, 0
1, 205440, Note_on_c, 0, 70, 54
1, 205440, Note_on_c, 0, 58, 45
1, 205440, Control_c, 0, 64, 0
1, 205536, Control_c, 0, 64, 127
1, 205560, Note_on_c, 0, 58, 0
1, 205560, Note_on_c, 0, 65, 40
1, 205680, Note_on_c, 0, 65, 0
1, 205680, Note_on_c, 0, 62, 45
1, 205800, Note_on_c, 0, 62, 0
1, 205800, Note_on_c, 0, 70, 0
1, 205800, Note_on_c, 0, 70, 47
1, 205800, Note_on_c, 0, 65, 40
1, 205860, Note_on_c, 0, 70, 0
1, 205860, Note_on_c, 0, 72, 47
1, 205920, Note_on_c, 0, 72, 0
1, 205920, Note_on_c, 0, 65, 0
1, 205920, Note_on_c, 0, 74, 55
1, 205920, Note_on_c, 0, 58, 45
1, 205936, Control_c, 0, 64, 0
1, 205987, Control_c, 0, 64, 127
1, 206040, Note_on_c, 0, 58, 0
1, 206040, Note_on_c, 0, 65, 40
1, 206160, Tempo, 425532
1, 206160, Note_on_c, 0, 65, 0
1, 206160, Note_on_c, 0, 74, 0
1, 206160, Note_on_c, 0, 86, 79
1, 206160, Note_on_c, 0, 62, 45
1, 206280, Note_on_c, 0, 62, 0
1, 206280, Note_on_c, 0, 65, 39
1, 206400, Tempo, 400000
1, 206400, Note_on_c, 0, 65, 0
1, 206400, Note_on_c, 0, 57, 45
1, 206416, Control_c, 0, 64, 0
1, 206474, Control_c, 0, 64, 127
1, 206520, Note_on_c, 0, 57, 0
1, 206520, Note_on_c, 0, 62, 39
1, 206640, Tempo, 385852
1, 206640, Note_on_c, 0, 62, 0
1, 206640, Note_on_c, 0, 86, 0
1, 206640, Note_on_c, 0, 66, 51
1, 206640, Note_on_c, 0, 60, 45
1, 206649, Control_c, 0, 64, 0
1, 206728, Control_c, 0, 64, 127
1, 206760, Note_on_c, 0, 60, 0
1, 206760, Note_on_c, 0, 62, 41
1, 206880, Note_on_c, 0, 62, 0
1, 206880, Note_on_c, 0, 66, 0
1, 206880, Note_on_c, 0, 66, 51
1, 206880, Note_on_c, 0, 57, 45
1, 207000, Note_on_c, 0, 57, 0
1, 207000, Note_on_c, 0, 62, 40
1, 207120, Note_on_c, 0, 62, 0
1, 207120, Note_on_c, 0, 66, 0
1, 207120, Note_on_c, 0, 66, 51
1, 207120, Note_on_c, 0, 60, 45
1, 207240, Note_on_c, 0, 60, 0
1, 207240, Note_on_c, 0, 62, 40
1, 207360, Tempo, 361446
1, 207360, Note_on_c, 0, 62, 0
1, 207360, Note_on_c, 0, 66, 0
1, 207360, Note_on_c, 0, 67, 59
1, 207360, Note_on_c, 0, 55, 45
1, 207373, Control_c, 0, 64, 0
1, 207463, Control_c, 0, 64, 127
1, 207480, Note_on_c, 0, 55, 0
1, 207480, Note_on_c, 0, 62, 40
1, 207600, Note_on_c, 0, 62, 0
1, 207600, Note_on_c, 0, 58, 45
1, 207720, Note_on_c, 0, 58, 0
1, 207720, Note_on_c, 0, 67, 0
1, 207720, Note_on_c, 0, 67, 47
1, 207720, Note_on_c, 0, 62, 39
1, 207780, Note_on_c, 0, 67, 0
1, 207780, Note_on_c, 0, 69, 47
1, 207840, Note_on_c, 0, 69, 0
1, 207840, Note_on_c, 0, 62, 0
1, 207840, Note_on_c, 0, 70, 59
1, 207840, Note_on_c, 0, 55, 45
1, 207861, Control_c, 0, 64, 0
1, 207918, Control_c, 0, 64, 127
1, 207960, Note_on_c, 0, 55, 0
1, 207960, Note_on_c, 0, 62, 40
1, 208080, Tempo, 412371
1, 208080, Note_on_c, 0, 62, 0
1, 208080, Note_on_c, 0, 70, 0
1, 208080, Note_on_c, 0, 82, 78
1, 208080, Note_on_c, 0, 58, 45
1, 208200, Note_on_c, 0, 58, 0
1, 208200, Note_on_c, 0, 62, 40
1, 208320, Tempo, 400000
1, 208320, Note_on_c, 0, 62, 0
1, 208320, Note_on_c, 0, 51, 45
1, 208335, Control_c, 0, 64, 0
1, 208377, Control_c, 0, 64, 127
1, 208440, Note_on_c, 0, 51, 0
1, 208440, Note_on_c, 0, 55, 39
1, 208560, Note_on_c, 0, 55, 0
1, 208560, Note_on_c, 0, 82, 0
1, 208560, Note_on_c, 0, 61, 55
1, 208560, Note_on_c, 0, 54, 45
1, 208571, Control_c, 0, 64, 0
1, 208634, Control_c, 0, 64, 127
1, 208680, Note_on_c, 0, 54, 0
1, 208680, Note_on_c, 0, 55, 39
1, 208800, Note_on_c, 0, 55, 0
1, 208800, Note_on_c, 0, 61, 0
1, 208800, Note_on_c, 0, 61, 55
1, 208800, Note_on_c, 0, 51, 45
1, 208920, Note_on_c, 0, 51, 0
1, 208920, Note_on_c, 0, 55, 39
1, 209040, Note_on_c, 0, 55, 0
1, 209040, Note_on_c, 0, 61, 0
1, 209040, Note_on_c, 0, 61, 55
1, 209040, Note_on_c, 0, 54, 45
1, 209160, Note_on_c, 0, 54, 0
1, 209160, Note_on_c, 0, 55, 39
1, 209280, Tempo, 361446
1, 209280, Note_on_c, 0, 55, 0
1, 209280, Note_on_c, 0, 61, 0
1, 209280, Note_on_c, 0, 62, 54
1, 209280, Note_on_c, 0, 50, 58
1, 209280, Control_c, 0, 64, 0
1, 209400, Note_on_c, 0, 62, 0
1, 209400, Note_on_c, 0, 64, 56
1, 209520, Note_on_c, 0, 64, 0
1, 209520, Note_on_c, 0, 66, 57
1, 209640, Note_on_c, 0, 66, 0
1, 209640, Note_on_c, 0, 67, 59
1, 209760, Tempo, 410959
1, 209760, Note_on_c, 0, 67, 0
1, 209760, Note_on_c, 0, 50, 0
1, 209760, Note_on_c, 0, 69, 60
1, 209880, Note_on_c, 0, 69, 0
1, 209880, Note_on_c, 0, 66, 57
1, 210000, Tempo, 422535
1, 210000, Note_on_c, 0, 66, 0
1, 210000, Note_on_c, 0, 67, 60
1, 210120, Note_on_c, 0, 67, 0
1, 210120, Note_on_c, 0, 64, 56
1, 210240, Note_on_c, 0, 64, 0
1, 210240, Note_on_c, 0, 62, 68
1, 210240, Note_on_c, 0, 38, 58
1, 210360, Note_on_c, 0, 38, 0
1, 210360, Note_on_c, 0, 50, 57
1, 210480, Note_on_c, 0, 50, 0
1, 210480, Note_on_c, 0, 36, 57
1, 210600, Note_on_c, 0, 36, 0
1, 210600, Note_on_c, 0, 48, 56
1, 210720, Note_on_c, 0, 48, 0
1, 210720, Note_on_c, 0, 62, 0
1, 210720, Note_on_c, 0, 35, 56
1, 210840, Note_on_c, 0, 35, 0
1, 210840, Note_on_c, 0, 47, 55
1, 210960, Note_on_c, 0, 47, 0
1, 210960, Note_on_c, 0, 33, 55
1, 211080, Note_on_c, 0, 33, 0
1, 211080, Note_on_c, 0, 45, 56
1, 211200, Tempo, 375000
1, 211200, Note_on_c, 0, 45, 0
1, 211200, Control_c, 0, 91, 127
1, 211200, Note_on_c, 0, 31, 65
1, 211200, Control_c, 0, 91, 127
1, 211201, Note_on_c, 0, 67, 60
1, 211288, Control_c, 0, 64, 127
1, 211560, Note_on_c, 0, 71, 46
1, 211561, Note_on_c, 0, 67, 0
1, 211571, Control_c, 0, 64, 0
1, 211620, Note_on_c, 0, 71, 0
1, 211620, Note_on_c, 0, 69, 47
1, 211680, Note_on_c, 0, 69, 0
1, 211680, Note_on_c, 0, 31, 0
1, 211680, Note_on_c, 0, 67, 56
1, 211680, Note_on_c, 0, 55, 30
1, 211680, Note_on_c, 0, 59, 36
1, 211800, Note_on_c, 0, 67, 0
1, 211800, Note_on_c, 0, 62, 48
1, 211920, Note_on_c, 0, 62, 0
1, 211920, Note_on_c, 0, 59, 0
1, 211920, Note_on_c, 0, 55, 0
1, 211920, Note_on_c, 0, 71, 48
1, 211920, Note_on_c, 0, 55, 30
1, 211920, Note_on_c, 0, 59, 36
1, 212040, Note_on_c, 0, 71, 0
1, 212040, Note_on_c, 0, 69, 48
1, 212160, Note_on_c, 0, 69, 0
1, 212160, Note_on_c, 0, 59, 0
1, 212160, Note_on_c, 0, 55, 0
1, 212160, Note_on_c, 0, 67, 56
1, 212160, Note_on_c, 0, 55, 34
1, 212160, Note_on_c, 0, 59, 40
1, 212280, Note_on_c, 0, 67, 0
1, 212280, Note_on_c, 0, 62, 48
1, 212400, Tempo, 368098
1, 212400, Note_on_c, 0, 62, 0
1, 212400, Note_on_c, 0, 59, 0
1, 212400, Note_on_c, 0, 55, 0
1, 212400, Note_on_c, 0, 67, 48
1, 212400, Note_on_c, 0, 55, 32
1, 212400, Note_on_c, 0, 59, 38
1, 212520, Note_on_c, 0, 67, 0
1, 212520, Note_on_c, 0, 71, 48
1, 212640, Note_on_c, 0, 71, 0
1, 212640, Note_on_c, 0, 59, 0
1, 212640, Note_on_c, 0, 55, 0
1, 212640, Note_on_c, 0, 74, 56
1, 212640, Note_on_c, 0, 55, 32
1, 212640, Note_on_c, 0, 59, 38
1, 212760, Note_on_c, 0, 74, 0
1, 212760, Note_on_c, 0, 71, 52
1, 212880, Note_on_c, 0, 71, 0
1, 212880, Note_on_c, 0, 59, 0
1, 212880, Note_on_c, 0, 55, 0
1, 212880, Note_on_c, 0, 69, 52
1, 212880, Note_on_c, 0, 55, 32
1, 212880, Note_on_c, 0, 59, 38
1, 213000, Tempo, 382166
1, 213000, Note_on_c, 0, 69, 0
1, 213000, Note_on_c, 0, 67, 52
1, 213120, Tempo, 368098
1, 213120, Note_on_c, 0, 67, 0
1, 213120, Note_on_c, 0, 59, 0
1, 213120, Note_on_c, 0, 55, 0
1, 213120, Note_on_c, 0, 71, 59
1, 213120, Note_on_c, 0, 55, 37
1, 213120, Note_on_c, 0, 60, 44
1, 213240, Note_on_c, 0, 71, 0
1, 213240, Note_on_c, 0, 69, 52
1, 213360, Note_on_c, 0, 69, 0
1, 213360, Note_on_c, 0, 67, 52
1, 213480, Note_on_c, 0, 67, 0
1, 213480, Note_on_c, 0, 69, 52
1, 213600, Tempo, 384615
1, 213600, Note_on_c, 0, 69, 0
1, 213600, Note_on_c, 0, 60, 0
1, 213600, Note_on_c, 0, 55, 0
1, 213600, Note_on_c, 0, 67, 54
1, 213600, Note_on_c, 0, 55, 34
1, 213600, Note_on_c, 0, 59, 41
1, 213840, Tempo, 365854
1, 213840, Note_on_c, 0, 59, 0
1, 213840, Note_on_c, 0, 55, 0
1, 213840, Note_on_c, 0, 67, 0
1, 213840, Note_on_c, 0, 88, 46
1, 213960, Note_on_c, 0, 88, 0
1, 213960, Note_on_c, 0, 76, 44
1, 214080, Note_on_c, 0, 76, 0
1, 214080, Note_on_c, 0, 88, 47
1, 214080, Note_on_c, 0, 74, 41
1, 214080, Note_on_c, 0, 68, 41
1, 214120, Tempo, 366972
1, 214200, Note_on_c, 0, 68, 0
1, 214200, Note_on_c, 0, 74, 0
1, 214200, Note_on_c, 0, 88, 0
1, 214200, Note_on_c, 0, 76, 44
1, 214320, Note_on_c, 0, 76, 0
1, 214320, Note_on_c, 0, 88, 49
1, 214320, Note_on_c, 0, 74, 38
1, 214320, Note_on_c, 0, 68, 38
1, 214380, Tempo, 368098
1, 214440, Note_on_c, 0, 68, 0
1, 214440, Note_on_c, 0, 74, 0
1, 214440, Note_on_c, 0, 88, 0
1, 214440, Note_on_c, 0, 76, 45
1, 214560, Note_on_c, 0, 76, 0
1, 214560, Note_on_c, 0, 88, 51
1, 214560, Note_on_c, 0, 74, 44
1, 214560, Note_on_c, 0, 68, 44
1, 214640, Tempo, 369231
1, 214680, Note_on_c, 0, 68, 0
1, 214680, Note_on_c, 0, 74, 0
1, 214680, Note_on_c, 0, 88, 0
1, 214680, Note_on_c, 0, 76, 46
1, 214800, Note_on_c, 0, 76, 0
1, 214800, Note_on_c, 0, 88, 52
1, 214800, Note_on_c, 0, 68, 41
1, 214800, Note_on_c, 0, 74, 41
1, 214900, Tempo, 370370
1, 214920, Tempo, 373832
1, 214920, Note_on_c, 0, 74, 0
1, 214920, Note_on_c, 0, 68, 0
1, 214920, Note_on_c, 0, 88, 0
1, 214920, Note_on_c, 0, 76, 49
1, 215040, Tempo, 365854
1, 215040, Note_on_c, 0, 76, 0
1, 215040, Note_on_c, 0, 88, 54
1, 215040, Note_on_c, 0, 69, 50
1, 215040, Note_on_c, 0, 72, 50
1, 215340, Note_on_c, 0, 88, 0
1, 215340, Note_on_c, 0, 86, 48
1, 215400, Note_on_c, 0, 86, 0
1, 215400, Note_on_c, 0, 84, 48
1, 215460, Note_on_c, 0, 84, 0
1, 215460, Note_on_c, 0, 83, 47
1, 215520, Tempo, 380952
1, 215520, Note_on_c, 0, 83, 0
1, 215520, Note_on_c, 0, 72, 0
1, 215520, Note_on_c, 0, 69, 0
1, 215520, Note_on_c, 0, 81, 47
1, 215760, Tempo, 364742
1, 215760, Note_on_c, 0, 81, 0
1, 215760, Note_on_c, 0, 86, 46
1, 215880, Note_on_c, 0, 86, 0
1, 215880, Note_on_c, 0, 74, 44
1, 216000, Note_on_c, 0, 74, 0
1, 216000, Note_on_c, 0, 86, 47
1, 216000, Note_on_c, 0, 72, 41
1, 216000, Note_on_c, 0, 66, 41
1, 216040, Tempo, 365854
1, 216120, Note_on_c, 0, 66, 0
1, 216120, Note_on_c, 0, 72, 0
1, 216120, Note_on_c, 0, 86, 0
1, 216120, Note_on_c, 0, 74, 44
1, 216240, Note_on_c, 0, 74, 0
1, 216240, Note_on_c, 0, 86, 49
1, 216240, Note_on_c, 0, 72, 38
1, 216240, Note_on_c, 0, 66, 38
1, 216300, Tempo, 366972
1, 216360, Note_on_c, 0, 66, 0
1, 216360, Note_on_c, 0, 72, 0
1, 216360, Note_on_c, 0, 86, 0
1, 216360, Note_on_c, 0, 74, 45
1, 216480, Note_on_c, 0, 74, 0
1, 216480, Note_on_c, 0, 86, 51
1, 216480, Note_on_c, 0, 72, 44
1, 216480, Note_on_c, 0, 66, 44
1, 216560, Tempo, 368098
1, 216600, Note_on_c, 0, 66, 0
1, 216600, Note_on_c, 0, 72, 0
1, 216600, Note_on_c, 0, 86, 0
1, 216600, Note_on_c, 0, 74, 46
1, 216720, Note_on_c, 0, 74, 0
1, 216720, Note_on_c, 0, 86, 52
1, 216720, Note_on_c, 0, 66, 41
1, 216720, Note_on_c, 0, 72, 41
1, 216820, Tempo, 369231
1, 216840, Tempo, 373832
1, 216840, Note_on_c, 0, 72, 0
1, 216840, Note_on_c, 0, 66, 0
1, 216840, Note_on_c, 0, 86, 0
1, 216840, Note_on_c, 0, 74, 49
1, 216960, Tempo, 365854
1, 216960, Note_on_c, 0, 74, 0
1, 216960, Note_on_c, 0, 86, 54
1, 216960, Note_on_c, 0, 67, 50
1, 216960, Note_on_c, 0, 71, 50
1, 217260, Note_on_c, 0, 86, 0
1, 217260, Note_on_c, 0, 84, 48
1, 217320, Note_on_c, 0, 84, 0
1, 217320, Note_on_c, 0, 83, 48
1, 217380, Note_on_c, 0, 83, 0
1, 217380, Note_on_c, 0, 81, 47
1, 217440, Note_on_c, 0, 81, 0
1, 217440, Note_on_c, 0, 71, 0
1, 217440, Note_on_c, 0, 67, 0
1, 217440, Note_on_c, 0, 79, 47
1, 217680, Note_on_c, 0, 79, 0
1, 217920, Tempo, 274600
1, 219600, Tempo, 360360
1, 219600, Note_on_c, 0, 86, 39
1, 219660, Note_on_c, 0, 86, 0
1, 219660, Note_on_c, 0, 84, 39
1, 219720, Note_on_c, 0, 84, 0
1, 219720, Note_on_c, 0, 83, 39
1, 219780, Note_on_c, 0, 83, 0
1, 219780, Note_on_c, 0, 81, 39
1, 219840, Note_on_c, 0, 81, 0
1, 219840, Note_on_c, 0, 79, 47
1, 219960, Note_on_c, 0, 79, 0
1, 220080, Note_on_c, 0, 83, 39
1, 220140, Note_on_c, 0, 83, 0
1, 220140, Note_on_c, 0, 81, 39
1, 220200, Note_on_c, 0, 81, 0
1, 220200, Note_on_c, 0, 79, 39
1, 220260, Note_on_c, 0, 79, 0
1, 220260, Note_on_c, 0, 78, 39
1, 220320, Note_on_c, 0, 78, 0
1, 220320, Note_on_c, 0, 76, 50
1, 220440, Note_on_c, 0, 76, 0
1, 220560, Note_on_c, 0, 79, 38
1, 220620, Note_on_c, 0, 79, 0
1, 220620, Note_on_c, 0, 78, 38
1, 220680, Note_on_c, 0, 78, 0
1, 220680, Note_on_c, 0, 76, 38
1, 220740, Note_on_c, 0, 76, 0
1, 220740, Note_on_c, 0, 74, 38
1, 220800, Note_on_c, 0, 74, 0
1, 220800, Note_on_c, 0, 72, 50
1, 220800, Note_on_c, 0, 64, 34
1, 220800, Note_on_c, 0, 67, 34
1, 220883, Control_c, 0, 64, 127
1, 221280, Tempo, 365854
1, 221280, Note_on_c, 0, 67, 0
1, 221280, Note_on_c, 0, 64, 0
1, 221280, Note_on_c, 0, 72, 0
1, 221286, Control_c, 0, 64, 0
1, 221520, Note_on_c, 0, 79, 52
1, 221580, Note_on_c, 0, 79, 0
1, 221580, Note_on_c, 0, 77, 52
1, 221640, Note_on_c, 0, 77, 0
1, 221640, Note_on_c, 0, 75, 52
1, 221700, Note_on_c, 0, 75, 0
1, 221700, Note_on_c, 0, 74, 52
1, 221760, Note_on_c, 0, 74, 0
1, 221760, Note_on_c, 0, 72, 63
1, 221760, Note_on_c, 0, 63, 45
1, 221832, Control_c, 0, 64, 127
1, 221880, Note_on_c, 0, 63, 0
1, 221880, Note_on_c, 0, 67, 38
1, 222000, Note_on_c, 0, 67, 0
1, 222000, Note_on_c, 0, 72, 0
1, 222000, Note_on_c, 0, 83, 63
1, 222000, Note_on_c, 0, 63, 45
1, 222012, Control_c, 0, 64, 0
1, 222063, Control_c, 0, 64, 127
1, 222120, Note_on_c, 0, 63, 0
1, 222120, Note_on_c, 0, 67, 38
1, 222240, Note_on_c, 0, 67, 0
1, 222240, Note_on_c, 0, 83, 0
1, 222240, Note_on_c, 0, 84, 71
1, 222240, Note_on_c, 0, 63, 45
1, 222255, Control_c, 0, 64, 0
1, 222297, Control_c, 0, 64, 127
1, 222360, Note_on_c, 0, 63, 0
1, 222360, Note_on_c, 0, 67, 39
1, 222480, Tempo, 387097
1, 222480, Note_on_c, 0, 67, 0
1, 222480, Note_on_c, 0, 84, 0
1, 222480, Note_on_c, 0, 84, 66
1, 222480, Note_on_c, 0, 63, 45
1, 222600, Note_on_c, 0, 63, 0
1, 222600, Note_on_c, 0, 67, 39
1, 222720, Tempo, 369231
1, 222720, Note_on_c, 0, 67, 0
1, 222720, Note_on_c, 0, 84, 0
1, 222720, Note_on_c, 0, 84, 64
1, 222720, Note_on_c, 0, 62, 50
1, 222720, Note_on_c, 0, 66, 50
1, 222720, Control_c, 0, 64, 0
1, 222840, Note_on_c, 0, 84, 0
1, 222840, Note_on_c, 0, 83, 57
1, 222960, Note_on_c, 0, 83, 0
1, 222960, Note_on_c, 0, 84, 57
1, 223080, Tempo, 376176
1, 223080, Note_on_c, 0, 84, 0
1, 223080, Note_on_c, 0, 81, 57
1, 223200, Tempo, 369231
1, 223200, Note_on_c, 0, 81, 0
1, 223200, Note_on_c, 0, 66, 0
1, 223200, Note_on_c, 0, 62, 0
1, 223200, Note_on_c, 0, 83, 64
1, 223200, Note_on_c, 0, 67, 46
1, 223320, Note_on_c, 0, 83, 0
1, 223320, Note_on_c, 0, 81, 57
1, 223440, Note_on_c, 0, 81, 0
1, 223440, Note_on_c, 0, 83, 57
1, 223560, Tempo, 376176
1, 223560, Note_on_c, 0, 83, 0
1, 223560, Note_on_c, 0, 79, 57
1, 223680, Tempo, 370370
1, 223680, Note_on_c, 0, 79, 0
1, 223680, Note_on_c, 0, 67, 0
1, 223680, Note_on_c, 0, 81, 63
1, 223680, Note_on_c, 0, 60, 49
1, 223680, Note_on_c, 0, 72, 49
1, 223800, Note_on_c, 0, 81, 0
1, 223800, Note_on_c, 0, 80, 57
1, 223920, Note_on_c, 0, 80, 0
1, 223920, Note_on_c, 0, 81, 57
1, 224040, Tempo, 379747
1, 224040, Note_on_c, 0, 81, 0
1, 224040, Note_on_c, 0, 76, 57
1, 224160, Tempo, 370370
1, 224160, Note_on_c, 0, 76, 0
1, 224160, Note_on_c, 0, 72, 0
1, 224160, Note_on_c, 0, 60, 0
1, 224160, Note_on_c, 0, 79, 63
1, 224160, Note_on_c, 0, 62, 47
1, 224160, Note_on_c, 0, 72, 47
1, 224280, Note_on_c, 0, 79, 0
1, 224280, Note_on_c, 0, 78, 57
1, 224400, Note_on_c, 0, 78, 0
1, 224400, Note_on_c, 0, 76, 57
1, 224520, Tempo, 377358
1, 224520, Note_on_c, 0, 76, 0
1, 224520, Note_on_c, 0, 74, 57
1, 224640, Tempo, 372671
1, 224640, Note_on_c, 0, 74, 0
1, 224640, Note_on_c, 0, 72, 0
1, 224640, Note_on_c, 0, 62, 0
1, 224640, Note_on_c, 0, 79, 65
1, 224640, Note_on_c, 0, 67, 39
1, 224640, Note_on_c, 0, 71, 47
1, 224739, Control_c, 0, 64, 127
1, 224760, Note_on_c, 0, 79, 0
1, 224760, Note_on_c, 0, 74, 56
1, 224860, Tempo, 371517
1, 224880, Note_on_c, 0, 74, 0
1, 224880, Note_on_c, 0, 71, 0
1, 224880, Note_on_c, 0, 67, 0
1, 224880, Note_on_c, 0, 79, 58
1, 224880, Note_on_c, 0, 67, 34
1, 224880, Note_on_c, 0, 71, 40
1, 225000, Note_on_c, 0, 79, 0
1, 225000, Note_on_c, 0, 83, 61
1, 225060, Tempo, 370370
1, 225120, Note_on_c, 0, 83, 0
1, 225120, Note_on_c, 0, 71, 0
1, 225120, Note_on_c, 0, 67, 0
1, 225120, Note_on_c, 0, 86, 68
1, 225120, Note_on_c, 0, 67, 36
1, 225120, Note_on_c, 0, 71, 43
1, 225240, Note_on_c, 0, 86, 0
1, 225240, Note_on_c, 0, 83, 62
1, 225260, Tempo, 369231
1, 225360, Note_on_c, 0, 83, 0
1, 225360, Note_on_c, 0, 71, 0
1, 225360, Note_on_c, 0, 67, 0
1, 225360, Note_on_c, 0, 81, 60
1, 225360, Note_on_c, 0, 67, 34
1, 225360, Note_on_c, 0, 71, 40
1, 225460, Tempo, 368098
1, 225480, Tempo, 383387
1, 225480, Note_on_c, 0, 81, 0
1, 225480, Note_on_c, 0, 79, 57
1, 225600, Tempo, 372671
1, 225600, Note_on_c, 0, 79, 0
1, 225600, Note_on_c, 0, 71, 0
1, 225600, Note_on_c, 0, 67, 0
1, 225600, Note_on_c, 0, 78, 64
1, 225600, Note_on_c, 0, 67, 36
1, 225600, Note_on_c, 0, 72, 43
1, 225610, Control_c, 0, 64, 0
1, 225720, Note_on_c, 0, 78, 0
1, 225720, Note_on_c, 0, 74, 56
1, 225720, Control_c, 0, 64, 127
1, 225840, Note_on_c, 0, 74, 0
1, 225840, Note_on_c, 0, 72, 0
1, 225840, Note_on_c, 0, 67, 0
1, 225840, Note_on_c, 0, 78, 56
1, 225840, Note_on_c, 0, 67, 31
1, 225840, Note_on_c, 0, 72, 37
1, 225960, Note_on_c, 0, 78, 0
1, 225960, Note_on_c, 0, 81, 56
1, 226080, Note_on_c, 0, 81, 0
1, 226080, Note_on_c, 0, 72, 0
1, 226080, Note_on_c, 0, 67, 0
1, 226080, Note_on_c, 0, 84, 64
1, 226080, Note_on_c, 0, 67, 36
1, 226080, Note_on_c, 0, 72, 43
1, 226200, Note_on_c, 0, 84, 0
1, 226200, Note_on_c, 0, 81, 57
1, 226320, Note_on_c, 0, 81, 0
1, 226320, Note_on_c, 0, 72, 0
1, 226320, Note_on_c, 0, 67, 0
1, 226320, Note_on_c, 0, 79, 57
1, 226320, Note_on_c, 0, 67, 31
1, 226320, Note_on_c, 0, 72, 37
1, 226420, Tempo, 366972
1, 226440, Tempo, 378549
1, 226440, Note_on_c, 0, 79, 0
1, 226440, Note_on_c, 0, 78, 57
1, 226560, Tempo, 372671
1, 226560, Note_on_c, 0, 78, 0
1, 226560, Note_on_c, 0, 72, 0
1, 226560, Note_on_c, 0, 67, 0
1, 226560, Note_on_c, 0, 79, 65
1, 226560, Note_on_c, 0, 67, 39
1, 226560, Note_on_c, 0, 71, 47
1, 226572, Control_c, 0, 64, 0
1, 226680, Note_on_c, 0, 79, 0
1, 226680, Note_on_c, 0, 74, 56
1, 226708, Control_c, 0, 64, 127
1, 226780, Tempo, 371517
1, 226800, Note_on_c, 0, 74, 0
1, 226800, Note_on_c, 0, 71, 0
1, 226800, Note_on_c, 0, 67, 0
1, 226800, Note_on_c, 0, 79, 58
1, 226800, Note_on_c, 0, 67, 34
1, 226800, Note_on_c, 0, 71, 40
1, 226920, Note_on_c, 0, 79, 0
1, 226920, Note_on_c, 0, 83, 61
1, 226980, Tempo, 370370
1, 227040, Note_on_c, 0, 83, 0
1, 227040, Note_on_c, 0, 71, 0
1, 227040, Note_on_c, 0, 67, 0
1, 227040, Note_on_c, 0, 86, 68
1, 227040, Note_on_c, 0, 67, 36
1, 227040, Note_on_c, 0, 71, 43
1, 227160, Note_on_c, 0, 86, 0
1, 227160, Note_on_c, 0, 83, 62
1, 227180, Tempo, 369231
1, 227280, Note_on_c, 0, 83, 0
1, 227280, Note_on_c, 0, 71, 0
1, 227280, Note_on_c, 0, 67, 0
1, 227280, Note_on_c, 0, 81, 60
1, 227280, Note_on_c, 0, 67, 34
1, 227280, Note_on_c, 0, 71, 40
1, 227380, Tempo, 368098
1, 227400, Tempo, 383387
1, 227400, Note_on_c, 0, 81, 0
1, 227400, Note_on_c, 0, 79, 57
1, 227520, Tempo, 372671
1, 227520, Note_on_c, 0, 79, 0
1, 227520, Note_on_c, 0, 71, 0
1, 227520, Note_on_c, 0, 67, 0
1, 227520, Note_on_c, 0, 78, 64
1, 227520, Note_on_c, 0, 67, 36
1, 227520, Note_on_c, 0, 72, 43
1, 227538, Control_c, 0, 64, 0
1, 227640, Note_on_c, 0, 78, 0
1, 227640, Note_on_c, 0, 74, 56
1, 227683, Control_c, 0, 64, 127
1, 227760, Note_on_c, 0, 74, 0
1, 227760, Note_on_c, 0, 72, 0
1, 227760, Note_on_c, 0, 67, 0
1, 227760, Note_on_c, 0, 78, 56
1, 227760, Note_on_c, 0, 67, 31
1, 227760, Note_on_c, 0, 72, 37
1, 227880, Note_on_c, 0, 78, 0
1, 227880, Note_on_c, 0, 81, 56
1, 228000, Note_on_c, 0, 81, 0
1, 228000, Note_on_c, 0, 72, 0
1, 228000, Note_on_c, 0, 67, 0
1, 228000, Note_on_c, 0, 84, 64
1, 228000, Note_on_c, 0, 67, 36
1, 228000, Note_on_c, 0, 72, 43
1, 228120, Note_on_c, 0, 84, 0
1, 228120, Note_on_c, 0, 81, 57
1, 228240, Note_on_c, 0, 81, 0
1, 228240, Note_on_c, 0, 72, 0
1, 228240, Note_on_c, 0, 67, 0
1, 228240, Note_on_c, 0, 79, 57
1, 228240, Note_on_c, 0, 67, 31
1, 228240, Note_on_c, 0, 72, 37
1, 228340, Tempo, 366972
1, 228360, Tempo, 378549
1, 228360, Note_on_c, 0, 79, 0
1, 228360, Note_on_c, 0, 78, 57
1, 228461, Tempo, 380952
1, 228480, Note_on_c, 0, 78, 0
1, 228480, Note_on_c, 0, 72, 0
1, 228480, Note_on_c, 0, 67, 0
1, 228480, Note_on_c, 0, 79, 65
1, 228480, Note_on_c, 0, 67, 39
1, 228480, Note_on_c, 0, 71, 47
1, 228501, Control_c, 0, 64, 0
1, 228576, Tempo, 382166
1, 228586, Control_c, 0, 64, 127
1, 228600, Note_on_c, 0, 79, 0
1, 228600, Note_on_c, 0, 83, 59
1, 228691, Tempo, 383387
1, 228720, Note_on_c, 0, 83, 0
1, 228720, Note_on_c, 0, 79, 59
1, 228806, Tempo, 384615
1, 228840, Note_on_c, 0, 79, 0
1, 228840, Note_on_c, 0, 74, 59
1, 228922, Tempo, 385852
1, 228960, Note_on_c, 0, 74, 0
1, 228960, Note_on_c, 0, 71, 0
1, 228960, Note_on_c, 0, 67, 0
1, 228960, Note_on_c, 0, 71, 65
1, 228979, Tempo, 383387
1, 229018, Tempo, 384615
1, 229037, Tempo, 385852
1, 229056, Tempo, 387097
1, 229080, Note_on_c, 0, 71, 0
1, 229080, Note_on_c, 0, 67, 56
1, 229094, Tempo, 388350
1, 229114, Tempo, 389610
1, 229133, Tempo, 390879
1, 229171, Tempo, 392157
1, 229190, Tempo, 393443
1, 229200, Note_on_c, 0, 67, 0
1, 229200, Note_on_c, 0, 62, 55
1, 229210, Tempo, 394737
1, 229229, Tempo, 392157
1, 229248, Tempo, 394737
1, 229267, Tempo, 397351
1, 229286, Tempo, 400000
1, 229306, Tempo, 404040
1, 229320, Note_on_c, 0, 62, 0
1, 229320, Note_on_c, 0, 59, 54
1, 229325, Tempo, 406780
1, 229344, Tempo, 409556
1, 229363, Tempo, 412371
1, 229382, Tempo, 416667
1, 229402, Tempo, 419580
1, 229421, Tempo, 422535
1, 229440, Tempo, 425532
1, 229440, Note_on_c, 0, 59, 0
1, 229440, Note_on_c, 0, 55, 60
1, 229459, Tempo, 430108
1, 229638, Control_c, 0, 64, 0
1, 229680, Marker_t, "Fine"
1, 229680, Note_on_c, 0, 55, 0
1, 229680, End_track
0, 0, End_of_file
