0, 0, Header, 0, 1, 480
1, 0, Start_track
1, 0, Title_t, "Etude No. 1 aus Grandes Etudes de Paganini"
1, 0, Copyright_t, "Copyright © 2004 von Bernd Krüger. "
1, 0, Text_t, "Franz Liszt"
1, 0, Text_t, "Andante - Non troppo lento"
1, 0, Text_t, "Fertiggestellt am  13.11.2004\012"
1, 0, Text_t, "Update am 27.1.2011\012"
1, 0, Text_t, "Update am 3.3.2014\012"
1, 0, Text_t, "Dauer: 4:47 Minuten\012"
1, 0, Time_signature, 6, 2, 24, 8
1, 0, Key_signature, -2, "major"
1, 0, Tempo, 1379310
1, 0, Program_c, 0, 0
1, 0, Control_c, 0, 7, 100
1, 0, Control_c, 0, 10, 64
1, 0, Control_c, 0, 91, 127
1, 0, Text_t, "bdca426d104a26ac9dcb070447587523"
1, 0, Program_c, 0, 0
1, 0, Control_c, 0, 7, 100
1, 0, Control_c, 0, 10, 64
1, 0, Program_c, 0, 0
1, 0, Control_c, 0, 7, 100
1, 0, Control_c, 0, 10, 64
1, 0, Note_on_c, 0, 31, 80
1, 0, Program_c, 0, 0
1, 0, Control_c, 0, 7, 100
1, 0, Control_c, 0, 10, 64
1, 1, Marker_t, "Preludio"
1, 40, Control_c, 0, 64, 127
1, 480, Tempo, 1379310
1, 480, Note_on_c, 0, 31, 0
1, 480, Note_on_c, 0, 34, 55
1, 540, Note_on_c, 0, 34, 0
1, 540, Note_on_c, 0, 38, 58
1, 560, Tempo, 1363636
1, 600, Tempo, 1348315
1, 600, Note_on_c, 0, 38, 0
1, 600, Note_on_c, 0, 43, 61
1, 640, Tempo, 1212121
1, 652, Tempo, 1200000
1, 660, Note_on_c, 0, 43, 0
1, 660, Note_on_c, 0, 46, 63
1, 664, Tempo, 1176471
1, 680, Tempo, 1165049
1, 692, Tempo, 1142857
1, 704, Tempo, 1121495
1, 720, Tempo, 1250000
1, 720, Note_on_c, 0, 46, 0
1, 720, Note_on_c, 0, 50, 66
1, 732, Tempo, 1090909
1, 772, Tempo, 1081081
1, 780, Note_on_c, 0, 50, 0
1, 780, Note_on_c, 0, 55, 68
1, 800, Tempo, 1071429
1, 824, Tempo, 1061947
1, 840, Note_on_c, 0, 55, 0
1, 840, Note_on_c, 0, 58, 68
1, 852, Tempo, 1052632
1, 880, Tempo, 1043478
1, 900, Note_on_c, 0, 58, 0
1, 900, Note_on_c, 0, 62, 71
1, 904, Tempo, 1034483
1, 932, Tempo, 1025641
1, 960, Tempo, 1428571
1, 960, Note_on_c, 0, 62, 0
1, 960, Note_on_c, 0, 67, 77
1, 973, Control_c, 0, 64, 0
1, 1131, Control_c, 0, 64, 127
1, 1424, Tempo, 1428571
1, 1452, Tempo, 1411765
1, 1464, Tempo, 1395349
1, 1480, Tempo, 1379310
1, 1492, Tempo, 1363636
1, 1500, Note_on_c, 0, 67, 0
1, 1500, Note_on_c, 0, 66, 60
1, 1504, Tempo, 1348315
1, 1520, Tempo, 1333333
1, 1532, Tempo, 1318681
1, 1544, Tempo, 1304348
1, 1560, Tempo, 1290323
1, 1560, Note_on_c, 0, 66, 0
1, 1560, Note_on_c, 0, 63, 61
1, 1572, Tempo, 1276596
1, 1584, Tempo, 1263158
1, 1600, Tempo, 1250000
1, 1612, Tempo, 1237113
1, 1620, Note_on_c, 0, 63, 0
1, 1620, Note_on_c, 0, 62, 62
1, 1624, Tempo, 1224490
1, 1640, Tempo, 1212121
1, 1652, Tempo, 1200000
1, 1664, Tempo, 1188119
1, 1680, Tempo, 1176471
1, 1680, Note_on_c, 0, 62, 0
1, 1680, Note_on_c, 0, 60, 62
1, 1692, Tempo, 1165049
1, 1704, Tempo, 1153846
1, 1720, Tempo, 1142857
1, 1732, Tempo, 1132075
1, 1740, Note_on_c, 0, 60, 0
1, 1740, Note_on_c, 0, 58, 63
1, 1744, Tempo, 1121495
1, 1760, Tempo, 1111111
1, 1772, Tempo, 1100917
1, 1784, Tempo, 1090909
1, 1800, Tempo, 1081081
1, 1800, Note_on_c, 0, 58, 0
1, 1800, Note_on_c, 0, 57, 63
1, 1812, Tempo, 1071429
1, 1824, Tempo, 1061947
1, 1840, Tempo, 1052632
1, 1852, Tempo, 1043478
1, 1860, Note_on_c, 0, 57, 0
1, 1860, Note_on_c, 0, 55, 63
1, 1864, Tempo, 1034483
1, 1880, Tempo, 1025641
1, 1892, Tempo, 1016949
1, 1904, Tempo, 1008403
1, 1920, Tempo, 944882
1, 1920, Note_on_c, 0, 55, 0
1, 1920, Note_on_c, 0, 54, 64
1, 1944, Tempo, 937500
1, 1960, Tempo, 930233
1, 1972, Tempo, 923077
1, 1980, Note_on_c, 0, 54, 0
1, 1980, Note_on_c, 0, 51, 63
1, 1984, Tempo, 916031
1, 2000, Tempo, 909091
1, 2012, Tempo, 902256
1, 2024, Tempo, 895522
1, 2040, Tempo, 888889
1, 2040, Note_on_c, 0, 51, 0
1, 2040, Note_on_c, 0, 50, 63
1, 2052, Tempo, 882353
1, 2080, Tempo, 875912
1, 2092, Tempo, 869565
1, 2100, Note_on_c, 0, 50, 0
1, 2100, Note_on_c, 0, 48, 64
1, 2104, Tempo, 863309
1, 2120, Tempo, 857143
1, 2132, Tempo, 851064
1, 2144, Tempo, 845070
1, 2160, Tempo, 839161
1, 2160, Note_on_c, 0, 48, 0
1, 2160, Note_on_c, 0, 46, 64
1, 2172, Tempo, 833333
1, 2184, Tempo, 827586
1, 2200, Tempo, 821918
1, 2220, Note_on_c, 0, 46, 0
1, 2220, Note_on_c, 0, 45, 65
1, 2224, Tempo, 816327
1, 2240, Tempo, 810811
1, 2252, Tempo, 805369
1, 2264, Tempo, 800000
1, 2280, Tempo, 794702
1, 2280, Note_on_c, 0, 45, 0
1, 2280, Note_on_c, 0, 43, 66
1, 2292, Tempo, 789474
1, 2304, Tempo, 784314
1, 2320, Tempo, 779221
1, 2332, Tempo, 774194
1, 2340, Note_on_c, 0, 43, 0
1, 2340, Note_on_c, 0, 42, 67
1, 2344, Tempo, 769231
1, 2400, Note_on_c, 0, 42, 0
1, 2400, Note_on_c, 0, 39, 68
1, 2460, Note_on_c, 0, 39, 0
1, 2460, Note_on_c, 0, 38, 69
1, 2480, Tempo, 764331
1, 2520, Note_on_c, 0, 38, 0
1, 2520, Note_on_c, 0, 36, 70
1, 2580, Note_on_c, 0, 36, 0
1, 2580, Note_on_c, 0, 34, 70
1, 2612, Tempo, 759494
1, 2640, Note_on_c, 0, 34, 0
1, 2640, Note_on_c, 0, 33, 71
1, 2700, Note_on_c, 0, 33, 0
1, 2700, Note_on_c, 0, 46, 79
1, 2700, Note_on_c, 0, 31, 74
1, 2717, Control_c, 0, 64, 0
1, 2744, Tempo, 754717
1, 2800, Control_c, 0, 64, 127
1, 2880, Time_signature, 8, 2, 24, 8
1, 2880, Tempo, 1290323
1, 3344, Tempo, 1016949
1, 3360, Tempo, 1237113
1, 3372, Tempo, 975610
1, 3384, Tempo, 960000
1, 3400, Tempo, 937500
1, 3412, Tempo, 923077
1, 3424, Tempo, 902256
1, 3440, Tempo, 888889
1, 3440, Note_on_c, 0, 31, 0
1, 3440, Note_on_c, 0, 46, 0
1, 3440, Note_on_c, 0, 50, 60
1, 3440, Note_on_c, 0, 34, 54
1, 3452, Tempo, 869565
1, 3464, Tempo, 851064
1, 3480, Tempo, 839161
1, 3492, Tempo, 827586
1, 3504, Tempo, 816327
1, 3520, Tempo, 805369
1, 3520, Note_on_c, 0, 34, 0
1, 3520, Note_on_c, 0, 50, 0
1, 3520, Note_on_c, 0, 55, 62
1, 3520, Note_on_c, 0, 38, 55
1, 3532, Tempo, 794702
1, 3544, Tempo, 784314
1, 3560, Tempo, 769231
1, 3572, Tempo, 759494
1, 3584, Tempo, 750000
1, 3600, Tempo, 740741
1, 3600, Note_on_c, 0, 38, 0
1, 3600, Note_on_c, 0, 55, 0
1, 3600, Note_on_c, 0, 58, 63
1, 3600, Note_on_c, 0, 43, 56
1, 3612, Tempo, 731707
1, 3624, Tempo, 722892
1, 3640, Tempo, 710059
1, 3652, Tempo, 701754
1, 3664, Tempo, 693642
1, 3680, Tempo, 685714
1, 3680, Note_on_c, 0, 43, 0
1, 3680, Note_on_c, 0, 58, 0
1, 3680, Note_on_c, 0, 62, 64
1, 3680, Note_on_c, 0, 46, 58
1, 3692, Tempo, 677966
1, 3704, Tempo, 670391
1, 3720, Tempo, 659341
1, 3732, Tempo, 655738
1, 3744, Tempo, 652174
1, 3760, Note_on_c, 0, 46, 0
1, 3760, Note_on_c, 0, 62, 0
1, 3760, Note_on_c, 0, 67, 65
1, 3760, Note_on_c, 0, 50, 59
1, 3772, Tempo, 645161
1, 3812, Tempo, 641711
1, 3840, Note_on_c, 0, 50, 0
1, 3840, Note_on_c, 0, 67, 0
1, 3840, Note_on_c, 0, 70, 67
1, 3840, Note_on_c, 0, 55, 60
1, 3852, Tempo, 638298
1, 3892, Tempo, 634921
1, 3920, Note_on_c, 0, 55, 0
1, 3920, Note_on_c, 0, 70, 0
1, 3920, Note_on_c, 0, 74, 68
1, 3920, Note_on_c, 0, 58, 62
1, 3932, Tempo, 631579
1, 3972, Tempo, 628272
1, 4000, Note_on_c, 0, 58, 0
1, 4000, Note_on_c, 0, 74, 0
1, 4000, Note_on_c, 0, 79, 70
1, 4000, Note_on_c, 0, 62, 63
1, 4012, Tempo, 625000
1, 4052, Tempo, 621762
1, 4080, Note_on_c, 0, 62, 0
1, 4080, Note_on_c, 0, 79, 0
1, 4080, Note_on_c, 0, 82, 71
1, 4080, Note_on_c, 0, 67, 64
1, 4092, Tempo, 618557
1, 4132, Tempo, 615385
1, 4160, Note_on_c, 0, 67, 0
1, 4160, Note_on_c, 0, 82, 0
1, 4160, Note_on_c, 0, 86, 72
1, 4160, Note_on_c, 0, 70, 65
1, 4172, Tempo, 612245
1, 4212, Tempo, 609137
1, 4240, Tempo, 606061
1, 4240, Note_on_c, 0, 70, 0
1, 4240, Note_on_c, 0, 86, 0
1, 4240, Note_on_c, 0, 91, 77
1, 4240, Note_on_c, 0, 74, 67
1, 4320, Tempo, 1212121
1, 4320, Note_on_c, 0, 74, 0
1, 4320, Note_on_c, 0, 91, 0
1, 4320, Note_on_c, 0, 94, 80
1, 4320, Note_on_c, 0, 79, 75
1, 4334, Control_c, 0, 64, 0
1, 4526, Control_c, 0, 64, 127
1, 4840, Tempo, 1061947
1, 4860, Note_on_c, 0, 79, 0
1, 4860, Note_on_c, 0, 94, 0
1, 4860, Note_on_c, 0, 93, 58
1, 4860, Note_on_c, 0, 78, 50
1, 4864, Tempo, 1052632
1, 4880, Tempo, 1043478
1, 4904, Tempo, 1034483
1, 4920, Tempo, 1025641
1, 4920, Note_on_c, 0, 78, 0
1, 4920, Note_on_c, 0, 93, 0
1, 4920, Note_on_c, 0, 91, 59
1, 4920, Note_on_c, 0, 75, 51
1, 4960, Tempo, 1008403
1, 4972, Tempo, 1000000
1, 4980, Note_on_c, 0, 75, 0
1, 4980, Note_on_c, 0, 91, 0
1, 4980, Note_on_c, 0, 90, 59
1, 4980, Note_on_c, 0, 74, 51
1, 4984, Tempo, 991736
1, 5000, Tempo, 983607
1, 5012, Tempo, 975610
1, 5024, Tempo, 967742
1, 5040, Tempo, 960000
1, 5040, Note_on_c, 0, 74, 0
1, 5040, Note_on_c, 0, 90, 0
1, 5040, Note_on_c, 0, 87, 60
1, 5040, Note_on_c, 0, 72, 52
1, 5052, Tempo, 952381
1, 5064, Tempo, 944882
1, 5080, Tempo, 937500
1, 5092, Tempo, 930233
1, 5100, Note_on_c, 0, 72, 0
1, 5100, Note_on_c, 0, 87, 0
1, 5100, Note_on_c, 0, 86, 60
1, 5100, Note_on_c, 0, 70, 52
1, 5104, Tempo, 923077
1, 5120, Tempo, 916031
1, 5132, Tempo, 902256
1, 5144, Tempo, 895522
1, 5160, Tempo, 888889
1, 5160, Note_on_c, 0, 70, 0
1, 5160, Note_on_c, 0, 86, 0
1, 5160, Note_on_c, 0, 84, 61
1, 5160, Note_on_c, 0, 69, 53
1, 5172, Tempo, 882353
1, 5184, Tempo, 875912
1, 5200, Tempo, 869565
1, 5212, Tempo, 863309
1, 5220, Note_on_c, 0, 69, 0
1, 5220, Note_on_c, 0, 84, 0
1, 5220, Note_on_c, 0, 82, 62
1, 5220, Note_on_c, 0, 67, 54
1, 5224, Tempo, 857143
1, 5240, Tempo, 851064
1, 5252, Tempo, 845070
1, 5264, Tempo, 839161
1, 5280, Tempo, 833333
1, 5280, Note_on_c, 0, 67, 0
1, 5280, Note_on_c, 0, 82, 0
1, 5280, Note_on_c, 0, 81, 62
1, 5280, Note_on_c, 0, 66, 54
1, 5292, Tempo, 827586
1, 5304, Tempo, 821918
1, 5320, Tempo, 816327
1, 5332, Tempo, 810811
1, 5340, Note_on_c, 0, 66, 0
1, 5340, Note_on_c, 0, 81, 0
1, 5340, Note_on_c, 0, 79, 63
1, 5340, Note_on_c, 0, 63, 54
1, 5344, Tempo, 805369
1, 5360, Tempo, 800000
1, 5372, Tempo, 789474
1, 5384, Tempo, 784314
1, 5400, Tempo, 779221
1, 5400, Note_on_c, 0, 63, 0
1, 5400, Note_on_c, 0, 79, 0
1, 5400, Note_on_c, 0, 78, 63
1, 5400, Note_on_c, 0, 62, 54
1, 5412, Tempo, 774194
1, 5424, Tempo, 769231
1, 5440, Tempo, 764331
1, 5452, Tempo, 754717
1, 5460, Note_on_c, 0, 62, 0
1, 5460, Note_on_c, 0, 78, 0
1, 5460, Note_on_c, 0, 75, 63
1, 5460, Note_on_c, 0, 60, 55
1, 5464, Tempo, 750000
1, 5480, Tempo, 745342
1, 5492, Tempo, 740741
1, 5504, Tempo, 736196
1, 5520, Tempo, 731707
1, 5520, Note_on_c, 0, 60, 0
1, 5520, Note_on_c, 0, 75, 0
1, 5520, Note_on_c, 0, 74, 63
1, 5520, Note_on_c, 0, 58, 56
1, 5532, Tempo, 722892
1, 5544, Tempo, 718563
1, 5560, Tempo, 714286
1, 5572, Tempo, 710059
1, 5580, Note_on_c, 0, 58, 0
1, 5580, Note_on_c, 0, 74, 0
1, 5580, Note_on_c, 0, 72, 64
1, 5580, Note_on_c, 0, 57, 56
1, 5584, Tempo, 705882
1, 5600, Tempo, 701754
1, 5612, Tempo, 693642
1, 5624, Tempo, 689655
1, 5640, Tempo, 685714
1, 5640, Note_on_c, 0, 57, 0
1, 5640, Note_on_c, 0, 72, 0
1, 5640, Note_on_c, 0, 70, 64
1, 5640, Note_on_c, 0, 55, 57
1, 5652, Tempo, 681818
1, 5664, Tempo, 677966
1, 5680, Tempo, 674157
1, 5692, Tempo, 666667
1, 5700, Note_on_c, 0, 55, 0
1, 5700, Note_on_c, 0, 70, 0
1, 5700, Note_on_c, 0, 69, 65
1, 5700, Note_on_c, 0, 54, 57
1, 5704, Tempo, 662983
1, 5720, Tempo, 659341
1, 5732, Tempo, 655738
1, 5744, Tempo, 652174
1, 5760, Tempo, 652174
1, 5760, Note_on_c, 0, 54, 0
1, 5760, Note_on_c, 0, 69, 0
1, 5760, Note_on_c, 0, 67, 65
1, 5760, Note_on_c, 0, 51, 58
1, 5820, Note_on_c, 0, 51, 0
1, 5820, Note_on_c, 0, 67, 0
1, 5820, Note_on_c, 0, 66, 66
1, 5820, Note_on_c, 0, 50, 58
1, 5824, Tempo, 648649
1, 5880, Note_on_c, 0, 50, 0
1, 5880, Note_on_c, 0, 66, 0
1, 5880, Note_on_c, 0, 63, 66
1, 5880, Note_on_c, 0, 48, 59
1, 5892, Tempo, 645161
1, 5940, Note_on_c, 0, 48, 0
1, 5940, Note_on_c, 0, 63, 0
1, 5940, Note_on_c, 0, 62, 67
1, 5940, Note_on_c, 0, 46, 60
1, 5944, Tempo, 641711
1, 6000, Note_on_c, 0, 46, 0
1, 6000, Note_on_c, 0, 62, 0
1, 6000, Note_on_c, 0, 60, 68
1, 6000, Note_on_c, 0, 45, 60
1, 6012, Tempo, 638298
1, 6060, Note_on_c, 0, 45, 0
1, 6060, Note_on_c, 0, 60, 0
1, 6060, Note_on_c, 0, 58, 68
1, 6060, Note_on_c, 0, 43, 61
1, 6064, Tempo, 634921
1, 6120, Note_on_c, 0, 43, 0
1, 6120, Note_on_c, 0, 58, 0
1, 6120, Note_on_c, 0, 57, 69
1, 6120, Note_on_c, 0, 42, 61
1, 6132, Tempo, 631579
1, 6180, Note_on_c, 0, 42, 0
1, 6180, Note_on_c, 0, 57, 0
1, 6180, Note_on_c, 0, 55, 69
1, 6180, Note_on_c, 0, 39, 62
1, 6184, Tempo, 628272
1, 6240, Note_on_c, 0, 39, 0
1, 6240, Note_on_c, 0, 55, 0
1, 6240, Note_on_c, 0, 54, 70
1, 6240, Note_on_c, 0, 38, 63
1, 6252, Tempo, 625000
1, 6300, Note_on_c, 0, 38, 0
1, 6300, Note_on_c, 0, 54, 0
1, 6300, Note_on_c, 0, 51, 70
1, 6300, Note_on_c, 0, 36, 63
1, 6304, Tempo, 621762
1, 6360, Note_on_c, 0, 36, 0
1, 6360, Note_on_c, 0, 51, 0
1, 6360, Note_on_c, 0, 50, 71
1, 6360, Note_on_c, 0, 34, 63
1, 6372, Tempo, 618557
1, 6420, Note_on_c, 0, 34, 0
1, 6420, Note_on_c, 0, 50, 0
1, 6420, Note_on_c, 0, 48, 71
1, 6420, Note_on_c, 0, 33, 63
1, 6424, Tempo, 615385
1, 6480, Note_on_c, 0, 33, 0
1, 6480, Note_on_c, 0, 48, 0
1, 6480, Note_on_c, 0, 46, 72
1, 6480, Note_on_c, 0, 38, 64
1, 6492, Tempo, 612245
1, 6540, Note_on_c, 0, 38, 0
1, 6540, Note_on_c, 0, 46, 0
1, 6540, Note_on_c, 0, 45, 72
1, 6540, Note_on_c, 0, 36, 64
1, 6544, Tempo, 609137
1, 6600, Note_on_c, 0, 36, 0
1, 6600, Note_on_c, 0, 45, 0
1, 6600, Note_on_c, 0, 43, 80
1, 6600, Note_on_c, 0, 31, 73
1, 6600, Note_on_c, 0, 34, 73
1, 6612, Tempo, 606061
1, 6617, Control_c, 0, 64, 0
1, 6664, Tempo, 603015
1, 6720, Tempo, 1290323
1, 6743, Control_c, 0, 64, 127
1, 7184, Tempo, 1016949
1, 7200, Tempo, 1237113
1, 7212, Tempo, 975610
1, 7224, Tempo, 960000
1, 7240, Tempo, 937500
1, 7252, Tempo, 923077
1, 7260, Note_on_c, 0, 34, 0
1, 7260, Note_on_c, 0, 31, 0
1, 7260, Note_on_c, 0, 43, 0
1, 7260, Note_on_c, 0, 46, 60
1, 7260, Note_on_c, 0, 38, 54
1, 7264, Tempo, 902256
1, 7280, Tempo, 888889
1, 7292, Tempo, 869565
1, 7304, Tempo, 851064
1, 7320, Tempo, 839161
1, 7320, Note_on_c, 0, 38, 0
1, 7320, Note_on_c, 0, 46, 0
1, 7320, Note_on_c, 0, 50, 62
1, 7320, Note_on_c, 0, 43, 55
1, 7332, Tempo, 827586
1, 7344, Tempo, 816327
1, 7360, Tempo, 805369
1, 7372, Tempo, 794702
1, 7380, Note_on_c, 0, 43, 0
1, 7380, Note_on_c, 0, 50, 0
1, 7380, Note_on_c, 0, 55, 63
1, 7380, Note_on_c, 0, 46, 56
1, 7384, Tempo, 784314
1, 7400, Tempo, 769231
1, 7412, Tempo, 759494
1, 7424, Tempo, 750000
1, 7440, Tempo, 740741
1, 7440, Note_on_c, 0, 46, 0
1, 7440, Note_on_c, 0, 55, 0
1, 7440, Note_on_c, 0, 58, 64
1, 7440, Note_on_c, 0, 50, 58
1, 7452, Tempo, 731707
1, 7464, Tempo, 722892
1, 7480, Tempo, 710059
1, 7492, Tempo, 701754
1, 7500, Note_on_c, 0, 50, 0
1, 7500, Note_on_c, 0, 58, 0
1, 7500, Note_on_c, 0, 62, 65
1, 7500, Note_on_c, 0, 55, 59
1, 7504, Tempo, 693642
1, 7520, Tempo, 685714
1, 7532, Tempo, 677966
1, 7544, Tempo, 670391
1, 7560, Tempo, 659341
1, 7560, Note_on_c, 0, 55, 0
1, 7560, Note_on_c, 0, 62, 0
1, 7560, Note_on_c, 0, 67, 67
1, 7560, Note_on_c, 0, 58, 60
1, 7572, Tempo, 655738
1, 7584, Tempo, 652174
1, 7612, Tempo, 645161
1, 7620, Note_on_c, 0, 58, 0
1, 7620, Note_on_c, 0, 67, 0
1, 7620, Note_on_c, 0, 70, 68
1, 7620, Note_on_c, 0, 62, 62
1, 7652, Tempo, 641711
1, 7680, Note_on_c, 0, 62, 0
1, 7680, Note_on_c, 0, 70, 0
1, 7680, Note_on_c, 0, 74, 70
1, 7680, Note_on_c, 0, 67, 63
1, 7692, Tempo, 638298
1, 7732, Tempo, 634921
1, 7740, Note_on_c, 0, 67, 0
1, 7740, Note_on_c, 0, 74, 0
1, 7740, Note_on_c, 0, 79, 71
1, 7740, Note_on_c, 0, 70, 64
1, 7772, Tempo, 631579
1, 7800, Note_on_c, 0, 70, 0
1, 7800, Note_on_c, 0, 79, 0
1, 7800, Note_on_c, 0, 82, 72
1, 7800, Note_on_c, 0, 74, 65
1, 7812, Tempo, 628272
1, 7852, Tempo, 625000
1, 7860, Note_on_c, 0, 74, 0
1, 7860, Note_on_c, 0, 82, 0
1, 7860, Note_on_c, 0, 86, 73
1, 7860, Note_on_c, 0, 79, 64
1, 7892, Tempo, 621762
1, 7920, Note_on_c, 0, 79, 0
1, 7920, Note_on_c, 0, 86, 0
1, 7920, Note_on_c, 0, 91, 75
1, 7920, Note_on_c, 0, 82, 66
1, 7932, Tempo, 618557
1, 7972, Tempo, 615385
1, 7980, Note_on_c, 0, 82, 0
1, 7980, Note_on_c, 0, 91, 0
1, 7980, Note_on_c, 0, 94, 78
1, 7980, Note_on_c, 0, 86, 68
1, 8012, Tempo, 612245
1, 8040, Note_on_c, 0, 86, 0
1, 8040, Note_on_c, 0, 98, 80
1, 8040, Note_on_c, 0, 91, 75
1, 8052, Tempo, 609137
1, 8080, Tempo, 606061
1, 8160, Tempo, 1212121
1, 8174, Control_c, 0, 64, 0
1, 8277, Control_c, 0, 64, 127
1, 8680, Tempo, 1061947
1, 8700, Note_on_c, 0, 91, 0
1, 8700, Note_on_c, 0, 98, 0
1, 8700, Note_on_c, 0, 94, 0
1, 8700, Note_on_c, 0, 96, 58
1, 8700, Note_on_c, 0, 87, 50
1, 8704, Tempo, 1052632
1, 8720, Tempo, 1043478
1, 8744, Tempo, 1034483
1, 8760, Tempo, 1025641
1, 8760, Note_on_c, 0, 87, 0
1, 8760, Note_on_c, 0, 96, 0
1, 8760, Note_on_c, 0, 94, 58
1, 8760, Note_on_c, 0, 86, 50
1, 8800, Tempo, 1008403
1, 8812, Tempo, 1000000
1, 8820, Note_on_c, 0, 86, 0
1, 8820, Note_on_c, 0, 94, 0
1, 8820, Note_on_c, 0, 93, 58
1, 8820, Note_on_c, 0, 84, 50
1, 8824, Tempo, 991736
1, 8840, Tempo, 983607
1, 8852, Tempo, 975610
1, 8864, Tempo, 967742
1, 8880, Tempo, 960000
1, 8880, Note_on_c, 0, 84, 0
1, 8880, Note_on_c, 0, 93, 0
1, 8880, Note_on_c, 0, 91, 59
1, 8880, Note_on_c, 0, 82, 51
1, 8892, Tempo, 952381
1, 8904, Tempo, 944882
1, 8920, Tempo, 937500
1, 8932, Tempo, 930233
1, 8940, Note_on_c, 0, 82, 0
1, 8940, Note_on_c, 0, 91, 0
1, 8940, Note_on_c, 0, 90, 59
1, 8940, Note_on_c, 0, 81, 51
1, 8944, Tempo, 923077
1, 8960, Tempo, 916031
1, 8972, Tempo, 902256
1, 8984, Tempo, 895522
1, 9000, Tempo, 888889
1, 9000, Note_on_c, 0, 81, 0
1, 9000, Note_on_c, 0, 90, 0
1, 9000, Note_on_c, 0, 87, 60
1, 9000, Note_on_c, 0, 79, 52
1, 9012, Tempo, 882353
1, 9024, Tempo, 875912
1, 9040, Tempo, 869565
1, 9052, Tempo, 863309
1, 9060, Note_on_c, 0, 79, 0
1, 9060, Note_on_c, 0, 87, 0
1, 9060, Note_on_c, 0, 86, 60
1, 9060, Note_on_c, 0, 78, 52
1, 9064, Tempo, 857143
1, 9080, Tempo, 851064
1, 9092, Tempo, 845070
1, 9104, Tempo, 839161
1, 9120, Tempo, 833333
1, 9120, Note_on_c, 0, 78, 0
1, 9120, Note_on_c, 0, 86, 0
1, 9120, Note_on_c, 0, 84, 61
1, 9120, Note_on_c, 0, 75, 53
1, 9132, Tempo, 827586
1, 9144, Tempo, 821918
1, 9160, Tempo, 816327
1, 9172, Tempo, 810811
1, 9180, Note_on_c, 0, 75, 0
1, 9180, Note_on_c, 0, 84, 0
1, 9180, Note_on_c, 0, 82, 62
1, 9180, Note_on_c, 0, 74, 54
1, 9184, Tempo, 805369
1, 9200, Tempo, 800000
1, 9212, Tempo, 789474
1, 9224, Tempo, 784314
1, 9240, Tempo, 779221
1, 9240, Note_on_c, 0, 74, 0
1, 9240, Note_on_c, 0, 82, 0
1, 9240, Note_on_c, 0, 81, 62
1, 9240, Note_on_c, 0, 72, 54
1, 9252, Tempo, 774194
1, 9264, Tempo, 769231
1, 9280, Tempo, 764331
1, 9292, Tempo, 754717
1, 9300, Note_on_c, 0, 72, 0
1, 9300, Note_on_c, 0, 81, 0
1, 9300, Note_on_c, 0, 79, 63
1, 9300, Note_on_c, 0, 70, 54
1, 9304, Tempo, 750000
1, 9320, Tempo, 745342
1, 9332, Tempo, 740741
1, 9344, Tempo, 736196
1, 9360, Tempo, 731707
1, 9360, Note_on_c, 0, 70, 0
1, 9360, Note_on_c, 0, 79, 0
1, 9360, Note_on_c, 0, 78, 63
1, 9360, Note_on_c, 0, 69, 54
1, 9372, Tempo, 722892
1, 9384, Tempo, 718563
1, 9400, Tempo, 714286
1, 9412, Tempo, 710059
1, 9420, Note_on_c, 0, 69, 0
1, 9420, Note_on_c, 0, 78, 0
1, 9420, Note_on_c, 0, 75, 63
1, 9420, Note_on_c, 0, 67, 55
1, 9424, Tempo, 705882
1, 9440, Tempo, 701754
1, 9452, Tempo, 693642
1, 9464, Tempo, 689655
1, 9480, Tempo, 685714
1, 9480, Note_on_c, 0, 67, 0
1, 9480, Note_on_c, 0, 75, 0
1, 9480, Note_on_c, 0, 74, 63
1, 9480, Note_on_c, 0, 66, 56
1, 9492, Tempo, 681818
1, 9504, Tempo, 677966
1, 9520, Tempo, 674157
1, 9532, Tempo, 666667
1, 9540, Note_on_c, 0, 66, 0
1, 9540, Note_on_c, 0, 74, 0
1, 9540, Note_on_c, 0, 72, 64
1, 9540, Note_on_c, 0, 63, 56
1, 9544, Tempo, 662983
1, 9560, Tempo, 659341
1, 9572, Tempo, 655738
1, 9584, Tempo, 652174
1, 9600, Tempo, 652174
1, 9600, Note_on_c, 0, 63, 0
1, 9600, Note_on_c, 0, 72, 0
1, 9600, Note_on_c, 0, 70, 64
1, 9600, Note_on_c, 0, 62, 57
1, 9660, Note_on_c, 0, 62, 0
1, 9660, Note_on_c, 0, 70, 0
1, 9660, Note_on_c, 0, 69, 65
1, 9660, Note_on_c, 0, 60, 57
1, 9664, Tempo, 648649
1, 9720, Note_on_c, 0, 60, 0
1, 9720, Note_on_c, 0, 69, 0
1, 9720, Note_on_c, 0, 67, 65
1, 9720, Note_on_c, 0, 58, 58
1, 9732, Tempo, 645161
1, 9780, Note_on_c, 0, 58, 0
1, 9780, Note_on_c, 0, 67, 0
1, 9780, Note_on_c, 0, 66, 66
1, 9780, Note_on_c, 0, 57, 58
1, 9784, Tempo, 641711
1, 9840, Note_on_c, 0, 57, 0
1, 9840, Note_on_c, 0, 66, 0
1, 9840, Note_on_c, 0, 63, 66
1, 9840, Note_on_c, 0, 55, 59
1, 9852, Tempo, 638298
1, 9900, Note_on_c, 0, 55, 0
1, 9900, Note_on_c, 0, 63, 0
1, 9900, Note_on_c, 0, 62, 67
1, 9900, Note_on_c, 0, 54, 60
1, 9904, Tempo, 634921
1, 9960, Note_on_c, 0, 54, 0
1, 9960, Note_on_c, 0, 62, 0
1, 9960, Note_on_c, 0, 60, 68
1, 9960, Note_on_c, 0, 51, 60
1, 9972, Tempo, 631579
1, 10020, Note_on_c, 0, 51, 0
1, 10020, Note_on_c, 0, 60, 0
1, 10020, Note_on_c, 0, 58, 68
1, 10020, Note_on_c, 0, 50, 61
1, 10024, Tempo, 628272
1, 10080, Note_on_c, 0, 50, 0
1, 10080, Note_on_c, 0, 58, 0
1, 10080, Note_on_c, 0, 57, 69
1, 10080, Note_on_c, 0, 48, 61
1, 10092, Tempo, 625000
1, 10140, Note_on_c, 0, 48, 0
1, 10140, Note_on_c, 0, 57, 0
1, 10140, Note_on_c, 0, 55, 69
1, 10140, Note_on_c, 0, 46, 62
1, 10144, Tempo, 621762
1, 10200, Note_on_c, 0, 46, 0
1, 10200, Note_on_c, 0, 55, 0
1, 10200, Note_on_c, 0, 54, 70
1, 10200, Note_on_c, 0, 45, 61
1, 10212, Tempo, 618557
1, 10260, Note_on_c, 0, 45, 0
1, 10260, Note_on_c, 0, 54, 0
1, 10260, Note_on_c, 0, 51, 69
1, 10260, Note_on_c, 0, 43, 62
1, 10264, Tempo, 615385
1, 10320, Note_on_c, 0, 43, 0
1, 10320, Note_on_c, 0, 51, 0
1, 10320, Note_on_c, 0, 50, 70
1, 10320, Note_on_c, 0, 42, 63
1, 10332, Tempo, 612245
1, 10380, Note_on_c, 0, 42, 0
1, 10380, Note_on_c, 0, 50, 0
1, 10380, Note_on_c, 0, 48, 72
1, 10380, Note_on_c, 0, 39, 63
1, 10384, Tempo, 609137
1, 10440, Note_on_c, 0, 39, 0
1, 10440, Note_on_c, 0, 48, 0
1, 10440, Note_on_c, 0, 46, 73
1, 10440, Note_on_c, 0, 38, 65
1, 10452, Tempo, 606061
1, 10500, Note_on_c, 0, 38, 0
1, 10500, Note_on_c, 0, 46, 0
1, 10500, Note_on_c, 0, 45, 74
1, 10500, Note_on_c, 0, 36, 66
1, 10504, Tempo, 603015
1, 10560, Time_signature, 7, 2, 24, 8
1, 10560, Tempo, 1200000
1, 10560, Note_on_c, 0, 36, 0
1, 10560, Note_on_c, 0, 45, 0
1, 10560, Note_on_c, 0, 43, 80
1, 10560, Note_on_c, 0, 31, 73
1, 10560, Note_on_c, 0, 34, 73
1, 10587, Control_c, 0, 64, 0
1, 10674, Control_c, 0, 64, 127
1, 11040, Tempo, 1081081
1, 11052, Tempo, 1071429
1, 11064, Tempo, 1061947
1, 11080, Tempo, 1052632
1, 11092, Tempo, 1043478
1, 11100, Note_on_c, 0, 34, 0
1, 11100, Note_on_c, 0, 31, 0
1, 11100, Note_on_c, 0, 43, 0
1, 11100, Note_on_c, 0, 44, 61
1, 11100, Note_on_c, 0, 35, 43
1, 11104, Tempo, 1034483
1, 11120, Tempo, 1025641
1, 11132, Tempo, 1016949
1, 11144, Tempo, 1000000
1, 11160, Tempo, 991736
1, 11160, Note_on_c, 0, 35, 0
1, 11160, Note_on_c, 0, 44, 0
1, 11160, Note_on_c, 0, 45, 61
1, 11160, Note_on_c, 0, 36, 44
1, 11172, Tempo, 983607
1, 11184, Tempo, 975610
1, 11200, Tempo, 967742
1, 11212, Tempo, 960000
1, 11220, Note_on_c, 0, 36, 0
1, 11220, Note_on_c, 0, 45, 0
1, 11220, Note_on_c, 0, 46, 62
1, 11220, Note_on_c, 0, 37, 44
1, 11224, Tempo, 952381
1, 11240, Tempo, 944882
1, 11252, Tempo, 930233
1, 11264, Tempo, 923077
1, 11280, Tempo, 916031
1, 11280, Note_on_c, 0, 37, 0
1, 11280, Note_on_c, 0, 46, 0
1, 11280, Note_on_c, 0, 47, 63
1, 11280, Note_on_c, 0, 38, 45
1, 11292, Tempo, 909091
1, 11304, Tempo, 902256
1, 11320, Tempo, 895522
1, 11332, Tempo, 888889
1, 11340, Note_on_c, 0, 38, 0
1, 11340, Note_on_c, 0, 47, 0
1, 11340, Note_on_c, 0, 48, 63
1, 11340, Note_on_c, 0, 39, 45
1, 11344, Tempo, 882353
1, 11360, Tempo, 869565
1, 11372, Tempo, 863309
1, 11384, Tempo, 857143
1, 11400, Tempo, 851064
1, 11400, Note_on_c, 0, 39, 0
1, 11400, Note_on_c, 0, 48, 0
1, 11400, Note_on_c, 0, 49, 63
1, 11400, Note_on_c, 0, 40, 46
1, 11412, Tempo, 845070
1, 11424, Tempo, 839161
1, 11440, Tempo, 833333
1, 11452, Tempo, 827586
1, 11460, Note_on_c, 0, 40, 0
1, 11460, Note_on_c, 0, 49, 0
1, 11460, Note_on_c, 0, 50, 64
1, 11460, Note_on_c, 0, 41, 46
1, 11464, Tempo, 816327
1, 11480, Tempo, 810811
1, 11492, Tempo, 805369
1, 11504, Tempo, 800000
1, 11520, Tempo, 794702
1, 11520, Note_on_c, 0, 41, 0
1, 11520, Note_on_c, 0, 50, 0
1, 11520, Note_on_c, 0, 51, 64
1, 11520, Note_on_c, 0, 42, 47
1, 11532, Tempo, 789474
1, 11544, Tempo, 784314
1, 11560, Tempo, 779221
1, 11572, Tempo, 769231
1, 11580, Note_on_c, 0, 42, 0
1, 11580, Note_on_c, 0, 51, 0
1, 11580, Note_on_c, 0, 52, 65
1, 11580, Note_on_c, 0, 43, 48
1, 11584, Tempo, 764331
1, 11600, Tempo, 759494
1, 11612, Tempo, 754717
1, 11624, Tempo, 750000
1, 11640, Tempo, 745342
1, 11640, Note_on_c, 0, 43, 0
1, 11640, Note_on_c, 0, 52, 0
1, 11640, Note_on_c, 0, 53, 66
1, 11640, Note_on_c, 0, 44, 49
1, 11652, Tempo, 740741
1, 11664, Tempo, 736196
1, 11680, Tempo, 727273
1, 11692, Tempo, 722892
1, 11700, Note_on_c, 0, 44, 0
1, 11700, Note_on_c, 0, 53, 0
1, 11700, Note_on_c, 0, 54, 66
1, 11700, Note_on_c, 0, 45, 49
1, 11704, Tempo, 718563
1, 11720, Tempo, 714286
1, 11732, Tempo, 710059
1, 11744, Tempo, 705882
1, 11760, Tempo, 701754
1, 11760, Note_on_c, 0, 45, 0
1, 11760, Note_on_c, 0, 54, 0
1, 11760, Note_on_c, 0, 55, 67
1, 11760, Note_on_c, 0, 46, 50
1, 11772, Tempo, 697674
1, 11784, Tempo, 689655
1, 11800, Tempo, 685714
1, 11812, Tempo, 681818
1, 11820, Note_on_c, 0, 46, 0
1, 11820, Note_on_c, 0, 55, 0
1, 11820, Note_on_c, 0, 56, 68
1, 11820, Note_on_c, 0, 47, 51
1, 11824, Tempo, 677966
1, 11840, Tempo, 674157
1, 11852, Tempo, 670391
1, 11864, Tempo, 666667
1, 11880, Tempo, 662983
1, 11880, Note_on_c, 0, 47, 0
1, 11880, Note_on_c, 0, 56, 0
1, 11880, Note_on_c, 0, 57, 68
1, 11880, Note_on_c, 0, 48, 52
1, 11892, Tempo, 655738
1, 11904, Tempo, 652174
1, 11920, Tempo, 648649
1, 11932, Tempo, 645161
1, 11940, Note_on_c, 0, 48, 0
1, 11940, Note_on_c, 0, 57, 0
1, 11940, Note_on_c, 0, 58, 69
1, 11940, Note_on_c, 0, 49, 52
1, 11944, Tempo, 641711
1, 11960, Tempo, 638298
1, 11972, Tempo, 634921
1, 11984, Tempo, 631579
1, 12000, Tempo, 625000
1, 12000, Note_on_c, 0, 49, 0
1, 12000, Note_on_c, 0, 58, 0
1, 12000, Note_on_c, 0, 59, 69
1, 12000, Note_on_c, 0, 50, 53
1, 12060, Note_on_c, 0, 50, 0
1, 12060, Note_on_c, 0, 59, 0
1, 12060, Note_on_c, 0, 60, 70
1, 12060, Note_on_c, 0, 51, 54
1, 12120, Note_on_c, 0, 51, 0
1, 12120, Note_on_c, 0, 60, 0
1, 12120, Note_on_c, 0, 61, 71
1, 12120, Note_on_c, 0, 52, 54
1, 12180, Note_on_c, 0, 52, 0
1, 12180, Note_on_c, 0, 61, 0
1, 12180, Note_on_c, 0, 62, 72
1, 12180, Note_on_c, 0, 53, 54
1, 12240, Note_on_c, 0, 53, 0
1, 12240, Note_on_c, 0, 62, 0
1, 12240, Note_on_c, 0, 63, 72
1, 12240, Note_on_c, 0, 54, 55
1, 12300, Note_on_c, 0, 54, 0
1, 12300, Note_on_c, 0, 63, 0
1, 12300, Note_on_c, 0, 64, 72
1, 12300, Note_on_c, 0, 55, 56
1, 12360, Note_on_c, 0, 55, 0
1, 12360, Note_on_c, 0, 64, 0
1, 12360, Note_on_c, 0, 65, 72
1, 12360, Note_on_c, 0, 56, 57
1, 12420, Note_on_c, 0, 56, 0
1, 12420, Note_on_c, 0, 65, 0
1, 12420, Note_on_c, 0, 66, 73
1, 12420, Note_on_c, 0, 57, 57
1, 12480, Tempo, 618557
1, 12480, Note_on_c, 0, 57, 0
1, 12480, Note_on_c, 0, 66, 0
1, 12480, Note_on_c, 0, 67, 76
1, 12480, Note_on_c, 0, 58, 53
1, 12540, Note_on_c, 0, 58, 0
1, 12540, Note_on_c, 0, 67, 0
1, 12540, Note_on_c, 0, 66, 75
1, 12540, Note_on_c, 0, 57, 53
1, 12600, Tempo, 615385
1, 12600, Note_on_c, 0, 57, 0
1, 12600, Note_on_c, 0, 66, 0
1, 12600, Note_on_c, 0, 65, 74
1, 12600, Note_on_c, 0, 56, 52
1, 12660, Note_on_c, 0, 56, 0
1, 12660, Note_on_c, 0, 65, 0
1, 12660, Note_on_c, 0, 64, 72
1, 12660, Note_on_c, 0, 55, 51
1, 12704, Tempo, 612245
1, 12720, Note_on_c, 0, 55, 0
1, 12720, Note_on_c, 0, 64, 0
1, 12720, Note_on_c, 0, 63, 72
1, 12720, Note_on_c, 0, 54, 51
1, 12780, Note_on_c, 0, 54, 0
1, 12780, Note_on_c, 0, 63, 0
1, 12780, Note_on_c, 0, 62, 71
1, 12780, Note_on_c, 0, 53, 50
1, 12812, Tempo, 609137
1, 12840, Note_on_c, 0, 53, 0
1, 12840, Note_on_c, 0, 62, 0
1, 12840, Note_on_c, 0, 61, 70
1, 12840, Note_on_c, 0, 52, 49
1, 12900, Note_on_c, 0, 52, 0
1, 12900, Note_on_c, 0, 61, 0
1, 12900, Note_on_c, 0, 60, 68
1, 12900, Note_on_c, 0, 51, 49
1, 12920, Tempo, 606061
1, 12960, Note_on_c, 0, 51, 0
1, 12960, Note_on_c, 0, 60, 0
1, 12960, Note_on_c, 0, 59, 66
1, 12960, Note_on_c, 0, 50, 46
1, 12972, Tempo, 609137
1, 13020, Note_on_c, 0, 50, 0
1, 13020, Note_on_c, 0, 59, 0
1, 13020, Note_on_c, 0, 58, 67
1, 13020, Note_on_c, 0, 49, 47
1, 13024, Tempo, 612245
1, 13064, Tempo, 615385
1, 13080, Note_on_c, 0, 49, 0
1, 13080, Note_on_c, 0, 58, 0
1, 13080, Note_on_c, 0, 57, 68
1, 13080, Note_on_c, 0, 48, 48
1, 13120, Tempo, 618557
1, 13140, Note_on_c, 0, 48, 0
1, 13140, Note_on_c, 0, 57, 0
1, 13140, Note_on_c, 0, 56, 69
1, 13140, Note_on_c, 0, 47, 50
1, 13160, Tempo, 621762
1, 13200, Note_on_c, 0, 47, 0
1, 13200, Note_on_c, 0, 56, 0
1, 13200, Note_on_c, 0, 55, 70
1, 13200, Note_on_c, 0, 46, 51
1, 13212, Tempo, 625000
1, 13252, Tempo, 628272
1, 13260, Note_on_c, 0, 46, 0
1, 13260, Note_on_c, 0, 55, 0
1, 13260, Note_on_c, 0, 54, 71
1, 13260, Note_on_c, 0, 45, 53
1, 13304, Tempo, 631579
1, 13320, Note_on_c, 0, 45, 0
1, 13320, Note_on_c, 0, 54, 0
1, 13320, Note_on_c, 0, 53, 72
1, 13320, Note_on_c, 0, 44, 54
1, 13360, Tempo, 634921
1, 13380, Note_on_c, 0, 44, 0
1, 13380, Note_on_c, 0, 53, 0
1, 13380, Note_on_c, 0, 52, 73
1, 13380, Note_on_c, 0, 43, 55
1, 13400, Tempo, 638298
1, 13440, Note_on_c, 0, 43, 0
1, 13440, Note_on_c, 0, 52, 0
1, 13440, Note_on_c, 0, 51, 74
1, 13440, Note_on_c, 0, 42, 59
1, 13452, Tempo, 641711
1, 13492, Tempo, 645161
1, 13500, Note_on_c, 0, 42, 0
1, 13500, Note_on_c, 0, 51, 0
1, 13500, Note_on_c, 0, 50, 75
1, 13500, Note_on_c, 0, 41, 60
1, 13544, Tempo, 648649
1, 13560, Note_on_c, 0, 41, 0
1, 13560, Note_on_c, 0, 50, 0
1, 13560, Note_on_c, 0, 49, 77
1, 13560, Note_on_c, 0, 40, 62
1, 13584, Tempo, 652174
1, 13620, Note_on_c, 0, 40, 0
1, 13620, Note_on_c, 0, 49, 0
1, 13620, Note_on_c, 0, 48, 79
1, 13620, Note_on_c, 0, 39, 63
1, 13640, Tempo, 655738
1, 13680, Note_on_c, 0, 39, 0
1, 13680, Note_on_c, 0, 48, 0
1, 13680, Note_on_c, 0, 47, 80
1, 13680, Note_on_c, 0, 38, 64
1, 13692, Tempo, 659341
1, 13732, Tempo, 662983
1, 13740, Note_on_c, 0, 38, 0
1, 13740, Note_on_c, 0, 47, 0
1, 13740, Note_on_c, 0, 46, 81
1, 13740, Note_on_c, 0, 37, 66
1, 13784, Tempo, 666667
1, 13800, Note_on_c, 0, 37, 0
1, 13800, Note_on_c, 0, 46, 0
1, 13800, Note_on_c, 0, 45, 83
1, 13800, Note_on_c, 0, 36, 67
1, 13824, Tempo, 670391
1, 13860, Note_on_c, 0, 36, 0
1, 13860, Note_on_c, 0, 45, 0
1, 13860, Note_on_c, 0, 44, 85
1, 13860, Note_on_c, 0, 35, 69
1, 13920, Tempo, 1008403
1, 13920, Note_on_c, 0, 35, 0
1, 13920, Note_on_c, 0, 44, 0
1, 13920, Note_on_c, 0, 43, 97
1, 13920, Note_on_c, 0, 31, 79
1, 13920, Note_on_c, 0, 34, 79
1, 14040, Note_on_c, 0, 34, 0
1, 14040, Note_on_c, 0, 31, 0
1, 14040, Note_on_c, 0, 43, 0
1, 14089, Control_c, 0, 64, 0
1, 14400, Note_on_c, 0, 103, 96
1, 14400, Note_on_c, 0, 98, 81
1, 14400, Note_on_c, 0, 94, 69
1, 14400, Note_on_c, 0, 91, 69
1, 14400, Note_on_c, 0, 67, 76
1, 14400, Note_on_c, 0, 62, 63
1, 14400, Note_on_c, 0, 58, 63
1, 14400, Note_on_c, 0, 55, 54
1, 14442, Control_c, 0, 64, 127
1, 14520, Note_on_c, 0, 55, 0
1, 14520, Note_on_c, 0, 103, 0
1, 14520, Note_on_c, 0, 67, 0
1, 14520, Note_on_c, 0, 98, 0
1, 14520, Note_on_c, 0, 94, 0
1, 14520, Note_on_c, 0, 91, 0
1, 14520, Note_on_c, 0, 62, 0
1, 14520, Note_on_c, 0, 58, 0
1, 15134, Control_c, 0, 64, 0
1, 15360, Tempo, 600000
1, 17040, Tempo, 745342
1, 17044, Tempo, 750000
1, 17052, Tempo, 754717
1, 17060, Tempo, 759494
1, 17064, Tempo, 764331
1, 17072, Tempo, 769231
1, 17080, Tempo, 774194
1, 17084, Tempo, 779221
1, 17092, Tempo, 784314
1, 17100, Tempo, 789474
1, 17100, Note_on_c, 0, 43, 37
1, 17104, Tempo, 794702
1, 17112, Tempo, 800000
1, 17120, Tempo, 810811
1, 17124, Tempo, 816327
1, 17132, Tempo, 821918
1, 17140, Tempo, 827586
1, 17144, Tempo, 833333
1, 17152, Tempo, 839161
1, 17160, Tempo, 839161
1, 17160, Note_on_c, 0, 50, 42
1, 17164, Tempo, 845070
1, 17172, Tempo, 857143
1, 17180, Tempo, 869565
1, 17184, Tempo, 882353
1, 17192, Tempo, 895522
1, 17200, Tempo, 902256
1, 17204, Tempo, 916031
1, 17212, Tempo, 930233
1, 17220, Tempo, 944882
1, 17220, Note_on_c, 0, 58, 47
1, 17224, Tempo, 960000
1, 17232, Tempo, 967742
1, 17240, Tempo, 983607
1, 17244, Tempo, 869565
1, 17280, Time_signature, 6, 2, 24, 8
1, 17280, Tempo, 833333
1, 17280, Marker_t, "Etude"
1, 17280, Note_on_c, 0, 62, 50
1, 17284, Tempo, 827244
1, 17291, Control_c, 0, 64, 127
1, 17324, Tempo, 821355
1, 17340, Note_on_c, 0, 58, 0
1, 17340, Note_on_c, 0, 55, 32
1, 17364, Tempo, 815550
1, 17392, Tempo, 809826
1, 17400, Note_on_c, 0, 55, 0
1, 17400, Note_on_c, 0, 58, 40
1, 17432, Tempo, 804182
1, 17460, Note_on_c, 0, 58, 0
1, 17460, Note_on_c, 0, 55, 31
1, 17472, Tempo, 798616
1, 17500, Tempo, 793021
1, 17520, Note_on_c, 0, 55, 0
1, 17520, Note_on_c, 0, 58, 40
1, 17540, Tempo, 787608
1, 17580, Tempo, 782269
1, 17580, Note_on_c, 0, 58, 0
1, 17580, Note_on_c, 0, 55, 31
1, 17620, Tempo, 777001
1, 17640, Note_on_c, 0, 55, 0
1, 17640, Note_on_c, 0, 58, 40
1, 17644, Tempo, 771803
1, 17684, Tempo, 766675
1, 17700, Note_on_c, 0, 58, 0
1, 17700, Note_on_c, 0, 55, 32
1, 17724, Tempo, 761518
1, 17752, Tempo, 751597
1, 17760, Note_on_c, 0, 55, 0
1, 17760, Note_on_c, 0, 58, 41
1, 17820, Note_on_c, 0, 58, 0
1, 17820, Note_on_c, 0, 55, 33
1, 17872, Tempo, 746733
1, 17880, Note_on_c, 0, 55, 0
1, 17880, Note_on_c, 0, 58, 41
1, 17940, Note_on_c, 0, 58, 0
1, 17940, Note_on_c, 0, 55, 33
1, 17980, Tempo, 741931
1, 18000, Note_on_c, 0, 55, 0
1, 18000, Note_on_c, 0, 58, 42
1, 18060, Note_on_c, 0, 58, 0
1, 18060, Note_on_c, 0, 55, 33
1, 18084, Tempo, 737101
1, 18120, Note_on_c, 0, 55, 0
1, 18120, Note_on_c, 0, 58, 42
1, 18180, Note_on_c, 0, 58, 0
1, 18180, Note_on_c, 0, 43, 0
1, 18180, Note_on_c, 0, 50, 0
1, 18180, Note_on_c, 0, 55, 34
1, 18192, Tempo, 732422
1, 18224, Tempo, 740010
1, 18240, Note_on_c, 0, 55, 0
1, 18240, Note_on_c, 0, 58, 42
1, 18300, Note_on_c, 0, 58, 0
1, 18300, Note_on_c, 0, 55, 34
1, 18344, Tempo, 744509
1, 18360, Note_on_c, 0, 55, 0
1, 18360, Note_on_c, 0, 58, 43
1, 18420, Note_on_c, 0, 58, 0
1, 18420, Note_on_c, 0, 55, 34
1, 18464, Tempo, 748970
1, 18480, Note_on_c, 0, 55, 0
1, 18480, Note_on_c, 0, 58, 43
1, 18540, Note_on_c, 0, 58, 0
1, 18540, Note_on_c, 0, 55, 34
1, 18584, Tempo, 753580
1, 18600, Note_on_c, 0, 55, 0
1, 18600, Note_on_c, 0, 58, 44
1, 18660, Note_on_c, 0, 58, 0
1, 18660, Note_on_c, 0, 55, 35
1, 18692, Tempo, 758246
1, 18704, Tempo, 758246
1, 18720, Note_on_c, 0, 55, 0
1, 18720, Note_on_c, 0, 62, 0
1, 18720, Note_on_c, 0, 67, 56
1, 18720, Note_on_c, 0, 63, 48
1, 18732, Tempo, 753580
1, 18733, Control_c, 0, 64, 0
1, 18760, Tempo, 748970
1, 18773, Control_c, 0, 64, 127
1, 18780, Note_on_c, 0, 63, 0
1, 18780, Note_on_c, 0, 55, 36
1, 18784, Tempo, 744509
1, 18812, Tempo, 740010
1, 18840, Tempo, 735565
1, 18840, Note_on_c, 0, 55, 0
1, 18840, Note_on_c, 0, 63, 44
1, 18852, Tempo, 731261
1, 18900, Note_on_c, 0, 63, 0
1, 18900, Note_on_c, 0, 55, 33
1, 18960, Note_on_c, 0, 55, 0
1, 18960, Note_on_c, 0, 63, 40
1, 19020, Note_on_c, 0, 63, 0
1, 19020, Note_on_c, 0, 55, 45
1, 19024, Tempo, 735565
1, 19080, Note_on_c, 0, 55, 0
1, 19080, Note_on_c, 0, 63, 34
1, 19104, Tempo, 735565
1, 19132, Tempo, 740010
1, 19140, Note_on_c, 0, 63, 0
1, 19140, Note_on_c, 0, 55, 40
1, 19160, Tempo, 744509
1, 19184, Tempo, 748970
1, 19200, Tempo, 753580
1, 19200, Note_on_c, 0, 55, 0
1, 19200, Note_on_c, 0, 67, 0
1, 19200, Note_on_c, 0, 66, 54
1, 19200, Note_on_c, 0, 62, 47
1, 19210, Control_c, 0, 64, 0
1, 19246, Control_c, 0, 64, 127
1, 19252, Tempo, 748970
1, 19260, Note_on_c, 0, 62, 0
1, 19260, Note_on_c, 0, 55, 34
1, 19292, Tempo, 744509
1, 19320, Note_on_c, 0, 55, 0
1, 19320, Note_on_c, 0, 62, 43
1, 19332, Tempo, 740010
1, 19372, Tempo, 735565
1, 19380, Note_on_c, 0, 62, 0
1, 19380, Note_on_c, 0, 55, 35
1, 19440, Tempo, 740010
1, 19440, Note_on_c, 0, 55, 0
1, 19440, Note_on_c, 0, 62, 40
1, 19492, Tempo, 744509
1, 19500, Note_on_c, 0, 62, 0
1, 19500, Note_on_c, 0, 55, 35
1, 19560, Tempo, 748970
1, 19560, Note_on_c, 0, 55, 0
1, 19560, Note_on_c, 0, 62, 44
1, 19612, Tempo, 753580
1, 19620, Note_on_c, 0, 62, 0
1, 19620, Note_on_c, 0, 55, 40
1, 19664, Tempo, 758246
1, 19680, Note_on_c, 0, 55, 0
1, 19680, Note_on_c, 0, 66, 0
1, 19680, Note_on_c, 0, 63, 54
1, 19680, Note_on_c, 0, 60, 47
1, 19694, Control_c, 0, 64, 0
1, 19720, Tempo, 753580
1, 19733, Control_c, 0, 64, 127
1, 19740, Note_on_c, 0, 60, 0
1, 19740, Note_on_c, 0, 55, 33
1, 19772, Tempo, 748970
1, 19800, Note_on_c, 0, 55, 0
1, 19800, Note_on_c, 0, 60, 43
1, 19824, Tempo, 744509
1, 19860, Note_on_c, 0, 60, 0
1, 19860, Note_on_c, 0, 55, 34
1, 19864, Tempo, 740010
1, 19880, Tempo, 736196
1, 19896, Tempo, 745342
1, 19908, Tempo, 754717
1, 19920, Tempo, 764331
1, 19920, Note_on_c, 0, 55, 0
1, 19920, Note_on_c, 0, 60, 42
1, 19936, Tempo, 774194
1, 19948, Tempo, 784314
1, 19960, Tempo, 794702
1, 19976, Tempo, 805369
1, 19980, Note_on_c, 0, 60, 0
1, 19980, Note_on_c, 0, 55, 33
1, 19988, Tempo, 816327
1, 20000, Tempo, 827586
1, 20016, Tempo, 839161
1, 20028, Tempo, 851064
1, 20040, Tempo, 863309
1, 20040, Note_on_c, 0, 55, 0
1, 20040, Note_on_c, 0, 60, 42
1, 20056, Tempo, 875912
1, 20068, Tempo, 888889
1, 20080, Tempo, 902256
1, 20096, Tempo, 916031
1, 20100, Note_on_c, 0, 60, 0
1, 20100, Note_on_c, 0, 55, 34
1, 20108, Tempo, 930233
1, 20120, Tempo, 944882
1, 20136, Tempo, 967742
1, 20160, Tempo, 772599
1, 20160, Note_on_c, 0, 55, 0
1, 20160, Note_on_c, 0, 63, 0
1, 20160, Note_on_c, 0, 62, 50
1, 20160, Note_on_c, 0, 58, 44
1, 20178, Control_c, 0, 64, 0
1, 20200, Tempo, 782371
1, 20220, Note_on_c, 0, 58, 0
1, 20220, Control_c, 0, 64, 127
1, 20220, Note_on_c, 0, 55, 32
1, 20240, Tempo, 777403
1, 20280, Note_on_c, 0, 55, 0
1, 20280, Note_on_c, 0, 58, 40
1, 20292, Tempo, 772599
1, 20332, Tempo, 767754
1, 20340, Note_on_c, 0, 58, 0
1, 20340, Note_on_c, 0, 55, 31
1, 20372, Tempo, 762970
1, 20400, Note_on_c, 0, 55, 0
1, 20400, Note_on_c, 0, 58, 40
1, 20424, Tempo, 758246
1, 20460, Note_on_c, 0, 58, 0
1, 20460, Note_on_c, 0, 55, 31
1, 20464, Tempo, 753580
1, 20504, Tempo, 748970
1, 20520, Note_on_c, 0, 55, 0
1, 20520, Note_on_c, 0, 58, 40
1, 20560, Tempo, 744509
1, 20580, Note_on_c, 0, 58, 0
1, 20580, Note_on_c, 0, 55, 31
1, 20600, Tempo, 740010
1, 20640, Tempo, 735565
1, 20640, Note_on_c, 0, 55, 0
1, 20640, Note_on_c, 0, 58, 40
1, 20700, Note_on_c, 0, 58, 0
1, 20700, Note_on_c, 0, 55, 31
1, 20760, Note_on_c, 0, 55, 0
1, 20760, Note_on_c, 0, 58, 39
1, 20820, Note_on_c, 0, 58, 0
1, 20820, Note_on_c, 0, 55, 30
1, 20880, Note_on_c, 0, 55, 0
1, 20880, Note_on_c, 0, 58, 37
1, 20940, Note_on_c, 0, 58, 0
1, 20940, Note_on_c, 0, 55, 29
1, 21000, Note_on_c, 0, 55, 0
1, 21000, Note_on_c, 0, 58, 36
1, 21060, Note_on_c, 0, 58, 0
1, 21060, Note_on_c, 0, 55, 29
1, 21104, Tempo, 740010
1, 21120, Note_on_c, 0, 55, 0
1, 21120, Note_on_c, 0, 58, 32
1, 21180, Note_on_c, 0, 58, 0
1, 21180, Note_on_c, 0, 55, 28
1, 21224, Tempo, 744509
1, 21240, Note_on_c, 0, 55, 0
1, 21240, Note_on_c, 0, 58, 36
1, 21300, Note_on_c, 0, 58, 0
1, 21300, Note_on_c, 0, 55, 29
1, 21344, Tempo, 748970
1, 21360, Note_on_c, 0, 55, 0
1, 21360, Note_on_c, 0, 58, 37
1, 21420, Note_on_c, 0, 58, 0
1, 21420, Note_on_c, 0, 55, 30
1, 21464, Tempo, 753580
1, 21480, Note_on_c, 0, 55, 0
1, 21480, Note_on_c, 0, 58, 39
1, 21540, Tempo, 1147886
1, 21540, Note_on_c, 0, 58, 0
1, 21540, Note_on_c, 0, 55, 31
1, 21560, Note_on_c, 0, 55, 0
1, 21560, Note_on_c, 0, 53, 35
1, 21580, Note_on_c, 0, 57, 48
1, 21600, Note_on_c, 0, 62, 0
1, 21600, Note_on_c, 0, 62, 56
1, 21612, Tempo, 753580
1, 21613, Control_c, 0, 64, 0
1, 21640, Tempo, 748970
1, 21653, Control_c, 0, 64, 127
1, 21660, Note_on_c, 0, 57, 0
1, 21660, Note_on_c, 0, 53, 0
1, 21660, Note_on_c, 0, 53, 36
1, 21664, Tempo, 744509
1, 21692, Tempo, 740010
1, 21720, Tempo, 735565
1, 21720, Note_on_c, 0, 53, 0
1, 21720, Note_on_c, 0, 57, 44
1, 21732, Tempo, 731261
1, 21780, Note_on_c, 0, 57, 0
1, 21780, Note_on_c, 0, 53, 33
1, 21840, Note_on_c, 0, 53, 0
1, 21840, Note_on_c, 0, 57, 40
1, 21900, Note_on_c, 0, 57, 0
1, 21900, Note_on_c, 0, 53, 45
1, 21904, Tempo, 735565
1, 21960, Note_on_c, 0, 53, 0
1, 21960, Note_on_c, 0, 57, 34
1, 21984, Tempo, 735565
1, 22012, Tempo, 740010
1, 22020, Tempo, 1116695
1, 22020, Note_on_c, 0, 57, 0
1, 22020, Note_on_c, 0, 53, 40
1, 22040, Note_on_c, 0, 53, 0
1, 22040, Note_on_c, 0, 51, 39
1, 22060, Note_on_c, 0, 55, 47
1, 22080, Tempo, 753580
1, 22080, Note_on_c, 0, 62, 0
1, 22080, Note_on_c, 0, 60, 54
1, 22090, Control_c, 0, 64, 0
1, 22126, Control_c, 0, 64, 127
1, 22132, Tempo, 748970
1, 22140, Note_on_c, 0, 55, 0
1, 22140, Note_on_c, 0, 51, 0
1, 22140, Note_on_c, 0, 51, 34
1, 22172, Tempo, 744509
1, 22200, Note_on_c, 0, 51, 0
1, 22200, Note_on_c, 0, 55, 43
1, 22212, Tempo, 740010
1, 22252, Tempo, 735565
1, 22260, Note_on_c, 0, 55, 0
1, 22260, Note_on_c, 0, 51, 35
1, 22320, Tempo, 740010
1, 22320, Note_on_c, 0, 51, 0
1, 22320, Note_on_c, 0, 55, 40
1, 22372, Tempo, 744509
1, 22380, Note_on_c, 0, 55, 0
1, 22380, Note_on_c, 0, 51, 35
1, 22440, Tempo, 748970
1, 22440, Note_on_c, 0, 51, 0
1, 22440, Note_on_c, 0, 55, 44
1, 22492, Tempo, 753580
1, 22500, Tempo, 1137441
1, 22500, Note_on_c, 0, 55, 0
1, 22500, Note_on_c, 0, 51, 40
1, 22520, Note_on_c, 0, 51, 0
1, 22520, Note_on_c, 0, 50, 39
1, 22540, Note_on_c, 0, 53, 47
1, 22560, Tempo, 772599
1, 22560, Note_on_c, 0, 60, 0
1, 22560, Note_on_c, 0, 58, 54
1, 22574, Control_c, 0, 64, 0
1, 22600, Tempo, 753580
1, 22613, Control_c, 0, 64, 127
1, 22620, Note_on_c, 0, 53, 0
1, 22620, Note_on_c, 0, 50, 0
1, 22620, Note_on_c, 0, 50, 33
1, 22652, Tempo, 748970
1, 22680, Note_on_c, 0, 50, 0
1, 22680, Note_on_c, 0, 53, 43
1, 22704, Tempo, 744509
1, 22740, Note_on_c, 0, 53, 0
1, 22740, Note_on_c, 0, 50, 34
1, 22744, Tempo, 740010
1, 22800, Tempo, 744509
1, 22800, Note_on_c, 0, 50, 0
1, 22800, Note_on_c, 0, 53, 42
1, 22840, Tempo, 748970
1, 22860, Note_on_c, 0, 53, 0
1, 22860, Note_on_c, 0, 50, 33
1, 22892, Tempo, 753580
1, 22920, Note_on_c, 0, 50, 0
1, 22920, Note_on_c, 0, 53, 42
1, 22932, Tempo, 758246
1, 22972, Tempo, 762970
1, 22980, Tempo, 1279863
1, 22980, Note_on_c, 0, 53, 0
1, 22980, Note_on_c, 0, 50, 34
1, 23000, Note_on_c, 0, 50, 0
1, 23000, Note_on_c, 0, 48, 32
1, 23020, Note_on_c, 0, 51, 44
1, 23040, Tempo, 772599
1, 23040, Note_on_c, 0, 58, 0
1, 23040, Note_on_c, 0, 57, 50
1, 23058, Control_c, 0, 64, 0
1, 23078, Control_c, 0, 64, 127
1, 23080, Tempo, 782371
1, 23100, Note_on_c, 0, 51, 0
1, 23100, Note_on_c, 0, 48, 0
1, 23100, Note_on_c, 0, 48, 32
1, 23120, Tempo, 777403
1, 23160, Note_on_c, 0, 48, 0
1, 23160, Note_on_c, 0, 51, 40
1, 23172, Tempo, 772599
1, 23212, Tempo, 767754
1, 23220, Note_on_c, 0, 51, 0
1, 23220, Note_on_c, 0, 48, 32
1, 23252, Tempo, 762970
1, 23280, Note_on_c, 0, 48, 0
1, 23280, Note_on_c, 0, 51, 42
1, 23304, Tempo, 758246
1, 23340, Note_on_c, 0, 51, 0
1, 23340, Note_on_c, 0, 48, 33
1, 23344, Tempo, 753580
1, 23384, Tempo, 748970
1, 23400, Note_on_c, 0, 48, 0
1, 23400, Note_on_c, 0, 51, 43
1, 23440, Tempo, 744509
1, 23460, Note_on_c, 0, 51, 0
1, 23460, Note_on_c, 0, 48, 33
1, 23480, Tempo, 740010
1, 23520, Tempo, 735565
1, 23520, Note_on_c, 0, 48, 0
1, 23520, Note_on_c, 0, 51, 44
1, 23580, Note_on_c, 0, 51, 0
1, 23580, Note_on_c, 0, 48, 35
1, 23640, Note_on_c, 0, 48, 0
1, 23640, Note_on_c, 0, 51, 45
1, 23700, Note_on_c, 0, 51, 0
1, 23700, Note_on_c, 0, 48, 36
1, 23760, Note_on_c, 0, 48, 0
1, 23760, Note_on_c, 0, 51, 45
1, 23820, Note_on_c, 0, 51, 0
1, 23820, Note_on_c, 0, 48, 36
1, 23880, Note_on_c, 0, 48, 0
1, 23880, Note_on_c, 0, 51, 46
1, 23940, Note_on_c, 0, 51, 0
1, 23940, Note_on_c, 0, 48, 37
1, 23984, Tempo, 740010
1, 24000, Note_on_c, 0, 48, 0
1, 24000, Note_on_c, 0, 51, 48
1, 24060, Note_on_c, 0, 51, 0
1, 24060, Note_on_c, 0, 48, 38
1, 24104, Tempo, 744509
1, 24120, Note_on_c, 0, 48, 0
1, 24120, Note_on_c, 0, 51, 48
1, 24180, Note_on_c, 0, 51, 0
1, 24180, Note_on_c, 0, 48, 39
1, 24224, Tempo, 748970
1, 24240, Note_on_c, 0, 48, 0
1, 24240, Note_on_c, 0, 51, 50
1, 24300, Note_on_c, 0, 51, 0
1, 24300, Note_on_c, 0, 48, 40
1, 24344, Tempo, 753580
1, 24360, Note_on_c, 0, 48, 0
1, 24360, Note_on_c, 0, 51, 51
1, 24404, Tempo, 762970
1, 24420, Note_on_c, 0, 51, 0
1, 24420, Note_on_c, 0, 48, 41
1, 24432, Tempo, 767754
1, 24460, Tempo, 777001
1, 24480, Note_on_c, 0, 48, 0
1, 24480, Note_on_c, 0, 57, 0
1, 24480, Note_on_c, 0, 60, 72
1, 24480, Note_on_c, 0, 51, 57
1, 24493, Control_c, 0, 64, 0
1, 24500, Tempo, 771803
1, 24533, Control_c, 0, 64, 127
1, 24540, Tempo, 766675
1, 24540, Note_on_c, 0, 51, 0
1, 24540, Note_on_c, 0, 48, 39
1, 24560, Tempo, 761518
1, 24600, Tempo, 756525
1, 24600, Note_on_c, 0, 48, 0
1, 24600, Note_on_c, 0, 51, 51
1, 24640, Tempo, 751597
1, 24660, Tempo, 746733
1, 24660, Note_on_c, 0, 51, 0
1, 24660, Note_on_c, 0, 48, 36
1, 24720, Note_on_c, 0, 48, 0
1, 24720, Note_on_c, 0, 51, 44
1, 24780, Note_on_c, 0, 51, 0
1, 24780, Note_on_c, 0, 48, 48
1, 24840, Note_on_c, 0, 48, 0
1, 24840, Note_on_c, 0, 51, 36
1, 24860, Tempo, 751597
1, 24864, Tempo, 735565
1, 24892, Tempo, 740010
1, 24900, Tempo, 1116695
1, 24900, Note_on_c, 0, 51, 0
1, 24900, Note_on_c, 0, 48, 43
1, 24920, Note_on_c, 0, 48, 0
1, 24920, Note_on_c, 0, 49, 42
1, 24940, Note_on_c, 0, 52, 52
1, 24960, Tempo, 753580
1, 24960, Note_on_c, 0, 60, 0
1, 24960, Note_on_c, 0, 57, 67
1, 24970, Control_c, 0, 64, 0
1, 25006, Control_c, 0, 64, 127
1, 25012, Tempo, 748970
1, 25020, Note_on_c, 0, 52, 0
1, 25020, Note_on_c, 0, 49, 0
1, 25020, Note_on_c, 0, 49, 36
1, 25052, Tempo, 744509
1, 25080, Note_on_c, 0, 49, 0
1, 25080, Note_on_c, 0, 52, 45
1, 25092, Tempo, 740010
1, 25132, Tempo, 735565
1, 25140, Note_on_c, 0, 52, 0
1, 25140, Note_on_c, 0, 49, 36
1, 25200, Tempo, 740010
1, 25200, Note_on_c, 0, 49, 0
1, 25200, Note_on_c, 0, 52, 44
1, 25252, Tempo, 744509
1, 25260, Note_on_c, 0, 52, 0
1, 25260, Note_on_c, 0, 49, 38
1, 25320, Tempo, 748970
1, 25320, Note_on_c, 0, 49, 0
1, 25320, Note_on_c, 0, 52, 45
1, 25372, Tempo, 753580
1, 25380, Tempo, 772599
1, 25380, Note_on_c, 0, 52, 0
1, 25380, Note_on_c, 0, 49, 41
1, 25404, Tempo, 777403
1, 25432, Tempo, 782371
1, 25440, Tempo, 772599
1, 25440, Note_on_c, 0, 49, 0
1, 25440, Note_on_c, 0, 57, 0
1, 25440, Note_on_c, 0, 55, 61
1, 25440, Note_on_c, 0, 52, 52
1, 25454, Control_c, 0, 64, 0
1, 25480, Tempo, 753580
1, 25493, Control_c, 0, 64, 127
1, 25500, Note_on_c, 0, 52, 0
1, 25500, Note_on_c, 0, 49, 34
1, 25532, Tempo, 748970
1, 25560, Note_on_c, 0, 49, 0
1, 25560, Note_on_c, 0, 52, 44
1, 25584, Tempo, 744509
1, 25620, Note_on_c, 0, 52, 0
1, 25620, Note_on_c, 0, 49, 35
1, 25624, Tempo, 740010
1, 25680, Tempo, 744509
1, 25680, Note_on_c, 0, 49, 0
1, 25680, Note_on_c, 0, 52, 42
1, 25720, Tempo, 748970
1, 25740, Note_on_c, 0, 52, 0
1, 25740, Note_on_c, 0, 49, 33
1, 25772, Tempo, 753580
1, 25800, Note_on_c, 0, 49, 0
1, 25800, Note_on_c, 0, 52, 42
1, 25812, Tempo, 758246
1, 25852, Tempo, 762970
1, 25860, Tempo, 1240695
1, 25860, Note_on_c, 0, 52, 0
1, 25860, Note_on_c, 0, 49, 34
1, 25880, Note_on_c, 0, 49, 0
1, 25880, Note_on_c, 0, 50, 44
1, 25900, Note_on_c, 0, 55, 44
1, 25920, Tempo, 772599
1, 25920, Note_on_c, 0, 55, 0
1, 25920, Note_on_c, 0, 58, 60
1, 25938, Control_c, 0, 64, 0
1, 25960, Tempo, 782371
1, 25980, Note_on_c, 0, 55, 0
1, 25980, Note_on_c, 0, 50, 0
1, 25980, Control_c, 0, 64, 127
1, 25980, Note_on_c, 0, 50, 32
1, 26000, Tempo, 777403
1, 26040, Note_on_c, 0, 50, 0
1, 26040, Note_on_c, 0, 55, 40
1, 26052, Tempo, 772599
1, 26092, Tempo, 767754
1, 26100, Note_on_c, 0, 55, 0
1, 26100, Note_on_c, 0, 50, 32
1, 26132, Tempo, 762970
1, 26160, Note_on_c, 0, 50, 0
1, 26160, Note_on_c, 0, 55, 42
1, 26184, Tempo, 758246
1, 26220, Note_on_c, 0, 55, 0
1, 26220, Note_on_c, 0, 50, 33
1, 26224, Tempo, 753580
1, 26264, Tempo, 748970
1, 26280, Note_on_c, 0, 50, 0
1, 26280, Note_on_c, 0, 55, 43
1, 26320, Tempo, 744509
1, 26340, Note_on_c, 0, 55, 0
1, 26340, Note_on_c, 0, 50, 33
1, 26360, Tempo, 740010
1, 26392, Tempo, 727802
1, 26400, Note_on_c, 0, 50, 0
1, 26400, Note_on_c, 0, 55, 44
1, 26432, Tempo, 723240
1, 26460, Note_on_c, 0, 55, 0
1, 26460, Note_on_c, 0, 50, 35
1, 26472, Tempo, 718735
1, 26520, Note_on_c, 0, 50, 0
1, 26520, Note_on_c, 0, 55, 43
1, 26524, Tempo, 723240
1, 26564, Tempo, 727802
1, 26580, Note_on_c, 0, 55, 0
1, 26580, Note_on_c, 0, 50, 34
1, 26604, Tempo, 727802
1, 26632, Tempo, 723240
1, 26640, Note_on_c, 0, 50, 0
1, 26640, Note_on_c, 0, 55, 42
1, 26660, Tempo, 718735
1, 26672, Tempo, 714286
1, 26700, Tempo, 709807
1, 26700, Note_on_c, 0, 55, 0
1, 26700, Note_on_c, 0, 50, 33
1, 26712, Tempo, 709807
1, 26752, Tempo, 714286
1, 26760, Note_on_c, 0, 50, 0
1, 26760, Note_on_c, 0, 55, 41
1, 26780, Tempo, 718735
1, 26820, Tempo, 723240
1, 26820, Note_on_c, 0, 55, 0
1, 26820, Note_on_c, 0, 50, 32
1, 26844, Tempo, 727802
1, 26864, Tempo, 740010
1, 26880, Note_on_c, 0, 50, 0
1, 26880, Note_on_c, 0, 58, 0
1, 26880, Note_on_c, 0, 57, 48
1, 26880, Note_on_c, 0, 54, 40
1, 26894, Control_c, 0, 64, 0
1, 26923, Control_c, 0, 64, 127
1, 26940, Note_on_c, 0, 54, 0
1, 26940, Note_on_c, 0, 50, 32
1, 26984, Tempo, 744509
1, 27000, Note_on_c, 0, 50, 0
1, 27000, Note_on_c, 0, 54, 40
1, 27060, Note_on_c, 0, 54, 0
1, 27060, Note_on_c, 0, 50, 32
1, 27104, Tempo, 748970
1, 27120, Note_on_c, 0, 50, 0
1, 27120, Note_on_c, 0, 54, 40
1, 27180, Note_on_c, 0, 54, 0
1, 27180, Note_on_c, 0, 50, 32
1, 27224, Tempo, 753580
1, 27240, Note_on_c, 0, 50, 0
1, 27240, Note_on_c, 0, 54, 40
1, 27300, Tempo, 1147886
1, 27300, Note_on_c, 0, 54, 0
1, 27300, Note_on_c, 0, 50, 32
1, 27320, Note_on_c, 0, 50, 0
1, 27320, Note_on_c, 0, 48, 35
1, 27340, Note_on_c, 0, 51, 48
1, 27360, Note_on_c, 0, 57, 0
1, 27360, Note_on_c, 0, 57, 56
1, 27364, Tempo, 761518
1, 27373, Control_c, 0, 64, 0
1, 27404, Tempo, 756525
1, 27413, Control_c, 0, 64, 127
1, 27420, Note_on_c, 0, 51, 0
1, 27420, Note_on_c, 0, 48, 0
1, 27420, Note_on_c, 0, 48, 36
1, 27432, Tempo, 751597
1, 27460, Tempo, 746733
1, 27480, Note_on_c, 0, 48, 0
1, 27480, Note_on_c, 0, 51, 44
1, 27484, Tempo, 741931
1, 27512, Tempo, 737101
1, 27540, Tempo, 732422
1, 27540, Note_on_c, 0, 51, 0
1, 27540, Note_on_c, 0, 48, 33
1, 27592, Tempo, 737101
1, 27600, Note_on_c, 0, 48, 0
1, 27600, Note_on_c, 0, 51, 40
1, 27632, Tempo, 741931
1, 27660, Note_on_c, 0, 51, 0
1, 27660, Note_on_c, 0, 48, 45
1, 27672, Tempo, 746733
1, 27712, Tempo, 751597
1, 27720, Note_on_c, 0, 48, 0
1, 27720, Note_on_c, 0, 51, 34
1, 27752, Tempo, 756525
1, 27772, Tempo, 740010
1, 27780, Tempo, 1116695
1, 27780, Note_on_c, 0, 51, 0
1, 27780, Note_on_c, 0, 48, 40
1, 27800, Note_on_c, 0, 48, 0
1, 27800, Note_on_c, 0, 46, 39
1, 27820, Note_on_c, 0, 50, 47
1, 27832, Tempo, 771803
1, 27840, Note_on_c, 0, 57, 0
1, 27840, Note_on_c, 0, 55, 54
1, 27850, Control_c, 0, 64, 0
1, 27872, Tempo, 766675
1, 27886, Control_c, 0, 64, 127
1, 27900, Tempo, 761518
1, 27900, Note_on_c, 0, 50, 0
1, 27900, Note_on_c, 0, 46, 0
1, 27900, Note_on_c, 0, 46, 34
1, 27924, Tempo, 756525
1, 27952, Tempo, 751597
1, 27960, Note_on_c, 0, 46, 0
1, 27960, Note_on_c, 0, 50, 43
1, 27980, Tempo, 746733
1, 28004, Tempo, 741931
1, 28012, Tempo, 735565
1, 28020, Note_on_c, 0, 50, 0
1, 28020, Note_on_c, 0, 46, 35
1, 28032, Tempo, 737101
1, 28060, Tempo, 741931
1, 28080, Note_on_c, 0, 46, 0
1, 28080, Note_on_c, 0, 50, 40
1, 28084, Tempo, 746733
1, 28112, Tempo, 751597
1, 28140, Tempo, 756525
1, 28140, Note_on_c, 0, 50, 0
1, 28140, Note_on_c, 0, 46, 35
1, 28164, Tempo, 761518
1, 28192, Tempo, 766675
1, 28200, Note_on_c, 0, 46, 0
1, 28200, Note_on_c, 0, 50, 44
1, 28220, Tempo, 771803
1, 28244, Tempo, 777001
1, 28252, Tempo, 753580
1, 28260, Tempo, 1137441
1, 28260, Note_on_c, 0, 50, 0
1, 28260, Note_on_c, 0, 46, 40
1, 28280, Note_on_c, 0, 46, 0
1, 28280, Note_on_c, 0, 45, 39
1, 28300, Note_on_c, 0, 50, 47
1, 28312, Tempo, 777001
1, 28320, Note_on_c, 0, 55, 0
1, 28320, Note_on_c, 0, 54, 54
1, 28334, Control_c, 0, 64, 0
1, 28352, Tempo, 771803
1, 28373, Control_c, 0, 64, 127
1, 28380, Note_on_c, 0, 50, 0
1, 28380, Note_on_c, 0, 45, 0
1, 28380, Note_on_c, 0, 45, 33
1, 28392, Tempo, 766675
1, 28432, Tempo, 761518
1, 28440, Note_on_c, 0, 45, 0
1, 28440, Note_on_c, 0, 50, 43
1, 28472, Tempo, 756525
1, 28500, Note_on_c, 0, 50, 0
1, 28500, Note_on_c, 0, 45, 34
1, 28512, Tempo, 751597
1, 28540, Tempo, 756525
1, 28560, Note_on_c, 0, 45, 0
1, 28560, Note_on_c, 0, 50, 42
1, 28564, Tempo, 761518
1, 28592, Tempo, 766675
1, 28620, Tempo, 771803
1, 28620, Note_on_c, 0, 50, 0
1, 28620, Note_on_c, 0, 45, 33
1, 28644, Tempo, 777001
1, 28672, Tempo, 782269
1, 28680, Note_on_c, 0, 45, 0
1, 28680, Note_on_c, 0, 50, 42
1, 28700, Tempo, 787608
1, 28724, Tempo, 793021
1, 28732, Tempo, 762970
1, 28740, Tempo, 1742666
1, 28740, Note_on_c, 0, 50, 0
1, 28740, Note_on_c, 0, 45, 32
1, 28755, Note_on_c, 0, 45, 0
1, 28755, Note_on_c, 0, 43, 40
1, 28770, Note_on_c, 0, 50, 40
1, 28784, Tempo, 833333
1, 28785, Note_on_c, 0, 58, 40
1, 28800, Tempo, 833333
1, 28800, Note_on_c, 0, 54, 0
1, 28800, Note_on_c, 0, 62, 50
1, 28800, Control_c, 0, 64, 0
1, 28844, Tempo, 821355
1, 28860, Note_on_c, 0, 58, 0
1, 28860, Note_on_c, 0, 55, 32
1, 28878, Control_c, 0, 64, 127
1, 28884, Tempo, 815550
1, 28912, Tempo, 809826
1, 28920, Note_on_c, 0, 55, 0
1, 28920, Note_on_c, 0, 58, 40
1, 28952, Tempo, 804182
1, 28980, Note_on_c, 0, 58, 0
1, 28980, Note_on_c, 0, 55, 31
1, 28992, Tempo, 798616
1, 29020, Tempo, 793021
1, 29040, Note_on_c, 0, 55, 0
1, 29040, Note_on_c, 0, 58, 40
1, 29060, Tempo, 787608
1, 29100, Tempo, 782269
1, 29100, Note_on_c, 0, 58, 0
1, 29100, Note_on_c, 0, 55, 31
1, 29140, Tempo, 777001
1, 29160, Note_on_c, 0, 55, 0
1, 29160, Note_on_c, 0, 58, 40
1, 29164, Tempo, 771803
1, 29204, Tempo, 766675
1, 29220, Note_on_c, 0, 58, 0
1, 29220, Note_on_c, 0, 55, 31
1, 29244, Tempo, 761518
1, 29272, Tempo, 745342
1, 29280, Note_on_c, 0, 55, 0
1, 29280, Note_on_c, 0, 58, 41
1, 29340, Tempo, 740741
1, 29340, Note_on_c, 0, 58, 0
1, 29340, Note_on_c, 0, 55, 33
1, 29400, Note_on_c, 0, 55, 0
1, 29400, Note_on_c, 0, 58, 41
1, 29404, Tempo, 736196
1, 29460, Note_on_c, 0, 58, 0
1, 29460, Note_on_c, 0, 55, 33
1, 29472, Tempo, 731707
1, 29520, Note_on_c, 0, 55, 0
1, 29520, Note_on_c, 0, 58, 42
1, 29540, Tempo, 727273
1, 29580, Note_on_c, 0, 58, 0
1, 29580, Note_on_c, 0, 55, 33
1, 29604, Tempo, 722892
1, 29640, Note_on_c, 0, 55, 0
1, 29640, Note_on_c, 0, 58, 42
1, 29672, Tempo, 718563
1, 29700, Note_on_c, 0, 58, 0
1, 29700, Note_on_c, 0, 55, 34
1, 29724, Tempo, 710059
1, 29760, Note_on_c, 0, 55, 0
1, 29760, Note_on_c, 0, 50, 0
1, 29760, Note_on_c, 0, 58, 42
1, 29775, Note_on_c, 0, 43, 0
1, 29780, Tempo, 714286
1, 29820, Note_on_c, 0, 58, 0
1, 29820, Note_on_c, 0, 55, 34
1, 29832, Tempo, 718563
1, 29880, Note_on_c, 0, 55, 0
1, 29880, Note_on_c, 0, 58, 43
1, 29884, Tempo, 722892
1, 29924, Tempo, 727273
1, 29940, Note_on_c, 0, 58, 0
1, 29940, Note_on_c, 0, 55, 34
1, 29980, Tempo, 731707
1, 30000, Note_on_c, 0, 55, 0
1, 30000, Note_on_c, 0, 58, 43
1, 30032, Tempo, 736196
1, 30060, Note_on_c, 0, 58, 0
1, 30060, Note_on_c, 0, 55, 34
1, 30072, Tempo, 740741
1, 30120, Note_on_c, 0, 55, 0
1, 30120, Note_on_c, 0, 58, 44
1, 30124, Tempo, 745342
1, 30180, Tempo, 750000
1, 30180, Note_on_c, 0, 58, 0
1, 30180, Note_on_c, 0, 55, 35
1, 30220, Tempo, 754717
1, 30224, Tempo, 758246
1, 30240, Note_on_c, 0, 55, 0
1, 30240, Note_on_c, 0, 62, 0
1, 30240, Note_on_c, 0, 62, 68
1, 30240, Note_on_c, 0, 59, 53
1, 30252, Tempo, 753580
1, 30253, Control_c, 0, 64, 0
1, 30280, Tempo, 748970
1, 30293, Control_c, 0, 64, 127
1, 30300, Note_on_c, 0, 59, 0
1, 30300, Note_on_c, 0, 55, 39
1, 30304, Tempo, 744509
1, 30332, Tempo, 740010
1, 30360, Tempo, 735565
1, 30360, Note_on_c, 0, 55, 0
1, 30360, Note_on_c, 0, 59, 47
1, 30372, Tempo, 731261
1, 30420, Note_on_c, 0, 59, 0
1, 30420, Note_on_c, 0, 55, 36
1, 30480, Note_on_c, 0, 55, 0
1, 30480, Note_on_c, 0, 59, 44
1, 30540, Note_on_c, 0, 59, 0
1, 30540, Note_on_c, 0, 55, 50
1, 30544, Tempo, 735565
1, 30600, Note_on_c, 0, 55, 0
1, 30600, Note_on_c, 0, 59, 37
1, 30624, Tempo, 735565
1, 30652, Tempo, 740010
1, 30660, Note_on_c, 0, 59, 0
1, 30660, Note_on_c, 0, 55, 45
1, 30680, Tempo, 744509
1, 30704, Tempo, 748970
1, 30720, Tempo, 753580
1, 30720, Note_on_c, 0, 55, 0
1, 30720, Note_on_c, 0, 62, 0
1, 30720, Note_on_c, 0, 63, 72
1, 30720, Note_on_c, 0, 60, 59
1, 30730, Control_c, 0, 64, 0
1, 30766, Control_c, 0, 64, 127
1, 30772, Tempo, 748970
1, 30780, Note_on_c, 0, 60, 0
1, 30780, Note_on_c, 0, 55, 44
1, 30812, Tempo, 744509
1, 30840, Note_on_c, 0, 55, 0
1, 30840, Note_on_c, 0, 60, 53
1, 30852, Tempo, 740010
1, 30892, Tempo, 735565
1, 30900, Note_on_c, 0, 60, 0
1, 30900, Note_on_c, 0, 55, 42
1, 30960, Tempo, 740010
1, 30960, Note_on_c, 0, 55, 0
1, 30960, Note_on_c, 0, 60, 50
1, 31012, Tempo, 744509
1, 31020, Note_on_c, 0, 60, 0
1, 31020, Note_on_c, 0, 55, 44
1, 31080, Tempo, 748970
1, 31080, Note_on_c, 0, 55, 0
1, 31080, Note_on_c, 0, 60, 50
1, 31132, Tempo, 753580
1, 31140, Note_on_c, 0, 60, 0
1, 31140, Note_on_c, 0, 55, 46
1, 31184, Tempo, 758246
1, 31200, Note_on_c, 0, 55, 0
1, 31200, Note_on_c, 0, 63, 0
1, 31200, Note_on_c, 0, 60, 66
1, 31200, Note_on_c, 0, 63, 66
1, 31200, Note_on_c, 0, 58, 61
1, 31214, Control_c, 0, 64, 0
1, 31240, Tempo, 753580
1, 31253, Control_c, 0, 64, 127
1, 31260, Note_on_c, 0, 58, 0
1, 31260, Note_on_c, 0, 54, 44
1, 31292, Tempo, 748970
1, 31320, Note_on_c, 0, 54, 0
1, 31320, Note_on_c, 0, 58, 55
1, 31344, Tempo, 744509
1, 31380, Note_on_c, 0, 58, 0
1, 31380, Note_on_c, 0, 54, 44
1, 31384, Tempo, 740010
1, 31414, Tempo, 736196
1, 31430, Tempo, 740741
1, 31440, Note_on_c, 0, 54, 0
1, 31440, Note_on_c, 0, 58, 52
1, 31442, Tempo, 745342
1, 31454, Tempo, 754717
1, 31470, Tempo, 759494
1, 31482, Tempo, 764331
1, 31494, Tempo, 774194
1, 31500, Note_on_c, 0, 58, 0
1, 31500, Note_on_c, 0, 54, 38
1, 31510, Tempo, 779221
1, 31522, Tempo, 789474
1, 31534, Tempo, 805369
1, 31550, Tempo, 827586
1, 31560, Note_on_c, 0, 54, 0
1, 31560, Note_on_c, 0, 58, 49
1, 31562, Tempo, 851064
1, 31574, Tempo, 875912
1, 31590, Tempo, 902256
1, 31602, Tempo, 923077
1, 31614, Tempo, 952381
1, 31620, Note_on_c, 0, 58, 0
1, 31620, Note_on_c, 0, 54, 40
1, 31630, Tempo, 983607
1, 31642, Tempo, 1016949
1, 31654, Tempo, 1052632
1, 31670, Tempo, 769231
1, 31680, Note_on_c, 0, 54, 0
1, 31680, Note_on_c, 0, 63, 0
1, 31680, Note_on_c, 0, 60, 0
1, 31680, Note_on_c, 0, 60, 61
1, 31680, Note_on_c, 0, 63, 61
1, 31680, Note_on_c, 0, 57, 44
1, 31698, Control_c, 0, 64, 0
1, 31710, Tempo, 764331
1, 31740, Note_on_c, 0, 57, 0
1, 31740, Control_c, 0, 64, 127
1, 31740, Note_on_c, 0, 53, 32
1, 31750, Tempo, 759494
1, 31790, Tempo, 754717
1, 31800, Note_on_c, 0, 53, 0
1, 31800, Note_on_c, 0, 57, 40
1, 31830, Tempo, 750000
1, 31854, Tempo, 745342
1, 31860, Note_on_c, 0, 57, 0
1, 31860, Note_on_c, 0, 53, 31
1, 31894, Tempo, 740741
1, 31920, Note_on_c, 0, 53, 0
1, 31920, Note_on_c, 0, 57, 40
1, 31934, Tempo, 736196
1, 31974, Tempo, 731707
1, 31980, Note_on_c, 0, 57, 0
1, 31980, Note_on_c, 0, 53, 31
1, 32002, Tempo, 727273
1, 32040, Note_on_c, 0, 53, 0
1, 32040, Note_on_c, 0, 57, 40
1, 32042, Tempo, 722892
1, 32082, Tempo, 718563
1, 32100, Note_on_c, 0, 57, 0
1, 32100, Note_on_c, 0, 53, 31
1, 32122, Tempo, 714286
1, 32134, Tempo, 714286
1, 32160, Note_on_c, 0, 53, 0
1, 32160, Note_on_c, 0, 57, 40
1, 32220, Note_on_c, 0, 57, 0
1, 32220, Note_on_c, 0, 53, 32
1, 32270, Tempo, 718563
1, 32280, Note_on_c, 0, 53, 0
1, 32280, Note_on_c, 0, 57, 40
1, 32340, Note_on_c, 0, 57, 0
1, 32340, Note_on_c, 0, 53, 32
1, 32390, Tempo, 722892
1, 32400, Note_on_c, 0, 53, 0
1, 32400, Note_on_c, 0, 57, 40
1, 32460, Note_on_c, 0, 57, 0
1, 32460, Note_on_c, 0, 53, 32
1, 32510, Tempo, 727273
1, 32520, Note_on_c, 0, 53, 0
1, 32520, Note_on_c, 0, 57, 40
1, 32580, Note_on_c, 0, 57, 0
1, 32580, Note_on_c, 0, 53, 32
1, 32630, Tempo, 731707
1, 32640, Note_on_c, 0, 53, 0
1, 32640, Note_on_c, 0, 57, 40
1, 32700, Note_on_c, 0, 57, 0
1, 32700, Note_on_c, 0, 53, 32
1, 32744, Tempo, 744509
1, 32760, Note_on_c, 0, 53, 0
1, 32760, Note_on_c, 0, 57, 40
1, 32820, Note_on_c, 0, 57, 0
1, 32820, Note_on_c, 0, 53, 33
1, 32864, Tempo, 748970
1, 32880, Note_on_c, 0, 53, 0
1, 32880, Note_on_c, 0, 57, 42
1, 32940, Note_on_c, 0, 57, 0
1, 32940, Note_on_c, 0, 53, 34
1, 32984, Tempo, 753580
1, 33000, Note_on_c, 0, 53, 0
1, 33000, Note_on_c, 0, 57, 43
1, 33040, Tempo, 761518
1, 33060, Note_on_c, 0, 57, 0
1, 33060, Note_on_c, 0, 53, 35
1, 33120, Note_on_c, 0, 53, 0
1, 33120, Note_on_c, 0, 63, 0
1, 33120, Note_on_c, 0, 60, 0
1, 33120, Note_on_c, 0, 60, 56
1, 33120, Note_on_c, 0, 63, 56
1, 33120, Note_on_c, 0, 57, 48
1, 33132, Tempo, 753580
1, 33133, Control_c, 0, 64, 0
1, 33160, Tempo, 748970
1, 33173, Control_c, 0, 64, 127
1, 33180, Note_on_c, 0, 57, 0
1, 33180, Note_on_c, 0, 54, 36
1, 33184, Tempo, 744509
1, 33212, Tempo, 740010
1, 33240, Tempo, 735565
1, 33240, Note_on_c, 0, 54, 0
1, 33240, Note_on_c, 0, 57, 44
1, 33252, Tempo, 731261
1, 33300, Note_on_c, 0, 57, 0
1, 33300, Note_on_c, 0, 54, 33
1, 33360, Note_on_c, 0, 54, 0
1, 33360, Note_on_c, 0, 57, 40
1, 33420, Note_on_c, 0, 57, 0
1, 33420, Note_on_c, 0, 54, 45
1, 33424, Tempo, 735565
1, 33480, Note_on_c, 0, 54, 0
1, 33480, Note_on_c, 0, 57, 34
1, 33504, Tempo, 735565
1, 33532, Tempo, 756525
1, 33540, Note_on_c, 0, 57, 0
1, 33540, Note_on_c, 0, 54, 40
1, 33600, Tempo, 753580
1, 33600, Note_on_c, 0, 54, 0
1, 33600, Note_on_c, 0, 63, 0
1, 33600, Note_on_c, 0, 60, 0
1, 33600, Note_on_c, 0, 62, 54
1, 33600, Note_on_c, 0, 58, 47
1, 33610, Control_c, 0, 64, 0
1, 33646, Control_c, 0, 64, 127
1, 33652, Tempo, 748970
1, 33660, Note_on_c, 0, 58, 0
1, 33660, Note_on_c, 0, 55, 34
1, 33692, Tempo, 744509
1, 33720, Note_on_c, 0, 55, 0
1, 33720, Note_on_c, 0, 58, 43
1, 33732, Tempo, 740010
1, 33772, Tempo, 735565
1, 33780, Note_on_c, 0, 58, 0
1, 33780, Note_on_c, 0, 55, 35
1, 33840, Tempo, 740010
1, 33840, Note_on_c, 0, 55, 0
1, 33840, Note_on_c, 0, 58, 40
1, 33892, Tempo, 744509
1, 33900, Note_on_c, 0, 58, 0
1, 33900, Note_on_c, 0, 55, 35
1, 33960, Tempo, 748970
1, 33960, Note_on_c, 0, 55, 0
1, 33960, Note_on_c, 0, 58, 44
1, 33984, Tempo, 751597
1, 34000, Tempo, 756525
1, 34012, Tempo, 766675
1, 34020, Note_on_c, 0, 58, 0
1, 34020, Note_on_c, 0, 55, 40
1, 34024, Tempo, 777001
1, 34040, Tempo, 782269
1, 34052, Tempo, 793021
1, 34064, Tempo, 804182
1, 34080, Tempo, 772599
1, 34080, Note_on_c, 0, 55, 0
1, 34080, Note_on_c, 0, 62, 0
1, 34080, Note_on_c, 0, 62, 54
1, 34080, Note_on_c, 0, 56, 47
1, 34094, Control_c, 0, 64, 0
1, 34120, Tempo, 753580
1, 34133, Control_c, 0, 64, 127
1, 34140, Note_on_c, 0, 53, 33
1, 34160, Note_on_c, 0, 56, 0
1, 34172, Tempo, 748970
1, 34200, Note_on_c, 0, 53, 0
1, 34200, Note_on_c, 0, 56, 43
1, 34224, Tempo, 744509
1, 34260, Note_on_c, 0, 56, 0
1, 34260, Note_on_c, 0, 53, 34
1, 34264, Tempo, 740010
1, 34310, Tempo, 736196
1, 34320, Note_on_c, 0, 53, 0
1, 34320, Note_on_c, 0, 56, 42
1, 34322, Tempo, 740741
1, 34334, Tempo, 750000
1, 34350, Tempo, 759494
1, 34362, Tempo, 769231
1, 34374, Tempo, 779221
1, 34380, Note_on_c, 0, 56, 0
1, 34380, Note_on_c, 0, 53, 33
1, 34390, Tempo, 784314
1, 34402, Tempo, 794702
1, 34414, Tempo, 805369
1, 34430, Tempo, 816327
1, 34440, Note_on_c, 0, 53, 0
1, 34440, Note_on_c, 0, 56, 42
1, 34442, Tempo, 827586
1, 34454, Tempo, 839161
1, 34500, Tempo, 1279863
1, 34500, Note_on_c, 0, 56, 0
1, 34500, Note_on_c, 0, 53, 34
1, 34520, Note_on_c, 0, 53, 0
1, 34520, Note_on_c, 0, 51, 32
1, 34540, Note_on_c, 0, 55, 44
1, 34560, Tempo, 772599
1, 34560, Note_on_c, 0, 62, 0
1, 34560, Note_on_c, 0, 60, 50
1, 34578, Control_c, 0, 64, 0
1, 34600, Tempo, 782371
1, 34620, Note_on_c, 0, 55, 0
1, 34620, Note_on_c, 0, 51, 0
1, 34620, Control_c, 0, 64, 127
1, 34620, Note_on_c, 0, 51, 32
1, 34640, Tempo, 777403
1, 34680, Note_on_c, 0, 51, 0
1, 34680, Note_on_c, 0, 55, 40
1, 34692, Tempo, 772599
1, 34732, Tempo, 767754
1, 34740, Note_on_c, 0, 55, 0
1, 34740, Note_on_c, 0, 51, 32
1, 34772, Tempo, 762970
1, 34800, Note_on_c, 0, 51, 0
1, 34800, Note_on_c, 0, 55, 42
1, 34824, Tempo, 758246
1, 34860, Note_on_c, 0, 55, 0
1, 34860, Note_on_c, 0, 51, 33
1, 34864, Tempo, 753580
1, 34904, Tempo, 748970
1, 34920, Note_on_c, 0, 51, 0
1, 34920, Note_on_c, 0, 55, 43
1, 34960, Tempo, 744509
1, 34980, Note_on_c, 0, 55, 0
1, 34980, Note_on_c, 0, 51, 33
1, 35000, Tempo, 740010
1, 35040, Tempo, 735565
1, 35040, Note_on_c, 0, 51, 0
1, 35040, Note_on_c, 0, 55, 44
1, 35100, Note_on_c, 0, 55, 0
1, 35100, Note_on_c, 0, 51, 35
1, 35160, Note_on_c, 0, 51, 0
1, 35160, Note_on_c, 0, 55, 45
1, 35220, Note_on_c, 0, 55, 0
1, 35220, Note_on_c, 0, 51, 36
1, 35280, Note_on_c, 0, 51, 0
1, 35280, Note_on_c, 0, 55, 45
1, 35340, Note_on_c, 0, 55, 0
1, 35340, Note_on_c, 0, 51, 36
1, 35400, Note_on_c, 0, 51, 0
1, 35400, Note_on_c, 0, 55, 46
1, 35460, Note_on_c, 0, 55, 0
1, 35460, Note_on_c, 0, 51, 37
1, 35504, Tempo, 740010
1, 35520, Note_on_c, 0, 51, 0
1, 35520, Note_on_c, 0, 55, 48
1, 35580, Note_on_c, 0, 55, 0
1, 35580, Note_on_c, 0, 51, 38
1, 35624, Tempo, 744509
1, 35640, Note_on_c, 0, 51, 0
1, 35640, Note_on_c, 0, 55, 48
1, 35700, Note_on_c, 0, 55, 0
1, 35700, Note_on_c, 0, 51, 39
1, 35744, Tempo, 748970
1, 35760, Note_on_c, 0, 51, 0
1, 35760, Note_on_c, 0, 55, 50
1, 35820, Note_on_c, 0, 55, 0
1, 35820, Note_on_c, 0, 51, 40
1, 35864, Tempo, 753580
1, 35880, Note_on_c, 0, 51, 0
1, 35880, Note_on_c, 0, 55, 51
1, 35924, Tempo, 762970
1, 35940, Note_on_c, 0, 55, 0
1, 35940, Note_on_c, 0, 51, 41
1, 35952, Tempo, 767754
1, 35980, Tempo, 777001
1, 36000, Note_on_c, 0, 51, 0
1, 36000, Note_on_c, 0, 60, 0
1, 36000, Note_on_c, 0, 61, 72
1, 36000, Note_on_c, 0, 55, 57
1, 36013, Control_c, 0, 64, 0
1, 36020, Tempo, 771803
1, 36053, Control_c, 0, 64, 127
1, 36060, Tempo, 766675
1, 36060, Note_on_c, 0, 55, 0
1, 36060, Note_on_c, 0, 52, 39
1, 36080, Tempo, 761518
1, 36120, Tempo, 756525
1, 36120, Note_on_c, 0, 52, 0
1, 36120, Note_on_c, 0, 55, 51
1, 36160, Tempo, 751597
1, 36180, Tempo, 746733
1, 36180, Note_on_c, 0, 55, 0
1, 36180, Note_on_c, 0, 52, 36
1, 36240, Note_on_c, 0, 52, 0
1, 36240, Note_on_c, 0, 55, 44
1, 36300, Note_on_c, 0, 55, 0
1, 36300, Note_on_c, 0, 52, 48
1, 36360, Note_on_c, 0, 52, 0
1, 36360, Note_on_c, 0, 55, 36
1, 36373, Tempo, 751597
1, 36420, Note_on_c, 0, 55, 0
1, 36420, Note_on_c, 0, 52, 43
1, 36426, Tempo, 756525
1, 36476, Tempo, 761518
1, 36480, Tempo, 753580
1, 36480, Note_on_c, 0, 52, 0
1, 36480, Note_on_c, 0, 61, 0
1, 36480, Note_on_c, 0, 60, 67
1, 36480, Note_on_c, 0, 55, 52
1, 36490, Control_c, 0, 64, 0
1, 36526, Control_c, 0, 64, 127
1, 36532, Tempo, 748970
1, 36540, Note_on_c, 0, 52, 36
1, 36560, Note_on_c, 0, 55, 0
1, 36572, Tempo, 744509
1, 36600, Note_on_c, 0, 52, 0
1, 36600, Note_on_c, 0, 55, 45
1, 36612, Tempo, 740010
1, 36652, Tempo, 735565
1, 36660, Note_on_c, 0, 55, 0
1, 36660, Note_on_c, 0, 52, 36
1, 36720, Tempo, 740010
1, 36720, Note_on_c, 0, 52, 0
1, 36720, Note_on_c, 0, 55, 44
1, 36772, Tempo, 744509
1, 36780, Note_on_c, 0, 55, 0
1, 36780, Note_on_c, 0, 52, 38
1, 36840, Tempo, 748970
1, 36840, Note_on_c, 0, 52, 0
1, 36840, Note_on_c, 0, 55, 45
1, 36892, Tempo, 753580
1, 36900, Tempo, 772599
1, 36900, Note_on_c, 0, 55, 0
1, 36900, Note_on_c, 0, 52, 41
1, 36924, Tempo, 777403
1, 36952, Tempo, 782371
1, 36960, Tempo, 772599
1, 36960, Note_on_c, 0, 52, 0
1, 36960, Note_on_c, 0, 60, 0
1, 36960, Note_on_c, 0, 58, 61
1, 36960, Note_on_c, 0, 55, 52
1, 36974, Control_c, 0, 64, 0
1, 37000, Tempo, 753580
1, 37013, Control_c, 0, 64, 127
1, 37020, Note_on_c, 0, 55, 0
1, 37020, Note_on_c, 0, 52, 34
1, 37052, Tempo, 748970
1, 37080, Note_on_c, 0, 52, 0
1, 37080, Note_on_c, 0, 55, 44
1, 37104, Tempo, 744509
1, 37140, Note_on_c, 0, 55, 0
1, 37140, Note_on_c, 0, 52, 35
1, 37144, Tempo, 740010
1, 37200, Tempo, 744509
1, 37200, Note_on_c, 0, 52, 0
1, 37200, Note_on_c, 0, 55, 42
1, 37240, Tempo, 748970
1, 37260, Note_on_c, 0, 55, 0
1, 37260, Note_on_c, 0, 52, 33
1, 37292, Tempo, 753580
1, 37320, Note_on_c, 0, 52, 0
1, 37320, Note_on_c, 0, 55, 42
1, 37332, Tempo, 758246
1, 37372, Tempo, 762970
1, 37373, Tempo, 756525
1, 37380, Note_on_c, 0, 55, 0
1, 37380, Note_on_c, 0, 52, 33
1, 37436, Tempo, 761518
1, 37440, Note_on_c, 0, 52, 0
1, 37440, Note_on_c, 0, 58, 0
1, 37440, Note_on_c, 0, 60, 61
1, 37440, Note_on_c, 0, 57, 46
1, 37449, Control_c, 0, 64, 0
1, 37460, Tempo, 761518
1, 37474, Control_c, 0, 64, 127
1, 37500, Note_on_c, 0, 57, 0
1, 37500, Note_on_c, 0, 53, 37
1, 37560, Note_on_c, 0, 53, 0
1, 37560, Note_on_c, 0, 57, 46
1, 37580, Tempo, 756525
1, 37620, Note_on_c, 0, 57, 0
1, 37620, Note_on_c, 0, 53, 36
1, 37680, Note_on_c, 0, 53, 0
1, 37680, Note_on_c, 0, 57, 45
1, 37700, Tempo, 751597
1, 37740, Note_on_c, 0, 57, 0
1, 37740, Note_on_c, 0, 53, 34
1, 37800, Note_on_c, 0, 53, 0
1, 37800, Note_on_c, 0, 57, 45
1, 37820, Tempo, 746733
1, 37860, Note_on_c, 0, 57, 0
1, 37860, Note_on_c, 0, 53, 36
1, 37880, Note_on_c, 0, 53, 0
1, 37880, Note_on_c, 0, 51, 36
1, 37900, Note_on_c, 0, 57, 45
1, 37920, Tempo, 741931
1, 37920, Note_on_c, 0, 60, 0
1, 37920, Note_on_c, 0, 65, 64
1, 37980, Note_on_c, 0, 57, 0
1, 37980, Note_on_c, 0, 51, 0
1, 37980, Note_on_c, 0, 51, 38
1, 38040, Note_on_c, 0, 51, 0
1, 38040, Note_on_c, 0, 57, 47
1, 38100, Note_on_c, 0, 57, 0
1, 38100, Note_on_c, 0, 51, 44
1, 38160, Note_on_c, 0, 51, 0
1, 38160, Note_on_c, 0, 57, 48
1, 38220, Note_on_c, 0, 57, 0
1, 38220, Note_on_c, 0, 51, 38
1, 38280, Note_on_c, 0, 51, 0
1, 38280, Note_on_c, 0, 57, 45
1, 38340, Tempo, 1161665
1, 38340, Note_on_c, 0, 57, 0
1, 38340, Note_on_c, 0, 51, 37
1, 38360, Note_on_c, 0, 51, 0
1, 38360, Note_on_c, 0, 50, 40
1, 38380, Note_on_c, 0, 58, 46
1, 38400, Tempo, 746733
1, 38400, Note_on_c, 0, 65, 0
1, 38400, Note_on_c, 0, 65, 63
1, 38411, Control_c, 0, 64, 0
1, 38460, Note_on_c, 0, 58, 0
1, 38460, Note_on_c, 0, 50, 0
1, 38460, Note_on_c, 0, 50, 38
1, 38471, Control_c, 0, 64, 127
1, 38520, Note_on_c, 0, 50, 0
1, 38520, Note_on_c, 0, 58, 46
1, 38580, Note_on_c, 0, 58, 0
1, 38580, Note_on_c, 0, 50, 38
1, 38640, Note_on_c, 0, 50, 0
1, 38640, Note_on_c, 0, 58, 47
1, 38700, Note_on_c, 0, 58, 0
1, 38700, Note_on_c, 0, 50, 39
1, 38760, Note_on_c, 0, 50, 0
1, 38760, Note_on_c, 0, 58, 47
1, 38820, Tempo, 1055038
1, 38820, Note_on_c, 0, 58, 0
1, 38820, Note_on_c, 0, 50, 39
1, 38840, Note_on_c, 0, 50, 0
1, 38840, Note_on_c, 0, 54, 42
1, 38860, Note_on_c, 0, 57, 47
1, 38880, Tempo, 746733
1, 38880, Note_on_c, 0, 65, 0
1, 38880, Note_on_c, 0, 60, 66
1, 38891, Control_c, 0, 64, 0
1, 38900, Tempo, 746733
1, 38940, Note_on_c, 0, 57, 0
1, 38940, Note_on_c, 0, 54, 0
1, 38940, Control_c, 0, 64, 127
1, 38940, Note_on_c, 0, 54, 39
1, 38960, Tempo, 741931
1, 39000, Tempo, 737101
1, 39000, Note_on_c, 0, 54, 0
1, 39000, Note_on_c, 0, 57, 48
1, 39060, Tempo, 732422
1, 39060, Note_on_c, 0, 57, 0
1, 39060, Note_on_c, 0, 54, 39
1, 39100, Tempo, 727802
1, 39120, Note_on_c, 0, 54, 0
1, 39120, Note_on_c, 0, 57, 48
1, 39140, Tempo, 732422
1, 39180, Tempo, 737101
1, 39180, Note_on_c, 0, 57, 0
1, 39180, Note_on_c, 0, 54, 40
1, 39220, Tempo, 741931
1, 39240, Note_on_c, 0, 54, 0
1, 39240, Note_on_c, 0, 57, 49
1, 39260, Tempo, 746733
1, 39300, Tempo, 1064774
1, 39300, Note_on_c, 0, 57, 0
1, 39300, Note_on_c, 0, 54, 40
1, 39320, Note_on_c, 0, 54, 0
1, 39320, Note_on_c, 0, 53, 43
1, 39340, Note_on_c, 0, 58, 49
1, 39360, Tempo, 756525
1, 39360, Note_on_c, 0, 60, 0
1, 39360, Note_on_c, 0, 62, 67
1, 39372, Control_c, 0, 64, 0
1, 39400, Tempo, 751597
1, 39420, Note_on_c, 0, 58, 0
1, 39420, Note_on_c, 0, 53, 0
1, 39420, Note_on_c, 0, 53, 40
1, 39429, Control_c, 0, 64, 127
1, 39460, Tempo, 746733
1, 39480, Note_on_c, 0, 53, 0
1, 39480, Note_on_c, 0, 58, 50
1, 39520, Tempo, 741931
1, 39540, Note_on_c, 0, 58, 0
1, 39540, Note_on_c, 0, 53, 40
1, 39580, Tempo, 737101
1, 39600, Note_on_c, 0, 53, 0
1, 39600, Note_on_c, 0, 58, 50
1, 39620, Tempo, 741931
1, 39640, Tempo, 746733
1, 39660, Tempo, 751597
1, 39660, Note_on_c, 0, 58, 0
1, 39660, Note_on_c, 0, 53, 41
1, 39680, Tempo, 756525
1, 39700, Tempo, 761518
1, 39720, Note_on_c, 0, 53, 0
1, 39720, Note_on_c, 0, 58, 51
1, 39780, Tempo, 1150086
1, 39780, Note_on_c, 0, 58, 0
1, 39780, Note_on_c, 0, 53, 42
1, 39800, Note_on_c, 0, 53, 0
1, 39800, Note_on_c, 0, 51, 44
1, 39820, Note_on_c, 0, 57, 51
1, 39840, Tempo, 727802
1, 39840, Note_on_c, 0, 62, 0
1, 39840, Note_on_c, 0, 65, 67
1, 39900, Note_on_c, 0, 57, 0
1, 39900, Note_on_c, 0, 51, 0
1, 39900, Note_on_c, 0, 51, 44
1, 39960, Note_on_c, 0, 51, 0
1, 39960, Note_on_c, 0, 57, 52
1, 40020, Note_on_c, 0, 57, 0
1, 40020, Note_on_c, 0, 51, 43
1, 40080, Note_on_c, 0, 51, 0
1, 40080, Note_on_c, 0, 57, 52
1, 40140, Note_on_c, 0, 57, 0
1, 40140, Note_on_c, 0, 51, 43
1, 40200, Note_on_c, 0, 51, 0
1, 40200, Note_on_c, 0, 57, 53
1, 40260, Tempo, 1017639
1, 40260, Note_on_c, 0, 57, 0
1, 40260, Note_on_c, 0, 51, 43
1, 40280, Note_on_c, 0, 51, 0
1, 40280, Note_on_c, 0, 50, 46
1, 40300, Note_on_c, 0, 58, 53
1, 40320, Tempo, 723240
1, 40320, Note_on_c, 0, 65, 0
1, 40320, Note_on_c, 0, 65, 69
1, 40339, Control_c, 0, 64, 0
1, 40356, Control_c, 0, 64, 127
1, 40380, Note_on_c, 0, 58, 0
1, 40380, Note_on_c, 0, 50, 0
1, 40380, Note_on_c, 0, 50, 44
1, 40420, Tempo, 718735
1, 40440, Note_on_c, 0, 50, 0
1, 40440, Note_on_c, 0, 58, 52
1, 40500, Note_on_c, 0, 58, 0
1, 40500, Note_on_c, 0, 50, 43
1, 40520, Tempo, 714286
1, 40560, Note_on_c, 0, 50, 0
1, 40560, Note_on_c, 0, 58, 52
1, 40620, Tempo, 709807
1, 40620, Note_on_c, 0, 58, 0
1, 40620, Note_on_c, 0, 50, 44
1, 40680, Note_on_c, 0, 50, 0
1, 40680, Note_on_c, 0, 58, 52
1, 40720, Tempo, 705467
1, 40740, Note_on_c, 0, 58, 0
1, 40740, Note_on_c, 0, 50, 44
1, 40800, Tempo, 701180
1, 40800, Note_on_c, 0, 50, 0
1, 40800, Note_on_c, 0, 65, 0
1, 40800, Note_on_c, 0, 66, 74
1, 40800, Note_on_c, 0, 58, 52
1, 40810, Control_c, 0, 64, 0
1, 40834, Control_c, 0, 64, 127
1, 40860, Note_on_c, 0, 58, 0
1, 40860, Note_on_c, 0, 50, 44
1, 40900, Tempo, 696945
1, 40920, Note_on_c, 0, 50, 0
1, 40920, Note_on_c, 0, 58, 52
1, 40960, Tempo, 701180
1, 40980, Note_on_c, 0, 58, 0
1, 40980, Note_on_c, 0, 50, 44
1, 41000, Tempo, 705467
1, 41040, Tempo, 709807
1, 41040, Note_on_c, 0, 50, 0
1, 41040, Note_on_c, 0, 58, 52
1, 41080, Tempo, 714286
1, 41100, Note_on_c, 0, 58, 0
1, 41100, Note_on_c, 0, 50, 45
1, 41120, Tempo, 718735
1, 41160, Note_on_c, 0, 50, 0
1, 41160, Note_on_c, 0, 58, 52
1, 41220, Tempo, 895522
1, 41220, Note_on_c, 0, 58, 0
1, 41220, Note_on_c, 0, 50, 45
1, 41240, Note_on_c, 0, 50, 0
1, 41240, Note_on_c, 0, 51, 48
1, 41260, Note_on_c, 0, 58, 53
1, 41280, Tempo, 737101
1, 41280, Note_on_c, 0, 66, 0
1, 41280, Note_on_c, 0, 67, 72
1, 41290, Control_c, 0, 64, 0
1, 41308, Control_c, 0, 64, 127
1, 41340, Note_on_c, 0, 58, 0
1, 41340, Note_on_c, 0, 51, 0
1, 41340, Note_on_c, 0, 51, 45
1, 41380, Tempo, 732422
1, 41400, Note_on_c, 0, 51, 0
1, 41400, Note_on_c, 0, 58, 53
1, 41460, Note_on_c, 0, 58, 0
1, 41460, Note_on_c, 0, 51, 45
1, 41480, Tempo, 727802
1, 41520, Note_on_c, 0, 51, 0
1, 41520, Note_on_c, 0, 58, 52
1, 41580, Tempo, 723240
1, 41580, Note_on_c, 0, 58, 0
1, 41580, Note_on_c, 0, 51, 45
1, 41640, Note_on_c, 0, 51, 0
1, 41640, Note_on_c, 0, 58, 54
1, 41660, Tempo, 718735
1, 41700, Note_on_c, 0, 58, 0
1, 41700, Note_on_c, 0, 51, 46
1, 41760, Note_on_c, 0, 51, 0
1, 41760, Note_on_c, 0, 67, 0
1, 41760, Note_on_c, 0, 67, 75
1, 41760, Note_on_c, 0, 61, 54
1, 41760, Note_on_c, 0, 58, 54
1, 41766, Control_c, 0, 64, 0
1, 41792, Control_c, 0, 64, 127
1, 41820, Note_on_c, 0, 58, 0
1, 41820, Note_on_c, 0, 61, 0
1, 41820, Note_on_c, 0, 52, 47
1, 41860, Tempo, 723240
1, 41880, Note_on_c, 0, 52, 0
1, 41880, Note_on_c, 0, 61, 55
1, 41880, Note_on_c, 0, 58, 55
1, 41940, Note_on_c, 0, 58, 0
1, 41940, Note_on_c, 0, 61, 0
1, 41940, Note_on_c, 0, 52, 47
1, 42000, Note_on_c, 0, 52, 0
1, 42000, Note_on_c, 0, 61, 56
1, 42000, Note_on_c, 0, 58, 56
1, 42060, Tempo, 727802
1, 42060, Note_on_c, 0, 58, 0
1, 42060, Note_on_c, 0, 61, 0
1, 42060, Note_on_c, 0, 52, 47
1, 42120, Note_on_c, 0, 52, 0
1, 42120, Note_on_c, 0, 61, 57
1, 42120, Note_on_c, 0, 58, 57
1, 42180, Tempo, 912686
1, 42180, Note_on_c, 0, 58, 0
1, 42180, Note_on_c, 0, 61, 0
1, 42180, Note_on_c, 0, 52, 48
1, 42220, Tempo, 737101
1, 42240, Note_on_c, 0, 52, 0
1, 42240, Note_on_c, 0, 67, 0
1, 42240, Note_on_c, 0, 70, 75
1, 42240, Note_on_c, 0, 61, 59
1, 42240, Note_on_c, 0, 64, 59
1, 42253, Control_c, 0, 64, 0
1, 42273, Control_c, 0, 64, 127
1, 42300, Note_on_c, 0, 64, 0
1, 42300, Note_on_c, 0, 61, 0
1, 42300, Note_on_c, 0, 55, 50
1, 42360, Note_on_c, 0, 55, 0
1, 42360, Note_on_c, 0, 61, 59
1, 42360, Note_on_c, 0, 64, 59
1, 42420, Note_on_c, 0, 64, 0
1, 42420, Note_on_c, 0, 61, 0
1, 42420, Note_on_c, 0, 55, 50
1, 42480, Tempo, 732422
1, 42480, Note_on_c, 0, 55, 0
1, 42480, Note_on_c, 0, 61, 60
1, 42480, Note_on_c, 0, 64, 60
1, 42500, Tempo, 727273
1, 42540, Note_on_c, 0, 64, 0
1, 42540, Note_on_c, 0, 61, 0
1, 42540, Note_on_c, 0, 55, 51
1, 42560, Tempo, 722892
1, 42600, Tempo, 718563
1, 42600, Note_on_c, 0, 55, 0
1, 42600, Note_on_c, 0, 61, 60
1, 42600, Note_on_c, 0, 64, 60
1, 42640, Tempo, 714286
1, 42660, Note_on_c, 0, 64, 0
1, 42660, Note_on_c, 0, 61, 0
1, 42660, Note_on_c, 0, 55, 51
1, 42680, Tempo, 710059
1, 42720, Tempo, 705882
1, 42720, Note_on_c, 0, 55, 0
1, 42720, Note_on_c, 0, 70, 0
1, 42720, Note_on_c, 0, 73, 78
1, 42720, Note_on_c, 0, 64, 60
1, 42720, Note_on_c, 0, 67, 60
1, 42732, Control_c, 0, 64, 0
1, 42740, Tempo, 727802
1, 42764, Control_c, 0, 64, 127
1, 42780, Note_on_c, 0, 67, 0
1, 42780, Note_on_c, 0, 64, 0
1, 42780, Note_on_c, 0, 58, 52
1, 42820, Tempo, 732422
1, 42840, Note_on_c, 0, 58, 0
1, 42840, Note_on_c, 0, 64, 61
1, 42840, Note_on_c, 0, 67, 61
1, 42880, Tempo, 737101
1, 42900, Note_on_c, 0, 67, 0
1, 42900, Note_on_c, 0, 64, 0
1, 42900, Note_on_c, 0, 58, 51
1, 42940, Tempo, 741931
1, 42960, Note_on_c, 0, 58, 0
1, 42960, Note_on_c, 0, 64, 62
1, 42960, Note_on_c, 0, 67, 62
1, 43020, Tempo, 746733
1, 43020, Note_on_c, 0, 67, 0
1, 43020, Note_on_c, 0, 64, 0
1, 43020, Note_on_c, 0, 58, 56
1, 43080, Tempo, 751597
1, 43080, Note_on_c, 0, 58, 0
1, 43080, Note_on_c, 0, 64, 64
1, 43080, Note_on_c, 0, 67, 64
1, 43100, Tempo, 745342
1, 43120, Tempo, 764331
1, 43140, Tempo, 784314
1, 43140, Note_on_c, 0, 67, 0
1, 43140, Note_on_c, 0, 64, 0
1, 43140, Note_on_c, 0, 58, 51
1, 43160, Tempo, 805369
1, 43180, Tempo, 827586
1, 43200, Tempo, 751597
1, 43200, Note_on_c, 0, 58, 0
1, 43200, Note_on_c, 0, 73, 0
1, 43200, Note_on_c, 0, 74, 81
1, 43200, Note_on_c, 0, 65, 64
1, 43208, Control_c, 0, 64, 0
1, 43260, Note_on_c, 0, 65, 0
1, 43260, Note_on_c, 0, 58, 52
1, 43274, Control_c, 0, 64, 127
1, 43280, Tempo, 746733
1, 43320, Note_on_c, 0, 58, 0
1, 43320, Note_on_c, 0, 65, 63
1, 43340, Tempo, 741931
1, 43380, Note_on_c, 0, 65, 0
1, 43380, Note_on_c, 0, 58, 52
1, 43400, Tempo, 737101
1, 43440, Note_on_c, 0, 58, 0
1, 43440, Note_on_c, 0, 65, 63
1, 43460, Tempo, 732422
1, 43500, Note_on_c, 0, 65, 0
1, 43500, Note_on_c, 0, 58, 53
1, 43560, Note_on_c, 0, 58, 0
1, 43560, Note_on_c, 0, 65, 63
1, 43620, Note_on_c, 0, 65, 0
1, 43620, Note_on_c, 0, 58, 52
1, 43680, Note_on_c, 0, 58, 0
1, 43680, Note_on_c, 0, 74, 0
1, 43680, Note_on_c, 0, 70, 74
1, 43680, Note_on_c, 0, 62, 63
1, 43700, Tempo, 737101
1, 43740, Note_on_c, 0, 62, 0
1, 43740, Note_on_c, 0, 53, 52
1, 43800, Note_on_c, 0, 53, 0
1, 43800, Note_on_c, 0, 62, 62
1, 43860, Note_on_c, 0, 62, 0
1, 43860, Note_on_c, 0, 53, 51
1, 43920, Note_on_c, 0, 53, 0
1, 43920, Note_on_c, 0, 62, 61
1, 43980, Note_on_c, 0, 62, 0
1, 43980, Note_on_c, 0, 53, 50
1, 44040, Note_on_c, 0, 53, 0
1, 44040, Note_on_c, 0, 62, 60
1, 44100, Note_on_c, 0, 62, 0
1, 44100, Note_on_c, 0, 53, 50
1, 44120, Tempo, 727802
1, 44160, Note_on_c, 0, 53, 0
1, 44160, Note_on_c, 0, 70, 0
1, 44160, Note_on_c, 0, 65, 70
1, 44160, Note_on_c, 0, 58, 56
1, 44177, Control_c, 0, 64, 0
1, 44217, Control_c, 0, 64, 127
1, 44220, Tempo, 732422
1, 44220, Note_on_c, 0, 58, 0
1, 44220, Note_on_c, 0, 50, 46
1, 44280, Note_on_c, 0, 50, 0
1, 44280, Note_on_c, 0, 58, 55
1, 44300, Tempo, 737101
1, 44340, Note_on_c, 0, 58, 0
1, 44340, Note_on_c, 0, 50, 45
1, 44380, Tempo, 741931
1, 44400, Note_on_c, 0, 50, 0
1, 44400, Note_on_c, 0, 58, 55
1, 44460, Note_on_c, 0, 58, 0
1, 44460, Note_on_c, 0, 50, 45
1, 44480, Tempo, 746733
1, 44520, Note_on_c, 0, 50, 0
1, 44520, Note_on_c, 0, 58, 54
1, 44560, Tempo, 751597
1, 44580, Note_on_c, 0, 58, 0
1, 44580, Note_on_c, 0, 50, 45
1, 44620, Tempo, 746733
1, 44640, Note_on_c, 0, 50, 0
1, 44640, Note_on_c, 0, 59, 54
1, 44652, Control_c, 0, 64, 0
1, 44680, Tempo, 741931
1, 44686, Control_c, 0, 64, 127
1, 44700, Note_on_c, 0, 59, 0
1, 44700, Note_on_c, 0, 50, 44
1, 44720, Tempo, 737101
1, 44760, Tempo, 732422
1, 44760, Note_on_c, 0, 50, 0
1, 44760, Note_on_c, 0, 59, 54
1, 44800, Tempo, 727802
1, 44820, Note_on_c, 0, 59, 0
1, 44820, Note_on_c, 0, 50, 44
1, 44840, Tempo, 723240
1, 44860, Tempo, 723240
1, 44880, Note_on_c, 0, 50, 0
1, 44880, Note_on_c, 0, 59, 53
1, 44900, Tempo, 727802
1, 44920, Tempo, 732422
1, 44940, Tempo, 737101
1, 44940, Note_on_c, 0, 59, 0
1, 44940, Note_on_c, 0, 50, 44
1, 44960, Tempo, 741931
1, 44980, Tempo, 746733
1, 45000, Note_on_c, 0, 50, 0
1, 45000, Note_on_c, 0, 59, 52
1, 45060, Tempo, 864678
1, 45060, Note_on_c, 0, 59, 0
1, 45060, Note_on_c, 0, 50, 43
1, 45100, Tempo, 756525
1, 45120, Note_on_c, 0, 50, 0
1, 45120, Note_on_c, 0, 65, 0
1, 45120, Note_on_c, 0, 65, 63
1, 45120, Note_on_c, 0, 60, 52
1, 45135, Control_c, 0, 64, 0
1, 45171, Control_c, 0, 64, 127
1, 45180, Note_on_c, 0, 60, 0
1, 45180, Note_on_c, 0, 51, 43
1, 45200, Tempo, 751597
1, 45240, Note_on_c, 0, 51, 0
1, 45240, Note_on_c, 0, 60, 51
1, 45280, Tempo, 746733
1, 45300, Note_on_c, 0, 60, 0
1, 45300, Note_on_c, 0, 51, 42
1, 45360, Tempo, 751597
1, 45360, Note_on_c, 0, 51, 0
1, 45360, Note_on_c, 0, 60, 50
1, 45420, Note_on_c, 0, 60, 0
1, 45420, Note_on_c, 0, 51, 41
1, 45440, Tempo, 756525
1, 45480, Note_on_c, 0, 51, 0
1, 45480, Note_on_c, 0, 60, 50
1, 45520, Tempo, 761518
1, 45540, Note_on_c, 0, 60, 0
1, 45540, Note_on_c, 0, 51, 41
1, 45600, Tempo, 754717
1, 45600, Note_on_c, 0, 51, 0
1, 45600, Note_on_c, 0, 57, 50
1, 45660, Note_on_c, 0, 57, 0
1, 45660, Note_on_c, 0, 48, 40
1, 45680, Tempo, 759494
1, 45720, Note_on_c, 0, 48, 0
1, 45720, Note_on_c, 0, 57, 49
1, 45740, Tempo, 764331
1, 45780, Note_on_c, 0, 57, 0
1, 45780, Note_on_c, 0, 48, 40
1, 45800, Tempo, 769231
1, 45840, Note_on_c, 0, 48, 0
1, 45840, Note_on_c, 0, 57, 48
1, 45880, Tempo, 774194
1, 45900, Note_on_c, 0, 57, 0
1, 45900, Note_on_c, 0, 48, 39
1, 45940, Tempo, 779221
1, 45960, Note_on_c, 0, 48, 0
1, 45960, Note_on_c, 0, 57, 47
1, 46000, Tempo, 784314
1, 46020, Note_on_c, 0, 57, 0
1, 46020, Note_on_c, 0, 48, 39
1, 46044, Tempo, 833333
1, 46080, Tempo, 772599
1, 46080, Note_on_c, 0, 48, 0
1, 46080, Note_on_c, 0, 65, 0
1, 46080, Note_on_c, 0, 46, 50
1, 46080, Note_on_c, 0, 58, 50
1, 46080, Note_on_c, 0, 50, 40
1, 46090, Control_c, 0, 64, 0
1, 46120, Tempo, 782371
1, 46140, Note_on_c, 0, 50, 0
1, 46140, Control_c, 0, 64, 127
1, 46140, Note_on_c, 0, 53, 32
1, 46160, Tempo, 777403
1, 46200, Note_on_c, 0, 53, 0
1, 46200, Note_on_c, 0, 50, 40
1, 46212, Tempo, 772599
1, 46252, Tempo, 767754
1, 46260, Note_on_c, 0, 50, 0
1, 46260, Note_on_c, 0, 53, 32
1, 46292, Tempo, 762970
1, 46320, Note_on_c, 0, 53, 0
1, 46320, Note_on_c, 0, 50, 42
1, 46344, Tempo, 758246
1, 46380, Note_on_c, 0, 50, 0
1, 46380, Note_on_c, 0, 53, 34
1, 46384, Tempo, 753580
1, 46424, Tempo, 748970
1, 46440, Note_on_c, 0, 53, 0
1, 46440, Note_on_c, 0, 50, 44
1, 46480, Tempo, 744509
1, 46500, Note_on_c, 0, 50, 0
1, 46500, Note_on_c, 0, 53, 34
1, 46520, Tempo, 740010
1, 46560, Tempo, 735565
1, 46560, Note_on_c, 0, 53, 0
1, 46560, Note_on_c, 0, 50, 44
1, 46620, Note_on_c, 0, 50, 0
1, 46620, Note_on_c, 0, 53, 32
1, 46680, Note_on_c, 0, 53, 0
1, 46680, Note_on_c, 0, 50, 43
1, 46740, Note_on_c, 0, 50, 0
1, 46740, Note_on_c, 0, 53, 35
1, 46800, Note_on_c, 0, 53, 0
1, 46800, Note_on_c, 0, 50, 45
1, 46860, Note_on_c, 0, 50, 0
1, 46860, Note_on_c, 0, 53, 35
1, 46920, Note_on_c, 0, 53, 0
1, 46920, Note_on_c, 0, 50, 46
1, 46980, Note_on_c, 0, 50, 0
1, 46980, Note_on_c, 0, 53, 35
1, 47024, Tempo, 740010
1, 47040, Note_on_c, 0, 53, 0
1, 47040, Note_on_c, 0, 50, 47
1, 47100, Note_on_c, 0, 50, 0
1, 47100, Note_on_c, 0, 53, 36
1, 47144, Tempo, 744509
1, 47160, Note_on_c, 0, 53, 0
1, 47160, Note_on_c, 0, 50, 45
1, 47220, Note_on_c, 0, 50, 0
1, 47220, Note_on_c, 0, 53, 34
1, 47264, Tempo, 748970
1, 47280, Note_on_c, 0, 53, 0
1, 47280, Note_on_c, 0, 50, 45
1, 47340, Note_on_c, 0, 50, 0
1, 47340, Note_on_c, 0, 53, 34
1, 47384, Tempo, 753580
1, 47400, Note_on_c, 0, 53, 0
1, 47400, Note_on_c, 0, 50, 45
1, 47444, Tempo, 762970
1, 47460, Note_on_c, 0, 50, 0
1, 47460, Note_on_c, 0, 53, 34
1, 47472, Tempo, 767754
1, 47480, Note_on_c, 0, 58, 0
1, 47480, Note_on_c, 0, 46, 0
1, 47480, Note_on_c, 0, 46, 45
1, 47500, Tempo, 777001
1, 47500, Note_on_c, 0, 53, 43
1, 47520, Note_on_c, 0, 53, 0
1, 47520, Note_on_c, 0, 62, 51
1, 47520, Note_on_c, 0, 56, 45
1, 47533, Control_c, 0, 64, 0
1, 47540, Tempo, 771803
1, 47573, Control_c, 0, 64, 127
1, 47580, Tempo, 766675
1, 47580, Note_on_c, 0, 56, 0
1, 47580, Note_on_c, 0, 53, 36
1, 47600, Tempo, 761518
1, 47640, Tempo, 756525
1, 47640, Note_on_c, 0, 53, 0
1, 47640, Note_on_c, 0, 56, 44
1, 47680, Tempo, 751597
1, 47700, Tempo, 746733
1, 47700, Note_on_c, 0, 56, 0
1, 47700, Note_on_c, 0, 53, 32
1, 47760, Note_on_c, 0, 53, 0
1, 47760, Note_on_c, 0, 56, 44
1, 47820, Note_on_c, 0, 56, 0
1, 47820, Note_on_c, 0, 53, 36
1, 47880, Note_on_c, 0, 53, 0
1, 47880, Note_on_c, 0, 56, 44
1, 47900, Tempo, 751597
1, 47904, Tempo, 735565
1, 47932, Tempo, 740010
1, 47940, Tempo, 1116695
1, 47940, Note_on_c, 0, 56, 0
1, 47940, Note_on_c, 0, 53, 35
1, 47960, Note_on_c, 0, 46, 0
1, 47960, Note_on_c, 0, 62, 0
1, 47960, Note_on_c, 0, 53, 0
1, 47960, Note_on_c, 0, 46, 47
1, 48000, Tempo, 753580
1, 48000, Note_on_c, 0, 53, 0
1, 48000, Note_on_c, 0, 63, 56
1, 48000, Note_on_c, 0, 55, 46
1, 48010, Control_c, 0, 64, 0
1, 48046, Control_c, 0, 64, 127
1, 48052, Tempo, 748970
1, 48060, Note_on_c, 0, 55, 0
1, 48060, Note_on_c, 0, 51, 38
1, 48092, Tempo, 744509
1, 48120, Note_on_c, 0, 51, 0
1, 48120, Note_on_c, 0, 55, 48
1, 48132, Tempo, 740010
1, 48172, Tempo, 735565
1, 48180, Note_on_c, 0, 55, 0
1, 48180, Note_on_c, 0, 51, 36
1, 48240, Tempo, 740010
1, 48240, Note_on_c, 0, 51, 0
1, 48240, Note_on_c, 0, 55, 48
1, 48292, Tempo, 744509
1, 48300, Note_on_c, 0, 55, 0
1, 48300, Note_on_c, 0, 51, 40
1, 48360, Tempo, 748970
1, 48360, Note_on_c, 0, 51, 0
1, 48360, Note_on_c, 0, 55, 49
1, 48412, Tempo, 753580
1, 48420, Tempo, 772599
1, 48420, Note_on_c, 0, 55, 0
1, 48420, Note_on_c, 0, 51, 41
1, 48440, Note_on_c, 0, 63, 0
1, 48440, Note_on_c, 0, 46, 0
1, 48440, Note_on_c, 0, 46, 50
1, 48444, Tempo, 777403
1, 48472, Tempo, 782371
1, 48480, Tempo, 772599
1, 48480, Note_on_c, 0, 51, 0
1, 48480, Note_on_c, 0, 63, 61
1, 48480, Note_on_c, 0, 54, 49
1, 48494, Control_c, 0, 64, 0
1, 48520, Tempo, 753580
1, 48533, Control_c, 0, 64, 127
1, 48540, Note_on_c, 0, 54, 0
1, 48540, Note_on_c, 0, 49, 34
1, 48572, Tempo, 748970
1, 48600, Note_on_c, 0, 49, 0
1, 48600, Note_on_c, 0, 54, 50
1, 48624, Tempo, 744509
1, 48660, Note_on_c, 0, 54, 0
1, 48660, Note_on_c, 0, 49, 35
1, 48664, Tempo, 740010
1, 48720, Tempo, 744509
1, 48720, Note_on_c, 0, 49, 0
1, 48720, Note_on_c, 0, 54, 49
1, 48760, Tempo, 748970
1, 48780, Note_on_c, 0, 54, 0
1, 48780, Note_on_c, 0, 49, 38
1, 48812, Tempo, 753580
1, 48840, Note_on_c, 0, 49, 0
1, 48840, Note_on_c, 0, 54, 48
1, 48852, Tempo, 758246
1, 48892, Tempo, 762970
1, 48900, Tempo, 1240695
1, 48900, Note_on_c, 0, 54, 0
1, 48900, Note_on_c, 0, 49, 34
1, 48920, Note_on_c, 0, 63, 0
1, 48920, Note_on_c, 0, 46, 0
1, 48920, Note_on_c, 0, 45, 54
1, 48960, Tempo, 772599
1, 48960, Note_on_c, 0, 49, 0
1, 48960, Note_on_c, 0, 63, 63
1, 48960, Note_on_c, 0, 54, 51
1, 48978, Control_c, 0, 64, 0
1, 49000, Tempo, 782371
1, 49020, Control_c, 0, 64, 127
1, 49020, Note_on_c, 0, 48, 32
1, 49040, Tempo, 777403
1, 49080, Note_on_c, 0, 48, 0
1, 49080, Note_on_c, 0, 54, 0
1, 49080, Note_on_c, 0, 54, 40
1, 49092, Tempo, 772599
1, 49132, Tempo, 767754
1, 49140, Note_on_c, 0, 48, 32
1, 49172, Tempo, 762970
1, 49200, Note_on_c, 0, 48, 0
1, 49200, Note_on_c, 0, 54, 0
1, 49200, Note_on_c, 0, 54, 42
1, 49224, Tempo, 758246
1, 49260, Note_on_c, 0, 48, 33
1, 49264, Tempo, 753580
1, 49304, Tempo, 748970
1, 49320, Note_on_c, 0, 48, 0
1, 49320, Note_on_c, 0, 54, 0
1, 49320, Note_on_c, 0, 54, 43
1, 49360, Tempo, 744509
1, 49380, Note_on_c, 0, 48, 34
1, 49400, Tempo, 740010
1, 49432, Tempo, 727802
1, 49440, Note_on_c, 0, 48, 0
1, 49440, Note_on_c, 0, 54, 0
1, 49440, Note_on_c, 0, 53, 46
1, 49446, Control_c, 0, 64, 0
1, 49471, Control_c, 0, 64, 127
1, 49472, Tempo, 723240
1, 49500, Note_on_c, 0, 48, 37
1, 49512, Tempo, 718735
1, 49560, Note_on_c, 0, 48, 0
1, 49560, Note_on_c, 0, 53, 0
1, 49560, Note_on_c, 0, 53, 42
1, 49564, Tempo, 723240
1, 49604, Tempo, 727802
1, 49620, Note_on_c, 0, 48, 32
1, 49644, Tempo, 727802
1, 49672, Tempo, 723240
1, 49680, Note_on_c, 0, 48, 0
1, 49680, Note_on_c, 0, 53, 0
1, 49680, Note_on_c, 0, 53, 40
1, 49700, Tempo, 718735
1, 49712, Tempo, 714286
1, 49740, Tempo, 709807
1, 49740, Note_on_c, 0, 48, 32
1, 49752, Tempo, 709807
1, 49792, Tempo, 714286
1, 49800, Note_on_c, 0, 48, 0
1, 49800, Note_on_c, 0, 53, 0
1, 49800, Note_on_c, 0, 53, 40
1, 49860, Tempo, 1045478
1, 49860, Note_on_c, 0, 48, 32
1, 49880, Note_on_c, 0, 63, 0
1, 49880, Note_on_c, 0, 45, 0
1, 49880, Note_on_c, 0, 46, 51
1, 49904, Tempo, 740010
1, 49920, Note_on_c, 0, 53, 0
1, 49920, Note_on_c, 0, 48, 0
1, 49920, Note_on_c, 0, 62, 61
1, 49920, Note_on_c, 0, 53, 40
1, 49934, Control_c, 0, 64, 0
1, 49963, Control_c, 0, 64, 127
1, 49980, Note_on_c, 0, 53, 0
1, 49980, Note_on_c, 0, 50, 32
1, 50024, Tempo, 744509
1, 50040, Note_on_c, 0, 50, 0
1, 50040, Note_on_c, 0, 53, 40
1, 50100, Note_on_c, 0, 53, 0
1, 50100, Note_on_c, 0, 50, 32
1, 50144, Tempo, 748970
1, 50160, Note_on_c, 0, 50, 0
1, 50160, Note_on_c, 0, 53, 40
1, 50220, Note_on_c, 0, 53, 0
1, 50220, Note_on_c, 0, 50, 32
1, 50264, Tempo, 753580
1, 50280, Note_on_c, 0, 50, 0
1, 50280, Note_on_c, 0, 53, 40
1, 50340, Tempo, 1147886
1, 50340, Note_on_c, 0, 53, 0
1, 50360, Note_on_c, 0, 62, 0
1, 50360, Note_on_c, 0, 46, 0
1, 50360, Note_on_c, 0, 46, 44
1, 50380, Note_on_c, 0, 53, 44
1, 50400, Note_on_c, 0, 62, 48
1, 50400, Note_on_c, 0, 56, 41
1, 50404, Tempo, 761518
1, 50413, Control_c, 0, 64, 0
1, 50444, Tempo, 756525
1, 50453, Control_c, 0, 64, 127
1, 50460, Note_on_c, 0, 56, 0
1, 50460, Note_on_c, 0, 53, 31
1, 50472, Tempo, 751597
1, 50500, Tempo, 746733
1, 50520, Note_on_c, 0, 53, 0
1, 50520, Note_on_c, 0, 56, 40
1, 50524, Tempo, 741931
1, 50552, Tempo, 737101
1, 50580, Tempo, 732422
1, 50580, Note_on_c, 0, 56, 0
1, 50580, Note_on_c, 0, 53, 33
1, 50632, Tempo, 737101
1, 50640, Note_on_c, 0, 53, 0
1, 50640, Note_on_c, 0, 56, 40
1, 50672, Tempo, 741931
1, 50700, Note_on_c, 0, 56, 0
1, 50700, Note_on_c, 0, 53, 34
1, 50712, Tempo, 746733
1, 50752, Tempo, 751597
1, 50760, Note_on_c, 0, 53, 0
1, 50760, Note_on_c, 0, 56, 41
1, 50792, Tempo, 756525
1, 50812, Tempo, 740010
1, 50820, Tempo, 1116695
1, 50820, Note_on_c, 0, 56, 0
1, 50820, Note_on_c, 0, 53, 34
1, 50840, Note_on_c, 0, 46, 0
1, 50840, Note_on_c, 0, 62, 0
1, 50840, Note_on_c, 0, 53, 0
1, 50840, Note_on_c, 0, 46, 46
1, 50872, Tempo, 771803
1, 50880, Note_on_c, 0, 53, 0
1, 50880, Note_on_c, 0, 63, 55
1, 50880, Note_on_c, 0, 55, 45
1, 50890, Control_c, 0, 64, 0
1, 50912, Tempo, 766675
1, 50926, Control_c, 0, 64, 127
1, 50940, Tempo, 761518
1, 50940, Note_on_c, 0, 51, 38
1, 50960, Note_on_c, 0, 55, 0
1, 50964, Tempo, 756525
1, 50992, Tempo, 751597
1, 51000, Note_on_c, 0, 51, 0
1, 51000, Note_on_c, 0, 55, 45
1, 51020, Tempo, 746733
1, 51044, Tempo, 741931
1, 51052, Tempo, 735565
1, 51060, Note_on_c, 0, 55, 0
1, 51060, Note_on_c, 0, 51, 35
1, 51072, Tempo, 737101
1, 51100, Tempo, 741931
1, 51120, Note_on_c, 0, 51, 0
1, 51120, Note_on_c, 0, 55, 45
1, 51124, Tempo, 746733
1, 51152, Tempo, 751597
1, 51180, Tempo, 756525
1, 51180, Note_on_c, 0, 55, 0
1, 51180, Note_on_c, 0, 51, 35
1, 51204, Tempo, 761518
1, 51232, Tempo, 766675
1, 51240, Note_on_c, 0, 51, 0
1, 51240, Note_on_c, 0, 55, 47
1, 51260, Tempo, 771803
1, 51284, Tempo, 777001
1, 51292, Tempo, 753580
1, 51300, Tempo, 1137441
1, 51300, Note_on_c, 0, 55, 0
1, 51300, Note_on_c, 0, 51, 35
1, 51320, Note_on_c, 0, 63, 0
1, 51320, Note_on_c, 0, 46, 0
1, 51320, Note_on_c, 0, 46, 54
1, 51352, Tempo, 777001
1, 51360, Note_on_c, 0, 51, 0
1, 51360, Note_on_c, 0, 63, 62
1, 51360, Note_on_c, 0, 54, 47
1, 51374, Control_c, 0, 64, 0
1, 51392, Tempo, 771803
1, 51413, Control_c, 0, 64, 127
1, 51420, Note_on_c, 0, 49, 33
1, 51432, Tempo, 766675
1, 51440, Note_on_c, 0, 54, 0
1, 51472, Tempo, 761518
1, 51480, Note_on_c, 0, 49, 0
1, 51480, Note_on_c, 0, 54, 43
1, 51512, Tempo, 756525
1, 51540, Note_on_c, 0, 54, 0
1, 51540, Note_on_c, 0, 49, 34
1, 51552, Tempo, 751597
1, 51580, Tempo, 756525
1, 51600, Note_on_c, 0, 49, 0
1, 51600, Note_on_c, 0, 54, 42
1, 51604, Tempo, 761518
1, 51632, Tempo, 766675
1, 51660, Tempo, 771803
1, 51660, Note_on_c, 0, 54, 0
1, 51660, Note_on_c, 0, 49, 33
1, 51684, Tempo, 777001
1, 51712, Tempo, 782269
1, 51720, Note_on_c, 0, 49, 0
1, 51720, Note_on_c, 0, 54, 42
1, 51740, Tempo, 787608
1, 51764, Tempo, 793021
1, 51772, Tempo, 762970
1, 51780, Tempo, 1742666
1, 51780, Note_on_c, 0, 54, 0
1, 51780, Note_on_c, 0, 49, 33
1, 51800, Note_on_c, 0, 63, 0
1, 51800, Note_on_c, 0, 46, 0
1, 51800, Note_on_c, 0, 45, 54
1, 51840, Tempo, 772599
1, 51840, Note_on_c, 0, 49, 0
1, 51840, Note_on_c, 0, 63, 63
1, 51840, Note_on_c, 0, 54, 51
1, 51858, Control_c, 0, 64, 0
1, 51880, Tempo, 782371
1, 51900, Control_c, 0, 64, 127
1, 51900, Note_on_c, 0, 48, 32
1, 51920, Tempo, 777403
1, 51960, Note_on_c, 0, 48, 0
1, 51960, Note_on_c, 0, 54, 0
1, 51960, Note_on_c, 0, 54, 40
1, 51972, Tempo, 772599
1, 52012, Tempo, 767754
1, 52020, Note_on_c, 0, 48, 31
1, 52052, Tempo, 762970
1, 52080, Note_on_c, 0, 48, 0
1, 52080, Note_on_c, 0, 54, 0
1, 52080, Note_on_c, 0, 54, 44
1, 52104, Tempo, 758246
1, 52140, Note_on_c, 0, 48, 34
1, 52144, Tempo, 753580
1, 52184, Tempo, 748970
1, 52200, Note_on_c, 0, 48, 0
1, 52200, Note_on_c, 0, 54, 0
1, 52200, Note_on_c, 0, 54, 43
1, 52240, Tempo, 744509
1, 52260, Note_on_c, 0, 48, 36
1, 52280, Tempo, 740010
1, 52312, Tempo, 727802
1, 52320, Note_on_c, 0, 48, 0
1, 52320, Note_on_c, 0, 54, 0
1, 52320, Note_on_c, 0, 53, 46
1, 52326, Control_c, 0, 64, 0
1, 52351, Control_c, 0, 64, 127
1, 52352, Tempo, 723240
1, 52380, Note_on_c, 0, 48, 36
1, 52392, Tempo, 718735
1, 52440, Note_on_c, 0, 48, 0
1, 52440, Note_on_c, 0, 53, 0
1, 52440, Note_on_c, 0, 53, 41
1, 52444, Tempo, 723240
1, 52484, Tempo, 727802
1, 52500, Note_on_c, 0, 48, 32
1, 52524, Tempo, 727802
1, 52552, Tempo, 723240
1, 52560, Note_on_c, 0, 48, 0
1, 52560, Note_on_c, 0, 53, 0
1, 52560, Note_on_c, 0, 53, 40
1, 52580, Tempo, 718735
1, 52592, Tempo, 714286
1, 52620, Tempo, 709807
1, 52620, Note_on_c, 0, 48, 32
1, 52632, Tempo, 709807
1, 52672, Tempo, 714286
1, 52680, Note_on_c, 0, 48, 0
1, 52680, Note_on_c, 0, 53, 0
1, 52680, Note_on_c, 0, 53, 40
1, 52740, Tempo, 1045478
1, 52740, Note_on_c, 0, 48, 32
1, 52760, Note_on_c, 0, 63, 0
1, 52760, Note_on_c, 0, 45, 0
1, 52760, Note_on_c, 0, 46, 51
1, 52784, Tempo, 740010
1, 52800, Note_on_c, 0, 53, 0
1, 52800, Note_on_c, 0, 48, 0
1, 52800, Note_on_c, 0, 62, 61
1, 52800, Note_on_c, 0, 53, 40
1, 52814, Control_c, 0, 64, 0
1, 52843, Control_c, 0, 64, 127
1, 52880, Note_on_c, 0, 53, 0
1, 52880, Note_on_c, 0, 50, 32
1, 52904, Tempo, 744509
1, 52960, Note_on_c, 0, 50, 0
1, 52960, Note_on_c, 0, 53, 40
1, 53024, Tempo, 748970
1, 53040, Note_on_c, 0, 53, 0
1, 53040, Note_on_c, 0, 50, 32
1, 53120, Note_on_c, 0, 50, 0
1, 53120, Note_on_c, 0, 53, 40
1, 53144, Tempo, 753580
1, 53200, Note_on_c, 0, 53, 0
1, 53200, Note_on_c, 0, 50, 32
1, 53220, Tempo, 1147886
1, 53280, Tempo, 709807
1, 53280, Note_on_c, 0, 50, 0
1, 53280, Note_on_c, 0, 62, 0
1, 53280, Note_on_c, 0, 46, 0
1, 53280, Note_on_c, 0, 56, 52
1, 53280, Note_on_c, 0, 58, 61
1, 53280, Note_on_c, 0, 53, 45
1, 53290, Control_c, 0, 64, 0
1, 53329, Control_c, 0, 64, 127
1, 53360, Note_on_c, 0, 53, 0
1, 53360, Note_on_c, 0, 50, 38
1, 53440, Note_on_c, 0, 50, 0
1, 53440, Note_on_c, 0, 53, 45
1, 53520, Note_on_c, 0, 53, 0
1, 53520, Note_on_c, 0, 50, 38
1, 53600, Note_on_c, 0, 50, 0
1, 53600, Note_on_c, 0, 53, 45
1, 53680, Note_on_c, 0, 53, 0
1, 53680, Note_on_c, 0, 50, 38
1, 53760, Note_on_c, 0, 50, 0
1, 53760, Note_on_c, 0, 58, 0
1, 53760, Note_on_c, 0, 56, 0
1, 53760, Note_on_c, 0, 58, 61
1, 53760, Note_on_c, 0, 55, 45
1, 53775, Control_c, 0, 64, 0
1, 53820, Control_c, 0, 64, 127
1, 53840, Note_on_c, 0, 55, 0
1, 53840, Note_on_c, 0, 51, 38
1, 53920, Note_on_c, 0, 51, 0
1, 53920, Note_on_c, 0, 55, 45
1, 54000, Note_on_c, 0, 55, 0
1, 54000, Note_on_c, 0, 51, 38
1, 54080, Note_on_c, 0, 51, 0
1, 54080, Note_on_c, 0, 55, 45
1, 54160, Note_on_c, 0, 55, 0
1, 54160, Note_on_c, 0, 51, 37
1, 54240, Tempo, 693642
1, 54240, Note_on_c, 0, 51, 0
1, 54240, Note_on_c, 0, 58, 0
1, 54240, Note_on_c, 0, 58, 50
1, 54240, Note_on_c, 0, 60, 63
1, 54240, Note_on_c, 0, 55, 48
1, 54253, Control_c, 0, 64, 0
1, 54294, Control_c, 0, 64, 127
1, 54320, Note_on_c, 0, 55, 0
1, 54320, Note_on_c, 0, 52, 39
1, 54400, Tempo, 689655
1, 54400, Note_on_c, 0, 52, 0
1, 54400, Note_on_c, 0, 55, 48
1, 54480, Note_on_c, 0, 55, 0
1, 54480, Note_on_c, 0, 52, 41
1, 54520, Tempo, 685714
1, 54560, Note_on_c, 0, 52, 0
1, 54560, Note_on_c, 0, 55, 48
1, 54640, Tempo, 681818
1, 54640, Note_on_c, 0, 55, 0
1, 54640, Note_on_c, 0, 52, 41
1, 54720, Note_on_c, 0, 52, 0
1, 54720, Note_on_c, 0, 60, 0
1, 54720, Note_on_c, 0, 58, 0
1, 54720, Note_on_c, 0, 60, 63
1, 54720, Note_on_c, 0, 57, 48
1, 54728, Control_c, 0, 64, 0
1, 54757, Control_c, 0, 64, 127
1, 54760, Tempo, 677966
1, 54800, Note_on_c, 0, 57, 0
1, 54800, Note_on_c, 0, 53, 39
1, 54880, Note_on_c, 0, 53, 0
1, 54880, Note_on_c, 0, 57, 48
1, 54960, Note_on_c, 0, 57, 0
1, 54960, Note_on_c, 0, 53, 41
1, 55040, Note_on_c, 0, 53, 0
1, 55040, Note_on_c, 0, 57, 48
1, 55120, Note_on_c, 0, 57, 0
1, 55120, Note_on_c, 0, 53, 41
1, 55198, Note_on_c, 0, 60, 0
1, 55200, Tempo, 662983
1, 55200, Note_on_c, 0, 53, 0
1, 55200, Note_on_c, 0, 60, 53
1, 55200, Note_on_c, 0, 62, 66
1, 55200, Note_on_c, 0, 57, 50
1, 55206, Control_c, 0, 64, 0
1, 55243, Control_c, 0, 64, 127
1, 55280, Note_on_c, 0, 57, 0
1, 55280, Note_on_c, 0, 54, 41
1, 55360, Note_on_c, 0, 54, 0
1, 55360, Note_on_c, 0, 57, 50
1, 55440, Note_on_c, 0, 57, 0
1, 55440, Note_on_c, 0, 54, 43
1, 55520, Note_on_c, 0, 54, 0
1, 55520, Note_on_c, 0, 57, 50
1, 55600, Note_on_c, 0, 57, 0
1, 55600, Note_on_c, 0, 54, 43
1, 55680, Tempo, 674157
1, 55680, Note_on_c, 0, 54, 0
1, 55680, Note_on_c, 0, 62, 0
1, 55680, Note_on_c, 0, 60, 0
1, 55680, Note_on_c, 0, 62, 66
1, 55680, Note_on_c, 0, 58, 50
1, 55688, Control_c, 0, 64, 0
1, 55726, Control_c, 0, 64, 127
1, 55760, Note_on_c, 0, 58, 0
1, 55760, Note_on_c, 0, 55, 41
1, 55840, Note_on_c, 0, 55, 0
1, 55840, Note_on_c, 0, 58, 50
1, 55920, Note_on_c, 0, 58, 0
1, 55920, Note_on_c, 0, 55, 43
1, 56000, Note_on_c, 0, 55, 0
1, 56000, Note_on_c, 0, 58, 51
1, 56080, Note_on_c, 0, 58, 0
1, 56080, Note_on_c, 0, 55, 43
1, 56160, Tempo, 652174
1, 56160, Note_on_c, 0, 55, 0
1, 56160, Note_on_c, 0, 62, 0
1, 56160, Note_on_c, 0, 65, 69
1, 56160, Note_on_c, 0, 63, 54
1, 56160, Note_on_c, 0, 60, 53
1, 56172, Control_c, 0, 64, 0
1, 56237, Control_c, 0, 64, 127
1, 56240, Note_on_c, 0, 60, 0
1, 56240, Note_on_c, 0, 57, 43
1, 56320, Note_on_c, 0, 57, 0
1, 56320, Note_on_c, 0, 60, 53
1, 56400, Note_on_c, 0, 60, 0
1, 56400, Note_on_c, 0, 57, 45
1, 56480, Note_on_c, 0, 57, 0
1, 56480, Note_on_c, 0, 60, 53
1, 56560, Note_on_c, 0, 60, 0
1, 56560, Note_on_c, 0, 57, 45
1, 56640, Note_on_c, 0, 57, 0
1, 56640, Note_on_c, 0, 63, 0
1, 56640, Note_on_c, 0, 65, 0
1, 56640, Note_on_c, 0, 65, 69
1, 56640, Note_on_c, 0, 62, 53
1, 56652, Control_c, 0, 64, 0
1, 56714, Control_c, 0, 64, 127
1, 56720, Note_on_c, 0, 62, 0
1, 56720, Note_on_c, 0, 58, 44
1, 56800, Note_on_c, 0, 58, 0
1, 56800, Note_on_c, 0, 62, 53
1, 56880, Note_on_c, 0, 62, 0
1, 56880, Note_on_c, 0, 58, 45
1, 56960, Note_on_c, 0, 58, 0
1, 56960, Note_on_c, 0, 62, 53
1, 57040, Note_on_c, 0, 62, 0
1, 57040, Note_on_c, 0, 58, 46
1, 57118, Note_on_c, 0, 65, 0
1, 57120, Tempo, 659341
1, 57120, Note_on_c, 0, 58, 0
1, 57120, Note_on_c, 0, 65, 57
1, 57120, Note_on_c, 0, 69, 72
1, 57120, Note_on_c, 0, 63, 55
1, 57131, Control_c, 0, 64, 0
1, 57165, Control_c, 0, 64, 127
1, 57200, Note_on_c, 0, 63, 0
1, 57200, Note_on_c, 0, 60, 46
1, 57280, Note_on_c, 0, 60, 0
1, 57280, Note_on_c, 0, 63, 55
1, 57360, Note_on_c, 0, 63, 0
1, 57360, Note_on_c, 0, 60, 48
1, 57440, Note_on_c, 0, 60, 0
1, 57440, Note_on_c, 0, 63, 55
1, 57520, Note_on_c, 0, 63, 0
1, 57520, Note_on_c, 0, 60, 48
1, 57600, Note_on_c, 0, 60, 0
1, 57600, Note_on_c, 0, 69, 0
1, 57600, Note_on_c, 0, 65, 0
1, 57600, Note_on_c, 0, 70, 72
1, 57600, Note_on_c, 0, 65, 56
1, 57608, Control_c, 0, 64, 0
1, 57641, Control_c, 0, 64, 127
1, 57680, Note_on_c, 0, 65, 0
1, 57680, Note_on_c, 0, 62, 46
1, 57760, Note_on_c, 0, 62, 0
1, 57760, Note_on_c, 0, 65, 56
1, 57840, Note_on_c, 0, 65, 0
1, 57840, Note_on_c, 0, 62, 48
1, 57920, Note_on_c, 0, 62, 0
1, 57920, Note_on_c, 0, 65, 56
1, 58000, Note_on_c, 0, 65, 0
1, 58000, Note_on_c, 0, 62, 48
1, 58078, Note_on_c, 0, 70, 0
1, 58080, Tempo, 648649
1, 58080, Note_on_c, 0, 62, 0
1, 58080, Note_on_c, 0, 70, 72
1, 58080, Note_on_c, 0, 66, 56
1, 58090, Control_c, 0, 64, 0
1, 58113, Control_c, 0, 64, 127
1, 58160, Note_on_c, 0, 66, 0
1, 58160, Note_on_c, 0, 63, 46
1, 58240, Note_on_c, 0, 63, 0
1, 58240, Note_on_c, 0, 66, 56
1, 58320, Note_on_c, 0, 66, 0
1, 58320, Note_on_c, 0, 63, 49
1, 58400, Note_on_c, 0, 63, 0
1, 58400, Note_on_c, 0, 66, 56
1, 58480, Note_on_c, 0, 66, 0
1, 58480, Note_on_c, 0, 63, 49
1, 58560, Tempo, 662983
1, 58560, Note_on_c, 0, 63, 0
1, 58560, Note_on_c, 0, 70, 0
1, 58560, Note_on_c, 0, 70, 61
1, 58560, Note_on_c, 0, 72, 76
1, 58560, Note_on_c, 0, 67, 56
1, 58571, Control_c, 0, 64, 0
1, 58603, Control_c, 0, 64, 127
1, 58640, Note_on_c, 0, 67, 0
1, 58640, Note_on_c, 0, 64, 47
1, 58720, Note_on_c, 0, 64, 0
1, 58720, Note_on_c, 0, 67, 57
1, 58800, Note_on_c, 0, 67, 0
1, 58800, Note_on_c, 0, 64, 49
1, 58880, Note_on_c, 0, 64, 0
1, 58880, Note_on_c, 0, 67, 57
1, 58960, Note_on_c, 0, 67, 0
1, 58960, Note_on_c, 0, 64, 49
1, 59040, Tempo, 676437
1, 59040, Note_on_c, 0, 64, 0
1, 59040, Note_on_c, 0, 72, 0
1, 59040, Note_on_c, 0, 70, 0
1, 59040, Note_on_c, 0, 73, 75
1, 59040, Note_on_c, 0, 67, 46
1, 59040, Note_on_c, 0, 70, 59
1, 59052, Control_c, 0, 64, 0
1, 59088, Control_c, 0, 64, 127
1, 59120, Note_on_c, 0, 70, 0
1, 59120, Note_on_c, 0, 67, 0
1, 59120, Note_on_c, 0, 64, 47
1, 59200, Note_on_c, 0, 64, 0
1, 59200, Note_on_c, 0, 67, 46
1, 59200, Note_on_c, 0, 70, 59
1, 59280, Note_on_c, 0, 70, 0
1, 59280, Note_on_c, 0, 67, 0
1, 59280, Note_on_c, 0, 64, 49
1, 59360, Note_on_c, 0, 64, 0
1, 59360, Note_on_c, 0, 67, 46
1, 59360, Note_on_c, 0, 70, 59
1, 59440, Note_on_c, 0, 70, 0
1, 59440, Note_on_c, 0, 67, 0
1, 59440, Note_on_c, 0, 64, 50
1, 59520, Tempo, 684463
1, 59520, Note_on_c, 0, 64, 0
1, 59520, Note_on_c, 0, 73, 0
1, 59520, Note_on_c, 0, 79, 78
1, 59520, Note_on_c, 0, 70, 46
1, 59520, Note_on_c, 0, 73, 59
1, 59600, Note_on_c, 0, 73, 0
1, 59600, Note_on_c, 0, 70, 0
1, 59600, Note_on_c, 0, 64, 49
1, 59680, Note_on_c, 0, 64, 0
1, 59680, Note_on_c, 0, 70, 46
1, 59680, Note_on_c, 0, 73, 59
1, 59760, Note_on_c, 0, 73, 0
1, 59760, Note_on_c, 0, 70, 0
1, 59760, Note_on_c, 0, 64, 52
1, 59840, Note_on_c, 0, 64, 0
1, 59840, Note_on_c, 0, 70, 46
1, 59840, Note_on_c, 0, 73, 59
1, 59920, Note_on_c, 0, 73, 0
1, 59920, Note_on_c, 0, 70, 0
1, 59920, Note_on_c, 0, 64, 52
1, 60000, Tempo, 696945
1, 60000, Note_on_c, 0, 64, 0
1, 60000, Note_on_c, 0, 79, 0
1, 60000, Note_on_c, 0, 82, 79
1, 60000, Note_on_c, 0, 73, 48
1, 60000, Note_on_c, 0, 76, 61
1, 60080, Note_on_c, 0, 76, 0
1, 60080, Note_on_c, 0, 73, 0
1, 60080, Note_on_c, 0, 67, 49
1, 60160, Note_on_c, 0, 67, 0
1, 60160, Note_on_c, 0, 73, 48
1, 60160, Note_on_c, 0, 76, 61
1, 60240, Note_on_c, 0, 76, 0
1, 60240, Note_on_c, 0, 73, 0
1, 60240, Note_on_c, 0, 67, 52
1, 60320, Note_on_c, 0, 67, 0
1, 60320, Note_on_c, 0, 73, 48
1, 60320, Note_on_c, 0, 76, 61
1, 60400, Note_on_c, 0, 76, 0
1, 60400, Note_on_c, 0, 73, 0
1, 60400, Note_on_c, 0, 67, 52
1, 60480, Tempo, 714286
1, 60480, Note_on_c, 0, 67, 0
1, 60480, Note_on_c, 0, 82, 0
1, 60480, Note_on_c, 0, 77, 76
1, 60480, Note_on_c, 0, 70, 46
1, 60480, Note_on_c, 0, 74, 59
1, 60498, Control_c, 0, 64, 0
1, 60500, Tempo, 696945
1, 60533, Control_c, 0, 64, 127
1, 60560, Note_on_c, 0, 74, 0
1, 60560, Note_on_c, 0, 70, 0
1, 60560, Note_on_c, 0, 65, 49
1, 60640, Note_on_c, 0, 65, 0
1, 60640, Note_on_c, 0, 70, 46
1, 60640, Note_on_c, 0, 74, 58
1, 60720, Note_on_c, 0, 74, 0
1, 60720, Note_on_c, 0, 70, 0
1, 60720, Note_on_c, 0, 65, 50
1, 60800, Note_on_c, 0, 65, 0
1, 60800, Note_on_c, 0, 70, 45
1, 60800, Note_on_c, 0, 74, 57
1, 60880, Note_on_c, 0, 74, 0
1, 60880, Note_on_c, 0, 70, 0
1, 60880, Note_on_c, 0, 65, 50
1, 60960, Tempo, 714286
1, 60960, Note_on_c, 0, 65, 0
1, 60960, Note_on_c, 0, 77, 0
1, 60960, Note_on_c, 0, 74, 72
1, 60960, Note_on_c, 0, 65, 45
1, 60960, Note_on_c, 0, 70, 57
1, 61040, Note_on_c, 0, 70, 0
1, 61040, Note_on_c, 0, 65, 0
1, 61040, Note_on_c, 0, 62, 47
1, 61120, Note_on_c, 0, 62, 0
1, 61120, Note_on_c, 0, 65, 45
1, 61120, Note_on_c, 0, 70, 57
1, 61200, Note_on_c, 0, 70, 0
1, 61200, Note_on_c, 0, 65, 0
1, 61200, Note_on_c, 0, 62, 49
1, 61280, Note_on_c, 0, 62, 0
1, 61280, Note_on_c, 0, 65, 45
1, 61280, Note_on_c, 0, 70, 56
1, 61360, Note_on_c, 0, 70, 0
1, 61360, Note_on_c, 0, 65, 0
1, 61360, Note_on_c, 0, 62, 49
1, 61440, Tempo, 741931
1, 61440, Note_on_c, 0, 62, 0
1, 61440, Note_on_c, 0, 74, 0
1, 61440, Note_on_c, 0, 70, 70
1, 61440, Note_on_c, 0, 62, 44
1, 61440, Note_on_c, 0, 65, 55
1, 61520, Note_on_c, 0, 65, 0
1, 61520, Note_on_c, 0, 62, 0
1, 61520, Note_on_c, 0, 58, 46
1, 61600, Note_on_c, 0, 58, 0
1, 61600, Note_on_c, 0, 62, 44
1, 61600, Note_on_c, 0, 65, 54
1, 61680, Note_on_c, 0, 65, 0
1, 61680, Note_on_c, 0, 62, 0
1, 61680, Note_on_c, 0, 58, 47
1, 61760, Note_on_c, 0, 58, 0
1, 61760, Note_on_c, 0, 62, 43
1, 61760, Note_on_c, 0, 65, 54
1, 61840, Note_on_c, 0, 65, 0
1, 61840, Note_on_c, 0, 62, 0
1, 61840, Note_on_c, 0, 58, 47
1, 61920, Note_on_c, 0, 58, 0
1, 61920, Note_on_c, 0, 70, 0
1, 61920, Note_on_c, 0, 65, 70
1, 61920, Note_on_c, 0, 58, 44
1, 61920, Note_on_c, 0, 62, 54
1, 62000, Note_on_c, 0, 62, 0
1, 62000, Note_on_c, 0, 58, 0
1, 62000, Note_on_c, 0, 53, 45
1, 62080, Note_on_c, 0, 53, 0
1, 62080, Note_on_c, 0, 58, 43
1, 62080, Note_on_c, 0, 62, 54
1, 62160, Note_on_c, 0, 62, 0
1, 62160, Note_on_c, 0, 58, 0
1, 62160, Note_on_c, 0, 53, 47
1, 62240, Note_on_c, 0, 53, 0
1, 62240, Note_on_c, 0, 58, 43
1, 62240, Note_on_c, 0, 62, 54
1, 62320, Note_on_c, 0, 62, 0
1, 62320, Note_on_c, 0, 58, 0
1, 62320, Note_on_c, 0, 53, 46
1, 62360, Tempo, 1419782
1, 62360, Note_on_c, 0, 53, 0
1, 62360, Note_on_c, 0, 57, 43
1, 62380, Note_on_c, 0, 60, 51
1, 62400, Tempo, 727802
1, 62400, Note_on_c, 0, 65, 0
1, 62400, Note_on_c, 0, 66, 64
1, 62412, Control_c, 0, 64, 0
1, 62467, Control_c, 0, 64, 127
1, 62480, Note_on_c, 0, 60, 0
1, 62480, Note_on_c, 0, 57, 0
1, 62480, Note_on_c, 0, 51, 45
1, 62560, Note_on_c, 0, 51, 0
1, 62560, Note_on_c, 0, 57, 52
1, 62560, Note_on_c, 0, 60, 52
1, 62640, Note_on_c, 0, 60, 0
1, 62640, Note_on_c, 0, 57, 0
1, 62640, Note_on_c, 0, 51, 46
1, 62720, Note_on_c, 0, 51, 0
1, 62720, Note_on_c, 0, 57, 50
1, 62720, Note_on_c, 0, 60, 50
1, 62800, Note_on_c, 0, 60, 0
1, 62800, Note_on_c, 0, 57, 0
1, 62800, Note_on_c, 0, 51, 45
1, 62880, Tempo, 741931
1, 62880, Note_on_c, 0, 51, 0
1, 62880, Note_on_c, 0, 66, 0
1, 62880, Note_on_c, 0, 57, 61
1, 62880, Note_on_c, 0, 48, 38
1, 62880, Note_on_c, 0, 51, 48
1, 62887, Control_c, 0, 64, 0
1, 62919, Control_c, 0, 64, 127
1, 62960, Note_on_c, 0, 51, 0
1, 62960, Note_on_c, 0, 48, 0
1, 62960, Note_on_c, 0, 41, 40
1, 63040, Note_on_c, 0, 41, 0
1, 63040, Note_on_c, 0, 48, 38
1, 63040, Note_on_c, 0, 51, 48
1, 63120, Note_on_c, 0, 51, 0
1, 63120, Note_on_c, 0, 48, 0
1, 63120, Note_on_c, 0, 41, 41
1, 63200, Note_on_c, 0, 41, 0
1, 63200, Note_on_c, 0, 48, 38
1, 63200, Note_on_c, 0, 51, 48
1, 63280, Note_on_c, 0, 51, 0
1, 63280, Note_on_c, 0, 48, 0
1, 63280, Note_on_c, 0, 41, 41
1, 63360, Note_on_c, 0, 41, 0
1, 63360, Note_on_c, 0, 57, 0
1, 63360, Note_on_c, 0, 58, 60
1, 63360, Note_on_c, 0, 50, 45
1, 63367, Control_c, 0, 64, 0
1, 63413, Control_c, 0, 64, 127
1, 63440, Note_on_c, 0, 50, 0
1, 63440, Note_on_c, 0, 46, 37
1, 63520, Note_on_c, 0, 46, 0
1, 63520, Note_on_c, 0, 50, 45
1, 63600, Note_on_c, 0, 50, 0
1, 63600, Note_on_c, 0, 46, 36
1, 63680, Note_on_c, 0, 46, 0
1, 63680, Note_on_c, 0, 50, 44
1, 63760, Note_on_c, 0, 50, 0
1, 63760, Note_on_c, 0, 46, 35
1, 63800, Tempo, 714286
1, 63840, Note_on_c, 0, 46, 0
1, 63840, Note_on_c, 0, 58, 0
1, 63840, Note_on_c, 0, 57, 58
1, 63840, Note_on_c, 0, 50, 44
1, 63852, Control_c, 0, 64, 0
1, 63896, Control_c, 0, 64, 127
1, 63920, Note_on_c, 0, 50, 0
1, 63920, Note_on_c, 0, 46, 35
1, 64000, Note_on_c, 0, 46, 0
1, 64000, Note_on_c, 0, 50, 43
1, 64080, Note_on_c, 0, 50, 0
1, 64080, Note_on_c, 0, 46, 35
1, 64160, Note_on_c, 0, 46, 0
1, 64160, Note_on_c, 0, 50, 43
1, 64240, Tempo, 718735
1, 64240, Note_on_c, 0, 50, 0
1, 64240, Note_on_c, 0, 46, 34
1, 64320, Note_on_c, 0, 46, 0
1, 64320, Note_on_c, 0, 57, 0
1, 64320, Note_on_c, 0, 56, 57
1, 64320, Note_on_c, 0, 50, 42
1, 64329, Control_c, 0, 64, 0
1, 64369, Control_c, 0, 64, 127
1, 64400, Note_on_c, 0, 50, 0
1, 64400, Note_on_c, 0, 46, 34
1, 64480, Note_on_c, 0, 46, 0
1, 64480, Note_on_c, 0, 50, 42
1, 64560, Note_on_c, 0, 50, 0
1, 64560, Note_on_c, 0, 46, 34
1, 64640, Tempo, 723240
1, 64640, Note_on_c, 0, 46, 0
1, 64640, Note_on_c, 0, 50, 41
1, 64720, Note_on_c, 0, 50, 0
1, 64720, Note_on_c, 0, 46, 30
1, 64800, Note_on_c, 0, 46, 0
1, 64800, Note_on_c, 0, 56, 0
1, 64800, Note_on_c, 0, 55, 55
1, 64800, Note_on_c, 0, 51, 41
1, 64814, Control_c, 0, 64, 0
1, 64856, Control_c, 0, 64, 127
1, 64880, Note_on_c, 0, 51, 0
1, 64880, Note_on_c, 0, 46, 32
1, 64960, Note_on_c, 0, 46, 0
1, 64960, Note_on_c, 0, 51, 40
1, 65040, Tempo, 727802
1, 65040, Note_on_c, 0, 51, 0
1, 65040, Note_on_c, 0, 46, 30
1, 65120, Note_on_c, 0, 46, 0
1, 65120, Note_on_c, 0, 51, 40
1, 65200, Note_on_c, 0, 51, 0
1, 65200, Note_on_c, 0, 46, 30
1, 65280, Note_on_c, 0, 46, 0
1, 65280, Note_on_c, 0, 55, 0
1, 65280, Note_on_c, 0, 54, 54
1, 65280, Note_on_c, 0, 51, 39
1, 65292, Control_c, 0, 64, 0
1, 65360, Note_on_c, 0, 51, 0
1, 65360, Note_on_c, 0, 45, 31
1, 65365, Control_c, 0, 64, 127
1, 65440, Tempo, 732422
1, 65440, Note_on_c, 0, 45, 0
1, 65440, Note_on_c, 0, 51, 39
1, 65520, Note_on_c, 0, 51, 0
1, 65520, Note_on_c, 0, 45, 29
1, 65600, Note_on_c, 0, 45, 0
1, 65600, Note_on_c, 0, 51, 38
1, 65680, Note_on_c, 0, 51, 0
1, 65680, Note_on_c, 0, 45, 29
1, 65760, Note_on_c, 0, 45, 0
1, 65760, Note_on_c, 0, 54, 0
1, 65760, Note_on_c, 0, 53, 53
1, 65760, Note_on_c, 0, 51, 38
1, 65771, Control_c, 0, 64, 0
1, 65824, Control_c, 0, 64, 127
1, 65840, Tempo, 737101
1, 65840, Note_on_c, 0, 51, 0
1, 65840, Note_on_c, 0, 45, 29
1, 65920, Note_on_c, 0, 45, 0
1, 65920, Note_on_c, 0, 51, 37
1, 66000, Note_on_c, 0, 51, 0
1, 66000, Note_on_c, 0, 45, 29
1, 66080, Note_on_c, 0, 45, 0
1, 66080, Note_on_c, 0, 51, 37
1, 66160, Tempo, 723240
1, 66160, Note_on_c, 0, 51, 0
1, 66160, Note_on_c, 0, 45, 29
1, 66200, Tempo, 727802
1, 66240, Note_on_c, 0, 45, 0
1, 66240, Note_on_c, 0, 53, 0
1, 66240, Note_on_c, 0, 53, 53
1, 66240, Note_on_c, 0, 51, 39
1, 66249, Control_c, 0, 64, 0
1, 66251, Control_c, 0, 64, 0
1, 66289, Control_c, 0, 64, 127
1, 66320, Note_on_c, 0, 51, 0
1, 66320, Note_on_c, 0, 46, 32
1, 66400, Note_on_c, 0, 46, 0
1, 66400, Note_on_c, 0, 51, 39
1, 66480, Note_on_c, 0, 51, 0
1, 66480, Note_on_c, 0, 46, 32
1, 66560, Note_on_c, 0, 46, 0
1, 66560, Note_on_c, 0, 51, 38
1, 66640, Note_on_c, 0, 51, 0
1, 66640, Note_on_c, 0, 46, 28
1, 66720, Tempo, 732422
1, 66720, Note_on_c, 0, 46, 0
1, 66720, Note_on_c, 0, 51, 38
1, 66800, Note_on_c, 0, 51, 0
1, 66800, Note_on_c, 0, 46, 30
1, 66880, Note_on_c, 0, 46, 0
1, 66880, Note_on_c, 0, 51, 37
1, 66960, Note_on_c, 0, 51, 0
1, 66960, Note_on_c, 0, 46, 28
1, 67040, Note_on_c, 0, 46, 0
1, 67040, Note_on_c, 0, 51, 37
1, 67120, Note_on_c, 0, 51, 0
1, 67120, Note_on_c, 0, 46, 28
1, 67200, Tempo, 737101
1, 67200, Note_on_c, 0, 46, 0
1, 67200, Note_on_c, 0, 53, 0
1, 67200, Note_on_c, 0, 53, 50
1, 67200, Note_on_c, 0, 50, 36
1, 67212, Control_c, 0, 64, 0
1, 67280, Note_on_c, 0, 50, 0
1, 67280, Note_on_c, 0, 46, 29
1, 67285, Control_c, 0, 64, 127
1, 67360, Note_on_c, 0, 46, 0
1, 67360, Note_on_c, 0, 50, 36
1, 67440, Note_on_c, 0, 50, 0
1, 67440, Note_on_c, 0, 46, 27
1, 67520, Note_on_c, 0, 46, 0
1, 67520, Note_on_c, 0, 50, 36
1, 67600, Note_on_c, 0, 50, 0
1, 67600, Note_on_c, 0, 46, 27
1, 67680, Tempo, 741931
1, 67680, Note_on_c, 0, 46, 0
1, 67680, Note_on_c, 0, 50, 36
1, 67760, Note_on_c, 0, 50, 0
1, 67760, Note_on_c, 0, 46, 27
1, 67840, Note_on_c, 0, 46, 0
1, 67840, Note_on_c, 0, 50, 35
1, 67920, Note_on_c, 0, 50, 0
1, 67920, Note_on_c, 0, 46, 27
1, 68000, Note_on_c, 0, 46, 0
1, 68000, Note_on_c, 0, 50, 35
1, 68080, Note_on_c, 0, 50, 0
1, 68080, Note_on_c, 0, 46, 27
1, 68160, Tempo, 746733
1, 68160, Note_on_c, 0, 46, 0
1, 68160, Note_on_c, 0, 53, 0
1, 68160, Note_on_c, 0, 50, 66
1, 68160, Note_on_c, 0, 62, 66
1, 68160, Note_on_c, 0, 54, 50
1, 68160, Note_on_c, 0, 48, 50
1, 68173, Control_c, 0, 64, 0
1, 68224, Control_c, 0, 64, 127
1, 68240, Note_on_c, 0, 48, 0
1, 68240, Note_on_c, 0, 45, 42
1, 68320, Note_on_c, 0, 45, 0
1, 68320, Note_on_c, 0, 48, 50
1, 68400, Note_on_c, 0, 48, 0
1, 68400, Note_on_c, 0, 45, 44
1, 68480, Note_on_c, 0, 45, 0
1, 68480, Note_on_c, 0, 48, 51
1, 68560, Note_on_c, 0, 48, 0
1, 68560, Note_on_c, 0, 45, 45
1, 68640, Tempo, 779221
1, 68640, Note_on_c, 0, 45, 0
1, 68640, Note_on_c, 0, 48, 52
1, 68720, Note_on_c, 0, 48, 0
1, 68720, Note_on_c, 0, 45, 46
1, 68800, Note_on_c, 0, 45, 0
1, 68800, Note_on_c, 0, 48, 53
1, 68880, Tempo, 864678
1, 68880, Note_on_c, 0, 48, 0
1, 68880, Note_on_c, 0, 50, 0
1, 68880, Note_on_c, 0, 62, 0
1, 68880, Note_on_c, 0, 50, 67
1, 68880, Note_on_c, 0, 62, 67
1, 68880, Note_on_c, 0, 45, 46
1, 68960, Note_on_c, 0, 45, 0
1, 68960, Note_on_c, 0, 48, 54
1, 69040, Note_on_c, 0, 48, 0
1, 69040, Note_on_c, 0, 45, 47
1, 69100, Tempo, 745342
1, 69120, Note_on_c, 0, 45, 0
1, 69120, Note_on_c, 0, 54, 0
1, 69120, Note_on_c, 0, 50, 0
1, 69120, Note_on_c, 0, 62, 0
1, 69120, Note_on_c, 0, 50, 53
1, 69120, Note_on_c, 0, 59, 53
1, 69120, Note_on_c, 0, 31, 50
1, 69120, Note_on_c, 0, 35, 50
1, 69120, Note_on_c, 0, 38, 50
1, 69120, Note_on_c, 0, 43, 60
1, 69131, Control_c, 0, 64, 0
1, 69180, Tempo, 740741
1, 69180, Note_on_c, 0, 59, 0
1, 69180, Note_on_c, 0, 50, 0
1, 69180, Note_on_c, 0, 62, 45
1, 69180, Control_c, 0, 64, 127
1, 69240, Note_on_c, 0, 62, 0
1, 69240, Note_on_c, 0, 50, 53
1, 69240, Note_on_c, 0, 59, 53
1, 69260, Tempo, 736196
1, 69300, Note_on_c, 0, 59, 0
1, 69300, Note_on_c, 0, 50, 0
1, 69300, Note_on_c, 0, 62, 46
1, 69340, Tempo, 731707
1, 69360, Note_on_c, 0, 62, 0
1, 69360, Note_on_c, 0, 50, 52
1, 69360, Note_on_c, 0, 59, 52
1, 69400, Tempo, 727273
1, 69420, Note_on_c, 0, 59, 0
1, 69420, Note_on_c, 0, 50, 0
1, 69420, Note_on_c, 0, 62, 45
1, 69480, Tempo, 722892
1, 69480, Note_on_c, 0, 62, 0
1, 69480, Note_on_c, 0, 50, 51
1, 69480, Note_on_c, 0, 59, 51
1, 69540, Note_on_c, 0, 59, 0
1, 69540, Note_on_c, 0, 50, 0
1, 69540, Note_on_c, 0, 62, 46
1, 69560, Tempo, 718563
1, 69600, Note_on_c, 0, 62, 0
1, 69600, Note_on_c, 0, 50, 51
1, 69600, Note_on_c, 0, 59, 51
1, 69620, Tempo, 714286
1, 69660, Note_on_c, 0, 59, 0
1, 69660, Note_on_c, 0, 50, 0
1, 69660, Note_on_c, 0, 62, 44
1, 69700, Tempo, 710059
1, 69720, Note_on_c, 0, 62, 0
1, 69720, Note_on_c, 0, 50, 50
1, 69720, Note_on_c, 0, 59, 50
1, 69780, Tempo, 705882
1, 69780, Note_on_c, 0, 59, 0
1, 69780, Note_on_c, 0, 50, 0
1, 69780, Note_on_c, 0, 62, 45
1, 69840, Tempo, 701754
1, 69840, Note_on_c, 0, 62, 0
1, 69840, Note_on_c, 0, 50, 50
1, 69840, Note_on_c, 0, 59, 50
1, 69900, Note_on_c, 0, 59, 0
1, 69900, Note_on_c, 0, 50, 0
1, 69900, Note_on_c, 0, 62, 44
1, 69960, Note_on_c, 0, 62, 0
1, 69960, Note_on_c, 0, 50, 49
1, 69960, Note_on_c, 0, 59, 49
1, 69980, Tempo, 701754
1, 70020, Note_on_c, 0, 59, 0
1, 70020, Note_on_c, 0, 50, 0
1, 70020, Note_on_c, 0, 62, 45
1, 70060, Tempo, 705882
1, 70080, Note_on_c, 0, 62, 0
1, 70080, Note_on_c, 0, 31, 0
1, 70080, Note_on_c, 0, 35, 0
1, 70080, Note_on_c, 0, 43, 0
1, 70080, Note_on_c, 0, 38, 0
1, 70080, Note_on_c, 0, 50, 49
1, 70080, Note_on_c, 0, 59, 49
1, 70140, Tempo, 710059
1, 70140, Note_on_c, 0, 59, 0
1, 70140, Note_on_c, 0, 50, 0
1, 70140, Note_on_c, 0, 62, 42
1, 70200, Tempo, 714286
1, 70200, Note_on_c, 0, 62, 0
1, 70200, Note_on_c, 0, 50, 48
1, 70200, Note_on_c, 0, 59, 48
1, 70260, Note_on_c, 0, 59, 0
1, 70260, Note_on_c, 0, 50, 0
1, 70260, Note_on_c, 0, 62, 43
1, 70280, Tempo, 718563
1, 70320, Note_on_c, 0, 62, 0
1, 70320, Note_on_c, 0, 50, 48
1, 70320, Note_on_c, 0, 59, 48
1, 70360, Tempo, 722892
1, 70380, Note_on_c, 0, 59, 0
1, 70380, Note_on_c, 0, 50, 0
1, 70380, Note_on_c, 0, 62, 42
1, 70420, Tempo, 727273
1, 70440, Note_on_c, 0, 62, 0
1, 70440, Note_on_c, 0, 50, 47
1, 70440, Note_on_c, 0, 59, 47
1, 70500, Tempo, 731707
1, 70500, Note_on_c, 0, 59, 0
1, 70500, Note_on_c, 0, 50, 0
1, 70500, Note_on_c, 0, 62, 43
1, 70560, Tempo, 736196
1, 70560, Note_on_c, 0, 62, 0
1, 70560, Note_on_c, 0, 67, 71
1, 70560, Note_on_c, 0, 79, 71
1, 70560, Note_on_c, 0, 47, 64
1, 70571, Control_c, 0, 64, 0
1, 70603, Control_c, 0, 64, 127
1, 70640, Note_on_c, 0, 47, 0
1, 70640, Note_on_c, 0, 55, 55
1, 70720, Note_on_c, 0, 55, 0
1, 70720, Note_on_c, 0, 47, 63
1, 70800, Note_on_c, 0, 47, 0
1, 70800, Note_on_c, 0, 55, 53
1, 70880, Note_on_c, 0, 55, 0
1, 70880, Note_on_c, 0, 47, 63
1, 70960, Note_on_c, 0, 47, 0
1, 70960, Note_on_c, 0, 55, 55
1, 71040, Note_on_c, 0, 55, 0
1, 71040, Note_on_c, 0, 79, 0
1, 71040, Note_on_c, 0, 67, 0
1, 71040, Note_on_c, 0, 66, 69
1, 71040, Note_on_c, 0, 78, 69
1, 71040, Note_on_c, 0, 48, 63
1, 71050, Control_c, 0, 64, 0
1, 71091, Control_c, 0, 64, 127
1, 71120, Note_on_c, 0, 48, 0
1, 71120, Note_on_c, 0, 57, 55
1, 71200, Note_on_c, 0, 57, 0
1, 71200, Note_on_c, 0, 48, 63
1, 71280, Note_on_c, 0, 48, 0
1, 71280, Note_on_c, 0, 57, 53
1, 71360, Note_on_c, 0, 57, 0
1, 71360, Note_on_c, 0, 48, 62
1, 71440, Note_on_c, 0, 48, 0
1, 71440, Note_on_c, 0, 57, 53
1, 71520, Tempo, 766675
1, 71520, Note_on_c, 0, 57, 0
1, 71520, Note_on_c, 0, 78, 0
1, 71520, Note_on_c, 0, 66, 0
1, 71520, Note_on_c, 0, 65, 67
1, 71520, Note_on_c, 0, 77, 67
1, 71520, Note_on_c, 0, 50, 62
1, 71529, Control_c, 0, 64, 0
1, 71563, Control_c, 0, 64, 127
1, 71600, Note_on_c, 0, 50, 0
1, 71600, Note_on_c, 0, 59, 54
1, 71680, Note_on_c, 0, 59, 0
1, 71680, Note_on_c, 0, 50, 63
1, 71760, Note_on_c, 0, 50, 0
1, 71760, Note_on_c, 0, 59, 57
1, 71840, Note_on_c, 0, 59, 0
1, 71840, Note_on_c, 0, 50, 64
1, 71920, Note_on_c, 0, 50, 0
1, 71920, Note_on_c, 0, 59, 59
1, 72000, Tempo, 732422
1, 72000, Note_on_c, 0, 59, 0
1, 72000, Note_on_c, 0, 77, 0
1, 72000, Note_on_c, 0, 65, 0
1, 72000, Note_on_c, 0, 63, 66
1, 72000, Note_on_c, 0, 75, 66
1, 72000, Note_on_c, 0, 51, 67
1, 72009, Control_c, 0, 64, 0
1, 72043, Control_c, 0, 64, 127
1, 72080, Note_on_c, 0, 51, 0
1, 72080, Note_on_c, 0, 60, 54
1, 72160, Note_on_c, 0, 60, 0
1, 72160, Note_on_c, 0, 51, 60
1, 72240, Note_on_c, 0, 51, 0
1, 72240, Note_on_c, 0, 60, 52
1, 72320, Note_on_c, 0, 60, 0
1, 72320, Note_on_c, 0, 51, 60
1, 72400, Note_on_c, 0, 51, 0
1, 72400, Note_on_c, 0, 60, 52
1, 72480, Tempo, 751597
1, 72480, Note_on_c, 0, 60, 0
1, 72480, Note_on_c, 0, 75, 0
1, 72480, Note_on_c, 0, 63, 0
1, 72480, Note_on_c, 0, 68, 59
1, 72480, Note_on_c, 0, 71, 65
1, 72480, Note_on_c, 0, 74, 65
1, 72480, Note_on_c, 0, 53, 59
1, 72494, Control_c, 0, 64, 0
1, 72520, Control_c, 0, 64, 127
1, 72560, Note_on_c, 0, 53, 0
1, 72560, Note_on_c, 0, 62, 53
1, 72640, Note_on_c, 0, 62, 0
1, 72640, Note_on_c, 0, 53, 58
1, 72720, Note_on_c, 0, 53, 0
1, 72720, Note_on_c, 0, 62, 51
1, 72800, Note_on_c, 0, 62, 0
1, 72800, Note_on_c, 0, 53, 58
1, 72880, Note_on_c, 0, 53, 0
1, 72880, Note_on_c, 0, 62, 51
1, 72960, Note_on_c, 0, 62, 0
1, 72960, Note_on_c, 0, 74, 0
1, 72960, Note_on_c, 0, 71, 0
1, 72960, Note_on_c, 0, 68, 0
1, 72960, Note_on_c, 0, 67, 63
1, 72960, Note_on_c, 0, 72, 63
1, 72960, Note_on_c, 0, 55, 57
1, 72971, Control_c, 0, 64, 0
1, 72997, Control_c, 0, 64, 127
1, 73040, Note_on_c, 0, 55, 0
1, 73040, Note_on_c, 0, 63, 51
1, 73120, Note_on_c, 0, 63, 0
1, 73120, Note_on_c, 0, 55, 56
1, 73200, Note_on_c, 0, 55, 0
1, 73200, Note_on_c, 0, 63, 50
1, 73280, Note_on_c, 0, 63, 0
1, 73280, Note_on_c, 0, 55, 57
1, 73360, Note_on_c, 0, 55, 0
1, 73360, Note_on_c, 0, 63, 51
1, 73440, Tempo, 714286
1, 73440, Note_on_c, 0, 63, 0
1, 73440, Note_on_c, 0, 72, 0
1, 73440, Note_on_c, 0, 67, 0
1, 73440, Note_on_c, 0, 63, 63
1, 73440, Note_on_c, 0, 55, 63
1, 73440, Note_on_c, 0, 27, 55
1, 73440, Note_on_c, 0, 39, 66
1, 73457, Control_c, 0, 64, 0
1, 73511, Control_c, 0, 64, 127
1, 73520, Note_on_c, 0, 55, 0
1, 73520, Note_on_c, 0, 63, 0
1, 73520, Note_on_c, 0, 67, 51
1, 73560, Tempo, 710059
1, 73600, Note_on_c, 0, 67, 0
1, 73600, Note_on_c, 0, 63, 58
1, 73600, Note_on_c, 0, 55, 58
1, 73680, Tempo, 705882
1, 73680, Note_on_c, 0, 55, 0
1, 73680, Note_on_c, 0, 63, 0
1, 73680, Note_on_c, 0, 67, 52
1, 73760, Note_on_c, 0, 67, 0
1, 73760, Note_on_c, 0, 55, 60
1, 73760, Note_on_c, 0, 63, 60
1, 73800, Tempo, 701754
1, 73840, Note_on_c, 0, 63, 0
1, 73840, Note_on_c, 0, 55, 0
1, 73840, Note_on_c, 0, 67, 54
1, 73920, Tempo, 697674
1, 73920, Note_on_c, 0, 67, 0
1, 73920, Note_on_c, 0, 27, 0
1, 73920, Note_on_c, 0, 39, 0
1, 73920, Note_on_c, 0, 62, 66
1, 73920, Note_on_c, 0, 53, 66
1, 73920, Note_on_c, 0, 29, 56
1, 73920, Note_on_c, 0, 41, 67
1, 73939, Control_c, 0, 64, 0
1, 73994, Control_c, 0, 64, 127
1, 74000, Note_on_c, 0, 53, 0
1, 74000, Note_on_c, 0, 62, 0
1, 74000, Note_on_c, 0, 65, 55
1, 74080, Note_on_c, 0, 65, 0
1, 74080, Note_on_c, 0, 62, 62
1, 74080, Note_on_c, 0, 53, 62
1, 74160, Note_on_c, 0, 53, 0
1, 74160, Note_on_c, 0, 62, 0
1, 74160, Note_on_c, 0, 65, 56
1, 74240, Note_on_c, 0, 65, 0
1, 74240, Note_on_c, 0, 53, 63
1, 74240, Note_on_c, 0, 62, 63
1, 74320, Note_on_c, 0, 62, 0
1, 74320, Note_on_c, 0, 53, 0
1, 74320, Note_on_c, 0, 65, 57
1, 74400, Note_on_c, 0, 65, 0
1, 74400, Note_on_c, 0, 29, 0
1, 74400, Note_on_c, 0, 41, 0
1, 74400, Note_on_c, 0, 60, 70
1, 74400, Note_on_c, 0, 51, 70
1, 74400, Note_on_c, 0, 30, 57
1, 74400, Note_on_c, 0, 42, 69
1, 74406, Control_c, 0, 64, 0
1, 74431, Control_c, 0, 64, 127
1, 74480, Note_on_c, 0, 51, 0
1, 74480, Note_on_c, 0, 60, 0
1, 74480, Note_on_c, 0, 63, 58
1, 74560, Note_on_c, 0, 63, 0
1, 74560, Note_on_c, 0, 60, 65
1, 74560, Note_on_c, 0, 51, 65
1, 74640, Tempo, 787608
1, 74640, Note_on_c, 0, 51, 0
1, 74640, Note_on_c, 0, 42, 0
1, 74640, Note_on_c, 0, 30, 0
1, 74640, Note_on_c, 0, 60, 0
1, 74640, Note_on_c, 0, 63, 60
1, 74720, Note_on_c, 0, 63, 0
1, 74720, Note_on_c, 0, 51, 67
1, 74720, Note_on_c, 0, 60, 67
1, 74760, Tempo, 1197844
1, 74760, Note_on_c, 0, 31, 58
1, 74790, Note_on_c, 0, 31, 0
1, 74790, Note_on_c, 0, 35, 62
1, 74800, Note_on_c, 0, 60, 0
1, 74800, Note_on_c, 0, 51, 0
1, 74800, Note_on_c, 0, 63, 62
1, 74820, Note_on_c, 0, 35, 0
1, 74820, Note_on_c, 0, 38, 66
1, 74850, Note_on_c, 0, 38, 0
1, 74850, Note_on_c, 0, 43, 70
1, 74880, Tempo, 727802
1, 74880, Note_on_c, 0, 43, 0
1, 74880, Note_on_c, 0, 63, 0
1, 74880, Note_on_c, 0, 50, 53
1, 74880, Note_on_c, 0, 59, 53
1, 74880, Note_on_c, 0, 71, 80
1, 74880, Note_on_c, 0, 74, 80
1, 74887, Control_c, 0, 64, 0
1, 74923, Control_c, 0, 64, 127
1, 74940, Note_on_c, 0, 59, 0
1, 74940, Note_on_c, 0, 50, 0
1, 74940, Note_on_c, 0, 62, 45
1, 74960, Tempo, 723240
1, 75000, Note_on_c, 0, 62, 0
1, 75000, Note_on_c, 0, 50, 53
1, 75000, Note_on_c, 0, 59, 53
1, 75020, Tempo, 718735
1, 75060, Note_on_c, 0, 59, 0
1, 75060, Note_on_c, 0, 50, 0
1, 75060, Note_on_c, 0, 62, 48
1, 75080, Tempo, 714286
1, 75120, Note_on_c, 0, 62, 0
1, 75120, Note_on_c, 0, 50, 54
1, 75120, Note_on_c, 0, 59, 54
1, 75140, Tempo, 709807
1, 75180, Note_on_c, 0, 59, 0
1, 75180, Note_on_c, 0, 50, 0
1, 75180, Note_on_c, 0, 62, 47
1, 75220, Tempo, 705467
1, 75240, Note_on_c, 0, 62, 0
1, 75240, Note_on_c, 0, 50, 54
1, 75240, Note_on_c, 0, 59, 54
1, 75280, Tempo, 701180
1, 75300, Note_on_c, 0, 59, 0
1, 75300, Note_on_c, 0, 50, 0
1, 75300, Note_on_c, 0, 62, 50
1, 75340, Tempo, 696945
1, 75360, Note_on_c, 0, 62, 0
1, 75360, Note_on_c, 0, 50, 54
1, 75360, Note_on_c, 0, 59, 54
1, 75400, Tempo, 684463
1, 75420, Note_on_c, 0, 59, 0
1, 75420, Note_on_c, 0, 50, 0
1, 75420, Note_on_c, 0, 62, 47
1, 75480, Note_on_c, 0, 62, 0
1, 75480, Note_on_c, 0, 50, 55
1, 75480, Note_on_c, 0, 59, 55
1, 75540, Tempo, 688547
1, 75540, Note_on_c, 0, 59, 0
1, 75540, Note_on_c, 0, 50, 0
1, 75540, Note_on_c, 0, 62, 50
1, 75600, Note_on_c, 0, 62, 0
1, 75600, Note_on_c, 0, 50, 56
1, 75600, Note_on_c, 0, 59, 56
1, 75660, Tempo, 692761
1, 75660, Note_on_c, 0, 59, 0
1, 75660, Note_on_c, 0, 50, 0
1, 75660, Note_on_c, 0, 62, 50
1, 75720, Note_on_c, 0, 62, 0
1, 75720, Note_on_c, 0, 50, 56
1, 75720, Note_on_c, 0, 59, 56
1, 75780, Tempo, 696945
1, 75780, Note_on_c, 0, 59, 0
1, 75780, Note_on_c, 0, 50, 0
1, 75780, Note_on_c, 0, 62, 52
1, 75840, Note_on_c, 0, 62, 0
1, 75840, Note_on_c, 0, 50, 57
1, 75840, Note_on_c, 0, 59, 57
1, 75900, Tempo, 701180
1, 75900, Note_on_c, 0, 59, 0
1, 75900, Note_on_c, 0, 50, 0
1, 75900, Note_on_c, 0, 62, 49
1, 75960, Note_on_c, 0, 62, 0
1, 75960, Note_on_c, 0, 50, 56
1, 75960, Note_on_c, 0, 59, 56
1, 76020, Tempo, 705467
1, 76020, Note_on_c, 0, 59, 0
1, 76020, Note_on_c, 0, 50, 0
1, 76020, Note_on_c, 0, 62, 50
1, 76080, Note_on_c, 0, 62, 0
1, 76080, Note_on_c, 0, 50, 54
1, 76080, Note_on_c, 0, 59, 54
1, 76140, Tempo, 709807
1, 76140, Note_on_c, 0, 59, 0
1, 76140, Note_on_c, 0, 50, 0
1, 76140, Note_on_c, 0, 62, 48
1, 76200, Note_on_c, 0, 62, 0
1, 76200, Note_on_c, 0, 50, 54
1, 76200, Note_on_c, 0, 59, 54
1, 76260, Tempo, 714286
1, 76260, Note_on_c, 0, 59, 0
1, 76260, Note_on_c, 0, 50, 0
1, 76260, Note_on_c, 0, 62, 48
1, 76320, Tempo, 657102
1, 76320, Note_on_c, 0, 62, 0
1, 76320, Note_on_c, 0, 71, 0
1, 76320, Note_on_c, 0, 74, 0
1, 76320, Note_on_c, 0, 53, 74
1, 76334, Control_c, 0, 64, 0
1, 76371, Control_c, 0, 64, 127
1, 76400, Note_on_c, 0, 56, 54
1, 76440, Note_on_c, 0, 53, 0
1, 76480, Note_on_c, 0, 56, 0
1, 76480, Note_on_c, 0, 53, 60
1, 76560, Tempo, 638842
1, 76560, Note_on_c, 0, 53, 0
1, 76560, Note_on_c, 0, 59, 54
1, 76560, Note_on_c, 0, 62, 54
1, 76560, Note_on_c, 0, 71, 65
1, 76560, Note_on_c, 0, 56, 54
1, 76640, Note_on_c, 0, 56, 0
1, 76640, Note_on_c, 0, 53, 60
1, 76720, Note_on_c, 0, 53, 0
1, 76720, Note_on_c, 0, 56, 54
1, 76800, Note_on_c, 0, 56, 0
1, 76800, Note_on_c, 0, 51, 75
1, 76811, Control_c, 0, 64, 0
1, 76840, Control_c, 0, 64, 127
1, 76880, Note_on_c, 0, 55, 52
1, 76920, Note_on_c, 0, 51, 0
1, 76960, Note_on_c, 0, 55, 0
1, 76960, Note_on_c, 0, 51, 57
1, 77040, Note_on_c, 0, 51, 0
1, 77040, Note_on_c, 0, 59, 0
1, 77040, Note_on_c, 0, 62, 0
1, 77040, Note_on_c, 0, 71, 0
1, 77040, Note_on_c, 0, 60, 59
1, 77040, Note_on_c, 0, 63, 59
1, 77040, Note_on_c, 0, 72, 71
1, 77040, Note_on_c, 0, 55, 53
1, 77120, Note_on_c, 0, 55, 0
1, 77120, Note_on_c, 0, 51, 57
1, 77200, Note_on_c, 0, 51, 0
1, 77200, Note_on_c, 0, 55, 54
1, 77240, Tempo, 649702
1, 77260, Tempo, 634921
1, 77280, Note_on_c, 0, 55, 0
1, 77280, Note_on_c, 0, 44, 76
1, 77301, Control_c, 0, 64, 0
1, 77331, Control_c, 0, 64, 127
1, 77360, Note_on_c, 0, 53, 56
1, 77400, Note_on_c, 0, 44, 0
1, 77420, Tempo, 631579
1, 77440, Note_on_c, 0, 53, 0
1, 77440, Note_on_c, 0, 44, 61
1, 77520, Note_on_c, 0, 44, 0
1, 77520, Note_on_c, 0, 60, 0
1, 77520, Note_on_c, 0, 63, 0
1, 77520, Note_on_c, 0, 72, 0
1, 77520, Note_on_c, 0, 62, 60
1, 77520, Note_on_c, 0, 65, 60
1, 77520, Note_on_c, 0, 74, 72
1, 77520, Note_on_c, 0, 53, 55
1, 77580, Tempo, 628272
1, 77600, Note_on_c, 0, 53, 0
1, 77600, Note_on_c, 0, 44, 61
1, 77680, Note_on_c, 0, 44, 0
1, 77680, Note_on_c, 0, 53, 61
1, 77740, Tempo, 625000
1, 77760, Note_on_c, 0, 53, 0
1, 77760, Note_on_c, 0, 43, 77
1, 77772, Control_c, 0, 64, 0
1, 77794, Control_c, 0, 64, 127
1, 77840, Note_on_c, 0, 51, 54
1, 77880, Note_on_c, 0, 43, 0
1, 77900, Tempo, 621762
1, 77920, Note_on_c, 0, 51, 0
1, 77920, Note_on_c, 0, 43, 60
1, 78000, Note_on_c, 0, 43, 0
1, 78000, Note_on_c, 0, 62, 0
1, 78000, Note_on_c, 0, 65, 0
1, 78000, Note_on_c, 0, 74, 0
1, 78000, Note_on_c, 0, 63, 63
1, 78000, Note_on_c, 0, 67, 63
1, 78000, Note_on_c, 0, 75, 74
1, 78000, Note_on_c, 0, 51, 56
1, 78060, Tempo, 618557
1, 78080, Note_on_c, 0, 51, 0
1, 78080, Note_on_c, 0, 43, 61
1, 78160, Note_on_c, 0, 43, 0
1, 78160, Note_on_c, 0, 51, 55
1, 78220, Tempo, 615385
1, 78240, Note_on_c, 0, 51, 0
1, 78240, Note_on_c, 0, 41, 77
1, 78250, Control_c, 0, 64, 0
1, 78291, Control_c, 0, 64, 127
1, 78320, Note_on_c, 0, 50, 58
1, 78360, Note_on_c, 0, 41, 0
1, 78400, Note_on_c, 0, 50, 0
1, 78400, Note_on_c, 0, 41, 63
1, 78440, Tempo, 612245
1, 78480, Note_on_c, 0, 41, 0
1, 78480, Note_on_c, 0, 63, 0
1, 78480, Note_on_c, 0, 67, 0
1, 78480, Note_on_c, 0, 75, 0
1, 78480, Note_on_c, 0, 65, 64
1, 78480, Note_on_c, 0, 74, 64
1, 78480, Note_on_c, 0, 77, 76
1, 78480, Note_on_c, 0, 50, 57
1, 78560, Note_on_c, 0, 50, 0
1, 78560, Note_on_c, 0, 41, 63
1, 78640, Tempo, 609137
1, 78640, Note_on_c, 0, 41, 0
1, 78640, Note_on_c, 0, 50, 56
1, 78720, Note_on_c, 0, 50, 0
1, 78720, Note_on_c, 0, 39, 79
1, 78730, Control_c, 0, 64, 0
1, 78766, Control_c, 0, 64, 127
1, 78800, Note_on_c, 0, 48, 59
1, 78840, Note_on_c, 0, 39, 0
1, 78860, Tempo, 606061
1, 78880, Note_on_c, 0, 48, 0
1, 78880, Note_on_c, 0, 39, 63
1, 78960, Note_on_c, 0, 39, 0
1, 78960, Note_on_c, 0, 65, 0
1, 78960, Note_on_c, 0, 74, 0
1, 78960, Note_on_c, 0, 77, 0
1, 78960, Note_on_c, 0, 67, 67
1, 78960, Note_on_c, 0, 75, 67
1, 78960, Note_on_c, 0, 79, 79
1, 78960, Note_on_c, 0, 48, 60
1, 79040, Note_on_c, 0, 48, 0
1, 79040, Note_on_c, 0, 39, 64
1, 79060, Tempo, 603015
1, 79120, Note_on_c, 0, 39, 0
1, 79120, Note_on_c, 0, 48, 59
1, 79200, Note_on_c, 0, 48, 0
1, 79200, Note_on_c, 0, 38, 80
1, 79213, Control_c, 0, 64, 0
1, 79260, Control_c, 0, 64, 127
1, 79280, Tempo, 600000
1, 79280, Note_on_c, 0, 47, 60
1, 79320, Note_on_c, 0, 38, 0
1, 79360, Note_on_c, 0, 47, 0
1, 79360, Note_on_c, 0, 38, 65
1, 79440, Note_on_c, 0, 38, 0
1, 79440, Note_on_c, 0, 67, 0
1, 79440, Note_on_c, 0, 75, 0
1, 79440, Note_on_c, 0, 79, 0
1, 79440, Note_on_c, 0, 67, 70
1, 79440, Note_on_c, 0, 77, 70
1, 79440, Note_on_c, 0, 79, 82
1, 79440, Note_on_c, 0, 47, 59
1, 79480, Tempo, 597015
1, 79520, Note_on_c, 0, 47, 0
1, 79520, Note_on_c, 0, 38, 64
1, 79600, Note_on_c, 0, 38, 0
1, 79600, Note_on_c, 0, 47, 62
1, 79680, Tempo, 594059
1, 79680, Note_on_c, 0, 47, 0
1, 79680, Note_on_c, 0, 36, 81
1, 79680, Note_on_c, 0, 39, 75
1, 79688, Control_c, 0, 64, 0
1, 79754, Control_c, 0, 64, 127
1, 79760, Tempo, 614943
1, 79760, Note_on_c, 0, 39, 0
1, 79760, Note_on_c, 0, 48, 62
1, 79840, Note_on_c, 0, 48, 0
1, 79840, Note_on_c, 0, 39, 66
1, 79920, Note_on_c, 0, 39, 0
1, 79920, Note_on_c, 0, 79, 0
1, 79920, Note_on_c, 0, 67, 0
1, 79920, Note_on_c, 0, 77, 0
1, 79920, Note_on_c, 0, 87, 90
1, 79920, Note_on_c, 0, 79, 76
1, 79920, Note_on_c, 0, 75, 76
1, 79920, Note_on_c, 0, 48, 61
1, 79960, Tempo, 608458
1, 80000, Note_on_c, 0, 48, 0
1, 80000, Note_on_c, 0, 39, 65
1, 80080, Note_on_c, 0, 39, 0
1, 80080, Note_on_c, 0, 48, 61
1, 80120, Tempo, 611683
1, 80160, Note_on_c, 0, 48, 0
1, 80160, Note_on_c, 0, 36, 0
1, 80160, Note_on_c, 0, 34, 81
1, 80160, Note_on_c, 0, 40, 77
1, 80168, Control_c, 0, 64, 0
1, 80189, Control_c, 0, 64, 127
1, 80240, Tempo, 614943
1, 80240, Note_on_c, 0, 40, 0
1, 80240, Note_on_c, 0, 46, 63
1, 80280, Tempo, 624935
1, 80320, Note_on_c, 0, 46, 0
1, 80320, Note_on_c, 0, 34, 0
1, 80320, Note_on_c, 0, 34, 67
1, 80320, Note_on_c, 0, 40, 67
1, 80360, Tempo, 645995
1, 80400, Tempo, 782269
1, 80400, Note_on_c, 0, 40, 0
1, 80400, Note_on_c, 0, 87, 0
1, 80400, Note_on_c, 0, 75, 0
1, 80400, Note_on_c, 0, 79, 0
1, 80400, Note_on_c, 0, 86, 91
1, 80400, Note_on_c, 0, 80, 76
1, 80400, Note_on_c, 0, 74, 76
1, 80400, Note_on_c, 0, 46, 63
1, 80480, Note_on_c, 0, 46, 0
1, 80480, Note_on_c, 0, 34, 0
1, 80480, Note_on_c, 0, 34, 67
1, 80480, Note_on_c, 0, 40, 66
1, 80560, Note_on_c, 0, 40, 0
1, 80560, Note_on_c, 0, 46, 63
1, 80600, Tempo, 672495
1, 80640, Tempo, 680426
1, 80640, Note_on_c, 0, 46, 0
1, 80640, Note_on_c, 0, 34, 0
1, 80640, Note_on_c, 0, 74, 0
1, 80640, Note_on_c, 0, 80, 0
1, 80640, Note_on_c, 0, 86, 0
1, 80640, Note_on_c, 0, 85, 95
1, 80640, Note_on_c, 0, 81, 80
1, 80640, Note_on_c, 0, 73, 80
1, 80640, Note_on_c, 0, 33, 79
1, 80640, Note_on_c, 0, 40, 79
1, 80640, Note_on_c, 0, 45, 79
1, 80651, Control_c, 0, 64, 0
1, 80880, Note_on_c, 0, 45, 0
1, 80880, Note_on_c, 0, 81, 0
1, 80880, Note_on_c, 0, 73, 0
1, 80880, Note_on_c, 0, 85, 0
1, 80880, Note_on_c, 0, 40, 0
1, 80880, Note_on_c, 0, 33, 0
1, 81120, Tempo, 740741
1, 81120, Note_on_c, 0, 52, 55
1, 81120, Note_on_c, 0, 61, 55
1, 81160, Tempo, 736196
1, 81166, Control_c, 0, 64, 127
1, 81180, Tempo, 731707
1, 81180, Note_on_c, 0, 61, 0
1, 81180, Note_on_c, 0, 52, 0
1, 81180, Note_on_c, 0, 64, 47
1, 81220, Tempo, 727273
1, 81240, Tempo, 722892
1, 81240, Note_on_c, 0, 64, 0
1, 81240, Note_on_c, 0, 52, 54
1, 81240, Note_on_c, 0, 61, 54
1, 81280, Tempo, 718563
1, 81300, Tempo, 714286
1, 81300, Note_on_c, 0, 61, 0
1, 81300, Note_on_c, 0, 52, 0
1, 81300, Note_on_c, 0, 64, 49
1, 81340, Tempo, 710059
1, 81360, Tempo, 705882
1, 81360, Note_on_c, 0, 64, 0
1, 81360, Note_on_c, 0, 52, 54
1, 81360, Note_on_c, 0, 61, 54
1, 81400, Tempo, 701754
1, 81420, Tempo, 697674
1, 81420, Note_on_c, 0, 61, 0
1, 81420, Note_on_c, 0, 52, 0
1, 81420, Note_on_c, 0, 64, 47
1, 81440, Tempo, 693642
1, 81460, Tempo, 705882
1, 81480, Note_on_c, 0, 64, 0
1, 81480, Note_on_c, 0, 52, 54
1, 81480, Note_on_c, 0, 61, 54
1, 81540, Note_on_c, 0, 61, 0
1, 81540, Note_on_c, 0, 52, 0
1, 81540, Note_on_c, 0, 64, 49
1, 81560, Tempo, 701754
1, 81600, Note_on_c, 0, 64, 0
1, 81600, Note_on_c, 0, 52, 54
1, 81600, Note_on_c, 0, 61, 54
1, 81620, Tempo, 705882
1, 81660, Note_on_c, 0, 61, 0
1, 81660, Note_on_c, 0, 52, 0
1, 81660, Note_on_c, 0, 64, 45
1, 81680, Tempo, 710059
1, 81720, Tempo, 714286
1, 81720, Note_on_c, 0, 64, 0
1, 81720, Note_on_c, 0, 52, 53
1, 81720, Note_on_c, 0, 61, 53
1, 81780, Tempo, 718563
1, 81780, Note_on_c, 0, 61, 0
1, 81780, Note_on_c, 0, 52, 0
1, 81780, Note_on_c, 0, 64, 46
1, 81840, Tempo, 722892
1, 81840, Note_on_c, 0, 64, 0
1, 81840, Note_on_c, 0, 52, 53
1, 81840, Note_on_c, 0, 61, 53
1, 81880, Tempo, 727273
1, 81900, Note_on_c, 0, 61, 0
1, 81900, Note_on_c, 0, 52, 0
1, 81900, Note_on_c, 0, 64, 45
1, 81940, Tempo, 731707
1, 81960, Note_on_c, 0, 64, 0
1, 81960, Note_on_c, 0, 52, 52
1, 81960, Note_on_c, 0, 61, 52
1, 82000, Tempo, 736196
1, 82020, Note_on_c, 0, 61, 0
1, 82020, Note_on_c, 0, 52, 0
1, 82020, Note_on_c, 0, 64, 46
1, 82040, Tempo, 740741
1, 82080, Tempo, 746733
1, 82080, Note_on_c, 0, 64, 0
1, 82080, Note_on_c, 0, 69, 71
1, 82080, Note_on_c, 0, 81, 71
1, 82080, Note_on_c, 0, 49, 64
1, 82091, Control_c, 0, 64, 0
1, 82143, Control_c, 0, 64, 127
1, 82160, Note_on_c, 0, 49, 0
1, 82160, Note_on_c, 0, 57, 55
1, 82240, Note_on_c, 0, 57, 0
1, 82240, Note_on_c, 0, 49, 63
1, 82320, Note_on_c, 0, 49, 0
1, 82320, Note_on_c, 0, 57, 53
1, 82400, Note_on_c, 0, 57, 0
1, 82400, Note_on_c, 0, 49, 63
1, 82480, Note_on_c, 0, 49, 0
1, 82480, Note_on_c, 0, 57, 55
1, 82560, Tempo, 731707
1, 82560, Note_on_c, 0, 57, 0
1, 82560, Note_on_c, 0, 81, 0
1, 82560, Note_on_c, 0, 69, 0
1, 82560, Note_on_c, 0, 68, 69
1, 82560, Note_on_c, 0, 80, 69
1, 82560, Note_on_c, 0, 50, 63
1, 82570, Control_c, 0, 64, 0
1, 82611, Control_c, 0, 64, 127
1, 82640, Note_on_c, 0, 50, 0
1, 82640, Note_on_c, 0, 59, 55
1, 82720, Note_on_c, 0, 59, 0
1, 82720, Note_on_c, 0, 50, 63
1, 82800, Note_on_c, 0, 50, 0
1, 82800, Note_on_c, 0, 59, 53
1, 82880, Note_on_c, 0, 59, 0
1, 82880, Note_on_c, 0, 50, 62
1, 82960, Note_on_c, 0, 50, 0
1, 82960, Note_on_c, 0, 59, 53
1, 83040, Tempo, 766675
1, 83040, Note_on_c, 0, 59, 0
1, 83040, Note_on_c, 0, 80, 0
1, 83040, Note_on_c, 0, 68, 0
1, 83040, Note_on_c, 0, 67, 67
1, 83040, Note_on_c, 0, 79, 67
1, 83040, Note_on_c, 0, 52, 62
1, 83049, Control_c, 0, 64, 0
1, 83083, Control_c, 0, 64, 127
1, 83120, Note_on_c, 0, 52, 0
1, 83120, Note_on_c, 0, 61, 54
1, 83200, Note_on_c, 0, 61, 0
1, 83200, Note_on_c, 0, 52, 61
1, 83280, Note_on_c, 0, 52, 0
1, 83280, Note_on_c, 0, 61, 53
1, 83360, Note_on_c, 0, 61, 0
1, 83360, Note_on_c, 0, 52, 62
1, 83440, Note_on_c, 0, 52, 0
1, 83440, Note_on_c, 0, 61, 54
1, 83520, Tempo, 718563
1, 83520, Note_on_c, 0, 61, 0
1, 83520, Note_on_c, 0, 79, 0
1, 83520, Note_on_c, 0, 67, 0
1, 83520, Note_on_c, 0, 65, 66
1, 83520, Note_on_c, 0, 77, 66
1, 83520, Note_on_c, 0, 53, 65
1, 83529, Control_c, 0, 64, 0
1, 83563, Control_c, 0, 64, 127
1, 83600, Note_on_c, 0, 53, 0
1, 83600, Note_on_c, 0, 62, 55
1, 83680, Note_on_c, 0, 62, 0
1, 83680, Note_on_c, 0, 53, 60
1, 83760, Note_on_c, 0, 53, 0
1, 83760, Note_on_c, 0, 62, 52
1, 83840, Note_on_c, 0, 62, 0
1, 83840, Note_on_c, 0, 53, 60
1, 83920, Note_on_c, 0, 53, 0
1, 83920, Note_on_c, 0, 62, 52
1, 84000, Tempo, 740741
1, 84000, Note_on_c, 0, 62, 0
1, 84000, Note_on_c, 0, 77, 0
1, 84000, Note_on_c, 0, 65, 0
1, 84000, Note_on_c, 0, 70, 59
1, 84000, Note_on_c, 0, 73, 65
1, 84000, Note_on_c, 0, 76, 65
1, 84000, Note_on_c, 0, 55, 59
1, 84014, Control_c, 0, 64, 0
1, 84040, Control_c, 0, 64, 127
1, 84080, Note_on_c, 0, 55, 0
1, 84080, Note_on_c, 0, 64, 53
1, 84160, Note_on_c, 0, 64, 0
1, 84160, Note_on_c, 0, 55, 58
1, 84240, Note_on_c, 0, 55, 0
1, 84240, Note_on_c, 0, 64, 51
1, 84320, Note_on_c, 0, 64, 0
1, 84320, Note_on_c, 0, 55, 58
1, 84400, Note_on_c, 0, 55, 0
1, 84400, Note_on_c, 0, 64, 51
1, 84480, Tempo, 745342
1, 84480, Note_on_c, 0, 64, 0
1, 84480, Note_on_c, 0, 76, 0
1, 84480, Note_on_c, 0, 73, 0
1, 84480, Note_on_c, 0, 70, 0
1, 84480, Note_on_c, 0, 69, 63
1, 84480, Note_on_c, 0, 74, 63
1, 84480, Note_on_c, 0, 57, 57
1, 84491, Control_c, 0, 64, 0
1, 84517, Control_c, 0, 64, 127
1, 84560, Note_on_c, 0, 57, 0
1, 84560, Note_on_c, 0, 65, 51
1, 84640, Note_on_c, 0, 65, 0
1, 84640, Note_on_c, 0, 57, 56
1, 84720, Note_on_c, 0, 57, 0
1, 84720, Note_on_c, 0, 65, 50
1, 84800, Note_on_c, 0, 65, 0
1, 84800, Note_on_c, 0, 57, 57
1, 84880, Note_on_c, 0, 57, 0
1, 84880, Note_on_c, 0, 65, 51
1, 84960, Tempo, 718735
1, 84960, Note_on_c, 0, 65, 0
1, 84960, Note_on_c, 0, 74, 0
1, 84960, Note_on_c, 0, 69, 0
1, 84960, Note_on_c, 0, 65, 63
1, 84960, Note_on_c, 0, 57, 63
1, 84960, Note_on_c, 0, 29, 55
1, 84960, Note_on_c, 0, 41, 66
1, 84977, Control_c, 0, 64, 0
1, 85031, Control_c, 0, 64, 127
1, 85040, Note_on_c, 0, 57, 0
1, 85040, Note_on_c, 0, 65, 0
1, 85040, Note_on_c, 0, 69, 51
1, 85120, Note_on_c, 0, 69, 0
1, 85120, Note_on_c, 0, 65, 58
1, 85120, Note_on_c, 0, 57, 58
1, 85200, Note_on_c, 0, 57, 0
1, 85200, Note_on_c, 0, 65, 0
1, 85200, Note_on_c, 0, 69, 52
1, 85280, Note_on_c, 0, 69, 0
1, 85280, Note_on_c, 0, 57, 60
1, 85280, Note_on_c, 0, 65, 60
1, 85360, Note_on_c, 0, 65, 0
1, 85360, Note_on_c, 0, 57, 0
1, 85360, Note_on_c, 0, 69, 54
1, 85400, Tempo, 727802
1, 85440, Tempo, 701180
1, 85440, Note_on_c, 0, 69, 0
1, 85440, Note_on_c, 0, 29, 0
1, 85440, Note_on_c, 0, 41, 0
1, 85440, Note_on_c, 0, 64, 66
1, 85440, Note_on_c, 0, 55, 66
1, 85440, Note_on_c, 0, 31, 56
1, 85440, Note_on_c, 0, 43, 67
1, 85459, Control_c, 0, 64, 0
1, 85514, Control_c, 0, 64, 127
1, 85520, Note_on_c, 0, 55, 0
1, 85520, Note_on_c, 0, 64, 0
1, 85520, Note_on_c, 0, 67, 55
1, 85600, Note_on_c, 0, 67, 0
1, 85600, Note_on_c, 0, 64, 62
1, 85600, Note_on_c, 0, 55, 62
1, 85680, Note_on_c, 0, 55, 0
1, 85680, Note_on_c, 0, 64, 0
1, 85680, Note_on_c, 0, 67, 56
1, 85760, Note_on_c, 0, 67, 0
1, 85760, Note_on_c, 0, 55, 63
1, 85760, Note_on_c, 0, 64, 63
1, 85840, Note_on_c, 0, 64, 0
1, 85840, Note_on_c, 0, 55, 0
1, 85840, Note_on_c, 0, 67, 57
1, 85920, Note_on_c, 0, 67, 0
1, 85920, Note_on_c, 0, 31, 0
1, 85920, Note_on_c, 0, 43, 0
1, 85920, Note_on_c, 0, 62, 70
1, 85920, Note_on_c, 0, 53, 70
1, 85920, Note_on_c, 0, 32, 57
1, 85920, Note_on_c, 0, 44, 69
1, 85926, Control_c, 0, 64, 0
1, 85969, Control_c, 0, 64, 127
1, 86000, Note_on_c, 0, 53, 0
1, 86000, Note_on_c, 0, 62, 0
1, 86000, Note_on_c, 0, 65, 58
1, 86080, Note_on_c, 0, 65, 0
1, 86080, Note_on_c, 0, 62, 65
1, 86080, Note_on_c, 0, 53, 65
1, 86160, Tempo, 787608
1, 86160, Note_on_c, 0, 53, 0
1, 86160, Note_on_c, 0, 44, 0
1, 86160, Note_on_c, 0, 32, 0
1, 86160, Note_on_c, 0, 62, 0
1, 86160, Note_on_c, 0, 65, 60
1, 86240, Note_on_c, 0, 65, 0
1, 86240, Note_on_c, 0, 53, 67
1, 86240, Note_on_c, 0, 62, 67
1, 86280, Tempo, 1197844
1, 86280, Note_on_c, 0, 33, 58
1, 86310, Note_on_c, 0, 33, 0
1, 86310, Note_on_c, 0, 37, 62
1, 86320, Note_on_c, 0, 62, 0
1, 86320, Note_on_c, 0, 53, 0
1, 86320, Note_on_c, 0, 65, 62
1, 86340, Note_on_c, 0, 37, 0
1, 86340, Note_on_c, 0, 40, 66
1, 86370, Note_on_c, 0, 40, 0
1, 86370, Note_on_c, 0, 45, 70
1, 86400, Tempo, 727802
1, 86400, Note_on_c, 0, 45, 0
1, 86400, Note_on_c, 0, 65, 0
1, 86400, Note_on_c, 0, 52, 53
1, 86400, Note_on_c, 0, 61, 53
1, 86400, Note_on_c, 0, 73, 80
1, 86400, Note_on_c, 0, 76, 80
1, 86413, Control_c, 0, 64, 0
1, 86443, Control_c, 0, 64, 127
1, 86460, Note_on_c, 0, 61, 0
1, 86460, Note_on_c, 0, 52, 0
1, 86460, Note_on_c, 0, 64, 45
1, 86480, Tempo, 723240
1, 86520, Note_on_c, 0, 64, 0
1, 86520, Note_on_c, 0, 52, 53
1, 86520, Note_on_c, 0, 61, 53
1, 86540, Tempo, 718735
1, 86580, Note_on_c, 0, 61, 0
1, 86580, Note_on_c, 0, 52, 0
1, 86580, Note_on_c, 0, 64, 48
1, 86600, Tempo, 714286
1, 86640, Note_on_c, 0, 64, 0
1, 86640, Note_on_c, 0, 52, 54
1, 86640, Note_on_c, 0, 61, 54
1, 86660, Tempo, 709807
1, 86700, Note_on_c, 0, 61, 0
1, 86700, Note_on_c, 0, 52, 0
1, 86700, Note_on_c, 0, 64, 47
1, 86740, Tempo, 705467
1, 86760, Note_on_c, 0, 64, 0
1, 86760, Note_on_c, 0, 52, 54
1, 86760, Note_on_c, 0, 61, 54
1, 86800, Tempo, 701180
1, 86820, Note_on_c, 0, 61, 0
1, 86820, Note_on_c, 0, 52, 0
1, 86820, Note_on_c, 0, 64, 50
1, 86860, Tempo, 696945
1, 86880, Note_on_c, 0, 64, 0
1, 86880, Note_on_c, 0, 52, 54
1, 86880, Note_on_c, 0, 61, 54
1, 86920, Tempo, 684463
1, 86940, Note_on_c, 0, 61, 0
1, 86940, Note_on_c, 0, 52, 0
1, 86940, Note_on_c, 0, 64, 47
1, 87000, Note_on_c, 0, 64, 0
1, 87000, Note_on_c, 0, 52, 55
1, 87000, Note_on_c, 0, 61, 55
1, 87060, Tempo, 688547
1, 87060, Note_on_c, 0, 61, 0
1, 87060, Note_on_c, 0, 52, 0
1, 87060, Note_on_c, 0, 64, 50
1, 87120, Note_on_c, 0, 64, 0
1, 87120, Note_on_c, 0, 52, 56
1, 87120, Note_on_c, 0, 61, 56
1, 87180, Tempo, 692761
1, 87180, Note_on_c, 0, 61, 0
1, 87180, Note_on_c, 0, 52, 0
1, 87180, Note_on_c, 0, 64, 50
1, 87240, Note_on_c, 0, 64, 0
1, 87240, Note_on_c, 0, 52, 56
1, 87240, Note_on_c, 0, 61, 56
1, 87300, Tempo, 696945
1, 87300, Note_on_c, 0, 61, 0
1, 87300, Note_on_c, 0, 52, 0
1, 87300, Note_on_c, 0, 64, 52
1, 87360, Note_on_c, 0, 64, 0
1, 87360, Note_on_c, 0, 52, 57
1, 87360, Note_on_c, 0, 61, 57
1, 87420, Tempo, 701180
1, 87420, Note_on_c, 0, 61, 0
1, 87420, Note_on_c, 0, 52, 0
1, 87420, Note_on_c, 0, 64, 49
1, 87480, Note_on_c, 0, 64, 0
1, 87480, Note_on_c, 0, 52, 56
1, 87480, Note_on_c, 0, 61, 56
1, 87540, Tempo, 705467
1, 87540, Note_on_c, 0, 61, 0
1, 87540, Note_on_c, 0, 52, 0
1, 87540, Note_on_c, 0, 64, 50
1, 87600, Note_on_c, 0, 64, 0
1, 87600, Note_on_c, 0, 52, 54
1, 87600, Note_on_c, 0, 61, 54
1, 87660, Tempo, 709807
1, 87660, Note_on_c, 0, 61, 0
1, 87660, Note_on_c, 0, 52, 0
1, 87660, Note_on_c, 0, 64, 48
1, 87720, Note_on_c, 0, 64, 0
1, 87720, Note_on_c, 0, 52, 54
1, 87720, Note_on_c, 0, 61, 54
1, 87780, Tempo, 714286
1, 87780, Note_on_c, 0, 61, 0
1, 87780, Note_on_c, 0, 52, 0
1, 87780, Note_on_c, 0, 64, 49
1, 87840, Tempo, 657102
1, 87840, Note_on_c, 0, 64, 0
1, 87840, Note_on_c, 0, 73, 0
1, 87840, Note_on_c, 0, 76, 0
1, 87840, Note_on_c, 0, 55, 74
1, 87854, Control_c, 0, 64, 0
1, 87891, Control_c, 0, 64, 127
1, 87920, Note_on_c, 0, 58, 54
1, 87960, Note_on_c, 0, 55, 0
1, 88000, Note_on_c, 0, 58, 0
1, 88000, Note_on_c, 0, 55, 60
1, 88080, Tempo, 638842
1, 88080, Note_on_c, 0, 55, 0
1, 88080, Note_on_c, 0, 61, 54
1, 88080, Note_on_c, 0, 64, 54
1, 88080, Note_on_c, 0, 73, 65
1, 88080, Note_on_c, 0, 58, 53
1, 88160, Note_on_c, 0, 58, 0
1, 88160, Note_on_c, 0, 55, 60
1, 88240, Note_on_c, 0, 55, 0
1, 88240, Note_on_c, 0, 58, 54
1, 88320, Note_on_c, 0, 58, 0
1, 88320, Note_on_c, 0, 53, 75
1, 88331, Control_c, 0, 64, 0
1, 88360, Control_c, 0, 64, 127
1, 88400, Note_on_c, 0, 57, 52
1, 88440, Note_on_c, 0, 53, 0
1, 88480, Note_on_c, 0, 57, 0
1, 88480, Note_on_c, 0, 53, 57
1, 88560, Note_on_c, 0, 53, 0
1, 88560, Note_on_c, 0, 61, 0
1, 88560, Note_on_c, 0, 64, 0
1, 88560, Note_on_c, 0, 73, 0
1, 88560, Note_on_c, 0, 62, 59
1, 88560, Note_on_c, 0, 65, 59
1, 88560, Note_on_c, 0, 74, 71
1, 88560, Note_on_c, 0, 57, 51
1, 88640, Note_on_c, 0, 57, 0
1, 88640, Note_on_c, 0, 53, 57
1, 88720, Note_on_c, 0, 53, 0
1, 88720, Note_on_c, 0, 57, 53
1, 88760, Tempo, 649702
1, 88800, Note_on_c, 0, 57, 0
1, 88800, Note_on_c, 0, 46, 76
1, 88821, Control_c, 0, 64, 0
1, 88840, Tempo, 638842
1, 88851, Control_c, 0, 64, 127
1, 88880, Note_on_c, 0, 55, 55
1, 88920, Note_on_c, 0, 46, 0
1, 88960, Note_on_c, 0, 55, 0
1, 88960, Note_on_c, 0, 46, 61
1, 89040, Note_on_c, 0, 46, 0
1, 89040, Note_on_c, 0, 62, 0
1, 89040, Note_on_c, 0, 65, 0
1, 89040, Note_on_c, 0, 74, 0
1, 89040, Note_on_c, 0, 64, 60
1, 89040, Note_on_c, 0, 67, 60
1, 89040, Note_on_c, 0, 76, 72
1, 89040, Note_on_c, 0, 55, 54
1, 89120, Tempo, 635324
1, 89120, Note_on_c, 0, 55, 0
1, 89120, Note_on_c, 0, 46, 61
1, 89200, Note_on_c, 0, 46, 0
1, 89200, Note_on_c, 0, 55, 54
1, 89280, Note_on_c, 0, 55, 0
1, 89280, Note_on_c, 0, 45, 77
1, 89292, Control_c, 0, 64, 0
1, 89314, Control_c, 0, 64, 127
1, 89360, Tempo, 631845
1, 89360, Note_on_c, 0, 53, 54
1, 89400, Note_on_c, 0, 45, 0
1, 89440, Note_on_c, 0, 53, 0
1, 89440, Note_on_c, 0, 45, 60
1, 89520, Note_on_c, 0, 45, 0
1, 89520, Note_on_c, 0, 64, 0
1, 89520, Note_on_c, 0, 67, 0
1, 89520, Note_on_c, 0, 76, 0
1, 89520, Note_on_c, 0, 65, 63
1, 89520, Note_on_c, 0, 69, 63
1, 89520, Note_on_c, 0, 77, 74
1, 89520, Note_on_c, 0, 53, 54
1, 89600, Note_on_c, 0, 53, 0
1, 89600, Note_on_c, 0, 45, 61
1, 89640, Tempo, 628404
1, 89680, Note_on_c, 0, 45, 0
1, 89680, Note_on_c, 0, 53, 55
1, 89760, Note_on_c, 0, 53, 0
1, 89760, Note_on_c, 0, 43, 78
1, 89770, Control_c, 0, 64, 0
1, 89811, Control_c, 0, 64, 127
1, 89840, Note_on_c, 0, 52, 57
1, 89880, Tempo, 624935
1, 89880, Note_on_c, 0, 43, 0
1, 89920, Note_on_c, 0, 52, 0
1, 89920, Note_on_c, 0, 43, 63
1, 90000, Note_on_c, 0, 43, 0
1, 90000, Note_on_c, 0, 65, 0
1, 90000, Note_on_c, 0, 69, 0
1, 90000, Note_on_c, 0, 77, 0
1, 90000, Note_on_c, 0, 67, 65
1, 90000, Note_on_c, 0, 76, 65
1, 90000, Note_on_c, 0, 79, 77
1, 90000, Note_on_c, 0, 52, 56
1, 90080, Note_on_c, 0, 52, 0
1, 90080, Note_on_c, 0, 43, 63
1, 90160, Tempo, 621568
1, 90160, Note_on_c, 0, 43, 0
1, 90160, Note_on_c, 0, 52, 57
1, 90240, Note_on_c, 0, 52, 0
1, 90240, Note_on_c, 0, 41, 80
1, 90250, Control_c, 0, 64, 0
1, 90286, Control_c, 0, 64, 127
1, 90320, Note_on_c, 0, 50, 58
1, 90360, Note_on_c, 0, 41, 0
1, 90400, Tempo, 618238
1, 90400, Note_on_c, 0, 50, 0
1, 90400, Note_on_c, 0, 41, 63
1, 90480, Note_on_c, 0, 41, 0
1, 90480, Note_on_c, 0, 67, 0
1, 90480, Note_on_c, 0, 76, 0
1, 90480, Note_on_c, 0, 79, 0
1, 90480, Note_on_c, 0, 69, 69
1, 90480, Note_on_c, 0, 77, 69
1, 90480, Note_on_c, 0, 81, 81
1, 90480, Note_on_c, 0, 50, 58
1, 90560, Note_on_c, 0, 50, 0
1, 90560, Note_on_c, 0, 41, 64
1, 90640, Note_on_c, 0, 41, 0
1, 90640, Note_on_c, 0, 50, 60
1, 90680, Tempo, 614943
1, 90720, Note_on_c, 0, 50, 0
1, 90720, Note_on_c, 0, 40, 81
1, 90733, Control_c, 0, 64, 0
1, 90780, Control_c, 0, 64, 127
1, 90800, Note_on_c, 0, 49, 61
1, 90840, Note_on_c, 0, 40, 0
1, 90880, Note_on_c, 0, 49, 0
1, 90880, Note_on_c, 0, 40, 65
1, 90920, Tempo, 611683
1, 90960, Note_on_c, 0, 40, 0
1, 90960, Note_on_c, 0, 69, 0
1, 90960, Note_on_c, 0, 77, 0
1, 90960, Note_on_c, 0, 81, 0
1, 90960, Note_on_c, 0, 69, 72
1, 90960, Note_on_c, 0, 79, 72
1, 90960, Note_on_c, 0, 81, 84
1, 90960, Note_on_c, 0, 49, 59
1, 91040, Note_on_c, 0, 49, 0
1, 91040, Note_on_c, 0, 40, 64
1, 91120, Note_on_c, 0, 40, 0
1, 91120, Note_on_c, 0, 49, 60
1, 91160, Tempo, 608458
1, 91200, Note_on_c, 0, 49, 0
1, 91200, Note_on_c, 0, 38, 82
1, 91200, Note_on_c, 0, 45, 75
1, 91200, Note_on_c, 0, 41, 64
1, 91208, Control_c, 0, 64, 0
1, 91274, Control_c, 0, 64, 127
1, 91280, Tempo, 614943
1, 91280, Note_on_c, 0, 41, 0
1, 91280, Note_on_c, 0, 45, 0
1, 91280, Note_on_c, 0, 50, 63
1, 91359, Note_on_c, 0, 38, 0
1, 91360, Note_on_c, 0, 50, 0
1, 91360, Note_on_c, 0, 45, 57
1, 91360, Note_on_c, 0, 38, 57
1, 91360, Note_on_c, 0, 41, 66
1, 91440, Note_on_c, 0, 41, 0
1, 91440, Note_on_c, 0, 79, 0
1, 91440, Note_on_c, 0, 81, 0
1, 91440, Note_on_c, 0, 69, 0
1, 91440, Note_on_c, 0, 38, 0
1, 91440, Note_on_c, 0, 45, 0
1, 91440, Note_on_c, 0, 89, 94
1, 91440, Note_on_c, 0, 81, 79
1, 91440, Note_on_c, 0, 77, 77
1, 91440, Note_on_c, 0, 50, 62
1, 91480, Tempo, 608458
1, 91520, Note_on_c, 0, 50, 0
1, 91520, Note_on_c, 0, 45, 63
1, 91520, Note_on_c, 0, 38, 63
1, 91520, Note_on_c, 0, 41, 65
1, 91600, Note_on_c, 0, 41, 0
1, 91600, Note_on_c, 0, 45, 0
1, 91600, Note_on_c, 0, 38, 0
1, 91600, Note_on_c, 0, 50, 62
1, 91640, Tempo, 611683
1, 91680, Note_on_c, 0, 50, 0
1, 91680, Note_on_c, 0, 37, 84
1, 91680, Note_on_c, 0, 45, 77
1, 91680, Note_on_c, 0, 40, 77
1, 91688, Control_c, 0, 64, 0
1, 91709, Control_c, 0, 64, 127
1, 91760, Tempo, 614943
1, 91760, Note_on_c, 0, 40, 0
1, 91760, Note_on_c, 0, 45, 0
1, 91760, Note_on_c, 0, 49, 63
1, 91800, Tempo, 624935
1, 91840, Note_on_c, 0, 49, 0
1, 91840, Note_on_c, 0, 37, 0
1, 91840, Note_on_c, 0, 45, 67
1, 91840, Note_on_c, 0, 37, 67
1, 91840, Note_on_c, 0, 40, 67
1, 91880, Tempo, 645995
1, 91920, Tempo, 782269
1, 91920, Note_on_c, 0, 40, 0
1, 91920, Note_on_c, 0, 89, 0
1, 91920, Note_on_c, 0, 77, 0
1, 91920, Note_on_c, 0, 81, 0
1, 91920, Note_on_c, 0, 37, 0
1, 91920, Note_on_c, 0, 45, 0
1, 91920, Note_on_c, 0, 88, 94
1, 91920, Note_on_c, 0, 81, 78
1, 91920, Note_on_c, 0, 76, 74
1, 91920, Note_on_c, 0, 49, 62
1, 92000, Note_on_c, 0, 49, 0
1, 92000, Note_on_c, 0, 40, 66
1, 92000, Note_on_c, 0, 37, 67
1, 92000, Note_on_c, 0, 45, 66
1, 92080, Note_on_c, 0, 45, 0
1, 92080, Note_on_c, 0, 40, 0
1, 92080, Note_on_c, 0, 37, 0
1, 92080, Note_on_c, 0, 49, 63
1, 92100, Tempo, 1017639
1, 92100, Note_on_c, 0, 36, 79
1, 92130, Note_on_c, 0, 36, 0
1, 92130, Note_on_c, 0, 48, 79
1, 92160, Tempo, 714456
1, 92160, Note_on_c, 0, 48, 0
1, 92160, Note_on_c, 0, 49, 0
1, 92160, Note_on_c, 0, 81, 0
1, 92160, Note_on_c, 0, 88, 0
1, 92160, Note_on_c, 0, 76, 0
1, 92160, Note_on_c, 0, 75, 65
1, 92160, Note_on_c, 0, 77, 65
1, 92160, Note_on_c, 0, 81, 78
1, 92160, Note_on_c, 0, 60, 92
1, 92169, Control_c, 0, 64, 0
1, 92191, Control_c, 0, 64, 127
1, 92220, Note_on_c, 0, 81, 0
1, 92220, Note_on_c, 0, 75, 0
1, 92220, Note_on_c, 0, 77, 0
1, 92220, Note_on_c, 0, 87, 65
1, 92280, Note_on_c, 0, 87, 0
1, 92280, Note_on_c, 0, 75, 55
1, 92280, Note_on_c, 0, 77, 55
1, 92280, Note_on_c, 0, 81, 65
1, 92340, Note_on_c, 0, 81, 0
1, 92340, Note_on_c, 0, 77, 0
1, 92340, Note_on_c, 0, 75, 0
1, 92340, Note_on_c, 0, 87, 63
1, 92360, Tempo, 709807
1, 92400, Note_on_c, 0, 87, 0
1, 92400, Note_on_c, 0, 75, 54
1, 92400, Note_on_c, 0, 77, 54
1, 92400, Note_on_c, 0, 81, 64
1, 92460, Note_on_c, 0, 81, 0
1, 92460, Note_on_c, 0, 77, 0
1, 92460, Note_on_c, 0, 75, 0
1, 92460, Note_on_c, 0, 87, 63
1, 92520, Tempo, 705219
1, 92520, Note_on_c, 0, 87, 0
1, 92520, Note_on_c, 0, 75, 54
1, 92520, Note_on_c, 0, 77, 54
1, 92520, Note_on_c, 0, 81, 64
1, 92580, Note_on_c, 0, 81, 0
1, 92580, Note_on_c, 0, 77, 0
1, 92580, Note_on_c, 0, 75, 0
1, 92580, Note_on_c, 0, 87, 63
1, 92640, Note_on_c, 0, 87, 0
1, 92640, Note_on_c, 0, 75, 56
1, 92640, Note_on_c, 0, 77, 56
1, 92640, Note_on_c, 0, 81, 68
1, 92660, Tempo, 705882
1, 92680, Tempo, 701754
1, 92700, Tempo, 697674
1, 92700, Note_on_c, 0, 81, 0
1, 92700, Note_on_c, 0, 77, 0
1, 92700, Note_on_c, 0, 75, 0
1, 92700, Note_on_c, 0, 87, 61
1, 92720, Tempo, 693642
1, 92740, Tempo, 689655
1, 92760, Tempo, 685714
1, 92760, Note_on_c, 0, 87, 0
1, 92760, Note_on_c, 0, 75, 49
1, 92760, Note_on_c, 0, 77, 49
1, 92760, Note_on_c, 0, 81, 58
1, 92780, Tempo, 681818
1, 92800, Tempo, 677966
1, 92820, Tempo, 674157
1, 92820, Note_on_c, 0, 81, 0
1, 92820, Note_on_c, 0, 77, 0
1, 92820, Note_on_c, 0, 75, 0
1, 92820, Note_on_c, 0, 87, 58
1, 92840, Tempo, 670391
1, 92860, Tempo, 662983
1, 92880, Tempo, 670391
1, 92880, Note_on_c, 0, 87, 0
1, 92880, Note_on_c, 0, 75, 48
1, 92880, Note_on_c, 0, 77, 48
1, 92880, Note_on_c, 0, 81, 57
1, 92900, Tempo, 677966
1, 92920, Tempo, 685714
1, 92940, Note_on_c, 0, 81, 0
1, 92940, Note_on_c, 0, 77, 0
1, 92940, Note_on_c, 0, 75, 0
1, 92940, Note_on_c, 0, 87, 58
1, 93000, Note_on_c, 0, 87, 0
1, 93000, Note_on_c, 0, 75, 47
1, 93000, Note_on_c, 0, 77, 47
1, 93000, Note_on_c, 0, 81, 57
1, 93040, Tempo, 700771
1, 93060, Note_on_c, 0, 81, 0
1, 93060, Note_on_c, 0, 77, 0
1, 93060, Note_on_c, 0, 75, 0
1, 93060, Note_on_c, 0, 87, 59
1, 93060, Note_on_c, 0, 35, 79
1, 93090, Note_on_c, 0, 35, 0
1, 93090, Note_on_c, 0, 47, 79
1, 93103, Control_c, 0, 64, 0
1, 93120, Tempo, 666815
1, 93120, Note_on_c, 0, 47, 0
1, 93120, Note_on_c, 0, 87, 0
1, 93120, Note_on_c, 0, 60, 0
1, 93120, Note_on_c, 0, 75, 61
1, 93120, Note_on_c, 0, 77, 61
1, 93120, Note_on_c, 0, 81, 72
1, 93120, Note_on_c, 0, 59, 92
1, 93120, Control_c, 0, 64, 127
1, 93180, Note_on_c, 0, 81, 0
1, 93180, Note_on_c, 0, 75, 0
1, 93180, Note_on_c, 0, 77, 0
1, 93180, Note_on_c, 0, 87, 62
1, 93240, Note_on_c, 0, 87, 0
1, 93240, Note_on_c, 0, 75, 50
1, 93240, Note_on_c, 0, 77, 50
1, 93240, Note_on_c, 0, 81, 60
1, 93300, Note_on_c, 0, 81, 0
1, 93300, Note_on_c, 0, 77, 0
1, 93300, Note_on_c, 0, 75, 0
1, 93300, Note_on_c, 0, 87, 62
1, 93360, Note_on_c, 0, 87, 0
1, 93360, Note_on_c, 0, 75, 50
1, 93360, Note_on_c, 0, 77, 50
1, 93360, Note_on_c, 0, 81, 60
1, 93420, Note_on_c, 0, 81, 0
1, 93420, Note_on_c, 0, 77, 0
1, 93420, Note_on_c, 0, 75, 0
1, 93420, Note_on_c, 0, 87, 62
1, 93480, Note_on_c, 0, 87, 0
1, 93480, Note_on_c, 0, 75, 50
1, 93480, Note_on_c, 0, 77, 50
1, 93480, Note_on_c, 0, 81, 60
1, 93540, Note_on_c, 0, 81, 0
1, 93540, Note_on_c, 0, 77, 0
1, 93540, Note_on_c, 0, 75, 0
1, 93540, Note_on_c, 0, 87, 62
1, 93600, Tempo, 650971
1, 93600, Note_on_c, 0, 87, 0
1, 93600, Note_on_c, 0, 59, 0
1, 93600, Note_on_c, 0, 81, 83
1, 93600, Note_on_c, 0, 75, 55
1, 93600, Note_on_c, 0, 77, 66
1, 93600, Note_on_c, 0, 60, 75
1, 93600, Note_on_c, 0, 72, 75
1, 93605, Control_c, 0, 64, 0
1, 93655, Control_c, 0, 64, 127
1, 93680, Note_on_c, 0, 77, 0
1, 93680, Note_on_c, 0, 75, 0
1, 93680, Note_on_c, 0, 87, 61
1, 93758, Note_on_c, 0, 81, 0
1, 93760, Note_on_c, 0, 87, 0
1, 93760, Note_on_c, 0, 75, 55
1, 93760, Note_on_c, 0, 77, 55
1, 93760, Note_on_c, 0, 81, 66
1, 93840, Note_on_c, 0, 81, 0
1, 93840, Note_on_c, 0, 75, 0
1, 93840, Note_on_c, 0, 77, 0
1, 93840, Note_on_c, 0, 87, 61
1, 93920, Note_on_c, 0, 87, 0
1, 93920, Note_on_c, 0, 75, 56
1, 93920, Note_on_c, 0, 77, 56
1, 93920, Note_on_c, 0, 81, 67
1, 94000, Note_on_c, 0, 81, 0
1, 94000, Note_on_c, 0, 75, 0
1, 94000, Note_on_c, 0, 77, 0
1, 94000, Note_on_c, 0, 87, 62
1, 94080, Tempo, 666815
1, 94080, Note_on_c, 0, 87, 0
1, 94080, Note_on_c, 0, 72, 0
1, 94080, Note_on_c, 0, 60, 0
1, 94080, Note_on_c, 0, 83, 88
1, 94080, Note_on_c, 0, 75, 57
1, 94080, Note_on_c, 0, 77, 68
1, 94080, Note_on_c, 0, 59, 79
1, 94080, Note_on_c, 0, 71, 79
1, 94092, Control_c, 0, 64, 0
1, 94152, Control_c, 0, 64, 127
1, 94160, Note_on_c, 0, 77, 0
1, 94160, Note_on_c, 0, 75, 0
1, 94160, Note_on_c, 0, 87, 63
1, 94238, Note_on_c, 0, 83, 0
1, 94240, Note_on_c, 0, 87, 0
1, 94240, Note_on_c, 0, 75, 58
1, 94240, Note_on_c, 0, 77, 58
1, 94240, Note_on_c, 0, 83, 69
1, 94320, Note_on_c, 0, 83, 0
1, 94320, Note_on_c, 0, 75, 0
1, 94320, Note_on_c, 0, 77, 0
1, 94320, Note_on_c, 0, 87, 63
1, 94400, Note_on_c, 0, 87, 0
1, 94400, Note_on_c, 0, 75, 58
1, 94400, Note_on_c, 0, 77, 58
1, 94400, Note_on_c, 0, 83, 69
1, 94480, Note_on_c, 0, 83, 0
1, 94480, Note_on_c, 0, 75, 0
1, 94480, Note_on_c, 0, 77, 0
1, 94480, Note_on_c, 0, 87, 63
1, 94560, Note_on_c, 0, 87, 0
1, 94560, Note_on_c, 0, 71, 0
1, 94560, Note_on_c, 0, 59, 0
1, 94560, Note_on_c, 0, 84, 91
1, 94560, Note_on_c, 0, 75, 59
1, 94560, Note_on_c, 0, 77, 70
1, 94560, Note_on_c, 0, 57, 82
1, 94560, Note_on_c, 0, 69, 82
1, 94578, Control_c, 0, 64, 0
1, 94629, Control_c, 0, 64, 127
1, 94640, Note_on_c, 0, 77, 0
1, 94640, Note_on_c, 0, 75, 0
1, 94640, Note_on_c, 0, 87, 64
1, 94718, Note_on_c, 0, 84, 0
1, 94720, Note_on_c, 0, 87, 0
1, 94720, Note_on_c, 0, 75, 60
1, 94720, Note_on_c, 0, 77, 60
1, 94720, Note_on_c, 0, 84, 71
1, 94800, Note_on_c, 0, 84, 0
1, 94800, Note_on_c, 0, 75, 0
1, 94800, Note_on_c, 0, 77, 0
1, 94800, Note_on_c, 0, 87, 64
1, 94837, Tempo, 714456
1, 94880, Note_on_c, 0, 87, 0
1, 94880, Note_on_c, 0, 75, 61
1, 94880, Note_on_c, 0, 77, 61
1, 94880, Note_on_c, 0, 84, 72
1, 94960, Note_on_c, 0, 84, 0
1, 94960, Note_on_c, 0, 75, 0
1, 94960, Note_on_c, 0, 77, 0
1, 94960, Note_on_c, 0, 87, 65
1, 95040, Tempo, 647179
1, 95040, Note_on_c, 0, 87, 0
1, 95040, Note_on_c, 0, 69, 0
1, 95040, Note_on_c, 0, 57, 0
1, 95040, Note_on_c, 0, 76, 62
1, 95040, Note_on_c, 0, 80, 72
1, 95040, Note_on_c, 0, 64, 82
1, 95040, Note_on_c, 0, 56, 76
1, 95045, Control_c, 0, 64, 0
1, 95074, Control_c, 0, 64, 127
1, 95120, Note_on_c, 0, 80, 0
1, 95120, Note_on_c, 0, 76, 0
1, 95120, Note_on_c, 0, 88, 67
1, 95160, Note_on_c, 0, 56, 0
1, 95200, Note_on_c, 0, 88, 0
1, 95200, Note_on_c, 0, 76, 63
1, 95200, Note_on_c, 0, 80, 63
1, 95280, Tempo, 670841
1, 95280, Note_on_c, 0, 80, 0
1, 95280, Note_on_c, 0, 76, 0
1, 95280, Note_on_c, 0, 88, 67
1, 95280, Note_on_c, 0, 40, 63
1, 95360, Note_on_c, 0, 88, 0
1, 95360, Note_on_c, 0, 76, 63
1, 95360, Note_on_c, 0, 80, 63
1, 95400, Note_on_c, 0, 40, 0
1, 95440, Note_on_c, 0, 80, 0
1, 95440, Note_on_c, 0, 76, 0
1, 95440, Note_on_c, 0, 88, 68
1, 95520, Tempo, 582129
1, 95520, Note_on_c, 0, 88, 0
1, 95520, Note_on_c, 0, 64, 0
1, 95520, Note_on_c, 0, 84, 91
1, 95520, Note_on_c, 0, 75, 62
1, 95520, Note_on_c, 0, 63, 84
1, 95520, Note_on_c, 0, 60, 74
1, 95529, Control_c, 0, 64, 0
1, 95563, Control_c, 0, 64, 127
1, 95600, Note_on_c, 0, 75, 0
1, 95600, Note_on_c, 0, 87, 67
1, 95640, Note_on_c, 0, 60, 0
1, 95678, Note_on_c, 0, 84, 0
1, 95680, Note_on_c, 0, 87, 0
1, 95680, Note_on_c, 0, 75, 63
1, 95680, Note_on_c, 0, 84, 63
1, 95760, Tempo, 643363
1, 95760, Note_on_c, 0, 84, 0
1, 95760, Note_on_c, 0, 75, 0
1, 95760, Note_on_c, 0, 87, 67
1, 95760, Note_on_c, 0, 52, 63
1, 95840, Note_on_c, 0, 87, 0
1, 95840, Note_on_c, 0, 75, 63
1, 95840, Note_on_c, 0, 84, 63
1, 95880, Note_on_c, 0, 52, 0
1, 95920, Note_on_c, 0, 84, 0
1, 95920, Note_on_c, 0, 75, 0
1, 95920, Note_on_c, 0, 87, 68
1, 96000, Tempo, 601202
1, 96000, Note_on_c, 0, 87, 0
1, 96000, Note_on_c, 0, 63, 0
1, 96000, Note_on_c, 0, 83, 90
1, 96000, Note_on_c, 0, 74, 62
1, 96000, Note_on_c, 0, 62, 83
1, 96000, Note_on_c, 0, 59, 75
1, 96006, Control_c, 0, 64, 0
1, 96031, Control_c, 0, 64, 127
1, 96080, Note_on_c, 0, 74, 0
1, 96080, Note_on_c, 0, 86, 67
1, 96120, Note_on_c, 0, 59, 0
1, 96158, Note_on_c, 0, 83, 0
1, 96160, Note_on_c, 0, 86, 0
1, 96160, Note_on_c, 0, 74, 63
1, 96160, Note_on_c, 0, 83, 63
1, 96240, Tempo, 643363
1, 96240, Note_on_c, 0, 83, 0
1, 96240, Note_on_c, 0, 74, 0
1, 96240, Note_on_c, 0, 86, 67
1, 96240, Note_on_c, 0, 40, 64
1, 96320, Note_on_c, 0, 86, 0
1, 96320, Note_on_c, 0, 74, 63
1, 96320, Note_on_c, 0, 83, 63
1, 96360, Note_on_c, 0, 40, 0
1, 96400, Note_on_c, 0, 83, 0
1, 96400, Note_on_c, 0, 74, 0
1, 96400, Note_on_c, 0, 86, 68
1, 96480, Tempo, 621568
1, 96480, Note_on_c, 0, 86, 0
1, 96480, Note_on_c, 0, 62, 0
1, 96480, Note_on_c, 0, 82, 90
1, 96480, Note_on_c, 0, 73, 62
1, 96480, Note_on_c, 0, 61, 82
1, 96480, Note_on_c, 0, 58, 75
1, 96489, Control_c, 0, 64, 0
1, 96520, Control_c, 0, 64, 127
1, 96560, Note_on_c, 0, 73, 0
1, 96560, Note_on_c, 0, 85, 67
1, 96600, Note_on_c, 0, 58, 0
1, 96638, Note_on_c, 0, 82, 0
1, 96640, Note_on_c, 0, 85, 0
1, 96640, Note_on_c, 0, 73, 63
1, 96640, Note_on_c, 0, 82, 63
1, 96720, Tempo, 647179
1, 96720, Note_on_c, 0, 82, 0
1, 96720, Note_on_c, 0, 73, 0
1, 96720, Note_on_c, 0, 85, 67
1, 96720, Note_on_c, 0, 52, 64
1, 96800, Note_on_c, 0, 85, 0
1, 96800, Note_on_c, 0, 73, 63
1, 96800, Note_on_c, 0, 82, 63
1, 96840, Note_on_c, 0, 52, 0
1, 96880, Note_on_c, 0, 82, 0
1, 96880, Note_on_c, 0, 73, 0
1, 96880, Note_on_c, 0, 85, 68
1, 96960, Tempo, 625065
1, 96960, Note_on_c, 0, 85, 0
1, 96960, Note_on_c, 0, 61, 0
1, 96960, Note_on_c, 0, 81, 88
1, 96960, Note_on_c, 0, 72, 62
1, 96960, Note_on_c, 0, 60, 81
1, 96960, Note_on_c, 0, 51, 77
1, 96960, Note_on_c, 0, 57, 77
1, 96971, Control_c, 0, 64, 0
1, 97023, Control_c, 0, 64, 127
1, 97040, Note_on_c, 0, 72, 0
1, 97040, Note_on_c, 0, 84, 67
1, 97080, Note_on_c, 0, 51, 0
1, 97080, Note_on_c, 0, 57, 0
1, 97118, Note_on_c, 0, 81, 0
1, 97120, Note_on_c, 0, 84, 0
1, 97120, Note_on_c, 0, 72, 63
1, 97120, Note_on_c, 0, 81, 63
1, 97200, Tempo, 650971
1, 97200, Note_on_c, 0, 81, 0
1, 97200, Note_on_c, 0, 72, 0
1, 97200, Note_on_c, 0, 84, 67
1, 97200, Note_on_c, 0, 40, 64
1, 97280, Note_on_c, 0, 84, 0
1, 97280, Note_on_c, 0, 72, 63
1, 97280, Note_on_c, 0, 81, 63
1, 97320, Note_on_c, 0, 40, 0
1, 97360, Note_on_c, 0, 81, 0
1, 97360, Note_on_c, 0, 72, 0
1, 97360, Note_on_c, 0, 84, 68
1, 97440, Tempo, 628667
1, 97440, Note_on_c, 0, 84, 0
1, 97440, Note_on_c, 0, 60, 0
1, 97440, Note_on_c, 0, 80, 87
1, 97440, Note_on_c, 0, 71, 62
1, 97440, Note_on_c, 0, 59, 81
1, 97440, Note_on_c, 0, 52, 67
1, 97440, Note_on_c, 0, 56, 80
1, 97450, Control_c, 0, 64, 0
1, 97489, Control_c, 0, 64, 127
1, 97520, Note_on_c, 0, 71, 0
1, 97520, Note_on_c, 0, 83, 67
1, 97560, Note_on_c, 0, 52, 0
1, 97560, Note_on_c, 0, 56, 0
1, 97598, Note_on_c, 0, 80, 0
1, 97600, Note_on_c, 0, 83, 0
1, 97600, Note_on_c, 0, 71, 63
1, 97600, Note_on_c, 0, 80, 63
1, 97680, Tempo, 650971
1, 97680, Note_on_c, 0, 80, 0
1, 97680, Note_on_c, 0, 71, 0
1, 97680, Note_on_c, 0, 83, 67
1, 97760, Note_on_c, 0, 83, 0
1, 97760, Note_on_c, 0, 71, 63
1, 97760, Note_on_c, 0, 80, 63
1, 97840, Note_on_c, 0, 80, 0
1, 97840, Note_on_c, 0, 71, 0
1, 97840, Note_on_c, 0, 83, 68
1, 97860, Tempo, 973710
1, 97860, Note_on_c, 0, 59, 0
1, 97860, Note_on_c, 0, 37, 79
1, 97890, Note_on_c, 0, 37, 0
1, 97890, Note_on_c, 0, 49, 79
1, 97920, Tempo, 714456
1, 97920, Note_on_c, 0, 49, 0
1, 97920, Note_on_c, 0, 83, 0
1, 97920, Note_on_c, 0, 76, 65
1, 97920, Note_on_c, 0, 79, 65
1, 97920, Note_on_c, 0, 82, 78
1, 97920, Note_on_c, 0, 61, 92
1, 97927, Control_c, 0, 64, 0
1, 97940, Tempo, 710059
1, 97951, Control_c, 0, 64, 127
1, 97960, Tempo, 705882
1, 97980, Tempo, 701754
1, 97980, Note_on_c, 0, 82, 0
1, 97980, Note_on_c, 0, 76, 0
1, 97980, Note_on_c, 0, 79, 0
1, 97980, Note_on_c, 0, 88, 65
1, 98000, Tempo, 697674
1, 98020, Tempo, 693642
1, 98040, Tempo, 689655
1, 98040, Note_on_c, 0, 88, 0
1, 98040, Note_on_c, 0, 76, 55
1, 98040, Note_on_c, 0, 79, 55
1, 98040, Note_on_c, 0, 82, 65
1, 98060, Tempo, 685714
1, 98080, Tempo, 681818
1, 98100, Tempo, 677966
1, 98100, Note_on_c, 0, 82, 0
1, 98100, Note_on_c, 0, 79, 0
1, 98100, Note_on_c, 0, 76, 0
1, 98100, Note_on_c, 0, 88, 63
1, 98120, Tempo, 670391
1, 98160, Tempo, 674157
1, 98160, Note_on_c, 0, 88, 0
1, 98160, Note_on_c, 0, 76, 54
1, 98160, Note_on_c, 0, 79, 54
1, 98160, Note_on_c, 0, 82, 64
1, 98200, Tempo, 677966
1, 98220, Note_on_c, 0, 82, 0
1, 98220, Note_on_c, 0, 79, 0
1, 98220, Note_on_c, 0, 76, 0
1, 98220, Note_on_c, 0, 88, 63
1, 98240, Tempo, 681818
1, 98280, Tempo, 685714
1, 98280, Note_on_c, 0, 88, 0
1, 98280, Note_on_c, 0, 76, 54
1, 98280, Note_on_c, 0, 79, 54
1, 98280, Note_on_c, 0, 82, 64
1, 98320, Tempo, 689655
1, 98340, Note_on_c, 0, 82, 0
1, 98340, Note_on_c, 0, 79, 0
1, 98340, Note_on_c, 0, 76, 0
1, 98340, Note_on_c, 0, 88, 63
1, 98400, Note_on_c, 0, 88, 0
1, 98400, Note_on_c, 0, 76, 56
1, 98400, Note_on_c, 0, 79, 56
1, 98400, Note_on_c, 0, 82, 68
1, 98460, Note_on_c, 0, 82, 0
1, 98460, Note_on_c, 0, 79, 0
1, 98460, Note_on_c, 0, 76, 0
1, 98460, Note_on_c, 0, 88, 61
1, 98480, Tempo, 700771
1, 98520, Note_on_c, 0, 88, 0
1, 98520, Note_on_c, 0, 76, 49
1, 98520, Note_on_c, 0, 79, 49
1, 98520, Note_on_c, 0, 82, 58
1, 98580, Note_on_c, 0, 82, 0
1, 98580, Note_on_c, 0, 79, 0
1, 98580, Note_on_c, 0, 76, 0
1, 98580, Note_on_c, 0, 88, 58
1, 98640, Tempo, 696379
1, 98640, Note_on_c, 0, 88, 0
1, 98640, Note_on_c, 0, 76, 48
1, 98640, Note_on_c, 0, 79, 48
1, 98640, Note_on_c, 0, 82, 57
1, 98700, Note_on_c, 0, 82, 0
1, 98700, Note_on_c, 0, 79, 0
1, 98700, Note_on_c, 0, 76, 0
1, 98700, Note_on_c, 0, 88, 58
1, 98760, Note_on_c, 0, 88, 0
1, 98760, Note_on_c, 0, 76, 47
1, 98760, Note_on_c, 0, 79, 47
1, 98760, Note_on_c, 0, 82, 57
1, 98800, Tempo, 700771
1, 98820, Note_on_c, 0, 82, 0
1, 98820, Note_on_c, 0, 79, 0
1, 98820, Note_on_c, 0, 76, 0
1, 98820, Note_on_c, 0, 88, 59
1, 98820, Note_on_c, 0, 36, 79
1, 98850, Note_on_c, 0, 36, 0
1, 98850, Note_on_c, 0, 48, 79
1, 98853, Control_c, 0, 64, 0
1, 98880, Tempo, 666815
1, 98880, Note_on_c, 0, 48, 0
1, 98880, Note_on_c, 0, 88, 0
1, 98880, Note_on_c, 0, 61, 0
1, 98880, Note_on_c, 0, 76, 61
1, 98880, Note_on_c, 0, 79, 61
1, 98880, Note_on_c, 0, 82, 72
1, 98880, Note_on_c, 0, 60, 92
1, 98880, Control_c, 0, 64, 127
1, 98940, Note_on_c, 0, 82, 0
1, 98940, Note_on_c, 0, 76, 0
1, 98940, Note_on_c, 0, 79, 0
1, 98940, Note_on_c, 0, 88, 62
1, 99000, Note_on_c, 0, 88, 0
1, 99000, Note_on_c, 0, 76, 50
1, 99000, Note_on_c, 0, 79, 50
1, 99000, Note_on_c, 0, 82, 60
1, 99060, Note_on_c, 0, 82, 0
1, 99060, Note_on_c, 0, 79, 0
1, 99060, Note_on_c, 0, 76, 0
1, 99060, Note_on_c, 0, 88, 62
1, 99120, Note_on_c, 0, 88, 0
1, 99120, Note_on_c, 0, 76, 50
1, 99120, Note_on_c, 0, 79, 50
1, 99120, Note_on_c, 0, 82, 60
1, 99180, Note_on_c, 0, 82, 0
1, 99180, Note_on_c, 0, 79, 0
1, 99180, Note_on_c, 0, 76, 0
1, 99180, Note_on_c, 0, 88, 62
1, 99240, Note_on_c, 0, 88, 0
1, 99240, Note_on_c, 0, 76, 50
1, 99240, Note_on_c, 0, 79, 50
1, 99240, Note_on_c, 0, 82, 60
1, 99300, Note_on_c, 0, 82, 0
1, 99300, Note_on_c, 0, 79, 0
1, 99300, Note_on_c, 0, 76, 0
1, 99300, Note_on_c, 0, 88, 62
1, 99360, Tempo, 650971
1, 99360, Note_on_c, 0, 88, 0
1, 99360, Note_on_c, 0, 60, 0
1, 99360, Note_on_c, 0, 82, 83
1, 99360, Note_on_c, 0, 76, 55
1, 99360, Note_on_c, 0, 79, 66
1, 99360, Note_on_c, 0, 61, 75
1, 99360, Note_on_c, 0, 73, 75
1, 99365, Control_c, 0, 64, 0
1, 99391, Control_c, 0, 64, 127
1, 99440, Note_on_c, 0, 79, 0
1, 99440, Note_on_c, 0, 76, 0
1, 99440, Note_on_c, 0, 88, 61
1, 99518, Note_on_c, 0, 82, 0
1, 99520, Note_on_c, 0, 88, 0
1, 99520, Note_on_c, 0, 76, 55
1, 99520, Note_on_c, 0, 79, 55
1, 99520, Note_on_c, 0, 82, 66
1, 99600, Note_on_c, 0, 82, 0
1, 99600, Note_on_c, 0, 76, 0
1, 99600, Note_on_c, 0, 79, 0
1, 99600, Note_on_c, 0, 88, 61
1, 99680, Note_on_c, 0, 88, 0
1, 99680, Note_on_c, 0, 76, 56
1, 99680, Note_on_c, 0, 79, 56
1, 99680, Note_on_c, 0, 82, 67
1, 99760, Note_on_c, 0, 82, 0
1, 99760, Note_on_c, 0, 76, 0
1, 99760, Note_on_c, 0, 79, 0
1, 99760, Note_on_c, 0, 88, 62
1, 99840, Tempo, 666815
1, 99840, Note_on_c, 0, 88, 0
1, 99840, Note_on_c, 0, 73, 0
1, 99840, Note_on_c, 0, 61, 0
1, 99840, Note_on_c, 0, 84, 88
1, 99840, Note_on_c, 0, 76, 57
1, 99840, Note_on_c, 0, 79, 68
1, 99840, Note_on_c, 0, 60, 79
1, 99840, Note_on_c, 0, 72, 79
1, 99847, Control_c, 0, 64, 0
1, 99880, Control_c, 0, 64, 127
1, 99920, Note_on_c, 0, 79, 0
1, 99920, Note_on_c, 0, 76, 0
1, 99920, Note_on_c, 0, 88, 63
1, 99998, Note_on_c, 0, 84, 0
1, 100000, Note_on_c, 0, 88, 0
1, 100000, Note_on_c, 0, 76, 58
1, 100000, Note_on_c, 0, 79, 58
1, 100000, Note_on_c, 0, 84, 69
1, 100080, Note_on_c, 0, 84, 0
1, 100080, Note_on_c, 0, 76, 0
1, 100080, Note_on_c, 0, 79, 0
1, 100080, Note_on_c, 0, 88, 63
1, 100160, Note_on_c, 0, 88, 0
1, 100160, Note_on_c, 0, 76, 58
1, 100160, Note_on_c, 0, 79, 58
1, 100160, Note_on_c, 0, 84, 69
1, 100240, Note_on_c, 0, 84, 0
1, 100240, Note_on_c, 0, 76, 0
1, 100240, Note_on_c, 0, 79, 0
1, 100240, Note_on_c, 0, 88, 63
1, 100320, Note_on_c, 0, 88, 0
1, 100320, Note_on_c, 0, 72, 0
1, 100320, Note_on_c, 0, 60, 0
1, 100320, Note_on_c, 0, 85, 91
1, 100320, Note_on_c, 0, 76, 59
1, 100320, Note_on_c, 0, 79, 70
1, 100320, Note_on_c, 0, 58, 82
1, 100320, Note_on_c, 0, 70, 82
1, 100338, Control_c, 0, 64, 0
1, 100389, Control_c, 0, 64, 127
1, 100400, Note_on_c, 0, 79, 0
1, 100400, Note_on_c, 0, 76, 0
1, 100400, Note_on_c, 0, 88, 64
1, 100478, Note_on_c, 0, 85, 0
1, 100480, Note_on_c, 0, 88, 0
1, 100480, Note_on_c, 0, 76, 60
1, 100480, Note_on_c, 0, 79, 60
1, 100480, Note_on_c, 0, 85, 71
1, 100560, Note_on_c, 0, 85, 0
1, 100560, Note_on_c, 0, 76, 0
1, 100560, Note_on_c, 0, 79, 0
1, 100560, Note_on_c, 0, 88, 64
1, 100597, Tempo, 714456
1, 100640, Note_on_c, 0, 88, 0
1, 100640, Note_on_c, 0, 76, 61
1, 100640, Note_on_c, 0, 79, 61
1, 100640, Note_on_c, 0, 85, 72
1, 100720, Note_on_c, 0, 85, 0
1, 100720, Note_on_c, 0, 76, 0
1, 100720, Note_on_c, 0, 79, 0
1, 100720, Note_on_c, 0, 88, 65
1, 100800, Tempo, 647179
1, 100800, Note_on_c, 0, 88, 0
1, 100800, Note_on_c, 0, 70, 0
1, 100800, Note_on_c, 0, 58, 0
1, 100800, Note_on_c, 0, 77, 62
1, 100800, Note_on_c, 0, 81, 72
1, 100800, Note_on_c, 0, 65, 82
1, 100800, Note_on_c, 0, 57, 73
1, 100807, Control_c, 0, 64, 0
1, 100834, Control_c, 0, 64, 127
1, 100880, Note_on_c, 0, 81, 0
1, 100880, Note_on_c, 0, 77, 0
1, 100880, Note_on_c, 0, 89, 67
1, 100920, Note_on_c, 0, 57, 0
1, 100960, Note_on_c, 0, 89, 0
1, 100960, Note_on_c, 0, 77, 63
1, 100960, Note_on_c, 0, 81, 63
1, 101040, Tempo, 670841
1, 101040, Note_on_c, 0, 81, 0
1, 101040, Note_on_c, 0, 77, 0
1, 101040, Note_on_c, 0, 89, 67
1, 101040, Note_on_c, 0, 41, 63
1, 101120, Note_on_c, 0, 89, 0
1, 101120, Note_on_c, 0, 77, 63
1, 101120, Note_on_c, 0, 81, 63
1, 101160, Note_on_c, 0, 41, 0
1, 101200, Note_on_c, 0, 81, 0
1, 101200, Note_on_c, 0, 77, 0
1, 101200, Note_on_c, 0, 89, 68
1, 101280, Tempo, 611185
1, 101280, Note_on_c, 0, 89, 0
1, 101280, Note_on_c, 0, 65, 0
1, 101280, Note_on_c, 0, 85, 91
1, 101280, Note_on_c, 0, 76, 62
1, 101280, Note_on_c, 0, 64, 84
1, 101280, Note_on_c, 0, 61, 76
1, 101289, Control_c, 0, 64, 0
1, 101323, Control_c, 0, 64, 127
1, 101360, Note_on_c, 0, 76, 0
1, 101360, Note_on_c, 0, 88, 67
1, 101400, Note_on_c, 0, 61, 0
1, 101438, Note_on_c, 0, 85, 0
1, 101440, Note_on_c, 0, 88, 0
1, 101440, Note_on_c, 0, 76, 63
1, 101440, Note_on_c, 0, 85, 63
1, 101520, Tempo, 643363
1, 101520, Note_on_c, 0, 85, 0
1, 101520, Note_on_c, 0, 76, 0
1, 101520, Note_on_c, 0, 88, 67
1, 101520, Note_on_c, 0, 53, 63
1, 101600, Note_on_c, 0, 88, 0
1, 101600, Note_on_c, 0, 76, 63
1, 101600, Note_on_c, 0, 85, 63
1, 101640, Note_on_c, 0, 53, 0
1, 101680, Note_on_c, 0, 85, 0
1, 101680, Note_on_c, 0, 76, 0
1, 101680, Note_on_c, 0, 88, 68
1, 101760, Tempo, 618111
1, 101760, Note_on_c, 0, 88, 0
1, 101760, Note_on_c, 0, 64, 0
1, 101760, Note_on_c, 0, 84, 90
1, 101760, Note_on_c, 0, 75, 62
1, 101760, Note_on_c, 0, 63, 83
1, 101760, Note_on_c, 0, 60, 72
1, 101766, Control_c, 0, 64, 0
1, 101791, Control_c, 0, 64, 127
1, 101840, Note_on_c, 0, 75, 0
1, 101840, Note_on_c, 0, 87, 67
1, 101880, Note_on_c, 0, 60, 0
1, 101918, Note_on_c, 0, 84, 0
1, 101920, Note_on_c, 0, 87, 0
1, 101920, Note_on_c, 0, 75, 63
1, 101920, Note_on_c, 0, 84, 63
1, 102000, Tempo, 643363
1, 102000, Note_on_c, 0, 84, 0
1, 102000, Note_on_c, 0, 75, 0
1, 102000, Note_on_c, 0, 87, 67
1, 102000, Note_on_c, 0, 41, 64
1, 102080, Note_on_c, 0, 87, 0
1, 102080, Note_on_c, 0, 75, 63
1, 102080, Note_on_c, 0, 84, 63
1, 102120, Note_on_c, 0, 41, 0
1, 102160, Note_on_c, 0, 84, 0
1, 102160, Note_on_c, 0, 75, 0
1, 102160, Note_on_c, 0, 87, 68
1, 102240, Tempo, 621568
1, 102240, Note_on_c, 0, 87, 0
1, 102240, Note_on_c, 0, 63, 0
1, 102240, Note_on_c, 0, 83, 90
1, 102240, Note_on_c, 0, 74, 62
1, 102240, Note_on_c, 0, 62, 82
1, 102240, Note_on_c, 0, 59, 72
1, 102249, Control_c, 0, 64, 0
1, 102280, Control_c, 0, 64, 127
1, 102320, Note_on_c, 0, 74, 0
1, 102320, Note_on_c, 0, 86, 67
1, 102360, Note_on_c, 0, 59, 0
1, 102398, Note_on_c, 0, 83, 0
1, 102400, Note_on_c, 0, 86, 0
1, 102400, Note_on_c, 0, 74, 63
1, 102400, Note_on_c, 0, 83, 63
1, 102480, Tempo, 647179
1, 102480, Note_on_c, 0, 83, 0
1, 102480, Note_on_c, 0, 74, 0
1, 102480, Note_on_c, 0, 86, 67
1, 102480, Note_on_c, 0, 53, 64
1, 102560, Note_on_c, 0, 86, 0
1, 102560, Note_on_c, 0, 74, 63
1, 102560, Note_on_c, 0, 83, 63
1, 102600, Note_on_c, 0, 53, 0
1, 102640, Note_on_c, 0, 83, 0
1, 102640, Note_on_c, 0, 74, 0
1, 102640, Note_on_c, 0, 86, 68
1, 102720, Tempo, 625065
1, 102720, Note_on_c, 0, 86, 0
1, 102720, Note_on_c, 0, 62, 0
1, 102720, Note_on_c, 0, 82, 88
1, 102720, Note_on_c, 0, 73, 62
1, 102720, Note_on_c, 0, 61, 81
1, 102720, Note_on_c, 0, 52, 62
1, 102720, Note_on_c, 0, 58, 72
1, 102731, Control_c, 0, 64, 0
1, 102783, Control_c, 0, 64, 127
1, 102800, Note_on_c, 0, 73, 0
1, 102800, Note_on_c, 0, 85, 67
1, 102840, Note_on_c, 0, 52, 0
1, 102840, Note_on_c, 0, 58, 0
1, 102878, Note_on_c, 0, 82, 0
1, 102880, Note_on_c, 0, 85, 0
1, 102880, Note_on_c, 0, 73, 63
1, 102880, Note_on_c, 0, 82, 63
1, 102960, Tempo, 650971
1, 102960, Note_on_c, 0, 82, 0
1, 102960, Note_on_c, 0, 73, 0
1, 102960, Note_on_c, 0, 85, 67
1, 102960, Note_on_c, 0, 41, 64
1, 103040, Note_on_c, 0, 85, 0
1, 103040, Note_on_c, 0, 73, 63
1, 103040, Note_on_c, 0, 82, 63
1, 103080, Note_on_c, 0, 41, 0
1, 103120, Note_on_c, 0, 82, 0
1, 103120, Note_on_c, 0, 73, 0
1, 103120, Note_on_c, 0, 85, 68
1, 103200, Tempo, 628667
1, 103200, Note_on_c, 0, 85, 0
1, 103200, Note_on_c, 0, 61, 0
1, 103200, Note_on_c, 0, 81, 87
1, 103200, Note_on_c, 0, 72, 62
1, 103200, Note_on_c, 0, 60, 81
1, 103200, Note_on_c, 0, 53, 62
1, 103200, Note_on_c, 0, 57, 72
1, 103210, Control_c, 0, 64, 0
1, 103249, Control_c, 0, 64, 127
1, 103280, Note_on_c, 0, 72, 0
1, 103280, Note_on_c, 0, 84, 67
1, 103320, Note_on_c, 0, 53, 0
1, 103320, Note_on_c, 0, 57, 0
1, 103358, Note_on_c, 0, 81, 0
1, 103360, Note_on_c, 0, 84, 0
1, 103360, Note_on_c, 0, 72, 63
1, 103360, Note_on_c, 0, 81, 63
1, 103440, Tempo, 650971
1, 103440, Note_on_c, 0, 81, 0
1, 103440, Note_on_c, 0, 72, 0
1, 103440, Note_on_c, 0, 84, 67
1, 103520, Note_on_c, 0, 84, 0
1, 103520, Note_on_c, 0, 72, 63
1, 103520, Note_on_c, 0, 81, 63
1, 103600, Note_on_c, 0, 81, 0
1, 103600, Note_on_c, 0, 72, 0
1, 103600, Note_on_c, 0, 84, 68
1, 103620, Tempo, 973710
1, 103620, Note_on_c, 0, 39, 79
1, 103650, Note_on_c, 0, 39, 0
1, 103650, Note_on_c, 0, 51, 79
1, 103680, Tempo, 710059
1, 103680, Note_on_c, 0, 51, 0
1, 103680, Note_on_c, 0, 84, 0
1, 103680, Note_on_c, 0, 60, 0
1, 103680, Note_on_c, 0, 78, 65
1, 103680, Note_on_c, 0, 81, 65
1, 103680, Note_on_c, 0, 84, 78
1, 103680, Note_on_c, 0, 63, 92
1, 103680, Control_c, 0, 64, 0
1, 103700, Tempo, 705882
1, 103711, Control_c, 0, 64, 127
1, 103720, Tempo, 697674
1, 103740, Tempo, 689655
1, 103740, Note_on_c, 0, 84, 0
1, 103740, Note_on_c, 0, 78, 0
1, 103740, Note_on_c, 0, 81, 0
1, 103740, Note_on_c, 0, 90, 65
1, 103760, Tempo, 681818
1, 103780, Tempo, 674157
1, 103800, Tempo, 666667
1, 103800, Note_on_c, 0, 90, 0
1, 103800, Note_on_c, 0, 78, 55
1, 103800, Note_on_c, 0, 81, 55
1, 103800, Note_on_c, 0, 84, 65
1, 103820, Tempo, 655738
1, 103860, Tempo, 659341
1, 103860, Note_on_c, 0, 84, 0
1, 103860, Note_on_c, 0, 81, 0
1, 103860, Note_on_c, 0, 78, 0
1, 103860, Note_on_c, 0, 90, 63
1, 103900, Tempo, 662983
1, 103920, Tempo, 666667
1, 103920, Note_on_c, 0, 90, 0
1, 103920, Note_on_c, 0, 78, 55
1, 103920, Note_on_c, 0, 81, 55
1, 103920, Note_on_c, 0, 84, 65
1, 103960, Tempo, 670391
1, 103980, Tempo, 674157
1, 103980, Note_on_c, 0, 84, 0
1, 103980, Note_on_c, 0, 81, 0
1, 103980, Note_on_c, 0, 78, 0
1, 103980, Note_on_c, 0, 90, 64
1, 104020, Tempo, 677966
1, 104040, Tempo, 681818
1, 104040, Note_on_c, 0, 90, 0
1, 104040, Note_on_c, 0, 78, 55
1, 104040, Note_on_c, 0, 81, 55
1, 104040, Note_on_c, 0, 84, 65
1, 104080, Tempo, 685714
1, 104100, Tempo, 689655
1, 104100, Note_on_c, 0, 84, 0
1, 104100, Note_on_c, 0, 81, 0
1, 104100, Note_on_c, 0, 78, 0
1, 104100, Note_on_c, 0, 90, 64
1, 104140, Tempo, 693642
1, 104160, Tempo, 697674
1, 104160, Note_on_c, 0, 90, 0
1, 104160, Note_on_c, 0, 78, 58
1, 104160, Note_on_c, 0, 81, 58
1, 104160, Note_on_c, 0, 84, 70
1, 104200, Tempo, 693642
1, 104220, Tempo, 689655
1, 104220, Note_on_c, 0, 84, 0
1, 104220, Note_on_c, 0, 81, 0
1, 104220, Note_on_c, 0, 78, 0
1, 104220, Note_on_c, 0, 90, 63
1, 104240, Tempo, 685714
1, 104280, Tempo, 681818
1, 104280, Note_on_c, 0, 90, 0
1, 104280, Note_on_c, 0, 78, 51
1, 104280, Note_on_c, 0, 81, 51
1, 104280, Note_on_c, 0, 84, 61
1, 104300, Tempo, 677966
1, 104320, Tempo, 674157
1, 104340, Tempo, 670391
1, 104340, Note_on_c, 0, 84, 0
1, 104340, Note_on_c, 0, 81, 0
1, 104340, Note_on_c, 0, 78, 0
1, 104340, Note_on_c, 0, 90, 61
1, 104360, Tempo, 674157
1, 104380, Tempo, 677966
1, 104400, Tempo, 681818
1, 104400, Note_on_c, 0, 90, 0
1, 104400, Note_on_c, 0, 78, 50
1, 104400, Note_on_c, 0, 81, 50
1, 104400, Note_on_c, 0, 84, 60
1, 104420, Tempo, 685714
1, 104440, Tempo, 689655
1, 104460, Tempo, 693642
1, 104460, Note_on_c, 0, 84, 0
1, 104460, Note_on_c, 0, 81, 0
1, 104460, Note_on_c, 0, 78, 0
1, 104460, Note_on_c, 0, 90, 61
1, 104520, Note_on_c, 0, 90, 0
1, 104520, Note_on_c, 0, 78, 50
1, 104520, Note_on_c, 0, 81, 50
1, 104520, Note_on_c, 0, 84, 60
1, 104560, Tempo, 700771
1, 104580, Note_on_c, 0, 84, 0
1, 104580, Note_on_c, 0, 81, 0
1, 104580, Note_on_c, 0, 78, 0
1, 104580, Note_on_c, 0, 90, 62
1, 104580, Note_on_c, 0, 38, 79
1, 104610, Note_on_c, 0, 38, 0
1, 104610, Note_on_c, 0, 50, 79
1, 104615, Control_c, 0, 64, 0
1, 104640, Tempo, 666815
1, 104640, Note_on_c, 0, 50, 0
1, 104640, Note_on_c, 0, 90, 0
1, 104640, Note_on_c, 0, 63, 0
1, 104640, Note_on_c, 0, 78, 61
1, 104640, Note_on_c, 0, 81, 61
1, 104640, Note_on_c, 0, 84, 72
1, 104640, Note_on_c, 0, 62, 92
1, 104640, Control_c, 0, 64, 127
1, 104660, Tempo, 662983
1, 104700, Tempo, 659341
1, 104700, Note_on_c, 0, 84, 0
1, 104700, Note_on_c, 0, 78, 0
1, 104700, Note_on_c, 0, 81, 0
1, 104700, Note_on_c, 0, 90, 62
1, 104740, Tempo, 655738
1, 104760, Note_on_c, 0, 90, 0
1, 104760, Note_on_c, 0, 78, 50
1, 104760, Note_on_c, 0, 81, 50
1, 104760, Note_on_c, 0, 84, 60
1, 104780, Tempo, 652174
1, 104800, Tempo, 648649
1, 104820, Note_on_c, 0, 84, 0
1, 104820, Note_on_c, 0, 81, 0
1, 104820, Note_on_c, 0, 78, 0
1, 104820, Note_on_c, 0, 90, 62
1, 104880, Note_on_c, 0, 90, 0
1, 104880, Note_on_c, 0, 78, 50
1, 104880, Note_on_c, 0, 81, 50
1, 104880, Note_on_c, 0, 84, 60
1, 104900, Tempo, 652174
1, 104940, Note_on_c, 0, 84, 0
1, 104940, Note_on_c, 0, 81, 0
1, 104940, Note_on_c, 0, 78, 0
1, 104940, Note_on_c, 0, 90, 62
1, 104980, Tempo, 655738
1, 105000, Note_on_c, 0, 90, 0
1, 105000, Note_on_c, 0, 78, 50
1, 105000, Note_on_c, 0, 81, 50
1, 105000, Note_on_c, 0, 84, 60
1, 105060, Note_on_c, 0, 84, 0
1, 105060, Note_on_c, 0, 81, 0
1, 105060, Note_on_c, 0, 78, 0
1, 105060, Note_on_c, 0, 90, 62
1, 105080, Tempo, 659341
1, 105120, Note_on_c, 0, 90, 0
1, 105120, Note_on_c, 0, 62, 0
1, 105120, Note_on_c, 0, 84, 83
1, 105120, Note_on_c, 0, 78, 55
1, 105120, Note_on_c, 0, 81, 66
1, 105120, Note_on_c, 0, 63, 75
1, 105120, Note_on_c, 0, 75, 75
1, 105125, Control_c, 0, 64, 0
1, 105140, Tempo, 662983
1, 105151, Control_c, 0, 64, 127
1, 105180, Tempo, 659341
1, 105200, Note_on_c, 0, 81, 0
1, 105200, Note_on_c, 0, 78, 0
1, 105200, Note_on_c, 0, 90, 61
1, 105220, Tempo, 655738
1, 105260, Tempo, 652174
1, 105278, Note_on_c, 0, 84, 0
1, 105280, Tempo, 648649
1, 105280, Note_on_c, 0, 90, 0
1, 105280, Note_on_c, 0, 78, 55
1, 105280, Note_on_c, 0, 81, 55
1, 105280, Note_on_c, 0, 84, 66
1, 105320, Tempo, 645161
1, 105360, Tempo, 641711
1, 105360, Note_on_c, 0, 84, 0
1, 105360, Note_on_c, 0, 78, 0
1, 105360, Note_on_c, 0, 81, 0
1, 105360, Note_on_c, 0, 90, 61
1, 105380, Tempo, 638298
1, 105440, Tempo, 641711
1, 105440, Note_on_c, 0, 90, 0
1, 105440, Note_on_c, 0, 78, 56
1, 105440, Note_on_c, 0, 81, 56
1, 105440, Note_on_c, 0, 84, 67
1, 105480, Tempo, 645161
1, 105520, Tempo, 648649
1, 105520, Note_on_c, 0, 84, 0
1, 105520, Note_on_c, 0, 78, 0
1, 105520, Note_on_c, 0, 81, 0
1, 105520, Note_on_c, 0, 90, 62
1, 105560, Tempo, 652174
1, 105600, Tempo, 645161
1, 105600, Note_on_c, 0, 90, 0
1, 105600, Note_on_c, 0, 75, 0
1, 105600, Note_on_c, 0, 63, 0
1, 105600, Note_on_c, 0, 86, 88
1, 105600, Note_on_c, 0, 78, 57
1, 105600, Note_on_c, 0, 81, 68
1, 105600, Note_on_c, 0, 62, 79
1, 105600, Note_on_c, 0, 74, 79
1, 105607, Control_c, 0, 64, 0
1, 105640, Control_c, 0, 64, 127
1, 105680, Note_on_c, 0, 81, 0
1, 105680, Note_on_c, 0, 78, 0
1, 105680, Note_on_c, 0, 90, 63
1, 105700, Tempo, 648649
1, 105758, Note_on_c, 0, 86, 0
1, 105760, Note_on_c, 0, 90, 0
1, 105760, Note_on_c, 0, 78, 58
1, 105760, Note_on_c, 0, 81, 58
1, 105760, Note_on_c, 0, 86, 69
1, 105780, Tempo, 652174
1, 105840, Note_on_c, 0, 86, 0
1, 105840, Note_on_c, 0, 78, 0
1, 105840, Note_on_c, 0, 81, 0
1, 105840, Note_on_c, 0, 90, 63
1, 105860, Tempo, 655738
1, 105920, Note_on_c, 0, 90, 0
1, 105920, Note_on_c, 0, 78, 58
1, 105920, Note_on_c, 0, 81, 58
1, 105920, Note_on_c, 0, 86, 69
1, 105940, Tempo, 659341
1, 106000, Note_on_c, 0, 86, 0
1, 106000, Note_on_c, 0, 78, 0
1, 106000, Note_on_c, 0, 81, 0
1, 106000, Note_on_c, 0, 90, 63
1, 106040, Tempo, 662983
1, 106080, Note_on_c, 0, 90, 0
1, 106080, Note_on_c, 0, 74, 0
1, 106080, Note_on_c, 0, 62, 0
1, 106080, Note_on_c, 0, 87, 91
1, 106080, Note_on_c, 0, 78, 59
1, 106080, Note_on_c, 0, 81, 70
1, 106080, Note_on_c, 0, 60, 82
1, 106080, Note_on_c, 0, 72, 82
1, 106098, Control_c, 0, 64, 0
1, 106120, Tempo, 666667
1, 106149, Control_c, 0, 64, 127
1, 106160, Note_on_c, 0, 81, 0
1, 106160, Note_on_c, 0, 78, 0
1, 106160, Note_on_c, 0, 90, 64
1, 106200, Tempo, 670391
1, 106238, Note_on_c, 0, 87, 0
1, 106240, Note_on_c, 0, 90, 0
1, 106240, Note_on_c, 0, 78, 60
1, 106240, Note_on_c, 0, 81, 60
1, 106240, Note_on_c, 0, 87, 71
1, 106280, Tempo, 674157
1, 106320, Note_on_c, 0, 87, 0
1, 106320, Note_on_c, 0, 78, 0
1, 106320, Note_on_c, 0, 81, 0
1, 106320, Note_on_c, 0, 90, 64
1, 106357, Tempo, 714456
1, 106400, Note_on_c, 0, 90, 0
1, 106400, Note_on_c, 0, 78, 61
1, 106400, Note_on_c, 0, 81, 61
1, 106400, Note_on_c, 0, 87, 72
1, 106480, Note_on_c, 0, 87, 0
1, 106480, Note_on_c, 0, 78, 0
1, 106480, Note_on_c, 0, 81, 0
1, 106480, Note_on_c, 0, 90, 65
1, 106560, Tempo, 601202
1, 106560, Note_on_c, 0, 90, 0
1, 106560, Note_on_c, 0, 72, 0
1, 106560, Note_on_c, 0, 60, 0
1, 106560, Note_on_c, 0, 79, 62
1, 106560, Note_on_c, 0, 83, 72
1, 106560, Note_on_c, 0, 59, 75
1, 106560, Note_on_c, 0, 67, 82
1, 106560, Note_on_c, 0, 55, 72
1, 106563, Control_c, 0, 64, 0
1, 106594, Control_c, 0, 64, 127
1, 106640, Note_on_c, 0, 83, 0
1, 106640, Note_on_c, 0, 79, 0
1, 106640, Note_on_c, 0, 91, 91
1, 106680, Note_on_c, 0, 55, 0
1, 106720, Note_on_c, 0, 79, 63
1, 106720, Note_on_c, 0, 83, 63
1, 106798, Note_on_c, 0, 91, 0
1, 106800, Tempo, 647179
1, 106800, Note_on_c, 0, 79, 0
1, 106800, Note_on_c, 0, 83, 0
1, 106800, Note_on_c, 0, 91, 67
1, 106800, Note_on_c, 0, 43, 63
1, 106880, Note_on_c, 0, 79, 63
1, 106880, Note_on_c, 0, 83, 63
1, 106920, Note_on_c, 0, 43, 0
1, 106960, Note_on_c, 0, 79, 0
1, 106960, Note_on_c, 0, 91, 0
1, 106960, Note_on_c, 0, 83, 0
1, 106960, Note_on_c, 0, 91, 68
1, 107040, Tempo, 594707
1, 107040, Note_on_c, 0, 91, 0
1, 107040, Note_on_c, 0, 67, 0
1, 107040, Note_on_c, 0, 59, 0
1, 107040, Note_on_c, 0, 86, 62
1, 107040, Note_on_c, 0, 79, 62
1, 107040, Note_on_c, 0, 77, 62
1, 107040, Note_on_c, 0, 65, 84
1, 107040, Note_on_c, 0, 59, 63
1, 107040, Note_on_c, 0, 62, 72
1, 107049, Control_c, 0, 64, 0
1, 107083, Control_c, 0, 64, 127
1, 107100, Note_on_c, 0, 86, 0
1, 107120, Note_on_c, 0, 79, 0
1, 107120, Note_on_c, 0, 77, 0
1, 107120, Note_on_c, 0, 89, 90
1, 107160, Note_on_c, 0, 62, 0
1, 107160, Note_on_c, 0, 59, 0
1, 107200, Note_on_c, 0, 79, 62
1, 107200, Note_on_c, 0, 77, 63
1, 107200, Note_on_c, 0, 86, 63
1, 107278, Note_on_c, 0, 89, 0
1, 107280, Tempo, 643363
1, 107280, Note_on_c, 0, 77, 0
1, 107280, Note_on_c, 0, 86, 0
1, 107280, Note_on_c, 0, 79, 0
1, 107280, Note_on_c, 0, 89, 67
1, 107280, Note_on_c, 0, 47, 63
1, 107360, Note_on_c, 0, 79, 63
1, 107360, Note_on_c, 0, 77, 63
1, 107360, Note_on_c, 0, 86, 63
1, 107400, Note_on_c, 0, 47, 0
1, 107440, Note_on_c, 0, 89, 0
1, 107440, Note_on_c, 0, 79, 0
1, 107440, Note_on_c, 0, 77, 0
1, 107440, Note_on_c, 0, 86, 0
1, 107440, Note_on_c, 0, 89, 68
1, 107520, Tempo, 601202
1, 107520, Note_on_c, 0, 89, 0
1, 107520, Note_on_c, 0, 65, 0
1, 107520, Note_on_c, 0, 75, 62
1, 107520, Note_on_c, 0, 79, 62
1, 107520, Note_on_c, 0, 63, 83
1, 107520, Note_on_c, 0, 60, 72
1, 107526, Control_c, 0, 64, 0
1, 107551, Control_c, 0, 64, 127
1, 107600, Note_on_c, 0, 79, 0
1, 107600, Note_on_c, 0, 75, 0
1, 107600, Note_on_c, 0, 87, 90
1, 107640, Note_on_c, 0, 60, 0
1, 107680, Note_on_c, 0, 75, 63
1, 107680, Note_on_c, 0, 79, 63
1, 107758, Note_on_c, 0, 87, 0
1, 107760, Tempo, 643363
1, 107760, Note_on_c, 0, 79, 0
1, 107760, Note_on_c, 0, 75, 0
1, 107760, Note_on_c, 0, 87, 67
1, 107760, Note_on_c, 0, 48, 64
1, 107840, Note_on_c, 0, 75, 63
1, 107840, Note_on_c, 0, 79, 63
1, 107880, Note_on_c, 0, 48, 0
1, 107920, Note_on_c, 0, 75, 0
1, 107920, Note_on_c, 0, 79, 0
1, 107920, Note_on_c, 0, 87, 0
1, 107920, Note_on_c, 0, 87, 68
1, 108000, Tempo, 582129
1, 108000, Note_on_c, 0, 87, 0
1, 108000, Note_on_c, 0, 63, 0
1, 108000, Note_on_c, 0, 72, 62
1, 108000, Note_on_c, 0, 75, 62
1, 108000, Note_on_c, 0, 60, 82
1, 108000, Note_on_c, 0, 58, 72
1, 108009, Control_c, 0, 64, 0
1, 108040, Control_c, 0, 64, 127
1, 108080, Note_on_c, 0, 75, 0
1, 108080, Note_on_c, 0, 72, 0
1, 108080, Note_on_c, 0, 84, 88
1, 108120, Note_on_c, 0, 58, 0
1, 108160, Note_on_c, 0, 72, 63
1, 108160, Note_on_c, 0, 75, 63
1, 108238, Note_on_c, 0, 84, 0
1, 108240, Tempo, 597907
1, 108240, Note_on_c, 0, 75, 0
1, 108240, Note_on_c, 0, 72, 0
1, 108240, Note_on_c, 0, 84, 67
1, 108240, Note_on_c, 0, 46, 64
1, 108320, Note_on_c, 0, 72, 63
1, 108320, Note_on_c, 0, 75, 63
1, 108360, Note_on_c, 0, 46, 0
1, 108400, Note_on_c, 0, 72, 0
1, 108400, Note_on_c, 0, 75, 0
1, 108400, Note_on_c, 0, 84, 0
1, 108400, Note_on_c, 0, 84, 68
1, 108480, Tempo, 601202
1, 108480, Note_on_c, 0, 84, 0
1, 108480, Note_on_c, 0, 60, 0
1, 108480, Note_on_c, 0, 75, 62
1, 108480, Note_on_c, 0, 79, 62
1, 108480, Note_on_c, 0, 63, 81
1, 108480, Note_on_c, 0, 57, 62
1, 108480, Note_on_c, 0, 60, 72
1, 108491, Control_c, 0, 64, 0
1, 108543, Control_c, 0, 64, 127
1, 108560, Note_on_c, 0, 79, 0
1, 108560, Note_on_c, 0, 75, 0
1, 108560, Note_on_c, 0, 87, 87
1, 108600, Note_on_c, 0, 57, 0
1, 108600, Note_on_c, 0, 60, 0
1, 108640, Note_on_c, 0, 75, 63
1, 108640, Note_on_c, 0, 79, 63
1, 108718, Note_on_c, 0, 87, 0
1, 108720, Tempo, 635930
1, 108720, Note_on_c, 0, 79, 0
1, 108720, Note_on_c, 0, 75, 0
1, 108720, Note_on_c, 0, 87, 67
1, 108720, Note_on_c, 0, 45, 64
1, 108800, Note_on_c, 0, 75, 63
1, 108800, Note_on_c, 0, 79, 63
1, 108840, Note_on_c, 0, 45, 0
1, 108880, Note_on_c, 0, 75, 0
1, 108880, Note_on_c, 0, 79, 0
1, 108880, Note_on_c, 0, 87, 0
1, 108880, Note_on_c, 0, 87, 68
1, 108960, Tempo, 611185
1, 108960, Note_on_c, 0, 87, 0
1, 108960, Note_on_c, 0, 63, 0
1, 108960, Note_on_c, 0, 72, 62
1, 108960, Note_on_c, 0, 75, 62
1, 108960, Note_on_c, 0, 60, 81
1, 108960, Note_on_c, 0, 55, 62
1, 108960, Note_on_c, 0, 57, 72
1, 108970, Control_c, 0, 64, 0
1, 109009, Control_c, 0, 64, 127
1, 109040, Note_on_c, 0, 75, 0
1, 109040, Note_on_c, 0, 72, 0
1, 109040, Note_on_c, 0, 84, 87
1, 109080, Note_on_c, 0, 55, 0
1, 109080, Note_on_c, 0, 57, 0
1, 109120, Note_on_c, 0, 72, 63
1, 109120, Note_on_c, 0, 75, 63
1, 109198, Note_on_c, 0, 84, 0
1, 109200, Tempo, 650971
1, 109200, Note_on_c, 0, 75, 0
1, 109200, Note_on_c, 0, 72, 0
1, 109200, Note_on_c, 0, 84, 67
1, 109200, Note_on_c, 0, 43, 64
1, 109280, Note_on_c, 0, 72, 63
1, 109280, Note_on_c, 0, 75, 63
1, 109320, Note_on_c, 0, 43, 0
1, 109360, Note_on_c, 0, 72, 0
1, 109360, Note_on_c, 0, 75, 0
1, 109360, Note_on_c, 0, 84, 0
1, 109360, Note_on_c, 0, 84, 68
1, 109400, Tempo, 632311
1, 109440, Tempo, 585195
1, 109440, Note_on_c, 0, 84, 0
1, 109440, Note_on_c, 0, 60, 0
1, 109440, Note_on_c, 0, 77, 62
1, 109440, Note_on_c, 0, 81, 72
1, 109440, Note_on_c, 0, 57, 75
1, 109440, Note_on_c, 0, 65, 82
1, 109440, Note_on_c, 0, 53, 72
1, 109444, Control_c, 0, 64, 0
1, 109474, Control_c, 0, 64, 127
1, 109520, Note_on_c, 0, 81, 0
1, 109520, Note_on_c, 0, 77, 0
1, 109520, Note_on_c, 0, 89, 91
1, 109560, Note_on_c, 0, 53, 0
1, 109600, Note_on_c, 0, 77, 63
1, 109600, Note_on_c, 0, 81, 63
1, 109678, Note_on_c, 0, 89, 0
1, 109680, Tempo, 604473
1, 109680, Note_on_c, 0, 77, 0
1, 109680, Note_on_c, 0, 81, 0
1, 109680, Note_on_c, 0, 89, 67
1, 109680, Note_on_c, 0, 41, 63
1, 109760, Note_on_c, 0, 77, 63
1, 109760, Note_on_c, 0, 81, 63
1, 109800, Note_on_c, 0, 41, 0
1, 109840, Note_on_c, 0, 77, 0
1, 109840, Note_on_c, 0, 89, 0
1, 109840, Note_on_c, 0, 81, 0
1, 109840, Note_on_c, 0, 89, 68
1, 109920, Tempo, 597907
1, 109920, Note_on_c, 0, 89, 0
1, 109920, Note_on_c, 0, 65, 0
1, 109920, Note_on_c, 0, 57, 0
1, 109920, Note_on_c, 0, 84, 62
1, 109920, Note_on_c, 0, 75, 62
1, 109920, Note_on_c, 0, 63, 84
1, 109920, Note_on_c, 0, 57, 63
1, 109920, Note_on_c, 0, 60, 72
1, 109929, Control_c, 0, 64, 0
1, 109963, Control_c, 0, 64, 127
1, 110000, Note_on_c, 0, 75, 0
1, 110000, Note_on_c, 0, 84, 0
1, 110000, Note_on_c, 0, 87, 90
1, 110040, Note_on_c, 0, 57, 0
1, 110040, Note_on_c, 0, 60, 0
1, 110080, Note_on_c, 0, 75, 63
1, 110080, Note_on_c, 0, 84, 63
1, 110158, Note_on_c, 0, 87, 0
1, 110160, Tempo, 614628
1, 110160, Note_on_c, 0, 84, 0
1, 110160, Note_on_c, 0, 75, 0
1, 110160, Note_on_c, 0, 87, 67
1, 110160, Note_on_c, 0, 45, 63
1, 110240, Note_on_c, 0, 75, 63
1, 110240, Note_on_c, 0, 84, 63
1, 110280, Note_on_c, 0, 45, 0
1, 110320, Note_on_c, 0, 75, 0
1, 110320, Note_on_c, 0, 84, 0
1, 110320, Note_on_c, 0, 87, 0
1, 110320, Note_on_c, 0, 87, 68
1, 110400, Tempo, 579039
1, 110400, Note_on_c, 0, 87, 0
1, 110400, Note_on_c, 0, 63, 0
1, 110400, Note_on_c, 0, 74, 62
1, 110400, Note_on_c, 0, 77, 62
1, 110400, Note_on_c, 0, 62, 83
1, 110400, Note_on_c, 0, 58, 72
1, 110406, Control_c, 0, 64, 0
1, 110431, Control_c, 0, 64, 127
1, 110480, Note_on_c, 0, 77, 0
1, 110480, Note_on_c, 0, 74, 0
1, 110480, Note_on_c, 0, 86, 90
1, 110520, Note_on_c, 0, 58, 0
1, 110560, Note_on_c, 0, 74, 63
1, 110560, Note_on_c, 0, 77, 63
1, 110638, Note_on_c, 0, 86, 0
1, 110640, Tempo, 594707
1, 110640, Note_on_c, 0, 77, 0
1, 110640, Note_on_c, 0, 74, 0
1, 110640, Note_on_c, 0, 86, 67
1, 110640, Note_on_c, 0, 46, 64
1, 110720, Note_on_c, 0, 74, 63
1, 110720, Note_on_c, 0, 77, 63
1, 110760, Note_on_c, 0, 46, 0
1, 110800, Note_on_c, 0, 74, 0
1, 110800, Note_on_c, 0, 77, 0
1, 110800, Note_on_c, 0, 86, 0
1, 110800, Note_on_c, 0, 86, 68
1, 110880, Tempo, 597907
1, 110880, Note_on_c, 0, 86, 0
1, 110880, Note_on_c, 0, 62, 0
1, 110880, Note_on_c, 0, 70, 62
1, 110880, Note_on_c, 0, 74, 62
1, 110880, Note_on_c, 0, 58, 82
1, 110880, Note_on_c, 0, 57, 72
1, 110889, Control_c, 0, 64, 0
1, 110920, Control_c, 0, 64, 127
1, 110960, Note_on_c, 0, 74, 0
1, 110960, Note_on_c, 0, 70, 0
1, 110960, Note_on_c, 0, 82, 88
1, 111000, Note_on_c, 0, 57, 0
1, 111040, Note_on_c, 0, 70, 63
1, 111040, Note_on_c, 0, 74, 63
1, 111118, Note_on_c, 0, 82, 0
1, 111120, Tempo, 628667
1, 111120, Note_on_c, 0, 74, 0
1, 111120, Note_on_c, 0, 70, 0
1, 111120, Note_on_c, 0, 82, 67
1, 111120, Note_on_c, 0, 45, 64
1, 111200, Note_on_c, 0, 70, 63
1, 111200, Note_on_c, 0, 74, 63
1, 111240, Note_on_c, 0, 45, 0
1, 111280, Note_on_c, 0, 70, 0
1, 111280, Note_on_c, 0, 74, 0
1, 111280, Note_on_c, 0, 82, 0
1, 111280, Note_on_c, 0, 82, 68
1, 111360, Tempo, 601202
1, 111360, Note_on_c, 0, 82, 0
1, 111360, Note_on_c, 0, 58, 0
1, 111360, Note_on_c, 0, 74, 62
1, 111360, Note_on_c, 0, 77, 62
1, 111360, Note_on_c, 0, 62, 81
1, 111360, Note_on_c, 0, 55, 62
1, 111360, Note_on_c, 0, 58, 72
1, 111371, Control_c, 0, 64, 0
1, 111423, Control_c, 0, 64, 127
1, 111440, Note_on_c, 0, 77, 0
1, 111440, Note_on_c, 0, 74, 0
1, 111440, Note_on_c, 0, 86, 87
1, 111480, Note_on_c, 0, 55, 0
1, 111480, Note_on_c, 0, 58, 0
1, 111520, Note_on_c, 0, 74, 63
1, 111520, Note_on_c, 0, 77, 63
1, 111598, Note_on_c, 0, 86, 0
1, 111600, Tempo, 632311
1, 111600, Note_on_c, 0, 77, 0
1, 111600, Note_on_c, 0, 74, 0
1, 111600, Note_on_c, 0, 86, 67
1, 111600, Note_on_c, 0, 43, 64
1, 111680, Note_on_c, 0, 74, 63
1, 111680, Note_on_c, 0, 77, 63
1, 111720, Note_on_c, 0, 43, 0
1, 111760, Note_on_c, 0, 74, 0
1, 111760, Note_on_c, 0, 77, 0
1, 111760, Note_on_c, 0, 86, 0
1, 111760, Note_on_c, 0, 86, 68
1, 111840, Tempo, 607841
1, 111840, Note_on_c, 0, 86, 0
1, 111840, Note_on_c, 0, 62, 0
1, 111840, Note_on_c, 0, 70, 62
1, 111840, Note_on_c, 0, 74, 62
1, 111840, Note_on_c, 0, 58, 81
1, 111840, Note_on_c, 0, 53, 62
1, 111840, Note_on_c, 0, 57, 72
1, 111850, Control_c, 0, 64, 0
1, 111889, Control_c, 0, 64, 127
1, 111920, Note_on_c, 0, 74, 0
1, 111920, Note_on_c, 0, 70, 0
1, 111920, Note_on_c, 0, 82, 87
1, 111960, Note_on_c, 0, 53, 0
1, 111960, Note_on_c, 0, 57, 0
1, 112000, Note_on_c, 0, 70, 63
1, 112000, Note_on_c, 0, 74, 63
1, 112078, Note_on_c, 0, 82, 0
1, 112080, Tempo, 650971
1, 112080, Note_on_c, 0, 74, 0
1, 112080, Note_on_c, 0, 70, 0
1, 112080, Note_on_c, 0, 82, 67
1, 112080, Note_on_c, 0, 41, 64
1, 112160, Note_on_c, 0, 70, 63
1, 112160, Note_on_c, 0, 74, 63
1, 112200, Note_on_c, 0, 41, 0
1, 112240, Note_on_c, 0, 70, 0
1, 112240, Note_on_c, 0, 74, 0
1, 112240, Note_on_c, 0, 82, 0
1, 112240, Note_on_c, 0, 82, 68
1, 112280, Tempo, 632311
1, 112320, Tempo, 591483
1, 112320, Note_on_c, 0, 82, 0
1, 112320, Note_on_c, 0, 58, 0
1, 112320, Note_on_c, 0, 75, 62
1, 112320, Note_on_c, 0, 79, 72
1, 112320, Note_on_c, 0, 55, 75
1, 112320, Note_on_c, 0, 63, 82
1, 112320, Note_on_c, 0, 51, 72
1, 112320, Control_c, 0, 64, 0
1, 112354, Control_c, 0, 64, 127
1, 112400, Note_on_c, 0, 79, 0
1, 112400, Note_on_c, 0, 75, 0
1, 112400, Note_on_c, 0, 87, 91
1, 112440, Note_on_c, 0, 51, 0
1, 112480, Note_on_c, 0, 75, 63
1, 112480, Note_on_c, 0, 79, 63
1, 112558, Note_on_c, 0, 87, 0
1, 112560, Tempo, 607841
1, 112560, Note_on_c, 0, 75, 0
1, 112560, Note_on_c, 0, 79, 0
1, 112560, Note_on_c, 0, 87, 67
1, 112560, Note_on_c, 0, 39, 63
1, 112640, Note_on_c, 0, 75, 63
1, 112640, Note_on_c, 0, 79, 63
1, 112680, Note_on_c, 0, 39, 0
1, 112720, Note_on_c, 0, 75, 0
1, 112720, Note_on_c, 0, 87, 0
1, 112720, Note_on_c, 0, 79, 0
1, 112720, Note_on_c, 0, 87, 68
1, 112800, Tempo, 588293
1, 112800, Note_on_c, 0, 87, 0
1, 112800, Note_on_c, 0, 63, 0
1, 112800, Note_on_c, 0, 55, 0
1, 112800, Note_on_c, 0, 82, 62
1, 112800, Note_on_c, 0, 74, 62
1, 112800, Note_on_c, 0, 62, 84
1, 112800, Note_on_c, 0, 55, 63
1, 112800, Note_on_c, 0, 58, 72
1, 112809, Control_c, 0, 64, 0
1, 112843, Control_c, 0, 64, 127
1, 112880, Note_on_c, 0, 74, 0
1, 112880, Note_on_c, 0, 82, 0
1, 112880, Note_on_c, 0, 86, 90
1, 112920, Note_on_c, 0, 55, 0
1, 112920, Note_on_c, 0, 58, 0
1, 112960, Note_on_c, 0, 74, 63
1, 112960, Note_on_c, 0, 82, 63
1, 113038, Note_on_c, 0, 86, 0
1, 113040, Tempo, 604473
1, 113040, Note_on_c, 0, 82, 0
1, 113040, Note_on_c, 0, 74, 0
1, 113040, Note_on_c, 0, 86, 67
1, 113040, Note_on_c, 0, 43, 63
1, 113120, Note_on_c, 0, 74, 63
1, 113120, Note_on_c, 0, 82, 63
1, 113160, Note_on_c, 0, 43, 0
1, 113200, Note_on_c, 0, 74, 0
1, 113200, Note_on_c, 0, 82, 0
1, 113200, Note_on_c, 0, 86, 0
1, 113200, Note_on_c, 0, 86, 68
1, 113280, Tempo, 585195
1, 113280, Note_on_c, 0, 86, 0
1, 113280, Note_on_c, 0, 62, 0
1, 113280, Note_on_c, 0, 72, 62
1, 113280, Note_on_c, 0, 75, 62
1, 113280, Note_on_c, 0, 60, 83
1, 113280, Note_on_c, 0, 57, 72
1, 113286, Control_c, 0, 64, 0
1, 113311, Control_c, 0, 64, 127
1, 113360, Note_on_c, 0, 75, 0
1, 113360, Note_on_c, 0, 72, 0
1, 113360, Note_on_c, 0, 84, 90
1, 113400, Note_on_c, 0, 57, 0
1, 113440, Note_on_c, 0, 72, 63
1, 113440, Note_on_c, 0, 75, 63
1, 113518, Note_on_c, 0, 84, 0
1, 113520, Tempo, 611185
1, 113520, Note_on_c, 0, 75, 0
1, 113520, Note_on_c, 0, 72, 0
1, 113520, Note_on_c, 0, 84, 67
1, 113520, Note_on_c, 0, 45, 64
1, 113600, Note_on_c, 0, 72, 63
1, 113600, Note_on_c, 0, 75, 63
1, 113640, Note_on_c, 0, 45, 0
1, 113680, Note_on_c, 0, 72, 0
1, 113680, Note_on_c, 0, 75, 0
1, 113680, Note_on_c, 0, 84, 0
1, 113680, Note_on_c, 0, 84, 68
1, 113760, Tempo, 604473
1, 113760, Note_on_c, 0, 84, 0
1, 113760, Note_on_c, 0, 60, 0
1, 113760, Note_on_c, 0, 69, 62
1, 113760, Note_on_c, 0, 72, 62
1, 113760, Note_on_c, 0, 57, 82
1, 113760, Note_on_c, 0, 55, 72
1, 113769, Control_c, 0, 64, 0
1, 113800, Control_c, 0, 64, 127
1, 113840, Note_on_c, 0, 72, 0
1, 113840, Note_on_c, 0, 69, 0
1, 113840, Note_on_c, 0, 81, 88
1, 113880, Note_on_c, 0, 55, 0
1, 113920, Note_on_c, 0, 69, 63
1, 113920, Note_on_c, 0, 72, 63
1, 113998, Note_on_c, 0, 81, 0
1, 114000, Tempo, 628667
1, 114000, Note_on_c, 0, 72, 0
1, 114000, Note_on_c, 0, 69, 0
1, 114000, Note_on_c, 0, 81, 67
1, 114000, Note_on_c, 0, 43, 64
1, 114080, Note_on_c, 0, 69, 63
1, 114080, Note_on_c, 0, 72, 63
1, 114120, Note_on_c, 0, 43, 0
1, 114160, Note_on_c, 0, 69, 0
1, 114160, Note_on_c, 0, 72, 0
1, 114160, Note_on_c, 0, 81, 0
1, 114160, Note_on_c, 0, 81, 68
1, 114240, Tempo, 601202
1, 114240, Note_on_c, 0, 81, 0
1, 114240, Note_on_c, 0, 57, 0
1, 114240, Note_on_c, 0, 72, 62
1, 114240, Note_on_c, 0, 75, 62
1, 114240, Note_on_c, 0, 60, 81
1, 114240, Note_on_c, 0, 54, 62
1, 114240, Note_on_c, 0, 57, 72
1, 114251, Control_c, 0, 64, 0
1, 114303, Control_c, 0, 64, 127
1, 114320, Note_on_c, 0, 75, 0
1, 114320, Note_on_c, 0, 72, 0
1, 114320, Note_on_c, 0, 84, 87
1, 114360, Note_on_c, 0, 54, 0
1, 114360, Note_on_c, 0, 57, 0
1, 114400, Note_on_c, 0, 72, 63
1, 114400, Note_on_c, 0, 75, 63
1, 114478, Note_on_c, 0, 84, 0
1, 114480, Tempo, 628667
1, 114480, Note_on_c, 0, 75, 0
1, 114480, Note_on_c, 0, 72, 0
1, 114480, Note_on_c, 0, 84, 67
1, 114480, Note_on_c, 0, 42, 64
1, 114560, Note_on_c, 0, 72, 63
1, 114560, Note_on_c, 0, 75, 63
1, 114600, Note_on_c, 0, 42, 0
1, 114640, Note_on_c, 0, 72, 0
1, 114640, Note_on_c, 0, 75, 0
1, 114640, Note_on_c, 0, 84, 0
1, 114640, Note_on_c, 0, 84, 68
1, 114720, Tempo, 604473
1, 114720, Note_on_c, 0, 84, 0
1, 114720, Note_on_c, 0, 60, 0
1, 114720, Note_on_c, 0, 69, 62
1, 114720, Note_on_c, 0, 72, 62
1, 114720, Note_on_c, 0, 57, 81
1, 114720, Note_on_c, 0, 51, 62
1, 114720, Note_on_c, 0, 55, 72
1, 114730, Control_c, 0, 64, 0
1, 114769, Control_c, 0, 64, 127
1, 114800, Note_on_c, 0, 72, 0
1, 114800, Note_on_c, 0, 69, 0
1, 114800, Note_on_c, 0, 81, 87
1, 114840, Note_on_c, 0, 51, 0
1, 114840, Note_on_c, 0, 55, 0
1, 114880, Note_on_c, 0, 69, 63
1, 114880, Note_on_c, 0, 72, 63
1, 114958, Note_on_c, 0, 81, 0
1, 114960, Tempo, 650971
1, 114960, Note_on_c, 0, 72, 0
1, 114960, Note_on_c, 0, 69, 0
1, 114960, Note_on_c, 0, 81, 67
1, 114960, Note_on_c, 0, 39, 64
1, 115040, Note_on_c, 0, 69, 63
1, 115040, Note_on_c, 0, 72, 63
1, 115080, Note_on_c, 0, 39, 0
1, 115120, Note_on_c, 0, 69, 0
1, 115120, Note_on_c, 0, 72, 0
1, 115120, Note_on_c, 0, 81, 0
1, 115120, Note_on_c, 0, 81, 68
1, 115160, Tempo, 632311
1, 115200, Tempo, 604473
1, 115200, Note_on_c, 0, 81, 0
1, 115200, Note_on_c, 0, 57, 0
1, 115200, Note_on_c, 0, 74, 62
1, 115200, Note_on_c, 0, 78, 72
1, 115200, Note_on_c, 0, 54, 75
1, 115200, Note_on_c, 0, 62, 82
1, 115200, Note_on_c, 0, 50, 72
1, 115208, Control_c, 0, 64, 0
1, 115234, Control_c, 0, 64, 127
1, 115280, Note_on_c, 0, 78, 0
1, 115280, Note_on_c, 0, 74, 0
1, 115280, Note_on_c, 0, 86, 91
1, 115320, Note_on_c, 0, 50, 0
1, 115360, Note_on_c, 0, 74, 63
1, 115360, Note_on_c, 0, 78, 63
1, 115438, Note_on_c, 0, 86, 0
1, 115440, Tempo, 632311
1, 115440, Note_on_c, 0, 74, 0
1, 115440, Note_on_c, 0, 78, 0
1, 115440, Note_on_c, 0, 86, 67
1, 115440, Note_on_c, 0, 38, 63
1, 115520, Note_on_c, 0, 74, 63
1, 115520, Note_on_c, 0, 78, 63
1, 115560, Note_on_c, 0, 38, 0
1, 115600, Note_on_c, 0, 74, 0
1, 115600, Note_on_c, 0, 86, 0
1, 115600, Note_on_c, 0, 78, 0
1, 115600, Note_on_c, 0, 86, 68
1, 115680, Tempo, 601202
1, 115680, Note_on_c, 0, 86, 0
1, 115680, Note_on_c, 0, 62, 0
1, 115680, Note_on_c, 0, 54, 0
1, 115680, Note_on_c, 0, 81, 62
1, 115680, Note_on_c, 0, 72, 62
1, 115680, Note_on_c, 0, 60, 84
1, 115680, Note_on_c, 0, 54, 63
1, 115680, Note_on_c, 0, 57, 72
1, 115689, Control_c, 0, 64, 0
1, 115723, Control_c, 0, 64, 127
1, 115760, Note_on_c, 0, 72, 0
1, 115760, Note_on_c, 0, 81, 0
1, 115760, Note_on_c, 0, 84, 90
1, 115800, Note_on_c, 0, 54, 0
1, 115800, Note_on_c, 0, 57, 0
1, 115840, Note_on_c, 0, 72, 63
1, 115840, Note_on_c, 0, 81, 63
1, 115918, Note_on_c, 0, 84, 0
1, 115920, Tempo, 643363
1, 115920, Note_on_c, 0, 81, 0
1, 115920, Note_on_c, 0, 72, 0
1, 115920, Note_on_c, 0, 84, 67
1, 115920, Note_on_c, 0, 42, 63
1, 116000, Note_on_c, 0, 72, 63
1, 116000, Note_on_c, 0, 81, 63
1, 116040, Note_on_c, 0, 42, 0
1, 116080, Note_on_c, 0, 72, 0
1, 116080, Note_on_c, 0, 81, 0
1, 116080, Note_on_c, 0, 84, 0
1, 116080, Note_on_c, 0, 84, 68
1, 116160, Tempo, 618111
1, 116160, Note_on_c, 0, 84, 0
1, 116160, Note_on_c, 0, 60, 0
1, 116160, Note_on_c, 0, 70, 62
1, 116160, Note_on_c, 0, 79, 62
1, 116160, Note_on_c, 0, 58, 83
1, 116160, Note_on_c, 0, 55, 72
1, 116166, Control_c, 0, 64, 0
1, 116191, Control_c, 0, 64, 127
1, 116240, Note_on_c, 0, 79, 0
1, 116240, Note_on_c, 0, 70, 0
1, 116240, Note_on_c, 0, 82, 90
1, 116280, Note_on_c, 0, 55, 0
1, 116320, Note_on_c, 0, 70, 63
1, 116320, Note_on_c, 0, 79, 63
1, 116398, Note_on_c, 0, 82, 0
1, 116400, Tempo, 643363
1, 116400, Note_on_c, 0, 79, 0
1, 116400, Note_on_c, 0, 70, 0
1, 116400, Note_on_c, 0, 82, 67
1, 116400, Note_on_c, 0, 43, 64
1, 116480, Note_on_c, 0, 70, 63
1, 116480, Note_on_c, 0, 79, 63
1, 116520, Note_on_c, 0, 43, 0
1, 116560, Note_on_c, 0, 70, 0
1, 116560, Note_on_c, 0, 79, 0
1, 116560, Note_on_c, 0, 82, 0
1, 116560, Note_on_c, 0, 82, 68
1, 116640, Tempo, 621568
1, 116640, Note_on_c, 0, 82, 0
1, 116640, Note_on_c, 0, 58, 0
1, 116640, Note_on_c, 0, 74, 62
1, 116640, Note_on_c, 0, 81, 62
1, 116640, Note_on_c, 0, 62, 82
1, 116640, Note_on_c, 0, 53, 70
1, 116640, Note_on_c, 0, 57, 72
1, 116649, Control_c, 0, 64, 0
1, 116680, Control_c, 0, 64, 127
1, 116720, Note_on_c, 0, 81, 0
1, 116720, Note_on_c, 0, 74, 0
1, 116720, Note_on_c, 0, 86, 88
1, 116760, Note_on_c, 0, 53, 0
1, 116760, Note_on_c, 0, 57, 0
1, 116800, Note_on_c, 0, 74, 63
1, 116800, Note_on_c, 0, 81, 63
1, 116878, Note_on_c, 0, 86, 0
1, 116880, Tempo, 647179
1, 116880, Note_on_c, 0, 81, 0
1, 116880, Note_on_c, 0, 74, 0
1, 116880, Note_on_c, 0, 86, 67
1, 116880, Note_on_c, 0, 41, 64
1, 116960, Note_on_c, 0, 74, 63
1, 116960, Note_on_c, 0, 81, 63
1, 117000, Note_on_c, 0, 41, 0
1, 117040, Note_on_c, 0, 74, 0
1, 117040, Note_on_c, 0, 81, 0
1, 117040, Note_on_c, 0, 86, 0
1, 117040, Note_on_c, 0, 86, 68
1, 117120, Tempo, 625065
1, 117120, Note_on_c, 0, 86, 0
1, 117120, Note_on_c, 0, 62, 0
1, 117120, Note_on_c, 0, 74, 62
1, 117120, Note_on_c, 0, 79, 62
1, 117120, Note_on_c, 0, 62, 81
1, 117120, Note_on_c, 0, 51, 62
1, 117120, Note_on_c, 0, 55, 72
1, 117131, Control_c, 0, 64, 0
1, 117183, Control_c, 0, 64, 127
1, 117200, Note_on_c, 0, 79, 0
1, 117200, Note_on_c, 0, 74, 0
1, 117200, Note_on_c, 0, 86, 87
1, 117240, Note_on_c, 0, 51, 0
1, 117240, Note_on_c, 0, 55, 0
1, 117280, Note_on_c, 0, 74, 63
1, 117280, Note_on_c, 0, 79, 63
1, 117358, Note_on_c, 0, 86, 0
1, 117360, Tempo, 650971
1, 117360, Note_on_c, 0, 79, 0
1, 117360, Note_on_c, 0, 74, 0
1, 117360, Note_on_c, 0, 86, 67
1, 117360, Note_on_c, 0, 39, 64
1, 117440, Note_on_c, 0, 74, 63
1, 117440, Note_on_c, 0, 79, 63
1, 117480, Note_on_c, 0, 39, 0
1, 117520, Note_on_c, 0, 74, 0
1, 117520, Note_on_c, 0, 79, 0
1, 117520, Note_on_c, 0, 86, 0
1, 117520, Note_on_c, 0, 86, 68
1, 117600, Tempo, 628667
1, 117600, Note_on_c, 0, 86, 0
1, 117600, Note_on_c, 0, 62, 0
1, 117600, Note_on_c, 0, 73, 62
1, 117600, Note_on_c, 0, 79, 62
1, 117600, Note_on_c, 0, 61, 81
1, 117600, Note_on_c, 0, 51, 62
1, 117600, Note_on_c, 0, 55, 72
1, 117610, Control_c, 0, 64, 0
1, 117649, Control_c, 0, 64, 127
1, 117680, Note_on_c, 0, 79, 0
1, 117680, Note_on_c, 0, 73, 0
1, 117680, Note_on_c, 0, 85, 87
1, 117720, Note_on_c, 0, 51, 0
1, 117720, Note_on_c, 0, 55, 0
1, 117760, Note_on_c, 0, 73, 63
1, 117760, Note_on_c, 0, 79, 63
1, 117838, Note_on_c, 0, 85, 0
1, 117840, Tempo, 650971
1, 117840, Note_on_c, 0, 79, 0
1, 117840, Note_on_c, 0, 73, 0
1, 117840, Note_on_c, 0, 85, 67
1, 117920, Note_on_c, 0, 73, 63
1, 117920, Note_on_c, 0, 79, 63
1, 118000, Note_on_c, 0, 79, 0
1, 118000, Note_on_c, 0, 73, 0
1, 118000, Note_on_c, 0, 85, 0
1, 118000, Note_on_c, 0, 85, 68
1, 118040, Tempo, 632311
1, 118080, Tempo, 604473
1, 118080, Note_on_c, 0, 85, 0
1, 118080, Note_on_c, 0, 61, 0
1, 118080, Note_on_c, 0, 74, 62
1, 118080, Note_on_c, 0, 78, 72
1, 118080, Note_on_c, 0, 38, 79
1, 118080, Note_on_c, 0, 45, 79
1, 118080, Note_on_c, 0, 50, 79
1, 118085, Control_c, 0, 64, 0
1, 118086, Control_c, 0, 64, 0
1, 118114, Control_c, 0, 64, 127
1, 118160, Note_on_c, 0, 78, 0
1, 118160, Note_on_c, 0, 74, 0
1, 118160, Note_on_c, 0, 86, 67
1, 118240, Note_on_c, 0, 86, 0
1, 118240, Note_on_c, 0, 74, 63
1, 118320, Tempo, 632311
1, 118320, Note_on_c, 0, 74, 0
1, 118320, Note_on_c, 0, 86, 67
1, 118400, Note_on_c, 0, 86, 0
1, 118400, Note_on_c, 0, 74, 63
1, 118480, Note_on_c, 0, 74, 0
1, 118480, Note_on_c, 0, 86, 67
1, 118560, Tempo, 601202
1, 118560, Note_on_c, 0, 86, 0
1, 118560, Note_on_c, 0, 50, 0
1, 118560, Note_on_c, 0, 38, 0
1, 118560, Note_on_c, 0, 45, 0
1, 118560, Note_on_c, 0, 74, 61
1, 118560, Note_on_c, 0, 50, 71
1, 118560, Note_on_c, 0, 62, 71
1, 118569, Control_c, 0, 64, 0
1, 118603, Control_c, 0, 64, 127
1, 118640, Note_on_c, 0, 74, 0
1, 118640, Note_on_c, 0, 86, 62
1, 118720, Note_on_c, 0, 86, 0
1, 118720, Note_on_c, 0, 74, 61
1, 118800, Tempo, 643363
1, 118800, Note_on_c, 0, 74, 0
1, 118800, Note_on_c, 0, 86, 65
1, 118860, Note_on_c, 0, 86, 0
1, 118880, Note_on_c, 0, 74, 62
1, 118960, Note_on_c, 0, 74, 0
1, 118960, Note_on_c, 0, 86, 65
1, 118980, Note_on_c, 0, 62, 0
1, 118980, Note_on_c, 0, 50, 0
1, 118980, Note_on_c, 0, 55, 61
1, 119010, Note_on_c, 0, 62, 68
1, 119040, Tempo, 618111
1, 119040, Note_on_c, 0, 86, 0
1, 119040, Note_on_c, 0, 74, 69
1, 119040, Note_on_c, 0, 82, 69
1, 119040, Note_on_c, 0, 70, 72
1, 119046, Control_c, 0, 64, 0
1, 119071, Control_c, 0, 64, 127
1, 119120, Note_on_c, 0, 82, 0
1, 119120, Note_on_c, 0, 74, 0
1, 119120, Note_on_c, 0, 86, 61
1, 119200, Note_on_c, 0, 86, 0
1, 119200, Note_on_c, 0, 74, 59
1, 119280, Tempo, 643363
1, 119280, Note_on_c, 0, 74, 0
1, 119280, Note_on_c, 0, 86, 63
1, 119360, Note_on_c, 0, 86, 0
1, 119360, Note_on_c, 0, 74, 59
1, 119440, Note_on_c, 0, 74, 0
1, 119440, Note_on_c, 0, 86, 63
1, 119460, Note_on_c, 0, 55, 0
1, 119460, Note_on_c, 0, 70, 0
1, 119460, Note_on_c, 0, 62, 0
1, 119460, Note_on_c, 0, 58, 62
1, 119490, Note_on_c, 0, 67, 67
1, 119520, Tempo, 621568
1, 119520, Note_on_c, 0, 86, 0
1, 119520, Note_on_c, 0, 74, 73
1, 119529, Control_c, 0, 64, 0
1, 119560, Control_c, 0, 64, 127
1, 119600, Note_on_c, 0, 86, 57
1, 119678, Note_on_c, 0, 74, 0
1, 119680, Note_on_c, 0, 86, 0
1, 119680, Note_on_c, 0, 74, 56
1, 119760, Tempo, 647179
1, 119760, Note_on_c, 0, 74, 0
1, 119760, Note_on_c, 0, 86, 60
1, 119840, Note_on_c, 0, 86, 0
1, 119840, Note_on_c, 0, 74, 55
1, 119920, Note_on_c, 0, 74, 0
1, 119920, Note_on_c, 0, 86, 60
1, 119940, Note_on_c, 0, 67, 0
1, 119940, Note_on_c, 0, 58, 0
1, 119940, Note_on_c, 0, 57, 48
1, 119960, Note_on_c, 0, 62, 54
1, 119980, Note_on_c, 0, 66, 61
1, 120000, Tempo, 625065
1, 120000, Note_on_c, 0, 86, 0
1, 120000, Note_on_c, 0, 72, 66
1, 120011, Control_c, 0, 64, 0
1, 120063, Control_c, 0, 64, 127
1, 120080, Note_on_c, 0, 84, 58
1, 120158, Note_on_c, 0, 72, 0
1, 120160, Note_on_c, 0, 84, 0
1, 120160, Note_on_c, 0, 72, 54
1, 120240, Tempo, 650971
1, 120240, Note_on_c, 0, 72, 0
1, 120240, Note_on_c, 0, 84, 57
1, 120320, Note_on_c, 0, 84, 0
1, 120320, Note_on_c, 0, 72, 54
1, 120400, Note_on_c, 0, 72, 0
1, 120400, Note_on_c, 0, 84, 57
1, 120420, Note_on_c, 0, 57, 0
1, 120420, Note_on_c, 0, 66, 0
1, 120420, Note_on_c, 0, 62, 0
1, 120420, Note_on_c, 0, 55, 55
1, 120450, Note_on_c, 0, 62, 62
1, 120480, Tempo, 628667
1, 120480, Note_on_c, 0, 84, 0
1, 120480, Note_on_c, 0, 70, 68
1, 120490, Control_c, 0, 64, 0
1, 120529, Control_c, 0, 64, 127
1, 120560, Note_on_c, 0, 82, 55
1, 120638, Note_on_c, 0, 70, 0
1, 120640, Note_on_c, 0, 82, 0
1, 120640, Note_on_c, 0, 70, 51
1, 120720, Tempo, 650971
1, 120720, Note_on_c, 0, 70, 0
1, 120720, Note_on_c, 0, 82, 55
1, 120800, Note_on_c, 0, 82, 0
1, 120800, Note_on_c, 0, 70, 51
1, 120880, Note_on_c, 0, 70, 0
1, 120880, Note_on_c, 0, 82, 54
1, 120900, Note_on_c, 0, 62, 0
1, 120900, Note_on_c, 0, 55, 0
1, 120900, Note_on_c, 0, 54, 56
1, 120930, Note_on_c, 0, 62, 60
1, 120960, Tempo, 625065
1, 120960, Note_on_c, 0, 82, 0
1, 120960, Note_on_c, 0, 69, 66
1, 120974, Control_c, 0, 64, 0
1, 121023, Control_c, 0, 64, 127
1, 121040, Note_on_c, 0, 81, 58
1, 121118, Note_on_c, 0, 69, 0
1, 121120, Note_on_c, 0, 81, 0
1, 121120, Note_on_c, 0, 69, 54
1, 121200, Tempo, 650971
1, 121200, Note_on_c, 0, 69, 0
1, 121200, Note_on_c, 0, 81, 56
1, 121280, Note_on_c, 0, 81, 0
1, 121280, Note_on_c, 0, 69, 53
1, 121360, Note_on_c, 0, 69, 0
1, 121360, Note_on_c, 0, 81, 55
1, 121380, Note_on_c, 0, 62, 0
1, 121380, Note_on_c, 0, 54, 0
1, 121380, Note_on_c, 0, 51, 54
1, 121410, Note_on_c, 0, 62, 59
1, 121440, Tempo, 628667
1, 121440, Note_on_c, 0, 81, 0
1, 121440, Note_on_c, 0, 67, 65
1, 121450, Control_c, 0, 64, 0
1, 121489, Control_c, 0, 64, 127
1, 121520, Note_on_c, 0, 79, 54
1, 121598, Note_on_c, 0, 67, 0
1, 121600, Note_on_c, 0, 79, 0
1, 121600, Note_on_c, 0, 67, 50
1, 121680, Tempo, 650971
1, 121680, Note_on_c, 0, 67, 0
1, 121680, Note_on_c, 0, 79, 54
1, 121760, Note_on_c, 0, 79, 0
1, 121760, Note_on_c, 0, 67, 49
1, 121840, Note_on_c, 0, 67, 0
1, 121840, Note_on_c, 0, 79, 52
1, 121860, Note_on_c, 0, 62, 0
1, 121860, Note_on_c, 0, 51, 0
1, 121860, Note_on_c, 0, 50, 54
1, 121890, Note_on_c, 0, 57, 57
1, 121920, Tempo, 625065
1, 121920, Note_on_c, 0, 79, 0
1, 121920, Note_on_c, 0, 66, 63
1, 121931, Control_c, 0, 64, 0
1, 121983, Control_c, 0, 64, 127
1, 122000, Note_on_c, 0, 78, 54
1, 122078, Note_on_c, 0, 66, 0
1, 122080, Note_on_c, 0, 78, 0
1, 122080, Note_on_c, 0, 66, 51
1, 122160, Tempo, 650971
1, 122160, Note_on_c, 0, 66, 0
1, 122160, Note_on_c, 0, 78, 53
1, 122240, Note_on_c, 0, 78, 0
1, 122240, Note_on_c, 0, 66, 51
1, 122320, Note_on_c, 0, 66, 0
1, 122320, Note_on_c, 0, 78, 53
1, 122340, Note_on_c, 0, 57, 0
1, 122340, Note_on_c, 0, 50, 0
1, 122340, Note_on_c, 0, 48, 42
1, 122360, Note_on_c, 0, 54, 46
1, 122380, Note_on_c, 0, 57, 51
1, 122400, Tempo, 628667
1, 122400, Note_on_c, 0, 78, 0
1, 122400, Note_on_c, 0, 63, 62
1, 122410, Control_c, 0, 64, 0
1, 122449, Control_c, 0, 64, 127
1, 122480, Note_on_c, 0, 75, 51
1, 122558, Note_on_c, 0, 63, 0
1, 122560, Note_on_c, 0, 75, 0
1, 122560, Note_on_c, 0, 63, 47
1, 122640, Tempo, 650971
1, 122640, Note_on_c, 0, 63, 0
1, 122640, Note_on_c, 0, 75, 51
1, 122720, Note_on_c, 0, 75, 0
1, 122720, Note_on_c, 0, 63, 47
1, 122800, Note_on_c, 0, 63, 0
1, 122800, Note_on_c, 0, 75, 50
1, 122820, Note_on_c, 0, 48, 0
1, 122820, Note_on_c, 0, 57, 0
1, 122820, Note_on_c, 0, 54, 0
1, 122820, Note_on_c, 0, 46, 48
1, 122850, Note_on_c, 0, 55, 53
1, 122880, Tempo, 625065
1, 122880, Note_on_c, 0, 75, 0
1, 122880, Note_on_c, 0, 62, 58
1, 122891, Control_c, 0, 64, 0
1, 122943, Control_c, 0, 64, 127
1, 122960, Note_on_c, 0, 74, 52
1, 123038, Note_on_c, 0, 62, 0
1, 123040, Note_on_c, 0, 74, 0
1, 123040, Note_on_c, 0, 62, 48
1, 123120, Tempo, 650971
1, 123120, Note_on_c, 0, 62, 0
1, 123120, Note_on_c, 0, 74, 51
1, 123200, Note_on_c, 0, 74, 0
1, 123200, Note_on_c, 0, 62, 47
1, 123280, Note_on_c, 0, 62, 0
1, 123280, Note_on_c, 0, 74, 51
1, 123300, Note_on_c, 0, 55, 0
1, 123300, Note_on_c, 0, 46, 0
1, 123300, Note_on_c, 0, 43, 50
1, 123330, Note_on_c, 0, 50, 52
1, 123360, Tempo, 628667
1, 123360, Note_on_c, 0, 74, 0
1, 123360, Note_on_c, 0, 58, 59
1, 123370, Control_c, 0, 64, 0
1, 123409, Control_c, 0, 64, 127
1, 123440, Note_on_c, 0, 62, 49
1, 123440, Note_on_c, 0, 70, 49
1, 123518, Note_on_c, 0, 58, 0
1, 123520, Note_on_c, 0, 62, 0
1, 123520, Note_on_c, 0, 70, 0
1, 123520, Note_on_c, 0, 58, 45
1, 123600, Tempo, 650971
1, 123600, Note_on_c, 0, 58, 0
1, 123600, Note_on_c, 0, 62, 47
1, 123600, Note_on_c, 0, 70, 48
1, 123680, Note_on_c, 0, 70, 0
1, 123680, Note_on_c, 0, 62, 0
1, 123680, Note_on_c, 0, 58, 45
1, 123760, Note_on_c, 0, 58, 0
1, 123760, Note_on_c, 0, 62, 46
1, 123760, Note_on_c, 0, 70, 46
1, 123780, Note_on_c, 0, 50, 0
1, 123780, Note_on_c, 0, 43, 0
1, 123780, Note_on_c, 0, 42, 47
1, 123810, Note_on_c, 0, 50, 50
1, 123828, Tempo, 614628
1, 123840, Note_on_c, 0, 62, 0
1, 123840, Note_on_c, 0, 70, 0
1, 123840, Note_on_c, 0, 57, 55
1, 123851, Control_c, 0, 64, 0
1, 123900, Tempo, 618111
1, 123903, Control_c, 0, 64, 127
1, 123920, Note_on_c, 0, 62, 45
1, 123920, Note_on_c, 0, 69, 49
1, 123968, Tempo, 621568
1, 123998, Note_on_c, 0, 57, 0
1, 124000, Note_on_c, 0, 62, 0
1, 124000, Note_on_c, 0, 69, 0
1, 124000, Note_on_c, 0, 57, 45
1, 124040, Tempo, 625065
1, 124080, Note_on_c, 0, 57, 0
1, 124080, Note_on_c, 0, 62, 44
1, 124080, Note_on_c, 0, 69, 47
1, 124108, Tempo, 628667
1, 124160, Note_on_c, 0, 69, 0
1, 124160, Note_on_c, 0, 62, 0
1, 124160, Note_on_c, 0, 57, 44
1, 124180, Tempo, 632311
1, 124240, Note_on_c, 0, 57, 0
1, 124240, Note_on_c, 0, 62, 43
1, 124240, Note_on_c, 0, 69, 45
1, 124248, Tempo, 635930
1, 124260, Note_on_c, 0, 42, 0
1, 124260, Note_on_c, 0, 50, 0
1, 124260, Note_on_c, 0, 39, 44
1, 124290, Note_on_c, 0, 50, 48
1, 124308, Tempo, 639659
1, 124320, Note_on_c, 0, 62, 0
1, 124320, Note_on_c, 0, 69, 0
1, 124320, Note_on_c, 0, 55, 54
1, 124330, Control_c, 0, 64, 0
1, 124369, Control_c, 0, 64, 127
1, 124380, Tempo, 643363
1, 124400, Note_on_c, 0, 62, 38
1, 124400, Note_on_c, 0, 67, 44
1, 124448, Tempo, 647179
1, 124478, Note_on_c, 0, 55, 0
1, 124480, Note_on_c, 0, 62, 0
1, 124480, Note_on_c, 0, 67, 0
1, 124480, Note_on_c, 0, 55, 40
1, 124520, Tempo, 650971
1, 124560, Note_on_c, 0, 55, 0
1, 124560, Note_on_c, 0, 62, 38
1, 124560, Note_on_c, 0, 67, 44
1, 124588, Tempo, 654879
1, 124640, Note_on_c, 0, 67, 0
1, 124640, Note_on_c, 0, 62, 0
1, 124640, Note_on_c, 0, 55, 38
1, 124660, Tempo, 658762
1, 124720, Tempo, 662764
1, 124720, Note_on_c, 0, 55, 0
1, 124720, Note_on_c, 0, 62, 37
1, 124720, Note_on_c, 0, 67, 42
1, 124740, Note_on_c, 0, 39, 0
1, 124740, Note_on_c, 0, 50, 0
1, 124740, Note_on_c, 0, 38, 43
1, 124770, Note_on_c, 0, 45, 45
1, 124788, Tempo, 666815
1, 124800, Note_on_c, 0, 62, 0
1, 124800, Note_on_c, 0, 67, 0
1, 124800, Note_on_c, 0, 54, 50
1, 124811, Control_c, 0, 64, 0
1, 124860, Tempo, 670841
1, 124863, Control_c, 0, 64, 127
1, 124880, Note_on_c, 0, 62, 36
1, 124880, Note_on_c, 0, 66, 44
1, 124928, Tempo, 674916
1, 124958, Note_on_c, 0, 54, 0
1, 124960, Note_on_c, 0, 62, 0
1, 124960, Note_on_c, 0, 66, 0
1, 124960, Note_on_c, 0, 54, 40
1, 125000, Tempo, 679117
1, 125040, Note_on_c, 0, 54, 0
1, 125040, Note_on_c, 0, 62, 36
1, 125040, Note_on_c, 0, 66, 41
1, 125068, Tempo, 683371
1, 125120, Note_on_c, 0, 66, 0
1, 125120, Note_on_c, 0, 62, 0
1, 125120, Note_on_c, 0, 54, 39
1, 125128, Tempo, 687600
1, 125200, Tempo, 691962
1, 125200, Note_on_c, 0, 54, 0
1, 125200, Note_on_c, 0, 62, 34
1, 125200, Note_on_c, 0, 66, 41
1, 125220, Note_on_c, 0, 38, 0
1, 125220, Note_on_c, 0, 45, 0
1, 125220, Note_on_c, 0, 36, 32
1, 125240, Note_on_c, 0, 42, 36
1, 125260, Note_on_c, 0, 45, 39
1, 125268, Tempo, 696379
1, 125280, Note_on_c, 0, 62, 0
1, 125280, Note_on_c, 0, 66, 0
1, 125280, Note_on_c, 0, 51, 47
1, 125290, Control_c, 0, 64, 0
1, 125329, Control_c, 0, 64, 127
1, 125340, Tempo, 700771
1, 125360, Note_on_c, 0, 54, 33
1, 125360, Note_on_c, 0, 57, 34
1, 125360, Note_on_c, 0, 63, 39
1, 125408, Tempo, 705219
1, 125438, Note_on_c, 0, 51, 0
1, 125440, Note_on_c, 0, 57, 0
1, 125440, Note_on_c, 0, 54, 0
1, 125440, Note_on_c, 0, 63, 0
1, 125440, Note_on_c, 0, 51, 36
1, 125480, Tempo, 709807
1, 125520, Note_on_c, 0, 51, 0
1, 125520, Note_on_c, 0, 54, 33
1, 125520, Note_on_c, 0, 57, 33
1, 125520, Note_on_c, 0, 63, 38
1, 125548, Tempo, 714456
1, 125600, Note_on_c, 0, 63, 0
1, 125600, Note_on_c, 0, 54, 0
1, 125600, Note_on_c, 0, 57, 0
1, 125600, Note_on_c, 0, 51, 35
1, 125608, Tempo, 719080
1, 125680, Tempo, 723764
1, 125680, Note_on_c, 0, 51, 0
1, 125680, Note_on_c, 0, 54, 33
1, 125680, Note_on_c, 0, 57, 33
1, 125680, Note_on_c, 0, 63, 36
1, 125700, Note_on_c, 0, 42, 0
1, 125700, Note_on_c, 0, 45, 0
1, 125700, Note_on_c, 0, 36, 0
1, 125700, Note_on_c, 0, 34, 31
1, 125730, Note_on_c, 0, 43, 34
1, 125748, Tempo, 728597
1, 125760, Note_on_c, 0, 54, 0
1, 125760, Note_on_c, 0, 63, 0
1, 125760, Note_on_c, 0, 57, 0
1, 125760, Note_on_c, 0, 50, 44
1, 125771, Control_c, 0, 64, 0
1, 125820, Tempo, 733496
1, 125823, Control_c, 0, 64, 127
1, 125840, Note_on_c, 0, 55, 33
1, 125840, Note_on_c, 0, 58, 33
1, 125840, Note_on_c, 0, 62, 38
1, 125888, Tempo, 738371
1, 125918, Note_on_c, 0, 50, 0
1, 125920, Note_on_c, 0, 58, 0
1, 125920, Note_on_c, 0, 55, 0
1, 125920, Note_on_c, 0, 62, 0
1, 125920, Note_on_c, 0, 50, 35
1, 125960, Tempo, 743310
1, 126000, Note_on_c, 0, 50, 0
1, 126000, Note_on_c, 0, 55, 32
1, 126000, Note_on_c, 0, 58, 32
1, 126000, Note_on_c, 0, 62, 37
1, 126020, Tempo, 748503
1, 126080, Note_on_c, 0, 62, 0
1, 126080, Note_on_c, 0, 55, 0
1, 126080, Note_on_c, 0, 58, 0
1, 126080, Note_on_c, 0, 50, 34
1, 126088, Tempo, 753580
1, 126160, Tempo, 758725
1, 126160, Note_on_c, 0, 50, 0
1, 126160, Note_on_c, 0, 55, 32
1, 126160, Note_on_c, 0, 58, 32
1, 126160, Note_on_c, 0, 62, 36
1, 126180, Note_on_c, 0, 43, 0
1, 126180, Note_on_c, 0, 34, 0
1, 126180, Note_on_c, 0, 33, 28
1, 126200, Note_on_c, 0, 38, 31
1, 126220, Note_on_c, 0, 42, 36
1, 126228, Tempo, 763942
1, 126240, Note_on_c, 0, 58, 0
1, 126240, Note_on_c, 0, 62, 0
1, 126240, Note_on_c, 0, 55, 0
1, 126240, Note_on_c, 0, 48, 43
1, 126250, Control_c, 0, 64, 0
1, 126289, Control_c, 0, 64, 127
1, 126300, Tempo, 769428
1, 126320, Note_on_c, 0, 60, 34
1, 126320, Note_on_c, 0, 54, 35
1, 126320, Note_on_c, 0, 62, 35
1, 126368, Tempo, 774793
1, 126400, Note_on_c, 0, 62, 0
1, 126400, Note_on_c, 0, 60, 0
1, 126400, Note_on_c, 0, 54, 0
1, 126400, Note_on_c, 0, 50, 32
1, 126428, Tempo, 780234
1, 126480, Note_on_c, 0, 50, 0
1, 126480, Note_on_c, 0, 60, 27
1, 126480, Note_on_c, 0, 54, 28
1, 126480, Note_on_c, 0, 62, 34
1, 126560, Note_on_c, 0, 62, 0
1, 126560, Note_on_c, 0, 60, 0
1, 126560, Note_on_c, 0, 54, 0
1, 126560, Note_on_c, 0, 50, 32
1, 126640, Note_on_c, 0, 50, 0
1, 126640, Note_on_c, 0, 60, 27
1, 126640, Note_on_c, 0, 54, 27
1, 126640, Note_on_c, 0, 62, 33
1, 126660, Note_on_c, 0, 48, 0
1, 126660, Note_on_c, 0, 33, 0
1, 126660, Note_on_c, 0, 42, 0
1, 126660, Note_on_c, 0, 38, 0
1, 126660, Note_on_c, 0, 31, 34
1, 126680, Tempo, 727802
1, 126690, Note_on_c, 0, 38, 37
1, 126720, Note_on_c, 0, 62, 0
1, 126720, Note_on_c, 0, 54, 0
1, 126720, Note_on_c, 0, 60, 0
1, 126720, Note_on_c, 0, 46, 44
1, 126728, Control_c, 0, 64, 0
1, 126740, Note_on_c, 0, 50, 40
1, 126760, Note_on_c, 0, 55, 43
1, 126780, Note_on_c, 0, 58, 44
1, 126800, Note_on_c, 0, 62, 46
1, 126846, Control_c, 0, 64, 127
1, 126880, Tempo, 723240
1, 127040, Tempo, 718735
1, 127200, Tempo, 696945
1, 127200, Note_on_c, 0, 62, 0
1, 127200, Note_on_c, 0, 55, 0
1, 127200, Note_on_c, 0, 31, 0
1, 127200, Note_on_c, 0, 46, 0
1, 127200, Note_on_c, 0, 38, 0
1, 127200, Note_on_c, 0, 58, 0
1, 127200, Note_on_c, 0, 50, 0
1, 127200, Note_on_c, 0, 70, 45
1, 127220, Control_c, 0, 64, 0
1, 127260, Control_c, 0, 64, 127
1, 127280, Note_on_c, 0, 70, 0
1, 127280, Note_on_c, 0, 86, 37
1, 127320, Tempo, 692761
1, 127360, Note_on_c, 0, 86, 0
1, 127360, Note_on_c, 0, 74, 40
1, 127440, Tempo, 688547
1, 127440, Note_on_c, 0, 74, 0
1, 127440, Note_on_c, 0, 86, 38
1, 127520, Tempo, 684463
1, 127520, Note_on_c, 0, 86, 0
1, 127520, Note_on_c, 0, 79, 41
1, 127600, Note_on_c, 0, 79, 0
1, 127600, Note_on_c, 0, 86, 39
1, 127640, Tempo, 680426
1, 127680, Note_on_c, 0, 86, 0
1, 127680, Note_on_c, 0, 82, 47
1, 127720, Tempo, 676437
1, 127760, Note_on_c, 0, 82, 0
1, 127760, Note_on_c, 0, 86, 39
1, 127840, Note_on_c, 0, 86, 0
1, 127840, Note_on_c, 0, 79, 43
1, 127880, Tempo, 680426
1, 127920, Note_on_c, 0, 79, 0
1, 127920, Note_on_c, 0, 86, 43
1, 128000, Note_on_c, 0, 86, 0
1, 128000, Note_on_c, 0, 74, 44
1, 128040, Tempo, 684463
1, 128080, Note_on_c, 0, 74, 0
1, 128080, Note_on_c, 0, 86, 41
1, 128120, Tempo, 684463
1, 128130, Note_on_c, 0, 55, 40
1, 128160, Note_on_c, 0, 86, 0
1, 128160, Note_on_c, 0, 75, 50
1, 128160, Note_on_c, 0, 67, 54
1, 128171, Control_c, 0, 64, 0
1, 128211, Control_c, 0, 64, 127
1, 128240, Note_on_c, 0, 75, 0
1, 128240, Note_on_c, 0, 91, 43
1, 128280, Tempo, 680426
1, 128320, Note_on_c, 0, 91, 0
1, 128320, Note_on_c, 0, 79, 45
1, 128400, Tempo, 676437
1, 128400, Note_on_c, 0, 79, 0
1, 128400, Note_on_c, 0, 91, 42
1, 128480, Note_on_c, 0, 91, 0
1, 128480, Note_on_c, 0, 87, 45
1, 128520, Tempo, 672495
1, 128560, Note_on_c, 0, 87, 0
1, 128560, Note_on_c, 0, 91, 42
1, 128610, Note_on_c, 0, 55, 41
1, 128640, Tempo, 668598
1, 128640, Note_on_c, 0, 91, 0
1, 128640, Note_on_c, 0, 55, 0
1, 128640, Note_on_c, 0, 67, 0
1, 128640, Note_on_c, 0, 74, 50
1, 128640, Note_on_c, 0, 66, 58
1, 128654, Control_c, 0, 64, 0
1, 128697, Control_c, 0, 64, 127
1, 128720, Note_on_c, 0, 74, 0
1, 128720, Note_on_c, 0, 90, 42
1, 128800, Note_on_c, 0, 90, 0
1, 128800, Note_on_c, 0, 78, 45
1, 128880, Note_on_c, 0, 78, 0
1, 128880, Note_on_c, 0, 90, 42
1, 128960, Note_on_c, 0, 90, 0
1, 128960, Note_on_c, 0, 86, 45
1, 129040, Note_on_c, 0, 86, 0
1, 129040, Note_on_c, 0, 90, 42
1, 129090, Note_on_c, 0, 55, 43
1, 129120, Tempo, 664673
1, 129120, Note_on_c, 0, 90, 0
1, 129120, Note_on_c, 0, 55, 0
1, 129120, Note_on_c, 0, 66, 0
1, 129120, Note_on_c, 0, 72, 50
1, 129120, Note_on_c, 0, 63, 59
1, 129131, Control_c, 0, 64, 0
1, 129160, Control_c, 0, 64, 127
1, 129200, Note_on_c, 0, 72, 0
1, 129200, Note_on_c, 0, 87, 42
1, 129240, Tempo, 668598
1, 129280, Note_on_c, 0, 87, 0
1, 129280, Note_on_c, 0, 75, 45
1, 129320, Tempo, 672495
1, 129360, Note_on_c, 0, 75, 0
1, 129360, Note_on_c, 0, 87, 43
1, 129400, Tempo, 676437
1, 129440, Note_on_c, 0, 87, 0
1, 129440, Note_on_c, 0, 79, 45
1, 129480, Tempo, 680426
1, 129520, Note_on_c, 0, 79, 0
1, 129520, Note_on_c, 0, 87, 41
1, 129560, Tempo, 684463
1, 129600, Tempo, 684463
1, 129600, Note_on_c, 0, 87, 0
1, 129600, Note_on_c, 0, 63, 0
1, 129600, Note_on_c, 0, 55, 0
1, 129600, Note_on_c, 0, 70, 50
1, 129600, Note_on_c, 0, 62, 53
1, 129600, Note_on_c, 0, 55, 45
1, 129620, Control_c, 0, 64, 0
1, 129656, Control_c, 0, 64, 127
1, 129680, Note_on_c, 0, 70, 0
1, 129680, Note_on_c, 0, 86, 42
1, 129760, Note_on_c, 0, 86, 0
1, 129760, Note_on_c, 0, 74, 45
1, 129840, Note_on_c, 0, 74, 0
1, 129840, Note_on_c, 0, 86, 43
1, 129920, Note_on_c, 0, 86, 0
1, 129920, Note_on_c, 0, 79, 45
1, 130000, Note_on_c, 0, 79, 0
1, 130000, Note_on_c, 0, 86, 41
1, 130080, Tempo, 696945
1, 130080, Note_on_c, 0, 86, 0
1, 130080, Note_on_c, 0, 55, 0
1, 130080, Note_on_c, 0, 82, 50
1, 130160, Note_on_c, 0, 82, 0
1, 130160, Note_on_c, 0, 86, 42
1, 130200, Tempo, 692761
1, 130240, Note_on_c, 0, 86, 0
1, 130240, Note_on_c, 0, 79, 45
1, 130320, Tempo, 688547
1, 130320, Note_on_c, 0, 79, 0
1, 130320, Note_on_c, 0, 86, 42
1, 130400, Tempo, 684463
1, 130400, Note_on_c, 0, 86, 0
1, 130400, Note_on_c, 0, 74, 45
1, 130480, Note_on_c, 0, 74, 0
1, 130480, Note_on_c, 0, 86, 42
1, 130520, Tempo, 680426
1, 130560, Note_on_c, 0, 86, 0
1, 130560, Note_on_c, 0, 70, 50
1, 130600, Tempo, 676437
1, 130640, Note_on_c, 0, 70, 0
1, 130640, Note_on_c, 0, 86, 42
1, 130720, Note_on_c, 0, 86, 0
1, 130720, Note_on_c, 0, 74, 45
1, 130760, Tempo, 680426
1, 130800, Note_on_c, 0, 74, 0
1, 130800, Note_on_c, 0, 86, 45
1, 130880, Note_on_c, 0, 86, 0
1, 130880, Note_on_c, 0, 79, 45
1, 130920, Tempo, 684463
1, 130960, Note_on_c, 0, 79, 0
1, 130960, Note_on_c, 0, 86, 42
1, 131000, Tempo, 684463
1, 131040, Note_on_c, 0, 86, 0
1, 131040, Note_on_c, 0, 62, 0
1, 131040, Note_on_c, 0, 69, 50
1, 131040, Note_on_c, 0, 65, 54
1, 131051, Control_c, 0, 64, 0
1, 131091, Control_c, 0, 64, 127
1, 131120, Note_on_c, 0, 69, 0
1, 131120, Note_on_c, 0, 86, 43
1, 131160, Tempo, 680426
1, 131200, Note_on_c, 0, 86, 0
1, 131200, Note_on_c, 0, 74, 45
1, 131280, Tempo, 676437
1, 131280, Note_on_c, 0, 74, 0
1, 131280, Note_on_c, 0, 86, 42
1, 131360, Note_on_c, 0, 86, 0
1, 131360, Note_on_c, 0, 77, 45
1, 131400, Tempo, 672495
1, 131440, Note_on_c, 0, 77, 0
1, 131440, Note_on_c, 0, 86, 42
1, 131520, Tempo, 668598
1, 131520, Note_on_c, 0, 86, 0
1, 131520, Note_on_c, 0, 65, 0
1, 131520, Note_on_c, 0, 67, 50
1, 131520, Note_on_c, 0, 63, 57
1, 131534, Control_c, 0, 64, 0
1, 131577, Control_c, 0, 64, 127
1, 131600, Note_on_c, 0, 67, 0
1, 131600, Note_on_c, 0, 84, 42
1, 131680, Note_on_c, 0, 84, 0
1, 131680, Note_on_c, 0, 72, 45
1, 131760, Note_on_c, 0, 72, 0
1, 131760, Note_on_c, 0, 84, 42
1, 131840, Note_on_c, 0, 84, 0
1, 131840, Note_on_c, 0, 75, 45
1, 131920, Note_on_c, 0, 75, 0
1, 131920, Note_on_c, 0, 84, 42
1, 132000, Tempo, 664673
1, 132000, Note_on_c, 0, 84, 0
1, 132000, Note_on_c, 0, 63, 0
1, 132000, Note_on_c, 0, 65, 50
1, 132000, Note_on_c, 0, 62, 57
1, 132011, Control_c, 0, 64, 0
1, 132040, Control_c, 0, 64, 127
1, 132080, Note_on_c, 0, 65, 0
1, 132080, Note_on_c, 0, 82, 42
1, 132120, Tempo, 668598
1, 132160, Note_on_c, 0, 82, 0
1, 132160, Note_on_c, 0, 70, 45
1, 132200, Tempo, 672495
1, 132240, Note_on_c, 0, 70, 0
1, 132240, Note_on_c, 0, 82, 43
1, 132280, Tempo, 676437
1, 132320, Note_on_c, 0, 82, 0
1, 132320, Note_on_c, 0, 74, 45
1, 132360, Tempo, 680426
1, 132400, Note_on_c, 0, 74, 0
1, 132400, Note_on_c, 0, 82, 41
1, 132440, Tempo, 684463
1, 132480, Tempo, 684463
1, 132480, Note_on_c, 0, 82, 0
1, 132480, Note_on_c, 0, 62, 0
1, 132480, Note_on_c, 0, 63, 50
1, 132480, Note_on_c, 0, 60, 53
1, 132499, Control_c, 0, 64, 0
1, 132536, Control_c, 0, 64, 127
1, 132560, Note_on_c, 0, 63, 0
1, 132560, Note_on_c, 0, 81, 42
1, 132640, Note_on_c, 0, 81, 0
1, 132640, Note_on_c, 0, 69, 45
1, 132720, Note_on_c, 0, 69, 0
1, 132720, Note_on_c, 0, 81, 43
1, 132800, Note_on_c, 0, 81, 0
1, 132800, Note_on_c, 0, 72, 45
1, 132880, Note_on_c, 0, 72, 0
1, 132880, Note_on_c, 0, 81, 41
1, 132940, Tempo, 693642
1, 132960, Note_on_c, 0, 81, 0
1, 132960, Note_on_c, 0, 75, 50
1, 133000, Tempo, 689655
1, 133040, Tempo, 685714
1, 133040, Note_on_c, 0, 75, 0
1, 133040, Note_on_c, 0, 81, 42
1, 133080, Tempo, 681818
1, 133120, Note_on_c, 0, 81, 0
1, 133120, Note_on_c, 0, 72, 45
1, 133140, Tempo, 677966
1, 133180, Tempo, 674157
1, 133200, Note_on_c, 0, 72, 0
1, 133200, Note_on_c, 0, 81, 42
1, 133220, Tempo, 670391
1, 133260, Tempo, 666667
1, 133280, Note_on_c, 0, 81, 0
1, 133280, Note_on_c, 0, 69, 45
1, 133320, Tempo, 662983
1, 133360, Tempo, 659341
1, 133360, Note_on_c, 0, 69, 0
1, 133360, Note_on_c, 0, 81, 42
1, 133400, Tempo, 655738
1, 133440, Tempo, 652174
1, 133440, Note_on_c, 0, 81, 0
1, 133440, Note_on_c, 0, 63, 50
1, 133480, Tempo, 652174
1, 133520, Tempo, 655738
1, 133520, Note_on_c, 0, 63, 0
1, 133520, Note_on_c, 0, 81, 42
1, 133560, Tempo, 659341
1, 133600, Tempo, 662983
1, 133600, Note_on_c, 0, 81, 0
1, 133600, Note_on_c, 0, 69, 45
1, 133620, Tempo, 666667
1, 133640, Tempo, 680426
1, 133680, Tempo, 676437
1, 133680, Note_on_c, 0, 69, 0
1, 133680, Note_on_c, 0, 81, 45
1, 133720, Tempo, 692761
1, 133760, Tempo, 709807
1, 133760, Note_on_c, 0, 81, 0
1, 133760, Note_on_c, 0, 72, 45
1, 133800, Tempo, 732422
1, 133840, Tempo, 751597
1, 133840, Note_on_c, 0, 72, 0
1, 133840, Note_on_c, 0, 81, 42
1, 133880, Tempo, 777001
1, 133920, Tempo, 692761
1, 133920, Note_on_c, 0, 81, 0
1, 133920, Note_on_c, 0, 60, 0
1, 133920, Note_on_c, 0, 69, 59
1, 133920, Note_on_c, 0, 48, 49
1, 133920, Note_on_c, 0, 63, 59
1, 133931, Control_c, 0, 64, 0
1, 133971, Control_c, 0, 64, 127
1, 134000, Note_on_c, 0, 69, 0
1, 134000, Note_on_c, 0, 84, 43
1, 134040, Tempo, 680426
1, 134080, Note_on_c, 0, 84, 0
1, 134080, Note_on_c, 0, 72, 50
1, 134160, Tempo, 676437
1, 134160, Note_on_c, 0, 72, 0
1, 134160, Note_on_c, 0, 84, 42
1, 134240, Note_on_c, 0, 84, 0
1, 134240, Note_on_c, 0, 75, 47
1, 134280, Tempo, 672495
1, 134320, Note_on_c, 0, 75, 0
1, 134320, Note_on_c, 0, 84, 42
1, 134398, Note_on_c, 0, 63, 0
1, 134400, Tempo, 668598
1, 134400, Note_on_c, 0, 84, 0
1, 134400, Note_on_c, 0, 48, 0
1, 134400, Note_on_c, 0, 63, 50
1, 134400, Note_on_c, 0, 48, 48
1, 134400, Note_on_c, 0, 60, 57
1, 134414, Control_c, 0, 64, 0
1, 134457, Control_c, 0, 64, 127
1, 134480, Note_on_c, 0, 63, 0
1, 134480, Note_on_c, 0, 81, 42
1, 134560, Note_on_c, 0, 81, 0
1, 134560, Note_on_c, 0, 69, 45
1, 134640, Note_on_c, 0, 69, 0
1, 134640, Note_on_c, 0, 81, 42
1, 134720, Note_on_c, 0, 81, 0
1, 134720, Note_on_c, 0, 72, 45
1, 134800, Note_on_c, 0, 72, 0
1, 134800, Note_on_c, 0, 81, 42
1, 134880, Tempo, 664673
1, 134880, Note_on_c, 0, 81, 0
1, 134880, Note_on_c, 0, 60, 0
1, 134880, Note_on_c, 0, 48, 0
1, 134880, Note_on_c, 0, 64, 50
1, 134880, Note_on_c, 0, 49, 48
1, 134880, Note_on_c, 0, 58, 57
1, 134891, Control_c, 0, 64, 0
1, 134920, Control_c, 0, 64, 127
1, 134960, Note_on_c, 0, 64, 0
1, 134960, Note_on_c, 0, 79, 42
1, 135000, Tempo, 668598
1, 135040, Note_on_c, 0, 79, 0
1, 135040, Note_on_c, 0, 70, 45
1, 135080, Tempo, 672495
1, 135120, Tempo, 676437
1, 135120, Note_on_c, 0, 70, 0
1, 135120, Note_on_c, 0, 79, 43
1, 135160, Tempo, 696945
1, 135200, Tempo, 723240
1, 135200, Note_on_c, 0, 79, 0
1, 135200, Note_on_c, 0, 76, 45
1, 135240, Tempo, 751597
1, 135280, Tempo, 782269
1, 135280, Note_on_c, 0, 76, 0
1, 135280, Note_on_c, 0, 79, 41
1, 135320, Tempo, 777001
1, 135360, Tempo, 684463
1, 135360, Note_on_c, 0, 79, 0
1, 135360, Note_on_c, 0, 58, 0
1, 135360, Note_on_c, 0, 49, 0
1, 135360, Note_on_c, 0, 67, 58
1, 135360, Note_on_c, 0, 50, 48
1, 135360, Note_on_c, 0, 58, 48
1, 135360, Note_on_c, 0, 62, 57
1, 135377, Control_c, 0, 64, 0
1, 135416, Control_c, 0, 64, 127
1, 135440, Note_on_c, 0, 67, 0
1, 135440, Note_on_c, 0, 82, 46
1, 135520, Note_on_c, 0, 82, 0
1, 135520, Note_on_c, 0, 70, 50
1, 135600, Note_on_c, 0, 70, 0
1, 135600, Note_on_c, 0, 82, 43
1, 135680, Note_on_c, 0, 82, 0
1, 135680, Note_on_c, 0, 74, 45
1, 135760, Note_on_c, 0, 74, 0
1, 135760, Note_on_c, 0, 82, 41
1, 135840, Tempo, 696945
1, 135840, Note_on_c, 0, 82, 0
1, 135840, Note_on_c, 0, 79, 50
1, 135920, Note_on_c, 0, 79, 0
1, 135920, Note_on_c, 0, 82, 42
1, 135960, Tempo, 692761
1, 136000, Note_on_c, 0, 82, 0
1, 136000, Note_on_c, 0, 74, 45
1, 136080, Tempo, 688547
1, 136080, Note_on_c, 0, 74, 0
1, 136080, Note_on_c, 0, 82, 42
1, 136160, Tempo, 684463
1, 136160, Note_on_c, 0, 82, 0
1, 136160, Note_on_c, 0, 70, 45
1, 136240, Note_on_c, 0, 70, 0
1, 136240, Note_on_c, 0, 82, 42
1, 136280, Tempo, 680426
1, 136320, Note_on_c, 0, 82, 0
1, 136320, Note_on_c, 0, 50, 0
1, 136320, Note_on_c, 0, 58, 0
1, 136320, Note_on_c, 0, 66, 50
1, 136320, Note_on_c, 0, 50, 48
1, 136320, Note_on_c, 0, 57, 48
1, 136334, Control_c, 0, 64, 0
1, 136360, Tempo, 676437
1, 136391, Control_c, 0, 64, 127
1, 136400, Note_on_c, 0, 66, 0
1, 136400, Note_on_c, 0, 81, 42
1, 136480, Note_on_c, 0, 81, 0
1, 136480, Note_on_c, 0, 69, 45
1, 136520, Tempo, 680426
1, 136560, Note_on_c, 0, 69, 0
1, 136560, Note_on_c, 0, 81, 45
1, 136640, Note_on_c, 0, 81, 0
1, 136640, Note_on_c, 0, 74, 45
1, 136680, Tempo, 684463
1, 136720, Note_on_c, 0, 74, 0
1, 136720, Note_on_c, 0, 81, 42
1, 136760, Tempo, 684463
1, 136800, Note_on_c, 0, 81, 0
1, 136800, Note_on_c, 0, 57, 0
1, 136800, Note_on_c, 0, 50, 0
1, 136800, Note_on_c, 0, 62, 0
1, 136800, Note_on_c, 0, 66, 50
1, 136800, Note_on_c, 0, 60, 45
1, 136800, Note_on_c, 0, 63, 54
1, 136811, Control_c, 0, 64, 0
1, 136851, Control_c, 0, 64, 127
1, 136880, Note_on_c, 0, 66, 0
1, 136880, Note_on_c, 0, 81, 43
1, 136920, Tempo, 680426
1, 136960, Note_on_c, 0, 81, 0
1, 136960, Note_on_c, 0, 69, 45
1, 137040, Tempo, 676437
1, 137040, Note_on_c, 0, 69, 0
1, 137040, Note_on_c, 0, 81, 42
1, 137120, Note_on_c, 0, 81, 0
1, 137120, Note_on_c, 0, 75, 45
1, 137160, Tempo, 672495
1, 137200, Note_on_c, 0, 75, 0
1, 137200, Note_on_c, 0, 81, 42
1, 137280, Tempo, 668598
1, 137280, Note_on_c, 0, 81, 0
1, 137280, Note_on_c, 0, 63, 0
1, 137280, Note_on_c, 0, 60, 0
1, 137280, Note_on_c, 0, 67, 50
1, 137280, Note_on_c, 0, 58, 48
1, 137280, Note_on_c, 0, 62, 57
1, 137294, Control_c, 0, 64, 0
1, 137337, Control_c, 0, 64, 127
1, 137360, Note_on_c, 0, 67, 0
1, 137360, Note_on_c, 0, 79, 42
1, 137440, Note_on_c, 0, 79, 0
1, 137440, Note_on_c, 0, 70, 45
1, 137520, Note_on_c, 0, 70, 0
1, 137520, Note_on_c, 0, 79, 42
1, 137600, Note_on_c, 0, 79, 0
1, 137600, Note_on_c, 0, 74, 45
1, 137680, Note_on_c, 0, 74, 0
1, 137680, Note_on_c, 0, 79, 42
1, 137760, Tempo, 664673
1, 137760, Note_on_c, 0, 79, 0
1, 137760, Note_on_c, 0, 62, 0
1, 137760, Note_on_c, 0, 58, 0
1, 137760, Note_on_c, 0, 66, 50
1, 137760, Note_on_c, 0, 57, 40
1, 137760, Note_on_c, 0, 60, 40
1, 137760, Note_on_c, 0, 62, 57
1, 137771, Control_c, 0, 64, 0
1, 137820, Control_c, 0, 64, 127
1, 137840, Note_on_c, 0, 66, 0
1, 137840, Note_on_c, 0, 78, 42
1, 137880, Tempo, 668598
1, 137920, Note_on_c, 0, 78, 0
1, 137920, Note_on_c, 0, 69, 45
1, 137960, Tempo, 672495
1, 138000, Note_on_c, 0, 69, 0
1, 138000, Note_on_c, 0, 78, 43
1, 138040, Tempo, 676437
1, 138080, Note_on_c, 0, 78, 0
1, 138080, Note_on_c, 0, 74, 45
1, 138120, Tempo, 680426
1, 138160, Note_on_c, 0, 74, 0
1, 138160, Note_on_c, 0, 78, 41
1, 138200, Tempo, 684463
1, 138240, Tempo, 684463
1, 138240, Note_on_c, 0, 78, 0
1, 138240, Note_on_c, 0, 62, 0
1, 138240, Note_on_c, 0, 60, 0
1, 138240, Note_on_c, 0, 57, 0
1, 138240, Note_on_c, 0, 65, 55
1, 138240, Note_on_c, 0, 56, 48
1, 138240, Note_on_c, 0, 59, 48
1, 138240, Note_on_c, 0, 62, 57
1, 138264, Control_c, 0, 64, 0
1, 138296, Control_c, 0, 64, 127
1, 138320, Note_on_c, 0, 77, 46
1, 138400, Note_on_c, 0, 77, 0
1, 138400, Note_on_c, 0, 68, 50
1, 138480, Note_on_c, 0, 68, 0
1, 138480, Note_on_c, 0, 77, 43
1, 138560, Note_on_c, 0, 77, 0
1, 138560, Note_on_c, 0, 71, 45
1, 138640, Note_on_c, 0, 71, 0
1, 138640, Note_on_c, 0, 77, 41
1, 138720, Tempo, 696945
1, 138720, Note_on_c, 0, 77, 0
1, 138720, Note_on_c, 0, 74, 50
1, 138800, Note_on_c, 0, 74, 0
1, 138800, Note_on_c, 0, 77, 42
1, 138840, Tempo, 692761
1, 138880, Note_on_c, 0, 77, 0
1, 138880, Note_on_c, 0, 71, 45
1, 138960, Tempo, 688547
1, 138960, Note_on_c, 0, 71, 0
1, 138960, Note_on_c, 0, 77, 42
1, 139040, Tempo, 684463
1, 139040, Note_on_c, 0, 77, 0
1, 139040, Note_on_c, 0, 68, 45
1, 139120, Note_on_c, 0, 68, 0
1, 139120, Note_on_c, 0, 77, 42
1, 139160, Tempo, 680426
1, 139200, Note_on_c, 0, 77, 0
1, 139200, Note_on_c, 0, 59, 0
1, 139200, Note_on_c, 0, 65, 0
1, 139200, Note_on_c, 0, 56, 0
1, 139200, Note_on_c, 0, 62, 0
1, 139200, Note_on_c, 0, 64, 50
1, 139200, Note_on_c, 0, 55, 48
1, 139214, Control_c, 0, 64, 0
1, 139240, Tempo, 676437
1, 139271, Control_c, 0, 64, 127
1, 139280, Note_on_c, 0, 76, 42
1, 139360, Note_on_c, 0, 76, 0
1, 139360, Note_on_c, 0, 67, 45
1, 139400, Tempo, 680426
1, 139440, Tempo, 657102
1, 139440, Note_on_c, 0, 67, 0
1, 139440, Note_on_c, 0, 76, 45
1, 139520, Note_on_c, 0, 76, 0
1, 139520, Note_on_c, 0, 72, 45
1, 139600, Note_on_c, 0, 72, 0
1, 139600, Note_on_c, 0, 76, 42
1, 139640, Tempo, 684463
1, 139680, Tempo, 624935
1, 139680, Note_on_c, 0, 76, 0
1, 139680, Note_on_c, 0, 55, 0
1, 139680, Note_on_c, 0, 64, 0
1, 139680, Note_on_c, 0, 63, 60
1, 139680, Note_on_c, 0, 67, 58
1, 139691, Control_c, 0, 64, 0
1, 139731, Control_c, 0, 64, 127
1, 139760, Note_on_c, 0, 75, 43
1, 139840, Note_on_c, 0, 75, 0
1, 139840, Note_on_c, 0, 67, 45
1, 139920, Note_on_c, 0, 67, 0
1, 139920, Note_on_c, 0, 75, 42
1, 140000, Note_on_c, 0, 75, 0
1, 140000, Note_on_c, 0, 72, 45
1, 140040, Tempo, 672495
1, 140080, Note_on_c, 0, 72, 0
1, 140080, Note_on_c, 0, 75, 42
1, 140160, Tempo, 653381
1, 140160, Note_on_c, 0, 75, 0
1, 140160, Note_on_c, 0, 67, 0
1, 140160, Note_on_c, 0, 63, 0
1, 140160, Note_on_c, 0, 62, 56
1, 140160, Note_on_c, 0, 65, 54
1, 140174, Control_c, 0, 64, 0
1, 140217, Control_c, 0, 64, 127
1, 140240, Note_on_c, 0, 74, 42
1, 140320, Note_on_c, 0, 74, 0
1, 140320, Note_on_c, 0, 67, 45
1, 140400, Note_on_c, 0, 67, 0
1, 140400, Note_on_c, 0, 74, 42
1, 140480, Note_on_c, 0, 74, 0
1, 140480, Note_on_c, 0, 71, 45
1, 140560, Note_on_c, 0, 71, 0
1, 140560, Note_on_c, 0, 74, 42
1, 140640, Tempo, 664673
1, 140640, Note_on_c, 0, 74, 0
1, 140640, Note_on_c, 0, 65, 0
1, 140640, Note_on_c, 0, 62, 0
1, 140640, Note_on_c, 0, 63, 58
1, 140640, Note_on_c, 0, 55, 48
1, 140640, Note_on_c, 0, 60, 54
1, 140651, Control_c, 0, 64, 0
1, 140700, Control_c, 0, 64, 127
1, 140720, Note_on_c, 0, 75, 42
1, 140760, Tempo, 668598
1, 140800, Note_on_c, 0, 75, 0
1, 140800, Note_on_c, 0, 67, 45
1, 140840, Tempo, 672495
1, 140880, Note_on_c, 0, 67, 0
1, 140880, Note_on_c, 0, 75, 43
1, 140920, Tempo, 676437
1, 140960, Note_on_c, 0, 75, 0
1, 140960, Note_on_c, 0, 72, 45
1, 141000, Tempo, 680426
1, 141040, Note_on_c, 0, 72, 0
1, 141040, Note_on_c, 0, 75, 41
1, 141080, Tempo, 684463
1, 141120, Tempo, 684463
1, 141120, Note_on_c, 0, 75, 0
1, 141120, Note_on_c, 0, 63, 0
1, 141120, Note_on_c, 0, 55, 0
1, 141120, Note_on_c, 0, 60, 0
1, 141120, Note_on_c, 0, 63, 55
1, 141120, Note_on_c, 0, 54, 48
1, 141120, Note_on_c, 0, 60, 57
1, 141143, Control_c, 0, 64, 0
1, 141176, Control_c, 0, 64, 127
1, 141200, Note_on_c, 0, 75, 46
1, 141280, Note_on_c, 0, 75, 0
1, 141280, Note_on_c, 0, 67, 50
1, 141360, Note_on_c, 0, 67, 0
1, 141360, Note_on_c, 0, 75, 43
1, 141440, Note_on_c, 0, 75, 0
1, 141440, Note_on_c, 0, 68, 45
1, 141520, Note_on_c, 0, 68, 0
1, 141520, Note_on_c, 0, 75, 41
1, 141600, Tempo, 696945
1, 141600, Note_on_c, 0, 75, 0
1, 141600, Note_on_c, 0, 72, 50
1, 141680, Note_on_c, 0, 72, 0
1, 141680, Note_on_c, 0, 75, 42
1, 141720, Tempo, 692761
1, 141760, Note_on_c, 0, 75, 0
1, 141760, Note_on_c, 0, 67, 45
1, 141840, Tempo, 688547
1, 141840, Note_on_c, 0, 67, 0
1, 141840, Note_on_c, 0, 75, 42
1, 141920, Tempo, 684463
1, 141920, Note_on_c, 0, 75, 0
1, 141920, Note_on_c, 0, 68, 45
1, 142000, Note_on_c, 0, 68, 0
1, 142000, Note_on_c, 0, 75, 42
1, 142040, Tempo, 680426
1, 142080, Note_on_c, 0, 75, 0
1, 142080, Note_on_c, 0, 63, 0
1, 142080, Note_on_c, 0, 54, 0
1, 142080, Note_on_c, 0, 63, 50
1, 142080, Note_on_c, 0, 53, 48
1, 142094, Control_c, 0, 64, 0
1, 142120, Tempo, 676437
1, 142151, Control_c, 0, 64, 127
1, 142160, Note_on_c, 0, 75, 42
1, 142240, Note_on_c, 0, 75, 0
1, 142240, Note_on_c, 0, 68, 45
1, 142320, Note_on_c, 0, 68, 0
1, 142320, Note_on_c, 0, 75, 45
1, 142400, Note_on_c, 0, 75, 0
1, 142400, Note_on_c, 0, 69, 45
1, 142480, Note_on_c, 0, 69, 0
1, 142480, Note_on_c, 0, 75, 42
1, 142520, Tempo, 649702
1, 142560, Note_on_c, 0, 75, 0
1, 142560, Note_on_c, 0, 60, 0
1, 142560, Note_on_c, 0, 63, 0
1, 142560, Note_on_c, 0, 53, 0
1, 142560, Note_on_c, 0, 63, 56
1, 142560, Note_on_c, 0, 72, 42
1, 142560, Note_on_c, 0, 54, 48
1, 142560, Note_on_c, 0, 60, 54
1, 142571, Control_c, 0, 64, 0
1, 142611, Control_c, 0, 64, 127
1, 142640, Tempo, 653381
1, 142640, Note_on_c, 0, 72, 0
1, 142640, Note_on_c, 0, 75, 43
1, 142720, Note_on_c, 0, 75, 0
1, 142720, Note_on_c, 0, 68, 45
1, 142760, Tempo, 657102
1, 142800, Note_on_c, 0, 68, 0
1, 142800, Note_on_c, 0, 75, 42
1, 142880, Tempo, 660866
1, 142880, Note_on_c, 0, 75, 0
1, 142880, Note_on_c, 0, 69, 45
1, 142960, Note_on_c, 0, 69, 0
1, 142960, Note_on_c, 0, 75, 42
1, 143000, Tempo, 664673
1, 143040, Tempo, 668598
1, 143040, Note_on_c, 0, 75, 0
1, 143040, Note_on_c, 0, 60, 0
1, 143040, Note_on_c, 0, 54, 0
1, 143040, Note_on_c, 0, 63, 0
1, 143040, Note_on_c, 0, 62, 53
1, 143040, Note_on_c, 0, 55, 45
1, 143040, Note_on_c, 0, 58, 51
1, 143054, Control_c, 0, 64, 0
1, 143097, Control_c, 0, 64, 127
1, 143120, Note_on_c, 0, 74, 42
1, 143200, Note_on_c, 0, 74, 0
1, 143200, Note_on_c, 0, 69, 45
1, 143280, Note_on_c, 0, 69, 0
1, 143280, Note_on_c, 0, 74, 42
1, 143360, Note_on_c, 0, 74, 0
1, 143360, Note_on_c, 0, 70, 45
1, 143440, Note_on_c, 0, 70, 0
1, 143440, Note_on_c, 0, 74, 42
1, 143520, Tempo, 664673
1, 143520, Note_on_c, 0, 74, 0
1, 143520, Note_on_c, 0, 62, 0
1, 143520, Note_on_c, 0, 55, 0
1, 143520, Note_on_c, 0, 58, 0
1, 143520, Note_on_c, 0, 62, 54
1, 143520, Note_on_c, 0, 71, 42
1, 143520, Note_on_c, 0, 53, 45
1, 143520, Note_on_c, 0, 56, 51
1, 143531, Control_c, 0, 64, 0
1, 143580, Control_c, 0, 64, 127
1, 143600, Note_on_c, 0, 71, 0
1, 143600, Note_on_c, 0, 74, 42
1, 143640, Tempo, 668598
1, 143680, Note_on_c, 0, 74, 0
1, 143680, Note_on_c, 0, 67, 45
1, 143720, Tempo, 672495
1, 143760, Note_on_c, 0, 67, 0
1, 143760, Note_on_c, 0, 74, 43
1, 143800, Tempo, 676437
1, 143840, Note_on_c, 0, 74, 0
1, 143840, Note_on_c, 0, 68, 45
1, 143880, Tempo, 680426
1, 143920, Note_on_c, 0, 68, 0
1, 143920, Note_on_c, 0, 74, 41
1, 143960, Tempo, 684463
1, 144000, Tempo, 668598
1, 144000, Note_on_c, 0, 74, 0
1, 144000, Note_on_c, 0, 56, 0
1, 144000, Note_on_c, 0, 53, 0
1, 144000, Note_on_c, 0, 62, 0
1, 144000, Note_on_c, 0, 62, 53
1, 144000, Note_on_c, 0, 52, 45
1, 144000, Note_on_c, 0, 55, 51
1, 144014, Control_c, 0, 64, 0
1, 144057, Control_c, 0, 64, 127
1, 144080, Note_on_c, 0, 74, 42
1, 144160, Note_on_c, 0, 74, 0
1, 144160, Note_on_c, 0, 67, 45
1, 144240, Note_on_c, 0, 67, 0
1, 144240, Note_on_c, 0, 74, 42
1, 144320, Note_on_c, 0, 74, 0
1, 144320, Note_on_c, 0, 69, 45
1, 144400, Note_on_c, 0, 69, 0
1, 144400, Note_on_c, 0, 74, 42
1, 144480, Tempo, 684463
1, 144480, Note_on_c, 0, 74, 0
1, 144480, Note_on_c, 0, 62, 0
1, 144480, Note_on_c, 0, 52, 0
1, 144480, Note_on_c, 0, 55, 0
1, 144480, Note_on_c, 0, 61, 50
1, 144480, Note_on_c, 0, 70, 42
1, 144480, Note_on_c, 0, 51, 40
1, 144480, Note_on_c, 0, 55, 45
1, 144491, Control_c, 0, 64, 0
1, 144540, Control_c, 0, 64, 127
1, 144560, Note_on_c, 0, 70, 0
1, 144560, Note_on_c, 0, 73, 42
1, 144640, Note_on_c, 0, 73, 0
1, 144640, Note_on_c, 0, 66, 45
1, 144680, Tempo, 680426
1, 144720, Tempo, 684463
1, 144720, Note_on_c, 0, 66, 0
1, 144720, Note_on_c, 0, 73, 43
1, 144760, Tempo, 692761
1, 144800, Tempo, 696945
1, 144800, Note_on_c, 0, 73, 0
1, 144800, Note_on_c, 0, 67, 45
1, 144840, Tempo, 705467
1, 144880, Tempo, 714286
1, 144880, Note_on_c, 0, 67, 0
1, 144880, Note_on_c, 0, 73, 41
1, 144920, Tempo, 684463
1, 144960, Tempo, 680426
1, 144960, Note_on_c, 0, 73, 0
1, 144960, Note_on_c, 0, 55, 0
1, 144960, Note_on_c, 0, 51, 0
1, 144960, Note_on_c, 0, 61, 0
1, 144960, Note_on_c, 0, 62, 50
1, 144960, Note_on_c, 0, 50, 43
1, 144960, Note_on_c, 0, 58, 48
1, 144974, Control_c, 0, 64, 0
1, 145017, Control_c, 0, 64, 127
1, 145040, Note_on_c, 0, 74, 39
1, 145120, Note_on_c, 0, 74, 0
1, 145120, Note_on_c, 0, 66, 42
1, 145200, Note_on_c, 0, 66, 0
1, 145200, Note_on_c, 0, 74, 39
1, 145280, Note_on_c, 0, 74, 0
1, 145280, Note_on_c, 0, 67, 41
1, 145360, Note_on_c, 0, 67, 0
1, 145360, Note_on_c, 0, 74, 38
1, 145438, Note_on_c, 0, 58, 0
1, 145440, Tempo, 664673
1, 145440, Note_on_c, 0, 74, 0
1, 145440, Note_on_c, 0, 62, 0
1, 145440, Note_on_c, 0, 58, 50
1, 145440, Note_on_c, 0, 55, 46
1, 145451, Control_c, 0, 64, 0
1, 145500, Control_c, 0, 64, 127
1, 145520, Note_on_c, 0, 70, 37
1, 145560, Tempo, 668598
1, 145600, Note_on_c, 0, 70, 0
1, 145600, Note_on_c, 0, 61, 40
1, 145640, Tempo, 676437
1, 145680, Tempo, 684463
1, 145680, Note_on_c, 0, 61, 0
1, 145680, Note_on_c, 0, 70, 38
1, 145720, Tempo, 692761
1, 145760, Tempo, 701180
1, 145760, Note_on_c, 0, 70, 0
1, 145760, Note_on_c, 0, 62, 39
1, 145800, Tempo, 709807
1, 145840, Tempo, 718735
1, 145840, Note_on_c, 0, 62, 0
1, 145840, Note_on_c, 0, 70, 36
1, 145880, Tempo, 732422
1, 145920, Tempo, 688547
1, 145920, Note_on_c, 0, 70, 0
1, 145920, Note_on_c, 0, 50, 0
1, 145920, Note_on_c, 0, 58, 0
1, 145920, Note_on_c, 0, 55, 0
1, 145920, Note_on_c, 0, 60, 45
1, 145920, Note_on_c, 0, 50, 39
1, 145920, Note_on_c, 0, 57, 45
1, 145934, Control_c, 0, 64, 0
1, 145977, Control_c, 0, 64, 127
1, 146000, Note_on_c, 0, 72, 36
1, 146080, Note_on_c, 0, 72, 0
1, 146080, Note_on_c, 0, 63, 38
1, 146160, Note_on_c, 0, 63, 0
1, 146160, Note_on_c, 0, 72, 36
1, 146240, Note_on_c, 0, 72, 0
1, 146240, Note_on_c, 0, 62, 37
1, 146320, Note_on_c, 0, 62, 0
1, 146320, Note_on_c, 0, 72, 35
1, 146360, Tempo, 696945
1, 146398, Note_on_c, 0, 57, 0
1, 146400, Note_on_c, 0, 72, 0
1, 146400, Note_on_c, 0, 60, 0
1, 146400, Note_on_c, 0, 57, 45
1, 146400, Note_on_c, 0, 54, 42
1, 146411, Control_c, 0, 64, 0
1, 146440, Tempo, 701180
1, 146460, Control_c, 0, 64, 127
1, 146480, Note_on_c, 0, 69, 35
1, 146520, Tempo, 705467
1, 146560, Note_on_c, 0, 69, 0
1, 146560, Note_on_c, 0, 63, 36
1, 146640, Tempo, 705467
1, 146640, Note_on_c, 0, 63, 0
1, 146640, Note_on_c, 0, 69, 35
1, 146680, Tempo, 718735
1, 146720, Tempo, 732422
1, 146720, Note_on_c, 0, 69, 0
1, 146720, Note_on_c, 0, 62, 36
1, 146760, Tempo, 746733
1, 146800, Tempo, 761518
1, 146800, Note_on_c, 0, 62, 0
1, 146800, Note_on_c, 0, 69, 33
1, 146840, Tempo, 777001
1, 146880, Tempo, 688547
1, 146880, Note_on_c, 0, 69, 0
1, 146880, Note_on_c, 0, 50, 0
1, 146880, Note_on_c, 0, 57, 0
1, 146880, Note_on_c, 0, 54, 0
1, 146880, Note_on_c, 0, 58, 45
1, 146880, Note_on_c, 0, 31, 36
1, 146880, Note_on_c, 0, 43, 44
1, 146894, Control_c, 0, 64, 0
1, 146937, Control_c, 0, 64, 127
1, 146960, Note_on_c, 0, 67, 30
1, 146960, Note_on_c, 0, 70, 36
1, 147040, Note_on_c, 0, 70, 0
1, 147040, Note_on_c, 0, 67, 0
1, 147040, Note_on_c, 0, 61, 38
1, 147120, Note_on_c, 0, 61, 0
1, 147120, Note_on_c, 0, 67, 29
1, 147120, Note_on_c, 0, 70, 36
1, 147200, Note_on_c, 0, 70, 0
1, 147200, Note_on_c, 0, 67, 0
1, 147200, Note_on_c, 0, 62, 37
1, 147280, Note_on_c, 0, 62, 0
1, 147280, Note_on_c, 0, 67, 29
1, 147280, Note_on_c, 0, 70, 36
1, 147320, Tempo, 696945
1, 147358, Note_on_c, 0, 58, 0
1, 147360, Tempo, 648649
1, 147360, Note_on_c, 0, 67, 0
1, 147360, Note_on_c, 0, 31, 0
1, 147360, Note_on_c, 0, 43, 0
1, 147360, Note_on_c, 0, 70, 0
1, 147360, Note_on_c, 0, 62, 47
1, 147360, Note_on_c, 0, 50, 34
1, 147360, Note_on_c, 0, 55, 34
1, 147360, Note_on_c, 0, 58, 40
1, 147371, Control_c, 0, 64, 0
1, 147420, Control_c, 0, 64, 127
1, 147440, Note_on_c, 0, 70, 30
1, 147440, Note_on_c, 0, 74, 36
1, 147520, Note_on_c, 0, 74, 0
1, 147520, Note_on_c, 0, 70, 0
1, 147520, Note_on_c, 0, 66, 43
1, 147600, Note_on_c, 0, 66, 0
1, 147600, Note_on_c, 0, 70, 28
1, 147600, Note_on_c, 0, 74, 36
1, 147680, Note_on_c, 0, 74, 0
1, 147680, Note_on_c, 0, 70, 0
1, 147680, Note_on_c, 0, 67, 43
1, 147760, Note_on_c, 0, 67, 0
1, 147760, Note_on_c, 0, 70, 31
1, 147760, Note_on_c, 0, 74, 36
1, 147838, Note_on_c, 0, 58, 0
1, 147840, Tempo, 668598
1, 147840, Note_on_c, 0, 50, 0
1, 147840, Note_on_c, 0, 55, 0
1, 147840, Note_on_c, 0, 62, 0
1, 147840, Note_on_c, 0, 74, 0
1, 147840, Note_on_c, 0, 70, 0
1, 147840, Note_on_c, 0, 58, 50
1, 147840, Note_on_c, 0, 31, 40
1, 147840, Note_on_c, 0, 43, 47
1, 147854, Control_c, 0, 64, 0
1, 147897, Control_c, 0, 64, 127
1, 147920, Note_on_c, 0, 67, 34
1, 147920, Note_on_c, 0, 70, 39
1, 148000, Note_on_c, 0, 70, 0
1, 148000, Note_on_c, 0, 67, 0
1, 148000, Note_on_c, 0, 61, 42
1, 148080, Note_on_c, 0, 61, 0
1, 148080, Note_on_c, 0, 67, 33
1, 148080, Note_on_c, 0, 70, 40
1, 148160, Note_on_c, 0, 70, 0
1, 148160, Note_on_c, 0, 67, 0
1, 148160, Note_on_c, 0, 62, 42
1, 148240, Note_on_c, 0, 62, 0
1, 148240, Note_on_c, 0, 67, 33
1, 148240, Note_on_c, 0, 70, 39
1, 148318, Note_on_c, 0, 58, 0
1, 148320, Tempo, 655738
1, 148320, Note_on_c, 0, 67, 0
1, 148320, Note_on_c, 0, 31, 0
1, 148320, Note_on_c, 0, 43, 0
1, 148320, Note_on_c, 0, 70, 0
1, 148320, Note_on_c, 0, 62, 54
1, 148320, Note_on_c, 0, 50, 38
1, 148320, Note_on_c, 0, 55, 38
1, 148320, Note_on_c, 0, 58, 45
1, 148331, Control_c, 0, 64, 0
1, 148380, Control_c, 0, 64, 127
1, 148400, Note_on_c, 0, 70, 34
1, 148400, Note_on_c, 0, 74, 41
1, 148480, Note_on_c, 0, 74, 0
1, 148480, Note_on_c, 0, 70, 0
1, 148480, Note_on_c, 0, 66, 47
1, 148560, Tempo, 701180
1, 148560, Note_on_c, 0, 66, 0
1, 148560, Note_on_c, 0, 70, 32
1, 148560, Note_on_c, 0, 74, 41
1, 148640, Note_on_c, 0, 74, 0
1, 148640, Note_on_c, 0, 70, 0
1, 148640, Note_on_c, 0, 67, 49
1, 148720, Note_on_c, 0, 67, 0
1, 148720, Note_on_c, 0, 70, 34
1, 148720, Note_on_c, 0, 74, 40
1, 148800, Tempo, 645995
1, 148800, Note_on_c, 0, 74, 0
1, 148800, Note_on_c, 0, 50, 0
1, 148800, Note_on_c, 0, 55, 0
1, 148800, Note_on_c, 0, 62, 0
1, 148800, Note_on_c, 0, 70, 0
1, 148800, Note_on_c, 0, 58, 0
1, 148800, Note_on_c, 0, 62, 55
1, 148800, Note_on_c, 0, 31, 44
1, 148800, Note_on_c, 0, 43, 53
1, 148814, Control_c, 0, 64, 0
1, 148857, Control_c, 0, 64, 127
1, 148880, Note_on_c, 0, 71, 36
1, 148880, Note_on_c, 0, 74, 43
1, 148960, Note_on_c, 0, 74, 0
1, 148960, Note_on_c, 0, 71, 0
1, 148960, Note_on_c, 0, 66, 47
1, 149040, Note_on_c, 0, 66, 0
1, 149040, Note_on_c, 0, 71, 36
1, 149040, Note_on_c, 0, 74, 45
1, 149120, Note_on_c, 0, 74, 0
1, 149120, Note_on_c, 0, 71, 0
1, 149120, Note_on_c, 0, 67, 46
1, 149200, Note_on_c, 0, 67, 0
1, 149200, Note_on_c, 0, 71, 37
1, 149200, Note_on_c, 0, 74, 44
1, 149278, Note_on_c, 0, 62, 0
1, 149280, Note_on_c, 0, 71, 0
1, 149280, Note_on_c, 0, 31, 0
1, 149280, Note_on_c, 0, 43, 0
1, 149280, Note_on_c, 0, 74, 0
1, 149280, Note_on_c, 0, 65, 61
1, 149280, Note_on_c, 0, 55, 42
1, 149280, Note_on_c, 0, 53, 42
1, 149280, Note_on_c, 0, 59, 42
1, 149280, Note_on_c, 0, 62, 50
1, 149291, Control_c, 0, 64, 0
1, 149340, Control_c, 0, 64, 127
1, 149360, Note_on_c, 0, 74, 37
1, 149360, Note_on_c, 0, 77, 45
1, 149440, Note_on_c, 0, 77, 0
1, 149440, Note_on_c, 0, 74, 0
1, 149440, Note_on_c, 0, 68, 50
1, 149520, Tempo, 746733
1, 149520, Note_on_c, 0, 68, 0
1, 149520, Note_on_c, 0, 74, 36
1, 149520, Note_on_c, 0, 77, 45
1, 149600, Note_on_c, 0, 77, 0
1, 149600, Note_on_c, 0, 74, 0
1, 149600, Note_on_c, 0, 67, 51
1, 149680, Note_on_c, 0, 67, 0
1, 149680, Note_on_c, 0, 74, 37
1, 149680, Note_on_c, 0, 77, 45
1, 149760, Tempo, 668598
1, 149760, Note_on_c, 0, 77, 0
1, 149760, Note_on_c, 0, 62, 0
1, 149760, Note_on_c, 0, 55, 0
1, 149760, Note_on_c, 0, 53, 0
1, 149760, Note_on_c, 0, 65, 0
1, 149760, Note_on_c, 0, 74, 0
1, 149760, Note_on_c, 0, 59, 0
1, 149760, Note_on_c, 0, 67, 62
1, 149760, Note_on_c, 0, 31, 50
1, 149760, Note_on_c, 0, 43, 60
1, 149774, Control_c, 0, 64, 0
1, 149817, Control_c, 0, 64, 127
1, 149840, Note_on_c, 0, 75, 41
1, 149840, Note_on_c, 0, 79, 49
1, 149920, Note_on_c, 0, 79, 0
1, 149920, Note_on_c, 0, 75, 0
1, 149920, Note_on_c, 0, 71, 52
1, 150000, Tempo, 641711
1, 150000, Note_on_c, 0, 71, 0
1, 150000, Note_on_c, 0, 75, 40
1, 150000, Note_on_c, 0, 79, 49
1, 150080, Note_on_c, 0, 79, 0
1, 150080, Note_on_c, 0, 75, 0
1, 150080, Note_on_c, 0, 72, 50
1, 150160, Note_on_c, 0, 72, 0
1, 150160, Note_on_c, 0, 75, 39
1, 150160, Note_on_c, 0, 79, 46
1, 150220, Tempo, 648649
1, 150240, Tempo, 652174
1, 150240, Note_on_c, 0, 79, 0
1, 150240, Note_on_c, 0, 43, 0
1, 150240, Note_on_c, 0, 67, 0
1, 150240, Note_on_c, 0, 31, 0
1, 150240, Note_on_c, 0, 75, 0
1, 150240, Note_on_c, 0, 63, 63
1, 150240, Note_on_c, 0, 51, 45
1, 150240, Note_on_c, 0, 55, 45
1, 150240, Note_on_c, 0, 60, 53
1, 150251, Control_c, 0, 64, 0
1, 150260, Tempo, 655738
1, 150280, Tempo, 659341
1, 150300, Tempo, 662983
1, 150300, Control_c, 0, 64, 127
1, 150320, Tempo, 666667
1, 150320, Note_on_c, 0, 72, 39
1, 150320, Note_on_c, 0, 75, 46
1, 150340, Tempo, 670391
1, 150360, Tempo, 674157
1, 150380, Tempo, 677966
1, 150400, Tempo, 681818
1, 150400, Note_on_c, 0, 75, 0
1, 150400, Note_on_c, 0, 72, 0
1, 150400, Note_on_c, 0, 66, 51
1, 150420, Tempo, 685714
1, 150480, Tempo, 751597
1, 150480, Note_on_c, 0, 66, 0
1, 150480, Note_on_c, 0, 72, 36
1, 150480, Note_on_c, 0, 75, 45
1, 150560, Note_on_c, 0, 75, 0
1, 150560, Note_on_c, 0, 72, 0
1, 150560, Note_on_c, 0, 67, 51
1, 150640, Note_on_c, 0, 67, 0
1, 150640, Note_on_c, 0, 72, 37
1, 150640, Note_on_c, 0, 75, 45
1, 150720, Tempo, 684463
1, 150720, Note_on_c, 0, 75, 0
1, 150720, Note_on_c, 0, 51, 0
1, 150720, Note_on_c, 0, 55, 0
1, 150720, Note_on_c, 0, 63, 0
1, 150720, Note_on_c, 0, 72, 0
1, 150720, Note_on_c, 0, 60, 0
1, 150720, Note_on_c, 0, 62, 58
1, 150720, Note_on_c, 0, 38, 55
1, 150734, Control_c, 0, 64, 0
1, 150777, Control_c, 0, 64, 127
1, 150800, Note_on_c, 0, 70, 37
1, 150800, Note_on_c, 0, 74, 45
1, 150880, Note_on_c, 0, 74, 0
1, 150880, Note_on_c, 0, 70, 0
1, 150880, Note_on_c, 0, 66, 48
1, 150960, Note_on_c, 0, 66, 0
1, 150960, Note_on_c, 0, 70, 36
1, 150960, Note_on_c, 0, 74, 44
1, 151040, Note_on_c, 0, 74, 0
1, 151040, Note_on_c, 0, 70, 0
1, 151040, Note_on_c, 0, 67, 45
1, 151120, Note_on_c, 0, 67, 0
1, 151120, Note_on_c, 0, 70, 36
1, 151120, Note_on_c, 0, 74, 42
1, 151200, Tempo, 696945
1, 151200, Note_on_c, 0, 74, 0
1, 151200, Note_on_c, 0, 62, 0
1, 151200, Note_on_c, 0, 38, 0
1, 151200, Note_on_c, 0, 70, 0
1, 151200, Note_on_c, 0, 58, 56
1, 151200, Note_on_c, 0, 50, 39
1, 151200, Note_on_c, 0, 55, 46
1, 151211, Control_c, 0, 64, 0
1, 151260, Control_c, 0, 64, 127
1, 151280, Note_on_c, 0, 67, 34
1, 151280, Note_on_c, 0, 70, 41
1, 151360, Note_on_c, 0, 70, 0
1, 151360, Note_on_c, 0, 67, 0
1, 151360, Note_on_c, 0, 61, 46
1, 151440, Tempo, 746733
1, 151440, Note_on_c, 0, 61, 0
1, 151440, Note_on_c, 0, 67, 32
1, 151440, Note_on_c, 0, 70, 41
1, 151520, Note_on_c, 0, 70, 0
1, 151520, Note_on_c, 0, 67, 0
1, 151520, Note_on_c, 0, 62, 45
1, 151600, Note_on_c, 0, 62, 0
1, 151600, Note_on_c, 0, 67, 32
1, 151600, Note_on_c, 0, 70, 38
1, 151680, Tempo, 705467
1, 151680, Note_on_c, 0, 70, 0
1, 151680, Note_on_c, 0, 55, 0
1, 151680, Note_on_c, 0, 58, 0
1, 151680, Note_on_c, 0, 50, 0
1, 151680, Note_on_c, 0, 67, 0
1, 151680, Note_on_c, 0, 60, 52
1, 151680, Note_on_c, 0, 50, 36
1, 151680, Note_on_c, 0, 57, 47
1, 151694, Control_c, 0, 64, 0
1, 151737, Control_c, 0, 64, 127
1, 151760, Note_on_c, 0, 69, 34
1, 151760, Note_on_c, 0, 72, 40
1, 151840, Note_on_c, 0, 72, 0
1, 151840, Note_on_c, 0, 69, 0
1, 151840, Note_on_c, 0, 63, 42
1, 151920, Note_on_c, 0, 63, 0
1, 151920, Note_on_c, 0, 69, 32
1, 151920, Note_on_c, 0, 72, 39
1, 152000, Note_on_c, 0, 72, 0
1, 152000, Note_on_c, 0, 69, 0
1, 152000, Note_on_c, 0, 62, 40
1, 152080, Note_on_c, 0, 62, 0
1, 152080, Note_on_c, 0, 69, 30
1, 152080, Note_on_c, 0, 72, 36
1, 152158, Note_on_c, 0, 57, 0
1, 152160, Tempo, 718735
1, 152160, Note_on_c, 0, 69, 0
1, 152160, Note_on_c, 0, 60, 0
1, 152160, Note_on_c, 0, 50, 0
1, 152160, Note_on_c, 0, 72, 0
1, 152160, Note_on_c, 0, 57, 50
1, 152160, Note_on_c, 0, 50, 34
1, 152160, Note_on_c, 0, 54, 41
1, 152171, Control_c, 0, 64, 0
1, 152200, Tempo, 718735
1, 152220, Control_c, 0, 64, 127
1, 152240, Note_on_c, 0, 66, 30
1, 152240, Note_on_c, 0, 69, 36
1, 152280, Tempo, 723240
1, 152320, Tempo, 727802
1, 152320, Note_on_c, 0, 69, 0
1, 152320, Note_on_c, 0, 66, 0
1, 152320, Note_on_c, 0, 63, 42
1, 152400, Tempo, 732422
1, 152400, Note_on_c, 0, 63, 0
1, 152400, Note_on_c, 0, 66, 27
1, 152400, Note_on_c, 0, 69, 36
1, 152440, Tempo, 737101
1, 152480, Tempo, 746733
1, 152480, Note_on_c, 0, 69, 0
1, 152480, Note_on_c, 0, 66, 0
1, 152480, Note_on_c, 0, 62, 41
1, 152520, Tempo, 756525
1, 152560, Tempo, 766675
1, 152560, Note_on_c, 0, 62, 0
1, 152560, Note_on_c, 0, 66, 28
1, 152560, Note_on_c, 0, 69, 34
1, 152600, Tempo, 723240
1, 152640, Tempo, 718735
1, 152640, Note_on_c, 0, 69, 0
1, 152640, Note_on_c, 0, 54, 0
1, 152640, Note_on_c, 0, 57, 0
1, 152640, Note_on_c, 0, 50, 0
1, 152640, Note_on_c, 0, 66, 0
1, 152640, Note_on_c, 0, 58, 45
1, 152640, Note_on_c, 0, 31, 36
1, 152640, Note_on_c, 0, 43, 44
1, 152654, Control_c, 0, 64, 0
1, 152680, Tempo, 714286
1, 152697, Control_c, 0, 64, 127
1, 152720, Tempo, 709807
1, 152720, Note_on_c, 0, 67, 30
1, 152720, Note_on_c, 0, 70, 36
1, 152760, Tempo, 701180
1, 152800, Tempo, 696945
1, 152800, Note_on_c, 0, 70, 0
1, 152800, Note_on_c, 0, 67, 0
1, 152800, Note_on_c, 0, 61, 38
1, 152840, Tempo, 692761
1, 152880, Tempo, 684463
1, 152880, Note_on_c, 0, 61, 0
1, 152880, Note_on_c, 0, 67, 29
1, 152880, Note_on_c, 0, 70, 36
1, 152960, Note_on_c, 0, 70, 0
1, 152960, Note_on_c, 0, 67, 0
1, 152960, Note_on_c, 0, 62, 37
1, 153040, Note_on_c, 0, 62, 0
1, 153040, Note_on_c, 0, 67, 29
1, 153040, Note_on_c, 0, 70, 36
1, 153080, Tempo, 696945
1, 153118, Note_on_c, 0, 58, 0
1, 153120, Tempo, 670391
1, 153120, Note_on_c, 0, 67, 0
1, 153120, Note_on_c, 0, 31, 0
1, 153120, Note_on_c, 0, 43, 0
1, 153120, Note_on_c, 0, 70, 0
1, 153120, Note_on_c, 0, 62, 48
1, 153120, Note_on_c, 0, 50, 34
1, 153120, Note_on_c, 0, 55, 34
1, 153120, Note_on_c, 0, 58, 40
1, 153131, Control_c, 0, 64, 0
1, 153140, Tempo, 666667
1, 153160, Tempo, 662983
1, 153180, Tempo, 659341
1, 153180, Control_c, 0, 64, 127
1, 153200, Tempo, 655738
1, 153200, Note_on_c, 0, 70, 30
1, 153200, Note_on_c, 0, 74, 36
1, 153220, Tempo, 652174
1, 153240, Tempo, 648649
1, 153260, Tempo, 645161
1, 153280, Tempo, 641711
1, 153280, Note_on_c, 0, 74, 0
1, 153280, Note_on_c, 0, 70, 0
1, 153280, Note_on_c, 0, 66, 43
1, 153300, Tempo, 638298
1, 153320, Tempo, 634921
1, 153360, Note_on_c, 0, 66, 0
1, 153360, Note_on_c, 0, 70, 28
1, 153360, Note_on_c, 0, 74, 36
1, 153400, Tempo, 638298
1, 153440, Note_on_c, 0, 74, 0
1, 153440, Note_on_c, 0, 70, 0
1, 153440, Note_on_c, 0, 67, 43
1, 153480, Tempo, 641711
1, 153520, Note_on_c, 0, 67, 0
1, 153520, Note_on_c, 0, 70, 31
1, 153520, Note_on_c, 0, 74, 36
1, 153540, Tempo, 645161
1, 153598, Note_on_c, 0, 58, 0
1, 153600, Tempo, 680426
1, 153600, Note_on_c, 0, 50, 0
1, 153600, Note_on_c, 0, 55, 0
1, 153600, Note_on_c, 0, 62, 0
1, 153600, Note_on_c, 0, 74, 0
1, 153600, Note_on_c, 0, 70, 0
1, 153600, Note_on_c, 0, 58, 50
1, 153600, Note_on_c, 0, 31, 40
1, 153600, Note_on_c, 0, 43, 47
1, 153614, Control_c, 0, 64, 0
1, 153620, Tempo, 674157
1, 153657, Control_c, 0, 64, 127
1, 153680, Note_on_c, 0, 67, 34
1, 153680, Note_on_c, 0, 70, 39
1, 153700, Tempo, 670391
1, 153760, Tempo, 666667
1, 153760, Note_on_c, 0, 70, 0
1, 153760, Note_on_c, 0, 67, 0
1, 153760, Note_on_c, 0, 61, 42
1, 153840, Tempo, 662983
1, 153840, Note_on_c, 0, 61, 0
1, 153840, Note_on_c, 0, 67, 33
1, 153840, Note_on_c, 0, 70, 40
1, 153900, Tempo, 659341
1, 153920, Note_on_c, 0, 70, 0
1, 153920, Note_on_c, 0, 67, 0
1, 153920, Note_on_c, 0, 62, 42
1, 153980, Tempo, 655738
1, 154000, Note_on_c, 0, 62, 0
1, 154000, Note_on_c, 0, 67, 33
1, 154000, Note_on_c, 0, 70, 39
1, 154040, Tempo, 652174
1, 154078, Note_on_c, 0, 58, 0
1, 154080, Note_on_c, 0, 67, 0
1, 154080, Note_on_c, 0, 31, 0
1, 154080, Note_on_c, 0, 43, 0
1, 154080, Note_on_c, 0, 70, 0
1, 154080, Note_on_c, 0, 62, 54
1, 154080, Note_on_c, 0, 50, 38
1, 154080, Note_on_c, 0, 55, 38
1, 154080, Note_on_c, 0, 58, 45
1, 154091, Control_c, 0, 64, 0
1, 154100, Tempo, 648649
1, 154140, Control_c, 0, 64, 127
1, 154160, Note_on_c, 0, 70, 34
1, 154160, Note_on_c, 0, 74, 41
1, 154240, Note_on_c, 0, 74, 0
1, 154240, Note_on_c, 0, 70, 0
1, 154240, Note_on_c, 0, 66, 46
1, 154320, Tempo, 701180
1, 154320, Note_on_c, 0, 66, 0
1, 154320, Note_on_c, 0, 70, 32
1, 154320, Note_on_c, 0, 74, 41
1, 154400, Note_on_c, 0, 74, 0
1, 154400, Note_on_c, 0, 70, 0
1, 154400, Note_on_c, 0, 67, 47
1, 154480, Note_on_c, 0, 67, 0
1, 154480, Note_on_c, 0, 70, 34
1, 154480, Note_on_c, 0, 74, 40
1, 154560, Tempo, 660866
1, 154560, Note_on_c, 0, 74, 0
1, 154560, Note_on_c, 0, 50, 0
1, 154560, Note_on_c, 0, 55, 0
1, 154560, Note_on_c, 0, 62, 0
1, 154560, Note_on_c, 0, 70, 0
1, 154560, Note_on_c, 0, 58, 0
1, 154560, Note_on_c, 0, 62, 55
1, 154560, Note_on_c, 0, 31, 44
1, 154560, Note_on_c, 0, 43, 53
1, 154574, Control_c, 0, 64, 0
1, 154617, Control_c, 0, 64, 127
1, 154640, Note_on_c, 0, 71, 36
1, 154640, Note_on_c, 0, 74, 43
1, 154720, Note_on_c, 0, 74, 0
1, 154720, Note_on_c, 0, 71, 0
1, 154720, Note_on_c, 0, 66, 47
1, 154800, Tempo, 631845
1, 154800, Note_on_c, 0, 66, 0
1, 154800, Note_on_c, 0, 71, 36
1, 154800, Note_on_c, 0, 74, 45
1, 154880, Note_on_c, 0, 74, 0
1, 154880, Note_on_c, 0, 71, 0
1, 154880, Note_on_c, 0, 67, 46
1, 154960, Note_on_c, 0, 67, 0
1, 154960, Note_on_c, 0, 71, 37
1, 154960, Note_on_c, 0, 74, 44
1, 155038, Note_on_c, 0, 62, 0
1, 155040, Note_on_c, 0, 71, 0
1, 155040, Note_on_c, 0, 31, 0
1, 155040, Note_on_c, 0, 43, 0
1, 155040, Note_on_c, 0, 74, 0
1, 155040, Note_on_c, 0, 65, 61
1, 155040, Note_on_c, 0, 55, 42
1, 155040, Note_on_c, 0, 53, 42
1, 155040, Note_on_c, 0, 59, 42
1, 155040, Note_on_c, 0, 62, 50
1, 155051, Control_c, 0, 64, 0
1, 155100, Control_c, 0, 64, 127
1, 155120, Note_on_c, 0, 74, 37
1, 155120, Note_on_c, 0, 77, 45
1, 155200, Note_on_c, 0, 77, 0
1, 155200, Note_on_c, 0, 74, 0
1, 155200, Note_on_c, 0, 68, 50
1, 155280, Tempo, 746733
1, 155280, Note_on_c, 0, 68, 0
1, 155280, Note_on_c, 0, 74, 36
1, 155280, Note_on_c, 0, 77, 45
1, 155360, Note_on_c, 0, 77, 0
1, 155360, Note_on_c, 0, 74, 0
1, 155360, Note_on_c, 0, 67, 52
1, 155440, Note_on_c, 0, 67, 0
1, 155440, Note_on_c, 0, 74, 37
1, 155440, Note_on_c, 0, 77, 45
1, 155520, Tempo, 641711
1, 155520, Note_on_c, 0, 77, 0
1, 155520, Note_on_c, 0, 62, 0
1, 155520, Note_on_c, 0, 55, 0
1, 155520, Note_on_c, 0, 53, 0
1, 155520, Note_on_c, 0, 65, 0
1, 155520, Note_on_c, 0, 74, 0
1, 155520, Note_on_c, 0, 59, 0
1, 155520, Note_on_c, 0, 67, 62
1, 155520, Note_on_c, 0, 31, 50
1, 155520, Note_on_c, 0, 43, 60
1, 155534, Control_c, 0, 64, 0
1, 155577, Control_c, 0, 64, 127
1, 155600, Note_on_c, 0, 75, 41
1, 155600, Note_on_c, 0, 79, 49
1, 155680, Note_on_c, 0, 79, 0
1, 155680, Note_on_c, 0, 75, 0
1, 155680, Note_on_c, 0, 71, 52
1, 155760, Note_on_c, 0, 71, 0
1, 155760, Note_on_c, 0, 75, 40
1, 155760, Note_on_c, 0, 79, 49
1, 155840, Note_on_c, 0, 79, 0
1, 155840, Note_on_c, 0, 75, 0
1, 155840, Note_on_c, 0, 72, 50
1, 155920, Note_on_c, 0, 72, 0
1, 155920, Note_on_c, 0, 75, 39
1, 155920, Note_on_c, 0, 79, 46
1, 156000, Tempo, 648649
1, 156000, Note_on_c, 0, 79, 0
1, 156000, Note_on_c, 0, 43, 0
1, 156000, Note_on_c, 0, 67, 0
1, 156000, Note_on_c, 0, 31, 0
1, 156000, Note_on_c, 0, 75, 0
1, 156000, Note_on_c, 0, 63, 63
1, 156000, Note_on_c, 0, 51, 45
1, 156000, Note_on_c, 0, 55, 45
1, 156000, Note_on_c, 0, 60, 53
1, 156011, Control_c, 0, 64, 0
1, 156040, Tempo, 652174
1, 156060, Tempo, 655738
1, 156060, Control_c, 0, 64, 127
1, 156080, Note_on_c, 0, 72, 39
1, 156080, Note_on_c, 0, 75, 46
1, 156100, Tempo, 659341
1, 156120, Tempo, 662983
1, 156160, Tempo, 666667
1, 156160, Note_on_c, 0, 75, 0
1, 156160, Note_on_c, 0, 72, 0
1, 156160, Note_on_c, 0, 66, 52
1, 156180, Tempo, 670391
1, 156240, Tempo, 709807
1, 156240, Note_on_c, 0, 66, 0
1, 156240, Note_on_c, 0, 72, 36
1, 156240, Note_on_c, 0, 75, 45
1, 156320, Note_on_c, 0, 75, 0
1, 156320, Note_on_c, 0, 72, 0
1, 156320, Note_on_c, 0, 67, 50
1, 156400, Note_on_c, 0, 67, 0
1, 156400, Note_on_c, 0, 72, 37
1, 156400, Note_on_c, 0, 75, 45
1, 156480, Tempo, 680426
1, 156480, Note_on_c, 0, 75, 0
1, 156480, Note_on_c, 0, 51, 0
1, 156480, Note_on_c, 0, 55, 0
1, 156480, Note_on_c, 0, 63, 0
1, 156480, Note_on_c, 0, 72, 0
1, 156480, Note_on_c, 0, 60, 0
1, 156480, Note_on_c, 0, 62, 58
1, 156480, Note_on_c, 0, 38, 55
1, 156494, Control_c, 0, 64, 0
1, 156537, Control_c, 0, 64, 127
1, 156560, Note_on_c, 0, 70, 37
1, 156560, Note_on_c, 0, 74, 45
1, 156640, Note_on_c, 0, 74, 0
1, 156640, Note_on_c, 0, 70, 0
1, 156640, Note_on_c, 0, 66, 48
1, 156720, Note_on_c, 0, 66, 0
1, 156720, Note_on_c, 0, 70, 36
1, 156720, Note_on_c, 0, 74, 44
1, 156800, Note_on_c, 0, 74, 0
1, 156800, Note_on_c, 0, 70, 0
1, 156800, Note_on_c, 0, 67, 45
1, 156880, Note_on_c, 0, 67, 0
1, 156880, Note_on_c, 0, 70, 36
1, 156880, Note_on_c, 0, 74, 42
1, 156960, Tempo, 696945
1, 156960, Note_on_c, 0, 74, 0
1, 156960, Note_on_c, 0, 62, 0
1, 156960, Note_on_c, 0, 38, 0
1, 156960, Note_on_c, 0, 70, 0
1, 156960, Note_on_c, 0, 58, 56
1, 156960, Note_on_c, 0, 50, 39
1, 156960, Note_on_c, 0, 55, 46
1, 156971, Control_c, 0, 64, 0
1, 157020, Control_c, 0, 64, 127
1, 157040, Note_on_c, 0, 67, 34
1, 157040, Note_on_c, 0, 70, 41
1, 157120, Note_on_c, 0, 70, 0
1, 157120, Note_on_c, 0, 67, 0
1, 157120, Note_on_c, 0, 61, 47
1, 157200, Tempo, 746733
1, 157200, Note_on_c, 0, 61, 0
1, 157200, Note_on_c, 0, 67, 32
1, 157200, Note_on_c, 0, 70, 41
1, 157280, Note_on_c, 0, 70, 0
1, 157280, Note_on_c, 0, 67, 0
1, 157280, Note_on_c, 0, 62, 47
1, 157360, Note_on_c, 0, 62, 0
1, 157360, Note_on_c, 0, 67, 32
1, 157360, Note_on_c, 0, 70, 38
1, 157440, Tempo, 705467
1, 157440, Note_on_c, 0, 70, 0
1, 157440, Note_on_c, 0, 55, 0
1, 157440, Note_on_c, 0, 58, 0
1, 157440, Note_on_c, 0, 50, 0
1, 157440, Note_on_c, 0, 67, 0
1, 157440, Note_on_c, 0, 60, 52
1, 157440, Note_on_c, 0, 50, 36
1, 157440, Note_on_c, 0, 57, 47
1, 157454, Control_c, 0, 64, 0
1, 157497, Control_c, 0, 64, 127
1, 157520, Note_on_c, 0, 69, 34
1, 157520, Note_on_c, 0, 72, 40
1, 157600, Note_on_c, 0, 72, 0
1, 157600, Note_on_c, 0, 69, 0
1, 157600, Note_on_c, 0, 63, 42
1, 157680, Note_on_c, 0, 63, 0
1, 157680, Note_on_c, 0, 69, 32
1, 157680, Note_on_c, 0, 72, 39
1, 157760, Note_on_c, 0, 72, 0
1, 157760, Note_on_c, 0, 69, 0
1, 157760, Note_on_c, 0, 62, 40
1, 157840, Note_on_c, 0, 62, 0
1, 157840, Note_on_c, 0, 69, 30
1, 157840, Note_on_c, 0, 72, 36
1, 157918, Note_on_c, 0, 57, 0
1, 157920, Tempo, 718735
1, 157920, Note_on_c, 0, 69, 0
1, 157920, Note_on_c, 0, 60, 0
1, 157920, Note_on_c, 0, 50, 0
1, 157920, Note_on_c, 0, 72, 0
1, 157920, Note_on_c, 0, 57, 50
1, 157920, Note_on_c, 0, 50, 34
1, 157920, Note_on_c, 0, 54, 41
1, 157931, Control_c, 0, 64, 0
1, 157980, Control_c, 0, 64, 127
1, 158000, Note_on_c, 0, 66, 30
1, 158000, Note_on_c, 0, 69, 36
1, 158080, Note_on_c, 0, 69, 0
1, 158080, Note_on_c, 0, 66, 0
1, 158080, Note_on_c, 0, 63, 42
1, 158160, Note_on_c, 0, 63, 0
1, 158160, Note_on_c, 0, 66, 27
1, 158160, Note_on_c, 0, 69, 36
1, 158240, Note_on_c, 0, 69, 0
1, 158240, Note_on_c, 0, 66, 0
1, 158240, Note_on_c, 0, 62, 41
1, 158320, Note_on_c, 0, 62, 0
1, 158320, Note_on_c, 0, 66, 28
1, 158320, Note_on_c, 0, 69, 34
1, 158400, Tempo, 684463
1, 158400, Note_on_c, 0, 69, 0
1, 158400, Note_on_c, 0, 54, 0
1, 158400, Note_on_c, 0, 57, 0
1, 158400, Note_on_c, 0, 50, 0
1, 158400, Note_on_c, 0, 66, 0
1, 158400, Note_on_c, 0, 62, 51
1, 158400, Note_on_c, 0, 67, 51
1, 158400, Note_on_c, 0, 58, 45
1, 158414, Control_c, 0, 64, 0
1, 158446, Control_c, 0, 64, 127
1, 158480, Note_on_c, 0, 58, 0
1, 158480, Note_on_c, 0, 55, 39
1, 158560, Note_on_c, 0, 55, 0
1, 158560, Note_on_c, 0, 58, 44
1, 158640, Note_on_c, 0, 58, 0
1, 158640, Note_on_c, 0, 55, 41
1, 158720, Note_on_c, 0, 55, 0
1, 158720, Note_on_c, 0, 58, 49
1, 158800, Note_on_c, 0, 58, 0
1, 158800, Note_on_c, 0, 55, 46
1, 158860, Tempo, 670391
1, 158880, Note_on_c, 0, 55, 0
1, 158880, Note_on_c, 0, 67, 0
1, 158880, Note_on_c, 0, 62, 0
1, 158880, Note_on_c, 0, 62, 56
1, 158880, Note_on_c, 0, 65, 56
1, 158880, Note_on_c, 0, 59, 53
1, 158892, Control_c, 0, 64, 0
1, 158915, Control_c, 0, 64, 127
1, 158960, Note_on_c, 0, 59, 0
1, 158960, Note_on_c, 0, 55, 47
1, 159000, Tempo, 666667
1, 159040, Note_on_c, 0, 55, 0
1, 159040, Note_on_c, 0, 59, 53
1, 159120, Tempo, 662983
1, 159120, Note_on_c, 0, 59, 0
1, 159120, Note_on_c, 0, 55, 50
1, 159200, Note_on_c, 0, 55, 0
1, 159200, Note_on_c, 0, 59, 54
1, 159240, Tempo, 659341
1, 159280, Note_on_c, 0, 59, 0
1, 159280, Note_on_c, 0, 55, 50
1, 159320, Tempo, 662983
1, 159360, Note_on_c, 0, 55, 0
1, 159360, Note_on_c, 0, 65, 0
1, 159360, Note_on_c, 0, 62, 0
1, 159360, Note_on_c, 0, 64, 62
1, 159360, Note_on_c, 0, 60, 59
1, 159370, Control_c, 0, 64, 0
1, 159423, Control_c, 0, 64, 127
1, 159440, Note_on_c, 0, 60, 0
1, 159440, Note_on_c, 0, 55, 52
1, 159460, Tempo, 659341
1, 159520, Note_on_c, 0, 55, 0
1, 159520, Note_on_c, 0, 60, 54
1, 159580, Tempo, 655738
1, 159600, Note_on_c, 0, 60, 0
1, 159600, Note_on_c, 0, 55, 45
1, 159680, Note_on_c, 0, 55, 0
1, 159680, Note_on_c, 0, 60, 51
1, 159720, Tempo, 652174
1, 159760, Note_on_c, 0, 60, 0
1, 159760, Note_on_c, 0, 55, 44
1, 159840, Tempo, 648649
1, 159840, Note_on_c, 0, 55, 0
1, 159840, Note_on_c, 0, 64, 0
1, 159840, Note_on_c, 0, 91, 72
1, 159840, Note_on_c, 0, 79, 62
1, 159840, Note_on_c, 0, 63, 58
1, 159840, Note_on_c, 0, 60, 64
1, 159862, Control_c, 0, 64, 0
1, 159897, Control_c, 0, 64, 127
1, 159920, Note_on_c, 0, 60, 0
1, 159920, Note_on_c, 0, 55, 50
1, 160000, Note_on_c, 0, 55, 0
1, 160000, Note_on_c, 0, 60, 60
1, 160080, Note_on_c, 0, 60, 0
1, 160080, Note_on_c, 0, 55, 50
1, 160160, Note_on_c, 0, 55, 0
1, 160160, Note_on_c, 0, 60, 56
1, 160200, Tempo, 746733
1, 160240, Note_on_c, 0, 60, 0
1, 160240, Note_on_c, 0, 55, 46
1, 160320, Tempo, 660866
1, 160320, Note_on_c, 0, 91, 0
1, 160320, Note_on_c, 0, 63, 0
1, 160320, Note_on_c, 0, 79, 0
1, 160320, Note_on_c, 0, 78, 59
1, 160320, Note_on_c, 0, 90, 70
1, 160320, Note_on_c, 0, 66, 58
1, 160320, Note_on_c, 0, 57, 51
1, 160320, Note_on_c, 0, 63, 63
1, 160326, Control_c, 0, 64, 0
1, 160354, Control_c, 0, 64, 127
1, 160400, Note_on_c, 0, 63, 0
1, 160400, Note_on_c, 0, 60, 48
1, 160480, Note_on_c, 0, 60, 0
1, 160480, Note_on_c, 0, 63, 56
1, 160560, Note_on_c, 0, 63, 0
1, 160560, Note_on_c, 0, 60, 48
1, 160640, Note_on_c, 0, 60, 0
1, 160640, Note_on_c, 0, 63, 54
1, 160720, Note_on_c, 0, 63, 0
1, 160720, Note_on_c, 0, 60, 45
1, 160800, Note_on_c, 0, 60, 0
1, 160800, Note_on_c, 0, 63, 52
1, 160880, Note_on_c, 0, 63, 0
1, 160880, Note_on_c, 0, 60, 39
1, 160960, Note_on_c, 0, 60, 0
1, 160960, Note_on_c, 0, 63, 47
1, 161040, Tempo, 680426
1, 161040, Note_on_c, 0, 63, 0
1, 161040, Note_on_c, 0, 78, 0
1, 161040, Note_on_c, 0, 90, 0
1, 161040, Note_on_c, 0, 75, 57
1, 161040, Note_on_c, 0, 87, 67
1, 161040, Note_on_c, 0, 60, 38
1, 161120, Note_on_c, 0, 60, 0
1, 161120, Note_on_c, 0, 63, 45
1, 161200, Note_on_c, 0, 63, 0
1, 161200, Note_on_c, 0, 60, 37
1, 161280, Tempo, 684463
1, 161280, Note_on_c, 0, 60, 0
1, 161280, Note_on_c, 0, 66, 0
1, 161280, Note_on_c, 0, 55, 0
1, 161280, Note_on_c, 0, 57, 0
1, 161280, Note_on_c, 0, 87, 0
1, 161280, Note_on_c, 0, 75, 0
1, 161280, Note_on_c, 0, 74, 50
1, 161280, Note_on_c, 0, 86, 60
1, 161280, Note_on_c, 0, 62, 51
1, 161280, Note_on_c, 0, 67, 51
1, 161280, Note_on_c, 0, 58, 45
1, 161294, Control_c, 0, 64, 0
1, 161326, Control_c, 0, 64, 127
1, 161360, Note_on_c, 0, 58, 0
1, 161360, Note_on_c, 0, 55, 39
1, 161440, Note_on_c, 0, 55, 0
1, 161440, Note_on_c, 0, 58, 44
1, 161520, Note_on_c, 0, 58, 0
1, 161520, Note_on_c, 0, 55, 41
1, 161600, Note_on_c, 0, 55, 0
1, 161600, Note_on_c, 0, 58, 49
1, 161680, Note_on_c, 0, 58, 0
1, 161680, Note_on_c, 0, 55, 46
1, 161760, Tempo, 672495
1, 161760, Note_on_c, 0, 55, 0
1, 161760, Note_on_c, 0, 67, 0
1, 161760, Note_on_c, 0, 74, 0
1, 161760, Note_on_c, 0, 86, 0
1, 161760, Note_on_c, 0, 62, 0
1, 161760, Note_on_c, 0, 62, 56
1, 161760, Note_on_c, 0, 65, 56
1, 161760, Note_on_c, 0, 59, 53
1, 161772, Control_c, 0, 64, 0
1, 161780, Tempo, 670391
1, 161795, Control_c, 0, 64, 127
1, 161840, Note_on_c, 0, 59, 0
1, 161840, Note_on_c, 0, 55, 47
1, 161880, Tempo, 666667
1, 161920, Note_on_c, 0, 55, 0
1, 161920, Note_on_c, 0, 59, 53
1, 161980, Tempo, 662983
1, 162000, Note_on_c, 0, 59, 0
1, 162000, Note_on_c, 0, 55, 50
1, 162060, Tempo, 659341
1, 162080, Note_on_c, 0, 55, 0
1, 162080, Note_on_c, 0, 59, 54
1, 162160, Tempo, 655738
1, 162160, Note_on_c, 0, 59, 0
1, 162160, Note_on_c, 0, 55, 50
1, 162240, Tempo, 655738
1, 162240, Note_on_c, 0, 55, 0
1, 162240, Note_on_c, 0, 65, 0
1, 162240, Note_on_c, 0, 62, 0
1, 162240, Note_on_c, 0, 64, 62
1, 162240, Note_on_c, 0, 60, 59
1, 162250, Control_c, 0, 64, 0
1, 162303, Control_c, 0, 64, 127
1, 162320, Note_on_c, 0, 60, 0
1, 162320, Note_on_c, 0, 55, 52
1, 162400, Tempo, 652174
1, 162400, Note_on_c, 0, 55, 0
1, 162400, Note_on_c, 0, 60, 54
1, 162480, Note_on_c, 0, 60, 0
1, 162480, Note_on_c, 0, 55, 45
1, 162560, Tempo, 648649
1, 162560, Note_on_c, 0, 55, 0
1, 162560, Note_on_c, 0, 60, 51
1, 162640, Note_on_c, 0, 60, 0
1, 162640, Note_on_c, 0, 55, 44
1, 162720, Tempo, 645161
1, 162720, Note_on_c, 0, 55, 0
1, 162720, Note_on_c, 0, 64, 0
1, 162720, Note_on_c, 0, 67, 59
1, 162720, Note_on_c, 0, 79, 70
1, 162720, Note_on_c, 0, 63, 58
1, 162720, Note_on_c, 0, 60, 64
1, 162743, Control_c, 0, 64, 0
1, 162777, Control_c, 0, 64, 127
1, 162800, Note_on_c, 0, 60, 0
1, 162800, Note_on_c, 0, 55, 50
1, 162880, Note_on_c, 0, 55, 0
1, 162880, Note_on_c, 0, 60, 60
1, 162960, Note_on_c, 0, 60, 0
1, 162960, Note_on_c, 0, 55, 50
1, 163040, Note_on_c, 0, 55, 0
1, 163040, Note_on_c, 0, 60, 56
1, 163080, Tempo, 746733
1, 163120, Note_on_c, 0, 60, 0
1, 163120, Note_on_c, 0, 55, 46
1, 163200, Tempo, 660866
1, 163200, Note_on_c, 0, 67, 0
1, 163200, Note_on_c, 0, 63, 0
1, 163200, Note_on_c, 0, 79, 0
1, 163200, Note_on_c, 0, 66, 56
1, 163200, Note_on_c, 0, 78, 67
1, 163200, Note_on_c, 0, 57, 63
1, 163206, Control_c, 0, 64, 0
1, 163234, Control_c, 0, 64, 127
1, 163280, Note_on_c, 0, 57, 0
1, 163280, Note_on_c, 0, 60, 48
1, 163360, Note_on_c, 0, 60, 0
1, 163360, Note_on_c, 0, 57, 56
1, 163440, Note_on_c, 0, 57, 0
1, 163440, Note_on_c, 0, 60, 48
1, 163520, Note_on_c, 0, 60, 0
1, 163520, Note_on_c, 0, 57, 54
1, 163600, Note_on_c, 0, 57, 0
1, 163600, Note_on_c, 0, 60, 45
1, 163680, Note_on_c, 0, 60, 0
1, 163680, Note_on_c, 0, 57, 52
1, 163760, Note_on_c, 0, 57, 0
1, 163760, Note_on_c, 0, 60, 39
1, 163840, Note_on_c, 0, 60, 0
1, 163840, Note_on_c, 0, 57, 47
1, 163920, Tempo, 680426
1, 163920, Note_on_c, 0, 57, 0
1, 163920, Note_on_c, 0, 78, 0
1, 163920, Note_on_c, 0, 66, 0
1, 163920, Note_on_c, 0, 63, 54
1, 163920, Note_on_c, 0, 75, 64
1, 163920, Note_on_c, 0, 60, 38
1, 164000, Note_on_c, 0, 60, 0
1, 164000, Note_on_c, 0, 57, 45
1, 164080, Note_on_c, 0, 57, 0
1, 164080, Note_on_c, 0, 60, 37
1, 164160, Tempo, 705467
1, 164160, Note_on_c, 0, 60, 0
1, 164160, Note_on_c, 0, 55, 0
1, 164160, Note_on_c, 0, 63, 0
1, 164160, Note_on_c, 0, 75, 0
1, 164160, Note_on_c, 0, 74, 60
1, 164160, Note_on_c, 0, 62, 50
1, 164160, Note_on_c, 0, 55, 51
1, 164160, Note_on_c, 0, 46, 45
1, 164174, Control_c, 0, 64, 0
1, 164206, Control_c, 0, 64, 127
1, 164240, Note_on_c, 0, 46, 0
1, 164240, Note_on_c, 0, 43, 39
1, 164320, Note_on_c, 0, 43, 0
1, 164320, Note_on_c, 0, 46, 44
1, 164400, Note_on_c, 0, 46, 0
1, 164400, Note_on_c, 0, 43, 41
1, 164480, Note_on_c, 0, 43, 0
1, 164480, Note_on_c, 0, 46, 49
1, 164560, Note_on_c, 0, 46, 0
1, 164560, Note_on_c, 0, 43, 46
1, 164640, Tempo, 692761
1, 164640, Note_on_c, 0, 43, 0
1, 164640, Note_on_c, 0, 55, 0
1, 164640, Note_on_c, 0, 62, 0
1, 164640, Note_on_c, 0, 74, 0
1, 164640, Note_on_c, 0, 74, 70
1, 164640, Note_on_c, 0, 67, 59
1, 164640, Note_on_c, 0, 62, 59
1, 164640, Note_on_c, 0, 53, 56
1, 164640, Note_on_c, 0, 47, 53
1, 164652, Control_c, 0, 64, 0
1, 164675, Control_c, 0, 64, 127
1, 164720, Note_on_c, 0, 47, 0
1, 164720, Note_on_c, 0, 43, 47
1, 164800, Note_on_c, 0, 43, 0
1, 164800, Note_on_c, 0, 47, 53
1, 164880, Note_on_c, 0, 47, 0
1, 164880, Note_on_c, 0, 43, 50
1, 164960, Note_on_c, 0, 43, 0
1, 164960, Note_on_c, 0, 47, 54
1, 165040, Note_on_c, 0, 47, 0
1, 165040, Note_on_c, 0, 43, 50
1, 165120, Tempo, 676437
1, 165120, Note_on_c, 0, 43, 0
1, 165120, Note_on_c, 0, 53, 0
1, 165120, Note_on_c, 0, 74, 0
1, 165120, Note_on_c, 0, 67, 0
1, 165120, Note_on_c, 0, 62, 0
1, 165120, Note_on_c, 0, 67, 56
1, 165120, Note_on_c, 0, 74, 67
1, 165120, Note_on_c, 0, 62, 56
1, 165120, Note_on_c, 0, 55, 62
1, 165120, Note_on_c, 0, 52, 59
1, 165130, Control_c, 0, 64, 0
1, 165183, Control_c, 0, 64, 127
1, 165200, Note_on_c, 0, 52, 0
1, 165200, Note_on_c, 0, 43, 52
1, 165240, Tempo, 672495
1, 165280, Note_on_c, 0, 43, 0
1, 165280, Note_on_c, 0, 52, 54
1, 165360, Tempo, 668598
1, 165360, Note_on_c, 0, 52, 0
1, 165360, Note_on_c, 0, 43, 46
1, 165440, Note_on_c, 0, 43, 0
1, 165440, Note_on_c, 0, 52, 52
1, 165480, Tempo, 664673
1, 165520, Note_on_c, 0, 52, 0
1, 165520, Note_on_c, 0, 43, 45
1, 165600, Note_on_c, 0, 43, 0
1, 165600, Note_on_c, 0, 52, 52
1, 165680, Note_on_c, 0, 52, 0
1, 165680, Note_on_c, 0, 43, 41
1, 165760, Note_on_c, 0, 43, 0
1, 165760, Note_on_c, 0, 52, 50
1, 165840, Note_on_c, 0, 52, 0
1, 165840, Note_on_c, 0, 43, 43
1, 165920, Note_on_c, 0, 43, 0
1, 165920, Note_on_c, 0, 52, 50
1, 166000, Note_on_c, 0, 52, 0
1, 166000, Note_on_c, 0, 43, 41
1, 166080, Tempo, 688547
1, 166080, Note_on_c, 0, 43, 0
1, 166080, Note_on_c, 0, 55, 0
1, 166080, Note_on_c, 0, 55, 63
1, 166080, Note_on_c, 0, 51, 57
1, 166086, Control_c, 0, 64, 0
1, 166114, Control_c, 0, 64, 127
1, 166160, Note_on_c, 0, 51, 0
1, 166160, Note_on_c, 0, 43, 45
1, 166240, Note_on_c, 0, 43, 0
1, 166240, Note_on_c, 0, 51, 53
1, 166320, Note_on_c, 0, 51, 0
1, 166320, Note_on_c, 0, 43, 46
1, 166400, Note_on_c, 0, 43, 0
1, 166400, Note_on_c, 0, 51, 54
1, 166480, Note_on_c, 0, 51, 0
1, 166480, Note_on_c, 0, 43, 45
1, 166560, Tempo, 714286
1, 166560, Note_on_c, 0, 43, 0
1, 166560, Note_on_c, 0, 67, 0
1, 166560, Note_on_c, 0, 62, 0
1, 166560, Note_on_c, 0, 74, 0
1, 166560, Note_on_c, 0, 67, 63
1, 166560, Note_on_c, 0, 72, 73
1, 166560, Note_on_c, 0, 60, 63
1, 166560, Note_on_c, 0, 51, 54
1, 166640, Note_on_c, 0, 51, 0
1, 166640, Note_on_c, 0, 43, 42
1, 166720, Note_on_c, 0, 43, 0
1, 166720, Note_on_c, 0, 51, 52
1, 166800, Note_on_c, 0, 51, 0
1, 166800, Note_on_c, 0, 43, 42
1, 166880, Note_on_c, 0, 43, 0
1, 166880, Note_on_c, 0, 51, 51
1, 166960, Tempo, 991736
1, 166960, Note_on_c, 0, 51, 0
1, 166960, Note_on_c, 0, 43, 44
1, 167000, Note_on_c, 0, 43, 44
1, 167020, Note_on_c, 0, 50, 45
1, 167040, Key_signature, 1, "major"
1, 167040, Tempo, 714286
1, 167040, Note_on_c, 0, 43, 0
1, 167040, Note_on_c, 0, 72, 0
1, 167040, Note_on_c, 0, 55, 0
1, 167040, Note_on_c, 0, 60, 0
1, 167040, Note_on_c, 0, 67, 0
1, 167040, Note_on_c, 0, 59, 63
1, 167040, Note_on_c, 0, 67, 63
1, 167040, Note_on_c, 0, 55, 49
1, 167044, Control_c, 0, 64, 0
1, 167096, Control_c, 0, 64, 127
1, 167120, Note_on_c, 0, 67, 0
1, 167120, Note_on_c, 0, 59, 0
1, 167120, Note_on_c, 0, 71, 51
1, 167200, Note_on_c, 0, 71, 0
1, 167200, Note_on_c, 0, 59, 54
1, 167200, Note_on_c, 0, 67, 54
1, 167280, Note_on_c, 0, 67, 0
1, 167280, Note_on_c, 0, 55, 0
1, 167280, Note_on_c, 0, 43, 0
1, 167280, Note_on_c, 0, 50, 0
1, 167280, Note_on_c, 0, 59, 0
1, 167280, Note_on_c, 0, 71, 49
1, 167360, Note_on_c, 0, 71, 0
1, 167360, Note_on_c, 0, 59, 54
1, 167360, Note_on_c, 0, 67, 54
1, 167440, Note_on_c, 0, 67, 0
1, 167440, Note_on_c, 0, 59, 0
1, 167440, Note_on_c, 0, 71, 50
1, 167520, Tempo, 701180
1, 167520, Note_on_c, 0, 71, 0
1, 167520, Note_on_c, 0, 67, 74
1, 167520, Note_on_c, 0, 59, 62
1, 167520, Note_on_c, 0, 43, 42
1, 167520, Note_on_c, 0, 47, 42
1, 167520, Note_on_c, 0, 55, 50
1, 167600, Note_on_c, 0, 59, 0
1, 167600, Note_on_c, 0, 71, 50
1, 167678, Note_on_c, 0, 67, 0
1, 167680, Note_on_c, 0, 71, 0
1, 167680, Note_on_c, 0, 59, 54
1, 167680, Note_on_c, 0, 67, 54
1, 167760, Note_on_c, 0, 67, 0
1, 167760, Note_on_c, 0, 59, 0
1, 167760, Note_on_c, 0, 71, 50
1, 167840, Note_on_c, 0, 71, 0
1, 167840, Note_on_c, 0, 59, 54
1, 167840, Note_on_c, 0, 67, 54
1, 167920, Note_on_c, 0, 67, 0
1, 167920, Note_on_c, 0, 59, 0
1, 167920, Note_on_c, 0, 71, 50
1, 168000, Tempo, 710059
1, 168000, Note_on_c, 0, 71, 0
1, 168000, Note_on_c, 0, 47, 0
1, 168000, Note_on_c, 0, 43, 0
1, 168000, Note_on_c, 0, 55, 0
1, 168000, Note_on_c, 0, 66, 66
1, 168000, Note_on_c, 0, 59, 63
1, 168000, Note_on_c, 0, 67, 63
1, 168000, Note_on_c, 0, 42, 43
1, 168000, Note_on_c, 0, 47, 43
1, 168000, Note_on_c, 0, 54, 51
1, 168080, Note_on_c, 0, 67, 0
1, 168080, Note_on_c, 0, 59, 0
1, 168080, Note_on_c, 0, 71, 50
1, 168160, Note_on_c, 0, 71, 0
1, 168160, Note_on_c, 0, 59, 54
1, 168160, Note_on_c, 0, 67, 54
1, 168240, Note_on_c, 0, 67, 0
1, 168240, Note_on_c, 0, 59, 0
1, 168240, Note_on_c, 0, 71, 52
1, 168320, Note_on_c, 0, 71, 0
1, 168320, Note_on_c, 0, 59, 55
1, 168320, Note_on_c, 0, 67, 55
1, 168400, Note_on_c, 0, 67, 0
1, 168400, Note_on_c, 0, 59, 0
1, 168400, Note_on_c, 0, 71, 51
1, 168480, Tempo, 710059
1, 168480, Note_on_c, 0, 71, 0
1, 168480, Note_on_c, 0, 47, 0
1, 168480, Note_on_c, 0, 66, 0
1, 168480, Note_on_c, 0, 54, 0
1, 168480, Note_on_c, 0, 42, 0
1, 168480, Note_on_c, 0, 64, 64
1, 168480, Note_on_c, 0, 59, 64
1, 168480, Note_on_c, 0, 67, 64
1, 168480, Note_on_c, 0, 40, 44
1, 168480, Note_on_c, 0, 47, 44
1, 168480, Note_on_c, 0, 52, 52
1, 168560, Note_on_c, 0, 67, 0
1, 168560, Note_on_c, 0, 59, 0
1, 168560, Note_on_c, 0, 71, 52
1, 168640, Note_on_c, 0, 71, 0
1, 168640, Note_on_c, 0, 59, 56
1, 168640, Note_on_c, 0, 67, 56
1, 168680, Tempo, 714286
1, 168720, Note_on_c, 0, 67, 0
1, 168720, Note_on_c, 0, 59, 0
1, 168720, Note_on_c, 0, 71, 51
1, 168800, Note_on_c, 0, 71, 0
1, 168800, Note_on_c, 0, 59, 56
1, 168800, Note_on_c, 0, 67, 56
1, 168880, Tempo, 718563
1, 168880, Note_on_c, 0, 67, 0
1, 168880, Note_on_c, 0, 59, 0
1, 168880, Note_on_c, 0, 71, 53
1, 168960, Note_on_c, 0, 71, 0
1, 168960, Note_on_c, 0, 47, 0
1, 168960, Note_on_c, 0, 64, 0
1, 168960, Note_on_c, 0, 52, 0
1, 168960, Note_on_c, 0, 40, 0
1, 168960, Note_on_c, 0, 62, 65
1, 168960, Note_on_c, 0, 59, 65
1, 168960, Note_on_c, 0, 67, 65
1, 168960, Note_on_c, 0, 38, 45
1, 168960, Note_on_c, 0, 47, 45
1, 168960, Note_on_c, 0, 50, 53
1, 169040, Tempo, 722892
1, 169040, Note_on_c, 0, 67, 0
1, 169040, Note_on_c, 0, 59, 0
1, 169040, Note_on_c, 0, 71, 53
1, 169120, Note_on_c, 0, 71, 0
1, 169120, Note_on_c, 0, 59, 56
1, 169120, Note_on_c, 0, 67, 56
1, 169200, Note_on_c, 0, 67, 0
1, 169200, Note_on_c, 0, 59, 0
1, 169200, Note_on_c, 0, 71, 52
1, 169240, Tempo, 727273
1, 169280, Note_on_c, 0, 71, 0
1, 169280, Note_on_c, 0, 59, 57
1, 169280, Note_on_c, 0, 67, 57
1, 169360, Note_on_c, 0, 67, 0
1, 169360, Note_on_c, 0, 59, 0
1, 169360, Note_on_c, 0, 71, 53
1, 169400, Tempo, 731707
1, 169440, Tempo, 751597
1, 169440, Note_on_c, 0, 71, 0
1, 169440, Note_on_c, 0, 47, 0
1, 169440, Note_on_c, 0, 62, 0
1, 169440, Note_on_c, 0, 50, 0
1, 169440, Note_on_c, 0, 38, 0
1, 169440, Note_on_c, 0, 59, 68
1, 169440, Note_on_c, 0, 67, 64
1, 169440, Note_on_c, 0, 35, 45
1, 169440, Note_on_c, 0, 47, 54
1, 169520, Note_on_c, 0, 67, 0
1, 169520, Note_on_c, 0, 71, 53
1, 169598, Note_on_c, 0, 59, 0
1, 169600, Note_on_c, 0, 71, 0
1, 169600, Note_on_c, 0, 59, 57
1, 169600, Note_on_c, 0, 67, 57
1, 169680, Note_on_c, 0, 67, 0
1, 169680, Note_on_c, 0, 59, 0
1, 169680, Note_on_c, 0, 71, 54
1, 169760, Note_on_c, 0, 71, 0
1, 169760, Note_on_c, 0, 59, 57
1, 169760, Note_on_c, 0, 67, 57
1, 169840, Note_on_c, 0, 67, 0
1, 169840, Note_on_c, 0, 59, 0
1, 169840, Note_on_c, 0, 71, 54
1, 169920, Tempo, 731707
1, 169920, Note_on_c, 0, 71, 0
1, 169920, Note_on_c, 0, 35, 0
1, 169920, Note_on_c, 0, 47, 0
1, 169920, Note_on_c, 0, 55, 65
1, 169920, Note_on_c, 0, 31, 45
1, 169920, Note_on_c, 0, 35, 45
1, 169920, Note_on_c, 0, 43, 53
1, 169931, Control_c, 0, 64, 0
1, 169973, Control_c, 0, 64, 127
1, 170000, Note_on_c, 0, 59, 54
1, 170078, Note_on_c, 0, 55, 0
1, 170080, Note_on_c, 0, 59, 0
1, 170080, Note_on_c, 0, 55, 59
1, 170160, Note_on_c, 0, 55, 0
1, 170160, Note_on_c, 0, 59, 54
1, 170240, Note_on_c, 0, 59, 0
1, 170240, Note_on_c, 0, 55, 59
1, 170320, Note_on_c, 0, 55, 0
1, 170320, Note_on_c, 0, 59, 54
1, 170400, Tempo, 727273
1, 170400, Note_on_c, 0, 59, 0
1, 170400, Note_on_c, 0, 31, 0
1, 170400, Note_on_c, 0, 35, 0
1, 170400, Note_on_c, 0, 43, 0
1, 170400, Note_on_c, 0, 54, 66
1, 170400, Note_on_c, 0, 55, 66
1, 170400, Note_on_c, 0, 31, 45
1, 170400, Note_on_c, 0, 35, 45
1, 170400, Note_on_c, 0, 42, 54
1, 170480, Tempo, 731707
1, 170480, Note_on_c, 0, 55, 0
1, 170480, Note_on_c, 0, 59, 55
1, 170560, Tempo, 736196
1, 170560, Note_on_c, 0, 59, 0
1, 170560, Note_on_c, 0, 55, 59
1, 170640, Tempo, 740741
1, 170640, Note_on_c, 0, 55, 0
1, 170640, Note_on_c, 0, 59, 55
1, 170720, Tempo, 745342
1, 170720, Note_on_c, 0, 59, 0
1, 170720, Note_on_c, 0, 55, 60
1, 170800, Tempo, 750000
1, 170800, Note_on_c, 0, 55, 0
1, 170800, Note_on_c, 0, 59, 54
1, 170880, Tempo, 754717
1, 170880, Note_on_c, 0, 59, 0
1, 170880, Note_on_c, 0, 42, 0
1, 170880, Note_on_c, 0, 54, 0
1, 170880, Note_on_c, 0, 31, 0
1, 170880, Note_on_c, 0, 35, 0
1, 170880, Note_on_c, 0, 52, 68
1, 170880, Note_on_c, 0, 55, 68
1, 170880, Note_on_c, 0, 31, 47
1, 170880, Note_on_c, 0, 35, 47
1, 170880, Note_on_c, 0, 40, 56
1, 170960, Tempo, 759494
1, 170960, Note_on_c, 0, 55, 0
1, 170960, Note_on_c, 0, 59, 55
1, 171040, Tempo, 764331
1, 171040, Note_on_c, 0, 59, 0
1, 171040, Note_on_c, 0, 55, 60
1, 171120, Tempo, 769231
1, 171120, Note_on_c, 0, 55, 0
1, 171120, Note_on_c, 0, 59, 54
1, 171200, Tempo, 774194
1, 171200, Note_on_c, 0, 59, 0
1, 171200, Note_on_c, 0, 55, 60
1, 171280, Tempo, 779221
1, 171280, Note_on_c, 0, 55, 0
1, 171280, Note_on_c, 0, 59, 55
1, 171360, Tempo, 784314
1, 171360, Note_on_c, 0, 59, 0
1, 171360, Note_on_c, 0, 40, 0
1, 171360, Note_on_c, 0, 52, 0
1, 171360, Note_on_c, 0, 31, 0
1, 171360, Note_on_c, 0, 35, 0
1, 171360, Note_on_c, 0, 51, 69
1, 171360, Note_on_c, 0, 55, 70
1, 171360, Note_on_c, 0, 31, 49
1, 171360, Note_on_c, 0, 35, 49
1, 171360, Note_on_c, 0, 39, 58
1, 171440, Tempo, 789474
1, 171440, Note_on_c, 0, 55, 0
1, 171440, Note_on_c, 0, 59, 55
1, 171520, Tempo, 794702
1, 171520, Note_on_c, 0, 59, 0
1, 171520, Note_on_c, 0, 55, 61
1, 171600, Tempo, 800000
1, 171600, Note_on_c, 0, 55, 0
1, 171600, Note_on_c, 0, 59, 56
1, 171680, Tempo, 805369
1, 171680, Note_on_c, 0, 59, 0
1, 171680, Note_on_c, 0, 55, 62
1, 171760, Tempo, 810811
1, 171760, Note_on_c, 0, 55, 0
1, 171760, Note_on_c, 0, 59, 56
1, 171840, Tempo, 869565
1, 171840, Note_on_c, 0, 59, 0
1, 171840, Note_on_c, 0, 39, 0
1, 171840, Note_on_c, 0, 51, 0
1, 171840, Note_on_c, 0, 31, 0
1, 171840, Note_on_c, 0, 35, 0
1, 171840, Note_on_c, 0, 50, 71
1, 171840, Note_on_c, 0, 55, 70
1, 171840, Note_on_c, 0, 31, 51
1, 171840, Note_on_c, 0, 35, 51
1, 171840, Note_on_c, 0, 38, 61
1, 171920, Note_on_c, 0, 55, 0
1, 171920, Note_on_c, 0, 59, 56
1, 172000, Note_on_c, 0, 59, 0
1, 172000, Note_on_c, 0, 55, 62
1, 172080, Note_on_c, 0, 55, 0
1, 172080, Note_on_c, 0, 59, 56
1, 172160, Note_on_c, 0, 59, 0
1, 172160, Note_on_c, 0, 55, 62
1, 172240, Note_on_c, 0, 55, 0
1, 172240, Note_on_c, 0, 59, 57
1, 172320, Tempo, 923077
1, 172320, Note_on_c, 0, 59, 0
1, 172320, Note_on_c, 0, 38, 0
1, 172320, Note_on_c, 0, 50, 0
1, 172320, Note_on_c, 0, 31, 0
1, 172320, Note_on_c, 0, 35, 0
1, 172320, Note_on_c, 0, 47, 72
1, 172320, Note_on_c, 0, 55, 72
1, 172320, Note_on_c, 0, 31, 53
1, 172320, Note_on_c, 0, 35, 63
1, 172360, Tempo, 923077
1, 172400, Tempo, 937500
1, 172400, Note_on_c, 0, 55, 0
1, 172400, Note_on_c, 0, 59, 58
1, 172440, Tempo, 960000
1, 172480, Tempo, 983607
1, 172480, Note_on_c, 0, 59, 0
1, 172480, Note_on_c, 0, 55, 63
1, 172520, Tempo, 1000000
1, 172560, Tempo, 1025641
1, 172560, Note_on_c, 0, 55, 0
1, 172560, Note_on_c, 0, 59, 57
1, 172600, Tempo, 1052632
1, 172620, Tempo, 1043478
1, 172640, Tempo, 1071429
1, 172640, Note_on_c, 0, 59, 0
1, 172640, Note_on_c, 0, 55, 63
1, 172660, Tempo, 1100917
1, 172680, Tempo, 1132075
1, 172700, Tempo, 1165049
1, 172720, Tempo, 1200000
1, 172720, Note_on_c, 0, 55, 0
1, 172720, Note_on_c, 0, 59, 59
1, 172740, Tempo, 1237113
1, 172760, Tempo, 1276596
1, 172780, Tempo, 1318681
1, 172800, Tempo, 1363636
1, 172800, Marker_t, "Come prima"
1, 172800, Note_on_c, 0, 59, 0
1, 172800, Note_on_c, 0, 35, 0
1, 172800, Note_on_c, 0, 31, 0
1, 172800, Note_on_c, 0, 47, 0
1, 172800, Control_c, 0, 91, 127
1, 172800, Text_t, "bdca426d104a26ac9dcb070447587523"
1, 172800, Note_on_c, 0, 31, 80
1, 172800, Control_c, 0, 64, 0
1, 172843, Control_c, 0, 64, 127
1, 173280, Tempo, 1379310
1, 173280, Note_on_c, 0, 31, 0
1, 173280, Note_on_c, 0, 35, 55
1, 173340, Note_on_c, 0, 35, 0
1, 173340, Note_on_c, 0, 38, 58
1, 173360, Tempo, 1363636
1, 173400, Tempo, 1348315
1, 173400, Note_on_c, 0, 38, 0
1, 173400, Note_on_c, 0, 43, 61
1, 173440, Tempo, 1212121
1, 173452, Tempo, 1200000
1, 173460, Note_on_c, 0, 43, 0
1, 173460, Note_on_c, 0, 47, 63
1, 173464, Tempo, 1176471
1, 173480, Tempo, 1165049
1, 173492, Tempo, 1142857
1, 173504, Tempo, 1121495
1, 173520, Tempo, 1250000
1, 173520, Note_on_c, 0, 47, 0
1, 173520, Note_on_c, 0, 50, 66
1, 173532, Tempo, 1090909
1, 173572, Tempo, 1081081
1, 173580, Note_on_c, 0, 50, 0
1, 173580, Note_on_c, 0, 55, 68
1, 173600, Tempo, 1071429
1, 173624, Tempo, 1061947
1, 173640, Note_on_c, 0, 55, 0
1, 173640, Note_on_c, 0, 59, 68
1, 173652, Tempo, 1052632
1, 173680, Tempo, 1043478
1, 173700, Note_on_c, 0, 59, 0
1, 173700, Note_on_c, 0, 62, 71
1, 173704, Tempo, 1034483
1, 173732, Tempo, 1025641
1, 173760, Tempo, 1428571
1, 173760, Note_on_c, 0, 62, 0
1, 173760, Note_on_c, 0, 67, 77
1, 173773, Control_c, 0, 64, 0
1, 173931, Control_c, 0, 64, 127
1, 174224, Tempo, 1428571
1, 174252, Tempo, 1411765
1, 174264, Tempo, 1395349
1, 174280, Tempo, 1379310
1, 174292, Tempo, 1363636
1, 174300, Note_on_c, 0, 67, 0
1, 174300, Note_on_c, 0, 66, 60
1, 174304, Tempo, 1348315
1, 174320, Tempo, 1333333
1, 174332, Tempo, 1318681
1, 174344, Tempo, 1304348
1, 174360, Tempo, 1290323
1, 174360, Note_on_c, 0, 66, 0
1, 174360, Note_on_c, 0, 64, 61
1, 174372, Tempo, 1276596
1, 174384, Tempo, 1263158
1, 174400, Tempo, 1250000
1, 174412, Tempo, 1237113
1, 174420, Note_on_c, 0, 64, 0
1, 174420, Note_on_c, 0, 62, 62
1, 174424, Tempo, 1224490
1, 174440, Tempo, 1212121
1, 174452, Tempo, 1200000
1, 174464, Tempo, 1188119
1, 174480, Tempo, 1176471
1, 174480, Note_on_c, 0, 62, 0
1, 174480, Note_on_c, 0, 60, 62
1, 174492, Tempo, 1165049
1, 174504, Tempo, 1153846
1, 174520, Tempo, 1142857
1, 174532, Tempo, 1132075
1, 174540, Note_on_c, 0, 60, 0
1, 174540, Note_on_c, 0, 59, 63
1, 174544, Tempo, 1121495
1, 174560, Tempo, 1111111
1, 174572, Tempo, 1100917
1, 174584, Tempo, 1090909
1, 174600, Tempo, 1081081
1, 174600, Note_on_c, 0, 59, 0
1, 174600, Note_on_c, 0, 57, 63
1, 174612, Tempo, 1071429
1, 174624, Tempo, 1061947
1, 174640, Tempo, 1052632
1, 174652, Tempo, 1043478
1, 174660, Note_on_c, 0, 57, 0
1, 174660, Note_on_c, 0, 55, 63
1, 174664, Tempo, 1034483
1, 174680, Tempo, 1025641
1, 174692, Tempo, 1016949
1, 174700, Tempo, 1008403
1, 174720, Tempo, 1000000
1, 174720, Note_on_c, 0, 55, 0
1, 174720, Note_on_c, 0, 54, 64
1, 174740, Tempo, 983607
1, 174760, Tempo, 975610
1, 174780, Tempo, 960000
1, 174780, Note_on_c, 0, 54, 0
1, 174780, Note_on_c, 0, 52, 63
1, 174800, Tempo, 952381
1, 174820, Tempo, 937500
1, 174840, Tempo, 930233
1, 174840, Note_on_c, 0, 52, 0
1, 174840, Note_on_c, 0, 50, 63
1, 174860, Tempo, 916031
1, 174880, Tempo, 909091
1, 174900, Tempo, 895522
1, 174900, Note_on_c, 0, 50, 0
1, 174900, Note_on_c, 0, 48, 64
1, 174920, Tempo, 888889
1, 174940, Tempo, 875912
1, 174960, Tempo, 863309
1, 174960, Note_on_c, 0, 48, 0
1, 174960, Note_on_c, 0, 47, 64
1, 174980, Tempo, 857143
1, 175000, Tempo, 845070
1, 175020, Tempo, 839161
1, 175020, Note_on_c, 0, 47, 0
1, 175020, Note_on_c, 0, 45, 65
1, 175040, Tempo, 827586
1, 175060, Tempo, 821918
1, 175080, Tempo, 810811
1, 175080, Note_on_c, 0, 45, 0
1, 175080, Note_on_c, 0, 43, 66
1, 175100, Tempo, 805369
1, 175120, Tempo, 794702
1, 175140, Tempo, 789474
1, 175140, Note_on_c, 0, 43, 0
1, 175140, Note_on_c, 0, 42, 67
1, 175160, Tempo, 779221
1, 175180, Tempo, 769231
1, 175200, Note_on_c, 0, 42, 0
1, 175200, Note_on_c, 0, 40, 68
1, 175260, Note_on_c, 0, 40, 0
1, 175260, Note_on_c, 0, 38, 69
1, 175280, Tempo, 764331
1, 175320, Note_on_c, 0, 38, 0
1, 175320, Note_on_c, 0, 36, 70
1, 175380, Note_on_c, 0, 36, 0
1, 175380, Note_on_c, 0, 35, 70
1, 175412, Tempo, 759494
1, 175440, Note_on_c, 0, 35, 0
1, 175440, Note_on_c, 0, 33, 71
1, 175500, Note_on_c, 0, 33, 0
1, 175500, Note_on_c, 0, 47, 79
1, 175500, Note_on_c, 0, 31, 74
1, 175517, Control_c, 0, 64, 0
1, 175544, Tempo, 754717
1, 175610, Control_c, 0, 64, 127
1, 175680, Time_signature, 8, 2, 24, 8
1, 175680, Tempo, 1290323
1, 176144, Tempo, 1016949
1, 176160, Tempo, 1237113
1, 176172, Tempo, 975610
1, 176184, Tempo, 960000
1, 176200, Tempo, 937500
1, 176212, Tempo, 923077
1, 176224, Tempo, 902256
1, 176240, Tempo, 888889
1, 176240, Note_on_c, 0, 31, 0
1, 176240, Note_on_c, 0, 47, 0
1, 176240, Note_on_c, 0, 50, 60
1, 176240, Note_on_c, 0, 35, 54
1, 176252, Tempo, 869565
1, 176264, Tempo, 851064
1, 176280, Tempo, 839161
1, 176292, Tempo, 827586
1, 176304, Tempo, 816327
1, 176320, Tempo, 805369
1, 176320, Note_on_c, 0, 35, 0
1, 176320, Note_on_c, 0, 50, 0
1, 176320, Note_on_c, 0, 55, 62
1, 176320, Note_on_c, 0, 38, 55
1, 176332, Tempo, 794702
1, 176344, Tempo, 784314
1, 176360, Tempo, 769231
1, 176372, Tempo, 759494
1, 176384, Tempo, 750000
1, 176400, Tempo, 740741
1, 176400, Note_on_c, 0, 38, 0
1, 176400, Note_on_c, 0, 55, 0
1, 176400, Note_on_c, 0, 59, 63
1, 176400, Note_on_c, 0, 43, 56
1, 176412, Tempo, 731707
1, 176424, Tempo, 722892
1, 176440, Tempo, 710059
1, 176452, Tempo, 701754
1, 176464, Tempo, 693642
1, 176480, Tempo, 685714
1, 176480, Note_on_c, 0, 43, 0
1, 176480, Note_on_c, 0, 59, 0
1, 176480, Note_on_c, 0, 62, 64
1, 176480, Note_on_c, 0, 47, 58
1, 176492, Tempo, 677966
1, 176504, Tempo, 670391
1, 176520, Tempo, 659341
1, 176532, Tempo, 655738
1, 176540, Tempo, 648649
1, 176560, Note_on_c, 0, 47, 0
1, 176560, Note_on_c, 0, 62, 0
1, 176560, Note_on_c, 0, 67, 65
1, 176560, Note_on_c, 0, 50, 59
1, 176580, Tempo, 645161
1, 176600, Tempo, 641711
1, 176640, Tempo, 638298
1, 176640, Note_on_c, 0, 50, 0
1, 176640, Note_on_c, 0, 67, 0
1, 176640, Note_on_c, 0, 71, 67
1, 176640, Note_on_c, 0, 55, 60
1, 176660, Tempo, 634921
1, 176680, Tempo, 631579
1, 176720, Tempo, 628272
1, 176720, Note_on_c, 0, 55, 0
1, 176720, Note_on_c, 0, 71, 0
1, 176720, Note_on_c, 0, 74, 68
1, 176720, Note_on_c, 0, 59, 62
1, 176740, Tempo, 625000
1, 176780, Tempo, 621762
1, 176800, Tempo, 618557
1, 176800, Note_on_c, 0, 59, 0
1, 176800, Note_on_c, 0, 74, 0
1, 176800, Note_on_c, 0, 79, 70
1, 176800, Note_on_c, 0, 62, 63
1, 176820, Tempo, 615385
1, 176860, Tempo, 612245
1, 176880, Tempo, 609137
1, 176880, Note_on_c, 0, 62, 0
1, 176880, Note_on_c, 0, 79, 0
1, 176880, Note_on_c, 0, 83, 71
1, 176880, Note_on_c, 0, 67, 64
1, 176920, Tempo, 606061
1, 176940, Tempo, 603015
1, 176960, Tempo, 600000
1, 176960, Note_on_c, 0, 67, 0
1, 176960, Note_on_c, 0, 83, 0
1, 176960, Note_on_c, 0, 86, 72
1, 176960, Note_on_c, 0, 71, 65
1, 177000, Tempo, 597015
1, 177020, Tempo, 594059
1, 177040, Note_on_c, 0, 71, 0
1, 177040, Note_on_c, 0, 86, 0
1, 177040, Note_on_c, 0, 91, 77
1, 177040, Note_on_c, 0, 74, 67
1, 177060, Tempo, 591133
1, 177080, Tempo, 588235
1, 177100, Tempo, 585366
1, 177120, Tempo, 1212121
1, 177120, Note_on_c, 0, 74, 0
1, 177120, Note_on_c, 0, 91, 0
1, 177120, Note_on_c, 0, 95, 80
1, 177120, Note_on_c, 0, 79, 75
1, 177134, Control_c, 0, 64, 0
1, 177326, Control_c, 0, 64, 127
1, 177600, Tempo, 1081081
1, 177640, Tempo, 1071429
1, 177660, Tempo, 1061947
1, 177660, Note_on_c, 0, 79, 0
1, 177660, Note_on_c, 0, 95, 0
1, 177660, Note_on_c, 0, 93, 58
1, 177660, Note_on_c, 0, 78, 50
1, 177680, Tempo, 1052632
1, 177700, Tempo, 1043478
1, 177720, Note_on_c, 0, 78, 0
1, 177720, Note_on_c, 0, 93, 0
1, 177720, Note_on_c, 0, 91, 59
1, 177720, Note_on_c, 0, 76, 51
1, 177740, Tempo, 1034483
1, 177760, Tempo, 1025641
1, 177780, Tempo, 1016949
1, 177780, Note_on_c, 0, 76, 0
1, 177780, Note_on_c, 0, 91, 0
1, 177780, Note_on_c, 0, 90, 59
1, 177780, Note_on_c, 0, 74, 51
1, 177800, Tempo, 1008403
1, 177840, Tempo, 1000000
1, 177840, Note_on_c, 0, 74, 0
1, 177840, Note_on_c, 0, 90, 0
1, 177840, Note_on_c, 0, 88, 60
1, 177840, Note_on_c, 0, 72, 52
1, 177860, Tempo, 991736
1, 177880, Tempo, 983607
1, 177900, Tempo, 975610
1, 177900, Note_on_c, 0, 72, 0
1, 177900, Note_on_c, 0, 88, 0
1, 177900, Note_on_c, 0, 86, 60
1, 177900, Note_on_c, 0, 71, 52
1, 177940, Tempo, 967742
1, 177960, Tempo, 960000
1, 177960, Note_on_c, 0, 71, 0
1, 177960, Note_on_c, 0, 86, 0
1, 177960, Note_on_c, 0, 84, 61
1, 177960, Note_on_c, 0, 69, 53
1, 177980, Tempo, 952381
1, 178000, Tempo, 944882
1, 178020, Tempo, 930233
1, 178020, Note_on_c, 0, 69, 0
1, 178020, Note_on_c, 0, 84, 0
1, 178020, Note_on_c, 0, 83, 62
1, 178020, Note_on_c, 0, 67, 54
1, 178040, Tempo, 916031
1, 178060, Tempo, 902256
1, 178080, Tempo, 888889
1, 178080, Note_on_c, 0, 67, 0
1, 178080, Note_on_c, 0, 83, 0
1, 178080, Note_on_c, 0, 81, 62
1, 178080, Note_on_c, 0, 66, 54
1, 178100, Tempo, 869565
1, 178120, Tempo, 857143
1, 178140, Tempo, 845070
1, 178140, Note_on_c, 0, 66, 0
1, 178140, Note_on_c, 0, 81, 0
1, 178140, Note_on_c, 0, 79, 63
1, 178140, Note_on_c, 0, 64, 54
1, 178160, Tempo, 833333
1, 178180, Tempo, 816327
1, 178200, Tempo, 805369
1, 178200, Note_on_c, 0, 64, 0
1, 178200, Note_on_c, 0, 79, 0
1, 178200, Note_on_c, 0, 78, 63
1, 178200, Note_on_c, 0, 62, 54
1, 178220, Tempo, 794702
1, 178240, Tempo, 784314
1, 178260, Tempo, 769231
1, 178260, Note_on_c, 0, 62, 0
1, 178260, Note_on_c, 0, 78, 0
1, 178260, Note_on_c, 0, 76, 63
1, 178260, Note_on_c, 0, 60, 55
1, 178280, Tempo, 759494
1, 178300, Tempo, 750000
1, 178320, Tempo, 740741
1, 178320, Note_on_c, 0, 60, 0
1, 178320, Note_on_c, 0, 76, 0
1, 178320, Note_on_c, 0, 74, 63
1, 178320, Note_on_c, 0, 59, 56
1, 178340, Tempo, 727273
1, 178360, Tempo, 718563
1, 178380, Tempo, 710059
1, 178380, Note_on_c, 0, 59, 0
1, 178380, Note_on_c, 0, 74, 0
1, 178380, Note_on_c, 0, 72, 64
1, 178380, Note_on_c, 0, 57, 56
1, 178400, Tempo, 701754
1, 178420, Tempo, 689655
1, 178440, Tempo, 681818
1, 178440, Note_on_c, 0, 57, 0
1, 178440, Note_on_c, 0, 72, 0
1, 178440, Note_on_c, 0, 71, 64
1, 178440, Note_on_c, 0, 55, 57
1, 178460, Tempo, 674157
1, 178480, Tempo, 666667
1, 178500, Tempo, 655738
1, 178500, Note_on_c, 0, 55, 0
1, 178500, Note_on_c, 0, 71, 0
1, 178500, Note_on_c, 0, 69, 65
1, 178500, Note_on_c, 0, 54, 57
1, 178504, Tempo, 662983
1, 178520, Tempo, 659341
1, 178532, Tempo, 655738
1, 178540, Tempo, 648649
1, 178560, Note_on_c, 0, 54, 0
1, 178560, Note_on_c, 0, 69, 0
1, 178560, Note_on_c, 0, 67, 65
1, 178560, Note_on_c, 0, 52, 58
1, 178600, Tempo, 645161
1, 178620, Note_on_c, 0, 52, 0
1, 178620, Note_on_c, 0, 67, 0
1, 178620, Note_on_c, 0, 66, 66
1, 178620, Note_on_c, 0, 50, 58
1, 178640, Tempo, 641711
1, 178680, Note_on_c, 0, 50, 0
1, 178680, Note_on_c, 0, 66, 0
1, 178680, Note_on_c, 0, 64, 66
1, 178680, Note_on_c, 0, 48, 59
1, 178700, Tempo, 638298
1, 178740, Tempo, 634921
1, 178740, Note_on_c, 0, 48, 0
1, 178740, Note_on_c, 0, 64, 0
1, 178740, Note_on_c, 0, 62, 67
1, 178740, Note_on_c, 0, 47, 60
1, 178780, Tempo, 631579
1, 178800, Note_on_c, 0, 47, 0
1, 178800, Note_on_c, 0, 62, 0
1, 178800, Note_on_c, 0, 60, 68
1, 178800, Note_on_c, 0, 45, 60
1, 178840, Tempo, 628272
1, 178860, Note_on_c, 0, 45, 0
1, 178860, Note_on_c, 0, 60, 0
1, 178860, Note_on_c, 0, 59, 68
1, 178860, Note_on_c, 0, 43, 61
1, 178880, Tempo, 625000
1, 178920, Note_on_c, 0, 43, 0
1, 178920, Note_on_c, 0, 59, 0
1, 178920, Note_on_c, 0, 57, 69
1, 178920, Note_on_c, 0, 42, 61
1, 178940, Tempo, 621762
1, 178980, Tempo, 618557
1, 178980, Note_on_c, 0, 42, 0
1, 178980, Note_on_c, 0, 57, 0
1, 178980, Note_on_c, 0, 55, 69
1, 178980, Note_on_c, 0, 40, 62
1, 179020, Tempo, 615385
1, 179040, Note_on_c, 0, 40, 0
1, 179040, Note_on_c, 0, 55, 0
1, 179040, Note_on_c, 0, 54, 70
1, 179040, Note_on_c, 0, 38, 63
1, 179080, Tempo, 612245
1, 179100, Note_on_c, 0, 38, 0
1, 179100, Note_on_c, 0, 54, 0
1, 179100, Note_on_c, 0, 52, 70
1, 179100, Note_on_c, 0, 36, 63
1, 179120, Tempo, 609137
1, 179160, Note_on_c, 0, 36, 0
1, 179160, Note_on_c, 0, 52, 0
1, 179160, Note_on_c, 0, 50, 71
1, 179160, Note_on_c, 0, 35, 63
1, 179180, Tempo, 606061
1, 179220, Tempo, 603015
1, 179220, Note_on_c, 0, 35, 0
1, 179220, Note_on_c, 0, 50, 0
1, 179220, Note_on_c, 0, 48, 71
1, 179220, Note_on_c, 0, 33, 63
1, 179260, Tempo, 600000
1, 179280, Note_on_c, 0, 33, 0
1, 179280, Note_on_c, 0, 48, 0
1, 179280, Note_on_c, 0, 47, 72
1, 179280, Note_on_c, 0, 38, 64
1, 179320, Tempo, 597015
1, 179340, Note_on_c, 0, 38, 0
1, 179340, Note_on_c, 0, 47, 0
1, 179340, Note_on_c, 0, 45, 72
1, 179340, Note_on_c, 0, 36, 64
1, 179360, Tempo, 594059
1, 179400, Note_on_c, 0, 36, 0
1, 179400, Note_on_c, 0, 45, 0
1, 179400, Note_on_c, 0, 43, 80
1, 179400, Note_on_c, 0, 31, 73
1, 179400, Note_on_c, 0, 35, 73
1, 179417, Control_c, 0, 64, 0
1, 179420, Tempo, 591133
1, 179460, Tempo, 588235
1, 179500, Tempo, 585366
1, 179520, Tempo, 1290323
1, 179543, Control_c, 0, 64, 127
1, 179980, Tempo, 1052632
1, 180000, Tempo, 1025641
1, 180020, Tempo, 1000000
1, 180040, Tempo, 975610
1, 180060, Tempo, 952381
1, 180060, Note_on_c, 0, 35, 0
1, 180060, Note_on_c, 0, 31, 0
1, 180060, Note_on_c, 0, 43, 0
1, 180060, Note_on_c, 0, 47, 60
1, 180060, Note_on_c, 0, 38, 54
1, 180080, Tempo, 930233
1, 180100, Tempo, 902256
1, 180120, Tempo, 882353
1, 180120, Note_on_c, 0, 38, 0
1, 180120, Note_on_c, 0, 47, 0
1, 180120, Note_on_c, 0, 50, 62
1, 180120, Note_on_c, 0, 43, 55
1, 180140, Tempo, 863309
1, 180160, Tempo, 845070
1, 180180, Tempo, 827586
1, 180180, Note_on_c, 0, 43, 0
1, 180180, Note_on_c, 0, 50, 0
1, 180180, Note_on_c, 0, 55, 63
1, 180180, Note_on_c, 0, 47, 56
1, 180200, Tempo, 805369
1, 180220, Tempo, 789474
1, 180240, Tempo, 774194
1, 180240, Note_on_c, 0, 47, 0
1, 180240, Note_on_c, 0, 55, 0
1, 180240, Note_on_c, 0, 59, 64
1, 180240, Note_on_c, 0, 50, 58
1, 180260, Tempo, 759494
1, 180280, Tempo, 745342
1, 180300, Tempo, 731707
1, 180300, Note_on_c, 0, 50, 0
1, 180300, Note_on_c, 0, 59, 0
1, 180300, Note_on_c, 0, 62, 65
1, 180300, Note_on_c, 0, 55, 59
1, 180320, Tempo, 714286
1, 180340, Tempo, 701754
1, 180360, Tempo, 689655
1, 180360, Note_on_c, 0, 55, 0
1, 180360, Note_on_c, 0, 62, 0
1, 180360, Note_on_c, 0, 67, 67
1, 180360, Note_on_c, 0, 59, 60
1, 180380, Tempo, 677966
1, 180400, Tempo, 666667
1, 180420, Tempo, 652174
1, 180420, Note_on_c, 0, 59, 0
1, 180420, Note_on_c, 0, 67, 0
1, 180420, Note_on_c, 0, 71, 68
1, 180420, Note_on_c, 0, 62, 62
1, 180460, Tempo, 648649
1, 180480, Tempo, 645161
1, 180480, Note_on_c, 0, 62, 0
1, 180480, Note_on_c, 0, 71, 0
1, 180480, Note_on_c, 0, 74, 70
1, 180480, Note_on_c, 0, 67, 63
1, 180500, Tempo, 641711
1, 180520, Tempo, 638298
1, 180540, Note_on_c, 0, 67, 0
1, 180540, Note_on_c, 0, 74, 0
1, 180540, Note_on_c, 0, 79, 71
1, 180540, Note_on_c, 0, 71, 64
1, 180560, Tempo, 634921
1, 180580, Tempo, 631579
1, 180600, Tempo, 628272
1, 180600, Note_on_c, 0, 71, 0
1, 180600, Note_on_c, 0, 79, 0
1, 180600, Note_on_c, 0, 83, 72
1, 180600, Note_on_c, 0, 74, 65
1, 180620, Tempo, 625000
1, 180660, Tempo, 621762
1, 180660, Note_on_c, 0, 74, 0
1, 180660, Note_on_c, 0, 83, 0
1, 180660, Note_on_c, 0, 86, 73
1, 180660, Note_on_c, 0, 79, 64
1, 180680, Tempo, 618557
1, 180700, Tempo, 615385
1, 180720, Tempo, 612245
1, 180720, Note_on_c, 0, 79, 0
1, 180720, Note_on_c, 0, 86, 0
1, 180720, Note_on_c, 0, 91, 75
1, 180720, Note_on_c, 0, 83, 66
1, 180760, Tempo, 609137
1, 180780, Tempo, 606061
1, 180780, Note_on_c, 0, 83, 0
1, 180780, Note_on_c, 0, 91, 0
1, 180780, Note_on_c, 0, 95, 78
1, 180780, Note_on_c, 0, 86, 68
1, 180800, Tempo, 603015
1, 180820, Tempo, 600000
1, 180840, Note_on_c, 0, 86, 0
1, 180840, Note_on_c, 0, 98, 80
1, 180840, Note_on_c, 0, 91, 75
1, 180860, Tempo, 597015
1, 180880, Tempo, 594059
1, 180900, Tempo, 591133
1, 180920, Tempo, 588235
1, 180940, Tempo, 585366
1, 180960, Tempo, 1212121
1, 180974, Control_c, 0, 64, 0
1, 181077, Control_c, 0, 64, 127
1, 181460, Tempo, 1090909
1, 181500, Tempo, 1081081
1, 181500, Note_on_c, 0, 91, 0
1, 181500, Note_on_c, 0, 98, 0
1, 181500, Note_on_c, 0, 95, 0
1, 181500, Note_on_c, 0, 96, 58
1, 181500, Note_on_c, 0, 88, 50
1, 181520, Tempo, 1071429
1, 181540, Tempo, 1061947
1, 181560, Note_on_c, 0, 88, 0
1, 181560, Note_on_c, 0, 96, 0
1, 181560, Note_on_c, 0, 95, 58
1, 181560, Note_on_c, 0, 86, 50
1, 181580, Tempo, 1052632
1, 181600, Tempo, 1043478
1, 181620, Tempo, 1034483
1, 181620, Note_on_c, 0, 86, 0
1, 181620, Note_on_c, 0, 95, 0
1, 181620, Note_on_c, 0, 93, 58
1, 181620, Note_on_c, 0, 84, 50
1, 181640, Tempo, 1025641
1, 181660, Tempo, 1008403
1, 181680, Tempo, 991736
1, 181680, Note_on_c, 0, 84, 0
1, 181680, Note_on_c, 0, 93, 0
1, 181680, Note_on_c, 0, 91, 59
1, 181680, Note_on_c, 0, 83, 51
1, 181700, Tempo, 983607
1, 181720, Tempo, 967742
1, 181740, Tempo, 952381
1, 181740, Note_on_c, 0, 83, 0
1, 181740, Note_on_c, 0, 91, 0
1, 181740, Note_on_c, 0, 90, 59
1, 181740, Note_on_c, 0, 81, 51
1, 181760, Tempo, 937500
1, 181780, Tempo, 930233
1, 181800, Tempo, 916031
1, 181800, Note_on_c, 0, 81, 0
1, 181800, Note_on_c, 0, 90, 0
1, 181800, Note_on_c, 0, 88, 60
1, 181800, Note_on_c, 0, 79, 52
1, 181820, Tempo, 902256
1, 181840, Tempo, 888889
1, 181860, Tempo, 882353
1, 181860, Note_on_c, 0, 79, 0
1, 181860, Note_on_c, 0, 88, 0
1, 181860, Note_on_c, 0, 86, 60
1, 181860, Note_on_c, 0, 78, 52
1, 181880, Tempo, 869565
1, 181900, Tempo, 857143
1, 181920, Tempo, 845070
1, 181920, Note_on_c, 0, 78, 0
1, 181920, Note_on_c, 0, 86, 0
1, 181920, Note_on_c, 0, 84, 61
1, 181920, Note_on_c, 0, 76, 53
1, 181940, Tempo, 839161
1, 181960, Tempo, 827586
1, 181980, Tempo, 816327
1, 181980, Note_on_c, 0, 76, 0
1, 181980, Note_on_c, 0, 84, 0
1, 181980, Note_on_c, 0, 83, 62
1, 181980, Note_on_c, 0, 74, 54
1, 182000, Tempo, 805369
1, 182020, Tempo, 800000
1, 182040, Tempo, 789474
1, 182040, Note_on_c, 0, 74, 0
1, 182040, Note_on_c, 0, 83, 0
1, 182040, Note_on_c, 0, 81, 62
1, 182040, Note_on_c, 0, 72, 54
1, 182060, Tempo, 779221
1, 182080, Tempo, 774194
1, 182100, Tempo, 764331
1, 182100, Note_on_c, 0, 72, 0
1, 182100, Note_on_c, 0, 81, 0
1, 182100, Note_on_c, 0, 79, 63
1, 182100, Note_on_c, 0, 71, 54
1, 182120, Tempo, 754717
1, 182140, Tempo, 745342
1, 182160, Tempo, 740741
1, 182160, Note_on_c, 0, 71, 0
1, 182160, Note_on_c, 0, 79, 0
1, 182160, Note_on_c, 0, 78, 63
1, 182160, Note_on_c, 0, 69, 54
1, 182180, Tempo, 731707
1, 182200, Tempo, 722892
1, 182220, Tempo, 714286
1, 182220, Note_on_c, 0, 69, 0
1, 182220, Note_on_c, 0, 78, 0
1, 182220, Note_on_c, 0, 76, 63
1, 182220, Note_on_c, 0, 67, 55
1, 182240, Tempo, 710059
1, 182260, Tempo, 701754
1, 182280, Tempo, 693642
1, 182280, Note_on_c, 0, 67, 0
1, 182280, Note_on_c, 0, 76, 0
1, 182280, Note_on_c, 0, 74, 63
1, 182280, Note_on_c, 0, 66, 56
1, 182300, Tempo, 685714
1, 182320, Tempo, 681818
1, 182340, Tempo, 674157
1, 182340, Note_on_c, 0, 66, 0
1, 182340, Note_on_c, 0, 74, 0
1, 182340, Note_on_c, 0, 72, 64
1, 182340, Note_on_c, 0, 64, 56
1, 182360, Tempo, 659341
1, 182400, Tempo, 655738
1, 182400, Note_on_c, 0, 64, 0
1, 182400, Note_on_c, 0, 72, 0
1, 182400, Note_on_c, 0, 71, 64
1, 182400, Note_on_c, 0, 62, 57
1, 182440, Tempo, 652174
1, 182460, Note_on_c, 0, 62, 0
1, 182460, Note_on_c, 0, 71, 0
1, 182460, Note_on_c, 0, 69, 65
1, 182460, Note_on_c, 0, 60, 57
1, 182480, Tempo, 648649
1, 182520, Tempo, 645161
1, 182520, Note_on_c, 0, 60, 0
1, 182520, Note_on_c, 0, 69, 0
1, 182520, Note_on_c, 0, 67, 65
1, 182520, Note_on_c, 0, 59, 58
1, 182560, Tempo, 641711
1, 182580, Note_on_c, 0, 59, 0
1, 182580, Note_on_c, 0, 67, 0
1, 182580, Note_on_c, 0, 66, 66
1, 182580, Note_on_c, 0, 57, 58
1, 182600, Tempo, 638298
1, 182620, Tempo, 634921
1, 182640, Note_on_c, 0, 57, 0
1, 182640, Note_on_c, 0, 66, 0
1, 182640, Note_on_c, 0, 64, 66
1, 182640, Note_on_c, 0, 55, 59
1, 182660, Tempo, 631579
1, 182700, Tempo, 628272
1, 182700, Note_on_c, 0, 55, 0
1, 182700, Note_on_c, 0, 64, 0
1, 182700, Note_on_c, 0, 62, 67
1, 182700, Note_on_c, 0, 54, 60
1, 182740, Tempo, 625000
1, 182760, Note_on_c, 0, 54, 0
1, 182760, Note_on_c, 0, 62, 0
1, 182760, Note_on_c, 0, 60, 68
1, 182760, Note_on_c, 0, 52, 60
1, 182780, Tempo, 621762
1, 182820, Tempo, 618557
1, 182820, Note_on_c, 0, 52, 0
1, 182820, Note_on_c, 0, 60, 0
1, 182820, Note_on_c, 0, 59, 68
1, 182820, Note_on_c, 0, 50, 61
1, 182860, Tempo, 615385
1, 182880, Tempo, 612245
1, 182880, Note_on_c, 0, 50, 0
1, 182880, Note_on_c, 0, 59, 0
1, 182880, Note_on_c, 0, 57, 69
1, 182880, Note_on_c, 0, 48, 61
1, 182940, Tempo, 609137
1, 182940, Note_on_c, 0, 48, 0
1, 182940, Note_on_c, 0, 57, 0
1, 182940, Note_on_c, 0, 55, 69
1, 182940, Note_on_c, 0, 47, 62
1, 183000, Tempo, 606061
1, 183000, Note_on_c, 0, 47, 0
1, 183000, Note_on_c, 0, 55, 0
1, 183000, Note_on_c, 0, 54, 70
1, 183000, Note_on_c, 0, 45, 61
1, 183060, Tempo, 603015
1, 183060, Note_on_c, 0, 45, 0
1, 183060, Note_on_c, 0, 54, 0
1, 183060, Note_on_c, 0, 52, 69
1, 183060, Note_on_c, 0, 43, 62
1, 183120, Tempo, 600000
1, 183120, Note_on_c, 0, 43, 0
1, 183120, Note_on_c, 0, 52, 0
1, 183120, Note_on_c, 0, 50, 70
1, 183120, Note_on_c, 0, 42, 63
1, 183180, Tempo, 597015
1, 183180, Note_on_c, 0, 42, 0
1, 183180, Note_on_c, 0, 50, 0
1, 183180, Note_on_c, 0, 48, 72
1, 183180, Note_on_c, 0, 40, 63
1, 183240, Tempo, 594059
1, 183240, Note_on_c, 0, 40, 0
1, 183240, Note_on_c, 0, 48, 0
1, 183240, Note_on_c, 0, 47, 73
1, 183240, Note_on_c, 0, 38, 65
1, 183300, Tempo, 591133
1, 183300, Note_on_c, 0, 38, 0
1, 183300, Note_on_c, 0, 47, 0
1, 183300, Note_on_c, 0, 45, 74
1, 183300, Note_on_c, 0, 36, 66
1, 183340, Tempo, 588235
1, 183360, Time_signature, 7, 2, 24, 8
1, 183360, Tempo, 1200000
1, 183360, Note_on_c, 0, 36, 0
1, 183360, Note_on_c, 0, 45, 0
1, 183360, Note_on_c, 0, 43, 80
1, 183360, Note_on_c, 0, 31, 73
1, 183360, Note_on_c, 0, 35, 73
1, 183377, Control_c, 0, 64, 0
1, 183474, Control_c, 0, 64, 127
1, 183840, Tempo, 1081081
1, 183852, Tempo, 1071429
1, 183864, Tempo, 1061947
1, 183880, Tempo, 1052632
1, 183892, Tempo, 1043478
1, 183900, Note_on_c, 0, 35, 0
1, 183900, Note_on_c, 0, 31, 0
1, 183900, Note_on_c, 0, 43, 0
1, 183900, Note_on_c, 0, 44, 61
1, 183900, Note_on_c, 0, 36, 43
1, 183904, Tempo, 1034483
1, 183920, Tempo, 1025641
1, 183932, Tempo, 1016949
1, 183944, Tempo, 1000000
1, 183960, Tempo, 991736
1, 183960, Note_on_c, 0, 36, 0
1, 183960, Note_on_c, 0, 44, 0
1, 183960, Note_on_c, 0, 45, 61
1, 183960, Note_on_c, 0, 37, 44
1, 183972, Tempo, 983607
1, 183984, Tempo, 975610
1, 184000, Tempo, 967742
1, 184012, Tempo, 960000
1, 184020, Note_on_c, 0, 37, 0
1, 184020, Note_on_c, 0, 45, 0
1, 184020, Note_on_c, 0, 46, 62
1, 184020, Note_on_c, 0, 38, 44
1, 184024, Tempo, 952381
1, 184040, Tempo, 944882
1, 184052, Tempo, 930233
1, 184064, Tempo, 923077
1, 184080, Tempo, 916031
1, 184080, Note_on_c, 0, 38, 0
1, 184080, Note_on_c, 0, 46, 0
1, 184080, Note_on_c, 0, 47, 63
1, 184080, Note_on_c, 0, 39, 45
1, 184092, Tempo, 909091
1, 184104, Tempo, 902256
1, 184120, Tempo, 895522
1, 184132, Tempo, 888889
1, 184140, Note_on_c, 0, 39, 0
1, 184140, Note_on_c, 0, 47, 0
1, 184140, Note_on_c, 0, 48, 63
1, 184140, Note_on_c, 0, 40, 45
1, 184144, Tempo, 882353
1, 184160, Tempo, 869565
1, 184172, Tempo, 863309
1, 184184, Tempo, 857143
1, 184200, Tempo, 851064
1, 184200, Note_on_c, 0, 40, 0
1, 184200, Note_on_c, 0, 48, 0
1, 184200, Note_on_c, 0, 49, 63
1, 184200, Note_on_c, 0, 41, 46
1, 184212, Tempo, 845070
1, 184224, Tempo, 839161
1, 184240, Tempo, 833333
1, 184252, Tempo, 827586
1, 184260, Note_on_c, 0, 41, 0
1, 184260, Note_on_c, 0, 49, 0
1, 184260, Note_on_c, 0, 50, 64
1, 184260, Note_on_c, 0, 42, 46
1, 184264, Tempo, 816327
1, 184280, Tempo, 810811
1, 184292, Tempo, 805369
1, 184300, Tempo, 805369
1, 184320, Tempo, 800000
1, 184320, Note_on_c, 0, 42, 0
1, 184320, Note_on_c, 0, 50, 0
1, 184320, Note_on_c, 0, 51, 64
1, 184320, Note_on_c, 0, 43, 47
1, 184340, Tempo, 789474
1, 184360, Tempo, 784314
1, 184380, Tempo, 774194
1, 184380, Note_on_c, 0, 43, 0
1, 184380, Note_on_c, 0, 51, 0
1, 184380, Note_on_c, 0, 52, 65
1, 184380, Note_on_c, 0, 44, 48
1, 184400, Tempo, 769231
1, 184420, Tempo, 759494
1, 184440, Tempo, 750000
1, 184440, Note_on_c, 0, 44, 0
1, 184440, Note_on_c, 0, 52, 0
1, 184440, Note_on_c, 0, 53, 66
1, 184440, Note_on_c, 0, 45, 49
1, 184460, Tempo, 745342
1, 184480, Tempo, 736196
1, 184500, Tempo, 731707
1, 184500, Note_on_c, 0, 45, 0
1, 184500, Note_on_c, 0, 53, 0
1, 184500, Note_on_c, 0, 54, 66
1, 184500, Note_on_c, 0, 46, 49
1, 184520, Tempo, 722892
1, 184540, Tempo, 714286
1, 184560, Tempo, 710059
1, 184560, Note_on_c, 0, 46, 0
1, 184560, Note_on_c, 0, 54, 0
1, 184560, Note_on_c, 0, 55, 67
1, 184560, Note_on_c, 0, 47, 50
1, 184580, Tempo, 701754
1, 184600, Tempo, 697674
1, 184620, Tempo, 689655
1, 184620, Note_on_c, 0, 47, 0
1, 184620, Note_on_c, 0, 55, 0
1, 184620, Note_on_c, 0, 56, 68
1, 184620, Note_on_c, 0, 48, 51
1, 184640, Tempo, 685714
1, 184660, Tempo, 677966
1, 184680, Tempo, 670391
1, 184680, Note_on_c, 0, 48, 0
1, 184680, Note_on_c, 0, 56, 0
1, 184680, Note_on_c, 0, 57, 68
1, 184680, Note_on_c, 0, 49, 52
1, 184700, Tempo, 666667
1, 184720, Tempo, 659341
1, 184740, Tempo, 655738
1, 184740, Note_on_c, 0, 49, 0
1, 184740, Note_on_c, 0, 57, 0
1, 184740, Note_on_c, 0, 58, 69
1, 184740, Note_on_c, 0, 50, 52
1, 184760, Tempo, 648649
1, 184780, Tempo, 641711
1, 184784, Tempo, 631579
1, 184800, Tempo, 638298
1, 184800, Note_on_c, 0, 50, 0
1, 184800, Note_on_c, 0, 58, 0
1, 184800, Note_on_c, 0, 59, 69
1, 184800, Note_on_c, 0, 51, 53
1, 184860, Tempo, 634921
1, 184860, Note_on_c, 0, 51, 0
1, 184860, Note_on_c, 0, 59, 0
1, 184860, Note_on_c, 0, 60, 70
1, 184860, Note_on_c, 0, 52, 54
1, 184920, Tempo, 631579
1, 184920, Note_on_c, 0, 52, 0
1, 184920, Note_on_c, 0, 60, 0
1, 184920, Note_on_c, 0, 61, 71
1, 184920, Note_on_c, 0, 53, 54
1, 184960, Tempo, 628272
1, 184980, Note_on_c, 0, 53, 0
1, 184980, Note_on_c, 0, 61, 0
1, 184980, Note_on_c, 0, 62, 72
1, 184980, Note_on_c, 0, 54, 54
1, 185020, Tempo, 625000
1, 185040, Note_on_c, 0, 54, 0
1, 185040, Note_on_c, 0, 62, 0
1, 185040, Note_on_c, 0, 63, 72
1, 185040, Note_on_c, 0, 55, 55
1, 185080, Tempo, 621762
1, 185100, Note_on_c, 0, 55, 0
1, 185100, Note_on_c, 0, 63, 0
1, 185100, Note_on_c, 0, 64, 72
1, 185100, Note_on_c, 0, 56, 56
1, 185120, Tempo, 618557
1, 185160, Note_on_c, 0, 56, 0
1, 185160, Note_on_c, 0, 64, 0
1, 185160, Note_on_c, 0, 65, 72
1, 185160, Note_on_c, 0, 57, 57
1, 185180, Tempo, 615385
1, 185220, Note_on_c, 0, 57, 0
1, 185220, Note_on_c, 0, 65, 0
1, 185220, Note_on_c, 0, 66, 73
1, 185220, Note_on_c, 0, 58, 57
1, 185240, Tempo, 612245
1, 185260, Tempo, 606061
1, 185280, Note_on_c, 0, 58, 0
1, 185280, Note_on_c, 0, 66, 0
1, 185280, Note_on_c, 0, 67, 76
1, 185280, Note_on_c, 0, 59, 53
1, 185340, Note_on_c, 0, 59, 0
1, 185340, Note_on_c, 0, 67, 0
1, 185340, Note_on_c, 0, 66, 75
1, 185340, Note_on_c, 0, 58, 53
1, 185360, Tempo, 603015
1, 185400, Note_on_c, 0, 58, 0
1, 185400, Note_on_c, 0, 66, 0
1, 185400, Note_on_c, 0, 65, 74
1, 185400, Note_on_c, 0, 57, 52
1, 185440, Tempo, 600000
1, 185460, Note_on_c, 0, 57, 0
1, 185460, Note_on_c, 0, 65, 0
1, 185460, Note_on_c, 0, 64, 72
1, 185460, Note_on_c, 0, 56, 51
1, 185520, Tempo, 597015
1, 185520, Note_on_c, 0, 56, 0
1, 185520, Note_on_c, 0, 64, 0
1, 185520, Note_on_c, 0, 63, 72
1, 185520, Note_on_c, 0, 55, 51
1, 185580, Note_on_c, 0, 55, 0
1, 185580, Note_on_c, 0, 63, 0
1, 185580, Note_on_c, 0, 62, 71
1, 185580, Note_on_c, 0, 54, 50
1, 185600, Tempo, 594059
1, 185640, Note_on_c, 0, 54, 0
1, 185640, Note_on_c, 0, 62, 0
1, 185640, Note_on_c, 0, 61, 70
1, 185640, Note_on_c, 0, 53, 49
1, 185680, Tempo, 591133
1, 185700, Note_on_c, 0, 53, 0
1, 185700, Note_on_c, 0, 61, 0
1, 185700, Note_on_c, 0, 60, 68
1, 185700, Note_on_c, 0, 52, 49
1, 185760, Tempo, 588235
1, 185760, Note_on_c, 0, 52, 0
1, 185760, Note_on_c, 0, 60, 0
1, 185760, Note_on_c, 0, 59, 66
1, 185760, Note_on_c, 0, 51, 46
1, 185800, Tempo, 591133
1, 185820, Note_on_c, 0, 51, 0
1, 185820, Note_on_c, 0, 59, 0
1, 185820, Note_on_c, 0, 58, 67
1, 185820, Note_on_c, 0, 50, 47
1, 185840, Tempo, 594059
1, 185880, Tempo, 597015
1, 185880, Note_on_c, 0, 50, 0
1, 185880, Note_on_c, 0, 58, 0
1, 185880, Note_on_c, 0, 57, 68
1, 185880, Note_on_c, 0, 49, 48
1, 185920, Tempo, 600000
1, 185940, Note_on_c, 0, 49, 0
1, 185940, Note_on_c, 0, 57, 0
1, 185940, Note_on_c, 0, 56, 69
1, 185940, Note_on_c, 0, 48, 50
1, 185960, Tempo, 603015
1, 186000, Tempo, 606061
1, 186000, Note_on_c, 0, 48, 0
1, 186000, Note_on_c, 0, 56, 0
1, 186000, Note_on_c, 0, 55, 70
1, 186000, Note_on_c, 0, 47, 51
1, 186040, Tempo, 609137
1, 186060, Tempo, 612245
1, 186060, Note_on_c, 0, 47, 0
1, 186060, Note_on_c, 0, 55, 0
1, 186060, Note_on_c, 0, 54, 71
1, 186060, Note_on_c, 0, 46, 53
1, 186100, Tempo, 615385
1, 186120, Note_on_c, 0, 46, 0
1, 186120, Note_on_c, 0, 54, 0
1, 186120, Note_on_c, 0, 53, 72
1, 186120, Note_on_c, 0, 45, 54
1, 186140, Tempo, 618557
1, 186180, Tempo, 621762
1, 186180, Note_on_c, 0, 45, 0
1, 186180, Note_on_c, 0, 53, 0
1, 186180, Note_on_c, 0, 52, 73
1, 186180, Note_on_c, 0, 44, 55
1, 186220, Tempo, 625000
1, 186240, Note_on_c, 0, 44, 0
1, 186240, Note_on_c, 0, 52, 0
1, 186240, Note_on_c, 0, 51, 74
1, 186240, Note_on_c, 0, 43, 59
1, 186260, Tempo, 628272
1, 186300, Tempo, 631579
1, 186300, Note_on_c, 0, 43, 0
1, 186300, Note_on_c, 0, 51, 0
1, 186300, Note_on_c, 0, 50, 75
1, 186300, Note_on_c, 0, 42, 60
1, 186340, Tempo, 634921
1, 186360, Tempo, 638298
1, 186360, Note_on_c, 0, 42, 0
1, 186360, Note_on_c, 0, 50, 0
1, 186360, Note_on_c, 0, 49, 77
1, 186360, Note_on_c, 0, 41, 62
1, 186400, Tempo, 641711
1, 186420, Note_on_c, 0, 41, 0
1, 186420, Note_on_c, 0, 49, 0
1, 186420, Note_on_c, 0, 48, 79
1, 186420, Note_on_c, 0, 40, 63
1, 186440, Tempo, 645161
1, 186480, Tempo, 648649
1, 186480, Note_on_c, 0, 40, 0
1, 186480, Note_on_c, 0, 48, 0
1, 186480, Note_on_c, 0, 47, 80
1, 186480, Note_on_c, 0, 39, 64
1, 186520, Tempo, 652174
1, 186540, Note_on_c, 0, 39, 0
1, 186540, Note_on_c, 0, 47, 0
1, 186540, Note_on_c, 0, 46, 81
1, 186540, Note_on_c, 0, 38, 66
1, 186560, Tempo, 655738
1, 186600, Tempo, 659341
1, 186600, Note_on_c, 0, 38, 0
1, 186600, Note_on_c, 0, 46, 0
1, 186600, Note_on_c, 0, 45, 83
1, 186600, Note_on_c, 0, 37, 67
1, 186640, Tempo, 662983
1, 186660, Tempo, 666667
1, 186660, Note_on_c, 0, 37, 0
1, 186660, Note_on_c, 0, 45, 0
1, 186660, Note_on_c, 0, 44, 85
1, 186660, Note_on_c, 0, 36, 69
1, 186720, Tempo, 1008403
1, 186720, Note_on_c, 0, 36, 0
1, 186720, Note_on_c, 0, 44, 0
1, 186720, Note_on_c, 0, 43, 97
1, 186720, Note_on_c, 0, 31, 79
1, 186720, Note_on_c, 0, 35, 79
1, 186840, Note_on_c, 0, 35, 0
1, 186840, Note_on_c, 0, 31, 0
1, 186840, Note_on_c, 0, 43, 0
1, 186889, Control_c, 0, 64, 0
1, 187200, Note_on_c, 0, 103, 101
1, 187200, Note_on_c, 0, 98, 86
1, 187200, Note_on_c, 0, 95, 72
1, 187200, Note_on_c, 0, 91, 72
1, 187200, Note_on_c, 0, 67, 81
1, 187200, Note_on_c, 0, 62, 67
1, 187200, Note_on_c, 0, 59, 67
1, 187200, Note_on_c, 0, 55, 56
1, 187242, Control_c, 0, 64, 127
1, 187320, Note_on_c, 0, 55, 0
1, 187320, Note_on_c, 0, 103, 0
1, 187320, Note_on_c, 0, 67, 0
1, 187320, Note_on_c, 0, 98, 0
1, 187320, Note_on_c, 0, 95, 0
1, 187320, Note_on_c, 0, 91, 0
1, 187320, Note_on_c, 0, 62, 0
1, 187320, Note_on_c, 0, 59, 0
1, 187934, Control_c, 0, 64, 0
1, 188640, Tempo, 1200000
1, 188640, End_track
0, 0, End_of_file
