0, 0, Header, 0, 1, 480
1, 0, Start_track
1, 0, Title_t, "Liebestraum Nr. 3"
1, 0, Copyright_t, "Copyright © 2005 von Bernd Krüger. "
1, 0, Text_t, "Franz Liszt"
1, 0, Text_t, "Fertiggestellt am  30.10.2005\012"
1, 0, Text_t, "Update am 20.9.2011\012"
1, 0, Text_t, "Update am 2.3.2014\012"
1, 0, Text_t, "Dauer:  4:09 Minuten\012"
1, 0, Time_signature, 6, 2, 24, 8
1, 0, Key_signature, -4, "major"
1, 0, Tempo, 369572
1, 0, Program_c, 0, 0
1, 0, Control_c, 0, 7, 100
1, 0, Control_c, 0, 10, 64
1, 0, Program_c, 0, 0
1, 0, Control_c, 0, 7, 100
1, 0, Control_c, 0, 10, 64
1, 0, Program_c, 0, 0
1, 2400, Tempo, 468494
1, 2400, Marker_t, "Poco Allegro con affetto"
1, 2400, Control_c, 0, 91, 127
1, 2400, Note_on_c, 0, 51, 44
1, 2880, Tempo, 499127
1, 2880, Note_on_c, 0, 51, 0
1, 2880, Note_on_c, 0, 44, 40
1, 2880, Note_on_c, 0, 60, 49
1, 2993, Control_c, 0, 64, 127
1, 3120, Tempo, 432339
1, 3120, Note_on_c, 0, 63, 34
1, 3360, Tempo, 370393
1, 3360, Note_on_c, 0, 63, 0
1, 3360, Note_on_c, 0, 44, 0
1, 3360, Note_on_c, 0, 68, 40
1, 3600, Tempo, 377881
1, 3600, Note_on_c, 0, 68, 0
1, 3600, Note_on_c, 0, 72, 36
1, 3840, Tempo, 392003
1, 3840, Note_on_c, 0, 72, 0
1, 3840, Note_on_c, 0, 68, 32
1, 4080, Tempo, 401365
1, 4080, Note_on_c, 0, 68, 0
1, 4080, Note_on_c, 0, 63, 32
1, 4320, Tempo, 479195
1, 4320, Note_on_c, 0, 63, 0
1, 4320, Note_on_c, 0, 60, 0
1, 4320, Note_on_c, 0, 60, 44
1, 4560, Tempo, 403280
1, 4560, Note_on_c, 0, 63, 37
1, 4800, Tempo, 373855
1, 4800, Note_on_c, 0, 63, 0
1, 4800, Note_on_c, 0, 68, 40
1, 5040, Tempo, 381316
1, 5040, Note_on_c, 0, 68, 0
1, 5040, Note_on_c, 0, 72, 37
1, 5280, Tempo, 392003
1, 5280, Note_on_c, 0, 72, 0
1, 5280, Note_on_c, 0, 68, 33
1, 5520, Tempo, 472441
1, 5520, Note_on_c, 0, 68, 0
1, 5520, Note_on_c, 0, 63, 34
1, 5760, Tempo, 487527
1, 5760, Note_on_c, 0, 63, 0
1, 5760, Note_on_c, 0, 60, 0
1, 5760, Note_on_c, 0, 43, 32
1, 5760, Note_on_c, 0, 60, 38
1, 5775, Control_c, 0, 64, 0
1, 5886, Control_c, 0, 64, 127
1, 6000, Tempo, 413195
1, 6000, Note_on_c, 0, 64, 30
1, 6240, Tempo, 374508
1, 6240, Note_on_c, 0, 64, 0
1, 6240, Note_on_c, 0, 43, 0
1, 6240, Note_on_c, 0, 70, 34
1, 6480, Tempo, 384813
1, 6480, Note_on_c, 0, 70, 0
1, 6480, Note_on_c, 0, 72, 31
1, 6720, Note_on_c, 0, 72, 0
1, 6720, Note_on_c, 0, 70, 27
1, 6960, Tempo, 392182
1, 6960, Note_on_c, 0, 70, 0
1, 6960, Note_on_c, 0, 64, 27
1, 7200, Tempo, 421082
1, 7200, Note_on_c, 0, 64, 0
1, 7440, Tempo, 390168
1, 7440, Note_on_c, 0, 64, 30
1, 7680, Tempo, 379171
1, 7680, Note_on_c, 0, 64, 0
1, 7680, Note_on_c, 0, 70, 34
1, 7920, Note_on_c, 0, 70, 0
1, 7920, Note_on_c, 0, 72, 30
1, 8160, Tempo, 407194
1, 8160, Note_on_c, 0, 72, 0
1, 8160, Note_on_c, 0, 60, 0
1, 8160, Note_on_c, 0, 70, 26
1, 8160, Note_on_c, 0, 60, 39
1, 8400, Tempo, 436840
1, 8400, Note_on_c, 0, 70, 0
1, 8400, Note_on_c, 0, 64, 26
1, 8640, Tempo, 465911
1, 8640, Note_on_c, 0, 64, 0
1, 8640, Note_on_c, 0, 60, 0
1, 8640, Note_on_c, 0, 41, 36
1, 8640, Note_on_c, 0, 60, 45
1, 8656, Control_c, 0, 64, 0
1, 8766, Control_c, 0, 64, 127
1, 8880, Tempo, 399441
1, 8880, Note_on_c, 0, 63, 34
1, 9120, Tempo, 363658
1, 9120, Note_on_c, 0, 63, 0
1, 9120, Note_on_c, 0, 41, 0
1, 9120, Note_on_c, 0, 69, 36
1, 9360, Tempo, 374508
1, 9360, Note_on_c, 0, 69, 0
1, 9360, Note_on_c, 0, 72, 35
1, 9600, Tempo, 384813
1, 9600, Note_on_c, 0, 72, 0
1, 9600, Note_on_c, 0, 60, 0
1, 9600, Note_on_c, 0, 69, 36
1, 9600, Note_on_c, 0, 60, 47
1, 9840, Tempo, 496936
1, 9840, Note_on_c, 0, 69, 0
1, 9840, Note_on_c, 0, 63, 38
1, 10080, Tempo, 443754
1, 10080, Note_on_c, 0, 63, 0
1, 10080, Note_on_c, 0, 60, 0
1, 10080, Note_on_c, 0, 61, 52
1, 10095, Control_c, 0, 64, 0
1, 10320, Tempo, 384813
1, 10320, Note_on_c, 0, 63, 38
1, 10343, Control_c, 0, 64, 127
1, 10560, Tempo, 366995
1, 10560, Note_on_c, 0, 63, 0
1, 10560, Note_on_c, 0, 69, 43
1, 10800, Tempo, 376199
1, 10800, Note_on_c, 0, 69, 0
1, 10800, Note_on_c, 0, 72, 40
1, 11040, Tempo, 384813
1, 11040, Note_on_c, 0, 72, 0
1, 11040, Note_on_c, 0, 61, 0
1, 11040, Note_on_c, 0, 69, 37
1, 11040, Note_on_c, 0, 60, 49
1, 11280, Tempo, 432339
1, 11280, Note_on_c, 0, 69, 0
1, 11280, Note_on_c, 0, 63, 37
1, 11400, Tempo, 754812
1, 11520, Tempo, 465911
1, 11520, Note_on_c, 0, 63, 0
1, 11520, Note_on_c, 0, 60, 0
1, 11520, Note_on_c, 0, 34, 40
1, 11520, Note_on_c, 0, 60, 56
1, 11532, Control_c, 0, 64, 0
1, 11616, Control_c, 0, 64, 127
1, 11760, Tempo, 405241
1, 11760, Note_on_c, 0, 62, 38
1, 12000, Tempo, 373855
1, 12000, Note_on_c, 0, 62, 0
1, 12000, Note_on_c, 0, 34, 0
1, 12000, Note_on_c, 0, 68, 43
1, 12240, Tempo, 384813
1, 12240, Note_on_c, 0, 68, 0
1, 12240, Note_on_c, 0, 72, 42
1, 12480, Note_on_c, 0, 72, 0
1, 12480, Note_on_c, 0, 68, 39
1, 12720, Tempo, 421496
1, 12720, Note_on_c, 0, 68, 0
1, 12720, Note_on_c, 0, 62, 39
1, 12960, Tempo, 463320
1, 12960, Note_on_c, 0, 62, 0
1, 12960, Note_on_c, 0, 60, 0
1, 12960, Note_on_c, 0, 53, 42
1, 13200, Tempo, 405241
1, 13200, Note_on_c, 0, 62, 36
1, 13440, Tempo, 383068
1, 13440, Note_on_c, 0, 62, 0
1, 13440, Note_on_c, 0, 53, 0
1, 13440, Note_on_c, 0, 68, 40
1, 13450, Control_c, 0, 64, 0
1, 13500, Control_c, 0, 64, 127
1, 13680, Note_on_c, 0, 68, 0
1, 13680, Note_on_c, 0, 72, 37
1, 13920, Tempo, 415254
1, 13920, Note_on_c, 0, 72, 0
1, 13920, Note_on_c, 0, 68, 32
1, 13920, Note_on_c, 0, 53, 42
1, 14160, Tempo, 476455
1, 14160, Note_on_c, 0, 68, 0
1, 14160, Note_on_c, 0, 62, 34
1, 14340, Note_on_c, 0, 39, 41
1, 14400, Tempo, 417304
1, 14400, Note_on_c, 0, 62, 0
1, 14400, Note_on_c, 0, 53, 0
1, 14400, Note_on_c, 0, 53, 48
1, 14400, Control_c, 0, 64, 0
1, 14640, Tempo, 386573
1, 14640, Note_on_c, 0, 61, 38
1, 14880, Note_on_c, 0, 61, 0
1, 14880, Note_on_c, 0, 53, 0
1, 14880, Note_on_c, 0, 39, 0
1, 14880, Note_on_c, 0, 63, 45
1, 14880, Note_on_c, 0, 55, 40
1, 15120, Note_on_c, 0, 63, 0
1, 15120, Note_on_c, 0, 72, 38
1, 15360, Tempo, 401365
1, 15360, Note_on_c, 0, 72, 0
1, 15360, Note_on_c, 0, 55, 0
1, 15360, Note_on_c, 0, 63, 34
1, 15360, Note_on_c, 0, 56, 46
1, 15600, Tempo, 441436
1, 15600, Note_on_c, 0, 63, 0
1, 15600, Note_on_c, 0, 61, 33
1, 15780, Note_on_c, 0, 56, 0
1, 15780, Note_on_c, 0, 51, 42
1, 15840, Tempo, 417304
1, 15840, Note_on_c, 0, 61, 0
1, 15840, Note_on_c, 0, 60, 50
1, 15988, Control_c, 0, 64, 127
1, 16080, Tempo, 405241
1, 16080, Note_on_c, 0, 61, 38
1, 16320, Tempo, 390168
1, 16320, Note_on_c, 0, 61, 0
1, 16320, Note_on_c, 0, 51, 0
1, 16320, Note_on_c, 0, 63, 43
1, 16560, Note_on_c, 0, 63, 0
1, 16560, Note_on_c, 0, 67, 38
1, 16800, Tempo, 441436
1, 16800, Note_on_c, 0, 67, 0
1, 16800, Note_on_c, 0, 60, 0
1, 16800, Note_on_c, 0, 63, 34
1, 16800, Note_on_c, 0, 58, 50
1, 17040, Note_on_c, 0, 63, 0
1, 17040, Note_on_c, 0, 61, 34
1, 17280, Tempo, 409165
1, 17280, Note_on_c, 0, 61, 0
1, 17280, Note_on_c, 0, 58, 0
1, 17280, Note_on_c, 0, 44, 42
1, 17280, Note_on_c, 0, 56, 46
1, 17280, Control_c, 0, 64, 0
1, 17379, Control_c, 0, 64, 127
1, 17520, Note_on_c, 0, 60, 38
1, 17760, Tempo, 401365
1, 17760, Note_on_c, 0, 60, 0
1, 17760, Note_on_c, 0, 44, 0
1, 17760, Note_on_c, 0, 63, 43
1, 18000, Note_on_c, 0, 63, 0
1, 18000, Note_on_c, 0, 68, 38
1, 18240, Tempo, 421496
1, 18240, Note_on_c, 0, 68, 0
1, 18240, Note_on_c, 0, 63, 34
1, 18480, Tempo, 446097
1, 18480, Note_on_c, 0, 63, 0
1, 18480, Note_on_c, 0, 60, 34
1, 18720, Tempo, 419375
1, 18720, Note_on_c, 0, 60, 0
1, 18720, Note_on_c, 0, 56, 0
1, 18720, Note_on_c, 0, 32, 42
1, 18946, Note_on_c, 0, 56, 38
1, 19186, Note_on_c, 0, 56, 0
1, 19200, Tempo, 434562
1, 19200, Note_on_c, 0, 32, 0
1, 19200, Note_on_c, 0, 60, 43
1, 19440, Tempo, 439110
1, 19440, Note_on_c, 0, 60, 0
1, 19468, Note_on_c, 0, 68, 38
1, 19680, Tempo, 473784
1, 19680, Note_on_c, 0, 63, 34
1, 19680, Note_on_c, 0, 51, 41
1, 19691, Control_c, 0, 64, 0
1, 19708, Note_on_c, 0, 68, 0
1, 19776, Control_c, 0, 64, 127
1, 19920, Note_on_c, 0, 63, 0
1, 19920, Note_on_c, 0, 56, 34
1, 20100, Note_on_c, 0, 51, 0
1, 20100, Note_on_c, 0, 44, 40
1, 20160, Tempo, 496155
1, 20160, Note_on_c, 0, 56, 0
1, 20160, Note_on_c, 0, 60, 44
1, 20172, Control_c, 0, 64, 0
1, 20400, Tempo, 419375
1, 20400, Note_on_c, 0, 63, 34
1, 20414, Control_c, 0, 64, 127
1, 20640, Tempo, 370393
1, 20640, Note_on_c, 0, 63, 0
1, 20640, Note_on_c, 0, 44, 0
1, 20640, Note_on_c, 0, 68, 40
1, 20880, Tempo, 384813
1, 20880, Note_on_c, 0, 68, 0
1, 20880, Note_on_c, 0, 72, 36
1, 21120, Tempo, 395674
1, 21120, Note_on_c, 0, 72, 0
1, 21120, Note_on_c, 0, 68, 32
1, 21360, Tempo, 407194
1, 21360, Note_on_c, 0, 68, 0
1, 21360, Note_on_c, 0, 63, 30
1, 21600, Tempo, 479195
1, 21600, Note_on_c, 0, 63, 0
1, 21600, Note_on_c, 0, 60, 0
1, 21600, Note_on_c, 0, 60, 42
1, 21840, Tempo, 390269
1, 21840, Note_on_c, 0, 63, 37
1, 22080, Tempo, 363658
1, 22080, Note_on_c, 0, 63, 0
1, 22080, Note_on_c, 0, 68, 40
1, 22320, Tempo, 372116
1, 22320, Note_on_c, 0, 68, 0
1, 22320, Note_on_c, 0, 72, 37
1, 22560, Tempo, 405241
1, 22560, Note_on_c, 0, 72, 0
1, 22560, Note_on_c, 0, 68, 33
1, 22800, Tempo, 551775
1, 22800, Note_on_c, 0, 68, 0
1, 22800, Note_on_c, 0, 63, 33
1, 23040, Tempo, 436840
1, 23040, Note_on_c, 0, 63, 0
1, 23040, Note_on_c, 0, 60, 0
1, 23040, Note_on_c, 0, 43, 35
1, 23040, Note_on_c, 0, 60, 38
1, 23052, Control_c, 0, 64, 0
1, 23223, Control_c, 0, 64, 127
1, 23280, Tempo, 405241
1, 23280, Note_on_c, 0, 64, 28
1, 23520, Tempo, 384813
1, 23520, Note_on_c, 0, 64, 0
1, 23520, Note_on_c, 0, 43, 0
1, 23520, Note_on_c, 0, 70, 32
1, 23760, Note_on_c, 0, 70, 0
1, 23760, Note_on_c, 0, 72, 30
1, 24000, Note_on_c, 0, 72, 0
1, 24000, Note_on_c, 0, 70, 28
1, 24240, Tempo, 399441
1, 24240, Note_on_c, 0, 70, 0
1, 24240, Note_on_c, 0, 64, 28
1, 24480, Tempo, 450891
1, 24480, Note_on_c, 0, 64, 0
1, 24480, Note_on_c, 0, 42, 45
1, 24494, Control_c, 0, 64, 0
1, 24720, Tempo, 411184
1, 24720, Note_on_c, 0, 64, 32
1, 24743, Control_c, 0, 64, 127
1, 24960, Tempo, 369572
1, 24960, Note_on_c, 0, 64, 0
1, 24960, Note_on_c, 0, 42, 0
1, 24960, Note_on_c, 0, 70, 37
1, 25200, Tempo, 386573
1, 25200, Note_on_c, 0, 70, 0
1, 25200, Note_on_c, 0, 72, 35
1, 25440, Note_on_c, 0, 72, 0
1, 25440, Note_on_c, 0, 60, 0
1, 25440, Note_on_c, 0, 70, 32
1, 25440, Note_on_c, 0, 60, 45
1, 25680, Tempo, 403280
1, 25680, Note_on_c, 0, 70, 0
1, 25680, Note_on_c, 0, 64, 37
1, 25920, Tempo, 439110
1, 25920, Note_on_c, 0, 64, 0
1, 25920, Note_on_c, 0, 60, 0
1, 25920, Note_on_c, 0, 41, 49
1, 25920, Note_on_c, 0, 60, 56
1, 25933, Control_c, 0, 64, 0
1, 26046, Control_c, 0, 64, 127
1, 26160, Tempo, 399441
1, 26160, Note_on_c, 0, 63, 42
1, 26400, Tempo, 363658
1, 26400, Note_on_c, 0, 63, 0
1, 26400, Note_on_c, 0, 41, 0
1, 26400, Note_on_c, 0, 69, 45
1, 26640, Tempo, 377881
1, 26640, Note_on_c, 0, 69, 0
1, 26640, Note_on_c, 0, 72, 43
1, 26880, Tempo, 390168
1, 26880, Note_on_c, 0, 72, 0
1, 26880, Note_on_c, 0, 60, 0
1, 26880, Note_on_c, 0, 69, 45
1, 26880, Note_on_c, 0, 60, 59
1, 27120, Tempo, 409165
1, 27120, Note_on_c, 0, 69, 0
1, 27120, Note_on_c, 0, 63, 46
1, 27240, Note_on_c, 0, 60, 0
1, 27240, Note_on_c, 0, 53, 47
1, 27300, Note_on_c, 0, 57, 49
1, 27360, Tempo, 427930
1, 27360, Note_on_c, 0, 63, 0
1, 27360, Note_on_c, 0, 61, 64
1, 27600, Tempo, 388375
1, 27600, Note_on_c, 0, 63, 47
1, 27840, Tempo, 366995
1, 27840, Note_on_c, 0, 63, 0
1, 27840, Note_on_c, 0, 53, 0
1, 27840, Note_on_c, 0, 57, 0
1, 27840, Note_on_c, 0, 69, 54
1, 28080, Tempo, 377881
1, 28080, Note_on_c, 0, 69, 0
1, 28080, Note_on_c, 0, 72, 50
1, 28320, Tempo, 409165
1, 28320, Note_on_c, 0, 72, 0
1, 28320, Note_on_c, 0, 61, 0
1, 28320, Note_on_c, 0, 69, 47
1, 28320, Note_on_c, 0, 60, 62
1, 28333, Control_c, 0, 64, 0
1, 28560, Tempo, 544267
1, 28560, Note_on_c, 0, 69, 0
1, 28560, Note_on_c, 0, 63, 51
1, 28740, Note_on_c, 0, 46, 49
1, 28800, Tempo, 421496
1, 28800, Note_on_c, 0, 63, 0
1, 28800, Note_on_c, 0, 60, 0
1, 28800, Note_on_c, 0, 65, 62
1, 28995, Control_c, 0, 64, 127
1, 29040, Tempo, 399441
1, 29040, Note_on_c, 0, 62, 38
1, 29280, Tempo, 374508
1, 29280, Note_on_c, 0, 62, 0
1, 29280, Note_on_c, 0, 46, 0
1, 29280, Note_on_c, 0, 68, 43
1, 29520, Tempo, 381316
1, 29520, Note_on_c, 0, 68, 0
1, 29520, Note_on_c, 0, 77, 42
1, 29760, Note_on_c, 0, 77, 0
1, 29760, Note_on_c, 0, 72, 39
1, 30000, Tempo, 441436
1, 30000, Note_on_c, 0, 72, 0
1, 30000, Note_on_c, 0, 68, 39
1, 30240, Tempo, 421496
1, 30240, Note_on_c, 0, 68, 0
1, 30240, Note_on_c, 0, 65, 0
1, 30240, Note_on_c, 0, 34, 39
1, 30480, Tempo, 399441
1, 30480, Note_on_c, 0, 56, 36
1, 30720, Tempo, 379603
1, 30720, Note_on_c, 0, 56, 0
1, 30720, Note_on_c, 0, 34, 0
1, 30720, Note_on_c, 0, 58, 40
1, 30731, Control_c, 0, 64, 0
1, 30846, Control_c, 0, 64, 127
1, 30960, Note_on_c, 0, 58, 0
1, 30960, Note_on_c, 0, 65, 37
1, 31200, Tempo, 405241
1, 31200, Note_on_c, 0, 65, 0
1, 31200, Note_on_c, 0, 62, 33
1, 31200, Note_on_c, 0, 53, 42
1, 31440, Tempo, 434562
1, 31440, Note_on_c, 0, 62, 0
1, 31440, Note_on_c, 0, 58, 33
1, 31680, Tempo, 423609
1, 31680, Note_on_c, 0, 58, 0
1, 31680, Note_on_c, 0, 53, 0
1, 31680, Note_on_c, 0, 39, 41
1, 31680, Note_on_c, 0, 53, 48
1, 31680, Control_c, 0, 64, 0
1, 31920, Tempo, 397562
1, 31920, Note_on_c, 0, 58, 38
1, 32160, Tempo, 386573
1, 32160, Note_on_c, 0, 58, 0
1, 32160, Note_on_c, 0, 53, 0
1, 32160, Note_on_c, 0, 39, 0
1, 32160, Note_on_c, 0, 61, 45
1, 32160, Note_on_c, 0, 55, 40
1, 32400, Note_on_c, 0, 61, 0
1, 32400, Note_on_c, 0, 67, 38
1, 32640, Note_on_c, 0, 67, 0
1, 32640, Note_on_c, 0, 55, 0
1, 32640, Note_on_c, 0, 63, 34
1, 32640, Note_on_c, 0, 56, 46
1, 32880, Tempo, 405241
1, 32880, Note_on_c, 0, 63, 0
1, 32880, Note_on_c, 0, 61, 35
1, 33120, Tempo, 441436
1, 33120, Note_on_c, 0, 61, 0
1, 33120, Note_on_c, 0, 56, 0
1, 33120, Note_on_c, 0, 51, 42
1, 33120, Note_on_c, 0, 60, 50
1, 33233, Control_c, 0, 64, 127
1, 33360, Tempo, 390168
1, 33360, Note_on_c, 0, 61, 38
1, 33600, Note_on_c, 0, 61, 0
1, 33600, Note_on_c, 0, 51, 0
1, 33600, Note_on_c, 0, 63, 43
1, 33840, Note_on_c, 0, 63, 0
1, 33840, Note_on_c, 0, 67, 38
1, 34080, Tempo, 448498
1, 34080, Note_on_c, 0, 67, 0
1, 34080, Note_on_c, 0, 60, 0
1, 34080, Note_on_c, 0, 63, 33
1, 34080, Note_on_c, 0, 58, 50
1, 34320, Note_on_c, 0, 63, 0
1, 34320, Note_on_c, 0, 61, 33
1, 34560, Tempo, 423609
1, 34560, Note_on_c, 0, 61, 0
1, 34560, Note_on_c, 0, 58, 0
1, 34560, Note_on_c, 0, 44, 42
1, 34560, Note_on_c, 0, 56, 46
1, 34568, Control_c, 0, 64, 0
1, 34730, Control_c, 0, 64, 127
1, 34800, Tempo, 407194
1, 34800, Note_on_c, 0, 60, 38
1, 35040, Tempo, 377881
1, 35040, Note_on_c, 0, 60, 0
1, 35040, Note_on_c, 0, 56, 0
1, 35040, Note_on_c, 0, 44, 0
1, 35040, Note_on_c, 0, 63, 43
1, 35280, Tempo, 392003
1, 35280, Note_on_c, 0, 63, 0
1, 35280, Note_on_c, 0, 68, 38
1, 35520, Note_on_c, 0, 68, 0
1, 35520, Note_on_c, 0, 63, 34
1, 35760, Note_on_c, 0, 63, 0
1, 35760, Note_on_c, 0, 60, 34
1, 36000, Tempo, 401365
1, 36000, Note_on_c, 0, 60, 0
1, 36000, Note_on_c, 0, 32, 42
1, 36240, Note_on_c, 0, 60, 38
1, 36480, Tempo, 393830
1, 36480, Note_on_c, 0, 60, 0
1, 36480, Note_on_c, 0, 32, 0
1, 36480, Note_on_c, 0, 68, 43
1, 36720, Tempo, 392003
1, 36720, Note_on_c, 0, 68, 0
1, 36720, Note_on_c, 0, 63, 38
1, 36960, Note_on_c, 0, 63, 0
1, 36960, Note_on_c, 0, 60, 38
1, 37200, Tempo, 509597
1, 37200, Note_on_c, 0, 60, 0
1, 37200, Note_on_c, 0, 56, 47
1, 37437, Note_on_c, 0, 56, 0
1, 37440, Tempo, 427930
1, 37440, Note_on_c, 0, 40, 40
1, 37440, Note_on_c, 0, 56, 50
1, 37446, Control_c, 0, 64, 0
1, 37646, Control_c, 0, 64, 127
1, 37680, Tempo, 403280
1, 37680, Note_on_c, 0, 61, 38
1, 37920, Tempo, 388375
1, 37920, Note_on_c, 0, 61, 0
1, 37920, Note_on_c, 0, 40, 0
1, 37920, Note_on_c, 0, 68, 40
1, 38160, Note_on_c, 0, 68, 0
1, 38160, Note_on_c, 0, 64, 38
1, 38400, Note_on_c, 0, 64, 0
1, 38400, Note_on_c, 0, 61, 34
1, 38640, Tempo, 390168
1, 38640, Note_on_c, 0, 61, 0
1, 38640, Note_on_c, 0, 56, 0
1, 38640, Note_on_c, 0, 55, 51
1, 38880, Tempo, 427930
1, 38880, Note_on_c, 0, 55, 0
1, 38880, Note_on_c, 0, 37, 35
1, 38880, Note_on_c, 0, 52, 37
1, 38880, Note_on_c, 0, 56, 55
1, 38892, Control_c, 0, 64, 0
1, 39075, Control_c, 0, 64, 127
1, 39120, Tempo, 390168
1, 39120, Note_on_c, 0, 61, 40
1, 39360, Note_on_c, 0, 61, 0
1, 39360, Note_on_c, 0, 37, 0
1, 39360, Note_on_c, 0, 52, 0
1, 39360, Note_on_c, 0, 68, 45
1, 39600, Note_on_c, 0, 68, 0
1, 39600, Note_on_c, 0, 64, 42
1, 39840, Note_on_c, 0, 64, 0
1, 39840, Note_on_c, 0, 61, 42
1, 40080, Tempo, 411184
1, 40080, Note_on_c, 0, 61, 0
1, 40080, Note_on_c, 0, 56, 0
1, 40080, Note_on_c, 0, 58, 51
1, 40320, Tempo, 439110
1, 40320, Note_on_c, 0, 58, 0
1, 40320, Note_on_c, 0, 44, 35
1, 40320, Note_on_c, 0, 51, 40
1, 40320, Note_on_c, 0, 60, 56
1, 40334, Control_c, 0, 64, 0
1, 40532, Control_c, 0, 64, 127
1, 40560, Tempo, 393830
1, 40560, Note_on_c, 0, 63, 40
1, 40800, Tempo, 381316
1, 40800, Note_on_c, 0, 63, 0
1, 40800, Note_on_c, 0, 44, 0
1, 40800, Note_on_c, 0, 51, 0
1, 40800, Note_on_c, 0, 72, 45
1, 41040, Note_on_c, 0, 72, 0
1, 41040, Note_on_c, 0, 68, 42
1, 41280, Note_on_c, 0, 68, 0
1, 41280, Note_on_c, 0, 63, 38
1, 41520, Tempo, 411184
1, 41520, Note_on_c, 0, 63, 0
1, 41520, Note_on_c, 0, 60, 38
1, 41760, Tempo, 446097
1, 41760, Note_on_c, 0, 60, 0
1, 41760, Note_on_c, 0, 60, 0
1, 41760, Note_on_c, 0, 32, 40
1, 42000, Tempo, 397562
1, 42000, Note_on_c, 0, 63, 40
1, 42240, Tempo, 383068
1, 42240, Note_on_c, 0, 63, 0
1, 42240, Note_on_c, 0, 32, 0
1, 42240, Note_on_c, 0, 72, 45
1, 42480, Note_on_c, 0, 72, 0
1, 42480, Note_on_c, 0, 68, 42
1, 42720, Note_on_c, 0, 68, 0
1, 42720, Note_on_c, 0, 63, 42
1, 42960, Tempo, 403280
1, 42960, Note_on_c, 0, 63, 0
1, 42960, Note_on_c, 0, 60, 46
1, 43198, Note_on_c, 0, 60, 0
1, 43200, Tempo, 434562
1, 43200, Note_on_c, 0, 44, 46
1, 43200, Note_on_c, 0, 60, 57
1, 43211, Control_c, 0, 64, 0
1, 43349, Control_c, 0, 64, 127
1, 43440, Tempo, 393830
1, 43440, Note_on_c, 0, 65, 43
1, 43680, Tempo, 363658
1, 43680, Note_on_c, 0, 65, 0
1, 43680, Note_on_c, 0, 44, 0
1, 43680, Note_on_c, 0, 72, 46
1, 43920, Tempo, 381316
1, 43920, Note_on_c, 0, 72, 0
1, 43920, Note_on_c, 0, 68, 39
1, 44160, Note_on_c, 0, 68, 0
1, 44160, Note_on_c, 0, 60, 0
1, 44160, Note_on_c, 0, 65, 40
1, 44400, Tempo, 401365
1, 44400, Note_on_c, 0, 65, 0
1, 44400, Note_on_c, 0, 59, 59
1, 44640, Tempo, 427930
1, 44640, Note_on_c, 0, 59, 0
1, 44640, Note_on_c, 0, 41, 40
1, 44640, Note_on_c, 0, 56, 42
1, 44640, Note_on_c, 0, 60, 62
1, 44653, Control_c, 0, 64, 0
1, 44835, Control_c, 0, 64, 127
1, 44880, Tempo, 372116
1, 44880, Note_on_c, 0, 65, 48
1, 45120, Tempo, 358766
1, 45120, Note_on_c, 0, 65, 0
1, 45120, Note_on_c, 0, 41, 0
1, 45120, Note_on_c, 0, 56, 0
1, 45120, Note_on_c, 0, 72, 53
1, 45360, Tempo, 379603
1, 45360, Note_on_c, 0, 72, 0
1, 45360, Note_on_c, 0, 68, 47
1, 45600, Tempo, 403280
1, 45600, Note_on_c, 0, 68, 0
1, 45600, Note_on_c, 0, 65, 47
1, 45840, Tempo, 503187
1, 45840, Note_on_c, 0, 65, 0
1, 45840, Note_on_c, 0, 60, 0
1, 45840, Note_on_c, 0, 62, 59
1, 46080, Tempo, 419375
1, 46080, Note_on_c, 0, 62, 0
1, 46080, Note_on_c, 0, 55, 46
1, 46080, Note_on_c, 0, 36, 46
1, 46080, Note_on_c, 0, 64, 63
1, 46098, Control_c, 0, 64, 0
1, 46292, Control_c, 0, 64, 127
1, 46320, Tempo, 384813
1, 46320, Note_on_c, 0, 67, 50
1, 46560, Note_on_c, 0, 67, 0
1, 46560, Note_on_c, 0, 55, 0
1, 46560, Note_on_c, 0, 36, 0
1, 46560, Note_on_c, 0, 72, 56
1, 46800, Note_on_c, 0, 72, 0
1, 46800, Note_on_c, 0, 76, 52
1, 47040, Note_on_c, 0, 76, 0
1, 47040, Note_on_c, 0, 72, 49
1, 47280, Tempo, 409165
1, 47280, Note_on_c, 0, 72, 0
1, 47280, Note_on_c, 0, 67, 49
1, 47520, Tempo, 448498
1, 47520, Note_on_c, 0, 67, 0
1, 47520, Note_on_c, 0, 64, 0
1, 47520, Note_on_c, 0, 64, 63
1, 47760, Tempo, 407194
1, 47760, Note_on_c, 0, 67, 50
1, 48000, Tempo, 384813
1, 48000, Note_on_c, 0, 67, 0
1, 48000, Note_on_c, 0, 72, 56
1, 48240, Note_on_c, 0, 72, 0
1, 48240, Note_on_c, 0, 76, 52
1, 48480, Note_on_c, 0, 76, 0
1, 48480, Note_on_c, 0, 72, 49
1, 48720, Tempo, 487527
1, 48720, Note_on_c, 0, 72, 0
1, 48720, Note_on_c, 0, 67, 49
1, 48840, Note_on_c, 0, 45, 41
1, 48900, Note_on_c, 0, 52, 42
1, 48960, Tempo, 439110
1, 48960, Note_on_c, 0, 67, 0
1, 48960, Note_on_c, 0, 64, 0
1, 48960, Note_on_c, 0, 60, 42
1, 48960, Note_on_c, 0, 64, 46
1, 48974, Control_c, 0, 64, 0
1, 49172, Control_c, 0, 64, 127
1, 49200, Tempo, 405241
1, 49200, Note_on_c, 0, 69, 39
1, 49440, Tempo, 371218
1, 49440, Note_on_c, 0, 69, 0
1, 49440, Note_on_c, 0, 52, 0
1, 49440, Note_on_c, 0, 60, 0
1, 49440, Note_on_c, 0, 45, 0
1, 49440, Note_on_c, 0, 72, 45
1, 49680, Tempo, 386573
1, 49680, Note_on_c, 0, 72, 0
1, 49680, Note_on_c, 0, 76, 38
1, 49920, Note_on_c, 0, 76, 0
1, 49920, Note_on_c, 0, 72, 33
1, 50160, Tempo, 405241
1, 50160, Note_on_c, 0, 72, 0
1, 50160, Note_on_c, 0, 69, 33
1, 50400, Tempo, 448498
1, 50400, Note_on_c, 0, 69, 0
1, 50400, Note_on_c, 0, 64, 0
1, 50400, Note_on_c, 0, 64, 53
1, 50640, Tempo, 383068
1, 50640, Note_on_c, 0, 69, 34
1, 50880, Tempo, 369572
1, 50880, Note_on_c, 0, 69, 0
1, 50880, Note_on_c, 0, 72, 41
1, 51120, Tempo, 381316
1, 51120, Note_on_c, 0, 72, 0
1, 51120, Note_on_c, 0, 76, 35
1, 51360, Tempo, 434814
1, 51360, Note_on_c, 0, 76, 0
1, 51360, Note_on_c, 0, 72, 32
1, 51600, Tempo, 493259
1, 51600, Note_on_c, 0, 72, 0
1, 51600, Note_on_c, 0, 69, 32
1, 51720, Note_on_c, 0, 40, 33
1, 51780, Note_on_c, 0, 47, 37
1, 51840, Tempo, 490396
1, 51840, Note_on_c, 0, 69, 0
1, 51840, Note_on_c, 0, 64, 0
1, 51840, Note_on_c, 0, 56, 42
1, 51840, Note_on_c, 0, 64, 42
1, 51854, Control_c, 0, 64, 0
1, 52052, Control_c, 0, 64, 127
1, 52080, Tempo, 381316
1, 52080, Note_on_c, 0, 68, 33
1, 52320, Note_on_c, 0, 68, 0
1, 52320, Note_on_c, 0, 47, 0
1, 52320, Note_on_c, 0, 56, 0
1, 52320, Note_on_c, 0, 40, 0
1, 52320, Note_on_c, 0, 71, 41
1, 52560, Note_on_c, 0, 71, 0
1, 52560, Note_on_c, 0, 76, 36
1, 52800, Note_on_c, 0, 76, 0
1, 52800, Note_on_c, 0, 71, 32
1, 53040, Tempo, 434562
1, 53040, Note_on_c, 0, 71, 0
1, 53040, Note_on_c, 0, 68, 33
1, 53280, Tempo, 484731
1, 53280, Note_on_c, 0, 68, 0
1, 53280, Note_on_c, 0, 64, 0
1, 53280, Note_on_c, 0, 59, 39
1, 53520, Tempo, 386573
1, 53520, Note_on_c, 0, 64, 31
1, 53760, Note_on_c, 0, 64, 0
1, 53760, Note_on_c, 0, 68, 37
1, 54000, Note_on_c, 0, 68, 0
1, 54000, Note_on_c, 0, 71, 31
1, 54240, Note_on_c, 0, 71, 0
1, 54240, Note_on_c, 0, 68, 31
1, 54480, Tempo, 453343
1, 54480, Note_on_c, 0, 68, 0
1, 54480, Note_on_c, 0, 64, 27
1, 54660, Note_on_c, 0, 40, 33
1, 54720, Note_on_c, 0, 64, 0
1, 54720, Note_on_c, 0, 59, 0
1, 54720, Note_on_c, 0, 56, 42
1, 54720, Note_on_c, 0, 61, 42
1, 54734, Control_c, 0, 64, 0
1, 54932, Control_c, 0, 64, 127
1, 54960, Tempo, 399441
1, 54960, Note_on_c, 0, 64, 26
1, 55200, Tempo, 381316
1, 55200, Note_on_c, 0, 64, 0
1, 55200, Note_on_c, 0, 40, 0
1, 55200, Note_on_c, 0, 56, 0
1, 55200, Note_on_c, 0, 68, 33
1, 55440, Note_on_c, 0, 68, 0
1, 55440, Note_on_c, 0, 73, 31
1, 55680, Tempo, 388375
1, 55680, Note_on_c, 0, 73, 0
1, 55680, Note_on_c, 0, 68, 30
1, 55920, Tempo, 411184
1, 55920, Note_on_c, 0, 68, 0
1, 55920, Note_on_c, 0, 64, 30
1, 56160, Tempo, 436840
1, 56160, Note_on_c, 0, 64, 0
1, 56160, Note_on_c, 0, 61, 0
1, 56160, Note_on_c, 0, 61, 44
1, 56398, Note_on_c, 0, 61, 0
1, 56400, Tempo, 392003
1, 56400, Note_on_c, 0, 61, 27
1, 56640, Tempo, 379603
1, 56640, Note_on_c, 0, 64, 34
1, 56880, Note_on_c, 0, 64, 0
1, 56880, Note_on_c, 0, 68, 30
1, 57120, Note_on_c, 0, 68, 0
1, 57120, Note_on_c, 0, 64, 26
1, 57120, Note_on_c, 0, 56, 36
1, 57330, Note_on_c, 0, 61, 0
1, 57360, Tempo, 425773
1, 57360, Note_on_c, 0, 64, 0
1, 57360, Note_on_c, 0, 61, 29
1, 57540, Note_on_c, 0, 39, 40
1, 57600, Tempo, 468494
1, 57600, Note_on_c, 0, 61, 0
1, 57600, Note_on_c, 0, 56, 0
1, 57600, Note_on_c, 0, 55, 41
1, 57600, Note_on_c, 0, 58, 45
1, 57614, Control_c, 0, 64, 0
1, 57812, Control_c, 0, 64, 127
1, 57840, Tempo, 383068
1, 57840, Note_on_c, 0, 63, 31
1, 58080, Note_on_c, 0, 63, 0
1, 58080, Note_on_c, 0, 39, 0
1, 58080, Note_on_c, 0, 55, 0
1, 58080, Note_on_c, 0, 67, 38
1, 58320, Tempo, 376199
1, 58320, Note_on_c, 0, 67, 0
1, 58320, Note_on_c, 0, 70, 34
1, 58560, Note_on_c, 0, 70, 0
1, 58560, Note_on_c, 0, 67, 31
1, 58800, Tempo, 407194
1, 58800, Note_on_c, 0, 67, 0
1, 58800, Note_on_c, 0, 63, 31
1, 59040, Tempo, 446097
1, 59040, Note_on_c, 0, 63, 0
1, 59040, Note_on_c, 0, 58, 0
1, 59040, Note_on_c, 0, 40, 44
1, 59040, Note_on_c, 0, 56, 44
1, 59040, Note_on_c, 0, 61, 48
1, 59055, Control_c, 0, 64, 0
1, 59269, Control_c, 0, 64, 127
1, 59280, Tempo, 390168
1, 59280, Note_on_c, 0, 64, 31
1, 59520, Note_on_c, 0, 64, 0
1, 59520, Note_on_c, 0, 40, 0
1, 59520, Note_on_c, 0, 56, 0
1, 59520, Note_on_c, 0, 68, 38
1, 59760, Note_on_c, 0, 68, 0
1, 59760, Note_on_c, 0, 73, 32
1, 60000, Note_on_c, 0, 73, 0
1, 60000, Note_on_c, 0, 61, 0
1, 60000, Note_on_c, 0, 68, 29
1, 60000, Note_on_c, 0, 59, 42
1, 60240, Tempo, 415254
1, 60240, Note_on_c, 0, 68, 0
1, 60240, Note_on_c, 0, 64, 29
1, 60480, Tempo, 441436
1, 60480, Note_on_c, 0, 64, 0
1, 60480, Note_on_c, 0, 59, 0
1, 60480, Note_on_c, 0, 39, 37
1, 60480, Note_on_c, 0, 55, 37
1, 60480, Note_on_c, 0, 58, 46
1, 60498, Control_c, 0, 64, 0
1, 60692, Control_c, 0, 64, 127
1, 60720, Tempo, 392003
1, 60720, Note_on_c, 0, 63, 31
1, 60960, Note_on_c, 0, 63, 0
1, 60960, Note_on_c, 0, 39, 0
1, 60960, Note_on_c, 0, 55, 0
1, 60960, Note_on_c, 0, 58, 0
1, 60960, Note_on_c, 0, 67, 38
1, 60960, Note_on_c, 0, 57, 42
1, 61200, Note_on_c, 0, 67, 0
1, 61200, Note_on_c, 0, 70, 33
1, 61440, Note_on_c, 0, 70, 0
1, 61440, Note_on_c, 0, 57, 0
1, 61440, Note_on_c, 0, 67, 30
1, 61440, Note_on_c, 0, 58, 43
1, 61680, Tempo, 427930
1, 61680, Note_on_c, 0, 67, 0
1, 61680, Note_on_c, 0, 63, 30
1, 61860, Note_on_c, 0, 40, 43
1, 61920, Tempo, 409165
1, 61920, Note_on_c, 0, 63, 0
1, 61920, Note_on_c, 0, 58, 0
1, 61920, Note_on_c, 0, 56, 52
1, 61920, Note_on_c, 0, 61, 52
1, 61935, Control_c, 0, 64, 0
1, 62149, Control_c, 0, 64, 127
1, 62160, Tempo, 397562
1, 62160, Note_on_c, 0, 64, 33
1, 62400, Note_on_c, 0, 64, 0
1, 62400, Note_on_c, 0, 40, 0
1, 62400, Note_on_c, 0, 56, 0
1, 62400, Note_on_c, 0, 68, 40
1, 62640, Note_on_c, 0, 68, 0
1, 62640, Note_on_c, 0, 73, 34
1, 62880, Note_on_c, 0, 73, 0
1, 62880, Note_on_c, 0, 61, 0
1, 62880, Note_on_c, 0, 68, 31
1, 62880, Note_on_c, 0, 59, 45
1, 63120, Tempo, 421496
1, 63120, Note_on_c, 0, 68, 0
1, 63120, Note_on_c, 0, 64, 31
1, 63360, Tempo, 468494
1, 63360, Note_on_c, 0, 64, 0
1, 63360, Note_on_c, 0, 59, 0
1, 63360, Note_on_c, 0, 39, 36
1, 63360, Note_on_c, 0, 55, 36
1, 63360, Note_on_c, 0, 58, 46
1, 63374, Control_c, 0, 64, 0
1, 63572, Control_c, 0, 64, 127
1, 63600, Tempo, 399441
1, 63600, Note_on_c, 0, 63, 31
1, 63840, Note_on_c, 0, 63, 0
1, 63840, Note_on_c, 0, 39, 0
1, 63840, Note_on_c, 0, 55, 0
1, 63840, Note_on_c, 0, 58, 0
1, 63840, Note_on_c, 0, 67, 39
1, 63840, Note_on_c, 0, 57, 39
1, 64080, Note_on_c, 0, 67, 0
1, 64080, Note_on_c, 0, 70, 34
1, 64320, Tempo, 411184
1, 64320, Note_on_c, 0, 70, 0
1, 64320, Note_on_c, 0, 57, 0
1, 64320, Note_on_c, 0, 67, 32
1, 64320, Note_on_c, 0, 58, 41
1, 64560, Tempo, 502092
1, 64560, Note_on_c, 0, 67, 0
1, 64560, Note_on_c, 0, 63, 33
1, 64800, Tempo, 427930
1, 64800, Note_on_c, 0, 63, 0
1, 64800, Note_on_c, 0, 58, 0
1, 64800, Note_on_c, 0, 37, 42
1, 64800, Note_on_c, 0, 49, 42
1, 64800, Note_on_c, 0, 64, 45
1, 64815, Control_c, 0, 64, 0
1, 65029, Control_c, 0, 64, 127
1, 65040, Note_on_c, 0, 68, 36
1, 65280, Tempo, 471143
1, 65280, Note_on_c, 0, 68, 0
1, 65280, Note_on_c, 0, 37, 0
1, 65280, Note_on_c, 0, 49, 0
1, 65280, Note_on_c, 0, 70, 45
1, 65280, Note_on_c, 0, 56, 41
1, 65520, Note_on_c, 0, 70, 0
1, 65520, Note_on_c, 0, 76, 41
1, 65760, Tempo, 508173
1, 65760, Note_on_c, 0, 76, 0
1, 65760, Note_on_c, 0, 56, 0
1, 65760, Note_on_c, 0, 64, 0
1, 65760, Note_on_c, 0, 70, 38
1, 65760, Note_on_c, 0, 58, 43
1, 66000, Note_on_c, 0, 70, 0
1, 66000, Note_on_c, 0, 68, 41
1, 66240, Tempo, 2598528
1, 66240, Note_on_c, 0, 68, 0
1, 66240, Note_on_c, 0, 58, 0
1, 66240, Note_on_c, 0, 64, 51
1, 66249, Control_c, 0, 64, 0
1, 66720, Tempo, 590319
1, 66720, Note_on_c, 0, 64, 0
1, 66720, Note_on_c, 0, 63, 41
1, 67200, Note_on_c, 0, 63, 0
1, 67200, Note_on_c, 0, 61, 40
1, 67680, Note_on_c, 0, 61, 0
1, 67680, Note_on_c, 0, 59, 39
1, 67896, Tempo, 594471
1, 67976, Tempo, 598683
1, 68056, Tempo, 603015
1, 68096, Tempo, 607349
1, 68160, Note_on_c, 0, 59, 0
1, 68160, Note_on_c, 0, 58, 37
1, 68176, Tempo, 611808
1, 68256, Tempo, 616270
1, 68296, Tempo, 620861
1, 68376, Tempo, 625456
1, 68416, Tempo, 630120
1, 68496, Tempo, 634921
1, 68576, Tempo, 639727
1, 68616, Tempo, 644676
1, 68640, Note_on_c, 0, 58, 0
1, 68640, Note_on_c, 0, 56, 36
1, 68696, Tempo, 649632
1, 68736, Tempo, 654664
1, 68816, Tempo, 659848
1, 68896, Tempo, 665041
1, 68936, Tempo, 670391
1, 69016, Tempo, 675752
1, 69120, Note_on_c, 0, 56, 0
1, 69120, Note_on_c, 0, 55, 35
1, 69600, Note_on_c, 0, 55, 0
1, 70540, Tempo, 555196
1, 70546, Control_c, 0, 64, 127
1, 70560, Note_on_c, 0, 39, 37
1, 70660, Tempo, 551521
1, 70780, Tempo, 547945
1, 70800, Note_on_c, 0, 39, 0
1, 70800, Note_on_c, 0, 46, 33
1, 70900, Tempo, 544415
1, 71020, Tempo, 540882
1, 71040, Note_on_c, 0, 46, 0
1, 71040, Note_on_c, 0, 49, 37
1, 71140, Tempo, 537442
1, 71260, Tempo, 533998
1, 71280, Note_on_c, 0, 49, 0
1, 71280, Note_on_c, 0, 55, 33
1, 71380, Tempo, 530645
1, 71500, Tempo, 527333
1, 71520, Note_on_c, 0, 55, 0
1, 71520, Note_on_c, 0, 58, 37
1, 71620, Tempo, 524017
1, 71740, Tempo, 520788
1, 71760, Note_on_c, 0, 58, 0
1, 71760, Note_on_c, 0, 61, 32
1, 71860, Tempo, 517554
1, 71936, Tempo, 517554
1, 71940, Tempo, 493259
1, 71980, Tempo, 511247
1, 72000, Time_signature, 12, 2, 24, 8
1, 72000, Note_on_c, 0, 61, 0
1, 72000, Note_on_c, 0, 64, 37
1, 72100, Tempo, 508173
1, 72220, Tempo, 505136
1, 72240, Note_on_c, 0, 64, 0
1, 72240, Note_on_c, 0, 63, 34
1, 72340, Tempo, 502092
1, 72460, Tempo, 499127
1, 72480, Note_on_c, 0, 63, 0
1, 72480, Note_on_c, 0, 68, 37
1, 72480, Note_on_c, 0, 64, 37
1, 72580, Tempo, 496155
1, 72600, Note_on_c, 0, 64, 0
1, 72600, Note_on_c, 0, 68, 0
1, 72600, Note_on_c, 0, 63, 39
1, 72600, Note_on_c, 0, 67, 39
1, 72700, Tempo, 493259
1, 72720, Note_on_c, 0, 67, 0
1, 72720, Note_on_c, 0, 63, 0
1, 72720, Note_on_c, 0, 68, 40
1, 72720, Note_on_c, 0, 73, 40
1, 72720, Note_on_c, 0, 64, 33
1, 72820, Tempo, 490396
1, 72840, Note_on_c, 0, 64, 0
1, 72840, Note_on_c, 0, 73, 0
1, 72840, Note_on_c, 0, 68, 0
1, 72840, Note_on_c, 0, 67, 42
1, 72840, Note_on_c, 0, 70, 42
1, 72840, Note_on_c, 0, 63, 35
1, 72940, Tempo, 487527
1, 72960, Note_on_c, 0, 63, 0
1, 72960, Note_on_c, 0, 70, 0
1, 72960, Note_on_c, 0, 67, 0
1, 72960, Note_on_c, 0, 73, 43
1, 72960, Note_on_c, 0, 76, 43
1, 72960, Note_on_c, 0, 68, 36
1, 73060, Tempo, 484731
1, 73080, Note_on_c, 0, 68, 0
1, 73080, Note_on_c, 0, 76, 0
1, 73080, Note_on_c, 0, 73, 0
1, 73080, Note_on_c, 0, 70, 45
1, 73080, Note_on_c, 0, 75, 45
1, 73080, Note_on_c, 0, 67, 37
1, 73180, Tempo, 481928
1, 73200, Note_on_c, 0, 67, 0
1, 73200, Note_on_c, 0, 75, 0
1, 73200, Note_on_c, 0, 70, 0
1, 73200, Note_on_c, 0, 76, 46
1, 73200, Note_on_c, 0, 80, 46
1, 73200, Note_on_c, 0, 73, 38
1, 73300, Tempo, 479195
1, 73320, Note_on_c, 0, 73, 0
1, 73320, Note_on_c, 0, 80, 0
1, 73320, Note_on_c, 0, 76, 0
1, 73320, Note_on_c, 0, 75, 48
1, 73320, Note_on_c, 0, 79, 48
1, 73320, Note_on_c, 0, 70, 40
1, 73420, Tempo, 476455
1, 73440, Note_on_c, 0, 70, 0
1, 73440, Note_on_c, 0, 79, 0
1, 73440, Note_on_c, 0, 75, 0
1, 73440, Note_on_c, 0, 85, 49
1, 73440, Note_on_c, 0, 80, 49
1, 73440, Note_on_c, 0, 76, 41
1, 73540, Tempo, 473784
1, 73560, Note_on_c, 0, 76, 0
1, 73560, Note_on_c, 0, 80, 0
1, 73560, Note_on_c, 0, 85, 0
1, 73560, Note_on_c, 0, 79, 51
1, 73560, Note_on_c, 0, 82, 51
1, 73560, Note_on_c, 0, 75, 42
1, 73660, Tempo, 471143
1, 73680, Note_on_c, 0, 75, 0
1, 73680, Note_on_c, 0, 82, 0
1, 73680, Note_on_c, 0, 79, 0
1, 73680, Note_on_c, 0, 85, 52
1, 73680, Note_on_c, 0, 88, 52
1, 73680, Note_on_c, 0, 80, 43
1, 73780, Tempo, 468494
1, 73800, Note_on_c, 0, 80, 0
1, 73800, Note_on_c, 0, 88, 0
1, 73800, Note_on_c, 0, 85, 0
1, 73800, Note_on_c, 0, 82, 54
1, 73800, Note_on_c, 0, 87, 54
1, 73800, Note_on_c, 0, 79, 45
1, 73900, Tempo, 465911
1, 73920, Note_on_c, 0, 79, 0
1, 73920, Note_on_c, 0, 87, 0
1, 73920, Note_on_c, 0, 82, 0
1, 73920, Note_on_c, 0, 88, 55
1, 73920, Note_on_c, 0, 92, 55
1, 73920, Note_on_c, 0, 85, 46
1, 74020, Tempo, 463320
1, 74040, Note_on_c, 0, 85, 0
1, 74040, Note_on_c, 0, 92, 0
1, 74040, Note_on_c, 0, 88, 0
1, 74040, Note_on_c, 0, 87, 57
1, 74040, Note_on_c, 0, 91, 57
1, 74040, Note_on_c, 0, 82, 47
1, 74140, Tempo, 463320
1, 74160, Note_on_c, 0, 82, 0
1, 74160, Note_on_c, 0, 91, 0
1, 74160, Note_on_c, 0, 87, 0
1, 74160, Note_on_c, 0, 92, 58
1, 74160, Note_on_c, 0, 97, 58
1, 74160, Note_on_c, 0, 88, 48
1, 74280, Note_on_c, 0, 88, 0
1, 74280, Note_on_c, 0, 97, 0
1, 74280, Note_on_c, 0, 92, 0
1, 74280, Note_on_c, 0, 94, 60
1, 74280, Note_on_c, 0, 91, 60
1, 74280, Note_on_c, 0, 87, 50
1, 74400, Note_on_c, 0, 87, 0
1, 74400, Note_on_c, 0, 91, 0
1, 74400, Note_on_c, 0, 94, 0
1, 74400, Note_on_c, 0, 97, 61
1, 74400, Note_on_c, 0, 100, 61
1, 74400, Note_on_c, 0, 92, 51
1, 74500, Tempo, 460794
1, 74520, Note_on_c, 0, 92, 0
1, 74520, Note_on_c, 0, 100, 0
1, 74520, Note_on_c, 0, 97, 0
1, 74520, Note_on_c, 0, 94, 61
1, 74520, Note_on_c, 0, 99, 61
1, 74520, Note_on_c, 0, 91, 52
1, 74640, Note_on_c, 0, 91, 0
1, 74640, Note_on_c, 0, 99, 0
1, 74640, Note_on_c, 0, 94, 0
1, 74640, Note_on_c, 0, 97, 60
1, 74640, Note_on_c, 0, 100, 60
1, 74640, Note_on_c, 0, 92, 51
1, 74760, Note_on_c, 0, 92, 0
1, 74760, Note_on_c, 0, 100, 0
1, 74760, Note_on_c, 0, 97, 0
1, 74760, Note_on_c, 0, 94, 59
1, 74760, Note_on_c, 0, 99, 59
1, 74760, Note_on_c, 0, 91, 50
1, 74860, Tempo, 458295
1, 74880, Note_on_c, 0, 91, 0
1, 74880, Note_on_c, 0, 99, 0
1, 74880, Note_on_c, 0, 94, 0
1, 74880, Note_on_c, 0, 92, 57
1, 74880, Note_on_c, 0, 97, 57
1, 74880, Note_on_c, 0, 88, 49
1, 75000, Note_on_c, 0, 88, 0
1, 75000, Note_on_c, 0, 97, 0
1, 75000, Note_on_c, 0, 92, 0
1, 75000, Note_on_c, 0, 91, 57
1, 75000, Note_on_c, 0, 94, 57
1, 75000, Note_on_c, 0, 87, 48
1, 75120, Note_on_c, 0, 87, 0
1, 75120, Note_on_c, 0, 94, 0
1, 75120, Note_on_c, 0, 91, 0
1, 75120, Note_on_c, 0, 92, 55
1, 75120, Note_on_c, 0, 88, 55
1, 75120, Note_on_c, 0, 85, 46
1, 75220, Tempo, 455789
1, 75240, Note_on_c, 0, 85, 0
1, 75240, Note_on_c, 0, 88, 0
1, 75240, Note_on_c, 0, 92, 0
1, 75240, Note_on_c, 0, 87, 54
1, 75240, Note_on_c, 0, 91, 54
1, 75240, Note_on_c, 0, 82, 45
1, 75360, Note_on_c, 0, 82, 0
1, 75360, Note_on_c, 0, 91, 0
1, 75360, Note_on_c, 0, 87, 0
1, 75360, Note_on_c, 0, 92, 53
1, 75360, Note_on_c, 0, 88, 53
1, 75360, Note_on_c, 0, 85, 44
1, 75480, Note_on_c, 0, 85, 0
1, 75480, Note_on_c, 0, 88, 0
1, 75480, Note_on_c, 0, 92, 0
1, 75480, Note_on_c, 0, 87, 52
1, 75480, Note_on_c, 0, 91, 52
1, 75480, Note_on_c, 0, 82, 43
1, 75580, Tempo, 453343
1, 75600, Note_on_c, 0, 82, 0
1, 75600, Note_on_c, 0, 91, 0
1, 75600, Note_on_c, 0, 87, 0
1, 75600, Note_on_c, 0, 85, 51
1, 75600, Note_on_c, 0, 88, 51
1, 75600, Note_on_c, 0, 80, 42
1, 75720, Note_on_c, 0, 80, 0
1, 75720, Note_on_c, 0, 88, 0
1, 75720, Note_on_c, 0, 85, 0
1, 75720, Note_on_c, 0, 82, 50
1, 75720, Note_on_c, 0, 87, 50
1, 75720, Note_on_c, 0, 79, 41
1, 75840, Note_on_c, 0, 79, 0
1, 75840, Note_on_c, 0, 87, 0
1, 75840, Note_on_c, 0, 82, 0
1, 75840, Note_on_c, 0, 85, 49
1, 75840, Note_on_c, 0, 80, 49
1, 75840, Note_on_c, 0, 76, 40
1, 75940, Tempo, 450891
1, 75960, Note_on_c, 0, 76, 0
1, 75960, Note_on_c, 0, 80, 0
1, 75960, Note_on_c, 0, 85, 0
1, 75960, Note_on_c, 0, 82, 48
1, 75960, Note_on_c, 0, 79, 48
1, 75960, Note_on_c, 0, 75, 39
1, 76060, Tempo, 453343
1, 76080, Note_on_c, 0, 75, 0
1, 76080, Note_on_c, 0, 79, 0
1, 76080, Note_on_c, 0, 82, 0
1, 76080, Note_on_c, 0, 85, 47
1, 76080, Note_on_c, 0, 80, 47
1, 76080, Note_on_c, 0, 76, 38
1, 76180, Tempo, 455789
1, 76200, Note_on_c, 0, 76, 0
1, 76200, Note_on_c, 0, 80, 0
1, 76200, Note_on_c, 0, 85, 0
1, 76200, Note_on_c, 0, 82, 46
1, 76200, Note_on_c, 0, 79, 46
1, 76200, Note_on_c, 0, 75, 37
1, 76300, Tempo, 458295
1, 76320, Note_on_c, 0, 75, 0
1, 76320, Note_on_c, 0, 79, 0
1, 76320, Note_on_c, 0, 82, 0
1, 76320, Note_on_c, 0, 80, 45
1, 76320, Note_on_c, 0, 76, 45
1, 76320, Note_on_c, 0, 73, 36
1, 76420, Tempo, 460794
1, 76440, Note_on_c, 0, 73, 0
1, 76440, Note_on_c, 0, 76, 0
1, 76440, Note_on_c, 0, 80, 0
1, 76440, Note_on_c, 0, 75, 44
1, 76440, Note_on_c, 0, 79, 44
1, 76440, Note_on_c, 0, 70, 35
1, 76540, Tempo, 463320
1, 76560, Note_on_c, 0, 70, 0
1, 76560, Note_on_c, 0, 79, 0
1, 76560, Note_on_c, 0, 75, 0
1, 76560, Note_on_c, 0, 73, 43
1, 76560, Note_on_c, 0, 76, 43
1, 76560, Note_on_c, 0, 68, 33
1, 76660, Tempo, 465911
1, 76680, Note_on_c, 0, 68, 0
1, 76680, Note_on_c, 0, 76, 0
1, 76680, Note_on_c, 0, 73, 0
1, 76680, Note_on_c, 0, 70, 42
1, 76680, Note_on_c, 0, 75, 42
1, 76680, Note_on_c, 0, 67, 31
1, 76760, Marker_t, "B1"
1, 76780, Tempo, 468494
1, 76800, Note_on_c, 0, 67, 0
1, 76800, Note_on_c, 0, 75, 0
1, 76800, Note_on_c, 0, 70, 0
1, 76800, Note_on_c, 0, 73, 41
1, 76800, Note_on_c, 0, 76, 41
1, 76800, Note_on_c, 0, 68, 33
1, 76900, Tempo, 471143
1, 76920, Note_on_c, 0, 68, 0
1, 76920, Note_on_c, 0, 76, 0
1, 76920, Note_on_c, 0, 73, 0
1, 76920, Note_on_c, 0, 70, 40
1, 76920, Note_on_c, 0, 75, 40
1, 76920, Note_on_c, 0, 67, 31
1, 77020, Tempo, 473784
1, 77040, Note_on_c, 0, 67, 0
1, 77040, Note_on_c, 0, 75, 0
1, 77040, Note_on_c, 0, 70, 0
1, 77040, Note_on_c, 0, 68, 39
1, 77040, Note_on_c, 0, 73, 39
1, 77040, Note_on_c, 0, 64, 33
1, 77140, Tempo, 476455
1, 77160, Note_on_c, 0, 64, 0
1, 77160, Note_on_c, 0, 73, 0
1, 77160, Note_on_c, 0, 68, 0
1, 77160, Note_on_c, 0, 67, 38
1, 77160, Note_on_c, 0, 70, 38
1, 77160, Note_on_c, 0, 63, 31
1, 77260, Tempo, 479195
1, 77280, Note_on_c, 0, 63, 0
1, 77280, Note_on_c, 0, 70, 0
1, 77280, Note_on_c, 0, 67, 0
1, 77280, Note_on_c, 0, 68, 41
1, 77280, Note_on_c, 0, 73, 41
1, 77280, Note_on_c, 0, 64, 29
1, 77380, Tempo, 481928
1, 77400, Note_on_c, 0, 64, 0
1, 77400, Note_on_c, 0, 73, 0
1, 77400, Note_on_c, 0, 68, 0
1, 77400, Note_on_c, 0, 67, 42
1, 77400, Note_on_c, 0, 70, 42
1, 77400, Note_on_c, 0, 63, 30
1, 77500, Tempo, 484731
1, 77520, Note_on_c, 0, 63, 0
1, 77520, Note_on_c, 0, 70, 0
1, 77520, Note_on_c, 0, 67, 0
1, 77520, Note_on_c, 0, 68, 43
1, 77520, Note_on_c, 0, 73, 43
1, 77520, Note_on_c, 0, 64, 31
1, 77620, Tempo, 487527
1, 77640, Note_on_c, 0, 64, 0
1, 77640, Note_on_c, 0, 73, 0
1, 77640, Note_on_c, 0, 68, 0
1, 77640, Note_on_c, 0, 67, 44
1, 77640, Note_on_c, 0, 70, 44
1, 77640, Note_on_c, 0, 63, 32
1, 77677, Tempo, 490396
1, 77760, Time_signature, 8, 2, 24, 8
1, 77760, Note_on_c, 0, 63, 0
1, 77760, Note_on_c, 0, 70, 0
1, 77760, Note_on_c, 0, 67, 0
1, 77760, Note_on_c, 0, 68, 46
1, 77760, Note_on_c, 0, 73, 46
1, 77760, Note_on_c, 0, 68, 46
1, 77760, Note_on_c, 0, 73, 46
1, 77760, Note_on_c, 0, 64, 34
1, 77773, Tempo, 493259
1, 77880, Note_on_c, 0, 64, 0
1, 77880, Note_on_c, 0, 68, 0
1, 77880, Note_on_c, 0, 68, 0
1, 77880, Note_on_c, 0, 73, 0
1, 77880, Note_on_c, 0, 73, 0
1, 77880, Note_on_c, 0, 67, 48
1, 77880, Note_on_c, 0, 70, 48
1, 77880, Note_on_c, 0, 63, 36
1, 77901, Tempo, 490396
1, 77997, Tempo, 487527
1, 78000, Note_on_c, 0, 63, 0
1, 78000, Note_on_c, 0, 70, 0
1, 78000, Note_on_c, 0, 67, 0
1, 78000, Note_on_c, 0, 68, 51
1, 78000, Note_on_c, 0, 73, 51
1, 78000, Note_on_c, 0, 64, 38
1, 78093, Tempo, 484731
1, 78120, Note_on_c, 0, 64, 0
1, 78120, Note_on_c, 0, 73, 0
1, 78120, Note_on_c, 0, 68, 0
1, 78120, Note_on_c, 0, 67, 53
1, 78120, Note_on_c, 0, 70, 53
1, 78120, Note_on_c, 0, 63, 39
1, 78189, Tempo, 481928
1, 78240, Note_on_c, 0, 63, 0
1, 78240, Note_on_c, 0, 70, 0
1, 78240, Note_on_c, 0, 67, 0
1, 78240, Note_on_c, 0, 68, 55
1, 78240, Note_on_c, 0, 73, 55
1, 78240, Note_on_c, 0, 64, 41
1, 78317, Tempo, 479195
1, 78360, Note_on_c, 0, 64, 0
1, 78360, Note_on_c, 0, 73, 0
1, 78360, Note_on_c, 0, 68, 0
1, 78360, Note_on_c, 0, 67, 57
1, 78360, Note_on_c, 0, 70, 57
1, 78360, Note_on_c, 0, 63, 43
1, 78413, Tempo, 476455
1, 78480, Note_on_c, 0, 63, 0
1, 78480, Note_on_c, 0, 70, 0
1, 78480, Note_on_c, 0, 67, 0
1, 78480, Note_on_c, 0, 68, 60
1, 78480, Note_on_c, 0, 73, 60
1, 78480, Note_on_c, 0, 64, 45
1, 78509, Tempo, 473784
1, 78600, Note_on_c, 0, 64, 0
1, 78600, Note_on_c, 0, 73, 0
1, 78600, Note_on_c, 0, 68, 0
1, 78600, Note_on_c, 0, 67, 62
1, 78600, Note_on_c, 0, 70, 62
1, 78600, Note_on_c, 0, 63, 47
1, 78605, Tempo, 471143
1, 78720, Note_on_c, 0, 63, 0
1, 78720, Note_on_c, 0, 70, 0
1, 78720, Note_on_c, 0, 67, 0
1, 78720, Note_on_c, 0, 68, 65
1, 78720, Note_on_c, 0, 73, 65
1, 78720, Note_on_c, 0, 64, 49
1, 78733, Tempo, 468494
1, 78829, Tempo, 465911
1, 78840, Note_on_c, 0, 64, 0
1, 78840, Note_on_c, 0, 73, 0
1, 78840, Note_on_c, 0, 68, 0
1, 78840, Note_on_c, 0, 67, 64
1, 78840, Note_on_c, 0, 70, 64
1, 78840, Note_on_c, 0, 63, 51
1, 78925, Tempo, 463320
1, 78960, Note_on_c, 0, 63, 0
1, 78960, Note_on_c, 0, 70, 0
1, 78960, Note_on_c, 0, 67, 0
1, 78960, Note_on_c, 0, 68, 61
1, 78960, Note_on_c, 0, 73, 61
1, 78960, Note_on_c, 0, 64, 50
1, 79021, Tempo, 460794
1, 79080, Note_on_c, 0, 64, 0
1, 79080, Note_on_c, 0, 73, 0
1, 79080, Note_on_c, 0, 68, 0
1, 79080, Note_on_c, 0, 67, 58
1, 79080, Note_on_c, 0, 70, 58
1, 79080, Note_on_c, 0, 63, 48
1, 79117, Tempo, 458295
1, 79200, Note_on_c, 0, 63, 0
1, 79200, Note_on_c, 0, 70, 0
1, 79200, Note_on_c, 0, 67, 0
1, 79200, Note_on_c, 0, 68, 55
1, 79200, Note_on_c, 0, 73, 55
1, 79200, Note_on_c, 0, 64, 46
1, 79213, Tempo, 460794
1, 79309, Tempo, 463320
1, 79320, Note_on_c, 0, 64, 0
1, 79320, Note_on_c, 0, 73, 0
1, 79320, Note_on_c, 0, 68, 0
1, 79320, Note_on_c, 0, 67, 53
1, 79320, Note_on_c, 0, 70, 53
1, 79320, Note_on_c, 0, 63, 45
1, 79405, Tempo, 465911
1, 79440, Note_on_c, 0, 63, 0
1, 79440, Note_on_c, 0, 70, 0
1, 79440, Note_on_c, 0, 67, 0
1, 79440, Note_on_c, 0, 68, 48
1, 79440, Note_on_c, 0, 73, 48
1, 79440, Note_on_c, 0, 64, 43
1, 79501, Tempo, 468494
1, 79560, Note_on_c, 0, 64, 0
1, 79560, Note_on_c, 0, 73, 0
1, 79560, Note_on_c, 0, 68, 0
1, 79560, Note_on_c, 0, 67, 44
1, 79560, Note_on_c, 0, 70, 44
1, 79560, Note_on_c, 0, 63, 41
1, 79597, Tempo, 471143
1, 79661, Tempo, 473784
1, 79680, Note_on_c, 0, 63, 0
1, 79680, Note_on_c, 0, 70, 0
1, 79680, Note_on_c, 0, 67, 0
1, 79680, Note_on_c, 0, 68, 41
1, 79680, Note_on_c, 0, 73, 41
1, 79680, Note_on_c, 0, 64, 38
1, 79716, Tempo, 468494
1, 79756, Tempo, 471143
1, 79796, Tempo, 473784
1, 79800, Note_on_c, 0, 64, 0
1, 79800, Note_on_c, 0, 73, 0
1, 79800, Note_on_c, 0, 68, 0
1, 79800, Note_on_c, 0, 67, 37
1, 79800, Note_on_c, 0, 70, 37
1, 79800, Note_on_c, 0, 63, 36
1, 79836, Tempo, 476455
1, 79876, Tempo, 481928
1, 79916, Tempo, 484731
1, 79920, Note_on_c, 0, 63, 0
1, 79920, Note_on_c, 0, 70, 0
1, 79920, Note_on_c, 0, 67, 0
1, 79920, Note_on_c, 0, 68, 34
1, 79920, Note_on_c, 0, 73, 34
1, 79920, Note_on_c, 0, 64, 33
1, 79956, Tempo, 487527
1, 79996, Tempo, 493259
1, 80036, Tempo, 496155
1, 80040, Note_on_c, 0, 64, 0
1, 80040, Note_on_c, 0, 73, 0
1, 80040, Note_on_c, 0, 68, 0
1, 80040, Note_on_c, 0, 67, 30
1, 80040, Note_on_c, 0, 70, 30
1, 80040, Note_on_c, 0, 63, 30
1, 80040, Control_c, 0, 64, 0
1, 80076, Tempo, 499127
1, 80116, Tempo, 505136
1, 80156, Tempo, 517554
1, 80160, Note_on_c, 0, 63, 0
1, 80160, Note_on_c, 0, 70, 0
1, 80160, Note_on_c, 0, 67, 0
1, 80236, Tempo, 520788
1, 80276, Tempo, 524017
1, 80316, Tempo, 527333
1, 80356, Tempo, 530645
1, 80436, Tempo, 533998
1, 80476, Tempo, 537442
1, 80516, Tempo, 540882
1, 80556, Tempo, 544415
1, 80600, Tempo, 530645
1, 80640, Tempo, 790202
1, 81120, Tempo, 468494
1, 81120, Note_on_c, 0, 74, 46
1, 81600, Time_signature, 6, 2, 24, 8
1, 81600, Key_signature, 5, "major"
1, 81600, Tempo, 487527
1, 81600, Marker_t, "Piu animato con passione"
1, 81600, Note_on_c, 0, 74, 0
1, 81600, Note_on_c, 0, 75, 52
1, 81600, Note_on_c, 0, 47, 35
1, 81741, Control_c, 0, 64, 127
1, 81840, Tempo, 411184
1, 81840, Note_on_c, 0, 63, 27
1, 81840, Note_on_c, 0, 54, 22
1, 82080, Tempo, 358766
1, 82080, Note_on_c, 0, 54, 0
1, 82080, Note_on_c, 0, 63, 0
1, 82080, Note_on_c, 0, 47, 0
1, 82080, Note_on_c, 0, 66, 32
1, 82080, Note_on_c, 0, 59, 27
1, 82320, Tempo, 369572
1, 82320, Note_on_c, 0, 59, 0
1, 82320, Note_on_c, 0, 66, 0
1, 82320, Note_on_c, 0, 71, 28
1, 82320, Note_on_c, 0, 63, 24
1, 82560, Tempo, 379603
1, 82560, Note_on_c, 0, 63, 0
1, 82560, Note_on_c, 0, 71, 0
1, 82560, Note_on_c, 0, 66, 27
1, 82560, Note_on_c, 0, 59, 22
1, 82800, Tempo, 401365
1, 82800, Note_on_c, 0, 59, 0
1, 82800, Note_on_c, 0, 66, 0
1, 82800, Note_on_c, 0, 63, 27
1, 82800, Note_on_c, 0, 54, 22
1, 83040, Tempo, 465911
1, 83040, Note_on_c, 0, 54, 0
1, 83040, Note_on_c, 0, 63, 0
1, 83040, Note_on_c, 0, 75, 0
1, 83040, Note_on_c, 0, 75, 52
1, 83280, Tempo, 417304
1, 83280, Note_on_c, 0, 63, 29
1, 83280, Note_on_c, 0, 54, 24
1, 83520, Tempo, 371218
1, 83520, Note_on_c, 0, 54, 0
1, 83520, Note_on_c, 0, 63, 0
1, 83520, Note_on_c, 0, 66, 32
1, 83520, Note_on_c, 0, 59, 27
1, 83760, Tempo, 354003
1, 83760, Note_on_c, 0, 59, 0
1, 83760, Note_on_c, 0, 66, 0
1, 83760, Note_on_c, 0, 71, 29
1, 83760, Note_on_c, 0, 63, 24
1, 84000, Tempo, 386573
1, 84000, Note_on_c, 0, 63, 0
1, 84000, Note_on_c, 0, 71, 0
1, 84000, Note_on_c, 0, 66, 28
1, 84000, Note_on_c, 0, 59, 24
1, 84240, Tempo, 405241
1, 84240, Note_on_c, 0, 59, 0
1, 84240, Note_on_c, 0, 66, 0
1, 84240, Note_on_c, 0, 63, 29
1, 84240, Note_on_c, 0, 54, 24
1, 84480, Tempo, 468494
1, 84480, Note_on_c, 0, 54, 0
1, 84480, Note_on_c, 0, 63, 0
1, 84480, Note_on_c, 0, 75, 0
1, 84480, Note_on_c, 0, 75, 54
1, 84480, Note_on_c, 0, 46, 35
1, 84495, Control_c, 0, 64, 0
1, 84652, Control_c, 0, 64, 127
1, 84720, Tempo, 407194
1, 84720, Note_on_c, 0, 63, 32
1, 84720, Note_on_c, 0, 55, 27
1, 84960, Tempo, 376199
1, 84960, Note_on_c, 0, 55, 0
1, 84960, Note_on_c, 0, 63, 0
1, 84960, Note_on_c, 0, 46, 0
1, 84960, Note_on_c, 0, 67, 38
1, 84960, Note_on_c, 0, 61, 31
1, 85200, Tempo, 369572
1, 85200, Note_on_c, 0, 61, 0
1, 85200, Note_on_c, 0, 67, 0
1, 85200, Note_on_c, 0, 73, 32
1, 85200, Note_on_c, 0, 63, 27
1, 85440, Tempo, 355577
1, 85440, Note_on_c, 0, 63, 0
1, 85440, Note_on_c, 0, 73, 0
1, 85440, Note_on_c, 0, 67, 30
1, 85440, Note_on_c, 0, 61, 27
1, 85680, Tempo, 405241
1, 85680, Note_on_c, 0, 61, 0
1, 85680, Note_on_c, 0, 67, 0
1, 85680, Note_on_c, 0, 63, 30
1, 85680, Note_on_c, 0, 55, 25
1, 85920, Tempo, 455789
1, 85920, Note_on_c, 0, 55, 0
1, 85920, Note_on_c, 0, 63, 0
1, 85920, Note_on_c, 0, 75, 0
1, 86160, Tempo, 377881
1, 86160, Note_on_c, 0, 63, 32
1, 86160, Note_on_c, 0, 55, 26
1, 86400, Tempo, 369572
1, 86400, Note_on_c, 0, 55, 0
1, 86400, Note_on_c, 0, 63, 0
1, 86400, Note_on_c, 0, 67, 35
1, 86400, Note_on_c, 0, 61, 31
1, 86520, Tempo, 357164
1, 86640, Tempo, 367963
1, 86640, Note_on_c, 0, 61, 0
1, 86640, Note_on_c, 0, 67, 0
1, 86640, Note_on_c, 0, 73, 32
1, 86640, Note_on_c, 0, 63, 26
1, 86760, Tempo, 358766
1, 86880, Tempo, 395674
1, 86880, Note_on_c, 0, 63, 0
1, 86880, Note_on_c, 0, 73, 0
1, 86880, Note_on_c, 0, 75, 52
1, 86880, Note_on_c, 0, 67, 28
1, 86880, Note_on_c, 0, 61, 28
1, 87120, Tempo, 413195
1, 87120, Note_on_c, 0, 61, 0
1, 87120, Note_on_c, 0, 67, 0
1, 87120, Note_on_c, 0, 63, 33
1, 87120, Note_on_c, 0, 55, 28
1, 87360, Tempo, 455789
1, 87360, Note_on_c, 0, 55, 0
1, 87360, Note_on_c, 0, 63, 0
1, 87360, Note_on_c, 0, 75, 0
1, 87360, Note_on_c, 0, 75, 56
1, 87360, Note_on_c, 0, 45, 35
1, 87374, Control_c, 0, 64, 0
1, 87509, Control_c, 0, 64, 127
1, 87600, Tempo, 393830
1, 87600, Note_on_c, 0, 63, 35
1, 87600, Note_on_c, 0, 54, 25
1, 87840, Tempo, 358766
1, 87840, Note_on_c, 0, 54, 0
1, 87840, Note_on_c, 0, 63, 0
1, 87840, Note_on_c, 0, 45, 0
1, 87840, Note_on_c, 0, 66, 37
1, 87840, Note_on_c, 0, 61, 29
1, 87960, Tempo, 364764
1, 88080, Tempo, 369572
1, 88080, Note_on_c, 0, 61, 0
1, 88080, Note_on_c, 0, 66, 0
1, 88080, Note_on_c, 0, 73, 34
1, 88080, Note_on_c, 0, 63, 28
1, 88320, Tempo, 379603
1, 88320, Note_on_c, 0, 63, 0
1, 88320, Note_on_c, 0, 73, 0
1, 88320, Note_on_c, 0, 75, 0
1, 88320, Note_on_c, 0, 66, 31
1, 88320, Note_on_c, 0, 75, 50
1, 88320, Note_on_c, 0, 61, 28
1, 88560, Tempo, 395674
1, 88560, Note_on_c, 0, 61, 0
1, 88560, Note_on_c, 0, 66, 0
1, 88560, Note_on_c, 0, 63, 35
1, 88560, Note_on_c, 0, 54, 28
1, 88800, Tempo, 455789
1, 88800, Note_on_c, 0, 54, 0
1, 88800, Note_on_c, 0, 63, 0
1, 88800, Note_on_c, 0, 75, 0
1, 88800, Note_on_c, 0, 76, 55
1, 88800, Note_on_c, 0, 44, 38
1, 88815, Control_c, 0, 64, 0
1, 88983, Control_c, 0, 64, 127
1, 89040, Tempo, 379603
1, 89040, Note_on_c, 0, 63, 38
1, 89040, Note_on_c, 0, 54, 30
1, 89280, Tempo, 371218
1, 89280, Note_on_c, 0, 54, 0
1, 89280, Note_on_c, 0, 63, 0
1, 89280, Note_on_c, 0, 44, 0
1, 89280, Note_on_c, 0, 66, 42
1, 89280, Note_on_c, 0, 60, 34
1, 89520, Tempo, 367963
1, 89520, Note_on_c, 0, 60, 0
1, 89520, Note_on_c, 0, 66, 0
1, 89520, Note_on_c, 0, 72, 37
1, 89520, Note_on_c, 0, 63, 32
1, 89760, Tempo, 384813
1, 89760, Note_on_c, 0, 63, 0
1, 89760, Note_on_c, 0, 72, 0
1, 89760, Note_on_c, 0, 76, 0
1, 89760, Note_on_c, 0, 75, 49
1, 89760, Note_on_c, 0, 66, 33
1, 89760, Note_on_c, 0, 60, 32
1, 90000, Tempo, 436840
1, 90000, Note_on_c, 0, 60, 0
1, 90000, Note_on_c, 0, 66, 0
1, 90000, Note_on_c, 0, 63, 33
1, 90000, Note_on_c, 0, 54, 32
1, 90240, Tempo, 448498
1, 90240, Note_on_c, 0, 54, 0
1, 90240, Note_on_c, 0, 63, 0
1, 90240, Note_on_c, 0, 75, 0
1, 90240, Note_on_c, 0, 75, 56
1, 90240, Note_on_c, 0, 37, 35
1, 90253, Control_c, 0, 64, 0
1, 90389, Control_c, 0, 64, 127
1, 90480, Tempo, 401365
1, 90480, Note_on_c, 0, 63, 30
1, 90480, Note_on_c, 0, 53, 25
1, 90720, Tempo, 379603
1, 90720, Note_on_c, 0, 53, 0
1, 90720, Note_on_c, 0, 63, 0
1, 90720, Note_on_c, 0, 37, 0
1, 90720, Note_on_c, 0, 65, 34
1, 90720, Note_on_c, 0, 59, 28
1, 90960, Note_on_c, 0, 59, 0
1, 90960, Note_on_c, 0, 65, 0
1, 90960, Note_on_c, 0, 71, 33
1, 90960, Note_on_c, 0, 63, 28
1, 91080, Tempo, 370393
1, 91200, Note_on_c, 0, 63, 0
1, 91200, Note_on_c, 0, 71, 0
1, 91200, Note_on_c, 0, 65, 31
1, 91200, Note_on_c, 0, 59, 26
1, 91440, Tempo, 409165
1, 91440, Note_on_c, 0, 59, 0
1, 91440, Note_on_c, 0, 65, 0
1, 91440, Note_on_c, 0, 63, 31
1, 91440, Note_on_c, 0, 53, 26
1, 91680, Tempo, 450891
1, 91680, Note_on_c, 0, 53, 0
1, 91680, Note_on_c, 0, 63, 0
1, 91680, Note_on_c, 0, 75, 0
1, 91680, Note_on_c, 0, 68, 46
1, 91695, Control_c, 0, 64, 0
1, 91860, Control_c, 0, 64, 127
1, 91920, Tempo, 401365
1, 91920, Note_on_c, 0, 59, 24
1, 91920, Note_on_c, 0, 49, 20
1, 92160, Tempo, 390168
1, 92160, Note_on_c, 0, 49, 0
1, 92160, Note_on_c, 0, 59, 0
1, 92160, Note_on_c, 0, 68, 0
1, 92160, Note_on_c, 0, 61, 30
1, 92160, Note_on_c, 0, 53, 24
1, 92400, Note_on_c, 0, 53, 0
1, 92400, Note_on_c, 0, 61, 0
1, 92400, Note_on_c, 0, 65, 24
1, 92400, Note_on_c, 0, 59, 22
1, 92640, Tempo, 432339
1, 92640, Note_on_c, 0, 59, 0
1, 92640, Note_on_c, 0, 65, 0
1, 92640, Note_on_c, 0, 61, 31
1, 92640, Note_on_c, 0, 68, 46
1, 92640, Note_on_c, 0, 53, 22
1, 92880, Tempo, 463320
1, 92880, Note_on_c, 0, 53, 0
1, 92880, Note_on_c, 0, 61, 0
1, 92880, Note_on_c, 0, 59, 31
1, 92880, Note_on_c, 0, 49, 22
1, 93120, Tempo, 409165
1, 93120, Note_on_c, 0, 49, 0
1, 93120, Note_on_c, 0, 59, 0
1, 93120, Note_on_c, 0, 68, 0
1, 93120, Note_on_c, 0, 68, 52
1, 93120, Note_on_c, 0, 42, 35
1, 93126, Control_c, 0, 64, 0
1, 93276, Control_c, 0, 64, 127
1, 93360, Tempo, 379171
1, 93360, Note_on_c, 0, 61, 36
1, 93360, Note_on_c, 0, 52, 25
1, 93600, Tempo, 363658
1, 93600, Note_on_c, 0, 52, 0
1, 93600, Note_on_c, 0, 68, 0
1, 93600, Note_on_c, 0, 42, 0
1, 93600, Note_on_c, 0, 61, 0
1, 93600, Note_on_c, 0, 70, 54
1, 93600, Note_on_c, 0, 64, 38
1, 93600, Note_on_c, 0, 54, 28
1, 93840, Tempo, 377382
1, 93840, Note_on_c, 0, 54, 0
1, 93840, Note_on_c, 0, 64, 0
1, 93840, Note_on_c, 0, 66, 38
1, 93840, Note_on_c, 0, 61, 28
1, 94080, Tempo, 401365
1, 94080, Note_on_c, 0, 61, 0
1, 94080, Note_on_c, 0, 66, 0
1, 94080, Note_on_c, 0, 70, 0
1, 94080, Note_on_c, 0, 71, 56
1, 94080, Note_on_c, 0, 64, 38
1, 94080, Note_on_c, 0, 54, 26
1, 94320, Tempo, 427930
1, 94320, Note_on_c, 0, 54, 0
1, 94320, Note_on_c, 0, 64, 0
1, 94320, Note_on_c, 0, 61, 42
1, 94320, Note_on_c, 0, 52, 27
1, 94560, Tempo, 411184
1, 94560, Note_on_c, 0, 52, 0
1, 94560, Note_on_c, 0, 61, 0
1, 94560, Note_on_c, 0, 71, 0
1, 94560, Note_on_c, 0, 75, 60
1, 94575, Control_c, 0, 64, 0
1, 94744, Control_c, 0, 64, 127
1, 94800, Tempo, 397562
1, 94800, Note_on_c, 0, 64, 40
1, 94800, Note_on_c, 0, 54, 31
1, 95040, Tempo, 390168
1, 95040, Note_on_c, 0, 54, 0
1, 95040, Note_on_c, 0, 64, 0
1, 95040, Note_on_c, 0, 66, 48
1, 95040, Note_on_c, 0, 58, 36
1, 95280, Note_on_c, 0, 58, 0
1, 95280, Note_on_c, 0, 66, 0
1, 95280, Note_on_c, 0, 70, 40
1, 95280, Note_on_c, 0, 64, 31
1, 95520, Tempo, 434562
1, 95520, Note_on_c, 0, 64, 0
1, 95520, Note_on_c, 0, 70, 0
1, 95520, Note_on_c, 0, 75, 0
1, 95520, Note_on_c, 0, 73, 53
1, 95520, Note_on_c, 0, 66, 31
1, 95520, Note_on_c, 0, 58, 31
1, 95760, Tempo, 486815
1, 95760, Note_on_c, 0, 58, 0
1, 95760, Note_on_c, 0, 66, 0
1, 95760, Note_on_c, 0, 64, 37
1, 95760, Note_on_c, 0, 54, 28
1, 96000, Tempo, 401365
1, 96000, Note_on_c, 0, 54, 0
1, 96000, Note_on_c, 0, 64, 0
1, 96000, Note_on_c, 0, 73, 0
1, 96000, Note_on_c, 0, 73, 60
1, 96016, Control_c, 0, 64, 0
1, 96206, Control_c, 0, 64, 127
1, 96240, Note_on_c, 0, 63, 37
1, 96240, Note_on_c, 0, 47, 24
1, 96480, Tempo, 415945
1, 96480, Note_on_c, 0, 47, 0
1, 96480, Note_on_c, 0, 63, 0
1, 96480, Note_on_c, 0, 73, 0
1, 96480, Note_on_c, 0, 66, 34
1, 96480, Note_on_c, 0, 71, 53
1, 96480, Note_on_c, 0, 54, 28
1, 96720, Note_on_c, 0, 54, 0
1, 96720, Note_on_c, 0, 66, 0
1, 96720, Note_on_c, 0, 63, 36
1, 96720, Note_on_c, 0, 59, 26
1, 96960, Tempo, 438757
1, 96960, Note_on_c, 0, 59, 0
1, 96960, Note_on_c, 0, 63, 0
1, 96960, Note_on_c, 0, 71, 0
1, 96960, Note_on_c, 0, 68, 53
1, 96960, Note_on_c, 0, 53, 28
1, 97200, Tempo, 446097
1, 97200, Note_on_c, 0, 53, 0
1, 97200, Note_on_c, 0, 62, 31
1, 97200, Note_on_c, 0, 59, 25
1, 97440, Tempo, 413195
1, 97440, Note_on_c, 0, 59, 0
1, 97440, Note_on_c, 0, 62, 0
1, 97440, Note_on_c, 0, 68, 0
1, 97440, Note_on_c, 0, 63, 34
1, 97440, Note_on_c, 0, 66, 52
1, 97440, Note_on_c, 0, 54, 28
1, 97465, Control_c, 0, 64, 0
1, 97680, Note_on_c, 0, 54, 0
1, 97680, Note_on_c, 0, 63, 0
1, 97680, Note_on_c, 0, 63, 27
1, 97920, Note_on_c, 0, 63, 0
1, 97920, Note_on_c, 0, 66, 0
1, 97920, Note_on_c, 0, 61, 27
1, 98160, Note_on_c, 0, 61, 0
1, 98160, Note_on_c, 0, 59, 26
1, 98400, Note_on_c, 0, 59, 0
1, 98400, Note_on_c, 0, 56, 33
1, 98640, Note_on_c, 0, 56, 0
1, 98640, Note_on_c, 0, 66, 65
1, 98640, Note_on_c, 0, 54, 32
1, 98880, Tempo, 468494
1, 98880, Note_on_c, 0, 54, 0
1, 98880, Note_on_c, 0, 66, 0
1, 98880, Note_on_c, 0, 75, 72
1, 98880, Note_on_c, 0, 47, 54
1, 98983, Control_c, 0, 64, 127
1, 99120, Tempo, 407194
1, 99120, Note_on_c, 0, 63, 49
1, 99120, Note_on_c, 0, 54, 38
1, 99360, Tempo, 349365
1, 99360, Note_on_c, 0, 54, 0
1, 99360, Note_on_c, 0, 63, 0
1, 99360, Note_on_c, 0, 47, 0
1, 99360, Note_on_c, 0, 66, 56
1, 99360, Note_on_c, 0, 59, 45
1, 99600, Tempo, 347846
1, 99600, Note_on_c, 0, 59, 0
1, 99600, Note_on_c, 0, 66, 0
1, 99600, Note_on_c, 0, 71, 47
1, 99600, Note_on_c, 0, 63, 38
1, 99720, Tempo, 357164
1, 99840, Tempo, 379603
1, 99840, Note_on_c, 0, 63, 0
1, 99840, Note_on_c, 0, 71, 0
1, 99840, Note_on_c, 0, 66, 47
1, 99840, Note_on_c, 0, 59, 37
1, 100080, Tempo, 397562
1, 100080, Note_on_c, 0, 59, 0
1, 100080, Note_on_c, 0, 66, 0
1, 100080, Note_on_c, 0, 63, 47
1, 100080, Note_on_c, 0, 54, 37
1, 100320, Tempo, 458295
1, 100320, Note_on_c, 0, 54, 0
1, 100320, Note_on_c, 0, 63, 0
1, 100320, Note_on_c, 0, 75, 0
1, 100320, Note_on_c, 0, 75, 79
1, 100320, Note_on_c, 0, 46, 60
1, 100334, Control_c, 0, 64, 0
1, 100526, Control_c, 0, 64, 127
1, 100560, Tempo, 407194
1, 100560, Note_on_c, 0, 63, 57
1, 100560, Note_on_c, 0, 55, 45
1, 100800, Tempo, 349365
1, 100800, Note_on_c, 0, 55, 0
1, 100800, Note_on_c, 0, 63, 0
1, 100800, Note_on_c, 0, 46, 0
1, 100800, Note_on_c, 0, 67, 63
1, 100800, Note_on_c, 0, 61, 50
1, 101040, Tempo, 343367
1, 101040, Note_on_c, 0, 61, 0
1, 101040, Note_on_c, 0, 67, 0
1, 101040, Note_on_c, 0, 73, 58
1, 101040, Note_on_c, 0, 63, 46
1, 101280, Tempo, 383068
1, 101280, Note_on_c, 0, 63, 0
1, 101280, Note_on_c, 0, 73, 0
1, 101280, Note_on_c, 0, 67, 58
1, 101280, Note_on_c, 0, 61, 46
1, 101520, Tempo, 372856
1, 101520, Note_on_c, 0, 61, 0
1, 101520, Note_on_c, 0, 67, 0
1, 101520, Note_on_c, 0, 63, 58
1, 101520, Note_on_c, 0, 55, 46
1, 101760, Tempo, 446097
1, 101760, Note_on_c, 0, 55, 0
1, 101760, Note_on_c, 0, 63, 0
1, 101760, Note_on_c, 0, 75, 0
1, 101760, Note_on_c, 0, 75, 81
1, 101760, Note_on_c, 0, 45, 68
1, 101774, Control_c, 0, 64, 0
1, 101932, Control_c, 0, 64, 127
1, 102000, Tempo, 405241
1, 102000, Note_on_c, 0, 63, 62
1, 102000, Note_on_c, 0, 54, 46
1, 102240, Tempo, 355577
1, 102240, Note_on_c, 0, 54, 0
1, 102240, Note_on_c, 0, 63, 0
1, 102240, Note_on_c, 0, 45, 0
1, 102240, Note_on_c, 0, 66, 67
1, 102240, Note_on_c, 0, 60, 49
1, 102360, Tempo, 349365
1, 102480, Tempo, 360079
1, 102480, Note_on_c, 0, 60, 0
1, 102480, Note_on_c, 0, 66, 0
1, 102480, Note_on_c, 0, 72, 66
1, 102480, Note_on_c, 0, 63, 47
1, 102600, Tempo, 339002
1, 102720, Note_on_c, 0, 63, 0
1, 102720, Note_on_c, 0, 72, 0
1, 102720, Note_on_c, 0, 66, 69
1, 102720, Note_on_c, 0, 60, 47
1, 102960, Tempo, 407194
1, 102960, Note_on_c, 0, 60, 0
1, 102960, Note_on_c, 0, 66, 0
1, 102960, Note_on_c, 0, 63, 69
1, 102960, Note_on_c, 0, 54, 48
1, 103200, Tempo, 463320
1, 103200, Note_on_c, 0, 54, 0
1, 103200, Note_on_c, 0, 63, 0
1, 103200, Note_on_c, 0, 75, 0
1, 103200, Note_on_c, 0, 44, 77
1, 103218, Control_c, 0, 64, 0
1, 103429, Control_c, 0, 64, 127
1, 103440, Tempo, 363658
1, 103440, Note_on_c, 0, 63, 62
1, 103440, Note_on_c, 0, 54, 49
1, 103680, Tempo, 347846
1, 103680, Note_on_c, 0, 54, 0
1, 103680, Note_on_c, 0, 63, 0
1, 103680, Note_on_c, 0, 44, 0
1, 103680, Note_on_c, 0, 66, 68
1, 103680, Note_on_c, 0, 60, 52
1, 103800, Tempo, 337572
1, 103920, Note_on_c, 0, 60, 0
1, 103920, Note_on_c, 0, 66, 0
1, 103920, Note_on_c, 0, 72, 65
1, 103920, Note_on_c, 0, 63, 48
1, 104160, Tempo, 395674
1, 104160, Note_on_c, 0, 63, 0
1, 104160, Note_on_c, 0, 72, 0
1, 104160, Note_on_c, 0, 75, 76
1, 104160, Note_on_c, 0, 66, 57
1, 104160, Note_on_c, 0, 60, 48
1, 104400, Tempo, 425773
1, 104400, Note_on_c, 0, 60, 0
1, 104400, Note_on_c, 0, 66, 0
1, 104400, Note_on_c, 0, 63, 66
1, 104400, Note_on_c, 0, 54, 48
1, 104640, Tempo, 465911
1, 104640, Note_on_c, 0, 54, 0
1, 104640, Note_on_c, 0, 63, 0
1, 104640, Note_on_c, 0, 75, 0
1, 104640, Note_on_c, 0, 75, 82
1, 104640, Note_on_c, 0, 43, 81
1, 104655, Control_c, 0, 64, 0
1, 104789, Control_c, 0, 64, 127
1, 104880, Tempo, 388375
1, 104880, Note_on_c, 0, 64, 67
1, 104880, Note_on_c, 0, 55, 45
1, 105120, Tempo, 350898
1, 105120, Note_on_c, 0, 55, 0
1, 105120, Note_on_c, 0, 64, 0
1, 105120, Note_on_c, 0, 43, 0
1, 105120, Note_on_c, 0, 67, 71
1, 105120, Note_on_c, 0, 60, 54
1, 105240, Tempo, 321302
1, 105360, Note_on_c, 0, 60, 0
1, 105360, Note_on_c, 0, 67, 0
1, 105360, Note_on_c, 0, 72, 64
1, 105360, Note_on_c, 0, 64, 48
1, 105600, Tempo, 374508
1, 105600, Note_on_c, 0, 64, 0
1, 105600, Note_on_c, 0, 72, 0
1, 105600, Note_on_c, 0, 75, 0
1, 105600, Note_on_c, 0, 67, 54
1, 105600, Note_on_c, 0, 76, 75
1, 105600, Note_on_c, 0, 60, 45
1, 105840, Tempo, 384813
1, 105840, Note_on_c, 0, 60, 0
1, 105840, Note_on_c, 0, 67, 0
1, 105840, Note_on_c, 0, 64, 63
1, 105840, Note_on_c, 0, 55, 45
1, 106080, Tempo, 450891
1, 106080, Note_on_c, 0, 55, 0
1, 106080, Note_on_c, 0, 64, 0
1, 106080, Note_on_c, 0, 76, 0
1, 106080, Note_on_c, 0, 75, 80
1, 106320, Tempo, 367963
1, 106320, Note_on_c, 0, 64, 64
1, 106320, Note_on_c, 0, 55, 47
1, 106560, Tempo, 341900
1, 106560, Note_on_c, 0, 55, 0
1, 106560, Note_on_c, 0, 64, 0
1, 106560, Note_on_c, 0, 67, 71
1, 106560, Note_on_c, 0, 60, 57
1, 106800, Tempo, 329236
1, 106800, Note_on_c, 0, 60, 0
1, 106800, Note_on_c, 0, 67, 0
1, 106800, Note_on_c, 0, 72, 61
1, 106800, Note_on_c, 0, 64, 47
1, 107040, Tempo, 379603
1, 107040, Note_on_c, 0, 64, 0
1, 107040, Note_on_c, 0, 72, 0
1, 107040, Note_on_c, 0, 75, 0
1, 107040, Note_on_c, 0, 76, 78
1, 107040, Note_on_c, 0, 67, 54
1, 107040, Note_on_c, 0, 60, 47
1, 107280, Tempo, 401365
1, 107280, Note_on_c, 0, 60, 0
1, 107280, Note_on_c, 0, 67, 0
1, 107280, Note_on_c, 0, 64, 54
1, 107280, Note_on_c, 0, 55, 47
1, 107520, Tempo, 448498
1, 107520, Note_on_c, 0, 55, 0
1, 107520, Note_on_c, 0, 64, 0
1, 107520, Note_on_c, 0, 76, 0
1, 107520, Note_on_c, 0, 77, 84
1, 107520, Note_on_c, 0, 43, 75
1, 107536, Control_c, 0, 64, 0
1, 107669, Control_c, 0, 64, 127
1, 107760, Tempo, 401365
1, 107760, Note_on_c, 0, 65, 67
1, 107760, Note_on_c, 0, 57, 52
1, 108000, Tempo, 358530
1, 108000, Note_on_c, 0, 57, 0
1, 108000, Note_on_c, 0, 65, 0
1, 108000, Note_on_c, 0, 43, 0
1, 108000, Note_on_c, 0, 69, 72
1, 108000, Note_on_c, 0, 62, 54
1, 108000, Note_on_c, 0, 60, 54
1, 108120, Tempo, 344847
1, 108240, Tempo, 354003
1, 108240, Note_on_c, 0, 60, 0
1, 108240, Note_on_c, 0, 62, 0
1, 108240, Note_on_c, 0, 69, 0
1, 108240, Note_on_c, 0, 72, 58
1, 108240, Note_on_c, 0, 65, 48
1, 108360, Tempo, 344847
1, 108480, Tempo, 331969
1, 108480, Note_on_c, 0, 65, 0
1, 108480, Note_on_c, 0, 72, 0
1, 108480, Note_on_c, 0, 69, 51
1, 108480, Note_on_c, 0, 62, 48
1, 108480, Note_on_c, 0, 60, 48
1, 108720, Tempo, 401365
1, 108720, Note_on_c, 0, 60, 0
1, 108720, Note_on_c, 0, 62, 0
1, 108720, Note_on_c, 0, 69, 0
1, 108720, Note_on_c, 0, 65, 51
1, 108720, Note_on_c, 0, 57, 48
1, 108960, Tempo, 439110
1, 108960, Note_on_c, 0, 57, 0
1, 108960, Note_on_c, 0, 65, 0
1, 109052, Control_c, 0, 64, 0
1, 109920, Tempo, 432339
1, 109920, Note_on_c, 0, 77, 0
1, 109920, Note_on_c, 0, 57, 70
1, 109920, Note_on_c, 0, 69, 79
1, 110011, Control_c, 0, 64, 127
1, 110400, Tempo, 417304
1, 110400, Note_on_c, 0, 69, 0
1, 110400, Note_on_c, 0, 57, 0
1, 110400, Note_on_c, 0, 57, 75
1, 110400, Note_on_c, 0, 69, 87
1, 110412, Control_c, 0, 64, 0
1, 110556, Control_c, 0, 64, 127
1, 110640, Tempo, 403280
1, 110640, Note_on_c, 0, 43, 63
1, 110880, Note_on_c, 0, 43, 0
1, 110880, Note_on_c, 0, 69, 0
1, 110880, Note_on_c, 0, 57, 0
1, 110880, Note_on_c, 0, 59, 60
1, 110880, Note_on_c, 0, 71, 70
1, 110880, Note_on_c, 0, 50, 60
1, 110880, Note_on_c, 0, 53, 69
1, 111120, Note_on_c, 0, 53, 0
1, 111120, Note_on_c, 0, 50, 0
1, 111120, Note_on_c, 0, 57, 54
1, 111360, Tempo, 401365
1, 111360, Note_on_c, 0, 57, 0
1, 111360, Note_on_c, 0, 71, 0
1, 111360, Note_on_c, 0, 59, 0
1, 111360, Note_on_c, 0, 60, 63
1, 111360, Note_on_c, 0, 72, 72
1, 111360, Note_on_c, 0, 50, 55
1, 111360, Note_on_c, 0, 53, 65
1, 111600, Tempo, 441436
1, 111600, Note_on_c, 0, 53, 0
1, 111600, Note_on_c, 0, 50, 0
1, 111600, Note_on_c, 0, 43, 58
1, 111780, Note_on_c, 0, 43, 0
1, 111780, Note_on_c, 0, 43, 73
1, 111795, Note_on_c, 0, 53, 73
1, 111810, Note_on_c, 0, 59, 74
1, 111825, Note_on_c, 0, 64, 67
1, 111840, Tempo, 417304
1, 111840, Note_on_c, 0, 72, 0
1, 111840, Note_on_c, 0, 60, 0
1, 111840, Note_on_c, 0, 76, 79
1, 111859, Control_c, 0, 64, 0
1, 112020, Note_on_c, 0, 59, 0
1, 112020, Note_on_c, 0, 53, 0
1, 112020, Note_on_c, 0, 43, 0
1, 112024, Control_c, 0, 64, 127
1, 112800, Tempo, 425773
1, 112800, Note_on_c, 0, 64, 0
1, 112800, Note_on_c, 0, 76, 0
1, 112800, Note_on_c, 0, 62, 58
1, 112800, Note_on_c, 0, 74, 67
1, 113280, Key_signature, 0, "major"
1, 113280, Tempo, 377881
1, 113280, Note_on_c, 0, 74, 0
1, 113280, Note_on_c, 0, 62, 0
1, 113280, Note_on_c, 0, 67, 65
1, 113280, Note_on_c, 0, 60, 65
1, 113280, Note_on_c, 0, 72, 75
1, 113280, Note_on_c, 0, 36, 62
1, 113280, Note_on_c, 0, 52, 62
1, 113290, Control_c, 0, 64, 0
1, 113520, Tempo, 358530
1, 113520, Control_c, 0, 64, 127
1, 113760, Tempo, 320684
1, 113760, Note_on_c, 0, 52, 0
1, 113760, Note_on_c, 0, 72, 0
1, 113760, Note_on_c, 0, 67, 0
1, 113760, Note_on_c, 0, 60, 0
1, 113760, Note_on_c, 0, 36, 0
1, 113760, Note_on_c, 0, 72, 73
1, 114000, Tempo, 344135
1, 114000, Note_on_c, 0, 72, 0
1, 114000, Note_on_c, 0, 64, 63
1, 114120, Tempo, 342661
1, 114240, Tempo, 329942
1, 114240, Note_on_c, 0, 64, 0
1, 114240, Note_on_c, 0, 67, 70
1, 114480, Tempo, 357015
1, 114480, Note_on_c, 0, 67, 0
1, 114480, Note_on_c, 0, 60, 61
1, 114720, Tempo, 338314
1, 114720, Note_on_c, 0, 60, 0
1, 114720, Note_on_c, 0, 64, 68
1, 114960, Tempo, 358530
1, 114960, Note_on_c, 0, 64, 0
1, 114960, Note_on_c, 0, 55, 62
1, 115200, Tempo, 345622
1, 115200, Note_on_c, 0, 55, 0
1, 115200, Note_on_c, 0, 60, 70
1, 115440, Tempo, 364764
1, 115440, Note_on_c, 0, 60, 0
1, 115440, Note_on_c, 0, 52, 60
1, 115680, Note_on_c, 0, 52, 0
1, 115680, Note_on_c, 0, 55, 68
1, 115686, Tempo, 366345
1, 115920, Tempo, 411184
1, 115920, Note_on_c, 0, 55, 0
1, 115920, Note_on_c, 0, 84, 82
1, 115920, Note_on_c, 0, 72, 65
1, 115920, Note_on_c, 0, 48, 61
1, 116160, Tempo, 372856
1, 116160, Note_on_c, 0, 48, 0
1, 116160, Note_on_c, 0, 72, 0
1, 116160, Note_on_c, 0, 84, 0
1, 116160, Note_on_c, 0, 72, 68
1, 116160, Note_on_c, 0, 77, 68
1, 116160, Note_on_c, 0, 80, 68
1, 116160, Note_on_c, 0, 84, 84
1, 116160, Note_on_c, 0, 41, 69
1, 116160, Note_on_c, 0, 53, 69
1, 116167, Control_c, 0, 64, 0
1, 116343, Control_c, 0, 64, 127
1, 116400, Note_on_c, 0, 53, 0
1, 116400, Note_on_c, 0, 41, 0
1, 116640, Tempo, 355030
1, 116640, Note_on_c, 0, 68, 68
1, 116880, Note_on_c, 0, 68, 0
1, 116880, Note_on_c, 0, 60, 61
1, 117120, Tempo, 383068
1, 117120, Note_on_c, 0, 60, 0
1, 117120, Note_on_c, 0, 65, 67
1, 117360, Tempo, 403280
1, 117360, Note_on_c, 0, 65, 0
1, 117360, Note_on_c, 0, 84, 0
1, 117360, Note_on_c, 0, 72, 0
1, 117360, Note_on_c, 0, 77, 0
1, 117360, Note_on_c, 0, 80, 0
1, 117360, Note_on_c, 0, 71, 70
1, 117360, Note_on_c, 0, 77, 70
1, 117360, Note_on_c, 0, 80, 70
1, 117360, Note_on_c, 0, 83, 78
1, 117360, Note_on_c, 0, 56, 61
1, 117600, Tempo, 366412
1, 117600, Note_on_c, 0, 56, 0
1, 117600, Note_on_c, 0, 80, 0
1, 117600, Note_on_c, 0, 71, 0
1, 117600, Note_on_c, 0, 77, 0
1, 117600, Note_on_c, 0, 83, 0
1, 117600, Note_on_c, 0, 72, 78
1, 117600, Note_on_c, 0, 77, 78
1, 117600, Note_on_c, 0, 80, 78
1, 117600, Note_on_c, 0, 84, 81
1, 117600, Note_on_c, 0, 60, 66
1, 117621, Control_c, 0, 64, 0
1, 117772, Control_c, 0, 64, 127
1, 117840, Note_on_c, 0, 60, 0
1, 117840, Note_on_c, 0, 53, 61
1, 118080, Tempo, 360079
1, 118080, Note_on_c, 0, 53, 0
1, 118080, Note_on_c, 0, 56, 66
1, 118200, Tempo, 355030
1, 118320, Note_on_c, 0, 56, 0
1, 118320, Note_on_c, 0, 48, 61
1, 118560, Tempo, 384813
1, 118560, Note_on_c, 0, 48, 0
1, 118560, Note_on_c, 0, 53, 67
1, 118800, Tempo, 409165
1, 118800, Note_on_c, 0, 53, 0
1, 118800, Note_on_c, 0, 80, 0
1, 118800, Note_on_c, 0, 72, 0
1, 118800, Note_on_c, 0, 77, 0
1, 118800, Note_on_c, 0, 84, 0
1, 118800, Note_on_c, 0, 74, 68
1, 118800, Note_on_c, 0, 77, 68
1, 118800, Note_on_c, 0, 80, 68
1, 118800, Note_on_c, 0, 86, 80
1, 118800, Note_on_c, 0, 44, 61
1, 119040, Tempo, 377881
1, 119040, Note_on_c, 0, 44, 0
1, 119040, Note_on_c, 0, 80, 0
1, 119040, Note_on_c, 0, 74, 0
1, 119040, Note_on_c, 0, 77, 0
1, 119040, Note_on_c, 0, 86, 0
1, 119040, Note_on_c, 0, 76, 72
1, 119040, Note_on_c, 0, 79, 73
1, 119040, Note_on_c, 0, 88, 90
1, 119040, Note_on_c, 0, 36, 62
1, 119040, Note_on_c, 0, 48, 62
1, 119052, Control_c, 0, 64, 0
1, 119238, Control_c, 0, 64, 127
1, 119520, Tempo, 347122
1, 119520, Note_on_c, 0, 48, 0
1, 119520, Note_on_c, 0, 36, 0
1, 119520, Note_on_c, 0, 72, 73
1, 119760, Note_on_c, 0, 72, 0
1, 119760, Note_on_c, 0, 64, 63
1, 120000, Note_on_c, 0, 64, 0
1, 120000, Note_on_c, 0, 67, 70
1, 120240, Tempo, 386573
1, 120240, Note_on_c, 0, 67, 0
1, 120240, Note_on_c, 0, 88, 0
1, 120240, Note_on_c, 0, 79, 0
1, 120240, Note_on_c, 0, 76, 0
1, 120240, Note_on_c, 0, 74, 75
1, 120240, Note_on_c, 0, 79, 75
1, 120240, Note_on_c, 0, 86, 83
1, 120240, Note_on_c, 0, 60, 61
1, 120480, Tempo, 377881
1, 120480, Note_on_c, 0, 60, 0
1, 120480, Note_on_c, 0, 74, 0
1, 120480, Note_on_c, 0, 79, 0
1, 120480, Note_on_c, 0, 86, 0
1, 120480, Note_on_c, 0, 72, 78
1, 120480, Note_on_c, 0, 79, 81
1, 120480, Note_on_c, 0, 84, 84
1, 120480, Note_on_c, 0, 64, 68
1, 120500, Control_c, 0, 64, 0
1, 120678, Control_c, 0, 64, 127
1, 120720, Note_on_c, 0, 64, 0
1, 120720, Note_on_c, 0, 55, 62
1, 120960, Tempo, 347122
1, 120960, Note_on_c, 0, 55, 0
1, 120960, Note_on_c, 0, 84, 0
1, 120960, Note_on_c, 0, 79, 0
1, 120960, Note_on_c, 0, 72, 0
1, 120960, Note_on_c, 0, 60, 70
1, 121200, Note_on_c, 0, 60, 0
1, 121200, Note_on_c, 0, 52, 60
1, 121440, Note_on_c, 0, 52, 0
1, 121440, Note_on_c, 0, 55, 68
1, 121680, Tempo, 411184
1, 121680, Note_on_c, 0, 55, 0
1, 121680, Note_on_c, 0, 88, 88
1, 121680, Note_on_c, 0, 76, 75
1, 121680, Note_on_c, 0, 48, 61
1, 121920, Tempo, 377881
1, 121920, Note_on_c, 0, 48, 0
1, 121920, Note_on_c, 0, 76, 0
1, 121920, Note_on_c, 0, 88, 0
1, 121920, Note_on_c, 0, 76, 80
1, 121920, Note_on_c, 0, 81, 80
1, 121920, Note_on_c, 0, 84, 80
1, 121920, Note_on_c, 0, 88, 93
1, 121920, Note_on_c, 0, 33, 69
1, 121920, Note_on_c, 0, 45, 69
1, 121934, Control_c, 0, 64, 0
1, 122077, Control_c, 0, 64, 127
1, 122160, Note_on_c, 0, 45, 0
1, 122160, Note_on_c, 0, 33, 0
1, 122400, Tempo, 351700
1, 122400, Note_on_c, 0, 72, 68
1, 122640, Note_on_c, 0, 72, 0
1, 122640, Note_on_c, 0, 64, 61
1, 122880, Tempo, 383068
1, 122880, Note_on_c, 0, 64, 0
1, 122880, Note_on_c, 0, 69, 67
1, 123120, Tempo, 403280
1, 123120, Note_on_c, 0, 69, 0
1, 123120, Note_on_c, 0, 88, 0
1, 123120, Note_on_c, 0, 76, 0
1, 123120, Note_on_c, 0, 81, 0
1, 123120, Note_on_c, 0, 84, 0
1, 123120, Note_on_c, 0, 75, 74
1, 123120, Note_on_c, 0, 81, 74
1, 123120, Note_on_c, 0, 84, 74
1, 123120, Note_on_c, 0, 87, 88
1, 123120, Note_on_c, 0, 60, 61
1, 123360, Tempo, 368098
1, 123360, Note_on_c, 0, 60, 0
1, 123360, Note_on_c, 0, 84, 0
1, 123360, Note_on_c, 0, 75, 0
1, 123360, Note_on_c, 0, 81, 0
1, 123360, Note_on_c, 0, 87, 0
1, 123360, Note_on_c, 0, 76, 75
1, 123360, Note_on_c, 0, 81, 75
1, 123360, Note_on_c, 0, 84, 75
1, 123360, Note_on_c, 0, 88, 93
1, 123360, Note_on_c, 0, 64, 72
1, 123376, Control_c, 0, 64, 0
1, 123475, Control_c, 0, 64, 127
1, 123600, Note_on_c, 0, 64, 0
1, 123600, Note_on_c, 0, 57, 66
1, 123840, Note_on_c, 0, 57, 0
1, 123840, Note_on_c, 0, 60, 73
1, 124080, Note_on_c, 0, 60, 0
1, 124080, Note_on_c, 0, 52, 68
1, 124320, Tempo, 386573
1, 124320, Note_on_c, 0, 52, 0
1, 124320, Note_on_c, 0, 57, 77
1, 124560, Tempo, 473784
1, 124560, Note_on_c, 0, 57, 0
1, 124560, Note_on_c, 0, 84, 0
1, 124560, Note_on_c, 0, 76, 0
1, 124560, Note_on_c, 0, 81, 0
1, 124560, Note_on_c, 0, 88, 0
1, 124560, Note_on_c, 0, 78, 83
1, 124560, Note_on_c, 0, 90, 88
1, 124560, Note_on_c, 0, 48, 71
1, 124800, Tempo, 399441
1, 124800, Note_on_c, 0, 48, 0
1, 124800, Note_on_c, 0, 90, 0
1, 124800, Note_on_c, 0, 78, 0
1, 124800, Note_on_c, 0, 80, 80
1, 124800, Note_on_c, 0, 92, 95
1, 124800, Note_on_c, 0, 40, 70
1, 124800, Note_on_c, 0, 52, 80
1, 124811, Control_c, 0, 64, 0
1, 124998, Control_c, 0, 64, 127
1, 125040, Tempo, 376199
1, 125040, Note_on_c, 0, 71, 63
1, 125040, Note_on_c, 0, 59, 57
1, 125280, Tempo, 339002
1, 125280, Note_on_c, 0, 76, 70
1, 125280, Note_on_c, 0, 56, 58
1, 125304, Note_on_c, 0, 59, 0
1, 125304, Note_on_c, 0, 71, 0
1, 125520, Tempo, 320017
1, 125520, Note_on_c, 0, 68, 62
1, 125520, Note_on_c, 0, 64, 57
1, 125544, Note_on_c, 0, 56, 0
1, 125544, Note_on_c, 0, 76, 0
1, 125760, Tempo, 337572
1, 125760, Note_on_c, 0, 71, 63
1, 125760, Note_on_c, 0, 59, 53
1, 125784, Note_on_c, 0, 64, 0
1, 125784, Note_on_c, 0, 68, 0
1, 126000, Tempo, 427930
1, 126000, Note_on_c, 0, 76, 63
1, 126000, Note_on_c, 0, 56, 53
1, 126024, Note_on_c, 0, 59, 0
1, 126024, Note_on_c, 0, 71, 0
1, 126240, Tempo, 369572
1, 126240, Note_on_c, 0, 76, 0
1, 126240, Note_on_c, 0, 92, 0
1, 126240, Note_on_c, 0, 40, 0
1, 126240, Note_on_c, 0, 80, 0
1, 126240, Note_on_c, 0, 52, 0
1, 126240, Note_on_c, 0, 56, 0
1, 126240, Note_on_c, 0, 80, 80
1, 126240, Note_on_c, 0, 92, 95
1, 126240, Note_on_c, 0, 40, 70
1, 126240, Note_on_c, 0, 52, 80
1, 126480, Note_on_c, 0, 71, 67
1, 126480, Note_on_c, 0, 59, 57
1, 126720, Tempo, 337572
1, 126720, Note_on_c, 0, 76, 67
1, 126720, Note_on_c, 0, 56, 62
1, 126744, Note_on_c, 0, 59, 0
1, 126744, Note_on_c, 0, 71, 0
1, 126960, Tempo, 321302
1, 126960, Note_on_c, 0, 68, 65
1, 126960, Note_on_c, 0, 64, 59
1, 126984, Note_on_c, 0, 56, 0
1, 126984, Note_on_c, 0, 76, 0
1, 127200, Tempo, 343367
1, 127200, Note_on_c, 0, 71, 62
1, 127200, Note_on_c, 0, 59, 59
1, 127224, Note_on_c, 0, 64, 0
1, 127224, Note_on_c, 0, 68, 0
1, 127440, Tempo, 439110
1, 127440, Note_on_c, 0, 76, 62
1, 127440, Note_on_c, 0, 56, 62
1, 127464, Note_on_c, 0, 59, 0
1, 127464, Note_on_c, 0, 71, 0
1, 127680, Tempo, 413195
1, 127680, Note_on_c, 0, 76, 0
1, 127680, Note_on_c, 0, 92, 0
1, 127680, Note_on_c, 0, 40, 0
1, 127680, Note_on_c, 0, 80, 0
1, 127680, Note_on_c, 0, 52, 0
1, 127680, Note_on_c, 0, 56, 0
1, 127680, Note_on_c, 0, 80, 80
1, 127680, Note_on_c, 0, 92, 95
1, 127680, Note_on_c, 0, 39, 70
1, 127680, Note_on_c, 0, 51, 80
1, 127690, Control_c, 0, 64, 0
1, 127840, Control_c, 0, 64, 127
1, 127920, Tempo, 379603
1, 127920, Note_on_c, 0, 72, 67
1, 127920, Note_on_c, 0, 60, 61
1, 128160, Tempo, 334262
1, 128160, Note_on_c, 0, 78, 71
1, 128160, Note_on_c, 0, 56, 65
1, 128184, Note_on_c, 0, 60, 0
1, 128184, Note_on_c, 0, 72, 0
1, 128280, Tempo, 317477
1, 128400, Note_on_c, 0, 68, 67
1, 128400, Note_on_c, 0, 66, 61
1, 128424, Note_on_c, 0, 56, 0
1, 128424, Note_on_c, 0, 78, 0
1, 128640, Tempo, 340445
1, 128640, Note_on_c, 0, 72, 73
1, 128640, Note_on_c, 0, 60, 59
1, 128664, Note_on_c, 0, 66, 0
1, 128664, Note_on_c, 0, 68, 0
1, 128880, Tempo, 365319
1, 128880, Note_on_c, 0, 78, 76
1, 128880, Note_on_c, 0, 56, 65
1, 128904, Note_on_c, 0, 60, 0
1, 128904, Note_on_c, 0, 72, 0
1, 129120, Tempo, 377881
1, 129120, Note_on_c, 0, 78, 0
1, 129120, Note_on_c, 0, 92, 0
1, 129120, Note_on_c, 0, 39, 0
1, 129120, Note_on_c, 0, 80, 0
1, 129120, Note_on_c, 0, 51, 0
1, 129120, Note_on_c, 0, 56, 0
1, 129120, Note_on_c, 0, 80, 81
1, 129120, Note_on_c, 0, 51, 73
1, 129240, Tempo, 362013
1, 129360, Note_on_c, 0, 72, 71
1, 129360, Note_on_c, 0, 60, 61
1, 129384, Note_on_c, 0, 51, 0
1, 129384, Note_on_c, 0, 80, 0
1, 129600, Tempo, 333352
1, 129600, Note_on_c, 0, 78, 76
1, 129600, Note_on_c, 0, 56, 64
1, 129624, Note_on_c, 0, 72, 0
1, 129624, Note_on_c, 0, 60, 0
1, 129840, Tempo, 317477
1, 129840, Note_on_c, 0, 72, 70
1, 129840, Note_on_c, 0, 66, 59
1, 129864, Note_on_c, 0, 78, 0
1, 129864, Note_on_c, 0, 56, 0
1, 130080, Tempo, 346340
1, 130080, Note_on_c, 0, 60, 64
1, 130104, Note_on_c, 0, 72, 0
1, 130104, Note_on_c, 0, 66, 0
1, 130320, Tempo, 473784
1, 130320, Note_on_c, 0, 80, 83
1, 130320, Note_on_c, 0, 92, 88
1, 130320, Note_on_c, 0, 56, 67
1, 130344, Note_on_c, 0, 60, 0
1, 130560, Tempo, 399441
1, 130560, Note_on_c, 0, 80, 0
1, 130560, Note_on_c, 0, 92, 0
1, 130560, Note_on_c, 0, 56, 0
1, 130560, Note_on_c, 0, 80, 80
1, 130560, Note_on_c, 0, 92, 95
1, 130560, Note_on_c, 0, 38, 70
1, 130560, Note_on_c, 0, 50, 80
1, 130571, Control_c, 0, 64, 0
1, 130758, Control_c, 0, 64, 127
1, 130800, Tempo, 370393
1, 130800, Note_on_c, 0, 71, 68
1, 130800, Note_on_c, 0, 59, 60
1, 131040, Tempo, 331969
1, 131040, Note_on_c, 0, 76, 70
1, 131040, Note_on_c, 0, 56, 62
1, 131064, Note_on_c, 0, 59, 0
1, 131064, Note_on_c, 0, 71, 0
1, 131280, Tempo, 316222
1, 131280, Note_on_c, 0, 68, 68
1, 131280, Note_on_c, 0, 66, 61
1, 131304, Note_on_c, 0, 56, 0
1, 131304, Note_on_c, 0, 76, 0
1, 131520, Tempo, 344847
1, 131520, Note_on_c, 0, 92, 0
1, 131520, Note_on_c, 0, 80, 0
1, 131520, Note_on_c, 0, 59, 57
1, 131544, Note_on_c, 0, 66, 0
1, 131544, Note_on_c, 0, 68, 0
1, 131760, Tempo, 403280
1, 131760, Note_on_c, 0, 92, 82
1, 131760, Note_on_c, 0, 80, 77
1, 131760, Note_on_c, 0, 56, 66
1, 131784, Note_on_c, 0, 59, 0
1, 132000, Tempo, 377881
1, 132000, Note_on_c, 0, 50, 0
1, 132000, Note_on_c, 0, 92, 0
1, 132000, Note_on_c, 0, 38, 0
1, 132000, Note_on_c, 0, 56, 0
1, 132000, Note_on_c, 0, 80, 0
1, 132000, Note_on_c, 0, 81, 80
1, 132000, Note_on_c, 0, 93, 95
1, 132000, Note_on_c, 0, 37, 70
1, 132000, Note_on_c, 0, 49, 80
1, 132017, Control_c, 0, 64, 0
1, 132184, Control_c, 0, 64, 127
1, 132240, Note_on_c, 0, 71, 67
1, 132240, Note_on_c, 0, 59, 61
1, 132480, Tempo, 323904
1, 132480, Note_on_c, 0, 77, 73
1, 132480, Note_on_c, 0, 56, 65
1, 132504, Note_on_c, 0, 59, 0
1, 132504, Note_on_c, 0, 71, 0
1, 132720, Note_on_c, 0, 68, 67
1, 132720, Note_on_c, 0, 65, 62
1, 132744, Note_on_c, 0, 56, 0
1, 132744, Note_on_c, 0, 77, 0
1, 132960, Tempo, 379603
1, 132960, Note_on_c, 0, 93, 0
1, 132960, Note_on_c, 0, 81, 0
1, 132960, Note_on_c, 0, 59, 59
1, 132984, Note_on_c, 0, 65, 0
1, 132984, Note_on_c, 0, 68, 0
1, 133200, Tempo, 504838
1, 133200, Note_on_c, 0, 92, 83
1, 133200, Note_on_c, 0, 80, 76
1, 133200, Note_on_c, 0, 56, 67
1, 133224, Note_on_c, 0, 59, 0
1, 133440, Tempo, 413195
1, 133440, Note_on_c, 0, 49, 0
1, 133440, Note_on_c, 0, 92, 0
1, 133440, Note_on_c, 0, 37, 0
1, 133440, Note_on_c, 0, 56, 0
1, 133440, Note_on_c, 0, 80, 0
1, 133440, Note_on_c, 0, 80, 80
1, 133440, Note_on_c, 0, 92, 95
1, 133440, Note_on_c, 0, 42, 80
1, 133450, Control_c, 0, 64, 0
1, 133600, Control_c, 0, 64, 127
1, 133680, Tempo, 379603
1, 133680, Note_on_c, 0, 42, 0
1, 133680, Note_on_c, 0, 52, 63
1, 133920, Tempo, 343367
1, 133920, Note_on_c, 0, 52, 0
1, 133920, Note_on_c, 0, 58, 65
1, 134040, Tempo, 326548
1, 134100, Note_on_c, 0, 58, 0
1, 134160, Note_on_c, 0, 58, 67
1, 134400, Tempo, 344847
1, 134400, Note_on_c, 0, 58, 0
1, 134400, Note_on_c, 0, 64, 70
1, 134640, Tempo, 357164
1, 134640, Note_on_c, 0, 64, 0
1, 134640, Note_on_c, 0, 68, 72
1, 134820, Note_on_c, 0, 68, 0
1, 134880, Tempo, 371517
1, 134880, Note_on_c, 0, 92, 0
1, 134880, Note_on_c, 0, 80, 0
1, 134880, Note_on_c, 0, 73, 70
1, 134880, Note_on_c, 0, 85, 85
1, 134880, Note_on_c, 0, 68, 77
1, 135120, Note_on_c, 0, 68, 0
1, 135120, Note_on_c, 0, 64, 69
1, 135360, Tempo, 321302
1, 135360, Note_on_c, 0, 64, 0
1, 135360, Note_on_c, 0, 85, 0
1, 135360, Note_on_c, 0, 73, 0
1, 135360, Note_on_c, 0, 58, 71
1, 135540, Note_on_c, 0, 58, 0
1, 135600, Note_on_c, 0, 58, 64
1, 135840, Tempo, 383068
1, 135840, Note_on_c, 0, 58, 0
1, 135840, Note_on_c, 0, 73, 70
1, 135840, Note_on_c, 0, 85, 80
1, 135840, Note_on_c, 0, 52, 70
1, 136080, Note_on_c, 0, 52, 0
1, 136080, Note_on_c, 0, 42, 64
1, 136320, Tempo, 397562
1, 136320, Note_on_c, 0, 42, 0
1, 136320, Note_on_c, 0, 85, 0
1, 136320, Note_on_c, 0, 73, 0
1, 136320, Note_on_c, 0, 73, 70
1, 136320, Note_on_c, 0, 81, 70
1, 136320, Note_on_c, 0, 85, 85
1, 136320, Note_on_c, 0, 35, 80
1, 136335, Control_c, 0, 64, 0
1, 136480, Control_c, 0, 64, 127
1, 136560, Tempo, 363086
1, 136560, Note_on_c, 0, 35, 0
1, 136560, Note_on_c, 0, 47, 63
1, 136800, Tempo, 336153
1, 136800, Note_on_c, 0, 47, 0
1, 136800, Note_on_c, 0, 85, 0
1, 136800, Note_on_c, 0, 81, 0
1, 136800, Note_on_c, 0, 73, 0
1, 136800, Note_on_c, 0, 75, 70
1, 136800, Note_on_c, 0, 83, 70
1, 136800, Note_on_c, 0, 81, 70
1, 136800, Note_on_c, 0, 87, 84
1, 136800, Note_on_c, 0, 54, 65
1, 137040, Note_on_c, 0, 54, 0
1, 137040, Note_on_c, 0, 57, 67
1, 137280, Tempo, 371517
1, 137280, Note_on_c, 0, 57, 0
1, 137280, Note_on_c, 0, 87, 0
1, 137280, Note_on_c, 0, 75, 0
1, 137280, Note_on_c, 0, 83, 0
1, 137280, Note_on_c, 0, 81, 0
1, 137280, Note_on_c, 0, 76, 71
1, 137280, Note_on_c, 0, 83, 71
1, 137280, Note_on_c, 0, 81, 71
1, 137280, Note_on_c, 0, 88, 85
1, 137280, Note_on_c, 0, 61, 70
1, 137520, Tempo, 419375
1, 137520, Note_on_c, 0, 61, 0
1, 137520, Note_on_c, 0, 64, 72
1, 137760, Tempo, 359820
1, 137760, Note_on_c, 0, 64, 0
1, 137760, Note_on_c, 0, 88, 0
1, 137760, Note_on_c, 0, 76, 0
1, 137760, Note_on_c, 0, 83, 0
1, 137760, Note_on_c, 0, 81, 0
1, 137760, Note_on_c, 0, 80, 7
1, 137760, Note_on_c, 0, 83, 75
1, 137760, Note_on_c, 0, 87, 81
1, 137760, Note_on_c, 0, 92, 90
1, 137760, Note_on_c, 0, 68, 77
1, 137776, Control_c, 0, 64, 0
1, 137943, Control_c, 0, 64, 127
1, 138000, Note_on_c, 0, 68, 0
1, 138000, Note_on_c, 0, 63, 69
1, 138240, Tempo, 342857
1, 138240, Note_on_c, 0, 63, 0
1, 138240, Note_on_c, 0, 59, 71
1, 138480, Note_on_c, 0, 59, 0
1, 138480, Note_on_c, 0, 57, 64
1, 138720, Tempo, 366412
1, 138720, Note_on_c, 0, 57, 0
1, 138720, Note_on_c, 0, 92, 0
1, 138720, Note_on_c, 0, 80, 0
1, 138720, Note_on_c, 0, 83, 0
1, 138720, Note_on_c, 0, 87, 0
1, 138720, Note_on_c, 0, 78, 76
1, 138720, Note_on_c, 0, 90, 85
1, 138720, Note_on_c, 0, 51, 70
1, 138960, Note_on_c, 0, 51, 0
1, 138960, Note_on_c, 0, 47, 64
1, 139200, Tempo, 397562
1, 139200, Note_on_c, 0, 47, 0
1, 139200, Note_on_c, 0, 90, 0
1, 139200, Note_on_c, 0, 78, 0
1, 139200, Note_on_c, 0, 78, 73
1, 139200, Note_on_c, 0, 80, 73
1, 139200, Note_on_c, 0, 83, 73
1, 139200, Note_on_c, 0, 90, 89
1, 139200, Note_on_c, 0, 40, 80
1, 139209, Control_c, 0, 64, 0
1, 139360, Control_c, 0, 64, 127
1, 139440, Tempo, 379603
1, 139440, Note_on_c, 0, 40, 0
1, 139440, Note_on_c, 0, 47, 63
1, 139680, Tempo, 356612
1, 139680, Note_on_c, 0, 47, 0
1, 139680, Note_on_c, 0, 90, 0
1, 139680, Note_on_c, 0, 78, 0
1, 139680, Note_on_c, 0, 80, 0
1, 139680, Note_on_c, 0, 83, 0
1, 139680, Note_on_c, 0, 76, 79
1, 139680, Note_on_c, 0, 88, 85
1, 139680, Note_on_c, 0, 52, 65
1, 139920, Note_on_c, 0, 52, 0
1, 139920, Note_on_c, 0, 56, 67
1, 140160, Tempo, 388375
1, 140160, Note_on_c, 0, 56, 0
1, 140160, Note_on_c, 0, 88, 0
1, 140160, Note_on_c, 0, 76, 0
1, 140160, Note_on_c, 0, 73, 70
1, 140160, Note_on_c, 0, 79, 70
1, 140160, Note_on_c, 0, 85, 82
1, 140160, Note_on_c, 0, 58, 70
1, 140172, Control_c, 0, 64, 0
1, 140320, Control_c, 0, 64, 127
1, 140400, Tempo, 384813
1, 140400, Note_on_c, 0, 58, 0
1, 140400, Note_on_c, 0, 64, 69
1, 140640, Tempo, 377881
1, 140640, Note_on_c, 0, 64, 0
1, 140640, Note_on_c, 0, 85, 0
1, 140640, Note_on_c, 0, 79, 0
1, 140640, Note_on_c, 0, 73, 0
1, 140640, Note_on_c, 0, 71, 67
1, 140640, Note_on_c, 0, 80, 67
1, 140640, Note_on_c, 0, 83, 78
1, 140640, Note_on_c, 0, 59, 77
1, 140655, Control_c, 0, 64, 0
1, 140766, Control_c, 0, 64, 127
1, 140880, Note_on_c, 0, 59, 0
1, 140880, Note_on_c, 0, 68, 69
1, 141120, Tempo, 356612
1, 141120, Note_on_c, 0, 68, 0
1, 141120, Note_on_c, 0, 83, 0
1, 141120, Note_on_c, 0, 80, 0
1, 141120, Note_on_c, 0, 71, 0
1, 141120, Note_on_c, 0, 64, 71
1, 141360, Note_on_c, 0, 64, 0
1, 141360, Note_on_c, 0, 59, 64
1, 141600, Note_on_c, 0, 59, 0
1, 141600, Note_on_c, 0, 71, 71
1, 141600, Note_on_c, 0, 83, 83
1, 141600, Note_on_c, 0, 56, 70
1, 141840, Tempo, 379603
1, 141840, Note_on_c, 0, 56, 0
1, 141840, Note_on_c, 0, 47, 64
1, 142080, Tempo, 399441
1, 142080, Note_on_c, 0, 47, 0
1, 142080, Note_on_c, 0, 83, 0
1, 142080, Note_on_c, 0, 71, 0
1, 142080, Note_on_c, 0, 80, 80
1, 142080, Note_on_c, 0, 92, 95
1, 142080, Note_on_c, 0, 40, 70
1, 142080, Note_on_c, 0, 52, 80
1, 142089, Control_c, 0, 64, 0
1, 142278, Control_c, 0, 64, 127
1, 142320, Tempo, 376199
1, 142320, Note_on_c, 0, 71, 68
1, 142320, Note_on_c, 0, 59, 60
1, 142560, Tempo, 326087
1, 142560, Note_on_c, 0, 76, 71
1, 142560, Note_on_c, 0, 56, 63
1, 142584, Note_on_c, 0, 59, 0
1, 142584, Note_on_c, 0, 71, 0
1, 142800, Tempo, 312516
1, 142800, Note_on_c, 0, 68, 68
1, 142800, Note_on_c, 0, 64, 61
1, 142824, Note_on_c, 0, 56, 0
1, 142824, Note_on_c, 0, 76, 0
1, 143040, Tempo, 336153
1, 143040, Note_on_c, 0, 71, 64
1, 143040, Note_on_c, 0, 59, 57
1, 143064, Note_on_c, 0, 64, 0
1, 143064, Note_on_c, 0, 68, 0
1, 143280, Tempo, 390168
1, 143280, Note_on_c, 0, 76, 64
1, 143280, Note_on_c, 0, 56, 57
1, 143304, Note_on_c, 0, 59, 0
1, 143304, Note_on_c, 0, 71, 0
1, 143520, Tempo, 377881
1, 143520, Note_on_c, 0, 76, 0
1, 143520, Note_on_c, 0, 92, 0
1, 143520, Note_on_c, 0, 40, 0
1, 143520, Note_on_c, 0, 80, 0
1, 143520, Note_on_c, 0, 52, 0
1, 143520, Note_on_c, 0, 56, 0
1, 143520, Note_on_c, 0, 80, 80
1, 143520, Note_on_c, 0, 92, 95
1, 143520, Note_on_c, 0, 39, 70
1, 143520, Note_on_c, 0, 51, 80
1, 143535, Control_c, 0, 64, 0
1, 143646, Control_c, 0, 64, 127
1, 143760, Note_on_c, 0, 72, 67
1, 143760, Note_on_c, 0, 60, 61
1, 144000, Tempo, 324763
1, 144000, Note_on_c, 0, 78, 70
1, 144000, Note_on_c, 0, 56, 64
1, 144024, Note_on_c, 0, 60, 0
1, 144024, Note_on_c, 0, 72, 0
1, 144240, Tempo, 313742
1, 144240, Note_on_c, 0, 68, 67
1, 144240, Note_on_c, 0, 66, 62
1, 144264, Note_on_c, 0, 56, 0
1, 144264, Note_on_c, 0, 78, 0
1, 144480, Tempo, 349365
1, 144480, Note_on_c, 0, 72, 62
1, 144480, Note_on_c, 0, 60, 57
1, 144504, Note_on_c, 0, 66, 0
1, 144504, Note_on_c, 0, 68, 0
1, 144720, Tempo, 439110
1, 144720, Note_on_c, 0, 78, 62
1, 144720, Note_on_c, 0, 56, 57
1, 144744, Note_on_c, 0, 60, 0
1, 144744, Note_on_c, 0, 72, 0
1, 144960, Tempo, 413195
1, 144960, Note_on_c, 0, 78, 0
1, 144960, Note_on_c, 0, 92, 0
1, 144960, Note_on_c, 0, 39, 0
1, 144960, Note_on_c, 0, 80, 0
1, 144960, Note_on_c, 0, 51, 0
1, 144960, Note_on_c, 0, 56, 0
1, 144960, Note_on_c, 0, 80, 80
1, 144960, Note_on_c, 0, 92, 95
1, 144960, Note_on_c, 0, 38, 70
1, 144960, Note_on_c, 0, 50, 80
1, 144972, Control_c, 0, 64, 0
1, 145120, Control_c, 0, 64, 127
1, 145200, Tempo, 364742
1, 145200, Note_on_c, 0, 71, 67
1, 145200, Note_on_c, 0, 59, 61
1, 145440, Tempo, 334262
1, 145440, Note_on_c, 0, 77, 70
1, 145440, Note_on_c, 0, 56, 65
1, 145464, Note_on_c, 0, 59, 0
1, 145464, Note_on_c, 0, 71, 0
1, 145680, Tempo, 323904
1, 145680, Note_on_c, 0, 68, 67
1, 145680, Note_on_c, 0, 65, 61
1, 145704, Note_on_c, 0, 56, 0
1, 145704, Note_on_c, 0, 77, 0
1, 145920, Tempo, 350898
1, 145920, Note_on_c, 0, 71, 73
1, 145920, Note_on_c, 0, 59, 60
1, 145944, Note_on_c, 0, 65, 0
1, 145944, Note_on_c, 0, 68, 0
1, 146160, Tempo, 368686
1, 146160, Note_on_c, 0, 77, 76
1, 146160, Note_on_c, 0, 56, 63
1, 146184, Note_on_c, 0, 59, 0
1, 146184, Note_on_c, 0, 71, 0
1, 146280, Tempo, 360382
1, 146400, Tempo, 361446
1, 146400, Note_on_c, 0, 77, 0
1, 146400, Note_on_c, 0, 56, 0
1, 146400, Note_on_c, 0, 38, 0
1, 146400, Note_on_c, 0, 50, 0
1, 146400, Note_on_c, 0, 80, 0
1, 146400, Note_on_c, 0, 80, 84
1, 146400, Note_on_c, 0, 49, 77
1, 146418, Control_c, 0, 64, 0
1, 146520, Tempo, 347846
1, 146640, Note_on_c, 0, 80, 0
1, 146640, Note_on_c, 0, 71, 72
1, 146640, Note_on_c, 0, 59, 61
1, 146640, Control_c, 0, 64, 127
1, 146880, Tempo, 331492
1, 146880, Note_on_c, 0, 77, 73
1, 146880, Note_on_c, 0, 56, 64
1, 146904, Note_on_c, 0, 59, 0
1, 146904, Note_on_c, 0, 71, 0
1, 147120, Tempo, 322598
1, 147120, Note_on_c, 0, 68, 67
1, 147120, Note_on_c, 0, 65, 59
1, 147144, Note_on_c, 0, 77, 0
1, 147144, Note_on_c, 0, 56, 0
1, 147360, Tempo, 379603
1, 147360, Note_on_c, 0, 71, 63
1, 147360, Note_on_c, 0, 59, 64
1, 147384, Note_on_c, 0, 68, 0
1, 147384, Note_on_c, 0, 65, 0
1, 147600, Tempo, 393830
1, 147600, Note_on_c, 0, 77, 68
1, 147600, Note_on_c, 0, 56, 63
1, 147624, Note_on_c, 0, 71, 0
1, 147624, Note_on_c, 0, 59, 0
1, 147840, Tempo, 399441
1, 147840, Note_on_c, 0, 49, 0
1, 147840, Note_on_c, 0, 92, 0
1, 147840, Note_on_c, 0, 56, 0
1, 147840, Note_on_c, 0, 77, 0
1, 147840, Note_on_c, 0, 80, 80
1, 147840, Note_on_c, 0, 92, 95
1, 147840, Note_on_c, 0, 36, 70
1, 147840, Note_on_c, 0, 48, 80
1, 147855, Control_c, 0, 64, 0
1, 147960, Tempo, 369800
1, 148038, Control_c, 0, 64, 127
1, 148080, Tempo, 376199
1, 148080, Note_on_c, 0, 72, 68
1, 148080, Note_on_c, 0, 60, 60
1, 148320, Tempo, 332871
1, 148320, Note_on_c, 0, 77, 70
1, 148320, Note_on_c, 0, 56, 64
1, 148344, Note_on_c, 0, 60, 0
1, 148344, Note_on_c, 0, 72, 0
1, 148560, Tempo, 323904
1, 148560, Note_on_c, 0, 68, 68
1, 148560, Note_on_c, 0, 65, 61
1, 148584, Note_on_c, 0, 56, 0
1, 148584, Note_on_c, 0, 77, 0
1, 148800, Tempo, 355577
1, 148800, Note_on_c, 0, 72, 64
1, 148800, Note_on_c, 0, 60, 57
1, 148824, Note_on_c, 0, 65, 0
1, 148824, Note_on_c, 0, 68, 0
1, 149040, Tempo, 403280
1, 149040, Note_on_c, 0, 77, 64
1, 149040, Note_on_c, 0, 56, 57
1, 149064, Note_on_c, 0, 60, 0
1, 149064, Note_on_c, 0, 72, 0
1, 149280, Tempo, 377881
1, 149280, Note_on_c, 0, 77, 0
1, 149280, Note_on_c, 0, 92, 0
1, 149280, Note_on_c, 0, 36, 0
1, 149280, Note_on_c, 0, 80, 0
1, 149280, Note_on_c, 0, 48, 0
1, 149280, Note_on_c, 0, 56, 0
1, 149280, Note_on_c, 0, 80, 80
1, 149280, Note_on_c, 0, 92, 95
1, 149280, Note_on_c, 0, 47, 89
1, 149280, Note_on_c, 0, 35, 89
1, 149294, Control_c, 0, 64, 0
1, 149400, Tempo, 363086
1, 149406, Control_c, 0, 64, 127
1, 149520, Note_on_c, 0, 73, 67
1, 149520, Note_on_c, 0, 61, 61
1, 149760, Tempo, 338505
1, 149760, Note_on_c, 0, 77, 70
1, 149760, Note_on_c, 0, 56, 66
1, 149784, Note_on_c, 0, 61, 0
1, 149784, Note_on_c, 0, 73, 0
1, 150000, Tempo, 327887
1, 150000, Note_on_c, 0, 68, 67
1, 150000, Note_on_c, 0, 65, 62
1, 150024, Note_on_c, 0, 56, 0
1, 150024, Note_on_c, 0, 77, 0
1, 150240, Tempo, 386573
1, 150240, Note_on_c, 0, 73, 64
1, 150240, Note_on_c, 0, 61, 59
1, 150264, Note_on_c, 0, 65, 0
1, 150264, Note_on_c, 0, 68, 0
1, 150480, Tempo, 495458
1, 150480, Note_on_c, 0, 77, 64
1, 150480, Note_on_c, 0, 56, 62
1, 150504, Note_on_c, 0, 61, 0
1, 150504, Note_on_c, 0, 73, 0
1, 150720, Key_signature, -4, "major"
1, 150720, Tempo, 390168
1, 150720, Note_on_c, 0, 77, 0
1, 150720, Note_on_c, 0, 92, 0
1, 150720, Note_on_c, 0, 47, 0
1, 150720, Note_on_c, 0, 80, 0
1, 150720, Note_on_c, 0, 35, 0
1, 150720, Note_on_c, 0, 56, 0
1, 150720, Note_on_c, 0, 86, 79
1, 150720, Note_on_c, 0, 80, 79
1, 150720, Note_on_c, 0, 92, 96
1, 150720, Note_on_c, 0, 34, 96
1, 150720, Note_on_c, 0, 46, 96
1, 150732, Control_c, 0, 64, 0
1, 150902, Control_c, 0, 64, 127
1, 150960, Note_on_c, 0, 56, 78
1, 151200, Tempo, 356612
1, 151200, Note_on_c, 0, 56, 0
1, 151200, Note_on_c, 0, 34, 0
1, 151200, Note_on_c, 0, 46, 0
1, 151200, Note_on_c, 0, 62, 78
1, 151440, Note_on_c, 0, 62, 0
1, 151440, Note_on_c, 0, 65, 78
1, 151680, Note_on_c, 0, 65, 0
1, 151680, Note_on_c, 0, 86, 0
1, 151680, Note_on_c, 0, 92, 0
1, 151680, Note_on_c, 0, 80, 0
1, 151680, Note_on_c, 0, 79, 78
1, 151680, Note_on_c, 0, 91, 90
1, 151680, Note_on_c, 0, 62, 74
1, 151920, Tempo, 385852
1, 151920, Note_on_c, 0, 62, 0
1, 151920, Note_on_c, 0, 56, 74
1, 152160, Tempo, 382166
1, 152160, Note_on_c, 0, 56, 0
1, 152160, Note_on_c, 0, 91, 0
1, 152160, Note_on_c, 0, 79, 0
1, 152160, Note_on_c, 0, 89, 90
1, 152160, Note_on_c, 0, 77, 78
1, 152160, Note_on_c, 0, 53, 82
1, 152400, Note_on_c, 0, 53, 0
1, 152400, Note_on_c, 0, 56, 78
1, 152520, Tempo, 356612
1, 152640, Tempo, 364742
1, 152640, Note_on_c, 0, 56, 0
1, 152640, Note_on_c, 0, 77, 0
1, 152640, Note_on_c, 0, 89, 0
1, 152640, Note_on_c, 0, 67, 68
1, 152640, Note_on_c, 0, 79, 81
1, 152640, Note_on_c, 0, 62, 78
1, 152880, Note_on_c, 0, 62, 0
1, 152880, Note_on_c, 0, 65, 78
1, 153120, Tempo, 413195
1, 153120, Note_on_c, 0, 65, 0
1, 153120, Note_on_c, 0, 79, 0
1, 153120, Note_on_c, 0, 67, 0
1, 153120, Note_on_c, 0, 68, 69
1, 153120, Note_on_c, 0, 80, 81
1, 153120, Note_on_c, 0, 62, 74
1, 153360, Note_on_c, 0, 62, 0
1, 153360, Note_on_c, 0, 56, 74
1, 153600, Tempo, 369800
1, 153600, Note_on_c, 0, 56, 0
1, 153600, Note_on_c, 0, 80, 0
1, 153600, Note_on_c, 0, 68, 0
1, 153600, Note_on_c, 0, 72, 78
1, 153600, Note_on_c, 0, 77, 78
1, 153600, Note_on_c, 0, 80, 78
1, 153600, Note_on_c, 0, 39, 88
1, 153601, Note_on_c, 0, 84, 90
1, 153616, Control_c, 0, 64, 0
1, 153740, Control_c, 0, 64, 127
1, 153840, Note_on_c, 0, 39, 0
1, 153840, Note_on_c, 0, 49, 68
1, 154080, Tempo, 347323
1, 154080, Note_on_c, 0, 49, 0
1, 154080, Note_on_c, 0, 53, 70
1, 154320, Note_on_c, 0, 53, 0
1, 154320, Note_on_c, 0, 56, 72
1, 154560, Tempo, 399441
1, 154560, Note_on_c, 0, 56, 0
1, 154560, Note_on_c, 0, 58, 74
1, 154800, Note_on_c, 0, 58, 0
1, 154800, Note_on_c, 0, 61, 80
1, 155040, Tempo, 375000
1, 155040, Note_on_c, 0, 61, 0
1, 155040, Note_on_c, 0, 72, 0
1, 155040, Note_on_c, 0, 80, 0
1, 155040, Note_on_c, 0, 77, 0
1, 155040, Note_on_c, 0, 82, 80
1, 155040, Note_on_c, 0, 70, 67
1, 155040, Note_on_c, 0, 65, 85
1, 155041, Note_on_c, 0, 84, 0
1, 155055, Control_c, 0, 64, 0
1, 155265, Control_c, 0, 64, 127
1, 155280, Note_on_c, 0, 65, 0
1, 155280, Note_on_c, 0, 61, 83
1, 155520, Tempo, 356612
1, 155520, Note_on_c, 0, 61, 0
1, 155520, Note_on_c, 0, 70, 0
1, 155520, Note_on_c, 0, 82, 0
1, 155520, Note_on_c, 0, 58, 75
1, 155760, Note_on_c, 0, 58, 0
1, 155760, Note_on_c, 0, 56, 74
1, 156000, Tempo, 399441
1, 156000, Note_on_c, 0, 56, 0
1, 156000, Note_on_c, 0, 80, 78
1, 156000, Note_on_c, 0, 92, 84
1, 156000, Note_on_c, 0, 53, 72
1, 156240, Note_on_c, 0, 53, 0
1, 156240, Note_on_c, 0, 49, 69
1, 156360, Tempo, 368098
1, 156480, Tempo, 373250
1, 156480, Note_on_c, 0, 49, 0
1, 156480, Note_on_c, 0, 92, 0
1, 156480, Note_on_c, 0, 80, 0
1, 156480, Note_on_c, 0, 80, 82
1, 156480, Note_on_c, 0, 86, 82
1, 156480, Note_on_c, 0, 92, 90
1, 156480, Note_on_c, 0, 34, 70
1, 156480, Note_on_c, 0, 46, 78
1, 156491, Control_c, 0, 64, 0
1, 156621, Control_c, 0, 64, 127
1, 156720, Note_on_c, 0, 56, 69
1, 156960, Note_on_c, 0, 56, 0
1, 156960, Note_on_c, 0, 34, 0
1, 156960, Note_on_c, 0, 46, 0
1, 156960, Note_on_c, 0, 62, 69
1, 157200, Note_on_c, 0, 62, 0
1, 157200, Note_on_c, 0, 86, 0
1, 157200, Note_on_c, 0, 92, 0
1, 157200, Note_on_c, 0, 80, 0
1, 157200, Note_on_c, 0, 91, 78
1, 157200, Note_on_c, 0, 79, 69
1, 157200, Note_on_c, 0, 65, 69
1, 157440, Tempo, 364742
1, 157440, Note_on_c, 0, 65, 0
1, 157440, Note_on_c, 0, 79, 0
1, 157440, Note_on_c, 0, 91, 0
1, 157440, Note_on_c, 0, 82, 81
1, 157440, Note_on_c, 0, 94, 87
1, 157440, Note_on_c, 0, 62, 65
1, 157600, Note_on_c, 0, 94, 0
1, 157600, Note_on_c, 0, 82, 0
1, 157600, Note_on_c, 0, 80, 73
1, 157600, Note_on_c, 0, 92, 80
1, 157680, Tempo, 351906
1, 157680, Note_on_c, 0, 62, 0
1, 157680, Note_on_c, 0, 56, 66
1, 157760, Note_on_c, 0, 92, 0
1, 157760, Note_on_c, 0, 80, 0
1, 157760, Note_on_c, 0, 79, 72
1, 157760, Note_on_c, 0, 91, 80
1, 157920, Tempo, 382166
1, 157920, Note_on_c, 0, 91, 0
1, 157920, Note_on_c, 0, 79, 0
1, 157920, Note_on_c, 0, 56, 0
1, 157920, Note_on_c, 0, 89, 90
1, 157920, Note_on_c, 0, 77, 78
1, 157920, Note_on_c, 0, 53, 82
1, 158160, Note_on_c, 0, 53, 0
1, 158160, Note_on_c, 0, 56, 78
1, 158400, Tempo, 355030
1, 158400, Note_on_c, 0, 56, 0
1, 158400, Note_on_c, 0, 77, 0
1, 158400, Note_on_c, 0, 89, 0
1, 158400, Note_on_c, 0, 67, 68
1, 158400, Note_on_c, 0, 79, 81
1, 158400, Note_on_c, 0, 62, 78
1, 158640, Note_on_c, 0, 62, 0
1, 158640, Note_on_c, 0, 65, 71
1, 158880, Tempo, 415254
1, 158880, Note_on_c, 0, 65, 0
1, 158880, Note_on_c, 0, 79, 0
1, 158880, Note_on_c, 0, 67, 0
1, 158880, Note_on_c, 0, 68, 69
1, 158880, Note_on_c, 0, 80, 81
1, 158880, Note_on_c, 0, 62, 78
1, 159120, Note_on_c, 0, 62, 0
1, 159120, Note_on_c, 0, 56, 72
1, 159360, Tempo, 375000
1, 159360, Note_on_c, 0, 56, 0
1, 159360, Note_on_c, 0, 80, 0
1, 159360, Note_on_c, 0, 68, 0
1, 159360, Note_on_c, 0, 72, 78
1, 159360, Note_on_c, 0, 77, 78
1, 159360, Note_on_c, 0, 80, 78
1, 159360, Note_on_c, 0, 84, 90
1, 159360, Note_on_c, 0, 39, 88
1, 159374, Control_c, 0, 64, 0
1, 159500, Control_c, 0, 64, 127
1, 159600, Note_on_c, 0, 39, 0
1, 159600, Note_on_c, 0, 49, 68
1, 159840, Tempo, 359820
1, 159840, Note_on_c, 0, 49, 0
1, 159840, Note_on_c, 0, 53, 70
1, 160080, Note_on_c, 0, 53, 0
1, 160080, Note_on_c, 0, 56, 72
1, 160320, Tempo, 399441
1, 160320, Note_on_c, 0, 56, 0
1, 160320, Note_on_c, 0, 58, 74
1, 160560, Note_on_c, 0, 58, 0
1, 160560, Note_on_c, 0, 61, 80
1, 160800, Tempo, 388375
1, 160800, Note_on_c, 0, 61, 0
1, 160800, Note_on_c, 0, 84, 0
1, 160800, Note_on_c, 0, 72, 0
1, 160800, Note_on_c, 0, 77, 0
1, 160800, Note_on_c, 0, 80, 0
1, 160800, Note_on_c, 0, 82, 80
1, 160800, Note_on_c, 0, 70, 67
1, 160800, Note_on_c, 0, 65, 84
1, 160820, Control_c, 0, 64, 0
1, 160920, Tempo, 378549
1, 161025, Control_c, 0, 64, 127
1, 161040, Note_on_c, 0, 65, 0
1, 161040, Note_on_c, 0, 61, 82
1, 161280, Tempo, 363086
1, 161280, Note_on_c, 0, 61, 0
1, 161280, Note_on_c, 0, 70, 0
1, 161280, Note_on_c, 0, 82, 0
1, 161280, Note_on_c, 0, 58, 78
1, 161520, Note_on_c, 0, 58, 0
1, 161520, Note_on_c, 0, 56, 74
1, 161760, Tempo, 389610
1, 161760, Note_on_c, 0, 56, 0
1, 161760, Note_on_c, 0, 80, 78
1, 161760, Note_on_c, 0, 92, 84
1, 161760, Note_on_c, 0, 53, 72
1, 162000, Note_on_c, 0, 53, 0
1, 162000, Note_on_c, 0, 49, 69
1, 162240, Tempo, 390168
1, 162240, Note_on_c, 0, 49, 0
1, 162240, Note_on_c, 0, 92, 0
1, 162240, Note_on_c, 0, 80, 0
1, 162240, Note_on_c, 0, 80, 82
1, 162240, Note_on_c, 0, 86, 82
1, 162240, Note_on_c, 0, 92, 90
1, 162240, Note_on_c, 0, 35, 69
1, 162240, Note_on_c, 0, 47, 78
1, 162252, Control_c, 0, 64, 0
1, 162360, Tempo, 359820
1, 162480, Note_on_c, 0, 56, 69
1, 162492, Control_c, 0, 64, 127
1, 162720, Note_on_c, 0, 56, 0
1, 162720, Note_on_c, 0, 62, 69
1, 162960, Tempo, 378549
1, 162960, Note_on_c, 0, 62, 0
1, 162960, Note_on_c, 0, 92, 0
1, 162960, Note_on_c, 0, 80, 0
1, 162960, Note_on_c, 0, 86, 0
1, 162960, Note_on_c, 0, 91, 78
1, 162960, Note_on_c, 0, 79, 69
1, 162960, Note_on_c, 0, 65, 69
1, 163200, Tempo, 405241
1, 163200, Note_on_c, 0, 65, 0
1, 163200, Note_on_c, 0, 91, 0
1, 163200, Note_on_c, 0, 79, 0
1, 163200, Note_on_c, 0, 82, 81
1, 163200, Note_on_c, 0, 94, 87
1, 163200, Note_on_c, 0, 62, 66
1, 163440, Note_on_c, 0, 62, 0
1, 163440, Note_on_c, 0, 82, 0
1, 163440, Note_on_c, 0, 94, 0
1, 163440, Note_on_c, 0, 80, 73
1, 163440, Note_on_c, 0, 92, 80
1, 163440, Note_on_c, 0, 56, 68
1, 163680, Tempo, 432339
1, 163680, Note_on_c, 0, 56, 0
1, 163680, Note_on_c, 0, 80, 0
1, 163680, Note_on_c, 0, 47, 0
1, 163680, Note_on_c, 0, 35, 0
1, 163680, Note_on_c, 0, 92, 0
1, 163680, Note_on_c, 0, 83, 85
1, 163680, Note_on_c, 0, 95, 97
1, 163680, Note_on_c, 0, 34, 70
1, 163680, Note_on_c, 0, 46, 78
1, 163692, Control_c, 0, 64, 0
1, 163886, Control_c, 0, 64, 127
1, 163920, Tempo, 481928
1, 163920, Note_on_c, 0, 95, 0
1, 163920, Note_on_c, 0, 83, 0
1, 163920, Note_on_c, 0, 82, 88
1, 163920, Note_on_c, 0, 94, 88
1, 163920, Note_on_c, 0, 53, 69
1, 164160, Tempo, 376766
1, 164160, Note_on_c, 0, 53, 0
1, 164160, Note_on_c, 0, 82, 0
1, 164160, Note_on_c, 0, 46, 0
1, 164160, Note_on_c, 0, 34, 0
1, 164160, Note_on_c, 0, 94, 0
1, 164160, Note_on_c, 0, 103, 105
1, 164160, Note_on_c, 0, 91, 94
1, 164160, Note_on_c, 0, 56, 69
1, 164400, Note_on_c, 0, 56, 0
1, 164400, Note_on_c, 0, 62, 69
1, 164520, Tempo, 393443
1, 164640, Tempo, 407194
1, 164640, Note_on_c, 0, 62, 0
1, 164640, Note_on_c, 0, 91, 0
1, 164640, Note_on_c, 0, 103, 0
1, 164640, Note_on_c, 0, 56, 65
1, 164880, Note_on_c, 0, 56, 0
1, 164880, Note_on_c, 0, 89, 73
1, 164880, Note_on_c, 0, 101, 85
1, 164880, Note_on_c, 0, 53, 65
1, 165120, Note_on_c, 0, 53, 0
1, 165120, Note_on_c, 0, 101, 0
1, 165120, Note_on_c, 0, 89, 0
1, 165120, Note_on_c, 0, 87, 73
1, 165120, Note_on_c, 0, 99, 84
1, 165122, Tempo, 376766
1, 165242, Tempo, 378549
1, 165360, Note_on_c, 0, 99, 0
1, 165360, Note_on_c, 0, 87, 0
1, 165360, Note_on_c, 0, 98, 79
1, 165360, Note_on_c, 0, 86, 69
1, 165362, Tempo, 380349
1, 165442, Tempo, 382166
1, 165562, Tempo, 384000
1, 165600, Note_on_c, 0, 86, 0
1, 165600, Note_on_c, 0, 98, 0
1, 165600, Note_on_c, 0, 84, 64
1, 165600, Note_on_c, 0, 96, 74
1, 165682, Tempo, 385852
1, 165762, Tempo, 387722
1, 165840, Note_on_c, 0, 96, 0
1, 165840, Note_on_c, 0, 84, 0
1, 165840, Note_on_c, 0, 82, 60
1, 165840, Note_on_c, 0, 94, 70
1, 165882, Tempo, 389610
1, 166002, Tempo, 391517
1, 166080, Note_on_c, 0, 94, 0
1, 166080, Note_on_c, 0, 82, 0
1, 166080, Note_on_c, 0, 80, 55
1, 166080, Note_on_c, 0, 92, 64
1, 166082, Tempo, 393443
1, 166202, Tempo, 395387
1, 166320, Note_on_c, 0, 92, 0
1, 166320, Note_on_c, 0, 80, 0
1, 166320, Note_on_c, 0, 79, 51
1, 166320, Note_on_c, 0, 91, 60
1, 166322, Tempo, 397351
1, 166402, Tempo, 399334
1, 166522, Tempo, 401338
1, 166560, Note_on_c, 0, 91, 0
1, 166560, Note_on_c, 0, 79, 0
1, 166560, Note_on_c, 0, 77, 48
1, 166560, Note_on_c, 0, 89, 56
1, 166590, Control_c, 0, 64, 0
1, 166642, Tempo, 403361
1, 166722, Tempo, 405405
1, 166842, Tempo, 407470
1, 166922, Tempo, 409556
1, 166940, Tempo, 419375
1, 167040, Tempo, 419375
1, 167040, Note_on_c, 0, 89, 0
1, 167040, Note_on_c, 0, 77, 0
1, 167040, Note_on_c, 0, 67, 37
1, 167040, Note_on_c, 0, 79, 45
1, 167520, Tempo, 424779
1, 167520, Note_on_c, 0, 79, 0
1, 167520, Note_on_c, 0, 67, 0
1, 167520, Note_on_c, 0, 68, 37
1, 167520, Note_on_c, 0, 80, 45
1, 168000, Tempo, 391517
1, 168000, Note_on_c, 0, 80, 0
1, 168000, Note_on_c, 0, 68, 0
1, 168000, Note_on_c, 0, 72, 45
1, 168000, Note_on_c, 0, 77, 45
1, 168000, Note_on_c, 0, 80, 45
1, 168000, Note_on_c, 0, 84, 52
1, 168000, Note_on_c, 0, 39, 33
1, 168198, Control_c, 0, 64, 127
1, 168240, Note_on_c, 0, 39, 0
1, 168240, Note_on_c, 0, 49, 37
1, 168480, Note_on_c, 0, 49, 0
1, 168480, Note_on_c, 0, 53, 40
1, 168720, Note_on_c, 0, 53, 0
1, 168720, Note_on_c, 0, 56, 45
1, 168960, Tempo, 424779
1, 168960, Note_on_c, 0, 56, 0
1, 168960, Note_on_c, 0, 84, 0
1, 168960, Note_on_c, 0, 72, 0
1, 168960, Note_on_c, 0, 77, 0
1, 168960, Note_on_c, 0, 80, 0
1, 168960, Note_on_c, 0, 82, 54
1, 168960, Note_on_c, 0, 70, 51
1, 168960, Note_on_c, 0, 58, 48
1, 169200, Note_on_c, 0, 58, 0
1, 169200, Note_on_c, 0, 61, 53
1, 169440, Tempo, 387722
1, 169440, Note_on_c, 0, 61, 0
1, 169440, Note_on_c, 0, 70, 0
1, 169440, Note_on_c, 0, 82, 0
1, 169440, Note_on_c, 0, 87, 72
1, 169440, Note_on_c, 0, 75, 60
1, 169440, Note_on_c, 0, 80, 60
1, 169440, Note_on_c, 0, 82, 60
1, 169440, Note_on_c, 0, 65, 57
1, 169680, Note_on_c, 0, 65, 0
1, 169680, Note_on_c, 0, 61, 59
1, 169920, Note_on_c, 0, 61, 0
1, 169920, Note_on_c, 0, 58, 59
1, 170160, Note_on_c, 0, 58, 0
1, 170160, Note_on_c, 0, 56, 59
1, 170400, Tempo, 443754
1, 170400, Note_on_c, 0, 56, 0
1, 170400, Note_on_c, 0, 82, 0
1, 170400, Note_on_c, 0, 87, 0
1, 170400, Note_on_c, 0, 75, 0
1, 170400, Note_on_c, 0, 80, 0
1, 170400, Note_on_c, 0, 85, 73
1, 170400, Note_on_c, 0, 73, 65
1, 170400, Note_on_c, 0, 53, 58
1, 170640, Note_on_c, 0, 53, 0
1, 170640, Note_on_c, 0, 49, 56
1, 170880, Tempo, 401338
1, 170880, Note_on_c, 0, 49, 0
1, 170880, Note_on_c, 0, 73, 0
1, 170880, Note_on_c, 0, 85, 0
1, 170880, Note_on_c, 0, 79, 75
1, 170880, Note_on_c, 0, 82, 75
1, 170880, Note_on_c, 0, 85, 75
1, 170880, Note_on_c, 0, 91, 89
1, 170880, Note_on_c, 0, 39, 59
1, 171120, Note_on_c, 0, 39, 0
1, 171120, Note_on_c, 0, 49, 60
1, 171360, Note_on_c, 0, 49, 0
1, 171360, Note_on_c, 0, 53, 63
1, 171600, Note_on_c, 0, 53, 0
1, 171600, Note_on_c, 0, 56, 66
1, 171840, Tempo, 458295
1, 171840, Note_on_c, 0, 56, 0
1, 171840, Note_on_c, 0, 91, 0
1, 171840, Note_on_c, 0, 79, 0
1, 171840, Note_on_c, 0, 82, 0
1, 171840, Note_on_c, 0, 85, 0
1, 171840, Note_on_c, 0, 89, 81
1, 171840, Note_on_c, 0, 77, 70
1, 171840, Note_on_c, 0, 58, 69
1, 172080, Note_on_c, 0, 58, 0
1, 172080, Note_on_c, 0, 61, 72
1, 172320, Tempo, 409556
1, 172320, Note_on_c, 0, 61, 0
1, 172320, Note_on_c, 0, 77, 0
1, 172320, Note_on_c, 0, 89, 0
1, 172320, Note_on_c, 0, 96, 96
1, 172320, Note_on_c, 0, 84, 84
1, 172320, Note_on_c, 0, 89, 84
1, 172320, Note_on_c, 0, 68, 74
1, 172560, Note_on_c, 0, 68, 0
1, 172560, Note_on_c, 0, 65, 72
1, 172800, Note_on_c, 0, 65, 0
1, 172800, Note_on_c, 0, 61, 70
1, 173040, Note_on_c, 0, 61, 0
1, 173040, Note_on_c, 0, 56, 67
1, 173280, Tempo, 473784
1, 173280, Note_on_c, 0, 56, 0
1, 173280, Note_on_c, 0, 89, 0
1, 173280, Note_on_c, 0, 84, 0
1, 173280, Note_on_c, 0, 96, 0
1, 173280, Note_on_c, 0, 94, 89
1, 173280, Note_on_c, 0, 82, 76
1, 173280, Note_on_c, 0, 53, 65
1, 173520, Tempo, 594471
1, 173520, Note_on_c, 0, 53, 0
1, 173520, Note_on_c, 0, 49, 63
1, 173760, Tempo, 574163
1, 173760, Note_on_c, 0, 49, 0
1, 173760, Note_on_c, 0, 82, 0
1, 173760, Note_on_c, 0, 94, 0
1, 173760, Note_on_c, 0, 91, 85
1, 173760, Note_on_c, 0, 89, 85
1, 173760, Note_on_c, 0, 94, 85
1, 173760, Note_on_c, 0, 97, 85
1, 173760, Note_on_c, 0, 101, 99
1, 173760, Note_on_c, 0, 39, 82
1, 173767, Control_c, 0, 64, 0
1, 173972, Control_c, 0, 64, 127
1, 174000, Tempo, 484731
1, 174000, Note_on_c, 0, 39, 0
1, 174000, Note_on_c, 0, 46, 64
1, 174140, Tempo, 463320
1, 174220, Tempo, 460794
1, 174240, Note_on_c, 0, 46, 0
1, 174240, Note_on_c, 0, 49, 64
1, 174260, Tempo, 458295
1, 174300, Tempo, 455789
1, 174380, Tempo, 453343
1, 174420, Tempo, 450891
1, 174460, Tempo, 448498
1, 174480, Note_on_c, 0, 49, 0
1, 174480, Note_on_c, 0, 55, 64
1, 174540, Tempo, 446097
1, 174580, Tempo, 443754
1, 174620, Tempo, 441436
1, 174660, Tempo, 439110
1, 174720, Note_on_c, 0, 55, 0
1, 174720, Note_on_c, 0, 58, 64
1, 174780, Tempo, 441436
1, 174940, Tempo, 439110
1, 174960, Note_on_c, 0, 58, 0
1, 174960, Note_on_c, 0, 61, 63
1, 175140, Tempo, 436840
1, 175200, Note_on_c, 0, 61, 0
1, 175200, Note_on_c, 0, 67, 64
1, 175340, Tempo, 434562
1, 175440, Note_on_c, 0, 67, 0
1, 175440, Note_on_c, 0, 70, 66
1, 175540, Tempo, 432339
1, 175680, Note_on_c, 0, 70, 0
1, 175680, Note_on_c, 0, 73, 64
1, 175740, Tempo, 430138
1, 175900, Tempo, 427930
1, 175920, Note_on_c, 0, 73, 0
1, 175920, Note_on_c, 0, 79, 58
1, 176160, Note_on_c, 0, 79, 0
1, 176160, Note_on_c, 0, 82, 49
1, 176340, Tempo, 784416
1, 176400, Note_on_c, 0, 82, 0
1, 176400, Note_on_c, 0, 85, 37
1, 176640, Time_signature, 12, 2, 24, 8
1, 176640, Tempo, 551521
1, 176640, Note_on_c, 0, 85, 0
1, 176640, Note_on_c, 0, 101, 0
1, 176640, Note_on_c, 0, 94, 0
1, 176640, Note_on_c, 0, 91, 0
1, 176640, Note_on_c, 0, 89, 0
1, 176640, Note_on_c, 0, 97, 0
1, 176640, Note_on_c, 0, 100, 44
1, 176640, Note_on_c, 0, 91, 35
1, 176760, Note_on_c, 0, 91, 0
1, 176760, Note_on_c, 0, 100, 0
1, 176760, Note_on_c, 0, 96, 40
1, 176760, Note_on_c, 0, 94, 31
1, 176880, Tempo, 493259
1, 176880, Note_on_c, 0, 94, 0
1, 176880, Note_on_c, 0, 96, 0
1, 176880, Note_on_c, 0, 99, 44
1, 176880, Note_on_c, 0, 90, 35
1, 177000, Note_on_c, 0, 90, 0
1, 177000, Note_on_c, 0, 99, 0
1, 177000, Note_on_c, 0, 95, 41
1, 177000, Note_on_c, 0, 93, 31
1, 177076, Tempo, 417304
1, 177092, Tempo, 441436
1, 177120, Note_on_c, 0, 93, 0
1, 177120, Note_on_c, 0, 95, 0
1, 177120, Note_on_c, 0, 98, 44
1, 177120, Note_on_c, 0, 89, 34
1, 177188, Tempo, 439110
1, 177240, Note_on_c, 0, 89, 0
1, 177240, Note_on_c, 0, 98, 0
1, 177240, Note_on_c, 0, 94, 40
1, 177240, Note_on_c, 0, 92, 29
1, 177252, Tempo, 436840
1, 177348, Tempo, 434562
1, 177360, Note_on_c, 0, 92, 0
1, 177360, Note_on_c, 0, 94, 0
1, 177360, Note_on_c, 0, 97, 43
1, 177360, Note_on_c, 0, 88, 33
1, 177412, Tempo, 432339
1, 177480, Note_on_c, 0, 88, 0
1, 177480, Note_on_c, 0, 97, 0
1, 177480, Note_on_c, 0, 93, 39
1, 177480, Note_on_c, 0, 91, 30
1, 177508, Tempo, 430138
1, 177572, Tempo, 427930
1, 177600, Note_on_c, 0, 91, 0
1, 177600, Note_on_c, 0, 93, 0
1, 177600, Note_on_c, 0, 96, 42
1, 177600, Note_on_c, 0, 87, 33
1, 177668, Tempo, 425773
1, 177720, Note_on_c, 0, 87, 0
1, 177720, Note_on_c, 0, 96, 0
1, 177720, Note_on_c, 0, 92, 39
1, 177720, Note_on_c, 0, 90, 29
1, 177732, Tempo, 423609
1, 177796, Tempo, 421496
1, 177840, Note_on_c, 0, 90, 0
1, 177840, Note_on_c, 0, 92, 0
1, 177840, Note_on_c, 0, 95, 42
1, 177840, Note_on_c, 0, 86, 33
1, 177892, Tempo, 419375
1, 177956, Tempo, 417304
1, 177960, Note_on_c, 0, 86, 0
1, 177960, Note_on_c, 0, 95, 0
1, 177960, Note_on_c, 0, 91, 39
1, 177960, Note_on_c, 0, 89, 28
1, 178052, Tempo, 415254
1, 178080, Note_on_c, 0, 89, 0
1, 178080, Note_on_c, 0, 91, 0
1, 178080, Note_on_c, 0, 94, 41
1, 178080, Note_on_c, 0, 85, 33
1, 178116, Tempo, 413195
1, 178200, Note_on_c, 0, 85, 0
1, 178200, Note_on_c, 0, 94, 0
1, 178200, Note_on_c, 0, 90, 37
1, 178200, Note_on_c, 0, 88, 28
1, 178212, Tempo, 411184
1, 178276, Tempo, 409165
1, 178320, Note_on_c, 0, 88, 0
1, 178320, Note_on_c, 0, 90, 0
1, 178320, Note_on_c, 0, 93, 41
1, 178320, Note_on_c, 0, 84, 32
1, 178372, Tempo, 407194
1, 178436, Tempo, 405241
1, 178440, Note_on_c, 0, 84, 0
1, 178440, Note_on_c, 0, 93, 0
1, 178440, Note_on_c, 0, 89, 37
1, 178440, Note_on_c, 0, 87, 28
1, 178500, Tempo, 403280
1, 178560, Note_on_c, 0, 87, 0
1, 178560, Note_on_c, 0, 89, 0
1, 178560, Note_on_c, 0, 92, 40
1, 178560, Note_on_c, 0, 83, 32
1, 178596, Tempo, 401365
1, 178680, Note_on_c, 0, 83, 0
1, 178680, Note_on_c, 0, 92, 0
1, 178680, Note_on_c, 0, 88, 36
1, 178680, Note_on_c, 0, 86, 28
1, 178800, Note_on_c, 0, 86, 0
1, 178800, Note_on_c, 0, 88, 0
1, 178800, Note_on_c, 0, 91, 40
1, 178800, Note_on_c, 0, 82, 31
1, 178876, Tempo, 399441
1, 178920, Note_on_c, 0, 82, 0
1, 178920, Note_on_c, 0, 91, 0
1, 178920, Note_on_c, 0, 88, 36
1, 178920, Note_on_c, 0, 85, 27
1, 179040, Note_on_c, 0, 85, 0
1, 179040, Note_on_c, 0, 88, 0
1, 179040, Note_on_c, 0, 90, 39
1, 179040, Note_on_c, 0, 81, 31
1, 179160, Note_on_c, 0, 81, 0
1, 179160, Note_on_c, 0, 90, 0
1, 179160, Note_on_c, 0, 86, 35
1, 179160, Note_on_c, 0, 84, 27
1, 179196, Tempo, 397562
1, 179280, Note_on_c, 0, 84, 0
1, 179280, Note_on_c, 0, 86, 0
1, 179280, Note_on_c, 0, 89, 39
1, 179280, Note_on_c, 0, 80, 31
1, 179400, Note_on_c, 0, 80, 0
1, 179400, Note_on_c, 0, 89, 0
1, 179400, Note_on_c, 0, 85, 35
1, 179400, Note_on_c, 0, 83, 26
1, 179476, Tempo, 395674
1, 179520, Note_on_c, 0, 83, 0
1, 179520, Note_on_c, 0, 85, 0
1, 179520, Note_on_c, 0, 88, 38
1, 179520, Note_on_c, 0, 79, 30
1, 179640, Note_on_c, 0, 79, 0
1, 179640, Note_on_c, 0, 88, 0
1, 179640, Note_on_c, 0, 84, 35
1, 179640, Note_on_c, 0, 82, 26
1, 179756, Tempo, 393830
1, 179760, Note_on_c, 0, 82, 0
1, 179760, Note_on_c, 0, 84, 0
1, 179760, Note_on_c, 0, 87, 38
1, 179760, Note_on_c, 0, 78, 29
1, 179880, Note_on_c, 0, 78, 0
1, 179880, Note_on_c, 0, 87, 0
1, 179880, Note_on_c, 0, 83, 33
1, 179880, Note_on_c, 0, 81, 26
1, 180000, Note_on_c, 0, 81, 0
1, 180000, Note_on_c, 0, 83, 0
1, 180000, Note_on_c, 0, 86, 37
1, 180000, Note_on_c, 0, 77, 29
1, 180036, Tempo, 392003
1, 180076, Tempo, 392003
1, 180120, Note_on_c, 0, 77, 0
1, 180120, Note_on_c, 0, 86, 0
1, 180120, Note_on_c, 0, 82, 33
1, 180120, Note_on_c, 0, 80, 26
1, 180240, Note_on_c, 0, 80, 0
1, 180240, Note_on_c, 0, 82, 0
1, 180240, Note_on_c, 0, 85, 37
1, 180240, Note_on_c, 0, 76, 29
1, 180276, Tempo, 393830
1, 180360, Note_on_c, 0, 76, 0
1, 180360, Note_on_c, 0, 85, 0
1, 180360, Note_on_c, 0, 81, 33
1, 180360, Note_on_c, 0, 79, 26
1, 180476, Tempo, 395674
1, 180480, Note_on_c, 0, 79, 0
1, 180480, Note_on_c, 0, 81, 0
1, 180480, Note_on_c, 0, 84, 36
1, 180480, Note_on_c, 0, 75, 28
1, 180600, Note_on_c, 0, 75, 0
1, 180600, Note_on_c, 0, 84, 0
1, 180600, Note_on_c, 0, 80, 33
1, 180600, Note_on_c, 0, 78, 25
1, 180676, Tempo, 397562
1, 180720, Note_on_c, 0, 78, 0
1, 180720, Note_on_c, 0, 80, 0
1, 180720, Note_on_c, 0, 83, 35
1, 180720, Note_on_c, 0, 74, 28
1, 180840, Note_on_c, 0, 74, 0
1, 180840, Note_on_c, 0, 83, 0
1, 180840, Note_on_c, 0, 79, 31
1, 180840, Note_on_c, 0, 77, 24
1, 180876, Tempo, 399441
1, 180960, Note_on_c, 0, 77, 0
1, 180960, Note_on_c, 0, 79, 0
1, 180960, Note_on_c, 0, 82, 35
1, 180960, Note_on_c, 0, 73, 27
1, 181076, Tempo, 401365
1, 181080, Note_on_c, 0, 73, 0
1, 181080, Note_on_c, 0, 82, 0
1, 181080, Note_on_c, 0, 78, 31
1, 181080, Note_on_c, 0, 76, 24
1, 181200, Note_on_c, 0, 76, 0
1, 181200, Note_on_c, 0, 78, 0
1, 181200, Note_on_c, 0, 81, 35
1, 181200, Note_on_c, 0, 72, 27
1, 181236, Tempo, 403280
1, 181320, Note_on_c, 0, 72, 0
1, 181320, Note_on_c, 0, 81, 0
1, 181320, Note_on_c, 0, 77, 31
1, 181320, Note_on_c, 0, 75, 24
1, 181436, Tempo, 405241
1, 181440, Note_on_c, 0, 75, 0
1, 181440, Note_on_c, 0, 77, 0
1, 181440, Note_on_c, 0, 80, 34
1, 181440, Note_on_c, 0, 71, 27
1, 181560, Note_on_c, 0, 71, 0
1, 181560, Note_on_c, 0, 80, 0
1, 181560, Note_on_c, 0, 76, 30
1, 181560, Note_on_c, 0, 74, 24
1, 181636, Tempo, 407194
1, 181680, Note_on_c, 0, 74, 0
1, 181680, Note_on_c, 0, 76, 0
1, 181680, Note_on_c, 0, 79, 33
1, 181680, Note_on_c, 0, 70, 26
1, 181800, Note_on_c, 0, 70, 0
1, 181800, Note_on_c, 0, 79, 0
1, 181800, Note_on_c, 0, 76, 29
1, 181800, Note_on_c, 0, 73, 24
1, 181836, Tempo, 409165
1, 181920, Note_on_c, 0, 73, 0
1, 181920, Note_on_c, 0, 76, 0
1, 181920, Note_on_c, 0, 78, 33
1, 181920, Note_on_c, 0, 69, 26
1, 182036, Tempo, 411184
1, 182040, Note_on_c, 0, 69, 0
1, 182040, Note_on_c, 0, 78, 0
1, 182040, Note_on_c, 0, 74, 29
1, 182040, Note_on_c, 0, 72, 24
1, 182160, Tempo, 551521
1, 182160, Note_on_c, 0, 72, 0
1, 182160, Note_on_c, 0, 74, 0
1, 182160, Note_on_c, 0, 77, 32
1, 182160, Note_on_c, 0, 68, 26
1, 182280, Tempo, 686813
1, 182280, Note_on_c, 0, 68, 0
1, 182280, Note_on_c, 0, 77, 0
1, 182280, Note_on_c, 0, 73, 28
1, 182280, Note_on_c, 0, 71, 22
1, 182340, Note_on_c, 0, 71, 0
1, 182340, Note_on_c, 0, 73, 0
1, 182340, Note_on_c, 0, 67, 32
1, 182360, Note_on_c, 0, 70, 32
1, 182380, Note_on_c, 0, 73, 32
1, 182400, Tempo, 490396
1, 182400, Note_on_c, 0, 77, 32
1, 182411, Control_c, 0, 64, 0
1, 182515, Control_c, 0, 64, 127
1, 182520, Note_on_c, 0, 77, 0
1, 182520, Note_on_c, 0, 67, 0
1, 182520, Note_on_c, 0, 70, 0
1, 182520, Note_on_c, 0, 73, 0
1, 182520, Note_on_c, 0, 75, 32
1, 182640, Tempo, 421496
1, 182640, Note_on_c, 0, 75, 0
1, 182640, Note_on_c, 0, 73, 32
1, 182716, Tempo, 417304
1, 182760, Note_on_c, 0, 73, 0
1, 182760, Note_on_c, 0, 70, 31
1, 182880, Note_on_c, 0, 70, 0
1, 182880, Note_on_c, 0, 67, 32
1, 183000, Note_on_c, 0, 67, 0
1, 183000, Note_on_c, 0, 62, 33
1, 183036, Tempo, 415254
1, 183120, Note_on_c, 0, 62, 0
1, 183120, Note_on_c, 0, 63, 33
1, 183240, Note_on_c, 0, 63, 0
1, 183240, Note_on_c, 0, 67, 34
1, 183356, Tempo, 413195
1, 183360, Note_on_c, 0, 67, 0
1, 183360, Note_on_c, 0, 70, 35
1, 183480, Note_on_c, 0, 70, 0
1, 183480, Note_on_c, 0, 73, 35
1, 183600, Note_on_c, 0, 73, 0
1, 183600, Note_on_c, 0, 74, 36
1, 183636, Tempo, 411184
1, 183720, Note_on_c, 0, 74, 0
1, 183720, Note_on_c, 0, 77, 37
1, 183840, Note_on_c, 0, 77, 0
1, 183840, Note_on_c, 0, 75, 37
1, 183956, Tempo, 409165
1, 183960, Note_on_c, 0, 75, 0
1, 183960, Note_on_c, 0, 79, 38
1, 184080, Note_on_c, 0, 79, 0
1, 184080, Note_on_c, 0, 82, 39
1, 184200, Note_on_c, 0, 82, 0
1, 184200, Note_on_c, 0, 85, 39
1, 184276, Tempo, 407194
1, 184292, Tempo, 405241
1, 184320, Note_on_c, 0, 85, 0
1, 184320, Note_on_c, 0, 86, 40
1, 184324, Tempo, 407194
1, 184356, Tempo, 409165
1, 184388, Tempo, 411184
1, 184420, Tempo, 415254
1, 184440, Note_on_c, 0, 86, 0
1, 184440, Note_on_c, 0, 89, 40
1, 184452, Tempo, 417304
1, 184484, Tempo, 419375
1, 184516, Tempo, 421496
1, 184548, Tempo, 425773
1, 184560, Note_on_c, 0, 89, 0
1, 184560, Note_on_c, 0, 87, 41
1, 184580, Tempo, 427930
1, 184612, Tempo, 430138
1, 184644, Tempo, 432339
1, 184676, Tempo, 436840
1, 184680, Note_on_c, 0, 87, 0
1, 184680, Note_on_c, 0, 91, 42
1, 184708, Tempo, 439110
1, 184740, Tempo, 441436
1, 184772, Tempo, 443754
1, 184800, Note_on_c, 0, 91, 0
1, 184800, Note_on_c, 0, 94, 44
1, 184804, Tempo, 448498
1, 184836, Tempo, 450891
1, 184868, Tempo, 453343
1, 184900, Tempo, 458295
1, 184920, Tempo, 551521
1, 184920, Note_on_c, 0, 94, 0
1, 184920, Note_on_c, 0, 97, 44
1, 185040, Tempo, 630120
1, 185040, Note_on_c, 0, 97, 0
1, 185040, Note_on_c, 0, 100, 48
1, 185156, Tempo, 446097
1, 185160, Note_on_c, 0, 100, 0
1, 185160, Note_on_c, 0, 101, 44
1, 185188, Tempo, 443754
1, 185220, Tempo, 441436
1, 185252, Tempo, 436840
1, 185280, Note_on_c, 0, 101, 0
1, 185280, Note_on_c, 0, 96, 48
1, 185284, Tempo, 434562
1, 185309, Control_c, 0, 64, 0
1, 185316, Tempo, 432339
1, 185348, Tempo, 427930
1, 185380, Tempo, 425773
1, 185400, Note_on_c, 0, 96, 0
1, 185400, Note_on_c, 0, 97, 45
1, 185406, Control_c, 0, 64, 127
1, 185412, Tempo, 423609
1, 185444, Tempo, 419375
1, 185476, Tempo, 417304
1, 185508, Tempo, 415254
1, 185520, Note_on_c, 0, 97, 0
1, 185520, Note_on_c, 0, 93, 46
1, 185540, Tempo, 411184
1, 185572, Tempo, 409165
1, 185604, Tempo, 407194
1, 185636, Tempo, 403280
1, 185640, Note_on_c, 0, 93, 0
1, 185640, Note_on_c, 0, 94, 40
1, 185668, Tempo, 401365
1, 185700, Tempo, 397562
1, 185722, Tempo, 401365
1, 185760, Note_on_c, 0, 94, 0
1, 185760, Note_on_c, 0, 90, 44
1, 185880, Note_on_c, 0, 90, 0
1, 185880, Note_on_c, 0, 91, 40
1, 186000, Note_on_c, 0, 91, 0
1, 186000, Note_on_c, 0, 88, 43
1, 186116, Tempo, 401365
1, 186120, Note_on_c, 0, 88, 0
1, 186120, Note_on_c, 0, 89, 39
1, 186240, Note_on_c, 0, 89, 0
1, 186240, Note_on_c, 0, 84, 42
1, 186360, Note_on_c, 0, 84, 0
1, 186360, Note_on_c, 0, 85, 38
1, 186480, Note_on_c, 0, 85, 0
1, 186480, Note_on_c, 0, 81, 40
1, 186516, Tempo, 403280
1, 186600, Note_on_c, 0, 81, 0
1, 186600, Note_on_c, 0, 82, 37
1, 186720, Note_on_c, 0, 82, 0
1, 186720, Note_on_c, 0, 78, 40
1, 186840, Note_on_c, 0, 78, 0
1, 186840, Note_on_c, 0, 79, 36
1, 186916, Tempo, 405241
1, 186960, Note_on_c, 0, 79, 0
1, 186960, Note_on_c, 0, 76, 39
1, 187080, Note_on_c, 0, 76, 0
1, 187080, Note_on_c, 0, 77, 35
1, 187200, Note_on_c, 0, 77, 0
1, 187200, Note_on_c, 0, 72, 38
1, 187240, Tempo, 407194
1, 187320, Tempo, 409165
1, 187320, Note_on_c, 0, 72, 0
1, 187320, Note_on_c, 0, 73, 33
1, 187400, Tempo, 411184
1, 187440, Note_on_c, 0, 73, 0
1, 187440, Note_on_c, 0, 69, 37
1, 187480, Tempo, 413195
1, 187560, Tempo, 415254
1, 187560, Note_on_c, 0, 69, 0
1, 187560, Note_on_c, 0, 70, 33
1, 187640, Tempo, 417304
1, 187680, Note_on_c, 0, 70, 0
1, 187680, Note_on_c, 0, 66, 36
1, 187720, Tempo, 419375
1, 187800, Tempo, 421496
1, 187800, Note_on_c, 0, 66, 0
1, 187800, Note_on_c, 0, 67, 33
1, 187880, Tempo, 423609
1, 187920, Note_on_c, 0, 67, 0
1, 187920, Note_on_c, 0, 64, 35
1, 187960, Tempo, 425773
1, 188040, Tempo, 427930
1, 188040, Note_on_c, 0, 64, 0
1, 188040, Note_on_c, 0, 65, 31
1, 188120, Tempo, 430138
1, 188160, Time_signature, 6, 2, 24, 8
1, 188160, Tempo, 450891
1, 188160, Note_on_c, 0, 65, 0
1, 188160, Note_on_c, 0, 62, 33
1, 188168, Control_c, 0, 64, 0
1, 188280, Note_on_c, 0, 62, 0
1, 188280, Note_on_c, 0, 63, 27
1, 188320, Tempo, 453343
1, 188400, Note_on_c, 0, 63, 0
1, 188400, Note_on_c, 0, 64, 32
1, 188440, Tempo, 455789
1, 188520, Note_on_c, 0, 64, 0
1, 188520, Note_on_c, 0, 63, 27
1, 188560, Tempo, 458295
1, 188640, Note_on_c, 0, 63, 0
1, 188640, Note_on_c, 0, 65, 32
1, 188680, Tempo, 460794
1, 188760, Note_on_c, 0, 65, 0
1, 188760, Note_on_c, 0, 63, 28
1, 188840, Tempo, 463320
1, 188880, Note_on_c, 0, 63, 0
1, 188880, Note_on_c, 0, 66, 32
1, 188960, Tempo, 465911
1, 189000, Note_on_c, 0, 66, 0
1, 189000, Note_on_c, 0, 63, 28
1, 189080, Tempo, 468494
1, 189120, Note_on_c, 0, 63, 0
1, 189120, Note_on_c, 0, 67, 32
1, 189200, Tempo, 471143
1, 189240, Note_on_c, 0, 67, 0
1, 189240, Note_on_c, 0, 63, 29
1, 189360, Tempo, 473784
1, 189360, Note_on_c, 0, 63, 0
1, 189360, Note_on_c, 0, 68, 32
1, 189480, Tempo, 476455
1, 189480, Note_on_c, 0, 68, 0
1, 189480, Note_on_c, 0, 63, 29
1, 189600, Tempo, 479195
1, 189600, Note_on_c, 0, 63, 0
1, 189600, Note_on_c, 0, 69, 32
1, 189640, Tempo, 476455
1, 189680, Tempo, 481928
1, 189720, Tempo, 487527
1, 189720, Note_on_c, 0, 69, 0
1, 189720, Note_on_c, 0, 63, 29
1, 189760, Tempo, 493259
1, 189800, Tempo, 499127
1, 189840, Tempo, 625456
1, 189840, Note_on_c, 0, 63, 0
1, 189840, Note_on_c, 0, 70, 32
1, 189960, Note_on_c, 0, 70, 0
1, 189960, Note_on_c, 0, 63, 29
1, 190080, Tempo, 1045843
1, 190080, Note_on_c, 0, 63, 0
1, 190080, Note_on_c, 0, 71, 32
1, 190200, Note_on_c, 0, 71, 0
1, 190560, Tempo, 566412
1, 190560, Note_on_c, 0, 63, 36
1, 191040, Tempo, 537442
1, 191040, Marker_t, "Tempo I"
1, 191040, Note_on_c, 0, 63, 0
1, 191040, Note_on_c, 0, 72, 45
1, 191040, Note_on_c, 0, 44, 30
1, 191238, Control_c, 0, 64, 127
1, 191280, Tempo, 465911
1, 191280, Note_on_c, 0, 60, 21
1, 191520, Tempo, 436840
1, 191520, Note_on_c, 0, 60, 0
1, 191520, Note_on_c, 0, 44, 0
1, 191520, Note_on_c, 0, 63, 27
1, 191760, Tempo, 436840
1, 191760, Note_on_c, 0, 63, 0
1, 191760, Note_on_c, 0, 68, 20
1, 192000, Tempo, 463320
1, 192000, Note_on_c, 0, 68, 0
1, 192000, Note_on_c, 0, 63, 20
1, 192000, Note_on_c, 0, 84, 23
1, 192000, Note_on_c, 0, 80, 23
1, 192000, Note_on_c, 0, 75, 18
1, 192240, Tempo, 484731
1, 192240, Note_on_c, 0, 63, 0
1, 192240, Note_on_c, 0, 60, 20
1, 192432, Note_on_c, 0, 80, 0
1, 192432, Note_on_c, 0, 75, 0
1, 192432, Note_on_c, 0, 84, 0
1, 192480, Tempo, 555196
1, 192480, Note_on_c, 0, 72, 0
1, 192480, Note_on_c, 0, 60, 0
1, 192480, Note_on_c, 0, 72, 28
1, 192480, Note_on_c, 0, 75, 20
1, 192480, Note_on_c, 0, 80, 21
1, 192480, Note_on_c, 0, 84, 24
1, 192720, Tempo, 476455
1, 192720, Note_on_c, 0, 60, 20
1, 192912, Note_on_c, 0, 84, 0
1, 192912, Note_on_c, 0, 80, 0
1, 192912, Note_on_c, 0, 75, 0
1, 192960, Tempo, 465911
1, 192960, Note_on_c, 0, 60, 0
1, 192960, Note_on_c, 0, 63, 25
1, 193200, Tempo, 434562
1, 193200, Note_on_c, 0, 63, 0
1, 193200, Note_on_c, 0, 68, 21
1, 193440, Tempo, 434562
1, 193440, Note_on_c, 0, 68, 0
1, 193440, Note_on_c, 0, 63, 21
1, 193680, Tempo, 471143
1, 193680, Note_on_c, 0, 63, 0
1, 193680, Note_on_c, 0, 60, 21
1, 193920, Tempo, 570288
1, 193920, Note_on_c, 0, 60, 0
1, 193920, Note_on_c, 0, 72, 0
1, 193920, Note_on_c, 0, 72, 45
1, 193920, Note_on_c, 0, 43, 31
1, 193935, Control_c, 0, 64, 0
1, 194092, Control_c, 0, 64, 127
1, 194160, Tempo, 458295
1, 194160, Note_on_c, 0, 60, 23
1, 194400, Tempo, 430138
1, 194400, Note_on_c, 0, 60, 0
1, 194400, Note_on_c, 0, 43, 0
1, 194400, Note_on_c, 0, 64, 28
1, 194640, Note_on_c, 0, 64, 0
1, 194640, Note_on_c, 0, 70, 23
1, 194880, Tempo, 434562
1, 194880, Note_on_c, 0, 70, 0
1, 194880, Note_on_c, 0, 64, 24
1, 194880, Note_on_c, 0, 76, 17
1, 194880, Note_on_c, 0, 82, 21
1, 194880, Note_on_c, 0, 84, 21
1, 195120, Tempo, 481928
1, 195120, Note_on_c, 0, 64, 0
1, 195120, Note_on_c, 0, 60, 24
1, 195312, Note_on_c, 0, 82, 0
1, 195312, Note_on_c, 0, 84, 0
1, 195312, Note_on_c, 0, 76, 0
1, 195360, Tempo, 578090
1, 195360, Note_on_c, 0, 60, 0
1, 195360, Note_on_c, 0, 76, 20
1, 195360, Note_on_c, 0, 82, 24
1, 195360, Note_on_c, 0, 84, 24
1, 195600, Tempo, 465911
1, 195600, Note_on_c, 0, 60, 20
1, 195792, Note_on_c, 0, 84, 0
1, 195792, Note_on_c, 0, 82, 0
1, 195792, Note_on_c, 0, 76, 0
1, 195840, Tempo, 439110
1, 195840, Note_on_c, 0, 72, 0
1, 195840, Note_on_c, 0, 60, 0
1, 195840, Note_on_c, 0, 64, 26
1, 196080, Note_on_c, 0, 64, 0
1, 196080, Note_on_c, 0, 70, 21
1, 196320, Tempo, 460794
1, 196320, Note_on_c, 0, 70, 0
1, 196320, Note_on_c, 0, 72, 40
1, 196320, Note_on_c, 0, 64, 36
1, 196560, Tempo, 570071
1, 196560, Note_on_c, 0, 64, 0
1, 196560, Note_on_c, 0, 60, 24
1, 196800, Tempo, 530645
1, 196800, Note_on_c, 0, 60, 0
1, 196800, Note_on_c, 0, 72, 0
1, 196800, Note_on_c, 0, 72, 48
1, 196800, Note_on_c, 0, 41, 36
1, 196819, Control_c, 0, 64, 0
1, 196949, Control_c, 0, 64, 127
1, 197040, Tempo, 468494
1, 197040, Note_on_c, 0, 63, 20
1, 197280, Tempo, 439110
1, 197280, Note_on_c, 0, 63, 0
1, 197280, Note_on_c, 0, 41, 0
1, 197280, Note_on_c, 0, 65, 26
1, 197520, Tempo, 441436
1, 197520, Note_on_c, 0, 65, 0
1, 197520, Note_on_c, 0, 69, 24
1, 197760, Tempo, 441436
1, 197760, Note_on_c, 0, 69, 0
1, 197760, Note_on_c, 0, 72, 0
1, 197760, Note_on_c, 0, 65, 34
1, 197760, Note_on_c, 0, 72, 40
1, 197760, Note_on_c, 0, 84, 25
1, 197760, Note_on_c, 0, 81, 25
1, 197760, Note_on_c, 0, 75, 21
1, 198000, Tempo, 471143
1, 198000, Note_on_c, 0, 65, 0
1, 198000, Note_on_c, 0, 63, 24
1, 198192, Note_on_c, 0, 81, 0
1, 198192, Note_on_c, 0, 75, 0
1, 198192, Note_on_c, 0, 84, 0
1, 198240, Tempo, 508173
1, 198240, Note_on_c, 0, 72, 0
1, 198240, Note_on_c, 0, 63, 0
1, 198240, Note_on_c, 0, 73, 47
1, 198240, Note_on_c, 0, 75, 21
1, 198240, Note_on_c, 0, 81, 27
1, 198240, Note_on_c, 0, 85, 27
1, 198255, Control_c, 0, 64, 0
1, 198423, Control_c, 0, 64, 127
1, 198480, Tempo, 465911
1, 198480, Note_on_c, 0, 63, 28
1, 198672, Note_on_c, 0, 85, 0
1, 198672, Note_on_c, 0, 81, 0
1, 198672, Note_on_c, 0, 75, 0
1, 198720, Tempo, 455789
1, 198720, Note_on_c, 0, 63, 0
1, 198720, Note_on_c, 0, 65, 36
1, 198960, Tempo, 439110
1, 198960, Note_on_c, 0, 65, 0
1, 198960, Note_on_c, 0, 69, 28
1, 199200, Tempo, 434562
1, 199200, Note_on_c, 0, 69, 0
1, 199200, Note_on_c, 0, 73, 0
1, 199200, Note_on_c, 0, 72, 41
1, 199200, Note_on_c, 0, 65, 36
1, 199440, Tempo, 511247
1, 199440, Note_on_c, 0, 65, 0
1, 199440, Note_on_c, 0, 63, 26
1, 199680, Tempo, 582129
1, 199680, Note_on_c, 0, 63, 0
1, 199680, Note_on_c, 0, 72, 0
1, 199680, Note_on_c, 0, 72, 49
1, 199680, Note_on_c, 0, 34, 34
1, 199680, Note_on_c, 0, 46, 34
1, 199693, Control_c, 0, 64, 0
1, 199829, Control_c, 0, 64, 127
1, 199920, Tempo, 473784
1, 199920, Note_on_c, 0, 56, 30
1, 200160, Tempo, 443754
1, 200160, Note_on_c, 0, 56, 0
1, 200160, Note_on_c, 0, 46, 0
1, 200160, Note_on_c, 0, 34, 0
1, 200160, Note_on_c, 0, 62, 36
1, 200400, Note_on_c, 0, 62, 0
1, 200400, Note_on_c, 0, 65, 29
1, 200640, Tempo, 446097
1, 200640, Note_on_c, 0, 65, 0
1, 200640, Note_on_c, 0, 62, 29
1, 200640, Note_on_c, 0, 84, 24
1, 200640, Note_on_c, 0, 77, 24
1, 200640, Note_on_c, 0, 74, 19
1, 200880, Tempo, 502092
1, 200880, Note_on_c, 0, 62, 0
1, 200880, Note_on_c, 0, 56, 29
1, 201072, Note_on_c, 0, 77, 0
1, 201072, Note_on_c, 0, 74, 0
1, 201072, Note_on_c, 0, 84, 0
1, 201120, Tempo, 586166
1, 201120, Note_on_c, 0, 72, 0
1, 201120, Note_on_c, 0, 56, 0
1, 201120, Note_on_c, 0, 65, 37
1, 201120, Note_on_c, 0, 74, 23
1, 201120, Note_on_c, 0, 77, 28
1, 201360, Tempo, 463320
1, 201360, Note_on_c, 0, 56, 23
1, 201552, Note_on_c, 0, 77, 0
1, 201552, Note_on_c, 0, 74, 0
1, 201600, Tempo, 434562
1, 201600, Note_on_c, 0, 65, 0
1, 201600, Note_on_c, 0, 56, 0
1, 201600, Note_on_c, 0, 58, 28
1, 201840, Tempo, 413195
1, 201840, Note_on_c, 0, 58, 0
1, 201840, Note_on_c, 0, 62, 22
1, 202080, Tempo, 471143
1, 202080, Note_on_c, 0, 62, 0
1, 202080, Note_on_c, 0, 58, 28
1, 202080, Note_on_c, 0, 65, 32
1, 202320, Tempo, 574163
1, 202320, Note_on_c, 0, 58, 0
1, 202320, Note_on_c, 0, 56, 22
1, 202560, Tempo, 463320
1, 202560, Note_on_c, 0, 56, 0
1, 202560, Note_on_c, 0, 65, 0
1, 202560, Note_on_c, 0, 65, 37
1, 202560, Note_on_c, 0, 39, 33
1, 202560, Note_on_c, 0, 51, 33
1, 202573, Control_c, 0, 64, 0
1, 202716, Control_c, 0, 64, 127
1, 202800, Tempo, 417304
1, 202800, Note_on_c, 0, 58, 21
1, 203040, Tempo, 432339
1, 203040, Note_on_c, 0, 58, 0
1, 203040, Note_on_c, 0, 65, 0
1, 203040, Note_on_c, 0, 39, 0
1, 203040, Note_on_c, 0, 51, 0
1, 203040, Note_on_c, 0, 67, 38
1, 203040, Note_on_c, 0, 61, 32
1, 203280, Note_on_c, 0, 61, 0
1, 203280, Note_on_c, 0, 63, 26
1, 203520, Tempo, 547945
1, 203520, Note_on_c, 0, 63, 0
1, 203520, Note_on_c, 0, 67, 0
1, 203520, Note_on_c, 0, 68, 39
1, 203520, Note_on_c, 0, 61, 34
1, 203520, Note_on_c, 0, 80, 24
1, 203520, Note_on_c, 0, 73, 24
1, 203520, Note_on_c, 0, 70, 24
1, 203760, Tempo, 468494
1, 203760, Note_on_c, 0, 61, 0
1, 203760, Note_on_c, 0, 58, 28
1, 203910, Note_on_c, 0, 73, 0
1, 203910, Note_on_c, 0, 70, 0
1, 203910, Note_on_c, 0, 80, 0
1, 203910, Note_on_c, 0, 73, 26
1, 203940, Note_on_c, 0, 75, 27
1, 203970, Note_on_c, 0, 79, 27
1, 204000, Tempo, 460794
1, 204000, Note_on_c, 0, 68, 0
1, 204000, Note_on_c, 0, 58, 0
1, 204000, Note_on_c, 0, 72, 42
1, 204000, Note_on_c, 0, 84, 28
1, 204240, Tempo, 436840
1, 204240, Note_on_c, 0, 61, 26
1, 204480, Tempo, 439110
1, 204480, Note_on_c, 0, 61, 0
1, 204480, Note_on_c, 0, 73, 0
1, 204480, Note_on_c, 0, 79, 0
1, 204480, Note_on_c, 0, 75, 0
1, 204480, Note_on_c, 0, 63, 26
1, 204720, Note_on_c, 0, 63, 0
1, 204720, Note_on_c, 0, 67, 26
1, 204960, Tempo, 493259
1, 204960, Note_on_c, 0, 67, 0
1, 204960, Note_on_c, 0, 72, 0
1, 204960, Note_on_c, 0, 84, 0
1, 204960, Note_on_c, 0, 70, 40
1, 204960, Note_on_c, 0, 63, 36
1, 204960, Note_on_c, 0, 82, 25
1, 205200, Note_on_c, 0, 63, 0
1, 205200, Note_on_c, 0, 61, 25
1, 205440, Tempo, 520788
1, 205440, Note_on_c, 0, 61, 0
1, 205440, Note_on_c, 0, 82, 0
1, 205440, Note_on_c, 0, 70, 0
1, 205440, Note_on_c, 0, 68, 45
1, 205440, Note_on_c, 0, 32, 28
1, 205440, Note_on_c, 0, 44, 28
1, 205453, Control_c, 0, 64, 0
1, 205566, Control_c, 0, 64, 127
1, 205680, Tempo, 450891
1, 205680, Note_on_c, 0, 60, 21
1, 205920, Tempo, 441436
1, 205920, Note_on_c, 0, 60, 0
1, 205920, Note_on_c, 0, 44, 0
1, 205920, Note_on_c, 0, 32, 0
1, 205920, Note_on_c, 0, 63, 33
1, 206160, Note_on_c, 0, 63, 0
1, 206160, Note_on_c, 0, 65, 24
1, 206400, Tempo, 455789
1, 206400, Note_on_c, 0, 65, 0
1, 206400, Note_on_c, 0, 68, 0
1, 206400, Note_on_c, 0, 63, 24
1, 206400, Note_on_c, 0, 80, 23
1, 206400, Note_on_c, 0, 72, 23
1, 206400, Note_on_c, 0, 75, 23
1, 206640, Tempo, 481928
1, 206640, Note_on_c, 0, 63, 0
1, 206640, Note_on_c, 0, 60, 24
1, 206832, Note_on_c, 0, 80, 0
1, 206832, Note_on_c, 0, 75, 0
1, 206832, Note_on_c, 0, 72, 0
1, 206880, Tempo, 490396
1, 206880, Note_on_c, 0, 60, 0
1, 206880, Note_on_c, 0, 56, 28
1, 206880, Note_on_c, 0, 72, 25
1, 206880, Note_on_c, 0, 75, 25
1, 206880, Note_on_c, 0, 80, 25
1, 207120, Note_on_c, 0, 56, 0
1, 207120, Note_on_c, 0, 60, 27
1, 207312, Note_on_c, 0, 72, 0
1, 207312, Note_on_c, 0, 80, 0
1, 207312, Note_on_c, 0, 75, 0
1, 207360, Tempo, 484731
1, 207360, Note_on_c, 0, 60, 0
1, 207360, Note_on_c, 0, 63, 32
1, 207600, Note_on_c, 0, 63, 0
1, 207600, Note_on_c, 0, 65, 36
1, 207840, Note_on_c, 0, 65, 0
1, 207840, Note_on_c, 0, 63, 39
1, 208080, Tempo, 508173
1, 208080, Note_on_c, 0, 68, 36
1, 208260, Note_on_c, 0, 44, 35
1, 208290, Note_on_c, 0, 51, 36
1, 208320, Tempo, 537442
1, 208320, Note_on_c, 0, 68, 0
1, 208320, Note_on_c, 0, 63, 0
1, 208320, Note_on_c, 0, 72, 45
1, 208320, Note_on_c, 0, 60, 39
1, 208320, Control_c, 0, 64, 0
1, 208433, Control_c, 0, 64, 127
1, 208560, Tempo, 465911
1, 208560, Note_on_c, 0, 62, 31
1, 208800, Tempo, 436840
1, 208800, Note_on_c, 0, 62, 0
1, 208800, Note_on_c, 0, 44, 0
1, 208800, Note_on_c, 0, 51, 0
1, 208800, Note_on_c, 0, 60, 0
1, 208800, Note_on_c, 0, 63, 36
1, 209040, Tempo, 436840
1, 209040, Note_on_c, 0, 63, 0
1, 209040, Note_on_c, 0, 68, 28
1, 209280, Tempo, 463320
1, 209280, Note_on_c, 0, 68, 0
1, 209280, Note_on_c, 0, 63, 28
1, 209280, Note_on_c, 0, 84, 21
1, 209280, Note_on_c, 0, 80, 21
1, 209280, Note_on_c, 0, 75, 17
1, 209520, Tempo, 484731
1, 209520, Note_on_c, 0, 63, 0
1, 209520, Note_on_c, 0, 60, 25
1, 209712, Note_on_c, 0, 80, 0
1, 209712, Note_on_c, 0, 75, 0
1, 209712, Note_on_c, 0, 84, 0
1, 209760, Tempo, 533998
1, 209760, Note_on_c, 0, 72, 0
1, 209760, Note_on_c, 0, 60, 0
1, 209760, Note_on_c, 0, 72, 33
1, 209760, Note_on_c, 0, 84, 26
1, 209760, Note_on_c, 0, 80, 26
1, 209760, Note_on_c, 0, 75, 22
1, 210000, Tempo, 476455
1, 210000, Note_on_c, 0, 60, 20
1, 210192, Note_on_c, 0, 75, 0
1, 210192, Note_on_c, 0, 80, 0
1, 210192, Note_on_c, 0, 84, 0
1, 210240, Tempo, 465911
1, 210240, Note_on_c, 0, 60, 0
1, 210240, Note_on_c, 0, 63, 28
1, 210480, Tempo, 421496
1, 210480, Note_on_c, 0, 63, 0
1, 210480, Note_on_c, 0, 68, 26
1, 210720, Tempo, 434562
1, 210720, Note_on_c, 0, 68, 0
1, 210720, Note_on_c, 0, 63, 27
1, 210960, Tempo, 481928
1, 210960, Note_on_c, 0, 63, 0
1, 210960, Note_on_c, 0, 60, 31
1, 211200, Tempo, 570288
1, 211200, Note_on_c, 0, 60, 0
1, 211200, Note_on_c, 0, 72, 0
1, 211200, Note_on_c, 0, 72, 44
1, 211200, Note_on_c, 0, 43, 32
1, 211200, Note_on_c, 0, 52, 32
1, 211200, Note_on_c, 0, 58, 32
1, 211211, Control_c, 0, 64, 0
1, 211372, Control_c, 0, 64, 127
1, 211440, Tempo, 458295
1, 211440, Note_on_c, 0, 60, 23
1, 211680, Tempo, 430138
1, 211680, Note_on_c, 0, 60, 0
1, 211680, Note_on_c, 0, 52, 0
1, 211680, Note_on_c, 0, 58, 0
1, 211680, Note_on_c, 0, 43, 0
1, 211680, Note_on_c, 0, 64, 33
1, 211920, Note_on_c, 0, 64, 0
1, 211920, Note_on_c, 0, 70, 25
1, 212160, Tempo, 434562
1, 212160, Note_on_c, 0, 70, 0
1, 212160, Note_on_c, 0, 64, 25
1, 212160, Note_on_c, 0, 84, 23
1, 212160, Note_on_c, 0, 82, 23
1, 212160, Note_on_c, 0, 76, 19
1, 212400, Tempo, 481928
1, 212400, Note_on_c, 0, 64, 0
1, 212400, Note_on_c, 0, 60, 25
1, 212592, Note_on_c, 0, 82, 0
1, 212592, Note_on_c, 0, 76, 0
1, 212592, Note_on_c, 0, 84, 0
1, 212640, Tempo, 524017
1, 212640, Note_on_c, 0, 60, 0
1, 212640, Note_on_c, 0, 84, 30
1, 212640, Note_on_c, 0, 82, 30
1, 212640, Note_on_c, 0, 76, 28
1, 212880, Tempo, 465911
1, 212880, Note_on_c, 0, 60, 22
1, 213072, Note_on_c, 0, 76, 0
1, 213072, Note_on_c, 0, 82, 0
1, 213072, Note_on_c, 0, 84, 0
1, 213120, Tempo, 439110
1, 213120, Note_on_c, 0, 72, 0
1, 213120, Note_on_c, 0, 60, 0
1, 213120, Note_on_c, 0, 64, 29
1, 213360, Note_on_c, 0, 64, 0
1, 213360, Note_on_c, 0, 70, 25
1, 213600, Tempo, 460794
1, 213600, Note_on_c, 0, 70, 0
1, 213600, Note_on_c, 0, 64, 32
1, 213600, Note_on_c, 0, 72, 38
1, 213840, Tempo, 481928
1, 213840, Note_on_c, 0, 64, 0
1, 213840, Note_on_c, 0, 60, 26
1, 214080, Tempo, 582129
1, 214080, Note_on_c, 0, 60, 0
1, 214080, Note_on_c, 0, 72, 0
1, 214080, Note_on_c, 0, 72, 44
1, 214080, Note_on_c, 0, 41, 32
1, 214080, Note_on_c, 0, 57, 32
1, 214094, Control_c, 0, 64, 0
1, 214275, Control_c, 0, 64, 127
1, 214320, Tempo, 468494
1, 214320, Note_on_c, 0, 60, 28
1, 214560, Tempo, 439110
1, 214560, Note_on_c, 0, 60, 0
1, 214560, Note_on_c, 0, 65, 32
1, 214800, Tempo, 441436
1, 214800, Note_on_c, 0, 65, 0
1, 214800, Note_on_c, 0, 69, 27
1, 215040, Tempo, 441436
1, 215040, Note_on_c, 0, 69, 0
1, 215040, Note_on_c, 0, 72, 0
1, 215040, Note_on_c, 0, 65, 36
1, 215040, Note_on_c, 0, 72, 40
1, 215280, Tempo, 471143
1, 215280, Note_on_c, 0, 65, 0
1, 215280, Note_on_c, 0, 60, 30
1, 215520, Tempo, 524017
1, 215520, Note_on_c, 0, 60, 0
1, 215520, Note_on_c, 0, 72, 0
1, 215520, Note_on_c, 0, 57, 0
1, 215520, Note_on_c, 0, 41, 0
1, 215520, Note_on_c, 0, 73, 52
1, 215520, Note_on_c, 0, 39, 28
1, 215520, Note_on_c, 0, 54, 28
1, 215535, Control_c, 0, 64, 0
1, 215703, Control_c, 0, 64, 127
1, 215760, Tempo, 465911
1, 215760, Note_on_c, 0, 60, 40
1, 216000, Note_on_c, 0, 60, 0
1, 216000, Note_on_c, 0, 66, 48
1, 216240, Tempo, 439110
1, 216240, Note_on_c, 0, 66, 0
1, 216240, Note_on_c, 0, 69, 43
1, 216480, Tempo, 434562
1, 216480, Note_on_c, 0, 69, 0
1, 216480, Note_on_c, 0, 73, 0
1, 216480, Note_on_c, 0, 72, 50
1, 216480, Note_on_c, 0, 66, 42
1, 216720, Tempo, 645092
1, 216720, Note_on_c, 0, 66, 0
1, 216720, Note_on_c, 0, 60, 47
1, 216960, Tempo, 582129
1, 216960, Note_on_c, 0, 60, 0
1, 216960, Note_on_c, 0, 72, 0
1, 216960, Note_on_c, 0, 54, 0
1, 216960, Note_on_c, 0, 39, 0
1, 216960, Note_on_c, 0, 77, 61
1, 216960, Note_on_c, 0, 38, 45
1, 216960, Note_on_c, 0, 53, 45
1, 216973, Control_c, 0, 64, 0
1, 217109, Control_c, 0, 64, 127
1, 217200, Tempo, 473784
1, 217200, Note_on_c, 0, 65, 32
1, 217440, Tempo, 443754
1, 217440, Note_on_c, 0, 65, 0
1, 217440, Note_on_c, 0, 53, 0
1, 217440, Note_on_c, 0, 38, 0
1, 217440, Note_on_c, 0, 68, 41
1, 217680, Note_on_c, 0, 68, 0
1, 217680, Note_on_c, 0, 72, 29
1, 217920, Tempo, 479195
1, 217920, Note_on_c, 0, 72, 0
1, 217920, Note_on_c, 0, 68, 37
1, 217920, Note_on_c, 0, 89, 31
1, 217920, Note_on_c, 0, 84, 31
1, 217920, Note_on_c, 0, 80, 25
1, 218160, Tempo, 502092
1, 218160, Note_on_c, 0, 68, 0
1, 218160, Note_on_c, 0, 65, 30
1, 218352, Note_on_c, 0, 84, 0
1, 218352, Note_on_c, 0, 80, 0
1, 218352, Note_on_c, 0, 89, 0
1, 218400, Tempo, 586166
1, 218400, Note_on_c, 0, 65, 0
1, 218400, Note_on_c, 0, 83, 32
1, 218400, Note_on_c, 0, 80, 28
1, 218400, Note_on_c, 0, 89, 32
1, 218640, Tempo, 463320
1, 218640, Note_on_c, 0, 65, 23
1, 218832, Note_on_c, 0, 89, 0
1, 218832, Note_on_c, 0, 80, 0
1, 218832, Note_on_c, 0, 83, 0
1, 218880, Tempo, 434562
1, 218880, Note_on_c, 0, 65, 0
1, 218880, Note_on_c, 0, 68, 31
1, 219120, Note_on_c, 0, 68, 0
1, 219120, Note_on_c, 0, 71, 27
1, 219360, Tempo, 453343
1, 219360, Note_on_c, 0, 71, 0
1, 219360, Note_on_c, 0, 68, 26
1, 219600, Tempo, 574163
1, 219600, Note_on_c, 0, 68, 0
1, 219600, Note_on_c, 0, 65, 25
1, 219840, Note_on_c, 0, 65, 0
1, 219840, Note_on_c, 0, 77, 0
1, 219840, Note_on_c, 0, 37, 26
1, 219840, Note_on_c, 0, 52, 30
1, 219854, Control_c, 0, 64, 0
1, 220069, Control_c, 0, 64, 127
1, 220080, Tempo, 481928
1, 220080, Note_on_c, 0, 58, 21
1, 220320, Tempo, 446097
1, 220320, Note_on_c, 0, 58, 0
1, 220320, Note_on_c, 0, 52, 0
1, 220320, Note_on_c, 0, 37, 0
1, 220320, Note_on_c, 0, 64, 27
1, 220560, Tempo, 434562
1, 220560, Note_on_c, 0, 64, 0
1, 220560, Note_on_c, 0, 68, 20
1, 220800, Tempo, 434562
1, 220800, Note_on_c, 0, 68, 0
1, 220800, Note_on_c, 0, 64, 20
1, 220800, Note_on_c, 0, 82, 24
1, 220800, Note_on_c, 0, 80, 24
1, 220800, Note_on_c, 0, 76, 20
1, 221040, Tempo, 499127
1, 221040, Note_on_c, 0, 64, 0
1, 221040, Note_on_c, 0, 58, 20
1, 221232, Note_on_c, 0, 82, 0
1, 221232, Note_on_c, 0, 76, 0
1, 221232, Note_on_c, 0, 80, 0
1, 221280, Tempo, 590319
1, 221280, Note_on_c, 0, 58, 0
1, 221280, Note_on_c, 0, 70, 32
1, 221280, Note_on_c, 0, 76, 22
1, 221280, Note_on_c, 0, 79, 27
1, 221280, Note_on_c, 0, 82, 27
1, 221520, Tempo, 484731
1, 221520, Note_on_c, 0, 58, 20
1, 221712, Note_on_c, 0, 82, 0
1, 221712, Note_on_c, 0, 79, 0
1, 221712, Note_on_c, 0, 76, 0
1, 221760, Tempo, 450891
1, 221760, Note_on_c, 0, 58, 0
1, 221760, Note_on_c, 0, 64, 25
1, 222000, Tempo, 419375
1, 222000, Note_on_c, 0, 64, 0
1, 222000, Note_on_c, 0, 67, 21
1, 222240, Tempo, 443754
1, 222240, Note_on_c, 0, 67, 0
1, 222240, Note_on_c, 0, 64, 21
1, 222480, Tempo, 463320
1, 222480, Note_on_c, 0, 64, 0
1, 222480, Note_on_c, 0, 58, 21
1, 222600, Tempo, 598683
1, 222690, Note_on_c, 0, 36, 29
1, 222720, Tempo, 551521
1, 222720, Note_on_c, 0, 58, 0
1, 222720, Note_on_c, 0, 70, 0
1, 222720, Note_on_c, 0, 75, 37
1, 222720, Note_on_c, 0, 51, 31
1, 222737, Control_c, 0, 64, 0
1, 222892, Control_c, 0, 64, 127
1, 222960, Tempo, 481928
1, 222960, Note_on_c, 0, 63, 22
1, 223200, Tempo, 463320
1, 223200, Note_on_c, 0, 63, 0
1, 223200, Note_on_c, 0, 51, 0
1, 223200, Note_on_c, 0, 36, 0
1, 223200, Note_on_c, 0, 66, 28
1, 223440, Note_on_c, 0, 66, 0
1, 223440, Note_on_c, 0, 70, 22
1, 223680, Tempo, 476455
1, 223680, Note_on_c, 0, 70, 0
1, 223680, Note_on_c, 0, 66, 22
1, 223680, Note_on_c, 0, 78, 16
1, 223680, Note_on_c, 0, 82, 20
1, 223680, Note_on_c, 0, 87, 20
1, 223920, Tempo, 490396
1, 223920, Note_on_c, 0, 66, 0
1, 223920, Note_on_c, 0, 63, 22
1, 224112, Note_on_c, 0, 82, 0
1, 224112, Note_on_c, 0, 87, 0
1, 224112, Note_on_c, 0, 78, 0
1, 224160, Tempo, 603015
1, 224160, Note_on_c, 0, 63, 0
1, 224160, Note_on_c, 0, 78, 20
1, 224160, Note_on_c, 0, 81, 23
1, 224160, Note_on_c, 0, 87, 23
1, 224179, Control_c, 0, 64, 0
1, 224256, Control_c, 0, 64, 127
1, 224400, Tempo, 458295
1, 224400, Note_on_c, 0, 63, 20
1, 224592, Note_on_c, 0, 87, 0
1, 224592, Note_on_c, 0, 81, 0
1, 224592, Note_on_c, 0, 78, 0
1, 224640, Note_on_c, 0, 63, 0
1, 224640, Note_on_c, 0, 66, 26
1, 224880, Note_on_c, 0, 66, 0
1, 224880, Note_on_c, 0, 69, 21
1, 225120, Tempo, 476455
1, 225120, Note_on_c, 0, 69, 0
1, 225120, Note_on_c, 0, 66, 30
1, 225360, Tempo, 511247
1, 225360, Note_on_c, 0, 66, 0
1, 225360, Note_on_c, 0, 63, 24
1, 225600, Tempo, 586166
1, 225600, Note_on_c, 0, 63, 0
1, 225600, Note_on_c, 0, 75, 0
1, 225600, Note_on_c, 0, 35, 26
1, 225600, Note_on_c, 0, 50, 30
1, 225611, Control_c, 0, 64, 0
1, 225829, Control_c, 0, 64, 127
1, 225840, Tempo, 524017
1, 225840, Note_on_c, 0, 56, 20
1, 226080, Tempo, 468494
1, 226080, Note_on_c, 0, 56, 0
1, 226080, Note_on_c, 0, 50, 0
1, 226080, Note_on_c, 0, 35, 0
1, 226080, Note_on_c, 0, 62, 25
1, 226320, Tempo, 450891
1, 226320, Note_on_c, 0, 62, 0
1, 226320, Note_on_c, 0, 66, 20
1, 226560, Tempo, 455789
1, 226560, Note_on_c, 0, 66, 0
1, 226560, Note_on_c, 0, 62, 20
1, 226560, Note_on_c, 0, 80, 20
1, 226560, Note_on_c, 0, 78, 20
1, 226560, Note_on_c, 0, 74, 16
1, 226800, Tempo, 517554
1, 226800, Note_on_c, 0, 62, 0
1, 226800, Note_on_c, 0, 56, 20
1, 226992, Note_on_c, 0, 80, 0
1, 226992, Note_on_c, 0, 74, 0
1, 226992, Note_on_c, 0, 78, 0
1, 227040, Tempo, 562641
1, 227040, Note_on_c, 0, 56, 0
1, 227040, Note_on_c, 0, 68, 29
1, 227040, Note_on_c, 0, 74, 19
1, 227040, Note_on_c, 0, 77, 23
1, 227040, Note_on_c, 0, 80, 23
1, 227056, Control_c, 0, 64, 0
1, 227235, Control_c, 0, 64, 127
1, 227280, Tempo, 517554
1, 227280, Note_on_c, 0, 56, 20
1, 227472, Note_on_c, 0, 80, 0
1, 227472, Note_on_c, 0, 77, 0
1, 227472, Note_on_c, 0, 74, 0
1, 227520, Tempo, 473784
1, 227520, Note_on_c, 0, 56, 0
1, 227520, Note_on_c, 0, 62, 24
1, 227760, Tempo, 458295
1, 227760, Note_on_c, 0, 62, 0
1, 227760, Note_on_c, 0, 65, 20
1, 228000, Tempo, 487527
1, 228000, Note_on_c, 0, 65, 0
1, 228000, Note_on_c, 0, 62, 20
1, 228240, Tempo, 520788
1, 228240, Note_on_c, 0, 62, 0
1, 228240, Note_on_c, 0, 56, 20
1, 228480, Tempo, 620861
1, 228480, Note_on_c, 0, 56, 0
1, 228480, Note_on_c, 0, 68, 0
1, 228480, Note_on_c, 0, 73, 35
1, 228480, Note_on_c, 0, 34, 27
1, 228480, Note_on_c, 0, 49, 31
1, 228491, Control_c, 0, 64, 0
1, 228652, Control_c, 0, 64, 127
1, 228720, Tempo, 511247
1, 228720, Note_on_c, 0, 61, 19
1, 228960, Tempo, 465911
1, 228960, Note_on_c, 0, 61, 0
1, 228960, Note_on_c, 0, 49, 0
1, 228960, Note_on_c, 0, 34, 0
1, 228960, Note_on_c, 0, 65, 27
1, 229200, Note_on_c, 0, 65, 0
1, 229200, Note_on_c, 0, 68, 18
1, 229440, Tempo, 533998
1, 229440, Note_on_c, 0, 68, 0
1, 229440, Note_on_c, 0, 65, 18
1, 229440, Note_on_c, 0, 77, 16
1, 229440, Note_on_c, 0, 80, 20
1, 229440, Note_on_c, 0, 85, 20
1, 229680, Tempo, 551521
1, 229680, Note_on_c, 0, 65, 0
1, 229680, Note_on_c, 0, 61, 18
1, 229872, Note_on_c, 0, 80, 0
1, 229872, Note_on_c, 0, 85, 0
1, 229872, Note_on_c, 0, 77, 0
1, 229920, Tempo, 603015
1, 229920, Note_on_c, 0, 61, 0
1, 229920, Note_on_c, 0, 76, 18
1, 229920, Note_on_c, 0, 80, 23
1, 229920, Note_on_c, 0, 85, 23
1, 229942, Control_c, 0, 64, 0
1, 230092, Control_c, 0, 64, 127
1, 230160, Tempo, 479195
1, 230160, Note_on_c, 0, 61, 20
1, 230352, Note_on_c, 0, 85, 0
1, 230352, Note_on_c, 0, 80, 0
1, 230352, Note_on_c, 0, 76, 0
1, 230400, Note_on_c, 0, 61, 0
1, 230400, Note_on_c, 0, 64, 26
1, 230640, Note_on_c, 0, 64, 0
1, 230640, Note_on_c, 0, 67, 21
1, 230880, Tempo, 517554
1, 230880, Note_on_c, 0, 67, 0
1, 230880, Note_on_c, 0, 73, 0
1, 230880, Note_on_c, 0, 72, 32
1, 230880, Note_on_c, 0, 64, 26
1, 231120, Tempo, 562641
1, 231120, Note_on_c, 0, 64, 0
1, 231120, Note_on_c, 0, 61, 22
1, 231360, Tempo, 603015
1, 231360, Note_on_c, 0, 61, 0
1, 231360, Note_on_c, 0, 72, 0
1, 231360, Note_on_c, 0, 72, 36
1, 231360, Note_on_c, 0, 39, 27
1, 231376, Control_c, 0, 64, 0
1, 231555, Control_c, 0, 64, 127
1, 231600, Tempo, 517554
1, 231600, Note_on_c, 0, 61, 20
1, 231840, Tempo, 463320
1, 231840, Note_on_c, 0, 61, 0
1, 231840, Note_on_c, 0, 64, 25
1, 232080, Tempo, 479195
1, 232080, Note_on_c, 0, 64, 0
1, 232080, Note_on_c, 0, 67, 21
1, 232320, Tempo, 481928
1, 232320, Note_on_c, 0, 67, 0
1, 232320, Note_on_c, 0, 72, 0
1, 232320, Note_on_c, 0, 70, 32
1, 232320, Note_on_c, 0, 64, 21
1, 232560, Tempo, 508173
1, 232560, Note_on_c, 0, 64, 0
1, 232560, Note_on_c, 0, 61, 21
1, 232800, Tempo, 582129
1, 232800, Note_on_c, 0, 61, 0
1, 232800, Note_on_c, 0, 70, 0
1, 232800, Note_on_c, 0, 72, 36
1, 232800, Note_on_c, 0, 55, 27
1, 233040, Tempo, 508173
1, 233040, Note_on_c, 0, 61, 20
1, 233280, Tempo, 484731
1, 233280, Note_on_c, 0, 61, 0
1, 233280, Note_on_c, 0, 63, 25
1, 233520, Tempo, 481928
1, 233520, Note_on_c, 0, 63, 0
1, 233520, Note_on_c, 0, 67, 21
1, 233760, Tempo, 493259
1, 233760, Note_on_c, 0, 67, 0
1, 233760, Note_on_c, 0, 72, 0
1, 233760, Note_on_c, 0, 70, 31
1, 233760, Note_on_c, 0, 63, 21
1, 234000, Tempo, 555196
1, 234000, Note_on_c, 0, 63, 0
1, 234000, Note_on_c, 0, 61, 21
1, 234120, Tempo, 675752
1, 234180, Note_on_c, 0, 61, 0
1, 234180, Note_on_c, 0, 60, 24
1, 234210, Note_on_c, 0, 63, 29
1, 234240, Tempo, 747943
1, 234240, Note_on_c, 0, 70, 0
1, 234240, Note_on_c, 0, 39, 0
1, 234240, Note_on_c, 0, 55, 0
1, 234240, Note_on_c, 0, 68, 36
1, 234248, Control_c, 0, 64, 0
1, 234480, Tempo, 586166
1, 234480, Note_on_c, 0, 32, 20
1, 234579, Control_c, 0, 64, 127
1, 234720, Tempo, 493259
1, 234720, Note_on_c, 0, 32, 0
1, 234720, Note_on_c, 0, 63, 0
1, 234720, Note_on_c, 0, 60, 0
1, 234720, Note_on_c, 0, 68, 0
1, 234720, Note_on_c, 0, 44, 21
1, 234960, Note_on_c, 0, 44, 0
1, 234960, Note_on_c, 0, 51, 23
1, 235200, Note_on_c, 0, 51, 0
1, 235200, Note_on_c, 0, 56, 24
1, 235440, Note_on_c, 0, 56, 0
1, 235440, Note_on_c, 0, 60, 24
1, 235680, Note_on_c, 0, 60, 0
1, 235680, Note_on_c, 0, 63, 25
1, 235920, Note_on_c, 0, 63, 0
1, 235920, Note_on_c, 0, 68, 25
1, 236160, Tempo, 484731
1, 236160, Note_on_c, 0, 68, 0
1, 236160, Note_on_c, 0, 72, 26
1, 236400, Note_on_c, 0, 72, 0
1, 236400, Note_on_c, 0, 75, 27
1, 236640, Tempo, 490396
1, 236640, Note_on_c, 0, 75, 0
1, 236640, Note_on_c, 0, 80, 28
1, 236880, Tempo, 659848
1, 236880, Note_on_c, 0, 80, 0
1, 236880, Note_on_c, 0, 82, 28
1, 237120, Tempo, 566412
1, 237120, Note_on_c, 0, 82, 0
1, 237120, Note_on_c, 0, 75, 32
1, 237120, Note_on_c, 0, 84, 32
1, 237120, Note_on_c, 0, 68, 25
1, 237120, Note_on_c, 0, 72, 25
1, 237141, Control_c, 0, 64, 0
1, 238080, Tempo, 505136
1, 238080, Note_on_c, 0, 72, 0
1, 238080, Note_on_c, 0, 75, 0
1, 238080, Note_on_c, 0, 84, 0
1, 238080, Note_on_c, 0, 68, 0
1, 238080, Note_on_c, 0, 76, 25
1, 238080, Note_on_c, 0, 84, 25
1, 238080, Note_on_c, 0, 67, 21
1, 238080, Note_on_c, 0, 70, 21
1, 238536, Note_on_c, 0, 70, 0
1, 238536, Note_on_c, 0, 76, 0
1, 238536, Note_on_c, 0, 84, 0
1, 238536, Note_on_c, 0, 67, 0
1, 238560, Tempo, 508173
1, 238560, Note_on_c, 0, 77, 26
1, 238560, Note_on_c, 0, 84, 26
1, 238560, Note_on_c, 0, 65, 21
1, 238560, Note_on_c, 0, 69, 21
1, 239016, Note_on_c, 0, 69, 0
1, 239016, Note_on_c, 0, 77, 0
1, 239016, Note_on_c, 0, 84, 0
1, 239016, Note_on_c, 0, 65, 0
1, 239040, Tempo, 544415
1, 239040, Note_on_c, 0, 78, 29
1, 239040, Note_on_c, 0, 85, 29
1, 239040, Note_on_c, 0, 63, 24
1, 239040, Note_on_c, 0, 69, 24
1, 239496, Note_on_c, 0, 69, 0
1, 239496, Note_on_c, 0, 78, 0
1, 239496, Note_on_c, 0, 85, 0
1, 239496, Note_on_c, 0, 63, 0
1, 239520, Tempo, 616270
1, 239520, Note_on_c, 0, 78, 25
1, 239520, Note_on_c, 0, 84, 25
1, 239520, Note_on_c, 0, 69, 21
1, 239520, Note_on_c, 0, 63, 21
1, 239976, Note_on_c, 0, 63, 0
1, 239976, Note_on_c, 0, 78, 0
1, 239976, Note_on_c, 0, 84, 0
1, 239976, Note_on_c, 0, 69, 0
1, 240000, Tempo, 520788
1, 240000, Note_on_c, 0, 80, 30
1, 240000, Note_on_c, 0, 89, 30
1, 240000, Note_on_c, 0, 62, 26
1, 240000, Note_on_c, 0, 71, 26
1, 240456, Note_on_c, 0, 71, 0
1, 240456, Note_on_c, 0, 80, 0
1, 240456, Note_on_c, 0, 89, 0
1, 240456, Note_on_c, 0, 62, 0
1, 242400, Tempo, 644676
1, 242880, Tempo, 547945
1, 242880, Note_on_c, 0, 73, 32
1, 242880, Note_on_c, 0, 82, 32
1, 242880, Note_on_c, 0, 66, 25
1, 242880, Note_on_c, 0, 70, 25
1, 243840, Tempo, 508173
1, 243840, Note_on_c, 0, 70, 0
1, 243840, Note_on_c, 0, 73, 0
1, 243840, Note_on_c, 0, 82, 0
1, 243840, Note_on_c, 0, 66, 0
1, 243840, Note_on_c, 0, 74, 25
1, 243840, Note_on_c, 0, 82, 25
1, 243840, Note_on_c, 0, 65, 21
1, 243840, Note_on_c, 0, 68, 21
1, 244296, Note_on_c, 0, 68, 0
1, 244296, Note_on_c, 0, 74, 0
1, 244296, Note_on_c, 0, 82, 0
1, 244296, Note_on_c, 0, 65, 0
1, 244320, Tempo, 499127
1, 244320, Note_on_c, 0, 75, 26
1, 244320, Note_on_c, 0, 82, 26
1, 244320, Note_on_c, 0, 63, 21
1, 244320, Note_on_c, 0, 67, 21
1, 244776, Note_on_c, 0, 67, 0
1, 244776, Note_on_c, 0, 75, 0
1, 244776, Note_on_c, 0, 82, 0
1, 244776, Note_on_c, 0, 63, 0
1, 244800, Tempo, 530645
1, 244800, Note_on_c, 0, 76, 29
1, 244800, Note_on_c, 0, 84, 29
1, 244800, Note_on_c, 0, 61, 24
1, 244800, Note_on_c, 0, 67, 24
1, 245256, Note_on_c, 0, 67, 0
1, 245256, Note_on_c, 0, 76, 0
1, 245256, Note_on_c, 0, 84, 0
1, 245256, Note_on_c, 0, 61, 0
1, 245280, Tempo, 644676
1, 245280, Note_on_c, 0, 76, 25
1, 245280, Note_on_c, 0, 82, 25
1, 245280, Note_on_c, 0, 67, 21
1, 245280, Note_on_c, 0, 61, 21
1, 245736, Note_on_c, 0, 61, 0
1, 245736, Note_on_c, 0, 76, 0
1, 245736, Note_on_c, 0, 82, 0
1, 245736, Note_on_c, 0, 67, 0
1, 245760, Tempo, 524017
1, 245760, Note_on_c, 0, 78, 30
1, 245760, Note_on_c, 0, 87, 30
1, 245760, Note_on_c, 0, 60, 26
1, 245760, Note_on_c, 0, 69, 26
1, 246216, Note_on_c, 0, 69, 0
1, 246216, Note_on_c, 0, 78, 0
1, 246216, Note_on_c, 0, 87, 0
1, 246216, Note_on_c, 0, 60, 0
1, 248380, Control_c, 0, 64, 127
1, 248400, Tempo, 813118
1, 248400, Note_on_c, 0, 37, 41
1, 248460, Note_on_c, 0, 57, 46
1, 248520, Note_on_c, 0, 61, 47
1, 248580, Note_on_c, 0, 64, 52
1, 248640, Tempo, 520788
1, 248640, Note_on_c, 0, 73, 58
1, 251280, Tempo, 805261
1, 251280, Note_on_c, 0, 73, 0
1, 251280, Note_on_c, 0, 61, 0
1, 251280, Note_on_c, 0, 37, 0
1, 251280, Note_on_c, 0, 57, 0
1, 251280, Note_on_c, 0, 64, 0
1, 251280, Note_on_c, 0, 39, 33
1, 251287, Control_c, 0, 64, 0
1, 251520, Tempo, 530645
1, 251520, Note_on_c, 0, 61, 41
1, 251520, Note_on_c, 0, 65, 43
1, 251520, Note_on_c, 0, 70, 52
1, 251520, Note_on_c, 0, 56, 41
1, 251545, Control_c, 0, 64, 127
1, 252960, Tempo, 558867
1, 252960, Note_on_c, 0, 56, 0
1, 252960, Note_on_c, 0, 55, 33
1, 253440, Note_on_c, 0, 65, 0
1, 253440, Note_on_c, 0, 61, 0
1, 253440, Note_on_c, 0, 63, 37
1, 253460, Control_c, 0, 64, 0
1, 253920, Tempo, 716076
1, 253920, Note_on_c, 0, 70, 0
1, 253920, Note_on_c, 0, 72, 37
1, 254400, Tempo, 562641
1, 254400, Note_on_c, 0, 72, 0
1, 254400, Note_on_c, 0, 63, 0
1, 254400, Note_on_c, 0, 55, 0
1, 254400, Note_on_c, 0, 39, 0
1, 254400, Note_on_c, 0, 60, 38
1, 254400, Note_on_c, 0, 68, 38
1, 254400, Note_on_c, 0, 51, 31
1, 254400, Note_on_c, 0, 44, 31
1, 255840, Tempo, 586166
1, 256320, Note_on_c, 0, 51, 0
1, 256320, Note_on_c, 0, 60, 0
1, 256320, Note_on_c, 0, 59, 37
1, 256320, Note_on_c, 0, 50, 34
1, 256800, Tempo, 625456
1, 256800, Note_on_c, 0, 50, 0
1, 256800, Note_on_c, 0, 59, 0
1, 256800, Note_on_c, 0, 60, 37
1, 256800, Note_on_c, 0, 51, 35
1, 257160, Tempo, 863185
1, 257190, Note_on_c, 0, 51, 0
1, 257190, Note_on_c, 0, 60, 0
1, 257190, Note_on_c, 0, 44, 31
1, 257220, Note_on_c, 0, 55, 33
1, 257250, Note_on_c, 0, 63, 38
1, 257280, Tempo, 625456
1, 257280, Note_on_c, 0, 68, 0
1, 257280, Note_on_c, 0, 44, 0
1, 257280, Note_on_c, 0, 68, 40
1, 258720, Tempo, 704060
1, 258720, Note_on_c, 0, 55, 0
1, 258720, Note_on_c, 0, 63, 0
1, 258720, Note_on_c, 0, 61, 34
1, 258720, Note_on_c, 0, 53, 30
1, 259680, Tempo, 845785
1, 259680, Note_on_c, 0, 53, 0
1, 259680, Note_on_c, 0, 61, 0
1, 259680, Note_on_c, 0, 60, 31
1, 259680, Note_on_c, 0, 51, 30
1, 260160, Tempo, 829187
1, 260160, Note_on_c, 0, 51, 0
1, 260160, Note_on_c, 0, 68, 0
1, 260160, Note_on_c, 0, 44, 0
1, 260160, Note_on_c, 0, 60, 0
1, 260160, Note_on_c, 0, 44, 26
1, 260280, Note_on_c, 0, 51, 34
1, 260280, Control_c, 0, 64, 127
1, 260400, Note_on_c, 0, 60, 34
1, 260520, Note_on_c, 0, 68, 37
1, 263040, Note_on_c, 0, 68, 0
1, 263040, Note_on_c, 0, 44, 0
1, 263040, Note_on_c, 0, 51, 0
1, 263040, Note_on_c, 0, 60, 0
1, 265040, Tempo, 829187
1, 265040, Control_c, 0, 64, 0
1, 265040, End_track
0, 0, End_of_file
