0, 0, Header, 0, 1, 480
1, 0, Start_track
1, 0, Title_t, "Rhapsodie Nr. 9 - Pesther Karneval"
1, 0, Copyright_t, "Copyright © 2005 von Bernd Krüger. "
1, 0, Text_t, "Franz Liszt"
1, 0, Text_t, "Fertiggestellt am  8.10.2005\012"
1, 0, Text_t, "Update am 30.3.2011\012"
1, 0, Text_t, "Update am 7.3.2014\012"
1, 0, Text_t, "Dauer: 10:31 Minuten\012"
1, 0, Time_signature, 4, 2, 24, 8
1, 0, Key_signature, -3, "major"
1, 0, Tempo, 351906
1, 0, Program_c, 0, 0
1, 0, Control_c, 0, 7, 100
1, 0, Control_c, 0, 10, 64
1, 0, Control_c, 0, 91, 127
1, 0, Text_t, "bdca426d104a26ac9dcb070447587523"
1, 0, Program_c, 0, 0
1, 0, Control_c, 0, 7, 100
1, 0, Control_c, 0, 10, 64
1, 0, Program_c, 0, 0
1, 1440, Tempo, 511727
1, 1440, Marker_t, "Moderato"
1, 1500, Tempo, 532151
1, 1786, Control_c, 0, 64, 127
1, 1800, Note_on_c, 0, 46, 77
1, 1800, Note_on_c, 0, 34, 61
1, 1920, Tempo, 532151
1, 1920, Note_on_c, 0, 34, 0
1, 1920, Note_on_c, 0, 46, 0
1, 1920, Note_on_c, 0, 51, 89
1, 1920, Note_on_c, 0, 39, 70
1, 1920, Note_on_c, 0, 27, 59
1, 2760, Note_on_c, 0, 27, 0
1, 2760, Note_on_c, 0, 39, 0
1, 2760, Note_on_c, 0, 51, 0
1, 2760, Note_on_c, 0, 55, 77
1, 2760, Note_on_c, 0, 43, 61
1, 2760, Note_on_c, 0, 31, 51
1, 2880, Tempo, 539326
1, 2880, Note_on_c, 0, 31, 0
1, 2880, Note_on_c, 0, 43, 0
1, 2880, Note_on_c, 0, 55, 0
1, 2880, Note_on_c, 0, 56, 83
1, 2880, Note_on_c, 0, 44, 66
1, 2880, Note_on_c, 0, 32, 56
1, 2890, Control_c, 0, 64, 0
1, 3000, Note_on_c, 0, 32, 0
1, 3000, Note_on_c, 0, 44, 0
1, 3000, Note_on_c, 0, 56, 0
1, 3360, Note_on_c, 0, 57, 81
1, 3360, Note_on_c, 0, 45, 64
1, 3360, Note_on_c, 0, 33, 55
1, 3420, Tempo, 566038
1, 3480, Note_on_c, 0, 33, 0
1, 3480, Note_on_c, 0, 45, 0
1, 3480, Note_on_c, 0, 57, 0
1, 3840, Tempo, 508475
1, 3840, Note_on_c, 0, 58, 89
1, 3840, Note_on_c, 0, 46, 70
1, 3840, Note_on_c, 0, 34, 59
1, 3900, Tempo, 518359
1, 3953, Control_c, 0, 64, 127
1, 4800, Note_on_c, 0, 34, 0
1, 4800, Note_on_c, 0, 46, 0
1, 4800, Note_on_c, 0, 58, 0
1, 4800, Note_on_c, 0, 87, 84
1, 4800, Note_on_c, 0, 82, 70
1, 4800, Note_on_c, 0, 79, 70
1, 4800, Note_on_c, 0, 75, 70
1, 4800, Note_on_c, 0, 67, 67
1, 4800, Note_on_c, 0, 63, 56
1, 4800, Note_on_c, 0, 58, 56
1, 4800, Note_on_c, 0, 55, 56
1, 4892, Control_c, 0, 64, 0
1, 4920, Note_on_c, 0, 55, 0
1, 4920, Note_on_c, 0, 87, 0
1, 4920, Note_on_c, 0, 67, 0
1, 4920, Note_on_c, 0, 82, 0
1, 4920, Note_on_c, 0, 79, 0
1, 4920, Note_on_c, 0, 75, 0
1, 4920, Note_on_c, 0, 63, 0
1, 4920, Note_on_c, 0, 58, 0
1, 5626, Control_c, 0, 64, 127
1, 5640, Tempo, 511727
1, 5640, Note_on_c, 0, 46, 77
1, 5640, Note_on_c, 0, 34, 61
1, 5700, Tempo, 521739
1, 5760, Tempo, 528634
1, 5760, Note_on_c, 0, 34, 0
1, 5760, Note_on_c, 0, 46, 0
1, 5760, Note_on_c, 0, 51, 89
1, 5760, Note_on_c, 0, 39, 70
1, 5760, Note_on_c, 0, 27, 59
1, 6600, Note_on_c, 0, 27, 0
1, 6600, Note_on_c, 0, 39, 0
1, 6600, Note_on_c, 0, 51, 0
1, 6600, Note_on_c, 0, 55, 77
1, 6600, Note_on_c, 0, 43, 61
1, 6600, Note_on_c, 0, 31, 50
1, 6660, Tempo, 542986
1, 6720, Note_on_c, 0, 31, 0
1, 6720, Note_on_c, 0, 43, 0
1, 6720, Note_on_c, 0, 55, 0
1, 6720, Note_on_c, 0, 58, 83
1, 6720, Note_on_c, 0, 46, 67
1, 6720, Note_on_c, 0, 34, 56
1, 6730, Control_c, 0, 64, 0
1, 6840, Note_on_c, 0, 34, 0
1, 6840, Note_on_c, 0, 46, 0
1, 6840, Note_on_c, 0, 58, 0
1, 7200, Tempo, 554273
1, 7200, Note_on_c, 0, 60, 81
1, 7200, Note_on_c, 0, 48, 66
1, 7200, Note_on_c, 0, 36, 55
1, 7320, Note_on_c, 0, 36, 0
1, 7320, Note_on_c, 0, 48, 0
1, 7320, Note_on_c, 0, 60, 0
1, 7680, Tempo, 518359
1, 7680, Note_on_c, 0, 61, 89
1, 7680, Note_on_c, 0, 49, 70
1, 7680, Note_on_c, 0, 37, 59
1, 7751, Control_c, 0, 64, 127
1, 8640, Note_on_c, 0, 37, 0
1, 8640, Note_on_c, 0, 49, 0
1, 8640, Note_on_c, 0, 61, 0
1, 8640, Note_on_c, 0, 91, 85
1, 8640, Note_on_c, 0, 87, 70
1, 8640, Note_on_c, 0, 82, 70
1, 8640, Note_on_c, 0, 79, 70
1, 8640, Note_on_c, 0, 70, 67
1, 8640, Note_on_c, 0, 67, 56
1, 8640, Note_on_c, 0, 63, 56
1, 8640, Note_on_c, 0, 58, 56
1, 8732, Control_c, 0, 64, 0
1, 8760, Note_on_c, 0, 58, 0
1, 8760, Note_on_c, 0, 91, 0
1, 8760, Note_on_c, 0, 70, 0
1, 8760, Note_on_c, 0, 87, 0
1, 8760, Note_on_c, 0, 82, 0
1, 8760, Note_on_c, 0, 79, 0
1, 8760, Note_on_c, 0, 67, 0
1, 8760, Note_on_c, 0, 63, 0
1, 9438, Control_c, 0, 64, 127
1, 9480, Tempo, 511727
1, 9480, Note_on_c, 0, 48, 77
1, 9480, Note_on_c, 0, 24, 49
1, 9480, Note_on_c, 0, 36, 61
1, 9600, Tempo, 511727
1, 9600, Note_on_c, 0, 36, 0
1, 9600, Note_on_c, 0, 24, 0
1, 9600, Note_on_c, 0, 48, 0
1, 9600, Note_on_c, 0, 51, 89
1, 9600, Note_on_c, 0, 39, 70
1, 9600, Note_on_c, 0, 27, 59
1, 9660, Tempo, 525164
1, 10440, Note_on_c, 0, 27, 0
1, 10440, Note_on_c, 0, 39, 0
1, 10440, Note_on_c, 0, 51, 0
1, 10440, Note_on_c, 0, 56, 64
1, 10440, Note_on_c, 0, 44, 52
1, 10440, Note_on_c, 0, 32, 44
1, 10500, Tempo, 532151
1, 10560, Tempo, 521739
1, 10560, Note_on_c, 0, 32, 0
1, 10560, Note_on_c, 0, 44, 0
1, 10560, Note_on_c, 0, 56, 0
1, 10560, Note_on_c, 0, 60, 72
1, 10560, Note_on_c, 0, 48, 56
1, 10560, Note_on_c, 0, 36, 47
1, 10570, Control_c, 0, 64, 0
1, 10640, Tempo, 525164
1, 10658, Control_c, 0, 64, 127
1, 10680, Tempo, 528634
1, 10760, Tempo, 532151
1, 10800, Tempo, 535714
1, 10840, Tempo, 539326
1, 10880, Note_on_c, 0, 36, 0
1, 10880, Note_on_c, 0, 48, 0
1, 10880, Note_on_c, 0, 60, 0
1, 10880, Note_on_c, 0, 61, 75
1, 10880, Note_on_c, 0, 49, 59
1, 10880, Note_on_c, 0, 37, 49
1, 10890, Control_c, 0, 64, 0
1, 10920, Tempo, 542986
1, 10960, Tempo, 546697
1, 10977, Control_c, 0, 64, 127
1, 11000, Tempo, 550459
1, 11040, Tempo, 554273
1, 11100, Tempo, 604534
1, 11200, Note_on_c, 0, 37, 0
1, 11200, Note_on_c, 0, 49, 0
1, 11200, Note_on_c, 0, 61, 0
1, 11200, Note_on_c, 0, 62, 79
1, 11200, Note_on_c, 0, 50, 63
1, 11200, Note_on_c, 0, 38, 53
1, 11210, Control_c, 0, 64, 0
1, 11308, Control_c, 0, 64, 127
1, 11520, Tempo, 508475
1, 11520, Note_on_c, 0, 38, 0
1, 11520, Note_on_c, 0, 50, 0
1, 11520, Note_on_c, 0, 62, 0
1, 11520, Note_on_c, 0, 63, 89
1, 11520, Note_on_c, 0, 51, 70
1, 11520, Note_on_c, 0, 39, 59
1, 11540, Control_c, 0, 64, 0
1, 11580, Tempo, 521739
1, 11753, Control_c, 0, 64, 127
1, 12480, Note_on_c, 0, 39, 0
1, 12480, Note_on_c, 0, 51, 0
1, 12480, Note_on_c, 0, 63, 0
1, 12480, Note_on_c, 0, 92, 84
1, 12480, Note_on_c, 0, 87, 70
1, 12480, Note_on_c, 0, 84, 70
1, 12480, Note_on_c, 0, 80, 70
1, 12480, Note_on_c, 0, 72, 67
1, 12480, Note_on_c, 0, 68, 56
1, 12480, Note_on_c, 0, 63, 56
1, 12480, Note_on_c, 0, 60, 56
1, 12572, Control_c, 0, 64, 0
1, 12600, Note_on_c, 0, 60, 0
1, 12600, Note_on_c, 0, 92, 0
1, 12600, Note_on_c, 0, 72, 0
1, 12600, Note_on_c, 0, 87, 0
1, 12600, Note_on_c, 0, 84, 0
1, 12600, Note_on_c, 0, 80, 0
1, 12600, Note_on_c, 0, 68, 0
1, 12600, Note_on_c, 0, 63, 0
1, 13179, Control_c, 0, 64, 127
1, 13320, Tempo, 511727
1, 13320, Note_on_c, 0, 48, 77
1, 13320, Note_on_c, 0, 24, 49
1, 13320, Note_on_c, 0, 36, 61
1, 13380, Tempo, 518359
1, 13440, Tempo, 511727
1, 13440, Note_on_c, 0, 36, 0
1, 13440, Note_on_c, 0, 24, 0
1, 13440, Note_on_c, 0, 48, 0
1, 13440, Note_on_c, 0, 51, 89
1, 13440, Note_on_c, 0, 39, 70
1, 13440, Note_on_c, 0, 27, 59
1, 14280, Note_on_c, 0, 27, 0
1, 14280, Note_on_c, 0, 39, 0
1, 14280, Note_on_c, 0, 51, 0
1, 14280, Note_on_c, 0, 56, 70
1, 14280, Note_on_c, 0, 44, 56
1, 14280, Note_on_c, 0, 32, 56
1, 14400, Note_on_c, 0, 32, 0
1, 14400, Note_on_c, 0, 44, 0
1, 14400, Note_on_c, 0, 56, 0
1, 14400, Note_on_c, 0, 60, 68
1, 14400, Note_on_c, 0, 48, 53
1, 14400, Note_on_c, 0, 36, 45
1, 14410, Control_c, 0, 64, 0
1, 14440, Tempo, 511727
1, 14480, Tempo, 515021
1, 14506, Control_c, 0, 64, 127
1, 14520, Tempo, 518359
1, 14560, Tempo, 521739
1, 14600, Tempo, 525164
1, 14640, Tempo, 532151
1, 14640, Note_on_c, 0, 36, 0
1, 14640, Note_on_c, 0, 48, 0
1, 14640, Note_on_c, 0, 60, 0
1, 14640, Note_on_c, 0, 63, 70
1, 14640, Note_on_c, 0, 51, 58
1, 14640, Note_on_c, 0, 39, 49
1, 14680, Tempo, 535714
1, 14720, Tempo, 539326
1, 14760, Tempo, 542986
1, 14800, Tempo, 546697
1, 14840, Tempo, 554273
1, 14880, Tempo, 554273
1, 14880, Note_on_c, 0, 39, 0
1, 14880, Note_on_c, 0, 51, 0
1, 14880, Note_on_c, 0, 63, 0
1, 14880, Note_on_c, 0, 64, 74
1, 14880, Note_on_c, 0, 52, 62
1, 14880, Note_on_c, 0, 40, 52
1, 14890, Control_c, 0, 64, 0
1, 14940, Tempo, 600000
1, 14979, Control_c, 0, 64, 127
1, 15120, Note_on_c, 0, 40, 0
1, 15120, Note_on_c, 0, 52, 0
1, 15120, Note_on_c, 0, 64, 0
1, 15120, Note_on_c, 0, 65, 79
1, 15120, Note_on_c, 0, 53, 68
1, 15120, Note_on_c, 0, 41, 57
1, 15360, Tempo, 525164
1, 15360, Note_on_c, 0, 41, 0
1, 15360, Note_on_c, 0, 53, 0
1, 15360, Note_on_c, 0, 65, 0
1, 15360, Note_on_c, 0, 66, 89
1, 15360, Note_on_c, 0, 54, 70
1, 15360, Note_on_c, 0, 42, 59
1, 15375, Control_c, 0, 64, 0
1, 15600, Control_c, 0, 64, 127
1, 16320, Tempo, 609137
1, 16320, Note_on_c, 0, 42, 0
1, 16320, Note_on_c, 0, 54, 0
1, 16320, Note_on_c, 0, 66, 0
1, 16320, Note_on_c, 0, 93, 84
1, 16320, Note_on_c, 0, 90, 70
1, 16320, Note_on_c, 0, 84, 70
1, 16320, Note_on_c, 0, 81, 70
1, 16320, Note_on_c, 0, 75, 67
1, 16320, Note_on_c, 0, 72, 56
1, 16320, Note_on_c, 0, 66, 56
1, 16320, Note_on_c, 0, 63, 56
1, 16412, Control_c, 0, 64, 0
1, 16440, Note_on_c, 0, 63, 0
1, 16440, Note_on_c, 0, 93, 0
1, 16440, Note_on_c, 0, 75, 0
1, 16440, Note_on_c, 0, 90, 0
1, 16440, Note_on_c, 0, 84, 0
1, 16440, Note_on_c, 0, 81, 0
1, 16440, Note_on_c, 0, 72, 0
1, 16440, Note_on_c, 0, 66, 0
1, 17280, Tempo, 945031
1, 17440, Note_on_c, 0, 63, 36
1, 17440, Note_on_c, 0, 68, 36
1, 17440, Note_on_c, 0, 54, 28
1, 17440, Note_on_c, 0, 60, 28
1, 17488, Note_on_c, 0, 60, 0
1, 17488, Note_on_c, 0, 63, 0
1, 17488, Note_on_c, 0, 68, 0
1, 17488, Note_on_c, 0, 54, 0
1, 17570, Tempo, 869565
1, 17585, Tempo, 952532
1, 17600, Note_on_c, 0, 65, 36
1, 17600, Note_on_c, 0, 71, 36
1, 17600, Note_on_c, 0, 56, 29
1, 17600, Note_on_c, 0, 62, 29
1, 17625, Tempo, 937647
1, 17648, Note_on_c, 0, 62, 0
1, 17648, Note_on_c, 0, 65, 0
1, 17648, Note_on_c, 0, 71, 0
1, 17648, Note_on_c, 0, 56, 0
1, 17665, Tempo, 916170
1, 17705, Tempo, 895656
1, 17745, Tempo, 882483
1, 17760, Note_on_c, 0, 66, 40
1, 17760, Note_on_c, 0, 72, 40
1, 17760, Note_on_c, 0, 57, 33
1, 17760, Note_on_c, 0, 63, 33
1, 17785, Tempo, 863434
1, 17808, Note_on_c, 0, 63, 0
1, 17808, Note_on_c, 0, 66, 0
1, 17808, Note_on_c, 0, 72, 0
1, 17808, Note_on_c, 0, 57, 0
1, 17825, Tempo, 845189
1, 17865, Tempo, 833449
1, 17905, Tempo, 816438
1, 17920, Note_on_c, 0, 68, 37
1, 17920, Note_on_c, 0, 74, 37
1, 17920, Note_on_c, 0, 59, 30
1, 17920, Note_on_c, 0, 65, 30
1, 17945, Tempo, 800107
1, 17968, Note_on_c, 0, 65, 0
1, 17968, Note_on_c, 0, 68, 0
1, 17968, Note_on_c, 0, 74, 0
1, 17968, Note_on_c, 0, 59, 0
1, 17985, Tempo, 789578
1, 18025, Tempo, 774293
1, 18065, Tempo, 759590
1, 18076, Tempo, 759494
1, 18080, Note_on_c, 0, 69, 37
1, 18080, Note_on_c, 0, 75, 37
1, 18080, Note_on_c, 0, 60, 30
1, 18080, Note_on_c, 0, 66, 30
1, 18126, Tempo, 750000
1, 18128, Note_on_c, 0, 66, 0
1, 18128, Note_on_c, 0, 69, 0
1, 18128, Note_on_c, 0, 75, 0
1, 18128, Note_on_c, 0, 60, 0
1, 18151, Tempo, 740741
1, 18189, Tempo, 759494
1, 18240, Tempo, 750000
1, 18240, Note_on_c, 0, 71, 41
1, 18240, Note_on_c, 0, 77, 41
1, 18240, Note_on_c, 0, 62, 34
1, 18240, Note_on_c, 0, 68, 34
1, 18288, Note_on_c, 0, 68, 0
1, 18288, Note_on_c, 0, 71, 0
1, 18288, Note_on_c, 0, 77, 0
1, 18288, Note_on_c, 0, 62, 0
1, 18291, Tempo, 740741
1, 18316, Tempo, 731707
1, 18366, Tempo, 722892
1, 18400, Note_on_c, 0, 72, 37
1, 18400, Note_on_c, 0, 78, 37
1, 18400, Note_on_c, 0, 63, 29
1, 18400, Note_on_c, 0, 69, 29
1, 18417, Tempo, 714286
1, 18448, Note_on_c, 0, 69, 0
1, 18448, Note_on_c, 0, 72, 0
1, 18448, Note_on_c, 0, 78, 0
1, 18448, Note_on_c, 0, 63, 0
1, 18467, Tempo, 705882
1, 18518, Tempo, 697674
1, 18560, Note_on_c, 0, 74, 38
1, 18560, Note_on_c, 0, 80, 38
1, 18560, Note_on_c, 0, 65, 30
1, 18560, Note_on_c, 0, 71, 30
1, 18568, Tempo, 689655
1, 18608, Note_on_c, 0, 71, 0
1, 18608, Note_on_c, 0, 74, 0
1, 18608, Note_on_c, 0, 80, 0
1, 18608, Note_on_c, 0, 65, 0
1, 18619, Tempo, 681818
1, 18669, Tempo, 674157
1, 18720, Tempo, 666667
1, 18720, Note_on_c, 0, 75, 42
1, 18720, Note_on_c, 0, 81, 42
1, 18720, Note_on_c, 0, 66, 35
1, 18720, Note_on_c, 0, 72, 35
1, 18768, Note_on_c, 0, 72, 0
1, 18768, Note_on_c, 0, 75, 0
1, 18768, Note_on_c, 0, 81, 0
1, 18768, Note_on_c, 0, 66, 0
1, 18771, Tempo, 659341
1, 18796, Tempo, 652174
1, 18840, Tempo, 659341
1, 18880, Note_on_c, 0, 77, 40
1, 18880, Note_on_c, 0, 83, 40
1, 18880, Note_on_c, 0, 68, 33
1, 18880, Note_on_c, 0, 74, 33
1, 18920, Tempo, 653951
1, 18928, Note_on_c, 0, 74, 0
1, 18928, Note_on_c, 0, 77, 0
1, 18928, Note_on_c, 0, 83, 0
1, 18928, Note_on_c, 0, 68, 0
1, 19000, Tempo, 648649
1, 19040, Note_on_c, 0, 78, 40
1, 19040, Note_on_c, 0, 84, 40
1, 19040, Note_on_c, 0, 69, 33
1, 19040, Note_on_c, 0, 75, 33
1, 19080, Tempo, 643432
1, 19088, Note_on_c, 0, 75, 0
1, 19088, Note_on_c, 0, 78, 0
1, 19088, Note_on_c, 0, 84, 0
1, 19088, Note_on_c, 0, 69, 0
1, 19160, Tempo, 638298
1, 19200, Note_on_c, 0, 80, 42
1, 19200, Note_on_c, 0, 86, 42
1, 19200, Note_on_c, 0, 71, 38
1, 19200, Note_on_c, 0, 77, 38
1, 19240, Tempo, 633245
1, 19248, Note_on_c, 0, 77, 0
1, 19248, Note_on_c, 0, 80, 0
1, 19248, Note_on_c, 0, 86, 0
1, 19248, Note_on_c, 0, 71, 0
1, 19330, Tempo, 613811
1, 19360, Note_on_c, 0, 81, 44
1, 19360, Note_on_c, 0, 87, 44
1, 19360, Note_on_c, 0, 72, 38
1, 19360, Note_on_c, 0, 78, 38
1, 19408, Note_on_c, 0, 78, 0
1, 19408, Note_on_c, 0, 81, 0
1, 19408, Note_on_c, 0, 87, 0
1, 19408, Note_on_c, 0, 72, 0
1, 19482, Tempo, 609137
1, 19520, Note_on_c, 0, 83, 45
1, 19520, Note_on_c, 0, 89, 45
1, 19520, Note_on_c, 0, 74, 39
1, 19520, Note_on_c, 0, 80, 39
1, 19568, Note_on_c, 0, 80, 0
1, 19568, Note_on_c, 0, 83, 0
1, 19568, Note_on_c, 0, 89, 0
1, 19568, Note_on_c, 0, 74, 0
1, 19633, Tempo, 604534
1, 19680, Note_on_c, 0, 84, 46
1, 19680, Note_on_c, 0, 90, 46
1, 19680, Note_on_c, 0, 75, 39
1, 19680, Note_on_c, 0, 81, 39
1, 19705, Tempo, 582524
1, 19728, Note_on_c, 0, 81, 0
1, 19728, Note_on_c, 0, 84, 0
1, 19728, Note_on_c, 0, 90, 0
1, 19728, Note_on_c, 0, 75, 0
1, 19806, Tempo, 576923
1, 19840, Note_on_c, 0, 86, 47
1, 19840, Note_on_c, 0, 92, 47
1, 19840, Note_on_c, 0, 77, 40
1, 19840, Note_on_c, 0, 83, 40
1, 19882, Tempo, 571429
1, 19888, Note_on_c, 0, 83, 0
1, 19888, Note_on_c, 0, 86, 0
1, 19888, Note_on_c, 0, 92, 0
1, 19888, Note_on_c, 0, 77, 0
1, 19958, Tempo, 566038
1, 20000, Note_on_c, 0, 87, 48
1, 20000, Note_on_c, 0, 93, 48
1, 20000, Note_on_c, 0, 78, 41
1, 20000, Note_on_c, 0, 84, 41
1, 20034, Tempo, 560748
1, 20048, Note_on_c, 0, 84, 0
1, 20048, Note_on_c, 0, 87, 0
1, 20048, Note_on_c, 0, 93, 0
1, 20048, Note_on_c, 0, 78, 0
1, 20135, Tempo, 555556
1, 20160, Note_on_c, 0, 89, 51
1, 20160, Note_on_c, 0, 95, 51
1, 20160, Note_on_c, 0, 80, 42
1, 20160, Note_on_c, 0, 86, 42
1, 20208, Note_on_c, 0, 86, 0
1, 20208, Note_on_c, 0, 89, 0
1, 20208, Note_on_c, 0, 95, 0
1, 20208, Note_on_c, 0, 80, 0
1, 20211, Tempo, 550459
1, 20286, Tempo, 545455
1, 20320, Note_on_c, 0, 90, 53
1, 20320, Note_on_c, 0, 96, 53
1, 20320, Note_on_c, 0, 81, 43
1, 20320, Note_on_c, 0, 87, 43
1, 20362, Tempo, 540541
1, 20368, Note_on_c, 0, 87, 0
1, 20368, Note_on_c, 0, 90, 0
1, 20368, Note_on_c, 0, 96, 0
1, 20368, Note_on_c, 0, 81, 0
1, 20438, Tempo, 535714
1, 20480, Note_on_c, 0, 91, 55
1, 20480, Note_on_c, 0, 97, 55
1, 20480, Note_on_c, 0, 82, 47
1, 20480, Note_on_c, 0, 88, 47
1, 20528, Note_on_c, 0, 88, 0
1, 20528, Note_on_c, 0, 91, 0
1, 20528, Note_on_c, 0, 97, 0
1, 20528, Note_on_c, 0, 82, 0
1, 20564, Tempo, 530973
1, 20640, Note_on_c, 0, 92, 58
1, 20640, Note_on_c, 0, 98, 58
1, 20640, Note_on_c, 0, 83, 48
1, 20640, Note_on_c, 0, 89, 48
1, 20665, Tempo, 526316
1, 20676, Note_on_c, 0, 89, 0
1, 20676, Note_on_c, 0, 92, 0
1, 20676, Note_on_c, 0, 98, 0
1, 20676, Note_on_c, 0, 83, 0
1, 20760, Note_on_c, 0, 93, 61
1, 20760, Note_on_c, 0, 99, 61
1, 20760, Note_on_c, 0, 84, 49
1, 20760, Note_on_c, 0, 90, 49
1, 20766, Tempo, 521739
1, 20796, Note_on_c, 0, 90, 0
1, 20796, Note_on_c, 0, 93, 0
1, 20796, Note_on_c, 0, 99, 0
1, 20796, Note_on_c, 0, 84, 0
1, 20867, Tempo, 517241
1, 20880, Note_on_c, 0, 94, 62
1, 20880, Note_on_c, 0, 100, 62
1, 20880, Note_on_c, 0, 85, 51
1, 20880, Note_on_c, 0, 91, 51
1, 20916, Note_on_c, 0, 91, 0
1, 20916, Note_on_c, 0, 94, 0
1, 20916, Note_on_c, 0, 100, 0
1, 20916, Note_on_c, 0, 85, 0
1, 20968, Tempo, 512821
1, 21000, Note_on_c, 0, 95, 64
1, 21000, Note_on_c, 0, 101, 64
1, 21000, Note_on_c, 0, 86, 52
1, 21000, Note_on_c, 0, 92, 52
1, 21036, Note_on_c, 0, 92, 0
1, 21036, Note_on_c, 0, 95, 0
1, 21036, Note_on_c, 0, 101, 0
1, 21036, Note_on_c, 0, 86, 0
1, 21069, Tempo, 508475
1, 21095, Tempo, 504202
1, 21120, Note_on_c, 0, 102, 67
1, 21120, Note_on_c, 0, 96, 67
1, 21120, Note_on_c, 0, 93, 57
1, 21120, Note_on_c, 0, 87, 57
1, 21156, Note_on_c, 0, 87, 0
1, 21156, Note_on_c, 0, 102, 0
1, 21156, Note_on_c, 0, 96, 0
1, 21156, Note_on_c, 0, 93, 0
1, 21180, Tempo, 676056
1, 22560, Tempo, 752351
1, 22800, Note_on_c, 0, 75, 50
1, 23040, Tempo, 725076
1, 23040, Note_on_c, 0, 69, 40
1, 23040, Note_on_c, 0, 66, 33
1, 23400, Note_on_c, 0, 75, 0
1, 23400, Note_on_c, 0, 77, 46
1, 23460, Note_on_c, 0, 77, 0
1, 23460, Note_on_c, 0, 75, 47
1, 23520, Note_on_c, 0, 75, 0
1, 23520, Note_on_c, 0, 66, 0
1, 23520, Note_on_c, 0, 74, 50
1, 23520, Note_on_c, 0, 65, 38
1, 23760, Tempo, 797342
1, 23760, Note_on_c, 0, 65, 0
1, 23760, Note_on_c, 0, 74, 0
1, 23760, Note_on_c, 0, 72, 41
1, 23760, Note_on_c, 0, 63, 38
1, 23880, Tempo, 895522
1, 23910, Note_on_c, 0, 63, 0
1, 23910, Note_on_c, 0, 72, 0
1, 23910, Note_on_c, 0, 62, 26
1, 23940, Note_on_c, 0, 65, 31
1, 23970, Note_on_c, 0, 72, 30
1, 24000, Tempo, 681818
1, 24000, Note_on_c, 0, 69, 0
1, 24000, Note_on_c, 0, 77, 47
1, 24240, Tempo, 752351
1, 24240, Note_on_c, 0, 77, 0
1, 24240, Note_on_c, 0, 72, 0
1, 24240, Note_on_c, 0, 65, 0
1, 24240, Note_on_c, 0, 62, 0
1, 24240, Note_on_c, 0, 69, 37
1, 24480, Note_on_c, 0, 69, 0
1, 24480, Note_on_c, 0, 70, 37
1, 24720, Note_on_c, 0, 70, 0
1, 24960, Tempo, 699708
1, 25440, Tempo, 718563
1, 25440, Note_on_c, 0, 70, 50
1, 25920, Tempo, 725076
1, 25920, Note_on_c, 0, 64, 40
1, 25920, Note_on_c, 0, 61, 36
1, 26280, Note_on_c, 0, 70, 0
1, 26280, Note_on_c, 0, 72, 46
1, 26340, Note_on_c, 0, 72, 0
1, 26340, Note_on_c, 0, 70, 47
1, 26400, Note_on_c, 0, 70, 0
1, 26400, Note_on_c, 0, 61, 0
1, 26400, Note_on_c, 0, 68, 50
1, 26400, Note_on_c, 0, 60, 38
1, 26640, Tempo, 797342
1, 26640, Note_on_c, 0, 60, 0
1, 26640, Note_on_c, 0, 68, 0
1, 26640, Note_on_c, 0, 67, 41
1, 26640, Note_on_c, 0, 58, 38
1, 26760, Tempo, 895522
1, 26790, Note_on_c, 0, 58, 0
1, 26790, Note_on_c, 0, 67, 0
1, 26790, Note_on_c, 0, 57, 26
1, 26820, Note_on_c, 0, 60, 31
1, 26850, Note_on_c, 0, 67, 30
1, 26880, Tempo, 681818
1, 26880, Note_on_c, 0, 64, 0
1, 26880, Note_on_c, 0, 72, 47
1, 27120, Tempo, 752351
1, 27120, Note_on_c, 0, 72, 0
1, 27120, Note_on_c, 0, 67, 0
1, 27120, Note_on_c, 0, 57, 0
1, 27120, Note_on_c, 0, 64, 37
1, 27360, Note_on_c, 0, 64, 0
1, 27360, Note_on_c, 0, 65, 37
1, 27360, Note_on_c, 0, 56, 30
1, 27600, Note_on_c, 0, 56, 0
1, 27600, Note_on_c, 0, 65, 0
1, 27840, Note_on_c, 0, 60, 0
1, 28320, Tempo, 705882
1, 28320, Note_on_c, 0, 65, 50
1, 28800, Tempo, 725076
1, 28800, Note_on_c, 0, 63, 40
1, 28800, Note_on_c, 0, 59, 36
1, 28800, Note_on_c, 0, 44, 30
1, 28920, Tempo, 718563
1, 29160, Note_on_c, 0, 65, 0
1, 29160, Note_on_c, 0, 67, 46
1, 29220, Note_on_c, 0, 67, 0
1, 29220, Note_on_c, 0, 65, 47
1, 29280, Tempo, 676056
1, 29280, Note_on_c, 0, 65, 0
1, 29280, Note_on_c, 0, 64, 50
1, 29520, Tempo, 725076
1, 29520, Note_on_c, 0, 64, 0
1, 29520, Note_on_c, 0, 65, 41
1, 29640, Tempo, 895522
1, 29670, Note_on_c, 0, 65, 0
1, 29700, Note_on_c, 0, 58, 36
1, 29730, Note_on_c, 0, 65, 41
1, 29760, Tempo, 681818
1, 29760, Note_on_c, 0, 63, 0
1, 29760, Note_on_c, 0, 44, 0
1, 29760, Note_on_c, 0, 59, 0
1, 29760, Note_on_c, 0, 70, 45
1, 29760, Note_on_c, 0, 55, 31
1, 29760, Note_on_c, 0, 46, 26
1, 30000, Tempo, 752351
1, 30000, Note_on_c, 0, 70, 0
1, 30000, Note_on_c, 0, 65, 0
1, 30000, Note_on_c, 0, 62, 37
1, 30240, Note_on_c, 0, 62, 0
1, 30240, Note_on_c, 0, 58, 0
1, 30240, Note_on_c, 0, 63, 37
1, 30480, Note_on_c, 0, 63, 0
1, 30660, Tempo, 895522
1, 30660, Note_on_c, 0, 58, 36
1, 30690, Note_on_c, 0, 63, 35
1, 30720, Tempo, 681818
1, 30720, Note_on_c, 0, 46, 0
1, 30720, Note_on_c, 0, 55, 0
1, 30720, Note_on_c, 0, 71, 45
1, 30720, Note_on_c, 0, 54, 31
1, 30720, Note_on_c, 0, 46, 26
1, 30960, Tempo, 752351
1, 30960, Note_on_c, 0, 71, 0
1, 30960, Note_on_c, 0, 63, 0
1, 30960, Note_on_c, 0, 62, 37
1, 31200, Note_on_c, 0, 62, 0
1, 31200, Note_on_c, 0, 58, 0
1, 31200, Note_on_c, 0, 63, 37
1, 31440, Note_on_c, 0, 63, 0
1, 31560, Tempo, 948617
1, 31620, Note_on_c, 0, 63, 31
1, 31670, Note_on_c, 0, 63, 0
1, 31680, Tempo, 752351
1, 31680, Note_on_c, 0, 46, 0
1, 31680, Note_on_c, 0, 54, 0
1, 31680, Note_on_c, 0, 53, 37
1, 31680, Note_on_c, 0, 56, 37
1, 31680, Note_on_c, 0, 63, 37
1, 31680, Note_on_c, 0, 47, 31
1, 31680, Note_on_c, 0, 34, 26
1, 31920, Note_on_c, 0, 63, 0
1, 31920, Note_on_c, 0, 59, 31
1, 32160, Note_on_c, 0, 59, 0
1, 32160, Note_on_c, 0, 47, 0
1, 32160, Note_on_c, 0, 63, 37
1, 32160, Note_on_c, 0, 46, 31
1, 32400, Note_on_c, 0, 63, 0
1, 32400, Note_on_c, 0, 60, 31
1, 32640, Note_on_c, 0, 60, 0
1, 32640, Note_on_c, 0, 46, 0
1, 32640, Note_on_c, 0, 34, 0
1, 32640, Note_on_c, 0, 56, 0
1, 32640, Note_on_c, 0, 53, 0
1, 32640, Note_on_c, 0, 63, 39
1, 32960, Note_on_c, 0, 63, 0
1, 32960, Note_on_c, 0, 61, 33
1, 33280, Note_on_c, 0, 61, 0
1, 33280, Note_on_c, 0, 63, 33
1, 33600, Tempo, 916031
1, 33600, Note_on_c, 0, 63, 0
1, 33600, Note_on_c, 0, 62, 35
1, 33840, Tempo, 948617
1, 33840, Note_on_c, 0, 62, 0
1, 33840, Note_on_c, 0, 63, 28
1, 33900, Note_on_c, 0, 63, 0
1, 33900, Note_on_c, 0, 62, 28
1, 33960, Note_on_c, 0, 62, 0
1, 33960, Note_on_c, 0, 61, 28
1, 34020, Note_on_c, 0, 61, 0
1, 34020, Note_on_c, 0, 62, 28
1, 34080, Note_on_c, 0, 62, 0
1, 34080, Note_on_c, 0, 58, 32
1, 34110, Note_on_c, 0, 62, 35
1, 34140, Tempo, 2727273
1, 34140, Note_on_c, 0, 67, 38
1, 34380, Tempo, 830450
1, 34440, Note_on_c, 0, 67, 0
1, 34440, Note_on_c, 0, 62, 0
1, 34440, Note_on_c, 0, 58, 0
1, 34440, Note_on_c, 0, 56, 35
1, 34440, Note_on_c, 0, 65, 35
1, 34560, Marker_t, "Sempre moderato a capriccio"
1, 34560, Note_on_c, 0, 65, 0
1, 34560, Note_on_c, 0, 56, 0
1, 34560, Note_on_c, 0, 39, 35
1, 34620, Tempo, 681818
1, 34680, Note_on_c, 0, 39, 0
1, 34980, Note_on_c, 0, 46, 33
1, 35010, Note_on_c, 0, 55, 34
1, 35040, Tempo, 604534
1, 35040, Note_on_c, 0, 63, 35
1, 35100, Note_on_c, 0, 63, 0
1, 35100, Note_on_c, 0, 55, 0
1, 35100, Note_on_c, 0, 46, 0
1, 35940, Note_on_c, 0, 46, 33
1, 35970, Note_on_c, 0, 55, 34
1, 36000, Tempo, 518359
1, 36000, Note_on_c, 0, 63, 36
1, 36060, Note_on_c, 0, 63, 0
1, 36060, Note_on_c, 0, 55, 0
1, 36060, Note_on_c, 0, 46, 0
1, 36480, Note_on_c, 0, 39, 35
1, 36540, Tempo, 699708
1, 36600, Note_on_c, 0, 39, 0
1, 36900, Note_on_c, 0, 46, 33
1, 36930, Note_on_c, 0, 55, 34
1, 36960, Tempo, 604534
1, 36960, Note_on_c, 0, 63, 36
1, 37020, Note_on_c, 0, 63, 0
1, 37020, Note_on_c, 0, 55, 0
1, 37020, Note_on_c, 0, 46, 0
1, 37860, Note_on_c, 0, 46, 35
1, 37890, Note_on_c, 0, 55, 37
1, 37920, Tempo, 558140
1, 37920, Note_on_c, 0, 63, 38
1, 37980, Tempo, 554273
1, 37980, Note_on_c, 0, 63, 0
1, 37980, Note_on_c, 0, 55, 0
1, 37980, Note_on_c, 0, 46, 0
1, 38280, Note_on_c, 0, 58, 60
1, 38400, Tempo, 653951
1, 38400, Note_on_c, 0, 58, 0
1, 38400, Note_on_c, 0, 63, 68
1, 38400, Note_on_c, 0, 39, 38
1, 38457, Control_c, 0, 64, 127
1, 38520, Note_on_c, 0, 39, 0
1, 38820, Note_on_c, 0, 46, 37
1, 38850, Note_on_c, 0, 55, 38
1, 38880, Tempo, 518359
1, 38880, Note_on_c, 0, 63, 39
1, 38923, Control_c, 0, 64, 0
1, 38940, Note_on_c, 0, 63, 0
1, 38940, Note_on_c, 0, 55, 0
1, 38940, Note_on_c, 0, 46, 0
1, 39240, Note_on_c, 0, 63, 0
1, 39240, Note_on_c, 0, 67, 57
1, 39360, Tempo, 578313
1, 39360, Note_on_c, 0, 67, 0
1, 39360, Note_on_c, 0, 68, 57
1, 39420, Note_on_c, 0, 68, 0
1, 39780, Note_on_c, 0, 46, 37
1, 39810, Note_on_c, 0, 55, 38
1, 39840, Tempo, 566038
1, 39840, Note_on_c, 0, 69, 66
1, 39840, Note_on_c, 0, 63, 39
1, 39900, Tempo, 574163
1, 39900, Note_on_c, 0, 63, 0
1, 39900, Note_on_c, 0, 46, 0
1, 39900, Note_on_c, 0, 55, 0
1, 39900, Note_on_c, 0, 69, 0
1, 40320, Tempo, 633245
1, 40320, Note_on_c, 0, 70, 71
1, 40320, Note_on_c, 0, 39, 38
1, 40370, Control_c, 0, 64, 127
1, 40440, Note_on_c, 0, 39, 0
1, 40740, Note_on_c, 0, 46, 36
1, 40770, Note_on_c, 0, 55, 38
1, 40786, Control_c, 0, 64, 0
1, 40800, Tempo, 502092
1, 40800, Note_on_c, 0, 63, 40
1, 40860, Note_on_c, 0, 63, 0
1, 40860, Note_on_c, 0, 55, 0
1, 40860, Note_on_c, 0, 46, 0
1, 41280, Tempo, 600000
1, 41280, Note_on_c, 0, 70, 0
1, 41280, Note_on_c, 0, 75, 68
1, 41340, Note_on_c, 0, 75, 0
1, 41700, Note_on_c, 0, 46, 38
1, 41730, Note_on_c, 0, 55, 39
1, 41760, Tempo, 558140
1, 41760, Note_on_c, 0, 67, 49
1, 41760, Note_on_c, 0, 70, 63
1, 41760, Note_on_c, 0, 63, 41
1, 41820, Note_on_c, 0, 63, 0
1, 41820, Note_on_c, 0, 46, 0
1, 41820, Note_on_c, 0, 55, 0
1, 42120, Note_on_c, 0, 67, 0
1, 42120, Note_on_c, 0, 70, 0
1, 42120, Note_on_c, 0, 65, 46
1, 42120, Note_on_c, 0, 68, 59
1, 42180, Note_on_c, 0, 68, 0
1, 42180, Note_on_c, 0, 65, 0
1, 42180, Note_on_c, 0, 67, 47
1, 42180, Note_on_c, 0, 70, 59
1, 42240, Tempo, 609137
1, 42240, Note_on_c, 0, 70, 0
1, 42240, Note_on_c, 0, 67, 0
1, 42240, Note_on_c, 0, 65, 54
1, 42240, Note_on_c, 0, 68, 69
1, 42240, Note_on_c, 0, 39, 38
1, 42325, Control_c, 0, 64, 127
1, 42360, Note_on_c, 0, 39, 0
1, 42480, Note_on_c, 0, 68, 0
1, 42480, Note_on_c, 0, 65, 0
1, 42630, Note_on_c, 0, 46, 35
1, 42660, Note_on_c, 0, 53, 37
1, 42671, Control_c, 0, 64, 0
1, 42690, Note_on_c, 0, 56, 39
1, 42720, Tempo, 495868
1, 42720, Note_on_c, 0, 62, 40
1, 42780, Note_on_c, 0, 62, 0
1, 42780, Note_on_c, 0, 46, 0
1, 42780, Note_on_c, 0, 53, 0
1, 42780, Note_on_c, 0, 56, 0
1, 42960, Note_on_c, 0, 67, 60
1, 42960, Note_on_c, 0, 64, 50
1, 43200, Tempo, 574163
1, 43200, Note_on_c, 0, 64, 0
1, 43200, Note_on_c, 0, 67, 0
1, 43200, Note_on_c, 0, 68, 66
1, 43200, Note_on_c, 0, 65, 51
1, 43260, Note_on_c, 0, 65, 0
1, 43260, Note_on_c, 0, 68, 0
1, 43620, Note_on_c, 0, 53, 38
1, 43620, Note_on_c, 0, 46, 38
1, 43650, Note_on_c, 0, 56, 39
1, 43680, Tempo, 582524
1, 43680, Note_on_c, 0, 67, 50
1, 43680, Note_on_c, 0, 70, 64
1, 43680, Note_on_c, 0, 62, 40
1, 43740, Note_on_c, 0, 62, 0
1, 43740, Note_on_c, 0, 46, 0
1, 43740, Note_on_c, 0, 56, 0
1, 43740, Note_on_c, 0, 53, 0
1, 43740, Note_on_c, 0, 70, 0
1, 43740, Note_on_c, 0, 67, 0
1, 44160, Tempo, 653951
1, 44160, Note_on_c, 0, 67, 68
1, 44160, Note_on_c, 0, 63, 54
1, 44160, Note_on_c, 0, 39, 38
1, 44160, Control_c, 0, 64, 127
1, 44280, Note_on_c, 0, 39, 0
1, 44580, Note_on_c, 0, 46, 39
1, 44610, Note_on_c, 0, 55, 41
1, 44616, Control_c, 0, 64, 0
1, 44640, Tempo, 554273
1, 44640, Note_on_c, 0, 63, 42
1, 44700, Note_on_c, 0, 63, 0
1, 44700, Note_on_c, 0, 46, 0
1, 44700, Note_on_c, 0, 55, 0
1, 45120, Tempo, 623377
1, 45120, Note_on_c, 0, 63, 0
1, 45120, Note_on_c, 0, 67, 0
1, 45280, Note_on_c, 0, 58, 58
1, 45357, Control_c, 0, 64, 127
1, 45440, Note_on_c, 0, 58, 0
1, 45440, Note_on_c, 0, 59, 50
1, 45540, Note_on_c, 0, 46, 37
1, 45570, Note_on_c, 0, 55, 39
1, 45600, Tempo, 566038
1, 45600, Note_on_c, 0, 59, 0
1, 45600, Note_on_c, 0, 60, 51
1, 45600, Note_on_c, 0, 63, 40
1, 45604, Control_c, 0, 64, 0
1, 45660, Tempo, 574163
1, 45660, Note_on_c, 0, 63, 0
1, 45660, Note_on_c, 0, 46, 0
1, 45660, Note_on_c, 0, 55, 0
1, 45760, Note_on_c, 0, 60, 0
1, 45760, Note_on_c, 0, 61, 55
1, 45777, Control_c, 0, 64, 127
1, 45920, Note_on_c, 0, 61, 0
1, 45920, Note_on_c, 0, 62, 58
1, 46080, Tempo, 653951
1, 46080, Note_on_c, 0, 62, 0
1, 46080, Note_on_c, 0, 63, 68
1, 46080, Note_on_c, 0, 39, 38
1, 46091, Control_c, 0, 64, 0
1, 46184, Control_c, 0, 64, 127
1, 46200, Note_on_c, 0, 39, 0
1, 46500, Note_on_c, 0, 46, 38
1, 46530, Note_on_c, 0, 55, 39
1, 46560, Tempo, 518359
1, 46560, Note_on_c, 0, 63, 41
1, 46567, Control_c, 0, 64, 0
1, 46620, Note_on_c, 0, 63, 0
1, 46620, Note_on_c, 0, 55, 0
1, 46620, Note_on_c, 0, 46, 0
1, 46920, Note_on_c, 0, 63, 0
1, 46920, Note_on_c, 0, 67, 57
1, 47040, Tempo, 578313
1, 47040, Note_on_c, 0, 67, 0
1, 47040, Note_on_c, 0, 68, 57
1, 47100, Note_on_c, 0, 68, 0
1, 47460, Note_on_c, 0, 46, 38
1, 47490, Note_on_c, 0, 55, 40
1, 47520, Tempo, 566038
1, 47520, Note_on_c, 0, 69, 66
1, 47520, Note_on_c, 0, 63, 41
1, 47580, Tempo, 574163
1, 47580, Note_on_c, 0, 63, 0
1, 47580, Note_on_c, 0, 46, 0
1, 47580, Note_on_c, 0, 55, 0
1, 47580, Note_on_c, 0, 69, 0
1, 47880, Note_on_c, 0, 69, 49
1, 47918, Control_c, 0, 64, 127
1, 47920, Note_on_c, 0, 69, 0
1, 47920, Note_on_c, 0, 70, 44
1, 47960, Note_on_c, 0, 70, 0
1, 47960, Note_on_c, 0, 72, 47
1, 48000, Tempo, 633245
1, 48000, Note_on_c, 0, 72, 0
1, 48000, Note_on_c, 0, 70, 54
1, 48000, Note_on_c, 0, 39, 38
1, 48048, Note_on_c, 0, 70, 0
1, 48048, Note_on_c, 0, 72, 49
1, 48096, Note_on_c, 0, 72, 0
1, 48096, Note_on_c, 0, 70, 50
1, 48120, Note_on_c, 0, 39, 0
1, 48144, Note_on_c, 0, 70, 0
1, 48144, Note_on_c, 0, 72, 47
1, 48192, Note_on_c, 0, 72, 0
1, 48192, Note_on_c, 0, 70, 50
1, 48240, Note_on_c, 0, 70, 0
1, 48240, Note_on_c, 0, 72, 47
1, 48288, Note_on_c, 0, 72, 0
1, 48288, Note_on_c, 0, 70, 50
1, 48336, Note_on_c, 0, 70, 0
1, 48336, Note_on_c, 0, 72, 47
1, 48384, Note_on_c, 0, 72, 0
1, 48384, Note_on_c, 0, 70, 50
1, 48420, Note_on_c, 0, 46, 38
1, 48432, Note_on_c, 0, 70, 0
1, 48432, Note_on_c, 0, 72, 45
1, 48450, Note_on_c, 0, 55, 39
1, 48480, Tempo, 502092
1, 48480, Note_on_c, 0, 72, 0
1, 48480, Note_on_c, 0, 70, 50
1, 48480, Note_on_c, 0, 63, 41
1, 48528, Note_on_c, 0, 70, 0
1, 48528, Note_on_c, 0, 72, 46
1, 48540, Note_on_c, 0, 46, 0
1, 48540, Note_on_c, 0, 63, 0
1, 48540, Note_on_c, 0, 55, 0
1, 48576, Note_on_c, 0, 72, 0
1, 48576, Note_on_c, 0, 70, 50
1, 48624, Note_on_c, 0, 70, 0
1, 48624, Note_on_c, 0, 72, 45
1, 48672, Note_on_c, 0, 72, 0
1, 48672, Note_on_c, 0, 70, 50
1, 48720, Note_on_c, 0, 70, 0
1, 48720, Note_on_c, 0, 72, 47
1, 48780, Note_on_c, 0, 72, 0
1, 48780, Note_on_c, 0, 70, 53
1, 48840, Note_on_c, 0, 70, 0
1, 48840, Note_on_c, 0, 69, 50
1, 48900, Note_on_c, 0, 69, 0
1, 48900, Note_on_c, 0, 70, 50
1, 48960, Tempo, 600000
1, 48960, Note_on_c, 0, 70, 0
1, 48960, Note_on_c, 0, 79, 68
1, 48960, Note_on_c, 0, 75, 58
1, 49003, Control_c, 0, 64, 0
1, 49020, Note_on_c, 0, 75, 0
1, 49020, Note_on_c, 0, 79, 0
1, 49380, Note_on_c, 0, 46, 38
1, 49410, Note_on_c, 0, 55, 40
1, 49440, Tempo, 558140
1, 49440, Note_on_c, 0, 63, 42
1, 49500, Note_on_c, 0, 63, 0
1, 49500, Note_on_c, 0, 55, 0
1, 49500, Note_on_c, 0, 46, 0
1, 49680, Note_on_c, 0, 67, 49
1, 49680, Note_on_c, 0, 70, 63
1, 49800, Note_on_c, 0, 70, 0
1, 49800, Note_on_c, 0, 67, 0
1, 49800, Note_on_c, 0, 65, 46
1, 49800, Note_on_c, 0, 68, 59
1, 49860, Note_on_c, 0, 68, 0
1, 49860, Note_on_c, 0, 65, 0
1, 49860, Note_on_c, 0, 67, 47
1, 49860, Note_on_c, 0, 70, 59
1, 49920, Tempo, 609137
1, 49920, Note_on_c, 0, 70, 0
1, 49920, Note_on_c, 0, 67, 0
1, 49920, Note_on_c, 0, 65, 54
1, 49920, Note_on_c, 0, 68, 69
1, 49920, Note_on_c, 0, 39, 38
1, 49977, Control_c, 0, 64, 127
1, 50040, Note_on_c, 0, 39, 0
1, 50160, Note_on_c, 0, 68, 0
1, 50160, Note_on_c, 0, 65, 0
1, 50310, Note_on_c, 0, 46, 37
1, 50340, Note_on_c, 0, 53, 38
1, 50365, Control_c, 0, 64, 0
1, 50370, Note_on_c, 0, 56, 39
1, 50400, Tempo, 495868
1, 50400, Note_on_c, 0, 62, 41
1, 50460, Note_on_c, 0, 62, 0
1, 50460, Note_on_c, 0, 46, 0
1, 50460, Note_on_c, 0, 53, 0
1, 50460, Note_on_c, 0, 56, 0
1, 50640, Note_on_c, 0, 64, 50
1, 50640, Note_on_c, 0, 67, 60
1, 50880, Tempo, 574163
1, 50880, Note_on_c, 0, 67, 0
1, 50880, Note_on_c, 0, 64, 0
1, 50880, Note_on_c, 0, 68, 66
1, 50880, Note_on_c, 0, 65, 51
1, 50940, Note_on_c, 0, 65, 0
1, 50940, Note_on_c, 0, 68, 0
1, 51300, Note_on_c, 0, 46, 36
1, 51330, Note_on_c, 0, 53, 38
1, 51360, Tempo, 582524
1, 51360, Note_on_c, 0, 62, 50
1, 51360, Note_on_c, 0, 70, 64
1, 51360, Note_on_c, 0, 56, 39
1, 51420, Note_on_c, 0, 56, 0
1, 51420, Note_on_c, 0, 62, 0
1, 51420, Note_on_c, 0, 46, 0
1, 51420, Note_on_c, 0, 53, 0
1, 51420, Note_on_c, 0, 70, 0
1, 51840, Tempo, 653951
1, 51840, Note_on_c, 0, 63, 68
1, 51840, Note_on_c, 0, 39, 38
1, 51904, Control_c, 0, 64, 127
1, 51960, Note_on_c, 0, 39, 0
1, 52260, Note_on_c, 0, 46, 35
1, 52290, Note_on_c, 0, 55, 38
1, 52320, Tempo, 554273
1, 52320, Note_on_c, 0, 63, 41
1, 52338, Control_c, 0, 64, 0
1, 52380, Note_on_c, 0, 63, 0
1, 52380, Note_on_c, 0, 55, 0
1, 52380, Note_on_c, 0, 46, 0
1, 52800, Tempo, 623377
1, 52800, Note_on_c, 0, 63, 0
1, 53220, Note_on_c, 0, 46, 34
1, 53250, Note_on_c, 0, 55, 37
1, 53280, Tempo, 566038
1, 53280, Note_on_c, 0, 63, 39
1, 53340, Tempo, 574163
1, 53340, Note_on_c, 0, 63, 0
1, 53340, Note_on_c, 0, 55, 0
1, 53340, Note_on_c, 0, 46, 0
1, 53760, Tempo, 518359
1, 53760, Note_on_c, 0, 39, 38
1, 53820, Tempo, 699708
1, 53880, Note_on_c, 0, 39, 0
1, 54180, Note_on_c, 0, 46, 36
1, 54210, Note_on_c, 0, 55, 39
1, 54240, Tempo, 604534
1, 54240, Note_on_c, 0, 63, 42
1, 54300, Note_on_c, 0, 63, 0
1, 54300, Note_on_c, 0, 55, 0
1, 54300, Note_on_c, 0, 46, 0
1, 55140, Note_on_c, 0, 46, 36
1, 55170, Note_on_c, 0, 55, 38
1, 55200, Tempo, 558140
1, 55200, Note_on_c, 0, 63, 41
1, 55260, Tempo, 554273
1, 55260, Note_on_c, 0, 63, 0
1, 55260, Note_on_c, 0, 55, 0
1, 55260, Note_on_c, 0, 46, 0
1, 55560, Tempo, 554273
1, 55560, Note_on_c, 0, 70, 60
1, 55680, Tempo, 613811
1, 55680, Note_on_c, 0, 70, 0
1, 55680, Note_on_c, 0, 63, 62
1, 55680, Note_on_c, 0, 75, 74
1, 55680, Note_on_c, 0, 39, 48
1, 55754, Control_c, 0, 64, 127
1, 55800, Note_on_c, 0, 39, 0
1, 56100, Note_on_c, 0, 46, 42
1, 56130, Note_on_c, 0, 55, 46
1, 56160, Tempo, 498960
1, 56160, Note_on_c, 0, 63, 48
1, 56220, Note_on_c, 0, 63, 0
1, 56220, Note_on_c, 0, 46, 0
1, 56220, Note_on_c, 0, 55, 0
1, 56520, Note_on_c, 0, 75, 0
1, 56520, Note_on_c, 0, 63, 0
1, 56520, Note_on_c, 0, 67, 52
1, 56520, Note_on_c, 0, 79, 62
1, 56640, Tempo, 558140
1, 56640, Note_on_c, 0, 79, 0
1, 56640, Note_on_c, 0, 67, 0
1, 56640, Note_on_c, 0, 68, 52
1, 56640, Note_on_c, 0, 80, 62
1, 56679, Control_c, 0, 64, 0
1, 56700, Note_on_c, 0, 80, 0
1, 56700, Note_on_c, 0, 68, 0
1, 57060, Note_on_c, 0, 46, 39
1, 57090, Note_on_c, 0, 55, 41
1, 57120, Tempo, 595533
1, 57120, Note_on_c, 0, 69, 56
1, 57120, Note_on_c, 0, 81, 67
1, 57120, Note_on_c, 0, 63, 44
1, 57180, Note_on_c, 0, 63, 0
1, 57180, Note_on_c, 0, 69, 0
1, 57180, Note_on_c, 0, 46, 0
1, 57180, Note_on_c, 0, 55, 0
1, 57180, Note_on_c, 0, 81, 0
1, 57480, Note_on_c, 0, 70, 44
1, 57540, Note_on_c, 0, 70, 0
1, 57540, Note_on_c, 0, 75, 46
1, 57600, Tempo, 550459
1, 57600, Note_on_c, 0, 75, 0
1, 57600, Note_on_c, 0, 82, 53
1, 57600, Note_on_c, 0, 39, 38
1, 57649, Control_c, 0, 64, 127
1, 57669, Note_on_c, 0, 82, 0
1, 57669, Note_on_c, 0, 84, 41
1, 57720, Note_on_c, 0, 39, 0
1, 57737, Note_on_c, 0, 84, 0
1, 57737, Note_on_c, 0, 82, 41
1, 57805, Note_on_c, 0, 81, 41
1, 57806, Note_on_c, 0, 82, 0
1, 57874, Note_on_c, 0, 81, 0
1, 57874, Note_on_c, 0, 82, 41
1, 57942, Note_on_c, 0, 82, 0
1, 57942, Note_on_c, 0, 84, 48
1, 58011, Note_on_c, 0, 84, 0
1, 58011, Note_on_c, 0, 82, 41
1, 58020, Note_on_c, 0, 46, 39
1, 58050, Note_on_c, 0, 55, 42
1, 58079, Note_on_c, 0, 82, 0
1, 58080, Tempo, 502092
1, 58080, Note_on_c, 0, 75, 48
1, 58080, Note_on_c, 0, 63, 46
1, 58140, Note_on_c, 0, 63, 0
1, 58140, Note_on_c, 0, 46, 0
1, 58140, Note_on_c, 0, 55, 0
1, 58160, Note_on_c, 0, 75, 0
1, 58160, Note_on_c, 0, 70, 42
1, 58240, Note_on_c, 0, 70, 0
1, 58240, Note_on_c, 0, 63, 46
1, 58320, Note_on_c, 0, 63, 0
1, 58320, Note_on_c, 0, 70, 52
1, 58400, Note_on_c, 0, 70, 0
1, 58400, Note_on_c, 0, 75, 63
1, 58480, Note_on_c, 0, 75, 0
1, 58480, Note_on_c, 0, 82, 73
1, 58560, Tempo, 586797
1, 58560, Note_on_c, 0, 82, 0
1, 58560, Note_on_c, 0, 87, 81
1, 58585, Control_c, 0, 64, 0
1, 58620, Note_on_c, 0, 87, 0
1, 58980, Note_on_c, 0, 46, 35
1, 59010, Note_on_c, 0, 55, 37
1, 59040, Tempo, 542986
1, 59040, Note_on_c, 0, 63, 38
1, 59100, Note_on_c, 0, 63, 0
1, 59100, Note_on_c, 0, 55, 0
1, 59100, Note_on_c, 0, 46, 0
1, 59280, Note_on_c, 0, 67, 54
1, 59280, Note_on_c, 0, 70, 54
1, 59390, Note_on_c, 0, 70, 0
1, 59390, Note_on_c, 0, 67, 0
1, 59400, Note_on_c, 0, 67, 33
1, 59400, Note_on_c, 0, 70, 40
1, 59406, Control_c, 0, 64, 127
1, 59460, Note_on_c, 0, 70, 0
1, 59460, Note_on_c, 0, 67, 0
1, 59460, Note_on_c, 0, 66, 33
1, 59460, Note_on_c, 0, 69, 40
1, 59520, Tempo, 525164
1, 59520, Note_on_c, 0, 69, 0
1, 59520, Note_on_c, 0, 66, 0
1, 59520, Note_on_c, 0, 65, 39
1, 59520, Note_on_c, 0, 68, 49
1, 59520, Note_on_c, 0, 39, 35
1, 59541, Control_c, 0, 64, 0
1, 59580, Note_on_c, 0, 68, 0
1, 59580, Note_on_c, 0, 65, 0
1, 59640, Note_on_c, 0, 39, 0
1, 59875, Control_c, 0, 64, 127
1, 59880, Note_on_c, 0, 82, 42
1, 59880, Note_on_c, 0, 79, 36
1, 59910, Note_on_c, 0, 46, 31
1, 59940, Note_on_c, 0, 79, 0
1, 59940, Note_on_c, 0, 82, 0
1, 59940, Note_on_c, 0, 81, 43
1, 59940, Note_on_c, 0, 78, 37
1, 59940, Note_on_c, 0, 53, 33
1, 59970, Note_on_c, 0, 56, 34
1, 60000, Tempo, 495868
1, 60000, Note_on_c, 0, 78, 0
1, 60000, Note_on_c, 0, 81, 0
1, 60000, Note_on_c, 0, 77, 44
1, 60000, Note_on_c, 0, 80, 50
1, 60000, Note_on_c, 0, 62, 36
1, 60035, Control_c, 0, 64, 0
1, 60060, Note_on_c, 0, 62, 0
1, 60060, Note_on_c, 0, 53, 0
1, 60060, Note_on_c, 0, 46, 0
1, 60060, Note_on_c, 0, 56, 0
1, 60060, Note_on_c, 0, 80, 0
1, 60060, Note_on_c, 0, 77, 0
1, 60355, Control_c, 0, 64, 127
1, 60360, Note_on_c, 0, 94, 41
1, 60360, Note_on_c, 0, 91, 36
1, 60420, Note_on_c, 0, 91, 0
1, 60420, Note_on_c, 0, 94, 0
1, 60420, Note_on_c, 0, 90, 37
1, 60420, Note_on_c, 0, 93, 41
1, 60480, Tempo, 535714
1, 60480, Note_on_c, 0, 93, 0
1, 60480, Note_on_c, 0, 90, 0
1, 60480, Note_on_c, 0, 92, 48
1, 60480, Note_on_c, 0, 89, 44
1, 60522, Control_c, 0, 64, 0
1, 60540, Note_on_c, 0, 89, 0
1, 60540, Note_on_c, 0, 92, 0
1, 60840, Note_on_c, 0, 64, 36
1, 60840, Note_on_c, 0, 67, 42
1, 60900, Note_on_c, 0, 46, 32
1, 60900, Note_on_c, 0, 53, 32
1, 60930, Note_on_c, 0, 56, 34
1, 60960, Tempo, 550459
1, 60960, Note_on_c, 0, 67, 0
1, 60960, Note_on_c, 0, 64, 0
1, 60960, Note_on_c, 0, 65, 43
1, 60960, Note_on_c, 0, 68, 49
1, 60960, Note_on_c, 0, 62, 36
1, 61020, Note_on_c, 0, 62, 0
1, 61020, Note_on_c, 0, 46, 0
1, 61020, Note_on_c, 0, 53, 0
1, 61020, Note_on_c, 0, 56, 0
1, 61020, Note_on_c, 0, 68, 0
1, 61020, Note_on_c, 0, 65, 0
1, 61200, Tempo, 591133
1, 61200, Note_on_c, 0, 67, 38
1, 61200, Note_on_c, 0, 70, 44
1, 61260, Note_on_c, 0, 70, 0
1, 61260, Note_on_c, 0, 67, 0
1, 61440, Tempo, 653951
1, 61440, Note_on_c, 0, 67, 52
1, 61440, Note_on_c, 0, 63, 44
1, 61440, Note_on_c, 0, 39, 35
1, 61472, Control_c, 0, 64, 127
1, 61560, Note_on_c, 0, 39, 0
1, 61857, Control_c, 0, 64, 0
1, 61860, Note_on_c, 0, 46, 35
1, 61890, Note_on_c, 0, 55, 37
1, 61920, Tempo, 554273
1, 61920, Note_on_c, 0, 63, 39
1, 61980, Note_on_c, 0, 63, 0
1, 61980, Note_on_c, 0, 46, 0
1, 61980, Note_on_c, 0, 55, 0
1, 62400, Tempo, 623377
1, 62400, Note_on_c, 0, 63, 0
1, 62400, Note_on_c, 0, 67, 0
1, 62560, Note_on_c, 0, 70, 52
1, 62560, Note_on_c, 0, 58, 52
1, 62640, Control_c, 0, 64, 127
1, 62720, Note_on_c, 0, 58, 0
1, 62720, Note_on_c, 0, 71, 52
1, 62720, Note_on_c, 0, 59, 52
1, 62740, Note_on_c, 0, 70, 0
1, 62820, Note_on_c, 0, 46, 37
1, 62831, Control_c, 0, 64, 0
1, 62850, Note_on_c, 0, 55, 39
1, 62880, Tempo, 566038
1, 62880, Note_on_c, 0, 59, 0
1, 62880, Note_on_c, 0, 72, 50
1, 62880, Note_on_c, 0, 60, 50
1, 62880, Note_on_c, 0, 63, 41
1, 62900, Note_on_c, 0, 71, 0
1, 62940, Tempo, 574163
1, 62940, Note_on_c, 0, 46, 0
1, 62940, Note_on_c, 0, 55, 0
1, 62940, Note_on_c, 0, 63, 0
1, 63040, Note_on_c, 0, 60, 0
1, 63040, Note_on_c, 0, 73, 56
1, 63040, Note_on_c, 0, 61, 56
1, 63060, Note_on_c, 0, 72, 0
1, 63103, Control_c, 0, 64, 127
1, 63200, Note_on_c, 0, 61, 0
1, 63200, Note_on_c, 0, 74, 60
1, 63200, Note_on_c, 0, 62, 60
1, 63220, Note_on_c, 0, 73, 0
1, 63360, Tempo, 613811
1, 63360, Note_on_c, 0, 62, 0
1, 63360, Note_on_c, 0, 75, 84
1, 63360, Note_on_c, 0, 63, 71
1, 63360, Note_on_c, 0, 39, 53
1, 63380, Note_on_c, 0, 74, 0
1, 63385, Control_c, 0, 64, 0
1, 63456, Control_c, 0, 64, 127
1, 63480, Note_on_c, 0, 39, 0
1, 63780, Note_on_c, 0, 46, 42
1, 63810, Note_on_c, 0, 55, 45
1, 63840, Tempo, 505263
1, 63840, Note_on_c, 0, 63, 48
1, 63900, Note_on_c, 0, 63, 0
1, 63900, Note_on_c, 0, 46, 0
1, 63900, Note_on_c, 0, 55, 0
1, 64200, Note_on_c, 0, 63, 0
1, 64200, Note_on_c, 0, 75, 0
1, 64200, Note_on_c, 0, 79, 66
1, 64200, Note_on_c, 0, 67, 56
1, 64320, Tempo, 558140
1, 64320, Note_on_c, 0, 67, 0
1, 64320, Note_on_c, 0, 79, 0
1, 64320, Note_on_c, 0, 80, 73
1, 64320, Note_on_c, 0, 68, 61
1, 64359, Control_c, 0, 64, 0
1, 64380, Note_on_c, 0, 68, 0
1, 64380, Note_on_c, 0, 80, 0
1, 64740, Note_on_c, 0, 46, 44
1, 64770, Note_on_c, 0, 55, 46
1, 64800, Tempo, 558140
1, 64800, Note_on_c, 0, 81, 78
1, 64800, Note_on_c, 0, 69, 66
1, 64800, Note_on_c, 0, 63, 47
1, 64860, Tempo, 574163
1, 64860, Note_on_c, 0, 63, 0
1, 64860, Note_on_c, 0, 81, 0
1, 64860, Note_on_c, 0, 46, 0
1, 64860, Note_on_c, 0, 55, 0
1, 64860, Note_on_c, 0, 69, 0
1, 65160, Note_on_c, 0, 70, 44
1, 65220, Note_on_c, 0, 70, 0
1, 65220, Note_on_c, 0, 75, 46
1, 65280, Tempo, 539326
1, 65280, Note_on_c, 0, 75, 0
1, 65280, Note_on_c, 0, 82, 60
1, 65280, Note_on_c, 0, 39, 48
1, 65326, Control_c, 0, 64, 127
1, 65349, Note_on_c, 0, 82, 0
1, 65349, Note_on_c, 0, 84, 45
1, 65400, Note_on_c, 0, 39, 0
1, 65417, Note_on_c, 0, 84, 0
1, 65417, Note_on_c, 0, 82, 45
1, 65485, Note_on_c, 0, 81, 45
1, 65486, Note_on_c, 0, 82, 0
1, 65554, Note_on_c, 0, 81, 0
1, 65554, Note_on_c, 0, 82, 45
1, 65622, Note_on_c, 0, 82, 0
1, 65622, Note_on_c, 0, 84, 52
1, 65691, Note_on_c, 0, 84, 0
1, 65691, Note_on_c, 0, 82, 45
1, 65700, Note_on_c, 0, 46, 36
1, 65730, Note_on_c, 0, 55, 38
1, 65759, Note_on_c, 0, 82, 0
1, 65760, Tempo, 502092
1, 65760, Note_on_c, 0, 75, 52
1, 65760, Note_on_c, 0, 63, 40
1, 65820, Note_on_c, 0, 63, 0
1, 65820, Note_on_c, 0, 46, 0
1, 65820, Note_on_c, 0, 55, 0
1, 65830, Note_on_c, 0, 75, 0
1, 65830, Note_on_c, 0, 70, 47
1, 65899, Note_on_c, 0, 70, 0
1, 65899, Note_on_c, 0, 63, 51
1, 65969, Note_on_c, 0, 63, 0
1, 65969, Note_on_c, 0, 70, 58
1, 66039, Note_on_c, 0, 70, 0
1, 66039, Note_on_c, 0, 75, 62
1, 66108, Note_on_c, 0, 75, 0
1, 66108, Note_on_c, 0, 82, 68
1, 66168, Note_on_c, 0, 82, 0
1, 66177, Note_on_c, 0, 82, 74
1, 66240, Tempo, 600000
1, 66240, Note_on_c, 0, 82, 0
1, 66240, Note_on_c, 0, 91, 85
1, 66240, Note_on_c, 0, 87, 75
1, 66265, Control_c, 0, 64, 0
1, 66300, Note_on_c, 0, 87, 0
1, 66300, Note_on_c, 0, 91, 0
1, 66660, Note_on_c, 0, 46, 35
1, 66690, Note_on_c, 0, 55, 37
1, 66720, Tempo, 550459
1, 66720, Note_on_c, 0, 63, 38
1, 66780, Note_on_c, 0, 63, 0
1, 66780, Note_on_c, 0, 55, 0
1, 66780, Note_on_c, 0, 46, 0
1, 66960, Note_on_c, 0, 67, 54
1, 66960, Note_on_c, 0, 70, 54
1, 67070, Note_on_c, 0, 70, 0
1, 67070, Note_on_c, 0, 67, 0
1, 67080, Note_on_c, 0, 67, 33
1, 67080, Note_on_c, 0, 70, 40
1, 67086, Control_c, 0, 64, 127
1, 67140, Note_on_c, 0, 70, 0
1, 67140, Note_on_c, 0, 67, 0
1, 67140, Note_on_c, 0, 66, 33
1, 67140, Note_on_c, 0, 69, 40
1, 67200, Tempo, 532151
1, 67200, Note_on_c, 0, 69, 0
1, 67200, Note_on_c, 0, 66, 0
1, 67200, Note_on_c, 0, 65, 39
1, 67200, Note_on_c, 0, 68, 49
1, 67200, Note_on_c, 0, 39, 35
1, 67252, Control_c, 0, 64, 0
1, 67260, Note_on_c, 0, 68, 0
1, 67260, Note_on_c, 0, 65, 0
1, 67320, Note_on_c, 0, 39, 0
1, 67555, Control_c, 0, 64, 127
1, 67560, Note_on_c, 0, 82, 42
1, 67560, Note_on_c, 0, 79, 36
1, 67590, Note_on_c, 0, 46, 31
1, 67620, Note_on_c, 0, 79, 0
1, 67620, Note_on_c, 0, 82, 0
1, 67620, Note_on_c, 0, 81, 43
1, 67620, Note_on_c, 0, 78, 37
1, 67620, Note_on_c, 0, 53, 33
1, 67650, Note_on_c, 0, 56, 34
1, 67680, Tempo, 495868
1, 67680, Note_on_c, 0, 78, 0
1, 67680, Note_on_c, 0, 81, 0
1, 67680, Note_on_c, 0, 77, 44
1, 67680, Note_on_c, 0, 80, 50
1, 67680, Note_on_c, 0, 62, 36
1, 67715, Control_c, 0, 64, 0
1, 67740, Note_on_c, 0, 62, 0
1, 67740, Note_on_c, 0, 53, 0
1, 67740, Note_on_c, 0, 46, 0
1, 67740, Note_on_c, 0, 56, 0
1, 67740, Note_on_c, 0, 80, 0
1, 67740, Note_on_c, 0, 77, 0
1, 68035, Control_c, 0, 64, 127
1, 68040, Note_on_c, 0, 94, 41
1, 68040, Note_on_c, 0, 91, 36
1, 68100, Note_on_c, 0, 91, 0
1, 68100, Note_on_c, 0, 94, 0
1, 68100, Note_on_c, 0, 90, 37
1, 68100, Note_on_c, 0, 93, 41
1, 68160, Tempo, 535714
1, 68160, Note_on_c, 0, 93, 0
1, 68160, Note_on_c, 0, 90, 0
1, 68160, Note_on_c, 0, 92, 48
1, 68160, Note_on_c, 0, 89, 44
1, 68215, Control_c, 0, 64, 0
1, 68220, Note_on_c, 0, 89, 0
1, 68220, Note_on_c, 0, 92, 0
1, 68520, Note_on_c, 0, 64, 36
1, 68520, Note_on_c, 0, 67, 42
1, 68580, Note_on_c, 0, 46, 32
1, 68580, Note_on_c, 0, 53, 32
1, 68610, Note_on_c, 0, 56, 34
1, 68640, Tempo, 546697
1, 68640, Note_on_c, 0, 67, 0
1, 68640, Note_on_c, 0, 64, 0
1, 68640, Note_on_c, 0, 65, 41
1, 68640, Note_on_c, 0, 68, 49
1, 68640, Note_on_c, 0, 62, 36
1, 68700, Note_on_c, 0, 62, 0
1, 68700, Note_on_c, 0, 46, 0
1, 68700, Note_on_c, 0, 56, 0
1, 68700, Note_on_c, 0, 53, 0
1, 68800, Tempo, 582524
1, 68800, Note_on_c, 0, 65, 0
1, 68800, Note_on_c, 0, 68, 0
1, 68800, Note_on_c, 0, 68, 38
1, 68800, Note_on_c, 0, 72, 44
1, 68960, Tempo, 705882
1, 69040, Note_on_c, 0, 72, 0
1, 69040, Note_on_c, 0, 68, 0
1, 69040, Note_on_c, 0, 67, 38
1, 69040, Note_on_c, 0, 70, 44
1, 69120, Tempo, 653951
1, 69120, Note_on_c, 0, 70, 0
1, 69120, Note_on_c, 0, 67, 0
1, 69120, Note_on_c, 0, 67, 52
1, 69120, Note_on_c, 0, 63, 44
1, 69120, Note_on_c, 0, 39, 35
1, 69177, Control_c, 0, 64, 127
1, 69240, Note_on_c, 0, 39, 0
1, 69540, Note_on_c, 0, 46, 35
1, 69570, Note_on_c, 0, 55, 37
1, 69600, Tempo, 542986
1, 69600, Note_on_c, 0, 63, 0
1, 69600, Note_on_c, 0, 67, 0
1, 69600, Note_on_c, 0, 63, 39
1, 69614, Control_c, 0, 64, 0
1, 69660, Note_on_c, 0, 63, 0
1, 69660, Note_on_c, 0, 46, 0
1, 69660, Note_on_c, 0, 55, 0
1, 70500, Note_on_c, 0, 46, 35
1, 70530, Note_on_c, 0, 55, 37
1, 70560, Tempo, 495868
1, 70560, Note_on_c, 0, 85, 69
1, 70560, Note_on_c, 0, 82, 55
1, 70560, Note_on_c, 0, 63, 39
1, 70620, Note_on_c, 0, 63, 0
1, 70620, Note_on_c, 0, 46, 0
1, 70620, Note_on_c, 0, 55, 0
1, 71040, Tempo, 539326
1, 71040, Note_on_c, 0, 85, 0
1, 71040, Note_on_c, 0, 82, 0
1, 71040, Note_on_c, 0, 84, 58
1, 71040, Note_on_c, 0, 80, 48
1, 71040, Note_on_c, 0, 39, 36
1, 71121, Control_c, 0, 64, 127
1, 71160, Note_on_c, 0, 39, 0
1, 71400, Tempo, 508475
1, 71400, Note_on_c, 0, 80, 0
1, 71400, Note_on_c, 0, 84, 0
1, 71400, Note_on_c, 0, 86, 43
1, 71460, Note_on_c, 0, 86, 0
1, 71460, Note_on_c, 0, 84, 49
1, 71460, Note_on_c, 0, 48, 36
1, 71490, Note_on_c, 0, 56, 38
1, 71492, Control_c, 0, 64, 0
1, 71520, Tempo, 518359
1, 71520, Note_on_c, 0, 84, 0
1, 71520, Note_on_c, 0, 82, 54
1, 71520, Note_on_c, 0, 79, 46
1, 71520, Note_on_c, 0, 63, 40
1, 71580, Note_on_c, 0, 63, 0
1, 71580, Note_on_c, 0, 82, 0
1, 71580, Note_on_c, 0, 48, 0
1, 71580, Note_on_c, 0, 56, 0
1, 71580, Note_on_c, 0, 79, 0
1, 71760, Note_on_c, 0, 80, 49
1, 71760, Note_on_c, 0, 77, 40
1, 71820, Note_on_c, 0, 77, 0
1, 71820, Note_on_c, 0, 80, 0
1, 72000, Tempo, 525164
1, 72000, Note_on_c, 0, 79, 51
1, 72000, Note_on_c, 0, 75, 43
1, 72060, Note_on_c, 0, 75, 0
1, 72060, Note_on_c, 0, 79, 0
1, 72240, Note_on_c, 0, 77, 46
1, 72240, Note_on_c, 0, 70, 38
1, 72300, Note_on_c, 0, 70, 0
1, 72300, Note_on_c, 0, 77, 0
1, 72420, Note_on_c, 0, 51, 35
1, 72450, Note_on_c, 0, 58, 37
1, 72480, Tempo, 542986
1, 72480, Note_on_c, 0, 75, 54
1, 72480, Note_on_c, 0, 67, 46
1, 72480, Note_on_c, 0, 63, 39
1, 72540, Note_on_c, 0, 63, 0
1, 72540, Note_on_c, 0, 75, 0
1, 72540, Note_on_c, 0, 51, 0
1, 72540, Note_on_c, 0, 58, 0
1, 72540, Note_on_c, 0, 67, 0
1, 72840, Tempo, 582524
1, 72840, Note_on_c, 0, 67, 48
1, 72840, Note_on_c, 0, 63, 40
1, 72960, Tempo, 532151
1, 72960, Note_on_c, 0, 63, 0
1, 72960, Note_on_c, 0, 67, 0
1, 72960, Note_on_c, 0, 68, 61
1, 72960, Note_on_c, 0, 65, 52
1, 72960, Note_on_c, 0, 39, 36
1, 73003, Control_c, 0, 64, 127
1, 73080, Note_on_c, 0, 39, 0
1, 73200, Note_on_c, 0, 65, 0
1, 73200, Note_on_c, 0, 68, 0
1, 73200, Note_on_c, 0, 70, 45
1, 73260, Note_on_c, 0, 70, 0
1, 73260, Note_on_c, 0, 68, 45
1, 73320, Note_on_c, 0, 68, 0
1, 73320, Note_on_c, 0, 67, 51
1, 73320, Note_on_c, 0, 64, 43
1, 73350, Note_on_c, 0, 46, 36
1, 73380, Note_on_c, 0, 53, 38
1, 73410, Note_on_c, 0, 56, 38
1, 73420, Control_c, 0, 64, 0
1, 73440, Tempo, 515021
1, 73440, Note_on_c, 0, 64, 0
1, 73440, Note_on_c, 0, 67, 0
1, 73440, Note_on_c, 0, 68, 56
1, 73440, Note_on_c, 0, 65, 47
1, 73440, Note_on_c, 0, 62, 40
1, 73500, Note_on_c, 0, 62, 0
1, 73500, Note_on_c, 0, 46, 0
1, 73500, Note_on_c, 0, 53, 0
1, 73500, Note_on_c, 0, 56, 0
1, 73500, Note_on_c, 0, 65, 0
1, 73500, Note_on_c, 0, 68, 0
1, 73680, Tempo, 546697
1, 73680, Note_on_c, 0, 69, 54
1, 73680, Note_on_c, 0, 66, 46
1, 73740, Note_on_c, 0, 66, 0
1, 73740, Note_on_c, 0, 69, 0
1, 73920, Tempo, 562061
1, 73920, Note_on_c, 0, 70, 59
1, 73920, Note_on_c, 0, 67, 50
1, 74160, Note_on_c, 0, 67, 0
1, 74160, Note_on_c, 0, 70, 0
1, 74340, Note_on_c, 0, 51, 35
1, 74370, Note_on_c, 0, 55, 37
1, 74400, Tempo, 495868
1, 74400, Note_on_c, 0, 85, 69
1, 74400, Note_on_c, 0, 82, 55
1, 74400, Note_on_c, 0, 63, 39
1, 74460, Note_on_c, 0, 63, 0
1, 74460, Note_on_c, 0, 51, 0
1, 74460, Note_on_c, 0, 55, 0
1, 74880, Tempo, 539326
1, 74880, Note_on_c, 0, 85, 0
1, 74880, Note_on_c, 0, 82, 0
1, 74880, Note_on_c, 0, 84, 58
1, 74880, Note_on_c, 0, 80, 48
1, 74880, Note_on_c, 0, 39, 36
1, 74961, Control_c, 0, 64, 127
1, 75000, Note_on_c, 0, 39, 0
1, 75240, Tempo, 508475
1, 75240, Note_on_c, 0, 80, 0
1, 75240, Note_on_c, 0, 84, 0
1, 75240, Note_on_c, 0, 86, 43
1, 75300, Note_on_c, 0, 86, 0
1, 75300, Note_on_c, 0, 84, 49
1, 75300, Note_on_c, 0, 48, 36
1, 75330, Note_on_c, 0, 56, 38
1, 75346, Control_c, 0, 64, 0
1, 75360, Tempo, 498960
1, 75360, Note_on_c, 0, 84, 0
1, 75360, Note_on_c, 0, 82, 54
1, 75360, Note_on_c, 0, 79, 46
1, 75360, Note_on_c, 0, 63, 40
1, 75420, Note_on_c, 0, 63, 0
1, 75420, Note_on_c, 0, 82, 0
1, 75420, Note_on_c, 0, 48, 0
1, 75420, Note_on_c, 0, 56, 0
1, 75420, Note_on_c, 0, 79, 0
1, 75600, Note_on_c, 0, 80, 49
1, 75600, Note_on_c, 0, 77, 40
1, 75660, Note_on_c, 0, 77, 0
1, 75660, Note_on_c, 0, 80, 0
1, 75840, Tempo, 525164
1, 75840, Note_on_c, 0, 79, 51
1, 75840, Note_on_c, 0, 75, 43
1, 75900, Note_on_c, 0, 75, 0
1, 75900, Note_on_c, 0, 79, 0
1, 76080, Note_on_c, 0, 77, 46
1, 76080, Note_on_c, 0, 70, 38
1, 76140, Note_on_c, 0, 70, 0
1, 76140, Note_on_c, 0, 77, 0
1, 76260, Note_on_c, 0, 51, 35
1, 76290, Note_on_c, 0, 58, 37
1, 76320, Tempo, 542986
1, 76320, Note_on_c, 0, 75, 54
1, 76320, Note_on_c, 0, 67, 46
1, 76320, Note_on_c, 0, 63, 39
1, 76380, Note_on_c, 0, 63, 0
1, 76380, Note_on_c, 0, 75, 0
1, 76380, Note_on_c, 0, 51, 0
1, 76380, Note_on_c, 0, 58, 0
1, 76380, Note_on_c, 0, 67, 0
1, 76680, Tempo, 582524
1, 76680, Note_on_c, 0, 67, 48
1, 76680, Note_on_c, 0, 63, 40
1, 76800, Tempo, 532151
1, 76800, Note_on_c, 0, 63, 0
1, 76800, Note_on_c, 0, 67, 0
1, 76800, Note_on_c, 0, 68, 61
1, 76800, Note_on_c, 0, 65, 52
1, 76800, Note_on_c, 0, 39, 36
1, 76881, Control_c, 0, 64, 127
1, 76920, Note_on_c, 0, 39, 0
1, 77040, Note_on_c, 0, 65, 0
1, 77040, Note_on_c, 0, 68, 0
1, 77040, Note_on_c, 0, 70, 45
1, 77100, Note_on_c, 0, 70, 0
1, 77100, Note_on_c, 0, 68, 45
1, 77160, Note_on_c, 0, 68, 0
1, 77160, Note_on_c, 0, 67, 51
1, 77160, Note_on_c, 0, 64, 43
1, 77190, Note_on_c, 0, 46, 36
1, 77220, Note_on_c, 0, 53, 38
1, 77250, Note_on_c, 0, 56, 38
1, 77280, Tempo, 515021
1, 77280, Note_on_c, 0, 64, 0
1, 77280, Note_on_c, 0, 67, 0
1, 77280, Note_on_c, 0, 68, 56
1, 77280, Note_on_c, 0, 65, 47
1, 77280, Note_on_c, 0, 62, 40
1, 77287, Control_c, 0, 64, 0
1, 77340, Note_on_c, 0, 62, 0
1, 77340, Note_on_c, 0, 46, 0
1, 77340, Note_on_c, 0, 53, 0
1, 77340, Note_on_c, 0, 56, 0
1, 77340, Note_on_c, 0, 65, 0
1, 77340, Note_on_c, 0, 68, 0
1, 77520, Tempo, 546697
1, 77520, Note_on_c, 0, 70, 54
1, 77520, Note_on_c, 0, 62, 46
1, 77580, Note_on_c, 0, 62, 0
1, 77580, Note_on_c, 0, 70, 0
1, 77760, Tempo, 562061
1, 77760, Note_on_c, 0, 63, 59
1, 78000, Note_on_c, 0, 63, 0
1, 78180, Note_on_c, 0, 51, 35
1, 78210, Note_on_c, 0, 55, 37
1, 78240, Tempo, 539326
1, 78240, Note_on_c, 0, 82, 63
1, 78240, Note_on_c, 0, 63, 39
1, 78270, Note_on_c, 0, 87, 67
1, 78300, Note_on_c, 0, 63, 0
1, 78300, Note_on_c, 0, 55, 0
1, 78300, Note_on_c, 0, 51, 0
1, 78300, Note_on_c, 0, 97, 71
1, 78660, Note_on_c, 0, 97, 0
1, 78660, Note_on_c, 0, 82, 0
1, 78660, Note_on_c, 0, 87, 0
1, 78660, Note_on_c, 0, 80, 64
1, 78690, Note_on_c, 0, 87, 66
1, 78720, Tempo, 539326
1, 78720, Note_on_c, 0, 96, 69
1, 78720, Note_on_c, 0, 39, 36
1, 78770, Control_c, 0, 64, 127
1, 78840, Note_on_c, 0, 39, 0
1, 79080, Tempo, 508475
1, 79080, Note_on_c, 0, 80, 0
1, 79080, Note_on_c, 0, 87, 0
1, 79080, Note_on_c, 0, 96, 0
1, 79080, Note_on_c, 0, 94, 40
1, 79080, Note_on_c, 0, 98, 48
1, 79140, Note_on_c, 0, 98, 0
1, 79140, Note_on_c, 0, 94, 0
1, 79140, Note_on_c, 0, 92, 42
1, 79140, Note_on_c, 0, 96, 55
1, 79140, Note_on_c, 0, 48, 36
1, 79170, Note_on_c, 0, 56, 38
1, 79200, Tempo, 498960
1, 79200, Note_on_c, 0, 96, 0
1, 79200, Note_on_c, 0, 92, 0
1, 79200, Note_on_c, 0, 94, 61
1, 79200, Note_on_c, 0, 91, 61
1, 79200, Note_on_c, 0, 63, 40
1, 79228, Control_c, 0, 64, 0
1, 79260, Note_on_c, 0, 63, 0
1, 79260, Note_on_c, 0, 56, 0
1, 79260, Note_on_c, 0, 48, 0
1, 79320, Note_on_c, 0, 94, 0
1, 79320, Note_on_c, 0, 91, 0
1, 79440, Note_on_c, 0, 92, 51
1, 79440, Note_on_c, 0, 89, 51
1, 79500, Note_on_c, 0, 89, 0
1, 79500, Note_on_c, 0, 92, 0
1, 79680, Tempo, 525164
1, 79680, Note_on_c, 0, 91, 56
1, 79680, Note_on_c, 0, 87, 56
1, 79740, Note_on_c, 0, 87, 0
1, 79740, Note_on_c, 0, 91, 0
1, 79920, Note_on_c, 0, 89, 49
1, 79920, Note_on_c, 0, 82, 49
1, 79980, Note_on_c, 0, 82, 0
1, 79980, Note_on_c, 0, 89, 0
1, 80100, Note_on_c, 0, 51, 35
1, 80130, Note_on_c, 0, 58, 37
1, 80160, Tempo, 542986
1, 80160, Note_on_c, 0, 87, 55
1, 80160, Note_on_c, 0, 79, 55
1, 80160, Note_on_c, 0, 63, 39
1, 80220, Note_on_c, 0, 63, 0
1, 80220, Note_on_c, 0, 87, 0
1, 80220, Note_on_c, 0, 51, 0
1, 80220, Note_on_c, 0, 58, 0
1, 80220, Note_on_c, 0, 79, 0
1, 80520, Tempo, 582524
1, 80580, Note_on_c, 0, 63, 40
1, 80580, Note_on_c, 0, 67, 48
1, 80640, Tempo, 532151
1, 80640, Note_on_c, 0, 67, 0
1, 80640, Note_on_c, 0, 63, 0
1, 80640, Note_on_c, 0, 68, 61
1, 80640, Note_on_c, 0, 65, 52
1, 80640, Note_on_c, 0, 39, 36
1, 80695, Control_c, 0, 64, 127
1, 80760, Note_on_c, 0, 39, 0
1, 80880, Note_on_c, 0, 65, 0
1, 80880, Note_on_c, 0, 68, 0
1, 80880, Note_on_c, 0, 70, 45
1, 80940, Note_on_c, 0, 70, 0
1, 80940, Note_on_c, 0, 68, 45
1, 81000, Note_on_c, 0, 68, 0
1, 81000, Note_on_c, 0, 67, 51
1, 81000, Note_on_c, 0, 64, 43
1, 81030, Note_on_c, 0, 46, 36
1, 81060, Note_on_c, 0, 53, 38
1, 81090, Note_on_c, 0, 56, 38
1, 81109, Control_c, 0, 64, 0
1, 81120, Tempo, 515021
1, 81120, Note_on_c, 0, 64, 0
1, 81120, Note_on_c, 0, 67, 0
1, 81120, Note_on_c, 0, 68, 56
1, 81120, Note_on_c, 0, 65, 47
1, 81120, Note_on_c, 0, 62, 40
1, 81180, Note_on_c, 0, 62, 0
1, 81180, Note_on_c, 0, 46, 0
1, 81180, Note_on_c, 0, 53, 0
1, 81180, Note_on_c, 0, 56, 0
1, 81180, Note_on_c, 0, 65, 0
1, 81180, Note_on_c, 0, 68, 0
1, 81360, Tempo, 546697
1, 81360, Note_on_c, 0, 69, 54
1, 81360, Note_on_c, 0, 66, 46
1, 81420, Note_on_c, 0, 66, 0
1, 81420, Note_on_c, 0, 69, 0
1, 81600, Tempo, 562061
1, 81600, Note_on_c, 0, 70, 59
1, 81600, Note_on_c, 0, 67, 50
1, 81840, Note_on_c, 0, 67, 0
1, 81840, Note_on_c, 0, 70, 0
1, 82020, Note_on_c, 0, 51, 35
1, 82050, Note_on_c, 0, 55, 37
1, 82080, Tempo, 542986
1, 82080, Note_on_c, 0, 82, 61
1, 82080, Note_on_c, 0, 63, 39
1, 82110, Note_on_c, 0, 87, 65
1, 82140, Note_on_c, 0, 63, 0
1, 82140, Note_on_c, 0, 55, 0
1, 82140, Note_on_c, 0, 51, 0
1, 82140, Note_on_c, 0, 97, 68
1, 82440, Note_on_c, 0, 82, 0
1, 82500, Note_on_c, 0, 97, 0
1, 82500, Note_on_c, 0, 87, 0
1, 82500, Note_on_c, 0, 80, 61
1, 82530, Note_on_c, 0, 87, 64
1, 82560, Tempo, 539326
1, 82560, Note_on_c, 0, 96, 67
1, 82560, Note_on_c, 0, 39, 36
1, 82613, Control_c, 0, 64, 127
1, 82680, Note_on_c, 0, 39, 0
1, 82920, Tempo, 508475
1, 82920, Note_on_c, 0, 80, 0
1, 82920, Note_on_c, 0, 87, 0
1, 82920, Note_on_c, 0, 96, 0
1, 82920, Note_on_c, 0, 94, 31
1, 82920, Note_on_c, 0, 98, 51
1, 82980, Note_on_c, 0, 98, 0
1, 82980, Note_on_c, 0, 94, 0
1, 82980, Note_on_c, 0, 92, 42
1, 82980, Note_on_c, 0, 96, 55
1, 82980, Note_on_c, 0, 48, 36
1, 83010, Note_on_c, 0, 56, 38
1, 83040, Tempo, 498960
1, 83040, Note_on_c, 0, 96, 0
1, 83040, Note_on_c, 0, 92, 0
1, 83040, Note_on_c, 0, 94, 60
1, 83040, Note_on_c, 0, 91, 60
1, 83040, Note_on_c, 0, 63, 40
1, 83068, Control_c, 0, 64, 0
1, 83100, Note_on_c, 0, 63, 0
1, 83100, Note_on_c, 0, 56, 0
1, 83100, Note_on_c, 0, 48, 0
1, 83160, Note_on_c, 0, 94, 0
1, 83160, Note_on_c, 0, 91, 0
1, 83280, Note_on_c, 0, 92, 54
1, 83280, Note_on_c, 0, 89, 54
1, 83340, Note_on_c, 0, 89, 0
1, 83340, Note_on_c, 0, 92, 0
1, 83520, Tempo, 525164
1, 83520, Note_on_c, 0, 91, 58
1, 83520, Note_on_c, 0, 87, 58
1, 83580, Note_on_c, 0, 87, 0
1, 83580, Note_on_c, 0, 91, 0
1, 83760, Note_on_c, 0, 89, 54
1, 83760, Note_on_c, 0, 82, 54
1, 83820, Note_on_c, 0, 82, 0
1, 83820, Note_on_c, 0, 89, 0
1, 83940, Note_on_c, 0, 51, 35
1, 83970, Note_on_c, 0, 58, 37
1, 84000, Tempo, 560748
1, 84000, Note_on_c, 0, 87, 63
1, 84000, Note_on_c, 0, 79, 63
1, 84000, Note_on_c, 0, 63, 39
1, 84060, Note_on_c, 0, 63, 0
1, 84060, Note_on_c, 0, 87, 0
1, 84060, Note_on_c, 0, 51, 0
1, 84060, Note_on_c, 0, 58, 0
1, 84060, Note_on_c, 0, 79, 0
1, 84360, Tempo, 582524
1, 84360, Note_on_c, 0, 67, 48
1, 84360, Note_on_c, 0, 63, 40
1, 84480, Tempo, 571429
1, 84480, Note_on_c, 0, 63, 0
1, 84480, Note_on_c, 0, 67, 0
1, 84480, Note_on_c, 0, 68, 61
1, 84480, Note_on_c, 0, 65, 52
1, 84480, Note_on_c, 0, 39, 36
1, 84533, Control_c, 0, 64, 127
1, 84600, Note_on_c, 0, 39, 0
1, 84870, Note_on_c, 0, 46, 36
1, 84900, Note_on_c, 0, 53, 38
1, 84930, Note_on_c, 0, 56, 38
1, 84946, Control_c, 0, 64, 0
1, 84960, Tempo, 545455
1, 84960, Note_on_c, 0, 62, 40
1, 85020, Note_on_c, 0, 62, 0
1, 85020, Note_on_c, 0, 53, 0
1, 85020, Note_on_c, 0, 46, 0
1, 85020, Note_on_c, 0, 56, 0
1, 85200, Tempo, 625000
1, 85200, Note_on_c, 0, 68, 0
1, 85200, Note_on_c, 0, 65, 0
1, 85200, Note_on_c, 0, 64, 43
1, 85200, Note_on_c, 0, 67, 51
1, 85440, Tempo, 659341
1, 85440, Note_on_c, 0, 64, 0
1, 85440, Note_on_c, 0, 65, 47
1, 85440, Note_on_c, 0, 68, 56
1, 85449, Note_on_c, 0, 67, 0
1, 85500, Note_on_c, 0, 68, 0
1, 85500, Note_on_c, 0, 65, 0
1, 85920, Tempo, 740741
1, 85920, Note_on_c, 0, 62, 46
1, 85920, Note_on_c, 0, 70, 54
1, 85980, Note_on_c, 0, 70, 0
1, 85980, Note_on_c, 0, 62, 0
1, 86280, Tempo, 625000
1, 86340, Note_on_c, 0, 34, 61
1, 86400, Tempo, 595533
1, 86400, Note_on_c, 0, 34, 0
1, 86400, Note_on_c, 0, 39, 68
1, 86790, Note_on_c, 0, 58, 40
1, 86820, Note_on_c, 0, 63, 42
1, 86850, Note_on_c, 0, 67, 44
1, 86880, Tempo, 539326
1, 86880, Note_on_c, 0, 70, 46
1, 86940, Note_on_c, 0, 70, 0
1, 86940, Note_on_c, 0, 63, 0
1, 86940, Note_on_c, 0, 67, 0
1, 86940, Note_on_c, 0, 58, 0
1, 87040, Note_on_c, 0, 39, 0
1, 87040, Note_on_c, 0, 43, 64
1, 87120, Note_on_c, 0, 43, 0
1, 87200, Note_on_c, 0, 44, 64
1, 87280, Note_on_c, 0, 44, 0
1, 87360, Tempo, 562061
1, 87360, Note_on_c, 0, 45, 68
1, 87440, Note_on_c, 0, 45, 0
1, 87520, Note_on_c, 0, 46, 64
1, 87600, Note_on_c, 0, 46, 0
1, 87680, Note_on_c, 0, 51, 64
1, 87750, Note_on_c, 0, 67, 40
1, 87760, Note_on_c, 0, 51, 0
1, 87780, Note_on_c, 0, 70, 42
1, 87810, Note_on_c, 0, 75, 44
1, 87840, Tempo, 546697
1, 87840, Note_on_c, 0, 79, 46
1, 87840, Note_on_c, 0, 55, 68
1, 87900, Note_on_c, 0, 79, 0
1, 87900, Note_on_c, 0, 75, 0
1, 87900, Note_on_c, 0, 67, 0
1, 87900, Note_on_c, 0, 70, 0
1, 87920, Note_on_c, 0, 55, 0
1, 88000, Note_on_c, 0, 56, 64
1, 88080, Note_on_c, 0, 56, 0
1, 88160, Note_on_c, 0, 57, 64
1, 88190, Note_on_c, 0, 57, 0
1, 88200, Note_on_c, 0, 57, 56
1, 88240, Note_on_c, 0, 57, 0
1, 88240, Note_on_c, 0, 58, 50
1, 88280, Note_on_c, 0, 58, 0
1, 88280, Note_on_c, 0, 60, 46
1, 88311, Tempo, 562061
1, 88320, Note_on_c, 0, 60, 0
1, 88320, Note_on_c, 0, 58, 58
1, 88368, Note_on_c, 0, 58, 0
1, 88368, Note_on_c, 0, 60, 50
1, 88375, Control_c, 0, 64, 127
1, 88387, Tempo, 558140
1, 88416, Note_on_c, 0, 60, 0
1, 88416, Note_on_c, 0, 58, 57
1, 88462, Tempo, 554273
1, 88464, Note_on_c, 0, 58, 0
1, 88464, Note_on_c, 0, 60, 50
1, 88512, Note_on_c, 0, 60, 0
1, 88512, Note_on_c, 0, 58, 56
1, 88538, Tempo, 550459
1, 88560, Note_on_c, 0, 58, 0
1, 88560, Note_on_c, 0, 60, 49
1, 88608, Note_on_c, 0, 60, 0
1, 88608, Note_on_c, 0, 58, 55
1, 88614, Tempo, 546697
1, 88656, Note_on_c, 0, 58, 0
1, 88656, Note_on_c, 0, 60, 50
1, 88690, Tempo, 542986
1, 88704, Note_on_c, 0, 60, 0
1, 88704, Note_on_c, 0, 58, 56
1, 88710, Note_on_c, 0, 79, 42
1, 88740, Note_on_c, 0, 82, 44
1, 88752, Note_on_c, 0, 58, 0
1, 88752, Note_on_c, 0, 60, 48
1, 88766, Tempo, 539326
1, 88770, Note_on_c, 0, 87, 45
1, 88800, Tempo, 502092
1, 88800, Note_on_c, 0, 60, 0
1, 88800, Note_on_c, 0, 91, 47
1, 88800, Note_on_c, 0, 58, 55
1, 88848, Note_on_c, 0, 58, 0
1, 88848, Note_on_c, 0, 60, 50
1, 88860, Note_on_c, 0, 79, 0
1, 88860, Note_on_c, 0, 91, 0
1, 88860, Note_on_c, 0, 87, 0
1, 88860, Note_on_c, 0, 82, 0
1, 88896, Note_on_c, 0, 60, 0
1, 88896, Note_on_c, 0, 58, 58
1, 88944, Note_on_c, 0, 58, 0
1, 88944, Note_on_c, 0, 60, 51
1, 88992, Note_on_c, 0, 60, 0
1, 88992, Note_on_c, 0, 58, 60
1, 89040, Note_on_c, 0, 58, 0
1, 89040, Note_on_c, 0, 60, 56
1, 89100, Note_on_c, 0, 60, 0
1, 89100, Note_on_c, 0, 58, 63
1, 89160, Note_on_c, 0, 58, 0
1, 89160, Note_on_c, 0, 57, 60
1, 89220, Note_on_c, 0, 57, 0
1, 89220, Note_on_c, 0, 58, 60
1, 89280, Tempo, 562061
1, 89280, Note_on_c, 0, 58, 0
1, 89280, Note_on_c, 0, 63, 74
1, 89300, Control_c, 0, 64, 0
1, 89400, Note_on_c, 0, 63, 0
1, 89700, Note_on_c, 0, 46, 52
1, 89730, Note_on_c, 0, 55, 56
1, 89760, Note_on_c, 0, 63, 58
1, 89820, Note_on_c, 0, 63, 0
1, 89820, Note_on_c, 0, 55, 0
1, 89820, Note_on_c, 0, 46, 0
1, 90120, Note_on_c, 0, 70, 40
1, 90120, Note_on_c, 0, 67, 34
1, 90240, Tempo, 546697
1, 90240, Note_on_c, 0, 67, 0
1, 90240, Note_on_c, 0, 70, 0
1, 90240, Note_on_c, 0, 68, 45
1, 90240, Note_on_c, 0, 65, 38
1, 90240, Note_on_c, 0, 39, 35
1, 90280, Control_c, 0, 64, 127
1, 90360, Note_on_c, 0, 39, 0
1, 90360, Note_on_c, 0, 65, 0
1, 90360, Note_on_c, 0, 68, 0
1, 90360, Note_on_c, 0, 75, 40
1, 90360, Note_on_c, 0, 72, 34
1, 90480, Note_on_c, 0, 72, 0
1, 90480, Note_on_c, 0, 75, 0
1, 90480, Note_on_c, 0, 74, 45
1, 90480, Note_on_c, 0, 70, 38
1, 90600, Note_on_c, 0, 70, 0
1, 90600, Note_on_c, 0, 74, 0
1, 90600, Note_on_c, 0, 79, 41
1, 90600, Note_on_c, 0, 75, 34
1, 90630, Note_on_c, 0, 46, 31
1, 90660, Note_on_c, 0, 53, 33
1, 90690, Note_on_c, 0, 56, 34
1, 90720, Tempo, 495868
1, 90720, Note_on_c, 0, 75, 0
1, 90720, Note_on_c, 0, 79, 0
1, 90720, Note_on_c, 0, 77, 48
1, 90720, Note_on_c, 0, 74, 40
1, 90720, Note_on_c, 0, 62, 36
1, 90780, Note_on_c, 0, 62, 0
1, 90780, Note_on_c, 0, 46, 0
1, 90780, Note_on_c, 0, 56, 0
1, 90780, Note_on_c, 0, 53, 0
1, 90840, Note_on_c, 0, 77, 0
1, 90840, Note_on_c, 0, 74, 0
1, 90840, Note_on_c, 0, 84, 43
1, 90840, Note_on_c, 0, 80, 36
1, 90960, Tempo, 528634
1, 90960, Note_on_c, 0, 80, 0
1, 90960, Note_on_c, 0, 84, 0
1, 90960, Note_on_c, 0, 82, 43
1, 90960, Note_on_c, 0, 79, 36
1, 91080, Note_on_c, 0, 79, 0
1, 91080, Note_on_c, 0, 82, 0
1, 91080, Note_on_c, 0, 80, 43
1, 91080, Note_on_c, 0, 77, 36
1, 91200, Tempo, 535714
1, 91200, Note_on_c, 0, 77, 0
1, 91200, Note_on_c, 0, 80, 0
1, 91200, Note_on_c, 0, 79, 49
1, 91200, Note_on_c, 0, 75, 49
1, 91320, Note_on_c, 0, 75, 0
1, 91320, Note_on_c, 0, 79, 0
1, 91320, Note_on_c, 0, 77, 44
1, 91320, Note_on_c, 0, 74, 37
1, 91440, Note_on_c, 0, 74, 0
1, 91440, Note_on_c, 0, 77, 0
1, 91440, Note_on_c, 0, 75, 44
1, 91440, Note_on_c, 0, 72, 37
1, 91560, Note_on_c, 0, 72, 0
1, 91560, Note_on_c, 0, 75, 0
1, 91560, Note_on_c, 0, 74, 44
1, 91560, Note_on_c, 0, 70, 37
1, 91620, Note_on_c, 0, 46, 32
1, 91620, Note_on_c, 0, 53, 32
1, 91650, Note_on_c, 0, 56, 34
1, 91680, Tempo, 550459
1, 91680, Note_on_c, 0, 70, 0
1, 91680, Note_on_c, 0, 74, 0
1, 91680, Note_on_c, 0, 72, 47
1, 91680, Note_on_c, 0, 68, 39
1, 91680, Note_on_c, 0, 62, 36
1, 91740, Note_on_c, 0, 62, 0
1, 91740, Note_on_c, 0, 46, 0
1, 91740, Note_on_c, 0, 56, 0
1, 91740, Note_on_c, 0, 53, 0
1, 91800, Note_on_c, 0, 72, 0
1, 91800, Note_on_c, 0, 68, 0
1, 91800, Note_on_c, 0, 70, 45
1, 91800, Note_on_c, 0, 67, 38
1, 91920, Tempo, 752351
1, 91920, Note_on_c, 0, 67, 0
1, 91920, Note_on_c, 0, 70, 0
1, 91920, Note_on_c, 0, 69, 43
1, 91920, Note_on_c, 0, 66, 36
1, 91977, Control_c, 0, 64, 0
1, 91980, Note_on_c, 0, 66, 0
1, 91980, Note_on_c, 0, 69, 0
1, 92040, Tempo, 633245
1, 92100, Note_on_c, 0, 68, 40
1, 92100, Note_on_c, 0, 65, 34
1, 92160, Tempo, 653951
1, 92160, Note_on_c, 0, 65, 0
1, 92160, Note_on_c, 0, 68, 0
1, 92160, Note_on_c, 0, 67, 45
1, 92160, Note_on_c, 0, 63, 38
1, 92160, Note_on_c, 0, 39, 35
1, 92256, Control_c, 0, 64, 127
1, 92280, Note_on_c, 0, 39, 0
1, 92580, Note_on_c, 0, 46, 32
1, 92610, Note_on_c, 0, 55, 35
1, 92623, Control_c, 0, 64, 0
1, 92640, Tempo, 554273
1, 92640, Note_on_c, 0, 63, 0
1, 92640, Note_on_c, 0, 67, 0
1, 92640, Note_on_c, 0, 63, 38
1, 92700, Note_on_c, 0, 63, 0
1, 92700, Note_on_c, 0, 46, 0
1, 92700, Note_on_c, 0, 55, 0
1, 93120, Tempo, 623377
1, 93540, Note_on_c, 0, 46, 31
1, 93570, Note_on_c, 0, 55, 34
1, 93600, Tempo, 566038
1, 93600, Note_on_c, 0, 63, 36
1, 93660, Note_on_c, 0, 63, 0
1, 93660, Note_on_c, 0, 55, 0
1, 93660, Note_on_c, 0, 46, 0
1, 94020, Tempo, 618557
1, 94020, Note_on_c, 0, 34, 61
1, 94080, Tempo, 582524
1, 94080, Note_on_c, 0, 34, 0
1, 94080, Note_on_c, 0, 39, 68
1, 94470, Note_on_c, 0, 58, 40
1, 94500, Note_on_c, 0, 63, 42
1, 94530, Note_on_c, 0, 67, 44
1, 94560, Tempo, 542986
1, 94560, Note_on_c, 0, 70, 46
1, 94620, Note_on_c, 0, 70, 0
1, 94620, Note_on_c, 0, 63, 0
1, 94620, Note_on_c, 0, 67, 0
1, 94620, Note_on_c, 0, 58, 0
1, 94720, Note_on_c, 0, 39, 0
1, 94720, Note_on_c, 0, 43, 64
1, 94800, Note_on_c, 0, 43, 0
1, 94880, Note_on_c, 0, 44, 64
1, 94960, Note_on_c, 0, 44, 0
1, 95040, Tempo, 570071
1, 95040, Note_on_c, 0, 45, 68
1, 95120, Note_on_c, 0, 45, 0
1, 95200, Note_on_c, 0, 46, 64
1, 95280, Note_on_c, 0, 46, 0
1, 95360, Note_on_c, 0, 51, 64
1, 95430, Note_on_c, 0, 67, 40
1, 95440, Note_on_c, 0, 51, 0
1, 95460, Note_on_c, 0, 70, 42
1, 95490, Note_on_c, 0, 75, 44
1, 95520, Tempo, 554273
1, 95520, Note_on_c, 0, 79, 46
1, 95520, Note_on_c, 0, 55, 68
1, 95580, Note_on_c, 0, 79, 0
1, 95580, Note_on_c, 0, 75, 0
1, 95580, Note_on_c, 0, 67, 0
1, 95580, Note_on_c, 0, 70, 0
1, 95600, Note_on_c, 0, 55, 0
1, 95680, Note_on_c, 0, 56, 64
1, 95760, Note_on_c, 0, 56, 0
1, 95840, Note_on_c, 0, 57, 64
1, 95870, Note_on_c, 0, 57, 0
1, 95880, Note_on_c, 0, 57, 56
1, 95920, Note_on_c, 0, 57, 0
1, 95920, Note_on_c, 0, 58, 50
1, 95960, Note_on_c, 0, 58, 0
1, 95960, Note_on_c, 0, 60, 46
1, 95991, Tempo, 562061
1, 96000, Note_on_c, 0, 60, 0
1, 96000, Note_on_c, 0, 58, 58
1, 96037, Control_c, 0, 64, 127
1, 96048, Note_on_c, 0, 58, 0
1, 96048, Note_on_c, 0, 60, 50
1, 96067, Tempo, 558140
1, 96096, Note_on_c, 0, 60, 0
1, 96096, Note_on_c, 0, 58, 57
1, 96142, Tempo, 554273
1, 96144, Note_on_c, 0, 58, 0
1, 96144, Note_on_c, 0, 60, 50
1, 96192, Note_on_c, 0, 60, 0
1, 96192, Note_on_c, 0, 58, 56
1, 96218, Tempo, 550459
1, 96240, Note_on_c, 0, 58, 0
1, 96240, Note_on_c, 0, 60, 49
1, 96288, Note_on_c, 0, 60, 0
1, 96288, Note_on_c, 0, 58, 55
1, 96294, Tempo, 546697
1, 96336, Note_on_c, 0, 58, 0
1, 96336, Note_on_c, 0, 60, 50
1, 96370, Tempo, 542986
1, 96384, Note_on_c, 0, 60, 0
1, 96384, Note_on_c, 0, 58, 56
1, 96390, Note_on_c, 0, 79, 42
1, 96420, Note_on_c, 0, 82, 44
1, 96432, Note_on_c, 0, 58, 0
1, 96432, Note_on_c, 0, 60, 48
1, 96446, Tempo, 539326
1, 96450, Note_on_c, 0, 87, 45
1, 96480, Tempo, 502092
1, 96480, Note_on_c, 0, 60, 0
1, 96480, Note_on_c, 0, 91, 47
1, 96480, Note_on_c, 0, 58, 55
1, 96528, Note_on_c, 0, 58, 0
1, 96528, Note_on_c, 0, 60, 50
1, 96540, Note_on_c, 0, 79, 0
1, 96540, Note_on_c, 0, 91, 0
1, 96540, Note_on_c, 0, 87, 0
1, 96540, Note_on_c, 0, 82, 0
1, 96576, Note_on_c, 0, 60, 0
1, 96576, Note_on_c, 0, 58, 58
1, 96624, Note_on_c, 0, 58, 0
1, 96624, Note_on_c, 0, 60, 51
1, 96672, Note_on_c, 0, 60, 0
1, 96672, Note_on_c, 0, 58, 60
1, 96720, Note_on_c, 0, 58, 0
1, 96720, Note_on_c, 0, 60, 56
1, 96780, Note_on_c, 0, 60, 0
1, 96780, Note_on_c, 0, 58, 63
1, 96840, Note_on_c, 0, 58, 0
1, 96840, Note_on_c, 0, 57, 60
1, 96900, Note_on_c, 0, 57, 0
1, 96900, Note_on_c, 0, 58, 60
1, 96960, Tempo, 562061
1, 96960, Note_on_c, 0, 58, 0
1, 96960, Note_on_c, 0, 67, 74
1, 96960, Note_on_c, 0, 63, 68
1, 96980, Control_c, 0, 64, 0
1, 97080, Note_on_c, 0, 63, 0
1, 97080, Note_on_c, 0, 67, 0
1, 97380, Note_on_c, 0, 46, 57
1, 97410, Note_on_c, 0, 55, 61
1, 97440, Note_on_c, 0, 63, 63
1, 97500, Note_on_c, 0, 63, 0
1, 97500, Note_on_c, 0, 55, 0
1, 97500, Note_on_c, 0, 46, 0
1, 97800, Note_on_c, 0, 70, 40
1, 97800, Note_on_c, 0, 67, 34
1, 97920, Tempo, 676056
1, 97920, Note_on_c, 0, 67, 0
1, 97920, Note_on_c, 0, 70, 0
1, 97920, Note_on_c, 0, 67, 40
1, 97920, Note_on_c, 0, 70, 45
1, 97920, Note_on_c, 0, 39, 35
1, 97952, Control_c, 0, 64, 127
1, 98000, Note_on_c, 0, 70, 0
1, 98000, Note_on_c, 0, 67, 0
1, 98000, Note_on_c, 0, 66, 36
1, 98000, Note_on_c, 0, 69, 41
1, 98040, Note_on_c, 0, 39, 0
1, 98080, Tempo, 731707
1, 98080, Note_on_c, 0, 69, 0
1, 98080, Note_on_c, 0, 66, 0
1, 98080, Note_on_c, 0, 65, 36
1, 98080, Note_on_c, 0, 68, 41
1, 98160, Tempo, 676056
1, 98160, Note_on_c, 0, 68, 0
1, 98160, Note_on_c, 0, 65, 0
1, 98160, Note_on_c, 0, 72, 40
1, 98160, Note_on_c, 0, 75, 45
1, 98240, Note_on_c, 0, 72, 0
1, 98240, Note_on_c, 0, 71, 40
1, 98310, Note_on_c, 0, 46, 31
1, 98320, Note_on_c, 0, 71, 0
1, 98320, Note_on_c, 0, 75, 0
1, 98320, Note_on_c, 0, 70, 34
1, 98320, Note_on_c, 0, 74, 40
1, 98340, Note_on_c, 0, 53, 33
1, 98370, Note_on_c, 0, 56, 34
1, 98400, Tempo, 693642
1, 98400, Note_on_c, 0, 74, 0
1, 98400, Note_on_c, 0, 70, 0
1, 98400, Note_on_c, 0, 75, 44
1, 98400, Note_on_c, 0, 79, 51
1, 98400, Note_on_c, 0, 62, 36
1, 98415, Control_c, 0, 64, 0
1, 98460, Note_on_c, 0, 62, 0
1, 98460, Note_on_c, 0, 53, 0
1, 98460, Note_on_c, 0, 56, 0
1, 98460, Note_on_c, 0, 46, 0
1, 98463, Control_c, 0, 64, 127
1, 98480, Note_on_c, 0, 79, 0
1, 98480, Note_on_c, 0, 78, 49
1, 98520, Tempo, 766773
1, 98560, Note_on_c, 0, 78, 0
1, 98560, Note_on_c, 0, 75, 0
1, 98560, Note_on_c, 0, 74, 42
1, 98560, Note_on_c, 0, 77, 49
1, 98640, Tempo, 948617
1, 98640, Note_on_c, 0, 77, 0
1, 98640, Note_on_c, 0, 74, 0
1, 98640, Note_on_c, 0, 84, 60
1, 98640, Note_on_c, 0, 80, 53
1, 98675, Control_c, 0, 64, 0
1, 98700, Note_on_c, 0, 80, 0
1, 98700, Note_on_c, 0, 84, 0
1, 98760, Tempo, 2637363
1, 98879, Tempo, 1472393
1, 98918, Tempo, 1445783
1, 98940, Note_on_c, 0, 79, 45
1, 98940, Note_on_c, 0, 76, 45
1, 98956, Tempo, 1420118
1, 98990, Tempo, 1395349
1, 99000, Note_on_c, 0, 76, 0
1, 99000, Note_on_c, 0, 79, 0
1, 99000, Note_on_c, 0, 80, 45
1, 99000, Note_on_c, 0, 77, 45
1, 99009, Tempo, 1371429
1, 99023, Tempo, 1348315
1, 99038, Tempo, 1325967
1, 99052, Tempo, 1304348
1, 99060, Note_on_c, 0, 77, 0
1, 99060, Note_on_c, 0, 80, 0
1, 99060, Note_on_c, 0, 76, 45
1, 99060, Note_on_c, 0, 73, 45
1, 99066, Tempo, 1283422
1, 99081, Tempo, 1263158
1, 99095, Tempo, 1243523
1, 99105, Tempo, 1224490
1, 99119, Tempo, 1206030
1, 99120, Note_on_c, 0, 73, 0
1, 99120, Note_on_c, 0, 76, 0
1, 99120, Note_on_c, 0, 74, 45
1, 99120, Note_on_c, 0, 77, 45
1, 99134, Tempo, 1188119
1, 99148, Tempo, 1170732
1, 99162, Tempo, 1153846
1, 99177, Tempo, 1137441
1, 99180, Note_on_c, 0, 77, 0
1, 99180, Note_on_c, 0, 74, 0
1, 99180, Note_on_c, 0, 73, 45
1, 99180, Note_on_c, 0, 69, 45
1, 99191, Tempo, 1121495
1, 99201, Tempo, 1105991
1, 99215, Tempo, 1090909
1, 99225, Tempo, 1121495
1, 99240, Note_on_c, 0, 69, 0
1, 99240, Note_on_c, 0, 73, 0
1, 99240, Note_on_c, 0, 70, 45
1, 99240, Note_on_c, 0, 74, 45
1, 99254, Tempo, 1105991
1, 99282, Tempo, 1090909
1, 99300, Note_on_c, 0, 74, 0
1, 99300, Note_on_c, 0, 70, 0
1, 99300, Note_on_c, 0, 67, 45
1, 99300, Note_on_c, 0, 71, 45
1, 99311, Tempo, 1076233
1, 99315, Note_on_c, 0, 46, 25
1, 99330, Note_on_c, 0, 53, 28
1, 99340, Tempo, 1061947
1, 99345, Note_on_c, 0, 56, 34
1, 99360, Tempo, 643432
1, 99360, Note_on_c, 0, 71, 0
1, 99360, Note_on_c, 0, 67, 0
1, 99360, Note_on_c, 0, 68, 45
1, 99360, Note_on_c, 0, 72, 45
1, 99360, Note_on_c, 0, 62, 36
1, 99420, Note_on_c, 0, 62, 0
1, 99420, Note_on_c, 0, 46, 0
1, 99420, Note_on_c, 0, 53, 0
1, 99420, Note_on_c, 0, 56, 0
1, 99420, Note_on_c, 0, 72, 0
1, 99420, Note_on_c, 0, 68, 0
1, 99480, Tempo, 600000
1, 99480, Note_on_c, 0, 64, 45
1, 99480, Note_on_c, 0, 67, 45
1, 99540, Note_on_c, 0, 67, 0
1, 99540, Note_on_c, 0, 64, 0
1, 99600, Tempo, 623377
1, 99600, Note_on_c, 0, 67, 45
1, 99600, Note_on_c, 0, 70, 45
1, 99660, Note_on_c, 0, 70, 0
1, 99660, Note_on_c, 0, 67, 0
1, 99720, Note_on_c, 0, 65, 45
1, 99720, Note_on_c, 0, 68, 45
1, 99780, Note_on_c, 0, 68, 0
1, 99780, Note_on_c, 0, 65, 0
1, 99840, Tempo, 653951
1, 99840, Note_on_c, 0, 67, 45
1, 99840, Note_on_c, 0, 63, 38
1, 99840, Note_on_c, 0, 39, 35
1, 99925, Control_c, 0, 64, 127
1, 99960, Note_on_c, 0, 39, 0
1, 100260, Note_on_c, 0, 46, 32
1, 100290, Note_on_c, 0, 55, 35
1, 100320, Tempo, 554273
1, 100320, Note_on_c, 0, 63, 0
1, 100320, Note_on_c, 0, 67, 0
1, 100320, Note_on_c, 0, 63, 38
1, 100331, Control_c, 0, 64, 0
1, 100380, Note_on_c, 0, 63, 0
1, 100380, Note_on_c, 0, 46, 0
1, 100380, Note_on_c, 0, 55, 0
1, 100800, Tempo, 623377
1, 101220, Note_on_c, 0, 46, 31
1, 101250, Note_on_c, 0, 55, 34
1, 101280, Tempo, 566038
1, 101280, Note_on_c, 0, 63, 36
1, 101340, Note_on_c, 0, 63, 0
1, 101340, Note_on_c, 0, 55, 0
1, 101340, Note_on_c, 0, 46, 0
1, 101640, Tempo, 554273
1, 101700, Note_on_c, 0, 58, 38
1, 101760, Tempo, 653951
1, 101760, Note_on_c, 0, 58, 0
1, 101760, Note_on_c, 0, 63, 52
1, 101760, Note_on_c, 0, 39, 35
1, 101817, Control_c, 0, 64, 127
1, 101880, Note_on_c, 0, 39, 0
1, 102120, Note_on_c, 0, 63, 0
1, 102120, Note_on_c, 0, 67, 39
1, 102165, Note_on_c, 0, 67, 0
1, 102180, Note_on_c, 0, 67, 36
1, 102180, Note_on_c, 0, 46, 34
1, 102210, Note_on_c, 0, 55, 35
1, 102225, Note_on_c, 0, 67, 0
1, 102231, Tempo, 623377
1, 102240, Note_on_c, 0, 68, 39
1, 102240, Note_on_c, 0, 63, 36
1, 102255, Control_c, 0, 64, 0
1, 102285, Note_on_c, 0, 68, 0
1, 102288, Tempo, 618557
1, 102300, Note_on_c, 0, 46, 0
1, 102300, Note_on_c, 0, 55, 0
1, 102300, Note_on_c, 0, 63, 0
1, 102300, Note_on_c, 0, 68, 36
1, 102327, Tempo, 613811
1, 102345, Note_on_c, 0, 68, 0
1, 102360, Note_on_c, 0, 69, 39
1, 102384, Tempo, 609137
1, 102405, Note_on_c, 0, 69, 0
1, 102420, Note_on_c, 0, 69, 36
1, 102423, Tempo, 604534
1, 102461, Tempo, 600000
1, 102465, Note_on_c, 0, 69, 0
1, 102480, Note_on_c, 0, 70, 39
1, 102519, Tempo, 595533
1, 102525, Note_on_c, 0, 70, 0
1, 102540, Note_on_c, 0, 70, 36
1, 102557, Tempo, 591133
1, 102585, Note_on_c, 0, 70, 0
1, 102595, Tempo, 586797
1, 102600, Note_on_c, 0, 75, 39
1, 102645, Note_on_c, 0, 75, 0
1, 102653, Tempo, 582524
1, 102660, Note_on_c, 0, 75, 36
1, 102691, Tempo, 578313
1, 102705, Note_on_c, 0, 75, 0
1, 102720, Note_on_c, 0, 79, 39
1, 102730, Tempo, 574163
1, 102765, Note_on_c, 0, 79, 0
1, 102768, Tempo, 578313
1, 102780, Note_on_c, 0, 79, 35
1, 102807, Tempo, 582524
1, 102825, Note_on_c, 0, 79, 0
1, 102840, Note_on_c, 0, 80, 39
1, 102845, Tempo, 586797
1, 102883, Tempo, 591133
1, 102885, Note_on_c, 0, 80, 0
1, 102900, Note_on_c, 0, 80, 35
1, 102922, Tempo, 595533
1, 102945, Note_on_c, 0, 80, 0
1, 102960, Tempo, 600000
1, 102960, Note_on_c, 0, 81, 39
1, 102999, Tempo, 604534
1, 103005, Note_on_c, 0, 81, 0
1, 103020, Note_on_c, 0, 81, 34
1, 103037, Tempo, 609137
1, 103065, Note_on_c, 0, 81, 0
1, 103075, Tempo, 613811
1, 103080, Note_on_c, 0, 82, 39
1, 103114, Tempo, 618557
1, 103125, Note_on_c, 0, 82, 0
1, 103140, Note_on_c, 0, 82, 34
1, 103140, Note_on_c, 0, 46, 34
1, 103152, Tempo, 623377
1, 103170, Note_on_c, 0, 55, 35
1, 103185, Note_on_c, 0, 82, 0
1, 103200, Tempo, 653951
1, 103200, Note_on_c, 0, 87, 39
1, 103200, Note_on_c, 0, 63, 36
1, 103245, Note_on_c, 0, 87, 0
1, 103260, Note_on_c, 0, 46, 0
1, 103260, Note_on_c, 0, 55, 0
1, 103260, Note_on_c, 0, 63, 0
1, 103260, Note_on_c, 0, 87, 34
1, 103305, Note_on_c, 0, 87, 0
1, 103320, Note_on_c, 0, 91, 39
1, 103365, Note_on_c, 0, 91, 0
1, 103380, Note_on_c, 0, 91, 35
1, 103425, Note_on_c, 0, 91, 0
1, 103440, Note_on_c, 0, 92, 41
1, 103485, Note_on_c, 0, 92, 0
1, 103500, Note_on_c, 0, 92, 36
1, 103545, Note_on_c, 0, 92, 0
1, 103560, Note_on_c, 0, 93, 42
1, 103605, Note_on_c, 0, 93, 0
1, 103620, Note_on_c, 0, 93, 37
1, 103665, Note_on_c, 0, 93, 0
1, 103680, Tempo, 699708
1, 103680, Note_on_c, 0, 93, 43
1, 103680, Note_on_c, 0, 39, 35
1, 103695, Control_c, 0, 64, 127
1, 103740, Note_on_c, 0, 93, 0
1, 103740, Note_on_c, 0, 94, 38
1, 103800, Note_on_c, 0, 94, 0
1, 103800, Note_on_c, 0, 39, 0
1, 103800, Note_on_c, 0, 96, 38
1, 103860, Note_on_c, 0, 96, 0
1, 103860, Note_on_c, 0, 94, 34
1, 103920, Tempo, 638298
1, 103920, Note_on_c, 0, 94, 0
1, 103920, Note_on_c, 0, 91, 42
1, 103980, Note_on_c, 0, 91, 0
1, 103980, Note_on_c, 0, 87, 35
1, 104040, Note_on_c, 0, 87, 0
1, 104040, Note_on_c, 0, 84, 41
1, 104100, Note_on_c, 0, 84, 0
1, 104100, Note_on_c, 0, 82, 34
1, 104100, Note_on_c, 0, 46, 33
1, 104130, Note_on_c, 0, 55, 37
1, 104160, Tempo, 591133
1, 104160, Note_on_c, 0, 82, 0
1, 104160, Note_on_c, 0, 79, 40
1, 104160, Note_on_c, 0, 63, 35
1, 104220, Note_on_c, 0, 79, 0
1, 104220, Note_on_c, 0, 46, 0
1, 104220, Note_on_c, 0, 55, 0
1, 104220, Note_on_c, 0, 75, 33
1, 104250, Note_on_c, 0, 63, 0
1, 104280, Note_on_c, 0, 75, 0
1, 104280, Note_on_c, 0, 72, 38
1, 104340, Note_on_c, 0, 72, 0
1, 104340, Note_on_c, 0, 70, 32
1, 104400, Note_on_c, 0, 70, 0
1, 104400, Note_on_c, 0, 67, 38
1, 104460, Note_on_c, 0, 67, 0
1, 104460, Note_on_c, 0, 63, 33
1, 104520, Note_on_c, 0, 63, 0
1, 104520, Note_on_c, 0, 62, 37
1, 104580, Note_on_c, 0, 62, 0
1, 104580, Note_on_c, 0, 63, 34
1, 104631, Tempo, 600000
1, 104640, Note_on_c, 0, 63, 0
1, 104640, Note_on_c, 0, 67, 33
1, 104688, Tempo, 604534
1, 104700, Note_on_c, 0, 67, 0
1, 104700, Note_on_c, 0, 70, 34
1, 104746, Tempo, 609137
1, 104760, Note_on_c, 0, 70, 0
1, 104760, Note_on_c, 0, 75, 35
1, 104803, Tempo, 613811
1, 104820, Note_on_c, 0, 75, 0
1, 104820, Note_on_c, 0, 79, 36
1, 104861, Tempo, 618557
1, 104880, Note_on_c, 0, 79, 0
1, 104880, Note_on_c, 0, 82, 38
1, 104899, Tempo, 623377
1, 104940, Note_on_c, 0, 82, 0
1, 104940, Note_on_c, 0, 87, 39
1, 104957, Tempo, 628272
1, 105000, Note_on_c, 0, 87, 0
1, 105000, Note_on_c, 0, 91, 40
1, 105015, Tempo, 633245
1, 105060, Note_on_c, 0, 91, 0
1, 105060, Note_on_c, 0, 94, 41
1, 105060, Note_on_c, 0, 46, 35
1, 105072, Tempo, 638298
1, 105090, Note_on_c, 0, 55, 36
1, 105111, Tempo, 643432
1, 105120, Tempo, 604534
1, 105120, Note_on_c, 0, 94, 0
1, 105120, Note_on_c, 0, 99, 47
1, 105120, Note_on_c, 0, 63, 38
1, 105120, Control_c, 0, 64, 0
1, 105180, Note_on_c, 0, 63, 0
1, 105180, Note_on_c, 0, 46, 0
1, 105180, Note_on_c, 0, 55, 0
1, 105360, Note_on_c, 0, 99, 0
1, 105480, Note_on_c, 0, 70, 39
1, 105480, Note_on_c, 0, 67, 33
1, 105540, Note_on_c, 0, 67, 0
1, 105540, Note_on_c, 0, 70, 0
1, 105600, Tempo, 547995
1, 105600, Note_on_c, 0, 68, 47
1, 105600, Note_on_c, 0, 65, 39
1, 105600, Note_on_c, 0, 39, 35
1, 105680, Note_on_c, 0, 65, 0
1, 105680, Note_on_c, 0, 68, 0
1, 105720, Tempo, 633245
1, 105720, Note_on_c, 0, 39, 0
1, 105760, Note_on_c, 0, 82, 39
1, 105840, Note_on_c, 0, 82, 0
1, 105920, Note_on_c, 0, 67, 39
1, 105920, Note_on_c, 0, 64, 33
1, 105990, Note_on_c, 0, 46, 31
1, 106000, Note_on_c, 0, 64, 0
1, 106000, Note_on_c, 0, 67, 0
1, 106020, Note_on_c, 0, 53, 33
1, 106050, Note_on_c, 0, 56, 34
1, 106071, Tempo, 623377
1, 106080, Tempo, 538165
1, 106080, Note_on_c, 0, 68, 46
1, 106080, Note_on_c, 0, 65, 39
1, 106080, Note_on_c, 0, 62, 36
1, 106140, Note_on_c, 0, 62, 0
1, 106140, Note_on_c, 0, 53, 0
1, 106140, Note_on_c, 0, 46, 0
1, 106140, Note_on_c, 0, 56, 0
1, 106160, Note_on_c, 0, 68, 0
1, 106160, Note_on_c, 0, 65, 0
1, 106200, Tempo, 600000
1, 106240, Note_on_c, 0, 94, 41
1, 106320, Note_on_c, 0, 94, 0
1, 106400, Note_on_c, 0, 70, 41
1, 106400, Note_on_c, 0, 67, 34
1, 106440, Tempo, 643432
1, 106480, Note_on_c, 0, 67, 0
1, 106480, Note_on_c, 0, 70, 0
1, 106560, Tempo, 550509
1, 106560, Note_on_c, 0, 72, 47
1, 106560, Note_on_c, 0, 68, 39
1, 106640, Note_on_c, 0, 68, 0
1, 106640, Note_on_c, 0, 72, 0
1, 106680, Tempo, 613811
1, 106720, Note_on_c, 0, 82, 41
1, 106800, Note_on_c, 0, 82, 0
1, 106880, Note_on_c, 0, 74, 41
1, 106880, Note_on_c, 0, 70, 34
1, 106960, Note_on_c, 0, 70, 0
1, 106960, Note_on_c, 0, 74, 0
1, 106995, Note_on_c, 0, 46, 25
1, 107010, Note_on_c, 0, 53, 28
1, 107025, Note_on_c, 0, 56, 34
1, 107040, Tempo, 543036
1, 107040, Note_on_c, 0, 75, 45
1, 107040, Note_on_c, 0, 72, 38
1, 107040, Note_on_c, 0, 62, 36
1, 107100, Note_on_c, 0, 62, 0
1, 107100, Note_on_c, 0, 53, 0
1, 107100, Note_on_c, 0, 46, 0
1, 107100, Note_on_c, 0, 56, 0
1, 107120, Note_on_c, 0, 75, 0
1, 107120, Note_on_c, 0, 72, 0
1, 107160, Tempo, 609137
1, 107200, Note_on_c, 0, 94, 40
1, 107280, Note_on_c, 0, 94, 0
1, 107360, Note_on_c, 0, 77, 40
1, 107360, Note_on_c, 0, 74, 34
1, 107400, Tempo, 895656
1, 107440, Note_on_c, 0, 74, 0
1, 107440, Note_on_c, 0, 77, 0
1, 107491, Tempo, 659341
1, 107520, Note_on_c, 0, 79, 46
1, 107520, Note_on_c, 0, 75, 39
1, 107520, Note_on_c, 0, 39, 35
1, 107522, Tempo, 664820
1, 107572, Tempo, 659341
1, 107573, Control_c, 0, 64, 127
1, 107598, Tempo, 653951
1, 107600, Note_on_c, 0, 75, 0
1, 107600, Note_on_c, 0, 79, 0
1, 107600, Note_on_c, 0, 77, 40
1, 107600, Note_on_c, 0, 70, 34
1, 107623, Tempo, 648649
1, 107640, Note_on_c, 0, 39, 0
1, 107648, Tempo, 643432
1, 107680, Note_on_c, 0, 70, 0
1, 107680, Note_on_c, 0, 77, 0
1, 107680, Note_on_c, 0, 75, 40
1, 107680, Note_on_c, 0, 67, 34
1, 107699, Tempo, 638298
1, 107724, Tempo, 633245
1, 107749, Tempo, 628272
1, 107760, Note_on_c, 0, 67, 0
1, 107760, Note_on_c, 0, 75, 0
1, 107760, Note_on_c, 0, 77, 40
1, 107760, Note_on_c, 0, 70, 34
1, 107775, Tempo, 623377
1, 107840, Note_on_c, 0, 70, 0
1, 107840, Note_on_c, 0, 77, 0
1, 107840, Note_on_c, 0, 79, 40
1, 107840, Note_on_c, 0, 75, 34
1, 107919, Note_on_c, 0, 77, 34
1, 107920, Note_on_c, 0, 75, 0
1, 107920, Note_on_c, 0, 79, 0
1, 107920, Note_on_c, 0, 82, 41
1, 107940, Note_on_c, 0, 46, 33
1, 107970, Note_on_c, 0, 55, 37
1, 107977, Tempo, 618557
1, 107999, Note_on_c, 0, 77, 0
1, 108000, Note_on_c, 0, 82, 0
1, 108000, Note_on_c, 0, 87, 43
1, 108000, Note_on_c, 0, 79, 36
1, 108000, Note_on_c, 0, 63, 35
1, 108052, Tempo, 623377
1, 108060, Note_on_c, 0, 46, 0
1, 108060, Note_on_c, 0, 55, 0
1, 108080, Note_on_c, 0, 79, 0
1, 108080, Note_on_c, 0, 87, 0
1, 108080, Note_on_c, 0, 89, 44
1, 108080, Note_on_c, 0, 82, 37
1, 108090, Note_on_c, 0, 63, 0
1, 108103, Tempo, 628272
1, 108153, Tempo, 633245
1, 108160, Note_on_c, 0, 82, 0
1, 108160, Note_on_c, 0, 89, 0
1, 108160, Note_on_c, 0, 91, 45
1, 108160, Note_on_c, 0, 87, 38
1, 108204, Tempo, 638298
1, 108240, Note_on_c, 0, 87, 0
1, 108240, Note_on_c, 0, 91, 0
1, 108240, Note_on_c, 0, 94, 45
1, 108240, Note_on_c, 0, 89, 38
1, 108255, Tempo, 643432
1, 108305, Tempo, 648649
1, 108320, Note_on_c, 0, 89, 0
1, 108320, Note_on_c, 0, 94, 0
1, 108320, Note_on_c, 0, 99, 46
1, 108320, Note_on_c, 0, 91, 39
1, 108356, Tempo, 653951
1, 108400, Note_on_c, 0, 91, 0
1, 108400, Note_on_c, 0, 99, 0
1, 108400, Note_on_c, 0, 101, 47
1, 108400, Note_on_c, 0, 94, 39
1, 108406, Tempo, 659341
1, 108413, Tempo, 653951
1, 108451, Tempo, 659341
1, 108480, Tempo, 609137
1, 108480, Note_on_c, 0, 94, 0
1, 108480, Note_on_c, 0, 101, 0
1, 108480, Note_on_c, 0, 99, 57
1, 108480, Note_on_c, 0, 103, 57
1, 108544, Control_c, 0, 64, 0
1, 108600, Note_on_c, 0, 103, 0
1, 108600, Note_on_c, 0, 99, 0
1, 108900, Note_on_c, 0, 46, 35
1, 108930, Note_on_c, 0, 55, 36
1, 108960, Note_on_c, 0, 63, 38
1, 109020, Note_on_c, 0, 63, 0
1, 109020, Note_on_c, 0, 55, 0
1, 109020, Note_on_c, 0, 46, 0
1, 109320, Tempo, 554273
1, 109320, Note_on_c, 0, 58, 38
1, 109440, Tempo, 653951
1, 109440, Note_on_c, 0, 58, 0
1, 109440, Note_on_c, 0, 63, 52
1, 109440, Note_on_c, 0, 39, 35
1, 109509, Control_c, 0, 64, 127
1, 109560, Note_on_c, 0, 39, 0
1, 109800, Note_on_c, 0, 63, 0
1, 109800, Note_on_c, 0, 67, 39
1, 109845, Note_on_c, 0, 67, 0
1, 109860, Note_on_c, 0, 67, 36
1, 109860, Note_on_c, 0, 46, 34
1, 109890, Note_on_c, 0, 55, 35
1, 109905, Note_on_c, 0, 67, 0
1, 109911, Tempo, 623377
1, 109920, Note_on_c, 0, 68, 39
1, 109920, Note_on_c, 0, 63, 36
1, 109920, Control_c, 0, 64, 0
1, 109965, Note_on_c, 0, 68, 0
1, 109968, Tempo, 618557
1, 109980, Note_on_c, 0, 46, 0
1, 109980, Note_on_c, 0, 55, 0
1, 109980, Note_on_c, 0, 63, 0
1, 109980, Note_on_c, 0, 68, 36
1, 110007, Tempo, 613811
1, 110025, Note_on_c, 0, 68, 0
1, 110040, Note_on_c, 0, 69, 39
1, 110064, Tempo, 609137
1, 110085, Note_on_c, 0, 69, 0
1, 110100, Note_on_c, 0, 69, 36
1, 110103, Tempo, 604534
1, 110141, Tempo, 600000
1, 110145, Note_on_c, 0, 69, 0
1, 110160, Note_on_c, 0, 70, 39
1, 110199, Tempo, 595533
1, 110205, Note_on_c, 0, 70, 0
1, 110220, Note_on_c, 0, 70, 36
1, 110237, Tempo, 591133
1, 110265, Note_on_c, 0, 70, 0
1, 110275, Tempo, 586797
1, 110280, Note_on_c, 0, 75, 39
1, 110325, Note_on_c, 0, 75, 0
1, 110333, Tempo, 582524
1, 110340, Note_on_c, 0, 75, 36
1, 110371, Tempo, 578313
1, 110385, Note_on_c, 0, 75, 0
1, 110400, Note_on_c, 0, 79, 39
1, 110410, Tempo, 574163
1, 110445, Note_on_c, 0, 79, 0
1, 110448, Tempo, 578313
1, 110460, Note_on_c, 0, 79, 35
1, 110487, Tempo, 582524
1, 110505, Note_on_c, 0, 79, 0
1, 110520, Note_on_c, 0, 80, 39
1, 110525, Tempo, 586797
1, 110563, Tempo, 591133
1, 110565, Note_on_c, 0, 80, 0
1, 110580, Note_on_c, 0, 80, 35
1, 110602, Tempo, 595533
1, 110625, Note_on_c, 0, 80, 0
1, 110640, Tempo, 600000
1, 110640, Note_on_c, 0, 81, 39
1, 110679, Tempo, 604534
1, 110685, Note_on_c, 0, 81, 0
1, 110700, Note_on_c, 0, 81, 34
1, 110717, Tempo, 609137
1, 110745, Note_on_c, 0, 81, 0
1, 110755, Tempo, 613811
1, 110760, Note_on_c, 0, 82, 39
1, 110794, Tempo, 618557
1, 110805, Note_on_c, 0, 82, 0
1, 110820, Note_on_c, 0, 82, 34
1, 110820, Note_on_c, 0, 46, 34
1, 110832, Tempo, 623377
1, 110850, Note_on_c, 0, 55, 35
1, 110865, Note_on_c, 0, 82, 0
1, 110880, Tempo, 653951
1, 110880, Note_on_c, 0, 87, 39
1, 110880, Note_on_c, 0, 63, 36
1, 110925, Note_on_c, 0, 87, 0
1, 110940, Note_on_c, 0, 46, 0
1, 110940, Note_on_c, 0, 55, 0
1, 110940, Note_on_c, 0, 63, 0
1, 110940, Note_on_c, 0, 87, 34
1, 110985, Note_on_c, 0, 87, 0
1, 111000, Note_on_c, 0, 91, 39
1, 111045, Note_on_c, 0, 91, 0
1, 111060, Note_on_c, 0, 91, 35
1, 111105, Note_on_c, 0, 91, 0
1, 111120, Note_on_c, 0, 92, 41
1, 111165, Note_on_c, 0, 92, 0
1, 111180, Note_on_c, 0, 92, 36
1, 111225, Note_on_c, 0, 92, 0
1, 111240, Note_on_c, 0, 93, 42
1, 111285, Note_on_c, 0, 93, 0
1, 111300, Note_on_c, 0, 93, 37
1, 111345, Note_on_c, 0, 93, 0
1, 111360, Tempo, 699708
1, 111360, Note_on_c, 0, 93, 43
1, 111360, Note_on_c, 0, 39, 35
1, 111383, Control_c, 0, 64, 127
1, 111420, Note_on_c, 0, 93, 0
1, 111420, Note_on_c, 0, 94, 38
1, 111480, Note_on_c, 0, 94, 0
1, 111480, Note_on_c, 0, 39, 0
1, 111480, Note_on_c, 0, 96, 38
1, 111540, Note_on_c, 0, 96, 0
1, 111540, Note_on_c, 0, 94, 34
1, 111600, Tempo, 638298
1, 111600, Note_on_c, 0, 94, 0
1, 111600, Note_on_c, 0, 91, 42
1, 111660, Note_on_c, 0, 91, 0
1, 111660, Note_on_c, 0, 87, 35
1, 111720, Note_on_c, 0, 87, 0
1, 111720, Note_on_c, 0, 84, 41
1, 111780, Note_on_c, 0, 84, 0
1, 111780, Note_on_c, 0, 82, 34
1, 111780, Note_on_c, 0, 46, 33
1, 111810, Note_on_c, 0, 55, 37
1, 111840, Tempo, 591133
1, 111840, Note_on_c, 0, 82, 0
1, 111840, Note_on_c, 0, 79, 40
1, 111840, Note_on_c, 0, 63, 35
1, 111900, Note_on_c, 0, 79, 0
1, 111900, Note_on_c, 0, 46, 0
1, 111900, Note_on_c, 0, 55, 0
1, 111900, Note_on_c, 0, 75, 33
1, 111930, Note_on_c, 0, 63, 0
1, 111960, Note_on_c, 0, 75, 0
1, 111960, Note_on_c, 0, 72, 38
1, 112020, Note_on_c, 0, 72, 0
1, 112020, Note_on_c, 0, 70, 32
1, 112080, Note_on_c, 0, 70, 0
1, 112080, Note_on_c, 0, 67, 38
1, 112140, Note_on_c, 0, 67, 0
1, 112140, Note_on_c, 0, 63, 33
1, 112200, Note_on_c, 0, 63, 0
1, 112200, Note_on_c, 0, 62, 37
1, 112260, Note_on_c, 0, 62, 0
1, 112260, Note_on_c, 0, 63, 34
1, 112311, Tempo, 600000
1, 112320, Note_on_c, 0, 63, 0
1, 112320, Note_on_c, 0, 67, 33
1, 112368, Tempo, 604534
1, 112380, Note_on_c, 0, 67, 0
1, 112380, Note_on_c, 0, 70, 34
1, 112426, Tempo, 609137
1, 112440, Note_on_c, 0, 70, 0
1, 112440, Note_on_c, 0, 75, 36
1, 112483, Tempo, 613811
1, 112500, Note_on_c, 0, 75, 0
1, 112500, Note_on_c, 0, 79, 38
1, 112541, Tempo, 618557
1, 112560, Note_on_c, 0, 79, 0
1, 112560, Note_on_c, 0, 82, 41
1, 112579, Tempo, 623377
1, 112620, Note_on_c, 0, 82, 0
1, 112620, Note_on_c, 0, 87, 43
1, 112637, Tempo, 628272
1, 112680, Note_on_c, 0, 87, 0
1, 112680, Note_on_c, 0, 91, 45
1, 112695, Tempo, 633245
1, 112740, Note_on_c, 0, 91, 0
1, 112740, Note_on_c, 0, 94, 47
1, 112740, Note_on_c, 0, 46, 35
1, 112752, Tempo, 638298
1, 112770, Note_on_c, 0, 55, 36
1, 112791, Tempo, 643432
1, 112800, Tempo, 604534
1, 112800, Note_on_c, 0, 94, 0
1, 112800, Note_on_c, 0, 99, 46
1, 112800, Note_on_c, 0, 103, 54
1, 112800, Note_on_c, 0, 63, 38
1, 112800, Control_c, 0, 64, 0
1, 112860, Note_on_c, 0, 63, 0
1, 112860, Note_on_c, 0, 46, 0
1, 112860, Note_on_c, 0, 55, 0
1, 113040, Note_on_c, 0, 99, 0
1, 113040, Note_on_c, 0, 103, 0
1, 113220, Note_on_c, 0, 67, 33
1, 113220, Note_on_c, 0, 70, 39
1, 113265, Note_on_c, 0, 70, 0
1, 113265, Note_on_c, 0, 67, 0
1, 113280, Tempo, 562061
1, 113280, Note_on_c, 0, 68, 47
1, 113280, Note_on_c, 0, 65, 39
1, 113280, Note_on_c, 0, 39, 35
1, 113360, Note_on_c, 0, 65, 0
1, 113360, Note_on_c, 0, 68, 0
1, 113400, Tempo, 633245
1, 113400, Note_on_c, 0, 39, 0
1, 113440, Note_on_c, 0, 82, 39
1, 113520, Note_on_c, 0, 82, 0
1, 113600, Note_on_c, 0, 67, 39
1, 113600, Note_on_c, 0, 64, 33
1, 113670, Note_on_c, 0, 46, 31
1, 113680, Note_on_c, 0, 64, 0
1, 113680, Note_on_c, 0, 67, 0
1, 113700, Note_on_c, 0, 53, 33
1, 113730, Note_on_c, 0, 56, 34
1, 113751, Tempo, 623377
1, 113760, Tempo, 550459
1, 113760, Note_on_c, 0, 68, 46
1, 113760, Note_on_c, 0, 65, 39
1, 113760, Note_on_c, 0, 62, 36
1, 113820, Note_on_c, 0, 62, 0
1, 113820, Note_on_c, 0, 53, 0
1, 113820, Note_on_c, 0, 46, 0
1, 113820, Note_on_c, 0, 56, 0
1, 113840, Note_on_c, 0, 68, 0
1, 113840, Note_on_c, 0, 65, 0
1, 113880, Tempo, 600000
1, 113920, Note_on_c, 0, 94, 41
1, 114000, Note_on_c, 0, 94, 0
1, 114080, Note_on_c, 0, 70, 41
1, 114080, Note_on_c, 0, 67, 34
1, 114120, Tempo, 643432
1, 114160, Note_on_c, 0, 67, 0
1, 114160, Note_on_c, 0, 70, 0
1, 114240, Tempo, 562061
1, 114240, Note_on_c, 0, 72, 47
1, 114240, Note_on_c, 0, 68, 39
1, 114320, Note_on_c, 0, 68, 0
1, 114320, Note_on_c, 0, 72, 0
1, 114360, Tempo, 613811
1, 114400, Note_on_c, 0, 82, 41
1, 114480, Note_on_c, 0, 82, 0
1, 114560, Note_on_c, 0, 67, 34
1, 114560, Note_on_c, 0, 70, 41
1, 114640, Note_on_c, 0, 70, 0
1, 114640, Note_on_c, 0, 67, 0
1, 114675, Note_on_c, 0, 46, 25
1, 114690, Note_on_c, 0, 53, 28
1, 114705, Note_on_c, 0, 56, 34
1, 114720, Tempo, 554273
1, 114720, Note_on_c, 0, 68, 45
1, 114720, Note_on_c, 0, 65, 38
1, 114720, Note_on_c, 0, 62, 36
1, 114780, Note_on_c, 0, 62, 0
1, 114780, Note_on_c, 0, 53, 0
1, 114780, Note_on_c, 0, 46, 0
1, 114780, Note_on_c, 0, 56, 0
1, 114800, Note_on_c, 0, 68, 0
1, 114800, Note_on_c, 0, 65, 0
1, 114840, Tempo, 609137
1, 114880, Note_on_c, 0, 94, 40
1, 114960, Note_on_c, 0, 94, 0
1, 115040, Note_on_c, 0, 58, 34
1, 115040, Note_on_c, 0, 65, 40
1, 115080, Tempo, 731707
1, 115120, Note_on_c, 0, 65, 0
1, 115120, Note_on_c, 0, 58, 0
1, 115171, Tempo, 659341
1, 115200, Note_on_c, 0, 55, 40
1, 115200, Note_on_c, 0, 63, 40
1, 115200, Note_on_c, 0, 39, 35
1, 115210, Tempo, 653951
1, 115229, Tempo, 648649
1, 115248, Tempo, 643432
1, 115257, Control_c, 0, 64, 127
1, 115267, Tempo, 638298
1, 115287, Tempo, 633245
1, 115306, Tempo, 628272
1, 115320, Note_on_c, 0, 39, 0
1, 115325, Tempo, 623377
1, 115344, Tempo, 618557
1, 115363, Tempo, 613811
1, 115383, Tempo, 609137
1, 115402, Tempo, 604534
1, 115620, Note_on_c, 0, 46, 36
1, 115650, Note_on_c, 0, 55, 38
1, 115680, Tempo, 613811
1, 115680, Note_on_c, 0, 63, 0
1, 115680, Note_on_c, 0, 55, 0
1, 115680, Note_on_c, 0, 63, 39
1, 115740, Note_on_c, 0, 46, 0
1, 115740, Note_on_c, 0, 55, 0
1, 115770, Note_on_c, 0, 63, 0
1, 115779, Control_c, 0, 64, 0
1, 115805, Tempo, 609137
1, 115843, Tempo, 613811
1, 115882, Tempo, 618557
1, 115901, Tempo, 623377
1, 115939, Tempo, 628272
1, 115978, Tempo, 633245
1, 115997, Tempo, 638298
1, 116035, Tempo, 643432
1, 116074, Tempo, 648649
1, 116093, Tempo, 653951
1, 116131, Tempo, 659341
1, 116160, Tempo, 609137
1, 116580, Note_on_c, 0, 51, 35
1, 116610, Note_on_c, 0, 58, 36
1, 116625, Control_c, 0, 64, 127
1, 116640, Tempo, 511727
1, 116640, Note_on_c, 0, 82, 46
1, 116640, Note_on_c, 0, 67, 38
1, 116700, Note_on_c, 0, 67, 0
1, 116700, Note_on_c, 0, 51, 0
1, 116700, Note_on_c, 0, 58, 0
1, 116720, Note_on_c, 0, 82, 0
1, 116720, Note_on_c, 0, 87, 45
1, 116800, Note_on_c, 0, 87, 0
1, 116800, Note_on_c, 0, 97, 60
1, 116880, Note_on_c, 0, 97, 0
1, 116880, Note_on_c, 0, 87, 45
1, 116960, Note_on_c, 0, 87, 0
1, 116960, Note_on_c, 0, 89, 45
1, 117040, Note_on_c, 0, 89, 0
1, 117040, Note_on_c, 0, 87, 45
1, 117120, Tempo, 528634
1, 117120, Note_on_c, 0, 87, 0
1, 117120, Note_on_c, 0, 80, 53
1, 117120, Note_on_c, 0, 39, 35
1, 117120, Control_c, 0, 64, 0
1, 117163, Control_c, 0, 64, 127
1, 117200, Note_on_c, 0, 80, 0
1, 117200, Note_on_c, 0, 87, 46
1, 117240, Note_on_c, 0, 39, 0
1, 117280, Note_on_c, 0, 87, 0
1, 117280, Note_on_c, 0, 96, 46
1, 117360, Note_on_c, 0, 96, 0
1, 117360, Note_on_c, 0, 87, 57
1, 117440, Note_on_c, 0, 87, 0
1, 117440, Note_on_c, 0, 89, 46
1, 117520, Note_on_c, 0, 89, 0
1, 117520, Note_on_c, 0, 87, 46
1, 117540, Note_on_c, 0, 48, 34
1, 117570, Note_on_c, 0, 56, 36
1, 117600, Tempo, 512864
1, 117600, Note_on_c, 0, 87, 0
1, 117600, Note_on_c, 0, 79, 48
1, 117600, Note_on_c, 0, 63, 38
1, 117660, Note_on_c, 0, 56, 0
1, 117660, Note_on_c, 0, 48, 0
1, 117690, Note_on_c, 0, 79, 0
1, 117690, Note_on_c, 0, 63, 0
1, 117720, Note_on_c, 0, 94, 52
1, 117810, Note_on_c, 0, 94, 0
1, 117840, Note_on_c, 0, 77, 44
1, 117930, Note_on_c, 0, 77, 0
1, 117960, Note_on_c, 0, 92, 52
1, 118050, Note_on_c, 0, 92, 0
1, 118080, Tempo, 498960
1, 118080, Note_on_c, 0, 75, 44
1, 118087, Control_c, 0, 64, 0
1, 118126, Control_c, 0, 64, 127
1, 118170, Note_on_c, 0, 75, 0
1, 118200, Note_on_c, 0, 91, 47
1, 118290, Note_on_c, 0, 91, 0
1, 118320, Note_on_c, 0, 74, 41
1, 118410, Note_on_c, 0, 74, 0
1, 118440, Note_on_c, 0, 90, 45
1, 118500, Note_on_c, 0, 51, 35
1, 118530, Note_on_c, 0, 90, 0
1, 118530, Note_on_c, 0, 58, 36
1, 118560, Tempo, 498960
1, 118560, Note_on_c, 0, 75, 40
1, 118560, Note_on_c, 0, 67, 38
1, 118620, Note_on_c, 0, 67, 0
1, 118620, Note_on_c, 0, 51, 0
1, 118620, Note_on_c, 0, 58, 0
1, 118650, Note_on_c, 0, 75, 0
1, 118680, Note_on_c, 0, 91, 45
1, 118770, Note_on_c, 0, 91, 0
1, 118800, Note_on_c, 0, 76, 41
1, 118890, Note_on_c, 0, 76, 0
1, 118920, Note_on_c, 0, 91, 45
1, 119010, Note_on_c, 0, 91, 0
1, 119040, Tempo, 518359
1, 119040, Note_on_c, 0, 77, 42
1, 119040, Note_on_c, 0, 39, 35
1, 119047, Control_c, 0, 64, 0
1, 119114, Control_c, 0, 64, 127
1, 119130, Note_on_c, 0, 77, 0
1, 119160, Note_on_c, 0, 39, 0
1, 119160, Note_on_c, 0, 92, 47
1, 119250, Note_on_c, 0, 92, 0
1, 119280, Note_on_c, 0, 76, 43
1, 119370, Note_on_c, 0, 76, 0
1, 119400, Note_on_c, 0, 91, 49
1, 119460, Note_on_c, 0, 46, 33
1, 119490, Note_on_c, 0, 91, 0
1, 119490, Note_on_c, 0, 56, 35
1, 119520, Note_on_c, 0, 77, 46
1, 119520, Note_on_c, 0, 62, 36
1, 119580, Note_on_c, 0, 56, 0
1, 119580, Note_on_c, 0, 46, 0
1, 119610, Note_on_c, 0, 77, 0
1, 119610, Note_on_c, 0, 62, 0
1, 119640, Note_on_c, 0, 92, 52
1, 119730, Note_on_c, 0, 92, 0
1, 119760, Note_on_c, 0, 78, 43
1, 119850, Note_on_c, 0, 78, 0
1, 119880, Note_on_c, 0, 93, 46
1, 119970, Note_on_c, 0, 93, 0
1, 120000, Note_on_c, 0, 79, 47
1, 120009, Control_c, 0, 64, 0
1, 120039, Control_c, 0, 64, 127
1, 120090, Note_on_c, 0, 79, 0
1, 120120, Note_on_c, 0, 94, 55
1, 120210, Note_on_c, 0, 94, 0
1, 120420, Note_on_c, 0, 51, 31
1, 120449, Control_c, 0, 64, 0
1, 120450, Note_on_c, 0, 58, 34
1, 120480, Tempo, 498960
1, 120480, Note_on_c, 0, 70, 45
1, 120480, Note_on_c, 0, 67, 37
1, 120515, Control_c, 0, 64, 127
1, 120540, Note_on_c, 0, 67, 0
1, 120540, Note_on_c, 0, 51, 0
1, 120540, Note_on_c, 0, 58, 0
1, 120560, Note_on_c, 0, 70, 0
1, 120560, Note_on_c, 0, 75, 38
1, 120640, Note_on_c, 0, 75, 0
1, 120640, Note_on_c, 0, 85, 58
1, 120720, Note_on_c, 0, 85, 0
1, 120720, Note_on_c, 0, 75, 42
1, 120800, Note_on_c, 0, 75, 0
1, 120800, Note_on_c, 0, 77, 38
1, 120880, Note_on_c, 0, 77, 0
1, 120880, Note_on_c, 0, 75, 40
1, 120960, Tempo, 510682
1, 120960, Note_on_c, 0, 75, 0
1, 120960, Note_on_c, 0, 68, 45
1, 120960, Note_on_c, 0, 39, 35
1, 120960, Control_c, 0, 64, 0
1, 121003, Control_c, 0, 64, 127
1, 121040, Note_on_c, 0, 68, 0
1, 121040, Note_on_c, 0, 75, 35
1, 121080, Note_on_c, 0, 39, 0
1, 121120, Note_on_c, 0, 75, 0
1, 121120, Note_on_c, 0, 84, 51
1, 121200, Note_on_c, 0, 84, 0
1, 121200, Note_on_c, 0, 75, 35
1, 121280, Note_on_c, 0, 75, 0
1, 121280, Note_on_c, 0, 77, 35
1, 121360, Note_on_c, 0, 77, 0
1, 121360, Note_on_c, 0, 75, 35
1, 121380, Note_on_c, 0, 48, 32
1, 121410, Note_on_c, 0, 56, 34
1, 121440, Tempo, 506372
1, 121440, Note_on_c, 0, 75, 0
1, 121440, Note_on_c, 0, 67, 42
1, 121440, Note_on_c, 0, 63, 35
1, 121500, Note_on_c, 0, 56, 0
1, 121500, Note_on_c, 0, 48, 0
1, 121530, Note_on_c, 0, 67, 0
1, 121530, Note_on_c, 0, 63, 0
1, 121560, Note_on_c, 0, 82, 48
1, 121650, Note_on_c, 0, 82, 0
1, 121680, Note_on_c, 0, 65, 44
1, 121770, Note_on_c, 0, 65, 0
1, 121800, Note_on_c, 0, 80, 48
1, 121890, Note_on_c, 0, 80, 0
1, 121920, Tempo, 498960
1, 121920, Note_on_c, 0, 63, 40
1, 122010, Note_on_c, 0, 63, 0
1, 122040, Note_on_c, 0, 79, 47
1, 122130, Note_on_c, 0, 79, 0
1, 122160, Note_on_c, 0, 62, 39
1, 122250, Note_on_c, 0, 62, 0
1, 122280, Note_on_c, 0, 78, 46
1, 122340, Note_on_c, 0, 51, 32
1, 122370, Note_on_c, 0, 78, 0
1, 122370, Note_on_c, 0, 58, 34
1, 122400, Tempo, 498960
1, 122400, Note_on_c, 0, 63, 38
1, 122400, Note_on_c, 0, 67, 35
1, 122410, Control_c, 0, 64, 0
1, 122445, Note_on_c, 0, 67, 0
1, 122460, Note_on_c, 0, 51, 0
1, 122460, Note_on_c, 0, 58, 0
1, 122467, Control_c, 0, 64, 127
1, 122490, Note_on_c, 0, 63, 0
1, 122520, Note_on_c, 0, 79, 45
1, 122610, Note_on_c, 0, 79, 0
1, 122640, Note_on_c, 0, 64, 38
1, 122730, Note_on_c, 0, 64, 0
1, 122760, Note_on_c, 0, 79, 47
1, 122850, Note_on_c, 0, 79, 0
1, 122880, Tempo, 518359
1, 122880, Note_on_c, 0, 65, 41
1, 122880, Note_on_c, 0, 39, 33
1, 122887, Control_c, 0, 64, 0
1, 122954, Control_c, 0, 64, 127
1, 122970, Note_on_c, 0, 65, 0
1, 123000, Note_on_c, 0, 39, 0
1, 123000, Note_on_c, 0, 80, 44
1, 123090, Note_on_c, 0, 80, 0
1, 123120, Note_on_c, 0, 64, 38
1, 123210, Note_on_c, 0, 64, 0
1, 123240, Note_on_c, 0, 79, 46
1, 123300, Note_on_c, 0, 46, 27
1, 123330, Note_on_c, 0, 79, 0
1, 123330, Note_on_c, 0, 56, 28
1, 123360, Note_on_c, 0, 65, 40
1, 123360, Note_on_c, 0, 62, 29
1, 123420, Note_on_c, 0, 56, 0
1, 123420, Note_on_c, 0, 46, 0
1, 123450, Note_on_c, 0, 65, 0
1, 123450, Note_on_c, 0, 62, 0
1, 123480, Note_on_c, 0, 80, 45
1, 123570, Note_on_c, 0, 80, 0
1, 123600, Note_on_c, 0, 61, 38
1, 123690, Note_on_c, 0, 61, 0
1, 123720, Note_on_c, 0, 76, 44
1, 123810, Note_on_c, 0, 76, 0
1, 123840, Note_on_c, 0, 62, 40
1, 123845, Control_c, 0, 64, 0
1, 123879, Control_c, 0, 64, 127
1, 123930, Note_on_c, 0, 62, 0
1, 123960, Note_on_c, 0, 77, 46
1, 124050, Note_on_c, 0, 77, 0
1, 124140, Control_c, 0, 64, 0
1, 124260, Note_on_c, 0, 51, 31
1, 124290, Note_on_c, 0, 58, 33
1, 124320, Tempo, 511727
1, 124320, Note_on_c, 0, 82, 50
1, 124320, Note_on_c, 0, 67, 35
1, 124329, Control_c, 0, 64, 127
1, 124380, Note_on_c, 0, 67, 0
1, 124380, Note_on_c, 0, 51, 0
1, 124380, Note_on_c, 0, 58, 0
1, 124400, Note_on_c, 0, 82, 0
1, 124400, Note_on_c, 0, 87, 45
1, 124480, Note_on_c, 0, 87, 0
1, 124480, Note_on_c, 0, 97, 54
1, 124560, Note_on_c, 0, 97, 0
1, 124560, Note_on_c, 0, 87, 45
1, 124640, Note_on_c, 0, 87, 0
1, 124640, Note_on_c, 0, 89, 45
1, 124720, Note_on_c, 0, 89, 0
1, 124720, Note_on_c, 0, 87, 45
1, 124800, Tempo, 528634
1, 124800, Note_on_c, 0, 87, 0
1, 124800, Note_on_c, 0, 80, 50
1, 124800, Note_on_c, 0, 39, 35
1, 124808, Control_c, 0, 64, 0
1, 124843, Control_c, 0, 64, 127
1, 124880, Note_on_c, 0, 80, 0
1, 124880, Note_on_c, 0, 87, 46
1, 124920, Note_on_c, 0, 39, 0
1, 124960, Note_on_c, 0, 87, 0
1, 124960, Note_on_c, 0, 96, 54
1, 125040, Note_on_c, 0, 96, 0
1, 125040, Note_on_c, 0, 87, 46
1, 125120, Note_on_c, 0, 87, 0
1, 125120, Note_on_c, 0, 89, 46
1, 125160, Tempo, 510682
1, 125200, Note_on_c, 0, 89, 0
1, 125200, Note_on_c, 0, 87, 46
1, 125220, Note_on_c, 0, 48, 34
1, 125250, Note_on_c, 0, 56, 36
1, 125280, Tempo, 510682
1, 125280, Note_on_c, 0, 87, 0
1, 125280, Note_on_c, 0, 79, 42
1, 125280, Note_on_c, 0, 63, 38
1, 125340, Note_on_c, 0, 56, 0
1, 125340, Note_on_c, 0, 48, 0
1, 125370, Note_on_c, 0, 79, 0
1, 125370, Note_on_c, 0, 63, 0
1, 125400, Note_on_c, 0, 94, 49
1, 125490, Note_on_c, 0, 94, 0
1, 125520, Note_on_c, 0, 77, 44
1, 125610, Note_on_c, 0, 77, 0
1, 125640, Note_on_c, 0, 92, 47
1, 125730, Note_on_c, 0, 92, 0
1, 125760, Tempo, 498960
1, 125760, Note_on_c, 0, 75, 41
1, 125771, Control_c, 0, 64, 0
1, 125827, Control_c, 0, 64, 127
1, 125850, Note_on_c, 0, 75, 0
1, 125880, Note_on_c, 0, 91, 48
1, 125970, Note_on_c, 0, 91, 0
1, 126000, Note_on_c, 0, 74, 41
1, 126090, Note_on_c, 0, 74, 0
1, 126120, Note_on_c, 0, 90, 46
1, 126180, Note_on_c, 0, 51, 35
1, 126210, Note_on_c, 0, 90, 0
1, 126210, Note_on_c, 0, 58, 36
1, 126240, Tempo, 498960
1, 126240, Note_on_c, 0, 75, 41
1, 126240, Note_on_c, 0, 67, 38
1, 126300, Note_on_c, 0, 67, 0
1, 126300, Note_on_c, 0, 51, 0
1, 126300, Note_on_c, 0, 58, 0
1, 126330, Note_on_c, 0, 75, 0
1, 126360, Note_on_c, 0, 91, 46
1, 126450, Note_on_c, 0, 91, 0
1, 126480, Note_on_c, 0, 76, 40
1, 126570, Note_on_c, 0, 76, 0
1, 126600, Note_on_c, 0, 91, 45
1, 126690, Note_on_c, 0, 91, 0
1, 126720, Tempo, 518359
1, 126720, Note_on_c, 0, 77, 39
1, 126720, Note_on_c, 0, 39, 35
1, 126727, Control_c, 0, 64, 0
1, 126794, Control_c, 0, 64, 127
1, 126810, Note_on_c, 0, 77, 0
1, 126840, Note_on_c, 0, 39, 0
1, 126840, Note_on_c, 0, 92, 47
1, 126930, Note_on_c, 0, 92, 0
1, 126960, Note_on_c, 0, 76, 40
1, 127050, Note_on_c, 0, 76, 0
1, 127080, Note_on_c, 0, 91, 46
1, 127140, Note_on_c, 0, 46, 34
1, 127170, Note_on_c, 0, 91, 0
1, 127170, Note_on_c, 0, 56, 35
1, 127200, Note_on_c, 0, 77, 43
1, 127200, Note_on_c, 0, 62, 38
1, 127260, Note_on_c, 0, 56, 0
1, 127260, Note_on_c, 0, 46, 0
1, 127290, Note_on_c, 0, 77, 0
1, 127290, Note_on_c, 0, 62, 0
1, 127320, Note_on_c, 0, 92, 48
1, 127410, Note_on_c, 0, 92, 0
1, 127440, Note_on_c, 0, 78, 45
1, 127530, Note_on_c, 0, 78, 0
1, 127560, Note_on_c, 0, 93, 51
1, 127650, Note_on_c, 0, 93, 0
1, 127680, Note_on_c, 0, 79, 47
1, 127691, Control_c, 0, 64, 0
1, 127737, Control_c, 0, 64, 127
1, 127770, Note_on_c, 0, 79, 0
1, 127800, Note_on_c, 0, 94, 52
1, 127890, Note_on_c, 0, 94, 0
1, 128100, Note_on_c, 0, 51, 30
1, 128129, Control_c, 0, 64, 0
1, 128130, Note_on_c, 0, 58, 33
1, 128160, Tempo, 498960
1, 128160, Note_on_c, 0, 70, 45
1, 128160, Note_on_c, 0, 67, 37
1, 128195, Control_c, 0, 64, 127
1, 128220, Note_on_c, 0, 67, 0
1, 128220, Note_on_c, 0, 51, 0
1, 128220, Note_on_c, 0, 58, 0
1, 128240, Note_on_c, 0, 70, 0
1, 128240, Note_on_c, 0, 75, 38
1, 128320, Note_on_c, 0, 75, 0
1, 128320, Note_on_c, 0, 85, 50
1, 128400, Note_on_c, 0, 85, 0
1, 128400, Note_on_c, 0, 75, 38
1, 128480, Note_on_c, 0, 75, 0
1, 128480, Note_on_c, 0, 77, 38
1, 128560, Note_on_c, 0, 77, 0
1, 128560, Note_on_c, 0, 75, 40
1, 128640, Tempo, 518359
1, 128640, Note_on_c, 0, 75, 0
1, 128640, Note_on_c, 0, 68, 45
1, 128640, Note_on_c, 0, 39, 35
1, 128646, Control_c, 0, 64, 0
1, 128683, Control_c, 0, 64, 127
1, 128720, Note_on_c, 0, 68, 0
1, 128720, Note_on_c, 0, 75, 38
1, 128760, Note_on_c, 0, 39, 0
1, 128800, Note_on_c, 0, 75, 0
1, 128800, Note_on_c, 0, 84, 48
1, 128880, Note_on_c, 0, 84, 0
1, 128880, Note_on_c, 0, 75, 38
1, 128960, Note_on_c, 0, 75, 0
1, 128960, Note_on_c, 0, 77, 38
1, 129040, Note_on_c, 0, 77, 0
1, 129040, Note_on_c, 0, 75, 38
1, 129060, Note_on_c, 0, 48, 31
1, 129090, Note_on_c, 0, 56, 34
1, 129120, Tempo, 506372
1, 129120, Note_on_c, 0, 75, 0
1, 129120, Note_on_c, 0, 67, 40
1, 129120, Note_on_c, 0, 63, 36
1, 129180, Note_on_c, 0, 56, 0
1, 129180, Note_on_c, 0, 48, 0
1, 129210, Note_on_c, 0, 67, 0
1, 129210, Note_on_c, 0, 63, 0
1, 129240, Note_on_c, 0, 82, 46
1, 129330, Note_on_c, 0, 82, 0
1, 129360, Note_on_c, 0, 65, 39
1, 129450, Note_on_c, 0, 65, 0
1, 129480, Note_on_c, 0, 80, 47
1, 129570, Note_on_c, 0, 80, 0
1, 129600, Tempo, 498960
1, 129600, Note_on_c, 0, 63, 39
1, 129690, Note_on_c, 0, 63, 0
1, 129720, Note_on_c, 0, 79, 45
1, 129810, Note_on_c, 0, 79, 0
1, 129840, Note_on_c, 0, 62, 40
1, 129930, Note_on_c, 0, 62, 0
1, 129960, Note_on_c, 0, 78, 45
1, 130020, Note_on_c, 0, 51, 32
1, 130050, Note_on_c, 0, 78, 0
1, 130050, Note_on_c, 0, 58, 34
1, 130080, Tempo, 498960
1, 130080, Note_on_c, 0, 63, 39
1, 130080, Note_on_c, 0, 67, 36
1, 130094, Control_c, 0, 64, 0
1, 130137, Control_c, 0, 64, 127
1, 130140, Note_on_c, 0, 67, 0
1, 130140, Note_on_c, 0, 51, 0
1, 130140, Note_on_c, 0, 58, 0
1, 130170, Note_on_c, 0, 63, 0
1, 130200, Note_on_c, 0, 79, 43
1, 130290, Note_on_c, 0, 79, 0
1, 130320, Note_on_c, 0, 64, 38
1, 130410, Note_on_c, 0, 64, 0
1, 130440, Note_on_c, 0, 79, 37
1, 130528, Tempo, 521739
1, 130530, Note_on_c, 0, 79, 0
1, 130560, Note_on_c, 0, 65, 44
1, 130560, Note_on_c, 0, 39, 35
1, 130567, Control_c, 0, 64, 0
1, 130635, Control_c, 0, 64, 127
1, 130680, Note_on_c, 0, 39, 0
1, 130680, Note_on_c, 0, 65, 0
1, 130680, Note_on_c, 0, 80, 37
1, 130781, Tempo, 518359
1, 130800, Note_on_c, 0, 80, 0
1, 130800, Note_on_c, 0, 67, 47
1, 130920, Note_on_c, 0, 67, 0
1, 130920, Note_on_c, 0, 82, 38
1, 131033, Tempo, 515021
1, 131040, Note_on_c, 0, 82, 0
1, 131040, Note_on_c, 0, 68, 47
1, 131040, Note_on_c, 0, 59, 30
1, 131040, Note_on_c, 0, 56, 25
1, 131040, Note_on_c, 0, 47, 25
1, 131040, Note_on_c, 0, 51, 25
1, 131160, Note_on_c, 0, 68, 0
1, 131160, Note_on_c, 0, 83, 38
1, 131261, Tempo, 511727
1, 131280, Note_on_c, 0, 83, 0
1, 131280, Note_on_c, 0, 71, 45
1, 131400, Note_on_c, 0, 71, 0
1, 131400, Note_on_c, 0, 88, 33
1, 131513, Tempo, 508475
1, 131520, Note_on_c, 0, 88, 0
1, 131520, Note_on_c, 0, 74, 47
1, 131640, Note_on_c, 0, 74, 0
1, 131640, Note_on_c, 0, 89, 37
1, 131760, Note_on_c, 0, 89, 0
1, 131760, Note_on_c, 0, 76, 45
1, 131766, Tempo, 505263
1, 131880, Note_on_c, 0, 76, 0
1, 131880, Note_on_c, 0, 91, 33
1, 131993, Tempo, 502092
1, 132000, Note_on_c, 0, 91, 0
1, 132000, Note_on_c, 0, 51, 0
1, 132000, Note_on_c, 0, 59, 0
1, 132000, Note_on_c, 0, 56, 0
1, 132000, Note_on_c, 0, 47, 0
1, 132000, Note_on_c, 0, 77, 45
1, 132000, Note_on_c, 0, 59, 30
1, 132000, Note_on_c, 0, 47, 25
1, 132000, Note_on_c, 0, 51, 25
1, 132000, Note_on_c, 0, 56, 25
1, 132011, Control_c, 0, 64, 0
1, 132075, Control_c, 0, 64, 127
1, 132120, Note_on_c, 0, 77, 0
1, 132120, Note_on_c, 0, 92, 33
1, 132240, Note_on_c, 0, 92, 0
1, 132240, Note_on_c, 0, 79, 47
1, 132246, Tempo, 498960
1, 132360, Note_on_c, 0, 79, 0
1, 132360, Note_on_c, 0, 94, 34
1, 132473, Tempo, 495868
1, 132480, Note_on_c, 0, 94, 0
1, 132480, Note_on_c, 0, 80, 52
1, 132600, Note_on_c, 0, 80, 0
1, 132600, Note_on_c, 0, 95, 37
1, 132720, Note_on_c, 0, 95, 0
1, 132720, Note_on_c, 0, 83, 50
1, 132840, Note_on_c, 0, 83, 0
1, 132840, Note_on_c, 0, 100, 37
1, 132960, Note_on_c, 0, 100, 0
1, 132960, Note_on_c, 0, 56, 0
1, 132960, Note_on_c, 0, 59, 0
1, 132960, Note_on_c, 0, 47, 0
1, 132960, Note_on_c, 0, 51, 0
1, 132960, Note_on_c, 0, 86, 57
1, 132960, Note_on_c, 0, 59, 30
1, 132960, Note_on_c, 0, 47, 25
1, 132960, Note_on_c, 0, 51, 25
1, 132960, Note_on_c, 0, 56, 25
1, 132980, Control_c, 0, 64, 0
1, 133075, Control_c, 0, 64, 127
1, 133080, Note_on_c, 0, 86, 0
1, 133080, Note_on_c, 0, 101, 43
1, 133200, Note_on_c, 0, 101, 0
1, 133200, Note_on_c, 0, 85, 53
1, 133320, Note_on_c, 0, 85, 0
1, 133320, Note_on_c, 0, 100, 44
1, 133408, Tempo, 498960
1, 133440, Note_on_c, 0, 100, 0
1, 133440, Note_on_c, 0, 56, 0
1, 133440, Note_on_c, 0, 59, 0
1, 133440, Note_on_c, 0, 47, 0
1, 133440, Note_on_c, 0, 51, 0
1, 133440, Note_on_c, 0, 86, 58
1, 133440, Note_on_c, 0, 59, 30
1, 133440, Note_on_c, 0, 47, 25
1, 133440, Note_on_c, 0, 51, 25
1, 133440, Note_on_c, 0, 56, 25
1, 133460, Control_c, 0, 64, 0
1, 133484, Tempo, 502092
1, 133534, Tempo, 505263
1, 133537, Control_c, 0, 64, 127
1, 133560, Note_on_c, 0, 86, 0
1, 133560, Note_on_c, 0, 101, 44
1, 133585, Tempo, 508475
1, 133661, Tempo, 511727
1, 133680, Note_on_c, 0, 101, 0
1, 133680, Note_on_c, 0, 85, 53
1, 133711, Tempo, 515021
1, 133762, Tempo, 518359
1, 133800, Note_on_c, 0, 85, 0
1, 133800, Note_on_c, 0, 100, 44
1, 133838, Tempo, 521739
1, 133888, Tempo, 525164
1, 133920, Note_on_c, 0, 100, 0
1, 133920, Note_on_c, 0, 56, 0
1, 133920, Note_on_c, 0, 59, 0
1, 133920, Note_on_c, 0, 47, 0
1, 133920, Note_on_c, 0, 51, 0
1, 133920, Note_on_c, 0, 86, 62
1, 133920, Note_on_c, 0, 59, 30
1, 133920, Note_on_c, 0, 47, 25
1, 133920, Note_on_c, 0, 51, 25
1, 133920, Note_on_c, 0, 56, 25
1, 133939, Tempo, 528634
1, 133940, Control_c, 0, 64, 0
1, 134012, Control_c, 0, 64, 127
1, 134014, Tempo, 532151
1, 134040, Note_on_c, 0, 86, 0
1, 134040, Note_on_c, 0, 101, 51
1, 134065, Tempo, 535714
1, 134115, Tempo, 539326
1, 134160, Note_on_c, 0, 101, 0
1, 134160, Note_on_c, 0, 85, 60
1, 134191, Tempo, 542986
1, 134242, Tempo, 546697
1, 134280, Note_on_c, 0, 85, 0
1, 134280, Note_on_c, 0, 100, 57
1, 134292, Tempo, 550459
1, 134343, Tempo, 554273
1, 134398, Tempo, 693642
1, 134400, Note_on_c, 0, 100, 0
1, 134400, Note_on_c, 0, 86, 46
1, 134423, Tempo, 699708
1, 134460, Note_on_c, 0, 86, 0
1, 134460, Note_on_c, 0, 92, 50
1, 134473, Tempo, 693642
1, 134499, Tempo, 687679
1, 134520, Note_on_c, 0, 92, 0
1, 134520, Note_on_c, 0, 95, 54
1, 134549, Tempo, 681818
1, 134575, Tempo, 676056
1, 134580, Note_on_c, 0, 95, 0
1, 134580, Note_on_c, 0, 98, 59
1, 134625, Tempo, 670391
1, 134640, Note_on_c, 0, 98, 0
1, 134640, Note_on_c, 0, 103, 66
1, 134650, Tempo, 664820
1, 134676, Tempo, 659341
1, 134700, Note_on_c, 0, 103, 0
1, 134700, Note_on_c, 0, 102, 49
1, 134726, Tempo, 653951
1, 134751, Tempo, 648649
1, 134760, Note_on_c, 0, 102, 0
1, 134760, Note_on_c, 0, 98, 49
1, 134802, Tempo, 643432
1, 134820, Note_on_c, 0, 98, 0
1, 134820, Note_on_c, 0, 95, 48
1, 134827, Tempo, 638298
1, 134852, Tempo, 633245
1, 134880, Note_on_c, 0, 95, 0
1, 134880, Note_on_c, 0, 102, 59
1, 134903, Tempo, 628272
1, 134928, Tempo, 623377
1, 134940, Note_on_c, 0, 102, 0
1, 134940, Note_on_c, 0, 101, 46
1, 134979, Tempo, 618557
1, 135000, Note_on_c, 0, 101, 0
1, 135000, Note_on_c, 0, 98, 45
1, 135004, Tempo, 613811
1, 135029, Tempo, 609137
1, 135060, Note_on_c, 0, 98, 0
1, 135060, Note_on_c, 0, 95, 45
1, 135080, Tempo, 604534
1, 135105, Tempo, 600000
1, 135120, Note_on_c, 0, 95, 0
1, 135120, Note_on_c, 0, 101, 57
1, 135156, Tempo, 595533
1, 135180, Note_on_c, 0, 101, 0
1, 135180, Note_on_c, 0, 100, 41
1, 135181, Tempo, 591133
1, 135206, Tempo, 586797
1, 135240, Note_on_c, 0, 100, 0
1, 135240, Note_on_c, 0, 95, 41
1, 135257, Tempo, 582524
1, 135282, Tempo, 578313
1, 135300, Note_on_c, 0, 95, 0
1, 135300, Note_on_c, 0, 92, 41
1, 135332, Tempo, 574163
1, 135358, Tempo, 570071
1, 135360, Note_on_c, 0, 92, 0
1, 135360, Note_on_c, 0, 56, 0
1, 135360, Note_on_c, 0, 59, 0
1, 135360, Note_on_c, 0, 47, 0
1, 135360, Note_on_c, 0, 51, 0
1, 135360, Note_on_c, 0, 100, 55
1, 135366, Control_c, 0, 64, 0
1, 135383, Tempo, 566038
1, 135397, Control_c, 0, 64, 127
1, 135420, Note_on_c, 0, 100, 0
1, 135420, Note_on_c, 0, 99, 40
1, 135433, Tempo, 562061
1, 135459, Tempo, 558140
1, 135480, Note_on_c, 0, 99, 0
1, 135480, Note_on_c, 0, 95, 40
1, 135509, Tempo, 554273
1, 135535, Tempo, 550459
1, 135540, Note_on_c, 0, 95, 0
1, 135540, Note_on_c, 0, 92, 40
1, 135560, Tempo, 546697
1, 135600, Note_on_c, 0, 92, 0
1, 135600, Note_on_c, 0, 99, 53
1, 135610, Tempo, 542986
1, 135636, Tempo, 539326
1, 135660, Note_on_c, 0, 99, 0
1, 135660, Note_on_c, 0, 98, 40
1, 135686, Tempo, 535714
1, 135711, Tempo, 532151
1, 135720, Note_on_c, 0, 98, 0
1, 135720, Note_on_c, 0, 92, 40
1, 135737, Tempo, 528634
1, 135780, Note_on_c, 0, 92, 0
1, 135780, Note_on_c, 0, 89, 40
1, 135787, Tempo, 525164
1, 135801, Tempo, 521739
1, 135840, Note_on_c, 0, 89, 0
1, 135840, Note_on_c, 0, 98, 52
1, 135881, Tempo, 518359
1, 135900, Note_on_c, 0, 98, 0
1, 135900, Note_on_c, 0, 97, 38
1, 135960, Note_on_c, 0, 97, 0
1, 135960, Note_on_c, 0, 92, 38
1, 135961, Tempo, 515021
1, 136020, Note_on_c, 0, 92, 0
1, 136020, Note_on_c, 0, 89, 38
1, 136041, Tempo, 511727
1, 136080, Note_on_c, 0, 89, 0
1, 136080, Note_on_c, 0, 97, 50
1, 136121, Tempo, 508475
1, 136140, Note_on_c, 0, 97, 0
1, 136140, Note_on_c, 0, 96, 38
1, 136200, Note_on_c, 0, 96, 0
1, 136200, Note_on_c, 0, 92, 38
1, 136201, Tempo, 505263
1, 136241, Tempo, 502092
1, 136260, Note_on_c, 0, 92, 0
1, 136260, Note_on_c, 0, 89, 38
1, 136292, Tempo, 515021
1, 136320, Tempo, 498960
1, 136320, Note_on_c, 0, 89, 0
1, 136320, Note_on_c, 0, 96, 53
1, 136329, Control_c, 0, 64, 0
1, 136352, Control_c, 0, 64, 127
1, 136380, Note_on_c, 0, 96, 0
1, 136380, Note_on_c, 0, 95, 35
1, 136440, Note_on_c, 0, 95, 0
1, 136440, Note_on_c, 0, 92, 35
1, 136500, Note_on_c, 0, 92, 0
1, 136500, Note_on_c, 0, 89, 35
1, 136560, Note_on_c, 0, 89, 0
1, 136560, Note_on_c, 0, 95, 52
1, 136620, Note_on_c, 0, 95, 0
1, 136620, Note_on_c, 0, 94, 35
1, 136680, Note_on_c, 0, 94, 0
1, 136680, Note_on_c, 0, 89, 35
1, 136740, Note_on_c, 0, 89, 0
1, 136740, Note_on_c, 0, 86, 35
1, 136800, Note_on_c, 0, 86, 0
1, 136800, Note_on_c, 0, 94, 51
1, 136860, Note_on_c, 0, 94, 0
1, 136860, Note_on_c, 0, 93, 35
1, 136920, Note_on_c, 0, 93, 0
1, 136920, Note_on_c, 0, 89, 35
1, 136980, Note_on_c, 0, 89, 0
1, 136980, Note_on_c, 0, 86, 35
1, 137040, Note_on_c, 0, 86, 0
1, 137040, Note_on_c, 0, 93, 52
1, 137100, Note_on_c, 0, 93, 0
1, 137100, Note_on_c, 0, 92, 35
1, 137160, Tempo, 562061
1, 137160, Note_on_c, 0, 92, 0
1, 137160, Note_on_c, 0, 89, 35
1, 137220, Note_on_c, 0, 89, 0
1, 137220, Note_on_c, 0, 86, 35
1, 137280, Note_on_c, 0, 86, 0
1, 137280, Note_on_c, 0, 92, 54
1, 137297, Control_c, 0, 64, 0
1, 137303, Tempo, 511727
1, 137337, Control_c, 0, 64, 127
1, 137340, Note_on_c, 0, 92, 0
1, 137340, Note_on_c, 0, 91, 38
1, 137360, Tempo, 502092
1, 137400, Note_on_c, 0, 91, 0
1, 137400, Note_on_c, 0, 86, 35
1, 137460, Note_on_c, 0, 86, 0
1, 137460, Note_on_c, 0, 83, 35
1, 137520, Note_on_c, 0, 83, 0
1, 137520, Note_on_c, 0, 91, 53
1, 137580, Note_on_c, 0, 91, 0
1, 137580, Note_on_c, 0, 90, 35
1, 137640, Note_on_c, 0, 90, 0
1, 137640, Note_on_c, 0, 86, 35
1, 137700, Note_on_c, 0, 86, 0
1, 137700, Note_on_c, 0, 83, 35
1, 137760, Tempo, 505263
1, 137760, Note_on_c, 0, 83, 0
1, 137760, Note_on_c, 0, 90, 54
1, 137820, Note_on_c, 0, 90, 0
1, 137820, Note_on_c, 0, 89, 35
1, 137880, Note_on_c, 0, 89, 0
1, 137880, Note_on_c, 0, 86, 35
1, 137940, Note_on_c, 0, 86, 0
1, 137940, Note_on_c, 0, 83, 35
1, 138000, Note_on_c, 0, 83, 0
1, 138000, Note_on_c, 0, 89, 53
1, 138060, Note_on_c, 0, 89, 0
1, 138060, Note_on_c, 0, 88, 35
1, 138120, Tempo, 558140
1, 138120, Note_on_c, 0, 88, 0
1, 138120, Note_on_c, 0, 83, 35
1, 138180, Note_on_c, 0, 83, 0
1, 138180, Note_on_c, 0, 80, 35
1, 138240, Note_on_c, 0, 80, 0
1, 138240, Note_on_c, 0, 88, 55
1, 138245, Control_c, 0, 64, 0
1, 138277, Control_c, 0, 64, 127
1, 138288, Tempo, 508475
1, 138300, Note_on_c, 0, 88, 0
1, 138300, Note_on_c, 0, 87, 35
1, 138320, Tempo, 502092
1, 138360, Note_on_c, 0, 87, 0
1, 138360, Note_on_c, 0, 83, 35
1, 138420, Note_on_c, 0, 83, 0
1, 138420, Note_on_c, 0, 80, 35
1, 138480, Note_on_c, 0, 80, 0
1, 138480, Note_on_c, 0, 87, 55
1, 138540, Note_on_c, 0, 87, 0
1, 138540, Note_on_c, 0, 86, 35
1, 138600, Note_on_c, 0, 86, 0
1, 138600, Note_on_c, 0, 80, 35
1, 138660, Note_on_c, 0, 80, 0
1, 138660, Note_on_c, 0, 77, 35
1, 138720, Note_on_c, 0, 77, 0
1, 138720, Note_on_c, 0, 86, 56
1, 138780, Note_on_c, 0, 86, 0
1, 138780, Note_on_c, 0, 85, 35
1, 138840, Note_on_c, 0, 85, 0
1, 138840, Note_on_c, 0, 80, 35
1, 138900, Note_on_c, 0, 80, 0
1, 138900, Note_on_c, 0, 77, 35
1, 138960, Note_on_c, 0, 77, 0
1, 138960, Note_on_c, 0, 85, 51
1, 139020, Note_on_c, 0, 85, 0
1, 139020, Note_on_c, 0, 84, 35
1, 139080, Tempo, 566038
1, 139080, Note_on_c, 0, 84, 0
1, 139080, Note_on_c, 0, 80, 35
1, 139140, Note_on_c, 0, 80, 0
1, 139140, Note_on_c, 0, 77, 35
1, 139198, Tempo, 511727
1, 139200, Tempo, 511727
1, 139200, Note_on_c, 0, 77, 0
1, 139200, Note_on_c, 0, 84, 55
1, 139214, Control_c, 0, 64, 0
1, 139260, Note_on_c, 0, 84, 0
1, 139260, Note_on_c, 0, 83, 35
1, 139277, Control_c, 0, 64, 127
1, 139320, Note_on_c, 0, 83, 0
1, 139320, Note_on_c, 0, 80, 35
1, 139380, Note_on_c, 0, 80, 0
1, 139380, Note_on_c, 0, 77, 35
1, 139440, Note_on_c, 0, 77, 0
1, 139440, Note_on_c, 0, 83, 53
1, 139500, Note_on_c, 0, 83, 0
1, 139500, Note_on_c, 0, 82, 35
1, 139560, Note_on_c, 0, 82, 0
1, 139560, Note_on_c, 0, 77, 35
1, 139620, Note_on_c, 0, 77, 0
1, 139620, Note_on_c, 0, 74, 35
1, 139680, Note_on_c, 0, 74, 0
1, 139680, Note_on_c, 0, 82, 55
1, 139740, Note_on_c, 0, 82, 0
1, 139740, Note_on_c, 0, 81, 35
1, 139800, Note_on_c, 0, 81, 0
1, 139800, Note_on_c, 0, 77, 35
1, 139860, Note_on_c, 0, 77, 0
1, 139860, Note_on_c, 0, 74, 35
1, 139920, Note_on_c, 0, 74, 0
1, 139920, Note_on_c, 0, 81, 53
1, 139980, Note_on_c, 0, 81, 0
1, 139980, Note_on_c, 0, 80, 35
1, 140040, Tempo, 574163
1, 140040, Note_on_c, 0, 80, 0
1, 140040, Note_on_c, 0, 77, 35
1, 140100, Note_on_c, 0, 77, 0
1, 140100, Note_on_c, 0, 74, 35
1, 140160, Tempo, 515021
1, 140160, Note_on_c, 0, 74, 0
1, 140160, Note_on_c, 0, 80, 56
1, 140175, Control_c, 0, 64, 0
1, 140200, Control_c, 0, 64, 127
1, 140220, Note_on_c, 0, 80, 0
1, 140220, Note_on_c, 0, 79, 37
1, 140280, Note_on_c, 0, 79, 0
1, 140280, Note_on_c, 0, 74, 34
1, 140340, Note_on_c, 0, 74, 0
1, 140340, Note_on_c, 0, 71, 35
1, 140400, Note_on_c, 0, 71, 0
1, 140400, Note_on_c, 0, 79, 56
1, 140460, Note_on_c, 0, 79, 0
1, 140460, Note_on_c, 0, 78, 38
1, 140520, Note_on_c, 0, 78, 0
1, 140520, Note_on_c, 0, 74, 36
1, 140580, Note_on_c, 0, 74, 0
1, 140580, Note_on_c, 0, 71, 36
1, 140640, Note_on_c, 0, 71, 0
1, 140640, Note_on_c, 0, 78, 57
1, 140695, Tempo, 518359
1, 140700, Note_on_c, 0, 78, 0
1, 140700, Note_on_c, 0, 77, 40
1, 140760, Note_on_c, 0, 77, 0
1, 140760, Note_on_c, 0, 74, 35
1, 140820, Note_on_c, 0, 74, 0
1, 140820, Note_on_c, 0, 71, 35
1, 140880, Note_on_c, 0, 71, 0
1, 140880, Note_on_c, 0, 77, 55
1, 140922, Tempo, 521739
1, 140940, Note_on_c, 0, 77, 0
1, 140940, Note_on_c, 0, 76, 40
1, 141000, Note_on_c, 0, 76, 0
1, 141000, Note_on_c, 0, 71, 36
1, 141060, Note_on_c, 0, 71, 0
1, 141060, Note_on_c, 0, 68, 36
1, 141120, Note_on_c, 0, 68, 0
1, 141120, Note_on_c, 0, 76, 58
1, 141150, Tempo, 525164
1, 141180, Note_on_c, 0, 76, 0
1, 141180, Note_on_c, 0, 75, 39
1, 141240, Note_on_c, 0, 75, 0
1, 141240, Note_on_c, 0, 71, 35
1, 141300, Note_on_c, 0, 71, 0
1, 141300, Note_on_c, 0, 68, 36
1, 141360, Note_on_c, 0, 68, 0
1, 141360, Note_on_c, 0, 75, 58
1, 141377, Tempo, 528634
1, 141420, Note_on_c, 0, 75, 0
1, 141420, Note_on_c, 0, 74, 39
1, 141480, Note_on_c, 0, 74, 0
1, 141480, Note_on_c, 0, 68, 37
1, 141540, Note_on_c, 0, 68, 0
1, 141540, Note_on_c, 0, 65, 37
1, 141600, Note_on_c, 0, 65, 0
1, 141600, Note_on_c, 0, 74, 61
1, 141604, Tempo, 532151
1, 141660, Note_on_c, 0, 74, 0
1, 141660, Note_on_c, 0, 73, 45
1, 141720, Note_on_c, 0, 73, 0
1, 141720, Note_on_c, 0, 68, 40
1, 141780, Note_on_c, 0, 68, 0
1, 141780, Note_on_c, 0, 65, 40
1, 141832, Tempo, 535714
1, 141840, Note_on_c, 0, 65, 0
1, 141840, Note_on_c, 0, 73, 61
1, 141900, Note_on_c, 0, 73, 0
1, 141900, Note_on_c, 0, 72, 45
1, 141960, Note_on_c, 0, 72, 0
1, 141960, Note_on_c, 0, 68, 39
1, 142020, Note_on_c, 0, 68, 0
1, 142020, Note_on_c, 0, 65, 39
1, 142059, Tempo, 539326
1, 142080, Note_on_c, 0, 65, 0
1, 142080, Note_on_c, 0, 72, 63
1, 142090, Control_c, 0, 64, 0
1, 142135, Control_c, 0, 64, 127
1, 142140, Note_on_c, 0, 72, 0
1, 142140, Note_on_c, 0, 71, 47
1, 142200, Note_on_c, 0, 71, 0
1, 142200, Note_on_c, 0, 68, 43
1, 142260, Note_on_c, 0, 68, 0
1, 142260, Note_on_c, 0, 65, 44
1, 142320, Note_on_c, 0, 65, 0
1, 142320, Note_on_c, 0, 71, 63
1, 142380, Note_on_c, 0, 71, 0
1, 142380, Note_on_c, 0, 70, 49
1, 142440, Note_on_c, 0, 70, 0
1, 142440, Note_on_c, 0, 65, 46
1, 142500, Note_on_c, 0, 65, 0
1, 142500, Note_on_c, 0, 62, 39
1, 142560, Note_on_c, 0, 62, 0
1, 142560, Note_on_c, 0, 61, 66
1, 142580, Control_c, 0, 64, 0
1, 142632, Control_c, 0, 64, 127
1, 142640, Note_on_c, 0, 61, 0
1, 142640, Note_on_c, 0, 62, 39
1, 142715, Tempo, 518359
1, 142720, Note_on_c, 0, 62, 0
1, 142720, Note_on_c, 0, 65, 39
1, 142741, Tempo, 508475
1, 142766, Tempo, 495868
1, 142791, Tempo, 483871
1, 142800, Note_on_c, 0, 65, 0
1, 142800, Note_on_c, 0, 68, 40
1, 142816, Tempo, 472441
1, 142842, Tempo, 461538
1, 142867, Tempo, 453686
1, 142880, Note_on_c, 0, 68, 0
1, 142880, Note_on_c, 0, 69, 41
1, 142892, Tempo, 443623
1, 142918, Tempo, 433996
1, 142943, Tempo, 418118
1, 142960, Note_on_c, 0, 69, 0
1, 142960, Note_on_c, 0, 70, 42
1, 143040, Note_on_c, 0, 70, 0
1, 143040, Note_on_c, 0, 71, 43
1, 143069, Tempo, 415945
1, 143120, Note_on_c, 0, 71, 0
1, 143120, Note_on_c, 0, 74, 43
1, 143195, Tempo, 413793
1, 143200, Note_on_c, 0, 74, 0
1, 143200, Note_on_c, 0, 77, 44
1, 143280, Note_on_c, 0, 77, 0
1, 143280, Note_on_c, 0, 80, 45
1, 143296, Tempo, 411664
1, 143360, Note_on_c, 0, 80, 0
1, 143360, Note_on_c, 0, 81, 46
1, 143423, Tempo, 409556
1, 143440, Note_on_c, 0, 81, 0
1, 143440, Note_on_c, 0, 82, 47
1, 143520, Note_on_c, 0, 82, 0
1, 143520, Note_on_c, 0, 83, 49
1, 143524, Tempo, 407470
1, 143600, Note_on_c, 0, 83, 0
1, 143600, Note_on_c, 0, 86, 50
1, 143650, Tempo, 405405
1, 143680, Note_on_c, 0, 86, 0
1, 143680, Note_on_c, 0, 89, 51
1, 143751, Tempo, 403361
1, 143760, Note_on_c, 0, 89, 0
1, 143760, Note_on_c, 0, 92, 53
1, 143840, Note_on_c, 0, 92, 0
1, 143840, Note_on_c, 0, 93, 54
1, 143878, Tempo, 401338
1, 143920, Note_on_c, 0, 93, 0
1, 143920, Note_on_c, 0, 94, 56
1, 144000, Note_on_c, 0, 94, 0
1, 144000, Note_on_c, 0, 95, 63
1, 144002, Control_c, 0, 64, 0
1, 144035, Control_c, 0, 64, 127
1, 144080, Note_on_c, 0, 95, 0
1, 144080, Note_on_c, 0, 98, 51
1, 144160, Note_on_c, 0, 98, 0
1, 144160, Note_on_c, 0, 96, 51
1, 144240, Note_on_c, 0, 96, 0
1, 144240, Note_on_c, 0, 93, 57
1, 144320, Note_on_c, 0, 93, 0
1, 144320, Note_on_c, 0, 96, 45
1, 144400, Note_on_c, 0, 96, 0
1, 144400, Note_on_c, 0, 94, 45
1, 144480, Note_on_c, 0, 94, 0
1, 144480, Note_on_c, 0, 91, 53
1, 144560, Note_on_c, 0, 91, 0
1, 144560, Note_on_c, 0, 94, 43
1, 144640, Note_on_c, 0, 94, 0
1, 144640, Note_on_c, 0, 92, 43
1, 144720, Note_on_c, 0, 92, 0
1, 144720, Note_on_c, 0, 88, 47
1, 144800, Note_on_c, 0, 88, 0
1, 144800, Note_on_c, 0, 91, 41
1, 144880, Note_on_c, 0, 91, 0
1, 144880, Note_on_c, 0, 89, 41
1, 144960, Note_on_c, 0, 89, 0
1, 144960, Note_on_c, 0, 85, 48
1, 145040, Note_on_c, 0, 85, 0
1, 145040, Note_on_c, 0, 87, 38
1, 145120, Note_on_c, 0, 87, 0
1, 145120, Note_on_c, 0, 86, 38
1, 145200, Note_on_c, 0, 86, 0
1, 145200, Note_on_c, 0, 83, 48
1, 145280, Note_on_c, 0, 83, 0
1, 145280, Note_on_c, 0, 86, 35
1, 145360, Note_on_c, 0, 86, 0
1, 145360, Note_on_c, 0, 84, 35
1, 145440, Note_on_c, 0, 84, 0
1, 145440, Note_on_c, 0, 81, 47
1, 145520, Note_on_c, 0, 81, 0
1, 145520, Note_on_c, 0, 84, 35
1, 145600, Note_on_c, 0, 84, 0
1, 145600, Note_on_c, 0, 82, 35
1, 145680, Note_on_c, 0, 82, 0
1, 145680, Note_on_c, 0, 79, 44
1, 145760, Note_on_c, 0, 79, 0
1, 145760, Note_on_c, 0, 82, 35
1, 145840, Note_on_c, 0, 82, 0
1, 145840, Note_on_c, 0, 80, 35
1, 145899, Tempo, 401338
1, 145920, Time_signature, 5, 2, 24, 8
1, 145920, Note_on_c, 0, 80, 0
1, 145920, Note_on_c, 0, 76, 44
1, 145937, Control_c, 0, 64, 0
1, 145972, Control_c, 0, 64, 127
1, 146000, Tempo, 403361
1, 146000, Note_on_c, 0, 76, 0
1, 146000, Note_on_c, 0, 79, 35
1, 146076, Tempo, 405405
1, 146080, Note_on_c, 0, 79, 0
1, 146080, Note_on_c, 0, 77, 35
1, 146160, Note_on_c, 0, 77, 0
1, 146160, Note_on_c, 0, 73, 41
1, 146177, Tempo, 407470
1, 146240, Note_on_c, 0, 73, 0
1, 146240, Note_on_c, 0, 75, 35
1, 146253, Tempo, 409556
1, 146320, Note_on_c, 0, 75, 0
1, 146320, Note_on_c, 0, 74, 35
1, 146354, Tempo, 411664
1, 146400, Note_on_c, 0, 74, 0
1, 146400, Note_on_c, 0, 71, 41
1, 146430, Tempo, 413793
1, 146480, Note_on_c, 0, 71, 0
1, 146480, Note_on_c, 0, 74, 34
1, 146505, Tempo, 415945
1, 146560, Note_on_c, 0, 74, 0
1, 146560, Note_on_c, 0, 72, 34
1, 146607, Tempo, 418118
1, 146640, Note_on_c, 0, 72, 0
1, 146640, Note_on_c, 0, 68, 41
1, 146682, Tempo, 420315
1, 146720, Note_on_c, 0, 68, 0
1, 146720, Note_on_c, 0, 72, 33
1, 146783, Tempo, 422535
1, 146800, Note_on_c, 0, 72, 0
1, 146800, Note_on_c, 0, 70, 33
1, 146859, Tempo, 424779
1, 146880, Note_on_c, 0, 70, 0
1, 146880, Note_on_c, 0, 67, 40
1, 146894, Control_c, 0, 64, 0
1, 146935, Tempo, 427046
1, 146940, Control_c, 0, 64, 127
1, 146960, Note_on_c, 0, 67, 0
1, 146960, Note_on_c, 0, 70, 31
1, 147036, Tempo, 429338
1, 147040, Note_on_c, 0, 70, 0
1, 147040, Note_on_c, 0, 68, 31
1, 147112, Tempo, 431655
1, 147120, Note_on_c, 0, 68, 0
1, 147120, Note_on_c, 0, 64, 40
1, 147200, Note_on_c, 0, 64, 0
1, 147200, Note_on_c, 0, 67, 29
1, 147213, Tempo, 433996
1, 147280, Note_on_c, 0, 67, 0
1, 147280, Note_on_c, 0, 65, 29
1, 147289, Tempo, 436364
1, 147360, Note_on_c, 0, 65, 0
1, 147360, Note_on_c, 0, 61, 39
1, 147364, Tempo, 438757
1, 147440, Note_on_c, 0, 61, 0
1, 147440, Note_on_c, 0, 63, 30
1, 147465, Tempo, 441176
1, 147520, Note_on_c, 0, 63, 0
1, 147520, Note_on_c, 0, 62, 30
1, 147541, Tempo, 443623
1, 147600, Note_on_c, 0, 62, 0
1, 147600, Note_on_c, 0, 59, 39
1, 147642, Tempo, 446097
1, 147680, Note_on_c, 0, 59, 0
1, 147680, Note_on_c, 0, 62, 30
1, 147718, Tempo, 448598
1, 147743, Tempo, 446097
1, 147760, Note_on_c, 0, 62, 0
1, 147760, Note_on_c, 0, 60, 30
1, 147818, Tempo, 443623
1, 147832, Tempo, 446097
1, 147840, Note_on_c, 0, 60, 0
1, 147840, Note_on_c, 0, 57, 38
1, 147842, Tempo, 448598
1, 147852, Control_c, 0, 64, 0
1, 147856, Tempo, 451128
1, 147866, Tempo, 453686
1, 147880, Tempo, 456274
1, 147883, Control_c, 0, 64, 127
1, 147890, Tempo, 458891
1, 147904, Tempo, 461538
1, 147914, Tempo, 464217
1, 147920, Note_on_c, 0, 57, 0
1, 147920, Note_on_c, 0, 58, 31
1, 147928, Tempo, 466926
1, 147938, Tempo, 469667
1, 147952, Tempo, 472441
1, 147962, Tempo, 475248
1, 147976, Tempo, 478088
1, 147986, Tempo, 480962
1, 148000, Tempo, 483871
1, 148000, Note_on_c, 0, 58, 0
1, 148000, Note_on_c, 0, 60, 31
1, 148010, Tempo, 486815
1, 148024, Tempo, 489796
1, 148034, Tempo, 492813
1, 148048, Tempo, 495868
1, 148058, Tempo, 498960
1, 148072, Tempo, 502092
1, 148080, Note_on_c, 0, 60, 0
1, 148080, Note_on_c, 0, 58, 39
1, 148082, Tempo, 505263
1, 148096, Tempo, 508475
1, 148106, Tempo, 511727
1, 148120, Tempo, 515021
1, 148130, Tempo, 518359
1, 148144, Tempo, 521739
1, 148154, Tempo, 525164
1, 148160, Note_on_c, 0, 58, 0
1, 148160, Note_on_c, 0, 57, 32
1, 148168, Tempo, 528634
1, 148178, Tempo, 532151
1, 148192, Tempo, 535714
1, 148202, Tempo, 539326
1, 148216, Tempo, 542986
1, 148226, Tempo, 546697
1, 148240, Tempo, 681818
1, 148240, Note_on_c, 0, 57, 0
1, 148240, Note_on_c, 0, 58, 47
1, 148320, Time_signature, 2, 2, 24, 8
1, 148320, Tempo, 759494
1, 148320, Marker_t, "Allegretto"
1, 148320, Note_on_c, 0, 58, 0
1, 148320, Note_on_c, 0, 62, 49
1, 148337, Control_c, 0, 64, 0
1, 148350, Note_on_c, 0, 62, 0
1, 148440, Note_on_c, 0, 53, 39
1, 148560, Tempo, 681818
1, 148560, Note_on_c, 0, 53, 0
1, 148560, Note_on_c, 0, 62, 56
1, 148560, Note_on_c, 0, 46, 41
1, 148680, Note_on_c, 0, 46, 0
1, 148680, Note_on_c, 0, 39, 34
1, 148800, Tempo, 633245
1, 148800, Note_on_c, 0, 62, 0
1, 148800, Note_on_c, 0, 60, 52
1, 148860, Note_on_c, 0, 60, 0
1, 148920, Note_on_c, 0, 39, 0
1, 148920, Note_on_c, 0, 53, 40
1, 149040, Tempo, 604534
1, 149040, Note_on_c, 0, 53, 0
1, 149040, Note_on_c, 0, 60, 56
1, 149040, Note_on_c, 0, 46, 41
1, 149160, Note_on_c, 0, 46, 0
1, 149160, Note_on_c, 0, 39, 35
1, 149280, Tempo, 633245
1, 149280, Note_on_c, 0, 60, 0
1, 149280, Note_on_c, 0, 55, 52
1, 149340, Note_on_c, 0, 55, 0
1, 149400, Note_on_c, 0, 39, 0
1, 149400, Note_on_c, 0, 51, 37
1, 149520, Tempo, 613811
1, 149520, Note_on_c, 0, 51, 0
1, 149520, Note_on_c, 0, 58, 46
1, 149520, Note_on_c, 0, 46, 41
1, 149610, Note_on_c, 0, 58, 0
1, 149640, Note_on_c, 0, 46, 0
1, 149640, Note_on_c, 0, 39, 34
1, 149730, Note_on_c, 0, 60, 48
1, 149760, Note_on_c, 0, 60, 0
1, 149760, Note_on_c, 0, 58, 49
1, 149850, Note_on_c, 0, 58, 0
1, 149880, Note_on_c, 0, 39, 0
1, 149880, Note_on_c, 0, 51, 40
1, 149940, Note_on_c, 0, 57, 46
1, 150000, Tempo, 659341
1, 150000, Note_on_c, 0, 57, 0
1, 150000, Note_on_c, 0, 51, 0
1, 150000, Note_on_c, 0, 58, 52
1, 150000, Note_on_c, 0, 46, 41
1, 150060, Note_on_c, 0, 58, 0
1, 150120, Note_on_c, 0, 46, 0
1, 150120, Note_on_c, 0, 39, 37
1, 150240, Tempo, 613811
1, 150240, Note_on_c, 0, 53, 52
1, 150300, Note_on_c, 0, 53, 0
1, 150360, Note_on_c, 0, 39, 0
1, 150360, Note_on_c, 0, 55, 49
1, 150360, Note_on_c, 0, 50, 39
1, 150420, Note_on_c, 0, 55, 0
1, 150480, Tempo, 604534
1, 150480, Note_on_c, 0, 50, 0
1, 150480, Note_on_c, 0, 56, 50
1, 150480, Note_on_c, 0, 46, 41
1, 150540, Note_on_c, 0, 56, 0
1, 150600, Note_on_c, 0, 46, 0
1, 150600, Note_on_c, 0, 60, 50
1, 150600, Note_on_c, 0, 39, 36
1, 150660, Note_on_c, 0, 60, 0
1, 150720, Note_on_c, 0, 58, 52
1, 150780, Note_on_c, 0, 58, 0
1, 150840, Note_on_c, 0, 39, 0
1, 150840, Note_on_c, 0, 56, 48
1, 150840, Note_on_c, 0, 50, 39
1, 150900, Note_on_c, 0, 56, 0
1, 150960, Note_on_c, 0, 50, 0
1, 150960, Note_on_c, 0, 55, 49
1, 150960, Note_on_c, 0, 46, 41
1, 151020, Note_on_c, 0, 55, 0
1, 151080, Note_on_c, 0, 46, 0
1, 151080, Note_on_c, 0, 53, 49
1, 151080, Note_on_c, 0, 39, 36
1, 151125, Note_on_c, 0, 53, 0
1, 151170, Note_on_c, 0, 57, 46
1, 151200, Tempo, 638298
1, 151200, Note_on_c, 0, 57, 0
1, 151200, Note_on_c, 0, 58, 52
1, 151260, Note_on_c, 0, 58, 0
1, 151320, Note_on_c, 0, 39, 0
1, 151320, Note_on_c, 0, 55, 39
1, 151440, Tempo, 604534
1, 151440, Note_on_c, 0, 55, 0
1, 151440, Note_on_c, 0, 58, 46
1, 151440, Note_on_c, 0, 46, 41
1, 151530, Note_on_c, 0, 58, 0
1, 151560, Note_on_c, 0, 46, 0
1, 151560, Note_on_c, 0, 58, 48
1, 151560, Note_on_c, 0, 39, 35
1, 151620, Note_on_c, 0, 58, 0
1, 151620, Note_on_c, 0, 60, 48
1, 151680, Note_on_c, 0, 60, 0
1, 151680, Note_on_c, 0, 58, 49
1, 151725, Note_on_c, 0, 58, 0
1, 151800, Note_on_c, 0, 39, 0
1, 151800, Note_on_c, 0, 55, 39
1, 151860, Note_on_c, 0, 57, 46
1, 151920, Tempo, 648649
1, 151920, Note_on_c, 0, 57, 0
1, 151920, Note_on_c, 0, 55, 0
1, 151920, Note_on_c, 0, 58, 52
1, 151920, Note_on_c, 0, 46, 41
1, 152040, Note_on_c, 0, 46, 0
1, 152040, Note_on_c, 0, 39, 36
1, 152160, Tempo, 670391
1, 152160, Note_on_c, 0, 58, 0
1, 152160, Note_on_c, 0, 62, 49
1, 152190, Note_on_c, 0, 62, 0
1, 152280, Note_on_c, 0, 39, 0
1, 152280, Note_on_c, 0, 53, 39
1, 152400, Tempo, 633245
1, 152400, Note_on_c, 0, 53, 0
1, 152400, Note_on_c, 0, 62, 55
1, 152400, Note_on_c, 0, 46, 41
1, 152520, Note_on_c, 0, 46, 0
1, 152520, Note_on_c, 0, 39, 34
1, 152640, Tempo, 633245
1, 152640, Note_on_c, 0, 62, 0
1, 152640, Note_on_c, 0, 60, 52
1, 152700, Note_on_c, 0, 60, 0
1, 152760, Note_on_c, 0, 39, 0
1, 152760, Note_on_c, 0, 53, 40
1, 152880, Tempo, 604534
1, 152880, Note_on_c, 0, 53, 0
1, 152880, Note_on_c, 0, 60, 56
1, 152880, Note_on_c, 0, 46, 41
1, 153000, Note_on_c, 0, 46, 0
1, 153000, Note_on_c, 0, 39, 35
1, 153120, Tempo, 633245
1, 153120, Note_on_c, 0, 60, 0
1, 153120, Note_on_c, 0, 55, 49
1, 153180, Note_on_c, 0, 55, 0
1, 153240, Note_on_c, 0, 39, 0
1, 153240, Note_on_c, 0, 51, 37
1, 153360, Tempo, 613811
1, 153360, Note_on_c, 0, 51, 0
1, 153360, Note_on_c, 0, 58, 56
1, 153360, Note_on_c, 0, 46, 41
1, 153450, Note_on_c, 0, 58, 0
1, 153480, Note_on_c, 0, 46, 0
1, 153480, Note_on_c, 0, 39, 34
1, 153570, Note_on_c, 0, 60, 48
1, 153600, Note_on_c, 0, 60, 0
1, 153600, Note_on_c, 0, 58, 49
1, 153690, Note_on_c, 0, 58, 0
1, 153720, Note_on_c, 0, 39, 0
1, 153720, Note_on_c, 0, 51, 40
1, 153780, Note_on_c, 0, 57, 46
1, 153840, Tempo, 659341
1, 153840, Note_on_c, 0, 57, 0
1, 153840, Note_on_c, 0, 51, 0
1, 153840, Note_on_c, 0, 58, 52
1, 153840, Note_on_c, 0, 46, 41
1, 153900, Note_on_c, 0, 58, 0
1, 153960, Note_on_c, 0, 46, 0
1, 153960, Note_on_c, 0, 39, 37
1, 154080, Tempo, 613811
1, 154080, Note_on_c, 0, 53, 52
1, 154140, Note_on_c, 0, 53, 0
1, 154200, Note_on_c, 0, 39, 0
1, 154200, Note_on_c, 0, 55, 49
1, 154200, Note_on_c, 0, 50, 39
1, 154260, Note_on_c, 0, 55, 0
1, 154320, Tempo, 604534
1, 154320, Note_on_c, 0, 50, 0
1, 154320, Note_on_c, 0, 56, 50
1, 154320, Note_on_c, 0, 46, 41
1, 154380, Note_on_c, 0, 56, 0
1, 154440, Note_on_c, 0, 46, 0
1, 154440, Note_on_c, 0, 60, 50
1, 154440, Note_on_c, 0, 39, 36
1, 154500, Note_on_c, 0, 60, 0
1, 154560, Note_on_c, 0, 58, 52
1, 154620, Note_on_c, 0, 58, 0
1, 154680, Note_on_c, 0, 39, 0
1, 154680, Note_on_c, 0, 56, 48
1, 154680, Note_on_c, 0, 50, 39
1, 154740, Note_on_c, 0, 56, 0
1, 154800, Note_on_c, 0, 50, 0
1, 154800, Note_on_c, 0, 55, 49
1, 154800, Note_on_c, 0, 46, 41
1, 154860, Note_on_c, 0, 55, 0
1, 154920, Note_on_c, 0, 46, 0
1, 154920, Note_on_c, 0, 53, 49
1, 154920, Note_on_c, 0, 39, 36
1, 154980, Note_on_c, 0, 53, 0
1, 155040, Note_on_c, 0, 55, 53
1, 155100, Note_on_c, 0, 55, 0
1, 155160, Note_on_c, 0, 39, 0
1, 155160, Note_on_c, 0, 46, 39
1, 155280, Tempo, 604534
1, 155280, Note_on_c, 0, 46, 0
1, 155280, Note_on_c, 0, 51, 56
1, 155280, Note_on_c, 0, 39, 41
1, 155400, Note_on_c, 0, 39, 0
1, 155400, Note_on_c, 0, 46, 36
1, 155640, Note_on_c, 0, 46, 0
1, 155640, Note_on_c, 0, 46, 39
1, 155760, Note_on_c, 0, 46, 0
1, 155760, Note_on_c, 0, 51, 0
1, 155760, Note_on_c, 0, 54, 45
1, 155760, Note_on_c, 0, 39, 41
1, 155820, Note_on_c, 0, 54, 0
1, 155820, Note_on_c, 0, 55, 47
1, 155880, Note_on_c, 0, 55, 0
1, 155880, Note_on_c, 0, 39, 0
1, 155880, Note_on_c, 0, 57, 49
1, 155880, Note_on_c, 0, 46, 36
1, 155940, Note_on_c, 0, 57, 0
1, 155940, Note_on_c, 0, 58, 51
1, 156000, Tempo, 648649
1, 156000, Note_on_c, 0, 58, 0
1, 156000, Note_on_c, 0, 46, 0
1, 156000, Note_on_c, 0, 62, 49
1, 156030, Note_on_c, 0, 62, 0
1, 156120, Note_on_c, 0, 53, 39
1, 156240, Tempo, 643432
1, 156240, Note_on_c, 0, 53, 0
1, 156240, Note_on_c, 0, 62, 55
1, 156240, Note_on_c, 0, 46, 41
1, 156360, Note_on_c, 0, 46, 0
1, 156360, Note_on_c, 0, 39, 34
1, 156480, Tempo, 633245
1, 156480, Note_on_c, 0, 62, 0
1, 156480, Note_on_c, 0, 60, 51
1, 156540, Note_on_c, 0, 60, 0
1, 156600, Note_on_c, 0, 39, 0
1, 156600, Note_on_c, 0, 53, 40
1, 156720, Tempo, 604534
1, 156720, Note_on_c, 0, 53, 0
1, 156720, Note_on_c, 0, 60, 56
1, 156720, Note_on_c, 0, 46, 41
1, 156840, Note_on_c, 0, 46, 0
1, 156840, Note_on_c, 0, 39, 35
1, 156960, Tempo, 633245
1, 156960, Note_on_c, 0, 60, 0
1, 156960, Note_on_c, 0, 55, 52
1, 157020, Note_on_c, 0, 55, 0
1, 157080, Note_on_c, 0, 39, 0
1, 157080, Note_on_c, 0, 51, 37
1, 157200, Tempo, 613811
1, 157200, Note_on_c, 0, 51, 0
1, 157200, Note_on_c, 0, 58, 46
1, 157200, Note_on_c, 0, 46, 41
1, 157290, Note_on_c, 0, 58, 0
1, 157320, Note_on_c, 0, 46, 0
1, 157320, Note_on_c, 0, 39, 34
1, 157410, Note_on_c, 0, 60, 48
1, 157440, Note_on_c, 0, 60, 0
1, 157440, Note_on_c, 0, 58, 49
1, 157530, Note_on_c, 0, 58, 0
1, 157560, Note_on_c, 0, 39, 0
1, 157560, Note_on_c, 0, 51, 40
1, 157620, Note_on_c, 0, 57, 46
1, 157680, Tempo, 659341
1, 157680, Note_on_c, 0, 57, 0
1, 157680, Note_on_c, 0, 51, 0
1, 157680, Note_on_c, 0, 58, 52
1, 157680, Note_on_c, 0, 46, 41
1, 157740, Note_on_c, 0, 58, 0
1, 157800, Note_on_c, 0, 46, 0
1, 157800, Note_on_c, 0, 39, 37
1, 157920, Tempo, 613811
1, 157920, Note_on_c, 0, 53, 52
1, 157980, Note_on_c, 0, 53, 0
1, 158040, Note_on_c, 0, 39, 0
1, 158040, Note_on_c, 0, 55, 49
1, 158040, Note_on_c, 0, 50, 39
1, 158100, Note_on_c, 0, 55, 0
1, 158160, Tempo, 604534
1, 158160, Note_on_c, 0, 50, 0
1, 158160, Note_on_c, 0, 56, 50
1, 158160, Note_on_c, 0, 46, 41
1, 158220, Note_on_c, 0, 56, 0
1, 158280, Note_on_c, 0, 46, 0
1, 158280, Note_on_c, 0, 60, 50
1, 158280, Note_on_c, 0, 39, 36
1, 158340, Note_on_c, 0, 60, 0
1, 158400, Note_on_c, 0, 58, 52
1, 158460, Note_on_c, 0, 58, 0
1, 158520, Note_on_c, 0, 39, 0
1, 158520, Note_on_c, 0, 56, 48
1, 158520, Note_on_c, 0, 50, 39
1, 158580, Note_on_c, 0, 56, 0
1, 158640, Note_on_c, 0, 50, 0
1, 158640, Note_on_c, 0, 55, 49
1, 158640, Note_on_c, 0, 46, 41
1, 158700, Note_on_c, 0, 55, 0
1, 158760, Note_on_c, 0, 46, 0
1, 158760, Note_on_c, 0, 53, 49
1, 158760, Note_on_c, 0, 39, 36
1, 158805, Note_on_c, 0, 53, 0
1, 158850, Note_on_c, 0, 57, 46
1, 158880, Tempo, 638298
1, 158880, Note_on_c, 0, 57, 0
1, 158880, Note_on_c, 0, 58, 52
1, 158940, Note_on_c, 0, 58, 0
1, 159000, Note_on_c, 0, 39, 0
1, 159000, Note_on_c, 0, 55, 39
1, 159120, Tempo, 604534
1, 159120, Note_on_c, 0, 55, 0
1, 159120, Note_on_c, 0, 58, 46
1, 159120, Note_on_c, 0, 46, 41
1, 159210, Note_on_c, 0, 58, 0
1, 159240, Note_on_c, 0, 46, 0
1, 159240, Note_on_c, 0, 58, 48
1, 159240, Note_on_c, 0, 39, 35
1, 159300, Note_on_c, 0, 58, 0
1, 159300, Note_on_c, 0, 60, 48
1, 159360, Note_on_c, 0, 60, 0
1, 159360, Note_on_c, 0, 58, 49
1, 159450, Note_on_c, 0, 58, 0
1, 159480, Note_on_c, 0, 39, 0
1, 159480, Note_on_c, 0, 55, 39
1, 159540, Note_on_c, 0, 57, 46
1, 159600, Tempo, 648649
1, 159600, Note_on_c, 0, 57, 0
1, 159600, Note_on_c, 0, 55, 0
1, 159600, Note_on_c, 0, 58, 52
1, 159600, Note_on_c, 0, 46, 41
1, 159720, Note_on_c, 0, 46, 0
1, 159720, Note_on_c, 0, 39, 36
1, 159840, Tempo, 670391
1, 159840, Note_on_c, 0, 58, 0
1, 159840, Note_on_c, 0, 62, 49
1, 159870, Note_on_c, 0, 62, 0
1, 159960, Note_on_c, 0, 39, 0
1, 159960, Note_on_c, 0, 53, 39
1, 160080, Tempo, 633245
1, 160080, Note_on_c, 0, 53, 0
1, 160080, Note_on_c, 0, 62, 54
1, 160080, Note_on_c, 0, 46, 41
1, 160200, Note_on_c, 0, 46, 0
1, 160200, Note_on_c, 0, 39, 34
1, 160320, Tempo, 633245
1, 160320, Note_on_c, 0, 62, 0
1, 160320, Note_on_c, 0, 60, 49
1, 160380, Note_on_c, 0, 60, 0
1, 160440, Note_on_c, 0, 39, 0
1, 160440, Note_on_c, 0, 53, 40
1, 160560, Tempo, 604534
1, 160560, Note_on_c, 0, 53, 0
1, 160560, Note_on_c, 0, 60, 55
1, 160560, Note_on_c, 0, 46, 41
1, 160680, Note_on_c, 0, 46, 0
1, 160680, Note_on_c, 0, 39, 35
1, 160800, Tempo, 633245
1, 160800, Note_on_c, 0, 60, 0
1, 160800, Note_on_c, 0, 55, 52
1, 160860, Note_on_c, 0, 55, 0
1, 160920, Note_on_c, 0, 39, 0
1, 160920, Note_on_c, 0, 51, 37
1, 161040, Tempo, 613811
1, 161040, Note_on_c, 0, 51, 0
1, 161040, Note_on_c, 0, 58, 46
1, 161040, Note_on_c, 0, 46, 41
1, 161130, Note_on_c, 0, 58, 0
1, 161160, Note_on_c, 0, 46, 0
1, 161160, Note_on_c, 0, 39, 34
1, 161250, Note_on_c, 0, 60, 48
1, 161280, Note_on_c, 0, 60, 0
1, 161280, Note_on_c, 0, 58, 49
1, 161370, Note_on_c, 0, 58, 0
1, 161400, Note_on_c, 0, 39, 0
1, 161400, Note_on_c, 0, 51, 40
1, 161460, Note_on_c, 0, 57, 46
1, 161520, Tempo, 659341
1, 161520, Note_on_c, 0, 57, 0
1, 161520, Note_on_c, 0, 51, 0
1, 161520, Note_on_c, 0, 58, 52
1, 161520, Note_on_c, 0, 46, 41
1, 161640, Note_on_c, 0, 46, 0
1, 161640, Note_on_c, 0, 58, 0
1, 161640, Note_on_c, 0, 39, 37
1, 161760, Tempo, 613811
1, 161760, Note_on_c, 0, 53, 52
1, 161820, Note_on_c, 0, 53, 0
1, 161880, Note_on_c, 0, 39, 0
1, 161880, Note_on_c, 0, 55, 49
1, 161880, Note_on_c, 0, 50, 39
1, 161940, Note_on_c, 0, 55, 0
1, 162000, Tempo, 604534
1, 162000, Note_on_c, 0, 50, 0
1, 162000, Note_on_c, 0, 56, 50
1, 162000, Note_on_c, 0, 46, 41
1, 162060, Note_on_c, 0, 56, 0
1, 162120, Note_on_c, 0, 46, 0
1, 162120, Note_on_c, 0, 60, 50
1, 162120, Note_on_c, 0, 39, 36
1, 162180, Note_on_c, 0, 60, 0
1, 162240, Note_on_c, 0, 58, 52
1, 162300, Note_on_c, 0, 58, 0
1, 162360, Note_on_c, 0, 39, 0
1, 162360, Note_on_c, 0, 56, 48
1, 162360, Note_on_c, 0, 50, 39
1, 162420, Note_on_c, 0, 56, 0
1, 162480, Note_on_c, 0, 50, 0
1, 162480, Note_on_c, 0, 55, 49
1, 162480, Note_on_c, 0, 46, 41
1, 162540, Note_on_c, 0, 55, 0
1, 162600, Note_on_c, 0, 46, 0
1, 162600, Note_on_c, 0, 53, 49
1, 162600, Note_on_c, 0, 39, 36
1, 162660, Note_on_c, 0, 53, 0
1, 162720, Note_on_c, 0, 55, 56
1, 162780, Note_on_c, 0, 55, 0
1, 162840, Note_on_c, 0, 39, 0
1, 162840, Note_on_c, 0, 46, 39
1, 162960, Note_on_c, 0, 46, 0
1, 162960, Note_on_c, 0, 51, 58
1, 162960, Note_on_c, 0, 39, 41
1, 163080, Note_on_c, 0, 39, 0
1, 163080, Note_on_c, 0, 46, 36
1, 163320, Note_on_c, 0, 46, 0
1, 163320, Note_on_c, 0, 51, 39
1, 163380, Note_on_c, 0, 66, 41
1, 163410, Note_on_c, 0, 69, 49
1, 163440, Note_on_c, 0, 69, 0
1, 163440, Note_on_c, 0, 51, 0
1, 163440, Note_on_c, 0, 51, 0
1, 163440, Note_on_c, 0, 66, 0
1, 163440, Note_on_c, 0, 70, 49
1, 163440, Note_on_c, 0, 67, 41
1, 163440, Note_on_c, 0, 46, 41
1, 163560, Note_on_c, 0, 46, 0
1, 163560, Note_on_c, 0, 39, 36
1, 163680, Tempo, 670391
1, 163680, Note_on_c, 0, 67, 0
1, 163680, Note_on_c, 0, 70, 0
1, 163680, Note_on_c, 0, 74, 49
1, 163680, Note_on_c, 0, 65, 41
1, 163680, Note_on_c, 0, 70, 41
1, 163733, Control_c, 0, 64, 127
1, 163740, Note_on_c, 0, 70, 0
1, 163740, Note_on_c, 0, 65, 0
1, 163740, Note_on_c, 0, 74, 0
1, 163800, Note_on_c, 0, 39, 0
1, 163800, Note_on_c, 0, 53, 39
1, 163920, Tempo, 633245
1, 163920, Note_on_c, 0, 53, 0
1, 163920, Note_on_c, 0, 74, 49
1, 163920, Note_on_c, 0, 65, 41
1, 163920, Note_on_c, 0, 70, 41
1, 163920, Note_on_c, 0, 46, 41
1, 164040, Note_on_c, 0, 46, 0
1, 164040, Note_on_c, 0, 39, 34
1, 164160, Tempo, 633245
1, 164160, Note_on_c, 0, 74, 0
1, 164160, Note_on_c, 0, 70, 0
1, 164160, Note_on_c, 0, 65, 0
1, 164160, Note_on_c, 0, 72, 52
1, 164160, Note_on_c, 0, 68, 44
1, 164180, Control_c, 0, 64, 0
1, 164245, Control_c, 0, 64, 127
1, 164250, Note_on_c, 0, 68, 0
1, 164250, Note_on_c, 0, 72, 0
1, 164280, Note_on_c, 0, 39, 0
1, 164280, Note_on_c, 0, 53, 40
1, 164400, Tempo, 604534
1, 164400, Note_on_c, 0, 53, 0
1, 164400, Note_on_c, 0, 72, 47
1, 164400, Note_on_c, 0, 62, 39
1, 164400, Note_on_c, 0, 68, 39
1, 164400, Note_on_c, 0, 46, 41
1, 164520, Note_on_c, 0, 46, 0
1, 164520, Note_on_c, 0, 39, 35
1, 164640, Tempo, 633245
1, 164640, Note_on_c, 0, 72, 0
1, 164640, Note_on_c, 0, 68, 0
1, 164640, Note_on_c, 0, 62, 0
1, 164640, Note_on_c, 0, 67, 52
1, 164640, Note_on_c, 0, 63, 44
1, 164649, Control_c, 0, 64, 0
1, 164672, Control_c, 0, 64, 127
1, 164730, Note_on_c, 0, 63, 0
1, 164730, Note_on_c, 0, 67, 0
1, 164760, Note_on_c, 0, 39, 0
1, 164760, Note_on_c, 0, 55, 37
1, 164880, Tempo, 613811
1, 164880, Note_on_c, 0, 55, 0
1, 164880, Note_on_c, 0, 67, 46
1, 164880, Note_on_c, 0, 70, 46
1, 164880, Note_on_c, 0, 58, 39
1, 164880, Note_on_c, 0, 46, 41
1, 164970, Note_on_c, 0, 58, 0
1, 164970, Note_on_c, 0, 67, 0
1, 164970, Note_on_c, 0, 70, 0
1, 165000, Note_on_c, 0, 46, 0
1, 165000, Note_on_c, 0, 39, 34
1, 165060, Note_on_c, 0, 72, 48
1, 165120, Note_on_c, 0, 72, 0
1, 165120, Note_on_c, 0, 70, 49
1, 165120, Note_on_c, 0, 67, 41
1, 165126, Control_c, 0, 64, 0
1, 165157, Control_c, 0, 64, 127
1, 165210, Note_on_c, 0, 67, 0
1, 165210, Note_on_c, 0, 70, 0
1, 165240, Note_on_c, 0, 39, 0
1, 165240, Note_on_c, 0, 55, 40
1, 165300, Note_on_c, 0, 69, 46
1, 165300, Note_on_c, 0, 66, 39
1, 165360, Tempo, 659341
1, 165360, Note_on_c, 0, 66, 0
1, 165360, Note_on_c, 0, 69, 0
1, 165360, Note_on_c, 0, 55, 0
1, 165360, Note_on_c, 0, 70, 52
1, 165360, Note_on_c, 0, 67, 44
1, 165360, Note_on_c, 0, 46, 41
1, 165480, Note_on_c, 0, 46, 0
1, 165480, Note_on_c, 0, 67, 0
1, 165480, Note_on_c, 0, 70, 0
1, 165480, Note_on_c, 0, 39, 37
1, 165600, Tempo, 613811
1, 165600, Note_on_c, 0, 65, 52
1, 165600, Note_on_c, 0, 58, 44
1, 165614, Control_c, 0, 64, 0
1, 165660, Note_on_c, 0, 65, 0
1, 165720, Note_on_c, 0, 39, 0
1, 165720, Note_on_c, 0, 67, 49
1, 165720, Note_on_c, 0, 50, 39
1, 165780, Note_on_c, 0, 67, 0
1, 165840, Tempo, 604534
1, 165840, Note_on_c, 0, 50, 0
1, 165840, Note_on_c, 0, 68, 50
1, 165840, Note_on_c, 0, 46, 41
1, 165900, Note_on_c, 0, 68, 0
1, 165960, Note_on_c, 0, 46, 0
1, 165960, Note_on_c, 0, 72, 50
1, 165960, Note_on_c, 0, 39, 36
1, 166020, Note_on_c, 0, 72, 0
1, 166080, Note_on_c, 0, 58, 0
1, 166080, Note_on_c, 0, 70, 52
1, 166140, Note_on_c, 0, 70, 0
1, 166200, Note_on_c, 0, 39, 0
1, 166200, Note_on_c, 0, 68, 48
1, 166200, Note_on_c, 0, 50, 39
1, 166260, Note_on_c, 0, 68, 0
1, 166320, Note_on_c, 0, 50, 0
1, 166320, Note_on_c, 0, 67, 49
1, 166320, Note_on_c, 0, 46, 41
1, 166380, Note_on_c, 0, 67, 0
1, 166440, Note_on_c, 0, 46, 0
1, 166440, Note_on_c, 0, 65, 49
1, 166440, Note_on_c, 0, 39, 36
1, 166500, Note_on_c, 0, 65, 0
1, 166560, Note_on_c, 0, 67, 52
1, 166560, Note_on_c, 0, 70, 52
1, 166606, Control_c, 0, 64, 127
1, 166650, Note_on_c, 0, 70, 0
1, 166650, Note_on_c, 0, 67, 0
1, 166680, Note_on_c, 0, 39, 0
1, 166680, Note_on_c, 0, 51, 39
1, 166800, Tempo, 604534
1, 166800, Note_on_c, 0, 51, 0
1, 166800, Note_on_c, 0, 67, 46
1, 166800, Note_on_c, 0, 70, 46
1, 166800, Note_on_c, 0, 58, 39
1, 166800, Note_on_c, 0, 46, 41
1, 166890, Note_on_c, 0, 58, 0
1, 166890, Note_on_c, 0, 67, 0
1, 166890, Note_on_c, 0, 70, 0
1, 166920, Note_on_c, 0, 46, 0
1, 166920, Note_on_c, 0, 39, 36
1, 167010, Note_on_c, 0, 72, 48
1, 167040, Note_on_c, 0, 72, 0
1, 167040, Note_on_c, 0, 70, 49
1, 167040, Note_on_c, 0, 67, 41
1, 167050, Control_c, 0, 64, 0
1, 167075, Control_c, 0, 64, 127
1, 167130, Note_on_c, 0, 67, 0
1, 167130, Note_on_c, 0, 70, 0
1, 167160, Note_on_c, 0, 39, 0
1, 167160, Note_on_c, 0, 51, 39
1, 167220, Note_on_c, 0, 69, 46
1, 167220, Note_on_c, 0, 66, 39
1, 167280, Note_on_c, 0, 66, 0
1, 167280, Note_on_c, 0, 69, 0
1, 167280, Note_on_c, 0, 51, 0
1, 167280, Note_on_c, 0, 70, 52
1, 167280, Note_on_c, 0, 67, 44
1, 167280, Note_on_c, 0, 46, 41
1, 167400, Note_on_c, 0, 46, 0
1, 167400, Note_on_c, 0, 67, 0
1, 167400, Note_on_c, 0, 70, 0
1, 167400, Note_on_c, 0, 39, 36
1, 167520, Tempo, 670391
1, 167520, Note_on_c, 0, 86, 49
1, 167520, Note_on_c, 0, 77, 41
1, 167520, Note_on_c, 0, 82, 41
1, 167527, Control_c, 0, 64, 0
1, 167573, Control_c, 0, 64, 127
1, 167580, Note_on_c, 0, 82, 0
1, 167580, Note_on_c, 0, 77, 0
1, 167580, Note_on_c, 0, 86, 0
1, 167640, Note_on_c, 0, 39, 0
1, 167640, Note_on_c, 0, 53, 39
1, 167760, Tempo, 633245
1, 167760, Note_on_c, 0, 53, 0
1, 167760, Note_on_c, 0, 86, 49
1, 167760, Note_on_c, 0, 77, 41
1, 167760, Note_on_c, 0, 82, 41
1, 167760, Note_on_c, 0, 46, 41
1, 167880, Note_on_c, 0, 46, 0
1, 167880, Note_on_c, 0, 39, 34
1, 168000, Tempo, 633245
1, 168000, Note_on_c, 0, 86, 0
1, 168000, Note_on_c, 0, 82, 0
1, 168000, Note_on_c, 0, 77, 0
1, 168000, Note_on_c, 0, 84, 52
1, 168000, Note_on_c, 0, 80, 44
1, 168020, Control_c, 0, 64, 0
1, 168085, Control_c, 0, 64, 127
1, 168090, Note_on_c, 0, 80, 0
1, 168090, Note_on_c, 0, 84, 0
1, 168120, Note_on_c, 0, 39, 0
1, 168120, Note_on_c, 0, 53, 40
1, 168240, Tempo, 604534
1, 168240, Note_on_c, 0, 53, 0
1, 168240, Note_on_c, 0, 84, 47
1, 168240, Note_on_c, 0, 74, 39
1, 168240, Note_on_c, 0, 80, 39
1, 168240, Note_on_c, 0, 46, 41
1, 168360, Note_on_c, 0, 46, 0
1, 168360, Note_on_c, 0, 39, 35
1, 168480, Tempo, 633245
1, 168480, Note_on_c, 0, 84, 0
1, 168480, Note_on_c, 0, 80, 0
1, 168480, Note_on_c, 0, 74, 0
1, 168480, Note_on_c, 0, 79, 52
1, 168480, Note_on_c, 0, 75, 44
1, 168489, Control_c, 0, 64, 0
1, 168512, Control_c, 0, 64, 127
1, 168570, Note_on_c, 0, 75, 0
1, 168570, Note_on_c, 0, 79, 0
1, 168600, Note_on_c, 0, 39, 0
1, 168600, Note_on_c, 0, 55, 37
1, 168720, Tempo, 613811
1, 168720, Note_on_c, 0, 55, 0
1, 168720, Note_on_c, 0, 79, 46
1, 168720, Note_on_c, 0, 82, 46
1, 168720, Note_on_c, 0, 70, 39
1, 168720, Note_on_c, 0, 46, 41
1, 168810, Note_on_c, 0, 70, 0
1, 168810, Note_on_c, 0, 79, 0
1, 168810, Note_on_c, 0, 82, 0
1, 168840, Note_on_c, 0, 46, 0
1, 168840, Note_on_c, 0, 39, 34
1, 168930, Note_on_c, 0, 84, 48
1, 168960, Note_on_c, 0, 84, 0
1, 168960, Note_on_c, 0, 82, 49
1, 168960, Note_on_c, 0, 79, 41
1, 168966, Control_c, 0, 64, 0
1, 168997, Control_c, 0, 64, 127
1, 169050, Note_on_c, 0, 79, 0
1, 169050, Note_on_c, 0, 82, 0
1, 169080, Note_on_c, 0, 39, 0
1, 169080, Note_on_c, 0, 55, 40
1, 169140, Note_on_c, 0, 81, 46
1, 169140, Note_on_c, 0, 78, 39
1, 169200, Tempo, 659341
1, 169200, Note_on_c, 0, 78, 0
1, 169200, Note_on_c, 0, 81, 0
1, 169200, Note_on_c, 0, 55, 0
1, 169200, Note_on_c, 0, 82, 52
1, 169200, Note_on_c, 0, 79, 44
1, 169200, Note_on_c, 0, 46, 41
1, 169320, Note_on_c, 0, 46, 0
1, 169320, Note_on_c, 0, 79, 0
1, 169320, Note_on_c, 0, 82, 0
1, 169320, Note_on_c, 0, 39, 37
1, 169440, Tempo, 613811
1, 169440, Note_on_c, 0, 77, 52
1, 169440, Note_on_c, 0, 70, 44
1, 169454, Control_c, 0, 64, 0
1, 169500, Note_on_c, 0, 77, 0
1, 169560, Note_on_c, 0, 39, 0
1, 169560, Note_on_c, 0, 79, 49
1, 169560, Note_on_c, 0, 50, 39
1, 169620, Note_on_c, 0, 79, 0
1, 169680, Tempo, 604534
1, 169680, Note_on_c, 0, 50, 0
1, 169680, Note_on_c, 0, 80, 50
1, 169680, Note_on_c, 0, 46, 41
1, 169740, Note_on_c, 0, 80, 0
1, 169800, Note_on_c, 0, 46, 0
1, 169800, Note_on_c, 0, 84, 50
1, 169800, Note_on_c, 0, 39, 36
1, 169860, Note_on_c, 0, 84, 0
1, 169920, Note_on_c, 0, 70, 0
1, 169920, Note_on_c, 0, 70, 44
1, 169920, Note_on_c, 0, 82, 52
1, 169980, Note_on_c, 0, 82, 0
1, 170040, Note_on_c, 0, 39, 0
1, 170040, Note_on_c, 0, 80, 48
1, 170040, Note_on_c, 0, 50, 39
1, 170100, Note_on_c, 0, 80, 0
1, 170160, Note_on_c, 0, 50, 0
1, 170160, Note_on_c, 0, 79, 49
1, 170160, Note_on_c, 0, 46, 41
1, 170220, Note_on_c, 0, 79, 0
1, 170280, Note_on_c, 0, 46, 0
1, 170280, Note_on_c, 0, 77, 49
1, 170280, Note_on_c, 0, 39, 36
1, 170340, Note_on_c, 0, 77, 0
1, 170400, Note_on_c, 0, 70, 0
1, 170400, Note_on_c, 0, 70, 52
1, 170400, Note_on_c, 0, 79, 52
1, 170443, Control_c, 0, 64, 127
1, 170490, Note_on_c, 0, 79, 0
1, 170490, Note_on_c, 0, 70, 0
1, 170520, Note_on_c, 0, 39, 0
1, 170520, Note_on_c, 0, 51, 39
1, 170640, Tempo, 604534
1, 170640, Note_on_c, 0, 51, 0
1, 170640, Note_on_c, 0, 70, 46
1, 170640, Note_on_c, 0, 75, 46
1, 170640, Note_on_c, 0, 67, 39
1, 170640, Note_on_c, 0, 46, 41
1, 170760, Note_on_c, 0, 46, 0
1, 170760, Note_on_c, 0, 39, 36
1, 170890, Control_c, 0, 64, 0
1, 170947, Control_c, 0, 64, 127
1, 171000, Note_on_c, 0, 39, 0
1, 171000, Note_on_c, 0, 51, 39
1, 171060, Note_on_c, 0, 67, 0
1, 171060, Note_on_c, 0, 70, 0
1, 171060, Note_on_c, 0, 75, 0
1, 171090, Note_on_c, 0, 74, 46
1, 171120, Note_on_c, 0, 74, 0
1, 171120, Note_on_c, 0, 51, 0
1, 171120, Note_on_c, 0, 67, 36
1, 171120, Note_on_c, 0, 70, 37
1, 171120, Note_on_c, 0, 75, 43
1, 171120, Note_on_c, 0, 46, 41
1, 171240, Note_on_c, 0, 46, 0
1, 171240, Note_on_c, 0, 67, 0
1, 171240, Note_on_c, 0, 70, 0
1, 171240, Note_on_c, 0, 75, 0
1, 171240, Note_on_c, 0, 39, 36
1, 171360, Tempo, 613811
1, 171360, Note_on_c, 0, 39, 0
1, 171360, Note_on_c, 0, 89, 52
1, 171360, Note_on_c, 0, 82, 44
1, 171374, Control_c, 0, 64, 0
1, 171420, Note_on_c, 0, 89, 0
1, 171480, Note_on_c, 0, 91, 49
1, 171480, Note_on_c, 0, 68, 39
1, 171540, Note_on_c, 0, 91, 0
1, 171600, Tempo, 604534
1, 171600, Note_on_c, 0, 68, 0
1, 171600, Note_on_c, 0, 92, 50
1, 171600, Note_on_c, 0, 62, 41
1, 171660, Note_on_c, 0, 92, 0
1, 171720, Note_on_c, 0, 62, 0
1, 171720, Note_on_c, 0, 96, 50
1, 171720, Note_on_c, 0, 58, 36
1, 171780, Note_on_c, 0, 96, 0
1, 171840, Note_on_c, 0, 58, 0
1, 171840, Note_on_c, 0, 82, 0
1, 171840, Note_on_c, 0, 82, 44
1, 171840, Note_on_c, 0, 94, 52
1, 171900, Note_on_c, 0, 94, 0
1, 171960, Note_on_c, 0, 92, 48
1, 171960, Note_on_c, 0, 50, 39
1, 172020, Note_on_c, 0, 92, 0
1, 172080, Note_on_c, 0, 50, 0
1, 172080, Note_on_c, 0, 91, 49
1, 172080, Note_on_c, 0, 46, 41
1, 172140, Note_on_c, 0, 91, 0
1, 172200, Note_on_c, 0, 46, 0
1, 172200, Note_on_c, 0, 89, 49
1, 172200, Note_on_c, 0, 39, 36
1, 172260, Note_on_c, 0, 89, 0
1, 172320, Tempo, 633245
1, 172320, Note_on_c, 0, 39, 0
1, 172320, Note_on_c, 0, 82, 0
1, 172320, Note_on_c, 0, 82, 44
1, 172320, Note_on_c, 0, 94, 52
1, 172320, Note_on_c, 0, 91, 44
1, 172320, Control_c, 0, 64, 0
1, 172352, Control_c, 0, 64, 127
1, 172410, Note_on_c, 0, 91, 0
1, 172410, Note_on_c, 0, 94, 0
1, 172410, Note_on_c, 0, 82, 0
1, 172440, Note_on_c, 0, 67, 37
1, 172560, Tempo, 613811
1, 172560, Note_on_c, 0, 67, 0
1, 172560, Note_on_c, 0, 82, 44
1, 172560, Note_on_c, 0, 94, 49
1, 172560, Note_on_c, 0, 91, 41
1, 172560, Note_on_c, 0, 63, 41
1, 172680, Note_on_c, 0, 63, 0
1, 172680, Note_on_c, 0, 58, 34
1, 172740, Note_on_c, 0, 91, 0
1, 172740, Note_on_c, 0, 94, 0
1, 172740, Note_on_c, 0, 93, 46
1, 172740, Note_on_c, 0, 90, 39
1, 172800, Tempo, 659341
1, 172800, Note_on_c, 0, 90, 0
1, 172800, Note_on_c, 0, 58, 0
1, 172800, Note_on_c, 0, 82, 0
1, 172800, Note_on_c, 0, 93, 0
1, 172800, Note_on_c, 0, 82, 44
1, 172800, Note_on_c, 0, 94, 52
1, 172800, Note_on_c, 0, 91, 44
1, 172806, Control_c, 0, 64, 0
1, 172837, Control_c, 0, 64, 127
1, 172920, Note_on_c, 0, 51, 40
1, 173040, Note_on_c, 0, 51, 0
1, 173040, Note_on_c, 0, 46, 41
1, 173160, Note_on_c, 0, 46, 0
1, 173160, Note_on_c, 0, 39, 37
1, 173280, Tempo, 613811
1, 173280, Note_on_c, 0, 39, 0
1, 173280, Note_on_c, 0, 82, 0
1, 173280, Note_on_c, 0, 94, 0
1, 173280, Note_on_c, 0, 91, 0
1, 173280, Note_on_c, 0, 77, 52
1, 173280, Note_on_c, 0, 70, 44
1, 173294, Control_c, 0, 64, 0
1, 173340, Note_on_c, 0, 77, 0
1, 173400, Note_on_c, 0, 79, 49
1, 173400, Note_on_c, 0, 68, 39
1, 173460, Note_on_c, 0, 79, 0
1, 173520, Tempo, 604534
1, 173520, Note_on_c, 0, 68, 0
1, 173520, Note_on_c, 0, 80, 50
1, 173520, Note_on_c, 0, 62, 41
1, 173580, Note_on_c, 0, 80, 0
1, 173640, Note_on_c, 0, 62, 0
1, 173640, Note_on_c, 0, 84, 50
1, 173640, Note_on_c, 0, 58, 36
1, 173700, Note_on_c, 0, 84, 0
1, 173760, Note_on_c, 0, 58, 0
1, 173760, Note_on_c, 0, 70, 0
1, 173760, Note_on_c, 0, 70, 44
1, 173760, Note_on_c, 0, 82, 52
1, 173820, Note_on_c, 0, 82, 0
1, 173880, Note_on_c, 0, 80, 48
1, 173880, Note_on_c, 0, 50, 39
1, 173940, Note_on_c, 0, 80, 0
1, 174000, Note_on_c, 0, 50, 0
1, 174000, Note_on_c, 0, 79, 49
1, 174000, Note_on_c, 0, 46, 41
1, 174060, Note_on_c, 0, 79, 0
1, 174120, Note_on_c, 0, 46, 0
1, 174120, Note_on_c, 0, 77, 49
1, 174120, Note_on_c, 0, 39, 36
1, 174180, Note_on_c, 0, 77, 0
1, 174240, Note_on_c, 0, 39, 0
1, 174240, Note_on_c, 0, 70, 0
1, 174240, Note_on_c, 0, 70, 52
1, 174240, Note_on_c, 0, 79, 52
1, 174283, Control_c, 0, 64, 127
1, 174330, Note_on_c, 0, 79, 0
1, 174330, Note_on_c, 0, 70, 0
1, 174360, Note_on_c, 0, 63, 39
1, 174480, Tempo, 604534
1, 174480, Note_on_c, 0, 63, 0
1, 174480, Note_on_c, 0, 70, 46
1, 174480, Note_on_c, 0, 75, 46
1, 174480, Note_on_c, 0, 67, 39
1, 174480, Note_on_c, 0, 58, 41
1, 174600, Note_on_c, 0, 58, 0
1, 174600, Note_on_c, 0, 51, 36
1, 174720, Note_on_c, 0, 51, 0
1, 174840, Note_on_c, 0, 51, 39
1, 174900, Note_on_c, 0, 67, 0
1, 174900, Note_on_c, 0, 70, 0
1, 174900, Note_on_c, 0, 75, 0
1, 174930, Note_on_c, 0, 74, 46
1, 174960, Note_on_c, 0, 74, 0
1, 174960, Note_on_c, 0, 51, 0
1, 174960, Note_on_c, 0, 67, 36
1, 174960, Note_on_c, 0, 70, 37
1, 174960, Note_on_c, 0, 75, 43
1, 174960, Note_on_c, 0, 46, 41
1, 175080, Note_on_c, 0, 46, 0
1, 175080, Note_on_c, 0, 67, 0
1, 175080, Note_on_c, 0, 70, 0
1, 175080, Note_on_c, 0, 75, 0
1, 175080, Note_on_c, 0, 39, 36
1, 175200, Tempo, 613811
1, 175200, Note_on_c, 0, 39, 0
1, 175200, Note_on_c, 0, 89, 52
1, 175200, Note_on_c, 0, 82, 44
1, 175214, Control_c, 0, 64, 0
1, 175260, Note_on_c, 0, 89, 0
1, 175320, Note_on_c, 0, 91, 49
1, 175320, Note_on_c, 0, 68, 39
1, 175380, Note_on_c, 0, 91, 0
1, 175440, Tempo, 604534
1, 175440, Note_on_c, 0, 68, 0
1, 175440, Note_on_c, 0, 92, 50
1, 175440, Note_on_c, 0, 62, 41
1, 175500, Note_on_c, 0, 92, 0
1, 175560, Note_on_c, 0, 62, 0
1, 175560, Note_on_c, 0, 96, 50
1, 175560, Note_on_c, 0, 58, 36
1, 175620, Note_on_c, 0, 96, 0
1, 175680, Note_on_c, 0, 58, 0
1, 175680, Note_on_c, 0, 82, 0
1, 175680, Note_on_c, 0, 82, 44
1, 175680, Note_on_c, 0, 94, 52
1, 175740, Note_on_c, 0, 94, 0
1, 175800, Note_on_c, 0, 92, 48
1, 175800, Note_on_c, 0, 50, 39
1, 175860, Note_on_c, 0, 92, 0
1, 175920, Note_on_c, 0, 50, 0
1, 175920, Note_on_c, 0, 91, 49
1, 175920, Note_on_c, 0, 46, 41
1, 175980, Note_on_c, 0, 91, 0
1, 176040, Note_on_c, 0, 46, 0
1, 176040, Note_on_c, 0, 89, 49
1, 176040, Note_on_c, 0, 39, 36
1, 176100, Note_on_c, 0, 89, 0
1, 176160, Tempo, 633245
1, 176160, Note_on_c, 0, 39, 0
1, 176160, Note_on_c, 0, 82, 0
1, 176160, Note_on_c, 0, 82, 44
1, 176160, Note_on_c, 0, 94, 52
1, 176160, Note_on_c, 0, 91, 44
1, 176160, Control_c, 0, 64, 0
1, 176192, Control_c, 0, 64, 127
1, 176250, Note_on_c, 0, 91, 0
1, 176250, Note_on_c, 0, 94, 0
1, 176250, Note_on_c, 0, 82, 0
1, 176280, Note_on_c, 0, 67, 37
1, 176400, Tempo, 613811
1, 176400, Note_on_c, 0, 67, 0
1, 176400, Note_on_c, 0, 82, 44
1, 176400, Note_on_c, 0, 94, 49
1, 176400, Note_on_c, 0, 91, 41
1, 176400, Note_on_c, 0, 63, 41
1, 176520, Note_on_c, 0, 63, 0
1, 176520, Note_on_c, 0, 58, 34
1, 176580, Note_on_c, 0, 91, 0
1, 176580, Note_on_c, 0, 94, 0
1, 176580, Note_on_c, 0, 93, 46
1, 176580, Note_on_c, 0, 90, 39
1, 176640, Tempo, 659341
1, 176640, Note_on_c, 0, 90, 0
1, 176640, Note_on_c, 0, 58, 0
1, 176640, Note_on_c, 0, 82, 0
1, 176640, Note_on_c, 0, 93, 0
1, 176640, Note_on_c, 0, 82, 44
1, 176640, Note_on_c, 0, 94, 52
1, 176640, Note_on_c, 0, 91, 44
1, 176646, Control_c, 0, 64, 0
1, 176677, Control_c, 0, 64, 127
1, 176760, Note_on_c, 0, 51, 40
1, 176880, Note_on_c, 0, 51, 0
1, 176880, Note_on_c, 0, 46, 41
1, 177000, Note_on_c, 0, 46, 0
1, 177000, Note_on_c, 0, 39, 37
1, 177120, Tempo, 659341
1, 177120, Note_on_c, 0, 39, 0
1, 177120, Note_on_c, 0, 82, 0
1, 177120, Note_on_c, 0, 94, 0
1, 177120, Note_on_c, 0, 91, 0
1, 177120, Note_on_c, 0, 77, 52
1, 177120, Note_on_c, 0, 70, 44
1, 177134, Control_c, 0, 64, 0
1, 177180, Note_on_c, 0, 77, 0
1, 177240, Note_on_c, 0, 79, 49
1, 177240, Note_on_c, 0, 68, 39
1, 177300, Note_on_c, 0, 79, 0
1, 177360, Tempo, 623377
1, 177360, Note_on_c, 0, 68, 0
1, 177360, Note_on_c, 0, 80, 50
1, 177360, Note_on_c, 0, 62, 41
1, 177420, Note_on_c, 0, 80, 0
1, 177480, Note_on_c, 0, 62, 0
1, 177480, Note_on_c, 0, 84, 50
1, 177480, Note_on_c, 0, 58, 36
1, 177540, Note_on_c, 0, 84, 0
1, 177600, Tempo, 638298
1, 177600, Note_on_c, 0, 58, 0
1, 177600, Note_on_c, 0, 70, 0
1, 177600, Note_on_c, 0, 70, 44
1, 177600, Note_on_c, 0, 82, 52
1, 177660, Note_on_c, 0, 82, 0
1, 177720, Note_on_c, 0, 80, 48
1, 177720, Note_on_c, 0, 50, 39
1, 177780, Note_on_c, 0, 80, 0
1, 177840, Tempo, 648649
1, 177840, Note_on_c, 0, 50, 0
1, 177840, Note_on_c, 0, 79, 49
1, 177840, Note_on_c, 0, 46, 41
1, 177900, Note_on_c, 0, 79, 0
1, 177960, Note_on_c, 0, 46, 0
1, 177960, Note_on_c, 0, 77, 49
1, 177960, Note_on_c, 0, 39, 36
1, 178020, Note_on_c, 0, 77, 0
1, 178050, Note_on_c, 0, 78, 49
1, 178080, Tempo, 693642
1, 178080, Note_on_c, 0, 78, 0
1, 178080, Note_on_c, 0, 39, 0
1, 178080, Note_on_c, 0, 70, 0
1, 178080, Note_on_c, 0, 79, 49
1, 178140, Note_on_c, 0, 79, 0
1, 178320, Tempo, 769329
1, 178320, Note_on_c, 0, 70, 44
1, 178320, Note_on_c, 0, 67, 37
1, 178320, Note_on_c, 0, 55, 38
1, 178320, Note_on_c, 0, 39, 32
1, 178440, Note_on_c, 0, 70, 0
1, 178440, Note_on_c, 0, 75, 49
1, 178500, Note_on_c, 0, 75, 0
1, 178560, Note_on_c, 0, 39, 0
1, 178560, Note_on_c, 0, 55, 0
1, 178560, Note_on_c, 0, 67, 0
1, 178560, Note_on_c, 0, 74, 42
1, 178560, Note_on_c, 0, 68, 35
1, 178560, Note_on_c, 0, 56, 38
1, 178560, Note_on_c, 0, 41, 32
1, 178680, Tempo, 857265
1, 178680, Note_on_c, 0, 74, 0
1, 178680, Note_on_c, 0, 77, 49
1, 178740, Note_on_c, 0, 77, 0
1, 178800, Tempo, 952532
1, 178800, Note_on_c, 0, 41, 0
1, 178800, Note_on_c, 0, 56, 0
1, 178800, Note_on_c, 0, 68, 0
1, 178800, Note_on_c, 0, 65, 42
1, 178800, Note_on_c, 0, 62, 35
1, 178800, Note_on_c, 0, 59, 38
1, 178800, Note_on_c, 0, 43, 32
1, 178920, Note_on_c, 0, 65, 0
1, 178920, Note_on_c, 0, 71, 49
1, 178980, Note_on_c, 0, 71, 0
1, 179040, Tempo, 1048035
1, 179040, Marker_t, "Andante"
1, 179040, Note_on_c, 0, 43, 0
1, 179040, Note_on_c, 0, 59, 0
1, 179040, Note_on_c, 0, 62, 0
1, 179040, Note_on_c, 0, 72, 46
1, 179040, Note_on_c, 0, 67, 39
1, 179040, Note_on_c, 0, 63, 47
1, 179040, Note_on_c, 0, 48, 39
1, 179040, Note_on_c, 0, 55, 39
1, 179280, Control_c, 0, 64, 127
1, 179520, Tempo, 971660
1, 179520, Note_on_c, 0, 67, 0
1, 179520, Note_on_c, 0, 72, 0
1, 179520, Note_on_c, 0, 71, 47
1, 179600, Note_on_c, 0, 71, 0
1, 179600, Note_on_c, 0, 72, 41
1, 179680, Note_on_c, 0, 72, 0
1, 179680, Note_on_c, 0, 74, 41
1, 179728, Tempo, 960000
1, 179758, Tempo, 971660
1, 179760, Note_on_c, 0, 74, 0
1, 179760, Note_on_c, 0, 72, 45
1, 179773, Tempo, 983607
1, 179788, Tempo, 995851
1, 179803, Tempo, 1008403
1, 179818, Tempo, 1021277
1, 179833, Tempo, 1034483
1, 179840, Note_on_c, 0, 72, 0
1, 179840, Note_on_c, 0, 71, 40
1, 179848, Tempo, 1048035
1, 179878, Tempo, 1061947
1, 179893, Tempo, 1076233
1, 179908, Tempo, 1090909
1, 179920, Note_on_c, 0, 71, 0
1, 179920, Note_on_c, 0, 72, 45
1, 179923, Tempo, 1105991
1, 179938, Tempo, 1121495
1, 179953, Tempo, 1137441
1, 179968, Tempo, 1153846
1, 180000, Tempo, 1283422
1, 180000, Note_on_c, 0, 72, 0
1, 180000, Note_on_c, 0, 48, 0
1, 180000, Note_on_c, 0, 63, 0
1, 180000, Note_on_c, 0, 55, 0
1, 180000, Note_on_c, 0, 44, 37
1, 180002, Control_c, 0, 64, 0
1, 180030, Note_on_c, 0, 53, 38
1, 180039, Control_c, 0, 64, 127
1, 180060, Note_on_c, 0, 60, 39
1, 180090, Note_on_c, 0, 65, 47
1, 180120, Note_on_c, 0, 72, 49
1, 180150, Note_on_c, 0, 77, 51
1, 180720, Note_on_c, 0, 77, 0
1, 180720, Note_on_c, 0, 53, 0
1, 180720, Note_on_c, 0, 60, 0
1, 180720, Note_on_c, 0, 44, 0
1, 180720, Note_on_c, 0, 72, 0
1, 180720, Note_on_c, 0, 65, 0
1, 180720, Note_on_c, 0, 75, 49
1, 180900, Note_on_c, 0, 75, 0
1, 180900, Note_on_c, 0, 75, 42
1, 180960, Tempo, 1206030
1, 180960, Note_on_c, 0, 75, 0
1, 180960, Note_on_c, 0, 46, 37
1, 180980, Control_c, 0, 64, 0
1, 180990, Note_on_c, 0, 53, 38
1, 181020, Note_on_c, 0, 58, 39
1, 181050, Note_on_c, 0, 62, 47
1, 181063, Control_c, 0, 64, 127
1, 181080, Tempo, 1655172
1, 181080, Note_on_c, 0, 68, 49
1, 181110, Note_on_c, 0, 74, 51
1, 181440, Marker_t, "in tempo"
1, 181680, Tempo, 1021277
1, 181680, Note_on_c, 0, 74, 0
1, 181680, Note_on_c, 0, 53, 0
1, 181680, Note_on_c, 0, 58, 0
1, 181680, Note_on_c, 0, 46, 0
1, 181680, Note_on_c, 0, 68, 0
1, 181680, Note_on_c, 0, 62, 0
1, 181680, Note_on_c, 0, 62, 46
1, 181680, Note_on_c, 0, 34, 35
1, 181688, Control_c, 0, 64, 0
1, 181710, Note_on_c, 0, 68, 50
1, 181740, Note_on_c, 0, 77, 58
1, 181770, Note_on_c, 0, 77, 0
1, 181770, Note_on_c, 0, 62, 0
1, 181770, Note_on_c, 0, 34, 0
1, 181770, Note_on_c, 0, 68, 0
1, 181920, Tempo, 653951
1, 181920, Note_on_c, 0, 75, 56
1, 181920, Note_on_c, 0, 67, 47
1, 181920, Note_on_c, 0, 39, 43
1, 181931, Tempo, 714286
1, 181944, Tempo, 705882
1, 181957, Tempo, 697674
1, 181969, Tempo, 689655
1, 181980, Note_on_c, 0, 39, 0
1, 181980, Note_on_c, 0, 67, 0
1, 181980, Note_on_c, 0, 75, 0
1, 181982, Tempo, 681818
1, 181995, Tempo, 674157
1, 182007, Tempo, 666667
1, 182020, Tempo, 659341
1, 182033, Tempo, 652174
1, 182040, Note_on_c, 0, 77, 49
1, 182040, Note_on_c, 0, 70, 41
1, 182045, Tempo, 645161
1, 182058, Tempo, 638298
1, 182100, Note_on_c, 0, 70, 0
1, 182100, Note_on_c, 0, 77, 0
1, 182160, Note_on_c, 0, 79, 50
1, 182160, Note_on_c, 0, 75, 42
1, 182160, Note_on_c, 0, 67, 37
1, 182160, Note_on_c, 0, 63, 31
1, 182160, Note_on_c, 0, 55, 31
1, 182220, Note_on_c, 0, 55, 0
1, 182220, Note_on_c, 0, 67, 0
1, 182220, Note_on_c, 0, 79, 0
1, 182220, Note_on_c, 0, 75, 0
1, 182220, Note_on_c, 0, 63, 0
1, 182280, Tempo, 699708
1, 182280, Note_on_c, 0, 80, 44
1, 182280, Note_on_c, 0, 77, 37
1, 182340, Note_on_c, 0, 77, 0
1, 182340, Note_on_c, 0, 80, 0
1, 182370, Note_on_c, 0, 84, 56
1, 182400, Tempo, 653951
1, 182400, Note_on_c, 0, 84, 0
1, 182400, Note_on_c, 0, 82, 50
1, 182400, Note_on_c, 0, 79, 42
1, 182460, Note_on_c, 0, 79, 0
1, 182460, Note_on_c, 0, 82, 0
1, 182580, Note_on_c, 0, 81, 45
1, 182580, Note_on_c, 0, 78, 38
1, 182640, Tempo, 689655
1, 182640, Note_on_c, 0, 78, 0
1, 182640, Note_on_c, 0, 81, 0
1, 182640, Note_on_c, 0, 82, 50
1, 182640, Note_on_c, 0, 79, 50
1, 182640, Note_on_c, 0, 67, 35
1, 182640, Note_on_c, 0, 63, 29
1, 182640, Note_on_c, 0, 58, 29
1, 182700, Note_on_c, 0, 58, 0
1, 182700, Note_on_c, 0, 67, 0
1, 182700, Note_on_c, 0, 82, 0
1, 182700, Note_on_c, 0, 79, 0
1, 182700, Note_on_c, 0, 63, 0
1, 182880, Tempo, 693642
1, 182880, Note_on_c, 0, 56, 97
1, 182880, Note_on_c, 0, 44, 74
1, 182880, Note_on_c, 0, 32, 63
1, 182886, Control_c, 0, 64, 127
1, 183060, Note_on_c, 0, 32, 0
1, 183060, Note_on_c, 0, 44, 0
1, 183060, Note_on_c, 0, 56, 0
1, 183069, Control_c, 0, 64, 0
1, 183120, Tempo, 659341
1, 183120, Note_on_c, 0, 84, 56
1, 183120, Note_on_c, 0, 72, 47
1, 183120, Note_on_c, 0, 75, 47
1, 183120, Note_on_c, 0, 68, 48
1, 183120, Note_on_c, 0, 56, 40
1, 183120, Note_on_c, 0, 63, 40
1, 183180, Note_on_c, 0, 63, 0
1, 183180, Note_on_c, 0, 72, 0
1, 183180, Note_on_c, 0, 75, 0
1, 183180, Note_on_c, 0, 84, 0
1, 183180, Note_on_c, 0, 56, 0
1, 183180, Note_on_c, 0, 68, 0
1, 183300, Tempo, 591133
1, 183300, Note_on_c, 0, 67, 41
1, 183300, Note_on_c, 0, 55, 35
1, 183360, Tempo, 681818
1, 183360, Note_on_c, 0, 55, 0
1, 183360, Note_on_c, 0, 67, 0
1, 183360, Note_on_c, 0, 84, 66
1, 183360, Note_on_c, 0, 80, 56
1, 183360, Note_on_c, 0, 72, 56
1, 183360, Note_on_c, 0, 68, 55
1, 183360, Note_on_c, 0, 56, 46
1, 183360, Note_on_c, 0, 63, 46
1, 183420, Note_on_c, 0, 63, 0
1, 183420, Note_on_c, 0, 80, 0
1, 183420, Note_on_c, 0, 72, 0
1, 183420, Note_on_c, 0, 84, 0
1, 183420, Note_on_c, 0, 56, 0
1, 183420, Note_on_c, 0, 68, 0
1, 183480, Tempo, 652174
1, 183540, Note_on_c, 0, 83, 51
1, 183540, Note_on_c, 0, 71, 42
1, 183540, Note_on_c, 0, 79, 42
1, 183600, Note_on_c, 0, 79, 0
1, 183600, Note_on_c, 0, 71, 0
1, 183600, Note_on_c, 0, 83, 0
1, 183600, Note_on_c, 0, 84, 51
1, 183600, Note_on_c, 0, 80, 42
1, 183600, Note_on_c, 0, 72, 42
1, 183660, Note_on_c, 0, 72, 0
1, 183660, Note_on_c, 0, 80, 0
1, 183660, Note_on_c, 0, 84, 0
1, 183720, Tempo, 705882
1, 183840, Tempo, 693642
1, 183840, Note_on_c, 0, 55, 96
1, 183840, Note_on_c, 0, 43, 74
1, 183840, Note_on_c, 0, 31, 63
1, 183886, Control_c, 0, 64, 127
1, 184020, Note_on_c, 0, 31, 0
1, 184020, Note_on_c, 0, 43, 0
1, 184020, Note_on_c, 0, 55, 0
1, 184063, Control_c, 0, 64, 0
1, 184080, Tempo, 659341
1, 184080, Note_on_c, 0, 82, 56
1, 184080, Note_on_c, 0, 70, 47
1, 184080, Note_on_c, 0, 75, 47
1, 184080, Note_on_c, 0, 67, 48
1, 184080, Note_on_c, 0, 55, 40
1, 184080, Note_on_c, 0, 63, 40
1, 184140, Note_on_c, 0, 63, 0
1, 184140, Note_on_c, 0, 70, 0
1, 184140, Note_on_c, 0, 75, 0
1, 184140, Note_on_c, 0, 82, 0
1, 184140, Note_on_c, 0, 55, 0
1, 184140, Note_on_c, 0, 67, 0
1, 184260, Tempo, 574163
1, 184260, Note_on_c, 0, 66, 41
1, 184260, Note_on_c, 0, 54, 35
1, 184320, Tempo, 693642
1, 184320, Note_on_c, 0, 54, 0
1, 184320, Note_on_c, 0, 66, 0
1, 184320, Note_on_c, 0, 82, 66
1, 184320, Note_on_c, 0, 79, 56
1, 184320, Note_on_c, 0, 70, 56
1, 184320, Note_on_c, 0, 67, 55
1, 184320, Note_on_c, 0, 55, 46
1, 184320, Note_on_c, 0, 63, 46
1, 184380, Note_on_c, 0, 63, 0
1, 184380, Note_on_c, 0, 79, 0
1, 184380, Note_on_c, 0, 70, 0
1, 184380, Note_on_c, 0, 82, 0
1, 184380, Note_on_c, 0, 55, 0
1, 184380, Note_on_c, 0, 67, 0
1, 184440, Tempo, 659341
1, 184500, Note_on_c, 0, 81, 51
1, 184500, Note_on_c, 0, 69, 42
1, 184500, Note_on_c, 0, 78, 42
1, 184560, Note_on_c, 0, 78, 0
1, 184560, Note_on_c, 0, 69, 0
1, 184560, Note_on_c, 0, 81, 0
1, 184560, Note_on_c, 0, 82, 51
1, 184560, Note_on_c, 0, 79, 42
1, 184560, Note_on_c, 0, 70, 42
1, 184620, Note_on_c, 0, 70, 0
1, 184620, Note_on_c, 0, 79, 0
1, 184620, Note_on_c, 0, 82, 0
1, 184680, Tempo, 718563
1, 184800, Tempo, 693642
1, 184800, Note_on_c, 0, 53, 95
1, 184800, Note_on_c, 0, 41, 74
1, 184800, Note_on_c, 0, 29, 63
1, 184843, Control_c, 0, 64, 127
1, 184980, Note_on_c, 0, 29, 0
1, 184980, Note_on_c, 0, 41, 0
1, 184980, Note_on_c, 0, 53, 0
1, 185023, Control_c, 0, 64, 0
1, 185040, Tempo, 659341
1, 185040, Note_on_c, 0, 80, 56
1, 185040, Note_on_c, 0, 68, 47
1, 185040, Note_on_c, 0, 74, 47
1, 185040, Note_on_c, 0, 65, 48
1, 185040, Note_on_c, 0, 53, 40
1, 185040, Note_on_c, 0, 62, 40
1, 185100, Note_on_c, 0, 62, 0
1, 185100, Note_on_c, 0, 68, 0
1, 185100, Note_on_c, 0, 74, 0
1, 185100, Note_on_c, 0, 80, 0
1, 185100, Note_on_c, 0, 53, 0
1, 185100, Note_on_c, 0, 65, 0
1, 185220, Tempo, 574163
1, 185220, Note_on_c, 0, 64, 41
1, 185220, Note_on_c, 0, 52, 35
1, 185280, Tempo, 687679
1, 185280, Note_on_c, 0, 52, 0
1, 185280, Note_on_c, 0, 64, 0
1, 185280, Note_on_c, 0, 80, 66
1, 185280, Note_on_c, 0, 77, 56
1, 185280, Note_on_c, 0, 68, 56
1, 185280, Note_on_c, 0, 65, 55
1, 185280, Note_on_c, 0, 53, 46
1, 185280, Note_on_c, 0, 62, 46
1, 185340, Note_on_c, 0, 62, 0
1, 185340, Note_on_c, 0, 77, 0
1, 185340, Note_on_c, 0, 68, 0
1, 185340, Note_on_c, 0, 80, 0
1, 185340, Note_on_c, 0, 53, 0
1, 185340, Note_on_c, 0, 65, 0
1, 185400, Tempo, 659341
1, 185460, Note_on_c, 0, 79, 51
1, 185460, Note_on_c, 0, 67, 42
1, 185460, Note_on_c, 0, 76, 42
1, 185520, Note_on_c, 0, 76, 0
1, 185520, Note_on_c, 0, 67, 0
1, 185520, Note_on_c, 0, 79, 0
1, 185520, Note_on_c, 0, 80, 51
1, 185520, Note_on_c, 0, 77, 42
1, 185520, Note_on_c, 0, 68, 42
1, 185580, Note_on_c, 0, 68, 0
1, 185580, Note_on_c, 0, 77, 0
1, 185580, Note_on_c, 0, 80, 0
1, 185640, Tempo, 718563
1, 185760, Tempo, 693642
1, 185760, Note_on_c, 0, 51, 99
1, 185760, Note_on_c, 0, 39, 74
1, 185760, Note_on_c, 0, 27, 63
1, 185795, Control_c, 0, 64, 127
1, 185857, Control_c, 0, 64, 0
1, 185940, Note_on_c, 0, 27, 0
1, 185940, Note_on_c, 0, 39, 0
1, 185940, Note_on_c, 0, 51, 0
1, 186000, Tempo, 659341
1, 186000, Note_on_c, 0, 79, 56
1, 186000, Note_on_c, 0, 67, 47
1, 186000, Note_on_c, 0, 70, 47
1, 186000, Note_on_c, 0, 63, 48
1, 186000, Note_on_c, 0, 51, 40
1, 186000, Note_on_c, 0, 58, 40
1, 186060, Note_on_c, 0, 58, 0
1, 186060, Note_on_c, 0, 67, 0
1, 186060, Note_on_c, 0, 70, 0
1, 186060, Note_on_c, 0, 79, 0
1, 186060, Note_on_c, 0, 51, 0
1, 186060, Note_on_c, 0, 63, 0
1, 186180, Tempo, 574163
1, 186180, Note_on_c, 0, 62, 41
1, 186180, Note_on_c, 0, 50, 35
1, 186240, Tempo, 705882
1, 186240, Note_on_c, 0, 50, 0
1, 186240, Note_on_c, 0, 62, 0
1, 186240, Note_on_c, 0, 79, 66
1, 186240, Note_on_c, 0, 75, 56
1, 186240, Note_on_c, 0, 67, 56
1, 186240, Note_on_c, 0, 63, 55
1, 186240, Note_on_c, 0, 51, 46
1, 186240, Note_on_c, 0, 58, 46
1, 186300, Note_on_c, 0, 58, 0
1, 186300, Note_on_c, 0, 75, 0
1, 186300, Note_on_c, 0, 67, 0
1, 186300, Note_on_c, 0, 79, 0
1, 186300, Note_on_c, 0, 51, 0
1, 186300, Note_on_c, 0, 63, 0
1, 186360, Tempo, 666667
1, 186420, Note_on_c, 0, 78, 51
1, 186420, Note_on_c, 0, 66, 42
1, 186420, Note_on_c, 0, 74, 42
1, 186480, Tempo, 659341
1, 186480, Note_on_c, 0, 74, 0
1, 186480, Note_on_c, 0, 66, 0
1, 186480, Note_on_c, 0, 78, 0
1, 186480, Note_on_c, 0, 79, 51
1, 186480, Note_on_c, 0, 75, 42
1, 186480, Note_on_c, 0, 67, 42
1, 186540, Note_on_c, 0, 67, 0
1, 186540, Note_on_c, 0, 75, 0
1, 186540, Note_on_c, 0, 79, 0
1, 186600, Tempo, 718563
1, 186720, Tempo, 670391
1, 186720, Note_on_c, 0, 80, 52
1, 186720, Note_on_c, 0, 72, 44
1, 186720, Note_on_c, 0, 34, 48
1, 186780, Note_on_c, 0, 34, 0
1, 186780, Note_on_c, 0, 72, 0
1, 186780, Note_on_c, 0, 80, 0
1, 186840, Note_on_c, 0, 79, 47
1, 186840, Note_on_c, 0, 70, 39
1, 186900, Note_on_c, 0, 70, 0
1, 186900, Note_on_c, 0, 79, 0
1, 186960, Tempo, 652174
1, 186960, Note_on_c, 0, 77, 47
1, 186960, Note_on_c, 0, 68, 39
1, 186960, Note_on_c, 0, 62, 42
1, 186960, Note_on_c, 0, 56, 35
1, 186960, Note_on_c, 0, 53, 35
1, 187020, Note_on_c, 0, 53, 0
1, 187020, Note_on_c, 0, 62, 0
1, 187020, Note_on_c, 0, 77, 0
1, 187020, Note_on_c, 0, 68, 0
1, 187020, Note_on_c, 0, 56, 0
1, 187080, Tempo, 705882
1, 187080, Note_on_c, 0, 75, 47
1, 187080, Note_on_c, 0, 67, 39
1, 187140, Note_on_c, 0, 67, 0
1, 187140, Note_on_c, 0, 75, 0
1, 187200, Tempo, 670391
1, 187200, Note_on_c, 0, 74, 52
1, 187200, Note_on_c, 0, 65, 44
1, 187200, Note_on_c, 0, 46, 47
1, 187260, Note_on_c, 0, 46, 0
1, 187260, Note_on_c, 0, 65, 0
1, 187260, Note_on_c, 0, 74, 0
1, 187320, Note_on_c, 0, 70, 45
1, 187320, Note_on_c, 0, 62, 38
1, 187380, Note_on_c, 0, 62, 0
1, 187380, Note_on_c, 0, 70, 0
1, 187440, Tempo, 712166
1, 187440, Note_on_c, 0, 72, 45
1, 187440, Note_on_c, 0, 63, 38
1, 187440, Note_on_c, 0, 58, 40
1, 187440, Note_on_c, 0, 53, 34
1, 187440, Note_on_c, 0, 56, 34
1, 187500, Note_on_c, 0, 56, 0
1, 187500, Note_on_c, 0, 58, 0
1, 187500, Note_on_c, 0, 72, 0
1, 187500, Note_on_c, 0, 63, 0
1, 187500, Note_on_c, 0, 53, 0
1, 187560, Note_on_c, 0, 74, 45
1, 187560, Note_on_c, 0, 65, 38
1, 187620, Note_on_c, 0, 65, 0
1, 187620, Note_on_c, 0, 74, 0
1, 187680, Tempo, 653951
1, 187680, Note_on_c, 0, 75, 56
1, 187680, Note_on_c, 0, 67, 47
1, 187680, Note_on_c, 0, 39, 43
1, 187740, Note_on_c, 0, 39, 0
1, 187740, Note_on_c, 0, 67, 0
1, 187740, Note_on_c, 0, 75, 0
1, 187800, Note_on_c, 0, 77, 49
1, 187800, Note_on_c, 0, 70, 41
1, 187860, Note_on_c, 0, 70, 0
1, 187860, Note_on_c, 0, 77, 0
1, 187920, Tempo, 631579
1, 187920, Note_on_c, 0, 79, 50
1, 187920, Note_on_c, 0, 75, 42
1, 187920, Note_on_c, 0, 63, 37
1, 187920, Note_on_c, 0, 58, 31
1, 187920, Note_on_c, 0, 55, 31
1, 187980, Note_on_c, 0, 55, 0
1, 187980, Note_on_c, 0, 63, 0
1, 187980, Note_on_c, 0, 79, 0
1, 187980, Note_on_c, 0, 75, 0
1, 187980, Note_on_c, 0, 58, 0
1, 188040, Tempo, 699708
1, 188040, Note_on_c, 0, 80, 44
1, 188040, Note_on_c, 0, 77, 37
1, 188100, Note_on_c, 0, 77, 0
1, 188100, Note_on_c, 0, 80, 0
1, 188130, Note_on_c, 0, 84, 56
1, 188160, Tempo, 653951
1, 188160, Note_on_c, 0, 84, 0
1, 188160, Note_on_c, 0, 82, 50
1, 188160, Note_on_c, 0, 79, 42
1, 188160, Note_on_c, 0, 46, 43
1, 188220, Note_on_c, 0, 46, 0
1, 188220, Note_on_c, 0, 79, 0
1, 188220, Note_on_c, 0, 82, 0
1, 188340, Note_on_c, 0, 81, 45
1, 188340, Note_on_c, 0, 78, 38
1, 188400, Note_on_c, 0, 78, 0
1, 188400, Note_on_c, 0, 81, 0
1, 188400, Note_on_c, 0, 82, 50
1, 188400, Note_on_c, 0, 79, 50
1, 188400, Note_on_c, 0, 63, 35
1, 188400, Note_on_c, 0, 58, 29
1, 188400, Note_on_c, 0, 55, 29
1, 188460, Note_on_c, 0, 55, 0
1, 188460, Note_on_c, 0, 63, 0
1, 188460, Note_on_c, 0, 82, 0
1, 188460, Note_on_c, 0, 79, 0
1, 188460, Note_on_c, 0, 58, 0
1, 188520, Tempo, 705882
1, 188640, Tempo, 670391
1, 188640, Note_on_c, 0, 92, 52
1, 188640, Note_on_c, 0, 84, 44
1, 188640, Note_on_c, 0, 34, 48
1, 188700, Note_on_c, 0, 34, 0
1, 188700, Note_on_c, 0, 84, 0
1, 188700, Note_on_c, 0, 92, 0
1, 188760, Note_on_c, 0, 91, 47
1, 188760, Note_on_c, 0, 82, 39
1, 188820, Note_on_c, 0, 82, 0
1, 188820, Note_on_c, 0, 91, 0
1, 188880, Tempo, 631579
1, 188880, Note_on_c, 0, 89, 47
1, 188880, Note_on_c, 0, 80, 39
1, 188880, Note_on_c, 0, 62, 42
1, 188880, Note_on_c, 0, 56, 35
1, 188880, Note_on_c, 0, 53, 35
1, 188940, Note_on_c, 0, 53, 0
1, 188940, Note_on_c, 0, 62, 0
1, 188940, Note_on_c, 0, 89, 0
1, 188940, Note_on_c, 0, 80, 0
1, 188940, Note_on_c, 0, 56, 0
1, 189000, Tempo, 705882
1, 189000, Note_on_c, 0, 87, 47
1, 189000, Note_on_c, 0, 79, 39
1, 189060, Note_on_c, 0, 79, 0
1, 189060, Note_on_c, 0, 87, 0
1, 189120, Tempo, 670391
1, 189120, Note_on_c, 0, 86, 52
1, 189120, Note_on_c, 0, 77, 44
1, 189120, Note_on_c, 0, 46, 47
1, 189180, Note_on_c, 0, 46, 0
1, 189180, Note_on_c, 0, 77, 0
1, 189180, Note_on_c, 0, 86, 0
1, 189240, Note_on_c, 0, 82, 45
1, 189240, Note_on_c, 0, 74, 38
1, 189300, Note_on_c, 0, 74, 0
1, 189300, Note_on_c, 0, 82, 0
1, 189360, Tempo, 712166
1, 189360, Note_on_c, 0, 84, 45
1, 189360, Note_on_c, 0, 75, 38
1, 189360, Note_on_c, 0, 58, 40
1, 189360, Note_on_c, 0, 53, 34
1, 189360, Note_on_c, 0, 56, 34
1, 189420, Note_on_c, 0, 56, 0
1, 189420, Note_on_c, 0, 58, 0
1, 189420, Note_on_c, 0, 84, 0
1, 189420, Note_on_c, 0, 75, 0
1, 189420, Note_on_c, 0, 53, 0
1, 189480, Note_on_c, 0, 86, 45
1, 189480, Note_on_c, 0, 77, 38
1, 189540, Note_on_c, 0, 77, 0
1, 189540, Note_on_c, 0, 86, 0
1, 189600, Tempo, 653951
1, 189600, Note_on_c, 0, 87, 56
1, 189600, Note_on_c, 0, 79, 47
1, 189600, Note_on_c, 0, 39, 43
1, 189660, Note_on_c, 0, 39, 0
1, 189660, Note_on_c, 0, 79, 0
1, 189660, Note_on_c, 0, 87, 0
1, 189720, Note_on_c, 0, 89, 49
1, 189720, Note_on_c, 0, 82, 41
1, 189780, Note_on_c, 0, 82, 0
1, 189780, Note_on_c, 0, 89, 0
1, 189840, Note_on_c, 0, 91, 50
1, 189840, Note_on_c, 0, 87, 42
1, 189840, Note_on_c, 0, 63, 37
1, 189840, Note_on_c, 0, 58, 31
1, 189840, Note_on_c, 0, 55, 31
1, 189900, Note_on_c, 0, 55, 0
1, 189900, Note_on_c, 0, 63, 0
1, 189900, Note_on_c, 0, 91, 0
1, 189900, Note_on_c, 0, 87, 0
1, 189900, Note_on_c, 0, 58, 0
1, 189960, Tempo, 699708
1, 189960, Note_on_c, 0, 92, 44
1, 189960, Note_on_c, 0, 89, 37
1, 190020, Note_on_c, 0, 89, 0
1, 190020, Note_on_c, 0, 92, 0
1, 190050, Note_on_c, 0, 96, 56
1, 190080, Tempo, 653951
1, 190080, Note_on_c, 0, 96, 0
1, 190080, Note_on_c, 0, 94, 50
1, 190080, Note_on_c, 0, 91, 42
1, 190080, Note_on_c, 0, 46, 43
1, 190140, Note_on_c, 0, 46, 0
1, 190140, Note_on_c, 0, 91, 0
1, 190140, Note_on_c, 0, 94, 0
1, 190260, Note_on_c, 0, 93, 45
1, 190260, Note_on_c, 0, 90, 38
1, 190320, Tempo, 681818
1, 190320, Note_on_c, 0, 90, 0
1, 190320, Note_on_c, 0, 93, 0
1, 190320, Note_on_c, 0, 94, 50
1, 190320, Note_on_c, 0, 91, 50
1, 190320, Note_on_c, 0, 63, 35
1, 190320, Note_on_c, 0, 58, 29
1, 190320, Note_on_c, 0, 55, 29
1, 190380, Note_on_c, 0, 55, 0
1, 190380, Note_on_c, 0, 63, 0
1, 190380, Note_on_c, 0, 94, 0
1, 190380, Note_on_c, 0, 91, 0
1, 190380, Note_on_c, 0, 58, 0
1, 190560, Tempo, 693642
1, 190560, Note_on_c, 0, 56, 93
1, 190560, Note_on_c, 0, 44, 74
1, 190560, Note_on_c, 0, 32, 63
1, 190606, Control_c, 0, 64, 127
1, 190740, Note_on_c, 0, 32, 0
1, 190740, Note_on_c, 0, 44, 0
1, 190740, Note_on_c, 0, 56, 0
1, 190757, Control_c, 0, 64, 0
1, 190800, Tempo, 659341
1, 190800, Note_on_c, 0, 84, 56
1, 190800, Note_on_c, 0, 72, 47
1, 190800, Note_on_c, 0, 75, 47
1, 190800, Note_on_c, 0, 68, 48
1, 190800, Note_on_c, 0, 56, 40
1, 190800, Note_on_c, 0, 63, 40
1, 190860, Note_on_c, 0, 63, 0
1, 190860, Note_on_c, 0, 72, 0
1, 190860, Note_on_c, 0, 75, 0
1, 190860, Note_on_c, 0, 84, 0
1, 190860, Note_on_c, 0, 56, 0
1, 190860, Note_on_c, 0, 68, 0
1, 190980, Tempo, 591133
1, 190980, Note_on_c, 0, 67, 41
1, 190980, Note_on_c, 0, 55, 35
1, 191040, Tempo, 725076
1, 191040, Note_on_c, 0, 55, 0
1, 191040, Note_on_c, 0, 67, 0
1, 191040, Note_on_c, 0, 84, 66
1, 191040, Note_on_c, 0, 80, 56
1, 191040, Note_on_c, 0, 72, 56
1, 191040, Note_on_c, 0, 68, 55
1, 191040, Note_on_c, 0, 56, 46
1, 191040, Note_on_c, 0, 63, 46
1, 191100, Note_on_c, 0, 63, 0
1, 191100, Note_on_c, 0, 80, 0
1, 191100, Note_on_c, 0, 72, 0
1, 191100, Note_on_c, 0, 84, 0
1, 191100, Note_on_c, 0, 56, 0
1, 191100, Note_on_c, 0, 68, 0
1, 191160, Tempo, 666667
1, 191220, Note_on_c, 0, 83, 51
1, 191220, Note_on_c, 0, 71, 42
1, 191220, Note_on_c, 0, 79, 42
1, 191280, Note_on_c, 0, 79, 0
1, 191280, Note_on_c, 0, 71, 0
1, 191280, Note_on_c, 0, 83, 0
1, 191280, Note_on_c, 0, 84, 51
1, 191280, Note_on_c, 0, 80, 42
1, 191280, Note_on_c, 0, 72, 42
1, 191340, Note_on_c, 0, 72, 0
1, 191340, Note_on_c, 0, 80, 0
1, 191340, Note_on_c, 0, 84, 0
1, 191400, Tempo, 705882
1, 191520, Tempo, 693642
1, 191520, Note_on_c, 0, 55, 101
1, 191520, Note_on_c, 0, 43, 74
1, 191520, Note_on_c, 0, 31, 63
1, 191557, Control_c, 0, 64, 127
1, 191700, Note_on_c, 0, 31, 0
1, 191700, Note_on_c, 0, 43, 0
1, 191700, Note_on_c, 0, 55, 0
1, 191735, Control_c, 0, 64, 0
1, 191760, Tempo, 659341
1, 191760, Note_on_c, 0, 82, 56
1, 191760, Note_on_c, 0, 70, 47
1, 191760, Note_on_c, 0, 75, 47
1, 191760, Note_on_c, 0, 67, 48
1, 191760, Note_on_c, 0, 55, 40
1, 191760, Note_on_c, 0, 63, 40
1, 191820, Note_on_c, 0, 63, 0
1, 191820, Note_on_c, 0, 70, 0
1, 191820, Note_on_c, 0, 75, 0
1, 191820, Note_on_c, 0, 82, 0
1, 191820, Note_on_c, 0, 55, 0
1, 191820, Note_on_c, 0, 67, 0
1, 191940, Tempo, 574163
1, 191940, Note_on_c, 0, 66, 41
1, 191940, Note_on_c, 0, 54, 35
1, 192000, Tempo, 705882
1, 192000, Note_on_c, 0, 54, 0
1, 192000, Note_on_c, 0, 66, 0
1, 192000, Note_on_c, 0, 82, 66
1, 192000, Note_on_c, 0, 79, 56
1, 192000, Note_on_c, 0, 70, 56
1, 192000, Note_on_c, 0, 67, 55
1, 192000, Note_on_c, 0, 55, 46
1, 192000, Note_on_c, 0, 63, 46
1, 192060, Note_on_c, 0, 63, 0
1, 192060, Note_on_c, 0, 79, 0
1, 192060, Note_on_c, 0, 70, 0
1, 192060, Note_on_c, 0, 82, 0
1, 192060, Note_on_c, 0, 55, 0
1, 192060, Note_on_c, 0, 67, 0
1, 192120, Tempo, 666667
1, 192180, Note_on_c, 0, 81, 51
1, 192180, Note_on_c, 0, 69, 42
1, 192180, Note_on_c, 0, 78, 42
1, 192240, Note_on_c, 0, 78, 0
1, 192240, Note_on_c, 0, 69, 0
1, 192240, Note_on_c, 0, 81, 0
1, 192240, Note_on_c, 0, 82, 51
1, 192240, Note_on_c, 0, 79, 42
1, 192240, Note_on_c, 0, 70, 42
1, 192300, Note_on_c, 0, 70, 0
1, 192300, Note_on_c, 0, 79, 0
1, 192300, Note_on_c, 0, 82, 0
1, 192360, Tempo, 718563
1, 192480, Tempo, 693642
1, 192480, Note_on_c, 0, 53, 96
1, 192480, Note_on_c, 0, 41, 74
1, 192480, Note_on_c, 0, 29, 63
1, 192546, Control_c, 0, 64, 127
1, 192660, Note_on_c, 0, 29, 0
1, 192660, Note_on_c, 0, 41, 0
1, 192660, Note_on_c, 0, 53, 0
1, 192709, Control_c, 0, 64, 0
1, 192720, Tempo, 659341
1, 192720, Note_on_c, 0, 80, 56
1, 192720, Note_on_c, 0, 68, 47
1, 192720, Note_on_c, 0, 74, 47
1, 192720, Note_on_c, 0, 65, 48
1, 192720, Note_on_c, 0, 53, 40
1, 192720, Note_on_c, 0, 62, 40
1, 192780, Note_on_c, 0, 62, 0
1, 192780, Note_on_c, 0, 68, 0
1, 192780, Note_on_c, 0, 74, 0
1, 192780, Note_on_c, 0, 80, 0
1, 192780, Note_on_c, 0, 53, 0
1, 192780, Note_on_c, 0, 65, 0
1, 192900, Tempo, 574163
1, 192900, Note_on_c, 0, 64, 41
1, 192900, Note_on_c, 0, 52, 35
1, 192960, Tempo, 712166
1, 192960, Note_on_c, 0, 52, 0
1, 192960, Note_on_c, 0, 64, 0
1, 192960, Note_on_c, 0, 80, 66
1, 192960, Note_on_c, 0, 77, 56
1, 192960, Note_on_c, 0, 68, 56
1, 192960, Note_on_c, 0, 65, 55
1, 192960, Note_on_c, 0, 53, 46
1, 192960, Note_on_c, 0, 62, 46
1, 193020, Note_on_c, 0, 62, 0
1, 193020, Note_on_c, 0, 77, 0
1, 193020, Note_on_c, 0, 68, 0
1, 193020, Note_on_c, 0, 80, 0
1, 193020, Note_on_c, 0, 53, 0
1, 193020, Note_on_c, 0, 65, 0
1, 193080, Tempo, 652174
1, 193140, Note_on_c, 0, 79, 51
1, 193140, Note_on_c, 0, 67, 42
1, 193140, Note_on_c, 0, 76, 42
1, 193200, Note_on_c, 0, 76, 0
1, 193200, Note_on_c, 0, 67, 0
1, 193200, Note_on_c, 0, 79, 0
1, 193200, Note_on_c, 0, 80, 51
1, 193200, Note_on_c, 0, 77, 42
1, 193200, Note_on_c, 0, 68, 42
1, 193260, Note_on_c, 0, 68, 0
1, 193260, Note_on_c, 0, 77, 0
1, 193260, Note_on_c, 0, 80, 0
1, 193320, Tempo, 718563
1, 193440, Tempo, 693642
1, 193440, Note_on_c, 0, 51, 92
1, 193440, Note_on_c, 0, 39, 74
1, 193440, Note_on_c, 0, 27, 63
1, 193500, Control_c, 0, 64, 127
1, 193620, Note_on_c, 0, 27, 0
1, 193620, Note_on_c, 0, 39, 0
1, 193620, Note_on_c, 0, 51, 0
1, 193657, Control_c, 0, 64, 0
1, 193680, Tempo, 659341
1, 193680, Note_on_c, 0, 79, 56
1, 193680, Note_on_c, 0, 67, 47
1, 193680, Note_on_c, 0, 70, 47
1, 193680, Note_on_c, 0, 63, 48
1, 193680, Note_on_c, 0, 51, 40
1, 193680, Note_on_c, 0, 58, 40
1, 193740, Note_on_c, 0, 58, 0
1, 193740, Note_on_c, 0, 67, 0
1, 193740, Note_on_c, 0, 70, 0
1, 193740, Note_on_c, 0, 79, 0
1, 193740, Note_on_c, 0, 51, 0
1, 193740, Note_on_c, 0, 63, 0
1, 193860, Tempo, 574163
1, 193860, Note_on_c, 0, 62, 41
1, 193860, Note_on_c, 0, 50, 35
1, 193920, Tempo, 712166
1, 193920, Note_on_c, 0, 50, 0
1, 193920, Note_on_c, 0, 62, 0
1, 193920, Note_on_c, 0, 79, 66
1, 193920, Note_on_c, 0, 75, 56
1, 193920, Note_on_c, 0, 67, 56
1, 193920, Note_on_c, 0, 63, 55
1, 193920, Note_on_c, 0, 51, 46
1, 193920, Note_on_c, 0, 58, 46
1, 193980, Note_on_c, 0, 58, 0
1, 193980, Note_on_c, 0, 75, 0
1, 193980, Note_on_c, 0, 67, 0
1, 193980, Note_on_c, 0, 79, 0
1, 193980, Note_on_c, 0, 51, 0
1, 193980, Note_on_c, 0, 63, 0
1, 194040, Tempo, 659341
1, 194100, Note_on_c, 0, 78, 51
1, 194100, Note_on_c, 0, 66, 42
1, 194100, Note_on_c, 0, 74, 42
1, 194160, Note_on_c, 0, 74, 0
1, 194160, Note_on_c, 0, 66, 0
1, 194160, Note_on_c, 0, 78, 0
1, 194160, Note_on_c, 0, 79, 51
1, 194160, Note_on_c, 0, 75, 42
1, 194160, Note_on_c, 0, 67, 42
1, 194220, Note_on_c, 0, 67, 0
1, 194220, Note_on_c, 0, 75, 0
1, 194220, Note_on_c, 0, 79, 0
1, 194280, Tempo, 718563
1, 194400, Tempo, 652174
1, 194400, Note_on_c, 0, 92, 52
1, 194400, Note_on_c, 0, 84, 44
1, 194400, Note_on_c, 0, 34, 48
1, 194460, Note_on_c, 0, 34, 0
1, 194460, Note_on_c, 0, 84, 0
1, 194460, Note_on_c, 0, 92, 0
1, 194520, Note_on_c, 0, 91, 47
1, 194520, Note_on_c, 0, 82, 39
1, 194580, Note_on_c, 0, 82, 0
1, 194580, Note_on_c, 0, 91, 0
1, 194640, Tempo, 666667
1, 194640, Note_on_c, 0, 89, 47
1, 194640, Note_on_c, 0, 80, 39
1, 194640, Note_on_c, 0, 62, 42
1, 194640, Note_on_c, 0, 56, 35
1, 194640, Note_on_c, 0, 53, 35
1, 194700, Note_on_c, 0, 53, 0
1, 194700, Note_on_c, 0, 62, 0
1, 194700, Note_on_c, 0, 89, 0
1, 194700, Note_on_c, 0, 80, 0
1, 194700, Note_on_c, 0, 56, 0
1, 194760, Tempo, 705882
1, 194760, Note_on_c, 0, 87, 47
1, 194760, Note_on_c, 0, 79, 39
1, 194820, Note_on_c, 0, 79, 0
1, 194820, Note_on_c, 0, 87, 0
1, 194880, Tempo, 670391
1, 194880, Note_on_c, 0, 86, 52
1, 194880, Note_on_c, 0, 77, 44
1, 194880, Note_on_c, 0, 46, 47
1, 194940, Note_on_c, 0, 46, 0
1, 194940, Note_on_c, 0, 77, 0
1, 194940, Note_on_c, 0, 86, 0
1, 195000, Note_on_c, 0, 82, 45
1, 195000, Note_on_c, 0, 74, 38
1, 195060, Note_on_c, 0, 74, 0
1, 195060, Note_on_c, 0, 82, 0
1, 195120, Tempo, 666667
1, 195120, Note_on_c, 0, 84, 45
1, 195120, Note_on_c, 0, 75, 38
1, 195120, Note_on_c, 0, 58, 40
1, 195120, Note_on_c, 0, 53, 34
1, 195120, Note_on_c, 0, 56, 34
1, 195180, Note_on_c, 0, 56, 0
1, 195180, Note_on_c, 0, 58, 0
1, 195180, Note_on_c, 0, 84, 0
1, 195180, Note_on_c, 0, 75, 0
1, 195180, Note_on_c, 0, 53, 0
1, 195240, Tempo, 705882
1, 195240, Note_on_c, 0, 86, 45
1, 195240, Note_on_c, 0, 77, 38
1, 195300, Note_on_c, 0, 77, 0
1, 195300, Note_on_c, 0, 86, 0
1, 195360, Tempo, 638298
1, 195360, Note_on_c, 0, 87, 56
1, 195360, Note_on_c, 0, 79, 47
1, 195360, Note_on_c, 0, 39, 43
1, 195420, Note_on_c, 0, 39, 0
1, 195420, Note_on_c, 0, 79, 0
1, 195420, Note_on_c, 0, 87, 0
1, 195480, Note_on_c, 0, 89, 49
1, 195480, Note_on_c, 0, 82, 41
1, 195540, Note_on_c, 0, 82, 0
1, 195540, Note_on_c, 0, 89, 0
1, 195600, Tempo, 652174
1, 195600, Note_on_c, 0, 91, 50
1, 195600, Note_on_c, 0, 87, 42
1, 195600, Note_on_c, 0, 63, 37
1, 195600, Note_on_c, 0, 58, 31
1, 195600, Note_on_c, 0, 55, 31
1, 195660, Note_on_c, 0, 55, 0
1, 195660, Note_on_c, 0, 63, 0
1, 195660, Note_on_c, 0, 91, 0
1, 195660, Note_on_c, 0, 87, 0
1, 195660, Note_on_c, 0, 58, 0
1, 195720, Tempo, 699708
1, 195720, Note_on_c, 0, 92, 44
1, 195720, Note_on_c, 0, 89, 37
1, 195780, Note_on_c, 0, 89, 0
1, 195780, Note_on_c, 0, 92, 0
1, 195810, Note_on_c, 0, 96, 56
1, 195840, Tempo, 645161
1, 195840, Note_on_c, 0, 96, 0
1, 195840, Note_on_c, 0, 94, 50
1, 195840, Note_on_c, 0, 91, 42
1, 195840, Note_on_c, 0, 46, 43
1, 195900, Note_on_c, 0, 46, 0
1, 195900, Note_on_c, 0, 91, 0
1, 195900, Note_on_c, 0, 94, 0
1, 195960, Note_on_c, 0, 90, 38
1, 195960, Note_on_c, 0, 93, 45
1, 196020, Note_on_c, 0, 93, 0
1, 196020, Note_on_c, 0, 90, 0
1, 196080, Tempo, 652174
1, 196080, Note_on_c, 0, 96, 50
1, 196080, Note_on_c, 0, 92, 50
1, 196080, Note_on_c, 0, 63, 35
1, 196080, Note_on_c, 0, 58, 29
1, 196080, Note_on_c, 0, 55, 29
1, 196140, Note_on_c, 0, 55, 0
1, 196140, Note_on_c, 0, 63, 0
1, 196140, Note_on_c, 0, 96, 0
1, 196140, Note_on_c, 0, 92, 0
1, 196140, Note_on_c, 0, 58, 0
1, 196200, Note_on_c, 0, 94, 50
1, 196200, Note_on_c, 0, 91, 50
1, 196260, Note_on_c, 0, 91, 0
1, 196260, Note_on_c, 0, 94, 0
1, 196320, Tempo, 670391
1, 196320, Note_on_c, 0, 80, 52
1, 196320, Note_on_c, 0, 72, 44
1, 196320, Note_on_c, 0, 34, 48
1, 196380, Note_on_c, 0, 34, 0
1, 196380, Note_on_c, 0, 72, 0
1, 196380, Note_on_c, 0, 80, 0
1, 196440, Note_on_c, 0, 79, 47
1, 196440, Note_on_c, 0, 70, 39
1, 196500, Note_on_c, 0, 70, 0
1, 196500, Note_on_c, 0, 79, 0
1, 196560, Tempo, 645161
1, 196560, Note_on_c, 0, 77, 47
1, 196560, Note_on_c, 0, 68, 39
1, 196560, Note_on_c, 0, 62, 42
1, 196560, Note_on_c, 0, 56, 35
1, 196560, Note_on_c, 0, 53, 35
1, 196620, Note_on_c, 0, 53, 0
1, 196620, Note_on_c, 0, 62, 0
1, 196620, Note_on_c, 0, 77, 0
1, 196620, Note_on_c, 0, 68, 0
1, 196620, Note_on_c, 0, 56, 0
1, 196680, Tempo, 674157
1, 196680, Note_on_c, 0, 75, 47
1, 196680, Note_on_c, 0, 67, 39
1, 196740, Note_on_c, 0, 67, 0
1, 196740, Note_on_c, 0, 75, 0
1, 196800, Tempo, 670391
1, 196800, Note_on_c, 0, 74, 52
1, 196800, Note_on_c, 0, 65, 44
1, 196800, Note_on_c, 0, 46, 47
1, 196860, Note_on_c, 0, 46, 0
1, 196860, Note_on_c, 0, 65, 0
1, 196860, Note_on_c, 0, 74, 0
1, 196920, Note_on_c, 0, 70, 45
1, 196920, Note_on_c, 0, 62, 38
1, 196980, Note_on_c, 0, 62, 0
1, 196980, Note_on_c, 0, 70, 0
1, 197040, Tempo, 666667
1, 197040, Note_on_c, 0, 72, 45
1, 197040, Note_on_c, 0, 63, 38
1, 197040, Note_on_c, 0, 58, 40
1, 197040, Note_on_c, 0, 53, 34
1, 197040, Note_on_c, 0, 56, 34
1, 197100, Note_on_c, 0, 56, 0
1, 197100, Note_on_c, 0, 58, 0
1, 197100, Note_on_c, 0, 72, 0
1, 197100, Note_on_c, 0, 63, 0
1, 197100, Note_on_c, 0, 53, 0
1, 197160, Tempo, 705882
1, 197160, Note_on_c, 0, 74, 45
1, 197160, Note_on_c, 0, 65, 38
1, 197220, Note_on_c, 0, 65, 0
1, 197220, Note_on_c, 0, 74, 0
1, 197280, Tempo, 653951
1, 197280, Note_on_c, 0, 75, 56
1, 197280, Note_on_c, 0, 67, 47
1, 197280, Note_on_c, 0, 39, 43
1, 197340, Note_on_c, 0, 39, 0
1, 197340, Note_on_c, 0, 67, 0
1, 197340, Note_on_c, 0, 75, 0
1, 197400, Note_on_c, 0, 77, 49
1, 197400, Note_on_c, 0, 70, 41
1, 197460, Note_on_c, 0, 70, 0
1, 197460, Note_on_c, 0, 77, 0
1, 197520, Note_on_c, 0, 79, 50
1, 197520, Note_on_c, 0, 75, 42
1, 197520, Note_on_c, 0, 63, 37
1, 197520, Note_on_c, 0, 58, 31
1, 197520, Note_on_c, 0, 55, 31
1, 197580, Note_on_c, 0, 55, 0
1, 197580, Note_on_c, 0, 63, 0
1, 197580, Note_on_c, 0, 79, 0
1, 197580, Note_on_c, 0, 75, 0
1, 197580, Note_on_c, 0, 58, 0
1, 197640, Tempo, 699708
1, 197640, Note_on_c, 0, 80, 44
1, 197640, Note_on_c, 0, 77, 37
1, 197700, Note_on_c, 0, 77, 0
1, 197700, Note_on_c, 0, 80, 0
1, 197760, Tempo, 653951
1, 197760, Note_on_c, 0, 82, 50
1, 197760, Note_on_c, 0, 79, 42
1, 197760, Note_on_c, 0, 46, 43
1, 197820, Note_on_c, 0, 46, 0
1, 197820, Note_on_c, 0, 79, 0
1, 197820, Note_on_c, 0, 82, 0
1, 197880, Note_on_c, 0, 78, 38
1, 197880, Note_on_c, 0, 81, 45
1, 197940, Note_on_c, 0, 81, 0
1, 197940, Note_on_c, 0, 78, 0
1, 198000, Note_on_c, 0, 84, 50
1, 198000, Note_on_c, 0, 80, 50
1, 198000, Note_on_c, 0, 63, 35
1, 198000, Note_on_c, 0, 58, 29
1, 198000, Note_on_c, 0, 55, 29
1, 198060, Note_on_c, 0, 55, 0
1, 198060, Note_on_c, 0, 63, 0
1, 198060, Note_on_c, 0, 84, 0
1, 198060, Note_on_c, 0, 80, 0
1, 198060, Note_on_c, 0, 58, 0
1, 198120, Note_on_c, 0, 82, 50
1, 198120, Note_on_c, 0, 79, 50
1, 198180, Note_on_c, 0, 79, 0
1, 198180, Note_on_c, 0, 82, 0
1, 198240, Tempo, 670391
1, 198240, Note_on_c, 0, 92, 52
1, 198240, Note_on_c, 0, 84, 44
1, 198240, Note_on_c, 0, 34, 48
1, 198300, Note_on_c, 0, 34, 0
1, 198300, Note_on_c, 0, 84, 0
1, 198300, Note_on_c, 0, 92, 0
1, 198360, Note_on_c, 0, 91, 47
1, 198360, Note_on_c, 0, 82, 39
1, 198420, Note_on_c, 0, 82, 0
1, 198420, Note_on_c, 0, 91, 0
1, 198480, Note_on_c, 0, 89, 47
1, 198480, Note_on_c, 0, 80, 39
1, 198480, Note_on_c, 0, 62, 42
1, 198480, Note_on_c, 0, 56, 35
1, 198480, Note_on_c, 0, 53, 35
1, 198540, Note_on_c, 0, 53, 0
1, 198540, Note_on_c, 0, 62, 0
1, 198540, Note_on_c, 0, 89, 0
1, 198540, Note_on_c, 0, 80, 0
1, 198540, Note_on_c, 0, 56, 0
1, 198600, Tempo, 705882
1, 198600, Note_on_c, 0, 87, 47
1, 198600, Note_on_c, 0, 79, 39
1, 198660, Note_on_c, 0, 79, 0
1, 198660, Note_on_c, 0, 87, 0
1, 198720, Tempo, 670391
1, 198720, Note_on_c, 0, 86, 52
1, 198720, Note_on_c, 0, 77, 44
1, 198720, Note_on_c, 0, 46, 47
1, 198780, Note_on_c, 0, 46, 0
1, 198780, Note_on_c, 0, 77, 0
1, 198780, Note_on_c, 0, 86, 0
1, 198840, Note_on_c, 0, 82, 45
1, 198840, Note_on_c, 0, 74, 38
1, 198900, Note_on_c, 0, 74, 0
1, 198900, Note_on_c, 0, 82, 0
1, 198960, Tempo, 674157
1, 198960, Note_on_c, 0, 84, 45
1, 198960, Note_on_c, 0, 75, 38
1, 198960, Note_on_c, 0, 62, 40
1, 198960, Note_on_c, 0, 53, 34
1, 198960, Note_on_c, 0, 56, 34
1, 199020, Note_on_c, 0, 56, 0
1, 199020, Note_on_c, 0, 62, 0
1, 199020, Note_on_c, 0, 84, 0
1, 199020, Note_on_c, 0, 75, 0
1, 199020, Note_on_c, 0, 53, 0
1, 199080, Note_on_c, 0, 86, 45
1, 199080, Note_on_c, 0, 77, 38
1, 199140, Note_on_c, 0, 77, 0
1, 199140, Note_on_c, 0, 86, 0
1, 199200, Tempo, 653951
1, 199200, Note_on_c, 0, 87, 56
1, 199200, Note_on_c, 0, 79, 47
1, 199200, Note_on_c, 0, 39, 43
1, 199260, Note_on_c, 0, 39, 0
1, 199260, Note_on_c, 0, 79, 0
1, 199260, Note_on_c, 0, 87, 0
1, 199320, Note_on_c, 0, 89, 49
1, 199320, Note_on_c, 0, 82, 41
1, 199380, Note_on_c, 0, 82, 0
1, 199380, Note_on_c, 0, 89, 0
1, 199440, Note_on_c, 0, 91, 50
1, 199440, Note_on_c, 0, 87, 42
1, 199440, Note_on_c, 0, 63, 37
1, 199440, Note_on_c, 0, 58, 31
1, 199440, Note_on_c, 0, 55, 31
1, 199500, Note_on_c, 0, 55, 0
1, 199500, Note_on_c, 0, 63, 0
1, 199500, Note_on_c, 0, 91, 0
1, 199500, Note_on_c, 0, 87, 0
1, 199500, Note_on_c, 0, 58, 0
1, 199560, Tempo, 674157
1, 199560, Note_on_c, 0, 92, 44
1, 199560, Note_on_c, 0, 89, 37
1, 199620, Note_on_c, 0, 89, 0
1, 199620, Note_on_c, 0, 92, 0
1, 199680, Tempo, 653951
1, 199680, Note_on_c, 0, 94, 50
1, 199680, Note_on_c, 0, 91, 42
1, 199680, Note_on_c, 0, 46, 43
1, 199740, Note_on_c, 0, 46, 0
1, 199740, Note_on_c, 0, 91, 0
1, 199740, Note_on_c, 0, 94, 0
1, 199800, Note_on_c, 0, 90, 38
1, 199800, Note_on_c, 0, 93, 45
1, 199860, Note_on_c, 0, 93, 0
1, 199860, Note_on_c, 0, 90, 0
1, 199920, Note_on_c, 0, 96, 50
1, 199920, Note_on_c, 0, 92, 42
1, 199920, Note_on_c, 0, 63, 35
1, 199920, Note_on_c, 0, 58, 29
1, 199920, Note_on_c, 0, 55, 29
1, 199980, Note_on_c, 0, 55, 0
1, 199980, Note_on_c, 0, 63, 0
1, 199980, Note_on_c, 0, 96, 0
1, 199980, Note_on_c, 0, 92, 0
1, 199980, Note_on_c, 0, 58, 0
1, 200040, Tempo, 731707
1, 200040, Note_on_c, 0, 94, 50
1, 200040, Note_on_c, 0, 91, 42
1, 200100, Note_on_c, 0, 91, 0
1, 200100, Note_on_c, 0, 94, 0
1, 200160, Tempo, 653951
1, 200160, Note_on_c, 0, 92, 56
1, 200160, Note_on_c, 0, 84, 47
1, 200160, Note_on_c, 0, 34, 59
1, 200220, Note_on_c, 0, 34, 0
1, 200220, Note_on_c, 0, 84, 0
1, 200220, Note_on_c, 0, 92, 0
1, 200280, Note_on_c, 0, 91, 53
1, 200280, Note_on_c, 0, 82, 45
1, 200340, Note_on_c, 0, 82, 0
1, 200340, Note_on_c, 0, 91, 0
1, 200400, Note_on_c, 0, 89, 53
1, 200400, Note_on_c, 0, 80, 45
1, 200400, Note_on_c, 0, 53, 29
1, 200400, Note_on_c, 0, 56, 29
1, 200400, Note_on_c, 0, 62, 35
1, 200460, Note_on_c, 0, 62, 0
1, 200460, Note_on_c, 0, 53, 0
1, 200460, Note_on_c, 0, 89, 0
1, 200460, Note_on_c, 0, 80, 0
1, 200460, Note_on_c, 0, 56, 0
1, 200520, Note_on_c, 0, 87, 53
1, 200520, Note_on_c, 0, 79, 45
1, 200580, Note_on_c, 0, 79, 0
1, 200580, Note_on_c, 0, 87, 0
1, 200640, Note_on_c, 0, 86, 56
1, 200640, Note_on_c, 0, 77, 47
1, 200700, Note_on_c, 0, 77, 0
1, 200700, Note_on_c, 0, 86, 0
1, 200760, Tempo, 731707
1, 200760, Note_on_c, 0, 82, 50
1, 200760, Note_on_c, 0, 74, 42
1, 200820, Note_on_c, 0, 74, 0
1, 200820, Note_on_c, 0, 82, 0
1, 200880, Tempo, 653951
1, 200880, Note_on_c, 0, 81, 50
1, 200880, Note_on_c, 0, 73, 42
1, 200880, Note_on_c, 0, 67, 44
1, 200880, Note_on_c, 0, 64, 37
1, 200940, Note_on_c, 0, 64, 0
1, 200940, Note_on_c, 0, 81, 0
1, 200940, Note_on_c, 0, 73, 0
1, 200940, Note_on_c, 0, 67, 0
1, 201000, Note_on_c, 0, 82, 50
1, 201000, Note_on_c, 0, 74, 42
1, 201000, Note_on_c, 0, 68, 44
1, 201000, Note_on_c, 0, 65, 37
1, 201060, Note_on_c, 0, 65, 0
1, 201060, Note_on_c, 0, 82, 0
1, 201060, Note_on_c, 0, 74, 0
1, 201060, Note_on_c, 0, 68, 0
1, 201120, Note_on_c, 0, 83, 51
1, 201120, Note_on_c, 0, 75, 43
1, 201120, Note_on_c, 0, 69, 42
1, 201120, Note_on_c, 0, 66, 35
1, 201140, Tempo, 659341
1, 201180, Note_on_c, 0, 66, 0
1, 201180, Note_on_c, 0, 83, 0
1, 201180, Note_on_c, 0, 75, 0
1, 201180, Note_on_c, 0, 69, 0
1, 201240, Note_on_c, 0, 84, 43
1, 201240, Note_on_c, 0, 76, 36
1, 201240, Note_on_c, 0, 70, 43
1, 201240, Note_on_c, 0, 67, 36
1, 201300, Note_on_c, 0, 67, 0
1, 201300, Note_on_c, 0, 84, 0
1, 201300, Note_on_c, 0, 76, 0
1, 201300, Note_on_c, 0, 70, 0
1, 201360, Note_on_c, 0, 85, 45
1, 201360, Note_on_c, 0, 77, 38
1, 201360, Note_on_c, 0, 71, 44
1, 201360, Note_on_c, 0, 68, 37
1, 201400, Tempo, 653951
1, 201420, Note_on_c, 0, 68, 0
1, 201420, Note_on_c, 0, 85, 0
1, 201420, Note_on_c, 0, 77, 0
1, 201420, Note_on_c, 0, 71, 0
1, 201480, Note_on_c, 0, 86, 46
1, 201480, Note_on_c, 0, 78, 39
1, 201480, Note_on_c, 0, 72, 45
1, 201480, Note_on_c, 0, 69, 38
1, 201540, Note_on_c, 0, 69, 0
1, 201540, Note_on_c, 0, 86, 0
1, 201540, Note_on_c, 0, 78, 0
1, 201540, Note_on_c, 0, 72, 0
1, 201600, Note_on_c, 0, 87, 48
1, 201600, Note_on_c, 0, 79, 40
1, 201600, Note_on_c, 0, 73, 46
1, 201600, Note_on_c, 0, 70, 39
1, 201640, Tempo, 648649
1, 201660, Note_on_c, 0, 70, 0
1, 201660, Note_on_c, 0, 87, 0
1, 201660, Note_on_c, 0, 79, 0
1, 201660, Note_on_c, 0, 73, 0
1, 201720, Note_on_c, 0, 88, 50
1, 201720, Note_on_c, 0, 80, 42
1, 201720, Note_on_c, 0, 74, 47
1, 201720, Note_on_c, 0, 71, 39
1, 201780, Note_on_c, 0, 71, 0
1, 201780, Note_on_c, 0, 88, 0
1, 201780, Note_on_c, 0, 80, 0
1, 201780, Note_on_c, 0, 74, 0
1, 201840, Note_on_c, 0, 89, 51
1, 201840, Note_on_c, 0, 81, 43
1, 201840, Note_on_c, 0, 75, 48
1, 201840, Note_on_c, 0, 72, 40
1, 201880, Tempo, 643432
1, 201900, Note_on_c, 0, 72, 0
1, 201900, Note_on_c, 0, 89, 0
1, 201900, Note_on_c, 0, 81, 0
1, 201900, Note_on_c, 0, 75, 0
1, 201960, Note_on_c, 0, 90, 53
1, 201960, Note_on_c, 0, 82, 45
1, 201960, Note_on_c, 0, 76, 49
1, 201960, Note_on_c, 0, 73, 41
1, 202020, Note_on_c, 0, 73, 0
1, 202020, Note_on_c, 0, 90, 0
1, 202020, Note_on_c, 0, 82, 0
1, 202020, Note_on_c, 0, 76, 0
1, 202080, Tempo, 643432
1, 202080, Note_on_c, 0, 91, 55
1, 202080, Note_on_c, 0, 83, 46
1, 202080, Note_on_c, 0, 77, 50
1, 202080, Note_on_c, 0, 74, 42
1, 202140, Note_on_c, 0, 74, 0
1, 202140, Note_on_c, 0, 91, 0
1, 202140, Note_on_c, 0, 83, 0
1, 202140, Note_on_c, 0, 77, 0
1, 202160, Tempo, 638298
1, 202200, Note_on_c, 0, 92, 56
1, 202200, Note_on_c, 0, 84, 47
1, 202200, Note_on_c, 0, 78, 51
1, 202200, Note_on_c, 0, 75, 43
1, 202220, Tempo, 633245
1, 202260, Note_on_c, 0, 75, 0
1, 202260, Note_on_c, 0, 92, 0
1, 202260, Note_on_c, 0, 84, 0
1, 202260, Note_on_c, 0, 78, 0
1, 202280, Tempo, 628272
1, 202320, Note_on_c, 0, 93, 58
1, 202320, Note_on_c, 0, 85, 49
1, 202320, Note_on_c, 0, 79, 53
1, 202320, Note_on_c, 0, 76, 45
1, 202360, Tempo, 623377
1, 202380, Note_on_c, 0, 76, 0
1, 202380, Note_on_c, 0, 93, 0
1, 202380, Note_on_c, 0, 85, 0
1, 202380, Note_on_c, 0, 79, 0
1, 202420, Tempo, 618557
1, 202440, Note_on_c, 0, 94, 60
1, 202440, Note_on_c, 0, 86, 51
1, 202440, Note_on_c, 0, 80, 54
1, 202440, Note_on_c, 0, 77, 45
1, 202480, Tempo, 613811
1, 202500, Note_on_c, 0, 77, 0
1, 202500, Note_on_c, 0, 94, 0
1, 202500, Note_on_c, 0, 86, 0
1, 202500, Note_on_c, 0, 80, 0
1, 202530, Tempo, 623377
1, 202560, Note_on_c, 0, 93, 68
1, 202560, Note_on_c, 0, 85, 57
1, 202560, Note_on_c, 0, 79, 55
1, 202560, Note_on_c, 0, 76, 46
1, 202590, Tempo, 628272
1, 202620, Note_on_c, 0, 76, 0
1, 202620, Note_on_c, 0, 93, 0
1, 202620, Note_on_c, 0, 85, 0
1, 202620, Note_on_c, 0, 79, 0
1, 202630, Tempo, 633245
1, 202670, Tempo, 638298
1, 202680, Note_on_c, 0, 94, 69
1, 202680, Note_on_c, 0, 86, 58
1, 202680, Note_on_c, 0, 80, 56
1, 202680, Note_on_c, 0, 77, 47
1, 202710, Tempo, 643432
1, 202740, Note_on_c, 0, 77, 0
1, 202740, Note_on_c, 0, 94, 0
1, 202740, Note_on_c, 0, 86, 0
1, 202740, Note_on_c, 0, 80, 0
1, 202750, Tempo, 648649
1, 202790, Tempo, 653951
1, 202800, Note_on_c, 0, 93, 73
1, 202800, Note_on_c, 0, 81, 62
1, 202810, Tempo, 648649
1, 202860, Note_on_c, 0, 81, 0
1, 202860, Note_on_c, 0, 93, 0
1, 202920, Tempo, 769231
1, 202920, Note_on_c, 0, 94, 71
1, 202920, Note_on_c, 0, 82, 60
1, 202980, Note_on_c, 0, 82, 0
1, 202980, Note_on_c, 0, 94, 0
1, 203040, Tempo, 705882
1, 203040, Note_on_c, 0, 98, 85
1, 203040, Note_on_c, 0, 86, 72
1, 203040, Note_on_c, 0, 94, 72
1, 203040, Note_on_c, 0, 44, 71
1, 203040, Note_on_c, 0, 32, 60
1, 203083, Control_c, 0, 64, 127
1, 203160, Note_on_c, 0, 32, 0
1, 203160, Note_on_c, 0, 94, 0
1, 203160, Note_on_c, 0, 98, 0
1, 203160, Note_on_c, 0, 86, 0
1, 203160, Note_on_c, 0, 44, 0
1, 203280, Tempo, 687679
1, 203280, Note_on_c, 0, 98, 78
1, 203280, Note_on_c, 0, 86, 66
1, 203280, Note_on_c, 0, 94, 66
1, 203280, Note_on_c, 0, 65, 64
1, 203280, Note_on_c, 0, 60, 54
1, 203280, Note_on_c, 0, 53, 54
1, 203520, Tempo, 659341
1, 203520, Note_on_c, 0, 53, 0
1, 203520, Note_on_c, 0, 86, 0
1, 203520, Note_on_c, 0, 94, 0
1, 203520, Note_on_c, 0, 98, 0
1, 203520, Note_on_c, 0, 60, 0
1, 203520, Note_on_c, 0, 65, 0
1, 203520, Note_on_c, 0, 96, 85
1, 203520, Note_on_c, 0, 84, 72
1, 203520, Note_on_c, 0, 92, 72
1, 203520, Note_on_c, 0, 46, 71
1, 203520, Note_on_c, 0, 34, 60
1, 203526, Control_c, 0, 64, 0
1, 203619, Control_c, 0, 64, 127
1, 203640, Note_on_c, 0, 34, 0
1, 203640, Note_on_c, 0, 92, 0
1, 203640, Note_on_c, 0, 96, 0
1, 203640, Note_on_c, 0, 84, 0
1, 203640, Note_on_c, 0, 46, 0
1, 203760, Tempo, 681818
1, 203760, Note_on_c, 0, 96, 80
1, 203760, Note_on_c, 0, 84, 68
1, 203760, Note_on_c, 0, 92, 68
1, 203760, Note_on_c, 0, 65, 65
1, 203760, Note_on_c, 0, 62, 55
1, 203760, Note_on_c, 0, 53, 55
1, 204000, Tempo, 659341
1, 204000, Note_on_c, 0, 53, 0
1, 204000, Note_on_c, 0, 84, 0
1, 204000, Note_on_c, 0, 92, 0
1, 204000, Note_on_c, 0, 96, 0
1, 204000, Note_on_c, 0, 62, 0
1, 204000, Note_on_c, 0, 65, 0
1, 204000, Note_on_c, 0, 91, 84
1, 204000, Note_on_c, 0, 79, 71
1, 204000, Note_on_c, 0, 87, 71
1, 204000, Note_on_c, 0, 51, 71
1, 204000, Note_on_c, 0, 39, 60
1, 204010, Control_c, 0, 64, 0
1, 204043, Control_c, 0, 64, 127
1, 204120, Note_on_c, 0, 39, 0
1, 204120, Note_on_c, 0, 87, 0
1, 204120, Note_on_c, 0, 91, 0
1, 204120, Note_on_c, 0, 79, 0
1, 204120, Note_on_c, 0, 51, 0
1, 204240, Tempo, 693642
1, 204240, Note_on_c, 0, 94, 76
1, 204240, Note_on_c, 0, 82, 64
1, 204240, Note_on_c, 0, 91, 64
1, 204240, Note_on_c, 0, 67, 65
1, 204240, Note_on_c, 0, 63, 55
1, 204240, Note_on_c, 0, 55, 55
1, 204360, Note_on_c, 0, 55, 0
1, 204360, Note_on_c, 0, 82, 0
1, 204360, Note_on_c, 0, 91, 0
1, 204360, Note_on_c, 0, 94, 0
1, 204360, Note_on_c, 0, 63, 0
1, 204360, Note_on_c, 0, 67, 0
1, 204480, Tempo, 653951
1, 204480, Note_on_c, 0, 94, 81
1, 204480, Note_on_c, 0, 82, 68
1, 204480, Note_on_c, 0, 91, 68
1, 204480, Note_on_c, 0, 51, 71
1, 204480, Note_on_c, 0, 39, 60
1, 204540, Note_on_c, 0, 91, 0
1, 204540, Note_on_c, 0, 94, 0
1, 204540, Note_on_c, 0, 82, 0
1, 204600, Note_on_c, 0, 51, 0
1, 204600, Note_on_c, 0, 39, 0
1, 204660, Note_on_c, 0, 93, 72
1, 204660, Note_on_c, 0, 81, 61
1, 204660, Note_on_c, 0, 90, 61
1, 204720, Tempo, 693642
1, 204720, Note_on_c, 0, 90, 0
1, 204720, Note_on_c, 0, 81, 0
1, 204720, Note_on_c, 0, 93, 0
1, 204720, Note_on_c, 0, 94, 80
1, 204720, Note_on_c, 0, 82, 68
1, 204720, Note_on_c, 0, 91, 68
1, 204720, Note_on_c, 0, 67, 65
1, 204720, Note_on_c, 0, 63, 55
1, 204720, Note_on_c, 0, 55, 55
1, 204840, Note_on_c, 0, 55, 0
1, 204840, Note_on_c, 0, 82, 0
1, 204840, Note_on_c, 0, 91, 0
1, 204840, Note_on_c, 0, 94, 0
1, 204840, Note_on_c, 0, 63, 0
1, 204840, Note_on_c, 0, 67, 0
1, 204960, Tempo, 653951
1, 204960, Note_on_c, 0, 89, 75
1, 204960, Note_on_c, 0, 77, 63
1, 204960, Note_on_c, 0, 80, 63
1, 204960, Note_on_c, 0, 53, 71
1, 204960, Note_on_c, 0, 41, 60
1, 204986, Control_c, 0, 64, 0
1, 205020, Note_on_c, 0, 80, 0
1, 205020, Note_on_c, 0, 89, 0
1, 205020, Note_on_c, 0, 77, 0
1, 205041, Control_c, 0, 64, 127
1, 205080, Note_on_c, 0, 53, 0
1, 205080, Note_on_c, 0, 41, 0
1, 205080, Note_on_c, 0, 91, 74
1, 205080, Note_on_c, 0, 79, 62
1, 205080, Note_on_c, 0, 82, 62
1, 205140, Note_on_c, 0, 82, 0
1, 205140, Note_on_c, 0, 79, 0
1, 205140, Note_on_c, 0, 91, 0
1, 205200, Tempo, 631579
1, 205200, Note_on_c, 0, 92, 74
1, 205200, Note_on_c, 0, 80, 62
1, 205200, Note_on_c, 0, 84, 62
1, 205200, Note_on_c, 0, 65, 65
1, 205200, Note_on_c, 0, 60, 55
1, 205200, Note_on_c, 0, 56, 55
1, 205260, Note_on_c, 0, 84, 0
1, 205260, Note_on_c, 0, 92, 0
1, 205260, Note_on_c, 0, 80, 0
1, 205320, Note_on_c, 0, 65, 0
1, 205320, Note_on_c, 0, 60, 0
1, 205320, Note_on_c, 0, 56, 0
1, 205320, Note_on_c, 0, 87, 74
1, 205320, Note_on_c, 0, 96, 74
1, 205320, Note_on_c, 0, 84, 62
1, 205380, Note_on_c, 0, 84, 0
1, 205380, Note_on_c, 0, 96, 0
1, 205380, Note_on_c, 0, 87, 0
1, 205440, Tempo, 652174
1, 205440, Note_on_c, 0, 86, 76
1, 205440, Note_on_c, 0, 94, 76
1, 205440, Note_on_c, 0, 82, 64
1, 205440, Note_on_c, 0, 46, 71
1, 205440, Note_on_c, 0, 34, 60
1, 205447, Control_c, 0, 64, 0
1, 205490, Control_c, 0, 64, 127
1, 205500, Note_on_c, 0, 82, 0
1, 205500, Note_on_c, 0, 86, 0
1, 205500, Note_on_c, 0, 94, 0
1, 205560, Note_on_c, 0, 46, 0
1, 205560, Note_on_c, 0, 34, 0
1, 205560, Note_on_c, 0, 92, 73
1, 205560, Note_on_c, 0, 80, 62
1, 205560, Note_on_c, 0, 84, 62
1, 205620, Note_on_c, 0, 84, 0
1, 205620, Note_on_c, 0, 80, 0
1, 205620, Note_on_c, 0, 92, 0
1, 205680, Note_on_c, 0, 91, 74
1, 205680, Note_on_c, 0, 79, 62
1, 205680, Note_on_c, 0, 82, 62
1, 205680, Note_on_c, 0, 65, 65
1, 205680, Note_on_c, 0, 62, 55
1, 205680, Note_on_c, 0, 56, 55
1, 205740, Note_on_c, 0, 82, 0
1, 205740, Note_on_c, 0, 91, 0
1, 205740, Note_on_c, 0, 79, 0
1, 205800, Note_on_c, 0, 65, 0
1, 205800, Note_on_c, 0, 62, 0
1, 205800, Note_on_c, 0, 56, 0
1, 205800, Note_on_c, 0, 89, 74
1, 205800, Note_on_c, 0, 77, 62
1, 205800, Note_on_c, 0, 80, 62
1, 205860, Note_on_c, 0, 80, 0
1, 205860, Note_on_c, 0, 77, 0
1, 205860, Note_on_c, 0, 89, 0
1, 205920, Tempo, 659341
1, 205920, Note_on_c, 0, 94, 84
1, 205920, Note_on_c, 0, 91, 84
1, 205920, Note_on_c, 0, 82, 71
1, 205920, Note_on_c, 0, 51, 71
1, 205920, Note_on_c, 0, 39, 60
1, 205930, Control_c, 0, 64, 0
1, 206009, Control_c, 0, 64, 127
1, 206040, Note_on_c, 0, 39, 0
1, 206040, Note_on_c, 0, 82, 0
1, 206040, Note_on_c, 0, 94, 0
1, 206040, Note_on_c, 0, 91, 0
1, 206040, Note_on_c, 0, 51, 0
1, 206160, Tempo, 693642
1, 206160, Note_on_c, 0, 91, 76
1, 206160, Note_on_c, 0, 94, 76
1, 206160, Note_on_c, 0, 82, 64
1, 206160, Note_on_c, 0, 67, 65
1, 206160, Note_on_c, 0, 63, 55
1, 206160, Note_on_c, 0, 55, 55
1, 206280, Note_on_c, 0, 55, 0
1, 206280, Note_on_c, 0, 94, 0
1, 206280, Note_on_c, 0, 82, 0
1, 206280, Note_on_c, 0, 91, 0
1, 206280, Note_on_c, 0, 63, 0
1, 206280, Note_on_c, 0, 67, 0
1, 206340, Note_on_c, 0, 81, 61
1, 206340, Note_on_c, 0, 90, 72
1, 206340, Note_on_c, 0, 93, 72
1, 206400, Tempo, 653951
1, 206400, Note_on_c, 0, 93, 0
1, 206400, Note_on_c, 0, 90, 0
1, 206400, Note_on_c, 0, 81, 0
1, 206400, Note_on_c, 0, 94, 81
1, 206400, Note_on_c, 0, 91, 81
1, 206400, Note_on_c, 0, 82, 68
1, 206400, Note_on_c, 0, 51, 71
1, 206400, Note_on_c, 0, 39, 60
1, 206520, Note_on_c, 0, 39, 0
1, 206520, Note_on_c, 0, 51, 0
1, 206640, Tempo, 712166
1, 206640, Note_on_c, 0, 67, 65
1, 206640, Note_on_c, 0, 63, 55
1, 206640, Note_on_c, 0, 55, 55
1, 206760, Note_on_c, 0, 55, 0
1, 206760, Note_on_c, 0, 67, 0
1, 206760, Note_on_c, 0, 63, 0
1, 206880, Tempo, 766773
1, 206880, Note_on_c, 0, 82, 0
1, 206880, Note_on_c, 0, 94, 0
1, 206880, Note_on_c, 0, 91, 0
1, 206880, Note_on_c, 0, 98, 85
1, 206880, Note_on_c, 0, 86, 72
1, 206880, Note_on_c, 0, 94, 72
1, 206880, Note_on_c, 0, 44, 71
1, 206880, Note_on_c, 0, 32, 60
1, 206889, Control_c, 0, 64, 0
1, 206986, Control_c, 0, 64, 127
1, 207000, Note_on_c, 0, 32, 0
1, 207000, Note_on_c, 0, 94, 0
1, 207000, Note_on_c, 0, 98, 0
1, 207000, Note_on_c, 0, 86, 0
1, 207000, Note_on_c, 0, 44, 0
1, 207120, Tempo, 745342
1, 207120, Note_on_c, 0, 98, 78
1, 207120, Note_on_c, 0, 86, 66
1, 207120, Note_on_c, 0, 94, 66
1, 207120, Note_on_c, 0, 65, 64
1, 207120, Note_on_c, 0, 60, 54
1, 207120, Note_on_c, 0, 53, 54
1, 207360, Tempo, 681818
1, 207360, Note_on_c, 0, 53, 0
1, 207360, Note_on_c, 0, 86, 0
1, 207360, Note_on_c, 0, 94, 0
1, 207360, Note_on_c, 0, 98, 0
1, 207360, Note_on_c, 0, 60, 0
1, 207360, Note_on_c, 0, 65, 0
1, 207360, Note_on_c, 0, 96, 85
1, 207360, Note_on_c, 0, 84, 72
1, 207360, Note_on_c, 0, 92, 72
1, 207360, Note_on_c, 0, 46, 71
1, 207360, Note_on_c, 0, 34, 60
1, 207378, Control_c, 0, 64, 0
1, 207470, Control_c, 0, 64, 127
1, 207480, Note_on_c, 0, 34, 0
1, 207480, Note_on_c, 0, 92, 0
1, 207480, Note_on_c, 0, 96, 0
1, 207480, Note_on_c, 0, 84, 0
1, 207480, Note_on_c, 0, 46, 0
1, 207600, Tempo, 718563
1, 207600, Note_on_c, 0, 96, 80
1, 207600, Note_on_c, 0, 84, 68
1, 207600, Note_on_c, 0, 92, 68
1, 207600, Note_on_c, 0, 65, 65
1, 207600, Note_on_c, 0, 62, 55
1, 207600, Note_on_c, 0, 53, 55
1, 207840, Tempo, 659341
1, 207840, Note_on_c, 0, 53, 0
1, 207840, Note_on_c, 0, 84, 0
1, 207840, Note_on_c, 0, 92, 0
1, 207840, Note_on_c, 0, 96, 0
1, 207840, Note_on_c, 0, 62, 0
1, 207840, Note_on_c, 0, 65, 0
1, 207840, Note_on_c, 0, 91, 84
1, 207840, Note_on_c, 0, 79, 71
1, 207840, Note_on_c, 0, 87, 71
1, 207840, Note_on_c, 0, 51, 71
1, 207840, Note_on_c, 0, 39, 60
1, 207850, Control_c, 0, 64, 0
1, 207883, Control_c, 0, 64, 127
1, 207960, Note_on_c, 0, 39, 0
1, 207960, Note_on_c, 0, 87, 0
1, 207960, Note_on_c, 0, 91, 0
1, 207960, Note_on_c, 0, 79, 0
1, 207960, Note_on_c, 0, 51, 0
1, 208080, Tempo, 693642
1, 208080, Note_on_c, 0, 94, 76
1, 208080, Note_on_c, 0, 82, 64
1, 208080, Note_on_c, 0, 91, 64
1, 208080, Note_on_c, 0, 67, 65
1, 208080, Note_on_c, 0, 63, 55
1, 208080, Note_on_c, 0, 55, 55
1, 208200, Note_on_c, 0, 55, 0
1, 208200, Note_on_c, 0, 82, 0
1, 208200, Note_on_c, 0, 91, 0
1, 208200, Note_on_c, 0, 94, 0
1, 208200, Note_on_c, 0, 63, 0
1, 208200, Note_on_c, 0, 67, 0
1, 208320, Tempo, 653951
1, 208320, Note_on_c, 0, 94, 81
1, 208320, Note_on_c, 0, 82, 68
1, 208320, Note_on_c, 0, 91, 68
1, 208320, Note_on_c, 0, 51, 71
1, 208320, Note_on_c, 0, 39, 60
1, 208380, Note_on_c, 0, 91, 0
1, 208380, Note_on_c, 0, 94, 0
1, 208380, Note_on_c, 0, 82, 0
1, 208440, Note_on_c, 0, 51, 0
1, 208440, Note_on_c, 0, 39, 0
1, 208500, Note_on_c, 0, 93, 72
1, 208500, Note_on_c, 0, 81, 61
1, 208500, Note_on_c, 0, 90, 61
1, 208560, Tempo, 693642
1, 208560, Note_on_c, 0, 90, 0
1, 208560, Note_on_c, 0, 81, 0
1, 208560, Note_on_c, 0, 93, 0
1, 208560, Note_on_c, 0, 94, 80
1, 208560, Note_on_c, 0, 82, 68
1, 208560, Note_on_c, 0, 91, 68
1, 208560, Note_on_c, 0, 67, 65
1, 208560, Note_on_c, 0, 63, 55
1, 208560, Note_on_c, 0, 55, 55
1, 208680, Note_on_c, 0, 55, 0
1, 208680, Note_on_c, 0, 82, 0
1, 208680, Note_on_c, 0, 91, 0
1, 208680, Note_on_c, 0, 94, 0
1, 208680, Note_on_c, 0, 63, 0
1, 208680, Note_on_c, 0, 67, 0
1, 208800, Tempo, 653951
1, 208800, Note_on_c, 0, 89, 66
1, 208800, Note_on_c, 0, 77, 56
1, 208800, Note_on_c, 0, 80, 56
1, 208800, Note_on_c, 0, 53, 71
1, 208800, Note_on_c, 0, 41, 60
1, 208813, Control_c, 0, 64, 0
1, 208860, Note_on_c, 0, 80, 0
1, 208860, Note_on_c, 0, 89, 0
1, 208860, Note_on_c, 0, 77, 0
1, 208881, Control_c, 0, 64, 127
1, 208920, Note_on_c, 0, 53, 0
1, 208920, Note_on_c, 0, 41, 0
1, 208920, Note_on_c, 0, 91, 68
1, 208920, Note_on_c, 0, 79, 57
1, 208920, Note_on_c, 0, 82, 57
1, 208980, Note_on_c, 0, 82, 0
1, 208980, Note_on_c, 0, 79, 0
1, 208980, Note_on_c, 0, 91, 0
1, 209040, Tempo, 631579
1, 209040, Note_on_c, 0, 92, 70
1, 209040, Note_on_c, 0, 80, 59
1, 209040, Note_on_c, 0, 83, 59
1, 209040, Note_on_c, 0, 65, 65
1, 209040, Note_on_c, 0, 60, 55
1, 209040, Note_on_c, 0, 56, 55
1, 209100, Note_on_c, 0, 83, 0
1, 209100, Note_on_c, 0, 92, 0
1, 209100, Note_on_c, 0, 80, 0
1, 209160, Note_on_c, 0, 65, 0
1, 209160, Note_on_c, 0, 60, 0
1, 209160, Note_on_c, 0, 56, 0
1, 209160, Note_on_c, 0, 84, 61
1, 209160, Note_on_c, 0, 93, 72
1, 209160, Note_on_c, 0, 81, 61
1, 209220, Note_on_c, 0, 81, 0
1, 209220, Note_on_c, 0, 93, 0
1, 209220, Note_on_c, 0, 84, 0
1, 209280, Tempo, 652174
1, 209280, Note_on_c, 0, 94, 74
1, 209280, Note_on_c, 0, 85, 62
1, 209280, Note_on_c, 0, 82, 62
1, 209280, Note_on_c, 0, 46, 71
1, 209280, Note_on_c, 0, 34, 60
1, 209287, Control_c, 0, 64, 0
1, 209330, Control_c, 0, 64, 127
1, 209340, Note_on_c, 0, 82, 0
1, 209340, Note_on_c, 0, 94, 0
1, 209340, Note_on_c, 0, 85, 0
1, 209400, Note_on_c, 0, 46, 0
1, 209400, Note_on_c, 0, 34, 0
1, 209400, Note_on_c, 0, 95, 76
1, 209400, Note_on_c, 0, 83, 64
1, 209400, Note_on_c, 0, 86, 64
1, 209460, Note_on_c, 0, 86, 0
1, 209460, Note_on_c, 0, 83, 0
1, 209460, Note_on_c, 0, 95, 0
1, 209520, Tempo, 666667
1, 209520, Note_on_c, 0, 96, 78
1, 209520, Note_on_c, 0, 84, 66
1, 209520, Note_on_c, 0, 87, 66
1, 209520, Note_on_c, 0, 65, 65
1, 209520, Note_on_c, 0, 62, 55
1, 209520, Note_on_c, 0, 56, 55
1, 209580, Note_on_c, 0, 87, 0
1, 209580, Note_on_c, 0, 96, 0
1, 209580, Note_on_c, 0, 84, 0
1, 209640, Note_on_c, 0, 65, 0
1, 209640, Note_on_c, 0, 62, 0
1, 209640, Note_on_c, 0, 56, 0
1, 209640, Note_on_c, 0, 98, 79
1, 209640, Note_on_c, 0, 86, 67
1, 209640, Note_on_c, 0, 89, 67
1, 209700, Note_on_c, 0, 89, 0
1, 209700, Note_on_c, 0, 86, 0
1, 209700, Note_on_c, 0, 98, 0
1, 209760, Tempo, 652174
1, 209760, Note_on_c, 0, 99, 81
1, 209760, Note_on_c, 0, 87, 68
1, 209760, Note_on_c, 0, 91, 68
1, 209760, Note_on_c, 0, 39, 60
1, 209760, Note_on_c, 0, 51, 71
1, 209767, Control_c, 0, 64, 0
1, 209820, Note_on_c, 0, 91, 0
1, 209820, Note_on_c, 0, 99, 0
1, 209820, Note_on_c, 0, 87, 0
1, 209865, Control_c, 0, 64, 127
1, 209880, Note_on_c, 0, 39, 0
1, 209880, Note_on_c, 0, 51, 0
1, 210240, Note_on_c, 0, 75, 68
1, 210240, Note_on_c, 0, 79, 68
1, 210240, Note_on_c, 0, 82, 68
1, 210240, Note_on_c, 0, 87, 81
1, 210240, Note_on_c, 0, 63, 60
1, 210240, Note_on_c, 0, 67, 71
1, 210240, Note_on_c, 0, 55, 60
1, 210244, Note_on_c, 0, 58, 60
1, 210300, Note_on_c, 0, 87, 0
1, 210300, Note_on_c, 0, 82, 0
1, 210300, Note_on_c, 0, 75, 0
1, 210300, Note_on_c, 0, 79, 0
1, 210360, Note_on_c, 0, 63, 0
1, 210360, Note_on_c, 0, 55, 0
1, 210360, Note_on_c, 0, 67, 0
1, 210364, Note_on_c, 0, 58, 0
1, 210367, Control_c, 0, 64, 0
1, 211440, Tempo, 731707
1, 211440, Note_on_c, 0, 58, 57
1, 211488, Note_on_c, 0, 58, 0
1, 211488, Note_on_c, 0, 60, 54
1, 211536, Note_on_c, 0, 60, 0
1, 211536, Note_on_c, 0, 58, 55
1, 211584, Note_on_c, 0, 58, 0
1, 211584, Note_on_c, 0, 57, 55
1, 211632, Note_on_c, 0, 57, 0
1, 211632, Note_on_c, 0, 58, 55
1, 211680, Tempo, 845070
1, 211680, Note_on_c, 0, 58, 0
1, 211680, Note_on_c, 0, 62, 60
1, 211725, Note_on_c, 0, 62, 0
1, 211800, Tempo, 752351
1, 211800, Note_on_c, 0, 61, 53
1, 211860, Note_on_c, 0, 61, 0
1, 211920, Tempo, 712166
1, 211920, Note_on_c, 0, 60, 53
1, 211920, Note_on_c, 0, 46, 34
1, 211920, Note_on_c, 0, 53, 41
1, 211980, Note_on_c, 0, 53, 0
1, 211980, Note_on_c, 0, 46, 0
1, 211980, Note_on_c, 0, 60, 0
1, 212040, Note_on_c, 0, 59, 53
1, 212100, Note_on_c, 0, 59, 0
1, 212160, Tempo, 745342
1, 212160, Note_on_c, 0, 58, 57
1, 212160, Note_on_c, 0, 39, 45
1, 212220, Note_on_c, 0, 39, 0
1, 212220, Note_on_c, 0, 58, 0
1, 212280, Tempo, 699708
1, 212280, Note_on_c, 0, 57, 54
1, 212340, Note_on_c, 0, 57, 0
1, 212400, Note_on_c, 0, 56, 54
1, 212400, Note_on_c, 0, 46, 37
1, 212400, Note_on_c, 0, 53, 44
1, 212460, Note_on_c, 0, 53, 0
1, 212460, Note_on_c, 0, 46, 0
1, 212460, Note_on_c, 0, 56, 0
1, 212520, Note_on_c, 0, 60, 54
1, 212580, Note_on_c, 0, 60, 0
1, 212640, Tempo, 712166
1, 212640, Note_on_c, 0, 55, 57
1, 212700, Note_on_c, 0, 55, 0
1, 212760, Note_on_c, 0, 56, 54
1, 212820, Note_on_c, 0, 56, 0
1, 212880, Note_on_c, 0, 57, 54
1, 212880, Note_on_c, 0, 46, 34
1, 212880, Note_on_c, 0, 51, 40
1, 212940, Note_on_c, 0, 51, 0
1, 212940, Note_on_c, 0, 46, 0
1, 212940, Note_on_c, 0, 57, 0
1, 213000, Tempo, 766773
1, 213000, Note_on_c, 0, 58, 54
1, 213030, Note_on_c, 0, 58, 0
1, 213060, Tempo, 995851
1, 213060, Note_on_c, 0, 57, 49
1, 213080, Note_on_c, 0, 57, 0
1, 213080, Note_on_c, 0, 58, 49
1, 213100, Note_on_c, 0, 58, 0
1, 213100, Note_on_c, 0, 60, 49
1, 213120, Tempo, 643432
1, 213120, Note_on_c, 0, 60, 0
1, 213120, Note_on_c, 0, 58, 57
1, 213120, Note_on_c, 0, 39, 45
1, 213180, Note_on_c, 0, 39, 0
1, 213180, Note_on_c, 0, 58, 0
1, 213240, Note_on_c, 0, 57, 53
1, 213300, Note_on_c, 0, 57, 0
1, 213360, Tempo, 725076
1, 213360, Note_on_c, 0, 58, 57
1, 213360, Note_on_c, 0, 46, 36
1, 213360, Note_on_c, 0, 51, 43
1, 213420, Note_on_c, 0, 51, 0
1, 213420, Note_on_c, 0, 46, 0
1, 213420, Note_on_c, 0, 58, 0
1, 213480, Note_on_c, 0, 55, 54
1, 213540, Tempo, 813559
1, 213540, Note_on_c, 0, 55, 0
1, 213600, Tempo, 705882
1, 213600, Note_on_c, 0, 53, 57
1, 213660, Note_on_c, 0, 53, 0
1, 213720, Note_on_c, 0, 55, 51
1, 213780, Note_on_c, 0, 55, 0
1, 213840, Note_on_c, 0, 56, 51
1, 213840, Note_on_c, 0, 46, 35
1, 213840, Note_on_c, 0, 50, 42
1, 213900, Note_on_c, 0, 50, 0
1, 213900, Note_on_c, 0, 46, 0
1, 213900, Note_on_c, 0, 56, 0
1, 213960, Note_on_c, 0, 60, 51
1, 214020, Note_on_c, 0, 60, 0
1, 214080, Note_on_c, 0, 58, 54
1, 214080, Note_on_c, 0, 39, 45
1, 214140, Note_on_c, 0, 39, 0
1, 214140, Note_on_c, 0, 58, 0
1, 214200, Note_on_c, 0, 56, 51
1, 214260, Note_on_c, 0, 56, 0
1, 214320, Note_on_c, 0, 55, 51
1, 214320, Note_on_c, 0, 46, 36
1, 214320, Note_on_c, 0, 50, 43
1, 214380, Note_on_c, 0, 50, 0
1, 214380, Note_on_c, 0, 46, 0
1, 214380, Note_on_c, 0, 55, 0
1, 214440, Note_on_c, 0, 53, 51
1, 214500, Tempo, 745342
1, 214500, Note_on_c, 0, 53, 0
1, 214560, Tempo, 705882
1, 214560, Note_on_c, 0, 57, 54
1, 214620, Note_on_c, 0, 57, 0
1, 214680, Tempo, 705882
1, 214680, Note_on_c, 0, 58, 45
1, 214740, Note_on_c, 0, 58, 0
1, 214800, Note_on_c, 0, 58, 47
1, 214800, Note_on_c, 0, 46, 34
1, 214800, Note_on_c, 0, 55, 41
1, 214816, Tempo, 705882
1, 214860, Note_on_c, 0, 55, 0
1, 214860, Note_on_c, 0, 46, 0
1, 214860, Note_on_c, 0, 58, 0
1, 214896, Tempo, 699708
1, 214920, Note_on_c, 0, 59, 48
1, 214976, Tempo, 693642
1, 214980, Note_on_c, 0, 59, 0
1, 215040, Note_on_c, 0, 59, 50
1, 215040, Note_on_c, 0, 39, 45
1, 215056, Tempo, 687679
1, 215100, Note_on_c, 0, 39, 0
1, 215100, Note_on_c, 0, 59, 0
1, 215136, Tempo, 681818
1, 215160, Note_on_c, 0, 60, 52
1, 215216, Tempo, 676056
1, 215220, Note_on_c, 0, 60, 0
1, 215280, Note_on_c, 0, 60, 54
1, 215280, Note_on_c, 0, 46, 41
1, 215280, Note_on_c, 0, 55, 49
1, 215296, Tempo, 670391
1, 215340, Note_on_c, 0, 55, 0
1, 215340, Note_on_c, 0, 46, 0
1, 215340, Note_on_c, 0, 60, 0
1, 215376, Tempo, 664820
1, 215400, Note_on_c, 0, 61, 55
1, 215460, Tempo, 875912
1, 215460, Note_on_c, 0, 61, 0
1, 215520, Tempo, 725076
1, 215520, Note_on_c, 0, 62, 58
1, 215580, Note_on_c, 0, 62, 0
1, 215640, Tempo, 731707
1, 215640, Note_on_c, 0, 61, 53
1, 215700, Note_on_c, 0, 61, 0
1, 215760, Tempo, 712166
1, 215760, Note_on_c, 0, 60, 53
1, 215760, Note_on_c, 0, 46, 34
1, 215760, Note_on_c, 0, 53, 41
1, 215820, Note_on_c, 0, 53, 0
1, 215820, Note_on_c, 0, 46, 0
1, 215820, Note_on_c, 0, 60, 0
1, 215880, Note_on_c, 0, 59, 53
1, 215940, Note_on_c, 0, 59, 0
1, 216000, Tempo, 699708
1, 216000, Note_on_c, 0, 58, 57
1, 216000, Note_on_c, 0, 39, 45
1, 216060, Note_on_c, 0, 39, 0
1, 216060, Note_on_c, 0, 58, 0
1, 216120, Note_on_c, 0, 57, 54
1, 216180, Note_on_c, 0, 57, 0
1, 216240, Note_on_c, 0, 56, 54
1, 216240, Note_on_c, 0, 46, 37
1, 216240, Note_on_c, 0, 53, 44
1, 216300, Note_on_c, 0, 53, 0
1, 216300, Note_on_c, 0, 46, 0
1, 216300, Note_on_c, 0, 56, 0
1, 216360, Note_on_c, 0, 60, 54
1, 216420, Note_on_c, 0, 60, 0
1, 216480, Tempo, 738462
1, 216480, Note_on_c, 0, 55, 57
1, 216540, Note_on_c, 0, 55, 0
1, 216600, Tempo, 705882
1, 216600, Note_on_c, 0, 56, 54
1, 216660, Note_on_c, 0, 56, 0
1, 216720, Note_on_c, 0, 57, 54
1, 216720, Note_on_c, 0, 46, 34
1, 216720, Note_on_c, 0, 51, 40
1, 216780, Note_on_c, 0, 51, 0
1, 216780, Note_on_c, 0, 46, 0
1, 216780, Note_on_c, 0, 57, 0
1, 216840, Tempo, 766773
1, 216840, Note_on_c, 0, 58, 54
1, 216870, Note_on_c, 0, 58, 0
1, 216900, Tempo, 995851
1, 216900, Note_on_c, 0, 57, 49
1, 216920, Note_on_c, 0, 57, 0
1, 216920, Note_on_c, 0, 58, 49
1, 216940, Note_on_c, 0, 58, 0
1, 216940, Note_on_c, 0, 60, 49
1, 216960, Tempo, 659341
1, 216960, Note_on_c, 0, 60, 0
1, 216960, Note_on_c, 0, 58, 57
1, 216960, Note_on_c, 0, 39, 45
1, 217020, Note_on_c, 0, 39, 0
1, 217020, Note_on_c, 0, 58, 0
1, 217080, Note_on_c, 0, 57, 53
1, 217140, Note_on_c, 0, 57, 0
1, 217200, Tempo, 705882
1, 217200, Note_on_c, 0, 58, 57
1, 217200, Note_on_c, 0, 46, 36
1, 217200, Note_on_c, 0, 51, 43
1, 217260, Note_on_c, 0, 51, 0
1, 217260, Note_on_c, 0, 46, 0
1, 217260, Note_on_c, 0, 58, 0
1, 217320, Note_on_c, 0, 55, 54
1, 217380, Tempo, 813559
1, 217380, Note_on_c, 0, 55, 0
1, 217440, Tempo, 705882
1, 217440, Note_on_c, 0, 53, 57
1, 217500, Note_on_c, 0, 53, 0
1, 217560, Note_on_c, 0, 55, 51
1, 217620, Note_on_c, 0, 55, 0
1, 217680, Note_on_c, 0, 56, 51
1, 217680, Note_on_c, 0, 46, 35
1, 217680, Note_on_c, 0, 50, 42
1, 217740, Note_on_c, 0, 50, 0
1, 217740, Note_on_c, 0, 46, 0
1, 217740, Note_on_c, 0, 56, 0
1, 217800, Note_on_c, 0, 60, 51
1, 217860, Note_on_c, 0, 60, 0
1, 217920, Note_on_c, 0, 58, 54
1, 217920, Note_on_c, 0, 39, 45
1, 217980, Note_on_c, 0, 39, 0
1, 217980, Note_on_c, 0, 58, 0
1, 218040, Note_on_c, 0, 56, 51
1, 218100, Note_on_c, 0, 56, 0
1, 218160, Note_on_c, 0, 55, 51
1, 218160, Note_on_c, 0, 46, 36
1, 218160, Note_on_c, 0, 50, 43
1, 218220, Note_on_c, 0, 50, 0
1, 218220, Note_on_c, 0, 46, 0
1, 218220, Note_on_c, 0, 55, 0
1, 218280, Note_on_c, 0, 53, 51
1, 218340, Tempo, 745342
1, 218340, Note_on_c, 0, 53, 0
1, 218400, Tempo, 705882
1, 218400, Note_on_c, 0, 55, 54
1, 218460, Note_on_c, 0, 55, 0
1, 218520, Note_on_c, 0, 51, 51
1, 218580, Note_on_c, 0, 51, 0
1, 218640, Note_on_c, 0, 55, 53
1, 218640, Note_on_c, 0, 46, 34
1, 218640, Note_on_c, 0, 51, 41
1, 218656, Tempo, 705882
1, 218700, Note_on_c, 0, 51, 0
1, 218700, Note_on_c, 0, 46, 0
1, 218700, Note_on_c, 0, 55, 0
1, 218736, Tempo, 699708
1, 218760, Note_on_c, 0, 58, 55
1, 218816, Tempo, 693642
1, 218820, Note_on_c, 0, 58, 0
1, 218880, Note_on_c, 0, 63, 57
1, 218880, Note_on_c, 0, 39, 45
1, 218896, Tempo, 687679
1, 218940, Note_on_c, 0, 39, 0
1, 218940, Note_on_c, 0, 63, 0
1, 218976, Tempo, 681818
1, 219000, Note_on_c, 0, 66, 52
1, 219056, Tempo, 676056
1, 219060, Note_on_c, 0, 66, 0
1, 219120, Note_on_c, 0, 67, 53
1, 219136, Tempo, 670391
1, 219180, Note_on_c, 0, 67, 0
1, 219216, Tempo, 664820
1, 219240, Note_on_c, 0, 70, 55
1, 219300, Tempo, 875912
1, 219300, Note_on_c, 0, 70, 0
1, 219360, Tempo, 689655
1, 219360, Note_on_c, 0, 74, 63
1, 219410, Note_on_c, 0, 74, 0
1, 219480, Note_on_c, 0, 65, 55
1, 219540, Note_on_c, 0, 65, 0
1, 219600, Tempo, 652174
1, 219600, Note_on_c, 0, 74, 76
1, 219600, Note_on_c, 0, 46, 54
1, 219600, Note_on_c, 0, 56, 63
1, 219600, Control_c, 0, 64, 127
1, 219720, Note_on_c, 0, 82, 55
1, 219840, Tempo, 659341
1, 219840, Note_on_c, 0, 82, 0
1, 219840, Note_on_c, 0, 74, 0
1, 219840, Note_on_c, 0, 46, 0
1, 219840, Note_on_c, 0, 56, 0
1, 219840, Note_on_c, 0, 72, 59
1, 219840, Note_on_c, 0, 39, 47
1, 219847, Control_c, 0, 64, 0
1, 219900, Note_on_c, 0, 72, 0
1, 219960, Note_on_c, 0, 65, 55
1, 220020, Note_on_c, 0, 65, 0
1, 220080, Tempo, 618557
1, 220080, Note_on_c, 0, 39, 0
1, 220080, Note_on_c, 0, 72, 76
1, 220080, Note_on_c, 0, 46, 46
1, 220080, Note_on_c, 0, 56, 56
1, 220094, Control_c, 0, 64, 127
1, 220200, Note_on_c, 0, 80, 55
1, 220320, Tempo, 638298
1, 220320, Note_on_c, 0, 80, 0
1, 220320, Note_on_c, 0, 72, 0
1, 220320, Note_on_c, 0, 46, 0
1, 220320, Note_on_c, 0, 56, 0
1, 220320, Note_on_c, 0, 67, 63
1, 220320, Control_c, 0, 64, 0
1, 220380, Note_on_c, 0, 67, 0
1, 220440, Note_on_c, 0, 58, 55
1, 220500, Note_on_c, 0, 58, 0
1, 220560, Tempo, 618557
1, 220560, Note_on_c, 0, 67, 75
1, 220560, Note_on_c, 0, 46, 54
1, 220560, Note_on_c, 0, 55, 63
1, 220578, Control_c, 0, 64, 127
1, 220680, Note_on_c, 0, 75, 55
1, 220800, Tempo, 606061
1, 220800, Note_on_c, 0, 75, 0
1, 220800, Note_on_c, 0, 67, 0
1, 220800, Note_on_c, 0, 46, 0
1, 220800, Note_on_c, 0, 55, 0
1, 220800, Note_on_c, 0, 70, 59
1, 220800, Note_on_c, 0, 39, 47
1, 220819, Control_c, 0, 64, 0
1, 220860, Note_on_c, 0, 70, 0
1, 220920, Note_on_c, 0, 63, 55
1, 220980, Note_on_c, 0, 63, 0
1, 221040, Note_on_c, 0, 39, 0
1, 221040, Note_on_c, 0, 70, 72
1, 221040, Note_on_c, 0, 46, 46
1, 221040, Note_on_c, 0, 55, 56
1, 221054, Control_c, 0, 64, 127
1, 221160, Note_on_c, 0, 79, 55
1, 221220, Note_on_c, 0, 79, 0
1, 221250, Note_on_c, 0, 73, 59
1, 221280, Tempo, 582524
1, 221280, Note_on_c, 0, 73, 0
1, 221280, Note_on_c, 0, 55, 0
1, 221280, Note_on_c, 0, 46, 0
1, 221280, Note_on_c, 0, 70, 0
1, 221280, Note_on_c, 0, 74, 63
1, 221280, Control_c, 0, 64, 0
1, 221340, Note_on_c, 0, 74, 0
1, 221400, Note_on_c, 0, 65, 55
1, 221460, Note_on_c, 0, 65, 0
1, 221520, Tempo, 606061
1, 221520, Note_on_c, 0, 74, 77
1, 221520, Note_on_c, 0, 46, 54
1, 221520, Note_on_c, 0, 56, 63
1, 221533, Control_c, 0, 64, 127
1, 221670, Note_on_c, 0, 82, 55
1, 221700, Note_on_c, 0, 82, 0
1, 221730, Note_on_c, 0, 76, 56
1, 221760, Tempo, 560748
1, 221760, Note_on_c, 0, 76, 0
1, 221760, Note_on_c, 0, 56, 0
1, 221760, Note_on_c, 0, 46, 0
1, 221760, Note_on_c, 0, 74, 0
1, 221760, Note_on_c, 0, 77, 59
1, 221760, Note_on_c, 0, 39, 47
1, 221768, Control_c, 0, 64, 0
1, 221820, Note_on_c, 0, 77, 0
1, 221880, Note_on_c, 0, 70, 55
1, 221940, Note_on_c, 0, 70, 0
1, 222000, Tempo, 588235
1, 222000, Note_on_c, 0, 39, 0
1, 222000, Note_on_c, 0, 77, 79
1, 222000, Note_on_c, 0, 46, 46
1, 222000, Note_on_c, 0, 56, 56
1, 222015, Control_c, 0, 64, 127
1, 222120, Note_on_c, 0, 86, 61
1, 222180, Note_on_c, 0, 86, 0
1, 222210, Note_on_c, 0, 78, 60
1, 222240, Tempo, 555556
1, 222240, Note_on_c, 0, 78, 0
1, 222240, Note_on_c, 0, 56, 0
1, 222240, Note_on_c, 0, 46, 0
1, 222240, Note_on_c, 0, 77, 0
1, 222240, Note_on_c, 0, 79, 64
1, 222240, Control_c, 0, 64, 0
1, 222300, Note_on_c, 0, 79, 0
1, 222360, Note_on_c, 0, 70, 56
1, 222420, Note_on_c, 0, 70, 0
1, 222480, Tempo, 576923
1, 222480, Note_on_c, 0, 79, 79
1, 222480, Note_on_c, 0, 46, 55
1, 222480, Note_on_c, 0, 55, 64
1, 222487, Control_c, 0, 64, 127
1, 222600, Note_on_c, 0, 87, 58
1, 222660, Note_on_c, 0, 87, 0
1, 222690, Note_on_c, 0, 81, 57
1, 222720, Tempo, 545455
1, 222720, Note_on_c, 0, 81, 0
1, 222720, Note_on_c, 0, 55, 0
1, 222720, Note_on_c, 0, 46, 0
1, 222720, Note_on_c, 0, 79, 0
1, 222720, Note_on_c, 0, 82, 61
1, 222720, Note_on_c, 0, 39, 48
1, 222733, Control_c, 0, 64, 0
1, 222780, Note_on_c, 0, 82, 0
1, 222840, Note_on_c, 0, 75, 57
1, 222900, Note_on_c, 0, 75, 0
1, 222960, Tempo, 576923
1, 222960, Note_on_c, 0, 39, 0
1, 222960, Note_on_c, 0, 82, 78
1, 222960, Note_on_c, 0, 46, 48
1, 222960, Note_on_c, 0, 55, 57
1, 222980, Control_c, 0, 64, 127
1, 223080, Note_on_c, 0, 91, 57
1, 223170, Note_on_c, 0, 85, 62
1, 223200, Tempo, 545455
1, 223200, Note_on_c, 0, 85, 0
1, 223200, Note_on_c, 0, 55, 0
1, 223200, Note_on_c, 0, 82, 0
1, 223200, Note_on_c, 0, 46, 0
1, 223200, Note_on_c, 0, 91, 0
1, 223200, Note_on_c, 0, 86, 66
1, 223200, Control_c, 0, 64, 0
1, 223260, Note_on_c, 0, 86, 0
1, 223320, Note_on_c, 0, 77, 57
1, 223380, Note_on_c, 0, 77, 0
1, 223440, Tempo, 571429
1, 223440, Note_on_c, 0, 86, 81
1, 223440, Note_on_c, 0, 46, 56
1, 223440, Note_on_c, 0, 56, 67
1, 223448, Control_c, 0, 64, 127
1, 223560, Note_on_c, 0, 94, 58
1, 223620, Note_on_c, 0, 94, 0
1, 223650, Note_on_c, 0, 83, 58
1, 223680, Tempo, 540541
1, 223680, Note_on_c, 0, 83, 0
1, 223680, Note_on_c, 0, 56, 0
1, 223680, Note_on_c, 0, 46, 0
1, 223680, Note_on_c, 0, 86, 0
1, 223680, Note_on_c, 0, 84, 62
1, 223680, Note_on_c, 0, 39, 49
1, 223683, Control_c, 0, 64, 0
1, 223740, Note_on_c, 0, 84, 0
1, 223800, Note_on_c, 0, 77, 58
1, 223860, Note_on_c, 0, 77, 0
1, 223920, Tempo, 560748
1, 223920, Note_on_c, 0, 39, 0
1, 223920, Note_on_c, 0, 84, 83
1, 223920, Note_on_c, 0, 46, 49
1, 223920, Note_on_c, 0, 56, 60
1, 223935, Control_c, 0, 64, 127
1, 224040, Note_on_c, 0, 92, 58
1, 224130, Note_on_c, 0, 78, 63
1, 224160, Tempo, 540541
1, 224160, Note_on_c, 0, 78, 0
1, 224160, Note_on_c, 0, 56, 0
1, 224160, Note_on_c, 0, 84, 0
1, 224160, Note_on_c, 0, 46, 0
1, 224160, Note_on_c, 0, 92, 0
1, 224160, Note_on_c, 0, 79, 68
1, 224160, Control_c, 0, 64, 0
1, 224220, Note_on_c, 0, 79, 0
1, 224280, Note_on_c, 0, 70, 59
1, 224340, Note_on_c, 0, 70, 0
1, 224400, Tempo, 560748
1, 224400, Note_on_c, 0, 79, 81
1, 224400, Note_on_c, 0, 46, 57
1, 224400, Note_on_c, 0, 55, 68
1, 224413, Control_c, 0, 64, 127
1, 224460, Tempo, 560748
1, 224520, Note_on_c, 0, 87, 59
1, 224580, Note_on_c, 0, 87, 0
1, 224610, Note_on_c, 0, 81, 60
1, 224640, Tempo, 530973
1, 224640, Note_on_c, 0, 81, 0
1, 224640, Note_on_c, 0, 55, 0
1, 224640, Note_on_c, 0, 46, 0
1, 224640, Note_on_c, 0, 79, 0
1, 224640, Note_on_c, 0, 82, 64
1, 224640, Note_on_c, 0, 39, 51
1, 224643, Control_c, 0, 64, 0
1, 224700, Note_on_c, 0, 82, 0
1, 224760, Note_on_c, 0, 75, 59
1, 224820, Note_on_c, 0, 75, 0
1, 224880, Tempo, 560748
1, 224880, Note_on_c, 0, 39, 0
1, 224880, Note_on_c, 0, 82, 81
1, 224880, Note_on_c, 0, 46, 50
1, 224880, Note_on_c, 0, 55, 61
1, 224900, Control_c, 0, 64, 127
1, 225000, Note_on_c, 0, 91, 60
1, 225090, Note_on_c, 0, 85, 68
1, 225120, Tempo, 526316
1, 225120, Note_on_c, 0, 85, 0
1, 225120, Note_on_c, 0, 55, 0
1, 225120, Note_on_c, 0, 82, 0
1, 225120, Note_on_c, 0, 46, 0
1, 225120, Note_on_c, 0, 91, 0
1, 225120, Note_on_c, 0, 86, 69
1, 225120, Control_c, 0, 64, 0
1, 225180, Note_on_c, 0, 86, 0
1, 225240, Note_on_c, 0, 77, 61
1, 225300, Note_on_c, 0, 77, 0
1, 225360, Tempo, 571429
1, 225360, Note_on_c, 0, 86, 87
1, 225360, Note_on_c, 0, 46, 58
1, 225360, Note_on_c, 0, 56, 69
1, 225376, Control_c, 0, 64, 127
1, 225480, Note_on_c, 0, 94, 61
1, 225540, Note_on_c, 0, 94, 0
1, 225540, Note_on_c, 0, 88, 70
1, 225570, Note_on_c, 0, 88, 0
1, 225600, Tempo, 526316
1, 225600, Note_on_c, 0, 56, 0
1, 225600, Note_on_c, 0, 46, 0
1, 225600, Note_on_c, 0, 86, 0
1, 225600, Note_on_c, 0, 89, 66
1, 225600, Note_on_c, 0, 39, 52
1, 225608, Control_c, 0, 64, 0
1, 225660, Note_on_c, 0, 89, 0
1, 225720, Note_on_c, 0, 82, 61
1, 225780, Note_on_c, 0, 82, 0
1, 225840, Tempo, 571429
1, 225840, Note_on_c, 0, 39, 0
1, 225840, Note_on_c, 0, 89, 84
1, 225840, Note_on_c, 0, 46, 51
1, 225840, Note_on_c, 0, 56, 62
1, 225848, Control_c, 0, 64, 127
1, 225960, Note_on_c, 0, 98, 62
1, 226050, Note_on_c, 0, 90, 64
1, 226080, Tempo, 526316
1, 226080, Note_on_c, 0, 90, 0
1, 226080, Note_on_c, 0, 56, 0
1, 226080, Note_on_c, 0, 89, 0
1, 226080, Note_on_c, 0, 46, 0
1, 226080, Note_on_c, 0, 98, 0
1, 226080, Note_on_c, 0, 91, 83
1, 226080, Control_c, 0, 64, 0
1, 226140, Note_on_c, 0, 91, 0
1, 226200, Note_on_c, 0, 82, 62
1, 226260, Note_on_c, 0, 82, 0
1, 226320, Tempo, 588235
1, 226320, Note_on_c, 0, 91, 70
1, 226320, Note_on_c, 0, 46, 51
1, 226320, Note_on_c, 0, 55, 60
1, 226328, Control_c, 0, 64, 127
1, 226440, Note_on_c, 0, 99, 62
1, 226500, Note_on_c, 0, 99, 0
1, 226560, Note_on_c, 0, 91, 0
1, 226560, Note_on_c, 0, 46, 0
1, 226560, Note_on_c, 0, 55, 0
1, 226560, Note_on_c, 0, 63, 79
1, 226560, Note_on_c, 0, 39, 47
1, 226575, Control_c, 0, 64, 0
1, 226800, Note_on_c, 0, 39, 0
1, 226800, Note_on_c, 0, 46, 39
1, 226800, Note_on_c, 0, 55, 47
1, 226980, Note_on_c, 0, 63, 0
1, 226980, Note_on_c, 0, 64, 48
1, 227040, Tempo, 540541
1, 227040, Note_on_c, 0, 64, 0
1, 227040, Note_on_c, 0, 55, 0
1, 227040, Note_on_c, 0, 46, 0
1, 227040, Note_on_c, 0, 65, 48
1, 227120, Note_on_c, 0, 65, 0
1, 227120, Note_on_c, 0, 67, 50
1, 227200, Note_on_c, 0, 67, 0
1, 227200, Note_on_c, 0, 68, 52
1, 227280, Tempo, 571429
1, 227280, Note_on_c, 0, 68, 0
1, 227280, Note_on_c, 0, 72, 54
1, 227280, Note_on_c, 0, 46, 42
1, 227280, Note_on_c, 0, 56, 42
1, 227280, Control_c, 0, 64, 127
1, 227360, Note_on_c, 0, 72, 0
1, 227360, Note_on_c, 0, 70, 53
1, 227440, Note_on_c, 0, 70, 0
1, 227440, Note_on_c, 0, 68, 52
1, 227520, Tempo, 535714
1, 227520, Note_on_c, 0, 68, 0
1, 227520, Note_on_c, 0, 56, 0
1, 227520, Note_on_c, 0, 46, 0
1, 227520, Note_on_c, 0, 67, 51
1, 227520, Note_on_c, 0, 39, 44
1, 227600, Note_on_c, 0, 67, 0
1, 227600, Note_on_c, 0, 65, 50
1, 227680, Note_on_c, 0, 65, 0
1, 227680, Note_on_c, 0, 63, 49
1, 227760, Tempo, 582524
1, 227760, Note_on_c, 0, 63, 0
1, 227760, Note_on_c, 0, 39, 0
1, 227760, Note_on_c, 0, 62, 48
1, 227760, Note_on_c, 0, 46, 40
1, 227760, Note_on_c, 0, 56, 40
1, 227771, Control_c, 0, 64, 0
1, 227840, Note_on_c, 0, 62, 0
1, 227840, Note_on_c, 0, 60, 48
1, 227920, Note_on_c, 0, 60, 0
1, 227920, Note_on_c, 0, 58, 47
1, 228000, Tempo, 545455
1, 228000, Note_on_c, 0, 58, 0
1, 228000, Note_on_c, 0, 56, 0
1, 228000, Note_on_c, 0, 46, 0
1, 228000, Note_on_c, 0, 57, 49
1, 228080, Note_on_c, 0, 57, 0
1, 228080, Note_on_c, 0, 58, 50
1, 228160, Note_on_c, 0, 58, 0
1, 228160, Note_on_c, 0, 60, 51
1, 228240, Tempo, 582524
1, 228240, Note_on_c, 0, 60, 0
1, 228240, Note_on_c, 0, 62, 51
1, 228240, Note_on_c, 0, 46, 40
1, 228240, Note_on_c, 0, 55, 40
1, 228263, Control_c, 0, 64, 127
1, 228320, Note_on_c, 0, 62, 0
1, 228320, Note_on_c, 0, 63, 52
1, 228400, Note_on_c, 0, 63, 0
1, 228400, Note_on_c, 0, 66, 53
1, 228480, Tempo, 535714
1, 228480, Note_on_c, 0, 66, 0
1, 228480, Note_on_c, 0, 55, 0
1, 228480, Note_on_c, 0, 46, 0
1, 228480, Note_on_c, 0, 67, 54
1, 228480, Note_on_c, 0, 39, 44
1, 228560, Note_on_c, 0, 67, 0
1, 228560, Note_on_c, 0, 68, 54
1, 228640, Note_on_c, 0, 68, 0
1, 228640, Note_on_c, 0, 70, 55
1, 228720, Tempo, 566038
1, 228720, Note_on_c, 0, 70, 0
1, 228720, Note_on_c, 0, 39, 0
1, 228720, Note_on_c, 0, 72, 56
1, 228720, Note_on_c, 0, 46, 41
1, 228720, Note_on_c, 0, 55, 41
1, 228735, Control_c, 0, 64, 0
1, 228800, Note_on_c, 0, 72, 0
1, 228800, Note_on_c, 0, 74, 57
1, 228880, Note_on_c, 0, 74, 0
1, 228880, Note_on_c, 0, 75, 58
1, 228930, Note_on_c, 0, 75, 0
1, 228930, Note_on_c, 0, 74, 56
1, 228960, Tempo, 535714
1, 228960, Note_on_c, 0, 55, 0
1, 228960, Note_on_c, 0, 46, 0
1, 228960, Note_on_c, 0, 77, 63
1, 229040, Note_on_c, 0, 77, 0
1, 229040, Note_on_c, 0, 74, 0
1, 229040, Note_on_c, 0, 79, 58
1, 229120, Note_on_c, 0, 79, 0
1, 229120, Note_on_c, 0, 80, 59
1, 229200, Tempo, 566038
1, 229200, Note_on_c, 0, 80, 0
1, 229200, Note_on_c, 0, 84, 64
1, 229200, Note_on_c, 0, 53, 40
1, 229200, Note_on_c, 0, 56, 40
1, 229200, Note_on_c, 0, 62, 40
1, 229236, Control_c, 0, 64, 127
1, 229280, Note_on_c, 0, 84, 0
1, 229280, Note_on_c, 0, 82, 63
1, 229360, Note_on_c, 0, 82, 0
1, 229360, Note_on_c, 0, 80, 62
1, 229440, Tempo, 535714
1, 229440, Note_on_c, 0, 80, 0
1, 229440, Note_on_c, 0, 53, 0
1, 229440, Note_on_c, 0, 56, 0
1, 229440, Note_on_c, 0, 62, 0
1, 229440, Note_on_c, 0, 79, 60
1, 229440, Note_on_c, 0, 39, 44
1, 229520, Note_on_c, 0, 79, 0
1, 229520, Note_on_c, 0, 77, 59
1, 229600, Note_on_c, 0, 77, 0
1, 229600, Note_on_c, 0, 75, 58
1, 229680, Tempo, 566038
1, 229680, Note_on_c, 0, 75, 0
1, 229680, Note_on_c, 0, 39, 0
1, 229680, Note_on_c, 0, 74, 57
1, 229680, Note_on_c, 0, 62, 40
1, 229680, Note_on_c, 0, 56, 40
1, 229680, Note_on_c, 0, 53, 40
1, 229684, Control_c, 0, 64, 0
1, 229760, Note_on_c, 0, 74, 0
1, 229760, Note_on_c, 0, 72, 55
1, 229840, Note_on_c, 0, 72, 0
1, 229840, Note_on_c, 0, 70, 54
1, 229920, Tempo, 530973
1, 229920, Note_on_c, 0, 70, 0
1, 229920, Note_on_c, 0, 62, 0
1, 229920, Note_on_c, 0, 56, 0
1, 229920, Note_on_c, 0, 53, 0
1, 229920, Note_on_c, 0, 69, 55
1, 230000, Note_on_c, 0, 69, 0
1, 230000, Note_on_c, 0, 70, 55
1, 230080, Note_on_c, 0, 70, 0
1, 230080, Note_on_c, 0, 72, 56
1, 230160, Tempo, 555556
1, 230160, Note_on_c, 0, 72, 0
1, 230160, Note_on_c, 0, 74, 56
1, 230160, Note_on_c, 0, 55, 41
1, 230160, Note_on_c, 0, 58, 41
1, 230160, Note_on_c, 0, 63, 41
1, 230192, Control_c, 0, 64, 127
1, 230240, Note_on_c, 0, 74, 0
1, 230240, Note_on_c, 0, 75, 57
1, 230320, Note_on_c, 0, 75, 0
1, 230320, Note_on_c, 0, 78, 58
1, 230400, Tempo, 530973
1, 230400, Note_on_c, 0, 78, 0
1, 230400, Note_on_c, 0, 55, 0
1, 230400, Note_on_c, 0, 58, 0
1, 230400, Note_on_c, 0, 63, 0
1, 230400, Note_on_c, 0, 79, 58
1, 230400, Note_on_c, 0, 39, 44
1, 230480, Note_on_c, 0, 79, 0
1, 230480, Note_on_c, 0, 80, 59
1, 230560, Note_on_c, 0, 80, 0
1, 230560, Note_on_c, 0, 82, 60
1, 230640, Tempo, 560748
1, 230640, Note_on_c, 0, 82, 0
1, 230640, Note_on_c, 0, 39, 0
1, 230640, Note_on_c, 0, 84, 60
1, 230640, Note_on_c, 0, 63, 42
1, 230640, Note_on_c, 0, 58, 42
1, 230640, Note_on_c, 0, 55, 42
1, 230643, Control_c, 0, 64, 0
1, 230720, Note_on_c, 0, 84, 0
1, 230720, Note_on_c, 0, 86, 61
1, 230800, Note_on_c, 0, 86, 0
1, 230800, Note_on_c, 0, 87, 63
1, 230850, Note_on_c, 0, 87, 0
1, 230850, Note_on_c, 0, 86, 52
1, 230880, Tempo, 526316
1, 230880, Note_on_c, 0, 63, 0
1, 230880, Note_on_c, 0, 55, 0
1, 230880, Note_on_c, 0, 58, 0
1, 230880, Note_on_c, 0, 89, 63
1, 230960, Note_on_c, 0, 89, 0
1, 230960, Note_on_c, 0, 86, 0
1, 230960, Note_on_c, 0, 91, 58
1, 231040, Note_on_c, 0, 91, 0
1, 231040, Note_on_c, 0, 92, 59
1, 231120, Tempo, 560748
1, 231120, Note_on_c, 0, 92, 0
1, 231120, Note_on_c, 0, 96, 64
1, 231120, Note_on_c, 0, 56, 40
1, 231120, Note_on_c, 0, 62, 40
1, 231120, Note_on_c, 0, 65, 40
1, 231156, Control_c, 0, 64, 127
1, 231200, Note_on_c, 0, 96, 0
1, 231200, Note_on_c, 0, 94, 63
1, 231280, Note_on_c, 0, 94, 0
1, 231280, Note_on_c, 0, 92, 62
1, 231360, Tempo, 526316
1, 231360, Note_on_c, 0, 92, 0
1, 231360, Note_on_c, 0, 56, 0
1, 231360, Note_on_c, 0, 62, 0
1, 231360, Note_on_c, 0, 65, 0
1, 231360, Note_on_c, 0, 91, 60
1, 231360, Note_on_c, 0, 39, 44
1, 231440, Note_on_c, 0, 91, 0
1, 231440, Note_on_c, 0, 89, 59
1, 231520, Note_on_c, 0, 89, 0
1, 231520, Note_on_c, 0, 87, 58
1, 231600, Tempo, 555556
1, 231600, Note_on_c, 0, 87, 0
1, 231600, Note_on_c, 0, 39, 0
1, 231600, Note_on_c, 0, 86, 57
1, 231600, Note_on_c, 0, 65, 40
1, 231600, Note_on_c, 0, 62, 40
1, 231600, Note_on_c, 0, 56, 40
1, 231607, Control_c, 0, 64, 0
1, 231680, Note_on_c, 0, 86, 0
1, 231680, Note_on_c, 0, 84, 55
1, 231760, Note_on_c, 0, 84, 0
1, 231760, Note_on_c, 0, 82, 54
1, 231840, Tempo, 526316
1, 231840, Note_on_c, 0, 82, 0
1, 231840, Note_on_c, 0, 65, 0
1, 231840, Note_on_c, 0, 62, 0
1, 231840, Note_on_c, 0, 56, 0
1, 231840, Note_on_c, 0, 81, 55
1, 231920, Note_on_c, 0, 81, 0
1, 231920, Note_on_c, 0, 82, 55
1, 232000, Note_on_c, 0, 82, 0
1, 232000, Note_on_c, 0, 84, 56
1, 232080, Tempo, 550459
1, 232080, Note_on_c, 0, 84, 0
1, 232080, Note_on_c, 0, 86, 56
1, 232080, Note_on_c, 0, 58, 41
1, 232080, Note_on_c, 0, 63, 41
1, 232080, Note_on_c, 0, 67, 41
1, 232117, Control_c, 0, 64, 127
1, 232160, Note_on_c, 0, 86, 0
1, 232160, Note_on_c, 0, 87, 57
1, 232240, Note_on_c, 0, 87, 0
1, 232240, Note_on_c, 0, 90, 58
1, 232320, Tempo, 526316
1, 232320, Note_on_c, 0, 90, 0
1, 232320, Note_on_c, 0, 58, 0
1, 232320, Note_on_c, 0, 63, 0
1, 232320, Note_on_c, 0, 67, 0
1, 232320, Note_on_c, 0, 91, 58
1, 232320, Note_on_c, 0, 39, 44
1, 232400, Note_on_c, 0, 91, 0
1, 232400, Note_on_c, 0, 92, 58
1, 232480, Note_on_c, 0, 92, 0
1, 232480, Note_on_c, 0, 94, 57
1, 232560, Tempo, 555556
1, 232560, Note_on_c, 0, 94, 0
1, 232560, Note_on_c, 0, 39, 0
1, 232560, Note_on_c, 0, 96, 56
1, 232560, Note_on_c, 0, 67, 42
1, 232560, Note_on_c, 0, 63, 42
1, 232560, Note_on_c, 0, 58, 42
1, 232577, Control_c, 0, 64, 0
1, 232640, Note_on_c, 0, 96, 0
1, 232640, Note_on_c, 0, 98, 56
1, 232720, Note_on_c, 0, 98, 0
1, 232720, Note_on_c, 0, 99, 55
1, 232800, Tempo, 530973
1, 232800, Note_on_c, 0, 99, 0
1, 232800, Note_on_c, 0, 67, 0
1, 232800, Note_on_c, 0, 63, 0
1, 232800, Note_on_c, 0, 58, 0
1, 232800, Note_on_c, 0, 100, 55
1, 232800, Control_c, 0, 64, 0
1, 232880, Note_on_c, 0, 100, 0
1, 232880, Note_on_c, 0, 101, 50
1, 232960, Note_on_c, 0, 101, 0
1, 232960, Note_on_c, 0, 94, 54
1, 232980, Tempo, 550459
1, 233040, Tempo, 570071
1, 233040, Note_on_c, 0, 94, 0
1, 233040, Note_on_c, 0, 97, 50
1, 233040, Note_on_c, 0, 68, 32
1, 233040, Note_on_c, 0, 58, 32
1, 233040, Note_on_c, 0, 62, 32
1, 233040, Control_c, 0, 64, 127
1, 233120, Note_on_c, 0, 97, 0
1, 233120, Note_on_c, 0, 98, 54
1, 233200, Note_on_c, 0, 98, 0
1, 233200, Note_on_c, 0, 89, 50
1, 233280, Tempo, 526316
1, 233280, Note_on_c, 0, 89, 0
1, 233280, Note_on_c, 0, 68, 0
1, 233280, Note_on_c, 0, 58, 0
1, 233280, Note_on_c, 0, 62, 0
1, 233280, Note_on_c, 0, 100, 54
1, 233280, Note_on_c, 0, 39, 35
1, 233360, Note_on_c, 0, 100, 0
1, 233360, Note_on_c, 0, 101, 50
1, 233440, Note_on_c, 0, 101, 0
1, 233440, Note_on_c, 0, 94, 54
1, 233520, Tempo, 555556
1, 233520, Note_on_c, 0, 94, 0
1, 233520, Note_on_c, 0, 39, 0
1, 233520, Note_on_c, 0, 97, 50
1, 233520, Note_on_c, 0, 68, 33
1, 233520, Note_on_c, 0, 62, 33
1, 233520, Note_on_c, 0, 58, 33
1, 233600, Note_on_c, 0, 97, 0
1, 233600, Note_on_c, 0, 98, 55
1, 233680, Note_on_c, 0, 98, 0
1, 233680, Note_on_c, 0, 89, 50
1, 233760, Tempo, 526316
1, 233760, Note_on_c, 0, 89, 0
1, 233760, Note_on_c, 0, 68, 0
1, 233760, Note_on_c, 0, 62, 0
1, 233760, Note_on_c, 0, 58, 0
1, 233760, Note_on_c, 0, 102, 55
1, 233760, Control_c, 0, 64, 0
1, 233840, Note_on_c, 0, 102, 0
1, 233840, Note_on_c, 0, 103, 50
1, 233920, Note_on_c, 0, 103, 0
1, 233920, Note_on_c, 0, 94, 54
1, 234000, Tempo, 555556
1, 234000, Note_on_c, 0, 94, 0
1, 234000, Note_on_c, 0, 98, 50
1, 234000, Note_on_c, 0, 58, 32
1, 234000, Note_on_c, 0, 63, 32
1, 234000, Note_on_c, 0, 67, 32
1, 234035, Control_c, 0, 64, 127
1, 234080, Note_on_c, 0, 98, 0
1, 234080, Note_on_c, 0, 99, 54
1, 234160, Note_on_c, 0, 99, 0
1, 234160, Note_on_c, 0, 91, 50
1, 234240, Tempo, 530973
1, 234240, Note_on_c, 0, 91, 0
1, 234240, Note_on_c, 0, 58, 0
1, 234240, Note_on_c, 0, 63, 0
1, 234240, Note_on_c, 0, 67, 0
1, 234240, Note_on_c, 0, 102, 54
1, 234240, Note_on_c, 0, 39, 35
1, 234320, Note_on_c, 0, 102, 0
1, 234320, Note_on_c, 0, 103, 50
1, 234400, Note_on_c, 0, 103, 0
1, 234400, Note_on_c, 0, 94, 54
1, 234420, Tempo, 550459
1, 234480, Tempo, 570071
1, 234480, Note_on_c, 0, 94, 0
1, 234480, Note_on_c, 0, 39, 0
1, 234480, Note_on_c, 0, 98, 50
1, 234480, Note_on_c, 0, 67, 33
1, 234480, Note_on_c, 0, 63, 33
1, 234480, Note_on_c, 0, 58, 33
1, 234560, Note_on_c, 0, 98, 0
1, 234560, Note_on_c, 0, 99, 55
1, 234640, Note_on_c, 0, 99, 0
1, 234640, Note_on_c, 0, 91, 50
1, 234720, Tempo, 535714
1, 234720, Note_on_c, 0, 91, 0
1, 234720, Note_on_c, 0, 67, 0
1, 234720, Note_on_c, 0, 63, 0
1, 234720, Note_on_c, 0, 58, 0
1, 234720, Note_on_c, 0, 100, 55
1, 234720, Control_c, 0, 64, 0
1, 234800, Note_on_c, 0, 100, 0
1, 234800, Note_on_c, 0, 101, 50
1, 234880, Note_on_c, 0, 101, 0
1, 234880, Note_on_c, 0, 94, 54
1, 234960, Tempo, 570071
1, 234960, Note_on_c, 0, 94, 0
1, 234960, Note_on_c, 0, 97, 50
1, 234960, Note_on_c, 0, 68, 32
1, 234960, Note_on_c, 0, 58, 32
1, 234960, Note_on_c, 0, 62, 32
1, 234989, Control_c, 0, 64, 127
1, 235040, Note_on_c, 0, 97, 0
1, 235040, Note_on_c, 0, 98, 54
1, 235120, Note_on_c, 0, 98, 0
1, 235120, Note_on_c, 0, 89, 50
1, 235200, Tempo, 535714
1, 235200, Note_on_c, 0, 89, 0
1, 235200, Note_on_c, 0, 68, 0
1, 235200, Note_on_c, 0, 58, 0
1, 235200, Note_on_c, 0, 62, 0
1, 235200, Note_on_c, 0, 100, 54
1, 235200, Note_on_c, 0, 39, 35
1, 235280, Note_on_c, 0, 100, 0
1, 235280, Note_on_c, 0, 101, 50
1, 235360, Note_on_c, 0, 101, 0
1, 235360, Note_on_c, 0, 94, 54
1, 235440, Tempo, 566038
1, 235440, Note_on_c, 0, 94, 0
1, 235440, Note_on_c, 0, 39, 0
1, 235440, Note_on_c, 0, 97, 50
1, 235440, Note_on_c, 0, 68, 33
1, 235440, Note_on_c, 0, 62, 33
1, 235440, Note_on_c, 0, 58, 33
1, 235520, Note_on_c, 0, 97, 0
1, 235520, Note_on_c, 0, 98, 55
1, 235600, Note_on_c, 0, 98, 0
1, 235600, Note_on_c, 0, 89, 50
1, 235680, Tempo, 535714
1, 235680, Note_on_c, 0, 89, 0
1, 235680, Note_on_c, 0, 68, 0
1, 235680, Note_on_c, 0, 62, 0
1, 235680, Note_on_c, 0, 58, 0
1, 235680, Note_on_c, 0, 102, 55
1, 235680, Control_c, 0, 64, 0
1, 235760, Note_on_c, 0, 102, 0
1, 235760, Note_on_c, 0, 103, 50
1, 235840, Note_on_c, 0, 103, 0
1, 235840, Note_on_c, 0, 94, 54
1, 235920, Tempo, 570071
1, 235920, Note_on_c, 0, 94, 0
1, 235920, Note_on_c, 0, 98, 50
1, 235920, Note_on_c, 0, 58, 32
1, 235920, Note_on_c, 0, 63, 32
1, 235920, Note_on_c, 0, 67, 32
1, 235946, Control_c, 0, 64, 127
1, 236000, Note_on_c, 0, 98, 0
1, 236000, Note_on_c, 0, 99, 54
1, 236080, Note_on_c, 0, 99, 0
1, 236080, Note_on_c, 0, 91, 50
1, 236160, Tempo, 535714
1, 236160, Note_on_c, 0, 91, 0
1, 236160, Note_on_c, 0, 58, 0
1, 236160, Note_on_c, 0, 63, 0
1, 236160, Note_on_c, 0, 67, 0
1, 236160, Note_on_c, 0, 102, 54
1, 236160, Note_on_c, 0, 39, 35
1, 236240, Note_on_c, 0, 102, 0
1, 236240, Note_on_c, 0, 103, 50
1, 236320, Note_on_c, 0, 103, 0
1, 236320, Note_on_c, 0, 94, 54
1, 236400, Tempo, 570071
1, 236400, Note_on_c, 0, 94, 0
1, 236400, Note_on_c, 0, 39, 0
1, 236400, Note_on_c, 0, 98, 50
1, 236400, Note_on_c, 0, 67, 33
1, 236400, Note_on_c, 0, 63, 33
1, 236400, Note_on_c, 0, 58, 33
1, 236480, Note_on_c, 0, 98, 0
1, 236480, Note_on_c, 0, 99, 55
1, 236560, Note_on_c, 0, 99, 0
1, 236560, Note_on_c, 0, 91, 50
1, 236640, Tempo, 535714
1, 236640, Note_on_c, 0, 91, 0
1, 236640, Note_on_c, 0, 67, 0
1, 236640, Note_on_c, 0, 63, 0
1, 236640, Note_on_c, 0, 58, 0
1, 236640, Note_on_c, 0, 100, 55
1, 236640, Control_c, 0, 64, 0
1, 236720, Note_on_c, 0, 100, 0
1, 236720, Note_on_c, 0, 101, 50
1, 236800, Note_on_c, 0, 101, 0
1, 236800, Note_on_c, 0, 94, 54
1, 236880, Tempo, 560748
1, 236880, Note_on_c, 0, 94, 0
1, 236880, Note_on_c, 0, 97, 50
1, 236880, Note_on_c, 0, 68, 32
1, 236880, Note_on_c, 0, 58, 32
1, 236880, Note_on_c, 0, 62, 32
1, 236909, Control_c, 0, 64, 127
1, 236960, Note_on_c, 0, 97, 0
1, 236960, Note_on_c, 0, 98, 54
1, 237040, Note_on_c, 0, 98, 0
1, 237040, Note_on_c, 0, 89, 50
1, 237120, Tempo, 545455
1, 237120, Note_on_c, 0, 89, 0
1, 237120, Note_on_c, 0, 68, 0
1, 237120, Note_on_c, 0, 58, 0
1, 237120, Note_on_c, 0, 62, 0
1, 237120, Note_on_c, 0, 100, 54
1, 237120, Note_on_c, 0, 39, 35
1, 237200, Note_on_c, 0, 100, 0
1, 237200, Note_on_c, 0, 101, 50
1, 237280, Note_on_c, 0, 101, 0
1, 237280, Note_on_c, 0, 94, 54
1, 237360, Tempo, 566038
1, 237360, Note_on_c, 0, 94, 0
1, 237360, Note_on_c, 0, 39, 0
1, 237360, Note_on_c, 0, 97, 50
1, 237360, Note_on_c, 0, 68, 33
1, 237360, Note_on_c, 0, 62, 33
1, 237360, Note_on_c, 0, 58, 33
1, 237440, Note_on_c, 0, 97, 0
1, 237440, Note_on_c, 0, 98, 55
1, 237520, Note_on_c, 0, 98, 0
1, 237520, Note_on_c, 0, 89, 50
1, 237600, Tempo, 550459
1, 237600, Note_on_c, 0, 89, 0
1, 237600, Note_on_c, 0, 68, 0
1, 237600, Note_on_c, 0, 62, 0
1, 237600, Note_on_c, 0, 58, 0
1, 237600, Note_on_c, 0, 102, 55
1, 237600, Control_c, 0, 64, 0
1, 237680, Note_on_c, 0, 102, 0
1, 237680, Note_on_c, 0, 103, 50
1, 237760, Note_on_c, 0, 103, 0
1, 237760, Note_on_c, 0, 94, 54
1, 237840, Tempo, 570071
1, 237840, Note_on_c, 0, 94, 0
1, 237840, Note_on_c, 0, 98, 50
1, 237840, Note_on_c, 0, 58, 32
1, 237840, Note_on_c, 0, 63, 32
1, 237840, Note_on_c, 0, 67, 32
1, 237877, Control_c, 0, 64, 127
1, 237920, Note_on_c, 0, 98, 0
1, 237920, Note_on_c, 0, 99, 54
1, 238000, Note_on_c, 0, 99, 0
1, 238000, Note_on_c, 0, 91, 50
1, 238080, Tempo, 550459
1, 238080, Note_on_c, 0, 91, 0
1, 238080, Note_on_c, 0, 58, 0
1, 238080, Note_on_c, 0, 63, 0
1, 238080, Note_on_c, 0, 67, 0
1, 238080, Note_on_c, 0, 102, 54
1, 238080, Note_on_c, 0, 39, 35
1, 238160, Note_on_c, 0, 102, 0
1, 238160, Note_on_c, 0, 103, 50
1, 238240, Note_on_c, 0, 103, 0
1, 238240, Note_on_c, 0, 94, 54
1, 238320, Tempo, 570071
1, 238320, Note_on_c, 0, 94, 0
1, 238320, Note_on_c, 0, 39, 0
1, 238320, Note_on_c, 0, 98, 50
1, 238320, Note_on_c, 0, 67, 33
1, 238320, Note_on_c, 0, 63, 33
1, 238320, Note_on_c, 0, 58, 33
1, 238400, Note_on_c, 0, 98, 0
1, 238400, Note_on_c, 0, 99, 55
1, 238480, Note_on_c, 0, 99, 0
1, 238480, Note_on_c, 0, 91, 50
1, 238560, Tempo, 550459
1, 238560, Note_on_c, 0, 91, 0
1, 238560, Note_on_c, 0, 67, 0
1, 238560, Note_on_c, 0, 63, 0
1, 238560, Note_on_c, 0, 58, 0
1, 238560, Note_on_c, 0, 100, 55
1, 238560, Control_c, 0, 64, 0
1, 238640, Note_on_c, 0, 100, 0
1, 238640, Note_on_c, 0, 101, 50
1, 238720, Note_on_c, 0, 101, 0
1, 238720, Note_on_c, 0, 94, 54
1, 238800, Tempo, 570071
1, 238800, Note_on_c, 0, 94, 0
1, 238800, Note_on_c, 0, 97, 50
1, 238800, Note_on_c, 0, 68, 32
1, 238800, Note_on_c, 0, 58, 32
1, 238800, Note_on_c, 0, 62, 32
1, 238835, Control_c, 0, 64, 127
1, 238880, Note_on_c, 0, 97, 0
1, 238880, Note_on_c, 0, 98, 54
1, 238960, Note_on_c, 0, 98, 0
1, 238960, Note_on_c, 0, 89, 50
1, 239040, Tempo, 550459
1, 239040, Note_on_c, 0, 89, 0
1, 239040, Note_on_c, 0, 68, 0
1, 239040, Note_on_c, 0, 58, 0
1, 239040, Note_on_c, 0, 62, 0
1, 239040, Note_on_c, 0, 100, 54
1, 239040, Note_on_c, 0, 39, 35
1, 239120, Note_on_c, 0, 100, 0
1, 239120, Note_on_c, 0, 101, 50
1, 239200, Note_on_c, 0, 101, 0
1, 239200, Note_on_c, 0, 94, 54
1, 239280, Tempo, 566038
1, 239280, Note_on_c, 0, 94, 0
1, 239280, Note_on_c, 0, 39, 0
1, 239280, Note_on_c, 0, 97, 50
1, 239280, Note_on_c, 0, 68, 33
1, 239280, Note_on_c, 0, 62, 33
1, 239280, Note_on_c, 0, 58, 33
1, 239360, Note_on_c, 0, 97, 0
1, 239360, Note_on_c, 0, 98, 55
1, 239440, Note_on_c, 0, 98, 0
1, 239440, Note_on_c, 0, 89, 50
1, 239520, Tempo, 582524
1, 239520, Note_on_c, 0, 89, 0
1, 239520, Note_on_c, 0, 68, 0
1, 239520, Note_on_c, 0, 62, 0
1, 239520, Note_on_c, 0, 58, 0
1, 239520, Note_on_c, 0, 102, 50
1, 239520, Note_on_c, 0, 93, 50
1, 239520, Control_c, 0, 64, 0
1, 239552, Control_c, 0, 64, 127
1, 239580, Note_on_c, 0, 93, 0
1, 239580, Note_on_c, 0, 102, 0
1, 239580, Note_on_c, 0, 94, 55
1, 239580, Note_on_c, 0, 103, 55
1, 239615, Control_c, 0, 64, 0
1, 239700, Note_on_c, 0, 103, 0
1, 239700, Note_on_c, 0, 94, 0
1, 239970, Note_on_c, 0, 58, 32
1, 240000, Tempo, 623377
1, 240000, Note_on_c, 0, 74, 47
1, 240000, Note_on_c, 0, 66, 47
1, 240000, Note_on_c, 0, 39, 33
1, 240000, Control_c, 0, 64, 0
1, 240032, Control_c, 0, 64, 127
1, 240060, Note_on_c, 0, 66, 0
1, 240060, Note_on_c, 0, 74, 0
1, 240060, Note_on_c, 0, 67, 52
1, 240060, Note_on_c, 0, 75, 52
1, 240175, Control_c, 0, 64, 0
1, 240180, Note_on_c, 0, 75, 0
1, 240180, Note_on_c, 0, 67, 0
1, 240450, Note_on_c, 0, 41, 30
1, 240480, Tempo, 766773
1, 240480, Note_on_c, 0, 58, 0
1, 240480, Note_on_c, 0, 39, 0
1, 240480, Note_on_c, 0, 86, 45
1, 240480, Note_on_c, 0, 77, 45
1, 240480, Note_on_c, 0, 56, 33
1, 240480, Control_c, 0, 64, 127
1, 240540, Note_on_c, 0, 77, 0
1, 240540, Note_on_c, 0, 86, 0
1, 240540, Note_on_c, 0, 89, 51
1, 240540, Note_on_c, 0, 80, 51
1, 240580, Control_c, 0, 64, 0
1, 240660, Note_on_c, 0, 80, 0
1, 240660, Note_on_c, 0, 89, 0
1, 240930, Note_on_c, 0, 43, 30
1, 240957, Control_c, 0, 64, 127
1, 240960, Tempo, 866426
1, 240960, Note_on_c, 0, 41, 0
1, 240960, Note_on_c, 0, 56, 0
1, 240960, Note_on_c, 0, 62, 46
1, 240960, Note_on_c, 0, 71, 46
1, 240960, Note_on_c, 0, 59, 33
1, 241020, Note_on_c, 0, 71, 0
1, 241020, Note_on_c, 0, 62, 0
1, 241020, Note_on_c, 0, 65, 52
1, 241020, Note_on_c, 0, 74, 52
1, 241037, Control_c, 0, 64, 0
1, 241140, Note_on_c, 0, 74, 0
1, 241140, Note_on_c, 0, 65, 0
1, 241380, Note_on_c, 0, 43, 0
1, 241380, Note_on_c, 0, 59, 0
1, 241380, Note_on_c, 0, 48, 33
1, 241410, Note_on_c, 0, 55, 33
1, 241440, Note_on_c, 0, 72, 36
1, 241440, Note_on_c, 0, 63, 33
1, 241453, Tempo, 676056
1, 241479, Control_c, 0, 64, 127
1, 241500, Note_on_c, 0, 72, 0
1, 241500, Note_on_c, 0, 74, 33
1, 241503, Tempo, 670391
1, 241554, Tempo, 664820
1, 241560, Note_on_c, 0, 74, 0
1, 241560, Note_on_c, 0, 72, 37
1, 241579, Tempo, 659341
1, 241620, Note_on_c, 0, 72, 0
1, 241620, Note_on_c, 0, 74, 33
1, 241630, Tempo, 653951
1, 241655, Tempo, 648649
1, 241680, Note_on_c, 0, 74, 0
1, 241680, Note_on_c, 0, 72, 37
1, 241705, Tempo, 643432
1, 241731, Tempo, 638298
1, 241740, Note_on_c, 0, 72, 0
1, 241740, Note_on_c, 0, 74, 33
1, 241781, Tempo, 633245
1, 241800, Note_on_c, 0, 74, 0
1, 241800, Note_on_c, 0, 72, 37
1, 241807, Tempo, 628272
1, 241857, Tempo, 623377
1, 241860, Note_on_c, 0, 72, 0
1, 241860, Note_on_c, 0, 74, 33
1, 241882, Tempo, 618557
1, 241920, Tempo, 600000
1, 241920, Note_on_c, 0, 74, 0
1, 241920, Note_on_c, 0, 72, 37
1, 241980, Note_on_c, 0, 72, 0
1, 241980, Note_on_c, 0, 74, 33
1, 242040, Tempo, 609137
1, 242040, Note_on_c, 0, 74, 0
1, 242040, Note_on_c, 0, 72, 37
1, 242100, Note_on_c, 0, 72, 0
1, 242100, Note_on_c, 0, 74, 33
1, 242160, Tempo, 604534
1, 242160, Note_on_c, 0, 74, 0
1, 242160, Note_on_c, 0, 72, 37
1, 242220, Note_on_c, 0, 72, 0
1, 242220, Note_on_c, 0, 74, 33
1, 242280, Tempo, 600000
1, 242280, Note_on_c, 0, 74, 0
1, 242280, Note_on_c, 0, 72, 37
1, 242340, Note_on_c, 0, 72, 0
1, 242340, Note_on_c, 0, 74, 33
1, 242362, Tempo, 613811
1, 242400, Note_on_c, 0, 74, 0
1, 242400, Note_on_c, 0, 63, 0
1, 242400, Note_on_c, 0, 55, 0
1, 242400, Note_on_c, 0, 48, 0
1, 242400, Note_on_c, 0, 71, 38
1, 242409, Control_c, 0, 64, 0
1, 242440, Control_c, 0, 64, 127
1, 242460, Note_on_c, 0, 71, 0
1, 242460, Note_on_c, 0, 72, 33
1, 242520, Note_on_c, 0, 72, 0
1, 242520, Note_on_c, 0, 74, 34
1, 242539, Tempo, 609137
1, 242580, Note_on_c, 0, 74, 0
1, 242580, Note_on_c, 0, 75, 34
1, 242640, Note_on_c, 0, 75, 0
1, 242640, Note_on_c, 0, 74, 41
1, 242691, Tempo, 604534
1, 242700, Note_on_c, 0, 74, 0
1, 242700, Note_on_c, 0, 75, 36
1, 242760, Note_on_c, 0, 75, 0
1, 242760, Note_on_c, 0, 78, 37
1, 242820, Note_on_c, 0, 78, 0
1, 242820, Note_on_c, 0, 79, 44
1, 242842, Tempo, 600000
1, 242880, Note_on_c, 0, 79, 0
1, 242880, Note_on_c, 0, 78, 38
1, 242940, Note_on_c, 0, 78, 0
1, 242940, Note_on_c, 0, 79, 39
1, 243000, Note_on_c, 0, 79, 0
1, 243000, Note_on_c, 0, 83, 39
1, 243019, Tempo, 595533
1, 243060, Note_on_c, 0, 83, 0
1, 243060, Note_on_c, 0, 84, 40
1, 243120, Note_on_c, 0, 84, 0
1, 243120, Note_on_c, 0, 83, 47
1, 243171, Tempo, 591133
1, 243180, Note_on_c, 0, 83, 0
1, 243180, Note_on_c, 0, 84, 42
1, 243240, Note_on_c, 0, 84, 0
1, 243240, Note_on_c, 0, 86, 42
1, 243300, Note_on_c, 0, 86, 0
1, 243300, Note_on_c, 0, 87, 43
1, 243322, Tempo, 586797
1, 243360, Note_on_c, 0, 87, 0
1, 243360, Note_on_c, 0, 86, 51
1, 243420, Note_on_c, 0, 86, 0
1, 243420, Note_on_c, 0, 87, 45
1, 243480, Note_on_c, 0, 87, 0
1, 243480, Note_on_c, 0, 90, 45
1, 243540, Note_on_c, 0, 90, 0
1, 243540, Note_on_c, 0, 91, 54
1, 243600, Note_on_c, 0, 91, 0
1, 243600, Note_on_c, 0, 90, 47
1, 243660, Note_on_c, 0, 90, 0
1, 243660, Note_on_c, 0, 91, 47
1, 243720, Note_on_c, 0, 91, 0
1, 243720, Note_on_c, 0, 95, 48
1, 243780, Note_on_c, 0, 95, 0
1, 243780, Note_on_c, 0, 96, 49
1, 243828, Tempo, 582524
1, 243840, Note_on_c, 0, 96, 0
1, 243840, Note_on_c, 0, 95, 57
1, 243900, Note_on_c, 0, 95, 0
1, 243900, Note_on_c, 0, 96, 50
1, 243954, Tempo, 586797
1, 243960, Note_on_c, 0, 96, 0
1, 243960, Note_on_c, 0, 98, 51
1, 244020, Note_on_c, 0, 98, 0
1, 244020, Note_on_c, 0, 99, 52
1, 244055, Tempo, 591133
1, 244080, Note_on_c, 0, 99, 0
1, 244080, Note_on_c, 0, 98, 61
1, 244140, Note_on_c, 0, 98, 0
1, 244140, Note_on_c, 0, 99, 53
1, 244156, Tempo, 595533
1, 244200, Tempo, 670391
1, 244200, Note_on_c, 0, 99, 0
1, 244200, Note_on_c, 0, 102, 54
1, 244260, Note_on_c, 0, 102, 0
1, 244260, Note_on_c, 0, 103, 65
1, 244320, Tempo, 586797
1, 244320, Note_on_c, 0, 103, 0
1, 244320, Note_on_c, 0, 95, 61
1, 244333, Tempo, 586797
1, 244380, Note_on_c, 0, 95, 0
1, 244380, Note_on_c, 0, 96, 53
1, 244440, Note_on_c, 0, 96, 0
1, 244440, Note_on_c, 0, 98, 53
1, 244459, Tempo, 582524
1, 244500, Note_on_c, 0, 98, 0
1, 244500, Note_on_c, 0, 99, 53
1, 244560, Tempo, 578313
1, 244560, Note_on_c, 0, 99, 0
1, 244560, Note_on_c, 0, 90, 54
1, 244620, Note_on_c, 0, 90, 0
1, 244620, Note_on_c, 0, 91, 48
1, 244680, Note_on_c, 0, 91, 0
1, 244680, Note_on_c, 0, 95, 49
1, 244687, Tempo, 574163
1, 244737, Tempo, 570071
1, 244740, Note_on_c, 0, 95, 0
1, 244740, Note_on_c, 0, 96, 49
1, 244800, Note_on_c, 0, 96, 0
1, 244800, Note_on_c, 0, 86, 51
1, 244838, Tempo, 574163
1, 244860, Note_on_c, 0, 86, 0
1, 244860, Note_on_c, 0, 87, 45
1, 244920, Note_on_c, 0, 87, 0
1, 244920, Note_on_c, 0, 90, 45
1, 244939, Tempo, 578313
1, 244980, Note_on_c, 0, 90, 0
1, 244980, Note_on_c, 0, 91, 45
1, 245040, Tempo, 582524
1, 245040, Note_on_c, 0, 91, 0
1, 245040, Note_on_c, 0, 83, 47
1, 245100, Note_on_c, 0, 83, 0
1, 245100, Note_on_c, 0, 84, 42
1, 245116, Tempo, 586797
1, 245160, Tempo, 648649
1, 245160, Note_on_c, 0, 84, 0
1, 245160, Note_on_c, 0, 86, 42
1, 245220, Note_on_c, 0, 86, 0
1, 245220, Note_on_c, 0, 87, 43
1, 245280, Tempo, 586797
1, 245280, Note_on_c, 0, 87, 0
1, 245280, Note_on_c, 0, 78, 44
1, 245340, Note_on_c, 0, 78, 0
1, 245340, Note_on_c, 0, 79, 39
1, 245400, Note_on_c, 0, 79, 0
1, 245400, Note_on_c, 0, 83, 40
1, 245460, Note_on_c, 0, 83, 0
1, 245460, Note_on_c, 0, 84, 40
1, 245520, Note_on_c, 0, 84, 0
1, 245520, Note_on_c, 0, 74, 40
1, 245580, Note_on_c, 0, 74, 0
1, 245580, Note_on_c, 0, 75, 36
1, 245640, Tempo, 659341
1, 245640, Note_on_c, 0, 75, 0
1, 245640, Note_on_c, 0, 78, 37
1, 245700, Note_on_c, 0, 78, 0
1, 245700, Note_on_c, 0, 79, 36
1, 245760, Tempo, 586797
1, 245760, Note_on_c, 0, 79, 0
1, 245760, Note_on_c, 0, 71, 41
1, 245773, Tempo, 586797
1, 245820, Note_on_c, 0, 71, 0
1, 245820, Note_on_c, 0, 72, 38
1, 245874, Tempo, 582524
1, 245880, Note_on_c, 0, 72, 0
1, 245880, Note_on_c, 0, 74, 40
1, 245940, Note_on_c, 0, 74, 0
1, 245940, Note_on_c, 0, 75, 41
1, 245975, Tempo, 578313
1, 246000, Note_on_c, 0, 75, 0
1, 246000, Note_on_c, 0, 66, 43
1, 246051, Tempo, 574163
1, 246060, Note_on_c, 0, 66, 0
1, 246060, Note_on_c, 0, 67, 44
1, 246120, Note_on_c, 0, 67, 0
1, 246120, Note_on_c, 0, 71, 46
1, 246152, Tempo, 570071
1, 246180, Note_on_c, 0, 71, 0
1, 246180, Note_on_c, 0, 72, 47
1, 246228, Tempo, 566038
1, 246240, Note_on_c, 0, 72, 0
1, 246240, Note_on_c, 0, 71, 49
1, 246278, Tempo, 570071
1, 246300, Note_on_c, 0, 71, 0
1, 246300, Note_on_c, 0, 72, 49
1, 246329, Tempo, 574163
1, 246360, Note_on_c, 0, 72, 0
1, 246360, Note_on_c, 0, 74, 51
1, 246379, Tempo, 578313
1, 246420, Note_on_c, 0, 74, 0
1, 246420, Note_on_c, 0, 75, 53
1, 246430, Tempo, 582524
1, 246480, Tempo, 586797
1, 246480, Note_on_c, 0, 75, 0
1, 246480, Note_on_c, 0, 74, 55
1, 246531, Tempo, 591133
1, 246540, Note_on_c, 0, 74, 0
1, 246540, Note_on_c, 0, 75, 57
1, 246556, Tempo, 595533
1, 246600, Tempo, 664820
1, 246600, Note_on_c, 0, 75, 0
1, 246600, Note_on_c, 0, 78, 59
1, 246660, Note_on_c, 0, 78, 0
1, 246660, Note_on_c, 0, 79, 61
1, 246682, Tempo, 586797
1, 246720, Note_on_c, 0, 79, 0
1, 246720, Note_on_c, 0, 71, 41
1, 246780, Note_on_c, 0, 71, 0
1, 246780, Note_on_c, 0, 72, 38
1, 246809, Tempo, 582524
1, 246840, Note_on_c, 0, 72, 0
1, 246840, Note_on_c, 0, 74, 40
1, 246900, Note_on_c, 0, 74, 0
1, 246900, Note_on_c, 0, 75, 41
1, 246910, Tempo, 578313
1, 246960, Note_on_c, 0, 75, 0
1, 246960, Note_on_c, 0, 66, 43
1, 246969, Control_c, 0, 64, 0
1, 247011, Tempo, 574163
1, 247020, Note_on_c, 0, 66, 0
1, 247020, Note_on_c, 0, 67, 44
1, 247080, Note_on_c, 0, 67, 0
1, 247080, Note_on_c, 0, 71, 46
1, 247112, Tempo, 570071
1, 247140, Note_on_c, 0, 71, 0
1, 247140, Note_on_c, 0, 72, 47
1, 247200, Time_signature, 3, 2, 24, 8
1, 247200, Note_on_c, 0, 72, 0
1, 247200, Note_on_c, 0, 71, 49
1, 247213, Tempo, 566038
1, 247260, Note_on_c, 0, 71, 0
1, 247260, Note_on_c, 0, 72, 49
1, 247263, Tempo, 570071
1, 247314, Tempo, 574163
1, 247320, Note_on_c, 0, 72, 0
1, 247320, Note_on_c, 0, 74, 51
1, 247364, Tempo, 578313
1, 247380, Note_on_c, 0, 74, 0
1, 247380, Note_on_c, 0, 75, 53
1, 247415, Tempo, 582524
1, 247440, Note_on_c, 0, 75, 0
1, 247440, Note_on_c, 0, 74, 55
1, 247465, Tempo, 586797
1, 247500, Note_on_c, 0, 74, 0
1, 247500, Note_on_c, 0, 75, 57
1, 247516, Tempo, 591133
1, 247560, Tempo, 653951
1, 247560, Note_on_c, 0, 75, 0
1, 247560, Note_on_c, 0, 78, 59
1, 247620, Note_on_c, 0, 78, 0
1, 247620, Note_on_c, 0, 79, 61
1, 247680, Tempo, 582524
1, 247680, Note_on_c, 0, 79, 0
1, 247680, Note_on_c, 0, 71, 54
1, 247740, Note_on_c, 0, 71, 0
1, 247740, Note_on_c, 0, 72, 49
1, 247800, Note_on_c, 0, 72, 0
1, 247800, Note_on_c, 0, 74, 47
1, 247860, Note_on_c, 0, 74, 0
1, 247860, Note_on_c, 0, 75, 47
1, 247920, Note_on_c, 0, 75, 0
1, 247920, Note_on_c, 0, 66, 47
1, 247980, Note_on_c, 0, 66, 0
1, 247980, Note_on_c, 0, 67, 53
1, 248040, Note_on_c, 0, 67, 0
1, 248040, Note_on_c, 0, 71, 45
1, 248097, Tempo, 582524
1, 248100, Note_on_c, 0, 71, 0
1, 248100, Note_on_c, 0, 72, 45
1, 248160, Note_on_c, 0, 72, 0
1, 248160, Note_on_c, 0, 62, 50
1, 248220, Note_on_c, 0, 62, 0
1, 248220, Note_on_c, 0, 63, 41
1, 248249, Tempo, 586797
1, 248280, Note_on_c, 0, 63, 0
1, 248280, Note_on_c, 0, 66, 41
1, 248340, Note_on_c, 0, 66, 0
1, 248340, Note_on_c, 0, 67, 41
1, 248400, Tempo, 591133
1, 248400, Note_on_c, 0, 67, 0
1, 248400, Note_on_c, 0, 66, 46
1, 248460, Note_on_c, 0, 66, 0
1, 248460, Note_on_c, 0, 67, 43
1, 248520, Note_on_c, 0, 67, 0
1, 248520, Note_on_c, 0, 71, 43
1, 248552, Tempo, 595533
1, 248580, Note_on_c, 0, 71, 0
1, 248580, Note_on_c, 0, 72, 43
1, 248640, Time_signature, 2, 2, 24, 8
1, 248640, Tempo, 821918
1, 248640, Note_on_c, 0, 72, 0
1, 248640, Note_on_c, 0, 44, 43
1, 248666, Control_c, 0, 64, 0
1, 248670, Note_on_c, 0, 53, 43
1, 248686, Control_c, 0, 64, 127
1, 248700, Note_on_c, 0, 60, 43
1, 248730, Note_on_c, 0, 65, 43
1, 248760, Tempo, 948617
1, 248760, Note_on_c, 0, 72, 43
1, 248790, Note_on_c, 0, 77, 43
1, 248820, Tempo, 1863354
1, 248880, Tempo, 574163
1, 248880, Note_on_c, 0, 77, 0
1, 248880, Note_on_c, 0, 76, 43
1, 248956, Tempo, 570071
1, 248960, Note_on_c, 0, 76, 0
1, 248960, Note_on_c, 0, 77, 42
1, 249007, Tempo, 566038
1, 249040, Note_on_c, 0, 77, 0
1, 249040, Note_on_c, 0, 79, 43
1, 249057, Tempo, 562061
1, 249108, Tempo, 558140
1, 249120, Note_on_c, 0, 79, 0
1, 249120, Note_on_c, 0, 72, 0
1, 249120, Note_on_c, 0, 60, 0
1, 249120, Note_on_c, 0, 44, 0
1, 249120, Note_on_c, 0, 53, 0
1, 249120, Note_on_c, 0, 65, 0
1, 249120, Note_on_c, 0, 77, 48
1, 249158, Tempo, 554273
1, 249180, Note_on_c, 0, 77, 0
1, 249180, Note_on_c, 0, 79, 43
1, 249209, Tempo, 550459
1, 249240, Note_on_c, 0, 79, 0
1, 249240, Note_on_c, 0, 77, 47
1, 249259, Tempo, 546697
1, 249300, Note_on_c, 0, 77, 0
1, 249300, Note_on_c, 0, 79, 43
1, 249360, Note_on_c, 0, 79, 0
1, 249360, Note_on_c, 0, 77, 47
1, 249420, Note_on_c, 0, 77, 0
1, 249420, Note_on_c, 0, 79, 43
1, 249480, Note_on_c, 0, 79, 0
1, 249480, Note_on_c, 0, 77, 50
1, 249540, Note_on_c, 0, 77, 0
1, 249540, Note_on_c, 0, 79, 43
1, 249600, Note_on_c, 0, 79, 0
1, 249600, Note_on_c, 0, 77, 49
1, 249613, Tempo, 539326
1, 249660, Note_on_c, 0, 77, 0
1, 249660, Note_on_c, 0, 79, 43
1, 249689, Tempo, 542986
1, 249720, Note_on_c, 0, 79, 0
1, 249720, Note_on_c, 0, 77, 48
1, 249739, Tempo, 546697
1, 249780, Note_on_c, 0, 77, 0
1, 249780, Note_on_c, 0, 79, 43
1, 249815, Tempo, 550459
1, 249840, Note_on_c, 0, 79, 0
1, 249840, Note_on_c, 0, 77, 46
1, 249865, Tempo, 554273
1, 249900, Note_on_c, 0, 77, 0
1, 249900, Note_on_c, 0, 79, 43
1, 249941, Tempo, 558140
1, 249960, Note_on_c, 0, 79, 0
1, 249960, Note_on_c, 0, 77, 49
1, 249992, Tempo, 562061
1, 250020, Note_on_c, 0, 77, 0
1, 250020, Note_on_c, 0, 79, 43
1, 250042, Tempo, 566038
1, 250080, Tempo, 574163
1, 250080, Note_on_c, 0, 79, 0
1, 250080, Note_on_c, 0, 76, 47
1, 250320, Note_on_c, 0, 76, 0
1, 250320, Note_on_c, 0, 77, 47
1, 250560, Time_signature, 5, 3, 12, 8
1, 250560, Tempo, 755192
1, 250560, Note_on_c, 0, 77, 0
1, 250560, Note_on_c, 0, 86, 58
1, 250608, Tempo, 762389
1, 250640, Tempo, 769724
1, 250641, Note_on_c, 0, 86, 0
1, 250641, Note_on_c, 0, 85, 56
1, 250688, Tempo, 777202
1, 250720, Tempo, 784827
1, 250720, Note_on_c, 0, 84, 55
1, 250721, Note_on_c, 0, 85, 0
1, 250768, Tempo, 792602
1, 250800, Tempo, 800534
1, 250800, Note_on_c, 0, 83, 54
1, 250801, Note_on_c, 0, 84, 0
1, 250848, Tempo, 808625
1, 250880, Tempo, 816882
1, 250880, Note_on_c, 0, 83, 0
1, 250880, Note_on_c, 0, 82, 53
1, 250928, Tempo, 825309
1, 250960, Tempo, 833912
1, 250960, Note_on_c, 0, 82, 0
1, 250960, Note_on_c, 0, 81, 52
1, 251008, Tempo, 842697
1, 251040, Tempo, 851668
1, 251040, Note_on_c, 0, 81, 0
1, 251042, Note_on_c, 0, 80, 51
1, 251088, Tempo, 860832
1, 251120, Tempo, 870196
1, 251120, Note_on_c, 0, 79, 50
1, 251122, Note_on_c, 0, 80, 0
1, 251168, Tempo, 879765
1, 251200, Tempo, 889548
1, 251201, Note_on_c, 0, 79, 0
1, 251203, Note_on_c, 0, 78, 49
1, 251248, Tempo, 899550
1, 251280, Tempo, 1034483
1, 251280, Note_on_c, 0, 77, 49
1, 251283, Note_on_c, 0, 78, 0
1, 251289, Control_c, 0, 64, 0
1, 251360, Tempo, 1176471
1, 251360, Note_on_c, 0, 77, 0
1, 251360, Note_on_c, 0, 71, 48
1, 251440, Note_on_c, 0, 71, 0
1, 251440, Note_on_c, 0, 72, 46
1, 251496, Tempo, 1456311
1, 251520, Note_on_c, 0, 72, 0
1, 251520, Note_on_c, 0, 77, 45
1, 251528, Tempo, 1483313
1, 251544, Tempo, 1511335
1, 251560, Tempo, 1540436
1, 251592, Tempo, 1570681
1, 251600, Note_on_c, 0, 77, 0
1, 251600, Note_on_c, 0, 76, 44
1, 251608, Tempo, 1602136
1, 251624, Tempo, 1634877
1, 251656, Tempo, 1668985
1, 251672, Tempo, 1704545
1, 251680, Tempo, 2500000
1, 251680, Note_on_c, 0, 76, 0
1, 251680, Note_on_c, 0, 75, 43
1, 251710, Note_on_c, 0, 75, 0
1, 251720, Note_on_c, 0, 75, 43
1, 251744, Tempo, 1602136
1, 251760, Time_signature, 2, 2, 24, 8
1, 251760, Tempo, 1206030
1, 251760, Note_on_c, 0, 75, 0
1, 251760, Note_on_c, 0, 46, 37
1, 251788, Control_c, 0, 64, 0
1, 251790, Note_on_c, 0, 53, 38
1, 251820, Note_on_c, 0, 58, 39
1, 251850, Note_on_c, 0, 62, 47
1, 251863, Control_c, 0, 64, 127
1, 251880, Tempo, 1655172
1, 251880, Note_on_c, 0, 68, 49
1, 251910, Note_on_c, 0, 74, 51
1, 252480, Tempo, 1021277
1, 252480, Note_on_c, 0, 74, 0
1, 252480, Note_on_c, 0, 53, 0
1, 252480, Note_on_c, 0, 58, 0
1, 252480, Note_on_c, 0, 46, 0
1, 252480, Note_on_c, 0, 68, 0
1, 252480, Note_on_c, 0, 62, 0
1, 252480, Note_on_c, 0, 62, 46
1, 252480, Note_on_c, 0, 34, 35
1, 252484, Control_c, 0, 64, 0
1, 252510, Note_on_c, 0, 68, 50
1, 252540, Note_on_c, 0, 77, 58
1, 252570, Note_on_c, 0, 77, 0
1, 252570, Note_on_c, 0, 62, 0
1, 252570, Note_on_c, 0, 34, 0
1, 252570, Note_on_c, 0, 68, 0
1, 252720, Tempo, 653951
1, 252720, Note_on_c, 0, 75, 56
1, 252720, Note_on_c, 0, 67, 47
1, 252720, Note_on_c, 0, 39, 43
1, 252780, Note_on_c, 0, 39, 0
1, 252780, Note_on_c, 0, 67, 0
1, 252780, Note_on_c, 0, 75, 0
1, 252840, Note_on_c, 0, 77, 49
1, 252840, Note_on_c, 0, 70, 41
1, 252900, Note_on_c, 0, 70, 0
1, 252900, Note_on_c, 0, 77, 0
1, 252960, Note_on_c, 0, 79, 50
1, 252960, Note_on_c, 0, 75, 42
1, 252960, Note_on_c, 0, 46, 46
1, 253020, Note_on_c, 0, 46, 0
1, 253020, Note_on_c, 0, 75, 0
1, 253020, Note_on_c, 0, 79, 0
1, 253080, Tempo, 699708
1, 253080, Note_on_c, 0, 80, 44
1, 253080, Note_on_c, 0, 77, 37
1, 253140, Note_on_c, 0, 77, 0
1, 253140, Note_on_c, 0, 80, 0
1, 253170, Note_on_c, 0, 84, 56
1, 253200, Tempo, 653951
1, 253200, Note_on_c, 0, 84, 0
1, 253200, Note_on_c, 0, 82, 50
1, 253200, Note_on_c, 0, 79, 42
1, 253200, Note_on_c, 0, 55, 51
1, 253260, Note_on_c, 0, 55, 0
1, 253260, Note_on_c, 0, 79, 0
1, 253260, Note_on_c, 0, 82, 0
1, 253380, Note_on_c, 0, 81, 45
1, 253380, Note_on_c, 0, 78, 38
1, 253440, Note_on_c, 0, 78, 0
1, 253440, Note_on_c, 0, 81, 0
1, 253440, Note_on_c, 0, 82, 59
1, 253440, Note_on_c, 0, 79, 50
1, 253440, Note_on_c, 0, 63, 68
1, 253500, Note_on_c, 0, 63, 0
1, 253500, Note_on_c, 0, 79, 0
1, 253500, Note_on_c, 0, 82, 0
1, 253680, Tempo, 633245
1, 253680, Note_on_c, 0, 56, 68
1, 253740, Note_on_c, 0, 56, 0
1, 253800, Note_on_c, 0, 63, 51
1, 253800, Note_on_c, 0, 72, 51
1, 253860, Note_on_c, 0, 72, 0
1, 253860, Note_on_c, 0, 63, 0
1, 253920, Tempo, 659341
1, 253920, Note_on_c, 0, 72, 44
1, 253920, Note_on_c, 0, 68, 37
1, 253980, Note_on_c, 0, 68, 0
1, 253980, Note_on_c, 0, 72, 0
1, 254040, Note_on_c, 0, 75, 43
1, 254040, Note_on_c, 0, 84, 51
1, 254100, Tempo, 591133
1, 254100, Note_on_c, 0, 84, 0
1, 254100, Note_on_c, 0, 75, 0
1, 254160, Tempo, 664820
1, 254160, Note_on_c, 0, 84, 60
1, 254160, Note_on_c, 0, 75, 51
1, 254220, Note_on_c, 0, 75, 0
1, 254220, Note_on_c, 0, 84, 0
1, 254280, Tempo, 628272
1, 254280, Note_on_c, 0, 79, 55
1, 254280, Note_on_c, 0, 83, 55
1, 254340, Note_on_c, 0, 83, 0
1, 254340, Note_on_c, 0, 79, 0
1, 254400, Note_on_c, 0, 80, 54
1, 254400, Note_on_c, 0, 84, 64
1, 254460, Note_on_c, 0, 84, 0
1, 254460, Note_on_c, 0, 80, 0
1, 254520, Tempo, 705882
1, 254640, Tempo, 633245
1, 254640, Note_on_c, 0, 55, 68
1, 254700, Note_on_c, 0, 55, 0
1, 254760, Note_on_c, 0, 63, 51
1, 254760, Note_on_c, 0, 70, 51
1, 254820, Note_on_c, 0, 70, 0
1, 254820, Note_on_c, 0, 63, 0
1, 254880, Tempo, 659341
1, 254880, Note_on_c, 0, 70, 44
1, 254880, Note_on_c, 0, 67, 37
1, 254940, Note_on_c, 0, 67, 0
1, 254940, Note_on_c, 0, 70, 0
1, 255000, Note_on_c, 0, 75, 43
1, 255000, Note_on_c, 0, 82, 51
1, 255060, Tempo, 591133
1, 255060, Note_on_c, 0, 82, 0
1, 255060, Note_on_c, 0, 75, 0
1, 255120, Tempo, 664820
1, 255120, Note_on_c, 0, 82, 60
1, 255120, Note_on_c, 0, 75, 51
1, 255180, Note_on_c, 0, 75, 0
1, 255180, Note_on_c, 0, 82, 0
1, 255240, Tempo, 628272
1, 255240, Note_on_c, 0, 78, 55
1, 255240, Note_on_c, 0, 81, 55
1, 255300, Note_on_c, 0, 81, 0
1, 255300, Note_on_c, 0, 78, 0
1, 255360, Note_on_c, 0, 79, 54
1, 255360, Note_on_c, 0, 82, 64
1, 255420, Note_on_c, 0, 82, 0
1, 255420, Note_on_c, 0, 79, 0
1, 255480, Tempo, 705882
1, 255600, Tempo, 633245
1, 255600, Note_on_c, 0, 53, 68
1, 255660, Note_on_c, 0, 53, 0
1, 255720, Note_on_c, 0, 62, 51
1, 255720, Note_on_c, 0, 68, 51
1, 255780, Note_on_c, 0, 68, 0
1, 255780, Note_on_c, 0, 62, 0
1, 255840, Tempo, 659341
1, 255840, Note_on_c, 0, 68, 44
1, 255840, Note_on_c, 0, 65, 37
1, 255900, Note_on_c, 0, 65, 0
1, 255900, Note_on_c, 0, 68, 0
1, 255960, Note_on_c, 0, 74, 43
1, 255960, Note_on_c, 0, 80, 51
1, 256020, Tempo, 591133
1, 256020, Note_on_c, 0, 80, 0
1, 256020, Note_on_c, 0, 74, 0
1, 256080, Tempo, 664820
1, 256080, Note_on_c, 0, 80, 60
1, 256080, Note_on_c, 0, 74, 51
1, 256140, Note_on_c, 0, 74, 0
1, 256140, Note_on_c, 0, 80, 0
1, 256200, Tempo, 628272
1, 256200, Note_on_c, 0, 76, 55
1, 256200, Note_on_c, 0, 79, 55
1, 256260, Note_on_c, 0, 79, 0
1, 256260, Note_on_c, 0, 76, 0
1, 256320, Note_on_c, 0, 77, 54
1, 256320, Note_on_c, 0, 80, 64
1, 256380, Note_on_c, 0, 80, 0
1, 256380, Note_on_c, 0, 77, 0
1, 256440, Tempo, 705882
1, 256560, Tempo, 640000
1, 256560, Note_on_c, 0, 51, 68
1, 256620, Note_on_c, 0, 51, 0
1, 256680, Note_on_c, 0, 63, 51
1, 256680, Note_on_c, 0, 67, 51
1, 256740, Note_on_c, 0, 67, 0
1, 256740, Note_on_c, 0, 63, 0
1, 256800, Tempo, 659341
1, 256800, Note_on_c, 0, 67, 44
1, 256800, Note_on_c, 0, 63, 37
1, 256860, Note_on_c, 0, 63, 0
1, 256860, Note_on_c, 0, 67, 0
1, 256920, Note_on_c, 0, 75, 43
1, 256920, Note_on_c, 0, 79, 51
1, 256980, Tempo, 591133
1, 256980, Note_on_c, 0, 79, 0
1, 256980, Note_on_c, 0, 75, 0
1, 257040, Tempo, 664820
1, 257040, Note_on_c, 0, 79, 60
1, 257040, Note_on_c, 0, 75, 51
1, 257100, Note_on_c, 0, 75, 0
1, 257100, Note_on_c, 0, 79, 0
1, 257160, Tempo, 628272
1, 257160, Note_on_c, 0, 74, 55
1, 257160, Note_on_c, 0, 78, 55
1, 257220, Note_on_c, 0, 78, 0
1, 257220, Note_on_c, 0, 74, 0
1, 257280, Note_on_c, 0, 75, 54
1, 257280, Note_on_c, 0, 79, 64
1, 257340, Note_on_c, 0, 79, 0
1, 257340, Note_on_c, 0, 75, 0
1, 257400, Tempo, 705882
1, 257520, Tempo, 670391
1, 257520, Note_on_c, 0, 80, 52
1, 257520, Note_on_c, 0, 72, 44
1, 257520, Note_on_c, 0, 46, 48
1, 257580, Note_on_c, 0, 46, 0
1, 257580, Note_on_c, 0, 72, 0
1, 257580, Note_on_c, 0, 80, 0
1, 257640, Note_on_c, 0, 79, 47
1, 257640, Note_on_c, 0, 70, 39
1, 257700, Note_on_c, 0, 70, 0
1, 257700, Note_on_c, 0, 79, 0
1, 257760, Note_on_c, 0, 77, 47
1, 257760, Note_on_c, 0, 68, 39
1, 257760, Note_on_c, 0, 62, 42
1, 257820, Note_on_c, 0, 62, 0
1, 257820, Note_on_c, 0, 68, 0
1, 257820, Note_on_c, 0, 77, 0
1, 257880, Tempo, 699708
1, 257880, Note_on_c, 0, 75, 47
1, 257880, Note_on_c, 0, 67, 39
1, 257940, Note_on_c, 0, 67, 0
1, 257940, Note_on_c, 0, 75, 0
1, 258000, Tempo, 670391
1, 258000, Note_on_c, 0, 74, 52
1, 258000, Note_on_c, 0, 65, 44
1, 258000, Note_on_c, 0, 46, 47
1, 258060, Note_on_c, 0, 46, 0
1, 258060, Note_on_c, 0, 65, 0
1, 258060, Note_on_c, 0, 74, 0
1, 258120, Note_on_c, 0, 70, 45
1, 258120, Note_on_c, 0, 62, 38
1, 258180, Note_on_c, 0, 62, 0
1, 258180, Note_on_c, 0, 70, 0
1, 258240, Tempo, 712166
1, 258240, Note_on_c, 0, 72, 45
1, 258240, Note_on_c, 0, 63, 38
1, 258240, Note_on_c, 0, 56, 40
1, 258300, Note_on_c, 0, 56, 0
1, 258300, Note_on_c, 0, 63, 0
1, 258300, Note_on_c, 0, 72, 0
1, 258360, Note_on_c, 0, 74, 45
1, 258360, Note_on_c, 0, 65, 38
1, 258420, Note_on_c, 0, 65, 0
1, 258420, Note_on_c, 0, 74, 0
1, 258480, Tempo, 653951
1, 258480, Note_on_c, 0, 75, 56
1, 258480, Note_on_c, 0, 67, 47
1, 258480, Note_on_c, 0, 39, 43
1, 258540, Note_on_c, 0, 39, 0
1, 258540, Note_on_c, 0, 67, 0
1, 258540, Note_on_c, 0, 75, 0
1, 258600, Note_on_c, 0, 77, 49
1, 258600, Note_on_c, 0, 70, 41
1, 258660, Note_on_c, 0, 70, 0
1, 258660, Note_on_c, 0, 77, 0
1, 258720, Note_on_c, 0, 79, 50
1, 258720, Note_on_c, 0, 75, 42
1, 258720, Note_on_c, 0, 46, 46
1, 258780, Note_on_c, 0, 46, 0
1, 258780, Note_on_c, 0, 75, 0
1, 258780, Note_on_c, 0, 79, 0
1, 258840, Tempo, 699708
1, 258840, Note_on_c, 0, 80, 44
1, 258840, Note_on_c, 0, 77, 37
1, 258900, Note_on_c, 0, 77, 0
1, 258900, Note_on_c, 0, 80, 0
1, 258930, Note_on_c, 0, 84, 56
1, 258960, Tempo, 653951
1, 258960, Note_on_c, 0, 84, 0
1, 258960, Note_on_c, 0, 82, 50
1, 258960, Note_on_c, 0, 79, 42
1, 258960, Note_on_c, 0, 55, 51
1, 259020, Note_on_c, 0, 55, 0
1, 259020, Note_on_c, 0, 79, 0
1, 259020, Note_on_c, 0, 82, 0
1, 259080, Note_on_c, 0, 78, 38
1, 259080, Note_on_c, 0, 81, 45
1, 259140, Note_on_c, 0, 81, 0
1, 259140, Note_on_c, 0, 78, 0
1, 259200, Note_on_c, 0, 82, 59
1, 259200, Note_on_c, 0, 79, 50
1, 259200, Note_on_c, 0, 63, 68
1, 259260, Note_on_c, 0, 63, 0
1, 259260, Note_on_c, 0, 79, 0
1, 259260, Note_on_c, 0, 82, 0
1, 259440, Tempo, 645161
1, 259440, Note_on_c, 0, 68, 68
1, 259500, Note_on_c, 0, 68, 0
1, 259560, Note_on_c, 0, 75, 51
1, 259560, Note_on_c, 0, 84, 51
1, 259620, Note_on_c, 0, 84, 0
1, 259620, Note_on_c, 0, 75, 0
1, 259680, Tempo, 591191
1, 259680, Note_on_c, 0, 84, 44
1, 259680, Note_on_c, 0, 80, 37
1, 259740, Note_on_c, 0, 80, 0
1, 259740, Note_on_c, 0, 84, 0
1, 259800, Tempo, 585423
1, 259800, Note_on_c, 0, 87, 43
1, 259800, Note_on_c, 0, 96, 51
1, 259860, Note_on_c, 0, 96, 0
1, 259860, Note_on_c, 0, 87, 0
1, 259920, Tempo, 664820
1, 259920, Note_on_c, 0, 96, 60
1, 259920, Note_on_c, 0, 87, 51
1, 259980, Note_on_c, 0, 87, 0
1, 259980, Note_on_c, 0, 96, 0
1, 260040, Tempo, 625000
1, 260040, Note_on_c, 0, 91, 55
1, 260040, Note_on_c, 0, 95, 55
1, 260100, Note_on_c, 0, 95, 0
1, 260100, Note_on_c, 0, 91, 0
1, 260160, Note_on_c, 0, 92, 54
1, 260160, Note_on_c, 0, 96, 64
1, 260220, Note_on_c, 0, 96, 0
1, 260220, Note_on_c, 0, 92, 0
1, 260280, Tempo, 705882
1, 260400, Tempo, 659341
1, 260400, Note_on_c, 0, 67, 68
1, 260460, Note_on_c, 0, 67, 0
1, 260520, Note_on_c, 0, 75, 51
1, 260520, Note_on_c, 0, 82, 51
1, 260580, Note_on_c, 0, 82, 0
1, 260580, Note_on_c, 0, 75, 0
1, 260640, Tempo, 585423
1, 260640, Note_on_c, 0, 82, 44
1, 260640, Note_on_c, 0, 79, 37
1, 260700, Note_on_c, 0, 79, 0
1, 260700, Note_on_c, 0, 82, 0
1, 260760, Note_on_c, 0, 87, 43
1, 260760, Note_on_c, 0, 94, 51
1, 260820, Note_on_c, 0, 94, 0
1, 260820, Note_on_c, 0, 87, 0
1, 260880, Tempo, 664820
1, 260880, Note_on_c, 0, 94, 60
1, 260880, Note_on_c, 0, 87, 51
1, 260940, Note_on_c, 0, 87, 0
1, 260940, Note_on_c, 0, 94, 0
1, 261000, Tempo, 618557
1, 261000, Note_on_c, 0, 90, 55
1, 261000, Note_on_c, 0, 93, 55
1, 261060, Note_on_c, 0, 93, 0
1, 261060, Note_on_c, 0, 90, 0
1, 261120, Note_on_c, 0, 91, 54
1, 261120, Note_on_c, 0, 94, 64
1, 261180, Note_on_c, 0, 94, 0
1, 261180, Note_on_c, 0, 91, 0
1, 261240, Tempo, 705882
1, 261360, Tempo, 645161
1, 261360, Note_on_c, 0, 65, 68
1, 261420, Note_on_c, 0, 65, 0
1, 261480, Note_on_c, 0, 74, 51
1, 261480, Note_on_c, 0, 80, 51
1, 261540, Note_on_c, 0, 80, 0
1, 261540, Note_on_c, 0, 74, 0
1, 261600, Tempo, 588293
1, 261600, Note_on_c, 0, 80, 44
1, 261600, Note_on_c, 0, 77, 37
1, 261660, Note_on_c, 0, 77, 0
1, 261660, Note_on_c, 0, 80, 0
1, 261720, Note_on_c, 0, 86, 43
1, 261720, Note_on_c, 0, 92, 51
1, 261780, Note_on_c, 0, 92, 0
1, 261780, Note_on_c, 0, 86, 0
1, 261840, Tempo, 664820
1, 261840, Note_on_c, 0, 92, 60
1, 261840, Note_on_c, 0, 86, 51
1, 261900, Note_on_c, 0, 86, 0
1, 261900, Note_on_c, 0, 92, 0
1, 261960, Tempo, 628272
1, 261960, Note_on_c, 0, 88, 55
1, 261960, Note_on_c, 0, 91, 55
1, 262020, Note_on_c, 0, 91, 0
1, 262020, Note_on_c, 0, 88, 0
1, 262080, Note_on_c, 0, 89, 54
1, 262080, Note_on_c, 0, 92, 64
1, 262140, Note_on_c, 0, 92, 0
1, 262140, Note_on_c, 0, 89, 0
1, 262200, Tempo, 705882
1, 262320, Tempo, 645161
1, 262320, Note_on_c, 0, 63, 68
1, 262380, Note_on_c, 0, 63, 0
1, 262440, Note_on_c, 0, 75, 51
1, 262440, Note_on_c, 0, 79, 51
1, 262500, Note_on_c, 0, 79, 0
1, 262500, Note_on_c, 0, 75, 0
1, 262560, Tempo, 588293
1, 262560, Note_on_c, 0, 79, 44
1, 262560, Note_on_c, 0, 75, 37
1, 262620, Note_on_c, 0, 75, 0
1, 262620, Note_on_c, 0, 79, 0
1, 262680, Note_on_c, 0, 87, 43
1, 262680, Note_on_c, 0, 91, 51
1, 262740, Note_on_c, 0, 91, 0
1, 262740, Note_on_c, 0, 87, 0
1, 262800, Tempo, 664820
1, 262800, Note_on_c, 0, 91, 60
1, 262800, Note_on_c, 0, 87, 51
1, 262860, Note_on_c, 0, 87, 0
1, 262860, Note_on_c, 0, 91, 0
1, 262920, Tempo, 628272
1, 262920, Note_on_c, 0, 86, 55
1, 262920, Note_on_c, 0, 90, 55
1, 262980, Note_on_c, 0, 90, 0
1, 262980, Note_on_c, 0, 86, 0
1, 263040, Note_on_c, 0, 87, 54
1, 263040, Note_on_c, 0, 91, 64
1, 263100, Note_on_c, 0, 91, 0
1, 263100, Note_on_c, 0, 87, 0
1, 263160, Tempo, 705882
1, 263280, Tempo, 645161
1, 263280, Note_on_c, 0, 92, 52
1, 263280, Note_on_c, 0, 84, 44
1, 263280, Note_on_c, 0, 58, 48
1, 263340, Note_on_c, 0, 58, 0
1, 263340, Note_on_c, 0, 84, 0
1, 263340, Note_on_c, 0, 92, 0
1, 263400, Note_on_c, 0, 91, 47
1, 263400, Note_on_c, 0, 82, 39
1, 263460, Note_on_c, 0, 82, 0
1, 263460, Note_on_c, 0, 91, 0
1, 263520, Note_on_c, 0, 89, 47
1, 263520, Note_on_c, 0, 80, 39
1, 263520, Note_on_c, 0, 74, 42
1, 263580, Note_on_c, 0, 74, 0
1, 263580, Note_on_c, 0, 80, 0
1, 263580, Note_on_c, 0, 89, 0
1, 263640, Tempo, 699708
1, 263640, Note_on_c, 0, 87, 47
1, 263640, Note_on_c, 0, 79, 39
1, 263700, Note_on_c, 0, 79, 0
1, 263700, Note_on_c, 0, 87, 0
1, 263760, Tempo, 643432
1, 263760, Note_on_c, 0, 86, 52
1, 263760, Note_on_c, 0, 77, 44
1, 263760, Note_on_c, 0, 58, 47
1, 263820, Note_on_c, 0, 58, 0
1, 263820, Note_on_c, 0, 77, 0
1, 263820, Note_on_c, 0, 86, 0
1, 263880, Note_on_c, 0, 82, 45
1, 263880, Note_on_c, 0, 74, 38
1, 263940, Note_on_c, 0, 74, 0
1, 263940, Note_on_c, 0, 82, 0
1, 264000, Tempo, 679887
1, 264000, Note_on_c, 0, 84, 45
1, 264000, Note_on_c, 0, 75, 38
1, 264000, Note_on_c, 0, 68, 40
1, 264060, Note_on_c, 0, 68, 0
1, 264060, Note_on_c, 0, 75, 0
1, 264060, Note_on_c, 0, 84, 0
1, 264120, Note_on_c, 0, 86, 45
1, 264120, Note_on_c, 0, 77, 38
1, 264180, Note_on_c, 0, 77, 0
1, 264180, Note_on_c, 0, 86, 0
1, 264240, Tempo, 636605
1, 264240, Note_on_c, 0, 87, 56
1, 264240, Note_on_c, 0, 79, 47
1, 264240, Note_on_c, 0, 51, 43
1, 264300, Note_on_c, 0, 51, 0
1, 264300, Note_on_c, 0, 79, 0
1, 264300, Note_on_c, 0, 87, 0
1, 264360, Note_on_c, 0, 89, 49
1, 264360, Note_on_c, 0, 82, 41
1, 264420, Note_on_c, 0, 82, 0
1, 264420, Note_on_c, 0, 89, 0
1, 264480, Note_on_c, 0, 91, 50
1, 264480, Note_on_c, 0, 87, 42
1, 264480, Note_on_c, 0, 58, 41
1, 264540, Note_on_c, 0, 58, 0
1, 264540, Note_on_c, 0, 87, 0
1, 264540, Note_on_c, 0, 91, 0
1, 264600, Tempo, 657534
1, 264600, Note_on_c, 0, 92, 44
1, 264600, Note_on_c, 0, 89, 37
1, 264660, Note_on_c, 0, 89, 0
1, 264660, Note_on_c, 0, 92, 0
1, 264720, Tempo, 629921
1, 264720, Note_on_c, 0, 94, 50
1, 264720, Note_on_c, 0, 91, 42
1, 264720, Note_on_c, 0, 67, 48
1, 264780, Note_on_c, 0, 67, 0
1, 264780, Note_on_c, 0, 91, 0
1, 264780, Note_on_c, 0, 94, 0
1, 264840, Note_on_c, 0, 90, 38
1, 264840, Note_on_c, 0, 93, 45
1, 264900, Note_on_c, 0, 93, 0
1, 264900, Note_on_c, 0, 90, 0
1, 264960, Note_on_c, 0, 96, 50
1, 264960, Note_on_c, 0, 92, 50
1, 264960, Note_on_c, 0, 75, 51
1, 265020, Note_on_c, 0, 75, 0
1, 265020, Note_on_c, 0, 92, 0
1, 265020, Note_on_c, 0, 96, 0
1, 265080, Tempo, 672269
1, 265080, Note_on_c, 0, 91, 38
1, 265080, Note_on_c, 0, 94, 45
1, 265140, Note_on_c, 0, 94, 0
1, 265140, Note_on_c, 0, 91, 0
1, 265200, Tempo, 650407
1, 265200, Note_on_c, 0, 92, 52
1, 265200, Note_on_c, 0, 84, 44
1, 265200, Note_on_c, 0, 58, 48
1, 265260, Note_on_c, 0, 58, 0
1, 265260, Note_on_c, 0, 84, 0
1, 265260, Note_on_c, 0, 92, 0
1, 265320, Note_on_c, 0, 91, 47
1, 265320, Note_on_c, 0, 82, 39
1, 265380, Note_on_c, 0, 82, 0
1, 265380, Note_on_c, 0, 91, 0
1, 265440, Note_on_c, 0, 89, 47
1, 265440, Note_on_c, 0, 80, 39
1, 265440, Note_on_c, 0, 74, 42
1, 265500, Note_on_c, 0, 74, 0
1, 265500, Note_on_c, 0, 80, 0
1, 265500, Note_on_c, 0, 89, 0
1, 265560, Tempo, 672269
1, 265560, Note_on_c, 0, 87, 48
1, 265560, Note_on_c, 0, 79, 40
1, 265620, Note_on_c, 0, 79, 0
1, 265620, Note_on_c, 0, 87, 0
1, 265680, Tempo, 645161
1, 265680, Note_on_c, 0, 86, 54
1, 265680, Note_on_c, 0, 77, 45
1, 265680, Note_on_c, 0, 58, 48
1, 265740, Note_on_c, 0, 58, 0
1, 265740, Note_on_c, 0, 77, 0
1, 265740, Note_on_c, 0, 86, 0
1, 265800, Note_on_c, 0, 82, 47
1, 265800, Note_on_c, 0, 74, 39
1, 265860, Note_on_c, 0, 74, 0
1, 265860, Note_on_c, 0, 82, 0
1, 265920, Tempo, 643432
1, 265920, Note_on_c, 0, 84, 48
1, 265920, Note_on_c, 0, 75, 40
1, 265920, Note_on_c, 0, 68, 42
1, 265980, Note_on_c, 0, 68, 0
1, 265980, Note_on_c, 0, 75, 0
1, 265980, Note_on_c, 0, 84, 0
1, 266040, Note_on_c, 0, 86, 48
1, 266040, Note_on_c, 0, 77, 41
1, 266100, Note_on_c, 0, 77, 0
1, 266100, Note_on_c, 0, 86, 0
1, 266160, Tempo, 613811
1, 266160, Note_on_c, 0, 87, 61
1, 266160, Note_on_c, 0, 79, 51
1, 266160, Note_on_c, 0, 51, 46
1, 266220, Note_on_c, 0, 51, 0
1, 266220, Note_on_c, 0, 79, 0
1, 266220, Note_on_c, 0, 87, 0
1, 266280, Note_on_c, 0, 89, 53
1, 266280, Note_on_c, 0, 82, 45
1, 266340, Note_on_c, 0, 82, 0
1, 266340, Note_on_c, 0, 89, 0
1, 266400, Note_on_c, 0, 91, 55
1, 266400, Note_on_c, 0, 87, 46
1, 266400, Note_on_c, 0, 58, 46
1, 266460, Note_on_c, 0, 58, 0
1, 266460, Note_on_c, 0, 87, 0
1, 266460, Note_on_c, 0, 91, 0
1, 266520, Tempo, 643432
1, 266520, Note_on_c, 0, 92, 49
1, 266520, Note_on_c, 0, 89, 41
1, 266580, Note_on_c, 0, 89, 0
1, 266580, Note_on_c, 0, 92, 0
1, 266640, Tempo, 616967
1, 266640, Note_on_c, 0, 94, 57
1, 266640, Note_on_c, 0, 91, 47
1, 266640, Note_on_c, 0, 67, 51
1, 266700, Note_on_c, 0, 67, 0
1, 266700, Note_on_c, 0, 91, 0
1, 266700, Note_on_c, 0, 94, 0
1, 266760, Note_on_c, 0, 90, 43
1, 266760, Note_on_c, 0, 93, 51
1, 266820, Note_on_c, 0, 93, 0
1, 266820, Note_on_c, 0, 90, 0
1, 266880, Note_on_c, 0, 96, 58
1, 266880, Note_on_c, 0, 92, 58
1, 266880, Note_on_c, 0, 75, 57
1, 266940, Note_on_c, 0, 75, 0
1, 266940, Note_on_c, 0, 92, 0
1, 266940, Note_on_c, 0, 96, 0
1, 267000, Note_on_c, 0, 91, 44
1, 267000, Note_on_c, 0, 94, 52
1, 267060, Note_on_c, 0, 94, 0
1, 267060, Note_on_c, 0, 91, 0
1, 267120, Tempo, 636605
1, 267120, Note_on_c, 0, 92, 61
1, 267120, Note_on_c, 0, 84, 52
1, 267120, Note_on_c, 0, 58, 57
1, 267180, Note_on_c, 0, 58, 0
1, 267180, Note_on_c, 0, 84, 0
1, 267180, Note_on_c, 0, 92, 0
1, 267240, Note_on_c, 0, 91, 56
1, 267240, Note_on_c, 0, 82, 46
1, 267300, Note_on_c, 0, 82, 0
1, 267300, Note_on_c, 0, 91, 0
1, 267360, Note_on_c, 0, 89, 56
1, 267360, Note_on_c, 0, 80, 47
1, 267360, Note_on_c, 0, 65, 43
1, 267360, Note_on_c, 0, 74, 50
1, 267420, Note_on_c, 0, 74, 0
1, 267420, Note_on_c, 0, 89, 0
1, 267420, Note_on_c, 0, 80, 0
1, 267420, Note_on_c, 0, 65, 0
1, 267480, Tempo, 699708
1, 267480, Note_on_c, 0, 87, 57
1, 267480, Note_on_c, 0, 79, 47
1, 267540, Note_on_c, 0, 79, 0
1, 267540, Note_on_c, 0, 87, 0
1, 267600, Tempo, 670391
1, 267600, Note_on_c, 0, 86, 63
1, 267600, Note_on_c, 0, 77, 54
1, 267660, Note_on_c, 0, 77, 0
1, 267660, Note_on_c, 0, 86, 0
1, 267840, Tempo, 643432
1, 267840, Note_on_c, 0, 70, 51
1, 267840, Note_on_c, 0, 82, 60
1, 267840, Note_on_c, 0, 56, 41
1, 267840, Note_on_c, 0, 68, 49
1, 267960, Note_on_c, 0, 68, 0
1, 267960, Note_on_c, 0, 70, 0
1, 267960, Note_on_c, 0, 82, 0
1, 267960, Note_on_c, 0, 56, 0
1, 267960, Note_on_c, 0, 71, 51
1, 267960, Note_on_c, 0, 83, 60
1, 267960, Note_on_c, 0, 67, 49
1, 267960, Note_on_c, 0, 55, 41
1, 268080, Tempo, 643432
1, 268080, Note_on_c, 0, 55, 0
1, 268080, Note_on_c, 0, 71, 0
1, 268080, Note_on_c, 0, 83, 0
1, 268080, Note_on_c, 0, 67, 0
1, 268080, Note_on_c, 0, 72, 53
1, 268080, Note_on_c, 0, 84, 63
1, 268080, Note_on_c, 0, 66, 57
1, 268080, Note_on_c, 0, 54, 48
1, 268200, Note_on_c, 0, 54, 0
1, 268200, Note_on_c, 0, 72, 0
1, 268200, Note_on_c, 0, 84, 0
1, 268200, Note_on_c, 0, 66, 0
1, 268200, Note_on_c, 0, 73, 49
1, 268200, Note_on_c, 0, 85, 58
1, 268200, Note_on_c, 0, 65, 52
1, 268200, Note_on_c, 0, 53, 44
1, 268320, Note_on_c, 0, 53, 0
1, 268320, Note_on_c, 0, 73, 0
1, 268320, Note_on_c, 0, 85, 0
1, 268320, Note_on_c, 0, 65, 0
1, 268320, Note_on_c, 0, 74, 49
1, 268320, Note_on_c, 0, 86, 58
1, 268320, Note_on_c, 0, 64, 52
1, 268320, Note_on_c, 0, 52, 44
1, 268440, Note_on_c, 0, 52, 0
1, 268440, Note_on_c, 0, 74, 0
1, 268440, Note_on_c, 0, 86, 0
1, 268440, Note_on_c, 0, 64, 0
1, 268440, Note_on_c, 0, 75, 49
1, 268440, Note_on_c, 0, 87, 58
1, 268440, Note_on_c, 0, 63, 52
1, 268440, Note_on_c, 0, 51, 44
1, 268560, Note_on_c, 0, 51, 0
1, 268560, Note_on_c, 0, 75, 0
1, 268560, Note_on_c, 0, 87, 0
1, 268560, Note_on_c, 0, 63, 0
1, 268560, Note_on_c, 0, 86, 63
1, 268560, Note_on_c, 0, 74, 53
1, 268560, Note_on_c, 0, 62, 58
1, 268560, Note_on_c, 0, 50, 49
1, 268680, Note_on_c, 0, 50, 0
1, 268680, Note_on_c, 0, 86, 0
1, 268680, Note_on_c, 0, 74, 0
1, 268680, Note_on_c, 0, 62, 0
1, 268680, Note_on_c, 0, 87, 59
1, 268680, Note_on_c, 0, 75, 50
1, 268680, Note_on_c, 0, 61, 53
1, 268680, Note_on_c, 0, 49, 45
1, 268800, Note_on_c, 0, 49, 0
1, 268800, Note_on_c, 0, 87, 0
1, 268800, Note_on_c, 0, 75, 0
1, 268800, Note_on_c, 0, 61, 0
1, 268800, Note_on_c, 0, 88, 59
1, 268800, Note_on_c, 0, 76, 50
1, 268800, Note_on_c, 0, 60, 53
1, 268800, Note_on_c, 0, 48, 45
1, 268920, Note_on_c, 0, 48, 0
1, 268920, Note_on_c, 0, 88, 0
1, 268920, Note_on_c, 0, 76, 0
1, 268920, Note_on_c, 0, 60, 0
1, 268920, Note_on_c, 0, 77, 50
1, 268920, Note_on_c, 0, 89, 59
1, 268920, Note_on_c, 0, 47, 45
1, 268920, Note_on_c, 0, 59, 53
1, 269016, Tempo, 623377
1, 269040, Note_on_c, 0, 59, 0
1, 269040, Note_on_c, 0, 77, 0
1, 269040, Note_on_c, 0, 89, 0
1, 269040, Note_on_c, 0, 47, 0
1, 269040, Note_on_c, 0, 76, 58
1, 269040, Note_on_c, 0, 88, 69
1, 269040, Note_on_c, 0, 58, 59
1, 269040, Note_on_c, 0, 46, 50
1, 269160, Note_on_c, 0, 46, 0
1, 269160, Note_on_c, 0, 76, 0
1, 269160, Note_on_c, 0, 88, 0
1, 269160, Note_on_c, 0, 58, 0
1, 269160, Note_on_c, 0, 77, 52
1, 269160, Note_on_c, 0, 89, 62
1, 269160, Note_on_c, 0, 57, 54
1, 269160, Note_on_c, 0, 45, 45
1, 269280, Note_on_c, 0, 45, 0
1, 269280, Note_on_c, 0, 77, 0
1, 269280, Note_on_c, 0, 89, 0
1, 269280, Note_on_c, 0, 57, 0
1, 269280, Note_on_c, 0, 78, 52
1, 269280, Note_on_c, 0, 90, 62
1, 269280, Note_on_c, 0, 44, 46
1, 269280, Note_on_c, 0, 56, 55
1, 269400, Note_on_c, 0, 56, 0
1, 269400, Note_on_c, 0, 78, 0
1, 269400, Note_on_c, 0, 90, 0
1, 269400, Note_on_c, 0, 44, 0
1, 269400, Note_on_c, 0, 79, 52
1, 269400, Note_on_c, 0, 91, 62
1, 269400, Note_on_c, 0, 55, 55
1, 269400, Note_on_c, 0, 43, 46
1, 269520, Note_on_c, 0, 43, 0
1, 269520, Note_on_c, 0, 79, 0
1, 269520, Note_on_c, 0, 91, 0
1, 269520, Note_on_c, 0, 55, 0
1, 269520, Note_on_c, 0, 78, 59
1, 269520, Note_on_c, 0, 90, 70
1, 269520, Note_on_c, 0, 42, 46
1, 269520, Note_on_c, 0, 54, 55
1, 269544, Tempo, 616967
1, 269560, Tempo, 648649
1, 269576, Tempo, 623377
1, 269640, Note_on_c, 0, 54, 0
1, 269640, Note_on_c, 0, 78, 0
1, 269640, Note_on_c, 0, 90, 0
1, 269640, Note_on_c, 0, 42, 0
1, 269640, Note_on_c, 0, 79, 54
1, 269640, Note_on_c, 0, 91, 64
1, 269640, Note_on_c, 0, 41, 53
1, 269640, Note_on_c, 0, 53, 63
1, 269760, Note_on_c, 0, 53, 0
1, 269760, Note_on_c, 0, 79, 0
1, 269760, Note_on_c, 0, 91, 0
1, 269760, Note_on_c, 0, 41, 0
1, 269760, Note_on_c, 0, 80, 54
1, 269760, Note_on_c, 0, 92, 64
1, 269760, Note_on_c, 0, 40, 48
1, 269760, Note_on_c, 0, 52, 57
1, 269880, Note_on_c, 0, 52, 0
1, 269880, Note_on_c, 0, 80, 0
1, 269880, Note_on_c, 0, 92, 0
1, 269880, Note_on_c, 0, 40, 0
1, 269880, Note_on_c, 0, 81, 54
1, 269880, Note_on_c, 0, 93, 64
1, 269880, Note_on_c, 0, 39, 48
1, 269880, Note_on_c, 0, 51, 57
1, 270000, Note_on_c, 0, 51, 0
1, 270000, Note_on_c, 0, 81, 0
1, 270000, Note_on_c, 0, 93, 0
1, 270000, Note_on_c, 0, 39, 0
1, 270000, Note_on_c, 0, 80, 62
1, 270000, Note_on_c, 0, 92, 74
1, 270000, Note_on_c, 0, 38, 56
1, 270000, Note_on_c, 0, 50, 66
1, 270008, Tempo, 616967
1, 270024, Tempo, 610687
1, 270052, Control_c, 0, 64, 127
1, 270120, Note_on_c, 0, 50, 0
1, 270120, Note_on_c, 0, 80, 0
1, 270120, Note_on_c, 0, 92, 0
1, 270120, Note_on_c, 0, 38, 0
1, 270120, Note_on_c, 0, 81, 53
1, 270120, Note_on_c, 0, 93, 63
1, 270120, Note_on_c, 0, 37, 50
1, 270120, Note_on_c, 0, 49, 59
1, 270240, Note_on_c, 0, 49, 0
1, 270240, Note_on_c, 0, 81, 0
1, 270240, Note_on_c, 0, 93, 0
1, 270240, Note_on_c, 0, 37, 0
1, 270240, Note_on_c, 0, 82, 54
1, 270240, Note_on_c, 0, 94, 64
1, 270240, Note_on_c, 0, 36, 51
1, 270240, Note_on_c, 0, 48, 60
1, 270248, Tempo, 604534
1, 270360, Note_on_c, 0, 48, 0
1, 270360, Note_on_c, 0, 82, 0
1, 270360, Note_on_c, 0, 94, 0
1, 270360, Note_on_c, 0, 36, 0
1, 270360, Note_on_c, 0, 83, 54
1, 270360, Note_on_c, 0, 95, 64
1, 270360, Note_on_c, 0, 35, 51
1, 270360, Note_on_c, 0, 47, 60
1, 270456, Tempo, 598504
1, 270480, Note_on_c, 0, 47, 0
1, 270480, Note_on_c, 0, 83, 0
1, 270480, Note_on_c, 0, 95, 0
1, 270480, Note_on_c, 0, 35, 0
1, 270480, Note_on_c, 0, 82, 64
1, 270480, Note_on_c, 0, 94, 75
1, 270480, Note_on_c, 0, 34, 59
1, 270480, Note_on_c, 0, 46, 71
1, 270489, Control_c, 0, 64, 0
1, 270510, Tempo, 628272
1, 270550, Tempo, 633245
1, 270555, Control_c, 0, 64, 127
1, 270590, Tempo, 638298
1, 270600, Note_on_c, 0, 94, 0
1, 270600, Note_on_c, 0, 82, 0
1, 270600, Note_on_c, 0, 83, 59
1, 270600, Note_on_c, 0, 95, 71
1, 270630, Tempo, 643432
1, 270670, Tempo, 648649
1, 270710, Tempo, 653951
1, 270720, Note_on_c, 0, 95, 0
1, 270720, Note_on_c, 0, 46, 0
1, 270720, Note_on_c, 0, 34, 0
1, 270720, Note_on_c, 0, 83, 0
1, 270720, Note_on_c, 0, 84, 64
1, 270720, Note_on_c, 0, 96, 77
1, 270720, Note_on_c, 0, 33, 60
1, 270720, Note_on_c, 0, 45, 72
1, 270730, Tempo, 648649
1, 270840, Tempo, 789578
1, 270840, Note_on_c, 0, 96, 0
1, 270840, Note_on_c, 0, 84, 0
1, 270840, Note_on_c, 0, 85, 69
1, 270840, Note_on_c, 0, 97, 82
1, 270960, Tempo, 707965
1, 270960, Note_on_c, 0, 97, 0
1, 270960, Note_on_c, 0, 45, 0
1, 270960, Note_on_c, 0, 33, 0
1, 270960, Note_on_c, 0, 85, 0
1, 270960, Note_on_c, 0, 98, 93
1, 270960, Note_on_c, 0, 86, 79
1, 270960, Note_on_c, 0, 94, 79
1, 270960, Note_on_c, 0, 44, 78
1, 270960, Note_on_c, 0, 32, 66
1, 270960, Control_c, 0, 64, 0
1, 271130, Control_c, 0, 64, 127
1, 271200, Tempo, 661157
1, 271200, Note_on_c, 0, 32, 0
1, 271200, Note_on_c, 0, 94, 0
1, 271200, Note_on_c, 0, 98, 0
1, 271200, Note_on_c, 0, 86, 0
1, 271200, Note_on_c, 0, 44, 0
1, 271200, Note_on_c, 0, 98, 85
1, 271200, Note_on_c, 0, 86, 72
1, 271200, Note_on_c, 0, 94, 72
1, 271200, Note_on_c, 0, 65, 70
1, 271200, Note_on_c, 0, 60, 59
1, 271200, Note_on_c, 0, 53, 59
1, 271440, Tempo, 653951
1, 271440, Note_on_c, 0, 53, 0
1, 271440, Note_on_c, 0, 86, 0
1, 271440, Note_on_c, 0, 94, 0
1, 271440, Note_on_c, 0, 98, 0
1, 271440, Note_on_c, 0, 60, 0
1, 271440, Note_on_c, 0, 65, 0
1, 271440, Note_on_c, 0, 96, 93
1, 271440, Note_on_c, 0, 84, 79
1, 271440, Note_on_c, 0, 92, 79
1, 271440, Note_on_c, 0, 46, 78
1, 271440, Note_on_c, 0, 34, 66
1, 271460, Control_c, 0, 64, 0
1, 271610, Control_c, 0, 64, 127
1, 271680, Tempo, 646900
1, 271680, Note_on_c, 0, 34, 0
1, 271680, Note_on_c, 0, 92, 0
1, 271680, Note_on_c, 0, 96, 0
1, 271680, Note_on_c, 0, 84, 0
1, 271680, Note_on_c, 0, 46, 0
1, 271680, Note_on_c, 0, 96, 88
1, 271680, Note_on_c, 0, 84, 74
1, 271680, Note_on_c, 0, 92, 74
1, 271680, Note_on_c, 0, 65, 71
1, 271680, Note_on_c, 0, 62, 60
1, 271680, Note_on_c, 0, 53, 60
1, 271920, Tempo, 620155
1, 271920, Note_on_c, 0, 53, 0
1, 271920, Note_on_c, 0, 84, 0
1, 271920, Note_on_c, 0, 92, 0
1, 271920, Note_on_c, 0, 96, 0
1, 271920, Note_on_c, 0, 62, 0
1, 271920, Note_on_c, 0, 65, 0
1, 271920, Note_on_c, 0, 91, 92
1, 271920, Note_on_c, 0, 79, 78
1, 271920, Note_on_c, 0, 87, 78
1, 271920, Note_on_c, 0, 51, 78
1, 271920, Note_on_c, 0, 39, 66
1, 271930, Control_c, 0, 64, 0
1, 272012, Control_c, 0, 64, 127
1, 272160, Tempo, 661157
1, 272160, Note_on_c, 0, 39, 0
1, 272160, Note_on_c, 0, 87, 0
1, 272160, Note_on_c, 0, 91, 0
1, 272160, Note_on_c, 0, 79, 0
1, 272160, Note_on_c, 0, 51, 0
1, 272160, Note_on_c, 0, 94, 83
1, 272160, Note_on_c, 0, 82, 70
1, 272160, Note_on_c, 0, 91, 70
1, 272160, Note_on_c, 0, 67, 71
1, 272160, Note_on_c, 0, 63, 60
1, 272160, Note_on_c, 0, 55, 60
1, 272400, Tempo, 620155
1, 272400, Note_on_c, 0, 55, 0
1, 272400, Note_on_c, 0, 82, 0
1, 272400, Note_on_c, 0, 91, 0
1, 272400, Note_on_c, 0, 94, 0
1, 272400, Note_on_c, 0, 63, 0
1, 272400, Note_on_c, 0, 67, 0
1, 272400, Note_on_c, 0, 94, 89
1, 272400, Note_on_c, 0, 82, 74
1, 272400, Note_on_c, 0, 91, 74
1, 272400, Note_on_c, 0, 51, 78
1, 272400, Note_on_c, 0, 39, 66
1, 272520, Note_on_c, 0, 91, 0
1, 272520, Note_on_c, 0, 94, 0
1, 272520, Note_on_c, 0, 82, 0
1, 272520, Note_on_c, 0, 81, 67
1, 272520, Note_on_c, 0, 90, 67
1, 272520, Note_on_c, 0, 93, 79
1, 272640, Tempo, 668524
1, 272640, Note_on_c, 0, 93, 0
1, 272640, Note_on_c, 0, 81, 0
1, 272640, Note_on_c, 0, 39, 0
1, 272640, Note_on_c, 0, 51, 0
1, 272640, Note_on_c, 0, 90, 0
1, 272640, Note_on_c, 0, 94, 88
1, 272640, Note_on_c, 0, 82, 74
1, 272640, Note_on_c, 0, 91, 74
1, 272640, Note_on_c, 0, 67, 71
1, 272640, Note_on_c, 0, 63, 60
1, 272640, Note_on_c, 0, 55, 60
1, 272880, Tempo, 626632
1, 272880, Note_on_c, 0, 55, 0
1, 272880, Note_on_c, 0, 82, 0
1, 272880, Note_on_c, 0, 91, 0
1, 272880, Note_on_c, 0, 94, 0
1, 272880, Note_on_c, 0, 63, 0
1, 272880, Note_on_c, 0, 67, 0
1, 272880, Note_on_c, 0, 89, 82
1, 272880, Note_on_c, 0, 77, 69
1, 272880, Note_on_c, 0, 53, 78
1, 272880, Note_on_c, 0, 41, 66
1, 272893, Control_c, 0, 64, 0
1, 273000, Note_on_c, 0, 77, 0
1, 273000, Note_on_c, 0, 89, 0
1, 273000, Note_on_c, 0, 91, 81
1, 273000, Note_on_c, 0, 79, 68
1, 273000, Control_c, 0, 64, 127
1, 273120, Note_on_c, 0, 79, 0
1, 273120, Note_on_c, 0, 41, 0
1, 273120, Note_on_c, 0, 53, 0
1, 273120, Note_on_c, 0, 91, 0
1, 273120, Note_on_c, 0, 92, 81
1, 273120, Note_on_c, 0, 80, 68
1, 273120, Note_on_c, 0, 65, 71
1, 273120, Note_on_c, 0, 60, 60
1, 273120, Note_on_c, 0, 56, 60
1, 273240, Note_on_c, 0, 80, 0
1, 273240, Note_on_c, 0, 92, 0
1, 273240, Note_on_c, 0, 96, 81
1, 273240, Note_on_c, 0, 84, 68
1, 273360, Note_on_c, 0, 84, 0
1, 273360, Note_on_c, 0, 60, 0
1, 273360, Note_on_c, 0, 56, 0
1, 273360, Note_on_c, 0, 65, 0
1, 273360, Note_on_c, 0, 96, 0
1, 273360, Note_on_c, 0, 94, 83
1, 273360, Note_on_c, 0, 82, 70
1, 273360, Note_on_c, 0, 46, 78
1, 273360, Note_on_c, 0, 34, 66
1, 273367, Control_c, 0, 64, 0
1, 273459, Control_c, 0, 64, 127
1, 273480, Note_on_c, 0, 82, 0
1, 273480, Note_on_c, 0, 94, 0
1, 273480, Note_on_c, 0, 92, 80
1, 273480, Note_on_c, 0, 80, 68
1, 273600, Note_on_c, 0, 80, 0
1, 273600, Note_on_c, 0, 34, 0
1, 273600, Note_on_c, 0, 46, 0
1, 273600, Note_on_c, 0, 92, 0
1, 273600, Note_on_c, 0, 91, 81
1, 273600, Note_on_c, 0, 79, 68
1, 273600, Note_on_c, 0, 65, 71
1, 273600, Note_on_c, 0, 62, 60
1, 273600, Note_on_c, 0, 56, 60
1, 273720, Note_on_c, 0, 79, 0
1, 273720, Note_on_c, 0, 91, 0
1, 273720, Note_on_c, 0, 89, 81
1, 273720, Note_on_c, 0, 77, 68
1, 273840, Tempo, 613811
1, 273840, Note_on_c, 0, 77, 0
1, 273840, Note_on_c, 0, 62, 0
1, 273840, Note_on_c, 0, 56, 0
1, 273840, Note_on_c, 0, 65, 0
1, 273840, Note_on_c, 0, 89, 0
1, 273840, Note_on_c, 0, 94, 92
1, 273840, Note_on_c, 0, 91, 92
1, 273840, Note_on_c, 0, 82, 78
1, 273840, Note_on_c, 0, 51, 78
1, 273840, Note_on_c, 0, 39, 66
1, 273850, Control_c, 0, 64, 0
1, 273883, Control_c, 0, 64, 127
1, 274080, Tempo, 661157
1, 274080, Note_on_c, 0, 39, 0
1, 274080, Note_on_c, 0, 82, 0
1, 274080, Note_on_c, 0, 94, 0
1, 274080, Note_on_c, 0, 91, 0
1, 274080, Note_on_c, 0, 51, 0
1, 274080, Note_on_c, 0, 91, 83
1, 274080, Note_on_c, 0, 94, 83
1, 274080, Note_on_c, 0, 82, 70
1, 274080, Note_on_c, 0, 67, 71
1, 274080, Note_on_c, 0, 63, 60
1, 274080, Note_on_c, 0, 55, 60
1, 274260, Note_on_c, 0, 82, 0
1, 274260, Note_on_c, 0, 91, 0
1, 274260, Note_on_c, 0, 94, 0
1, 274260, Note_on_c, 0, 81, 67
1, 274260, Note_on_c, 0, 90, 79
1, 274260, Note_on_c, 0, 93, 79
1, 274320, Tempo, 620155
1, 274320, Note_on_c, 0, 93, 0
1, 274320, Note_on_c, 0, 63, 0
1, 274320, Note_on_c, 0, 67, 0
1, 274320, Note_on_c, 0, 55, 0
1, 274320, Note_on_c, 0, 90, 0
1, 274320, Note_on_c, 0, 81, 0
1, 274320, Note_on_c, 0, 94, 89
1, 274320, Note_on_c, 0, 91, 89
1, 274320, Note_on_c, 0, 82, 74
1, 274320, Note_on_c, 0, 51, 78
1, 274320, Note_on_c, 0, 39, 66
1, 274560, Tempo, 661157
1, 274560, Note_on_c, 0, 39, 0
1, 274560, Note_on_c, 0, 51, 0
1, 274560, Note_on_c, 0, 67, 71
1, 274560, Note_on_c, 0, 63, 60
1, 274560, Note_on_c, 0, 55, 60
1, 274800, Tempo, 750094
1, 274800, Note_on_c, 0, 55, 0
1, 274800, Note_on_c, 0, 91, 0
1, 274800, Note_on_c, 0, 94, 0
1, 274800, Note_on_c, 0, 82, 0
1, 274800, Note_on_c, 0, 63, 0
1, 274800, Note_on_c, 0, 67, 0
1, 274800, Note_on_c, 0, 98, 93
1, 274800, Note_on_c, 0, 86, 79
1, 274800, Note_on_c, 0, 94, 79
1, 274800, Note_on_c, 0, 44, 78
1, 274800, Note_on_c, 0, 32, 66
1, 274809, Control_c, 0, 64, 0
1, 274956, Control_c, 0, 64, 127
1, 275040, Tempo, 676056
1, 275040, Note_on_c, 0, 32, 0
1, 275040, Note_on_c, 0, 94, 0
1, 275040, Note_on_c, 0, 98, 0
1, 275040, Note_on_c, 0, 86, 0
1, 275040, Note_on_c, 0, 44, 0
1, 275040, Note_on_c, 0, 98, 85
1, 275040, Note_on_c, 0, 86, 72
1, 275040, Note_on_c, 0, 94, 72
1, 275040, Note_on_c, 0, 65, 70
1, 275040, Note_on_c, 0, 60, 59
1, 275040, Note_on_c, 0, 53, 59
1, 275280, Tempo, 683761
1, 275280, Note_on_c, 0, 53, 0
1, 275280, Note_on_c, 0, 86, 0
1, 275280, Note_on_c, 0, 94, 0
1, 275280, Note_on_c, 0, 98, 0
1, 275280, Note_on_c, 0, 60, 0
1, 275280, Note_on_c, 0, 65, 0
1, 275280, Note_on_c, 0, 96, 93
1, 275280, Note_on_c, 0, 84, 79
1, 275280, Note_on_c, 0, 92, 79
1, 275280, Note_on_c, 0, 46, 78
1, 275280, Note_on_c, 0, 34, 66
1, 275286, Control_c, 0, 64, 0
1, 275436, Control_c, 0, 64, 127
1, 275520, Tempo, 691643
1, 275520, Note_on_c, 0, 34, 0
1, 275520, Note_on_c, 0, 92, 0
1, 275520, Note_on_c, 0, 96, 0
1, 275520, Note_on_c, 0, 84, 0
1, 275520, Note_on_c, 0, 46, 0
1, 275520, Note_on_c, 0, 96, 88
1, 275520, Note_on_c, 0, 84, 74
1, 275520, Note_on_c, 0, 92, 74
1, 275520, Note_on_c, 0, 65, 71
1, 275520, Note_on_c, 0, 62, 60
1, 275520, Note_on_c, 0, 53, 60
1, 275760, Tempo, 626632
1, 275760, Note_on_c, 0, 53, 0
1, 275760, Note_on_c, 0, 84, 0
1, 275760, Note_on_c, 0, 92, 0
1, 275760, Note_on_c, 0, 96, 0
1, 275760, Note_on_c, 0, 62, 0
1, 275760, Note_on_c, 0, 65, 0
1, 275760, Note_on_c, 0, 91, 92
1, 275760, Note_on_c, 0, 79, 78
1, 275760, Note_on_c, 0, 87, 78
1, 275760, Note_on_c, 0, 51, 78
1, 275760, Note_on_c, 0, 39, 66
1, 275770, Control_c, 0, 64, 0
1, 275846, Control_c, 0, 64, 127
1, 276000, Tempo, 653951
1, 276000, Note_on_c, 0, 39, 0
1, 276000, Note_on_c, 0, 87, 0
1, 276000, Note_on_c, 0, 91, 0
1, 276000, Note_on_c, 0, 79, 0
1, 276000, Note_on_c, 0, 51, 0
1, 276000, Note_on_c, 0, 94, 83
1, 276000, Note_on_c, 0, 82, 70
1, 276000, Note_on_c, 0, 91, 70
1, 276000, Note_on_c, 0, 67, 71
1, 276000, Note_on_c, 0, 63, 60
1, 276000, Note_on_c, 0, 55, 60
1, 276240, Tempo, 626632
1, 276240, Note_on_c, 0, 55, 0
1, 276240, Note_on_c, 0, 82, 0
1, 276240, Note_on_c, 0, 91, 0
1, 276240, Note_on_c, 0, 94, 0
1, 276240, Note_on_c, 0, 63, 0
1, 276240, Note_on_c, 0, 67, 0
1, 276240, Note_on_c, 0, 94, 89
1, 276240, Note_on_c, 0, 82, 74
1, 276240, Note_on_c, 0, 91, 74
1, 276240, Note_on_c, 0, 51, 78
1, 276240, Note_on_c, 0, 39, 66
1, 276360, Note_on_c, 0, 91, 0
1, 276360, Note_on_c, 0, 94, 0
1, 276360, Note_on_c, 0, 82, 0
1, 276360, Note_on_c, 0, 81, 67
1, 276360, Note_on_c, 0, 90, 67
1, 276360, Note_on_c, 0, 93, 79
1, 276480, Tempo, 693642
1, 276480, Note_on_c, 0, 93, 0
1, 276480, Note_on_c, 0, 81, 0
1, 276480, Note_on_c, 0, 39, 0
1, 276480, Note_on_c, 0, 51, 0
1, 276480, Note_on_c, 0, 90, 0
1, 276480, Note_on_c, 0, 94, 88
1, 276480, Note_on_c, 0, 82, 74
1, 276480, Note_on_c, 0, 91, 74
1, 276480, Note_on_c, 0, 67, 71
1, 276480, Note_on_c, 0, 63, 60
1, 276480, Note_on_c, 0, 55, 60
1, 276720, Tempo, 653951
1, 276720, Note_on_c, 0, 55, 0
1, 276720, Note_on_c, 0, 82, 0
1, 276720, Note_on_c, 0, 91, 0
1, 276720, Note_on_c, 0, 94, 0
1, 276720, Note_on_c, 0, 63, 0
1, 276720, Note_on_c, 0, 67, 0
1, 276720, Note_on_c, 0, 89, 72
1, 276720, Note_on_c, 0, 77, 61
1, 276720, Note_on_c, 0, 80, 61
1, 276720, Note_on_c, 0, 53, 78
1, 276720, Note_on_c, 0, 41, 66
1, 276733, Control_c, 0, 64, 0
1, 276801, Control_c, 0, 64, 127
1, 276840, Note_on_c, 0, 80, 0
1, 276840, Note_on_c, 0, 89, 0
1, 276840, Note_on_c, 0, 77, 0
1, 276840, Note_on_c, 0, 91, 74
1, 276840, Note_on_c, 0, 79, 62
1, 276840, Note_on_c, 0, 82, 62
1, 276960, Note_on_c, 0, 82, 0
1, 276960, Note_on_c, 0, 91, 0
1, 276960, Note_on_c, 0, 41, 0
1, 276960, Note_on_c, 0, 53, 0
1, 276960, Note_on_c, 0, 79, 0
1, 276960, Note_on_c, 0, 92, 77
1, 276960, Note_on_c, 0, 80, 64
1, 276960, Note_on_c, 0, 83, 64
1, 276960, Note_on_c, 0, 65, 71
1, 276960, Note_on_c, 0, 60, 60
1, 276960, Note_on_c, 0, 56, 60
1, 277080, Note_on_c, 0, 83, 0
1, 277080, Note_on_c, 0, 92, 0
1, 277080, Note_on_c, 0, 80, 0
1, 277080, Note_on_c, 0, 84, 67
1, 277080, Note_on_c, 0, 93, 79
1, 277080, Note_on_c, 0, 81, 67
1, 277200, Tempo, 626632
1, 277200, Note_on_c, 0, 81, 0
1, 277200, Note_on_c, 0, 60, 0
1, 277200, Note_on_c, 0, 65, 0
1, 277200, Note_on_c, 0, 56, 0
1, 277200, Note_on_c, 0, 93, 0
1, 277200, Note_on_c, 0, 84, 0
1, 277200, Note_on_c, 0, 94, 81
1, 277200, Note_on_c, 0, 85, 68
1, 277200, Note_on_c, 0, 82, 68
1, 277200, Note_on_c, 0, 46, 78
1, 277200, Note_on_c, 0, 34, 66
1, 277207, Control_c, 0, 64, 0
1, 277250, Control_c, 0, 64, 127
1, 277320, Note_on_c, 0, 82, 0
1, 277320, Note_on_c, 0, 94, 0
1, 277320, Note_on_c, 0, 85, 0
1, 277320, Note_on_c, 0, 95, 83
1, 277320, Note_on_c, 0, 83, 70
1, 277320, Note_on_c, 0, 86, 70
1, 277440, Note_on_c, 0, 86, 0
1, 277440, Note_on_c, 0, 95, 0
1, 277440, Note_on_c, 0, 34, 0
1, 277440, Note_on_c, 0, 46, 0
1, 277440, Note_on_c, 0, 83, 0
1, 277440, Note_on_c, 0, 96, 85
1, 277440, Note_on_c, 0, 84, 72
1, 277440, Note_on_c, 0, 87, 72
1, 277440, Note_on_c, 0, 65, 71
1, 277440, Note_on_c, 0, 62, 60
1, 277440, Note_on_c, 0, 56, 60
1, 277560, Note_on_c, 0, 87, 0
1, 277560, Note_on_c, 0, 96, 0
1, 277560, Note_on_c, 0, 84, 0
1, 277560, Note_on_c, 0, 98, 86
1, 277560, Note_on_c, 0, 86, 73
1, 277560, Note_on_c, 0, 89, 73
1, 277680, Tempo, 653951
1, 277680, Note_on_c, 0, 89, 0
1, 277680, Note_on_c, 0, 62, 0
1, 277680, Note_on_c, 0, 65, 0
1, 277680, Note_on_c, 0, 56, 0
1, 277680, Note_on_c, 0, 86, 0
1, 277680, Note_on_c, 0, 98, 0
1, 277680, Note_on_c, 0, 99, 89
1, 277680, Note_on_c, 0, 87, 74
1, 277680, Note_on_c, 0, 91, 74
1, 277680, Note_on_c, 0, 39, 66
1, 277680, Note_on_c, 0, 51, 78
1, 277680, Control_c, 0, 64, 0
1, 277740, Note_on_c, 0, 91, 0
1, 277740, Note_on_c, 0, 99, 0
1, 277740, Note_on_c, 0, 87, 0
1, 277786, Control_c, 0, 64, 127
1, 277800, Note_on_c, 0, 39, 0
1, 277800, Note_on_c, 0, 51, 0
1, 277920, Note_on_c, 0, 75, 68
1, 277920, Note_on_c, 0, 79, 68
1, 277920, Note_on_c, 0, 87, 81
1, 277920, Note_on_c, 0, 55, 60
1, 277920, Note_on_c, 0, 58, 60
1, 277920, Note_on_c, 0, 63, 60
1, 277920, Note_on_c, 0, 67, 71
1, 278400, Note_on_c, 0, 67, 0
1, 278400, Note_on_c, 0, 58, 0
1, 278400, Note_on_c, 0, 79, 0
1, 278400, Note_on_c, 0, 87, 0
1, 278400, Note_on_c, 0, 75, 0
1, 278400, Note_on_c, 0, 63, 0
1, 278400, Note_on_c, 0, 55, 0
1, 278400, Note_on_c, 0, 75, 61
1, 278400, Note_on_c, 0, 79, 61
1, 278400, Note_on_c, 0, 87, 72
1, 278400, Note_on_c, 0, 55, 54
1, 278400, Note_on_c, 0, 58, 54
1, 278400, Note_on_c, 0, 63, 54
1, 278400, Note_on_c, 0, 67, 63
1, 278460, Note_on_c, 0, 67, 0
1, 278460, Note_on_c, 0, 58, 0
1, 278460, Note_on_c, 0, 55, 0
1, 278460, Note_on_c, 0, 63, 0
1, 278520, Note_on_c, 0, 75, 0
1, 278520, Note_on_c, 0, 87, 0
1, 278520, Note_on_c, 0, 79, 0
1, 278520, Control_c, 0, 64, 0
1, 278640, Tempo, 626632
1, 278640, Note_on_c, 0, 62, 51
1, 278640, Note_on_c, 0, 65, 63
1, 278640, Note_on_c, 0, 56, 36
1, 278640, Note_on_c, 0, 58, 43
1, 278640, Note_on_c, 0, 51, 36
1, 278700, Note_on_c, 0, 65, 0
1, 278760, Note_on_c, 0, 58, 0
1, 278760, Note_on_c, 0, 62, 0
1, 278760, Note_on_c, 0, 56, 0
1, 278760, Note_on_c, 0, 51, 0
1, 278760, Note_on_c, 0, 67, 59
1, 278820, Note_on_c, 0, 67, 0
1, 278880, Note_on_c, 0, 62, 52
1, 278880, Note_on_c, 0, 68, 59
1, 278880, Note_on_c, 0, 58, 39
1, 278880, Note_on_c, 0, 56, 33
1, 278880, Note_on_c, 0, 51, 33
1, 278940, Note_on_c, 0, 68, 0
1, 279000, Note_on_c, 0, 72, 59
1, 279060, Note_on_c, 0, 72, 0
1, 279120, Tempo, 589681
1, 279120, Note_on_c, 0, 70, 64
1, 279180, Note_on_c, 0, 70, 0
1, 279240, Note_on_c, 0, 68, 55
1, 279300, Note_on_c, 0, 68, 0
1, 279360, Tempo, 620155
1, 279360, Note_on_c, 0, 51, 0
1, 279360, Note_on_c, 0, 62, 0
1, 279360, Note_on_c, 0, 58, 0
1, 279360, Note_on_c, 0, 56, 0
1, 279360, Note_on_c, 0, 62, 50
1, 279360, Note_on_c, 0, 67, 56
1, 279360, Note_on_c, 0, 58, 39
1, 279360, Note_on_c, 0, 56, 33
1, 279360, Note_on_c, 0, 51, 33
1, 279420, Note_on_c, 0, 67, 0
1, 279480, Note_on_c, 0, 56, 0
1, 279480, Note_on_c, 0, 62, 0
1, 279480, Note_on_c, 0, 58, 0
1, 279480, Note_on_c, 0, 51, 0
1, 279480, Note_on_c, 0, 65, 57
1, 279540, Note_on_c, 0, 65, 0
1, 279600, Tempo, 589681
1, 279600, Note_on_c, 0, 70, 63
1, 279600, Note_on_c, 0, 67, 53
1, 279600, Note_on_c, 0, 61, 51
1, 279600, Note_on_c, 0, 51, 51
1, 279660, Note_on_c, 0, 51, 0
1, 279660, Note_on_c, 0, 70, 0
1, 279660, Note_on_c, 0, 67, 0
1, 279660, Note_on_c, 0, 61, 0
1, 279810, Note_on_c, 0, 72, 57
1, 279840, Tempo, 601504
1, 279840, Note_on_c, 0, 72, 0
1, 279840, Note_on_c, 0, 67, 53
1, 279840, Note_on_c, 0, 70, 63
1, 279840, Note_on_c, 0, 61, 39
1, 279840, Note_on_c, 0, 51, 33
1, 279900, Note_on_c, 0, 70, 0
1, 279900, Note_on_c, 0, 67, 0
1, 280020, Note_on_c, 0, 66, 47
1, 280020, Note_on_c, 0, 69, 56
1, 280080, Tempo, 578313
1, 280080, Note_on_c, 0, 69, 0
1, 280080, Note_on_c, 0, 66, 0
1, 280080, Note_on_c, 0, 67, 52
1, 280080, Note_on_c, 0, 70, 62
1, 280320, Tempo, 646900
1, 280320, Note_on_c, 0, 61, 0
1, 280320, Note_on_c, 0, 51, 0
1, 280320, Note_on_c, 0, 61, 43
1, 280320, Note_on_c, 0, 51, 40
1, 280440, Note_on_c, 0, 51, 0
1, 280440, Note_on_c, 0, 61, 0
1, 280560, Tempo, 613811
1, 280560, Note_on_c, 0, 67, 0
1, 280560, Note_on_c, 0, 70, 0
1, 280560, Note_on_c, 0, 60, 51
1, 280560, Note_on_c, 0, 65, 63
1, 280560, Note_on_c, 0, 56, 43
1, 280560, Note_on_c, 0, 51, 36
1, 280620, Note_on_c, 0, 65, 0
1, 280680, Note_on_c, 0, 60, 0
1, 280680, Note_on_c, 0, 56, 0
1, 280680, Note_on_c, 0, 51, 0
1, 280680, Note_on_c, 0, 67, 59
1, 280740, Note_on_c, 0, 67, 0
1, 280800, Tempo, 589681
1, 280800, Note_on_c, 0, 60, 52
1, 280800, Note_on_c, 0, 68, 59
1, 280800, Note_on_c, 0, 56, 39
1, 280800, Note_on_c, 0, 51, 33
1, 280860, Note_on_c, 0, 68, 0
1, 280920, Note_on_c, 0, 72, 59
1, 280980, Note_on_c, 0, 72, 0
1, 281040, Note_on_c, 0, 70, 64
1, 281100, Note_on_c, 0, 70, 0
1, 281160, Note_on_c, 0, 68, 55
1, 281220, Note_on_c, 0, 68, 0
1, 281280, Tempo, 620155
1, 281280, Note_on_c, 0, 51, 0
1, 281280, Note_on_c, 0, 56, 0
1, 281280, Note_on_c, 0, 60, 0
1, 281280, Note_on_c, 0, 62, 50
1, 281280, Note_on_c, 0, 67, 56
1, 281280, Note_on_c, 0, 59, 43
1, 281280, Note_on_c, 0, 51, 33
1, 281340, Note_on_c, 0, 67, 0
1, 281400, Note_on_c, 0, 62, 0
1, 281400, Note_on_c, 0, 59, 0
1, 281400, Note_on_c, 0, 51, 0
1, 281400, Note_on_c, 0, 65, 57
1, 281460, Note_on_c, 0, 65, 0
1, 281520, Tempo, 676056
1, 281520, Note_on_c, 0, 67, 63
1, 281520, Note_on_c, 0, 63, 53
1, 281520, Note_on_c, 0, 58, 51
1, 281520, Note_on_c, 0, 51, 51
1, 281580, Note_on_c, 0, 51, 0
1, 281580, Note_on_c, 0, 67, 0
1, 281580, Note_on_c, 0, 63, 0
1, 281580, Note_on_c, 0, 58, 0
1, 281760, Tempo, 601504
1, 281760, Note_on_c, 0, 58, 46
1, 281760, Note_on_c, 0, 63, 52
1, 281760, Note_on_c, 0, 55, 39
1, 281760, Note_on_c, 0, 51, 33
1, 281789, Control_c, 0, 64, 127
1, 282000, Tempo, 567376
1, 282180, Tempo, 505263
1, 282180, Note_on_c, 0, 51, 0
1, 282180, Note_on_c, 0, 55, 0
1, 282210, Note_on_c, 0, 62, 46
1, 282210, Note_on_c, 0, 54, 37
1, 282240, Tempo, 601504
1, 282240, Note_on_c, 0, 54, 0
1, 282240, Note_on_c, 0, 58, 0
1, 282240, Note_on_c, 0, 63, 0
1, 282240, Note_on_c, 0, 62, 0
1, 282240, Note_on_c, 0, 58, 53
1, 282240, Note_on_c, 0, 63, 63
1, 282240, Note_on_c, 0, 55, 43
1, 282240, Note_on_c, 0, 51, 40
1, 282257, Control_c, 0, 64, 0
1, 282360, Note_on_c, 0, 51, 0
1, 282360, Note_on_c, 0, 58, 0
1, 282360, Note_on_c, 0, 63, 0
1, 282360, Note_on_c, 0, 55, 0
1, 282480, Tempo, 589681
1, 282480, Note_on_c, 0, 65, 53
1, 282480, Note_on_c, 0, 77, 63
1, 282480, Note_on_c, 0, 39, 43
1, 282540, Note_on_c, 0, 77, 0
1, 282540, Note_on_c, 0, 65, 0
1, 282600, Note_on_c, 0, 39, 0
1, 282600, Note_on_c, 0, 67, 50
1, 282600, Note_on_c, 0, 79, 59
1, 282660, Note_on_c, 0, 79, 0
1, 282660, Note_on_c, 0, 67, 0
1, 282720, Note_on_c, 0, 68, 50
1, 282720, Note_on_c, 0, 80, 59
1, 282720, Note_on_c, 0, 56, 39
1, 282720, Note_on_c, 0, 50, 33
1, 282720, Note_on_c, 0, 46, 33
1, 282738, Control_c, 0, 64, 127
1, 282780, Note_on_c, 0, 80, 0
1, 282780, Note_on_c, 0, 68, 0
1, 282840, Note_on_c, 0, 72, 50
1, 282840, Note_on_c, 0, 84, 59
1, 282900, Note_on_c, 0, 84, 0
1, 282900, Note_on_c, 0, 72, 0
1, 282960, Note_on_c, 0, 70, 54
1, 282960, Note_on_c, 0, 82, 64
1, 283020, Note_on_c, 0, 82, 0
1, 283020, Note_on_c, 0, 70, 0
1, 283080, Note_on_c, 0, 68, 46
1, 283080, Note_on_c, 0, 80, 55
1, 283140, Note_on_c, 0, 80, 0
1, 283140, Note_on_c, 0, 68, 0
1, 283200, Note_on_c, 0, 46, 0
1, 283200, Note_on_c, 0, 56, 0
1, 283200, Note_on_c, 0, 50, 0
1, 283200, Note_on_c, 0, 67, 47
1, 283200, Note_on_c, 0, 79, 56
1, 283200, Note_on_c, 0, 56, 39
1, 283200, Note_on_c, 0, 50, 33
1, 283200, Note_on_c, 0, 46, 33
1, 283260, Note_on_c, 0, 79, 0
1, 283260, Note_on_c, 0, 67, 0
1, 283320, Note_on_c, 0, 50, 0
1, 283320, Note_on_c, 0, 56, 0
1, 283320, Note_on_c, 0, 46, 0
1, 283320, Note_on_c, 0, 65, 48
1, 283320, Note_on_c, 0, 77, 57
1, 283380, Note_on_c, 0, 77, 0
1, 283380, Note_on_c, 0, 65, 0
1, 283440, Tempo, 567376
1, 283440, Note_on_c, 0, 82, 63
1, 283440, Note_on_c, 0, 70, 53
1, 283440, Note_on_c, 0, 39, 51
1, 283442, Control_c, 0, 64, 0
1, 283500, Note_on_c, 0, 39, 0
1, 283500, Note_on_c, 0, 70, 0
1, 283500, Note_on_c, 0, 82, 0
1, 283650, Note_on_c, 0, 84, 57
1, 283680, Tempo, 601504
1, 283680, Note_on_c, 0, 84, 0
1, 283680, Note_on_c, 0, 70, 53
1, 283680, Note_on_c, 0, 82, 63
1, 283680, Note_on_c, 0, 55, 33
1, 283680, Note_on_c, 0, 58, 39
1, 283680, Note_on_c, 0, 49, 33
1, 283680, Control_c, 0, 64, 127
1, 283740, Note_on_c, 0, 82, 0
1, 283740, Note_on_c, 0, 70, 0
1, 283860, Note_on_c, 0, 69, 47
1, 283860, Note_on_c, 0, 81, 56
1, 283920, Tempo, 578313
1, 283920, Note_on_c, 0, 81, 0
1, 283920, Note_on_c, 0, 69, 0
1, 283920, Note_on_c, 0, 70, 52
1, 283920, Note_on_c, 0, 82, 62
1, 284160, Tempo, 646900
1, 284160, Note_on_c, 0, 49, 0
1, 284160, Note_on_c, 0, 58, 0
1, 284160, Note_on_c, 0, 55, 0
1, 284160, Note_on_c, 0, 55, 40
1, 284160, Note_on_c, 0, 58, 43
1, 284160, Note_on_c, 0, 49, 40
1, 284280, Note_on_c, 0, 49, 0
1, 284280, Note_on_c, 0, 55, 0
1, 284280, Note_on_c, 0, 58, 0
1, 284400, Tempo, 613811
1, 284400, Note_on_c, 0, 70, 0
1, 284400, Note_on_c, 0, 82, 0
1, 284400, Note_on_c, 0, 65, 53
1, 284400, Note_on_c, 0, 77, 63
1, 284400, Note_on_c, 0, 39, 43
1, 284420, Control_c, 0, 64, 0
1, 284460, Note_on_c, 0, 77, 0
1, 284460, Note_on_c, 0, 65, 0
1, 284520, Note_on_c, 0, 39, 0
1, 284520, Note_on_c, 0, 67, 50
1, 284520, Note_on_c, 0, 79, 59
1, 284580, Note_on_c, 0, 79, 0
1, 284580, Note_on_c, 0, 67, 0
1, 284640, Tempo, 589681
1, 284640, Note_on_c, 0, 68, 50
1, 284640, Note_on_c, 0, 80, 59
1, 284640, Note_on_c, 0, 48, 33
1, 284640, Note_on_c, 0, 56, 39
1, 284640, Note_on_c, 0, 51, 33
1, 284658, Control_c, 0, 64, 127
1, 284700, Note_on_c, 0, 80, 0
1, 284700, Note_on_c, 0, 68, 0
1, 284760, Note_on_c, 0, 72, 50
1, 284760, Note_on_c, 0, 84, 59
1, 284820, Note_on_c, 0, 84, 0
1, 284820, Note_on_c, 0, 72, 0
1, 284880, Note_on_c, 0, 70, 54
1, 284880, Note_on_c, 0, 82, 64
1, 284940, Note_on_c, 0, 82, 0
1, 284940, Note_on_c, 0, 70, 0
1, 285000, Note_on_c, 0, 68, 46
1, 285000, Note_on_c, 0, 80, 55
1, 285060, Note_on_c, 0, 80, 0
1, 285060, Note_on_c, 0, 68, 0
1, 285106, Control_c, 0, 64, 0
1, 285120, Tempo, 620155
1, 285120, Note_on_c, 0, 51, 0
1, 285120, Note_on_c, 0, 48, 0
1, 285120, Note_on_c, 0, 56, 0
1, 285120, Note_on_c, 0, 67, 47
1, 285120, Note_on_c, 0, 79, 56
1, 285120, Note_on_c, 0, 47, 33
1, 285120, Note_on_c, 0, 56, 43
1, 285120, Note_on_c, 0, 51, 33
1, 285180, Note_on_c, 0, 79, 0
1, 285180, Note_on_c, 0, 67, 0
1, 285240, Note_on_c, 0, 56, 0
1, 285240, Note_on_c, 0, 47, 0
1, 285240, Note_on_c, 0, 51, 0
1, 285240, Note_on_c, 0, 65, 48
1, 285240, Note_on_c, 0, 77, 57
1, 285300, Note_on_c, 0, 77, 0
1, 285300, Note_on_c, 0, 65, 0
1, 285360, Tempo, 676056
1, 285360, Note_on_c, 0, 79, 63
1, 285360, Note_on_c, 0, 67, 53
1, 285360, Note_on_c, 0, 39, 51
1, 285420, Note_on_c, 0, 39, 0
1, 285420, Note_on_c, 0, 67, 0
1, 285420, Note_on_c, 0, 79, 0
1, 285600, Tempo, 601504
1, 285600, Note_on_c, 0, 63, 46
1, 285600, Note_on_c, 0, 75, 52
1, 285600, Note_on_c, 0, 55, 39
1, 285600, Note_on_c, 0, 46, 33
1, 285703, Control_c, 0, 64, 127
1, 285840, Tempo, 567376
1, 286020, Tempo, 505263
1, 286050, Note_on_c, 0, 74, 46
1, 286080, Tempo, 646900
1, 286080, Note_on_c, 0, 74, 0
1, 286080, Note_on_c, 0, 55, 0
1, 286080, Note_on_c, 0, 63, 0
1, 286080, Note_on_c, 0, 75, 0
1, 286080, Note_on_c, 0, 46, 0
1, 286080, Note_on_c, 0, 63, 53
1, 286080, Note_on_c, 0, 75, 63
1, 286080, Note_on_c, 0, 55, 43
1, 286080, Note_on_c, 0, 46, 40
1, 286098, Control_c, 0, 64, 0
1, 286200, Note_on_c, 0, 46, 0
1, 286200, Note_on_c, 0, 63, 0
1, 286200, Note_on_c, 0, 75, 0
1, 286200, Note_on_c, 0, 55, 0
1, 286260, Tempo, 509554
1, 286290, Note_on_c, 0, 66, 36
1, 286320, Tempo, 676056
1, 286320, Note_on_c, 0, 66, 0
1, 286320, Note_on_c, 0, 67, 50
1, 286320, Note_on_c, 0, 59, 42
1, 286320, Note_on_c, 0, 43, 32
1, 286320, Note_on_c, 0, 50, 40
1, 286380, Note_on_c, 0, 50, 0
1, 286380, Note_on_c, 0, 67, 0
1, 286380, Note_on_c, 0, 59, 0
1, 286380, Note_on_c, 0, 43, 0
1, 286560, Tempo, 601504
1, 286560, Note_on_c, 0, 60, 36
1, 286560, Note_on_c, 0, 63, 41
1, 286560, Note_on_c, 0, 55, 31
1, 286560, Note_on_c, 0, 48, 26
1, 286598, Control_c, 0, 64, 127
1, 286800, Tempo, 567376
1, 286980, Tempo, 505263
1, 287010, Note_on_c, 0, 62, 36
1, 287040, Tempo, 601504
1, 287040, Note_on_c, 0, 62, 0
1, 287040, Note_on_c, 0, 55, 0
1, 287040, Note_on_c, 0, 60, 0
1, 287040, Note_on_c, 0, 63, 0
1, 287040, Note_on_c, 0, 48, 0
1, 287040, Note_on_c, 0, 59, 42
1, 287040, Note_on_c, 0, 63, 50
1, 287040, Note_on_c, 0, 51, 34
1, 287040, Note_on_c, 0, 44, 32
1, 287058, Control_c, 0, 64, 0
1, 287160, Note_on_c, 0, 44, 0
1, 287160, Note_on_c, 0, 59, 0
1, 287160, Note_on_c, 0, 63, 0
1, 287160, Note_on_c, 0, 51, 0
1, 287280, Tempo, 676056
1, 287280, Note_on_c, 0, 91, 50
1, 287280, Note_on_c, 0, 79, 42
1, 287280, Note_on_c, 0, 39, 40
1, 287340, Note_on_c, 0, 39, 0
1, 287340, Note_on_c, 0, 79, 0
1, 287340, Note_on_c, 0, 91, 0
1, 287365, Control_c, 0, 64, 127
1, 287520, Tempo, 601504
1, 287520, Note_on_c, 0, 75, 36
1, 287520, Note_on_c, 0, 87, 41
1, 287520, Note_on_c, 0, 55, 31
1, 287520, Note_on_c, 0, 46, 26
1, 287760, Tempo, 567376
1, 287940, Tempo, 505263
1, 287970, Note_on_c, 0, 86, 36
1, 288000, Tempo, 646900
1, 288000, Note_on_c, 0, 86, 0
1, 288000, Note_on_c, 0, 55, 0
1, 288000, Note_on_c, 0, 75, 0
1, 288000, Note_on_c, 0, 87, 0
1, 288000, Note_on_c, 0, 46, 0
1, 288000, Note_on_c, 0, 75, 42
1, 288000, Note_on_c, 0, 87, 50
1, 288000, Note_on_c, 0, 55, 34
1, 288000, Note_on_c, 0, 46, 32
1, 288018, Control_c, 0, 64, 0
1, 288120, Note_on_c, 0, 46, 0
1, 288120, Note_on_c, 0, 75, 0
1, 288120, Note_on_c, 0, 87, 0
1, 288120, Note_on_c, 0, 55, 0
1, 288180, Tempo, 509554
1, 288210, Note_on_c, 0, 66, 36
1, 288240, Tempo, 676056
1, 288240, Note_on_c, 0, 66, 0
1, 288240, Note_on_c, 0, 67, 50
1, 288240, Note_on_c, 0, 59, 42
1, 288240, Note_on_c, 0, 43, 32
1, 288240, Note_on_c, 0, 50, 40
1, 288300, Note_on_c, 0, 50, 0
1, 288300, Note_on_c, 0, 67, 0
1, 288300, Note_on_c, 0, 59, 0
1, 288300, Note_on_c, 0, 43, 0
1, 288480, Tempo, 601504
1, 288480, Note_on_c, 0, 60, 36
1, 288480, Note_on_c, 0, 63, 41
1, 288480, Note_on_c, 0, 55, 31
1, 288480, Note_on_c, 0, 48, 26
1, 288514, Control_c, 0, 64, 127
1, 288720, Tempo, 567376
1, 288900, Tempo, 505263
1, 288930, Note_on_c, 0, 62, 36
1, 288960, Tempo, 626632
1, 288960, Note_on_c, 0, 62, 0
1, 288960, Note_on_c, 0, 55, 0
1, 288960, Note_on_c, 0, 60, 0
1, 288960, Note_on_c, 0, 63, 0
1, 288960, Note_on_c, 0, 48, 0
1, 288960, Note_on_c, 0, 59, 42
1, 288960, Note_on_c, 0, 63, 50
1, 288960, Note_on_c, 0, 51, 34
1, 288960, Note_on_c, 0, 44, 32
1, 288978, Control_c, 0, 64, 0
1, 289080, Note_on_c, 0, 44, 0
1, 289080, Note_on_c, 0, 59, 0
1, 289080, Note_on_c, 0, 63, 0
1, 289080, Note_on_c, 0, 51, 0
1, 289200, Tempo, 725076
1, 289200, Note_on_c, 0, 55, 42
1, 289200, Note_on_c, 0, 67, 50
1, 289200, Note_on_c, 0, 58, 42
1, 289200, Note_on_c, 0, 39, 32
1, 289200, Note_on_c, 0, 51, 40
1, 289260, Note_on_c, 0, 51, 0
1, 289260, Note_on_c, 0, 58, 0
1, 289260, Note_on_c, 0, 55, 0
1, 289260, Note_on_c, 0, 67, 0
1, 289260, Note_on_c, 0, 39, 0
1, 289440, Tempo, 646900
1, 289440, Note_on_c, 0, 55, 36
1, 289440, Note_on_c, 0, 60, 36
1, 289440, Note_on_c, 0, 63, 41
1, 289440, Note_on_c, 0, 48, 31
1, 289440, Note_on_c, 0, 36, 26
1, 289490, Control_c, 0, 64, 127
1, 289680, Tempo, 601504
1, 289860, Tempo, 505263
1, 289890, Note_on_c, 0, 62, 36
1, 289920, Tempo, 633245
1, 289920, Note_on_c, 0, 62, 0
1, 289920, Note_on_c, 0, 60, 0
1, 289920, Note_on_c, 0, 63, 0
1, 289920, Note_on_c, 0, 55, 0
1, 289920, Note_on_c, 0, 36, 0
1, 289920, Note_on_c, 0, 48, 0
1, 289920, Note_on_c, 0, 56, 42
1, 289920, Note_on_c, 0, 59, 42
1, 289920, Note_on_c, 0, 63, 50
1, 289920, Note_on_c, 0, 44, 34
1, 289920, Note_on_c, 0, 32, 32
1, 289938, Control_c, 0, 64, 0
1, 290040, Note_on_c, 0, 32, 0
1, 290040, Note_on_c, 0, 63, 0
1, 290040, Note_on_c, 0, 56, 0
1, 290040, Note_on_c, 0, 59, 0
1, 290040, Note_on_c, 0, 44, 0
1, 290160, Tempo, 725076
1, 290160, Note_on_c, 0, 55, 42
1, 290160, Note_on_c, 0, 67, 50
1, 290160, Note_on_c, 0, 58, 42
1, 290160, Note_on_c, 0, 39, 32
1, 290160, Note_on_c, 0, 51, 40
1, 290220, Note_on_c, 0, 51, 0
1, 290220, Note_on_c, 0, 58, 0
1, 290220, Note_on_c, 0, 55, 0
1, 290220, Note_on_c, 0, 67, 0
1, 290220, Note_on_c, 0, 39, 0
1, 290400, Tempo, 640000
1, 290400, Note_on_c, 0, 55, 36
1, 290400, Note_on_c, 0, 60, 36
1, 290400, Note_on_c, 0, 63, 41
1, 290400, Note_on_c, 0, 48, 31
1, 290400, Note_on_c, 0, 36, 26
1, 290450, Control_c, 0, 64, 127
1, 290640, Tempo, 601504
1, 290820, Tempo, 505263
1, 290850, Note_on_c, 0, 62, 36
1, 290880, Tempo, 707965
1, 290880, Note_on_c, 0, 62, 0
1, 290880, Note_on_c, 0, 60, 0
1, 290880, Note_on_c, 0, 63, 0
1, 290880, Note_on_c, 0, 55, 0
1, 290880, Note_on_c, 0, 36, 0
1, 290880, Note_on_c, 0, 48, 0
1, 290880, Note_on_c, 0, 56, 42
1, 290880, Note_on_c, 0, 59, 42
1, 290880, Note_on_c, 0, 63, 50
1, 290880, Note_on_c, 0, 44, 34
1, 290880, Note_on_c, 0, 32, 32
1, 290898, Control_c, 0, 64, 0
1, 291000, Note_on_c, 0, 32, 0
1, 291000, Note_on_c, 0, 63, 0
1, 291000, Note_on_c, 0, 56, 0
1, 291000, Note_on_c, 0, 59, 0
1, 291000, Note_on_c, 0, 44, 0
1, 291120, Tempo, 676056
1, 291120, Note_on_c, 0, 55, 39
1, 291120, Note_on_c, 0, 67, 46
1, 291120, Note_on_c, 0, 58, 39
1, 291120, Note_on_c, 0, 39, 33
1, 291120, Note_on_c, 0, 51, 39
1, 291120, Control_c, 0, 64, 127
1, 291600, Note_on_c, 0, 51, 0
1, 291600, Note_on_c, 0, 58, 0
1, 291600, Note_on_c, 0, 55, 0
1, 291600, Note_on_c, 0, 67, 0
1, 291600, Note_on_c, 0, 39, 0
1, 291600, Note_on_c, 0, 55, 33
1, 291600, Note_on_c, 0, 60, 33
1, 291600, Note_on_c, 0, 63, 39
1, 291600, Note_on_c, 0, 36, 22
1, 291600, Note_on_c, 0, 48, 31
1, 291615, Control_c, 0, 64, 0
1, 291867, Control_c, 0, 64, 127
1, 292080, Note_on_c, 0, 48, 0
1, 292080, Note_on_c, 0, 63, 0
1, 292080, Note_on_c, 0, 55, 0
1, 292080, Note_on_c, 0, 60, 0
1, 292080, Note_on_c, 0, 36, 0
1, 292080, Control_c, 0, 64, 0
1, 292500, Tempo, 536913
1, 292530, Note_on_c, 0, 62, 36
1, 292560, Tempo, 676056
1, 292560, Note_on_c, 0, 62, 0
1, 292560, Note_on_c, 0, 56, 33
1, 292560, Note_on_c, 0, 59, 33
1, 292560, Note_on_c, 0, 63, 39
1, 292560, Note_on_c, 0, 32, 22
1, 292560, Note_on_c, 0, 44, 31
1, 292980, Note_on_c, 0, 63, 0
1, 292980, Note_on_c, 0, 56, 0
1, 292980, Note_on_c, 0, 59, 0
1, 292980, Note_on_c, 0, 55, 37
1, 293010, Note_on_c, 0, 63, 39
1, 293040, Note_on_c, 0, 32, 0
1, 293040, Note_on_c, 0, 44, 0
1, 293040, Note_on_c, 0, 70, 40
1, 293040, Note_on_c, 0, 27, 22
1, 293040, Note_on_c, 0, 39, 31
1, 293149, Control_c, 0, 64, 127
1, 293280, Note_on_c, 0, 39, 0
1, 293280, Note_on_c, 0, 43, 31
1, 293340, Tempo, 578313
1, 293400, Note_on_c, 0, 43, 0
1, 293400, Note_on_c, 0, 44, 30
1, 293520, Note_on_c, 0, 44, 0
1, 293520, Note_on_c, 0, 27, 0
1, 293520, Note_on_c, 0, 45, 30
1, 293640, Note_on_c, 0, 45, 0
1, 293640, Note_on_c, 0, 46, 30
1, 293760, Note_on_c, 0, 46, 0
1, 293760, Note_on_c, 0, 51, 30
1, 293880, Note_on_c, 0, 51, 0
1, 293880, Note_on_c, 0, 55, 30
1, 294000, Note_on_c, 0, 55, 0
1, 294000, Note_on_c, 0, 63, 0
1, 294000, Note_on_c, 0, 55, 0
1, 294000, Note_on_c, 0, 70, 0
1, 294000, Note_on_c, 0, 56, 30
1, 294005, Control_c, 0, 64, 0
1, 294016, Tempo, 572792
1, 294120, Note_on_c, 0, 56, 0
1, 294120, Note_on_c, 0, 57, 30
1, 294176, Tempo, 567376
1, 294240, Note_on_c, 0, 57, 0
1, 294240, Note_on_c, 0, 58, 30
1, 294336, Tempo, 562061
1, 294360, Note_on_c, 0, 58, 0
1, 294360, Note_on_c, 0, 63, 28
1, 294480, Tempo, 556845
1, 294480, Note_on_c, 0, 63, 0
1, 294480, Note_on_c, 0, 67, 28
1, 294600, Note_on_c, 0, 67, 0
1, 294600, Note_on_c, 0, 68, 27
1, 294640, Tempo, 551724
1, 294720, Note_on_c, 0, 68, 0
1, 294720, Note_on_c, 0, 69, 26
1, 294800, Tempo, 546697
1, 294840, Note_on_c, 0, 69, 0
1, 294840, Note_on_c, 0, 70, 25
1, 294944, Tempo, 541761
1, 294960, Note_on_c, 0, 70, 0
1, 294960, Note_on_c, 0, 75, 27
1, 294960, Control_c, 0, 64, 127
1, 295080, Note_on_c, 0, 75, 0
1, 295080, Note_on_c, 0, 79, 27
1, 295200, Note_on_c, 0, 79, 0
1, 295200, Note_on_c, 0, 80, 27
1, 295320, Note_on_c, 0, 80, 0
1, 295320, Note_on_c, 0, 81, 27
1, 295424, Tempo, 546697
1, 295440, Note_on_c, 0, 81, 0
1, 295440, Note_on_c, 0, 82, 27
1, 295520, Tempo, 551724
1, 295560, Note_on_c, 0, 82, 0
1, 295560, Note_on_c, 0, 87, 27
1, 295616, Tempo, 556845
1, 295680, Note_on_c, 0, 87, 0
1, 295680, Note_on_c, 0, 91, 27
1, 295712, Tempo, 562061
1, 295800, Note_on_c, 0, 91, 0
1, 295800, Note_on_c, 0, 92, 27
1, 295808, Tempo, 567376
1, 295888, Tempo, 572792
1, 295920, Note_on_c, 0, 92, 0
1, 295920, Note_on_c, 0, 93, 27
1, 295984, Tempo, 578313
1, 296040, Note_on_c, 0, 93, 0
1, 296040, Note_on_c, 0, 94, 27
1, 296080, Tempo, 583942
1, 296160, Note_on_c, 0, 94, 0
1, 296160, Note_on_c, 0, 99, 33
1, 296176, Tempo, 589681
1, 296252, Control_c, 0, 64, 0
1, 296272, Tempo, 595533
1, 296280, Note_on_c, 0, 99, 0
1, 296352, Tempo, 601504
1, 297840, Tempo, 343426
1, 297840, Marker_t, "Presto"
1, 297840, Note_on_c, 0, 70, 81
1, 297840, Note_on_c, 0, 82, 96
1, 297840, Note_on_c, 0, 46, 61
1, 297840, Note_on_c, 0, 58, 72
1, 297840, Control_c, 0, 64, 127
1, 298200, Note_on_c, 0, 58, 0
1, 298200, Note_on_c, 0, 70, 0
1, 298200, Note_on_c, 0, 82, 0
1, 298200, Note_on_c, 0, 46, 0
1, 298320, Tempo, 331583
1, 298320, Note_on_c, 0, 70, 77
1, 298320, Note_on_c, 0, 82, 91
1, 298320, Note_on_c, 0, 46, 57
1, 298320, Note_on_c, 0, 58, 68
1, 298363, Control_c, 0, 64, 0
1, 298410, Note_on_c, 0, 58, 0
1, 298410, Note_on_c, 0, 70, 0
1, 298410, Note_on_c, 0, 82, 0
1, 298410, Note_on_c, 0, 46, 0
1, 298560, Note_on_c, 0, 70, 77
1, 298560, Note_on_c, 0, 82, 91
1, 298560, Note_on_c, 0, 46, 57
1, 298560, Note_on_c, 0, 58, 68
1, 298650, Note_on_c, 0, 58, 0
1, 298650, Note_on_c, 0, 70, 0
1, 298650, Note_on_c, 0, 82, 0
1, 298650, Note_on_c, 0, 46, 0
1, 298800, Tempo, 351803
1, 298800, Note_on_c, 0, 75, 85
1, 298800, Note_on_c, 0, 87, 101
1, 298800, Note_on_c, 0, 51, 63
1, 298800, Note_on_c, 0, 63, 75
1, 298864, Control_c, 0, 64, 127
1, 299520, Note_on_c, 0, 63, 0
1, 299520, Note_on_c, 0, 75, 0
1, 299520, Note_on_c, 0, 87, 0
1, 299520, Note_on_c, 0, 51, 0
1, 299520, Note_on_c, 0, 75, 74
1, 299520, Note_on_c, 0, 87, 89
1, 299520, Note_on_c, 0, 51, 55
1, 299520, Note_on_c, 0, 63, 66
1, 299534, Control_c, 0, 64, 0
1, 299610, Note_on_c, 0, 63, 0
1, 299610, Note_on_c, 0, 75, 0
1, 299610, Note_on_c, 0, 87, 0
1, 299610, Note_on_c, 0, 51, 0
1, 299760, Tempo, 322321
1, 299760, Note_on_c, 0, 73, 79
1, 299760, Note_on_c, 0, 85, 93
1, 299760, Note_on_c, 0, 49, 58
1, 299760, Note_on_c, 0, 61, 69
1, 299806, Control_c, 0, 64, 127
1, 299850, Note_on_c, 0, 61, 0
1, 299850, Note_on_c, 0, 73, 0
1, 299850, Note_on_c, 0, 85, 0
1, 299850, Note_on_c, 0, 49, 0
1, 300000, Note_on_c, 0, 71, 79
1, 300000, Note_on_c, 0, 83, 93
1, 300000, Note_on_c, 0, 47, 58
1, 300000, Note_on_c, 0, 59, 69
1, 300090, Note_on_c, 0, 59, 0
1, 300090, Note_on_c, 0, 71, 0
1, 300090, Note_on_c, 0, 83, 0
1, 300090, Note_on_c, 0, 47, 0
1, 300240, Tempo, 335439
1, 300240, Note_on_c, 0, 70, 78
1, 300240, Note_on_c, 0, 82, 92
1, 300240, Note_on_c, 0, 46, 57
1, 300240, Note_on_c, 0, 58, 68
1, 300240, Control_c, 0, 64, 0
1, 300330, Note_on_c, 0, 58, 0
1, 300330, Note_on_c, 0, 70, 0
1, 300330, Note_on_c, 0, 82, 0
1, 300330, Note_on_c, 0, 46, 0
1, 300480, Note_on_c, 0, 68, 81
1, 300480, Note_on_c, 0, 80, 96
1, 300480, Note_on_c, 0, 44, 61
1, 300480, Note_on_c, 0, 56, 72
1, 300570, Note_on_c, 0, 56, 0
1, 300570, Note_on_c, 0, 68, 0
1, 300570, Note_on_c, 0, 80, 0
1, 300570, Note_on_c, 0, 44, 0
1, 300720, Tempo, 351803
1, 300720, Note_on_c, 0, 70, 80
1, 300720, Note_on_c, 0, 82, 94
1, 300720, Note_on_c, 0, 46, 60
1, 300720, Note_on_c, 0, 58, 70
1, 300810, Note_on_c, 0, 58, 0
1, 300810, Note_on_c, 0, 70, 0
1, 300810, Note_on_c, 0, 82, 0
1, 300810, Note_on_c, 0, 46, 0
1, 300960, Note_on_c, 0, 63, 75
1, 300960, Note_on_c, 0, 75, 90
1, 300960, Note_on_c, 0, 39, 56
1, 300960, Note_on_c, 0, 51, 67
1, 301050, Note_on_c, 0, 51, 0
1, 301050, Note_on_c, 0, 63, 0
1, 301050, Note_on_c, 0, 75, 0
1, 301050, Note_on_c, 0, 39, 0
1, 301200, Tempo, 395179
1, 301200, Note_on_c, 0, 63, 75
1, 301200, Note_on_c, 0, 75, 90
1, 301200, Note_on_c, 0, 39, 56
1, 301200, Note_on_c, 0, 51, 67
1, 301680, Tempo, 349671
1, 301680, Note_on_c, 0, 51, 0
1, 301680, Note_on_c, 0, 63, 0
1, 301680, Note_on_c, 0, 75, 0
1, 301680, Note_on_c, 0, 39, 0
1, 301680, Note_on_c, 0, 67, 57
1, 301680, Note_on_c, 0, 70, 68
1, 301680, Note_on_c, 0, 63, 51
1, 301745, Control_c, 0, 64, 127
1, 302040, Note_on_c, 0, 63, 0
1, 302040, Note_on_c, 0, 70, 0
1, 302040, Note_on_c, 0, 67, 0
1, 302160, Tempo, 331583
1, 302160, Note_on_c, 0, 67, 54
1, 302160, Note_on_c, 0, 70, 64
1, 302160, Note_on_c, 0, 61, 40
1, 302164, Note_on_c, 0, 63, 48
1, 302173, Control_c, 0, 64, 0
1, 302250, Note_on_c, 0, 61, 0
1, 302250, Note_on_c, 0, 67, 0
1, 302250, Note_on_c, 0, 70, 0
1, 302254, Note_on_c, 0, 63, 0
1, 302400, Note_on_c, 0, 70, 64
1, 302400, Note_on_c, 0, 67, 54
1, 302400, Note_on_c, 0, 61, 40
1, 302400, Note_on_c, 0, 63, 48
1, 302490, Note_on_c, 0, 63, 0
1, 302490, Note_on_c, 0, 70, 0
1, 302490, Note_on_c, 0, 67, 0
1, 302490, Note_on_c, 0, 61, 0
1, 302640, Tempo, 347564
1, 302640, Note_on_c, 0, 66, 60
1, 302640, Note_on_c, 0, 75, 71
1, 302640, Note_on_c, 0, 59, 45
1, 302640, Note_on_c, 0, 63, 53
1, 302824, Control_c, 0, 64, 127
1, 303360, Note_on_c, 0, 63, 0
1, 303360, Note_on_c, 0, 66, 0
1, 303360, Note_on_c, 0, 75, 0
1, 303360, Note_on_c, 0, 59, 0
1, 303360, Note_on_c, 0, 75, 62
1, 303360, Note_on_c, 0, 66, 52
1, 303360, Note_on_c, 0, 59, 39
1, 303360, Note_on_c, 0, 63, 46
1, 303417, Control_c, 0, 64, 0
1, 303450, Note_on_c, 0, 63, 0
1, 303450, Note_on_c, 0, 75, 0
1, 303450, Note_on_c, 0, 66, 0
1, 303450, Note_on_c, 0, 59, 0
1, 303600, Tempo, 322321
1, 303600, Note_on_c, 0, 67, 56
1, 303600, Note_on_c, 0, 73, 66
1, 303600, Note_on_c, 0, 63, 55
1, 303600, Note_on_c, 0, 58, 49
1, 303646, Control_c, 0, 64, 127
1, 303690, Note_on_c, 0, 58, 0
1, 303690, Note_on_c, 0, 73, 0
1, 303840, Note_on_c, 0, 63, 0
1, 303840, Note_on_c, 0, 67, 0
1, 303840, Note_on_c, 0, 70, 66
1, 303840, Note_on_c, 0, 61, 49
1, 303875, Control_c, 0, 64, 0
1, 303930, Note_on_c, 0, 61, 0
1, 303930, Note_on_c, 0, 70, 0
1, 304080, Tempo, 335439
1, 304080, Note_on_c, 0, 63, 55
1, 304080, Note_on_c, 0, 71, 65
1, 304080, Note_on_c, 0, 56, 48
1, 304170, Note_on_c, 0, 56, 0
1, 304170, Note_on_c, 0, 71, 0
1, 304320, Tempo, 339386
1, 304320, Note_on_c, 0, 63, 0
1, 304320, Note_on_c, 0, 68, 68
1, 304320, Note_on_c, 0, 59, 51
1, 304410, Note_on_c, 0, 59, 0
1, 304410, Note_on_c, 0, 68, 0
1, 304560, Tempo, 353961
1, 304560, Note_on_c, 0, 63, 56
1, 304560, Note_on_c, 0, 70, 67
1, 304560, Note_on_c, 0, 55, 50
1, 304650, Note_on_c, 0, 55, 0
1, 304650, Note_on_c, 0, 70, 0
1, 304798, Note_on_c, 0, 63, 0
1, 304800, Note_on_c, 0, 63, 63
1, 304800, Note_on_c, 0, 58, 47
1, 304890, Note_on_c, 0, 58, 0
1, 304890, Note_on_c, 0, 63, 0
1, 305040, Tempo, 392490
1, 305040, Note_on_c, 0, 63, 57
1, 305520, Tempo, 347564
1, 305520, Note_on_c, 0, 63, 0
1, 305520, Note_on_c, 0, 67, 57
1, 305520, Note_on_c, 0, 70, 68
1, 305520, Note_on_c, 0, 63, 51
1, 305579, Control_c, 0, 64, 127
1, 305880, Note_on_c, 0, 63, 0
1, 305880, Note_on_c, 0, 70, 0
1, 305880, Note_on_c, 0, 67, 0
1, 305994, Control_c, 0, 64, 0
1, 306000, Tempo, 331583
1, 306000, Note_on_c, 0, 67, 54
1, 306000, Note_on_c, 0, 70, 64
1, 306000, Note_on_c, 0, 61, 40
1, 306004, Note_on_c, 0, 63, 48
1, 306090, Note_on_c, 0, 61, 0
1, 306090, Note_on_c, 0, 67, 0
1, 306090, Note_on_c, 0, 70, 0
1, 306094, Note_on_c, 0, 63, 0
1, 306240, Note_on_c, 0, 70, 64
1, 306240, Note_on_c, 0, 67, 54
1, 306240, Note_on_c, 0, 61, 40
1, 306240, Note_on_c, 0, 63, 48
1, 306330, Note_on_c, 0, 63, 0
1, 306330, Note_on_c, 0, 70, 0
1, 306330, Note_on_c, 0, 67, 0
1, 306330, Note_on_c, 0, 61, 0
1, 306480, Tempo, 345483
1, 306480, Note_on_c, 0, 66, 60
1, 306480, Note_on_c, 0, 75, 71
1, 306480, Note_on_c, 0, 59, 45
1, 306480, Note_on_c, 0, 63, 53
1, 306607, Control_c, 0, 64, 127
1, 306953, Note_on_c, 0, 67, 60
1, 306960, Note_on_c, 0, 66, 0
1, 307193, Note_on_c, 0, 67, 0
1, 307200, Note_on_c, 0, 75, 0
1, 307200, Note_on_c, 0, 59, 0
1, 307200, Note_on_c, 0, 63, 0
1, 307200, Note_on_c, 0, 75, 62
1, 307200, Note_on_c, 0, 68, 52
1, 307200, Note_on_c, 0, 59, 39
1, 307200, Note_on_c, 0, 63, 46
1, 307214, Control_c, 0, 64, 0
1, 307290, Note_on_c, 0, 63, 0
1, 307290, Note_on_c, 0, 75, 0
1, 307290, Note_on_c, 0, 68, 0
1, 307290, Note_on_c, 0, 59, 0
1, 307440, Tempo, 322321
1, 307440, Note_on_c, 0, 64, 56
1, 307440, Note_on_c, 0, 68, 56
1, 307440, Note_on_c, 0, 73, 66
1, 307440, Note_on_c, 0, 58, 49
1, 307475, Control_c, 0, 64, 127
1, 307530, Note_on_c, 0, 58, 0
1, 307530, Note_on_c, 0, 73, 0
1, 307680, Note_on_c, 0, 68, 0
1, 307680, Note_on_c, 0, 64, 0
1, 307680, Note_on_c, 0, 71, 66
1, 307680, Note_on_c, 0, 61, 49
1, 307697, Control_c, 0, 64, 0
1, 307770, Note_on_c, 0, 61, 0
1, 307770, Note_on_c, 0, 71, 0
1, 307920, Tempo, 347564
1, 307920, Note_on_c, 0, 61, 55
1, 307920, Note_on_c, 0, 67, 55
1, 307920, Note_on_c, 0, 70, 65
1, 307920, Note_on_c, 0, 51, 48
1, 308010, Note_on_c, 0, 51, 0
1, 308010, Note_on_c, 0, 70, 0
1, 308160, Note_on_c, 0, 67, 0
1, 308160, Note_on_c, 0, 61, 0
1, 308160, Note_on_c, 0, 63, 68
1, 308160, Note_on_c, 0, 55, 51
1, 308250, Note_on_c, 0, 55, 0
1, 308250, Note_on_c, 0, 63, 0
1, 308400, Tempo, 356146
1, 308400, Note_on_c, 0, 63, 58
1, 308400, Note_on_c, 0, 68, 70
1, 308400, Note_on_c, 0, 56, 43
1, 308400, Note_on_c, 0, 59, 52
1, 308460, Note_on_c, 0, 56, 0
1, 308490, Note_on_c, 0, 63, 0
1, 308490, Note_on_c, 0, 68, 0
1, 308490, Note_on_c, 0, 59, 0
1, 308640, Note_on_c, 0, 63, 66
1, 308640, Note_on_c, 0, 59, 49
1, 308730, Note_on_c, 0, 59, 0
1, 308730, Note_on_c, 0, 63, 0
1, 308880, Note_on_c, 0, 63, 60
1, 308880, Note_on_c, 0, 68, 70
1, 308880, Note_on_c, 0, 56, 47
1, 308880, Note_on_c, 0, 59, 56
1, 309240, Note_on_c, 0, 59, 0
1, 309240, Note_on_c, 0, 63, 0
1, 309240, Note_on_c, 0, 68, 0
1, 309240, Note_on_c, 0, 56, 0
1, 309360, Tempo, 343426
1, 309360, Note_on_c, 0, 70, 81
1, 309360, Note_on_c, 0, 82, 96
1, 309360, Note_on_c, 0, 46, 61
1, 309360, Note_on_c, 0, 58, 72
1, 309438, Control_c, 0, 64, 127
1, 309720, Note_on_c, 0, 58, 0
1, 309720, Note_on_c, 0, 70, 0
1, 309720, Note_on_c, 0, 82, 0
1, 309720, Note_on_c, 0, 46, 0
1, 309833, Control_c, 0, 64, 0
1, 309840, Tempo, 331583
1, 309840, Note_on_c, 0, 70, 77
1, 309840, Note_on_c, 0, 82, 91
1, 309840, Note_on_c, 0, 46, 57
1, 309840, Note_on_c, 0, 58, 68
1, 309930, Note_on_c, 0, 58, 0
1, 309930, Note_on_c, 0, 70, 0
1, 309930, Note_on_c, 0, 82, 0
1, 309930, Note_on_c, 0, 46, 0
1, 310080, Note_on_c, 0, 70, 77
1, 310080, Note_on_c, 0, 82, 91
1, 310080, Note_on_c, 0, 46, 57
1, 310080, Note_on_c, 0, 58, 68
1, 310170, Note_on_c, 0, 58, 0
1, 310170, Note_on_c, 0, 70, 0
1, 310170, Note_on_c, 0, 82, 0
1, 310170, Note_on_c, 0, 46, 0
1, 310320, Tempo, 351803
1, 310320, Note_on_c, 0, 75, 85
1, 310320, Note_on_c, 0, 87, 101
1, 310320, Note_on_c, 0, 51, 63
1, 310320, Note_on_c, 0, 63, 75
1, 310440, Control_c, 0, 64, 127
1, 311040, Note_on_c, 0, 63, 0
1, 311040, Note_on_c, 0, 75, 0
1, 311040, Note_on_c, 0, 87, 0
1, 311040, Note_on_c, 0, 51, 0
1, 311040, Note_on_c, 0, 75, 74
1, 311040, Note_on_c, 0, 87, 89
1, 311040, Note_on_c, 0, 51, 55
1, 311040, Note_on_c, 0, 63, 66
1, 311054, Control_c, 0, 64, 0
1, 311130, Note_on_c, 0, 63, 0
1, 311130, Note_on_c, 0, 75, 0
1, 311130, Note_on_c, 0, 87, 0
1, 311130, Note_on_c, 0, 51, 0
1, 311280, Tempo, 324132
1, 311280, Note_on_c, 0, 73, 79
1, 311280, Note_on_c, 0, 85, 93
1, 311280, Note_on_c, 0, 49, 58
1, 311280, Note_on_c, 0, 61, 69
1, 311343, Control_c, 0, 64, 127
1, 311370, Note_on_c, 0, 61, 0
1, 311370, Note_on_c, 0, 73, 0
1, 311370, Note_on_c, 0, 85, 0
1, 311370, Note_on_c, 0, 49, 0
1, 311520, Note_on_c, 0, 71, 79
1, 311520, Note_on_c, 0, 83, 93
1, 311520, Note_on_c, 0, 47, 58
1, 311520, Note_on_c, 0, 59, 69
1, 311610, Note_on_c, 0, 59, 0
1, 311610, Note_on_c, 0, 71, 0
1, 311610, Note_on_c, 0, 83, 0
1, 311610, Note_on_c, 0, 47, 0
1, 311760, Tempo, 335439
1, 311760, Note_on_c, 0, 70, 78
1, 311760, Note_on_c, 0, 82, 92
1, 311760, Note_on_c, 0, 46, 57
1, 311760, Note_on_c, 0, 58, 68
1, 311760, Control_c, 0, 64, 0
1, 311850, Note_on_c, 0, 58, 0
1, 311850, Note_on_c, 0, 70, 0
1, 311850, Note_on_c, 0, 82, 0
1, 311850, Note_on_c, 0, 46, 0
1, 312000, Note_on_c, 0, 68, 81
1, 312000, Note_on_c, 0, 80, 96
1, 312000, Note_on_c, 0, 44, 61
1, 312000, Note_on_c, 0, 56, 72
1, 312090, Note_on_c, 0, 56, 0
1, 312090, Note_on_c, 0, 68, 0
1, 312090, Note_on_c, 0, 80, 0
1, 312090, Note_on_c, 0, 44, 0
1, 312240, Tempo, 356146
1, 312240, Note_on_c, 0, 70, 80
1, 312240, Note_on_c, 0, 82, 94
1, 312240, Note_on_c, 0, 46, 60
1, 312240, Note_on_c, 0, 58, 70
1, 312330, Note_on_c, 0, 58, 0
1, 312330, Note_on_c, 0, 70, 0
1, 312330, Note_on_c, 0, 82, 0
1, 312330, Note_on_c, 0, 46, 0
1, 312480, Note_on_c, 0, 63, 75
1, 312480, Note_on_c, 0, 75, 90
1, 312480, Note_on_c, 0, 39, 56
1, 312480, Note_on_c, 0, 51, 67
1, 312570, Note_on_c, 0, 51, 0
1, 312570, Note_on_c, 0, 63, 0
1, 312570, Note_on_c, 0, 75, 0
1, 312570, Note_on_c, 0, 39, 0
1, 312720, Tempo, 395179
1, 312720, Note_on_c, 0, 63, 75
1, 312720, Note_on_c, 0, 75, 90
1, 312720, Note_on_c, 0, 39, 56
1, 312720, Note_on_c, 0, 51, 67
1, 313200, Tempo, 349671
1, 313200, Note_on_c, 0, 51, 0
1, 313200, Note_on_c, 0, 63, 0
1, 313200, Note_on_c, 0, 75, 0
1, 313200, Note_on_c, 0, 39, 0
1, 313200, Note_on_c, 0, 67, 57
1, 313200, Note_on_c, 0, 70, 68
1, 313200, Note_on_c, 0, 63, 51
1, 313265, Control_c, 0, 64, 127
1, 313560, Note_on_c, 0, 63, 0
1, 313560, Note_on_c, 0, 70, 0
1, 313560, Note_on_c, 0, 67, 0
1, 313667, Control_c, 0, 64, 0
1, 313680, Tempo, 331583
1, 313680, Note_on_c, 0, 67, 54
1, 313680, Note_on_c, 0, 70, 64
1, 313680, Note_on_c, 0, 61, 40
1, 313684, Note_on_c, 0, 63, 48
1, 313770, Note_on_c, 0, 61, 0
1, 313770, Note_on_c, 0, 67, 0
1, 313770, Note_on_c, 0, 70, 0
1, 313774, Note_on_c, 0, 63, 0
1, 313920, Note_on_c, 0, 70, 64
1, 313920, Note_on_c, 0, 67, 54
1, 313920, Note_on_c, 0, 61, 40
1, 313920, Note_on_c, 0, 63, 48
1, 314010, Note_on_c, 0, 63, 0
1, 314010, Note_on_c, 0, 70, 0
1, 314010, Note_on_c, 0, 67, 0
1, 314010, Note_on_c, 0, 61, 0
1, 314160, Tempo, 347564
1, 314160, Note_on_c, 0, 66, 60
1, 314160, Note_on_c, 0, 75, 71
1, 314160, Note_on_c, 0, 59, 45
1, 314160, Note_on_c, 0, 63, 53
1, 314266, Control_c, 0, 64, 127
1, 314880, Note_on_c, 0, 63, 0
1, 314880, Note_on_c, 0, 66, 0
1, 314880, Note_on_c, 0, 75, 0
1, 314880, Note_on_c, 0, 59, 0
1, 314880, Note_on_c, 0, 75, 62
1, 314880, Note_on_c, 0, 66, 52
1, 314880, Note_on_c, 0, 59, 39
1, 314880, Note_on_c, 0, 63, 46
1, 314937, Control_c, 0, 64, 0
1, 314970, Note_on_c, 0, 63, 0
1, 314970, Note_on_c, 0, 75, 0
1, 314970, Note_on_c, 0, 66, 0
1, 314970, Note_on_c, 0, 59, 0
1, 315120, Tempo, 322321
1, 315120, Note_on_c, 0, 67, 56
1, 315120, Note_on_c, 0, 73, 66
1, 315120, Note_on_c, 0, 63, 55
1, 315120, Note_on_c, 0, 58, 49
1, 315183, Control_c, 0, 64, 127
1, 315210, Note_on_c, 0, 58, 0
1, 315210, Note_on_c, 0, 73, 0
1, 315360, Note_on_c, 0, 63, 0
1, 315360, Note_on_c, 0, 67, 0
1, 315360, Note_on_c, 0, 70, 66
1, 315360, Note_on_c, 0, 61, 49
1, 315395, Control_c, 0, 64, 0
1, 315450, Note_on_c, 0, 61, 0
1, 315450, Note_on_c, 0, 70, 0
1, 315600, Tempo, 335439
1, 315600, Note_on_c, 0, 63, 55
1, 315600, Note_on_c, 0, 71, 65
1, 315600, Note_on_c, 0, 56, 48
1, 315690, Note_on_c, 0, 56, 0
1, 315690, Note_on_c, 0, 71, 0
1, 315840, Note_on_c, 0, 63, 0
1, 315840, Note_on_c, 0, 68, 68
1, 315840, Note_on_c, 0, 59, 51
1, 315930, Note_on_c, 0, 59, 0
1, 315930, Note_on_c, 0, 68, 0
1, 316080, Tempo, 351803
1, 316080, Note_on_c, 0, 63, 56
1, 316080, Note_on_c, 0, 70, 67
1, 316080, Note_on_c, 0, 55, 50
1, 316170, Note_on_c, 0, 55, 0
1, 316170, Note_on_c, 0, 70, 0
1, 316318, Note_on_c, 0, 63, 0
1, 316320, Note_on_c, 0, 63, 63
1, 316320, Note_on_c, 0, 58, 47
1, 316410, Note_on_c, 0, 58, 0
1, 316410, Note_on_c, 0, 63, 0
1, 316560, Tempo, 392490
1, 316560, Note_on_c, 0, 63, 57
1, 317040, Tempo, 347564
1, 317040, Note_on_c, 0, 63, 0
1, 317040, Note_on_c, 0, 67, 57
1, 317040, Note_on_c, 0, 70, 68
1, 317040, Note_on_c, 0, 63, 51
1, 317099, Control_c, 0, 64, 127
1, 317400, Note_on_c, 0, 63, 0
1, 317400, Note_on_c, 0, 70, 0
1, 317400, Note_on_c, 0, 67, 0
1, 317520, Tempo, 322321
1, 317520, Note_on_c, 0, 67, 54
1, 317520, Note_on_c, 0, 70, 64
1, 317520, Note_on_c, 0, 61, 40
1, 317524, Note_on_c, 0, 63, 48
1, 317527, Control_c, 0, 64, 0
1, 317610, Note_on_c, 0, 61, 0
1, 317610, Note_on_c, 0, 67, 0
1, 317610, Note_on_c, 0, 70, 0
1, 317614, Note_on_c, 0, 63, 0
1, 317760, Note_on_c, 0, 70, 64
1, 317760, Note_on_c, 0, 67, 54
1, 317760, Note_on_c, 0, 61, 40
1, 317760, Note_on_c, 0, 63, 48
1, 317850, Note_on_c, 0, 63, 0
1, 317850, Note_on_c, 0, 70, 0
1, 317850, Note_on_c, 0, 67, 0
1, 317850, Note_on_c, 0, 61, 0
1, 318000, Tempo, 343426
1, 318000, Note_on_c, 0, 66, 60
1, 318000, Note_on_c, 0, 75, 71
1, 318000, Note_on_c, 0, 59, 45
1, 318000, Note_on_c, 0, 63, 53
1, 318134, Control_c, 0, 64, 127
1, 318473, Note_on_c, 0, 67, 60
1, 318480, Tempo, 353961
1, 318480, Note_on_c, 0, 66, 0
1, 318713, Note_on_c, 0, 67, 0
1, 318720, Note_on_c, 0, 75, 0
1, 318720, Note_on_c, 0, 59, 0
1, 318720, Note_on_c, 0, 63, 0
1, 318720, Note_on_c, 0, 75, 62
1, 318720, Note_on_c, 0, 68, 52
1, 318720, Note_on_c, 0, 59, 39
1, 318720, Note_on_c, 0, 63, 46
1, 318734, Control_c, 0, 64, 0
1, 318810, Note_on_c, 0, 63, 0
1, 318810, Note_on_c, 0, 75, 0
1, 318810, Note_on_c, 0, 68, 0
1, 318810, Note_on_c, 0, 59, 0
1, 318960, Tempo, 331583
1, 318960, Note_on_c, 0, 64, 56
1, 318960, Note_on_c, 0, 68, 56
1, 318960, Note_on_c, 0, 73, 66
1, 318960, Note_on_c, 0, 58, 49
1, 319006, Control_c, 0, 64, 127
1, 319050, Note_on_c, 0, 58, 0
1, 319050, Note_on_c, 0, 73, 0
1, 319200, Note_on_c, 0, 68, 0
1, 319200, Note_on_c, 0, 64, 0
1, 319200, Note_on_c, 0, 71, 66
1, 319200, Note_on_c, 0, 61, 49
1, 319217, Control_c, 0, 64, 0
1, 319290, Note_on_c, 0, 61, 0
1, 319290, Note_on_c, 0, 71, 0
1, 319440, Tempo, 362867
1, 319440, Note_on_c, 0, 61, 55
1, 319440, Note_on_c, 0, 67, 55
1, 319440, Note_on_c, 0, 70, 65
1, 319440, Note_on_c, 0, 51, 48
1, 319530, Note_on_c, 0, 51, 0
1, 319530, Note_on_c, 0, 70, 0
1, 319680, Note_on_c, 0, 67, 0
1, 319680, Note_on_c, 0, 61, 0
1, 319680, Note_on_c, 0, 63, 68
1, 319680, Note_on_c, 0, 55, 51
1, 319770, Note_on_c, 0, 55, 0
1, 319770, Note_on_c, 0, 63, 0
1, 319920, Tempo, 374649
1, 319920, Note_on_c, 0, 63, 58
1, 319920, Note_on_c, 0, 68, 70
1, 319920, Note_on_c, 0, 56, 43
1, 319920, Note_on_c, 0, 59, 52
1, 319980, Note_on_c, 0, 56, 0
1, 320010, Note_on_c, 0, 59, 0
1, 320010, Note_on_c, 0, 68, 0
1, 320158, Note_on_c, 0, 63, 0
1, 320160, Note_on_c, 0, 63, 66
1, 320160, Note_on_c, 0, 59, 49
1, 320250, Note_on_c, 0, 59, 0
1, 320250, Note_on_c, 0, 63, 0
1, 320400, Note_on_c, 0, 63, 60
1, 320400, Note_on_c, 0, 68, 70
1, 320400, Note_on_c, 0, 56, 47
1, 320400, Note_on_c, 0, 59, 56
1, 320760, Note_on_c, 0, 59, 0
1, 320760, Note_on_c, 0, 63, 0
1, 320760, Note_on_c, 0, 68, 0
1, 320760, Note_on_c, 0, 56, 0
1, 320880, Key_signature, -4, "major"
1, 320880, Tempo, 365163
1, 320880, Marker_t, "Un poco meno Presto"
1, 320880, Note_on_c, 0, 63, 55
1, 321000, Note_on_c, 0, 63, 0
1, 321120, Note_on_c, 0, 65, 49
1, 321240, Note_on_c, 0, 65, 0
1, 321360, Tempo, 365163
1, 321360, Note_on_c, 0, 67, 48
1, 321480, Note_on_c, 0, 67, 0
1, 321600, Note_on_c, 0, 68, 47
1, 321720, Note_on_c, 0, 68, 0
1, 321810, Note_on_c, 0, 39, 33
1, 321840, Note_on_c, 0, 61, 51
1, 321840, Note_on_c, 0, 63, 51
1, 321840, Note_on_c, 0, 70, 60
1, 321840, Note_on_c, 0, 55, 41
1, 321904, Control_c, 0, 64, 127
1, 321960, Note_on_c, 0, 55, 0
1, 322080, Tempo, 345483
1, 322080, Note_on_c, 0, 63, 0
1, 322080, Note_on_c, 0, 70, 0
1, 322080, Note_on_c, 0, 61, 0
1, 322080, Note_on_c, 0, 51, 37
1, 322200, Note_on_c, 0, 51, 0
1, 322320, Tempo, 333500
1, 322320, Note_on_c, 0, 39, 0
1, 322320, Note_on_c, 0, 61, 44
1, 322320, Note_on_c, 0, 70, 52
1, 322338, Control_c, 0, 64, 0
1, 322440, Note_on_c, 0, 70, 0
1, 322440, Note_on_c, 0, 61, 0
1, 322560, Tempo, 377098
1, 322560, Note_on_c, 0, 63, 44
1, 322560, Note_on_c, 0, 72, 52
1, 322680, Note_on_c, 0, 72, 0
1, 322680, Note_on_c, 0, 63, 0
1, 322770, Note_on_c, 0, 44, 32
1, 322800, Tempo, 356146
1, 322800, Note_on_c, 0, 60, 49
1, 322800, Note_on_c, 0, 63, 49
1, 322800, Note_on_c, 0, 68, 58
1, 322800, Note_on_c, 0, 56, 43
1, 322871, Control_c, 0, 64, 127
1, 322920, Note_on_c, 0, 56, 0
1, 323040, Note_on_c, 0, 63, 0
1, 323040, Note_on_c, 0, 68, 0
1, 323040, Note_on_c, 0, 60, 0
1, 323040, Note_on_c, 0, 51, 35
1, 323111, Control_c, 0, 64, 0
1, 323160, Note_on_c, 0, 51, 0
1, 323280, Note_on_c, 0, 44, 0
1, 323280, Note_on_c, 0, 63, 42
1, 323400, Note_on_c, 0, 63, 0
1, 323520, Note_on_c, 0, 56, 36
1, 323640, Note_on_c, 0, 56, 0
1, 323730, Note_on_c, 0, 39, 33
1, 323760, Note_on_c, 0, 61, 51
1, 323760, Note_on_c, 0, 63, 51
1, 323760, Note_on_c, 0, 70, 60
1, 323760, Note_on_c, 0, 55, 41
1, 323831, Control_c, 0, 64, 127
1, 323880, Note_on_c, 0, 55, 0
1, 324000, Tempo, 341394
1, 324000, Note_on_c, 0, 63, 0
1, 324000, Note_on_c, 0, 70, 0
1, 324000, Note_on_c, 0, 61, 0
1, 324000, Note_on_c, 0, 51, 37
1, 324120, Note_on_c, 0, 51, 0
1, 324240, Tempo, 329688
1, 324240, Note_on_c, 0, 39, 0
1, 324240, Note_on_c, 0, 61, 44
1, 324240, Note_on_c, 0, 70, 52
1, 324258, Control_c, 0, 64, 0
1, 324360, Note_on_c, 0, 70, 0
1, 324360, Note_on_c, 0, 61, 0
1, 324480, Tempo, 367489
1, 324480, Note_on_c, 0, 63, 44
1, 324480, Note_on_c, 0, 72, 52
1, 324600, Note_on_c, 0, 72, 0
1, 324600, Note_on_c, 0, 63, 0
1, 324690, Note_on_c, 0, 44, 32
1, 324720, Tempo, 356146
1, 324720, Note_on_c, 0, 60, 49
1, 324720, Note_on_c, 0, 63, 49
1, 324720, Note_on_c, 0, 68, 58
1, 324720, Note_on_c, 0, 56, 43
1, 324798, Control_c, 0, 64, 127
1, 324840, Note_on_c, 0, 56, 0
1, 324960, Note_on_c, 0, 63, 0
1, 324960, Note_on_c, 0, 68, 0
1, 324960, Note_on_c, 0, 60, 0
1, 324960, Note_on_c, 0, 51, 35
1, 325031, Control_c, 0, 64, 0
1, 325080, Note_on_c, 0, 51, 0
1, 325200, Note_on_c, 0, 44, 0
1, 325200, Note_on_c, 0, 63, 42
1, 325320, Note_on_c, 0, 63, 0
1, 325440, Note_on_c, 0, 56, 36
1, 325560, Note_on_c, 0, 56, 0
1, 325680, Tempo, 356146
1, 325680, Note_on_c, 0, 63, 51
1, 325680, Note_on_c, 0, 67, 51
1, 325680, Note_on_c, 0, 70, 60
1, 325680, Note_on_c, 0, 51, 43
1, 325680, Control_c, 0, 64, 127
1, 325800, Note_on_c, 0, 51, 0
1, 325920, Tempo, 341394
1, 325920, Note_on_c, 0, 63, 33
1, 326040, Note_on_c, 0, 63, 0
1, 326153, Control_c, 0, 64, 0
1, 326160, Tempo, 327815
1, 326160, Note_on_c, 0, 70, 0
1, 326160, Note_on_c, 0, 67, 0
1, 326160, Note_on_c, 0, 63, 0
1, 326160, Note_on_c, 0, 67, 44
1, 326160, Note_on_c, 0, 63, 44
1, 326160, Note_on_c, 0, 70, 52
1, 326160, Note_on_c, 0, 49, 43
1, 326280, Note_on_c, 0, 49, 0
1, 326280, Note_on_c, 0, 67, 0
1, 326280, Note_on_c, 0, 63, 0
1, 326280, Note_on_c, 0, 70, 0
1, 326400, Tempo, 367489
1, 326400, Note_on_c, 0, 67, 44
1, 326400, Note_on_c, 0, 63, 44
1, 326400, Note_on_c, 0, 70, 52
1, 326400, Note_on_c, 0, 61, 37
1, 326520, Note_on_c, 0, 61, 0
1, 326520, Note_on_c, 0, 67, 0
1, 326520, Note_on_c, 0, 63, 0
1, 326520, Note_on_c, 0, 70, 0
1, 326640, Tempo, 356146
1, 326640, Note_on_c, 0, 63, 51
1, 326640, Note_on_c, 0, 66, 51
1, 326640, Note_on_c, 0, 75, 60
1, 326640, Note_on_c, 0, 47, 43
1, 326760, Note_on_c, 0, 47, 0
1, 326766, Control_c, 0, 64, 127
1, 326880, Tempo, 341394
1, 326880, Note_on_c, 0, 59, 33
1, 327000, Note_on_c, 0, 59, 0
1, 327120, Tempo, 331583
1, 327120, Note_on_c, 0, 75, 0
1, 327120, Note_on_c, 0, 66, 0
1, 327120, Note_on_c, 0, 63, 0
1, 327120, Note_on_c, 0, 71, 44
1, 327120, Note_on_c, 0, 63, 44
1, 327120, Note_on_c, 0, 75, 52
1, 327120, Note_on_c, 0, 42, 43
1, 327143, Control_c, 0, 64, 0
1, 327240, Note_on_c, 0, 42, 0
1, 327240, Note_on_c, 0, 71, 0
1, 327240, Note_on_c, 0, 63, 0
1, 327240, Note_on_c, 0, 75, 0
1, 327360, Tempo, 367489
1, 327360, Note_on_c, 0, 71, 44
1, 327360, Note_on_c, 0, 63, 44
1, 327360, Note_on_c, 0, 75, 52
1, 327360, Note_on_c, 0, 54, 37
1, 327480, Note_on_c, 0, 54, 0
1, 327480, Note_on_c, 0, 71, 0
1, 327480, Note_on_c, 0, 63, 0
1, 327480, Note_on_c, 0, 75, 0
1, 327600, Tempo, 335439
1, 327600, Note_on_c, 0, 64, 50
1, 327600, Note_on_c, 0, 73, 59
1, 327600, Note_on_c, 0, 43, 43
1, 327720, Note_on_c, 0, 43, 0
1, 327720, Note_on_c, 0, 73, 0
1, 327720, Note_on_c, 0, 64, 0
1, 327840, Tempo, 345483
1, 327840, Note_on_c, 0, 63, 43
1, 327840, Note_on_c, 0, 71, 51
1, 327840, Note_on_c, 0, 51, 38
1, 327960, Note_on_c, 0, 51, 0
1, 327960, Note_on_c, 0, 71, 0
1, 327960, Note_on_c, 0, 63, 0
1, 328080, Note_on_c, 0, 61, 43
1, 328080, Note_on_c, 0, 70, 51
1, 328080, Note_on_c, 0, 44, 43
1, 328200, Note_on_c, 0, 44, 0
1, 328200, Note_on_c, 0, 70, 0
1, 328200, Note_on_c, 0, 61, 0
1, 328320, Note_on_c, 0, 59, 43
1, 328320, Note_on_c, 0, 68, 51
1, 328320, Note_on_c, 0, 51, 40
1, 328440, Note_on_c, 0, 51, 0
1, 328440, Note_on_c, 0, 68, 0
1, 328440, Note_on_c, 0, 59, 0
1, 328560, Tempo, 356146
1, 328560, Note_on_c, 0, 58, 51
1, 328560, Note_on_c, 0, 63, 51
1, 328560, Note_on_c, 0, 70, 60
1, 328560, Note_on_c, 0, 39, 43
1, 328673, Control_c, 0, 64, 127
1, 328680, Note_on_c, 0, 39, 0
1, 328800, Tempo, 337401
1, 328800, Note_on_c, 0, 46, 33
1, 328920, Note_on_c, 0, 46, 0
1, 329040, Tempo, 329688
1, 329040, Note_on_c, 0, 70, 0
1, 329040, Note_on_c, 0, 63, 0
1, 329040, Note_on_c, 0, 58, 0
1, 329040, Note_on_c, 0, 63, 44
1, 329040, Note_on_c, 0, 58, 44
1, 329040, Note_on_c, 0, 70, 52
1, 329040, Note_on_c, 0, 51, 43
1, 329076, Control_c, 0, 64, 0
1, 329160, Note_on_c, 0, 51, 0
1, 329160, Note_on_c, 0, 63, 0
1, 329160, Note_on_c, 0, 58, 0
1, 329160, Note_on_c, 0, 70, 0
1, 329280, Tempo, 367489
1, 329280, Note_on_c, 0, 63, 44
1, 329280, Note_on_c, 0, 58, 44
1, 329280, Note_on_c, 0, 70, 52
1, 329280, Note_on_c, 0, 46, 37
1, 329400, Note_on_c, 0, 46, 0
1, 329400, Note_on_c, 0, 63, 0
1, 329400, Note_on_c, 0, 58, 0
1, 329400, Note_on_c, 0, 70, 0
1, 329520, Tempo, 345483
1, 329520, Note_on_c, 0, 55, 50
1, 329520, Note_on_c, 0, 61, 50
1, 329520, Note_on_c, 0, 63, 59
1, 329520, Note_on_c, 0, 39, 43
1, 329640, Note_on_c, 0, 39, 0
1, 329640, Note_on_c, 0, 55, 0
1, 329640, Note_on_c, 0, 61, 0
1, 329640, Note_on_c, 0, 63, 0
1, 329760, Note_on_c, 0, 56, 43
1, 329760, Note_on_c, 0, 65, 51
1, 329760, Note_on_c, 0, 46, 38
1, 329880, Note_on_c, 0, 46, 0
1, 329880, Note_on_c, 0, 65, 0
1, 329880, Note_on_c, 0, 56, 0
1, 330000, Note_on_c, 0, 58, 43
1, 330000, Note_on_c, 0, 61, 43
1, 330000, Note_on_c, 0, 67, 51
1, 330000, Note_on_c, 0, 51, 43
1, 330120, Note_on_c, 0, 51, 0
1, 330120, Note_on_c, 0, 58, 0
1, 330120, Note_on_c, 0, 61, 0
1, 330120, Note_on_c, 0, 67, 0
1, 330240, Tempo, 365163
1, 330240, Note_on_c, 0, 55, 43
1, 330240, Note_on_c, 0, 63, 51
1, 330240, Note_on_c, 0, 46, 40
1, 330360, Note_on_c, 0, 46, 0
1, 330360, Note_on_c, 0, 63, 0
1, 330360, Note_on_c, 0, 55, 0
1, 330480, Tempo, 343426
1, 330480, Note_on_c, 0, 56, 51
1, 330480, Note_on_c, 0, 60, 51
1, 330480, Note_on_c, 0, 68, 60
1, 330480, Note_on_c, 0, 44, 47
1, 330480, Note_on_c, 0, 51, 47
1, 330558, Control_c, 0, 64, 127
1, 330600, Note_on_c, 0, 51, 0
1, 330600, Note_on_c, 0, 44, 0
1, 330720, Tempo, 360599
1, 330720, Note_on_c, 0, 56, 0
1, 330720, Note_on_c, 0, 60, 0
1, 330720, Note_on_c, 0, 68, 0
1, 330720, Note_on_c, 0, 39, 38
1, 330770, Control_c, 0, 64, 0
1, 330840, Note_on_c, 0, 39, 0
1, 330960, Note_on_c, 0, 32, 43
1, 331080, Note_on_c, 0, 32, 0
1, 331440, Tempo, 365163
1, 331440, Note_on_c, 0, 63, 52
1, 331440, Note_on_c, 0, 75, 63
1, 331560, Note_on_c, 0, 75, 0
1, 331560, Note_on_c, 0, 63, 0
1, 331680, Note_on_c, 0, 65, 47
1, 331680, Note_on_c, 0, 77, 56
1, 331800, Note_on_c, 0, 77, 0
1, 331800, Note_on_c, 0, 65, 0
1, 331920, Tempo, 347564
1, 331920, Note_on_c, 0, 67, 46
1, 331920, Note_on_c, 0, 79, 55
1, 332040, Note_on_c, 0, 79, 0
1, 332040, Note_on_c, 0, 67, 0
1, 332160, Note_on_c, 0, 68, 44
1, 332160, Note_on_c, 0, 80, 54
1, 332160, Note_on_c, 0, 39, 37
1, 332188, Control_c, 0, 64, 127
1, 332280, Note_on_c, 0, 39, 0
1, 332280, Note_on_c, 0, 80, 0
1, 332280, Note_on_c, 0, 68, 0
1, 332400, Note_on_c, 0, 70, 58
1, 332400, Note_on_c, 0, 73, 58
1, 332400, Note_on_c, 0, 82, 69
1, 332400, Note_on_c, 0, 55, 47
1, 332520, Note_on_c, 0, 55, 0
1, 332640, Tempo, 347564
1, 332640, Note_on_c, 0, 70, 0
1, 332640, Note_on_c, 0, 73, 0
1, 332640, Note_on_c, 0, 82, 0
1, 332640, Note_on_c, 0, 51, 42
1, 332760, Note_on_c, 0, 51, 0
1, 332880, Tempo, 333500
1, 332880, Note_on_c, 0, 70, 50
1, 332880, Note_on_c, 0, 73, 50
1, 332880, Note_on_c, 0, 82, 59
1, 332880, Note_on_c, 0, 63, 47
1, 332898, Control_c, 0, 64, 0
1, 333000, Note_on_c, 0, 63, 0
1, 333000, Note_on_c, 0, 70, 0
1, 333000, Note_on_c, 0, 73, 0
1, 333000, Note_on_c, 0, 82, 0
1, 333120, Tempo, 377098
1, 333120, Note_on_c, 0, 72, 50
1, 333120, Note_on_c, 0, 75, 50
1, 333120, Note_on_c, 0, 84, 59
1, 333120, Note_on_c, 0, 44, 36
1, 333148, Control_c, 0, 64, 127
1, 333240, Note_on_c, 0, 44, 0
1, 333240, Note_on_c, 0, 72, 0
1, 333240, Note_on_c, 0, 75, 0
1, 333240, Note_on_c, 0, 84, 0
1, 333360, Tempo, 356146
1, 333360, Note_on_c, 0, 68, 56
1, 333360, Note_on_c, 0, 72, 56
1, 333360, Note_on_c, 0, 80, 66
1, 333360, Note_on_c, 0, 56, 49
1, 333480, Note_on_c, 0, 56, 0
1, 333600, Note_on_c, 0, 68, 0
1, 333600, Note_on_c, 0, 72, 0
1, 333600, Note_on_c, 0, 80, 0
1, 333600, Note_on_c, 0, 51, 40
1, 333720, Note_on_c, 0, 51, 0
1, 333840, Tempo, 333500
1, 333840, Note_on_c, 0, 63, 48
1, 333918, Control_c, 0, 64, 0
1, 333960, Note_on_c, 0, 63, 0
1, 334066, Control_c, 0, 64, 127
1, 334080, Tempo, 369845
1, 334080, Note_on_c, 0, 39, 41
1, 334200, Note_on_c, 0, 39, 0
1, 334320, Tempo, 356146
1, 334320, Note_on_c, 0, 70, 58
1, 334320, Note_on_c, 0, 73, 58
1, 334320, Note_on_c, 0, 82, 69
1, 334320, Note_on_c, 0, 55, 47
1, 334440, Note_on_c, 0, 55, 0
1, 334560, Tempo, 339386
1, 334560, Note_on_c, 0, 70, 0
1, 334560, Note_on_c, 0, 73, 0
1, 334560, Note_on_c, 0, 82, 0
1, 334560, Note_on_c, 0, 51, 42
1, 334680, Note_on_c, 0, 51, 0
1, 334800, Tempo, 329688
1, 334800, Note_on_c, 0, 70, 50
1, 334800, Note_on_c, 0, 73, 50
1, 334800, Note_on_c, 0, 82, 59
1, 334800, Note_on_c, 0, 63, 47
1, 334807, Control_c, 0, 64, 0
1, 334920, Note_on_c, 0, 63, 0
1, 334920, Note_on_c, 0, 70, 0
1, 334920, Note_on_c, 0, 73, 0
1, 334920, Note_on_c, 0, 82, 0
1, 335040, Tempo, 367489
1, 335040, Note_on_c, 0, 72, 50
1, 335040, Note_on_c, 0, 75, 50
1, 335040, Note_on_c, 0, 84, 59
1, 335040, Note_on_c, 0, 44, 36
1, 335097, Control_c, 0, 64, 127
1, 335160, Note_on_c, 0, 44, 0
1, 335160, Note_on_c, 0, 72, 0
1, 335160, Note_on_c, 0, 75, 0
1, 335160, Note_on_c, 0, 84, 0
1, 335280, Tempo, 356146
1, 335280, Note_on_c, 0, 68, 56
1, 335280, Note_on_c, 0, 72, 56
1, 335280, Note_on_c, 0, 80, 66
1, 335280, Note_on_c, 0, 56, 49
1, 335400, Note_on_c, 0, 56, 0
1, 335520, Note_on_c, 0, 68, 0
1, 335520, Note_on_c, 0, 72, 0
1, 335520, Note_on_c, 0, 80, 0
1, 335520, Note_on_c, 0, 51, 40
1, 335640, Note_on_c, 0, 51, 0
1, 335760, Tempo, 329688
1, 335760, Note_on_c, 0, 63, 48
1, 335880, Note_on_c, 0, 63, 0
1, 336000, Tempo, 372232
1, 336000, Note_on_c, 0, 56, 41
1, 336043, Control_c, 0, 64, 0
1, 336120, Note_on_c, 0, 56, 0
1, 336240, Tempo, 356146
1, 336240, Note_on_c, 0, 70, 58
1, 336240, Note_on_c, 0, 75, 58
1, 336240, Note_on_c, 0, 79, 58
1, 336240, Note_on_c, 0, 82, 69
1, 336240, Note_on_c, 0, 51, 49
1, 336332, Control_c, 0, 64, 127
1, 336360, Note_on_c, 0, 51, 0
1, 336480, Tempo, 349671
1, 336480, Note_on_c, 0, 63, 37
1, 336600, Note_on_c, 0, 63, 0
1, 336720, Tempo, 327815
1, 336720, Note_on_c, 0, 82, 0
1, 336720, Note_on_c, 0, 70, 0
1, 336720, Note_on_c, 0, 75, 0
1, 336720, Note_on_c, 0, 79, 0
1, 336720, Note_on_c, 0, 70, 50
1, 336720, Note_on_c, 0, 79, 50
1, 336720, Note_on_c, 0, 75, 50
1, 336720, Note_on_c, 0, 82, 59
1, 336720, Note_on_c, 0, 49, 49
1, 336720, Control_c, 0, 64, 0
1, 336840, Note_on_c, 0, 49, 0
1, 336840, Note_on_c, 0, 75, 0
1, 336840, Note_on_c, 0, 70, 0
1, 336840, Note_on_c, 0, 79, 0
1, 336840, Note_on_c, 0, 82, 0
1, 336960, Tempo, 389838
1, 336960, Note_on_c, 0, 70, 50
1, 336960, Note_on_c, 0, 79, 50
1, 336960, Note_on_c, 0, 75, 50
1, 336960, Note_on_c, 0, 82, 59
1, 336960, Note_on_c, 0, 61, 42
1, 337080, Note_on_c, 0, 61, 0
1, 337080, Note_on_c, 0, 75, 0
1, 337080, Note_on_c, 0, 70, 0
1, 337080, Note_on_c, 0, 79, 0
1, 337080, Note_on_c, 0, 82, 0
1, 337200, Tempo, 349671
1, 337200, Note_on_c, 0, 75, 58
1, 337200, Note_on_c, 0, 78, 58
1, 337200, Note_on_c, 0, 87, 69
1, 337200, Note_on_c, 0, 47, 49
1, 337280, Control_c, 0, 64, 127
1, 337320, Note_on_c, 0, 47, 0
1, 337440, Note_on_c, 0, 59, 37
1, 337560, Note_on_c, 0, 59, 0
1, 337680, Tempo, 343426
1, 337680, Note_on_c, 0, 87, 0
1, 337680, Note_on_c, 0, 78, 0
1, 337680, Note_on_c, 0, 75, 0
1, 337680, Note_on_c, 0, 83, 50
1, 337680, Note_on_c, 0, 75, 50
1, 337680, Note_on_c, 0, 87, 59
1, 337680, Note_on_c, 0, 42, 49
1, 337732, Control_c, 0, 64, 0
1, 337800, Note_on_c, 0, 42, 0
1, 337800, Note_on_c, 0, 83, 0
1, 337800, Note_on_c, 0, 75, 0
1, 337800, Note_on_c, 0, 87, 0
1, 337920, Tempo, 372232
1, 337920, Note_on_c, 0, 83, 50
1, 337920, Note_on_c, 0, 75, 50
1, 337920, Note_on_c, 0, 87, 59
1, 337920, Note_on_c, 0, 54, 42
1, 338040, Note_on_c, 0, 54, 0
1, 338040, Note_on_c, 0, 83, 0
1, 338040, Note_on_c, 0, 75, 0
1, 338040, Note_on_c, 0, 87, 0
1, 338160, Tempo, 331583
1, 338160, Note_on_c, 0, 73, 57
1, 338160, Note_on_c, 0, 76, 57
1, 338160, Note_on_c, 0, 85, 67
1, 338160, Note_on_c, 0, 43, 49
1, 338280, Note_on_c, 0, 43, 0
1, 338280, Note_on_c, 0, 73, 0
1, 338280, Note_on_c, 0, 76, 0
1, 338280, Note_on_c, 0, 85, 0
1, 338400, Note_on_c, 0, 71, 49
1, 338400, Note_on_c, 0, 75, 49
1, 338400, Note_on_c, 0, 83, 58
1, 338400, Note_on_c, 0, 51, 36
1, 338400, Note_on_c, 0, 55, 43
1, 338520, Note_on_c, 0, 55, 0
1, 338520, Note_on_c, 0, 83, 0
1, 338520, Note_on_c, 0, 71, 0
1, 338520, Note_on_c, 0, 75, 0
1, 338520, Note_on_c, 0, 51, 0
1, 338640, Tempo, 339386
1, 338640, Note_on_c, 0, 70, 49
1, 338640, Note_on_c, 0, 73, 49
1, 338640, Note_on_c, 0, 82, 58
1, 338640, Note_on_c, 0, 44, 49
1, 338760, Note_on_c, 0, 44, 0
1, 338760, Note_on_c, 0, 70, 0
1, 338760, Note_on_c, 0, 73, 0
1, 338760, Note_on_c, 0, 82, 0
1, 338880, Tempo, 347564
1, 338880, Note_on_c, 0, 68, 49
1, 338880, Note_on_c, 0, 71, 49
1, 338880, Note_on_c, 0, 80, 58
1, 338880, Note_on_c, 0, 51, 39
1, 338880, Note_on_c, 0, 56, 46
1, 339000, Note_on_c, 0, 56, 0
1, 339000, Note_on_c, 0, 80, 0
1, 339000, Note_on_c, 0, 68, 0
1, 339000, Note_on_c, 0, 71, 0
1, 339000, Note_on_c, 0, 51, 0
1, 339120, Tempo, 356146
1, 339120, Note_on_c, 0, 70, 58
1, 339120, Note_on_c, 0, 75, 58
1, 339120, Note_on_c, 0, 82, 69
1, 339120, Note_on_c, 0, 39, 49
1, 339212, Control_c, 0, 64, 127
1, 339240, Note_on_c, 0, 39, 0
1, 339360, Tempo, 345483
1, 339360, Note_on_c, 0, 46, 37
1, 339480, Note_on_c, 0, 46, 0
1, 339600, Tempo, 331583
1, 339600, Note_on_c, 0, 82, 0
1, 339600, Note_on_c, 0, 75, 0
1, 339600, Note_on_c, 0, 70, 0
1, 339600, Note_on_c, 0, 75, 50
1, 339600, Note_on_c, 0, 70, 50
1, 339600, Note_on_c, 0, 82, 59
1, 339600, Note_on_c, 0, 51, 49
1, 339607, Control_c, 0, 64, 0
1, 339720, Note_on_c, 0, 51, 0
1, 339720, Note_on_c, 0, 75, 0
1, 339720, Note_on_c, 0, 70, 0
1, 339720, Note_on_c, 0, 82, 0
1, 339840, Tempo, 367489
1, 339840, Note_on_c, 0, 75, 50
1, 339840, Note_on_c, 0, 70, 50
1, 339840, Note_on_c, 0, 82, 59
1, 339840, Note_on_c, 0, 58, 42
1, 339960, Note_on_c, 0, 58, 0
1, 339960, Note_on_c, 0, 75, 0
1, 339960, Note_on_c, 0, 70, 0
1, 339960, Note_on_c, 0, 82, 0
1, 340080, Tempo, 345483
1, 340080, Note_on_c, 0, 67, 57
1, 340080, Note_on_c, 0, 73, 57
1, 340080, Note_on_c, 0, 75, 67
1, 340080, Note_on_c, 0, 63, 49
1, 340200, Note_on_c, 0, 63, 0
1, 340200, Note_on_c, 0, 67, 0
1, 340200, Note_on_c, 0, 73, 0
1, 340200, Note_on_c, 0, 75, 0
1, 340320, Note_on_c, 0, 68, 49
1, 340320, Note_on_c, 0, 77, 58
1, 340320, Note_on_c, 0, 58, 43
1, 340440, Note_on_c, 0, 58, 0
1, 340440, Note_on_c, 0, 77, 0
1, 340440, Note_on_c, 0, 68, 0
1, 340560, Note_on_c, 0, 70, 49
1, 340560, Note_on_c, 0, 73, 49
1, 340560, Note_on_c, 0, 79, 58
1, 340560, Note_on_c, 0, 51, 49
1, 340680, Note_on_c, 0, 51, 0
1, 340680, Note_on_c, 0, 70, 0
1, 340680, Note_on_c, 0, 73, 0
1, 340680, Note_on_c, 0, 79, 0
1, 340800, Tempo, 365163
1, 340800, Note_on_c, 0, 67, 49
1, 340800, Note_on_c, 0, 75, 58
1, 340800, Note_on_c, 0, 61, 46
1, 340920, Note_on_c, 0, 61, 0
1, 340920, Note_on_c, 0, 75, 0
1, 340920, Note_on_c, 0, 67, 0
1, 341040, Tempo, 343426
1, 341040, Note_on_c, 0, 68, 58
1, 341040, Note_on_c, 0, 75, 58
1, 341040, Note_on_c, 0, 80, 69
1, 341040, Note_on_c, 0, 60, 54
1, 341125, Control_c, 0, 64, 127
1, 341160, Note_on_c, 0, 60, 0
1, 341280, Tempo, 360599
1, 341280, Note_on_c, 0, 68, 0
1, 341280, Note_on_c, 0, 75, 0
1, 341280, Note_on_c, 0, 80, 0
1, 341280, Note_on_c, 0, 51, 43
1, 341400, Note_on_c, 0, 51, 0
1, 341520, Note_on_c, 0, 44, 49
1, 341591, Control_c, 0, 64, 0
1, 341640, Note_on_c, 0, 44, 0
1, 341760, Tempo, 389206
1, 342000, Tempo, 356146
1, 342000, Note_on_c, 0, 70, 66
1, 342000, Note_on_c, 0, 75, 66
1, 342000, Note_on_c, 0, 79, 66
1, 342000, Note_on_c, 0, 82, 79
1, 342000, Note_on_c, 0, 39, 54
1, 342000, Note_on_c, 0, 51, 64
1, 342063, Control_c, 0, 64, 127
1, 342120, Note_on_c, 0, 51, 0
1, 342120, Note_on_c, 0, 39, 0
1, 342240, Tempo, 347564
1, 342240, Note_on_c, 0, 40, 46
1, 342240, Note_on_c, 0, 52, 55
1, 342360, Note_on_c, 0, 52, 0
1, 342360, Note_on_c, 0, 40, 0
1, 342480, Tempo, 331583
1, 342480, Note_on_c, 0, 82, 0
1, 342480, Note_on_c, 0, 70, 0
1, 342480, Note_on_c, 0, 75, 0
1, 342480, Note_on_c, 0, 79, 0
1, 342480, Note_on_c, 0, 70, 57
1, 342480, Note_on_c, 0, 79, 57
1, 342480, Note_on_c, 0, 75, 57
1, 342480, Note_on_c, 0, 82, 67
1, 342480, Note_on_c, 0, 37, 56
1, 342480, Note_on_c, 0, 49, 67
1, 342509, Control_c, 0, 64, 0
1, 342600, Note_on_c, 0, 49, 0
1, 342600, Note_on_c, 0, 79, 0
1, 342600, Note_on_c, 0, 75, 0
1, 342600, Note_on_c, 0, 70, 0
1, 342600, Note_on_c, 0, 37, 0
1, 342600, Note_on_c, 0, 82, 0
1, 342720, Tempo, 367489
1, 342720, Note_on_c, 0, 70, 57
1, 342720, Note_on_c, 0, 79, 57
1, 342720, Note_on_c, 0, 75, 57
1, 342720, Note_on_c, 0, 82, 67
1, 342720, Note_on_c, 0, 39, 50
1, 342720, Note_on_c, 0, 51, 59
1, 342840, Note_on_c, 0, 51, 0
1, 342840, Note_on_c, 0, 79, 0
1, 342840, Note_on_c, 0, 75, 0
1, 342840, Note_on_c, 0, 70, 0
1, 342840, Note_on_c, 0, 39, 0
1, 342840, Note_on_c, 0, 82, 0
1, 342960, Tempo, 356146
1, 342960, Note_on_c, 0, 75, 66
1, 342960, Note_on_c, 0, 78, 66
1, 342960, Note_on_c, 0, 87, 79
1, 342960, Note_on_c, 0, 35, 58
1, 342960, Note_on_c, 0, 47, 69
1, 343075, Control_c, 0, 64, 127
1, 343080, Note_on_c, 0, 47, 0
1, 343080, Note_on_c, 0, 35, 0
1, 343200, Note_on_c, 0, 37, 51
1, 343200, Note_on_c, 0, 49, 60
1, 343320, Note_on_c, 0, 49, 0
1, 343320, Note_on_c, 0, 37, 0
1, 343440, Tempo, 335439
1, 343440, Note_on_c, 0, 87, 0
1, 343440, Note_on_c, 0, 78, 0
1, 343440, Note_on_c, 0, 75, 0
1, 343440, Note_on_c, 0, 78, 57
1, 343440, Note_on_c, 0, 75, 57
1, 343440, Note_on_c, 0, 87, 67
1, 343440, Note_on_c, 0, 33, 56
1, 343440, Note_on_c, 0, 45, 66
1, 343450, Control_c, 0, 64, 0
1, 343560, Note_on_c, 0, 45, 0
1, 343560, Note_on_c, 0, 87, 0
1, 343560, Note_on_c, 0, 78, 0
1, 343560, Note_on_c, 0, 75, 0
1, 343560, Note_on_c, 0, 33, 0
1, 343680, Tempo, 367489
1, 343680, Note_on_c, 0, 78, 57
1, 343680, Note_on_c, 0, 75, 57
1, 343680, Note_on_c, 0, 87, 67
1, 343680, Note_on_c, 0, 35, 50
1, 343680, Note_on_c, 0, 47, 59
1, 343800, Note_on_c, 0, 47, 0
1, 343800, Note_on_c, 0, 87, 0
1, 343800, Note_on_c, 0, 78, 0
1, 343800, Note_on_c, 0, 75, 0
1, 343800, Note_on_c, 0, 35, 0
1, 343920, Tempo, 333500
1, 343920, Note_on_c, 0, 73, 65
1, 343920, Note_on_c, 0, 76, 65
1, 343920, Note_on_c, 0, 85, 77
1, 343920, Note_on_c, 0, 31, 59
1, 343920, Note_on_c, 0, 43, 70
1, 344040, Note_on_c, 0, 85, 0
1, 344040, Note_on_c, 0, 73, 0
1, 344040, Note_on_c, 0, 76, 0
1, 344160, Tempo, 343426
1, 344160, Note_on_c, 0, 71, 56
1, 344160, Note_on_c, 0, 75, 56
1, 344160, Note_on_c, 0, 83, 66
1, 344280, Note_on_c, 0, 83, 0
1, 344280, Note_on_c, 0, 71, 0
1, 344280, Note_on_c, 0, 75, 0
1, 344400, Note_on_c, 0, 31, 0
1, 344400, Note_on_c, 0, 43, 0
1, 344400, Note_on_c, 0, 70, 56
1, 344400, Note_on_c, 0, 73, 56
1, 344400, Note_on_c, 0, 82, 66
1, 344400, Note_on_c, 0, 32, 60
1, 344400, Note_on_c, 0, 44, 71
1, 344520, Note_on_c, 0, 82, 0
1, 344520, Note_on_c, 0, 70, 0
1, 344520, Note_on_c, 0, 73, 0
1, 344640, Tempo, 395179
1, 344640, Note_on_c, 0, 68, 56
1, 344640, Note_on_c, 0, 71, 56
1, 344640, Note_on_c, 0, 80, 66
1, 344760, Note_on_c, 0, 80, 0
1, 344760, Note_on_c, 0, 68, 0
1, 344760, Note_on_c, 0, 71, 0
1, 344880, Tempo, 356146
1, 344880, Note_on_c, 0, 32, 0
1, 344880, Note_on_c, 0, 44, 0
1, 344880, Note_on_c, 0, 70, 66
1, 344880, Note_on_c, 0, 75, 66
1, 344880, Note_on_c, 0, 82, 79
1, 344880, Note_on_c, 0, 39, 67
1, 344986, Control_c, 0, 64, 127
1, 345000, Note_on_c, 0, 39, 0
1, 345120, Note_on_c, 0, 46, 59
1, 345240, Note_on_c, 0, 46, 0
1, 345353, Control_c, 0, 64, 0
1, 345360, Tempo, 343426
1, 345360, Note_on_c, 0, 82, 0
1, 345360, Note_on_c, 0, 75, 0
1, 345360, Note_on_c, 0, 70, 0
1, 345360, Note_on_c, 0, 75, 57
1, 345360, Note_on_c, 0, 70, 57
1, 345360, Note_on_c, 0, 82, 67
1, 345360, Note_on_c, 0, 51, 67
1, 345480, Note_on_c, 0, 51, 0
1, 345480, Note_on_c, 0, 75, 0
1, 345480, Note_on_c, 0, 70, 0
1, 345480, Note_on_c, 0, 82, 0
1, 345600, Tempo, 367489
1, 345600, Note_on_c, 0, 75, 57
1, 345600, Note_on_c, 0, 70, 57
1, 345600, Note_on_c, 0, 82, 67
1, 345600, Note_on_c, 0, 58, 61
1, 345720, Note_on_c, 0, 58, 0
1, 345720, Note_on_c, 0, 75, 0
1, 345720, Note_on_c, 0, 70, 0
1, 345720, Note_on_c, 0, 82, 0
1, 345840, Tempo, 345483
1, 345840, Note_on_c, 0, 67, 65
1, 345840, Note_on_c, 0, 73, 65
1, 345840, Note_on_c, 0, 75, 77
1, 345840, Note_on_c, 0, 63, 69
1, 345960, Note_on_c, 0, 63, 0
1, 345960, Note_on_c, 0, 67, 0
1, 345960, Note_on_c, 0, 73, 0
1, 345960, Note_on_c, 0, 75, 0
1, 346080, Note_on_c, 0, 68, 56
1, 346080, Note_on_c, 0, 77, 66
1, 346080, Note_on_c, 0, 58, 57
1, 346200, Note_on_c, 0, 58, 0
1, 346200, Note_on_c, 0, 77, 0
1, 346200, Note_on_c, 0, 68, 0
1, 346320, Note_on_c, 0, 70, 56
1, 346320, Note_on_c, 0, 73, 56
1, 346320, Note_on_c, 0, 79, 66
1, 346320, Note_on_c, 0, 51, 67
1, 346440, Note_on_c, 0, 51, 0
1, 346440, Note_on_c, 0, 70, 0
1, 346440, Note_on_c, 0, 73, 0
1, 346440, Note_on_c, 0, 79, 0
1, 346560, Tempo, 395179
1, 346560, Note_on_c, 0, 67, 56
1, 346560, Note_on_c, 0, 75, 66
1, 346560, Note_on_c, 0, 61, 61
1, 346680, Note_on_c, 0, 61, 0
1, 346680, Note_on_c, 0, 75, 0
1, 346680, Note_on_c, 0, 67, 0
1, 346800, Tempo, 343426
1, 346800, Note_on_c, 0, 68, 66
1, 346800, Note_on_c, 0, 75, 66
1, 346800, Note_on_c, 0, 80, 79
1, 346800, Note_on_c, 0, 60, 76
1, 346885, Control_c, 0, 64, 127
1, 346920, Note_on_c, 0, 60, 0
1, 347040, Tempo, 360599
1, 347040, Note_on_c, 0, 68, 0
1, 347040, Note_on_c, 0, 75, 0
1, 347040, Note_on_c, 0, 80, 0
1, 347040, Note_on_c, 0, 51, 64
1, 347160, Note_on_c, 0, 51, 0
1, 347280, Note_on_c, 0, 44, 71
1, 347351, Control_c, 0, 64, 0
1, 347400, Note_on_c, 0, 44, 0
1, 347580, Tempo, 588755
1, 347760, Key_signature, 4, "major"
1, 347760, Tempo, 450755
1, 347760, Marker_t, "Allegretto"
1, 347760, Note_on_c, 0, 71, 35
1, 347760, Note_on_c, 0, 81, 50
1, 347760, Note_on_c, 0, 63, 34
1, 347803, Control_c, 0, 64, 127
1, 347880, Note_on_c, 0, 63, 0
1, 347880, Note_on_c, 0, 73, 25
1, 348000, Note_on_c, 0, 73, 0
1, 348000, Note_on_c, 0, 66, 25
1, 348120, Tempo, 402685
1, 348120, Note_on_c, 0, 66, 0
1, 348120, Note_on_c, 0, 81, 0
1, 348120, Note_on_c, 0, 83, 36
1, 348120, Note_on_c, 0, 73, 25
1, 348180, Note_on_c, 0, 83, 0
1, 348180, Note_on_c, 0, 81, 36
1, 348240, Tempo, 444444
1, 348240, Note_on_c, 0, 81, 0
1, 348240, Note_on_c, 0, 73, 0
1, 348240, Note_on_c, 0, 80, 50
1, 348240, Note_on_c, 0, 59, 31
1, 348257, Control_c, 0, 64, 0
1, 348307, Control_c, 0, 64, 127
1, 348360, Note_on_c, 0, 59, 0
1, 348360, Note_on_c, 0, 73, 25
1, 348480, Tempo, 416667
1, 348480, Note_on_c, 0, 73, 0
1, 348480, Note_on_c, 0, 80, 0
1, 348480, Note_on_c, 0, 78, 41
1, 348480, Note_on_c, 0, 66, 25
1, 348600, Note_on_c, 0, 66, 0
1, 348600, Note_on_c, 0, 73, 25
1, 348720, Tempo, 458015
1, 348720, Note_on_c, 0, 73, 0
1, 348720, Note_on_c, 0, 78, 0
1, 348720, Note_on_c, 0, 71, 0
1, 348720, Note_on_c, 0, 71, 29
1, 348720, Note_on_c, 0, 83, 43
1, 348720, Note_on_c, 0, 64, 34
1, 348729, Control_c, 0, 64, 0
1, 348798, Control_c, 0, 64, 127
1, 348840, Note_on_c, 0, 64, 0
1, 348840, Note_on_c, 0, 73, 25
1, 348960, Note_on_c, 0, 73, 0
1, 348960, Note_on_c, 0, 83, 0
1, 348960, Note_on_c, 0, 75, 45
1, 348960, Note_on_c, 0, 68, 25
1, 349080, Note_on_c, 0, 68, 0
1, 349080, Note_on_c, 0, 73, 25
1, 349140, Tempo, 397351
1, 349140, Note_on_c, 0, 75, 0
1, 349140, Note_on_c, 0, 78, 35
1, 349200, Tempo, 444444
1, 349200, Note_on_c, 0, 78, 0
1, 349200, Note_on_c, 0, 73, 0
1, 349200, Note_on_c, 0, 76, 43
1, 349200, Note_on_c, 0, 59, 31
1, 349214, Control_c, 0, 64, 0
1, 349264, Control_c, 0, 64, 127
1, 349320, Note_on_c, 0, 59, 0
1, 349320, Note_on_c, 0, 73, 25
1, 349440, Note_on_c, 0, 73, 0
1, 349440, Note_on_c, 0, 68, 25
1, 349560, Note_on_c, 0, 68, 0
1, 349560, Note_on_c, 0, 73, 25
1, 349680, Tempo, 458015
1, 349680, Note_on_c, 0, 73, 0
1, 349680, Note_on_c, 0, 76, 0
1, 349680, Note_on_c, 0, 71, 0
1, 349680, Note_on_c, 0, 71, 35
1, 349680, Note_on_c, 0, 81, 50
1, 349680, Note_on_c, 0, 63, 34
1, 349695, Control_c, 0, 64, 0
1, 349776, Control_c, 0, 64, 127
1, 349800, Note_on_c, 0, 63, 0
1, 349800, Note_on_c, 0, 73, 25
1, 349920, Note_on_c, 0, 73, 0
1, 349920, Note_on_c, 0, 66, 25
1, 350040, Tempo, 402685
1, 350040, Note_on_c, 0, 66, 0
1, 350040, Note_on_c, 0, 81, 0
1, 350040, Note_on_c, 0, 83, 36
1, 350040, Note_on_c, 0, 73, 25
1, 350100, Note_on_c, 0, 83, 0
1, 350100, Note_on_c, 0, 81, 36
1, 350160, Tempo, 428571
1, 350160, Note_on_c, 0, 81, 0
1, 350160, Note_on_c, 0, 73, 0
1, 350160, Note_on_c, 0, 80, 50
1, 350160, Note_on_c, 0, 59, 31
1, 350177, Control_c, 0, 64, 0
1, 350227, Control_c, 0, 64, 127
1, 350280, Note_on_c, 0, 59, 0
1, 350280, Note_on_c, 0, 73, 25
1, 350400, Tempo, 408163
1, 350400, Note_on_c, 0, 73, 0
1, 350400, Note_on_c, 0, 80, 0
1, 350400, Note_on_c, 0, 78, 41
1, 350400, Note_on_c, 0, 66, 25
1, 350520, Note_on_c, 0, 66, 0
1, 350520, Note_on_c, 0, 73, 25
1, 350640, Tempo, 458015
1, 350640, Note_on_c, 0, 73, 0
1, 350640, Note_on_c, 0, 78, 0
1, 350640, Note_on_c, 0, 71, 0
1, 350640, Note_on_c, 0, 71, 29
1, 350640, Note_on_c, 0, 83, 44
1, 350640, Note_on_c, 0, 64, 34
1, 350649, Control_c, 0, 64, 0
1, 350718, Control_c, 0, 64, 127
1, 350760, Note_on_c, 0, 64, 0
1, 350760, Note_on_c, 0, 73, 25
1, 350880, Note_on_c, 0, 73, 0
1, 350880, Note_on_c, 0, 83, 0
1, 350880, Note_on_c, 0, 75, 45
1, 350880, Note_on_c, 0, 68, 25
1, 351000, Note_on_c, 0, 68, 0
1, 351000, Note_on_c, 0, 73, 25
1, 351060, Tempo, 397351
1, 351060, Note_on_c, 0, 75, 0
1, 351060, Note_on_c, 0, 78, 35
1, 351120, Tempo, 444444
1, 351120, Note_on_c, 0, 78, 0
1, 351120, Note_on_c, 0, 73, 0
1, 351120, Note_on_c, 0, 76, 43
1, 351120, Note_on_c, 0, 59, 31
1, 351134, Control_c, 0, 64, 0
1, 351184, Control_c, 0, 64, 127
1, 351240, Note_on_c, 0, 59, 0
1, 351240, Note_on_c, 0, 73, 25
1, 351360, Tempo, 487805
1, 351360, Note_on_c, 0, 73, 0
1, 351360, Note_on_c, 0, 68, 25
1, 351480, Note_on_c, 0, 68, 0
1, 351480, Note_on_c, 0, 64, 25
1, 351600, Tempo, 422535
1, 351600, Note_on_c, 0, 64, 0
1, 351600, Note_on_c, 0, 76, 0
1, 351600, Note_on_c, 0, 71, 0
1, 351600, Note_on_c, 0, 37, 44
1, 351600, Note_on_c, 0, 49, 52
1, 351600, Control_c, 0, 64, 0
1, 351703, Control_c, 0, 64, 127
1, 351720, Note_on_c, 0, 49, 0
1, 351720, Note_on_c, 0, 54, 36
1, 351720, Note_on_c, 0, 42, 47
1, 351840, Note_on_c, 0, 54, 0
1, 351840, Note_on_c, 0, 58, 41
1, 351960, Tempo, 468750
1, 351960, Note_on_c, 0, 58, 0
1, 351960, Note_on_c, 0, 66, 36
1, 351960, Note_on_c, 0, 64, 28
1, 352080, Tempo, 441176
1, 352080, Note_on_c, 0, 64, 0
1, 352080, Note_on_c, 0, 37, 0
1, 352080, Note_on_c, 0, 42, 0
1, 352080, Note_on_c, 0, 66, 0
1, 352080, Note_on_c, 0, 35, 32
1, 352080, Note_on_c, 0, 47, 38
1, 352094, Control_c, 0, 64, 0
1, 352183, Control_c, 0, 64, 127
1, 352200, Note_on_c, 0, 47, 0
1, 352200, Note_on_c, 0, 54, 24
1, 352200, Note_on_c, 0, 42, 35
1, 352320, Tempo, 504202
1, 352320, Note_on_c, 0, 54, 0
1, 352320, Note_on_c, 0, 59, 27
1, 352440, Tempo, 759494
1, 352440, Note_on_c, 0, 59, 0
1, 352440, Note_on_c, 0, 66, 24
1, 352440, Note_on_c, 0, 63, 19
1, 352560, Tempo, 468750
1, 352560, Note_on_c, 0, 63, 0
1, 352560, Note_on_c, 0, 35, 0
1, 352560, Note_on_c, 0, 42, 0
1, 352560, Note_on_c, 0, 66, 0
1, 352560, Note_on_c, 0, 71, 35
1, 352560, Note_on_c, 0, 81, 50
1, 352560, Note_on_c, 0, 63, 34
1, 352570, Control_c, 0, 64, 0
1, 352603, Control_c, 0, 64, 127
1, 352680, Note_on_c, 0, 63, 0
1, 352680, Note_on_c, 0, 73, 25
1, 352800, Note_on_c, 0, 73, 0
1, 352800, Note_on_c, 0, 66, 25
1, 352920, Tempo, 402685
1, 352920, Note_on_c, 0, 66, 0
1, 352920, Note_on_c, 0, 81, 0
1, 352920, Note_on_c, 0, 83, 36
1, 352920, Note_on_c, 0, 73, 25
1, 352980, Note_on_c, 0, 83, 0
1, 352980, Note_on_c, 0, 81, 36
1, 353040, Tempo, 428571
1, 353040, Note_on_c, 0, 81, 0
1, 353040, Note_on_c, 0, 73, 0
1, 353040, Note_on_c, 0, 80, 50
1, 353040, Note_on_c, 0, 59, 31
1, 353057, Control_c, 0, 64, 0
1, 353107, Control_c, 0, 64, 127
1, 353160, Note_on_c, 0, 59, 0
1, 353160, Note_on_c, 0, 73, 25
1, 353280, Tempo, 408163
1, 353280, Note_on_c, 0, 73, 0
1, 353280, Note_on_c, 0, 80, 0
1, 353280, Note_on_c, 0, 78, 41
1, 353280, Note_on_c, 0, 66, 25
1, 353400, Note_on_c, 0, 66, 0
1, 353400, Note_on_c, 0, 73, 25
1, 353520, Tempo, 458015
1, 353520, Note_on_c, 0, 73, 0
1, 353520, Note_on_c, 0, 78, 0
1, 353520, Note_on_c, 0, 71, 0
1, 353520, Note_on_c, 0, 71, 29
1, 353520, Note_on_c, 0, 83, 43
1, 353520, Note_on_c, 0, 64, 34
1, 353529, Control_c, 0, 64, 0
1, 353598, Control_c, 0, 64, 127
1, 353640, Note_on_c, 0, 64, 0
1, 353640, Note_on_c, 0, 73, 25
1, 353760, Note_on_c, 0, 73, 0
1, 353760, Note_on_c, 0, 83, 0
1, 353760, Note_on_c, 0, 75, 45
1, 353760, Note_on_c, 0, 68, 25
1, 353880, Note_on_c, 0, 68, 0
1, 353880, Note_on_c, 0, 73, 25
1, 353940, Tempo, 397351
1, 353940, Note_on_c, 0, 75, 0
1, 353940, Note_on_c, 0, 78, 35
1, 354000, Tempo, 444444
1, 354000, Note_on_c, 0, 78, 0
1, 354000, Note_on_c, 0, 73, 0
1, 354000, Note_on_c, 0, 76, 43
1, 354000, Note_on_c, 0, 59, 31
1, 354014, Control_c, 0, 64, 0
1, 354064, Control_c, 0, 64, 127
1, 354120, Note_on_c, 0, 59, 0
1, 354120, Note_on_c, 0, 73, 25
1, 354240, Note_on_c, 0, 73, 0
1, 354240, Note_on_c, 0, 68, 25
1, 354360, Note_on_c, 0, 68, 0
1, 354360, Note_on_c, 0, 73, 25
1, 354480, Tempo, 468750
1, 354480, Note_on_c, 0, 73, 0
1, 354480, Note_on_c, 0, 76, 0
1, 354480, Note_on_c, 0, 71, 0
1, 354480, Note_on_c, 0, 71, 35
1, 354480, Note_on_c, 0, 81, 50
1, 354480, Note_on_c, 0, 63, 34
1, 354494, Control_c, 0, 64, 0
1, 354576, Control_c, 0, 64, 127
1, 354600, Note_on_c, 0, 63, 0
1, 354600, Note_on_c, 0, 73, 25
1, 354720, Note_on_c, 0, 73, 0
1, 354720, Note_on_c, 0, 66, 25
1, 354840, Tempo, 402685
1, 354840, Note_on_c, 0, 66, 0
1, 354840, Note_on_c, 0, 81, 0
1, 354840, Note_on_c, 0, 83, 36
1, 354840, Note_on_c, 0, 73, 25
1, 354900, Note_on_c, 0, 83, 0
1, 354900, Note_on_c, 0, 81, 36
1, 354960, Tempo, 428571
1, 354960, Note_on_c, 0, 81, 0
1, 354960, Note_on_c, 0, 73, 0
1, 354960, Note_on_c, 0, 80, 50
1, 354960, Note_on_c, 0, 59, 31
1, 354977, Control_c, 0, 64, 0
1, 355027, Control_c, 0, 64, 127
1, 355080, Note_on_c, 0, 59, 0
1, 355080, Note_on_c, 0, 73, 25
1, 355200, Tempo, 408163
1, 355200, Note_on_c, 0, 73, 0
1, 355200, Note_on_c, 0, 80, 0
1, 355200, Note_on_c, 0, 78, 41
1, 355200, Note_on_c, 0, 66, 25
1, 355320, Note_on_c, 0, 66, 0
1, 355320, Note_on_c, 0, 73, 25
1, 355440, Tempo, 458015
1, 355440, Note_on_c, 0, 73, 0
1, 355440, Note_on_c, 0, 78, 0
1, 355440, Note_on_c, 0, 71, 0
1, 355440, Note_on_c, 0, 71, 29
1, 355440, Note_on_c, 0, 83, 44
1, 355440, Note_on_c, 0, 64, 34
1, 355449, Control_c, 0, 64, 0
1, 355518, Control_c, 0, 64, 127
1, 355560, Note_on_c, 0, 64, 0
1, 355560, Note_on_c, 0, 73, 25
1, 355680, Note_on_c, 0, 73, 0
1, 355680, Note_on_c, 0, 83, 0
1, 355680, Note_on_c, 0, 75, 45
1, 355680, Note_on_c, 0, 68, 25
1, 355800, Note_on_c, 0, 68, 0
1, 355800, Note_on_c, 0, 73, 25
1, 355860, Tempo, 397351
1, 355860, Note_on_c, 0, 75, 0
1, 355860, Note_on_c, 0, 78, 35
1, 355920, Tempo, 444444
1, 355920, Note_on_c, 0, 78, 0
1, 355920, Note_on_c, 0, 73, 0
1, 355920, Note_on_c, 0, 76, 43
1, 355920, Note_on_c, 0, 59, 31
1, 355934, Control_c, 0, 64, 0
1, 355984, Control_c, 0, 64, 127
1, 356040, Note_on_c, 0, 59, 0
1, 356040, Note_on_c, 0, 73, 25
1, 356160, Tempo, 487805
1, 356160, Note_on_c, 0, 73, 0
1, 356160, Note_on_c, 0, 68, 25
1, 356280, Note_on_c, 0, 68, 0
1, 356280, Note_on_c, 0, 64, 25
1, 356400, Tempo, 422535
1, 356400, Note_on_c, 0, 64, 0
1, 356400, Note_on_c, 0, 76, 0
1, 356400, Note_on_c, 0, 71, 0
1, 356400, Note_on_c, 0, 37, 44
1, 356400, Note_on_c, 0, 49, 52
1, 356403, Control_c, 0, 64, 0
1, 356503, Control_c, 0, 64, 127
1, 356520, Note_on_c, 0, 49, 0
1, 356520, Note_on_c, 0, 54, 36
1, 356520, Note_on_c, 0, 42, 47
1, 356640, Note_on_c, 0, 54, 0
1, 356640, Note_on_c, 0, 58, 41
1, 356760, Tempo, 451128
1, 356760, Note_on_c, 0, 58, 0
1, 356760, Note_on_c, 0, 66, 36
1, 356760, Note_on_c, 0, 64, 28
1, 356880, Tempo, 441176
1, 356880, Note_on_c, 0, 64, 0
1, 356880, Note_on_c, 0, 37, 0
1, 356880, Note_on_c, 0, 42, 0
1, 356880, Note_on_c, 0, 66, 0
1, 356880, Note_on_c, 0, 35, 32
1, 356880, Note_on_c, 0, 47, 38
1, 356890, Control_c, 0, 64, 0
1, 356983, Control_c, 0, 64, 127
1, 357000, Note_on_c, 0, 47, 0
1, 357000, Note_on_c, 0, 54, 24
1, 357000, Note_on_c, 0, 42, 35
1, 357060, Tempo, 504202
1, 357120, Note_on_c, 0, 54, 0
1, 357120, Note_on_c, 0, 59, 27
1, 357240, Tempo, 800000
1, 357240, Note_on_c, 0, 59, 0
1, 357240, Note_on_c, 0, 66, 24
1, 357240, Note_on_c, 0, 63, 19
1, 357360, Tempo, 468750
1, 357360, Note_on_c, 0, 63, 0
1, 357360, Note_on_c, 0, 35, 0
1, 357360, Note_on_c, 0, 42, 0
1, 357360, Note_on_c, 0, 66, 0
1, 357360, Note_on_c, 0, 71, 35
1, 357360, Note_on_c, 0, 78, 50
1, 357360, Note_on_c, 0, 62, 34
1, 357360, Control_c, 0, 64, 0
1, 357365, Control_c, 0, 64, 0
1, 357403, Control_c, 0, 64, 127
1, 357480, Note_on_c, 0, 62, 0
1, 357480, Note_on_c, 0, 73, 25
1, 357600, Note_on_c, 0, 73, 0
1, 357600, Note_on_c, 0, 66, 25
1, 357720, Tempo, 402685
1, 357720, Note_on_c, 0, 66, 0
1, 357720, Note_on_c, 0, 78, 0
1, 357720, Note_on_c, 0, 80, 36
1, 357720, Note_on_c, 0, 73, 25
1, 357780, Note_on_c, 0, 80, 0
1, 357780, Note_on_c, 0, 78, 36
1, 357840, Tempo, 428571
1, 357840, Note_on_c, 0, 78, 0
1, 357840, Note_on_c, 0, 73, 0
1, 357840, Note_on_c, 0, 77, 50
1, 357840, Note_on_c, 0, 62, 31
1, 357857, Control_c, 0, 64, 0
1, 357907, Control_c, 0, 64, 127
1, 357960, Note_on_c, 0, 62, 0
1, 357960, Note_on_c, 0, 73, 25
1, 358080, Tempo, 408163
1, 358080, Note_on_c, 0, 73, 0
1, 358080, Note_on_c, 0, 77, 0
1, 358080, Note_on_c, 0, 78, 41
1, 358080, Note_on_c, 0, 66, 25
1, 358200, Note_on_c, 0, 66, 0
1, 358200, Note_on_c, 0, 73, 25
1, 358260, Note_on_c, 0, 78, 0
1, 358260, Note_on_c, 0, 81, 35
1, 358320, Tempo, 458015
1, 358320, Note_on_c, 0, 81, 0
1, 358320, Note_on_c, 0, 73, 0
1, 358320, Note_on_c, 0, 71, 0
1, 358320, Note_on_c, 0, 71, 29
1, 358320, Note_on_c, 0, 80, 43
1, 358320, Note_on_c, 0, 64, 34
1, 358329, Control_c, 0, 64, 0
1, 358398, Control_c, 0, 64, 127
1, 358440, Note_on_c, 0, 64, 0
1, 358440, Note_on_c, 0, 73, 25
1, 358560, Note_on_c, 0, 73, 0
1, 358560, Note_on_c, 0, 68, 25
1, 358680, Note_on_c, 0, 68, 0
1, 358680, Note_on_c, 0, 73, 25
1, 358740, Tempo, 397351
1, 358740, Note_on_c, 0, 80, 0
1, 358740, Note_on_c, 0, 80, 35
1, 358800, Tempo, 444444
1, 358800, Note_on_c, 0, 80, 0
1, 358800, Note_on_c, 0, 73, 0
1, 358800, Note_on_c, 0, 71, 0
1, 358800, Note_on_c, 0, 71, 29
1, 358800, Note_on_c, 0, 78, 43
1, 358800, Note_on_c, 0, 62, 31
1, 358814, Control_c, 0, 64, 0
1, 358864, Control_c, 0, 64, 127
1, 358920, Note_on_c, 0, 62, 0
1, 358920, Note_on_c, 0, 73, 25
1, 359040, Note_on_c, 0, 73, 0
1, 359040, Note_on_c, 0, 66, 25
1, 359160, Note_on_c, 0, 66, 0
1, 359160, Note_on_c, 0, 73, 25
1, 359280, Tempo, 422535
1, 359280, Note_on_c, 0, 73, 0
1, 359280, Note_on_c, 0, 78, 0
1, 359280, Note_on_c, 0, 71, 0
1, 359280, Note_on_c, 0, 37, 44
1, 359280, Note_on_c, 0, 49, 52
1, 359287, Control_c, 0, 64, 0
1, 359383, Control_c, 0, 64, 127
1, 359400, Note_on_c, 0, 49, 0
1, 359400, Note_on_c, 0, 54, 36
1, 359400, Note_on_c, 0, 42, 47
1, 359520, Note_on_c, 0, 54, 0
1, 359520, Note_on_c, 0, 58, 41
1, 359640, Tempo, 454545
1, 359640, Note_on_c, 0, 58, 0
1, 359640, Note_on_c, 0, 66, 36
1, 359640, Note_on_c, 0, 64, 28
1, 359760, Tempo, 441176
1, 359760, Note_on_c, 0, 64, 0
1, 359760, Note_on_c, 0, 37, 0
1, 359760, Note_on_c, 0, 42, 0
1, 359760, Note_on_c, 0, 66, 0
1, 359760, Note_on_c, 0, 35, 32
1, 359760, Note_on_c, 0, 47, 38
1, 359764, Control_c, 0, 64, 0
1, 359863, Control_c, 0, 64, 127
1, 359880, Note_on_c, 0, 47, 0
1, 359880, Note_on_c, 0, 54, 24
1, 359880, Note_on_c, 0, 42, 35
1, 359940, Tempo, 504202
1, 360000, Note_on_c, 0, 54, 0
1, 360000, Note_on_c, 0, 59, 27
1, 360120, Tempo, 1224490
1, 360120, Note_on_c, 0, 59, 0
1, 360120, Note_on_c, 0, 66, 24
1, 360120, Note_on_c, 0, 63, 19
1, 360180, Tempo, 379747
1, 360180, Note_on_c, 0, 63, 0
1, 360180, Note_on_c, 0, 66, 0
1, 360180, Note_on_c, 0, 81, 37
1, 360240, Tempo, 441176
1, 360240, Note_on_c, 0, 81, 0
1, 360240, Note_on_c, 0, 42, 0
1, 360240, Note_on_c, 0, 35, 0
1, 360240, Note_on_c, 0, 80, 50
1, 360240, Note_on_c, 0, 62, 34
1, 360240, Control_c, 0, 64, 0
1, 360240, Control_c, 0, 64, 0
1, 360283, Control_c, 0, 64, 127
1, 360360, Note_on_c, 0, 62, 0
1, 360360, Note_on_c, 0, 80, 0
1, 360360, Note_on_c, 0, 73, 25
1, 360420, Tempo, 377358
1, 360420, Note_on_c, 0, 80, 37
1, 360480, Tempo, 431655
1, 360480, Note_on_c, 0, 80, 0
1, 360480, Note_on_c, 0, 73, 0
1, 360480, Note_on_c, 0, 78, 50
1, 360480, Note_on_c, 0, 66, 25
1, 360495, Control_c, 0, 64, 0
1, 360537, Control_c, 0, 64, 127
1, 360600, Tempo, 428571
1, 360600, Note_on_c, 0, 66, 0
1, 360600, Note_on_c, 0, 78, 0
1, 360600, Note_on_c, 0, 73, 25
1, 360660, Tempo, 377358
1, 360660, Note_on_c, 0, 78, 37
1, 360720, Tempo, 447761
1, 360720, Note_on_c, 0, 78, 0
1, 360720, Note_on_c, 0, 73, 0
1, 360720, Note_on_c, 0, 77, 50
1, 360720, Note_on_c, 0, 62, 31
1, 360737, Control_c, 0, 64, 0
1, 360787, Control_c, 0, 64, 127
1, 360840, Note_on_c, 0, 62, 0
1, 360840, Note_on_c, 0, 77, 0
1, 360840, Note_on_c, 0, 71, 25
1, 360900, Tempo, 379747
1, 360900, Note_on_c, 0, 77, 37
1, 360960, Tempo, 472441
1, 360960, Note_on_c, 0, 77, 0
1, 360960, Note_on_c, 0, 71, 0
1, 360960, Note_on_c, 0, 74, 50
1, 360960, Note_on_c, 0, 66, 25
1, 360971, Control_c, 0, 64, 0
1, 361006, Control_c, 0, 64, 127
1, 361080, Note_on_c, 0, 66, 0
1, 361080, Note_on_c, 0, 74, 0
1, 361080, Note_on_c, 0, 71, 25
1, 361200, Tempo, 458015
1, 361200, Note_on_c, 0, 71, 0
1, 361200, Note_on_c, 0, 73, 50
1, 361200, Note_on_c, 0, 65, 34
1, 361209, Control_c, 0, 64, 0
1, 361275, Control_c, 0, 64, 127
1, 361320, Note_on_c, 0, 65, 0
1, 361320, Note_on_c, 0, 73, 0
1, 361320, Note_on_c, 0, 71, 25
1, 361440, Note_on_c, 0, 71, 0
1, 361440, Note_on_c, 0, 85, 50
1, 361440, Note_on_c, 0, 68, 25
1, 361453, Control_c, 0, 64, 0
1, 361520, Control_c, 0, 64, 127
1, 361560, Note_on_c, 0, 68, 0
1, 361560, Note_on_c, 0, 85, 0
1, 361560, Note_on_c, 0, 71, 25
1, 361680, Note_on_c, 0, 71, 0
1, 361680, Note_on_c, 0, 85, 50
1, 361680, Note_on_c, 0, 66, 31
1, 361694, Control_c, 0, 64, 0
1, 361744, Control_c, 0, 64, 127
1, 361800, Note_on_c, 0, 66, 0
1, 361800, Note_on_c, 0, 85, 0
1, 361800, Note_on_c, 0, 76, 25
1, 361920, Note_on_c, 0, 76, 0
1, 361920, Note_on_c, 0, 97, 50
1, 361920, Note_on_c, 0, 70, 25
1, 361928, Control_c, 0, 64, 0
1, 361977, Control_c, 0, 64, 127
1, 362040, Tempo, 504202
1, 362040, Note_on_c, 0, 70, 0
1, 362040, Note_on_c, 0, 97, 0
1, 362040, Note_on_c, 0, 76, 25
1, 362160, Tempo, 425532
1, 362160, Note_on_c, 0, 76, 0
1, 362160, Note_on_c, 0, 42, 46
1, 362166, Control_c, 0, 64, 0
1, 362263, Control_c, 0, 64, 127
1, 362280, Note_on_c, 0, 54, 32
1, 362280, Note_on_c, 0, 49, 42
1, 362400, Note_on_c, 0, 54, 0
1, 362400, Note_on_c, 0, 58, 36
1, 362520, Tempo, 444444
1, 362520, Note_on_c, 0, 58, 0
1, 362520, Note_on_c, 0, 66, 32
1, 362520, Note_on_c, 0, 64, 25
1, 362640, Tempo, 441176
1, 362640, Note_on_c, 0, 64, 0
1, 362640, Note_on_c, 0, 42, 0
1, 362640, Note_on_c, 0, 49, 0
1, 362640, Note_on_c, 0, 66, 0
1, 362640, Note_on_c, 0, 35, 34
1, 362653, Control_c, 0, 64, 0
1, 362743, Control_c, 0, 64, 127
1, 362760, Note_on_c, 0, 54, 21
1, 362760, Note_on_c, 0, 47, 31
1, 362820, Tempo, 504202
1, 362880, Note_on_c, 0, 54, 0
1, 362880, Note_on_c, 0, 59, 24
1, 363000, Tempo, 800000
1, 363000, Note_on_c, 0, 59, 0
1, 363000, Note_on_c, 0, 66, 21
1, 363000, Note_on_c, 0, 63, 17
1, 363120, Tempo, 468750
1, 363120, Note_on_c, 0, 63, 0
1, 363120, Note_on_c, 0, 35, 0
1, 363120, Note_on_c, 0, 47, 0
1, 363120, Note_on_c, 0, 66, 0
1, 363120, Note_on_c, 0, 71, 35
1, 363120, Note_on_c, 0, 78, 50
1, 363120, Note_on_c, 0, 62, 34
1, 363120, Control_c, 0, 64, 0
1, 363127, Control_c, 0, 64, 0
1, 363163, Control_c, 0, 64, 127
1, 363240, Note_on_c, 0, 62, 0
1, 363240, Note_on_c, 0, 73, 25
1, 363360, Note_on_c, 0, 73, 0
1, 363360, Note_on_c, 0, 66, 25
1, 363480, Tempo, 402685
1, 363480, Note_on_c, 0, 66, 0
1, 363480, Note_on_c, 0, 78, 0
1, 363480, Note_on_c, 0, 80, 36
1, 363480, Note_on_c, 0, 73, 25
1, 363540, Note_on_c, 0, 80, 0
1, 363540, Note_on_c, 0, 78, 36
1, 363600, Tempo, 428571
1, 363600, Note_on_c, 0, 78, 0
1, 363600, Note_on_c, 0, 73, 0
1, 363600, Note_on_c, 0, 77, 50
1, 363600, Note_on_c, 0, 62, 31
1, 363617, Control_c, 0, 64, 0
1, 363667, Control_c, 0, 64, 127
1, 363720, Note_on_c, 0, 62, 0
1, 363720, Note_on_c, 0, 73, 25
1, 363840, Tempo, 408163
1, 363840, Note_on_c, 0, 73, 0
1, 363840, Note_on_c, 0, 77, 0
1, 363840, Note_on_c, 0, 78, 41
1, 363840, Note_on_c, 0, 66, 25
1, 363960, Note_on_c, 0, 66, 0
1, 363960, Note_on_c, 0, 73, 25
1, 364020, Note_on_c, 0, 78, 0
1, 364020, Note_on_c, 0, 81, 35
1, 364080, Tempo, 458015
1, 364080, Note_on_c, 0, 81, 0
1, 364080, Note_on_c, 0, 73, 0
1, 364080, Note_on_c, 0, 71, 0
1, 364080, Note_on_c, 0, 71, 29
1, 364080, Note_on_c, 0, 80, 43
1, 364080, Note_on_c, 0, 64, 34
1, 364089, Control_c, 0, 64, 0
1, 364158, Control_c, 0, 64, 127
1, 364200, Note_on_c, 0, 64, 0
1, 364200, Note_on_c, 0, 73, 25
1, 364320, Note_on_c, 0, 73, 0
1, 364320, Note_on_c, 0, 68, 25
1, 364440, Note_on_c, 0, 68, 0
1, 364440, Note_on_c, 0, 73, 25
1, 364500, Tempo, 397351
1, 364500, Note_on_c, 0, 80, 0
1, 364500, Note_on_c, 0, 80, 35
1, 364560, Tempo, 444444
1, 364560, Note_on_c, 0, 80, 0
1, 364560, Note_on_c, 0, 73, 0
1, 364560, Note_on_c, 0, 71, 0
1, 364560, Note_on_c, 0, 71, 29
1, 364560, Note_on_c, 0, 78, 43
1, 364560, Note_on_c, 0, 62, 31
1, 364574, Control_c, 0, 64, 0
1, 364624, Control_c, 0, 64, 127
1, 364680, Note_on_c, 0, 62, 0
1, 364680, Note_on_c, 0, 73, 25
1, 364800, Note_on_c, 0, 73, 0
1, 364800, Note_on_c, 0, 66, 25
1, 364920, Note_on_c, 0, 66, 0
1, 364920, Note_on_c, 0, 73, 25
1, 365040, Tempo, 422535
1, 365040, Note_on_c, 0, 73, 0
1, 365040, Note_on_c, 0, 78, 0
1, 365040, Note_on_c, 0, 71, 0
1, 365040, Note_on_c, 0, 37, 39
1, 365040, Note_on_c, 0, 49, 46
1, 365048, Control_c, 0, 64, 0
1, 365143, Control_c, 0, 64, 127
1, 365160, Note_on_c, 0, 49, 0
1, 365160, Note_on_c, 0, 54, 32
1, 365160, Note_on_c, 0, 42, 42
1, 365280, Note_on_c, 0, 54, 0
1, 365280, Note_on_c, 0, 58, 36
1, 365400, Tempo, 444444
1, 365400, Note_on_c, 0, 58, 0
1, 365400, Note_on_c, 0, 66, 32
1, 365400, Note_on_c, 0, 64, 25
1, 365520, Tempo, 441176
1, 365520, Note_on_c, 0, 64, 0
1, 365520, Note_on_c, 0, 37, 0
1, 365520, Note_on_c, 0, 42, 0
1, 365520, Note_on_c, 0, 66, 0
1, 365520, Note_on_c, 0, 35, 28
1, 365520, Note_on_c, 0, 47, 34
1, 365524, Control_c, 0, 64, 0
1, 365623, Control_c, 0, 64, 127
1, 365640, Note_on_c, 0, 47, 0
1, 365640, Note_on_c, 0, 54, 21
1, 365640, Note_on_c, 0, 42, 31
1, 365700, Tempo, 504202
1, 365760, Note_on_c, 0, 54, 0
1, 365760, Note_on_c, 0, 59, 24
1, 365880, Tempo, 1224490
1, 365880, Note_on_c, 0, 59, 0
1, 365880, Note_on_c, 0, 66, 24
1, 365880, Note_on_c, 0, 63, 19
1, 365940, Tempo, 379747
1, 365940, Note_on_c, 0, 63, 0
1, 365940, Note_on_c, 0, 66, 0
1, 365940, Note_on_c, 0, 81, 37
1, 366000, Tempo, 434783
1, 366000, Note_on_c, 0, 81, 0
1, 366000, Note_on_c, 0, 42, 0
1, 366000, Note_on_c, 0, 35, 0
1, 366000, Note_on_c, 0, 80, 50
1, 366000, Note_on_c, 0, 62, 34
1, 366000, Control_c, 0, 64, 0
1, 366000, Control_c, 0, 64, 0
1, 366043, Control_c, 0, 64, 127
1, 366120, Note_on_c, 0, 62, 0
1, 366120, Note_on_c, 0, 80, 0
1, 366120, Note_on_c, 0, 73, 25
1, 366180, Tempo, 377358
1, 366180, Note_on_c, 0, 80, 37
1, 366240, Tempo, 444444
1, 366240, Note_on_c, 0, 80, 0
1, 366240, Note_on_c, 0, 73, 0
1, 366240, Note_on_c, 0, 78, 50
1, 366240, Note_on_c, 0, 66, 25
1, 366255, Control_c, 0, 64, 0
1, 366297, Control_c, 0, 64, 127
1, 366360, Note_on_c, 0, 66, 0
1, 366360, Note_on_c, 0, 78, 0
1, 366360, Note_on_c, 0, 73, 25
1, 366420, Tempo, 377358
1, 366420, Note_on_c, 0, 78, 37
1, 366480, Tempo, 451128
1, 366480, Note_on_c, 0, 78, 0
1, 366480, Note_on_c, 0, 73, 0
1, 366480, Note_on_c, 0, 77, 50
1, 366480, Note_on_c, 0, 62, 31
1, 366497, Control_c, 0, 64, 0
1, 366547, Control_c, 0, 64, 127
1, 366600, Note_on_c, 0, 62, 0
1, 366600, Note_on_c, 0, 77, 0
1, 366600, Note_on_c, 0, 71, 25
1, 366660, Tempo, 379747
1, 366660, Note_on_c, 0, 77, 37
1, 366720, Tempo, 454545
1, 366720, Note_on_c, 0, 77, 0
1, 366720, Note_on_c, 0, 71, 0
1, 366720, Note_on_c, 0, 74, 50
1, 366720, Note_on_c, 0, 66, 25
1, 366731, Control_c, 0, 64, 0
1, 366766, Control_c, 0, 64, 127
1, 366840, Note_on_c, 0, 66, 0
1, 366840, Note_on_c, 0, 74, 0
1, 366840, Note_on_c, 0, 71, 25
1, 366960, Tempo, 458015
1, 366960, Note_on_c, 0, 71, 0
1, 366960, Note_on_c, 0, 73, 50
1, 366960, Note_on_c, 0, 65, 34
1, 366969, Control_c, 0, 64, 0
1, 367035, Control_c, 0, 64, 127
1, 367080, Note_on_c, 0, 65, 0
1, 367080, Note_on_c, 0, 73, 0
1, 367080, Note_on_c, 0, 71, 25
1, 367200, Note_on_c, 0, 71, 0
1, 367200, Note_on_c, 0, 85, 50
1, 367200, Note_on_c, 0, 68, 25
1, 367215, Control_c, 0, 64, 0
1, 367280, Control_c, 0, 64, 127
1, 367320, Note_on_c, 0, 68, 0
1, 367320, Note_on_c, 0, 85, 0
1, 367320, Note_on_c, 0, 71, 25
1, 367440, Note_on_c, 0, 71, 0
1, 367440, Note_on_c, 0, 85, 50
1, 367440, Note_on_c, 0, 66, 31
1, 367454, Control_c, 0, 64, 0
1, 367504, Control_c, 0, 64, 127
1, 367560, Note_on_c, 0, 66, 0
1, 367560, Note_on_c, 0, 85, 0
1, 367560, Note_on_c, 0, 76, 25
1, 367680, Tempo, 526316
1, 367680, Note_on_c, 0, 76, 0
1, 367680, Note_on_c, 0, 97, 50
1, 367680, Note_on_c, 0, 70, 25
1, 367688, Control_c, 0, 64, 0
1, 367737, Control_c, 0, 64, 127
1, 367800, Note_on_c, 0, 70, 0
1, 367800, Note_on_c, 0, 97, 0
1, 367800, Note_on_c, 0, 76, 25
1, 367920, Tempo, 526316
1, 367920, Note_on_c, 0, 76, 0
1, 367920, Note_on_c, 0, 42, 44
1, 367926, Control_c, 0, 64, 0
1, 368023, Control_c, 0, 64, 127
1, 368040, Note_on_c, 0, 54, 30
1, 368040, Note_on_c, 0, 49, 39
1, 368160, Note_on_c, 0, 54, 0
1, 368160, Note_on_c, 0, 58, 34
1, 368280, Tempo, 566038
1, 368280, Note_on_c, 0, 58, 0
1, 368280, Note_on_c, 0, 66, 30
1, 368280, Note_on_c, 0, 64, 23
1, 368400, Tempo, 588235
1, 368400, Note_on_c, 0, 64, 0
1, 368400, Note_on_c, 0, 42, 0
1, 368400, Note_on_c, 0, 49, 0
1, 368400, Note_on_c, 0, 66, 0
1, 368400, Note_on_c, 0, 35, 32
1, 368404, Control_c, 0, 64, 0
1, 368503, Control_c, 0, 64, 127
1, 368520, Note_on_c, 0, 54, 20
1, 368520, Note_on_c, 0, 47, 29
1, 368640, Note_on_c, 0, 54, 0
1, 368640, Note_on_c, 0, 59, 22
1, 368760, Tempo, 1176471
1, 368760, Note_on_c, 0, 59, 0
1, 368760, Note_on_c, 0, 66, 20
1, 368760, Note_on_c, 0, 63, 16
1, 368880, Tempo, 468750
1, 368880, Note_on_c, 0, 63, 0
1, 368880, Note_on_c, 0, 35, 0
1, 368880, Note_on_c, 0, 47, 0
1, 368880, Note_on_c, 0, 66, 0
1, 368880, Note_on_c, 0, 81, 42
1, 368880, Note_on_c, 0, 93, 50
1, 368880, Note_on_c, 0, 51, 34
1, 368888, Control_c, 0, 64, 0
1, 368923, Control_c, 0, 64, 127
1, 369040, Note_on_c, 0, 51, 0
1, 369040, Note_on_c, 0, 61, 25
1, 369200, Note_on_c, 0, 61, 0
1, 369200, Note_on_c, 0, 59, 25
1, 369240, Tempo, 402685
1, 369240, Note_on_c, 0, 93, 0
1, 369240, Note_on_c, 0, 95, 36
1, 369300, Note_on_c, 0, 95, 0
1, 369300, Note_on_c, 0, 93, 36
1, 369360, Tempo, 444444
1, 369360, Note_on_c, 0, 93, 0
1, 369360, Note_on_c, 0, 59, 0
1, 369360, Note_on_c, 0, 81, 0
1, 369360, Note_on_c, 0, 80, 42
1, 369360, Note_on_c, 0, 92, 50
1, 369360, Note_on_c, 0, 69, 31
1, 369377, Control_c, 0, 64, 0
1, 369427, Control_c, 0, 64, 127
1, 369480, Note_on_c, 0, 69, 0
1, 369480, Note_on_c, 0, 66, 25
1, 369600, Tempo, 416667
1, 369600, Note_on_c, 0, 66, 0
1, 369600, Note_on_c, 0, 92, 0
1, 369600, Note_on_c, 0, 80, 0
1, 369600, Note_on_c, 0, 78, 34
1, 369600, Note_on_c, 0, 90, 41
1, 369600, Note_on_c, 0, 61, 25
1, 369720, Note_on_c, 0, 61, 0
1, 369720, Note_on_c, 0, 59, 25
1, 369840, Tempo, 458015
1, 369840, Note_on_c, 0, 59, 0
1, 369840, Note_on_c, 0, 90, 0
1, 369840, Note_on_c, 0, 78, 0
1, 369840, Note_on_c, 0, 83, 36
1, 369840, Note_on_c, 0, 95, 43
1, 369840, Note_on_c, 0, 52, 34
1, 369849, Control_c, 0, 64, 0
1, 369918, Control_c, 0, 64, 127
1, 370000, Note_on_c, 0, 52, 0
1, 370000, Note_on_c, 0, 61, 25
1, 370080, Note_on_c, 0, 95, 0
1, 370080, Note_on_c, 0, 83, 0
1, 370080, Note_on_c, 0, 75, 38
1, 370080, Note_on_c, 0, 87, 45
1, 370160, Note_on_c, 0, 61, 0
1, 370160, Note_on_c, 0, 59, 25
1, 370260, Tempo, 397351
1, 370260, Note_on_c, 0, 87, 0
1, 370260, Note_on_c, 0, 90, 35
1, 370320, Tempo, 444444
1, 370320, Note_on_c, 0, 90, 0
1, 370320, Note_on_c, 0, 59, 0
1, 370320, Note_on_c, 0, 75, 0
1, 370320, Note_on_c, 0, 76, 36
1, 370320, Note_on_c, 0, 88, 43
1, 370320, Note_on_c, 0, 68, 31
1, 370334, Control_c, 0, 64, 0
1, 370384, Control_c, 0, 64, 127
1, 370440, Note_on_c, 0, 68, 0
1, 370440, Note_on_c, 0, 64, 25
1, 370560, Note_on_c, 0, 64, 0
1, 370560, Note_on_c, 0, 61, 25
1, 370680, Note_on_c, 0, 61, 0
1, 370680, Note_on_c, 0, 59, 25
1, 370800, Tempo, 458015
1, 370800, Note_on_c, 0, 59, 0
1, 370800, Note_on_c, 0, 88, 0
1, 370800, Note_on_c, 0, 76, 0
1, 370800, Note_on_c, 0, 81, 42
1, 370800, Note_on_c, 0, 93, 50
1, 370800, Note_on_c, 0, 51, 34
1, 370816, Control_c, 0, 64, 0
1, 370896, Control_c, 0, 64, 127
1, 370960, Note_on_c, 0, 51, 0
1, 370960, Note_on_c, 0, 61, 25
1, 371120, Note_on_c, 0, 61, 0
1, 371120, Note_on_c, 0, 59, 25
1, 371160, Tempo, 402685
1, 371160, Note_on_c, 0, 93, 0
1, 371160, Note_on_c, 0, 95, 36
1, 371220, Note_on_c, 0, 95, 0
1, 371220, Note_on_c, 0, 93, 36
1, 371280, Tempo, 428571
1, 371280, Note_on_c, 0, 93, 0
1, 371280, Note_on_c, 0, 59, 0
1, 371280, Note_on_c, 0, 81, 0
1, 371280, Note_on_c, 0, 80, 42
1, 371280, Note_on_c, 0, 92, 50
1, 371280, Note_on_c, 0, 69, 31
1, 371297, Control_c, 0, 64, 0
1, 371347, Control_c, 0, 64, 127
1, 371400, Note_on_c, 0, 69, 0
1, 371400, Note_on_c, 0, 66, 25
1, 371520, Tempo, 408163
1, 371520, Note_on_c, 0, 66, 0
1, 371520, Note_on_c, 0, 92, 0
1, 371520, Note_on_c, 0, 80, 0
1, 371520, Note_on_c, 0, 78, 34
1, 371520, Note_on_c, 0, 90, 41
1, 371520, Note_on_c, 0, 61, 25
1, 371640, Note_on_c, 0, 61, 0
1, 371640, Note_on_c, 0, 59, 25
1, 371760, Tempo, 458015
1, 371760, Note_on_c, 0, 59, 0
1, 371760, Note_on_c, 0, 90, 0
1, 371760, Note_on_c, 0, 78, 0
1, 371760, Note_on_c, 0, 83, 37
1, 371760, Note_on_c, 0, 95, 44
1, 371760, Note_on_c, 0, 52, 34
1, 371769, Control_c, 0, 64, 0
1, 371838, Control_c, 0, 64, 127
1, 371920, Note_on_c, 0, 52, 0
1, 371920, Note_on_c, 0, 61, 25
1, 372000, Note_on_c, 0, 95, 0
1, 372000, Note_on_c, 0, 83, 0
1, 372000, Note_on_c, 0, 75, 38
1, 372000, Note_on_c, 0, 87, 45
1, 372080, Note_on_c, 0, 61, 0
1, 372080, Note_on_c, 0, 59, 25
1, 372180, Tempo, 397351
1, 372180, Note_on_c, 0, 87, 0
1, 372180, Note_on_c, 0, 90, 35
1, 372240, Tempo, 444444
1, 372240, Note_on_c, 0, 90, 0
1, 372240, Note_on_c, 0, 59, 0
1, 372240, Note_on_c, 0, 75, 0
1, 372240, Note_on_c, 0, 76, 36
1, 372240, Note_on_c, 0, 88, 43
1, 372240, Note_on_c, 0, 68, 31
1, 372254, Control_c, 0, 64, 0
1, 372304, Control_c, 0, 64, 127
1, 372360, Note_on_c, 0, 68, 0
1, 372360, Note_on_c, 0, 64, 25
1, 372480, Tempo, 487805
1, 372480, Note_on_c, 0, 64, 0
1, 372480, Note_on_c, 0, 61, 25
1, 372600, Note_on_c, 0, 61, 0
1, 372600, Note_on_c, 0, 59, 25
1, 372720, Tempo, 422535
1, 372720, Note_on_c, 0, 59, 0
1, 372720, Note_on_c, 0, 88, 0
1, 372720, Note_on_c, 0, 76, 0
1, 372720, Note_on_c, 0, 37, 41
1, 372720, Note_on_c, 0, 49, 49
1, 372726, Control_c, 0, 64, 0
1, 372823, Control_c, 0, 64, 127
1, 372840, Note_on_c, 0, 49, 0
1, 372840, Note_on_c, 0, 54, 34
1, 372840, Note_on_c, 0, 42, 44
1, 372960, Note_on_c, 0, 54, 0
1, 372960, Note_on_c, 0, 58, 38
1, 373080, Tempo, 468750
1, 373080, Note_on_c, 0, 58, 0
1, 373080, Note_on_c, 0, 66, 34
1, 373080, Note_on_c, 0, 64, 26
1, 373200, Tempo, 441176
1, 373200, Note_on_c, 0, 64, 0
1, 373200, Note_on_c, 0, 37, 0
1, 373200, Note_on_c, 0, 42, 0
1, 373200, Note_on_c, 0, 66, 0
1, 373200, Note_on_c, 0, 35, 30
1, 373200, Note_on_c, 0, 47, 36
1, 373204, Control_c, 0, 64, 0
1, 373303, Control_c, 0, 64, 127
1, 373320, Note_on_c, 0, 47, 0
1, 373320, Note_on_c, 0, 54, 22
1, 373320, Note_on_c, 0, 42, 33
1, 373440, Tempo, 504202
1, 373440, Note_on_c, 0, 54, 0
1, 373440, Note_on_c, 0, 59, 25
1, 373560, Tempo, 759494
1, 373560, Note_on_c, 0, 59, 0
1, 373560, Note_on_c, 0, 66, 22
1, 373560, Note_on_c, 0, 63, 18
1, 373680, Tempo, 468750
1, 373680, Note_on_c, 0, 63, 0
1, 373680, Note_on_c, 0, 35, 0
1, 373680, Note_on_c, 0, 42, 0
1, 373680, Note_on_c, 0, 66, 0
1, 373680, Note_on_c, 0, 81, 42
1, 373680, Note_on_c, 0, 93, 50
1, 373680, Note_on_c, 0, 51, 34
1, 373680, Control_c, 0, 64, 0
1, 373723, Control_c, 0, 64, 127
1, 373840, Note_on_c, 0, 51, 0
1, 373840, Note_on_c, 0, 61, 25
1, 374000, Note_on_c, 0, 61, 0
1, 374000, Note_on_c, 0, 59, 25
1, 374040, Tempo, 402685
1, 374040, Note_on_c, 0, 93, 0
1, 374040, Note_on_c, 0, 95, 36
1, 374100, Note_on_c, 0, 95, 0
1, 374100, Note_on_c, 0, 93, 36
1, 374160, Tempo, 444444
1, 374160, Note_on_c, 0, 93, 0
1, 374160, Note_on_c, 0, 59, 0
1, 374160, Note_on_c, 0, 81, 0
1, 374160, Note_on_c, 0, 80, 42
1, 374160, Note_on_c, 0, 92, 50
1, 374160, Note_on_c, 0, 69, 31
1, 374177, Control_c, 0, 64, 0
1, 374227, Control_c, 0, 64, 127
1, 374280, Note_on_c, 0, 69, 0
1, 374280, Note_on_c, 0, 66, 25
1, 374400, Tempo, 416667
1, 374400, Note_on_c, 0, 66, 0
1, 374400, Note_on_c, 0, 92, 0
1, 374400, Note_on_c, 0, 80, 0
1, 374400, Note_on_c, 0, 78, 34
1, 374400, Note_on_c, 0, 90, 41
1, 374400, Note_on_c, 0, 61, 25
1, 374520, Note_on_c, 0, 61, 0
1, 374520, Note_on_c, 0, 59, 25
1, 374640, Tempo, 458015
1, 374640, Note_on_c, 0, 59, 0
1, 374640, Note_on_c, 0, 90, 0
1, 374640, Note_on_c, 0, 78, 0
1, 374640, Note_on_c, 0, 83, 36
1, 374640, Note_on_c, 0, 95, 43
1, 374640, Note_on_c, 0, 52, 34
1, 374649, Control_c, 0, 64, 0
1, 374718, Control_c, 0, 64, 127
1, 374800, Note_on_c, 0, 52, 0
1, 374800, Note_on_c, 0, 61, 25
1, 374880, Note_on_c, 0, 95, 0
1, 374880, Note_on_c, 0, 83, 0
1, 374880, Note_on_c, 0, 75, 38
1, 374880, Note_on_c, 0, 87, 45
1, 374960, Note_on_c, 0, 61, 0
1, 374960, Note_on_c, 0, 59, 25
1, 375060, Tempo, 397351
1, 375060, Note_on_c, 0, 87, 0
1, 375060, Note_on_c, 0, 90, 35
1, 375120, Tempo, 444444
1, 375120, Note_on_c, 0, 90, 0
1, 375120, Note_on_c, 0, 59, 0
1, 375120, Note_on_c, 0, 75, 0
1, 375120, Note_on_c, 0, 76, 36
1, 375120, Note_on_c, 0, 88, 43
1, 375120, Note_on_c, 0, 68, 31
1, 375134, Control_c, 0, 64, 0
1, 375184, Control_c, 0, 64, 127
1, 375240, Note_on_c, 0, 68, 0
1, 375240, Note_on_c, 0, 64, 25
1, 375360, Note_on_c, 0, 64, 0
1, 375360, Note_on_c, 0, 61, 25
1, 375480, Note_on_c, 0, 61, 0
1, 375480, Note_on_c, 0, 59, 25
1, 375600, Tempo, 458015
1, 375600, Note_on_c, 0, 59, 0
1, 375600, Note_on_c, 0, 88, 0
1, 375600, Note_on_c, 0, 76, 0
1, 375600, Note_on_c, 0, 81, 42
1, 375600, Note_on_c, 0, 93, 50
1, 375600, Note_on_c, 0, 51, 34
1, 375620, Control_c, 0, 64, 0
1, 375696, Control_c, 0, 64, 127
1, 375760, Note_on_c, 0, 51, 0
1, 375760, Note_on_c, 0, 61, 25
1, 375920, Note_on_c, 0, 61, 0
1, 375920, Note_on_c, 0, 59, 25
1, 375960, Tempo, 402685
1, 375960, Note_on_c, 0, 93, 0
1, 375960, Note_on_c, 0, 95, 36
1, 376020, Note_on_c, 0, 95, 0
1, 376020, Note_on_c, 0, 93, 36
1, 376080, Tempo, 428571
1, 376080, Note_on_c, 0, 93, 0
1, 376080, Note_on_c, 0, 59, 0
1, 376080, Note_on_c, 0, 81, 0
1, 376080, Note_on_c, 0, 80, 42
1, 376080, Note_on_c, 0, 92, 50
1, 376080, Note_on_c, 0, 69, 31
1, 376097, Control_c, 0, 64, 0
1, 376147, Control_c, 0, 64, 127
1, 376200, Note_on_c, 0, 69, 0
1, 376200, Note_on_c, 0, 66, 25
1, 376320, Tempo, 408163
1, 376320, Note_on_c, 0, 66, 0
1, 376320, Note_on_c, 0, 92, 0
1, 376320, Note_on_c, 0, 80, 0
1, 376320, Note_on_c, 0, 78, 34
1, 376320, Note_on_c, 0, 90, 41
1, 376320, Note_on_c, 0, 61, 25
1, 376440, Note_on_c, 0, 61, 0
1, 376440, Note_on_c, 0, 59, 25
1, 376560, Tempo, 458015
1, 376560, Note_on_c, 0, 59, 0
1, 376560, Note_on_c, 0, 90, 0
1, 376560, Note_on_c, 0, 78, 0
1, 376560, Note_on_c, 0, 83, 37
1, 376560, Note_on_c, 0, 95, 44
1, 376560, Note_on_c, 0, 52, 34
1, 376569, Control_c, 0, 64, 0
1, 376638, Control_c, 0, 64, 127
1, 376720, Note_on_c, 0, 52, 0
1, 376720, Note_on_c, 0, 61, 25
1, 376800, Note_on_c, 0, 95, 0
1, 376800, Note_on_c, 0, 83, 0
1, 376800, Note_on_c, 0, 75, 38
1, 376800, Note_on_c, 0, 87, 45
1, 376880, Note_on_c, 0, 61, 0
1, 376880, Note_on_c, 0, 59, 25
1, 376980, Tempo, 397351
1, 376980, Note_on_c, 0, 87, 0
1, 376980, Note_on_c, 0, 90, 35
1, 377040, Tempo, 444444
1, 377040, Note_on_c, 0, 90, 0
1, 377040, Note_on_c, 0, 59, 0
1, 377040, Note_on_c, 0, 75, 0
1, 377040, Note_on_c, 0, 76, 36
1, 377040, Note_on_c, 0, 88, 43
1, 377040, Note_on_c, 0, 68, 31
1, 377054, Control_c, 0, 64, 0
1, 377104, Control_c, 0, 64, 127
1, 377160, Note_on_c, 0, 68, 0
1, 377160, Note_on_c, 0, 64, 25
1, 377280, Tempo, 487805
1, 377280, Note_on_c, 0, 64, 0
1, 377280, Note_on_c, 0, 61, 25
1, 377400, Note_on_c, 0, 61, 0
1, 377400, Note_on_c, 0, 59, 25
1, 377520, Tempo, 422535
1, 377520, Note_on_c, 0, 59, 0
1, 377520, Note_on_c, 0, 88, 0
1, 377520, Note_on_c, 0, 76, 0
1, 377520, Note_on_c, 0, 37, 41
1, 377520, Note_on_c, 0, 49, 49
1, 377525, Control_c, 0, 64, 0
1, 377623, Control_c, 0, 64, 127
1, 377640, Note_on_c, 0, 49, 0
1, 377640, Note_on_c, 0, 54, 34
1, 377640, Note_on_c, 0, 42, 44
1, 377760, Note_on_c, 0, 54, 0
1, 377760, Note_on_c, 0, 58, 38
1, 377880, Tempo, 468750
1, 377880, Note_on_c, 0, 58, 0
1, 377880, Note_on_c, 0, 66, 34
1, 377880, Note_on_c, 0, 64, 26
1, 378000, Tempo, 441176
1, 378000, Note_on_c, 0, 64, 0
1, 378000, Note_on_c, 0, 37, 0
1, 378000, Note_on_c, 0, 42, 0
1, 378000, Note_on_c, 0, 66, 0
1, 378000, Note_on_c, 0, 35, 30
1, 378000, Note_on_c, 0, 47, 36
1, 378012, Control_c, 0, 64, 0
1, 378103, Control_c, 0, 64, 127
1, 378120, Note_on_c, 0, 47, 0
1, 378120, Note_on_c, 0, 54, 22
1, 378120, Note_on_c, 0, 42, 33
1, 378240, Tempo, 504202
1, 378240, Note_on_c, 0, 54, 0
1, 378240, Note_on_c, 0, 59, 25
1, 378360, Tempo, 759494
1, 378360, Note_on_c, 0, 59, 0
1, 378360, Note_on_c, 0, 66, 22
1, 378360, Note_on_c, 0, 63, 18
1, 378480, Tempo, 468750
1, 378480, Note_on_c, 0, 63, 0
1, 378480, Note_on_c, 0, 35, 0
1, 378480, Note_on_c, 0, 42, 0
1, 378480, Note_on_c, 0, 66, 0
1, 378480, Note_on_c, 0, 78, 42
1, 378480, Note_on_c, 0, 90, 50
1, 378480, Note_on_c, 0, 50, 34
1, 378493, Control_c, 0, 64, 0
1, 378519, Control_c, 0, 64, 127
1, 378640, Note_on_c, 0, 50, 0
1, 378640, Note_on_c, 0, 61, 25
1, 378800, Note_on_c, 0, 61, 0
1, 378800, Note_on_c, 0, 59, 25
1, 378840, Tempo, 402685
1, 378840, Note_on_c, 0, 90, 0
1, 378840, Note_on_c, 0, 92, 36
1, 378900, Note_on_c, 0, 92, 0
1, 378900, Note_on_c, 0, 90, 36
1, 378960, Tempo, 428571
1, 378960, Note_on_c, 0, 90, 0
1, 378960, Note_on_c, 0, 59, 0
1, 378960, Note_on_c, 0, 78, 0
1, 378960, Note_on_c, 0, 77, 42
1, 378960, Note_on_c, 0, 89, 50
1, 378960, Note_on_c, 0, 66, 34
1, 378973, Control_c, 0, 64, 0
1, 379024, Control_c, 0, 64, 127
1, 379120, Note_on_c, 0, 66, 0
1, 379120, Note_on_c, 0, 61, 25
1, 379200, Tempo, 408163
1, 379200, Note_on_c, 0, 89, 0
1, 379200, Note_on_c, 0, 77, 0
1, 379200, Note_on_c, 0, 78, 34
1, 379200, Note_on_c, 0, 90, 41
1, 379280, Note_on_c, 0, 61, 0
1, 379280, Note_on_c, 0, 59, 25
1, 379380, Note_on_c, 0, 90, 0
1, 379380, Note_on_c, 0, 93, 35
1, 379440, Tempo, 458015
1, 379440, Note_on_c, 0, 93, 0
1, 379440, Note_on_c, 0, 59, 0
1, 379440, Note_on_c, 0, 78, 0
1, 379440, Note_on_c, 0, 80, 36
1, 379440, Note_on_c, 0, 92, 43
1, 379440, Note_on_c, 0, 52, 34
1, 379452, Control_c, 0, 64, 0
1, 379493, Control_c, 0, 64, 127
1, 379600, Note_on_c, 0, 52, 0
1, 379600, Note_on_c, 0, 59, 29
1, 379760, Note_on_c, 0, 59, 0
1, 379760, Note_on_c, 0, 68, 28
1, 379860, Tempo, 397351
1, 379860, Note_on_c, 0, 92, 0
1, 379860, Note_on_c, 0, 92, 35
1, 379920, Tempo, 444444
1, 379920, Note_on_c, 0, 92, 0
1, 379920, Note_on_c, 0, 68, 0
1, 379920, Note_on_c, 0, 80, 0
1, 379920, Note_on_c, 0, 78, 24
1, 379920, Note_on_c, 0, 90, 43
1, 379920, Note_on_c, 0, 50, 34
1, 379930, Control_c, 0, 64, 0
1, 379963, Control_c, 0, 64, 127
1, 380080, Note_on_c, 0, 50, 0
1, 380080, Note_on_c, 0, 59, 27
1, 380240, Note_on_c, 0, 59, 0
1, 380240, Note_on_c, 0, 66, 27
1, 380400, Tempo, 422535
1, 380400, Note_on_c, 0, 66, 0
1, 380400, Note_on_c, 0, 90, 0
1, 380400, Note_on_c, 0, 78, 0
1, 380400, Note_on_c, 0, 37, 44
1, 380400, Note_on_c, 0, 49, 52
1, 380407, Control_c, 0, 64, 0
1, 380503, Control_c, 0, 64, 127
1, 380520, Note_on_c, 0, 49, 0
1, 380520, Note_on_c, 0, 54, 36
1, 380520, Note_on_c, 0, 42, 47
1, 380640, Note_on_c, 0, 54, 0
1, 380640, Note_on_c, 0, 58, 41
1, 380760, Tempo, 468750
1, 380760, Note_on_c, 0, 58, 0
1, 380760, Note_on_c, 0, 66, 36
1, 380760, Note_on_c, 0, 64, 28
1, 380880, Tempo, 441176
1, 380880, Note_on_c, 0, 64, 0
1, 380880, Note_on_c, 0, 37, 0
1, 380880, Note_on_c, 0, 42, 0
1, 380880, Note_on_c, 0, 66, 0
1, 380880, Note_on_c, 0, 35, 32
1, 380880, Note_on_c, 0, 47, 38
1, 380884, Control_c, 0, 64, 0
1, 380983, Control_c, 0, 64, 127
1, 381000, Note_on_c, 0, 47, 0
1, 381000, Note_on_c, 0, 54, 24
1, 381000, Note_on_c, 0, 42, 35
1, 381120, Tempo, 504202
1, 381120, Note_on_c, 0, 54, 0
1, 381120, Note_on_c, 0, 59, 27
1, 381240, Tempo, 759494
1, 381240, Note_on_c, 0, 59, 0
1, 381240, Note_on_c, 0, 66, 24
1, 381240, Note_on_c, 0, 63, 19
1, 381300, Tempo, 379747
1, 381300, Note_on_c, 0, 63, 0
1, 381300, Note_on_c, 0, 66, 0
1, 381300, Note_on_c, 0, 93, 37
1, 381360, Tempo, 434783
1, 381360, Note_on_c, 0, 93, 0
1, 381360, Note_on_c, 0, 42, 0
1, 381360, Note_on_c, 0, 35, 0
1, 381360, Note_on_c, 0, 80, 42
1, 381360, Note_on_c, 0, 92, 50
1, 381360, Note_on_c, 0, 50, 34
1, 381360, Control_c, 0, 64, 0
1, 381368, Control_c, 0, 64, 0
1, 381403, Control_c, 0, 64, 127
1, 381480, Note_on_c, 0, 92, 0
1, 381480, Note_on_c, 0, 80, 0
1, 381520, Note_on_c, 0, 50, 0
1, 381520, Note_on_c, 0, 61, 25
1, 381540, Tempo, 377358
1, 381540, Note_on_c, 0, 92, 37
1, 381600, Tempo, 444444
1, 381600, Note_on_c, 0, 92, 0
1, 381600, Note_on_c, 0, 78, 42
1, 381600, Note_on_c, 0, 90, 50
1, 381615, Control_c, 0, 64, 0
1, 381657, Control_c, 0, 64, 127
1, 381680, Note_on_c, 0, 61, 0
1, 381680, Note_on_c, 0, 59, 25
1, 381720, Note_on_c, 0, 90, 0
1, 381720, Note_on_c, 0, 78, 0
1, 381780, Tempo, 377358
1, 381780, Note_on_c, 0, 90, 37
1, 381840, Tempo, 451128
1, 381840, Note_on_c, 0, 90, 0
1, 381840, Note_on_c, 0, 59, 0
1, 381840, Note_on_c, 0, 76, 42
1, 381840, Note_on_c, 0, 88, 50
1, 381840, Note_on_c, 0, 66, 34
1, 381857, Control_c, 0, 64, 0
1, 381907, Control_c, 0, 64, 127
1, 381960, Note_on_c, 0, 88, 0
1, 381960, Note_on_c, 0, 76, 0
1, 382000, Note_on_c, 0, 66, 0
1, 382000, Note_on_c, 0, 61, 25
1, 382020, Tempo, 379747
1, 382020, Note_on_c, 0, 88, 37
1, 382080, Tempo, 454545
1, 382080, Note_on_c, 0, 88, 0
1, 382080, Note_on_c, 0, 74, 42
1, 382080, Note_on_c, 0, 86, 50
1, 382091, Control_c, 0, 64, 0
1, 382126, Control_c, 0, 64, 127
1, 382160, Note_on_c, 0, 61, 0
1, 382160, Note_on_c, 0, 59, 25
1, 382200, Note_on_c, 0, 86, 0
1, 382200, Note_on_c, 0, 74, 0
1, 382320, Tempo, 458015
1, 382320, Note_on_c, 0, 59, 0
1, 382320, Note_on_c, 0, 73, 50
1, 382320, Note_on_c, 0, 53, 34
1, 382329, Control_c, 0, 64, 0
1, 382395, Control_c, 0, 64, 127
1, 382440, Note_on_c, 0, 73, 0
1, 382480, Note_on_c, 0, 53, 0
1, 382480, Note_on_c, 0, 59, 29
1, 382560, Note_on_c, 0, 85, 50
1, 382578, Control_c, 0, 64, 0
1, 382640, Note_on_c, 0, 59, 0
1, 382640, Note_on_c, 0, 68, 28
1, 382640, Control_c, 0, 64, 127
1, 382680, Note_on_c, 0, 85, 0
1, 382800, Note_on_c, 0, 68, 0
1, 382800, Note_on_c, 0, 85, 50
1, 382800, Note_on_c, 0, 54, 34
1, 382814, Control_c, 0, 64, 0
1, 382864, Control_c, 0, 64, 127
1, 382920, Note_on_c, 0, 85, 0
1, 382960, Note_on_c, 0, 54, 0
1, 382960, Note_on_c, 0, 64, 27
1, 383040, Tempo, 566038
1, 383040, Note_on_c, 0, 97, 50
1, 383048, Control_c, 0, 64, 0
1, 383097, Control_c, 0, 64, 127
1, 383120, Note_on_c, 0, 64, 0
1, 383120, Note_on_c, 0, 70, 27
1, 383160, Note_on_c, 0, 97, 0
1, 383280, Tempo, 487805
1, 383280, Note_on_c, 0, 70, 0
1, 383280, Note_on_c, 0, 42, 44
1, 383288, Control_c, 0, 64, 0
1, 383383, Control_c, 0, 64, 127
1, 383400, Note_on_c, 0, 54, 30
1, 383400, Note_on_c, 0, 49, 39
1, 383520, Note_on_c, 0, 54, 0
1, 383520, Note_on_c, 0, 58, 34
1, 383640, Tempo, 576923
1, 383640, Note_on_c, 0, 58, 0
1, 383640, Note_on_c, 0, 66, 30
1, 383640, Note_on_c, 0, 64, 23
1, 383760, Tempo, 500000
1, 383760, Note_on_c, 0, 64, 0
1, 383760, Note_on_c, 0, 42, 0
1, 383760, Note_on_c, 0, 49, 0
1, 383760, Note_on_c, 0, 66, 0
1, 383760, Note_on_c, 0, 35, 32
1, 383764, Control_c, 0, 64, 0
1, 383863, Control_c, 0, 64, 127
1, 383880, Note_on_c, 0, 54, 20
1, 383880, Note_on_c, 0, 47, 29
1, 384000, Tempo, 504202
1, 384000, Note_on_c, 0, 54, 0
1, 384000, Note_on_c, 0, 59, 22
1, 384120, Tempo, 759494
1, 384120, Note_on_c, 0, 59, 0
1, 384120, Note_on_c, 0, 66, 20
1, 384120, Note_on_c, 0, 63, 16
1, 384240, Tempo, 468750
1, 384240, Note_on_c, 0, 63, 0
1, 384240, Note_on_c, 0, 35, 0
1, 384240, Note_on_c, 0, 47, 0
1, 384240, Note_on_c, 0, 66, 0
1, 384240, Note_on_c, 0, 78, 42
1, 384240, Note_on_c, 0, 90, 50
1, 384240, Note_on_c, 0, 50, 34
1, 384253, Control_c, 0, 64, 0
1, 384279, Control_c, 0, 64, 127
1, 384400, Note_on_c, 0, 50, 0
1, 384400, Note_on_c, 0, 61, 25
1, 384560, Note_on_c, 0, 61, 0
1, 384560, Note_on_c, 0, 59, 25
1, 384600, Tempo, 416667
1, 384600, Note_on_c, 0, 90, 0
1, 384600, Note_on_c, 0, 92, 36
1, 384660, Note_on_c, 0, 92, 0
1, 384660, Note_on_c, 0, 90, 36
1, 384720, Tempo, 441176
1, 384720, Note_on_c, 0, 90, 0
1, 384720, Note_on_c, 0, 59, 0
1, 384720, Note_on_c, 0, 78, 0
1, 384720, Note_on_c, 0, 77, 42
1, 384720, Note_on_c, 0, 89, 50
1, 384720, Note_on_c, 0, 66, 34
1, 384733, Control_c, 0, 64, 0
1, 384784, Control_c, 0, 64, 127
1, 384880, Note_on_c, 0, 66, 0
1, 384880, Note_on_c, 0, 61, 25
1, 384960, Tempo, 416667
1, 384960, Note_on_c, 0, 89, 0
1, 384960, Note_on_c, 0, 77, 0
1, 384960, Note_on_c, 0, 78, 34
1, 384960, Note_on_c, 0, 90, 41
1, 385040, Note_on_c, 0, 61, 0
1, 385040, Note_on_c, 0, 59, 25
1, 385140, Note_on_c, 0, 90, 0
1, 385140, Note_on_c, 0, 93, 35
1, 385200, Tempo, 476190
1, 385200, Note_on_c, 0, 93, 0
1, 385200, Note_on_c, 0, 59, 0
1, 385200, Note_on_c, 0, 78, 0
1, 385200, Note_on_c, 0, 80, 36
1, 385200, Note_on_c, 0, 92, 43
1, 385200, Note_on_c, 0, 52, 34
1, 385212, Control_c, 0, 64, 0
1, 385253, Control_c, 0, 64, 127
1, 385360, Note_on_c, 0, 52, 0
1, 385360, Note_on_c, 0, 59, 29
1, 385520, Note_on_c, 0, 59, 0
1, 385520, Note_on_c, 0, 68, 28
1, 385620, Tempo, 397351
1, 385620, Note_on_c, 0, 92, 0
1, 385620, Note_on_c, 0, 92, 35
1, 385680, Tempo, 444444
1, 385680, Note_on_c, 0, 92, 0
1, 385680, Note_on_c, 0, 68, 0
1, 385680, Note_on_c, 0, 80, 0
1, 385680, Note_on_c, 0, 78, 24
1, 385680, Note_on_c, 0, 90, 43
1, 385680, Note_on_c, 0, 50, 34
1, 385690, Control_c, 0, 64, 0
1, 385723, Control_c, 0, 64, 127
1, 385840, Note_on_c, 0, 50, 0
1, 385840, Note_on_c, 0, 59, 27
1, 386000, Note_on_c, 0, 59, 0
1, 386000, Note_on_c, 0, 66, 27
1, 386160, Tempo, 434783
1, 386160, Note_on_c, 0, 66, 0
1, 386160, Note_on_c, 0, 90, 0
1, 386160, Note_on_c, 0, 78, 0
1, 386160, Note_on_c, 0, 37, 44
1, 386160, Note_on_c, 0, 49, 52
1, 386166, Control_c, 0, 64, 0
1, 386263, Control_c, 0, 64, 127
1, 386280, Note_on_c, 0, 49, 0
1, 386280, Note_on_c, 0, 54, 36
1, 386280, Note_on_c, 0, 42, 47
1, 386400, Note_on_c, 0, 54, 0
1, 386400, Note_on_c, 0, 58, 41
1, 386520, Tempo, 495868
1, 386520, Note_on_c, 0, 58, 0
1, 386520, Note_on_c, 0, 66, 36
1, 386520, Note_on_c, 0, 64, 28
1, 386640, Tempo, 472441
1, 386640, Note_on_c, 0, 64, 0
1, 386640, Note_on_c, 0, 37, 0
1, 386640, Note_on_c, 0, 42, 0
1, 386640, Note_on_c, 0, 66, 0
1, 386640, Note_on_c, 0, 35, 32
1, 386640, Note_on_c, 0, 47, 38
1, 386644, Control_c, 0, 64, 0
1, 386743, Control_c, 0, 64, 127
1, 386760, Note_on_c, 0, 47, 0
1, 386760, Note_on_c, 0, 54, 24
1, 386760, Note_on_c, 0, 42, 35
1, 386880, Tempo, 504202
1, 386880, Note_on_c, 0, 54, 0
1, 386880, Note_on_c, 0, 59, 27
1, 387000, Note_on_c, 0, 59, 0
1, 387000, Note_on_c, 0, 63, 19
1, 387000, Note_on_c, 0, 66, 24
1, 387120, Tempo, 468750
1, 387120, Note_on_c, 0, 66, 0
1, 387120, Note_on_c, 0, 35, 0
1, 387120, Note_on_c, 0, 42, 0
1, 387120, Note_on_c, 0, 63, 0
1, 387120, Note_on_c, 0, 93, 45
1, 387120, Note_on_c, 0, 50, 34
1, 387137, Control_c, 0, 64, 0
1, 387172, Control_c, 0, 64, 127
1, 387201, Note_on_c, 0, 93, 0
1, 387201, Note_on_c, 0, 92, 44
1, 387280, Note_on_c, 0, 50, 0
1, 387280, Note_on_c, 0, 90, 44
1, 387280, Note_on_c, 0, 61, 25
1, 387281, Note_on_c, 0, 92, 0
1, 387360, Note_on_c, 0, 90, 0
1, 387360, Note_on_c, 0, 88, 43
1, 387440, Note_on_c, 0, 88, 0
1, 387440, Note_on_c, 0, 61, 0
1, 387440, Note_on_c, 0, 86, 43
1, 387440, Note_on_c, 0, 59, 25
1, 387480, Tempo, 416667
1, 387520, Note_on_c, 0, 86, 0
1, 387520, Note_on_c, 0, 85, 42
1, 387600, Tempo, 441176
1, 387600, Note_on_c, 0, 85, 0
1, 387600, Note_on_c, 0, 59, 0
1, 387600, Note_on_c, 0, 83, 42
1, 387600, Note_on_c, 0, 66, 34
1, 387680, Note_on_c, 0, 83, 0
1, 387680, Note_on_c, 0, 81, 41
1, 387760, Note_on_c, 0, 81, 0
1, 387760, Note_on_c, 0, 66, 0
1, 387760, Note_on_c, 0, 80, 41
1, 387760, Note_on_c, 0, 61, 25
1, 387840, Tempo, 416667
1, 387840, Note_on_c, 0, 80, 0
1, 387840, Note_on_c, 0, 78, 40
1, 387920, Note_on_c, 0, 78, 0
1, 387920, Note_on_c, 0, 61, 0
1, 387920, Note_on_c, 0, 76, 39
1, 387920, Note_on_c, 0, 59, 25
1, 388000, Note_on_c, 0, 76, 0
1, 388000, Note_on_c, 0, 74, 39
1, 388080, Tempo, 476190
1, 388080, Note_on_c, 0, 74, 0
1, 388080, Note_on_c, 0, 59, 0
1, 388080, Note_on_c, 0, 73, 40
1, 388080, Note_on_c, 0, 53, 34
1, 388104, Control_c, 0, 64, 0
1, 388130, Control_c, 0, 64, 127
1, 388140, Note_on_c, 0, 73, 0
1, 388200, Note_on_c, 0, 85, 36
1, 388240, Note_on_c, 0, 53, 0
1, 388240, Note_on_c, 0, 59, 29
1, 388260, Note_on_c, 0, 85, 0
1, 388320, Note_on_c, 0, 85, 36
1, 388380, Note_on_c, 0, 85, 0
1, 388400, Note_on_c, 0, 59, 0
1, 388400, Note_on_c, 0, 68, 28
1, 388440, Note_on_c, 0, 97, 38
1, 388500, Tempo, 397351
1, 388500, Note_on_c, 0, 97, 0
1, 388560, Note_on_c, 0, 68, 0
1, 388560, Note_on_c, 0, 97, 39
1, 388620, Note_on_c, 0, 97, 0
1, 388680, Note_on_c, 0, 85, 36
1, 388740, Note_on_c, 0, 85, 0
1, 388800, Note_on_c, 0, 85, 36
1, 388860, Note_on_c, 0, 85, 0
1, 388920, Tempo, 461538
1, 388920, Note_on_c, 0, 73, 37
1, 388980, Note_on_c, 0, 73, 0
1, 389040, Tempo, 397351
1, 389040, Note_on_c, 0, 73, 44
1, 389100, Note_on_c, 0, 73, 0
1, 389160, Note_on_c, 0, 85, 36
1, 389220, Note_on_c, 0, 85, 0
1, 389280, Note_on_c, 0, 85, 36
1, 389340, Note_on_c, 0, 85, 0
1, 389400, Note_on_c, 0, 97, 41
1, 389460, Note_on_c, 0, 97, 0
1, 389520, Note_on_c, 0, 97, 41
1, 389580, Note_on_c, 0, 97, 0
1, 389640, Note_on_c, 0, 85, 36
1, 389700, Note_on_c, 0, 85, 0
1, 389760, Note_on_c, 0, 85, 36
1, 389820, Note_on_c, 0, 85, 0
1, 389880, Tempo, 458015
1, 389880, Note_on_c, 0, 73, 36
1, 389940, Note_on_c, 0, 73, 0
1, 390000, Tempo, 400000
1, 390000, Note_on_c, 0, 73, 42
1, 390060, Note_on_c, 0, 73, 0
1, 390120, Note_on_c, 0, 85, 37
1, 390180, Note_on_c, 0, 85, 0
1, 390240, Note_on_c, 0, 85, 37
1, 390300, Note_on_c, 0, 85, 0
1, 390360, Note_on_c, 0, 97, 40
1, 390420, Note_on_c, 0, 97, 0
1, 390480, Note_on_c, 0, 97, 40
1, 390540, Note_on_c, 0, 97, 0
1, 390600, Note_on_c, 0, 85, 37
1, 390660, Note_on_c, 0, 85, 0
1, 390720, Note_on_c, 0, 85, 37
1, 390780, Note_on_c, 0, 85, 0
1, 390840, Tempo, 465116
1, 390840, Note_on_c, 0, 97, 37
1, 390900, Note_on_c, 0, 97, 0
1, 390960, Tempo, 400000
1, 390960, Note_on_c, 0, 97, 42
1, 391020, Note_on_c, 0, 97, 0
1, 391080, Note_on_c, 0, 85, 37
1, 391140, Note_on_c, 0, 85, 0
1, 391200, Note_on_c, 0, 85, 37
1, 391260, Note_on_c, 0, 85, 0
1, 391320, Note_on_c, 0, 97, 39
1, 391380, Note_on_c, 0, 97, 0
1, 391412, Tempo, 402685
1, 391440, Note_on_c, 0, 97, 39
1, 391444, Tempo, 405405
1, 391476, Tempo, 408163
1, 391492, Tempo, 410959
1, 391500, Note_on_c, 0, 97, 0
1, 391524, Tempo, 413793
1, 391556, Tempo, 416667
1, 391560, Note_on_c, 0, 85, 37
1, 391572, Tempo, 419580
1, 391604, Tempo, 422535
1, 391620, Note_on_c, 0, 85, 0
1, 391636, Tempo, 425532
1, 391652, Tempo, 428571
1, 391680, Note_on_c, 0, 85, 37
1, 391684, Tempo, 431655
1, 391716, Tempo, 434783
1, 391732, Tempo, 437956
1, 391740, Note_on_c, 0, 85, 0
1, 391764, Tempo, 441176
1, 391780, Tempo, 444444
1, 391800, Tempo, 740741
1, 391800, Note_on_c, 0, 97, 37
1, 391860, Tempo, 428571
1, 391860, Note_on_c, 0, 97, 0
1, 391860, Note_on_c, 0, 64, 37
1, 391890, Note_on_c, 0, 68, 42
1, 391920, Tempo, 451128
1, 391920, Note_on_c, 0, 98, 39
1, 391920, Note_on_c, 0, 74, 49
1, 391920, Control_c, 0, 64, 0
1, 391966, Control_c, 0, 64, 127
1, 392000, Note_on_c, 0, 98, 0
1, 392000, Note_on_c, 0, 100, 38
1, 392080, Note_on_c, 0, 100, 0
1, 392080, Note_on_c, 0, 98, 37
1, 392160, Note_on_c, 0, 98, 0
1, 392160, Note_on_c, 0, 97, 36
1, 392240, Note_on_c, 0, 97, 0
1, 392240, Note_on_c, 0, 95, 36
1, 392280, Tempo, 402685
1, 392320, Note_on_c, 0, 95, 0
1, 392320, Note_on_c, 0, 93, 36
1, 392400, Tempo, 428571
1, 392400, Note_on_c, 0, 93, 0
1, 392400, Note_on_c, 0, 74, 0
1, 392400, Note_on_c, 0, 92, 35
1, 392400, Note_on_c, 0, 73, 47
1, 392480, Note_on_c, 0, 92, 0
1, 392480, Note_on_c, 0, 90, 34
1, 392560, Note_on_c, 0, 90, 0
1, 392560, Note_on_c, 0, 88, 33
1, 392640, Tempo, 416667
1, 392640, Note_on_c, 0, 88, 0
1, 392640, Note_on_c, 0, 73, 0
1, 392640, Note_on_c, 0, 86, 32
1, 392640, Note_on_c, 0, 71, 41
1, 392720, Note_on_c, 0, 86, 0
1, 392720, Note_on_c, 0, 85, 31
1, 392800, Note_on_c, 0, 85, 0
1, 392800, Note_on_c, 0, 83, 30
1, 392880, Tempo, 447761
1, 392880, Note_on_c, 0, 83, 0
1, 392880, Note_on_c, 0, 64, 0
1, 392880, Note_on_c, 0, 68, 0
1, 392880, Note_on_c, 0, 71, 0
1, 392880, Note_on_c, 0, 81, 29
1, 392880, Note_on_c, 0, 64, 38
1, 392880, Note_on_c, 0, 73, 38
1, 392880, Note_on_c, 0, 76, 45
1, 392888, Control_c, 0, 64, 0
1, 392929, Control_c, 0, 64, 127
1, 392960, Note_on_c, 0, 81, 0
1, 392960, Note_on_c, 0, 80, 28
1, 393040, Note_on_c, 0, 80, 0
1, 393040, Note_on_c, 0, 81, 29
1, 393120, Note_on_c, 0, 81, 0
1, 393120, Note_on_c, 0, 76, 0
1, 393120, Note_on_c, 0, 83, 31
1, 393120, Note_on_c, 0, 68, 39
1, 393200, Note_on_c, 0, 83, 0
1, 393200, Note_on_c, 0, 85, 32
1, 393280, Note_on_c, 0, 85, 0
1, 393280, Note_on_c, 0, 86, 33
1, 393360, Tempo, 425532
1, 393360, Note_on_c, 0, 86, 0
1, 393360, Note_on_c, 0, 68, 0
1, 393360, Note_on_c, 0, 88, 34
1, 393360, Note_on_c, 0, 69, 45
1, 393440, Note_on_c, 0, 88, 0
1, 393440, Note_on_c, 0, 90, 35
1, 393520, Note_on_c, 0, 90, 0
1, 393520, Note_on_c, 0, 92, 36
1, 393556, Tempo, 428571
1, 393588, Tempo, 431655
1, 393600, Note_on_c, 0, 92, 0
1, 393600, Note_on_c, 0, 93, 36
1, 393604, Tempo, 434783
1, 393620, Tempo, 437956
1, 393636, Tempo, 441176
1, 393652, Tempo, 444444
1, 393680, Note_on_c, 0, 93, 0
1, 393680, Note_on_c, 0, 95, 37
1, 393684, Tempo, 447761
1, 393700, Tempo, 451128
1, 393716, Tempo, 454545
1, 393720, Tempo, 759494
1, 393760, Note_on_c, 0, 95, 0
1, 393760, Note_on_c, 0, 97, 38
1, 393780, Tempo, 437956
1, 393780, Note_on_c, 0, 69, 0
1, 393780, Note_on_c, 0, 64, 37
1, 393810, Note_on_c, 0, 68, 42
1, 393840, Tempo, 451128
1, 393840, Note_on_c, 0, 64, 0
1, 393840, Note_on_c, 0, 97, 0
1, 393840, Note_on_c, 0, 73, 0
1, 393840, Note_on_c, 0, 98, 39
1, 393840, Note_on_c, 0, 74, 49
1, 393847, Control_c, 0, 64, 0
1, 393886, Control_c, 0, 64, 127
1, 393920, Note_on_c, 0, 98, 0
1, 393920, Note_on_c, 0, 100, 38
1, 394000, Note_on_c, 0, 100, 0
1, 394000, Note_on_c, 0, 98, 37
1, 394080, Note_on_c, 0, 98, 0
1, 394080, Note_on_c, 0, 97, 36
1, 394160, Note_on_c, 0, 97, 0
1, 394160, Note_on_c, 0, 95, 36
1, 394200, Tempo, 402685
1, 394240, Note_on_c, 0, 95, 0
1, 394240, Note_on_c, 0, 93, 36
1, 394320, Tempo, 428571
1, 394320, Note_on_c, 0, 93, 0
1, 394320, Note_on_c, 0, 74, 0
1, 394320, Note_on_c, 0, 92, 35
1, 394320, Note_on_c, 0, 73, 47
1, 394400, Note_on_c, 0, 92, 0
1, 394400, Note_on_c, 0, 90, 34
1, 394480, Note_on_c, 0, 90, 0
1, 394480, Note_on_c, 0, 88, 33
1, 394560, Tempo, 416667
1, 394560, Note_on_c, 0, 88, 0
1, 394560, Note_on_c, 0, 73, 0
1, 394560, Note_on_c, 0, 86, 32
1, 394560, Note_on_c, 0, 71, 41
1, 394640, Note_on_c, 0, 86, 0
1, 394640, Note_on_c, 0, 85, 31
1, 394720, Note_on_c, 0, 85, 0
1, 394720, Note_on_c, 0, 83, 30
1, 394800, Tempo, 447761
1, 394800, Note_on_c, 0, 83, 0
1, 394800, Note_on_c, 0, 68, 0
1, 394800, Note_on_c, 0, 64, 0
1, 394800, Note_on_c, 0, 71, 0
1, 394800, Note_on_c, 0, 81, 29
1, 394800, Note_on_c, 0, 64, 38
1, 394800, Note_on_c, 0, 73, 38
1, 394800, Note_on_c, 0, 76, 45
1, 394808, Control_c, 0, 64, 0
1, 394835, Control_c, 0, 64, 127
1, 394880, Note_on_c, 0, 81, 0
1, 394880, Note_on_c, 0, 80, 28
1, 394960, Note_on_c, 0, 80, 0
1, 394960, Note_on_c, 0, 81, 29
1, 395040, Note_on_c, 0, 81, 0
1, 395040, Note_on_c, 0, 76, 0
1, 395040, Note_on_c, 0, 83, 31
1, 395040, Note_on_c, 0, 68, 39
1, 395120, Note_on_c, 0, 83, 0
1, 395120, Note_on_c, 0, 85, 32
1, 395200, Note_on_c, 0, 85, 0
1, 395200, Note_on_c, 0, 86, 33
1, 395280, Tempo, 425532
1, 395280, Note_on_c, 0, 86, 0
1, 395280, Note_on_c, 0, 68, 0
1, 395280, Note_on_c, 0, 88, 34
1, 395280, Note_on_c, 0, 69, 45
1, 395360, Note_on_c, 0, 88, 0
1, 395360, Note_on_c, 0, 90, 35
1, 395440, Note_on_c, 0, 90, 0
1, 395440, Note_on_c, 0, 92, 36
1, 395476, Tempo, 428571
1, 395508, Tempo, 431655
1, 395520, Note_on_c, 0, 92, 0
1, 395520, Note_on_c, 0, 93, 36
1, 395524, Tempo, 434783
1, 395556, Tempo, 437956
1, 395572, Tempo, 441176
1, 395600, Note_on_c, 0, 93, 0
1, 395600, Note_on_c, 0, 95, 37
1, 395604, Tempo, 444444
1, 395620, Tempo, 447761
1, 395640, Tempo, 750000
1, 395680, Note_on_c, 0, 95, 0
1, 395680, Note_on_c, 0, 97, 38
1, 395700, Tempo, 428571
1, 395700, Note_on_c, 0, 69, 0
1, 395700, Note_on_c, 0, 64, 37
1, 395730, Note_on_c, 0, 68, 42
1, 395760, Tempo, 451128
1, 395760, Note_on_c, 0, 64, 0
1, 395760, Note_on_c, 0, 97, 0
1, 395760, Note_on_c, 0, 73, 0
1, 395760, Note_on_c, 0, 98, 39
1, 395760, Note_on_c, 0, 74, 49
1, 395766, Control_c, 0, 64, 0
1, 395806, Control_c, 0, 64, 127
1, 395840, Note_on_c, 0, 98, 0
1, 395840, Note_on_c, 0, 100, 38
1, 395920, Note_on_c, 0, 100, 0
1, 395920, Note_on_c, 0, 98, 37
1, 396000, Note_on_c, 0, 98, 0
1, 396000, Note_on_c, 0, 97, 36
1, 396080, Note_on_c, 0, 97, 0
1, 396080, Note_on_c, 0, 95, 36
1, 396120, Tempo, 402685
1, 396160, Note_on_c, 0, 95, 0
1, 396160, Note_on_c, 0, 93, 36
1, 396240, Tempo, 428571
1, 396240, Note_on_c, 0, 93, 0
1, 396240, Note_on_c, 0, 74, 0
1, 396240, Note_on_c, 0, 92, 35
1, 396240, Note_on_c, 0, 73, 47
1, 396320, Note_on_c, 0, 92, 0
1, 396320, Note_on_c, 0, 90, 34
1, 396400, Note_on_c, 0, 90, 0
1, 396400, Note_on_c, 0, 88, 33
1, 396480, Tempo, 416667
1, 396480, Note_on_c, 0, 88, 0
1, 396480, Note_on_c, 0, 73, 0
1, 396480, Note_on_c, 0, 86, 32
1, 396480, Note_on_c, 0, 71, 41
1, 396560, Note_on_c, 0, 86, 0
1, 396560, Note_on_c, 0, 85, 31
1, 396640, Note_on_c, 0, 85, 0
1, 396640, Note_on_c, 0, 83, 30
1, 396720, Tempo, 447761
1, 396720, Note_on_c, 0, 83, 0
1, 396720, Note_on_c, 0, 68, 0
1, 396720, Note_on_c, 0, 64, 0
1, 396720, Note_on_c, 0, 71, 0
1, 396720, Note_on_c, 0, 81, 29
1, 396720, Note_on_c, 0, 64, 38
1, 396720, Note_on_c, 0, 73, 38
1, 396720, Note_on_c, 0, 76, 45
1, 396741, Control_c, 0, 64, 0
1, 396766, Control_c, 0, 64, 127
1, 396800, Note_on_c, 0, 81, 0
1, 396800, Note_on_c, 0, 80, 28
1, 396880, Note_on_c, 0, 80, 0
1, 396880, Note_on_c, 0, 81, 29
1, 396960, Note_on_c, 0, 81, 0
1, 396960, Note_on_c, 0, 76, 0
1, 396960, Note_on_c, 0, 83, 31
1, 396960, Note_on_c, 0, 68, 39
1, 397040, Note_on_c, 0, 83, 0
1, 397040, Note_on_c, 0, 85, 32
1, 397120, Note_on_c, 0, 85, 0
1, 397120, Note_on_c, 0, 86, 33
1, 397200, Tempo, 425532
1, 397200, Note_on_c, 0, 86, 0
1, 397200, Note_on_c, 0, 68, 0
1, 397200, Note_on_c, 0, 88, 34
1, 397200, Note_on_c, 0, 69, 45
1, 397280, Note_on_c, 0, 88, 0
1, 397280, Note_on_c, 0, 90, 35
1, 397360, Note_on_c, 0, 90, 0
1, 397360, Note_on_c, 0, 92, 36
1, 397440, Note_on_c, 0, 92, 0
1, 397440, Note_on_c, 0, 93, 36
1, 397452, Tempo, 425532
1, 397484, Tempo, 428571
1, 397500, Tempo, 431655
1, 397520, Note_on_c, 0, 93, 0
1, 397520, Note_on_c, 0, 95, 37
1, 397532, Tempo, 434783
1, 397548, Tempo, 437956
1, 397580, Tempo, 441176
1, 397596, Tempo, 444444
1, 397600, Note_on_c, 0, 95, 0
1, 397600, Note_on_c, 0, 97, 38
1, 397628, Tempo, 447761
1, 397644, Tempo, 451128
1, 397660, Tempo, 454545
1, 397676, Tempo, 431655
1, 397680, Note_on_c, 0, 97, 0
1, 397680, Note_on_c, 0, 69, 0
1, 397680, Note_on_c, 0, 73, 0
1, 397680, Note_on_c, 0, 64, 0
1, 397680, Note_on_c, 0, 98, 41
1, 397680, Note_on_c, 0, 64, 39
1, 397680, Note_on_c, 0, 68, 39
1, 397680, Note_on_c, 0, 71, 39
1, 397680, Note_on_c, 0, 74, 49
1, 397696, Control_c, 0, 64, 0
1, 397724, Tempo, 428571
1, 397760, Note_on_c, 0, 98, 0
1, 397760, Note_on_c, 0, 99, 44
1, 397766, Control_c, 0, 64, 127
1, 397772, Tempo, 425532
1, 397820, Tempo, 422535
1, 397840, Note_on_c, 0, 99, 0
1, 397840, Note_on_c, 0, 100, 46
1, 397852, Tempo, 419580
1, 397920, Note_on_c, 0, 100, 0
1, 397920, Note_on_c, 0, 101, 49
1, 397996, Tempo, 422535
1, 398000, Note_on_c, 0, 101, 0
1, 398000, Note_on_c, 0, 100, 49
1, 398080, Note_on_c, 0, 100, 0
1, 398080, Note_on_c, 0, 99, 47
1, 398124, Tempo, 425532
1, 398160, Note_on_c, 0, 99, 0
1, 398160, Note_on_c, 0, 98, 46
1, 398240, Note_on_c, 0, 98, 0
1, 398240, Note_on_c, 0, 97, 45
1, 398252, Tempo, 428571
1, 398320, Note_on_c, 0, 97, 0
1, 398320, Note_on_c, 0, 96, 44
1, 398380, Tempo, 431655
1, 398400, Note_on_c, 0, 96, 0
1, 398400, Note_on_c, 0, 95, 43
1, 398480, Note_on_c, 0, 95, 0
1, 398480, Note_on_c, 0, 94, 41
1, 398508, Tempo, 434783
1, 398560, Note_on_c, 0, 94, 0
1, 398560, Note_on_c, 0, 93, 40
1, 398636, Tempo, 437956
1, 398640, Note_on_c, 0, 93, 0
1, 398640, Note_on_c, 0, 92, 39
1, 398700, Tempo, 434783
1, 398720, Note_on_c, 0, 92, 0
1, 398720, Note_on_c, 0, 93, 44
1, 398748, Tempo, 431655
1, 398796, Tempo, 428571
1, 398800, Note_on_c, 0, 93, 0
1, 398800, Note_on_c, 0, 94, 46
1, 398844, Tempo, 425532
1, 398880, Note_on_c, 0, 94, 0
1, 398880, Note_on_c, 0, 95, 48
1, 398892, Tempo, 422535
1, 398960, Note_on_c, 0, 95, 0
1, 398960, Note_on_c, 0, 94, 49
1, 399020, Tempo, 425532
1, 399040, Note_on_c, 0, 94, 0
1, 399040, Note_on_c, 0, 93, 48
1, 399120, Note_on_c, 0, 93, 0
1, 399120, Note_on_c, 0, 92, 47
1, 399132, Tempo, 428571
1, 399200, Note_on_c, 0, 92, 0
1, 399200, Note_on_c, 0, 91, 46
1, 399244, Tempo, 431655
1, 399280, Note_on_c, 0, 91, 0
1, 399280, Note_on_c, 0, 90, 45
1, 399356, Tempo, 434783
1, 399360, Note_on_c, 0, 90, 0
1, 399360, Note_on_c, 0, 89, 45
1, 399440, Note_on_c, 0, 89, 0
1, 399440, Note_on_c, 0, 88, 44
1, 399468, Tempo, 437956
1, 399520, Note_on_c, 0, 88, 0
1, 399520, Note_on_c, 0, 87, 43
1, 399580, Tempo, 441176
1, 399600, Tempo, 431655
1, 399600, Note_on_c, 0, 87, 0
1, 399600, Note_on_c, 0, 86, 41
1, 399607, Control_c, 0, 64, 0
1, 399643, Control_c, 0, 64, 127
1, 399644, Tempo, 428571
1, 399680, Note_on_c, 0, 86, 0
1, 399680, Note_on_c, 0, 87, 44
1, 399692, Tempo, 425532
1, 399740, Tempo, 422535
1, 399760, Note_on_c, 0, 87, 0
1, 399760, Note_on_c, 0, 88, 46
1, 399772, Tempo, 419580
1, 399840, Note_on_c, 0, 88, 0
1, 399840, Note_on_c, 0, 89, 49
1, 399916, Tempo, 422535
1, 399920, Note_on_c, 0, 89, 0
1, 399920, Note_on_c, 0, 88, 49
1, 400000, Note_on_c, 0, 88, 0
1, 400000, Note_on_c, 0, 87, 47
1, 400044, Tempo, 425532
1, 400080, Note_on_c, 0, 87, 0
1, 400080, Note_on_c, 0, 74, 0
1, 400080, Note_on_c, 0, 64, 0
1, 400080, Note_on_c, 0, 68, 0
1, 400080, Note_on_c, 0, 71, 0
1, 400080, Note_on_c, 0, 86, 46
1, 400160, Note_on_c, 0, 86, 0
1, 400160, Note_on_c, 0, 85, 45
1, 400172, Tempo, 428571
1, 400240, Note_on_c, 0, 85, 0
1, 400240, Note_on_c, 0, 84, 44
1, 400300, Tempo, 431655
1, 400320, Note_on_c, 0, 84, 0
1, 400320, Note_on_c, 0, 83, 43
1, 400400, Note_on_c, 0, 83, 0
1, 400400, Note_on_c, 0, 82, 41
1, 400428, Tempo, 434783
1, 400480, Note_on_c, 0, 82, 0
1, 400480, Note_on_c, 0, 81, 40
1, 400556, Tempo, 437956
1, 400560, Note_on_c, 0, 81, 0
1, 400560, Note_on_c, 0, 80, 39
1, 400577, Control_c, 0, 64, 0
1, 400606, Control_c, 0, 64, 127
1, 400620, Tempo, 434783
1, 400640, Note_on_c, 0, 80, 0
1, 400640, Note_on_c, 0, 81, 44
1, 400668, Tempo, 431655
1, 400716, Tempo, 428571
1, 400720, Note_on_c, 0, 81, 0
1, 400720, Note_on_c, 0, 82, 46
1, 400764, Tempo, 425532
1, 400800, Note_on_c, 0, 82, 0
1, 400800, Note_on_c, 0, 83, 48
1, 400812, Tempo, 422535
1, 400880, Note_on_c, 0, 83, 0
1, 400880, Note_on_c, 0, 82, 49
1, 400940, Tempo, 425532
1, 400960, Note_on_c, 0, 82, 0
1, 400960, Note_on_c, 0, 81, 48
1, 401040, Note_on_c, 0, 81, 0
1, 401040, Note_on_c, 0, 80, 47
1, 401052, Tempo, 428571
1, 401120, Note_on_c, 0, 80, 0
1, 401120, Note_on_c, 0, 79, 46
1, 401164, Tempo, 431655
1, 401200, Note_on_c, 0, 79, 0
1, 401200, Note_on_c, 0, 78, 45
1, 401276, Tempo, 434783
1, 401280, Note_on_c, 0, 78, 0
1, 401280, Note_on_c, 0, 77, 45
1, 401360, Note_on_c, 0, 77, 0
1, 401360, Note_on_c, 0, 76, 44
1, 401388, Tempo, 437956
1, 401440, Note_on_c, 0, 76, 0
1, 401440, Note_on_c, 0, 75, 43
1, 401500, Tempo, 441176
1, 401520, Note_on_c, 0, 75, 0
1, 401520, Note_on_c, 0, 74, 41
1, 401526, Control_c, 0, 64, 0
1, 401564, Tempo, 437956
1, 401566, Control_c, 0, 64, 127
1, 401600, Note_on_c, 0, 74, 0
1, 401600, Note_on_c, 0, 75, 44
1, 401628, Tempo, 434783
1, 401680, Note_on_c, 0, 75, 0
1, 401680, Note_on_c, 0, 76, 46
1, 401692, Tempo, 431655
1, 401756, Tempo, 428571
1, 401760, Note_on_c, 0, 76, 0
1, 401760, Note_on_c, 0, 77, 49
1, 401840, Note_on_c, 0, 77, 0
1, 401840, Note_on_c, 0, 76, 49
1, 401900, Tempo, 431655
1, 401920, Note_on_c, 0, 76, 0
1, 401920, Note_on_c, 0, 75, 47
1, 402000, Note_on_c, 0, 75, 0
1, 402000, Note_on_c, 0, 74, 46
1, 402044, Tempo, 434783
1, 402080, Note_on_c, 0, 74, 0
1, 402080, Note_on_c, 0, 73, 45
1, 402160, Note_on_c, 0, 73, 0
1, 402160, Note_on_c, 0, 72, 44
1, 402188, Tempo, 437956
1, 402240, Note_on_c, 0, 72, 0
1, 402240, Note_on_c, 0, 71, 43
1, 402320, Note_on_c, 0, 71, 0
1, 402320, Note_on_c, 0, 70, 41
1, 402332, Tempo, 441176
1, 402400, Note_on_c, 0, 70, 0
1, 402400, Note_on_c, 0, 69, 40
1, 402460, Tempo, 444444
1, 402476, Tempo, 444444
1, 402480, Note_on_c, 0, 69, 0
1, 402480, Note_on_c, 0, 68, 39
1, 402506, Control_c, 0, 64, 0
1, 402517, Control_c, 0, 64, 127
1, 402524, Tempo, 441176
1, 402560, Note_on_c, 0, 68, 0
1, 402560, Note_on_c, 0, 69, 44
1, 402572, Tempo, 437956
1, 402620, Tempo, 434783
1, 402640, Note_on_c, 0, 69, 0
1, 402640, Note_on_c, 0, 70, 46
1, 402668, Tempo, 431655
1, 402716, Tempo, 428571
1, 402720, Note_on_c, 0, 70, 0
1, 402720, Note_on_c, 0, 71, 48
1, 402764, Tempo, 425532
1, 402800, Note_on_c, 0, 71, 0
1, 402800, Note_on_c, 0, 70, 49
1, 402812, Tempo, 428571
1, 402860, Tempo, 431655
1, 402880, Note_on_c, 0, 70, 0
1, 402880, Note_on_c, 0, 69, 48
1, 402908, Tempo, 434783
1, 402940, Tempo, 437956
1, 402960, Note_on_c, 0, 69, 0
1, 402960, Note_on_c, 0, 68, 45
1, 402988, Tempo, 441176
1, 403020, Note_on_c, 0, 68, 0
1, 403020, Note_on_c, 0, 67, 45
1, 403036, Tempo, 444444
1, 403080, Note_on_c, 0, 67, 0
1, 403080, Note_on_c, 0, 66, 47
1, 403084, Tempo, 447761
1, 403116, Tempo, 451128
1, 403140, Note_on_c, 0, 66, 0
1, 403140, Note_on_c, 0, 65, 49
1, 403164, Tempo, 454545
1, 403200, Note_on_c, 0, 65, 0
1, 403200, Note_on_c, 0, 64, 50
1, 403212, Tempo, 458015
1, 403257, Control_c, 0, 64, 0
1, 403260, Tempo, 461538
1, 403320, Tempo, 705882
1, 403320, Note_on_c, 0, 64, 0
1, 403440, Key_signature, -3, "major"
1, 403440, Tempo, 342466
1, 403440, Marker_t, "Presto"
1, 403440, Note_on_c, 0, 67, 45
1, 403440, Note_on_c, 0, 70, 54
1, 403440, Note_on_c, 0, 63, 40
1, 403530, Note_on_c, 0, 63, 0
1, 403680, Note_on_c, 0, 64, 38
1, 403770, Note_on_c, 0, 64, 0
1, 403800, Note_on_c, 0, 70, 0
1, 403800, Note_on_c, 0, 67, 0
1, 403920, Tempo, 324763
1, 403920, Note_on_c, 0, 67, 43
1, 403920, Note_on_c, 0, 70, 51
1, 403920, Note_on_c, 0, 61, 38
1, 404010, Note_on_c, 0, 61, 0
1, 404010, Note_on_c, 0, 70, 0
1, 404010, Note_on_c, 0, 67, 0
1, 404160, Note_on_c, 0, 67, 43
1, 404160, Note_on_c, 0, 63, 38
1, 404164, Note_on_c, 0, 70, 51
1, 404250, Note_on_c, 0, 63, 0
1, 404250, Note_on_c, 0, 67, 0
1, 404254, Note_on_c, 0, 70, 0
1, 404400, Tempo, 332392
1, 404400, Note_on_c, 0, 66, 48
1, 404400, Note_on_c, 0, 75, 56
1, 404400, Note_on_c, 0, 59, 40
1, 404490, Note_on_c, 0, 59, 0
1, 404640, Note_on_c, 0, 61, 38
1, 404730, Note_on_c, 0, 61, 0
1, 404880, Note_on_c, 0, 57, 38
1, 404970, Note_on_c, 0, 57, 0
1, 405120, Note_on_c, 0, 75, 0
1, 405120, Note_on_c, 0, 66, 0
1, 405120, Note_on_c, 0, 75, 49
1, 405120, Note_on_c, 0, 66, 41
1, 405120, Note_on_c, 0, 59, 38
1, 405210, Note_on_c, 0, 59, 0
1, 405210, Note_on_c, 0, 66, 0
1, 405210, Note_on_c, 0, 75, 0
1, 405360, Tempo, 317460
1, 405360, Note_on_c, 0, 64, 44
1, 405360, Note_on_c, 0, 73, 52
1, 405360, Note_on_c, 0, 55, 44
1, 405450, Note_on_c, 0, 55, 0
1, 405450, Note_on_c, 0, 73, 0
1, 405600, Note_on_c, 0, 64, 0
1, 405600, Note_on_c, 0, 70, 52
1, 405600, Note_on_c, 0, 61, 39
1, 405690, Note_on_c, 0, 61, 0
1, 405690, Note_on_c, 0, 70, 0
1, 405840, Tempo, 324763
1, 405840, Note_on_c, 0, 63, 44
1, 405840, Note_on_c, 0, 71, 52
1, 405840, Note_on_c, 0, 56, 38
1, 405930, Note_on_c, 0, 56, 0
1, 405930, Note_on_c, 0, 71, 0
1, 406080, Note_on_c, 0, 63, 0
1, 406080, Note_on_c, 0, 68, 54
1, 406080, Note_on_c, 0, 59, 40
1, 406170, Note_on_c, 0, 59, 0
1, 406170, Note_on_c, 0, 68, 0
1, 406320, Tempo, 346681
1, 406320, Note_on_c, 0, 67, 44
1, 406320, Note_on_c, 0, 70, 53
1, 406320, Note_on_c, 0, 51, 40
1, 406410, Note_on_c, 0, 51, 0
1, 406410, Note_on_c, 0, 70, 0
1, 406558, Note_on_c, 0, 67, 0
1, 406560, Note_on_c, 0, 63, 50
1, 406560, Note_on_c, 0, 58, 37
1, 406650, Note_on_c, 0, 58, 0
1, 406650, Note_on_c, 0, 63, 0
1, 406800, Tempo, 359928
1, 406800, Note_on_c, 0, 63, 45
1, 407280, Tempo, 342466
1, 407280, Note_on_c, 0, 63, 0
1, 407280, Note_on_c, 0, 67, 49
1, 407280, Note_on_c, 0, 70, 59
1, 407280, Note_on_c, 0, 63, 44
1, 407370, Note_on_c, 0, 63, 0
1, 407520, Note_on_c, 0, 64, 41
1, 407610, Note_on_c, 0, 64, 0
1, 407640, Note_on_c, 0, 70, 0
1, 407640, Note_on_c, 0, 67, 0
1, 407760, Tempo, 324763
1, 407760, Note_on_c, 0, 67, 47
1, 407760, Note_on_c, 0, 70, 56
1, 407760, Note_on_c, 0, 61, 41
1, 407850, Note_on_c, 0, 61, 0
1, 407850, Note_on_c, 0, 70, 0
1, 407850, Note_on_c, 0, 67, 0
1, 408000, Note_on_c, 0, 70, 56
1, 408000, Note_on_c, 0, 67, 47
1, 408000, Note_on_c, 0, 63, 41
1, 408090, Note_on_c, 0, 63, 0
1, 408090, Note_on_c, 0, 67, 0
1, 408090, Note_on_c, 0, 70, 0
1, 408240, Tempo, 332392
1, 408240, Note_on_c, 0, 66, 52
1, 408240, Note_on_c, 0, 75, 61
1, 408240, Note_on_c, 0, 59, 44
1, 408330, Note_on_c, 0, 59, 0
1, 408480, Note_on_c, 0, 61, 41
1, 408570, Note_on_c, 0, 61, 0
1, 408720, Note_on_c, 0, 57, 41
1, 408810, Note_on_c, 0, 57, 0
1, 408960, Note_on_c, 0, 75, 0
1, 408960, Note_on_c, 0, 66, 0
1, 408960, Note_on_c, 0, 75, 53
1, 408960, Note_on_c, 0, 66, 45
1, 408960, Note_on_c, 0, 59, 41
1, 409050, Note_on_c, 0, 59, 0
1, 409050, Note_on_c, 0, 66, 0
1, 409050, Note_on_c, 0, 75, 0
1, 409200, Tempo, 317460
1, 409200, Note_on_c, 0, 64, 48
1, 409200, Note_on_c, 0, 73, 57
1, 409200, Note_on_c, 0, 56, 48
1, 409290, Note_on_c, 0, 56, 0
1, 409290, Note_on_c, 0, 73, 0
1, 409440, Note_on_c, 0, 64, 0
1, 409440, Note_on_c, 0, 71, 57
1, 409440, Note_on_c, 0, 61, 39
1, 409530, Note_on_c, 0, 61, 0
1, 409530, Note_on_c, 0, 71, 0
1, 409680, Tempo, 324763
1, 409680, Note_on_c, 0, 67, 48
1, 409680, Note_on_c, 0, 70, 58
1, 409680, Note_on_c, 0, 51, 41
1, 409770, Note_on_c, 0, 51, 0
1, 409770, Note_on_c, 0, 70, 0
1, 409920, Note_on_c, 0, 67, 0
1, 409920, Note_on_c, 0, 63, 61
1, 409920, Note_on_c, 0, 55, 39
1, 409920, Note_on_c, 0, 61, 45
1, 410010, Note_on_c, 0, 61, 0
1, 410010, Note_on_c, 0, 55, 0
1, 410010, Note_on_c, 0, 63, 0
1, 410160, Tempo, 346681
1, 410160, Note_on_c, 0, 68, 60
1, 410160, Note_on_c, 0, 56, 46
1, 410250, Note_on_c, 0, 56, 0
1, 410250, Note_on_c, 0, 68, 0
1, 410400, Note_on_c, 0, 63, 58
1, 410400, Note_on_c, 0, 59, 42
1, 410490, Note_on_c, 0, 59, 0
1, 410490, Note_on_c, 0, 63, 0
1, 410640, Tempo, 384418
1, 410640, Note_on_c, 0, 63, 55
1, 410640, Note_on_c, 0, 68, 62
1, 410640, Note_on_c, 0, 56, 48
1, 410640, Note_on_c, 0, 59, 52
1, 410730, Note_on_c, 0, 59, 0
1, 410730, Note_on_c, 0, 63, 0
1, 410730, Note_on_c, 0, 68, 0
1, 410730, Note_on_c, 0, 56, 0
1, 411120, Tempo, 342466
1, 411120, Note_on_c, 0, 70, 58
1, 411120, Note_on_c, 0, 75, 58
1, 411120, Note_on_c, 0, 79, 58
1, 411120, Note_on_c, 0, 82, 70
1, 411120, Note_on_c, 0, 51, 44
1, 411120, Note_on_c, 0, 63, 52
1, 411172, Control_c, 0, 64, 127
1, 411210, Note_on_c, 0, 63, 0
1, 411210, Note_on_c, 0, 51, 0
1, 411360, Note_on_c, 0, 52, 41
1, 411360, Note_on_c, 0, 64, 49
1, 411417, Control_c, 0, 64, 0
1, 411450, Note_on_c, 0, 64, 0
1, 411450, Note_on_c, 0, 52, 0
1, 411480, Note_on_c, 0, 82, 0
1, 411480, Note_on_c, 0, 70, 0
1, 411480, Note_on_c, 0, 75, 0
1, 411480, Note_on_c, 0, 79, 0
1, 411600, Tempo, 324763
1, 411600, Note_on_c, 0, 70, 55
1, 411600, Note_on_c, 0, 75, 55
1, 411600, Note_on_c, 0, 79, 55
1, 411600, Note_on_c, 0, 82, 66
1, 411600, Note_on_c, 0, 49, 41
1, 411600, Note_on_c, 0, 61, 49
1, 411690, Note_on_c, 0, 61, 0
1, 411690, Note_on_c, 0, 75, 0
1, 411690, Note_on_c, 0, 79, 0
1, 411690, Note_on_c, 0, 70, 0
1, 411690, Note_on_c, 0, 49, 0
1, 411690, Note_on_c, 0, 82, 0
1, 411840, Note_on_c, 0, 82, 66
1, 411840, Note_on_c, 0, 70, 55
1, 411840, Note_on_c, 0, 75, 55
1, 411840, Note_on_c, 0, 79, 55
1, 411840, Note_on_c, 0, 51, 41
1, 411840, Note_on_c, 0, 63, 49
1, 411930, Note_on_c, 0, 63, 0
1, 411930, Note_on_c, 0, 70, 0
1, 411930, Note_on_c, 0, 75, 0
1, 411930, Note_on_c, 0, 82, 0
1, 411930, Note_on_c, 0, 51, 0
1, 411930, Note_on_c, 0, 79, 0
1, 412080, Tempo, 332392
1, 412080, Note_on_c, 0, 75, 62
1, 412080, Note_on_c, 0, 78, 62
1, 412080, Note_on_c, 0, 87, 72
1, 412080, Note_on_c, 0, 47, 44
1, 412080, Note_on_c, 0, 59, 52
1, 412133, Control_c, 0, 64, 127
1, 412170, Note_on_c, 0, 59, 0
1, 412170, Note_on_c, 0, 47, 0
1, 412320, Note_on_c, 0, 49, 41
1, 412320, Note_on_c, 0, 61, 49
1, 412359, Control_c, 0, 64, 0
1, 412410, Note_on_c, 0, 61, 0
1, 412410, Note_on_c, 0, 49, 0
1, 412560, Note_on_c, 0, 45, 41
1, 412560, Note_on_c, 0, 57, 49
1, 412650, Note_on_c, 0, 57, 0
1, 412650, Note_on_c, 0, 45, 0
1, 412800, Note_on_c, 0, 75, 0
1, 412800, Note_on_c, 0, 78, 0
1, 412800, Note_on_c, 0, 87, 0
1, 412800, Note_on_c, 0, 75, 53
1, 412800, Note_on_c, 0, 87, 63
1, 412800, Note_on_c, 0, 78, 53
1, 412800, Note_on_c, 0, 47, 41
1, 412800, Note_on_c, 0, 59, 49
1, 412890, Note_on_c, 0, 59, 0
1, 412890, Note_on_c, 0, 78, 0
1, 412890, Note_on_c, 0, 75, 0
1, 412890, Note_on_c, 0, 87, 0
1, 412890, Note_on_c, 0, 47, 0
1, 413040, Tempo, 317460
1, 413040, Note_on_c, 0, 73, 57
1, 413040, Note_on_c, 0, 76, 57
1, 413040, Note_on_c, 0, 85, 67
1, 413040, Note_on_c, 0, 43, 48
1, 413040, Note_on_c, 0, 55, 57
1, 413130, Note_on_c, 0, 85, 0
1, 413130, Note_on_c, 0, 73, 0
1, 413130, Note_on_c, 0, 76, 0
1, 413280, Note_on_c, 0, 70, 67
1, 413280, Note_on_c, 0, 82, 67
1, 413370, Note_on_c, 0, 82, 0
1, 413370, Note_on_c, 0, 70, 0
1, 413520, Tempo, 324763
1, 413520, Note_on_c, 0, 43, 0
1, 413520, Note_on_c, 0, 55, 0
1, 413520, Note_on_c, 0, 71, 57
1, 413520, Note_on_c, 0, 75, 57
1, 413520, Note_on_c, 0, 83, 67
1, 413520, Note_on_c, 0, 44, 41
1, 413520, Note_on_c, 0, 56, 49
1, 413610, Note_on_c, 0, 83, 0
1, 413610, Note_on_c, 0, 71, 0
1, 413610, Note_on_c, 0, 75, 0
1, 413760, Note_on_c, 0, 68, 70
1, 413760, Note_on_c, 0, 80, 70
1, 413850, Note_on_c, 0, 80, 0
1, 413850, Note_on_c, 0, 68, 0
1, 414000, Tempo, 334374
1, 414000, Note_on_c, 0, 44, 0
1, 414000, Note_on_c, 0, 56, 0
1, 414000, Note_on_c, 0, 70, 57
1, 414000, Note_on_c, 0, 75, 57
1, 414000, Note_on_c, 0, 82, 68
1, 414000, Note_on_c, 0, 39, 44
1, 414000, Note_on_c, 0, 51, 52
1, 414090, Note_on_c, 0, 51, 0
1, 414090, Note_on_c, 0, 82, 0
1, 414090, Note_on_c, 0, 70, 0
1, 414090, Note_on_c, 0, 75, 0
1, 414090, Note_on_c, 0, 39, 0
1, 414240, Note_on_c, 0, 63, 57
1, 414240, Note_on_c, 0, 75, 65
1, 414240, Note_on_c, 0, 43, 40
1, 414240, Note_on_c, 0, 55, 48
1, 414330, Note_on_c, 0, 55, 0
1, 414330, Note_on_c, 0, 63, 0
1, 414330, Note_on_c, 0, 75, 0
1, 414330, Note_on_c, 0, 43, 0
1, 414480, Tempo, 336361
1, 414480, Note_on_c, 0, 63, 57
1, 414480, Note_on_c, 0, 75, 68
1, 414480, Note_on_c, 0, 46, 40
1, 414480, Note_on_c, 0, 58, 48
1, 414570, Note_on_c, 0, 58, 0
1, 414570, Note_on_c, 0, 63, 0
1, 414570, Note_on_c, 0, 75, 0
1, 414570, Note_on_c, 0, 46, 0
1, 414720, Tempo, 350980
1, 414720, Note_on_c, 0, 50, 40
1, 414720, Note_on_c, 0, 62, 48
1, 414810, Note_on_c, 0, 62, 0
1, 414810, Note_on_c, 0, 50, 0
1, 414960, Tempo, 342466
1, 414960, Note_on_c, 0, 70, 60
1, 414960, Note_on_c, 0, 75, 60
1, 414960, Note_on_c, 0, 79, 60
1, 414960, Note_on_c, 0, 82, 73
1, 414960, Note_on_c, 0, 51, 46
1, 414960, Note_on_c, 0, 63, 54
1, 415012, Control_c, 0, 64, 127
1, 415050, Note_on_c, 0, 63, 0
1, 415050, Note_on_c, 0, 51, 0
1, 415200, Note_on_c, 0, 52, 43
1, 415200, Note_on_c, 0, 64, 51
1, 415223, Control_c, 0, 64, 0
1, 415290, Note_on_c, 0, 64, 0
1, 415290, Note_on_c, 0, 52, 0
1, 415320, Note_on_c, 0, 82, 0
1, 415320, Note_on_c, 0, 70, 0
1, 415320, Note_on_c, 0, 75, 0
1, 415320, Note_on_c, 0, 79, 0
1, 415440, Tempo, 324763
1, 415440, Note_on_c, 0, 70, 57
1, 415440, Note_on_c, 0, 75, 57
1, 415440, Note_on_c, 0, 79, 57
1, 415440, Note_on_c, 0, 82, 69
1, 415440, Note_on_c, 0, 49, 43
1, 415440, Note_on_c, 0, 61, 51
1, 415530, Note_on_c, 0, 61, 0
1, 415530, Note_on_c, 0, 75, 0
1, 415530, Note_on_c, 0, 79, 0
1, 415530, Note_on_c, 0, 70, 0
1, 415530, Note_on_c, 0, 49, 0
1, 415530, Note_on_c, 0, 82, 0
1, 415680, Note_on_c, 0, 82, 69
1, 415680, Note_on_c, 0, 70, 57
1, 415680, Note_on_c, 0, 75, 57
1, 415680, Note_on_c, 0, 79, 57
1, 415680, Note_on_c, 0, 51, 43
1, 415680, Note_on_c, 0, 63, 51
1, 415770, Note_on_c, 0, 63, 0
1, 415770, Note_on_c, 0, 70, 0
1, 415770, Note_on_c, 0, 75, 0
1, 415770, Note_on_c, 0, 82, 0
1, 415770, Note_on_c, 0, 51, 0
1, 415770, Note_on_c, 0, 79, 0
1, 415920, Tempo, 332392
1, 415920, Note_on_c, 0, 75, 65
1, 415920, Note_on_c, 0, 78, 65
1, 415920, Note_on_c, 0, 87, 75
1, 415920, Note_on_c, 0, 47, 46
1, 415920, Note_on_c, 0, 59, 54
1, 416010, Note_on_c, 0, 59, 0
1, 416010, Note_on_c, 0, 47, 0
1, 416160, Note_on_c, 0, 49, 43
1, 416160, Note_on_c, 0, 61, 51
1, 416250, Note_on_c, 0, 61, 0
1, 416250, Note_on_c, 0, 49, 0
1, 416400, Note_on_c, 0, 45, 43
1, 416400, Note_on_c, 0, 57, 51
1, 416490, Note_on_c, 0, 57, 0
1, 416490, Note_on_c, 0, 45, 0
1, 416640, Note_on_c, 0, 47, 43
1, 416640, Note_on_c, 0, 59, 51
1, 416730, Note_on_c, 0, 59, 0
1, 416730, Note_on_c, 0, 47, 0
1, 416880, Tempo, 342466
1, 416880, Note_on_c, 0, 87, 0
1, 416880, Note_on_c, 0, 78, 0
1, 416880, Note_on_c, 0, 75, 0
1, 416880, Note_on_c, 0, 74, 63
1, 416880, Note_on_c, 0, 79, 63
1, 416880, Note_on_c, 0, 83, 63
1, 416880, Note_on_c, 0, 86, 76
1, 416880, Note_on_c, 0, 43, 48
1, 416880, Note_on_c, 0, 55, 56
1, 416949, Control_c, 0, 64, 127
1, 416970, Note_on_c, 0, 55, 0
1, 416970, Note_on_c, 0, 43, 0
1, 417120, Note_on_c, 0, 45, 45
1, 417120, Note_on_c, 0, 57, 53
1, 417210, Note_on_c, 0, 57, 0
1, 417210, Note_on_c, 0, 45, 0
1, 417240, Note_on_c, 0, 86, 0
1, 417240, Note_on_c, 0, 74, 0
1, 417240, Note_on_c, 0, 79, 0
1, 417240, Note_on_c, 0, 83, 0
1, 417360, Tempo, 324763
1, 417360, Note_on_c, 0, 74, 59
1, 417360, Note_on_c, 0, 79, 59
1, 417360, Note_on_c, 0, 83, 59
1, 417360, Note_on_c, 0, 86, 72
1, 417360, Note_on_c, 0, 41, 45
1, 417360, Note_on_c, 0, 53, 53
1, 417366, Control_c, 0, 64, 0
1, 417450, Note_on_c, 0, 53, 0
1, 417450, Note_on_c, 0, 79, 0
1, 417450, Note_on_c, 0, 83, 0
1, 417450, Note_on_c, 0, 74, 0
1, 417450, Note_on_c, 0, 41, 0
1, 417450, Note_on_c, 0, 86, 0
1, 417600, Note_on_c, 0, 86, 72
1, 417600, Note_on_c, 0, 74, 59
1, 417600, Note_on_c, 0, 79, 59
1, 417600, Note_on_c, 0, 83, 59
1, 417600, Note_on_c, 0, 43, 45
1, 417600, Note_on_c, 0, 55, 53
1, 417690, Note_on_c, 0, 55, 0
1, 417690, Note_on_c, 0, 74, 0
1, 417690, Note_on_c, 0, 79, 0
1, 417690, Note_on_c, 0, 86, 0
1, 417690, Note_on_c, 0, 43, 0
1, 417690, Note_on_c, 0, 83, 0
1, 417840, Tempo, 332392
1, 417840, Note_on_c, 0, 79, 68
1, 417840, Note_on_c, 0, 82, 68
1, 417840, Note_on_c, 0, 87, 68
1, 417840, Note_on_c, 0, 91, 78
1, 417840, Note_on_c, 0, 39, 48
1, 417840, Note_on_c, 0, 51, 56
1, 417903, Control_c, 0, 64, 127
1, 417930, Note_on_c, 0, 51, 0
1, 417930, Note_on_c, 0, 39, 0
1, 418080, Note_on_c, 0, 41, 45
1, 418080, Note_on_c, 0, 53, 53
1, 418120, Control_c, 0, 64, 0
1, 418170, Note_on_c, 0, 53, 0
1, 418170, Note_on_c, 0, 41, 0
1, 418320, Note_on_c, 0, 37, 45
1, 418320, Note_on_c, 0, 49, 53
1, 418410, Note_on_c, 0, 49, 0
1, 418410, Note_on_c, 0, 37, 0
1, 418560, Note_on_c, 0, 39, 45
1, 418560, Note_on_c, 0, 51, 53
1, 418650, Note_on_c, 0, 51, 0
1, 418650, Note_on_c, 0, 39, 0
1, 418800, Tempo, 342466
1, 418800, Note_on_c, 0, 91, 0
1, 418800, Note_on_c, 0, 79, 0
1, 418800, Note_on_c, 0, 82, 0
1, 418800, Note_on_c, 0, 87, 0
1, 418800, Note_on_c, 0, 79, 66
1, 418800, Note_on_c, 0, 84, 66
1, 418800, Note_on_c, 0, 88, 66
1, 418800, Note_on_c, 0, 91, 79
1, 418800, Note_on_c, 0, 36, 67
1, 418863, Control_c, 0, 64, 127
1, 419040, Note_on_c, 0, 48, 55
1, 419130, Note_on_c, 0, 48, 0
1, 419160, Note_on_c, 0, 84, 0
1, 419160, Note_on_c, 0, 88, 0
1, 419160, Note_on_c, 0, 79, 0
1, 419160, Note_on_c, 0, 91, 0
1, 419280, Tempo, 324763
1, 419280, Note_on_c, 0, 36, 0
1, 419280, Note_on_c, 0, 79, 61
1, 419280, Note_on_c, 0, 84, 61
1, 419280, Note_on_c, 0, 88, 61
1, 419280, Note_on_c, 0, 91, 75
1, 419280, Note_on_c, 0, 35, 64
1, 419289, Control_c, 0, 64, 0
1, 419370, Note_on_c, 0, 91, 0
1, 419370, Note_on_c, 0, 88, 0
1, 419370, Note_on_c, 0, 79, 0
1, 419370, Note_on_c, 0, 84, 0
1, 419520, Note_on_c, 0, 91, 75
1, 419520, Note_on_c, 0, 79, 61
1, 419520, Note_on_c, 0, 84, 61
1, 419520, Note_on_c, 0, 88, 61
1, 419520, Note_on_c, 0, 47, 55
1, 419610, Note_on_c, 0, 47, 0
1, 419610, Note_on_c, 0, 91, 0
1, 419610, Note_on_c, 0, 79, 0
1, 419610, Note_on_c, 0, 84, 0
1, 419610, Note_on_c, 0, 88, 0
1, 419760, Tempo, 332392
1, 419760, Note_on_c, 0, 35, 0
1, 419760, Note_on_c, 0, 84, 71
1, 419760, Note_on_c, 0, 88, 71
1, 419760, Note_on_c, 0, 91, 71
1, 419760, Note_on_c, 0, 96, 81
1, 419760, Note_on_c, 0, 33, 70
1, 419760, Control_c, 0, 64, 127
1, 420000, Note_on_c, 0, 45, 55
1, 420090, Note_on_c, 0, 45, 0
1, 420240, Note_on_c, 0, 33, 0
1, 420240, Note_on_c, 0, 31, 67
1, 420262, Control_c, 0, 64, 0
1, 420349, Control_c, 0, 64, 127
1, 420480, Note_on_c, 0, 43, 56
1, 420570, Note_on_c, 0, 43, 0
1, 420720, Tempo, 342466
1, 420720, Note_on_c, 0, 88, 0
1, 420720, Note_on_c, 0, 96, 0
1, 420720, Note_on_c, 0, 84, 0
1, 420720, Note_on_c, 0, 31, 0
1, 420720, Note_on_c, 0, 91, 0
1, 420720, Note_on_c, 0, 67, 67
1, 420720, Note_on_c, 0, 72, 67
1, 420720, Note_on_c, 0, 76, 67
1, 420720, Note_on_c, 0, 79, 80
1, 420720, Note_on_c, 0, 36, 68
1, 420726, Control_c, 0, 64, 0
1, 420812, Control_c, 0, 64, 127
1, 420960, Note_on_c, 0, 48, 56
1, 421050, Note_on_c, 0, 48, 0
1, 421080, Note_on_c, 0, 72, 0
1, 421080, Note_on_c, 0, 76, 0
1, 421080, Note_on_c, 0, 67, 0
1, 421080, Note_on_c, 0, 79, 0
1, 421200, Tempo, 324763
1, 421200, Note_on_c, 0, 36, 0
1, 421200, Note_on_c, 0, 67, 62
1, 421200, Note_on_c, 0, 72, 62
1, 421200, Note_on_c, 0, 76, 62
1, 421200, Note_on_c, 0, 79, 77
1, 421200, Note_on_c, 0, 38, 65
1, 421209, Control_c, 0, 64, 0
1, 421290, Note_on_c, 0, 79, 0
1, 421290, Note_on_c, 0, 76, 0
1, 421290, Note_on_c, 0, 67, 0
1, 421290, Note_on_c, 0, 72, 0
1, 421440, Note_on_c, 0, 79, 77
1, 421440, Note_on_c, 0, 67, 62
1, 421440, Note_on_c, 0, 72, 62
1, 421440, Note_on_c, 0, 76, 62
1, 421440, Note_on_c, 0, 50, 56
1, 421530, Note_on_c, 0, 50, 0
1, 421530, Note_on_c, 0, 79, 0
1, 421530, Note_on_c, 0, 67, 0
1, 421530, Note_on_c, 0, 72, 0
1, 421530, Note_on_c, 0, 76, 0
1, 421680, Tempo, 332392
1, 421680, Note_on_c, 0, 38, 0
1, 421680, Note_on_c, 0, 72, 73
1, 421680, Note_on_c, 0, 76, 73
1, 421680, Note_on_c, 0, 79, 73
1, 421680, Note_on_c, 0, 84, 83
1, 421680, Note_on_c, 0, 40, 72
1, 421807, Control_c, 0, 64, 127
1, 421920, Note_on_c, 0, 52, 75
1, 422640, Tempo, 342466
1, 422640, Note_on_c, 0, 52, 0
1, 422640, Note_on_c, 0, 76, 0
1, 422640, Note_on_c, 0, 79, 0
1, 422640, Note_on_c, 0, 72, 0
1, 422640, Note_on_c, 0, 40, 0
1, 422640, Note_on_c, 0, 84, 0
1, 422640, Note_on_c, 0, 79, 69
1, 422640, Note_on_c, 0, 84, 69
1, 422640, Note_on_c, 0, 88, 69
1, 422640, Note_on_c, 0, 91, 82
1, 422640, Note_on_c, 0, 36, 58
1, 422640, Note_on_c, 0, 48, 70
1, 422642, Control_c, 0, 64, 0
1, 422697, Control_c, 0, 64, 127
1, 422730, Note_on_c, 0, 48, 0
1, 422730, Note_on_c, 0, 36, 0
1, 422880, Note_on_c, 0, 48, 48
1, 422880, Note_on_c, 0, 60, 57
1, 422970, Note_on_c, 0, 60, 0
1, 422970, Note_on_c, 0, 48, 0
1, 423000, Note_on_c, 0, 91, 0
1, 423000, Note_on_c, 0, 79, 0
1, 423000, Note_on_c, 0, 84, 0
1, 423000, Note_on_c, 0, 88, 0
1, 423120, Tempo, 324763
1, 423120, Note_on_c, 0, 79, 64
1, 423120, Note_on_c, 0, 84, 64
1, 423120, Note_on_c, 0, 88, 64
1, 423120, Note_on_c, 0, 91, 78
1, 423120, Note_on_c, 0, 35, 56
1, 423120, Note_on_c, 0, 47, 67
1, 423132, Control_c, 0, 64, 0
1, 423210, Note_on_c, 0, 47, 0
1, 423210, Note_on_c, 0, 84, 0
1, 423210, Note_on_c, 0, 88, 0
1, 423210, Note_on_c, 0, 79, 0
1, 423210, Note_on_c, 0, 35, 0
1, 423210, Note_on_c, 0, 91, 0
1, 423360, Note_on_c, 0, 91, 78
1, 423360, Note_on_c, 0, 79, 64
1, 423360, Note_on_c, 0, 84, 64
1, 423360, Note_on_c, 0, 88, 64
1, 423360, Note_on_c, 0, 59, 57
1, 423360, Note_on_c, 0, 47, 48
1, 423450, Note_on_c, 0, 47, 0
1, 423450, Note_on_c, 0, 79, 0
1, 423450, Note_on_c, 0, 84, 0
1, 423450, Note_on_c, 0, 91, 0
1, 423450, Note_on_c, 0, 59, 0
1, 423450, Note_on_c, 0, 88, 0
1, 423600, Tempo, 332392
1, 423600, Note_on_c, 0, 84, 75
1, 423600, Note_on_c, 0, 88, 75
1, 423600, Note_on_c, 0, 91, 75
1, 423600, Note_on_c, 0, 96, 85
1, 423600, Note_on_c, 0, 45, 74
1, 423600, Note_on_c, 0, 33, 62
1, 423646, Control_c, 0, 64, 127
1, 423690, Note_on_c, 0, 33, 0
1, 423690, Note_on_c, 0, 45, 0
1, 423840, Note_on_c, 0, 57, 58
1, 423840, Note_on_c, 0, 45, 48
1, 423930, Note_on_c, 0, 45, 0
1, 423930, Note_on_c, 0, 57, 0
1, 424080, Note_on_c, 0, 43, 71
1, 424080, Note_on_c, 0, 31, 59
1, 424097, Control_c, 0, 64, 0
1, 424160, Control_c, 0, 64, 127
1, 424170, Note_on_c, 0, 31, 0
1, 424170, Note_on_c, 0, 43, 0
1, 424320, Note_on_c, 0, 55, 58
1, 424320, Note_on_c, 0, 43, 49
1, 424410, Note_on_c, 0, 43, 0
1, 424410, Note_on_c, 0, 55, 0
1, 424560, Tempo, 342466
1, 424560, Note_on_c, 0, 96, 0
1, 424560, Note_on_c, 0, 84, 0
1, 424560, Note_on_c, 0, 88, 0
1, 424560, Note_on_c, 0, 91, 0
1, 424560, Note_on_c, 0, 67, 70
1, 424560, Note_on_c, 0, 72, 70
1, 424560, Note_on_c, 0, 76, 70
1, 424560, Note_on_c, 0, 79, 84
1, 424560, Note_on_c, 0, 36, 59
1, 424560, Note_on_c, 0, 48, 71
1, 424567, Control_c, 0, 64, 0
1, 424650, Note_on_c, 0, 48, 0
1, 424650, Note_on_c, 0, 36, 0
1, 424673, Control_c, 0, 64, 127
1, 424800, Note_on_c, 0, 48, 49
1, 424800, Note_on_c, 0, 60, 58
1, 424890, Note_on_c, 0, 60, 0
1, 424890, Note_on_c, 0, 48, 0
1, 424920, Note_on_c, 0, 79, 0
1, 424920, Note_on_c, 0, 67, 0
1, 424920, Note_on_c, 0, 72, 0
1, 424920, Note_on_c, 0, 76, 0
1, 425040, Tempo, 324763
1, 425040, Note_on_c, 0, 67, 65
1, 425040, Note_on_c, 0, 72, 65
1, 425040, Note_on_c, 0, 76, 65
1, 425040, Note_on_c, 0, 79, 81
1, 425040, Note_on_c, 0, 38, 58
1, 425040, Note_on_c, 0, 50, 69
1, 425046, Control_c, 0, 64, 0
1, 425130, Note_on_c, 0, 50, 0
1, 425130, Note_on_c, 0, 72, 0
1, 425130, Note_on_c, 0, 76, 0
1, 425130, Note_on_c, 0, 67, 0
1, 425130, Note_on_c, 0, 38, 0
1, 425130, Note_on_c, 0, 79, 0
1, 425280, Note_on_c, 0, 79, 81
1, 425280, Note_on_c, 0, 67, 65
1, 425280, Note_on_c, 0, 72, 65
1, 425280, Note_on_c, 0, 76, 65
1, 425280, Note_on_c, 0, 62, 59
1, 425280, Note_on_c, 0, 50, 49
1, 425370, Note_on_c, 0, 50, 0
1, 425370, Note_on_c, 0, 67, 0
1, 425370, Note_on_c, 0, 72, 0
1, 425370, Note_on_c, 0, 79, 0
1, 425370, Note_on_c, 0, 62, 0
1, 425370, Note_on_c, 0, 76, 0
1, 425520, Tempo, 332392
1, 425520, Note_on_c, 0, 72, 76
1, 425520, Note_on_c, 0, 76, 76
1, 425520, Note_on_c, 0, 79, 76
1, 425520, Note_on_c, 0, 84, 87
1, 425520, Note_on_c, 0, 52, 75
1, 425520, Note_on_c, 0, 40, 63
1, 425583, Control_c, 0, 64, 127
1, 425610, Note_on_c, 0, 40, 0
1, 425610, Note_on_c, 0, 52, 0
1, 425760, Note_on_c, 0, 64, 80
1, 425760, Note_on_c, 0, 52, 65
1, 426240, Tempo, 371770
1, 426480, Tempo, 348817
1, 426480, Note_on_c, 0, 52, 0
1, 426480, Note_on_c, 0, 76, 0
1, 426480, Note_on_c, 0, 84, 0
1, 426480, Note_on_c, 0, 72, 0
1, 426480, Note_on_c, 0, 64, 0
1, 426480, Note_on_c, 0, 79, 0
1, 426480, Note_on_c, 0, 85, 72
1, 426480, Note_on_c, 0, 93, 72
1, 426480, Note_on_c, 0, 97, 86
1, 426480, Note_on_c, 0, 33, 61
1, 426480, Note_on_c, 0, 45, 73
1, 426480, Control_c, 0, 64, 0
1, 426566, Control_c, 0, 64, 127
1, 426570, Note_on_c, 0, 45, 0
1, 426570, Note_on_c, 0, 33, 0
1, 426720, Note_on_c, 0, 45, 50
1, 426720, Note_on_c, 0, 57, 60
1, 426810, Note_on_c, 0, 57, 0
1, 426810, Note_on_c, 0, 45, 0
1, 426840, Note_on_c, 0, 97, 0
1, 426840, Note_on_c, 0, 93, 0
1, 426840, Note_on_c, 0, 85, 0
1, 426960, Tempo, 328533
1, 426960, Note_on_c, 0, 85, 67
1, 426960, Note_on_c, 0, 93, 67
1, 426960, Note_on_c, 0, 97, 82
1, 426960, Note_on_c, 0, 32, 59
1, 426960, Note_on_c, 0, 44, 70
1, 426977, Control_c, 0, 64, 0
1, 427050, Note_on_c, 0, 44, 0
1, 427050, Note_on_c, 0, 97, 0
1, 427050, Note_on_c, 0, 85, 0
1, 427050, Note_on_c, 0, 93, 0
1, 427050, Note_on_c, 0, 32, 0
1, 427200, Note_on_c, 0, 97, 82
1, 427200, Note_on_c, 0, 85, 67
1, 427200, Note_on_c, 0, 93, 67
1, 427200, Note_on_c, 0, 56, 60
1, 427200, Note_on_c, 0, 44, 50
1, 427290, Note_on_c, 0, 44, 0
1, 427290, Note_on_c, 0, 93, 0
1, 427290, Note_on_c, 0, 97, 0
1, 427290, Note_on_c, 0, 85, 0
1, 427290, Note_on_c, 0, 56, 0
1, 427440, Tempo, 338371
1, 427440, Note_on_c, 0, 97, 78
1, 427440, Note_on_c, 0, 88, 78
1, 427440, Note_on_c, 0, 93, 78
1, 427440, Note_on_c, 0, 100, 89
1, 427440, Note_on_c, 0, 42, 77
1, 427440, Note_on_c, 0, 30, 64
1, 427503, Control_c, 0, 64, 127
1, 427530, Note_on_c, 0, 30, 0
1, 427530, Note_on_c, 0, 42, 0
1, 427680, Note_on_c, 0, 54, 60
1, 427680, Note_on_c, 0, 42, 50
1, 427770, Note_on_c, 0, 42, 0
1, 427770, Note_on_c, 0, 54, 0
1, 427920, Note_on_c, 0, 40, 73
1, 427920, Note_on_c, 0, 28, 61
1, 427941, Control_c, 0, 64, 0
1, 428010, Note_on_c, 0, 28, 0
1, 428010, Note_on_c, 0, 40, 0
1, 428010, Control_c, 0, 64, 127
1, 428160, Note_on_c, 0, 52, 60
1, 428160, Note_on_c, 0, 40, 50
1, 428250, Note_on_c, 0, 40, 0
1, 428250, Note_on_c, 0, 52, 0
1, 428400, Tempo, 355009
1, 428400, Note_on_c, 0, 100, 0
1, 428400, Note_on_c, 0, 97, 0
1, 428400, Note_on_c, 0, 88, 0
1, 428400, Note_on_c, 0, 93, 0
1, 428400, Note_on_c, 0, 73, 72
1, 428400, Note_on_c, 0, 81, 72
1, 428400, Note_on_c, 0, 85, 86
1, 428400, Note_on_c, 0, 33, 61
1, 428400, Note_on_c, 0, 45, 73
1, 428403, Control_c, 0, 64, 0
1, 428475, Control_c, 0, 64, 127
1, 428490, Note_on_c, 0, 45, 0
1, 428490, Note_on_c, 0, 33, 0
1, 428640, Note_on_c, 0, 45, 50
1, 428640, Note_on_c, 0, 57, 60
1, 428730, Note_on_c, 0, 57, 0
1, 428730, Note_on_c, 0, 45, 0
1, 428760, Note_on_c, 0, 85, 0
1, 428760, Note_on_c, 0, 81, 0
1, 428760, Note_on_c, 0, 73, 0
1, 428880, Tempo, 337060
1, 428880, Note_on_c, 0, 73, 67
1, 428880, Note_on_c, 0, 81, 67
1, 428880, Note_on_c, 0, 85, 82
1, 428880, Note_on_c, 0, 35, 59
1, 428880, Note_on_c, 0, 47, 70
1, 428915, Control_c, 0, 64, 0
1, 428970, Note_on_c, 0, 47, 0
1, 428970, Note_on_c, 0, 85, 0
1, 428970, Note_on_c, 0, 73, 0
1, 428970, Note_on_c, 0, 81, 0
1, 428970, Note_on_c, 0, 35, 0
1, 429120, Note_on_c, 0, 85, 82
1, 429120, Note_on_c, 0, 73, 67
1, 429120, Note_on_c, 0, 81, 67
1, 429120, Note_on_c, 0, 59, 60
1, 429120, Note_on_c, 0, 47, 50
1, 429210, Note_on_c, 0, 47, 0
1, 429210, Note_on_c, 0, 81, 0
1, 429210, Note_on_c, 0, 85, 0
1, 429210, Note_on_c, 0, 73, 0
1, 429210, Note_on_c, 0, 59, 0
1, 429360, Tempo, 344808
1, 429360, Note_on_c, 0, 85, 78
1, 429360, Note_on_c, 0, 76, 78
1, 429360, Note_on_c, 0, 81, 78
1, 429360, Note_on_c, 0, 88, 89
1, 429360, Note_on_c, 0, 49, 77
1, 429360, Note_on_c, 0, 37, 64
1, 429429, Control_c, 0, 64, 127
1, 429450, Note_on_c, 0, 37, 0
1, 429450, Note_on_c, 0, 49, 0
1, 429600, Note_on_c, 0, 61, 81
1, 429600, Note_on_c, 0, 49, 66
1, 430320, Tempo, 353170
1, 430320, Note_on_c, 0, 49, 0
1, 430320, Note_on_c, 0, 76, 0
1, 430320, Note_on_c, 0, 88, 0
1, 430320, Note_on_c, 0, 85, 0
1, 430320, Note_on_c, 0, 61, 0
1, 430320, Note_on_c, 0, 81, 0
1, 430320, Note_on_c, 0, 85, 72
1, 430320, Note_on_c, 0, 93, 72
1, 430320, Note_on_c, 0, 97, 86
1, 430320, Note_on_c, 0, 33, 61
1, 430320, Note_on_c, 0, 45, 73
1, 430320, Control_c, 0, 64, 0
1, 430406, Control_c, 0, 64, 127
1, 430410, Note_on_c, 0, 45, 0
1, 430410, Note_on_c, 0, 33, 0
1, 430560, Note_on_c, 0, 45, 50
1, 430560, Note_on_c, 0, 57, 60
1, 430650, Note_on_c, 0, 57, 0
1, 430650, Note_on_c, 0, 45, 0
1, 430680, Note_on_c, 0, 97, 0
1, 430680, Note_on_c, 0, 93, 0
1, 430680, Note_on_c, 0, 85, 0
1, 430800, Tempo, 332392
1, 430800, Note_on_c, 0, 85, 67
1, 430800, Note_on_c, 0, 93, 67
1, 430800, Note_on_c, 0, 97, 82
1, 430800, Note_on_c, 0, 32, 59
1, 430800, Note_on_c, 0, 44, 70
1, 430812, Control_c, 0, 64, 0
1, 430890, Note_on_c, 0, 44, 0
1, 430890, Note_on_c, 0, 97, 0
1, 430890, Note_on_c, 0, 85, 0
1, 430890, Note_on_c, 0, 93, 0
1, 430890, Note_on_c, 0, 32, 0
1, 431040, Note_on_c, 0, 97, 82
1, 431040, Note_on_c, 0, 85, 67
1, 431040, Note_on_c, 0, 93, 67
1, 431040, Note_on_c, 0, 56, 60
1, 431040, Note_on_c, 0, 44, 50
1, 431130, Note_on_c, 0, 44, 0
1, 431130, Note_on_c, 0, 93, 0
1, 431130, Note_on_c, 0, 97, 0
1, 431130, Note_on_c, 0, 85, 0
1, 431130, Note_on_c, 0, 56, 0
1, 431280, Tempo, 351886
1, 431280, Note_on_c, 0, 97, 78
1, 431280, Note_on_c, 0, 88, 78
1, 431280, Note_on_c, 0, 93, 78
1, 431280, Note_on_c, 0, 100, 89
1, 431280, Note_on_c, 0, 42, 77
1, 431280, Note_on_c, 0, 30, 64
1, 431343, Control_c, 0, 64, 127
1, 431370, Note_on_c, 0, 30, 0
1, 431370, Note_on_c, 0, 42, 0
1, 431520, Note_on_c, 0, 54, 60
1, 431520, Note_on_c, 0, 42, 50
1, 431610, Note_on_c, 0, 42, 0
1, 431610, Note_on_c, 0, 54, 0
1, 431760, Note_on_c, 0, 40, 73
1, 431760, Note_on_c, 0, 28, 61
1, 431771, Control_c, 0, 64, 0
1, 431850, Note_on_c, 0, 28, 0
1, 431850, Note_on_c, 0, 40, 0
1, 431850, Control_c, 0, 64, 127
1, 432000, Note_on_c, 0, 52, 60
1, 432000, Note_on_c, 0, 40, 50
1, 432090, Note_on_c, 0, 40, 0
1, 432090, Note_on_c, 0, 52, 0
1, 432240, Tempo, 376152
1, 432240, Note_on_c, 0, 100, 0
1, 432240, Note_on_c, 0, 97, 0
1, 432240, Note_on_c, 0, 88, 0
1, 432240, Note_on_c, 0, 93, 0
1, 432240, Note_on_c, 0, 73, 72
1, 432240, Note_on_c, 0, 81, 72
1, 432240, Note_on_c, 0, 85, 86
1, 432240, Note_on_c, 0, 33, 61
1, 432240, Note_on_c, 0, 45, 73
1, 432246, Control_c, 0, 64, 0
1, 432330, Note_on_c, 0, 45, 0
1, 432330, Note_on_c, 0, 33, 0
1, 432337, Control_c, 0, 64, 127
1, 432480, Note_on_c, 0, 45, 50
1, 432480, Note_on_c, 0, 57, 60
1, 432570, Note_on_c, 0, 57, 0
1, 432570, Note_on_c, 0, 45, 0
1, 432600, Note_on_c, 0, 85, 0
1, 432600, Note_on_c, 0, 81, 0
1, 432600, Note_on_c, 0, 73, 0
1, 432720, Tempo, 357122
1, 432720, Note_on_c, 0, 73, 67
1, 432720, Note_on_c, 0, 81, 67
1, 432720, Note_on_c, 0, 85, 82
1, 432720, Note_on_c, 0, 35, 59
1, 432720, Note_on_c, 0, 47, 70
1, 432737, Control_c, 0, 64, 0
1, 432810, Note_on_c, 0, 47, 0
1, 432810, Note_on_c, 0, 85, 0
1, 432810, Note_on_c, 0, 73, 0
1, 432810, Note_on_c, 0, 81, 0
1, 432810, Note_on_c, 0, 35, 0
1, 432960, Note_on_c, 0, 85, 82
1, 432960, Note_on_c, 0, 73, 67
1, 432960, Note_on_c, 0, 81, 67
1, 432960, Note_on_c, 0, 59, 60
1, 432960, Note_on_c, 0, 47, 50
1, 433050, Note_on_c, 0, 47, 0
1, 433050, Note_on_c, 0, 81, 0
1, 433050, Note_on_c, 0, 85, 0
1, 433050, Note_on_c, 0, 73, 0
1, 433050, Note_on_c, 0, 59, 0
1, 433200, Tempo, 406532
1, 433200, Note_on_c, 0, 85, 78
1, 433200, Note_on_c, 0, 76, 78
1, 433200, Note_on_c, 0, 81, 78
1, 433200, Note_on_c, 0, 88, 89
1, 433200, Note_on_c, 0, 49, 77
1, 433200, Note_on_c, 0, 37, 64
1, 433257, Control_c, 0, 64, 127
1, 433290, Note_on_c, 0, 37, 0
1, 433290, Note_on_c, 0, 49, 0
1, 433440, Tempo, 366950
1, 433440, Note_on_c, 0, 61, 81
1, 433440, Note_on_c, 0, 49, 66
1, 434046, Control_c, 0, 64, 0
1, 434100, Note_on_c, 0, 49, 0
1, 434100, Note_on_c, 0, 61, 0
1, 434160, Key_signature, 6, "major"
1, 434160, Tempo, 353170
1, 434160, Marker_t, "Piu animato"
1, 434160, Note_on_c, 0, 88, 0
1, 434160, Note_on_c, 0, 85, 0
1, 434160, Note_on_c, 0, 76, 0
1, 434160, Note_on_c, 0, 81, 0
1, 434160, Note_on_c, 0, 54, 73
1, 434160, Note_on_c, 0, 58, 73
1, 434160, Note_on_c, 0, 61, 73
1, 434160, Note_on_c, 0, 66, 87
1, 434160, Note_on_c, 0, 30, 55
1, 434160, Note_on_c, 0, 34, 55
1, 434160, Note_on_c, 0, 37, 55
1, 434160, Note_on_c, 0, 42, 65
1, 434400, Control_c, 0, 64, 127
1, 434640, Note_on_c, 0, 42, 0
1, 434640, Note_on_c, 0, 54, 0
1, 434640, Note_on_c, 0, 30, 0
1, 434640, Note_on_c, 0, 58, 0
1, 434640, Note_on_c, 0, 61, 0
1, 434640, Note_on_c, 0, 66, 0
1, 434640, Note_on_c, 0, 34, 0
1, 434640, Note_on_c, 0, 37, 0
1, 434640, Note_on_c, 0, 58, 68
1, 434640, Note_on_c, 0, 61, 68
1, 434640, Note_on_c, 0, 65, 80
1, 434640, Note_on_c, 0, 53, 68
1, 434640, Note_on_c, 0, 29, 51
1, 434640, Note_on_c, 0, 34, 51
1, 434640, Note_on_c, 0, 37, 51
1, 434640, Note_on_c, 0, 41, 60
1, 434658, Control_c, 0, 64, 0
1, 434854, Control_c, 0, 64, 127
1, 435120, Note_on_c, 0, 41, 0
1, 435120, Note_on_c, 0, 58, 0
1, 435120, Note_on_c, 0, 29, 0
1, 435120, Note_on_c, 0, 61, 0
1, 435120, Note_on_c, 0, 65, 0
1, 435120, Note_on_c, 0, 53, 0
1, 435120, Note_on_c, 0, 34, 0
1, 435120, Note_on_c, 0, 37, 0
1, 435120, Note_on_c, 0, 51, 72
1, 435120, Note_on_c, 0, 54, 72
1, 435120, Note_on_c, 0, 58, 72
1, 435120, Note_on_c, 0, 63, 85
1, 435120, Note_on_c, 0, 27, 55
1, 435120, Note_on_c, 0, 30, 55
1, 435120, Note_on_c, 0, 34, 55
1, 435120, Note_on_c, 0, 39, 65
1, 435130, Control_c, 0, 64, 0
1, 435360, Control_c, 0, 64, 127
1, 435600, Tempo, 389610
1, 435600, Note_on_c, 0, 39, 0
1, 435600, Note_on_c, 0, 51, 0
1, 435600, Note_on_c, 0, 27, 0
1, 435600, Note_on_c, 0, 54, 0
1, 435600, Note_on_c, 0, 58, 0
1, 435600, Note_on_c, 0, 63, 0
1, 435600, Note_on_c, 0, 30, 0
1, 435600, Note_on_c, 0, 34, 0
1, 435600, Note_on_c, 0, 54, 68
1, 435600, Note_on_c, 0, 58, 68
1, 435600, Note_on_c, 0, 61, 80
1, 435600, Note_on_c, 0, 49, 68
1, 435600, Note_on_c, 0, 25, 51
1, 435600, Note_on_c, 0, 30, 51
1, 435600, Note_on_c, 0, 34, 51
1, 435600, Note_on_c, 0, 37, 51
1, 435615, Control_c, 0, 64, 0
1, 435786, Control_c, 0, 64, 127
1, 436080, Tempo, 368098
1, 436080, Note_on_c, 0, 37, 0
1, 436080, Note_on_c, 0, 54, 0
1, 436080, Note_on_c, 0, 25, 0
1, 436080, Note_on_c, 0, 58, 0
1, 436080, Note_on_c, 0, 61, 0
1, 436080, Note_on_c, 0, 49, 0
1, 436080, Note_on_c, 0, 30, 0
1, 436080, Note_on_c, 0, 34, 0
1, 436080, Note_on_c, 0, 54, 73
1, 436080, Note_on_c, 0, 58, 73
1, 436080, Note_on_c, 0, 61, 73
1, 436080, Note_on_c, 0, 66, 86
1, 436080, Note_on_c, 0, 30, 55
1, 436080, Note_on_c, 0, 34, 55
1, 436080, Note_on_c, 0, 37, 55
1, 436080, Note_on_c, 0, 42, 65
1, 436089, Control_c, 0, 64, 0
1, 436193, Control_c, 0, 64, 127
1, 436296, Note_on_c, 0, 42, 0
1, 436296, Note_on_c, 0, 54, 0
1, 436296, Note_on_c, 0, 30, 0
1, 436296, Note_on_c, 0, 58, 0
1, 436296, Note_on_c, 0, 61, 0
1, 436296, Note_on_c, 0, 66, 0
1, 436296, Note_on_c, 0, 34, 0
1, 436296, Note_on_c, 0, 37, 0
1, 436320, Note_on_c, 0, 54, 68
1, 436320, Note_on_c, 0, 58, 68
1, 436320, Note_on_c, 0, 61, 68
1, 436320, Note_on_c, 0, 66, 80
1, 436320, Note_on_c, 0, 30, 51
1, 436320, Note_on_c, 0, 34, 51
1, 436320, Note_on_c, 0, 37, 51
1, 436320, Note_on_c, 0, 42, 60
1, 436536, Note_on_c, 0, 42, 0
1, 436536, Note_on_c, 0, 54, 0
1, 436536, Note_on_c, 0, 30, 0
1, 436536, Note_on_c, 0, 58, 0
1, 436536, Note_on_c, 0, 61, 0
1, 436536, Note_on_c, 0, 66, 0
1, 436536, Note_on_c, 0, 34, 0
1, 436536, Note_on_c, 0, 37, 0
1, 436560, Tempo, 382166
1, 436560, Note_on_c, 0, 56, 73
1, 436560, Note_on_c, 0, 61, 73
1, 436560, Note_on_c, 0, 68, 86
1, 436560, Note_on_c, 0, 32, 55
1, 436560, Note_on_c, 0, 37, 55
1, 436560, Note_on_c, 0, 44, 65
1, 436577, Control_c, 0, 64, 0
1, 436716, Control_c, 0, 64, 127
1, 437040, Tempo, 375000
1, 437040, Note_on_c, 0, 44, 0
1, 437040, Note_on_c, 0, 61, 0
1, 437040, Note_on_c, 0, 68, 0
1, 437040, Note_on_c, 0, 56, 0
1, 437040, Note_on_c, 0, 37, 0
1, 437040, Note_on_c, 0, 32, 0
1, 437040, Note_on_c, 0, 58, 75
1, 437040, Note_on_c, 0, 61, 75
1, 437040, Note_on_c, 0, 66, 75
1, 437040, Note_on_c, 0, 70, 89
1, 437040, Note_on_c, 0, 34, 57
1, 437040, Note_on_c, 0, 37, 57
1, 437040, Note_on_c, 0, 42, 57
1, 437040, Note_on_c, 0, 46, 68
1, 437050, Control_c, 0, 64, 0
1, 437254, Control_c, 0, 64, 127
1, 437494, Control_c, 0, 64, 0
1, 437520, Tempo, 377358
1, 437520, Note_on_c, 0, 46, 0
1, 437520, Note_on_c, 0, 58, 0
1, 437520, Note_on_c, 0, 34, 0
1, 437520, Note_on_c, 0, 61, 0
1, 437520, Note_on_c, 0, 66, 0
1, 437520, Note_on_c, 0, 70, 0
1, 437520, Note_on_c, 0, 37, 0
1, 437520, Note_on_c, 0, 42, 0
1, 438000, Tempo, 365854
1, 438000, Note_on_c, 0, 54, 73
1, 438000, Note_on_c, 0, 58, 73
1, 438000, Note_on_c, 0, 61, 73
1, 438000, Note_on_c, 0, 66, 87
1, 438000, Note_on_c, 0, 30, 55
1, 438000, Note_on_c, 0, 34, 55
1, 438000, Note_on_c, 0, 37, 55
1, 438000, Note_on_c, 0, 42, 65
1, 438240, Control_c, 0, 64, 127
1, 438480, Note_on_c, 0, 42, 0
1, 438480, Note_on_c, 0, 54, 0
1, 438480, Note_on_c, 0, 30, 0
1, 438480, Note_on_c, 0, 58, 0
1, 438480, Note_on_c, 0, 61, 0
1, 438480, Note_on_c, 0, 66, 0
1, 438480, Note_on_c, 0, 34, 0
1, 438480, Note_on_c, 0, 37, 0
1, 438480, Note_on_c, 0, 58, 68
1, 438480, Note_on_c, 0, 61, 68
1, 438480, Note_on_c, 0, 65, 80
1, 438480, Note_on_c, 0, 53, 68
1, 438480, Note_on_c, 0, 29, 51
1, 438480, Note_on_c, 0, 34, 51
1, 438480, Note_on_c, 0, 37, 51
1, 438480, Note_on_c, 0, 41, 60
1, 438498, Control_c, 0, 64, 0
1, 438694, Control_c, 0, 64, 127
1, 438960, Tempo, 359281
1, 438960, Note_on_c, 0, 41, 0
1, 438960, Note_on_c, 0, 58, 0
1, 438960, Note_on_c, 0, 29, 0
1, 438960, Note_on_c, 0, 61, 0
1, 438960, Note_on_c, 0, 65, 0
1, 438960, Note_on_c, 0, 53, 0
1, 438960, Note_on_c, 0, 34, 0
1, 438960, Note_on_c, 0, 37, 0
1, 438960, Note_on_c, 0, 51, 72
1, 438960, Note_on_c, 0, 54, 72
1, 438960, Note_on_c, 0, 58, 72
1, 438960, Note_on_c, 0, 63, 85
1, 438960, Note_on_c, 0, 27, 55
1, 438960, Note_on_c, 0, 30, 55
1, 438960, Note_on_c, 0, 34, 55
1, 438960, Note_on_c, 0, 39, 65
1, 438970, Control_c, 0, 64, 0
1, 439200, Control_c, 0, 64, 127
1, 439440, Tempo, 384615
1, 439440, Note_on_c, 0, 39, 0
1, 439440, Note_on_c, 0, 51, 0
1, 439440, Note_on_c, 0, 27, 0
1, 439440, Note_on_c, 0, 54, 0
1, 439440, Note_on_c, 0, 58, 0
1, 439440, Note_on_c, 0, 63, 0
1, 439440, Note_on_c, 0, 30, 0
1, 439440, Note_on_c, 0, 34, 0
1, 439440, Note_on_c, 0, 54, 68
1, 439440, Note_on_c, 0, 58, 68
1, 439440, Note_on_c, 0, 61, 80
1, 439440, Note_on_c, 0, 49, 68
1, 439440, Note_on_c, 0, 25, 51
1, 439440, Note_on_c, 0, 30, 51
1, 439440, Note_on_c, 0, 34, 51
1, 439440, Note_on_c, 0, 37, 51
1, 439455, Control_c, 0, 64, 0
1, 439626, Control_c, 0, 64, 127
1, 439920, Tempo, 357143
1, 439920, Note_on_c, 0, 37, 0
1, 439920, Note_on_c, 0, 54, 0
1, 439920, Note_on_c, 0, 25, 0
1, 439920, Note_on_c, 0, 58, 0
1, 439920, Note_on_c, 0, 61, 0
1, 439920, Note_on_c, 0, 49, 0
1, 439920, Note_on_c, 0, 30, 0
1, 439920, Note_on_c, 0, 34, 0
1, 439920, Note_on_c, 0, 54, 73
1, 439920, Note_on_c, 0, 58, 73
1, 439920, Note_on_c, 0, 61, 73
1, 439920, Note_on_c, 0, 66, 86
1, 439920, Note_on_c, 0, 30, 55
1, 439920, Note_on_c, 0, 34, 55
1, 439920, Note_on_c, 0, 37, 55
1, 439920, Note_on_c, 0, 42, 65
1, 439929, Control_c, 0, 64, 0
1, 440033, Control_c, 0, 64, 127
1, 440136, Note_on_c, 0, 42, 0
1, 440136, Note_on_c, 0, 54, 0
1, 440136, Note_on_c, 0, 30, 0
1, 440136, Note_on_c, 0, 58, 0
1, 440136, Note_on_c, 0, 61, 0
1, 440136, Note_on_c, 0, 66, 0
1, 440136, Note_on_c, 0, 34, 0
1, 440136, Note_on_c, 0, 37, 0
1, 440160, Note_on_c, 0, 54, 68
1, 440160, Note_on_c, 0, 58, 68
1, 440160, Note_on_c, 0, 61, 68
1, 440160, Note_on_c, 0, 66, 80
1, 440160, Note_on_c, 0, 30, 51
1, 440160, Note_on_c, 0, 34, 51
1, 440160, Note_on_c, 0, 37, 51
1, 440160, Note_on_c, 0, 42, 60
1, 440376, Note_on_c, 0, 42, 0
1, 440376, Note_on_c, 0, 54, 0
1, 440376, Note_on_c, 0, 30, 0
1, 440376, Note_on_c, 0, 58, 0
1, 440376, Note_on_c, 0, 61, 0
1, 440376, Note_on_c, 0, 66, 0
1, 440376, Note_on_c, 0, 34, 0
1, 440376, Note_on_c, 0, 37, 0
1, 440400, Tempo, 382166
1, 440400, Note_on_c, 0, 56, 73
1, 440400, Note_on_c, 0, 61, 73
1, 440400, Note_on_c, 0, 68, 86
1, 440400, Note_on_c, 0, 32, 55
1, 440400, Note_on_c, 0, 37, 55
1, 440400, Note_on_c, 0, 44, 65
1, 440420, Control_c, 0, 64, 0
1, 440556, Control_c, 0, 64, 127
1, 440880, Tempo, 375000
1, 440880, Note_on_c, 0, 44, 0
1, 440880, Note_on_c, 0, 61, 0
1, 440880, Note_on_c, 0, 68, 0
1, 440880, Note_on_c, 0, 56, 0
1, 440880, Note_on_c, 0, 37, 0
1, 440880, Note_on_c, 0, 32, 0
1, 440880, Note_on_c, 0, 58, 75
1, 440880, Note_on_c, 0, 61, 75
1, 440880, Note_on_c, 0, 66, 75
1, 440880, Note_on_c, 0, 70, 89
1, 440880, Note_on_c, 0, 34, 57
1, 440880, Note_on_c, 0, 37, 57
1, 440880, Note_on_c, 0, 42, 57
1, 440880, Note_on_c, 0, 46, 68
1, 440890, Control_c, 0, 64, 0
1, 441094, Control_c, 0, 64, 127
1, 441334, Control_c, 0, 64, 0
1, 441360, Note_on_c, 0, 46, 0
1, 441360, Note_on_c, 0, 58, 0
1, 441360, Note_on_c, 0, 34, 0
1, 441360, Note_on_c, 0, 61, 0
1, 441360, Note_on_c, 0, 66, 0
1, 441360, Note_on_c, 0, 70, 0
1, 441360, Note_on_c, 0, 37, 0
1, 441360, Note_on_c, 0, 42, 0
1, 441840, Tempo, 370370
1, 441840, Note_on_c, 0, 61, 77
1, 441840, Note_on_c, 0, 66, 77
1, 441840, Note_on_c, 0, 70, 77
1, 441840, Note_on_c, 0, 73, 91
1, 441840, Note_on_c, 0, 42, 62
1, 441840, Note_on_c, 0, 46, 62
1, 441840, Note_on_c, 0, 49, 62
1, 441840, Note_on_c, 0, 54, 73
1, 441840, Control_c, 0, 64, 127
1, 442320, Tempo, 379747
1, 442560, Note_on_c, 0, 54, 0
1, 442560, Note_on_c, 0, 61, 0
1, 442560, Note_on_c, 0, 42, 0
1, 442560, Note_on_c, 0, 66, 0
1, 442560, Note_on_c, 0, 70, 0
1, 442560, Note_on_c, 0, 73, 0
1, 442560, Note_on_c, 0, 46, 0
1, 442560, Note_on_c, 0, 49, 0
1, 442560, Note_on_c, 0, 61, 72
1, 442560, Note_on_c, 0, 66, 72
1, 442560, Note_on_c, 0, 70, 72
1, 442560, Note_on_c, 0, 73, 85
1, 442560, Note_on_c, 0, 42, 57
1, 442560, Note_on_c, 0, 46, 57
1, 442560, Note_on_c, 0, 49, 57
1, 442560, Note_on_c, 0, 54, 68
1, 442800, Tempo, 375000
1, 442800, Note_on_c, 0, 54, 0
1, 442800, Note_on_c, 0, 61, 0
1, 442800, Note_on_c, 0, 42, 0
1, 442800, Note_on_c, 0, 66, 0
1, 442800, Note_on_c, 0, 70, 0
1, 442800, Note_on_c, 0, 73, 0
1, 442800, Note_on_c, 0, 46, 0
1, 442800, Note_on_c, 0, 49, 0
1, 442800, Note_on_c, 0, 63, 78
1, 442800, Note_on_c, 0, 66, 78
1, 442800, Note_on_c, 0, 71, 78
1, 442800, Note_on_c, 0, 75, 92
1, 442800, Note_on_c, 0, 47, 62
1, 442800, Note_on_c, 0, 51, 62
1, 442800, Note_on_c, 0, 54, 62
1, 442800, Note_on_c, 0, 59, 73
1, 442809, Control_c, 0, 64, 0
1, 443067, Control_c, 0, 64, 127
1, 443280, Tempo, 382166
1, 443280, Note_on_c, 0, 59, 0
1, 443280, Note_on_c, 0, 63, 0
1, 443280, Note_on_c, 0, 47, 0
1, 443280, Note_on_c, 0, 66, 0
1, 443280, Note_on_c, 0, 71, 0
1, 443280, Note_on_c, 0, 75, 0
1, 443280, Note_on_c, 0, 51, 0
1, 443280, Note_on_c, 0, 54, 0
1, 443280, Note_on_c, 0, 61, 73
1, 443280, Note_on_c, 0, 66, 73
1, 443280, Note_on_c, 0, 70, 73
1, 443280, Note_on_c, 0, 73, 86
1, 443280, Note_on_c, 0, 42, 59
1, 443280, Note_on_c, 0, 46, 59
1, 443280, Note_on_c, 0, 49, 59
1, 443280, Note_on_c, 0, 54, 70
1, 443301, Control_c, 0, 64, 0
1, 443547, Control_c, 0, 64, 127
1, 443760, Tempo, 372671
1, 443760, Note_on_c, 0, 54, 0
1, 443760, Note_on_c, 0, 61, 0
1, 443760, Note_on_c, 0, 42, 0
1, 443760, Note_on_c, 0, 66, 0
1, 443760, Note_on_c, 0, 70, 0
1, 443760, Note_on_c, 0, 73, 0
1, 443760, Note_on_c, 0, 46, 0
1, 443760, Note_on_c, 0, 49, 0
1, 443760, Note_on_c, 0, 58, 79
1, 443760, Note_on_c, 0, 70, 93
1, 443760, Note_on_c, 0, 34, 62
1, 443760, Note_on_c, 0, 46, 74
1, 443768, Control_c, 0, 64, 0
1, 443908, Control_c, 0, 64, 127
1, 444480, Note_on_c, 0, 46, 0
1, 444480, Note_on_c, 0, 58, 0
1, 444480, Note_on_c, 0, 70, 0
1, 444480, Note_on_c, 0, 34, 0
1, 444480, Note_on_c, 0, 58, 73
1, 444480, Note_on_c, 0, 68, 87
1, 444480, Note_on_c, 0, 38, 56
1, 444480, Note_on_c, 0, 46, 67
1, 444720, Tempo, 363636
1, 444720, Note_on_c, 0, 46, 0
1, 444720, Note_on_c, 0, 58, 0
1, 444720, Note_on_c, 0, 68, 0
1, 444720, Note_on_c, 0, 38, 0
1, 444720, Note_on_c, 0, 58, 77
1, 444720, Note_on_c, 0, 66, 91
1, 444720, Note_on_c, 0, 39, 61
1, 444720, Note_on_c, 0, 46, 72
1, 444720, Control_c, 0, 64, 0
1, 444840, Note_on_c, 0, 46, 0
1, 444840, Note_on_c, 0, 58, 0
1, 444840, Note_on_c, 0, 66, 0
1, 444840, Note_on_c, 0, 39, 0
1, 444960, Note_on_c, 0, 58, 72
1, 444960, Note_on_c, 0, 65, 85
1, 444960, Note_on_c, 0, 41, 58
1, 444960, Note_on_c, 0, 46, 69
1, 445080, Note_on_c, 0, 46, 0
1, 445080, Note_on_c, 0, 58, 0
1, 445080, Note_on_c, 0, 65, 0
1, 445080, Note_on_c, 0, 41, 0
1, 445200, Tempo, 375000
1, 445200, Note_on_c, 0, 58, 71
1, 445200, Note_on_c, 0, 63, 84
1, 445200, Note_on_c, 0, 42, 58
1, 445200, Note_on_c, 0, 46, 69
1, 445440, Note_on_c, 0, 46, 0
1, 445440, Note_on_c, 0, 58, 0
1, 445440, Note_on_c, 0, 63, 0
1, 445440, Note_on_c, 0, 42, 0
1, 445680, Tempo, 349834
1, 445680, Note_on_c, 0, 66, 66
1, 445680, Note_on_c, 0, 70, 78
1, 445680, Note_on_c, 0, 54, 66
1, 445680, Note_on_c, 0, 58, 78
1, 445723, Control_c, 0, 64, 127
1, 445776, Note_on_c, 0, 70, 0
1, 445776, Note_on_c, 0, 71, 73
1, 445872, Note_on_c, 0, 71, 0
1, 445872, Note_on_c, 0, 70, 73
1, 445968, Note_on_c, 0, 70, 0
1, 445968, Note_on_c, 0, 69, 73
1, 446064, Note_on_c, 0, 69, 0
1, 446064, Note_on_c, 0, 70, 73
1, 446160, Tempo, 360339
1, 446160, Note_on_c, 0, 70, 0
1, 446160, Note_on_c, 0, 66, 0
1, 446160, Note_on_c, 0, 54, 0
1, 446160, Note_on_c, 0, 58, 0
1, 446160, Note_on_c, 0, 68, 62
1, 446160, Note_on_c, 0, 71, 73
1, 446160, Note_on_c, 0, 56, 58
1, 446160, Note_on_c, 0, 59, 69
1, 446175, Control_c, 0, 64, 0
1, 446280, Note_on_c, 0, 59, 0
1, 446280, Note_on_c, 0, 68, 0
1, 446280, Note_on_c, 0, 71, 0
1, 446280, Note_on_c, 0, 56, 0
1, 446400, Tempo, 402685
1, 446400, Note_on_c, 0, 66, 59
1, 446400, Note_on_c, 0, 70, 70
1, 446400, Note_on_c, 0, 54, 58
1, 446400, Note_on_c, 0, 58, 69
1, 446520, Note_on_c, 0, 58, 0
1, 446520, Note_on_c, 0, 66, 0
1, 446520, Note_on_c, 0, 70, 0
1, 446520, Note_on_c, 0, 54, 0
1, 446640, Tempo, 372671
1, 446640, Note_on_c, 0, 65, 68
1, 446640, Note_on_c, 0, 68, 80
1, 446640, Note_on_c, 0, 53, 62
1, 446640, Note_on_c, 0, 56, 74
1, 446760, Note_on_c, 0, 56, 0
1, 446760, Note_on_c, 0, 65, 0
1, 446760, Note_on_c, 0, 68, 0
1, 446760, Note_on_c, 0, 53, 0
1, 446880, Note_on_c, 0, 63, 62
1, 446880, Note_on_c, 0, 66, 73
1, 446880, Note_on_c, 0, 51, 58
1, 446880, Note_on_c, 0, 54, 69
1, 447000, Note_on_c, 0, 54, 0
1, 447000, Note_on_c, 0, 63, 0
1, 447000, Note_on_c, 0, 66, 0
1, 447000, Note_on_c, 0, 51, 0
1, 447120, Tempo, 387097
1, 447120, Note_on_c, 0, 58, 62
1, 447120, Note_on_c, 0, 65, 73
1, 447120, Note_on_c, 0, 46, 58
1, 447120, Note_on_c, 0, 53, 69
1, 447360, Note_on_c, 0, 53, 0
1, 447360, Note_on_c, 0, 58, 0
1, 447360, Note_on_c, 0, 65, 0
1, 447360, Note_on_c, 0, 46, 0
1, 447600, Tempo, 372671
1, 447600, Note_on_c, 0, 54, 75
1, 447600, Note_on_c, 0, 58, 75
1, 447600, Note_on_c, 0, 63, 89
1, 447600, Note_on_c, 0, 39, 64
1, 447600, Note_on_c, 0, 46, 64
1, 447600, Note_on_c, 0, 51, 76
1, 447643, Control_c, 0, 64, 127
1, 447840, Note_on_c, 0, 51, 0
1, 447840, Note_on_c, 0, 58, 0
1, 447840, Note_on_c, 0, 63, 0
1, 447840, Note_on_c, 0, 54, 0
1, 447840, Note_on_c, 0, 46, 0
1, 447840, Note_on_c, 0, 39, 0
1, 447897, Control_c, 0, 64, 0
1, 448560, Tempo, 370370
1, 448560, Note_on_c, 0, 73, 77
1, 448560, Note_on_c, 0, 78, 77
1, 448560, Note_on_c, 0, 82, 77
1, 448560, Note_on_c, 0, 85, 91
1, 448560, Note_on_c, 0, 42, 62
1, 448560, Note_on_c, 0, 46, 62
1, 448560, Note_on_c, 0, 49, 62
1, 448560, Note_on_c, 0, 54, 73
1, 448673, Control_c, 0, 64, 127
1, 449040, Tempo, 379747
1, 449280, Note_on_c, 0, 54, 0
1, 449280, Note_on_c, 0, 73, 0
1, 449280, Note_on_c, 0, 42, 0
1, 449280, Note_on_c, 0, 78, 0
1, 449280, Note_on_c, 0, 82, 0
1, 449280, Note_on_c, 0, 85, 0
1, 449280, Note_on_c, 0, 46, 0
1, 449280, Note_on_c, 0, 49, 0
1, 449280, Note_on_c, 0, 73, 72
1, 449280, Note_on_c, 0, 78, 72
1, 449280, Note_on_c, 0, 82, 72
1, 449280, Note_on_c, 0, 85, 85
1, 449280, Note_on_c, 0, 42, 57
1, 449280, Note_on_c, 0, 46, 57
1, 449280, Note_on_c, 0, 49, 57
1, 449280, Note_on_c, 0, 54, 68
1, 449520, Tempo, 375000
1, 449520, Note_on_c, 0, 54, 0
1, 449520, Note_on_c, 0, 73, 0
1, 449520, Note_on_c, 0, 42, 0
1, 449520, Note_on_c, 0, 78, 0
1, 449520, Note_on_c, 0, 82, 0
1, 449520, Note_on_c, 0, 85, 0
1, 449520, Note_on_c, 0, 46, 0
1, 449520, Note_on_c, 0, 49, 0
1, 449520, Note_on_c, 0, 75, 78
1, 449520, Note_on_c, 0, 78, 78
1, 449520, Note_on_c, 0, 83, 78
1, 449520, Note_on_c, 0, 87, 92
1, 449520, Note_on_c, 0, 47, 62
1, 449520, Note_on_c, 0, 51, 62
1, 449520, Note_on_c, 0, 54, 62
1, 449520, Note_on_c, 0, 59, 73
1, 449529, Control_c, 0, 64, 0
1, 449787, Control_c, 0, 64, 127
1, 450000, Tempo, 382166
1, 450000, Note_on_c, 0, 59, 0
1, 450000, Note_on_c, 0, 75, 0
1, 450000, Note_on_c, 0, 47, 0
1, 450000, Note_on_c, 0, 78, 0
1, 450000, Note_on_c, 0, 83, 0
1, 450000, Note_on_c, 0, 87, 0
1, 450000, Note_on_c, 0, 51, 0
1, 450000, Note_on_c, 0, 54, 0
1, 450000, Note_on_c, 0, 73, 73
1, 450000, Note_on_c, 0, 78, 73
1, 450000, Note_on_c, 0, 82, 73
1, 450000, Note_on_c, 0, 85, 86
1, 450000, Note_on_c, 0, 42, 59
1, 450000, Note_on_c, 0, 46, 59
1, 450000, Note_on_c, 0, 49, 59
1, 450000, Note_on_c, 0, 54, 70
1, 450021, Control_c, 0, 64, 0
1, 450267, Control_c, 0, 64, 127
1, 450480, Tempo, 372671
1, 450480, Note_on_c, 0, 54, 0
1, 450480, Note_on_c, 0, 73, 0
1, 450480, Note_on_c, 0, 42, 0
1, 450480, Note_on_c, 0, 78, 0
1, 450480, Note_on_c, 0, 82, 0
1, 450480, Note_on_c, 0, 85, 0
1, 450480, Note_on_c, 0, 46, 0
1, 450480, Note_on_c, 0, 49, 0
1, 450480, Note_on_c, 0, 70, 79
1, 450480, Note_on_c, 0, 82, 93
1, 450480, Note_on_c, 0, 34, 62
1, 450480, Note_on_c, 0, 46, 74
1, 450488, Control_c, 0, 64, 0
1, 450640, Control_c, 0, 64, 127
1, 451200, Note_on_c, 0, 46, 0
1, 451200, Note_on_c, 0, 70, 0
1, 451200, Note_on_c, 0, 82, 0
1, 451200, Note_on_c, 0, 34, 0
1, 451200, Note_on_c, 0, 68, 73
1, 451200, Note_on_c, 0, 80, 87
1, 451200, Note_on_c, 0, 46, 56
1, 451200, Note_on_c, 0, 38, 56
1, 451200, Note_on_c, 0, 50, 67
1, 451440, Tempo, 363636
1, 451440, Note_on_c, 0, 50, 0
1, 451440, Note_on_c, 0, 46, 0
1, 451440, Note_on_c, 0, 68, 0
1, 451440, Note_on_c, 0, 80, 0
1, 451440, Note_on_c, 0, 38, 0
1, 451440, Note_on_c, 0, 66, 77
1, 451440, Note_on_c, 0, 78, 91
1, 451440, Note_on_c, 0, 46, 61
1, 451440, Note_on_c, 0, 39, 61
1, 451440, Note_on_c, 0, 51, 72
1, 451440, Control_c, 0, 64, 0
1, 451560, Note_on_c, 0, 51, 0
1, 451560, Note_on_c, 0, 46, 0
1, 451560, Note_on_c, 0, 66, 0
1, 451560, Note_on_c, 0, 78, 0
1, 451560, Note_on_c, 0, 39, 0
1, 451680, Note_on_c, 0, 65, 72
1, 451680, Note_on_c, 0, 77, 85
1, 451680, Note_on_c, 0, 46, 58
1, 451680, Note_on_c, 0, 41, 58
1, 451680, Note_on_c, 0, 53, 69
1, 451800, Note_on_c, 0, 53, 0
1, 451800, Note_on_c, 0, 46, 0
1, 451800, Note_on_c, 0, 65, 0
1, 451800, Note_on_c, 0, 77, 0
1, 451800, Note_on_c, 0, 41, 0
1, 451920, Tempo, 375000
1, 451920, Note_on_c, 0, 63, 71
1, 451920, Note_on_c, 0, 75, 84
1, 451920, Note_on_c, 0, 46, 58
1, 451920, Note_on_c, 0, 42, 58
1, 451920, Note_on_c, 0, 54, 69
1, 452160, Note_on_c, 0, 54, 0
1, 452160, Note_on_c, 0, 46, 0
1, 452160, Note_on_c, 0, 63, 0
1, 452160, Note_on_c, 0, 75, 0
1, 452160, Note_on_c, 0, 42, 0
1, 452400, Tempo, 346821
1, 452400, Note_on_c, 0, 78, 66
1, 452400, Note_on_c, 0, 82, 78
1, 452400, Note_on_c, 0, 58, 66
1, 452400, Note_on_c, 0, 54, 66
1, 452400, Note_on_c, 0, 66, 78
1, 452435, Control_c, 0, 64, 127
1, 452496, Note_on_c, 0, 82, 0
1, 452496, Note_on_c, 0, 83, 73
1, 452592, Note_on_c, 0, 83, 0
1, 452592, Note_on_c, 0, 82, 73
1, 452688, Note_on_c, 0, 82, 0
1, 452688, Note_on_c, 0, 81, 73
1, 452784, Note_on_c, 0, 81, 0
1, 452784, Note_on_c, 0, 82, 73
1, 452880, Tempo, 361446
1, 452880, Note_on_c, 0, 82, 0
1, 452880, Note_on_c, 0, 54, 0
1, 452880, Note_on_c, 0, 78, 0
1, 452880, Note_on_c, 0, 58, 0
1, 452880, Note_on_c, 0, 66, 0
1, 452880, Note_on_c, 0, 71, 62
1, 452880, Note_on_c, 0, 83, 73
1, 452880, Note_on_c, 0, 56, 58
1, 452880, Note_on_c, 0, 68, 69
1, 452895, Control_c, 0, 64, 0
1, 453000, Note_on_c, 0, 68, 0
1, 453000, Note_on_c, 0, 71, 0
1, 453000, Note_on_c, 0, 83, 0
1, 453000, Note_on_c, 0, 56, 0
1, 453120, Tempo, 402685
1, 453120, Note_on_c, 0, 70, 59
1, 453120, Note_on_c, 0, 82, 70
1, 453120, Note_on_c, 0, 54, 58
1, 453120, Note_on_c, 0, 66, 69
1, 453240, Note_on_c, 0, 66, 0
1, 453240, Note_on_c, 0, 70, 0
1, 453240, Note_on_c, 0, 82, 0
1, 453240, Note_on_c, 0, 54, 0
1, 453360, Tempo, 359281
1, 453360, Note_on_c, 0, 68, 68
1, 453360, Note_on_c, 0, 80, 80
1, 453360, Note_on_c, 0, 53, 62
1, 453360, Note_on_c, 0, 65, 74
1, 453480, Note_on_c, 0, 65, 0
1, 453480, Note_on_c, 0, 68, 0
1, 453480, Note_on_c, 0, 80, 0
1, 453480, Note_on_c, 0, 53, 0
1, 453600, Note_on_c, 0, 66, 62
1, 453600, Note_on_c, 0, 78, 73
1, 453600, Note_on_c, 0, 51, 58
1, 453600, Note_on_c, 0, 63, 69
1, 453720, Note_on_c, 0, 63, 0
1, 453720, Note_on_c, 0, 66, 0
1, 453720, Note_on_c, 0, 78, 0
1, 453720, Note_on_c, 0, 51, 0
1, 453840, Tempo, 387097
1, 453840, Note_on_c, 0, 65, 62
1, 453840, Note_on_c, 0, 77, 73
1, 453840, Note_on_c, 0, 46, 58
1, 453840, Note_on_c, 0, 58, 69
1, 454080, Note_on_c, 0, 58, 0
1, 454080, Note_on_c, 0, 65, 0
1, 454080, Note_on_c, 0, 77, 0
1, 454080, Note_on_c, 0, 46, 0
1, 454320, Tempo, 370370
1, 454320, Note_on_c, 0, 63, 75
1, 454320, Note_on_c, 0, 70, 75
1, 454320, Note_on_c, 0, 75, 89
1, 454320, Note_on_c, 0, 51, 64
1, 454320, Note_on_c, 0, 54, 64
1, 454320, Note_on_c, 0, 58, 76
1, 454405, Control_c, 0, 64, 127
1, 454560, Note_on_c, 0, 58, 0
1, 454560, Note_on_c, 0, 70, 0
1, 454560, Note_on_c, 0, 75, 0
1, 454560, Note_on_c, 0, 63, 0
1, 454560, Note_on_c, 0, 54, 0
1, 454560, Note_on_c, 0, 51, 0
1, 454617, Control_c, 0, 64, 0
1, 455280, Tempo, 352941
1, 455280, Note_on_c, 0, 54, 65
1, 455280, Note_on_c, 0, 58, 65
1, 455280, Note_on_c, 0, 61, 65
1, 455280, Note_on_c, 0, 66, 78
1, 455280, Note_on_c, 0, 30, 66
1, 455280, Note_on_c, 0, 34, 66
1, 455280, Note_on_c, 0, 37, 66
1, 455280, Note_on_c, 0, 42, 78
1, 455280, Control_c, 0, 64, 127
1, 455460, Note_on_c, 0, 66, 0
1, 455460, Note_on_c, 0, 61, 0
1, 455460, Note_on_c, 0, 54, 0
1, 455460, Note_on_c, 0, 58, 0
1, 455520, Note_on_c, 0, 54, 55
1, 455520, Note_on_c, 0, 58, 55
1, 455520, Note_on_c, 0, 61, 55
1, 455520, Note_on_c, 0, 66, 65
1, 455700, Note_on_c, 0, 66, 0
1, 455700, Note_on_c, 0, 61, 0
1, 455700, Note_on_c, 0, 54, 0
1, 455700, Note_on_c, 0, 58, 0
1, 455760, Tempo, 363636
1, 455760, Note_on_c, 0, 37, 0
1, 455760, Note_on_c, 0, 30, 0
1, 455760, Note_on_c, 0, 34, 0
1, 455760, Note_on_c, 0, 42, 0
1, 455760, Note_on_c, 0, 29, 61
1, 455760, Note_on_c, 0, 34, 61
1, 455760, Note_on_c, 0, 37, 61
1, 455760, Note_on_c, 0, 41, 72
1, 455778, Control_c, 0, 64, 0
1, 455887, Control_c, 0, 64, 127
1, 456000, Note_on_c, 0, 58, 54
1, 456000, Note_on_c, 0, 61, 54
1, 456000, Note_on_c, 0, 65, 64
1, 456000, Note_on_c, 0, 53, 54
1, 456180, Note_on_c, 0, 53, 0
1, 456180, Note_on_c, 0, 65, 0
1, 456180, Note_on_c, 0, 58, 0
1, 456180, Note_on_c, 0, 61, 0
1, 456240, Note_on_c, 0, 37, 0
1, 456240, Note_on_c, 0, 41, 0
1, 456240, Note_on_c, 0, 34, 0
1, 456240, Note_on_c, 0, 29, 0
1, 456240, Note_on_c, 0, 27, 66
1, 456240, Note_on_c, 0, 30, 66
1, 456240, Note_on_c, 0, 34, 66
1, 456240, Note_on_c, 0, 39, 78
1, 456250, Control_c, 0, 64, 0
1, 456353, Control_c, 0, 64, 127
1, 456480, Note_on_c, 0, 51, 57
1, 456480, Note_on_c, 0, 54, 57
1, 456480, Note_on_c, 0, 58, 57
1, 456480, Note_on_c, 0, 63, 68
1, 456660, Note_on_c, 0, 63, 0
1, 456660, Note_on_c, 0, 58, 0
1, 456660, Note_on_c, 0, 51, 0
1, 456660, Note_on_c, 0, 54, 0
1, 456720, Tempo, 379747
1, 456720, Note_on_c, 0, 34, 0
1, 456720, Note_on_c, 0, 39, 0
1, 456720, Note_on_c, 0, 30, 0
1, 456720, Note_on_c, 0, 27, 0
1, 456720, Note_on_c, 0, 25, 61
1, 456720, Note_on_c, 0, 30, 61
1, 456720, Note_on_c, 0, 34, 61
1, 456720, Note_on_c, 0, 37, 61
1, 456735, Control_c, 0, 64, 0
1, 456876, Control_c, 0, 64, 127
1, 456960, Note_on_c, 0, 54, 54
1, 456960, Note_on_c, 0, 58, 54
1, 456960, Note_on_c, 0, 61, 64
1, 456960, Note_on_c, 0, 49, 54
1, 457140, Note_on_c, 0, 49, 0
1, 457140, Note_on_c, 0, 61, 0
1, 457140, Note_on_c, 0, 54, 0
1, 457140, Note_on_c, 0, 58, 0
1, 457200, Tempo, 361446
1, 457200, Note_on_c, 0, 34, 0
1, 457200, Note_on_c, 0, 37, 0
1, 457200, Note_on_c, 0, 30, 0
1, 457200, Note_on_c, 0, 25, 0
1, 457200, Note_on_c, 0, 30, 66
1, 457200, Note_on_c, 0, 34, 66
1, 457200, Note_on_c, 0, 37, 66
1, 457200, Note_on_c, 0, 42, 78
1, 457209, Control_c, 0, 64, 0
1, 457313, Control_c, 0, 64, 127
1, 457440, Note_on_c, 0, 54, 54
1, 457440, Note_on_c, 0, 58, 54
1, 457440, Note_on_c, 0, 61, 54
1, 457440, Note_on_c, 0, 66, 64
1, 457602, Note_on_c, 0, 66, 0
1, 457602, Note_on_c, 0, 61, 0
1, 457602, Note_on_c, 0, 54, 0
1, 457602, Note_on_c, 0, 58, 0
1, 457680, Tempo, 377358
1, 457680, Note_on_c, 0, 37, 0
1, 457680, Note_on_c, 0, 42, 0
1, 457680, Note_on_c, 0, 34, 0
1, 457680, Note_on_c, 0, 30, 0
1, 457680, Note_on_c, 0, 32, 66
1, 457680, Note_on_c, 0, 37, 66
1, 457680, Note_on_c, 0, 44, 78
1, 457699, Control_c, 0, 64, 0
1, 457836, Control_c, 0, 64, 127
1, 457920, Note_on_c, 0, 56, 58
1, 457920, Note_on_c, 0, 61, 58
1, 457920, Note_on_c, 0, 68, 69
1, 458100, Note_on_c, 0, 68, 0
1, 458100, Note_on_c, 0, 56, 0
1, 458100, Note_on_c, 0, 61, 0
1, 458160, Tempo, 365854
1, 458160, Note_on_c, 0, 32, 0
1, 458160, Note_on_c, 0, 44, 0
1, 458160, Note_on_c, 0, 37, 0
1, 458160, Note_on_c, 0, 34, 68
1, 458160, Note_on_c, 0, 37, 68
1, 458160, Note_on_c, 0, 42, 68
1, 458160, Note_on_c, 0, 46, 81
1, 458170, Control_c, 0, 64, 0
1, 458245, Control_c, 0, 64, 127
1, 458400, Note_on_c, 0, 58, 60
1, 458400, Note_on_c, 0, 61, 60
1, 458400, Note_on_c, 0, 66, 60
1, 458400, Note_on_c, 0, 70, 72
1, 458580, Note_on_c, 0, 70, 0
1, 458580, Note_on_c, 0, 66, 0
1, 458580, Note_on_c, 0, 58, 0
1, 458580, Note_on_c, 0, 61, 0
1, 458614, Control_c, 0, 64, 0
1, 458640, Tempo, 377358
1, 458640, Note_on_c, 0, 42, 0
1, 458640, Note_on_c, 0, 46, 0
1, 458640, Note_on_c, 0, 37, 0
1, 458640, Note_on_c, 0, 34, 0
1, 459120, Tempo, 350877
1, 459120, Note_on_c, 0, 54, 65
1, 459120, Note_on_c, 0, 58, 65
1, 459120, Note_on_c, 0, 61, 65
1, 459120, Note_on_c, 0, 66, 78
1, 459120, Note_on_c, 0, 30, 66
1, 459120, Note_on_c, 0, 34, 66
1, 459120, Note_on_c, 0, 37, 66
1, 459120, Note_on_c, 0, 42, 78
1, 459120, Control_c, 0, 64, 127
1, 459300, Note_on_c, 0, 66, 0
1, 459300, Note_on_c, 0, 61, 0
1, 459300, Note_on_c, 0, 54, 0
1, 459300, Note_on_c, 0, 58, 0
1, 459360, Note_on_c, 0, 54, 55
1, 459360, Note_on_c, 0, 58, 55
1, 459360, Note_on_c, 0, 61, 55
1, 459360, Note_on_c, 0, 66, 65
1, 459540, Note_on_c, 0, 66, 0
1, 459540, Note_on_c, 0, 61, 0
1, 459540, Note_on_c, 0, 54, 0
1, 459540, Note_on_c, 0, 58, 0
1, 459600, Tempo, 361446
1, 459600, Note_on_c, 0, 37, 0
1, 459600, Note_on_c, 0, 30, 0
1, 459600, Note_on_c, 0, 34, 0
1, 459600, Note_on_c, 0, 42, 0
1, 459600, Note_on_c, 0, 29, 61
1, 459600, Note_on_c, 0, 34, 61
1, 459600, Note_on_c, 0, 37, 61
1, 459600, Note_on_c, 0, 41, 72
1, 459618, Control_c, 0, 64, 0
1, 459727, Control_c, 0, 64, 127
1, 459840, Note_on_c, 0, 58, 54
1, 459840, Note_on_c, 0, 61, 54
1, 459840, Note_on_c, 0, 65, 64
1, 459840, Note_on_c, 0, 53, 54
1, 460020, Note_on_c, 0, 53, 0
1, 460020, Note_on_c, 0, 65, 0
1, 460020, Note_on_c, 0, 58, 0
1, 460020, Note_on_c, 0, 61, 0
1, 460080, Note_on_c, 0, 37, 0
1, 460080, Note_on_c, 0, 41, 0
1, 460080, Note_on_c, 0, 34, 0
1, 460080, Note_on_c, 0, 29, 0
1, 460080, Note_on_c, 0, 27, 66
1, 460080, Note_on_c, 0, 30, 66
1, 460080, Note_on_c, 0, 34, 66
1, 460080, Note_on_c, 0, 39, 78
1, 460090, Control_c, 0, 64, 0
1, 460193, Control_c, 0, 64, 127
1, 460320, Note_on_c, 0, 51, 57
1, 460320, Note_on_c, 0, 54, 57
1, 460320, Note_on_c, 0, 58, 57
1, 460320, Note_on_c, 0, 63, 68
1, 460500, Note_on_c, 0, 63, 0
1, 460500, Note_on_c, 0, 58, 0
1, 460500, Note_on_c, 0, 51, 0
1, 460500, Note_on_c, 0, 54, 0
1, 460560, Tempo, 379747
1, 460560, Note_on_c, 0, 34, 0
1, 460560, Note_on_c, 0, 39, 0
1, 460560, Note_on_c, 0, 30, 0
1, 460560, Note_on_c, 0, 27, 0
1, 460560, Note_on_c, 0, 25, 61
1, 460560, Note_on_c, 0, 30, 61
1, 460560, Note_on_c, 0, 34, 61
1, 460560, Note_on_c, 0, 37, 61
1, 460575, Control_c, 0, 64, 0
1, 460716, Control_c, 0, 64, 127
1, 460800, Note_on_c, 0, 54, 54
1, 460800, Note_on_c, 0, 58, 54
1, 460800, Note_on_c, 0, 61, 64
1, 460800, Note_on_c, 0, 49, 54
1, 460980, Note_on_c, 0, 49, 0
1, 460980, Note_on_c, 0, 61, 0
1, 460980, Note_on_c, 0, 54, 0
1, 460980, Note_on_c, 0, 58, 0
1, 461040, Tempo, 361446
1, 461040, Note_on_c, 0, 34, 0
1, 461040, Note_on_c, 0, 37, 0
1, 461040, Note_on_c, 0, 30, 0
1, 461040, Note_on_c, 0, 25, 0
1, 461040, Note_on_c, 0, 30, 66
1, 461040, Note_on_c, 0, 34, 66
1, 461040, Note_on_c, 0, 37, 66
1, 461040, Note_on_c, 0, 42, 78
1, 461049, Control_c, 0, 64, 0
1, 461153, Control_c, 0, 64, 127
1, 461280, Note_on_c, 0, 54, 54
1, 461280, Note_on_c, 0, 58, 54
1, 461280, Note_on_c, 0, 61, 54
1, 461280, Note_on_c, 0, 66, 64
1, 461442, Note_on_c, 0, 66, 0
1, 461442, Note_on_c, 0, 61, 0
1, 461442, Note_on_c, 0, 54, 0
1, 461442, Note_on_c, 0, 58, 0
1, 461520, Tempo, 377358
1, 461520, Note_on_c, 0, 37, 0
1, 461520, Note_on_c, 0, 42, 0
1, 461520, Note_on_c, 0, 34, 0
1, 461520, Note_on_c, 0, 30, 0
1, 461520, Note_on_c, 0, 32, 66
1, 461520, Note_on_c, 0, 37, 66
1, 461520, Note_on_c, 0, 44, 78
1, 461537, Control_c, 0, 64, 0
1, 461676, Control_c, 0, 64, 127
1, 461760, Note_on_c, 0, 56, 58
1, 461760, Note_on_c, 0, 61, 58
1, 461760, Note_on_c, 0, 68, 69
1, 461940, Note_on_c, 0, 68, 0
1, 461940, Note_on_c, 0, 56, 0
1, 461940, Note_on_c, 0, 61, 0
1, 462000, Tempo, 365854
1, 462000, Note_on_c, 0, 32, 0
1, 462000, Note_on_c, 0, 44, 0
1, 462000, Note_on_c, 0, 37, 0
1, 462000, Note_on_c, 0, 34, 68
1, 462000, Note_on_c, 0, 37, 68
1, 462000, Note_on_c, 0, 42, 68
1, 462000, Note_on_c, 0, 46, 81
1, 462010, Control_c, 0, 64, 0
1, 462085, Control_c, 0, 64, 127
1, 462240, Note_on_c, 0, 58, 60
1, 462240, Note_on_c, 0, 61, 60
1, 462240, Note_on_c, 0, 66, 60
1, 462240, Note_on_c, 0, 70, 72
1, 462420, Note_on_c, 0, 70, 0
1, 462420, Note_on_c, 0, 66, 0
1, 462420, Note_on_c, 0, 58, 0
1, 462420, Note_on_c, 0, 61, 0
1, 462454, Control_c, 0, 64, 0
1, 462480, Tempo, 377358
1, 462480, Note_on_c, 0, 42, 0
1, 462480, Note_on_c, 0, 46, 0
1, 462480, Note_on_c, 0, 37, 0
1, 462480, Note_on_c, 0, 34, 0
1, 462960, Tempo, 370370
1, 462960, Note_on_c, 0, 61, 77
1, 462960, Note_on_c, 0, 66, 77
1, 462960, Note_on_c, 0, 70, 77
1, 462960, Note_on_c, 0, 73, 91
1, 462960, Note_on_c, 0, 42, 62
1, 462960, Note_on_c, 0, 46, 62
1, 462960, Note_on_c, 0, 49, 62
1, 462960, Note_on_c, 0, 54, 73
1, 463073, Control_c, 0, 64, 127
1, 463440, Tempo, 379747
1, 463680, Note_on_c, 0, 54, 0
1, 463680, Note_on_c, 0, 61, 0
1, 463680, Note_on_c, 0, 42, 0
1, 463680, Note_on_c, 0, 66, 0
1, 463680, Note_on_c, 0, 70, 0
1, 463680, Note_on_c, 0, 73, 0
1, 463680, Note_on_c, 0, 46, 0
1, 463680, Note_on_c, 0, 49, 0
1, 463680, Note_on_c, 0, 61, 72
1, 463680, Note_on_c, 0, 66, 72
1, 463680, Note_on_c, 0, 70, 72
1, 463680, Note_on_c, 0, 73, 85
1, 463680, Note_on_c, 0, 42, 57
1, 463680, Note_on_c, 0, 46, 57
1, 463680, Note_on_c, 0, 49, 57
1, 463680, Note_on_c, 0, 54, 68
1, 463920, Tempo, 375000
1, 463920, Note_on_c, 0, 54, 0
1, 463920, Note_on_c, 0, 61, 0
1, 463920, Note_on_c, 0, 42, 0
1, 463920, Note_on_c, 0, 66, 0
1, 463920, Note_on_c, 0, 70, 0
1, 463920, Note_on_c, 0, 73, 0
1, 463920, Note_on_c, 0, 46, 0
1, 463920, Note_on_c, 0, 49, 0
1, 463920, Note_on_c, 0, 63, 78
1, 463920, Note_on_c, 0, 66, 78
1, 463920, Note_on_c, 0, 71, 78
1, 463920, Note_on_c, 0, 75, 92
1, 463920, Note_on_c, 0, 47, 62
1, 463920, Note_on_c, 0, 51, 62
1, 463920, Note_on_c, 0, 54, 62
1, 463920, Note_on_c, 0, 59, 73
1, 463929, Control_c, 0, 64, 0
1, 464187, Control_c, 0, 64, 127
1, 464400, Tempo, 382166
1, 464400, Note_on_c, 0, 59, 0
1, 464400, Note_on_c, 0, 63, 0
1, 464400, Note_on_c, 0, 47, 0
1, 464400, Note_on_c, 0, 66, 0
1, 464400, Note_on_c, 0, 71, 0
1, 464400, Note_on_c, 0, 75, 0
1, 464400, Note_on_c, 0, 51, 0
1, 464400, Note_on_c, 0, 54, 0
1, 464400, Note_on_c, 0, 61, 73
1, 464400, Note_on_c, 0, 66, 73
1, 464400, Note_on_c, 0, 70, 73
1, 464400, Note_on_c, 0, 73, 86
1, 464400, Note_on_c, 0, 42, 59
1, 464400, Note_on_c, 0, 46, 59
1, 464400, Note_on_c, 0, 49, 59
1, 464400, Note_on_c, 0, 54, 70
1, 464421, Control_c, 0, 64, 0
1, 464667, Control_c, 0, 64, 127
1, 464880, Tempo, 368098
1, 464880, Note_on_c, 0, 54, 0
1, 464880, Note_on_c, 0, 61, 0
1, 464880, Note_on_c, 0, 42, 0
1, 464880, Note_on_c, 0, 66, 0
1, 464880, Note_on_c, 0, 70, 0
1, 464880, Note_on_c, 0, 73, 0
1, 464880, Note_on_c, 0, 46, 0
1, 464880, Note_on_c, 0, 49, 0
1, 464880, Note_on_c, 0, 58, 79
1, 464880, Note_on_c, 0, 70, 93
1, 464880, Note_on_c, 0, 34, 62
1, 464880, Note_on_c, 0, 46, 74
1, 464888, Control_c, 0, 64, 0
1, 465040, Control_c, 0, 64, 127
1, 465600, Note_on_c, 0, 46, 0
1, 465600, Note_on_c, 0, 58, 0
1, 465600, Note_on_c, 0, 70, 0
1, 465600, Note_on_c, 0, 34, 0
1, 465600, Note_on_c, 0, 58, 73
1, 465600, Note_on_c, 0, 68, 87
1, 465600, Note_on_c, 0, 38, 56
1, 465600, Note_on_c, 0, 46, 67
1, 465840, Tempo, 352941
1, 465840, Note_on_c, 0, 46, 0
1, 465840, Note_on_c, 0, 58, 0
1, 465840, Note_on_c, 0, 68, 0
1, 465840, Note_on_c, 0, 38, 0
1, 465840, Note_on_c, 0, 58, 77
1, 465840, Note_on_c, 0, 66, 91
1, 465840, Note_on_c, 0, 39, 61
1, 465840, Note_on_c, 0, 46, 72
1, 465840, Control_c, 0, 64, 0
1, 465960, Note_on_c, 0, 46, 0
1, 465960, Note_on_c, 0, 58, 0
1, 465960, Note_on_c, 0, 66, 0
1, 465960, Note_on_c, 0, 39, 0
1, 466080, Note_on_c, 0, 58, 72
1, 466080, Note_on_c, 0, 65, 85
1, 466080, Note_on_c, 0, 41, 58
1, 466080, Note_on_c, 0, 46, 69
1, 466200, Note_on_c, 0, 46, 0
1, 466200, Note_on_c, 0, 58, 0
1, 466200, Note_on_c, 0, 65, 0
1, 466200, Note_on_c, 0, 41, 0
1, 466320, Tempo, 375000
1, 466320, Note_on_c, 0, 58, 71
1, 466320, Note_on_c, 0, 63, 84
1, 466320, Note_on_c, 0, 42, 58
1, 466320, Note_on_c, 0, 46, 69
1, 466440, Tempo, 370370
1, 466560, Note_on_c, 0, 46, 0
1, 466560, Note_on_c, 0, 58, 0
1, 466560, Note_on_c, 0, 63, 0
1, 466560, Note_on_c, 0, 42, 0
1, 466800, Tempo, 352941
1, 466800, Note_on_c, 0, 66, 66
1, 466800, Note_on_c, 0, 70, 78
1, 466800, Note_on_c, 0, 54, 66
1, 466800, Note_on_c, 0, 58, 78
1, 466843, Control_c, 0, 64, 127
1, 466896, Note_on_c, 0, 70, 0
1, 466896, Note_on_c, 0, 71, 73
1, 466992, Note_on_c, 0, 71, 0
1, 466992, Note_on_c, 0, 70, 73
1, 467088, Note_on_c, 0, 70, 0
1, 467088, Note_on_c, 0, 69, 73
1, 467184, Note_on_c, 0, 69, 0
1, 467184, Note_on_c, 0, 70, 73
1, 467280, Tempo, 368098
1, 467280, Note_on_c, 0, 70, 0
1, 467280, Note_on_c, 0, 66, 0
1, 467280, Note_on_c, 0, 54, 0
1, 467280, Note_on_c, 0, 58, 0
1, 467280, Note_on_c, 0, 68, 62
1, 467280, Note_on_c, 0, 71, 73
1, 467280, Note_on_c, 0, 56, 58
1, 467280, Note_on_c, 0, 59, 69
1, 467295, Control_c, 0, 64, 0
1, 467400, Note_on_c, 0, 59, 0
1, 467400, Note_on_c, 0, 68, 0
1, 467400, Note_on_c, 0, 71, 0
1, 467400, Note_on_c, 0, 56, 0
1, 467520, Tempo, 402685
1, 467520, Note_on_c, 0, 66, 59
1, 467520, Note_on_c, 0, 70, 70
1, 467520, Note_on_c, 0, 54, 58
1, 467520, Note_on_c, 0, 58, 69
1, 467640, Note_on_c, 0, 58, 0
1, 467640, Note_on_c, 0, 66, 0
1, 467640, Note_on_c, 0, 70, 0
1, 467640, Note_on_c, 0, 54, 0
1, 467760, Tempo, 372671
1, 467760, Note_on_c, 0, 65, 68
1, 467760, Note_on_c, 0, 68, 80
1, 467760, Note_on_c, 0, 53, 62
1, 467760, Note_on_c, 0, 56, 74
1, 467880, Note_on_c, 0, 56, 0
1, 467880, Note_on_c, 0, 65, 0
1, 467880, Note_on_c, 0, 68, 0
1, 467880, Note_on_c, 0, 53, 0
1, 468000, Note_on_c, 0, 63, 62
1, 468000, Note_on_c, 0, 66, 73
1, 468000, Note_on_c, 0, 51, 58
1, 468000, Note_on_c, 0, 54, 69
1, 468120, Note_on_c, 0, 54, 0
1, 468120, Note_on_c, 0, 63, 0
1, 468120, Note_on_c, 0, 66, 0
1, 468120, Note_on_c, 0, 51, 0
1, 468240, Tempo, 389610
1, 468240, Note_on_c, 0, 58, 62
1, 468240, Note_on_c, 0, 65, 73
1, 468240, Note_on_c, 0, 46, 58
1, 468240, Note_on_c, 0, 53, 69
1, 468480, Note_on_c, 0, 53, 0
1, 468480, Note_on_c, 0, 58, 0
1, 468480, Note_on_c, 0, 65, 0
1, 468480, Note_on_c, 0, 46, 0
1, 468720, Tempo, 375000
1, 468720, Note_on_c, 0, 54, 75
1, 468720, Note_on_c, 0, 58, 75
1, 468720, Note_on_c, 0, 63, 89
1, 468720, Note_on_c, 0, 39, 64
1, 468720, Note_on_c, 0, 46, 64
1, 468720, Note_on_c, 0, 51, 76
1, 468734, Control_c, 0, 64, 127
1, 468960, Note_on_c, 0, 51, 0
1, 468960, Note_on_c, 0, 58, 0
1, 468960, Note_on_c, 0, 63, 0
1, 468960, Note_on_c, 0, 54, 0
1, 468960, Note_on_c, 0, 46, 0
1, 468960, Note_on_c, 0, 39, 0
1, 469017, Control_c, 0, 64, 0
1, 469680, Tempo, 357143
1, 469680, Note_on_c, 0, 73, 77
1, 469680, Note_on_c, 0, 78, 77
1, 469680, Note_on_c, 0, 82, 77
1, 469680, Note_on_c, 0, 85, 91
1, 469680, Note_on_c, 0, 42, 62
1, 469680, Note_on_c, 0, 46, 62
1, 469680, Note_on_c, 0, 49, 62
1, 469680, Note_on_c, 0, 54, 73
1, 469751, Control_c, 0, 64, 127
1, 470160, Tempo, 379747
1, 470400, Note_on_c, 0, 54, 0
1, 470400, Note_on_c, 0, 73, 0
1, 470400, Note_on_c, 0, 42, 0
1, 470400, Note_on_c, 0, 78, 0
1, 470400, Note_on_c, 0, 82, 0
1, 470400, Note_on_c, 0, 85, 0
1, 470400, Note_on_c, 0, 46, 0
1, 470400, Note_on_c, 0, 49, 0
1, 470400, Note_on_c, 0, 73, 72
1, 470400, Note_on_c, 0, 78, 72
1, 470400, Note_on_c, 0, 82, 72
1, 470400, Note_on_c, 0, 85, 85
1, 470400, Note_on_c, 0, 42, 57
1, 470400, Note_on_c, 0, 46, 57
1, 470400, Note_on_c, 0, 49, 57
1, 470400, Note_on_c, 0, 54, 68
1, 470640, Tempo, 359281
1, 470640, Note_on_c, 0, 54, 0
1, 470640, Note_on_c, 0, 73, 0
1, 470640, Note_on_c, 0, 42, 0
1, 470640, Note_on_c, 0, 78, 0
1, 470640, Note_on_c, 0, 82, 0
1, 470640, Note_on_c, 0, 85, 0
1, 470640, Note_on_c, 0, 46, 0
1, 470640, Note_on_c, 0, 49, 0
1, 470640, Note_on_c, 0, 75, 78
1, 470640, Note_on_c, 0, 78, 78
1, 470640, Note_on_c, 0, 83, 78
1, 470640, Note_on_c, 0, 87, 92
1, 470640, Note_on_c, 0, 47, 62
1, 470640, Note_on_c, 0, 51, 62
1, 470640, Note_on_c, 0, 54, 62
1, 470640, Note_on_c, 0, 59, 73
1, 470649, Control_c, 0, 64, 0
1, 470907, Control_c, 0, 64, 127
1, 471120, Tempo, 375000
1, 471120, Note_on_c, 0, 59, 0
1, 471120, Note_on_c, 0, 75, 0
1, 471120, Note_on_c, 0, 47, 0
1, 471120, Note_on_c, 0, 78, 0
1, 471120, Note_on_c, 0, 83, 0
1, 471120, Note_on_c, 0, 87, 0
1, 471120, Note_on_c, 0, 51, 0
1, 471120, Note_on_c, 0, 54, 0
1, 471120, Note_on_c, 0, 73, 73
1, 471120, Note_on_c, 0, 78, 73
1, 471120, Note_on_c, 0, 82, 73
1, 471120, Note_on_c, 0, 85, 86
1, 471120, Note_on_c, 0, 42, 59
1, 471120, Note_on_c, 0, 46, 59
1, 471120, Note_on_c, 0, 49, 59
1, 471120, Note_on_c, 0, 54, 70
1, 471141, Control_c, 0, 64, 0
1, 471387, Control_c, 0, 64, 127
1, 471600, Tempo, 372671
1, 471600, Note_on_c, 0, 54, 0
1, 471600, Note_on_c, 0, 73, 0
1, 471600, Note_on_c, 0, 42, 0
1, 471600, Note_on_c, 0, 78, 0
1, 471600, Note_on_c, 0, 82, 0
1, 471600, Note_on_c, 0, 85, 0
1, 471600, Note_on_c, 0, 46, 0
1, 471600, Note_on_c, 0, 49, 0
1, 471600, Note_on_c, 0, 70, 79
1, 471600, Note_on_c, 0, 82, 93
1, 471600, Note_on_c, 0, 34, 62
1, 471600, Note_on_c, 0, 46, 74
1, 471608, Control_c, 0, 64, 0
1, 471760, Control_c, 0, 64, 127
1, 472080, Tempo, 359281
1, 472320, Note_on_c, 0, 46, 0
1, 472320, Note_on_c, 0, 70, 0
1, 472320, Note_on_c, 0, 82, 0
1, 472320, Note_on_c, 0, 34, 0
1, 472320, Note_on_c, 0, 68, 73
1, 472320, Note_on_c, 0, 80, 87
1, 472320, Note_on_c, 0, 46, 56
1, 472320, Note_on_c, 0, 38, 56
1, 472320, Note_on_c, 0, 50, 67
1, 472560, Tempo, 348837
1, 472560, Note_on_c, 0, 50, 0
1, 472560, Note_on_c, 0, 46, 0
1, 472560, Note_on_c, 0, 68, 0
1, 472560, Note_on_c, 0, 80, 0
1, 472560, Note_on_c, 0, 38, 0
1, 472560, Note_on_c, 0, 66, 77
1, 472560, Note_on_c, 0, 78, 91
1, 472560, Note_on_c, 0, 46, 61
1, 472560, Note_on_c, 0, 39, 61
1, 472560, Note_on_c, 0, 51, 72
1, 472560, Control_c, 0, 64, 0
1, 472680, Note_on_c, 0, 51, 0
1, 472680, Note_on_c, 0, 46, 0
1, 472680, Note_on_c, 0, 66, 0
1, 472680, Note_on_c, 0, 78, 0
1, 472680, Note_on_c, 0, 39, 0
1, 472800, Note_on_c, 0, 65, 72
1, 472800, Note_on_c, 0, 77, 85
1, 472800, Note_on_c, 0, 46, 58
1, 472800, Note_on_c, 0, 41, 58
1, 472800, Note_on_c, 0, 53, 69
1, 472920, Note_on_c, 0, 53, 0
1, 472920, Note_on_c, 0, 46, 0
1, 472920, Note_on_c, 0, 65, 0
1, 472920, Note_on_c, 0, 77, 0
1, 472920, Note_on_c, 0, 41, 0
1, 473040, Tempo, 368098
1, 473040, Note_on_c, 0, 63, 71
1, 473040, Note_on_c, 0, 75, 84
1, 473040, Note_on_c, 0, 46, 58
1, 473040, Note_on_c, 0, 42, 58
1, 473040, Note_on_c, 0, 54, 69
1, 473280, Note_on_c, 0, 54, 0
1, 473280, Note_on_c, 0, 46, 0
1, 473280, Note_on_c, 0, 63, 0
1, 473280, Note_on_c, 0, 75, 0
1, 473280, Note_on_c, 0, 42, 0
1, 473520, Note_on_c, 0, 78, 66
1, 473520, Note_on_c, 0, 82, 78
1, 473520, Note_on_c, 0, 58, 66
1, 473520, Note_on_c, 0, 54, 66
1, 473520, Note_on_c, 0, 66, 78
1, 473557, Control_c, 0, 64, 127
1, 473616, Note_on_c, 0, 82, 0
1, 473616, Note_on_c, 0, 83, 73
1, 473712, Note_on_c, 0, 83, 0
1, 473712, Note_on_c, 0, 82, 73
1, 473808, Note_on_c, 0, 82, 0
1, 473808, Note_on_c, 0, 81, 73
1, 473904, Note_on_c, 0, 81, 0
1, 473904, Note_on_c, 0, 82, 73
1, 474000, Tempo, 368098
1, 474000, Note_on_c, 0, 82, 0
1, 474000, Note_on_c, 0, 54, 0
1, 474000, Note_on_c, 0, 78, 0
1, 474000, Note_on_c, 0, 58, 0
1, 474000, Note_on_c, 0, 66, 0
1, 474000, Note_on_c, 0, 71, 62
1, 474000, Note_on_c, 0, 83, 73
1, 474000, Note_on_c, 0, 56, 58
1, 474000, Note_on_c, 0, 68, 69
1, 474015, Control_c, 0, 64, 0
1, 474120, Note_on_c, 0, 68, 0
1, 474120, Note_on_c, 0, 71, 0
1, 474120, Note_on_c, 0, 83, 0
1, 474120, Note_on_c, 0, 56, 0
1, 474240, Tempo, 402685
1, 474240, Note_on_c, 0, 70, 59
1, 474240, Note_on_c, 0, 82, 70
1, 474240, Note_on_c, 0, 54, 58
1, 474240, Note_on_c, 0, 66, 69
1, 474360, Note_on_c, 0, 66, 0
1, 474360, Note_on_c, 0, 70, 0
1, 474360, Note_on_c, 0, 82, 0
1, 474360, Note_on_c, 0, 54, 0
1, 474480, Tempo, 357143
1, 474480, Note_on_c, 0, 68, 68
1, 474480, Note_on_c, 0, 80, 80
1, 474480, Note_on_c, 0, 53, 62
1, 474480, Note_on_c, 0, 65, 74
1, 474600, Note_on_c, 0, 65, 0
1, 474600, Note_on_c, 0, 68, 0
1, 474600, Note_on_c, 0, 80, 0
1, 474600, Note_on_c, 0, 53, 0
1, 474720, Note_on_c, 0, 66, 62
1, 474720, Note_on_c, 0, 78, 73
1, 474720, Note_on_c, 0, 51, 58
1, 474720, Note_on_c, 0, 63, 69
1, 474840, Note_on_c, 0, 63, 0
1, 474840, Note_on_c, 0, 66, 0
1, 474840, Note_on_c, 0, 78, 0
1, 474840, Note_on_c, 0, 51, 0
1, 474960, Tempo, 378525
1, 474960, Note_on_c, 0, 65, 62
1, 474960, Note_on_c, 0, 77, 73
1, 474960, Note_on_c, 0, 46, 58
1, 474960, Note_on_c, 0, 58, 69
1, 475200, Note_on_c, 0, 58, 0
1, 475200, Note_on_c, 0, 65, 0
1, 475200, Note_on_c, 0, 77, 0
1, 475200, Note_on_c, 0, 46, 0
1, 475440, Tempo, 362516
1, 475440, Note_on_c, 0, 66, 66
1, 475440, Note_on_c, 0, 70, 78
1, 475440, Note_on_c, 0, 54, 66
1, 475440, Note_on_c, 0, 58, 78
1, 475477, Control_c, 0, 64, 127
1, 475536, Note_on_c, 0, 70, 0
1, 475536, Note_on_c, 0, 71, 73
1, 475632, Note_on_c, 0, 71, 0
1, 475632, Note_on_c, 0, 70, 73
1, 475728, Note_on_c, 0, 70, 0
1, 475728, Note_on_c, 0, 69, 73
1, 475824, Note_on_c, 0, 69, 0
1, 475824, Note_on_c, 0, 70, 73
1, 475920, Tempo, 376152
1, 475920, Note_on_c, 0, 70, 0
1, 475920, Note_on_c, 0, 66, 0
1, 475920, Note_on_c, 0, 54, 0
1, 475920, Note_on_c, 0, 58, 0
1, 475920, Note_on_c, 0, 68, 62
1, 475920, Note_on_c, 0, 71, 73
1, 475920, Note_on_c, 0, 56, 58
1, 475920, Note_on_c, 0, 59, 69
1, 475935, Control_c, 0, 64, 0
1, 476040, Note_on_c, 0, 59, 0
1, 476040, Note_on_c, 0, 68, 0
1, 476040, Note_on_c, 0, 71, 0
1, 476040, Note_on_c, 0, 56, 0
1, 476160, Tempo, 402685
1, 476160, Note_on_c, 0, 66, 59
1, 476160, Note_on_c, 0, 70, 70
1, 476160, Note_on_c, 0, 54, 58
1, 476160, Note_on_c, 0, 58, 69
1, 476280, Note_on_c, 0, 58, 0
1, 476280, Note_on_c, 0, 66, 0
1, 476280, Note_on_c, 0, 70, 0
1, 476280, Note_on_c, 0, 54, 0
1, 476400, Note_on_c, 0, 65, 68
1, 476400, Note_on_c, 0, 68, 80
1, 476400, Note_on_c, 0, 53, 62
1, 476400, Note_on_c, 0, 56, 74
1, 476520, Note_on_c, 0, 56, 0
1, 476520, Note_on_c, 0, 65, 0
1, 476520, Note_on_c, 0, 68, 0
1, 476520, Note_on_c, 0, 53, 0
1, 476640, Note_on_c, 0, 63, 62
1, 476640, Note_on_c, 0, 66, 73
1, 476640, Note_on_c, 0, 51, 58
1, 476640, Note_on_c, 0, 54, 69
1, 476760, Note_on_c, 0, 54, 0
1, 476760, Note_on_c, 0, 63, 0
1, 476760, Note_on_c, 0, 66, 0
1, 476760, Note_on_c, 0, 51, 0
1, 476880, Tempo, 434783
1, 476880, Note_on_c, 0, 58, 62
1, 476880, Note_on_c, 0, 65, 73
1, 476880, Note_on_c, 0, 46, 58
1, 476880, Note_on_c, 0, 53, 69
1, 477120, Note_on_c, 0, 53, 0
1, 477120, Note_on_c, 0, 58, 0
1, 477120, Note_on_c, 0, 65, 0
1, 477120, Note_on_c, 0, 46, 0
1, 477360, Key_signature, -3, "major"
1, 477360, Tempo, 437956
1, 477360, Note_on_c, 0, 54, 66
1, 477360, Note_on_c, 0, 58, 78
1, 477360, Note_on_c, 0, 42, 66
1, 477360, Note_on_c, 0, 46, 78
1, 477392, Control_c, 0, 64, 127
1, 477456, Note_on_c, 0, 58, 0
1, 477456, Note_on_c, 0, 59, 73
1, 477552, Note_on_c, 0, 59, 0
1, 477552, Note_on_c, 0, 58, 73
1, 477648, Note_on_c, 0, 58, 0
1, 477648, Note_on_c, 0, 57, 73
1, 477744, Note_on_c, 0, 57, 0
1, 477744, Note_on_c, 0, 58, 73
1, 477840, Tempo, 441176
1, 477840, Note_on_c, 0, 58, 0
1, 477840, Note_on_c, 0, 54, 0
1, 477840, Note_on_c, 0, 42, 0
1, 477840, Note_on_c, 0, 46, 0
1, 477840, Note_on_c, 0, 56, 62
1, 477840, Note_on_c, 0, 59, 73
1, 477840, Note_on_c, 0, 44, 58
1, 477840, Note_on_c, 0, 47, 69
1, 477855, Control_c, 0, 64, 0
1, 477960, Note_on_c, 0, 47, 0
1, 477960, Note_on_c, 0, 56, 0
1, 477960, Note_on_c, 0, 59, 0
1, 477960, Note_on_c, 0, 44, 0
1, 478080, Tempo, 468750
1, 478080, Note_on_c, 0, 54, 59
1, 478080, Note_on_c, 0, 58, 70
1, 478080, Note_on_c, 0, 42, 58
1, 478080, Note_on_c, 0, 46, 69
1, 478200, Note_on_c, 0, 46, 0
1, 478200, Note_on_c, 0, 54, 0
1, 478200, Note_on_c, 0, 58, 0
1, 478200, Note_on_c, 0, 42, 0
1, 478320, Tempo, 483871
1, 478320, Note_on_c, 0, 53, 68
1, 478320, Note_on_c, 0, 56, 80
1, 478320, Note_on_c, 0, 41, 62
1, 478320, Note_on_c, 0, 44, 74
1, 478440, Note_on_c, 0, 44, 0
1, 478440, Note_on_c, 0, 53, 0
1, 478440, Note_on_c, 0, 56, 0
1, 478440, Note_on_c, 0, 41, 0
1, 478560, Tempo, 535714
1, 478560, Note_on_c, 0, 51, 62
1, 478560, Note_on_c, 0, 54, 73
1, 478560, Note_on_c, 0, 39, 58
1, 478560, Note_on_c, 0, 42, 69
1, 478680, Note_on_c, 0, 42, 0
1, 478680, Note_on_c, 0, 51, 0
1, 478680, Note_on_c, 0, 54, 0
1, 478680, Note_on_c, 0, 39, 0
1, 478800, Tempo, 566038
1, 478800, Note_on_c, 0, 46, 62
1, 478800, Note_on_c, 0, 53, 73
1, 478800, Note_on_c, 0, 34, 58
1, 478800, Note_on_c, 0, 41, 69
1, 479040, Note_on_c, 0, 41, 0
1, 479040, Note_on_c, 0, 46, 0
1, 479040, Note_on_c, 0, 53, 0
1, 479040, Note_on_c, 0, 34, 0
1, 479220, Note_on_c, 0, 27, 58
1, 479240, Note_on_c, 0, 31, 58
1, 479260, Note_on_c, 0, 34, 58
1, 479280, Time_signature, 4, 2, 24, 8
1, 479280, Tempo, 508475
1, 479280, Marker_t, "Allegro moderato"
1, 479280, Note_on_c, 0, 51, 86
1, 479280, Note_on_c, 0, 39, 69
1, 479333, Control_c, 0, 64, 127
1, 479520, Note_on_c, 0, 39, 0
1, 479520, Note_on_c, 0, 27, 0
1, 479520, Note_on_c, 0, 34, 0
1, 479520, Note_on_c, 0, 31, 0
1, 479520, Note_on_c, 0, 39, 58
1, 479520, Note_on_c, 0, 46, 58
1, 479520, Note_on_c, 0, 51, 69
1, 479760, Note_on_c, 0, 51, 0
1, 479760, Note_on_c, 0, 51, 0
1, 479760, Note_on_c, 0, 39, 0
1, 479760, Note_on_c, 0, 46, 0
1, 479760, Note_on_c, 0, 55, 56
1, 479760, Note_on_c, 0, 58, 56
1, 479760, Note_on_c, 0, 63, 56
1, 479760, Note_on_c, 0, 67, 66
1, 480000, Note_on_c, 0, 67, 0
1, 480000, Note_on_c, 0, 55, 0
1, 480000, Note_on_c, 0, 58, 0
1, 480000, Note_on_c, 0, 63, 0
1, 480000, Note_on_c, 0, 79, 66
1, 480000, Note_on_c, 0, 75, 56
1, 480000, Note_on_c, 0, 70, 56
1, 480000, Note_on_c, 0, 67, 56
1, 480120, Note_on_c, 0, 43, 79
1, 480120, Note_on_c, 0, 55, 79
1, 480240, Tempo, 526316
1, 480240, Note_on_c, 0, 55, 0
1, 480240, Note_on_c, 0, 75, 0
1, 480240, Note_on_c, 0, 70, 0
1, 480240, Note_on_c, 0, 79, 0
1, 480240, Note_on_c, 0, 43, 0
1, 480240, Note_on_c, 0, 67, 0
1, 480240, Note_on_c, 0, 91, 71
1, 480240, Note_on_c, 0, 87, 71
1, 480240, Note_on_c, 0, 82, 60
1, 480240, Note_on_c, 0, 79, 60
1, 480240, Note_on_c, 0, 44, 85
1, 480240, Note_on_c, 0, 56, 85
1, 480480, Note_on_c, 0, 79, 0
1, 480480, Note_on_c, 0, 82, 0
1, 480480, Note_on_c, 0, 91, 0
1, 480480, Note_on_c, 0, 87, 0
1, 480480, Note_on_c, 0, 103, 78
1, 480480, Note_on_c, 0, 99, 78
1, 480480, Note_on_c, 0, 94, 66
1, 480480, Note_on_c, 0, 91, 66
1, 480720, Note_on_c, 0, 91, 0
1, 480720, Note_on_c, 0, 56, 0
1, 480720, Note_on_c, 0, 103, 0
1, 480720, Note_on_c, 0, 44, 0
1, 480720, Note_on_c, 0, 94, 0
1, 480720, Note_on_c, 0, 99, 0
1, 480720, Note_on_c, 0, 45, 84
1, 480720, Note_on_c, 0, 57, 84
1, 480727, Control_c, 0, 64, 0
1, 481140, Note_on_c, 0, 57, 0
1, 481140, Note_on_c, 0, 45, 0
1, 481140, Note_on_c, 0, 27, 58
1, 481160, Note_on_c, 0, 31, 58
1, 481180, Note_on_c, 0, 34, 58
1, 481200, Tempo, 508475
1, 481200, Note_on_c, 0, 46, 82
1, 481200, Note_on_c, 0, 58, 86
1, 481200, Note_on_c, 0, 39, 69
1, 481200, Control_c, 0, 64, 127
1, 481435, Note_on_c, 0, 46, 0
1, 481440, Note_on_c, 0, 31, 0
1, 481440, Note_on_c, 0, 34, 0
1, 481440, Note_on_c, 0, 27, 0
1, 481440, Note_on_c, 0, 39, 0
1, 481440, Note_on_c, 0, 39, 58
1, 481440, Note_on_c, 0, 46, 58
1, 481440, Note_on_c, 0, 51, 69
1, 481680, Note_on_c, 0, 51, 0
1, 481680, Note_on_c, 0, 58, 0
1, 481680, Note_on_c, 0, 39, 0
1, 481680, Note_on_c, 0, 46, 0
1, 481680, Note_on_c, 0, 55, 56
1, 481680, Note_on_c, 0, 58, 56
1, 481680, Note_on_c, 0, 63, 56
1, 481680, Note_on_c, 0, 67, 66
1, 481920, Note_on_c, 0, 67, 0
1, 481920, Note_on_c, 0, 55, 0
1, 481920, Note_on_c, 0, 58, 0
1, 481920, Note_on_c, 0, 63, 0
1, 481920, Note_on_c, 0, 79, 66
1, 481920, Note_on_c, 0, 75, 56
1, 481920, Note_on_c, 0, 70, 56
1, 481920, Note_on_c, 0, 67, 56
1, 482160, Tempo, 526316
1, 482160, Note_on_c, 0, 67, 0
1, 482160, Note_on_c, 0, 79, 0
1, 482160, Note_on_c, 0, 75, 0
1, 482160, Note_on_c, 0, 70, 0
1, 482160, Note_on_c, 0, 91, 72
1, 482160, Note_on_c, 0, 87, 72
1, 482160, Note_on_c, 0, 82, 61
1, 482160, Note_on_c, 0, 79, 61
1, 482160, Note_on_c, 0, 51, 68
1, 482160, Note_on_c, 0, 63, 85
1, 482400, Tempo, 542937
1, 482400, Note_on_c, 0, 79, 0
1, 482400, Note_on_c, 0, 82, 0
1, 482400, Note_on_c, 0, 91, 0
1, 482400, Note_on_c, 0, 87, 0
1, 482400, Note_on_c, 0, 103, 77
1, 482400, Note_on_c, 0, 99, 77
1, 482400, Note_on_c, 0, 94, 65
1, 482400, Note_on_c, 0, 91, 65
1, 482640, Tempo, 526270
1, 482640, Note_on_c, 0, 91, 0
1, 482640, Note_on_c, 0, 63, 0
1, 482640, Note_on_c, 0, 103, 0
1, 482640, Note_on_c, 0, 51, 0
1, 482640, Note_on_c, 0, 94, 0
1, 482640, Note_on_c, 0, 99, 0
1, 482647, Control_c, 0, 64, 0
1, 483000, Note_on_c, 0, 43, 79
1, 483000, Note_on_c, 0, 55, 79
1, 483060, Note_on_c, 0, 27, 58
1, 483090, Note_on_c, 0, 34, 58
1, 483120, Tempo, 512821
1, 483120, Note_on_c, 0, 55, 0
1, 483120, Note_on_c, 0, 43, 0
1, 483120, Note_on_c, 0, 44, 75
1, 483120, Note_on_c, 0, 56, 86
1, 483120, Note_on_c, 0, 38, 69
1, 483233, Control_c, 0, 64, 127
1, 483360, Note_on_c, 0, 38, 0
1, 483360, Note_on_c, 0, 34, 0
1, 483360, Note_on_c, 0, 27, 0
1, 483360, Note_on_c, 0, 41, 58
1, 483360, Note_on_c, 0, 46, 58
1, 483360, Note_on_c, 0, 50, 69
1, 483600, Note_on_c, 0, 50, 0
1, 483600, Note_on_c, 0, 41, 0
1, 483600, Note_on_c, 0, 56, 0
1, 483600, Note_on_c, 0, 44, 0
1, 483600, Note_on_c, 0, 46, 0
1, 483600, Note_on_c, 0, 53, 56
1, 483600, Note_on_c, 0, 58, 56
1, 483600, Note_on_c, 0, 62, 56
1, 483600, Note_on_c, 0, 65, 66
1, 483600, Note_on_c, 0, 44, 72
1, 483600, Note_on_c, 0, 56, 82
1, 483840, Note_on_c, 0, 65, 0
1, 483840, Note_on_c, 0, 62, 0
1, 483840, Note_on_c, 0, 53, 0
1, 483840, Note_on_c, 0, 58, 0
1, 483840, Note_on_c, 0, 77, 66
1, 483840, Note_on_c, 0, 74, 56
1, 483840, Note_on_c, 0, 70, 56
1, 483840, Note_on_c, 0, 65, 56
1, 483960, Note_on_c, 0, 56, 0
1, 483960, Note_on_c, 0, 44, 0
1, 483960, Note_on_c, 0, 43, 79
1, 483960, Note_on_c, 0, 55, 79
1, 484080, Tempo, 530973
1, 484080, Note_on_c, 0, 55, 0
1, 484080, Note_on_c, 0, 65, 0
1, 484080, Note_on_c, 0, 77, 0
1, 484080, Note_on_c, 0, 74, 0
1, 484080, Note_on_c, 0, 43, 0
1, 484080, Note_on_c, 0, 70, 0
1, 484080, Note_on_c, 0, 89, 72
1, 484080, Note_on_c, 0, 86, 61
1, 484080, Note_on_c, 0, 82, 61
1, 484080, Note_on_c, 0, 77, 61
1, 484080, Note_on_c, 0, 44, 85
1, 484080, Note_on_c, 0, 56, 85
1, 484320, Note_on_c, 0, 77, 0
1, 484320, Note_on_c, 0, 82, 0
1, 484320, Note_on_c, 0, 89, 0
1, 484320, Note_on_c, 0, 86, 0
1, 484320, Note_on_c, 0, 101, 81
1, 484320, Note_on_c, 0, 98, 81
1, 484320, Note_on_c, 0, 94, 68
1, 484320, Note_on_c, 0, 89, 68
1, 484560, Note_on_c, 0, 89, 0
1, 484560, Note_on_c, 0, 56, 0
1, 484560, Note_on_c, 0, 101, 0
1, 484560, Note_on_c, 0, 44, 0
1, 484560, Note_on_c, 0, 94, 0
1, 484560, Note_on_c, 0, 98, 0
1, 484560, Note_on_c, 0, 45, 84
1, 484560, Note_on_c, 0, 57, 84
1, 484567, Control_c, 0, 64, 0
1, 484980, Note_on_c, 0, 57, 0
1, 484980, Note_on_c, 0, 45, 0
1, 484980, Note_on_c, 0, 27, 58
1, 485010, Note_on_c, 0, 34, 58
1, 485040, Tempo, 508475
1, 485040, Note_on_c, 0, 46, 86
1, 485040, Note_on_c, 0, 58, 86
1, 485040, Note_on_c, 0, 39, 69
1, 485040, Control_c, 0, 64, 127
1, 485280, Note_on_c, 0, 39, 0
1, 485280, Note_on_c, 0, 27, 0
1, 485280, Note_on_c, 0, 34, 0
1, 485280, Note_on_c, 0, 39, 58
1, 485280, Note_on_c, 0, 46, 58
1, 485280, Note_on_c, 0, 51, 69
1, 485520, Note_on_c, 0, 51, 0
1, 485520, Note_on_c, 0, 39, 0
1, 485520, Note_on_c, 0, 58, 0
1, 485520, Note_on_c, 0, 46, 0
1, 485520, Note_on_c, 0, 46, 0
1, 485520, Note_on_c, 0, 55, 56
1, 485520, Note_on_c, 0, 58, 56
1, 485520, Note_on_c, 0, 63, 56
1, 485520, Note_on_c, 0, 67, 66
1, 485760, Note_on_c, 0, 67, 0
1, 485760, Note_on_c, 0, 55, 0
1, 485760, Note_on_c, 0, 58, 0
1, 485760, Note_on_c, 0, 63, 0
1, 485760, Note_on_c, 0, 79, 66
1, 485760, Note_on_c, 0, 75, 56
1, 485760, Note_on_c, 0, 70, 56
1, 485760, Note_on_c, 0, 67, 56
1, 486000, Tempo, 526316
1, 486000, Note_on_c, 0, 67, 0
1, 486000, Note_on_c, 0, 79, 0
1, 486000, Note_on_c, 0, 75, 0
1, 486000, Note_on_c, 0, 70, 0
1, 486000, Note_on_c, 0, 91, 73
1, 486000, Note_on_c, 0, 87, 73
1, 486000, Note_on_c, 0, 82, 62
1, 486000, Note_on_c, 0, 79, 62
1, 486240, Tempo, 545405
1, 486240, Note_on_c, 0, 79, 0
1, 486240, Note_on_c, 0, 91, 0
1, 486240, Note_on_c, 0, 87, 0
1, 486240, Note_on_c, 0, 82, 0
1, 486240, Note_on_c, 0, 103, 81
1, 486240, Note_on_c, 0, 99, 81
1, 486240, Note_on_c, 0, 94, 68
1, 486240, Note_on_c, 0, 91, 68
1, 486480, Tempo, 526270
1, 486480, Note_on_c, 0, 91, 0
1, 486480, Note_on_c, 0, 103, 0
1, 486480, Note_on_c, 0, 99, 0
1, 486480, Note_on_c, 0, 94, 0
1, 486487, Control_c, 0, 64, 0
1, 486720, Note_on_c, 0, 46, 71
1, 486720, Note_on_c, 0, 34, 62
1, 486800, Note_on_c, 0, 34, 0
1, 486800, Note_on_c, 0, 46, 0
1, 486800, Note_on_c, 0, 48, 73
1, 486800, Note_on_c, 0, 36, 65
1, 486880, Note_on_c, 0, 36, 0
1, 486880, Note_on_c, 0, 48, 0
1, 486880, Note_on_c, 0, 50, 75
1, 486880, Note_on_c, 0, 38, 68
1, 486900, Tempo, 495868
1, 486930, Note_on_c, 0, 38, 0
1, 486930, Note_on_c, 0, 50, 0
1, 486930, Note_on_c, 0, 27, 58
1, 486940, Note_on_c, 0, 31, 58
1, 486950, Note_on_c, 0, 34, 58
1, 486960, Tempo, 508475
1, 486960, Note_on_c, 0, 51, 86
1, 486960, Note_on_c, 0, 39, 69
1, 487056, Control_c, 0, 64, 127
1, 487200, Note_on_c, 0, 39, 0
1, 487200, Note_on_c, 0, 27, 0
1, 487200, Note_on_c, 0, 34, 0
1, 487200, Note_on_c, 0, 31, 0
1, 487200, Note_on_c, 0, 39, 58
1, 487200, Note_on_c, 0, 46, 58
1, 487200, Note_on_c, 0, 51, 69
1, 487440, Tempo, 491803
1, 487440, Note_on_c, 0, 51, 0
1, 487440, Note_on_c, 0, 51, 0
1, 487440, Note_on_c, 0, 39, 0
1, 487440, Note_on_c, 0, 46, 0
1, 487440, Note_on_c, 0, 63, 56
1, 487440, Note_on_c, 0, 58, 56
1, 487440, Note_on_c, 0, 55, 56
1, 487440, Note_on_c, 0, 67, 66
1, 487680, Note_on_c, 0, 67, 0
1, 487680, Note_on_c, 0, 63, 0
1, 487680, Note_on_c, 0, 58, 0
1, 487680, Note_on_c, 0, 55, 0
1, 487680, Note_on_c, 0, 67, 56
1, 487680, Note_on_c, 0, 70, 56
1, 487680, Note_on_c, 0, 79, 66
1, 487680, Note_on_c, 0, 75, 56
1, 487800, Note_on_c, 0, 43, 79
1, 487800, Note_on_c, 0, 55, 79
1, 487920, Tempo, 526316
1, 487920, Note_on_c, 0, 55, 0
1, 487920, Note_on_c, 0, 70, 0
1, 487920, Note_on_c, 0, 79, 0
1, 487920, Note_on_c, 0, 67, 0
1, 487920, Note_on_c, 0, 43, 0
1, 487920, Note_on_c, 0, 75, 0
1, 487920, Note_on_c, 0, 82, 60
1, 487920, Note_on_c, 0, 79, 60
1, 487920, Note_on_c, 0, 91, 71
1, 487920, Note_on_c, 0, 87, 71
1, 487920, Note_on_c, 0, 44, 85
1, 487920, Note_on_c, 0, 56, 85
1, 488160, Note_on_c, 0, 87, 0
1, 488160, Note_on_c, 0, 91, 0
1, 488160, Note_on_c, 0, 82, 0
1, 488160, Note_on_c, 0, 79, 0
1, 488160, Note_on_c, 0, 91, 66
1, 488160, Note_on_c, 0, 99, 78
1, 488160, Note_on_c, 0, 103, 78
1, 488160, Note_on_c, 0, 94, 66
1, 488400, Note_on_c, 0, 94, 0
1, 488400, Note_on_c, 0, 56, 0
1, 488400, Note_on_c, 0, 91, 0
1, 488400, Note_on_c, 0, 44, 0
1, 488400, Note_on_c, 0, 103, 0
1, 488400, Note_on_c, 0, 99, 0
1, 488400, Note_on_c, 0, 45, 84
1, 488400, Note_on_c, 0, 57, 84
1, 488407, Control_c, 0, 64, 0
1, 488820, Note_on_c, 0, 57, 0
1, 488820, Note_on_c, 0, 45, 0
1, 488820, Note_on_c, 0, 27, 58
1, 488840, Note_on_c, 0, 31, 58
1, 488860, Note_on_c, 0, 34, 58
1, 488880, Tempo, 508475
1, 488880, Note_on_c, 0, 58, 86
1, 488880, Note_on_c, 0, 46, 86
1, 488880, Note_on_c, 0, 39, 69
1, 488954, Control_c, 0, 64, 127
1, 489115, Note_on_c, 0, 46, 0
1, 489120, Note_on_c, 0, 31, 0
1, 489120, Note_on_c, 0, 27, 0
1, 489120, Note_on_c, 0, 34, 0
1, 489120, Note_on_c, 0, 39, 0
1, 489120, Note_on_c, 0, 39, 58
1, 489120, Note_on_c, 0, 46, 58
1, 489120, Note_on_c, 0, 51, 69
1, 489360, Note_on_c, 0, 51, 0
1, 489360, Note_on_c, 0, 58, 0
1, 489360, Note_on_c, 0, 39, 0
1, 489360, Note_on_c, 0, 46, 0
1, 489360, Note_on_c, 0, 67, 66
1, 489360, Note_on_c, 0, 55, 56
1, 489360, Note_on_c, 0, 58, 56
1, 489360, Note_on_c, 0, 63, 56
1, 489600, Note_on_c, 0, 63, 0
1, 489600, Note_on_c, 0, 67, 0
1, 489600, Note_on_c, 0, 55, 0
1, 489600, Note_on_c, 0, 58, 0
1, 489600, Note_on_c, 0, 67, 56
1, 489600, Note_on_c, 0, 79, 66
1, 489600, Note_on_c, 0, 75, 56
1, 489600, Note_on_c, 0, 70, 56
1, 489840, Tempo, 526316
1, 489840, Note_on_c, 0, 70, 0
1, 489840, Note_on_c, 0, 67, 0
1, 489840, Note_on_c, 0, 79, 0
1, 489840, Note_on_c, 0, 75, 0
1, 489840, Note_on_c, 0, 91, 72
1, 489840, Note_on_c, 0, 82, 61
1, 489840, Note_on_c, 0, 87, 72
1, 489840, Note_on_c, 0, 79, 61
1, 489840, Note_on_c, 0, 51, 71
1, 489840, Note_on_c, 0, 63, 85
1, 490080, Tempo, 560695
1, 490080, Note_on_c, 0, 79, 0
1, 490080, Note_on_c, 0, 87, 0
1, 490080, Note_on_c, 0, 91, 0
1, 490080, Note_on_c, 0, 82, 0
1, 490080, Note_on_c, 0, 103, 77
1, 490080, Note_on_c, 0, 94, 65
1, 490080, Note_on_c, 0, 99, 77
1, 490080, Note_on_c, 0, 91, 65
1, 490320, Tempo, 526270
1, 490320, Note_on_c, 0, 91, 0
1, 490320, Note_on_c, 0, 63, 0
1, 490320, Note_on_c, 0, 103, 0
1, 490320, Note_on_c, 0, 51, 0
1, 490320, Note_on_c, 0, 99, 0
1, 490320, Note_on_c, 0, 94, 0
1, 490327, Control_c, 0, 64, 0
1, 490680, Note_on_c, 0, 55, 79
1, 490680, Note_on_c, 0, 43, 79
1, 490740, Note_on_c, 0, 27, 58
1, 490770, Note_on_c, 0, 34, 58
1, 490800, Tempo, 512821
1, 490800, Note_on_c, 0, 43, 0
1, 490800, Note_on_c, 0, 55, 0
1, 490800, Note_on_c, 0, 44, 75
1, 490800, Note_on_c, 0, 56, 86
1, 490800, Note_on_c, 0, 38, 69
1, 490913, Control_c, 0, 64, 127
1, 491040, Note_on_c, 0, 38, 0
1, 491040, Note_on_c, 0, 34, 0
1, 491040, Note_on_c, 0, 27, 0
1, 491040, Note_on_c, 0, 41, 58
1, 491040, Note_on_c, 0, 46, 58
1, 491040, Note_on_c, 0, 50, 69
1, 491280, Note_on_c, 0, 50, 0
1, 491280, Note_on_c, 0, 41, 0
1, 491280, Note_on_c, 0, 56, 0
1, 491280, Note_on_c, 0, 44, 0
1, 491280, Note_on_c, 0, 46, 0
1, 491280, Note_on_c, 0, 53, 56
1, 491280, Note_on_c, 0, 58, 56
1, 491280, Note_on_c, 0, 62, 56
1, 491280, Note_on_c, 0, 65, 66
1, 491280, Note_on_c, 0, 44, 72
1, 491280, Note_on_c, 0, 56, 82
1, 491520, Note_on_c, 0, 65, 0
1, 491520, Note_on_c, 0, 62, 0
1, 491520, Note_on_c, 0, 53, 0
1, 491520, Note_on_c, 0, 58, 0
1, 491520, Note_on_c, 0, 77, 66
1, 491520, Note_on_c, 0, 74, 56
1, 491520, Note_on_c, 0, 70, 56
1, 491520, Note_on_c, 0, 65, 56
1, 491640, Note_on_c, 0, 56, 0
1, 491640, Note_on_c, 0, 44, 0
1, 491640, Note_on_c, 0, 43, 79
1, 491640, Note_on_c, 0, 55, 79
1, 491760, Tempo, 530973
1, 491760, Note_on_c, 0, 55, 0
1, 491760, Note_on_c, 0, 65, 0
1, 491760, Note_on_c, 0, 77, 0
1, 491760, Note_on_c, 0, 74, 0
1, 491760, Note_on_c, 0, 43, 0
1, 491760, Note_on_c, 0, 70, 0
1, 491760, Note_on_c, 0, 89, 72
1, 491760, Note_on_c, 0, 86, 61
1, 491760, Note_on_c, 0, 82, 61
1, 491760, Note_on_c, 0, 77, 61
1, 491760, Note_on_c, 0, 44, 85
1, 491760, Note_on_c, 0, 56, 85
1, 492000, Note_on_c, 0, 77, 0
1, 492000, Note_on_c, 0, 82, 0
1, 492000, Note_on_c, 0, 89, 0
1, 492000, Note_on_c, 0, 86, 0
1, 492000, Note_on_c, 0, 101, 81
1, 492000, Note_on_c, 0, 98, 81
1, 492000, Note_on_c, 0, 94, 68
1, 492000, Note_on_c, 0, 89, 68
1, 492240, Note_on_c, 0, 89, 0
1, 492240, Note_on_c, 0, 56, 0
1, 492240, Note_on_c, 0, 101, 0
1, 492240, Note_on_c, 0, 44, 0
1, 492240, Note_on_c, 0, 94, 0
1, 492240, Note_on_c, 0, 98, 0
1, 492240, Note_on_c, 0, 41, 84
1, 492240, Note_on_c, 0, 53, 84
1, 492247, Control_c, 0, 64, 0
1, 492660, Note_on_c, 0, 53, 0
1, 492660, Note_on_c, 0, 41, 0
1, 492660, Note_on_c, 0, 27, 58
1, 492680, Note_on_c, 0, 31, 58
1, 492700, Note_on_c, 0, 34, 58
1, 492720, Tempo, 508475
1, 492720, Note_on_c, 0, 51, 86
1, 492720, Note_on_c, 0, 39, 69
1, 492763, Control_c, 0, 64, 127
1, 492960, Note_on_c, 0, 39, 0
1, 492960, Note_on_c, 0, 27, 0
1, 492960, Note_on_c, 0, 34, 0
1, 492960, Note_on_c, 0, 31, 0
1, 492960, Note_on_c, 0, 39, 58
1, 492960, Note_on_c, 0, 46, 58
1, 492960, Note_on_c, 0, 51, 69
1, 493200, Note_on_c, 0, 51, 0
1, 493200, Note_on_c, 0, 46, 0
1, 493200, Note_on_c, 0, 39, 0
1, 493200, Note_on_c, 0, 55, 56
1, 493200, Note_on_c, 0, 58, 56
1, 493200, Note_on_c, 0, 63, 66
1, 493440, Note_on_c, 0, 63, 0
1, 493440, Note_on_c, 0, 58, 0
1, 493440, Note_on_c, 0, 55, 0
1, 493440, Note_on_c, 0, 75, 66
1, 493440, Note_on_c, 0, 70, 56
1, 493440, Note_on_c, 0, 67, 56
1, 493680, Tempo, 526316
1, 493680, Note_on_c, 0, 67, 0
1, 493680, Note_on_c, 0, 51, 0
1, 493680, Note_on_c, 0, 75, 0
1, 493680, Note_on_c, 0, 70, 0
1, 493680, Note_on_c, 0, 87, 73
1, 493680, Note_on_c, 0, 82, 73
1, 493680, Note_on_c, 0, 79, 62
1, 493920, Note_on_c, 0, 79, 0
1, 493920, Note_on_c, 0, 82, 0
1, 493920, Note_on_c, 0, 87, 0
1, 493920, Note_on_c, 0, 99, 81
1, 493920, Note_on_c, 0, 94, 81
1, 493920, Note_on_c, 0, 91, 68
1, 494160, Note_on_c, 0, 91, 0
1, 494160, Note_on_c, 0, 94, 0
1, 494160, Note_on_c, 0, 99, 0
1, 494160, Note_on_c, 0, 46, 80
1, 494160, Note_on_c, 0, 58, 80
1, 494181, Control_c, 0, 64, 0
1, 494213, Control_c, 0, 64, 127
1, 494520, Note_on_c, 0, 58, 0
1, 494520, Note_on_c, 0, 46, 0
1, 494580, Tempo, 566038
1, 494580, Note_on_c, 0, 27, 58
1, 494594, Control_c, 0, 64, 0
1, 494600, Note_on_c, 0, 31, 58
1, 494620, Note_on_c, 0, 34, 58
1, 494640, Tempo, 508475
1, 494640, Note_on_c, 0, 63, 82
1, 494640, Note_on_c, 0, 51, 75
1, 494640, Note_on_c, 0, 39, 69
1, 494640, Control_c, 0, 64, 127
1, 494875, Note_on_c, 0, 51, 0
1, 494880, Note_on_c, 0, 31, 0
1, 494880, Note_on_c, 0, 27, 0
1, 494880, Note_on_c, 0, 34, 0
1, 494880, Note_on_c, 0, 39, 0
1, 494880, Note_on_c, 0, 39, 58
1, 494880, Note_on_c, 0, 46, 58
1, 494880, Note_on_c, 0, 51, 69
1, 495000, Note_on_c, 0, 55, 62
1, 495120, Tempo, 493787
1, 495120, Note_on_c, 0, 55, 0
1, 495120, Note_on_c, 0, 46, 0
1, 495120, Note_on_c, 0, 63, 0
1, 495120, Note_on_c, 0, 39, 0
1, 495120, Note_on_c, 0, 51, 0
1, 495120, Note_on_c, 0, 58, 53
1, 495120, Note_on_c, 0, 63, 53
1, 495120, Note_on_c, 0, 67, 62
1, 495240, Note_on_c, 0, 67, 0
1, 495240, Note_on_c, 0, 63, 0
1, 495240, Note_on_c, 0, 58, 0
1, 495240, Note_on_c, 0, 67, 57
1, 495360, Note_on_c, 0, 67, 0
1, 495360, Note_on_c, 0, 79, 62
1, 495360, Note_on_c, 0, 75, 53
1, 495360, Note_on_c, 0, 70, 53
1, 495480, Note_on_c, 0, 70, 0
1, 495480, Note_on_c, 0, 75, 0
1, 495480, Note_on_c, 0, 79, 0
1, 495480, Note_on_c, 0, 79, 56
1, 495480, Note_on_c, 0, 55, 76
1, 495480, Note_on_c, 0, 67, 76
1, 495600, Tempo, 526316
1, 495600, Note_on_c, 0, 67, 0
1, 495600, Note_on_c, 0, 55, 0
1, 495600, Note_on_c, 0, 79, 0
1, 495600, Note_on_c, 0, 91, 67
1, 495600, Note_on_c, 0, 87, 67
1, 495600, Note_on_c, 0, 82, 57
1, 495600, Note_on_c, 0, 56, 81
1, 495600, Note_on_c, 0, 68, 81
1, 495720, Note_on_c, 0, 82, 0
1, 495720, Note_on_c, 0, 91, 0
1, 495720, Note_on_c, 0, 87, 0
1, 495720, Note_on_c, 0, 79, 60
1, 495840, Note_on_c, 0, 79, 0
1, 495840, Note_on_c, 0, 91, 70
1, 495840, Note_on_c, 0, 87, 58
1, 495840, Note_on_c, 0, 82, 58
1, 495960, Note_on_c, 0, 82, 0
1, 495960, Note_on_c, 0, 91, 0
1, 495960, Note_on_c, 0, 87, 0
1, 495960, Note_on_c, 0, 91, 62
1, 496080, Note_on_c, 0, 91, 0
1, 496080, Note_on_c, 0, 56, 0
1, 496080, Note_on_c, 0, 68, 0
1, 496080, Note_on_c, 0, 103, 81
1, 496080, Note_on_c, 0, 99, 78
1, 496080, Note_on_c, 0, 94, 62
1, 496080, Note_on_c, 0, 57, 80
1, 496080, Note_on_c, 0, 69, 80
1, 496087, Control_c, 0, 64, 0
1, 496126, Control_c, 0, 64, 127
1, 496320, Note_on_c, 0, 94, 0
1, 496320, Note_on_c, 0, 103, 0
1, 496320, Note_on_c, 0, 99, 0
1, 496500, Tempo, 566038
1, 496500, Note_on_c, 0, 57, 0
1, 496500, Note_on_c, 0, 69, 0
1, 496500, Note_on_c, 0, 27, 58
1, 496520, Note_on_c, 0, 31, 58
1, 496540, Note_on_c, 0, 34, 58
1, 496560, Tempo, 508475
1, 496560, Note_on_c, 0, 70, 82
1, 496560, Note_on_c, 0, 58, 73
1, 496560, Note_on_c, 0, 39, 69
1, 496566, Control_c, 0, 64, 0
1, 496624, Control_c, 0, 64, 127
1, 496800, Note_on_c, 0, 39, 0
1, 496800, Note_on_c, 0, 31, 0
1, 496800, Note_on_c, 0, 27, 0
1, 496800, Note_on_c, 0, 34, 0
1, 496800, Note_on_c, 0, 39, 58
1, 496800, Note_on_c, 0, 46, 58
1, 496800, Note_on_c, 0, 51, 69
1, 496920, Note_on_c, 0, 55, 62
1, 497040, Tempo, 495827
1, 497040, Note_on_c, 0, 55, 0
1, 497040, Note_on_c, 0, 46, 0
1, 497040, Note_on_c, 0, 39, 0
1, 497040, Note_on_c, 0, 51, 0
1, 497040, Note_on_c, 0, 58, 53
1, 497040, Note_on_c, 0, 63, 53
1, 497040, Note_on_c, 0, 67, 62
1, 497160, Note_on_c, 0, 67, 0
1, 497160, Note_on_c, 0, 58, 0
1, 497160, Note_on_c, 0, 63, 0
1, 497160, Note_on_c, 0, 67, 57
1, 497278, Note_on_c, 0, 58, 0
1, 497278, Note_on_c, 0, 70, 0
1, 497280, Note_on_c, 0, 67, 0
1, 497280, Note_on_c, 0, 79, 62
1, 497280, Note_on_c, 0, 75, 53
1, 497280, Note_on_c, 0, 70, 53
1, 497400, Note_on_c, 0, 70, 0
1, 497400, Note_on_c, 0, 75, 0
1, 497400, Note_on_c, 0, 79, 0
1, 497400, Note_on_c, 0, 79, 56
1, 497520, Tempo, 526316
1, 497520, Note_on_c, 0, 79, 0
1, 497520, Note_on_c, 0, 91, 67
1, 497520, Note_on_c, 0, 87, 67
1, 497520, Note_on_c, 0, 82, 57
1, 497520, Note_on_c, 0, 63, 81
1, 497520, Note_on_c, 0, 75, 84
1, 497640, Note_on_c, 0, 82, 0
1, 497640, Note_on_c, 0, 91, 0
1, 497640, Note_on_c, 0, 87, 0
1, 497640, Note_on_c, 0, 79, 60
1, 497760, Note_on_c, 0, 79, 0
1, 497760, Note_on_c, 0, 91, 70
1, 497760, Note_on_c, 0, 87, 58
1, 497760, Note_on_c, 0, 82, 58
1, 497880, Note_on_c, 0, 82, 0
1, 497880, Note_on_c, 0, 91, 0
1, 497880, Note_on_c, 0, 87, 0
1, 497880, Note_on_c, 0, 91, 62
1, 498000, Note_on_c, 0, 91, 0
1, 498000, Note_on_c, 0, 63, 0
1, 498000, Note_on_c, 0, 75, 0
1, 498000, Note_on_c, 0, 103, 81
1, 498000, Note_on_c, 0, 99, 78
1, 498000, Note_on_c, 0, 94, 62
1, 498023, Control_c, 0, 64, 0
1, 498092, Control_c, 0, 64, 127
1, 498240, Note_on_c, 0, 94, 0
1, 498240, Note_on_c, 0, 99, 0
1, 498240, Note_on_c, 0, 103, 0
1, 498360, Note_on_c, 0, 55, 76
1, 498360, Note_on_c, 0, 67, 76
1, 498420, Tempo, 566038
1, 498420, Note_on_c, 0, 27, 58
1, 498450, Note_on_c, 0, 34, 58
1, 498480, Tempo, 508475
1, 498480, Note_on_c, 0, 67, 0
1, 498480, Note_on_c, 0, 55, 0
1, 498480, Note_on_c, 0, 68, 82
1, 498480, Note_on_c, 0, 56, 73
1, 498480, Note_on_c, 0, 38, 69
1, 498485, Control_c, 0, 64, 0
1, 498533, Control_c, 0, 64, 127
1, 498720, Note_on_c, 0, 38, 0
1, 498720, Note_on_c, 0, 34, 0
1, 498720, Note_on_c, 0, 27, 0
1, 498720, Note_on_c, 0, 41, 58
1, 498720, Note_on_c, 0, 46, 58
1, 498720, Note_on_c, 0, 50, 69
1, 498840, Note_on_c, 0, 53, 62
1, 498960, Tempo, 497884
1, 498960, Note_on_c, 0, 53, 0
1, 498960, Note_on_c, 0, 68, 0
1, 498960, Note_on_c, 0, 41, 0
1, 498960, Note_on_c, 0, 56, 0
1, 498960, Note_on_c, 0, 50, 0
1, 498960, Note_on_c, 0, 46, 0
1, 498960, Note_on_c, 0, 58, 53
1, 498960, Note_on_c, 0, 62, 53
1, 498960, Note_on_c, 0, 65, 62
1, 499080, Note_on_c, 0, 65, 0
1, 499080, Note_on_c, 0, 62, 0
1, 499080, Note_on_c, 0, 58, 0
1, 499080, Note_on_c, 0, 65, 57
1, 499200, Note_on_c, 0, 65, 0
1, 499200, Note_on_c, 0, 77, 62
1, 499200, Note_on_c, 0, 74, 53
1, 499200, Note_on_c, 0, 70, 53
1, 499320, Note_on_c, 0, 70, 0
1, 499320, Note_on_c, 0, 74, 0
1, 499320, Note_on_c, 0, 77, 0
1, 499320, Note_on_c, 0, 77, 56
1, 499320, Note_on_c, 0, 55, 76
1, 499320, Note_on_c, 0, 67, 76
1, 499440, Tempo, 526316
1, 499440, Note_on_c, 0, 67, 0
1, 499440, Note_on_c, 0, 55, 0
1, 499440, Note_on_c, 0, 77, 0
1, 499440, Note_on_c, 0, 89, 67
1, 499440, Note_on_c, 0, 86, 67
1, 499440, Note_on_c, 0, 82, 57
1, 499440, Note_on_c, 0, 56, 81
1, 499440, Note_on_c, 0, 68, 81
1, 499560, Note_on_c, 0, 82, 0
1, 499560, Note_on_c, 0, 89, 0
1, 499560, Note_on_c, 0, 86, 0
1, 499560, Note_on_c, 0, 77, 60
1, 499680, Note_on_c, 0, 77, 0
1, 499680, Note_on_c, 0, 89, 70
1, 499680, Note_on_c, 0, 86, 58
1, 499680, Note_on_c, 0, 82, 58
1, 499800, Note_on_c, 0, 82, 0
1, 499800, Note_on_c, 0, 89, 0
1, 499800, Note_on_c, 0, 86, 0
1, 499800, Note_on_c, 0, 89, 62
1, 499920, Note_on_c, 0, 89, 0
1, 499920, Note_on_c, 0, 56, 0
1, 499920, Note_on_c, 0, 68, 0
1, 499920, Note_on_c, 0, 101, 81
1, 499920, Note_on_c, 0, 98, 74
1, 499920, Note_on_c, 0, 94, 62
1, 499920, Note_on_c, 0, 57, 80
1, 499920, Note_on_c, 0, 69, 80
1, 499927, Control_c, 0, 64, 0
1, 499970, Control_c, 0, 64, 127
1, 500160, Note_on_c, 0, 94, 0
1, 500160, Note_on_c, 0, 101, 0
1, 500160, Note_on_c, 0, 98, 0
1, 500340, Tempo, 566038
1, 500340, Note_on_c, 0, 57, 0
1, 500340, Note_on_c, 0, 69, 0
1, 500340, Note_on_c, 0, 27, 58
1, 500360, Note_on_c, 0, 31, 58
1, 500380, Note_on_c, 0, 34, 58
1, 500400, Tempo, 508475
1, 500400, Note_on_c, 0, 70, 82
1, 500400, Note_on_c, 0, 58, 73
1, 500400, Note_on_c, 0, 39, 69
1, 500407, Control_c, 0, 64, 0
1, 500474, Control_c, 0, 64, 127
1, 500640, Note_on_c, 0, 39, 0
1, 500640, Note_on_c, 0, 31, 0
1, 500640, Note_on_c, 0, 27, 0
1, 500640, Note_on_c, 0, 34, 0
1, 500640, Note_on_c, 0, 39, 58
1, 500640, Note_on_c, 0, 46, 58
1, 500640, Note_on_c, 0, 51, 69
1, 500760, Note_on_c, 0, 55, 62
1, 500880, Tempo, 495827
1, 500880, Note_on_c, 0, 55, 0
1, 500880, Note_on_c, 0, 46, 0
1, 500880, Note_on_c, 0, 39, 0
1, 500880, Note_on_c, 0, 51, 0
1, 500880, Note_on_c, 0, 58, 53
1, 500880, Note_on_c, 0, 63, 53
1, 500880, Note_on_c, 0, 67, 62
1, 501000, Note_on_c, 0, 67, 0
1, 501000, Note_on_c, 0, 58, 0
1, 501000, Note_on_c, 0, 63, 0
1, 501000, Note_on_c, 0, 67, 57
1, 501118, Note_on_c, 0, 58, 0
1, 501118, Note_on_c, 0, 70, 0
1, 501120, Note_on_c, 0, 67, 0
1, 501120, Note_on_c, 0, 79, 62
1, 501120, Note_on_c, 0, 75, 53
1, 501120, Note_on_c, 0, 70, 53
1, 501240, Note_on_c, 0, 70, 0
1, 501240, Note_on_c, 0, 75, 0
1, 501240, Note_on_c, 0, 79, 0
1, 501240, Note_on_c, 0, 79, 56
1, 501360, Tempo, 526316
1, 501360, Note_on_c, 0, 79, 0
1, 501360, Note_on_c, 0, 91, 67
1, 501360, Note_on_c, 0, 87, 67
1, 501360, Note_on_c, 0, 82, 57
1, 501360, Note_on_c, 0, 55, 81
1, 501360, Note_on_c, 0, 67, 84
1, 501480, Note_on_c, 0, 82, 0
1, 501480, Note_on_c, 0, 91, 0
1, 501480, Note_on_c, 0, 87, 0
1, 501480, Note_on_c, 0, 79, 60
1, 501600, Note_on_c, 0, 79, 0
1, 501600, Note_on_c, 0, 55, 0
1, 501600, Note_on_c, 0, 67, 0
1, 501600, Note_on_c, 0, 91, 70
1, 501600, Note_on_c, 0, 87, 58
1, 501600, Note_on_c, 0, 82, 58
1, 501720, Tempo, 555504
1, 501720, Note_on_c, 0, 82, 0
1, 501720, Note_on_c, 0, 87, 0
1, 501720, Note_on_c, 0, 91, 0
1, 501720, Note_on_c, 0, 91, 62
1, 501840, Note_on_c, 0, 91, 0
1, 501840, Note_on_c, 0, 103, 81
1, 501840, Note_on_c, 0, 99, 78
1, 501840, Note_on_c, 0, 94, 62
1, 501904, Control_c, 0, 64, 0
1, 501953, Control_c, 0, 64, 127
1, 501960, Tempo, 526270
1, 502080, Note_on_c, 0, 94, 0
1, 502080, Note_on_c, 0, 99, 0
1, 502080, Note_on_c, 0, 103, 0
1, 502200, Note_on_c, 0, 46, 76
1, 502200, Note_on_c, 0, 58, 76
1, 502260, Tempo, 566038
1, 502260, Note_on_c, 0, 27, 58
1, 502280, Note_on_c, 0, 31, 58
1, 502300, Note_on_c, 0, 34, 58
1, 502320, Tempo, 508475
1, 502320, Note_on_c, 0, 58, 0
1, 502320, Note_on_c, 0, 46, 0
1, 502320, Note_on_c, 0, 63, 82
1, 502320, Note_on_c, 0, 51, 75
1, 502320, Note_on_c, 0, 39, 69
1, 502320, Control_c, 0, 64, 0
1, 502377, Control_c, 0, 64, 127
1, 502555, Note_on_c, 0, 51, 0
1, 502560, Note_on_c, 0, 27, 0
1, 502560, Note_on_c, 0, 34, 0
1, 502560, Note_on_c, 0, 31, 0
1, 502560, Note_on_c, 0, 39, 0
1, 502560, Note_on_c, 0, 39, 58
1, 502560, Note_on_c, 0, 46, 58
1, 502560, Note_on_c, 0, 51, 69
1, 502680, Note_on_c, 0, 55, 62
1, 502800, Note_on_c, 0, 55, 0
1, 502800, Note_on_c, 0, 46, 0
1, 502800, Note_on_c, 0, 63, 0
1, 502800, Note_on_c, 0, 39, 0
1, 502800, Note_on_c, 0, 51, 0
1, 502800, Note_on_c, 0, 58, 53
1, 502800, Note_on_c, 0, 63, 53
1, 502800, Note_on_c, 0, 67, 62
1, 502920, Tempo, 497884
1, 502920, Note_on_c, 0, 67, 0
1, 502920, Note_on_c, 0, 63, 0
1, 502920, Note_on_c, 0, 58, 0
1, 502920, Note_on_c, 0, 67, 57
1, 503040, Note_on_c, 0, 67, 0
1, 503040, Note_on_c, 0, 79, 62
1, 503040, Note_on_c, 0, 75, 53
1, 503040, Note_on_c, 0, 70, 53
1, 503160, Note_on_c, 0, 70, 0
1, 503160, Note_on_c, 0, 75, 0
1, 503160, Note_on_c, 0, 79, 0
1, 503160, Note_on_c, 0, 79, 56
1, 503160, Note_on_c, 0, 55, 76
1, 503160, Note_on_c, 0, 67, 72
1, 503280, Tempo, 526316
1, 503280, Note_on_c, 0, 67, 0
1, 503280, Note_on_c, 0, 55, 0
1, 503280, Note_on_c, 0, 79, 0
1, 503280, Note_on_c, 0, 91, 67
1, 503280, Note_on_c, 0, 87, 67
1, 503280, Note_on_c, 0, 82, 57
1, 503280, Note_on_c, 0, 56, 81
1, 503280, Note_on_c, 0, 68, 76
1, 503400, Note_on_c, 0, 82, 0
1, 503400, Note_on_c, 0, 91, 0
1, 503400, Note_on_c, 0, 87, 0
1, 503400, Note_on_c, 0, 79, 60
1, 503520, Note_on_c, 0, 79, 0
1, 503520, Note_on_c, 0, 91, 70
1, 503520, Note_on_c, 0, 87, 58
1, 503520, Note_on_c, 0, 82, 58
1, 503640, Note_on_c, 0, 82, 0
1, 503640, Note_on_c, 0, 91, 0
1, 503640, Note_on_c, 0, 87, 0
1, 503640, Note_on_c, 0, 91, 62
1, 503760, Note_on_c, 0, 91, 0
1, 503760, Note_on_c, 0, 56, 0
1, 503760, Note_on_c, 0, 68, 0
1, 503760, Note_on_c, 0, 103, 81
1, 503760, Note_on_c, 0, 99, 78
1, 503760, Note_on_c, 0, 94, 62
1, 503760, Note_on_c, 0, 57, 80
1, 503760, Note_on_c, 0, 69, 80
1, 503767, Control_c, 0, 64, 0
1, 503810, Control_c, 0, 64, 127
1, 504000, Note_on_c, 0, 94, 0
1, 504000, Note_on_c, 0, 103, 0
1, 504000, Note_on_c, 0, 99, 0
1, 504180, Tempo, 566038
1, 504180, Note_on_c, 0, 57, 0
1, 504180, Note_on_c, 0, 69, 0
1, 504180, Note_on_c, 0, 27, 58
1, 504200, Note_on_c, 0, 31, 58
1, 504220, Note_on_c, 0, 34, 58
1, 504240, Tempo, 508475
1, 504240, Note_on_c, 0, 70, 82
1, 504240, Note_on_c, 0, 58, 73
1, 504240, Note_on_c, 0, 39, 69
1, 504251, Control_c, 0, 64, 0
1, 504332, Control_c, 0, 64, 127
1, 504480, Note_on_c, 0, 39, 0
1, 504480, Note_on_c, 0, 31, 0
1, 504480, Note_on_c, 0, 27, 0
1, 504480, Note_on_c, 0, 34, 0
1, 504480, Note_on_c, 0, 39, 58
1, 504480, Note_on_c, 0, 46, 58
1, 504480, Note_on_c, 0, 51, 69
1, 504600, Note_on_c, 0, 55, 62
1, 504720, Tempo, 495827
1, 504720, Note_on_c, 0, 55, 0
1, 504720, Note_on_c, 0, 46, 0
1, 504720, Note_on_c, 0, 39, 0
1, 504720, Note_on_c, 0, 51, 0
1, 504720, Note_on_c, 0, 58, 53
1, 504720, Note_on_c, 0, 63, 53
1, 504720, Note_on_c, 0, 67, 62
1, 504840, Note_on_c, 0, 67, 0
1, 504840, Note_on_c, 0, 58, 0
1, 504840, Note_on_c, 0, 63, 0
1, 504840, Note_on_c, 0, 67, 57
1, 504958, Note_on_c, 0, 58, 0
1, 504958, Note_on_c, 0, 70, 0
1, 504960, Note_on_c, 0, 67, 0
1, 504960, Note_on_c, 0, 79, 62
1, 504960, Note_on_c, 0, 75, 53
1, 504960, Note_on_c, 0, 70, 53
1, 505080, Note_on_c, 0, 70, 0
1, 505080, Note_on_c, 0, 75, 0
1, 505080, Note_on_c, 0, 79, 0
1, 505080, Note_on_c, 0, 79, 56
1, 505200, Tempo, 526316
1, 505200, Note_on_c, 0, 79, 0
1, 505200, Note_on_c, 0, 91, 67
1, 505200, Note_on_c, 0, 87, 67
1, 505200, Note_on_c, 0, 82, 57
1, 505200, Note_on_c, 0, 63, 81
1, 505200, Note_on_c, 0, 75, 84
1, 505320, Note_on_c, 0, 82, 0
1, 505320, Note_on_c, 0, 91, 0
1, 505320, Note_on_c, 0, 87, 0
1, 505320, Note_on_c, 0, 79, 60
1, 505440, Note_on_c, 0, 79, 0
1, 505440, Note_on_c, 0, 91, 70
1, 505440, Note_on_c, 0, 87, 58
1, 505440, Note_on_c, 0, 82, 58
1, 505560, Note_on_c, 0, 82, 0
1, 505560, Note_on_c, 0, 91, 0
1, 505560, Note_on_c, 0, 87, 0
1, 505560, Note_on_c, 0, 91, 62
1, 505680, Note_on_c, 0, 91, 0
1, 505680, Note_on_c, 0, 63, 0
1, 505680, Note_on_c, 0, 75, 0
1, 505680, Note_on_c, 0, 103, 81
1, 505680, Note_on_c, 0, 99, 78
1, 505680, Note_on_c, 0, 94, 62
1, 505687, Control_c, 0, 64, 0
1, 505744, Control_c, 0, 64, 127
1, 505920, Note_on_c, 0, 94, 0
1, 505920, Note_on_c, 0, 99, 0
1, 505920, Note_on_c, 0, 103, 0
1, 506040, Note_on_c, 0, 55, 76
1, 506040, Note_on_c, 0, 67, 76
1, 506100, Tempo, 566038
1, 506100, Note_on_c, 0, 27, 58
1, 506130, Note_on_c, 0, 34, 58
1, 506160, Tempo, 508475
1, 506160, Note_on_c, 0, 67, 0
1, 506160, Note_on_c, 0, 55, 0
1, 506160, Note_on_c, 0, 68, 82
1, 506160, Note_on_c, 0, 56, 73
1, 506160, Note_on_c, 0, 38, 69
1, 506167, Control_c, 0, 64, 0
1, 506263, Control_c, 0, 64, 127
1, 506400, Note_on_c, 0, 38, 0
1, 506400, Note_on_c, 0, 34, 0
1, 506400, Note_on_c, 0, 27, 0
1, 506400, Note_on_c, 0, 41, 58
1, 506400, Note_on_c, 0, 46, 58
1, 506400, Note_on_c, 0, 50, 69
1, 506520, Note_on_c, 0, 53, 62
1, 506640, Note_on_c, 0, 53, 0
1, 506640, Note_on_c, 0, 68, 0
1, 506640, Note_on_c, 0, 41, 0
1, 506640, Note_on_c, 0, 56, 0
1, 506640, Note_on_c, 0, 50, 0
1, 506640, Note_on_c, 0, 46, 0
1, 506640, Note_on_c, 0, 58, 53
1, 506640, Note_on_c, 0, 62, 53
1, 506640, Note_on_c, 0, 65, 62
1, 506760, Tempo, 495827
1, 506760, Note_on_c, 0, 65, 0
1, 506760, Note_on_c, 0, 62, 0
1, 506760, Note_on_c, 0, 58, 0
1, 506760, Note_on_c, 0, 65, 57
1, 506880, Note_on_c, 0, 65, 0
1, 506880, Note_on_c, 0, 77, 62
1, 506880, Note_on_c, 0, 74, 53
1, 506880, Note_on_c, 0, 70, 53
1, 507000, Note_on_c, 0, 70, 0
1, 507000, Note_on_c, 0, 74, 0
1, 507000, Note_on_c, 0, 77, 0
1, 507000, Note_on_c, 0, 77, 56
1, 507000, Note_on_c, 0, 55, 76
1, 507000, Note_on_c, 0, 67, 76
1, 507120, Tempo, 526316
1, 507120, Note_on_c, 0, 67, 0
1, 507120, Note_on_c, 0, 55, 0
1, 507120, Note_on_c, 0, 77, 0
1, 507120, Note_on_c, 0, 89, 67
1, 507120, Note_on_c, 0, 86, 67
1, 507120, Note_on_c, 0, 82, 57
1, 507120, Note_on_c, 0, 56, 81
1, 507120, Note_on_c, 0, 68, 81
1, 507240, Note_on_c, 0, 82, 0
1, 507240, Note_on_c, 0, 89, 0
1, 507240, Note_on_c, 0, 86, 0
1, 507240, Note_on_c, 0, 77, 60
1, 507360, Note_on_c, 0, 77, 0
1, 507360, Note_on_c, 0, 89, 70
1, 507360, Note_on_c, 0, 86, 58
1, 507360, Note_on_c, 0, 82, 58
1, 507480, Note_on_c, 0, 82, 0
1, 507480, Note_on_c, 0, 89, 0
1, 507480, Note_on_c, 0, 86, 0
1, 507480, Note_on_c, 0, 89, 62
1, 507600, Note_on_c, 0, 89, 0
1, 507600, Note_on_c, 0, 56, 0
1, 507600, Note_on_c, 0, 68, 0
1, 507600, Note_on_c, 0, 101, 81
1, 507600, Note_on_c, 0, 98, 74
1, 507600, Note_on_c, 0, 94, 62
1, 507600, Note_on_c, 0, 53, 80
1, 507600, Note_on_c, 0, 65, 80
1, 507607, Control_c, 0, 64, 0
1, 507657, Control_c, 0, 64, 127
1, 507840, Note_on_c, 0, 94, 0
1, 507840, Note_on_c, 0, 101, 0
1, 507840, Note_on_c, 0, 98, 0
1, 508020, Tempo, 566038
1, 508020, Note_on_c, 0, 53, 0
1, 508020, Note_on_c, 0, 65, 0
1, 508020, Note_on_c, 0, 27, 58
1, 508040, Note_on_c, 0, 31, 58
1, 508060, Note_on_c, 0, 34, 58
1, 508080, Tempo, 508475
1, 508080, Note_on_c, 0, 63, 82
1, 508080, Note_on_c, 0, 51, 73
1, 508080, Note_on_c, 0, 39, 69
1, 508080, Control_c, 0, 64, 0
1, 508186, Control_c, 0, 64, 127
1, 508315, Note_on_c, 0, 51, 0
1, 508320, Note_on_c, 0, 31, 0
1, 508320, Note_on_c, 0, 27, 0
1, 508320, Note_on_c, 0, 34, 0
1, 508320, Note_on_c, 0, 39, 0
1, 508320, Note_on_c, 0, 39, 58
1, 508320, Note_on_c, 0, 46, 58
1, 508320, Note_on_c, 0, 51, 69
1, 508440, Note_on_c, 0, 55, 62
1, 508560, Note_on_c, 0, 55, 0
1, 508560, Note_on_c, 0, 46, 0
1, 508560, Note_on_c, 0, 63, 0
1, 508560, Note_on_c, 0, 39, 0
1, 508560, Note_on_c, 0, 51, 0
1, 508560, Note_on_c, 0, 58, 53
1, 508560, Note_on_c, 0, 63, 62
1, 508680, Tempo, 495827
1, 508680, Note_on_c, 0, 63, 0
1, 508680, Note_on_c, 0, 58, 0
1, 508680, Note_on_c, 0, 67, 57
1, 508800, Note_on_c, 0, 67, 0
1, 508800, Note_on_c, 0, 75, 62
1, 508800, Note_on_c, 0, 70, 53
1, 508920, Note_on_c, 0, 70, 0
1, 508920, Note_on_c, 0, 75, 0
1, 508920, Note_on_c, 0, 79, 56
1, 509040, Tempo, 526316
1, 509040, Note_on_c, 0, 79, 0
1, 509040, Note_on_c, 0, 87, 70
1, 509040, Note_on_c, 0, 82, 58
1, 509160, Note_on_c, 0, 82, 0
1, 509160, Note_on_c, 0, 87, 0
1, 509160, Note_on_c, 0, 79, 60
1, 509280, Note_on_c, 0, 79, 0
1, 509280, Note_on_c, 0, 87, 76
1, 509280, Note_on_c, 0, 82, 64
1, 509400, Note_on_c, 0, 82, 0
1, 509400, Note_on_c, 0, 87, 0
1, 509400, Note_on_c, 0, 91, 62
1, 509520, Tempo, 495868
1, 509520, Note_on_c, 0, 91, 0
1, 509520, Note_on_c, 0, 99, 86
1, 509520, Note_on_c, 0, 94, 69
1, 509520, Note_on_c, 0, 63, 68
1, 509520, Note_on_c, 0, 67, 68
1, 509520, Note_on_c, 0, 73, 80
1, 509563, Control_c, 0, 64, 0
1, 509668, Control_c, 0, 64, 127
1, 509760, Note_on_c, 0, 94, 0
1, 509760, Note_on_c, 0, 99, 0
1, 510000, Tempo, 468750
1, 510000, Note_on_c, 0, 67, 0
1, 510000, Note_on_c, 0, 63, 0
1, 510000, Note_on_c, 0, 73, 0
1, 510000, Note_on_c, 0, 68, 65
1, 510000, Note_on_c, 0, 72, 77
1, 510007, Control_c, 0, 64, 0
1, 510106, Control_c, 0, 64, 127
1, 510120, Note_on_c, 0, 75, 60
1, 510240, Note_on_c, 0, 75, 0
1, 510240, Note_on_c, 0, 87, 62
1, 510240, Note_on_c, 0, 80, 52
1, 510360, Note_on_c, 0, 80, 0
1, 510360, Note_on_c, 0, 87, 0
1, 510360, Note_on_c, 0, 87, 64
1, 510480, Tempo, 451128
1, 510480, Note_on_c, 0, 87, 0
1, 510480, Note_on_c, 0, 72, 0
1, 510480, Note_on_c, 0, 68, 0
1, 510480, Note_on_c, 0, 99, 65
1, 510480, Note_on_c, 0, 92, 55
1, 510480, Note_on_c, 0, 67, 63
1, 510480, Note_on_c, 0, 70, 75
1, 510492, Control_c, 0, 64, 0
1, 510558, Control_c, 0, 64, 127
1, 510600, Note_on_c, 0, 70, 0
1, 510600, Note_on_c, 0, 99, 0
1, 510600, Note_on_c, 0, 92, 0
1, 510600, Note_on_c, 0, 67, 0
1, 510600, Note_on_c, 0, 87, 60
1, 510720, Note_on_c, 0, 87, 0
1, 510720, Note_on_c, 0, 99, 64
1, 510720, Note_on_c, 0, 92, 54
1, 510720, Note_on_c, 0, 65, 63
1, 510720, Note_on_c, 0, 68, 75
1, 510840, Note_on_c, 0, 68, 0
1, 510840, Note_on_c, 0, 99, 0
1, 510840, Note_on_c, 0, 92, 0
1, 510840, Note_on_c, 0, 65, 0
1, 510840, Note_on_c, 0, 87, 60
1, 510960, Tempo, 465116
1, 510960, Note_on_c, 0, 87, 0
1, 510960, Note_on_c, 0, 63, 67
1, 510960, Note_on_c, 0, 67, 79
1, 510970, Control_c, 0, 64, 0
1, 511045, Control_c, 0, 64, 127
1, 511080, Note_on_c, 0, 67, 0
1, 511080, Note_on_c, 0, 63, 0
1, 511080, Note_on_c, 0, 70, 60
1, 511200, Note_on_c, 0, 70, 0
1, 511200, Note_on_c, 0, 82, 63
1, 511200, Note_on_c, 0, 75, 53
1, 511200, Note_on_c, 0, 58, 63
1, 511200, Note_on_c, 0, 65, 75
1, 511320, Note_on_c, 0, 65, 0
1, 511320, Note_on_c, 0, 82, 0
1, 511320, Note_on_c, 0, 75, 0
1, 511320, Note_on_c, 0, 58, 0
1, 511320, Note_on_c, 0, 82, 60
1, 511440, Tempo, 483871
1, 511440, Note_on_c, 0, 82, 0
1, 511440, Note_on_c, 0, 94, 64
1, 511440, Note_on_c, 0, 87, 54
1, 511440, Note_on_c, 0, 55, 63
1, 511440, Note_on_c, 0, 63, 75
1, 511452, Control_c, 0, 64, 0
1, 511546, Control_c, 0, 64, 127
1, 511560, Note_on_c, 0, 63, 0
1, 511560, Note_on_c, 0, 94, 0
1, 511560, Note_on_c, 0, 87, 0
1, 511560, Note_on_c, 0, 55, 0
1, 511560, Note_on_c, 0, 82, 60
1, 511680, Note_on_c, 0, 82, 0
1, 511680, Note_on_c, 0, 94, 64
1, 511680, Note_on_c, 0, 87, 54
1, 511680, Note_on_c, 0, 63, 64
1, 511680, Note_on_c, 0, 67, 76
1, 511800, Note_on_c, 0, 67, 0
1, 511800, Note_on_c, 0, 94, 0
1, 511800, Note_on_c, 0, 87, 0
1, 511800, Note_on_c, 0, 63, 0
1, 511800, Note_on_c, 0, 82, 60
1, 511920, Tempo, 465116
1, 511920, Note_on_c, 0, 82, 0
1, 511920, Note_on_c, 0, 65, 68
1, 511920, Note_on_c, 0, 68, 80
1, 511938, Control_c, 0, 64, 0
1, 511989, Control_c, 0, 64, 127
1, 512040, Note_on_c, 0, 70, 60
1, 512160, Note_on_c, 0, 70, 0
1, 512160, Note_on_c, 0, 82, 63
1, 512160, Note_on_c, 0, 74, 53
1, 512280, Note_on_c, 0, 74, 0
1, 512280, Note_on_c, 0, 65, 0
1, 512280, Note_on_c, 0, 68, 0
1, 512280, Note_on_c, 0, 82, 0
1, 512280, Note_on_c, 0, 82, 60
1, 512280, Note_on_c, 0, 64, 63
1, 512280, Note_on_c, 0, 67, 75
1, 512400, Tempo, 451128
1, 512400, Note_on_c, 0, 67, 0
1, 512400, Note_on_c, 0, 64, 0
1, 512400, Note_on_c, 0, 82, 0
1, 512400, Note_on_c, 0, 94, 64
1, 512400, Note_on_c, 0, 86, 54
1, 512400, Note_on_c, 0, 65, 63
1, 512400, Note_on_c, 0, 68, 75
1, 512412, Control_c, 0, 64, 0
1, 512469, Control_c, 0, 64, 127
1, 512520, Tempo, 449405
1, 512520, Note_on_c, 0, 68, 0
1, 512520, Note_on_c, 0, 94, 0
1, 512520, Note_on_c, 0, 86, 0
1, 512520, Note_on_c, 0, 65, 0
1, 512520, Note_on_c, 0, 82, 60
1, 512640, Note_on_c, 0, 82, 0
1, 512640, Note_on_c, 0, 94, 64
1, 512640, Note_on_c, 0, 86, 54
1, 512640, Note_on_c, 0, 66, 66
1, 512640, Note_on_c, 0, 69, 78
1, 512760, Note_on_c, 0, 69, 0
1, 512760, Note_on_c, 0, 94, 0
1, 512760, Note_on_c, 0, 86, 0
1, 512760, Note_on_c, 0, 66, 0
1, 512760, Note_on_c, 0, 82, 60
1, 512880, Tempo, 472441
1, 512880, Note_on_c, 0, 82, 0
1, 512880, Note_on_c, 0, 67, 68
1, 512880, Note_on_c, 0, 70, 80
1, 512902, Control_c, 0, 64, 0
1, 512983, Control_c, 0, 64, 127
1, 513000, Note_on_c, 0, 70, 0
1, 513000, Note_on_c, 0, 67, 0
1, 513000, Note_on_c, 0, 70, 60
1, 513120, Note_on_c, 0, 70, 0
1, 513120, Note_on_c, 0, 82, 63
1, 513120, Note_on_c, 0, 75, 53
1, 513240, Note_on_c, 0, 75, 0
1, 513240, Note_on_c, 0, 82, 0
1, 513240, Note_on_c, 0, 82, 60
1, 513360, Note_on_c, 0, 82, 0
1, 513360, Note_on_c, 0, 94, 64
1, 513360, Note_on_c, 0, 87, 54
1, 513360, Note_on_c, 0, 63, 68
1, 513360, Note_on_c, 0, 67, 68
1, 513360, Note_on_c, 0, 73, 80
1, 513480, Note_on_c, 0, 87, 0
1, 513480, Note_on_c, 0, 94, 0
1, 513480, Note_on_c, 0, 82, 60
1, 513600, Note_on_c, 0, 82, 0
1, 513600, Note_on_c, 0, 94, 64
1, 513600, Note_on_c, 0, 87, 54
1, 513720, Note_on_c, 0, 87, 0
1, 513720, Note_on_c, 0, 94, 0
1, 513720, Note_on_c, 0, 82, 60
1, 513840, Tempo, 466890
1, 513840, Note_on_c, 0, 82, 0
1, 513840, Note_on_c, 0, 73, 0
1, 513840, Note_on_c, 0, 63, 0
1, 513840, Note_on_c, 0, 67, 0
1, 513840, Note_on_c, 0, 68, 65
1, 513840, Note_on_c, 0, 72, 77
1, 513847, Control_c, 0, 64, 0
1, 513946, Control_c, 0, 64, 127
1, 513960, Note_on_c, 0, 75, 60
1, 514080, Note_on_c, 0, 75, 0
1, 514080, Note_on_c, 0, 87, 62
1, 514080, Note_on_c, 0, 80, 52
1, 514200, Note_on_c, 0, 80, 0
1, 514200, Note_on_c, 0, 87, 0
1, 514200, Note_on_c, 0, 87, 64
1, 514320, Tempo, 451094
1, 514320, Note_on_c, 0, 87, 0
1, 514320, Note_on_c, 0, 72, 0
1, 514320, Note_on_c, 0, 68, 0
1, 514320, Note_on_c, 0, 99, 65
1, 514320, Note_on_c, 0, 92, 55
1, 514320, Note_on_c, 0, 67, 63
1, 514320, Note_on_c, 0, 70, 75
1, 514332, Control_c, 0, 64, 0
1, 514398, Control_c, 0, 64, 127
1, 514440, Tempo, 447728
1, 514440, Note_on_c, 0, 70, 0
1, 514440, Note_on_c, 0, 99, 0
1, 514440, Note_on_c, 0, 92, 0
1, 514440, Note_on_c, 0, 67, 0
1, 514440, Note_on_c, 0, 87, 60
1, 514560, Note_on_c, 0, 87, 0
1, 514560, Note_on_c, 0, 99, 64
1, 514560, Note_on_c, 0, 92, 54
1, 514560, Note_on_c, 0, 65, 63
1, 514560, Note_on_c, 0, 68, 75
1, 514680, Note_on_c, 0, 68, 0
1, 514680, Note_on_c, 0, 99, 0
1, 514680, Note_on_c, 0, 92, 0
1, 514680, Note_on_c, 0, 65, 0
1, 514680, Note_on_c, 0, 87, 60
1, 514800, Tempo, 472441
1, 514800, Note_on_c, 0, 87, 0
1, 514800, Note_on_c, 0, 63, 67
1, 514800, Note_on_c, 0, 67, 79
1, 514810, Control_c, 0, 64, 0
1, 514885, Control_c, 0, 64, 127
1, 514920, Note_on_c, 0, 67, 0
1, 514920, Note_on_c, 0, 63, 0
1, 514920, Note_on_c, 0, 70, 60
1, 515040, Note_on_c, 0, 70, 0
1, 515040, Note_on_c, 0, 82, 63
1, 515040, Note_on_c, 0, 75, 53
1, 515040, Note_on_c, 0, 58, 63
1, 515040, Note_on_c, 0, 65, 75
1, 515160, Note_on_c, 0, 65, 0
1, 515160, Note_on_c, 0, 82, 0
1, 515160, Note_on_c, 0, 75, 0
1, 515160, Note_on_c, 0, 58, 0
1, 515160, Note_on_c, 0, 82, 60
1, 515280, Tempo, 483871
1, 515280, Note_on_c, 0, 82, 0
1, 515280, Note_on_c, 0, 94, 64
1, 515280, Note_on_c, 0, 87, 54
1, 515280, Note_on_c, 0, 55, 63
1, 515280, Note_on_c, 0, 63, 75
1, 515292, Control_c, 0, 64, 0
1, 515386, Control_c, 0, 64, 127
1, 515400, Note_on_c, 0, 63, 0
1, 515400, Note_on_c, 0, 94, 0
1, 515400, Note_on_c, 0, 87, 0
1, 515400, Note_on_c, 0, 55, 0
1, 515400, Note_on_c, 0, 82, 60
1, 515520, Note_on_c, 0, 82, 0
1, 515520, Note_on_c, 0, 94, 64
1, 515520, Note_on_c, 0, 87, 54
1, 515520, Note_on_c, 0, 63, 64
1, 515520, Note_on_c, 0, 67, 76
1, 515640, Note_on_c, 0, 67, 0
1, 515640, Note_on_c, 0, 94, 0
1, 515640, Note_on_c, 0, 87, 0
1, 515640, Note_on_c, 0, 63, 0
1, 515640, Note_on_c, 0, 82, 60
1, 515760, Tempo, 465116
1, 515760, Note_on_c, 0, 82, 0
1, 515760, Note_on_c, 0, 65, 68
1, 515760, Note_on_c, 0, 68, 80
1, 515778, Control_c, 0, 64, 0
1, 515829, Control_c, 0, 64, 127
1, 515880, Tempo, 459735
1, 515880, Note_on_c, 0, 70, 60
1, 516000, Note_on_c, 0, 70, 0
1, 516000, Note_on_c, 0, 82, 63
1, 516000, Note_on_c, 0, 74, 53
1, 516120, Note_on_c, 0, 74, 0
1, 516120, Note_on_c, 0, 65, 0
1, 516120, Note_on_c, 0, 68, 0
1, 516120, Note_on_c, 0, 82, 0
1, 516120, Note_on_c, 0, 82, 60
1, 516120, Note_on_c, 0, 64, 63
1, 516120, Note_on_c, 0, 67, 75
1, 516240, Tempo, 449405
1, 516240, Note_on_c, 0, 67, 0
1, 516240, Note_on_c, 0, 64, 0
1, 516240, Note_on_c, 0, 82, 0
1, 516240, Note_on_c, 0, 94, 64
1, 516240, Note_on_c, 0, 86, 54
1, 516240, Note_on_c, 0, 65, 63
1, 516240, Note_on_c, 0, 68, 75
1, 516252, Control_c, 0, 64, 0
1, 516309, Control_c, 0, 64, 127
1, 516360, Note_on_c, 0, 68, 0
1, 516360, Note_on_c, 0, 94, 0
1, 516360, Note_on_c, 0, 86, 0
1, 516360, Note_on_c, 0, 65, 0
1, 516360, Note_on_c, 0, 82, 60
1, 516480, Note_on_c, 0, 82, 0
1, 516480, Note_on_c, 0, 94, 64
1, 516480, Note_on_c, 0, 86, 54
1, 516480, Note_on_c, 0, 58, 66
1, 516480, Note_on_c, 0, 65, 78
1, 516600, Note_on_c, 0, 65, 0
1, 516600, Note_on_c, 0, 94, 0
1, 516600, Note_on_c, 0, 86, 0
1, 516600, Note_on_c, 0, 58, 0
1, 516600, Note_on_c, 0, 82, 60
1, 516720, Tempo, 472441
1, 516720, Note_on_c, 0, 82, 0
1, 516720, Note_on_c, 0, 87, 53
1, 516720, Note_on_c, 0, 94, 63
1, 516720, Note_on_c, 0, 55, 68
1, 516720, Note_on_c, 0, 63, 80
1, 516742, Control_c, 0, 64, 0
1, 516823, Control_c, 0, 64, 127
1, 516840, Tempo, 472441
1, 516840, Note_on_c, 0, 63, 0
1, 516840, Note_on_c, 0, 87, 0
1, 516840, Note_on_c, 0, 94, 0
1, 516840, Note_on_c, 0, 55, 0
1, 517017, Control_c, 0, 64, 0
1, 517200, Tempo, 461538
1, 517200, Note_on_c, 0, 82, 75
1, 517200, Note_on_c, 0, 39, 65
1, 517200, Note_on_c, 0, 51, 77
1, 517212, Control_c, 0, 64, 127
1, 517320, Note_on_c, 0, 82, 0
1, 517320, Note_on_c, 0, 97, 60
1, 517440, Note_on_c, 0, 97, 0
1, 517440, Note_on_c, 0, 51, 0
1, 517440, Note_on_c, 0, 39, 0
1, 517440, Note_on_c, 0, 87, 67
1, 517440, Note_on_c, 0, 43, 61
1, 517440, Note_on_c, 0, 55, 72
1, 517560, Note_on_c, 0, 87, 0
1, 517560, Note_on_c, 0, 97, 60
1, 517680, Tempo, 454511
1, 517680, Note_on_c, 0, 97, 0
1, 517680, Note_on_c, 0, 55, 0
1, 517680, Note_on_c, 0, 43, 0
1, 517680, Note_on_c, 0, 80, 72
1, 517680, Note_on_c, 0, 44, 68
1, 517680, Note_on_c, 0, 56, 80
1, 517696, Control_c, 0, 64, 0
1, 517732, Control_c, 0, 64, 127
1, 517800, Note_on_c, 0, 80, 0
1, 517800, Note_on_c, 0, 96, 57
1, 517920, Note_on_c, 0, 96, 0
1, 517920, Note_on_c, 0, 56, 0
1, 517920, Note_on_c, 0, 44, 0
1, 517920, Note_on_c, 0, 87, 57
1, 517920, Note_on_c, 0, 48, 62
1, 517920, Note_on_c, 0, 60, 73
1, 518040, Note_on_c, 0, 87, 0
1, 518040, Note_on_c, 0, 96, 57
1, 518160, Tempo, 441176
1, 518160, Note_on_c, 0, 96, 0
1, 518160, Note_on_c, 0, 60, 0
1, 518160, Note_on_c, 0, 48, 0
1, 518160, Note_on_c, 0, 79, 69
1, 518160, Note_on_c, 0, 51, 62
1, 518160, Note_on_c, 0, 63, 73
1, 518180, Control_c, 0, 64, 0
1, 518229, Control_c, 0, 64, 127
1, 518280, Note_on_c, 0, 79, 0
1, 518280, Note_on_c, 0, 94, 56
1, 518400, Note_on_c, 0, 94, 0
1, 518400, Note_on_c, 0, 63, 0
1, 518400, Note_on_c, 0, 51, 0
1, 518400, Note_on_c, 0, 77, 67
1, 518400, Note_on_c, 0, 56, 62
1, 518400, Note_on_c, 0, 68, 73
1, 518520, Tempo, 458015
1, 518520, Note_on_c, 0, 77, 0
1, 518520, Note_on_c, 0, 92, 56
1, 518640, Tempo, 454545
1, 518640, Note_on_c, 0, 92, 0
1, 518640, Note_on_c, 0, 68, 0
1, 518640, Note_on_c, 0, 56, 0
1, 518640, Note_on_c, 0, 75, 67
1, 518640, Note_on_c, 0, 58, 62
1, 518640, Note_on_c, 0, 70, 73
1, 518664, Control_c, 0, 64, 0
1, 518732, Control_c, 0, 64, 127
1, 518760, Note_on_c, 0, 75, 0
1, 518760, Note_on_c, 0, 91, 56
1, 518880, Note_on_c, 0, 91, 0
1, 518880, Note_on_c, 0, 74, 66
1, 519000, Note_on_c, 0, 74, 0
1, 519000, Note_on_c, 0, 90, 56
1, 519120, Tempo, 465116
1, 519120, Note_on_c, 0, 90, 0
1, 519120, Note_on_c, 0, 70, 0
1, 519120, Note_on_c, 0, 58, 0
1, 519120, Note_on_c, 0, 75, 67
1, 519120, Note_on_c, 0, 39, 65
1, 519120, Note_on_c, 0, 51, 77
1, 519137, Control_c, 0, 64, 0
1, 519195, Control_c, 0, 64, 127
1, 519240, Note_on_c, 0, 75, 0
1, 519240, Note_on_c, 0, 91, 56
1, 519360, Note_on_c, 0, 91, 0
1, 519360, Note_on_c, 0, 51, 0
1, 519360, Note_on_c, 0, 39, 0
1, 519360, Note_on_c, 0, 76, 68
1, 519360, Note_on_c, 0, 43, 61
1, 519360, Note_on_c, 0, 55, 72
1, 519480, Note_on_c, 0, 76, 0
1, 519480, Note_on_c, 0, 91, 57
1, 519600, Tempo, 456239
1, 519600, Note_on_c, 0, 91, 0
1, 519600, Note_on_c, 0, 55, 0
1, 519600, Note_on_c, 0, 43, 0
1, 519600, Note_on_c, 0, 77, 67
1, 519600, Note_on_c, 0, 46, 68
1, 519600, Note_on_c, 0, 58, 80
1, 519615, Control_c, 0, 64, 0
1, 519663, Control_c, 0, 64, 127
1, 519720, Note_on_c, 0, 77, 0
1, 519720, Note_on_c, 0, 92, 60
1, 519840, Note_on_c, 0, 92, 0
1, 519840, Note_on_c, 0, 58, 0
1, 519840, Note_on_c, 0, 46, 0
1, 519840, Note_on_c, 0, 76, 66
1, 519840, Note_on_c, 0, 50, 58
1, 519840, Note_on_c, 0, 62, 69
1, 519960, Note_on_c, 0, 76, 0
1, 519960, Note_on_c, 0, 91, 60
1, 520080, Tempo, 441176
1, 520080, Note_on_c, 0, 91, 0
1, 520080, Note_on_c, 0, 62, 0
1, 520080, Note_on_c, 0, 50, 0
1, 520080, Note_on_c, 0, 77, 67
1, 520080, Note_on_c, 0, 53, 62
1, 520080, Note_on_c, 0, 65, 73
1, 520106, Control_c, 0, 64, 0
1, 520160, Control_c, 0, 64, 127
1, 520200, Note_on_c, 0, 77, 0
1, 520200, Note_on_c, 0, 92, 57
1, 520320, Note_on_c, 0, 92, 0
1, 520320, Note_on_c, 0, 65, 0
1, 520320, Note_on_c, 0, 53, 0
1, 520320, Note_on_c, 0, 78, 65
1, 520320, Note_on_c, 0, 66, 65
1, 520320, Note_on_c, 0, 57, 65
1, 520320, Note_on_c, 0, 69, 77
1, 520440, Tempo, 461538
1, 520440, Note_on_c, 0, 78, 0
1, 520440, Note_on_c, 0, 93, 57
1, 520560, Tempo, 458015
1, 520560, Note_on_c, 0, 93, 0
1, 520560, Note_on_c, 0, 69, 0
1, 520560, Note_on_c, 0, 57, 0
1, 520560, Note_on_c, 0, 66, 0
1, 520560, Note_on_c, 0, 79, 70
1, 520560, Note_on_c, 0, 67, 69
1, 520560, Note_on_c, 0, 58, 69
1, 520560, Note_on_c, 0, 70, 82
1, 520580, Control_c, 0, 64, 0
1, 520646, Control_c, 0, 64, 127
1, 520680, Note_on_c, 0, 79, 0
1, 520680, Note_on_c, 0, 94, 58
1, 520800, Note_on_c, 0, 94, 0
1, 520800, Note_on_c, 0, 87, 58
1, 520920, Tempo, 465116
1, 520920, Note_on_c, 0, 87, 0
1, 520920, Note_on_c, 0, 94, 58
1, 521040, Tempo, 472441
1, 521040, Note_on_c, 0, 94, 0
1, 521040, Note_on_c, 0, 70, 0
1, 521040, Note_on_c, 0, 58, 0
1, 521040, Note_on_c, 0, 67, 0
1, 521040, Note_on_c, 0, 82, 75
1, 521040, Note_on_c, 0, 39, 65
1, 521040, Note_on_c, 0, 51, 77
1, 521063, Control_c, 0, 64, 0
1, 521115, Control_c, 0, 64, 127
1, 521160, Note_on_c, 0, 82, 0
1, 521160, Note_on_c, 0, 97, 60
1, 521280, Note_on_c, 0, 97, 0
1, 521280, Note_on_c, 0, 51, 0
1, 521280, Note_on_c, 0, 39, 0
1, 521280, Note_on_c, 0, 87, 67
1, 521280, Note_on_c, 0, 43, 61
1, 521280, Note_on_c, 0, 55, 72
1, 521400, Note_on_c, 0, 87, 0
1, 521400, Note_on_c, 0, 97, 60
1, 521520, Tempo, 458015
1, 521520, Note_on_c, 0, 97, 0
1, 521520, Note_on_c, 0, 55, 0
1, 521520, Note_on_c, 0, 43, 0
1, 521520, Note_on_c, 0, 80, 72
1, 521520, Note_on_c, 0, 44, 68
1, 521520, Note_on_c, 0, 56, 80
1, 521536, Control_c, 0, 64, 0
1, 521572, Control_c, 0, 64, 127
1, 521640, Tempo, 452796
1, 521640, Note_on_c, 0, 80, 0
1, 521640, Note_on_c, 0, 96, 57
1, 521760, Note_on_c, 0, 96, 0
1, 521760, Note_on_c, 0, 56, 0
1, 521760, Note_on_c, 0, 44, 0
1, 521760, Note_on_c, 0, 87, 57
1, 521760, Note_on_c, 0, 48, 62
1, 521760, Note_on_c, 0, 60, 73
1, 521880, Note_on_c, 0, 87, 0
1, 521880, Note_on_c, 0, 96, 57
1, 522000, Tempo, 441176
1, 522000, Note_on_c, 0, 96, 0
1, 522000, Note_on_c, 0, 60, 0
1, 522000, Note_on_c, 0, 48, 0
1, 522000, Note_on_c, 0, 79, 69
1, 522000, Note_on_c, 0, 51, 62
1, 522000, Note_on_c, 0, 63, 73
1, 522020, Control_c, 0, 64, 0
1, 522092, Control_c, 0, 64, 127
1, 522120, Tempo, 437924
1, 522120, Note_on_c, 0, 79, 0
1, 522120, Note_on_c, 0, 94, 56
1, 522240, Note_on_c, 0, 94, 0
1, 522240, Note_on_c, 0, 63, 0
1, 522240, Note_on_c, 0, 51, 0
1, 522240, Note_on_c, 0, 77, 67
1, 522240, Note_on_c, 0, 56, 62
1, 522240, Note_on_c, 0, 68, 73
1, 522360, Note_on_c, 0, 77, 0
1, 522360, Note_on_c, 0, 92, 56
1, 522480, Tempo, 454545
1, 522480, Note_on_c, 0, 92, 0
1, 522480, Note_on_c, 0, 68, 0
1, 522480, Note_on_c, 0, 56, 0
1, 522480, Note_on_c, 0, 75, 67
1, 522480, Note_on_c, 0, 58, 62
1, 522480, Note_on_c, 0, 70, 73
1, 522504, Control_c, 0, 64, 0
1, 522572, Control_c, 0, 64, 127
1, 522600, Note_on_c, 0, 75, 0
1, 522600, Note_on_c, 0, 91, 56
1, 522720, Note_on_c, 0, 91, 0
1, 522720, Note_on_c, 0, 74, 66
1, 522840, Note_on_c, 0, 74, 0
1, 522840, Note_on_c, 0, 90, 56
1, 522960, Tempo, 465116
1, 522960, Note_on_c, 0, 90, 0
1, 522960, Note_on_c, 0, 70, 0
1, 522960, Note_on_c, 0, 58, 0
1, 522960, Note_on_c, 0, 75, 67
1, 522960, Note_on_c, 0, 39, 65
1, 522960, Note_on_c, 0, 51, 77
1, 522977, Control_c, 0, 64, 0
1, 523035, Control_c, 0, 64, 127
1, 523080, Note_on_c, 0, 75, 0
1, 523080, Note_on_c, 0, 91, 56
1, 523200, Note_on_c, 0, 91, 0
1, 523200, Note_on_c, 0, 51, 0
1, 523200, Note_on_c, 0, 39, 0
1, 523200, Note_on_c, 0, 76, 68
1, 523200, Note_on_c, 0, 43, 61
1, 523200, Note_on_c, 0, 55, 72
1, 523320, Note_on_c, 0, 76, 0
1, 523320, Note_on_c, 0, 91, 57
1, 523440, Tempo, 461538
1, 523440, Note_on_c, 0, 91, 0
1, 523440, Note_on_c, 0, 55, 0
1, 523440, Note_on_c, 0, 43, 0
1, 523440, Note_on_c, 0, 77, 67
1, 523440, Note_on_c, 0, 46, 68
1, 523440, Note_on_c, 0, 58, 80
1, 523455, Control_c, 0, 64, 0
1, 523503, Control_c, 0, 64, 127
1, 523560, Tempo, 454511
1, 523560, Note_on_c, 0, 77, 0
1, 523560, Note_on_c, 0, 92, 60
1, 523680, Note_on_c, 0, 92, 0
1, 523680, Note_on_c, 0, 58, 0
1, 523680, Note_on_c, 0, 46, 0
1, 523680, Note_on_c, 0, 76, 66
1, 523680, Note_on_c, 0, 50, 58
1, 523680, Note_on_c, 0, 62, 69
1, 523800, Note_on_c, 0, 76, 0
1, 523800, Note_on_c, 0, 91, 60
1, 523920, Tempo, 441176
1, 523920, Note_on_c, 0, 91, 0
1, 523920, Note_on_c, 0, 62, 0
1, 523920, Note_on_c, 0, 50, 0
1, 523920, Note_on_c, 0, 77, 67
1, 523920, Note_on_c, 0, 53, 62
1, 523920, Note_on_c, 0, 65, 73
1, 523946, Control_c, 0, 64, 0
1, 524000, Control_c, 0, 64, 127
1, 524040, Note_on_c, 0, 77, 0
1, 524040, Note_on_c, 0, 92, 57
1, 524160, Note_on_c, 0, 92, 0
1, 524160, Note_on_c, 0, 65, 0
1, 524160, Note_on_c, 0, 53, 0
1, 524160, Note_on_c, 0, 78, 65
1, 524160, Note_on_c, 0, 66, 65
1, 524160, Note_on_c, 0, 57, 65
1, 524160, Note_on_c, 0, 69, 77
1, 524280, Note_on_c, 0, 78, 0
1, 524280, Note_on_c, 0, 93, 57
1, 524400, Tempo, 458015
1, 524400, Note_on_c, 0, 93, 0
1, 524400, Note_on_c, 0, 69, 0
1, 524400, Note_on_c, 0, 57, 0
1, 524400, Note_on_c, 0, 66, 0
1, 524400, Note_on_c, 0, 79, 70
1, 524400, Note_on_c, 0, 67, 69
1, 524400, Note_on_c, 0, 58, 69
1, 524400, Note_on_c, 0, 70, 82
1, 524420, Control_c, 0, 64, 0
1, 524486, Control_c, 0, 64, 127
1, 524520, Note_on_c, 0, 79, 0
1, 524520, Note_on_c, 0, 94, 58
1, 524640, Note_on_c, 0, 94, 0
1, 524640, Note_on_c, 0, 87, 58
1, 524760, Note_on_c, 0, 87, 0
1, 524760, Note_on_c, 0, 94, 58
1, 524880, Tempo, 465116
1, 524880, Note_on_c, 0, 94, 0
1, 524880, Note_on_c, 0, 70, 0
1, 524880, Note_on_c, 0, 58, 0
1, 524880, Note_on_c, 0, 67, 0
1, 524880, Note_on_c, 0, 82, 75
1, 524880, Note_on_c, 0, 39, 65
1, 524880, Note_on_c, 0, 51, 77
1, 524903, Control_c, 0, 64, 0
1, 524955, Control_c, 0, 64, 127
1, 525000, Note_on_c, 0, 82, 0
1, 525000, Note_on_c, 0, 97, 60
1, 525120, Note_on_c, 0, 97, 0
1, 525120, Note_on_c, 0, 51, 0
1, 525120, Note_on_c, 0, 39, 0
1, 525120, Note_on_c, 0, 87, 67
1, 525120, Note_on_c, 0, 43, 61
1, 525120, Note_on_c, 0, 55, 72
1, 525240, Note_on_c, 0, 87, 0
1, 525240, Note_on_c, 0, 97, 60
1, 525360, Tempo, 461538
1, 525360, Note_on_c, 0, 97, 0
1, 525360, Note_on_c, 0, 55, 0
1, 525360, Note_on_c, 0, 43, 0
1, 525360, Note_on_c, 0, 80, 72
1, 525360, Note_on_c, 0, 44, 68
1, 525360, Note_on_c, 0, 56, 80
1, 525376, Control_c, 0, 64, 0
1, 525412, Control_c, 0, 64, 127
1, 525480, Note_on_c, 0, 80, 0
1, 525480, Note_on_c, 0, 96, 57
1, 525600, Note_on_c, 0, 96, 0
1, 525600, Note_on_c, 0, 56, 0
1, 525600, Note_on_c, 0, 44, 0
1, 525600, Note_on_c, 0, 87, 57
1, 525600, Note_on_c, 0, 48, 62
1, 525600, Note_on_c, 0, 60, 73
1, 525720, Note_on_c, 0, 87, 0
1, 525720, Note_on_c, 0, 96, 57
1, 525840, Tempo, 444444
1, 525840, Note_on_c, 0, 96, 0
1, 525840, Note_on_c, 0, 60, 0
1, 525840, Note_on_c, 0, 48, 0
1, 525840, Note_on_c, 0, 79, 69
1, 525840, Note_on_c, 0, 51, 62
1, 525840, Note_on_c, 0, 63, 73
1, 525860, Control_c, 0, 64, 0
1, 525932, Control_c, 0, 64, 127
1, 525960, Note_on_c, 0, 79, 0
1, 525960, Note_on_c, 0, 94, 56
1, 526080, Note_on_c, 0, 94, 0
1, 526080, Note_on_c, 0, 63, 0
1, 526080, Note_on_c, 0, 51, 0
1, 526080, Note_on_c, 0, 77, 67
1, 526080, Note_on_c, 0, 56, 62
1, 526080, Note_on_c, 0, 68, 73
1, 526200, Note_on_c, 0, 77, 0
1, 526200, Note_on_c, 0, 92, 56
1, 526320, Tempo, 461538
1, 526320, Note_on_c, 0, 92, 0
1, 526320, Note_on_c, 0, 68, 0
1, 526320, Note_on_c, 0, 56, 0
1, 526320, Note_on_c, 0, 75, 67
1, 526320, Note_on_c, 0, 58, 62
1, 526320, Note_on_c, 0, 70, 73
1, 526344, Control_c, 0, 64, 0
1, 526412, Control_c, 0, 64, 127
1, 526440, Note_on_c, 0, 75, 0
1, 526440, Note_on_c, 0, 91, 56
1, 526560, Note_on_c, 0, 91, 0
1, 526560, Note_on_c, 0, 74, 66
1, 526680, Note_on_c, 0, 74, 0
1, 526680, Note_on_c, 0, 90, 56
1, 526800, Tempo, 444444
1, 526800, Note_on_c, 0, 90, 0
1, 526800, Note_on_c, 0, 70, 0
1, 526800, Note_on_c, 0, 58, 0
1, 526800, Note_on_c, 0, 75, 67
1, 526817, Control_c, 0, 64, 0
1, 526875, Control_c, 0, 64, 127
1, 526920, Note_on_c, 0, 75, 0
1, 526920, Note_on_c, 0, 91, 56
1, 527040, Note_on_c, 0, 91, 0
1, 527040, Note_on_c, 0, 63, 54
1, 527040, Note_on_c, 0, 75, 64
1, 527160, Note_on_c, 0, 79, 48
1, 527160, Note_on_c, 0, 91, 57
1, 527280, Tempo, 422535
1, 527280, Note_on_c, 0, 91, 0
1, 527280, Note_on_c, 0, 63, 0
1, 527280, Note_on_c, 0, 75, 0
1, 527280, Note_on_c, 0, 79, 0
1, 527280, Note_on_c, 0, 62, 51
1, 527280, Note_on_c, 0, 74, 72
1, 527295, Control_c, 0, 64, 0
1, 527344, Control_c, 0, 64, 127
1, 527400, Note_on_c, 0, 74, 0
1, 527400, Note_on_c, 0, 62, 0
1, 527400, Note_on_c, 0, 80, 51
1, 527400, Note_on_c, 0, 92, 61
1, 527520, Tempo, 441176
1, 527520, Note_on_c, 0, 92, 0
1, 527520, Note_on_c, 0, 80, 0
1, 527520, Note_on_c, 0, 65, 44
1, 527520, Note_on_c, 0, 77, 62
1, 527640, Note_on_c, 0, 77, 0
1, 527640, Note_on_c, 0, 65, 0
1, 527640, Note_on_c, 0, 79, 49
1, 527640, Note_on_c, 0, 91, 58
1, 527760, Tempo, 422535
1, 527760, Note_on_c, 0, 91, 0
1, 527760, Note_on_c, 0, 79, 0
1, 527760, Note_on_c, 0, 61, 59
1, 527760, Note_on_c, 0, 73, 70
1, 527774, Control_c, 0, 64, 0
1, 527831, Control_c, 0, 64, 127
1, 527880, Note_on_c, 0, 73, 0
1, 527880, Note_on_c, 0, 61, 0
1, 527880, Note_on_c, 0, 80, 50
1, 527880, Note_on_c, 0, 92, 59
1, 528000, Tempo, 441176
1, 528000, Note_on_c, 0, 92, 0
1, 528000, Note_on_c, 0, 80, 0
1, 528000, Note_on_c, 0, 65, 55
1, 528000, Note_on_c, 0, 77, 65
1, 528120, Note_on_c, 0, 77, 0
1, 528120, Note_on_c, 0, 65, 0
1, 528120, Note_on_c, 0, 79, 46
1, 528120, Note_on_c, 0, 91, 55
1, 528220, Tempo, 413793
1, 528240, Tempo, 419580
1, 528240, Note_on_c, 0, 91, 0
1, 528240, Note_on_c, 0, 79, 0
1, 528240, Note_on_c, 0, 60, 51
1, 528240, Note_on_c, 0, 72, 72
1, 528246, Control_c, 0, 64, 0
1, 528304, Control_c, 0, 64, 127
1, 528360, Note_on_c, 0, 72, 0
1, 528360, Note_on_c, 0, 60, 0
1, 528360, Note_on_c, 0, 80, 50
1, 528360, Note_on_c, 0, 92, 59
1, 528480, Tempo, 437956
1, 528480, Note_on_c, 0, 92, 0
1, 528480, Note_on_c, 0, 80, 0
1, 528480, Note_on_c, 0, 65, 44
1, 528480, Note_on_c, 0, 77, 62
1, 528600, Note_on_c, 0, 77, 0
1, 528600, Note_on_c, 0, 65, 0
1, 528600, Note_on_c, 0, 79, 47
1, 528600, Note_on_c, 0, 91, 56
1, 528720, Tempo, 419580
1, 528720, Note_on_c, 0, 91, 0
1, 528720, Note_on_c, 0, 79, 0
1, 528720, Note_on_c, 0, 59, 59
1, 528720, Note_on_c, 0, 71, 70
1, 528734, Control_c, 0, 64, 0
1, 528791, Control_c, 0, 64, 127
1, 528840, Note_on_c, 0, 71, 0
1, 528840, Note_on_c, 0, 59, 0
1, 528840, Note_on_c, 0, 80, 49
1, 528840, Note_on_c, 0, 92, 58
1, 528960, Tempo, 428571
1, 528960, Note_on_c, 0, 92, 0
1, 528960, Note_on_c, 0, 80, 0
1, 528960, Note_on_c, 0, 62, 55
1, 528960, Note_on_c, 0, 74, 65
1, 529080, Note_on_c, 0, 74, 0
1, 529080, Note_on_c, 0, 62, 0
1, 529080, Note_on_c, 0, 82, 47
1, 529080, Note_on_c, 0, 79, 47
1, 529080, Note_on_c, 0, 91, 56
1, 529200, Tempo, 405405
1, 529200, Note_on_c, 0, 91, 0
1, 529200, Note_on_c, 0, 79, 0
1, 529200, Note_on_c, 0, 82, 0
1, 529200, Note_on_c, 0, 56, 61
1, 529200, Note_on_c, 0, 68, 72
1, 529215, Control_c, 0, 64, 0
1, 529220, Tempo, 410959
1, 529264, Control_c, 0, 64, 127
1, 529320, Note_on_c, 0, 68, 0
1, 529320, Note_on_c, 0, 56, 0
1, 529320, Note_on_c, 0, 83, 50
1, 529320, Note_on_c, 0, 80, 50
1, 529320, Note_on_c, 0, 92, 59
1, 529440, Tempo, 419580
1, 529440, Note_on_c, 0, 92, 0
1, 529440, Note_on_c, 0, 80, 0
1, 529440, Note_on_c, 0, 83, 0
1, 529440, Note_on_c, 0, 59, 52
1, 529440, Note_on_c, 0, 71, 62
1, 529560, Note_on_c, 0, 71, 0
1, 529560, Note_on_c, 0, 59, 0
1, 529560, Note_on_c, 0, 82, 45
1, 529560, Note_on_c, 0, 79, 45
1, 529560, Note_on_c, 0, 91, 54
1, 529680, Tempo, 402685
1, 529680, Note_on_c, 0, 91, 0
1, 529680, Note_on_c, 0, 79, 0
1, 529680, Note_on_c, 0, 82, 0
1, 529680, Note_on_c, 0, 54, 71
1, 529680, Note_on_c, 0, 66, 71
1, 529694, Control_c, 0, 64, 0
1, 529751, Control_c, 0, 64, 127
1, 529800, Note_on_c, 0, 66, 0
1, 529800, Note_on_c, 0, 54, 0
1, 529800, Note_on_c, 0, 83, 60
1, 529800, Note_on_c, 0, 80, 51
1, 529800, Note_on_c, 0, 92, 60
1, 529920, Tempo, 413793
1, 529920, Note_on_c, 0, 92, 0
1, 529920, Note_on_c, 0, 80, 0
1, 529920, Note_on_c, 0, 83, 0
1, 529920, Note_on_c, 0, 59, 66
1, 529920, Note_on_c, 0, 71, 66
1, 530040, Note_on_c, 0, 71, 0
1, 530040, Note_on_c, 0, 59, 0
1, 530040, Note_on_c, 0, 82, 48
1, 530040, Note_on_c, 0, 79, 48
1, 530040, Note_on_c, 0, 91, 57
1, 530160, Tempo, 402685
1, 530160, Note_on_c, 0, 91, 0
1, 530160, Note_on_c, 0, 79, 0
1, 530160, Note_on_c, 0, 82, 0
1, 530160, Note_on_c, 0, 52, 63
1, 530160, Note_on_c, 0, 64, 74
1, 530166, Control_c, 0, 64, 0
1, 530220, Tempo, 408163
1, 530224, Control_c, 0, 64, 127
1, 530280, Note_on_c, 0, 64, 0
1, 530280, Note_on_c, 0, 52, 0
1, 530280, Note_on_c, 0, 83, 63
1, 530280, Note_on_c, 0, 80, 53
1, 530280, Note_on_c, 0, 92, 63
1, 530400, Tempo, 416667
1, 530400, Note_on_c, 0, 92, 0
1, 530400, Note_on_c, 0, 80, 0
1, 530400, Note_on_c, 0, 83, 0
1, 530400, Note_on_c, 0, 56, 54
1, 530400, Note_on_c, 0, 68, 65
1, 530520, Note_on_c, 0, 68, 0
1, 530520, Note_on_c, 0, 56, 0
1, 530520, Note_on_c, 0, 82, 51
1, 530520, Note_on_c, 0, 79, 51
1, 530520, Note_on_c, 0, 91, 60
1, 530640, Tempo, 402685
1, 530640, Note_on_c, 0, 91, 0
1, 530640, Note_on_c, 0, 79, 0
1, 530640, Note_on_c, 0, 82, 0
1, 530640, Note_on_c, 0, 51, 74
1, 530640, Note_on_c, 0, 63, 74
1, 530654, Control_c, 0, 64, 0
1, 530711, Control_c, 0, 64, 127
1, 530760, Note_on_c, 0, 63, 0
1, 530760, Note_on_c, 0, 51, 0
1, 530760, Note_on_c, 0, 83, 54
1, 530760, Note_on_c, 0, 80, 54
1, 530760, Note_on_c, 0, 92, 63
1, 530880, Tempo, 413793
1, 530880, Note_on_c, 0, 92, 0
1, 530880, Note_on_c, 0, 80, 0
1, 530880, Note_on_c, 0, 83, 0
1, 530880, Note_on_c, 0, 56, 69
1, 530880, Note_on_c, 0, 68, 69
1, 531000, Note_on_c, 0, 68, 0
1, 531000, Note_on_c, 0, 56, 0
1, 531000, Note_on_c, 0, 88, 52
1, 531000, Note_on_c, 0, 79, 52
1, 531000, Note_on_c, 0, 91, 62
1, 531120, Tempo, 402685
1, 531120, Note_on_c, 0, 91, 0
1, 531120, Note_on_c, 0, 79, 0
1, 531120, Note_on_c, 0, 88, 0
1, 531120, Note_on_c, 0, 52, 65
1, 531120, Note_on_c, 0, 64, 77
1, 531126, Control_c, 0, 64, 0
1, 531184, Control_c, 0, 64, 127
1, 531240, Tempo, 401311
1, 531240, Note_on_c, 0, 64, 0
1, 531240, Note_on_c, 0, 52, 0
1, 531240, Note_on_c, 0, 89, 65
1, 531240, Note_on_c, 0, 80, 55
1, 531240, Note_on_c, 0, 92, 65
1, 531360, Tempo, 413793
1, 531360, Note_on_c, 0, 92, 0
1, 531360, Note_on_c, 0, 80, 0
1, 531360, Note_on_c, 0, 89, 0
1, 531360, Note_on_c, 0, 56, 56
1, 531360, Note_on_c, 0, 68, 67
1, 531480, Note_on_c, 0, 68, 0
1, 531480, Note_on_c, 0, 56, 0
1, 531480, Note_on_c, 0, 88, 53
1, 531480, Note_on_c, 0, 79, 53
1, 531480, Note_on_c, 0, 91, 63
1, 531580, Tempo, 402685
1, 531600, Tempo, 397351
1, 531600, Note_on_c, 0, 91, 0
1, 531600, Note_on_c, 0, 79, 0
1, 531600, Note_on_c, 0, 88, 0
1, 531600, Note_on_c, 0, 48, 77
1, 531600, Note_on_c, 0, 60, 77
1, 531614, Control_c, 0, 64, 0
1, 531671, Control_c, 0, 64, 127
1, 531720, Tempo, 394711
1, 531720, Note_on_c, 0, 60, 0
1, 531720, Note_on_c, 0, 48, 0
1, 531720, Note_on_c, 0, 89, 56
1, 531720, Note_on_c, 0, 80, 56
1, 531720, Note_on_c, 0, 92, 66
1, 531840, Tempo, 410959
1, 531840, Note_on_c, 0, 92, 0
1, 531840, Note_on_c, 0, 80, 0
1, 531840, Note_on_c, 0, 89, 0
1, 531840, Note_on_c, 0, 56, 72
1, 531840, Note_on_c, 0, 68, 72
1, 531940, Tempo, 400000
1, 531960, Note_on_c, 0, 68, 0
1, 531960, Note_on_c, 0, 56, 0
1, 531960, Note_on_c, 0, 88, 54
1, 531960, Note_on_c, 0, 79, 54
1, 531960, Note_on_c, 0, 91, 64
1, 532080, Tempo, 389610
1, 532080, Note_on_c, 0, 91, 0
1, 532080, Note_on_c, 0, 79, 0
1, 532080, Note_on_c, 0, 88, 0
1, 532080, Note_on_c, 0, 47, 68
1, 532080, Note_on_c, 0, 59, 80
1, 532086, Control_c, 0, 64, 0
1, 532144, Control_c, 0, 64, 127
1, 532200, Note_on_c, 0, 59, 0
1, 532200, Note_on_c, 0, 47, 0
1, 532200, Note_on_c, 0, 89, 68
1, 532200, Note_on_c, 0, 80, 57
1, 532200, Note_on_c, 0, 92, 68
1, 532300, Tempo, 397351
1, 532320, Tempo, 405405
1, 532320, Note_on_c, 0, 92, 0
1, 532320, Note_on_c, 0, 80, 0
1, 532320, Note_on_c, 0, 89, 0
1, 532320, Note_on_c, 0, 50, 58
1, 532320, Note_on_c, 0, 62, 70
1, 532440, Note_on_c, 0, 62, 0
1, 532440, Note_on_c, 0, 50, 0
1, 532440, Note_on_c, 0, 88, 55
1, 532440, Note_on_c, 0, 79, 55
1, 532440, Note_on_c, 0, 91, 65
1, 532560, Tempo, 387097
1, 532560, Note_on_c, 0, 91, 0
1, 532560, Note_on_c, 0, 79, 0
1, 532560, Note_on_c, 0, 88, 0
1, 532560, Note_on_c, 0, 44, 79
1, 532560, Note_on_c, 0, 56, 79
1, 532574, Control_c, 0, 64, 0
1, 532631, Control_c, 0, 64, 127
1, 532660, Tempo, 394737
1, 532680, Note_on_c, 0, 56, 0
1, 532680, Note_on_c, 0, 44, 0
1, 532680, Note_on_c, 0, 89, 58
1, 532680, Note_on_c, 0, 80, 58
1, 532680, Note_on_c, 0, 92, 68
1, 532800, Tempo, 402685
1, 532800, Note_on_c, 0, 92, 0
1, 532800, Note_on_c, 0, 80, 0
1, 532800, Note_on_c, 0, 89, 0
1, 532800, Note_on_c, 0, 47, 74
1, 532800, Note_on_c, 0, 59, 74
1, 532920, Note_on_c, 0, 59, 0
1, 532920, Note_on_c, 0, 47, 0
1, 532920, Note_on_c, 0, 88, 56
1, 532920, Note_on_c, 0, 79, 56
1, 532920, Note_on_c, 0, 91, 66
1, 533040, Tempo, 384615
1, 533040, Note_on_c, 0, 91, 0
1, 533040, Note_on_c, 0, 79, 0
1, 533040, Note_on_c, 0, 88, 0
1, 533040, Note_on_c, 0, 41, 70
1, 533040, Note_on_c, 0, 53, 83
1, 533046, Control_c, 0, 64, 0
1, 533104, Control_c, 0, 64, 127
1, 533160, Note_on_c, 0, 53, 0
1, 533160, Note_on_c, 0, 41, 0
1, 533160, Note_on_c, 0, 89, 70
1, 533160, Note_on_c, 0, 80, 59
1, 533160, Note_on_c, 0, 92, 70
1, 533280, Tempo, 400000
1, 533280, Note_on_c, 0, 92, 0
1, 533280, Note_on_c, 0, 80, 0
1, 533280, Note_on_c, 0, 89, 0
1, 533280, Note_on_c, 0, 44, 60
1, 533280, Note_on_c, 0, 56, 72
1, 533380, Tempo, 389610
1, 533400, Note_on_c, 0, 56, 0
1, 533400, Note_on_c, 0, 44, 0
1, 533400, Note_on_c, 0, 88, 57
1, 533400, Note_on_c, 0, 79, 57
1, 533400, Note_on_c, 0, 91, 67
1, 533520, Tempo, 382166
1, 533520, Note_on_c, 0, 91, 0
1, 533520, Note_on_c, 0, 79, 0
1, 533520, Note_on_c, 0, 88, 0
1, 533520, Note_on_c, 0, 38, 83
1, 533520, Note_on_c, 0, 50, 83
1, 533534, Control_c, 0, 64, 0
1, 533591, Control_c, 0, 64, 127
1, 533640, Note_on_c, 0, 50, 0
1, 533640, Note_on_c, 0, 38, 0
1, 533640, Note_on_c, 0, 89, 61
1, 533640, Note_on_c, 0, 80, 61
1, 533640, Note_on_c, 0, 92, 72
1, 533740, Tempo, 387097
1, 533760, Tempo, 400000
1, 533760, Note_on_c, 0, 92, 0
1, 533760, Note_on_c, 0, 80, 0
1, 533760, Note_on_c, 0, 89, 0
1, 533760, Note_on_c, 0, 41, 79
1, 533760, Note_on_c, 0, 53, 79
1, 533880, Note_on_c, 0, 53, 0
1, 533880, Note_on_c, 0, 41, 0
1, 533880, Note_on_c, 0, 88, 60
1, 533880, Note_on_c, 0, 79, 60
1, 533880, Note_on_c, 0, 91, 71
1, 534000, Tempo, 379747
1, 534000, Note_on_c, 0, 91, 0
1, 534000, Note_on_c, 0, 79, 0
1, 534000, Note_on_c, 0, 88, 0
1, 534000, Note_on_c, 0, 37, 76
1, 534000, Note_on_c, 0, 49, 90
1, 534006, Control_c, 0, 64, 0
1, 534064, Control_c, 0, 64, 127
1, 534100, Tempo, 384615
1, 534120, Note_on_c, 0, 49, 0
1, 534120, Note_on_c, 0, 37, 0
1, 534120, Note_on_c, 0, 89, 76
1, 534120, Note_on_c, 0, 80, 64
1, 534120, Note_on_c, 0, 92, 76
1, 534240, Tempo, 394737
1, 534240, Note_on_c, 0, 92, 0
1, 534240, Note_on_c, 0, 80, 0
1, 534240, Note_on_c, 0, 89, 0
1, 534240, Note_on_c, 0, 41, 65
1, 534240, Note_on_c, 0, 53, 79
1, 534360, Note_on_c, 0, 53, 0
1, 534360, Note_on_c, 0, 41, 0
1, 534360, Note_on_c, 0, 88, 62
1, 534360, Note_on_c, 0, 79, 62
1, 534360, Note_on_c, 0, 91, 74
1, 534460, Tempo, 382166
1, 534480, Tempo, 419580
1, 534480, Note_on_c, 0, 91, 0
1, 534480, Note_on_c, 0, 79, 0
1, 534480, Note_on_c, 0, 88, 0
1, 534480, Note_on_c, 0, 35, 90
1, 534480, Note_on_c, 0, 47, 90
1, 534494, Control_c, 0, 64, 0
1, 534551, Control_c, 0, 64, 127
1, 534594, Tempo, 416667
1, 534600, Note_on_c, 0, 47, 0
1, 534600, Note_on_c, 0, 35, 0
1, 534600, Note_on_c, 0, 89, 66
1, 534600, Note_on_c, 0, 80, 66
1, 534600, Note_on_c, 0, 92, 78
1, 534619, Tempo, 422535
1, 534644, Tempo, 428571
1, 534670, Tempo, 437956
1, 534695, Tempo, 444444
1, 534720, Tempo, 451128
1, 534720, Note_on_c, 0, 92, 0
1, 534720, Note_on_c, 0, 80, 0
1, 534720, Note_on_c, 0, 89, 0
1, 534720, Note_on_c, 0, 41, 85
1, 534720, Note_on_c, 0, 53, 85
1, 534745, Tempo, 461538
1, 534771, Tempo, 468750
1, 534796, Tempo, 480000
1, 534821, Tempo, 487805
1, 534840, Note_on_c, 0, 53, 0
1, 534840, Note_on_c, 0, 41, 0
1, 534840, Note_on_c, 0, 87, 65
1, 534840, Note_on_c, 0, 79, 65
1, 534840, Note_on_c, 0, 91, 77
1, 534847, Tempo, 495868
1, 534872, Tempo, 508475
1, 534897, Tempo, 517241
1, 534922, Tempo, 530973
1, 534960, Time_signature, 2, 2, 24, 8
1, 534960, Tempo, 419580
1, 534960, Marker_t, "Presto"
1, 534960, Note_on_c, 0, 91, 0
1, 534960, Note_on_c, 0, 79, 0
1, 534960, Note_on_c, 0, 87, 0
1, 534960, Note_on_c, 0, 80, 77
1, 534960, Note_on_c, 0, 86, 77
1, 534960, Note_on_c, 0, 92, 91
1, 534960, Note_on_c, 0, 34, 72
1, 534960, Note_on_c, 0, 46, 85
1, 534960, Control_c, 0, 64, 0
1, 535066, Control_c, 0, 64, 127
1, 535200, Note_on_c, 0, 46, 0
1, 535200, Note_on_c, 0, 34, 0
1, 535200, Note_on_c, 0, 65, 72
1, 535200, Note_on_c, 0, 62, 61
1, 535200, Note_on_c, 0, 56, 61
1, 535320, Note_on_c, 0, 80, 0
1, 535320, Note_on_c, 0, 92, 0
1, 535320, Note_on_c, 0, 86, 0
1, 535320, Note_on_c, 0, 94, 78
1, 535380, Note_on_c, 0, 94, 0
1, 535380, Note_on_c, 0, 92, 78
1, 535440, Tempo, 428571
1, 535440, Note_on_c, 0, 92, 0
1, 535440, Note_on_c, 0, 65, 0
1, 535440, Note_on_c, 0, 62, 0
1, 535440, Note_on_c, 0, 56, 0
1, 535440, Note_on_c, 0, 79, 74
1, 535440, Note_on_c, 0, 91, 88
1, 535440, Note_on_c, 0, 46, 66
1, 535440, Note_on_c, 0, 58, 78
1, 535560, Note_on_c, 0, 58, 0
1, 535560, Note_on_c, 0, 79, 0
1, 535560, Note_on_c, 0, 91, 0
1, 535560, Note_on_c, 0, 46, 0
1, 535680, Tempo, 451128
1, 535680, Note_on_c, 0, 77, 69
1, 535680, Note_on_c, 0, 89, 82
1, 535680, Note_on_c, 0, 65, 73
1, 535680, Note_on_c, 0, 62, 61
1, 535680, Note_on_c, 0, 56, 61
1, 535800, Note_on_c, 0, 56, 0
1, 535800, Note_on_c, 0, 65, 0
1, 535800, Note_on_c, 0, 77, 0
1, 535800, Note_on_c, 0, 89, 0
1, 535800, Note_on_c, 0, 62, 0
1, 535920, Tempo, 431655
1, 535920, Note_on_c, 0, 82, 75
1, 535920, Note_on_c, 0, 94, 90
1, 535920, Note_on_c, 0, 34, 69
1, 535920, Note_on_c, 0, 46, 82
1, 535927, Control_c, 0, 64, 0
1, 535980, Control_c, 0, 64, 127
1, 536040, Note_on_c, 0, 46, 0
1, 536040, Note_on_c, 0, 82, 0
1, 536040, Note_on_c, 0, 94, 0
1, 536040, Note_on_c, 0, 34, 0
1, 536160, Note_on_c, 0, 74, 68
1, 536160, Note_on_c, 0, 86, 81
1, 536160, Note_on_c, 0, 67, 72
1, 536160, Note_on_c, 0, 63, 61
1, 536160, Note_on_c, 0, 55, 61
1, 536280, Note_on_c, 0, 55, 0
1, 536280, Note_on_c, 0, 67, 0
1, 536280, Note_on_c, 0, 74, 0
1, 536280, Note_on_c, 0, 86, 0
1, 536280, Note_on_c, 0, 63, 0
1, 536400, Note_on_c, 0, 75, 74
1, 536400, Note_on_c, 0, 87, 88
1, 536400, Note_on_c, 0, 46, 68
1, 536400, Note_on_c, 0, 58, 80
1, 536640, Note_on_c, 0, 58, 0
1, 536640, Note_on_c, 0, 46, 0
1, 536640, Note_on_c, 0, 67, 74
1, 536640, Note_on_c, 0, 63, 62
1, 536640, Note_on_c, 0, 55, 62
1, 536880, Tempo, 419580
1, 536880, Note_on_c, 0, 55, 0
1, 536880, Note_on_c, 0, 67, 0
1, 536880, Note_on_c, 0, 75, 0
1, 536880, Note_on_c, 0, 87, 0
1, 536880, Note_on_c, 0, 63, 0
1, 536880, Note_on_c, 0, 80, 77
1, 536880, Note_on_c, 0, 86, 77
1, 536880, Note_on_c, 0, 92, 91
1, 536880, Note_on_c, 0, 34, 72
1, 536880, Note_on_c, 0, 46, 85
1, 536888, Control_c, 0, 64, 0
1, 536930, Control_c, 0, 64, 127
1, 537120, Note_on_c, 0, 46, 0
1, 537120, Note_on_c, 0, 34, 0
1, 537120, Note_on_c, 0, 65, 72
1, 537120, Note_on_c, 0, 62, 61
1, 537120, Note_on_c, 0, 56, 61
1, 537240, Note_on_c, 0, 80, 0
1, 537240, Note_on_c, 0, 92, 0
1, 537240, Note_on_c, 0, 86, 0
1, 537240, Note_on_c, 0, 94, 78
1, 537300, Note_on_c, 0, 94, 0
1, 537300, Note_on_c, 0, 92, 78
1, 537360, Tempo, 428571
1, 537360, Note_on_c, 0, 92, 0
1, 537360, Note_on_c, 0, 65, 0
1, 537360, Note_on_c, 0, 62, 0
1, 537360, Note_on_c, 0, 56, 0
1, 537360, Note_on_c, 0, 79, 74
1, 537360, Note_on_c, 0, 91, 88
1, 537360, Note_on_c, 0, 46, 66
1, 537360, Note_on_c, 0, 58, 78
1, 537480, Note_on_c, 0, 58, 0
1, 537480, Note_on_c, 0, 79, 0
1, 537480, Note_on_c, 0, 91, 0
1, 537480, Note_on_c, 0, 46, 0
1, 537600, Tempo, 451128
1, 537600, Note_on_c, 0, 77, 69
1, 537600, Note_on_c, 0, 89, 82
1, 537600, Note_on_c, 0, 65, 73
1, 537600, Note_on_c, 0, 62, 61
1, 537600, Note_on_c, 0, 56, 61
1, 537720, Note_on_c, 0, 56, 0
1, 537720, Note_on_c, 0, 65, 0
1, 537720, Note_on_c, 0, 77, 0
1, 537720, Note_on_c, 0, 89, 0
1, 537720, Note_on_c, 0, 62, 0
1, 537840, Tempo, 431655
1, 537840, Note_on_c, 0, 82, 75
1, 537840, Note_on_c, 0, 94, 90
1, 537840, Note_on_c, 0, 34, 69
1, 537840, Note_on_c, 0, 46, 82
1, 537847, Control_c, 0, 64, 0
1, 537900, Control_c, 0, 64, 127
1, 537960, Note_on_c, 0, 46, 0
1, 537960, Note_on_c, 0, 82, 0
1, 537960, Note_on_c, 0, 94, 0
1, 537960, Note_on_c, 0, 34, 0
1, 538080, Note_on_c, 0, 74, 68
1, 538080, Note_on_c, 0, 86, 81
1, 538080, Note_on_c, 0, 67, 72
1, 538080, Note_on_c, 0, 63, 61
1, 538080, Note_on_c, 0, 55, 61
1, 538200, Note_on_c, 0, 55, 0
1, 538200, Note_on_c, 0, 67, 0
1, 538200, Note_on_c, 0, 74, 0
1, 538200, Note_on_c, 0, 86, 0
1, 538200, Note_on_c, 0, 63, 0
1, 538320, Note_on_c, 0, 75, 74
1, 538320, Note_on_c, 0, 87, 88
1, 538320, Note_on_c, 0, 46, 68
1, 538320, Note_on_c, 0, 58, 80
1, 538560, Tempo, 500000
1, 538560, Note_on_c, 0, 58, 0
1, 538560, Note_on_c, 0, 46, 0
1, 538560, Note_on_c, 0, 67, 74
1, 538560, Note_on_c, 0, 63, 62
1, 538560, Note_on_c, 0, 55, 62
1, 538800, Tempo, 483871
1, 538800, Note_on_c, 0, 55, 0
1, 538800, Note_on_c, 0, 67, 0
1, 538800, Note_on_c, 0, 75, 0
1, 538800, Note_on_c, 0, 87, 0
1, 538800, Note_on_c, 0, 63, 0
1, 538800, Note_on_c, 0, 36, 71
1, 538800, Note_on_c, 0, 48, 84
1, 538800, Control_c, 0, 64, 0
1, 538920, Note_on_c, 0, 48, 0
1, 538920, Note_on_c, 0, 36, 0
1, 539040, Tempo, 526316
1, 539040, Note_on_c, 0, 53, 61
1, 539040, Note_on_c, 0, 57, 61
1, 539040, Note_on_c, 0, 63, 72
1, 539040, Note_on_c, 0, 65, 72
1, 539040, Note_on_c, 0, 35, 66
1, 539040, Note_on_c, 0, 47, 78
1, 539160, Note_on_c, 0, 47, 0
1, 539160, Note_on_c, 0, 57, 0
1, 539160, Note_on_c, 0, 63, 0
1, 539160, Note_on_c, 0, 53, 0
1, 539160, Note_on_c, 0, 35, 0
1, 539160, Note_on_c, 0, 65, 0
1, 539280, Tempo, 504202
1, 539280, Note_on_c, 0, 58, 63
1, 539280, Note_on_c, 0, 53, 63
1, 539280, Note_on_c, 0, 62, 75
1, 539280, Note_on_c, 0, 65, 75
1, 539280, Note_on_c, 0, 34, 70
1, 539280, Note_on_c, 0, 46, 83
1, 539400, Note_on_c, 0, 46, 0
1, 539400, Note_on_c, 0, 53, 0
1, 539400, Note_on_c, 0, 62, 0
1, 539400, Note_on_c, 0, 58, 0
1, 539400, Note_on_c, 0, 34, 0
1, 539400, Note_on_c, 0, 65, 0
1, 539760, Tempo, 400000
1, 539760, Note_on_c, 0, 56, 77
1, 539760, Note_on_c, 0, 68, 91
1, 539824, Control_c, 0, 64, 127
1, 540000, Tempo, 419580
1, 540000, Note_on_c, 0, 86, 77
1, 540000, Note_on_c, 0, 82, 77
1, 540000, Note_on_c, 0, 74, 64
1, 540000, Note_on_c, 0, 77, 64
1, 540240, Tempo, 405405
1, 540240, Note_on_c, 0, 77, 0
1, 540240, Note_on_c, 0, 68, 0
1, 540240, Note_on_c, 0, 86, 0
1, 540240, Note_on_c, 0, 56, 0
1, 540240, Note_on_c, 0, 74, 0
1, 540240, Note_on_c, 0, 82, 0
1, 540240, Note_on_c, 0, 55, 74
1, 540240, Note_on_c, 0, 67, 88
1, 540253, Control_c, 0, 64, 0
1, 540332, Control_c, 0, 64, 127
1, 540360, Note_on_c, 0, 67, 0
1, 540360, Note_on_c, 0, 55, 0
1, 540480, Tempo, 451128
1, 540480, Note_on_c, 0, 98, 77
1, 540480, Note_on_c, 0, 94, 77
1, 540480, Note_on_c, 0, 89, 64
1, 540480, Note_on_c, 0, 86, 64
1, 540480, Note_on_c, 0, 53, 69
1, 540480, Note_on_c, 0, 65, 82
1, 540600, Note_on_c, 0, 65, 0
1, 540600, Note_on_c, 0, 94, 0
1, 540600, Note_on_c, 0, 89, 0
1, 540600, Note_on_c, 0, 98, 0
1, 540600, Note_on_c, 0, 53, 0
1, 540600, Note_on_c, 0, 86, 0
1, 540720, Tempo, 410959
1, 540720, Note_on_c, 0, 58, 75
1, 540720, Note_on_c, 0, 70, 90
1, 540728, Control_c, 0, 64, 0
1, 540798, Control_c, 0, 64, 127
1, 540840, Note_on_c, 0, 70, 0
1, 540840, Note_on_c, 0, 58, 0
1, 540960, Tempo, 419580
1, 540960, Note_on_c, 0, 91, 77
1, 540960, Note_on_c, 0, 87, 77
1, 540960, Note_on_c, 0, 79, 64
1, 540960, Note_on_c, 0, 82, 64
1, 540960, Note_on_c, 0, 50, 68
1, 540960, Note_on_c, 0, 62, 81
1, 541080, Note_on_c, 0, 62, 0
1, 541080, Note_on_c, 0, 87, 0
1, 541080, Note_on_c, 0, 79, 0
1, 541080, Note_on_c, 0, 91, 0
1, 541080, Note_on_c, 0, 50, 0
1, 541080, Note_on_c, 0, 82, 0
1, 541200, Note_on_c, 0, 51, 74
1, 541200, Note_on_c, 0, 63, 88
1, 541221, Control_c, 0, 64, 0
1, 541306, Control_c, 0, 64, 127
1, 541440, Note_on_c, 0, 103, 77
1, 541440, Note_on_c, 0, 99, 77
1, 541440, Note_on_c, 0, 94, 64
1, 541440, Note_on_c, 0, 91, 64
1, 541680, Tempo, 402685
1, 541680, Note_on_c, 0, 91, 0
1, 541680, Note_on_c, 0, 63, 0
1, 541680, Note_on_c, 0, 103, 0
1, 541680, Note_on_c, 0, 51, 0
1, 541680, Note_on_c, 0, 94, 0
1, 541680, Note_on_c, 0, 99, 0
1, 541680, Note_on_c, 0, 44, 77
1, 541680, Note_on_c, 0, 56, 91
1, 541680, Control_c, 0, 64, 0
1, 541779, Control_c, 0, 64, 127
1, 541920, Tempo, 416667
1, 541920, Note_on_c, 0, 74, 77
1, 541920, Note_on_c, 0, 70, 77
1, 541920, Note_on_c, 0, 62, 64
1, 541920, Note_on_c, 0, 65, 64
1, 542160, Tempo, 410959
1, 542160, Note_on_c, 0, 65, 0
1, 542160, Note_on_c, 0, 56, 0
1, 542160, Note_on_c, 0, 74, 0
1, 542160, Note_on_c, 0, 44, 0
1, 542160, Note_on_c, 0, 62, 0
1, 542160, Note_on_c, 0, 70, 0
1, 542160, Note_on_c, 0, 43, 74
1, 542160, Note_on_c, 0, 55, 88
1, 542173, Control_c, 0, 64, 0
1, 542252, Control_c, 0, 64, 127
1, 542280, Note_on_c, 0, 55, 0
1, 542280, Note_on_c, 0, 43, 0
1, 542400, Tempo, 451128
1, 542400, Note_on_c, 0, 86, 77
1, 542400, Note_on_c, 0, 82, 77
1, 542400, Note_on_c, 0, 77, 64
1, 542400, Note_on_c, 0, 74, 64
1, 542400, Note_on_c, 0, 41, 69
1, 542400, Note_on_c, 0, 53, 82
1, 542520, Note_on_c, 0, 53, 0
1, 542520, Note_on_c, 0, 82, 0
1, 542520, Note_on_c, 0, 77, 0
1, 542520, Note_on_c, 0, 86, 0
1, 542520, Note_on_c, 0, 41, 0
1, 542520, Note_on_c, 0, 74, 0
1, 542640, Tempo, 413793
1, 542640, Note_on_c, 0, 46, 75
1, 542640, Note_on_c, 0, 58, 90
1, 542648, Control_c, 0, 64, 0
1, 542718, Control_c, 0, 64, 127
1, 542760, Note_on_c, 0, 58, 0
1, 542760, Note_on_c, 0, 46, 0
1, 542880, Tempo, 419580
1, 542880, Note_on_c, 0, 79, 77
1, 542880, Note_on_c, 0, 75, 77
1, 542880, Note_on_c, 0, 67, 64
1, 542880, Note_on_c, 0, 70, 64
1, 542880, Note_on_c, 0, 38, 68
1, 542880, Note_on_c, 0, 50, 81
1, 543000, Note_on_c, 0, 50, 0
1, 543000, Note_on_c, 0, 75, 0
1, 543000, Note_on_c, 0, 67, 0
1, 543000, Note_on_c, 0, 79, 0
1, 543000, Note_on_c, 0, 38, 0
1, 543000, Note_on_c, 0, 70, 0
1, 543120, Note_on_c, 0, 39, 74
1, 543120, Note_on_c, 0, 51, 88
1, 543141, Control_c, 0, 64, 0
1, 543226, Control_c, 0, 64, 127
1, 543360, Tempo, 495868
1, 543360, Note_on_c, 0, 91, 77
1, 543360, Note_on_c, 0, 87, 77
1, 543360, Note_on_c, 0, 82, 64
1, 543360, Note_on_c, 0, 79, 64
1, 543600, Tempo, 487805
1, 543600, Note_on_c, 0, 79, 0
1, 543600, Note_on_c, 0, 51, 0
1, 543600, Note_on_c, 0, 91, 0
1, 543600, Note_on_c, 0, 39, 0
1, 543600, Note_on_c, 0, 82, 0
1, 543600, Note_on_c, 0, 87, 0
1, 543600, Note_on_c, 0, 36, 71
1, 543600, Note_on_c, 0, 48, 84
1, 543600, Control_c, 0, 64, 0
1, 543720, Note_on_c, 0, 48, 0
1, 543720, Note_on_c, 0, 36, 0
1, 543840, Tempo, 526316
1, 543840, Note_on_c, 0, 53, 61
1, 543840, Note_on_c, 0, 57, 61
1, 543840, Note_on_c, 0, 63, 72
1, 543840, Note_on_c, 0, 65, 72
1, 543840, Note_on_c, 0, 35, 66
1, 543840, Note_on_c, 0, 47, 78
1, 543960, Note_on_c, 0, 47, 0
1, 543960, Note_on_c, 0, 57, 0
1, 543960, Note_on_c, 0, 63, 0
1, 543960, Note_on_c, 0, 53, 0
1, 543960, Note_on_c, 0, 35, 0
1, 543960, Note_on_c, 0, 65, 0
1, 544080, Tempo, 504202
1, 544080, Note_on_c, 0, 53, 63
1, 544080, Note_on_c, 0, 62, 75
1, 544080, Note_on_c, 0, 65, 75
1, 544080, Note_on_c, 0, 34, 70
1, 544080, Note_on_c, 0, 46, 83
1, 544084, Note_on_c, 0, 58, 63
1, 544200, Note_on_c, 0, 46, 0
1, 544200, Note_on_c, 0, 34, 0
1, 544200, Note_on_c, 0, 65, 0
1, 544200, Note_on_c, 0, 53, 0
1, 544200, Note_on_c, 0, 62, 0
1, 544204, Note_on_c, 0, 58, 0
1, 544560, Tempo, 434783
1, 544560, Note_on_c, 0, 85, 77
1, 544560, Note_on_c, 0, 77, 77
1, 544560, Note_on_c, 0, 82, 77
1, 544560, Note_on_c, 0, 37, 72
1, 544560, Note_on_c, 0, 49, 85
1, 544560, Control_c, 0, 64, 0
1, 544563, Note_on_c, 0, 89, 91
1, 544666, Control_c, 0, 64, 127
1, 544800, Note_on_c, 0, 49, 0
1, 544800, Note_on_c, 0, 37, 0
1, 544800, Note_on_c, 0, 65, 72
1, 544800, Note_on_c, 0, 61, 61
1, 544800, Note_on_c, 0, 58, 61
1, 545040, Tempo, 428571
1, 545040, Note_on_c, 0, 58, 0
1, 545040, Note_on_c, 0, 65, 0
1, 545040, Note_on_c, 0, 77, 0
1, 545040, Note_on_c, 0, 85, 0
1, 545040, Note_on_c, 0, 82, 0
1, 545040, Note_on_c, 0, 61, 0
1, 545040, Note_on_c, 0, 76, 74
1, 545040, Note_on_c, 0, 88, 88
1, 545040, Note_on_c, 0, 46, 66
1, 545040, Note_on_c, 0, 58, 78
1, 545043, Note_on_c, 0, 89, 0
1, 545160, Note_on_c, 0, 46, 0
1, 545160, Note_on_c, 0, 76, 0
1, 545160, Note_on_c, 0, 88, 0
1, 545160, Note_on_c, 0, 58, 0
1, 545280, Tempo, 451128
1, 545280, Note_on_c, 0, 77, 69
1, 545280, Note_on_c, 0, 89, 82
1, 545280, Note_on_c, 0, 65, 73
1, 545280, Note_on_c, 0, 61, 61
1, 545280, Note_on_c, 0, 58, 61
1, 545400, Note_on_c, 0, 58, 0
1, 545400, Note_on_c, 0, 65, 0
1, 545400, Note_on_c, 0, 77, 0
1, 545400, Note_on_c, 0, 89, 0
1, 545400, Note_on_c, 0, 61, 0
1, 545520, Tempo, 437956
1, 545520, Note_on_c, 0, 91, 91
1, 545520, Note_on_c, 0, 79, 77
1, 545520, Note_on_c, 0, 82, 77
1, 545520, Note_on_c, 0, 39, 72
1, 545520, Note_on_c, 0, 51, 85
1, 545520, Control_c, 0, 64, 0
1, 545626, Control_c, 0, 64, 127
1, 545760, Note_on_c, 0, 51, 0
1, 545760, Note_on_c, 0, 39, 0
1, 545760, Note_on_c, 0, 67, 72
1, 545760, Note_on_c, 0, 63, 61
1, 545760, Note_on_c, 0, 58, 61
1, 545940, Note_on_c, 0, 58, 0
1, 545940, Note_on_c, 0, 67, 0
1, 545940, Note_on_c, 0, 63, 0
1, 546000, Tempo, 444444
1, 546000, Note_on_c, 0, 82, 0
1, 546000, Note_on_c, 0, 91, 0
1, 546000, Note_on_c, 0, 79, 0
1, 546000, Note_on_c, 0, 82, 74
1, 546000, Note_on_c, 0, 77, 74
1, 546000, Note_on_c, 0, 89, 88
1, 546000, Note_on_c, 0, 37, 72
1, 546000, Note_on_c, 0, 49, 85
1, 546023, Control_c, 0, 64, 0
1, 546137, Control_c, 0, 64, 127
1, 546240, Tempo, 508475
1, 546240, Note_on_c, 0, 49, 0
1, 546240, Note_on_c, 0, 37, 0
1, 546240, Note_on_c, 0, 58, 61
1, 546240, Note_on_c, 0, 65, 72
1, 546240, Note_on_c, 0, 61, 61
1, 546420, Note_on_c, 0, 61, 0
1, 546420, Note_on_c, 0, 58, 0
1, 546420, Note_on_c, 0, 65, 0
1, 546480, Tempo, 476190
1, 546480, Note_on_c, 0, 89, 0
1, 546480, Note_on_c, 0, 82, 0
1, 546480, Note_on_c, 0, 77, 0
1, 546480, Note_on_c, 0, 36, 71
1, 546480, Note_on_c, 0, 48, 84
1, 546517, Control_c, 0, 64, 0
1, 546600, Note_on_c, 0, 48, 0
1, 546600, Note_on_c, 0, 36, 0
1, 546720, Tempo, 526316
1, 546720, Note_on_c, 0, 53, 61
1, 546720, Note_on_c, 0, 57, 61
1, 546720, Note_on_c, 0, 63, 72
1, 546720, Note_on_c, 0, 65, 72
1, 546720, Note_on_c, 0, 35, 66
1, 546720, Note_on_c, 0, 47, 78
1, 546840, Note_on_c, 0, 47, 0
1, 546840, Note_on_c, 0, 57, 0
1, 546840, Note_on_c, 0, 63, 0
1, 546840, Note_on_c, 0, 53, 0
1, 546840, Note_on_c, 0, 35, 0
1, 546840, Note_on_c, 0, 65, 0
1, 546960, Tempo, 512821
1, 546960, Note_on_c, 0, 53, 63
1, 546960, Note_on_c, 0, 62, 75
1, 546960, Note_on_c, 0, 65, 75
1, 546960, Note_on_c, 0, 34, 70
1, 546960, Note_on_c, 0, 46, 83
1, 546964, Note_on_c, 0, 58, 63
1, 547080, Note_on_c, 0, 46, 0
1, 547080, Note_on_c, 0, 34, 0
1, 547080, Note_on_c, 0, 65, 0
1, 547080, Note_on_c, 0, 53, 0
1, 547080, Note_on_c, 0, 62, 0
1, 547084, Note_on_c, 0, 58, 0
1, 547440, Tempo, 458015
1, 547440, Note_on_c, 0, 82, 68
1, 547440, Note_on_c, 0, 79, 68
1, 547440, Note_on_c, 0, 91, 81
1, 547440, Note_on_c, 0, 37, 72
1, 547440, Note_on_c, 0, 49, 85
1, 547440, Control_c, 0, 64, 0
1, 547546, Control_c, 0, 64, 127
1, 547600, Tempo, 447761
1, 547600, Note_on_c, 0, 91, 0
1, 547600, Note_on_c, 0, 82, 0
1, 547600, Note_on_c, 0, 79, 0
1, 547600, Note_on_c, 0, 77, 57
1, 547600, Note_on_c, 0, 89, 68
1, 547680, Note_on_c, 0, 37, 0
1, 547680, Note_on_c, 0, 49, 0
1, 547680, Note_on_c, 0, 65, 72
1, 547680, Note_on_c, 0, 61, 61
1, 547680, Note_on_c, 0, 58, 61
1, 547760, Note_on_c, 0, 77, 0
1, 547760, Note_on_c, 0, 89, 0
1, 547760, Note_on_c, 0, 76, 57
1, 547760, Note_on_c, 0, 88, 68
1, 547920, Tempo, 428571
1, 547920, Note_on_c, 0, 88, 0
1, 547920, Note_on_c, 0, 61, 0
1, 547920, Note_on_c, 0, 58, 0
1, 547920, Note_on_c, 0, 65, 0
1, 547920, Note_on_c, 0, 76, 0
1, 547920, Note_on_c, 0, 75, 63
1, 547920, Note_on_c, 0, 87, 75
1, 547920, Note_on_c, 0, 37, 66
1, 547920, Note_on_c, 0, 49, 78
1, 548040, Note_on_c, 0, 49, 0
1, 548040, Note_on_c, 0, 37, 0
1, 548080, Note_on_c, 0, 87, 0
1, 548080, Note_on_c, 0, 75, 0
1, 548080, Note_on_c, 0, 74, 59
1, 548080, Note_on_c, 0, 86, 70
1, 548160, Tempo, 461538
1, 548160, Note_on_c, 0, 65, 73
1, 548160, Note_on_c, 0, 61, 61
1, 548160, Note_on_c, 0, 58, 61
1, 548240, Note_on_c, 0, 86, 0
1, 548240, Note_on_c, 0, 74, 0
1, 548240, Note_on_c, 0, 73, 59
1, 548240, Note_on_c, 0, 85, 70
1, 548280, Note_on_c, 0, 61, 0
1, 548280, Note_on_c, 0, 58, 0
1, 548280, Note_on_c, 0, 65, 0
1, 548400, Tempo, 451128
1, 548400, Note_on_c, 0, 73, 0
1, 548400, Note_on_c, 0, 85, 0
1, 548400, Note_on_c, 0, 72, 71
1, 548400, Note_on_c, 0, 84, 84
1, 548400, Note_on_c, 0, 36, 72
1, 548400, Note_on_c, 0, 48, 85
1, 548400, Control_c, 0, 64, 0
1, 548452, Control_c, 0, 64, 127
1, 548520, Note_on_c, 0, 48, 0
1, 548520, Note_on_c, 0, 72, 0
1, 548520, Note_on_c, 0, 84, 0
1, 548520, Note_on_c, 0, 36, 0
1, 548640, Note_on_c, 0, 84, 64
1, 548640, Note_on_c, 0, 96, 77
1, 548640, Note_on_c, 0, 64, 72
1, 548640, Note_on_c, 0, 58, 61
1, 548640, Note_on_c, 0, 55, 61
1, 548760, Note_on_c, 0, 55, 0
1, 548760, Note_on_c, 0, 64, 0
1, 548760, Note_on_c, 0, 84, 0
1, 548760, Note_on_c, 0, 96, 0
1, 548760, Note_on_c, 0, 58, 0
1, 548880, Note_on_c, 0, 72, 70
1, 548880, Note_on_c, 0, 84, 83
1, 548880, Note_on_c, 0, 53, 78
1, 548880, Note_on_c, 0, 41, 66
1, 548900, Control_c, 0, 64, 0
1, 548961, Control_c, 0, 64, 127
1, 549000, Note_on_c, 0, 41, 0
1, 549000, Note_on_c, 0, 72, 0
1, 549000, Note_on_c, 0, 84, 0
1, 549000, Note_on_c, 0, 53, 0
1, 549120, Note_on_c, 0, 84, 64
1, 549120, Note_on_c, 0, 96, 77
1, 549120, Note_on_c, 0, 65, 73
1, 549120, Note_on_c, 0, 63, 61
1, 549120, Note_on_c, 0, 57, 61
1, 549240, Note_on_c, 0, 57, 0
1, 549240, Note_on_c, 0, 65, 0
1, 549240, Note_on_c, 0, 84, 0
1, 549240, Note_on_c, 0, 96, 0
1, 549240, Note_on_c, 0, 63, 0
1, 549360, Tempo, 483871
1, 549360, Note_on_c, 0, 36, 71
1, 549360, Note_on_c, 0, 48, 84
1, 549360, Control_c, 0, 64, 0
1, 549480, Note_on_c, 0, 48, 0
1, 549480, Note_on_c, 0, 36, 0
1, 549600, Tempo, 504202
1, 549600, Note_on_c, 0, 53, 61
1, 549600, Note_on_c, 0, 57, 61
1, 549600, Note_on_c, 0, 63, 72
1, 549600, Note_on_c, 0, 65, 72
1, 549600, Note_on_c, 0, 35, 66
1, 549600, Note_on_c, 0, 47, 78
1, 549720, Note_on_c, 0, 47, 0
1, 549720, Note_on_c, 0, 57, 0
1, 549720, Note_on_c, 0, 63, 0
1, 549720, Note_on_c, 0, 53, 0
1, 549720, Note_on_c, 0, 35, 0
1, 549720, Note_on_c, 0, 65, 0
1, 549840, Note_on_c, 0, 53, 63
1, 549840, Note_on_c, 0, 62, 75
1, 549840, Note_on_c, 0, 65, 75
1, 549840, Note_on_c, 0, 34, 70
1, 549840, Note_on_c, 0, 46, 83
1, 549844, Note_on_c, 0, 58, 63
1, 549960, Note_on_c, 0, 46, 0
1, 549960, Note_on_c, 0, 34, 0
1, 549960, Note_on_c, 0, 65, 0
1, 549960, Note_on_c, 0, 53, 0
1, 549960, Note_on_c, 0, 62, 0
1, 549964, Note_on_c, 0, 58, 0
1, 550320, Tempo, 434783
1, 550320, Note_on_c, 0, 65, 91
1, 550320, Note_on_c, 0, 61, 77
1, 550320, Note_on_c, 0, 53, 77
1, 550320, Note_on_c, 0, 58, 77
1, 550320, Control_c, 0, 64, 127
1, 550560, Note_on_c, 0, 82, 82
1, 550560, Note_on_c, 0, 73, 69
1, 550560, Note_on_c, 0, 70, 69
1, 550680, Note_on_c, 0, 70, 0
1, 550680, Note_on_c, 0, 82, 0
1, 550680, Note_on_c, 0, 73, 0
1, 550800, Tempo, 428571
1, 550800, Note_on_c, 0, 53, 0
1, 550800, Note_on_c, 0, 65, 0
1, 550800, Note_on_c, 0, 61, 0
1, 550800, Note_on_c, 0, 58, 0
1, 550800, Note_on_c, 0, 52, 74
1, 550800, Note_on_c, 0, 64, 88
1, 550810, Control_c, 0, 64, 0
1, 550920, Note_on_c, 0, 64, 0
1, 550920, Note_on_c, 0, 52, 0
1, 551040, Tempo, 451128
1, 551040, Note_on_c, 0, 94, 81
1, 551040, Note_on_c, 0, 85, 68
1, 551040, Note_on_c, 0, 82, 68
1, 551040, Note_on_c, 0, 53, 69
1, 551040, Note_on_c, 0, 65, 82
1, 551160, Note_on_c, 0, 65, 0
1, 551160, Note_on_c, 0, 82, 0
1, 551160, Note_on_c, 0, 94, 0
1, 551160, Note_on_c, 0, 85, 0
1, 551160, Note_on_c, 0, 53, 0
1, 551280, Tempo, 437956
1, 551280, Note_on_c, 0, 63, 77
1, 551280, Note_on_c, 0, 67, 91
1, 551280, Note_on_c, 0, 55, 77
1, 551280, Note_on_c, 0, 58, 77
1, 551326, Control_c, 0, 64, 127
1, 551520, Note_on_c, 0, 82, 82
1, 551520, Note_on_c, 0, 75, 69
1, 551520, Note_on_c, 0, 70, 69
1, 551640, Note_on_c, 0, 70, 0
1, 551640, Note_on_c, 0, 82, 0
1, 551640, Note_on_c, 0, 75, 0
1, 551760, Tempo, 444444
1, 551760, Note_on_c, 0, 55, 0
1, 551760, Note_on_c, 0, 63, 0
1, 551760, Note_on_c, 0, 67, 0
1, 551760, Note_on_c, 0, 58, 0
1, 551760, Note_on_c, 0, 61, 74
1, 551760, Note_on_c, 0, 53, 74
1, 551760, Note_on_c, 0, 58, 74
1, 551760, Note_on_c, 0, 65, 88
1, 551766, Control_c, 0, 64, 0
1, 551852, Control_c, 0, 64, 127
1, 552000, Tempo, 480000
1, 552000, Note_on_c, 0, 94, 81
1, 552000, Note_on_c, 0, 85, 68
1, 552000, Note_on_c, 0, 82, 68
1, 552120, Note_on_c, 0, 82, 0
1, 552120, Note_on_c, 0, 94, 0
1, 552120, Note_on_c, 0, 85, 0
1, 552240, Tempo, 500000
1, 552240, Note_on_c, 0, 58, 0
1, 552240, Note_on_c, 0, 61, 0
1, 552240, Note_on_c, 0, 53, 0
1, 552240, Note_on_c, 0, 65, 0
1, 552240, Note_on_c, 0, 36, 71
1, 552240, Note_on_c, 0, 48, 84
1, 552247, Control_c, 0, 64, 0
1, 552360, Note_on_c, 0, 48, 0
1, 552360, Note_on_c, 0, 36, 0
1, 552480, Tempo, 521739
1, 552480, Note_on_c, 0, 53, 61
1, 552480, Note_on_c, 0, 57, 61
1, 552480, Note_on_c, 0, 63, 72
1, 552480, Note_on_c, 0, 65, 72
1, 552480, Note_on_c, 0, 35, 66
1, 552480, Note_on_c, 0, 47, 78
1, 552600, Note_on_c, 0, 47, 0
1, 552600, Note_on_c, 0, 57, 0
1, 552600, Note_on_c, 0, 63, 0
1, 552600, Note_on_c, 0, 53, 0
1, 552600, Note_on_c, 0, 35, 0
1, 552600, Note_on_c, 0, 65, 0
1, 552720, Note_on_c, 0, 53, 63
1, 552720, Note_on_c, 0, 62, 75
1, 552720, Note_on_c, 0, 65, 75
1, 552720, Note_on_c, 0, 34, 70
1, 552720, Note_on_c, 0, 46, 83
1, 552724, Note_on_c, 0, 58, 63
1, 552840, Note_on_c, 0, 46, 0
1, 552840, Note_on_c, 0, 34, 0
1, 552840, Note_on_c, 0, 65, 0
1, 552840, Note_on_c, 0, 53, 0
1, 552840, Note_on_c, 0, 62, 0
1, 552844, Note_on_c, 0, 58, 0
1, 553200, Tempo, 468750
1, 553200, Note_on_c, 0, 55, 68
1, 553200, Note_on_c, 0, 67, 81
1, 553257, Control_c, 0, 64, 127
1, 553360, Tempo, 447761
1, 553360, Note_on_c, 0, 67, 0
1, 553360, Note_on_c, 0, 55, 0
1, 553360, Note_on_c, 0, 53, 57
1, 553360, Note_on_c, 0, 65, 68
1, 553440, Note_on_c, 0, 73, 69
1, 553440, Note_on_c, 0, 70, 69
1, 553440, Note_on_c, 0, 77, 69
1, 553440, Note_on_c, 0, 82, 82
1, 553520, Note_on_c, 0, 65, 0
1, 553520, Note_on_c, 0, 53, 0
1, 553520, Note_on_c, 0, 52, 57
1, 553520, Note_on_c, 0, 64, 68
1, 553560, Note_on_c, 0, 77, 0
1, 553560, Note_on_c, 0, 73, 0
1, 553560, Note_on_c, 0, 70, 0
1, 553560, Note_on_c, 0, 82, 0
1, 553680, Tempo, 428571
1, 553680, Note_on_c, 0, 64, 0
1, 553680, Note_on_c, 0, 52, 0
1, 553680, Note_on_c, 0, 51, 63
1, 553680, Note_on_c, 0, 63, 75
1, 553686, Control_c, 0, 64, 0
1, 553772, Control_c, 0, 64, 127
1, 553840, Note_on_c, 0, 63, 0
1, 553840, Note_on_c, 0, 51, 0
1, 553840, Note_on_c, 0, 50, 59
1, 553840, Note_on_c, 0, 62, 70
1, 553920, Tempo, 461538
1, 553920, Note_on_c, 0, 82, 68
1, 553920, Note_on_c, 0, 89, 68
1, 553920, Note_on_c, 0, 85, 68
1, 553920, Note_on_c, 0, 94, 81
1, 554000, Note_on_c, 0, 62, 0
1, 554000, Note_on_c, 0, 50, 0
1, 554000, Note_on_c, 0, 49, 59
1, 554000, Note_on_c, 0, 61, 70
1, 554040, Note_on_c, 0, 85, 0
1, 554040, Note_on_c, 0, 82, 0
1, 554040, Note_on_c, 0, 89, 0
1, 554040, Note_on_c, 0, 94, 0
1, 554160, Tempo, 437956
1, 554160, Note_on_c, 0, 61, 0
1, 554160, Note_on_c, 0, 49, 0
1, 554160, Note_on_c, 0, 55, 77
1, 554160, Note_on_c, 0, 60, 91
1, 554160, Note_on_c, 0, 48, 77
1, 554160, Note_on_c, 0, 52, 77
1, 554167, Control_c, 0, 64, 0
1, 554258, Control_c, 0, 64, 127
1, 554400, Note_on_c, 0, 79, 69
1, 554400, Note_on_c, 0, 84, 82
1, 554400, Note_on_c, 0, 76, 69
1, 554400, Note_on_c, 0, 72, 69
1, 554520, Note_on_c, 0, 72, 0
1, 554520, Note_on_c, 0, 76, 0
1, 554520, Note_on_c, 0, 79, 0
1, 554520, Note_on_c, 0, 84, 0
1, 554640, Tempo, 444444
1, 554640, Note_on_c, 0, 48, 0
1, 554640, Note_on_c, 0, 52, 0
1, 554640, Note_on_c, 0, 60, 0
1, 554640, Note_on_c, 0, 55, 0
1, 554640, Note_on_c, 0, 48, 74
1, 554640, Note_on_c, 0, 41, 74
1, 554640, Note_on_c, 0, 45, 74
1, 554640, Note_on_c, 0, 53, 88
1, 554664, Control_c, 0, 64, 0
1, 554783, Control_c, 0, 64, 127
1, 554880, Tempo, 508475
1, 554880, Note_on_c, 0, 96, 68
1, 554880, Note_on_c, 0, 101, 81
1, 554880, Note_on_c, 0, 93, 68
1, 554880, Note_on_c, 0, 89, 68
1, 555000, Note_on_c, 0, 89, 0
1, 555000, Note_on_c, 0, 93, 0
1, 555000, Note_on_c, 0, 96, 0
1, 555000, Note_on_c, 0, 101, 0
1, 555120, Tempo, 500000
1, 555120, Note_on_c, 0, 45, 0
1, 555120, Note_on_c, 0, 53, 0
1, 555120, Note_on_c, 0, 41, 0
1, 555120, Note_on_c, 0, 48, 0
1, 555120, Note_on_c, 0, 36, 71
1, 555120, Note_on_c, 0, 48, 84
1, 555120, Control_c, 0, 64, 0
1, 555126, Control_c, 0, 64, 0
1, 555240, Note_on_c, 0, 48, 0
1, 555240, Note_on_c, 0, 36, 0
1, 555360, Tempo, 526316
1, 555360, Note_on_c, 0, 53, 61
1, 555360, Note_on_c, 0, 57, 61
1, 555360, Note_on_c, 0, 63, 72
1, 555360, Note_on_c, 0, 65, 72
1, 555360, Note_on_c, 0, 35, 66
1, 555360, Note_on_c, 0, 47, 78
1, 555480, Note_on_c, 0, 47, 0
1, 555480, Note_on_c, 0, 57, 0
1, 555480, Note_on_c, 0, 63, 0
1, 555480, Note_on_c, 0, 53, 0
1, 555480, Note_on_c, 0, 35, 0
1, 555480, Note_on_c, 0, 65, 0
1, 555600, Tempo, 483871
1, 555600, Note_on_c, 0, 53, 63
1, 555600, Note_on_c, 0, 62, 75
1, 555600, Note_on_c, 0, 65, 75
1, 555600, Note_on_c, 0, 34, 70
1, 555600, Note_on_c, 0, 46, 83
1, 555604, Note_on_c, 0, 58, 63
1, 555720, Note_on_c, 0, 46, 0
1, 555720, Note_on_c, 0, 34, 0
1, 555720, Note_on_c, 0, 65, 0
1, 555720, Note_on_c, 0, 53, 0
1, 555720, Note_on_c, 0, 62, 0
1, 555724, Note_on_c, 0, 58, 0
1, 555960, Tempo, 413793
1, 555960, Note_on_c, 0, 68, 64
1, 556020, Note_on_c, 0, 68, 0
1, 556020, Note_on_c, 0, 70, 64
1, 556080, Tempo, 428571
1, 556080, Note_on_c, 0, 70, 0
1, 556080, Note_on_c, 0, 68, 73
1, 556151, Control_c, 0, 64, 127
1, 556197, Tempo, 425532
1, 556229, Tempo, 422535
1, 556261, Tempo, 419580
1, 556293, Tempo, 416667
1, 556320, Note_on_c, 0, 74, 52
1, 556325, Tempo, 413793
1, 556357, Tempo, 410959
1, 556389, Tempo, 405405
1, 556400, Note_on_c, 0, 74, 0
1, 556400, Note_on_c, 0, 77, 54
1, 556421, Tempo, 402685
1, 556453, Tempo, 400000
1, 556480, Note_on_c, 0, 77, 0
1, 556480, Note_on_c, 0, 82, 55
1, 556485, Tempo, 397351
1, 556517, Tempo, 394737
1, 556560, Tempo, 425532
1, 556560, Note_on_c, 0, 82, 0
1, 556560, Note_on_c, 0, 68, 0
1, 556560, Note_on_c, 0, 86, 57
1, 556560, Note_on_c, 0, 67, 69
1, 556640, Note_on_c, 0, 86, 0
1, 556640, Note_on_c, 0, 89, 59
1, 556680, Note_on_c, 0, 67, 0
1, 556720, Note_on_c, 0, 89, 0
1, 556720, Note_on_c, 0, 94, 60
1, 556772, Tempo, 405405
1, 556800, Tempo, 441176
1, 556800, Note_on_c, 0, 94, 0
1, 556800, Note_on_c, 0, 98, 62
1, 556800, Note_on_c, 0, 65, 62
1, 556920, Note_on_c, 0, 65, 0
1, 556920, Note_on_c, 0, 98, 0
1, 556980, Tempo, 416667
1, 557040, Tempo, 419580
1, 557040, Note_on_c, 0, 70, 70
1, 557045, Control_c, 0, 64, 0
1, 557083, Control_c, 0, 64, 127
1, 557160, Note_on_c, 0, 70, 0
1, 557280, Tempo, 419580
1, 557280, Note_on_c, 0, 79, 53
1, 557280, Note_on_c, 0, 62, 63
1, 557317, Tempo, 454545
1, 557349, Tempo, 447761
1, 557360, Note_on_c, 0, 79, 0
1, 557360, Note_on_c, 0, 82, 55
1, 557381, Tempo, 437956
1, 557400, Note_on_c, 0, 62, 0
1, 557413, Tempo, 428571
1, 557440, Note_on_c, 0, 82, 0
1, 557440, Note_on_c, 0, 87, 57
1, 557445, Tempo, 419580
1, 557477, Tempo, 410959
1, 557509, Tempo, 425532
1, 557520, Note_on_c, 0, 87, 0
1, 557520, Note_on_c, 0, 91, 59
1, 557520, Note_on_c, 0, 63, 71
1, 557552, Control_c, 0, 64, 0
1, 557600, Note_on_c, 0, 91, 0
1, 557600, Note_on_c, 0, 94, 61
1, 557601, Control_c, 0, 64, 127
1, 557680, Note_on_c, 0, 94, 0
1, 557680, Note_on_c, 0, 99, 64
1, 557760, Tempo, 555556
1, 557760, Note_on_c, 0, 99, 0
1, 557760, Note_on_c, 0, 103, 66
1, 557857, Control_c, 0, 64, 0
1, 557880, Tempo, 472441
1, 557880, Note_on_c, 0, 103, 0
1, 557880, Note_on_c, 0, 63, 0
1, 557880, Note_on_c, 0, 64, 64
1, 557940, Note_on_c, 0, 64, 0
1, 557940, Note_on_c, 0, 66, 64
1, 557975, Tempo, 434783
1, 558000, Note_on_c, 0, 66, 0
1, 558000, Note_on_c, 0, 64, 73
1, 558013, Tempo, 431655
1, 558038, Tempo, 428571
1, 558076, Tempo, 425532
1, 558083, Control_c, 0, 64, 127
1, 558101, Tempo, 422535
1, 558139, Tempo, 419580
1, 558165, Tempo, 416667
1, 558203, Tempo, 413793
1, 558228, Tempo, 410959
1, 558240, Note_on_c, 0, 70, 52
1, 558253, Tempo, 408163
1, 558291, Tempo, 405405
1, 558316, Tempo, 402685
1, 558320, Note_on_c, 0, 70, 0
1, 558320, Note_on_c, 0, 73, 54
1, 558354, Tempo, 400000
1, 558379, Tempo, 397351
1, 558400, Note_on_c, 0, 73, 0
1, 558400, Note_on_c, 0, 78, 56
1, 558417, Tempo, 394737
1, 558443, Tempo, 392157
1, 558468, Tempo, 413793
1, 558480, Tempo, 425532
1, 558480, Note_on_c, 0, 78, 0
1, 558480, Note_on_c, 0, 64, 0
1, 558480, Note_on_c, 0, 82, 58
1, 558480, Note_on_c, 0, 63, 69
1, 558560, Note_on_c, 0, 82, 0
1, 558560, Note_on_c, 0, 85, 60
1, 558600, Note_on_c, 0, 63, 0
1, 558640, Note_on_c, 0, 85, 0
1, 558640, Note_on_c, 0, 90, 61
1, 558692, Tempo, 405405
1, 558720, Tempo, 441176
1, 558720, Note_on_c, 0, 90, 0
1, 558720, Note_on_c, 0, 94, 63
1, 558720, Note_on_c, 0, 61, 62
1, 558840, Note_on_c, 0, 61, 0
1, 558840, Note_on_c, 0, 94, 0
1, 558900, Tempo, 416667
1, 558960, Tempo, 419580
1, 558960, Note_on_c, 0, 66, 70
1, 558963, Control_c, 0, 64, 0
1, 559003, Control_c, 0, 64, 127
1, 559080, Note_on_c, 0, 66, 0
1, 559200, Tempo, 419580
1, 559200, Note_on_c, 0, 71, 54
1, 559200, Note_on_c, 0, 58, 63
1, 559260, Tempo, 444444
1, 559280, Note_on_c, 0, 71, 0
1, 559280, Note_on_c, 0, 75, 55
1, 559320, Note_on_c, 0, 58, 0
1, 559360, Note_on_c, 0, 75, 0
1, 559360, Note_on_c, 0, 78, 57
1, 559396, Tempo, 413793
1, 559440, Note_on_c, 0, 78, 0
1, 559440, Note_on_c, 0, 83, 58
1, 559440, Note_on_c, 0, 59, 71
1, 559453, Control_c, 0, 64, 0
1, 559460, Tempo, 410959
1, 559520, Note_on_c, 0, 83, 0
1, 559520, Note_on_c, 0, 87, 60
1, 559521, Control_c, 0, 64, 127
1, 559524, Tempo, 408163
1, 559556, Tempo, 405405
1, 559600, Note_on_c, 0, 87, 0
1, 559600, Note_on_c, 0, 90, 61
1, 559620, Tempo, 402685
1, 559680, Tempo, 560748
1, 559680, Note_on_c, 0, 90, 0
1, 559680, Note_on_c, 0, 95, 63
1, 559703, Control_c, 0, 64, 0
1, 559800, Tempo, 447761
1, 559800, Note_on_c, 0, 95, 0
1, 559800, Note_on_c, 0, 60, 64
1, 559860, Note_on_c, 0, 60, 0
1, 559860, Note_on_c, 0, 62, 64
1, 559895, Tempo, 447761
1, 559920, Note_on_c, 0, 62, 0
1, 559920, Note_on_c, 0, 59, 0
1, 559920, Note_on_c, 0, 60, 73
1, 559933, Tempo, 444444
1, 559958, Tempo, 441176
1, 559984, Tempo, 437956
1, 559995, Control_c, 0, 64, 127
1, 560009, Tempo, 434783
1, 560034, Tempo, 431655
1, 560059, Tempo, 428571
1, 560085, Tempo, 425532
1, 560110, Tempo, 422535
1, 560135, Tempo, 419580
1, 560160, Tempo, 416667
1, 560160, Note_on_c, 0, 66, 54
1, 560186, Tempo, 413793
1, 560211, Tempo, 410959
1, 560236, Tempo, 408163
1, 560240, Note_on_c, 0, 66, 0
1, 560240, Note_on_c, 0, 69, 56
1, 560261, Tempo, 405405
1, 560287, Tempo, 402685
1, 560312, Tempo, 400000
1, 560320, Note_on_c, 0, 69, 0
1, 560320, Note_on_c, 0, 74, 57
1, 560337, Tempo, 397351
1, 560363, Tempo, 394737
1, 560400, Tempo, 416667
1, 560400, Note_on_c, 0, 74, 0
1, 560400, Note_on_c, 0, 60, 0
1, 560400, Note_on_c, 0, 78, 58
1, 560400, Note_on_c, 0, 59, 69
1, 560480, Note_on_c, 0, 78, 0
1, 560480, Note_on_c, 0, 81, 59
1, 560520, Note_on_c, 0, 59, 0
1, 560560, Note_on_c, 0, 81, 0
1, 560560, Note_on_c, 0, 86, 60
1, 560612, Tempo, 405405
1, 560640, Tempo, 441176
1, 560640, Note_on_c, 0, 86, 0
1, 560640, Note_on_c, 0, 90, 62
1, 560640, Note_on_c, 0, 57, 62
1, 560760, Note_on_c, 0, 57, 0
1, 560760, Note_on_c, 0, 90, 0
1, 560820, Tempo, 416667
1, 560880, Tempo, 419580
1, 560880, Note_on_c, 0, 62, 70
1, 560885, Control_c, 0, 64, 0
1, 560923, Control_c, 0, 64, 127
1, 561000, Note_on_c, 0, 62, 0
1, 561120, Tempo, 419580
1, 561120, Note_on_c, 0, 67, 54
1, 561120, Note_on_c, 0, 54, 63
1, 561180, Tempo, 444444
1, 561200, Note_on_c, 0, 67, 0
1, 561200, Note_on_c, 0, 71, 55
1, 561240, Note_on_c, 0, 54, 0
1, 561280, Note_on_c, 0, 71, 0
1, 561280, Note_on_c, 0, 74, 57
1, 561316, Tempo, 413793
1, 561360, Note_on_c, 0, 74, 0
1, 561360, Note_on_c, 0, 79, 58
1, 561360, Note_on_c, 0, 55, 71
1, 561380, Tempo, 410959
1, 561392, Control_c, 0, 64, 0
1, 561440, Note_on_c, 0, 79, 0
1, 561440, Note_on_c, 0, 83, 59
1, 561441, Control_c, 0, 64, 127
1, 561444, Tempo, 408163
1, 561476, Tempo, 405405
1, 561520, Note_on_c, 0, 83, 0
1, 561520, Note_on_c, 0, 86, 60
1, 561540, Tempo, 402685
1, 561600, Tempo, 468750
1, 561600, Note_on_c, 0, 86, 0
1, 561600, Note_on_c, 0, 91, 62
1, 561655, Control_c, 0, 64, 0
1, 561720, Note_on_c, 0, 91, 0
1, 561720, Note_on_c, 0, 55, 0
1, 561828, Tempo, 431655
1, 561840, Note_on_c, 0, 44, 55
1, 561840, Note_on_c, 0, 56, 65
1, 561949, Control_c, 0, 64, 127
1, 561954, Tempo, 428571
1, 561960, Note_on_c, 0, 56, 0
1, 561960, Note_on_c, 0, 44, 0
1, 561960, Note_on_c, 0, 59, 45
1, 561960, Note_on_c, 0, 71, 54
1, 562055, Tempo, 425532
1, 562080, Note_on_c, 0, 71, 0
1, 562080, Note_on_c, 0, 59, 0
1, 562080, Note_on_c, 0, 50, 46
1, 562080, Note_on_c, 0, 62, 55
1, 562156, Tempo, 422535
1, 562200, Note_on_c, 0, 62, 0
1, 562200, Note_on_c, 0, 50, 0
1, 562200, Note_on_c, 0, 77, 55
1, 562200, Note_on_c, 0, 65, 46
1, 562257, Tempo, 419580
1, 562308, Tempo, 413793
1, 562320, Note_on_c, 0, 65, 0
1, 562320, Note_on_c, 0, 77, 0
1, 562320, Note_on_c, 0, 45, 55
1, 562320, Note_on_c, 0, 57, 65
1, 562343, Control_c, 0, 64, 0
1, 562383, Tempo, 410959
1, 562440, Note_on_c, 0, 57, 0
1, 562440, Note_on_c, 0, 45, 0
1, 562440, Note_on_c, 0, 72, 56
1, 562440, Note_on_c, 0, 60, 47
1, 562452, Control_c, 0, 64, 127
1, 562459, Tempo, 408163
1, 562510, Tempo, 405405
1, 562560, Note_on_c, 0, 60, 0
1, 562560, Note_on_c, 0, 72, 0
1, 562560, Note_on_c, 0, 63, 56
1, 562560, Note_on_c, 0, 51, 47
1, 562585, Tempo, 402685
1, 562636, Tempo, 400000
1, 562680, Note_on_c, 0, 51, 0
1, 562680, Note_on_c, 0, 63, 0
1, 562680, Note_on_c, 0, 78, 56
1, 562680, Note_on_c, 0, 66, 47
1, 562712, Tempo, 397351
1, 562762, Tempo, 394737
1, 562778, Tempo, 392157
1, 562800, Tempo, 405405
1, 562800, Note_on_c, 0, 66, 0
1, 562800, Note_on_c, 0, 78, 0
1, 562800, Note_on_c, 0, 46, 59
1, 562800, Note_on_c, 0, 58, 70
1, 562808, Control_c, 0, 64, 0
1, 562920, Note_on_c, 0, 58, 0
1, 562920, Note_on_c, 0, 46, 0
1, 562920, Note_on_c, 0, 75, 60
1, 562920, Note_on_c, 0, 63, 51
1, 562927, Control_c, 0, 64, 127
1, 563040, Note_on_c, 0, 63, 0
1, 563040, Note_on_c, 0, 75, 0
1, 563040, Note_on_c, 0, 67, 60
1, 563040, Note_on_c, 0, 55, 51
1, 563160, Note_on_c, 0, 55, 0
1, 563160, Note_on_c, 0, 67, 0
1, 563160, Note_on_c, 0, 82, 60
1, 563160, Note_on_c, 0, 70, 51
1, 563280, Note_on_c, 0, 70, 0
1, 563280, Note_on_c, 0, 82, 0
1, 563280, Note_on_c, 0, 63, 72
1, 563280, Note_on_c, 0, 51, 61
1, 563400, Note_on_c, 0, 51, 0
1, 563400, Note_on_c, 0, 63, 0
1, 563400, Note_on_c, 0, 79, 61
1, 563400, Note_on_c, 0, 67, 51
1, 563520, Note_on_c, 0, 67, 0
1, 563520, Note_on_c, 0, 79, 0
1, 563520, Note_on_c, 0, 70, 61
1, 563520, Note_on_c, 0, 58, 51
1, 563613, Tempo, 451128
1, 563640, Note_on_c, 0, 58, 0
1, 563640, Note_on_c, 0, 70, 0
1, 563640, Note_on_c, 0, 87, 61
1, 563640, Note_on_c, 0, 75, 51
1, 563758, Tempo, 397351
1, 563760, Note_on_c, 0, 75, 0
1, 563760, Note_on_c, 0, 87, 0
1, 563760, Note_on_c, 0, 53, 61
1, 563760, Note_on_c, 0, 65, 72
1, 563772, Control_c, 0, 64, 0
1, 563866, Control_c, 0, 64, 127
1, 563880, Note_on_c, 0, 65, 0
1, 563880, Note_on_c, 0, 53, 0
1, 563880, Note_on_c, 0, 82, 62
1, 563880, Note_on_c, 0, 70, 52
1, 564000, Note_on_c, 0, 70, 0
1, 564000, Note_on_c, 0, 82, 0
1, 564000, Note_on_c, 0, 74, 62
1, 564000, Note_on_c, 0, 62, 52
1, 564120, Note_on_c, 0, 62, 0
1, 564120, Note_on_c, 0, 74, 0
1, 564120, Note_on_c, 0, 89, 62
1, 564120, Note_on_c, 0, 77, 52
1, 564240, Note_on_c, 0, 77, 0
1, 564240, Note_on_c, 0, 89, 0
1, 564240, Note_on_c, 0, 70, 75
1, 564240, Note_on_c, 0, 58, 63
1, 564360, Note_on_c, 0, 58, 0
1, 564360, Note_on_c, 0, 70, 0
1, 564360, Note_on_c, 0, 86, 63
1, 564360, Note_on_c, 0, 74, 53
1, 564480, Note_on_c, 0, 74, 0
1, 564480, Note_on_c, 0, 86, 0
1, 564480, Note_on_c, 0, 77, 63
1, 564480, Note_on_c, 0, 65, 53
1, 564593, Tempo, 461538
1, 564600, Note_on_c, 0, 65, 0
1, 564600, Note_on_c, 0, 77, 0
1, 564600, Note_on_c, 0, 94, 63
1, 564600, Note_on_c, 0, 82, 53
1, 564720, Tempo, 428571
1, 564720, Note_on_c, 0, 82, 0
1, 564720, Note_on_c, 0, 94, 0
1, 564720, Note_on_c, 0, 56, 62
1, 564720, Note_on_c, 0, 68, 73
1, 564731, Control_c, 0, 64, 0
1, 564805, Control_c, 0, 64, 127
1, 564837, Tempo, 425532
1, 564869, Tempo, 422535
1, 564901, Tempo, 419580
1, 564933, Tempo, 416667
1, 564960, Note_on_c, 0, 74, 52
1, 564965, Tempo, 413793
1, 564997, Tempo, 410959
1, 565029, Tempo, 405405
1, 565040, Note_on_c, 0, 74, 0
1, 565040, Note_on_c, 0, 77, 54
1, 565061, Tempo, 402685
1, 565093, Tempo, 400000
1, 565120, Note_on_c, 0, 77, 0
1, 565120, Note_on_c, 0, 82, 55
1, 565125, Tempo, 397351
1, 565157, Tempo, 394737
1, 565200, Tempo, 425532
1, 565200, Note_on_c, 0, 82, 0
1, 565200, Note_on_c, 0, 68, 0
1, 565200, Note_on_c, 0, 56, 0
1, 565200, Note_on_c, 0, 86, 57
1, 565200, Note_on_c, 0, 55, 58
1, 565200, Note_on_c, 0, 67, 69
1, 565280, Note_on_c, 0, 86, 0
1, 565280, Note_on_c, 0, 89, 59
1, 565320, Note_on_c, 0, 67, 0
1, 565320, Note_on_c, 0, 55, 0
1, 565360, Note_on_c, 0, 89, 0
1, 565360, Note_on_c, 0, 94, 60
1, 565412, Tempo, 405405
1, 565440, Tempo, 441176
1, 565440, Note_on_c, 0, 94, 0
1, 565440, Note_on_c, 0, 98, 62
1, 565440, Note_on_c, 0, 53, 52
1, 565440, Note_on_c, 0, 65, 62
1, 565560, Note_on_c, 0, 65, 0
1, 565560, Note_on_c, 0, 53, 0
1, 565560, Note_on_c, 0, 98, 0
1, 565620, Tempo, 416667
1, 565680, Tempo, 419580
1, 565680, Note_on_c, 0, 58, 59
1, 565680, Note_on_c, 0, 70, 70
1, 565680, Control_c, 0, 64, 0
1, 565723, Control_c, 0, 64, 127
1, 565800, Note_on_c, 0, 70, 0
1, 565800, Note_on_c, 0, 58, 0
1, 565920, Tempo, 419580
1, 565920, Note_on_c, 0, 79, 53
1, 565920, Note_on_c, 0, 50, 53
1, 565920, Note_on_c, 0, 62, 63
1, 565957, Tempo, 454545
1, 565989, Tempo, 447761
1, 566000, Note_on_c, 0, 79, 0
1, 566000, Note_on_c, 0, 82, 55
1, 566021, Tempo, 437956
1, 566040, Note_on_c, 0, 62, 0
1, 566040, Note_on_c, 0, 50, 0
1, 566053, Tempo, 428571
1, 566080, Note_on_c, 0, 82, 0
1, 566080, Note_on_c, 0, 87, 57
1, 566085, Tempo, 419580
1, 566117, Tempo, 410959
1, 566149, Tempo, 425532
1, 566160, Note_on_c, 0, 87, 0
1, 566160, Note_on_c, 0, 91, 59
1, 566160, Note_on_c, 0, 51, 60
1, 566160, Note_on_c, 0, 63, 71
1, 566179, Control_c, 0, 64, 0
1, 566240, Note_on_c, 0, 91, 0
1, 566240, Note_on_c, 0, 94, 61
1, 566241, Control_c, 0, 64, 127
1, 566320, Note_on_c, 0, 94, 0
1, 566320, Note_on_c, 0, 99, 64
1, 566400, Tempo, 555556
1, 566400, Note_on_c, 0, 99, 0
1, 566400, Note_on_c, 0, 103, 66
1, 566478, Control_c, 0, 64, 0
1, 566520, Tempo, 472441
1, 566520, Note_on_c, 0, 103, 0
1, 566520, Note_on_c, 0, 63, 0
1, 566520, Note_on_c, 0, 51, 0
1, 566615, Tempo, 434783
1, 566640, Note_on_c, 0, 52, 62
1, 566640, Note_on_c, 0, 64, 73
1, 566653, Tempo, 431655
1, 566676, Control_c, 0, 64, 127
1, 566678, Tempo, 428571
1, 566716, Tempo, 425532
1, 566741, Tempo, 422535
1, 566779, Tempo, 419580
1, 566805, Tempo, 416667
1, 566843, Tempo, 413793
1, 566868, Tempo, 410959
1, 566880, Note_on_c, 0, 70, 52
1, 566893, Tempo, 408163
1, 566931, Tempo, 405405
1, 566956, Tempo, 402685
1, 566960, Note_on_c, 0, 70, 0
1, 566960, Note_on_c, 0, 73, 54
1, 566994, Tempo, 400000
1, 567019, Tempo, 397351
1, 567040, Note_on_c, 0, 73, 0
1, 567040, Note_on_c, 0, 78, 56
1, 567057, Tempo, 394737
1, 567083, Tempo, 392157
1, 567108, Tempo, 413793
1, 567120, Tempo, 425532
1, 567120, Note_on_c, 0, 78, 0
1, 567120, Note_on_c, 0, 64, 0
1, 567120, Note_on_c, 0, 52, 0
1, 567120, Note_on_c, 0, 82, 58
1, 567120, Note_on_c, 0, 51, 58
1, 567120, Note_on_c, 0, 63, 69
1, 567200, Note_on_c, 0, 82, 0
1, 567200, Note_on_c, 0, 85, 60
1, 567240, Note_on_c, 0, 63, 0
1, 567240, Note_on_c, 0, 51, 0
1, 567280, Note_on_c, 0, 85, 0
1, 567280, Note_on_c, 0, 90, 61
1, 567332, Tempo, 405405
1, 567360, Tempo, 441176
1, 567360, Note_on_c, 0, 90, 0
1, 567360, Note_on_c, 0, 94, 63
1, 567360, Note_on_c, 0, 49, 52
1, 567360, Note_on_c, 0, 61, 62
1, 567480, Note_on_c, 0, 61, 0
1, 567480, Note_on_c, 0, 49, 0
1, 567480, Note_on_c, 0, 94, 0
1, 567540, Tempo, 416667
1, 567600, Tempo, 419580
1, 567600, Note_on_c, 0, 54, 59
1, 567600, Note_on_c, 0, 66, 70
1, 567600, Control_c, 0, 64, 0
1, 567643, Control_c, 0, 64, 127
1, 567720, Note_on_c, 0, 66, 0
1, 567720, Note_on_c, 0, 54, 0
1, 567840, Tempo, 419580
1, 567840, Note_on_c, 0, 71, 54
1, 567840, Note_on_c, 0, 46, 53
1, 567840, Note_on_c, 0, 58, 63
1, 567900, Tempo, 444444
1, 567920, Note_on_c, 0, 71, 0
1, 567920, Note_on_c, 0, 75, 55
1, 567960, Note_on_c, 0, 58, 0
1, 567960, Note_on_c, 0, 46, 0
1, 568000, Note_on_c, 0, 75, 0
1, 568000, Note_on_c, 0, 78, 57
1, 568036, Tempo, 413793
1, 568080, Note_on_c, 0, 78, 0
1, 568080, Note_on_c, 0, 83, 58
1, 568080, Note_on_c, 0, 47, 60
1, 568080, Note_on_c, 0, 59, 71
1, 568093, Control_c, 0, 64, 0
1, 568100, Tempo, 410959
1, 568160, Note_on_c, 0, 83, 0
1, 568160, Note_on_c, 0, 87, 60
1, 568161, Control_c, 0, 64, 127
1, 568164, Tempo, 408163
1, 568196, Tempo, 405405
1, 568240, Note_on_c, 0, 87, 0
1, 568240, Note_on_c, 0, 90, 61
1, 568260, Tempo, 402685
1, 568320, Tempo, 560748
1, 568320, Note_on_c, 0, 90, 0
1, 568320, Note_on_c, 0, 95, 63
1, 568352, Control_c, 0, 64, 0
1, 568440, Tempo, 447761
1, 568440, Note_on_c, 0, 95, 0
1, 568440, Note_on_c, 0, 59, 0
1, 568440, Note_on_c, 0, 47, 0
1, 568535, Tempo, 447761
1, 568560, Note_on_c, 0, 48, 62
1, 568560, Note_on_c, 0, 60, 73
1, 568573, Tempo, 444444
1, 568596, Control_c, 0, 64, 127
1, 568598, Tempo, 441176
1, 568624, Tempo, 437956
1, 568649, Tempo, 434783
1, 568674, Tempo, 431655
1, 568699, Tempo, 428571
1, 568725, Tempo, 425532
1, 568750, Tempo, 422535
1, 568775, Tempo, 419580
1, 568800, Tempo, 416667
1, 568800, Note_on_c, 0, 66, 54
1, 568826, Tempo, 413793
1, 568851, Tempo, 410959
1, 568876, Tempo, 408163
1, 568880, Note_on_c, 0, 66, 0
1, 568880, Note_on_c, 0, 68, 56
1, 568901, Tempo, 405405
1, 568927, Tempo, 402685
1, 568952, Tempo, 400000
1, 568960, Note_on_c, 0, 68, 0
1, 568960, Note_on_c, 0, 74, 57
1, 568977, Tempo, 397351
1, 569003, Tempo, 394737
1, 569040, Tempo, 416667
1, 569040, Note_on_c, 0, 74, 0
1, 569040, Note_on_c, 0, 60, 0
1, 569040, Note_on_c, 0, 48, 0
1, 569040, Note_on_c, 0, 78, 58
1, 569040, Note_on_c, 0, 47, 58
1, 569040, Note_on_c, 0, 59, 69
1, 569120, Note_on_c, 0, 78, 0
1, 569120, Note_on_c, 0, 80, 59
1, 569160, Note_on_c, 0, 59, 0
1, 569160, Note_on_c, 0, 47, 0
1, 569200, Note_on_c, 0, 80, 0
1, 569200, Note_on_c, 0, 86, 60
1, 569252, Tempo, 405405
1, 569280, Tempo, 441176
1, 569280, Note_on_c, 0, 86, 0
1, 569280, Note_on_c, 0, 90, 62
1, 569280, Note_on_c, 0, 45, 52
1, 569280, Note_on_c, 0, 57, 62
1, 569400, Note_on_c, 0, 57, 0
1, 569400, Note_on_c, 0, 45, 0
1, 569400, Note_on_c, 0, 90, 0
1, 569460, Tempo, 416667
1, 569520, Tempo, 419580
1, 569520, Note_on_c, 0, 50, 59
1, 569520, Note_on_c, 0, 62, 70
1, 569522, Control_c, 0, 64, 0
1, 569563, Control_c, 0, 64, 127
1, 569640, Note_on_c, 0, 62, 0
1, 569640, Note_on_c, 0, 50, 0
1, 569760, Tempo, 419580
1, 569760, Note_on_c, 0, 67, 54
1, 569760, Note_on_c, 0, 42, 53
1, 569760, Note_on_c, 0, 54, 63
1, 569820, Tempo, 444444
1, 569840, Note_on_c, 0, 67, 0
1, 569840, Note_on_c, 0, 71, 55
1, 569880, Note_on_c, 0, 54, 0
1, 569880, Note_on_c, 0, 42, 0
1, 569920, Note_on_c, 0, 71, 0
1, 569920, Note_on_c, 0, 74, 57
1, 569956, Tempo, 413793
1, 570000, Note_on_c, 0, 74, 0
1, 570000, Note_on_c, 0, 79, 58
1, 570000, Note_on_c, 0, 43, 60
1, 570000, Note_on_c, 0, 55, 71
1, 570020, Tempo, 410959
1, 570021, Control_c, 0, 64, 0
1, 570080, Note_on_c, 0, 79, 0
1, 570080, Note_on_c, 0, 83, 59
1, 570081, Control_c, 0, 64, 127
1, 570084, Tempo, 408163
1, 570116, Tempo, 405405
1, 570160, Note_on_c, 0, 83, 0
1, 570160, Note_on_c, 0, 86, 60
1, 570180, Tempo, 402685
1, 570240, Tempo, 468750
1, 570240, Note_on_c, 0, 86, 0
1, 570240, Note_on_c, 0, 91, 62
1, 570315, Control_c, 0, 64, 0
1, 570360, Note_on_c, 0, 91, 0
1, 570360, Note_on_c, 0, 55, 0
1, 570360, Note_on_c, 0, 43, 0
1, 570468, Tempo, 431655
1, 570480, Note_on_c, 0, 44, 55
1, 570480, Note_on_c, 0, 56, 65
1, 570589, Control_c, 0, 64, 127
1, 570594, Tempo, 428571
1, 570600, Note_on_c, 0, 56, 0
1, 570600, Note_on_c, 0, 44, 0
1, 570600, Note_on_c, 0, 59, 45
1, 570600, Note_on_c, 0, 71, 54
1, 570695, Tempo, 425532
1, 570720, Note_on_c, 0, 71, 0
1, 570720, Note_on_c, 0, 59, 0
1, 570720, Note_on_c, 0, 50, 46
1, 570720, Note_on_c, 0, 62, 55
1, 570796, Tempo, 422535
1, 570840, Note_on_c, 0, 62, 0
1, 570840, Note_on_c, 0, 50, 0
1, 570840, Note_on_c, 0, 77, 55
1, 570840, Note_on_c, 0, 65, 46
1, 570860, Tempo, 413765
1, 570900, Tempo, 412343
1, 570940, Tempo, 410931
1, 570960, Note_on_c, 0, 65, 0
1, 570960, Note_on_c, 0, 77, 0
1, 570960, Note_on_c, 0, 45, 55
1, 570960, Note_on_c, 0, 57, 65
1, 570980, Tempo, 409528
1, 570983, Control_c, 0, 64, 0
1, 571020, Tempo, 406752
1, 571060, Tempo, 405378
1, 571080, Note_on_c, 0, 57, 0
1, 571080, Note_on_c, 0, 45, 0
1, 571080, Note_on_c, 0, 72, 56
1, 571080, Note_on_c, 0, 60, 47
1, 571092, Control_c, 0, 64, 127
1, 571100, Tempo, 404013
1, 571140, Tempo, 401311
1, 571180, Tempo, 399973
1, 571200, Note_on_c, 0, 60, 0
1, 571200, Note_on_c, 0, 72, 0
1, 571200, Note_on_c, 0, 63, 56
1, 571200, Note_on_c, 0, 51, 47
1, 571220, Tempo, 398645
1, 571260, Tempo, 397325
1, 571300, Tempo, 394711
1, 571320, Note_on_c, 0, 51, 0
1, 571320, Note_on_c, 0, 63, 0
1, 571320, Note_on_c, 0, 78, 56
1, 571320, Note_on_c, 0, 66, 47
1, 571340, Tempo, 393417
1, 571380, Tempo, 392131
1, 571420, Tempo, 389585
1, 571440, Tempo, 405405
1, 571440, Note_on_c, 0, 66, 0
1, 571440, Note_on_c, 0, 78, 0
1, 571440, Note_on_c, 0, 46, 58
1, 571440, Note_on_c, 0, 58, 69
1, 571448, Control_c, 0, 64, 0
1, 571560, Note_on_c, 0, 58, 0
1, 571560, Note_on_c, 0, 46, 0
1, 571560, Note_on_c, 0, 75, 57
1, 571560, Note_on_c, 0, 63, 48
1, 571567, Control_c, 0, 64, 127
1, 571680, Note_on_c, 0, 63, 0
1, 571680, Note_on_c, 0, 75, 0
1, 571680, Note_on_c, 0, 67, 57
1, 571680, Note_on_c, 0, 55, 48
1, 571800, Note_on_c, 0, 55, 0
1, 571800, Note_on_c, 0, 67, 0
1, 571800, Note_on_c, 0, 82, 57
1, 571800, Note_on_c, 0, 70, 48
1, 571920, Note_on_c, 0, 70, 0
1, 571920, Note_on_c, 0, 82, 0
1, 571920, Note_on_c, 0, 63, 69
1, 571920, Note_on_c, 0, 51, 58
1, 572040, Note_on_c, 0, 51, 0
1, 572040, Note_on_c, 0, 63, 0
1, 572040, Note_on_c, 0, 79, 57
1, 572040, Note_on_c, 0, 67, 48
1, 572160, Note_on_c, 0, 67, 0
1, 572160, Note_on_c, 0, 79, 0
1, 572160, Note_on_c, 0, 70, 57
1, 572160, Note_on_c, 0, 58, 48
1, 572253, Tempo, 451128
1, 572280, Note_on_c, 0, 58, 0
1, 572280, Note_on_c, 0, 70, 0
1, 572280, Note_on_c, 0, 87, 58
1, 572280, Note_on_c, 0, 75, 49
1, 572398, Tempo, 397351
1, 572400, Tempo, 394711
1, 572400, Note_on_c, 0, 75, 0
1, 572400, Note_on_c, 0, 87, 0
1, 572400, Note_on_c, 0, 55, 60
1, 572400, Note_on_c, 0, 67, 71
1, 572520, Note_on_c, 0, 67, 0
1, 572520, Note_on_c, 0, 55, 0
1, 572520, Note_on_c, 0, 82, 59
1, 572520, Note_on_c, 0, 70, 50
1, 572640, Note_on_c, 0, 70, 0
1, 572640, Note_on_c, 0, 82, 0
1, 572640, Note_on_c, 0, 75, 59
1, 572640, Note_on_c, 0, 63, 50
1, 572760, Note_on_c, 0, 63, 0
1, 572760, Note_on_c, 0, 75, 0
1, 572760, Note_on_c, 0, 91, 59
1, 572760, Note_on_c, 0, 79, 50
1, 572880, Note_on_c, 0, 79, 0
1, 572880, Note_on_c, 0, 91, 0
1, 572880, Note_on_c, 0, 70, 72
1, 572880, Note_on_c, 0, 58, 61
1, 573000, Note_on_c, 0, 58, 0
1, 573000, Note_on_c, 0, 70, 0
1, 573000, Note_on_c, 0, 87, 55
1, 573000, Note_on_c, 0, 75, 55
1, 573120, Note_on_c, 0, 75, 0
1, 573120, Note_on_c, 0, 87, 0
1, 573120, Note_on_c, 0, 79, 55
1, 573120, Note_on_c, 0, 67, 55
1, 573233, Tempo, 461538
1, 573240, Note_on_c, 0, 67, 0
1, 573240, Note_on_c, 0, 79, 0
1, 573240, Note_on_c, 0, 94, 55
1, 573240, Note_on_c, 0, 82, 55
1, 573360, Tempo, 397325
1, 573360, Note_on_c, 0, 82, 0
1, 573360, Note_on_c, 0, 94, 0
1, 573360, Note_on_c, 0, 65, 64
1, 573360, Note_on_c, 0, 77, 64
1, 573360, Control_c, 0, 64, 0
1, 573431, Control_c, 0, 64, 127
1, 573480, Note_on_c, 0, 77, 0
1, 573480, Note_on_c, 0, 65, 0
1, 573480, Note_on_c, 0, 92, 50
1, 573480, Note_on_c, 0, 80, 50
1, 573600, Note_on_c, 0, 80, 0
1, 573600, Note_on_c, 0, 92, 0
1, 573600, Note_on_c, 0, 62, 58
1, 573600, Note_on_c, 0, 74, 58
1, 573720, Note_on_c, 0, 74, 0
1, 573720, Note_on_c, 0, 62, 0
1, 573720, Note_on_c, 0, 89, 50
1, 573720, Note_on_c, 0, 77, 50
1, 573840, Note_on_c, 0, 77, 0
1, 573840, Note_on_c, 0, 89, 0
1, 573840, Note_on_c, 0, 58, 57
1, 573840, Note_on_c, 0, 70, 57
1, 573960, Note_on_c, 0, 70, 0
1, 573960, Note_on_c, 0, 58, 0
1, 573960, Note_on_c, 0, 86, 50
1, 573960, Note_on_c, 0, 74, 50
1, 574080, Note_on_c, 0, 74, 0
1, 574080, Note_on_c, 0, 86, 0
1, 574080, Note_on_c, 0, 56, 57
1, 574080, Note_on_c, 0, 68, 57
1, 574200, Tempo, 431655
1, 574200, Note_on_c, 0, 68, 0
1, 574200, Note_on_c, 0, 56, 0
1, 574200, Note_on_c, 0, 82, 50
1, 574200, Note_on_c, 0, 70, 50
1, 574320, Tempo, 397351
1, 574320, Note_on_c, 0, 70, 0
1, 574320, Note_on_c, 0, 82, 0
1, 574320, Note_on_c, 0, 53, 64
1, 574320, Note_on_c, 0, 65, 64
1, 574440, Note_on_c, 0, 65, 0
1, 574440, Note_on_c, 0, 53, 0
1, 574440, Note_on_c, 0, 80, 50
1, 574440, Note_on_c, 0, 68, 50
1, 574560, Note_on_c, 0, 68, 0
1, 574560, Note_on_c, 0, 80, 0
1, 574560, Note_on_c, 0, 50, 58
1, 574560, Note_on_c, 0, 62, 58
1, 574680, Note_on_c, 0, 62, 0
1, 574680, Note_on_c, 0, 50, 0
1, 574680, Note_on_c, 0, 77, 50
1, 574680, Note_on_c, 0, 65, 50
1, 574800, Note_on_c, 0, 65, 0
1, 574800, Note_on_c, 0, 77, 0
1, 574800, Note_on_c, 0, 46, 57
1, 574800, Note_on_c, 0, 58, 57
1, 574920, Note_on_c, 0, 58, 0
1, 574920, Note_on_c, 0, 46, 0
1, 574920, Note_on_c, 0, 74, 51
1, 574920, Note_on_c, 0, 62, 51
1, 575040, Note_on_c, 0, 62, 0
1, 575040, Note_on_c, 0, 74, 0
1, 575040, Note_on_c, 0, 44, 59
1, 575040, Note_on_c, 0, 56, 59
1, 575160, Tempo, 465116
1, 575160, Note_on_c, 0, 56, 0
1, 575160, Note_on_c, 0, 44, 0
1, 575160, Note_on_c, 0, 65, 53
1, 575160, Note_on_c, 0, 77, 53
1, 575280, Tempo, 400000
1, 575280, Note_on_c, 0, 77, 0
1, 575280, Note_on_c, 0, 65, 0
1, 575280, Note_on_c, 0, 41, 70
1, 575280, Note_on_c, 0, 53, 70
1, 575280, Control_c, 0, 64, 0
1, 575360, Control_c, 0, 64, 127
1, 575400, Note_on_c, 0, 53, 0
1, 575400, Note_on_c, 0, 41, 0
1, 575400, Note_on_c, 0, 80, 56
1, 575400, Note_on_c, 0, 68, 56
1, 575520, Note_on_c, 0, 68, 0
1, 575520, Note_on_c, 0, 80, 0
1, 575520, Note_on_c, 0, 38, 66
1, 575520, Note_on_c, 0, 50, 66
1, 575640, Note_on_c, 0, 50, 0
1, 575640, Note_on_c, 0, 38, 0
1, 575640, Note_on_c, 0, 82, 58
1, 575640, Note_on_c, 0, 70, 58
1, 575760, Note_on_c, 0, 70, 0
1, 575760, Note_on_c, 0, 82, 0
1, 575760, Note_on_c, 0, 34, 68
1, 575760, Note_on_c, 0, 46, 68
1, 575880, Note_on_c, 0, 46, 0
1, 575880, Note_on_c, 0, 34, 0
1, 575880, Note_on_c, 0, 86, 61
1, 575880, Note_on_c, 0, 74, 61
1, 576000, Note_on_c, 0, 74, 0
1, 576000, Note_on_c, 0, 86, 0
1, 576000, Note_on_c, 0, 33, 71
1, 576000, Note_on_c, 0, 45, 71
1, 576120, Note_on_c, 0, 45, 0
1, 576120, Note_on_c, 0, 33, 0
1, 576120, Note_on_c, 0, 77, 64
1, 576120, Note_on_c, 0, 89, 64
1, 576240, Tempo, 394711
1, 576240, Note_on_c, 0, 89, 0
1, 576240, Note_on_c, 0, 77, 0
1, 576240, Note_on_c, 0, 32, 84
1, 576240, Note_on_c, 0, 44, 84
1, 576240, Control_c, 0, 64, 0
1, 576325, Control_c, 0, 64, 127
1, 576360, Note_on_c, 0, 44, 0
1, 576360, Note_on_c, 0, 32, 0
1, 576360, Note_on_c, 0, 92, 67
1, 576360, Note_on_c, 0, 80, 67
1, 576480, Note_on_c, 0, 80, 0
1, 576480, Note_on_c, 0, 92, 0
1, 576480, Note_on_c, 0, 31, 80
1, 576480, Note_on_c, 0, 43, 80
1, 576600, Note_on_c, 0, 43, 0
1, 576600, Note_on_c, 0, 31, 0
1, 576600, Note_on_c, 0, 94, 70
1, 576600, Note_on_c, 0, 82, 70
1, 576645, Tempo, 394737
1, 576696, Tempo, 397351
1, 576720, Note_on_c, 0, 82, 0
1, 576720, Note_on_c, 0, 94, 0
1, 576720, Note_on_c, 0, 29, 81
1, 576720, Note_on_c, 0, 41, 81
1, 576746, Tempo, 400000
1, 576797, Tempo, 402685
1, 576840, Note_on_c, 0, 41, 0
1, 576840, Note_on_c, 0, 29, 0
1, 576840, Note_on_c, 0, 96, 73
1, 576840, Note_on_c, 0, 84, 73
1, 576847, Tempo, 405405
1, 576873, Tempo, 408163
1, 576923, Tempo, 410959
1, 576960, Note_on_c, 0, 84, 0
1, 576960, Note_on_c, 0, 96, 0
1, 576960, Note_on_c, 0, 34, 85
1, 576960, Note_on_c, 0, 46, 85
1, 576974, Tempo, 413793
1, 577024, Tempo, 416667
1, 577075, Tempo, 419580
1, 577080, Note_on_c, 0, 46, 0
1, 577080, Note_on_c, 0, 34, 0
1, 577080, Note_on_c, 0, 86, 75
1, 577080, Note_on_c, 0, 98, 75
1, 577100, Tempo, 422535
1, 577200, Tempo, 400000
1, 577200, Note_on_c, 0, 98, 0
1, 577200, Note_on_c, 0, 86, 0
1, 577200, Note_on_c, 0, 27, 79
1, 577200, Note_on_c, 0, 39, 94
1, 577219, Control_c, 0, 64, 0
1, 577320, Note_on_c, 0, 39, 0
1, 577320, Note_on_c, 0, 27, 0
1, 577320, Note_on_c, 0, 99, 82
1, 577320, Note_on_c, 0, 87, 70
1, 577324, Control_c, 0, 64, 127
1, 577440, Note_on_c, 0, 87, 0
1, 577440, Note_on_c, 0, 99, 0
1, 577440, Note_on_c, 0, 34, 73
1, 577440, Note_on_c, 0, 46, 87
1, 577560, Note_on_c, 0, 46, 0
1, 577560, Note_on_c, 0, 34, 0
1, 577560, Note_on_c, 0, 101, 73
1, 577560, Note_on_c, 0, 98, 73
1, 577560, Note_on_c, 0, 94, 62
1, 577560, Note_on_c, 0, 89, 62
1, 577680, Note_on_c, 0, 89, 0
1, 577680, Note_on_c, 0, 101, 0
1, 577680, Note_on_c, 0, 98, 0
1, 577680, Note_on_c, 0, 94, 0
1, 577680, Note_on_c, 0, 39, 78
1, 577680, Note_on_c, 0, 51, 93
1, 577694, Control_c, 0, 64, 0
1, 577758, Control_c, 0, 64, 127
1, 577800, Tempo, 397325
1, 577800, Note_on_c, 0, 51, 0
1, 577800, Note_on_c, 0, 39, 0
1, 577800, Note_on_c, 0, 103, 77
1, 577800, Note_on_c, 0, 99, 77
1, 577800, Note_on_c, 0, 94, 66
1, 577800, Note_on_c, 0, 91, 66
1, 577920, Note_on_c, 0, 91, 0
1, 577920, Note_on_c, 0, 103, 0
1, 577920, Note_on_c, 0, 99, 0
1, 577920, Note_on_c, 0, 94, 0
1, 577920, Note_on_c, 0, 46, 73
1, 577920, Note_on_c, 0, 58, 87
1, 578040, Tempo, 422535
1, 578040, Note_on_c, 0, 58, 0
1, 578040, Note_on_c, 0, 46, 0
1, 578040, Note_on_c, 0, 101, 77
1, 578040, Note_on_c, 0, 98, 77
1, 578040, Note_on_c, 0, 94, 66
1, 578040, Note_on_c, 0, 89, 66
1, 578160, Tempo, 400000
1, 578160, Note_on_c, 0, 89, 0
1, 578160, Note_on_c, 0, 101, 0
1, 578160, Note_on_c, 0, 98, 0
1, 578160, Note_on_c, 0, 94, 0
1, 578160, Note_on_c, 0, 51, 78
1, 578160, Note_on_c, 0, 63, 93
1, 578167, Control_c, 0, 64, 0
1, 578245, Control_c, 0, 64, 127
1, 578280, Note_on_c, 0, 63, 0
1, 578280, Note_on_c, 0, 51, 0
1, 578280, Note_on_c, 0, 103, 77
1, 578280, Note_on_c, 0, 99, 77
1, 578280, Note_on_c, 0, 94, 66
1, 578280, Note_on_c, 0, 91, 66
1, 578400, Note_on_c, 0, 91, 0
1, 578400, Note_on_c, 0, 103, 0
1, 578400, Note_on_c, 0, 99, 0
1, 578400, Note_on_c, 0, 94, 0
1, 578400, Note_on_c, 0, 46, 69
1, 578400, Note_on_c, 0, 58, 81
1, 578520, Tempo, 394711
1, 578520, Note_on_c, 0, 58, 0
1, 578520, Note_on_c, 0, 46, 0
1, 578520, Note_on_c, 0, 101, 77
1, 578520, Note_on_c, 0, 98, 77
1, 578520, Note_on_c, 0, 94, 66
1, 578520, Note_on_c, 0, 89, 66
1, 578640, Tempo, 393417
1, 578640, Note_on_c, 0, 89, 0
1, 578640, Note_on_c, 0, 101, 0
1, 578640, Note_on_c, 0, 98, 0
1, 578640, Note_on_c, 0, 94, 0
1, 578640, Note_on_c, 0, 39, 74
1, 578640, Note_on_c, 0, 51, 88
1, 578659, Control_c, 0, 64, 0
1, 578760, Note_on_c, 0, 51, 0
1, 578760, Note_on_c, 0, 39, 0
1, 578760, Note_on_c, 0, 103, 77
1, 578760, Note_on_c, 0, 99, 77
1, 578760, Note_on_c, 0, 91, 66
1, 578760, Note_on_c, 0, 94, 66
1, 578760, Control_c, 0, 64, 127
1, 578880, Note_on_c, 0, 94, 0
1, 578880, Note_on_c, 0, 103, 0
1, 578880, Note_on_c, 0, 99, 0
1, 578880, Note_on_c, 0, 91, 0
1, 578880, Note_on_c, 0, 34, 71
1, 578880, Note_on_c, 0, 46, 84
1, 579000, Tempo, 428571
1, 579000, Note_on_c, 0, 46, 0
1, 579000, Note_on_c, 0, 34, 0
1, 579000, Note_on_c, 0, 101, 77
1, 579000, Note_on_c, 0, 98, 77
1, 579000, Note_on_c, 0, 94, 66
1, 579000, Note_on_c, 0, 89, 66
1, 579120, Tempo, 396013
1, 579120, Note_on_c, 0, 89, 0
1, 579120, Note_on_c, 0, 101, 0
1, 579120, Note_on_c, 0, 98, 0
1, 579120, Note_on_c, 0, 94, 0
1, 579120, Note_on_c, 0, 39, 78
1, 579120, Note_on_c, 0, 51, 93
1, 579127, Control_c, 0, 64, 0
1, 579205, Control_c, 0, 64, 127
1, 579240, Note_on_c, 0, 51, 0
1, 579240, Note_on_c, 0, 39, 0
1, 579240, Note_on_c, 0, 103, 77
1, 579240, Note_on_c, 0, 99, 77
1, 579240, Note_on_c, 0, 94, 66
1, 579240, Note_on_c, 0, 91, 66
1, 579360, Note_on_c, 0, 91, 0
1, 579360, Note_on_c, 0, 103, 0
1, 579360, Note_on_c, 0, 99, 0
1, 579360, Note_on_c, 0, 94, 0
1, 579360, Note_on_c, 0, 46, 69
1, 579360, Note_on_c, 0, 58, 81
1, 579480, Note_on_c, 0, 58, 0
1, 579480, Note_on_c, 0, 46, 0
1, 579480, Note_on_c, 0, 101, 77
1, 579480, Note_on_c, 0, 98, 77
1, 579480, Note_on_c, 0, 94, 66
1, 579480, Note_on_c, 0, 89, 66
1, 579600, Note_on_c, 0, 89, 0
1, 579600, Note_on_c, 0, 101, 0
1, 579600, Note_on_c, 0, 98, 0
1, 579600, Note_on_c, 0, 94, 0
1, 579600, Note_on_c, 0, 51, 74
1, 579600, Note_on_c, 0, 63, 88
1, 579620, Control_c, 0, 64, 0
1, 579720, Note_on_c, 0, 63, 0
1, 579720, Note_on_c, 0, 51, 0
1, 579720, Note_on_c, 0, 103, 77
1, 579720, Note_on_c, 0, 99, 77
1, 579720, Note_on_c, 0, 91, 66
1, 579720, Note_on_c, 0, 94, 66
1, 579720, Control_c, 0, 64, 127
1, 579840, Note_on_c, 0, 94, 0
1, 579840, Note_on_c, 0, 103, 0
1, 579840, Note_on_c, 0, 99, 0
1, 579840, Note_on_c, 0, 91, 0
1, 579840, Note_on_c, 0, 46, 71
1, 579840, Note_on_c, 0, 58, 84
1, 579960, Tempo, 437956
1, 579960, Note_on_c, 0, 58, 0
1, 579960, Note_on_c, 0, 46, 0
1, 579960, Note_on_c, 0, 101, 77
1, 579960, Note_on_c, 0, 98, 77
1, 579960, Note_on_c, 0, 94, 66
1, 579960, Note_on_c, 0, 89, 66
1, 580080, Tempo, 400000
1, 580080, Note_on_c, 0, 89, 0
1, 580080, Note_on_c, 0, 101, 0
1, 580080, Note_on_c, 0, 98, 0
1, 580080, Note_on_c, 0, 94, 0
1, 580080, Note_on_c, 0, 39, 78
1, 580080, Note_on_c, 0, 51, 93
1, 580087, Control_c, 0, 64, 0
1, 580165, Control_c, 0, 64, 127
1, 580200, Note_on_c, 0, 51, 0
1, 580200, Note_on_c, 0, 39, 0
1, 580200, Note_on_c, 0, 103, 77
1, 580200, Note_on_c, 0, 99, 77
1, 580200, Note_on_c, 0, 94, 66
1, 580200, Note_on_c, 0, 91, 66
1, 580320, Note_on_c, 0, 91, 0
1, 580320, Note_on_c, 0, 103, 0
1, 580320, Note_on_c, 0, 99, 0
1, 580320, Note_on_c, 0, 94, 0
1, 580320, Note_on_c, 0, 34, 69
1, 580320, Note_on_c, 0, 46, 81
1, 580440, Note_on_c, 0, 46, 0
1, 580440, Note_on_c, 0, 34, 0
1, 580440, Note_on_c, 0, 101, 77
1, 580440, Note_on_c, 0, 98, 77
1, 580440, Note_on_c, 0, 94, 66
1, 580440, Note_on_c, 0, 89, 66
1, 580536, Tempo, 400000
1, 580560, Note_on_c, 0, 89, 0
1, 580560, Note_on_c, 0, 101, 0
1, 580560, Note_on_c, 0, 98, 0
1, 580560, Note_on_c, 0, 94, 0
1, 580560, Note_on_c, 0, 39, 74
1, 580560, Note_on_c, 0, 51, 88
1, 580580, Control_c, 0, 64, 0
1, 580586, Tempo, 402685
1, 580637, Tempo, 405405
1, 580680, Note_on_c, 0, 51, 0
1, 580680, Note_on_c, 0, 39, 0
1, 580680, Note_on_c, 0, 103, 77
1, 580680, Note_on_c, 0, 99, 77
1, 580680, Note_on_c, 0, 91, 66
1, 580680, Note_on_c, 0, 94, 66
1, 580680, Control_c, 0, 64, 127
1, 580687, Tempo, 408163
1, 580738, Tempo, 410959
1, 580763, Tempo, 413793
1, 580800, Note_on_c, 0, 94, 0
1, 580800, Note_on_c, 0, 103, 0
1, 580800, Note_on_c, 0, 99, 0
1, 580800, Note_on_c, 0, 91, 0
1, 580800, Note_on_c, 0, 46, 71
1, 580800, Note_on_c, 0, 58, 84
1, 580814, Tempo, 416667
1, 580864, Tempo, 419580
1, 580915, Tempo, 422535
1, 580920, Note_on_c, 0, 58, 0
1, 580920, Note_on_c, 0, 46, 0
1, 580920, Note_on_c, 0, 101, 77
1, 580920, Note_on_c, 0, 98, 77
1, 580920, Note_on_c, 0, 94, 66
1, 580920, Note_on_c, 0, 89, 66
1, 580965, Tempo, 425532
1, 580990, Tempo, 428571
1, 581040, Note_on_c, 0, 89, 0
1, 581040, Note_on_c, 0, 101, 0
1, 581040, Note_on_c, 0, 98, 0
1, 581040, Note_on_c, 0, 94, 0
1, 581040, Note_on_c, 0, 91, 77
1, 581040, Note_on_c, 0, 94, 77
1, 581040, Note_on_c, 0, 99, 77
1, 581040, Note_on_c, 0, 103, 93
1, 581040, Note_on_c, 0, 51, 78
1, 581040, Note_on_c, 0, 63, 93
1, 581043, Control_c, 0, 64, 0
1, 581125, Control_c, 0, 64, 127
1, 581160, Note_on_c, 0, 63, 0
1, 581160, Note_on_c, 0, 51, 0
1, 581280, Note_on_c, 0, 99, 0
1, 581280, Note_on_c, 0, 91, 0
1, 581280, Note_on_c, 0, 94, 0
1, 581280, Note_on_c, 0, 103, 0
1, 581400, Tempo, 415196
1, 581400, Note_on_c, 0, 70, 68
1, 581400, Note_on_c, 0, 67, 68
1, 581400, Note_on_c, 0, 75, 68
1, 581400, Note_on_c, 0, 79, 80
1, 581400, Note_on_c, 0, 55, 64
1, 581400, Note_on_c, 0, 51, 64
1, 581400, Note_on_c, 0, 58, 64
1, 581400, Note_on_c, 0, 63, 75
1, 581520, Tempo, 428541
1, 581520, Note_on_c, 0, 63, 0
1, 581520, Note_on_c, 0, 70, 0
1, 581520, Note_on_c, 0, 55, 0
1, 581520, Note_on_c, 0, 67, 0
1, 581520, Note_on_c, 0, 75, 0
1, 581520, Note_on_c, 0, 79, 0
1, 581520, Note_on_c, 0, 51, 0
1, 581520, Note_on_c, 0, 58, 0
1, 581520, Note_on_c, 0, 67, 75
1, 581520, Note_on_c, 0, 70, 75
1, 581520, Note_on_c, 0, 75, 75
1, 581520, Note_on_c, 0, 79, 89
1, 581520, Note_on_c, 0, 51, 68
1, 581520, Note_on_c, 0, 55, 68
1, 581520, Note_on_c, 0, 58, 68
1, 581520, Note_on_c, 0, 63, 80
1, 581640, Note_on_c, 0, 63, 0
1, 581640, Note_on_c, 0, 67, 0
1, 581640, Note_on_c, 0, 51, 0
1, 581640, Note_on_c, 0, 70, 0
1, 581640, Note_on_c, 0, 75, 0
1, 581640, Note_on_c, 0, 79, 0
1, 581640, Note_on_c, 0, 55, 0
1, 581640, Note_on_c, 0, 58, 0
1, 581880, Note_on_c, 0, 55, 70
1, 581880, Note_on_c, 0, 58, 70
1, 581880, Note_on_c, 0, 63, 82
1, 581880, Note_on_c, 0, 39, 65
1, 581880, Note_on_c, 0, 46, 65
1, 581880, Note_on_c, 0, 51, 76
1, 582000, Note_on_c, 0, 51, 0
1, 582000, Note_on_c, 0, 58, 0
1, 582000, Note_on_c, 0, 63, 0
1, 582000, Note_on_c, 0, 55, 0
1, 582000, Note_on_c, 0, 46, 0
1, 582000, Note_on_c, 0, 39, 0
1, 582000, Note_on_c, 0, 55, 76
1, 582000, Note_on_c, 0, 58, 76
1, 582000, Note_on_c, 0, 63, 91
1, 582000, Note_on_c, 0, 39, 68
1, 582000, Note_on_c, 0, 46, 68
1, 582000, Note_on_c, 0, 51, 80
1, 582120, Note_on_c, 0, 51, 0
1, 582120, Note_on_c, 0, 58, 0
1, 582120, Note_on_c, 0, 63, 0
1, 582120, Note_on_c, 0, 55, 0
1, 582120, Note_on_c, 0, 46, 0
1, 582120, Note_on_c, 0, 39, 0
1, 582240, Tempo, 418089
1, 582360, Note_on_c, 0, 70, 68
1, 582360, Note_on_c, 0, 75, 68
1, 582360, Note_on_c, 0, 82, 80
1, 582360, Note_on_c, 0, 55, 64
1, 582360, Note_on_c, 0, 58, 64
1, 582360, Note_on_c, 0, 63, 64
1, 582360, Note_on_c, 0, 67, 75
1, 582480, Tempo, 427016
1, 582480, Note_on_c, 0, 67, 0
1, 582480, Note_on_c, 0, 58, 0
1, 582480, Note_on_c, 0, 75, 0
1, 582480, Note_on_c, 0, 82, 0
1, 582480, Note_on_c, 0, 70, 0
1, 582480, Note_on_c, 0, 63, 0
1, 582480, Note_on_c, 0, 55, 0
1, 582480, Note_on_c, 0, 70, 75
1, 582480, Note_on_c, 0, 75, 75
1, 582480, Note_on_c, 0, 82, 89
1, 582480, Note_on_c, 0, 58, 68
1, 582480, Note_on_c, 0, 55, 68
1, 582480, Note_on_c, 0, 63, 68
1, 582480, Note_on_c, 0, 67, 80
1, 582600, Note_on_c, 0, 67, 0
1, 582600, Note_on_c, 0, 55, 0
1, 582600, Note_on_c, 0, 75, 0
1, 582600, Note_on_c, 0, 82, 0
1, 582600, Note_on_c, 0, 70, 0
1, 582600, Note_on_c, 0, 63, 0
1, 582600, Note_on_c, 0, 58, 0
1, 582840, Note_on_c, 0, 55, 70
1, 582840, Note_on_c, 0, 58, 70
1, 582840, Note_on_c, 0, 63, 82
1, 582840, Note_on_c, 0, 39, 65
1, 582840, Note_on_c, 0, 46, 65
1, 582840, Note_on_c, 0, 51, 76
1, 582960, Note_on_c, 0, 51, 0
1, 582960, Note_on_c, 0, 58, 0
1, 582960, Note_on_c, 0, 63, 0
1, 582960, Note_on_c, 0, 55, 0
1, 582960, Note_on_c, 0, 46, 0
1, 582960, Note_on_c, 0, 39, 0
1, 582960, Note_on_c, 0, 55, 76
1, 582960, Note_on_c, 0, 58, 76
1, 582960, Note_on_c, 0, 63, 91
1, 582960, Note_on_c, 0, 39, 68
1, 582960, Note_on_c, 0, 46, 68
1, 582960, Note_on_c, 0, 51, 80
1, 583080, Note_on_c, 0, 51, 0
1, 583080, Note_on_c, 0, 58, 0
1, 583080, Note_on_c, 0, 63, 0
1, 583080, Note_on_c, 0, 55, 0
1, 583080, Note_on_c, 0, 46, 0
1, 583080, Note_on_c, 0, 39, 0
1, 583920, Tempo, 433182
1, 583920, Note_on_c, 0, 75, 84
1, 583920, Note_on_c, 0, 79, 84
1, 583920, Note_on_c, 0, 87, 99
1, 583920, Note_on_c, 0, 55, 74
1, 583920, Note_on_c, 0, 58, 74
1, 583920, Note_on_c, 0, 63, 74
1, 583920, Note_on_c, 0, 67, 88
1, 584040, Note_on_c, 0, 67, 0
1, 584040, Note_on_c, 0, 58, 0
1, 584040, Note_on_c, 0, 79, 0
1, 584040, Note_on_c, 0, 87, 0
1, 584040, Note_on_c, 0, 75, 0
1, 584040, Note_on_c, 0, 63, 0
1, 584040, Note_on_c, 0, 55, 0
1, 584880, Note_on_c, 0, 87, 84
1, 584880, Note_on_c, 0, 91, 84
1, 584880, Note_on_c, 0, 99, 99
1, 584880, Note_on_c, 0, 67, 74
1, 584880, Note_on_c, 0, 70, 74
1, 584880, Note_on_c, 0, 75, 74
1, 584880, Note_on_c, 0, 79, 88
1, 585000, Note_on_c, 0, 79, 0
1, 585000, Note_on_c, 0, 70, 0
1, 585000, Note_on_c, 0, 91, 0
1, 585000, Note_on_c, 0, 99, 0
1, 585000, Note_on_c, 0, 87, 0
1, 585000, Note_on_c, 0, 75, 0
1, 585000, Note_on_c, 0, 67, 0
1, 585600, Control_c, 0, 64, 0
1, 585600, End_track
0, 0, End_of_file
