0, 0, Header, 0, 1, 480
1, 0, Start_track
1, 0, Title_t, "Lieder ohne Worte Op. 53 No. 5"
1, 0, Title_t, "Volkslied"
1, 0, Copyright_t, "Copyright © 2004 by Bernd Krueger"
1, 0, Text_t, "Mendelssohn"
1, 0, Text_t, "Allegro con fuoco"
1, 0, Text_t, "Fertiggestellt am 6.1.2004\012"
1, 0, Text_t, "Update am 3.4.2014\012"
1, 0, Text_t, "Dauer:  2:35 Minuten\012"
1, 0, SMPTE_offset, 96, 0, 3, 0, 0
1, 0, Time_signature, 4, 2, 24, 8
1, 0, Key_signature, 0, "major"
1, 0, Tempo, 428571
1, 0, Program_c, 0, 0
1, 0, Control_c, 0, 7, 127
1, 0, Control_c, 0, 10, 64
1, 0, Control_c, 0, 91, 127
1, 0, Program_c, 0, 0
1, 0, Control_c, 0, 7, 127
1, 0, Control_c, 0, 10, 64
1, 0, Control_c, 0, 64, 0
1, 0, Text_t, "bdca426d104a26ac9dcb070447587523"
1, 1440, Tempo, 404040
1, 1680, Note_on_c, 0, 72, 33
1, 1800, Note_on_c, 0, 72, 0
1, 1800, Note_on_c, 0, 74, 34
1, 1920, Note_on_c, 0, 74, 0
1, 1920, Note_on_c, 0, 76, 41
1, 2040, Note_on_c, 0, 76, 0
1, 2040, Note_on_c, 0, 72, 34
1, 2160, Tempo, 461538
1, 2160, Note_on_c, 0, 72, 0
1, 2160, Note_on_c, 0, 69, 34
1, 2340, Note_on_c, 0, 69, 0
1, 2400, Tempo, 428571
1, 2400, Note_on_c, 0, 64, 27
1, 2400, Note_on_c, 0, 60, 23
1, 2400, Note_on_c, 0, 57, 23
1, 2520, Tempo, 405405
1, 2520, Note_on_c, 0, 76, 35
1, 2640, Tempo, 404040
1, 2640, Note_on_c, 0, 76, 0
1, 2640, Note_on_c, 0, 72, 35
1, 2760, Note_on_c, 0, 72, 0
1, 2760, Note_on_c, 0, 69, 35
1, 2880, Note_on_c, 0, 69, 0
1, 2880, Note_on_c, 0, 64, 0
1, 2880, Note_on_c, 0, 60, 0
1, 2880, Note_on_c, 0, 57, 0
1, 2880, Note_on_c, 0, 77, 41
1, 3000, Note_on_c, 0, 77, 0
1, 3000, Note_on_c, 0, 74, 35
1, 3120, Tempo, 459770
1, 3120, Note_on_c, 0, 74, 0
1, 3120, Note_on_c, 0, 69, 35
1, 3300, Note_on_c, 0, 69, 0
1, 3360, Tempo, 428571
1, 3360, Note_on_c, 0, 57, 23
1, 3360, Note_on_c, 0, 62, 23
1, 3360, Note_on_c, 0, 65, 27
1, 3480, Note_on_c, 0, 77, 35
1, 3600, Tempo, 406780
1, 3600, Note_on_c, 0, 77, 0
1, 3600, Note_on_c, 0, 74, 35
1, 3720, Note_on_c, 0, 74, 0
1, 3720, Note_on_c, 0, 69, 35
1, 3840, Note_on_c, 0, 69, 0
1, 3840, Note_on_c, 0, 57, 0
1, 3840, Note_on_c, 0, 62, 0
1, 3840, Note_on_c, 0, 65, 0
1, 3840, Note_on_c, 0, 74, 41
1, 3960, Note_on_c, 0, 74, 0
1, 3960, Note_on_c, 0, 71, 36
1, 4080, Tempo, 461538
1, 4080, Note_on_c, 0, 71, 0
1, 4080, Note_on_c, 0, 68, 36
1, 4260, Note_on_c, 0, 68, 0
1, 4320, Tempo, 428571
1, 4320, Note_on_c, 0, 62, 27
1, 4320, Note_on_c, 0, 59, 23
1, 4320, Note_on_c, 0, 57, 23
1, 4440, Tempo, 406780
1, 4440, Note_on_c, 0, 74, 36
1, 4560, Tempo, 406780
1, 4560, Note_on_c, 0, 74, 0
1, 4560, Note_on_c, 0, 71, 36
1, 4680, Note_on_c, 0, 71, 0
1, 4680, Note_on_c, 0, 68, 36
1, 4800, Note_on_c, 0, 68, 0
1, 4800, Note_on_c, 0, 62, 0
1, 4800, Note_on_c, 0, 59, 0
1, 4800, Note_on_c, 0, 57, 0
1, 4800, Note_on_c, 0, 76, 41
1, 4920, Note_on_c, 0, 76, 0
1, 4920, Note_on_c, 0, 72, 35
1, 5040, Tempo, 458015
1, 5040, Note_on_c, 0, 72, 0
1, 5040, Note_on_c, 0, 69, 35
1, 5220, Note_on_c, 0, 69, 0
1, 5280, Tempo, 428571
1, 5280, Note_on_c, 0, 64, 27
1, 5280, Note_on_c, 0, 60, 23
1, 5280, Note_on_c, 0, 57, 23
1, 5400, Tempo, 408163
1, 5400, Note_on_c, 0, 71, 38
1, 5520, Note_on_c, 0, 71, 0
1, 5520, Note_on_c, 0, 72, 38
1, 5640, Note_on_c, 0, 72, 0
1, 5640, Note_on_c, 0, 74, 38
1, 5760, Note_on_c, 0, 74, 0
1, 5760, Note_on_c, 0, 64, 0
1, 5760, Note_on_c, 0, 60, 0
1, 5760, Note_on_c, 0, 57, 0
1, 5760, Note_on_c, 0, 76, 45
1, 5880, Note_on_c, 0, 76, 0
1, 5880, Note_on_c, 0, 72, 37
1, 6000, Tempo, 459770
1, 6000, Note_on_c, 0, 72, 0
1, 6000, Note_on_c, 0, 69, 38
1, 6180, Note_on_c, 0, 69, 0
1, 6240, Tempo, 428571
1, 6240, Note_on_c, 0, 64, 31
1, 6240, Note_on_c, 0, 60, 25
1, 6240, Note_on_c, 0, 57, 25
1, 6360, Tempo, 409556
1, 6360, Note_on_c, 0, 76, 44
1, 6480, Note_on_c, 0, 76, 0
1, 6480, Note_on_c, 0, 72, 42
1, 6600, Note_on_c, 0, 72, 0
1, 6600, Note_on_c, 0, 69, 42
1, 6720, Note_on_c, 0, 69, 0
1, 6720, Note_on_c, 0, 64, 0
1, 6720, Note_on_c, 0, 60, 0
1, 6720, Note_on_c, 0, 57, 0
1, 6720, Note_on_c, 0, 77, 46
1, 6840, Note_on_c, 0, 77, 0
1, 6840, Note_on_c, 0, 74, 43
1, 6960, Tempo, 458015
1, 6960, Note_on_c, 0, 74, 0
1, 6960, Note_on_c, 0, 69, 43
1, 7140, Note_on_c, 0, 69, 0
1, 7200, Tempo, 428571
1, 7200, Note_on_c, 0, 57, 27
1, 7200, Note_on_c, 0, 62, 27
1, 7200, Note_on_c, 0, 65, 34
1, 7320, Tempo, 408163
1, 7320, Note_on_c, 0, 77, 46
1, 7440, Note_on_c, 0, 77, 0
1, 7440, Note_on_c, 0, 74, 46
1, 7560, Note_on_c, 0, 74, 0
1, 7560, Note_on_c, 0, 69, 46
1, 7680, Note_on_c, 0, 69, 0
1, 7680, Note_on_c, 0, 57, 0
1, 7680, Note_on_c, 0, 62, 0
1, 7680, Note_on_c, 0, 65, 0
1, 7680, Note_on_c, 0, 74, 52
1, 7800, Note_on_c, 0, 74, 0
1, 7800, Note_on_c, 0, 71, 47
1, 7920, Tempo, 458015
1, 7920, Note_on_c, 0, 71, 0
1, 7920, Note_on_c, 0, 68, 47
1, 8100, Note_on_c, 0, 68, 0
1, 8160, Tempo, 428571
1, 8160, Note_on_c, 0, 62, 36
1, 8160, Note_on_c, 0, 59, 29
1, 8160, Note_on_c, 0, 57, 29
1, 8280, Tempo, 406780
1, 8280, Note_on_c, 0, 74, 48
1, 8400, Note_on_c, 0, 74, 0
1, 8400, Note_on_c, 0, 71, 48
1, 8520, Note_on_c, 0, 71, 0
1, 8520, Note_on_c, 0, 68, 48
1, 8640, Tempo, 444444
1, 8640, Note_on_c, 0, 68, 0
1, 8640, Note_on_c, 0, 62, 0
1, 8640, Note_on_c, 0, 59, 0
1, 8640, Note_on_c, 0, 57, 0
1, 8640, Note_on_c, 0, 76, 56
1, 8760, Note_on_c, 0, 76, 0
1, 8760, Note_on_c, 0, 72, 52
1, 8880, Tempo, 441176
1, 8880, Note_on_c, 0, 72, 0
1, 8880, Note_on_c, 0, 69, 52
1, 8880, Note_on_c, 0, 60, 31
1, 8880, Note_on_c, 0, 57, 31
1, 8880, Note_on_c, 0, 64, 38
1, 9060, Note_on_c, 0, 64, 0
1, 9060, Note_on_c, 0, 69, 0
1, 9060, Note_on_c, 0, 60, 0
1, 9060, Note_on_c, 0, 57, 0
1, 9120, Tempo, 428571
1, 9120, Note_on_c, 0, 65, 38
1, 9120, Note_on_c, 0, 62, 31
1, 9120, Note_on_c, 0, 57, 31
1, 9240, Tempo, 406780
1, 9240, Note_on_c, 0, 74, 55
1, 9360, Note_on_c, 0, 74, 0
1, 9360, Note_on_c, 0, 71, 55
1, 9480, Note_on_c, 0, 71, 0
1, 9480, Note_on_c, 0, 68, 55
1, 9600, Tempo, 441176
1, 9600, Note_on_c, 0, 68, 0
1, 9600, Note_on_c, 0, 65, 0
1, 9600, Note_on_c, 0, 62, 0
1, 9600, Note_on_c, 0, 57, 0
1, 9600, Note_on_c, 0, 76, 64
1, 9720, Note_on_c, 0, 76, 0
1, 9720, Note_on_c, 0, 72, 55
1, 9840, Tempo, 441176
1, 9840, Note_on_c, 0, 72, 0
1, 9840, Note_on_c, 0, 69, 55
1, 9840, Note_on_c, 0, 57, 34
1, 9840, Note_on_c, 0, 60, 34
1, 9840, Note_on_c, 0, 64, 42
1, 10020, Note_on_c, 0, 64, 0
1, 10020, Note_on_c, 0, 69, 0
1, 10020, Note_on_c, 0, 57, 0
1, 10020, Note_on_c, 0, 60, 0
1, 10080, Tempo, 416667
1, 10080, Note_on_c, 0, 65, 42
1, 10080, Note_on_c, 0, 62, 34
1, 10080, Note_on_c, 0, 57, 34
1, 10200, Tempo, 406780
1, 10200, Note_on_c, 0, 74, 58
1, 10320, Note_on_c, 0, 74, 0
1, 10320, Note_on_c, 0, 71, 58
1, 10440, Note_on_c, 0, 71, 0
1, 10440, Note_on_c, 0, 68, 58
1, 10560, Tempo, 439560
1, 10560, Note_on_c, 0, 68, 0
1, 10560, Note_on_c, 0, 65, 0
1, 10560, Note_on_c, 0, 62, 0
1, 10560, Note_on_c, 0, 57, 0
1, 10560, Note_on_c, 0, 76, 69
1, 10680, Note_on_c, 0, 76, 0
1, 10680, Note_on_c, 0, 72, 57
1, 10800, Tempo, 439560
1, 10800, Note_on_c, 0, 72, 0
1, 10800, Note_on_c, 0, 69, 58
1, 10800, Note_on_c, 0, 60, 37
1, 10800, Note_on_c, 0, 57, 37
1, 10800, Note_on_c, 0, 64, 46
1, 10980, Note_on_c, 0, 64, 0
1, 10980, Note_on_c, 0, 69, 0
1, 10980, Note_on_c, 0, 60, 0
1, 10980, Note_on_c, 0, 57, 0
1, 11040, Tempo, 413793
1, 11040, Note_on_c, 0, 65, 46
1, 11040, Note_on_c, 0, 62, 37
1, 11040, Note_on_c, 0, 57, 37
1, 11160, Tempo, 404040
1, 11160, Note_on_c, 0, 74, 64
1, 11280, Note_on_c, 0, 74, 0
1, 11280, Note_on_c, 0, 71, 65
1, 11400, Note_on_c, 0, 71, 0
1, 11400, Note_on_c, 0, 68, 65
1, 11520, Tempo, 405405
1, 11520, Note_on_c, 0, 68, 0
1, 11520, Note_on_c, 0, 65, 0
1, 11520, Note_on_c, 0, 62, 0
1, 11520, Note_on_c, 0, 57, 0
1, 11520, Note_on_c, 0, 76, 71
1, 11576, Control_c, 0, 64, 127
1, 11600, Tempo, 408163
1, 11640, Note_on_c, 0, 76, 0
1, 11640, Note_on_c, 0, 72, 65
1, 11680, Tempo, 410959
1, 11760, Tempo, 413793
1, 11760, Note_on_c, 0, 72, 0
1, 11760, Note_on_c, 0, 69, 64
1, 11800, Tempo, 416667
1, 11880, Tempo, 419580
1, 11880, Note_on_c, 0, 69, 0
1, 11880, Note_on_c, 0, 64, 63
1, 11960, Tempo, 422535
1, 12000, Note_on_c, 0, 64, 0
1, 12000, Note_on_c, 0, 60, 60
1, 12040, Tempo, 425532
1, 12080, Tempo, 428571
1, 12120, Note_on_c, 0, 60, 0
1, 12120, Note_on_c, 0, 57, 58
1, 12160, Tempo, 431655
1, 12240, Tempo, 434783
1, 12240, Note_on_c, 0, 57, 0
1, 12240, Note_on_c, 0, 52, 58
1, 12320, Tempo, 437956
1, 12360, Tempo, 441176
1, 12360, Note_on_c, 0, 52, 0
1, 12360, Note_on_c, 0, 48, 57
1, 12400, Tempo, 439560
1, 12440, Tempo, 441176
1, 12480, Tempo, 483871
1, 12480, Note_on_c, 0, 48, 0
1, 12480, Note_on_c, 0, 33, 57
1, 12480, Note_on_c, 0, 45, 57
1, 12720, Note_on_c, 0, 45, 0
1, 12720, Note_on_c, 0, 33, 0
1, 12727, Control_c, 0, 64, 0
1, 12960, Tempo, 441176
1, 12960, Note_on_c, 0, 64, 71
1, 12960, Note_on_c, 0, 52, 56
1, 13440, Note_on_c, 0, 52, 0
1, 13440, Note_on_c, 0, 64, 0
1, 13440, Note_on_c, 0, 64, 64
1, 13440, Note_on_c, 0, 69, 71
1, 13440, Note_on_c, 0, 48, 54
1, 13440, Note_on_c, 0, 57, 58
1, 13567, Control_c, 0, 64, 127
1, 14160, Tempo, 430108
1, 14160, Note_on_c, 0, 57, 0
1, 14160, Note_on_c, 0, 64, 0
1, 14160, Note_on_c, 0, 69, 0
1, 14160, Note_on_c, 0, 48, 0
1, 14160, Note_on_c, 0, 64, 62
1, 14160, Note_on_c, 0, 71, 68
1, 14160, Note_on_c, 0, 52, 52
1, 14160, Note_on_c, 0, 59, 57
1, 14400, Tempo, 441176
1, 14400, Note_on_c, 0, 59, 0
1, 14400, Note_on_c, 0, 64, 0
1, 14400, Note_on_c, 0, 71, 0
1, 14400, Note_on_c, 0, 52, 0
1, 14400, Note_on_c, 0, 69, 64
1, 14400, Note_on_c, 0, 72, 71
1, 14400, Note_on_c, 0, 57, 54
1, 14400, Note_on_c, 0, 60, 58
1, 14414, Control_c, 0, 64, 0
1, 14880, Note_on_c, 0, 60, 0
1, 14880, Note_on_c, 0, 69, 0
1, 14880, Note_on_c, 0, 72, 0
1, 14880, Note_on_c, 0, 57, 0
1, 14880, Note_on_c, 0, 71, 64
1, 14880, Note_on_c, 0, 74, 71
1, 14880, Note_on_c, 0, 59, 54
1, 14880, Note_on_c, 0, 62, 58
1, 15360, Tempo, 452830
1, 15360, Note_on_c, 0, 62, 0
1, 15360, Note_on_c, 0, 71, 0
1, 15360, Note_on_c, 0, 74, 0
1, 15360, Note_on_c, 0, 59, 0
1, 15360, Note_on_c, 0, 72, 64
1, 15360, Note_on_c, 0, 76, 73
1, 15360, Note_on_c, 0, 60, 54
1, 15360, Note_on_c, 0, 64, 58
1, 15840, Tempo, 441176
1, 15840, Note_on_c, 0, 64, 0
1, 15840, Note_on_c, 0, 72, 0
1, 15840, Note_on_c, 0, 76, 0
1, 15840, Note_on_c, 0, 60, 0
1, 15840, Note_on_c, 0, 76, 68
1, 15840, Note_on_c, 0, 79, 76
1, 15840, Note_on_c, 0, 64, 57
1, 15840, Note_on_c, 0, 67, 65
1, 16800, Tempo, 431655
1, 16800, Note_on_c, 0, 67, 0
1, 16800, Note_on_c, 0, 76, 0
1, 16800, Note_on_c, 0, 79, 0
1, 16800, Note_on_c, 0, 64, 0
1, 16800, Note_on_c, 0, 74, 64
1, 16800, Note_on_c, 0, 77, 73
1, 16800, Note_on_c, 0, 65, 63
1, 16800, Note_on_c, 0, 62, 56
1, 17160, Note_on_c, 0, 62, 0
1, 17160, Note_on_c, 0, 74, 0
1, 17160, Note_on_c, 0, 77, 0
1, 17160, Note_on_c, 0, 65, 0
1, 17160, Note_on_c, 0, 72, 60
1, 17160, Note_on_c, 0, 76, 67
1, 17160, Note_on_c, 0, 60, 54
1, 17160, Note_on_c, 0, 64, 58
1, 17274, Note_on_c, 0, 64, 0
1, 17274, Note_on_c, 0, 72, 0
1, 17274, Note_on_c, 0, 76, 0
1, 17274, Note_on_c, 0, 60, 0
1, 17280, Tempo, 441176
1, 17280, Note_on_c, 0, 72, 64
1, 17280, Note_on_c, 0, 76, 71
1, 17280, Note_on_c, 0, 60, 56
1, 17280, Note_on_c, 0, 64, 63
1, 17760, Note_on_c, 0, 64, 0
1, 17760, Note_on_c, 0, 72, 0
1, 17760, Note_on_c, 0, 76, 0
1, 17760, Note_on_c, 0, 60, 0
1, 17760, Note_on_c, 0, 71, 64
1, 17760, Note_on_c, 0, 74, 71
1, 17760, Note_on_c, 0, 59, 54
1, 17760, Note_on_c, 0, 62, 58
1, 17800, Tempo, 436364
1, 18120, Note_on_c, 0, 62, 0
1, 18120, Note_on_c, 0, 71, 0
1, 18120, Note_on_c, 0, 74, 0
1, 18120, Note_on_c, 0, 59, 0
1, 18120, Note_on_c, 0, 69, 60
1, 18120, Note_on_c, 0, 72, 67
1, 18120, Note_on_c, 0, 57, 50
1, 18120, Note_on_c, 0, 60, 56
1, 18234, Note_on_c, 0, 60, 0
1, 18234, Note_on_c, 0, 69, 0
1, 18234, Note_on_c, 0, 72, 0
1, 18234, Note_on_c, 0, 57, 0
1, 18240, Tempo, 439560
1, 18240, Note_on_c, 0, 69, 64
1, 18240, Note_on_c, 0, 72, 71
1, 18240, Note_on_c, 0, 57, 54
1, 18240, Note_on_c, 0, 60, 58
1, 18480, Tempo, 456274
1, 18720, Tempo, 447761
1, 18720, Note_on_c, 0, 60, 0
1, 18720, Note_on_c, 0, 69, 0
1, 18720, Note_on_c, 0, 72, 0
1, 18720, Note_on_c, 0, 57, 0
1, 18720, Note_on_c, 0, 65, 65
1, 18720, Note_on_c, 0, 72, 65
1, 18720, Note_on_c, 0, 76, 74
1, 18720, Note_on_c, 0, 50, 54
1, 18720, Note_on_c, 0, 60, 56
1, 18720, Note_on_c, 0, 64, 63
1, 18725, Control_c, 0, 64, 127
1, 19080, Tempo, 481928
1, 19080, Note_on_c, 0, 64, 0
1, 19080, Note_on_c, 0, 72, 0
1, 19080, Note_on_c, 0, 65, 0
1, 19080, Note_on_c, 0, 76, 0
1, 19080, Note_on_c, 0, 60, 0
1, 19080, Note_on_c, 0, 71, 60
1, 19080, Note_on_c, 0, 74, 67
1, 19080, Note_on_c, 0, 62, 56
1, 19080, Note_on_c, 0, 59, 50
1, 19200, Tempo, 454545
1, 19200, Note_on_c, 0, 59, 0
1, 19200, Note_on_c, 0, 74, 0
1, 19200, Note_on_c, 0, 50, 0
1, 19200, Note_on_c, 0, 71, 0
1, 19200, Note_on_c, 0, 62, 0
1, 19200, Note_on_c, 0, 69, 58
1, 19200, Note_on_c, 0, 72, 66
1, 19200, Note_on_c, 0, 52, 49
1, 19200, Note_on_c, 0, 60, 56
1, 19200, Note_on_c, 0, 57, 49
1, 19210, Control_c, 0, 64, 0
1, 20160, Note_on_c, 0, 57, 0
1, 20160, Note_on_c, 0, 72, 0
1, 20160, Note_on_c, 0, 69, 0
1, 20160, Note_on_c, 0, 60, 0
1, 20160, Note_on_c, 0, 68, 57
1, 20160, Note_on_c, 0, 71, 65
1, 20160, Note_on_c, 0, 56, 48
1, 20160, Note_on_c, 0, 59, 55
1, 20400, Note_on_c, 0, 59, 0
1, 20400, Note_on_c, 0, 71, 0
1, 20400, Note_on_c, 0, 52, 0
1, 20400, Note_on_c, 0, 68, 0
1, 20400, Note_on_c, 0, 56, 0
1, 20640, Tempo, 441176
1, 20640, Note_on_c, 0, 62, 64
1, 20640, Note_on_c, 0, 64, 71
1, 20640, Note_on_c, 0, 52, 56
1, 21120, Note_on_c, 0, 52, 0
1, 21120, Note_on_c, 0, 64, 0
1, 21120, Note_on_c, 0, 62, 0
1, 21120, Note_on_c, 0, 60, 64
1, 21120, Note_on_c, 0, 64, 64
1, 21120, Note_on_c, 0, 69, 71
1, 21120, Note_on_c, 0, 45, 54
1, 21120, Note_on_c, 0, 48, 54
1, 21120, Note_on_c, 0, 57, 58
1, 21247, Control_c, 0, 64, 127
1, 21840, Tempo, 430108
1, 21840, Note_on_c, 0, 57, 0
1, 21840, Note_on_c, 0, 64, 0
1, 21840, Note_on_c, 0, 69, 0
1, 21840, Note_on_c, 0, 60, 0
1, 21840, Note_on_c, 0, 48, 0
1, 21840, Note_on_c, 0, 45, 0
1, 21840, Note_on_c, 0, 64, 62
1, 21840, Note_on_c, 0, 71, 68
1, 21840, Note_on_c, 0, 52, 52
1, 21840, Note_on_c, 0, 59, 57
1, 22080, Tempo, 441176
1, 22080, Note_on_c, 0, 59, 0
1, 22080, Note_on_c, 0, 64, 0
1, 22080, Note_on_c, 0, 71, 0
1, 22080, Note_on_c, 0, 52, 0
1, 22080, Note_on_c, 0, 69, 64
1, 22080, Note_on_c, 0, 72, 71
1, 22080, Note_on_c, 0, 57, 54
1, 22080, Note_on_c, 0, 60, 58
1, 22094, Control_c, 0, 64, 0
1, 22560, Note_on_c, 0, 60, 0
1, 22560, Note_on_c, 0, 69, 0
1, 22560, Note_on_c, 0, 72, 0
1, 22560, Note_on_c, 0, 57, 0
1, 22560, Note_on_c, 0, 71, 64
1, 22560, Note_on_c, 0, 74, 71
1, 22560, Note_on_c, 0, 59, 54
1, 22560, Note_on_c, 0, 62, 58
1, 23040, Tempo, 452830
1, 23040, Note_on_c, 0, 62, 0
1, 23040, Note_on_c, 0, 71, 0
1, 23040, Note_on_c, 0, 74, 0
1, 23040, Note_on_c, 0, 59, 0
1, 23040, Note_on_c, 0, 72, 64
1, 23040, Note_on_c, 0, 76, 73
1, 23040, Note_on_c, 0, 60, 54
1, 23040, Note_on_c, 0, 64, 58
1, 23496, Note_on_c, 0, 64, 0
1, 23496, Note_on_c, 0, 72, 0
1, 23496, Note_on_c, 0, 76, 0
1, 23496, Note_on_c, 0, 60, 0
1, 23520, Tempo, 434783
1, 23520, Note_on_c, 0, 67, 68
1, 23520, Note_on_c, 0, 76, 68
1, 23520, Note_on_c, 0, 79, 76
1, 23520, Note_on_c, 0, 52, 67
1, 23520, Note_on_c, 0, 64, 67
1, 23640, Note_on_c, 0, 52, 0
1, 23760, Tempo, 458015
1, 23760, Note_on_c, 0, 53, 69
1, 23880, Note_on_c, 0, 53, 0
1, 24000, Tempo, 441176
1, 24000, Note_on_c, 0, 55, 75
1, 24480, Tempo, 431655
1, 24480, Note_on_c, 0, 64, 0
1, 24480, Note_on_c, 0, 79, 0
1, 24480, Note_on_c, 0, 67, 0
1, 24480, Note_on_c, 0, 76, 0
1, 24480, Note_on_c, 0, 74, 64
1, 24480, Note_on_c, 0, 77, 73
1, 24480, Note_on_c, 0, 65, 63
1, 24480, Note_on_c, 0, 62, 56
1, 24840, Note_on_c, 0, 62, 0
1, 24840, Note_on_c, 0, 77, 0
1, 24840, Note_on_c, 0, 65, 0
1, 24840, Note_on_c, 0, 74, 0
1, 24840, Note_on_c, 0, 72, 60
1, 24840, Note_on_c, 0, 76, 67
1, 24840, Note_on_c, 0, 60, 54
1, 24840, Note_on_c, 0, 64, 58
1, 24954, Note_on_c, 0, 64, 0
1, 24954, Note_on_c, 0, 76, 0
1, 24954, Note_on_c, 0, 60, 0
1, 24954, Note_on_c, 0, 72, 0
1, 24960, Tempo, 441176
1, 24960, Note_on_c, 0, 72, 64
1, 24960, Note_on_c, 0, 76, 71
1, 24960, Note_on_c, 0, 60, 56
1, 24960, Note_on_c, 0, 64, 63
1, 25440, Note_on_c, 0, 64, 0
1, 25440, Note_on_c, 0, 76, 0
1, 25440, Note_on_c, 0, 55, 0
1, 25440, Note_on_c, 0, 72, 0
1, 25440, Note_on_c, 0, 60, 0
1, 25440, Note_on_c, 0, 71, 64
1, 25440, Note_on_c, 0, 74, 71
1, 25440, Note_on_c, 0, 55, 54
1, 25440, Note_on_c, 0, 59, 54
1, 25440, Note_on_c, 0, 62, 58
1, 25480, Tempo, 436364
1, 25800, Note_on_c, 0, 62, 0
1, 25800, Note_on_c, 0, 74, 0
1, 25800, Note_on_c, 0, 71, 0
1, 25800, Note_on_c, 0, 59, 0
1, 25800, Note_on_c, 0, 69, 60
1, 25800, Note_on_c, 0, 72, 67
1, 25800, Note_on_c, 0, 57, 50
1, 25800, Note_on_c, 0, 60, 56
1, 25914, Note_on_c, 0, 60, 0
1, 25914, Note_on_c, 0, 72, 0
1, 25914, Note_on_c, 0, 57, 0
1, 25914, Note_on_c, 0, 69, 0
1, 25920, Tempo, 439560
1, 25920, Note_on_c, 0, 55, 0
1, 25920, Note_on_c, 0, 69, 64
1, 25920, Note_on_c, 0, 72, 71
1, 25920, Note_on_c, 0, 57, 54
1, 25920, Note_on_c, 0, 60, 58
1, 26160, Tempo, 456274
1, 26400, Tempo, 447761
1, 26400, Note_on_c, 0, 60, 0
1, 26400, Note_on_c, 0, 69, 0
1, 26400, Note_on_c, 0, 72, 0
1, 26400, Note_on_c, 0, 57, 0
1, 26400, Note_on_c, 0, 67, 65
1, 26400, Note_on_c, 0, 71, 74
1, 26400, Note_on_c, 0, 52, 52
1, 26400, Note_on_c, 0, 55, 52
1, 26400, Note_on_c, 0, 59, 57
1, 26760, Tempo, 481928
1, 26760, Note_on_c, 0, 71, 0
1, 26760, Note_on_c, 0, 67, 0
1, 26760, Note_on_c, 0, 65, 60
1, 26760, Note_on_c, 0, 69, 67
1, 26874, Note_on_c, 0, 69, 0
1, 26874, Note_on_c, 0, 65, 0
1, 26880, Tempo, 454545
1, 26880, Note_on_c, 0, 59, 0
1, 26880, Note_on_c, 0, 52, 0
1, 26880, Note_on_c, 0, 55, 0
1, 26880, Note_on_c, 0, 65, 57
1, 26880, Note_on_c, 0, 69, 64
1, 26880, Note_on_c, 0, 53, 42
1, 26880, Note_on_c, 0, 57, 47
1, 27000, Note_on_c, 0, 69, 0
1, 27000, Note_on_c, 0, 65, 0
1, 27080, Tempo, 452830
1, 27120, Note_on_c, 0, 57, 0
1, 27120, Note_on_c, 0, 59, 57
1, 27120, Note_on_c, 0, 68, 57
1, 27120, Note_on_c, 0, 71, 65
1, 27120, Note_on_c, 0, 56, 49
1, 27240, Tempo, 451128
1, 27240, Note_on_c, 0, 56, 0
1, 27240, Note_on_c, 0, 68, 0
1, 27240, Note_on_c, 0, 71, 0
1, 27240, Note_on_c, 0, 59, 0
1, 27360, Note_on_c, 0, 53, 0
1, 27360, Note_on_c, 0, 60, 59
1, 27360, Note_on_c, 0, 69, 59
1, 27360, Note_on_c, 0, 72, 67
1, 27360, Note_on_c, 0, 52, 46
1, 27360, Note_on_c, 0, 57, 52
1, 27400, Tempo, 449438
1, 27480, Note_on_c, 0, 57, 0
1, 27480, Note_on_c, 0, 72, 0
1, 27480, Note_on_c, 0, 60, 0
1, 27480, Note_on_c, 0, 69, 0
1, 27480, Note_on_c, 0, 52, 0
1, 27560, Tempo, 447761
1, 27600, Note_on_c, 0, 62, 62
1, 27600, Note_on_c, 0, 71, 62
1, 27600, Note_on_c, 0, 74, 69
1, 27600, Note_on_c, 0, 50, 47
1, 27600, Note_on_c, 0, 59, 54
1, 27720, Tempo, 446097
1, 27720, Note_on_c, 0, 59, 0
1, 27720, Note_on_c, 0, 74, 0
1, 27720, Note_on_c, 0, 62, 0
1, 27720, Note_on_c, 0, 71, 0
1, 27720, Note_on_c, 0, 50, 0
1, 27840, Note_on_c, 0, 64, 64
1, 27840, Note_on_c, 0, 72, 64
1, 27840, Note_on_c, 0, 76, 71
1, 27840, Note_on_c, 0, 48, 48
1, 27840, Note_on_c, 0, 60, 55
1, 27880, Tempo, 444444
1, 27960, Tempo, 446097
1, 27960, Note_on_c, 0, 60, 0
1, 27960, Note_on_c, 0, 76, 0
1, 27960, Note_on_c, 0, 64, 0
1, 27960, Note_on_c, 0, 72, 0
1, 27960, Note_on_c, 0, 48, 0
1, 28040, Tempo, 447761
1, 28080, Note_on_c, 0, 62, 62
1, 28080, Note_on_c, 0, 71, 62
1, 28080, Note_on_c, 0, 74, 69
1, 28080, Note_on_c, 0, 50, 46
1, 28080, Note_on_c, 0, 59, 53
1, 28120, Tempo, 449438
1, 28200, Tempo, 451128
1, 28200, Note_on_c, 0, 59, 0
1, 28200, Note_on_c, 0, 74, 0
1, 28200, Note_on_c, 0, 62, 0
1, 28200, Note_on_c, 0, 71, 0
1, 28200, Note_on_c, 0, 50, 0
1, 28240, Tempo, 452830
1, 28320, Tempo, 454545
1, 28320, Note_on_c, 0, 60, 59
1, 28320, Note_on_c, 0, 69, 59
1, 28320, Note_on_c, 0, 72, 67
1, 28320, Note_on_c, 0, 52, 45
1, 28320, Note_on_c, 0, 57, 50
1, 28400, Tempo, 456274
1, 28440, Note_on_c, 0, 57, 0
1, 28440, Note_on_c, 0, 72, 0
1, 28440, Note_on_c, 0, 60, 0
1, 28440, Note_on_c, 0, 69, 0
1, 28440, Note_on_c, 0, 52, 0
1, 28480, Tempo, 458015
1, 28520, Tempo, 459770
1, 28680, Tempo, 487805
1, 28680, Note_on_c, 0, 59, 57
1, 28680, Note_on_c, 0, 64, 57
1, 28680, Note_on_c, 0, 71, 65
1, 28680, Note_on_c, 0, 52, 48
1, 28794, Note_on_c, 0, 52, 0
1, 28794, Note_on_c, 0, 59, 0
1, 28794, Note_on_c, 0, 64, 0
1, 28794, Note_on_c, 0, 71, 0
1, 28800, Tempo, 465116
1, 28800, Note_on_c, 0, 59, 53
1, 28800, Note_on_c, 0, 64, 53
1, 28800, Note_on_c, 0, 71, 66
1, 28800, Note_on_c, 0, 52, 52
1, 29760, Note_on_c, 0, 52, 0
1, 29760, Note_on_c, 0, 59, 0
1, 29760, Note_on_c, 0, 64, 0
1, 29760, Note_on_c, 0, 71, 0
1, 29760, Note_on_c, 0, 60, 57
1, 29760, Note_on_c, 0, 69, 65
1, 29760, Note_on_c, 0, 45, 48
1, 29760, Note_on_c, 0, 57, 55
1, 30000, Note_on_c, 0, 57, 0
1, 30000, Note_on_c, 0, 60, 0
1, 30000, Note_on_c, 0, 69, 0
1, 30000, Note_on_c, 0, 45, 0
1, 30240, Tempo, 428571
1, 30360, Tempo, 408163
1, 30480, Note_on_c, 0, 68, 35
1, 30600, Note_on_c, 0, 68, 0
1, 30600, Note_on_c, 0, 69, 35
1, 30720, Note_on_c, 0, 69, 0
1, 30720, Note_on_c, 0, 71, 41
1, 30840, Note_on_c, 0, 71, 0
1, 30840, Note_on_c, 0, 68, 35
1, 30960, Tempo, 461538
1, 30960, Note_on_c, 0, 68, 0
1, 30960, Note_on_c, 0, 64, 35
1, 31140, Note_on_c, 0, 64, 0
1, 31200, Tempo, 428571
1, 31200, Note_on_c, 0, 59, 27
1, 31200, Note_on_c, 0, 56, 23
1, 31200, Note_on_c, 0, 52, 23
1, 31320, Tempo, 406780
1, 31320, Note_on_c, 0, 71, 35
1, 31440, Note_on_c, 0, 71, 0
1, 31440, Note_on_c, 0, 68, 35
1, 31560, Note_on_c, 0, 68, 0
1, 31560, Note_on_c, 0, 64, 35
1, 31680, Note_on_c, 0, 64, 0
1, 31680, Note_on_c, 0, 59, 0
1, 31680, Note_on_c, 0, 56, 0
1, 31680, Note_on_c, 0, 52, 0
1, 31680, Note_on_c, 0, 72, 41
1, 31800, Note_on_c, 0, 72, 0
1, 31800, Note_on_c, 0, 69, 35
1, 31920, Tempo, 459770
1, 31920, Note_on_c, 0, 69, 0
1, 31920, Note_on_c, 0, 64, 35
1, 32100, Note_on_c, 0, 64, 0
1, 32160, Tempo, 428571
1, 32160, Note_on_c, 0, 52, 23
1, 32160, Note_on_c, 0, 57, 23
1, 32160, Note_on_c, 0, 60, 27
1, 32280, Tempo, 408163
1, 32280, Note_on_c, 0, 72, 36
1, 32400, Note_on_c, 0, 72, 0
1, 32400, Note_on_c, 0, 69, 36
1, 32520, Note_on_c, 0, 69, 0
1, 32520, Note_on_c, 0, 64, 36
1, 32640, Note_on_c, 0, 64, 0
1, 32640, Note_on_c, 0, 52, 0
1, 32640, Note_on_c, 0, 57, 0
1, 32640, Note_on_c, 0, 60, 0
1, 32640, Note_on_c, 0, 69, 41
1, 32760, Note_on_c, 0, 69, 0
1, 32760, Note_on_c, 0, 66, 35
1, 32880, Tempo, 461538
1, 32880, Note_on_c, 0, 66, 0
1, 32880, Note_on_c, 0, 63, 35
1, 33060, Note_on_c, 0, 63, 0
1, 33120, Tempo, 428571
1, 33120, Note_on_c, 0, 57, 27
1, 33120, Note_on_c, 0, 54, 23
1, 33120, Note_on_c, 0, 52, 23
1, 33240, Tempo, 406780
1, 33240, Note_on_c, 0, 69, 36
1, 33360, Note_on_c, 0, 69, 0
1, 33360, Note_on_c, 0, 66, 36
1, 33480, Note_on_c, 0, 66, 0
1, 33480, Note_on_c, 0, 63, 36
1, 33600, Note_on_c, 0, 63, 0
1, 33600, Note_on_c, 0, 57, 0
1, 33600, Note_on_c, 0, 54, 0
1, 33600, Note_on_c, 0, 52, 0
1, 33600, Note_on_c, 0, 71, 41
1, 33720, Note_on_c, 0, 71, 0
1, 33720, Note_on_c, 0, 68, 35
1, 33840, Tempo, 458015
1, 33840, Note_on_c, 0, 68, 0
1, 33840, Note_on_c, 0, 64, 35
1, 34020, Note_on_c, 0, 64, 0
1, 34080, Tempo, 428571
1, 34080, Note_on_c, 0, 59, 27
1, 34080, Note_on_c, 0, 56, 23
1, 34080, Note_on_c, 0, 52, 23
1, 34200, Tempo, 408163
1, 34200, Note_on_c, 0, 66, 38
1, 34320, Note_on_c, 0, 66, 0
1, 34320, Note_on_c, 0, 68, 38
1, 34440, Note_on_c, 0, 68, 0
1, 34440, Note_on_c, 0, 69, 38
1, 34560, Note_on_c, 0, 69, 0
1, 34560, Note_on_c, 0, 59, 0
1, 34560, Note_on_c, 0, 56, 0
1, 34560, Note_on_c, 0, 52, 0
1, 34560, Note_on_c, 0, 71, 45
1, 34680, Note_on_c, 0, 71, 0
1, 34680, Note_on_c, 0, 68, 37
1, 34800, Tempo, 459770
1, 34800, Note_on_c, 0, 68, 0
1, 34800, Note_on_c, 0, 64, 38
1, 34980, Note_on_c, 0, 64, 0
1, 35040, Tempo, 428571
1, 35040, Note_on_c, 0, 62, 31
1, 35040, Note_on_c, 0, 59, 25
1, 35040, Note_on_c, 0, 52, 25
1, 35160, Tempo, 408163
1, 35160, Note_on_c, 0, 71, 45
1, 35280, Note_on_c, 0, 71, 0
1, 35280, Note_on_c, 0, 68, 46
1, 35400, Note_on_c, 0, 68, 0
1, 35400, Note_on_c, 0, 64, 46
1, 35520, Note_on_c, 0, 64, 0
1, 35520, Note_on_c, 0, 62, 0
1, 35520, Note_on_c, 0, 59, 0
1, 35520, Note_on_c, 0, 52, 0
1, 35520, Note_on_c, 0, 72, 50
1, 35640, Note_on_c, 0, 72, 0
1, 35640, Note_on_c, 0, 69, 46
1, 35760, Tempo, 458015
1, 35760, Note_on_c, 0, 69, 0
1, 35760, Note_on_c, 0, 64, 46
1, 35940, Note_on_c, 0, 64, 0
1, 36000, Tempo, 428571
1, 36000, Note_on_c, 0, 52, 29
1, 36000, Note_on_c, 0, 57, 29
1, 36000, Note_on_c, 0, 60, 37
1, 36120, Tempo, 406780
1, 36120, Note_on_c, 0, 72, 52
1, 36240, Note_on_c, 0, 72, 0
1, 36240, Note_on_c, 0, 69, 52
1, 36360, Note_on_c, 0, 69, 0
1, 36360, Note_on_c, 0, 64, 52
1, 36480, Note_on_c, 0, 64, 0
1, 36480, Note_on_c, 0, 52, 0
1, 36480, Note_on_c, 0, 57, 0
1, 36480, Note_on_c, 0, 60, 0
1, 36480, Note_on_c, 0, 69, 57
1, 36600, Note_on_c, 0, 69, 0
1, 36600, Note_on_c, 0, 66, 53
1, 36720, Tempo, 458015
1, 36720, Note_on_c, 0, 66, 0
1, 36720, Note_on_c, 0, 63, 53
1, 36900, Note_on_c, 0, 63, 0
1, 36960, Tempo, 428571
1, 36960, Note_on_c, 0, 57, 35
1, 36960, Note_on_c, 0, 60, 42
1, 36960, Note_on_c, 0, 54, 35
1, 36960, Note_on_c, 0, 52, 35
1, 37080, Tempo, 409556
1, 37080, Note_on_c, 0, 69, 58
1, 37200, Note_on_c, 0, 69, 0
1, 37200, Note_on_c, 0, 66, 58
1, 37320, Note_on_c, 0, 66, 0
1, 37320, Note_on_c, 0, 63, 60
1, 37440, Tempo, 444444
1, 37440, Note_on_c, 0, 63, 0
1, 37440, Note_on_c, 0, 54, 0
1, 37440, Note_on_c, 0, 57, 0
1, 37440, Note_on_c, 0, 60, 0
1, 37440, Note_on_c, 0, 52, 0
1, 37440, Note_on_c, 0, 71, 66
1, 37560, Note_on_c, 0, 71, 0
1, 37560, Note_on_c, 0, 68, 58
1, 37680, Tempo, 441176
1, 37680, Note_on_c, 0, 68, 0
1, 37680, Note_on_c, 0, 64, 57
1, 37860, Note_on_c, 0, 64, 0
1, 37920, Tempo, 454545
1, 37920, Note_on_c, 0, 52, 56
1, 37920, Note_on_c, 0, 56, 56
1, 37920, Note_on_c, 0, 59, 66
1, 38160, Note_on_c, 0, 59, 0
1, 38160, Note_on_c, 0, 56, 0
1, 38160, Note_on_c, 0, 52, 0
1, 38160, Note_on_c, 0, 64, 71
1, 38160, Note_on_c, 0, 52, 56
1, 38400, Tempo, 441176
1, 38400, Note_on_c, 0, 52, 0
1, 38400, Note_on_c, 0, 64, 0
1, 38400, Note_on_c, 0, 64, 64
1, 38400, Note_on_c, 0, 71, 71
1, 38400, Note_on_c, 0, 56, 54
1, 38400, Note_on_c, 0, 59, 58
1, 38518, Control_c, 0, 64, 127
1, 39120, Tempo, 430108
1, 39120, Note_on_c, 0, 59, 0
1, 39120, Note_on_c, 0, 64, 0
1, 39120, Note_on_c, 0, 71, 0
1, 39120, Note_on_c, 0, 56, 0
1, 39120, Note_on_c, 0, 69, 62
1, 39120, Note_on_c, 0, 72, 68
1, 39120, Note_on_c, 0, 57, 52
1, 39120, Note_on_c, 0, 60, 57
1, 39360, Tempo, 441176
1, 39360, Note_on_c, 0, 60, 0
1, 39360, Note_on_c, 0, 69, 0
1, 39360, Note_on_c, 0, 72, 0
1, 39360, Note_on_c, 0, 57, 0
1, 39360, Note_on_c, 0, 68, 64
1, 39360, Note_on_c, 0, 74, 71
1, 39360, Note_on_c, 0, 59, 54
1, 39360, Note_on_c, 0, 62, 58
1, 39374, Control_c, 0, 64, 0
1, 39840, Note_on_c, 0, 62, 0
1, 39840, Note_on_c, 0, 68, 0
1, 39840, Note_on_c, 0, 74, 0
1, 39840, Note_on_c, 0, 59, 0
1, 39840, Note_on_c, 0, 69, 64
1, 39840, Note_on_c, 0, 72, 71
1, 39840, Note_on_c, 0, 57, 54
1, 39840, Note_on_c, 0, 60, 58
1, 40320, Tempo, 452830
1, 40320, Note_on_c, 0, 60, 0
1, 40320, Note_on_c, 0, 69, 0
1, 40320, Note_on_c, 0, 72, 0
1, 40320, Note_on_c, 0, 57, 0
1, 40320, Note_on_c, 0, 68, 64
1, 40320, Note_on_c, 0, 77, 73
1, 40320, Note_on_c, 0, 62, 54
1, 40320, Note_on_c, 0, 65, 58
1, 40440, Note_on_c, 0, 65, 0
1, 40440, Note_on_c, 0, 68, 0
1, 40440, Note_on_c, 0, 77, 0
1, 40440, Note_on_c, 0, 62, 0
1, 40680, Note_on_c, 0, 68, 64
1, 40680, Note_on_c, 0, 76, 73
1, 40680, Note_on_c, 0, 60, 54
1, 40680, Note_on_c, 0, 64, 58
1, 40770, Note_on_c, 0, 64, 0
1, 40770, Note_on_c, 0, 68, 0
1, 40770, Note_on_c, 0, 76, 0
1, 40770, Note_on_c, 0, 60, 0
1, 40800, Tempo, 441176
1, 40800, Note_on_c, 0, 68, 68
1, 40800, Note_on_c, 0, 74, 76
1, 40800, Note_on_c, 0, 59, 57
1, 40800, Note_on_c, 0, 62, 65
1, 41760, Tempo, 431655
1, 41760, Note_on_c, 0, 62, 0
1, 41760, Note_on_c, 0, 68, 0
1, 41760, Note_on_c, 0, 74, 0
1, 41760, Note_on_c, 0, 59, 0
1, 41760, Note_on_c, 0, 68, 64
1, 41760, Note_on_c, 0, 77, 73
1, 41760, Note_on_c, 0, 65, 63
1, 41760, Note_on_c, 0, 62, 56
1, 42240, Tempo, 441176
1, 42240, Note_on_c, 0, 62, 0
1, 42240, Note_on_c, 0, 68, 0
1, 42240, Note_on_c, 0, 77, 0
1, 42240, Note_on_c, 0, 65, 0
1, 42240, Note_on_c, 0, 69, 64
1, 42240, Note_on_c, 0, 76, 71
1, 42240, Note_on_c, 0, 60, 56
1, 42240, Note_on_c, 0, 64, 63
1, 42720, Note_on_c, 0, 64, 0
1, 42720, Note_on_c, 0, 69, 0
1, 42720, Note_on_c, 0, 76, 0
1, 42720, Note_on_c, 0, 60, 0
1, 42720, Note_on_c, 0, 64, 64
1, 42720, Note_on_c, 0, 72, 71
1, 42720, Note_on_c, 0, 57, 54
1, 42720, Note_on_c, 0, 60, 58
1, 42760, Tempo, 436364
1, 43200, Tempo, 439560
1, 43200, Note_on_c, 0, 60, 0
1, 43200, Note_on_c, 0, 64, 0
1, 43200, Note_on_c, 0, 72, 0
1, 43200, Note_on_c, 0, 57, 0
1, 43200, Note_on_c, 0, 64, 64
1, 43200, Note_on_c, 0, 71, 69
1, 43200, Note_on_c, 0, 56, 56
1, 43200, Note_on_c, 0, 59, 61
1, 43440, Tempo, 456274
1, 43680, Tempo, 447761
1, 43680, Note_on_c, 0, 59, 0
1, 43680, Note_on_c, 0, 64, 0
1, 43680, Note_on_c, 0, 71, 0
1, 43680, Note_on_c, 0, 56, 0
1, 43680, Note_on_c, 0, 60, 57
1, 43680, Note_on_c, 0, 63, 65
1, 43680, Note_on_c, 0, 69, 70
1, 43680, Note_on_c, 0, 54, 55
1, 43680, Note_on_c, 0, 57, 60
1, 43765, Control_c, 0, 64, 127
1, 44040, Tempo, 481928
1, 44040, Note_on_c, 0, 57, 0
1, 44040, Note_on_c, 0, 69, 0
1, 44040, Note_on_c, 0, 71, 67
1, 44040, Note_on_c, 0, 59, 56
1, 44160, Tempo, 454545
1, 44160, Note_on_c, 0, 59, 0
1, 44160, Note_on_c, 0, 60, 0
1, 44160, Note_on_c, 0, 54, 0
1, 44160, Note_on_c, 0, 63, 0
1, 44160, Note_on_c, 0, 71, 0
1, 44160, Note_on_c, 0, 60, 58
1, 44160, Note_on_c, 0, 63, 58
1, 44160, Note_on_c, 0, 69, 66
1, 44160, Control_c, 0, 64, 0
1, 44160, Note_on_c, 0, 52, 49
1, 44160, Note_on_c, 0, 57, 56
1, 45120, Note_on_c, 0, 57, 0
1, 45120, Note_on_c, 0, 60, 0
1, 45120, Note_on_c, 0, 69, 0
1, 45120, Note_on_c, 0, 63, 0
1, 45120, Note_on_c, 0, 59, 57
1, 45120, Note_on_c, 0, 64, 57
1, 45120, Note_on_c, 0, 68, 65
1, 45120, Note_on_c, 0, 56, 55
1, 45600, Tempo, 441176
1, 45600, Note_on_c, 0, 56, 0
1, 45600, Note_on_c, 0, 64, 0
1, 45600, Note_on_c, 0, 52, 0
1, 45600, Note_on_c, 0, 59, 0
1, 45600, Note_on_c, 0, 68, 0
1, 45600, Note_on_c, 0, 64, 71
1, 45600, Note_on_c, 0, 52, 56
1, 46080, Note_on_c, 0, 52, 0
1, 46080, Note_on_c, 0, 64, 0
1, 46080, Note_on_c, 0, 59, 64
1, 46080, Note_on_c, 0, 64, 64
1, 46080, Note_on_c, 0, 71, 71
1, 46080, Note_on_c, 0, 56, 58
1, 46207, Control_c, 0, 64, 127
1, 46800, Tempo, 430108
1, 46800, Note_on_c, 0, 56, 0
1, 46800, Note_on_c, 0, 59, 0
1, 46800, Note_on_c, 0, 64, 0
1, 46800, Note_on_c, 0, 71, 0
1, 46800, Note_on_c, 0, 60, 62
1, 46800, Note_on_c, 0, 69, 62
1, 46800, Note_on_c, 0, 72, 68
1, 46800, Note_on_c, 0, 57, 57
1, 47040, Tempo, 441176
1, 47040, Note_on_c, 0, 57, 0
1, 47040, Note_on_c, 0, 60, 0
1, 47040, Note_on_c, 0, 69, 0
1, 47040, Note_on_c, 0, 72, 0
1, 47040, Note_on_c, 0, 62, 64
1, 47040, Note_on_c, 0, 68, 64
1, 47040, Note_on_c, 0, 74, 71
1, 47040, Note_on_c, 0, 59, 58
1, 47049, Control_c, 0, 64, 0
1, 47520, Note_on_c, 0, 59, 0
1, 47520, Note_on_c, 0, 62, 0
1, 47520, Note_on_c, 0, 68, 0
1, 47520, Note_on_c, 0, 74, 0
1, 47520, Note_on_c, 0, 65, 64
1, 47520, Note_on_c, 0, 68, 64
1, 47520, Note_on_c, 0, 77, 71
1, 47520, Note_on_c, 0, 62, 58
1, 48000, Tempo, 452830
1, 48000, Note_on_c, 0, 62, 0
1, 48000, Note_on_c, 0, 65, 0
1, 48000, Note_on_c, 0, 68, 0
1, 48000, Note_on_c, 0, 77, 0
1, 48000, Note_on_c, 0, 69, 64
1, 48000, Note_on_c, 0, 64, 64
1, 48000, Note_on_c, 0, 76, 73
1, 48000, Note_on_c, 0, 60, 58
1, 48120, Note_on_c, 0, 60, 0
1, 48120, Note_on_c, 0, 69, 0
1, 48120, Note_on_c, 0, 64, 0
1, 48120, Note_on_c, 0, 76, 0
1, 48360, Note_on_c, 0, 69, 64
1, 48360, Note_on_c, 0, 62, 64
1, 48360, Note_on_c, 0, 74, 73
1, 48360, Note_on_c, 0, 59, 58
1, 48450, Note_on_c, 0, 59, 0
1, 48450, Note_on_c, 0, 69, 0
1, 48450, Note_on_c, 0, 62, 0
1, 48450, Note_on_c, 0, 74, 0
1, 48480, Tempo, 441176
1, 48480, Note_on_c, 0, 60, 64
1, 48480, Note_on_c, 0, 69, 68
1, 48480, Note_on_c, 0, 72, 75
1, 48480, Note_on_c, 0, 57, 60
1, 49440, Tempo, 449438
1, 49440, Note_on_c, 0, 57, 0
1, 49440, Note_on_c, 0, 60, 0
1, 49440, Note_on_c, 0, 69, 0
1, 49440, Note_on_c, 0, 72, 0
1, 49440, Note_on_c, 0, 72, 69
1, 49440, Note_on_c, 0, 64, 69
1, 49440, Note_on_c, 0, 76, 78
1, 49440, Note_on_c, 0, 54, 68
1, 49440, Note_on_c, 0, 45, 61
1, 49920, Tempo, 447761
1, 49920, Note_on_c, 0, 45, 0
1, 49920, Note_on_c, 0, 76, 0
1, 49920, Note_on_c, 0, 72, 0
1, 49920, Note_on_c, 0, 64, 0
1, 49920, Note_on_c, 0, 54, 0
1, 49920, Note_on_c, 0, 71, 69
1, 49920, Note_on_c, 0, 62, 69
1, 49920, Note_on_c, 0, 74, 77
1, 49920, Note_on_c, 0, 47, 61
1, 49920, Note_on_c, 0, 55, 68
1, 50400, Tempo, 439560
1, 50400, Note_on_c, 0, 55, 0
1, 50400, Note_on_c, 0, 74, 0
1, 50400, Note_on_c, 0, 71, 0
1, 50400, Note_on_c, 0, 62, 0
1, 50400, Note_on_c, 0, 47, 0
1, 50400, Note_on_c, 0, 69, 69
1, 50400, Note_on_c, 0, 64, 69
1, 50400, Note_on_c, 0, 72, 77
1, 50400, Note_on_c, 0, 48, 58
1, 50400, Note_on_c, 0, 60, 65
1, 50880, Tempo, 447761
1, 50880, Note_on_c, 0, 60, 0
1, 50880, Note_on_c, 0, 72, 0
1, 50880, Note_on_c, 0, 69, 0
1, 50880, Note_on_c, 0, 64, 0
1, 50880, Note_on_c, 0, 48, 0
1, 50880, Note_on_c, 0, 67, 72
1, 50880, Note_on_c, 0, 62, 68
1, 50880, Note_on_c, 0, 71, 75
1, 50880, Note_on_c, 0, 50, 58
1, 50880, Note_on_c, 0, 59, 65
1, 51120, Tempo, 472441
1, 51360, Tempo, 447761
1, 51360, Note_on_c, 0, 59, 0
1, 51360, Note_on_c, 0, 71, 0
1, 51360, Note_on_c, 0, 67, 0
1, 51360, Note_on_c, 0, 62, 0
1, 51360, Note_on_c, 0, 50, 0
1, 51360, Note_on_c, 0, 66, 71
1, 51360, Note_on_c, 0, 60, 71
1, 51360, Note_on_c, 0, 62, 71
1, 51360, Note_on_c, 0, 69, 79
1, 51360, Note_on_c, 0, 50, 61
1, 51360, Note_on_c, 0, 57, 68
1, 51438, Control_c, 0, 64, 127
1, 51720, Tempo, 481928
1, 51720, Note_on_c, 0, 57, 0
1, 51720, Note_on_c, 0, 69, 0
1, 51720, Note_on_c, 0, 71, 74
1, 51720, Note_on_c, 0, 59, 62
1, 51840, Tempo, 454545
1, 51840, Note_on_c, 0, 59, 0
1, 51840, Note_on_c, 0, 60, 0
1, 51840, Note_on_c, 0, 50, 0
1, 51840, Note_on_c, 0, 66, 0
1, 51840, Note_on_c, 0, 71, 0
1, 51840, Note_on_c, 0, 62, 0
1, 51840, Note_on_c, 0, 66, 65
1, 51840, Note_on_c, 0, 60, 65
1, 51840, Note_on_c, 0, 62, 65
1, 51840, Note_on_c, 0, 69, 73
1, 51840, Control_c, 0, 64, 0
1, 51840, Note_on_c, 0, 50, 55
1, 51840, Note_on_c, 0, 57, 62
1, 52800, Tempo, 465116
1, 52800, Note_on_c, 0, 57, 0
1, 52800, Note_on_c, 0, 60, 0
1, 52800, Note_on_c, 0, 62, 0
1, 52800, Note_on_c, 0, 66, 0
1, 52800, Note_on_c, 0, 50, 0
1, 52800, Note_on_c, 0, 69, 0
1, 52800, Note_on_c, 0, 59, 64
1, 52800, Note_on_c, 0, 62, 64
1, 52800, Note_on_c, 0, 67, 71
1, 52800, Note_on_c, 0, 43, 52
1, 52800, Note_on_c, 0, 55, 59
1, 53256, Note_on_c, 0, 55, 0
1, 53256, Note_on_c, 0, 67, 0
1, 53256, Note_on_c, 0, 59, 0
1, 53256, Note_on_c, 0, 62, 0
1, 53256, Note_on_c, 0, 43, 0
1, 53280, Tempo, 476190
1, 53280, Note_on_c, 0, 67, 82
1, 53280, Note_on_c, 0, 53, 62
1, 53280, Note_on_c, 0, 55, 67
1, 53760, Tempo, 441176
1, 53760, Note_on_c, 0, 55, 0
1, 53760, Note_on_c, 0, 53, 0
1, 53760, Note_on_c, 0, 67, 0
1, 53760, Note_on_c, 0, 67, 71
1, 53760, Note_on_c, 0, 76, 71
1, 53760, Note_on_c, 0, 79, 79
1, 53760, Note_on_c, 0, 52, 63
1, 53760, Note_on_c, 0, 64, 66
1, 53887, Control_c, 0, 64, 127
1, 54480, Tempo, 430108
1, 54480, Note_on_c, 0, 64, 0
1, 54480, Note_on_c, 0, 67, 0
1, 54480, Note_on_c, 0, 79, 0
1, 54480, Note_on_c, 0, 76, 0
1, 54480, Note_on_c, 0, 65, 69
1, 54480, Note_on_c, 0, 74, 69
1, 54480, Note_on_c, 0, 77, 76
1, 54480, Note_on_c, 0, 62, 64
1, 54720, Tempo, 441176
1, 54720, Note_on_c, 0, 62, 0
1, 54720, Note_on_c, 0, 74, 0
1, 54720, Note_on_c, 0, 77, 0
1, 54720, Note_on_c, 0, 65, 0
1, 54720, Note_on_c, 0, 64, 71
1, 54720, Note_on_c, 0, 72, 71
1, 54720, Note_on_c, 0, 76, 79
1, 54720, Note_on_c, 0, 60, 66
1, 54730, Control_c, 0, 64, 0
1, 55200, Note_on_c, 0, 60, 0
1, 55200, Note_on_c, 0, 72, 0
1, 55200, Note_on_c, 0, 52, 0
1, 55200, Note_on_c, 0, 64, 0
1, 55200, Note_on_c, 0, 76, 0
1, 55200, Note_on_c, 0, 65, 71
1, 55200, Note_on_c, 0, 74, 71
1, 55200, Note_on_c, 0, 77, 79
1, 55200, Note_on_c, 0, 50, 59
1, 55200, Note_on_c, 0, 62, 66
1, 55680, Tempo, 452830
1, 55680, Note_on_c, 0, 62, 0
1, 55680, Note_on_c, 0, 77, 0
1, 55680, Note_on_c, 0, 65, 0
1, 55680, Note_on_c, 0, 74, 0
1, 55680, Note_on_c, 0, 50, 0
1, 55680, Note_on_c, 0, 72, 71
1, 55680, Note_on_c, 0, 64, 71
1, 55680, Note_on_c, 0, 76, 80
1, 55680, Note_on_c, 0, 55, 66
1, 55680, Note_on_c, 0, 60, 66
1, 56160, Tempo, 441176
1, 56160, Note_on_c, 0, 60, 0
1, 56160, Note_on_c, 0, 72, 0
1, 56160, Note_on_c, 0, 76, 0
1, 56160, Note_on_c, 0, 64, 0
1, 56160, Note_on_c, 0, 62, 73
1, 56160, Note_on_c, 0, 71, 73
1, 56160, Note_on_c, 0, 74, 80
1, 56160, Note_on_c, 0, 59, 68
1, 56259, Control_c, 0, 64, 127
1, 56520, Note_on_c, 0, 59, 0
1, 56520, Note_on_c, 0, 71, 0
1, 56520, Note_on_c, 0, 74, 0
1, 56520, Note_on_c, 0, 62, 0
1, 56520, Note_on_c, 0, 60, 69
1, 56520, Note_on_c, 0, 69, 69
1, 56520, Note_on_c, 0, 72, 76
1, 56520, Note_on_c, 0, 57, 73
1, 56640, Note_on_c, 0, 57, 0
1, 56640, Note_on_c, 0, 69, 0
1, 56640, Note_on_c, 0, 72, 0
1, 56640, Note_on_c, 0, 60, 0
1, 56640, Note_on_c, 0, 62, 69
1, 56640, Note_on_c, 0, 71, 69
1, 56640, Note_on_c, 0, 74, 79
1, 56640, Note_on_c, 0, 59, 66
1, 56650, Control_c, 0, 64, 0
1, 56880, Note_on_c, 0, 55, 0
1, 56880, Note_on_c, 0, 53, 73
1, 57000, Note_on_c, 0, 53, 0
1, 57120, Tempo, 431655
1, 57120, Note_on_c, 0, 59, 0
1, 57120, Note_on_c, 0, 62, 0
1, 57120, Note_on_c, 0, 71, 0
1, 57120, Note_on_c, 0, 74, 0
1, 57120, Note_on_c, 0, 65, 70
1, 57120, Note_on_c, 0, 67, 85
1, 57120, Note_on_c, 0, 52, 76
1, 57120, Note_on_c, 0, 55, 71
1, 57240, Note_on_c, 0, 52, 0
1, 57360, Note_on_c, 0, 50, 73
1, 57480, Note_on_c, 0, 50, 0
1, 57600, Tempo, 441176
1, 57600, Note_on_c, 0, 55, 0
1, 57600, Note_on_c, 0, 67, 0
1, 57600, Note_on_c, 0, 65, 0
1, 57600, Note_on_c, 0, 72, 71
1, 57600, Note_on_c, 0, 64, 71
1, 57600, Note_on_c, 0, 76, 79
1, 57600, Note_on_c, 0, 48, 62
1, 57600, Note_on_c, 0, 60, 70
1, 57664, Control_c, 0, 64, 127
1, 58120, Tempo, 436364
1, 58320, Note_on_c, 0, 60, 0
1, 58320, Note_on_c, 0, 72, 0
1, 58320, Note_on_c, 0, 76, 0
1, 58320, Note_on_c, 0, 64, 0
1, 58320, Note_on_c, 0, 62, 71
1, 58320, Note_on_c, 0, 71, 71
1, 58320, Note_on_c, 0, 74, 79
1, 58320, Control_c, 0, 64, 0
1, 58320, Note_on_c, 0, 59, 63
1, 58440, Note_on_c, 0, 59, 0
1, 58440, Note_on_c, 0, 71, 0
1, 58440, Note_on_c, 0, 74, 0
1, 58440, Note_on_c, 0, 62, 0
1, 58560, Tempo, 439560
1, 58560, Note_on_c, 0, 60, 64
1, 58560, Note_on_c, 0, 69, 64
1, 58560, Note_on_c, 0, 72, 76
1, 58560, Note_on_c, 0, 57, 64
1, 58680, Note_on_c, 0, 57, 0
1, 58680, Note_on_c, 0, 69, 0
1, 58680, Note_on_c, 0, 72, 0
1, 58680, Note_on_c, 0, 60, 0
1, 58800, Tempo, 456274
1, 58800, Note_on_c, 0, 62, 65
1, 58800, Note_on_c, 0, 71, 65
1, 58800, Note_on_c, 0, 74, 77
1, 58800, Note_on_c, 0, 59, 68
1, 58920, Note_on_c, 0, 59, 0
1, 58920, Note_on_c, 0, 71, 0
1, 58920, Note_on_c, 0, 74, 0
1, 58920, Note_on_c, 0, 62, 0
1, 59040, Tempo, 447761
1, 59040, Note_on_c, 0, 48, 0
1, 59040, Note_on_c, 0, 64, 67
1, 59040, Note_on_c, 0, 72, 67
1, 59040, Note_on_c, 0, 76, 79
1, 59040, Note_on_c, 0, 47, 68
1, 59040, Note_on_c, 0, 60, 68
1, 59160, Note_on_c, 0, 60, 0
1, 59160, Note_on_c, 0, 64, 0
1, 59160, Note_on_c, 0, 76, 0
1, 59160, Note_on_c, 0, 72, 0
1, 59280, Note_on_c, 0, 62, 65
1, 59280, Note_on_c, 0, 71, 65
1, 59280, Note_on_c, 0, 74, 77
1, 59280, Note_on_c, 0, 59, 66
1, 59400, Tempo, 481928
1, 59400, Note_on_c, 0, 59, 0
1, 59400, Note_on_c, 0, 71, 0
1, 59400, Note_on_c, 0, 74, 0
1, 59400, Note_on_c, 0, 62, 0
1, 59520, Tempo, 452830
1, 59520, Note_on_c, 0, 47, 0
1, 59520, Note_on_c, 0, 69, 71
1, 59520, Note_on_c, 0, 60, 71
1, 59520, Note_on_c, 0, 72, 80
1, 59520, Note_on_c, 0, 52, 66
1, 59520, Note_on_c, 0, 57, 66
1, 60000, Tempo, 441176
1, 60000, Note_on_c, 0, 57, 0
1, 60000, Note_on_c, 0, 69, 0
1, 60000, Note_on_c, 0, 72, 0
1, 60000, Note_on_c, 0, 60, 0
1, 60000, Note_on_c, 0, 59, 73
1, 60000, Note_on_c, 0, 68, 73
1, 60000, Note_on_c, 0, 71, 80
1, 60000, Note_on_c, 0, 56, 68
1, 60086, Control_c, 0, 64, 127
1, 60360, Note_on_c, 0, 56, 0
1, 60360, Note_on_c, 0, 68, 0
1, 60360, Note_on_c, 0, 71, 0
1, 60360, Note_on_c, 0, 59, 0
1, 60360, Note_on_c, 0, 57, 65
1, 60360, Note_on_c, 0, 66, 65
1, 60360, Note_on_c, 0, 69, 73
1, 60360, Note_on_c, 0, 54, 68
1, 60480, Note_on_c, 0, 54, 0
1, 60480, Note_on_c, 0, 66, 0
1, 60480, Note_on_c, 0, 69, 0
1, 60480, Note_on_c, 0, 57, 0
1, 60480, Note_on_c, 0, 59, 65
1, 60480, Note_on_c, 0, 68, 65
1, 60480, Note_on_c, 0, 71, 76
1, 60480, Note_on_c, 0, 56, 62
1, 60490, Control_c, 0, 64, 0
1, 60720, Note_on_c, 0, 52, 0
1, 60720, Note_on_c, 0, 50, 76
1, 60840, Note_on_c, 0, 50, 0
1, 60960, Tempo, 454545
1, 60960, Note_on_c, 0, 56, 0
1, 60960, Note_on_c, 0, 59, 0
1, 60960, Note_on_c, 0, 68, 0
1, 60960, Note_on_c, 0, 71, 0
1, 60960, Note_on_c, 0, 62, 71
1, 60960, Note_on_c, 0, 64, 80
1, 60960, Note_on_c, 0, 48, 79
1, 60960, Note_on_c, 0, 52, 74
1, 61080, Note_on_c, 0, 48, 0
1, 61200, Note_on_c, 0, 45, 76
1, 61320, Note_on_c, 0, 45, 0
1, 61440, Tempo, 441176
1, 61440, Note_on_c, 0, 52, 0
1, 61440, Note_on_c, 0, 64, 0
1, 61440, Note_on_c, 0, 62, 0
1, 61440, Note_on_c, 0, 60, 71
1, 61440, Note_on_c, 0, 64, 71
1, 61440, Note_on_c, 0, 69, 79
1, 61440, Note_on_c, 0, 45, 59
1, 61440, Note_on_c, 0, 48, 59
1, 61440, Note_on_c, 0, 57, 66
1, 61567, Control_c, 0, 64, 127
1, 62160, Tempo, 430108
1, 62160, Note_on_c, 0, 57, 0
1, 62160, Note_on_c, 0, 64, 0
1, 62160, Note_on_c, 0, 69, 0
1, 62160, Note_on_c, 0, 60, 0
1, 62160, Note_on_c, 0, 48, 0
1, 62160, Note_on_c, 0, 45, 0
1, 62160, Note_on_c, 0, 64, 69
1, 62160, Note_on_c, 0, 71, 76
1, 62160, Note_on_c, 0, 52, 57
1, 62160, Note_on_c, 0, 59, 64
1, 62400, Tempo, 441176
1, 62400, Note_on_c, 0, 59, 0
1, 62400, Note_on_c, 0, 64, 0
1, 62400, Note_on_c, 0, 71, 0
1, 62400, Note_on_c, 0, 52, 0
1, 62400, Note_on_c, 0, 69, 71
1, 62400, Note_on_c, 0, 72, 79
1, 62400, Note_on_c, 0, 57, 59
1, 62400, Note_on_c, 0, 60, 66
1, 62410, Control_c, 0, 64, 0
1, 62880, Note_on_c, 0, 60, 0
1, 62880, Note_on_c, 0, 69, 0
1, 62880, Note_on_c, 0, 72, 0
1, 62880, Note_on_c, 0, 57, 0
1, 62880, Note_on_c, 0, 71, 71
1, 62880, Note_on_c, 0, 74, 79
1, 62880, Note_on_c, 0, 59, 59
1, 62880, Note_on_c, 0, 62, 66
1, 63360, Tempo, 452830
1, 63360, Note_on_c, 0, 62, 0
1, 63360, Note_on_c, 0, 71, 0
1, 63360, Note_on_c, 0, 74, 0
1, 63360, Note_on_c, 0, 59, 0
1, 63360, Note_on_c, 0, 72, 71
1, 63360, Note_on_c, 0, 76, 80
1, 63360, Note_on_c, 0, 60, 59
1, 63360, Note_on_c, 0, 64, 66
1, 63816, Note_on_c, 0, 64, 0
1, 63816, Note_on_c, 0, 72, 0
1, 63816, Note_on_c, 0, 76, 0
1, 63816, Note_on_c, 0, 60, 0
1, 63840, Tempo, 434783
1, 63840, Note_on_c, 0, 67, 76
1, 63840, Note_on_c, 0, 76, 76
1, 63840, Note_on_c, 0, 79, 86
1, 63840, Note_on_c, 0, 52, 76
1, 63840, Note_on_c, 0, 64, 76
1, 63960, Note_on_c, 0, 52, 0
1, 64080, Tempo, 458015
1, 64080, Note_on_c, 0, 53, 77
1, 64200, Note_on_c, 0, 53, 0
1, 64320, Tempo, 441176
1, 64320, Note_on_c, 0, 55, 84
1, 64800, Tempo, 431655
1, 64800, Note_on_c, 0, 64, 0
1, 64800, Note_on_c, 0, 79, 0
1, 64800, Note_on_c, 0, 67, 0
1, 64800, Note_on_c, 0, 76, 0
1, 64800, Note_on_c, 0, 74, 71
1, 64800, Note_on_c, 0, 77, 80
1, 64800, Note_on_c, 0, 65, 70
1, 64800, Note_on_c, 0, 62, 62
1, 65160, Note_on_c, 0, 62, 0
1, 65160, Note_on_c, 0, 77, 0
1, 65160, Note_on_c, 0, 65, 0
1, 65160, Note_on_c, 0, 74, 0
1, 65160, Note_on_c, 0, 72, 68
1, 65160, Note_on_c, 0, 76, 76
1, 65160, Note_on_c, 0, 60, 59
1, 65160, Note_on_c, 0, 64, 66
1, 65274, Note_on_c, 0, 64, 0
1, 65274, Note_on_c, 0, 76, 0
1, 65274, Note_on_c, 0, 60, 0
1, 65274, Note_on_c, 0, 72, 0
1, 65280, Tempo, 441176
1, 65280, Note_on_c, 0, 72, 71
1, 65280, Note_on_c, 0, 76, 79
1, 65280, Note_on_c, 0, 60, 62
1, 65280, Note_on_c, 0, 64, 70
1, 65760, Note_on_c, 0, 64, 0
1, 65760, Note_on_c, 0, 76, 0
1, 65760, Note_on_c, 0, 55, 0
1, 65760, Note_on_c, 0, 72, 0
1, 65760, Note_on_c, 0, 60, 0
1, 65760, Note_on_c, 0, 71, 71
1, 65760, Note_on_c, 0, 74, 79
1, 65760, Note_on_c, 0, 56, 59
1, 65760, Note_on_c, 0, 59, 59
1, 65760, Note_on_c, 0, 62, 66
1, 65800, Tempo, 436364
1, 66120, Note_on_c, 0, 62, 0
1, 66120, Note_on_c, 0, 74, 0
1, 66120, Note_on_c, 0, 71, 0
1, 66120, Note_on_c, 0, 59, 0
1, 66120, Note_on_c, 0, 69, 68
1, 66120, Note_on_c, 0, 72, 76
1, 66120, Note_on_c, 0, 57, 57
1, 66120, Note_on_c, 0, 60, 63
1, 66234, Note_on_c, 0, 60, 0
1, 66234, Note_on_c, 0, 72, 0
1, 66234, Note_on_c, 0, 57, 0
1, 66234, Note_on_c, 0, 69, 0
1, 66240, Tempo, 439560
1, 66240, Note_on_c, 0, 56, 0
1, 66240, Note_on_c, 0, 69, 71
1, 66240, Note_on_c, 0, 72, 79
1, 66240, Note_on_c, 0, 57, 59
1, 66240, Note_on_c, 0, 60, 66
1, 66480, Tempo, 456274
1, 66480, Note_on_c, 0, 72, 0
1, 66480, Note_on_c, 0, 69, 0
1, 66480, Note_on_c, 0, 72, 85
1, 66720, Tempo, 472441
1, 66720, Note_on_c, 0, 72, 0
1, 66720, Note_on_c, 0, 57, 0
1, 66720, Note_on_c, 0, 60, 0
1, 66720, Note_on_c, 0, 64, 68
1, 66720, Note_on_c, 0, 65, 73
1, 66720, Note_on_c, 0, 72, 73
1, 66720, Note_on_c, 0, 76, 79
1, 66720, Note_on_c, 0, 50, 57
1, 66720, Note_on_c, 0, 60, 64
1, 66819, Control_c, 0, 64, 127
1, 67080, Tempo, 508475
1, 67080, Note_on_c, 0, 60, 0
1, 67080, Note_on_c, 0, 65, 0
1, 67080, Note_on_c, 0, 72, 0
1, 67080, Note_on_c, 0, 64, 0
1, 67080, Note_on_c, 0, 76, 0
1, 67080, Note_on_c, 0, 71, 68
1, 67080, Note_on_c, 0, 74, 76
1, 67080, Note_on_c, 0, 59, 63
1, 67080, Note_on_c, 0, 62, 63
1, 67200, Tempo, 454545
1, 67200, Note_on_c, 0, 62, 0
1, 67200, Note_on_c, 0, 74, 0
1, 67200, Note_on_c, 0, 50, 0
1, 67200, Note_on_c, 0, 71, 0
1, 67200, Note_on_c, 0, 59, 0
1, 67200, Note_on_c, 0, 69, 66
1, 67200, Note_on_c, 0, 72, 75
1, 67200, Note_on_c, 0, 52, 56
1, 67200, Note_on_c, 0, 60, 63
1, 67200, Note_on_c, 0, 57, 56
1, 67210, Control_c, 0, 64, 0
1, 67680, Tempo, 463320
1, 67680, Note_on_c, 0, 63, 76
1, 68000, Tempo, 478088
1, 68040, Note_on_c, 0, 63, 0
1, 68040, Note_on_c, 0, 64, 66
1, 68160, Tempo, 454545
1, 68160, Note_on_c, 0, 64, 0
1, 68160, Note_on_c, 0, 57, 0
1, 68160, Note_on_c, 0, 72, 0
1, 68160, Note_on_c, 0, 69, 0
1, 68160, Note_on_c, 0, 60, 0
1, 68160, Note_on_c, 0, 68, 61
1, 68160, Note_on_c, 0, 71, 69
1, 68160, Note_on_c, 0, 56, 52
1, 68160, Note_on_c, 0, 59, 57
1, 68400, Note_on_c, 0, 59, 0
1, 68400, Note_on_c, 0, 71, 0
1, 68400, Note_on_c, 0, 52, 0
1, 68400, Note_on_c, 0, 68, 0
1, 68400, Note_on_c, 0, 56, 0
1, 68640, Tempo, 454545
1, 68640, Note_on_c, 0, 62, 71
1, 68640, Note_on_c, 0, 64, 80
1, 68640, Note_on_c, 0, 52, 74
1, 69120, Tempo, 441176
1, 69120, Note_on_c, 0, 52, 0
1, 69120, Note_on_c, 0, 64, 0
1, 69120, Note_on_c, 0, 62, 0
1, 69120, Note_on_c, 0, 60, 71
1, 69120, Note_on_c, 0, 64, 71
1, 69120, Note_on_c, 0, 69, 79
1, 69120, Note_on_c, 0, 45, 59
1, 69120, Note_on_c, 0, 48, 59
1, 69120, Note_on_c, 0, 57, 66
1, 69247, Control_c, 0, 64, 127
1, 69840, Tempo, 430108
1, 69840, Note_on_c, 0, 57, 0
1, 69840, Note_on_c, 0, 64, 0
1, 69840, Note_on_c, 0, 69, 0
1, 69840, Note_on_c, 0, 60, 0
1, 69840, Note_on_c, 0, 48, 0
1, 69840, Note_on_c, 0, 45, 0
1, 69840, Note_on_c, 0, 64, 69
1, 69840, Note_on_c, 0, 71, 76
1, 69840, Note_on_c, 0, 52, 57
1, 69840, Note_on_c, 0, 59, 64
1, 70080, Tempo, 441176
1, 70080, Note_on_c, 0, 59, 0
1, 70080, Note_on_c, 0, 64, 0
1, 70080, Note_on_c, 0, 71, 0
1, 70080, Note_on_c, 0, 52, 0
1, 70080, Note_on_c, 0, 69, 71
1, 70080, Note_on_c, 0, 72, 79
1, 70080, Note_on_c, 0, 60, 67
1, 70080, Note_on_c, 0, 57, 59
1, 70090, Control_c, 0, 64, 0
1, 70200, Control_c, 0, 64, 127
1, 70440, Note_on_c, 0, 57, 0
1, 70440, Note_on_c, 0, 69, 0
1, 70440, Note_on_c, 0, 72, 0
1, 70440, Note_on_c, 0, 60, 0
1, 70440, Note_on_c, 0, 64, 71
1, 70440, Note_on_c, 0, 71, 79
1, 70440, Note_on_c, 0, 59, 63
1, 70440, Note_on_c, 0, 52, 53
1, 70560, Note_on_c, 0, 52, 0
1, 70560, Note_on_c, 0, 64, 0
1, 70560, Note_on_c, 0, 71, 0
1, 70560, Note_on_c, 0, 59, 0
1, 70560, Note_on_c, 0, 69, 71
1, 70560, Note_on_c, 0, 72, 79
1, 70560, Note_on_c, 0, 60, 68
1, 70560, Note_on_c, 0, 57, 57
1, 70570, Control_c, 0, 64, 0
1, 70680, Control_c, 0, 64, 127
1, 70920, Note_on_c, 0, 57, 0
1, 70920, Note_on_c, 0, 69, 0
1, 70920, Note_on_c, 0, 72, 0
1, 70920, Note_on_c, 0, 60, 0
1, 70920, Note_on_c, 0, 74, 79
1, 70920, Note_on_c, 0, 71, 71
1, 70920, Note_on_c, 0, 62, 54
1, 70920, Note_on_c, 0, 59, 52
1, 71040, Tempo, 452830
1, 71040, Note_on_c, 0, 59, 0
1, 71040, Note_on_c, 0, 74, 0
1, 71040, Note_on_c, 0, 71, 0
1, 71040, Note_on_c, 0, 62, 0
1, 71040, Note_on_c, 0, 72, 71
1, 71040, Note_on_c, 0, 76, 80
1, 71040, Note_on_c, 0, 64, 66
1, 71040, Note_on_c, 0, 60, 59
1, 71047, Control_c, 0, 64, 0
1, 71496, Note_on_c, 0, 60, 0
1, 71496, Note_on_c, 0, 72, 0
1, 71496, Note_on_c, 0, 76, 0
1, 71496, Note_on_c, 0, 64, 0
1, 71520, Tempo, 434783
1, 71520, Note_on_c, 0, 76, 76
1, 71520, Note_on_c, 0, 79, 86
1, 71520, Note_on_c, 0, 67, 76
1, 71520, Note_on_c, 0, 64, 76
1, 71760, Tempo, 458015
1, 72000, Tempo, 441176
1, 72480, Tempo, 431655
1, 72480, Note_on_c, 0, 64, 0
1, 72480, Note_on_c, 0, 76, 0
1, 72480, Note_on_c, 0, 79, 0
1, 72480, Note_on_c, 0, 67, 0
1, 72480, Note_on_c, 0, 79, 77
1, 72480, Note_on_c, 0, 82, 88
1, 72480, Note_on_c, 0, 67, 75
1, 72480, Note_on_c, 0, 70, 75
1, 72960, Tempo, 441176
1, 73200, Note_on_c, 0, 65, 75
1, 73320, Note_on_c, 0, 65, 0
1, 73440, Tempo, 424028
1, 73440, Note_on_c, 0, 64, 71
1, 73560, Note_on_c, 0, 64, 0
1, 73680, Note_on_c, 0, 62, 71
1, 73800, Tempo, 431655
1, 73800, Note_on_c, 0, 62, 0
1, 73920, Tempo, 439560
1, 73920, Note_on_c, 0, 61, 66
1, 74160, Tempo, 446097
1, 74280, Note_on_c, 0, 67, 0
1, 74280, Note_on_c, 0, 70, 0
1, 74280, Note_on_c, 0, 79, 0
1, 74280, Note_on_c, 0, 82, 0
1, 74280, Note_on_c, 0, 70, 67
1, 74280, Note_on_c, 0, 79, 67
1, 74280, Note_on_c, 0, 82, 79
1, 74280, Note_on_c, 0, 67, 63
1, 74370, Note_on_c, 0, 67, 0
1, 74370, Note_on_c, 0, 79, 0
1, 74370, Note_on_c, 0, 82, 0
1, 74370, Note_on_c, 0, 70, 0
1, 74400, Tempo, 433213
1, 74400, Note_on_c, 0, 61, 0
1, 74400, Note_on_c, 0, 69, 73
1, 74400, Note_on_c, 0, 77, 73
1, 74400, Note_on_c, 0, 81, 81
1, 74400, Note_on_c, 0, 65, 65
1, 74457, Control_c, 0, 64, 127
1, 74490, Note_on_c, 0, 81, 0
1, 74520, Note_on_c, 0, 69, 0
1, 74520, Note_on_c, 0, 77, 0
1, 74520, Note_on_c, 0, 65, 0
1, 74760, Tempo, 458015
1, 74760, Note_on_c, 0, 67, 68
1, 74760, Note_on_c, 0, 76, 68
1, 74760, Note_on_c, 0, 79, 76
1, 74760, Note_on_c, 0, 64, 59
1, 74850, Note_on_c, 0, 64, 0
1, 74850, Note_on_c, 0, 67, 0
1, 74850, Note_on_c, 0, 76, 0
1, 74850, Note_on_c, 0, 79, 0
1, 74880, Tempo, 441176
1, 74880, Note_on_c, 0, 65, 75
1, 74880, Note_on_c, 0, 74, 75
1, 74880, Note_on_c, 0, 77, 84
1, 74880, Note_on_c, 0, 62, 71
1, 74884, Control_c, 0, 64, 0
1, 75120, Note_on_c, 0, 60, 71
1, 75240, Tempo, 431655
1, 75240, Note_on_c, 0, 60, 0
1, 75360, Tempo, 424028
1, 75360, Note_on_c, 0, 59, 71
1, 75480, Note_on_c, 0, 59, 0
1, 75600, Note_on_c, 0, 57, 71
1, 75720, Tempo, 434783
1, 75720, Note_on_c, 0, 57, 0
1, 75840, Tempo, 439560
1, 75840, Note_on_c, 0, 56, 66
1, 76080, Tempo, 446097
1, 76200, Note_on_c, 0, 77, 0
1, 76200, Note_on_c, 0, 62, 0
1, 76200, Note_on_c, 0, 65, 0
1, 76200, Note_on_c, 0, 74, 0
1, 76200, Note_on_c, 0, 65, 67
1, 76200, Note_on_c, 0, 74, 67
1, 76200, Note_on_c, 0, 77, 79
1, 76200, Note_on_c, 0, 62, 63
1, 76290, Note_on_c, 0, 62, 0
1, 76290, Note_on_c, 0, 74, 0
1, 76290, Note_on_c, 0, 77, 0
1, 76290, Note_on_c, 0, 65, 0
1, 76320, Tempo, 431655
1, 76320, Note_on_c, 0, 56, 0
1, 76320, Note_on_c, 0, 64, 73
1, 76320, Note_on_c, 0, 72, 73
1, 76320, Note_on_c, 0, 76, 81
1, 76320, Note_on_c, 0, 60, 65
1, 76355, Control_c, 0, 64, 127
1, 76440, Note_on_c, 0, 60, 0
1, 76440, Note_on_c, 0, 64, 0
1, 76440, Note_on_c, 0, 72, 0
1, 76440, Note_on_c, 0, 76, 0
1, 76680, Tempo, 454545
1, 76680, Note_on_c, 0, 62, 68
1, 76680, Note_on_c, 0, 71, 68
1, 76680, Note_on_c, 0, 74, 76
1, 76680, Note_on_c, 0, 59, 59
1, 76770, Note_on_c, 0, 59, 0
1, 76770, Note_on_c, 0, 62, 0
1, 76770, Note_on_c, 0, 71, 0
1, 76770, Note_on_c, 0, 74, 0
1, 76800, Tempo, 441176
1, 76800, Note_on_c, 0, 60, 75
1, 76800, Note_on_c, 0, 69, 75
1, 76800, Note_on_c, 0, 72, 84
1, 76800, Note_on_c, 0, 57, 71
1, 76805, Control_c, 0, 64, 0
1, 77040, Note_on_c, 0, 55, 71
1, 77160, Tempo, 430108
1, 77160, Note_on_c, 0, 55, 0
1, 77280, Tempo, 437956
1, 77280, Note_on_c, 0, 54, 71
1, 77400, Note_on_c, 0, 54, 0
1, 77520, Note_on_c, 0, 52, 71
1, 77640, Note_on_c, 0, 52, 0
1, 77760, Tempo, 427046
1, 77760, Note_on_c, 0, 51, 66
1, 78000, Tempo, 446097
1, 78000, Note_on_c, 0, 60, 0
1, 78000, Note_on_c, 0, 72, 0
1, 78000, Note_on_c, 0, 69, 0
1, 78000, Note_on_c, 0, 59, 67
1, 78000, Note_on_c, 0, 68, 67
1, 78000, Note_on_c, 0, 71, 79
1, 78000, Note_on_c, 0, 56, 63
1, 78090, Note_on_c, 0, 56, 0
1, 78090, Note_on_c, 0, 68, 0
1, 78090, Note_on_c, 0, 59, 0
1, 78090, Note_on_c, 0, 71, 0
1, 78120, Note_on_c, 0, 57, 0
1, 78240, Tempo, 446097
1, 78240, Note_on_c, 0, 51, 0
1, 78240, Note_on_c, 0, 57, 73
1, 78240, Note_on_c, 0, 66, 73
1, 78240, Note_on_c, 0, 69, 81
1, 78240, Note_on_c, 0, 54, 65
1, 78360, Note_on_c, 0, 54, 0
1, 78360, Note_on_c, 0, 57, 0
1, 78360, Note_on_c, 0, 66, 0
1, 78360, Note_on_c, 0, 69, 0
1, 78480, Note_on_c, 0, 59, 68
1, 78480, Note_on_c, 0, 68, 68
1, 78480, Note_on_c, 0, 71, 76
1, 78480, Note_on_c, 0, 56, 59
1, 78570, Note_on_c, 0, 56, 0
1, 78570, Note_on_c, 0, 59, 0
1, 78570, Note_on_c, 0, 68, 0
1, 78570, Note_on_c, 0, 71, 0
1, 78600, Tempo, 447761
1, 78720, Tempo, 446097
1, 78720, Note_on_c, 0, 60, 64
1, 78720, Note_on_c, 0, 69, 64
1, 78720, Note_on_c, 0, 72, 76
1, 78720, Note_on_c, 0, 52, 59
1, 78720, Note_on_c, 0, 57, 71
1, 78840, Tempo, 444444
1, 78840, Note_on_c, 0, 57, 0
1, 78840, Note_on_c, 0, 60, 0
1, 78840, Note_on_c, 0, 72, 0
1, 78840, Note_on_c, 0, 69, 0
1, 78960, Tempo, 442804
1, 78960, Note_on_c, 0, 62, 65
1, 78960, Note_on_c, 0, 71, 65
1, 78960, Note_on_c, 0, 74, 77
1, 78960, Note_on_c, 0, 59, 73
1, 79080, Tempo, 441176
1, 79080, Note_on_c, 0, 59, 0
1, 79080, Note_on_c, 0, 71, 0
1, 79080, Note_on_c, 0, 74, 0
1, 79080, Note_on_c, 0, 62, 0
1, 79160, Tempo, 439560
1, 79200, Note_on_c, 0, 64, 67
1, 79200, Note_on_c, 0, 72, 67
1, 79200, Note_on_c, 0, 76, 79
1, 79200, Note_on_c, 0, 60, 74
1, 79280, Tempo, 437956
1, 79320, Note_on_c, 0, 60, 0
1, 79320, Note_on_c, 0, 72, 0
1, 79320, Note_on_c, 0, 76, 0
1, 79320, Note_on_c, 0, 64, 0
1, 79400, Tempo, 436364
1, 79440, Note_on_c, 0, 65, 69
1, 79440, Note_on_c, 0, 74, 69
1, 79440, Note_on_c, 0, 77, 81
1, 79440, Note_on_c, 0, 62, 75
1, 79480, Tempo, 434783
1, 79560, Tempo, 436364
1, 79560, Note_on_c, 0, 62, 0
1, 79560, Note_on_c, 0, 74, 0
1, 79560, Note_on_c, 0, 77, 0
1, 79560, Note_on_c, 0, 65, 0
1, 79600, Tempo, 437956
1, 79640, Tempo, 439560
1, 79680, Tempo, 441176
1, 79680, Note_on_c, 0, 64, 66
1, 79680, Note_on_c, 0, 72, 66
1, 79680, Note_on_c, 0, 76, 78
1, 79680, Note_on_c, 0, 60, 76
1, 79720, Tempo, 442804
1, 79760, Tempo, 444444
1, 79800, Tempo, 446097
1, 79800, Note_on_c, 0, 60, 0
1, 79800, Note_on_c, 0, 72, 0
1, 79800, Note_on_c, 0, 76, 0
1, 79800, Note_on_c, 0, 64, 0
1, 79840, Tempo, 447761
1, 79880, Tempo, 449438
1, 79920, Tempo, 451128
1, 79920, Note_on_c, 0, 62, 65
1, 79920, Note_on_c, 0, 71, 65
1, 79920, Note_on_c, 0, 74, 77
1, 79920, Note_on_c, 0, 59, 75
1, 79960, Tempo, 452830
1, 80000, Tempo, 454545
1, 80040, Tempo, 456274
1, 80040, Note_on_c, 0, 59, 0
1, 80040, Note_on_c, 0, 71, 0
1, 80040, Note_on_c, 0, 74, 0
1, 80040, Note_on_c, 0, 62, 0
1, 80080, Tempo, 458015
1, 80160, Tempo, 461538
1, 80160, Note_on_c, 0, 60, 64
1, 80160, Note_on_c, 0, 69, 64
1, 80160, Note_on_c, 0, 72, 76
1, 80160, Note_on_c, 0, 57, 73
1, 80280, Note_on_c, 0, 57, 0
1, 80280, Note_on_c, 0, 69, 0
1, 80280, Note_on_c, 0, 72, 0
1, 80280, Note_on_c, 0, 60, 0
1, 80320, Note_on_c, 0, 52, 0
1, 80400, Tempo, 504202
1, 80520, Note_on_c, 0, 64, 64
1, 80520, Note_on_c, 0, 71, 76
1, 80520, Note_on_c, 0, 52, 58
1, 80520, Note_on_c, 0, 59, 70
1, 80610, Note_on_c, 0, 59, 0
1, 80610, Note_on_c, 0, 64, 0
1, 80610, Note_on_c, 0, 71, 0
1, 80610, Note_on_c, 0, 52, 0
1, 80640, Note_on_c, 0, 64, 64
1, 80640, Note_on_c, 0, 71, 76
1, 80640, Note_on_c, 0, 52, 58
1, 80640, Note_on_c, 0, 59, 70
1, 81600, Note_on_c, 0, 59, 0
1, 81600, Note_on_c, 0, 64, 0
1, 81600, Note_on_c, 0, 71, 0
1, 81600, Note_on_c, 0, 52, 0
1, 81600, Note_on_c, 0, 60, 64
1, 81600, Note_on_c, 0, 69, 76
1, 81600, Note_on_c, 0, 45, 59
1, 81600, Note_on_c, 0, 57, 71
1, 82080, Tempo, 428571
1, 82080, Note_on_c, 0, 57, 0
1, 82080, Note_on_c, 0, 60, 0
1, 82080, Note_on_c, 0, 69, 0
1, 82080, Note_on_c, 0, 45, 0
1, 82200, Note_on_c, 0, 69, 34
1, 82320, Note_on_c, 0, 69, 0
1, 82320, Note_on_c, 0, 68, 34
1, 82440, Note_on_c, 0, 68, 0
1, 82440, Note_on_c, 0, 69, 34
1, 82560, Tempo, 409556
1, 82560, Note_on_c, 0, 69, 0
1, 82560, Note_on_c, 0, 71, 41
1, 82680, Note_on_c, 0, 71, 0
1, 82680, Note_on_c, 0, 68, 35
1, 82800, Tempo, 461538
1, 82800, Note_on_c, 0, 68, 0
1, 82800, Note_on_c, 0, 64, 35
1, 82980, Note_on_c, 0, 64, 0
1, 83040, Tempo, 428571
1, 83040, Note_on_c, 0, 59, 27
1, 83040, Note_on_c, 0, 56, 23
1, 83040, Note_on_c, 0, 52, 23
1, 83160, Tempo, 413793
1, 83160, Note_on_c, 0, 71, 34
1, 83280, Note_on_c, 0, 71, 0
1, 83280, Note_on_c, 0, 68, 34
1, 83400, Note_on_c, 0, 68, 0
1, 83400, Note_on_c, 0, 64, 34
1, 83520, Tempo, 408163
1, 83520, Note_on_c, 0, 64, 0
1, 83520, Note_on_c, 0, 59, 0
1, 83520, Note_on_c, 0, 56, 0
1, 83520, Note_on_c, 0, 52, 0
1, 83520, Note_on_c, 0, 72, 41
1, 83640, Note_on_c, 0, 72, 0
1, 83640, Note_on_c, 0, 69, 34
1, 83760, Tempo, 459770
1, 83760, Note_on_c, 0, 69, 0
1, 83760, Note_on_c, 0, 64, 34
1, 83940, Note_on_c, 0, 64, 0
1, 84000, Tempo, 428571
1, 84000, Note_on_c, 0, 52, 23
1, 84000, Note_on_c, 0, 57, 23
1, 84000, Note_on_c, 0, 60, 27
1, 84120, Tempo, 415225
1, 84120, Note_on_c, 0, 72, 36
1, 84240, Note_on_c, 0, 72, 0
1, 84240, Note_on_c, 0, 69, 36
1, 84360, Note_on_c, 0, 69, 0
1, 84360, Note_on_c, 0, 64, 36
1, 84480, Tempo, 410959
1, 84480, Note_on_c, 0, 64, 0
1, 84480, Note_on_c, 0, 52, 0
1, 84480, Note_on_c, 0, 57, 0
1, 84480, Note_on_c, 0, 60, 0
1, 84480, Note_on_c, 0, 69, 41
1, 84600, Note_on_c, 0, 69, 0
1, 84600, Note_on_c, 0, 66, 36
1, 84720, Tempo, 461538
1, 84720, Note_on_c, 0, 66, 0
1, 84720, Note_on_c, 0, 63, 36
1, 84900, Note_on_c, 0, 63, 0
1, 84960, Tempo, 428571
1, 84960, Note_on_c, 0, 57, 27
1, 84960, Note_on_c, 0, 54, 23
1, 84960, Note_on_c, 0, 52, 23
1, 85080, Tempo, 415225
1, 85080, Note_on_c, 0, 69, 36
1, 85200, Note_on_c, 0, 69, 0
1, 85200, Note_on_c, 0, 66, 36
1, 85320, Note_on_c, 0, 66, 0
1, 85320, Note_on_c, 0, 63, 36
1, 85440, Tempo, 409556
1, 85440, Note_on_c, 0, 63, 0
1, 85440, Note_on_c, 0, 57, 0
1, 85440, Note_on_c, 0, 54, 0
1, 85440, Note_on_c, 0, 52, 0
1, 85440, Note_on_c, 0, 71, 41
1, 85560, Note_on_c, 0, 71, 0
1, 85560, Note_on_c, 0, 68, 35
1, 85680, Tempo, 458015
1, 85680, Note_on_c, 0, 68, 0
1, 85680, Note_on_c, 0, 64, 35
1, 85860, Note_on_c, 0, 64, 0
1, 85920, Tempo, 428571
1, 85920, Note_on_c, 0, 59, 27
1, 85920, Note_on_c, 0, 56, 23
1, 85920, Note_on_c, 0, 52, 23
1, 86040, Tempo, 412371
1, 86040, Note_on_c, 0, 66, 39
1, 86160, Note_on_c, 0, 66, 0
1, 86160, Note_on_c, 0, 68, 39
1, 86280, Note_on_c, 0, 68, 0
1, 86280, Note_on_c, 0, 69, 39
1, 86400, Tempo, 408163
1, 86400, Note_on_c, 0, 69, 0
1, 86400, Note_on_c, 0, 59, 0
1, 86400, Note_on_c, 0, 56, 0
1, 86400, Note_on_c, 0, 52, 0
1, 86400, Note_on_c, 0, 71, 42
1, 86400, Note_on_c, 0, 40, 27
1, 86400, Note_on_c, 0, 52, 32
1, 86451, Control_c, 0, 64, 127
1, 86520, Note_on_c, 0, 71, 0
1, 86520, Note_on_c, 0, 68, 38
1, 86640, Tempo, 459770
1, 86640, Note_on_c, 0, 68, 0
1, 86640, Note_on_c, 0, 64, 38
1, 86820, Note_on_c, 0, 64, 0
1, 86880, Tempo, 428571
1, 86880, Note_on_c, 0, 52, 0
1, 86880, Note_on_c, 0, 40, 0
1, 86880, Note_on_c, 0, 62, 31
1, 86880, Note_on_c, 0, 59, 25
1, 86880, Note_on_c, 0, 52, 25
1, 86883, Control_c, 0, 64, 0
1, 87000, Tempo, 410959
1, 87000, Note_on_c, 0, 71, 46
1, 87006, Control_c, 0, 64, 127
1, 87120, Note_on_c, 0, 71, 0
1, 87120, Note_on_c, 0, 68, 47
1, 87240, Note_on_c, 0, 68, 0
1, 87240, Note_on_c, 0, 64, 47
1, 87360, Tempo, 406780
1, 87360, Note_on_c, 0, 64, 0
1, 87360, Note_on_c, 0, 62, 0
1, 87360, Note_on_c, 0, 59, 0
1, 87360, Note_on_c, 0, 52, 0
1, 87360, Note_on_c, 0, 72, 53
1, 87367, Control_c, 0, 64, 0
1, 87446, Control_c, 0, 64, 127
1, 87480, Note_on_c, 0, 72, 0
1, 87480, Note_on_c, 0, 69, 48
1, 87600, Tempo, 458015
1, 87600, Note_on_c, 0, 69, 0
1, 87600, Note_on_c, 0, 64, 48
1, 87780, Note_on_c, 0, 64, 0
1, 87840, Tempo, 428571
1, 87840, Note_on_c, 0, 52, 32
1, 87840, Note_on_c, 0, 57, 32
1, 87840, Note_on_c, 0, 60, 38
1, 87844, Control_c, 0, 64, 0
1, 87960, Tempo, 412371
1, 87960, Note_on_c, 0, 72, 53
1, 88000, Control_c, 0, 64, 127
1, 88080, Note_on_c, 0, 72, 0
1, 88080, Note_on_c, 0, 69, 54
1, 88200, Note_on_c, 0, 69, 0
1, 88200, Note_on_c, 0, 64, 54
1, 88320, Tempo, 408163
1, 88320, Note_on_c, 0, 64, 0
1, 88320, Note_on_c, 0, 52, 0
1, 88320, Note_on_c, 0, 57, 0
1, 88320, Note_on_c, 0, 60, 0
1, 88320, Note_on_c, 0, 69, 60
1, 88320, Note_on_c, 0, 40, 33
1, 88320, Note_on_c, 0, 52, 38
1, 88325, Control_c, 0, 64, 0
1, 88366, Control_c, 0, 64, 127
1, 88440, Note_on_c, 0, 69, 0
1, 88440, Note_on_c, 0, 66, 56
1, 88560, Tempo, 458015
1, 88560, Note_on_c, 0, 66, 0
1, 88560, Note_on_c, 0, 63, 56
1, 88740, Note_on_c, 0, 63, 0
1, 88800, Tempo, 428571
1, 88800, Note_on_c, 0, 52, 0
1, 88800, Note_on_c, 0, 40, 0
1, 88800, Note_on_c, 0, 57, 37
1, 88800, Note_on_c, 0, 60, 45
1, 88800, Note_on_c, 0, 54, 37
1, 88800, Note_on_c, 0, 52, 37
1, 88807, Control_c, 0, 64, 0
1, 88920, Tempo, 413793
1, 88920, Note_on_c, 0, 69, 58
1, 88966, Control_c, 0, 64, 127
1, 89040, Note_on_c, 0, 69, 0
1, 89040, Note_on_c, 0, 66, 58
1, 89160, Note_on_c, 0, 66, 0
1, 89160, Note_on_c, 0, 63, 58
1, 89280, Tempo, 444444
1, 89280, Note_on_c, 0, 63, 0
1, 89280, Note_on_c, 0, 54, 0
1, 89280, Note_on_c, 0, 57, 0
1, 89280, Note_on_c, 0, 60, 0
1, 89280, Note_on_c, 0, 52, 0
1, 89280, Note_on_c, 0, 71, 71
1, 89286, Control_c, 0, 64, 0
1, 89349, Control_c, 0, 64, 127
1, 89400, Note_on_c, 0, 71, 0
1, 89400, Note_on_c, 0, 68, 59
1, 89520, Tempo, 441176
1, 89520, Note_on_c, 0, 68, 0
1, 89520, Note_on_c, 0, 64, 60
1, 89700, Note_on_c, 0, 64, 0
1, 89760, Tempo, 454545
1, 89760, Note_on_c, 0, 52, 57
1, 89760, Note_on_c, 0, 56, 63
1, 89760, Note_on_c, 0, 59, 78
1, 89769, Control_c, 0, 64, 0
1, 89834, Control_c, 0, 64, 127
1, 90000, Tempo, 452830
1, 90000, Note_on_c, 0, 59, 0
1, 90000, Note_on_c, 0, 56, 0
1, 90000, Note_on_c, 0, 52, 0
1, 90000, Note_on_c, 0, 64, 79
1, 90000, Note_on_c, 0, 40, 57
1, 90000, Note_on_c, 0, 52, 63
1, 90240, Tempo, 441176
1, 90240, Note_on_c, 0, 52, 0
1, 90240, Note_on_c, 0, 40, 0
1, 90240, Note_on_c, 0, 64, 0
1, 90240, Note_on_c, 0, 59, 71
1, 90240, Note_on_c, 0, 64, 71
1, 90240, Note_on_c, 0, 71, 79
1, 90240, Note_on_c, 0, 44, 59
1, 90240, Note_on_c, 0, 52, 66
1, 90245, Control_c, 0, 64, 0
1, 90367, Control_c, 0, 64, 127
1, 90960, Tempo, 430108
1, 90960, Note_on_c, 0, 52, 0
1, 90960, Note_on_c, 0, 71, 0
1, 90960, Note_on_c, 0, 59, 0
1, 90960, Note_on_c, 0, 64, 0
1, 90960, Note_on_c, 0, 44, 0
1, 90960, Note_on_c, 0, 60, 69
1, 90960, Note_on_c, 0, 64, 69
1, 90960, Note_on_c, 0, 72, 76
1, 90960, Note_on_c, 0, 45, 57
1, 90960, Note_on_c, 0, 52, 64
1, 91200, Tempo, 441176
1, 91200, Note_on_c, 0, 52, 0
1, 91200, Note_on_c, 0, 72, 0
1, 91200, Note_on_c, 0, 60, 0
1, 91200, Note_on_c, 0, 64, 0
1, 91200, Note_on_c, 0, 45, 0
1, 91200, Note_on_c, 0, 62, 71
1, 91200, Note_on_c, 0, 64, 71
1, 91200, Note_on_c, 0, 74, 79
1, 91200, Note_on_c, 0, 47, 59
1, 91200, Note_on_c, 0, 52, 66
1, 91210, Control_c, 0, 64, 0
1, 91680, Note_on_c, 0, 52, 0
1, 91680, Note_on_c, 0, 74, 0
1, 91680, Note_on_c, 0, 62, 0
1, 91680, Note_on_c, 0, 64, 0
1, 91680, Note_on_c, 0, 47, 0
1, 91680, Note_on_c, 0, 60, 71
1, 91680, Note_on_c, 0, 64, 71
1, 91680, Note_on_c, 0, 72, 79
1, 91680, Note_on_c, 0, 45, 59
1, 91680, Note_on_c, 0, 52, 66
1, 92160, Tempo, 452830
1, 92160, Note_on_c, 0, 52, 0
1, 92160, Note_on_c, 0, 72, 0
1, 92160, Note_on_c, 0, 60, 0
1, 92160, Note_on_c, 0, 64, 0
1, 92160, Note_on_c, 0, 45, 0
1, 92160, Note_on_c, 0, 65, 71
1, 92160, Note_on_c, 0, 68, 71
1, 92160, Note_on_c, 0, 77, 80
1, 92160, Note_on_c, 0, 50, 59
1, 92160, Note_on_c, 0, 52, 66
1, 92280, Note_on_c, 0, 52, 0
1, 92280, Note_on_c, 0, 77, 0
1, 92280, Note_on_c, 0, 65, 0
1, 92280, Note_on_c, 0, 68, 0
1, 92280, Note_on_c, 0, 50, 0
1, 92520, Note_on_c, 0, 64, 71
1, 92520, Note_on_c, 0, 68, 71
1, 92520, Note_on_c, 0, 76, 80
1, 92520, Note_on_c, 0, 48, 59
1, 92520, Note_on_c, 0, 52, 66
1, 92610, Note_on_c, 0, 52, 0
1, 92610, Note_on_c, 0, 76, 0
1, 92610, Note_on_c, 0, 64, 0
1, 92610, Note_on_c, 0, 68, 0
1, 92610, Note_on_c, 0, 48, 0
1, 92640, Tempo, 441176
1, 92640, Note_on_c, 0, 62, 76
1, 92640, Note_on_c, 0, 68, 76
1, 92640, Note_on_c, 0, 74, 86
1, 92640, Note_on_c, 0, 47, 64
1, 92640, Note_on_c, 0, 52, 73
1, 93600, Tempo, 431655
1, 93600, Note_on_c, 0, 52, 0
1, 93600, Note_on_c, 0, 74, 0
1, 93600, Note_on_c, 0, 62, 0
1, 93600, Note_on_c, 0, 68, 0
1, 93600, Note_on_c, 0, 47, 0
1, 93600, Note_on_c, 0, 65, 71
1, 93600, Note_on_c, 0, 68, 71
1, 93600, Note_on_c, 0, 77, 80
1, 93600, Note_on_c, 0, 50, 62
1, 93600, Note_on_c, 0, 62, 70
1, 93600, Note_on_c, 0, 52, 62
1, 94080, Tempo, 441176
1, 94080, Note_on_c, 0, 52, 0
1, 94080, Note_on_c, 0, 68, 0
1, 94080, Note_on_c, 0, 77, 0
1, 94080, Note_on_c, 0, 65, 0
1, 94080, Note_on_c, 0, 62, 0
1, 94080, Note_on_c, 0, 50, 0
1, 94080, Note_on_c, 0, 64, 71
1, 94080, Note_on_c, 0, 69, 71
1, 94080, Note_on_c, 0, 76, 79
1, 94080, Note_on_c, 0, 48, 62
1, 94080, Note_on_c, 0, 52, 62
1, 94080, Note_on_c, 0, 60, 70
1, 94560, Note_on_c, 0, 60, 0
1, 94560, Note_on_c, 0, 69, 0
1, 94560, Note_on_c, 0, 76, 0
1, 94560, Note_on_c, 0, 64, 0
1, 94560, Note_on_c, 0, 52, 0
1, 94560, Note_on_c, 0, 48, 0
1, 94560, Note_on_c, 0, 60, 71
1, 94560, Note_on_c, 0, 64, 71
1, 94560, Note_on_c, 0, 72, 79
1, 94560, Note_on_c, 0, 52, 59
1, 94560, Note_on_c, 0, 45, 59
1, 94560, Note_on_c, 0, 57, 66
1, 94600, Tempo, 436364
1, 95040, Tempo, 439560
1, 95040, Note_on_c, 0, 57, 0
1, 95040, Note_on_c, 0, 64, 0
1, 95040, Note_on_c, 0, 72, 0
1, 95040, Note_on_c, 0, 60, 0
1, 95040, Note_on_c, 0, 45, 0
1, 95040, Note_on_c, 0, 52, 0
1, 95040, Note_on_c, 0, 59, 75
1, 95040, Note_on_c, 0, 64, 71
1, 95040, Note_on_c, 0, 71, 75
1, 95040, Note_on_c, 0, 52, 62
1, 95040, Note_on_c, 0, 44, 62
1, 95040, Note_on_c, 0, 56, 69
1, 95280, Tempo, 456274
1, 95520, Tempo, 447761
1, 95520, Note_on_c, 0, 56, 0
1, 95520, Note_on_c, 0, 64, 0
1, 95520, Note_on_c, 0, 71, 0
1, 95520, Note_on_c, 0, 59, 0
1, 95520, Note_on_c, 0, 44, 0
1, 95520, Note_on_c, 0, 52, 0
1, 95520, Note_on_c, 0, 60, 66
1, 95520, Note_on_c, 0, 63, 73
1, 95520, Note_on_c, 0, 69, 76
1, 95520, Note_on_c, 0, 52, 57
1, 95520, Note_on_c, 0, 42, 57
1, 95520, Note_on_c, 0, 54, 70
1, 95591, Control_c, 0, 64, 127
1, 95880, Tempo, 481928
1, 95880, Note_on_c, 0, 69, 0
1, 95880, Note_on_c, 0, 71, 76
1, 96000, Tempo, 468750
1, 96000, Note_on_c, 0, 71, 0
1, 96000, Note_on_c, 0, 54, 0
1, 96000, Note_on_c, 0, 52, 0
1, 96000, Note_on_c, 0, 60, 0
1, 96000, Note_on_c, 0, 63, 0
1, 96000, Note_on_c, 0, 42, 0
1, 96000, Note_on_c, 0, 60, 66
1, 96000, Note_on_c, 0, 63, 66
1, 96000, Note_on_c, 0, 69, 75
1, 96000, Note_on_c, 0, 40, 56
1, 96000, Note_on_c, 0, 52, 67
1, 96006, Control_c, 0, 64, 0
1, 96183, Control_c, 0, 64, 127
1, 96480, Tempo, 472441
1, 96480, Note_on_c, 0, 52, 0
1, 96480, Note_on_c, 0, 40, 0
1, 96480, Note_on_c, 0, 28, 66
1, 96480, Note_on_c, 0, 40, 76
1, 96960, Tempo, 454545
1, 96960, Note_on_c, 0, 60, 0
1, 96960, Note_on_c, 0, 69, 0
1, 96960, Note_on_c, 0, 63, 0
1, 96960, Note_on_c, 0, 59, 65
1, 96960, Note_on_c, 0, 64, 65
1, 96960, Note_on_c, 0, 68, 73
1, 96970, Control_c, 0, 64, 0
1, 97416, Note_on_c, 0, 68, 0
1, 97416, Note_on_c, 0, 59, 0
1, 97416, Note_on_c, 0, 64, 0
1, 97440, Tempo, 461538
1, 97440, Note_on_c, 0, 28, 0
1, 97440, Note_on_c, 0, 40, 0
1, 97440, Note_on_c, 0, 64, 79
1, 97440, Note_on_c, 0, 40, 56
1, 97440, Note_on_c, 0, 52, 63
1, 97920, Tempo, 446097
1, 97920, Note_on_c, 0, 52, 0
1, 97920, Note_on_c, 0, 40, 0
1, 97920, Note_on_c, 0, 64, 0
1, 97920, Note_on_c, 0, 59, 71
1, 97920, Note_on_c, 0, 64, 71
1, 97920, Note_on_c, 0, 71, 79
1, 97920, Note_on_c, 0, 50, 56
1, 97920, Note_on_c, 0, 52, 56
1, 97920, Note_on_c, 0, 56, 66
1, 98047, Control_c, 0, 64, 127
1, 98640, Tempo, 430108
1, 98640, Note_on_c, 0, 56, 0
1, 98640, Note_on_c, 0, 64, 0
1, 98640, Note_on_c, 0, 71, 0
1, 98640, Note_on_c, 0, 59, 0
1, 98640, Note_on_c, 0, 52, 0
1, 98640, Note_on_c, 0, 50, 0
1, 98640, Note_on_c, 0, 60, 69
1, 98640, Note_on_c, 0, 69, 69
1, 98640, Note_on_c, 0, 72, 76
1, 98640, Note_on_c, 0, 48, 54
1, 98640, Note_on_c, 0, 52, 54
1, 98640, Note_on_c, 0, 57, 64
1, 98880, Tempo, 441176
1, 98880, Note_on_c, 0, 57, 0
1, 98880, Note_on_c, 0, 69, 0
1, 98880, Note_on_c, 0, 72, 0
1, 98880, Note_on_c, 0, 60, 0
1, 98880, Note_on_c, 0, 52, 0
1, 98880, Note_on_c, 0, 48, 0
1, 98880, Note_on_c, 0, 62, 71
1, 98880, Note_on_c, 0, 68, 71
1, 98880, Note_on_c, 0, 74, 79
1, 98880, Note_on_c, 0, 47, 56
1, 98880, Note_on_c, 0, 52, 56
1, 98880, Note_on_c, 0, 59, 66
1, 98890, Control_c, 0, 64, 0
1, 99358, Note_on_c, 0, 62, 0
1, 99360, Note_on_c, 0, 74, 0
1, 99360, Note_on_c, 0, 47, 0
1, 99360, Note_on_c, 0, 68, 0
1, 99360, Note_on_c, 0, 59, 0
1, 99360, Note_on_c, 0, 52, 0
1, 99360, Note_on_c, 0, 65, 71
1, 99360, Note_on_c, 0, 68, 71
1, 99360, Note_on_c, 0, 77, 79
1, 99360, Note_on_c, 0, 50, 56
1, 99360, Note_on_c, 0, 52, 56
1, 99360, Note_on_c, 0, 62, 66
1, 99840, Tempo, 452830
1, 99840, Note_on_c, 0, 62, 0
1, 99840, Note_on_c, 0, 68, 0
1, 99840, Note_on_c, 0, 77, 0
1, 99840, Note_on_c, 0, 65, 0
1, 99840, Note_on_c, 0, 52, 0
1, 99840, Note_on_c, 0, 50, 0
1, 99840, Note_on_c, 0, 69, 71
1, 99840, Note_on_c, 0, 64, 71
1, 99840, Note_on_c, 0, 76, 80
1, 99840, Note_on_c, 0, 48, 56
1, 99840, Note_on_c, 0, 52, 56
1, 99840, Note_on_c, 0, 60, 66
1, 99960, Note_on_c, 0, 60, 0
1, 99960, Note_on_c, 0, 64, 0
1, 99960, Note_on_c, 0, 76, 0
1, 99960, Note_on_c, 0, 69, 0
1, 99960, Note_on_c, 0, 52, 0
1, 99960, Note_on_c, 0, 48, 0
1, 100200, Note_on_c, 0, 69, 71
1, 100200, Note_on_c, 0, 62, 71
1, 100200, Note_on_c, 0, 74, 80
1, 100200, Note_on_c, 0, 47, 56
1, 100200, Note_on_c, 0, 52, 56
1, 100200, Note_on_c, 0, 59, 66
1, 100290, Note_on_c, 0, 59, 0
1, 100290, Note_on_c, 0, 62, 0
1, 100290, Note_on_c, 0, 74, 0
1, 100290, Note_on_c, 0, 69, 0
1, 100290, Note_on_c, 0, 52, 0
1, 100290, Note_on_c, 0, 47, 0
1, 100320, Tempo, 441176
1, 100320, Note_on_c, 0, 60, 71
1, 100320, Note_on_c, 0, 69, 76
1, 100320, Note_on_c, 0, 72, 84
1, 100320, Note_on_c, 0, 45, 57
1, 100320, Note_on_c, 0, 52, 57
1, 100320, Note_on_c, 0, 57, 68
1, 101280, Tempo, 466926
1, 101280, Note_on_c, 0, 57, 0
1, 101280, Note_on_c, 0, 69, 0
1, 101280, Note_on_c, 0, 72, 0
1, 101280, Note_on_c, 0, 60, 0
1, 101280, Note_on_c, 0, 52, 0
1, 101280, Note_on_c, 0, 45, 0
1, 101280, Note_on_c, 0, 66, 75
1, 101280, Note_on_c, 0, 72, 75
1, 101280, Note_on_c, 0, 64, 75
1, 101280, Note_on_c, 0, 76, 84
1, 101280, Note_on_c, 0, 45, 74
1, 101280, Note_on_c, 0, 33, 65
1, 101760, Tempo, 480000
1, 101760, Note_on_c, 0, 33, 0
1, 101760, Note_on_c, 0, 72, 0
1, 101760, Note_on_c, 0, 64, 0
1, 101760, Note_on_c, 0, 66, 0
1, 101760, Note_on_c, 0, 45, 0
1, 101760, Note_on_c, 0, 76, 0
1, 101760, Note_on_c, 0, 67, 75
1, 101760, Note_on_c, 0, 71, 75
1, 101760, Note_on_c, 0, 62, 75
1, 101760, Note_on_c, 0, 74, 83
1, 101760, Note_on_c, 0, 35, 65
1, 101760, Note_on_c, 0, 47, 74
1, 102240, Tempo, 465116
1, 102240, Note_on_c, 0, 47, 0
1, 102240, Note_on_c, 0, 71, 0
1, 102240, Note_on_c, 0, 62, 0
1, 102240, Note_on_c, 0, 67, 0
1, 102240, Note_on_c, 0, 35, 0
1, 102240, Note_on_c, 0, 74, 0
1, 102240, Note_on_c, 0, 60, 75
1, 102240, Note_on_c, 0, 69, 75
1, 102240, Note_on_c, 0, 64, 75
1, 102240, Note_on_c, 0, 72, 83
1, 102240, Note_on_c, 0, 36, 62
1, 102240, Note_on_c, 0, 48, 69
1, 102720, Tempo, 474308
1, 102720, Note_on_c, 0, 48, 0
1, 102720, Note_on_c, 0, 69, 0
1, 102720, Note_on_c, 0, 64, 0
1, 102720, Note_on_c, 0, 60, 0
1, 102720, Note_on_c, 0, 36, 0
1, 102720, Note_on_c, 0, 72, 0
1, 102720, Note_on_c, 0, 59, 74
1, 102720, Note_on_c, 0, 67, 76
1, 102720, Note_on_c, 0, 62, 74
1, 102720, Note_on_c, 0, 71, 80
1, 102720, Note_on_c, 0, 38, 62
1, 102720, Note_on_c, 0, 50, 69
1, 103200, Tempo, 487805
1, 103200, Note_on_c, 0, 50, 0
1, 103200, Note_on_c, 0, 67, 0
1, 103200, Note_on_c, 0, 62, 0
1, 103200, Note_on_c, 0, 59, 0
1, 103200, Note_on_c, 0, 38, 0
1, 103200, Note_on_c, 0, 71, 0
1, 103200, Note_on_c, 0, 66, 76
1, 103200, Note_on_c, 0, 57, 76
1, 103200, Note_on_c, 0, 60, 76
1, 103200, Note_on_c, 0, 69, 85
1, 103200, Note_on_c, 0, 38, 65
1, 103200, Note_on_c, 0, 50, 74
1, 103264, Control_c, 0, 64, 127
1, 103560, Tempo, 517241
1, 103560, Note_on_c, 0, 69, 0
1, 103560, Note_on_c, 0, 59, 78
1, 103560, Note_on_c, 0, 71, 78
1, 103680, Tempo, 451128
1, 103680, Note_on_c, 0, 71, 0
1, 103680, Note_on_c, 0, 57, 0
1, 103680, Note_on_c, 0, 50, 0
1, 103680, Note_on_c, 0, 60, 0
1, 103680, Note_on_c, 0, 66, 0
1, 103680, Note_on_c, 0, 59, 0
1, 103680, Note_on_c, 0, 38, 0
1, 103680, Note_on_c, 0, 66, 69
1, 103680, Note_on_c, 0, 57, 69
1, 103680, Note_on_c, 0, 60, 69
1, 103680, Note_on_c, 0, 69, 77
1, 103680, Note_on_c, 0, 31, 63
1, 103680, Note_on_c, 0, 43, 73
1, 103686, Control_c, 0, 64, 0
1, 103920, Control_c, 0, 64, 127
1, 104160, Tempo, 468750
1, 104160, Note_on_c, 0, 43, 0
1, 104160, Note_on_c, 0, 31, 0
1, 104160, Note_on_c, 0, 43, 77
1, 104160, Note_on_c, 0, 55, 90
1, 104640, Tempo, 483871
1, 104640, Note_on_c, 0, 60, 0
1, 104640, Note_on_c, 0, 69, 0
1, 104640, Note_on_c, 0, 66, 0
1, 104640, Note_on_c, 0, 57, 0
1, 104640, Note_on_c, 0, 59, 68
1, 104640, Note_on_c, 0, 62, 68
1, 104640, Note_on_c, 0, 67, 76
1, 104650, Control_c, 0, 64, 0
1, 105096, Note_on_c, 0, 67, 0
1, 105096, Note_on_c, 0, 59, 0
1, 105096, Note_on_c, 0, 62, 0
1, 105120, Tempo, 521739
1, 105120, Note_on_c, 0, 55, 0
1, 105120, Note_on_c, 0, 43, 0
1, 105120, Note_on_c, 0, 67, 88
1, 105120, Note_on_c, 0, 41, 69
1, 105120, Note_on_c, 0, 53, 78
1, 105600, Tempo, 481928
1, 105600, Note_on_c, 0, 53, 0
1, 105600, Note_on_c, 0, 41, 0
1, 105600, Note_on_c, 0, 67, 0
1, 105600, Note_on_c, 0, 67, 75
1, 105600, Note_on_c, 0, 76, 76
1, 105600, Note_on_c, 0, 79, 88
1, 105600, Note_on_c, 0, 40, 66
1, 105600, Note_on_c, 0, 43, 66
1, 105600, Note_on_c, 0, 48, 66
1, 105600, Note_on_c, 0, 52, 70
1, 105727, Control_c, 0, 64, 127
1, 106080, Tempo, 465116
1, 106080, Note_on_c, 0, 52, 0
1, 106080, Note_on_c, 0, 43, 0
1, 106080, Note_on_c, 0, 40, 0
1, 106080, Note_on_c, 0, 48, 0
1, 106080, Note_on_c, 0, 52, 66
1, 106080, Note_on_c, 0, 55, 66
1, 106080, Note_on_c, 0, 60, 66
1, 106080, Note_on_c, 0, 64, 66
1, 106320, Tempo, 439560
1, 106320, Note_on_c, 0, 67, 0
1, 106320, Note_on_c, 0, 76, 0
1, 106320, Note_on_c, 0, 79, 0
1, 106320, Note_on_c, 0, 65, 73
1, 106320, Note_on_c, 0, 74, 73
1, 106320, Note_on_c, 0, 77, 79
1, 106560, Tempo, 452830
1, 106560, Note_on_c, 0, 77, 0
1, 106560, Note_on_c, 0, 65, 0
1, 106560, Note_on_c, 0, 74, 0
1, 106560, Note_on_c, 0, 64, 75
1, 106560, Note_on_c, 0, 72, 75
1, 106560, Note_on_c, 0, 76, 83
1, 107040, Note_on_c, 0, 76, 0
1, 107040, Note_on_c, 0, 64, 0
1, 107040, Note_on_c, 0, 60, 0
1, 107040, Note_on_c, 0, 55, 0
1, 107040, Note_on_c, 0, 52, 0
1, 107040, Note_on_c, 0, 72, 0
1, 107040, Note_on_c, 0, 64, 0
1, 107040, Note_on_c, 0, 65, 75
1, 107040, Note_on_c, 0, 74, 75
1, 107040, Note_on_c, 0, 77, 83
1, 107040, Note_on_c, 0, 38, 57
1, 107040, Note_on_c, 0, 50, 69
1, 107050, Control_c, 0, 64, 0
1, 107520, Tempo, 466926
1, 107520, Note_on_c, 0, 50, 0
1, 107520, Note_on_c, 0, 77, 0
1, 107520, Note_on_c, 0, 65, 0
1, 107520, Note_on_c, 0, 74, 0
1, 107520, Note_on_c, 0, 38, 0
1, 107520, Note_on_c, 0, 72, 75
1, 107520, Note_on_c, 0, 64, 75
1, 107520, Note_on_c, 0, 76, 84
1, 107520, Note_on_c, 0, 43, 48
1, 107520, Note_on_c, 0, 55, 57
1, 108000, Tempo, 447761
1, 108000, Note_on_c, 0, 55, 0
1, 108000, Note_on_c, 0, 76, 0
1, 108000, Note_on_c, 0, 72, 0
1, 108000, Note_on_c, 0, 64, 0
1, 108000, Note_on_c, 0, 43, 0
1, 108000, Note_on_c, 0, 62, 76
1, 108000, Note_on_c, 0, 71, 76
1, 108000, Note_on_c, 0, 74, 84
1, 108000, Note_on_c, 0, 31, 48
1, 108000, Note_on_c, 0, 43, 57
1, 108085, Control_c, 0, 64, 127
1, 108360, Note_on_c, 0, 74, 0
1, 108360, Note_on_c, 0, 62, 0
1, 108360, Note_on_c, 0, 71, 0
1, 108360, Note_on_c, 0, 60, 73
1, 108360, Note_on_c, 0, 69, 73
1, 108360, Note_on_c, 0, 72, 79
1, 108480, Tempo, 452830
1, 108480, Note_on_c, 0, 72, 0
1, 108480, Note_on_c, 0, 60, 0
1, 108480, Note_on_c, 0, 69, 0
1, 108480, Note_on_c, 0, 62, 73
1, 108480, Note_on_c, 0, 71, 73
1, 108480, Note_on_c, 0, 74, 83
1, 108489, Control_c, 0, 64, 0
1, 108720, Note_on_c, 0, 31, 0
1, 108720, Note_on_c, 0, 43, 0
1, 108720, Note_on_c, 0, 41, 59
1, 108720, Note_on_c, 0, 53, 69
1, 108960, Tempo, 459770
1, 108960, Note_on_c, 0, 53, 0
1, 108960, Note_on_c, 0, 71, 0
1, 108960, Note_on_c, 0, 74, 0
1, 108960, Note_on_c, 0, 62, 0
1, 108960, Note_on_c, 0, 41, 0
1, 108960, Note_on_c, 0, 65, 74
1, 108960, Note_on_c, 0, 67, 89
1, 108960, Note_on_c, 0, 40, 61
1, 108960, Note_on_c, 0, 52, 73
1, 109140, Note_on_c, 0, 52, 0
1, 109140, Note_on_c, 0, 40, 0
1, 109200, Note_on_c, 0, 38, 59
1, 109200, Note_on_c, 0, 50, 69
1, 109380, Note_on_c, 0, 50, 0
1, 109380, Note_on_c, 0, 38, 0
1, 109440, Tempo, 458015
1, 109440, Note_on_c, 0, 67, 0
1, 109440, Note_on_c, 0, 65, 0
1, 109440, Note_on_c, 0, 72, 76
1, 109440, Note_on_c, 0, 64, 75
1, 109440, Note_on_c, 0, 76, 85
1, 109440, Note_on_c, 0, 36, 66
1, 109440, Note_on_c, 0, 48, 71
1, 109602, Control_c, 0, 64, 127
1, 109920, Note_on_c, 0, 48, 0
1, 109920, Note_on_c, 0, 36, 0
1, 109920, Note_on_c, 0, 48, 66
1, 109920, Note_on_c, 0, 52, 66
1, 109920, Note_on_c, 0, 57, 66
1, 109920, Note_on_c, 0, 60, 66
1, 109960, Tempo, 442804
1, 110160, Note_on_c, 0, 72, 0
1, 110160, Note_on_c, 0, 76, 0
1, 110160, Note_on_c, 0, 64, 0
1, 110160, Note_on_c, 0, 62, 75
1, 110160, Note_on_c, 0, 71, 75
1, 110160, Note_on_c, 0, 74, 83
1, 110280, Note_on_c, 0, 74, 0
1, 110280, Note_on_c, 0, 62, 0
1, 110280, Note_on_c, 0, 71, 0
1, 110400, Tempo, 449438
1, 110400, Note_on_c, 0, 60, 67
1, 110400, Note_on_c, 0, 69, 67
1, 110400, Note_on_c, 0, 72, 78
1, 110520, Note_on_c, 0, 72, 0
1, 110520, Note_on_c, 0, 60, 0
1, 110520, Note_on_c, 0, 69, 0
1, 110640, Note_on_c, 0, 62, 68
1, 110640, Note_on_c, 0, 71, 68
1, 110640, Note_on_c, 0, 74, 80
1, 110760, Note_on_c, 0, 74, 0
1, 110760, Note_on_c, 0, 62, 0
1, 110760, Note_on_c, 0, 71, 0
1, 110880, Tempo, 458015
1, 110880, Note_on_c, 0, 60, 0
1, 110880, Note_on_c, 0, 48, 0
1, 110880, Note_on_c, 0, 57, 0
1, 110880, Note_on_c, 0, 52, 0
1, 110880, Note_on_c, 0, 64, 70
1, 110880, Note_on_c, 0, 72, 70
1, 110880, Note_on_c, 0, 76, 83
1, 110880, Note_on_c, 0, 35, 67
1, 110880, Note_on_c, 0, 47, 71
1, 110890, Control_c, 0, 64, 0
1, 111000, Note_on_c, 0, 76, 0
1, 111000, Note_on_c, 0, 64, 0
1, 111000, Note_on_c, 0, 72, 0
1, 111120, Note_on_c, 0, 62, 68
1, 111120, Note_on_c, 0, 71, 68
1, 111120, Note_on_c, 0, 74, 80
1, 111240, Note_on_c, 0, 74, 0
1, 111240, Note_on_c, 0, 62, 0
1, 111240, Note_on_c, 0, 71, 0
1, 111360, Tempo, 461538
1, 111360, Note_on_c, 0, 35, 0
1, 111360, Note_on_c, 0, 47, 0
1, 111360, Note_on_c, 0, 69, 75
1, 111360, Note_on_c, 0, 60, 75
1, 111360, Note_on_c, 0, 72, 84
1, 111360, Note_on_c, 0, 40, 57
1, 111360, Note_on_c, 0, 52, 69
1, 111840, Tempo, 451128
1, 111840, Note_on_c, 0, 52, 0
1, 111840, Note_on_c, 0, 72, 0
1, 111840, Note_on_c, 0, 69, 0
1, 111840, Note_on_c, 0, 60, 0
1, 111840, Note_on_c, 0, 40, 0
1, 111840, Note_on_c, 0, 59, 76
1, 111840, Note_on_c, 0, 68, 76
1, 111840, Note_on_c, 0, 71, 84
1, 111840, Note_on_c, 0, 28, 57
1, 111840, Note_on_c, 0, 40, 69
1, 111863, Control_c, 0, 64, 127
1, 112200, Note_on_c, 0, 71, 0
1, 112200, Note_on_c, 0, 59, 0
1, 112200, Note_on_c, 0, 68, 0
1, 112200, Note_on_c, 0, 57, 68
1, 112200, Note_on_c, 0, 66, 68
1, 112200, Note_on_c, 0, 69, 76
1, 112320, Tempo, 446097
1, 112320, Note_on_c, 0, 69, 0
1, 112320, Note_on_c, 0, 57, 0
1, 112320, Note_on_c, 0, 66, 0
1, 112320, Note_on_c, 0, 59, 68
1, 112320, Note_on_c, 0, 68, 68
1, 112320, Note_on_c, 0, 71, 78
1, 112330, Control_c, 0, 64, 0
1, 112560, Note_on_c, 0, 28, 0
1, 112560, Note_on_c, 0, 40, 0
1, 112560, Note_on_c, 0, 38, 63
1, 112560, Note_on_c, 0, 50, 76
1, 112800, Tempo, 468750
1, 112800, Note_on_c, 0, 50, 0
1, 112800, Note_on_c, 0, 68, 0
1, 112800, Note_on_c, 0, 71, 0
1, 112800, Note_on_c, 0, 59, 0
1, 112800, Note_on_c, 0, 38, 0
1, 112800, Note_on_c, 0, 62, 75
1, 112800, Note_on_c, 0, 64, 84
1, 112800, Note_on_c, 0, 36, 67
1, 112800, Note_on_c, 0, 48, 79
1, 112840, Tempo, 466926
1, 112880, Tempo, 472441
1, 112920, Tempo, 478088
1, 112960, Tempo, 483871
1, 112980, Note_on_c, 0, 48, 0
1, 112980, Note_on_c, 0, 36, 0
1, 113000, Tempo, 489796
1, 113040, Tempo, 495868
1, 113040, Note_on_c, 0, 35, 63
1, 113040, Note_on_c, 0, 47, 76
1, 113080, Tempo, 502092
1, 113120, Tempo, 508475
1, 113160, Tempo, 515021
1, 113200, Tempo, 521739
1, 113220, Note_on_c, 0, 47, 0
1, 113220, Note_on_c, 0, 35, 0
1, 113240, Tempo, 528634
1, 113280, Tempo, 451128
1, 113280, Note_on_c, 0, 64, 0
1, 113280, Note_on_c, 0, 62, 0
1, 113280, Note_on_c, 0, 57, 75
1, 113280, Note_on_c, 0, 60, 75
1, 113280, Note_on_c, 0, 64, 75
1, 113280, Note_on_c, 0, 69, 83
1, 113280, Note_on_c, 0, 33, 65
1, 113280, Note_on_c, 0, 45, 76
1, 113322, Control_c, 0, 64, 127
1, 113520, Tempo, 449438
1, 113520, Note_on_c, 0, 45, 0
1, 113520, Note_on_c, 0, 33, 0
1, 113520, Note_on_c, 0, 40, 57
1, 113520, Note_on_c, 0, 52, 69
1, 113760, Tempo, 447761
1, 113760, Note_on_c, 0, 52, 0
1, 113760, Note_on_c, 0, 40, 0
1, 113760, Note_on_c, 0, 36, 60
1, 113760, Note_on_c, 0, 48, 74
1, 114000, Tempo, 431655
1, 114000, Note_on_c, 0, 48, 0
1, 114000, Note_on_c, 0, 60, 0
1, 114000, Note_on_c, 0, 64, 0
1, 114000, Note_on_c, 0, 57, 0
1, 114000, Note_on_c, 0, 36, 0
1, 114000, Note_on_c, 0, 69, 0
1, 114000, Note_on_c, 0, 59, 73
1, 114000, Note_on_c, 0, 64, 73
1, 114000, Note_on_c, 0, 71, 79
1, 114000, Note_on_c, 0, 40, 57
1, 114000, Note_on_c, 0, 52, 69
1, 114240, Tempo, 447761
1, 114240, Note_on_c, 0, 52, 0
1, 114240, Note_on_c, 0, 71, 0
1, 114240, Note_on_c, 0, 59, 0
1, 114240, Note_on_c, 0, 64, 0
1, 114240, Note_on_c, 0, 40, 0
1, 114240, Note_on_c, 0, 60, 75
1, 114240, Note_on_c, 0, 69, 75
1, 114240, Note_on_c, 0, 72, 83
1, 114240, Note_on_c, 0, 45, 62
1, 114240, Note_on_c, 0, 57, 75
1, 114250, Control_c, 0, 64, 0
1, 114395, Control_c, 0, 64, 127
1, 114480, Note_on_c, 0, 57, 0
1, 114480, Note_on_c, 0, 45, 0
1, 114480, Note_on_c, 0, 40, 57
1, 114480, Note_on_c, 0, 52, 69
1, 114720, Tempo, 452830
1, 114720, Note_on_c, 0, 52, 0
1, 114720, Note_on_c, 0, 60, 0
1, 114720, Note_on_c, 0, 72, 0
1, 114720, Note_on_c, 0, 69, 0
1, 114720, Note_on_c, 0, 40, 0
1, 114720, Note_on_c, 0, 62, 75
1, 114720, Note_on_c, 0, 71, 75
1, 114720, Note_on_c, 0, 74, 83
1, 114720, Note_on_c, 0, 47, 62
1, 114720, Note_on_c, 0, 59, 75
1, 114730, Control_c, 0, 64, 0
1, 114875, Control_c, 0, 64, 127
1, 114960, Note_on_c, 0, 59, 0
1, 114960, Note_on_c, 0, 47, 0
1, 114960, Note_on_c, 0, 40, 57
1, 114960, Note_on_c, 0, 52, 69
1, 115200, Tempo, 447761
1, 115200, Note_on_c, 0, 52, 0
1, 115200, Note_on_c, 0, 62, 0
1, 115200, Note_on_c, 0, 74, 0
1, 115200, Note_on_c, 0, 71, 0
1, 115200, Note_on_c, 0, 40, 0
1, 115200, Note_on_c, 0, 64, 75
1, 115200, Note_on_c, 0, 72, 75
1, 115200, Note_on_c, 0, 76, 84
1, 115200, Note_on_c, 0, 48, 63
1, 115200, Note_on_c, 0, 60, 76
1, 115209, Control_c, 0, 64, 0
1, 115440, Note_on_c, 0, 60, 0
1, 115440, Note_on_c, 0, 48, 0
1, 115440, Note_on_c, 0, 47, 57
1, 115440, Note_on_c, 0, 59, 69
1, 115680, Tempo, 434783
1, 115680, Note_on_c, 0, 59, 0
1, 115680, Note_on_c, 0, 64, 0
1, 115680, Note_on_c, 0, 76, 0
1, 115680, Note_on_c, 0, 72, 0
1, 115680, Note_on_c, 0, 47, 0
1, 115680, Note_on_c, 0, 67, 79
1, 115680, Note_on_c, 0, 76, 79
1, 115680, Note_on_c, 0, 79, 90
1, 115680, Note_on_c, 0, 48, 58
1, 115680, Note_on_c, 0, 60, 70
1, 115920, Tempo, 448531
1, 115920, Note_on_c, 0, 60, 0
1, 115920, Note_on_c, 0, 48, 0
1, 115920, Note_on_c, 0, 50, 59
1, 115920, Note_on_c, 0, 62, 73
1, 116160, Tempo, 442804
1, 116160, Note_on_c, 0, 62, 0
1, 116160, Note_on_c, 0, 50, 0
1, 116160, Note_on_c, 0, 52, 60
1, 116160, Note_on_c, 0, 64, 74
1, 116400, Note_on_c, 0, 64, 0
1, 116400, Note_on_c, 0, 52, 0
1, 116400, Note_on_c, 0, 43, 56
1, 116400, Note_on_c, 0, 55, 67
1, 116640, Tempo, 422714
1, 116640, Note_on_c, 0, 55, 0
1, 116640, Note_on_c, 0, 67, 0
1, 116640, Note_on_c, 0, 79, 0
1, 116640, Note_on_c, 0, 76, 0
1, 116640, Note_on_c, 0, 43, 0
1, 116640, Note_on_c, 0, 65, 75
1, 116640, Note_on_c, 0, 74, 75
1, 116640, Note_on_c, 0, 77, 84
1, 116640, Note_on_c, 0, 45, 58
1, 116640, Note_on_c, 0, 57, 70
1, 116675, Control_c, 0, 64, 127
1, 116880, Tempo, 442804
1, 116880, Note_on_c, 0, 57, 0
1, 116880, Note_on_c, 0, 45, 0
1, 116880, Note_on_c, 0, 47, 60
1, 116880, Note_on_c, 0, 59, 74
1, 117000, Note_on_c, 0, 65, 0
1, 117000, Note_on_c, 0, 77, 0
1, 117000, Note_on_c, 0, 74, 0
1, 117000, Note_on_c, 0, 64, 71
1, 117000, Note_on_c, 0, 72, 71
1, 117000, Note_on_c, 0, 76, 78
1, 117114, Note_on_c, 0, 76, 0
1, 117114, Note_on_c, 0, 64, 0
1, 117114, Note_on_c, 0, 72, 0
1, 117120, Tempo, 432028
1, 117120, Note_on_c, 0, 47, 0
1, 117120, Note_on_c, 0, 59, 0
1, 117120, Note_on_c, 0, 64, 75
1, 117120, Note_on_c, 0, 72, 75
1, 117120, Note_on_c, 0, 76, 83
1, 117120, Note_on_c, 0, 48, 63
1, 117120, Note_on_c, 0, 60, 76
1, 117127, Control_c, 0, 64, 0
1, 117360, Note_on_c, 0, 60, 0
1, 117360, Note_on_c, 0, 48, 0
1, 117360, Note_on_c, 0, 40, 56
1, 117360, Note_on_c, 0, 52, 67
1, 117600, Note_on_c, 0, 52, 0
1, 117600, Note_on_c, 0, 64, 0
1, 117600, Note_on_c, 0, 76, 0
1, 117600, Note_on_c, 0, 72, 0
1, 117600, Note_on_c, 0, 40, 0
1, 117600, Note_on_c, 0, 62, 75
1, 117600, Note_on_c, 0, 71, 75
1, 117600, Note_on_c, 0, 74, 83
1, 117600, Note_on_c, 0, 42, 57
1, 117600, Note_on_c, 0, 54, 69
1, 117614, Control_c, 0, 64, 127
1, 117640, Tempo, 427320
1, 117840, Tempo, 441176
1, 117840, Note_on_c, 0, 54, 0
1, 117840, Note_on_c, 0, 42, 0
1, 117840, Note_on_c, 0, 44, 58
1, 117840, Note_on_c, 0, 56, 70
1, 117960, Note_on_c, 0, 62, 0
1, 117960, Note_on_c, 0, 74, 0
1, 117960, Note_on_c, 0, 71, 0
1, 117960, Note_on_c, 0, 60, 71
1, 117960, Note_on_c, 0, 69, 71
1, 117960, Note_on_c, 0, 72, 78
1, 118074, Note_on_c, 0, 72, 0
1, 118074, Note_on_c, 0, 60, 0
1, 118074, Note_on_c, 0, 69, 0
1, 118080, Tempo, 452830
1, 118080, Note_on_c, 0, 44, 0
1, 118080, Note_on_c, 0, 56, 0
1, 118080, Note_on_c, 0, 60, 75
1, 118080, Note_on_c, 0, 69, 75
1, 118080, Note_on_c, 0, 72, 83
1, 118080, Note_on_c, 0, 45, 59
1, 118080, Note_on_c, 0, 57, 73
1, 118090, Control_c, 0, 64, 0
1, 118320, Tempo, 446828
1, 118320, Note_on_c, 0, 57, 0
1, 118320, Note_on_c, 0, 45, 0
1, 118320, Note_on_c, 0, 36, 57
1, 118320, Note_on_c, 0, 48, 69
1, 118560, Tempo, 462642
1, 118560, Note_on_c, 0, 48, 0
1, 118560, Note_on_c, 0, 60, 0
1, 118560, Note_on_c, 0, 72, 0
1, 118560, Note_on_c, 0, 69, 0
1, 118560, Note_on_c, 0, 36, 0
1, 118560, Note_on_c, 0, 64, 76
1, 118560, Note_on_c, 0, 72, 76
1, 118560, Note_on_c, 0, 76, 85
1, 118560, Note_on_c, 0, 41, 60
1, 118560, Note_on_c, 0, 53, 74
1, 118624, Control_c, 0, 64, 127
1, 118800, Note_on_c, 0, 53, 0
1, 118800, Note_on_c, 0, 41, 0
1, 118800, Note_on_c, 0, 38, 57
1, 118800, Note_on_c, 0, 50, 69
1, 118920, Tempo, 497925
1, 118920, Note_on_c, 0, 64, 0
1, 118920, Note_on_c, 0, 76, 0
1, 118920, Note_on_c, 0, 72, 0
1, 118920, Note_on_c, 0, 62, 71
1, 118920, Note_on_c, 0, 71, 71
1, 118920, Note_on_c, 0, 74, 78
1, 119040, Tempo, 452830
1, 119040, Note_on_c, 0, 74, 0
1, 119040, Note_on_c, 0, 62, 0
1, 119040, Note_on_c, 0, 50, 0
1, 119040, Note_on_c, 0, 38, 0
1, 119040, Note_on_c, 0, 71, 0
1, 119040, Note_on_c, 0, 60, 69
1, 119040, Note_on_c, 0, 69, 69
1, 119040, Note_on_c, 0, 72, 77
1, 119040, Note_on_c, 0, 40, 62
1, 119040, Note_on_c, 0, 52, 75
1, 119050, Control_c, 0, 64, 0
1, 119280, Note_on_c, 0, 52, 0
1, 119280, Note_on_c, 0, 40, 0
1, 119280, Note_on_c, 0, 39, 57
1, 119280, Note_on_c, 0, 51, 69
1, 119520, Note_on_c, 0, 51, 0
1, 119520, Note_on_c, 0, 39, 0
1, 119520, Note_on_c, 0, 40, 57
1, 119520, Note_on_c, 0, 52, 69
1, 119760, Note_on_c, 0, 52, 0
1, 119760, Note_on_c, 0, 40, 0
1, 119760, Note_on_c, 0, 39, 57
1, 119760, Note_on_c, 0, 51, 69
1, 120000, Note_on_c, 0, 51, 0
1, 120000, Note_on_c, 0, 60, 0
1, 120000, Note_on_c, 0, 72, 0
1, 120000, Note_on_c, 0, 69, 0
1, 120000, Note_on_c, 0, 39, 0
1, 120000, Note_on_c, 0, 59, 68
1, 120000, Note_on_c, 0, 68, 68
1, 120000, Note_on_c, 0, 71, 76
1, 120000, Note_on_c, 0, 40, 60
1, 120000, Note_on_c, 0, 52, 74
1, 120057, Control_c, 0, 64, 127
1, 120240, Note_on_c, 0, 52, 0
1, 120240, Note_on_c, 0, 40, 0
1, 120240, Note_on_c, 0, 38, 57
1, 120240, Note_on_c, 0, 50, 69
1, 120480, Tempo, 445137
1, 120480, Note_on_c, 0, 50, 0
1, 120480, Note_on_c, 0, 59, 0
1, 120480, Note_on_c, 0, 71, 0
1, 120480, Note_on_c, 0, 68, 0
1, 120480, Note_on_c, 0, 38, 0
1, 120480, Note_on_c, 0, 62, 75
1, 120480, Note_on_c, 0, 64, 84
1, 120480, Note_on_c, 0, 35, 57
1, 120480, Note_on_c, 0, 47, 69
1, 120488, Control_c, 0, 64, 0
1, 120617, Control_c, 0, 64, 127
1, 120720, Note_on_c, 0, 47, 0
1, 120720, Note_on_c, 0, 35, 0
1, 120720, Note_on_c, 0, 36, 57
1, 120720, Note_on_c, 0, 48, 69
1, 120960, Tempo, 442804
1, 120960, Note_on_c, 0, 48, 0
1, 120960, Note_on_c, 0, 62, 0
1, 120960, Note_on_c, 0, 64, 0
1, 120960, Note_on_c, 0, 36, 0
1, 120960, Note_on_c, 0, 57, 75
1, 120960, Note_on_c, 0, 60, 75
1, 120960, Note_on_c, 0, 64, 75
1, 120960, Note_on_c, 0, 69, 83
1, 120960, Note_on_c, 0, 33, 65
1, 120960, Note_on_c, 0, 45, 76
1, 120966, Control_c, 0, 64, 0
1, 121023, Control_c, 0, 64, 127
1, 121080, Tempo, 441176
1, 121200, Tempo, 439560
1, 121200, Note_on_c, 0, 45, 0
1, 121200, Note_on_c, 0, 33, 0
1, 121200, Note_on_c, 0, 52, 69
1, 121200, Note_on_c, 0, 40, 57
1, 121320, Tempo, 437956
1, 121440, Tempo, 436364
1, 121440, Note_on_c, 0, 40, 0
1, 121440, Note_on_c, 0, 52, 0
1, 121440, Note_on_c, 0, 36, 60
1, 121440, Note_on_c, 0, 48, 74
1, 121680, Tempo, 424028
1, 121680, Note_on_c, 0, 48, 0
1, 121680, Note_on_c, 0, 60, 0
1, 121680, Note_on_c, 0, 64, 0
1, 121680, Note_on_c, 0, 57, 0
1, 121680, Note_on_c, 0, 36, 0
1, 121680, Note_on_c, 0, 69, 0
1, 121680, Note_on_c, 0, 59, 73
1, 121680, Note_on_c, 0, 64, 73
1, 121680, Note_on_c, 0, 71, 79
1, 121680, Note_on_c, 0, 40, 57
1, 121680, Note_on_c, 0, 52, 69
1, 121920, Tempo, 434783
1, 121920, Note_on_c, 0, 52, 0
1, 121920, Note_on_c, 0, 71, 0
1, 121920, Note_on_c, 0, 59, 0
1, 121920, Note_on_c, 0, 64, 0
1, 121920, Note_on_c, 0, 40, 0
1, 121920, Note_on_c, 0, 60, 75
1, 121920, Note_on_c, 0, 69, 75
1, 121920, Note_on_c, 0, 72, 83
1, 121920, Note_on_c, 0, 45, 62
1, 121920, Note_on_c, 0, 57, 75
1, 121930, Control_c, 0, 64, 0
1, 121994, Control_c, 0, 64, 127
1, 122160, Note_on_c, 0, 57, 0
1, 122160, Note_on_c, 0, 45, 0
1, 122160, Note_on_c, 0, 40, 57
1, 122160, Note_on_c, 0, 52, 69
1, 122280, Note_on_c, 0, 60, 0
1, 122280, Note_on_c, 0, 72, 0
1, 122280, Note_on_c, 0, 69, 0
1, 122280, Note_on_c, 0, 59, 75
1, 122280, Note_on_c, 0, 68, 75
1, 122280, Note_on_c, 0, 71, 83
1, 122400, Note_on_c, 0, 71, 0
1, 122400, Note_on_c, 0, 59, 0
1, 122400, Note_on_c, 0, 52, 0
1, 122400, Note_on_c, 0, 40, 0
1, 122400, Note_on_c, 0, 68, 0
1, 122400, Note_on_c, 0, 60, 75
1, 122400, Note_on_c, 0, 69, 75
1, 122400, Note_on_c, 0, 72, 83
1, 122400, Note_on_c, 0, 45, 62
1, 122400, Note_on_c, 0, 57, 75
1, 122410, Control_c, 0, 64, 0
1, 122497, Control_c, 0, 64, 127
1, 122640, Note_on_c, 0, 57, 0
1, 122640, Note_on_c, 0, 45, 0
1, 122640, Note_on_c, 0, 59, 69
1, 122640, Note_on_c, 0, 47, 57
1, 122760, Note_on_c, 0, 60, 0
1, 122760, Note_on_c, 0, 72, 0
1, 122760, Note_on_c, 0, 69, 0
1, 122760, Note_on_c, 0, 62, 75
1, 122760, Note_on_c, 0, 74, 83
1, 122760, Note_on_c, 0, 71, 75
1, 122880, Tempo, 443459
1, 122880, Note_on_c, 0, 71, 0
1, 122880, Note_on_c, 0, 62, 0
1, 122880, Note_on_c, 0, 47, 0
1, 122880, Note_on_c, 0, 59, 0
1, 122880, Note_on_c, 0, 74, 0
1, 122880, Note_on_c, 0, 64, 75
1, 122880, Note_on_c, 0, 72, 75
1, 122880, Note_on_c, 0, 76, 84
1, 122880, Note_on_c, 0, 60, 76
1, 122880, Note_on_c, 0, 48, 63
1, 122887, Control_c, 0, 64, 0
1, 123120, Note_on_c, 0, 48, 0
1, 123120, Note_on_c, 0, 60, 0
1, 123120, Note_on_c, 0, 59, 69
1, 123120, Note_on_c, 0, 47, 57
1, 123360, Tempo, 425773
1, 123360, Note_on_c, 0, 47, 0
1, 123360, Note_on_c, 0, 64, 0
1, 123360, Note_on_c, 0, 76, 0
1, 123360, Note_on_c, 0, 72, 0
1, 123360, Note_on_c, 0, 59, 0
1, 123360, Note_on_c, 0, 67, 79
1, 123360, Note_on_c, 0, 76, 79
1, 123360, Note_on_c, 0, 79, 90
1, 123360, Note_on_c, 0, 48, 58
1, 123360, Note_on_c, 0, 60, 70
1, 123600, Tempo, 448531
1, 123600, Note_on_c, 0, 60, 0
1, 123600, Note_on_c, 0, 48, 0
1, 123600, Note_on_c, 0, 50, 59
1, 123600, Note_on_c, 0, 62, 73
1, 123840, Tempo, 436840
1, 123840, Note_on_c, 0, 62, 0
1, 123840, Note_on_c, 0, 50, 0
1, 123840, Note_on_c, 0, 64, 74
1, 123840, Note_on_c, 0, 52, 60
1, 124080, Note_on_c, 0, 52, 0
1, 124080, Note_on_c, 0, 64, 0
1, 124080, Note_on_c, 0, 53, 56
1, 124080, Note_on_c, 0, 65, 67
1, 124320, Tempo, 448531
1, 124320, Note_on_c, 0, 65, 0
1, 124320, Note_on_c, 0, 67, 0
1, 124320, Note_on_c, 0, 79, 0
1, 124320, Note_on_c, 0, 76, 0
1, 124320, Note_on_c, 0, 53, 0
1, 124320, Note_on_c, 0, 70, 80
1, 124320, Note_on_c, 0, 79, 80
1, 124320, Note_on_c, 0, 82, 92
1, 124320, Note_on_c, 0, 67, 70
1, 124320, Note_on_c, 0, 55, 58
1, 124560, Tempo, 477707
1, 124560, Note_on_c, 0, 55, 0
1, 124560, Note_on_c, 0, 67, 0
1, 124560, Note_on_c, 0, 69, 74
1, 124560, Note_on_c, 0, 57, 60
1, 124800, Tempo, 441761
1, 124800, Note_on_c, 0, 57, 0
1, 124800, Note_on_c, 0, 69, 0
1, 124800, Note_on_c, 0, 58, 62
1, 124800, Note_on_c, 0, 70, 76
1, 124856, Control_c, 0, 64, 127
1, 125040, Note_on_c, 0, 70, 0
1, 125040, Note_on_c, 0, 58, 0
1, 125040, Note_on_c, 0, 55, 66
1, 125040, Note_on_c, 0, 67, 77
1, 125280, Tempo, 425532
1, 125280, Note_on_c, 0, 67, 0
1, 125280, Note_on_c, 0, 55, 0
1, 125280, Note_on_c, 0, 52, 62
1, 125280, Note_on_c, 0, 64, 75
1, 125520, Note_on_c, 0, 64, 0
1, 125520, Note_on_c, 0, 52, 0
1, 125520, Note_on_c, 0, 50, 62
1, 125520, Note_on_c, 0, 62, 75
1, 125760, Tempo, 430447
1, 125760, Note_on_c, 0, 62, 0
1, 125760, Note_on_c, 0, 50, 0
1, 125760, Note_on_c, 0, 49, 65
1, 125760, Note_on_c, 0, 61, 69
1, 125767, Control_c, 0, 64, 0
1, 126000, Tempo, 446828
1, 126064, Control_c, 0, 64, 127
1, 126120, Note_on_c, 0, 82, 0
1, 126120, Note_on_c, 0, 70, 0
1, 126120, Note_on_c, 0, 79, 0
1, 126120, Note_on_c, 0, 70, 76
1, 126120, Note_on_c, 0, 79, 76
1, 126120, Note_on_c, 0, 82, 83
1, 126120, Note_on_c, 0, 67, 66
1, 126240, Tempo, 462642
1, 126240, Note_on_c, 0, 67, 0
1, 126240, Note_on_c, 0, 49, 0
1, 126240, Note_on_c, 0, 70, 0
1, 126240, Note_on_c, 0, 61, 0
1, 126240, Note_on_c, 0, 82, 0
1, 126240, Note_on_c, 0, 79, 0
1, 126240, Note_on_c, 0, 69, 76
1, 126240, Note_on_c, 0, 77, 76
1, 126240, Note_on_c, 0, 81, 85
1, 126240, Note_on_c, 0, 65, 68
1, 126600, Tempo, 497925
1, 126600, Note_on_c, 0, 65, 0
1, 126600, Note_on_c, 0, 69, 0
1, 126600, Note_on_c, 0, 77, 0
1, 126600, Note_on_c, 0, 81, 0
1, 126600, Note_on_c, 0, 67, 71
1, 126600, Note_on_c, 0, 76, 71
1, 126600, Note_on_c, 0, 79, 78
1, 126600, Note_on_c, 0, 64, 62
1, 126720, Tempo, 441761
1, 126720, Note_on_c, 0, 64, 0
1, 126720, Note_on_c, 0, 67, 0
1, 126720, Note_on_c, 0, 76, 0
1, 126720, Note_on_c, 0, 79, 0
1, 126720, Note_on_c, 0, 65, 77
1, 126720, Note_on_c, 0, 74, 77
1, 126720, Note_on_c, 0, 77, 88
1, 126720, Note_on_c, 0, 50, 65
1, 126720, Note_on_c, 0, 62, 77
1, 126726, Control_c, 0, 64, 0
1, 126960, Note_on_c, 0, 62, 0
1, 126960, Note_on_c, 0, 50, 0
1, 126960, Note_on_c, 0, 48, 65
1, 126960, Note_on_c, 0, 60, 74
1, 127080, Note_on_c, 0, 60, 0
1, 127080, Note_on_c, 0, 48, 0
1, 127200, Tempo, 427046
1, 127200, Note_on_c, 0, 47, 65
1, 127200, Note_on_c, 0, 59, 74
1, 127320, Note_on_c, 0, 59, 0
1, 127320, Note_on_c, 0, 47, 0
1, 127440, Tempo, 448531
1, 127440, Note_on_c, 0, 45, 65
1, 127440, Note_on_c, 0, 57, 74
1, 127560, Note_on_c, 0, 57, 0
1, 127560, Note_on_c, 0, 45, 0
1, 127680, Tempo, 430447
1, 127680, Note_on_c, 0, 44, 59
1, 127680, Note_on_c, 0, 56, 73
1, 127920, Tempo, 446828
1, 128019, Control_c, 0, 64, 127
1, 128040, Note_on_c, 0, 77, 0
1, 128040, Note_on_c, 0, 65, 0
1, 128040, Note_on_c, 0, 74, 0
1, 128040, Note_on_c, 0, 65, 70
1, 128040, Note_on_c, 0, 74, 70
1, 128040, Note_on_c, 0, 77, 83
1, 128040, Note_on_c, 0, 62, 66
1, 128160, Tempo, 462642
1, 128160, Note_on_c, 0, 62, 0
1, 128160, Note_on_c, 0, 44, 0
1, 128160, Note_on_c, 0, 65, 0
1, 128160, Note_on_c, 0, 56, 0
1, 128160, Note_on_c, 0, 77, 0
1, 128160, Note_on_c, 0, 74, 0
1, 128160, Note_on_c, 0, 64, 76
1, 128160, Note_on_c, 0, 72, 76
1, 128160, Note_on_c, 0, 76, 85
1, 128160, Note_on_c, 0, 60, 68
1, 128520, Tempo, 497925
1, 128520, Note_on_c, 0, 60, 0
1, 128520, Note_on_c, 0, 64, 0
1, 128520, Note_on_c, 0, 72, 0
1, 128520, Note_on_c, 0, 76, 0
1, 128520, Note_on_c, 0, 62, 71
1, 128520, Note_on_c, 0, 71, 71
1, 128520, Note_on_c, 0, 74, 78
1, 128520, Note_on_c, 0, 59, 62
1, 128640, Tempo, 443459
1, 128640, Note_on_c, 0, 59, 0
1, 128640, Note_on_c, 0, 62, 0
1, 128640, Note_on_c, 0, 71, 0
1, 128640, Note_on_c, 0, 74, 0
1, 128640, Note_on_c, 0, 60, 74
1, 128640, Note_on_c, 0, 69, 77
1, 128640, Note_on_c, 0, 72, 82
1, 128640, Note_on_c, 0, 45, 65
1, 128640, Note_on_c, 0, 57, 73
1, 128648, Control_c, 0, 64, 0
1, 128880, Note_on_c, 0, 57, 0
1, 128880, Note_on_c, 0, 45, 0
1, 128880, Note_on_c, 0, 43, 63
1, 128880, Note_on_c, 0, 55, 73
1, 129000, Note_on_c, 0, 55, 0
1, 129000, Note_on_c, 0, 43, 0
1, 129120, Tempo, 433620
1, 129120, Note_on_c, 0, 42, 65
1, 129120, Note_on_c, 0, 54, 74
1, 129240, Note_on_c, 0, 54, 0
1, 129240, Note_on_c, 0, 42, 0
1, 129360, Tempo, 450248
1, 129360, Note_on_c, 0, 40, 65
1, 129360, Note_on_c, 0, 52, 74
1, 129480, Note_on_c, 0, 52, 0
1, 129480, Note_on_c, 0, 40, 0
1, 129600, Tempo, 435224
1, 129600, Note_on_c, 0, 39, 59
1, 129600, Note_on_c, 0, 51, 73
1, 129703, Tempo, 444444
1, 129840, Tempo, 446097
1, 129840, Note_on_c, 0, 51, 0
1, 129840, Note_on_c, 0, 39, 0
1, 129840, Note_on_c, 0, 59, 42
1, 129840, Note_on_c, 0, 68, 42
1, 129840, Note_on_c, 0, 71, 60
1, 129840, Note_on_c, 0, 56, 49
1, 129960, Note_on_c, 0, 56, 0
1, 129960, Note_on_c, 0, 68, 0
1, 129960, Note_on_c, 0, 69, 0
1, 129960, Note_on_c, 0, 60, 0
1, 129960, Note_on_c, 0, 72, 0
1, 129960, Note_on_c, 0, 71, 0
1, 129960, Note_on_c, 0, 59, 0
1, 130080, Tempo, 436364
1, 130080, Note_on_c, 0, 57, 53
1, 130080, Note_on_c, 0, 66, 53
1, 130080, Note_on_c, 0, 69, 64
1, 130080, Note_on_c, 0, 54, 53
1, 130200, Note_on_c, 0, 54, 0
1, 130200, Note_on_c, 0, 57, 0
1, 130200, Note_on_c, 0, 66, 0
1, 130200, Note_on_c, 0, 69, 0
1, 130320, Note_on_c, 0, 59, 52
1, 130320, Note_on_c, 0, 68, 52
1, 130320, Note_on_c, 0, 71, 62
1, 130320, Note_on_c, 0, 56, 48
1, 130440, Note_on_c, 0, 56, 0
1, 130440, Note_on_c, 0, 59, 0
1, 130440, Note_on_c, 0, 68, 0
1, 130440, Note_on_c, 0, 71, 0
1, 130560, Tempo, 428571
1, 130560, Note_on_c, 0, 69, 52
1, 130560, Note_on_c, 0, 72, 63
1, 130560, Note_on_c, 0, 60, 52
1, 130560, Note_on_c, 0, 40, 48
1, 130560, Note_on_c, 0, 52, 52
1, 130680, Note_on_c, 0, 52, 0
1, 130680, Note_on_c, 0, 60, 0
1, 130680, Note_on_c, 0, 69, 0
1, 130680, Note_on_c, 0, 72, 0
1, 130680, Note_on_c, 0, 40, 0
1, 130800, Tempo, 441176
1, 130800, Note_on_c, 0, 62, 54
1, 130800, Note_on_c, 0, 74, 65
1, 130800, Note_on_c, 0, 71, 54
1, 130800, Note_on_c, 0, 59, 54
1, 130920, Note_on_c, 0, 59, 0
1, 130920, Note_on_c, 0, 62, 0
1, 130920, Note_on_c, 0, 74, 0
1, 130920, Note_on_c, 0, 71, 0
1, 131040, Tempo, 427046
1, 131040, Note_on_c, 0, 64, 56
1, 131040, Note_on_c, 0, 76, 67
1, 131040, Note_on_c, 0, 72, 56
1, 131040, Note_on_c, 0, 60, 55
1, 131160, Note_on_c, 0, 60, 0
1, 131160, Note_on_c, 0, 64, 0
1, 131160, Note_on_c, 0, 76, 0
1, 131160, Note_on_c, 0, 72, 0
1, 131280, Tempo, 437956
1, 131280, Note_on_c, 0, 65, 57
1, 131280, Note_on_c, 0, 74, 57
1, 131280, Note_on_c, 0, 77, 69
1, 131280, Note_on_c, 0, 62, 57
1, 131400, Note_on_c, 0, 62, 0
1, 131400, Note_on_c, 0, 65, 0
1, 131400, Note_on_c, 0, 74, 0
1, 131400, Note_on_c, 0, 77, 0
1, 131520, Tempo, 424749
1, 131520, Note_on_c, 0, 64, 57
1, 131520, Note_on_c, 0, 72, 57
1, 131520, Note_on_c, 0, 76, 68
1, 131520, Note_on_c, 0, 60, 58
1, 131640, Note_on_c, 0, 60, 0
1, 131640, Note_on_c, 0, 64, 0
1, 131640, Note_on_c, 0, 72, 0
1, 131640, Note_on_c, 0, 76, 0
1, 131760, Tempo, 431065
1, 131760, Note_on_c, 0, 71, 57
1, 131760, Note_on_c, 0, 74, 68
1, 131760, Note_on_c, 0, 62, 57
1, 131760, Note_on_c, 0, 59, 58
1, 131880, Note_on_c, 0, 59, 0
1, 131880, Note_on_c, 0, 71, 0
1, 131880, Note_on_c, 0, 74, 0
1, 131880, Note_on_c, 0, 62, 0
1, 132000, Tempo, 427869
1, 132000, Note_on_c, 0, 69, 57
1, 132000, Note_on_c, 0, 72, 68
1, 132000, Note_on_c, 0, 60, 57
1, 132000, Note_on_c, 0, 57, 57
1, 132120, Note_on_c, 0, 57, 0
1, 132120, Note_on_c, 0, 69, 0
1, 132120, Note_on_c, 0, 72, 0
1, 132120, Note_on_c, 0, 60, 0
1, 132240, Note_on_c, 0, 68, 58
1, 132240, Note_on_c, 0, 71, 68
1, 132240, Note_on_c, 0, 59, 58
1, 132240, Note_on_c, 0, 52, 56
1, 132360, Note_on_c, 0, 52, 0
1, 132360, Note_on_c, 0, 68, 0
1, 132360, Note_on_c, 0, 71, 0
1, 132360, Note_on_c, 0, 59, 0
1, 132480, Tempo, 422535
1, 132480, Note_on_c, 0, 72, 70
1, 132480, Note_on_c, 0, 60, 59
1, 132480, Note_on_c, 0, 69, 59
1, 132480, Note_on_c, 0, 57, 57
1, 132600, Note_on_c, 0, 57, 0
1, 132600, Note_on_c, 0, 72, 0
1, 132600, Note_on_c, 0, 60, 0
1, 132600, Note_on_c, 0, 69, 0
1, 132720, Tempo, 432651
1, 132720, Note_on_c, 0, 62, 59
1, 132720, Note_on_c, 0, 71, 59
1, 132720, Note_on_c, 0, 74, 71
1, 132720, Note_on_c, 0, 59, 58
1, 132840, Note_on_c, 0, 59, 0
1, 132840, Note_on_c, 0, 62, 0
1, 132840, Note_on_c, 0, 71, 0
1, 132840, Note_on_c, 0, 74, 0
1, 132960, Tempo, 421053
1, 132960, Note_on_c, 0, 72, 63
1, 132960, Note_on_c, 0, 76, 76
1, 132960, Note_on_c, 0, 64, 63
1, 132960, Note_on_c, 0, 60, 62
1, 133080, Note_on_c, 0, 60, 0
1, 133080, Note_on_c, 0, 72, 0
1, 133080, Note_on_c, 0, 76, 0
1, 133080, Note_on_c, 0, 64, 0
1, 133200, Tempo, 434279
1, 133200, Note_on_c, 0, 65, 65
1, 133200, Note_on_c, 0, 77, 78
1, 133200, Note_on_c, 0, 74, 65
1, 133200, Note_on_c, 0, 62, 64
1, 133320, Note_on_c, 0, 62, 0
1, 133320, Note_on_c, 0, 65, 0
1, 133320, Note_on_c, 0, 77, 0
1, 133320, Note_on_c, 0, 74, 0
1, 133440, Tempo, 422535
1, 133440, Note_on_c, 0, 64, 63
1, 133440, Note_on_c, 0, 76, 76
1, 133440, Note_on_c, 0, 72, 63
1, 133440, Note_on_c, 0, 60, 65
1, 133560, Note_on_c, 0, 60, 0
1, 133560, Note_on_c, 0, 64, 0
1, 133560, Note_on_c, 0, 76, 0
1, 133560, Note_on_c, 0, 72, 0
1, 133680, Note_on_c, 0, 62, 64
1, 133680, Note_on_c, 0, 71, 64
1, 133680, Note_on_c, 0, 74, 76
1, 133680, Note_on_c, 0, 59, 66
1, 133800, Note_on_c, 0, 59, 0
1, 133800, Note_on_c, 0, 62, 0
1, 133800, Note_on_c, 0, 71, 0
1, 133800, Note_on_c, 0, 74, 0
1, 133920, Tempo, 418118
1, 133920, Note_on_c, 0, 60, 64
1, 133920, Note_on_c, 0, 69, 64
1, 133920, Note_on_c, 0, 72, 76
1, 133920, Note_on_c, 0, 57, 65
1, 134040, Note_on_c, 0, 57, 0
1, 134040, Note_on_c, 0, 60, 0
1, 134040, Note_on_c, 0, 69, 0
1, 134040, Note_on_c, 0, 72, 0
1, 134160, Note_on_c, 0, 68, 64
1, 134160, Note_on_c, 0, 71, 76
1, 134160, Note_on_c, 0, 59, 64
1, 134160, Note_on_c, 0, 44, 53
1, 134160, Note_on_c, 0, 47, 53
1, 134160, Note_on_c, 0, 56, 63
1, 134280, Note_on_c, 0, 56, 0
1, 134280, Note_on_c, 0, 71, 0
1, 134280, Note_on_c, 0, 59, 0
1, 134280, Note_on_c, 0, 68, 0
1, 134280, Note_on_c, 0, 47, 0
1, 134280, Note_on_c, 0, 44, 0
1, 134400, Tempo, 422535
1, 134400, Note_on_c, 0, 69, 66
1, 134400, Note_on_c, 0, 72, 79
1, 134400, Note_on_c, 0, 60, 66
1, 134400, Note_on_c, 0, 45, 56
1, 134400, Note_on_c, 0, 57, 66
1, 134400, Note_on_c, 0, 48, 56
1, 134520, Note_on_c, 0, 48, 0
1, 134520, Note_on_c, 0, 72, 0
1, 134520, Note_on_c, 0, 60, 0
1, 134520, Note_on_c, 0, 69, 0
1, 134520, Note_on_c, 0, 57, 0
1, 134520, Note_on_c, 0, 45, 0
1, 134640, Tempo, 432651
1, 134640, Note_on_c, 0, 74, 81
1, 134640, Note_on_c, 0, 71, 68
1, 134640, Note_on_c, 0, 62, 68
1, 134640, Note_on_c, 0, 47, 57
1, 134640, Note_on_c, 0, 50, 57
1, 134640, Note_on_c, 0, 59, 68
1, 134760, Note_on_c, 0, 59, 0
1, 134760, Note_on_c, 0, 71, 0
1, 134760, Note_on_c, 0, 62, 0
1, 134760, Note_on_c, 0, 74, 0
1, 134760, Note_on_c, 0, 50, 0
1, 134760, Note_on_c, 0, 47, 0
1, 134880, Tempo, 413793
1, 134880, Note_on_c, 0, 76, 84
1, 134880, Note_on_c, 0, 72, 70
1, 134880, Note_on_c, 0, 64, 70
1, 134880, Note_on_c, 0, 48, 58
1, 134880, Note_on_c, 0, 52, 58
1, 134880, Note_on_c, 0, 60, 69
1, 135000, Note_on_c, 0, 60, 0
1, 135000, Note_on_c, 0, 72, 0
1, 135000, Note_on_c, 0, 64, 0
1, 135000, Note_on_c, 0, 76, 0
1, 135000, Note_on_c, 0, 52, 0
1, 135000, Note_on_c, 0, 48, 0
1, 135120, Tempo, 422535
1, 135120, Note_on_c, 0, 65, 73
1, 135120, Note_on_c, 0, 74, 73
1, 135120, Note_on_c, 0, 77, 86
1, 135120, Note_on_c, 0, 50, 58
1, 135120, Note_on_c, 0, 53, 58
1, 135120, Note_on_c, 0, 62, 70
1, 135240, Note_on_c, 0, 62, 0
1, 135240, Note_on_c, 0, 74, 0
1, 135240, Note_on_c, 0, 77, 0
1, 135240, Note_on_c, 0, 65, 0
1, 135240, Note_on_c, 0, 53, 0
1, 135240, Note_on_c, 0, 50, 0
1, 135360, Tempo, 422535
1, 135360, Note_on_c, 0, 76, 83
1, 135360, Note_on_c, 0, 64, 69
1, 135360, Note_on_c, 0, 72, 69
1, 135360, Note_on_c, 0, 48, 59
1, 135360, Note_on_c, 0, 52, 59
1, 135360, Note_on_c, 0, 60, 71
1, 135480, Note_on_c, 0, 60, 0
1, 135480, Note_on_c, 0, 64, 0
1, 135480, Note_on_c, 0, 72, 0
1, 135480, Note_on_c, 0, 76, 0
1, 135480, Note_on_c, 0, 52, 0
1, 135480, Note_on_c, 0, 48, 0
1, 135600, Note_on_c, 0, 62, 68
1, 135600, Note_on_c, 0, 71, 68
1, 135600, Note_on_c, 0, 74, 81
1, 135600, Note_on_c, 0, 47, 58
1, 135600, Note_on_c, 0, 50, 58
1, 135600, Note_on_c, 0, 59, 70
1, 135720, Note_on_c, 0, 59, 0
1, 135720, Note_on_c, 0, 71, 0
1, 135720, Note_on_c, 0, 74, 0
1, 135720, Note_on_c, 0, 62, 0
1, 135720, Note_on_c, 0, 50, 0
1, 135720, Note_on_c, 0, 47, 0
1, 135840, Tempo, 426288
1, 135840, Note_on_c, 0, 60, 67
1, 135840, Note_on_c, 0, 69, 67
1, 135840, Note_on_c, 0, 72, 80
1, 135840, Note_on_c, 0, 45, 57
1, 135840, Note_on_c, 0, 48, 57
1, 135840, Note_on_c, 0, 57, 68
1, 135880, Tempo, 418118
1, 135960, Note_on_c, 0, 57, 0
1, 135960, Note_on_c, 0, 69, 0
1, 135960, Note_on_c, 0, 72, 0
1, 135960, Note_on_c, 0, 60, 0
1, 135960, Note_on_c, 0, 48, 0
1, 135960, Note_on_c, 0, 45, 0
1, 136080, Note_on_c, 0, 68, 68
1, 136080, Note_on_c, 0, 59, 68
1, 136080, Note_on_c, 0, 71, 80
1, 136080, Note_on_c, 0, 44, 57
1, 136080, Note_on_c, 0, 47, 57
1, 136080, Note_on_c, 0, 56, 67
1, 136200, Note_on_c, 0, 56, 0
1, 136200, Note_on_c, 0, 59, 0
1, 136200, Note_on_c, 0, 71, 0
1, 136200, Note_on_c, 0, 68, 0
1, 136200, Note_on_c, 0, 47, 0
1, 136200, Note_on_c, 0, 44, 0
1, 136320, Tempo, 419580
1, 136320, Note_on_c, 0, 60, 70
1, 136320, Note_on_c, 0, 69, 70
1, 136320, Note_on_c, 0, 72, 84
1, 136320, Note_on_c, 0, 45, 56
1, 136320, Note_on_c, 0, 48, 56
1, 136320, Note_on_c, 0, 57, 66
1, 136440, Note_on_c, 0, 57, 0
1, 136440, Note_on_c, 0, 69, 0
1, 136440, Note_on_c, 0, 72, 0
1, 136440, Note_on_c, 0, 60, 0
1, 136440, Note_on_c, 0, 48, 0
1, 136440, Note_on_c, 0, 45, 0
1, 136560, Tempo, 432651
1, 136560, Note_on_c, 0, 74, 85
1, 136560, Note_on_c, 0, 62, 71
1, 136560, Note_on_c, 0, 71, 71
1, 136560, Note_on_c, 0, 47, 56
1, 136560, Note_on_c, 0, 50, 56
1, 136560, Note_on_c, 0, 59, 67
1, 136680, Note_on_c, 0, 59, 0
1, 136680, Note_on_c, 0, 62, 0
1, 136680, Note_on_c, 0, 71, 0
1, 136680, Note_on_c, 0, 74, 0
1, 136680, Note_on_c, 0, 50, 0
1, 136680, Note_on_c, 0, 47, 0
1, 136800, Tempo, 421053
1, 136800, Note_on_c, 0, 64, 74
1, 136800, Note_on_c, 0, 72, 74
1, 136800, Note_on_c, 0, 76, 88
1, 136800, Note_on_c, 0, 48, 57
1, 136800, Note_on_c, 0, 52, 57
1, 136800, Note_on_c, 0, 60, 68
1, 136920, Note_on_c, 0, 60, 0
1, 136920, Note_on_c, 0, 72, 0
1, 136920, Note_on_c, 0, 76, 0
1, 136920, Note_on_c, 0, 64, 0
1, 136920, Note_on_c, 0, 52, 0
1, 136920, Note_on_c, 0, 48, 0
1, 137040, Tempo, 434279
1, 137040, Note_on_c, 0, 77, 90
1, 137040, Note_on_c, 0, 65, 76
1, 137040, Note_on_c, 0, 74, 76
1, 137040, Note_on_c, 0, 50, 58
1, 137040, Note_on_c, 0, 53, 58
1, 137040, Note_on_c, 0, 62, 69
1, 137160, Note_on_c, 0, 62, 0
1, 137160, Note_on_c, 0, 65, 0
1, 137160, Note_on_c, 0, 74, 0
1, 137160, Note_on_c, 0, 77, 0
1, 137160, Note_on_c, 0, 53, 0
1, 137160, Note_on_c, 0, 50, 0
1, 137280, Tempo, 421053
1, 137280, Note_on_c, 0, 64, 74
1, 137280, Note_on_c, 0, 72, 74
1, 137280, Note_on_c, 0, 76, 87
1, 137280, Note_on_c, 0, 48, 59
1, 137280, Note_on_c, 0, 52, 59
1, 137280, Note_on_c, 0, 60, 71
1, 137400, Note_on_c, 0, 60, 0
1, 137400, Note_on_c, 0, 72, 0
1, 137400, Note_on_c, 0, 76, 0
1, 137400, Note_on_c, 0, 64, 0
1, 137400, Note_on_c, 0, 52, 0
1, 137400, Note_on_c, 0, 48, 0
1, 137520, Note_on_c, 0, 62, 74
1, 137520, Note_on_c, 0, 74, 87
1, 137520, Note_on_c, 0, 71, 74
1, 137520, Note_on_c, 0, 47, 59
1, 137520, Note_on_c, 0, 50, 59
1, 137520, Note_on_c, 0, 59, 71
1, 137640, Note_on_c, 0, 59, 0
1, 137640, Note_on_c, 0, 74, 0
1, 137640, Note_on_c, 0, 71, 0
1, 137640, Note_on_c, 0, 62, 0
1, 137640, Note_on_c, 0, 50, 0
1, 137640, Note_on_c, 0, 47, 0
1, 137760, Note_on_c, 0, 69, 73
1, 137760, Note_on_c, 0, 60, 73
1, 137760, Note_on_c, 0, 72, 86
1, 137760, Note_on_c, 0, 45, 57
1, 137760, Note_on_c, 0, 48, 57
1, 137760, Note_on_c, 0, 57, 68
1, 137880, Note_on_c, 0, 57, 0
1, 137880, Note_on_c, 0, 60, 0
1, 137880, Note_on_c, 0, 72, 0
1, 137880, Note_on_c, 0, 69, 0
1, 137880, Note_on_c, 0, 48, 0
1, 137880, Note_on_c, 0, 45, 0
1, 138000, Tempo, 439560
1, 138000, Note_on_c, 0, 68, 73
1, 138000, Note_on_c, 0, 59, 73
1, 138000, Note_on_c, 0, 71, 86
1, 138000, Note_on_c, 0, 44, 57
1, 138000, Note_on_c, 0, 47, 57
1, 138000, Note_on_c, 0, 56, 67
1, 138120, Note_on_c, 0, 56, 0
1, 138120, Note_on_c, 0, 59, 0
1, 138120, Note_on_c, 0, 71, 0
1, 138120, Note_on_c, 0, 68, 0
1, 138120, Note_on_c, 0, 47, 0
1, 138120, Note_on_c, 0, 44, 0
1, 138200, Tempo, 432651
1, 138240, Tempo, 427046
1, 138240, Note_on_c, 0, 69, 72
1, 138240, Note_on_c, 0, 72, 93
1, 138240, Note_on_c, 0, 60, 72
1, 138240, Note_on_c, 0, 45, 54
1, 138240, Note_on_c, 0, 48, 54
1, 138240, Note_on_c, 0, 57, 71
1, 138360, Tempo, 430108
1, 138420, Note_on_c, 0, 57, 0
1, 138420, Note_on_c, 0, 72, 0
1, 138420, Note_on_c, 0, 60, 0
1, 138420, Note_on_c, 0, 69, 0
1, 138420, Note_on_c, 0, 48, 0
1, 138420, Note_on_c, 0, 45, 0
1, 138480, Note_on_c, 0, 71, 89
1, 138480, Note_on_c, 0, 59, 69
1, 138480, Note_on_c, 0, 68, 69
1, 138480, Note_on_c, 0, 47, 52
1, 138480, Note_on_c, 0, 56, 65
1, 138480, Note_on_c, 0, 44, 52
1, 138560, Tempo, 431655
1, 138660, Note_on_c, 0, 44, 0
1, 138660, Note_on_c, 0, 59, 0
1, 138660, Note_on_c, 0, 68, 0
1, 138660, Note_on_c, 0, 71, 0
1, 138660, Note_on_c, 0, 56, 0
1, 138660, Note_on_c, 0, 47, 0
1, 138720, Note_on_c, 0, 72, 93
1, 138720, Note_on_c, 0, 60, 72
1, 138720, Note_on_c, 0, 69, 72
1, 138720, Note_on_c, 0, 48, 54
1, 138720, Note_on_c, 0, 57, 71
1, 138720, Note_on_c, 0, 45, 54
1, 138760, Tempo, 433213
1, 138900, Note_on_c, 0, 45, 0
1, 138900, Note_on_c, 0, 60, 0
1, 138900, Note_on_c, 0, 69, 0
1, 138900, Note_on_c, 0, 72, 0
1, 138900, Note_on_c, 0, 57, 0
1, 138900, Note_on_c, 0, 48, 0
1, 138960, Tempo, 434783
1, 138960, Note_on_c, 0, 59, 67
1, 138960, Note_on_c, 0, 68, 67
1, 138960, Note_on_c, 0, 71, 85
1, 138960, Note_on_c, 0, 47, 51
1, 138960, Note_on_c, 0, 56, 64
1, 138960, Note_on_c, 0, 44, 51
1, 139120, Tempo, 436364
1, 139140, Note_on_c, 0, 44, 0
1, 139140, Note_on_c, 0, 68, 0
1, 139140, Note_on_c, 0, 71, 0
1, 139140, Note_on_c, 0, 59, 0
1, 139140, Note_on_c, 0, 56, 0
1, 139140, Note_on_c, 0, 47, 0
1, 139200, Note_on_c, 0, 60, 72
1, 139200, Note_on_c, 0, 72, 93
1, 139200, Note_on_c, 0, 69, 72
1, 139200, Note_on_c, 0, 48, 54
1, 139200, Note_on_c, 0, 57, 71
1, 139200, Note_on_c, 0, 45, 54
1, 139320, Tempo, 437956
1, 139380, Note_on_c, 0, 45, 0
1, 139380, Note_on_c, 0, 72, 0
1, 139380, Note_on_c, 0, 69, 0
1, 139380, Note_on_c, 0, 60, 0
1, 139380, Note_on_c, 0, 57, 0
1, 139380, Note_on_c, 0, 48, 0
1, 139440, Note_on_c, 0, 71, 83
1, 139440, Note_on_c, 0, 68, 66
1, 139440, Note_on_c, 0, 59, 66
1, 139440, Note_on_c, 0, 47, 51
1, 139440, Note_on_c, 0, 56, 64
1, 139440, Note_on_c, 0, 44, 51
1, 139520, Tempo, 439560
1, 139620, Note_on_c, 0, 44, 0
1, 139620, Note_on_c, 0, 68, 0
1, 139620, Note_on_c, 0, 59, 0
1, 139620, Note_on_c, 0, 71, 0
1, 139620, Note_on_c, 0, 56, 0
1, 139620, Note_on_c, 0, 47, 0
1, 139680, Tempo, 441176
1, 139680, Note_on_c, 0, 60, 72
1, 139680, Note_on_c, 0, 69, 72
1, 139680, Note_on_c, 0, 72, 93
1, 139680, Note_on_c, 0, 48, 54
1, 139680, Note_on_c, 0, 57, 71
1, 139680, Note_on_c, 0, 45, 54
1, 139720, Tempo, 442804
1, 139760, Tempo, 444444
1, 139800, Tempo, 446097
1, 139840, Tempo, 449438
1, 139860, Note_on_c, 0, 45, 0
1, 139860, Note_on_c, 0, 69, 0
1, 139860, Note_on_c, 0, 72, 0
1, 139860, Note_on_c, 0, 60, 0
1, 139860, Note_on_c, 0, 57, 0
1, 139860, Note_on_c, 0, 48, 0
1, 139880, Tempo, 451128
1, 139920, Tempo, 452830
1, 139920, Note_on_c, 0, 71, 83
1, 139920, Note_on_c, 0, 59, 66
1, 139920, Note_on_c, 0, 68, 66
1, 139920, Note_on_c, 0, 47, 50
1, 139920, Note_on_c, 0, 56, 63
1, 139920, Note_on_c, 0, 44, 50
1, 139960, Tempo, 456274
1, 140000, Tempo, 458015
1, 140040, Tempo, 459770
1, 140080, Tempo, 463320
1, 140100, Note_on_c, 0, 44, 0
1, 140100, Note_on_c, 0, 59, 0
1, 140100, Note_on_c, 0, 68, 0
1, 140100, Note_on_c, 0, 71, 0
1, 140100, Note_on_c, 0, 56, 0
1, 140100, Note_on_c, 0, 47, 0
1, 140120, Tempo, 461538
1, 140160, Tempo, 466926
1, 140160, Note_on_c, 0, 60, 72
1, 140160, Note_on_c, 0, 69, 72
1, 140160, Note_on_c, 0, 72, 93
1, 140160, Note_on_c, 0, 48, 54
1, 140160, Note_on_c, 0, 57, 71
1, 140160, Note_on_c, 0, 45, 54
1, 140340, Note_on_c, 0, 72, 0
1, 140340, Note_on_c, 0, 60, 0
1, 140340, Note_on_c, 0, 69, 0
1, 140400, Note_on_c, 0, 59, 67
1, 140400, Note_on_c, 0, 68, 67
1, 140400, Note_on_c, 0, 71, 85
1, 140580, Note_on_c, 0, 71, 0
1, 140580, Note_on_c, 0, 59, 0
1, 140580, Note_on_c, 0, 68, 0
1, 140640, Tempo, 478088
1, 140640, Note_on_c, 0, 45, 0
1, 140640, Note_on_c, 0, 48, 0
1, 140640, Note_on_c, 0, 57, 0
1, 140640, Note_on_c, 0, 69, 72
1, 140640, Note_on_c, 0, 60, 72
1, 140640, Note_on_c, 0, 72, 93
1, 140640, Note_on_c, 0, 45, 53
1, 140640, Note_on_c, 0, 53, 66
1, 140640, Note_on_c, 0, 41, 53
1, 140691, Control_c, 0, 64, 127
1, 140820, Note_on_c, 0, 72, 0
1, 140820, Note_on_c, 0, 69, 0
1, 140820, Note_on_c, 0, 60, 0
1, 140880, Tempo, 493827
1, 140880, Note_on_c, 0, 62, 66
1, 140880, Note_on_c, 0, 71, 66
1, 140880, Note_on_c, 0, 74, 83
1, 141060, Note_on_c, 0, 74, 0
1, 141060, Note_on_c, 0, 62, 0
1, 141060, Note_on_c, 0, 71, 0
1, 141120, Note_on_c, 0, 41, 0
1, 141120, Note_on_c, 0, 45, 0
1, 141120, Note_on_c, 0, 53, 0
1, 141120, Note_on_c, 0, 76, 93
1, 141120, Note_on_c, 0, 64, 72
1, 141120, Note_on_c, 0, 72, 72
1, 141120, Note_on_c, 0, 44, 53
1, 141120, Note_on_c, 0, 52, 66
1, 141120, Note_on_c, 0, 40, 53
1, 141166, Control_c, 0, 64, 0
1, 141600, Note_on_c, 0, 40, 0
1, 141600, Note_on_c, 0, 64, 0
1, 141600, Note_on_c, 0, 72, 0
1, 141600, Note_on_c, 0, 76, 0
1, 141600, Note_on_c, 0, 52, 0
1, 141600, Note_on_c, 0, 44, 0
1, 141600, Note_on_c, 0, 59, 68
1, 141600, Note_on_c, 0, 64, 68
1, 141600, Note_on_c, 0, 71, 88
1, 141600, Note_on_c, 0, 40, 52
1, 141600, Note_on_c, 0, 52, 67
1, 141600, Note_on_c, 0, 47, 67
1, 141703, Control_c, 0, 64, 127
1, 141960, Note_on_c, 0, 47, 0
1, 141960, Note_on_c, 0, 64, 0
1, 141960, Note_on_c, 0, 59, 0
1, 141960, Note_on_c, 0, 71, 0
1, 141960, Note_on_c, 0, 60, 63
1, 141960, Note_on_c, 0, 72, 81
1, 141960, Note_on_c, 0, 48, 58
1, 142080, Tempo, 506329
1, 142080, Note_on_c, 0, 48, 0
1, 142080, Note_on_c, 0, 60, 0
1, 142080, Note_on_c, 0, 52, 0
1, 142080, Note_on_c, 0, 40, 0
1, 142080, Note_on_c, 0, 72, 0
1, 142080, Note_on_c, 0, 64, 68
1, 142080, Note_on_c, 0, 59, 68
1, 142080, Note_on_c, 0, 71, 88
1, 142080, Note_on_c, 0, 40, 52
1, 142080, Note_on_c, 0, 47, 52
1, 142080, Note_on_c, 0, 52, 67
1, 142086, Control_c, 0, 64, 0
1, 143040, Note_on_c, 0, 52, 0
1, 143040, Note_on_c, 0, 59, 0
1, 143040, Note_on_c, 0, 71, 0
1, 143040, Note_on_c, 0, 64, 0
1, 143040, Note_on_c, 0, 47, 0
1, 143040, Note_on_c, 0, 40, 0
1, 143040, Note_on_c, 0, 57, 63
1, 143040, Note_on_c, 0, 69, 81
1, 143040, Note_on_c, 0, 33, 49
1, 143040, Note_on_c, 0, 45, 62
1, 143520, Tempo, 428571
1, 143520, Note_on_c, 0, 45, 0
1, 143520, Note_on_c, 0, 57, 0
1, 143520, Note_on_c, 0, 69, 0
1, 143520, Note_on_c, 0, 33, 0
1, 143640, Tempo, 413793
1, 143640, Note_on_c, 0, 71, 68
1, 143760, Note_on_c, 0, 71, 0
1, 143760, Note_on_c, 0, 72, 69
1, 143880, Note_on_c, 0, 72, 0
1, 143880, Note_on_c, 0, 74, 66
1, 144000, Tempo, 404040
1, 144000, Note_on_c, 0, 74, 0
1, 144000, Note_on_c, 0, 76, 76
1, 144071, Control_c, 0, 64, 127
1, 144120, Note_on_c, 0, 76, 0
1, 144120, Note_on_c, 0, 72, 64
1, 144240, Tempo, 461538
1, 144240, Note_on_c, 0, 72, 0
1, 144240, Note_on_c, 0, 69, 64
1, 144381, Control_c, 0, 64, 0
1, 144420, Note_on_c, 0, 69, 0
1, 144480, Tempo, 428571
1, 144480, Note_on_c, 0, 64, 46
1, 144480, Note_on_c, 0, 60, 38
1, 144480, Note_on_c, 0, 57, 38
1, 144600, Tempo, 415225
1, 144600, Note_on_c, 0, 76, 70
1, 144720, Note_on_c, 0, 76, 0
1, 144720, Note_on_c, 0, 72, 69
1, 144840, Note_on_c, 0, 72, 0
1, 144840, Note_on_c, 0, 69, 69
1, 144960, Tempo, 404040
1, 144960, Note_on_c, 0, 69, 0
1, 144960, Note_on_c, 0, 64, 0
1, 144960, Note_on_c, 0, 60, 0
1, 144960, Note_on_c, 0, 57, 0
1, 144960, Note_on_c, 0, 77, 76
1, 145031, Control_c, 0, 64, 127
1, 145080, Note_on_c, 0, 77, 0
1, 145080, Note_on_c, 0, 74, 64
1, 145200, Tempo, 459770
1, 145200, Note_on_c, 0, 74, 0
1, 145200, Note_on_c, 0, 69, 64
1, 145380, Note_on_c, 0, 69, 0
1, 145391, Control_c, 0, 64, 0
1, 145440, Tempo, 428571
1, 145440, Note_on_c, 0, 57, 38
1, 145440, Note_on_c, 0, 62, 38
1, 145440, Note_on_c, 0, 65, 46
1, 145560, Tempo, 413793
1, 145560, Note_on_c, 0, 77, 68
1, 145680, Note_on_c, 0, 77, 0
1, 145680, Note_on_c, 0, 74, 68
1, 145800, Note_on_c, 0, 74, 0
1, 145800, Note_on_c, 0, 69, 68
1, 145880, Tempo, 419580
1, 145920, Tempo, 405405
1, 145920, Note_on_c, 0, 69, 0
1, 145920, Note_on_c, 0, 57, 0
1, 145920, Note_on_c, 0, 62, 0
1, 145920, Note_on_c, 0, 65, 0
1, 145920, Note_on_c, 0, 74, 76
1, 145972, Control_c, 0, 64, 127
1, 146040, Note_on_c, 0, 74, 0
1, 146040, Note_on_c, 0, 71, 64
1, 146160, Tempo, 461538
1, 146160, Note_on_c, 0, 71, 0
1, 146160, Note_on_c, 0, 68, 64
1, 146280, Control_c, 0, 64, 0
1, 146340, Note_on_c, 0, 68, 0
1, 146400, Tempo, 428571
1, 146400, Note_on_c, 0, 62, 48
1, 146400, Note_on_c, 0, 59, 39
1, 146400, Note_on_c, 0, 57, 39
1, 146520, Tempo, 416667
1, 146520, Note_on_c, 0, 74, 64
1, 146640, Note_on_c, 0, 74, 0
1, 146640, Note_on_c, 0, 71, 64
1, 146760, Note_on_c, 0, 71, 0
1, 146760, Note_on_c, 0, 68, 64
1, 146880, Tempo, 404040
1, 146880, Note_on_c, 0, 68, 0
1, 146880, Note_on_c, 0, 62, 0
1, 146880, Note_on_c, 0, 59, 0
1, 146880, Note_on_c, 0, 57, 0
1, 146880, Note_on_c, 0, 76, 75
1, 146960, Control_c, 0, 64, 127
1, 147000, Note_on_c, 0, 76, 0
1, 147000, Note_on_c, 0, 72, 62
1, 147120, Tempo, 458015
1, 147120, Note_on_c, 0, 72, 0
1, 147120, Note_on_c, 0, 69, 63
1, 147291, Control_c, 0, 64, 0
1, 147300, Note_on_c, 0, 69, 0
1, 147360, Tempo, 428571
1, 147360, Note_on_c, 0, 64, 38
1, 147360, Note_on_c, 0, 60, 33
1, 147360, Note_on_c, 0, 57, 33
1, 147480, Tempo, 415225
1, 147480, Note_on_c, 0, 71, 47
1, 147600, Note_on_c, 0, 71, 0
1, 147600, Note_on_c, 0, 72, 47
1, 147720, Note_on_c, 0, 72, 0
1, 147720, Note_on_c, 0, 74, 48
1, 147840, Tempo, 404040
1, 147840, Note_on_c, 0, 74, 0
1, 147840, Note_on_c, 0, 64, 0
1, 147840, Note_on_c, 0, 60, 0
1, 147840, Note_on_c, 0, 57, 0
1, 147840, Note_on_c, 0, 76, 57
1, 147892, Control_c, 0, 64, 127
1, 147960, Note_on_c, 0, 76, 0
1, 147960, Note_on_c, 0, 73, 46
1, 148080, Tempo, 459770
1, 148080, Note_on_c, 0, 73, 0
1, 148080, Note_on_c, 0, 69, 46
1, 148217, Control_c, 0, 64, 0
1, 148260, Note_on_c, 0, 69, 0
1, 148320, Tempo, 428571
1, 148320, Note_on_c, 0, 67, 37
1, 148320, Note_on_c, 0, 64, 32
1, 148320, Note_on_c, 0, 57, 32
1, 148440, Tempo, 415225
1, 148440, Note_on_c, 0, 76, 44
1, 148560, Note_on_c, 0, 76, 0
1, 148560, Note_on_c, 0, 73, 44
1, 148680, Note_on_c, 0, 73, 0
1, 148680, Note_on_c, 0, 69, 44
1, 148800, Tempo, 405405
1, 148800, Note_on_c, 0, 69, 0
1, 148800, Note_on_c, 0, 67, 0
1, 148800, Note_on_c, 0, 64, 0
1, 148800, Note_on_c, 0, 57, 0
1, 148800, Note_on_c, 0, 77, 52
1, 148869, Control_c, 0, 64, 127
1, 148920, Note_on_c, 0, 77, 0
1, 148920, Note_on_c, 0, 74, 42
1, 149040, Tempo, 458015
1, 149040, Note_on_c, 0, 74, 0
1, 149040, Note_on_c, 0, 69, 42
1, 149200, Control_c, 0, 64, 0
1, 149220, Note_on_c, 0, 69, 0
1, 149280, Tempo, 428571
1, 149280, Note_on_c, 0, 57, 28
1, 149280, Note_on_c, 0, 62, 28
1, 149280, Note_on_c, 0, 65, 36
1, 149400, Tempo, 415225
1, 149400, Note_on_c, 0, 77, 44
1, 149520, Note_on_c, 0, 77, 0
1, 149520, Note_on_c, 0, 74, 44
1, 149640, Note_on_c, 0, 74, 0
1, 149640, Note_on_c, 0, 69, 44
1, 149760, Tempo, 404040
1, 149760, Note_on_c, 0, 69, 0
1, 149760, Note_on_c, 0, 57, 0
1, 149760, Note_on_c, 0, 62, 0
1, 149760, Note_on_c, 0, 65, 0
1, 149760, Note_on_c, 0, 74, 50
1, 149812, Control_c, 0, 64, 127
1, 149880, Note_on_c, 0, 74, 0
1, 149880, Note_on_c, 0, 71, 42
1, 150000, Tempo, 458015
1, 150000, Note_on_c, 0, 71, 0
1, 150000, Note_on_c, 0, 68, 42
1, 150171, Control_c, 0, 64, 0
1, 150180, Note_on_c, 0, 68, 0
1, 150240, Tempo, 428571
1, 150240, Note_on_c, 0, 62, 27
1, 150240, Note_on_c, 0, 65, 33
1, 150240, Note_on_c, 0, 59, 27
1, 150240, Note_on_c, 0, 57, 27
1, 150360, Tempo, 415225
1, 150360, Note_on_c, 0, 74, 43
1, 150480, Note_on_c, 0, 74, 0
1, 150480, Note_on_c, 0, 71, 43
1, 150600, Note_on_c, 0, 71, 0
1, 150600, Note_on_c, 0, 68, 43
1, 150720, Tempo, 408163
1, 150720, Note_on_c, 0, 68, 0
1, 150720, Note_on_c, 0, 59, 0
1, 150720, Note_on_c, 0, 62, 0
1, 150720, Note_on_c, 0, 65, 0
1, 150720, Note_on_c, 0, 57, 0
1, 150720, Note_on_c, 0, 76, 49
1, 150772, Control_c, 0, 64, 127
1, 150840, Note_on_c, 0, 76, 0
1, 150840, Note_on_c, 0, 72, 41
1, 150960, Tempo, 441176
1, 150960, Note_on_c, 0, 72, 0
1, 150960, Note_on_c, 0, 69, 41
1, 150960, Note_on_c, 0, 60, 26
1, 150960, Note_on_c, 0, 57, 26
1, 150960, Note_on_c, 0, 64, 35
1, 151029, Control_c, 0, 64, 0
1, 151140, Note_on_c, 0, 64, 0
1, 151140, Note_on_c, 0, 69, 0
1, 151140, Note_on_c, 0, 60, 0
1, 151140, Note_on_c, 0, 57, 0
1, 151200, Tempo, 428571
1, 151200, Note_on_c, 0, 65, 34
1, 151200, Note_on_c, 0, 62, 26
1, 151200, Note_on_c, 0, 57, 26
1, 151320, Tempo, 416667
1, 151320, Note_on_c, 0, 74, 43
1, 151440, Note_on_c, 0, 74, 0
1, 151440, Note_on_c, 0, 71, 43
1, 151560, Note_on_c, 0, 71, 0
1, 151560, Note_on_c, 0, 68, 43
1, 151680, Tempo, 410959
1, 151680, Note_on_c, 0, 68, 0
1, 151680, Note_on_c, 0, 65, 0
1, 151680, Note_on_c, 0, 62, 0
1, 151680, Note_on_c, 0, 57, 0
1, 151680, Note_on_c, 0, 76, 52
1, 151732, Control_c, 0, 64, 127
1, 151800, Note_on_c, 0, 76, 0
1, 151800, Note_on_c, 0, 72, 43
1, 151920, Tempo, 441176
1, 151920, Note_on_c, 0, 72, 0
1, 151920, Note_on_c, 0, 69, 43
1, 151920, Note_on_c, 0, 57, 28
1, 151920, Note_on_c, 0, 60, 28
1, 151920, Note_on_c, 0, 64, 37
1, 151977, Control_c, 0, 64, 0
1, 152100, Note_on_c, 0, 64, 0
1, 152100, Note_on_c, 0, 69, 0
1, 152100, Note_on_c, 0, 57, 0
1, 152100, Note_on_c, 0, 60, 0
1, 152160, Tempo, 424028
1, 152160, Note_on_c, 0, 65, 34
1, 152160, Note_on_c, 0, 62, 27
1, 152160, Note_on_c, 0, 57, 27
1, 152280, Tempo, 415225
1, 152280, Note_on_c, 0, 74, 39
1, 152400, Note_on_c, 0, 74, 0
1, 152400, Note_on_c, 0, 71, 39
1, 152520, Note_on_c, 0, 71, 0
1, 152520, Note_on_c, 0, 68, 39
1, 152640, Tempo, 410959
1, 152640, Note_on_c, 0, 68, 0
1, 152640, Note_on_c, 0, 65, 0
1, 152640, Note_on_c, 0, 62, 0
1, 152640, Note_on_c, 0, 57, 0
1, 152640, Note_on_c, 0, 76, 47
1, 152640, Note_on_c, 0, 57, 27
1, 152640, Note_on_c, 0, 64, 34
1, 152640, Note_on_c, 0, 60, 27
1, 152697, Control_c, 0, 64, 127
1, 152760, Note_on_c, 0, 76, 0
1, 152760, Note_on_c, 0, 72, 39
1, 152880, Tempo, 427046
1, 152880, Note_on_c, 0, 72, 0
1, 152880, Note_on_c, 0, 69, 38
1, 153000, Note_on_c, 0, 69, 0
1, 153000, Note_on_c, 0, 74, 38
1, 153120, Tempo, 424028
1, 153120, Note_on_c, 0, 74, 0
1, 153120, Note_on_c, 0, 60, 0
1, 153120, Note_on_c, 0, 64, 0
1, 153120, Note_on_c, 0, 71, 38
1, 153120, Note_on_c, 0, 62, 25
1, 153120, Note_on_c, 0, 65, 31
1, 153130, Control_c, 0, 64, 0
1, 153200, Control_c, 0, 64, 127
1, 153240, Note_on_c, 0, 71, 0
1, 153240, Note_on_c, 0, 68, 38
1, 153360, Tempo, 409556
1, 153360, Note_on_c, 0, 68, 0
1, 153360, Note_on_c, 0, 76, 46
1, 153480, Note_on_c, 0, 76, 0
1, 153480, Note_on_c, 0, 72, 41
1, 153600, Tempo, 421053
1, 153600, Note_on_c, 0, 72, 0
1, 153600, Note_on_c, 0, 65, 0
1, 153600, Note_on_c, 0, 62, 0
1, 153600, Note_on_c, 0, 69, 38
1, 153600, Note_on_c, 0, 64, 32
1, 153600, Note_on_c, 0, 60, 25
1, 153607, Control_c, 0, 64, 0
1, 153651, Control_c, 0, 64, 127
1, 153720, Tempo, 412371
1, 153720, Note_on_c, 0, 69, 0
1, 153720, Note_on_c, 0, 74, 38
1, 153840, Note_on_c, 0, 74, 0
1, 153840, Note_on_c, 0, 60, 0
1, 153840, Note_on_c, 0, 64, 0
1, 153840, Note_on_c, 0, 71, 38
1, 153840, Note_on_c, 0, 62, 25
1, 153840, Note_on_c, 0, 65, 32
1, 153960, Note_on_c, 0, 71, 0
1, 153960, Note_on_c, 0, 68, 38
1, 154080, Tempo, 409556
1, 154080, Note_on_c, 0, 68, 0
1, 154080, Note_on_c, 0, 65, 0
1, 154080, Note_on_c, 0, 62, 0
1, 154080, Note_on_c, 0, 57, 0
1, 154080, Note_on_c, 0, 76, 45
1, 154080, Note_on_c, 0, 64, 33
1, 154080, Note_on_c, 0, 60, 27
1, 154080, Note_on_c, 0, 57, 33
1, 154087, Control_c, 0, 64, 0
1, 154140, Control_c, 0, 64, 127
1, 154200, Note_on_c, 0, 76, 0
1, 154200, Note_on_c, 0, 72, 38
1, 154320, Tempo, 424028
1, 154320, Note_on_c, 0, 72, 0
1, 154320, Note_on_c, 0, 69, 38
1, 154440, Note_on_c, 0, 69, 0
1, 154440, Note_on_c, 0, 74, 38
1, 154560, Note_on_c, 0, 74, 0
1, 154560, Note_on_c, 0, 64, 0
1, 154560, Note_on_c, 0, 60, 0
1, 154560, Note_on_c, 0, 71, 38
1, 154560, Note_on_c, 0, 62, 24
1, 154560, Note_on_c, 0, 65, 29
1, 154569, Control_c, 0, 64, 0
1, 154629, Control_c, 0, 64, 127
1, 154680, Note_on_c, 0, 71, 0
1, 154680, Note_on_c, 0, 68, 37
1, 154800, Tempo, 410959
1, 154800, Note_on_c, 0, 68, 0
1, 154800, Note_on_c, 0, 76, 44
1, 154920, Note_on_c, 0, 76, 0
1, 154920, Note_on_c, 0, 72, 37
1, 155040, Tempo, 421053
1, 155040, Note_on_c, 0, 72, 0
1, 155040, Note_on_c, 0, 65, 0
1, 155040, Note_on_c, 0, 62, 0
1, 155040, Note_on_c, 0, 69, 37
1, 155040, Note_on_c, 0, 60, 24
1, 155040, Note_on_c, 0, 64, 28
1, 155050, Control_c, 0, 64, 0
1, 155097, Control_c, 0, 64, 127
1, 155160, Note_on_c, 0, 69, 0
1, 155160, Note_on_c, 0, 74, 37
1, 155280, Note_on_c, 0, 74, 0
1, 155280, Note_on_c, 0, 64, 0
1, 155280, Note_on_c, 0, 60, 0
1, 155280, Note_on_c, 0, 71, 37
1, 155280, Note_on_c, 0, 62, 24
1, 155280, Note_on_c, 0, 65, 28
1, 155400, Note_on_c, 0, 71, 0
1, 155400, Note_on_c, 0, 68, 37
1, 155520, Tempo, 431655
1, 155520, Note_on_c, 0, 68, 0
1, 155520, Note_on_c, 0, 65, 0
1, 155520, Note_on_c, 0, 62, 0
1, 155520, Note_on_c, 0, 57, 0
1, 155520, Note_on_c, 0, 76, 41
1, 155520, Note_on_c, 0, 64, 32
1, 155520, Note_on_c, 0, 60, 25
1, 155520, Note_on_c, 0, 57, 25
1, 155530, Control_c, 0, 64, 0
1, 155595, Control_c, 0, 64, 127
1, 155640, Note_on_c, 0, 76, 0
1, 155640, Note_on_c, 0, 72, 35
1, 155760, Note_on_c, 0, 72, 0
1, 155760, Note_on_c, 0, 69, 35
1, 155880, Note_on_c, 0, 69, 0
1, 155880, Note_on_c, 0, 76, 35
1, 156000, Tempo, 425532
1, 156000, Note_on_c, 0, 76, 0
1, 156000, Note_on_c, 0, 72, 35
1, 156120, Note_on_c, 0, 72, 0
1, 156120, Note_on_c, 0, 69, 34
1, 156200, Tempo, 427046
1, 156240, Note_on_c, 0, 69, 0
1, 156240, Note_on_c, 0, 76, 42
1, 156360, Note_on_c, 0, 76, 0
1, 156360, Note_on_c, 0, 72, 35
1, 156400, Tempo, 428571
1, 156480, Note_on_c, 0, 72, 0
1, 156480, Note_on_c, 0, 69, 35
1, 156600, Tempo, 430108
1, 156600, Note_on_c, 0, 69, 0
1, 156600, Note_on_c, 0, 76, 35
1, 156720, Note_on_c, 0, 76, 0
1, 156720, Note_on_c, 0, 72, 36
1, 156800, Tempo, 431655
1, 156840, Note_on_c, 0, 72, 0
1, 156840, Note_on_c, 0, 69, 36
1, 156960, Note_on_c, 0, 69, 0
1, 156960, Note_on_c, 0, 76, 41
1, 157000, Tempo, 433213
1, 157080, Note_on_c, 0, 76, 0
1, 157080, Note_on_c, 0, 72, 36
1, 157200, Tempo, 434783
1, 157200, Note_on_c, 0, 72, 0
1, 157200, Note_on_c, 0, 69, 36
1, 157320, Note_on_c, 0, 69, 0
1, 157320, Note_on_c, 0, 76, 36
1, 157400, Tempo, 436364
1, 157440, Tempo, 437956
1, 157440, Note_on_c, 0, 76, 0
1, 157440, Note_on_c, 0, 72, 36
1, 157560, Tempo, 439560
1, 157560, Note_on_c, 0, 72, 0
1, 157560, Note_on_c, 0, 69, 34
1, 157640, Tempo, 441176
1, 157680, Note_on_c, 0, 69, 0
1, 157680, Note_on_c, 0, 76, 39
1, 157720, Tempo, 442804
1, 157800, Tempo, 444444
1, 157800, Note_on_c, 0, 76, 0
1, 157800, Note_on_c, 0, 72, 33
1, 157880, Tempo, 446097
1, 157920, Note_on_c, 0, 72, 0
1, 157920, Note_on_c, 0, 69, 33
1, 158000, Tempo, 447761
1, 158040, Note_on_c, 0, 69, 0
1, 158040, Note_on_c, 0, 76, 33
1, 158080, Tempo, 449438
1, 158160, Tempo, 451128
1, 158160, Note_on_c, 0, 76, 0
1, 158160, Note_on_c, 0, 72, 33
1, 158240, Tempo, 452830
1, 158280, Note_on_c, 0, 72, 0
1, 158280, Note_on_c, 0, 69, 33
1, 158320, Tempo, 454545
1, 158400, Note_on_c, 0, 69, 0
1, 158400, Note_on_c, 0, 76, 38
1, 158400, Note_on_c, 0, 33, 25
1, 158400, Note_on_c, 0, 45, 31
1, 158440, Tempo, 456274
1, 158520, Tempo, 458015
1, 158600, Tempo, 459770
1, 158680, Tempo, 461538
1, 158760, Tempo, 463320
1, 158840, Tempo, 465116
1, 158880, Tempo, 485830
1, 159360, Tempo, 560748
1, 159360, Note_on_c, 0, 76, 0
1, 159360, Note_on_c, 0, 72, 35
1, 159840, Tempo, 600000
1, 159840, Note_on_c, 0, 72, 0
1, 159840, Note_on_c, 0, 69, 35
1, 161280, Note_on_c, 0, 69, 0
1, 161280, Note_on_c, 0, 60, 0
1, 161280, Note_on_c, 0, 57, 0
1, 161280, Note_on_c, 0, 64, 0
1, 161280, Note_on_c, 0, 45, 0
1, 161280, Note_on_c, 0, 33, 0
1, 162827, Control_c, 0, 64, 0
1, 163200, Tempo, 545455
1, 163200, End_track
0, 0, End_of_file
