0, 0, Header, 0, 1, 480
1, 0, Start_track
1, 0, Title_t, "Sonata No.14 in cis-Moll, Op. 27/2 - 2. Satz"
1, 0, Title_t, "Mondscheinsonate; der Gräfin Giulietta Guiccardi gewidmet"
1, 0, Copyright_t, "Copyright Bernd Krueger  http://www.piano-midi.de"
1, 0, Text_t, "Ludwig van Beethoven"
1, 0, Text_t, "Fertiggestellt am 25.10.97\012"
1, 0, Text_t, "Pan's auf Standard am 18.1.98\012"
1, 0, Text_t, "Tempoänderungen am 31.1.98\012"
1, 0, Text_t, "Update am 17.8.99\012"
1, 0, Text_t, "Update am 8.1.00\012"
1, 0, Text_t, "Normierung: 23.12.2002\012"
1, 0, Text_t, "Update am 5.6.2012\012"
1, 0, Text_t, "Dauer: 2:04 Minuten\012"
1, 0, Time_signature, 3, 2, 24, 8
1, 0, Key_signature, -5, "major"
1, 0, Tempo, 285714
1, 0, Program_c, 0, 0
1, 0, Control_c, 0, 7, 100
1, 0, Control_c, 0, 10, 64
1, 0, Control_c, 0, 91, 127
1, 0, Text_t, "bdca426d104a26ac9dcb070447587523"
1, 0, Program_c, 0, 0
1, 0, Control_c, 0, 7, 100
1, 0, Control_c, 0, 10, 64
1, 0, Control_c, 0, 64, 0
1, 959, Control_c, 0, 91, 127
1, 959, Control_c, 0, 91, 127
1, 960, Marker_t, "Allegretto"
1, 960, Note_on_c, 0, 68, 62
1, 960, Note_on_c, 0, 73, 62
1, 960, Note_on_c, 0, 65, 52
1, 1440, Tempo, 286205
1, 1440, Note_on_c, 0, 65, 0
1, 1440, Note_on_c, 0, 73, 0
1, 1440, Note_on_c, 0, 68, 0
1, 1441, Note_on_c, 0, 72, 65
1, 1441, Note_on_c, 0, 68, 65
1, 1441, Note_on_c, 0, 63, 55
1, 2400, Tempo, 288962
1, 2400, Note_on_c, 0, 67, 58
1, 2400, Note_on_c, 0, 70, 58
1, 2400, Note_on_c, 0, 61, 49
1, 2401, Note_on_c, 0, 63, 0
1, 2401, Note_on_c, 0, 72, 0
1, 2401, Note_on_c, 0, 68, 0
1, 2880, Note_on_c, 0, 67, 0
1, 2880, Note_on_c, 0, 70, 0
1, 2880, Note_on_c, 0, 61, 0
1, 2880, Note_on_c, 0, 68, 54
1, 2880, Note_on_c, 0, 75, 54
1, 2880, Note_on_c, 0, 60, 46
1, 2970, Note_on_c, 0, 60, 0
1, 2970, Note_on_c, 0, 75, 0
1, 2970, Note_on_c, 0, 68, 0
1, 3840, Tempo, 278966
1, 3840, Note_on_c, 0, 65, 53
1, 3840, Note_on_c, 0, 73, 53
1, 3840, Note_on_c, 0, 49, 44
1, 3840, Note_on_c, 0, 58, 44
1, 3930, Note_on_c, 0, 58, 0
1, 3930, Note_on_c, 0, 65, 0
1, 3930, Note_on_c, 0, 73, 0
1, 3930, Note_on_c, 0, 49, 0
1, 4320, Tempo, 282247
1, 4320, Note_on_c, 0, 68, 53
1, 4320, Note_on_c, 0, 72, 53
1, 4320, Note_on_c, 0, 63, 45
1, 4320, Note_on_c, 0, 51, 45
1, 4410, Note_on_c, 0, 51, 0
1, 4410, Note_on_c, 0, 68, 0
1, 4410, Note_on_c, 0, 72, 0
1, 4410, Note_on_c, 0, 63, 0
1, 4800, Tempo, 280191
1, 5280, Tempo, 287770
1, 5280, Note_on_c, 0, 67, 52
1, 5280, Note_on_c, 0, 70, 52
1, 5280, Note_on_c, 0, 51, 42
1, 5280, Note_on_c, 0, 61, 42
1, 5370, Note_on_c, 0, 61, 0
1, 5370, Note_on_c, 0, 67, 0
1, 5370, Note_on_c, 0, 70, 0
1, 5370, Note_on_c, 0, 51, 0
1, 5760, Note_on_c, 0, 68, 51
1, 5760, Note_on_c, 0, 56, 41
1, 5760, Note_on_c, 0, 60, 41
1, 5850, Note_on_c, 0, 60, 0
1, 5850, Note_on_c, 0, 56, 0
1, 5850, Note_on_c, 0, 68, 0
1, 6720, Tempo, 286205
1, 6720, Note_on_c, 0, 73, 65
1, 6720, Note_on_c, 0, 78, 65
1, 6720, Note_on_c, 0, 70, 55
1, 7200, Note_on_c, 0, 70, 0
1, 7200, Note_on_c, 0, 78, 0
1, 7200, Note_on_c, 0, 73, 0
1, 7200, Note_on_c, 0, 73, 65
1, 7200, Note_on_c, 0, 77, 65
1, 7200, Note_on_c, 0, 68, 55
1, 8160, Tempo, 288962
1, 8160, Note_on_c, 0, 68, 0
1, 8160, Note_on_c, 0, 77, 0
1, 8160, Note_on_c, 0, 73, 0
1, 8160, Note_on_c, 0, 72, 61
1, 8160, Note_on_c, 0, 75, 61
1, 8160, Note_on_c, 0, 66, 52
1, 8640, Note_on_c, 0, 66, 0
1, 8640, Note_on_c, 0, 75, 0
1, 8640, Note_on_c, 0, 72, 0
1, 8640, Note_on_c, 0, 73, 56
1, 8640, Note_on_c, 0, 80, 56
1, 8640, Note_on_c, 0, 65, 47
1, 8730, Note_on_c, 0, 65, 0
1, 8730, Note_on_c, 0, 80, 0
1, 8730, Note_on_c, 0, 73, 0
1, 9600, Tempo, 279616
1, 9600, Note_on_c, 0, 70, 55
1, 9600, Note_on_c, 0, 78, 55
1, 9600, Note_on_c, 0, 54, 47
1, 9600, Note_on_c, 0, 63, 47
1, 9690, Note_on_c, 0, 63, 0
1, 9690, Note_on_c, 0, 70, 0
1, 9690, Note_on_c, 0, 78, 0
1, 9690, Note_on_c, 0, 54, 0
1, 10080, Tempo, 282912
1, 10080, Note_on_c, 0, 73, 55
1, 10080, Note_on_c, 0, 77, 55
1, 10080, Note_on_c, 0, 56, 47
1, 10080, Note_on_c, 0, 68, 47
1, 10170, Note_on_c, 0, 68, 0
1, 10170, Note_on_c, 0, 73, 0
1, 10170, Note_on_c, 0, 77, 0
1, 10170, Note_on_c, 0, 56, 0
1, 10560, Tempo, 280846
1, 11040, Tempo, 287770
1, 11040, Note_on_c, 0, 72, 53
1, 11040, Note_on_c, 0, 75, 53
1, 11040, Note_on_c, 0, 56, 45
1, 11040, Note_on_c, 0, 66, 45
1, 11130, Note_on_c, 0, 66, 0
1, 11130, Note_on_c, 0, 72, 0
1, 11130, Note_on_c, 0, 75, 0
1, 11130, Note_on_c, 0, 56, 0
1, 11520, Note_on_c, 0, 73, 50
1, 11520, Note_on_c, 0, 61, 44
1, 11520, Note_on_c, 0, 65, 44
1, 11610, Note_on_c, 0, 65, 0
1, 11610, Note_on_c, 0, 61, 0
1, 11610, Note_on_c, 0, 73, 0
1, 12480, Tempo, 280767
1, 12480, Note_on_c, 0, 61, 65
1, 12480, Note_on_c, 0, 73, 65
1, 12480, Note_on_c, 0, 53, 47
1, 12480, Note_on_c, 0, 56, 47
1, 12960, Tempo, 284091
1, 12960, Note_on_c, 0, 56, 0
1, 12960, Note_on_c, 0, 53, 0
1, 12960, Note_on_c, 0, 51, 55
1, 12960, Note_on_c, 0, 56, 55
1, 13440, Tempo, 284172
1, 13440, Note_on_c, 0, 73, 0
1, 13440, Note_on_c, 0, 61, 0
1, 13440, Note_on_c, 0, 60, 65
1, 13440, Note_on_c, 0, 72, 65
1, 13920, Tempo, 287577
1, 13920, Note_on_c, 0, 72, 0
1, 13920, Note_on_c, 0, 56, 0
1, 13920, Note_on_c, 0, 51, 0
1, 13920, Note_on_c, 0, 60, 0
1, 13920, Note_on_c, 0, 58, 65
1, 13920, Note_on_c, 0, 70, 65
1, 13920, Note_on_c, 0, 55, 49
1, 13920, Note_on_c, 0, 49, 49
1, 14400, Tempo, 283688
1, 14400, Note_on_c, 0, 49, 0
1, 14400, Note_on_c, 0, 55, 0
1, 14400, Note_on_c, 0, 58, 0
1, 14400, Note_on_c, 0, 63, 65
1, 14400, Note_on_c, 0, 48, 55
1, 14400, Note_on_c, 0, 60, 55
1, 14880, Note_on_c, 0, 60, 0
1, 14880, Note_on_c, 0, 70, 0
1, 14880, Note_on_c, 0, 63, 0
1, 14880, Note_on_c, 0, 48, 0
1, 14880, Note_on_c, 0, 75, 65
1, 15000, Note_on_c, 0, 75, 0
1, 15360, Tempo, 283514
1, 15360, Note_on_c, 0, 73, 62
1, 15360, Note_on_c, 0, 65, 62
1, 15360, Note_on_c, 0, 49, 48
1, 15360, Note_on_c, 0, 58, 48
1, 15600, Note_on_c, 0, 58, 0
1, 15600, Note_on_c, 0, 49, 0
1, 15840, Note_on_c, 0, 65, 0
1, 15840, Note_on_c, 0, 68, 62
1, 15840, Note_on_c, 0, 51, 52
1, 15840, Note_on_c, 0, 63, 52
1, 16080, Note_on_c, 0, 63, 0
1, 16080, Note_on_c, 0, 51, 0
1, 16320, Note_on_c, 0, 68, 0
1, 16320, Note_on_c, 0, 73, 0
1, 16320, Note_on_c, 0, 72, 62
1, 16800, Tempo, 282832
1, 16800, Note_on_c, 0, 72, 0
1, 16800, Note_on_c, 0, 67, 58
1, 16800, Note_on_c, 0, 70, 58
1, 16800, Note_on_c, 0, 51, 45
1, 16800, Note_on_c, 0, 61, 45
1, 17040, Note_on_c, 0, 61, 0
1, 17040, Note_on_c, 0, 51, 0
1, 17280, Note_on_c, 0, 67, 0
1, 17280, Note_on_c, 0, 56, 48
1, 17280, Note_on_c, 0, 60, 48
1, 17520, Note_on_c, 0, 60, 0
1, 17520, Note_on_c, 0, 56, 0
1, 17760, Note_on_c, 0, 70, 0
1, 17760, Note_on_c, 0, 68, 56
1, 18000, Note_on_c, 0, 68, 0
1, 18240, Tempo, 287577
1, 18240, Note_on_c, 0, 66, 66
1, 18240, Note_on_c, 0, 78, 66
1, 18240, Note_on_c, 0, 58, 49
1, 18240, Note_on_c, 0, 61, 49
1, 18720, Note_on_c, 0, 61, 0
1, 18720, Note_on_c, 0, 58, 0
1, 18720, Note_on_c, 0, 56, 56
1, 18720, Note_on_c, 0, 61, 56
1, 19200, Note_on_c, 0, 78, 0
1, 19200, Note_on_c, 0, 66, 0
1, 19200, Note_on_c, 0, 65, 65
1, 19200, Note_on_c, 0, 77, 65
1, 19680, Tempo, 288962
1, 19680, Note_on_c, 0, 77, 0
1, 19680, Note_on_c, 0, 61, 0
1, 19680, Note_on_c, 0, 56, 0
1, 19680, Note_on_c, 0, 65, 0
1, 19680, Note_on_c, 0, 63, 65
1, 19680, Note_on_c, 0, 75, 65
1, 19680, Note_on_c, 0, 54, 55
1, 19680, Note_on_c, 0, 60, 55
1, 20160, Tempo, 282353
1, 20160, Note_on_c, 0, 60, 0
1, 20160, Note_on_c, 0, 54, 0
1, 20160, Note_on_c, 0, 63, 0
1, 20160, Note_on_c, 0, 68, 73
1, 20160, Note_on_c, 0, 53, 60
1, 20160, Note_on_c, 0, 65, 60
1, 20640, Note_on_c, 0, 65, 0
1, 20640, Note_on_c, 0, 75, 0
1, 20640, Note_on_c, 0, 68, 0
1, 20640, Note_on_c, 0, 53, 0
1, 20640, Note_on_c, 0, 80, 73
1, 20760, Note_on_c, 0, 80, 0
1, 21120, Tempo, 283514
1, 21120, Note_on_c, 0, 70, 62
1, 21120, Note_on_c, 0, 78, 62
1, 21120, Note_on_c, 0, 54, 46
1, 21120, Note_on_c, 0, 63, 46
1, 21360, Note_on_c, 0, 63, 0
1, 21360, Note_on_c, 0, 54, 0
1, 21600, Note_on_c, 0, 70, 0
1, 21600, Note_on_c, 0, 73, 62
1, 21600, Note_on_c, 0, 56, 52
1, 21600, Note_on_c, 0, 68, 52
1, 21840, Note_on_c, 0, 68, 0
1, 21840, Note_on_c, 0, 56, 0
1, 22080, Note_on_c, 0, 73, 0
1, 22080, Note_on_c, 0, 78, 0
1, 22080, Note_on_c, 0, 77, 62
1, 22560, Tempo, 284846
1, 22560, Note_on_c, 0, 77, 0
1, 22560, Note_on_c, 0, 75, 62
1, 22560, Note_on_c, 0, 72, 62
1, 22560, Note_on_c, 0, 56, 45
1, 22560, Note_on_c, 0, 66, 45
1, 22800, Note_on_c, 0, 66, 0
1, 22800, Note_on_c, 0, 56, 0
1, 23040, Note_on_c, 0, 72, 0
1, 23040, Note_on_c, 0, 61, 47
1, 23040, Note_on_c, 0, 65, 47
1, 23280, Note_on_c, 0, 65, 0
1, 23280, Note_on_c, 0, 61, 0
1, 23520, Note_on_c, 0, 75, 0
1, 23520, Note_on_c, 0, 73, 59
1, 23760, Note_on_c, 0, 73, 0
1, 24000, Tempo, 286205
1, 24000, Note_on_c, 0, 73, 53
1, 24000, Note_on_c, 0, 65, 53
1, 24000, Note_on_c, 0, 61, 46
1, 24113, Control_c, 0, 64, 127
1, 24480, Note_on_c, 0, 61, 0
1, 24480, Note_on_c, 0, 65, 0
1, 24480, Note_on_c, 0, 73, 0
1, 24480, Note_on_c, 0, 73, 58
1, 24480, Note_on_c, 0, 65, 58
1, 24480, Note_on_c, 0, 58, 50
1, 25440, Note_on_c, 0, 58, 0
1, 25440, Note_on_c, 0, 65, 0
1, 25440, Note_on_c, 0, 73, 0
1, 25440, Note_on_c, 0, 65, 57
1, 25440, Note_on_c, 0, 73, 57
1, 25440, Note_on_c, 0, 56, 50
1, 25920, Note_on_c, 0, 56, 0
1, 25920, Note_on_c, 0, 73, 0
1, 25920, Note_on_c, 0, 65, 0
1, 25920, Note_on_c, 0, 63, 57
1, 25920, Note_on_c, 0, 73, 57
1, 25920, Note_on_c, 0, 55, 50
1, 25928, Control_c, 0, 64, 0
1, 26400, Note_on_c, 0, 55, 0
1, 26400, Note_on_c, 0, 73, 0
1, 26400, Note_on_c, 0, 72, 58
1, 26400, Note_on_c, 0, 56, 47
1, 26640, Note_on_c, 0, 56, 0
1, 26640, Note_on_c, 0, 72, 0
1, 26880, Tempo, 291050
1, 26880, Note_on_c, 0, 63, 0
1, 26880, Note_on_c, 0, 63, 58
1, 26880, Note_on_c, 0, 71, 58
1, 26880, Note_on_c, 0, 56, 47
1, 27040, Control_c, 0, 64, 127
1, 27360, Note_on_c, 0, 56, 0
1, 27360, Note_on_c, 0, 71, 0
1, 27360, Note_on_c, 0, 63, 0
1, 27360, Note_on_c, 0, 63, 58
1, 27360, Note_on_c, 0, 71, 58
1, 27360, Note_on_c, 0, 56, 47
1, 28320, Note_on_c, 0, 56, 0
1, 28320, Note_on_c, 0, 71, 0
1, 28320, Note_on_c, 0, 63, 0
1, 28320, Note_on_c, 0, 63, 56
1, 28320, Note_on_c, 0, 71, 56
1, 28320, Note_on_c, 0, 54, 47
1, 28800, Note_on_c, 0, 54, 0
1, 28800, Note_on_c, 0, 71, 0
1, 28800, Note_on_c, 0, 63, 0
1, 28800, Note_on_c, 0, 63, 56
1, 28800, Note_on_c, 0, 71, 56
1, 28800, Note_on_c, 0, 53, 48
1, 28818, Control_c, 0, 64, 0
1, 29280, Note_on_c, 0, 53, 0
1, 29280, Note_on_c, 0, 71, 0
1, 29280, Note_on_c, 0, 70, 56
1, 29280, Note_on_c, 0, 54, 48
1, 29520, Note_on_c, 0, 54, 0
1, 29520, Note_on_c, 0, 70, 0
1, 29760, Note_on_c, 0, 63, 0
1, 29760, Note_on_c, 0, 61, 65
1, 29760, Note_on_c, 0, 70, 65
1, 29760, Note_on_c, 0, 54, 55
1, 29768, Tempo, 286205
1, 29912, Tempo, 287577
1, 29920, Control_c, 0, 64, 127
1, 29992, Tempo, 288962
1, 30080, Tempo, 290360
1, 30240, Note_on_c, 0, 54, 0
1, 30240, Note_on_c, 0, 70, 0
1, 30240, Note_on_c, 0, 61, 0
1, 30240, Note_on_c, 0, 66, 75
1, 30240, Note_on_c, 0, 72, 75
1, 30240, Note_on_c, 0, 51, 58
1, 30240, Note_on_c, 0, 56, 58
1, 30240, Control_c, 0, 64, 0
1, 30264, Tempo, 291744
1, 30320, Tempo, 293169
1, 30376, Tempo, 294623
1, 30408, Tempo, 296092
1, 30448, Tempo, 297545
1, 30472, Tempo, 299013
1, 30507, Control_c, 0, 64, 127
1, 30520, Tempo, 300511
1, 30544, Tempo, 302039
1, 30592, Tempo, 303567
1, 30624, Tempo, 305095
1, 30688, Tempo, 306654
1, 30752, Tempo, 308214
1, 30816, Tempo, 309805
1, 30992, Tempo, 311429
1, 31056, Tempo, 313054
1, 31080, Tempo, 314680
1, 31128, Tempo, 316339
1, 31184, Tempo, 318016
1, 31200, Note_on_c, 0, 56, 0
1, 31200, Note_on_c, 0, 66, 0
1, 31200, Note_on_c, 0, 72, 0
1, 31200, Note_on_c, 0, 51, 0
1, 31200, Note_on_c, 0, 65, 78
1, 31200, Note_on_c, 0, 73, 78
1, 31200, Note_on_c, 0, 49, 65
1, 31200, Note_on_c, 0, 56, 65
1, 31216, Tempo, 319693
1, 31220, Control_c, 0, 64, 0
1, 31264, Tempo, 321423
1, 31328, Tempo, 323137
1, 31352, Tempo, 324886
1, 31400, Tempo, 326655
1, 31414, Control_c, 0, 64, 127
1, 31448, Tempo, 328443
1, 31472, Tempo, 330233
1, 31512, Tempo, 332079
1, 31576, Tempo, 333927
1, 31680, Note_on_c, 0, 56, 0
1, 31680, Note_on_c, 0, 65, 0
1, 31680, Note_on_c, 0, 73, 0
1, 31680, Note_on_c, 0, 49, 0
1, 31680, Note_on_c, 0, 66, 90
1, 31680, Note_on_c, 0, 75, 90
1, 31680, Note_on_c, 0, 48, 73
1, 31680, Note_on_c, 0, 56, 73
1, 31687, Control_c, 0, 64, 0
1, 31920, Control_c, 0, 64, 127
1, 32640, Note_on_c, 0, 75, 0
1, 32640, Note_on_c, 0, 66, 0
1, 32640, Note_on_c, 0, 63, 77
1, 32640, Note_on_c, 0, 66, 77
1, 32657, Control_c, 0, 64, 0
1, 32934, Control_c, 0, 64, 127
1, 33112, Tempo, 286205
1, 33120, Note_on_c, 0, 48, 0
1, 33120, Note_on_c, 0, 56, 0
1, 33120, Note_on_c, 0, 49, 56
1, 33120, Note_on_c, 0, 56, 56
1, 33600, Note_on_c, 0, 63, 0
1, 33600, Note_on_c, 0, 66, 0
1, 33600, Note_on_c, 0, 61, 65
1, 33600, Note_on_c, 0, 65, 65
1, 33618, Control_c, 0, 64, 0
1, 33741, Control_c, 0, 64, 127
1, 34080, Tempo, 319693
1, 34080, Note_on_c, 0, 65, 0
1, 34080, Note_on_c, 0, 56, 0
1, 34080, Note_on_c, 0, 49, 0
1, 34080, Note_on_c, 0, 61, 0
1, 34080, Note_on_c, 0, 70, 65
1, 34080, Note_on_c, 0, 58, 65
1, 34080, Note_on_c, 0, 54, 55
1, 34080, Note_on_c, 0, 42, 55
1, 34099, Control_c, 0, 64, 0
1, 34221, Control_c, 0, 64, 127
1, 34320, Note_on_c, 0, 54, 0
1, 34320, Note_on_c, 0, 70, 0
1, 34320, Note_on_c, 0, 66, 65
1, 34320, Note_on_c, 0, 51, 55
1, 34560, Note_on_c, 0, 51, 0
1, 34560, Note_on_c, 0, 42, 0
1, 34560, Note_on_c, 0, 58, 0
1, 34560, Note_on_c, 0, 66, 0
1, 34560, Note_on_c, 0, 61, 71
1, 34560, Note_on_c, 0, 65, 71
1, 34560, Note_on_c, 0, 42, 55
1, 34560, Note_on_c, 0, 56, 55
1, 34560, Control_c, 0, 64, 0
1, 34854, Control_c, 0, 64, 127
1, 35040, Tempo, 355661
1, 35040, Note_on_c, 0, 65, 0
1, 35040, Note_on_c, 0, 61, 0
1, 35040, Note_on_c, 0, 60, 65
1, 35040, Note_on_c, 0, 63, 65
1, 35055, Control_c, 0, 64, 0
1, 35280, Note_on_c, 0, 63, 0
1, 35280, Note_on_c, 0, 56, 0
1, 35280, Note_on_c, 0, 42, 0
1, 35280, Note_on_c, 0, 60, 0
1, 35520, Note_on_c, 0, 61, 65
1, 35520, Note_on_c, 0, 73, 65
1, 35520, Note_on_c, 0, 53, 51
1, 35520, Note_on_c, 0, 56, 51
1, 35528, Tempo, 286205
1, 36000, Note_on_c, 0, 56, 0
1, 36000, Note_on_c, 0, 61, 0
1, 36000, Note_on_c, 0, 73, 0
1, 36000, Note_on_c, 0, 53, 0
1, 36000, Note_on_c, 0, 60, 66
1, 36000, Note_on_c, 0, 72, 66
1, 36000, Note_on_c, 0, 51, 56
1, 36000, Note_on_c, 0, 56, 56
1, 36960, Tempo, 288962
1, 36960, Note_on_c, 0, 56, 0
1, 36960, Note_on_c, 0, 60, 0
1, 36960, Note_on_c, 0, 72, 0
1, 36960, Note_on_c, 0, 51, 0
1, 36960, Note_on_c, 0, 70, 61
1, 36960, Note_on_c, 0, 58, 61
1, 36960, Note_on_c, 0, 49, 47
1, 36960, Note_on_c, 0, 55, 47
1, 37440, Note_on_c, 0, 55, 0
1, 37440, Note_on_c, 0, 70, 0
1, 37440, Note_on_c, 0, 58, 0
1, 37440, Note_on_c, 0, 49, 0
1, 37440, Note_on_c, 0, 63, 59
1, 37440, Note_on_c, 0, 75, 59
1, 37440, Note_on_c, 0, 48, 49
1, 37440, Note_on_c, 0, 60, 49
1, 37530, Note_on_c, 0, 60, 0
1, 37530, Note_on_c, 0, 63, 0
1, 37530, Note_on_c, 0, 75, 0
1, 37530, Note_on_c, 0, 48, 0
1, 38400, Tempo, 276396
1, 38400, Note_on_c, 0, 65, 64
1, 38400, Note_on_c, 0, 73, 64
1, 38400, Note_on_c, 0, 49, 48
1, 38400, Note_on_c, 0, 58, 48
1, 38640, Note_on_c, 0, 58, 0
1, 38640, Note_on_c, 0, 49, 0
1, 38880, Tempo, 280925
1, 38880, Note_on_c, 0, 65, 0
1, 38880, Note_on_c, 0, 68, 64
1, 38880, Note_on_c, 0, 51, 54
1, 38880, Note_on_c, 0, 63, 54
1, 39120, Note_on_c, 0, 63, 0
1, 39120, Note_on_c, 0, 51, 0
1, 39360, Tempo, 278888
1, 39360, Note_on_c, 0, 68, 0
1, 39360, Note_on_c, 0, 73, 0
1, 39360, Note_on_c, 0, 72, 64
1, 39840, Tempo, 282194
1, 39840, Note_on_c, 0, 72, 0
1, 39840, Note_on_c, 0, 67, 60
1, 39840, Note_on_c, 0, 70, 60
1, 39840, Note_on_c, 0, 51, 47
1, 39840, Note_on_c, 0, 61, 47
1, 40080, Note_on_c, 0, 61, 0
1, 40080, Note_on_c, 0, 51, 0
1, 40320, Note_on_c, 0, 67, 0
1, 40320, Note_on_c, 0, 56, 51
1, 40320, Note_on_c, 0, 60, 51
1, 40560, Note_on_c, 0, 60, 0
1, 40560, Note_on_c, 0, 56, 0
1, 40800, Note_on_c, 0, 70, 0
1, 40800, Note_on_c, 0, 68, 60
1, 41040, Note_on_c, 0, 68, 0
1, 41280, Tempo, 286889
1, 41280, Note_on_c, 0, 66, 64
1, 41280, Note_on_c, 0, 78, 64
1, 41280, Note_on_c, 0, 58, 49
1, 41280, Note_on_c, 0, 61, 49
1, 41760, Note_on_c, 0, 61, 0
1, 41760, Note_on_c, 0, 66, 0
1, 41760, Note_on_c, 0, 78, 0
1, 41760, Note_on_c, 0, 58, 0
1, 41760, Note_on_c, 0, 65, 65
1, 41760, Note_on_c, 0, 77, 65
1, 41760, Note_on_c, 0, 56, 56
1, 41760, Note_on_c, 0, 61, 56
1, 42720, Tempo, 288268
1, 42720, Note_on_c, 0, 61, 0
1, 42720, Note_on_c, 0, 65, 0
1, 42720, Note_on_c, 0, 77, 0
1, 42720, Note_on_c, 0, 56, 0
1, 42720, Note_on_c, 0, 63, 64
1, 42720, Note_on_c, 0, 75, 64
1, 42720, Note_on_c, 0, 54, 49
1, 42720, Note_on_c, 0, 60, 49
1, 43200, Note_on_c, 0, 60, 0
1, 43200, Note_on_c, 0, 63, 0
1, 43200, Note_on_c, 0, 75, 0
1, 43200, Note_on_c, 0, 54, 0
1, 43200, Note_on_c, 0, 68, 62
1, 43200, Note_on_c, 0, 80, 62
1, 43200, Note_on_c, 0, 53, 53
1, 43200, Note_on_c, 0, 61, 53
1, 43290, Note_on_c, 0, 61, 0
1, 43290, Note_on_c, 0, 68, 0
1, 43290, Note_on_c, 0, 80, 0
1, 43290, Note_on_c, 0, 53, 0
1, 44160, Tempo, 277034
1, 44160, Note_on_c, 0, 66, 64
1, 44160, Note_on_c, 0, 78, 64
1, 44160, Note_on_c, 0, 58, 47
1, 44160, Note_on_c, 0, 61, 47
1, 44640, Tempo, 284252
1, 44640, Note_on_c, 0, 61, 0
1, 44640, Note_on_c, 0, 58, 0
1, 44640, Note_on_c, 0, 56, 55
1, 44640, Note_on_c, 0, 61, 55
1, 45120, Tempo, 279460
1, 45120, Note_on_c, 0, 78, 0
1, 45120, Note_on_c, 0, 66, 0
1, 45120, Note_on_c, 0, 65, 64
1, 45120, Note_on_c, 0, 77, 64
1, 45600, Tempo, 288268
1, 45600, Note_on_c, 0, 77, 0
1, 45600, Note_on_c, 0, 61, 0
1, 45600, Note_on_c, 0, 56, 0
1, 45600, Note_on_c, 0, 65, 0
1, 45600, Note_on_c, 0, 63, 64
1, 45600, Note_on_c, 0, 75, 64
1, 45600, Note_on_c, 0, 54, 47
1, 45600, Note_on_c, 0, 60, 47
1, 45840, Note_on_c, 0, 75, 0
1, 45840, Note_on_c, 0, 63, 0
1, 46080, Note_on_c, 0, 54, 0
1, 46080, Note_on_c, 0, 60, 0
1, 46080, Note_on_c, 0, 68, 65
1, 46080, Note_on_c, 0, 80, 65
1, 46080, Note_on_c, 0, 53, 56
1, 46080, Note_on_c, 0, 61, 56
1, 46170, Note_on_c, 0, 61, 0
1, 46170, Note_on_c, 0, 68, 0
1, 46170, Note_on_c, 0, 80, 0
1, 46170, Note_on_c, 0, 53, 0
1, 47040, Note_on_c, 0, 66, 74
1, 47040, Note_on_c, 0, 78, 74
1, 47040, Note_on_c, 0, 58, 54
1, 47040, Note_on_c, 0, 61, 54
1, 47080, Tempo, 286232
1, 47440, Tempo, 287577
1, 47464, Tempo, 288962
1, 47512, Tempo, 290360
1, 47520, Note_on_c, 0, 61, 0
1, 47520, Note_on_c, 0, 58, 0
1, 47520, Note_on_c, 0, 56, 61
1, 47520, Note_on_c, 0, 61, 61
1, 47672, Tempo, 291744
1, 47776, Tempo, 293169
1, 47824, Tempo, 294623
1, 47864, Tempo, 296092
1, 47928, Tempo, 297545
1, 47976, Tempo, 299013
1, 47992, Tempo, 300511
1, 48000, Note_on_c, 0, 78, 0
1, 48000, Note_on_c, 0, 66, 0
1, 48000, Note_on_c, 0, 65, 80
1, 48000, Note_on_c, 0, 77, 80
1, 48040, Tempo, 302039
1, 48056, Tempo, 303567
1, 48088, Tempo, 305095
1, 48112, Tempo, 306654
1, 48144, Tempo, 308214
1, 48208, Tempo, 311429
1, 48232, Tempo, 313054
1, 48264, Tempo, 314680
1, 48288, Tempo, 316339
1, 48336, Tempo, 318016
1, 48368, Tempo, 321423
1, 48392, Tempo, 323137
1, 48424, Tempo, 324886
1, 48432, Tempo, 326655
1, 48456, Tempo, 328443
1, 48480, Note_on_c, 0, 77, 0
1, 48480, Note_on_c, 0, 61, 0
1, 48480, Note_on_c, 0, 56, 0
1, 48480, Note_on_c, 0, 65, 0
1, 48480, Note_on_c, 0, 70, 97
1, 48480, Note_on_c, 0, 82, 97
1, 48480, Note_on_c, 0, 55, 71
1, 48480, Note_on_c, 0, 64, 71
1, 48480, Note_on_c, 0, 61, 71
1, 48488, Tempo, 330233
1, 48536, Tempo, 332079
1, 48560, Tempo, 333927
1, 48600, Tempo, 335777
1, 48624, Tempo, 337667
1, 48648, Tempo, 339559
1, 48672, Tempo, 341491
1, 48688, Tempo, 343446
1, 48712, Tempo, 345443
1, 48768, Tempo, 347443
1, 48816, Tempo, 349447
1, 48864, Tempo, 351494
1, 48880, Tempo, 353565
1, 48904, Tempo, 353565
1, 48960, Note_on_c, 0, 61, 0
1, 48960, Note_on_c, 0, 55, 0
1, 48960, Note_on_c, 0, 64, 0
1, 48960, Note_on_c, 0, 56, 74
1, 48960, Note_on_c, 0, 61, 74
1, 48960, Note_on_c, 0, 65, 74
1, 49000, Tempo, 355661
1, 49440, Note_on_c, 0, 65, 0
1, 49440, Note_on_c, 0, 56, 0
1, 49440, Note_on_c, 0, 70, 0
1, 49440, Note_on_c, 0, 82, 0
1, 49440, Note_on_c, 0, 61, 0
1, 49440, Note_on_c, 0, 68, 77
1, 49440, Note_on_c, 0, 80, 77
1, 49920, Note_on_c, 0, 80, 0
1, 49920, Note_on_c, 0, 68, 0
1, 50400, Note_on_c, 0, 54, 64
1, 50400, Note_on_c, 0, 60, 64
1, 50400, Note_on_c, 0, 32, 54
1, 50400, Note_on_c, 0, 44, 54
1, 50556, Control_c, 0, 64, 127
1, 51360, Tempo, 384074
1, 51360, Note_on_c, 0, 60, 0
1, 51360, Note_on_c, 0, 63, 61
1, 51600, Note_on_c, 0, 63, 0
1, 51600, Note_on_c, 0, 61, 61
1, 51840, Note_on_c, 0, 61, 0
1, 51840, Note_on_c, 0, 54, 0
1, 51840, Note_on_c, 0, 32, 0
1, 51840, Note_on_c, 0, 44, 0
1, 51840, Note_on_c, 0, 53, 54
1, 51840, Note_on_c, 0, 61, 58
1, 51840, Note_on_c, 0, 37, 51
1, 51840, Note_on_c, 0, 44, 51
1, 51840, Control_c, 0, 64, 0
1, 51848, Tempo, 286205
1, 52320, Tempo, 341491
1, 52320, Note_on_c, 0, 44, 0
1, 52320, Note_on_c, 0, 53, 0
1, 52320, Note_on_c, 0, 61, 0
1, 52320, Note_on_c, 0, 37, 0
1, 52800, Tempo, 291744
1, 52800, Note_on_c, 0, 73, 64
1, 52800, Note_on_c, 0, 65, 64
1, 52800, Note_on_c, 0, 61, 54
1, 52913, Control_c, 0, 64, 127
1, 53280, Note_on_c, 0, 61, 0
1, 53280, Note_on_c, 0, 65, 0
1, 53280, Note_on_c, 0, 73, 0
1, 53280, Note_on_c, 0, 73, 64
1, 53280, Note_on_c, 0, 65, 64
1, 53280, Note_on_c, 0, 58, 54
1, 54240, Tempo, 288962
1, 54240, Note_on_c, 0, 58, 0
1, 54240, Note_on_c, 0, 65, 0
1, 54240, Note_on_c, 0, 73, 0
1, 54240, Note_on_c, 0, 65, 64
1, 54240, Note_on_c, 0, 73, 64
1, 54240, Note_on_c, 0, 56, 54
1, 54720, Note_on_c, 0, 56, 0
1, 54720, Note_on_c, 0, 73, 0
1, 54720, Note_on_c, 0, 65, 0
1, 54720, Note_on_c, 0, 63, 64
1, 54720, Note_on_c, 0, 73, 64
1, 54720, Note_on_c, 0, 55, 54
1, 54728, Control_c, 0, 64, 0
1, 55200, Note_on_c, 0, 55, 0
1, 55200, Note_on_c, 0, 73, 0
1, 55200, Note_on_c, 0, 72, 64
1, 55200, Note_on_c, 0, 56, 54
1, 55440, Note_on_c, 0, 56, 0
1, 55440, Note_on_c, 0, 72, 0
1, 55680, Tempo, 294623
1, 55680, Note_on_c, 0, 63, 0
1, 55680, Note_on_c, 0, 63, 61
1, 55680, Note_on_c, 0, 71, 61
1, 55680, Note_on_c, 0, 56, 51
1, 55840, Control_c, 0, 64, 127
1, 56160, Note_on_c, 0, 56, 0
1, 56160, Note_on_c, 0, 71, 0
1, 56160, Note_on_c, 0, 63, 0
1, 56160, Note_on_c, 0, 63, 61
1, 56160, Note_on_c, 0, 71, 61
1, 56160, Note_on_c, 0, 56, 51
1, 57120, Note_on_c, 0, 56, 0
1, 57120, Note_on_c, 0, 71, 0
1, 57120, Note_on_c, 0, 63, 0
1, 57120, Note_on_c, 0, 63, 58
1, 57120, Note_on_c, 0, 71, 58
1, 57120, Note_on_c, 0, 54, 51
1, 57600, Note_on_c, 0, 54, 0
1, 57600, Note_on_c, 0, 71, 0
1, 57600, Note_on_c, 0, 63, 0
1, 57600, Note_on_c, 0, 63, 58
1, 57600, Note_on_c, 0, 71, 58
1, 57600, Note_on_c, 0, 53, 51
1, 57618, Control_c, 0, 64, 0
1, 58080, Note_on_c, 0, 53, 0
1, 58080, Note_on_c, 0, 71, 0
1, 58080, Note_on_c, 0, 70, 58
1, 58080, Note_on_c, 0, 54, 51
1, 58320, Note_on_c, 0, 54, 0
1, 58320, Note_on_c, 0, 70, 0
1, 58560, Note_on_c, 0, 63, 0
1, 58560, Note_on_c, 0, 61, 64
1, 58560, Note_on_c, 0, 70, 64
1, 58560, Note_on_c, 0, 54, 54
1, 58568, Tempo, 286205
1, 58712, Tempo, 287577
1, 58720, Control_c, 0, 64, 127
1, 58792, Tempo, 288962
1, 58880, Tempo, 290360
1, 59040, Note_on_c, 0, 54, 0
1, 59040, Note_on_c, 0, 70, 0
1, 59040, Note_on_c, 0, 61, 0
1, 59040, Note_on_c, 0, 66, 74
1, 59040, Note_on_c, 0, 72, 74
1, 59040, Note_on_c, 0, 51, 58
1, 59040, Note_on_c, 0, 56, 58
1, 59040, Control_c, 0, 64, 0
1, 59064, Tempo, 291744
1, 59120, Tempo, 293169
1, 59176, Tempo, 294623
1, 59208, Tempo, 296092
1, 59248, Tempo, 297545
1, 59272, Tempo, 299013
1, 59307, Control_c, 0, 64, 127
1, 59320, Tempo, 300511
1, 59344, Tempo, 302039
1, 59392, Tempo, 303567
1, 59424, Tempo, 305095
1, 59488, Tempo, 306654
1, 59552, Tempo, 308214
1, 59616, Tempo, 309805
1, 59792, Tempo, 311429
1, 59856, Tempo, 313054
1, 59880, Tempo, 314680
1, 59928, Tempo, 316339
1, 59984, Tempo, 318016
1, 60000, Note_on_c, 0, 56, 0
1, 60000, Note_on_c, 0, 66, 0
1, 60000, Note_on_c, 0, 72, 0
1, 60000, Note_on_c, 0, 51, 0
1, 60000, Note_on_c, 0, 65, 77
1, 60000, Note_on_c, 0, 73, 77
1, 60000, Note_on_c, 0, 49, 64
1, 60000, Note_on_c, 0, 56, 64
1, 60016, Tempo, 319693
1, 60020, Control_c, 0, 64, 0
1, 60064, Tempo, 321423
1, 60128, Tempo, 323137
1, 60152, Tempo, 324886
1, 60200, Tempo, 326655
1, 60214, Control_c, 0, 64, 127
1, 60248, Tempo, 328443
1, 60272, Tempo, 330233
1, 60312, Tempo, 332079
1, 60376, Tempo, 333927
1, 60480, Note_on_c, 0, 56, 0
1, 60480, Note_on_c, 0, 65, 0
1, 60480, Note_on_c, 0, 73, 0
1, 60480, Note_on_c, 0, 49, 0
1, 60480, Note_on_c, 0, 66, 89
1, 60480, Note_on_c, 0, 75, 89
1, 60480, Note_on_c, 0, 48, 72
1, 60480, Note_on_c, 0, 56, 72
1, 60487, Control_c, 0, 64, 0
1, 60720, Control_c, 0, 64, 127
1, 61440, Note_on_c, 0, 75, 0
1, 61440, Note_on_c, 0, 66, 0
1, 61440, Note_on_c, 0, 63, 76
1, 61440, Note_on_c, 0, 66, 76
1, 61457, Control_c, 0, 64, 0
1, 61734, Control_c, 0, 64, 127
1, 61912, Tempo, 286205
1, 61920, Note_on_c, 0, 48, 0
1, 61920, Note_on_c, 0, 56, 0
1, 61920, Note_on_c, 0, 49, 56
1, 61920, Note_on_c, 0, 56, 56
1, 62400, Note_on_c, 0, 63, 0
1, 62400, Note_on_c, 0, 66, 0
1, 62400, Note_on_c, 0, 61, 64
1, 62400, Note_on_c, 0, 65, 64
1, 62418, Control_c, 0, 64, 0
1, 62541, Control_c, 0, 64, 127
1, 62880, Tempo, 320564
1, 62880, Note_on_c, 0, 65, 0
1, 62880, Note_on_c, 0, 56, 0
1, 62880, Note_on_c, 0, 49, 0
1, 62880, Note_on_c, 0, 61, 0
1, 62880, Note_on_c, 0, 70, 64
1, 62880, Note_on_c, 0, 58, 64
1, 62880, Note_on_c, 0, 54, 54
1, 62880, Note_on_c, 0, 42, 54
1, 62899, Control_c, 0, 64, 0
1, 63021, Control_c, 0, 64, 127
1, 63120, Note_on_c, 0, 54, 0
1, 63120, Note_on_c, 0, 70, 0
1, 63120, Note_on_c, 0, 66, 64
1, 63120, Note_on_c, 0, 51, 54
1, 63360, Note_on_c, 0, 51, 0
1, 63360, Note_on_c, 0, 42, 0
1, 63360, Note_on_c, 0, 58, 0
1, 63360, Note_on_c, 0, 66, 0
1, 63360, Note_on_c, 0, 61, 71
1, 63360, Note_on_c, 0, 65, 71
1, 63360, Note_on_c, 0, 42, 54
1, 63360, Note_on_c, 0, 56, 54
1, 63360, Control_c, 0, 64, 0
1, 63654, Control_c, 0, 64, 127
1, 63840, Tempo, 334840
1, 63840, Note_on_c, 0, 65, 0
1, 63840, Note_on_c, 0, 61, 0
1, 63840, Note_on_c, 0, 60, 64
1, 63840, Note_on_c, 0, 63, 64
1, 63855, Control_c, 0, 64, 0
1, 64080, Note_on_c, 0, 63, 0
1, 64080, Note_on_c, 0, 56, 0
1, 64080, Note_on_c, 0, 42, 0
1, 64080, Note_on_c, 0, 60, 0
1, 64320, Note_on_c, 0, 61, 64
1, 64320, Note_on_c, 0, 73, 64
1, 64320, Note_on_c, 0, 53, 50
1, 64320, Note_on_c, 0, 56, 50
1, 64328, Tempo, 286205
1, 64800, Note_on_c, 0, 56, 0
1, 64800, Note_on_c, 0, 61, 0
1, 64800, Note_on_c, 0, 73, 0
1, 64800, Note_on_c, 0, 53, 0
1, 64800, Note_on_c, 0, 60, 65
1, 64800, Note_on_c, 0, 72, 65
1, 64800, Note_on_c, 0, 51, 56
1, 64800, Note_on_c, 0, 56, 56
1, 65760, Tempo, 288962
1, 65760, Note_on_c, 0, 56, 0
1, 65760, Note_on_c, 0, 60, 0
1, 65760, Note_on_c, 0, 72, 0
1, 65760, Note_on_c, 0, 51, 0
1, 65760, Note_on_c, 0, 70, 62
1, 65760, Note_on_c, 0, 58, 62
1, 65760, Note_on_c, 0, 49, 48
1, 65760, Note_on_c, 0, 55, 48
1, 66240, Tempo, 284360
1, 66240, Note_on_c, 0, 55, 0
1, 66240, Note_on_c, 0, 70, 0
1, 66240, Note_on_c, 0, 58, 0
1, 66240, Note_on_c, 0, 49, 0
1, 66240, Note_on_c, 0, 63, 60
1, 66240, Note_on_c, 0, 75, 60
1, 66240, Note_on_c, 0, 48, 50
1, 66240, Note_on_c, 0, 60, 50
1, 66330, Note_on_c, 0, 60, 0
1, 66330, Note_on_c, 0, 63, 0
1, 66330, Note_on_c, 0, 75, 0
1, 66330, Note_on_c, 0, 48, 0
1, 67200, Tempo, 277675
1, 67200, Note_on_c, 0, 65, 61
1, 67200, Note_on_c, 0, 73, 61
1, 67200, Note_on_c, 0, 49, 46
1, 67200, Note_on_c, 0, 58, 46
1, 67440, Note_on_c, 0, 58, 0
1, 67440, Note_on_c, 0, 49, 0
1, 67680, Tempo, 282912
1, 67680, Note_on_c, 0, 65, 0
1, 67680, Note_on_c, 0, 68, 61
1, 67680, Note_on_c, 0, 51, 51
1, 67680, Note_on_c, 0, 63, 51
1, 67920, Note_on_c, 0, 63, 0
1, 67920, Note_on_c, 0, 51, 0
1, 68160, Note_on_c, 0, 68, 0
1, 68160, Note_on_c, 0, 73, 0
1, 68160, Note_on_c, 0, 72, 61
1, 68640, Tempo, 278810
1, 68640, Note_on_c, 0, 72, 0
1, 68640, Note_on_c, 0, 67, 61
1, 68640, Note_on_c, 0, 70, 61
1, 68640, Note_on_c, 0, 51, 47
1, 68640, Note_on_c, 0, 61, 47
1, 68880, Note_on_c, 0, 61, 0
1, 68880, Note_on_c, 0, 51, 0
1, 69120, Tempo, 282087
1, 69120, Note_on_c, 0, 67, 0
1, 69120, Note_on_c, 0, 56, 51
1, 69120, Note_on_c, 0, 60, 51
1, 69360, Note_on_c, 0, 60, 0
1, 69360, Note_on_c, 0, 56, 0
1, 69600, Note_on_c, 0, 70, 0
1, 69600, Note_on_c, 0, 68, 59
1, 69840, Note_on_c, 0, 68, 0
1, 70080, Tempo, 286889
1, 70080, Note_on_c, 0, 66, 64
1, 70080, Note_on_c, 0, 78, 64
1, 70080, Note_on_c, 0, 58, 54
1, 70080, Note_on_c, 0, 61, 54
1, 70560, Note_on_c, 0, 61, 0
1, 70560, Note_on_c, 0, 66, 0
1, 70560, Note_on_c, 0, 78, 0
1, 70560, Note_on_c, 0, 58, 0
1, 70560, Note_on_c, 0, 65, 65
1, 70560, Note_on_c, 0, 77, 65
1, 70560, Note_on_c, 0, 56, 56
1, 70560, Note_on_c, 0, 61, 56
1, 71520, Tempo, 283019
1, 71520, Note_on_c, 0, 61, 0
1, 71520, Note_on_c, 0, 65, 0
1, 71520, Note_on_c, 0, 77, 0
1, 71520, Note_on_c, 0, 56, 0
1, 71520, Note_on_c, 0, 63, 63
1, 71520, Note_on_c, 0, 75, 63
1, 71520, Note_on_c, 0, 54, 47
1, 71520, Note_on_c, 0, 60, 47
1, 72000, Note_on_c, 0, 60, 0
1, 72000, Note_on_c, 0, 63, 0
1, 72000, Note_on_c, 0, 75, 0
1, 72000, Note_on_c, 0, 54, 0
1, 72000, Note_on_c, 0, 68, 59
1, 72000, Note_on_c, 0, 80, 59
1, 72000, Note_on_c, 0, 53, 49
1, 72000, Note_on_c, 0, 61, 49
1, 72090, Note_on_c, 0, 61, 0
1, 72090, Note_on_c, 0, 68, 0
1, 72090, Note_on_c, 0, 80, 0
1, 72090, Note_on_c, 0, 53, 0
1, 72960, Tempo, 278966
1, 72960, Note_on_c, 0, 66, 64
1, 72960, Note_on_c, 0, 78, 64
1, 72960, Note_on_c, 0, 58, 49
1, 72960, Note_on_c, 0, 61, 49
1, 73440, Tempo, 285605
1, 73440, Note_on_c, 0, 61, 0
1, 73440, Note_on_c, 0, 58, 0
1, 73440, Note_on_c, 0, 56, 55
1, 73440, Note_on_c, 0, 61, 55
1, 73920, Tempo, 282752
1, 73920, Note_on_c, 0, 78, 0
1, 73920, Note_on_c, 0, 66, 0
1, 73920, Note_on_c, 0, 65, 64
1, 73920, Note_on_c, 0, 77, 64
1, 74400, Tempo, 288268
1, 74400, Note_on_c, 0, 77, 0
1, 74400, Note_on_c, 0, 61, 0
1, 74400, Note_on_c, 0, 56, 0
1, 74400, Note_on_c, 0, 65, 0
1, 74400, Note_on_c, 0, 63, 64
1, 74400, Note_on_c, 0, 75, 64
1, 74400, Note_on_c, 0, 54, 54
1, 74400, Note_on_c, 0, 60, 54
1, 74640, Note_on_c, 0, 75, 0
1, 74640, Note_on_c, 0, 63, 0
1, 74880, Note_on_c, 0, 54, 0
1, 74880, Note_on_c, 0, 60, 0
1, 74880, Note_on_c, 0, 68, 69
1, 74880, Note_on_c, 0, 80, 69
1, 74880, Note_on_c, 0, 53, 58
1, 74880, Note_on_c, 0, 61, 58
1, 74970, Note_on_c, 0, 61, 0
1, 74970, Note_on_c, 0, 68, 0
1, 74970, Note_on_c, 0, 80, 0
1, 74970, Note_on_c, 0, 53, 0
1, 75840, Note_on_c, 0, 66, 74
1, 75840, Note_on_c, 0, 78, 74
1, 75840, Note_on_c, 0, 58, 54
1, 75840, Note_on_c, 0, 61, 54
1, 76240, Tempo, 287577
1, 76264, Tempo, 288962
1, 76312, Tempo, 290360
1, 76320, Note_on_c, 0, 61, 0
1, 76320, Note_on_c, 0, 58, 0
1, 76320, Note_on_c, 0, 56, 61
1, 76320, Note_on_c, 0, 61, 61
1, 76472, Tempo, 291744
1, 76576, Tempo, 293169
1, 76624, Tempo, 294623
1, 76664, Tempo, 296092
1, 76728, Tempo, 297545
1, 76776, Tempo, 299013
1, 76792, Tempo, 300511
1, 76800, Note_on_c, 0, 78, 0
1, 76800, Note_on_c, 0, 66, 0
1, 76800, Note_on_c, 0, 65, 84
1, 76800, Note_on_c, 0, 77, 84
1, 76840, Tempo, 302039
1, 76856, Tempo, 303567
1, 76888, Tempo, 305095
1, 76912, Tempo, 306654
1, 76944, Tempo, 308214
1, 77008, Tempo, 311429
1, 77032, Tempo, 313054
1, 77064, Tempo, 314680
1, 77088, Tempo, 316339
1, 77136, Tempo, 318016
1, 77168, Tempo, 321423
1, 77192, Tempo, 323137
1, 77224, Tempo, 324886
1, 77232, Tempo, 326655
1, 77256, Tempo, 328443
1, 77280, Note_on_c, 0, 77, 0
1, 77280, Note_on_c, 0, 61, 0
1, 77280, Note_on_c, 0, 56, 0
1, 77280, Note_on_c, 0, 65, 0
1, 77280, Note_on_c, 0, 70, 99
1, 77280, Note_on_c, 0, 82, 99
1, 77280, Note_on_c, 0, 55, 67
1, 77280, Note_on_c, 0, 64, 67
1, 77280, Note_on_c, 0, 61, 67
1, 77288, Tempo, 330233
1, 77336, Tempo, 332079
1, 77360, Tempo, 333927
1, 77400, Tempo, 335777
1, 77424, Tempo, 337667
1, 77448, Tempo, 339559
1, 77472, Tempo, 341491
1, 77488, Tempo, 343446
1, 77512, Tempo, 345443
1, 77568, Tempo, 347443
1, 77616, Tempo, 349447
1, 77664, Tempo, 351494
1, 77680, Tempo, 353565
1, 77704, Tempo, 353565
1, 77760, Note_on_c, 0, 61, 0
1, 77760, Note_on_c, 0, 55, 0
1, 77760, Note_on_c, 0, 64, 0
1, 77760, Note_on_c, 0, 56, 74
1, 77760, Note_on_c, 0, 61, 74
1, 77760, Note_on_c, 0, 65, 74
1, 77800, Tempo, 355661
1, 78240, Note_on_c, 0, 65, 0
1, 78240, Note_on_c, 0, 56, 0
1, 78240, Note_on_c, 0, 70, 0
1, 78240, Note_on_c, 0, 82, 0
1, 78240, Note_on_c, 0, 61, 0
1, 78240, Note_on_c, 0, 68, 77
1, 78240, Note_on_c, 0, 80, 77
1, 78720, Note_on_c, 0, 80, 0
1, 78720, Note_on_c, 0, 68, 0
1, 79200, Tempo, 365386
1, 79200, Note_on_c, 0, 54, 64
1, 79200, Note_on_c, 0, 60, 64
1, 79200, Note_on_c, 0, 32, 54
1, 79200, Note_on_c, 0, 44, 54
1, 79341, Control_c, 0, 64, 127
1, 80160, Tempo, 414536
1, 80160, Note_on_c, 0, 60, 0
1, 80160, Note_on_c, 0, 63, 61
1, 80400, Note_on_c, 0, 63, 0
1, 80400, Note_on_c, 0, 61, 61
1, 80640, Tempo, 353565
1, 80640, Note_on_c, 0, 61, 0
1, 80640, Note_on_c, 0, 54, 0
1, 80640, Note_on_c, 0, 32, 0
1, 80640, Note_on_c, 0, 44, 0
1, 80640, Note_on_c, 0, 53, 54
1, 80640, Note_on_c, 0, 61, 58
1, 80640, Note_on_c, 0, 37, 51
1, 80640, Note_on_c, 0, 44, 51
1, 80640, Control_c, 0, 64, 0
1, 81120, Note_on_c, 0, 44, 0
1, 81120, Note_on_c, 0, 53, 0
1, 81120, Note_on_c, 0, 61, 0
1, 81120, Note_on_c, 0, 37, 0
1, 81600, Tempo, 290360
1, 81600, Marker_t, "Trio"
1, 81600, Note_on_c, 0, 53, 85
1, 81600, Note_on_c, 0, 65, 100
1, 81707, Control_c, 0, 64, 127
1, 82080, Note_on_c, 0, 37, 65
1, 82080, Note_on_c, 0, 44, 77
1, 83040, Note_on_c, 0, 65, 0
1, 83040, Note_on_c, 0, 53, 0
1, 83040, Note_on_c, 0, 54, 83
1, 83040, Note_on_c, 0, 66, 98
1, 83057, Control_c, 0, 64, 0
1, 83307, Control_c, 0, 64, 127
1, 83520, Note_on_c, 0, 37, 0
1, 83520, Note_on_c, 0, 39, 62
1, 84480, Tempo, 279538
1, 84480, Note_on_c, 0, 66, 0
1, 84480, Note_on_c, 0, 54, 0
1, 84480, Note_on_c, 0, 63, 86
1, 84480, Note_on_c, 0, 75, 102
1, 84499, Control_c, 0, 64, 0
1, 84720, Control_c, 0, 64, 127
1, 84960, Note_on_c, 0, 39, 0
1, 84960, Note_on_c, 0, 42, 73
1, 85440, Note_on_c, 0, 75, 0
1, 85440, Note_on_c, 0, 63, 0
1, 85440, Note_on_c, 0, 60, 73
1, 85440, Note_on_c, 0, 72, 87
1, 85920, Note_on_c, 0, 72, 0
1, 85920, Note_on_c, 0, 60, 0
1, 85920, Note_on_c, 0, 56, 74
1, 85920, Note_on_c, 0, 68, 88
1, 86005, Control_c, 0, 64, 0
1, 86040, Note_on_c, 0, 68, 0
1, 86040, Note_on_c, 0, 56, 0
1, 86400, Note_on_c, 0, 42, 0
1, 86400, Note_on_c, 0, 61, 75
1, 86400, Note_on_c, 0, 73, 89
1, 86400, Note_on_c, 0, 41, 73
1, 86667, Control_c, 0, 64, 127
1, 86880, Tempo, 299775
1, 86880, Note_on_c, 0, 73, 0
1, 86880, Note_on_c, 0, 61, 0
1, 86880, Note_on_c, 0, 65, 69
1, 86880, Note_on_c, 0, 77, 82
1, 87120, Note_on_c, 0, 77, 0
1, 87120, Note_on_c, 0, 65, 0
1, 87360, Tempo, 290360
1, 87360, Note_on_c, 0, 53, 84
1, 87360, Note_on_c, 0, 65, 99
1, 87380, Control_c, 0, 64, 0
1, 87574, Control_c, 0, 64, 127
1, 87840, Note_on_c, 0, 44, 0
1, 87840, Note_on_c, 0, 41, 0
1, 87840, Note_on_c, 0, 37, 67
1, 87840, Note_on_c, 0, 44, 79
1, 88800, Note_on_c, 0, 53, 0
1, 88800, Note_on_c, 0, 65, 0
1, 88800, Note_on_c, 0, 54, 84
1, 88800, Note_on_c, 0, 66, 99
1, 88818, Control_c, 0, 64, 0
1, 89040, Control_c, 0, 64, 127
1, 89280, Note_on_c, 0, 37, 0
1, 89280, Note_on_c, 0, 39, 74
1, 90240, Tempo, 278267
1, 90240, Note_on_c, 0, 66, 0
1, 90240, Note_on_c, 0, 54, 0
1, 90240, Note_on_c, 0, 66, 73
1, 90240, Note_on_c, 0, 78, 87
1, 90260, Control_c, 0, 64, 0
1, 90507, Control_c, 0, 64, 127
1, 90720, Note_on_c, 0, 39, 0
1, 90720, Note_on_c, 0, 32, 73
1, 91200, Note_on_c, 0, 78, 0
1, 91200, Note_on_c, 0, 66, 0
1, 91200, Note_on_c, 0, 70, 70
1, 91200, Note_on_c, 0, 82, 83
1, 91440, Note_on_c, 0, 82, 0
1, 91440, Note_on_c, 0, 70, 0
1, 91680, Note_on_c, 0, 44, 0
1, 91680, Note_on_c, 0, 60, 67
1, 91680, Note_on_c, 0, 72, 79
1, 91680, Note_on_c, 0, 44, 72
1, 91701, Control_c, 0, 64, 0
1, 91800, Note_on_c, 0, 72, 0
1, 91800, Note_on_c, 0, 60, 0
1, 92160, Note_on_c, 0, 32, 0
1, 92160, Note_on_c, 0, 63, 71
1, 92160, Note_on_c, 0, 75, 84
1, 92160, Note_on_c, 0, 37, 73
1, 92160, Control_c, 0, 64, 127
1, 92640, Tempo, 299013
1, 92640, Note_on_c, 0, 75, 0
1, 92640, Note_on_c, 0, 63, 0
1, 92640, Note_on_c, 0, 61, 66
1, 92640, Note_on_c, 0, 73, 78
1, 93120, Tempo, 289645
1, 93120, Note_on_c, 0, 73, 0
1, 93120, Note_on_c, 0, 37, 0
1, 93120, Note_on_c, 0, 44, 0
1, 93120, Note_on_c, 0, 61, 0
1, 93120, Note_on_c, 0, 53, 84
1, 93120, Note_on_c, 0, 65, 99
1, 93135, Control_c, 0, 64, 0
1, 93360, Control_c, 0, 64, 127
1, 93600, Note_on_c, 0, 37, 67
1, 93600, Note_on_c, 0, 44, 79
1, 94560, Note_on_c, 0, 65, 0
1, 94560, Note_on_c, 0, 53, 0
1, 94560, Note_on_c, 0, 54, 85
1, 94560, Note_on_c, 0, 66, 100
1, 94575, Control_c, 0, 64, 0
1, 94800, Control_c, 0, 64, 127
1, 95040, Note_on_c, 0, 37, 0
1, 95040, Note_on_c, 0, 39, 73
1, 96000, Tempo, 279538
1, 96000, Note_on_c, 0, 66, 0
1, 96000, Note_on_c, 0, 54, 0
1, 96000, Note_on_c, 0, 63, 84
1, 96000, Note_on_c, 0, 75, 99
1, 96017, Control_c, 0, 64, 0
1, 96267, Control_c, 0, 64, 127
1, 96480, Note_on_c, 0, 39, 0
1, 96480, Note_on_c, 0, 42, 73
1, 96960, Note_on_c, 0, 75, 0
1, 96960, Note_on_c, 0, 63, 0
1, 96960, Note_on_c, 0, 60, 73
1, 96960, Note_on_c, 0, 72, 87
1, 97440, Note_on_c, 0, 72, 0
1, 97440, Note_on_c, 0, 60, 0
1, 97440, Note_on_c, 0, 56, 74
1, 97440, Note_on_c, 0, 68, 88
1, 97468, Control_c, 0, 64, 0
1, 97560, Note_on_c, 0, 68, 0
1, 97560, Note_on_c, 0, 56, 0
1, 97920, Note_on_c, 0, 42, 0
1, 97920, Note_on_c, 0, 61, 75
1, 97920, Note_on_c, 0, 73, 89
1, 97920, Note_on_c, 0, 41, 73
1, 97947, Control_c, 0, 64, 127
1, 98400, Tempo, 296809
1, 98400, Note_on_c, 0, 73, 0
1, 98400, Note_on_c, 0, 61, 0
1, 98400, Note_on_c, 0, 65, 70
1, 98400, Note_on_c, 0, 77, 83
1, 98640, Note_on_c, 0, 77, 0
1, 98640, Note_on_c, 0, 65, 0
1, 98880, Tempo, 286205
1, 98880, Note_on_c, 0, 53, 85
1, 98880, Note_on_c, 0, 65, 100
1, 98898, Control_c, 0, 64, 0
1, 99067, Control_c, 0, 64, 127
1, 99360, Note_on_c, 0, 44, 0
1, 99360, Note_on_c, 0, 41, 0
1, 99360, Note_on_c, 0, 37, 67
1, 99360, Note_on_c, 0, 44, 79
1, 100320, Note_on_c, 0, 53, 0
1, 100320, Note_on_c, 0, 65, 0
1, 100320, Note_on_c, 0, 54, 86
1, 100320, Note_on_c, 0, 66, 102
1, 100336, Control_c, 0, 64, 0
1, 100614, Control_c, 0, 64, 127
1, 100800, Note_on_c, 0, 37, 0
1, 100800, Note_on_c, 0, 39, 74
1, 101760, Tempo, 289645
1, 101760, Note_on_c, 0, 66, 0
1, 101760, Note_on_c, 0, 54, 0
1, 101760, Note_on_c, 0, 66, 73
1, 101760, Note_on_c, 0, 78, 87
1, 101775, Control_c, 0, 64, 0
1, 102080, Control_c, 0, 64, 127
1, 102240, Note_on_c, 0, 39, 0
1, 102240, Note_on_c, 0, 32, 73
1, 102720, Note_on_c, 0, 78, 0
1, 102720, Note_on_c, 0, 66, 0
1, 102720, Note_on_c, 0, 70, 73
1, 102720, Note_on_c, 0, 82, 87
1, 102960, Note_on_c, 0, 82, 0
1, 102960, Note_on_c, 0, 70, 0
1, 103200, Note_on_c, 0, 44, 0
1, 103200, Note_on_c, 0, 60, 72
1, 103200, Note_on_c, 0, 72, 85
1, 103200, Note_on_c, 0, 44, 72
1, 103214, Control_c, 0, 64, 0
1, 103320, Note_on_c, 0, 72, 0
1, 103320, Note_on_c, 0, 60, 0
1, 103680, Note_on_c, 0, 32, 0
1, 103680, Note_on_c, 0, 63, 67
1, 103680, Note_on_c, 0, 75, 79
1, 103680, Note_on_c, 0, 37, 66
1, 103680, Control_c, 0, 64, 127
1, 104160, Tempo, 305095
1, 104160, Note_on_c, 0, 75, 0
1, 104160, Note_on_c, 0, 63, 0
1, 104160, Note_on_c, 0, 61, 62
1, 104160, Note_on_c, 0, 73, 74
1, 104480, Control_c, 0, 64, 0
1, 104640, Tempo, 289645
1, 104640, Note_on_c, 0, 73, 0
1, 104640, Note_on_c, 0, 37, 0
1, 104640, Note_on_c, 0, 44, 0
1, 104640, Note_on_c, 0, 61, 0
1, 104640, Note_on_c, 0, 65, 46
1, 104640, Note_on_c, 0, 77, 55
1, 105120, Note_on_c, 0, 50, 35
1, 105120, Note_on_c, 0, 56, 42
1, 106080, Note_on_c, 0, 77, 0
1, 106080, Note_on_c, 0, 65, 0
1, 106080, Note_on_c, 0, 58, 46
1, 106080, Note_on_c, 0, 70, 55
1, 106560, Note_on_c, 0, 50, 0
1, 106560, Note_on_c, 0, 56, 0
1, 106560, Note_on_c, 0, 49, 33
1, 106560, Note_on_c, 0, 55, 39
1, 107520, Note_on_c, 0, 58, 0
1, 107520, Note_on_c, 0, 70, 0
1, 107520, Note_on_c, 0, 63, 40
1, 107520, Note_on_c, 0, 75, 48
1, 108000, Note_on_c, 0, 49, 0
1, 108000, Note_on_c, 0, 55, 0
1, 108000, Note_on_c, 0, 48, 30
1, 108000, Note_on_c, 0, 54, 36
1, 108960, Note_on_c, 0, 63, 0
1, 108960, Note_on_c, 0, 75, 0
1, 108960, Note_on_c, 0, 56, 41
1, 108960, Note_on_c, 0, 68, 49
1, 109440, Note_on_c, 0, 48, 0
1, 109440, Note_on_c, 0, 54, 0
1, 109440, Note_on_c, 0, 47, 29
1, 109440, Note_on_c, 0, 53, 35
1, 110400, Note_on_c, 0, 56, 0
1, 110400, Note_on_c, 0, 68, 0
1, 110400, Note_on_c, 0, 61, 41
1, 110400, Note_on_c, 0, 73, 49
1, 110880, Note_on_c, 0, 47, 0
1, 110880, Note_on_c, 0, 53, 0
1, 110880, Note_on_c, 0, 46, 42
1, 110880, Note_on_c, 0, 49, 50
1, 111840, Note_on_c, 0, 61, 0
1, 111840, Note_on_c, 0, 73, 0
1, 111840, Note_on_c, 0, 54, 36
1, 111840, Note_on_c, 0, 66, 43
1, 112320, Note_on_c, 0, 46, 0
1, 112320, Note_on_c, 0, 44, 37
1, 113280, Tempo, 284185
1, 113280, Note_on_c, 0, 66, 0
1, 113280, Note_on_c, 0, 54, 0
1, 113280, Note_on_c, 0, 53, 37
1, 113280, Note_on_c, 0, 65, 44
1, 113387, Control_c, 0, 64, 127
1, 113760, Note_on_c, 0, 44, 0
1, 113760, Note_on_c, 0, 37, 36
1, 114240, Note_on_c, 0, 37, 0
1, 114240, Note_on_c, 0, 65, 0
1, 114240, Note_on_c, 0, 53, 0
1, 114240, Note_on_c, 0, 56, 37
1, 114240, Note_on_c, 0, 68, 44
1, 114240, Note_on_c, 0, 41, 36
1, 114720, Note_on_c, 0, 41, 0
1, 114720, Note_on_c, 0, 68, 0
1, 114720, Note_on_c, 0, 56, 0
1, 114720, Note_on_c, 0, 59, 37
1, 114720, Note_on_c, 0, 71, 44
1, 114720, Note_on_c, 0, 44, 41
1, 114741, Control_c, 0, 64, 0
1, 115200, Note_on_c, 0, 44, 0
1, 115200, Note_on_c, 0, 42, 36
1, 115680, Note_on_c, 0, 71, 0
1, 115680, Note_on_c, 0, 59, 0
1, 115680, Note_on_c, 0, 58, 37
1, 115680, Note_on_c, 0, 70, 44
1, 115920, Note_on_c, 0, 70, 0
1, 115920, Note_on_c, 0, 58, 0
1, 116160, Tempo, 287577
1, 116160, Note_on_c, 0, 61, 40
1, 116160, Note_on_c, 0, 73, 48
1, 116320, Control_c, 0, 64, 127
1, 116640, Note_on_c, 0, 49, 0
1, 116640, Note_on_c, 0, 42, 0
1, 116640, Note_on_c, 0, 46, 41
1, 116640, Note_on_c, 0, 49, 49
1, 117600, Note_on_c, 0, 61, 0
1, 117600, Note_on_c, 0, 73, 0
1, 117600, Note_on_c, 0, 54, 40
1, 117600, Note_on_c, 0, 66, 48
1, 117619, Control_c, 0, 64, 0
1, 117920, Control_c, 0, 64, 127
1, 118080, Note_on_c, 0, 46, 0
1, 118080, Note_on_c, 0, 44, 37
1, 119040, Note_on_c, 0, 66, 0
1, 119040, Note_on_c, 0, 54, 0
1, 119040, Note_on_c, 0, 53, 39
1, 119040, Note_on_c, 0, 65, 47
1, 119058, Control_c, 0, 64, 0
1, 119387, Control_c, 0, 64, 127
1, 119520, Note_on_c, 0, 44, 0
1, 119520, Note_on_c, 0, 43, 37
1, 120480, Note_on_c, 0, 65, 0
1, 120480, Note_on_c, 0, 53, 0
1, 120480, Note_on_c, 0, 52, 42
1, 120480, Note_on_c, 0, 64, 50
1, 120492, Control_c, 0, 64, 0
1, 120777, Control_c, 0, 64, 127
1, 120960, Note_on_c, 0, 43, 0
1, 120960, Note_on_c, 0, 44, 37
1, 121920, Note_on_c, 0, 64, 0
1, 121920, Note_on_c, 0, 52, 0
1, 121920, Note_on_c, 0, 53, 54
1, 121920, Note_on_c, 0, 65, 64
1, 121939, Control_c, 0, 64, 0
1, 122195, Control_c, 0, 64, 127
1, 122400, Note_on_c, 0, 49, 0
1, 122400, Note_on_c, 0, 44, 0
1, 122400, Note_on_c, 0, 46, 45
1, 122400, Note_on_c, 0, 49, 38
1, 123360, Note_on_c, 0, 53, 0
1, 123360, Note_on_c, 0, 65, 0
1, 123360, Note_on_c, 0, 54, 74
1, 123360, Note_on_c, 0, 66, 85
1, 123374, Control_c, 0, 64, 0
1, 123680, Control_c, 0, 64, 127
1, 123840, Note_on_c, 0, 46, 0
1, 123840, Note_on_c, 0, 44, 54
1, 124800, Note_on_c, 0, 66, 0
1, 124800, Note_on_c, 0, 54, 0
1, 124800, Note_on_c, 0, 53, 56
1, 124800, Note_on_c, 0, 65, 66
1, 124815, Control_c, 0, 64, 0
1, 125147, Control_c, 0, 64, 127
1, 125280, Note_on_c, 0, 49, 0
1, 125280, Note_on_c, 0, 32, 54
1, 125760, Tempo, 318016
1, 125760, Note_on_c, 0, 65, 0
1, 125760, Note_on_c, 0, 53, 0
1, 125760, Note_on_c, 0, 54, 54
1, 125760, Note_on_c, 0, 66, 64
1, 126000, Note_on_c, 0, 66, 0
1, 126000, Note_on_c, 0, 54, 0
1, 126240, Note_on_c, 0, 44, 0
1, 126240, Note_on_c, 0, 32, 0
1, 126240, Note_on_c, 0, 48, 48
1, 126240, Note_on_c, 0, 60, 57
1, 126240, Note_on_c, 0, 44, 48
1, 126268, Control_c, 0, 64, 0
1, 126360, Note_on_c, 0, 44, 0
1, 126360, Note_on_c, 0, 60, 0
1, 126360, Note_on_c, 0, 48, 0
1, 126720, Tempo, 288962
1, 126720, Note_on_c, 0, 49, 48
1, 126720, Note_on_c, 0, 61, 57
1, 126720, Note_on_c, 0, 37, 48
1, 126840, Note_on_c, 0, 37, 0
1, 126840, Note_on_c, 0, 61, 0
1, 126840, Note_on_c, 0, 49, 0
1, 127680, Note_on_c, 0, 65, 44
1, 127680, Note_on_c, 0, 77, 52
1, 128160, Note_on_c, 0, 50, 33
1, 128160, Note_on_c, 0, 56, 39
1, 129120, Note_on_c, 0, 77, 0
1, 129120, Note_on_c, 0, 65, 0
1, 129120, Note_on_c, 0, 58, 41
1, 129120, Note_on_c, 0, 70, 49
1, 129600, Note_on_c, 0, 50, 0
1, 129600, Note_on_c, 0, 56, 0
1, 129600, Note_on_c, 0, 49, 29
1, 129600, Note_on_c, 0, 55, 35
1, 130560, Note_on_c, 0, 58, 0
1, 130560, Note_on_c, 0, 70, 0
1, 130560, Note_on_c, 0, 63, 41
1, 130560, Note_on_c, 0, 75, 49
1, 131040, Note_on_c, 0, 49, 0
1, 131040, Note_on_c, 0, 55, 0
1, 131040, Note_on_c, 0, 48, 31
1, 131040, Note_on_c, 0, 54, 37
1, 132000, Note_on_c, 0, 63, 0
1, 132000, Note_on_c, 0, 75, 0
1, 132000, Note_on_c, 0, 56, 39
1, 132000, Note_on_c, 0, 68, 47
1, 132480, Tempo, 285714
1, 132480, Note_on_c, 0, 48, 0
1, 132480, Note_on_c, 0, 54, 0
1, 132480, Note_on_c, 0, 47, 28
1, 132480, Note_on_c, 0, 53, 34
1, 133440, Note_on_c, 0, 56, 0
1, 133440, Note_on_c, 0, 68, 0
1, 133440, Note_on_c, 0, 61, 41
1, 133440, Note_on_c, 0, 73, 49
1, 133920, Note_on_c, 0, 47, 0
1, 133920, Note_on_c, 0, 53, 0
1, 133920, Note_on_c, 0, 46, 42
1, 133920, Note_on_c, 0, 49, 50
1, 134880, Note_on_c, 0, 61, 0
1, 134880, Note_on_c, 0, 73, 0
1, 134880, Note_on_c, 0, 54, 35
1, 134880, Note_on_c, 0, 66, 42
1, 135360, Note_on_c, 0, 46, 0
1, 135360, Note_on_c, 0, 44, 36
1, 136320, Tempo, 282832
1, 136320, Note_on_c, 0, 66, 0
1, 136320, Note_on_c, 0, 54, 0
1, 136320, Note_on_c, 0, 53, 36
1, 136320, Note_on_c, 0, 65, 43
1, 136507, Control_c, 0, 64, 127
1, 136800, Note_on_c, 0, 44, 0
1, 136800, Note_on_c, 0, 37, 35
1, 137280, Note_on_c, 0, 37, 0
1, 137280, Note_on_c, 0, 65, 0
1, 137280, Note_on_c, 0, 53, 0
1, 137280, Note_on_c, 0, 56, 36
1, 137280, Note_on_c, 0, 68, 43
1, 137280, Note_on_c, 0, 41, 35
1, 137760, Note_on_c, 0, 41, 0
1, 137760, Note_on_c, 0, 68, 0
1, 137760, Note_on_c, 0, 56, 0
1, 137760, Note_on_c, 0, 59, 42
1, 137760, Note_on_c, 0, 71, 50
1, 137760, Note_on_c, 0, 44, 39
1, 137773, Control_c, 0, 64, 0
1, 138240, Note_on_c, 0, 44, 0
1, 138240, Note_on_c, 0, 42, 41
1, 138720, Note_on_c, 0, 71, 0
1, 138720, Note_on_c, 0, 59, 0
1, 138720, Note_on_c, 0, 58, 36
1, 138720, Note_on_c, 0, 70, 43
1, 138960, Note_on_c, 0, 70, 0
1, 138960, Note_on_c, 0, 58, 0
1, 139200, Tempo, 287577
1, 139200, Note_on_c, 0, 61, 43
1, 139200, Note_on_c, 0, 73, 51
1, 139269, Control_c, 0, 64, 127
1, 139680, Note_on_c, 0, 49, 0
1, 139680, Note_on_c, 0, 42, 0
1, 139680, Note_on_c, 0, 46, 39
1, 139680, Note_on_c, 0, 49, 47
1, 140640, Note_on_c, 0, 61, 0
1, 140640, Note_on_c, 0, 73, 0
1, 140640, Note_on_c, 0, 54, 41
1, 140640, Note_on_c, 0, 66, 49
1, 140657, Control_c, 0, 64, 0
1, 140907, Control_c, 0, 64, 127
1, 141120, Note_on_c, 0, 46, 0
1, 141120, Note_on_c, 0, 44, 39
1, 142080, Note_on_c, 0, 66, 0
1, 142080, Note_on_c, 0, 54, 0
1, 142080, Note_on_c, 0, 53, 39
1, 142080, Note_on_c, 0, 65, 46
1, 142097, Control_c, 0, 64, 0
1, 142374, Control_c, 0, 64, 127
1, 142560, Note_on_c, 0, 44, 0
1, 142560, Note_on_c, 0, 43, 39
1, 143520, Note_on_c, 0, 65, 0
1, 143520, Note_on_c, 0, 53, 0
1, 143520, Note_on_c, 0, 52, 39
1, 143520, Note_on_c, 0, 64, 47
1, 143536, Control_c, 0, 64, 0
1, 143817, Control_c, 0, 64, 127
1, 144000, Note_on_c, 0, 43, 0
1, 144000, Note_on_c, 0, 44, 39
1, 144960, Note_on_c, 0, 64, 0
1, 144960, Note_on_c, 0, 52, 0
1, 144960, Note_on_c, 0, 53, 54
1, 144960, Note_on_c, 0, 65, 64
1, 144978, Control_c, 0, 64, 0
1, 145189, Control_c, 0, 64, 127
1, 145440, Note_on_c, 0, 49, 0
1, 145440, Note_on_c, 0, 44, 0
1, 145440, Note_on_c, 0, 46, 38
1, 145440, Note_on_c, 0, 49, 45
1, 146400, Note_on_c, 0, 53, 0
1, 146400, Note_on_c, 0, 65, 0
1, 146400, Note_on_c, 0, 54, 72
1, 146400, Note_on_c, 0, 66, 85
1, 146419, Control_c, 0, 64, 0
1, 146880, Note_on_c, 0, 46, 0
1, 146880, Note_on_c, 0, 44, 54
1, 146880, Control_c, 0, 64, 127
1, 147840, Note_on_c, 0, 66, 0
1, 147840, Note_on_c, 0, 54, 0
1, 147840, Note_on_c, 0, 53, 56
1, 147840, Note_on_c, 0, 65, 66
1, 147854, Control_c, 0, 64, 0
1, 148134, Control_c, 0, 64, 127
1, 148320, Note_on_c, 0, 49, 0
1, 148320, Note_on_c, 0, 32, 54
1, 148800, Tempo, 311429
1, 148800, Note_on_c, 0, 65, 0
1, 148800, Note_on_c, 0, 53, 0
1, 148800, Note_on_c, 0, 54, 54
1, 148800, Note_on_c, 0, 66, 64
1, 149040, Note_on_c, 0, 66, 0
1, 149040, Note_on_c, 0, 54, 0
1, 149280, Note_on_c, 0, 44, 0
1, 149280, Note_on_c, 0, 32, 0
1, 149280, Note_on_c, 0, 48, 49
1, 149280, Note_on_c, 0, 60, 58
1, 149280, Note_on_c, 0, 44, 52
1, 149308, Control_c, 0, 64, 0
1, 149400, Note_on_c, 0, 44, 0
1, 149400, Note_on_c, 0, 60, 0
1, 149400, Note_on_c, 0, 48, 0
1, 149760, Note_on_c, 0, 49, 49
1, 149760, Note_on_c, 0, 61, 58
1, 149760, Note_on_c, 0, 37, 52
1, 149760, Control_c, 0, 64, 0
1, 149880, Note_on_c, 0, 37, 0
1, 149880, Note_on_c, 0, 61, 0
1, 149880, Note_on_c, 0, 49, 0
1, 150720, Tempo, 286205
1, 150720, Marker_t, "Allegretto D.C."
1, 150720, Note_on_c, 0, 68, 64
1, 150720, Note_on_c, 0, 73, 64
1, 150720, Note_on_c, 0, 65, 54
1, 151200, Note_on_c, 0, 65, 0
1, 151200, Note_on_c, 0, 73, 0
1, 151200, Note_on_c, 0, 68, 0
1, 151201, Note_on_c, 0, 72, 64
1, 151201, Note_on_c, 0, 68, 64
1, 151201, Note_on_c, 0, 63, 54
1, 152160, Tempo, 288962
1, 152160, Note_on_c, 0, 67, 59
1, 152160, Note_on_c, 0, 70, 59
1, 152160, Note_on_c, 0, 61, 50
1, 152161, Note_on_c, 0, 63, 0
1, 152161, Note_on_c, 0, 72, 0
1, 152161, Note_on_c, 0, 68, 0
1, 152640, Note_on_c, 0, 67, 0
1, 152640, Note_on_c, 0, 70, 0
1, 152640, Note_on_c, 0, 61, 0
1, 152640, Note_on_c, 0, 68, 55
1, 152640, Note_on_c, 0, 75, 55
1, 152640, Note_on_c, 0, 60, 46
1, 152730, Note_on_c, 0, 60, 0
1, 152730, Note_on_c, 0, 75, 0
1, 152730, Note_on_c, 0, 68, 0
1, 153600, Tempo, 278888
1, 153600, Note_on_c, 0, 65, 55
1, 153600, Note_on_c, 0, 73, 55
1, 153600, Note_on_c, 0, 49, 45
1, 153600, Note_on_c, 0, 58, 45
1, 153690, Note_on_c, 0, 58, 0
1, 153690, Note_on_c, 0, 65, 0
1, 153690, Note_on_c, 0, 73, 0
1, 153690, Note_on_c, 0, 49, 0
1, 154080, Tempo, 282912
1, 154080, Note_on_c, 0, 68, 55
1, 154080, Note_on_c, 0, 72, 55
1, 154080, Note_on_c, 0, 63, 47
1, 154080, Note_on_c, 0, 51, 47
1, 154170, Note_on_c, 0, 51, 0
1, 154170, Note_on_c, 0, 68, 0
1, 154170, Note_on_c, 0, 72, 0
1, 154170, Note_on_c, 0, 63, 0
1, 154560, Tempo, 278966
1, 155040, Tempo, 289855
1, 155040, Note_on_c, 0, 67, 50
1, 155040, Note_on_c, 0, 70, 50
1, 155040, Note_on_c, 0, 51, 40
1, 155040, Note_on_c, 0, 61, 40
1, 155130, Note_on_c, 0, 61, 0
1, 155130, Note_on_c, 0, 67, 0
1, 155130, Note_on_c, 0, 70, 0
1, 155130, Note_on_c, 0, 51, 0
1, 155520, Note_on_c, 0, 68, 48
1, 155520, Note_on_c, 0, 56, 42
1, 155520, Note_on_c, 0, 60, 42
1, 155610, Note_on_c, 0, 60, 0
1, 155610, Note_on_c, 0, 56, 0
1, 155610, Note_on_c, 0, 68, 0
1, 156000, Tempo, 286205
1, 156480, Note_on_c, 0, 73, 64
1, 156480, Note_on_c, 0, 78, 64
1, 156480, Note_on_c, 0, 70, 49
1, 156960, Note_on_c, 0, 70, 0
1, 156960, Note_on_c, 0, 78, 0
1, 156960, Note_on_c, 0, 73, 0
1, 156960, Note_on_c, 0, 73, 64
1, 156960, Note_on_c, 0, 77, 64
1, 156960, Note_on_c, 0, 68, 54
1, 157920, Tempo, 288962
1, 157920, Note_on_c, 0, 68, 0
1, 157920, Note_on_c, 0, 77, 0
1, 157920, Note_on_c, 0, 73, 0
1, 157920, Note_on_c, 0, 72, 60
1, 157920, Note_on_c, 0, 75, 60
1, 157920, Note_on_c, 0, 66, 46
1, 158400, Note_on_c, 0, 66, 0
1, 158400, Note_on_c, 0, 75, 0
1, 158400, Note_on_c, 0, 72, 0
1, 158400, Note_on_c, 0, 73, 56
1, 158400, Note_on_c, 0, 80, 56
1, 158400, Note_on_c, 0, 65, 48
1, 158490, Note_on_c, 0, 65, 0
1, 158490, Note_on_c, 0, 80, 0
1, 158490, Note_on_c, 0, 73, 0
1, 159360, Tempo, 280269
1, 159360, Note_on_c, 0, 70, 55
1, 159360, Note_on_c, 0, 78, 55
1, 159360, Note_on_c, 0, 54, 45
1, 159360, Note_on_c, 0, 63, 45
1, 159450, Note_on_c, 0, 63, 0
1, 159450, Note_on_c, 0, 70, 0
1, 159450, Note_on_c, 0, 78, 0
1, 159450, Note_on_c, 0, 54, 0
1, 159840, Tempo, 282247
1, 159840, Note_on_c, 0, 73, 56
1, 159840, Note_on_c, 0, 77, 56
1, 159840, Note_on_c, 0, 56, 47
1, 159840, Note_on_c, 0, 68, 47
1, 159930, Note_on_c, 0, 68, 0
1, 159930, Note_on_c, 0, 73, 0
1, 159930, Note_on_c, 0, 77, 0
1, 159930, Note_on_c, 0, 56, 0
1, 160320, Tempo, 279616
1, 160800, Tempo, 288462
1, 160800, Note_on_c, 0, 72, 54
1, 160800, Note_on_c, 0, 75, 54
1, 160800, Note_on_c, 0, 56, 40
1, 160800, Note_on_c, 0, 66, 40
1, 160890, Note_on_c, 0, 66, 0
1, 160890, Note_on_c, 0, 72, 0
1, 160890, Note_on_c, 0, 75, 0
1, 160890, Note_on_c, 0, 56, 0
1, 161280, Note_on_c, 0, 73, 51
1, 161280, Note_on_c, 0, 61, 42
1, 161280, Note_on_c, 0, 65, 42
1, 161370, Note_on_c, 0, 65, 0
1, 161370, Note_on_c, 0, 61, 0
1, 161370, Note_on_c, 0, 73, 0
1, 162240, Tempo, 279616
1, 162240, Note_on_c, 0, 61, 64
1, 162240, Note_on_c, 0, 73, 64
1, 162240, Note_on_c, 0, 53, 49
1, 162240, Note_on_c, 0, 56, 49
1, 162720, Tempo, 286287
1, 162720, Note_on_c, 0, 56, 0
1, 162720, Note_on_c, 0, 53, 0
1, 162720, Note_on_c, 0, 51, 54
1, 162720, Note_on_c, 0, 56, 54
1, 163200, Note_on_c, 0, 73, 0
1, 163200, Note_on_c, 0, 61, 0
1, 163200, Note_on_c, 0, 60, 64
1, 163200, Note_on_c, 0, 72, 64
1, 163680, Tempo, 288268
1, 163680, Note_on_c, 0, 72, 0
1, 163680, Note_on_c, 0, 56, 0
1, 163680, Note_on_c, 0, 51, 0
1, 163680, Note_on_c, 0, 60, 0
1, 163680, Note_on_c, 0, 58, 64
1, 163680, Note_on_c, 0, 70, 64
1, 163680, Note_on_c, 0, 55, 49
1, 163680, Note_on_c, 0, 49, 49
1, 164160, Tempo, 285036
1, 164160, Note_on_c, 0, 49, 0
1, 164160, Note_on_c, 0, 55, 0
1, 164160, Note_on_c, 0, 58, 0
1, 164160, Note_on_c, 0, 63, 64
1, 164160, Note_on_c, 0, 48, 54
1, 164160, Note_on_c, 0, 60, 54
1, 164640, Note_on_c, 0, 60, 0
1, 164640, Note_on_c, 0, 70, 0
1, 164640, Note_on_c, 0, 63, 0
1, 164640, Note_on_c, 0, 48, 0
1, 164640, Note_on_c, 0, 75, 64
1, 164760, Note_on_c, 0, 75, 0
1, 165120, Tempo, 277034
1, 165120, Note_on_c, 0, 73, 59
1, 165120, Note_on_c, 0, 65, 59
1, 165120, Note_on_c, 0, 49, 46
1, 165120, Note_on_c, 0, 58, 46
1, 165360, Note_on_c, 0, 58, 0
1, 165360, Note_on_c, 0, 49, 0
1, 165600, Tempo, 281584
1, 165600, Note_on_c, 0, 65, 0
1, 165600, Note_on_c, 0, 68, 59
1, 165600, Note_on_c, 0, 51, 49
1, 165600, Note_on_c, 0, 63, 49
1, 165840, Note_on_c, 0, 63, 0
1, 165840, Note_on_c, 0, 51, 0
1, 166080, Note_on_c, 0, 68, 0
1, 166080, Note_on_c, 0, 73, 0
1, 166080, Note_on_c, 0, 72, 59
1, 166560, Tempo, 281030
1, 166560, Note_on_c, 0, 72, 0
1, 166560, Note_on_c, 0, 67, 59
1, 166560, Note_on_c, 0, 70, 59
1, 166560, Note_on_c, 0, 51, 45
1, 166560, Note_on_c, 0, 61, 45
1, 166800, Note_on_c, 0, 61, 0
1, 166800, Note_on_c, 0, 51, 0
1, 167040, Note_on_c, 0, 67, 0
1, 167040, Note_on_c, 0, 56, 46
1, 167040, Note_on_c, 0, 60, 46
1, 167280, Note_on_c, 0, 60, 0
1, 167280, Note_on_c, 0, 56, 0
1, 167520, Note_on_c, 0, 70, 0
1, 167520, Note_on_c, 0, 68, 64
1, 167760, Note_on_c, 0, 68, 0
1, 168000, Tempo, 286205
1, 168000, Note_on_c, 0, 66, 64
1, 168000, Note_on_c, 0, 78, 64
1, 168000, Note_on_c, 0, 58, 49
1, 168000, Note_on_c, 0, 61, 49
1, 168480, Note_on_c, 0, 61, 0
1, 168480, Note_on_c, 0, 58, 0
1, 168480, Note_on_c, 0, 56, 54
1, 168480, Note_on_c, 0, 61, 54
1, 168960, Note_on_c, 0, 78, 0
1, 168960, Note_on_c, 0, 66, 0
1, 168960, Note_on_c, 0, 65, 64
1, 168960, Note_on_c, 0, 77, 64
1, 169440, Tempo, 288268
1, 169440, Note_on_c, 0, 77, 0
1, 169440, Note_on_c, 0, 61, 0
1, 169440, Note_on_c, 0, 56, 0
1, 169440, Note_on_c, 0, 65, 0
1, 169440, Note_on_c, 0, 63, 64
1, 169440, Note_on_c, 0, 75, 64
1, 169440, Note_on_c, 0, 54, 54
1, 169440, Note_on_c, 0, 60, 54
1, 169920, Tempo, 281030
1, 169920, Note_on_c, 0, 60, 0
1, 169920, Note_on_c, 0, 54, 0
1, 169920, Note_on_c, 0, 63, 0
1, 169920, Note_on_c, 0, 68, 69
1, 169920, Note_on_c, 0, 53, 57
1, 169920, Note_on_c, 0, 65, 57
1, 170400, Note_on_c, 0, 65, 0
1, 170400, Note_on_c, 0, 75, 0
1, 170400, Note_on_c, 0, 68, 0
1, 170400, Note_on_c, 0, 53, 0
1, 170400, Note_on_c, 0, 80, 69
1, 170520, Note_on_c, 0, 80, 0
1, 170880, Tempo, 284185
1, 170880, Note_on_c, 0, 70, 64
1, 170880, Note_on_c, 0, 78, 64
1, 170880, Note_on_c, 0, 54, 50
1, 170880, Note_on_c, 0, 63, 50
1, 171120, Note_on_c, 0, 63, 0
1, 171120, Note_on_c, 0, 54, 0
1, 171360, Note_on_c, 0, 70, 0
1, 171360, Note_on_c, 0, 73, 64
1, 171360, Note_on_c, 0, 56, 54
1, 171360, Note_on_c, 0, 68, 54
1, 171600, Note_on_c, 0, 68, 0
1, 171600, Note_on_c, 0, 56, 0
1, 171840, Note_on_c, 0, 73, 0
1, 171840, Note_on_c, 0, 78, 0
1, 171840, Note_on_c, 0, 77, 59
1, 172080, Note_on_c, 0, 77, 0
1, 172320, Note_on_c, 0, 75, 59
1, 172320, Note_on_c, 0, 72, 59
1, 172320, Note_on_c, 0, 56, 45
1, 172320, Note_on_c, 0, 66, 45
1, 172560, Note_on_c, 0, 66, 0
1, 172560, Note_on_c, 0, 56, 0
1, 172800, Note_on_c, 0, 72, 0
1, 172800, Note_on_c, 0, 61, 48
1, 172800, Note_on_c, 0, 65, 48
1, 173040, Note_on_c, 0, 65, 0
1, 173040, Note_on_c, 0, 61, 0
1, 173280, Tempo, 310623
1, 173280, Note_on_c, 0, 75, 0
1, 173280, Note_on_c, 0, 73, 56
1, 173520, Note_on_c, 0, 73, 0
1, 173760, Tempo, 288268
1, 173760, Note_on_c, 0, 73, 64
1, 173760, Note_on_c, 0, 65, 64
1, 173760, Note_on_c, 0, 61, 54
1, 173873, Control_c, 0, 64, 127
1, 174240, Note_on_c, 0, 61, 0
1, 174240, Note_on_c, 0, 65, 0
1, 174240, Note_on_c, 0, 73, 0
1, 174240, Note_on_c, 0, 73, 64
1, 174240, Note_on_c, 0, 65, 64
1, 174240, Note_on_c, 0, 58, 54
1, 175200, Note_on_c, 0, 58, 0
1, 175200, Note_on_c, 0, 65, 0
1, 175200, Note_on_c, 0, 73, 0
1, 175200, Note_on_c, 0, 65, 64
1, 175200, Note_on_c, 0, 73, 64
1, 175200, Note_on_c, 0, 56, 54
1, 175680, Note_on_c, 0, 56, 0
1, 175680, Note_on_c, 0, 73, 0
1, 175680, Note_on_c, 0, 65, 0
1, 175680, Note_on_c, 0, 63, 64
1, 175680, Note_on_c, 0, 73, 64
1, 175680, Note_on_c, 0, 55, 54
1, 175688, Control_c, 0, 64, 0
1, 176160, Note_on_c, 0, 55, 0
1, 176160, Note_on_c, 0, 73, 0
1, 176160, Note_on_c, 0, 72, 64
1, 176160, Note_on_c, 0, 56, 54
1, 176400, Note_on_c, 0, 56, 0
1, 176400, Note_on_c, 0, 72, 0
1, 176640, Tempo, 291744
1, 176640, Note_on_c, 0, 63, 0
1, 176640, Note_on_c, 0, 63, 57
1, 176640, Note_on_c, 0, 71, 57
1, 176640, Note_on_c, 0, 56, 50
1, 176800, Control_c, 0, 64, 127
1, 177120, Note_on_c, 0, 56, 0
1, 177120, Note_on_c, 0, 71, 0
1, 177120, Note_on_c, 0, 63, 0
1, 177120, Note_on_c, 0, 63, 58
1, 177120, Note_on_c, 0, 71, 58
1, 177120, Note_on_c, 0, 56, 50
1, 178080, Note_on_c, 0, 56, 0
1, 178080, Note_on_c, 0, 71, 0
1, 178080, Note_on_c, 0, 63, 0
1, 178080, Note_on_c, 0, 63, 58
1, 178080, Note_on_c, 0, 71, 58
1, 178080, Note_on_c, 0, 54, 48
1, 178560, Note_on_c, 0, 54, 0
1, 178560, Note_on_c, 0, 71, 0
1, 178560, Note_on_c, 0, 63, 0
1, 178560, Note_on_c, 0, 63, 58
1, 178560, Note_on_c, 0, 71, 58
1, 178560, Note_on_c, 0, 53, 48
1, 178578, Control_c, 0, 64, 0
1, 179040, Note_on_c, 0, 53, 0
1, 179040, Note_on_c, 0, 71, 0
1, 179040, Note_on_c, 0, 70, 58
1, 179040, Note_on_c, 0, 54, 48
1, 179280, Note_on_c, 0, 54, 0
1, 179280, Note_on_c, 0, 70, 0
1, 179520, Note_on_c, 0, 63, 0
1, 179520, Note_on_c, 0, 61, 64
1, 179520, Note_on_c, 0, 70, 64
1, 179520, Note_on_c, 0, 54, 54
1, 179528, Tempo, 286205
1, 179672, Tempo, 287577
1, 179680, Control_c, 0, 64, 127
1, 179752, Tempo, 288962
1, 179840, Tempo, 290360
1, 180000, Note_on_c, 0, 54, 0
1, 180000, Note_on_c, 0, 70, 0
1, 180000, Note_on_c, 0, 61, 0
1, 180000, Note_on_c, 0, 66, 73
1, 180000, Note_on_c, 0, 72, 73
1, 180000, Note_on_c, 0, 51, 54
1, 180000, Note_on_c, 0, 56, 54
1, 180000, Control_c, 0, 64, 0
1, 180024, Tempo, 291744
1, 180080, Tempo, 293169
1, 180136, Tempo, 294623
1, 180168, Tempo, 296092
1, 180208, Tempo, 297545
1, 180232, Tempo, 299013
1, 180267, Control_c, 0, 64, 127
1, 180280, Tempo, 300511
1, 180304, Tempo, 302039
1, 180352, Tempo, 303567
1, 180384, Tempo, 305095
1, 180448, Tempo, 306654
1, 180512, Tempo, 308214
1, 180576, Tempo, 309805
1, 180752, Tempo, 311429
1, 180816, Tempo, 313054
1, 180840, Tempo, 314680
1, 180888, Tempo, 316339
1, 180944, Tempo, 318016
1, 180960, Note_on_c, 0, 56, 0
1, 180960, Note_on_c, 0, 66, 0
1, 180960, Note_on_c, 0, 72, 0
1, 180960, Note_on_c, 0, 51, 0
1, 180960, Note_on_c, 0, 65, 77
1, 180960, Note_on_c, 0, 73, 77
1, 180960, Note_on_c, 0, 49, 54
1, 180960, Note_on_c, 0, 56, 54
1, 180976, Tempo, 319693
1, 180980, Control_c, 0, 64, 0
1, 181024, Tempo, 321423
1, 181088, Tempo, 323137
1, 181112, Tempo, 324886
1, 181160, Tempo, 326655
1, 181174, Control_c, 0, 64, 127
1, 181208, Tempo, 328443
1, 181232, Tempo, 330233
1, 181272, Tempo, 332079
1, 181336, Tempo, 333927
1, 181440, Note_on_c, 0, 56, 0
1, 181440, Note_on_c, 0, 65, 0
1, 181440, Note_on_c, 0, 73, 0
1, 181440, Note_on_c, 0, 49, 0
1, 181440, Note_on_c, 0, 66, 88
1, 181440, Note_on_c, 0, 75, 88
1, 181440, Note_on_c, 0, 48, 54
1, 181440, Note_on_c, 0, 56, 54
1, 181447, Control_c, 0, 64, 0
1, 181680, Control_c, 0, 64, 127
1, 182400, Note_on_c, 0, 75, 0
1, 182400, Note_on_c, 0, 66, 0
1, 182400, Note_on_c, 0, 63, 75
1, 182400, Note_on_c, 0, 66, 75
1, 182417, Control_c, 0, 64, 0
1, 182694, Control_c, 0, 64, 127
1, 182872, Tempo, 286205
1, 182880, Note_on_c, 0, 48, 0
1, 182880, Note_on_c, 0, 56, 0
1, 182880, Note_on_c, 0, 49, 54
1, 182880, Note_on_c, 0, 56, 54
1, 183360, Note_on_c, 0, 63, 0
1, 183360, Note_on_c, 0, 66, 0
1, 183360, Note_on_c, 0, 61, 64
1, 183360, Note_on_c, 0, 65, 64
1, 183378, Control_c, 0, 64, 0
1, 183501, Control_c, 0, 64, 127
1, 183840, Tempo, 304321
1, 183840, Note_on_c, 0, 65, 0
1, 183840, Note_on_c, 0, 56, 0
1, 183840, Note_on_c, 0, 49, 0
1, 183840, Note_on_c, 0, 61, 0
1, 183840, Note_on_c, 0, 70, 64
1, 183840, Note_on_c, 0, 58, 64
1, 183840, Note_on_c, 0, 54, 54
1, 183840, Note_on_c, 0, 42, 54
1, 183859, Control_c, 0, 64, 0
1, 183981, Control_c, 0, 64, 127
1, 184080, Note_on_c, 0, 54, 0
1, 184080, Note_on_c, 0, 70, 0
1, 184080, Note_on_c, 0, 66, 64
1, 184080, Note_on_c, 0, 51, 54
1, 184320, Note_on_c, 0, 51, 0
1, 184320, Note_on_c, 0, 42, 0
1, 184320, Note_on_c, 0, 58, 0
1, 184320, Note_on_c, 0, 66, 0
1, 184320, Note_on_c, 0, 61, 70
1, 184320, Note_on_c, 0, 65, 70
1, 184320, Note_on_c, 0, 42, 54
1, 184320, Note_on_c, 0, 56, 54
1, 184320, Control_c, 0, 64, 0
1, 184614, Control_c, 0, 64, 127
1, 184800, Tempo, 320564
1, 184800, Note_on_c, 0, 65, 0
1, 184800, Note_on_c, 0, 61, 0
1, 184800, Note_on_c, 0, 60, 64
1, 184800, Note_on_c, 0, 63, 64
1, 184815, Control_c, 0, 64, 0
1, 185280, Note_on_c, 0, 63, 0
1, 185280, Note_on_c, 0, 56, 0
1, 185280, Note_on_c, 0, 42, 0
1, 185280, Note_on_c, 0, 60, 0
1, 185280, Note_on_c, 0, 61, 64
1, 185280, Note_on_c, 0, 73, 64
1, 185280, Note_on_c, 0, 53, 49
1, 185280, Note_on_c, 0, 56, 49
1, 185288, Tempo, 286205
1, 185760, Note_on_c, 0, 56, 0
1, 185760, Note_on_c, 0, 61, 0
1, 185760, Note_on_c, 0, 73, 0
1, 185760, Note_on_c, 0, 53, 0
1, 185760, Note_on_c, 0, 60, 65
1, 185760, Note_on_c, 0, 72, 65
1, 185760, Note_on_c, 0, 51, 54
1, 185760, Note_on_c, 0, 56, 54
1, 186720, Tempo, 288962
1, 186720, Note_on_c, 0, 56, 0
1, 186720, Note_on_c, 0, 60, 0
1, 186720, Note_on_c, 0, 72, 0
1, 186720, Note_on_c, 0, 51, 0
1, 186720, Note_on_c, 0, 70, 68
1, 186720, Note_on_c, 0, 58, 68
1, 186720, Note_on_c, 0, 49, 47
1, 186720, Note_on_c, 0, 55, 47
1, 187200, Note_on_c, 0, 55, 0
1, 187200, Note_on_c, 0, 70, 0
1, 187200, Note_on_c, 0, 58, 0
1, 187200, Note_on_c, 0, 49, 0
1, 187200, Note_on_c, 0, 63, 65
1, 187200, Note_on_c, 0, 75, 65
1, 187200, Note_on_c, 0, 48, 54
1, 187200, Note_on_c, 0, 60, 54
1, 187290, Note_on_c, 0, 60, 0
1, 187290, Note_on_c, 0, 63, 0
1, 187290, Note_on_c, 0, 75, 0
1, 187290, Note_on_c, 0, 48, 0
1, 188160, Tempo, 274499
1, 188160, Note_on_c, 0, 65, 64
1, 188160, Note_on_c, 0, 73, 64
1, 188160, Note_on_c, 0, 49, 49
1, 188160, Note_on_c, 0, 58, 49
1, 188400, Note_on_c, 0, 58, 0
1, 188400, Note_on_c, 0, 49, 0
1, 188640, Tempo, 280925
1, 188640, Note_on_c, 0, 65, 0
1, 188640, Note_on_c, 0, 68, 64
1, 188640, Note_on_c, 0, 51, 54
1, 188640, Note_on_c, 0, 63, 54
1, 188880, Note_on_c, 0, 63, 0
1, 188880, Note_on_c, 0, 51, 0
1, 189120, Note_on_c, 0, 68, 0
1, 189120, Note_on_c, 0, 73, 0
1, 189120, Note_on_c, 0, 72, 64
1, 189600, Tempo, 276396
1, 189600, Note_on_c, 0, 72, 0
1, 189600, Note_on_c, 0, 67, 59
1, 189600, Note_on_c, 0, 70, 59
1, 189600, Note_on_c, 0, 51, 45
1, 189600, Note_on_c, 0, 61, 45
1, 189840, Note_on_c, 0, 61, 0
1, 189840, Note_on_c, 0, 51, 0
1, 190080, Tempo, 280269
1, 190080, Note_on_c, 0, 67, 0
1, 190080, Note_on_c, 0, 56, 51
1, 190080, Note_on_c, 0, 60, 51
1, 190320, Note_on_c, 0, 60, 0
1, 190320, Note_on_c, 0, 56, 0
1, 190560, Note_on_c, 0, 70, 0
1, 190560, Note_on_c, 0, 68, 58
1, 190800, Note_on_c, 0, 68, 0
1, 191040, Tempo, 286889
1, 191040, Note_on_c, 0, 66, 64
1, 191040, Note_on_c, 0, 78, 64
1, 191040, Note_on_c, 0, 58, 49
1, 191040, Note_on_c, 0, 61, 49
1, 191520, Note_on_c, 0, 61, 0
1, 191520, Note_on_c, 0, 66, 0
1, 191520, Note_on_c, 0, 78, 0
1, 191520, Note_on_c, 0, 58, 0
1, 191520, Note_on_c, 0, 65, 65
1, 191520, Note_on_c, 0, 77, 65
1, 191520, Note_on_c, 0, 56, 54
1, 191520, Note_on_c, 0, 61, 54
1, 192480, Tempo, 289645
1, 192480, Note_on_c, 0, 61, 0
1, 192480, Note_on_c, 0, 65, 0
1, 192480, Note_on_c, 0, 77, 0
1, 192480, Note_on_c, 0, 56, 0
1, 192480, Note_on_c, 0, 63, 68
1, 192480, Note_on_c, 0, 75, 68
1, 192480, Note_on_c, 0, 54, 49
1, 192480, Note_on_c, 0, 60, 49
1, 192960, Note_on_c, 0, 60, 0
1, 192960, Note_on_c, 0, 63, 0
1, 192960, Note_on_c, 0, 75, 0
1, 192960, Note_on_c, 0, 54, 0
1, 192960, Note_on_c, 0, 68, 65
1, 192960, Note_on_c, 0, 80, 65
1, 192960, Note_on_c, 0, 53, 55
1, 192960, Note_on_c, 0, 61, 55
1, 193050, Note_on_c, 0, 61, 0
1, 193050, Note_on_c, 0, 68, 0
1, 193050, Note_on_c, 0, 80, 0
1, 193050, Note_on_c, 0, 53, 0
1, 193440, Tempo, 286205
1, 193920, Tempo, 280925
1, 193920, Note_on_c, 0, 66, 64
1, 193920, Note_on_c, 0, 78, 64
1, 193920, Note_on_c, 0, 58, 48
1, 193920, Note_on_c, 0, 61, 48
1, 194400, Tempo, 285605
1, 194400, Note_on_c, 0, 61, 0
1, 194400, Note_on_c, 0, 58, 0
1, 194400, Note_on_c, 0, 56, 54
1, 194400, Note_on_c, 0, 61, 54
1, 194880, Note_on_c, 0, 78, 0
1, 194880, Note_on_c, 0, 66, 0
1, 194880, Note_on_c, 0, 65, 64
1, 194880, Note_on_c, 0, 77, 64
1, 195360, Tempo, 288962
1, 195360, Note_on_c, 0, 77, 0
1, 195360, Note_on_c, 0, 61, 0
1, 195360, Note_on_c, 0, 56, 0
1, 195360, Note_on_c, 0, 65, 0
1, 195360, Note_on_c, 0, 63, 64
1, 195360, Note_on_c, 0, 75, 64
1, 195360, Note_on_c, 0, 54, 48
1, 195360, Note_on_c, 0, 60, 48
1, 195600, Note_on_c, 0, 75, 0
1, 195600, Note_on_c, 0, 63, 0
1, 195840, Note_on_c, 0, 54, 0
1, 195840, Note_on_c, 0, 60, 0
1, 195840, Note_on_c, 0, 68, 64
1, 195840, Note_on_c, 0, 80, 64
1, 195840, Note_on_c, 0, 53, 54
1, 195840, Note_on_c, 0, 61, 54
1, 195930, Note_on_c, 0, 61, 0
1, 195930, Note_on_c, 0, 68, 0
1, 195930, Note_on_c, 0, 80, 0
1, 195930, Note_on_c, 0, 53, 0
1, 196800, Note_on_c, 0, 66, 73
1, 196800, Note_on_c, 0, 78, 73
1, 196800, Note_on_c, 0, 58, 49
1, 196800, Note_on_c, 0, 61, 49
1, 196808, Tempo, 252525
1, 196816, Tempo, 286205
1, 197200, Tempo, 287577
1, 197224, Tempo, 288962
1, 197272, Tempo, 290360
1, 197280, Note_on_c, 0, 61, 0
1, 197280, Note_on_c, 0, 58, 0
1, 197280, Note_on_c, 0, 56, 54
1, 197280, Note_on_c, 0, 61, 54
1, 197432, Tempo, 291744
1, 197536, Tempo, 293169
1, 197584, Tempo, 294623
1, 197624, Tempo, 296092
1, 197688, Tempo, 297545
1, 197736, Tempo, 299013
1, 197752, Tempo, 300511
1, 197760, Note_on_c, 0, 78, 0
1, 197760, Note_on_c, 0, 66, 0
1, 197760, Note_on_c, 0, 65, 85
1, 197760, Note_on_c, 0, 77, 85
1, 197800, Tempo, 302039
1, 197816, Tempo, 303567
1, 197848, Tempo, 305095
1, 197872, Tempo, 306654
1, 197904, Tempo, 308214
1, 197968, Tempo, 311429
1, 197992, Tempo, 313054
1, 198024, Tempo, 314680
1, 198048, Tempo, 316339
1, 198096, Tempo, 318016
1, 198128, Tempo, 321423
1, 198152, Tempo, 323137
1, 198184, Tempo, 324886
1, 198192, Tempo, 326655
1, 198216, Tempo, 328443
1, 198240, Note_on_c, 0, 77, 0
1, 198240, Note_on_c, 0, 61, 0
1, 198240, Note_on_c, 0, 56, 0
1, 198240, Note_on_c, 0, 65, 0
1, 198240, Note_on_c, 0, 70, 103
1, 198240, Note_on_c, 0, 82, 103
1, 198240, Note_on_c, 0, 55, 62
1, 198240, Note_on_c, 0, 64, 62
1, 198240, Note_on_c, 0, 61, 62
1, 198248, Tempo, 330233
1, 198296, Tempo, 332079
1, 198320, Tempo, 333927
1, 198360, Tempo, 335777
1, 198384, Tempo, 337667
1, 198408, Tempo, 339559
1, 198432, Tempo, 341491
1, 198448, Tempo, 343446
1, 198472, Tempo, 345443
1, 198528, Tempo, 347443
1, 198576, Tempo, 349447
1, 198624, Tempo, 351494
1, 198640, Tempo, 353565
1, 198664, Tempo, 353565
1, 198720, Note_on_c, 0, 61, 0
1, 198720, Note_on_c, 0, 55, 0
1, 198720, Note_on_c, 0, 64, 0
1, 198720, Note_on_c, 0, 56, 65
1, 198720, Note_on_c, 0, 61, 65
1, 198720, Note_on_c, 0, 65, 65
1, 198760, Tempo, 355661
1, 199200, Note_on_c, 0, 65, 0
1, 199200, Note_on_c, 0, 56, 0
1, 199200, Note_on_c, 0, 70, 0
1, 199200, Note_on_c, 0, 82, 0
1, 199200, Note_on_c, 0, 61, 0
1, 199200, Note_on_c, 0, 68, 77
1, 199200, Note_on_c, 0, 80, 77
1, 199680, Note_on_c, 0, 80, 0
1, 199680, Note_on_c, 0, 68, 0
1, 200160, Note_on_c, 0, 54, 64
1, 200160, Note_on_c, 0, 60, 64
1, 200160, Note_on_c, 0, 32, 54
1, 200160, Note_on_c, 0, 44, 54
1, 200316, Control_c, 0, 64, 127
1, 201120, Tempo, 430880
1, 201120, Note_on_c, 0, 60, 0
1, 201120, Note_on_c, 0, 63, 60
1, 201360, Note_on_c, 0, 63, 0
1, 201360, Note_on_c, 0, 61, 60
1, 201600, Tempo, 667928
1, 201600, Note_on_c, 0, 61, 0
1, 201600, Note_on_c, 0, 54, 0
1, 201600, Note_on_c, 0, 32, 0
1, 201600, Note_on_c, 0, 44, 0
1, 201600, Note_on_c, 0, 53, 54
1, 201600, Note_on_c, 0, 61, 57
1, 201600, Note_on_c, 0, 37, 54
1, 201600, Note_on_c, 0, 44, 54
1, 201600, Control_c, 0, 64, 0
1, 202080, Tempo, 667928
1, 202080, Note_on_c, 0, 44, 0
1, 202080, Note_on_c, 0, 53, 0
1, 202080, Note_on_c, 0, 61, 0
1, 202080, Note_on_c, 0, 37, 0
1, 202080, End_track
0, 0, End_of_file
