0, 0, Header, 0, 1, 480
1, 0, Start_track
1, 0, Title_t, "Bilder einer Ausstellung"
1, 0, Title_t, "Promenade - Ballett der Küchlein  in ihren Eierschalen"
1, 0, Copyright_t, "Copyright © 2000 by Bernd Krueger"
1, 0, Text_t, "Modest Mussorgski"
1, 0, Text_t, "Fertiggestellt am 29.1.2000\012"
1, 0, Text_t, "Update am 1.7.2000\012"
1, 0, Text_t, "Normierung: 23.12.2002\012"
1, 0, Text_t, "Update am 22.8.2008\012"
1, 0, Text_t, "Update am 22.11.2013\012"
1, 0, Text_t, "Dauer: 1:42 Minuten\012"
1, 0, SMPTE_offset, 96, 0, 3, 0, 0
1, 0, Time_signature, 5, 2, 24, 8
1, 0, Key_signature, 0, "major"
1, 0, Tempo, 695169
1, 0, Marker_t, "Tranquillo"
1, 0, Program_c, 0, 0
1, 0, Control_c, 0, 7, 100
1, 0, Control_c, 0, 10, 64
1, 0, Text_t, "bdca426d104a26ac9dcb070447587523"
1, 0, Control_c, 0, 91, 127
1, 0, Program_c, 0, 0
1, 0, Control_c, 0, 7, 100
1, 0, Control_c, 0, 10, 64
1, 0, Control_c, 0, 64, 0
1, 480, Tempo, 695169
1, 481, Control_c, 0, 91, 127
1, 481, Control_c, 0, 91, 127
1, 960, Tempo, 681586
1, 960, Note_on_c, 0, 77, 45
1, 960, Note_on_c, 0, 81, 45
1, 960, Note_on_c, 0, 86, 54
1, 960, Note_on_c, 0, 74, 43
1, 988, Control_c, 0, 64, 127
1, 1440, Tempo, 672118
1, 1440, Note_on_c, 0, 74, 0
1, 1440, Note_on_c, 0, 77, 0
1, 1440, Note_on_c, 0, 81, 0
1, 1440, Note_on_c, 0, 86, 0
1, 1440, Note_on_c, 0, 81, 45
1, 1440, Note_on_c, 0, 84, 45
1, 1440, Note_on_c, 0, 88, 54
1, 1440, Note_on_c, 0, 72, 43
1, 1440, Note_on_c, 0, 76, 43
1, 1449, Control_c, 0, 64, 0
1, 1596, Control_c, 0, 64, 127
1, 1680, Note_on_c, 0, 88, 0
1, 1680, Note_on_c, 0, 93, 48
1, 1920, Tempo, 681586
1, 1920, Note_on_c, 0, 93, 0
1, 1920, Note_on_c, 0, 76, 0
1, 1920, Note_on_c, 0, 81, 0
1, 1920, Note_on_c, 0, 84, 0
1, 1920, Note_on_c, 0, 72, 0
1, 1920, Note_on_c, 0, 81, 45
1, 1920, Note_on_c, 0, 86, 45
1, 1920, Note_on_c, 0, 89, 54
1, 1920, Note_on_c, 0, 74, 45
1, 1920, Note_on_c, 0, 77, 45
1, 1934, Control_c, 0, 64, 0
1, 2132, Control_c, 0, 64, 127
1, 2400, Time_signature, 6, 2, 24, 8
1, 2400, Tempo, 672118
1, 2400, Note_on_c, 0, 77, 0
1, 2400, Note_on_c, 0, 89, 0
1, 2400, Note_on_c, 0, 81, 0
1, 2400, Note_on_c, 0, 86, 0
1, 2400, Note_on_c, 0, 74, 0
1, 2400, Note_on_c, 0, 81, 44
1, 2400, Note_on_c, 0, 84, 44
1, 2400, Note_on_c, 0, 88, 52
1, 2400, Note_on_c, 0, 72, 41
1, 2400, Note_on_c, 0, 76, 41
1, 2404, Control_c, 0, 64, 0
1, 2541, Control_c, 0, 64, 127
1, 2640, Note_on_c, 0, 88, 0
1, 2640, Note_on_c, 0, 93, 46
1, 2880, Tempo, 686420
1, 2880, Note_on_c, 0, 93, 0
1, 2880, Note_on_c, 0, 76, 0
1, 2880, Note_on_c, 0, 81, 0
1, 2880, Note_on_c, 0, 84, 0
1, 2880, Note_on_c, 0, 72, 0
1, 2880, Note_on_c, 0, 82, 42
1, 2880, Note_on_c, 0, 86, 42
1, 2880, Note_on_c, 0, 89, 50
1, 2880, Note_on_c, 0, 70, 40
1, 2880, Note_on_c, 0, 74, 40
1, 2890, Control_c, 0, 64, 0
1, 3050, Control_c, 0, 64, 127
1, 3360, Tempo, 679117
1, 3360, Note_on_c, 0, 74, 0
1, 3360, Note_on_c, 0, 89, 0
1, 3360, Note_on_c, 0, 82, 0
1, 3360, Note_on_c, 0, 86, 0
1, 3360, Note_on_c, 0, 70, 0
1, 3360, Note_on_c, 0, 79, 47
1, 3360, Note_on_c, 0, 82, 47
1, 3360, Note_on_c, 0, 86, 56
1, 3360, Note_on_c, 0, 67, 39
1, 3360, Note_on_c, 0, 70, 39
1, 3372, Control_c, 0, 64, 0
1, 3586, Control_c, 0, 64, 127
1, 3840, Tempo, 701754
1, 3840, Note_on_c, 0, 70, 0
1, 3840, Note_on_c, 0, 86, 0
1, 3840, Note_on_c, 0, 79, 0
1, 3840, Note_on_c, 0, 82, 0
1, 3840, Note_on_c, 0, 67, 0
1, 3840, Note_on_c, 0, 100, 53
1, 3840, Note_on_c, 0, 91, 53
1, 3840, Note_on_c, 0, 88, 45
1, 3840, Note_on_c, 0, 64, 34
1, 3840, Note_on_c, 0, 70, 34
1, 3840, Note_on_c, 0, 74, 34
1, 3853, Control_c, 0, 64, 0
1, 4038, Control_c, 0, 64, 127
1, 4320, Tempo, 722892
1, 4320, Note_on_c, 0, 74, 0
1, 4320, Note_on_c, 0, 91, 0
1, 4320, Note_on_c, 0, 88, 0
1, 4320, Note_on_c, 0, 100, 0
1, 4320, Note_on_c, 0, 70, 0
1, 4320, Note_on_c, 0, 64, 0
1, 4320, Note_on_c, 0, 94, 49
1, 4320, Note_on_c, 0, 91, 41
1, 4320, Note_on_c, 0, 88, 41
1, 4320, Note_on_c, 0, 67, 28
1, 4320, Note_on_c, 0, 70, 28
1, 4320, Note_on_c, 0, 74, 28
1, 4332, Control_c, 0, 64, 0
1, 4546, Control_c, 0, 64, 127
1, 4800, Tempo, 745342
1, 4800, Note_on_c, 0, 74, 0
1, 4800, Note_on_c, 0, 91, 0
1, 4800, Note_on_c, 0, 88, 0
1, 4800, Note_on_c, 0, 94, 0
1, 4800, Note_on_c, 0, 70, 0
1, 4800, Note_on_c, 0, 67, 0
1, 4800, Note_on_c, 0, 93, 44
1, 4800, Note_on_c, 0, 91, 37
1, 4800, Note_on_c, 0, 88, 37
1, 4800, Note_on_c, 0, 69, 25
1, 4800, Note_on_c, 0, 73, 25
1, 4813, Control_c, 0, 64, 0
1, 5012, Control_c, 0, 64, 127
1, 5280, Time_signature, 7, 2, 24, 8
1, 5280, Tempo, 677966
1, 5280, Note_on_c, 0, 73, 0
1, 5280, Note_on_c, 0, 88, 0
1, 5280, Note_on_c, 0, 93, 0
1, 5280, Note_on_c, 0, 91, 0
1, 5280, Note_on_c, 0, 69, 0
1, 5280, Control_c, 0, 64, 0
1, 6240, Tempo, 681818
1, 6240, Note_on_c, 0, 67, 45
1, 6240, Note_on_c, 0, 70, 54
1, 6240, Note_on_c, 0, 55, 36
1, 6240, Note_on_c, 0, 62, 43
1, 6720, Note_on_c, 0, 62, 0
1, 6720, Note_on_c, 0, 67, 0
1, 6720, Note_on_c, 0, 70, 0
1, 6720, Note_on_c, 0, 55, 0
1, 6720, Note_on_c, 0, 64, 45
1, 6720, Note_on_c, 0, 69, 54
1, 6720, Note_on_c, 0, 57, 36
1, 6720, Note_on_c, 0, 61, 43
1, 7200, Tempo, 681586
1, 7200, Note_on_c, 0, 61, 0
1, 7200, Note_on_c, 0, 64, 0
1, 7200, Note_on_c, 0, 69, 0
1, 7200, Note_on_c, 0, 57, 0
1, 7200, Note_on_c, 0, 65, 45
1, 7200, Note_on_c, 0, 69, 45
1, 7200, Note_on_c, 0, 74, 54
1, 7200, Note_on_c, 0, 53, 36
1, 7200, Note_on_c, 0, 62, 43
1, 7313, Control_c, 0, 64, 127
1, 7680, Tempo, 672118
1, 7680, Note_on_c, 0, 62, 0
1, 7680, Note_on_c, 0, 74, 0
1, 7680, Note_on_c, 0, 65, 0
1, 7680, Note_on_c, 0, 69, 0
1, 7680, Note_on_c, 0, 53, 0
1, 7680, Note_on_c, 0, 69, 49
1, 7680, Note_on_c, 0, 73, 49
1, 7680, Note_on_c, 0, 76, 58
1, 7680, Note_on_c, 0, 61, 43
1, 7680, Note_on_c, 0, 52, 36
1, 7688, Control_c, 0, 64, 0
1, 7821, Control_c, 0, 64, 127
1, 7920, Note_on_c, 0, 76, 0
1, 7920, Note_on_c, 0, 81, 53
1, 8160, Tempo, 681586
1, 8160, Note_on_c, 0, 81, 0
1, 8160, Note_on_c, 0, 52, 0
1, 8160, Note_on_c, 0, 69, 0
1, 8160, Note_on_c, 0, 73, 0
1, 8160, Note_on_c, 0, 61, 0
1, 8160, Note_on_c, 0, 69, 48
1, 8160, Note_on_c, 0, 74, 48
1, 8160, Note_on_c, 0, 77, 57
1, 8160, Note_on_c, 0, 62, 45
1, 8160, Note_on_c, 0, 50, 38
1, 8173, Control_c, 0, 64, 0
1, 8386, Control_c, 0, 64, 127
1, 8640, Time_signature, 6, 2, 24, 8
1, 8640, Tempo, 672118
1, 8640, Note_on_c, 0, 50, 0
1, 8640, Note_on_c, 0, 77, 0
1, 8640, Note_on_c, 0, 69, 0
1, 8640, Note_on_c, 0, 74, 0
1, 8640, Note_on_c, 0, 62, 0
1, 8640, Note_on_c, 0, 69, 50
1, 8640, Note_on_c, 0, 72, 59
1, 8640, Note_on_c, 0, 76, 59
1, 8640, Note_on_c, 0, 60, 41
1, 8640, Note_on_c, 0, 48, 34
1, 8647, Control_c, 0, 64, 0
1, 8810, Control_c, 0, 64, 127
1, 8880, Note_on_c, 0, 76, 0
1, 8880, Note_on_c, 0, 81, 55
1, 9120, Tempo, 686420
1, 9120, Note_on_c, 0, 81, 0
1, 9120, Note_on_c, 0, 48, 0
1, 9120, Note_on_c, 0, 69, 0
1, 9120, Note_on_c, 0, 72, 0
1, 9120, Note_on_c, 0, 60, 0
1, 9120, Note_on_c, 0, 65, 51
1, 9120, Note_on_c, 0, 74, 51
1, 9120, Note_on_c, 0, 77, 60
1, 9120, Note_on_c, 0, 58, 40
1, 9120, Note_on_c, 0, 46, 34
1, 9128, Control_c, 0, 64, 0
1, 9290, Control_c, 0, 64, 127
1, 9501, Control_c, 0, 64, 0
1, 9570, Note_on_c, 0, 46, 0
1, 9570, Note_on_c, 0, 77, 0
1, 9570, Note_on_c, 0, 65, 0
1, 9570, Note_on_c, 0, 74, 0
1, 9570, Note_on_c, 0, 58, 0
1, 9600, Tempo, 679117
1, 9600, Note_on_c, 0, 62, 53
1, 9600, Note_on_c, 0, 70, 53
1, 9600, Note_on_c, 0, 74, 63
1, 9600, Note_on_c, 0, 55, 47
1, 9600, Note_on_c, 0, 43, 39
1, 9826, Control_c, 0, 64, 127
1, 10080, Tempo, 701754
1, 10080, Note_on_c, 0, 43, 0
1, 10080, Note_on_c, 0, 74, 0
1, 10080, Note_on_c, 0, 62, 0
1, 10080, Note_on_c, 0, 70, 0
1, 10080, Note_on_c, 0, 55, 0
1, 10080, Note_on_c, 0, 64, 50
1, 10080, Note_on_c, 0, 67, 50
1, 10080, Note_on_c, 0, 76, 59
1, 10080, Note_on_c, 0, 48, 43
1, 10080, Note_on_c, 0, 36, 36
1, 10093, Control_c, 0, 64, 0
1, 10306, Control_c, 0, 64, 127
1, 10560, Tempo, 722892
1, 10560, Note_on_c, 0, 36, 0
1, 10560, Note_on_c, 0, 76, 0
1, 10560, Note_on_c, 0, 64, 0
1, 10560, Note_on_c, 0, 67, 0
1, 10560, Note_on_c, 0, 48, 0
1, 10560, Note_on_c, 0, 65, 54
1, 10560, Note_on_c, 0, 70, 54
1, 10560, Note_on_c, 0, 58, 45
1, 10560, Note_on_c, 0, 38, 32
1, 10560, Note_on_c, 0, 50, 38
1, 10572, Control_c, 0, 64, 0
1, 10758, Control_c, 0, 64, 127
1, 11040, Tempo, 774194
1, 11040, Note_on_c, 0, 50, 0
1, 11040, Note_on_c, 0, 58, 0
1, 11040, Note_on_c, 0, 65, 0
1, 11040, Note_on_c, 0, 70, 0
1, 11040, Note_on_c, 0, 38, 0
1, 11040, Note_on_c, 0, 57, 44
1, 11040, Note_on_c, 0, 69, 52
1, 11040, Note_on_c, 0, 64, 44
1, 11040, Note_on_c, 0, 37, 29
1, 11040, Note_on_c, 0, 49, 35
1, 11050, Control_c, 0, 64, 0
1, 11196, Control_c, 0, 64, 127
1, 11393, Control_c, 0, 64, 0
1, 11490, Note_on_c, 0, 49, 0
1, 11490, Note_on_c, 0, 64, 0
1, 11490, Note_on_c, 0, 57, 0
1, 11490, Note_on_c, 0, 69, 0
1, 11490, Note_on_c, 0, 37, 0
1, 11520, Time_signature, 5, 2, 24, 8
1, 11520, Tempo, 681973
1, 11520, Note_on_c, 0, 33, 56
1, 11520, Note_on_c, 0, 45, 66
1, 11704, Control_c, 0, 64, 127
1, 12000, Tempo, 677966
1, 12000, Note_on_c, 0, 45, 0
1, 12000, Note_on_c, 0, 33, 0
1, 12000, Note_on_c, 0, 34, 60
1, 12000, Note_on_c, 0, 46, 71
1, 12014, Control_c, 0, 64, 0
1, 12184, Control_c, 0, 64, 127
1, 12480, Tempo, 670391
1, 12480, Note_on_c, 0, 46, 0
1, 12480, Note_on_c, 0, 34, 0
1, 12480, Note_on_c, 0, 61, 66
1, 12480, Note_on_c, 0, 49, 56
1, 12480, Note_on_c, 0, 28, 56
1, 12480, Note_on_c, 0, 40, 66
1, 12494, Control_c, 0, 64, 0
1, 12706, Control_c, 0, 64, 127
1, 12932, Control_c, 0, 64, 0
1, 12960, Tempo, 659341
1, 12960, Note_on_c, 0, 40, 0
1, 12960, Note_on_c, 0, 28, 0
1, 12960, Note_on_c, 0, 33, 56
1, 12960, Note_on_c, 0, 45, 66
1, 13031, Control_c, 0, 64, 127
1, 13200, Note_on_c, 0, 45, 0
1, 13200, Note_on_c, 0, 33, 0
1, 13200, Note_on_c, 0, 34, 51
1, 13200, Note_on_c, 0, 46, 61
1, 13440, Tempo, 663203
1, 13440, Note_on_c, 0, 46, 0
1, 13440, Note_on_c, 0, 61, 0
1, 13440, Note_on_c, 0, 49, 0
1, 13440, Note_on_c, 0, 34, 0
1, 13440, Note_on_c, 0, 67, 72
1, 13440, Note_on_c, 0, 55, 61
1, 13440, Note_on_c, 0, 28, 53
1, 13440, Note_on_c, 0, 40, 63
1, 13454, Control_c, 0, 64, 0
1, 13694, Control_c, 0, 64, 127
1, 13920, Time_signature, 7, 2, 24, 8
1, 13920, Tempo, 656024
1, 13920, Note_on_c, 0, 40, 0
1, 13920, Note_on_c, 0, 67, 0
1, 13920, Note_on_c, 0, 55, 0
1, 13920, Note_on_c, 0, 28, 0
1, 13920, Note_on_c, 0, 64, 67
1, 13920, Note_on_c, 0, 52, 56
1, 13920, Note_on_c, 0, 34, 56
1, 13920, Note_on_c, 0, 46, 66
1, 13923, Control_c, 0, 64, 0
1, 14069, Control_c, 0, 64, 127
1, 14160, Note_on_c, 0, 46, 0
1, 14160, Note_on_c, 0, 34, 0
1, 14160, Note_on_c, 0, 36, 51
1, 14160, Note_on_c, 0, 48, 60
1, 14400, Tempo, 674309
1, 14400, Note_on_c, 0, 48, 0
1, 14400, Note_on_c, 0, 64, 0
1, 14400, Note_on_c, 0, 52, 0
1, 14400, Note_on_c, 0, 36, 0
1, 14400, Note_on_c, 0, 69, 73
1, 14400, Note_on_c, 0, 57, 62
1, 14400, Note_on_c, 0, 33, 52
1, 14400, Note_on_c, 0, 45, 62
1, 14413, Control_c, 0, 64, 0
1, 14583, Control_c, 0, 64, 127
1, 14880, Tempo, 659558
1, 14880, Note_on_c, 0, 45, 0
1, 14880, Note_on_c, 0, 33, 0
1, 14880, Note_on_c, 0, 45, 62
1, 14880, Note_on_c, 0, 57, 74
1, 15120, Note_on_c, 0, 57, 0
1, 15120, Note_on_c, 0, 69, 0
1, 15235, Control_c, 0, 64, 0
1, 15330, Note_on_c, 0, 45, 0
1, 15330, Note_on_c, 0, 57, 0
1, 15360, Tempo, 663203
1, 15360, Note_on_c, 0, 81, 75
1, 15360, Note_on_c, 0, 69, 63
1, 15360, Note_on_c, 0, 41, 65
1, 15360, Note_on_c, 0, 53, 77
1, 15635, Control_c, 0, 64, 127
1, 15840, Tempo, 666889
1, 15840, Note_on_c, 0, 53, 0
1, 15840, Note_on_c, 0, 81, 0
1, 15840, Note_on_c, 0, 69, 0
1, 15840, Note_on_c, 0, 41, 0
1, 15840, Note_on_c, 0, 70, 66
1, 15840, Note_on_c, 0, 82, 78
1, 15840, Note_on_c, 0, 40, 65
1, 15840, Note_on_c, 0, 52, 77
1, 15846, Control_c, 0, 64, 0
1, 15954, Control_c, 0, 64, 127
1, 16080, Tempo, 689734
1, 16080, Note_on_c, 0, 52, 0
1, 16080, Note_on_c, 0, 40, 0
1, 16080, Note_on_c, 0, 50, 68
1, 16080, Note_on_c, 0, 38, 57
1, 16320, Tempo, 678119
1, 16320, Note_on_c, 0, 38, 0
1, 16320, Note_on_c, 0, 70, 0
1, 16320, Note_on_c, 0, 82, 0
1, 16320, Note_on_c, 0, 50, 0
1, 16320, Note_on_c, 0, 81, 74
1, 16320, Note_on_c, 0, 69, 62
1, 16320, Note_on_c, 0, 33, 61
1, 16320, Note_on_c, 0, 45, 72
1, 16334, Control_c, 0, 64, 0
1, 16526, Control_c, 0, 64, 127
1, 16800, Note_on_c, 0, 45, 0
1, 16800, Note_on_c, 0, 81, 0
1, 16800, Note_on_c, 0, 69, 0
1, 16800, Note_on_c, 0, 33, 0
1, 16800, Note_on_c, 0, 67, 63
1, 16800, Note_on_c, 0, 79, 75
1, 16800, Note_on_c, 0, 34, 56
1, 16800, Note_on_c, 0, 46, 66
1, 16815, Control_c, 0, 64, 0
1, 16960, Control_c, 0, 64, 127
1, 17040, Note_on_c, 0, 79, 0
1, 17040, Note_on_c, 0, 67, 0
1, 17040, Note_on_c, 0, 65, 61
1, 17040, Note_on_c, 0, 77, 72
1, 17280, Time_signature, 5, 2, 24, 8
1, 17280, Tempo, 666889
1, 17280, Note_on_c, 0, 77, 0
1, 17280, Note_on_c, 0, 46, 0
1, 17280, Note_on_c, 0, 34, 0
1, 17280, Note_on_c, 0, 65, 0
1, 17280, Note_on_c, 0, 69, 61
1, 17280, Note_on_c, 0, 81, 72
1, 17280, Note_on_c, 0, 29, 56
1, 17280, Note_on_c, 0, 41, 66
1, 17291, Control_c, 0, 64, 0
1, 17534, Control_c, 0, 64, 127
1, 17760, Tempo, 666889
1, 17760, Note_on_c, 0, 41, 0
1, 17760, Note_on_c, 0, 69, 0
1, 17760, Note_on_c, 0, 81, 0
1, 17760, Note_on_c, 0, 29, 0
1, 17760, Note_on_c, 0, 70, 66
1, 17760, Note_on_c, 0, 82, 78
1, 17760, Note_on_c, 0, 31, 51
1, 17760, Note_on_c, 0, 43, 61
1, 17772, Control_c, 0, 64, 0
1, 18071, Control_c, 0, 64, 127
1, 18240, Tempo, 659558
1, 18240, Note_on_c, 0, 82, 0
1, 18240, Note_on_c, 0, 70, 0
1, 18240, Note_on_c, 0, 64, 61
1, 18240, Note_on_c, 0, 76, 72
1, 18720, Tempo, 652458
1, 18720, Note_on_c, 0, 76, 0
1, 18720, Note_on_c, 0, 64, 0
1, 18720, Note_on_c, 0, 69, 61
1, 18720, Note_on_c, 0, 81, 72
1, 18730, Control_c, 0, 64, 0
1, 18904, Control_c, 0, 64, 127
1, 18960, Note_on_c, 0, 81, 0
1, 18960, Note_on_c, 0, 69, 0
1, 18960, Note_on_c, 0, 70, 56
1, 18960, Note_on_c, 0, 82, 67
1, 19200, Tempo, 663203
1, 19200, Note_on_c, 0, 82, 0
1, 19200, Note_on_c, 0, 43, 0
1, 19200, Note_on_c, 0, 31, 0
1, 19200, Note_on_c, 0, 70, 0
1, 19200, Note_on_c, 0, 64, 58
1, 19200, Note_on_c, 0, 76, 69
1, 19200, Note_on_c, 0, 34, 51
1, 19200, Note_on_c, 0, 46, 60
1, 19213, Control_c, 0, 64, 0
1, 19412, Control_c, 0, 64, 127
1, 19680, Time_signature, 6, 2, 24, 8
1, 19680, Tempo, 656024
1, 19680, Note_on_c, 0, 46, 0
1, 19680, Note_on_c, 0, 64, 0
1, 19680, Note_on_c, 0, 76, 0
1, 19680, Note_on_c, 0, 34, 0
1, 19680, Note_on_c, 0, 70, 72
1, 19680, Note_on_c, 0, 82, 72
1, 19680, Note_on_c, 0, 40, 64
1, 19680, Note_on_c, 0, 52, 64
1, 19683, Control_c, 0, 64, 0
1, 19829, Control_c, 0, 64, 127
1, 19920, Note_on_c, 0, 82, 0
1, 19920, Note_on_c, 0, 70, 0
1, 19920, Note_on_c, 0, 72, 66
1, 19920, Note_on_c, 0, 84, 66
1, 20160, Tempo, 674309
1, 20160, Note_on_c, 0, 84, 0
1, 20160, Note_on_c, 0, 72, 0
1, 20160, Note_on_c, 0, 69, 68
1, 20160, Note_on_c, 0, 81, 68
1, 20175, Control_c, 0, 64, 0
1, 20355, Control_c, 0, 64, 127
1, 20503, Control_c, 0, 64, 0
1, 20610, Note_on_c, 0, 81, 0
1, 20610, Note_on_c, 0, 52, 0
1, 20610, Note_on_c, 0, 40, 0
1, 20610, Note_on_c, 0, 69, 0
1, 20640, Tempo, 681818
1, 20640, Note_on_c, 0, 81, 81
1, 20640, Note_on_c, 0, 93, 81
1, 20640, Note_on_c, 0, 33, 66
1, 20640, Note_on_c, 0, 45, 66
1, 20857, Control_c, 0, 64, 127
1, 21120, Tempo, 685793
1, 21120, Note_on_c, 0, 45, 0
1, 21120, Note_on_c, 0, 81, 0
1, 21120, Note_on_c, 0, 93, 0
1, 21120, Note_on_c, 0, 33, 0
1, 21120, Note_on_c, 0, 77, 84
1, 21120, Note_on_c, 0, 89, 84
1, 21120, Note_on_c, 0, 34, 64
1, 21120, Note_on_c, 0, 46, 64
1, 21133, Control_c, 0, 64, 0
1, 21303, Control_c, 0, 64, 127
1, 21600, Tempo, 701754
1, 21600, Note_on_c, 0, 46, 0
1, 21600, Note_on_c, 0, 77, 0
1, 21600, Note_on_c, 0, 89, 0
1, 21600, Note_on_c, 0, 34, 0
1, 21600, Note_on_c, 0, 76, 76
1, 21600, Note_on_c, 0, 88, 76
1, 21600, Note_on_c, 0, 31, 57
1, 21600, Note_on_c, 0, 43, 57
1, 21614, Control_c, 0, 64, 0
1, 21783, Control_c, 0, 64, 127
1, 21840, Note_on_c, 0, 88, 0
1, 21840, Note_on_c, 0, 76, 0
1, 21840, Note_on_c, 0, 86, 71
1, 21840, Note_on_c, 0, 74, 71
1, 22080, Tempo, 678119
1, 22080, Note_on_c, 0, 74, 0
1, 22080, Note_on_c, 0, 43, 0
1, 22080, Note_on_c, 0, 31, 0
1, 22080, Note_on_c, 0, 86, 0
1, 22080, Note_on_c, 0, 69, 63
1, 22080, Note_on_c, 0, 81, 63
1, 22080, Note_on_c, 0, 33, 54
1, 22080, Note_on_c, 0, 45, 54
1, 22092, Control_c, 0, 64, 0
1, 22286, Control_c, 0, 64, 127
1, 22560, Time_signature, 5, 2, 24, 8
1, 22560, Tempo, 701754
1, 22560, Note_on_c, 0, 45, 0
1, 22560, Note_on_c, 0, 69, 0
1, 22560, Note_on_c, 0, 81, 0
1, 22560, Note_on_c, 0, 33, 0
1, 22560, Control_c, 0, 64, 0
1, 23040, Tempo, 697674
1, 23040, Note_on_c, 0, 57, 50
1, 23040, Note_on_c, 0, 45, 45
1, 23040, Control_c, 0, 64, 127
1, 23520, Tempo, 736196
1, 23520, Note_on_c, 0, 45, 0
1, 23520, Note_on_c, 0, 57, 0
1, 23520, Note_on_c, 0, 69, 50
1, 23520, Note_on_c, 0, 57, 45
1, 23919, Control_c, 0, 64, 0
1, 23940, Note_on_c, 0, 69, 0
1, 23940, Note_on_c, 0, 86, 47
1, 24000, Tempo, 600000
1, 24000, Note_on_c, 0, 86, 0
1, 24000, Note_on_c, 0, 57, 0
1, 24000, Note_on_c, 0, 84, 68
1, 24000, Note_on_c, 0, 81, 57
1, 24000, Note_on_c, 0, 77, 57
1, 24060, Note_on_c, 0, 77, 0
1, 24060, Note_on_c, 0, 81, 0
1, 24060, Note_on_c, 0, 84, 0
1, 24120, Tempo, 621762
1, 24120, Note_on_c, 0, 65, 40
1, 24120, Note_on_c, 0, 69, 40
1, 24120, Note_on_c, 0, 72, 48
1, 24180, Note_on_c, 0, 72, 0
1, 24180, Note_on_c, 0, 69, 0
1, 24180, Note_on_c, 0, 65, 0
1, 24240, Tempo, 600000
1, 24240, Note_on_c, 0, 73, 50
1, 24240, Note_on_c, 0, 80, 59
1, 24240, Note_on_c, 0, 77, 50
1, 24300, Note_on_c, 0, 77, 0
1, 24300, Note_on_c, 0, 80, 0
1, 24300, Note_on_c, 0, 73, 0
1, 24360, Tempo, 615385
1, 24360, Note_on_c, 0, 71, 42
1, 24360, Note_on_c, 0, 68, 35
1, 24360, Note_on_c, 0, 65, 35
1, 24420, Note_on_c, 0, 65, 0
1, 24420, Note_on_c, 0, 68, 0
1, 24420, Note_on_c, 0, 71, 0
1, 24480, Tempo, 718563
1, 24960, Time_signature, 3, 2, 24, 8
1, 24960, Tempo, 693642
1, 24960, Note_on_c, 0, 69, 45
1, 24960, Note_on_c, 0, 57, 39
1, 24960, Control_c, 0, 64, 127
1, 25341, Control_c, 0, 64, 0
1, 25440, Note_on_c, 0, 57, 0
1, 25440, Note_on_c, 0, 69, 0
1, 25920, Tempo, 1016949
1, 25920, Note_on_c, 0, 81, 36
1, 25920, Note_on_c, 0, 69, 34
1, 25920, Control_c, 0, 64, 127
1, 26160, Note_on_c, 0, 69, 0
1, 26160, Note_on_c, 0, 81, 0
1, 26231, Control_c, 0, 64, 0
1, 26340, Tempo, 311688
1, 26340, Note_on_c, 0, 86, 45
1, 26400, Time_signature, 2, 2, 24, 8
1, 26400, Key_signature, -1, "major"
1, 26400, Tempo, 300210
1, 26400, Marker_t, "Scherzino"
1, 26400, Note_on_c, 0, 86, 0
1, 26400, Note_on_c, 0, 84, 45
1, 26400, Note_on_c, 0, 81, 38
1, 26400, Note_on_c, 0, 77, 38
1, 26520, Note_on_c, 0, 77, 0
1, 26520, Note_on_c, 0, 81, 0
1, 26520, Note_on_c, 0, 84, 0
1, 26640, Tempo, 309310
1, 26640, Note_on_c, 0, 65, 28
1, 26640, Note_on_c, 0, 69, 28
1, 26640, Note_on_c, 0, 72, 34
1, 26760, Note_on_c, 0, 72, 0
1, 26760, Note_on_c, 0, 69, 0
1, 26760, Note_on_c, 0, 65, 0
1, 26820, Note_on_c, 0, 84, 33
1, 26880, Tempo, 300210
1, 26880, Note_on_c, 0, 84, 0
1, 26880, Note_on_c, 0, 83, 40
1, 26880, Note_on_c, 0, 80, 34
1, 26880, Note_on_c, 0, 77, 34
1, 27000, Note_on_c, 0, 77, 0
1, 27000, Note_on_c, 0, 80, 0
1, 27000, Note_on_c, 0, 83, 0
1, 27120, Tempo, 305935
1, 27120, Note_on_c, 0, 73, 31
1, 27120, Note_on_c, 0, 68, 26
1, 27120, Note_on_c, 0, 65, 26
1, 27240, Note_on_c, 0, 65, 0
1, 27240, Note_on_c, 0, 68, 0
1, 27240, Note_on_c, 0, 73, 0
1, 27300, Note_on_c, 0, 86, 40
1, 27360, Tempo, 300210
1, 27360, Note_on_c, 0, 86, 0
1, 27360, Note_on_c, 0, 84, 45
1, 27360, Note_on_c, 0, 81, 38
1, 27360, Note_on_c, 0, 77, 38
1, 27480, Note_on_c, 0, 77, 0
1, 27480, Note_on_c, 0, 81, 0
1, 27480, Note_on_c, 0, 84, 0
1, 27600, Tempo, 303459
1, 27600, Note_on_c, 0, 65, 28
1, 27600, Note_on_c, 0, 69, 28
1, 27600, Note_on_c, 0, 72, 33
1, 27720, Note_on_c, 0, 72, 0
1, 27720, Note_on_c, 0, 69, 0
1, 27720, Note_on_c, 0, 65, 0
1, 27840, Tempo, 304260
1, 27840, Note_on_c, 0, 80, 45
1, 27840, Note_on_c, 0, 77, 38
1, 27840, Note_on_c, 0, 73, 38
1, 27840, Note_on_c, 0, 71, 36
1, 27840, Note_on_c, 0, 68, 30
1, 27960, Note_on_c, 0, 68, 0
1, 27960, Note_on_c, 0, 73, 0
1, 27960, Note_on_c, 0, 80, 0
1, 27960, Note_on_c, 0, 77, 0
1, 27960, Note_on_c, 0, 71, 0
1, 28020, Note_on_c, 0, 86, 31
1, 28080, Tempo, 314515
1, 28080, Note_on_c, 0, 86, 0
1, 28080, Note_on_c, 0, 84, 37
1, 28080, Note_on_c, 0, 81, 31
1, 28080, Note_on_c, 0, 77, 31
1, 28200, Note_on_c, 0, 77, 0
1, 28200, Note_on_c, 0, 81, 0
1, 28200, Note_on_c, 0, 84, 0
1, 28260, Note_on_c, 0, 86, 45
1, 28320, Tempo, 300210
1, 28320, Note_on_c, 0, 86, 0
1, 28320, Note_on_c, 0, 84, 45
1, 28320, Note_on_c, 0, 81, 38
1, 28320, Note_on_c, 0, 77, 38
1, 28440, Note_on_c, 0, 77, 0
1, 28440, Note_on_c, 0, 81, 0
1, 28440, Note_on_c, 0, 84, 0
1, 28560, Tempo, 309310
1, 28560, Note_on_c, 0, 65, 28
1, 28560, Note_on_c, 0, 69, 28
1, 28560, Note_on_c, 0, 72, 34
1, 28680, Note_on_c, 0, 72, 0
1, 28680, Note_on_c, 0, 69, 0
1, 28680, Note_on_c, 0, 65, 0
1, 28740, Note_on_c, 0, 84, 33
1, 28800, Tempo, 300210
1, 28800, Note_on_c, 0, 84, 0
1, 28800, Note_on_c, 0, 83, 40
1, 28800, Note_on_c, 0, 80, 34
1, 28800, Note_on_c, 0, 77, 34
1, 28920, Note_on_c, 0, 77, 0
1, 28920, Note_on_c, 0, 80, 0
1, 28920, Note_on_c, 0, 83, 0
1, 29040, Tempo, 305935
1, 29040, Note_on_c, 0, 73, 31
1, 29040, Note_on_c, 0, 68, 26
1, 29040, Note_on_c, 0, 65, 26
1, 29160, Note_on_c, 0, 65, 0
1, 29160, Note_on_c, 0, 68, 0
1, 29160, Note_on_c, 0, 73, 0
1, 29220, Note_on_c, 0, 86, 40
1, 29280, Tempo, 300210
1, 29280, Note_on_c, 0, 86, 0
1, 29280, Note_on_c, 0, 84, 45
1, 29280, Note_on_c, 0, 81, 38
1, 29280, Note_on_c, 0, 77, 38
1, 29400, Note_on_c, 0, 77, 0
1, 29400, Note_on_c, 0, 81, 0
1, 29400, Note_on_c, 0, 84, 0
1, 29520, Tempo, 303459
1, 29520, Note_on_c, 0, 65, 28
1, 29520, Note_on_c, 0, 69, 28
1, 29520, Note_on_c, 0, 72, 33
1, 29640, Note_on_c, 0, 72, 0
1, 29640, Note_on_c, 0, 69, 0
1, 29640, Note_on_c, 0, 65, 0
1, 29760, Tempo, 300210
1, 29760, Note_on_c, 0, 80, 45
1, 29760, Note_on_c, 0, 77, 38
1, 29760, Note_on_c, 0, 73, 38
1, 29880, Note_on_c, 0, 73, 0
1, 29880, Note_on_c, 0, 77, 0
1, 29880, Note_on_c, 0, 80, 0
1, 30000, Tempo, 303797
1, 30000, Note_on_c, 0, 68, 30
1, 30000, Note_on_c, 0, 71, 36
1, 30120, Note_on_c, 0, 71, 0
1, 30120, Note_on_c, 0, 68, 0
1, 30240, Tempo, 300000
1, 30240, Note_on_c, 0, 59, 34
1, 30360, Note_on_c, 0, 59, 0
1, 30420, Note_on_c, 0, 66, 32
1, 30480, Tempo, 305344
1, 30480, Note_on_c, 0, 66, 0
1, 30480, Note_on_c, 0, 67, 32
1, 30480, Note_on_c, 0, 64, 27
1, 30480, Note_on_c, 0, 60, 33
1, 30600, Note_on_c, 0, 60, 0
1, 30600, Note_on_c, 0, 64, 0
1, 30600, Note_on_c, 0, 67, 0
1, 30720, Tempo, 299252
1, 30720, Note_on_c, 0, 62, 34
1, 30840, Note_on_c, 0, 62, 0
1, 30900, Note_on_c, 0, 69, 32
1, 30960, Tempo, 305344
1, 30960, Note_on_c, 0, 69, 0
1, 30960, Note_on_c, 0, 70, 33
1, 30960, Note_on_c, 0, 67, 28
1, 30960, Note_on_c, 0, 63, 35
1, 31080, Note_on_c, 0, 63, 0
1, 31080, Note_on_c, 0, 67, 0
1, 31080, Note_on_c, 0, 70, 0
1, 31200, Tempo, 298507
1, 31200, Note_on_c, 0, 64, 36
1, 31320, Note_on_c, 0, 64, 0
1, 31380, Note_on_c, 0, 71, 32
1, 31440, Tempo, 304569
1, 31440, Note_on_c, 0, 71, 0
1, 31440, Note_on_c, 0, 68, 29
1, 31440, Note_on_c, 0, 72, 35
1, 31440, Note_on_c, 0, 65, 38
1, 31560, Note_on_c, 0, 65, 0
1, 31560, Note_on_c, 0, 72, 0
1, 31560, Note_on_c, 0, 68, 0
1, 31680, Tempo, 299252
1, 31680, Note_on_c, 0, 67, 39
1, 31800, Note_on_c, 0, 67, 0
1, 31860, Note_on_c, 0, 74, 32
1, 31920, Tempo, 303030
1, 31920, Note_on_c, 0, 74, 0
1, 31920, Note_on_c, 0, 75, 37
1, 31920, Note_on_c, 0, 72, 31
1, 31920, Note_on_c, 0, 68, 40
1, 32040, Note_on_c, 0, 68, 0
1, 32040, Note_on_c, 0, 72, 0
1, 32040, Note_on_c, 0, 75, 0
1, 32160, Tempo, 297030
1, 32160, Note_on_c, 0, 70, 41
1, 32280, Note_on_c, 0, 70, 0
1, 32340, Note_on_c, 0, 77, 32
1, 32400, Note_on_c, 0, 77, 0
1, 32400, Note_on_c, 0, 78, 39
1, 32400, Note_on_c, 0, 75, 33
1, 32400, Note_on_c, 0, 71, 43
1, 32440, Tempo, 303030
1, 32520, Note_on_c, 0, 71, 0
1, 32520, Note_on_c, 0, 75, 0
1, 32520, Note_on_c, 0, 78, 0
1, 32640, Tempo, 296296
1, 32640, Note_on_c, 0, 72, 44
1, 32760, Note_on_c, 0, 72, 0
1, 32820, Note_on_c, 0, 81, 32
1, 32880, Tempo, 301508
1, 32880, Note_on_c, 0, 81, 0
1, 32880, Note_on_c, 0, 82, 40
1, 32880, Note_on_c, 0, 78, 34
1, 32880, Note_on_c, 0, 73, 45
1, 33000, Note_on_c, 0, 73, 0
1, 33000, Note_on_c, 0, 78, 0
1, 33000, Note_on_c, 0, 82, 0
1, 33120, Tempo, 295567
1, 33120, Note_on_c, 0, 74, 46
1, 33240, Note_on_c, 0, 74, 0
1, 33300, Note_on_c, 0, 86, 32
1, 33360, Tempo, 300752
1, 33360, Note_on_c, 0, 86, 0
1, 33360, Note_on_c, 0, 87, 39
1, 33360, Note_on_c, 0, 82, 33
1, 33360, Note_on_c, 0, 79, 33
1, 33360, Note_on_c, 0, 75, 47
1, 33480, Note_on_c, 0, 75, 0
1, 33480, Note_on_c, 0, 87, 0
1, 33480, Note_on_c, 0, 82, 0
1, 33480, Note_on_c, 0, 79, 0
1, 33600, Tempo, 294840
1, 33600, Note_on_c, 0, 76, 46
1, 33720, Note_on_c, 0, 76, 0
1, 33780, Note_on_c, 0, 93, 32
1, 33840, Tempo, 306905
1, 33840, Note_on_c, 0, 93, 0
1, 33840, Note_on_c, 0, 91, 39
1, 33840, Note_on_c, 0, 88, 33
1, 33840, Note_on_c, 0, 84, 33
1, 33840, Note_on_c, 0, 72, 45
1, 33960, Note_on_c, 0, 72, 0
1, 33960, Note_on_c, 0, 91, 0
1, 33960, Note_on_c, 0, 88, 0
1, 33960, Note_on_c, 0, 84, 0
1, 34020, Tempo, 311688
1, 34020, Note_on_c, 0, 86, 45
1, 34080, Tempo, 300210
1, 34080, Note_on_c, 0, 86, 0
1, 34080, Note_on_c, 0, 84, 45
1, 34080, Note_on_c, 0, 81, 38
1, 34080, Note_on_c, 0, 77, 38
1, 34200, Note_on_c, 0, 77, 0
1, 34200, Note_on_c, 0, 81, 0
1, 34200, Note_on_c, 0, 84, 0
1, 34320, Tempo, 309310
1, 34320, Note_on_c, 0, 65, 28
1, 34320, Note_on_c, 0, 69, 28
1, 34320, Note_on_c, 0, 72, 34
1, 34440, Note_on_c, 0, 72, 0
1, 34440, Note_on_c, 0, 69, 0
1, 34440, Note_on_c, 0, 65, 0
1, 34500, Note_on_c, 0, 84, 33
1, 34560, Tempo, 300210
1, 34560, Note_on_c, 0, 84, 0
1, 34560, Note_on_c, 0, 83, 40
1, 34560, Note_on_c, 0, 80, 34
1, 34560, Note_on_c, 0, 77, 34
1, 34680, Note_on_c, 0, 77, 0
1, 34680, Note_on_c, 0, 80, 0
1, 34680, Note_on_c, 0, 83, 0
1, 34800, Tempo, 305935
1, 34800, Note_on_c, 0, 73, 31
1, 34800, Note_on_c, 0, 68, 26
1, 34800, Note_on_c, 0, 65, 26
1, 34920, Note_on_c, 0, 65, 0
1, 34920, Note_on_c, 0, 68, 0
1, 34920, Note_on_c, 0, 73, 0
1, 34980, Note_on_c, 0, 86, 40
1, 35040, Tempo, 300210
1, 35040, Note_on_c, 0, 86, 0
1, 35040, Note_on_c, 0, 84, 45
1, 35040, Note_on_c, 0, 81, 38
1, 35040, Note_on_c, 0, 77, 38
1, 35160, Note_on_c, 0, 77, 0
1, 35160, Note_on_c, 0, 81, 0
1, 35160, Note_on_c, 0, 84, 0
1, 35280, Tempo, 303459
1, 35280, Note_on_c, 0, 65, 28
1, 35280, Note_on_c, 0, 69, 28
1, 35280, Note_on_c, 0, 72, 33
1, 35400, Note_on_c, 0, 72, 0
1, 35400, Note_on_c, 0, 69, 0
1, 35400, Note_on_c, 0, 65, 0
1, 35460, Note_on_c, 0, 84, 33
1, 35520, Tempo, 304260
1, 35520, Note_on_c, 0, 84, 0
1, 35520, Note_on_c, 0, 80, 38
1, 35520, Note_on_c, 0, 77, 38
1, 35520, Note_on_c, 0, 83, 45
1, 35520, Note_on_c, 0, 73, 36
1, 35520, Note_on_c, 0, 68, 30
1, 35640, Note_on_c, 0, 68, 0
1, 35640, Note_on_c, 0, 83, 0
1, 35640, Note_on_c, 0, 80, 0
1, 35640, Note_on_c, 0, 77, 0
1, 35640, Note_on_c, 0, 73, 0
1, 35700, Note_on_c, 0, 86, 31
1, 35760, Tempo, 314515
1, 35760, Note_on_c, 0, 86, 0
1, 35760, Note_on_c, 0, 84, 37
1, 35760, Note_on_c, 0, 81, 31
1, 35760, Note_on_c, 0, 77, 31
1, 35880, Note_on_c, 0, 77, 0
1, 35880, Note_on_c, 0, 81, 0
1, 35880, Note_on_c, 0, 84, 0
1, 35940, Note_on_c, 0, 86, 45
1, 36000, Tempo, 300210
1, 36000, Note_on_c, 0, 86, 0
1, 36000, Note_on_c, 0, 84, 45
1, 36000, Note_on_c, 0, 81, 38
1, 36000, Note_on_c, 0, 77, 38
1, 36120, Note_on_c, 0, 77, 0
1, 36120, Note_on_c, 0, 81, 0
1, 36120, Note_on_c, 0, 84, 0
1, 36240, Tempo, 309310
1, 36240, Note_on_c, 0, 65, 28
1, 36240, Note_on_c, 0, 69, 28
1, 36240, Note_on_c, 0, 72, 34
1, 36360, Note_on_c, 0, 72, 0
1, 36360, Note_on_c, 0, 69, 0
1, 36360, Note_on_c, 0, 65, 0
1, 36420, Note_on_c, 0, 84, 33
1, 36480, Tempo, 300210
1, 36480, Note_on_c, 0, 84, 0
1, 36480, Note_on_c, 0, 83, 40
1, 36480, Note_on_c, 0, 80, 34
1, 36480, Note_on_c, 0, 77, 34
1, 36600, Note_on_c, 0, 77, 0
1, 36600, Note_on_c, 0, 80, 0
1, 36600, Note_on_c, 0, 83, 0
1, 36720, Tempo, 305935
1, 36720, Note_on_c, 0, 73, 31
1, 36720, Note_on_c, 0, 68, 26
1, 36720, Note_on_c, 0, 65, 26
1, 36840, Note_on_c, 0, 65, 0
1, 36840, Note_on_c, 0, 68, 0
1, 36840, Note_on_c, 0, 73, 0
1, 36900, Note_on_c, 0, 86, 40
1, 36960, Tempo, 300210
1, 36960, Note_on_c, 0, 86, 0
1, 36960, Note_on_c, 0, 84, 45
1, 36960, Note_on_c, 0, 81, 38
1, 36960, Note_on_c, 0, 77, 38
1, 37080, Note_on_c, 0, 77, 0
1, 37080, Note_on_c, 0, 81, 0
1, 37080, Note_on_c, 0, 84, 0
1, 37200, Tempo, 303459
1, 37200, Note_on_c, 0, 65, 28
1, 37200, Note_on_c, 0, 69, 28
1, 37200, Note_on_c, 0, 72, 33
1, 37320, Note_on_c, 0, 72, 0
1, 37320, Note_on_c, 0, 69, 0
1, 37320, Note_on_c, 0, 65, 0
1, 37440, Tempo, 300210
1, 37440, Note_on_c, 0, 80, 45
1, 37440, Note_on_c, 0, 77, 38
1, 37440, Note_on_c, 0, 73, 38
1, 37560, Note_on_c, 0, 73, 0
1, 37560, Note_on_c, 0, 77, 0
1, 37560, Note_on_c, 0, 80, 0
1, 37680, Tempo, 303797
1, 37680, Note_on_c, 0, 68, 30
1, 37680, Note_on_c, 0, 71, 36
1, 37800, Note_on_c, 0, 71, 0
1, 37800, Note_on_c, 0, 68, 0
1, 37920, Tempo, 300000
1, 37920, Note_on_c, 0, 61, 34
1, 38040, Note_on_c, 0, 61, 0
1, 38100, Note_on_c, 0, 70, 32
1, 38160, Tempo, 305344
1, 38160, Note_on_c, 0, 70, 0
1, 38160, Note_on_c, 0, 71, 32
1, 38160, Note_on_c, 0, 68, 27
1, 38160, Note_on_c, 0, 63, 33
1, 38280, Note_on_c, 0, 63, 0
1, 38280, Note_on_c, 0, 68, 0
1, 38280, Note_on_c, 0, 71, 0
1, 38400, Tempo, 299252
1, 38400, Note_on_c, 0, 64, 34
1, 38520, Note_on_c, 0, 64, 0
1, 38580, Note_on_c, 0, 72, 32
1, 38640, Tempo, 305344
1, 38640, Note_on_c, 0, 72, 0
1, 38640, Note_on_c, 0, 73, 33
1, 38640, Note_on_c, 0, 69, 28
1, 38640, Note_on_c, 0, 65, 35
1, 38760, Note_on_c, 0, 65, 0
1, 38760, Note_on_c, 0, 69, 0
1, 38760, Note_on_c, 0, 73, 0
1, 38880, Tempo, 298507
1, 38880, Note_on_c, 0, 66, 36
1, 39000, Note_on_c, 0, 66, 0
1, 39060, Note_on_c, 0, 75, 32
1, 39120, Tempo, 304569
1, 39120, Note_on_c, 0, 75, 0
1, 39120, Note_on_c, 0, 73, 29
1, 39120, Note_on_c, 0, 76, 35
1, 39120, Note_on_c, 0, 68, 38
1, 39240, Note_on_c, 0, 68, 0
1, 39240, Note_on_c, 0, 76, 0
1, 39240, Note_on_c, 0, 73, 0
1, 39360, Tempo, 299252
1, 39360, Note_on_c, 0, 69, 39
1, 39480, Note_on_c, 0, 69, 0
1, 39540, Note_on_c, 0, 77, 32
1, 39600, Tempo, 303030
1, 39600, Note_on_c, 0, 77, 0
1, 39600, Note_on_c, 0, 78, 37
1, 39600, Note_on_c, 0, 74, 31
1, 39600, Note_on_c, 0, 70, 40
1, 39720, Note_on_c, 0, 70, 0
1, 39720, Note_on_c, 0, 74, 0
1, 39720, Note_on_c, 0, 78, 0
1, 39840, Tempo, 300000
1, 39840, Note_on_c, 0, 63, 34
1, 39960, Note_on_c, 0, 63, 0
1, 40020, Note_on_c, 0, 72, 32
1, 40080, Tempo, 305344
1, 40080, Note_on_c, 0, 72, 0
1, 40080, Note_on_c, 0, 73, 32
1, 40080, Note_on_c, 0, 70, 27
1, 40080, Note_on_c, 0, 65, 33
1, 40200, Note_on_c, 0, 65, 0
1, 40200, Note_on_c, 0, 70, 0
1, 40200, Note_on_c, 0, 73, 0
1, 40320, Tempo, 299252
1, 40320, Note_on_c, 0, 66, 34
1, 40440, Note_on_c, 0, 66, 0
1, 40500, Note_on_c, 0, 74, 32
1, 40560, Tempo, 305344
1, 40560, Note_on_c, 0, 74, 0
1, 40560, Note_on_c, 0, 75, 33
1, 40560, Note_on_c, 0, 71, 31
1, 40560, Note_on_c, 0, 67, 35
1, 40680, Note_on_c, 0, 67, 0
1, 40680, Note_on_c, 0, 71, 0
1, 40680, Note_on_c, 0, 75, 0
1, 40800, Tempo, 298507
1, 40800, Note_on_c, 0, 68, 36
1, 40920, Note_on_c, 0, 68, 0
1, 40980, Note_on_c, 0, 76, 32
1, 41040, Tempo, 304569
1, 41040, Note_on_c, 0, 76, 0
1, 41040, Note_on_c, 0, 73, 29
1, 41040, Note_on_c, 0, 77, 35
1, 41040, Note_on_c, 0, 70, 38
1, 41160, Note_on_c, 0, 70, 0
1, 41160, Note_on_c, 0, 77, 0
1, 41160, Note_on_c, 0, 73, 0
1, 41280, Tempo, 299252
1, 41280, Note_on_c, 0, 71, 39
1, 41400, Note_on_c, 0, 71, 0
1, 41460, Note_on_c, 0, 79, 32
1, 41520, Tempo, 310881
1, 41520, Note_on_c, 0, 79, 0
1, 41520, Note_on_c, 0, 80, 37
1, 41520, Note_on_c, 0, 76, 31
1, 41520, Note_on_c, 0, 72, 40
1, 41640, Note_on_c, 0, 72, 0
1, 41640, Note_on_c, 0, 76, 0
1, 41640, Note_on_c, 0, 80, 0
1, 41700, Note_on_c, 0, 93, 55
1, 41760, Tempo, 295567
1, 41760, Note_on_c, 0, 93, 0
1, 41760, Note_on_c, 0, 94, 63
1, 41760, Note_on_c, 0, 90, 53
1, 41760, Note_on_c, 0, 60, 51
1, 41880, Note_on_c, 0, 60, 0
1, 41880, Note_on_c, 0, 90, 0
1, 41880, Note_on_c, 0, 94, 0
1, 42000, Tempo, 300000
1, 42000, Note_on_c, 0, 64, 47
1, 42120, Note_on_c, 0, 64, 0
1, 42180, Note_on_c, 0, 92, 51
1, 42240, Tempo, 295567
1, 42240, Note_on_c, 0, 92, 0
1, 42240, Note_on_c, 0, 93, 56
1, 42240, Note_on_c, 0, 89, 47
1, 42240, Note_on_c, 0, 61, 52
1, 42360, Note_on_c, 0, 61, 0
1, 42360, Note_on_c, 0, 89, 0
1, 42360, Note_on_c, 0, 93, 0
1, 42480, Tempo, 300000
1, 42480, Note_on_c, 0, 65, 47
1, 42600, Note_on_c, 0, 65, 0
1, 42660, Note_on_c, 0, 82, 50
1, 42720, Tempo, 296296
1, 42720, Note_on_c, 0, 82, 0
1, 42720, Note_on_c, 0, 83, 55
1, 42720, Note_on_c, 0, 81, 46
1, 42720, Note_on_c, 0, 63, 53
1, 42840, Note_on_c, 0, 63, 0
1, 42840, Note_on_c, 0, 81, 0
1, 42840, Note_on_c, 0, 83, 0
1, 42960, Tempo, 300000
1, 42960, Note_on_c, 0, 66, 50
1, 43080, Note_on_c, 0, 66, 0
1, 43140, Note_on_c, 0, 82, 47
1, 43200, Tempo, 298507
1, 43200, Note_on_c, 0, 82, 0
1, 43200, Note_on_c, 0, 84, 52
1, 43200, Note_on_c, 0, 79, 44
1, 43200, Note_on_c, 0, 64, 54
1, 43320, Note_on_c, 0, 64, 0
1, 43320, Note_on_c, 0, 79, 0
1, 43320, Note_on_c, 0, 84, 0
1, 43440, Tempo, 303030
1, 43440, Note_on_c, 0, 67, 52
1, 43560, Note_on_c, 0, 67, 0
1, 43620, Note_on_c, 0, 88, 53
1, 43680, Tempo, 298507
1, 43680, Note_on_c, 0, 88, 0
1, 43680, Note_on_c, 0, 89, 57
1, 43680, Note_on_c, 0, 85, 48
1, 43680, Note_on_c, 0, 65, 56
1, 43800, Note_on_c, 0, 65, 0
1, 43800, Note_on_c, 0, 85, 0
1, 43800, Note_on_c, 0, 89, 0
1, 43920, Tempo, 303030
1, 43920, Note_on_c, 0, 69, 51
1, 44040, Note_on_c, 0, 69, 0
1, 44100, Note_on_c, 0, 85, 51
1, 44160, Tempo, 300752
1, 44160, Note_on_c, 0, 85, 0
1, 44160, Note_on_c, 0, 82, 45
1, 44160, Note_on_c, 0, 86, 54
1, 44160, Note_on_c, 0, 66, 57
1, 44280, Note_on_c, 0, 66, 0
1, 44280, Note_on_c, 0, 86, 0
1, 44280, Note_on_c, 0, 82, 0
1, 44400, Tempo, 304569
1, 44400, Note_on_c, 0, 70, 53
1, 44520, Note_on_c, 0, 70, 0
1, 44580, Note_on_c, 0, 76, 55
1, 44640, Tempo, 300752
1, 44640, Note_on_c, 0, 76, 0
1, 44640, Note_on_c, 0, 73, 51
1, 44640, Note_on_c, 0, 77, 60
1, 44640, Note_on_c, 0, 68, 58
1, 44760, Note_on_c, 0, 68, 0
1, 44760, Note_on_c, 0, 77, 0
1, 44760, Note_on_c, 0, 73, 0
1, 44880, Tempo, 305344
1, 44880, Note_on_c, 0, 71, 56
1, 45000, Note_on_c, 0, 71, 0
1, 45060, Note_on_c, 0, 78, 53
1, 45120, Tempo, 303797
1, 45120, Note_on_c, 0, 78, 0
1, 45120, Note_on_c, 0, 79, 57
1, 45120, Note_on_c, 0, 76, 48
1, 45120, Note_on_c, 0, 70, 59
1, 45240, Note_on_c, 0, 76, 0
1, 45240, Note_on_c, 0, 79, 0
1, 45360, Tempo, 307692
1, 45360, Note_on_c, 0, 70, 0
1, 45360, Note_on_c, 0, 72, 55
1, 45600, Tempo, 393443
1, 45600, Note_on_c, 0, 72, 0
1, 45600, Note_on_c, 0, 85, 79
1, 46560, Tempo, 328767
1, 46800, Note_on_c, 0, 85, 0
1, 46980, Note_on_c, 0, 84, 59
1, 47040, Tempo, 418118
1, 47040, Note_on_c, 0, 84, 0
1, 47040, Note_on_c, 0, 72, 75
1, 47160, Note_on_c, 0, 72, 0
1, 47460, Tempo, 311688
1, 47460, Note_on_c, 0, 86, 45
1, 47520, Tempo, 299252
1, 47520, Marker_t, "Scherzino Wiederholung"
1, 47520, Note_on_c, 0, 86, 0
1, 47520, Note_on_c, 0, 84, 45
1, 47520, Note_on_c, 0, 81, 38
1, 47520, Note_on_c, 0, 77, 38
1, 47640, Note_on_c, 0, 77, 0
1, 47640, Note_on_c, 0, 81, 0
1, 47640, Note_on_c, 0, 84, 0
1, 47760, Tempo, 306122
1, 47760, Note_on_c, 0, 65, 28
1, 47760, Note_on_c, 0, 69, 28
1, 47760, Note_on_c, 0, 72, 34
1, 47880, Note_on_c, 0, 72, 0
1, 47880, Note_on_c, 0, 69, 0
1, 47880, Note_on_c, 0, 65, 0
1, 47940, Note_on_c, 0, 84, 33
1, 48000, Tempo, 298507
1, 48000, Note_on_c, 0, 84, 0
1, 48000, Note_on_c, 0, 83, 40
1, 48000, Note_on_c, 0, 80, 34
1, 48000, Note_on_c, 0, 77, 34
1, 48120, Note_on_c, 0, 77, 0
1, 48120, Note_on_c, 0, 80, 0
1, 48120, Note_on_c, 0, 83, 0
1, 48240, Tempo, 305935
1, 48240, Note_on_c, 0, 73, 31
1, 48240, Note_on_c, 0, 68, 26
1, 48240, Note_on_c, 0, 65, 26
1, 48360, Note_on_c, 0, 65, 0
1, 48360, Note_on_c, 0, 68, 0
1, 48360, Note_on_c, 0, 73, 0
1, 48420, Note_on_c, 0, 86, 40
1, 48480, Tempo, 299252
1, 48480, Note_on_c, 0, 86, 0
1, 48480, Note_on_c, 0, 84, 45
1, 48480, Note_on_c, 0, 81, 38
1, 48480, Note_on_c, 0, 77, 38
1, 48600, Note_on_c, 0, 77, 0
1, 48600, Note_on_c, 0, 81, 0
1, 48600, Note_on_c, 0, 84, 0
1, 48720, Tempo, 303459
1, 48720, Note_on_c, 0, 65, 28
1, 48720, Note_on_c, 0, 69, 28
1, 48720, Note_on_c, 0, 72, 33
1, 48840, Note_on_c, 0, 72, 0
1, 48840, Note_on_c, 0, 69, 0
1, 48840, Note_on_c, 0, 65, 0
1, 48960, Tempo, 304260
1, 48960, Note_on_c, 0, 80, 45
1, 48960, Note_on_c, 0, 77, 38
1, 48960, Note_on_c, 0, 73, 38
1, 48960, Note_on_c, 0, 71, 36
1, 48960, Note_on_c, 0, 68, 30
1, 49080, Note_on_c, 0, 68, 0
1, 49080, Note_on_c, 0, 73, 0
1, 49080, Note_on_c, 0, 80, 0
1, 49080, Note_on_c, 0, 77, 0
1, 49080, Note_on_c, 0, 71, 0
1, 49140, Note_on_c, 0, 86, 31
1, 49200, Tempo, 314515
1, 49200, Note_on_c, 0, 86, 0
1, 49200, Note_on_c, 0, 84, 37
1, 49200, Note_on_c, 0, 81, 31
1, 49200, Note_on_c, 0, 77, 31
1, 49320, Note_on_c, 0, 77, 0
1, 49320, Note_on_c, 0, 81, 0
1, 49320, Note_on_c, 0, 84, 0
1, 49380, Note_on_c, 0, 86, 45
1, 49440, Tempo, 300210
1, 49440, Note_on_c, 0, 86, 0
1, 49440, Note_on_c, 0, 84, 45
1, 49440, Note_on_c, 0, 81, 38
1, 49440, Note_on_c, 0, 77, 38
1, 49560, Note_on_c, 0, 77, 0
1, 49560, Note_on_c, 0, 81, 0
1, 49560, Note_on_c, 0, 84, 0
1, 49680, Tempo, 309310
1, 49680, Note_on_c, 0, 65, 28
1, 49680, Note_on_c, 0, 69, 28
1, 49680, Note_on_c, 0, 72, 34
1, 49800, Note_on_c, 0, 72, 0
1, 49800, Note_on_c, 0, 69, 0
1, 49800, Note_on_c, 0, 65, 0
1, 49860, Note_on_c, 0, 84, 33
1, 49920, Tempo, 300210
1, 49920, Note_on_c, 0, 84, 0
1, 49920, Note_on_c, 0, 83, 40
1, 49920, Note_on_c, 0, 80, 34
1, 49920, Note_on_c, 0, 77, 34
1, 50040, Note_on_c, 0, 77, 0
1, 50040, Note_on_c, 0, 80, 0
1, 50040, Note_on_c, 0, 83, 0
1, 50160, Tempo, 305935
1, 50160, Note_on_c, 0, 73, 31
1, 50160, Note_on_c, 0, 68, 26
1, 50160, Note_on_c, 0, 65, 26
1, 50280, Note_on_c, 0, 65, 0
1, 50280, Note_on_c, 0, 68, 0
1, 50280, Note_on_c, 0, 73, 0
1, 50340, Note_on_c, 0, 86, 40
1, 50400, Tempo, 300210
1, 50400, Note_on_c, 0, 86, 0
1, 50400, Note_on_c, 0, 84, 45
1, 50400, Note_on_c, 0, 81, 38
1, 50400, Note_on_c, 0, 77, 38
1, 50520, Note_on_c, 0, 77, 0
1, 50520, Note_on_c, 0, 81, 0
1, 50520, Note_on_c, 0, 84, 0
1, 50640, Tempo, 303459
1, 50640, Note_on_c, 0, 65, 28
1, 50640, Note_on_c, 0, 69, 28
1, 50640, Note_on_c, 0, 72, 33
1, 50760, Note_on_c, 0, 72, 0
1, 50760, Note_on_c, 0, 69, 0
1, 50760, Note_on_c, 0, 65, 0
1, 50880, Tempo, 300210
1, 50880, Note_on_c, 0, 80, 45
1, 50880, Note_on_c, 0, 77, 38
1, 50880, Note_on_c, 0, 73, 38
1, 51000, Note_on_c, 0, 73, 0
1, 51000, Note_on_c, 0, 77, 0
1, 51000, Note_on_c, 0, 80, 0
1, 51120, Tempo, 303797
1, 51120, Note_on_c, 0, 68, 30
1, 51120, Note_on_c, 0, 71, 36
1, 51240, Note_on_c, 0, 71, 0
1, 51240, Note_on_c, 0, 68, 0
1, 51360, Tempo, 300000
1, 51360, Note_on_c, 0, 59, 34
1, 51480, Note_on_c, 0, 59, 0
1, 51540, Note_on_c, 0, 66, 32
1, 51600, Tempo, 305344
1, 51600, Note_on_c, 0, 66, 0
1, 51600, Note_on_c, 0, 67, 32
1, 51600, Note_on_c, 0, 64, 27
1, 51600, Note_on_c, 0, 60, 33
1, 51720, Note_on_c, 0, 60, 0
1, 51720, Note_on_c, 0, 64, 0
1, 51720, Note_on_c, 0, 67, 0
1, 51840, Tempo, 299252
1, 51840, Note_on_c, 0, 62, 34
1, 51960, Note_on_c, 0, 62, 0
1, 52020, Note_on_c, 0, 69, 32
1, 52080, Tempo, 305344
1, 52080, Note_on_c, 0, 69, 0
1, 52080, Note_on_c, 0, 70, 33
1, 52080, Note_on_c, 0, 67, 28
1, 52080, Note_on_c, 0, 63, 35
1, 52200, Note_on_c, 0, 63, 0
1, 52200, Note_on_c, 0, 67, 0
1, 52200, Note_on_c, 0, 70, 0
1, 52320, Tempo, 298507
1, 52320, Note_on_c, 0, 64, 35
1, 52440, Note_on_c, 0, 64, 0
1, 52500, Note_on_c, 0, 71, 32
1, 52560, Tempo, 304569
1, 52560, Note_on_c, 0, 71, 0
1, 52560, Note_on_c, 0, 68, 29
1, 52560, Note_on_c, 0, 72, 35
1, 52560, Note_on_c, 0, 65, 37
1, 52680, Note_on_c, 0, 65, 0
1, 52680, Note_on_c, 0, 72, 0
1, 52680, Note_on_c, 0, 68, 0
1, 52800, Tempo, 299252
1, 52800, Note_on_c, 0, 67, 39
1, 52920, Note_on_c, 0, 67, 0
1, 52980, Note_on_c, 0, 74, 32
1, 53040, Tempo, 303030
1, 53040, Note_on_c, 0, 74, 0
1, 53040, Note_on_c, 0, 75, 37
1, 53040, Note_on_c, 0, 72, 32
1, 53040, Note_on_c, 0, 68, 42
1, 53160, Note_on_c, 0, 68, 0
1, 53160, Note_on_c, 0, 72, 0
1, 53160, Note_on_c, 0, 75, 0
1, 53280, Tempo, 297030
1, 53280, Note_on_c, 0, 70, 44
1, 53400, Note_on_c, 0, 70, 0
1, 53460, Note_on_c, 0, 77, 32
1, 53520, Note_on_c, 0, 77, 0
1, 53520, Note_on_c, 0, 78, 39
1, 53520, Note_on_c, 0, 75, 33
1, 53520, Note_on_c, 0, 71, 43
1, 53560, Tempo, 303030
1, 53640, Note_on_c, 0, 71, 0
1, 53640, Note_on_c, 0, 75, 0
1, 53640, Note_on_c, 0, 78, 0
1, 53760, Tempo, 296296
1, 53760, Note_on_c, 0, 72, 45
1, 53880, Note_on_c, 0, 72, 0
1, 53940, Note_on_c, 0, 81, 32
1, 54000, Tempo, 301508
1, 54000, Note_on_c, 0, 81, 0
1, 54000, Note_on_c, 0, 82, 40
1, 54000, Note_on_c, 0, 78, 34
1, 54000, Note_on_c, 0, 73, 46
1, 54120, Note_on_c, 0, 73, 0
1, 54120, Note_on_c, 0, 78, 0
1, 54120, Note_on_c, 0, 82, 0
1, 54240, Tempo, 295567
1, 54240, Note_on_c, 0, 74, 48
1, 54360, Note_on_c, 0, 74, 0
1, 54420, Note_on_c, 0, 86, 32
1, 54480, Tempo, 300752
1, 54480, Note_on_c, 0, 86, 0
1, 54480, Note_on_c, 0, 87, 39
1, 54480, Note_on_c, 0, 82, 33
1, 54480, Note_on_c, 0, 79, 33
1, 54480, Note_on_c, 0, 75, 50
1, 54600, Note_on_c, 0, 75, 0
1, 54600, Note_on_c, 0, 87, 0
1, 54600, Note_on_c, 0, 82, 0
1, 54600, Note_on_c, 0, 79, 0
1, 54720, Tempo, 294840
1, 54720, Note_on_c, 0, 76, 50
1, 54840, Note_on_c, 0, 76, 0
1, 54900, Note_on_c, 0, 93, 32
1, 54960, Tempo, 306905
1, 54960, Note_on_c, 0, 93, 0
1, 54960, Note_on_c, 0, 91, 39
1, 54960, Note_on_c, 0, 88, 33
1, 54960, Note_on_c, 0, 84, 33
1, 54960, Note_on_c, 0, 72, 45
1, 55080, Note_on_c, 0, 72, 0
1, 55080, Note_on_c, 0, 91, 0
1, 55080, Note_on_c, 0, 88, 0
1, 55080, Note_on_c, 0, 84, 0
1, 55140, Tempo, 311688
1, 55140, Note_on_c, 0, 86, 45
1, 55200, Tempo, 300210
1, 55200, Note_on_c, 0, 86, 0
1, 55200, Note_on_c, 0, 84, 45
1, 55200, Note_on_c, 0, 81, 38
1, 55200, Note_on_c, 0, 77, 38
1, 55320, Note_on_c, 0, 77, 0
1, 55320, Note_on_c, 0, 81, 0
1, 55320, Note_on_c, 0, 84, 0
1, 55440, Tempo, 306122
1, 55440, Note_on_c, 0, 65, 28
1, 55440, Note_on_c, 0, 69, 28
1, 55440, Note_on_c, 0, 72, 34
1, 55560, Note_on_c, 0, 72, 0
1, 55560, Note_on_c, 0, 69, 0
1, 55560, Note_on_c, 0, 65, 0
1, 55620, Note_on_c, 0, 84, 33
1, 55680, Tempo, 300210
1, 55680, Note_on_c, 0, 84, 0
1, 55680, Note_on_c, 0, 83, 40
1, 55680, Note_on_c, 0, 80, 34
1, 55680, Note_on_c, 0, 77, 34
1, 55800, Note_on_c, 0, 77, 0
1, 55800, Note_on_c, 0, 80, 0
1, 55800, Note_on_c, 0, 83, 0
1, 55920, Tempo, 305935
1, 55920, Note_on_c, 0, 73, 31
1, 55920, Note_on_c, 0, 68, 26
1, 55920, Note_on_c, 0, 65, 26
1, 56040, Note_on_c, 0, 65, 0
1, 56040, Note_on_c, 0, 68, 0
1, 56040, Note_on_c, 0, 73, 0
1, 56100, Note_on_c, 0, 86, 40
1, 56160, Tempo, 300210
1, 56160, Note_on_c, 0, 86, 0
1, 56160, Note_on_c, 0, 84, 45
1, 56160, Note_on_c, 0, 81, 38
1, 56160, Note_on_c, 0, 77, 38
1, 56280, Note_on_c, 0, 77, 0
1, 56280, Note_on_c, 0, 81, 0
1, 56280, Note_on_c, 0, 84, 0
1, 56400, Tempo, 303459
1, 56400, Note_on_c, 0, 65, 28
1, 56400, Note_on_c, 0, 69, 28
1, 56400, Note_on_c, 0, 72, 33
1, 56520, Note_on_c, 0, 72, 0
1, 56520, Note_on_c, 0, 69, 0
1, 56520, Note_on_c, 0, 65, 0
1, 56580, Note_on_c, 0, 84, 33
1, 56640, Tempo, 304260
1, 56640, Note_on_c, 0, 84, 0
1, 56640, Note_on_c, 0, 80, 38
1, 56640, Note_on_c, 0, 77, 38
1, 56640, Note_on_c, 0, 83, 45
1, 56640, Note_on_c, 0, 73, 36
1, 56640, Note_on_c, 0, 68, 30
1, 56760, Note_on_c, 0, 68, 0
1, 56760, Note_on_c, 0, 83, 0
1, 56760, Note_on_c, 0, 80, 0
1, 56760, Note_on_c, 0, 77, 0
1, 56760, Note_on_c, 0, 73, 0
1, 56820, Note_on_c, 0, 86, 31
1, 56880, Tempo, 314515
1, 56880, Note_on_c, 0, 86, 0
1, 56880, Note_on_c, 0, 84, 37
1, 56880, Note_on_c, 0, 81, 31
1, 56880, Note_on_c, 0, 77, 31
1, 57000, Note_on_c, 0, 77, 0
1, 57000, Note_on_c, 0, 81, 0
1, 57000, Note_on_c, 0, 84, 0
1, 57060, Note_on_c, 0, 86, 45
1, 57120, Tempo, 300210
1, 57120, Note_on_c, 0, 86, 0
1, 57120, Note_on_c, 0, 84, 45
1, 57120, Note_on_c, 0, 81, 38
1, 57120, Note_on_c, 0, 77, 38
1, 57240, Note_on_c, 0, 77, 0
1, 57240, Note_on_c, 0, 81, 0
1, 57240, Note_on_c, 0, 84, 0
1, 57360, Tempo, 305344
1, 57360, Note_on_c, 0, 65, 28
1, 57360, Note_on_c, 0, 69, 28
1, 57360, Note_on_c, 0, 72, 34
1, 57480, Note_on_c, 0, 72, 0
1, 57480, Note_on_c, 0, 69, 0
1, 57480, Note_on_c, 0, 65, 0
1, 57540, Note_on_c, 0, 84, 33
1, 57600, Tempo, 300210
1, 57600, Note_on_c, 0, 84, 0
1, 57600, Note_on_c, 0, 83, 40
1, 57600, Note_on_c, 0, 80, 34
1, 57600, Note_on_c, 0, 77, 34
1, 57720, Note_on_c, 0, 77, 0
1, 57720, Note_on_c, 0, 80, 0
1, 57720, Note_on_c, 0, 83, 0
1, 57840, Tempo, 305935
1, 57840, Note_on_c, 0, 73, 31
1, 57840, Note_on_c, 0, 68, 26
1, 57840, Note_on_c, 0, 65, 26
1, 57960, Note_on_c, 0, 65, 0
1, 57960, Note_on_c, 0, 68, 0
1, 57960, Note_on_c, 0, 73, 0
1, 58020, Note_on_c, 0, 86, 40
1, 58080, Tempo, 300210
1, 58080, Note_on_c, 0, 86, 0
1, 58080, Note_on_c, 0, 84, 45
1, 58080, Note_on_c, 0, 81, 38
1, 58080, Note_on_c, 0, 77, 38
1, 58200, Note_on_c, 0, 77, 0
1, 58200, Note_on_c, 0, 81, 0
1, 58200, Note_on_c, 0, 84, 0
1, 58320, Tempo, 303459
1, 58320, Note_on_c, 0, 65, 28
1, 58320, Note_on_c, 0, 69, 28
1, 58320, Note_on_c, 0, 72, 33
1, 58440, Note_on_c, 0, 72, 0
1, 58440, Note_on_c, 0, 69, 0
1, 58440, Note_on_c, 0, 65, 0
1, 58560, Tempo, 300210
1, 58560, Note_on_c, 0, 80, 45
1, 58560, Note_on_c, 0, 77, 38
1, 58560, Note_on_c, 0, 73, 38
1, 58680, Note_on_c, 0, 73, 0
1, 58680, Note_on_c, 0, 77, 0
1, 58680, Note_on_c, 0, 80, 0
1, 58800, Tempo, 303797
1, 58800, Note_on_c, 0, 68, 30
1, 58800, Note_on_c, 0, 71, 36
1, 58920, Note_on_c, 0, 71, 0
1, 58920, Note_on_c, 0, 68, 0
1, 59040, Tempo, 300000
1, 59040, Note_on_c, 0, 61, 34
1, 59160, Note_on_c, 0, 61, 0
1, 59220, Note_on_c, 0, 70, 32
1, 59280, Tempo, 305344
1, 59280, Note_on_c, 0, 70, 0
1, 59280, Note_on_c, 0, 71, 32
1, 59280, Note_on_c, 0, 68, 27
1, 59280, Note_on_c, 0, 63, 33
1, 59400, Note_on_c, 0, 63, 0
1, 59400, Note_on_c, 0, 68, 0
1, 59400, Note_on_c, 0, 71, 0
1, 59520, Tempo, 299252
1, 59520, Note_on_c, 0, 64, 34
1, 59640, Note_on_c, 0, 64, 0
1, 59700, Note_on_c, 0, 72, 32
1, 59760, Tempo, 305344
1, 59760, Note_on_c, 0, 72, 0
1, 59760, Note_on_c, 0, 73, 33
1, 59760, Note_on_c, 0, 69, 28
1, 59760, Note_on_c, 0, 65, 35
1, 59880, Note_on_c, 0, 65, 0
1, 59880, Note_on_c, 0, 69, 0
1, 59880, Note_on_c, 0, 73, 0
1, 60000, Tempo, 297030
1, 60000, Note_on_c, 0, 66, 36
1, 60120, Note_on_c, 0, 66, 0
1, 60180, Note_on_c, 0, 75, 32
1, 60240, Tempo, 304569
1, 60240, Note_on_c, 0, 75, 0
1, 60240, Note_on_c, 0, 73, 29
1, 60240, Note_on_c, 0, 76, 35
1, 60240, Note_on_c, 0, 68, 38
1, 60360, Note_on_c, 0, 68, 0
1, 60360, Note_on_c, 0, 76, 0
1, 60360, Note_on_c, 0, 73, 0
1, 60480, Tempo, 299252
1, 60480, Note_on_c, 0, 69, 39
1, 60600, Note_on_c, 0, 69, 0
1, 60660, Note_on_c, 0, 77, 32
1, 60720, Tempo, 303030
1, 60720, Note_on_c, 0, 77, 0
1, 60720, Note_on_c, 0, 78, 37
1, 60720, Note_on_c, 0, 74, 31
1, 60720, Note_on_c, 0, 70, 40
1, 60840, Note_on_c, 0, 70, 0
1, 60840, Note_on_c, 0, 74, 0
1, 60840, Note_on_c, 0, 78, 0
1, 60960, Tempo, 300000
1, 60960, Note_on_c, 0, 63, 34
1, 61080, Note_on_c, 0, 63, 0
1, 61140, Note_on_c, 0, 72, 32
1, 61200, Tempo, 305344
1, 61200, Note_on_c, 0, 72, 0
1, 61200, Note_on_c, 0, 73, 32
1, 61200, Note_on_c, 0, 70, 27
1, 61200, Note_on_c, 0, 65, 33
1, 61320, Note_on_c, 0, 65, 0
1, 61320, Note_on_c, 0, 70, 0
1, 61320, Note_on_c, 0, 73, 0
1, 61440, Tempo, 299252
1, 61440, Note_on_c, 0, 66, 34
1, 61560, Note_on_c, 0, 66, 0
1, 61620, Note_on_c, 0, 74, 32
1, 61680, Tempo, 305344
1, 61680, Note_on_c, 0, 74, 0
1, 61680, Note_on_c, 0, 75, 33
1, 61680, Note_on_c, 0, 71, 28
1, 61680, Note_on_c, 0, 67, 35
1, 61800, Note_on_c, 0, 67, 0
1, 61800, Note_on_c, 0, 71, 0
1, 61800, Note_on_c, 0, 75, 0
1, 61920, Tempo, 298507
1, 61920, Note_on_c, 0, 68, 36
1, 62040, Note_on_c, 0, 68, 0
1, 62100, Note_on_c, 0, 76, 32
1, 62160, Tempo, 304569
1, 62160, Note_on_c, 0, 76, 0
1, 62160, Note_on_c, 0, 73, 29
1, 62160, Note_on_c, 0, 77, 35
1, 62160, Note_on_c, 0, 70, 38
1, 62280, Note_on_c, 0, 70, 0
1, 62280, Note_on_c, 0, 77, 0
1, 62280, Note_on_c, 0, 73, 0
1, 62400, Tempo, 299252
1, 62400, Note_on_c, 0, 71, 39
1, 62520, Note_on_c, 0, 71, 0
1, 62580, Note_on_c, 0, 79, 32
1, 62640, Tempo, 310881
1, 62640, Note_on_c, 0, 79, 0
1, 62640, Note_on_c, 0, 80, 37
1, 62640, Note_on_c, 0, 76, 31
1, 62640, Note_on_c, 0, 72, 40
1, 62760, Note_on_c, 0, 72, 0
1, 62760, Note_on_c, 0, 76, 0
1, 62760, Note_on_c, 0, 80, 0
1, 62820, Note_on_c, 0, 93, 55
1, 62880, Tempo, 293399
1, 62880, Note_on_c, 0, 93, 0
1, 62880, Note_on_c, 0, 94, 65
1, 62880, Note_on_c, 0, 90, 55
1, 62880, Note_on_c, 0, 60, 51
1, 63000, Note_on_c, 0, 60, 0
1, 63000, Note_on_c, 0, 90, 0
1, 63000, Note_on_c, 0, 94, 0
1, 63120, Tempo, 297767
1, 63120, Note_on_c, 0, 64, 47
1, 63240, Note_on_c, 0, 64, 0
1, 63300, Note_on_c, 0, 92, 51
1, 63360, Tempo, 293399
1, 63360, Note_on_c, 0, 92, 0
1, 63360, Note_on_c, 0, 93, 59
1, 63360, Note_on_c, 0, 89, 50
1, 63360, Note_on_c, 0, 61, 52
1, 63480, Note_on_c, 0, 61, 0
1, 63480, Note_on_c, 0, 89, 0
1, 63480, Note_on_c, 0, 93, 0
1, 63600, Tempo, 297767
1, 63600, Note_on_c, 0, 65, 47
1, 63720, Note_on_c, 0, 65, 0
1, 63780, Note_on_c, 0, 82, 50
1, 63840, Tempo, 294840
1, 63840, Note_on_c, 0, 82, 0
1, 63840, Note_on_c, 0, 83, 57
1, 63840, Note_on_c, 0, 81, 48
1, 63840, Note_on_c, 0, 63, 53
1, 63960, Note_on_c, 0, 63, 0
1, 63960, Note_on_c, 0, 81, 0
1, 63960, Note_on_c, 0, 83, 0
1, 64080, Tempo, 300000
1, 64080, Note_on_c, 0, 66, 50
1, 64200, Note_on_c, 0, 66, 0
1, 64260, Note_on_c, 0, 82, 47
1, 64320, Tempo, 297030
1, 64320, Note_on_c, 0, 82, 0
1, 64320, Note_on_c, 0, 84, 55
1, 64320, Note_on_c, 0, 79, 46
1, 64320, Note_on_c, 0, 64, 54
1, 64440, Note_on_c, 0, 64, 0
1, 64440, Note_on_c, 0, 79, 0
1, 64440, Note_on_c, 0, 84, 0
1, 64560, Tempo, 303030
1, 64560, Note_on_c, 0, 67, 52
1, 64680, Note_on_c, 0, 67, 0
1, 64740, Note_on_c, 0, 88, 53
1, 64800, Tempo, 298507
1, 64800, Note_on_c, 0, 88, 0
1, 64800, Note_on_c, 0, 89, 59
1, 64800, Note_on_c, 0, 85, 50
1, 64800, Note_on_c, 0, 65, 56
1, 64920, Note_on_c, 0, 65, 0
1, 64920, Note_on_c, 0, 85, 0
1, 64920, Note_on_c, 0, 89, 0
1, 65040, Tempo, 303030
1, 65040, Note_on_c, 0, 69, 51
1, 65160, Note_on_c, 0, 69, 0
1, 65220, Note_on_c, 0, 85, 51
1, 65280, Tempo, 300752
1, 65280, Note_on_c, 0, 85, 0
1, 65280, Note_on_c, 0, 82, 47
1, 65280, Note_on_c, 0, 86, 56
1, 65280, Note_on_c, 0, 66, 57
1, 65400, Note_on_c, 0, 66, 0
1, 65400, Note_on_c, 0, 86, 0
1, 65400, Note_on_c, 0, 82, 0
1, 65520, Tempo, 304569
1, 65520, Note_on_c, 0, 70, 53
1, 65640, Note_on_c, 0, 70, 0
1, 65700, Note_on_c, 0, 76, 55
1, 65760, Tempo, 300752
1, 65760, Note_on_c, 0, 76, 0
1, 65760, Note_on_c, 0, 73, 51
1, 65760, Note_on_c, 0, 77, 60
1, 65760, Note_on_c, 0, 68, 58
1, 65880, Note_on_c, 0, 68, 0
1, 65880, Note_on_c, 0, 77, 0
1, 65880, Note_on_c, 0, 73, 0
1, 66000, Tempo, 305344
1, 66000, Note_on_c, 0, 71, 56
1, 66120, Note_on_c, 0, 71, 0
1, 66180, Note_on_c, 0, 78, 53
1, 66240, Tempo, 303797
1, 66240, Note_on_c, 0, 78, 0
1, 66240, Note_on_c, 0, 79, 57
1, 66240, Note_on_c, 0, 76, 48
1, 66240, Note_on_c, 0, 70, 59
1, 66360, Note_on_c, 0, 76, 0
1, 66360, Note_on_c, 0, 79, 0
1, 66480, Tempo, 307692
1, 66480, Note_on_c, 0, 70, 0
1, 66480, Note_on_c, 0, 72, 55
1, 66720, Tempo, 393443
1, 66720, Note_on_c, 0, 72, 0
1, 66720, Note_on_c, 0, 85, 79
1, 67680, Tempo, 328767
1, 67920, Note_on_c, 0, 85, 0
1, 68100, Note_on_c, 0, 84, 59
1, 68160, Tempo, 409556
1, 68160, Note_on_c, 0, 84, 0
1, 68160, Note_on_c, 0, 72, 75
1, 68280, Note_on_c, 0, 72, 0
1, 68560, Marker_t, "Trio Teil 1"
1, 68560, Note_on_c, 0, 91, 38
1, 68600, Tempo, 318302
1, 68605, Control_c, 0, 64, 127
1, 68620, Tempo, 318302
1, 68640, Tempo, 316623
1, 68640, Note_on_c, 0, 91, 0
1, 68640, Note_on_c, 0, 86, 41
1, 68640, Note_on_c, 0, 89, 41
1, 68640, Note_on_c, 0, 53, 45
1, 68660, Tempo, 315789
1, 68680, Tempo, 314961
1, 68720, Tempo, 318302
1, 68720, Note_on_c, 0, 89, 0
1, 68720, Note_on_c, 0, 91, 33
1, 68740, Tempo, 319149
1, 68800, Note_on_c, 0, 91, 0
1, 68800, Note_on_c, 0, 89, 41
1, 68820, Tempo, 315789
1, 68880, Tempo, 317460
1, 68880, Note_on_c, 0, 89, 0
1, 68880, Note_on_c, 0, 91, 33
1, 68880, Note_on_c, 0, 65, 36
1, 68900, Tempo, 319149
1, 68960, Note_on_c, 0, 91, 0
1, 68960, Note_on_c, 0, 89, 41
1, 68980, Tempo, 314961
1, 69000, Tempo, 314136
1, 69020, Tempo, 313316
1, 69040, Tempo, 315789
1, 69040, Note_on_c, 0, 89, 0
1, 69040, Note_on_c, 0, 91, 33
1, 69060, Tempo, 319149
1, 69120, Note_on_c, 0, 91, 0
1, 69120, Note_on_c, 0, 65, 0
1, 69120, Note_on_c, 0, 89, 41
1, 69120, Note_on_c, 0, 57, 43
1, 69140, Tempo, 315789
1, 69160, Tempo, 314961
1, 69200, Tempo, 316623
1, 69200, Note_on_c, 0, 89, 0
1, 69200, Note_on_c, 0, 91, 33
1, 69280, Tempo, 315789
1, 69280, Note_on_c, 0, 91, 0
1, 69280, Note_on_c, 0, 89, 41
1, 69300, Tempo, 314136
1, 69340, Tempo, 313316
1, 69360, Note_on_c, 0, 89, 0
1, 69360, Note_on_c, 0, 91, 33
1, 69360, Note_on_c, 0, 65, 36
1, 69380, Tempo, 315789
1, 69400, Tempo, 316623
1, 69420, Tempo, 317460
1, 69440, Note_on_c, 0, 91, 0
1, 69440, Note_on_c, 0, 89, 41
1, 69500, Tempo, 315789
1, 69520, Tempo, 314136
1, 69520, Note_on_c, 0, 89, 0
1, 69520, Note_on_c, 0, 88, 35
1, 69580, Note_on_c, 0, 88, 0
1, 69600, Tempo, 313316
1, 69600, Note_on_c, 0, 57, 0
1, 69600, Note_on_c, 0, 65, 0
1, 69600, Note_on_c, 0, 86, 0
1, 69600, Note_on_c, 0, 83, 37
1, 69600, Note_on_c, 0, 86, 37
1, 69600, Note_on_c, 0, 56, 45
1, 69607, Control_c, 0, 64, 0
1, 69639, Control_c, 0, 64, 127
1, 69640, Tempo, 314136
1, 69660, Tempo, 314961
1, 69680, Tempo, 315789
1, 69680, Note_on_c, 0, 86, 0
1, 69680, Note_on_c, 0, 88, 30
1, 69720, Tempo, 316623
1, 69760, Tempo, 314136
1, 69760, Note_on_c, 0, 88, 0
1, 69760, Note_on_c, 0, 86, 37
1, 69780, Tempo, 312500
1, 69820, Tempo, 314961
1, 69840, Tempo, 315789
1, 69840, Note_on_c, 0, 86, 0
1, 69840, Note_on_c, 0, 88, 31
1, 69840, Note_on_c, 0, 65, 36
1, 69860, Tempo, 316623
1, 69900, Tempo, 315789
1, 69920, Tempo, 314136
1, 69920, Note_on_c, 0, 88, 0
1, 69920, Note_on_c, 0, 86, 37
1, 69940, Tempo, 313316
1, 70000, Tempo, 314136
1, 70000, Note_on_c, 0, 86, 0
1, 70000, Note_on_c, 0, 88, 36
1, 70080, Tempo, 310881
1, 70080, Note_on_c, 0, 88, 0
1, 70080, Note_on_c, 0, 56, 0
1, 70080, Note_on_c, 0, 65, 0
1, 70080, Note_on_c, 0, 86, 37
1, 70080, Note_on_c, 0, 59, 43
1, 70100, Tempo, 311688
1, 70140, Tempo, 313316
1, 70160, Note_on_c, 0, 86, 0
1, 70160, Note_on_c, 0, 88, 32
1, 70220, Tempo, 312500
1, 70240, Note_on_c, 0, 88, 0
1, 70240, Note_on_c, 0, 86, 37
1, 70260, Tempo, 311688
1, 70280, Tempo, 310881
1, 70300, Tempo, 309278
1, 70320, Tempo, 308483
1, 70320, Note_on_c, 0, 86, 0
1, 70320, Note_on_c, 0, 88, 31
1, 70320, Note_on_c, 0, 65, 36
1, 70340, Tempo, 307692
1, 70360, Tempo, 308483
1, 70380, Tempo, 310881
1, 70400, Tempo, 311688
1, 70400, Note_on_c, 0, 88, 0
1, 70400, Note_on_c, 0, 86, 37
1, 70440, Tempo, 310881
1, 70460, Tempo, 310078
1, 70480, Note_on_c, 0, 86, 0
1, 70480, Note_on_c, 0, 86, 38
1, 70520, Tempo, 310881
1, 70540, Tempo, 312500
1, 70560, Note_on_c, 0, 86, 0
1, 70560, Note_on_c, 0, 53, 0
1, 70560, Note_on_c, 0, 59, 0
1, 70560, Note_on_c, 0, 83, 0
1, 70560, Note_on_c, 0, 65, 0
1, 70560, Note_on_c, 0, 81, 41
1, 70560, Note_on_c, 0, 84, 41
1, 70560, Note_on_c, 0, 53, 45
1, 70578, Control_c, 0, 64, 0
1, 70610, Control_c, 0, 64, 127
1, 70640, Tempo, 310881
1, 70640, Note_on_c, 0, 84, 0
1, 70640, Note_on_c, 0, 86, 32
1, 70660, Tempo, 310078
1, 70680, Tempo, 309278
1, 70720, Tempo, 310078
1, 70720, Note_on_c, 0, 86, 0
1, 70720, Note_on_c, 0, 84, 37
1, 70760, Tempo, 311688
1, 70800, Note_on_c, 0, 84, 0
1, 70800, Note_on_c, 0, 86, 31
1, 70800, Note_on_c, 0, 65, 36
1, 70840, Tempo, 310881
1, 70860, Tempo, 310078
1, 70880, Tempo, 309278
1, 70880, Note_on_c, 0, 86, 0
1, 70880, Note_on_c, 0, 84, 37
1, 70900, Tempo, 308483
1, 70920, Tempo, 310078
1, 70940, Tempo, 311688
1, 70960, Note_on_c, 0, 84, 0
1, 70960, Note_on_c, 0, 88, 38
1, 71000, Tempo, 310881
1, 71020, Tempo, 309278
1, 71040, Note_on_c, 0, 88, 0
1, 71040, Note_on_c, 0, 65, 0
1, 71040, Note_on_c, 0, 81, 0
1, 71040, Note_on_c, 0, 83, 37
1, 71040, Note_on_c, 0, 86, 37
1, 71040, Note_on_c, 0, 59, 43
1, 71049, Control_c, 0, 64, 0
1, 71060, Tempo, 310078
1, 71080, Tempo, 312500
1, 71090, Control_c, 0, 64, 127
1, 71120, Tempo, 310881
1, 71120, Note_on_c, 0, 86, 0
1, 71120, Note_on_c, 0, 88, 32
1, 71140, Tempo, 310078
1, 71160, Tempo, 309278
1, 71180, Tempo, 310078
1, 71200, Note_on_c, 0, 88, 0
1, 71200, Note_on_c, 0, 86, 37
1, 71220, Tempo, 310881
1, 71240, Tempo, 311688
1, 71260, Tempo, 313316
1, 71280, Tempo, 311688
1, 71280, Note_on_c, 0, 86, 0
1, 71280, Note_on_c, 0, 88, 33
1, 71280, Note_on_c, 0, 65, 35
1, 71300, Tempo, 310881
1, 71320, Tempo, 310078
1, 71340, Tempo, 309278
1, 71360, Note_on_c, 0, 88, 0
1, 71360, Note_on_c, 0, 86, 36
1, 71380, Tempo, 310078
1, 71400, Tempo, 310881
1, 71440, Note_on_c, 0, 86, 0
1, 71440, Note_on_c, 0, 86, 38
1, 71520, Note_on_c, 0, 86, 0
1, 71520, Note_on_c, 0, 59, 0
1, 71520, Note_on_c, 0, 65, 0
1, 71520, Note_on_c, 0, 83, 0
1, 71520, Note_on_c, 0, 81, 39
1, 71520, Note_on_c, 0, 84, 39
1, 71520, Note_on_c, 0, 57, 42
1, 71528, Control_c, 0, 64, 0
1, 71560, Control_c, 0, 64, 127
1, 71600, Note_on_c, 0, 84, 0
1, 71600, Note_on_c, 0, 86, 34
1, 71640, Tempo, 311688
1, 71680, Note_on_c, 0, 86, 0
1, 71680, Note_on_c, 0, 84, 39
1, 71760, Tempo, 312500
1, 71760, Note_on_c, 0, 84, 0
1, 71760, Note_on_c, 0, 86, 33
1, 71760, Note_on_c, 0, 65, 33
1, 71840, Note_on_c, 0, 86, 0
1, 71840, Note_on_c, 0, 84, 39
1, 71880, Tempo, 313316
1, 71920, Note_on_c, 0, 84, 0
1, 71920, Note_on_c, 0, 85, 38
1, 71980, Tempo, 313316
1, 72000, Note_on_c, 0, 85, 0
1, 72000, Note_on_c, 0, 57, 0
1, 72000, Note_on_c, 0, 65, 0
1, 72000, Note_on_c, 0, 81, 0
1, 72000, Note_on_c, 0, 77, 36
1, 72000, Note_on_c, 0, 83, 36
1, 72000, Note_on_c, 0, 56, 41
1, 72011, Control_c, 0, 64, 0
1, 72060, Control_c, 0, 64, 127
1, 72080, Tempo, 312500
1, 72080, Note_on_c, 0, 83, 0
1, 72080, Note_on_c, 0, 85, 31
1, 72100, Tempo, 314136
1, 72120, Tempo, 315789
1, 72140, Tempo, 314136
1, 72160, Tempo, 313316
1, 72160, Note_on_c, 0, 85, 0
1, 72160, Note_on_c, 0, 83, 36
1, 72180, Tempo, 312500
1, 72200, Tempo, 311688
1, 72240, Note_on_c, 0, 83, 0
1, 72240, Note_on_c, 0, 85, 31
1, 72240, Note_on_c, 0, 65, 36
1, 72260, Tempo, 314961
1, 72280, Tempo, 315789
1, 72320, Note_on_c, 0, 85, 0
1, 72320, Note_on_c, 0, 83, 37
1, 72340, Tempo, 314136
1, 72360, Tempo, 312500
1, 72380, Tempo, 311688
1, 72400, Note_on_c, 0, 83, 0
1, 72400, Note_on_c, 0, 86, 36
1, 72440, Tempo, 314961
1, 72480, Note_on_c, 0, 86, 0
1, 72480, Note_on_c, 0, 53, 0
1, 72480, Note_on_c, 0, 56, 0
1, 72480, Note_on_c, 0, 77, 0
1, 72480, Note_on_c, 0, 65, 0
1, 72480, Note_on_c, 0, 81, 37
1, 72480, Note_on_c, 0, 84, 37
1, 72480, Note_on_c, 0, 53, 45
1, 72489, Control_c, 0, 64, 0
1, 72520, Tempo, 313316
1, 72540, Tempo, 312500
1, 72546, Control_c, 0, 64, 127
1, 72560, Tempo, 311688
1, 72560, Note_on_c, 0, 84, 0
1, 72560, Note_on_c, 0, 86, 30
1, 72600, Tempo, 310881
1, 72620, Tempo, 311688
1, 72640, Tempo, 314136
1, 72640, Note_on_c, 0, 86, 0
1, 72640, Note_on_c, 0, 84, 37
1, 72720, Tempo, 311688
1, 72720, Note_on_c, 0, 84, 0
1, 72720, Note_on_c, 0, 86, 31
1, 72720, Note_on_c, 0, 65, 36
1, 72760, Tempo, 313316
1, 72800, Tempo, 314136
1, 72800, Note_on_c, 0, 86, 0
1, 72800, Note_on_c, 0, 84, 36
1, 72820, Tempo, 314961
1, 72880, Tempo, 314136
1, 72880, Note_on_c, 0, 84, 0
1, 72880, Note_on_c, 0, 86, 31
1, 72900, Tempo, 312500
1, 72940, Tempo, 311688
1, 72960, Note_on_c, 0, 86, 0
1, 72960, Note_on_c, 0, 65, 0
1, 72960, Note_on_c, 0, 84, 36
1, 72960, Note_on_c, 0, 57, 42
1, 73040, Note_on_c, 0, 84, 0
1, 73040, Note_on_c, 0, 86, 31
1, 73060, Tempo, 312500
1, 73080, Tempo, 311688
1, 73120, Tempo, 310078
1, 73120, Note_on_c, 0, 86, 0
1, 73120, Note_on_c, 0, 84, 36
1, 73160, Tempo, 310881
1, 73180, Tempo, 311688
1, 73200, Tempo, 312500
1, 73200, Note_on_c, 0, 84, 0
1, 73200, Note_on_c, 0, 86, 30
1, 73200, Note_on_c, 0, 65, 35
1, 73220, Tempo, 314136
1, 73280, Note_on_c, 0, 86, 0
1, 73280, Note_on_c, 0, 84, 35
1, 73300, Tempo, 313316
1, 73360, Tempo, 314136
1, 73360, Note_on_c, 0, 84, 0
1, 73360, Note_on_c, 0, 85, 35
1, 73380, Tempo, 314961
1, 73420, Tempo, 314136
1, 73440, Note_on_c, 0, 85, 0
1, 73440, Note_on_c, 0, 57, 0
1, 73440, Note_on_c, 0, 65, 0
1, 73440, Note_on_c, 0, 81, 0
1, 73440, Note_on_c, 0, 77, 35
1, 73440, Note_on_c, 0, 83, 35
1, 73440, Note_on_c, 0, 56, 39
1, 73453, Control_c, 0, 64, 0
1, 73489, Control_c, 0, 64, 127
1, 73520, Tempo, 313316
1, 73520, Note_on_c, 0, 83, 0
1, 73520, Note_on_c, 0, 85, 28
1, 73540, Tempo, 312500
1, 73560, Tempo, 311688
1, 73580, Tempo, 312500
1, 73600, Tempo, 313316
1, 73600, Note_on_c, 0, 85, 0
1, 73600, Note_on_c, 0, 83, 35
1, 73620, Tempo, 314136
1, 73640, Tempo, 316623
1, 73680, Tempo, 314136
1, 73680, Note_on_c, 0, 83, 0
1, 73680, Note_on_c, 0, 85, 29
1, 73680, Note_on_c, 0, 65, 32
1, 73700, Tempo, 313316
1, 73720, Tempo, 312500
1, 73740, Tempo, 311688
1, 73760, Tempo, 310881
1, 73760, Note_on_c, 0, 85, 0
1, 73760, Note_on_c, 0, 83, 35
1, 73800, Tempo, 311688
1, 73820, Tempo, 312500
1, 73840, Tempo, 313316
1, 73840, Note_on_c, 0, 83, 0
1, 73840, Note_on_c, 0, 85, 30
1, 73860, Tempo, 314136
1, 73880, Tempo, 314961
1, 73900, Tempo, 314136
1, 73920, Note_on_c, 0, 85, 0
1, 73920, Note_on_c, 0, 56, 0
1, 73920, Note_on_c, 0, 65, 0
1, 73920, Note_on_c, 0, 83, 35
1, 73920, Note_on_c, 0, 59, 39
1, 73940, Tempo, 313316
1, 73960, Tempo, 312500
1, 73980, Tempo, 311688
1, 74000, Note_on_c, 0, 83, 0
1, 74000, Note_on_c, 0, 85, 30
1, 74020, Tempo, 312500
1, 74040, Tempo, 313316
1, 74080, Tempo, 314136
1, 74080, Note_on_c, 0, 85, 0
1, 74080, Note_on_c, 0, 83, 34
1, 74160, Tempo, 313316
1, 74160, Note_on_c, 0, 83, 0
1, 74160, Note_on_c, 0, 85, 29
1, 74160, Note_on_c, 0, 65, 33
1, 74200, Tempo, 311688
1, 74240, Note_on_c, 0, 85, 0
1, 74240, Note_on_c, 0, 83, 34
1, 74260, Tempo, 313316
1, 74280, Tempo, 314136
1, 74300, Tempo, 315789
1, 74320, Note_on_c, 0, 83, 0
1, 74320, Note_on_c, 0, 83, 33
1, 74340, Tempo, 314961
1, 74360, Tempo, 313316
1, 74380, Tempo, 311688
1, 74400, Note_on_c, 0, 83, 0
1, 74400, Note_on_c, 0, 53, 0
1, 74400, Note_on_c, 0, 59, 0
1, 74400, Note_on_c, 0, 77, 0
1, 74400, Note_on_c, 0, 65, 0
1, 74400, Note_on_c, 0, 74, 34
1, 74400, Note_on_c, 0, 81, 34
1, 74400, Note_on_c, 0, 53, 38
1, 74409, Control_c, 0, 64, 0
1, 74437, Control_c, 0, 64, 127
1, 74460, Tempo, 312500
1, 74480, Tempo, 313316
1, 74480, Note_on_c, 0, 81, 0
1, 74480, Note_on_c, 0, 83, 27
1, 74500, Tempo, 314136
1, 74560, Note_on_c, 0, 83, 0
1, 74560, Note_on_c, 0, 81, 32
1, 74600, Tempo, 312500
1, 74620, Tempo, 311688
1, 74640, Tempo, 310881
1, 74640, Note_on_c, 0, 81, 0
1, 74640, Note_on_c, 0, 83, 28
1, 74640, Note_on_c, 0, 65, 30
1, 74680, Tempo, 310078
1, 74700, Tempo, 310881
1, 74720, Tempo, 313316
1, 74720, Note_on_c, 0, 83, 0
1, 74720, Note_on_c, 0, 81, 32
1, 74740, Tempo, 314136
1, 74760, Tempo, 314961
1, 74780, Tempo, 315789
1, 74800, Note_on_c, 0, 81, 0
1, 74800, Note_on_c, 0, 83, 29
1, 74840, Tempo, 314961
1, 74860, Tempo, 314136
1, 74880, Note_on_c, 0, 83, 0
1, 74880, Note_on_c, 0, 65, 0
1, 74880, Note_on_c, 0, 81, 31
1, 74880, Note_on_c, 0, 59, 36
1, 74900, Tempo, 313316
1, 74960, Note_on_c, 0, 81, 0
1, 74960, Note_on_c, 0, 83, 29
1, 75000, Tempo, 314961
1, 75020, Tempo, 315789
1, 75040, Tempo, 316623
1, 75040, Note_on_c, 0, 83, 0
1, 75040, Note_on_c, 0, 81, 30
1, 75100, Tempo, 314136
1, 75120, Tempo, 313316
1, 75120, Note_on_c, 0, 81, 0
1, 75120, Note_on_c, 0, 83, 27
1, 75120, Note_on_c, 0, 65, 29
1, 75140, Tempo, 312500
1, 75160, Tempo, 311688
1, 75200, Note_on_c, 0, 83, 0
1, 75200, Note_on_c, 0, 81, 30
1, 75220, Tempo, 312500
1, 75240, Tempo, 314136
1, 75260, Tempo, 314961
1, 75280, Tempo, 315789
1, 75280, Note_on_c, 0, 81, 0
1, 75280, Note_on_c, 0, 79, 30
1, 75340, Tempo, 314136
1, 75360, Tempo, 313316
1, 75360, Note_on_c, 0, 79, 0
1, 75360, Note_on_c, 0, 74, 0
1, 75360, Note_on_c, 0, 59, 0
1, 75360, Note_on_c, 0, 53, 0
1, 75360, Note_on_c, 0, 65, 0
1, 75360, Note_on_c, 0, 73, 28
1, 75360, Note_on_c, 0, 77, 28
1, 75360, Note_on_c, 0, 57, 34
1, 75360, Note_on_c, 0, 53, 34
1, 75377, Control_c, 0, 64, 0
1, 75400, Tempo, 312500
1, 75403, Control_c, 0, 64, 127
1, 75420, Tempo, 311688
1, 75440, Note_on_c, 0, 77, 0
1, 75440, Note_on_c, 0, 79, 24
1, 75500, Tempo, 314136
1, 75520, Tempo, 314961
1, 75520, Note_on_c, 0, 79, 0
1, 75520, Note_on_c, 0, 77, 28
1, 75560, Tempo, 314136
1, 75580, Tempo, 313316
1, 75600, Tempo, 312500
1, 75600, Note_on_c, 0, 77, 0
1, 75600, Note_on_c, 0, 79, 23
1, 75600, Note_on_c, 0, 65, 25
1, 75620, Tempo, 311688
1, 75640, Tempo, 310881
1, 75660, Tempo, 310078
1, 75680, Note_on_c, 0, 79, 0
1, 75680, Note_on_c, 0, 77, 27
1, 75720, Tempo, 311688
1, 75740, Tempo, 312500
1, 75760, Tempo, 313316
1, 75760, Note_on_c, 0, 77, 0
1, 75760, Note_on_c, 0, 79, 26
1, 75840, Note_on_c, 0, 79, 0
1, 75840, Note_on_c, 0, 57, 0
1, 75840, Note_on_c, 0, 65, 0
1, 75840, Note_on_c, 0, 77, 28
1, 75840, Note_on_c, 0, 56, 32
1, 75848, Control_c, 0, 64, 0
1, 75880, Tempo, 311688
1, 75890, Control_c, 0, 64, 127
1, 75920, Note_on_c, 0, 77, 0
1, 75920, Note_on_c, 0, 79, 23
1, 75960, Tempo, 312500
1, 75980, Tempo, 314136
1, 76000, Note_on_c, 0, 79, 0
1, 76000, Note_on_c, 0, 77, 28
1, 76020, Tempo, 315789
1, 76040, Tempo, 314136
1, 76060, Tempo, 312500
1, 76080, Tempo, 310881
1, 76080, Note_on_c, 0, 77, 0
1, 76080, Note_on_c, 0, 79, 24
1, 76080, Note_on_c, 0, 65, 25
1, 76140, Tempo, 311688
1, 76160, Tempo, 313316
1, 76160, Note_on_c, 0, 79, 0
1, 76160, Note_on_c, 0, 77, 26
1, 76180, Tempo, 314136
1, 76200, Tempo, 597015
1, 76240, Tempo, 318353
1, 76240, Note_on_c, 0, 77, 0
1, 76240, Note_on_c, 0, 91, 33
1, 76280, Tempo, 318302
1, 76320, Tempo, 318302
1, 76320, Marker_t, "Trio Teil 1 Wiederholung"
1, 76320, Note_on_c, 0, 91, 0
1, 76320, Note_on_c, 0, 53, 0
1, 76320, Note_on_c, 0, 56, 0
1, 76320, Note_on_c, 0, 73, 0
1, 76320, Note_on_c, 0, 65, 0
1, 76320, Note_on_c, 0, 86, 36
1, 76320, Note_on_c, 0, 89, 36
1, 76320, Note_on_c, 0, 53, 45
1, 76334, Control_c, 0, 64, 0
1, 76340, Tempo, 316623
1, 76360, Tempo, 315789
1, 76366, Control_c, 0, 64, 127
1, 76400, Note_on_c, 0, 89, 0
1, 76400, Note_on_c, 0, 91, 29
1, 76420, Tempo, 318302
1, 76440, Tempo, 320856
1, 76460, Tempo, 321716
1, 76480, Tempo, 320856
1, 76480, Note_on_c, 0, 91, 0
1, 76480, Note_on_c, 0, 89, 36
1, 76500, Tempo, 315789
1, 76520, Tempo, 314136
1, 76560, Note_on_c, 0, 89, 0
1, 76560, Note_on_c, 0, 91, 29
1, 76560, Note_on_c, 0, 65, 41
1, 76600, Tempo, 316623
1, 76620, Tempo, 317460
1, 76640, Tempo, 316623
1, 76640, Note_on_c, 0, 91, 0
1, 76640, Note_on_c, 0, 89, 36
1, 76660, Tempo, 314961
1, 76680, Tempo, 314136
1, 76700, Tempo, 312500
1, 76720, Note_on_c, 0, 89, 0
1, 76720, Note_on_c, 0, 91, 29
1, 76740, Tempo, 311688
1, 76780, Tempo, 312500
1, 76800, Tempo, 314136
1, 76800, Note_on_c, 0, 91, 0
1, 76800, Note_on_c, 0, 65, 0
1, 76800, Note_on_c, 0, 89, 36
1, 76800, Note_on_c, 0, 57, 43
1, 76820, Tempo, 315789
1, 76840, Tempo, 316623
1, 76860, Tempo, 318302
1, 76880, Note_on_c, 0, 89, 0
1, 76880, Note_on_c, 0, 91, 29
1, 76920, Tempo, 315789
1, 76940, Tempo, 314136
1, 76960, Note_on_c, 0, 91, 0
1, 76960, Note_on_c, 0, 89, 36
1, 76980, Tempo, 313316
1, 77000, Tempo, 314136
1, 77020, Tempo, 315789
1, 77040, Tempo, 317460
1, 77040, Note_on_c, 0, 89, 0
1, 77040, Note_on_c, 0, 91, 29
1, 77040, Note_on_c, 0, 65, 38
1, 77060, Tempo, 314961
1, 77080, Tempo, 314136
1, 77120, Note_on_c, 0, 91, 0
1, 77120, Note_on_c, 0, 89, 36
1, 77160, Tempo, 314961
1, 77180, Tempo, 316623
1, 77200, Note_on_c, 0, 89, 0
1, 77200, Note_on_c, 0, 88, 31
1, 77260, Tempo, 314136
1, 77260, Note_on_c, 0, 88, 0
1, 77280, Note_on_c, 0, 57, 0
1, 77280, Note_on_c, 0, 65, 0
1, 77280, Note_on_c, 0, 86, 0
1, 77280, Note_on_c, 0, 83, 37
1, 77280, Note_on_c, 0, 86, 37
1, 77280, Note_on_c, 0, 56, 45
1, 77287, Control_c, 0, 64, 0
1, 77319, Control_c, 0, 64, 127
1, 77320, Tempo, 314961
1, 77340, Tempo, 315789
1, 77360, Tempo, 316623
1, 77360, Note_on_c, 0, 86, 0
1, 77360, Note_on_c, 0, 88, 30
1, 77380, Tempo, 317460
1, 77440, Note_on_c, 0, 88, 0
1, 77440, Note_on_c, 0, 86, 37
1, 77480, Tempo, 314136
1, 77520, Note_on_c, 0, 86, 0
1, 77520, Note_on_c, 0, 88, 31
1, 77520, Note_on_c, 0, 65, 36
1, 77540, Tempo, 313316
1, 77600, Tempo, 314961
1, 77600, Note_on_c, 0, 88, 0
1, 77600, Note_on_c, 0, 86, 37
1, 77620, Tempo, 315789
1, 77680, Tempo, 314136
1, 77680, Note_on_c, 0, 86, 0
1, 77680, Note_on_c, 0, 88, 36
1, 77700, Tempo, 313316
1, 77720, Tempo, 311688
1, 77740, Tempo, 310881
1, 77760, Tempo, 310078
1, 77760, Note_on_c, 0, 88, 0
1, 77760, Note_on_c, 0, 56, 0
1, 77760, Note_on_c, 0, 65, 0
1, 77760, Note_on_c, 0, 86, 37
1, 77760, Note_on_c, 0, 59, 43
1, 77800, Tempo, 309278
1, 77820, Tempo, 310078
1, 77840, Tempo, 311688
1, 77840, Note_on_c, 0, 86, 0
1, 77840, Note_on_c, 0, 88, 32
1, 77860, Tempo, 313316
1, 77880, Tempo, 310881
1, 77900, Tempo, 310078
1, 77920, Note_on_c, 0, 88, 0
1, 77920, Note_on_c, 0, 86, 37
1, 77940, Tempo, 309278
1, 77980, Tempo, 310078
1, 78000, Note_on_c, 0, 86, 0
1, 78000, Note_on_c, 0, 88, 31
1, 78000, Note_on_c, 0, 65, 37
1, 78020, Tempo, 313316
1, 78080, Note_on_c, 0, 88, 0
1, 78080, Note_on_c, 0, 86, 37
1, 78120, Tempo, 310881
1, 78160, Note_on_c, 0, 86, 0
1, 78160, Note_on_c, 0, 86, 38
1, 78180, Tempo, 310078
1, 78200, Tempo, 310881
1, 78240, Tempo, 311688
1, 78240, Note_on_c, 0, 86, 0
1, 78240, Note_on_c, 0, 53, 0
1, 78240, Note_on_c, 0, 59, 0
1, 78240, Note_on_c, 0, 83, 0
1, 78240, Note_on_c, 0, 65, 0
1, 78240, Note_on_c, 0, 81, 41
1, 78240, Note_on_c, 0, 84, 41
1, 78240, Note_on_c, 0, 53, 45
1, 78258, Control_c, 0, 64, 0
1, 78260, Tempo, 310881
1, 78280, Tempo, 310078
1, 78290, Control_c, 0, 64, 127
1, 78300, Tempo, 309278
1, 78320, Note_on_c, 0, 84, 0
1, 78320, Note_on_c, 0, 86, 32
1, 78340, Tempo, 310078
1, 78360, Tempo, 311688
1, 78380, Tempo, 312500
1, 78400, Tempo, 311688
1, 78400, Note_on_c, 0, 86, 0
1, 78400, Note_on_c, 0, 84, 37
1, 78420, Tempo, 310078
1, 78480, Note_on_c, 0, 84, 0
1, 78480, Note_on_c, 0, 86, 31
1, 78480, Note_on_c, 0, 65, 36
1, 78500, Tempo, 313316
1, 78540, Tempo, 312500
1, 78560, Tempo, 311688
1, 78560, Note_on_c, 0, 86, 0
1, 78560, Note_on_c, 0, 84, 37
1, 78580, Tempo, 310881
1, 78640, Note_on_c, 0, 84, 0
1, 78640, Note_on_c, 0, 88, 38
1, 78660, Tempo, 312500
1, 78720, Note_on_c, 0, 88, 0
1, 78720, Note_on_c, 0, 65, 0
1, 78720, Note_on_c, 0, 81, 0
1, 78720, Note_on_c, 0, 83, 37
1, 78720, Note_on_c, 0, 86, 37
1, 78720, Note_on_c, 0, 59, 43
1, 78729, Control_c, 0, 64, 0
1, 78740, Tempo, 310881
1, 78760, Tempo, 310078
1, 78770, Control_c, 0, 64, 127
1, 78780, Tempo, 309278
1, 78800, Tempo, 308483
1, 78800, Note_on_c, 0, 86, 0
1, 78800, Note_on_c, 0, 88, 32
1, 78840, Tempo, 311688
1, 78880, Note_on_c, 0, 88, 0
1, 78880, Note_on_c, 0, 86, 37
1, 78940, Tempo, 310881
1, 78960, Note_on_c, 0, 86, 0
1, 78960, Note_on_c, 0, 88, 33
1, 78960, Note_on_c, 0, 65, 35
1, 79040, Note_on_c, 0, 88, 0
1, 79040, Note_on_c, 0, 86, 36
1, 79060, Tempo, 311688
1, 79100, Tempo, 310881
1, 79120, Note_on_c, 0, 86, 0
1, 79120, Note_on_c, 0, 86, 38
1, 79200, Note_on_c, 0, 86, 0
1, 79200, Note_on_c, 0, 59, 0
1, 79200, Note_on_c, 0, 65, 0
1, 79200, Note_on_c, 0, 83, 0
1, 79200, Note_on_c, 0, 81, 39
1, 79200, Note_on_c, 0, 84, 39
1, 79200, Note_on_c, 0, 57, 42
1, 79208, Control_c, 0, 64, 0
1, 79240, Control_c, 0, 64, 127
1, 79280, Note_on_c, 0, 84, 0
1, 79280, Note_on_c, 0, 86, 34
1, 79320, Tempo, 311688
1, 79360, Note_on_c, 0, 86, 0
1, 79360, Note_on_c, 0, 84, 39
1, 79440, Tempo, 312500
1, 79440, Note_on_c, 0, 84, 0
1, 79440, Note_on_c, 0, 86, 33
1, 79440, Note_on_c, 0, 65, 33
1, 79520, Note_on_c, 0, 86, 0
1, 79520, Note_on_c, 0, 84, 39
1, 79560, Tempo, 313316
1, 79600, Note_on_c, 0, 84, 0
1, 79600, Note_on_c, 0, 85, 38
1, 79680, Tempo, 314136
1, 79680, Note_on_c, 0, 85, 0
1, 79680, Note_on_c, 0, 57, 0
1, 79680, Note_on_c, 0, 65, 0
1, 79680, Note_on_c, 0, 81, 0
1, 79680, Note_on_c, 0, 77, 36
1, 79680, Note_on_c, 0, 83, 36
1, 79680, Note_on_c, 0, 56, 41
1, 79691, Control_c, 0, 64, 0
1, 79700, Tempo, 313316
1, 79720, Tempo, 310881
1, 79740, Control_c, 0, 64, 127
1, 79760, Tempo, 310078
1, 79760, Note_on_c, 0, 83, 0
1, 79760, Note_on_c, 0, 85, 31
1, 79840, Tempo, 311688
1, 79840, Note_on_c, 0, 85, 0
1, 79840, Note_on_c, 0, 83, 36
1, 79860, Tempo, 314961
1, 79880, Tempo, 316623
1, 79920, Tempo, 315789
1, 79920, Note_on_c, 0, 83, 0
1, 79920, Note_on_c, 0, 85, 31
1, 79920, Note_on_c, 0, 65, 36
1, 79940, Tempo, 313316
1, 79960, Tempo, 312500
1, 80000, Tempo, 311688
1, 80000, Note_on_c, 0, 85, 0
1, 80000, Note_on_c, 0, 83, 37
1, 80020, Tempo, 314961
1, 80040, Tempo, 315789
1, 80080, Note_on_c, 0, 83, 0
1, 80080, Note_on_c, 0, 86, 36
1, 80100, Tempo, 314136
1, 80120, Tempo, 311688
1, 80140, Tempo, 310881
1, 80160, Tempo, 310078
1, 80160, Note_on_c, 0, 86, 0
1, 80160, Note_on_c, 0, 53, 0
1, 80160, Note_on_c, 0, 56, 0
1, 80160, Note_on_c, 0, 77, 0
1, 80160, Note_on_c, 0, 65, 0
1, 80160, Note_on_c, 0, 81, 37
1, 80160, Note_on_c, 0, 84, 37
1, 80160, Note_on_c, 0, 53, 45
1, 80169, Control_c, 0, 64, 0
1, 80200, Tempo, 314961
1, 80226, Control_c, 0, 64, 127
1, 80240, Note_on_c, 0, 84, 0
1, 80240, Note_on_c, 0, 86, 30
1, 80320, Tempo, 313316
1, 80320, Note_on_c, 0, 86, 0
1, 80320, Note_on_c, 0, 84, 37
1, 80340, Tempo, 311688
1, 80360, Tempo, 310078
1, 80400, Tempo, 310881
1, 80400, Note_on_c, 0, 84, 0
1, 80400, Note_on_c, 0, 86, 31
1, 80400, Note_on_c, 0, 65, 36
1, 80420, Tempo, 313316
1, 80460, Tempo, 314136
1, 80480, Note_on_c, 0, 86, 0
1, 80480, Note_on_c, 0, 84, 36
1, 80540, Tempo, 311688
1, 80560, Tempo, 310881
1, 80560, Note_on_c, 0, 84, 0
1, 80560, Note_on_c, 0, 86, 31
1, 80580, Tempo, 311688
1, 80600, Tempo, 312500
1, 80620, Tempo, 313316
1, 80640, Note_on_c, 0, 86, 0
1, 80640, Note_on_c, 0, 65, 0
1, 80640, Note_on_c, 0, 84, 36
1, 80640, Note_on_c, 0, 57, 42
1, 80700, Tempo, 312500
1, 80720, Tempo, 311688
1, 80720, Note_on_c, 0, 84, 0
1, 80720, Note_on_c, 0, 86, 31
1, 80740, Tempo, 310881
1, 80800, Note_on_c, 0, 86, 0
1, 80800, Note_on_c, 0, 84, 36
1, 80820, Tempo, 311688
1, 80840, Tempo, 312500
1, 80860, Tempo, 313316
1, 80880, Note_on_c, 0, 84, 0
1, 80880, Note_on_c, 0, 86, 30
1, 80880, Note_on_c, 0, 65, 35
1, 80900, Tempo, 314136
1, 80960, Tempo, 313316
1, 80960, Note_on_c, 0, 86, 0
1, 80960, Note_on_c, 0, 84, 35
1, 80980, Tempo, 312500
1, 81000, Tempo, 311688
1, 81040, Note_on_c, 0, 84, 0
1, 81040, Note_on_c, 0, 85, 35
1, 81060, Tempo, 313316
1, 81120, Tempo, 314961
1, 81120, Note_on_c, 0, 85, 0
1, 81120, Note_on_c, 0, 57, 0
1, 81120, Note_on_c, 0, 65, 0
1, 81120, Note_on_c, 0, 81, 0
1, 81120, Note_on_c, 0, 77, 35
1, 81120, Note_on_c, 0, 83, 35
1, 81120, Note_on_c, 0, 56, 39
1, 81133, Control_c, 0, 64, 0
1, 81140, Tempo, 314136
1, 81169, Control_c, 0, 64, 127
1, 81180, Tempo, 314961
1, 81200, Tempo, 317460
1, 81200, Note_on_c, 0, 83, 0
1, 81200, Note_on_c, 0, 85, 28
1, 81240, Tempo, 316623
1, 81260, Tempo, 315789
1, 81280, Tempo, 314136
1, 81280, Note_on_c, 0, 85, 0
1, 81280, Note_on_c, 0, 83, 35
1, 81300, Tempo, 312500
1, 81320, Tempo, 311688
1, 81360, Tempo, 312500
1, 81360, Note_on_c, 0, 83, 0
1, 81360, Note_on_c, 0, 85, 29
1, 81360, Note_on_c, 0, 65, 32
1, 81380, Tempo, 316623
1, 81400, Tempo, 317460
1, 81440, Tempo, 316623
1, 81440, Note_on_c, 0, 85, 0
1, 81440, Note_on_c, 0, 83, 35
1, 81460, Tempo, 314136
1, 81480, Tempo, 313316
1, 81500, Tempo, 312500
1, 81520, Tempo, 311688
1, 81520, Note_on_c, 0, 83, 0
1, 81520, Note_on_c, 0, 85, 30
1, 81540, Tempo, 315789
1, 81600, Note_on_c, 0, 85, 0
1, 81600, Note_on_c, 0, 56, 0
1, 81600, Note_on_c, 0, 65, 0
1, 81600, Note_on_c, 0, 83, 35
1, 81600, Note_on_c, 0, 59, 39
1, 81640, Tempo, 314961
1, 81680, Tempo, 313316
1, 81680, Note_on_c, 0, 83, 0
1, 81680, Note_on_c, 0, 85, 30
1, 81720, Tempo, 314961
1, 81740, Tempo, 315789
1, 81760, Tempo, 317460
1, 81760, Note_on_c, 0, 85, 0
1, 81760, Note_on_c, 0, 83, 34
1, 81800, Tempo, 316623
1, 81820, Tempo, 314136
1, 81840, Tempo, 313316
1, 81840, Note_on_c, 0, 83, 0
1, 81840, Note_on_c, 0, 85, 29
1, 81840, Note_on_c, 0, 65, 33
1, 81920, Tempo, 314961
1, 81920, Note_on_c, 0, 85, 0
1, 81920, Note_on_c, 0, 83, 34
1, 81940, Tempo, 315789
1, 81960, Tempo, 316623
1, 82000, Note_on_c, 0, 83, 0
1, 82000, Note_on_c, 0, 83, 33
1, 82020, Tempo, 314136
1, 82040, Tempo, 313316
1, 82080, Note_on_c, 0, 83, 0
1, 82080, Note_on_c, 0, 53, 0
1, 82080, Note_on_c, 0, 59, 0
1, 82080, Note_on_c, 0, 77, 0
1, 82080, Note_on_c, 0, 65, 0
1, 82080, Note_on_c, 0, 74, 34
1, 82080, Note_on_c, 0, 81, 34
1, 82080, Note_on_c, 0, 53, 38
1, 82089, Control_c, 0, 64, 0
1, 82117, Control_c, 0, 64, 127
1, 82120, Tempo, 314961
1, 82160, Tempo, 315789
1, 82160, Note_on_c, 0, 81, 0
1, 82160, Note_on_c, 0, 83, 27
1, 82180, Tempo, 316623
1, 82200, Tempo, 317460
1, 82240, Tempo, 314136
1, 82240, Note_on_c, 0, 83, 0
1, 82240, Note_on_c, 0, 81, 32
1, 82260, Tempo, 312500
1, 82320, Tempo, 313316
1, 82320, Note_on_c, 0, 81, 0
1, 82320, Note_on_c, 0, 83, 28
1, 82320, Note_on_c, 0, 65, 30
1, 82340, Tempo, 314961
1, 82360, Tempo, 315789
1, 82400, Note_on_c, 0, 83, 0
1, 82400, Note_on_c, 0, 81, 32
1, 82440, Tempo, 314961
1, 82460, Tempo, 314136
1, 82480, Note_on_c, 0, 81, 0
1, 82480, Note_on_c, 0, 83, 29
1, 82500, Tempo, 313316
1, 82540, Tempo, 312500
1, 82560, Note_on_c, 0, 83, 0
1, 82560, Note_on_c, 0, 65, 0
1, 82560, Note_on_c, 0, 81, 31
1, 82560, Note_on_c, 0, 59, 36
1, 82620, Tempo, 314136
1, 82640, Tempo, 315789
1, 82640, Note_on_c, 0, 81, 0
1, 82640, Note_on_c, 0, 83, 29
1, 82660, Tempo, 316623
1, 82700, Tempo, 317460
1, 82720, Note_on_c, 0, 83, 0
1, 82720, Note_on_c, 0, 81, 30
1, 82760, Tempo, 315789
1, 82780, Tempo, 314136
1, 82800, Tempo, 313316
1, 82800, Note_on_c, 0, 81, 0
1, 82800, Note_on_c, 0, 83, 27
1, 82800, Note_on_c, 0, 65, 29
1, 82880, Note_on_c, 0, 83, 0
1, 82880, Note_on_c, 0, 81, 30
1, 82900, Tempo, 312500
1, 82920, Tempo, 314136
1, 82940, Tempo, 314961
1, 82960, Tempo, 313316
1, 82960, Note_on_c, 0, 81, 0
1, 82960, Note_on_c, 0, 79, 30
1, 83020, Tempo, 314136
1, 83040, Tempo, 315789
1, 83040, Note_on_c, 0, 79, 0
1, 83040, Note_on_c, 0, 74, 0
1, 83040, Note_on_c, 0, 59, 0
1, 83040, Note_on_c, 0, 53, 0
1, 83040, Note_on_c, 0, 65, 0
1, 83040, Note_on_c, 0, 73, 28
1, 83040, Note_on_c, 0, 77, 28
1, 83040, Note_on_c, 0, 57, 34
1, 83040, Note_on_c, 0, 53, 34
1, 83057, Control_c, 0, 64, 0
1, 83060, Tempo, 318302
1, 83083, Control_c, 0, 64, 127
1, 83120, Tempo, 317460
1, 83120, Note_on_c, 0, 77, 0
1, 83120, Note_on_c, 0, 79, 24
1, 83140, Tempo, 315789
1, 83160, Tempo, 314136
1, 83180, Tempo, 313316
1, 83200, Tempo, 312500
1, 83200, Note_on_c, 0, 79, 0
1, 83200, Note_on_c, 0, 77, 28
1, 83240, Tempo, 311688
1, 83280, Tempo, 313316
1, 83280, Note_on_c, 0, 77, 0
1, 83280, Note_on_c, 0, 79, 23
1, 83280, Note_on_c, 0, 65, 25
1, 83300, Tempo, 314136
1, 83320, Tempo, 314961
1, 83340, Tempo, 315789
1, 83360, Tempo, 316623
1, 83360, Note_on_c, 0, 79, 0
1, 83360, Note_on_c, 0, 77, 27
1, 83400, Tempo, 315789
1, 83420, Tempo, 314961
1, 83440, Tempo, 314136
1, 83440, Note_on_c, 0, 77, 0
1, 83440, Note_on_c, 0, 79, 26
1, 83500, Tempo, 313316
1, 83520, Tempo, 312500
1, 83520, Note_on_c, 0, 79, 0
1, 83520, Note_on_c, 0, 57, 0
1, 83520, Note_on_c, 0, 65, 0
1, 83520, Note_on_c, 0, 77, 28
1, 83520, Note_on_c, 0, 56, 32
1, 83528, Control_c, 0, 64, 0
1, 83570, Control_c, 0, 64, 127
1, 83580, Tempo, 313316
1, 83600, Tempo, 314136
1, 83600, Note_on_c, 0, 77, 0
1, 83600, Note_on_c, 0, 79, 23
1, 83620, Tempo, 314961
1, 83680, Note_on_c, 0, 79, 0
1, 83680, Note_on_c, 0, 77, 28
1, 83700, Tempo, 314136
1, 83740, Tempo, 313316
1, 83760, Tempo, 312500
1, 83760, Note_on_c, 0, 77, 0
1, 83760, Note_on_c, 0, 79, 24
1, 83760, Note_on_c, 0, 65, 25
1, 83780, Tempo, 311688
1, 83820, Tempo, 314136
1, 83840, Tempo, 316623
1, 83840, Note_on_c, 0, 79, 0
1, 83840, Note_on_c, 0, 77, 26
1, 83900, Tempo, 315789
1, 83920, Tempo, 314961
1, 83920, Note_on_c, 0, 77, 0
1, 83920, Note_on_c, 0, 89, 42
1, 84000, Tempo, 319149
1, 84000, Marker_t, "Trio Teil 2"
1, 84000, Note_on_c, 0, 89, 0
1, 84000, Note_on_c, 0, 53, 0
1, 84000, Note_on_c, 0, 56, 0
1, 84000, Note_on_c, 0, 73, 0
1, 84000, Note_on_c, 0, 65, 0
1, 84000, Note_on_c, 0, 85, 55
1, 84000, Note_on_c, 0, 53, 38
1, 84014, Control_c, 0, 64, 0
1, 84240, Tempo, 314961
1, 84240, Note_on_c, 0, 85, 0
1, 84240, Note_on_c, 0, 84, 50
1, 84240, Note_on_c, 0, 65, 30
1, 84480, Note_on_c, 0, 84, 0
1, 84480, Note_on_c, 0, 53, 0
1, 84480, Note_on_c, 0, 56, 38
1, 84720, Note_on_c, 0, 65, 0
1, 84720, Note_on_c, 0, 84, 50
1, 84720, Note_on_c, 0, 65, 30
1, 84900, Note_on_c, 0, 84, 0
1, 84900, Note_on_c, 0, 84, 48
1, 84960, Tempo, 320000
1, 84960, Note_on_c, 0, 84, 0
1, 84960, Note_on_c, 0, 56, 0
1, 84960, Note_on_c, 0, 83, 54
1, 84960, Note_on_c, 0, 61, 38
1, 85200, Tempo, 314961
1, 85200, Note_on_c, 0, 83, 0
1, 85200, Note_on_c, 0, 65, 0
1, 85200, Note_on_c, 0, 80, 47
1, 85200, Note_on_c, 0, 65, 29
1, 85440, Note_on_c, 0, 80, 0
1, 85440, Note_on_c, 0, 61, 0
1, 85440, Note_on_c, 0, 59, 38
1, 85680, Note_on_c, 0, 65, 0
1, 85680, Note_on_c, 0, 80, 50
1, 85680, Note_on_c, 0, 65, 30
1, 85860, Note_on_c, 0, 80, 0
1, 85860, Note_on_c, 0, 89, 50
1, 85920, Tempo, 318302
1, 85920, Note_on_c, 0, 89, 0
1, 85920, Note_on_c, 0, 59, 0
1, 85920, Note_on_c, 0, 81, 56
1, 85920, Note_on_c, 0, 53, 38
1, 86160, Tempo, 315789
1, 86160, Note_on_c, 0, 81, 0
1, 86160, Note_on_c, 0, 65, 0
1, 86160, Note_on_c, 0, 84, 50
1, 86160, Note_on_c, 0, 65, 30
1, 86400, Note_on_c, 0, 84, 0
1, 86400, Note_on_c, 0, 53, 0
1, 86400, Note_on_c, 0, 63, 36
1, 86640, Note_on_c, 0, 65, 0
1, 86640, Note_on_c, 0, 84, 50
1, 86640, Note_on_c, 0, 65, 30
1, 86820, Note_on_c, 0, 84, 0
1, 86820, Note_on_c, 0, 84, 50
1, 86880, Tempo, 312500
1, 86880, Note_on_c, 0, 84, 0
1, 86880, Note_on_c, 0, 63, 0
1, 86880, Note_on_c, 0, 89, 56
1, 86880, Note_on_c, 0, 61, 36
1, 87120, Tempo, 314961
1, 87120, Note_on_c, 0, 89, 0
1, 87120, Note_on_c, 0, 65, 0
1, 87120, Note_on_c, 0, 80, 50
1, 87120, Note_on_c, 0, 65, 31
1, 87360, Note_on_c, 0, 80, 0
1, 87360, Note_on_c, 0, 61, 0
1, 87360, Note_on_c, 0, 59, 36
1, 87600, Note_on_c, 0, 65, 0
1, 87600, Note_on_c, 0, 85, 47
1, 87600, Note_on_c, 0, 65, 31
1, 87780, Note_on_c, 0, 85, 0
1, 87780, Note_on_c, 0, 89, 50
1, 87840, Tempo, 319149
1, 87840, Note_on_c, 0, 89, 0
1, 87840, Note_on_c, 0, 65, 0
1, 87840, Note_on_c, 0, 59, 0
1, 87840, Note_on_c, 0, 81, 53
1, 87840, Note_on_c, 0, 53, 36
1, 88080, Tempo, 314136
1, 88080, Note_on_c, 0, 81, 0
1, 88080, Note_on_c, 0, 82, 49
1, 88080, Note_on_c, 0, 65, 31
1, 88320, Note_on_c, 0, 82, 0
1, 88320, Note_on_c, 0, 53, 0
1, 88320, Note_on_c, 0, 58, 36
1, 88560, Note_on_c, 0, 65, 0
1, 88560, Note_on_c, 0, 82, 50
1, 88560, Note_on_c, 0, 65, 30
1, 88740, Note_on_c, 0, 82, 0
1, 88740, Note_on_c, 0, 89, 50
1, 88800, Tempo, 318302
1, 88800, Note_on_c, 0, 89, 0
1, 88800, Note_on_c, 0, 58, 0
1, 88800, Note_on_c, 0, 81, 54
1, 88800, Note_on_c, 0, 61, 36
1, 89040, Tempo, 314961
1, 89040, Note_on_c, 0, 81, 0
1, 89040, Note_on_c, 0, 65, 0
1, 89040, Note_on_c, 0, 82, 50
1, 89040, Note_on_c, 0, 65, 30
1, 89280, Note_on_c, 0, 82, 0
1, 89280, Note_on_c, 0, 61, 0
1, 89280, Note_on_c, 0, 60, 37
1, 89520, Note_on_c, 0, 65, 0
1, 89520, Note_on_c, 0, 84, 50
1, 89520, Note_on_c, 0, 65, 31
1, 89700, Note_on_c, 0, 84, 0
1, 89700, Note_on_c, 0, 89, 50
1, 89760, Tempo, 319149
1, 89760, Note_on_c, 0, 89, 0
1, 89760, Note_on_c, 0, 65, 0
1, 89760, Note_on_c, 0, 60, 0
1, 89760, Note_on_c, 0, 81, 54
1, 89760, Note_on_c, 0, 53, 36
1, 90000, Tempo, 314961
1, 90000, Note_on_c, 0, 81, 0
1, 90000, Note_on_c, 0, 82, 50
1, 90000, Note_on_c, 0, 65, 29
1, 90240, Note_on_c, 0, 82, 0
1, 90240, Note_on_c, 0, 53, 0
1, 90240, Note_on_c, 0, 61, 37
1, 90480, Note_on_c, 0, 65, 0
1, 90480, Note_on_c, 0, 82, 50
1, 90480, Note_on_c, 0, 65, 31
1, 90660, Note_on_c, 0, 82, 0
1, 90660, Note_on_c, 0, 89, 50
1, 90720, Tempo, 319149
1, 90720, Note_on_c, 0, 89, 0
1, 90720, Note_on_c, 0, 61, 0
1, 90720, Note_on_c, 0, 81, 54
1, 90720, Note_on_c, 0, 60, 38
1, 90960, Tempo, 314961
1, 90960, Note_on_c, 0, 81, 0
1, 90960, Note_on_c, 0, 65, 0
1, 90960, Note_on_c, 0, 84, 50
1, 90960, Note_on_c, 0, 65, 31
1, 91200, Note_on_c, 0, 84, 0
1, 91200, Note_on_c, 0, 60, 0
1, 91200, Note_on_c, 0, 57, 37
1, 91440, Note_on_c, 0, 65, 0
1, 91440, Note_on_c, 0, 84, 50
1, 91440, Note_on_c, 0, 65, 31
1, 91560, Tempo, 600000
1, 91580, Tempo, 315789
1, 91600, Tempo, 314961
1, 91600, Note_on_c, 0, 89, 42
1, 91680, Tempo, 319149
1, 91680, Marker_t, "Trio Teil 2 Wiederholung"
1, 91680, Note_on_c, 0, 89, 0
1, 91680, Note_on_c, 0, 57, 0
1, 91680, Note_on_c, 0, 84, 0
1, 91680, Note_on_c, 0, 65, 0
1, 91680, Note_on_c, 0, 85, 55
1, 91680, Note_on_c, 0, 53, 38
1, 91920, Tempo, 314961
1, 91920, Note_on_c, 0, 85, 0
1, 91920, Note_on_c, 0, 84, 50
1, 91920, Note_on_c, 0, 65, 46
1, 92160, Note_on_c, 0, 84, 0
1, 92160, Note_on_c, 0, 53, 0
1, 92160, Note_on_c, 0, 56, 38
1, 92400, Note_on_c, 0, 65, 0
1, 92400, Note_on_c, 0, 84, 50
1, 92400, Note_on_c, 0, 65, 46
1, 92580, Note_on_c, 0, 84, 0
1, 92580, Note_on_c, 0, 84, 48
1, 92640, Tempo, 319149
1, 92640, Note_on_c, 0, 84, 0
1, 92640, Note_on_c, 0, 56, 0
1, 92640, Note_on_c, 0, 83, 54
1, 92640, Note_on_c, 0, 61, 38
1, 92880, Tempo, 314136
1, 92880, Note_on_c, 0, 83, 0
1, 92880, Note_on_c, 0, 65, 0
1, 92880, Note_on_c, 0, 80, 47
1, 92880, Note_on_c, 0, 65, 45
1, 93120, Note_on_c, 0, 80, 0
1, 93120, Note_on_c, 0, 61, 0
1, 93120, Note_on_c, 0, 59, 38
1, 93360, Note_on_c, 0, 65, 0
1, 93360, Note_on_c, 0, 80, 50
1, 93360, Note_on_c, 0, 65, 44
1, 93540, Note_on_c, 0, 80, 0
1, 93540, Note_on_c, 0, 89, 50
1, 93600, Tempo, 318302
1, 93600, Note_on_c, 0, 89, 0
1, 93600, Note_on_c, 0, 59, 0
1, 93600, Note_on_c, 0, 81, 56
1, 93600, Note_on_c, 0, 53, 38
1, 93840, Tempo, 315789
1, 93840, Note_on_c, 0, 81, 0
1, 93840, Note_on_c, 0, 65, 0
1, 93840, Note_on_c, 0, 84, 50
1, 93840, Note_on_c, 0, 65, 36
1, 94080, Note_on_c, 0, 84, 0
1, 94080, Note_on_c, 0, 53, 0
1, 94080, Note_on_c, 0, 63, 36
1, 94320, Note_on_c, 0, 65, 0
1, 94320, Note_on_c, 0, 84, 50
1, 94320, Note_on_c, 0, 65, 41
1, 94500, Note_on_c, 0, 84, 0
1, 94500, Note_on_c, 0, 84, 50
1, 94560, Tempo, 318302
1, 94560, Note_on_c, 0, 84, 0
1, 94560, Note_on_c, 0, 63, 0
1, 94560, Note_on_c, 0, 89, 56
1, 94560, Note_on_c, 0, 61, 36
1, 94800, Tempo, 314961
1, 94800, Note_on_c, 0, 89, 0
1, 94800, Note_on_c, 0, 65, 0
1, 94800, Note_on_c, 0, 80, 50
1, 94800, Note_on_c, 0, 65, 31
1, 95040, Note_on_c, 0, 80, 0
1, 95040, Note_on_c, 0, 61, 0
1, 95040, Note_on_c, 0, 59, 36
1, 95280, Note_on_c, 0, 65, 0
1, 95280, Note_on_c, 0, 85, 47
1, 95280, Note_on_c, 0, 65, 31
1, 95460, Note_on_c, 0, 85, 0
1, 95460, Note_on_c, 0, 89, 50
1, 95520, Tempo, 319149
1, 95520, Note_on_c, 0, 89, 0
1, 95520, Note_on_c, 0, 65, 0
1, 95520, Note_on_c, 0, 59, 0
1, 95520, Note_on_c, 0, 81, 53
1, 95520, Note_on_c, 0, 53, 36
1, 95760, Tempo, 314136
1, 95760, Note_on_c, 0, 81, 0
1, 95760, Note_on_c, 0, 82, 49
1, 95760, Note_on_c, 0, 65, 31
1, 96000, Note_on_c, 0, 82, 0
1, 96000, Note_on_c, 0, 53, 0
1, 96000, Note_on_c, 0, 58, 36
1, 96240, Note_on_c, 0, 65, 0
1, 96240, Note_on_c, 0, 82, 50
1, 96240, Note_on_c, 0, 65, 30
1, 96420, Note_on_c, 0, 82, 0
1, 96420, Note_on_c, 0, 89, 50
1, 96480, Tempo, 318302
1, 96480, Note_on_c, 0, 89, 0
1, 96480, Note_on_c, 0, 58, 0
1, 96480, Note_on_c, 0, 81, 54
1, 96480, Note_on_c, 0, 61, 36
1, 96720, Tempo, 314961
1, 96720, Note_on_c, 0, 81, 0
1, 96720, Note_on_c, 0, 65, 0
1, 96720, Note_on_c, 0, 82, 50
1, 96720, Note_on_c, 0, 65, 30
1, 96760, Tempo, 314961
1, 96960, Note_on_c, 0, 82, 0
1, 96960, Note_on_c, 0, 61, 0
1, 96960, Note_on_c, 0, 60, 37
1, 97200, Note_on_c, 0, 65, 0
1, 97200, Note_on_c, 0, 84, 50
1, 97200, Note_on_c, 0, 65, 31
1, 97380, Note_on_c, 0, 84, 0
1, 97380, Note_on_c, 0, 89, 50
1, 97440, Tempo, 319149
1, 97440, Note_on_c, 0, 89, 0
1, 97440, Note_on_c, 0, 65, 0
1, 97440, Note_on_c, 0, 60, 0
1, 97440, Note_on_c, 0, 81, 54
1, 97440, Note_on_c, 0, 53, 36
1, 97680, Tempo, 314961
1, 97680, Note_on_c, 0, 81, 0
1, 97680, Note_on_c, 0, 82, 50
1, 97680, Note_on_c, 0, 65, 29
1, 97920, Note_on_c, 0, 82, 0
1, 97920, Note_on_c, 0, 53, 0
1, 97920, Note_on_c, 0, 61, 37
1, 98160, Note_on_c, 0, 65, 0
1, 98160, Note_on_c, 0, 82, 50
1, 98160, Note_on_c, 0, 65, 31
1, 98340, Note_on_c, 0, 82, 0
1, 98340, Note_on_c, 0, 89, 50
1, 98400, Tempo, 319149
1, 98400, Note_on_c, 0, 89, 0
1, 98400, Note_on_c, 0, 61, 0
1, 98400, Note_on_c, 0, 81, 54
1, 98400, Note_on_c, 0, 60, 38
1, 98640, Tempo, 314961
1, 98640, Note_on_c, 0, 81, 0
1, 98640, Note_on_c, 0, 65, 0
1, 98640, Note_on_c, 0, 84, 50
1, 98640, Note_on_c, 0, 65, 31
1, 98880, Note_on_c, 0, 84, 0
1, 98880, Note_on_c, 0, 60, 0
1, 98880, Note_on_c, 0, 57, 37
1, 99120, Note_on_c, 0, 65, 0
1, 99120, Note_on_c, 0, 84, 50
1, 99120, Note_on_c, 0, 65, 31
1, 99240, Tempo, 339943
1, 99300, Tempo, 311688
1, 99300, Note_on_c, 0, 84, 0
1, 99300, Note_on_c, 0, 86, 45
1, 99360, Tempo, 300210
1, 99360, Marker_t, "Scherzino Wiederholung"
1, 99360, Note_on_c, 0, 86, 0
1, 99360, Note_on_c, 0, 65, 0
1, 99360, Note_on_c, 0, 57, 0
1, 99360, Note_on_c, 0, 84, 45
1, 99360, Note_on_c, 0, 81, 38
1, 99360, Note_on_c, 0, 77, 38
1, 99480, Note_on_c, 0, 77, 0
1, 99480, Note_on_c, 0, 81, 0
1, 99480, Note_on_c, 0, 84, 0
1, 99600, Tempo, 309310
1, 99600, Note_on_c, 0, 65, 28
1, 99600, Note_on_c, 0, 69, 28
1, 99600, Note_on_c, 0, 72, 34
1, 99720, Note_on_c, 0, 72, 0
1, 99720, Note_on_c, 0, 69, 0
1, 99720, Note_on_c, 0, 65, 0
1, 99780, Note_on_c, 0, 84, 33
1, 99840, Tempo, 300210
1, 99840, Note_on_c, 0, 84, 0
1, 99840, Note_on_c, 0, 83, 40
1, 99840, Note_on_c, 0, 80, 34
1, 99840, Note_on_c, 0, 77, 34
1, 99960, Note_on_c, 0, 77, 0
1, 99960, Note_on_c, 0, 80, 0
1, 99960, Note_on_c, 0, 83, 0
1, 100080, Tempo, 305935
1, 100080, Note_on_c, 0, 73, 31
1, 100080, Note_on_c, 0, 68, 26
1, 100080, Note_on_c, 0, 65, 26
1, 100200, Note_on_c, 0, 65, 0
1, 100200, Note_on_c, 0, 68, 0
1, 100200, Note_on_c, 0, 73, 0
1, 100260, Note_on_c, 0, 86, 40
1, 100320, Tempo, 300210
1, 100320, Note_on_c, 0, 86, 0
1, 100320, Note_on_c, 0, 84, 45
1, 100320, Note_on_c, 0, 81, 38
1, 100320, Note_on_c, 0, 77, 38
1, 100440, Note_on_c, 0, 77, 0
1, 100440, Note_on_c, 0, 81, 0
1, 100440, Note_on_c, 0, 84, 0
1, 100560, Tempo, 303459
1, 100560, Note_on_c, 0, 65, 28
1, 100560, Note_on_c, 0, 69, 28
1, 100560, Note_on_c, 0, 72, 33
1, 100680, Note_on_c, 0, 72, 0
1, 100680, Note_on_c, 0, 69, 0
1, 100680, Note_on_c, 0, 65, 0
1, 100800, Tempo, 304260
1, 100800, Note_on_c, 0, 80, 45
1, 100800, Note_on_c, 0, 77, 38
1, 100800, Note_on_c, 0, 73, 38
1, 100800, Note_on_c, 0, 71, 36
1, 100800, Note_on_c, 0, 68, 30
1, 100920, Note_on_c, 0, 68, 0
1, 100920, Note_on_c, 0, 73, 0
1, 100920, Note_on_c, 0, 80, 0
1, 100920, Note_on_c, 0, 77, 0
1, 100920, Note_on_c, 0, 71, 0
1, 100980, Note_on_c, 0, 86, 31
1, 101040, Tempo, 314515
1, 101040, Note_on_c, 0, 86, 0
1, 101040, Note_on_c, 0, 84, 37
1, 101040, Note_on_c, 0, 81, 31
1, 101040, Note_on_c, 0, 77, 31
1, 101160, Note_on_c, 0, 77, 0
1, 101160, Note_on_c, 0, 81, 0
1, 101160, Note_on_c, 0, 84, 0
1, 101220, Note_on_c, 0, 86, 45
1, 101280, Tempo, 300210
1, 101280, Note_on_c, 0, 86, 0
1, 101280, Note_on_c, 0, 84, 45
1, 101280, Note_on_c, 0, 81, 38
1, 101280, Note_on_c, 0, 77, 38
1, 101400, Note_on_c, 0, 77, 0
1, 101400, Note_on_c, 0, 81, 0
1, 101400, Note_on_c, 0, 84, 0
1, 101520, Tempo, 309310
1, 101520, Note_on_c, 0, 65, 28
1, 101520, Note_on_c, 0, 69, 28
1, 101520, Note_on_c, 0, 72, 34
1, 101640, Note_on_c, 0, 72, 0
1, 101640, Note_on_c, 0, 69, 0
1, 101640, Note_on_c, 0, 65, 0
1, 101700, Note_on_c, 0, 84, 33
1, 101760, Tempo, 300210
1, 101760, Note_on_c, 0, 84, 0
1, 101760, Note_on_c, 0, 83, 40
1, 101760, Note_on_c, 0, 80, 34
1, 101760, Note_on_c, 0, 77, 34
1, 101880, Note_on_c, 0, 77, 0
1, 101880, Note_on_c, 0, 80, 0
1, 101880, Note_on_c, 0, 83, 0
1, 102000, Tempo, 305935
1, 102000, Note_on_c, 0, 73, 31
1, 102000, Note_on_c, 0, 68, 26
1, 102000, Note_on_c, 0, 65, 26
1, 102120, Note_on_c, 0, 65, 0
1, 102120, Note_on_c, 0, 68, 0
1, 102120, Note_on_c, 0, 73, 0
1, 102180, Note_on_c, 0, 86, 40
1, 102240, Tempo, 300210
1, 102240, Note_on_c, 0, 86, 0
1, 102240, Note_on_c, 0, 84, 45
1, 102240, Note_on_c, 0, 81, 38
1, 102240, Note_on_c, 0, 77, 38
1, 102360, Note_on_c, 0, 77, 0
1, 102360, Note_on_c, 0, 81, 0
1, 102360, Note_on_c, 0, 84, 0
1, 102480, Tempo, 303459
1, 102480, Note_on_c, 0, 65, 28
1, 102480, Note_on_c, 0, 69, 28
1, 102480, Note_on_c, 0, 72, 33
1, 102600, Note_on_c, 0, 72, 0
1, 102600, Note_on_c, 0, 69, 0
1, 102600, Note_on_c, 0, 65, 0
1, 102720, Tempo, 300210
1, 102720, Note_on_c, 0, 80, 45
1, 102720, Note_on_c, 0, 77, 38
1, 102720, Note_on_c, 0, 73, 38
1, 102840, Note_on_c, 0, 73, 0
1, 102840, Note_on_c, 0, 77, 0
1, 102840, Note_on_c, 0, 80, 0
1, 102960, Tempo, 303797
1, 102960, Note_on_c, 0, 68, 30
1, 102960, Note_on_c, 0, 71, 36
1, 103080, Note_on_c, 0, 71, 0
1, 103080, Note_on_c, 0, 68, 0
1, 103200, Tempo, 300000
1, 103200, Note_on_c, 0, 59, 34
1, 103320, Note_on_c, 0, 59, 0
1, 103380, Note_on_c, 0, 66, 32
1, 103440, Tempo, 305344
1, 103440, Note_on_c, 0, 66, 0
1, 103440, Note_on_c, 0, 67, 32
1, 103440, Note_on_c, 0, 64, 27
1, 103440, Note_on_c, 0, 60, 33
1, 103560, Note_on_c, 0, 60, 0
1, 103560, Note_on_c, 0, 64, 0
1, 103560, Note_on_c, 0, 67, 0
1, 103680, Tempo, 299252
1, 103680, Note_on_c, 0, 62, 34
1, 103800, Note_on_c, 0, 62, 0
1, 103860, Note_on_c, 0, 69, 32
1, 103920, Tempo, 303797
1, 103920, Note_on_c, 0, 69, 0
1, 103920, Note_on_c, 0, 70, 33
1, 103920, Note_on_c, 0, 67, 28
1, 103920, Note_on_c, 0, 63, 35
1, 104040, Note_on_c, 0, 63, 0
1, 104040, Note_on_c, 0, 67, 0
1, 104040, Note_on_c, 0, 70, 0
1, 104160, Tempo, 298507
1, 104160, Note_on_c, 0, 64, 36
1, 104280, Note_on_c, 0, 64, 0
1, 104340, Note_on_c, 0, 71, 32
1, 104400, Tempo, 304569
1, 104400, Note_on_c, 0, 71, 0
1, 104400, Note_on_c, 0, 68, 29
1, 104400, Note_on_c, 0, 72, 35
1, 104400, Note_on_c, 0, 65, 38
1, 104520, Note_on_c, 0, 65, 0
1, 104520, Note_on_c, 0, 72, 0
1, 104520, Note_on_c, 0, 68, 0
1, 104640, Tempo, 297767
1, 104640, Note_on_c, 0, 67, 39
1, 104760, Note_on_c, 0, 67, 0
1, 104820, Note_on_c, 0, 74, 32
1, 104880, Tempo, 303030
1, 104880, Note_on_c, 0, 74, 0
1, 104880, Note_on_c, 0, 75, 37
1, 104880, Note_on_c, 0, 72, 31
1, 104880, Note_on_c, 0, 68, 40
1, 105000, Note_on_c, 0, 68, 0
1, 105000, Note_on_c, 0, 72, 0
1, 105000, Note_on_c, 0, 75, 0
1, 105120, Tempo, 295567
1, 105120, Note_on_c, 0, 70, 41
1, 105240, Note_on_c, 0, 70, 0
1, 105300, Note_on_c, 0, 77, 32
1, 105360, Tempo, 301508
1, 105360, Note_on_c, 0, 77, 0
1, 105360, Note_on_c, 0, 78, 39
1, 105360, Note_on_c, 0, 75, 33
1, 105360, Note_on_c, 0, 71, 43
1, 105480, Note_on_c, 0, 71, 0
1, 105480, Note_on_c, 0, 75, 0
1, 105480, Note_on_c, 0, 78, 0
1, 105600, Tempo, 294840
1, 105600, Note_on_c, 0, 72, 44
1, 105720, Note_on_c, 0, 72, 0
1, 105780, Note_on_c, 0, 81, 32
1, 105840, Tempo, 299252
1, 105840, Note_on_c, 0, 81, 0
1, 105840, Note_on_c, 0, 82, 40
1, 105840, Note_on_c, 0, 78, 34
1, 105840, Note_on_c, 0, 73, 46
1, 105960, Note_on_c, 0, 73, 0
1, 105960, Note_on_c, 0, 78, 0
1, 105960, Note_on_c, 0, 82, 0
1, 106080, Tempo, 294118
1, 106080, Note_on_c, 0, 74, 48
1, 106200, Note_on_c, 0, 74, 0
1, 106260, Note_on_c, 0, 86, 32
1, 106320, Tempo, 298507
1, 106320, Note_on_c, 0, 86, 0
1, 106320, Note_on_c, 0, 87, 39
1, 106320, Note_on_c, 0, 82, 33
1, 106320, Note_on_c, 0, 79, 33
1, 106320, Note_on_c, 0, 75, 50
1, 106440, Note_on_c, 0, 75, 0
1, 106440, Note_on_c, 0, 87, 0
1, 106440, Note_on_c, 0, 82, 0
1, 106440, Note_on_c, 0, 79, 0
1, 106560, Tempo, 293399
1, 106560, Note_on_c, 0, 76, 50
1, 106680, Note_on_c, 0, 76, 0
1, 106740, Note_on_c, 0, 93, 32
1, 106800, Tempo, 306905
1, 106800, Note_on_c, 0, 93, 0
1, 106800, Note_on_c, 0, 91, 39
1, 106800, Note_on_c, 0, 88, 33
1, 106800, Note_on_c, 0, 84, 33
1, 106800, Note_on_c, 0, 72, 45
1, 106920, Note_on_c, 0, 72, 0
1, 106920, Note_on_c, 0, 91, 0
1, 106920, Note_on_c, 0, 88, 0
1, 106920, Note_on_c, 0, 84, 0
1, 106980, Tempo, 311688
1, 106980, Note_on_c, 0, 86, 45
1, 107040, Tempo, 300210
1, 107040, Note_on_c, 0, 86, 0
1, 107040, Note_on_c, 0, 84, 45
1, 107040, Note_on_c, 0, 81, 38
1, 107040, Note_on_c, 0, 77, 38
1, 107160, Note_on_c, 0, 77, 0
1, 107160, Note_on_c, 0, 81, 0
1, 107160, Note_on_c, 0, 84, 0
1, 107280, Tempo, 305344
1, 107280, Note_on_c, 0, 65, 28
1, 107280, Note_on_c, 0, 69, 28
1, 107280, Note_on_c, 0, 72, 34
1, 107400, Note_on_c, 0, 72, 0
1, 107400, Note_on_c, 0, 69, 0
1, 107400, Note_on_c, 0, 65, 0
1, 107460, Note_on_c, 0, 84, 33
1, 107520, Tempo, 300210
1, 107520, Note_on_c, 0, 84, 0
1, 107520, Note_on_c, 0, 83, 40
1, 107520, Note_on_c, 0, 80, 34
1, 107520, Note_on_c, 0, 77, 34
1, 107640, Note_on_c, 0, 77, 0
1, 107640, Note_on_c, 0, 80, 0
1, 107640, Note_on_c, 0, 83, 0
1, 107760, Tempo, 305935
1, 107760, Note_on_c, 0, 73, 31
1, 107760, Note_on_c, 0, 68, 26
1, 107760, Note_on_c, 0, 65, 26
1, 107880, Note_on_c, 0, 65, 0
1, 107880, Note_on_c, 0, 68, 0
1, 107880, Note_on_c, 0, 73, 0
1, 107940, Note_on_c, 0, 86, 40
1, 108000, Tempo, 300210
1, 108000, Note_on_c, 0, 86, 0
1, 108000, Note_on_c, 0, 84, 45
1, 108000, Note_on_c, 0, 81, 38
1, 108000, Note_on_c, 0, 77, 38
1, 108120, Note_on_c, 0, 77, 0
1, 108120, Note_on_c, 0, 81, 0
1, 108120, Note_on_c, 0, 84, 0
1, 108240, Tempo, 303459
1, 108240, Note_on_c, 0, 65, 28
1, 108240, Note_on_c, 0, 69, 28
1, 108240, Note_on_c, 0, 72, 33
1, 108360, Note_on_c, 0, 72, 0
1, 108360, Note_on_c, 0, 69, 0
1, 108360, Note_on_c, 0, 65, 0
1, 108420, Note_on_c, 0, 84, 33
1, 108480, Tempo, 304260
1, 108480, Note_on_c, 0, 84, 0
1, 108480, Note_on_c, 0, 80, 38
1, 108480, Note_on_c, 0, 77, 38
1, 108480, Note_on_c, 0, 83, 45
1, 108480, Note_on_c, 0, 73, 36
1, 108480, Note_on_c, 0, 68, 30
1, 108600, Note_on_c, 0, 68, 0
1, 108600, Note_on_c, 0, 83, 0
1, 108600, Note_on_c, 0, 80, 0
1, 108600, Note_on_c, 0, 77, 0
1, 108600, Note_on_c, 0, 73, 0
1, 108660, Note_on_c, 0, 86, 31
1, 108720, Tempo, 314515
1, 108720, Note_on_c, 0, 86, 0
1, 108720, Note_on_c, 0, 84, 37
1, 108720, Note_on_c, 0, 81, 31
1, 108720, Note_on_c, 0, 77, 31
1, 108840, Note_on_c, 0, 77, 0
1, 108840, Note_on_c, 0, 81, 0
1, 108840, Note_on_c, 0, 84, 0
1, 108900, Note_on_c, 0, 86, 45
1, 108960, Tempo, 300210
1, 108960, Note_on_c, 0, 86, 0
1, 108960, Note_on_c, 0, 84, 45
1, 108960, Note_on_c, 0, 81, 38
1, 108960, Note_on_c, 0, 77, 38
1, 109080, Note_on_c, 0, 77, 0
1, 109080, Note_on_c, 0, 81, 0
1, 109080, Note_on_c, 0, 84, 0
1, 109200, Tempo, 305344
1, 109200, Note_on_c, 0, 65, 28
1, 109200, Note_on_c, 0, 69, 28
1, 109200, Note_on_c, 0, 72, 34
1, 109320, Note_on_c, 0, 72, 0
1, 109320, Note_on_c, 0, 69, 0
1, 109320, Note_on_c, 0, 65, 0
1, 109380, Note_on_c, 0, 84, 33
1, 109440, Tempo, 300210
1, 109440, Note_on_c, 0, 84, 0
1, 109440, Note_on_c, 0, 83, 40
1, 109440, Note_on_c, 0, 80, 34
1, 109440, Note_on_c, 0, 77, 34
1, 109560, Note_on_c, 0, 77, 0
1, 109560, Note_on_c, 0, 80, 0
1, 109560, Note_on_c, 0, 83, 0
1, 109680, Tempo, 305935
1, 109680, Note_on_c, 0, 73, 31
1, 109680, Note_on_c, 0, 68, 26
1, 109680, Note_on_c, 0, 65, 26
1, 109800, Note_on_c, 0, 65, 0
1, 109800, Note_on_c, 0, 68, 0
1, 109800, Note_on_c, 0, 73, 0
1, 109860, Note_on_c, 0, 86, 40
1, 109920, Tempo, 300210
1, 109920, Note_on_c, 0, 86, 0
1, 109920, Note_on_c, 0, 84, 45
1, 109920, Note_on_c, 0, 81, 38
1, 109920, Note_on_c, 0, 77, 38
1, 110040, Note_on_c, 0, 77, 0
1, 110040, Note_on_c, 0, 81, 0
1, 110040, Note_on_c, 0, 84, 0
1, 110160, Tempo, 303459
1, 110160, Note_on_c, 0, 65, 28
1, 110160, Note_on_c, 0, 69, 28
1, 110160, Note_on_c, 0, 72, 33
1, 110280, Note_on_c, 0, 72, 0
1, 110280, Note_on_c, 0, 69, 0
1, 110280, Note_on_c, 0, 65, 0
1, 110400, Tempo, 300210
1, 110400, Note_on_c, 0, 80, 45
1, 110400, Note_on_c, 0, 77, 38
1, 110400, Note_on_c, 0, 73, 38
1, 110520, Note_on_c, 0, 73, 0
1, 110520, Note_on_c, 0, 77, 0
1, 110520, Note_on_c, 0, 80, 0
1, 110640, Tempo, 303797
1, 110640, Note_on_c, 0, 68, 30
1, 110640, Note_on_c, 0, 71, 36
1, 110760, Note_on_c, 0, 71, 0
1, 110760, Note_on_c, 0, 68, 0
1, 110880, Tempo, 300000
1, 110880, Note_on_c, 0, 61, 34
1, 111000, Note_on_c, 0, 61, 0
1, 111060, Note_on_c, 0, 70, 32
1, 111120, Tempo, 305344
1, 111120, Note_on_c, 0, 70, 0
1, 111120, Note_on_c, 0, 71, 32
1, 111120, Note_on_c, 0, 68, 27
1, 111120, Note_on_c, 0, 63, 33
1, 111240, Note_on_c, 0, 63, 0
1, 111240, Note_on_c, 0, 68, 0
1, 111240, Note_on_c, 0, 71, 0
1, 111360, Tempo, 299252
1, 111360, Note_on_c, 0, 64, 34
1, 111480, Note_on_c, 0, 64, 0
1, 111540, Note_on_c, 0, 72, 32
1, 111600, Tempo, 305344
1, 111600, Note_on_c, 0, 72, 0
1, 111600, Note_on_c, 0, 73, 33
1, 111600, Note_on_c, 0, 69, 28
1, 111600, Note_on_c, 0, 65, 35
1, 111720, Note_on_c, 0, 65, 0
1, 111720, Note_on_c, 0, 69, 0
1, 111720, Note_on_c, 0, 73, 0
1, 111840, Tempo, 298507
1, 111840, Note_on_c, 0, 66, 36
1, 111960, Note_on_c, 0, 66, 0
1, 112020, Note_on_c, 0, 75, 32
1, 112080, Tempo, 304569
1, 112080, Note_on_c, 0, 75, 0
1, 112080, Note_on_c, 0, 73, 29
1, 112080, Note_on_c, 0, 76, 35
1, 112080, Note_on_c, 0, 68, 38
1, 112200, Note_on_c, 0, 68, 0
1, 112200, Note_on_c, 0, 76, 0
1, 112200, Note_on_c, 0, 73, 0
1, 112320, Tempo, 299252
1, 112320, Note_on_c, 0, 69, 39
1, 112440, Note_on_c, 0, 69, 0
1, 112500, Note_on_c, 0, 77, 32
1, 112560, Tempo, 303030
1, 112560, Note_on_c, 0, 77, 0
1, 112560, Note_on_c, 0, 78, 37
1, 112560, Note_on_c, 0, 74, 31
1, 112560, Note_on_c, 0, 70, 40
1, 112680, Note_on_c, 0, 70, 0
1, 112680, Note_on_c, 0, 74, 0
1, 112680, Note_on_c, 0, 78, 0
1, 112800, Tempo, 300000
1, 112800, Note_on_c, 0, 63, 34
1, 112920, Note_on_c, 0, 63, 0
1, 112980, Note_on_c, 0, 72, 32
1, 113040, Tempo, 305344
1, 113040, Note_on_c, 0, 72, 0
1, 113040, Note_on_c, 0, 73, 32
1, 113040, Note_on_c, 0, 70, 27
1, 113040, Note_on_c, 0, 65, 33
1, 113160, Note_on_c, 0, 65, 0
1, 113160, Note_on_c, 0, 70, 0
1, 113160, Note_on_c, 0, 73, 0
1, 113280, Tempo, 299252
1, 113280, Note_on_c, 0, 66, 34
1, 113400, Note_on_c, 0, 66, 0
1, 113460, Note_on_c, 0, 74, 32
1, 113520, Tempo, 305344
1, 113520, Note_on_c, 0, 74, 0
1, 113520, Note_on_c, 0, 75, 33
1, 113520, Note_on_c, 0, 71, 28
1, 113520, Note_on_c, 0, 67, 35
1, 113640, Note_on_c, 0, 67, 0
1, 113640, Note_on_c, 0, 71, 0
1, 113640, Note_on_c, 0, 75, 0
1, 113760, Tempo, 298507
1, 113760, Note_on_c, 0, 68, 36
1, 113880, Note_on_c, 0, 68, 0
1, 113940, Note_on_c, 0, 76, 32
1, 114000, Tempo, 304569
1, 114000, Note_on_c, 0, 76, 0
1, 114000, Note_on_c, 0, 73, 29
1, 114000, Note_on_c, 0, 77, 35
1, 114000, Note_on_c, 0, 70, 38
1, 114120, Note_on_c, 0, 70, 0
1, 114120, Note_on_c, 0, 77, 0
1, 114120, Note_on_c, 0, 73, 0
1, 114240, Tempo, 299252
1, 114240, Note_on_c, 0, 71, 39
1, 114360, Note_on_c, 0, 71, 0
1, 114420, Note_on_c, 0, 79, 32
1, 114480, Tempo, 310881
1, 114480, Note_on_c, 0, 79, 0
1, 114480, Note_on_c, 0, 80, 37
1, 114480, Note_on_c, 0, 76, 31
1, 114480, Note_on_c, 0, 72, 40
1, 114600, Note_on_c, 0, 72, 0
1, 114600, Note_on_c, 0, 76, 0
1, 114600, Note_on_c, 0, 80, 0
1, 114660, Note_on_c, 0, 93, 55
1, 114720, Tempo, 295567
1, 114720, Note_on_c, 0, 93, 0
1, 114720, Note_on_c, 0, 94, 63
1, 114720, Note_on_c, 0, 90, 53
1, 114720, Note_on_c, 0, 60, 55
1, 114840, Note_on_c, 0, 60, 0
1, 114840, Note_on_c, 0, 90, 0
1, 114840, Note_on_c, 0, 94, 0
1, 114960, Tempo, 300000
1, 114960, Note_on_c, 0, 64, 47
1, 115080, Note_on_c, 0, 64, 0
1, 115140, Note_on_c, 0, 92, 51
1, 115200, Tempo, 295567
1, 115200, Note_on_c, 0, 92, 0
1, 115200, Note_on_c, 0, 93, 56
1, 115200, Note_on_c, 0, 89, 47
1, 115200, Note_on_c, 0, 61, 55
1, 115320, Note_on_c, 0, 61, 0
1, 115320, Note_on_c, 0, 89, 0
1, 115320, Note_on_c, 0, 93, 0
1, 115440, Tempo, 300000
1, 115440, Note_on_c, 0, 65, 47
1, 115560, Note_on_c, 0, 65, 0
1, 115620, Note_on_c, 0, 82, 50
1, 115680, Tempo, 296296
1, 115680, Note_on_c, 0, 82, 0
1, 115680, Note_on_c, 0, 83, 55
1, 115680, Note_on_c, 0, 81, 46
1, 115680, Note_on_c, 0, 63, 55
1, 115800, Note_on_c, 0, 63, 0
1, 115800, Note_on_c, 0, 81, 0
1, 115800, Note_on_c, 0, 83, 0
1, 115920, Tempo, 300000
1, 115920, Note_on_c, 0, 66, 50
1, 116040, Note_on_c, 0, 66, 0
1, 116100, Note_on_c, 0, 82, 47
1, 116160, Tempo, 298507
1, 116160, Note_on_c, 0, 82, 0
1, 116160, Note_on_c, 0, 84, 52
1, 116160, Note_on_c, 0, 79, 44
1, 116160, Note_on_c, 0, 64, 54
1, 116280, Note_on_c, 0, 64, 0
1, 116280, Note_on_c, 0, 79, 0
1, 116280, Note_on_c, 0, 84, 0
1, 116400, Tempo, 303030
1, 116400, Note_on_c, 0, 67, 52
1, 116520, Note_on_c, 0, 67, 0
1, 116580, Note_on_c, 0, 88, 53
1, 116640, Tempo, 298507
1, 116640, Note_on_c, 0, 88, 0
1, 116640, Note_on_c, 0, 89, 57
1, 116640, Note_on_c, 0, 85, 48
1, 116640, Note_on_c, 0, 65, 56
1, 116760, Note_on_c, 0, 65, 0
1, 116760, Note_on_c, 0, 85, 0
1, 116760, Note_on_c, 0, 89, 0
1, 116880, Tempo, 303030
1, 116880, Note_on_c, 0, 69, 51
1, 117000, Note_on_c, 0, 69, 0
1, 117060, Note_on_c, 0, 85, 51
1, 117120, Tempo, 300752
1, 117120, Note_on_c, 0, 85, 0
1, 117120, Note_on_c, 0, 82, 45
1, 117120, Note_on_c, 0, 86, 54
1, 117120, Note_on_c, 0, 66, 57
1, 117240, Note_on_c, 0, 66, 0
1, 117240, Note_on_c, 0, 86, 0
1, 117240, Note_on_c, 0, 82, 0
1, 117360, Tempo, 304569
1, 117360, Note_on_c, 0, 70, 53
1, 117480, Note_on_c, 0, 70, 0
1, 117540, Note_on_c, 0, 76, 55
1, 117600, Tempo, 300752
1, 117600, Note_on_c, 0, 76, 0
1, 117600, Note_on_c, 0, 73, 51
1, 117600, Note_on_c, 0, 77, 60
1, 117600, Note_on_c, 0, 68, 58
1, 117720, Note_on_c, 0, 68, 0
1, 117720, Note_on_c, 0, 77, 0
1, 117720, Note_on_c, 0, 73, 0
1, 117840, Tempo, 305344
1, 117840, Note_on_c, 0, 71, 56
1, 117960, Note_on_c, 0, 71, 0
1, 118020, Note_on_c, 0, 78, 53
1, 118080, Tempo, 303797
1, 118080, Note_on_c, 0, 78, 0
1, 118080, Note_on_c, 0, 79, 57
1, 118080, Note_on_c, 0, 76, 48
1, 118080, Note_on_c, 0, 70, 59
1, 118200, Note_on_c, 0, 76, 0
1, 118200, Note_on_c, 0, 79, 0
1, 118320, Tempo, 307692
1, 118320, Note_on_c, 0, 70, 0
1, 118320, Note_on_c, 0, 72, 55
1, 118500, Note_on_c, 0, 72, 0
1, 118500, Note_on_c, 0, 84, 70
1, 118500, Note_on_c, 0, 72, 62
1, 118560, Tempo, 320856
1, 118560, Marker_t, "Coda"
1, 118560, Note_on_c, 0, 72, 0
1, 118560, Note_on_c, 0, 84, 0
1, 118560, Note_on_c, 0, 85, 79
1, 118560, Note_on_c, 0, 73, 71
1, 120240, Note_on_c, 0, 73, 0
1, 120240, Note_on_c, 0, 85, 0
1, 120420, Note_on_c, 0, 84, 53
1, 120420, Note_on_c, 0, 72, 46
1, 120480, Tempo, 431655
1, 120480, Note_on_c, 0, 72, 0
1, 120480, Note_on_c, 0, 84, 0
1, 120480, Note_on_c, 0, 85, 59
1, 120480, Note_on_c, 0, 73, 52
1, 120720, Note_on_c, 0, 73, 0
1, 120720, Note_on_c, 0, 85, 0
1, 120900, Note_on_c, 0, 84, 48
1, 120900, Note_on_c, 0, 72, 37
1, 120960, Tempo, 444444
1, 120960, Note_on_c, 0, 72, 0
1, 120960, Note_on_c, 0, 84, 0
1, 120960, Note_on_c, 0, 80, 54
1, 120960, Note_on_c, 0, 68, 46
1, 121200, Tempo, 512821
1, 121200, Note_on_c, 0, 68, 0
1, 121200, Note_on_c, 0, 80, 0
1, 121200, Note_on_c, 0, 81, 46
1, 121200, Note_on_c, 0, 69, 46
1, 121380, Tempo, 461538
1, 121380, Note_on_c, 0, 69, 0
1, 121380, Note_on_c, 0, 81, 0
1, 121380, Note_on_c, 0, 92, 33
1, 121440, Note_on_c, 0, 92, 0
1, 121440, Note_on_c, 0, 93, 40
1, 121440, Note_on_c, 0, 89, 40
1, 121440, Note_on_c, 0, 84, 34
1, 121440, Note_on_c, 0, 81, 39
1, 121440, Note_on_c, 0, 77, 33
1, 121920, Note_on_c, 0, 77, 0
1, 121920, Note_on_c, 0, 84, 0
1, 121920, Note_on_c, 0, 93, 0
1, 121920, Note_on_c, 0, 89, 0
1, 121920, Note_on_c, 0, 81, 0
1, 123360, Tempo, 500000
1, 123360, End_track
0, 0, End_of_file
