0, 0, Header, 0, 1, 480
1, 0, Start_track
1, 0, Title_t, "Klaviersonate C-Dur KV 330"
1, 0, Title_t, "1. Satz"
1, 0, Copyright_t, "Copyright © 1997 von Bernd Krüger. http://www.piano-midi.de"
1, 0, Text_t, "Mozart"
1, 0, Text_t, "Allegro moderato"
1, 0, Text_t, "Update am 31.3.2000\012"
1, 0, Text_t, "Update am2.12.2001\012"
1, 0, Text_t, "Normierung: 23.12.2002\012"
1, 0, Text_t, "Update am 1.2.2006\012"
1, 0, Text_t, "Update am 16.6.2013\012"
1, 0, Text_t, "Dauer: 8:58 Minuten\012"
1, 0, Time_signature, 2, 2, 24, 8
1, 0, Key_signature, 0, "major"
1, 0, Tempo, 922084
1, 0, Marker_t, "Allegro moderato"
1, 0, Program_c, 0, 0
1, 0, Control_c, 0, 7, 100
1, 0, Control_c, 0, 10, 64
1, 0, Control_c, 0, 91, 127
1, 0, Text_t, "bdca426d104a26ac9dcb070447587523"
1, 0, Program_c, 0, 0
1, 0, Control_c, 0, 7, 100
1, 0, Control_c, 0, 10, 64
1, 0, Control_c, 0, 91, 127
1, 1, Note_on_c, 0, 79, 79
1, 1, Note_on_c, 0, 64, 50
1, 18, Control_c, 0, 64, 127
1, 120, Note_on_c, 0, 64, 0
1, 120, Note_on_c, 0, 79, 0
1, 120, Note_on_c, 0, 60, 36
1, 240, Tempo, 902120
1, 240, Note_on_c, 0, 60, 0
1, 240, Note_on_c, 0, 79, 71
1, 240, Note_on_c, 0, 64, 43
1, 360, Note_on_c, 0, 64, 0
1, 360, Note_on_c, 0, 60, 38
1, 480, Note_on_c, 0, 60, 0
1, 480, Note_on_c, 0, 64, 51
1, 600, Tempo, 866051
1, 600, Note_on_c, 0, 64, 0
1, 600, Note_on_c, 0, 79, 0
1, 600, Note_on_c, 0, 77, 71
1, 600, Note_on_c, 0, 60, 40
1, 660, Note_on_c, 0, 77, 0
1, 660, Note_on_c, 0, 76, 69
1, 717, Note_on_c, 0, 76, 0
1, 720, Note_on_c, 0, 60, 0
1, 720, Note_on_c, 0, 76, 70
1, 720, Note_on_c, 0, 64, 45
1, 728, Control_c, 0, 64, 0
1, 763, Control_c, 0, 64, 127
1, 780, Note_on_c, 0, 76, 0
1, 780, Note_on_c, 0, 74, 64
1, 840, Note_on_c, 0, 74, 0
1, 840, Note_on_c, 0, 64, 0
1, 840, Note_on_c, 0, 72, 67
1, 840, Note_on_c, 0, 60, 43
1, 900, Note_on_c, 0, 72, 0
1, 900, Note_on_c, 0, 71, 66
1, 960, Tempo, 888362
1, 960, Note_on_c, 0, 71, 0
1, 960, Note_on_c, 0, 60, 0
1, 960, Note_on_c, 0, 72, 47
1, 960, Note_on_c, 0, 64, 51
1, 973, Control_c, 0, 64, 0
1, 995, Control_c, 0, 64, 127
1, 1000, Note_on_c, 0, 74, 49
1, 1005, Note_on_c, 0, 72, 0
1, 1040, Note_on_c, 0, 72, 55
1, 1045, Note_on_c, 0, 74, 0
1, 1080, Note_on_c, 0, 64, 0
1, 1080, Note_on_c, 0, 74, 52
1, 1080, Note_on_c, 0, 60, 45
1, 1085, Note_on_c, 0, 72, 0
1, 1120, Note_on_c, 0, 72, 57
1, 1125, Note_on_c, 0, 74, 0
1, 1160, Note_on_c, 0, 74, 51
1, 1165, Note_on_c, 0, 72, 0
1, 1200, Note_on_c, 0, 60, 0
1, 1200, Note_on_c, 0, 72, 59
1, 1200, Note_on_c, 0, 64, 51
1, 1205, Note_on_c, 0, 74, 0
1, 1240, Note_on_c, 0, 74, 56
1, 1245, Note_on_c, 0, 72, 0
1, 1280, Note_on_c, 0, 72, 63
1, 1285, Note_on_c, 0, 74, 0
1, 1320, Tempo, 866051
1, 1320, Note_on_c, 0, 64, 0
1, 1320, Note_on_c, 0, 74, 62
1, 1320, Note_on_c, 0, 60, 40
1, 1340, Note_on_c, 0, 72, 0
1, 1380, Note_on_c, 0, 74, 0
1, 1380, Note_on_c, 0, 76, 63
1, 1440, Tempo, 895790
1, 1440, Note_on_c, 0, 76, 0
1, 1440, Note_on_c, 0, 60, 0
1, 1440, Note_on_c, 0, 67, 69
1, 1440, Note_on_c, 0, 64, 42
1, 1453, Control_c, 0, 64, 0
1, 1497, Control_c, 0, 64, 127
1, 1560, Note_on_c, 0, 64, 0
1, 1560, Note_on_c, 0, 60, 28
1, 1680, Tempo, 876937
1, 1680, Note_on_c, 0, 60, 0
1, 1680, Note_on_c, 0, 67, 0
1, 1680, Note_on_c, 0, 64, 33
1, 1800, Note_on_c, 0, 64, 0
1, 1800, Note_on_c, 0, 60, 27
1, 1920, Tempo, 894188
1, 1920, Note_on_c, 0, 60, 0
1, 1920, Note_on_c, 0, 79, 77
1, 1920, Note_on_c, 0, 64, 51
1, 1941, Control_c, 0, 64, 0
1, 1968, Control_c, 0, 64, 127
1, 1980, Note_on_c, 0, 79, 0
1, 2040, Note_on_c, 0, 64, 0
1, 2040, Note_on_c, 0, 79, 73
1, 2040, Note_on_c, 0, 60, 36
1, 2100, Note_on_c, 0, 79, 0
1, 2160, Note_on_c, 0, 60, 0
1, 2160, Note_on_c, 0, 79, 69
1, 2160, Note_on_c, 0, 64, 43
1, 2280, Note_on_c, 0, 64, 0
1, 2280, Note_on_c, 0, 60, 36
1, 2400, Note_on_c, 0, 60, 0
1, 2400, Note_on_c, 0, 64, 43
1, 2520, Tempo, 866051
1, 2520, Note_on_c, 0, 64, 0
1, 2520, Note_on_c, 0, 79, 0
1, 2520, Note_on_c, 0, 77, 64
1, 2520, Note_on_c, 0, 60, 36
1, 2580, Note_on_c, 0, 77, 0
1, 2580, Note_on_c, 0, 76, 61
1, 2637, Note_on_c, 0, 76, 0
1, 2640, Note_on_c, 0, 60, 0
1, 2640, Note_on_c, 0, 76, 64
1, 2640, Note_on_c, 0, 65, 40
1, 2644, Control_c, 0, 64, 0
1, 2672, Control_c, 0, 64, 127
1, 2700, Note_on_c, 0, 76, 0
1, 2700, Note_on_c, 0, 74, 60
1, 2760, Note_on_c, 0, 74, 0
1, 2760, Note_on_c, 0, 65, 0
1, 2760, Note_on_c, 0, 72, 61
1, 2760, Note_on_c, 0, 60, 36
1, 2820, Note_on_c, 0, 72, 0
1, 2820, Note_on_c, 0, 71, 60
1, 2880, Tempo, 888362
1, 2880, Note_on_c, 0, 71, 0
1, 2880, Note_on_c, 0, 60, 0
1, 2880, Note_on_c, 0, 72, 47
1, 2880, Note_on_c, 0, 64, 38
1, 2884, Control_c, 0, 64, 0
1, 2920, Note_on_c, 0, 74, 49
1, 2924, Control_c, 0, 64, 127
1, 2925, Note_on_c, 0, 72, 0
1, 2960, Note_on_c, 0, 72, 55
1, 2965, Note_on_c, 0, 74, 0
1, 3000, Note_on_c, 0, 64, 0
1, 3000, Note_on_c, 0, 74, 52
1, 3000, Note_on_c, 0, 60, 34
1, 3005, Note_on_c, 0, 72, 0
1, 3040, Note_on_c, 0, 72, 57
1, 3045, Note_on_c, 0, 74, 0
1, 3080, Note_on_c, 0, 74, 51
1, 3085, Note_on_c, 0, 72, 0
1, 3120, Note_on_c, 0, 60, 0
1, 3120, Note_on_c, 0, 72, 59
1, 3120, Note_on_c, 0, 64, 39
1, 3125, Note_on_c, 0, 74, 0
1, 3160, Note_on_c, 0, 74, 56
1, 3165, Note_on_c, 0, 72, 0
1, 3200, Note_on_c, 0, 72, 63
1, 3205, Note_on_c, 0, 74, 0
1, 3240, Tempo, 866051
1, 3240, Note_on_c, 0, 64, 0
1, 3240, Note_on_c, 0, 74, 62
1, 3240, Note_on_c, 0, 60, 33
1, 3260, Note_on_c, 0, 72, 0
1, 3300, Note_on_c, 0, 74, 0
1, 3300, Note_on_c, 0, 76, 63
1, 3360, Tempo, 889284
1, 3360, Note_on_c, 0, 76, 0
1, 3360, Note_on_c, 0, 60, 0
1, 3360, Note_on_c, 0, 67, 62
1, 3360, Note_on_c, 0, 64, 34
1, 3379, Control_c, 0, 64, 0
1, 3420, Control_c, 0, 64, 127
1, 3480, Note_on_c, 0, 64, 0
1, 3480, Note_on_c, 0, 60, 27
1, 3600, Tempo, 870827
1, 3600, Note_on_c, 0, 60, 0
1, 3600, Note_on_c, 0, 67, 0
1, 3600, Note_on_c, 0, 64, 31
1, 3720, Note_on_c, 0, 64, 0
1, 3720, Note_on_c, 0, 60, 27
1, 3840, Tempo, 857143
1, 3840, Note_on_c, 0, 60, 0
1, 3840, Note_on_c, 0, 69, 54
1, 3840, Note_on_c, 0, 65, 34
1, 3855, Control_c, 0, 64, 0
1, 3900, Note_on_c, 0, 69, 0
1, 3960, Note_on_c, 0, 65, 0
1, 3960, Note_on_c, 0, 72, 53
1, 3960, Note_on_c, 0, 60, 29
1, 4020, Note_on_c, 0, 72, 0
1, 4080, Tempo, 819672
1, 4080, Note_on_c, 0, 60, 0
1, 4080, Note_on_c, 0, 77, 54
1, 4080, Note_on_c, 0, 65, 34
1, 4140, Note_on_c, 0, 77, 0
1, 4200, Tempo, 917291
1, 4200, Note_on_c, 0, 65, 0
1, 4200, Note_on_c, 0, 81, 52
1, 4200, Note_on_c, 0, 60, 30
1, 4260, Note_on_c, 0, 81, 0
1, 4320, Tempo, 864429
1, 4320, Note_on_c, 0, 60, 0
1, 4320, Note_on_c, 0, 84, 58
1, 4320, Note_on_c, 0, 65, 34
1, 4416, Control_c, 0, 64, 127
1, 4440, Note_on_c, 0, 65, 0
1, 4440, Note_on_c, 0, 84, 0
1, 4440, Note_on_c, 0, 60, 26
1, 4560, Tempo, 841633
1, 4560, Note_on_c, 0, 60, 0
1, 4560, Note_on_c, 0, 65, 31
1, 4580, Tempo, 864803
1, 4680, Note_on_c, 0, 65, 0
1, 4680, Note_on_c, 0, 60, 26
1, 4800, Tempo, 847338
1, 4800, Note_on_c, 0, 60, 0
1, 4800, Note_on_c, 0, 67, 56
1, 4800, Note_on_c, 0, 64, 36
1, 4810, Control_c, 0, 64, 0
1, 4860, Note_on_c, 0, 67, 0
1, 4920, Note_on_c, 0, 64, 0
1, 4920, Note_on_c, 0, 72, 54
1, 4920, Note_on_c, 0, 60, 32
1, 4980, Note_on_c, 0, 72, 0
1, 5040, Tempo, 814222
1, 5040, Note_on_c, 0, 60, 0
1, 5040, Note_on_c, 0, 76, 56
1, 5040, Note_on_c, 0, 64, 36
1, 5100, Note_on_c, 0, 76, 0
1, 5160, Tempo, 903478
1, 5160, Note_on_c, 0, 64, 0
1, 5160, Note_on_c, 0, 79, 53
1, 5160, Note_on_c, 0, 60, 30
1, 5220, Note_on_c, 0, 79, 0
1, 5280, Tempo, 864429
1, 5280, Note_on_c, 0, 60, 0
1, 5280, Note_on_c, 0, 84, 61
1, 5280, Note_on_c, 0, 64, 36
1, 5351, Control_c, 0, 64, 127
1, 5400, Note_on_c, 0, 64, 0
1, 5400, Note_on_c, 0, 84, 0
1, 5400, Note_on_c, 0, 60, 26
1, 5520, Note_on_c, 0, 60, 0
1, 5520, Note_on_c, 0, 64, 32
1, 5640, Note_on_c, 0, 64, 0
1, 5640, Note_on_c, 0, 60, 27
1, 5700, Note_on_c, 0, 67, 63
1, 5760, Note_on_c, 0, 67, 0
1, 5760, Note_on_c, 0, 60, 0
1, 5760, Note_on_c, 0, 79, 83
1, 5760, Note_on_c, 0, 60, 57
1, 5760, Note_on_c, 0, 64, 57
1, 5768, Control_c, 0, 64, 0
1, 5801, Control_c, 0, 64, 127
1, 5880, Note_on_c, 0, 60, 0
1, 5880, Note_on_c, 0, 55, 50
1, 6000, Note_on_c, 0, 55, 0
1, 6000, Note_on_c, 0, 64, 0
1, 6000, Note_on_c, 0, 60, 57
1, 6000, Note_on_c, 0, 64, 57
1, 6120, Note_on_c, 0, 60, 0
1, 6120, Note_on_c, 0, 55, 50
1, 6240, Note_on_c, 0, 55, 0
1, 6240, Note_on_c, 0, 64, 0
1, 6240, Note_on_c, 0, 62, 54
1, 6240, Note_on_c, 0, 59, 54
1, 6249, Control_c, 0, 64, 0
1, 6288, Control_c, 0, 64, 127
1, 6360, Note_on_c, 0, 59, 0
1, 6360, Note_on_c, 0, 55, 46
1, 6480, Note_on_c, 0, 55, 0
1, 6480, Note_on_c, 0, 62, 0
1, 6480, Note_on_c, 0, 79, 0
1, 6480, Note_on_c, 0, 77, 60
1, 6480, Note_on_c, 0, 62, 50
1, 6480, Note_on_c, 0, 59, 50
1, 6491, Control_c, 0, 64, 0
1, 6520, Note_on_c, 0, 77, 0
1, 6520, Note_on_c, 0, 79, 68
1, 6543, Control_c, 0, 64, 127
1, 6560, Note_on_c, 0, 79, 0
1, 6560, Note_on_c, 0, 77, 68
1, 6600, Note_on_c, 0, 77, 0
1, 6600, Note_on_c, 0, 59, 0
1, 6600, Note_on_c, 0, 76, 76
1, 6600, Note_on_c, 0, 55, 46
1, 6660, Note_on_c, 0, 76, 0
1, 6660, Note_on_c, 0, 77, 71
1, 6720, Tempo, 899955
1, 6720, Note_on_c, 0, 77, 0
1, 6720, Note_on_c, 0, 55, 0
1, 6720, Note_on_c, 0, 62, 0
1, 6720, Note_on_c, 0, 75, 78
1, 6720, Note_on_c, 0, 60, 48
1, 6720, Control_c, 0, 64, 0
1, 6819, Control_c, 0, 64, 127
1, 6840, Note_on_c, 0, 60, 0
1, 6840, Note_on_c, 0, 48, 43
1, 6960, Tempo, 866051
1, 6960, Note_on_c, 0, 48, 0
1, 6960, Note_on_c, 0, 75, 0
1, 6960, Note_on_c, 0, 76, 76
1, 6960, Note_on_c, 0, 52, 48
1, 7080, Note_on_c, 0, 52, 0
1, 7080, Note_on_c, 0, 55, 43
1, 7200, Note_on_c, 0, 55, 0
1, 7200, Note_on_c, 0, 76, 0
1, 7200, Note_on_c, 0, 60, 57
1, 7207, Control_c, 0, 64, 0
1, 7257, Control_c, 0, 64, 127
1, 7320, Note_on_c, 0, 60, 0
1, 7320, Note_on_c, 0, 64, 47
1, 7440, Tempo, 836004
1, 7440, Note_on_c, 0, 64, 0
1, 7440, Note_on_c, 0, 67, 52
1, 7560, Note_on_c, 0, 67, 0
1, 7560, Note_on_c, 0, 64, 46
1, 7680, Tempo, 847338
1, 7680, Note_on_c, 0, 64, 0
1, 7680, Note_on_c, 0, 69, 57
1, 7680, Note_on_c, 0, 65, 37
1, 7687, Control_c, 0, 64, 0
1, 7726, Control_c, 0, 64, 127
1, 7800, Note_on_c, 0, 65, 0
1, 7800, Note_on_c, 0, 69, 0
1, 7800, Note_on_c, 0, 72, 57
1, 7800, Note_on_c, 0, 60, 28
1, 7860, Note_on_c, 0, 72, 0
1, 7860, Note_on_c, 0, 69, 52
1, 7920, Note_on_c, 0, 69, 0
1, 7920, Note_on_c, 0, 60, 0
1, 7920, Note_on_c, 0, 77, 57
1, 7920, Note_on_c, 0, 65, 37
1, 7980, Note_on_c, 0, 77, 0
1, 7980, Note_on_c, 0, 72, 51
1, 8040, Note_on_c, 0, 72, 0
1, 8040, Note_on_c, 0, 65, 0
1, 8040, Note_on_c, 0, 81, 55
1, 8040, Note_on_c, 0, 60, 29
1, 8100, Note_on_c, 0, 81, 0
1, 8100, Note_on_c, 0, 77, 50
1, 8160, Tempo, 889284
1, 8160, Note_on_c, 0, 77, 0
1, 8160, Note_on_c, 0, 60, 0
1, 8160, Note_on_c, 0, 84, 63
1, 8160, Note_on_c, 0, 65, 37
1, 8176, Control_c, 0, 64, 0
1, 8241, Control_c, 0, 64, 127
1, 8280, Note_on_c, 0, 65, 0
1, 8280, Note_on_c, 0, 84, 0
1, 8280, Note_on_c, 0, 60, 29
1, 8400, Tempo, 858861
1, 8400, Note_on_c, 0, 60, 0
1, 8400, Note_on_c, 0, 65, 33
1, 8520, Note_on_c, 0, 65, 0
1, 8520, Note_on_c, 0, 60, 29
1, 8640, Tempo, 847338
1, 8640, Note_on_c, 0, 60, 0
1, 8640, Note_on_c, 0, 67, 59
1, 8640, Note_on_c, 0, 64, 37
1, 8654, Control_c, 0, 64, 0
1, 8683, Control_c, 0, 64, 127
1, 8760, Note_on_c, 0, 64, 0
1, 8760, Note_on_c, 0, 67, 0
1, 8760, Note_on_c, 0, 72, 59
1, 8760, Note_on_c, 0, 60, 29
1, 8820, Note_on_c, 0, 72, 0
1, 8820, Note_on_c, 0, 67, 53
1, 8880, Note_on_c, 0, 67, 0
1, 8880, Note_on_c, 0, 60, 0
1, 8880, Note_on_c, 0, 76, 59
1, 8880, Note_on_c, 0, 64, 37
1, 8940, Note_on_c, 0, 76, 0
1, 8940, Note_on_c, 0, 72, 52
1, 9000, Note_on_c, 0, 72, 0
1, 9000, Note_on_c, 0, 64, 0
1, 9000, Note_on_c, 0, 79, 57
1, 9000, Note_on_c, 0, 60, 28
1, 9060, Note_on_c, 0, 79, 0
1, 9060, Note_on_c, 0, 76, 50
1, 9120, Tempo, 883132
1, 9120, Note_on_c, 0, 76, 0
1, 9120, Note_on_c, 0, 60, 0
1, 9120, Note_on_c, 0, 84, 63
1, 9120, Note_on_c, 0, 64, 37
1, 9136, Control_c, 0, 64, 0
1, 9198, Control_c, 0, 64, 127
1, 9240, Note_on_c, 0, 64, 0
1, 9240, Note_on_c, 0, 84, 0
1, 9240, Note_on_c, 0, 60, 27
1, 9360, Tempo, 864803
1, 9360, Note_on_c, 0, 60, 0
1, 9360, Note_on_c, 0, 64, 32
1, 9480, Note_on_c, 0, 64, 0
1, 9480, Note_on_c, 0, 60, 29
1, 9600, Tempo, 853121
1, 9600, Note_on_c, 0, 60, 0
1, 9600, Note_on_c, 0, 81, 85
1, 9600, Note_on_c, 0, 64, 48
1, 9600, Note_on_c, 0, 60, 48
1, 9617, Control_c, 0, 64, 0
1, 9720, Note_on_c, 0, 60, 0
1, 9720, Note_on_c, 0, 81, 0
1, 9720, Note_on_c, 0, 79, 74
1, 9720, Note_on_c, 0, 55, 42
1, 9840, Note_on_c, 0, 55, 0
1, 9840, Note_on_c, 0, 79, 0
1, 9840, Note_on_c, 0, 64, 0
1, 9840, Note_on_c, 0, 77, 79
1, 9840, Note_on_c, 0, 64, 45
1, 9840, Note_on_c, 0, 60, 45
1, 9900, Note_on_c, 0, 77, 0
1, 9960, Note_on_c, 0, 60, 0
1, 9960, Note_on_c, 0, 76, 73
1, 9960, Note_on_c, 0, 55, 40
1, 10020, Note_on_c, 0, 76, 0
1, 10080, Note_on_c, 0, 55, 0
1, 10080, Note_on_c, 0, 64, 0
1, 10080, Note_on_c, 0, 76, 85
1, 10080, Note_on_c, 0, 62, 48
1, 10080, Note_on_c, 0, 65, 48
1, 10200, Note_on_c, 0, 62, 0
1, 10200, Note_on_c, 0, 76, 0
1, 10200, Note_on_c, 0, 74, 73
1, 10200, Note_on_c, 0, 55, 42
1, 10320, Note_on_c, 0, 55, 0
1, 10320, Note_on_c, 0, 74, 0
1, 10320, Note_on_c, 0, 65, 0
1, 10320, Note_on_c, 0, 72, 79
1, 10320, Note_on_c, 0, 65, 45
1, 10320, Note_on_c, 0, 62, 45
1, 10380, Note_on_c, 0, 72, 0
1, 10440, Note_on_c, 0, 62, 0
1, 10440, Note_on_c, 0, 71, 73
1, 10440, Note_on_c, 0, 55, 40
1, 10500, Note_on_c, 0, 71, 0
1, 10560, Tempo, 864803
1, 10560, Note_on_c, 0, 55, 0
1, 10560, Note_on_c, 0, 65, 0
1, 10560, Note_on_c, 0, 72, 82
1, 10560, Note_on_c, 0, 60, 56
1, 10560, Note_on_c, 0, 64, 56
1, 10620, Note_on_c, 0, 67, 69
1, 10632, Note_on_c, 0, 72, 0
1, 10680, Note_on_c, 0, 69, 70
1, 10692, Note_on_c, 0, 67, 0
1, 10740, Note_on_c, 0, 71, 68
1, 10752, Note_on_c, 0, 69, 0
1, 10800, Note_on_c, 0, 72, 73
1, 10812, Note_on_c, 0, 71, 0
1, 10860, Note_on_c, 0, 74, 72
1, 10872, Note_on_c, 0, 72, 0
1, 10920, Note_on_c, 0, 76, 76
1, 10932, Note_on_c, 0, 74, 0
1, 10980, Note_on_c, 0, 77, 74
1, 10992, Note_on_c, 0, 76, 0
1, 11040, Note_on_c, 0, 60, 0
1, 11040, Note_on_c, 0, 64, 0
1, 11040, Note_on_c, 0, 79, 77
1, 11052, Note_on_c, 0, 77, 0
1, 11100, Note_on_c, 0, 81, 72
1, 11112, Note_on_c, 0, 79, 0
1, 11160, Note_on_c, 0, 83, 77
1, 11172, Note_on_c, 0, 81, 0
1, 11220, Note_on_c, 0, 84, 71
1, 11232, Note_on_c, 0, 83, 0
1, 11280, Tempo, 899955
1, 11280, Note_on_c, 0, 84, 0
1, 11280, Note_on_c, 0, 79, 75
1, 11340, Note_on_c, 0, 79, 0
1, 11400, Note_on_c, 0, 79, 72
1, 11460, Note_on_c, 0, 79, 0
1, 11520, Note_on_c, 0, 55, 45
1, 11520, Note_on_c, 0, 64, 45
1, 11531, Control_c, 0, 64, 127
1, 11580, Note_on_c, 0, 79, 54
1, 11640, Note_on_c, 0, 79, 0
1, 11640, Note_on_c, 0, 81, 54
1, 11700, Note_on_c, 0, 81, 0
1, 11700, Note_on_c, 0, 79, 51
1, 11760, Note_on_c, 0, 79, 0
1, 11760, Note_on_c, 0, 64, 0
1, 11760, Note_on_c, 0, 55, 0
1, 11760, Note_on_c, 0, 55, 41
1, 11760, Note_on_c, 0, 62, 41
1, 11770, Control_c, 0, 64, 0
1, 11820, Note_on_c, 0, 77, 54
1, 11824, Control_c, 0, 64, 127
1, 11880, Note_on_c, 0, 77, 0
1, 11880, Note_on_c, 0, 79, 54
1, 11940, Note_on_c, 0, 79, 0
1, 11940, Note_on_c, 0, 77, 51
1, 12000, Note_on_c, 0, 77, 0
1, 12000, Note_on_c, 0, 62, 0
1, 12000, Note_on_c, 0, 55, 0
1, 12000, Note_on_c, 0, 60, 46
1, 12000, Note_on_c, 0, 55, 46
1, 12009, Control_c, 0, 64, 0
1, 12046, Control_c, 0, 64, 127
1, 12060, Note_on_c, 0, 76, 54
1, 12120, Note_on_c, 0, 76, 0
1, 12120, Note_on_c, 0, 77, 54
1, 12180, Note_on_c, 0, 77, 0
1, 12180, Note_on_c, 0, 76, 50
1, 12240, Note_on_c, 0, 76, 0
1, 12240, Note_on_c, 0, 55, 0
1, 12240, Note_on_c, 0, 60, 0
1, 12240, Note_on_c, 0, 59, 41
1, 12240, Note_on_c, 0, 55, 41
1, 12251, Control_c, 0, 64, 0
1, 12286, Control_c, 0, 64, 127
1, 12300, Note_on_c, 0, 74, 54
1, 12360, Note_on_c, 0, 74, 0
1, 12360, Note_on_c, 0, 76, 54
1, 12420, Note_on_c, 0, 76, 0
1, 12420, Note_on_c, 0, 74, 53
1, 12480, Tempo, 866051
1, 12480, Note_on_c, 0, 74, 0
1, 12480, Note_on_c, 0, 55, 0
1, 12480, Note_on_c, 0, 59, 0
1, 12480, Note_on_c, 0, 72, 79
1, 12480, Note_on_c, 0, 60, 58
1, 12493, Control_c, 0, 64, 0
1, 12540, Note_on_c, 0, 67, 72
1, 12552, Note_on_c, 0, 72, 0
1, 12600, Note_on_c, 0, 69, 76
1, 12612, Note_on_c, 0, 67, 0
1, 12660, Note_on_c, 0, 71, 73
1, 12672, Note_on_c, 0, 69, 0
1, 12720, Note_on_c, 0, 72, 79
1, 12732, Note_on_c, 0, 71, 0
1, 12780, Note_on_c, 0, 74, 75
1, 12792, Note_on_c, 0, 72, 0
1, 12840, Note_on_c, 0, 76, 80
1, 12852, Note_on_c, 0, 74, 0
1, 12900, Note_on_c, 0, 77, 74
1, 12912, Note_on_c, 0, 76, 0
1, 12960, Note_on_c, 0, 60, 0
1, 12960, Note_on_c, 0, 79, 78
1, 12972, Note_on_c, 0, 77, 0
1, 13020, Note_on_c, 0, 81, 74
1, 13032, Note_on_c, 0, 79, 0
1, 13080, Note_on_c, 0, 83, 79
1, 13092, Note_on_c, 0, 81, 0
1, 13140, Note_on_c, 0, 84, 72
1, 13152, Note_on_c, 0, 83, 0
1, 13200, Tempo, 899955
1, 13200, Note_on_c, 0, 84, 0
1, 13200, Note_on_c, 0, 79, 75
1, 13260, Note_on_c, 0, 79, 0
1, 13320, Note_on_c, 0, 79, 72
1, 13380, Note_on_c, 0, 79, 0
1, 13440, Note_on_c, 0, 64, 48
1, 13440, Note_on_c, 0, 55, 48
1, 13479, Control_c, 0, 64, 127
1, 13500, Note_on_c, 0, 79, 54
1, 13560, Note_on_c, 0, 79, 0
1, 13560, Note_on_c, 0, 81, 54
1, 13620, Note_on_c, 0, 81, 0
1, 13620, Note_on_c, 0, 79, 51
1, 13680, Note_on_c, 0, 79, 0
1, 13680, Note_on_c, 0, 55, 0
1, 13680, Note_on_c, 0, 64, 0
1, 13680, Note_on_c, 0, 55, 45
1, 13680, Note_on_c, 0, 62, 45
1, 13686, Control_c, 0, 64, 0
1, 13723, Control_c, 0, 64, 127
1, 13740, Note_on_c, 0, 77, 54
1, 13800, Note_on_c, 0, 77, 0
1, 13800, Note_on_c, 0, 79, 54
1, 13860, Note_on_c, 0, 79, 0
1, 13860, Note_on_c, 0, 77, 50
1, 13920, Note_on_c, 0, 77, 0
1, 13920, Note_on_c, 0, 62, 0
1, 13920, Note_on_c, 0, 55, 0
1, 13920, Note_on_c, 0, 60, 47
1, 13920, Note_on_c, 0, 55, 47
1, 13936, Control_c, 0, 64, 0
1, 13977, Control_c, 0, 64, 127
1, 13980, Note_on_c, 0, 76, 54
1, 14040, Note_on_c, 0, 76, 0
1, 14040, Note_on_c, 0, 77, 54
1, 14100, Note_on_c, 0, 77, 0
1, 14100, Note_on_c, 0, 76, 51
1, 14160, Note_on_c, 0, 76, 0
1, 14160, Note_on_c, 0, 55, 0
1, 14160, Note_on_c, 0, 60, 0
1, 14160, Note_on_c, 0, 59, 45
1, 14160, Note_on_c, 0, 55, 45
1, 14176, Control_c, 0, 64, 0
1, 14217, Control_c, 0, 64, 127
1, 14220, Note_on_c, 0, 74, 54
1, 14280, Note_on_c, 0, 74, 0
1, 14280, Note_on_c, 0, 76, 54
1, 14340, Note_on_c, 0, 76, 0
1, 14340, Note_on_c, 0, 74, 51
1, 14400, Tempo, 982962
1, 14400, Note_on_c, 0, 74, 0
1, 14400, Note_on_c, 0, 55, 0
1, 14400, Note_on_c, 0, 59, 0
1, 14400, Note_on_c, 0, 72, 81
1, 14400, Note_on_c, 0, 48, 58
1, 14406, Control_c, 0, 64, 0
1, 14460, Note_on_c, 0, 48, 0
1, 14520, Tempo, 866051
1, 14520, Note_on_c, 0, 60, 64
1, 14640, Note_on_c, 0, 60, 0
1, 14640, Note_on_c, 0, 59, 56
1, 14760, Note_on_c, 0, 59, 0
1, 14760, Note_on_c, 0, 72, 0
1, 14760, Note_on_c, 0, 74, 73
1, 14760, Note_on_c, 0, 58, 56
1, 14820, Note_on_c, 0, 74, 0
1, 14820, Note_on_c, 0, 76, 68
1, 14880, Tempo, 923930
1, 14880, Note_on_c, 0, 76, 0
1, 14880, Note_on_c, 0, 58, 0
1, 14880, Note_on_c, 0, 77, 82
1, 14880, Note_on_c, 0, 57, 59
1, 14940, Note_on_c, 0, 57, 0
1, 14940, Note_on_c, 0, 77, 0
1, 15000, Tempo, 866051
1, 15000, Note_on_c, 0, 77, 79
1, 15000, Note_on_c, 0, 57, 57
1, 15120, Note_on_c, 0, 57, 0
1, 15120, Note_on_c, 0, 55, 57
1, 15240, Note_on_c, 0, 55, 0
1, 15240, Note_on_c, 0, 77, 0
1, 15240, Note_on_c, 0, 79, 76
1, 15240, Note_on_c, 0, 53, 54
1, 15300, Note_on_c, 0, 79, 0
1, 15300, Note_on_c, 0, 81, 71
1, 15360, Note_on_c, 0, 81, 0
1, 15360, Note_on_c, 0, 53, 0
1, 15360, Note_on_c, 0, 79, 83
1, 15360, Note_on_c, 0, 52, 57
1, 15480, Tempo, 866051
1, 15480, Note_on_c, 0, 52, 0
1, 15480, Note_on_c, 0, 79, 0
1, 15480, Note_on_c, 0, 76, 78
1, 15600, Tempo, 899955
1, 15600, Note_on_c, 0, 76, 0
1, 15600, Note_on_c, 0, 84, 81
1, 15600, Note_on_c, 0, 48, 57
1, 15660, Note_on_c, 0, 84, 0
1, 15720, Note_on_c, 0, 48, 0
1, 15720, Note_on_c, 0, 84, 79
1, 15780, Note_on_c, 0, 84, 0
1, 15840, Tempo, 869565
1, 15840, Note_on_c, 0, 86, 78
1, 15900, Note_on_c, 0, 86, 0
1, 15900, Note_on_c, 0, 84, 71
1, 15960, Note_on_c, 0, 84, 0
1, 15960, Note_on_c, 0, 83, 74
1, 16020, Note_on_c, 0, 83, 0
1, 16020, Note_on_c, 0, 81, 68
1, 16077, Note_on_c, 0, 81, 0
1, 16080, Tempo, 917291
1, 16080, Note_on_c, 0, 81, 69
1, 16080, Note_on_c, 0, 48, 48
1, 16080, Note_on_c, 0, 60, 48
1, 16140, Note_on_c, 0, 81, 0
1, 16140, Note_on_c, 0, 79, 63
1, 16200, Tempo, 1045114
1, 16200, Note_on_c, 0, 79, 0
1, 16200, Note_on_c, 0, 77, 67
1, 16260, Note_on_c, 0, 77, 0
1, 16260, Note_on_c, 0, 76, 64
1, 16320, Tempo, 888362
1, 16320, Note_on_c, 0, 76, 0
1, 16320, Note_on_c, 0, 60, 0
1, 16320, Note_on_c, 0, 48, 0
1, 16320, Note_on_c, 0, 79, 68
1, 16320, Note_on_c, 0, 55, 48
1, 16320, Note_on_c, 0, 64, 48
1, 16348, Control_c, 0, 64, 127
1, 16680, Note_on_c, 0, 64, 0
1, 16680, Note_on_c, 0, 79, 0
1, 16680, Note_on_c, 0, 76, 67
1, 16680, Note_on_c, 0, 60, 54
1, 16800, Tempo, 928936
1, 16800, Note_on_c, 0, 60, 0
1, 16800, Note_on_c, 0, 76, 0
1, 16800, Note_on_c, 0, 55, 0
1, 16800, Note_on_c, 0, 74, 61
1, 16800, Note_on_c, 0, 59, 48
1, 16803, Control_c, 0, 64, 0
1, 16920, Tempo, 876937
1, 16920, Note_on_c, 0, 43, 65
1, 17040, Note_on_c, 0, 43, 0
1, 17040, Note_on_c, 0, 59, 0
1, 17040, Note_on_c, 0, 74, 0
1, 17040, Note_on_c, 0, 47, 72
1, 17160, Tempo, 977040
1, 17160, Note_on_c, 0, 47, 0
1, 17160, Note_on_c, 0, 50, 69
1, 17280, Tempo, 894188
1, 17280, Note_on_c, 0, 50, 0
1, 17280, Note_on_c, 0, 73, 60
1, 17280, Note_on_c, 0, 55, 45
1, 17289, Control_c, 0, 64, 127
1, 17400, Note_on_c, 0, 55, 0
1, 17400, Note_on_c, 0, 73, 0
1, 17400, Note_on_c, 0, 74, 56
1, 17400, Note_on_c, 0, 59, 43
1, 17520, Tempo, 866051
1, 17520, Note_on_c, 0, 59, 0
1, 17520, Note_on_c, 0, 74, 0
1, 17520, Note_on_c, 0, 72, 55
1, 17520, Note_on_c, 0, 62, 41
1, 17530, Control_c, 0, 64, 0
1, 17580, Note_on_c, 0, 72, 0
1, 17580, Note_on_c, 0, 71, 52
1, 17640, Note_on_c, 0, 71, 0
1, 17640, Note_on_c, 0, 62, 0
1, 17640, Note_on_c, 0, 69, 55
1, 17700, Note_on_c, 0, 69, 0
1, 17700, Note_on_c, 0, 67, 53
1, 17760, Tempo, 894188
1, 17760, Note_on_c, 0, 67, 0
1, 17760, Note_on_c, 0, 73, 61
1, 17760, Note_on_c, 0, 55, 45
1, 17797, Control_c, 0, 64, 127
1, 17880, Note_on_c, 0, 55, 0
1, 17880, Note_on_c, 0, 73, 0
1, 17880, Note_on_c, 0, 74, 59
1, 17880, Note_on_c, 0, 59, 43
1, 18000, Tempo, 866051
1, 18000, Note_on_c, 0, 59, 0
1, 18000, Note_on_c, 0, 74, 0
1, 18000, Note_on_c, 0, 72, 55
1, 18000, Note_on_c, 0, 62, 41
1, 18006, Control_c, 0, 64, 0
1, 18060, Note_on_c, 0, 72, 0
1, 18060, Note_on_c, 0, 71, 52
1, 18120, Tempo, 977040
1, 18120, Note_on_c, 0, 71, 0
1, 18120, Note_on_c, 0, 62, 0
1, 18120, Note_on_c, 0, 69, 55
1, 18180, Note_on_c, 0, 69, 0
1, 18180, Note_on_c, 0, 67, 53
1, 18240, Tempo, 905934
1, 18240, Note_on_c, 0, 67, 0
1, 18240, Note_on_c, 0, 75, 64
1, 18240, Note_on_c, 0, 55, 44
1, 18258, Control_c, 0, 64, 127
1, 18360, Note_on_c, 0, 55, 0
1, 18360, Note_on_c, 0, 75, 0
1, 18360, Note_on_c, 0, 76, 60
1, 18360, Note_on_c, 0, 60, 40
1, 18480, Note_on_c, 0, 60, 0
1, 18480, Note_on_c, 0, 76, 0
1, 18480, Note_on_c, 0, 76, 63
1, 18480, Note_on_c, 0, 64, 43
1, 18540, Note_on_c, 0, 76, 0
1, 18600, Note_on_c, 0, 64, 0
1, 18600, Note_on_c, 0, 76, 57
1, 18600, Note_on_c, 0, 60, 40
1, 18660, Note_on_c, 0, 76, 0
1, 18720, Tempo, 889284
1, 18720, Note_on_c, 0, 60, 0
1, 18720, Note_on_c, 0, 76, 63
1, 18720, Note_on_c, 0, 55, 44
1, 18733, Control_c, 0, 64, 0
1, 18766, Control_c, 0, 64, 127
1, 18840, Note_on_c, 0, 55, 0
1, 18840, Note_on_c, 0, 60, 40
1, 18960, Tempo, 853121
1, 18960, Note_on_c, 0, 60, 0
1, 18960, Note_on_c, 0, 76, 0
1, 18960, Note_on_c, 0, 64, 43
1, 19080, Note_on_c, 0, 64, 0
1, 19080, Note_on_c, 0, 60, 40
1, 19140, Note_on_c, 0, 69, 64
1, 19155, Control_c, 0, 64, 0
1, 19200, Tempo, 870827
1, 19200, Note_on_c, 0, 69, 0
1, 19200, Note_on_c, 0, 60, 0
1, 19200, Note_on_c, 0, 81, 82
1, 19200, Note_on_c, 0, 54, 57
1, 19208, Control_c, 0, 64, 127
1, 19320, Note_on_c, 0, 54, 0
1, 19320, Note_on_c, 0, 57, 54
1, 19440, Note_on_c, 0, 57, 0
1, 19440, Note_on_c, 0, 60, 49
1, 19560, Note_on_c, 0, 60, 0
1, 19560, Note_on_c, 0, 81, 0
1, 19560, Note_on_c, 0, 79, 72
1, 19600, Note_on_c, 0, 79, 0
1, 19600, Note_on_c, 0, 78, 69
1, 19640, Note_on_c, 0, 78, 0
1, 19640, Note_on_c, 0, 76, 66
1, 19680, Tempo, 955871
1, 19680, Note_on_c, 0, 76, 0
1, 19680, Note_on_c, 0, 74, 80
1, 19680, Note_on_c, 0, 54, 57
1, 19800, Tempo, 911854
1, 19800, Note_on_c, 0, 54, 0
1, 19800, Note_on_c, 0, 74, 0
1, 19800, Note_on_c, 0, 86, 75
1, 19800, Note_on_c, 0, 57, 54
1, 19810, Control_c, 0, 64, 0
1, 19860, Note_on_c, 0, 86, 0
1, 19920, Note_on_c, 0, 57, 0
1, 19920, Note_on_c, 0, 86, 78
1, 19920, Note_on_c, 0, 60, 51
1, 19980, Note_on_c, 0, 86, 0
1, 20040, Tempo, 961384
1, 20040, Note_on_c, 0, 60, 0
1, 20040, Note_on_c, 0, 86, 74
1, 20100, Note_on_c, 0, 86, 0
1, 20160, Tempo, 903478
1, 20160, Note_on_c, 0, 86, 85
1, 20160, Note_on_c, 0, 55, 57
1, 20217, Control_c, 0, 64, 127
1, 20280, Note_on_c, 0, 55, 0
1, 20280, Note_on_c, 0, 59, 51
1, 20400, Tempo, 961384
1, 20400, Note_on_c, 0, 59, 0
1, 20400, Note_on_c, 0, 62, 53
1, 20460, Note_on_c, 0, 62, 0
1, 20460, Note_on_c, 0, 86, 0
1, 20460, Note_on_c, 0, 83, 70
1, 20520, Note_on_c, 0, 83, 0
1, 20520, Note_on_c, 0, 86, 73
1, 20520, Note_on_c, 0, 62, 50
1, 20580, Note_on_c, 0, 62, 0
1, 20580, Note_on_c, 0, 86, 0
1, 20580, Note_on_c, 0, 83, 70
1, 20640, Tempo, 903478
1, 20640, Note_on_c, 0, 83, 0
1, 20640, Note_on_c, 0, 79, 72
1, 20640, Note_on_c, 0, 55, 57
1, 20659, Control_c, 0, 64, 0
1, 20760, Note_on_c, 0, 55, 0
1, 20760, Note_on_c, 0, 59, 39
1, 20880, Note_on_c, 0, 59, 0
1, 20880, Note_on_c, 0, 79, 0
1, 20880, Note_on_c, 0, 62, 42
1, 20940, Note_on_c, 0, 62, 0
1, 21000, Tempo, 988142
1, 21000, Note_on_c, 0, 62, 37
1, 21060, Note_on_c, 0, 62, 0
1, 21120, Tempo, 899281
1, 21120, Note_on_c, 0, 73, 60
1, 21120, Note_on_c, 0, 55, 44
1, 21149, Control_c, 0, 64, 127
1, 21240, Note_on_c, 0, 55, 0
1, 21240, Note_on_c, 0, 73, 0
1, 21240, Note_on_c, 0, 74, 58
1, 21240, Note_on_c, 0, 59, 41
1, 21360, Tempo, 866051
1, 21360, Note_on_c, 0, 59, 0
1, 21360, Note_on_c, 0, 74, 0
1, 21360, Note_on_c, 0, 72, 54
1, 21360, Note_on_c, 0, 62, 41
1, 21369, Control_c, 0, 64, 0
1, 21420, Note_on_c, 0, 72, 0
1, 21420, Note_on_c, 0, 71, 51
1, 21480, Note_on_c, 0, 71, 0
1, 21480, Note_on_c, 0, 62, 0
1, 21480, Note_on_c, 0, 69, 54
1, 21540, Note_on_c, 0, 69, 0
1, 21540, Note_on_c, 0, 67, 52
1, 21600, Tempo, 888362
1, 21600, Note_on_c, 0, 67, 0
1, 21600, Note_on_c, 0, 73, 54
1, 21600, Note_on_c, 0, 55, 44
1, 21617, Control_c, 0, 64, 127
1, 21660, Note_on_c, 0, 73, 0
1, 21660, Note_on_c, 0, 74, 53
1, 21720, Note_on_c, 0, 74, 0
1, 21720, Note_on_c, 0, 55, 0
1, 21720, Note_on_c, 0, 76, 55
1, 21720, Note_on_c, 0, 59, 41
1, 21780, Note_on_c, 0, 76, 0
1, 21780, Note_on_c, 0, 74, 57
1, 21840, Tempo, 866051
1, 21840, Note_on_c, 0, 74, 0
1, 21840, Note_on_c, 0, 59, 0
1, 21840, Note_on_c, 0, 72, 56
1, 21840, Note_on_c, 0, 62, 41
1, 21850, Control_c, 0, 64, 0
1, 21900, Note_on_c, 0, 72, 0
1, 21900, Note_on_c, 0, 71, 55
1, 21960, Tempo, 977040
1, 21960, Note_on_c, 0, 71, 0
1, 21960, Note_on_c, 0, 62, 0
1, 21960, Note_on_c, 0, 69, 54
1, 22020, Note_on_c, 0, 69, 0
1, 22020, Note_on_c, 0, 67, 54
1, 22080, Tempo, 915332
1, 22080, Note_on_c, 0, 67, 0
1, 22080, Note_on_c, 0, 75, 64
1, 22080, Note_on_c, 0, 55, 43
1, 22087, Control_c, 0, 64, 127
1, 22200, Note_on_c, 0, 55, 0
1, 22200, Note_on_c, 0, 75, 0
1, 22200, Note_on_c, 0, 76, 63
1, 22200, Note_on_c, 0, 60, 40
1, 22317, Note_on_c, 0, 76, 0
1, 22320, Tempo, 915332
1, 22320, Note_on_c, 0, 60, 0
1, 22320, Note_on_c, 0, 76, 63
1, 22320, Note_on_c, 0, 64, 40
1, 22380, Note_on_c, 0, 76, 0
1, 22440, Note_on_c, 0, 64, 0
1, 22440, Note_on_c, 0, 76, 60
1, 22440, Note_on_c, 0, 60, 40
1, 22500, Note_on_c, 0, 76, 0
1, 22560, Tempo, 908816
1, 22560, Note_on_c, 0, 60, 0
1, 22560, Note_on_c, 0, 76, 63
1, 22560, Note_on_c, 0, 55, 45
1, 22576, Control_c, 0, 64, 0
1, 22617, Control_c, 0, 64, 127
1, 22680, Note_on_c, 0, 55, 0
1, 22680, Note_on_c, 0, 60, 38
1, 22800, Tempo, 864803
1, 22800, Note_on_c, 0, 60, 0
1, 22800, Note_on_c, 0, 76, 0
1, 22800, Note_on_c, 0, 64, 42
1, 22920, Note_on_c, 0, 64, 0
1, 22920, Note_on_c, 0, 60, 40
1, 23040, Note_on_c, 0, 60, 0
1, 23040, Note_on_c, 0, 81, 77
1, 23040, Note_on_c, 0, 54, 52
1, 23040, Note_on_c, 0, 60, 52
1, 23040, Note_on_c, 0, 62, 62
1, 23040, Note_on_c, 0, 57, 52
1, 23049, Control_c, 0, 64, 0
1, 23100, Note_on_c, 0, 83, 71
1, 23112, Note_on_c, 0, 81, 0
1, 23160, Note_on_c, 0, 84, 77
1, 23172, Note_on_c, 0, 83, 0
1, 23220, Note_on_c, 0, 83, 72
1, 23232, Note_on_c, 0, 84, 0
1, 23280, Note_on_c, 0, 81, 78
1, 23292, Note_on_c, 0, 83, 0
1, 23340, Note_on_c, 0, 79, 74
1, 23352, Note_on_c, 0, 81, 0
1, 23400, Note_on_c, 0, 78, 78
1, 23412, Note_on_c, 0, 79, 0
1, 23460, Note_on_c, 0, 76, 73
1, 23472, Note_on_c, 0, 78, 0
1, 23520, Note_on_c, 0, 74, 73
1, 23532, Note_on_c, 0, 76, 0
1, 23580, Note_on_c, 0, 78, 75
1, 23592, Note_on_c, 0, 74, 0
1, 23640, Note_on_c, 0, 81, 77
1, 23652, Note_on_c, 0, 78, 0
1, 23700, Note_on_c, 0, 79, 72
1, 23712, Note_on_c, 0, 81, 0
1, 23760, Note_on_c, 0, 78, 75
1, 23772, Note_on_c, 0, 79, 0
1, 23820, Note_on_c, 0, 76, 72
1, 23832, Note_on_c, 0, 78, 0
1, 23880, Note_on_c, 0, 74, 74
1, 23892, Note_on_c, 0, 76, 0
1, 23940, Note_on_c, 0, 72, 67
1, 23952, Note_on_c, 0, 74, 0
1, 24000, Tempo, 905934
1, 24000, Note_on_c, 0, 57, 0
1, 24000, Note_on_c, 0, 62, 0
1, 24000, Note_on_c, 0, 54, 0
1, 24000, Note_on_c, 0, 60, 0
1, 24000, Note_on_c, 0, 71, 78
1, 24000, Note_on_c, 0, 55, 61
1, 24012, Note_on_c, 0, 72, 0
1, 24080, Note_on_c, 0, 55, 0
1, 24080, Note_on_c, 0, 59, 54
1, 24120, Note_on_c, 0, 71, 0
1, 24160, Note_on_c, 0, 59, 0
1, 24160, Note_on_c, 0, 67, 51
1, 24240, Note_on_c, 0, 67, 0
1, 24240, Note_on_c, 0, 72, 67
1, 24240, Note_on_c, 0, 57, 61
1, 24267, Control_c, 0, 64, 127
1, 24270, Note_on_c, 0, 72, 0
1, 24270, Note_on_c, 0, 74, 63
1, 24300, Note_on_c, 0, 74, 0
1, 24300, Note_on_c, 0, 72, 67
1, 24320, Note_on_c, 0, 57, 0
1, 24320, Note_on_c, 0, 60, 53
1, 24330, Note_on_c, 0, 72, 0
1, 24330, Note_on_c, 0, 74, 63
1, 24360, Note_on_c, 0, 74, 0
1, 24360, Note_on_c, 0, 72, 67
1, 24390, Note_on_c, 0, 72, 0
1, 24400, Note_on_c, 0, 60, 0
1, 24400, Note_on_c, 0, 71, 76
1, 24400, Note_on_c, 0, 67, 50
1, 24440, Note_on_c, 0, 71, 0
1, 24440, Note_on_c, 0, 72, 72
1, 24480, Tempo, 866051
1, 24480, Note_on_c, 0, 72, 0
1, 24480, Note_on_c, 0, 67, 0
1, 24480, Note_on_c, 0, 74, 81
1, 24480, Note_on_c, 0, 59, 61
1, 24501, Control_c, 0, 64, 0
1, 24540, Control_c, 0, 64, 127
1, 24560, Note_on_c, 0, 59, 0
1, 24560, Note_on_c, 0, 62, 57
1, 24600, Note_on_c, 0, 74, 0
1, 24640, Note_on_c, 0, 62, 0
1, 24640, Note_on_c, 0, 67, 49
1, 24720, Note_on_c, 0, 67, 0
1, 24720, Note_on_c, 0, 55, 61
1, 24800, Note_on_c, 0, 55, 0
1, 24800, Note_on_c, 0, 59, 48
1, 24880, Tempo, 989772
1, 24880, Note_on_c, 0, 59, 0
1, 24880, Note_on_c, 0, 76, 53
1, 24880, Note_on_c, 0, 67, 45
1, 24920, Tempo, 866051
1, 24920, Note_on_c, 0, 76, 0
1, 24920, Note_on_c, 0, 78, 53
1, 24960, Note_on_c, 0, 78, 0
1, 24960, Note_on_c, 0, 67, 0
1, 24960, Note_on_c, 0, 79, 61
1, 24960, Note_on_c, 0, 60, 43
1, 24964, Control_c, 0, 64, 0
1, 25006, Control_c, 0, 64, 127
1, 25040, Note_on_c, 0, 60, 0
1, 25040, Note_on_c, 0, 64, 40
1, 25120, Note_on_c, 0, 64, 0
1, 25120, Note_on_c, 0, 67, 37
1, 25200, Note_on_c, 0, 67, 0
1, 25200, Note_on_c, 0, 79, 0
1, 25200, Note_on_c, 0, 79, 56
1, 25200, Note_on_c, 0, 60, 43
1, 25280, Note_on_c, 0, 60, 0
1, 25280, Note_on_c, 0, 64, 40
1, 25360, Note_on_c, 0, 64, 0
1, 25360, Note_on_c, 0, 67, 38
1, 25380, Note_on_c, 0, 79, 0
1, 25380, Note_on_c, 0, 79, 54
1, 25440, Note_on_c, 0, 79, 0
1, 25440, Note_on_c, 0, 67, 0
1, 25440, Note_on_c, 0, 79, 56
1, 25440, Note_on_c, 0, 60, 43
1, 25520, Note_on_c, 0, 60, 0
1, 25520, Note_on_c, 0, 64, 40
1, 25600, Note_on_c, 0, 64, 0
1, 25600, Note_on_c, 0, 67, 38
1, 25680, Tempo, 866051
1, 25680, Note_on_c, 0, 67, 0
1, 25680, Note_on_c, 0, 79, 0
1, 25680, Note_on_c, 0, 78, 55
1, 25680, Note_on_c, 0, 60, 43
1, 25683, Control_c, 0, 64, 0
1, 25715, Control_c, 0, 64, 127
1, 25740, Note_on_c, 0, 78, 0
1, 25740, Note_on_c, 0, 76, 52
1, 25760, Note_on_c, 0, 60, 0
1, 25760, Note_on_c, 0, 64, 41
1, 25800, Note_on_c, 0, 76, 0
1, 25800, Note_on_c, 0, 74, 53
1, 25840, Note_on_c, 0, 64, 0
1, 25840, Note_on_c, 0, 67, 39
1, 25860, Note_on_c, 0, 74, 0
1, 25860, Note_on_c, 0, 72, 51
1, 25920, Tempo, 888362
1, 25920, Note_on_c, 0, 72, 0
1, 25920, Note_on_c, 0, 67, 0
1, 25920, Note_on_c, 0, 71, 77
1, 25920, Note_on_c, 0, 55, 57
1, 25920, Control_c, 0, 64, 0
1, 26000, Note_on_c, 0, 55, 0
1, 26000, Note_on_c, 0, 59, 50
1, 26040, Note_on_c, 0, 71, 0
1, 26080, Note_on_c, 0, 59, 0
1, 26080, Note_on_c, 0, 67, 50
1, 26152, Control_c, 0, 64, 127
1, 26160, Note_on_c, 0, 67, 0
1, 26160, Note_on_c, 0, 72, 67
1, 26160, Note_on_c, 0, 57, 57
1, 26190, Note_on_c, 0, 72, 0
1, 26190, Note_on_c, 0, 74, 63
1, 26220, Note_on_c, 0, 74, 0
1, 26220, Note_on_c, 0, 72, 67
1, 26240, Note_on_c, 0, 57, 0
1, 26240, Note_on_c, 0, 60, 51
1, 26250, Note_on_c, 0, 72, 0
1, 26250, Note_on_c, 0, 74, 63
1, 26280, Note_on_c, 0, 74, 0
1, 26280, Note_on_c, 0, 72, 67
1, 26310, Note_on_c, 0, 72, 0
1, 26320, Note_on_c, 0, 60, 0
1, 26320, Note_on_c, 0, 71, 76
1, 26320, Note_on_c, 0, 67, 48
1, 26360, Note_on_c, 0, 71, 0
1, 26360, Note_on_c, 0, 72, 72
1, 26400, Tempo, 866051
1, 26400, Note_on_c, 0, 72, 0
1, 26400, Note_on_c, 0, 67, 0
1, 26400, Note_on_c, 0, 74, 82
1, 26400, Note_on_c, 0, 59, 57
1, 26419, Control_c, 0, 64, 0
1, 26450, Control_c, 0, 64, 127
1, 26480, Note_on_c, 0, 59, 0
1, 26480, Note_on_c, 0, 62, 52
1, 26520, Note_on_c, 0, 74, 0
1, 26560, Note_on_c, 0, 62, 0
1, 26560, Note_on_c, 0, 67, 46
1, 26640, Note_on_c, 0, 67, 0
1, 26640, Note_on_c, 0, 55, 57
1, 26720, Note_on_c, 0, 55, 0
1, 26720, Note_on_c, 0, 59, 50
1, 26800, Tempo, 955871
1, 26800, Note_on_c, 0, 59, 0
1, 26800, Note_on_c, 0, 76, 53
1, 26800, Note_on_c, 0, 67, 47
1, 26840, Note_on_c, 0, 76, 0
1, 26840, Note_on_c, 0, 78, 51
1, 26880, Tempo, 866051
1, 26880, Note_on_c, 0, 78, 0
1, 26880, Note_on_c, 0, 67, 0
1, 26880, Note_on_c, 0, 79, 61
1, 26880, Note_on_c, 0, 60, 38
1, 26893, Control_c, 0, 64, 0
1, 26937, Control_c, 0, 64, 127
1, 26960, Note_on_c, 0, 60, 0
1, 26960, Note_on_c, 0, 64, 36
1, 27040, Note_on_c, 0, 64, 0
1, 27040, Note_on_c, 0, 67, 36
1, 27120, Note_on_c, 0, 67, 0
1, 27120, Note_on_c, 0, 79, 0
1, 27120, Note_on_c, 0, 79, 55
1, 27120, Note_on_c, 0, 60, 38
1, 27200, Note_on_c, 0, 60, 0
1, 27200, Note_on_c, 0, 64, 36
1, 27280, Note_on_c, 0, 64, 0
1, 27280, Note_on_c, 0, 67, 36
1, 27300, Note_on_c, 0, 79, 0
1, 27300, Note_on_c, 0, 79, 54
1, 27360, Note_on_c, 0, 79, 0
1, 27360, Note_on_c, 0, 67, 0
1, 27360, Note_on_c, 0, 79, 55
1, 27360, Note_on_c, 0, 60, 45
1, 27440, Note_on_c, 0, 60, 0
1, 27440, Note_on_c, 0, 64, 43
1, 27520, Note_on_c, 0, 64, 0
1, 27520, Note_on_c, 0, 67, 40
1, 27600, Note_on_c, 0, 67, 0
1, 27600, Note_on_c, 0, 79, 0
1, 27600, Note_on_c, 0, 78, 54
1, 27600, Note_on_c, 0, 60, 45
1, 27609, Control_c, 0, 64, 0
1, 27635, Control_c, 0, 64, 127
1, 27660, Note_on_c, 0, 78, 0
1, 27660, Note_on_c, 0, 76, 53
1, 27680, Note_on_c, 0, 60, 0
1, 27680, Note_on_c, 0, 64, 44
1, 27720, Note_on_c, 0, 76, 0
1, 27720, Note_on_c, 0, 74, 54
1, 27760, Note_on_c, 0, 64, 0
1, 27760, Note_on_c, 0, 67, 41
1, 27780, Note_on_c, 0, 74, 0
1, 27780, Note_on_c, 0, 72, 50
1, 27840, Tempo, 930233
1, 27840, Note_on_c, 0, 72, 0
1, 27840, Note_on_c, 0, 67, 0
1, 27840, Note_on_c, 0, 71, 79
1, 27840, Note_on_c, 0, 55, 61
1, 27845, Control_c, 0, 64, 0
1, 27900, Note_on_c, 0, 71, 0
1, 27960, Tempo, 866051
1, 27960, Note_on_c, 0, 55, 0
1, 27960, Note_on_c, 0, 79, 70
1, 28020, Note_on_c, 0, 81, 72
1, 28032, Note_on_c, 0, 79, 0
1, 28080, Note_on_c, 0, 83, 76
1, 28092, Note_on_c, 0, 81, 0
1, 28140, Note_on_c, 0, 81, 72
1, 28152, Note_on_c, 0, 83, 0
1, 28200, Note_on_c, 0, 79, 77
1, 28212, Note_on_c, 0, 81, 0
1, 28260, Note_on_c, 0, 78, 72
1, 28272, Note_on_c, 0, 79, 0
1, 28320, Tempo, 866051
1, 28320, Note_on_c, 0, 76, 77
1, 28320, Note_on_c, 0, 48, 61
1, 28332, Note_on_c, 0, 78, 0
1, 28380, Note_on_c, 0, 74, 72
1, 28392, Note_on_c, 0, 76, 0
1, 28400, Tempo, 871586
1, 28440, Note_on_c, 0, 48, 0
1, 28440, Note_on_c, 0, 72, 77
1, 28452, Note_on_c, 0, 74, 0
1, 28480, Tempo, 877193
1, 28500, Note_on_c, 0, 71, 72
1, 28512, Note_on_c, 0, 72, 0
1, 28560, Tempo, 882742
1, 28560, Note_on_c, 0, 69, 74
1, 28572, Note_on_c, 0, 71, 0
1, 28620, Note_on_c, 0, 67, 72
1, 28632, Note_on_c, 0, 69, 0
1, 28640, Tempo, 888362
1, 28680, Note_on_c, 0, 66, 75
1, 28692, Note_on_c, 0, 67, 0
1, 28720, Tempo, 894188
1, 28740, Note_on_c, 0, 64, 69
1, 28752, Note_on_c, 0, 66, 0
1, 28760, Tempo, 899955
1, 28800, Tempo, 982962
1, 28800, Note_on_c, 0, 62, 81
1, 28800, Note_on_c, 0, 50, 63
1, 28812, Note_on_c, 0, 64, 0
1, 28920, Note_on_c, 0, 50, 0
1, 28920, Note_on_c, 0, 62, 0
1, 29040, Tempo, 923930
1, 29040, Note_on_c, 0, 60, 89
1, 29040, Note_on_c, 0, 54, 53
1, 29040, Note_on_c, 0, 51, 53
1, 29040, Note_on_c, 0, 57, 63
1, 29125, Control_c, 0, 64, 127
1, 29520, Note_on_c, 0, 57, 0
1, 29520, Note_on_c, 0, 60, 0
1, 29520, Note_on_c, 0, 54, 0
1, 29520, Note_on_c, 0, 51, 0
1, 29520, Note_on_c, 0, 59, 72
1, 29520, Note_on_c, 0, 52, 40
1, 29520, Note_on_c, 0, 55, 48
1, 29528, Control_c, 0, 64, 0
1, 29760, Note_on_c, 0, 55, 0
1, 29760, Note_on_c, 0, 52, 0
1, 29760, Note_on_c, 0, 59, 0
1, 29760, Note_on_c, 0, 48, 36
1, 29760, Note_on_c, 0, 52, 43
1, 29880, Tempo, 866051
1, 29880, Note_on_c, 0, 57, 55
1, 29940, Note_on_c, 0, 57, 0
1, 30000, Note_on_c, 0, 52, 0
1, 30000, Note_on_c, 0, 48, 0
1, 30000, Note_on_c, 0, 60, 55
1, 30060, Note_on_c, 0, 60, 0
1, 30120, Note_on_c, 0, 64, 53
1, 30180, Note_on_c, 0, 64, 0
1, 30240, Note_on_c, 0, 68, 55
1, 30360, Note_on_c, 0, 68, 0
1, 30360, Note_on_c, 0, 69, 53
1, 30480, Tempo, 903478
1, 30480, Note_on_c, 0, 69, 0
1, 30480, Note_on_c, 0, 72, 55
1, 30600, Note_on_c, 0, 72, 0
1, 30600, Note_on_c, 0, 76, 54
1, 30720, Tempo, 930233
1, 30720, Note_on_c, 0, 76, 0
1, 30720, Note_on_c, 0, 76, 63
1, 30840, Note_on_c, 0, 76, 0
1, 30840, Note_on_c, 0, 67, 55
1, 30950, Note_on_c, 0, 67, 0
1, 30960, Note_on_c, 0, 67, 55
1, 30960, Note_on_c, 0, 50, 44
1, 30960, Note_on_c, 0, 59, 44
1, 30988, Control_c, 0, 64, 127
1, 31200, Tempo, 877193
1, 31200, Note_on_c, 0, 59, 0
1, 31200, Note_on_c, 0, 60, 44
1, 31218, Control_c, 0, 64, 0
1, 31299, Control_c, 0, 64, 127
1, 31440, Tempo, 899955
1, 31440, Note_on_c, 0, 67, 0
1, 31440, Note_on_c, 0, 71, 56
1, 31440, Note_on_c, 0, 66, 56
1, 31560, Note_on_c, 0, 71, 0
1, 31560, Note_on_c, 0, 69, 54
1, 31680, Tempo, 930233
1, 31680, Note_on_c, 0, 69, 0
1, 31680, Note_on_c, 0, 66, 0
1, 31680, Note_on_c, 0, 60, 0
1, 31680, Note_on_c, 0, 50, 0
1, 31680, Note_on_c, 0, 67, 54
1, 31680, Note_on_c, 0, 55, 46
1, 31680, Note_on_c, 0, 59, 46
1, 31684, Control_c, 0, 64, 0
1, 31800, Note_on_c, 0, 55, 0
1, 31920, Note_on_c, 0, 59, 0
1, 31920, Note_on_c, 0, 67, 0
1, 31920, Note_on_c, 0, 43, 44
1, 32040, Note_on_c, 0, 43, 0
1, 32160, Tempo, 866051
1, 32160, Note_on_c, 0, 74, 75
1, 32280, Note_on_c, 0, 74, 0
1, 32280, Note_on_c, 0, 71, 67
1, 32400, Note_on_c, 0, 71, 0
1, 32400, Note_on_c, 0, 79, 54
1, 32520, Tempo, 877193
1, 32520, Note_on_c, 0, 79, 0
1, 32520, Note_on_c, 0, 78, 53
1, 32580, Note_on_c, 0, 78, 0
1, 32640, Note_on_c, 0, 76, 51
1, 32700, Note_on_c, 0, 76, 0
1, 32760, Note_on_c, 0, 74, 49
1, 32820, Note_on_c, 0, 74, 0
1, 32880, Note_on_c, 0, 72, 48
1, 32940, Note_on_c, 0, 72, 0
1, 33000, Note_on_c, 0, 71, 50
1, 33060, Note_on_c, 0, 71, 0
1, 33120, Tempo, 888362
1, 33120, Note_on_c, 0, 69, 53
1, 33240, Note_on_c, 0, 69, 0
1, 33360, Note_on_c, 0, 71, 54
1, 33480, Note_on_c, 0, 71, 0
1, 33600, Tempo, 894188
1, 33600, Note_on_c, 0, 74, 58
1, 33720, Note_on_c, 0, 74, 0
1, 33720, Note_on_c, 0, 73, 54
1, 33840, Note_on_c, 0, 73, 0
1, 33840, Note_on_c, 0, 72, 51
1, 33840, Note_on_c, 0, 54, 40
1, 33840, Note_on_c, 0, 62, 40
1, 33960, Note_on_c, 0, 72, 0
1, 34080, Tempo, 866051
1, 34080, Note_on_c, 0, 54, 0
1, 34080, Note_on_c, 0, 71, 51
1, 34080, Note_on_c, 0, 55, 43
1, 34200, Note_on_c, 0, 71, 0
1, 34200, Note_on_c, 0, 72, 54
1, 34320, Note_on_c, 0, 72, 0
1, 34320, Note_on_c, 0, 55, 0
1, 34320, Note_on_c, 0, 62, 0
1, 34320, Note_on_c, 0, 74, 57
1, 34440, Note_on_c, 0, 74, 0
1, 34440, Note_on_c, 0, 75, 59
1, 34500, Note_on_c, 0, 75, 0
1, 34560, Tempo, 888362
1, 34560, Note_on_c, 0, 76, 49
1, 34560, Note_on_c, 0, 48, 43
1, 34560, Note_on_c, 0, 55, 43
1, 34593, Control_c, 0, 64, 127
1, 34596, Note_on_c, 0, 76, 0
1, 34596, Note_on_c, 0, 78, 51
1, 34632, Note_on_c, 0, 78, 0
1, 34632, Note_on_c, 0, 76, 54
1, 34668, Note_on_c, 0, 76, 0
1, 34668, Note_on_c, 0, 78, 56
1, 34704, Note_on_c, 0, 78, 0
1, 34704, Note_on_c, 0, 76, 58
1, 34740, Tempo, 866051
1, 34740, Note_on_c, 0, 76, 0
1, 34740, Note_on_c, 0, 78, 62
1, 34800, Note_on_c, 0, 78, 0
1, 34800, Note_on_c, 0, 79, 68
1, 34850, Control_c, 0, 64, 0
1, 34860, Note_on_c, 0, 79, 0
1, 34920, Note_on_c, 0, 78, 64
1, 34980, Note_on_c, 0, 78, 0
1, 35040, Tempo, 866051
1, 35040, Note_on_c, 0, 55, 0
1, 35040, Note_on_c, 0, 48, 0
1, 35040, Note_on_c, 0, 76, 63
1, 35100, Note_on_c, 0, 76, 0
1, 35160, Note_on_c, 0, 74, 59
1, 35200, Tempo, 871586
1, 35220, Note_on_c, 0, 74, 0
1, 35280, Note_on_c, 0, 72, 60
1, 35280, Note_on_c, 0, 52, 43
1, 35280, Note_on_c, 0, 49, 43
1, 35340, Note_on_c, 0, 72, 0
1, 35360, Tempo, 877193
1, 35400, Tempo, 936330
1, 35400, Note_on_c, 0, 71, 56
1, 35460, Note_on_c, 0, 71, 0
1, 35480, Tempo, 882742
1, 35520, Tempo, 899955
1, 35520, Note_on_c, 0, 49, 0
1, 35520, Note_on_c, 0, 52, 0
1, 35520, Note_on_c, 0, 74, 64
1, 35520, Note_on_c, 0, 50, 43
1, 35520, Note_on_c, 0, 55, 43
1, 35570, Control_c, 0, 64, 127
1, 35700, Note_on_c, 0, 74, 0
1, 35700, Note_on_c, 0, 71, 59
1, 35760, Tempo, 941620
1, 35760, Note_on_c, 0, 71, 0
1, 35760, Note_on_c, 0, 55, 0
1, 35760, Note_on_c, 0, 69, 55
1, 35760, Note_on_c, 0, 54, 41
1, 35769, Control_c, 0, 64, 0
1, 35880, Note_on_c, 0, 69, 0
1, 36000, Tempo, 866051
1, 36000, Note_on_c, 0, 54, 0
1, 36000, Note_on_c, 0, 50, 0
1, 36000, Note_on_c, 0, 74, 86
1, 36000, Note_on_c, 0, 62, 77
1, 36180, Note_on_c, 0, 62, 0
1, 36180, Note_on_c, 0, 74, 0
1, 36180, Note_on_c, 0, 76, 81
1, 36180, Note_on_c, 0, 64, 70
1, 36210, Note_on_c, 0, 64, 0
1, 36210, Note_on_c, 0, 76, 0
1, 36210, Note_on_c, 0, 78, 78
1, 36210, Note_on_c, 0, 66, 66
1, 36240, Note_on_c, 0, 66, 0
1, 36240, Note_on_c, 0, 78, 0
1, 36240, Note_on_c, 0, 79, 86
1, 36240, Note_on_c, 0, 67, 71
1, 36360, Note_on_c, 0, 67, 0
1, 36360, Note_on_c, 0, 79, 0
1, 36360, Note_on_c, 0, 78, 62
1, 36360, Note_on_c, 0, 66, 56
1, 36420, Note_on_c, 0, 66, 0
1, 36420, Note_on_c, 0, 78, 0
1, 36480, Note_on_c, 0, 76, 62
1, 36480, Note_on_c, 0, 64, 56
1, 36540, Note_on_c, 0, 64, 0
1, 36540, Note_on_c, 0, 76, 0
1, 36600, Note_on_c, 0, 74, 58
1, 36600, Note_on_c, 0, 62, 52
1, 36660, Note_on_c, 0, 62, 0
1, 36660, Note_on_c, 0, 74, 0
1, 36720, Note_on_c, 0, 72, 62
1, 36720, Note_on_c, 0, 60, 56
1, 36780, Note_on_c, 0, 60, 0
1, 36780, Note_on_c, 0, 72, 0
1, 36840, Note_on_c, 0, 71, 57
1, 36840, Note_on_c, 0, 59, 52
1, 36900, Note_on_c, 0, 59, 0
1, 36900, Note_on_c, 0, 71, 0
1, 36960, Tempo, 882742
1, 36960, Note_on_c, 0, 69, 63
1, 36960, Note_on_c, 0, 57, 57
1, 37080, Note_on_c, 0, 57, 0
1, 37080, Note_on_c, 0, 69, 0
1, 37200, Note_on_c, 0, 71, 70
1, 37200, Note_on_c, 0, 59, 62
1, 37320, Note_on_c, 0, 59, 0
1, 37320, Note_on_c, 0, 71, 0
1, 37400, Tempo, 882742
1, 37440, Tempo, 882742
1, 37440, Note_on_c, 0, 72, 72
1, 37440, Note_on_c, 0, 60, 67
1, 37560, Note_on_c, 0, 60, 0
1, 37560, Note_on_c, 0, 72, 0
1, 37640, Tempo, 888362
1, 37680, Note_on_c, 0, 73, 78
1, 37680, Note_on_c, 0, 61, 65
1, 37800, Note_on_c, 0, 61, 0
1, 37800, Note_on_c, 0, 73, 0
1, 37840, Tempo, 894188
1, 37920, Note_on_c, 0, 74, 83
1, 37920, Note_on_c, 0, 62, 70
1, 38040, Tempo, 899955
1, 38040, Note_on_c, 0, 62, 0
1, 38040, Note_on_c, 0, 74, 0
1, 38160, Note_on_c, 0, 75, 83
1, 38160, Note_on_c, 0, 63, 66
1, 38240, Tempo, 905934
1, 38280, Note_on_c, 0, 63, 0
1, 38280, Note_on_c, 0, 75, 0
1, 38400, Tempo, 911854
1, 38400, Note_on_c, 0, 76, 87
1, 38400, Note_on_c, 0, 64, 72
1, 38439, Control_c, 0, 64, 127
1, 38570, Note_on_c, 0, 64, 0
1, 38580, Tempo, 866051
1, 38580, Note_on_c, 0, 76, 0
1, 38580, Note_on_c, 0, 64, 82
1, 38640, Tempo, 871586
1, 38640, Note_on_c, 0, 64, 0
1, 38640, Note_on_c, 0, 72, 72
1, 38640, Note_on_c, 0, 48, 43
1, 38640, Note_on_c, 0, 57, 43
1, 38644, Control_c, 0, 64, 0
1, 38672, Control_c, 0, 64, 127
1, 38680, Tempo, 877193
1, 38740, Tempo, 882742
1, 38780, Tempo, 888362
1, 38820, Note_on_c, 0, 72, 0
1, 38820, Note_on_c, 0, 69, 72
1, 38840, Tempo, 894188
1, 38880, Tempo, 899955
1, 38880, Note_on_c, 0, 69, 0
1, 38880, Note_on_c, 0, 57, 0
1, 38880, Note_on_c, 0, 48, 0
1, 38880, Note_on_c, 0, 67, 69
1, 38880, Note_on_c, 0, 50, 43
1, 38880, Note_on_c, 0, 59, 43
1, 38890, Control_c, 0, 64, 0
1, 38923, Control_c, 0, 64, 127
1, 39090, Note_on_c, 0, 71, 57
1, 39120, Tempo, 866051
1, 39120, Note_on_c, 0, 71, 0
1, 39120, Note_on_c, 0, 59, 0
1, 39120, Note_on_c, 0, 67, 0
1, 39120, Note_on_c, 0, 69, 63
1, 39120, Note_on_c, 0, 66, 63
1, 39120, Note_on_c, 0, 60, 43
1, 39132, Control_c, 0, 64, 0
1, 39170, Control_c, 0, 64, 127
1, 39360, Note_on_c, 0, 60, 0
1, 39360, Note_on_c, 0, 50, 0
1, 39360, Note_on_c, 0, 69, 0
1, 39360, Note_on_c, 0, 66, 0
1, 39360, Note_on_c, 0, 67, 71
1, 39360, Note_on_c, 0, 55, 60
1, 39374, Control_c, 0, 64, 0
1, 39417, Control_c, 0, 64, 127
1, 39480, Note_on_c, 0, 55, 0
1, 39480, Note_on_c, 0, 59, 50
1, 39600, Note_on_c, 0, 59, 0
1, 39600, Note_on_c, 0, 67, 0
1, 39600, Note_on_c, 0, 62, 54
1, 39660, Note_on_c, 0, 79, 74
1, 39720, Note_on_c, 0, 79, 0
1, 39720, Note_on_c, 0, 62, 0
1, 39720, Note_on_c, 0, 81, 77
1, 39720, Note_on_c, 0, 59, 48
1, 39780, Note_on_c, 0, 81, 0
1, 39780, Note_on_c, 0, 79, 73
1, 39840, Note_on_c, 0, 79, 0
1, 39840, Note_on_c, 0, 59, 0
1, 39840, Note_on_c, 0, 76, 78
1, 39840, Note_on_c, 0, 55, 56
1, 39851, Control_c, 0, 64, 0
1, 39890, Control_c, 0, 64, 127
1, 39900, Note_on_c, 0, 76, 0
1, 39900, Note_on_c, 0, 79, 74
1, 39960, Note_on_c, 0, 79, 0
1, 39960, Note_on_c, 0, 55, 0
1, 39960, Note_on_c, 0, 81, 77
1, 39960, Note_on_c, 0, 60, 45
1, 40020, Note_on_c, 0, 81, 0
1, 40020, Note_on_c, 0, 79, 74
1, 40080, Note_on_c, 0, 79, 0
1, 40080, Note_on_c, 0, 60, 0
1, 40080, Note_on_c, 0, 84, 81
1, 40080, Note_on_c, 0, 64, 49
1, 40140, Note_on_c, 0, 84, 0
1, 40140, Note_on_c, 0, 79, 76
1, 40200, Note_on_c, 0, 79, 0
1, 40200, Note_on_c, 0, 64, 0
1, 40200, Note_on_c, 0, 76, 78
1, 40200, Note_on_c, 0, 60, 47
1, 40260, Note_on_c, 0, 76, 0
1, 40260, Note_on_c, 0, 72, 73
1, 40320, Tempo, 899955
1, 40320, Note_on_c, 0, 72, 0
1, 40320, Note_on_c, 0, 60, 0
1, 40320, Note_on_c, 0, 79, 83
1, 40320, Note_on_c, 0, 55, 56
1, 40326, Control_c, 0, 64, 0
1, 40380, Note_on_c, 0, 79, 0
1, 40440, Note_on_c, 0, 55, 0
1, 40440, Note_on_c, 0, 79, 81
1, 40440, Note_on_c, 0, 59, 50
1, 40500, Note_on_c, 0, 79, 0
1, 40560, Tempo, 866051
1, 40560, Note_on_c, 0, 59, 0
1, 40560, Note_on_c, 0, 62, 54
1, 40620, Note_on_c, 0, 79, 73
1, 40624, Control_c, 0, 64, 127
1, 40680, Note_on_c, 0, 79, 0
1, 40680, Note_on_c, 0, 62, 0
1, 40680, Note_on_c, 0, 81, 77
1, 40680, Note_on_c, 0, 59, 47
1, 40740, Note_on_c, 0, 81, 0
1, 40740, Note_on_c, 0, 79, 73
1, 40800, Note_on_c, 0, 79, 0
1, 40800, Note_on_c, 0, 59, 0
1, 40800, Note_on_c, 0, 76, 78
1, 40800, Note_on_c, 0, 55, 56
1, 40821, Control_c, 0, 64, 0
1, 40860, Note_on_c, 0, 76, 0
1, 40860, Note_on_c, 0, 79, 74
1, 40864, Control_c, 0, 64, 127
1, 40920, Note_on_c, 0, 79, 0
1, 40920, Note_on_c, 0, 55, 0
1, 40920, Note_on_c, 0, 81, 76
1, 40920, Note_on_c, 0, 60, 50
1, 40980, Note_on_c, 0, 81, 0
1, 40980, Note_on_c, 0, 79, 74
1, 41040, Note_on_c, 0, 79, 0
1, 41040, Note_on_c, 0, 60, 0
1, 41040, Note_on_c, 0, 84, 81
1, 41040, Note_on_c, 0, 64, 54
1, 41100, Note_on_c, 0, 84, 0
1, 41100, Note_on_c, 0, 79, 75
1, 41160, Note_on_c, 0, 79, 0
1, 41160, Note_on_c, 0, 64, 0
1, 41160, Note_on_c, 0, 76, 77
1, 41160, Note_on_c, 0, 60, 49
1, 41220, Note_on_c, 0, 76, 0
1, 41220, Note_on_c, 0, 72, 73
1, 41280, Tempo, 894188
1, 41280, Note_on_c, 0, 72, 0
1, 41280, Note_on_c, 0, 60, 0
1, 41280, Note_on_c, 0, 79, 84
1, 41280, Note_on_c, 0, 59, 56
1, 41280, Note_on_c, 0, 62, 56
1, 41280, Note_on_c, 0, 55, 56
1, 41283, Control_c, 0, 64, 0
1, 41340, Note_on_c, 0, 79, 0
1, 41400, Note_on_c, 0, 79, 82
1, 41460, Note_on_c, 0, 79, 0
1, 41520, Tempo, 866051
1, 41520, Note_on_c, 0, 55, 0
1, 41520, Note_on_c, 0, 62, 0
1, 41520, Note_on_c, 0, 59, 0
1, 41520, Note_on_c, 0, 72, 41
1, 41580, Note_on_c, 0, 74, 55
1, 41592, Control_c, 0, 64, 127
1, 41640, Note_on_c, 0, 74, 0
1, 41640, Note_on_c, 0, 78, 55
1, 41700, Note_on_c, 0, 78, 0
1, 41700, Note_on_c, 0, 74, 53
1, 41760, Tempo, 888362
1, 41760, Note_on_c, 0, 74, 0
1, 41760, Note_on_c, 0, 72, 0
1, 41760, Note_on_c, 0, 79, 59
1, 41760, Note_on_c, 0, 71, 44
1, 41769, Control_c, 0, 64, 0
1, 41820, Note_on_c, 0, 79, 0
1, 41880, Note_on_c, 0, 79, 59
1, 41940, Note_on_c, 0, 79, 0
1, 42000, Tempo, 866051
1, 42000, Note_on_c, 0, 71, 0
1, 42000, Note_on_c, 0, 72, 43
1, 42060, Note_on_c, 0, 74, 54
1, 42095, Control_c, 0, 64, 127
1, 42120, Note_on_c, 0, 74, 0
1, 42120, Note_on_c, 0, 78, 54
1, 42180, Note_on_c, 0, 78, 0
1, 42180, Note_on_c, 0, 74, 52
1, 42240, Tempo, 888362
1, 42240, Note_on_c, 0, 74, 0
1, 42240, Note_on_c, 0, 72, 0
1, 42240, Note_on_c, 0, 79, 59
1, 42240, Note_on_c, 0, 71, 45
1, 42246, Control_c, 0, 64, 0
1, 42300, Note_on_c, 0, 79, 0
1, 42360, Note_on_c, 0, 79, 59
1, 42420, Note_on_c, 0, 79, 0
1, 42480, Tempo, 866051
1, 42480, Note_on_c, 0, 71, 0
1, 42480, Note_on_c, 0, 66, 52
1, 42500, Control_c, 0, 64, 127
1, 42540, Note_on_c, 0, 66, 0
1, 42540, Note_on_c, 0, 74, 67
1, 42600, Note_on_c, 0, 74, 0
1, 42600, Note_on_c, 0, 81, 71
1, 42600, Note_on_c, 0, 66, 54
1, 42660, Note_on_c, 0, 66, 0
1, 42660, Note_on_c, 0, 81, 0
1, 42660, Note_on_c, 0, 74, 69
1, 42720, Tempo, 866051
1, 42720, Note_on_c, 0, 74, 0
1, 42720, Note_on_c, 0, 83, 75
1, 42720, Note_on_c, 0, 67, 57
1, 42729, Control_c, 0, 64, 0
1, 42766, Control_c, 0, 64, 127
1, 42780, Note_on_c, 0, 67, 0
1, 42780, Note_on_c, 0, 83, 0
1, 42780, Note_on_c, 0, 74, 73
1, 42800, Tempo, 871586
1, 42840, Note_on_c, 0, 74, 0
1, 42840, Note_on_c, 0, 83, 79
1, 42840, Note_on_c, 0, 67, 60
1, 42880, Tempo, 877193
1, 42900, Note_on_c, 0, 67, 0
1, 42900, Note_on_c, 0, 83, 0
1, 42900, Note_on_c, 0, 74, 76
1, 42960, Tempo, 882742
1, 42960, Note_on_c, 0, 74, 0
1, 42960, Note_on_c, 0, 84, 83
1, 42960, Note_on_c, 0, 69, 62
1, 42975, Control_c, 0, 64, 0
1, 43000, Tempo, 888362
1, 43006, Control_c, 0, 64, 127
1, 43020, Note_on_c, 0, 69, 0
1, 43020, Note_on_c, 0, 84, 0
1, 43020, Note_on_c, 0, 74, 81
1, 43080, Tempo, 894188
1, 43080, Note_on_c, 0, 74, 0
1, 43080, Note_on_c, 0, 84, 88
1, 43080, Note_on_c, 0, 69, 65
1, 43140, Note_on_c, 0, 69, 0
1, 43140, Note_on_c, 0, 84, 0
1, 43140, Note_on_c, 0, 74, 84
1, 43160, Tempo, 899955
1, 43200, Tempo, 905934
1, 43200, Note_on_c, 0, 74, 0
1, 43200, Note_on_c, 0, 86, 91
1, 43200, Note_on_c, 0, 71, 67
1, 43207, Control_c, 0, 64, 0
1, 43278, Control_c, 0, 64, 127
1, 43320, Note_on_c, 0, 86, 0
1, 43320, Note_on_c, 0, 83, 79
1, 43440, Note_on_c, 0, 83, 0
1, 43440, Note_on_c, 0, 71, 0
1, 43440, Note_on_c, 0, 79, 84
1, 43560, Note_on_c, 0, 79, 0
1, 43560, Note_on_c, 0, 83, 73
1, 43680, Note_on_c, 0, 83, 0
1, 43680, Note_on_c, 0, 74, 78
1, 43800, Note_on_c, 0, 74, 0
1, 43800, Note_on_c, 0, 79, 70
1, 43920, Note_on_c, 0, 79, 0
1, 43920, Note_on_c, 0, 71, 72
1, 44040, Note_on_c, 0, 71, 0
1, 44040, Note_on_c, 0, 74, 68
1, 44160, Tempo, 882742
1, 44160, Note_on_c, 0, 74, 0
1, 44160, Note_on_c, 0, 69, 60
1, 44160, Control_c, 0, 64, 0
1, 44280, Note_on_c, 0, 69, 0
1, 44280, Note_on_c, 0, 76, 63
1, 44400, Note_on_c, 0, 76, 0
1, 44400, Note_on_c, 0, 74, 63
1, 44400, Note_on_c, 0, 48, 44
1, 44400, Note_on_c, 0, 57, 44
1, 44400, Note_on_c, 0, 52, 44
1, 44412, Control_c, 0, 64, 127
1, 44460, Note_on_c, 0, 74, 0
1, 44460, Note_on_c, 0, 72, 60
1, 44520, Note_on_c, 0, 72, 0
1, 44520, Note_on_c, 0, 71, 63
1, 44580, Note_on_c, 0, 71, 0
1, 44580, Note_on_c, 0, 69, 60
1, 44640, Tempo, 905934
1, 44640, Note_on_c, 0, 69, 0
1, 44640, Note_on_c, 0, 52, 0
1, 44640, Note_on_c, 0, 57, 0
1, 44640, Note_on_c, 0, 48, 0
1, 44640, Note_on_c, 0, 67, 63
1, 44640, Note_on_c, 0, 50, 44
1, 44640, Note_on_c, 0, 55, 44
1, 44640, Note_on_c, 0, 59, 44
1, 44648, Control_c, 0, 64, 0
1, 44710, Control_c, 0, 64, 127
1, 44880, Note_on_c, 0, 59, 0
1, 44880, Note_on_c, 0, 55, 0
1, 44880, Note_on_c, 0, 67, 0
1, 44880, Note_on_c, 0, 66, 60
1, 44880, Note_on_c, 0, 60, 44
1, 44880, Note_on_c, 0, 57, 44
1, 44890, Control_c, 0, 64, 0
1, 44912, Note_on_c, 0, 66, 0
1, 44912, Note_on_c, 0, 67, 63
1, 44918, Control_c, 0, 64, 127
1, 44944, Note_on_c, 0, 67, 0
1, 44944, Note_on_c, 0, 66, 60
1, 44976, Note_on_c, 0, 66, 0
1, 44976, Note_on_c, 0, 67, 63
1, 45008, Note_on_c, 0, 67, 0
1, 45008, Note_on_c, 0, 66, 63
1, 45040, Note_on_c, 0, 66, 0
1, 45040, Note_on_c, 0, 64, 63
1, 45080, Note_on_c, 0, 64, 0
1, 45080, Note_on_c, 0, 66, 60
1, 45120, Tempo, 866051
1, 45120, Note_on_c, 0, 66, 0
1, 45120, Note_on_c, 0, 50, 0
1, 45120, Note_on_c, 0, 60, 0
1, 45120, Note_on_c, 0, 57, 0
1, 45120, Note_on_c, 0, 67, 77
1, 45120, Note_on_c, 0, 55, 51
1, 45135, Control_c, 0, 64, 0
1, 45240, Note_on_c, 0, 55, 0
1, 45240, Note_on_c, 0, 59, 46
1, 45360, Note_on_c, 0, 59, 0
1, 45360, Note_on_c, 0, 67, 0
1, 45360, Note_on_c, 0, 62, 54
1, 45385, Control_c, 0, 64, 127
1, 45420, Note_on_c, 0, 79, 74
1, 45480, Note_on_c, 0, 79, 0
1, 45480, Note_on_c, 0, 62, 0
1, 45480, Note_on_c, 0, 81, 77
1, 45480, Note_on_c, 0, 59, 49
1, 45540, Note_on_c, 0, 81, 0
1, 45540, Note_on_c, 0, 79, 75
1, 45600, Note_on_c, 0, 79, 0
1, 45600, Note_on_c, 0, 59, 0
1, 45600, Note_on_c, 0, 76, 81
1, 45600, Note_on_c, 0, 55, 54
1, 45618, Control_c, 0, 64, 0
1, 45653, Control_c, 0, 64, 127
1, 45660, Note_on_c, 0, 76, 0
1, 45660, Note_on_c, 0, 79, 75
1, 45720, Note_on_c, 0, 79, 0
1, 45720, Note_on_c, 0, 55, 0
1, 45720, Note_on_c, 0, 81, 79
1, 45720, Note_on_c, 0, 60, 50
1, 45780, Note_on_c, 0, 81, 0
1, 45780, Note_on_c, 0, 79, 75
1, 45840, Note_on_c, 0, 79, 0
1, 45840, Note_on_c, 0, 60, 0
1, 45840, Note_on_c, 0, 84, 81
1, 45840, Note_on_c, 0, 64, 54
1, 45900, Note_on_c, 0, 84, 0
1, 45900, Note_on_c, 0, 79, 78
1, 45960, Note_on_c, 0, 79, 0
1, 45960, Note_on_c, 0, 64, 0
1, 45960, Note_on_c, 0, 76, 79
1, 45960, Note_on_c, 0, 60, 50
1, 46020, Note_on_c, 0, 76, 0
1, 46020, Note_on_c, 0, 72, 75
1, 46080, Tempo, 894188
1, 46080, Note_on_c, 0, 72, 0
1, 46080, Note_on_c, 0, 60, 0
1, 46080, Note_on_c, 0, 79, 84
1, 46080, Note_on_c, 0, 55, 58
1, 46083, Control_c, 0, 64, 0
1, 46140, Note_on_c, 0, 79, 0
1, 46200, Note_on_c, 0, 55, 0
1, 46200, Note_on_c, 0, 79, 81
1, 46200, Note_on_c, 0, 59, 50
1, 46260, Note_on_c, 0, 79, 0
1, 46320, Tempo, 866051
1, 46320, Note_on_c, 0, 59, 0
1, 46320, Note_on_c, 0, 62, 54
1, 46359, Control_c, 0, 64, 127
1, 46380, Note_on_c, 0, 79, 75
1, 46440, Note_on_c, 0, 79, 0
1, 46440, Note_on_c, 0, 62, 0
1, 46440, Note_on_c, 0, 81, 77
1, 46440, Note_on_c, 0, 59, 54
1, 46500, Note_on_c, 0, 81, 0
1, 46500, Note_on_c, 0, 79, 73
1, 46560, Note_on_c, 0, 79, 0
1, 46560, Note_on_c, 0, 59, 0
1, 46560, Note_on_c, 0, 76, 81
1, 46560, Note_on_c, 0, 55, 54
1, 46574, Control_c, 0, 64, 0
1, 46617, Control_c, 0, 64, 127
1, 46620, Note_on_c, 0, 76, 0
1, 46620, Note_on_c, 0, 79, 75
1, 46680, Note_on_c, 0, 79, 0
1, 46680, Note_on_c, 0, 55, 0
1, 46680, Note_on_c, 0, 81, 78
1, 46680, Note_on_c, 0, 60, 50
1, 46740, Note_on_c, 0, 81, 0
1, 46740, Note_on_c, 0, 79, 77
1, 46800, Note_on_c, 0, 79, 0
1, 46800, Note_on_c, 0, 60, 0
1, 46800, Note_on_c, 0, 84, 81
1, 46800, Note_on_c, 0, 64, 54
1, 46860, Note_on_c, 0, 84, 0
1, 46860, Note_on_c, 0, 79, 76
1, 46920, Note_on_c, 0, 79, 0
1, 46920, Note_on_c, 0, 64, 0
1, 46920, Note_on_c, 0, 76, 78
1, 46920, Note_on_c, 0, 60, 50
1, 46980, Note_on_c, 0, 76, 0
1, 46980, Note_on_c, 0, 72, 75
1, 47040, Tempo, 888362
1, 47040, Note_on_c, 0, 72, 0
1, 47040, Note_on_c, 0, 60, 0
1, 47040, Note_on_c, 0, 79, 84
1, 47040, Note_on_c, 0, 59, 58
1, 47040, Note_on_c, 0, 62, 58
1, 47040, Note_on_c, 0, 55, 58
1, 47047, Control_c, 0, 64, 0
1, 47100, Note_on_c, 0, 79, 0
1, 47160, Note_on_c, 0, 79, 82
1, 47220, Note_on_c, 0, 79, 0
1, 47280, Tempo, 866051
1, 47280, Note_on_c, 0, 55, 0
1, 47280, Note_on_c, 0, 62, 0
1, 47280, Note_on_c, 0, 59, 0
1, 47280, Note_on_c, 0, 72, 43
1, 47312, Control_c, 0, 64, 127
1, 47340, Note_on_c, 0, 74, 54
1, 47400, Note_on_c, 0, 74, 0
1, 47400, Note_on_c, 0, 78, 54
1, 47460, Note_on_c, 0, 78, 0
1, 47460, Note_on_c, 0, 74, 50
1, 47520, Tempo, 888362
1, 47520, Note_on_c, 0, 74, 0
1, 47520, Note_on_c, 0, 72, 0
1, 47520, Note_on_c, 0, 79, 56
1, 47520, Note_on_c, 0, 71, 45
1, 47528, Control_c, 0, 64, 0
1, 47580, Note_on_c, 0, 79, 0
1, 47640, Note_on_c, 0, 79, 57
1, 47700, Note_on_c, 0, 79, 0
1, 47760, Tempo, 866051
1, 47760, Note_on_c, 0, 71, 0
1, 47760, Note_on_c, 0, 72, 43
1, 47820, Note_on_c, 0, 74, 54
1, 47820, Control_c, 0, 64, 127
1, 47880, Note_on_c, 0, 74, 0
1, 47880, Note_on_c, 0, 78, 54
1, 47940, Note_on_c, 0, 78, 0
1, 47940, Note_on_c, 0, 74, 50
1, 48000, Tempo, 894188
1, 48000, Note_on_c, 0, 74, 0
1, 48000, Note_on_c, 0, 72, 0
1, 48000, Note_on_c, 0, 79, 57
1, 48000, Note_on_c, 0, 71, 45
1, 48006, Control_c, 0, 64, 0
1, 48060, Note_on_c, 0, 79, 0
1, 48120, Note_on_c, 0, 79, 57
1, 48180, Note_on_c, 0, 79, 0
1, 48240, Tempo, 866051
1, 48240, Note_on_c, 0, 71, 0
1, 48240, Note_on_c, 0, 66, 48
1, 48269, Control_c, 0, 64, 127
1, 48300, Note_on_c, 0, 66, 0
1, 48300, Note_on_c, 0, 74, 67
1, 48360, Note_on_c, 0, 74, 0
1, 48360, Note_on_c, 0, 81, 71
1, 48360, Note_on_c, 0, 66, 51
1, 48420, Note_on_c, 0, 66, 0
1, 48420, Note_on_c, 0, 81, 0
1, 48420, Note_on_c, 0, 74, 66
1, 48440, Tempo, 866051
1, 48480, Tempo, 866051
1, 48480, Note_on_c, 0, 74, 0
1, 48480, Note_on_c, 0, 83, 75
1, 48480, Note_on_c, 0, 67, 54
1, 48497, Control_c, 0, 64, 0
1, 48529, Control_c, 0, 64, 127
1, 48540, Note_on_c, 0, 67, 0
1, 48540, Note_on_c, 0, 83, 0
1, 48540, Note_on_c, 0, 74, 73
1, 48560, Tempo, 871586
1, 48600, Note_on_c, 0, 74, 0
1, 48600, Note_on_c, 0, 83, 81
1, 48600, Note_on_c, 0, 67, 57
1, 48640, Tempo, 877193
1, 48660, Note_on_c, 0, 67, 0
1, 48660, Note_on_c, 0, 83, 0
1, 48660, Note_on_c, 0, 74, 77
1, 48720, Tempo, 882742
1, 48720, Note_on_c, 0, 74, 0
1, 48720, Note_on_c, 0, 84, 84
1, 48720, Note_on_c, 0, 69, 61
1, 48732, Control_c, 0, 64, 0
1, 48760, Tempo, 888362
1, 48769, Control_c, 0, 64, 127
1, 48780, Note_on_c, 0, 69, 0
1, 48780, Note_on_c, 0, 84, 0
1, 48780, Note_on_c, 0, 74, 82
1, 48840, Tempo, 894188
1, 48840, Note_on_c, 0, 74, 0
1, 48840, Note_on_c, 0, 84, 90
1, 48840, Note_on_c, 0, 69, 64
1, 48900, Note_on_c, 0, 69, 0
1, 48900, Note_on_c, 0, 84, 0
1, 48900, Note_on_c, 0, 74, 85
1, 48920, Tempo, 899955
1, 48960, Tempo, 894188
1, 48960, Note_on_c, 0, 74, 0
1, 48960, Note_on_c, 0, 86, 94
1, 48960, Note_on_c, 0, 71, 67
1, 48972, Control_c, 0, 64, 0
1, 49013, Control_c, 0, 64, 127
1, 49020, Note_on_c, 0, 86, 0
1, 49020, Note_on_c, 0, 83, 85
1, 49080, Note_on_c, 0, 83, 0
1, 49080, Note_on_c, 0, 86, 89
1, 49140, Note_on_c, 0, 86, 0
1, 49140, Note_on_c, 0, 83, 83
1, 49200, Note_on_c, 0, 83, 0
1, 49200, Note_on_c, 0, 71, 0
1, 49200, Note_on_c, 0, 79, 87
1, 49260, Note_on_c, 0, 79, 0
1, 49260, Note_on_c, 0, 83, 81
1, 49320, Note_on_c, 0, 83, 0
1, 49320, Note_on_c, 0, 79, 85
1, 49380, Note_on_c, 0, 79, 0
1, 49380, Note_on_c, 0, 83, 81
1, 49440, Note_on_c, 0, 83, 0
1, 49440, Note_on_c, 0, 74, 86
1, 49500, Note_on_c, 0, 74, 0
1, 49500, Note_on_c, 0, 79, 80
1, 49560, Note_on_c, 0, 79, 0
1, 49560, Note_on_c, 0, 74, 81
1, 49620, Note_on_c, 0, 74, 0
1, 49620, Note_on_c, 0, 79, 74
1, 49680, Note_on_c, 0, 79, 0
1, 49680, Note_on_c, 0, 71, 73
1, 49740, Note_on_c, 0, 71, 0
1, 49740, Note_on_c, 0, 74, 68
1, 49800, Note_on_c, 0, 74, 0
1, 49800, Note_on_c, 0, 71, 68
1, 49860, Note_on_c, 0, 71, 0
1, 49860, Note_on_c, 0, 74, 63
1, 49920, Tempo, 930233
1, 49920, Note_on_c, 0, 74, 0
1, 49920, Note_on_c, 0, 69, 54
1, 49929, Control_c, 0, 64, 0
1, 49980, Note_on_c, 0, 69, 0
1, 49980, Note_on_c, 0, 76, 51
1, 50040, Note_on_c, 0, 76, 0
1, 50040, Note_on_c, 0, 75, 54
1, 50100, Note_on_c, 0, 75, 0
1, 50100, Note_on_c, 0, 76, 52
1, 50160, Note_on_c, 0, 76, 0
1, 50160, Note_on_c, 0, 74, 54
1, 50160, Note_on_c, 0, 57, 44
1, 50160, Note_on_c, 0, 48, 44
1, 50160, Note_on_c, 0, 52, 44
1, 50220, Note_on_c, 0, 74, 0
1, 50220, Note_on_c, 0, 72, 51
1, 50280, Note_on_c, 0, 72, 0
1, 50280, Note_on_c, 0, 71, 54
1, 50340, Note_on_c, 0, 71, 0
1, 50340, Note_on_c, 0, 69, 52
1, 50400, Tempo, 905934
1, 50400, Note_on_c, 0, 69, 0
1, 50400, Note_on_c, 0, 52, 0
1, 50400, Note_on_c, 0, 48, 0
1, 50400, Note_on_c, 0, 57, 0
1, 50400, Note_on_c, 0, 67, 63
1, 50400, Note_on_c, 0, 50, 44
1, 50400, Note_on_c, 0, 59, 44
1, 50400, Note_on_c, 0, 55, 44
1, 50447, Control_c, 0, 64, 127
1, 50640, Note_on_c, 0, 55, 0
1, 50640, Note_on_c, 0, 59, 0
1, 50640, Note_on_c, 0, 67, 0
1, 50640, Note_on_c, 0, 66, 60
1, 50640, Note_on_c, 0, 57, 44
1, 50640, Note_on_c, 0, 60, 44
1, 50643, Control_c, 0, 64, 0
1, 50656, Control_c, 0, 64, 127
1, 50672, Note_on_c, 0, 66, 0
1, 50672, Note_on_c, 0, 67, 63
1, 50704, Note_on_c, 0, 67, 0
1, 50704, Note_on_c, 0, 66, 60
1, 50736, Note_on_c, 0, 66, 0
1, 50736, Note_on_c, 0, 67, 63
1, 50760, Tempo, 993213
1, 50768, Note_on_c, 0, 67, 0
1, 50768, Note_on_c, 0, 66, 63
1, 50800, Note_on_c, 0, 66, 0
1, 50800, Note_on_c, 0, 64, 63
1, 50840, Note_on_c, 0, 64, 0
1, 50840, Note_on_c, 0, 66, 60
1, 50880, Tempo, 903478
1, 50880, Note_on_c, 0, 66, 0
1, 50880, Note_on_c, 0, 50, 0
1, 50880, Note_on_c, 0, 57, 0
1, 50880, Note_on_c, 0, 60, 0
1, 50880, Note_on_c, 0, 67, 86
1, 50880, Note_on_c, 0, 55, 78
1, 50894, Control_c, 0, 64, 0
1, 50952, Control_c, 0, 64, 127
1, 51060, Note_on_c, 0, 55, 0
1, 51060, Note_on_c, 0, 67, 0
1, 51060, Note_on_c, 0, 62, 81
1, 51060, Note_on_c, 0, 50, 72
1, 51120, Note_on_c, 0, 50, 0
1, 51120, Note_on_c, 0, 62, 0
1, 51120, Note_on_c, 0, 71, 86
1, 51120, Note_on_c, 0, 59, 78
1, 51300, Note_on_c, 0, 59, 0
1, 51300, Note_on_c, 0, 71, 0
1, 51300, Note_on_c, 0, 67, 81
1, 51300, Note_on_c, 0, 55, 72
1, 51360, Tempo, 956633
1, 51360, Note_on_c, 0, 55, 0
1, 51360, Note_on_c, 0, 67, 0
1, 51360, Note_on_c, 0, 74, 87
1, 51360, Note_on_c, 0, 62, 77
1, 51457, Control_c, 0, 64, 0
1, 51480, Note_on_c, 0, 62, 0
1, 51480, Note_on_c, 0, 74, 0
1, 51600, Tempo, 866051
1, 51600, Note_on_c, 0, 81, 54
1, 51660, Note_on_c, 0, 79, 51
1, 51672, Note_on_c, 0, 81, 0
1, 51720, Note_on_c, 0, 78, 54
1, 51732, Note_on_c, 0, 79, 0
1, 51780, Note_on_c, 0, 76, 52
1, 51792, Note_on_c, 0, 78, 0
1, 51840, Tempo, 888362
1, 51840, Note_on_c, 0, 74, 57
1, 51840, Note_on_c, 0, 55, 41
1, 51840, Note_on_c, 0, 59, 41
1, 51840, Note_on_c, 0, 50, 41
1, 51852, Note_on_c, 0, 76, 0
1, 51960, Note_on_c, 0, 59, 0
1, 51960, Note_on_c, 0, 74, 0
1, 51960, Note_on_c, 0, 55, 0
1, 51960, Note_on_c, 0, 50, 0
1, 52080, Tempo, 866051
1, 52080, Note_on_c, 0, 76, 54
1, 52140, Note_on_c, 0, 74, 51
1, 52152, Note_on_c, 0, 76, 0
1, 52200, Note_on_c, 0, 72, 54
1, 52212, Note_on_c, 0, 74, 0
1, 52260, Note_on_c, 0, 71, 51
1, 52272, Note_on_c, 0, 72, 0
1, 52320, Tempo, 888362
1, 52320, Note_on_c, 0, 69, 57
1, 52320, Note_on_c, 0, 50, 41
1, 52320, Note_on_c, 0, 54, 41
1, 52320, Note_on_c, 0, 60, 41
1, 52332, Note_on_c, 0, 71, 0
1, 52440, Note_on_c, 0, 54, 0
1, 52440, Note_on_c, 0, 69, 0
1, 52440, Note_on_c, 0, 50, 0
1, 52440, Note_on_c, 0, 60, 0
1, 52560, Tempo, 866051
1, 52560, Note_on_c, 0, 74, 56
1, 52620, Note_on_c, 0, 72, 56
1, 52632, Note_on_c, 0, 74, 0
1, 52680, Note_on_c, 0, 71, 56
1, 52692, Note_on_c, 0, 72, 0
1, 52740, Note_on_c, 0, 69, 53
1, 52752, Note_on_c, 0, 71, 0
1, 52800, Tempo, 899955
1, 52800, Note_on_c, 0, 67, 84
1, 52800, Note_on_c, 0, 55, 72
1, 52812, Note_on_c, 0, 69, 0
1, 52835, Control_c, 0, 64, 127
1, 52860, Note_on_c, 0, 55, 0
1, 52860, Note_on_c, 0, 67, 0
1, 52860, Note_on_c, 0, 62, 80
1, 52860, Note_on_c, 0, 50, 67
1, 52920, Note_on_c, 0, 50, 0
1, 52920, Note_on_c, 0, 62, 0
1, 52920, Note_on_c, 0, 67, 84
1, 52920, Note_on_c, 0, 55, 72
1, 52980, Note_on_c, 0, 55, 0
1, 52980, Note_on_c, 0, 67, 0
1, 52980, Note_on_c, 0, 62, 80
1, 52980, Note_on_c, 0, 50, 67
1, 53040, Note_on_c, 0, 50, 0
1, 53040, Note_on_c, 0, 62, 0
1, 53040, Note_on_c, 0, 71, 84
1, 53040, Note_on_c, 0, 59, 72
1, 53100, Note_on_c, 0, 59, 0
1, 53100, Note_on_c, 0, 71, 0
1, 53100, Note_on_c, 0, 67, 80
1, 53100, Note_on_c, 0, 55, 67
1, 53160, Note_on_c, 0, 55, 0
1, 53160, Note_on_c, 0, 67, 0
1, 53160, Note_on_c, 0, 71, 84
1, 53160, Note_on_c, 0, 59, 72
1, 53220, Note_on_c, 0, 59, 0
1, 53220, Note_on_c, 0, 71, 0
1, 53220, Note_on_c, 0, 67, 80
1, 53220, Note_on_c, 0, 55, 66
1, 53280, Tempo, 972132
1, 53280, Note_on_c, 0, 55, 0
1, 53280, Note_on_c, 0, 67, 0
1, 53280, Note_on_c, 0, 74, 84
1, 53280, Note_on_c, 0, 62, 72
1, 53377, Control_c, 0, 64, 0
1, 53400, Note_on_c, 0, 62, 0
1, 53400, Note_on_c, 0, 74, 0
1, 53520, Tempo, 866051
1, 53520, Note_on_c, 0, 81, 55
1, 53580, Note_on_c, 0, 79, 52
1, 53592, Note_on_c, 0, 81, 0
1, 53640, Note_on_c, 0, 78, 55
1, 53652, Note_on_c, 0, 79, 0
1, 53700, Note_on_c, 0, 76, 52
1, 53712, Note_on_c, 0, 78, 0
1, 53760, Tempo, 905934
1, 53760, Note_on_c, 0, 74, 58
1, 53760, Note_on_c, 0, 59, 45
1, 53760, Note_on_c, 0, 50, 45
1, 53760, Note_on_c, 0, 55, 45
1, 53772, Note_on_c, 0, 76, 0
1, 53820, Note_on_c, 0, 74, 0
1, 53880, Note_on_c, 0, 50, 0
1, 53880, Note_on_c, 0, 59, 0
1, 53880, Note_on_c, 0, 55, 0
1, 53880, Note_on_c, 0, 74, 58
1, 53940, Note_on_c, 0, 74, 0
1, 54000, Tempo, 866051
1, 54000, Note_on_c, 0, 76, 54
1, 54060, Note_on_c, 0, 74, 51
1, 54072, Note_on_c, 0, 76, 0
1, 54120, Note_on_c, 0, 72, 54
1, 54132, Note_on_c, 0, 74, 0
1, 54180, Note_on_c, 0, 71, 50
1, 54192, Note_on_c, 0, 72, 0
1, 54240, Tempo, 882742
1, 54240, Note_on_c, 0, 69, 57
1, 54240, Note_on_c, 0, 54, 45
1, 54240, Note_on_c, 0, 60, 45
1, 54240, Note_on_c, 0, 50, 45
1, 54252, Note_on_c, 0, 71, 0
1, 54280, Tempo, 905934
1, 54300, Note_on_c, 0, 69, 0
1, 54360, Note_on_c, 0, 60, 0
1, 54360, Note_on_c, 0, 54, 0
1, 54360, Note_on_c, 0, 50, 0
1, 54360, Note_on_c, 0, 69, 57
1, 54420, Note_on_c, 0, 69, 0
1, 54480, Tempo, 866051
1, 54480, Note_on_c, 0, 74, 55
1, 54540, Note_on_c, 0, 72, 53
1, 54552, Note_on_c, 0, 74, 0
1, 54600, Note_on_c, 0, 71, 55
1, 54612, Note_on_c, 0, 72, 0
1, 54660, Note_on_c, 0, 69, 52
1, 54672, Note_on_c, 0, 71, 0
1, 54720, Tempo, 972132
1, 54720, Note_on_c, 0, 67, 58
1, 54720, Note_on_c, 0, 59, 46
1, 54720, Note_on_c, 0, 55, 46
1, 54732, Note_on_c, 0, 69, 0
1, 54960, Tempo, 1011293
1, 54960, Note_on_c, 0, 67, 0
1, 54960, Note_on_c, 0, 59, 0
1, 54960, Note_on_c, 0, 55, 0
1, 54960, Note_on_c, 0, 71, 54
1, 54960, Note_on_c, 0, 62, 54
1, 54960, Note_on_c, 0, 55, 46
1, 55080, Note_on_c, 0, 55, 0
1, 55080, Note_on_c, 0, 62, 0
1, 55080, Note_on_c, 0, 71, 0
1, 55200, Tempo, 972132
1, 55200, Note_on_c, 0, 67, 56
1, 55200, Note_on_c, 0, 59, 56
1, 55200, Note_on_c, 0, 43, 46
1, 55320, Note_on_c, 0, 43, 0
1, 55320, Note_on_c, 0, 59, 0
1, 55320, Note_on_c, 0, 67, 0
1, 55680, Tempo, 922084
1, 55680, Control_c, 0, 91, 127
1, 55680, Text_t, "bdca426d104a26ac9dcb070447587523"
1, 55680, Control_c, 0, 91, 127
1, 55681, Note_on_c, 0, 79, 79
1, 55681, Note_on_c, 0, 64, 50
1, 55698, Control_c, 0, 64, 127
1, 55720, Marker_t, "Wiederholung 1. Teil"
1, 55800, Note_on_c, 0, 64, 0
1, 55800, Note_on_c, 0, 79, 0
1, 55800, Note_on_c, 0, 60, 36
1, 55920, Tempo, 902120
1, 55920, Note_on_c, 0, 60, 0
1, 55920, Note_on_c, 0, 79, 71
1, 55920, Note_on_c, 0, 64, 43
1, 56040, Note_on_c, 0, 64, 0
1, 56040, Note_on_c, 0, 60, 38
1, 56160, Note_on_c, 0, 60, 0
1, 56160, Note_on_c, 0, 64, 51
1, 56280, Tempo, 866051
1, 56280, Note_on_c, 0, 64, 0
1, 56280, Note_on_c, 0, 79, 0
1, 56280, Note_on_c, 0, 77, 71
1, 56280, Note_on_c, 0, 60, 40
1, 56340, Note_on_c, 0, 77, 0
1, 56340, Note_on_c, 0, 76, 69
1, 56397, Note_on_c, 0, 76, 0
1, 56400, Note_on_c, 0, 60, 0
1, 56400, Note_on_c, 0, 76, 70
1, 56400, Note_on_c, 0, 64, 45
1, 56408, Control_c, 0, 64, 0
1, 56443, Control_c, 0, 64, 127
1, 56460, Note_on_c, 0, 76, 0
1, 56460, Note_on_c, 0, 74, 64
1, 56520, Note_on_c, 0, 74, 0
1, 56520, Note_on_c, 0, 64, 0
1, 56520, Note_on_c, 0, 72, 67
1, 56520, Note_on_c, 0, 60, 43
1, 56580, Note_on_c, 0, 72, 0
1, 56580, Note_on_c, 0, 71, 66
1, 56640, Tempo, 888362
1, 56640, Note_on_c, 0, 71, 0
1, 56640, Note_on_c, 0, 60, 0
1, 56640, Note_on_c, 0, 72, 47
1, 56640, Note_on_c, 0, 64, 51
1, 56653, Control_c, 0, 64, 0
1, 56675, Control_c, 0, 64, 127
1, 56680, Note_on_c, 0, 74, 49
1, 56685, Note_on_c, 0, 72, 0
1, 56720, Note_on_c, 0, 72, 55
1, 56725, Note_on_c, 0, 74, 0
1, 56760, Note_on_c, 0, 64, 0
1, 56760, Note_on_c, 0, 74, 52
1, 56760, Note_on_c, 0, 60, 45
1, 56765, Note_on_c, 0, 72, 0
1, 56800, Note_on_c, 0, 72, 57
1, 56805, Note_on_c, 0, 74, 0
1, 56840, Note_on_c, 0, 74, 51
1, 56845, Note_on_c, 0, 72, 0
1, 56880, Note_on_c, 0, 60, 0
1, 56880, Note_on_c, 0, 72, 59
1, 56880, Note_on_c, 0, 64, 51
1, 56885, Note_on_c, 0, 74, 0
1, 56920, Note_on_c, 0, 74, 56
1, 56925, Note_on_c, 0, 72, 0
1, 56960, Note_on_c, 0, 72, 63
1, 56965, Note_on_c, 0, 74, 0
1, 57000, Tempo, 866051
1, 57000, Note_on_c, 0, 64, 0
1, 57000, Note_on_c, 0, 74, 62
1, 57000, Note_on_c, 0, 60, 40
1, 57020, Note_on_c, 0, 72, 0
1, 57060, Note_on_c, 0, 74, 0
1, 57060, Note_on_c, 0, 76, 63
1, 57120, Tempo, 895790
1, 57120, Note_on_c, 0, 76, 0
1, 57120, Note_on_c, 0, 60, 0
1, 57120, Note_on_c, 0, 67, 69
1, 57120, Note_on_c, 0, 64, 42
1, 57133, Control_c, 0, 64, 0
1, 57177, Control_c, 0, 64, 127
1, 57240, Note_on_c, 0, 64, 0
1, 57240, Note_on_c, 0, 60, 28
1, 57360, Tempo, 876937
1, 57360, Note_on_c, 0, 60, 0
1, 57360, Note_on_c, 0, 67, 0
1, 57360, Note_on_c, 0, 64, 33
1, 57480, Note_on_c, 0, 64, 0
1, 57480, Note_on_c, 0, 60, 27
1, 57600, Tempo, 894188
1, 57600, Note_on_c, 0, 60, 0
1, 57600, Note_on_c, 0, 79, 77
1, 57600, Note_on_c, 0, 64, 51
1, 57621, Control_c, 0, 64, 0
1, 57648, Control_c, 0, 64, 127
1, 57660, Note_on_c, 0, 79, 0
1, 57720, Note_on_c, 0, 64, 0
1, 57720, Note_on_c, 0, 79, 73
1, 57720, Note_on_c, 0, 60, 36
1, 57780, Note_on_c, 0, 79, 0
1, 57840, Note_on_c, 0, 60, 0
1, 57840, Note_on_c, 0, 79, 69
1, 57840, Note_on_c, 0, 64, 43
1, 57960, Note_on_c, 0, 64, 0
1, 57960, Note_on_c, 0, 60, 36
1, 58080, Note_on_c, 0, 60, 0
1, 58080, Note_on_c, 0, 64, 43
1, 58200, Tempo, 866051
1, 58200, Note_on_c, 0, 64, 0
1, 58200, Note_on_c, 0, 79, 0
1, 58200, Note_on_c, 0, 77, 64
1, 58200, Note_on_c, 0, 60, 36
1, 58260, Note_on_c, 0, 77, 0
1, 58260, Note_on_c, 0, 76, 61
1, 58317, Note_on_c, 0, 76, 0
1, 58320, Note_on_c, 0, 60, 0
1, 58320, Note_on_c, 0, 76, 64
1, 58320, Note_on_c, 0, 65, 40
1, 58324, Control_c, 0, 64, 0
1, 58352, Control_c, 0, 64, 127
1, 58380, Note_on_c, 0, 76, 0
1, 58380, Note_on_c, 0, 74, 60
1, 58440, Note_on_c, 0, 74, 0
1, 58440, Note_on_c, 0, 65, 0
1, 58440, Note_on_c, 0, 72, 61
1, 58440, Note_on_c, 0, 60, 36
1, 58500, Note_on_c, 0, 72, 0
1, 58500, Note_on_c, 0, 71, 60
1, 58560, Tempo, 888362
1, 58560, Note_on_c, 0, 71, 0
1, 58560, Note_on_c, 0, 60, 0
1, 58560, Note_on_c, 0, 72, 47
1, 58560, Note_on_c, 0, 64, 38
1, 58564, Control_c, 0, 64, 0
1, 58600, Note_on_c, 0, 74, 49
1, 58604, Control_c, 0, 64, 127
1, 58605, Note_on_c, 0, 72, 0
1, 58640, Note_on_c, 0, 72, 55
1, 58645, Note_on_c, 0, 74, 0
1, 58680, Note_on_c, 0, 64, 0
1, 58680, Note_on_c, 0, 74, 52
1, 58680, Note_on_c, 0, 60, 34
1, 58685, Note_on_c, 0, 72, 0
1, 58720, Note_on_c, 0, 72, 57
1, 58725, Note_on_c, 0, 74, 0
1, 58760, Note_on_c, 0, 74, 51
1, 58765, Note_on_c, 0, 72, 0
1, 58800, Note_on_c, 0, 60, 0
1, 58800, Note_on_c, 0, 72, 59
1, 58800, Note_on_c, 0, 64, 39
1, 58805, Note_on_c, 0, 74, 0
1, 58840, Note_on_c, 0, 74, 56
1, 58845, Note_on_c, 0, 72, 0
1, 58880, Note_on_c, 0, 72, 63
1, 58885, Note_on_c, 0, 74, 0
1, 58920, Tempo, 866051
1, 58920, Note_on_c, 0, 64, 0
1, 58920, Note_on_c, 0, 74, 62
1, 58920, Note_on_c, 0, 60, 33
1, 58940, Note_on_c, 0, 72, 0
1, 58980, Note_on_c, 0, 74, 0
1, 58980, Note_on_c, 0, 76, 63
1, 59040, Tempo, 889284
1, 59040, Note_on_c, 0, 76, 0
1, 59040, Note_on_c, 0, 60, 0
1, 59040, Note_on_c, 0, 67, 62
1, 59040, Note_on_c, 0, 64, 34
1, 59059, Control_c, 0, 64, 0
1, 59100, Control_c, 0, 64, 127
1, 59160, Note_on_c, 0, 64, 0
1, 59160, Note_on_c, 0, 60, 27
1, 59280, Tempo, 870827
1, 59280, Note_on_c, 0, 60, 0
1, 59280, Note_on_c, 0, 67, 0
1, 59280, Note_on_c, 0, 64, 31
1, 59400, Note_on_c, 0, 64, 0
1, 59400, Note_on_c, 0, 60, 27
1, 59520, Tempo, 813890
1, 59520, Note_on_c, 0, 60, 0
1, 59520, Note_on_c, 0, 69, 54
1, 59520, Note_on_c, 0, 65, 34
1, 59535, Control_c, 0, 64, 0
1, 59580, Note_on_c, 0, 69, 0
1, 59640, Note_on_c, 0, 65, 0
1, 59640, Note_on_c, 0, 72, 53
1, 59640, Note_on_c, 0, 60, 29
1, 59700, Note_on_c, 0, 72, 0
1, 59760, Tempo, 813890
1, 59760, Note_on_c, 0, 60, 0
1, 59760, Note_on_c, 0, 77, 54
1, 59760, Note_on_c, 0, 65, 34
1, 59820, Note_on_c, 0, 77, 0
1, 59880, Tempo, 917291
1, 59880, Note_on_c, 0, 65, 0
1, 59880, Note_on_c, 0, 81, 52
1, 59880, Note_on_c, 0, 60, 30
1, 59940, Note_on_c, 0, 81, 0
1, 60000, Tempo, 864429
1, 60000, Note_on_c, 0, 60, 0
1, 60000, Note_on_c, 0, 84, 58
1, 60000, Note_on_c, 0, 65, 34
1, 60096, Control_c, 0, 64, 127
1, 60120, Note_on_c, 0, 65, 0
1, 60120, Note_on_c, 0, 84, 0
1, 60120, Note_on_c, 0, 60, 26
1, 60240, Tempo, 841633
1, 60240, Note_on_c, 0, 60, 0
1, 60240, Note_on_c, 0, 65, 31
1, 60260, Tempo, 864803
1, 60360, Note_on_c, 0, 65, 0
1, 60360, Note_on_c, 0, 60, 26
1, 60480, Tempo, 825083
1, 60480, Note_on_c, 0, 60, 0
1, 60480, Note_on_c, 0, 67, 56
1, 60480, Note_on_c, 0, 64, 36
1, 60490, Control_c, 0, 64, 0
1, 60540, Note_on_c, 0, 67, 0
1, 60600, Note_on_c, 0, 64, 0
1, 60600, Note_on_c, 0, 72, 54
1, 60600, Note_on_c, 0, 60, 32
1, 60660, Note_on_c, 0, 72, 0
1, 60720, Tempo, 814222
1, 60720, Note_on_c, 0, 60, 0
1, 60720, Note_on_c, 0, 76, 56
1, 60720, Note_on_c, 0, 64, 36
1, 60780, Note_on_c, 0, 76, 0
1, 60840, Tempo, 903478
1, 60840, Note_on_c, 0, 64, 0
1, 60840, Note_on_c, 0, 79, 53
1, 60840, Note_on_c, 0, 60, 30
1, 60900, Note_on_c, 0, 79, 0
1, 60960, Tempo, 864429
1, 60960, Note_on_c, 0, 60, 0
1, 60960, Note_on_c, 0, 84, 61
1, 60960, Note_on_c, 0, 64, 36
1, 61031, Control_c, 0, 64, 127
1, 61080, Note_on_c, 0, 64, 0
1, 61080, Note_on_c, 0, 84, 0
1, 61080, Note_on_c, 0, 60, 26
1, 61200, Note_on_c, 0, 60, 0
1, 61200, Note_on_c, 0, 64, 32
1, 61320, Note_on_c, 0, 64, 0
1, 61320, Note_on_c, 0, 60, 27
1, 61380, Note_on_c, 0, 67, 63
1, 61440, Note_on_c, 0, 67, 0
1, 61440, Note_on_c, 0, 60, 0
1, 61440, Note_on_c, 0, 79, 83
1, 61440, Note_on_c, 0, 60, 57
1, 61440, Note_on_c, 0, 64, 57
1, 61448, Control_c, 0, 64, 0
1, 61481, Control_c, 0, 64, 127
1, 61560, Note_on_c, 0, 60, 0
1, 61560, Note_on_c, 0, 55, 50
1, 61680, Note_on_c, 0, 55, 0
1, 61680, Note_on_c, 0, 64, 0
1, 61680, Note_on_c, 0, 60, 57
1, 61680, Note_on_c, 0, 64, 57
1, 61800, Note_on_c, 0, 60, 0
1, 61800, Note_on_c, 0, 55, 50
1, 61920, Note_on_c, 0, 55, 0
1, 61920, Note_on_c, 0, 64, 0
1, 61920, Note_on_c, 0, 62, 54
1, 61920, Note_on_c, 0, 59, 54
1, 61929, Control_c, 0, 64, 0
1, 61968, Control_c, 0, 64, 127
1, 62040, Note_on_c, 0, 59, 0
1, 62040, Note_on_c, 0, 55, 46
1, 62160, Note_on_c, 0, 55, 0
1, 62160, Note_on_c, 0, 62, 0
1, 62160, Note_on_c, 0, 79, 0
1, 62160, Note_on_c, 0, 77, 60
1, 62160, Note_on_c, 0, 62, 50
1, 62160, Note_on_c, 0, 59, 50
1, 62171, Control_c, 0, 64, 0
1, 62200, Note_on_c, 0, 77, 0
1, 62200, Note_on_c, 0, 79, 68
1, 62223, Control_c, 0, 64, 127
1, 62240, Note_on_c, 0, 79, 0
1, 62240, Note_on_c, 0, 77, 68
1, 62280, Note_on_c, 0, 77, 0
1, 62280, Note_on_c, 0, 59, 0
1, 62280, Note_on_c, 0, 76, 76
1, 62280, Note_on_c, 0, 55, 46
1, 62340, Note_on_c, 0, 76, 0
1, 62340, Note_on_c, 0, 77, 71
1, 62400, Tempo, 899955
1, 62400, Note_on_c, 0, 77, 0
1, 62400, Note_on_c, 0, 55, 0
1, 62400, Note_on_c, 0, 62, 0
1, 62400, Note_on_c, 0, 75, 78
1, 62400, Note_on_c, 0, 60, 48
1, 62400, Control_c, 0, 64, 0
1, 62499, Control_c, 0, 64, 127
1, 62520, Note_on_c, 0, 60, 0
1, 62520, Note_on_c, 0, 48, 43
1, 62640, Tempo, 866051
1, 62640, Note_on_c, 0, 48, 0
1, 62640, Note_on_c, 0, 75, 0
1, 62640, Note_on_c, 0, 76, 76
1, 62640, Note_on_c, 0, 52, 48
1, 62760, Note_on_c, 0, 52, 0
1, 62760, Note_on_c, 0, 55, 43
1, 62880, Note_on_c, 0, 55, 0
1, 62880, Note_on_c, 0, 76, 0
1, 62880, Note_on_c, 0, 60, 57
1, 62887, Control_c, 0, 64, 0
1, 62937, Control_c, 0, 64, 127
1, 63000, Note_on_c, 0, 60, 0
1, 63000, Note_on_c, 0, 64, 47
1, 63120, Tempo, 836004
1, 63120, Note_on_c, 0, 64, 0
1, 63120, Note_on_c, 0, 67, 52
1, 63240, Note_on_c, 0, 67, 0
1, 63240, Note_on_c, 0, 64, 46
1, 63360, Tempo, 847338
1, 63360, Note_on_c, 0, 64, 0
1, 63360, Note_on_c, 0, 69, 57
1, 63360, Note_on_c, 0, 65, 37
1, 63367, Control_c, 0, 64, 0
1, 63406, Control_c, 0, 64, 127
1, 63480, Note_on_c, 0, 65, 0
1, 63480, Note_on_c, 0, 69, 0
1, 63480, Note_on_c, 0, 72, 57
1, 63480, Note_on_c, 0, 60, 28
1, 63540, Note_on_c, 0, 72, 0
1, 63540, Note_on_c, 0, 69, 52
1, 63600, Tempo, 792393
1, 63600, Note_on_c, 0, 69, 0
1, 63600, Note_on_c, 0, 60, 0
1, 63600, Note_on_c, 0, 77, 57
1, 63600, Note_on_c, 0, 65, 37
1, 63660, Note_on_c, 0, 77, 0
1, 63660, Note_on_c, 0, 72, 51
1, 63720, Note_on_c, 0, 72, 0
1, 63720, Note_on_c, 0, 65, 0
1, 63720, Note_on_c, 0, 81, 55
1, 63720, Note_on_c, 0, 60, 29
1, 63780, Note_on_c, 0, 81, 0
1, 63780, Note_on_c, 0, 77, 50
1, 63840, Tempo, 889284
1, 63840, Note_on_c, 0, 77, 0
1, 63840, Note_on_c, 0, 60, 0
1, 63840, Note_on_c, 0, 84, 63
1, 63840, Note_on_c, 0, 65, 37
1, 63856, Control_c, 0, 64, 0
1, 63921, Control_c, 0, 64, 127
1, 63960, Note_on_c, 0, 65, 0
1, 63960, Note_on_c, 0, 84, 0
1, 63960, Note_on_c, 0, 60, 29
1, 64080, Tempo, 858861
1, 64080, Note_on_c, 0, 60, 0
1, 64080, Note_on_c, 0, 65, 33
1, 64200, Note_on_c, 0, 65, 0
1, 64200, Note_on_c, 0, 60, 29
1, 64320, Tempo, 847338
1, 64320, Note_on_c, 0, 60, 0
1, 64320, Note_on_c, 0, 67, 59
1, 64320, Note_on_c, 0, 64, 37
1, 64334, Control_c, 0, 64, 0
1, 64363, Control_c, 0, 64, 127
1, 64440, Note_on_c, 0, 64, 0
1, 64440, Note_on_c, 0, 67, 0
1, 64440, Note_on_c, 0, 72, 59
1, 64440, Note_on_c, 0, 60, 29
1, 64500, Note_on_c, 0, 72, 0
1, 64500, Note_on_c, 0, 67, 53
1, 64560, Tempo, 792393
1, 64560, Note_on_c, 0, 67, 0
1, 64560, Note_on_c, 0, 60, 0
1, 64560, Note_on_c, 0, 76, 59
1, 64560, Note_on_c, 0, 64, 37
1, 64620, Note_on_c, 0, 76, 0
1, 64620, Note_on_c, 0, 72, 52
1, 64680, Note_on_c, 0, 72, 0
1, 64680, Note_on_c, 0, 64, 0
1, 64680, Note_on_c, 0, 79, 57
1, 64680, Note_on_c, 0, 60, 28
1, 64740, Note_on_c, 0, 79, 0
1, 64740, Note_on_c, 0, 76, 50
1, 64800, Tempo, 883132
1, 64800, Note_on_c, 0, 76, 0
1, 64800, Note_on_c, 0, 60, 0
1, 64800, Note_on_c, 0, 84, 63
1, 64800, Note_on_c, 0, 64, 37
1, 64816, Control_c, 0, 64, 0
1, 64878, Control_c, 0, 64, 127
1, 64920, Note_on_c, 0, 64, 0
1, 64920, Note_on_c, 0, 84, 0
1, 64920, Note_on_c, 0, 60, 27
1, 65040, Tempo, 864803
1, 65040, Note_on_c, 0, 60, 0
1, 65040, Note_on_c, 0, 64, 32
1, 65160, Note_on_c, 0, 64, 0
1, 65160, Note_on_c, 0, 60, 29
1, 65280, Tempo, 853121
1, 65280, Note_on_c, 0, 60, 0
1, 65280, Note_on_c, 0, 81, 85
1, 65280, Note_on_c, 0, 64, 48
1, 65280, Note_on_c, 0, 60, 48
1, 65297, Control_c, 0, 64, 0
1, 65400, Note_on_c, 0, 60, 0
1, 65400, Note_on_c, 0, 81, 0
1, 65400, Note_on_c, 0, 79, 74
1, 65400, Note_on_c, 0, 55, 42
1, 65520, Note_on_c, 0, 55, 0
1, 65520, Note_on_c, 0, 79, 0
1, 65520, Note_on_c, 0, 64, 0
1, 65520, Note_on_c, 0, 77, 79
1, 65520, Note_on_c, 0, 64, 45
1, 65520, Note_on_c, 0, 60, 45
1, 65580, Note_on_c, 0, 77, 0
1, 65640, Note_on_c, 0, 60, 0
1, 65640, Note_on_c, 0, 76, 73
1, 65640, Note_on_c, 0, 55, 40
1, 65700, Note_on_c, 0, 76, 0
1, 65760, Note_on_c, 0, 55, 0
1, 65760, Note_on_c, 0, 64, 0
1, 65760, Note_on_c, 0, 76, 85
1, 65760, Note_on_c, 0, 62, 48
1, 65760, Note_on_c, 0, 65, 48
1, 65880, Note_on_c, 0, 62, 0
1, 65880, Note_on_c, 0, 76, 0
1, 65880, Note_on_c, 0, 74, 73
1, 65880, Note_on_c, 0, 55, 42
1, 66000, Note_on_c, 0, 55, 0
1, 66000, Note_on_c, 0, 74, 0
1, 66000, Note_on_c, 0, 65, 0
1, 66000, Note_on_c, 0, 72, 79
1, 66000, Note_on_c, 0, 65, 45
1, 66000, Note_on_c, 0, 62, 45
1, 66060, Note_on_c, 0, 72, 0
1, 66120, Note_on_c, 0, 62, 0
1, 66120, Note_on_c, 0, 71, 73
1, 66120, Note_on_c, 0, 55, 40
1, 66180, Note_on_c, 0, 71, 0
1, 66240, Tempo, 864803
1, 66240, Note_on_c, 0, 55, 0
1, 66240, Note_on_c, 0, 65, 0
1, 66240, Note_on_c, 0, 72, 82
1, 66240, Note_on_c, 0, 60, 56
1, 66240, Note_on_c, 0, 64, 56
1, 66300, Note_on_c, 0, 67, 69
1, 66312, Note_on_c, 0, 72, 0
1, 66360, Note_on_c, 0, 69, 70
1, 66372, Note_on_c, 0, 67, 0
1, 66420, Note_on_c, 0, 71, 68
1, 66432, Note_on_c, 0, 69, 0
1, 66480, Note_on_c, 0, 72, 73
1, 66492, Note_on_c, 0, 71, 0
1, 66540, Note_on_c, 0, 74, 72
1, 66552, Note_on_c, 0, 72, 0
1, 66600, Note_on_c, 0, 76, 76
1, 66612, Note_on_c, 0, 74, 0
1, 66660, Note_on_c, 0, 77, 74
1, 66672, Note_on_c, 0, 76, 0
1, 66720, Note_on_c, 0, 60, 0
1, 66720, Note_on_c, 0, 64, 0
1, 66720, Note_on_c, 0, 79, 77
1, 66732, Note_on_c, 0, 77, 0
1, 66780, Note_on_c, 0, 81, 72
1, 66792, Note_on_c, 0, 79, 0
1, 66840, Note_on_c, 0, 83, 77
1, 66852, Note_on_c, 0, 81, 0
1, 66900, Note_on_c, 0, 84, 71
1, 66912, Note_on_c, 0, 83, 0
1, 66960, Tempo, 899955
1, 66960, Note_on_c, 0, 84, 0
1, 66960, Note_on_c, 0, 79, 75
1, 67020, Note_on_c, 0, 79, 0
1, 67080, Note_on_c, 0, 79, 72
1, 67140, Note_on_c, 0, 79, 0
1, 67200, Note_on_c, 0, 55, 45
1, 67200, Note_on_c, 0, 64, 45
1, 67211, Control_c, 0, 64, 127
1, 67260, Note_on_c, 0, 79, 54
1, 67320, Note_on_c, 0, 79, 0
1, 67320, Note_on_c, 0, 81, 54
1, 67380, Note_on_c, 0, 81, 0
1, 67380, Note_on_c, 0, 79, 51
1, 67440, Note_on_c, 0, 79, 0
1, 67440, Note_on_c, 0, 64, 0
1, 67440, Note_on_c, 0, 55, 0
1, 67440, Note_on_c, 0, 55, 41
1, 67440, Note_on_c, 0, 62, 41
1, 67450, Control_c, 0, 64, 0
1, 67500, Note_on_c, 0, 77, 54
1, 67504, Control_c, 0, 64, 127
1, 67560, Note_on_c, 0, 77, 0
1, 67560, Note_on_c, 0, 79, 54
1, 67620, Note_on_c, 0, 79, 0
1, 67620, Note_on_c, 0, 77, 51
1, 67680, Note_on_c, 0, 77, 0
1, 67680, Note_on_c, 0, 62, 0
1, 67680, Note_on_c, 0, 55, 0
1, 67680, Note_on_c, 0, 60, 46
1, 67680, Note_on_c, 0, 55, 46
1, 67689, Control_c, 0, 64, 0
1, 67726, Control_c, 0, 64, 127
1, 67740, Note_on_c, 0, 76, 54
1, 67800, Note_on_c, 0, 76, 0
1, 67800, Note_on_c, 0, 77, 54
1, 67860, Note_on_c, 0, 77, 0
1, 67860, Note_on_c, 0, 76, 50
1, 67920, Note_on_c, 0, 76, 0
1, 67920, Note_on_c, 0, 55, 0
1, 67920, Note_on_c, 0, 60, 0
1, 67920, Note_on_c, 0, 59, 41
1, 67920, Note_on_c, 0, 55, 41
1, 67931, Control_c, 0, 64, 0
1, 67966, Control_c, 0, 64, 127
1, 67980, Note_on_c, 0, 74, 54
1, 68040, Note_on_c, 0, 74, 0
1, 68040, Note_on_c, 0, 76, 54
1, 68100, Note_on_c, 0, 76, 0
1, 68100, Note_on_c, 0, 74, 53
1, 68160, Tempo, 866051
1, 68160, Note_on_c, 0, 74, 0
1, 68160, Note_on_c, 0, 55, 0
1, 68160, Note_on_c, 0, 59, 0
1, 68160, Note_on_c, 0, 72, 79
1, 68160, Note_on_c, 0, 60, 58
1, 68173, Control_c, 0, 64, 0
1, 68220, Note_on_c, 0, 67, 72
1, 68232, Note_on_c, 0, 72, 0
1, 68280, Note_on_c, 0, 69, 76
1, 68292, Note_on_c, 0, 67, 0
1, 68340, Note_on_c, 0, 71, 73
1, 68352, Note_on_c, 0, 69, 0
1, 68400, Note_on_c, 0, 72, 79
1, 68412, Note_on_c, 0, 71, 0
1, 68460, Note_on_c, 0, 74, 75
1, 68472, Note_on_c, 0, 72, 0
1, 68520, Note_on_c, 0, 76, 80
1, 68532, Note_on_c, 0, 74, 0
1, 68580, Note_on_c, 0, 77, 74
1, 68592, Note_on_c, 0, 76, 0
1, 68640, Note_on_c, 0, 60, 0
1, 68640, Note_on_c, 0, 79, 78
1, 68652, Note_on_c, 0, 77, 0
1, 68700, Note_on_c, 0, 81, 74
1, 68712, Note_on_c, 0, 79, 0
1, 68760, Note_on_c, 0, 83, 79
1, 68772, Note_on_c, 0, 81, 0
1, 68820, Note_on_c, 0, 84, 72
1, 68832, Note_on_c, 0, 83, 0
1, 68880, Tempo, 899955
1, 68880, Note_on_c, 0, 84, 0
1, 68880, Note_on_c, 0, 79, 75
1, 68940, Note_on_c, 0, 79, 0
1, 69000, Tempo, 956633
1, 69000, Note_on_c, 0, 79, 72
1, 69060, Note_on_c, 0, 79, 0
1, 69120, Tempo, 899281
1, 69120, Note_on_c, 0, 64, 48
1, 69120, Note_on_c, 0, 55, 48
1, 69159, Control_c, 0, 64, 127
1, 69180, Note_on_c, 0, 79, 54
1, 69240, Note_on_c, 0, 79, 0
1, 69240, Note_on_c, 0, 81, 54
1, 69300, Note_on_c, 0, 81, 0
1, 69300, Note_on_c, 0, 79, 51
1, 69360, Note_on_c, 0, 79, 0
1, 69360, Note_on_c, 0, 55, 0
1, 69360, Note_on_c, 0, 64, 0
1, 69360, Note_on_c, 0, 55, 45
1, 69360, Note_on_c, 0, 62, 45
1, 69366, Control_c, 0, 64, 0
1, 69403, Control_c, 0, 64, 127
1, 69420, Note_on_c, 0, 77, 54
1, 69480, Note_on_c, 0, 77, 0
1, 69480, Note_on_c, 0, 79, 54
1, 69540, Note_on_c, 0, 79, 0
1, 69540, Note_on_c, 0, 77, 50
1, 69600, Note_on_c, 0, 77, 0
1, 69600, Note_on_c, 0, 62, 0
1, 69600, Note_on_c, 0, 55, 0
1, 69600, Note_on_c, 0, 60, 47
1, 69600, Note_on_c, 0, 55, 47
1, 69616, Control_c, 0, 64, 0
1, 69657, Control_c, 0, 64, 127
1, 69660, Note_on_c, 0, 76, 54
1, 69720, Note_on_c, 0, 76, 0
1, 69720, Note_on_c, 0, 77, 54
1, 69780, Note_on_c, 0, 77, 0
1, 69780, Note_on_c, 0, 76, 51
1, 69840, Note_on_c, 0, 76, 0
1, 69840, Note_on_c, 0, 55, 0
1, 69840, Note_on_c, 0, 60, 0
1, 69840, Note_on_c, 0, 59, 45
1, 69840, Note_on_c, 0, 55, 45
1, 69856, Control_c, 0, 64, 0
1, 69897, Control_c, 0, 64, 127
1, 69900, Note_on_c, 0, 74, 54
1, 69960, Note_on_c, 0, 74, 0
1, 69960, Note_on_c, 0, 76, 54
1, 70020, Note_on_c, 0, 76, 0
1, 70020, Note_on_c, 0, 74, 51
1, 70080, Tempo, 982962
1, 70080, Note_on_c, 0, 74, 0
1, 70080, Note_on_c, 0, 55, 0
1, 70080, Note_on_c, 0, 59, 0
1, 70080, Note_on_c, 0, 72, 81
1, 70080, Note_on_c, 0, 48, 58
1, 70086, Control_c, 0, 64, 0
1, 70140, Note_on_c, 0, 48, 0
1, 70200, Tempo, 866051
1, 70200, Note_on_c, 0, 60, 64
1, 70320, Note_on_c, 0, 60, 0
1, 70320, Note_on_c, 0, 59, 56
1, 70440, Note_on_c, 0, 59, 0
1, 70440, Note_on_c, 0, 72, 0
1, 70440, Note_on_c, 0, 74, 73
1, 70440, Note_on_c, 0, 58, 56
1, 70500, Note_on_c, 0, 74, 0
1, 70500, Note_on_c, 0, 76, 68
1, 70560, Tempo, 923930
1, 70560, Note_on_c, 0, 76, 0
1, 70560, Note_on_c, 0, 58, 0
1, 70560, Note_on_c, 0, 77, 82
1, 70560, Note_on_c, 0, 57, 59
1, 70620, Note_on_c, 0, 57, 0
1, 70620, Note_on_c, 0, 77, 0
1, 70680, Tempo, 866051
1, 70680, Note_on_c, 0, 77, 79
1, 70680, Note_on_c, 0, 57, 57
1, 70800, Note_on_c, 0, 57, 0
1, 70800, Note_on_c, 0, 55, 57
1, 70920, Note_on_c, 0, 55, 0
1, 70920, Note_on_c, 0, 77, 0
1, 70920, Note_on_c, 0, 79, 76
1, 70920, Note_on_c, 0, 53, 54
1, 70980, Note_on_c, 0, 79, 0
1, 70980, Note_on_c, 0, 81, 71
1, 71040, Note_on_c, 0, 81, 0
1, 71040, Note_on_c, 0, 53, 0
1, 71040, Note_on_c, 0, 79, 83
1, 71040, Note_on_c, 0, 52, 57
1, 71160, Tempo, 866051
1, 71160, Note_on_c, 0, 52, 0
1, 71160, Note_on_c, 0, 79, 0
1, 71160, Note_on_c, 0, 76, 78
1, 71280, Tempo, 899955
1, 71280, Note_on_c, 0, 76, 0
1, 71280, Note_on_c, 0, 84, 81
1, 71280, Note_on_c, 0, 48, 57
1, 71340, Note_on_c, 0, 84, 0
1, 71400, Note_on_c, 0, 48, 0
1, 71400, Note_on_c, 0, 84, 79
1, 71460, Note_on_c, 0, 84, 0
1, 71520, Tempo, 869565
1, 71520, Note_on_c, 0, 86, 78
1, 71580, Note_on_c, 0, 86, 0
1, 71580, Note_on_c, 0, 84, 71
1, 71640, Note_on_c, 0, 84, 0
1, 71640, Note_on_c, 0, 83, 74
1, 71700, Note_on_c, 0, 83, 0
1, 71700, Note_on_c, 0, 81, 68
1, 71757, Note_on_c, 0, 81, 0
1, 71760, Tempo, 917291
1, 71760, Note_on_c, 0, 81, 69
1, 71760, Note_on_c, 0, 48, 48
1, 71760, Note_on_c, 0, 60, 48
1, 71820, Note_on_c, 0, 81, 0
1, 71820, Note_on_c, 0, 79, 63
1, 71880, Tempo, 1096491
1, 71880, Note_on_c, 0, 79, 0
1, 71880, Note_on_c, 0, 77, 67
1, 71940, Note_on_c, 0, 77, 0
1, 71940, Note_on_c, 0, 76, 64
1, 72000, Tempo, 888362
1, 72000, Note_on_c, 0, 76, 0
1, 72000, Note_on_c, 0, 60, 0
1, 72000, Note_on_c, 0, 48, 0
1, 72000, Note_on_c, 0, 79, 68
1, 72000, Note_on_c, 0, 55, 48
1, 72000, Note_on_c, 0, 64, 48
1, 72028, Control_c, 0, 64, 127
1, 72360, Note_on_c, 0, 64, 0
1, 72360, Note_on_c, 0, 79, 0
1, 72360, Note_on_c, 0, 76, 67
1, 72360, Note_on_c, 0, 60, 54
1, 72480, Tempo, 928936
1, 72480, Note_on_c, 0, 60, 0
1, 72480, Note_on_c, 0, 76, 0
1, 72480, Note_on_c, 0, 55, 0
1, 72480, Note_on_c, 0, 74, 61
1, 72480, Note_on_c, 0, 59, 48
1, 72483, Control_c, 0, 64, 0
1, 72600, Tempo, 876937
1, 72600, Note_on_c, 0, 43, 65
1, 72720, Note_on_c, 0, 43, 0
1, 72720, Note_on_c, 0, 59, 0
1, 72720, Note_on_c, 0, 74, 0
1, 72720, Note_on_c, 0, 47, 72
1, 72840, Tempo, 977040
1, 72840, Note_on_c, 0, 47, 0
1, 72840, Note_on_c, 0, 50, 69
1, 72960, Tempo, 894188
1, 72960, Note_on_c, 0, 50, 0
1, 72960, Note_on_c, 0, 73, 60
1, 72960, Note_on_c, 0, 55, 45
1, 72969, Control_c, 0, 64, 127
1, 73080, Note_on_c, 0, 55, 0
1, 73080, Note_on_c, 0, 73, 0
1, 73080, Note_on_c, 0, 74, 56
1, 73080, Note_on_c, 0, 59, 43
1, 73200, Tempo, 866051
1, 73200, Note_on_c, 0, 59, 0
1, 73200, Note_on_c, 0, 74, 0
1, 73200, Note_on_c, 0, 72, 55
1, 73200, Note_on_c, 0, 62, 41
1, 73210, Control_c, 0, 64, 0
1, 73260, Note_on_c, 0, 72, 0
1, 73260, Note_on_c, 0, 71, 52
1, 73320, Note_on_c, 0, 71, 0
1, 73320, Note_on_c, 0, 62, 0
1, 73320, Note_on_c, 0, 69, 55
1, 73380, Note_on_c, 0, 69, 0
1, 73380, Note_on_c, 0, 67, 53
1, 73440, Tempo, 894188
1, 73440, Note_on_c, 0, 67, 0
1, 73440, Note_on_c, 0, 73, 61
1, 73440, Note_on_c, 0, 55, 45
1, 73477, Control_c, 0, 64, 127
1, 73560, Note_on_c, 0, 55, 0
1, 73560, Note_on_c, 0, 73, 0
1, 73560, Note_on_c, 0, 74, 59
1, 73560, Note_on_c, 0, 59, 43
1, 73680, Tempo, 866051
1, 73680, Note_on_c, 0, 59, 0
1, 73680, Note_on_c, 0, 74, 0
1, 73680, Note_on_c, 0, 72, 55
1, 73680, Note_on_c, 0, 62, 41
1, 73686, Control_c, 0, 64, 0
1, 73740, Note_on_c, 0, 72, 0
1, 73740, Note_on_c, 0, 71, 52
1, 73800, Tempo, 977040
1, 73800, Note_on_c, 0, 71, 0
1, 73800, Note_on_c, 0, 62, 0
1, 73800, Note_on_c, 0, 69, 55
1, 73860, Note_on_c, 0, 69, 0
1, 73860, Note_on_c, 0, 67, 53
1, 73920, Tempo, 927070
1, 73920, Note_on_c, 0, 67, 0
1, 73920, Note_on_c, 0, 75, 64
1, 73920, Note_on_c, 0, 55, 44
1, 73938, Control_c, 0, 64, 127
1, 74040, Tempo, 899281
1, 74040, Note_on_c, 0, 55, 0
1, 74040, Note_on_c, 0, 75, 0
1, 74040, Note_on_c, 0, 76, 60
1, 74040, Note_on_c, 0, 60, 40
1, 74160, Note_on_c, 0, 60, 0
1, 74160, Note_on_c, 0, 76, 0
1, 74160, Note_on_c, 0, 76, 63
1, 74160, Note_on_c, 0, 64, 43
1, 74220, Note_on_c, 0, 76, 0
1, 74280, Note_on_c, 0, 64, 0
1, 74280, Note_on_c, 0, 76, 57
1, 74280, Note_on_c, 0, 60, 40
1, 74340, Note_on_c, 0, 76, 0
1, 74400, Tempo, 889284
1, 74400, Note_on_c, 0, 60, 0
1, 74400, Note_on_c, 0, 76, 63
1, 74400, Note_on_c, 0, 55, 44
1, 74413, Control_c, 0, 64, 0
1, 74446, Control_c, 0, 64, 127
1, 74520, Note_on_c, 0, 55, 0
1, 74520, Note_on_c, 0, 60, 40
1, 74640, Tempo, 853121
1, 74640, Note_on_c, 0, 60, 0
1, 74640, Note_on_c, 0, 76, 0
1, 74640, Note_on_c, 0, 64, 43
1, 74760, Note_on_c, 0, 64, 0
1, 74760, Note_on_c, 0, 60, 40
1, 74820, Note_on_c, 0, 69, 64
1, 74835, Control_c, 0, 64, 0
1, 74880, Tempo, 870827
1, 74880, Note_on_c, 0, 69, 0
1, 74880, Note_on_c, 0, 60, 0
1, 74880, Note_on_c, 0, 81, 82
1, 74880, Note_on_c, 0, 54, 57
1, 74888, Control_c, 0, 64, 127
1, 75000, Note_on_c, 0, 54, 0
1, 75000, Note_on_c, 0, 57, 54
1, 75120, Note_on_c, 0, 57, 0
1, 75120, Note_on_c, 0, 60, 49
1, 75240, Note_on_c, 0, 60, 0
1, 75240, Note_on_c, 0, 81, 0
1, 75240, Note_on_c, 0, 79, 72
1, 75280, Note_on_c, 0, 79, 0
1, 75280, Note_on_c, 0, 78, 69
1, 75320, Note_on_c, 0, 78, 0
1, 75320, Note_on_c, 0, 76, 66
1, 75360, Tempo, 955871
1, 75360, Note_on_c, 0, 76, 0
1, 75360, Note_on_c, 0, 74, 80
1, 75360, Note_on_c, 0, 54, 57
1, 75480, Tempo, 911854
1, 75480, Note_on_c, 0, 54, 0
1, 75480, Note_on_c, 0, 74, 0
1, 75480, Note_on_c, 0, 86, 75
1, 75480, Note_on_c, 0, 57, 54
1, 75490, Control_c, 0, 64, 0
1, 75540, Note_on_c, 0, 86, 0
1, 75600, Note_on_c, 0, 57, 0
1, 75600, Note_on_c, 0, 86, 78
1, 75600, Note_on_c, 0, 60, 51
1, 75660, Note_on_c, 0, 86, 0
1, 75720, Tempo, 961384
1, 75720, Note_on_c, 0, 60, 0
1, 75720, Note_on_c, 0, 86, 74
1, 75780, Note_on_c, 0, 86, 0
1, 75840, Tempo, 903478
1, 75840, Note_on_c, 0, 86, 85
1, 75840, Note_on_c, 0, 55, 57
1, 75897, Control_c, 0, 64, 127
1, 75960, Note_on_c, 0, 55, 0
1, 75960, Note_on_c, 0, 59, 51
1, 76080, Tempo, 961384
1, 76080, Note_on_c, 0, 59, 0
1, 76080, Note_on_c, 0, 62, 53
1, 76140, Note_on_c, 0, 62, 0
1, 76140, Note_on_c, 0, 86, 0
1, 76140, Note_on_c, 0, 83, 70
1, 76200, Note_on_c, 0, 83, 0
1, 76200, Note_on_c, 0, 86, 73
1, 76200, Note_on_c, 0, 62, 50
1, 76260, Note_on_c, 0, 62, 0
1, 76260, Note_on_c, 0, 86, 0
1, 76260, Note_on_c, 0, 83, 70
1, 76320, Tempo, 903478
1, 76320, Note_on_c, 0, 83, 0
1, 76320, Note_on_c, 0, 79, 72
1, 76320, Note_on_c, 0, 55, 57
1, 76339, Control_c, 0, 64, 0
1, 76440, Note_on_c, 0, 55, 0
1, 76440, Note_on_c, 0, 59, 39
1, 76560, Note_on_c, 0, 59, 0
1, 76560, Note_on_c, 0, 79, 0
1, 76560, Note_on_c, 0, 62, 42
1, 76620, Note_on_c, 0, 62, 0
1, 76680, Tempo, 988142
1, 76680, Note_on_c, 0, 62, 37
1, 76740, Note_on_c, 0, 62, 0
1, 76800, Tempo, 899281
1, 76800, Note_on_c, 0, 73, 60
1, 76800, Note_on_c, 0, 55, 44
1, 76829, Control_c, 0, 64, 127
1, 76920, Note_on_c, 0, 55, 0
1, 76920, Note_on_c, 0, 73, 0
1, 76920, Note_on_c, 0, 74, 58
1, 76920, Note_on_c, 0, 59, 41
1, 77040, Tempo, 866051
1, 77040, Note_on_c, 0, 59, 0
1, 77040, Note_on_c, 0, 74, 0
1, 77040, Note_on_c, 0, 72, 54
1, 77040, Note_on_c, 0, 62, 41
1, 77049, Control_c, 0, 64, 0
1, 77100, Note_on_c, 0, 72, 0
1, 77100, Note_on_c, 0, 71, 51
1, 77160, Note_on_c, 0, 71, 0
1, 77160, Note_on_c, 0, 62, 0
1, 77160, Note_on_c, 0, 69, 54
1, 77220, Note_on_c, 0, 69, 0
1, 77220, Note_on_c, 0, 67, 52
1, 77280, Tempo, 888362
1, 77280, Note_on_c, 0, 67, 0
1, 77280, Note_on_c, 0, 73, 54
1, 77280, Note_on_c, 0, 55, 44
1, 77297, Control_c, 0, 64, 127
1, 77340, Note_on_c, 0, 73, 0
1, 77340, Note_on_c, 0, 74, 53
1, 77400, Note_on_c, 0, 74, 0
1, 77400, Note_on_c, 0, 55, 0
1, 77400, Note_on_c, 0, 76, 55
1, 77400, Note_on_c, 0, 59, 41
1, 77460, Note_on_c, 0, 76, 0
1, 77460, Note_on_c, 0, 74, 57
1, 77520, Tempo, 866051
1, 77520, Note_on_c, 0, 74, 0
1, 77520, Note_on_c, 0, 59, 0
1, 77520, Note_on_c, 0, 72, 56
1, 77520, Note_on_c, 0, 62, 41
1, 77530, Control_c, 0, 64, 0
1, 77580, Note_on_c, 0, 72, 0
1, 77580, Note_on_c, 0, 71, 55
1, 77640, Tempo, 977040
1, 77640, Note_on_c, 0, 71, 0
1, 77640, Note_on_c, 0, 62, 0
1, 77640, Note_on_c, 0, 69, 54
1, 77700, Note_on_c, 0, 69, 0
1, 77700, Note_on_c, 0, 67, 54
1, 77760, Tempo, 915332
1, 77760, Note_on_c, 0, 67, 0
1, 77760, Note_on_c, 0, 75, 64
1, 77760, Note_on_c, 0, 55, 43
1, 77767, Control_c, 0, 64, 127
1, 77880, Note_on_c, 0, 55, 0
1, 77880, Note_on_c, 0, 75, 0
1, 77880, Note_on_c, 0, 76, 63
1, 77880, Note_on_c, 0, 60, 40
1, 77997, Note_on_c, 0, 76, 0
1, 78000, Tempo, 915332
1, 78000, Note_on_c, 0, 60, 0
1, 78000, Note_on_c, 0, 76, 63
1, 78000, Note_on_c, 0, 64, 40
1, 78060, Note_on_c, 0, 76, 0
1, 78120, Note_on_c, 0, 64, 0
1, 78120, Note_on_c, 0, 76, 60
1, 78120, Note_on_c, 0, 60, 40
1, 78180, Note_on_c, 0, 76, 0
1, 78240, Tempo, 908816
1, 78240, Note_on_c, 0, 60, 0
1, 78240, Note_on_c, 0, 76, 63
1, 78240, Note_on_c, 0, 55, 45
1, 78256, Control_c, 0, 64, 0
1, 78297, Control_c, 0, 64, 127
1, 78360, Note_on_c, 0, 55, 0
1, 78360, Note_on_c, 0, 60, 38
1, 78480, Tempo, 864803
1, 78480, Note_on_c, 0, 60, 0
1, 78480, Note_on_c, 0, 76, 0
1, 78480, Note_on_c, 0, 64, 42
1, 78600, Note_on_c, 0, 64, 0
1, 78600, Note_on_c, 0, 60, 40
1, 78720, Note_on_c, 0, 60, 0
1, 78720, Note_on_c, 0, 81, 77
1, 78720, Note_on_c, 0, 54, 52
1, 78720, Note_on_c, 0, 60, 52
1, 78720, Note_on_c, 0, 62, 62
1, 78720, Note_on_c, 0, 57, 52
1, 78729, Control_c, 0, 64, 0
1, 78780, Note_on_c, 0, 83, 71
1, 78792, Note_on_c, 0, 81, 0
1, 78840, Note_on_c, 0, 84, 77
1, 78852, Note_on_c, 0, 83, 0
1, 78900, Note_on_c, 0, 83, 72
1, 78912, Note_on_c, 0, 84, 0
1, 78960, Note_on_c, 0, 81, 78
1, 78972, Note_on_c, 0, 83, 0
1, 79020, Note_on_c, 0, 79, 74
1, 79032, Note_on_c, 0, 81, 0
1, 79080, Note_on_c, 0, 78, 78
1, 79092, Note_on_c, 0, 79, 0
1, 79140, Note_on_c, 0, 76, 73
1, 79152, Note_on_c, 0, 78, 0
1, 79200, Note_on_c, 0, 74, 73
1, 79212, Note_on_c, 0, 76, 0
1, 79260, Note_on_c, 0, 78, 75
1, 79272, Note_on_c, 0, 74, 0
1, 79320, Note_on_c, 0, 81, 77
1, 79332, Note_on_c, 0, 78, 0
1, 79380, Note_on_c, 0, 79, 72
1, 79392, Note_on_c, 0, 81, 0
1, 79440, Note_on_c, 0, 78, 75
1, 79452, Note_on_c, 0, 79, 0
1, 79500, Note_on_c, 0, 76, 72
1, 79512, Note_on_c, 0, 78, 0
1, 79560, Note_on_c, 0, 74, 74
1, 79572, Note_on_c, 0, 76, 0
1, 79620, Note_on_c, 0, 72, 67
1, 79632, Note_on_c, 0, 74, 0
1, 79680, Tempo, 905934
1, 79680, Note_on_c, 0, 57, 0
1, 79680, Note_on_c, 0, 62, 0
1, 79680, Note_on_c, 0, 54, 0
1, 79680, Note_on_c, 0, 60, 0
1, 79680, Note_on_c, 0, 71, 78
1, 79680, Note_on_c, 0, 55, 61
1, 79692, Note_on_c, 0, 72, 0
1, 79760, Note_on_c, 0, 55, 0
1, 79760, Note_on_c, 0, 59, 54
1, 79800, Note_on_c, 0, 71, 0
1, 79840, Note_on_c, 0, 59, 0
1, 79840, Note_on_c, 0, 67, 51
1, 79920, Note_on_c, 0, 67, 0
1, 79920, Note_on_c, 0, 72, 67
1, 79920, Note_on_c, 0, 57, 61
1, 79947, Control_c, 0, 64, 127
1, 79950, Note_on_c, 0, 72, 0
1, 79950, Note_on_c, 0, 74, 63
1, 79980, Note_on_c, 0, 74, 0
1, 79980, Note_on_c, 0, 72, 67
1, 80000, Note_on_c, 0, 57, 0
1, 80000, Note_on_c, 0, 60, 53
1, 80010, Note_on_c, 0, 72, 0
1, 80010, Note_on_c, 0, 74, 63
1, 80040, Note_on_c, 0, 74, 0
1, 80040, Note_on_c, 0, 72, 67
1, 80070, Note_on_c, 0, 72, 0
1, 80080, Note_on_c, 0, 60, 0
1, 80080, Note_on_c, 0, 71, 76
1, 80080, Note_on_c, 0, 67, 50
1, 80120, Note_on_c, 0, 71, 0
1, 80120, Note_on_c, 0, 72, 72
1, 80160, Tempo, 866051
1, 80160, Note_on_c, 0, 72, 0
1, 80160, Note_on_c, 0, 67, 0
1, 80160, Note_on_c, 0, 74, 81
1, 80160, Note_on_c, 0, 59, 61
1, 80181, Control_c, 0, 64, 0
1, 80220, Control_c, 0, 64, 127
1, 80240, Note_on_c, 0, 59, 0
1, 80240, Note_on_c, 0, 62, 57
1, 80280, Note_on_c, 0, 74, 0
1, 80320, Note_on_c, 0, 62, 0
1, 80320, Note_on_c, 0, 67, 49
1, 80400, Note_on_c, 0, 67, 0
1, 80400, Note_on_c, 0, 55, 61
1, 80480, Note_on_c, 0, 55, 0
1, 80480, Note_on_c, 0, 59, 48
1, 80560, Tempo, 989772
1, 80560, Note_on_c, 0, 59, 0
1, 80560, Note_on_c, 0, 76, 53
1, 80560, Note_on_c, 0, 67, 45
1, 80600, Tempo, 866051
1, 80600, Note_on_c, 0, 76, 0
1, 80600, Note_on_c, 0, 78, 53
1, 80640, Note_on_c, 0, 78, 0
1, 80640, Note_on_c, 0, 67, 0
1, 80640, Note_on_c, 0, 79, 61
1, 80640, Note_on_c, 0, 60, 43
1, 80644, Control_c, 0, 64, 0
1, 80686, Control_c, 0, 64, 127
1, 80720, Note_on_c, 0, 60, 0
1, 80720, Note_on_c, 0, 64, 40
1, 80800, Note_on_c, 0, 64, 0
1, 80800, Note_on_c, 0, 67, 37
1, 80880, Note_on_c, 0, 67, 0
1, 80880, Note_on_c, 0, 79, 0
1, 80880, Note_on_c, 0, 79, 56
1, 80880, Note_on_c, 0, 60, 43
1, 80960, Note_on_c, 0, 60, 0
1, 80960, Note_on_c, 0, 64, 40
1, 81040, Note_on_c, 0, 64, 0
1, 81040, Note_on_c, 0, 67, 38
1, 81060, Note_on_c, 0, 79, 0
1, 81060, Note_on_c, 0, 79, 54
1, 81120, Note_on_c, 0, 79, 0
1, 81120, Note_on_c, 0, 67, 0
1, 81120, Note_on_c, 0, 79, 56
1, 81120, Note_on_c, 0, 60, 43
1, 81200, Note_on_c, 0, 60, 0
1, 81200, Note_on_c, 0, 64, 40
1, 81280, Note_on_c, 0, 64, 0
1, 81280, Note_on_c, 0, 67, 38
1, 81360, Tempo, 866051
1, 81360, Note_on_c, 0, 67, 0
1, 81360, Note_on_c, 0, 79, 0
1, 81360, Note_on_c, 0, 78, 55
1, 81360, Note_on_c, 0, 60, 43
1, 81363, Control_c, 0, 64, 0
1, 81395, Control_c, 0, 64, 127
1, 81420, Note_on_c, 0, 78, 0
1, 81420, Note_on_c, 0, 76, 52
1, 81440, Note_on_c, 0, 60, 0
1, 81440, Note_on_c, 0, 64, 41
1, 81480, Note_on_c, 0, 76, 0
1, 81480, Note_on_c, 0, 74, 53
1, 81520, Note_on_c, 0, 64, 0
1, 81520, Note_on_c, 0, 67, 39
1, 81540, Note_on_c, 0, 74, 0
1, 81540, Note_on_c, 0, 72, 51
1, 81600, Tempo, 888362
1, 81600, Note_on_c, 0, 72, 0
1, 81600, Note_on_c, 0, 67, 0
1, 81600, Note_on_c, 0, 71, 77
1, 81600, Note_on_c, 0, 55, 57
1, 81600, Control_c, 0, 64, 0
1, 81680, Note_on_c, 0, 55, 0
1, 81680, Note_on_c, 0, 59, 50
1, 81720, Note_on_c, 0, 71, 0
1, 81760, Note_on_c, 0, 59, 0
1, 81760, Note_on_c, 0, 67, 50
1, 81832, Control_c, 0, 64, 127
1, 81840, Note_on_c, 0, 67, 0
1, 81840, Note_on_c, 0, 72, 67
1, 81840, Note_on_c, 0, 57, 57
1, 81870, Note_on_c, 0, 72, 0
1, 81870, Note_on_c, 0, 74, 63
1, 81900, Note_on_c, 0, 74, 0
1, 81900, Note_on_c, 0, 72, 67
1, 81920, Note_on_c, 0, 57, 0
1, 81920, Note_on_c, 0, 60, 51
1, 81930, Note_on_c, 0, 72, 0
1, 81930, Note_on_c, 0, 74, 63
1, 81960, Note_on_c, 0, 74, 0
1, 81960, Note_on_c, 0, 72, 67
1, 81990, Note_on_c, 0, 72, 0
1, 82000, Note_on_c, 0, 60, 0
1, 82000, Note_on_c, 0, 71, 76
1, 82000, Note_on_c, 0, 67, 48
1, 82040, Note_on_c, 0, 71, 0
1, 82040, Note_on_c, 0, 72, 72
1, 82080, Tempo, 866051
1, 82080, Note_on_c, 0, 72, 0
1, 82080, Note_on_c, 0, 67, 0
1, 82080, Note_on_c, 0, 74, 82
1, 82080, Note_on_c, 0, 59, 57
1, 82099, Control_c, 0, 64, 0
1, 82130, Control_c, 0, 64, 127
1, 82160, Note_on_c, 0, 59, 0
1, 82160, Note_on_c, 0, 62, 52
1, 82200, Note_on_c, 0, 74, 0
1, 82240, Note_on_c, 0, 62, 0
1, 82240, Note_on_c, 0, 67, 46
1, 82320, Note_on_c, 0, 67, 0
1, 82320, Note_on_c, 0, 55, 57
1, 82400, Note_on_c, 0, 55, 0
1, 82400, Note_on_c, 0, 59, 50
1, 82480, Tempo, 955871
1, 82480, Note_on_c, 0, 59, 0
1, 82480, Note_on_c, 0, 76, 53
1, 82480, Note_on_c, 0, 67, 47
1, 82520, Note_on_c, 0, 76, 0
1, 82520, Note_on_c, 0, 78, 51
1, 82560, Tempo, 866051
1, 82560, Note_on_c, 0, 78, 0
1, 82560, Note_on_c, 0, 67, 0
1, 82560, Note_on_c, 0, 79, 61
1, 82560, Note_on_c, 0, 60, 38
1, 82573, Control_c, 0, 64, 0
1, 82617, Control_c, 0, 64, 127
1, 82640, Note_on_c, 0, 60, 0
1, 82640, Note_on_c, 0, 64, 36
1, 82720, Note_on_c, 0, 64, 0
1, 82720, Note_on_c, 0, 67, 36
1, 82800, Note_on_c, 0, 67, 0
1, 82800, Note_on_c, 0, 79, 0
1, 82800, Note_on_c, 0, 79, 55
1, 82800, Note_on_c, 0, 60, 38
1, 82880, Note_on_c, 0, 60, 0
1, 82880, Note_on_c, 0, 64, 36
1, 82960, Note_on_c, 0, 64, 0
1, 82960, Note_on_c, 0, 67, 36
1, 82980, Note_on_c, 0, 79, 0
1, 82980, Note_on_c, 0, 79, 54
1, 83040, Note_on_c, 0, 79, 0
1, 83040, Note_on_c, 0, 67, 0
1, 83040, Note_on_c, 0, 79, 55
1, 83040, Note_on_c, 0, 60, 45
1, 83120, Note_on_c, 0, 60, 0
1, 83120, Note_on_c, 0, 64, 43
1, 83200, Note_on_c, 0, 64, 0
1, 83200, Note_on_c, 0, 67, 40
1, 83280, Note_on_c, 0, 67, 0
1, 83280, Note_on_c, 0, 79, 0
1, 83280, Note_on_c, 0, 78, 54
1, 83280, Note_on_c, 0, 60, 45
1, 83289, Control_c, 0, 64, 0
1, 83315, Control_c, 0, 64, 127
1, 83340, Note_on_c, 0, 78, 0
1, 83340, Note_on_c, 0, 76, 53
1, 83360, Note_on_c, 0, 60, 0
1, 83360, Note_on_c, 0, 64, 44
1, 83400, Note_on_c, 0, 76, 0
1, 83400, Note_on_c, 0, 74, 54
1, 83440, Note_on_c, 0, 64, 0
1, 83440, Note_on_c, 0, 67, 41
1, 83460, Note_on_c, 0, 74, 0
1, 83460, Note_on_c, 0, 72, 50
1, 83520, Tempo, 930233
1, 83520, Note_on_c, 0, 72, 0
1, 83520, Note_on_c, 0, 67, 0
1, 83520, Note_on_c, 0, 71, 79
1, 83520, Note_on_c, 0, 55, 61
1, 83525, Control_c, 0, 64, 0
1, 83580, Note_on_c, 0, 71, 0
1, 83640, Tempo, 866051
1, 83640, Note_on_c, 0, 55, 0
1, 83640, Note_on_c, 0, 79, 70
1, 83700, Note_on_c, 0, 81, 72
1, 83712, Note_on_c, 0, 79, 0
1, 83760, Note_on_c, 0, 83, 76
1, 83772, Note_on_c, 0, 81, 0
1, 83820, Note_on_c, 0, 81, 72
1, 83832, Note_on_c, 0, 83, 0
1, 83880, Note_on_c, 0, 79, 77
1, 83892, Note_on_c, 0, 81, 0
1, 83940, Note_on_c, 0, 78, 72
1, 83952, Note_on_c, 0, 79, 0
1, 84000, Tempo, 866051
1, 84000, Note_on_c, 0, 76, 77
1, 84000, Note_on_c, 0, 48, 61
1, 84012, Note_on_c, 0, 78, 0
1, 84060, Note_on_c, 0, 74, 72
1, 84072, Note_on_c, 0, 76, 0
1, 84080, Tempo, 871586
1, 84120, Note_on_c, 0, 48, 0
1, 84120, Note_on_c, 0, 72, 77
1, 84132, Note_on_c, 0, 74, 0
1, 84160, Tempo, 877193
1, 84180, Note_on_c, 0, 71, 72
1, 84192, Note_on_c, 0, 72, 0
1, 84240, Tempo, 882742
1, 84240, Note_on_c, 0, 69, 74
1, 84252, Note_on_c, 0, 71, 0
1, 84300, Note_on_c, 0, 67, 72
1, 84312, Note_on_c, 0, 69, 0
1, 84320, Tempo, 888362
1, 84360, Note_on_c, 0, 66, 75
1, 84372, Note_on_c, 0, 67, 0
1, 84400, Tempo, 894188
1, 84420, Note_on_c, 0, 64, 69
1, 84432, Note_on_c, 0, 66, 0
1, 84440, Tempo, 899955
1, 84480, Tempo, 982962
1, 84480, Note_on_c, 0, 62, 81
1, 84480, Note_on_c, 0, 50, 63
1, 84492, Note_on_c, 0, 64, 0
1, 84600, Note_on_c, 0, 50, 0
1, 84600, Note_on_c, 0, 62, 0
1, 84720, Tempo, 923930
1, 84720, Note_on_c, 0, 60, 89
1, 84720, Note_on_c, 0, 54, 53
1, 84720, Note_on_c, 0, 51, 53
1, 84720, Note_on_c, 0, 57, 63
1, 84805, Control_c, 0, 64, 127
1, 85200, Note_on_c, 0, 57, 0
1, 85200, Note_on_c, 0, 60, 0
1, 85200, Note_on_c, 0, 54, 0
1, 85200, Note_on_c, 0, 51, 0
1, 85200, Note_on_c, 0, 59, 72
1, 85200, Note_on_c, 0, 52, 40
1, 85200, Note_on_c, 0, 55, 48
1, 85208, Control_c, 0, 64, 0
1, 85440, Note_on_c, 0, 55, 0
1, 85440, Note_on_c, 0, 52, 0
1, 85440, Note_on_c, 0, 59, 0
1, 85440, Note_on_c, 0, 48, 36
1, 85440, Note_on_c, 0, 52, 43
1, 85560, Tempo, 866051
1, 85560, Note_on_c, 0, 57, 55
1, 85620, Note_on_c, 0, 57, 0
1, 85680, Note_on_c, 0, 52, 0
1, 85680, Note_on_c, 0, 48, 0
1, 85680, Note_on_c, 0, 60, 55
1, 85740, Note_on_c, 0, 60, 0
1, 85800, Note_on_c, 0, 64, 53
1, 85860, Note_on_c, 0, 64, 0
1, 85920, Note_on_c, 0, 68, 55
1, 86040, Note_on_c, 0, 68, 0
1, 86040, Note_on_c, 0, 69, 53
1, 86160, Tempo, 903478
1, 86160, Note_on_c, 0, 69, 0
1, 86160, Note_on_c, 0, 72, 55
1, 86280, Note_on_c, 0, 72, 0
1, 86280, Note_on_c, 0, 76, 54
1, 86400, Tempo, 930233
1, 86400, Note_on_c, 0, 76, 0
1, 86400, Note_on_c, 0, 76, 63
1, 86520, Note_on_c, 0, 76, 0
1, 86520, Note_on_c, 0, 67, 55
1, 86630, Note_on_c, 0, 67, 0
1, 86640, Note_on_c, 0, 67, 55
1, 86640, Note_on_c, 0, 50, 44
1, 86640, Note_on_c, 0, 59, 44
1, 86668, Control_c, 0, 64, 127
1, 86880, Tempo, 877193
1, 86880, Note_on_c, 0, 59, 0
1, 86880, Note_on_c, 0, 60, 44
1, 86898, Control_c, 0, 64, 0
1, 86979, Control_c, 0, 64, 127
1, 87120, Tempo, 899955
1, 87120, Note_on_c, 0, 67, 0
1, 87120, Note_on_c, 0, 71, 56
1, 87120, Note_on_c, 0, 66, 56
1, 87240, Note_on_c, 0, 71, 0
1, 87240, Note_on_c, 0, 69, 54
1, 87360, Tempo, 930233
1, 87360, Note_on_c, 0, 69, 0
1, 87360, Note_on_c, 0, 66, 0
1, 87360, Note_on_c, 0, 60, 0
1, 87360, Note_on_c, 0, 50, 0
1, 87360, Note_on_c, 0, 67, 54
1, 87360, Note_on_c, 0, 55, 46
1, 87360, Note_on_c, 0, 59, 46
1, 87364, Control_c, 0, 64, 0
1, 87480, Note_on_c, 0, 55, 0
1, 87600, Note_on_c, 0, 59, 0
1, 87600, Note_on_c, 0, 67, 0
1, 87600, Note_on_c, 0, 43, 44
1, 87720, Note_on_c, 0, 43, 0
1, 87840, Tempo, 866051
1, 87840, Note_on_c, 0, 74, 75
1, 87960, Note_on_c, 0, 74, 0
1, 87960, Note_on_c, 0, 71, 67
1, 88080, Note_on_c, 0, 71, 0
1, 88080, Note_on_c, 0, 79, 54
1, 88200, Tempo, 877193
1, 88200, Note_on_c, 0, 79, 0
1, 88200, Note_on_c, 0, 78, 53
1, 88260, Note_on_c, 0, 78, 0
1, 88320, Note_on_c, 0, 76, 51
1, 88380, Note_on_c, 0, 76, 0
1, 88440, Note_on_c, 0, 74, 49
1, 88500, Note_on_c, 0, 74, 0
1, 88560, Note_on_c, 0, 72, 48
1, 88620, Note_on_c, 0, 72, 0
1, 88680, Note_on_c, 0, 71, 50
1, 88740, Note_on_c, 0, 71, 0
1, 88800, Tempo, 888362
1, 88800, Note_on_c, 0, 69, 53
1, 88920, Note_on_c, 0, 69, 0
1, 89040, Note_on_c, 0, 71, 54
1, 89160, Note_on_c, 0, 71, 0
1, 89280, Tempo, 894188
1, 89280, Note_on_c, 0, 74, 58
1, 89400, Note_on_c, 0, 74, 0
1, 89400, Note_on_c, 0, 73, 54
1, 89520, Note_on_c, 0, 73, 0
1, 89520, Note_on_c, 0, 72, 51
1, 89520, Note_on_c, 0, 54, 40
1, 89520, Note_on_c, 0, 62, 40
1, 89640, Note_on_c, 0, 72, 0
1, 89760, Tempo, 866051
1, 89760, Note_on_c, 0, 54, 0
1, 89760, Note_on_c, 0, 71, 51
1, 89760, Note_on_c, 0, 55, 43
1, 89880, Note_on_c, 0, 71, 0
1, 89880, Note_on_c, 0, 72, 54
1, 90000, Note_on_c, 0, 72, 0
1, 90000, Note_on_c, 0, 55, 0
1, 90000, Note_on_c, 0, 62, 0
1, 90000, Note_on_c, 0, 74, 57
1, 90120, Note_on_c, 0, 74, 0
1, 90120, Note_on_c, 0, 75, 59
1, 90180, Note_on_c, 0, 75, 0
1, 90240, Tempo, 888362
1, 90240, Note_on_c, 0, 76, 49
1, 90240, Note_on_c, 0, 48, 43
1, 90240, Note_on_c, 0, 55, 43
1, 90273, Control_c, 0, 64, 127
1, 90276, Note_on_c, 0, 76, 0
1, 90276, Note_on_c, 0, 78, 51
1, 90312, Note_on_c, 0, 78, 0
1, 90312, Note_on_c, 0, 76, 54
1, 90348, Note_on_c, 0, 76, 0
1, 90348, Note_on_c, 0, 78, 56
1, 90384, Note_on_c, 0, 78, 0
1, 90384, Note_on_c, 0, 76, 58
1, 90420, Tempo, 866051
1, 90420, Note_on_c, 0, 76, 0
1, 90420, Note_on_c, 0, 78, 62
1, 90480, Note_on_c, 0, 78, 0
1, 90480, Note_on_c, 0, 79, 68
1, 90530, Control_c, 0, 64, 0
1, 90540, Note_on_c, 0, 79, 0
1, 90600, Note_on_c, 0, 78, 64
1, 90660, Note_on_c, 0, 78, 0
1, 90720, Tempo, 866051
1, 90720, Note_on_c, 0, 55, 0
1, 90720, Note_on_c, 0, 48, 0
1, 90720, Note_on_c, 0, 76, 63
1, 90780, Note_on_c, 0, 76, 0
1, 90840, Note_on_c, 0, 74, 59
1, 90880, Tempo, 871586
1, 90900, Note_on_c, 0, 74, 0
1, 90960, Note_on_c, 0, 72, 60
1, 90960, Note_on_c, 0, 52, 43
1, 90960, Note_on_c, 0, 49, 43
1, 91020, Note_on_c, 0, 72, 0
1, 91040, Tempo, 877193
1, 91080, Tempo, 936330
1, 91080, Note_on_c, 0, 71, 56
1, 91140, Note_on_c, 0, 71, 0
1, 91160, Tempo, 882742
1, 91200, Tempo, 899955
1, 91200, Note_on_c, 0, 49, 0
1, 91200, Note_on_c, 0, 52, 0
1, 91200, Note_on_c, 0, 74, 64
1, 91200, Note_on_c, 0, 50, 43
1, 91200, Note_on_c, 0, 55, 43
1, 91250, Control_c, 0, 64, 127
1, 91380, Note_on_c, 0, 74, 0
1, 91380, Note_on_c, 0, 71, 59
1, 91440, Tempo, 941620
1, 91440, Note_on_c, 0, 71, 0
1, 91440, Note_on_c, 0, 55, 0
1, 91440, Note_on_c, 0, 69, 55
1, 91440, Note_on_c, 0, 54, 41
1, 91449, Control_c, 0, 64, 0
1, 91560, Note_on_c, 0, 69, 0
1, 91680, Tempo, 866051
1, 91680, Note_on_c, 0, 54, 0
1, 91680, Note_on_c, 0, 50, 0
1, 91680, Note_on_c, 0, 74, 86
1, 91680, Note_on_c, 0, 62, 77
1, 91860, Note_on_c, 0, 62, 0
1, 91860, Note_on_c, 0, 74, 0
1, 91860, Note_on_c, 0, 76, 81
1, 91860, Note_on_c, 0, 64, 70
1, 91890, Note_on_c, 0, 64, 0
1, 91890, Note_on_c, 0, 76, 0
1, 91890, Note_on_c, 0, 78, 78
1, 91890, Note_on_c, 0, 66, 66
1, 91920, Note_on_c, 0, 66, 0
1, 91920, Note_on_c, 0, 78, 0
1, 91920, Note_on_c, 0, 79, 86
1, 91920, Note_on_c, 0, 67, 71
1, 92040, Note_on_c, 0, 67, 0
1, 92040, Note_on_c, 0, 79, 0
1, 92040, Note_on_c, 0, 78, 62
1, 92040, Note_on_c, 0, 66, 56
1, 92100, Note_on_c, 0, 66, 0
1, 92100, Note_on_c, 0, 78, 0
1, 92160, Note_on_c, 0, 76, 62
1, 92160, Note_on_c, 0, 64, 56
1, 92220, Note_on_c, 0, 64, 0
1, 92220, Note_on_c, 0, 76, 0
1, 92280, Note_on_c, 0, 74, 58
1, 92280, Note_on_c, 0, 62, 52
1, 92340, Note_on_c, 0, 62, 0
1, 92340, Note_on_c, 0, 74, 0
1, 92400, Note_on_c, 0, 72, 62
1, 92400, Note_on_c, 0, 60, 56
1, 92460, Note_on_c, 0, 60, 0
1, 92460, Note_on_c, 0, 72, 0
1, 92520, Note_on_c, 0, 71, 57
1, 92520, Note_on_c, 0, 59, 52
1, 92580, Note_on_c, 0, 59, 0
1, 92580, Note_on_c, 0, 71, 0
1, 92640, Tempo, 882742
1, 92640, Note_on_c, 0, 69, 63
1, 92640, Note_on_c, 0, 57, 57
1, 92760, Note_on_c, 0, 57, 0
1, 92760, Note_on_c, 0, 69, 0
1, 92880, Note_on_c, 0, 71, 70
1, 92880, Note_on_c, 0, 59, 62
1, 93000, Note_on_c, 0, 59, 0
1, 93000, Note_on_c, 0, 71, 0
1, 93080, Tempo, 882742
1, 93120, Tempo, 882742
1, 93120, Note_on_c, 0, 72, 72
1, 93120, Note_on_c, 0, 60, 67
1, 93240, Note_on_c, 0, 60, 0
1, 93240, Note_on_c, 0, 72, 0
1, 93320, Tempo, 888362
1, 93360, Note_on_c, 0, 73, 78
1, 93360, Note_on_c, 0, 61, 65
1, 93480, Note_on_c, 0, 61, 0
1, 93480, Note_on_c, 0, 73, 0
1, 93520, Tempo, 894188
1, 93600, Note_on_c, 0, 74, 83
1, 93600, Note_on_c, 0, 62, 70
1, 93720, Tempo, 899955
1, 93720, Note_on_c, 0, 62, 0
1, 93720, Note_on_c, 0, 74, 0
1, 93840, Note_on_c, 0, 75, 83
1, 93840, Note_on_c, 0, 63, 66
1, 93920, Tempo, 905934
1, 93960, Note_on_c, 0, 63, 0
1, 93960, Note_on_c, 0, 75, 0
1, 94080, Tempo, 911854
1, 94080, Note_on_c, 0, 76, 87
1, 94080, Note_on_c, 0, 64, 72
1, 94119, Control_c, 0, 64, 127
1, 94250, Note_on_c, 0, 64, 0
1, 94260, Tempo, 866051
1, 94260, Note_on_c, 0, 76, 0
1, 94260, Note_on_c, 0, 64, 82
1, 94320, Tempo, 871586
1, 94320, Note_on_c, 0, 64, 0
1, 94320, Note_on_c, 0, 72, 72
1, 94320, Note_on_c, 0, 48, 43
1, 94320, Note_on_c, 0, 57, 43
1, 94324, Control_c, 0, 64, 0
1, 94352, Control_c, 0, 64, 127
1, 94360, Tempo, 877193
1, 94420, Tempo, 882742
1, 94460, Tempo, 888362
1, 94500, Note_on_c, 0, 72, 0
1, 94500, Note_on_c, 0, 69, 72
1, 94520, Tempo, 894188
1, 94560, Tempo, 899955
1, 94560, Note_on_c, 0, 69, 0
1, 94560, Note_on_c, 0, 57, 0
1, 94560, Note_on_c, 0, 48, 0
1, 94560, Note_on_c, 0, 67, 69
1, 94560, Note_on_c, 0, 50, 43
1, 94560, Note_on_c, 0, 59, 43
1, 94570, Control_c, 0, 64, 0
1, 94603, Control_c, 0, 64, 127
1, 94770, Note_on_c, 0, 71, 57
1, 94800, Tempo, 866051
1, 94800, Note_on_c, 0, 71, 0
1, 94800, Note_on_c, 0, 59, 0
1, 94800, Note_on_c, 0, 67, 0
1, 94800, Note_on_c, 0, 69, 63
1, 94800, Note_on_c, 0, 66, 63
1, 94800, Note_on_c, 0, 60, 43
1, 94812, Control_c, 0, 64, 0
1, 94850, Control_c, 0, 64, 127
1, 95040, Tempo, 899281
1, 95040, Note_on_c, 0, 60, 0
1, 95040, Note_on_c, 0, 50, 0
1, 95040, Note_on_c, 0, 69, 0
1, 95040, Note_on_c, 0, 66, 0
1, 95040, Note_on_c, 0, 67, 71
1, 95040, Note_on_c, 0, 55, 60
1, 95054, Control_c, 0, 64, 0
1, 95097, Control_c, 0, 64, 127
1, 95160, Tempo, 848416
1, 95160, Note_on_c, 0, 55, 0
1, 95160, Note_on_c, 0, 59, 50
1, 95280, Note_on_c, 0, 59, 0
1, 95280, Note_on_c, 0, 67, 0
1, 95280, Note_on_c, 0, 62, 54
1, 95340, Note_on_c, 0, 79, 74
1, 95400, Note_on_c, 0, 79, 0
1, 95400, Note_on_c, 0, 62, 0
1, 95400, Note_on_c, 0, 81, 77
1, 95400, Note_on_c, 0, 59, 48
1, 95460, Note_on_c, 0, 81, 0
1, 95460, Note_on_c, 0, 79, 73
1, 95520, Note_on_c, 0, 79, 0
1, 95520, Note_on_c, 0, 59, 0
1, 95520, Note_on_c, 0, 76, 78
1, 95520, Note_on_c, 0, 55, 56
1, 95531, Control_c, 0, 64, 0
1, 95570, Control_c, 0, 64, 127
1, 95580, Note_on_c, 0, 76, 0
1, 95580, Note_on_c, 0, 79, 74
1, 95640, Note_on_c, 0, 79, 0
1, 95640, Note_on_c, 0, 55, 0
1, 95640, Note_on_c, 0, 81, 77
1, 95640, Note_on_c, 0, 60, 45
1, 95700, Note_on_c, 0, 81, 0
1, 95700, Note_on_c, 0, 79, 74
1, 95760, Note_on_c, 0, 79, 0
1, 95760, Note_on_c, 0, 60, 0
1, 95760, Note_on_c, 0, 84, 81
1, 95760, Note_on_c, 0, 64, 49
1, 95820, Note_on_c, 0, 84, 0
1, 95820, Note_on_c, 0, 79, 76
1, 95880, Note_on_c, 0, 79, 0
1, 95880, Note_on_c, 0, 64, 0
1, 95880, Note_on_c, 0, 76, 78
1, 95880, Note_on_c, 0, 60, 47
1, 95940, Note_on_c, 0, 76, 0
1, 95940, Note_on_c, 0, 72, 73
1, 96000, Tempo, 899955
1, 96000, Note_on_c, 0, 72, 0
1, 96000, Note_on_c, 0, 60, 0
1, 96000, Note_on_c, 0, 79, 83
1, 96000, Note_on_c, 0, 55, 56
1, 96006, Control_c, 0, 64, 0
1, 96060, Note_on_c, 0, 79, 0
1, 96120, Tempo, 912964
1, 96120, Note_on_c, 0, 55, 0
1, 96120, Note_on_c, 0, 79, 81
1, 96120, Note_on_c, 0, 59, 50
1, 96180, Note_on_c, 0, 79, 0
1, 96240, Tempo, 866051
1, 96240, Note_on_c, 0, 59, 0
1, 96240, Note_on_c, 0, 62, 54
1, 96300, Note_on_c, 0, 79, 73
1, 96304, Control_c, 0, 64, 127
1, 96360, Note_on_c, 0, 79, 0
1, 96360, Note_on_c, 0, 62, 0
1, 96360, Note_on_c, 0, 81, 77
1, 96360, Note_on_c, 0, 59, 47
1, 96420, Note_on_c, 0, 81, 0
1, 96420, Note_on_c, 0, 79, 73
1, 96480, Note_on_c, 0, 79, 0
1, 96480, Note_on_c, 0, 59, 0
1, 96480, Note_on_c, 0, 76, 78
1, 96480, Note_on_c, 0, 55, 56
1, 96501, Control_c, 0, 64, 0
1, 96540, Note_on_c, 0, 76, 0
1, 96540, Note_on_c, 0, 79, 74
1, 96544, Control_c, 0, 64, 127
1, 96600, Note_on_c, 0, 79, 0
1, 96600, Note_on_c, 0, 55, 0
1, 96600, Note_on_c, 0, 81, 76
1, 96600, Note_on_c, 0, 60, 50
1, 96660, Note_on_c, 0, 81, 0
1, 96660, Note_on_c, 0, 79, 74
1, 96720, Note_on_c, 0, 79, 0
1, 96720, Note_on_c, 0, 60, 0
1, 96720, Note_on_c, 0, 84, 81
1, 96720, Note_on_c, 0, 64, 54
1, 96780, Note_on_c, 0, 84, 0
1, 96780, Note_on_c, 0, 79, 75
1, 96840, Note_on_c, 0, 79, 0
1, 96840, Note_on_c, 0, 64, 0
1, 96840, Note_on_c, 0, 76, 77
1, 96840, Note_on_c, 0, 60, 49
1, 96900, Note_on_c, 0, 76, 0
1, 96900, Note_on_c, 0, 72, 73
1, 96960, Tempo, 894188
1, 96960, Note_on_c, 0, 72, 0
1, 96960, Note_on_c, 0, 60, 0
1, 96960, Note_on_c, 0, 79, 84
1, 96960, Note_on_c, 0, 59, 56
1, 96960, Note_on_c, 0, 62, 56
1, 96960, Note_on_c, 0, 55, 56
1, 96963, Control_c, 0, 64, 0
1, 97020, Note_on_c, 0, 79, 0
1, 97080, Tempo, 941620
1, 97080, Note_on_c, 0, 79, 82
1, 97140, Note_on_c, 0, 79, 0
1, 97200, Tempo, 866051
1, 97200, Note_on_c, 0, 55, 0
1, 97200, Note_on_c, 0, 62, 0
1, 97200, Note_on_c, 0, 59, 0
1, 97200, Note_on_c, 0, 72, 41
1, 97260, Note_on_c, 0, 74, 55
1, 97272, Control_c, 0, 64, 127
1, 97320, Tempo, 825083
1, 97320, Note_on_c, 0, 74, 0
1, 97320, Note_on_c, 0, 78, 55
1, 97380, Note_on_c, 0, 78, 0
1, 97380, Note_on_c, 0, 74, 53
1, 97440, Tempo, 888362
1, 97440, Note_on_c, 0, 74, 0
1, 97440, Note_on_c, 0, 72, 0
1, 97440, Note_on_c, 0, 79, 59
1, 97440, Note_on_c, 0, 71, 44
1, 97449, Control_c, 0, 64, 0
1, 97500, Note_on_c, 0, 79, 0
1, 97560, Note_on_c, 0, 79, 59
1, 97620, Note_on_c, 0, 79, 0
1, 97680, Tempo, 866051
1, 97680, Note_on_c, 0, 71, 0
1, 97680, Note_on_c, 0, 72, 43
1, 97740, Note_on_c, 0, 74, 54
1, 97775, Control_c, 0, 64, 127
1, 97800, Tempo, 825083
1, 97800, Note_on_c, 0, 74, 0
1, 97800, Note_on_c, 0, 78, 54
1, 97860, Note_on_c, 0, 78, 0
1, 97860, Note_on_c, 0, 74, 52
1, 97920, Tempo, 888362
1, 97920, Note_on_c, 0, 74, 0
1, 97920, Note_on_c, 0, 72, 0
1, 97920, Note_on_c, 0, 79, 59
1, 97920, Note_on_c, 0, 71, 45
1, 97926, Control_c, 0, 64, 0
1, 97980, Note_on_c, 0, 79, 0
1, 98040, Note_on_c, 0, 79, 59
1, 98100, Note_on_c, 0, 79, 0
1, 98160, Tempo, 866051
1, 98160, Note_on_c, 0, 71, 0
1, 98160, Note_on_c, 0, 66, 52
1, 98180, Control_c, 0, 64, 127
1, 98220, Note_on_c, 0, 66, 0
1, 98220, Note_on_c, 0, 74, 67
1, 98280, Note_on_c, 0, 74, 0
1, 98280, Note_on_c, 0, 81, 71
1, 98280, Note_on_c, 0, 66, 54
1, 98340, Note_on_c, 0, 66, 0
1, 98340, Note_on_c, 0, 81, 0
1, 98340, Note_on_c, 0, 74, 69
1, 98400, Tempo, 866051
1, 98400, Note_on_c, 0, 74, 0
1, 98400, Note_on_c, 0, 83, 75
1, 98400, Note_on_c, 0, 67, 57
1, 98409, Control_c, 0, 64, 0
1, 98446, Control_c, 0, 64, 127
1, 98460, Note_on_c, 0, 67, 0
1, 98460, Note_on_c, 0, 83, 0
1, 98460, Note_on_c, 0, 74, 73
1, 98480, Tempo, 871586
1, 98520, Note_on_c, 0, 74, 0
1, 98520, Note_on_c, 0, 83, 79
1, 98520, Note_on_c, 0, 67, 60
1, 98560, Tempo, 877193
1, 98580, Note_on_c, 0, 67, 0
1, 98580, Note_on_c, 0, 83, 0
1, 98580, Note_on_c, 0, 74, 76
1, 98640, Tempo, 882742
1, 98640, Note_on_c, 0, 74, 0
1, 98640, Note_on_c, 0, 84, 83
1, 98640, Note_on_c, 0, 69, 62
1, 98655, Control_c, 0, 64, 0
1, 98680, Tempo, 888362
1, 98686, Control_c, 0, 64, 127
1, 98700, Note_on_c, 0, 69, 0
1, 98700, Note_on_c, 0, 84, 0
1, 98700, Note_on_c, 0, 74, 81
1, 98760, Tempo, 894188
1, 98760, Note_on_c, 0, 74, 0
1, 98760, Note_on_c, 0, 84, 88
1, 98760, Note_on_c, 0, 69, 65
1, 98820, Note_on_c, 0, 69, 0
1, 98820, Note_on_c, 0, 84, 0
1, 98820, Note_on_c, 0, 74, 84
1, 98840, Tempo, 899955
1, 98880, Tempo, 905934
1, 98880, Note_on_c, 0, 74, 0
1, 98880, Note_on_c, 0, 86, 91
1, 98880, Note_on_c, 0, 71, 67
1, 98887, Control_c, 0, 64, 0
1, 98958, Control_c, 0, 64, 127
1, 99000, Note_on_c, 0, 86, 0
1, 99000, Note_on_c, 0, 83, 79
1, 99120, Note_on_c, 0, 83, 0
1, 99120, Note_on_c, 0, 71, 0
1, 99120, Note_on_c, 0, 79, 84
1, 99240, Note_on_c, 0, 79, 0
1, 99240, Note_on_c, 0, 83, 73
1, 99360, Note_on_c, 0, 83, 0
1, 99360, Note_on_c, 0, 74, 78
1, 99480, Note_on_c, 0, 74, 0
1, 99480, Note_on_c, 0, 79, 70
1, 99600, Note_on_c, 0, 79, 0
1, 99600, Note_on_c, 0, 71, 72
1, 99720, Note_on_c, 0, 71, 0
1, 99720, Note_on_c, 0, 74, 68
1, 99840, Tempo, 882742
1, 99840, Note_on_c, 0, 74, 0
1, 99840, Note_on_c, 0, 69, 60
1, 99840, Control_c, 0, 64, 0
1, 99960, Note_on_c, 0, 69, 0
1, 99960, Note_on_c, 0, 76, 63
1, 100080, Note_on_c, 0, 76, 0
1, 100080, Note_on_c, 0, 74, 63
1, 100080, Note_on_c, 0, 48, 44
1, 100080, Note_on_c, 0, 57, 44
1, 100080, Note_on_c, 0, 52, 44
1, 100092, Control_c, 0, 64, 127
1, 100140, Note_on_c, 0, 74, 0
1, 100140, Note_on_c, 0, 72, 60
1, 100200, Note_on_c, 0, 72, 0
1, 100200, Note_on_c, 0, 71, 63
1, 100260, Note_on_c, 0, 71, 0
1, 100260, Note_on_c, 0, 69, 60
1, 100320, Tempo, 905934
1, 100320, Note_on_c, 0, 69, 0
1, 100320, Note_on_c, 0, 52, 0
1, 100320, Note_on_c, 0, 57, 0
1, 100320, Note_on_c, 0, 48, 0
1, 100320, Note_on_c, 0, 67, 63
1, 100320, Note_on_c, 0, 50, 44
1, 100320, Note_on_c, 0, 55, 44
1, 100320, Note_on_c, 0, 59, 44
1, 100328, Control_c, 0, 64, 0
1, 100390, Control_c, 0, 64, 127
1, 100560, Note_on_c, 0, 59, 0
1, 100560, Note_on_c, 0, 55, 0
1, 100560, Note_on_c, 0, 67, 0
1, 100560, Note_on_c, 0, 66, 60
1, 100560, Note_on_c, 0, 60, 44
1, 100560, Note_on_c, 0, 57, 44
1, 100570, Control_c, 0, 64, 0
1, 100592, Note_on_c, 0, 66, 0
1, 100592, Note_on_c, 0, 67, 63
1, 100598, Control_c, 0, 64, 127
1, 100624, Note_on_c, 0, 67, 0
1, 100624, Note_on_c, 0, 66, 60
1, 100656, Note_on_c, 0, 66, 0
1, 100656, Note_on_c, 0, 67, 63
1, 100688, Note_on_c, 0, 67, 0
1, 100688, Note_on_c, 0, 66, 63
1, 100720, Note_on_c, 0, 66, 0
1, 100720, Note_on_c, 0, 64, 63
1, 100760, Note_on_c, 0, 64, 0
1, 100760, Note_on_c, 0, 66, 60
1, 100800, Tempo, 866051
1, 100800, Note_on_c, 0, 66, 0
1, 100800, Note_on_c, 0, 50, 0
1, 100800, Note_on_c, 0, 60, 0
1, 100800, Note_on_c, 0, 57, 0
1, 100800, Note_on_c, 0, 67, 77
1, 100800, Note_on_c, 0, 55, 51
1, 100815, Control_c, 0, 64, 0
1, 100920, Note_on_c, 0, 55, 0
1, 100920, Note_on_c, 0, 59, 46
1, 101040, Note_on_c, 0, 59, 0
1, 101040, Note_on_c, 0, 67, 0
1, 101040, Note_on_c, 0, 62, 54
1, 101065, Control_c, 0, 64, 127
1, 101100, Note_on_c, 0, 79, 74
1, 101160, Note_on_c, 0, 79, 0
1, 101160, Note_on_c, 0, 62, 0
1, 101160, Note_on_c, 0, 81, 77
1, 101160, Note_on_c, 0, 59, 49
1, 101220, Note_on_c, 0, 81, 0
1, 101220, Note_on_c, 0, 79, 75
1, 101280, Note_on_c, 0, 79, 0
1, 101280, Note_on_c, 0, 59, 0
1, 101280, Note_on_c, 0, 76, 81
1, 101280, Note_on_c, 0, 55, 54
1, 101298, Control_c, 0, 64, 0
1, 101333, Control_c, 0, 64, 127
1, 101340, Note_on_c, 0, 76, 0
1, 101340, Note_on_c, 0, 79, 75
1, 101400, Note_on_c, 0, 79, 0
1, 101400, Note_on_c, 0, 55, 0
1, 101400, Note_on_c, 0, 81, 79
1, 101400, Note_on_c, 0, 60, 50
1, 101460, Note_on_c, 0, 81, 0
1, 101460, Note_on_c, 0, 79, 75
1, 101520, Note_on_c, 0, 79, 0
1, 101520, Note_on_c, 0, 60, 0
1, 101520, Note_on_c, 0, 84, 81
1, 101520, Note_on_c, 0, 64, 54
1, 101580, Note_on_c, 0, 84, 0
1, 101580, Note_on_c, 0, 79, 78
1, 101640, Note_on_c, 0, 79, 0
1, 101640, Note_on_c, 0, 64, 0
1, 101640, Note_on_c, 0, 76, 79
1, 101640, Note_on_c, 0, 60, 50
1, 101700, Note_on_c, 0, 76, 0
1, 101700, Note_on_c, 0, 72, 75
1, 101760, Tempo, 894188
1, 101760, Note_on_c, 0, 72, 0
1, 101760, Note_on_c, 0, 60, 0
1, 101760, Note_on_c, 0, 79, 84
1, 101760, Note_on_c, 0, 55, 58
1, 101763, Control_c, 0, 64, 0
1, 101820, Note_on_c, 0, 79, 0
1, 101880, Note_on_c, 0, 55, 0
1, 101880, Note_on_c, 0, 79, 81
1, 101880, Note_on_c, 0, 59, 50
1, 101940, Note_on_c, 0, 79, 0
1, 102000, Tempo, 866051
1, 102000, Note_on_c, 0, 59, 0
1, 102000, Note_on_c, 0, 62, 54
1, 102039, Control_c, 0, 64, 127
1, 102060, Note_on_c, 0, 79, 75
1, 102120, Note_on_c, 0, 79, 0
1, 102120, Note_on_c, 0, 62, 0
1, 102120, Note_on_c, 0, 81, 77
1, 102120, Note_on_c, 0, 59, 54
1, 102180, Note_on_c, 0, 81, 0
1, 102180, Note_on_c, 0, 79, 73
1, 102240, Note_on_c, 0, 79, 0
1, 102240, Note_on_c, 0, 59, 0
1, 102240, Note_on_c, 0, 76, 81
1, 102240, Note_on_c, 0, 55, 54
1, 102254, Control_c, 0, 64, 0
1, 102297, Control_c, 0, 64, 127
1, 102300, Note_on_c, 0, 76, 0
1, 102300, Note_on_c, 0, 79, 75
1, 102360, Note_on_c, 0, 79, 0
1, 102360, Note_on_c, 0, 55, 0
1, 102360, Note_on_c, 0, 81, 78
1, 102360, Note_on_c, 0, 60, 50
1, 102420, Note_on_c, 0, 81, 0
1, 102420, Note_on_c, 0, 79, 77
1, 102480, Note_on_c, 0, 79, 0
1, 102480, Note_on_c, 0, 60, 0
1, 102480, Note_on_c, 0, 84, 81
1, 102480, Note_on_c, 0, 64, 54
1, 102540, Note_on_c, 0, 84, 0
1, 102540, Note_on_c, 0, 79, 76
1, 102600, Note_on_c, 0, 79, 0
1, 102600, Note_on_c, 0, 64, 0
1, 102600, Note_on_c, 0, 76, 78
1, 102600, Note_on_c, 0, 60, 50
1, 102660, Note_on_c, 0, 76, 0
1, 102660, Note_on_c, 0, 72, 75
1, 102720, Tempo, 888362
1, 102720, Note_on_c, 0, 72, 0
1, 102720, Note_on_c, 0, 60, 0
1, 102720, Note_on_c, 0, 79, 84
1, 102720, Note_on_c, 0, 59, 58
1, 102720, Note_on_c, 0, 62, 58
1, 102720, Note_on_c, 0, 55, 58
1, 102727, Control_c, 0, 64, 0
1, 102780, Note_on_c, 0, 79, 0
1, 102840, Note_on_c, 0, 79, 82
1, 102900, Note_on_c, 0, 79, 0
1, 102960, Tempo, 866051
1, 102960, Note_on_c, 0, 55, 0
1, 102960, Note_on_c, 0, 62, 0
1, 102960, Note_on_c, 0, 59, 0
1, 102960, Note_on_c, 0, 72, 43
1, 102992, Control_c, 0, 64, 127
1, 103020, Note_on_c, 0, 74, 54
1, 103080, Tempo, 825083
1, 103080, Note_on_c, 0, 74, 0
1, 103080, Note_on_c, 0, 78, 54
1, 103140, Note_on_c, 0, 78, 0
1, 103140, Note_on_c, 0, 74, 50
1, 103200, Tempo, 888362
1, 103200, Note_on_c, 0, 74, 0
1, 103200, Note_on_c, 0, 72, 0
1, 103200, Note_on_c, 0, 79, 56
1, 103200, Note_on_c, 0, 71, 45
1, 103208, Control_c, 0, 64, 0
1, 103260, Note_on_c, 0, 79, 0
1, 103320, Note_on_c, 0, 79, 57
1, 103380, Note_on_c, 0, 79, 0
1, 103440, Tempo, 866051
1, 103440, Note_on_c, 0, 71, 0
1, 103440, Note_on_c, 0, 72, 43
1, 103500, Note_on_c, 0, 74, 54
1, 103500, Control_c, 0, 64, 127
1, 103560, Tempo, 825083
1, 103560, Note_on_c, 0, 74, 0
1, 103560, Note_on_c, 0, 78, 54
1, 103620, Note_on_c, 0, 78, 0
1, 103620, Note_on_c, 0, 74, 50
1, 103680, Tempo, 894188
1, 103680, Note_on_c, 0, 74, 0
1, 103680, Note_on_c, 0, 72, 0
1, 103680, Note_on_c, 0, 79, 57
1, 103680, Note_on_c, 0, 71, 45
1, 103686, Control_c, 0, 64, 0
1, 103740, Note_on_c, 0, 79, 0
1, 103800, Note_on_c, 0, 79, 57
1, 103860, Note_on_c, 0, 79, 0
1, 103920, Tempo, 866051
1, 103920, Note_on_c, 0, 71, 0
1, 103920, Note_on_c, 0, 66, 48
1, 103949, Control_c, 0, 64, 127
1, 103980, Note_on_c, 0, 66, 0
1, 103980, Note_on_c, 0, 74, 67
1, 104040, Note_on_c, 0, 74, 0
1, 104040, Note_on_c, 0, 81, 71
1, 104040, Note_on_c, 0, 66, 51
1, 104100, Note_on_c, 0, 66, 0
1, 104100, Note_on_c, 0, 81, 0
1, 104100, Note_on_c, 0, 74, 66
1, 104120, Tempo, 866051
1, 104160, Tempo, 866051
1, 104160, Note_on_c, 0, 74, 0
1, 104160, Note_on_c, 0, 83, 75
1, 104160, Note_on_c, 0, 67, 54
1, 104177, Control_c, 0, 64, 0
1, 104209, Control_c, 0, 64, 127
1, 104220, Note_on_c, 0, 67, 0
1, 104220, Note_on_c, 0, 83, 0
1, 104220, Note_on_c, 0, 74, 73
1, 104240, Tempo, 871586
1, 104280, Note_on_c, 0, 74, 0
1, 104280, Note_on_c, 0, 83, 81
1, 104280, Note_on_c, 0, 67, 57
1, 104320, Tempo, 877193
1, 104340, Note_on_c, 0, 67, 0
1, 104340, Note_on_c, 0, 83, 0
1, 104340, Note_on_c, 0, 74, 77
1, 104400, Tempo, 882742
1, 104400, Note_on_c, 0, 74, 0
1, 104400, Note_on_c, 0, 84, 84
1, 104400, Note_on_c, 0, 69, 61
1, 104412, Control_c, 0, 64, 0
1, 104440, Tempo, 888362
1, 104449, Control_c, 0, 64, 127
1, 104460, Note_on_c, 0, 69, 0
1, 104460, Note_on_c, 0, 84, 0
1, 104460, Note_on_c, 0, 74, 82
1, 104520, Tempo, 894188
1, 104520, Note_on_c, 0, 74, 0
1, 104520, Note_on_c, 0, 84, 90
1, 104520, Note_on_c, 0, 69, 64
1, 104580, Note_on_c, 0, 69, 0
1, 104580, Note_on_c, 0, 84, 0
1, 104580, Note_on_c, 0, 74, 85
1, 104600, Tempo, 899955
1, 104640, Tempo, 894188
1, 104640, Note_on_c, 0, 74, 0
1, 104640, Note_on_c, 0, 86, 94
1, 104640, Note_on_c, 0, 71, 67
1, 104652, Control_c, 0, 64, 0
1, 104693, Control_c, 0, 64, 127
1, 104700, Note_on_c, 0, 86, 0
1, 104700, Note_on_c, 0, 83, 85
1, 104760, Note_on_c, 0, 83, 0
1, 104760, Note_on_c, 0, 86, 89
1, 104820, Note_on_c, 0, 86, 0
1, 104820, Note_on_c, 0, 83, 83
1, 104880, Note_on_c, 0, 83, 0
1, 104880, Note_on_c, 0, 71, 0
1, 104880, Note_on_c, 0, 79, 87
1, 104940, Note_on_c, 0, 79, 0
1, 104940, Note_on_c, 0, 83, 81
1, 105000, Note_on_c, 0, 83, 0
1, 105000, Note_on_c, 0, 79, 85
1, 105060, Note_on_c, 0, 79, 0
1, 105060, Note_on_c, 0, 83, 81
1, 105120, Note_on_c, 0, 83, 0
1, 105120, Note_on_c, 0, 74, 86
1, 105180, Note_on_c, 0, 74, 0
1, 105180, Note_on_c, 0, 79, 80
1, 105240, Note_on_c, 0, 79, 0
1, 105240, Note_on_c, 0, 74, 81
1, 105300, Note_on_c, 0, 74, 0
1, 105300, Note_on_c, 0, 79, 74
1, 105360, Note_on_c, 0, 79, 0
1, 105360, Note_on_c, 0, 71, 73
1, 105420, Note_on_c, 0, 71, 0
1, 105420, Note_on_c, 0, 74, 68
1, 105480, Note_on_c, 0, 74, 0
1, 105480, Note_on_c, 0, 71, 68
1, 105540, Note_on_c, 0, 71, 0
1, 105540, Note_on_c, 0, 74, 63
1, 105600, Tempo, 930233
1, 105600, Note_on_c, 0, 74, 0
1, 105600, Note_on_c, 0, 69, 54
1, 105609, Control_c, 0, 64, 0
1, 105660, Note_on_c, 0, 69, 0
1, 105660, Note_on_c, 0, 76, 51
1, 105720, Note_on_c, 0, 76, 0
1, 105720, Note_on_c, 0, 75, 54
1, 105780, Note_on_c, 0, 75, 0
1, 105780, Note_on_c, 0, 76, 52
1, 105840, Note_on_c, 0, 76, 0
1, 105840, Note_on_c, 0, 74, 54
1, 105840, Note_on_c, 0, 57, 44
1, 105840, Note_on_c, 0, 48, 44
1, 105840, Note_on_c, 0, 52, 44
1, 105900, Note_on_c, 0, 74, 0
1, 105900, Note_on_c, 0, 72, 51
1, 105960, Note_on_c, 0, 72, 0
1, 105960, Note_on_c, 0, 71, 54
1, 106020, Note_on_c, 0, 71, 0
1, 106020, Note_on_c, 0, 69, 52
1, 106080, Tempo, 905934
1, 106080, Note_on_c, 0, 69, 0
1, 106080, Note_on_c, 0, 52, 0
1, 106080, Note_on_c, 0, 48, 0
1, 106080, Note_on_c, 0, 57, 0
1, 106080, Note_on_c, 0, 67, 63
1, 106080, Note_on_c, 0, 50, 44
1, 106080, Note_on_c, 0, 59, 44
1, 106080, Note_on_c, 0, 55, 44
1, 106127, Control_c, 0, 64, 127
1, 106320, Note_on_c, 0, 55, 0
1, 106320, Note_on_c, 0, 59, 0
1, 106320, Note_on_c, 0, 67, 0
1, 106320, Note_on_c, 0, 66, 60
1, 106320, Note_on_c, 0, 57, 44
1, 106320, Note_on_c, 0, 60, 44
1, 106323, Control_c, 0, 64, 0
1, 106336, Control_c, 0, 64, 127
1, 106352, Note_on_c, 0, 66, 0
1, 106352, Note_on_c, 0, 67, 63
1, 106384, Note_on_c, 0, 67, 0
1, 106384, Note_on_c, 0, 66, 60
1, 106416, Note_on_c, 0, 66, 0
1, 106416, Note_on_c, 0, 67, 63
1, 106440, Tempo, 993213
1, 106448, Note_on_c, 0, 67, 0
1, 106448, Note_on_c, 0, 66, 63
1, 106480, Note_on_c, 0, 66, 0
1, 106480, Note_on_c, 0, 64, 63
1, 106520, Note_on_c, 0, 64, 0
1, 106520, Note_on_c, 0, 66, 60
1, 106560, Tempo, 903478
1, 106560, Note_on_c, 0, 66, 0
1, 106560, Note_on_c, 0, 50, 0
1, 106560, Note_on_c, 0, 57, 0
1, 106560, Note_on_c, 0, 60, 0
1, 106560, Note_on_c, 0, 67, 86
1, 106560, Note_on_c, 0, 55, 78
1, 106574, Control_c, 0, 64, 0
1, 106632, Control_c, 0, 64, 127
1, 106740, Note_on_c, 0, 55, 0
1, 106740, Note_on_c, 0, 67, 0
1, 106740, Note_on_c, 0, 62, 81
1, 106740, Note_on_c, 0, 50, 72
1, 106800, Note_on_c, 0, 50, 0
1, 106800, Note_on_c, 0, 62, 0
1, 106800, Note_on_c, 0, 71, 86
1, 106800, Note_on_c, 0, 59, 78
1, 106980, Note_on_c, 0, 59, 0
1, 106980, Note_on_c, 0, 71, 0
1, 106980, Note_on_c, 0, 67, 81
1, 106980, Note_on_c, 0, 55, 72
1, 107040, Tempo, 956633
1, 107040, Note_on_c, 0, 55, 0
1, 107040, Note_on_c, 0, 67, 0
1, 107040, Note_on_c, 0, 74, 87
1, 107040, Note_on_c, 0, 62, 77
1, 107137, Control_c, 0, 64, 0
1, 107160, Note_on_c, 0, 62, 0
1, 107160, Note_on_c, 0, 74, 0
1, 107280, Tempo, 866051
1, 107280, Note_on_c, 0, 81, 54
1, 107340, Note_on_c, 0, 79, 51
1, 107352, Note_on_c, 0, 81, 0
1, 107400, Note_on_c, 0, 78, 54
1, 107412, Note_on_c, 0, 79, 0
1, 107460, Note_on_c, 0, 76, 52
1, 107472, Note_on_c, 0, 78, 0
1, 107520, Tempo, 888362
1, 107520, Note_on_c, 0, 74, 57
1, 107520, Note_on_c, 0, 55, 41
1, 107520, Note_on_c, 0, 59, 41
1, 107520, Note_on_c, 0, 50, 41
1, 107532, Note_on_c, 0, 76, 0
1, 107640, Note_on_c, 0, 59, 0
1, 107640, Note_on_c, 0, 74, 0
1, 107640, Note_on_c, 0, 55, 0
1, 107640, Note_on_c, 0, 50, 0
1, 107760, Tempo, 866051
1, 107760, Note_on_c, 0, 76, 54
1, 107820, Note_on_c, 0, 74, 51
1, 107832, Note_on_c, 0, 76, 0
1, 107880, Note_on_c, 0, 72, 54
1, 107892, Note_on_c, 0, 74, 0
1, 107940, Note_on_c, 0, 71, 51
1, 107952, Note_on_c, 0, 72, 0
1, 108000, Tempo, 888362
1, 108000, Note_on_c, 0, 69, 57
1, 108000, Note_on_c, 0, 50, 41
1, 108000, Note_on_c, 0, 54, 41
1, 108000, Note_on_c, 0, 60, 41
1, 108012, Note_on_c, 0, 71, 0
1, 108120, Note_on_c, 0, 54, 0
1, 108120, Note_on_c, 0, 69, 0
1, 108120, Note_on_c, 0, 50, 0
1, 108120, Note_on_c, 0, 60, 0
1, 108240, Tempo, 866051
1, 108240, Note_on_c, 0, 74, 56
1, 108300, Note_on_c, 0, 72, 56
1, 108312, Note_on_c, 0, 74, 0
1, 108360, Note_on_c, 0, 71, 56
1, 108372, Note_on_c, 0, 72, 0
1, 108420, Note_on_c, 0, 69, 53
1, 108432, Note_on_c, 0, 71, 0
1, 108480, Tempo, 899955
1, 108480, Note_on_c, 0, 67, 84
1, 108480, Note_on_c, 0, 55, 72
1, 108492, Note_on_c, 0, 69, 0
1, 108515, Control_c, 0, 64, 127
1, 108540, Note_on_c, 0, 55, 0
1, 108540, Note_on_c, 0, 67, 0
1, 108540, Note_on_c, 0, 62, 80
1, 108540, Note_on_c, 0, 50, 67
1, 108600, Note_on_c, 0, 50, 0
1, 108600, Note_on_c, 0, 62, 0
1, 108600, Note_on_c, 0, 67, 84
1, 108600, Note_on_c, 0, 55, 72
1, 108660, Note_on_c, 0, 55, 0
1, 108660, Note_on_c, 0, 67, 0
1, 108660, Note_on_c, 0, 62, 80
1, 108660, Note_on_c, 0, 50, 67
1, 108720, Note_on_c, 0, 50, 0
1, 108720, Note_on_c, 0, 62, 0
1, 108720, Note_on_c, 0, 71, 84
1, 108720, Note_on_c, 0, 59, 72
1, 108780, Note_on_c, 0, 59, 0
1, 108780, Note_on_c, 0, 71, 0
1, 108780, Note_on_c, 0, 67, 80
1, 108780, Note_on_c, 0, 55, 67
1, 108840, Note_on_c, 0, 55, 0
1, 108840, Note_on_c, 0, 67, 0
1, 108840, Note_on_c, 0, 71, 84
1, 108840, Note_on_c, 0, 59, 72
1, 108900, Note_on_c, 0, 59, 0
1, 108900, Note_on_c, 0, 71, 0
1, 108900, Note_on_c, 0, 67, 80
1, 108900, Note_on_c, 0, 55, 66
1, 108960, Tempo, 972132
1, 108960, Note_on_c, 0, 55, 0
1, 108960, Note_on_c, 0, 67, 0
1, 108960, Note_on_c, 0, 74, 84
1, 108960, Note_on_c, 0, 62, 72
1, 109057, Control_c, 0, 64, 0
1, 109080, Note_on_c, 0, 62, 0
1, 109080, Note_on_c, 0, 74, 0
1, 109200, Tempo, 866051
1, 109200, Note_on_c, 0, 81, 55
1, 109260, Note_on_c, 0, 79, 52
1, 109272, Note_on_c, 0, 81, 0
1, 109320, Note_on_c, 0, 78, 55
1, 109332, Note_on_c, 0, 79, 0
1, 109380, Note_on_c, 0, 76, 52
1, 109392, Note_on_c, 0, 78, 0
1, 109440, Tempo, 905934
1, 109440, Note_on_c, 0, 74, 58
1, 109440, Note_on_c, 0, 59, 45
1, 109440, Note_on_c, 0, 50, 45
1, 109440, Note_on_c, 0, 55, 45
1, 109452, Note_on_c, 0, 76, 0
1, 109500, Note_on_c, 0, 74, 0
1, 109560, Note_on_c, 0, 50, 0
1, 109560, Note_on_c, 0, 59, 0
1, 109560, Note_on_c, 0, 55, 0
1, 109560, Note_on_c, 0, 74, 58
1, 109620, Note_on_c, 0, 74, 0
1, 109680, Tempo, 866051
1, 109680, Note_on_c, 0, 76, 54
1, 109740, Note_on_c, 0, 74, 51
1, 109752, Note_on_c, 0, 76, 0
1, 109800, Note_on_c, 0, 72, 54
1, 109812, Note_on_c, 0, 74, 0
1, 109860, Note_on_c, 0, 71, 50
1, 109872, Note_on_c, 0, 72, 0
1, 109920, Tempo, 882742
1, 109920, Note_on_c, 0, 69, 57
1, 109920, Note_on_c, 0, 54, 45
1, 109920, Note_on_c, 0, 60, 45
1, 109920, Note_on_c, 0, 50, 45
1, 109932, Note_on_c, 0, 71, 0
1, 109960, Tempo, 905934
1, 109980, Note_on_c, 0, 69, 0
1, 110040, Note_on_c, 0, 60, 0
1, 110040, Note_on_c, 0, 54, 0
1, 110040, Note_on_c, 0, 50, 0
1, 110040, Note_on_c, 0, 69, 57
1, 110100, Note_on_c, 0, 69, 0
1, 110160, Tempo, 866051
1, 110160, Note_on_c, 0, 74, 55
1, 110220, Note_on_c, 0, 72, 53
1, 110232, Note_on_c, 0, 74, 0
1, 110280, Note_on_c, 0, 71, 55
1, 110292, Note_on_c, 0, 72, 0
1, 110340, Note_on_c, 0, 69, 52
1, 110352, Note_on_c, 0, 71, 0
1, 110400, Tempo, 972132
1, 110400, Note_on_c, 0, 67, 58
1, 110400, Note_on_c, 0, 59, 46
1, 110400, Note_on_c, 0, 55, 46
1, 110412, Note_on_c, 0, 69, 0
1, 110640, Tempo, 1011293
1, 110640, Note_on_c, 0, 67, 0
1, 110640, Note_on_c, 0, 59, 0
1, 110640, Note_on_c, 0, 55, 0
1, 110640, Note_on_c, 0, 71, 54
1, 110640, Note_on_c, 0, 62, 54
1, 110640, Note_on_c, 0, 55, 46
1, 110760, Note_on_c, 0, 55, 0
1, 110760, Note_on_c, 0, 62, 0
1, 110760, Note_on_c, 0, 71, 0
1, 110880, Tempo, 972132
1, 110880, Note_on_c, 0, 67, 56
1, 110880, Note_on_c, 0, 59, 56
1, 110880, Note_on_c, 0, 43, 46
1, 111000, Note_on_c, 0, 43, 0
1, 111000, Note_on_c, 0, 59, 0
1, 111000, Note_on_c, 0, 67, 0
1, 111360, Marker_t, "2. Teil"
1, 111360, Note_on_c, 0, 74, 51
1, 111360, Note_on_c, 0, 67, 40
1, 111380, Tempo, 914495
1, 111406, Control_c, 0, 64, 127
1, 111480, Note_on_c, 0, 67, 0
1, 111480, Note_on_c, 0, 71, 36
1, 111600, Note_on_c, 0, 71, 0
1, 111600, Note_on_c, 0, 67, 36
1, 111720, Tempo, 914495
1, 111720, Note_on_c, 0, 67, 0
1, 111720, Note_on_c, 0, 74, 0
1, 111720, Note_on_c, 0, 75, 53
1, 111720, Note_on_c, 0, 71, 31
1, 111840, Tempo, 891795
1, 111840, Note_on_c, 0, 71, 0
1, 111840, Note_on_c, 0, 75, 0
1, 111840, Note_on_c, 0, 76, 54
1, 111840, Note_on_c, 0, 67, 40
1, 111847, Control_c, 0, 64, 0
1, 111897, Control_c, 0, 64, 127
1, 111960, Note_on_c, 0, 67, 0
1, 111960, Note_on_c, 0, 76, 0
1, 111960, Note_on_c, 0, 78, 55
1, 111960, Note_on_c, 0, 71, 36
1, 112080, Note_on_c, 0, 71, 0
1, 112080, Note_on_c, 0, 78, 0
1, 112080, Note_on_c, 0, 79, 56
1, 112080, Note_on_c, 0, 65, 40
1, 112091, Control_c, 0, 64, 0
1, 112160, Control_c, 0, 64, 127
1, 112200, Note_on_c, 0, 65, 0
1, 112200, Note_on_c, 0, 79, 0
1, 112200, Note_on_c, 0, 71, 53
1, 112200, Note_on_c, 0, 68, 36
1, 112320, Tempo, 908816
1, 112320, Note_on_c, 0, 68, 0
1, 112320, Note_on_c, 0, 71, 0
1, 112320, Note_on_c, 0, 74, 54
1, 112320, Note_on_c, 0, 64, 40
1, 112326, Control_c, 0, 64, 0
1, 112383, Control_c, 0, 64, 127
1, 112440, Note_on_c, 0, 64, 0
1, 112440, Note_on_c, 0, 74, 0
1, 112440, Note_on_c, 0, 72, 53
1, 112440, Note_on_c, 0, 67, 36
1, 112560, Note_on_c, 0, 67, 0
1, 112560, Note_on_c, 0, 72, 0
1, 112560, Note_on_c, 0, 64, 38
1, 112572, Control_c, 0, 64, 0
1, 112680, Tempo, 891795
1, 112680, Note_on_c, 0, 64, 0
1, 112680, Note_on_c, 0, 71, 51
1, 112680, Note_on_c, 0, 67, 32
1, 112800, Note_on_c, 0, 67, 0
1, 112800, Note_on_c, 0, 71, 0
1, 112800, Note_on_c, 0, 72, 54
1, 112800, Note_on_c, 0, 64, 40
1, 112857, Control_c, 0, 64, 127
1, 112920, Note_on_c, 0, 64, 0
1, 112920, Note_on_c, 0, 72, 0
1, 112920, Note_on_c, 0, 74, 55
1, 112920, Note_on_c, 0, 67, 36
1, 113040, Note_on_c, 0, 67, 0
1, 113040, Note_on_c, 0, 74, 0
1, 113040, Note_on_c, 0, 76, 56
1, 113040, Note_on_c, 0, 62, 40
1, 113047, Control_c, 0, 64, 0
1, 113103, Control_c, 0, 64, 127
1, 113160, Note_on_c, 0, 62, 0
1, 113160, Note_on_c, 0, 76, 0
1, 113160, Note_on_c, 0, 68, 50
1, 113160, Note_on_c, 0, 65, 36
1, 113280, Tempo, 914495
1, 113280, Note_on_c, 0, 65, 0
1, 113280, Note_on_c, 0, 68, 0
1, 113280, Note_on_c, 0, 71, 54
1, 113280, Note_on_c, 0, 60, 40
1, 113288, Control_c, 0, 64, 0
1, 113349, Control_c, 0, 64, 127
1, 113400, Note_on_c, 0, 60, 0
1, 113400, Note_on_c, 0, 71, 0
1, 113400, Note_on_c, 0, 69, 51
1, 113400, Note_on_c, 0, 64, 35
1, 113492, Control_c, 0, 64, 0
1, 113520, Note_on_c, 0, 64, 0
1, 113520, Note_on_c, 0, 69, 0
1, 113520, Note_on_c, 0, 60, 40
1, 113640, Tempo, 891795
1, 113640, Note_on_c, 0, 60, 0
1, 113640, Note_on_c, 0, 68, 51
1, 113640, Note_on_c, 0, 64, 35
1, 113760, Note_on_c, 0, 64, 0
1, 113760, Note_on_c, 0, 68, 0
1, 113760, Note_on_c, 0, 69, 54
1, 113760, Note_on_c, 0, 60, 40
1, 113817, Control_c, 0, 64, 127
1, 113880, Note_on_c, 0, 60, 0
1, 113880, Note_on_c, 0, 69, 0
1, 113880, Note_on_c, 0, 71, 54
1, 113880, Note_on_c, 0, 64, 35
1, 114000, Note_on_c, 0, 64, 0
1, 114000, Note_on_c, 0, 71, 0
1, 114000, Note_on_c, 0, 72, 56
1, 114000, Note_on_c, 0, 60, 40
1, 114014, Control_c, 0, 64, 0
1, 114069, Control_c, 0, 64, 127
1, 114120, Note_on_c, 0, 60, 0
1, 114120, Note_on_c, 0, 72, 0
1, 114120, Note_on_c, 0, 66, 50
1, 114120, Note_on_c, 0, 63, 35
1, 114240, Note_on_c, 0, 63, 0
1, 114240, Note_on_c, 0, 66, 0
1, 114240, Note_on_c, 0, 69, 54
1, 114240, Note_on_c, 0, 59, 38
1, 114257, Control_c, 0, 64, 0
1, 114292, Control_c, 0, 64, 127
1, 114360, Tempo, 946223
1, 114360, Note_on_c, 0, 59, 0
1, 114360, Note_on_c, 0, 69, 0
1, 114360, Note_on_c, 0, 67, 51
1, 114360, Note_on_c, 0, 62, 35
1, 114480, Tempo, 890076
1, 114480, Note_on_c, 0, 62, 0
1, 114480, Note_on_c, 0, 67, 0
1, 114480, Note_on_c, 0, 76, 72
1, 114480, Note_on_c, 0, 60, 38
1, 114497, Control_c, 0, 64, 0
1, 114543, Control_c, 0, 64, 127
1, 114600, Note_on_c, 0, 60, 0
1, 114600, Note_on_c, 0, 76, 0
1, 114600, Note_on_c, 0, 66, 54
1, 114600, Note_on_c, 0, 62, 35
1, 114720, Note_on_c, 0, 62, 0
1, 114720, Note_on_c, 0, 66, 0
1, 114720, Note_on_c, 0, 69, 56
1, 114720, Note_on_c, 0, 59, 38
1, 114732, Control_c, 0, 64, 0
1, 114783, Control_c, 0, 64, 127
1, 114840, Note_on_c, 0, 59, 0
1, 114840, Note_on_c, 0, 69, 0
1, 114840, Note_on_c, 0, 67, 51
1, 114840, Note_on_c, 0, 62, 35
1, 114960, Note_on_c, 0, 62, 0
1, 114960, Note_on_c, 0, 67, 0
1, 114960, Note_on_c, 0, 76, 72
1, 114960, Note_on_c, 0, 60, 38
1, 114972, Control_c, 0, 64, 0
1, 115023, Control_c, 0, 64, 127
1, 115080, Note_on_c, 0, 60, 0
1, 115080, Note_on_c, 0, 76, 0
1, 115080, Note_on_c, 0, 66, 51
1, 115080, Note_on_c, 0, 62, 35
1, 115200, Tempo, 902935
1, 115200, Note_on_c, 0, 62, 0
1, 115200, Note_on_c, 0, 66, 0
1, 115200, Note_on_c, 0, 69, 55
1, 115200, Note_on_c, 0, 59, 38
1, 115206, Control_c, 0, 64, 0
1, 115257, Control_c, 0, 64, 127
1, 115320, Tempo, 961384
1, 115320, Note_on_c, 0, 59, 0
1, 115320, Note_on_c, 0, 69, 0
1, 115320, Note_on_c, 0, 67, 50
1, 115320, Note_on_c, 0, 62, 35
1, 115440, Tempo, 917291
1, 115440, Note_on_c, 0, 62, 0
1, 115440, Note_on_c, 0, 67, 0
1, 115440, Note_on_c, 0, 75, 71
1, 115440, Note_on_c, 0, 60, 38
1, 115457, Control_c, 0, 64, 0
1, 115515, Control_c, 0, 64, 127
1, 115560, Note_on_c, 0, 60, 0
1, 115560, Note_on_c, 0, 75, 0
1, 115560, Note_on_c, 0, 66, 51
1, 115560, Note_on_c, 0, 63, 35
1, 115680, Tempo, 908816
1, 115680, Note_on_c, 0, 63, 0
1, 115680, Note_on_c, 0, 66, 0
1, 115680, Note_on_c, 0, 69, 55
1, 115680, Note_on_c, 0, 59, 38
1, 115695, Control_c, 0, 64, 0
1, 115760, Control_c, 0, 64, 127
1, 115800, Note_on_c, 0, 59, 0
1, 115800, Note_on_c, 0, 69, 0
1, 115800, Note_on_c, 0, 67, 51
1, 115800, Note_on_c, 0, 62, 36
1, 115920, Note_on_c, 0, 62, 0
1, 115920, Note_on_c, 0, 67, 0
1, 115920, Note_on_c, 0, 75, 67
1, 115920, Note_on_c, 0, 60, 38
1, 115929, Control_c, 0, 64, 0
1, 115983, Control_c, 0, 64, 127
1, 116040, Note_on_c, 0, 60, 0
1, 116040, Note_on_c, 0, 75, 0
1, 116040, Note_on_c, 0, 66, 49
1, 116040, Note_on_c, 0, 63, 35
1, 116160, Tempo, 891795
1, 116160, Note_on_c, 0, 63, 0
1, 116160, Note_on_c, 0, 66, 0
1, 116160, Note_on_c, 0, 67, 72
1, 116160, Note_on_c, 0, 59, 43
1, 116160, Note_on_c, 0, 62, 43
1, 116170, Control_c, 0, 64, 0
1, 116280, Note_on_c, 0, 67, 0
1, 116280, Note_on_c, 0, 69, 64
1, 116340, Note_on_c, 0, 71, 65
1, 116352, Note_on_c, 0, 69, 0
1, 116400, Note_on_c, 0, 72, 67
1, 116412, Note_on_c, 0, 71, 0
1, 116460, Note_on_c, 0, 74, 68
1, 116472, Note_on_c, 0, 72, 0
1, 116520, Note_on_c, 0, 76, 69
1, 116532, Note_on_c, 0, 74, 0
1, 116580, Note_on_c, 0, 78, 71
1, 116592, Note_on_c, 0, 76, 0
1, 116640, Tempo, 891795
1, 116640, Note_on_c, 0, 59, 0
1, 116640, Note_on_c, 0, 62, 0
1, 116640, Note_on_c, 0, 79, 72
1, 116652, Note_on_c, 0, 78, 0
1, 116700, Note_on_c, 0, 81, 70
1, 116712, Note_on_c, 0, 79, 0
1, 116720, Tempo, 897263
1, 116760, Tempo, 902935
1, 116760, Note_on_c, 0, 83, 74
1, 116772, Note_on_c, 0, 81, 0
1, 116820, Note_on_c, 0, 78, 72
1, 116832, Note_on_c, 0, 83, 0
1, 116840, Tempo, 908816
1, 116880, Tempo, 914495
1, 116880, Note_on_c, 0, 79, 73
1, 116892, Note_on_c, 0, 78, 0
1, 116940, Note_on_c, 0, 74, 69
1, 116952, Note_on_c, 0, 79, 0
1, 116960, Tempo, 920669
1, 117000, Tempo, 926355
1, 117000, Note_on_c, 0, 76, 71
1, 117012, Note_on_c, 0, 74, 0
1, 117060, Note_on_c, 0, 71, 68
1, 117072, Note_on_c, 0, 76, 0
1, 117080, Tempo, 932546
1, 117120, Tempo, 902935
1, 117120, Note_on_c, 0, 74, 81
1, 117120, Note_on_c, 0, 50, 54
1, 117132, Note_on_c, 0, 71, 0
1, 117171, Control_c, 0, 64, 127
1, 117240, Note_on_c, 0, 50, 0
1, 117240, Note_on_c, 0, 59, 50
1, 117360, Note_on_c, 0, 59, 0
1, 117360, Note_on_c, 0, 55, 54
1, 117480, Note_on_c, 0, 55, 0
1, 117480, Note_on_c, 0, 59, 50
1, 117600, Note_on_c, 0, 59, 0
1, 117600, Note_on_c, 0, 74, 0
1, 117600, Note_on_c, 0, 72, 62
1, 117600, Note_on_c, 0, 50, 54
1, 117611, Control_c, 0, 64, 0
1, 117640, Note_on_c, 0, 74, 56
1, 117645, Note_on_c, 0, 72, 0
1, 117654, Control_c, 0, 64, 127
1, 117680, Note_on_c, 0, 72, 58
1, 117685, Note_on_c, 0, 74, 0
1, 117720, Note_on_c, 0, 50, 0
1, 117720, Note_on_c, 0, 74, 56
1, 117720, Note_on_c, 0, 57, 49
1, 117725, Note_on_c, 0, 72, 0
1, 117760, Note_on_c, 0, 72, 57
1, 117765, Note_on_c, 0, 74, 0
1, 117800, Note_on_c, 0, 74, 53
1, 117805, Note_on_c, 0, 72, 0
1, 117840, Note_on_c, 0, 57, 0
1, 117840, Note_on_c, 0, 72, 59
1, 117840, Note_on_c, 0, 54, 54
1, 117845, Note_on_c, 0, 74, 0
1, 117880, Note_on_c, 0, 74, 56
1, 117885, Note_on_c, 0, 72, 0
1, 117920, Note_on_c, 0, 72, 63
1, 117925, Note_on_c, 0, 74, 0
1, 117960, Note_on_c, 0, 54, 0
1, 117960, Note_on_c, 0, 71, 61
1, 117960, Note_on_c, 0, 57, 50
1, 117980, Note_on_c, 0, 72, 0
1, 118020, Note_on_c, 0, 71, 0
1, 118020, Note_on_c, 0, 72, 59
1, 118080, Tempo, 891795
1, 118080, Note_on_c, 0, 72, 0
1, 118080, Note_on_c, 0, 57, 0
1, 118080, Note_on_c, 0, 71, 66
1, 118080, Note_on_c, 0, 55, 46
1, 118098, Control_c, 0, 64, 0
1, 118152, Control_c, 0, 64, 127
1, 118200, Note_on_c, 0, 55, 0
1, 118200, Note_on_c, 0, 59, 43
1, 118320, Note_on_c, 0, 59, 0
1, 118320, Note_on_c, 0, 62, 45
1, 118440, Note_on_c, 0, 62, 0
1, 118440, Note_on_c, 0, 59, 40
1, 118560, Note_on_c, 0, 59, 0
1, 118560, Note_on_c, 0, 71, 0
1, 118560, Note_on_c, 0, 55, 50
1, 118577, Control_c, 0, 64, 0
1, 118650, Note_on_c, 0, 69, 38
1, 118680, Note_on_c, 0, 69, 0
1, 118680, Note_on_c, 0, 67, 48
1, 118740, Note_on_c, 0, 67, 0
1, 118740, Note_on_c, 0, 66, 44
1, 118800, Note_on_c, 0, 66, 0
1, 118800, Note_on_c, 0, 55, 0
1, 118800, Note_on_c, 0, 67, 51
1, 118830, Note_on_c, 0, 67, 0
1, 118920, Tempo, 961384
1, 118920, Note_on_c, 0, 71, 51
1, 118950, Note_on_c, 0, 71, 0
1, 119040, Tempo, 964010
1, 119040, Note_on_c, 0, 76, 55
1, 119040, Note_on_c, 0, 55, 40
1, 119061, Tempo, 936330
1, 119072, Control_c, 0, 64, 127
1, 119160, Note_on_c, 0, 55, 0
1, 119160, Note_on_c, 0, 59, 32
1, 119280, Note_on_c, 0, 59, 0
1, 119280, Note_on_c, 0, 76, 0
1, 119280, Note_on_c, 0, 74, 51
1, 119280, Note_on_c, 0, 62, 36
1, 119400, Note_on_c, 0, 62, 0
1, 119400, Note_on_c, 0, 59, 31
1, 119520, Tempo, 882742
1, 119520, Note_on_c, 0, 59, 0
1, 119520, Note_on_c, 0, 74, 0
1, 119520, Note_on_c, 0, 55, 40
1, 119577, Control_c, 0, 64, 0
1, 119610, Note_on_c, 0, 72, 37
1, 119640, Note_on_c, 0, 72, 0
1, 119640, Note_on_c, 0, 71, 48
1, 119700, Note_on_c, 0, 71, 0
1, 119700, Note_on_c, 0, 69, 45
1, 119760, Note_on_c, 0, 69, 0
1, 119760, Note_on_c, 0, 55, 0
1, 119760, Note_on_c, 0, 71, 54
1, 119790, Note_on_c, 0, 71, 0
1, 119880, Tempo, 946223
1, 119880, Note_on_c, 0, 74, 54
1, 119910, Note_on_c, 0, 74, 0
1, 120000, Tempo, 949217
1, 120000, Note_on_c, 0, 79, 64
1, 120000, Note_on_c, 0, 55, 40
1, 120046, Control_c, 0, 64, 127
1, 120120, Note_on_c, 0, 55, 0
1, 120120, Note_on_c, 0, 59, 36
1, 120240, Note_on_c, 0, 59, 0
1, 120240, Note_on_c, 0, 79, 0
1, 120240, Note_on_c, 0, 77, 56
1, 120240, Note_on_c, 0, 62, 40
1, 120360, Note_on_c, 0, 62, 0
1, 120360, Note_on_c, 0, 59, 38
1, 120480, Tempo, 888362
1, 120480, Note_on_c, 0, 59, 0
1, 120480, Note_on_c, 0, 77, 0
1, 120480, Note_on_c, 0, 55, 44
1, 120532, Control_c, 0, 64, 0
1, 120570, Note_on_c, 0, 76, 54
1, 120600, Note_on_c, 0, 76, 0
1, 120600, Note_on_c, 0, 74, 67
1, 120660, Note_on_c, 0, 74, 0
1, 120660, Note_on_c, 0, 73, 61
1, 120720, Note_on_c, 0, 73, 0
1, 120720, Note_on_c, 0, 55, 0
1, 120720, Note_on_c, 0, 74, 71
1, 120750, Note_on_c, 0, 74, 0
1, 120840, Note_on_c, 0, 77, 74
1, 120870, Note_on_c, 0, 77, 0
1, 120960, Tempo, 942951
1, 120960, Note_on_c, 0, 84, 75
1, 120960, Note_on_c, 0, 56, 64
1, 121003, Control_c, 0, 64, 127
1, 121080, Note_on_c, 0, 84, 0
1, 121080, Note_on_c, 0, 83, 71
1, 121200, Note_on_c, 0, 56, 0
1, 121200, Note_on_c, 0, 59, 64
1, 121320, Note_on_c, 0, 83, 0
1, 121320, Note_on_c, 0, 86, 81
1, 121440, Note_on_c, 0, 59, 0
1, 121440, Note_on_c, 0, 62, 69
1, 121560, Tempo, 911854
1, 121560, Note_on_c, 0, 86, 0
1, 121560, Note_on_c, 0, 80, 73
1, 121680, Note_on_c, 0, 62, 0
1, 121680, Note_on_c, 0, 65, 65
1, 121800, Note_on_c, 0, 80, 0
1, 121800, Note_on_c, 0, 83, 81
1, 121920, Note_on_c, 0, 65, 0
1, 121920, Note_on_c, 0, 59, 69
1, 121935, Control_c, 0, 64, 0
1, 122005, Control_c, 0, 64, 127
1, 122040, Tempo, 942951
1, 122040, Note_on_c, 0, 83, 0
1, 122040, Note_on_c, 0, 74, 78
1, 122160, Note_on_c, 0, 59, 0
1, 122160, Note_on_c, 0, 57, 63
1, 122280, Note_on_c, 0, 74, 0
1, 122280, Note_on_c, 0, 77, 84
1, 122400, Note_on_c, 0, 57, 0
1, 122400, Note_on_c, 0, 56, 67
1, 122416, Control_c, 0, 64, 0
1, 122499, Control_c, 0, 64, 127
1, 122520, Tempo, 917712
1, 122520, Note_on_c, 0, 77, 0
1, 122520, Note_on_c, 0, 76, 81
1, 122640, Note_on_c, 0, 56, 0
1, 122640, Note_on_c, 0, 64, 63
1, 122760, Note_on_c, 0, 76, 0
1, 122760, Note_on_c, 0, 74, 72
1, 122880, Tempo, 888362
1, 122880, Note_on_c, 0, 74, 0
1, 122880, Note_on_c, 0, 64, 0
1, 122880, Note_on_c, 0, 72, 61
1, 122880, Note_on_c, 0, 57, 38
1, 122888, Control_c, 0, 64, 0
1, 122937, Control_c, 0, 64, 127
1, 123000, Note_on_c, 0, 57, 0
1, 123000, Note_on_c, 0, 60, 35
1, 123120, Note_on_c, 0, 60, 0
1, 123120, Note_on_c, 0, 64, 35
1, 123240, Note_on_c, 0, 64, 0
1, 123240, Note_on_c, 0, 60, 35
1, 123360, Note_on_c, 0, 60, 0
1, 123360, Note_on_c, 0, 57, 38
1, 123370, Control_c, 0, 64, 0
1, 123420, Control_c, 0, 64, 127
1, 123450, Note_on_c, 0, 72, 0
1, 123450, Note_on_c, 0, 74, 46
1, 123480, Note_on_c, 0, 74, 0
1, 123480, Note_on_c, 0, 57, 0
1, 123480, Note_on_c, 0, 72, 54
1, 123480, Note_on_c, 0, 60, 35
1, 123540, Note_on_c, 0, 72, 0
1, 123540, Note_on_c, 0, 71, 48
1, 123600, Tempo, 908816
1, 123600, Note_on_c, 0, 71, 0
1, 123600, Note_on_c, 0, 60, 0
1, 123600, Note_on_c, 0, 72, 54
1, 123600, Note_on_c, 0, 65, 35
1, 123720, Note_on_c, 0, 65, 0
1, 123720, Note_on_c, 0, 72, 0
1, 123720, Note_on_c, 0, 74, 53
1, 123720, Note_on_c, 0, 60, 35
1, 123780, Note_on_c, 0, 74, 0
1, 123840, Tempo, 923930
1, 123840, Note_on_c, 0, 60, 0
1, 123840, Note_on_c, 0, 72, 56
1, 123840, Note_on_c, 0, 55, 38
1, 123849, Control_c, 0, 64, 0
1, 123891, Control_c, 0, 64, 127
1, 123960, Note_on_c, 0, 55, 0
1, 123960, Note_on_c, 0, 62, 35
1, 124080, Note_on_c, 0, 62, 0
1, 124080, Note_on_c, 0, 65, 35
1, 124200, Note_on_c, 0, 65, 0
1, 124200, Note_on_c, 0, 62, 35
1, 124320, Tempo, 923930
1, 124320, Note_on_c, 0, 62, 0
1, 124320, Note_on_c, 0, 72, 0
1, 124320, Note_on_c, 0, 70, 62
1, 124320, Note_on_c, 0, 55, 43
1, 124331, Control_c, 0, 64, 0
1, 124354, Control_c, 0, 64, 127
1, 124360, Note_on_c, 0, 72, 56
1, 124365, Note_on_c, 0, 70, 0
1, 124400, Note_on_c, 0, 70, 58
1, 124405, Note_on_c, 0, 72, 0
1, 124440, Note_on_c, 0, 55, 0
1, 124440, Note_on_c, 0, 72, 56
1, 124440, Note_on_c, 0, 60, 39
1, 124445, Note_on_c, 0, 70, 0
1, 124480, Note_on_c, 0, 70, 57
1, 124485, Note_on_c, 0, 72, 0
1, 124520, Note_on_c, 0, 72, 53
1, 124525, Note_on_c, 0, 70, 0
1, 124560, Note_on_c, 0, 60, 0
1, 124560, Note_on_c, 0, 70, 59
1, 124560, Note_on_c, 0, 64, 39
1, 124565, Note_on_c, 0, 72, 0
1, 124600, Note_on_c, 0, 72, 56
1, 124605, Note_on_c, 0, 70, 0
1, 124640, Note_on_c, 0, 70, 63
1, 124645, Note_on_c, 0, 72, 0
1, 124680, Note_on_c, 0, 64, 0
1, 124680, Note_on_c, 0, 69, 61
1, 124680, Note_on_c, 0, 60, 39
1, 124700, Note_on_c, 0, 70, 0
1, 124740, Note_on_c, 0, 69, 0
1, 124740, Note_on_c, 0, 70, 59
1, 124800, Tempo, 942951
1, 124800, Note_on_c, 0, 70, 0
1, 124800, Note_on_c, 0, 60, 0
1, 124800, Note_on_c, 0, 69, 68
1, 124800, Note_on_c, 0, 53, 48
1, 124816, Control_c, 0, 64, 0
1, 124857, Control_c, 0, 64, 127
1, 124920, Note_on_c, 0, 53, 0
1, 124920, Note_on_c, 0, 69, 0
1, 124920, Note_on_c, 0, 72, 71
1, 124920, Note_on_c, 0, 60, 39
1, 125040, Note_on_c, 0, 60, 0
1, 125040, Note_on_c, 0, 65, 54
1, 125160, Note_on_c, 0, 65, 0
1, 125160, Note_on_c, 0, 72, 0
1, 125160, Note_on_c, 0, 77, 76
1, 125160, Note_on_c, 0, 60, 43
1, 125280, Note_on_c, 0, 60, 0
1, 125280, Note_on_c, 0, 53, 54
1, 125290, Control_c, 0, 64, 0
1, 125343, Control_c, 0, 64, 127
1, 125400, Tempo, 923930
1, 125400, Note_on_c, 0, 53, 0
1, 125400, Note_on_c, 0, 77, 0
1, 125400, Note_on_c, 0, 81, 77
1, 125400, Note_on_c, 0, 57, 48
1, 125520, Note_on_c, 0, 57, 0
1, 125520, Note_on_c, 0, 62, 59
1, 125640, Tempo, 993213
1, 125640, Note_on_c, 0, 62, 0
1, 125640, Note_on_c, 0, 81, 0
1, 125640, Note_on_c, 0, 82, 78
1, 125640, Note_on_c, 0, 57, 51
1, 125760, Tempo, 903478
1, 125760, Note_on_c, 0, 57, 0
1, 125760, Note_on_c, 0, 82, 0
1, 125760, Note_on_c, 0, 81, 83
1, 125760, Note_on_c, 0, 52, 59
1, 125781, Control_c, 0, 64, 0
1, 125806, Control_c, 0, 64, 127
1, 125880, Note_on_c, 0, 52, 0
1, 125880, Note_on_c, 0, 57, 46
1, 126000, Note_on_c, 0, 57, 0
1, 126000, Note_on_c, 0, 61, 51
1, 126120, Note_on_c, 0, 61, 0
1, 126120, Note_on_c, 0, 57, 45
1, 126240, Note_on_c, 0, 57, 0
1, 126240, Note_on_c, 0, 81, 0
1, 126240, Note_on_c, 0, 79, 77
1, 126240, Note_on_c, 0, 52, 56
1, 126257, Control_c, 0, 64, 0
1, 126315, Control_c, 0, 64, 127
1, 126360, Note_on_c, 0, 52, 0
1, 126360, Note_on_c, 0, 57, 45
1, 126480, Note_on_c, 0, 57, 0
1, 126480, Note_on_c, 0, 79, 0
1, 126480, Note_on_c, 0, 61, 50
1, 126488, Control_c, 0, 64, 0
1, 126600, Tempo, 1011634
1, 126600, Note_on_c, 0, 61, 0
1, 126600, Note_on_c, 0, 57, 45
1, 126720, Tempo, 894188
1, 126720, Note_on_c, 0, 57, 0
1, 126720, Note_on_c, 0, 79, 70
1, 126720, Note_on_c, 0, 50, 36
1, 126777, Control_c, 0, 64, 127
1, 126840, Note_on_c, 0, 50, 0
1, 126840, Note_on_c, 0, 57, 32
1, 126960, Note_on_c, 0, 57, 0
1, 126960, Note_on_c, 0, 60, 32
1, 127080, Tempo, 930233
1, 127080, Note_on_c, 0, 60, 0
1, 127080, Note_on_c, 0, 79, 0
1, 127080, Note_on_c, 0, 78, 61
1, 127080, Note_on_c, 0, 57, 32
1, 127200, Tempo, 917712
1, 127200, Note_on_c, 0, 57, 0
1, 127200, Note_on_c, 0, 78, 0
1, 127200, Note_on_c, 0, 77, 57
1, 127200, Note_on_c, 0, 50, 36
1, 127210, Control_c, 0, 64, 0
1, 127257, Control_c, 0, 64, 127
1, 127320, Note_on_c, 0, 50, 0
1, 127320, Note_on_c, 0, 77, 0
1, 127320, Note_on_c, 0, 55, 33
1, 127440, Note_on_c, 0, 55, 0
1, 127440, Note_on_c, 0, 59, 33
1, 127456, Control_c, 0, 64, 0
1, 127560, Note_on_c, 0, 59, 0
1, 127560, Note_on_c, 0, 55, 33
1, 127680, Tempo, 899955
1, 127680, Note_on_c, 0, 55, 0
1, 127680, Note_on_c, 0, 77, 61
1, 127680, Note_on_c, 0, 48, 38
1, 127726, Control_c, 0, 64, 127
1, 127800, Note_on_c, 0, 48, 0
1, 127800, Note_on_c, 0, 55, 36
1, 127920, Note_on_c, 0, 55, 0
1, 127920, Note_on_c, 0, 60, 36
1, 128040, Tempo, 936330
1, 128040, Note_on_c, 0, 60, 0
1, 128040, Note_on_c, 0, 77, 0
1, 128040, Note_on_c, 0, 76, 55
1, 128040, Note_on_c, 0, 55, 36
1, 128160, Tempo, 923930
1, 128160, Note_on_c, 0, 55, 0
1, 128160, Note_on_c, 0, 76, 0
1, 128160, Note_on_c, 0, 75, 54
1, 128160, Note_on_c, 0, 48, 38
1, 128177, Control_c, 0, 64, 0
1, 128229, Control_c, 0, 64, 127
1, 128280, Note_on_c, 0, 48, 0
1, 128280, Note_on_c, 0, 75, 0
1, 128280, Note_on_c, 0, 55, 34
1, 128355, Control_c, 0, 64, 0
1, 128400, Note_on_c, 0, 55, 0
1, 128400, Note_on_c, 0, 60, 34
1, 128520, Note_on_c, 0, 60, 0
1, 128520, Note_on_c, 0, 55, 34
1, 128640, Tempo, 917712
1, 128640, Note_on_c, 0, 55, 0
1, 128640, Note_on_c, 0, 75, 63
1, 128640, Note_on_c, 0, 53, 43
1, 128683, Control_c, 0, 64, 127
1, 128760, Note_on_c, 0, 53, 0
1, 128760, Note_on_c, 0, 75, 0
1, 128760, Note_on_c, 0, 74, 60
1, 128760, Note_on_c, 0, 56, 38
1, 128880, Tempo, 923930
1, 128880, Note_on_c, 0, 56, 0
1, 128880, Note_on_c, 0, 74, 0
1, 128880, Note_on_c, 0, 74, 57
1, 128880, Note_on_c, 0, 60, 38
1, 128889, Control_c, 0, 64, 0
1, 128930, Control_c, 0, 64, 127
1, 128940, Note_on_c, 0, 74, 0
1, 129000, Note_on_c, 0, 60, 0
1, 129000, Note_on_c, 0, 74, 60
1, 129000, Note_on_c, 0, 56, 38
1, 129060, Note_on_c, 0, 74, 0
1, 129120, Tempo, 930233
1, 129120, Note_on_c, 0, 56, 0
1, 129120, Note_on_c, 0, 74, 60
1, 129120, Note_on_c, 0, 53, 43
1, 129133, Control_c, 0, 64, 0
1, 129166, Control_c, 0, 64, 127
1, 129240, Note_on_c, 0, 53, 0
1, 129240, Note_on_c, 0, 56, 38
1, 129360, Tempo, 936330
1, 129360, Note_on_c, 0, 56, 0
1, 129360, Note_on_c, 0, 74, 0
1, 129360, Note_on_c, 0, 74, 60
1, 129360, Note_on_c, 0, 60, 38
1, 129480, Note_on_c, 0, 60, 0
1, 129480, Note_on_c, 0, 56, 38
1, 129600, Tempo, 942951
1, 129600, Note_on_c, 0, 56, 0
1, 129600, Note_on_c, 0, 74, 0
1, 129600, Note_on_c, 0, 74, 62
1, 129600, Note_on_c, 0, 54, 43
1, 129621, Control_c, 0, 64, 0
1, 129671, Control_c, 0, 64, 127
1, 129720, Tempo, 975927
1, 129720, Note_on_c, 0, 54, 0
1, 129720, Note_on_c, 0, 57, 45
1, 129810, Note_on_c, 0, 74, 0
1, 129810, Note_on_c, 0, 77, 64
1, 129840, Tempo, 911854
1, 129840, Note_on_c, 0, 77, 0
1, 129840, Note_on_c, 0, 57, 0
1, 129840, Note_on_c, 0, 75, 72
1, 129840, Note_on_c, 0, 60, 48
1, 129960, Note_on_c, 0, 60, 0
1, 129960, Note_on_c, 0, 57, 45
1, 130080, Note_on_c, 0, 57, 0
1, 130080, Note_on_c, 0, 54, 43
1, 130094, Control_c, 0, 64, 0
1, 130137, Control_c, 0, 64, 127
1, 130200, Tempo, 962464
1, 130200, Note_on_c, 0, 54, 0
1, 130200, Note_on_c, 0, 57, 39
1, 130290, Note_on_c, 0, 75, 0
1, 130290, Note_on_c, 0, 74, 57
1, 130320, Tempo, 917712
1, 130320, Note_on_c, 0, 74, 0
1, 130320, Note_on_c, 0, 57, 0
1, 130320, Note_on_c, 0, 72, 63
1, 130320, Note_on_c, 0, 60, 39
1, 130440, Note_on_c, 0, 60, 0
1, 130440, Note_on_c, 0, 57, 39
1, 130560, Note_on_c, 0, 57, 0
1, 130560, Note_on_c, 0, 72, 0
1, 130560, Note_on_c, 0, 71, 54
1, 130560, Note_on_c, 0, 55, 39
1, 130560, Control_c, 0, 64, 0
1, 130617, Control_c, 0, 64, 127
1, 130680, Note_on_c, 0, 71, 0
1, 130680, Note_on_c, 0, 79, 54
1, 130788, Note_on_c, 0, 55, 0
1, 130800, Note_on_c, 0, 79, 0
1, 130800, Note_on_c, 0, 55, 41
1, 130880, Tempo, 911854
1, 130880, Control_c, 0, 64, 0
1, 130920, Note_on_c, 0, 79, 56
1, 131028, Note_on_c, 0, 55, 0
1, 131040, Tempo, 905934
1, 131040, Note_on_c, 0, 79, 0
1, 131040, Note_on_c, 0, 57, 45
1, 131040, Note_on_c, 0, 55, 45
1, 131160, Note_on_c, 0, 78, 57
1, 131200, Tempo, 899955
1, 131268, Note_on_c, 0, 55, 0
1, 131268, Note_on_c, 0, 57, 0
1, 131280, Note_on_c, 0, 78, 0
1, 131280, Note_on_c, 0, 59, 46
1, 131280, Note_on_c, 0, 55, 46
1, 131360, Tempo, 894188
1, 131400, Note_on_c, 0, 77, 60
1, 131508, Note_on_c, 0, 55, 0
1, 131508, Note_on_c, 0, 59, 0
1, 131520, Tempo, 917712
1, 131520, Note_on_c, 0, 77, 0
1, 131520, Note_on_c, 0, 77, 64
1, 131520, Note_on_c, 0, 60, 50
1, 131520, Note_on_c, 0, 55, 50
1, 131595, Control_c, 0, 64, 127
1, 131640, Note_on_c, 0, 77, 0
1, 131640, Note_on_c, 0, 76, 61
1, 131737, Control_c, 0, 64, 0
1, 131748, Note_on_c, 0, 55, 0
1, 131748, Note_on_c, 0, 60, 0
1, 131760, Tempo, 905934
1, 131760, Note_on_c, 0, 76, 0
1, 131760, Note_on_c, 0, 67, 48
1, 131760, Note_on_c, 0, 55, 48
1, 131880, Tempo, 899955
1, 131880, Note_on_c, 0, 75, 59
1, 131988, Note_on_c, 0, 55, 0
1, 131988, Note_on_c, 0, 67, 0
1, 132000, Tempo, 894188
1, 132000, Note_on_c, 0, 75, 0
1, 132000, Note_on_c, 0, 65, 46
1, 132000, Note_on_c, 0, 55, 46
1, 132080, Tempo, 888362
1, 132120, Note_on_c, 0, 74, 56
1, 132200, Tempo, 882742
1, 132228, Note_on_c, 0, 55, 0
1, 132228, Note_on_c, 0, 65, 0
1, 132240, Note_on_c, 0, 74, 0
1, 132240, Note_on_c, 0, 63, 44
1, 132240, Note_on_c, 0, 55, 44
1, 132320, Tempo, 877193
1, 132360, Note_on_c, 0, 72, 54
1, 132400, Tempo, 871586
1, 132468, Note_on_c, 0, 55, 0
1, 132468, Note_on_c, 0, 63, 0
1, 132480, Tempo, 917712
1, 132480, Note_on_c, 0, 72, 0
1, 132480, Note_on_c, 0, 72, 60
1, 132480, Note_on_c, 0, 62, 45
1, 132480, Note_on_c, 0, 55, 45
1, 132523, Control_c, 0, 64, 127
1, 132600, Note_on_c, 0, 72, 0
1, 132600, Note_on_c, 0, 71, 54
1, 132708, Note_on_c, 0, 55, 0
1, 132708, Note_on_c, 0, 62, 0
1, 132720, Note_on_c, 0, 71, 0
1, 132720, Note_on_c, 0, 59, 48
1, 132720, Note_on_c, 0, 55, 48
1, 132730, Control_c, 0, 64, 0
1, 132780, Note_on_c, 0, 79, 56
1, 132806, Control_c, 0, 64, 127
1, 132840, Note_on_c, 0, 79, 0
1, 132840, Note_on_c, 0, 81, 60
1, 132900, Note_on_c, 0, 81, 0
1, 132900, Note_on_c, 0, 79, 55
1, 132948, Note_on_c, 0, 55, 0
1, 132948, Note_on_c, 0, 59, 0
1, 132960, Note_on_c, 0, 79, 0
1, 132960, Note_on_c, 0, 57, 51
1, 132960, Note_on_c, 0, 55, 51
1, 132972, Control_c, 0, 64, 0
1, 133009, Control_c, 0, 64, 127
1, 133020, Note_on_c, 0, 78, 61
1, 133080, Note_on_c, 0, 78, 0
1, 133080, Note_on_c, 0, 79, 66
1, 133140, Note_on_c, 0, 79, 0
1, 133140, Note_on_c, 0, 78, 60
1, 133188, Note_on_c, 0, 55, 0
1, 133188, Note_on_c, 0, 57, 0
1, 133200, Note_on_c, 0, 78, 0
1, 133200, Note_on_c, 0, 59, 54
1, 133200, Note_on_c, 0, 55, 54
1, 133212, Control_c, 0, 64, 0
1, 133246, Control_c, 0, 64, 127
1, 133260, Note_on_c, 0, 77, 63
1, 133320, Note_on_c, 0, 77, 0
1, 133320, Note_on_c, 0, 79, 70
1, 133380, Note_on_c, 0, 79, 0
1, 133380, Note_on_c, 0, 77, 65
1, 133428, Note_on_c, 0, 55, 0
1, 133428, Note_on_c, 0, 59, 0
1, 133440, Tempo, 917712
1, 133440, Note_on_c, 0, 77, 0
1, 133440, Note_on_c, 0, 60, 57
1, 133440, Note_on_c, 0, 55, 57
1, 133455, Control_c, 0, 64, 0
1, 133475, Control_c, 0, 64, 127
1, 133500, Note_on_c, 0, 76, 73
1, 133560, Note_on_c, 0, 76, 0
1, 133560, Note_on_c, 0, 77, 76
1, 133620, Note_on_c, 0, 77, 0
1, 133620, Note_on_c, 0, 76, 71
1, 133668, Note_on_c, 0, 55, 0
1, 133668, Note_on_c, 0, 60, 0
1, 133680, Tempo, 911854
1, 133680, Note_on_c, 0, 76, 0
1, 133680, Note_on_c, 0, 67, 61
1, 133680, Note_on_c, 0, 55, 61
1, 133690, Control_c, 0, 64, 0
1, 133723, Control_c, 0, 64, 127
1, 133740, Note_on_c, 0, 75, 73
1, 133800, Note_on_c, 0, 75, 0
1, 133800, Note_on_c, 0, 77, 80
1, 133860, Note_on_c, 0, 77, 0
1, 133860, Note_on_c, 0, 75, 73
1, 133908, Note_on_c, 0, 55, 0
1, 133908, Note_on_c, 0, 67, 0
1, 133920, Tempo, 905934
1, 133920, Note_on_c, 0, 75, 0
1, 133920, Note_on_c, 0, 65, 64
1, 133920, Note_on_c, 0, 55, 64
1, 133926, Control_c, 0, 64, 0
1, 133966, Control_c, 0, 64, 127
1, 133980, Note_on_c, 0, 74, 79
1, 134040, Note_on_c, 0, 74, 0
1, 134040, Note_on_c, 0, 75, 83
1, 134100, Note_on_c, 0, 75, 0
1, 134100, Note_on_c, 0, 74, 79
1, 134148, Note_on_c, 0, 55, 0
1, 134148, Note_on_c, 0, 65, 0
1, 134160, Tempo, 899955
1, 134160, Note_on_c, 0, 74, 0
1, 134160, Note_on_c, 0, 63, 67
1, 134160, Note_on_c, 0, 54, 67
1, 134169, Control_c, 0, 64, 0
1, 134209, Control_c, 0, 64, 127
1, 134220, Note_on_c, 0, 72, 82
1, 134280, Note_on_c, 0, 72, 0
1, 134280, Note_on_c, 0, 74, 87
1, 134340, Note_on_c, 0, 74, 0
1, 134340, Note_on_c, 0, 72, 86
1, 134388, Note_on_c, 0, 54, 0
1, 134388, Note_on_c, 0, 63, 0
1, 134400, Tempo, 894188
1, 134400, Note_on_c, 0, 72, 0
1, 134400, Note_on_c, 0, 71, 88
1, 134400, Note_on_c, 0, 55, 71
1, 134400, Note_on_c, 0, 62, 71
1, 134409, Control_c, 0, 64, 0
1, 134449, Control_c, 0, 64, 127
1, 134460, Note_on_c, 0, 71, 0
1, 134490, Note_on_c, 0, 72, 71
1, 134520, Note_on_c, 0, 72, 0
1, 134520, Note_on_c, 0, 71, 75
1, 134580, Note_on_c, 0, 71, 0
1, 134580, Note_on_c, 0, 69, 75
1, 134640, Note_on_c, 0, 69, 0
1, 134640, Note_on_c, 0, 62, 0
1, 134640, Note_on_c, 0, 55, 0
1, 134640, Note_on_c, 0, 71, 79
1, 134653, Control_c, 0, 64, 0
1, 134760, Note_on_c, 0, 71, 0
1, 134760, Note_on_c, 0, 72, 76
1, 134820, Note_on_c, 0, 72, 0
1, 134880, Tempo, 894188
1, 134880, Note_on_c, 0, 74, 79
1, 134940, Note_on_c, 0, 74, 0
1, 134970, Note_on_c, 0, 76, 68
1, 135000, Tempo, 899955
1, 135000, Note_on_c, 0, 76, 0
1, 135000, Note_on_c, 0, 74, 72
1, 135060, Note_on_c, 0, 74, 0
1, 135060, Note_on_c, 0, 73, 72
1, 135080, Tempo, 905934
1, 135120, Note_on_c, 0, 73, 0
1, 135120, Note_on_c, 0, 74, 79
1, 135200, Tempo, 911854
1, 135240, Note_on_c, 0, 74, 0
1, 135240, Note_on_c, 0, 76, 79
1, 135280, Tempo, 917712
1, 135300, Note_on_c, 0, 76, 0
1, 135360, Tempo, 923930
1, 135360, Note_on_c, 0, 77, 73
1, 135360, Note_on_c, 0, 62, 38
1, 135360, Note_on_c, 0, 55, 38
1, 135480, Tempo, 888362
1, 135600, Note_on_c, 0, 55, 0
1, 135600, Note_on_c, 0, 62, 0
1, 135600, Note_on_c, 0, 77, 0
1, 135660, Note_on_c, 0, 79, 54
1, 135681, Control_c, 0, 64, 127
1, 135720, Note_on_c, 0, 79, 0
1, 135720, Note_on_c, 0, 76, 56
1, 135720, Note_on_c, 0, 61, 38
1, 135780, Note_on_c, 0, 76, 0
1, 135780, Note_on_c, 0, 79, 54
1, 135840, Note_on_c, 0, 79, 0
1, 135840, Note_on_c, 0, 61, 0
1, 135840, Note_on_c, 0, 77, 54
1, 135840, Note_on_c, 0, 62, 38
1, 135840, Note_on_c, 0, 55, 38
1, 135851, Control_c, 0, 64, 0
1, 136080, Note_on_c, 0, 55, 0
1, 136080, Note_on_c, 0, 62, 0
1, 136080, Note_on_c, 0, 77, 0
1, 136140, Note_on_c, 0, 79, 53
1, 136154, Control_c, 0, 64, 127
1, 136200, Note_on_c, 0, 79, 0
1, 136200, Note_on_c, 0, 76, 56
1, 136200, Note_on_c, 0, 61, 38
1, 136260, Note_on_c, 0, 76, 0
1, 136260, Note_on_c, 0, 79, 53
1, 136320, Note_on_c, 0, 79, 0
1, 136320, Note_on_c, 0, 61, 0
1, 136320, Note_on_c, 0, 77, 53
1, 136320, Note_on_c, 0, 62, 38
1, 136320, Note_on_c, 0, 55, 38
1, 136334, Control_c, 0, 64, 0
1, 136560, Note_on_c, 0, 55, 0
1, 136560, Note_on_c, 0, 62, 0
1, 136560, Note_on_c, 0, 77, 0
1, 136620, Note_on_c, 0, 79, 55
1, 136638, Control_c, 0, 64, 127
1, 136680, Note_on_c, 0, 79, 0
1, 136680, Note_on_c, 0, 76, 57
1, 136680, Note_on_c, 0, 61, 40
1, 136740, Note_on_c, 0, 76, 0
1, 136740, Note_on_c, 0, 79, 61
1, 136800, Tempo, 888362
1, 136800, Note_on_c, 0, 79, 0
1, 136800, Note_on_c, 0, 61, 0
1, 136800, Note_on_c, 0, 77, 63
1, 136800, Note_on_c, 0, 55, 45
1, 136800, Note_on_c, 0, 62, 45
1, 136811, Control_c, 0, 64, 0
1, 136850, Control_c, 0, 64, 127
1, 136860, Note_on_c, 0, 77, 0
1, 136860, Note_on_c, 0, 79, 66
1, 136920, Tempo, 894188
1, 136920, Note_on_c, 0, 79, 0
1, 136920, Note_on_c, 0, 62, 0
1, 136920, Note_on_c, 0, 76, 70
1, 136920, Note_on_c, 0, 61, 49
1, 136929, Control_c, 0, 64, 0
1, 136980, Note_on_c, 0, 76, 0
1, 136980, Note_on_c, 0, 79, 68
1, 136980, Control_c, 0, 64, 127
1, 137040, Tempo, 899955
1, 137040, Note_on_c, 0, 79, 0
1, 137040, Note_on_c, 0, 61, 0
1, 137040, Note_on_c, 0, 55, 0
1, 137040, Note_on_c, 0, 77, 75
1, 137040, Note_on_c, 0, 55, 54
1, 137040, Note_on_c, 0, 62, 54
1, 137049, Control_c, 0, 64, 0
1, 137090, Control_c, 0, 64, 127
1, 137100, Note_on_c, 0, 77, 0
1, 137100, Note_on_c, 0, 79, 73
1, 137160, Tempo, 905934
1, 137160, Note_on_c, 0, 79, 0
1, 137160, Note_on_c, 0, 62, 0
1, 137160, Note_on_c, 0, 76, 81
1, 137160, Note_on_c, 0, 61, 59
1, 137178, Control_c, 0, 64, 0
1, 137210, Control_c, 0, 64, 127
1, 137220, Note_on_c, 0, 76, 0
1, 137220, Note_on_c, 0, 79, 79
1, 137280, Note_on_c, 0, 79, 0
1, 137280, Note_on_c, 0, 61, 0
1, 137280, Note_on_c, 0, 55, 0
1, 137280, Note_on_c, 0, 77, 86
1, 137280, Note_on_c, 0, 62, 63
1, 137280, Note_on_c, 0, 55, 63
1, 137295, Control_c, 0, 64, 0
1, 137400, Note_on_c, 0, 77, 0
1, 137400, Note_on_c, 0, 76, 72
1, 137460, Note_on_c, 0, 76, 0
1, 137520, Note_on_c, 0, 74, 77
1, 137580, Note_on_c, 0, 74, 0
1, 137640, Note_on_c, 0, 72, 72
1, 137700, Note_on_c, 0, 72, 0
1, 137760, Tempo, 936330
1, 137760, Note_on_c, 0, 55, 0
1, 137760, Note_on_c, 0, 62, 0
1, 137760, Note_on_c, 0, 71, 60
1, 137820, Note_on_c, 0, 71, 0
1, 137880, Note_on_c, 0, 72, 62
1, 137880, Note_on_c, 0, 57, 54
1, 137940, Note_on_c, 0, 57, 0
1, 137940, Note_on_c, 0, 72, 0
1, 138000, Note_on_c, 0, 74, 59
1, 138000, Note_on_c, 0, 59, 54
1, 138060, Note_on_c, 0, 59, 0
1, 138060, Note_on_c, 0, 74, 0
1, 138120, Note_on_c, 0, 76, 56
1, 138120, Note_on_c, 0, 60, 54
1, 138180, Note_on_c, 0, 60, 0
1, 138180, Note_on_c, 0, 76, 0
1, 138240, Note_on_c, 0, 77, 62
1, 138240, Note_on_c, 0, 62, 52
1, 138300, Note_on_c, 0, 62, 0
1, 138300, Note_on_c, 0, 77, 0
1, 138360, Note_on_c, 0, 76, 57
1, 138360, Note_on_c, 0, 60, 55
1, 138420, Note_on_c, 0, 60, 0
1, 138420, Note_on_c, 0, 76, 0
1, 138480, Note_on_c, 0, 74, 61
1, 138480, Note_on_c, 0, 59, 59
1, 138540, Note_on_c, 0, 59, 0
1, 138540, Note_on_c, 0, 74, 0
1, 138600, Note_on_c, 0, 76, 64
1, 138600, Note_on_c, 0, 60, 62
1, 138660, Note_on_c, 0, 60, 0
1, 138660, Note_on_c, 0, 76, 0
1, 138720, Tempo, 949217
1, 138720, Note_on_c, 0, 77, 67
1, 138720, Note_on_c, 0, 62, 65
1, 138760, Tempo, 955871
1, 138780, Note_on_c, 0, 62, 0
1, 138780, Note_on_c, 0, 77, 0
1, 138800, Tempo, 962464
1, 138840, Tempo, 969149
1, 138840, Note_on_c, 0, 76, 71
1, 138840, Note_on_c, 0, 61, 67
1, 138880, Tempo, 975927
1, 138900, Note_on_c, 0, 61, 0
1, 138900, Note_on_c, 0, 76, 0
1, 138920, Tempo, 982962
1, 138960, Tempo, 989772
1, 138960, Note_on_c, 0, 77, 73
1, 138960, Note_on_c, 0, 62, 71
1, 139000, Tempo, 997175
1, 139020, Note_on_c, 0, 62, 0
1, 139020, Note_on_c, 0, 77, 0
1, 139040, Tempo, 1004352
1, 139080, Tempo, 1011634
1, 139080, Note_on_c, 0, 78, 77
1, 139080, Note_on_c, 0, 63, 73
1, 139120, Tempo, 1019195
1, 139140, Note_on_c, 0, 63, 0
1, 139140, Note_on_c, 0, 78, 0
1, 139160, Tempo, 1026694
1, 139200, Tempo, 930233
1, 139200, Control_c, 0, 91, 127
1, 139200, Note_on_c, 0, 79, 86
1, 139200, Note_on_c, 0, 64, 50
1, 139200, Control_c, 0, 91, 127
1, 139232, Control_c, 0, 64, 127
1, 139320, Note_on_c, 0, 64, 0
1, 139320, Note_on_c, 0, 79, 0
1, 139320, Note_on_c, 0, 60, 45
1, 139440, Note_on_c, 0, 60, 0
1, 139440, Note_on_c, 0, 79, 82
1, 139440, Note_on_c, 0, 64, 51
1, 139560, Note_on_c, 0, 64, 0
1, 139560, Note_on_c, 0, 60, 45
1, 139680, Note_on_c, 0, 60, 0
1, 139680, Note_on_c, 0, 64, 51
1, 139800, Tempo, 866051
1, 139800, Note_on_c, 0, 64, 0
1, 139800, Note_on_c, 0, 79, 0
1, 139800, Note_on_c, 0, 77, 71
1, 139800, Note_on_c, 0, 60, 40
1, 139860, Note_on_c, 0, 77, 0
1, 139860, Note_on_c, 0, 76, 69
1, 139920, Note_on_c, 0, 76, 0
1, 139920, Note_on_c, 0, 60, 0
1, 139920, Note_on_c, 0, 76, 70
1, 139920, Note_on_c, 0, 64, 45
1, 139931, Control_c, 0, 64, 0
1, 139976, Note_on_c, 0, 76, 0
1, 139980, Note_on_c, 0, 74, 66
1, 139984, Control_c, 0, 64, 127
1, 140040, Note_on_c, 0, 74, 0
1, 140040, Note_on_c, 0, 64, 0
1, 140040, Note_on_c, 0, 72, 67
1, 140040, Note_on_c, 0, 60, 43
1, 140100, Note_on_c, 0, 72, 0
1, 140100, Note_on_c, 0, 71, 66
1, 140160, Tempo, 888362
1, 140160, Note_on_c, 0, 71, 0
1, 140160, Note_on_c, 0, 60, 0
1, 140160, Note_on_c, 0, 72, 47
1, 140160, Note_on_c, 0, 64, 51
1, 140168, Control_c, 0, 64, 0
1, 140200, Note_on_c, 0, 74, 49
1, 140201, Control_c, 0, 64, 127
1, 140205, Note_on_c, 0, 72, 0
1, 140240, Note_on_c, 0, 72, 55
1, 140245, Note_on_c, 0, 74, 0
1, 140280, Note_on_c, 0, 64, 0
1, 140280, Note_on_c, 0, 74, 52
1, 140280, Note_on_c, 0, 60, 45
1, 140285, Note_on_c, 0, 72, 0
1, 140320, Note_on_c, 0, 72, 57
1, 140325, Note_on_c, 0, 74, 0
1, 140360, Note_on_c, 0, 74, 51
1, 140365, Note_on_c, 0, 72, 0
1, 140400, Note_on_c, 0, 60, 0
1, 140400, Note_on_c, 0, 72, 59
1, 140400, Note_on_c, 0, 64, 51
1, 140405, Note_on_c, 0, 74, 0
1, 140440, Note_on_c, 0, 74, 56
1, 140445, Note_on_c, 0, 72, 0
1, 140480, Note_on_c, 0, 72, 63
1, 140485, Note_on_c, 0, 74, 0
1, 140520, Tempo, 866051
1, 140520, Note_on_c, 0, 64, 0
1, 140520, Note_on_c, 0, 74, 62
1, 140520, Note_on_c, 0, 60, 40
1, 140540, Note_on_c, 0, 72, 0
1, 140580, Note_on_c, 0, 74, 0
1, 140580, Note_on_c, 0, 76, 63
1, 140640, Tempo, 922084
1, 140640, Note_on_c, 0, 76, 0
1, 140640, Note_on_c, 0, 60, 0
1, 140640, Note_on_c, 0, 67, 71
1, 140640, Note_on_c, 0, 64, 46
1, 140656, Control_c, 0, 64, 0
1, 140707, Control_c, 0, 64, 127
1, 140760, Note_on_c, 0, 64, 0
1, 140760, Note_on_c, 0, 60, 31
1, 140880, Tempo, 883132
1, 140880, Note_on_c, 0, 60, 0
1, 140880, Note_on_c, 0, 67, 0
1, 140880, Note_on_c, 0, 64, 35
1, 141000, Note_on_c, 0, 64, 0
1, 141000, Note_on_c, 0, 60, 31
1, 141120, Tempo, 936330
1, 141120, Note_on_c, 0, 60, 0
1, 141120, Note_on_c, 0, 79, 86
1, 141120, Note_on_c, 0, 64, 51
1, 141126, Control_c, 0, 64, 0
1, 141166, Control_c, 0, 64, 127
1, 141180, Note_on_c, 0, 79, 0
1, 141240, Note_on_c, 0, 64, 0
1, 141240, Note_on_c, 0, 79, 78
1, 141240, Note_on_c, 0, 60, 36
1, 141300, Note_on_c, 0, 79, 0
1, 141360, Note_on_c, 0, 60, 0
1, 141360, Note_on_c, 0, 79, 76
1, 141360, Note_on_c, 0, 64, 43
1, 141480, Note_on_c, 0, 64, 0
1, 141480, Note_on_c, 0, 60, 36
1, 141600, Note_on_c, 0, 60, 0
1, 141600, Note_on_c, 0, 64, 43
1, 141720, Tempo, 866051
1, 141720, Note_on_c, 0, 64, 0
1, 141720, Note_on_c, 0, 79, 0
1, 141720, Note_on_c, 0, 77, 64
1, 141720, Note_on_c, 0, 60, 36
1, 141780, Note_on_c, 0, 77, 0
1, 141780, Note_on_c, 0, 76, 61
1, 141836, Note_on_c, 0, 76, 0
1, 141840, Note_on_c, 0, 60, 0
1, 141840, Note_on_c, 0, 76, 64
1, 141840, Note_on_c, 0, 65, 40
1, 141844, Control_c, 0, 64, 0
1, 141886, Control_c, 0, 64, 127
1, 141900, Note_on_c, 0, 76, 0
1, 141900, Note_on_c, 0, 74, 61
1, 141960, Note_on_c, 0, 74, 0
1, 141960, Note_on_c, 0, 65, 0
1, 141960, Note_on_c, 0, 72, 61
1, 141960, Note_on_c, 0, 60, 36
1, 142020, Note_on_c, 0, 72, 0
1, 142020, Note_on_c, 0, 71, 60
1, 142080, Tempo, 888362
1, 142080, Note_on_c, 0, 71, 0
1, 142080, Note_on_c, 0, 60, 0
1, 142080, Note_on_c, 0, 72, 47
1, 142080, Note_on_c, 0, 64, 38
1, 142090, Control_c, 0, 64, 0
1, 142120, Note_on_c, 0, 74, 49
1, 142121, Control_c, 0, 64, 127
1, 142125, Note_on_c, 0, 72, 0
1, 142160, Note_on_c, 0, 72, 55
1, 142165, Note_on_c, 0, 74, 0
1, 142200, Note_on_c, 0, 64, 0
1, 142200, Note_on_c, 0, 74, 52
1, 142200, Note_on_c, 0, 60, 34
1, 142205, Note_on_c, 0, 72, 0
1, 142240, Note_on_c, 0, 72, 57
1, 142245, Note_on_c, 0, 74, 0
1, 142280, Note_on_c, 0, 74, 51
1, 142285, Note_on_c, 0, 72, 0
1, 142320, Note_on_c, 0, 60, 0
1, 142320, Note_on_c, 0, 72, 59
1, 142320, Note_on_c, 0, 64, 39
1, 142325, Note_on_c, 0, 74, 0
1, 142360, Note_on_c, 0, 74, 56
1, 142365, Note_on_c, 0, 72, 0
1, 142400, Note_on_c, 0, 72, 63
1, 142405, Note_on_c, 0, 74, 0
1, 142440, Tempo, 866051
1, 142440, Note_on_c, 0, 64, 0
1, 142440, Note_on_c, 0, 74, 62
1, 142440, Note_on_c, 0, 60, 33
1, 142460, Note_on_c, 0, 72, 0
1, 142500, Note_on_c, 0, 74, 0
1, 142500, Note_on_c, 0, 76, 63
1, 142560, Tempo, 895790
1, 142560, Note_on_c, 0, 76, 0
1, 142560, Note_on_c, 0, 60, 0
1, 142560, Note_on_c, 0, 67, 65
1, 142560, Note_on_c, 0, 64, 38
1, 142573, Control_c, 0, 64, 0
1, 142639, Control_c, 0, 64, 127
1, 142680, Note_on_c, 0, 64, 0
1, 142680, Note_on_c, 0, 60, 30
1, 142800, Tempo, 883132
1, 142800, Note_on_c, 0, 60, 0
1, 142800, Note_on_c, 0, 67, 0
1, 142800, Note_on_c, 0, 64, 33
1, 142920, Note_on_c, 0, 64, 0
1, 142920, Note_on_c, 0, 60, 29
1, 143040, Tempo, 903478
1, 143040, Note_on_c, 0, 60, 0
1, 143040, Note_on_c, 0, 69, 56
1, 143040, Note_on_c, 0, 65, 34
1, 143044, Control_c, 0, 64, 0
1, 143100, Note_on_c, 0, 69, 0
1, 143160, Tempo, 864429
1, 143160, Note_on_c, 0, 65, 0
1, 143160, Note_on_c, 0, 72, 54
1, 143160, Note_on_c, 0, 60, 29
1, 143220, Note_on_c, 0, 72, 0
1, 143280, Tempo, 852152
1, 143280, Note_on_c, 0, 60, 0
1, 143280, Note_on_c, 0, 77, 56
1, 143280, Note_on_c, 0, 65, 34
1, 143340, Note_on_c, 0, 77, 0
1, 143400, Tempo, 909091
1, 143400, Note_on_c, 0, 65, 0
1, 143400, Note_on_c, 0, 81, 54
1, 143400, Note_on_c, 0, 60, 30
1, 143460, Note_on_c, 0, 81, 0
1, 143520, Tempo, 915332
1, 143520, Note_on_c, 0, 60, 0
1, 143520, Note_on_c, 0, 84, 66
1, 143520, Note_on_c, 0, 65, 34
1, 143580, Note_on_c, 0, 84, 0
1, 143640, Tempo, 883132
1, 143640, Note_on_c, 0, 65, 0
1, 143640, Note_on_c, 0, 89, 70
1, 143640, Note_on_c, 0, 60, 30
1, 143660, Tempo, 876937
1, 143760, Note_on_c, 0, 60, 0
1, 143760, Note_on_c, 0, 89, 0
1, 143760, Note_on_c, 0, 65, 34
1, 143778, Control_c, 0, 64, 127
1, 143880, Note_on_c, 0, 65, 0
1, 143880, Note_on_c, 0, 60, 30
1, 144000, Tempo, 847338
1, 144000, Note_on_c, 0, 60, 0
1, 144000, Note_on_c, 0, 67, 58
1, 144000, Note_on_c, 0, 64, 36
1, 144010, Control_c, 0, 64, 0
1, 144060, Note_on_c, 0, 67, 0
1, 144120, Note_on_c, 0, 64, 0
1, 144120, Note_on_c, 0, 72, 56
1, 144120, Note_on_c, 0, 60, 32
1, 144180, Note_on_c, 0, 72, 0
1, 144240, Tempo, 852152
1, 144240, Note_on_c, 0, 60, 0
1, 144240, Note_on_c, 0, 76, 58
1, 144240, Note_on_c, 0, 64, 36
1, 144300, Note_on_c, 0, 76, 0
1, 144360, Tempo, 903478
1, 144360, Note_on_c, 0, 64, 0
1, 144360, Note_on_c, 0, 79, 55
1, 144360, Note_on_c, 0, 60, 30
1, 144420, Note_on_c, 0, 79, 0
1, 144480, Tempo, 882742
1, 144480, Note_on_c, 0, 60, 0
1, 144480, Note_on_c, 0, 84, 66
1, 144480, Note_on_c, 0, 64, 36
1, 144540, Note_on_c, 0, 84, 0
1, 144600, Note_on_c, 0, 64, 0
1, 144600, Note_on_c, 0, 88, 74
1, 144600, Note_on_c, 0, 60, 30
1, 144720, Note_on_c, 0, 60, 0
1, 144720, Note_on_c, 0, 88, 0
1, 144720, Note_on_c, 0, 64, 36
1, 144727, Control_c, 0, 64, 127
1, 144840, Note_on_c, 0, 64, 0
1, 144840, Note_on_c, 0, 60, 30
1, 144886, Control_c, 0, 64, 0
1, 144900, Note_on_c, 0, 67, 63
1, 144925, Control_c, 0, 64, 127
1, 144960, Tempo, 911854
1, 144960, Note_on_c, 0, 67, 0
1, 144960, Note_on_c, 0, 60, 0
1, 144960, Note_on_c, 0, 79, 84
1, 144960, Note_on_c, 0, 64, 57
1, 144960, Note_on_c, 0, 60, 57
1, 145080, Note_on_c, 0, 60, 0
1, 145080, Note_on_c, 0, 55, 50
1, 145200, Note_on_c, 0, 55, 0
1, 145200, Note_on_c, 0, 64, 0
1, 145200, Note_on_c, 0, 64, 57
1, 145200, Note_on_c, 0, 60, 57
1, 145320, Note_on_c, 0, 60, 0
1, 145320, Note_on_c, 0, 55, 50
1, 145440, Note_on_c, 0, 55, 0
1, 145440, Note_on_c, 0, 64, 0
1, 145440, Note_on_c, 0, 62, 54
1, 145440, Note_on_c, 0, 59, 54
1, 145448, Control_c, 0, 64, 0
1, 145494, Control_c, 0, 64, 127
1, 145560, Note_on_c, 0, 59, 0
1, 145560, Note_on_c, 0, 55, 46
1, 145680, Note_on_c, 0, 55, 0
1, 145680, Note_on_c, 0, 62, 0
1, 145680, Note_on_c, 0, 79, 0
1, 145680, Note_on_c, 0, 77, 60
1, 145680, Note_on_c, 0, 62, 51
1, 145680, Note_on_c, 0, 59, 51
1, 145720, Note_on_c, 0, 77, 0
1, 145720, Note_on_c, 0, 79, 68
1, 145760, Note_on_c, 0, 79, 0
1, 145760, Note_on_c, 0, 77, 68
1, 145800, Note_on_c, 0, 77, 0
1, 145800, Note_on_c, 0, 59, 0
1, 145800, Note_on_c, 0, 76, 76
1, 145800, Note_on_c, 0, 55, 44
1, 145860, Note_on_c, 0, 76, 0
1, 145860, Note_on_c, 0, 77, 71
1, 145920, Tempo, 917712
1, 145920, Note_on_c, 0, 77, 0
1, 145920, Note_on_c, 0, 55, 0
1, 145920, Note_on_c, 0, 62, 0
1, 145920, Note_on_c, 0, 75, 78
1, 145920, Note_on_c, 0, 60, 48
1, 145928, Control_c, 0, 64, 0
1, 145991, Control_c, 0, 64, 127
1, 146040, Note_on_c, 0, 60, 0
1, 146040, Note_on_c, 0, 48, 45
1, 146160, Tempo, 888362
1, 146160, Note_on_c, 0, 48, 0
1, 146160, Note_on_c, 0, 75, 0
1, 146160, Note_on_c, 0, 76, 75
1, 146160, Note_on_c, 0, 52, 48
1, 146168, Control_c, 0, 64, 0
1, 146224, Control_c, 0, 64, 127
1, 146280, Note_on_c, 0, 52, 0
1, 146280, Note_on_c, 0, 55, 45
1, 146400, Note_on_c, 0, 55, 0
1, 146400, Note_on_c, 0, 76, 0
1, 146400, Note_on_c, 0, 60, 57
1, 146424, Control_c, 0, 64, 0
1, 146478, Control_c, 0, 64, 127
1, 146520, Note_on_c, 0, 60, 0
1, 146520, Note_on_c, 0, 64, 48
1, 146640, Note_on_c, 0, 64, 0
1, 146640, Note_on_c, 0, 67, 52
1, 146760, Note_on_c, 0, 67, 0
1, 146760, Note_on_c, 0, 64, 48
1, 146880, Tempo, 858861
1, 146880, Note_on_c, 0, 64, 0
1, 146880, Note_on_c, 0, 69, 61
1, 146880, Note_on_c, 0, 65, 37
1, 146890, Control_c, 0, 64, 0
1, 146940, Note_on_c, 0, 69, 0
1, 146940, Note_on_c, 0, 72, 57
1, 146947, Control_c, 0, 64, 127
1, 147000, Note_on_c, 0, 72, 0
1, 147000, Note_on_c, 0, 65, 0
1, 147000, Note_on_c, 0, 74, 61
1, 147000, Note_on_c, 0, 60, 28
1, 147040, Tempo, 853121
1, 147060, Note_on_c, 0, 74, 0
1, 147060, Note_on_c, 0, 76, 56
1, 147120, Tempo, 847338
1, 147120, Note_on_c, 0, 76, 0
1, 147120, Note_on_c, 0, 60, 0
1, 147120, Note_on_c, 0, 77, 61
1, 147120, Note_on_c, 0, 65, 37
1, 147180, Note_on_c, 0, 77, 0
1, 147180, Note_on_c, 0, 79, 58
1, 147200, Tempo, 853121
1, 147224, Tempo, 840218
1, 147240, Note_on_c, 0, 79, 0
1, 147240, Note_on_c, 0, 65, 0
1, 147240, Note_on_c, 0, 81, 61
1, 147240, Note_on_c, 0, 60, 29
1, 147243, Tempo, 852152
1, 147262, Tempo, 864429
1, 147300, Note_on_c, 0, 81, 0
1, 147300, Note_on_c, 0, 83, 57
1, 147301, Tempo, 877065
1, 147320, Tempo, 890076
1, 147340, Tempo, 864803
1, 147360, Tempo, 960000
1, 147360, Note_on_c, 0, 83, 0
1, 147360, Note_on_c, 0, 60, 0
1, 147360, Note_on_c, 0, 84, 72
1, 147360, Note_on_c, 0, 65, 37
1, 147373, Control_c, 0, 64, 0
1, 147417, Control_c, 0, 64, 127
1, 147480, Tempo, 889284
1, 147480, Note_on_c, 0, 65, 0
1, 147480, Note_on_c, 0, 84, 0
1, 147480, Note_on_c, 0, 60, 27
1, 147600, Tempo, 883132
1, 147600, Note_on_c, 0, 60, 0
1, 147600, Note_on_c, 0, 65, 32
1, 147720, Note_on_c, 0, 65, 0
1, 147720, Note_on_c, 0, 60, 29
1, 147840, Tempo, 858861
1, 147840, Note_on_c, 0, 60, 0
1, 147840, Note_on_c, 0, 67, 63
1, 147840, Note_on_c, 0, 64, 37
1, 147856, Control_c, 0, 64, 0
1, 147890, Control_c, 0, 64, 127
1, 147900, Note_on_c, 0, 67, 0
1, 147900, Note_on_c, 0, 72, 58
1, 147960, Tempo, 853121
1, 147960, Note_on_c, 0, 72, 0
1, 147960, Note_on_c, 0, 64, 0
1, 147960, Note_on_c, 0, 74, 63
1, 147960, Note_on_c, 0, 60, 29
1, 148020, Note_on_c, 0, 74, 0
1, 148020, Note_on_c, 0, 76, 56
1, 148080, Tempo, 853121
1, 148080, Note_on_c, 0, 76, 0
1, 148080, Note_on_c, 0, 60, 0
1, 148080, Note_on_c, 0, 77, 63
1, 148080, Note_on_c, 0, 64, 37
1, 148140, Note_on_c, 0, 77, 0
1, 148140, Note_on_c, 0, 79, 58
1, 148184, Tempo, 864429
1, 148200, Tempo, 858861
1, 148200, Note_on_c, 0, 79, 0
1, 148200, Note_on_c, 0, 64, 0
1, 148200, Note_on_c, 0, 81, 63
1, 148200, Note_on_c, 0, 60, 28
1, 148260, Note_on_c, 0, 81, 0
1, 148260, Note_on_c, 0, 83, 58
1, 148300, Tempo, 864803
1, 148320, Tempo, 935745
1, 148320, Note_on_c, 0, 83, 0
1, 148320, Note_on_c, 0, 60, 0
1, 148320, Note_on_c, 0, 84, 72
1, 148320, Note_on_c, 0, 64, 37
1, 148332, Control_c, 0, 64, 0
1, 148373, Control_c, 0, 64, 127
1, 148440, Tempo, 889284
1, 148440, Note_on_c, 0, 64, 0
1, 148440, Note_on_c, 0, 84, 0
1, 148440, Note_on_c, 0, 60, 27
1, 148560, Tempo, 870827
1, 148560, Note_on_c, 0, 60, 0
1, 148560, Note_on_c, 0, 64, 33
1, 148680, Note_on_c, 0, 64, 0
1, 148680, Note_on_c, 0, 60, 29
1, 148800, Tempo, 858861
1, 148800, Note_on_c, 0, 60, 0
1, 148800, Note_on_c, 0, 81, 85
1, 148800, Note_on_c, 0, 64, 51
1, 148800, Note_on_c, 0, 60, 51
1, 148820, Control_c, 0, 64, 0
1, 148920, Note_on_c, 0, 60, 0
1, 148920, Note_on_c, 0, 81, 0
1, 148920, Note_on_c, 0, 79, 79
1, 148920, Note_on_c, 0, 55, 45
1, 149040, Note_on_c, 0, 55, 0
1, 149040, Note_on_c, 0, 79, 0
1, 149040, Note_on_c, 0, 64, 0
1, 149040, Note_on_c, 0, 77, 82
1, 149040, Note_on_c, 0, 64, 51
1, 149040, Note_on_c, 0, 60, 51
1, 149100, Note_on_c, 0, 77, 0
1, 149160, Note_on_c, 0, 60, 0
1, 149160, Note_on_c, 0, 76, 78
1, 149160, Note_on_c, 0, 55, 45
1, 149220, Note_on_c, 0, 76, 0
1, 149280, Note_on_c, 0, 55, 0
1, 149280, Note_on_c, 0, 64, 0
1, 149280, Note_on_c, 0, 76, 85
1, 149280, Note_on_c, 0, 65, 51
1, 149280, Note_on_c, 0, 62, 51
1, 149400, Note_on_c, 0, 62, 0
1, 149400, Note_on_c, 0, 76, 0
1, 149400, Note_on_c, 0, 74, 74
1, 149400, Note_on_c, 0, 55, 43
1, 149520, Note_on_c, 0, 55, 0
1, 149520, Note_on_c, 0, 74, 0
1, 149520, Note_on_c, 0, 65, 0
1, 149520, Note_on_c, 0, 72, 77
1, 149520, Note_on_c, 0, 65, 48
1, 149520, Note_on_c, 0, 62, 48
1, 149580, Note_on_c, 0, 72, 0
1, 149640, Note_on_c, 0, 62, 0
1, 149640, Note_on_c, 0, 71, 76
1, 149640, Note_on_c, 0, 55, 45
1, 149700, Note_on_c, 0, 71, 0
1, 149760, Tempo, 871586
1, 149760, Note_on_c, 0, 55, 0
1, 149760, Note_on_c, 0, 65, 0
1, 149760, Note_on_c, 0, 72, 77
1, 149760, Note_on_c, 0, 64, 56
1, 149760, Note_on_c, 0, 60, 56
1, 149820, Note_on_c, 0, 67, 68
1, 149832, Note_on_c, 0, 72, 0
1, 149880, Note_on_c, 0, 69, 72
1, 149892, Note_on_c, 0, 67, 0
1, 149940, Note_on_c, 0, 71, 70
1, 149952, Note_on_c, 0, 69, 0
1, 150000, Note_on_c, 0, 72, 75
1, 150012, Note_on_c, 0, 71, 0
1, 150060, Note_on_c, 0, 74, 73
1, 150072, Note_on_c, 0, 72, 0
1, 150120, Note_on_c, 0, 76, 78
1, 150132, Note_on_c, 0, 74, 0
1, 150180, Note_on_c, 0, 77, 76
1, 150192, Note_on_c, 0, 76, 0
1, 150240, Note_on_c, 0, 64, 0
1, 150240, Note_on_c, 0, 60, 0
1, 150240, Note_on_c, 0, 79, 80
1, 150252, Note_on_c, 0, 77, 0
1, 150300, Note_on_c, 0, 81, 77
1, 150312, Note_on_c, 0, 79, 0
1, 150360, Note_on_c, 0, 83, 78
1, 150372, Note_on_c, 0, 81, 0
1, 150420, Note_on_c, 0, 84, 75
1, 150432, Note_on_c, 0, 83, 0
1, 150480, Tempo, 899955
1, 150480, Note_on_c, 0, 79, 81
1, 150492, Note_on_c, 0, 84, 0
1, 150540, Note_on_c, 0, 79, 0
1, 150600, Note_on_c, 0, 79, 79
1, 150660, Note_on_c, 0, 79, 0
1, 150720, Note_on_c, 0, 64, 46
1, 150720, Note_on_c, 0, 55, 46
1, 150766, Control_c, 0, 64, 127
1, 150780, Note_on_c, 0, 79, 54
1, 150840, Note_on_c, 0, 79, 0
1, 150840, Note_on_c, 0, 81, 57
1, 150900, Note_on_c, 0, 81, 0
1, 150900, Note_on_c, 0, 79, 54
1, 150960, Note_on_c, 0, 79, 0
1, 150960, Note_on_c, 0, 55, 0
1, 150960, Note_on_c, 0, 64, 0
1, 150960, Note_on_c, 0, 62, 40
1, 150960, Note_on_c, 0, 55, 40
1, 150969, Control_c, 0, 64, 0
1, 150999, Control_c, 0, 64, 127
1, 151020, Note_on_c, 0, 77, 54
1, 151080, Note_on_c, 0, 77, 0
1, 151080, Note_on_c, 0, 79, 57
1, 151140, Note_on_c, 0, 79, 0
1, 151140, Note_on_c, 0, 77, 54
1, 151200, Note_on_c, 0, 77, 0
1, 151200, Note_on_c, 0, 55, 0
1, 151200, Note_on_c, 0, 62, 0
1, 151200, Note_on_c, 0, 60, 46
1, 151200, Note_on_c, 0, 55, 46
1, 151214, Control_c, 0, 64, 0
1, 151250, Control_c, 0, 64, 127
1, 151260, Note_on_c, 0, 76, 54
1, 151320, Note_on_c, 0, 76, 0
1, 151320, Note_on_c, 0, 77, 56
1, 151380, Note_on_c, 0, 77, 0
1, 151380, Note_on_c, 0, 76, 54
1, 151440, Note_on_c, 0, 76, 0
1, 151440, Note_on_c, 0, 55, 0
1, 151440, Note_on_c, 0, 60, 0
1, 151440, Note_on_c, 0, 59, 42
1, 151440, Note_on_c, 0, 55, 42
1, 151446, Control_c, 0, 64, 0
1, 151479, Control_c, 0, 64, 127
1, 151500, Note_on_c, 0, 74, 54
1, 151560, Note_on_c, 0, 74, 0
1, 151560, Note_on_c, 0, 76, 56
1, 151620, Note_on_c, 0, 76, 0
1, 151620, Note_on_c, 0, 74, 54
1, 151680, Tempo, 866051
1, 151680, Note_on_c, 0, 74, 0
1, 151680, Note_on_c, 0, 55, 0
1, 151680, Note_on_c, 0, 59, 0
1, 151680, Note_on_c, 0, 72, 83
1, 151680, Note_on_c, 0, 60, 58
1, 151694, Control_c, 0, 64, 0
1, 151740, Note_on_c, 0, 67, 76
1, 151752, Note_on_c, 0, 72, 0
1, 151800, Note_on_c, 0, 69, 79
1, 151812, Note_on_c, 0, 67, 0
1, 151860, Note_on_c, 0, 71, 75
1, 151872, Note_on_c, 0, 69, 0
1, 151920, Note_on_c, 0, 72, 81
1, 151932, Note_on_c, 0, 71, 0
1, 151980, Note_on_c, 0, 74, 79
1, 151992, Note_on_c, 0, 72, 0
1, 152040, Note_on_c, 0, 76, 82
1, 152052, Note_on_c, 0, 74, 0
1, 152100, Note_on_c, 0, 77, 78
1, 152112, Note_on_c, 0, 76, 0
1, 152160, Note_on_c, 0, 60, 0
1, 152160, Note_on_c, 0, 79, 81
1, 152172, Note_on_c, 0, 77, 0
1, 152220, Note_on_c, 0, 81, 76
1, 152232, Note_on_c, 0, 79, 0
1, 152280, Note_on_c, 0, 83, 80
1, 152292, Note_on_c, 0, 81, 0
1, 152340, Note_on_c, 0, 84, 75
1, 152352, Note_on_c, 0, 83, 0
1, 152400, Tempo, 899955
1, 152400, Note_on_c, 0, 79, 82
1, 152412, Note_on_c, 0, 84, 0
1, 152460, Note_on_c, 0, 79, 0
1, 152520, Note_on_c, 0, 79, 80
1, 152580, Note_on_c, 0, 79, 0
1, 152640, Note_on_c, 0, 64, 46
1, 152640, Note_on_c, 0, 55, 46
1, 152672, Control_c, 0, 64, 127
1, 152700, Note_on_c, 0, 79, 54
1, 152760, Note_on_c, 0, 79, 0
1, 152760, Note_on_c, 0, 81, 56
1, 152820, Note_on_c, 0, 81, 0
1, 152820, Note_on_c, 0, 79, 54
1, 152880, Note_on_c, 0, 79, 0
1, 152880, Note_on_c, 0, 55, 0
1, 152880, Note_on_c, 0, 64, 0
1, 152880, Note_on_c, 0, 62, 42
1, 152880, Note_on_c, 0, 55, 42
1, 152888, Control_c, 0, 64, 0
1, 152930, Control_c, 0, 64, 127
1, 152940, Note_on_c, 0, 77, 54
1, 153000, Note_on_c, 0, 77, 0
1, 153000, Note_on_c, 0, 79, 56
1, 153060, Note_on_c, 0, 79, 0
1, 153060, Note_on_c, 0, 77, 54
1, 153120, Note_on_c, 0, 77, 0
1, 153120, Note_on_c, 0, 55, 0
1, 153120, Note_on_c, 0, 62, 0
1, 153120, Note_on_c, 0, 60, 45
1, 153120, Note_on_c, 0, 55, 45
1, 153129, Control_c, 0, 64, 0
1, 153180, Note_on_c, 0, 76, 54
1, 153180, Control_c, 0, 64, 127
1, 153240, Note_on_c, 0, 76, 0
1, 153240, Note_on_c, 0, 77, 56
1, 153300, Note_on_c, 0, 77, 0
1, 153300, Note_on_c, 0, 76, 54
1, 153360, Note_on_c, 0, 76, 0
1, 153360, Note_on_c, 0, 55, 0
1, 153360, Note_on_c, 0, 60, 0
1, 153360, Note_on_c, 0, 59, 45
1, 153360, Note_on_c, 0, 55, 45
1, 153364, Control_c, 0, 64, 0
1, 153417, Control_c, 0, 64, 127
1, 153420, Note_on_c, 0, 74, 54
1, 153480, Note_on_c, 0, 74, 0
1, 153480, Note_on_c, 0, 76, 54
1, 153540, Note_on_c, 0, 76, 0
1, 153540, Note_on_c, 0, 74, 54
1, 153600, Tempo, 982962
1, 153600, Note_on_c, 0, 74, 0
1, 153600, Note_on_c, 0, 55, 0
1, 153600, Note_on_c, 0, 59, 0
1, 153600, Note_on_c, 0, 72, 81
1, 153600, Note_on_c, 0, 48, 62
1, 153611, Control_c, 0, 64, 0
1, 153660, Note_on_c, 0, 48, 0
1, 153660, Note_on_c, 0, 72, 0
1, 153720, Tempo, 866051
1, 153720, Note_on_c, 0, 72, 81
1, 153720, Note_on_c, 0, 60, 68
1, 153840, Note_on_c, 0, 60, 0
1, 153840, Note_on_c, 0, 59, 59
1, 153960, Note_on_c, 0, 59, 0
1, 153960, Note_on_c, 0, 72, 0
1, 153960, Note_on_c, 0, 74, 73
1, 153960, Note_on_c, 0, 58, 59
1, 154020, Note_on_c, 0, 74, 0
1, 154020, Note_on_c, 0, 76, 70
1, 154080, Tempo, 923930
1, 154080, Note_on_c, 0, 76, 0
1, 154080, Note_on_c, 0, 58, 0
1, 154080, Note_on_c, 0, 77, 82
1, 154080, Note_on_c, 0, 57, 63
1, 154140, Note_on_c, 0, 57, 0
1, 154140, Note_on_c, 0, 77, 0
1, 154200, Tempo, 866051
1, 154200, Note_on_c, 0, 77, 79
1, 154200, Note_on_c, 0, 57, 67
1, 154320, Note_on_c, 0, 57, 0
1, 154320, Note_on_c, 0, 55, 61
1, 154440, Note_on_c, 0, 55, 0
1, 154440, Note_on_c, 0, 77, 0
1, 154440, Note_on_c, 0, 79, 76
1, 154440, Note_on_c, 0, 53, 61
1, 154500, Note_on_c, 0, 79, 0
1, 154500, Note_on_c, 0, 81, 76
1, 154560, Note_on_c, 0, 81, 0
1, 154560, Note_on_c, 0, 53, 0
1, 154560, Note_on_c, 0, 79, 83
1, 154560, Note_on_c, 0, 52, 60
1, 154680, Tempo, 866051
1, 154680, Note_on_c, 0, 52, 0
1, 154680, Note_on_c, 0, 79, 0
1, 154680, Note_on_c, 0, 76, 80
1, 154800, Tempo, 899955
1, 154800, Note_on_c, 0, 76, 0
1, 154800, Note_on_c, 0, 84, 83
1, 154800, Note_on_c, 0, 48, 60
1, 154860, Note_on_c, 0, 84, 0
1, 154920, Note_on_c, 0, 48, 0
1, 154920, Note_on_c, 0, 84, 80
1, 154980, Note_on_c, 0, 84, 0
1, 155040, Tempo, 866051
1, 155040, Note_on_c, 0, 86, 84
1, 155100, Note_on_c, 0, 84, 76
1, 155112, Note_on_c, 0, 86, 0
1, 155160, Note_on_c, 0, 83, 78
1, 155172, Note_on_c, 0, 84, 0
1, 155220, Note_on_c, 0, 81, 73
1, 155232, Note_on_c, 0, 83, 0
1, 155276, Note_on_c, 0, 81, 0
1, 155280, Note_on_c, 0, 81, 73
1, 155280, Note_on_c, 0, 60, 51
1, 155280, Note_on_c, 0, 48, 51
1, 155340, Note_on_c, 0, 79, 66
1, 155352, Note_on_c, 0, 81, 0
1, 155400, Tempo, 1063641
1, 155400, Note_on_c, 0, 77, 68
1, 155412, Note_on_c, 0, 79, 0
1, 155460, Note_on_c, 0, 76, 64
1, 155472, Note_on_c, 0, 77, 0
1, 155520, Tempo, 888362
1, 155520, Note_on_c, 0, 60, 0
1, 155520, Note_on_c, 0, 48, 0
1, 155520, Note_on_c, 0, 76, 0
1, 155520, Note_on_c, 0, 79, 68
1, 155520, Note_on_c, 0, 64, 51
1, 155520, Note_on_c, 0, 55, 51
1, 155598, Control_c, 0, 64, 127
1, 155880, Note_on_c, 0, 64, 0
1, 155880, Note_on_c, 0, 79, 0
1, 155880, Note_on_c, 0, 76, 69
1, 155880, Note_on_c, 0, 60, 54
1, 156000, Note_on_c, 0, 60, 0
1, 156000, Note_on_c, 0, 76, 0
1, 156000, Note_on_c, 0, 55, 0
1, 156000, Note_on_c, 0, 74, 67
1, 156000, Note_on_c, 0, 59, 54
1, 156021, Control_c, 0, 64, 0
1, 156120, Tempo, 866051
1, 156120, Note_on_c, 0, 43, 71
1, 156240, Tempo, 895790
1, 156240, Note_on_c, 0, 43, 0
1, 156240, Note_on_c, 0, 59, 0
1, 156240, Note_on_c, 0, 74, 0
1, 156240, Note_on_c, 0, 47, 72
1, 156360, Tempo, 927500
1, 156360, Note_on_c, 0, 47, 0
1, 156360, Note_on_c, 0, 50, 69
1, 156480, Tempo, 894188
1, 156480, Note_on_c, 0, 50, 0
1, 156480, Note_on_c, 0, 73, 60
1, 156480, Note_on_c, 0, 55, 45
1, 156520, Control_c, 0, 64, 127
1, 156600, Note_on_c, 0, 55, 0
1, 156600, Note_on_c, 0, 73, 0
1, 156600, Note_on_c, 0, 74, 56
1, 156600, Note_on_c, 0, 59, 42
1, 156720, Tempo, 866051
1, 156720, Note_on_c, 0, 59, 0
1, 156720, Note_on_c, 0, 74, 0
1, 156720, Note_on_c, 0, 72, 55
1, 156720, Note_on_c, 0, 62, 40
1, 156733, Control_c, 0, 64, 0
1, 156780, Note_on_c, 0, 72, 0
1, 156780, Note_on_c, 0, 71, 52
1, 156840, Note_on_c, 0, 71, 0
1, 156840, Note_on_c, 0, 62, 0
1, 156840, Note_on_c, 0, 69, 55
1, 156900, Note_on_c, 0, 69, 0
1, 156900, Note_on_c, 0, 67, 53
1, 156960, Tempo, 894188
1, 156960, Note_on_c, 0, 67, 0
1, 156960, Note_on_c, 0, 73, 61
1, 156960, Note_on_c, 0, 55, 45
1, 156997, Control_c, 0, 64, 127
1, 157080, Note_on_c, 0, 55, 0
1, 157080, Note_on_c, 0, 73, 0
1, 157080, Note_on_c, 0, 74, 59
1, 157080, Note_on_c, 0, 59, 43
1, 157200, Tempo, 866051
1, 157200, Note_on_c, 0, 59, 0
1, 157200, Note_on_c, 0, 74, 0
1, 157200, Note_on_c, 0, 72, 55
1, 157200, Note_on_c, 0, 62, 41
1, 157203, Control_c, 0, 64, 0
1, 157260, Note_on_c, 0, 72, 0
1, 157260, Note_on_c, 0, 71, 54
1, 157320, Tempo, 917291
1, 157320, Note_on_c, 0, 71, 0
1, 157320, Note_on_c, 0, 62, 0
1, 157320, Note_on_c, 0, 69, 55
1, 157380, Note_on_c, 0, 69, 0
1, 157380, Note_on_c, 0, 67, 53
1, 157440, Tempo, 922084
1, 157440, Note_on_c, 0, 67, 0
1, 157440, Note_on_c, 0, 75, 64
1, 157440, Note_on_c, 0, 55, 44
1, 157472, Control_c, 0, 64, 127
1, 157560, Note_on_c, 0, 55, 0
1, 157560, Note_on_c, 0, 75, 0
1, 157560, Note_on_c, 0, 76, 61
1, 157560, Note_on_c, 0, 60, 40
1, 157680, Note_on_c, 0, 60, 0
1, 157680, Note_on_c, 0, 76, 0
1, 157680, Note_on_c, 0, 76, 63
1, 157680, Note_on_c, 0, 64, 43
1, 157740, Note_on_c, 0, 76, 0
1, 157800, Note_on_c, 0, 64, 0
1, 157800, Note_on_c, 0, 76, 59
1, 157800, Note_on_c, 0, 60, 41
1, 157860, Note_on_c, 0, 76, 0
1, 157920, Tempo, 889284
1, 157920, Note_on_c, 0, 60, 0
1, 157920, Note_on_c, 0, 76, 63
1, 157920, Note_on_c, 0, 55, 44
1, 157938, Control_c, 0, 64, 0
1, 158016, Control_c, 0, 64, 127
1, 158040, Note_on_c, 0, 55, 0
1, 158040, Note_on_c, 0, 60, 40
1, 158160, Note_on_c, 0, 60, 0
1, 158160, Note_on_c, 0, 76, 0
1, 158160, Note_on_c, 0, 64, 43
1, 158280, Note_on_c, 0, 64, 0
1, 158280, Note_on_c, 0, 60, 40
1, 158340, Note_on_c, 0, 69, 60
1, 158400, Tempo, 870827
1, 158400, Note_on_c, 0, 69, 0
1, 158400, Note_on_c, 0, 60, 0
1, 158400, Note_on_c, 0, 81, 87
1, 158400, Note_on_c, 0, 54, 57
1, 158409, Control_c, 0, 64, 0
1, 158447, Control_c, 0, 64, 127
1, 158520, Note_on_c, 0, 54, 0
1, 158520, Note_on_c, 0, 57, 51
1, 158640, Note_on_c, 0, 57, 0
1, 158640, Note_on_c, 0, 60, 54
1, 158760, Note_on_c, 0, 60, 0
1, 158760, Note_on_c, 0, 81, 0
1, 158760, Note_on_c, 0, 79, 76
1, 158800, Note_on_c, 0, 79, 0
1, 158800, Note_on_c, 0, 78, 72
1, 158840, Note_on_c, 0, 78, 0
1, 158840, Note_on_c, 0, 76, 76
1, 158880, Tempo, 955871
1, 158880, Note_on_c, 0, 76, 0
1, 158880, Note_on_c, 0, 74, 84
1, 158880, Note_on_c, 0, 54, 57
1, 159000, Tempo, 911854
1, 159000, Note_on_c, 0, 54, 0
1, 159000, Note_on_c, 0, 74, 0
1, 159000, Note_on_c, 0, 86, 82
1, 159000, Note_on_c, 0, 57, 51
1, 159006, Control_c, 0, 64, 0
1, 159060, Note_on_c, 0, 86, 0
1, 159120, Note_on_c, 0, 57, 0
1, 159120, Note_on_c, 0, 86, 82
1, 159120, Note_on_c, 0, 60, 54
1, 159180, Note_on_c, 0, 86, 0
1, 159240, Tempo, 982962
1, 159240, Note_on_c, 0, 60, 0
1, 159240, Note_on_c, 0, 86, 79
1, 159300, Note_on_c, 0, 86, 0
1, 159360, Tempo, 936330
1, 159360, Note_on_c, 0, 86, 90
1, 159360, Note_on_c, 0, 53, 57
1, 159427, Control_c, 0, 64, 127
1, 159480, Note_on_c, 0, 53, 0
1, 159480, Note_on_c, 0, 57, 52
1, 159600, Note_on_c, 0, 57, 0
1, 159600, Note_on_c, 0, 59, 57
1, 159660, Note_on_c, 0, 86, 0
1, 159660, Note_on_c, 0, 83, 74
1, 159720, Note_on_c, 0, 83, 0
1, 159720, Note_on_c, 0, 59, 0
1, 159720, Note_on_c, 0, 86, 77
1, 159720, Note_on_c, 0, 62, 52
1, 159780, Note_on_c, 0, 86, 0
1, 159780, Note_on_c, 0, 83, 76
1, 159800, Tempo, 936330
1, 159840, Tempo, 942951
1, 159840, Note_on_c, 0, 83, 0
1, 159840, Note_on_c, 0, 62, 0
1, 159840, Note_on_c, 0, 79, 77
1, 159840, Note_on_c, 0, 65, 62
1, 159880, Tempo, 949217
1, 159920, Tempo, 962464
1, 159960, Note_on_c, 0, 79, 0
1, 159960, Note_on_c, 0, 71, 54
1, 159960, Note_on_c, 0, 74, 54
1, 159975, Control_c, 0, 64, 0
1, 160006, Control_c, 0, 64, 127
1, 160080, Note_on_c, 0, 74, 0
1, 160080, Note_on_c, 0, 71, 0
1, 160080, Note_on_c, 0, 65, 0
1, 160080, Note_on_c, 0, 76, 54
1, 160080, Note_on_c, 0, 72, 54
1, 160080, Note_on_c, 0, 64, 43
1, 160094, Control_c, 0, 64, 0
1, 160140, Control_c, 0, 64, 127
1, 160200, Note_on_c, 0, 64, 0
1, 160200, Note_on_c, 0, 72, 0
1, 160200, Note_on_c, 0, 76, 0
1, 160200, Note_on_c, 0, 77, 50
1, 160200, Note_on_c, 0, 74, 50
1, 160200, Note_on_c, 0, 62, 45
1, 160240, Tempo, 1042028
1, 160280, Tempo, 1058014
1, 160320, Tempo, 930233
1, 160320, Note_on_c, 0, 62, 0
1, 160320, Note_on_c, 0, 74, 0
1, 160320, Note_on_c, 0, 77, 0
1, 160320, Note_on_c, 0, 78, 60
1, 160320, Note_on_c, 0, 60, 44
1, 160334, Control_c, 0, 64, 0
1, 160369, Control_c, 0, 64, 127
1, 160440, Note_on_c, 0, 60, 0
1, 160440, Note_on_c, 0, 78, 0
1, 160440, Note_on_c, 0, 79, 58
1, 160440, Note_on_c, 0, 64, 39
1, 160452, Control_c, 0, 64, 0
1, 160560, Tempo, 866051
1, 160560, Note_on_c, 0, 64, 0
1, 160560, Note_on_c, 0, 79, 0
1, 160560, Note_on_c, 0, 77, 54
1, 160560, Note_on_c, 0, 67, 41
1, 160620, Note_on_c, 0, 77, 0
1, 160620, Note_on_c, 0, 76, 51
1, 160680, Note_on_c, 0, 76, 0
1, 160680, Note_on_c, 0, 67, 0
1, 160680, Note_on_c, 0, 74, 54
1, 160740, Note_on_c, 0, 74, 0
1, 160740, Note_on_c, 0, 72, 52
1, 160800, Tempo, 917712
1, 160800, Note_on_c, 0, 72, 0
1, 160800, Note_on_c, 0, 78, 54
1, 160800, Note_on_c, 0, 60, 44
1, 160823, Control_c, 0, 64, 127
1, 160860, Note_on_c, 0, 78, 0
1, 160860, Note_on_c, 0, 79, 53
1, 160920, Note_on_c, 0, 79, 0
1, 160920, Note_on_c, 0, 60, 0
1, 160920, Note_on_c, 0, 81, 55
1, 160920, Note_on_c, 0, 64, 39
1, 160980, Note_on_c, 0, 81, 0
1, 160980, Note_on_c, 0, 79, 57
1, 161040, Tempo, 866051
1, 161040, Note_on_c, 0, 79, 0
1, 161040, Note_on_c, 0, 64, 0
1, 161040, Note_on_c, 0, 77, 56
1, 161040, Note_on_c, 0, 67, 41
1, 161046, Control_c, 0, 64, 0
1, 161100, Note_on_c, 0, 77, 0
1, 161100, Note_on_c, 0, 76, 55
1, 161160, Note_on_c, 0, 76, 0
1, 161160, Note_on_c, 0, 67, 0
1, 161160, Note_on_c, 0, 74, 54
1, 161220, Note_on_c, 0, 74, 0
1, 161220, Note_on_c, 0, 72, 54
1, 161280, Tempo, 936330
1, 161280, Note_on_c, 0, 72, 0
1, 161280, Note_on_c, 0, 80, 62
1, 161280, Note_on_c, 0, 60, 43
1, 161316, Control_c, 0, 64, 127
1, 161400, Note_on_c, 0, 60, 0
1, 161400, Note_on_c, 0, 80, 0
1, 161400, Note_on_c, 0, 81, 56
1, 161400, Note_on_c, 0, 65, 37
1, 161520, Note_on_c, 0, 65, 0
1, 161520, Note_on_c, 0, 81, 0
1, 161520, Note_on_c, 0, 81, 60
1, 161520, Note_on_c, 0, 69, 40
1, 161556, Control_c, 0, 64, 0
1, 161580, Note_on_c, 0, 81, 0
1, 161640, Note_on_c, 0, 69, 0
1, 161640, Note_on_c, 0, 81, 56
1, 161640, Note_on_c, 0, 65, 38
1, 161700, Note_on_c, 0, 81, 0
1, 161760, Note_on_c, 0, 65, 0
1, 161760, Note_on_c, 0, 81, 63
1, 161760, Note_on_c, 0, 60, 45
1, 161880, Note_on_c, 0, 60, 0
1, 161880, Note_on_c, 0, 65, 39
1, 162000, Note_on_c, 0, 65, 0
1, 162000, Note_on_c, 0, 81, 0
1, 162000, Note_on_c, 0, 69, 41
1, 162120, Note_on_c, 0, 69, 0
1, 162120, Note_on_c, 0, 65, 40
1, 162240, Tempo, 877193
1, 162240, Note_on_c, 0, 65, 0
1, 162240, Note_on_c, 0, 86, 81
1, 162240, Note_on_c, 0, 59, 62
1, 162240, Note_on_c, 0, 62, 62
1, 162240, Note_on_c, 0, 65, 62
1, 162240, Note_on_c, 0, 67, 62
1, 162300, Note_on_c, 0, 88, 77
1, 162312, Note_on_c, 0, 86, 0
1, 162360, Note_on_c, 0, 89, 81
1, 162372, Note_on_c, 0, 88, 0
1, 162420, Note_on_c, 0, 88, 77
1, 162432, Note_on_c, 0, 89, 0
1, 162480, Note_on_c, 0, 86, 79
1, 162492, Note_on_c, 0, 88, 0
1, 162540, Note_on_c, 0, 84, 73
1, 162552, Note_on_c, 0, 86, 0
1, 162600, Note_on_c, 0, 83, 77
1, 162612, Note_on_c, 0, 84, 0
1, 162660, Note_on_c, 0, 81, 75
1, 162672, Note_on_c, 0, 83, 0
1, 162720, Note_on_c, 0, 79, 78
1, 162732, Note_on_c, 0, 81, 0
1, 162780, Note_on_c, 0, 83, 73
1, 162792, Note_on_c, 0, 79, 0
1, 162840, Note_on_c, 0, 86, 81
1, 162852, Note_on_c, 0, 83, 0
1, 162900, Note_on_c, 0, 84, 74
1, 162912, Note_on_c, 0, 86, 0
1, 162960, Note_on_c, 0, 83, 81
1, 162972, Note_on_c, 0, 84, 0
1, 163020, Note_on_c, 0, 81, 75
1, 163032, Note_on_c, 0, 83, 0
1, 163080, Note_on_c, 0, 79, 81
1, 163092, Note_on_c, 0, 81, 0
1, 163140, Note_on_c, 0, 77, 76
1, 163152, Note_on_c, 0, 79, 0
1, 163200, Tempo, 905934
1, 163200, Note_on_c, 0, 67, 0
1, 163200, Note_on_c, 0, 65, 0
1, 163200, Note_on_c, 0, 59, 0
1, 163200, Note_on_c, 0, 62, 0
1, 163200, Note_on_c, 0, 76, 86
1, 163200, Note_on_c, 0, 60, 61
1, 163212, Note_on_c, 0, 77, 0
1, 163280, Note_on_c, 0, 60, 0
1, 163280, Note_on_c, 0, 64, 57
1, 163320, Note_on_c, 0, 76, 0
1, 163360, Note_on_c, 0, 64, 0
1, 163360, Note_on_c, 0, 72, 53
1, 163440, Note_on_c, 0, 72, 0
1, 163440, Note_on_c, 0, 79, 71
1, 163440, Note_on_c, 0, 62, 61
1, 163456, Control_c, 0, 64, 127
1, 163470, Note_on_c, 0, 79, 0
1, 163470, Note_on_c, 0, 77, 66
1, 163500, Note_on_c, 0, 77, 0
1, 163500, Note_on_c, 0, 79, 71
1, 163520, Note_on_c, 0, 62, 0
1, 163520, Note_on_c, 0, 65, 57
1, 163530, Note_on_c, 0, 79, 0
1, 163530, Note_on_c, 0, 77, 67
1, 163560, Note_on_c, 0, 77, 0
1, 163560, Note_on_c, 0, 76, 81
1, 163600, Note_on_c, 0, 65, 0
1, 163600, Note_on_c, 0, 72, 53
1, 163620, Note_on_c, 0, 76, 0
1, 163620, Note_on_c, 0, 77, 79
1, 163680, Tempo, 866051
1, 163680, Note_on_c, 0, 77, 0
1, 163680, Note_on_c, 0, 72, 0
1, 163680, Note_on_c, 0, 79, 89
1, 163680, Note_on_c, 0, 64, 61
1, 163700, Control_c, 0, 64, 0
1, 163734, Control_c, 0, 64, 127
1, 163760, Note_on_c, 0, 64, 0
1, 163760, Note_on_c, 0, 67, 57
1, 163800, Note_on_c, 0, 79, 0
1, 163840, Note_on_c, 0, 67, 0
1, 163840, Note_on_c, 0, 72, 53
1, 163920, Note_on_c, 0, 72, 0
1, 163920, Note_on_c, 0, 60, 61
1, 163933, Control_c, 0, 64, 0
1, 163968, Control_c, 0, 64, 127
1, 164000, Note_on_c, 0, 60, 0
1, 164000, Note_on_c, 0, 64, 48
1, 164080, Tempo, 989772
1, 164080, Note_on_c, 0, 64, 0
1, 164080, Note_on_c, 0, 81, 53
1, 164080, Note_on_c, 0, 72, 48
1, 164120, Tempo, 866051
1, 164120, Note_on_c, 0, 81, 0
1, 164120, Note_on_c, 0, 83, 49
1, 164160, Note_on_c, 0, 83, 0
1, 164160, Note_on_c, 0, 72, 0
1, 164160, Note_on_c, 0, 84, 61
1, 164160, Note_on_c, 0, 65, 43
1, 164171, Control_c, 0, 64, 0
1, 164199, Control_c, 0, 64, 127
1, 164240, Note_on_c, 0, 65, 0
1, 164240, Note_on_c, 0, 69, 40
1, 164320, Note_on_c, 0, 69, 0
1, 164320, Note_on_c, 0, 72, 38
1, 164397, Note_on_c, 0, 84, 0
1, 164400, Note_on_c, 0, 72, 0
1, 164400, Note_on_c, 0, 84, 56
1, 164400, Note_on_c, 0, 65, 43
1, 164480, Note_on_c, 0, 65, 0
1, 164480, Note_on_c, 0, 69, 40
1, 164560, Note_on_c, 0, 69, 0
1, 164560, Note_on_c, 0, 72, 39
1, 164577, Note_on_c, 0, 84, 0
1, 164580, Note_on_c, 0, 84, 54
1, 164637, Note_on_c, 0, 84, 0
1, 164640, Note_on_c, 0, 72, 0
1, 164640, Note_on_c, 0, 84, 56
1, 164640, Note_on_c, 0, 65, 43
1, 164720, Note_on_c, 0, 65, 0
1, 164720, Note_on_c, 0, 69, 41
1, 164800, Note_on_c, 0, 69, 0
1, 164800, Note_on_c, 0, 72, 40
1, 164880, Tempo, 866051
1, 164880, Note_on_c, 0, 72, 0
1, 164880, Note_on_c, 0, 84, 0
1, 164880, Note_on_c, 0, 83, 55
1, 164880, Note_on_c, 0, 65, 43
1, 164940, Note_on_c, 0, 83, 0
1, 164940, Note_on_c, 0, 81, 50
1, 164960, Note_on_c, 0, 65, 0
1, 164960, Note_on_c, 0, 69, 41
1, 165000, Note_on_c, 0, 81, 0
1, 165000, Note_on_c, 0, 79, 53
1, 165040, Note_on_c, 0, 69, 0
1, 165040, Note_on_c, 0, 72, 40
1, 165060, Note_on_c, 0, 79, 0
1, 165060, Note_on_c, 0, 77, 51
1, 165120, Tempo, 888362
1, 165120, Note_on_c, 0, 77, 0
1, 165120, Note_on_c, 0, 72, 0
1, 165120, Note_on_c, 0, 76, 78
1, 165120, Note_on_c, 0, 60, 57
1, 165136, Control_c, 0, 64, 0
1, 165200, Note_on_c, 0, 60, 0
1, 165200, Note_on_c, 0, 64, 55
1, 165209, Control_c, 0, 64, 127
1, 165240, Note_on_c, 0, 76, 0
1, 165280, Note_on_c, 0, 64, 0
1, 165280, Note_on_c, 0, 72, 50
1, 165360, Note_on_c, 0, 72, 0
1, 165360, Note_on_c, 0, 77, 67
1, 165360, Note_on_c, 0, 62, 57
1, 165376, Control_c, 0, 64, 0
1, 165390, Note_on_c, 0, 77, 0
1, 165390, Note_on_c, 0, 79, 63
1, 165414, Control_c, 0, 64, 127
1, 165420, Note_on_c, 0, 79, 0
1, 165420, Note_on_c, 0, 77, 67
1, 165440, Note_on_c, 0, 62, 0
1, 165440, Note_on_c, 0, 65, 54
1, 165450, Note_on_c, 0, 77, 0
1, 165450, Note_on_c, 0, 79, 63
1, 165480, Note_on_c, 0, 79, 0
1, 165480, Note_on_c, 0, 77, 67
1, 165510, Note_on_c, 0, 77, 0
1, 165520, Note_on_c, 0, 65, 0
1, 165520, Note_on_c, 0, 76, 76
1, 165520, Note_on_c, 0, 72, 51
1, 165560, Note_on_c, 0, 76, 0
1, 165560, Note_on_c, 0, 77, 72
1, 165600, Tempo, 866051
1, 165600, Note_on_c, 0, 77, 0
1, 165600, Note_on_c, 0, 72, 0
1, 165600, Note_on_c, 0, 79, 87
1, 165600, Note_on_c, 0, 64, 57
1, 165608, Control_c, 0, 64, 0
1, 165654, Control_c, 0, 64, 127
1, 165680, Note_on_c, 0, 64, 0
1, 165680, Note_on_c, 0, 67, 54
1, 165720, Note_on_c, 0, 79, 0
1, 165760, Note_on_c, 0, 67, 0
1, 165760, Note_on_c, 0, 72, 51
1, 165840, Note_on_c, 0, 72, 0
1, 165840, Note_on_c, 0, 60, 57
1, 165846, Control_c, 0, 64, 0
1, 165878, Control_c, 0, 64, 127
1, 165920, Note_on_c, 0, 60, 0
1, 165920, Note_on_c, 0, 64, 54
1, 166000, Tempo, 955871
1, 166000, Note_on_c, 0, 64, 0
1, 166000, Note_on_c, 0, 81, 53
1, 166000, Note_on_c, 0, 72, 49
1, 166040, Note_on_c, 0, 81, 0
1, 166040, Note_on_c, 0, 83, 48
1, 166080, Tempo, 866051
1, 166080, Note_on_c, 0, 83, 0
1, 166080, Note_on_c, 0, 72, 0
1, 166080, Note_on_c, 0, 84, 61
1, 166080, Note_on_c, 0, 65, 38
1, 166086, Control_c, 0, 64, 0
1, 166126, Control_c, 0, 64, 127
1, 166160, Note_on_c, 0, 65, 0
1, 166160, Note_on_c, 0, 69, 36
1, 166240, Note_on_c, 0, 69, 0
1, 166240, Note_on_c, 0, 72, 36
1, 166317, Note_on_c, 0, 84, 0
1, 166320, Note_on_c, 0, 72, 0
1, 166320, Note_on_c, 0, 84, 55
1, 166320, Note_on_c, 0, 65, 38
1, 166400, Note_on_c, 0, 65, 0
1, 166400, Note_on_c, 0, 69, 36
1, 166480, Note_on_c, 0, 69, 0
1, 166480, Note_on_c, 0, 72, 36
1, 166497, Note_on_c, 0, 84, 0
1, 166500, Note_on_c, 0, 84, 52
1, 166557, Note_on_c, 0, 84, 0
1, 166560, Note_on_c, 0, 72, 0
1, 166560, Note_on_c, 0, 84, 55
1, 166560, Note_on_c, 0, 65, 43
1, 166640, Note_on_c, 0, 65, 0
1, 166640, Note_on_c, 0, 69, 39
1, 166720, Note_on_c, 0, 69, 0
1, 166720, Note_on_c, 0, 72, 39
1, 166800, Note_on_c, 0, 72, 0
1, 166800, Note_on_c, 0, 84, 0
1, 166800, Note_on_c, 0, 83, 54
1, 166800, Note_on_c, 0, 65, 43
1, 166860, Note_on_c, 0, 83, 0
1, 166860, Note_on_c, 0, 81, 52
1, 166880, Note_on_c, 0, 65, 0
1, 166880, Note_on_c, 0, 69, 40
1, 166920, Note_on_c, 0, 81, 0
1, 166920, Note_on_c, 0, 79, 54
1, 166960, Note_on_c, 0, 69, 0
1, 166960, Note_on_c, 0, 72, 40
1, 166980, Note_on_c, 0, 79, 0
1, 166980, Note_on_c, 0, 77, 53
1, 167040, Tempo, 930233
1, 167040, Note_on_c, 0, 77, 0
1, 167040, Note_on_c, 0, 72, 0
1, 167040, Note_on_c, 0, 76, 83
1, 167040, Note_on_c, 0, 60, 64
1, 167048, Control_c, 0, 64, 0
1, 167100, Note_on_c, 0, 76, 0
1, 167160, Tempo, 866051
1, 167160, Note_on_c, 0, 60, 0
1, 167160, Note_on_c, 0, 84, 78
1, 167220, Note_on_c, 0, 86, 78
1, 167232, Note_on_c, 0, 84, 0
1, 167280, Note_on_c, 0, 88, 81
1, 167292, Note_on_c, 0, 86, 0
1, 167340, Note_on_c, 0, 86, 78
1, 167352, Note_on_c, 0, 88, 0
1, 167400, Note_on_c, 0, 84, 81
1, 167412, Note_on_c, 0, 86, 0
1, 167460, Note_on_c, 0, 83, 78
1, 167472, Note_on_c, 0, 84, 0
1, 167520, Tempo, 866051
1, 167520, Note_on_c, 0, 81, 81
1, 167520, Note_on_c, 0, 53, 64
1, 167532, Note_on_c, 0, 83, 0
1, 167580, Note_on_c, 0, 79, 78
1, 167592, Note_on_c, 0, 81, 0
1, 167600, Tempo, 871586
1, 167640, Note_on_c, 0, 53, 0
1, 167640, Note_on_c, 0, 77, 81
1, 167652, Note_on_c, 0, 79, 0
1, 167680, Tempo, 877193
1, 167700, Note_on_c, 0, 76, 76
1, 167712, Note_on_c, 0, 77, 0
1, 167760, Tempo, 882742
1, 167760, Note_on_c, 0, 74, 81
1, 167772, Note_on_c, 0, 76, 0
1, 167820, Note_on_c, 0, 72, 76
1, 167832, Note_on_c, 0, 74, 0
1, 167840, Tempo, 888362
1, 167880, Note_on_c, 0, 71, 81
1, 167892, Note_on_c, 0, 72, 0
1, 167920, Tempo, 894188
1, 167940, Note_on_c, 0, 69, 73
1, 167952, Note_on_c, 0, 71, 0
1, 167960, Tempo, 899955
1, 168000, Tempo, 982962
1, 168000, Note_on_c, 0, 67, 85
1, 168000, Note_on_c, 0, 55, 60
1, 168012, Note_on_c, 0, 69, 0
1, 168120, Note_on_c, 0, 55, 0
1, 168120, Note_on_c, 0, 67, 0
1, 168240, Tempo, 923930
1, 168240, Note_on_c, 0, 65, 90
1, 168240, Note_on_c, 0, 59, 59
1, 168240, Note_on_c, 0, 62, 59
1, 168240, Note_on_c, 0, 56, 59
1, 168311, Control_c, 0, 64, 127
1, 168720, Note_on_c, 0, 56, 0
1, 168720, Note_on_c, 0, 65, 0
1, 168720, Note_on_c, 0, 59, 0
1, 168720, Note_on_c, 0, 62, 0
1, 168720, Note_on_c, 0, 64, 76
1, 168720, Note_on_c, 0, 57, 51
1, 168720, Note_on_c, 0, 60, 51
1, 168730, Control_c, 0, 64, 0
1, 168960, Note_on_c, 0, 60, 0
1, 168960, Note_on_c, 0, 57, 0
1, 168960, Note_on_c, 0, 64, 0
1, 168960, Note_on_c, 0, 53, 43
1, 168960, Note_on_c, 0, 57, 43
1, 169080, Tempo, 866051
1, 169080, Note_on_c, 0, 62, 55
1, 169140, Note_on_c, 0, 62, 0
1, 169200, Note_on_c, 0, 57, 0
1, 169200, Note_on_c, 0, 53, 0
1, 169200, Note_on_c, 0, 65, 54
1, 169260, Note_on_c, 0, 65, 0
1, 169320, Note_on_c, 0, 69, 53
1, 169380, Note_on_c, 0, 69, 0
1, 169440, Note_on_c, 0, 73, 55
1, 169560, Note_on_c, 0, 73, 0
1, 169560, Note_on_c, 0, 74, 54
1, 169680, Note_on_c, 0, 74, 0
1, 169680, Note_on_c, 0, 77, 55
1, 169800, Note_on_c, 0, 77, 0
1, 169800, Note_on_c, 0, 81, 53
1, 169920, Tempo, 930233
1, 169920, Note_on_c, 0, 81, 0
1, 169920, Note_on_c, 0, 81, 61
1, 170040, Note_on_c, 0, 81, 0
1, 170040, Note_on_c, 0, 72, 55
1, 170157, Note_on_c, 0, 72, 0
1, 170160, Note_on_c, 0, 72, 54
1, 170160, Note_on_c, 0, 55, 44
1, 170160, Note_on_c, 0, 64, 44
1, 170224, Control_c, 0, 64, 127
1, 170400, Tempo, 877193
1, 170400, Note_on_c, 0, 64, 0
1, 170400, Note_on_c, 0, 65, 44
1, 170417, Control_c, 0, 64, 0
1, 170485, Control_c, 0, 64, 127
1, 170640, Tempo, 899955
1, 170640, Note_on_c, 0, 72, 0
1, 170640, Note_on_c, 0, 71, 56
1, 170640, Note_on_c, 0, 76, 56
1, 170760, Note_on_c, 0, 76, 0
1, 170760, Note_on_c, 0, 74, 54
1, 170880, Tempo, 930233
1, 170880, Note_on_c, 0, 74, 0
1, 170880, Note_on_c, 0, 71, 0
1, 170880, Note_on_c, 0, 65, 0
1, 170880, Note_on_c, 0, 55, 0
1, 170880, Note_on_c, 0, 72, 54
1, 170880, Note_on_c, 0, 64, 46
1, 170880, Note_on_c, 0, 60, 46
1, 170885, Control_c, 0, 64, 0
1, 171000, Note_on_c, 0, 60, 0
1, 171120, Note_on_c, 0, 64, 0
1, 171120, Note_on_c, 0, 72, 0
1, 171120, Note_on_c, 0, 48, 44
1, 171240, Note_on_c, 0, 48, 0
1, 171360, Tempo, 866051
1, 171360, Note_on_c, 0, 79, 76
1, 171480, Note_on_c, 0, 79, 0
1, 171480, Note_on_c, 0, 76, 72
1, 171600, Note_on_c, 0, 76, 0
1, 171600, Note_on_c, 0, 84, 57
1, 171720, Tempo, 877193
1, 171720, Note_on_c, 0, 84, 0
1, 171720, Note_on_c, 0, 83, 53
1, 171780, Note_on_c, 0, 83, 0
1, 171840, Note_on_c, 0, 81, 51
1, 171900, Note_on_c, 0, 81, 0
1, 171960, Note_on_c, 0, 79, 49
1, 172020, Note_on_c, 0, 79, 0
1, 172080, Note_on_c, 0, 77, 54
1, 172140, Note_on_c, 0, 77, 0
1, 172200, Note_on_c, 0, 76, 50
1, 172260, Note_on_c, 0, 76, 0
1, 172320, Tempo, 888362
1, 172320, Note_on_c, 0, 74, 53
1, 172440, Note_on_c, 0, 74, 0
1, 172560, Note_on_c, 0, 76, 54
1, 172680, Note_on_c, 0, 76, 0
1, 172800, Tempo, 894188
1, 172800, Note_on_c, 0, 79, 58
1, 172920, Note_on_c, 0, 79, 0
1, 172920, Note_on_c, 0, 78, 54
1, 173040, Note_on_c, 0, 78, 0
1, 173040, Note_on_c, 0, 77, 54
1, 173040, Note_on_c, 0, 67, 43
1, 173040, Note_on_c, 0, 59, 43
1, 173160, Note_on_c, 0, 77, 0
1, 173280, Tempo, 866051
1, 173280, Note_on_c, 0, 59, 0
1, 173280, Note_on_c, 0, 76, 51
1, 173280, Note_on_c, 0, 60, 43
1, 173400, Note_on_c, 0, 76, 0
1, 173400, Note_on_c, 0, 77, 54
1, 173520, Note_on_c, 0, 77, 0
1, 173520, Note_on_c, 0, 60, 0
1, 173520, Note_on_c, 0, 67, 0
1, 173520, Note_on_c, 0, 79, 57
1, 173640, Note_on_c, 0, 79, 0
1, 173640, Note_on_c, 0, 80, 59
1, 173700, Note_on_c, 0, 80, 0
1, 173760, Tempo, 888362
1, 173760, Note_on_c, 0, 81, 49
1, 173760, Note_on_c, 0, 53, 43
1, 173760, Note_on_c, 0, 60, 43
1, 173786, Control_c, 0, 64, 127
1, 173796, Note_on_c, 0, 81, 0
1, 173796, Note_on_c, 0, 83, 51
1, 173832, Note_on_c, 0, 83, 0
1, 173832, Note_on_c, 0, 81, 54
1, 173868, Note_on_c, 0, 81, 0
1, 173868, Note_on_c, 0, 83, 56
1, 173904, Note_on_c, 0, 83, 0
1, 173904, Note_on_c, 0, 81, 58
1, 173940, Tempo, 866051
1, 173940, Note_on_c, 0, 81, 0
1, 173940, Note_on_c, 0, 83, 62
1, 174000, Note_on_c, 0, 83, 0
1, 174000, Note_on_c, 0, 84, 68
1, 174060, Note_on_c, 0, 84, 0
1, 174120, Note_on_c, 0, 83, 61
1, 174130, Control_c, 0, 64, 0
1, 174180, Note_on_c, 0, 83, 0
1, 174240, Tempo, 866051
1, 174240, Note_on_c, 0, 60, 0
1, 174240, Note_on_c, 0, 53, 0
1, 174240, Note_on_c, 0, 81, 62
1, 174300, Note_on_c, 0, 81, 0
1, 174360, Note_on_c, 0, 79, 57
1, 174400, Tempo, 871586
1, 174420, Note_on_c, 0, 79, 0
1, 174480, Note_on_c, 0, 77, 60
1, 174480, Note_on_c, 0, 54, 40
1, 174480, Note_on_c, 0, 57, 40
1, 174540, Note_on_c, 0, 77, 0
1, 174560, Tempo, 877193
1, 174600, Tempo, 936330
1, 174600, Note_on_c, 0, 76, 57
1, 174660, Note_on_c, 0, 76, 0
1, 174680, Tempo, 882742
1, 174720, Tempo, 899955
1, 174720, Note_on_c, 0, 57, 0
1, 174720, Note_on_c, 0, 54, 0
1, 174720, Note_on_c, 0, 79, 64
1, 174720, Note_on_c, 0, 60, 43
1, 174720, Note_on_c, 0, 55, 43
1, 174774, Control_c, 0, 64, 127
1, 174900, Note_on_c, 0, 79, 0
1, 174900, Note_on_c, 0, 76, 61
1, 174960, Note_on_c, 0, 76, 0
1, 174960, Note_on_c, 0, 60, 0
1, 174960, Note_on_c, 0, 74, 61
1, 174960, Note_on_c, 0, 59, 40
1, 174973, Control_c, 0, 64, 0
1, 175080, Note_on_c, 0, 74, 0
1, 175200, Tempo, 866051
1, 175200, Note_on_c, 0, 59, 0
1, 175200, Note_on_c, 0, 55, 0
1, 175200, Note_on_c, 0, 79, 86
1, 175200, Note_on_c, 0, 67, 77
1, 175380, Note_on_c, 0, 67, 0
1, 175380, Note_on_c, 0, 79, 0
1, 175380, Note_on_c, 0, 81, 81
1, 175380, Note_on_c, 0, 69, 68
1, 175410, Note_on_c, 0, 69, 0
1, 175410, Note_on_c, 0, 81, 0
1, 175410, Note_on_c, 0, 83, 76
1, 175410, Note_on_c, 0, 71, 63
1, 175440, Note_on_c, 0, 71, 0
1, 175440, Note_on_c, 0, 83, 0
1, 175440, Note_on_c, 0, 84, 85
1, 175440, Note_on_c, 0, 72, 69
1, 175560, Note_on_c, 0, 72, 0
1, 175560, Note_on_c, 0, 84, 0
1, 175560, Note_on_c, 0, 83, 62
1, 175560, Note_on_c, 0, 71, 56
1, 175620, Note_on_c, 0, 71, 0
1, 175620, Note_on_c, 0, 83, 0
1, 175680, Note_on_c, 0, 81, 62
1, 175680, Note_on_c, 0, 69, 56
1, 175740, Note_on_c, 0, 69, 0
1, 175740, Note_on_c, 0, 81, 0
1, 175800, Note_on_c, 0, 79, 60
1, 175800, Note_on_c, 0, 67, 52
1, 175860, Note_on_c, 0, 67, 0
1, 175860, Note_on_c, 0, 79, 0
1, 175920, Note_on_c, 0, 77, 62
1, 175920, Note_on_c, 0, 65, 56
1, 175980, Note_on_c, 0, 65, 0
1, 175980, Note_on_c, 0, 77, 0
1, 176040, Note_on_c, 0, 76, 59
1, 176040, Note_on_c, 0, 64, 52
1, 176100, Note_on_c, 0, 64, 0
1, 176100, Note_on_c, 0, 76, 0
1, 176160, Tempo, 882742
1, 176160, Note_on_c, 0, 74, 63
1, 176160, Note_on_c, 0, 62, 57
1, 176280, Note_on_c, 0, 62, 0
1, 176280, Note_on_c, 0, 74, 0
1, 176400, Note_on_c, 0, 76, 70
1, 176400, Note_on_c, 0, 64, 62
1, 176520, Note_on_c, 0, 64, 0
1, 176520, Note_on_c, 0, 76, 0
1, 176600, Tempo, 882742
1, 176640, Tempo, 882742
1, 176640, Note_on_c, 0, 77, 72
1, 176640, Note_on_c, 0, 65, 67
1, 176760, Note_on_c, 0, 65, 0
1, 176760, Note_on_c, 0, 77, 0
1, 176840, Tempo, 888362
1, 176880, Note_on_c, 0, 78, 78
1, 176880, Note_on_c, 0, 66, 69
1, 177000, Note_on_c, 0, 66, 0
1, 177000, Note_on_c, 0, 78, 0
1, 177040, Tempo, 894188
1, 177120, Note_on_c, 0, 79, 79
1, 177120, Note_on_c, 0, 67, 70
1, 177240, Tempo, 899955
1, 177240, Note_on_c, 0, 67, 0
1, 177240, Note_on_c, 0, 79, 0
1, 177360, Note_on_c, 0, 80, 82
1, 177360, Note_on_c, 0, 68, 72
1, 177440, Tempo, 905934
1, 177480, Note_on_c, 0, 68, 0
1, 177480, Note_on_c, 0, 80, 0
1, 177600, Tempo, 911854
1, 177600, Note_on_c, 0, 81, 85
1, 177600, Note_on_c, 0, 69, 77
1, 177653, Control_c, 0, 64, 127
1, 177780, Tempo, 866051
1, 177780, Note_on_c, 0, 81, 0
1, 177780, Note_on_c, 0, 69, 79
1, 177840, Tempo, 871586
1, 177840, Note_on_c, 0, 69, 0
1, 177840, Note_on_c, 0, 69, 0
1, 177840, Note_on_c, 0, 77, 84
1, 177840, Note_on_c, 0, 53, 48
1, 177840, Note_on_c, 0, 62, 48
1, 177850, Control_c, 0, 64, 0
1, 177880, Tempo, 877193
1, 177890, Control_c, 0, 64, 127
1, 177940, Tempo, 882742
1, 177980, Tempo, 888362
1, 178020, Note_on_c, 0, 77, 0
1, 178020, Note_on_c, 0, 74, 81
1, 178040, Tempo, 894188
1, 178080, Tempo, 899955
1, 178080, Note_on_c, 0, 74, 0
1, 178080, Note_on_c, 0, 62, 0
1, 178080, Note_on_c, 0, 53, 0
1, 178080, Note_on_c, 0, 72, 77
1, 178080, Note_on_c, 0, 55, 48
1, 178080, Note_on_c, 0, 64, 48
1, 178094, Control_c, 0, 64, 0
1, 178172, Control_c, 0, 64, 127
1, 178290, Note_on_c, 0, 76, 64
1, 178320, Tempo, 866051
1, 178320, Note_on_c, 0, 76, 0
1, 178320, Note_on_c, 0, 64, 0
1, 178320, Note_on_c, 0, 72, 0
1, 178320, Note_on_c, 0, 74, 71
1, 178320, Note_on_c, 0, 71, 71
1, 178320, Note_on_c, 0, 65, 48
1, 178336, Control_c, 0, 64, 0
1, 178377, Control_c, 0, 64, 127
1, 178560, Tempo, 894188
1, 178560, Note_on_c, 0, 65, 0
1, 178560, Note_on_c, 0, 55, 0
1, 178560, Note_on_c, 0, 74, 0
1, 178560, Note_on_c, 0, 71, 0
1, 178560, Note_on_c, 0, 72, 71
1, 178560, Note_on_c, 0, 60, 60
1, 178566, Control_c, 0, 64, 0
1, 178617, Control_c, 0, 64, 127
1, 178680, Note_on_c, 0, 60, 0
1, 178680, Note_on_c, 0, 64, 52
1, 178800, Tempo, 866051
1, 178800, Note_on_c, 0, 64, 0
1, 178800, Note_on_c, 0, 72, 0
1, 178800, Note_on_c, 0, 67, 57
1, 178860, Note_on_c, 0, 72, 64
1, 178920, Note_on_c, 0, 72, 0
1, 178920, Note_on_c, 0, 67, 0
1, 178920, Note_on_c, 0, 74, 65
1, 178920, Note_on_c, 0, 64, 53
1, 178980, Note_on_c, 0, 74, 0
1, 178980, Note_on_c, 0, 76, 66
1, 179040, Tempo, 956633
1, 179040, Note_on_c, 0, 76, 0
1, 179040, Note_on_c, 0, 64, 0
1, 179040, Note_on_c, 0, 77, 68
1, 179040, Note_on_c, 0, 60, 60
1, 179056, Control_c, 0, 64, 0
1, 179070, Note_on_c, 0, 77, 0
1, 179070, Note_on_c, 0, 79, 68
1, 179100, Tempo, 912964
1, 179100, Note_on_c, 0, 79, 0
1, 179100, Note_on_c, 0, 77, 59
1, 179103, Control_c, 0, 64, 127
1, 179130, Note_on_c, 0, 77, 0
1, 179130, Note_on_c, 0, 76, 70
1, 179160, Tempo, 860585
1, 179160, Note_on_c, 0, 60, 0
1, 179160, Note_on_c, 0, 77, 71
1, 179160, Note_on_c, 0, 65, 53
1, 179190, Note_on_c, 0, 76, 0
1, 179220, Note_on_c, 0, 77, 0
1, 179220, Note_on_c, 0, 79, 72
1, 179280, Tempo, 941620
1, 179280, Note_on_c, 0, 79, 0
1, 179280, Note_on_c, 0, 65, 0
1, 179280, Note_on_c, 0, 81, 66
1, 179280, Note_on_c, 0, 69, 57
1, 179296, Control_c, 0, 64, 0
1, 179305, Note_on_c, 0, 81, 0
1, 179310, Note_on_c, 0, 83, 65
1, 179324, Control_c, 0, 64, 127
1, 179335, Note_on_c, 0, 83, 0
1, 179340, Tempo, 927070
1, 179340, Note_on_c, 0, 81, 70
1, 179370, Note_on_c, 0, 79, 75
1, 179400, Tempo, 860585
1, 179400, Note_on_c, 0, 81, 0
1, 179400, Note_on_c, 0, 69, 0
1, 179400, Note_on_c, 0, 81, 76
1, 179400, Note_on_c, 0, 65, 51
1, 179430, Note_on_c, 0, 79, 0
1, 179460, Note_on_c, 0, 81, 0
1, 179460, Note_on_c, 0, 83, 78
1, 179520, Tempo, 899955
1, 179520, Note_on_c, 0, 83, 0
1, 179520, Note_on_c, 0, 65, 0
1, 179520, Note_on_c, 0, 84, 87
1, 179520, Note_on_c, 0, 60, 60
1, 179527, Control_c, 0, 64, 0
1, 179580, Note_on_c, 0, 84, 0
1, 179640, Note_on_c, 0, 60, 0
1, 179640, Note_on_c, 0, 84, 84
1, 179640, Note_on_c, 0, 64, 47
1, 179700, Note_on_c, 0, 84, 0
1, 179760, Tempo, 866051
1, 179760, Note_on_c, 0, 64, 0
1, 179760, Note_on_c, 0, 67, 54
1, 179773, Control_c, 0, 64, 127
1, 179820, Note_on_c, 0, 72, 63
1, 179880, Note_on_c, 0, 72, 0
1, 179880, Note_on_c, 0, 67, 0
1, 179880, Note_on_c, 0, 74, 65
1, 179880, Note_on_c, 0, 64, 49
1, 179940, Note_on_c, 0, 74, 0
1, 179940, Note_on_c, 0, 76, 66
1, 180000, Tempo, 956633
1, 180000, Note_on_c, 0, 76, 0
1, 180000, Note_on_c, 0, 64, 0
1, 180000, Note_on_c, 0, 77, 68
1, 180000, Note_on_c, 0, 60, 60
1, 180009, Control_c, 0, 64, 0
1, 180030, Note_on_c, 0, 77, 0
1, 180030, Note_on_c, 0, 79, 68
1, 180041, Control_c, 0, 64, 127
1, 180060, Tempo, 912964
1, 180060, Note_on_c, 0, 79, 0
1, 180060, Note_on_c, 0, 77, 59
1, 180090, Note_on_c, 0, 77, 0
1, 180090, Note_on_c, 0, 76, 70
1, 180120, Tempo, 860585
1, 180120, Note_on_c, 0, 60, 0
1, 180120, Note_on_c, 0, 77, 71
1, 180120, Note_on_c, 0, 65, 53
1, 180150, Note_on_c, 0, 76, 0
1, 180180, Note_on_c, 0, 77, 0
1, 180180, Note_on_c, 0, 79, 72
1, 180240, Tempo, 941620
1, 180240, Note_on_c, 0, 79, 0
1, 180240, Note_on_c, 0, 65, 0
1, 180240, Note_on_c, 0, 81, 66
1, 180240, Note_on_c, 0, 69, 57
1, 180250, Control_c, 0, 64, 0
1, 180265, Note_on_c, 0, 81, 0
1, 180270, Note_on_c, 0, 83, 65
1, 180291, Control_c, 0, 64, 127
1, 180295, Note_on_c, 0, 83, 0
1, 180300, Tempo, 927070
1, 180300, Note_on_c, 0, 81, 70
1, 180330, Note_on_c, 0, 79, 75
1, 180360, Tempo, 860585
1, 180360, Note_on_c, 0, 81, 0
1, 180360, Note_on_c, 0, 69, 0
1, 180360, Note_on_c, 0, 81, 76
1, 180360, Note_on_c, 0, 65, 52
1, 180390, Note_on_c, 0, 79, 0
1, 180420, Note_on_c, 0, 81, 0
1, 180420, Note_on_c, 0, 83, 78
1, 180480, Note_on_c, 0, 83, 0
1, 180480, Note_on_c, 0, 65, 0
1, 180480, Note_on_c, 0, 84, 88
1, 180480, Note_on_c, 0, 67, 58
1, 180480, Note_on_c, 0, 64, 58
1, 180480, Note_on_c, 0, 60, 58
1, 180494, Control_c, 0, 64, 0
1, 180540, Note_on_c, 0, 84, 0
1, 180600, Note_on_c, 0, 84, 86
1, 180660, Note_on_c, 0, 84, 0
1, 180720, Tempo, 866051
1, 180720, Note_on_c, 0, 60, 0
1, 180720, Note_on_c, 0, 64, 0
1, 180720, Note_on_c, 0, 67, 0
1, 180720, Note_on_c, 0, 67, 46
1, 180720, Note_on_c, 0, 65, 46
1, 180780, Note_on_c, 0, 79, 55
1, 180784, Control_c, 0, 64, 127
1, 180840, Note_on_c, 0, 79, 0
1, 180840, Note_on_c, 0, 83, 58
1, 180900, Note_on_c, 0, 83, 0
1, 180900, Note_on_c, 0, 79, 55
1, 180960, Tempo, 888362
1, 180960, Note_on_c, 0, 79, 0
1, 180960, Note_on_c, 0, 65, 0
1, 180960, Note_on_c, 0, 84, 59
1, 180960, Note_on_c, 0, 64, 44
1, 180966, Control_c, 0, 64, 0
1, 181020, Note_on_c, 0, 84, 0
1, 181080, Note_on_c, 0, 84, 59
1, 181140, Note_on_c, 0, 84, 0
1, 181200, Tempo, 866051
1, 181200, Note_on_c, 0, 64, 0
1, 181200, Note_on_c, 0, 67, 0
1, 181200, Note_on_c, 0, 67, 43
1, 181200, Note_on_c, 0, 65, 43
1, 181257, Control_c, 0, 64, 127
1, 181260, Note_on_c, 0, 79, 54
1, 181320, Note_on_c, 0, 79, 0
1, 181320, Note_on_c, 0, 83, 57
1, 181380, Note_on_c, 0, 83, 0
1, 181380, Note_on_c, 0, 79, 54
1, 181440, Tempo, 888362
1, 181440, Note_on_c, 0, 79, 0
1, 181440, Note_on_c, 0, 65, 0
1, 181440, Note_on_c, 0, 84, 59
1, 181440, Note_on_c, 0, 64, 45
1, 181463, Control_c, 0, 64, 0
1, 181500, Note_on_c, 0, 84, 0
1, 181560, Note_on_c, 0, 84, 66
1, 181620, Note_on_c, 0, 84, 0
1, 181680, Tempo, 866051
1, 181680, Note_on_c, 0, 64, 0
1, 181680, Note_on_c, 0, 67, 0
1, 181680, Note_on_c, 0, 65, 52
1, 181680, Note_on_c, 0, 67, 52
1, 181687, Control_c, 0, 64, 127
1, 181740, Note_on_c, 0, 79, 67
1, 181800, Note_on_c, 0, 79, 0
1, 181800, Note_on_c, 0, 67, 0
1, 181800, Note_on_c, 0, 65, 0
1, 181800, Note_on_c, 0, 83, 71
1, 181800, Note_on_c, 0, 65, 52
1, 181800, Note_on_c, 0, 67, 54
1, 181860, Note_on_c, 0, 83, 0
1, 181860, Note_on_c, 0, 79, 68
1, 181920, Tempo, 866051
1, 181920, Note_on_c, 0, 79, 0
1, 181920, Note_on_c, 0, 67, 0
1, 181920, Note_on_c, 0, 65, 0
1, 181920, Note_on_c, 0, 84, 75
1, 181920, Note_on_c, 0, 64, 52
1, 181920, Note_on_c, 0, 67, 57
1, 181933, Control_c, 0, 64, 0
1, 181966, Control_c, 0, 64, 127
1, 181980, Note_on_c, 0, 84, 0
1, 181980, Note_on_c, 0, 79, 72
1, 182000, Tempo, 871586
1, 182040, Note_on_c, 0, 79, 0
1, 182040, Note_on_c, 0, 67, 0
1, 182040, Note_on_c, 0, 64, 0
1, 182040, Note_on_c, 0, 84, 79
1, 182040, Note_on_c, 0, 64, 52
1, 182040, Note_on_c, 0, 67, 60
1, 182080, Tempo, 877193
1, 182100, Note_on_c, 0, 84, 0
1, 182100, Note_on_c, 0, 79, 75
1, 182160, Tempo, 882742
1, 182160, Note_on_c, 0, 79, 0
1, 182160, Note_on_c, 0, 67, 0
1, 182160, Note_on_c, 0, 64, 0
1, 182160, Note_on_c, 0, 86, 83
1, 182160, Note_on_c, 0, 59, 52
1, 182160, Note_on_c, 0, 67, 62
1, 182174, Control_c, 0, 64, 0
1, 182200, Tempo, 888362
1, 182213, Control_c, 0, 64, 127
1, 182220, Note_on_c, 0, 86, 0
1, 182220, Note_on_c, 0, 79, 81
1, 182280, Tempo, 894188
1, 182280, Note_on_c, 0, 79, 0
1, 182280, Note_on_c, 0, 67, 0
1, 182280, Note_on_c, 0, 59, 0
1, 182280, Note_on_c, 0, 86, 88
1, 182280, Note_on_c, 0, 59, 52
1, 182280, Note_on_c, 0, 67, 65
1, 182340, Note_on_c, 0, 86, 0
1, 182340, Note_on_c, 0, 79, 83
1, 182360, Tempo, 899955
1, 182400, Tempo, 905934
1, 182400, Note_on_c, 0, 79, 0
1, 182400, Note_on_c, 0, 67, 0
1, 182400, Note_on_c, 0, 59, 0
1, 182400, Note_on_c, 0, 88, 91
1, 182400, Note_on_c, 0, 60, 67
1, 182400, Note_on_c, 0, 67, 67
1, 182410, Control_c, 0, 64, 0
1, 182464, Control_c, 0, 64, 127
1, 182520, Note_on_c, 0, 88, 0
1, 182520, Note_on_c, 0, 84, 80
1, 182640, Note_on_c, 0, 84, 0
1, 182640, Note_on_c, 0, 67, 0
1, 182640, Note_on_c, 0, 60, 0
1, 182640, Note_on_c, 0, 79, 82
1, 182760, Note_on_c, 0, 79, 0
1, 182760, Note_on_c, 0, 84, 79
1, 182880, Note_on_c, 0, 84, 0
1, 182880, Note_on_c, 0, 76, 78
1, 183000, Note_on_c, 0, 76, 0
1, 183000, Note_on_c, 0, 79, 71
1, 183120, Note_on_c, 0, 79, 0
1, 183120, Note_on_c, 0, 72, 72
1, 183240, Note_on_c, 0, 72, 0
1, 183240, Note_on_c, 0, 76, 69
1, 183360, Tempo, 882742
1, 183360, Note_on_c, 0, 76, 0
1, 183360, Note_on_c, 0, 69, 60
1, 183370, Control_c, 0, 64, 0
1, 183414, Control_c, 0, 64, 127
1, 183480, Note_on_c, 0, 69, 0
1, 183480, Note_on_c, 0, 81, 60
1, 183600, Note_on_c, 0, 81, 0
1, 183600, Note_on_c, 0, 79, 63
1, 183600, Note_on_c, 0, 53, 44
1, 183600, Note_on_c, 0, 57, 44
1, 183600, Note_on_c, 0, 62, 44
1, 183610, Control_c, 0, 64, 0
1, 183648, Control_c, 0, 64, 127
1, 183660, Note_on_c, 0, 79, 0
1, 183660, Note_on_c, 0, 77, 58
1, 183720, Note_on_c, 0, 77, 0
1, 183720, Note_on_c, 0, 76, 63
1, 183780, Note_on_c, 0, 76, 0
1, 183780, Note_on_c, 0, 74, 58
1, 183840, Tempo, 905934
1, 183840, Note_on_c, 0, 74, 0
1, 183840, Note_on_c, 0, 62, 0
1, 183840, Note_on_c, 0, 57, 0
1, 183840, Note_on_c, 0, 53, 0
1, 183840, Note_on_c, 0, 72, 63
1, 183840, Note_on_c, 0, 55, 44
1, 183840, Note_on_c, 0, 64, 44
1, 183840, Note_on_c, 0, 60, 44
1, 183853, Control_c, 0, 64, 0
1, 183932, Control_c, 0, 64, 127
1, 184080, Note_on_c, 0, 60, 0
1, 184080, Note_on_c, 0, 64, 0
1, 184080, Note_on_c, 0, 72, 0
1, 184080, Note_on_c, 0, 71, 60
1, 184080, Note_on_c, 0, 62, 43
1, 184080, Note_on_c, 0, 65, 43
1, 184095, Control_c, 0, 64, 0
1, 184112, Note_on_c, 0, 71, 0
1, 184112, Note_on_c, 0, 72, 63
1, 184128, Control_c, 0, 64, 127
1, 184144, Note_on_c, 0, 72, 0
1, 184144, Note_on_c, 0, 71, 60
1, 184176, Note_on_c, 0, 71, 0
1, 184176, Note_on_c, 0, 72, 63
1, 184208, Note_on_c, 0, 72, 0
1, 184208, Note_on_c, 0, 71, 63
1, 184240, Note_on_c, 0, 71, 0
1, 184240, Note_on_c, 0, 69, 63
1, 184280, Note_on_c, 0, 69, 0
1, 184280, Note_on_c, 0, 71, 60
1, 184320, Tempo, 894188
1, 184320, Note_on_c, 0, 71, 0
1, 184320, Note_on_c, 0, 55, 0
1, 184320, Note_on_c, 0, 62, 0
1, 184320, Note_on_c, 0, 65, 0
1, 184320, Note_on_c, 0, 72, 71
1, 184320, Note_on_c, 0, 60, 60
1, 184324, Control_c, 0, 64, 0
1, 184368, Control_c, 0, 64, 127
1, 184440, Note_on_c, 0, 60, 0
1, 184440, Note_on_c, 0, 64, 52
1, 184560, Tempo, 866051
1, 184560, Note_on_c, 0, 64, 0
1, 184560, Note_on_c, 0, 72, 0
1, 184560, Note_on_c, 0, 67, 57
1, 184620, Note_on_c, 0, 72, 64
1, 184680, Note_on_c, 0, 72, 0
1, 184680, Note_on_c, 0, 67, 0
1, 184680, Note_on_c, 0, 74, 65
1, 184680, Note_on_c, 0, 64, 52
1, 184740, Note_on_c, 0, 74, 0
1, 184740, Note_on_c, 0, 76, 66
1, 184800, Tempo, 956633
1, 184800, Note_on_c, 0, 76, 0
1, 184800, Note_on_c, 0, 64, 0
1, 184800, Note_on_c, 0, 77, 68
1, 184800, Note_on_c, 0, 60, 60
1, 184810, Control_c, 0, 64, 0
1, 184830, Note_on_c, 0, 77, 0
1, 184830, Note_on_c, 0, 79, 68
1, 184848, Control_c, 0, 64, 127
1, 184860, Tempo, 912964
1, 184860, Note_on_c, 0, 79, 0
1, 184860, Note_on_c, 0, 77, 59
1, 184890, Note_on_c, 0, 77, 0
1, 184890, Note_on_c, 0, 76, 70
1, 184920, Tempo, 860585
1, 184920, Note_on_c, 0, 60, 0
1, 184920, Note_on_c, 0, 77, 71
1, 184920, Note_on_c, 0, 65, 53
1, 184950, Note_on_c, 0, 76, 0
1, 184980, Note_on_c, 0, 77, 0
1, 184980, Note_on_c, 0, 79, 72
1, 185040, Tempo, 941620
1, 185040, Note_on_c, 0, 79, 0
1, 185040, Note_on_c, 0, 65, 0
1, 185040, Note_on_c, 0, 81, 66
1, 185040, Note_on_c, 0, 69, 57
1, 185053, Control_c, 0, 64, 0
1, 185065, Note_on_c, 0, 81, 0
1, 185070, Note_on_c, 0, 83, 65
1, 185091, Control_c, 0, 64, 127
1, 185095, Note_on_c, 0, 83, 0
1, 185100, Tempo, 927070
1, 185100, Note_on_c, 0, 81, 70
1, 185130, Note_on_c, 0, 79, 75
1, 185160, Tempo, 860585
1, 185160, Note_on_c, 0, 81, 0
1, 185160, Note_on_c, 0, 69, 0
1, 185160, Note_on_c, 0, 81, 76
1, 185160, Note_on_c, 0, 65, 57
1, 185190, Note_on_c, 0, 79, 0
1, 185220, Note_on_c, 0, 81, 0
1, 185220, Note_on_c, 0, 83, 78
1, 185280, Note_on_c, 0, 83, 0
1, 185280, Note_on_c, 0, 65, 0
1, 185280, Note_on_c, 0, 84, 84
1, 185280, Note_on_c, 0, 60, 60
1, 185291, Control_c, 0, 64, 0
1, 185340, Note_on_c, 0, 84, 0
1, 185400, Note_on_c, 0, 60, 0
1, 185400, Note_on_c, 0, 84, 81
1, 185400, Note_on_c, 0, 64, 52
1, 185460, Note_on_c, 0, 84, 0
1, 185520, Tempo, 866051
1, 185520, Note_on_c, 0, 64, 0
1, 185520, Note_on_c, 0, 67, 57
1, 185539, Control_c, 0, 64, 127
1, 185580, Note_on_c, 0, 72, 63
1, 185640, Note_on_c, 0, 72, 0
1, 185640, Note_on_c, 0, 67, 0
1, 185640, Note_on_c, 0, 74, 65
1, 185640, Note_on_c, 0, 64, 51
1, 185700, Note_on_c, 0, 74, 0
1, 185700, Note_on_c, 0, 76, 66
1, 185760, Tempo, 956633
1, 185760, Note_on_c, 0, 76, 0
1, 185760, Note_on_c, 0, 64, 0
1, 185760, Note_on_c, 0, 77, 68
1, 185760, Note_on_c, 0, 60, 60
1, 185776, Control_c, 0, 64, 0
1, 185790, Note_on_c, 0, 77, 0
1, 185790, Note_on_c, 0, 79, 68
1, 185817, Control_c, 0, 64, 127
1, 185820, Tempo, 912964
1, 185820, Note_on_c, 0, 79, 0
1, 185820, Note_on_c, 0, 77, 59
1, 185850, Note_on_c, 0, 77, 0
1, 185850, Note_on_c, 0, 76, 70
1, 185880, Tempo, 860585
1, 185880, Note_on_c, 0, 60, 0
1, 185880, Note_on_c, 0, 77, 71
1, 185880, Note_on_c, 0, 65, 53
1, 185910, Note_on_c, 0, 76, 0
1, 185940, Note_on_c, 0, 77, 0
1, 185940, Note_on_c, 0, 79, 72
1, 186000, Tempo, 941620
1, 186000, Note_on_c, 0, 79, 0
1, 186000, Note_on_c, 0, 65, 0
1, 186000, Note_on_c, 0, 81, 66
1, 186000, Note_on_c, 0, 69, 57
1, 186010, Control_c, 0, 64, 0
1, 186025, Note_on_c, 0, 81, 0
1, 186030, Note_on_c, 0, 83, 65
1, 186038, Control_c, 0, 64, 127
1, 186055, Note_on_c, 0, 83, 0
1, 186060, Tempo, 927070
1, 186060, Note_on_c, 0, 81, 70
1, 186090, Note_on_c, 0, 79, 75
1, 186120, Tempo, 860585
1, 186120, Note_on_c, 0, 81, 0
1, 186120, Note_on_c, 0, 69, 0
1, 186120, Note_on_c, 0, 81, 76
1, 186120, Note_on_c, 0, 65, 51
1, 186150, Note_on_c, 0, 79, 0
1, 186180, Note_on_c, 0, 81, 0
1, 186180, Note_on_c, 0, 83, 78
1, 186240, Note_on_c, 0, 83, 0
1, 186240, Note_on_c, 0, 65, 0
1, 186240, Note_on_c, 0, 84, 84
1, 186240, Note_on_c, 0, 67, 60
1, 186240, Note_on_c, 0, 64, 60
1, 186240, Note_on_c, 0, 60, 60
1, 186253, Control_c, 0, 64, 0
1, 186300, Note_on_c, 0, 84, 0
1, 186360, Note_on_c, 0, 84, 80
1, 186420, Note_on_c, 0, 84, 0
1, 186480, Tempo, 866051
1, 186480, Note_on_c, 0, 60, 0
1, 186480, Note_on_c, 0, 64, 0
1, 186480, Note_on_c, 0, 67, 0
1, 186480, Note_on_c, 0, 67, 46
1, 186480, Note_on_c, 0, 65, 46
1, 186508, Control_c, 0, 64, 127
1, 186540, Note_on_c, 0, 79, 55
1, 186600, Note_on_c, 0, 79, 0
1, 186600, Note_on_c, 0, 83, 59
1, 186660, Note_on_c, 0, 83, 0
1, 186660, Note_on_c, 0, 79, 55
1, 186720, Tempo, 888362
1, 186720, Note_on_c, 0, 79, 0
1, 186720, Note_on_c, 0, 65, 0
1, 186720, Note_on_c, 0, 84, 59
1, 186720, Note_on_c, 0, 64, 44
1, 186735, Control_c, 0, 64, 0
1, 186780, Note_on_c, 0, 84, 0
1, 186840, Note_on_c, 0, 84, 59
1, 186900, Note_on_c, 0, 84, 0
1, 186960, Tempo, 866051
1, 186960, Note_on_c, 0, 64, 0
1, 186960, Note_on_c, 0, 67, 0
1, 186960, Note_on_c, 0, 67, 42
1, 186960, Note_on_c, 0, 65, 42
1, 187020, Note_on_c, 0, 79, 54
1, 187038, Control_c, 0, 64, 127
1, 187080, Note_on_c, 0, 79, 0
1, 187080, Note_on_c, 0, 83, 56
1, 187140, Note_on_c, 0, 83, 0
1, 187140, Note_on_c, 0, 79, 54
1, 187200, Tempo, 888362
1, 187200, Note_on_c, 0, 79, 0
1, 187200, Note_on_c, 0, 65, 0
1, 187200, Note_on_c, 0, 84, 59
1, 187200, Note_on_c, 0, 64, 45
1, 187210, Control_c, 0, 64, 0
1, 187260, Note_on_c, 0, 84, 0
1, 187320, Note_on_c, 0, 84, 59
1, 187380, Note_on_c, 0, 84, 0
1, 187440, Tempo, 866051
1, 187440, Note_on_c, 0, 64, 0
1, 187440, Note_on_c, 0, 67, 0
1, 187440, Note_on_c, 0, 65, 52
1, 187440, Note_on_c, 0, 67, 52
1, 187472, Control_c, 0, 64, 127
1, 187500, Note_on_c, 0, 79, 67
1, 187554, Note_on_c, 0, 67, 0
1, 187554, Note_on_c, 0, 65, 0
1, 187560, Note_on_c, 0, 79, 0
1, 187560, Note_on_c, 0, 83, 71
1, 187560, Note_on_c, 0, 65, 52
1, 187560, Note_on_c, 0, 67, 54
1, 187620, Note_on_c, 0, 83, 0
1, 187620, Note_on_c, 0, 79, 68
1, 187674, Note_on_c, 0, 67, 0
1, 187674, Note_on_c, 0, 65, 0
1, 187680, Tempo, 866051
1, 187680, Note_on_c, 0, 79, 0
1, 187680, Note_on_c, 0, 84, 75
1, 187680, Note_on_c, 0, 64, 52
1, 187680, Note_on_c, 0, 67, 57
1, 187693, Control_c, 0, 64, 0
1, 187730, Control_c, 0, 64, 127
1, 187740, Note_on_c, 0, 84, 0
1, 187740, Note_on_c, 0, 79, 73
1, 187760, Tempo, 871586
1, 187794, Note_on_c, 0, 67, 0
1, 187794, Note_on_c, 0, 64, 0
1, 187800, Note_on_c, 0, 79, 0
1, 187800, Note_on_c, 0, 84, 79
1, 187800, Note_on_c, 0, 64, 52
1, 187800, Note_on_c, 0, 67, 60
1, 187840, Tempo, 877193
1, 187860, Note_on_c, 0, 84, 0
1, 187860, Note_on_c, 0, 79, 77
1, 187914, Note_on_c, 0, 67, 0
1, 187914, Note_on_c, 0, 64, 0
1, 187920, Tempo, 882742
1, 187920, Note_on_c, 0, 79, 0
1, 187920, Note_on_c, 0, 86, 83
1, 187920, Note_on_c, 0, 59, 52
1, 187920, Note_on_c, 0, 67, 62
1, 187934, Control_c, 0, 64, 0
1, 187960, Tempo, 888362
1, 187973, Control_c, 0, 64, 127
1, 187980, Note_on_c, 0, 86, 0
1, 187980, Note_on_c, 0, 79, 81
1, 188034, Note_on_c, 0, 67, 0
1, 188034, Note_on_c, 0, 59, 0
1, 188040, Tempo, 894188
1, 188040, Note_on_c, 0, 79, 0
1, 188040, Note_on_c, 0, 86, 88
1, 188040, Note_on_c, 0, 59, 52
1, 188040, Note_on_c, 0, 67, 65
1, 188100, Note_on_c, 0, 86, 0
1, 188100, Note_on_c, 0, 79, 82
1, 188120, Tempo, 899955
1, 188154, Note_on_c, 0, 67, 0
1, 188154, Note_on_c, 0, 59, 0
1, 188160, Tempo, 905934
1, 188160, Note_on_c, 0, 79, 0
1, 188160, Note_on_c, 0, 88, 88
1, 188160, Note_on_c, 0, 60, 67
1, 188160, Note_on_c, 0, 67, 67
1, 188168, Control_c, 0, 64, 0
1, 188206, Control_c, 0, 64, 127
1, 188220, Note_on_c, 0, 88, 0
1, 188220, Note_on_c, 0, 84, 78
1, 188280, Note_on_c, 0, 84, 0
1, 188280, Note_on_c, 0, 88, 84
1, 188340, Note_on_c, 0, 88, 0
1, 188340, Note_on_c, 0, 84, 80
1, 188400, Note_on_c, 0, 84, 0
1, 188400, Note_on_c, 0, 67, 0
1, 188400, Note_on_c, 0, 60, 0
1, 188400, Note_on_c, 0, 79, 82
1, 188460, Note_on_c, 0, 79, 0
1, 188460, Note_on_c, 0, 84, 74
1, 188520, Note_on_c, 0, 84, 0
1, 188520, Note_on_c, 0, 79, 79
1, 188580, Note_on_c, 0, 79, 0
1, 188580, Note_on_c, 0, 84, 71
1, 188640, Note_on_c, 0, 84, 0
1, 188640, Note_on_c, 0, 76, 78
1, 188700, Note_on_c, 0, 76, 0
1, 188700, Note_on_c, 0, 79, 71
1, 188760, Note_on_c, 0, 79, 0
1, 188760, Note_on_c, 0, 76, 76
1, 188820, Note_on_c, 0, 76, 0
1, 188820, Note_on_c, 0, 79, 71
1, 188880, Note_on_c, 0, 79, 0
1, 188880, Note_on_c, 0, 72, 72
1, 188940, Note_on_c, 0, 72, 0
1, 188940, Note_on_c, 0, 76, 67
1, 189000, Note_on_c, 0, 76, 0
1, 189000, Note_on_c, 0, 72, 71
1, 189060, Note_on_c, 0, 72, 0
1, 189060, Note_on_c, 0, 76, 63
1, 189120, Tempo, 882742
1, 189120, Note_on_c, 0, 76, 0
1, 189120, Note_on_c, 0, 69, 60
1, 189120, Control_c, 0, 64, 0
1, 189155, Control_c, 0, 64, 127
1, 189240, Note_on_c, 0, 69, 0
1, 189240, Note_on_c, 0, 81, 63
1, 189360, Note_on_c, 0, 81, 0
1, 189360, Note_on_c, 0, 79, 63
1, 189360, Note_on_c, 0, 53, 44
1, 189360, Note_on_c, 0, 57, 44
1, 189360, Note_on_c, 0, 62, 44
1, 189371, Control_c, 0, 64, 0
1, 189414, Control_c, 0, 64, 127
1, 189420, Note_on_c, 0, 79, 0
1, 189420, Note_on_c, 0, 77, 58
1, 189480, Note_on_c, 0, 77, 0
1, 189480, Note_on_c, 0, 76, 63
1, 189540, Note_on_c, 0, 76, 0
1, 189540, Note_on_c, 0, 74, 60
1, 189600, Tempo, 905934
1, 189600, Note_on_c, 0, 74, 0
1, 189600, Note_on_c, 0, 62, 0
1, 189600, Note_on_c, 0, 57, 0
1, 189600, Note_on_c, 0, 53, 0
1, 189600, Note_on_c, 0, 72, 63
1, 189600, Note_on_c, 0, 55, 44
1, 189600, Note_on_c, 0, 64, 44
1, 189600, Note_on_c, 0, 60, 44
1, 189612, Control_c, 0, 64, 0
1, 189692, Control_c, 0, 64, 127
1, 189840, Note_on_c, 0, 60, 0
1, 189840, Note_on_c, 0, 64, 0
1, 189840, Note_on_c, 0, 72, 0
1, 189840, Note_on_c, 0, 71, 60
1, 189840, Note_on_c, 0, 62, 41
1, 189840, Note_on_c, 0, 65, 41
1, 189847, Control_c, 0, 64, 0
1, 189872, Note_on_c, 0, 71, 0
1, 189872, Note_on_c, 0, 72, 63
1, 189878, Control_c, 0, 64, 127
1, 189904, Note_on_c, 0, 72, 0
1, 189904, Note_on_c, 0, 71, 60
1, 189936, Note_on_c, 0, 71, 0
1, 189936, Note_on_c, 0, 72, 63
1, 189968, Note_on_c, 0, 72, 0
1, 189968, Note_on_c, 0, 71, 63
1, 190000, Note_on_c, 0, 71, 0
1, 190000, Note_on_c, 0, 69, 63
1, 190040, Note_on_c, 0, 69, 0
1, 190040, Note_on_c, 0, 71, 60
1, 190080, Tempo, 928936
1, 190080, Note_on_c, 0, 71, 0
1, 190080, Note_on_c, 0, 55, 0
1, 190080, Note_on_c, 0, 62, 0
1, 190080, Note_on_c, 0, 65, 0
1, 190080, Note_on_c, 0, 72, 82
1, 190080, Note_on_c, 0, 60, 78
1, 190094, Control_c, 0, 64, 0
1, 190123, Control_c, 0, 64, 127
1, 190260, Note_on_c, 0, 60, 0
1, 190260, Note_on_c, 0, 72, 0
1, 190260, Note_on_c, 0, 67, 78
1, 190260, Note_on_c, 0, 55, 71
1, 190320, Note_on_c, 0, 55, 0
1, 190320, Note_on_c, 0, 67, 0
1, 190320, Note_on_c, 0, 76, 82
1, 190320, Note_on_c, 0, 64, 76
1, 190500, Note_on_c, 0, 64, 0
1, 190500, Note_on_c, 0, 76, 0
1, 190500, Note_on_c, 0, 72, 76
1, 190500, Note_on_c, 0, 60, 68
1, 190560, Tempo, 977040
1, 190560, Note_on_c, 0, 60, 0
1, 190560, Note_on_c, 0, 72, 0
1, 190560, Note_on_c, 0, 79, 81
1, 190560, Note_on_c, 0, 67, 74
1, 190680, Note_on_c, 0, 67, 0
1, 190680, Note_on_c, 0, 79, 0
1, 190705, Control_c, 0, 64, 0
1, 190800, Tempo, 866051
1, 190800, Note_on_c, 0, 86, 54
1, 190860, Note_on_c, 0, 84, 50
1, 190872, Note_on_c, 0, 86, 0
1, 190920, Note_on_c, 0, 83, 54
1, 190932, Note_on_c, 0, 84, 0
1, 190980, Note_on_c, 0, 81, 49
1, 190992, Note_on_c, 0, 83, 0
1, 191040, Tempo, 888362
1, 191040, Note_on_c, 0, 79, 57
1, 191040, Note_on_c, 0, 55, 41
1, 191040, Note_on_c, 0, 60, 41
1, 191040, Note_on_c, 0, 64, 41
1, 191052, Note_on_c, 0, 81, 0
1, 191160, Note_on_c, 0, 60, 0
1, 191160, Note_on_c, 0, 79, 0
1, 191160, Note_on_c, 0, 55, 0
1, 191160, Note_on_c, 0, 64, 0
1, 191280, Tempo, 866051
1, 191280, Note_on_c, 0, 81, 54
1, 191340, Note_on_c, 0, 79, 50
1, 191352, Note_on_c, 0, 81, 0
1, 191400, Note_on_c, 0, 77, 54
1, 191412, Note_on_c, 0, 79, 0
1, 191460, Note_on_c, 0, 76, 50
1, 191472, Note_on_c, 0, 77, 0
1, 191520, Tempo, 888362
1, 191520, Note_on_c, 0, 74, 57
1, 191520, Note_on_c, 0, 55, 41
1, 191520, Note_on_c, 0, 65, 41
1, 191520, Note_on_c, 0, 59, 41
1, 191532, Note_on_c, 0, 76, 0
1, 191640, Note_on_c, 0, 65, 0
1, 191640, Note_on_c, 0, 74, 0
1, 191640, Note_on_c, 0, 55, 0
1, 191640, Note_on_c, 0, 59, 0
1, 191760, Tempo, 866051
1, 191760, Note_on_c, 0, 79, 56
1, 191820, Note_on_c, 0, 77, 53
1, 191832, Note_on_c, 0, 79, 0
1, 191880, Note_on_c, 0, 76, 56
1, 191892, Note_on_c, 0, 77, 0
1, 191940, Note_on_c, 0, 74, 52
1, 191952, Note_on_c, 0, 76, 0
1, 192000, Tempo, 915332
1, 192000, Note_on_c, 0, 72, 81
1, 192000, Note_on_c, 0, 60, 70
1, 192012, Note_on_c, 0, 74, 0
1, 192032, Control_c, 0, 64, 127
1, 192060, Note_on_c, 0, 60, 0
1, 192060, Note_on_c, 0, 72, 0
1, 192060, Note_on_c, 0, 67, 75
1, 192060, Note_on_c, 0, 55, 65
1, 192120, Note_on_c, 0, 55, 0
1, 192120, Note_on_c, 0, 67, 0
1, 192120, Note_on_c, 0, 72, 82
1, 192120, Note_on_c, 0, 60, 70
1, 192180, Note_on_c, 0, 60, 0
1, 192180, Note_on_c, 0, 72, 0
1, 192180, Note_on_c, 0, 67, 78
1, 192180, Note_on_c, 0, 55, 65
1, 192240, Note_on_c, 0, 55, 0
1, 192240, Note_on_c, 0, 67, 0
1, 192240, Note_on_c, 0, 76, 82
1, 192240, Note_on_c, 0, 64, 70
1, 192300, Note_on_c, 0, 64, 0
1, 192300, Note_on_c, 0, 76, 0
1, 192300, Note_on_c, 0, 72, 78
1, 192300, Note_on_c, 0, 60, 64
1, 192360, Note_on_c, 0, 60, 0
1, 192360, Note_on_c, 0, 72, 0
1, 192360, Note_on_c, 0, 76, 82
1, 192360, Note_on_c, 0, 64, 71
1, 192420, Note_on_c, 0, 64, 0
1, 192420, Note_on_c, 0, 76, 0
1, 192420, Note_on_c, 0, 72, 76
1, 192420, Note_on_c, 0, 60, 65
1, 192480, Tempo, 993213
1, 192480, Note_on_c, 0, 60, 0
1, 192480, Note_on_c, 0, 72, 0
1, 192480, Note_on_c, 0, 79, 82
1, 192480, Note_on_c, 0, 67, 71
1, 192568, Control_c, 0, 64, 0
1, 192600, Note_on_c, 0, 67, 0
1, 192600, Note_on_c, 0, 79, 0
1, 192720, Tempo, 866051
1, 192720, Note_on_c, 0, 86, 55
1, 192780, Note_on_c, 0, 84, 53
1, 192792, Note_on_c, 0, 86, 0
1, 192840, Note_on_c, 0, 83, 55
1, 192852, Note_on_c, 0, 84, 0
1, 192900, Note_on_c, 0, 81, 53
1, 192912, Note_on_c, 0, 83, 0
1, 192960, Tempo, 905934
1, 192960, Note_on_c, 0, 79, 58
1, 192960, Note_on_c, 0, 55, 45
1, 192960, Note_on_c, 0, 64, 45
1, 192960, Note_on_c, 0, 60, 45
1, 192972, Note_on_c, 0, 81, 0
1, 193020, Note_on_c, 0, 79, 0
1, 193080, Note_on_c, 0, 64, 0
1, 193080, Note_on_c, 0, 55, 0
1, 193080, Note_on_c, 0, 60, 0
1, 193080, Note_on_c, 0, 79, 58
1, 193140, Note_on_c, 0, 79, 0
1, 193200, Tempo, 866051
1, 193200, Note_on_c, 0, 81, 54
1, 193260, Note_on_c, 0, 79, 50
1, 193272, Note_on_c, 0, 81, 0
1, 193320, Note_on_c, 0, 77, 54
1, 193332, Note_on_c, 0, 79, 0
1, 193380, Note_on_c, 0, 76, 50
1, 193392, Note_on_c, 0, 77, 0
1, 193440, Tempo, 882742
1, 193440, Note_on_c, 0, 74, 57
1, 193440, Note_on_c, 0, 59, 45
1, 193440, Note_on_c, 0, 55, 45
1, 193440, Note_on_c, 0, 65, 45
1, 193452, Note_on_c, 0, 76, 0
1, 193480, Tempo, 905934
1, 193500, Note_on_c, 0, 74, 0
1, 193560, Note_on_c, 0, 55, 0
1, 193560, Note_on_c, 0, 59, 0
1, 193560, Note_on_c, 0, 65, 0
1, 193560, Note_on_c, 0, 74, 57
1, 193620, Note_on_c, 0, 74, 0
1, 193680, Tempo, 866051
1, 193680, Note_on_c, 0, 79, 55
1, 193740, Note_on_c, 0, 77, 51
1, 193752, Note_on_c, 0, 79, 0
1, 193800, Note_on_c, 0, 76, 55
1, 193812, Note_on_c, 0, 77, 0
1, 193860, Note_on_c, 0, 74, 51
1, 193872, Note_on_c, 0, 76, 0
1, 193920, Tempo, 902120
1, 193920, Note_on_c, 0, 72, 62
1, 193920, Note_on_c, 0, 64, 51
1, 193932, Note_on_c, 0, 74, 0
1, 193966, Control_c, 0, 64, 127
1, 194040, Note_on_c, 0, 64, 0
1, 194040, Note_on_c, 0, 60, 41
1, 194160, Note_on_c, 0, 60, 0
1, 194160, Note_on_c, 0, 72, 0
1, 194160, Note_on_c, 0, 64, 51
1, 194280, Tempo, 888362
1, 194280, Note_on_c, 0, 64, 0
1, 194280, Note_on_c, 0, 80, 57
1, 194280, Note_on_c, 0, 60, 41
1, 194400, Tempo, 889284
1, 194400, Note_on_c, 0, 60, 0
1, 194400, Note_on_c, 0, 80, 0
1, 194400, Note_on_c, 0, 81, 62
1, 194400, Note_on_c, 0, 65, 51
1, 194409, Control_c, 0, 64, 0
1, 194452, Control_c, 0, 64, 127
1, 194520, Note_on_c, 0, 65, 0
1, 194520, Note_on_c, 0, 81, 0
1, 194520, Note_on_c, 0, 83, 64
1, 194520, Note_on_c, 0, 60, 41
1, 194640, Note_on_c, 0, 60, 0
1, 194640, Note_on_c, 0, 83, 0
1, 194640, Note_on_c, 0, 84, 70
1, 194640, Note_on_c, 0, 67, 51
1, 194651, Control_c, 0, 64, 0
1, 194709, Control_c, 0, 64, 127
1, 194760, Note_on_c, 0, 67, 0
1, 194760, Note_on_c, 0, 84, 0
1, 194760, Note_on_c, 0, 76, 62
1, 194760, Note_on_c, 0, 60, 41
1, 194880, Tempo, 911854
1, 194880, Note_on_c, 0, 60, 0
1, 194880, Note_on_c, 0, 76, 0
1, 194880, Note_on_c, 0, 79, 66
1, 194880, Note_on_c, 0, 69, 51
1, 194887, Control_c, 0, 64, 0
1, 194937, Control_c, 0, 64, 127
1, 195000, Note_on_c, 0, 69, 0
1, 195000, Note_on_c, 0, 79, 0
1, 195000, Note_on_c, 0, 77, 62
1, 195000, Note_on_c, 0, 60, 43
1, 195120, Note_on_c, 0, 60, 0
1, 195120, Note_on_c, 0, 77, 0
1, 195120, Note_on_c, 0, 70, 51
1, 195132, Control_c, 0, 64, 0
1, 195240, Tempo, 888362
1, 195240, Note_on_c, 0, 70, 0
1, 195240, Note_on_c, 0, 76, 55
1, 195240, Note_on_c, 0, 60, 43
1, 195360, Note_on_c, 0, 60, 0
1, 195360, Note_on_c, 0, 76, 0
1, 195360, Note_on_c, 0, 77, 60
1, 195360, Note_on_c, 0, 69, 51
1, 195400, Control_c, 0, 64, 127
1, 195480, Note_on_c, 0, 69, 0
1, 195480, Note_on_c, 0, 77, 0
1, 195480, Note_on_c, 0, 79, 62
1, 195480, Note_on_c, 0, 60, 43
1, 195600, Tempo, 889284
1, 195600, Note_on_c, 0, 60, 0
1, 195600, Note_on_c, 0, 79, 0
1, 195600, Note_on_c, 0, 81, 65
1, 195600, Note_on_c, 0, 67, 51
1, 195612, Control_c, 0, 64, 0
1, 195669, Control_c, 0, 64, 127
1, 195720, Note_on_c, 0, 67, 0
1, 195720, Note_on_c, 0, 81, 0
1, 195720, Note_on_c, 0, 73, 57
1, 195720, Note_on_c, 0, 60, 43
1, 195840, Tempo, 911854
1, 195840, Note_on_c, 0, 60, 0
1, 195840, Note_on_c, 0, 73, 0
1, 195840, Note_on_c, 0, 76, 63
1, 195840, Note_on_c, 0, 65, 51
1, 195848, Control_c, 0, 64, 0
1, 195897, Control_c, 0, 64, 127
1, 195960, Note_on_c, 0, 65, 0
1, 195960, Note_on_c, 0, 76, 0
1, 195960, Note_on_c, 0, 74, 57
1, 195960, Note_on_c, 0, 60, 43
1, 196040, Control_c, 0, 64, 0
1, 196080, Note_on_c, 0, 60, 0
1, 196080, Note_on_c, 0, 74, 0
1, 196080, Note_on_c, 0, 64, 51
1, 196200, Tempo, 888362
1, 196200, Note_on_c, 0, 64, 0
1, 196200, Note_on_c, 0, 73, 49
1, 196200, Note_on_c, 0, 60, 35
1, 196320, Note_on_c, 0, 60, 0
1, 196320, Note_on_c, 0, 73, 0
1, 196320, Note_on_c, 0, 74, 52
1, 196320, Note_on_c, 0, 65, 40
1, 196389, Control_c, 0, 64, 127
1, 196440, Note_on_c, 0, 65, 0
1, 196440, Note_on_c, 0, 74, 0
1, 196440, Note_on_c, 0, 76, 54
1, 196440, Note_on_c, 0, 60, 37
1, 196560, Note_on_c, 0, 60, 0
1, 196560, Note_on_c, 0, 76, 0
1, 196560, Note_on_c, 0, 77, 57
1, 196560, Note_on_c, 0, 62, 40
1, 196680, Note_on_c, 0, 62, 0
1, 196680, Note_on_c, 0, 77, 0
1, 196680, Note_on_c, 0, 71, 49
1, 196680, Note_on_c, 0, 60, 36
1, 196800, Tempo, 911854
1, 196800, Note_on_c, 0, 60, 0
1, 196800, Note_on_c, 0, 71, 0
1, 196800, Note_on_c, 0, 74, 50
1, 196800, Note_on_c, 0, 64, 39
1, 196814, Control_c, 0, 64, 0
1, 196843, Control_c, 0, 64, 127
1, 196920, Note_on_c, 0, 64, 0
1, 196920, Note_on_c, 0, 74, 0
1, 196920, Note_on_c, 0, 72, 49
1, 196920, Note_on_c, 0, 60, 36
1, 197040, Tempo, 888362
1, 197040, Note_on_c, 0, 60, 0
1, 197040, Note_on_c, 0, 72, 0
1, 197040, Note_on_c, 0, 81, 70
1, 197040, Note_on_c, 0, 65, 40
1, 197055, Control_c, 0, 64, 0
1, 197118, Control_c, 0, 64, 127
1, 197160, Note_on_c, 0, 65, 0
1, 197160, Note_on_c, 0, 81, 0
1, 197160, Note_on_c, 0, 71, 49
1, 197160, Note_on_c, 0, 60, 34
1, 197280, Tempo, 911854
1, 197280, Note_on_c, 0, 60, 0
1, 197280, Note_on_c, 0, 71, 0
1, 197280, Note_on_c, 0, 74, 51
1, 197280, Note_on_c, 0, 64, 40
1, 197295, Control_c, 0, 64, 0
1, 197365, Control_c, 0, 64, 127
1, 197400, Note_on_c, 0, 64, 0
1, 197400, Note_on_c, 0, 74, 0
1, 197400, Note_on_c, 0, 72, 49
1, 197400, Note_on_c, 0, 60, 38
1, 197520, Tempo, 888362
1, 197520, Note_on_c, 0, 60, 0
1, 197520, Note_on_c, 0, 72, 0
1, 197520, Note_on_c, 0, 81, 70
1, 197520, Note_on_c, 0, 65, 41
1, 197527, Control_c, 0, 64, 0
1, 197591, Control_c, 0, 64, 127
1, 197640, Note_on_c, 0, 65, 0
1, 197640, Note_on_c, 0, 81, 0
1, 197640, Note_on_c, 0, 71, 49
1, 197640, Note_on_c, 0, 60, 34
1, 197760, Tempo, 911854
1, 197760, Note_on_c, 0, 60, 0
1, 197760, Note_on_c, 0, 71, 0
1, 197760, Note_on_c, 0, 64, 41
1, 197768, Control_c, 0, 64, 0
1, 197792, Control_c, 0, 64, 127
1, 197880, Tempo, 917712
1, 197880, Note_on_c, 0, 64, 0
1, 197880, Note_on_c, 0, 74, 49
1, 197880, Note_on_c, 0, 60, 37
1, 197940, Note_on_c, 0, 74, 0
1, 197940, Note_on_c, 0, 72, 43
1, 198000, Tempo, 923930
1, 198000, Note_on_c, 0, 72, 0
1, 198000, Note_on_c, 0, 60, 0
1, 198000, Note_on_c, 0, 65, 40
1, 198012, Control_c, 0, 64, 0
1, 198035, Control_c, 0, 64, 127
1, 198120, Tempo, 930233
1, 198120, Note_on_c, 0, 65, 0
1, 198120, Note_on_c, 0, 80, 57
1, 198120, Note_on_c, 0, 60, 33
1, 198180, Note_on_c, 0, 80, 0
1, 198180, Note_on_c, 0, 71, 43
1, 198200, Tempo, 936330
1, 198240, Note_on_c, 0, 71, 0
1, 198240, Note_on_c, 0, 60, 0
1, 198240, Note_on_c, 0, 64, 41
1, 198260, Control_c, 0, 64, 0
1, 198292, Control_c, 0, 64, 127
1, 198320, Tempo, 942951
1, 198360, Note_on_c, 0, 64, 0
1, 198360, Note_on_c, 0, 74, 51
1, 198360, Note_on_c, 0, 60, 37
1, 198420, Note_on_c, 0, 74, 0
1, 198420, Note_on_c, 0, 72, 43
1, 198440, Tempo, 949217
1, 198480, Note_on_c, 0, 72, 0
1, 198480, Note_on_c, 0, 60, 0
1, 198480, Note_on_c, 0, 65, 41
1, 198489, Control_c, 0, 64, 0
1, 198526, Control_c, 0, 64, 127
1, 198600, Tempo, 1071811
1, 198600, Note_on_c, 0, 65, 0
1, 198600, Note_on_c, 0, 80, 55
1, 198600, Note_on_c, 0, 60, 35
1, 198660, Note_on_c, 0, 80, 0
1, 198660, Note_on_c, 0, 71, 41
1, 198664, Tempo, 1630878
1, 198720, Tempo, 1332741
1, 198720, Note_on_c, 0, 71, 0
1, 198720, Note_on_c, 0, 60, 0
1, 198720, Note_on_c, 0, 71, 54
1, 198720, Note_on_c, 0, 74, 54
1, 198720, Note_on_c, 0, 67, 45
1, 198720, Note_on_c, 0, 65, 45
1, 198720, Note_on_c, 0, 48, 33
1, 198720, Note_on_c, 0, 60, 39
1, 198729, Control_c, 0, 64, 0
1, 198833, Control_c, 0, 64, 127
1, 199200, Tempo, 1045114
1, 199200, Note_on_c, 0, 65, 0
1, 199200, Note_on_c, 0, 67, 0
1, 199200, Note_on_c, 0, 71, 0
1, 199200, Note_on_c, 0, 74, 0
1, 199200, Note_on_c, 0, 72, 40
1, 199200, Note_on_c, 0, 64, 34
1, 199200, Note_on_c, 0, 67, 34
1, 199215, Control_c, 0, 64, 0
1, 199440, Note_on_c, 0, 67, 0
1, 199440, Note_on_c, 0, 72, 0
1, 199440, Note_on_c, 0, 48, 0
1, 199440, Note_on_c, 0, 60, 0
1, 199440, Note_on_c, 0, 64, 0
1, 199680, Tempo, 972132
1, 199680, Marker_t, "Wiederholung 2. Teil"
1, 199680, Note_on_c, 0, 74, 51
1, 199680, Note_on_c, 0, 67, 40
1, 199700, Tempo, 914495
1, 199726, Control_c, 0, 64, 127
1, 199800, Note_on_c, 0, 67, 0
1, 199800, Note_on_c, 0, 71, 36
1, 199920, Note_on_c, 0, 71, 0
1, 199920, Note_on_c, 0, 67, 36
1, 200040, Tempo, 914495
1, 200040, Note_on_c, 0, 67, 0
1, 200040, Note_on_c, 0, 74, 0
1, 200040, Note_on_c, 0, 75, 53
1, 200040, Note_on_c, 0, 71, 31
1, 200160, Tempo, 891795
1, 200160, Note_on_c, 0, 71, 0
1, 200160, Note_on_c, 0, 75, 0
1, 200160, Note_on_c, 0, 76, 54
1, 200160, Note_on_c, 0, 67, 40
1, 200167, Control_c, 0, 64, 0
1, 200217, Control_c, 0, 64, 127
1, 200280, Note_on_c, 0, 67, 0
1, 200280, Note_on_c, 0, 76, 0
1, 200280, Note_on_c, 0, 78, 55
1, 200280, Note_on_c, 0, 71, 36
1, 200400, Note_on_c, 0, 71, 0
1, 200400, Note_on_c, 0, 78, 0
1, 200400, Note_on_c, 0, 79, 56
1, 200400, Note_on_c, 0, 65, 40
1, 200411, Control_c, 0, 64, 0
1, 200480, Control_c, 0, 64, 127
1, 200520, Note_on_c, 0, 65, 0
1, 200520, Note_on_c, 0, 79, 0
1, 200520, Note_on_c, 0, 71, 53
1, 200520, Note_on_c, 0, 68, 36
1, 200640, Tempo, 908816
1, 200640, Note_on_c, 0, 68, 0
1, 200640, Note_on_c, 0, 71, 0
1, 200640, Note_on_c, 0, 74, 54
1, 200640, Note_on_c, 0, 64, 40
1, 200646, Control_c, 0, 64, 0
1, 200703, Control_c, 0, 64, 127
1, 200760, Note_on_c, 0, 64, 0
1, 200760, Note_on_c, 0, 74, 0
1, 200760, Note_on_c, 0, 72, 53
1, 200760, Note_on_c, 0, 67, 36
1, 200880, Note_on_c, 0, 67, 0
1, 200880, Note_on_c, 0, 72, 0
1, 200880, Note_on_c, 0, 64, 38
1, 200892, Control_c, 0, 64, 0
1, 201000, Tempo, 891795
1, 201000, Note_on_c, 0, 64, 0
1, 201000, Note_on_c, 0, 71, 51
1, 201000, Note_on_c, 0, 67, 32
1, 201120, Note_on_c, 0, 67, 0
1, 201120, Note_on_c, 0, 71, 0
1, 201120, Note_on_c, 0, 72, 54
1, 201120, Note_on_c, 0, 64, 40
1, 201177, Control_c, 0, 64, 127
1, 201240, Note_on_c, 0, 64, 0
1, 201240, Note_on_c, 0, 72, 0
1, 201240, Note_on_c, 0, 74, 55
1, 201240, Note_on_c, 0, 67, 36
1, 201360, Note_on_c, 0, 67, 0
1, 201360, Note_on_c, 0, 74, 0
1, 201360, Note_on_c, 0, 76, 56
1, 201360, Note_on_c, 0, 62, 40
1, 201369, Control_c, 0, 64, 0
1, 201423, Control_c, 0, 64, 127
1, 201480, Note_on_c, 0, 62, 0
1, 201480, Note_on_c, 0, 76, 0
1, 201480, Note_on_c, 0, 68, 50
1, 201480, Note_on_c, 0, 65, 36
1, 201600, Tempo, 914495
1, 201600, Note_on_c, 0, 65, 0
1, 201600, Note_on_c, 0, 68, 0
1, 201600, Note_on_c, 0, 71, 54
1, 201600, Note_on_c, 0, 60, 40
1, 201608, Control_c, 0, 64, 0
1, 201669, Control_c, 0, 64, 127
1, 201720, Note_on_c, 0, 60, 0
1, 201720, Note_on_c, 0, 71, 0
1, 201720, Note_on_c, 0, 69, 51
1, 201720, Note_on_c, 0, 64, 35
1, 201812, Control_c, 0, 64, 0
1, 201840, Note_on_c, 0, 64, 0
1, 201840, Note_on_c, 0, 69, 0
1, 201840, Note_on_c, 0, 60, 40
1, 201960, Tempo, 891795
1, 201960, Note_on_c, 0, 60, 0
1, 201960, Note_on_c, 0, 68, 51
1, 201960, Note_on_c, 0, 64, 35
1, 202080, Note_on_c, 0, 64, 0
1, 202080, Note_on_c, 0, 68, 0
1, 202080, Note_on_c, 0, 69, 54
1, 202080, Note_on_c, 0, 60, 40
1, 202137, Control_c, 0, 64, 127
1, 202200, Note_on_c, 0, 60, 0
1, 202200, Note_on_c, 0, 69, 0
1, 202200, Note_on_c, 0, 71, 54
1, 202200, Note_on_c, 0, 64, 35
1, 202320, Note_on_c, 0, 64, 0
1, 202320, Note_on_c, 0, 71, 0
1, 202320, Note_on_c, 0, 72, 56
1, 202320, Note_on_c, 0, 60, 40
1, 202329, Control_c, 0, 64, 0
1, 202389, Control_c, 0, 64, 127
1, 202440, Note_on_c, 0, 60, 0
1, 202440, Note_on_c, 0, 72, 0
1, 202440, Note_on_c, 0, 66, 50
1, 202440, Note_on_c, 0, 63, 35
1, 202560, Tempo, 864429
1, 202560, Note_on_c, 0, 63, 0
1, 202560, Note_on_c, 0, 66, 0
1, 202560, Note_on_c, 0, 69, 54
1, 202560, Note_on_c, 0, 59, 38
1, 202577, Control_c, 0, 64, 0
1, 202612, Control_c, 0, 64, 127
1, 202680, Tempo, 946223
1, 202680, Note_on_c, 0, 59, 0
1, 202680, Note_on_c, 0, 69, 0
1, 202680, Note_on_c, 0, 67, 51
1, 202680, Note_on_c, 0, 62, 35
1, 202800, Tempo, 890076
1, 202800, Note_on_c, 0, 62, 0
1, 202800, Note_on_c, 0, 67, 0
1, 202800, Note_on_c, 0, 76, 72
1, 202800, Note_on_c, 0, 60, 38
1, 202817, Control_c, 0, 64, 0
1, 202863, Control_c, 0, 64, 127
1, 202920, Note_on_c, 0, 60, 0
1, 202920, Note_on_c, 0, 76, 0
1, 202920, Note_on_c, 0, 66, 54
1, 202920, Note_on_c, 0, 62, 35
1, 203040, Tempo, 840218
1, 203040, Note_on_c, 0, 62, 0
1, 203040, Note_on_c, 0, 66, 0
1, 203040, Note_on_c, 0, 69, 56
1, 203040, Note_on_c, 0, 59, 38
1, 203052, Control_c, 0, 64, 0
1, 203103, Control_c, 0, 64, 127
1, 203160, Tempo, 890076
1, 203160, Note_on_c, 0, 59, 0
1, 203160, Note_on_c, 0, 69, 0
1, 203160, Note_on_c, 0, 67, 51
1, 203160, Note_on_c, 0, 62, 35
1, 203280, Note_on_c, 0, 62, 0
1, 203280, Note_on_c, 0, 67, 0
1, 203280, Note_on_c, 0, 76, 72
1, 203280, Note_on_c, 0, 60, 38
1, 203292, Control_c, 0, 64, 0
1, 203343, Control_c, 0, 64, 127
1, 203400, Note_on_c, 0, 60, 0
1, 203400, Note_on_c, 0, 76, 0
1, 203400, Note_on_c, 0, 66, 51
1, 203400, Note_on_c, 0, 62, 35
1, 203520, Tempo, 864429
1, 203520, Note_on_c, 0, 62, 0
1, 203520, Note_on_c, 0, 66, 0
1, 203520, Note_on_c, 0, 69, 55
1, 203520, Note_on_c, 0, 59, 38
1, 203526, Control_c, 0, 64, 0
1, 203577, Control_c, 0, 64, 127
1, 203640, Tempo, 961384
1, 203640, Note_on_c, 0, 59, 0
1, 203640, Note_on_c, 0, 69, 0
1, 203640, Note_on_c, 0, 67, 50
1, 203640, Note_on_c, 0, 62, 35
1, 203760, Tempo, 917291
1, 203760, Note_on_c, 0, 62, 0
1, 203760, Note_on_c, 0, 67, 0
1, 203760, Note_on_c, 0, 75, 71
1, 203760, Note_on_c, 0, 60, 38
1, 203777, Control_c, 0, 64, 0
1, 203835, Control_c, 0, 64, 127
1, 203880, Note_on_c, 0, 60, 0
1, 203880, Note_on_c, 0, 75, 0
1, 203880, Note_on_c, 0, 66, 51
1, 203880, Note_on_c, 0, 63, 35
1, 204000, Tempo, 908816
1, 204000, Note_on_c, 0, 63, 0
1, 204000, Note_on_c, 0, 66, 0
1, 204000, Note_on_c, 0, 69, 55
1, 204000, Note_on_c, 0, 59, 38
1, 204015, Control_c, 0, 64, 0
1, 204080, Control_c, 0, 64, 127
1, 204120, Note_on_c, 0, 59, 0
1, 204120, Note_on_c, 0, 69, 0
1, 204120, Note_on_c, 0, 67, 51
1, 204120, Note_on_c, 0, 62, 36
1, 204240, Note_on_c, 0, 62, 0
1, 204240, Note_on_c, 0, 67, 0
1, 204240, Note_on_c, 0, 75, 67
1, 204240, Note_on_c, 0, 60, 38
1, 204249, Control_c, 0, 64, 0
1, 204303, Control_c, 0, 64, 127
1, 204360, Note_on_c, 0, 60, 0
1, 204360, Note_on_c, 0, 75, 0
1, 204360, Note_on_c, 0, 66, 49
1, 204360, Note_on_c, 0, 63, 35
1, 204480, Tempo, 891795
1, 204480, Note_on_c, 0, 63, 0
1, 204480, Note_on_c, 0, 66, 0
1, 204480, Note_on_c, 0, 67, 72
1, 204480, Note_on_c, 0, 59, 43
1, 204480, Note_on_c, 0, 62, 43
1, 204490, Control_c, 0, 64, 0
1, 204600, Note_on_c, 0, 67, 0
1, 204600, Note_on_c, 0, 69, 64
1, 204660, Note_on_c, 0, 71, 65
1, 204672, Note_on_c, 0, 69, 0
1, 204720, Note_on_c, 0, 72, 67
1, 204732, Note_on_c, 0, 71, 0
1, 204780, Note_on_c, 0, 74, 68
1, 204792, Note_on_c, 0, 72, 0
1, 204840, Note_on_c, 0, 76, 69
1, 204852, Note_on_c, 0, 74, 0
1, 204900, Note_on_c, 0, 78, 71
1, 204912, Note_on_c, 0, 76, 0
1, 204960, Tempo, 891795
1, 204960, Note_on_c, 0, 59, 0
1, 204960, Note_on_c, 0, 62, 0
1, 204960, Note_on_c, 0, 79, 72
1, 204972, Note_on_c, 0, 78, 0
1, 205020, Note_on_c, 0, 81, 70
1, 205032, Note_on_c, 0, 79, 0
1, 205040, Tempo, 897263
1, 205080, Tempo, 902935
1, 205080, Note_on_c, 0, 83, 74
1, 205092, Note_on_c, 0, 81, 0
1, 205140, Note_on_c, 0, 78, 72
1, 205152, Note_on_c, 0, 83, 0
1, 205160, Tempo, 908816
1, 205200, Tempo, 914495
1, 205200, Note_on_c, 0, 79, 73
1, 205212, Note_on_c, 0, 78, 0
1, 205260, Note_on_c, 0, 74, 69
1, 205272, Note_on_c, 0, 79, 0
1, 205280, Tempo, 920669
1, 205320, Tempo, 926355
1, 205320, Note_on_c, 0, 76, 71
1, 205332, Note_on_c, 0, 74, 0
1, 205380, Note_on_c, 0, 71, 68
1, 205392, Note_on_c, 0, 76, 0
1, 205400, Tempo, 932546
1, 205440, Tempo, 902935
1, 205440, Note_on_c, 0, 74, 81
1, 205440, Note_on_c, 0, 50, 54
1, 205452, Note_on_c, 0, 71, 0
1, 205491, Control_c, 0, 64, 127
1, 205560, Note_on_c, 0, 50, 0
1, 205560, Note_on_c, 0, 59, 50
1, 205680, Note_on_c, 0, 59, 0
1, 205680, Note_on_c, 0, 55, 54
1, 205800, Note_on_c, 0, 55, 0
1, 205800, Note_on_c, 0, 59, 50
1, 205920, Note_on_c, 0, 59, 0
1, 205920, Note_on_c, 0, 74, 0
1, 205920, Note_on_c, 0, 72, 62
1, 205920, Note_on_c, 0, 50, 54
1, 205931, Control_c, 0, 64, 0
1, 205960, Note_on_c, 0, 74, 56
1, 205965, Note_on_c, 0, 72, 0
1, 205974, Control_c, 0, 64, 127
1, 206000, Note_on_c, 0, 72, 58
1, 206005, Note_on_c, 0, 74, 0
1, 206040, Note_on_c, 0, 50, 0
1, 206040, Note_on_c, 0, 74, 56
1, 206040, Note_on_c, 0, 57, 49
1, 206045, Note_on_c, 0, 72, 0
1, 206080, Note_on_c, 0, 72, 57
1, 206085, Note_on_c, 0, 74, 0
1, 206120, Note_on_c, 0, 74, 53
1, 206125, Note_on_c, 0, 72, 0
1, 206160, Note_on_c, 0, 57, 0
1, 206160, Note_on_c, 0, 72, 59
1, 206160, Note_on_c, 0, 54, 54
1, 206165, Note_on_c, 0, 74, 0
1, 206200, Note_on_c, 0, 74, 56
1, 206205, Note_on_c, 0, 72, 0
1, 206240, Note_on_c, 0, 72, 63
1, 206245, Note_on_c, 0, 74, 0
1, 206280, Note_on_c, 0, 54, 0
1, 206280, Note_on_c, 0, 71, 61
1, 206280, Note_on_c, 0, 57, 50
1, 206300, Note_on_c, 0, 72, 0
1, 206340, Note_on_c, 0, 71, 0
1, 206340, Note_on_c, 0, 72, 59
1, 206400, Tempo, 891795
1, 206400, Note_on_c, 0, 72, 0
1, 206400, Note_on_c, 0, 57, 0
1, 206400, Note_on_c, 0, 71, 66
1, 206400, Note_on_c, 0, 55, 46
1, 206418, Control_c, 0, 64, 0
1, 206472, Control_c, 0, 64, 127
1, 206520, Note_on_c, 0, 55, 0
1, 206520, Note_on_c, 0, 59, 43
1, 206640, Note_on_c, 0, 59, 0
1, 206640, Note_on_c, 0, 62, 45
1, 206760, Note_on_c, 0, 62, 0
1, 206760, Note_on_c, 0, 59, 40
1, 206880, Note_on_c, 0, 59, 0
1, 206880, Note_on_c, 0, 71, 0
1, 206880, Note_on_c, 0, 55, 50
1, 206897, Control_c, 0, 64, 0
1, 206970, Note_on_c, 0, 69, 38
1, 207000, Note_on_c, 0, 69, 0
1, 207000, Note_on_c, 0, 67, 48
1, 207060, Note_on_c, 0, 67, 0
1, 207060, Note_on_c, 0, 66, 44
1, 207120, Note_on_c, 0, 66, 0
1, 207120, Note_on_c, 0, 55, 0
1, 207120, Note_on_c, 0, 67, 51
1, 207150, Note_on_c, 0, 67, 0
1, 207240, Tempo, 961384
1, 207240, Note_on_c, 0, 71, 51
1, 207270, Note_on_c, 0, 71, 0
1, 207360, Tempo, 964010
1, 207360, Note_on_c, 0, 76, 55
1, 207360, Note_on_c, 0, 55, 40
1, 207381, Tempo, 936330
1, 207392, Control_c, 0, 64, 127
1, 207480, Note_on_c, 0, 55, 0
1, 207480, Note_on_c, 0, 59, 32
1, 207600, Note_on_c, 0, 59, 0
1, 207600, Note_on_c, 0, 76, 0
1, 207600, Note_on_c, 0, 74, 51
1, 207600, Note_on_c, 0, 62, 36
1, 207720, Note_on_c, 0, 62, 0
1, 207720, Note_on_c, 0, 59, 31
1, 207840, Tempo, 882742
1, 207840, Note_on_c, 0, 59, 0
1, 207840, Note_on_c, 0, 74, 0
1, 207840, Note_on_c, 0, 55, 40
1, 207897, Control_c, 0, 64, 0
1, 207930, Note_on_c, 0, 72, 37
1, 207960, Note_on_c, 0, 72, 0
1, 207960, Note_on_c, 0, 71, 48
1, 208020, Note_on_c, 0, 71, 0
1, 208020, Note_on_c, 0, 69, 45
1, 208080, Note_on_c, 0, 69, 0
1, 208080, Note_on_c, 0, 55, 0
1, 208080, Note_on_c, 0, 71, 54
1, 208110, Note_on_c, 0, 71, 0
1, 208200, Tempo, 993213
1, 208200, Note_on_c, 0, 74, 54
1, 208230, Note_on_c, 0, 74, 0
1, 208320, Tempo, 946223
1, 208320, Note_on_c, 0, 79, 64
1, 208320, Note_on_c, 0, 55, 40
1, 208366, Control_c, 0, 64, 127
1, 208440, Note_on_c, 0, 55, 0
1, 208440, Note_on_c, 0, 59, 36
1, 208560, Note_on_c, 0, 59, 0
1, 208560, Note_on_c, 0, 79, 0
1, 208560, Note_on_c, 0, 77, 56
1, 208560, Note_on_c, 0, 62, 40
1, 208680, Note_on_c, 0, 62, 0
1, 208680, Note_on_c, 0, 59, 38
1, 208800, Tempo, 888362
1, 208800, Note_on_c, 0, 59, 0
1, 208800, Note_on_c, 0, 77, 0
1, 208800, Note_on_c, 0, 55, 44
1, 208852, Control_c, 0, 64, 0
1, 208890, Note_on_c, 0, 76, 54
1, 208920, Note_on_c, 0, 76, 0
1, 208920, Note_on_c, 0, 74, 67
1, 208980, Note_on_c, 0, 74, 0
1, 208980, Note_on_c, 0, 73, 61
1, 209040, Note_on_c, 0, 73, 0
1, 209040, Note_on_c, 0, 55, 0
1, 209040, Note_on_c, 0, 74, 71
1, 209070, Note_on_c, 0, 74, 0
1, 209160, Note_on_c, 0, 77, 74
1, 209190, Note_on_c, 0, 77, 0
1, 209280, Tempo, 942951
1, 209280, Note_on_c, 0, 84, 75
1, 209280, Note_on_c, 0, 56, 64
1, 209323, Control_c, 0, 64, 127
1, 209400, Note_on_c, 0, 84, 0
1, 209400, Note_on_c, 0, 83, 71
1, 209520, Note_on_c, 0, 56, 0
1, 209520, Note_on_c, 0, 59, 64
1, 209640, Note_on_c, 0, 83, 0
1, 209640, Note_on_c, 0, 86, 81
1, 209760, Note_on_c, 0, 59, 0
1, 209760, Note_on_c, 0, 62, 69
1, 209880, Tempo, 911854
1, 209880, Note_on_c, 0, 86, 0
1, 209880, Note_on_c, 0, 80, 73
1, 210000, Note_on_c, 0, 62, 0
1, 210000, Note_on_c, 0, 65, 65
1, 210120, Note_on_c, 0, 80, 0
1, 210120, Note_on_c, 0, 83, 81
1, 210240, Note_on_c, 0, 65, 0
1, 210240, Note_on_c, 0, 59, 69
1, 210255, Control_c, 0, 64, 0
1, 210325, Control_c, 0, 64, 127
1, 210360, Tempo, 942951
1, 210360, Note_on_c, 0, 83, 0
1, 210360, Note_on_c, 0, 74, 78
1, 210480, Note_on_c, 0, 59, 0
1, 210480, Note_on_c, 0, 57, 63
1, 210600, Note_on_c, 0, 74, 0
1, 210600, Note_on_c, 0, 77, 84
1, 210720, Note_on_c, 0, 57, 0
1, 210720, Note_on_c, 0, 56, 67
1, 210736, Control_c, 0, 64, 0
1, 210819, Control_c, 0, 64, 127
1, 210840, Tempo, 917712
1, 210840, Note_on_c, 0, 77, 0
1, 210840, Note_on_c, 0, 76, 81
1, 210960, Note_on_c, 0, 56, 0
1, 210960, Note_on_c, 0, 64, 63
1, 211080, Note_on_c, 0, 76, 0
1, 211080, Note_on_c, 0, 74, 72
1, 211200, Tempo, 888362
1, 211200, Note_on_c, 0, 74, 0
1, 211200, Note_on_c, 0, 64, 0
1, 211200, Note_on_c, 0, 72, 61
1, 211200, Note_on_c, 0, 57, 38
1, 211208, Control_c, 0, 64, 0
1, 211257, Control_c, 0, 64, 127
1, 211320, Note_on_c, 0, 57, 0
1, 211320, Note_on_c, 0, 60, 35
1, 211440, Note_on_c, 0, 60, 0
1, 211440, Note_on_c, 0, 64, 35
1, 211560, Note_on_c, 0, 64, 0
1, 211560, Note_on_c, 0, 60, 35
1, 211680, Note_on_c, 0, 60, 0
1, 211680, Note_on_c, 0, 57, 38
1, 211690, Control_c, 0, 64, 0
1, 211740, Control_c, 0, 64, 127
1, 211770, Note_on_c, 0, 72, 0
1, 211770, Note_on_c, 0, 74, 46
1, 211800, Note_on_c, 0, 74, 0
1, 211800, Note_on_c, 0, 57, 0
1, 211800, Note_on_c, 0, 72, 54
1, 211800, Note_on_c, 0, 60, 35
1, 211860, Note_on_c, 0, 72, 0
1, 211860, Note_on_c, 0, 71, 48
1, 211920, Tempo, 908816
1, 211920, Note_on_c, 0, 71, 0
1, 211920, Note_on_c, 0, 60, 0
1, 211920, Note_on_c, 0, 72, 54
1, 211920, Note_on_c, 0, 65, 35
1, 212040, Note_on_c, 0, 65, 0
1, 212040, Note_on_c, 0, 72, 0
1, 212040, Note_on_c, 0, 74, 53
1, 212040, Note_on_c, 0, 60, 35
1, 212100, Note_on_c, 0, 74, 0
1, 212160, Tempo, 923930
1, 212160, Note_on_c, 0, 60, 0
1, 212160, Note_on_c, 0, 72, 56
1, 212160, Note_on_c, 0, 55, 38
1, 212169, Control_c, 0, 64, 0
1, 212211, Control_c, 0, 64, 127
1, 212280, Note_on_c, 0, 55, 0
1, 212280, Note_on_c, 0, 62, 35
1, 212400, Note_on_c, 0, 62, 0
1, 212400, Note_on_c, 0, 65, 35
1, 212520, Note_on_c, 0, 65, 0
1, 212520, Note_on_c, 0, 62, 35
1, 212640, Tempo, 923930
1, 212640, Note_on_c, 0, 62, 0
1, 212640, Note_on_c, 0, 72, 0
1, 212640, Note_on_c, 0, 70, 62
1, 212640, Note_on_c, 0, 55, 43
1, 212651, Control_c, 0, 64, 0
1, 212674, Control_c, 0, 64, 127
1, 212680, Note_on_c, 0, 72, 56
1, 212685, Note_on_c, 0, 70, 0
1, 212720, Note_on_c, 0, 70, 58
1, 212725, Note_on_c, 0, 72, 0
1, 212760, Note_on_c, 0, 55, 0
1, 212760, Note_on_c, 0, 72, 56
1, 212760, Note_on_c, 0, 60, 39
1, 212765, Note_on_c, 0, 70, 0
1, 212800, Note_on_c, 0, 70, 57
1, 212805, Note_on_c, 0, 72, 0
1, 212840, Note_on_c, 0, 72, 53
1, 212845, Note_on_c, 0, 70, 0
1, 212880, Note_on_c, 0, 60, 0
1, 212880, Note_on_c, 0, 70, 59
1, 212880, Note_on_c, 0, 64, 39
1, 212885, Note_on_c, 0, 72, 0
1, 212920, Note_on_c, 0, 72, 56
1, 212925, Note_on_c, 0, 70, 0
1, 212960, Note_on_c, 0, 70, 63
1, 212965, Note_on_c, 0, 72, 0
1, 213000, Note_on_c, 0, 64, 0
1, 213000, Note_on_c, 0, 69, 61
1, 213000, Note_on_c, 0, 60, 39
1, 213020, Note_on_c, 0, 70, 0
1, 213060, Note_on_c, 0, 69, 0
1, 213060, Note_on_c, 0, 70, 59
1, 213120, Tempo, 942951
1, 213120, Note_on_c, 0, 70, 0
1, 213120, Note_on_c, 0, 60, 0
1, 213120, Note_on_c, 0, 69, 68
1, 213120, Note_on_c, 0, 53, 48
1, 213136, Control_c, 0, 64, 0
1, 213177, Control_c, 0, 64, 127
1, 213240, Note_on_c, 0, 53, 0
1, 213240, Note_on_c, 0, 69, 0
1, 213240, Note_on_c, 0, 72, 71
1, 213240, Note_on_c, 0, 60, 39
1, 213360, Note_on_c, 0, 60, 0
1, 213360, Note_on_c, 0, 65, 54
1, 213480, Note_on_c, 0, 65, 0
1, 213480, Note_on_c, 0, 72, 0
1, 213480, Note_on_c, 0, 77, 76
1, 213480, Note_on_c, 0, 60, 43
1, 213600, Note_on_c, 0, 60, 0
1, 213600, Note_on_c, 0, 53, 54
1, 213610, Control_c, 0, 64, 0
1, 213663, Control_c, 0, 64, 127
1, 213720, Tempo, 923930
1, 213720, Note_on_c, 0, 53, 0
1, 213720, Note_on_c, 0, 77, 0
1, 213720, Note_on_c, 0, 81, 77
1, 213720, Note_on_c, 0, 57, 48
1, 213840, Note_on_c, 0, 57, 0
1, 213840, Note_on_c, 0, 62, 59
1, 213960, Tempo, 993213
1, 213960, Note_on_c, 0, 62, 0
1, 213960, Note_on_c, 0, 81, 0
1, 213960, Note_on_c, 0, 82, 78
1, 213960, Note_on_c, 0, 57, 51
1, 214080, Tempo, 903478
1, 214080, Note_on_c, 0, 57, 0
1, 214080, Note_on_c, 0, 82, 0
1, 214080, Note_on_c, 0, 81, 83
1, 214080, Note_on_c, 0, 52, 59
1, 214101, Control_c, 0, 64, 0
1, 214126, Control_c, 0, 64, 127
1, 214200, Note_on_c, 0, 52, 0
1, 214200, Note_on_c, 0, 57, 46
1, 214320, Note_on_c, 0, 57, 0
1, 214320, Note_on_c, 0, 61, 51
1, 214440, Note_on_c, 0, 61, 0
1, 214440, Note_on_c, 0, 57, 45
1, 214560, Note_on_c, 0, 57, 0
1, 214560, Note_on_c, 0, 81, 0
1, 214560, Note_on_c, 0, 79, 77
1, 214560, Note_on_c, 0, 52, 56
1, 214577, Control_c, 0, 64, 0
1, 214635, Control_c, 0, 64, 127
1, 214680, Note_on_c, 0, 52, 0
1, 214680, Note_on_c, 0, 57, 45
1, 214800, Note_on_c, 0, 57, 0
1, 214800, Note_on_c, 0, 79, 0
1, 214800, Note_on_c, 0, 61, 50
1, 214808, Control_c, 0, 64, 0
1, 214920, Tempo, 1027221
1, 214920, Note_on_c, 0, 61, 0
1, 214920, Note_on_c, 0, 57, 45
1, 215040, Tempo, 894188
1, 215040, Note_on_c, 0, 57, 0
1, 215040, Note_on_c, 0, 79, 70
1, 215040, Note_on_c, 0, 50, 36
1, 215097, Control_c, 0, 64, 127
1, 215160, Note_on_c, 0, 50, 0
1, 215160, Note_on_c, 0, 57, 32
1, 215280, Note_on_c, 0, 57, 0
1, 215280, Note_on_c, 0, 60, 32
1, 215400, Tempo, 930233
1, 215400, Note_on_c, 0, 60, 0
1, 215400, Note_on_c, 0, 79, 0
1, 215400, Note_on_c, 0, 78, 61
1, 215400, Note_on_c, 0, 57, 32
1, 215520, Tempo, 917712
1, 215520, Note_on_c, 0, 57, 0
1, 215520, Note_on_c, 0, 78, 0
1, 215520, Note_on_c, 0, 77, 57
1, 215520, Note_on_c, 0, 50, 36
1, 215530, Control_c, 0, 64, 0
1, 215577, Control_c, 0, 64, 127
1, 215640, Note_on_c, 0, 50, 0
1, 215640, Note_on_c, 0, 77, 0
1, 215640, Note_on_c, 0, 55, 33
1, 215760, Note_on_c, 0, 55, 0
1, 215760, Note_on_c, 0, 59, 33
1, 215776, Control_c, 0, 64, 0
1, 215880, Tempo, 993213
1, 215880, Note_on_c, 0, 59, 0
1, 215880, Note_on_c, 0, 55, 33
1, 216000, Tempo, 917291
1, 216000, Note_on_c, 0, 55, 0
1, 216000, Note_on_c, 0, 77, 61
1, 216000, Note_on_c, 0, 48, 38
1, 216046, Control_c, 0, 64, 127
1, 216120, Note_on_c, 0, 48, 0
1, 216120, Note_on_c, 0, 55, 36
1, 216240, Note_on_c, 0, 55, 0
1, 216240, Note_on_c, 0, 60, 36
1, 216360, Tempo, 936330
1, 216360, Note_on_c, 0, 60, 0
1, 216360, Note_on_c, 0, 77, 0
1, 216360, Note_on_c, 0, 76, 55
1, 216360, Note_on_c, 0, 55, 36
1, 216480, Tempo, 923930
1, 216480, Note_on_c, 0, 55, 0
1, 216480, Note_on_c, 0, 76, 0
1, 216480, Note_on_c, 0, 75, 54
1, 216480, Note_on_c, 0, 48, 38
1, 216497, Control_c, 0, 64, 0
1, 216549, Control_c, 0, 64, 127
1, 216600, Note_on_c, 0, 48, 0
1, 216600, Note_on_c, 0, 75, 0
1, 216600, Note_on_c, 0, 55, 34
1, 216675, Control_c, 0, 64, 0
1, 216720, Note_on_c, 0, 55, 0
1, 216720, Note_on_c, 0, 60, 34
1, 216840, Note_on_c, 0, 60, 0
1, 216840, Note_on_c, 0, 55, 34
1, 216960, Tempo, 917712
1, 216960, Note_on_c, 0, 55, 0
1, 216960, Note_on_c, 0, 75, 63
1, 216960, Note_on_c, 0, 53, 43
1, 217003, Control_c, 0, 64, 127
1, 217080, Note_on_c, 0, 53, 0
1, 217080, Note_on_c, 0, 75, 0
1, 217080, Note_on_c, 0, 74, 60
1, 217080, Note_on_c, 0, 56, 38
1, 217200, Tempo, 923930
1, 217200, Note_on_c, 0, 56, 0
1, 217200, Note_on_c, 0, 74, 0
1, 217200, Note_on_c, 0, 74, 57
1, 217200, Note_on_c, 0, 60, 38
1, 217209, Control_c, 0, 64, 0
1, 217250, Control_c, 0, 64, 127
1, 217260, Note_on_c, 0, 74, 0
1, 217320, Note_on_c, 0, 60, 0
1, 217320, Note_on_c, 0, 74, 60
1, 217320, Note_on_c, 0, 56, 38
1, 217380, Note_on_c, 0, 74, 0
1, 217440, Tempo, 930233
1, 217440, Note_on_c, 0, 56, 0
1, 217440, Note_on_c, 0, 74, 60
1, 217440, Note_on_c, 0, 53, 43
1, 217453, Control_c, 0, 64, 0
1, 217486, Control_c, 0, 64, 127
1, 217560, Note_on_c, 0, 53, 0
1, 217560, Note_on_c, 0, 56, 38
1, 217680, Tempo, 936330
1, 217680, Note_on_c, 0, 56, 0
1, 217680, Note_on_c, 0, 74, 0
1, 217680, Note_on_c, 0, 74, 60
1, 217680, Note_on_c, 0, 60, 38
1, 217800, Note_on_c, 0, 60, 0
1, 217800, Note_on_c, 0, 56, 38
1, 217920, Tempo, 942951
1, 217920, Note_on_c, 0, 56, 0
1, 217920, Note_on_c, 0, 74, 0
1, 217920, Note_on_c, 0, 74, 62
1, 217920, Note_on_c, 0, 54, 43
1, 217941, Control_c, 0, 64, 0
1, 217991, Control_c, 0, 64, 127
1, 218040, Tempo, 975927
1, 218040, Note_on_c, 0, 54, 0
1, 218040, Note_on_c, 0, 57, 45
1, 218130, Note_on_c, 0, 74, 0
1, 218130, Note_on_c, 0, 77, 64
1, 218160, Tempo, 911854
1, 218160, Note_on_c, 0, 77, 0
1, 218160, Note_on_c, 0, 57, 0
1, 218160, Note_on_c, 0, 75, 72
1, 218160, Note_on_c, 0, 60, 48
1, 218280, Note_on_c, 0, 60, 0
1, 218280, Note_on_c, 0, 57, 45
1, 218400, Note_on_c, 0, 57, 0
1, 218400, Note_on_c, 0, 54, 43
1, 218414, Control_c, 0, 64, 0
1, 218457, Control_c, 0, 64, 127
1, 218520, Tempo, 962464
1, 218520, Note_on_c, 0, 54, 0
1, 218520, Note_on_c, 0, 57, 39
1, 218610, Note_on_c, 0, 75, 0
1, 218610, Note_on_c, 0, 74, 57
1, 218640, Tempo, 917712
1, 218640, Note_on_c, 0, 74, 0
1, 218640, Note_on_c, 0, 57, 0
1, 218640, Note_on_c, 0, 72, 63
1, 218640, Note_on_c, 0, 60, 39
1, 218760, Note_on_c, 0, 60, 0
1, 218760, Note_on_c, 0, 57, 39
1, 218880, Note_on_c, 0, 57, 0
1, 218880, Note_on_c, 0, 72, 0
1, 218880, Note_on_c, 0, 71, 54
1, 218880, Note_on_c, 0, 55, 39
1, 218880, Control_c, 0, 64, 0
1, 218937, Control_c, 0, 64, 127
1, 219000, Note_on_c, 0, 71, 0
1, 219000, Note_on_c, 0, 79, 54
1, 219108, Note_on_c, 0, 55, 0
1, 219120, Note_on_c, 0, 79, 0
1, 219120, Note_on_c, 0, 55, 41
1, 219200, Tempo, 911854
1, 219200, Control_c, 0, 64, 0
1, 219240, Note_on_c, 0, 79, 56
1, 219348, Note_on_c, 0, 55, 0
1, 219360, Tempo, 905934
1, 219360, Note_on_c, 0, 79, 0
1, 219360, Note_on_c, 0, 57, 45
1, 219360, Note_on_c, 0, 55, 45
1, 219480, Note_on_c, 0, 78, 57
1, 219520, Tempo, 899955
1, 219588, Note_on_c, 0, 55, 0
1, 219588, Note_on_c, 0, 57, 0
1, 219600, Note_on_c, 0, 78, 0
1, 219600, Note_on_c, 0, 59, 46
1, 219600, Note_on_c, 0, 55, 46
1, 219680, Tempo, 894188
1, 219720, Note_on_c, 0, 77, 60
1, 219828, Note_on_c, 0, 55, 0
1, 219828, Note_on_c, 0, 59, 0
1, 219840, Tempo, 917712
1, 219840, Note_on_c, 0, 77, 0
1, 219840, Note_on_c, 0, 77, 64
1, 219840, Note_on_c, 0, 60, 50
1, 219840, Note_on_c, 0, 55, 50
1, 219915, Control_c, 0, 64, 127
1, 219960, Note_on_c, 0, 77, 0
1, 219960, Note_on_c, 0, 76, 61
1, 220057, Control_c, 0, 64, 0
1, 220068, Note_on_c, 0, 55, 0
1, 220068, Note_on_c, 0, 60, 0
1, 220080, Tempo, 905934
1, 220080, Note_on_c, 0, 76, 0
1, 220080, Note_on_c, 0, 67, 48
1, 220080, Note_on_c, 0, 55, 48
1, 220200, Tempo, 899955
1, 220200, Note_on_c, 0, 75, 59
1, 220308, Note_on_c, 0, 55, 0
1, 220308, Note_on_c, 0, 67, 0
1, 220320, Tempo, 894188
1, 220320, Note_on_c, 0, 75, 0
1, 220320, Note_on_c, 0, 65, 46
1, 220320, Note_on_c, 0, 55, 46
1, 220400, Tempo, 888362
1, 220440, Note_on_c, 0, 74, 56
1, 220520, Tempo, 882742
1, 220548, Note_on_c, 0, 55, 0
1, 220548, Note_on_c, 0, 65, 0
1, 220560, Note_on_c, 0, 74, 0
1, 220560, Note_on_c, 0, 63, 44
1, 220560, Note_on_c, 0, 55, 44
1, 220640, Tempo, 877193
1, 220680, Note_on_c, 0, 72, 54
1, 220720, Tempo, 871586
1, 220788, Note_on_c, 0, 55, 0
1, 220788, Note_on_c, 0, 63, 0
1, 220800, Tempo, 917712
1, 220800, Note_on_c, 0, 72, 0
1, 220800, Note_on_c, 0, 72, 60
1, 220800, Note_on_c, 0, 62, 45
1, 220800, Note_on_c, 0, 55, 45
1, 220843, Control_c, 0, 64, 127
1, 220920, Note_on_c, 0, 72, 0
1, 220920, Note_on_c, 0, 71, 54
1, 221028, Note_on_c, 0, 55, 0
1, 221028, Note_on_c, 0, 62, 0
1, 221040, Note_on_c, 0, 71, 0
1, 221040, Note_on_c, 0, 59, 48
1, 221040, Note_on_c, 0, 55, 48
1, 221050, Control_c, 0, 64, 0
1, 221100, Note_on_c, 0, 79, 56
1, 221126, Control_c, 0, 64, 127
1, 221160, Note_on_c, 0, 79, 0
1, 221160, Note_on_c, 0, 81, 60
1, 221220, Note_on_c, 0, 81, 0
1, 221220, Note_on_c, 0, 79, 55
1, 221268, Note_on_c, 0, 55, 0
1, 221268, Note_on_c, 0, 59, 0
1, 221280, Note_on_c, 0, 79, 0
1, 221280, Note_on_c, 0, 57, 51
1, 221280, Note_on_c, 0, 55, 51
1, 221292, Control_c, 0, 64, 0
1, 221329, Control_c, 0, 64, 127
1, 221340, Note_on_c, 0, 78, 61
1, 221400, Note_on_c, 0, 78, 0
1, 221400, Note_on_c, 0, 79, 66
1, 221460, Note_on_c, 0, 79, 0
1, 221460, Note_on_c, 0, 78, 60
1, 221508, Note_on_c, 0, 55, 0
1, 221508, Note_on_c, 0, 57, 0
1, 221520, Note_on_c, 0, 78, 0
1, 221520, Note_on_c, 0, 59, 54
1, 221520, Note_on_c, 0, 55, 54
1, 221532, Control_c, 0, 64, 0
1, 221566, Control_c, 0, 64, 127
1, 221580, Note_on_c, 0, 77, 63
1, 221640, Note_on_c, 0, 77, 0
1, 221640, Note_on_c, 0, 79, 70
1, 221700, Note_on_c, 0, 79, 0
1, 221700, Note_on_c, 0, 77, 65
1, 221748, Note_on_c, 0, 55, 0
1, 221748, Note_on_c, 0, 59, 0
1, 221760, Tempo, 917712
1, 221760, Note_on_c, 0, 77, 0
1, 221760, Note_on_c, 0, 60, 57
1, 221760, Note_on_c, 0, 55, 57
1, 221775, Control_c, 0, 64, 0
1, 221795, Control_c, 0, 64, 127
1, 221820, Note_on_c, 0, 76, 73
1, 221880, Note_on_c, 0, 76, 0
1, 221880, Note_on_c, 0, 77, 76
1, 221940, Note_on_c, 0, 77, 0
1, 221940, Note_on_c, 0, 76, 71
1, 221988, Note_on_c, 0, 55, 0
1, 221988, Note_on_c, 0, 60, 0
1, 222000, Tempo, 911854
1, 222000, Note_on_c, 0, 76, 0
1, 222000, Note_on_c, 0, 67, 61
1, 222000, Note_on_c, 0, 55, 61
1, 222010, Control_c, 0, 64, 0
1, 222043, Control_c, 0, 64, 127
1, 222060, Note_on_c, 0, 75, 73
1, 222120, Note_on_c, 0, 75, 0
1, 222120, Note_on_c, 0, 77, 80
1, 222180, Note_on_c, 0, 77, 0
1, 222180, Note_on_c, 0, 75, 73
1, 222228, Note_on_c, 0, 55, 0
1, 222228, Note_on_c, 0, 67, 0
1, 222240, Tempo, 905934
1, 222240, Note_on_c, 0, 75, 0
1, 222240, Note_on_c, 0, 65, 64
1, 222240, Note_on_c, 0, 55, 64
1, 222246, Control_c, 0, 64, 0
1, 222286, Control_c, 0, 64, 127
1, 222300, Note_on_c, 0, 74, 79
1, 222360, Note_on_c, 0, 74, 0
1, 222360, Note_on_c, 0, 75, 83
1, 222420, Note_on_c, 0, 75, 0
1, 222420, Note_on_c, 0, 74, 79
1, 222468, Note_on_c, 0, 55, 0
1, 222468, Note_on_c, 0, 65, 0
1, 222480, Tempo, 899955
1, 222480, Note_on_c, 0, 74, 0
1, 222480, Note_on_c, 0, 63, 67
1, 222480, Note_on_c, 0, 54, 67
1, 222489, Control_c, 0, 64, 0
1, 222529, Control_c, 0, 64, 127
1, 222540, Note_on_c, 0, 72, 82
1, 222600, Note_on_c, 0, 72, 0
1, 222600, Note_on_c, 0, 74, 87
1, 222660, Note_on_c, 0, 74, 0
1, 222660, Note_on_c, 0, 72, 86
1, 222708, Note_on_c, 0, 54, 0
1, 222708, Note_on_c, 0, 63, 0
1, 222720, Tempo, 894188
1, 222720, Note_on_c, 0, 72, 0
1, 222720, Note_on_c, 0, 71, 88
1, 222720, Note_on_c, 0, 55, 71
1, 222720, Note_on_c, 0, 62, 71
1, 222729, Control_c, 0, 64, 0
1, 222769, Control_c, 0, 64, 127
1, 222780, Note_on_c, 0, 71, 0
1, 222810, Note_on_c, 0, 72, 71
1, 222840, Note_on_c, 0, 72, 0
1, 222840, Note_on_c, 0, 71, 75
1, 222900, Note_on_c, 0, 71, 0
1, 222900, Note_on_c, 0, 69, 75
1, 222960, Note_on_c, 0, 69, 0
1, 222960, Note_on_c, 0, 62, 0
1, 222960, Note_on_c, 0, 55, 0
1, 222960, Note_on_c, 0, 71, 79
1, 222973, Control_c, 0, 64, 0
1, 223080, Note_on_c, 0, 71, 0
1, 223080, Note_on_c, 0, 72, 76
1, 223140, Note_on_c, 0, 72, 0
1, 223200, Tempo, 894188
1, 223200, Note_on_c, 0, 74, 79
1, 223260, Note_on_c, 0, 74, 0
1, 223290, Note_on_c, 0, 76, 68
1, 223320, Tempo, 899955
1, 223320, Note_on_c, 0, 76, 0
1, 223320, Note_on_c, 0, 74, 72
1, 223380, Note_on_c, 0, 74, 0
1, 223380, Note_on_c, 0, 73, 72
1, 223400, Tempo, 905934
1, 223440, Note_on_c, 0, 73, 0
1, 223440, Note_on_c, 0, 74, 79
1, 223520, Tempo, 911854
1, 223560, Note_on_c, 0, 74, 0
1, 223560, Note_on_c, 0, 76, 79
1, 223600, Tempo, 917712
1, 223620, Note_on_c, 0, 76, 0
1, 223680, Tempo, 923930
1, 223680, Note_on_c, 0, 77, 73
1, 223680, Note_on_c, 0, 62, 38
1, 223680, Note_on_c, 0, 55, 38
1, 223800, Tempo, 888362
1, 223920, Note_on_c, 0, 55, 0
1, 223920, Note_on_c, 0, 62, 0
1, 223920, Note_on_c, 0, 77, 0
1, 223980, Note_on_c, 0, 79, 54
1, 224001, Control_c, 0, 64, 127
1, 224040, Note_on_c, 0, 79, 0
1, 224040, Note_on_c, 0, 76, 56
1, 224040, Note_on_c, 0, 61, 38
1, 224100, Note_on_c, 0, 76, 0
1, 224100, Note_on_c, 0, 79, 54
1, 224160, Note_on_c, 0, 79, 0
1, 224160, Note_on_c, 0, 61, 0
1, 224160, Note_on_c, 0, 77, 54
1, 224160, Note_on_c, 0, 62, 38
1, 224160, Note_on_c, 0, 55, 38
1, 224171, Control_c, 0, 64, 0
1, 224400, Note_on_c, 0, 55, 0
1, 224400, Note_on_c, 0, 62, 0
1, 224400, Note_on_c, 0, 77, 0
1, 224460, Note_on_c, 0, 79, 53
1, 224474, Control_c, 0, 64, 127
1, 224520, Note_on_c, 0, 79, 0
1, 224520, Note_on_c, 0, 76, 56
1, 224520, Note_on_c, 0, 61, 38
1, 224580, Note_on_c, 0, 76, 0
1, 224580, Note_on_c, 0, 79, 53
1, 224640, Note_on_c, 0, 79, 0
1, 224640, Note_on_c, 0, 61, 0
1, 224640, Note_on_c, 0, 77, 53
1, 224640, Note_on_c, 0, 62, 38
1, 224640, Note_on_c, 0, 55, 38
1, 224654, Control_c, 0, 64, 0
1, 224880, Note_on_c, 0, 55, 0
1, 224880, Note_on_c, 0, 62, 0
1, 224880, Note_on_c, 0, 77, 0
1, 224940, Note_on_c, 0, 79, 55
1, 224958, Control_c, 0, 64, 127
1, 225000, Note_on_c, 0, 79, 0
1, 225000, Note_on_c, 0, 76, 57
1, 225000, Note_on_c, 0, 61, 40
1, 225060, Note_on_c, 0, 76, 0
1, 225060, Note_on_c, 0, 79, 61
1, 225120, Tempo, 888362
1, 225120, Note_on_c, 0, 79, 0
1, 225120, Note_on_c, 0, 61, 0
1, 225120, Note_on_c, 0, 77, 63
1, 225120, Note_on_c, 0, 55, 45
1, 225120, Note_on_c, 0, 62, 45
1, 225131, Control_c, 0, 64, 0
1, 225170, Control_c, 0, 64, 127
1, 225180, Note_on_c, 0, 77, 0
1, 225180, Note_on_c, 0, 79, 66
1, 225240, Tempo, 894188
1, 225240, Note_on_c, 0, 79, 0
1, 225240, Note_on_c, 0, 62, 0
1, 225240, Note_on_c, 0, 76, 70
1, 225240, Note_on_c, 0, 61, 49
1, 225249, Control_c, 0, 64, 0
1, 225300, Note_on_c, 0, 76, 0
1, 225300, Note_on_c, 0, 79, 68
1, 225300, Control_c, 0, 64, 127
1, 225360, Tempo, 899955
1, 225360, Note_on_c, 0, 79, 0
1, 225360, Note_on_c, 0, 61, 0
1, 225360, Note_on_c, 0, 55, 0
1, 225360, Note_on_c, 0, 77, 75
1, 225360, Note_on_c, 0, 55, 54
1, 225360, Note_on_c, 0, 62, 54
1, 225369, Control_c, 0, 64, 0
1, 225410, Control_c, 0, 64, 127
1, 225420, Note_on_c, 0, 77, 0
1, 225420, Note_on_c, 0, 79, 73
1, 225480, Tempo, 905934
1, 225480, Note_on_c, 0, 79, 0
1, 225480, Note_on_c, 0, 62, 0
1, 225480, Note_on_c, 0, 76, 81
1, 225480, Note_on_c, 0, 61, 59
1, 225498, Control_c, 0, 64, 0
1, 225530, Control_c, 0, 64, 127
1, 225540, Note_on_c, 0, 76, 0
1, 225540, Note_on_c, 0, 79, 79
1, 225600, Note_on_c, 0, 79, 0
1, 225600, Note_on_c, 0, 61, 0
1, 225600, Note_on_c, 0, 55, 0
1, 225600, Note_on_c, 0, 77, 86
1, 225600, Note_on_c, 0, 62, 63
1, 225600, Note_on_c, 0, 55, 63
1, 225615, Control_c, 0, 64, 0
1, 225720, Note_on_c, 0, 77, 0
1, 225720, Note_on_c, 0, 76, 72
1, 225780, Note_on_c, 0, 76, 0
1, 225840, Note_on_c, 0, 74, 77
1, 225900, Note_on_c, 0, 74, 0
1, 225960, Note_on_c, 0, 72, 72
1, 226020, Note_on_c, 0, 72, 0
1, 226080, Tempo, 936330
1, 226080, Note_on_c, 0, 55, 0
1, 226080, Note_on_c, 0, 62, 0
1, 226080, Note_on_c, 0, 71, 60
1, 226140, Note_on_c, 0, 71, 0
1, 226200, Note_on_c, 0, 72, 62
1, 226200, Note_on_c, 0, 57, 54
1, 226260, Note_on_c, 0, 57, 0
1, 226260, Note_on_c, 0, 72, 0
1, 226320, Note_on_c, 0, 74, 59
1, 226320, Note_on_c, 0, 59, 54
1, 226380, Note_on_c, 0, 59, 0
1, 226380, Note_on_c, 0, 74, 0
1, 226440, Note_on_c, 0, 76, 56
1, 226440, Note_on_c, 0, 60, 54
1, 226500, Note_on_c, 0, 60, 0
1, 226500, Note_on_c, 0, 76, 0
1, 226560, Note_on_c, 0, 77, 62
1, 226560, Note_on_c, 0, 62, 52
1, 226620, Note_on_c, 0, 62, 0
1, 226620, Note_on_c, 0, 77, 0
1, 226680, Note_on_c, 0, 76, 57
1, 226680, Note_on_c, 0, 60, 55
1, 226740, Note_on_c, 0, 60, 0
1, 226740, Note_on_c, 0, 76, 0
1, 226800, Note_on_c, 0, 74, 61
1, 226800, Note_on_c, 0, 59, 59
1, 226860, Note_on_c, 0, 59, 0
1, 226860, Note_on_c, 0, 74, 0
1, 226920, Note_on_c, 0, 76, 64
1, 226920, Note_on_c, 0, 60, 62
1, 226980, Note_on_c, 0, 60, 0
1, 226980, Note_on_c, 0, 76, 0
1, 227040, Tempo, 949217
1, 227040, Note_on_c, 0, 77, 67
1, 227040, Note_on_c, 0, 62, 65
1, 227080, Tempo, 955871
1, 227100, Note_on_c, 0, 62, 0
1, 227100, Note_on_c, 0, 77, 0
1, 227120, Tempo, 962464
1, 227160, Tempo, 969149
1, 227160, Note_on_c, 0, 76, 71
1, 227160, Note_on_c, 0, 61, 67
1, 227200, Tempo, 975927
1, 227220, Note_on_c, 0, 61, 0
1, 227220, Note_on_c, 0, 76, 0
1, 227240, Tempo, 982962
1, 227280, Tempo, 989772
1, 227280, Note_on_c, 0, 77, 73
1, 227280, Note_on_c, 0, 62, 71
1, 227320, Tempo, 997175
1, 227340, Note_on_c, 0, 62, 0
1, 227340, Note_on_c, 0, 77, 0
1, 227360, Tempo, 1004352
1, 227400, Tempo, 1144820
1, 227400, Note_on_c, 0, 78, 77
1, 227400, Note_on_c, 0, 63, 73
1, 227460, Note_on_c, 0, 63, 0
1, 227460, Note_on_c, 0, 78, 0
1, 227520, Tempo, 930233
1, 227520, Control_c, 0, 91, 127
1, 227520, Note_on_c, 0, 79, 86
1, 227520, Note_on_c, 0, 64, 50
1, 227520, Control_c, 0, 91, 127
1, 227552, Control_c, 0, 64, 127
1, 227640, Note_on_c, 0, 64, 0
1, 227640, Note_on_c, 0, 79, 0
1, 227640, Note_on_c, 0, 60, 45
1, 227760, Note_on_c, 0, 60, 0
1, 227760, Note_on_c, 0, 79, 82
1, 227760, Note_on_c, 0, 64, 51
1, 227880, Note_on_c, 0, 64, 0
1, 227880, Note_on_c, 0, 60, 45
1, 228000, Note_on_c, 0, 60, 0
1, 228000, Note_on_c, 0, 64, 51
1, 228120, Tempo, 866051
1, 228120, Note_on_c, 0, 64, 0
1, 228120, Note_on_c, 0, 79, 0
1, 228120, Note_on_c, 0, 77, 71
1, 228120, Note_on_c, 0, 60, 40
1, 228180, Note_on_c, 0, 77, 0
1, 228180, Note_on_c, 0, 76, 69
1, 228240, Note_on_c, 0, 76, 0
1, 228240, Note_on_c, 0, 60, 0
1, 228240, Note_on_c, 0, 76, 70
1, 228240, Note_on_c, 0, 64, 45
1, 228251, Control_c, 0, 64, 0
1, 228296, Note_on_c, 0, 76, 0
1, 228300, Note_on_c, 0, 74, 66
1, 228304, Control_c, 0, 64, 127
1, 228360, Note_on_c, 0, 74, 0
1, 228360, Note_on_c, 0, 64, 0
1, 228360, Note_on_c, 0, 72, 67
1, 228360, Note_on_c, 0, 60, 43
1, 228420, Note_on_c, 0, 72, 0
1, 228420, Note_on_c, 0, 71, 66
1, 228480, Tempo, 888362
1, 228480, Note_on_c, 0, 71, 0
1, 228480, Note_on_c, 0, 60, 0
1, 228480, Note_on_c, 0, 72, 47
1, 228480, Note_on_c, 0, 64, 51
1, 228488, Control_c, 0, 64, 0
1, 228520, Note_on_c, 0, 74, 49
1, 228521, Control_c, 0, 64, 127
1, 228525, Note_on_c, 0, 72, 0
1, 228560, Note_on_c, 0, 72, 55
1, 228565, Note_on_c, 0, 74, 0
1, 228600, Note_on_c, 0, 64, 0
1, 228600, Note_on_c, 0, 74, 52
1, 228600, Note_on_c, 0, 60, 45
1, 228605, Note_on_c, 0, 72, 0
1, 228640, Note_on_c, 0, 72, 57
1, 228645, Note_on_c, 0, 74, 0
1, 228680, Note_on_c, 0, 74, 51
1, 228685, Note_on_c, 0, 72, 0
1, 228720, Note_on_c, 0, 60, 0
1, 228720, Note_on_c, 0, 72, 59
1, 228720, Note_on_c, 0, 64, 51
1, 228725, Note_on_c, 0, 74, 0
1, 228760, Note_on_c, 0, 74, 56
1, 228765, Note_on_c, 0, 72, 0
1, 228800, Note_on_c, 0, 72, 63
1, 228805, Note_on_c, 0, 74, 0
1, 228840, Tempo, 866051
1, 228840, Note_on_c, 0, 64, 0
1, 228840, Note_on_c, 0, 74, 62
1, 228840, Note_on_c, 0, 60, 40
1, 228860, Note_on_c, 0, 72, 0
1, 228900, Note_on_c, 0, 74, 0
1, 228900, Note_on_c, 0, 76, 63
1, 228960, Tempo, 922084
1, 228960, Note_on_c, 0, 76, 0
1, 228960, Note_on_c, 0, 60, 0
1, 228960, Note_on_c, 0, 67, 71
1, 228960, Note_on_c, 0, 64, 46
1, 228976, Control_c, 0, 64, 0
1, 229027, Control_c, 0, 64, 127
1, 229080, Note_on_c, 0, 64, 0
1, 229080, Note_on_c, 0, 60, 31
1, 229200, Tempo, 883132
1, 229200, Note_on_c, 0, 60, 0
1, 229200, Note_on_c, 0, 67, 0
1, 229200, Note_on_c, 0, 64, 35
1, 229320, Note_on_c, 0, 64, 0
1, 229320, Note_on_c, 0, 60, 31
1, 229440, Tempo, 936330
1, 229440, Note_on_c, 0, 60, 0
1, 229440, Note_on_c, 0, 79, 86
1, 229440, Note_on_c, 0, 64, 51
1, 229446, Control_c, 0, 64, 0
1, 229486, Control_c, 0, 64, 127
1, 229500, Note_on_c, 0, 79, 0
1, 229560, Note_on_c, 0, 64, 0
1, 229560, Note_on_c, 0, 79, 78
1, 229560, Note_on_c, 0, 60, 36
1, 229620, Note_on_c, 0, 79, 0
1, 229680, Note_on_c, 0, 60, 0
1, 229680, Note_on_c, 0, 79, 76
1, 229680, Note_on_c, 0, 64, 43
1, 229800, Note_on_c, 0, 64, 0
1, 229800, Note_on_c, 0, 60, 36
1, 229920, Note_on_c, 0, 60, 0
1, 229920, Note_on_c, 0, 64, 43
1, 230040, Tempo, 866051
1, 230040, Note_on_c, 0, 64, 0
1, 230040, Note_on_c, 0, 79, 0
1, 230040, Note_on_c, 0, 77, 64
1, 230040, Note_on_c, 0, 60, 36
1, 230100, Note_on_c, 0, 77, 0
1, 230100, Note_on_c, 0, 76, 61
1, 230156, Note_on_c, 0, 76, 0
1, 230160, Note_on_c, 0, 60, 0
1, 230160, Note_on_c, 0, 76, 64
1, 230160, Note_on_c, 0, 65, 40
1, 230164, Control_c, 0, 64, 0
1, 230206, Control_c, 0, 64, 127
1, 230220, Note_on_c, 0, 76, 0
1, 230220, Note_on_c, 0, 74, 61
1, 230280, Note_on_c, 0, 74, 0
1, 230280, Note_on_c, 0, 65, 0
1, 230280, Note_on_c, 0, 72, 61
1, 230280, Note_on_c, 0, 60, 36
1, 230340, Note_on_c, 0, 72, 0
1, 230340, Note_on_c, 0, 71, 60
1, 230400, Tempo, 888362
1, 230400, Note_on_c, 0, 71, 0
1, 230400, Note_on_c, 0, 60, 0
1, 230400, Note_on_c, 0, 72, 47
1, 230400, Note_on_c, 0, 64, 38
1, 230410, Control_c, 0, 64, 0
1, 230440, Note_on_c, 0, 74, 49
1, 230441, Control_c, 0, 64, 127
1, 230445, Note_on_c, 0, 72, 0
1, 230480, Note_on_c, 0, 72, 55
1, 230485, Note_on_c, 0, 74, 0
1, 230520, Note_on_c, 0, 64, 0
1, 230520, Note_on_c, 0, 74, 52
1, 230520, Note_on_c, 0, 60, 34
1, 230525, Note_on_c, 0, 72, 0
1, 230560, Note_on_c, 0, 72, 57
1, 230565, Note_on_c, 0, 74, 0
1, 230600, Note_on_c, 0, 74, 51
1, 230605, Note_on_c, 0, 72, 0
1, 230640, Note_on_c, 0, 60, 0
1, 230640, Note_on_c, 0, 72, 59
1, 230640, Note_on_c, 0, 64, 39
1, 230645, Note_on_c, 0, 74, 0
1, 230680, Note_on_c, 0, 74, 56
1, 230685, Note_on_c, 0, 72, 0
1, 230720, Note_on_c, 0, 72, 63
1, 230725, Note_on_c, 0, 74, 0
1, 230760, Tempo, 866051
1, 230760, Note_on_c, 0, 64, 0
1, 230760, Note_on_c, 0, 74, 62
1, 230760, Note_on_c, 0, 60, 33
1, 230780, Note_on_c, 0, 72, 0
1, 230820, Note_on_c, 0, 74, 0
1, 230820, Note_on_c, 0, 76, 63
1, 230880, Tempo, 895790
1, 230880, Note_on_c, 0, 76, 0
1, 230880, Note_on_c, 0, 60, 0
1, 230880, Note_on_c, 0, 67, 65
1, 230880, Note_on_c, 0, 64, 38
1, 230893, Control_c, 0, 64, 0
1, 230959, Control_c, 0, 64, 127
1, 231000, Note_on_c, 0, 64, 0
1, 231000, Note_on_c, 0, 60, 30
1, 231120, Tempo, 883132
1, 231120, Note_on_c, 0, 60, 0
1, 231120, Note_on_c, 0, 67, 0
1, 231120, Note_on_c, 0, 64, 33
1, 231240, Note_on_c, 0, 64, 0
1, 231240, Note_on_c, 0, 60, 29
1, 231360, Tempo, 903478
1, 231360, Note_on_c, 0, 60, 0
1, 231360, Note_on_c, 0, 69, 56
1, 231360, Note_on_c, 0, 65, 34
1, 231364, Control_c, 0, 64, 0
1, 231420, Note_on_c, 0, 69, 0
1, 231480, Tempo, 890076
1, 231480, Note_on_c, 0, 65, 0
1, 231480, Note_on_c, 0, 72, 54
1, 231480, Note_on_c, 0, 60, 29
1, 231540, Note_on_c, 0, 72, 0
1, 231600, Tempo, 852152
1, 231600, Note_on_c, 0, 60, 0
1, 231600, Note_on_c, 0, 77, 56
1, 231600, Note_on_c, 0, 65, 34
1, 231660, Note_on_c, 0, 77, 0
1, 231720, Tempo, 909091
1, 231720, Note_on_c, 0, 65, 0
1, 231720, Note_on_c, 0, 81, 54
1, 231720, Note_on_c, 0, 60, 30
1, 231780, Note_on_c, 0, 81, 0
1, 231840, Tempo, 915332
1, 231840, Note_on_c, 0, 60, 0
1, 231840, Note_on_c, 0, 84, 66
1, 231840, Note_on_c, 0, 65, 34
1, 231900, Note_on_c, 0, 84, 0
1, 231960, Tempo, 883132
1, 231960, Note_on_c, 0, 65, 0
1, 231960, Note_on_c, 0, 89, 70
1, 231960, Note_on_c, 0, 60, 30
1, 231980, Tempo, 876937
1, 232020, Note_on_c, 0, 89, 0
1, 232080, Note_on_c, 0, 60, 0
1, 232080, Note_on_c, 0, 65, 34
1, 232098, Control_c, 0, 64, 127
1, 232200, Note_on_c, 0, 65, 0
1, 232200, Note_on_c, 0, 60, 30
1, 232320, Tempo, 847338
1, 232320, Note_on_c, 0, 60, 0
1, 232320, Note_on_c, 0, 67, 58
1, 232320, Note_on_c, 0, 64, 36
1, 232330, Control_c, 0, 64, 0
1, 232380, Note_on_c, 0, 67, 0
1, 232440, Note_on_c, 0, 64, 0
1, 232440, Note_on_c, 0, 72, 56
1, 232440, Note_on_c, 0, 60, 32
1, 232500, Note_on_c, 0, 72, 0
1, 232560, Tempo, 852152
1, 232560, Note_on_c, 0, 60, 0
1, 232560, Note_on_c, 0, 76, 58
1, 232560, Note_on_c, 0, 64, 36
1, 232620, Note_on_c, 0, 76, 0
1, 232680, Tempo, 903478
1, 232680, Note_on_c, 0, 64, 0
1, 232680, Note_on_c, 0, 79, 55
1, 232680, Note_on_c, 0, 60, 30
1, 232740, Note_on_c, 0, 79, 0
1, 232800, Tempo, 882742
1, 232800, Note_on_c, 0, 60, 0
1, 232800, Note_on_c, 0, 84, 66
1, 232800, Note_on_c, 0, 64, 36
1, 232860, Note_on_c, 0, 84, 0
1, 232920, Note_on_c, 0, 64, 0
1, 232920, Note_on_c, 0, 88, 74
1, 232920, Note_on_c, 0, 60, 30
1, 232980, Note_on_c, 0, 88, 0
1, 233040, Note_on_c, 0, 60, 0
1, 233040, Note_on_c, 0, 64, 36
1, 233047, Control_c, 0, 64, 127
1, 233160, Note_on_c, 0, 64, 0
1, 233160, Note_on_c, 0, 60, 30
1, 233206, Control_c, 0, 64, 0
1, 233220, Note_on_c, 0, 67, 63
1, 233245, Control_c, 0, 64, 127
1, 233280, Tempo, 911854
1, 233280, Note_on_c, 0, 67, 0
1, 233280, Note_on_c, 0, 60, 0
1, 233280, Note_on_c, 0, 79, 84
1, 233280, Note_on_c, 0, 64, 57
1, 233280, Note_on_c, 0, 60, 57
1, 233400, Note_on_c, 0, 60, 0
1, 233400, Note_on_c, 0, 55, 50
1, 233520, Note_on_c, 0, 55, 0
1, 233520, Note_on_c, 0, 64, 0
1, 233520, Note_on_c, 0, 64, 57
1, 233520, Note_on_c, 0, 60, 57
1, 233640, Note_on_c, 0, 60, 0
1, 233640, Note_on_c, 0, 55, 50
1, 233760, Note_on_c, 0, 55, 0
1, 233760, Note_on_c, 0, 64, 0
1, 233760, Note_on_c, 0, 62, 54
1, 233760, Note_on_c, 0, 59, 54
1, 233768, Control_c, 0, 64, 0
1, 233814, Control_c, 0, 64, 127
1, 233880, Note_on_c, 0, 59, 0
1, 233880, Note_on_c, 0, 55, 46
1, 234000, Note_on_c, 0, 55, 0
1, 234000, Note_on_c, 0, 62, 0
1, 234000, Note_on_c, 0, 79, 0
1, 234000, Note_on_c, 0, 77, 60
1, 234000, Note_on_c, 0, 62, 51
1, 234000, Note_on_c, 0, 59, 51
1, 234040, Note_on_c, 0, 77, 0
1, 234040, Note_on_c, 0, 79, 68
1, 234080, Note_on_c, 0, 79, 0
1, 234080, Note_on_c, 0, 77, 68
1, 234120, Note_on_c, 0, 77, 0
1, 234120, Note_on_c, 0, 59, 0
1, 234120, Note_on_c, 0, 76, 76
1, 234120, Note_on_c, 0, 55, 44
1, 234180, Note_on_c, 0, 76, 0
1, 234180, Note_on_c, 0, 77, 71
1, 234240, Tempo, 917712
1, 234240, Note_on_c, 0, 77, 0
1, 234240, Note_on_c, 0, 55, 0
1, 234240, Note_on_c, 0, 62, 0
1, 234240, Note_on_c, 0, 75, 78
1, 234240, Note_on_c, 0, 60, 48
1, 234248, Control_c, 0, 64, 0
1, 234311, Control_c, 0, 64, 127
1, 234360, Note_on_c, 0, 60, 0
1, 234360, Note_on_c, 0, 48, 45
1, 234480, Tempo, 888362
1, 234480, Note_on_c, 0, 48, 0
1, 234480, Note_on_c, 0, 75, 0
1, 234480, Note_on_c, 0, 76, 75
1, 234480, Note_on_c, 0, 52, 48
1, 234488, Control_c, 0, 64, 0
1, 234544, Control_c, 0, 64, 127
1, 234600, Note_on_c, 0, 52, 0
1, 234600, Note_on_c, 0, 55, 45
1, 234720, Note_on_c, 0, 55, 0
1, 234720, Note_on_c, 0, 76, 0
1, 234720, Note_on_c, 0, 60, 57
1, 234744, Control_c, 0, 64, 0
1, 234798, Control_c, 0, 64, 127
1, 234840, Note_on_c, 0, 60, 0
1, 234840, Note_on_c, 0, 64, 48
1, 234960, Note_on_c, 0, 64, 0
1, 234960, Note_on_c, 0, 67, 52
1, 235080, Note_on_c, 0, 67, 0
1, 235080, Note_on_c, 0, 64, 48
1, 235200, Tempo, 858861
1, 235200, Note_on_c, 0, 64, 0
1, 235200, Note_on_c, 0, 69, 61
1, 235200, Note_on_c, 0, 65, 37
1, 235210, Control_c, 0, 64, 0
1, 235260, Note_on_c, 0, 69, 0
1, 235260, Note_on_c, 0, 72, 57
1, 235267, Control_c, 0, 64, 127
1, 235320, Note_on_c, 0, 72, 0
1, 235320, Note_on_c, 0, 65, 0
1, 235320, Note_on_c, 0, 74, 61
1, 235320, Note_on_c, 0, 60, 28
1, 235360, Tempo, 853121
1, 235380, Note_on_c, 0, 74, 0
1, 235380, Note_on_c, 0, 76, 56
1, 235440, Tempo, 847338
1, 235440, Note_on_c, 0, 76, 0
1, 235440, Note_on_c, 0, 60, 0
1, 235440, Note_on_c, 0, 77, 61
1, 235440, Note_on_c, 0, 65, 37
1, 235500, Note_on_c, 0, 77, 0
1, 235500, Note_on_c, 0, 79, 58
1, 235520, Tempo, 853121
1, 235544, Tempo, 840218
1, 235560, Note_on_c, 0, 79, 0
1, 235560, Note_on_c, 0, 65, 0
1, 235560, Note_on_c, 0, 81, 61
1, 235560, Note_on_c, 0, 60, 29
1, 235563, Tempo, 852152
1, 235582, Tempo, 864429
1, 235620, Note_on_c, 0, 81, 0
1, 235620, Note_on_c, 0, 83, 57
1, 235621, Tempo, 877065
1, 235640, Tempo, 890076
1, 235660, Tempo, 864803
1, 235680, Tempo, 960000
1, 235680, Note_on_c, 0, 83, 0
1, 235680, Note_on_c, 0, 60, 0
1, 235680, Note_on_c, 0, 84, 72
1, 235680, Note_on_c, 0, 65, 37
1, 235693, Control_c, 0, 64, 0
1, 235737, Control_c, 0, 64, 127
1, 235800, Tempo, 889284
1, 235800, Note_on_c, 0, 65, 0
1, 235800, Note_on_c, 0, 84, 0
1, 235800, Note_on_c, 0, 60, 27
1, 235920, Tempo, 883132
1, 235920, Note_on_c, 0, 60, 0
1, 235920, Note_on_c, 0, 65, 32
1, 236040, Note_on_c, 0, 65, 0
1, 236040, Note_on_c, 0, 60, 29
1, 236160, Tempo, 858861
1, 236160, Note_on_c, 0, 60, 0
1, 236160, Note_on_c, 0, 67, 63
1, 236160, Note_on_c, 0, 64, 37
1, 236176, Control_c, 0, 64, 0
1, 236210, Control_c, 0, 64, 127
1, 236220, Note_on_c, 0, 67, 0
1, 236220, Note_on_c, 0, 72, 58
1, 236280, Tempo, 853121
1, 236280, Note_on_c, 0, 72, 0
1, 236280, Note_on_c, 0, 64, 0
1, 236280, Note_on_c, 0, 74, 63
1, 236280, Note_on_c, 0, 60, 29
1, 236340, Note_on_c, 0, 74, 0
1, 236340, Note_on_c, 0, 76, 56
1, 236400, Tempo, 853121
1, 236400, Note_on_c, 0, 76, 0
1, 236400, Note_on_c, 0, 60, 0
1, 236400, Note_on_c, 0, 77, 63
1, 236400, Note_on_c, 0, 64, 37
1, 236460, Note_on_c, 0, 77, 0
1, 236460, Note_on_c, 0, 79, 58
1, 236504, Tempo, 864429
1, 236520, Tempo, 858861
1, 236520, Note_on_c, 0, 79, 0
1, 236520, Note_on_c, 0, 64, 0
1, 236520, Note_on_c, 0, 81, 63
1, 236520, Note_on_c, 0, 60, 28
1, 236580, Note_on_c, 0, 81, 0
1, 236580, Note_on_c, 0, 83, 58
1, 236620, Tempo, 864803
1, 236640, Tempo, 935745
1, 236640, Note_on_c, 0, 83, 0
1, 236640, Note_on_c, 0, 60, 0
1, 236640, Note_on_c, 0, 84, 72
1, 236640, Note_on_c, 0, 64, 37
1, 236652, Control_c, 0, 64, 0
1, 236693, Control_c, 0, 64, 127
1, 236760, Tempo, 889284
1, 236760, Note_on_c, 0, 64, 0
1, 236760, Note_on_c, 0, 84, 0
1, 236760, Note_on_c, 0, 60, 27
1, 236880, Tempo, 870827
1, 236880, Note_on_c, 0, 60, 0
1, 236880, Note_on_c, 0, 64, 33
1, 237000, Note_on_c, 0, 64, 0
1, 237000, Note_on_c, 0, 60, 29
1, 237120, Tempo, 858861
1, 237120, Note_on_c, 0, 60, 0
1, 237120, Note_on_c, 0, 81, 85
1, 237120, Note_on_c, 0, 64, 51
1, 237120, Note_on_c, 0, 60, 51
1, 237140, Control_c, 0, 64, 0
1, 237240, Note_on_c, 0, 60, 0
1, 237240, Note_on_c, 0, 81, 0
1, 237240, Note_on_c, 0, 79, 79
1, 237240, Note_on_c, 0, 55, 45
1, 237360, Note_on_c, 0, 55, 0
1, 237360, Note_on_c, 0, 79, 0
1, 237360, Note_on_c, 0, 64, 0
1, 237360, Note_on_c, 0, 77, 82
1, 237360, Note_on_c, 0, 64, 51
1, 237360, Note_on_c, 0, 60, 51
1, 237420, Note_on_c, 0, 77, 0
1, 237480, Note_on_c, 0, 60, 0
1, 237480, Note_on_c, 0, 76, 78
1, 237480, Note_on_c, 0, 55, 45
1, 237540, Note_on_c, 0, 76, 0
1, 237600, Note_on_c, 0, 55, 0
1, 237600, Note_on_c, 0, 64, 0
1, 237600, Note_on_c, 0, 76, 85
1, 237600, Note_on_c, 0, 65, 51
1, 237600, Note_on_c, 0, 62, 51
1, 237720, Note_on_c, 0, 62, 0
1, 237720, Note_on_c, 0, 76, 0
1, 237720, Note_on_c, 0, 74, 74
1, 237720, Note_on_c, 0, 55, 43
1, 237840, Note_on_c, 0, 55, 0
1, 237840, Note_on_c, 0, 74, 0
1, 237840, Note_on_c, 0, 65, 0
1, 237840, Note_on_c, 0, 72, 77
1, 237840, Note_on_c, 0, 65, 48
1, 237840, Note_on_c, 0, 62, 48
1, 237900, Note_on_c, 0, 72, 0
1, 237960, Note_on_c, 0, 62, 0
1, 237960, Note_on_c, 0, 71, 76
1, 237960, Note_on_c, 0, 55, 45
1, 238020, Note_on_c, 0, 71, 0
1, 238080, Tempo, 871586
1, 238080, Note_on_c, 0, 55, 0
1, 238080, Note_on_c, 0, 65, 0
1, 238080, Note_on_c, 0, 72, 77
1, 238080, Note_on_c, 0, 64, 56
1, 238080, Note_on_c, 0, 60, 56
1, 238140, Note_on_c, 0, 67, 68
1, 238152, Note_on_c, 0, 72, 0
1, 238200, Note_on_c, 0, 69, 72
1, 238212, Note_on_c, 0, 67, 0
1, 238260, Note_on_c, 0, 71, 70
1, 238272, Note_on_c, 0, 69, 0
1, 238320, Note_on_c, 0, 72, 75
1, 238332, Note_on_c, 0, 71, 0
1, 238380, Note_on_c, 0, 74, 73
1, 238392, Note_on_c, 0, 72, 0
1, 238440, Note_on_c, 0, 76, 78
1, 238452, Note_on_c, 0, 74, 0
1, 238500, Note_on_c, 0, 77, 76
1, 238512, Note_on_c, 0, 76, 0
1, 238560, Note_on_c, 0, 64, 0
1, 238560, Note_on_c, 0, 60, 0
1, 238560, Note_on_c, 0, 79, 80
1, 238572, Note_on_c, 0, 77, 0
1, 238620, Note_on_c, 0, 81, 77
1, 238632, Note_on_c, 0, 79, 0
1, 238680, Note_on_c, 0, 83, 78
1, 238692, Note_on_c, 0, 81, 0
1, 238740, Note_on_c, 0, 84, 75
1, 238752, Note_on_c, 0, 83, 0
1, 238800, Tempo, 899955
1, 238800, Note_on_c, 0, 79, 81
1, 238812, Note_on_c, 0, 84, 0
1, 238860, Note_on_c, 0, 79, 0
1, 238920, Note_on_c, 0, 79, 79
1, 238980, Note_on_c, 0, 79, 0
1, 239040, Note_on_c, 0, 64, 46
1, 239040, Note_on_c, 0, 55, 46
1, 239086, Control_c, 0, 64, 127
1, 239100, Note_on_c, 0, 79, 54
1, 239160, Note_on_c, 0, 79, 0
1, 239160, Note_on_c, 0, 81, 57
1, 239220, Note_on_c, 0, 81, 0
1, 239220, Note_on_c, 0, 79, 54
1, 239280, Note_on_c, 0, 79, 0
1, 239280, Note_on_c, 0, 55, 0
1, 239280, Note_on_c, 0, 64, 0
1, 239280, Note_on_c, 0, 62, 40
1, 239280, Note_on_c, 0, 55, 40
1, 239289, Control_c, 0, 64, 0
1, 239319, Control_c, 0, 64, 127
1, 239340, Note_on_c, 0, 77, 54
1, 239400, Note_on_c, 0, 77, 0
1, 239400, Note_on_c, 0, 79, 57
1, 239460, Note_on_c, 0, 79, 0
1, 239460, Note_on_c, 0, 77, 54
1, 239520, Note_on_c, 0, 77, 0
1, 239520, Note_on_c, 0, 55, 0
1, 239520, Note_on_c, 0, 62, 0
1, 239520, Note_on_c, 0, 60, 46
1, 239520, Note_on_c, 0, 55, 46
1, 239534, Control_c, 0, 64, 0
1, 239570, Control_c, 0, 64, 127
1, 239580, Note_on_c, 0, 76, 54
1, 239640, Note_on_c, 0, 76, 0
1, 239640, Note_on_c, 0, 77, 56
1, 239700, Note_on_c, 0, 77, 0
1, 239700, Note_on_c, 0, 76, 54
1, 239760, Note_on_c, 0, 76, 0
1, 239760, Note_on_c, 0, 55, 0
1, 239760, Note_on_c, 0, 60, 0
1, 239760, Note_on_c, 0, 59, 42
1, 239760, Note_on_c, 0, 55, 42
1, 239766, Control_c, 0, 64, 0
1, 239799, Control_c, 0, 64, 127
1, 239820, Note_on_c, 0, 74, 54
1, 239880, Note_on_c, 0, 74, 0
1, 239880, Note_on_c, 0, 76, 56
1, 239940, Note_on_c, 0, 76, 0
1, 239940, Note_on_c, 0, 74, 54
1, 240000, Tempo, 866051
1, 240000, Note_on_c, 0, 74, 0
1, 240000, Note_on_c, 0, 55, 0
1, 240000, Note_on_c, 0, 59, 0
1, 240000, Note_on_c, 0, 72, 83
1, 240000, Note_on_c, 0, 60, 58
1, 240014, Control_c, 0, 64, 0
1, 240060, Note_on_c, 0, 67, 76
1, 240072, Note_on_c, 0, 72, 0
1, 240120, Note_on_c, 0, 69, 79
1, 240132, Note_on_c, 0, 67, 0
1, 240180, Note_on_c, 0, 71, 75
1, 240192, Note_on_c, 0, 69, 0
1, 240240, Note_on_c, 0, 72, 81
1, 240252, Note_on_c, 0, 71, 0
1, 240300, Note_on_c, 0, 74, 79
1, 240312, Note_on_c, 0, 72, 0
1, 240360, Note_on_c, 0, 76, 82
1, 240372, Note_on_c, 0, 74, 0
1, 240420, Note_on_c, 0, 77, 78
1, 240432, Note_on_c, 0, 76, 0
1, 240480, Note_on_c, 0, 60, 0
1, 240480, Note_on_c, 0, 79, 81
1, 240492, Note_on_c, 0, 77, 0
1, 240540, Note_on_c, 0, 81, 76
1, 240552, Note_on_c, 0, 79, 0
1, 240600, Note_on_c, 0, 83, 80
1, 240612, Note_on_c, 0, 81, 0
1, 240660, Note_on_c, 0, 84, 75
1, 240672, Note_on_c, 0, 83, 0
1, 240720, Tempo, 899955
1, 240720, Note_on_c, 0, 79, 82
1, 240732, Note_on_c, 0, 84, 0
1, 240780, Note_on_c, 0, 79, 0
1, 240840, Note_on_c, 0, 79, 80
1, 240900, Note_on_c, 0, 79, 0
1, 240960, Note_on_c, 0, 64, 46
1, 240960, Note_on_c, 0, 55, 46
1, 240992, Control_c, 0, 64, 127
1, 241020, Note_on_c, 0, 79, 54
1, 241080, Note_on_c, 0, 79, 0
1, 241080, Note_on_c, 0, 81, 56
1, 241140, Note_on_c, 0, 81, 0
1, 241140, Note_on_c, 0, 79, 54
1, 241200, Note_on_c, 0, 79, 0
1, 241200, Note_on_c, 0, 55, 0
1, 241200, Note_on_c, 0, 64, 0
1, 241200, Note_on_c, 0, 62, 42
1, 241200, Note_on_c, 0, 55, 42
1, 241208, Control_c, 0, 64, 0
1, 241250, Control_c, 0, 64, 127
1, 241260, Note_on_c, 0, 77, 54
1, 241320, Note_on_c, 0, 77, 0
1, 241320, Note_on_c, 0, 79, 56
1, 241380, Note_on_c, 0, 79, 0
1, 241380, Note_on_c, 0, 77, 54
1, 241440, Note_on_c, 0, 77, 0
1, 241440, Note_on_c, 0, 55, 0
1, 241440, Note_on_c, 0, 62, 0
1, 241440, Note_on_c, 0, 60, 45
1, 241440, Note_on_c, 0, 55, 45
1, 241449, Control_c, 0, 64, 0
1, 241500, Note_on_c, 0, 76, 54
1, 241500, Control_c, 0, 64, 127
1, 241560, Note_on_c, 0, 76, 0
1, 241560, Note_on_c, 0, 77, 56
1, 241620, Note_on_c, 0, 77, 0
1, 241620, Note_on_c, 0, 76, 54
1, 241680, Note_on_c, 0, 76, 0
1, 241680, Note_on_c, 0, 55, 0
1, 241680, Note_on_c, 0, 60, 0
1, 241680, Note_on_c, 0, 59, 45
1, 241680, Note_on_c, 0, 55, 45
1, 241684, Control_c, 0, 64, 0
1, 241737, Control_c, 0, 64, 127
1, 241740, Note_on_c, 0, 74, 54
1, 241800, Note_on_c, 0, 74, 0
1, 241800, Note_on_c, 0, 76, 54
1, 241860, Note_on_c, 0, 76, 0
1, 241860, Note_on_c, 0, 74, 54
1, 241920, Tempo, 982962
1, 241920, Note_on_c, 0, 74, 0
1, 241920, Note_on_c, 0, 55, 0
1, 241920, Note_on_c, 0, 59, 0
1, 241920, Note_on_c, 0, 72, 81
1, 241920, Note_on_c, 0, 48, 62
1, 241931, Control_c, 0, 64, 0
1, 241980, Note_on_c, 0, 48, 0
1, 241980, Note_on_c, 0, 72, 0
1, 242040, Tempo, 866051
1, 242040, Note_on_c, 0, 72, 81
1, 242040, Note_on_c, 0, 60, 68
1, 242160, Note_on_c, 0, 60, 0
1, 242160, Note_on_c, 0, 59, 59
1, 242280, Note_on_c, 0, 59, 0
1, 242280, Note_on_c, 0, 72, 0
1, 242280, Note_on_c, 0, 74, 73
1, 242280, Note_on_c, 0, 58, 59
1, 242340, Note_on_c, 0, 74, 0
1, 242340, Note_on_c, 0, 76, 70
1, 242400, Tempo, 923930
1, 242400, Note_on_c, 0, 76, 0
1, 242400, Note_on_c, 0, 58, 0
1, 242400, Note_on_c, 0, 77, 82
1, 242400, Note_on_c, 0, 57, 63
1, 242460, Note_on_c, 0, 57, 0
1, 242460, Note_on_c, 0, 77, 0
1, 242520, Tempo, 866051
1, 242520, Note_on_c, 0, 77, 79
1, 242520, Note_on_c, 0, 57, 67
1, 242640, Note_on_c, 0, 57, 0
1, 242640, Note_on_c, 0, 55, 61
1, 242760, Note_on_c, 0, 55, 0
1, 242760, Note_on_c, 0, 77, 0
1, 242760, Note_on_c, 0, 79, 76
1, 242760, Note_on_c, 0, 53, 61
1, 242820, Note_on_c, 0, 79, 0
1, 242820, Note_on_c, 0, 81, 76
1, 242880, Note_on_c, 0, 81, 0
1, 242880, Note_on_c, 0, 53, 0
1, 242880, Note_on_c, 0, 79, 83
1, 242880, Note_on_c, 0, 52, 60
1, 243000, Tempo, 866051
1, 243000, Note_on_c, 0, 52, 0
1, 243000, Note_on_c, 0, 79, 0
1, 243000, Note_on_c, 0, 76, 80
1, 243120, Tempo, 899955
1, 243120, Note_on_c, 0, 76, 0
1, 243120, Note_on_c, 0, 84, 83
1, 243120, Note_on_c, 0, 48, 60
1, 243180, Note_on_c, 0, 84, 0
1, 243240, Note_on_c, 0, 48, 0
1, 243240, Note_on_c, 0, 84, 80
1, 243300, Note_on_c, 0, 84, 0
1, 243360, Tempo, 866051
1, 243360, Note_on_c, 0, 86, 84
1, 243420, Note_on_c, 0, 84, 76
1, 243432, Note_on_c, 0, 86, 0
1, 243480, Note_on_c, 0, 83, 78
1, 243492, Note_on_c, 0, 84, 0
1, 243540, Note_on_c, 0, 81, 73
1, 243552, Note_on_c, 0, 83, 0
1, 243596, Note_on_c, 0, 81, 0
1, 243600, Note_on_c, 0, 81, 73
1, 243600, Note_on_c, 0, 60, 51
1, 243600, Note_on_c, 0, 48, 51
1, 243660, Note_on_c, 0, 79, 66
1, 243672, Note_on_c, 0, 81, 0
1, 243720, Tempo, 1063641
1, 243720, Note_on_c, 0, 77, 68
1, 243732, Note_on_c, 0, 79, 0
1, 243780, Note_on_c, 0, 76, 64
1, 243792, Note_on_c, 0, 77, 0
1, 243840, Tempo, 888362
1, 243840, Note_on_c, 0, 60, 0
1, 243840, Note_on_c, 0, 48, 0
1, 243840, Note_on_c, 0, 76, 0
1, 243840, Note_on_c, 0, 79, 68
1, 243840, Note_on_c, 0, 64, 51
1, 243840, Note_on_c, 0, 55, 51
1, 243918, Control_c, 0, 64, 127
1, 244200, Note_on_c, 0, 64, 0
1, 244200, Note_on_c, 0, 79, 0
1, 244200, Note_on_c, 0, 76, 69
1, 244200, Note_on_c, 0, 60, 54
1, 244320, Note_on_c, 0, 60, 0
1, 244320, Note_on_c, 0, 76, 0
1, 244320, Note_on_c, 0, 55, 0
1, 244320, Note_on_c, 0, 74, 67
1, 244320, Note_on_c, 0, 59, 54
1, 244341, Control_c, 0, 64, 0
1, 244440, Tempo, 866051
1, 244440, Note_on_c, 0, 43, 71
1, 244560, Tempo, 895790
1, 244560, Note_on_c, 0, 43, 0
1, 244560, Note_on_c, 0, 59, 0
1, 244560, Note_on_c, 0, 74, 0
1, 244560, Note_on_c, 0, 47, 72
1, 244680, Tempo, 977040
1, 244680, Note_on_c, 0, 47, 0
1, 244680, Note_on_c, 0, 50, 69
1, 244800, Tempo, 894188
1, 244800, Note_on_c, 0, 50, 0
1, 244800, Note_on_c, 0, 73, 60
1, 244800, Note_on_c, 0, 55, 45
1, 244840, Control_c, 0, 64, 127
1, 244920, Note_on_c, 0, 55, 0
1, 244920, Note_on_c, 0, 73, 0
1, 244920, Note_on_c, 0, 74, 56
1, 244920, Note_on_c, 0, 59, 42
1, 245040, Tempo, 866051
1, 245040, Note_on_c, 0, 59, 0
1, 245040, Note_on_c, 0, 74, 0
1, 245040, Note_on_c, 0, 72, 55
1, 245040, Note_on_c, 0, 62, 40
1, 245053, Control_c, 0, 64, 0
1, 245100, Note_on_c, 0, 72, 0
1, 245100, Note_on_c, 0, 71, 52
1, 245160, Note_on_c, 0, 71, 0
1, 245160, Note_on_c, 0, 62, 0
1, 245160, Note_on_c, 0, 69, 55
1, 245220, Note_on_c, 0, 69, 0
1, 245220, Note_on_c, 0, 67, 53
1, 245280, Tempo, 894188
1, 245280, Note_on_c, 0, 67, 0
1, 245280, Note_on_c, 0, 73, 61
1, 245280, Note_on_c, 0, 55, 45
1, 245317, Control_c, 0, 64, 127
1, 245400, Note_on_c, 0, 55, 0
1, 245400, Note_on_c, 0, 73, 0
1, 245400, Note_on_c, 0, 74, 59
1, 245400, Note_on_c, 0, 59, 43
1, 245520, Tempo, 866051
1, 245520, Note_on_c, 0, 59, 0
1, 245520, Note_on_c, 0, 74, 0
1, 245520, Note_on_c, 0, 72, 55
1, 245520, Note_on_c, 0, 62, 41
1, 245523, Control_c, 0, 64, 0
1, 245580, Note_on_c, 0, 72, 0
1, 245580, Note_on_c, 0, 71, 54
1, 245640, Tempo, 917291
1, 245640, Note_on_c, 0, 71, 0
1, 245640, Note_on_c, 0, 62, 0
1, 245640, Note_on_c, 0, 69, 55
1, 245700, Note_on_c, 0, 69, 0
1, 245700, Note_on_c, 0, 67, 53
1, 245760, Tempo, 922084
1, 245760, Note_on_c, 0, 67, 0
1, 245760, Note_on_c, 0, 75, 64
1, 245760, Note_on_c, 0, 55, 44
1, 245792, Control_c, 0, 64, 127
1, 245880, Note_on_c, 0, 55, 0
1, 245880, Note_on_c, 0, 75, 0
1, 245880, Note_on_c, 0, 76, 61
1, 245880, Note_on_c, 0, 60, 40
1, 246000, Note_on_c, 0, 60, 0
1, 246000, Note_on_c, 0, 76, 0
1, 246000, Note_on_c, 0, 76, 63
1, 246000, Note_on_c, 0, 64, 43
1, 246060, Note_on_c, 0, 76, 0
1, 246120, Note_on_c, 0, 64, 0
1, 246120, Note_on_c, 0, 76, 59
1, 246120, Note_on_c, 0, 60, 41
1, 246180, Note_on_c, 0, 76, 0
1, 246240, Tempo, 889284
1, 246240, Note_on_c, 0, 60, 0
1, 246240, Note_on_c, 0, 76, 63
1, 246240, Note_on_c, 0, 55, 44
1, 246258, Control_c, 0, 64, 0
1, 246336, Control_c, 0, 64, 127
1, 246360, Note_on_c, 0, 55, 0
1, 246360, Note_on_c, 0, 60, 40
1, 246480, Note_on_c, 0, 60, 0
1, 246480, Note_on_c, 0, 76, 0
1, 246480, Note_on_c, 0, 64, 43
1, 246600, Note_on_c, 0, 64, 0
1, 246600, Note_on_c, 0, 60, 40
1, 246660, Note_on_c, 0, 69, 60
1, 246720, Tempo, 870827
1, 246720, Note_on_c, 0, 69, 0
1, 246720, Note_on_c, 0, 60, 0
1, 246720, Note_on_c, 0, 81, 87
1, 246720, Note_on_c, 0, 54, 57
1, 246729, Control_c, 0, 64, 0
1, 246767, Control_c, 0, 64, 127
1, 246840, Note_on_c, 0, 54, 0
1, 246840, Note_on_c, 0, 57, 51
1, 246960, Note_on_c, 0, 57, 0
1, 246960, Note_on_c, 0, 60, 54
1, 247080, Note_on_c, 0, 60, 0
1, 247080, Note_on_c, 0, 81, 0
1, 247080, Note_on_c, 0, 79, 76
1, 247120, Note_on_c, 0, 79, 0
1, 247120, Note_on_c, 0, 78, 72
1, 247160, Note_on_c, 0, 78, 0
1, 247160, Note_on_c, 0, 76, 76
1, 247200, Tempo, 955871
1, 247200, Note_on_c, 0, 76, 0
1, 247200, Note_on_c, 0, 74, 84
1, 247200, Note_on_c, 0, 54, 57
1, 247320, Tempo, 911854
1, 247320, Note_on_c, 0, 54, 0
1, 247320, Note_on_c, 0, 74, 0
1, 247320, Note_on_c, 0, 86, 82
1, 247320, Note_on_c, 0, 57, 51
1, 247326, Control_c, 0, 64, 0
1, 247380, Note_on_c, 0, 86, 0
1, 247440, Note_on_c, 0, 57, 0
1, 247440, Note_on_c, 0, 86, 82
1, 247440, Note_on_c, 0, 60, 54
1, 247500, Note_on_c, 0, 86, 0
1, 247560, Tempo, 982962
1, 247560, Note_on_c, 0, 60, 0
1, 247560, Note_on_c, 0, 86, 79
1, 247620, Note_on_c, 0, 86, 0
1, 247680, Tempo, 936330
1, 247680, Note_on_c, 0, 86, 90
1, 247680, Note_on_c, 0, 53, 57
1, 247747, Control_c, 0, 64, 127
1, 247800, Note_on_c, 0, 53, 0
1, 247800, Note_on_c, 0, 57, 52
1, 247920, Note_on_c, 0, 57, 0
1, 247920, Note_on_c, 0, 59, 57
1, 247980, Note_on_c, 0, 86, 0
1, 247980, Note_on_c, 0, 83, 74
1, 248040, Note_on_c, 0, 83, 0
1, 248040, Note_on_c, 0, 59, 0
1, 248040, Note_on_c, 0, 86, 77
1, 248040, Note_on_c, 0, 62, 52
1, 248100, Note_on_c, 0, 86, 0
1, 248100, Note_on_c, 0, 83, 76
1, 248120, Tempo, 936330
1, 248160, Tempo, 942951
1, 248160, Note_on_c, 0, 83, 0
1, 248160, Note_on_c, 0, 62, 0
1, 248160, Note_on_c, 0, 79, 77
1, 248160, Note_on_c, 0, 65, 62
1, 248200, Tempo, 949217
1, 248240, Tempo, 962464
1, 248280, Note_on_c, 0, 79, 0
1, 248280, Note_on_c, 0, 71, 54
1, 248280, Note_on_c, 0, 74, 54
1, 248295, Control_c, 0, 64, 0
1, 248326, Control_c, 0, 64, 127
1, 248400, Note_on_c, 0, 74, 0
1, 248400, Note_on_c, 0, 71, 0
1, 248400, Note_on_c, 0, 65, 0
1, 248400, Note_on_c, 0, 76, 54
1, 248400, Note_on_c, 0, 72, 54
1, 248400, Note_on_c, 0, 64, 43
1, 248414, Control_c, 0, 64, 0
1, 248460, Control_c, 0, 64, 127
1, 248520, Note_on_c, 0, 64, 0
1, 248520, Note_on_c, 0, 72, 0
1, 248520, Note_on_c, 0, 76, 0
1, 248520, Note_on_c, 0, 77, 50
1, 248520, Note_on_c, 0, 74, 50
1, 248520, Note_on_c, 0, 62, 45
1, 248560, Tempo, 1042028
1, 248600, Tempo, 1058014
1, 248640, Tempo, 930233
1, 248640, Note_on_c, 0, 62, 0
1, 248640, Note_on_c, 0, 74, 0
1, 248640, Note_on_c, 0, 77, 0
1, 248640, Note_on_c, 0, 78, 60
1, 248640, Note_on_c, 0, 60, 44
1, 248654, Control_c, 0, 64, 0
1, 248689, Control_c, 0, 64, 127
1, 248760, Note_on_c, 0, 60, 0
1, 248760, Note_on_c, 0, 78, 0
1, 248760, Note_on_c, 0, 79, 58
1, 248760, Note_on_c, 0, 64, 39
1, 248772, Control_c, 0, 64, 0
1, 248880, Tempo, 866051
1, 248880, Note_on_c, 0, 64, 0
1, 248880, Note_on_c, 0, 79, 0
1, 248880, Note_on_c, 0, 77, 54
1, 248880, Note_on_c, 0, 67, 41
1, 248940, Note_on_c, 0, 77, 0
1, 248940, Note_on_c, 0, 76, 51
1, 249000, Note_on_c, 0, 76, 0
1, 249000, Note_on_c, 0, 67, 0
1, 249000, Note_on_c, 0, 74, 54
1, 249060, Note_on_c, 0, 74, 0
1, 249060, Note_on_c, 0, 72, 52
1, 249120, Tempo, 917712
1, 249120, Note_on_c, 0, 72, 0
1, 249120, Note_on_c, 0, 78, 54
1, 249120, Note_on_c, 0, 60, 44
1, 249143, Control_c, 0, 64, 127
1, 249180, Note_on_c, 0, 78, 0
1, 249180, Note_on_c, 0, 79, 53
1, 249240, Note_on_c, 0, 79, 0
1, 249240, Note_on_c, 0, 60, 0
1, 249240, Note_on_c, 0, 81, 55
1, 249240, Note_on_c, 0, 64, 39
1, 249300, Note_on_c, 0, 81, 0
1, 249300, Note_on_c, 0, 79, 57
1, 249360, Tempo, 866051
1, 249360, Note_on_c, 0, 79, 0
1, 249360, Note_on_c, 0, 64, 0
1, 249360, Note_on_c, 0, 77, 56
1, 249360, Note_on_c, 0, 67, 41
1, 249366, Control_c, 0, 64, 0
1, 249420, Note_on_c, 0, 77, 0
1, 249420, Note_on_c, 0, 76, 55
1, 249480, Tempo, 903478
1, 249480, Note_on_c, 0, 76, 0
1, 249480, Note_on_c, 0, 67, 0
1, 249480, Note_on_c, 0, 74, 54
1, 249540, Note_on_c, 0, 74, 0
1, 249540, Note_on_c, 0, 72, 54
1, 249600, Tempo, 936330
1, 249600, Note_on_c, 0, 72, 0
1, 249600, Note_on_c, 0, 80, 62
1, 249600, Note_on_c, 0, 60, 43
1, 249636, Control_c, 0, 64, 127
1, 249720, Note_on_c, 0, 60, 0
1, 249720, Note_on_c, 0, 80, 0
1, 249720, Note_on_c, 0, 81, 56
1, 249720, Note_on_c, 0, 65, 37
1, 249840, Note_on_c, 0, 65, 0
1, 249840, Note_on_c, 0, 81, 0
1, 249840, Note_on_c, 0, 81, 60
1, 249840, Note_on_c, 0, 69, 40
1, 249876, Control_c, 0, 64, 0
1, 249900, Note_on_c, 0, 81, 0
1, 249960, Note_on_c, 0, 69, 0
1, 249960, Note_on_c, 0, 81, 56
1, 249960, Note_on_c, 0, 65, 38
1, 250020, Note_on_c, 0, 81, 0
1, 250080, Note_on_c, 0, 65, 0
1, 250080, Note_on_c, 0, 81, 63
1, 250080, Note_on_c, 0, 60, 45
1, 250200, Note_on_c, 0, 60, 0
1, 250200, Note_on_c, 0, 65, 39
1, 250320, Note_on_c, 0, 65, 0
1, 250320, Note_on_c, 0, 81, 0
1, 250320, Note_on_c, 0, 69, 41
1, 250440, Note_on_c, 0, 69, 0
1, 250440, Note_on_c, 0, 65, 40
1, 250560, Tempo, 877193
1, 250560, Note_on_c, 0, 65, 0
1, 250560, Note_on_c, 0, 86, 81
1, 250560, Note_on_c, 0, 59, 62
1, 250560, Note_on_c, 0, 62, 62
1, 250560, Note_on_c, 0, 65, 62
1, 250560, Note_on_c, 0, 67, 62
1, 250620, Note_on_c, 0, 88, 77
1, 250632, Note_on_c, 0, 86, 0
1, 250680, Note_on_c, 0, 89, 81
1, 250692, Note_on_c, 0, 88, 0
1, 250740, Note_on_c, 0, 88, 77
1, 250752, Note_on_c, 0, 89, 0
1, 250800, Note_on_c, 0, 86, 79
1, 250812, Note_on_c, 0, 88, 0
1, 250860, Note_on_c, 0, 84, 73
1, 250872, Note_on_c, 0, 86, 0
1, 250920, Note_on_c, 0, 83, 77
1, 250932, Note_on_c, 0, 84, 0
1, 250980, Note_on_c, 0, 81, 75
1, 250992, Note_on_c, 0, 83, 0
1, 251040, Note_on_c, 0, 79, 78
1, 251052, Note_on_c, 0, 81, 0
1, 251100, Note_on_c, 0, 83, 73
1, 251112, Note_on_c, 0, 79, 0
1, 251160, Note_on_c, 0, 86, 81
1, 251172, Note_on_c, 0, 83, 0
1, 251220, Note_on_c, 0, 84, 74
1, 251232, Note_on_c, 0, 86, 0
1, 251280, Note_on_c, 0, 83, 81
1, 251292, Note_on_c, 0, 84, 0
1, 251340, Note_on_c, 0, 81, 75
1, 251352, Note_on_c, 0, 83, 0
1, 251400, Note_on_c, 0, 79, 81
1, 251412, Note_on_c, 0, 81, 0
1, 251460, Note_on_c, 0, 77, 76
1, 251472, Note_on_c, 0, 79, 0
1, 251520, Tempo, 905934
1, 251520, Note_on_c, 0, 67, 0
1, 251520, Note_on_c, 0, 65, 0
1, 251520, Note_on_c, 0, 59, 0
1, 251520, Note_on_c, 0, 62, 0
1, 251520, Note_on_c, 0, 76, 86
1, 251520, Note_on_c, 0, 60, 61
1, 251532, Note_on_c, 0, 77, 0
1, 251600, Note_on_c, 0, 60, 0
1, 251600, Note_on_c, 0, 64, 57
1, 251640, Note_on_c, 0, 76, 0
1, 251680, Note_on_c, 0, 64, 0
1, 251680, Note_on_c, 0, 72, 53
1, 251760, Note_on_c, 0, 72, 0
1, 251760, Note_on_c, 0, 79, 71
1, 251760, Note_on_c, 0, 62, 61
1, 251776, Control_c, 0, 64, 127
1, 251790, Note_on_c, 0, 79, 0
1, 251790, Note_on_c, 0, 77, 66
1, 251820, Note_on_c, 0, 77, 0
1, 251820, Note_on_c, 0, 79, 71
1, 251840, Note_on_c, 0, 62, 0
1, 251840, Note_on_c, 0, 65, 57
1, 251850, Note_on_c, 0, 79, 0
1, 251850, Note_on_c, 0, 77, 67
1, 251880, Note_on_c, 0, 77, 0
1, 251880, Note_on_c, 0, 76, 81
1, 251920, Note_on_c, 0, 65, 0
1, 251920, Note_on_c, 0, 72, 53
1, 251940, Note_on_c, 0, 76, 0
1, 251940, Note_on_c, 0, 77, 79
1, 252000, Tempo, 866051
1, 252000, Note_on_c, 0, 77, 0
1, 252000, Note_on_c, 0, 72, 0
1, 252000, Note_on_c, 0, 79, 89
1, 252000, Note_on_c, 0, 64, 61
1, 252020, Control_c, 0, 64, 0
1, 252054, Control_c, 0, 64, 127
1, 252080, Note_on_c, 0, 64, 0
1, 252080, Note_on_c, 0, 67, 57
1, 252120, Note_on_c, 0, 79, 0
1, 252160, Note_on_c, 0, 67, 0
1, 252160, Note_on_c, 0, 72, 53
1, 252240, Note_on_c, 0, 72, 0
1, 252240, Note_on_c, 0, 60, 61
1, 252253, Control_c, 0, 64, 0
1, 252288, Control_c, 0, 64, 127
1, 252320, Note_on_c, 0, 60, 0
1, 252320, Note_on_c, 0, 64, 48
1, 252400, Tempo, 989772
1, 252400, Note_on_c, 0, 64, 0
1, 252400, Note_on_c, 0, 81, 53
1, 252400, Note_on_c, 0, 72, 48
1, 252440, Tempo, 866051
1, 252440, Note_on_c, 0, 81, 0
1, 252440, Note_on_c, 0, 83, 49
1, 252480, Note_on_c, 0, 83, 0
1, 252480, Note_on_c, 0, 72, 0
1, 252480, Note_on_c, 0, 84, 61
1, 252480, Note_on_c, 0, 65, 43
1, 252491, Control_c, 0, 64, 0
1, 252519, Control_c, 0, 64, 127
1, 252560, Note_on_c, 0, 65, 0
1, 252560, Note_on_c, 0, 69, 40
1, 252640, Note_on_c, 0, 69, 0
1, 252640, Note_on_c, 0, 72, 38
1, 252717, Note_on_c, 0, 84, 0
1, 252720, Note_on_c, 0, 72, 0
1, 252720, Note_on_c, 0, 84, 56
1, 252720, Note_on_c, 0, 65, 43
1, 252800, Note_on_c, 0, 65, 0
1, 252800, Note_on_c, 0, 69, 40
1, 252880, Note_on_c, 0, 69, 0
1, 252880, Note_on_c, 0, 72, 39
1, 252897, Note_on_c, 0, 84, 0
1, 252900, Note_on_c, 0, 84, 54
1, 252957, Note_on_c, 0, 84, 0
1, 252960, Note_on_c, 0, 72, 0
1, 252960, Note_on_c, 0, 84, 56
1, 252960, Note_on_c, 0, 65, 43
1, 253040, Note_on_c, 0, 65, 0
1, 253040, Note_on_c, 0, 69, 41
1, 253120, Note_on_c, 0, 69, 0
1, 253120, Note_on_c, 0, 72, 40
1, 253200, Tempo, 866051
1, 253200, Note_on_c, 0, 72, 0
1, 253200, Note_on_c, 0, 84, 0
1, 253200, Note_on_c, 0, 83, 55
1, 253200, Note_on_c, 0, 65, 43
1, 253260, Note_on_c, 0, 83, 0
1, 253260, Note_on_c, 0, 81, 50
1, 253280, Note_on_c, 0, 65, 0
1, 253280, Note_on_c, 0, 69, 41
1, 253320, Note_on_c, 0, 81, 0
1, 253320, Note_on_c, 0, 79, 53
1, 253360, Note_on_c, 0, 69, 0
1, 253360, Note_on_c, 0, 72, 40
1, 253380, Note_on_c, 0, 79, 0
1, 253380, Note_on_c, 0, 77, 51
1, 253440, Tempo, 888362
1, 253440, Note_on_c, 0, 77, 0
1, 253440, Note_on_c, 0, 72, 0
1, 253440, Note_on_c, 0, 76, 78
1, 253440, Note_on_c, 0, 60, 57
1, 253456, Control_c, 0, 64, 0
1, 253520, Note_on_c, 0, 60, 0
1, 253520, Note_on_c, 0, 64, 55
1, 253529, Control_c, 0, 64, 127
1, 253560, Note_on_c, 0, 76, 0
1, 253600, Note_on_c, 0, 64, 0
1, 253600, Note_on_c, 0, 72, 50
1, 253680, Note_on_c, 0, 72, 0
1, 253680, Note_on_c, 0, 77, 67
1, 253680, Note_on_c, 0, 62, 57
1, 253696, Control_c, 0, 64, 0
1, 253710, Note_on_c, 0, 77, 0
1, 253710, Note_on_c, 0, 79, 63
1, 253734, Control_c, 0, 64, 127
1, 253740, Note_on_c, 0, 79, 0
1, 253740, Note_on_c, 0, 77, 67
1, 253760, Note_on_c, 0, 62, 0
1, 253760, Note_on_c, 0, 65, 54
1, 253770, Note_on_c, 0, 77, 0
1, 253770, Note_on_c, 0, 79, 63
1, 253800, Note_on_c, 0, 79, 0
1, 253800, Note_on_c, 0, 77, 67
1, 253830, Note_on_c, 0, 77, 0
1, 253840, Note_on_c, 0, 65, 0
1, 253840, Note_on_c, 0, 76, 76
1, 253840, Note_on_c, 0, 72, 51
1, 253880, Note_on_c, 0, 76, 0
1, 253880, Note_on_c, 0, 77, 72
1, 253920, Tempo, 866051
1, 253920, Note_on_c, 0, 77, 0
1, 253920, Note_on_c, 0, 72, 0
1, 253920, Note_on_c, 0, 79, 87
1, 253920, Note_on_c, 0, 64, 57
1, 253928, Control_c, 0, 64, 0
1, 253974, Control_c, 0, 64, 127
1, 254000, Note_on_c, 0, 64, 0
1, 254000, Note_on_c, 0, 67, 54
1, 254040, Note_on_c, 0, 79, 0
1, 254080, Note_on_c, 0, 67, 0
1, 254080, Note_on_c, 0, 72, 51
1, 254160, Note_on_c, 0, 72, 0
1, 254160, Note_on_c, 0, 60, 57
1, 254166, Control_c, 0, 64, 0
1, 254198, Control_c, 0, 64, 127
1, 254240, Note_on_c, 0, 60, 0
1, 254240, Note_on_c, 0, 64, 54
1, 254320, Tempo, 955871
1, 254320, Note_on_c, 0, 64, 0
1, 254320, Note_on_c, 0, 81, 53
1, 254320, Note_on_c, 0, 72, 49
1, 254360, Note_on_c, 0, 81, 0
1, 254360, Note_on_c, 0, 83, 48
1, 254400, Tempo, 866051
1, 254400, Note_on_c, 0, 83, 0
1, 254400, Note_on_c, 0, 72, 0
1, 254400, Note_on_c, 0, 84, 61
1, 254400, Note_on_c, 0, 65, 38
1, 254406, Control_c, 0, 64, 0
1, 254446, Control_c, 0, 64, 127
1, 254480, Note_on_c, 0, 65, 0
1, 254480, Note_on_c, 0, 69, 36
1, 254560, Note_on_c, 0, 69, 0
1, 254560, Note_on_c, 0, 72, 36
1, 254637, Note_on_c, 0, 84, 0
1, 254640, Note_on_c, 0, 72, 0
1, 254640, Note_on_c, 0, 84, 55
1, 254640, Note_on_c, 0, 65, 38
1, 254720, Note_on_c, 0, 65, 0
1, 254720, Note_on_c, 0, 69, 36
1, 254800, Note_on_c, 0, 69, 0
1, 254800, Note_on_c, 0, 72, 36
1, 254817, Note_on_c, 0, 84, 0
1, 254820, Note_on_c, 0, 84, 52
1, 254877, Note_on_c, 0, 84, 0
1, 254880, Note_on_c, 0, 72, 0
1, 254880, Note_on_c, 0, 84, 55
1, 254880, Note_on_c, 0, 65, 43
1, 254960, Note_on_c, 0, 65, 0
1, 254960, Note_on_c, 0, 69, 39
1, 255040, Note_on_c, 0, 69, 0
1, 255040, Note_on_c, 0, 72, 39
1, 255120, Note_on_c, 0, 72, 0
1, 255120, Note_on_c, 0, 84, 0
1, 255120, Note_on_c, 0, 83, 54
1, 255120, Note_on_c, 0, 65, 43
1, 255180, Note_on_c, 0, 83, 0
1, 255180, Note_on_c, 0, 81, 52
1, 255200, Note_on_c, 0, 65, 0
1, 255200, Note_on_c, 0, 69, 40
1, 255240, Note_on_c, 0, 81, 0
1, 255240, Note_on_c, 0, 79, 54
1, 255280, Note_on_c, 0, 69, 0
1, 255280, Note_on_c, 0, 72, 40
1, 255300, Note_on_c, 0, 79, 0
1, 255300, Note_on_c, 0, 77, 53
1, 255360, Tempo, 930233
1, 255360, Note_on_c, 0, 77, 0
1, 255360, Note_on_c, 0, 72, 0
1, 255360, Note_on_c, 0, 76, 83
1, 255360, Note_on_c, 0, 60, 64
1, 255368, Control_c, 0, 64, 0
1, 255420, Note_on_c, 0, 76, 0
1, 255480, Tempo, 866051
1, 255480, Note_on_c, 0, 60, 0
1, 255480, Note_on_c, 0, 84, 78
1, 255540, Note_on_c, 0, 86, 78
1, 255552, Note_on_c, 0, 84, 0
1, 255600, Note_on_c, 0, 88, 81
1, 255612, Note_on_c, 0, 86, 0
1, 255660, Note_on_c, 0, 86, 78
1, 255672, Note_on_c, 0, 88, 0
1, 255720, Note_on_c, 0, 84, 81
1, 255732, Note_on_c, 0, 86, 0
1, 255780, Note_on_c, 0, 83, 78
1, 255792, Note_on_c, 0, 84, 0
1, 255840, Tempo, 866051
1, 255840, Note_on_c, 0, 81, 81
1, 255840, Note_on_c, 0, 53, 64
1, 255852, Note_on_c, 0, 83, 0
1, 255900, Note_on_c, 0, 79, 78
1, 255912, Note_on_c, 0, 81, 0
1, 255920, Tempo, 871586
1, 255960, Note_on_c, 0, 53, 0
1, 255960, Note_on_c, 0, 77, 81
1, 255972, Note_on_c, 0, 79, 0
1, 256000, Tempo, 877193
1, 256020, Note_on_c, 0, 76, 76
1, 256032, Note_on_c, 0, 77, 0
1, 256080, Tempo, 882742
1, 256080, Note_on_c, 0, 74, 81
1, 256092, Note_on_c, 0, 76, 0
1, 256140, Note_on_c, 0, 72, 76
1, 256152, Note_on_c, 0, 74, 0
1, 256160, Tempo, 888362
1, 256200, Note_on_c, 0, 71, 81
1, 256212, Note_on_c, 0, 72, 0
1, 256240, Tempo, 894188
1, 256260, Note_on_c, 0, 69, 73
1, 256272, Note_on_c, 0, 71, 0
1, 256280, Tempo, 899955
1, 256320, Tempo, 982962
1, 256320, Note_on_c, 0, 67, 85
1, 256320, Note_on_c, 0, 55, 60
1, 256332, Note_on_c, 0, 69, 0
1, 256440, Note_on_c, 0, 55, 0
1, 256440, Note_on_c, 0, 67, 0
1, 256560, Tempo, 923930
1, 256560, Note_on_c, 0, 65, 90
1, 256560, Note_on_c, 0, 59, 59
1, 256560, Note_on_c, 0, 62, 59
1, 256560, Note_on_c, 0, 56, 59
1, 256631, Control_c, 0, 64, 127
1, 257040, Note_on_c, 0, 56, 0
1, 257040, Note_on_c, 0, 65, 0
1, 257040, Note_on_c, 0, 59, 0
1, 257040, Note_on_c, 0, 62, 0
1, 257040, Note_on_c, 0, 64, 76
1, 257040, Note_on_c, 0, 57, 51
1, 257040, Note_on_c, 0, 60, 51
1, 257050, Control_c, 0, 64, 0
1, 257280, Note_on_c, 0, 60, 0
1, 257280, Note_on_c, 0, 57, 0
1, 257280, Note_on_c, 0, 64, 0
1, 257280, Note_on_c, 0, 53, 43
1, 257280, Note_on_c, 0, 57, 43
1, 257400, Tempo, 866051
1, 257400, Note_on_c, 0, 62, 55
1, 257460, Note_on_c, 0, 62, 0
1, 257520, Note_on_c, 0, 57, 0
1, 257520, Note_on_c, 0, 53, 0
1, 257520, Note_on_c, 0, 65, 54
1, 257580, Note_on_c, 0, 65, 0
1, 257640, Note_on_c, 0, 69, 53
1, 257700, Note_on_c, 0, 69, 0
1, 257760, Note_on_c, 0, 73, 55
1, 257880, Note_on_c, 0, 73, 0
1, 257880, Note_on_c, 0, 74, 54
1, 258000, Note_on_c, 0, 74, 0
1, 258000, Note_on_c, 0, 77, 55
1, 258120, Note_on_c, 0, 77, 0
1, 258120, Note_on_c, 0, 81, 53
1, 258240, Tempo, 930233
1, 258240, Note_on_c, 0, 81, 0
1, 258240, Note_on_c, 0, 81, 61
1, 258360, Note_on_c, 0, 81, 0
1, 258360, Note_on_c, 0, 72, 55
1, 258477, Note_on_c, 0, 72, 0
1, 258480, Note_on_c, 0, 72, 54
1, 258480, Note_on_c, 0, 55, 44
1, 258480, Note_on_c, 0, 64, 44
1, 258544, Control_c, 0, 64, 127
1, 258720, Tempo, 877193
1, 258720, Note_on_c, 0, 64, 0
1, 258720, Note_on_c, 0, 65, 44
1, 258737, Control_c, 0, 64, 0
1, 258805, Control_c, 0, 64, 127
1, 258960, Tempo, 899955
1, 258960, Note_on_c, 0, 72, 0
1, 258960, Note_on_c, 0, 71, 56
1, 258960, Note_on_c, 0, 76, 56
1, 259080, Note_on_c, 0, 76, 0
1, 259080, Note_on_c, 0, 74, 54
1, 259200, Tempo, 930233
1, 259200, Note_on_c, 0, 74, 0
1, 259200, Note_on_c, 0, 71, 0
1, 259200, Note_on_c, 0, 65, 0
1, 259200, Note_on_c, 0, 55, 0
1, 259200, Note_on_c, 0, 72, 54
1, 259200, Note_on_c, 0, 64, 46
1, 259200, Note_on_c, 0, 60, 46
1, 259205, Control_c, 0, 64, 0
1, 259320, Note_on_c, 0, 60, 0
1, 259440, Note_on_c, 0, 64, 0
1, 259440, Note_on_c, 0, 72, 0
1, 259440, Note_on_c, 0, 48, 44
1, 259560, Note_on_c, 0, 48, 0
1, 259680, Tempo, 866051
1, 259680, Note_on_c, 0, 79, 76
1, 259800, Note_on_c, 0, 79, 0
1, 259800, Note_on_c, 0, 76, 72
1, 259920, Note_on_c, 0, 76, 0
1, 259920, Note_on_c, 0, 84, 57
1, 260040, Tempo, 877193
1, 260040, Note_on_c, 0, 84, 0
1, 260040, Note_on_c, 0, 83, 53
1, 260100, Note_on_c, 0, 83, 0
1, 260160, Note_on_c, 0, 81, 51
1, 260220, Note_on_c, 0, 81, 0
1, 260280, Note_on_c, 0, 79, 49
1, 260340, Note_on_c, 0, 79, 0
1, 260400, Note_on_c, 0, 77, 54
1, 260460, Note_on_c, 0, 77, 0
1, 260520, Note_on_c, 0, 76, 50
1, 260580, Note_on_c, 0, 76, 0
1, 260640, Tempo, 888362
1, 260640, Note_on_c, 0, 74, 53
1, 260760, Note_on_c, 0, 74, 0
1, 260880, Note_on_c, 0, 76, 54
1, 261000, Note_on_c, 0, 76, 0
1, 261120, Tempo, 894188
1, 261120, Note_on_c, 0, 79, 58
1, 261240, Note_on_c, 0, 79, 0
1, 261240, Note_on_c, 0, 78, 54
1, 261360, Note_on_c, 0, 78, 0
1, 261360, Note_on_c, 0, 77, 54
1, 261360, Note_on_c, 0, 67, 43
1, 261360, Note_on_c, 0, 59, 43
1, 261480, Note_on_c, 0, 77, 0
1, 261600, Tempo, 866051
1, 261600, Note_on_c, 0, 59, 0
1, 261600, Note_on_c, 0, 76, 51
1, 261600, Note_on_c, 0, 60, 43
1, 261720, Note_on_c, 0, 76, 0
1, 261720, Note_on_c, 0, 77, 54
1, 261840, Note_on_c, 0, 77, 0
1, 261840, Note_on_c, 0, 60, 0
1, 261840, Note_on_c, 0, 67, 0
1, 261840, Note_on_c, 0, 79, 57
1, 261960, Note_on_c, 0, 79, 0
1, 261960, Note_on_c, 0, 80, 59
1, 262020, Note_on_c, 0, 80, 0
1, 262080, Tempo, 888362
1, 262080, Note_on_c, 0, 81, 49
1, 262080, Note_on_c, 0, 53, 43
1, 262080, Note_on_c, 0, 60, 43
1, 262106, Control_c, 0, 64, 127
1, 262116, Note_on_c, 0, 81, 0
1, 262116, Note_on_c, 0, 83, 51
1, 262152, Note_on_c, 0, 83, 0
1, 262152, Note_on_c, 0, 81, 54
1, 262188, Note_on_c, 0, 81, 0
1, 262188, Note_on_c, 0, 83, 56
1, 262224, Note_on_c, 0, 83, 0
1, 262224, Note_on_c, 0, 81, 58
1, 262260, Tempo, 866051
1, 262260, Note_on_c, 0, 81, 0
1, 262260, Note_on_c, 0, 83, 62
1, 262320, Note_on_c, 0, 83, 0
1, 262320, Note_on_c, 0, 84, 68
1, 262380, Note_on_c, 0, 84, 0
1, 262440, Note_on_c, 0, 83, 61
1, 262450, Control_c, 0, 64, 0
1, 262500, Note_on_c, 0, 83, 0
1, 262560, Tempo, 866051
1, 262560, Note_on_c, 0, 60, 0
1, 262560, Note_on_c, 0, 53, 0
1, 262560, Note_on_c, 0, 81, 62
1, 262620, Note_on_c, 0, 81, 0
1, 262680, Note_on_c, 0, 79, 57
1, 262720, Tempo, 871586
1, 262740, Note_on_c, 0, 79, 0
1, 262800, Note_on_c, 0, 77, 60
1, 262800, Note_on_c, 0, 54, 40
1, 262800, Note_on_c, 0, 57, 40
1, 262860, Note_on_c, 0, 77, 0
1, 262880, Tempo, 877193
1, 262920, Tempo, 936330
1, 262920, Note_on_c, 0, 76, 57
1, 262980, Note_on_c, 0, 76, 0
1, 263000, Tempo, 882742
1, 263040, Tempo, 899955
1, 263040, Note_on_c, 0, 57, 0
1, 263040, Note_on_c, 0, 54, 0
1, 263040, Note_on_c, 0, 79, 64
1, 263040, Note_on_c, 0, 60, 43
1, 263040, Note_on_c, 0, 55, 43
1, 263094, Control_c, 0, 64, 127
1, 263220, Note_on_c, 0, 79, 0
1, 263220, Note_on_c, 0, 76, 61
1, 263280, Note_on_c, 0, 76, 0
1, 263280, Note_on_c, 0, 60, 0
1, 263280, Note_on_c, 0, 74, 61
1, 263280, Note_on_c, 0, 59, 40
1, 263293, Control_c, 0, 64, 0
1, 263400, Note_on_c, 0, 74, 0
1, 263520, Tempo, 866051
1, 263520, Note_on_c, 0, 59, 0
1, 263520, Note_on_c, 0, 55, 0
1, 263520, Note_on_c, 0, 79, 86
1, 263520, Note_on_c, 0, 67, 77
1, 263700, Note_on_c, 0, 67, 0
1, 263700, Note_on_c, 0, 79, 0
1, 263700, Note_on_c, 0, 81, 81
1, 263700, Note_on_c, 0, 69, 68
1, 263730, Note_on_c, 0, 69, 0
1, 263730, Note_on_c, 0, 81, 0
1, 263730, Note_on_c, 0, 83, 76
1, 263730, Note_on_c, 0, 71, 63
1, 263760, Note_on_c, 0, 71, 0
1, 263760, Note_on_c, 0, 83, 0
1, 263760, Note_on_c, 0, 84, 85
1, 263760, Note_on_c, 0, 72, 69
1, 263880, Note_on_c, 0, 72, 0
1, 263880, Note_on_c, 0, 84, 0
1, 263880, Note_on_c, 0, 83, 62
1, 263880, Note_on_c, 0, 71, 56
1, 263940, Note_on_c, 0, 71, 0
1, 263940, Note_on_c, 0, 83, 0
1, 264000, Note_on_c, 0, 81, 62
1, 264000, Note_on_c, 0, 69, 56
1, 264060, Note_on_c, 0, 69, 0
1, 264060, Note_on_c, 0, 81, 0
1, 264120, Note_on_c, 0, 79, 60
1, 264120, Note_on_c, 0, 67, 52
1, 264180, Note_on_c, 0, 67, 0
1, 264180, Note_on_c, 0, 79, 0
1, 264240, Note_on_c, 0, 77, 62
1, 264240, Note_on_c, 0, 65, 56
1, 264300, Note_on_c, 0, 65, 0
1, 264300, Note_on_c, 0, 77, 0
1, 264360, Note_on_c, 0, 76, 59
1, 264360, Note_on_c, 0, 64, 52
1, 264420, Note_on_c, 0, 64, 0
1, 264420, Note_on_c, 0, 76, 0
1, 264480, Tempo, 882742
1, 264480, Note_on_c, 0, 74, 63
1, 264480, Note_on_c, 0, 62, 57
1, 264600, Note_on_c, 0, 62, 0
1, 264600, Note_on_c, 0, 74, 0
1, 264720, Note_on_c, 0, 76, 70
1, 264720, Note_on_c, 0, 64, 62
1, 264840, Note_on_c, 0, 64, 0
1, 264840, Note_on_c, 0, 76, 0
1, 264920, Tempo, 882742
1, 264960, Tempo, 882742
1, 264960, Note_on_c, 0, 77, 72
1, 264960, Note_on_c, 0, 65, 67
1, 265080, Note_on_c, 0, 65, 0
1, 265080, Note_on_c, 0, 77, 0
1, 265160, Tempo, 888362
1, 265200, Note_on_c, 0, 78, 78
1, 265200, Note_on_c, 0, 66, 69
1, 265320, Note_on_c, 0, 66, 0
1, 265320, Note_on_c, 0, 78, 0
1, 265360, Tempo, 894188
1, 265440, Note_on_c, 0, 79, 79
1, 265440, Note_on_c, 0, 67, 70
1, 265560, Tempo, 899955
1, 265560, Note_on_c, 0, 67, 0
1, 265560, Note_on_c, 0, 79, 0
1, 265680, Note_on_c, 0, 80, 82
1, 265680, Note_on_c, 0, 68, 72
1, 265760, Tempo, 905934
1, 265800, Note_on_c, 0, 68, 0
1, 265800, Note_on_c, 0, 80, 0
1, 265920, Tempo, 911854
1, 265920, Note_on_c, 0, 81, 85
1, 265920, Note_on_c, 0, 69, 77
1, 265973, Control_c, 0, 64, 127
1, 266100, Tempo, 866051
1, 266100, Note_on_c, 0, 81, 0
1, 266100, Note_on_c, 0, 69, 79
1, 266160, Tempo, 871586
1, 266160, Note_on_c, 0, 69, 0
1, 266160, Note_on_c, 0, 69, 0
1, 266160, Note_on_c, 0, 77, 84
1, 266160, Note_on_c, 0, 53, 48
1, 266160, Note_on_c, 0, 62, 48
1, 266170, Control_c, 0, 64, 0
1, 266200, Tempo, 877193
1, 266210, Control_c, 0, 64, 127
1, 266260, Tempo, 882742
1, 266300, Tempo, 888362
1, 266340, Note_on_c, 0, 77, 0
1, 266340, Note_on_c, 0, 74, 81
1, 266360, Tempo, 894188
1, 266400, Tempo, 899955
1, 266400, Note_on_c, 0, 74, 0
1, 266400, Note_on_c, 0, 62, 0
1, 266400, Note_on_c, 0, 53, 0
1, 266400, Note_on_c, 0, 72, 77
1, 266400, Note_on_c, 0, 55, 48
1, 266400, Note_on_c, 0, 64, 48
1, 266414, Control_c, 0, 64, 0
1, 266492, Control_c, 0, 64, 127
1, 266610, Note_on_c, 0, 76, 64
1, 266640, Tempo, 866051
1, 266640, Note_on_c, 0, 76, 0
1, 266640, Note_on_c, 0, 64, 0
1, 266640, Note_on_c, 0, 72, 0
1, 266640, Note_on_c, 0, 74, 71
1, 266640, Note_on_c, 0, 71, 71
1, 266640, Note_on_c, 0, 65, 48
1, 266656, Control_c, 0, 64, 0
1, 266697, Control_c, 0, 64, 127
1, 266880, Tempo, 894188
1, 266880, Note_on_c, 0, 65, 0
1, 266880, Note_on_c, 0, 55, 0
1, 266880, Note_on_c, 0, 74, 0
1, 266880, Note_on_c, 0, 71, 0
1, 266880, Note_on_c, 0, 72, 71
1, 266880, Note_on_c, 0, 60, 60
1, 266886, Control_c, 0, 64, 0
1, 266937, Control_c, 0, 64, 127
1, 267000, Note_on_c, 0, 60, 0
1, 267000, Note_on_c, 0, 64, 52
1, 267120, Tempo, 866051
1, 267120, Note_on_c, 0, 64, 0
1, 267120, Note_on_c, 0, 72, 0
1, 267120, Note_on_c, 0, 67, 57
1, 267180, Note_on_c, 0, 72, 64
1, 267240, Note_on_c, 0, 72, 0
1, 267240, Note_on_c, 0, 67, 0
1, 267240, Note_on_c, 0, 74, 65
1, 267240, Note_on_c, 0, 64, 53
1, 267300, Note_on_c, 0, 74, 0
1, 267300, Note_on_c, 0, 76, 66
1, 267360, Tempo, 956633
1, 267360, Note_on_c, 0, 76, 0
1, 267360, Note_on_c, 0, 64, 0
1, 267360, Note_on_c, 0, 77, 68
1, 267360, Note_on_c, 0, 60, 60
1, 267376, Control_c, 0, 64, 0
1, 267390, Note_on_c, 0, 77, 0
1, 267390, Note_on_c, 0, 79, 68
1, 267420, Tempo, 912964
1, 267420, Note_on_c, 0, 79, 0
1, 267420, Note_on_c, 0, 77, 59
1, 267423, Control_c, 0, 64, 127
1, 267450, Note_on_c, 0, 77, 0
1, 267450, Note_on_c, 0, 76, 70
1, 267480, Tempo, 860585
1, 267480, Note_on_c, 0, 60, 0
1, 267480, Note_on_c, 0, 77, 71
1, 267480, Note_on_c, 0, 65, 53
1, 267510, Note_on_c, 0, 76, 0
1, 267540, Note_on_c, 0, 77, 0
1, 267540, Note_on_c, 0, 79, 72
1, 267600, Tempo, 941620
1, 267600, Note_on_c, 0, 79, 0
1, 267600, Note_on_c, 0, 65, 0
1, 267600, Note_on_c, 0, 81, 66
1, 267600, Note_on_c, 0, 69, 57
1, 267616, Control_c, 0, 64, 0
1, 267625, Note_on_c, 0, 81, 0
1, 267630, Note_on_c, 0, 83, 65
1, 267644, Control_c, 0, 64, 127
1, 267655, Note_on_c, 0, 83, 0
1, 267660, Tempo, 927070
1, 267660, Note_on_c, 0, 81, 70
1, 267690, Note_on_c, 0, 79, 75
1, 267720, Tempo, 860585
1, 267720, Note_on_c, 0, 81, 0
1, 267720, Note_on_c, 0, 69, 0
1, 267720, Note_on_c, 0, 81, 76
1, 267720, Note_on_c, 0, 65, 51
1, 267750, Note_on_c, 0, 79, 0
1, 267780, Note_on_c, 0, 81, 0
1, 267780, Note_on_c, 0, 83, 78
1, 267840, Tempo, 899955
1, 267840, Note_on_c, 0, 83, 0
1, 267840, Note_on_c, 0, 65, 0
1, 267840, Note_on_c, 0, 84, 87
1, 267840, Note_on_c, 0, 60, 60
1, 267847, Control_c, 0, 64, 0
1, 267900, Note_on_c, 0, 84, 0
1, 267960, Note_on_c, 0, 60, 0
1, 267960, Note_on_c, 0, 84, 84
1, 267960, Note_on_c, 0, 64, 47
1, 268020, Note_on_c, 0, 84, 0
1, 268080, Tempo, 866051
1, 268080, Note_on_c, 0, 64, 0
1, 268080, Note_on_c, 0, 67, 54
1, 268093, Control_c, 0, 64, 127
1, 268140, Note_on_c, 0, 72, 63
1, 268200, Note_on_c, 0, 72, 0
1, 268200, Note_on_c, 0, 67, 0
1, 268200, Note_on_c, 0, 74, 65
1, 268200, Note_on_c, 0, 64, 49
1, 268260, Note_on_c, 0, 74, 0
1, 268260, Note_on_c, 0, 76, 66
1, 268320, Tempo, 956633
1, 268320, Note_on_c, 0, 76, 0
1, 268320, Note_on_c, 0, 64, 0
1, 268320, Note_on_c, 0, 77, 68
1, 268320, Note_on_c, 0, 60, 60
1, 268329, Control_c, 0, 64, 0
1, 268350, Note_on_c, 0, 77, 0
1, 268350, Note_on_c, 0, 79, 68
1, 268361, Control_c, 0, 64, 127
1, 268380, Tempo, 912964
1, 268380, Note_on_c, 0, 79, 0
1, 268380, Note_on_c, 0, 77, 59
1, 268410, Note_on_c, 0, 77, 0
1, 268410, Note_on_c, 0, 76, 70
1, 268440, Tempo, 860585
1, 268440, Note_on_c, 0, 60, 0
1, 268440, Note_on_c, 0, 77, 71
1, 268440, Note_on_c, 0, 65, 53
1, 268470, Note_on_c, 0, 76, 0
1, 268500, Note_on_c, 0, 77, 0
1, 268500, Note_on_c, 0, 79, 72
1, 268560, Tempo, 941620
1, 268560, Note_on_c, 0, 79, 0
1, 268560, Note_on_c, 0, 65, 0
1, 268560, Note_on_c, 0, 81, 66
1, 268560, Note_on_c, 0, 69, 57
1, 268570, Control_c, 0, 64, 0
1, 268585, Note_on_c, 0, 81, 0
1, 268590, Note_on_c, 0, 83, 65
1, 268611, Control_c, 0, 64, 127
1, 268615, Note_on_c, 0, 83, 0
1, 268620, Tempo, 927070
1, 268620, Note_on_c, 0, 81, 70
1, 268650, Note_on_c, 0, 79, 75
1, 268680, Tempo, 860585
1, 268680, Note_on_c, 0, 81, 0
1, 268680, Note_on_c, 0, 69, 0
1, 268680, Note_on_c, 0, 81, 76
1, 268680, Note_on_c, 0, 65, 52
1, 268710, Note_on_c, 0, 79, 0
1, 268740, Note_on_c, 0, 81, 0
1, 268740, Note_on_c, 0, 83, 78
1, 268800, Note_on_c, 0, 83, 0
1, 268800, Note_on_c, 0, 65, 0
1, 268800, Note_on_c, 0, 84, 88
1, 268800, Note_on_c, 0, 67, 58
1, 268800, Note_on_c, 0, 64, 58
1, 268800, Note_on_c, 0, 60, 58
1, 268814, Control_c, 0, 64, 0
1, 268860, Note_on_c, 0, 84, 0
1, 268920, Note_on_c, 0, 84, 86
1, 268980, Note_on_c, 0, 84, 0
1, 269040, Tempo, 866051
1, 269040, Note_on_c, 0, 60, 0
1, 269040, Note_on_c, 0, 64, 0
1, 269040, Note_on_c, 0, 67, 0
1, 269040, Note_on_c, 0, 67, 46
1, 269040, Note_on_c, 0, 65, 46
1, 269100, Note_on_c, 0, 79, 55
1, 269104, Control_c, 0, 64, 127
1, 269160, Note_on_c, 0, 79, 0
1, 269160, Note_on_c, 0, 83, 58
1, 269220, Note_on_c, 0, 83, 0
1, 269220, Note_on_c, 0, 79, 55
1, 269280, Tempo, 888362
1, 269280, Note_on_c, 0, 79, 0
1, 269280, Note_on_c, 0, 65, 0
1, 269280, Note_on_c, 0, 84, 59
1, 269280, Note_on_c, 0, 64, 44
1, 269286, Control_c, 0, 64, 0
1, 269340, Note_on_c, 0, 84, 0
1, 269400, Note_on_c, 0, 84, 59
1, 269460, Note_on_c, 0, 84, 0
1, 269520, Tempo, 866051
1, 269520, Note_on_c, 0, 64, 0
1, 269520, Note_on_c, 0, 67, 0
1, 269520, Note_on_c, 0, 67, 43
1, 269520, Note_on_c, 0, 65, 43
1, 269577, Control_c, 0, 64, 127
1, 269580, Note_on_c, 0, 79, 54
1, 269640, Note_on_c, 0, 79, 0
1, 269640, Note_on_c, 0, 83, 57
1, 269700, Note_on_c, 0, 83, 0
1, 269700, Note_on_c, 0, 79, 54
1, 269760, Tempo, 888362
1, 269760, Note_on_c, 0, 79, 0
1, 269760, Note_on_c, 0, 65, 0
1, 269760, Note_on_c, 0, 84, 59
1, 269760, Note_on_c, 0, 64, 45
1, 269783, Control_c, 0, 64, 0
1, 269820, Note_on_c, 0, 84, 0
1, 269880, Note_on_c, 0, 84, 66
1, 269940, Note_on_c, 0, 84, 0
1, 270000, Tempo, 866051
1, 270000, Note_on_c, 0, 64, 0
1, 270000, Note_on_c, 0, 67, 0
1, 270000, Note_on_c, 0, 65, 52
1, 270000, Note_on_c, 0, 67, 52
1, 270007, Control_c, 0, 64, 127
1, 270060, Note_on_c, 0, 79, 67
1, 270120, Note_on_c, 0, 79, 0
1, 270120, Note_on_c, 0, 67, 0
1, 270120, Note_on_c, 0, 65, 0
1, 270120, Note_on_c, 0, 83, 71
1, 270120, Note_on_c, 0, 65, 52
1, 270120, Note_on_c, 0, 67, 54
1, 270180, Note_on_c, 0, 83, 0
1, 270180, Note_on_c, 0, 79, 68
1, 270240, Tempo, 866051
1, 270240, Note_on_c, 0, 79, 0
1, 270240, Note_on_c, 0, 67, 0
1, 270240, Note_on_c, 0, 65, 0
1, 270240, Note_on_c, 0, 84, 75
1, 270240, Note_on_c, 0, 64, 52
1, 270240, Note_on_c, 0, 67, 57
1, 270253, Control_c, 0, 64, 0
1, 270286, Control_c, 0, 64, 127
1, 270300, Note_on_c, 0, 84, 0
1, 270300, Note_on_c, 0, 79, 72
1, 270320, Tempo, 871586
1, 270360, Note_on_c, 0, 79, 0
1, 270360, Note_on_c, 0, 67, 0
1, 270360, Note_on_c, 0, 64, 0
1, 270360, Note_on_c, 0, 84, 79
1, 270360, Note_on_c, 0, 64, 52
1, 270360, Note_on_c, 0, 67, 60
1, 270400, Tempo, 877193
1, 270420, Note_on_c, 0, 84, 0
1, 270420, Note_on_c, 0, 79, 75
1, 270480, Tempo, 882742
1, 270480, Note_on_c, 0, 79, 0
1, 270480, Note_on_c, 0, 67, 0
1, 270480, Note_on_c, 0, 64, 0
1, 270480, Note_on_c, 0, 86, 83
1, 270480, Note_on_c, 0, 59, 52
1, 270480, Note_on_c, 0, 67, 62
1, 270494, Control_c, 0, 64, 0
1, 270520, Tempo, 888362
1, 270533, Control_c, 0, 64, 127
1, 270540, Note_on_c, 0, 86, 0
1, 270540, Note_on_c, 0, 79, 81
1, 270600, Tempo, 894188
1, 270600, Note_on_c, 0, 79, 0
1, 270600, Note_on_c, 0, 67, 0
1, 270600, Note_on_c, 0, 59, 0
1, 270600, Note_on_c, 0, 86, 88
1, 270600, Note_on_c, 0, 59, 52
1, 270600, Note_on_c, 0, 67, 65
1, 270660, Note_on_c, 0, 86, 0
1, 270660, Note_on_c, 0, 79, 83
1, 270680, Tempo, 899955
1, 270720, Tempo, 905934
1, 270720, Note_on_c, 0, 79, 0
1, 270720, Note_on_c, 0, 67, 0
1, 270720, Note_on_c, 0, 59, 0
1, 270720, Note_on_c, 0, 88, 91
1, 270720, Note_on_c, 0, 60, 67
1, 270720, Note_on_c, 0, 67, 67
1, 270730, Control_c, 0, 64, 0
1, 270784, Control_c, 0, 64, 127
1, 270840, Note_on_c, 0, 88, 0
1, 270840, Note_on_c, 0, 84, 80
1, 270960, Note_on_c, 0, 84, 0
1, 270960, Note_on_c, 0, 67, 0
1, 270960, Note_on_c, 0, 60, 0
1, 270960, Note_on_c, 0, 79, 82
1, 271080, Note_on_c, 0, 79, 0
1, 271080, Note_on_c, 0, 84, 79
1, 271200, Note_on_c, 0, 84, 0
1, 271200, Note_on_c, 0, 76, 78
1, 271320, Note_on_c, 0, 76, 0
1, 271320, Note_on_c, 0, 79, 71
1, 271440, Note_on_c, 0, 79, 0
1, 271440, Note_on_c, 0, 72, 72
1, 271560, Note_on_c, 0, 72, 0
1, 271560, Note_on_c, 0, 76, 69
1, 271680, Tempo, 882742
1, 271680, Note_on_c, 0, 76, 0
1, 271680, Note_on_c, 0, 69, 60
1, 271690, Control_c, 0, 64, 0
1, 271734, Control_c, 0, 64, 127
1, 271800, Note_on_c, 0, 69, 0
1, 271800, Note_on_c, 0, 81, 60
1, 271920, Note_on_c, 0, 81, 0
1, 271920, Note_on_c, 0, 79, 63
1, 271920, Note_on_c, 0, 53, 44
1, 271920, Note_on_c, 0, 57, 44
1, 271920, Note_on_c, 0, 62, 44
1, 271930, Control_c, 0, 64, 0
1, 271968, Control_c, 0, 64, 127
1, 271980, Note_on_c, 0, 79, 0
1, 271980, Note_on_c, 0, 77, 58
1, 272040, Note_on_c, 0, 77, 0
1, 272040, Note_on_c, 0, 76, 63
1, 272100, Note_on_c, 0, 76, 0
1, 272100, Note_on_c, 0, 74, 58
1, 272160, Tempo, 905934
1, 272160, Note_on_c, 0, 74, 0
1, 272160, Note_on_c, 0, 62, 0
1, 272160, Note_on_c, 0, 57, 0
1, 272160, Note_on_c, 0, 53, 0
1, 272160, Note_on_c, 0, 72, 63
1, 272160, Note_on_c, 0, 55, 44
1, 272160, Note_on_c, 0, 64, 44
1, 272160, Note_on_c, 0, 60, 44
1, 272173, Control_c, 0, 64, 0
1, 272252, Control_c, 0, 64, 127
1, 272400, Note_on_c, 0, 60, 0
1, 272400, Note_on_c, 0, 64, 0
1, 272400, Note_on_c, 0, 72, 0
1, 272400, Note_on_c, 0, 71, 60
1, 272400, Note_on_c, 0, 62, 43
1, 272400, Note_on_c, 0, 65, 43
1, 272415, Control_c, 0, 64, 0
1, 272432, Note_on_c, 0, 71, 0
1, 272432, Note_on_c, 0, 72, 63
1, 272448, Control_c, 0, 64, 127
1, 272464, Note_on_c, 0, 72, 0
1, 272464, Note_on_c, 0, 71, 60
1, 272496, Note_on_c, 0, 71, 0
1, 272496, Note_on_c, 0, 72, 63
1, 272528, Note_on_c, 0, 72, 0
1, 272528, Note_on_c, 0, 71, 63
1, 272560, Note_on_c, 0, 71, 0
1, 272560, Note_on_c, 0, 69, 63
1, 272600, Note_on_c, 0, 69, 0
1, 272600, Note_on_c, 0, 71, 60
1, 272640, Tempo, 894188
1, 272640, Note_on_c, 0, 71, 0
1, 272640, Note_on_c, 0, 55, 0
1, 272640, Note_on_c, 0, 62, 0
1, 272640, Note_on_c, 0, 65, 0
1, 272640, Note_on_c, 0, 72, 71
1, 272640, Note_on_c, 0, 60, 60
1, 272644, Control_c, 0, 64, 0
1, 272688, Control_c, 0, 64, 127
1, 272760, Note_on_c, 0, 60, 0
1, 272760, Note_on_c, 0, 64, 52
1, 272880, Tempo, 866051
1, 272880, Note_on_c, 0, 64, 0
1, 272880, Note_on_c, 0, 72, 0
1, 272880, Note_on_c, 0, 67, 57
1, 272940, Note_on_c, 0, 72, 64
1, 273000, Note_on_c, 0, 72, 0
1, 273000, Note_on_c, 0, 67, 0
1, 273000, Note_on_c, 0, 74, 65
1, 273000, Note_on_c, 0, 64, 52
1, 273060, Note_on_c, 0, 74, 0
1, 273060, Note_on_c, 0, 76, 66
1, 273120, Tempo, 956633
1, 273120, Note_on_c, 0, 76, 0
1, 273120, Note_on_c, 0, 64, 0
1, 273120, Note_on_c, 0, 77, 68
1, 273120, Note_on_c, 0, 60, 60
1, 273130, Control_c, 0, 64, 0
1, 273150, Note_on_c, 0, 77, 0
1, 273150, Note_on_c, 0, 79, 68
1, 273168, Control_c, 0, 64, 127
1, 273180, Tempo, 912964
1, 273180, Note_on_c, 0, 79, 0
1, 273180, Note_on_c, 0, 77, 59
1, 273210, Note_on_c, 0, 77, 0
1, 273210, Note_on_c, 0, 76, 70
1, 273240, Tempo, 860585
1, 273240, Note_on_c, 0, 60, 0
1, 273240, Note_on_c, 0, 77, 71
1, 273240, Note_on_c, 0, 65, 53
1, 273270, Note_on_c, 0, 76, 0
1, 273300, Note_on_c, 0, 77, 0
1, 273300, Note_on_c, 0, 79, 72
1, 273360, Tempo, 941620
1, 273360, Note_on_c, 0, 79, 0
1, 273360, Note_on_c, 0, 65, 0
1, 273360, Note_on_c, 0, 81, 66
1, 273360, Note_on_c, 0, 69, 57
1, 273373, Control_c, 0, 64, 0
1, 273385, Note_on_c, 0, 81, 0
1, 273390, Note_on_c, 0, 83, 65
1, 273411, Control_c, 0, 64, 127
1, 273415, Note_on_c, 0, 83, 0
1, 273420, Tempo, 927070
1, 273420, Note_on_c, 0, 81, 70
1, 273450, Note_on_c, 0, 79, 75
1, 273480, Tempo, 860585
1, 273480, Note_on_c, 0, 81, 0
1, 273480, Note_on_c, 0, 69, 0
1, 273480, Note_on_c, 0, 81, 76
1, 273480, Note_on_c, 0, 65, 57
1, 273510, Note_on_c, 0, 79, 0
1, 273540, Note_on_c, 0, 81, 0
1, 273540, Note_on_c, 0, 83, 78
1, 273600, Note_on_c, 0, 83, 0
1, 273600, Note_on_c, 0, 65, 0
1, 273600, Note_on_c, 0, 84, 84
1, 273600, Note_on_c, 0, 60, 60
1, 273611, Control_c, 0, 64, 0
1, 273660, Note_on_c, 0, 84, 0
1, 273720, Note_on_c, 0, 60, 0
1, 273720, Note_on_c, 0, 84, 81
1, 273720, Note_on_c, 0, 64, 52
1, 273780, Note_on_c, 0, 84, 0
1, 273840, Tempo, 866051
1, 273840, Note_on_c, 0, 64, 0
1, 273840, Note_on_c, 0, 67, 57
1, 273859, Control_c, 0, 64, 127
1, 273900, Note_on_c, 0, 72, 63
1, 273960, Note_on_c, 0, 72, 0
1, 273960, Note_on_c, 0, 67, 0
1, 273960, Note_on_c, 0, 74, 65
1, 273960, Note_on_c, 0, 64, 51
1, 274020, Note_on_c, 0, 74, 0
1, 274020, Note_on_c, 0, 76, 66
1, 274080, Tempo, 956633
1, 274080, Note_on_c, 0, 76, 0
1, 274080, Note_on_c, 0, 64, 0
1, 274080, Note_on_c, 0, 77, 68
1, 274080, Note_on_c, 0, 60, 60
1, 274096, Control_c, 0, 64, 0
1, 274110, Note_on_c, 0, 77, 0
1, 274110, Note_on_c, 0, 79, 68
1, 274137, Control_c, 0, 64, 127
1, 274140, Tempo, 912964
1, 274140, Note_on_c, 0, 79, 0
1, 274140, Note_on_c, 0, 77, 59
1, 274170, Note_on_c, 0, 77, 0
1, 274170, Note_on_c, 0, 76, 70
1, 274200, Tempo, 860585
1, 274200, Note_on_c, 0, 60, 0
1, 274200, Note_on_c, 0, 77, 71
1, 274200, Note_on_c, 0, 65, 53
1, 274230, Note_on_c, 0, 76, 0
1, 274260, Note_on_c, 0, 77, 0
1, 274260, Note_on_c, 0, 79, 72
1, 274320, Tempo, 941620
1, 274320, Note_on_c, 0, 79, 0
1, 274320, Note_on_c, 0, 65, 0
1, 274320, Note_on_c, 0, 81, 66
1, 274320, Note_on_c, 0, 69, 57
1, 274330, Control_c, 0, 64, 0
1, 274345, Note_on_c, 0, 81, 0
1, 274350, Note_on_c, 0, 83, 65
1, 274358, Control_c, 0, 64, 127
1, 274375, Note_on_c, 0, 83, 0
1, 274380, Tempo, 927070
1, 274380, Note_on_c, 0, 81, 70
1, 274410, Note_on_c, 0, 79, 75
1, 274440, Tempo, 860585
1, 274440, Note_on_c, 0, 81, 0
1, 274440, Note_on_c, 0, 69, 0
1, 274440, Note_on_c, 0, 81, 76
1, 274440, Note_on_c, 0, 65, 51
1, 274470, Note_on_c, 0, 79, 0
1, 274500, Note_on_c, 0, 81, 0
1, 274500, Note_on_c, 0, 83, 78
1, 274560, Note_on_c, 0, 83, 0
1, 274560, Note_on_c, 0, 65, 0
1, 274560, Note_on_c, 0, 84, 84
1, 274560, Note_on_c, 0, 67, 60
1, 274560, Note_on_c, 0, 64, 60
1, 274560, Note_on_c, 0, 60, 60
1, 274573, Control_c, 0, 64, 0
1, 274620, Note_on_c, 0, 84, 0
1, 274680, Note_on_c, 0, 84, 80
1, 274740, Note_on_c, 0, 84, 0
1, 274800, Tempo, 866051
1, 274800, Note_on_c, 0, 60, 0
1, 274800, Note_on_c, 0, 64, 0
1, 274800, Note_on_c, 0, 67, 0
1, 274800, Note_on_c, 0, 67, 46
1, 274800, Note_on_c, 0, 65, 46
1, 274828, Control_c, 0, 64, 127
1, 274860, Note_on_c, 0, 79, 55
1, 274920, Note_on_c, 0, 79, 0
1, 274920, Note_on_c, 0, 83, 59
1, 274980, Note_on_c, 0, 83, 0
1, 274980, Note_on_c, 0, 79, 55
1, 275040, Tempo, 888362
1, 275040, Note_on_c, 0, 79, 0
1, 275040, Note_on_c, 0, 65, 0
1, 275040, Note_on_c, 0, 84, 59
1, 275040, Note_on_c, 0, 64, 44
1, 275055, Control_c, 0, 64, 0
1, 275100, Note_on_c, 0, 84, 0
1, 275160, Note_on_c, 0, 84, 59
1, 275220, Note_on_c, 0, 84, 0
1, 275280, Tempo, 866051
1, 275280, Note_on_c, 0, 64, 0
1, 275280, Note_on_c, 0, 67, 0
1, 275280, Note_on_c, 0, 67, 42
1, 275280, Note_on_c, 0, 65, 42
1, 275340, Note_on_c, 0, 79, 54
1, 275358, Control_c, 0, 64, 127
1, 275400, Note_on_c, 0, 79, 0
1, 275400, Note_on_c, 0, 83, 56
1, 275460, Note_on_c, 0, 83, 0
1, 275460, Note_on_c, 0, 79, 54
1, 275520, Tempo, 888362
1, 275520, Note_on_c, 0, 79, 0
1, 275520, Note_on_c, 0, 65, 0
1, 275520, Note_on_c, 0, 84, 59
1, 275520, Note_on_c, 0, 64, 45
1, 275530, Control_c, 0, 64, 0
1, 275580, Note_on_c, 0, 84, 0
1, 275640, Note_on_c, 0, 84, 59
1, 275700, Note_on_c, 0, 84, 0
1, 275760, Tempo, 866051
1, 275760, Note_on_c, 0, 64, 0
1, 275760, Note_on_c, 0, 67, 0
1, 275760, Note_on_c, 0, 65, 52
1, 275760, Note_on_c, 0, 67, 52
1, 275792, Control_c, 0, 64, 127
1, 275820, Note_on_c, 0, 79, 67
1, 275874, Note_on_c, 0, 67, 0
1, 275874, Note_on_c, 0, 65, 0
1, 275880, Note_on_c, 0, 79, 0
1, 275880, Note_on_c, 0, 83, 71
1, 275880, Note_on_c, 0, 65, 52
1, 275880, Note_on_c, 0, 67, 54
1, 275940, Note_on_c, 0, 83, 0
1, 275940, Note_on_c, 0, 79, 68
1, 275994, Note_on_c, 0, 67, 0
1, 275994, Note_on_c, 0, 65, 0
1, 276000, Tempo, 840218
1, 276000, Note_on_c, 0, 79, 0
1, 276000, Note_on_c, 0, 84, 75
1, 276000, Note_on_c, 0, 64, 52
1, 276000, Note_on_c, 0, 67, 57
1, 276013, Control_c, 0, 64, 0
1, 276050, Control_c, 0, 64, 127
1, 276060, Note_on_c, 0, 84, 0
1, 276060, Note_on_c, 0, 79, 73
1, 276080, Tempo, 871586
1, 276114, Note_on_c, 0, 67, 0
1, 276114, Note_on_c, 0, 64, 0
1, 276120, Tempo, 840218
1, 276120, Note_on_c, 0, 79, 0
1, 276120, Note_on_c, 0, 84, 79
1, 276120, Note_on_c, 0, 64, 52
1, 276120, Note_on_c, 0, 67, 60
1, 276160, Tempo, 877193
1, 276180, Note_on_c, 0, 84, 0
1, 276180, Note_on_c, 0, 79, 77
1, 276234, Note_on_c, 0, 67, 0
1, 276234, Note_on_c, 0, 64, 0
1, 276240, Tempo, 882742
1, 276240, Note_on_c, 0, 79, 0
1, 276240, Note_on_c, 0, 86, 83
1, 276240, Note_on_c, 0, 59, 52
1, 276240, Note_on_c, 0, 67, 62
1, 276254, Control_c, 0, 64, 0
1, 276280, Tempo, 888362
1, 276293, Control_c, 0, 64, 127
1, 276300, Note_on_c, 0, 86, 0
1, 276300, Note_on_c, 0, 79, 81
1, 276354, Note_on_c, 0, 67, 0
1, 276354, Note_on_c, 0, 59, 0
1, 276360, Tempo, 894188
1, 276360, Note_on_c, 0, 79, 0
1, 276360, Note_on_c, 0, 86, 88
1, 276360, Note_on_c, 0, 59, 52
1, 276360, Note_on_c, 0, 67, 65
1, 276420, Note_on_c, 0, 86, 0
1, 276420, Note_on_c, 0, 79, 82
1, 276440, Tempo, 899955
1, 276474, Note_on_c, 0, 67, 0
1, 276474, Note_on_c, 0, 59, 0
1, 276480, Tempo, 905934
1, 276480, Note_on_c, 0, 79, 0
1, 276480, Note_on_c, 0, 88, 88
1, 276480, Note_on_c, 0, 60, 67
1, 276480, Note_on_c, 0, 67, 67
1, 276488, Control_c, 0, 64, 0
1, 276526, Control_c, 0, 64, 127
1, 276540, Note_on_c, 0, 88, 0
1, 276540, Note_on_c, 0, 84, 78
1, 276600, Note_on_c, 0, 84, 0
1, 276600, Note_on_c, 0, 88, 84
1, 276660, Note_on_c, 0, 88, 0
1, 276660, Note_on_c, 0, 84, 80
1, 276720, Note_on_c, 0, 84, 0
1, 276720, Note_on_c, 0, 67, 0
1, 276720, Note_on_c, 0, 60, 0
1, 276720, Note_on_c, 0, 79, 82
1, 276780, Note_on_c, 0, 79, 0
1, 276780, Note_on_c, 0, 84, 74
1, 276840, Note_on_c, 0, 84, 0
1, 276840, Note_on_c, 0, 79, 79
1, 276900, Note_on_c, 0, 79, 0
1, 276900, Note_on_c, 0, 84, 71
1, 276960, Note_on_c, 0, 84, 0
1, 276960, Note_on_c, 0, 76, 78
1, 277020, Note_on_c, 0, 76, 0
1, 277020, Note_on_c, 0, 79, 71
1, 277080, Note_on_c, 0, 79, 0
1, 277080, Note_on_c, 0, 76, 76
1, 277140, Note_on_c, 0, 76, 0
1, 277140, Note_on_c, 0, 79, 71
1, 277200, Note_on_c, 0, 79, 0
1, 277200, Note_on_c, 0, 72, 72
1, 277260, Note_on_c, 0, 72, 0
1, 277260, Note_on_c, 0, 76, 67
1, 277320, Note_on_c, 0, 76, 0
1, 277320, Note_on_c, 0, 72, 71
1, 277380, Note_on_c, 0, 72, 0
1, 277380, Note_on_c, 0, 76, 63
1, 277440, Tempo, 882742
1, 277440, Note_on_c, 0, 76, 0
1, 277440, Note_on_c, 0, 69, 60
1, 277440, Control_c, 0, 64, 0
1, 277475, Control_c, 0, 64, 127
1, 277560, Note_on_c, 0, 69, 0
1, 277560, Note_on_c, 0, 81, 63
1, 277680, Note_on_c, 0, 81, 0
1, 277680, Note_on_c, 0, 79, 63
1, 277680, Note_on_c, 0, 53, 44
1, 277680, Note_on_c, 0, 57, 44
1, 277680, Note_on_c, 0, 62, 44
1, 277691, Control_c, 0, 64, 0
1, 277734, Control_c, 0, 64, 127
1, 277740, Note_on_c, 0, 79, 0
1, 277740, Note_on_c, 0, 77, 58
1, 277800, Note_on_c, 0, 77, 0
1, 277800, Note_on_c, 0, 76, 63
1, 277860, Note_on_c, 0, 76, 0
1, 277860, Note_on_c, 0, 74, 60
1, 277920, Tempo, 905934
1, 277920, Note_on_c, 0, 74, 0
1, 277920, Note_on_c, 0, 62, 0
1, 277920, Note_on_c, 0, 57, 0
1, 277920, Note_on_c, 0, 53, 0
1, 277920, Note_on_c, 0, 72, 63
1, 277920, Note_on_c, 0, 55, 44
1, 277920, Note_on_c, 0, 64, 44
1, 277920, Note_on_c, 0, 60, 44
1, 277932, Control_c, 0, 64, 0
1, 278012, Control_c, 0, 64, 127
1, 278160, Note_on_c, 0, 60, 0
1, 278160, Note_on_c, 0, 64, 0
1, 278160, Note_on_c, 0, 72, 0
1, 278160, Note_on_c, 0, 71, 60
1, 278160, Note_on_c, 0, 62, 41
1, 278160, Note_on_c, 0, 65, 41
1, 278167, Control_c, 0, 64, 0
1, 278192, Note_on_c, 0, 71, 0
1, 278192, Note_on_c, 0, 72, 63
1, 278198, Control_c, 0, 64, 127
1, 278224, Note_on_c, 0, 72, 0
1, 278224, Note_on_c, 0, 71, 60
1, 278256, Note_on_c, 0, 71, 0
1, 278256, Note_on_c, 0, 72, 63
1, 278288, Note_on_c, 0, 72, 0
1, 278288, Note_on_c, 0, 71, 63
1, 278320, Note_on_c, 0, 71, 0
1, 278320, Note_on_c, 0, 69, 63
1, 278360, Note_on_c, 0, 69, 0
1, 278360, Note_on_c, 0, 71, 60
1, 278400, Tempo, 928936
1, 278400, Note_on_c, 0, 71, 0
1, 278400, Note_on_c, 0, 55, 0
1, 278400, Note_on_c, 0, 62, 0
1, 278400, Note_on_c, 0, 65, 0
1, 278400, Note_on_c, 0, 72, 82
1, 278400, Note_on_c, 0, 60, 78
1, 278414, Control_c, 0, 64, 0
1, 278443, Control_c, 0, 64, 127
1, 278580, Note_on_c, 0, 60, 0
1, 278580, Note_on_c, 0, 72, 0
1, 278580, Note_on_c, 0, 67, 78
1, 278580, Note_on_c, 0, 55, 71
1, 278640, Note_on_c, 0, 55, 0
1, 278640, Note_on_c, 0, 67, 0
1, 278640, Note_on_c, 0, 76, 82
1, 278640, Note_on_c, 0, 64, 76
1, 278820, Note_on_c, 0, 64, 0
1, 278820, Note_on_c, 0, 76, 0
1, 278820, Note_on_c, 0, 72, 76
1, 278820, Note_on_c, 0, 60, 68
1, 278880, Tempo, 977040
1, 278880, Note_on_c, 0, 60, 0
1, 278880, Note_on_c, 0, 72, 0
1, 278880, Note_on_c, 0, 79, 81
1, 278880, Note_on_c, 0, 67, 74
1, 279000, Note_on_c, 0, 67, 0
1, 279000, Note_on_c, 0, 79, 0
1, 279025, Control_c, 0, 64, 0
1, 279120, Tempo, 866051
1, 279120, Note_on_c, 0, 86, 54
1, 279180, Note_on_c, 0, 84, 50
1, 279192, Note_on_c, 0, 86, 0
1, 279240, Note_on_c, 0, 83, 54
1, 279252, Note_on_c, 0, 84, 0
1, 279300, Note_on_c, 0, 81, 49
1, 279312, Note_on_c, 0, 83, 0
1, 279360, Tempo, 888362
1, 279360, Note_on_c, 0, 79, 57
1, 279360, Note_on_c, 0, 55, 41
1, 279360, Note_on_c, 0, 60, 41
1, 279360, Note_on_c, 0, 64, 41
1, 279372, Note_on_c, 0, 81, 0
1, 279480, Note_on_c, 0, 60, 0
1, 279480, Note_on_c, 0, 79, 0
1, 279480, Note_on_c, 0, 55, 0
1, 279480, Note_on_c, 0, 64, 0
1, 279600, Tempo, 866051
1, 279600, Note_on_c, 0, 81, 54
1, 279660, Note_on_c, 0, 79, 50
1, 279672, Note_on_c, 0, 81, 0
1, 279720, Note_on_c, 0, 77, 54
1, 279732, Note_on_c, 0, 79, 0
1, 279780, Note_on_c, 0, 76, 50
1, 279792, Note_on_c, 0, 77, 0
1, 279840, Tempo, 888362
1, 279840, Note_on_c, 0, 74, 57
1, 279840, Note_on_c, 0, 55, 41
1, 279840, Note_on_c, 0, 65, 41
1, 279840, Note_on_c, 0, 59, 41
1, 279852, Note_on_c, 0, 76, 0
1, 279960, Note_on_c, 0, 65, 0
1, 279960, Note_on_c, 0, 74, 0
1, 279960, Note_on_c, 0, 55, 0
1, 279960, Note_on_c, 0, 59, 0
1, 280080, Tempo, 866051
1, 280080, Note_on_c, 0, 79, 56
1, 280140, Note_on_c, 0, 77, 53
1, 280152, Note_on_c, 0, 79, 0
1, 280200, Note_on_c, 0, 76, 56
1, 280212, Note_on_c, 0, 77, 0
1, 280260, Note_on_c, 0, 74, 52
1, 280272, Note_on_c, 0, 76, 0
1, 280320, Tempo, 915332
1, 280320, Note_on_c, 0, 72, 81
1, 280320, Note_on_c, 0, 60, 70
1, 280332, Note_on_c, 0, 74, 0
1, 280352, Control_c, 0, 64, 127
1, 280380, Note_on_c, 0, 60, 0
1, 280380, Note_on_c, 0, 72, 0
1, 280380, Note_on_c, 0, 67, 75
1, 280380, Note_on_c, 0, 55, 65
1, 280440, Note_on_c, 0, 55, 0
1, 280440, Note_on_c, 0, 67, 0
1, 280440, Note_on_c, 0, 72, 82
1, 280440, Note_on_c, 0, 60, 70
1, 280500, Note_on_c, 0, 60, 0
1, 280500, Note_on_c, 0, 72, 0
1, 280500, Note_on_c, 0, 67, 78
1, 280500, Note_on_c, 0, 55, 65
1, 280560, Note_on_c, 0, 55, 0
1, 280560, Note_on_c, 0, 67, 0
1, 280560, Note_on_c, 0, 76, 82
1, 280560, Note_on_c, 0, 64, 70
1, 280620, Note_on_c, 0, 64, 0
1, 280620, Note_on_c, 0, 76, 0
1, 280620, Note_on_c, 0, 72, 78
1, 280620, Note_on_c, 0, 60, 64
1, 280680, Note_on_c, 0, 60, 0
1, 280680, Note_on_c, 0, 72, 0
1, 280680, Note_on_c, 0, 76, 82
1, 280680, Note_on_c, 0, 64, 71
1, 280740, Note_on_c, 0, 64, 0
1, 280740, Note_on_c, 0, 76, 0
1, 280740, Note_on_c, 0, 72, 76
1, 280740, Note_on_c, 0, 60, 65
1, 280800, Tempo, 993213
1, 280800, Note_on_c, 0, 60, 0
1, 280800, Note_on_c, 0, 72, 0
1, 280800, Note_on_c, 0, 79, 82
1, 280800, Note_on_c, 0, 67, 71
1, 280888, Control_c, 0, 64, 0
1, 280920, Note_on_c, 0, 67, 0
1, 280920, Note_on_c, 0, 79, 0
1, 281040, Tempo, 828615
1, 281040, Note_on_c, 0, 86, 55
1, 281100, Note_on_c, 0, 84, 53
1, 281112, Note_on_c, 0, 86, 0
1, 281160, Note_on_c, 0, 83, 55
1, 281172, Note_on_c, 0, 84, 0
1, 281220, Note_on_c, 0, 81, 53
1, 281232, Note_on_c, 0, 83, 0
1, 281280, Tempo, 905934
1, 281280, Note_on_c, 0, 79, 58
1, 281280, Note_on_c, 0, 55, 45
1, 281280, Note_on_c, 0, 64, 45
1, 281280, Note_on_c, 0, 60, 45
1, 281292, Note_on_c, 0, 81, 0
1, 281340, Note_on_c, 0, 79, 0
1, 281400, Note_on_c, 0, 64, 0
1, 281400, Note_on_c, 0, 55, 0
1, 281400, Note_on_c, 0, 60, 0
1, 281400, Note_on_c, 0, 79, 58
1, 281460, Note_on_c, 0, 79, 0
1, 281520, Tempo, 840218
1, 281520, Note_on_c, 0, 81, 54
1, 281580, Note_on_c, 0, 79, 50
1, 281592, Note_on_c, 0, 81, 0
1, 281640, Note_on_c, 0, 77, 54
1, 281652, Note_on_c, 0, 79, 0
1, 281700, Note_on_c, 0, 76, 50
1, 281712, Note_on_c, 0, 77, 0
1, 281760, Tempo, 882742
1, 281760, Note_on_c, 0, 74, 57
1, 281760, Note_on_c, 0, 59, 45
1, 281760, Note_on_c, 0, 55, 45
1, 281760, Note_on_c, 0, 65, 45
1, 281772, Note_on_c, 0, 76, 0
1, 281800, Tempo, 905934
1, 281820, Note_on_c, 0, 74, 0
1, 281880, Note_on_c, 0, 55, 0
1, 281880, Note_on_c, 0, 59, 0
1, 281880, Note_on_c, 0, 65, 0
1, 281880, Note_on_c, 0, 74, 57
1, 281940, Note_on_c, 0, 74, 0
1, 282000, Tempo, 866051
1, 282000, Note_on_c, 0, 79, 55
1, 282060, Note_on_c, 0, 77, 51
1, 282072, Note_on_c, 0, 79, 0
1, 282120, Note_on_c, 0, 76, 55
1, 282132, Note_on_c, 0, 77, 0
1, 282180, Note_on_c, 0, 74, 51
1, 282192, Note_on_c, 0, 76, 0
1, 282240, Tempo, 902120
1, 282240, Note_on_c, 0, 72, 62
1, 282240, Note_on_c, 0, 64, 51
1, 282252, Note_on_c, 0, 74, 0
1, 282286, Control_c, 0, 64, 127
1, 282360, Note_on_c, 0, 64, 0
1, 282360, Note_on_c, 0, 60, 41
1, 282480, Note_on_c, 0, 60, 0
1, 282480, Note_on_c, 0, 72, 0
1, 282480, Note_on_c, 0, 64, 51
1, 282600, Tempo, 888362
1, 282600, Note_on_c, 0, 64, 0
1, 282600, Note_on_c, 0, 80, 57
1, 282600, Note_on_c, 0, 60, 41
1, 282720, Tempo, 889284
1, 282720, Note_on_c, 0, 60, 0
1, 282720, Note_on_c, 0, 80, 0
1, 282720, Note_on_c, 0, 81, 62
1, 282720, Note_on_c, 0, 65, 51
1, 282729, Control_c, 0, 64, 0
1, 282772, Control_c, 0, 64, 127
1, 282840, Note_on_c, 0, 65, 0
1, 282840, Note_on_c, 0, 81, 0
1, 282840, Note_on_c, 0, 83, 64
1, 282840, Note_on_c, 0, 60, 41
1, 282960, Note_on_c, 0, 60, 0
1, 282960, Note_on_c, 0, 83, 0
1, 282960, Note_on_c, 0, 84, 70
1, 282960, Note_on_c, 0, 67, 51
1, 282971, Control_c, 0, 64, 0
1, 283029, Control_c, 0, 64, 127
1, 283080, Note_on_c, 0, 67, 0
1, 283080, Note_on_c, 0, 84, 0
1, 283080, Note_on_c, 0, 76, 62
1, 283080, Note_on_c, 0, 60, 41
1, 283200, Tempo, 911854
1, 283200, Note_on_c, 0, 60, 0
1, 283200, Note_on_c, 0, 76, 0
1, 283200, Note_on_c, 0, 79, 66
1, 283200, Note_on_c, 0, 69, 51
1, 283207, Control_c, 0, 64, 0
1, 283257, Control_c, 0, 64, 127
1, 283320, Note_on_c, 0, 69, 0
1, 283320, Note_on_c, 0, 79, 0
1, 283320, Note_on_c, 0, 77, 62
1, 283320, Note_on_c, 0, 60, 43
1, 283440, Note_on_c, 0, 60, 0
1, 283440, Note_on_c, 0, 77, 0
1, 283440, Note_on_c, 0, 70, 51
1, 283452, Control_c, 0, 64, 0
1, 283560, Tempo, 888362
1, 283560, Note_on_c, 0, 70, 0
1, 283560, Note_on_c, 0, 76, 55
1, 283560, Note_on_c, 0, 60, 43
1, 283680, Note_on_c, 0, 60, 0
1, 283680, Note_on_c, 0, 76, 0
1, 283680, Note_on_c, 0, 77, 60
1, 283680, Note_on_c, 0, 69, 51
1, 283720, Control_c, 0, 64, 127
1, 283800, Note_on_c, 0, 69, 0
1, 283800, Note_on_c, 0, 77, 0
1, 283800, Note_on_c, 0, 79, 62
1, 283800, Note_on_c, 0, 60, 43
1, 283920, Tempo, 889284
1, 283920, Note_on_c, 0, 60, 0
1, 283920, Note_on_c, 0, 79, 0
1, 283920, Note_on_c, 0, 81, 65
1, 283920, Note_on_c, 0, 67, 51
1, 283932, Control_c, 0, 64, 0
1, 283989, Control_c, 0, 64, 127
1, 284040, Note_on_c, 0, 67, 0
1, 284040, Note_on_c, 0, 81, 0
1, 284040, Note_on_c, 0, 73, 57
1, 284040, Note_on_c, 0, 60, 43
1, 284160, Tempo, 911854
1, 284160, Note_on_c, 0, 60, 0
1, 284160, Note_on_c, 0, 73, 0
1, 284160, Note_on_c, 0, 76, 63
1, 284160, Note_on_c, 0, 65, 51
1, 284168, Control_c, 0, 64, 0
1, 284217, Control_c, 0, 64, 127
1, 284280, Note_on_c, 0, 65, 0
1, 284280, Note_on_c, 0, 76, 0
1, 284280, Note_on_c, 0, 74, 57
1, 284280, Note_on_c, 0, 60, 43
1, 284360, Control_c, 0, 64, 0
1, 284400, Note_on_c, 0, 60, 0
1, 284400, Note_on_c, 0, 74, 0
1, 284400, Note_on_c, 0, 64, 51
1, 284520, Tempo, 888362
1, 284520, Note_on_c, 0, 64, 0
1, 284520, Note_on_c, 0, 73, 49
1, 284520, Note_on_c, 0, 60, 35
1, 284640, Note_on_c, 0, 60, 0
1, 284640, Note_on_c, 0, 73, 0
1, 284640, Note_on_c, 0, 74, 52
1, 284640, Note_on_c, 0, 65, 40
1, 284709, Control_c, 0, 64, 127
1, 284760, Note_on_c, 0, 65, 0
1, 284760, Note_on_c, 0, 74, 0
1, 284760, Note_on_c, 0, 76, 54
1, 284760, Note_on_c, 0, 60, 37
1, 284880, Note_on_c, 0, 60, 0
1, 284880, Note_on_c, 0, 76, 0
1, 284880, Note_on_c, 0, 77, 57
1, 284880, Note_on_c, 0, 62, 40
1, 285000, Note_on_c, 0, 62, 0
1, 285000, Note_on_c, 0, 77, 0
1, 285000, Note_on_c, 0, 71, 49
1, 285000, Note_on_c, 0, 60, 36
1, 285120, Tempo, 911854
1, 285120, Note_on_c, 0, 60, 0
1, 285120, Note_on_c, 0, 71, 0
1, 285120, Note_on_c, 0, 74, 50
1, 285120, Note_on_c, 0, 64, 39
1, 285134, Control_c, 0, 64, 0
1, 285163, Control_c, 0, 64, 127
1, 285240, Note_on_c, 0, 64, 0
1, 285240, Note_on_c, 0, 74, 0
1, 285240, Note_on_c, 0, 72, 49
1, 285240, Note_on_c, 0, 60, 36
1, 285360, Tempo, 888362
1, 285360, Note_on_c, 0, 60, 0
1, 285360, Note_on_c, 0, 72, 0
1, 285360, Note_on_c, 0, 81, 70
1, 285360, Note_on_c, 0, 65, 40
1, 285375, Control_c, 0, 64, 0
1, 285438, Control_c, 0, 64, 127
1, 285480, Note_on_c, 0, 65, 0
1, 285480, Note_on_c, 0, 81, 0
1, 285480, Note_on_c, 0, 71, 49
1, 285480, Note_on_c, 0, 60, 34
1, 285600, Tempo, 911854
1, 285600, Note_on_c, 0, 60, 0
1, 285600, Note_on_c, 0, 71, 0
1, 285600, Note_on_c, 0, 74, 51
1, 285600, Note_on_c, 0, 64, 40
1, 285615, Control_c, 0, 64, 0
1, 285685, Control_c, 0, 64, 127
1, 285720, Note_on_c, 0, 64, 0
1, 285720, Note_on_c, 0, 74, 0
1, 285720, Note_on_c, 0, 72, 49
1, 285720, Note_on_c, 0, 60, 38
1, 285840, Tempo, 888362
1, 285840, Note_on_c, 0, 60, 0
1, 285840, Note_on_c, 0, 72, 0
1, 285840, Note_on_c, 0, 81, 70
1, 285840, Note_on_c, 0, 65, 41
1, 285847, Control_c, 0, 64, 0
1, 285911, Control_c, 0, 64, 127
1, 285960, Note_on_c, 0, 65, 0
1, 285960, Note_on_c, 0, 81, 0
1, 285960, Note_on_c, 0, 71, 49
1, 285960, Note_on_c, 0, 60, 34
1, 286080, Tempo, 911854
1, 286080, Note_on_c, 0, 60, 0
1, 286080, Note_on_c, 0, 71, 0
1, 286080, Note_on_c, 0, 64, 41
1, 286088, Control_c, 0, 64, 0
1, 286112, Control_c, 0, 64, 127
1, 286200, Tempo, 917712
1, 286200, Note_on_c, 0, 64, 0
1, 286200, Note_on_c, 0, 74, 49
1, 286200, Note_on_c, 0, 60, 37
1, 286260, Note_on_c, 0, 74, 0
1, 286260, Note_on_c, 0, 72, 43
1, 286320, Tempo, 923930
1, 286320, Note_on_c, 0, 72, 0
1, 286320, Note_on_c, 0, 60, 0
1, 286320, Note_on_c, 0, 65, 40
1, 286332, Control_c, 0, 64, 0
1, 286355, Control_c, 0, 64, 127
1, 286440, Tempo, 930233
1, 286440, Note_on_c, 0, 65, 0
1, 286440, Note_on_c, 0, 80, 57
1, 286440, Note_on_c, 0, 60, 33
1, 286500, Note_on_c, 0, 80, 0
1, 286500, Note_on_c, 0, 71, 43
1, 286520, Tempo, 936330
1, 286560, Tempo, 946223
1, 286560, Note_on_c, 0, 71, 0
1, 286560, Note_on_c, 0, 60, 0
1, 286560, Note_on_c, 0, 64, 41
1, 286580, Control_c, 0, 64, 0
1, 286612, Control_c, 0, 64, 127
1, 286640, Tempo, 942951
1, 286680, Note_on_c, 0, 64, 0
1, 286680, Note_on_c, 0, 74, 51
1, 286680, Note_on_c, 0, 60, 37
1, 286740, Note_on_c, 0, 74, 0
1, 286740, Note_on_c, 0, 72, 43
1, 286760, Tempo, 949217
1, 286800, Tempo, 977040
1, 286800, Note_on_c, 0, 72, 0
1, 286800, Note_on_c, 0, 60, 0
1, 286800, Note_on_c, 0, 65, 41
1, 286809, Control_c, 0, 64, 0
1, 286846, Control_c, 0, 64, 127
1, 286920, Tempo, 1239413
1, 286920, Note_on_c, 0, 65, 0
1, 286920, Note_on_c, 0, 80, 55
1, 286920, Note_on_c, 0, 60, 35
1, 286980, Tempo, 1851280
1, 286980, Note_on_c, 0, 80, 0
1, 286980, Note_on_c, 0, 71, 41
1, 287040, Tempo, 1414761
1, 287040, Note_on_c, 0, 71, 0
1, 287040, Note_on_c, 0, 60, 0
1, 287040, Note_on_c, 0, 71, 54
1, 287040, Note_on_c, 0, 74, 54
1, 287040, Note_on_c, 0, 67, 45
1, 287040, Note_on_c, 0, 65, 45
1, 287040, Note_on_c, 0, 48, 33
1, 287040, Note_on_c, 0, 60, 39
1, 287049, Control_c, 0, 64, 0
1, 287153, Control_c, 0, 64, 127
1, 287520, Tempo, 1214329
1, 287520, Note_on_c, 0, 65, 0
1, 287520, Note_on_c, 0, 67, 0
1, 287520, Note_on_c, 0, 71, 0
1, 287520, Note_on_c, 0, 74, 0
1, 287520, Note_on_c, 0, 72, 40
1, 287520, Note_on_c, 0, 64, 34
1, 287520, Note_on_c, 0, 67, 34
1, 287535, Control_c, 0, 64, 0
1, 287760, Marker_t, "Fine"
1, 287760, Note_on_c, 0, 67, 0
1, 287760, Note_on_c, 0, 72, 0
1, 287760, Note_on_c, 0, 48, 0
1, 287760, Note_on_c, 0, 60, 0
1, 287760, Note_on_c, 0, 64, 0
1, 287760, End_track
0, 0, End_of_file
