0, 0, Header, 0, 1, 480
1, 0, Start_track
1, 0, Title_t, "Klaviersonate C-Dur KV 330"
1, 0, Title_t, "2. Satz"
1, 0, Copyright_t, "Copyright © 1997 by Krüger http://www.piano-midi.de"
1, 0, Text_t, "Mozart: Andante Cantabile"
1, 0, Text_t, "Update am 31.3.2000\012"
1, 0, Text_t, "Update am 3.12.2001\012"
1, 0, Text_t, "Normierung: 23.12.2002\012"
1, 0, Text_t, "Update am 1.2.2006\012"
1, 0, Text_t, "Update am 20.6.2013\012"
1, 0, Text_t, "Dauer: 6:36 Minuten\012"
1, 0, SMPTE_offset, 96, 0, 3, 0, 0
1, 0, Time_signature, 3, 2, 24, 8
1, 0, Key_signature, -1, "major"
1, 0, Tempo, 1194268
1, 0, Program_c, 0, 0
1, 0, Control_c, 0, 7, 100
1, 0, Control_c, 0, 10, 64
1, 0, Control_c, 0, 91, 127
1, 0, Text_t, "bdca426d104a26ac9dcb070447587523"
1, 0, Program_c, 0, 0
1, 0, Control_c, 0, 7, 100
1, 0, Control_c, 0, 10, 64
1, 0, Control_c, 0, 64, 0
1, 80, Tempo, 1348315
1, 480, Control_c, 0, 91, 127
1, 480, Control_c, 0, 91, 127
1, 720, Marker_t, "Teil1"
1, 720, Note_on_c, 0, 72, 50
1, 777, Control_c, 0, 64, 127
1, 960, Note_on_c, 0, 72, 0
1, 960, Note_on_c, 0, 72, 50
1, 1200, Note_on_c, 0, 72, 0
1, 1200, Note_on_c, 0, 72, 50
1, 1440, Tempo, 1300954
1, 1440, Note_on_c, 0, 72, 0
1, 1440, Note_on_c, 0, 72, 52
1, 1440, Note_on_c, 0, 53, 30
1, 1440, Note_on_c, 0, 57, 30
1, 1440, Note_on_c, 0, 60, 34
1, 1451, Control_c, 0, 64, 0
1, 1472, Control_c, 0, 64, 127
1, 1560, Note_on_c, 0, 72, 0
1, 1560, Note_on_c, 0, 74, 47
1, 1600, Note_on_c, 0, 74, 0
1, 1600, Note_on_c, 0, 72, 46
1, 1640, Note_on_c, 0, 72, 0
1, 1640, Note_on_c, 0, 71, 46
1, 1680, Tempo, 1250000
1, 1680, Note_on_c, 0, 71, 0
1, 1680, Note_on_c, 0, 72, 52
1, 1689, Control_c, 0, 64, 0
1, 1720, Control_c, 0, 64, 127
1, 1800, Tempo, 1250000
1, 1800, Note_on_c, 0, 72, 0
1, 1800, Note_on_c, 0, 77, 40
1, 1920, Tempo, 1263158
1, 1920, Note_on_c, 0, 77, 0
1, 1920, Note_on_c, 0, 72, 44
1, 1963, Control_c, 0, 64, 0
1, 2040, Note_on_c, 0, 72, 0
1, 2160, Tempo, 1348315
1, 2160, Note_on_c, 0, 69, 43
1, 2400, Note_on_c, 0, 69, 0
1, 2400, Note_on_c, 0, 60, 0
1, 2400, Note_on_c, 0, 57, 0
1, 2400, Note_on_c, 0, 53, 0
1, 2400, Note_on_c, 0, 72, 48
1, 2400, Note_on_c, 0, 55, 27
1, 2400, Note_on_c, 0, 58, 30
1, 2400, Note_on_c, 0, 48, 27
1, 2452, Control_c, 0, 64, 127
1, 2640, Tempo, 1412097
1, 2640, Note_on_c, 0, 72, 0
1, 2640, Note_on_c, 0, 64, 44
1, 2880, Tempo, 1348315
1, 2880, Note_on_c, 0, 64, 0
1, 2880, Note_on_c, 0, 48, 0
1, 2880, Note_on_c, 0, 58, 0
1, 2880, Note_on_c, 0, 55, 0
1, 2880, Note_on_c, 0, 67, 53
1, 2880, Note_on_c, 0, 50, 37
1, 2880, Note_on_c, 0, 58, 37
1, 2884, Control_c, 0, 64, 0
1, 3078, Control_c, 0, 64, 127
1, 3360, Note_on_c, 0, 58, 0
1, 3360, Note_on_c, 0, 67, 0
1, 3360, Note_on_c, 0, 65, 48
1, 3360, Note_on_c, 0, 57, 37
1, 3373, Control_c, 0, 64, 0
1, 3501, Control_c, 0, 64, 127
1, 3600, Tempo, 1312336
1, 3600, Note_on_c, 0, 57, 0
1, 3600, Note_on_c, 0, 65, 0
1, 3600, Note_on_c, 0, 50, 0
1, 3600, Note_on_c, 0, 60, 40
1, 3600, Note_on_c, 0, 65, 73
1, 3600, Note_on_c, 0, 45, 57
1, 3600, Note_on_c, 0, 57, 57
1, 3840, Note_on_c, 0, 57, 0
1, 3840, Note_on_c, 0, 60, 0
1, 3840, Note_on_c, 0, 65, 0
1, 3840, Note_on_c, 0, 45, 0
1, 3840, Note_on_c, 0, 64, 51
1, 3840, Note_on_c, 0, 67, 75
1, 3840, Note_on_c, 0, 43, 59
1, 3840, Note_on_c, 0, 55, 59
1, 3859, Control_c, 0, 64, 0
1, 3967, Control_c, 0, 64, 127
1, 4080, Note_on_c, 0, 55, 0
1, 4080, Note_on_c, 0, 64, 0
1, 4080, Note_on_c, 0, 67, 0
1, 4080, Note_on_c, 0, 43, 0
1, 4080, Note_on_c, 0, 60, 40
1, 4080, Note_on_c, 0, 65, 52
1, 4080, Note_on_c, 0, 69, 76
1, 4080, Note_on_c, 0, 41, 57
1, 4080, Note_on_c, 0, 53, 57
1, 4092, Control_c, 0, 64, 0
1, 4179, Control_c, 0, 64, 127
1, 4320, Note_on_c, 0, 53, 0
1, 4320, Note_on_c, 0, 69, 0
1, 4320, Note_on_c, 0, 60, 0
1, 4320, Note_on_c, 0, 65, 0
1, 4320, Note_on_c, 0, 41, 0
1, 4320, Note_on_c, 0, 65, 63
1, 4320, Note_on_c, 0, 70, 77
1, 4320, Note_on_c, 0, 62, 56
1, 4320, Note_on_c, 0, 50, 49
1, 4328, Control_c, 0, 64, 0
1, 4401, Control_c, 0, 64, 127
1, 4560, Note_on_c, 0, 50, 0
1, 4560, Note_on_c, 0, 62, 0
1, 4560, Note_on_c, 0, 46, 44
1, 4560, Note_on_c, 0, 58, 44
1, 4620, Tempo, 1270110
1, 4680, Tempo, 1148545
1, 4680, Note_on_c, 0, 70, 0
1, 4680, Note_on_c, 0, 65, 0
1, 4680, Note_on_c, 0, 72, 61
1, 4740, Tempo, 1165049
1, 4740, Note_on_c, 0, 72, 0
1, 4740, Note_on_c, 0, 74, 57
1, 4800, Tempo, 1363636
1, 4800, Note_on_c, 0, 74, 0
1, 4800, Note_on_c, 0, 46, 0
1, 4800, Note_on_c, 0, 58, 0
1, 4800, Note_on_c, 0, 72, 55
1, 4800, Note_on_c, 0, 57, 27
1, 4800, Note_on_c, 0, 45, 19
1, 4816, Control_c, 0, 64, 0
1, 4920, Note_on_c, 0, 45, 0
1, 4920, Note_on_c, 0, 57, 0
1, 4920, Note_on_c, 0, 72, 0
1, 5040, Tempo, 1287830
1, 5040, Note_on_c, 0, 65, 46
1, 5280, Tempo, 1340483
1, 5280, Note_on_c, 0, 65, 0
1, 5280, Note_on_c, 0, 59, 25
1, 5280, Note_on_c, 0, 64, 52
1, 5280, Note_on_c, 0, 50, 29
1, 5354, Control_c, 0, 64, 127
1, 5520, Tempo, 1454193
1, 5520, Note_on_c, 0, 64, 0
1, 5520, Note_on_c, 0, 65, 46
1, 5760, Tempo, 1398927
1, 5760, Note_on_c, 0, 65, 0
1, 5760, Note_on_c, 0, 50, 0
1, 5760, Note_on_c, 0, 59, 0
1, 5760, Note_on_c, 0, 60, 32
1, 5760, Note_on_c, 0, 65, 32
1, 5760, Note_on_c, 0, 69, 47
1, 5760, Note_on_c, 0, 48, 27
1, 5769, Control_c, 0, 64, 0
1, 5806, Control_c, 0, 64, 127
1, 6240, Note_on_c, 0, 69, 0
1, 6240, Note_on_c, 0, 65, 0
1, 6240, Note_on_c, 0, 67, 46
1, 6240, Note_on_c, 0, 64, 21
1, 6257, Control_c, 0, 64, 0
1, 6307, Control_c, 0, 64, 127
1, 6480, Tempo, 1287830
1, 6480, Note_on_c, 0, 64, 0
1, 6480, Note_on_c, 0, 67, 0
1, 6480, Note_on_c, 0, 67, 54
1, 6720, Note_on_c, 0, 67, 0
1, 6720, Note_on_c, 0, 60, 0
1, 6720, Note_on_c, 0, 48, 0
1, 6720, Note_on_c, 0, 67, 59
1, 6720, Note_on_c, 0, 60, 39
1, 6720, Note_on_c, 0, 64, 39
1, 6723, Control_c, 0, 64, 0
1, 6819, Control_c, 0, 64, 127
1, 6960, Note_on_c, 0, 67, 0
1, 6960, Note_on_c, 0, 67, 65
1, 7080, Tempo, 1382807
1, 7091, Control_c, 0, 64, 0
1, 7140, Note_on_c, 0, 67, 0
1, 7140, Note_on_c, 0, 67, 66
1, 7151, Control_c, 0, 64, 127
1, 7200, Tempo, 1287830
1, 7200, Note_on_c, 0, 67, 0
1, 7200, Note_on_c, 0, 64, 0
1, 7200, Note_on_c, 0, 60, 0
1, 7200, Note_on_c, 0, 79, 74
1, 7200, Note_on_c, 0, 59, 51
1, 7200, Note_on_c, 0, 65, 51
1, 7200, Note_on_c, 0, 62, 51
1, 7560, Note_on_c, 0, 79, 0
1, 7560, Note_on_c, 0, 74, 50
1, 7620, Note_on_c, 0, 74, 0
1, 7620, Note_on_c, 0, 71, 46
1, 7680, Note_on_c, 0, 71, 0
1, 7680, Note_on_c, 0, 67, 48
1, 7920, Note_on_c, 0, 67, 0
1, 7920, Note_on_c, 0, 67, 55
1, 8160, Note_on_c, 0, 67, 0
1, 8160, Note_on_c, 0, 59, 0
1, 8160, Note_on_c, 0, 65, 0
1, 8160, Note_on_c, 0, 62, 0
1, 8160, Note_on_c, 0, 67, 63
1, 8160, Note_on_c, 0, 64, 43
1, 8160, Note_on_c, 0, 60, 43
1, 8172, Control_c, 0, 64, 0
1, 8252, Control_c, 0, 64, 127
1, 8400, Note_on_c, 0, 67, 0
1, 8400, Note_on_c, 0, 67, 69
1, 8520, Tempo, 1492909
1, 8554, Control_c, 0, 64, 0
1, 8580, Note_on_c, 0, 67, 0
1, 8580, Note_on_c, 0, 67, 68
1, 8586, Control_c, 0, 64, 127
1, 8640, Tempo, 1287830
1, 8640, Note_on_c, 0, 67, 0
1, 8640, Note_on_c, 0, 60, 0
1, 8640, Note_on_c, 0, 64, 0
1, 8640, Note_on_c, 0, 79, 73
1, 8640, Note_on_c, 0, 53, 52
1, 8640, Note_on_c, 0, 59, 52
1, 8640, Note_on_c, 0, 50, 52
1, 9120, Tempo, 1382807
1, 9120, Note_on_c, 0, 50, 0
1, 9120, Note_on_c, 0, 59, 0
1, 9120, Note_on_c, 0, 53, 0
1, 9120, Note_on_c, 0, 55, 37
1, 9120, Note_on_c, 0, 60, 37
1, 9120, Note_on_c, 0, 52, 37
1, 9133, Control_c, 0, 64, 0
1, 9300, Note_on_c, 0, 79, 0
1, 9300, Note_on_c, 0, 81, 56
1, 9330, Note_on_c, 0, 81, 0
1, 9330, Note_on_c, 0, 83, 49
1, 9360, Note_on_c, 0, 83, 0
1, 9360, Note_on_c, 0, 84, 55
1, 9480, Note_on_c, 0, 84, 0
1, 9480, Note_on_c, 0, 83, 49
1, 9600, Tempo, 1300672
1, 9600, Note_on_c, 0, 83, 0
1, 9600, Note_on_c, 0, 55, 0
1, 9600, Note_on_c, 0, 60, 0
1, 9600, Note_on_c, 0, 52, 0
1, 9600, Note_on_c, 0, 81, 55
1, 9720, Note_on_c, 0, 81, 0
1, 9720, Note_on_c, 0, 79, 46
1, 9840, Note_on_c, 0, 79, 0
1, 9840, Note_on_c, 0, 77, 51
1, 9960, Note_on_c, 0, 77, 0
1, 9960, Note_on_c, 0, 76, 47
1, 10080, Tempo, 1354402
1, 10080, Note_on_c, 0, 76, 0
1, 10080, Note_on_c, 0, 73, 52
1, 10200, Note_on_c, 0, 73, 0
1, 10200, Note_on_c, 0, 74, 48
1, 10320, Note_on_c, 0, 74, 0
1, 10320, Note_on_c, 0, 77, 49
1, 10320, Note_on_c, 0, 57, 30
1, 10320, Note_on_c, 0, 62, 30
1, 10320, Note_on_c, 0, 53, 30
1, 10332, Control_c, 0, 64, 127
1, 10440, Tempo, 1459499
1, 10440, Note_on_c, 0, 77, 0
1, 10440, Note_on_c, 0, 81, 46
1, 10560, Tempo, 1354402
1, 10560, Note_on_c, 0, 81, 0
1, 10560, Note_on_c, 0, 53, 0
1, 10560, Note_on_c, 0, 62, 0
1, 10560, Note_on_c, 0, 57, 0
1, 10560, Note_on_c, 0, 72, 54
1, 10560, Note_on_c, 0, 60, 24
1, 10560, Note_on_c, 0, 64, 27
1, 10560, Note_on_c, 0, 55, 25
1, 10573, Control_c, 0, 64, 0
1, 10703, Control_c, 0, 64, 127
1, 11040, Note_on_c, 0, 64, 0
1, 11040, Note_on_c, 0, 60, 0
1, 11040, Note_on_c, 0, 65, 26
1, 11040, Note_on_c, 0, 62, 23
1, 11056, Control_c, 0, 64, 0
1, 11126, Control_c, 0, 64, 127
1, 11280, Note_on_c, 0, 72, 0
1, 11280, Note_on_c, 0, 76, 48
1, 11280, Note_on_c, 0, 71, 37
1, 11400, Note_on_c, 0, 76, 0
1, 11400, Note_on_c, 0, 74, 47
1, 11520, Note_on_c, 0, 74, 0
1, 11520, Note_on_c, 0, 71, 0
1, 11520, Note_on_c, 0, 62, 0
1, 11520, Note_on_c, 0, 65, 0
1, 11520, Note_on_c, 0, 55, 0
1, 11520, Note_on_c, 0, 72, 47
1, 11520, Note_on_c, 0, 60, 30
1, 11520, Note_on_c, 0, 64, 34
1, 11537, Control_c, 0, 64, 0
1, 11661, Control_c, 0, 64, 127
1, 12000, Tempo, 1463415
1, 12000, Note_on_c, 0, 64, 0
1, 12000, Note_on_c, 0, 60, 0
1, 12000, Note_on_c, 0, 72, 0
1, 12000, Note_on_c, 0, 48, 26
1, 12018, Control_c, 0, 64, 0
1, 12120, Marker_t, "Teil1 Wiederholung"
1, 12240, Tempo, 1363636
1, 12240, Note_on_c, 0, 48, 0
1, 12240, Note_on_c, 0, 72, 50
1, 12297, Control_c, 0, 64, 127
1, 12320, Tempo, 1348315
1, 12480, Note_on_c, 0, 72, 0
1, 12480, Note_on_c, 0, 72, 50
1, 12720, Note_on_c, 0, 72, 0
1, 12720, Note_on_c, 0, 72, 50
1, 12960, Tempo, 1300954
1, 12960, Note_on_c, 0, 72, 0
1, 12960, Note_on_c, 0, 72, 52
1, 12960, Note_on_c, 0, 53, 30
1, 12960, Note_on_c, 0, 57, 30
1, 12960, Note_on_c, 0, 60, 34
1, 12972, Control_c, 0, 64, 0
1, 12992, Control_c, 0, 64, 127
1, 13080, Note_on_c, 0, 72, 0
1, 13080, Note_on_c, 0, 74, 47
1, 13120, Note_on_c, 0, 74, 0
1, 13120, Note_on_c, 0, 72, 46
1, 13160, Note_on_c, 0, 72, 0
1, 13160, Note_on_c, 0, 71, 46
1, 13200, Tempo, 1224490
1, 13200, Note_on_c, 0, 71, 0
1, 13200, Note_on_c, 0, 72, 52
1, 13210, Control_c, 0, 64, 0
1, 13241, Control_c, 0, 64, 127
1, 13320, Tempo, 1224490
1, 13320, Note_on_c, 0, 72, 0
1, 13320, Note_on_c, 0, 77, 43
1, 13440, Tempo, 1290323
1, 13440, Note_on_c, 0, 77, 0
1, 13440, Note_on_c, 0, 72, 47
1, 13484, Control_c, 0, 64, 0
1, 13560, Note_on_c, 0, 72, 0
1, 13680, Tempo, 1348315
1, 13680, Note_on_c, 0, 69, 47
1, 13920, Note_on_c, 0, 69, 0
1, 13920, Note_on_c, 0, 60, 0
1, 13920, Note_on_c, 0, 57, 0
1, 13920, Note_on_c, 0, 53, 0
1, 13920, Note_on_c, 0, 72, 48
1, 13920, Note_on_c, 0, 48, 27
1, 13920, Note_on_c, 0, 55, 27
1, 13920, Note_on_c, 0, 58, 30
1, 13972, Control_c, 0, 64, 127
1, 14160, Tempo, 1412097
1, 14160, Note_on_c, 0, 72, 0
1, 14160, Note_on_c, 0, 64, 45
1, 14400, Tempo, 1348315
1, 14400, Note_on_c, 0, 64, 0
1, 14400, Note_on_c, 0, 58, 0
1, 14400, Note_on_c, 0, 55, 0
1, 14400, Note_on_c, 0, 48, 0
1, 14400, Note_on_c, 0, 67, 54
1, 14400, Note_on_c, 0, 50, 37
1, 14400, Note_on_c, 0, 58, 37
1, 14405, Control_c, 0, 64, 0
1, 14598, Control_c, 0, 64, 127
1, 14880, Note_on_c, 0, 58, 0
1, 14880, Note_on_c, 0, 67, 0
1, 14880, Note_on_c, 0, 65, 48
1, 14880, Note_on_c, 0, 57, 37
1, 14894, Control_c, 0, 64, 0
1, 15022, Control_c, 0, 64, 127
1, 15120, Tempo, 1312336
1, 15120, Note_on_c, 0, 57, 0
1, 15120, Note_on_c, 0, 65, 0
1, 15120, Note_on_c, 0, 50, 0
1, 15120, Note_on_c, 0, 60, 40
1, 15120, Note_on_c, 0, 65, 73
1, 15120, Note_on_c, 0, 45, 57
1, 15120, Note_on_c, 0, 57, 57
1, 15360, Note_on_c, 0, 57, 0
1, 15360, Note_on_c, 0, 60, 0
1, 15360, Note_on_c, 0, 65, 0
1, 15360, Note_on_c, 0, 45, 0
1, 15360, Note_on_c, 0, 64, 51
1, 15360, Note_on_c, 0, 67, 75
1, 15360, Note_on_c, 0, 43, 59
1, 15360, Note_on_c, 0, 55, 59
1, 15380, Control_c, 0, 64, 0
1, 15488, Control_c, 0, 64, 127
1, 15600, Note_on_c, 0, 55, 0
1, 15600, Note_on_c, 0, 64, 0
1, 15600, Note_on_c, 0, 67, 0
1, 15600, Note_on_c, 0, 43, 0
1, 15600, Note_on_c, 0, 65, 52
1, 15600, Note_on_c, 0, 60, 40
1, 15600, Note_on_c, 0, 69, 76
1, 15600, Note_on_c, 0, 41, 57
1, 15600, Note_on_c, 0, 53, 57
1, 15613, Control_c, 0, 64, 0
1, 15700, Control_c, 0, 64, 127
1, 15840, Note_on_c, 0, 53, 0
1, 15840, Note_on_c, 0, 69, 0
1, 15840, Note_on_c, 0, 65, 0
1, 15840, Note_on_c, 0, 60, 0
1, 15840, Note_on_c, 0, 41, 0
1, 15840, Note_on_c, 0, 65, 63
1, 15840, Note_on_c, 0, 70, 77
1, 15840, Note_on_c, 0, 50, 49
1, 15840, Note_on_c, 0, 62, 56
1, 15849, Control_c, 0, 64, 0
1, 15922, Control_c, 0, 64, 127
1, 16080, Tempo, 1243781
1, 16080, Note_on_c, 0, 62, 0
1, 16080, Note_on_c, 0, 50, 0
1, 16080, Note_on_c, 0, 46, 45
1, 16080, Note_on_c, 0, 58, 45
1, 16200, Tempo, 1126972
1, 16200, Note_on_c, 0, 70, 0
1, 16200, Note_on_c, 0, 65, 0
1, 16200, Note_on_c, 0, 72, 59
1, 16260, Tempo, 1142857
1, 16260, Note_on_c, 0, 72, 0
1, 16260, Note_on_c, 0, 74, 56
1, 16320, Tempo, 1348315
1, 16320, Note_on_c, 0, 74, 0
1, 16320, Note_on_c, 0, 46, 0
1, 16320, Note_on_c, 0, 58, 0
1, 16320, Note_on_c, 0, 72, 56
1, 16320, Note_on_c, 0, 57, 29
1, 16337, Control_c, 0, 64, 0
1, 16440, Note_on_c, 0, 57, 0
1, 16440, Note_on_c, 0, 72, 0
1, 16560, Tempo, 1287830
1, 16560, Note_on_c, 0, 65, 47
1, 16800, Tempo, 1340483
1, 16800, Note_on_c, 0, 65, 0
1, 16800, Note_on_c, 0, 59, 31
1, 16800, Note_on_c, 0, 64, 52
1, 16800, Note_on_c, 0, 50, 34
1, 16875, Control_c, 0, 64, 127
1, 17040, Tempo, 1454193
1, 17040, Note_on_c, 0, 64, 0
1, 17040, Note_on_c, 0, 65, 45
1, 17280, Tempo, 1398927
1, 17280, Note_on_c, 0, 65, 0
1, 17280, Note_on_c, 0, 50, 0
1, 17280, Note_on_c, 0, 59, 0
1, 17280, Note_on_c, 0, 60, 32
1, 17280, Note_on_c, 0, 65, 32
1, 17280, Note_on_c, 0, 69, 47
1, 17280, Note_on_c, 0, 48, 27
1, 17290, Control_c, 0, 64, 0
1, 17327, Control_c, 0, 64, 127
1, 17760, Note_on_c, 0, 69, 0
1, 17760, Note_on_c, 0, 65, 0
1, 17760, Note_on_c, 0, 64, 31
1, 17760, Note_on_c, 0, 67, 46
1, 17778, Control_c, 0, 64, 0
1, 17828, Control_c, 0, 64, 127
1, 18000, Tempo, 1287830
1, 18000, Note_on_c, 0, 67, 0
1, 18000, Note_on_c, 0, 64, 0
1, 18000, Note_on_c, 0, 67, 54
1, 18240, Note_on_c, 0, 67, 0
1, 18240, Note_on_c, 0, 60, 0
1, 18240, Note_on_c, 0, 48, 0
1, 18240, Note_on_c, 0, 67, 59
1, 18240, Note_on_c, 0, 60, 39
1, 18240, Note_on_c, 0, 64, 39
1, 18250, Control_c, 0, 64, 0
1, 18318, Control_c, 0, 64, 127
1, 18480, Note_on_c, 0, 67, 0
1, 18480, Note_on_c, 0, 67, 65
1, 18600, Tempo, 1382807
1, 18612, Control_c, 0, 64, 0
1, 18660, Note_on_c, 0, 67, 0
1, 18660, Note_on_c, 0, 67, 66
1, 18671, Control_c, 0, 64, 127
1, 18720, Tempo, 1287830
1, 18720, Note_on_c, 0, 67, 0
1, 18720, Note_on_c, 0, 64, 0
1, 18720, Note_on_c, 0, 60, 0
1, 18720, Note_on_c, 0, 79, 74
1, 18720, Note_on_c, 0, 59, 51
1, 18720, Note_on_c, 0, 62, 51
1, 18720, Note_on_c, 0, 65, 51
1, 19080, Note_on_c, 0, 79, 0
1, 19080, Note_on_c, 0, 74, 50
1, 19140, Note_on_c, 0, 74, 0
1, 19140, Note_on_c, 0, 71, 46
1, 19200, Note_on_c, 0, 71, 0
1, 19200, Note_on_c, 0, 67, 51
1, 19440, Note_on_c, 0, 67, 0
1, 19440, Note_on_c, 0, 67, 59
1, 19680, Note_on_c, 0, 67, 0
1, 19680, Note_on_c, 0, 59, 0
1, 19680, Note_on_c, 0, 62, 0
1, 19680, Note_on_c, 0, 65, 0
1, 19680, Note_on_c, 0, 67, 63
1, 19680, Note_on_c, 0, 60, 43
1, 19680, Note_on_c, 0, 64, 43
1, 19697, Control_c, 0, 64, 0
1, 19749, Control_c, 0, 64, 127
1, 19920, Note_on_c, 0, 67, 0
1, 19920, Note_on_c, 0, 67, 69
1, 20040, Tempo, 1492909
1, 20075, Control_c, 0, 64, 0
1, 20100, Note_on_c, 0, 67, 0
1, 20100, Note_on_c, 0, 67, 68
1, 20106, Control_c, 0, 64, 127
1, 20160, Tempo, 1287830
1, 20160, Note_on_c, 0, 67, 0
1, 20160, Note_on_c, 0, 64, 0
1, 20160, Note_on_c, 0, 60, 0
1, 20160, Note_on_c, 0, 79, 73
1, 20160, Note_on_c, 0, 50, 52
1, 20160, Note_on_c, 0, 53, 52
1, 20160, Note_on_c, 0, 59, 52
1, 20640, Tempo, 1382807
1, 20640, Note_on_c, 0, 59, 0
1, 20640, Note_on_c, 0, 53, 0
1, 20640, Note_on_c, 0, 50, 0
1, 20640, Note_on_c, 0, 52, 37
1, 20640, Note_on_c, 0, 55, 37
1, 20640, Note_on_c, 0, 60, 37
1, 20654, Control_c, 0, 64, 0
1, 20820, Note_on_c, 0, 79, 0
1, 20820, Note_on_c, 0, 81, 56
1, 20850, Note_on_c, 0, 81, 0
1, 20850, Note_on_c, 0, 83, 49
1, 20880, Note_on_c, 0, 83, 0
1, 20880, Note_on_c, 0, 84, 53
1, 21000, Note_on_c, 0, 84, 0
1, 21000, Note_on_c, 0, 83, 49
1, 21120, Tempo, 1300672
1, 21120, Note_on_c, 0, 83, 0
1, 21120, Note_on_c, 0, 52, 0
1, 21120, Note_on_c, 0, 55, 0
1, 21120, Note_on_c, 0, 60, 0
1, 21120, Note_on_c, 0, 81, 52
1, 21240, Note_on_c, 0, 81, 0
1, 21240, Note_on_c, 0, 79, 49
1, 21360, Note_on_c, 0, 79, 0
1, 21360, Note_on_c, 0, 77, 51
1, 21480, Note_on_c, 0, 77, 0
1, 21480, Note_on_c, 0, 76, 50
1, 21600, Tempo, 1354402
1, 21600, Note_on_c, 0, 76, 0
1, 21600, Note_on_c, 0, 73, 52
1, 21720, Note_on_c, 0, 73, 0
1, 21720, Note_on_c, 0, 74, 48
1, 21840, Note_on_c, 0, 74, 0
1, 21840, Note_on_c, 0, 77, 49
1, 21840, Note_on_c, 0, 62, 30
1, 21840, Note_on_c, 0, 57, 30
1, 21840, Note_on_c, 0, 53, 30
1, 21892, Control_c, 0, 64, 127
1, 21960, Tempo, 1459499
1, 21960, Note_on_c, 0, 77, 0
1, 21960, Note_on_c, 0, 81, 48
1, 22080, Tempo, 1354402
1, 22080, Note_on_c, 0, 81, 0
1, 22080, Note_on_c, 0, 53, 0
1, 22080, Note_on_c, 0, 57, 0
1, 22080, Note_on_c, 0, 62, 0
1, 22080, Note_on_c, 0, 72, 54
1, 22080, Note_on_c, 0, 64, 27
1, 22080, Note_on_c, 0, 60, 24
1, 22080, Note_on_c, 0, 55, 24
1, 22094, Control_c, 0, 64, 0
1, 22224, Control_c, 0, 64, 127
1, 22560, Note_on_c, 0, 60, 0
1, 22560, Note_on_c, 0, 64, 0
1, 22560, Note_on_c, 0, 65, 26
1, 22560, Note_on_c, 0, 62, 23
1, 22577, Control_c, 0, 64, 0
1, 22646, Control_c, 0, 64, 127
1, 22800, Note_on_c, 0, 72, 0
1, 22800, Note_on_c, 0, 76, 48
1, 22800, Note_on_c, 0, 71, 43
1, 22920, Note_on_c, 0, 76, 0
1, 22920, Note_on_c, 0, 74, 47
1, 23040, Note_on_c, 0, 74, 0
1, 23040, Note_on_c, 0, 71, 0
1, 23040, Note_on_c, 0, 62, 0
1, 23040, Note_on_c, 0, 65, 0
1, 23040, Note_on_c, 0, 55, 0
1, 23040, Note_on_c, 0, 72, 47
1, 23040, Note_on_c, 0, 64, 34
1, 23040, Note_on_c, 0, 60, 30
1, 23058, Control_c, 0, 64, 0
1, 23182, Control_c, 0, 64, 127
1, 23520, Tempo, 1395349
1, 23520, Note_on_c, 0, 60, 0
1, 23520, Note_on_c, 0, 64, 0
1, 23520, Note_on_c, 0, 72, 0
1, 23520, Note_on_c, 0, 48, 27
1, 23539, Control_c, 0, 64, 0
1, 23560, Marker_t, "Teil2"
1, 23760, Tempo, 1290323
1, 23760, Note_on_c, 0, 48, 0
1, 23760, Control_c, 0, 91, 127
1, 23760, Note_on_c, 0, 72, 50
1, 23760, Control_c, 0, 91, 127
1, 24000, Note_on_c, 0, 72, 0
1, 24000, Note_on_c, 0, 74, 54
1, 24120, Tempo, 1290323
1, 24120, Note_on_c, 0, 72, 50
1, 24130, Note_on_c, 0, 74, 0
1, 24240, Note_on_c, 0, 70, 55
1, 24250, Note_on_c, 0, 72, 0
1, 24360, Tempo, 1420455
1, 24360, Note_on_c, 0, 69, 49
1, 24370, Note_on_c, 0, 70, 0
1, 24480, Tempo, 1333333
1, 24480, Note_on_c, 0, 67, 61
1, 24480, Note_on_c, 0, 60, 42
1, 24480, Note_on_c, 0, 63, 46
1, 24490, Note_on_c, 0, 69, 0
1, 24516, Control_c, 0, 64, 127
1, 24960, Tempo, 1276596
1, 24960, Note_on_c, 0, 67, 0
1, 24960, Note_on_c, 0, 66, 51
1, 24968, Control_c, 0, 64, 0
1, 25013, Control_c, 0, 64, 127
1, 25200, Tempo, 1263158
1, 25200, Note_on_c, 0, 66, 0
1, 25200, Note_on_c, 0, 60, 0
1, 25200, Note_on_c, 0, 63, 0
1, 25200, Note_on_c, 0, 66, 63
1, 25200, Note_on_c, 0, 63, 46
1, 25200, Note_on_c, 0, 60, 46
1, 25440, Note_on_c, 0, 60, 0
1, 25440, Note_on_c, 0, 63, 0
1, 25440, Note_on_c, 0, 66, 0
1, 25440, Note_on_c, 0, 67, 65
1, 25440, Note_on_c, 0, 62, 47
1, 25440, Note_on_c, 0, 58, 47
1, 25448, Control_c, 0, 64, 0
1, 25486, Control_c, 0, 64, 127
1, 25680, Tempo, 1379310
1, 25680, Note_on_c, 0, 58, 0
1, 25680, Note_on_c, 0, 62, 0
1, 25680, Note_on_c, 0, 67, 0
1, 25680, Note_on_c, 0, 66, 52
1, 25680, Note_on_c, 0, 69, 66
1, 25680, Note_on_c, 0, 57, 47
1, 25680, Note_on_c, 0, 62, 47
1, 25680, Note_on_c, 0, 60, 47
1, 25691, Control_c, 0, 64, 0
1, 25740, Control_c, 0, 64, 127
1, 25860, Note_on_c, 0, 69, 0
1, 25860, Note_on_c, 0, 66, 0
1, 25920, Tempo, 1318681
1, 25920, Note_on_c, 0, 62, 0
1, 25920, Note_on_c, 0, 57, 0
1, 25920, Note_on_c, 0, 60, 0
1, 25920, Note_on_c, 0, 66, 51
1, 25920, Note_on_c, 0, 69, 65
1, 25920, Note_on_c, 0, 60, 50
1, 25920, Note_on_c, 0, 55, 50
1, 25920, Note_on_c, 0, 62, 50
1, 25930, Control_c, 0, 64, 0
1, 25970, Control_c, 0, 64, 127
1, 26400, Note_on_c, 0, 60, 0
1, 26400, Note_on_c, 0, 66, 0
1, 26400, Note_on_c, 0, 69, 0
1, 26400, Note_on_c, 0, 67, 45
1, 26400, Note_on_c, 0, 70, 56
1, 26400, Note_on_c, 0, 58, 48
1, 26414, Control_c, 0, 64, 0
1, 26453, Control_c, 0, 64, 127
1, 26616, Note_on_c, 0, 58, 0
1, 26616, Note_on_c, 0, 67, 0
1, 26616, Note_on_c, 0, 70, 0
1, 26640, Tempo, 1276596
1, 26640, Note_on_c, 0, 55, 0
1, 26640, Note_on_c, 0, 62, 0
1, 26640, Note_on_c, 0, 64, 51
1, 26640, Note_on_c, 0, 58, 44
1, 26640, Note_on_c, 0, 61, 44
1, 26647, Control_c, 0, 64, 0
1, 26697, Control_c, 0, 64, 127
1, 26880, Note_on_c, 0, 61, 0
1, 26880, Note_on_c, 0, 58, 0
1, 26880, Note_on_c, 0, 64, 0
1, 26880, Note_on_c, 0, 65, 55
1, 26880, Note_on_c, 0, 60, 48
1, 26880, Note_on_c, 0, 57, 48
1, 26894, Control_c, 0, 64, 0
1, 26926, Control_c, 0, 64, 127
1, 27120, Note_on_c, 0, 57, 0
1, 27120, Note_on_c, 0, 60, 0
1, 27120, Note_on_c, 0, 65, 0
1, 27120, Note_on_c, 0, 64, 53
1, 27120, Note_on_c, 0, 67, 53
1, 27120, Note_on_c, 0, 55, 45
1, 27120, Note_on_c, 0, 60, 45
1, 27120, Note_on_c, 0, 58, 45
1, 27134, Control_c, 0, 64, 0
1, 27170, Control_c, 0, 64, 127
1, 27300, Note_on_c, 0, 67, 0
1, 27300, Note_on_c, 0, 64, 0
1, 27360, Note_on_c, 0, 60, 0
1, 27360, Note_on_c, 0, 55, 0
1, 27360, Note_on_c, 0, 58, 0
1, 27360, Note_on_c, 0, 65, 55
1, 27360, Note_on_c, 0, 69, 61
1, 27360, Note_on_c, 0, 57, 48
1, 27360, Note_on_c, 0, 60, 48
1, 27360, Note_on_c, 0, 53, 48
1, 27366, Control_c, 0, 64, 0
1, 27423, Control_c, 0, 64, 127
1, 27600, Note_on_c, 0, 53, 0
1, 27600, Note_on_c, 0, 57, 0
1, 27600, Note_on_c, 0, 60, 0
1, 27600, Note_on_c, 0, 69, 0
1, 27600, Note_on_c, 0, 70, 68
1, 27600, Note_on_c, 0, 50, 50
1, 27606, Control_c, 0, 64, 0
1, 27663, Control_c, 0, 64, 127
1, 27840, Note_on_c, 0, 50, 0
1, 27840, Note_on_c, 0, 70, 0
1, 27840, Note_on_c, 0, 72, 67
1, 27840, Note_on_c, 0, 45, 54
1, 27857, Control_c, 0, 64, 0
1, 27960, Control_c, 0, 64, 127
1, 28080, Note_on_c, 0, 72, 0
1, 28080, Note_on_c, 0, 73, 70
1, 28320, Tempo, 1304348
1, 28320, Note_on_c, 0, 73, 0
1, 28320, Note_on_c, 0, 45, 0
1, 28320, Note_on_c, 0, 76, 72
1, 28320, Note_on_c, 0, 46, 49
1, 28340, Control_c, 0, 64, 0
1, 28400, Control_c, 0, 64, 127
1, 28440, Note_on_c, 0, 74, 58
1, 28450, Note_on_c, 0, 76, 0
1, 28560, Tempo, 1304348
1, 28560, Note_on_c, 0, 65, 0
1, 28560, Note_on_c, 0, 46, 0
1, 28560, Note_on_c, 0, 72, 65
1, 28560, Note_on_c, 0, 43, 46
1, 28570, Note_on_c, 0, 74, 0
1, 28575, Control_c, 0, 64, 0
1, 28652, Control_c, 0, 64, 127
1, 28680, Tempo, 1420455
1, 28680, Note_on_c, 0, 43, 0
1, 28680, Note_on_c, 0, 67, 55
1, 28680, Note_on_c, 0, 70, 55
1, 28690, Note_on_c, 0, 72, 0
1, 28800, Tempo, 1333333
1, 28800, Note_on_c, 0, 65, 46
1, 28800, Note_on_c, 0, 69, 57
1, 28800, Note_on_c, 0, 48, 43
1, 28808, Control_c, 0, 64, 0
1, 28810, Note_on_c, 0, 70, 0
1, 28810, Note_on_c, 0, 67, 0
1, 28899, Control_c, 0, 64, 127
1, 29280, Note_on_c, 0, 69, 0
1, 29280, Note_on_c, 0, 65, 0
1, 29280, Note_on_c, 0, 64, 40
1, 29280, Note_on_c, 0, 67, 51
1, 29296, Control_c, 0, 64, 0
1, 29520, Tempo, 1304348
1, 29520, Note_on_c, 0, 67, 0
1, 29520, Note_on_c, 0, 64, 0
1, 29520, Note_on_c, 0, 72, 65
1, 29619, Control_c, 0, 64, 127
1, 29760, Note_on_c, 0, 72, 0
1, 29760, Note_on_c, 0, 48, 0
1, 29760, Note_on_c, 0, 72, 66
1, 30000, Tempo, 1379310
1, 30000, Note_on_c, 0, 72, 0
1, 30000, Note_on_c, 0, 72, 72
1, 30240, Tempo, 1304348
1, 30240, Note_on_c, 0, 72, 0
1, 30240, Note_on_c, 0, 72, 81
1, 30240, Note_on_c, 0, 82, 81
1, 30240, Note_on_c, 0, 36, 53
1, 30240, Note_on_c, 0, 48, 64
1, 30251, Control_c, 0, 64, 0
1, 30283, Control_c, 0, 64, 127
1, 30600, Note_on_c, 0, 48, 0
1, 30600, Note_on_c, 0, 36, 0
1, 30600, Note_on_c, 0, 38, 51
1, 30600, Note_on_c, 0, 50, 60
1, 30720, Note_on_c, 0, 50, 0
1, 30720, Note_on_c, 0, 38, 0
1, 30720, Note_on_c, 0, 52, 64
1, 30720, Note_on_c, 0, 40, 53
1, 30735, Control_c, 0, 64, 0
1, 30900, Note_on_c, 0, 40, 0
1, 30900, Note_on_c, 0, 52, 0
1, 30960, Tempo, 1276596
1, 30960, Note_on_c, 0, 82, 0
1, 30960, Note_on_c, 0, 81, 69
1, 30960, Note_on_c, 0, 41, 40
1, 30960, Note_on_c, 0, 53, 48
1, 31010, Control_c, 0, 64, 127
1, 31140, Note_on_c, 0, 53, 0
1, 31140, Note_on_c, 0, 41, 0
1, 31200, Note_on_c, 0, 81, 0
1, 31200, Note_on_c, 0, 79, 70
1, 31200, Note_on_c, 0, 70, 58
1, 31200, Note_on_c, 0, 55, 53
1, 31200, Note_on_c, 0, 43, 45
1, 31216, Control_c, 0, 64, 0
1, 31264, Control_c, 0, 64, 127
1, 31380, Note_on_c, 0, 43, 0
1, 31380, Note_on_c, 0, 55, 0
1, 31440, Tempo, 1333333
1, 31440, Note_on_c, 0, 70, 0
1, 31440, Note_on_c, 0, 79, 0
1, 31440, Note_on_c, 0, 69, 56
1, 31440, Note_on_c, 0, 77, 66
1, 31440, Note_on_c, 0, 45, 42
1, 31440, Note_on_c, 0, 57, 50
1, 31447, Control_c, 0, 64, 0
1, 31486, Control_c, 0, 64, 127
1, 31620, Note_on_c, 0, 57, 0
1, 31620, Note_on_c, 0, 45, 0
1, 31680, Tempo, 1378676
1, 31680, Note_on_c, 0, 77, 0
1, 31680, Note_on_c, 0, 69, 0
1, 31680, Note_on_c, 0, 77, 66
1, 31680, Note_on_c, 0, 67, 55
1, 31680, Note_on_c, 0, 46, 45
1, 31680, Note_on_c, 0, 58, 53
1, 31689, Control_c, 0, 64, 0
1, 31863, Control_c, 0, 64, 127
1, 32160, Tempo, 1395349
1, 32160, Note_on_c, 0, 77, 0
1, 32160, Note_on_c, 0, 76, 56
1, 32175, Control_c, 0, 64, 0
1, 32400, Tempo, 1333333
1, 32400, Note_on_c, 0, 76, 0
1, 32400, Note_on_c, 0, 75, 51
1, 32526, Control_c, 0, 64, 127
1, 32640, Note_on_c, 0, 75, 0
1, 32640, Note_on_c, 0, 46, 0
1, 32640, Note_on_c, 0, 72, 0
1, 32640, Note_on_c, 0, 67, 0
1, 32640, Note_on_c, 0, 58, 0
1, 32640, Note_on_c, 0, 75, 48
1, 32880, Note_on_c, 0, 75, 0
1, 32880, Note_on_c, 0, 75, 47
1, 33100, Tempo, 1188119
1, 33120, Note_on_c, 0, 75, 0
1, 33120, Note_on_c, 0, 75, 39
1, 33120, Note_on_c, 0, 65, 43
1, 33120, Note_on_c, 0, 57, 37
1, 33120, Note_on_c, 0, 60, 37
1, 33120, Control_c, 0, 64, 0
1, 33124, Tempo, 1176471
1, 33149, Control_c, 0, 64, 127
1, 33150, Note_on_c, 0, 75, 0
1, 33150, Note_on_c, 0, 77, 40
1, 33152, Tempo, 1165049
1, 33180, Tempo, 1153846
1, 33180, Note_on_c, 0, 77, 0
1, 33180, Note_on_c, 0, 75, 42
1, 33204, Tempo, 1142857
1, 33210, Note_on_c, 0, 75, 0
1, 33210, Note_on_c, 0, 77, 42
1, 33232, Tempo, 1132075
1, 33240, Note_on_c, 0, 77, 0
1, 33240, Note_on_c, 0, 75, 42
1, 33260, Tempo, 1121495
1, 33270, Note_on_c, 0, 75, 0
1, 33270, Note_on_c, 0, 77, 42
1, 33272, Tempo, 1132075
1, 33284, Tempo, 1153846
1, 33300, Tempo, 1165049
1, 33300, Note_on_c, 0, 77, 0
1, 33300, Note_on_c, 0, 75, 39
1, 33312, Tempo, 1188119
1, 33324, Tempo, 1212121
1, 33330, Note_on_c, 0, 75, 0
1, 33330, Note_on_c, 0, 77, 38
1, 33332, Tempo, 1121495
1, 33340, Tempo, 1071429
1, 33360, Tempo, 1224490
1, 33360, Note_on_c, 0, 77, 0
1, 33360, Note_on_c, 0, 75, 46
1, 33448, Tempo, 1363636
1, 33480, Note_on_c, 0, 75, 0
1, 33480, Note_on_c, 0, 77, 50
1, 33600, Note_on_c, 0, 77, 0
1, 33600, Note_on_c, 0, 60, 0
1, 33600, Note_on_c, 0, 57, 0
1, 33600, Note_on_c, 0, 65, 0
1, 33600, Note_on_c, 0, 79, 55
1, 33600, Note_on_c, 0, 65, 43
1, 33600, Note_on_c, 0, 57, 37
1, 33600, Note_on_c, 0, 60, 37
1, 33612, Control_c, 0, 64, 0
1, 33641, Control_c, 0, 64, 127
1, 33840, Note_on_c, 0, 79, 0
1, 33840, Note_on_c, 0, 77, 54
1, 33960, Note_on_c, 0, 77, 0
1, 33960, Note_on_c, 0, 75, 51
1, 34080, Note_on_c, 0, 75, 0
1, 34080, Note_on_c, 0, 65, 0
1, 34080, Note_on_c, 0, 57, 0
1, 34080, Note_on_c, 0, 60, 0
1, 34080, Note_on_c, 0, 75, 53
1, 34080, Note_on_c, 0, 65, 37
1, 34080, Note_on_c, 0, 57, 33
1, 34080, Note_on_c, 0, 63, 33
1, 34093, Control_c, 0, 64, 0
1, 34114, Control_c, 0, 64, 127
1, 34200, Note_on_c, 0, 75, 0
1, 34200, Note_on_c, 0, 74, 49
1, 34314, Note_on_c, 0, 74, 0
1, 34320, Note_on_c, 0, 74, 52
1, 34332, Control_c, 0, 64, 0
1, 34356, Control_c, 0, 64, 127
1, 34440, Tempo, 1569038
1, 34440, Note_on_c, 0, 74, 0
1, 34440, Note_on_c, 0, 73, 50
1, 34552, Note_on_c, 0, 73, 0
1, 34560, Tempo, 1356239
1, 34560, Note_on_c, 0, 63, 0
1, 34560, Note_on_c, 0, 57, 0
1, 34560, Note_on_c, 0, 65, 0
1, 34560, Note_on_c, 0, 73, 55
1, 34560, Note_on_c, 0, 62, 22
1, 34560, Note_on_c, 0, 58, 22
1, 34560, Note_on_c, 0, 65, 28
1, 34566, Control_c, 0, 64, 0
1, 34708, Control_c, 0, 64, 127
1, 35040, Tempo, 1333333
1, 35040, Note_on_c, 0, 73, 0
1, 35040, Note_on_c, 0, 74, 50
1, 35054, Control_c, 0, 64, 0
1, 35280, Tempo, 1290323
1, 35280, Note_on_c, 0, 74, 0
1, 35280, Note_on_c, 0, 77, 54
1, 35400, Note_on_c, 0, 77, 0
1, 35400, Note_on_c, 0, 76, 51
1, 35520, Note_on_c, 0, 76, 0
1, 35520, Note_on_c, 0, 65, 0
1, 35520, Note_on_c, 0, 58, 0
1, 35520, Note_on_c, 0, 62, 0
1, 35520, Note_on_c, 0, 79, 59
1, 35640, Note_on_c, 0, 79, 0
1, 35640, Note_on_c, 0, 77, 53
1, 35760, Tempo, 1428571
1, 35760, Note_on_c, 0, 77, 0
1, 35760, Note_on_c, 0, 76, 54
1, 35880, Tempo, 1518987
1, 35880, Note_on_c, 0, 76, 0
1, 35880, Note_on_c, 0, 74, 49
1, 35992, Note_on_c, 0, 74, 0
1, 36000, Tempo, 1348315
1, 36000, Note_on_c, 0, 74, 49
1, 36000, Note_on_c, 0, 58, 28
1, 36000, Note_on_c, 0, 53, 28
1, 36000, Note_on_c, 0, 62, 35
1, 36039, Control_c, 0, 64, 127
1, 36480, Note_on_c, 0, 62, 0
1, 36480, Note_on_c, 0, 74, 0
1, 36480, Note_on_c, 0, 58, 0
1, 36480, Note_on_c, 0, 72, 48
1, 36480, Note_on_c, 0, 57, 26
1, 36480, Note_on_c, 0, 60, 33
1, 36491, Control_c, 0, 64, 0
1, 36544, Control_c, 0, 64, 127
1, 36720, Tempo, 1188119
1, 36720, Note_on_c, 0, 72, 0
1, 36720, Note_on_c, 0, 77, 57
1, 36840, Tempo, 1263158
1, 36900, Note_on_c, 0, 77, 0
1, 36900, Note_on_c, 0, 72, 51
1, 36960, Tempo, 1188119
1, 36960, Note_on_c, 0, 72, 0
1, 36960, Note_on_c, 0, 53, 0
1, 36960, Note_on_c, 0, 57, 0
1, 36960, Note_on_c, 0, 60, 0
1, 36960, Note_on_c, 0, 81, 65
1, 37080, Tempo, 1263158
1, 37140, Note_on_c, 0, 81, 0
1, 37140, Note_on_c, 0, 77, 58
1, 37200, Note_on_c, 0, 77, 0
1, 37200, Note_on_c, 0, 72, 66
1, 37380, Note_on_c, 0, 72, 0
1, 37380, Note_on_c, 0, 69, 57
1, 37440, Tempo, 1237113
1, 37440, Note_on_c, 0, 69, 0
1, 37440, Note_on_c, 0, 72, 69
1, 37440, Note_on_c, 0, 52, 43
1, 37440, Note_on_c, 0, 60, 43
1, 37440, Note_on_c, 0, 55, 43
1, 37448, Control_c, 0, 64, 0
1, 37490, Control_c, 0, 64, 127
1, 37800, Note_on_c, 0, 72, 0
1, 37800, Note_on_c, 0, 71, 55
1, 37812, Control_c, 0, 64, 0
1, 37920, Note_on_c, 0, 71, 0
1, 37920, Note_on_c, 0, 70, 55
1, 38160, Tempo, 1200000
1, 38160, Note_on_c, 0, 70, 0
1, 38160, Note_on_c, 0, 52, 0
1, 38160, Note_on_c, 0, 60, 0
1, 38160, Note_on_c, 0, 55, 0
1, 38160, Note_on_c, 0, 67, 75
1, 38160, Note_on_c, 0, 64, 67
1, 38160, Note_on_c, 0, 58, 48
1, 38160, Note_on_c, 0, 46, 42
1, 38213, Control_c, 0, 64, 127
1, 38280, Tempo, 1263158
1, 38340, Note_on_c, 0, 64, 0
1, 38340, Note_on_c, 0, 60, 64
1, 38400, Tempo, 1176471
1, 38400, Note_on_c, 0, 60, 0
1, 38400, Note_on_c, 0, 46, 0
1, 38400, Note_on_c, 0, 58, 0
1, 38400, Note_on_c, 0, 67, 0
1, 38400, Note_on_c, 0, 65, 69
1, 38400, Note_on_c, 0, 69, 76
1, 38400, Note_on_c, 0, 57, 50
1, 38400, Note_on_c, 0, 45, 44
1, 38409, Control_c, 0, 64, 0
1, 38436, Control_c, 0, 64, 127
1, 38520, Tempo, 1263158
1, 38580, Note_on_c, 0, 65, 0
1, 38580, Note_on_c, 0, 60, 65
1, 38640, Tempo, 1176471
1, 38640, Note_on_c, 0, 60, 0
1, 38640, Note_on_c, 0, 45, 0
1, 38640, Note_on_c, 0, 57, 0
1, 38640, Note_on_c, 0, 69, 0
1, 38640, Note_on_c, 0, 70, 78
1, 38640, Note_on_c, 0, 67, 70
1, 38640, Note_on_c, 0, 55, 50
1, 38640, Note_on_c, 0, 43, 44
1, 38657, Control_c, 0, 64, 0
1, 38704, Control_c, 0, 64, 127
1, 38760, Tempo, 1237113
1, 38820, Note_on_c, 0, 67, 0
1, 38820, Note_on_c, 0, 60, 69
1, 38820, Control_c, 0, 64, 0
1, 38880, Tempo, 1411765
1, 38880, Note_on_c, 0, 60, 0
1, 38880, Note_on_c, 0, 43, 0
1, 38880, Note_on_c, 0, 55, 0
1, 38880, Note_on_c, 0, 70, 0
1, 38880, Note_on_c, 0, 69, 70
1, 38880, Note_on_c, 0, 72, 80
1, 38880, Note_on_c, 0, 53, 54
1, 38880, Note_on_c, 0, 41, 49
1, 39000, Tempo, 1348315
1, 39000, Note_on_c, 0, 72, 0
1, 39000, Note_on_c, 0, 74, 53
1, 39120, Note_on_c, 0, 74, 0
1, 39120, Note_on_c, 0, 41, 0
1, 39120, Note_on_c, 0, 53, 0
1, 39120, Note_on_c, 0, 69, 0
1, 39120, Note_on_c, 0, 76, 54
1, 39240, Note_on_c, 0, 76, 0
1, 39240, Note_on_c, 0, 77, 47
1, 39360, Tempo, 1318681
1, 39360, Note_on_c, 0, 77, 0
1, 39360, Note_on_c, 0, 60, 38
1, 39360, Note_on_c, 0, 65, 49
1, 39360, Note_on_c, 0, 48, 33
1, 39360, Note_on_c, 0, 57, 38
1, 39438, Control_c, 0, 64, 127
1, 39812, Control_c, 0, 64, 0
1, 39840, Note_on_c, 0, 57, 0
1, 39840, Note_on_c, 0, 58, 32
1, 39904, Control_c, 0, 64, 127
1, 40080, Tempo, 1348315
1, 40080, Note_on_c, 0, 60, 0
1, 40080, Note_on_c, 0, 65, 0
1, 40080, Note_on_c, 0, 64, 37
1, 40080, Note_on_c, 0, 69, 47
1, 40140, Tempo, 1454898
1, 40200, Note_on_c, 0, 69, 0
1, 40200, Note_on_c, 0, 67, 44
1, 40320, Tempo, 1326260
1, 40320, Note_on_c, 0, 67, 0
1, 40320, Note_on_c, 0, 64, 0
1, 40320, Note_on_c, 0, 48, 0
1, 40320, Note_on_c, 0, 58, 0
1, 40320, Note_on_c, 0, 65, 47
1, 40320, Note_on_c, 0, 53, 28
1, 40320, Note_on_c, 0, 57, 34
1, 40327, Control_c, 0, 64, 0
1, 40405, Control_c, 0, 64, 127
1, 40800, Note_on_c, 0, 57, 0
1, 40800, Note_on_c, 0, 53, 0
1, 40800, Note_on_c, 0, 65, 0
1, 40800, Note_on_c, 0, 41, 28
1, 40948, Control_c, 0, 64, 0
1, 41040, Tempo, 1290323
1, 41040, Marker_t, "Teil2 Wiederholung"
1, 41040, Note_on_c, 0, 41, 0
1, 41040, Control_c, 0, 91, 127
1, 41040, Note_on_c, 0, 72, 50
1, 41040, Control_c, 0, 91, 127
1, 41280, Note_on_c, 0, 72, 0
1, 41280, Note_on_c, 0, 74, 54
1, 41400, Note_on_c, 0, 72, 50
1, 41410, Note_on_c, 0, 74, 0
1, 41520, Note_on_c, 0, 70, 55
1, 41530, Note_on_c, 0, 72, 0
1, 41640, Tempo, 1420455
1, 41640, Note_on_c, 0, 69, 49
1, 41650, Note_on_c, 0, 70, 0
1, 41760, Tempo, 1333333
1, 41760, Note_on_c, 0, 67, 61
1, 41760, Note_on_c, 0, 63, 46
1, 41760, Note_on_c, 0, 60, 46
1, 41770, Note_on_c, 0, 69, 0
1, 41796, Control_c, 0, 64, 127
1, 42240, Tempo, 1276596
1, 42240, Note_on_c, 0, 67, 0
1, 42240, Note_on_c, 0, 66, 51
1, 42249, Control_c, 0, 64, 0
1, 42294, Control_c, 0, 64, 127
1, 42475, Note_on_c, 0, 66, 0
1, 42480, Tempo, 1263158
1, 42480, Note_on_c, 0, 63, 0
1, 42480, Note_on_c, 0, 60, 0
1, 42480, Note_on_c, 0, 66, 63
1, 42480, Note_on_c, 0, 63, 46
1, 42480, Note_on_c, 0, 60, 46
1, 42720, Note_on_c, 0, 60, 0
1, 42720, Note_on_c, 0, 63, 0
1, 42720, Note_on_c, 0, 66, 0
1, 42720, Note_on_c, 0, 67, 65
1, 42720, Note_on_c, 0, 62, 47
1, 42720, Note_on_c, 0, 58, 47
1, 42729, Control_c, 0, 64, 0
1, 42767, Control_c, 0, 64, 127
1, 42960, Tempo, 1379310
1, 42960, Note_on_c, 0, 58, 0
1, 42960, Note_on_c, 0, 62, 0
1, 42960, Note_on_c, 0, 67, 0
1, 42960, Note_on_c, 0, 66, 52
1, 42960, Note_on_c, 0, 69, 66
1, 42960, Note_on_c, 0, 57, 47
1, 42960, Note_on_c, 0, 60, 47
1, 42960, Note_on_c, 0, 62, 47
1, 42972, Control_c, 0, 64, 0
1, 43021, Control_c, 0, 64, 127
1, 43140, Note_on_c, 0, 69, 0
1, 43140, Note_on_c, 0, 66, 0
1, 43200, Tempo, 1318681
1, 43200, Note_on_c, 0, 60, 0
1, 43200, Note_on_c, 0, 57, 0
1, 43200, Note_on_c, 0, 62, 0
1, 43200, Note_on_c, 0, 66, 51
1, 43200, Note_on_c, 0, 69, 65
1, 43200, Note_on_c, 0, 60, 50
1, 43200, Note_on_c, 0, 62, 50
1, 43200, Note_on_c, 0, 55, 50
1, 43211, Control_c, 0, 64, 0
1, 43250, Control_c, 0, 64, 127
1, 43680, Note_on_c, 0, 60, 0
1, 43680, Note_on_c, 0, 66, 0
1, 43680, Note_on_c, 0, 69, 0
1, 43680, Note_on_c, 0, 67, 45
1, 43680, Note_on_c, 0, 70, 56
1, 43680, Note_on_c, 0, 58, 48
1, 43695, Control_c, 0, 64, 0
1, 43734, Control_c, 0, 64, 127
1, 43896, Note_on_c, 0, 58, 0
1, 43896, Note_on_c, 0, 67, 0
1, 43896, Note_on_c, 0, 70, 0
1, 43920, Tempo, 1276596
1, 43920, Note_on_c, 0, 62, 0
1, 43920, Note_on_c, 0, 55, 0
1, 43920, Note_on_c, 0, 64, 51
1, 43920, Note_on_c, 0, 61, 44
1, 43920, Note_on_c, 0, 58, 44
1, 43928, Control_c, 0, 64, 0
1, 43977, Control_c, 0, 64, 127
1, 44160, Note_on_c, 0, 58, 0
1, 44160, Note_on_c, 0, 61, 0
1, 44160, Note_on_c, 0, 64, 0
1, 44160, Note_on_c, 0, 65, 55
1, 44160, Note_on_c, 0, 60, 48
1, 44160, Note_on_c, 0, 57, 48
1, 44175, Control_c, 0, 64, 0
1, 44207, Control_c, 0, 64, 127
1, 44400, Note_on_c, 0, 57, 0
1, 44400, Note_on_c, 0, 60, 0
1, 44400, Note_on_c, 0, 65, 0
1, 44400, Note_on_c, 0, 64, 53
1, 44400, Note_on_c, 0, 67, 53
1, 44400, Note_on_c, 0, 55, 45
1, 44400, Note_on_c, 0, 58, 45
1, 44400, Note_on_c, 0, 60, 45
1, 44415, Control_c, 0, 64, 0
1, 44450, Control_c, 0, 64, 127
1, 44580, Note_on_c, 0, 67, 0
1, 44580, Note_on_c, 0, 64, 0
1, 44640, Note_on_c, 0, 58, 0
1, 44640, Note_on_c, 0, 55, 0
1, 44640, Note_on_c, 0, 60, 0
1, 44640, Note_on_c, 0, 65, 55
1, 44640, Note_on_c, 0, 69, 61
1, 44640, Note_on_c, 0, 53, 48
1, 44640, Note_on_c, 0, 57, 48
1, 44640, Note_on_c, 0, 60, 48
1, 44647, Control_c, 0, 64, 0
1, 44704, Control_c, 0, 64, 127
1, 44880, Note_on_c, 0, 60, 0
1, 44880, Note_on_c, 0, 53, 0
1, 44880, Note_on_c, 0, 57, 0
1, 44880, Note_on_c, 0, 69, 0
1, 44880, Note_on_c, 0, 70, 68
1, 44880, Note_on_c, 0, 50, 50
1, 44887, Control_c, 0, 64, 0
1, 44944, Control_c, 0, 64, 127
1, 45120, Note_on_c, 0, 50, 0
1, 45120, Note_on_c, 0, 70, 0
1, 45120, Note_on_c, 0, 72, 70
1, 45120, Note_on_c, 0, 45, 54
1, 45138, Control_c, 0, 64, 0
1, 45241, Control_c, 0, 64, 127
1, 45360, Note_on_c, 0, 72, 0
1, 45360, Note_on_c, 0, 73, 70
1, 45600, Tempo, 1304348
1, 45600, Note_on_c, 0, 73, 0
1, 45600, Note_on_c, 0, 45, 0
1, 45600, Note_on_c, 0, 76, 70
1, 45600, Note_on_c, 0, 46, 53
1, 45621, Control_c, 0, 64, 0
1, 45681, Control_c, 0, 64, 127
1, 45720, Note_on_c, 0, 74, 58
1, 45730, Note_on_c, 0, 76, 0
1, 45840, Note_on_c, 0, 65, 0
1, 45840, Note_on_c, 0, 46, 0
1, 45840, Note_on_c, 0, 72, 65
1, 45840, Note_on_c, 0, 43, 46
1, 45850, Note_on_c, 0, 74, 0
1, 45856, Control_c, 0, 64, 0
1, 45932, Control_c, 0, 64, 127
1, 45960, Note_on_c, 0, 43, 0
1, 45960, Note_on_c, 0, 67, 55
1, 45960, Note_on_c, 0, 70, 55
1, 45970, Note_on_c, 0, 72, 0
1, 46080, Tempo, 1333333
1, 46080, Note_on_c, 0, 65, 46
1, 46080, Note_on_c, 0, 69, 57
1, 46080, Note_on_c, 0, 48, 43
1, 46089, Control_c, 0, 64, 0
1, 46090, Note_on_c, 0, 70, 0
1, 46090, Note_on_c, 0, 67, 0
1, 46180, Control_c, 0, 64, 127
1, 46560, Note_on_c, 0, 69, 0
1, 46560, Note_on_c, 0, 65, 0
1, 46560, Note_on_c, 0, 64, 40
1, 46560, Note_on_c, 0, 67, 51
1, 46577, Control_c, 0, 64, 0
1, 46800, Tempo, 1304348
1, 46800, Note_on_c, 0, 67, 0
1, 46800, Note_on_c, 0, 64, 0
1, 46800, Note_on_c, 0, 72, 65
1, 46900, Control_c, 0, 64, 127
1, 47040, Note_on_c, 0, 72, 0
1, 47040, Note_on_c, 0, 48, 0
1, 47040, Note_on_c, 0, 72, 66
1, 47280, Tempo, 1379310
1, 47280, Note_on_c, 0, 72, 0
1, 47280, Note_on_c, 0, 72, 72
1, 47520, Tempo, 1304348
1, 47520, Note_on_c, 0, 72, 0
1, 47520, Note_on_c, 0, 72, 81
1, 47520, Note_on_c, 0, 82, 81
1, 47520, Note_on_c, 0, 36, 53
1, 47520, Note_on_c, 0, 48, 64
1, 47532, Control_c, 0, 64, 0
1, 47563, Control_c, 0, 64, 127
1, 47880, Note_on_c, 0, 48, 0
1, 47880, Note_on_c, 0, 36, 0
1, 47880, Note_on_c, 0, 38, 51
1, 47880, Note_on_c, 0, 50, 60
1, 48000, Note_on_c, 0, 50, 0
1, 48000, Note_on_c, 0, 38, 0
1, 48000, Note_on_c, 0, 40, 53
1, 48000, Note_on_c, 0, 52, 64
1, 48016, Control_c, 0, 64, 0
1, 48180, Note_on_c, 0, 52, 0
1, 48180, Note_on_c, 0, 40, 0
1, 48240, Tempo, 1276596
1, 48240, Note_on_c, 0, 82, 0
1, 48240, Note_on_c, 0, 81, 69
1, 48240, Note_on_c, 0, 41, 40
1, 48240, Note_on_c, 0, 53, 48
1, 48290, Control_c, 0, 64, 127
1, 48420, Note_on_c, 0, 53, 0
1, 48420, Note_on_c, 0, 41, 0
1, 48480, Note_on_c, 0, 81, 0
1, 48480, Note_on_c, 0, 70, 58
1, 48480, Note_on_c, 0, 79, 70
1, 48480, Note_on_c, 0, 43, 45
1, 48480, Note_on_c, 0, 55, 53
1, 48497, Control_c, 0, 64, 0
1, 48544, Control_c, 0, 64, 127
1, 48660, Note_on_c, 0, 55, 0
1, 48660, Note_on_c, 0, 43, 0
1, 48720, Tempo, 1333333
1, 48720, Note_on_c, 0, 79, 0
1, 48720, Note_on_c, 0, 70, 0
1, 48720, Note_on_c, 0, 69, 56
1, 48720, Note_on_c, 0, 77, 66
1, 48720, Note_on_c, 0, 45, 42
1, 48720, Note_on_c, 0, 57, 50
1, 48728, Control_c, 0, 64, 0
1, 48767, Control_c, 0, 64, 127
1, 48900, Note_on_c, 0, 57, 0
1, 48900, Note_on_c, 0, 45, 0
1, 48960, Tempo, 1378676
1, 48960, Note_on_c, 0, 77, 0
1, 48960, Note_on_c, 0, 69, 0
1, 48960, Note_on_c, 0, 67, 60
1, 48960, Note_on_c, 0, 77, 60
1, 48960, Note_on_c, 0, 46, 45
1, 48960, Note_on_c, 0, 58, 53
1, 48970, Control_c, 0, 64, 0
1, 49144, Control_c, 0, 64, 127
1, 49440, Tempo, 1395349
1, 49440, Note_on_c, 0, 77, 0
1, 49440, Note_on_c, 0, 76, 56
1, 49456, Control_c, 0, 64, 0
1, 49680, Tempo, 1333333
1, 49680, Note_on_c, 0, 76, 0
1, 49680, Note_on_c, 0, 75, 51
1, 49806, Control_c, 0, 64, 127
1, 49920, Note_on_c, 0, 75, 0
1, 49920, Note_on_c, 0, 46, 0
1, 49920, Note_on_c, 0, 72, 0
1, 49920, Note_on_c, 0, 67, 0
1, 49920, Note_on_c, 0, 58, 0
1, 49920, Note_on_c, 0, 75, 50
1, 50160, Note_on_c, 0, 75, 0
1, 50160, Note_on_c, 0, 75, 46
1, 50372, Tempo, 1188119
1, 50400, Tempo, 1176471
1, 50400, Note_on_c, 0, 75, 0
1, 50400, Note_on_c, 0, 75, 40
1, 50400, Note_on_c, 0, 65, 43
1, 50400, Note_on_c, 0, 60, 37
1, 50400, Note_on_c, 0, 57, 37
1, 50401, Control_c, 0, 64, 0
1, 50428, Tempo, 1165049
1, 50430, Control_c, 0, 64, 127
1, 50430, Note_on_c, 0, 75, 0
1, 50430, Note_on_c, 0, 77, 42
1, 50440, Tempo, 1153846
1, 50460, Note_on_c, 0, 77, 0
1, 50460, Note_on_c, 0, 75, 43
1, 50468, Tempo, 1142857
1, 50480, Tempo, 1132075
1, 50490, Note_on_c, 0, 75, 0
1, 50490, Note_on_c, 0, 77, 45
1, 50508, Tempo, 1121495
1, 50520, Tempo, 1111111
1, 50520, Note_on_c, 0, 77, 0
1, 50520, Note_on_c, 0, 75, 45
1, 50532, Tempo, 1121495
1, 50548, Tempo, 1132075
1, 50550, Note_on_c, 0, 75, 0
1, 50550, Note_on_c, 0, 77, 45
1, 50560, Tempo, 1153846
1, 50572, Tempo, 1165049
1, 50580, Note_on_c, 0, 77, 0
1, 50580, Note_on_c, 0, 75, 43
1, 50588, Tempo, 1188119
1, 50600, Tempo, 1200000
1, 50610, Note_on_c, 0, 75, 0
1, 50610, Note_on_c, 0, 77, 42
1, 50612, Tempo, 1224490
1, 50620, Tempo, 1100917
1, 50628, Tempo, 1132075
1, 50640, Tempo, 1250000
1, 50640, Note_on_c, 0, 77, 0
1, 50640, Note_on_c, 0, 75, 47
1, 50728, Tempo, 1363636
1, 50760, Note_on_c, 0, 75, 0
1, 50760, Note_on_c, 0, 77, 47
1, 50880, Note_on_c, 0, 77, 0
1, 50880, Note_on_c, 0, 57, 0
1, 50880, Note_on_c, 0, 60, 0
1, 50880, Note_on_c, 0, 65, 0
1, 50880, Note_on_c, 0, 79, 54
1, 50880, Note_on_c, 0, 65, 43
1, 50880, Note_on_c, 0, 57, 37
1, 50880, Note_on_c, 0, 60, 37
1, 50893, Control_c, 0, 64, 0
1, 50921, Control_c, 0, 64, 127
1, 51120, Note_on_c, 0, 79, 0
1, 51120, Note_on_c, 0, 77, 54
1, 51240, Note_on_c, 0, 77, 0
1, 51240, Note_on_c, 0, 75, 51
1, 51355, Note_on_c, 0, 75, 0
1, 51360, Note_on_c, 0, 65, 0
1, 51360, Note_on_c, 0, 57, 0
1, 51360, Note_on_c, 0, 60, 0
1, 51360, Note_on_c, 0, 75, 54
1, 51360, Note_on_c, 0, 65, 37
1, 51360, Note_on_c, 0, 57, 33
1, 51360, Note_on_c, 0, 63, 33
1, 51374, Control_c, 0, 64, 0
1, 51395, Control_c, 0, 64, 127
1, 51480, Note_on_c, 0, 75, 0
1, 51480, Note_on_c, 0, 74, 49
1, 51596, Note_on_c, 0, 74, 0
1, 51600, Note_on_c, 0, 74, 53
1, 51613, Control_c, 0, 64, 0
1, 51636, Control_c, 0, 64, 127
1, 51720, Tempo, 1655629
1, 51720, Note_on_c, 0, 74, 0
1, 51720, Note_on_c, 0, 73, 49
1, 51835, Note_on_c, 0, 73, 0
1, 51840, Tempo, 1387604
1, 51840, Note_on_c, 0, 63, 0
1, 51840, Note_on_c, 0, 57, 0
1, 51840, Note_on_c, 0, 65, 0
1, 51840, Note_on_c, 0, 73, 55
1, 51840, Note_on_c, 0, 62, 22
1, 51840, Note_on_c, 0, 58, 22
1, 51840, Note_on_c, 0, 65, 28
1, 51847, Control_c, 0, 64, 0
1, 51989, Control_c, 0, 64, 127
1, 52320, Tempo, 1333333
1, 52320, Note_on_c, 0, 73, 0
1, 52320, Note_on_c, 0, 74, 50
1, 52335, Control_c, 0, 64, 0
1, 52560, Tempo, 1290323
1, 52560, Note_on_c, 0, 74, 0
1, 52560, Note_on_c, 0, 77, 56
1, 52680, Note_on_c, 0, 77, 0
1, 52680, Note_on_c, 0, 76, 53
1, 52800, Note_on_c, 0, 76, 0
1, 52800, Note_on_c, 0, 65, 0
1, 52800, Note_on_c, 0, 58, 0
1, 52800, Note_on_c, 0, 62, 0
1, 52800, Note_on_c, 0, 79, 59
1, 52920, Note_on_c, 0, 79, 0
1, 52920, Note_on_c, 0, 77, 53
1, 53040, Tempo, 1428571
1, 53040, Note_on_c, 0, 77, 0
1, 53040, Note_on_c, 0, 76, 54
1, 53160, Tempo, 1491054
1, 53160, Note_on_c, 0, 76, 0
1, 53160, Note_on_c, 0, 74, 50
1, 53275, Note_on_c, 0, 74, 0
1, 53280, Tempo, 1348315
1, 53280, Note_on_c, 0, 74, 49
1, 53280, Note_on_c, 0, 58, 28
1, 53280, Note_on_c, 0, 53, 28
1, 53280, Note_on_c, 0, 62, 35
1, 53320, Control_c, 0, 64, 127
1, 53760, Note_on_c, 0, 62, 0
1, 53760, Note_on_c, 0, 74, 0
1, 53760, Note_on_c, 0, 58, 0
1, 53760, Note_on_c, 0, 72, 48
1, 53760, Note_on_c, 0, 57, 26
1, 53760, Note_on_c, 0, 60, 33
1, 53772, Control_c, 0, 64, 0
1, 53824, Control_c, 0, 64, 127
1, 54000, Tempo, 1200000
1, 54000, Note_on_c, 0, 72, 0
1, 54000, Note_on_c, 0, 77, 57
1, 54120, Tempo, 1263158
1, 54180, Note_on_c, 0, 77, 0
1, 54180, Note_on_c, 0, 72, 51
1, 54240, Tempo, 1212121
1, 54240, Note_on_c, 0, 72, 0
1, 54240, Note_on_c, 0, 53, 0
1, 54240, Note_on_c, 0, 57, 0
1, 54240, Note_on_c, 0, 60, 0
1, 54240, Note_on_c, 0, 81, 65
1, 54360, Tempo, 1263158
1, 54420, Note_on_c, 0, 81, 0
1, 54420, Note_on_c, 0, 77, 58
1, 54480, Note_on_c, 0, 77, 0
1, 54480, Note_on_c, 0, 72, 66
1, 54660, Note_on_c, 0, 72, 0
1, 54660, Note_on_c, 0, 69, 57
1, 54720, Tempo, 1237113
1, 54720, Note_on_c, 0, 69, 0
1, 54720, Note_on_c, 0, 72, 69
1, 54720, Note_on_c, 0, 55, 43
1, 54720, Note_on_c, 0, 60, 43
1, 54720, Note_on_c, 0, 52, 43
1, 54729, Control_c, 0, 64, 0
1, 54770, Control_c, 0, 64, 127
1, 55080, Note_on_c, 0, 72, 0
1, 55080, Note_on_c, 0, 71, 65
1, 55093, Control_c, 0, 64, 0
1, 55200, Note_on_c, 0, 71, 0
1, 55200, Note_on_c, 0, 70, 65
1, 55440, Tempo, 1188119
1, 55440, Note_on_c, 0, 70, 0
1, 55440, Note_on_c, 0, 55, 0
1, 55440, Note_on_c, 0, 60, 0
1, 55440, Note_on_c, 0, 52, 0
1, 55440, Note_on_c, 0, 64, 67
1, 55440, Note_on_c, 0, 67, 75
1, 55440, Note_on_c, 0, 46, 42
1, 55440, Note_on_c, 0, 58, 48
1, 55494, Control_c, 0, 64, 127
1, 55560, Tempo, 1250000
1, 55620, Note_on_c, 0, 64, 0
1, 55620, Note_on_c, 0, 60, 64
1, 55680, Tempo, 1188119
1, 55680, Note_on_c, 0, 60, 0
1, 55680, Note_on_c, 0, 58, 0
1, 55680, Note_on_c, 0, 46, 0
1, 55680, Note_on_c, 0, 67, 0
1, 55680, Note_on_c, 0, 65, 69
1, 55680, Note_on_c, 0, 69, 76
1, 55680, Note_on_c, 0, 57, 50
1, 55680, Note_on_c, 0, 45, 44
1, 55690, Control_c, 0, 64, 0
1, 55716, Control_c, 0, 64, 127
1, 55800, Tempo, 1250000
1, 55860, Note_on_c, 0, 65, 0
1, 55860, Note_on_c, 0, 60, 65
1, 55920, Tempo, 1200000
1, 55920, Note_on_c, 0, 60, 0
1, 55920, Note_on_c, 0, 45, 0
1, 55920, Note_on_c, 0, 57, 0
1, 55920, Note_on_c, 0, 69, 0
1, 55920, Note_on_c, 0, 67, 71
1, 55920, Note_on_c, 0, 70, 78
1, 55920, Note_on_c, 0, 55, 50
1, 55920, Note_on_c, 0, 43, 44
1, 55938, Control_c, 0, 64, 0
1, 55984, Control_c, 0, 64, 127
1, 56040, Tempo, 1250000
1, 56100, Note_on_c, 0, 67, 0
1, 56100, Note_on_c, 0, 60, 69
1, 56101, Control_c, 0, 64, 0
1, 56160, Tempo, 1411765
1, 56160, Note_on_c, 0, 60, 0
1, 56160, Note_on_c, 0, 43, 0
1, 56160, Note_on_c, 0, 55, 0
1, 56160, Note_on_c, 0, 70, 0
1, 56160, Note_on_c, 0, 72, 80
1, 56160, Note_on_c, 0, 69, 71
1, 56160, Note_on_c, 0, 41, 49
1, 56160, Note_on_c, 0, 53, 54
1, 56280, Tempo, 1348315
1, 56280, Note_on_c, 0, 72, 0
1, 56280, Note_on_c, 0, 74, 51
1, 56400, Note_on_c, 0, 74, 0
1, 56400, Note_on_c, 0, 53, 0
1, 56400, Note_on_c, 0, 41, 0
1, 56400, Note_on_c, 0, 69, 0
1, 56400, Note_on_c, 0, 76, 54
1, 56520, Note_on_c, 0, 76, 0
1, 56520, Note_on_c, 0, 77, 47
1, 56640, Tempo, 1318681
1, 56640, Note_on_c, 0, 77, 0
1, 56640, Note_on_c, 0, 60, 38
1, 56640, Note_on_c, 0, 65, 49
1, 56640, Note_on_c, 0, 57, 37
1, 56640, Note_on_c, 0, 48, 29
1, 56718, Control_c, 0, 64, 127
1, 57093, Control_c, 0, 64, 0
1, 57120, Note_on_c, 0, 57, 0
1, 57120, Note_on_c, 0, 58, 28
1, 57184, Control_c, 0, 64, 127
1, 57360, Tempo, 1348315
1, 57360, Note_on_c, 0, 60, 0
1, 57360, Note_on_c, 0, 65, 0
1, 57360, Note_on_c, 0, 69, 47
1, 57360, Note_on_c, 0, 64, 37
1, 57480, Note_on_c, 0, 69, 0
1, 57480, Note_on_c, 0, 67, 44
1, 57600, Note_on_c, 0, 67, 0
1, 57600, Note_on_c, 0, 64, 0
1, 57600, Note_on_c, 0, 48, 0
1, 57600, Note_on_c, 0, 58, 0
1, 57600, Note_on_c, 0, 65, 47
1, 57600, Note_on_c, 0, 53, 32
1, 57600, Note_on_c, 0, 57, 32
1, 57608, Control_c, 0, 64, 0
1, 57685, Control_c, 0, 64, 127
1, 58080, Note_on_c, 0, 57, 0
1, 58080, Note_on_c, 0, 53, 0
1, 58080, Note_on_c, 0, 65, 0
1, 58080, Note_on_c, 0, 41, 26
1, 58229, Control_c, 0, 64, 0
1, 58320, Marker_t, "Teil3"
1, 58320, Note_on_c, 0, 41, 0
1, 58320, Note_on_c, 0, 68, 37
1, 58320, Control_c, 0, 91, 127
1, 58320, Note_on_c, 0, 60, 37
1, 58320, Control_c, 0, 91, 127
1, 58377, Control_c, 0, 64, 127
1, 58548, Note_on_c, 0, 60, 0
1, 58548, Note_on_c, 0, 68, 0
1, 58560, Note_on_c, 0, 68, 37
1, 58560, Note_on_c, 0, 60, 37
1, 58788, Note_on_c, 0, 60, 0
1, 58788, Note_on_c, 0, 68, 0
1, 58800, Note_on_c, 0, 60, 37
1, 58800, Note_on_c, 0, 68, 37
1, 58860, Tempo, 1454898
1, 59028, Note_on_c, 0, 68, 0
1, 59028, Note_on_c, 0, 60, 0
1, 59040, Key_signature, -4, "major"
1, 59040, Tempo, 1290323
1, 59040, Note_on_c, 0, 68, 40
1, 59040, Note_on_c, 0, 60, 40
1, 59040, Note_on_c, 0, 41, 40
1, 59052, Control_c, 0, 64, 0
1, 59060, Tempo, 1276596
1, 59100, Tempo, 1263158
1, 59111, Control_c, 0, 64, 127
1, 59140, Tempo, 1276596
1, 59160, Tempo, 1304348
1, 59160, Note_on_c, 0, 41, 0
1, 59160, Note_on_c, 0, 53, 26
1, 59180, Tempo, 1318681
1, 59200, Tempo, 1304348
1, 59220, Tempo, 1276596
1, 59268, Note_on_c, 0, 53, 0
1, 59280, Tempo, 1304348
1, 59280, Note_on_c, 0, 53, 28
1, 59300, Tempo, 1318681
1, 59380, Tempo, 1290323
1, 59388, Note_on_c, 0, 53, 0
1, 59400, Note_on_c, 0, 53, 26
1, 59420, Tempo, 1276596
1, 59460, Tempo, 1304348
1, 59480, Tempo, 1318681
1, 59508, Note_on_c, 0, 53, 0
1, 59520, Note_on_c, 0, 53, 24
1, 59560, Tempo, 1290323
1, 59580, Tempo, 1276596
1, 59620, Tempo, 1290323
1, 59628, Note_on_c, 0, 53, 0
1, 59640, Tempo, 1304348
1, 59640, Note_on_c, 0, 53, 22
1, 59680, Tempo, 1290323
1, 59700, Tempo, 1263158
1, 59748, Note_on_c, 0, 53, 0
1, 59760, Tempo, 1250000
1, 59760, Note_on_c, 0, 60, 0
1, 59760, Note_on_c, 0, 68, 0
1, 59760, Note_on_c, 0, 67, 37
1, 59760, Note_on_c, 0, 58, 37
1, 59760, Note_on_c, 0, 53, 25
1, 59764, Control_c, 0, 64, 0
1, 59780, Tempo, 1290323
1, 59800, Tempo, 1304348
1, 59820, Tempo, 1318681
1, 59838, Control_c, 0, 64, 127
1, 59868, Note_on_c, 0, 53, 0
1, 59880, Tempo, 1304348
1, 59880, Note_on_c, 0, 53, 22
1, 59900, Tempo, 1276596
1, 59920, Tempo, 1263158
1, 59940, Tempo, 1250000
1, 59960, Tempo, 1276596
1, 59980, Tempo, 1318681
1, 59988, Note_on_c, 0, 53, 0
1, 60000, Note_on_c, 0, 58, 0
1, 60000, Note_on_c, 0, 67, 0
1, 60000, Note_on_c, 0, 70, 37
1, 60000, Note_on_c, 0, 61, 37
1, 60000, Note_on_c, 0, 53, 29
1, 60060, Tempo, 1304348
1, 60080, Tempo, 1276596
1, 60108, Note_on_c, 0, 53, 0
1, 60120, Tempo, 1263158
1, 60120, Note_on_c, 0, 53, 25
1, 60140, Tempo, 1290323
1, 60228, Note_on_c, 0, 53, 0
1, 60240, Tempo, 1379310
1, 60240, Note_on_c, 0, 61, 0
1, 60240, Note_on_c, 0, 70, 0
1, 60240, Note_on_c, 0, 55, 37
1, 60240, Note_on_c, 0, 64, 37
1, 60240, Note_on_c, 0, 53, 27
1, 60244, Control_c, 0, 64, 0
1, 60311, Control_c, 0, 64, 127
1, 60348, Note_on_c, 0, 53, 0
1, 60360, Note_on_c, 0, 53, 25
1, 60468, Note_on_c, 0, 53, 0
1, 60480, Tempo, 1290323
1, 60480, Note_on_c, 0, 64, 0
1, 60480, Note_on_c, 0, 55, 0
1, 60480, Note_on_c, 0, 65, 42
1, 60480, Note_on_c, 0, 56, 42
1, 60480, Note_on_c, 0, 41, 34
1, 60489, Control_c, 0, 64, 0
1, 60500, Tempo, 1276596
1, 60520, Tempo, 1263158
1, 60540, Tempo, 1250000
1, 60560, Tempo, 1304348
1, 60580, Tempo, 1318681
1, 60600, Tempo, 1304348
1, 60600, Note_on_c, 0, 41, 0
1, 60600, Note_on_c, 0, 53, 24
1, 60620, Tempo, 1276596
1, 60621, Control_c, 0, 64, 127
1, 60660, Tempo, 1333333
1, 60700, Tempo, 1318681
1, 60708, Note_on_c, 0, 53, 0
1, 60720, Tempo, 1237113
1, 60720, Note_on_c, 0, 53, 26
1, 60740, Tempo, 1290323
1, 60800, Tempo, 1318681
1, 60828, Note_on_c, 0, 53, 0
1, 60840, Note_on_c, 0, 53, 23
1, 60860, Tempo, 1304348
1, 60880, Tempo, 1263158
1, 60920, Tempo, 1276596
1, 60940, Tempo, 1304348
1, 60948, Note_on_c, 0, 53, 0
1, 60960, Tempo, 1237113
1, 60960, Note_on_c, 0, 53, 25
1, 61068, Note_on_c, 0, 53, 0
1, 61080, Note_on_c, 0, 53, 22
1, 61160, Tempo, 1276596
1, 61188, Note_on_c, 0, 53, 0
1, 61200, Tempo, 1276596
1, 61200, Note_on_c, 0, 56, 0
1, 61200, Note_on_c, 0, 65, 0
1, 61200, Note_on_c, 0, 72, 42
1, 61200, Note_on_c, 0, 68, 42
1, 61200, Note_on_c, 0, 53, 25
1, 61214, Control_c, 0, 64, 0
1, 61220, Tempo, 1276596
1, 61240, Tempo, 1290323
1, 61260, Tempo, 1276596
1, 61292, Control_c, 0, 64, 127
1, 61300, Tempo, 1263158
1, 61308, Note_on_c, 0, 53, 0
1, 61320, Note_on_c, 0, 53, 22
1, 61340, Tempo, 1276596
1, 61420, Tempo, 1263158
1, 61428, Note_on_c, 0, 53, 0
1, 61428, Note_on_c, 0, 68, 0
1, 61428, Note_on_c, 0, 72, 0
1, 61440, Tempo, 1318681
1, 61440, Note_on_c, 0, 72, 44
1, 61440, Note_on_c, 0, 68, 44
1, 61440, Note_on_c, 0, 53, 28
1, 61460, Tempo, 1304348
1, 61480, Tempo, 1290323
1, 61520, Tempo, 1304348
1, 61540, Tempo, 1318681
1, 61548, Note_on_c, 0, 53, 0
1, 61560, Note_on_c, 0, 53, 25
1, 61580, Tempo, 1304348
1, 61600, Tempo, 1290323
1, 61668, Note_on_c, 0, 53, 0
1, 61668, Note_on_c, 0, 68, 0
1, 61668, Note_on_c, 0, 72, 0
1, 61680, Tempo, 1445783
1, 61680, Note_on_c, 0, 68, 40
1, 61680, Note_on_c, 0, 72, 40
1, 61680, Note_on_c, 0, 53, 28
1, 61788, Note_on_c, 0, 53, 0
1, 61800, Note_on_c, 0, 53, 27
1, 61908, Note_on_c, 0, 53, 0
1, 61908, Note_on_c, 0, 72, 0
1, 61908, Note_on_c, 0, 68, 0
1, 61920, Tempo, 1290323
1, 61920, Note_on_c, 0, 72, 50
1, 61920, Note_on_c, 0, 67, 50
1, 61920, Note_on_c, 0, 40, 33
1, 61927, Control_c, 0, 64, 0
1, 61940, Tempo, 1276596
1, 61960, Tempo, 1263158
1, 62000, Tempo, 1276596
1, 62020, Tempo, 1290323
1, 62026, Control_c, 0, 64, 127
1, 62040, Tempo, 1304348
1, 62040, Note_on_c, 0, 40, 0
1, 62040, Note_on_c, 0, 52, 29
1, 62100, Tempo, 1276596
1, 62120, Tempo, 1263158
1, 62140, Tempo, 1290323
1, 62148, Note_on_c, 0, 52, 0
1, 62160, Tempo, 1304348
1, 62160, Note_on_c, 0, 52, 27
1, 62180, Tempo, 1318681
1, 62220, Tempo, 1290323
1, 62260, Tempo, 1263158
1, 62268, Note_on_c, 0, 52, 0
1, 62280, Tempo, 1304348
1, 62280, Note_on_c, 0, 52, 24
1, 62300, Tempo, 1318681
1, 62320, Tempo, 1333333
1, 62340, Tempo, 1318681
1, 62360, Tempo, 1290323
1, 62388, Note_on_c, 0, 52, 0
1, 62400, Tempo, 1250000
1, 62400, Note_on_c, 0, 52, 29
1, 62412, Tempo, 1237113
1, 62424, Tempo, 1224490
1, 62452, Tempo, 1237113
1, 62464, Tempo, 1276596
1, 62492, Tempo, 1263158
1, 62504, Tempo, 1250000
1, 62508, Note_on_c, 0, 52, 0
1, 62520, Tempo, 1237113
1, 62520, Note_on_c, 0, 52, 23
1, 62532, Tempo, 1224490
1, 62544, Tempo, 1212121
1, 62572, Tempo, 1250000
1, 62628, Note_on_c, 0, 52, 0
1, 62640, Tempo, 1290323
1, 62640, Note_on_c, 0, 72, 0
1, 62640, Note_on_c, 0, 73, 51
1, 62640, Note_on_c, 0, 52, 25
1, 62647, Control_c, 0, 64, 0
1, 62660, Tempo, 1276596
1, 62686, Control_c, 0, 64, 127
1, 62720, Tempo, 1304348
1, 62748, Note_on_c, 0, 52, 0
1, 62760, Note_on_c, 0, 52, 22
1, 62800, Tempo, 1290323
1, 62820, Tempo, 1276596
1, 62840, Tempo, 1263158
1, 62860, Tempo, 1290323
1, 62868, Note_on_c, 0, 52, 0
1, 62880, Tempo, 1304348
1, 62880, Note_on_c, 0, 73, 0
1, 62880, Note_on_c, 0, 72, 50
1, 62880, Note_on_c, 0, 52, 29
1, 62896, Control_c, 0, 64, 0
1, 62900, Tempo, 1318681
1, 62920, Tempo, 1333333
1, 62933, Control_c, 0, 64, 127
1, 62940, Tempo, 1318681
1, 62960, Tempo, 1304348
1, 62980, Tempo, 1276596
1, 62988, Note_on_c, 0, 52, 0
1, 63000, Note_on_c, 0, 52, 27
1, 63020, Tempo, 1290323
1, 63040, Tempo, 1304348
1, 63060, Tempo, 1333333
1, 63100, Tempo, 1318681
1, 63108, Note_on_c, 0, 52, 0
1, 63120, Tempo, 1290323
1, 63120, Note_on_c, 0, 72, 0
1, 63120, Note_on_c, 0, 70, 48
1, 63120, Note_on_c, 0, 52, 29
1, 63140, Tempo, 1276596
1, 63160, Tempo, 1290323
1, 63228, Note_on_c, 0, 52, 0
1, 63240, Tempo, 1379310
1, 63240, Note_on_c, 0, 52, 26
1, 63300, Note_on_c, 0, 70, 0
1, 63300, Note_on_c, 0, 72, 46
1, 63340, Tempo, 1290323
1, 63348, Note_on_c, 0, 52, 0
1, 63360, Tempo, 1276596
1, 63360, Note_on_c, 0, 72, 0
1, 63360, Note_on_c, 0, 67, 0
1, 63360, Note_on_c, 0, 70, 53
1, 63360, Note_on_c, 0, 67, 53
1, 63360, Note_on_c, 0, 41, 29
1, 63370, Control_c, 0, 64, 0
1, 63380, Tempo, 1263158
1, 63445, Control_c, 0, 64, 127
1, 63460, Tempo, 1290323
1, 63480, Tempo, 1304348
1, 63480, Note_on_c, 0, 41, 0
1, 63480, Note_on_c, 0, 53, 28
1, 63500, Tempo, 1318681
1, 63520, Tempo, 1333333
1, 63560, Tempo, 1318681
1, 63580, Tempo, 1304348
1, 63588, Note_on_c, 0, 53, 0
1, 63600, Tempo, 1290323
1, 63600, Note_on_c, 0, 67, 0
1, 63600, Note_on_c, 0, 70, 0
1, 63600, Note_on_c, 0, 65, 44
1, 63600, Note_on_c, 0, 68, 44
1, 63600, Note_on_c, 0, 53, 29
1, 63611, Control_c, 0, 64, 0
1, 63620, Tempo, 1276596
1, 63671, Control_c, 0, 64, 127
1, 63680, Tempo, 1304348
1, 63708, Note_on_c, 0, 53, 0
1, 63720, Tempo, 1290323
1, 63720, Note_on_c, 0, 53, 26
1, 63740, Tempo, 1276596
1, 63760, Tempo, 1263158
1, 63780, Tempo, 1304348
1, 63800, Tempo, 1318681
1, 63828, Note_on_c, 0, 53, 0
1, 63840, Tempo, 1333333
1, 63840, Note_on_c, 0, 68, 0
1, 63840, Note_on_c, 0, 65, 0
1, 63840, Note_on_c, 0, 53, 32
1, 63860, Tempo, 1304348
1, 63880, Tempo, 1290323
1, 63900, Tempo, 1276596
1, 63939, Control_c, 0, 64, 0
1, 64080, Tempo, 1276596
1, 64080, Note_on_c, 0, 68, 53
1, 64320, Note_on_c, 0, 68, 0
1, 64320, Note_on_c, 0, 53, 0
1, 64320, Note_on_c, 0, 70, 58
1, 64560, Note_on_c, 0, 70, 0
1, 64560, Note_on_c, 0, 72, 53
1, 64800, Tempo, 1290323
1, 64800, Note_on_c, 0, 72, 0
1, 64800, Note_on_c, 0, 75, 61
1, 65040, Note_on_c, 0, 75, 0
1, 65040, Note_on_c, 0, 73, 57
1, 65040, Note_on_c, 0, 61, 33
1, 65040, Note_on_c, 0, 53, 33
1, 65040, Note_on_c, 0, 56, 33
1, 65143, Control_c, 0, 64, 127
1, 65268, Note_on_c, 0, 56, 0
1, 65268, Note_on_c, 0, 53, 0
1, 65268, Note_on_c, 0, 61, 0
1, 65280, Note_on_c, 0, 73, 0
1, 65280, Note_on_c, 0, 61, 36
1, 65280, Note_on_c, 0, 53, 36
1, 65280, Note_on_c, 0, 56, 36
1, 65490, Note_on_c, 0, 72, 60
1, 65495, Control_c, 0, 64, 0
1, 65508, Note_on_c, 0, 56, 0
1, 65508, Note_on_c, 0, 61, 0
1, 65508, Note_on_c, 0, 53, 0
1, 65520, Tempo, 1276596
1, 65520, Note_on_c, 0, 72, 0
1, 65520, Note_on_c, 0, 73, 74
1, 65520, Note_on_c, 0, 61, 40
1, 65520, Note_on_c, 0, 53, 40
1, 65520, Note_on_c, 0, 56, 40
1, 65541, Control_c, 0, 64, 127
1, 65700, Tempo, 1304348
1, 65730, Note_on_c, 0, 73, 0
1, 65730, Note_on_c, 0, 72, 64
1, 65735, Control_c, 0, 64, 0
1, 65748, Note_on_c, 0, 61, 0
1, 65748, Note_on_c, 0, 56, 0
1, 65748, Note_on_c, 0, 53, 0
1, 65760, Note_on_c, 0, 72, 0
1, 65760, Note_on_c, 0, 73, 80
1, 65760, Note_on_c, 0, 56, 46
1, 65760, Note_on_c, 0, 53, 46
1, 65760, Note_on_c, 0, 61, 46
1, 65796, Control_c, 0, 64, 127
1, 65880, Tempo, 1379310
1, 65970, Note_on_c, 0, 73, 0
1, 65970, Note_on_c, 0, 72, 68
1, 65986, Control_c, 0, 64, 0
1, 65988, Note_on_c, 0, 56, 0
1, 65988, Note_on_c, 0, 61, 0
1, 65988, Note_on_c, 0, 53, 0
1, 66000, Tempo, 1463415
1, 66000, Note_on_c, 0, 72, 0
1, 66000, Note_on_c, 0, 73, 89
1, 66000, Note_on_c, 0, 61, 49
1, 66000, Note_on_c, 0, 53, 49
1, 66000, Note_on_c, 0, 56, 49
1, 66028, Control_c, 0, 64, 127
1, 66228, Note_on_c, 0, 56, 0
1, 66228, Note_on_c, 0, 53, 0
1, 66228, Note_on_c, 0, 61, 0
1, 66240, Tempo, 1333333
1, 66240, Note_on_c, 0, 73, 0
1, 66240, Note_on_c, 0, 73, 90
1, 66240, Note_on_c, 0, 61, 49
1, 66240, Note_on_c, 0, 63, 58
1, 66240, Note_on_c, 0, 55, 49
1, 66240, Note_on_c, 0, 58, 49
1, 66243, Control_c, 0, 64, 0
1, 66300, Control_c, 0, 64, 127
1, 66360, Tempo, 1263158
1, 66360, Note_on_c, 0, 73, 0
1, 66360, Note_on_c, 0, 75, 64
1, 66372, Tempo, 1153846
1, 66400, Tempo, 1165049
1, 66400, Note_on_c, 0, 75, 0
1, 66400, Note_on_c, 0, 73, 57
1, 66412, Tempo, 1176471
1, 66440, Tempo, 1188119
1, 66440, Note_on_c, 0, 73, 0
1, 66440, Note_on_c, 0, 72, 64
1, 66452, Tempo, 1200000
1, 66464, Tempo, 1212121
1, 66480, Tempo, 1276596
1, 66480, Note_on_c, 0, 72, 0
1, 66480, Note_on_c, 0, 73, 64
1, 66600, Tempo, 1428571
1, 66600, Note_on_c, 0, 73, 0
1, 66600, Note_on_c, 0, 75, 56
1, 66720, Tempo, 1318681
1, 66720, Note_on_c, 0, 75, 0
1, 66720, Note_on_c, 0, 77, 47
1, 66734, Control_c, 0, 64, 0
1, 66802, Control_c, 0, 64, 127
1, 67200, Note_on_c, 0, 58, 0
1, 67200, Note_on_c, 0, 55, 0
1, 67200, Note_on_c, 0, 61, 0
1, 67200, Note_on_c, 0, 63, 0
1, 67355, Control_c, 0, 64, 0
1, 67440, Note_on_c, 0, 77, 0
1, 67440, Note_on_c, 0, 75, 47
1, 67560, Note_on_c, 0, 75, 0
1, 67560, Note_on_c, 0, 73, 47
1, 67680, Note_on_c, 0, 73, 0
1, 67680, Note_on_c, 0, 72, 51
1, 67680, Note_on_c, 0, 56, 34
1, 67744, Control_c, 0, 64, 127
1, 67800, Note_on_c, 0, 72, 0
1, 67800, Note_on_c, 0, 75, 47
1, 67920, Note_on_c, 0, 75, 0
1, 67920, Note_on_c, 0, 56, 0
1, 67920, Note_on_c, 0, 73, 47
1, 67920, Note_on_c, 0, 58, 30
1, 67920, Note_on_c, 0, 49, 30
1, 67928, Control_c, 0, 64, 0
1, 67991, Control_c, 0, 64, 127
1, 68040, Note_on_c, 0, 73, 0
1, 68040, Note_on_c, 0, 70, 47
1, 68160, Note_on_c, 0, 70, 0
1, 68160, Note_on_c, 0, 49, 0
1, 68160, Note_on_c, 0, 58, 0
1, 68160, Note_on_c, 0, 68, 53
1, 68160, Note_on_c, 0, 51, 34
1, 68160, Note_on_c, 0, 60, 34
1, 68178, Control_c, 0, 64, 0
1, 68266, Control_c, 0, 64, 127
1, 68640, Note_on_c, 0, 60, 0
1, 68640, Note_on_c, 0, 61, 24
1, 68654, Control_c, 0, 64, 0
1, 68746, Control_c, 0, 64, 127
1, 68880, Tempo, 1333333
1, 68880, Note_on_c, 0, 68, 0
1, 68880, Note_on_c, 0, 67, 43
1, 68880, Note_on_c, 0, 72, 43
1, 69000, Note_on_c, 0, 72, 0
1, 69000, Note_on_c, 0, 70, 43
1, 69120, Note_on_c, 0, 70, 0
1, 69120, Note_on_c, 0, 67, 0
1, 69120, Note_on_c, 0, 61, 0
1, 69120, Note_on_c, 0, 51, 0
1, 69120, Note_on_c, 0, 68, 47
1, 69120, Note_on_c, 0, 56, 29
1, 69120, Note_on_c, 0, 60, 34
1, 69123, Control_c, 0, 64, 0
1, 69332, Control_c, 0, 64, 127
1, 69600, Tempo, 1463415
1, 69600, Note_on_c, 0, 60, 0
1, 69600, Note_on_c, 0, 56, 0
1, 69600, Note_on_c, 0, 68, 0
1, 69600, Note_on_c, 0, 44, 27
1, 69614, Control_c, 0, 64, 0
1, 69840, Tempo, 1348315
1, 69840, Marker_t, "Teil3 Wiederholung"
1, 69840, Note_on_c, 0, 44, 0
1, 69840, Control_c, 0, 91, 127
1, 69840, Note_on_c, 0, 60, 37
1, 69840, Note_on_c, 0, 68, 37
1, 69840, Control_c, 0, 91, 127
1, 69897, Control_c, 0, 64, 127
1, 70068, Note_on_c, 0, 68, 0
1, 70068, Note_on_c, 0, 60, 0
1, 70080, Note_on_c, 0, 60, 37
1, 70080, Note_on_c, 0, 68, 37
1, 70308, Note_on_c, 0, 68, 0
1, 70308, Note_on_c, 0, 60, 0
1, 70320, Note_on_c, 0, 60, 37
1, 70320, Note_on_c, 0, 68, 37
1, 70380, Tempo, 1420455
1, 70548, Note_on_c, 0, 68, 0
1, 70548, Note_on_c, 0, 60, 0
1, 70560, Tempo, 1290323
1, 70560, Note_on_c, 0, 60, 40
1, 70560, Note_on_c, 0, 68, 40
1, 70560, Note_on_c, 0, 41, 40
1, 70572, Control_c, 0, 64, 0
1, 70580, Tempo, 1276596
1, 70620, Tempo, 1263158
1, 70631, Control_c, 0, 64, 127
1, 70660, Tempo, 1276596
1, 70680, Tempo, 1304348
1, 70680, Note_on_c, 0, 41, 0
1, 70680, Note_on_c, 0, 53, 26
1, 70700, Tempo, 1318681
1, 70720, Tempo, 1304348
1, 70740, Tempo, 1276596
1, 70788, Note_on_c, 0, 53, 0
1, 70800, Tempo, 1304348
1, 70800, Note_on_c, 0, 53, 29
1, 70820, Tempo, 1318681
1, 70900, Tempo, 1290323
1, 70908, Note_on_c, 0, 53, 0
1, 70920, Note_on_c, 0, 53, 26
1, 70940, Tempo, 1276596
1, 70980, Tempo, 1304348
1, 71000, Tempo, 1318681
1, 71028, Note_on_c, 0, 53, 0
1, 71040, Note_on_c, 0, 53, 27
1, 71080, Tempo, 1290323
1, 71100, Tempo, 1276596
1, 71140, Tempo, 1290323
1, 71148, Note_on_c, 0, 53, 0
1, 71160, Tempo, 1304348
1, 71160, Note_on_c, 0, 53, 23
1, 71200, Tempo, 1290323
1, 71220, Tempo, 1263158
1, 71268, Note_on_c, 0, 53, 0
1, 71280, Tempo, 1250000
1, 71280, Note_on_c, 0, 68, 0
1, 71280, Note_on_c, 0, 60, 0
1, 71280, Note_on_c, 0, 58, 37
1, 71280, Note_on_c, 0, 67, 37
1, 71280, Note_on_c, 0, 53, 26
1, 71284, Control_c, 0, 64, 0
1, 71358, Control_c, 0, 64, 127
1, 71388, Note_on_c, 0, 53, 0
1, 71400, Tempo, 1304348
1, 71400, Note_on_c, 0, 53, 23
1, 71420, Tempo, 1276596
1, 71440, Tempo, 1263158
1, 71460, Tempo, 1250000
1, 71480, Tempo, 1276596
1, 71500, Tempo, 1318681
1, 71508, Note_on_c, 0, 53, 0
1, 71520, Note_on_c, 0, 67, 0
1, 71520, Note_on_c, 0, 58, 0
1, 71520, Note_on_c, 0, 61, 37
1, 71520, Note_on_c, 0, 70, 37
1, 71520, Note_on_c, 0, 53, 29
1, 71580, Tempo, 1304348
1, 71600, Tempo, 1276596
1, 71628, Note_on_c, 0, 53, 0
1, 71640, Tempo, 1263158
1, 71640, Note_on_c, 0, 53, 25
1, 71660, Tempo, 1290323
1, 71748, Note_on_c, 0, 53, 0
1, 71760, Tempo, 1379310
1, 71760, Note_on_c, 0, 70, 0
1, 71760, Note_on_c, 0, 61, 0
1, 71760, Note_on_c, 0, 55, 37
1, 71760, Note_on_c, 0, 64, 37
1, 71760, Note_on_c, 0, 53, 27
1, 71764, Control_c, 0, 64, 0
1, 71831, Control_c, 0, 64, 127
1, 71868, Note_on_c, 0, 53, 0
1, 71880, Note_on_c, 0, 53, 26
1, 71988, Note_on_c, 0, 53, 0
1, 72000, Tempo, 1290323
1, 72000, Note_on_c, 0, 64, 0
1, 72000, Note_on_c, 0, 55, 0
1, 72000, Note_on_c, 0, 56, 42
1, 72000, Note_on_c, 0, 65, 42
1, 72000, Note_on_c, 0, 41, 34
1, 72009, Control_c, 0, 64, 0
1, 72020, Tempo, 1276596
1, 72040, Tempo, 1263158
1, 72060, Tempo, 1250000
1, 72080, Tempo, 1304348
1, 72100, Tempo, 1318681
1, 72120, Tempo, 1304348
1, 72120, Note_on_c, 0, 41, 0
1, 72120, Note_on_c, 0, 53, 26
1, 72140, Tempo, 1276596
1, 72141, Control_c, 0, 64, 127
1, 72180, Tempo, 1333333
1, 72220, Tempo, 1318681
1, 72228, Note_on_c, 0, 53, 0
1, 72240, Tempo, 1304348
1, 72240, Note_on_c, 0, 53, 27
1, 72260, Tempo, 1290323
1, 72320, Tempo, 1318681
1, 72348, Note_on_c, 0, 53, 0
1, 72360, Note_on_c, 0, 53, 23
1, 72380, Tempo, 1304348
1, 72400, Tempo, 1263158
1, 72440, Tempo, 1276596
1, 72460, Tempo, 1304348
1, 72468, Note_on_c, 0, 53, 0
1, 72480, Tempo, 1237113
1, 72480, Note_on_c, 0, 53, 26
1, 72588, Note_on_c, 0, 53, 0
1, 72600, Note_on_c, 0, 53, 23
1, 72708, Note_on_c, 0, 53, 0
1, 72720, Tempo, 1263158
1, 72720, Note_on_c, 0, 65, 0
1, 72720, Note_on_c, 0, 56, 0
1, 72720, Note_on_c, 0, 68, 42
1, 72720, Note_on_c, 0, 72, 42
1, 72720, Note_on_c, 0, 53, 25
1, 72734, Control_c, 0, 64, 0
1, 72740, Tempo, 1276596
1, 72760, Tempo, 1290323
1, 72780, Tempo, 1276596
1, 72812, Control_c, 0, 64, 127
1, 72820, Tempo, 1263158
1, 72828, Note_on_c, 0, 53, 0
1, 72840, Note_on_c, 0, 53, 23
1, 72860, Tempo, 1276596
1, 72940, Tempo, 1263158
1, 72948, Note_on_c, 0, 53, 0
1, 72948, Note_on_c, 0, 72, 0
1, 72948, Note_on_c, 0, 68, 0
1, 72960, Tempo, 1318681
1, 72960, Note_on_c, 0, 68, 44
1, 72960, Note_on_c, 0, 72, 44
1, 72960, Note_on_c, 0, 53, 28
1, 72980, Tempo, 1304348
1, 73000, Tempo, 1290323
1, 73040, Tempo, 1304348
1, 73060, Tempo, 1318681
1, 73068, Note_on_c, 0, 53, 0
1, 73080, Note_on_c, 0, 53, 26
1, 73100, Tempo, 1304348
1, 73120, Tempo, 1290323
1, 73188, Note_on_c, 0, 53, 0
1, 73188, Note_on_c, 0, 72, 0
1, 73188, Note_on_c, 0, 68, 0
1, 73200, Tempo, 1445783
1, 73200, Note_on_c, 0, 68, 40
1, 73200, Note_on_c, 0, 72, 40
1, 73200, Note_on_c, 0, 53, 28
1, 73308, Note_on_c, 0, 53, 0
1, 73320, Note_on_c, 0, 53, 26
1, 73428, Note_on_c, 0, 53, 0
1, 73428, Note_on_c, 0, 72, 0
1, 73428, Note_on_c, 0, 68, 0
1, 73440, Tempo, 1290323
1, 73440, Note_on_c, 0, 72, 50
1, 73440, Note_on_c, 0, 67, 50
1, 73440, Note_on_c, 0, 40, 33
1, 73447, Control_c, 0, 64, 0
1, 73460, Tempo, 1276596
1, 73480, Tempo, 1263158
1, 73520, Tempo, 1276596
1, 73540, Tempo, 1290323
1, 73546, Control_c, 0, 64, 127
1, 73560, Tempo, 1304348
1, 73560, Note_on_c, 0, 40, 0
1, 73560, Note_on_c, 0, 52, 29
1, 73620, Tempo, 1276596
1, 73640, Tempo, 1263158
1, 73660, Tempo, 1290323
1, 73668, Note_on_c, 0, 52, 0
1, 73680, Tempo, 1304348
1, 73680, Note_on_c, 0, 52, 27
1, 73700, Tempo, 1318681
1, 73740, Tempo, 1290323
1, 73788, Note_on_c, 0, 52, 0
1, 73800, Note_on_c, 0, 52, 27
1, 73860, Tempo, 1318681
1, 73880, Tempo, 1290323
1, 73908, Note_on_c, 0, 52, 0
1, 73920, Tempo, 1250000
1, 73920, Note_on_c, 0, 52, 28
1, 73932, Tempo, 1237113
1, 73944, Tempo, 1224490
1, 73972, Tempo, 1237113
1, 73984, Tempo, 1276596
1, 74012, Tempo, 1263158
1, 74024, Tempo, 1250000
1, 74028, Note_on_c, 0, 52, 0
1, 74040, Tempo, 1237113
1, 74040, Note_on_c, 0, 52, 23
1, 74052, Tempo, 1224490
1, 74064, Tempo, 1212121
1, 74092, Tempo, 1250000
1, 74148, Note_on_c, 0, 52, 0
1, 74160, Tempo, 1290323
1, 74160, Note_on_c, 0, 72, 0
1, 74160, Note_on_c, 0, 73, 51
1, 74160, Note_on_c, 0, 52, 26
1, 74167, Control_c, 0, 64, 0
1, 74180, Tempo, 1276596
1, 74206, Control_c, 0, 64, 127
1, 74240, Tempo, 1304348
1, 74268, Note_on_c, 0, 52, 0
1, 74280, Note_on_c, 0, 52, 24
1, 74320, Tempo, 1290323
1, 74340, Tempo, 1276596
1, 74360, Tempo, 1263158
1, 74380, Tempo, 1290323
1, 74388, Note_on_c, 0, 52, 0
1, 74400, Tempo, 1304348
1, 74400, Note_on_c, 0, 73, 0
1, 74400, Note_on_c, 0, 72, 50
1, 74400, Note_on_c, 0, 52, 29
1, 74416, Control_c, 0, 64, 0
1, 74420, Tempo, 1318681
1, 74440, Tempo, 1333333
1, 74453, Control_c, 0, 64, 127
1, 74460, Tempo, 1318681
1, 74480, Tempo, 1304348
1, 74500, Tempo, 1276596
1, 74508, Note_on_c, 0, 52, 0
1, 74520, Note_on_c, 0, 52, 27
1, 74540, Tempo, 1290323
1, 74560, Tempo, 1304348
1, 74580, Tempo, 1333333
1, 74620, Tempo, 1318681
1, 74628, Note_on_c, 0, 52, 0
1, 74640, Tempo, 1290323
1, 74640, Note_on_c, 0, 72, 0
1, 74640, Note_on_c, 0, 70, 48
1, 74640, Note_on_c, 0, 52, 29
1, 74660, Tempo, 1276596
1, 74680, Tempo, 1290323
1, 74748, Note_on_c, 0, 52, 0
1, 74760, Tempo, 1379310
1, 74760, Note_on_c, 0, 52, 26
1, 74820, Note_on_c, 0, 70, 0
1, 74820, Note_on_c, 0, 72, 46
1, 74860, Tempo, 1290323
1, 74868, Note_on_c, 0, 52, 0
1, 74880, Tempo, 1276596
1, 74880, Note_on_c, 0, 72, 0
1, 74880, Note_on_c, 0, 67, 0
1, 74880, Note_on_c, 0, 67, 53
1, 74880, Note_on_c, 0, 70, 53
1, 74880, Note_on_c, 0, 41, 29
1, 74890, Control_c, 0, 64, 0
1, 74900, Tempo, 1263158
1, 74965, Control_c, 0, 64, 127
1, 74980, Tempo, 1290323
1, 75000, Tempo, 1304348
1, 75000, Note_on_c, 0, 41, 0
1, 75000, Note_on_c, 0, 53, 27
1, 75020, Tempo, 1318681
1, 75040, Tempo, 1333333
1, 75080, Tempo, 1318681
1, 75100, Tempo, 1304348
1, 75108, Note_on_c, 0, 53, 0
1, 75120, Tempo, 1290323
1, 75120, Note_on_c, 0, 70, 0
1, 75120, Note_on_c, 0, 67, 0
1, 75120, Note_on_c, 0, 65, 44
1, 75120, Note_on_c, 0, 68, 44
1, 75120, Note_on_c, 0, 53, 29
1, 75131, Control_c, 0, 64, 0
1, 75140, Tempo, 1276596
1, 75191, Control_c, 0, 64, 127
1, 75200, Tempo, 1304348
1, 75228, Note_on_c, 0, 53, 0
1, 75240, Tempo, 1290323
1, 75240, Note_on_c, 0, 53, 28
1, 75260, Tempo, 1276596
1, 75280, Tempo, 1263158
1, 75300, Tempo, 1304348
1, 75320, Tempo, 1318681
1, 75348, Note_on_c, 0, 53, 0
1, 75360, Tempo, 1333333
1, 75360, Note_on_c, 0, 68, 0
1, 75360, Note_on_c, 0, 65, 0
1, 75360, Note_on_c, 0, 53, 33
1, 75380, Tempo, 1304348
1, 75400, Tempo, 1290323
1, 75420, Tempo, 1276596
1, 75459, Control_c, 0, 64, 0
1, 75600, Tempo, 1276596
1, 75600, Note_on_c, 0, 68, 53
1, 75840, Note_on_c, 0, 68, 0
1, 75840, Note_on_c, 0, 53, 0
1, 75840, Note_on_c, 0, 70, 58
1, 76080, Note_on_c, 0, 70, 0
1, 76080, Note_on_c, 0, 72, 53
1, 76320, Tempo, 1290323
1, 76320, Note_on_c, 0, 72, 0
1, 76320, Note_on_c, 0, 75, 61
1, 76560, Note_on_c, 0, 75, 0
1, 76560, Note_on_c, 0, 73, 57
1, 76560, Note_on_c, 0, 61, 33
1, 76560, Note_on_c, 0, 56, 33
1, 76560, Note_on_c, 0, 53, 33
1, 76663, Control_c, 0, 64, 127
1, 76788, Note_on_c, 0, 53, 0
1, 76788, Note_on_c, 0, 56, 0
1, 76788, Note_on_c, 0, 61, 0
1, 76800, Note_on_c, 0, 73, 0
1, 76800, Note_on_c, 0, 61, 36
1, 76800, Note_on_c, 0, 56, 36
1, 76800, Note_on_c, 0, 53, 36
1, 77010, Note_on_c, 0, 72, 57
1, 77015, Control_c, 0, 64, 0
1, 77028, Note_on_c, 0, 53, 0
1, 77028, Note_on_c, 0, 61, 0
1, 77028, Note_on_c, 0, 56, 0
1, 77040, Tempo, 1276596
1, 77040, Note_on_c, 0, 72, 0
1, 77040, Note_on_c, 0, 73, 72
1, 77040, Note_on_c, 0, 61, 40
1, 77040, Note_on_c, 0, 56, 40
1, 77040, Note_on_c, 0, 53, 40
1, 77061, Control_c, 0, 64, 127
1, 77220, Tempo, 1290323
1, 77250, Note_on_c, 0, 73, 0
1, 77250, Note_on_c, 0, 72, 63
1, 77255, Control_c, 0, 64, 0
1, 77268, Note_on_c, 0, 61, 0
1, 77268, Note_on_c, 0, 53, 0
1, 77268, Note_on_c, 0, 56, 0
1, 77280, Note_on_c, 0, 72, 0
1, 77280, Note_on_c, 0, 73, 78
1, 77280, Note_on_c, 0, 61, 46
1, 77280, Note_on_c, 0, 56, 46
1, 77280, Note_on_c, 0, 53, 46
1, 77316, Control_c, 0, 64, 127
1, 77400, Tempo, 1411765
1, 77490, Note_on_c, 0, 73, 0
1, 77490, Note_on_c, 0, 72, 69
1, 77506, Control_c, 0, 64, 0
1, 77508, Note_on_c, 0, 61, 0
1, 77508, Note_on_c, 0, 53, 0
1, 77508, Note_on_c, 0, 56, 0
1, 77520, Tempo, 1463415
1, 77520, Note_on_c, 0, 72, 0
1, 77520, Note_on_c, 0, 73, 86
1, 77520, Note_on_c, 0, 61, 49
1, 77520, Note_on_c, 0, 56, 49
1, 77520, Note_on_c, 0, 53, 49
1, 77548, Control_c, 0, 64, 127
1, 77748, Note_on_c, 0, 53, 0
1, 77748, Note_on_c, 0, 56, 0
1, 77748, Note_on_c, 0, 61, 0
1, 77760, Tempo, 1348315
1, 77760, Note_on_c, 0, 73, 0
1, 77760, Note_on_c, 0, 73, 95
1, 77760, Note_on_c, 0, 63, 57
1, 77760, Note_on_c, 0, 61, 48
1, 77760, Note_on_c, 0, 58, 48
1, 77760, Note_on_c, 0, 55, 48
1, 77763, Control_c, 0, 64, 0
1, 77820, Control_c, 0, 64, 127
1, 77880, Tempo, 1263158
1, 77880, Note_on_c, 0, 73, 0
1, 77880, Note_on_c, 0, 75, 60
1, 77900, Tempo, 1132075
1, 77920, Tempo, 1142857
1, 77920, Note_on_c, 0, 75, 0
1, 77920, Note_on_c, 0, 73, 56
1, 77940, Tempo, 1165049
1, 77960, Tempo, 1188119
1, 77960, Note_on_c, 0, 73, 0
1, 77960, Note_on_c, 0, 72, 60
1, 77980, Tempo, 1212121
1, 78000, Tempo, 1237113
1, 78000, Note_on_c, 0, 72, 0
1, 78000, Note_on_c, 0, 73, 61
1, 78120, Tempo, 1428571
1, 78120, Note_on_c, 0, 73, 0
1, 78120, Note_on_c, 0, 75, 53
1, 78240, Tempo, 1318681
1, 78240, Note_on_c, 0, 75, 0
1, 78240, Note_on_c, 0, 77, 47
1, 78254, Control_c, 0, 64, 0
1, 78322, Control_c, 0, 64, 127
1, 78720, Note_on_c, 0, 55, 0
1, 78720, Note_on_c, 0, 58, 0
1, 78720, Note_on_c, 0, 63, 0
1, 78720, Note_on_c, 0, 61, 0
1, 78875, Control_c, 0, 64, 0
1, 78960, Note_on_c, 0, 77, 0
1, 78960, Note_on_c, 0, 75, 47
1, 79080, Note_on_c, 0, 75, 0
1, 79080, Note_on_c, 0, 73, 44
1, 79200, Note_on_c, 0, 73, 0
1, 79200, Note_on_c, 0, 72, 51
1, 79200, Note_on_c, 0, 56, 34
1, 79264, Control_c, 0, 64, 127
1, 79320, Note_on_c, 0, 72, 0
1, 79320, Note_on_c, 0, 75, 44
1, 79440, Note_on_c, 0, 75, 0
1, 79440, Note_on_c, 0, 56, 0
1, 79440, Note_on_c, 0, 73, 47
1, 79440, Note_on_c, 0, 49, 30
1, 79440, Note_on_c, 0, 58, 30
1, 79448, Control_c, 0, 64, 0
1, 79511, Control_c, 0, 64, 127
1, 79560, Note_on_c, 0, 73, 0
1, 79560, Note_on_c, 0, 70, 46
1, 79680, Note_on_c, 0, 70, 0
1, 79680, Note_on_c, 0, 58, 0
1, 79680, Note_on_c, 0, 49, 0
1, 79680, Note_on_c, 0, 68, 53
1, 79680, Note_on_c, 0, 51, 34
1, 79680, Note_on_c, 0, 60, 34
1, 79698, Control_c, 0, 64, 0
1, 79786, Control_c, 0, 64, 127
1, 80160, Note_on_c, 0, 60, 0
1, 80160, Note_on_c, 0, 61, 23
1, 80174, Control_c, 0, 64, 0
1, 80266, Control_c, 0, 64, 127
1, 80400, Tempo, 1333333
1, 80400, Note_on_c, 0, 68, 0
1, 80400, Note_on_c, 0, 67, 43
1, 80400, Note_on_c, 0, 72, 43
1, 80520, Note_on_c, 0, 72, 0
1, 80520, Note_on_c, 0, 70, 43
1, 80640, Note_on_c, 0, 70, 0
1, 80640, Note_on_c, 0, 67, 0
1, 80640, Note_on_c, 0, 61, 0
1, 80640, Note_on_c, 0, 51, 0
1, 80640, Note_on_c, 0, 68, 47
1, 80640, Note_on_c, 0, 56, 29
1, 80640, Note_on_c, 0, 60, 34
1, 80643, Control_c, 0, 64, 0
1, 80852, Control_c, 0, 64, 127
1, 81120, Tempo, 1276596
1, 81120, Note_on_c, 0, 60, 0
1, 81120, Note_on_c, 0, 56, 0
1, 81120, Note_on_c, 0, 68, 0
1, 81120, Note_on_c, 0, 44, 30
1, 81134, Control_c, 0, 64, 0
1, 81360, Tempo, 1237113
1, 81360, Marker_t, "Teil4"
1, 81360, Note_on_c, 0, 44, 0
1, 81360, Control_c, 0, 91, 127
1, 81360, Note_on_c, 0, 63, 53
1, 81360, Control_c, 0, 91, 127
1, 81600, Tempo, 1200000
1, 81600, Note_on_c, 0, 63, 0
1, 81600, Note_on_c, 0, 68, 53
1, 81840, Tempo, 1212121
1, 81840, Note_on_c, 0, 68, 0
1, 81840, Note_on_c, 0, 72, 51
1, 82080, Tempo, 1176471
1, 82080, Note_on_c, 0, 72, 0
1, 82080, Note_on_c, 0, 75, 58
1, 82320, Tempo, 1153846
1, 82320, Note_on_c, 0, 56, 43
1, 82560, Tempo, 1132075
1, 82560, Note_on_c, 0, 56, 0
1, 82560, Note_on_c, 0, 60, 45
1, 82800, Tempo, 1237113
1, 82800, Note_on_c, 0, 60, 0
1, 82800, Note_on_c, 0, 75, 0
1, 82800, Note_on_c, 0, 73, 50
1, 82800, Note_on_c, 0, 63, 45
1, 82920, Note_on_c, 0, 73, 0
1, 82920, Note_on_c, 0, 72, 47
1, 83040, Tempo, 1188119
1, 83040, Note_on_c, 0, 72, 0
1, 83040, Note_on_c, 0, 63, 0
1, 83040, Note_on_c, 0, 70, 50
1, 83040, Note_on_c, 0, 53, 47
1, 83280, Tempo, 1290323
1, 83280, Note_on_c, 0, 53, 0
1, 83280, Note_on_c, 0, 70, 0
1, 83280, Note_on_c, 0, 68, 47
1, 83280, Note_on_c, 0, 62, 43
1, 83460, Note_on_c, 0, 68, 0
1, 83520, Tempo, 1212121
1, 83520, Note_on_c, 0, 62, 0
1, 83520, Note_on_c, 0, 72, 53
1, 83760, Note_on_c, 0, 51, 40
1, 84000, Tempo, 1142857
1, 84000, Note_on_c, 0, 51, 0
1, 84000, Note_on_c, 0, 72, 0
1, 84000, Note_on_c, 0, 70, 49
1, 84000, Note_on_c, 0, 55, 40
1, 84240, Tempo, 1165049
1, 84240, Note_on_c, 0, 55, 0
1, 84240, Note_on_c, 0, 70, 0
1, 84240, Note_on_c, 0, 60, 67
1, 84240, Note_on_c, 0, 58, 58
1, 84240, Note_on_c, 0, 52, 58
1, 84480, Tempo, 1153846
1, 84480, Note_on_c, 0, 52, 0
1, 84480, Note_on_c, 0, 58, 0
1, 84480, Note_on_c, 0, 60, 0
1, 84480, Note_on_c, 0, 65, 69
1, 84480, Note_on_c, 0, 56, 58
1, 84480, Note_on_c, 0, 53, 58
1, 84720, Tempo, 1188119
1, 84720, Note_on_c, 0, 65, 0
1, 84720, Note_on_c, 0, 68, 67
1, 84960, Tempo, 1132075
1, 84960, Note_on_c, 0, 68, 0
1, 84960, Note_on_c, 0, 53, 0
1, 84960, Note_on_c, 0, 56, 0
1, 84960, Note_on_c, 0, 72, 71
1, 85200, Tempo, 1142857
1, 85200, Note_on_c, 0, 49, 54
1, 85440, Tempo, 1250000
1, 85440, Note_on_c, 0, 53, 52
1, 85480, Tempo, 1165049
1, 85680, Note_on_c, 0, 53, 0
1, 85680, Note_on_c, 0, 72, 0
1, 85680, Note_on_c, 0, 70, 53
1, 85680, Note_on_c, 0, 56, 45
1, 85800, Note_on_c, 0, 70, 0
1, 85800, Note_on_c, 0, 68, 50
1, 85920, Note_on_c, 0, 68, 0
1, 85920, Note_on_c, 0, 56, 0
1, 85920, Note_on_c, 0, 67, 53
1, 85920, Note_on_c, 0, 58, 45
1, 86160, Tempo, 1304348
1, 86160, Note_on_c, 0, 58, 0
1, 86160, Note_on_c, 0, 67, 0
1, 86160, Note_on_c, 0, 65, 44
1, 86160, Note_on_c, 0, 59, 42
1, 86340, Note_on_c, 0, 65, 0
1, 86400, Tempo, 1250000
1, 86400, Note_on_c, 0, 59, 0
1, 86400, Note_on_c, 0, 49, 0
1, 86400, Note_on_c, 0, 65, 49
1, 86400, Note_on_c, 0, 68, 49
1, 86400, Note_on_c, 0, 48, 37
1, 86400, Note_on_c, 0, 60, 37
1, 86457, Control_c, 0, 64, 127
1, 86880, Tempo, 1142857
1, 86880, Note_on_c, 0, 68, 0
1, 86880, Note_on_c, 0, 65, 0
1, 86880, Note_on_c, 0, 67, 46
1, 86880, Note_on_c, 0, 64, 46
1, 86887, Control_c, 0, 64, 0
1, 86983, Control_c, 0, 64, 127
1, 87120, Tempo, 1142857
1, 87120, Note_on_c, 0, 64, 0
1, 87120, Note_on_c, 0, 60, 0
1, 87120, Note_on_c, 0, 48, 0
1, 87120, Note_on_c, 0, 67, 0
1, 87120, Note_on_c, 0, 72, 60
1, 87136, Control_c, 0, 64, 0
1, 87360, Tempo, 1132075
1, 87360, Note_on_c, 0, 72, 0
1, 87360, Note_on_c, 0, 77, 60
1, 87600, Note_on_c, 0, 77, 0
1, 87600, Note_on_c, 0, 80, 59
1, 87600, Note_on_c, 0, 44, 49
1, 87840, Note_on_c, 0, 44, 0
1, 87840, Note_on_c, 0, 80, 0
1, 87840, Note_on_c, 0, 79, 66
1, 87840, Note_on_c, 0, 46, 53
1, 88080, Tempo, 1081081
1, 88080, Note_on_c, 0, 46, 0
1, 88080, Note_on_c, 0, 79, 0
1, 88080, Note_on_c, 0, 77, 65
1, 88080, Note_on_c, 0, 58, 51
1, 88320, Tempo, 1200000
1, 88320, Note_on_c, 0, 58, 0
1, 88320, Note_on_c, 0, 77, 0
1, 88320, Note_on_c, 0, 59, 53
1, 88360, Tempo, 1111111
1, 88560, Tempo, 1132075
1, 88560, Note_on_c, 0, 59, 0
1, 88560, Note_on_c, 0, 72, 66
1, 88560, Note_on_c, 0, 60, 51
1, 88800, Tempo, 1111111
1, 88800, Note_on_c, 0, 60, 0
1, 88800, Note_on_c, 0, 72, 0
1, 88800, Note_on_c, 0, 77, 68
1, 89040, Note_on_c, 0, 77, 0
1, 89040, Note_on_c, 0, 80, 66
1, 89040, Note_on_c, 0, 48, 56
1, 89280, Tempo, 1142857
1, 89280, Note_on_c, 0, 48, 0
1, 89280, Note_on_c, 0, 80, 0
1, 89280, Note_on_c, 0, 79, 72
1, 89280, Note_on_c, 0, 49, 58
1, 89520, Note_on_c, 0, 49, 0
1, 89520, Note_on_c, 0, 79, 0
1, 89520, Note_on_c, 0, 77, 69
1, 89520, Note_on_c, 0, 61, 58
1, 89760, Tempo, 1121495
1, 89760, Note_on_c, 0, 61, 0
1, 89760, Note_on_c, 0, 77, 0
1, 89760, Note_on_c, 0, 63, 65
1, 90000, Tempo, 1263158
1, 90000, Note_on_c, 0, 63, 0
1, 90000, Note_on_c, 0, 69, 61
1, 90000, Note_on_c, 0, 75, 72
1, 90000, Note_on_c, 0, 77, 72
1, 90000, Note_on_c, 0, 72, 61
1, 90000, Note_on_c, 0, 60, 61
1, 90000, Note_on_c, 0, 48, 51
1, 90017, Control_c, 0, 64, 127
1, 90040, Tempo, 1188119
1, 90228, Note_on_c, 0, 48, 0
1, 90228, Note_on_c, 0, 75, 0
1, 90228, Note_on_c, 0, 77, 0
1, 90228, Note_on_c, 0, 69, 0
1, 90228, Note_on_c, 0, 60, 0
1, 90228, Note_on_c, 0, 72, 0
1, 90240, Tempo, 1224490
1, 90240, Note_on_c, 0, 75, 73
1, 90240, Note_on_c, 0, 69, 61
1, 90240, Note_on_c, 0, 72, 61
1, 90240, Note_on_c, 0, 77, 73
1, 90240, Note_on_c, 0, 45, 50
1, 90240, Note_on_c, 0, 57, 59
1, 90468, Note_on_c, 0, 57, 0
1, 90468, Note_on_c, 0, 69, 0
1, 90468, Note_on_c, 0, 72, 0
1, 90468, Note_on_c, 0, 75, 0
1, 90468, Note_on_c, 0, 45, 0
1, 90468, Note_on_c, 0, 77, 0
1, 90480, Note_on_c, 0, 75, 72
1, 90480, Note_on_c, 0, 69, 60
1, 90480, Note_on_c, 0, 72, 60
1, 90480, Note_on_c, 0, 77, 72
1, 90480, Note_on_c, 0, 41, 50
1, 90480, Note_on_c, 0, 53, 59
1, 90540, Tempo, 1270110
1, 90708, Note_on_c, 0, 53, 0
1, 90708, Note_on_c, 0, 69, 0
1, 90708, Note_on_c, 0, 72, 0
1, 90708, Note_on_c, 0, 75, 0
1, 90708, Note_on_c, 0, 41, 0
1, 90708, Note_on_c, 0, 77, 0
1, 90720, Tempo, 1224490
1, 90720, Note_on_c, 0, 77, 63
1, 90720, Note_on_c, 0, 73, 63
1, 90720, Note_on_c, 0, 58, 46
1, 90720, Note_on_c, 0, 46, 46
1, 90720, Control_c, 0, 64, 0
1, 90766, Control_c, 0, 64, 127
1, 90840, Tempo, 1290323
1, 90840, Note_on_c, 0, 73, 0
1, 90840, Note_on_c, 0, 77, 0
1, 90840, Note_on_c, 0, 73, 55
1, 90840, Note_on_c, 0, 70, 55
1, 90948, Note_on_c, 0, 70, 0
1, 90948, Note_on_c, 0, 73, 0
1, 90960, Tempo, 1224490
1, 90960, Note_on_c, 0, 70, 53
1, 90960, Note_on_c, 0, 73, 53
1, 91060, Tempo, 1290323
1, 91080, Note_on_c, 0, 73, 0
1, 91080, Note_on_c, 0, 70, 0
1, 91080, Note_on_c, 0, 70, 48
1, 91080, Note_on_c, 0, 67, 48
1, 91188, Note_on_c, 0, 67, 0
1, 91188, Note_on_c, 0, 70, 0
1, 91200, Note_on_c, 0, 58, 0
1, 91200, Note_on_c, 0, 46, 0
1, 91200, Note_on_c, 0, 65, 46
1, 91200, Note_on_c, 0, 68, 46
1, 91200, Note_on_c, 0, 60, 37
1, 91200, Note_on_c, 0, 48, 37
1, 91208, Control_c, 0, 64, 0
1, 91253, Control_c, 0, 64, 127
1, 91620, Note_on_c, 0, 68, 0
1, 91620, Note_on_c, 0, 65, 0
1, 91620, Note_on_c, 0, 68, 46
1, 91680, Tempo, 1237113
1, 91680, Note_on_c, 0, 68, 0
1, 91680, Note_on_c, 0, 60, 0
1, 91680, Note_on_c, 0, 48, 0
1, 91680, Note_on_c, 0, 67, 49
1, 91680, Note_on_c, 0, 64, 49
1, 91680, Note_on_c, 0, 48, 37
1, 91680, Note_on_c, 0, 58, 37
1, 91698, Control_c, 0, 64, 0
1, 91758, Control_c, 0, 64, 127
1, 91800, Tempo, 1276596
1, 91920, Tempo, 1304348
1, 91920, Note_on_c, 0, 64, 0
1, 91920, Note_on_c, 0, 67, 0
1, 91920, Note_on_c, 0, 65, 46
1, 92040, Tempo, 1363636
1, 92040, Note_on_c, 0, 65, 0
1, 92040, Note_on_c, 0, 67, 43
1, 92160, Tempo, 1363636
1, 92160, Note_on_c, 0, 67, 0
1, 92160, Note_on_c, 0, 48, 0
1, 92160, Note_on_c, 0, 58, 0
1, 92160, Note_on_c, 0, 65, 49
1, 92160, Note_on_c, 0, 56, 37
1, 92160, Note_on_c, 0, 53, 37
1, 92169, Control_c, 0, 64, 0
1, 92344, Control_c, 0, 64, 127
1, 92640, Tempo, 1304348
1, 92640, Note_on_c, 0, 53, 0
1, 92640, Note_on_c, 0, 56, 0
1, 92640, Note_on_c, 0, 65, 0
1, 92640, Note_on_c, 0, 41, 30
1, 92824, Control_c, 0, 64, 0
1, 92880, Tempo, 1224490
1, 92880, Marker_t, "Teil4 Wiederholung"
1, 92880, Note_on_c, 0, 41, 0
1, 92880, Control_c, 0, 91, 127
1, 92880, Note_on_c, 0, 63, 53
1, 92880, Control_c, 0, 91, 127
1, 93120, Tempo, 1165049
1, 93120, Note_on_c, 0, 63, 0
1, 93120, Note_on_c, 0, 68, 53
1, 93360, Tempo, 1200000
1, 93360, Note_on_c, 0, 68, 0
1, 93360, Note_on_c, 0, 72, 51
1, 93600, Tempo, 1142857
1, 93600, Note_on_c, 0, 72, 0
1, 93600, Note_on_c, 0, 75, 58
1, 93840, Tempo, 1153846
1, 93840, Note_on_c, 0, 56, 45
1, 94080, Tempo, 1132075
1, 94080, Note_on_c, 0, 56, 0
1, 94080, Note_on_c, 0, 60, 48
1, 94320, Tempo, 1237113
1, 94320, Note_on_c, 0, 60, 0
1, 94320, Note_on_c, 0, 75, 0
1, 94320, Note_on_c, 0, 73, 50
1, 94320, Note_on_c, 0, 63, 45
1, 94440, Note_on_c, 0, 73, 0
1, 94440, Note_on_c, 0, 72, 47
1, 94560, Tempo, 1188119
1, 94560, Note_on_c, 0, 72, 0
1, 94560, Note_on_c, 0, 63, 0
1, 94560, Note_on_c, 0, 70, 50
1, 94560, Note_on_c, 0, 53, 49
1, 94800, Tempo, 1290323
1, 94800, Note_on_c, 0, 53, 0
1, 94800, Note_on_c, 0, 70, 0
1, 94800, Note_on_c, 0, 68, 47
1, 94800, Note_on_c, 0, 62, 43
1, 94980, Note_on_c, 0, 68, 0
1, 95040, Tempo, 1212121
1, 95040, Note_on_c, 0, 62, 0
1, 95040, Note_on_c, 0, 72, 53
1, 95280, Note_on_c, 0, 51, 40
1, 95520, Tempo, 1142857
1, 95520, Note_on_c, 0, 51, 0
1, 95520, Note_on_c, 0, 72, 0
1, 95520, Note_on_c, 0, 70, 49
1, 95520, Note_on_c, 0, 55, 40
1, 95760, Tempo, 1165049
1, 95760, Note_on_c, 0, 55, 0
1, 95760, Note_on_c, 0, 70, 0
1, 95760, Note_on_c, 0, 60, 67
1, 95760, Note_on_c, 0, 52, 58
1, 95760, Note_on_c, 0, 58, 58
1, 96000, Tempo, 1153846
1, 96000, Note_on_c, 0, 58, 0
1, 96000, Note_on_c, 0, 52, 0
1, 96000, Note_on_c, 0, 60, 0
1, 96000, Note_on_c, 0, 65, 69
1, 96000, Note_on_c, 0, 53, 58
1, 96000, Note_on_c, 0, 56, 58
1, 96240, Tempo, 1188119
1, 96240, Note_on_c, 0, 65, 0
1, 96240, Note_on_c, 0, 68, 67
1, 96480, Tempo, 1132075
1, 96480, Note_on_c, 0, 68, 0
1, 96480, Note_on_c, 0, 56, 0
1, 96480, Note_on_c, 0, 53, 0
1, 96480, Note_on_c, 0, 72, 71
1, 96720, Tempo, 1142857
1, 96720, Note_on_c, 0, 49, 54
1, 96960, Tempo, 1250000
1, 96960, Note_on_c, 0, 53, 52
1, 97000, Tempo, 1165049
1, 97200, Note_on_c, 0, 53, 0
1, 97200, Note_on_c, 0, 72, 0
1, 97200, Note_on_c, 0, 70, 53
1, 97200, Note_on_c, 0, 56, 45
1, 97320, Note_on_c, 0, 70, 0
1, 97320, Note_on_c, 0, 68, 50
1, 97440, Note_on_c, 0, 68, 0
1, 97440, Note_on_c, 0, 56, 0
1, 97440, Note_on_c, 0, 67, 53
1, 97440, Note_on_c, 0, 58, 45
1, 97680, Tempo, 1304348
1, 97680, Note_on_c, 0, 58, 0
1, 97680, Note_on_c, 0, 67, 0
1, 97680, Note_on_c, 0, 65, 47
1, 97680, Note_on_c, 0, 59, 39
1, 97860, Note_on_c, 0, 65, 0
1, 97920, Tempo, 1250000
1, 97920, Note_on_c, 0, 59, 0
1, 97920, Note_on_c, 0, 49, 0
1, 97920, Note_on_c, 0, 65, 49
1, 97920, Note_on_c, 0, 68, 49
1, 97920, Note_on_c, 0, 48, 37
1, 97920, Note_on_c, 0, 60, 37
1, 98023, Control_c, 0, 64, 127
1, 98400, Tempo, 1142857
1, 98400, Note_on_c, 0, 68, 0
1, 98400, Note_on_c, 0, 65, 0
1, 98400, Note_on_c, 0, 64, 46
1, 98400, Note_on_c, 0, 67, 46
1, 98412, Control_c, 0, 64, 0
1, 98503, Control_c, 0, 64, 127
1, 98640, Tempo, 1142857
1, 98640, Note_on_c, 0, 67, 0
1, 98640, Note_on_c, 0, 60, 0
1, 98640, Note_on_c, 0, 48, 0
1, 98640, Note_on_c, 0, 64, 0
1, 98640, Note_on_c, 0, 72, 60
1, 98732, Control_c, 0, 64, 0
1, 98880, Tempo, 1132075
1, 98880, Note_on_c, 0, 72, 0
1, 98880, Note_on_c, 0, 77, 60
1, 99120, Note_on_c, 0, 77, 0
1, 99120, Note_on_c, 0, 80, 59
1, 99120, Note_on_c, 0, 44, 49
1, 99360, Note_on_c, 0, 44, 0
1, 99360, Note_on_c, 0, 80, 0
1, 99360, Note_on_c, 0, 79, 66
1, 99360, Note_on_c, 0, 46, 53
1, 99600, Tempo, 1081081
1, 99600, Note_on_c, 0, 46, 0
1, 99600, Note_on_c, 0, 79, 0
1, 99600, Note_on_c, 0, 77, 65
1, 99600, Note_on_c, 0, 58, 51
1, 99840, Tempo, 1200000
1, 99840, Note_on_c, 0, 58, 0
1, 99840, Note_on_c, 0, 77, 0
1, 99840, Note_on_c, 0, 59, 53
1, 99880, Tempo, 1111111
1, 100080, Tempo, 1132075
1, 100080, Note_on_c, 0, 59, 0
1, 100080, Note_on_c, 0, 72, 66
1, 100080, Note_on_c, 0, 60, 51
1, 100320, Tempo, 1111111
1, 100320, Note_on_c, 0, 60, 0
1, 100320, Note_on_c, 0, 72, 0
1, 100320, Note_on_c, 0, 77, 68
1, 100560, Note_on_c, 0, 77, 0
1, 100560, Note_on_c, 0, 80, 66
1, 100560, Note_on_c, 0, 48, 56
1, 100800, Tempo, 1142857
1, 100800, Note_on_c, 0, 48, 0
1, 100800, Note_on_c, 0, 80, 0
1, 100800, Note_on_c, 0, 79, 72
1, 100800, Note_on_c, 0, 49, 58
1, 101040, Note_on_c, 0, 49, 0
1, 101040, Note_on_c, 0, 79, 0
1, 101040, Note_on_c, 0, 77, 69
1, 101040, Note_on_c, 0, 61, 58
1, 101280, Tempo, 1121495
1, 101280, Note_on_c, 0, 61, 0
1, 101280, Note_on_c, 0, 77, 0
1, 101280, Note_on_c, 0, 63, 65
1, 101520, Tempo, 1263158
1, 101520, Note_on_c, 0, 63, 0
1, 101520, Note_on_c, 0, 72, 61
1, 101520, Note_on_c, 0, 69, 61
1, 101520, Note_on_c, 0, 75, 72
1, 101520, Note_on_c, 0, 77, 72
1, 101520, Note_on_c, 0, 48, 51
1, 101520, Note_on_c, 0, 60, 61
1, 101560, Tempo, 1188119
1, 101570, Control_c, 0, 64, 127
1, 101748, Note_on_c, 0, 60, 0
1, 101748, Note_on_c, 0, 69, 0
1, 101748, Note_on_c, 0, 75, 0
1, 101748, Note_on_c, 0, 72, 0
1, 101748, Note_on_c, 0, 48, 0
1, 101748, Note_on_c, 0, 77, 0
1, 101760, Tempo, 1224490
1, 101760, Note_on_c, 0, 69, 61
1, 101760, Note_on_c, 0, 72, 61
1, 101760, Note_on_c, 0, 75, 73
1, 101760, Note_on_c, 0, 77, 73
1, 101760, Note_on_c, 0, 45, 50
1, 101760, Note_on_c, 0, 57, 59
1, 101988, Note_on_c, 0, 57, 0
1, 101988, Note_on_c, 0, 72, 0
1, 101988, Note_on_c, 0, 75, 0
1, 101988, Note_on_c, 0, 69, 0
1, 101988, Note_on_c, 0, 45, 0
1, 101988, Note_on_c, 0, 77, 0
1, 102000, Tempo, 1297578
1, 102000, Note_on_c, 0, 69, 60
1, 102000, Note_on_c, 0, 72, 60
1, 102000, Note_on_c, 0, 75, 72
1, 102000, Note_on_c, 0, 77, 72
1, 102000, Note_on_c, 0, 41, 50
1, 102000, Note_on_c, 0, 53, 59
1, 102228, Note_on_c, 0, 53, 0
1, 102228, Note_on_c, 0, 72, 0
1, 102228, Note_on_c, 0, 75, 0
1, 102228, Note_on_c, 0, 69, 0
1, 102228, Note_on_c, 0, 41, 0
1, 102228, Note_on_c, 0, 77, 0
1, 102240, Tempo, 1237113
1, 102240, Note_on_c, 0, 73, 63
1, 102240, Note_on_c, 0, 77, 63
1, 102240, Note_on_c, 0, 46, 46
1, 102240, Note_on_c, 0, 58, 46
1, 102254, Control_c, 0, 64, 0
1, 102283, Control_c, 0, 64, 127
1, 102360, Tempo, 1276596
1, 102360, Note_on_c, 0, 77, 0
1, 102360, Note_on_c, 0, 73, 0
1, 102360, Note_on_c, 0, 70, 55
1, 102360, Note_on_c, 0, 73, 55
1, 102468, Note_on_c, 0, 73, 0
1, 102468, Note_on_c, 0, 70, 0
1, 102480, Tempo, 1212121
1, 102480, Note_on_c, 0, 70, 53
1, 102480, Note_on_c, 0, 73, 53
1, 102600, Tempo, 1290323
1, 102600, Note_on_c, 0, 73, 0
1, 102600, Note_on_c, 0, 70, 0
1, 102600, Note_on_c, 0, 70, 48
1, 102600, Note_on_c, 0, 67, 48
1, 102708, Note_on_c, 0, 67, 0
1, 102708, Note_on_c, 0, 70, 0
1, 102720, Note_on_c, 0, 46, 0
1, 102720, Note_on_c, 0, 58, 0
1, 102720, Note_on_c, 0, 65, 46
1, 102720, Note_on_c, 0, 68, 46
1, 102720, Note_on_c, 0, 48, 37
1, 102720, Note_on_c, 0, 60, 37
1, 102728, Control_c, 0, 64, 0
1, 102766, Control_c, 0, 64, 127
1, 103140, Note_on_c, 0, 68, 0
1, 103140, Note_on_c, 0, 65, 0
1, 103140, Note_on_c, 0, 68, 46
1, 103200, Tempo, 1237113
1, 103200, Note_on_c, 0, 68, 0
1, 103200, Note_on_c, 0, 48, 0
1, 103200, Note_on_c, 0, 60, 0
1, 103200, Note_on_c, 0, 64, 49
1, 103200, Note_on_c, 0, 67, 49
1, 103200, Note_on_c, 0, 48, 37
1, 103200, Note_on_c, 0, 58, 37
1, 103218, Control_c, 0, 64, 0
1, 103320, Tempo, 1276596
1, 103334, Control_c, 0, 64, 127
1, 103440, Tempo, 1304348
1, 103440, Note_on_c, 0, 67, 0
1, 103440, Note_on_c, 0, 64, 0
1, 103440, Note_on_c, 0, 65, 46
1, 103560, Tempo, 1363636
1, 103560, Note_on_c, 0, 65, 0
1, 103560, Note_on_c, 0, 67, 43
1, 103680, Tempo, 1363636
1, 103680, Note_on_c, 0, 67, 0
1, 103680, Note_on_c, 0, 48, 0
1, 103680, Note_on_c, 0, 58, 0
1, 103680, Note_on_c, 0, 65, 49
1, 103680, Note_on_c, 0, 53, 37
1, 103680, Note_on_c, 0, 56, 37
1, 103699, Control_c, 0, 64, 0
1, 103807, Control_c, 0, 64, 127
1, 104160, Note_on_c, 0, 56, 0
1, 104160, Note_on_c, 0, 53, 0
1, 104160, Note_on_c, 0, 65, 0
1, 104160, Note_on_c, 0, 41, 28
1, 104344, Control_c, 0, 64, 0
1, 104400, Marker_t, "Teil5"
1, 104400, Note_on_c, 0, 41, 0
1, 104400, Note_on_c, 0, 68, 37
1, 104400, Control_c, 0, 91, 127
1, 104400, Note_on_c, 0, 60, 37
1, 104400, Control_c, 0, 91, 127
1, 104513, Control_c, 0, 64, 127
1, 104628, Note_on_c, 0, 60, 0
1, 104628, Note_on_c, 0, 68, 0
1, 104640, Note_on_c, 0, 60, 37
1, 104640, Note_on_c, 0, 68, 37
1, 104868, Note_on_c, 0, 68, 0
1, 104868, Note_on_c, 0, 60, 0
1, 104880, Note_on_c, 0, 60, 35
1, 104880, Note_on_c, 0, 68, 35
1, 105108, Note_on_c, 0, 68, 0
1, 105108, Note_on_c, 0, 60, 0
1, 105120, Tempo, 1304348
1, 105120, Note_on_c, 0, 60, 40
1, 105120, Note_on_c, 0, 68, 40
1, 105120, Note_on_c, 0, 41, 40
1, 105130, Control_c, 0, 64, 0
1, 105140, Tempo, 1263158
1, 105180, Tempo, 1304348
1, 105198, Control_c, 0, 64, 127
1, 105200, Tempo, 1318681
1, 105220, Tempo, 1290323
1, 105240, Note_on_c, 0, 41, 0
1, 105240, Note_on_c, 0, 53, 27
1, 105260, Tempo, 1276596
1, 105300, Tempo, 1318681
1, 105320, Tempo, 1333333
1, 105340, Tempo, 1318681
1, 105348, Note_on_c, 0, 53, 0
1, 105360, Tempo, 1290323
1, 105360, Note_on_c, 0, 53, 29
1, 105380, Tempo, 1276596
1, 105440, Tempo, 1318681
1, 105460, Tempo, 1333333
1, 105468, Note_on_c, 0, 53, 0
1, 105480, Note_on_c, 0, 53, 28
1, 105500, Tempo, 1318681
1, 105520, Tempo, 1290323
1, 105540, Tempo, 1276596
1, 105560, Tempo, 1263158
1, 105588, Note_on_c, 0, 53, 0
1, 105600, Tempo, 1304348
1, 105600, Note_on_c, 0, 53, 29
1, 105620, Tempo, 1318681
1, 105680, Tempo, 1304348
1, 105700, Tempo, 1290323
1, 105708, Note_on_c, 0, 53, 0
1, 105720, Tempo, 1276596
1, 105720, Note_on_c, 0, 53, 25
1, 105780, Tempo, 1304348
1, 105820, Tempo, 1318681
1, 105828, Note_on_c, 0, 53, 0
1, 105840, Tempo, 1290323
1, 105840, Note_on_c, 0, 68, 0
1, 105840, Note_on_c, 0, 60, 0
1, 105840, Note_on_c, 0, 67, 37
1, 105840, Note_on_c, 0, 58, 37
1, 105840, Note_on_c, 0, 53, 28
1, 105854, Control_c, 0, 64, 0
1, 105860, Tempo, 1276596
1, 105900, Tempo, 1263158
1, 105932, Control_c, 0, 64, 127
1, 105940, Tempo, 1290323
1, 105948, Note_on_c, 0, 53, 0
1, 105960, Tempo, 1304348
1, 105960, Note_on_c, 0, 53, 26
1, 105980, Tempo, 1318681
1, 106020, Tempo, 1290323
1, 106060, Tempo, 1276596
1, 106068, Note_on_c, 0, 53, 0
1, 106080, Tempo, 1263158
1, 106080, Note_on_c, 0, 58, 0
1, 106080, Note_on_c, 0, 67, 0
1, 106080, Note_on_c, 0, 70, 39
1, 106080, Note_on_c, 0, 61, 39
1, 106080, Note_on_c, 0, 53, 29
1, 106120, Tempo, 1276596
1, 106140, Tempo, 1304348
1, 106160, Tempo, 1333333
1, 106180, Tempo, 1304348
1, 106188, Note_on_c, 0, 53, 0
1, 106200, Tempo, 1290323
1, 106200, Note_on_c, 0, 53, 27
1, 106308, Note_on_c, 0, 53, 0
1, 106320, Tempo, 1363636
1, 106320, Note_on_c, 0, 61, 0
1, 106320, Note_on_c, 0, 70, 0
1, 106320, Note_on_c, 0, 55, 37
1, 106320, Note_on_c, 0, 64, 37
1, 106320, Note_on_c, 0, 53, 29
1, 106428, Note_on_c, 0, 53, 0
1, 106440, Note_on_c, 0, 53, 27
1, 106544, Tempo, 1290323
1, 106548, Note_on_c, 0, 53, 0
1, 106560, Tempo, 1276596
1, 106560, Note_on_c, 0, 64, 0
1, 106560, Note_on_c, 0, 55, 0
1, 106560, Note_on_c, 0, 56, 42
1, 106560, Note_on_c, 0, 65, 42
1, 106560, Note_on_c, 0, 41, 34
1, 106576, Control_c, 0, 64, 0
1, 106600, Tempo, 1290323
1, 106612, Tempo, 1304348
1, 106624, Tempo, 1333333
1, 106652, Tempo, 1318681
1, 106659, Control_c, 0, 64, 127
1, 106664, Tempo, 1304348
1, 106680, Tempo, 1276596
1, 106680, Note_on_c, 0, 41, 0
1, 106680, Note_on_c, 0, 53, 26
1, 106692, Tempo, 1263158
1, 106720, Tempo, 1276596
1, 106732, Tempo, 1318681
1, 106772, Tempo, 1304348
1, 106784, Tempo, 1290323
1, 106788, Note_on_c, 0, 53, 0
1, 106800, Tempo, 1276596
1, 106800, Note_on_c, 0, 53, 28
1, 106812, Tempo, 1263158
1, 106824, Tempo, 1290323
1, 106840, Tempo, 1318681
1, 106864, Tempo, 1290323
1, 106880, Tempo, 1276596
1, 106908, Note_on_c, 0, 53, 0
1, 106920, Note_on_c, 0, 53, 26
1, 106932, Tempo, 1333333
1, 106984, Tempo, 1318681
1, 107000, Tempo, 1290323
1, 107024, Tempo, 1276596
1, 107028, Note_on_c, 0, 53, 0
1, 107040, Tempo, 1263158
1, 107040, Note_on_c, 0, 53, 25
1, 107052, Tempo, 1250000
1, 107064, Tempo, 1276596
1, 107080, Tempo, 1304348
1, 107104, Tempo, 1333333
1, 107120, Tempo, 1304348
1, 107132, Tempo, 1290323
1, 107144, Tempo, 1263158
1, 107148, Note_on_c, 0, 53, 0
1, 107160, Note_on_c, 0, 53, 23
1, 107172, Tempo, 1290323
1, 107268, Note_on_c, 0, 53, 0
1, 107280, Tempo, 1333333
1, 107280, Note_on_c, 0, 65, 0
1, 107280, Note_on_c, 0, 56, 0
1, 107280, Note_on_c, 0, 72, 34
1, 107280, Note_on_c, 0, 68, 34
1, 107280, Note_on_c, 0, 53, 26
1, 107293, Control_c, 0, 64, 0
1, 107304, Tempo, 1318681
1, 107332, Tempo, 1304348
1, 107351, Control_c, 0, 64, 127
1, 107360, Tempo, 1290323
1, 107372, Tempo, 1304348
1, 107384, Tempo, 1348315
1, 107388, Note_on_c, 0, 53, 0
1, 107400, Tempo, 1363636
1, 107400, Note_on_c, 0, 53, 23
1, 107412, Tempo, 1348315
1, 107424, Tempo, 1318681
1, 107440, Tempo, 1304348
1, 107452, Tempo, 1290323
1, 107464, Tempo, 1276596
1, 107480, Tempo, 1290323
1, 107492, Tempo, 1333333
1, 107504, Tempo, 1348315
1, 107508, Note_on_c, 0, 53, 0
1, 107508, Note_on_c, 0, 68, 0
1, 107508, Note_on_c, 0, 72, 0
1, 107520, Note_on_c, 0, 72, 35
1, 107520, Note_on_c, 0, 68, 35
1, 107520, Note_on_c, 0, 53, 28
1, 107560, Tempo, 1318681
1, 107572, Tempo, 1304348
1, 107600, Tempo, 1333333
1, 107612, Tempo, 1363636
1, 107628, Note_on_c, 0, 53, 0
1, 107640, Note_on_c, 0, 53, 27
1, 107652, Tempo, 1348315
1, 107664, Tempo, 1318681
1, 107680, Tempo, 1304348
1, 107748, Note_on_c, 0, 53, 0
1, 107748, Note_on_c, 0, 68, 0
1, 107748, Note_on_c, 0, 72, 0
1, 107760, Tempo, 1538462
1, 107760, Note_on_c, 0, 68, 34
1, 107760, Note_on_c, 0, 72, 34
1, 107760, Note_on_c, 0, 53, 28
1, 107868, Note_on_c, 0, 53, 0
1, 107880, Note_on_c, 0, 53, 27
1, 107984, Tempo, 1304348
1, 107988, Note_on_c, 0, 53, 0
1, 107988, Note_on_c, 0, 72, 0
1, 107988, Note_on_c, 0, 68, 0
1, 108000, Note_on_c, 0, 72, 38
1, 108000, Note_on_c, 0, 68, 38
1, 108000, Note_on_c, 0, 64, 38
1, 108000, Note_on_c, 0, 41, 33
1, 108005, Control_c, 0, 64, 0
1, 108040, Tempo, 1290323
1, 108064, Tempo, 1318681
1, 108078, Control_c, 0, 64, 127
1, 108092, Tempo, 1304348
1, 108104, Tempo, 1276596
1, 108120, Tempo, 1263158
1, 108120, Note_on_c, 0, 41, 0
1, 108120, Note_on_c, 0, 53, 22
1, 108144, Tempo, 1290323
1, 108160, Tempo, 1304348
1, 108172, Tempo, 1333333
1, 108184, Tempo, 1348315
1, 108212, Tempo, 1318681
1, 108224, Tempo, 1276596
1, 108228, Note_on_c, 0, 53, 0
1, 108240, Tempo, 1263158
1, 108240, Note_on_c, 0, 53, 26
1, 108264, Tempo, 1290323
1, 108280, Tempo, 1318681
1, 108332, Tempo, 1304348
1, 108344, Tempo, 1290323
1, 108348, Note_on_c, 0, 53, 0
1, 108360, Note_on_c, 0, 53, 24
1, 108372, Tempo, 1276596
1, 108384, Tempo, 1290323
1, 108400, Tempo, 1304348
1, 108424, Tempo, 1318681
1, 108440, Tempo, 1333333
1, 108464, Tempo, 1318681
1, 108468, Note_on_c, 0, 53, 0
1, 108480, Tempo, 1304348
1, 108480, Note_on_c, 0, 53, 26
1, 108492, Tempo, 1290323
1, 108544, Tempo, 1304348
1, 108588, Note_on_c, 0, 53, 0
1, 108600, Note_on_c, 0, 53, 23
1, 108612, Tempo, 1290323
1, 108624, Tempo, 1304348
1, 108708, Note_on_c, 0, 53, 0
1, 108720, Tempo, 1348315
1, 108720, Note_on_c, 0, 68, 0
1, 108720, Note_on_c, 0, 72, 0
1, 108720, Note_on_c, 0, 67, 34
1, 108720, Note_on_c, 0, 70, 34
1, 108720, Note_on_c, 0, 53, 26
1, 108724, Control_c, 0, 64, 0
1, 108760, Tempo, 1395349
1, 108772, Tempo, 1411765
1, 108784, Control_c, 0, 64, 127
1, 108824, Tempo, 1379310
1, 108828, Note_on_c, 0, 53, 0
1, 108840, Tempo, 1363636
1, 108840, Note_on_c, 0, 53, 23
1, 108852, Tempo, 1348315
1, 108880, Tempo, 1395349
1, 108892, Tempo, 1411765
1, 108948, Note_on_c, 0, 53, 0
1, 108960, Note_on_c, 0, 70, 0
1, 108960, Note_on_c, 0, 67, 0
1, 108960, Note_on_c, 0, 70, 37
1, 108960, Note_on_c, 0, 73, 37
1, 108960, Note_on_c, 0, 53, 24
1, 108972, Tempo, 1379310
1, 108984, Tempo, 1363636
1, 109000, Tempo, 1348315
1, 109024, Tempo, 1363636
1, 109040, Tempo, 1395349
1, 109052, Tempo, 1411765
1, 109068, Note_on_c, 0, 53, 0
1, 109080, Note_on_c, 0, 53, 22
1, 109092, Tempo, 1395349
1, 109188, Note_on_c, 0, 53, 0
1, 109200, Tempo, 1666667
1, 109200, Note_on_c, 0, 73, 0
1, 109200, Note_on_c, 0, 70, 0
1, 109200, Note_on_c, 0, 64, 0
1, 109200, Note_on_c, 0, 60, 32
1, 109200, Note_on_c, 0, 64, 32
1, 109200, Note_on_c, 0, 53, 24
1, 109207, Note_on_c, 0, 58, 32
1, 109207, Control_c, 0, 64, 0
1, 109264, Control_c, 0, 64, 127
1, 109308, Note_on_c, 0, 53, 0
1, 109320, Tempo, 1764706
1, 109320, Note_on_c, 0, 53, 23
1, 109428, Note_on_c, 0, 53, 0
1, 109440, Tempo, 1600000
1, 109440, Note_on_c, 0, 60, 0
1, 109440, Note_on_c, 0, 64, 0
1, 109440, Note_on_c, 0, 65, 32
1, 109440, Note_on_c, 0, 60, 32
1, 109440, Note_on_c, 0, 56, 32
1, 109440, Note_on_c, 0, 53, 30
1, 109447, Note_on_c, 0, 58, 0
1, 109447, Control_c, 0, 64, 0
1, 109567, Control_c, 0, 64, 127
1, 109895, Control_c, 0, 64, 0
1, 109920, Note_on_c, 0, 56, 0
1, 109920, Note_on_c, 0, 65, 0
1, 109920, Note_on_c, 0, 60, 0
1, 109920, Note_on_c, 0, 53, 0
1, 110160, Tempo, 1363636
1, 110160, Marker_t, "Teil6"
1, 110160, Note_on_c, 0, 72, 50
1, 110217, Control_c, 0, 64, 127
1, 110240, Tempo, 1348315
1, 110400, Note_on_c, 0, 72, 0
1, 110400, Note_on_c, 0, 72, 50
1, 110640, Note_on_c, 0, 72, 0
1, 110640, Note_on_c, 0, 72, 50
1, 110880, Key_signature, -1, "major"
1, 110880, Tempo, 1300954
1, 110880, Note_on_c, 0, 72, 0
1, 110880, Note_on_c, 0, 72, 52
1, 110880, Note_on_c, 0, 53, 34
1, 110880, Note_on_c, 0, 57, 34
1, 110880, Note_on_c, 0, 60, 34
1, 110892, Control_c, 0, 64, 0
1, 110912, Control_c, 0, 64, 127
1, 111000, Note_on_c, 0, 72, 0
1, 111000, Note_on_c, 0, 74, 47
1, 111040, Note_on_c, 0, 74, 0
1, 111040, Note_on_c, 0, 72, 46
1, 111080, Note_on_c, 0, 72, 0
1, 111080, Note_on_c, 0, 71, 46
1, 111120, Tempo, 1212121
1, 111120, Note_on_c, 0, 71, 0
1, 111120, Note_on_c, 0, 72, 52
1, 111130, Control_c, 0, 64, 0
1, 111161, Control_c, 0, 64, 127
1, 111240, Tempo, 1237113
1, 111240, Note_on_c, 0, 72, 0
1, 111240, Note_on_c, 0, 77, 49
1, 111360, Tempo, 1290323
1, 111360, Note_on_c, 0, 77, 0
1, 111360, Note_on_c, 0, 72, 47
1, 111404, Control_c, 0, 64, 0
1, 111480, Note_on_c, 0, 72, 0
1, 111600, Tempo, 1348315
1, 111600, Note_on_c, 0, 69, 47
1, 111840, Note_on_c, 0, 69, 0
1, 111840, Note_on_c, 0, 60, 0
1, 111840, Note_on_c, 0, 57, 0
1, 111840, Note_on_c, 0, 53, 0
1, 111840, Note_on_c, 0, 72, 48
1, 111840, Note_on_c, 0, 48, 30
1, 111840, Note_on_c, 0, 55, 30
1, 111840, Note_on_c, 0, 58, 30
1, 111892, Control_c, 0, 64, 127
1, 112080, Tempo, 1412097
1, 112080, Note_on_c, 0, 72, 0
1, 112080, Note_on_c, 0, 64, 47
1, 112320, Tempo, 1348315
1, 112320, Note_on_c, 0, 64, 0
1, 112320, Note_on_c, 0, 58, 0
1, 112320, Note_on_c, 0, 55, 0
1, 112320, Note_on_c, 0, 48, 0
1, 112320, Note_on_c, 0, 67, 54
1, 112320, Note_on_c, 0, 50, 37
1, 112320, Note_on_c, 0, 58, 37
1, 112325, Control_c, 0, 64, 0
1, 112518, Control_c, 0, 64, 127
1, 112800, Note_on_c, 0, 58, 0
1, 112800, Note_on_c, 0, 67, 0
1, 112800, Note_on_c, 0, 65, 48
1, 112800, Note_on_c, 0, 57, 37
1, 112814, Control_c, 0, 64, 0
1, 112942, Control_c, 0, 64, 127
1, 113040, Tempo, 1312336
1, 113040, Note_on_c, 0, 57, 0
1, 113040, Note_on_c, 0, 65, 0
1, 113040, Note_on_c, 0, 50, 0
1, 113040, Note_on_c, 0, 60, 40
1, 113040, Note_on_c, 0, 65, 73
1, 113040, Note_on_c, 0, 45, 57
1, 113040, Note_on_c, 0, 57, 57
1, 113280, Note_on_c, 0, 57, 0
1, 113280, Note_on_c, 0, 60, 0
1, 113280, Note_on_c, 0, 65, 0
1, 113280, Note_on_c, 0, 45, 0
1, 113280, Note_on_c, 0, 64, 51
1, 113280, Note_on_c, 0, 67, 75
1, 113280, Note_on_c, 0, 43, 59
1, 113280, Note_on_c, 0, 55, 59
1, 113300, Control_c, 0, 64, 0
1, 113408, Control_c, 0, 64, 127
1, 113520, Note_on_c, 0, 55, 0
1, 113520, Note_on_c, 0, 64, 0
1, 113520, Note_on_c, 0, 67, 0
1, 113520, Note_on_c, 0, 43, 0
1, 113520, Note_on_c, 0, 65, 52
1, 113520, Note_on_c, 0, 60, 40
1, 113520, Note_on_c, 0, 69, 76
1, 113520, Note_on_c, 0, 41, 57
1, 113520, Note_on_c, 0, 53, 57
1, 113533, Control_c, 0, 64, 0
1, 113620, Control_c, 0, 64, 127
1, 113760, Note_on_c, 0, 53, 0
1, 113760, Note_on_c, 0, 69, 0
1, 113760, Note_on_c, 0, 65, 0
1, 113760, Note_on_c, 0, 60, 0
1, 113760, Note_on_c, 0, 41, 0
1, 113760, Note_on_c, 0, 65, 63
1, 113760, Note_on_c, 0, 70, 77
1, 113760, Note_on_c, 0, 50, 49
1, 113760, Note_on_c, 0, 62, 56
1, 113769, Control_c, 0, 64, 0
1, 113842, Control_c, 0, 64, 127
1, 114000, Tempo, 1218522
1, 114000, Note_on_c, 0, 62, 0
1, 114000, Note_on_c, 0, 50, 0
1, 114000, Note_on_c, 0, 46, 48
1, 114000, Note_on_c, 0, 58, 54
1, 114120, Tempo, 1100917
1, 114120, Note_on_c, 0, 70, 0
1, 114120, Note_on_c, 0, 65, 0
1, 114120, Note_on_c, 0, 72, 63
1, 114180, Tempo, 1200000
1, 114180, Note_on_c, 0, 72, 0
1, 114180, Note_on_c, 0, 74, 57
1, 114240, Tempo, 1333333
1, 114240, Note_on_c, 0, 74, 0
1, 114240, Note_on_c, 0, 46, 0
1, 114240, Note_on_c, 0, 58, 0
1, 114240, Note_on_c, 0, 72, 56
1, 114240, Note_on_c, 0, 45, 24
1, 114240, Note_on_c, 0, 57, 29
1, 114257, Control_c, 0, 64, 0
1, 114360, Note_on_c, 0, 57, 0
1, 114360, Note_on_c, 0, 45, 0
1, 114360, Note_on_c, 0, 72, 0
1, 114480, Tempo, 1287830
1, 114480, Note_on_c, 0, 65, 51
1, 114720, Tempo, 1340483
1, 114720, Note_on_c, 0, 65, 0
1, 114720, Note_on_c, 0, 59, 36
1, 114720, Note_on_c, 0, 64, 52
1, 114720, Note_on_c, 0, 50, 34
1, 114795, Control_c, 0, 64, 127
1, 114960, Tempo, 1454193
1, 114960, Note_on_c, 0, 64, 0
1, 114960, Note_on_c, 0, 65, 45
1, 115200, Tempo, 1398927
1, 115200, Note_on_c, 0, 65, 0
1, 115200, Note_on_c, 0, 50, 0
1, 115200, Note_on_c, 0, 59, 0
1, 115200, Note_on_c, 0, 60, 32
1, 115200, Note_on_c, 0, 65, 32
1, 115200, Note_on_c, 0, 69, 47
1, 115200, Note_on_c, 0, 48, 27
1, 115210, Control_c, 0, 64, 0
1, 115247, Control_c, 0, 64, 127
1, 115680, Note_on_c, 0, 69, 0
1, 115680, Note_on_c, 0, 65, 0
1, 115680, Note_on_c, 0, 64, 31
1, 115680, Note_on_c, 0, 67, 46
1, 115698, Control_c, 0, 64, 0
1, 115748, Control_c, 0, 64, 127
1, 115920, Tempo, 1287830
1, 115920, Note_on_c, 0, 67, 0
1, 115920, Note_on_c, 0, 64, 0
1, 115920, Note_on_c, 0, 67, 54
1, 116160, Note_on_c, 0, 67, 0
1, 116160, Note_on_c, 0, 60, 0
1, 116160, Note_on_c, 0, 48, 0
1, 116160, Note_on_c, 0, 67, 59
1, 116160, Note_on_c, 0, 60, 39
1, 116160, Note_on_c, 0, 64, 39
1, 116170, Control_c, 0, 64, 0
1, 116259, Control_c, 0, 64, 127
1, 116400, Note_on_c, 0, 67, 0
1, 116400, Note_on_c, 0, 67, 65
1, 116520, Tempo, 1382807
1, 116532, Control_c, 0, 64, 0
1, 116580, Note_on_c, 0, 67, 0
1, 116580, Note_on_c, 0, 67, 65
1, 116591, Control_c, 0, 64, 127
1, 116640, Tempo, 1287830
1, 116640, Note_on_c, 0, 67, 0
1, 116640, Note_on_c, 0, 64, 0
1, 116640, Note_on_c, 0, 60, 0
1, 116640, Note_on_c, 0, 79, 73
1, 116640, Note_on_c, 0, 59, 51
1, 116640, Note_on_c, 0, 62, 51
1, 116640, Note_on_c, 0, 65, 51
1, 117000, Note_on_c, 0, 79, 0
1, 117000, Note_on_c, 0, 74, 50
1, 117060, Note_on_c, 0, 74, 0
1, 117060, Note_on_c, 0, 71, 46
1, 117120, Note_on_c, 0, 71, 0
1, 117120, Note_on_c, 0, 67, 49
1, 117360, Note_on_c, 0, 67, 0
1, 117360, Note_on_c, 0, 67, 59
1, 117600, Note_on_c, 0, 67, 0
1, 117600, Note_on_c, 0, 59, 0
1, 117600, Note_on_c, 0, 62, 0
1, 117600, Note_on_c, 0, 65, 0
1, 117600, Note_on_c, 0, 67, 63
1, 117600, Note_on_c, 0, 60, 43
1, 117600, Note_on_c, 0, 64, 43
1, 117612, Control_c, 0, 64, 0
1, 117675, Control_c, 0, 64, 127
1, 117840, Note_on_c, 0, 67, 0
1, 117840, Note_on_c, 0, 67, 69
1, 117960, Tempo, 1492909
1, 117995, Control_c, 0, 64, 0
1, 118020, Note_on_c, 0, 67, 0
1, 118020, Note_on_c, 0, 67, 67
1, 118026, Control_c, 0, 64, 127
1, 118080, Tempo, 1287830
1, 118080, Note_on_c, 0, 67, 0
1, 118080, Note_on_c, 0, 64, 0
1, 118080, Note_on_c, 0, 60, 0
1, 118080, Note_on_c, 0, 79, 72
1, 118080, Note_on_c, 0, 50, 51
1, 118080, Note_on_c, 0, 53, 51
1, 118080, Note_on_c, 0, 59, 51
1, 118560, Tempo, 1382807
1, 118560, Note_on_c, 0, 59, 0
1, 118560, Note_on_c, 0, 53, 0
1, 118560, Note_on_c, 0, 50, 0
1, 118560, Note_on_c, 0, 52, 37
1, 118560, Note_on_c, 0, 55, 37
1, 118560, Note_on_c, 0, 60, 37
1, 118574, Control_c, 0, 64, 0
1, 118740, Note_on_c, 0, 79, 0
1, 118740, Note_on_c, 0, 81, 56
1, 118770, Note_on_c, 0, 81, 0
1, 118770, Note_on_c, 0, 83, 49
1, 118800, Note_on_c, 0, 83, 0
1, 118800, Note_on_c, 0, 84, 58
1, 118920, Note_on_c, 0, 84, 0
1, 118920, Note_on_c, 0, 83, 51
1, 119040, Tempo, 1300672
1, 119040, Note_on_c, 0, 83, 0
1, 119040, Note_on_c, 0, 52, 0
1, 119040, Note_on_c, 0, 55, 0
1, 119040, Note_on_c, 0, 60, 0
1, 119040, Note_on_c, 0, 81, 56
1, 119160, Note_on_c, 0, 81, 0
1, 119160, Note_on_c, 0, 79, 50
1, 119280, Note_on_c, 0, 79, 0
1, 119280, Note_on_c, 0, 77, 54
1, 119400, Note_on_c, 0, 77, 0
1, 119400, Note_on_c, 0, 76, 52
1, 119520, Tempo, 1354402
1, 119520, Note_on_c, 0, 76, 0
1, 119520, Note_on_c, 0, 73, 54
1, 119640, Note_on_c, 0, 73, 0
1, 119640, Note_on_c, 0, 74, 49
1, 119760, Note_on_c, 0, 74, 0
1, 119760, Note_on_c, 0, 77, 49
1, 119760, Note_on_c, 0, 62, 30
1, 119760, Note_on_c, 0, 57, 30
1, 119760, Note_on_c, 0, 53, 30
1, 119772, Control_c, 0, 64, 127
1, 119880, Tempo, 1459499
1, 119880, Note_on_c, 0, 77, 0
1, 119880, Note_on_c, 0, 81, 48
1, 120000, Tempo, 1354402
1, 120000, Note_on_c, 0, 81, 0
1, 120000, Note_on_c, 0, 53, 0
1, 120000, Note_on_c, 0, 57, 0
1, 120000, Note_on_c, 0, 62, 0
1, 120000, Note_on_c, 0, 72, 54
1, 120000, Note_on_c, 0, 64, 27
1, 120000, Note_on_c, 0, 60, 21
1, 120000, Note_on_c, 0, 55, 21
1, 120014, Control_c, 0, 64, 0
1, 120144, Control_c, 0, 64, 127
1, 120480, Note_on_c, 0, 60, 0
1, 120480, Note_on_c, 0, 64, 0
1, 120480, Note_on_c, 0, 65, 29
1, 120480, Note_on_c, 0, 62, 23
1, 120497, Control_c, 0, 64, 0
1, 120566, Control_c, 0, 64, 127
1, 120720, Note_on_c, 0, 72, 0
1, 120720, Note_on_c, 0, 76, 48
1, 120720, Note_on_c, 0, 71, 48
1, 120840, Note_on_c, 0, 76, 0
1, 120840, Note_on_c, 0, 74, 47
1, 120960, Note_on_c, 0, 74, 0
1, 120960, Note_on_c, 0, 71, 0
1, 120960, Note_on_c, 0, 62, 0
1, 120960, Note_on_c, 0, 65, 0
1, 120960, Note_on_c, 0, 55, 0
1, 120960, Note_on_c, 0, 72, 47
1, 120960, Note_on_c, 0, 64, 34
1, 120960, Note_on_c, 0, 60, 27
1, 120978, Control_c, 0, 64, 0
1, 121102, Control_c, 0, 64, 127
1, 121440, Tempo, 1395349
1, 121440, Note_on_c, 0, 60, 0
1, 121440, Note_on_c, 0, 64, 0
1, 121440, Note_on_c, 0, 72, 0
1, 121440, Note_on_c, 0, 48, 29
1, 121459, Control_c, 0, 64, 0
1, 121680, Tempo, 1290323
1, 121680, Note_on_c, 0, 48, 0
1, 121680, Control_c, 0, 91, 127
1, 121680, Note_on_c, 0, 72, 50
1, 121680, Control_c, 0, 91, 127
1, 121920, Note_on_c, 0, 72, 0
1, 121920, Note_on_c, 0, 74, 54
1, 122040, Tempo, 1290323
1, 122040, Note_on_c, 0, 72, 50
1, 122050, Note_on_c, 0, 74, 0
1, 122160, Note_on_c, 0, 70, 55
1, 122170, Note_on_c, 0, 72, 0
1, 122280, Note_on_c, 0, 69, 49
1, 122290, Note_on_c, 0, 70, 0
1, 122400, Tempo, 1333333
1, 122400, Note_on_c, 0, 67, 61
1, 122400, Note_on_c, 0, 63, 46
1, 122400, Note_on_c, 0, 60, 46
1, 122410, Note_on_c, 0, 69, 0
1, 122436, Control_c, 0, 64, 127
1, 122880, Tempo, 1276596
1, 122880, Note_on_c, 0, 67, 0
1, 122880, Note_on_c, 0, 66, 51
1, 122888, Control_c, 0, 64, 0
1, 122933, Control_c, 0, 64, 127
1, 123115, Note_on_c, 0, 66, 0
1, 123120, Tempo, 1263158
1, 123120, Note_on_c, 0, 63, 0
1, 123120, Note_on_c, 0, 60, 0
1, 123120, Note_on_c, 0, 66, 63
1, 123120, Note_on_c, 0, 63, 46
1, 123120, Note_on_c, 0, 60, 46
1, 123360, Note_on_c, 0, 60, 0
1, 123360, Note_on_c, 0, 63, 0
1, 123360, Note_on_c, 0, 66, 0
1, 123360, Note_on_c, 0, 67, 65
1, 123360, Note_on_c, 0, 62, 47
1, 123360, Note_on_c, 0, 58, 47
1, 123368, Control_c, 0, 64, 0
1, 123406, Control_c, 0, 64, 127
1, 123600, Tempo, 1379310
1, 123600, Note_on_c, 0, 58, 0
1, 123600, Note_on_c, 0, 62, 0
1, 123600, Note_on_c, 0, 67, 0
1, 123600, Note_on_c, 0, 66, 52
1, 123600, Note_on_c, 0, 69, 66
1, 123600, Note_on_c, 0, 57, 47
1, 123600, Note_on_c, 0, 60, 47
1, 123600, Note_on_c, 0, 62, 47
1, 123611, Control_c, 0, 64, 0
1, 123660, Control_c, 0, 64, 127
1, 123780, Note_on_c, 0, 69, 0
1, 123780, Note_on_c, 0, 66, 0
1, 123840, Tempo, 1318681
1, 123840, Note_on_c, 0, 60, 0
1, 123840, Note_on_c, 0, 57, 0
1, 123840, Note_on_c, 0, 62, 0
1, 123840, Note_on_c, 0, 66, 51
1, 123840, Note_on_c, 0, 69, 65
1, 123840, Note_on_c, 0, 60, 50
1, 123840, Note_on_c, 0, 62, 50
1, 123840, Note_on_c, 0, 55, 50
1, 123850, Control_c, 0, 64, 0
1, 123890, Control_c, 0, 64, 127
1, 124320, Note_on_c, 0, 60, 0
1, 124320, Note_on_c, 0, 66, 0
1, 124320, Note_on_c, 0, 69, 0
1, 124320, Note_on_c, 0, 67, 45
1, 124320, Note_on_c, 0, 70, 56
1, 124320, Note_on_c, 0, 58, 48
1, 124334, Control_c, 0, 64, 0
1, 124373, Control_c, 0, 64, 127
1, 124536, Note_on_c, 0, 58, 0
1, 124536, Note_on_c, 0, 67, 0
1, 124536, Note_on_c, 0, 70, 0
1, 124560, Tempo, 1276596
1, 124560, Note_on_c, 0, 62, 0
1, 124560, Note_on_c, 0, 55, 0
1, 124560, Note_on_c, 0, 64, 51
1, 124560, Note_on_c, 0, 61, 44
1, 124560, Note_on_c, 0, 58, 44
1, 124567, Control_c, 0, 64, 0
1, 124617, Control_c, 0, 64, 127
1, 124800, Note_on_c, 0, 58, 0
1, 124800, Note_on_c, 0, 61, 0
1, 124800, Note_on_c, 0, 64, 0
1, 124800, Note_on_c, 0, 65, 55
1, 124800, Note_on_c, 0, 60, 48
1, 124800, Note_on_c, 0, 57, 48
1, 124814, Control_c, 0, 64, 0
1, 124846, Control_c, 0, 64, 127
1, 125040, Note_on_c, 0, 57, 0
1, 125040, Note_on_c, 0, 60, 0
1, 125040, Note_on_c, 0, 65, 0
1, 125040, Note_on_c, 0, 64, 53
1, 125040, Note_on_c, 0, 67, 53
1, 125040, Note_on_c, 0, 55, 45
1, 125040, Note_on_c, 0, 58, 45
1, 125040, Note_on_c, 0, 60, 45
1, 125054, Control_c, 0, 64, 0
1, 125090, Control_c, 0, 64, 127
1, 125220, Note_on_c, 0, 67, 0
1, 125220, Note_on_c, 0, 64, 0
1, 125280, Note_on_c, 0, 58, 0
1, 125280, Note_on_c, 0, 55, 0
1, 125280, Note_on_c, 0, 60, 0
1, 125280, Note_on_c, 0, 65, 56
1, 125280, Note_on_c, 0, 69, 61
1, 125280, Note_on_c, 0, 53, 48
1, 125280, Note_on_c, 0, 57, 48
1, 125280, Note_on_c, 0, 60, 48
1, 125286, Control_c, 0, 64, 0
1, 125343, Control_c, 0, 64, 127
1, 125520, Note_on_c, 0, 60, 0
1, 125520, Note_on_c, 0, 53, 0
1, 125520, Note_on_c, 0, 57, 0
1, 125520, Note_on_c, 0, 69, 0
1, 125520, Note_on_c, 0, 70, 68
1, 125520, Note_on_c, 0, 50, 50
1, 125526, Control_c, 0, 64, 0
1, 125583, Control_c, 0, 64, 127
1, 125760, Note_on_c, 0, 50, 0
1, 125760, Note_on_c, 0, 70, 0
1, 125760, Note_on_c, 0, 72, 67
1, 125760, Note_on_c, 0, 45, 56
1, 125777, Control_c, 0, 64, 0
1, 125880, Control_c, 0, 64, 127
1, 126000, Note_on_c, 0, 72, 0
1, 126000, Note_on_c, 0, 73, 70
1, 126240, Tempo, 1304348
1, 126240, Note_on_c, 0, 73, 0
1, 126240, Note_on_c, 0, 45, 0
1, 126240, Note_on_c, 0, 76, 72
1, 126240, Note_on_c, 0, 46, 53
1, 126260, Control_c, 0, 64, 0
1, 126320, Control_c, 0, 64, 127
1, 126360, Note_on_c, 0, 74, 65
1, 126370, Note_on_c, 0, 76, 0
1, 126480, Tempo, 1243781
1, 126480, Note_on_c, 0, 65, 0
1, 126480, Note_on_c, 0, 46, 0
1, 126480, Note_on_c, 0, 72, 64
1, 126480, Note_on_c, 0, 43, 46
1, 126490, Note_on_c, 0, 74, 0
1, 126495, Control_c, 0, 64, 0
1, 126572, Control_c, 0, 64, 127
1, 126600, Tempo, 1387604
1, 126600, Note_on_c, 0, 43, 0
1, 126600, Note_on_c, 0, 67, 47
1, 126600, Note_on_c, 0, 70, 58
1, 126610, Note_on_c, 0, 72, 0
1, 126720, Tempo, 1333333
1, 126720, Note_on_c, 0, 65, 46
1, 126720, Note_on_c, 0, 69, 57
1, 126720, Note_on_c, 0, 48, 43
1, 126728, Control_c, 0, 64, 0
1, 126730, Note_on_c, 0, 70, 0
1, 126730, Note_on_c, 0, 67, 0
1, 126819, Control_c, 0, 64, 127
1, 127200, Note_on_c, 0, 69, 0
1, 127200, Note_on_c, 0, 65, 0
1, 127200, Note_on_c, 0, 64, 40
1, 127200, Note_on_c, 0, 67, 51
1, 127216, Control_c, 0, 64, 0
1, 127440, Tempo, 1304348
1, 127440, Note_on_c, 0, 67, 0
1, 127440, Note_on_c, 0, 64, 0
1, 127440, Note_on_c, 0, 72, 65
1, 127539, Control_c, 0, 64, 127
1, 127668, Note_on_c, 0, 72, 0
1, 127680, Note_on_c, 0, 48, 0
1, 127680, Note_on_c, 0, 72, 66
1, 127908, Note_on_c, 0, 72, 0
1, 127920, Tempo, 1379310
1, 127920, Note_on_c, 0, 72, 72
1, 128148, Note_on_c, 0, 72, 0
1, 128160, Tempo, 1304348
1, 128160, Note_on_c, 0, 72, 81
1, 128160, Note_on_c, 0, 82, 81
1, 128160, Note_on_c, 0, 36, 53
1, 128160, Note_on_c, 0, 48, 64
1, 128171, Control_c, 0, 64, 0
1, 128203, Control_c, 0, 64, 127
1, 128520, Note_on_c, 0, 48, 0
1, 128520, Note_on_c, 0, 36, 0
1, 128520, Note_on_c, 0, 38, 51
1, 128520, Note_on_c, 0, 50, 60
1, 128640, Note_on_c, 0, 50, 0
1, 128640, Note_on_c, 0, 38, 0
1, 128640, Note_on_c, 0, 40, 53
1, 128640, Note_on_c, 0, 52, 64
1, 128655, Control_c, 0, 64, 0
1, 128820, Note_on_c, 0, 52, 0
1, 128820, Note_on_c, 0, 40, 0
1, 128880, Tempo, 1276596
1, 128880, Note_on_c, 0, 82, 0
1, 128880, Note_on_c, 0, 81, 69
1, 128880, Note_on_c, 0, 41, 40
1, 128880, Note_on_c, 0, 53, 48
1, 128930, Control_c, 0, 64, 127
1, 129060, Note_on_c, 0, 53, 0
1, 129060, Note_on_c, 0, 41, 0
1, 129120, Note_on_c, 0, 81, 0
1, 129120, Note_on_c, 0, 70, 58
1, 129120, Note_on_c, 0, 79, 70
1, 129120, Note_on_c, 0, 43, 45
1, 129120, Note_on_c, 0, 55, 53
1, 129136, Control_c, 0, 64, 0
1, 129184, Control_c, 0, 64, 127
1, 129300, Note_on_c, 0, 55, 0
1, 129300, Note_on_c, 0, 43, 0
1, 129360, Tempo, 1333333
1, 129360, Note_on_c, 0, 79, 0
1, 129360, Note_on_c, 0, 70, 0
1, 129360, Note_on_c, 0, 69, 56
1, 129360, Note_on_c, 0, 77, 66
1, 129360, Note_on_c, 0, 45, 42
1, 129360, Note_on_c, 0, 57, 50
1, 129367, Control_c, 0, 64, 0
1, 129406, Control_c, 0, 64, 127
1, 129540, Note_on_c, 0, 57, 0
1, 129540, Note_on_c, 0, 45, 0
1, 129600, Tempo, 1378676
1, 129600, Note_on_c, 0, 77, 0
1, 129600, Note_on_c, 0, 69, 0
1, 129600, Note_on_c, 0, 67, 55
1, 129600, Note_on_c, 0, 77, 66
1, 129600, Note_on_c, 0, 46, 45
1, 129600, Note_on_c, 0, 58, 53
1, 129609, Control_c, 0, 64, 0
1, 129783, Control_c, 0, 64, 127
1, 130080, Tempo, 1395349
1, 130080, Note_on_c, 0, 77, 0
1, 130080, Note_on_c, 0, 76, 56
1, 130095, Control_c, 0, 64, 0
1, 130308, Note_on_c, 0, 76, 0
1, 130320, Tempo, 1333333
1, 130320, Note_on_c, 0, 75, 51
1, 130446, Control_c, 0, 64, 127
1, 130548, Note_on_c, 0, 75, 0
1, 130560, Note_on_c, 0, 46, 0
1, 130560, Note_on_c, 0, 72, 0
1, 130560, Note_on_c, 0, 67, 0
1, 130560, Note_on_c, 0, 58, 0
1, 130560, Note_on_c, 0, 75, 50
1, 130788, Note_on_c, 0, 75, 0
1, 130800, Note_on_c, 0, 75, 47
1, 131010, Tempo, 1176471
1, 131028, Note_on_c, 0, 75, 0
1, 131040, Note_on_c, 0, 75, 39
1, 131040, Note_on_c, 0, 65, 43
1, 131040, Note_on_c, 0, 60, 37
1, 131040, Note_on_c, 0, 57, 37
1, 131040, Control_c, 0, 64, 0
1, 131050, Tempo, 1165049
1, 131069, Control_c, 0, 64, 127
1, 131070, Tempo, 1153846
1, 131070, Note_on_c, 0, 75, 0
1, 131070, Note_on_c, 0, 77, 39
1, 131090, Tempo, 1142857
1, 131100, Note_on_c, 0, 77, 0
1, 131100, Note_on_c, 0, 75, 39
1, 131130, Tempo, 1132075
1, 131130, Note_on_c, 0, 75, 0
1, 131130, Note_on_c, 0, 77, 40
1, 131150, Tempo, 1121495
1, 131160, Note_on_c, 0, 77, 0
1, 131160, Note_on_c, 0, 75, 42
1, 131170, Tempo, 1111111
1, 131190, Tempo, 1132075
1, 131190, Note_on_c, 0, 75, 0
1, 131190, Note_on_c, 0, 77, 40
1, 131210, Tempo, 1153846
1, 131220, Note_on_c, 0, 77, 0
1, 131220, Note_on_c, 0, 75, 40
1, 131230, Tempo, 1176471
1, 131250, Tempo, 1200000
1, 131250, Note_on_c, 0, 75, 0
1, 131250, Note_on_c, 0, 77, 40
1, 131254, Tempo, 1090909
1, 131262, Tempo, 1142857
1, 131270, Tempo, 1212121
1, 131280, Tempo, 1212121
1, 131280, Note_on_c, 0, 77, 0
1, 131280, Note_on_c, 0, 75, 42
1, 131368, Tempo, 1363636
1, 131400, Note_on_c, 0, 75, 0
1, 131400, Note_on_c, 0, 77, 47
1, 131520, Note_on_c, 0, 77, 0
1, 131520, Note_on_c, 0, 57, 0
1, 131520, Note_on_c, 0, 60, 0
1, 131520, Note_on_c, 0, 65, 0
1, 131520, Note_on_c, 0, 79, 58
1, 131520, Note_on_c, 0, 60, 37
1, 131520, Note_on_c, 0, 65, 43
1, 131520, Note_on_c, 0, 57, 37
1, 131532, Control_c, 0, 64, 0
1, 131561, Control_c, 0, 64, 127
1, 131760, Note_on_c, 0, 79, 0
1, 131760, Note_on_c, 0, 77, 54
1, 131880, Note_on_c, 0, 77, 0
1, 131880, Note_on_c, 0, 75, 51
1, 131988, Note_on_c, 0, 75, 0
1, 132000, Note_on_c, 0, 60, 0
1, 132000, Note_on_c, 0, 65, 0
1, 132000, Note_on_c, 0, 57, 0
1, 132000, Note_on_c, 0, 75, 54
1, 132000, Note_on_c, 0, 65, 37
1, 132000, Note_on_c, 0, 57, 33
1, 132000, Note_on_c, 0, 63, 37
1, 132013, Control_c, 0, 64, 0
1, 132034, Control_c, 0, 64, 127
1, 132120, Note_on_c, 0, 75, 0
1, 132120, Note_on_c, 0, 74, 51
1, 132228, Note_on_c, 0, 74, 0
1, 132240, Note_on_c, 0, 74, 53
1, 132252, Control_c, 0, 64, 0
1, 132276, Control_c, 0, 64, 127
1, 132360, Tempo, 1569038
1, 132360, Note_on_c, 0, 74, 0
1, 132360, Note_on_c, 0, 73, 51
1, 132468, Note_on_c, 0, 73, 0
1, 132480, Tempo, 1356239
1, 132480, Note_on_c, 0, 63, 0
1, 132480, Note_on_c, 0, 57, 0
1, 132480, Note_on_c, 0, 65, 0
1, 132480, Note_on_c, 0, 73, 55
1, 132480, Note_on_c, 0, 62, 28
1, 132480, Note_on_c, 0, 58, 28
1, 132480, Note_on_c, 0, 65, 36
1, 132486, Control_c, 0, 64, 0
1, 132628, Control_c, 0, 64, 127
1, 132960, Tempo, 1333333
1, 132960, Note_on_c, 0, 73, 0
1, 132960, Note_on_c, 0, 74, 51
1, 132974, Control_c, 0, 64, 0
1, 132980, Tempo, 1318681
1, 133200, Tempo, 1290323
1, 133200, Note_on_c, 0, 74, 0
1, 133200, Note_on_c, 0, 77, 56
1, 133320, Note_on_c, 0, 77, 0
1, 133320, Note_on_c, 0, 76, 53
1, 133440, Note_on_c, 0, 76, 0
1, 133440, Note_on_c, 0, 65, 0
1, 133440, Note_on_c, 0, 58, 0
1, 133440, Note_on_c, 0, 62, 0
1, 133440, Note_on_c, 0, 79, 58
1, 133560, Note_on_c, 0, 79, 0
1, 133560, Note_on_c, 0, 77, 53
1, 133680, Tempo, 1428571
1, 133680, Note_on_c, 0, 77, 0
1, 133680, Note_on_c, 0, 76, 52
1, 133800, Tempo, 1518987
1, 133800, Note_on_c, 0, 76, 0
1, 133800, Note_on_c, 0, 74, 49
1, 133916, Note_on_c, 0, 74, 0
1, 133920, Tempo, 1348315
1, 133920, Note_on_c, 0, 74, 49
1, 133920, Note_on_c, 0, 58, 28
1, 133920, Note_on_c, 0, 53, 28
1, 133920, Note_on_c, 0, 62, 35
1, 133959, Control_c, 0, 64, 127
1, 134400, Note_on_c, 0, 62, 0
1, 134400, Note_on_c, 0, 74, 0
1, 134400, Note_on_c, 0, 58, 0
1, 134400, Note_on_c, 0, 72, 48
1, 134400, Note_on_c, 0, 57, 26
1, 134400, Note_on_c, 0, 60, 33
1, 134411, Control_c, 0, 64, 0
1, 134464, Control_c, 0, 64, 127
1, 134640, Tempo, 1188119
1, 134640, Note_on_c, 0, 72, 0
1, 134640, Note_on_c, 0, 77, 57
1, 134760, Tempo, 1263158
1, 134820, Note_on_c, 0, 77, 0
1, 134820, Note_on_c, 0, 72, 51
1, 134880, Tempo, 1188119
1, 134880, Note_on_c, 0, 72, 0
1, 134880, Note_on_c, 0, 53, 0
1, 134880, Note_on_c, 0, 57, 0
1, 134880, Note_on_c, 0, 60, 0
1, 134880, Note_on_c, 0, 81, 65
1, 135000, Tempo, 1263158
1, 135060, Note_on_c, 0, 81, 0
1, 135060, Note_on_c, 0, 77, 58
1, 135120, Note_on_c, 0, 77, 0
1, 135120, Note_on_c, 0, 72, 66
1, 135300, Note_on_c, 0, 72, 0
1, 135300, Note_on_c, 0, 69, 57
1, 135360, Tempo, 1237113
1, 135360, Note_on_c, 0, 69, 0
1, 135360, Note_on_c, 0, 72, 69
1, 135360, Note_on_c, 0, 55, 43
1, 135360, Note_on_c, 0, 60, 43
1, 135360, Note_on_c, 0, 52, 43
1, 135368, Control_c, 0, 64, 0
1, 135410, Control_c, 0, 64, 127
1, 135720, Note_on_c, 0, 72, 0
1, 135720, Note_on_c, 0, 71, 65
1, 135732, Control_c, 0, 64, 0
1, 135840, Note_on_c, 0, 71, 0
1, 135840, Note_on_c, 0, 70, 65
1, 136080, Tempo, 1200000
1, 136080, Note_on_c, 0, 70, 0
1, 136080, Note_on_c, 0, 55, 0
1, 136080, Note_on_c, 0, 60, 0
1, 136080, Note_on_c, 0, 52, 0
1, 136080, Note_on_c, 0, 64, 67
1, 136080, Note_on_c, 0, 67, 75
1, 136080, Note_on_c, 0, 46, 42
1, 136080, Note_on_c, 0, 58, 48
1, 136133, Control_c, 0, 64, 127
1, 136200, Tempo, 1263158
1, 136260, Note_on_c, 0, 64, 0
1, 136260, Note_on_c, 0, 60, 64
1, 136320, Tempo, 1176471
1, 136320, Note_on_c, 0, 60, 0
1, 136320, Note_on_c, 0, 58, 0
1, 136320, Note_on_c, 0, 46, 0
1, 136320, Note_on_c, 0, 67, 0
1, 136320, Note_on_c, 0, 69, 75
1, 136320, Note_on_c, 0, 65, 67
1, 136320, Note_on_c, 0, 57, 50
1, 136320, Note_on_c, 0, 45, 44
1, 136329, Control_c, 0, 64, 0
1, 136356, Control_c, 0, 64, 127
1, 136440, Tempo, 1263158
1, 136500, Note_on_c, 0, 65, 0
1, 136500, Note_on_c, 0, 60, 63
1, 136560, Tempo, 1176471
1, 136560, Note_on_c, 0, 60, 0
1, 136560, Note_on_c, 0, 45, 0
1, 136560, Note_on_c, 0, 57, 0
1, 136560, Note_on_c, 0, 69, 0
1, 136560, Note_on_c, 0, 67, 67
1, 136560, Note_on_c, 0, 70, 75
1, 136560, Note_on_c, 0, 43, 44
1, 136560, Note_on_c, 0, 55, 50
1, 136577, Control_c, 0, 64, 0
1, 136624, Control_c, 0, 64, 127
1, 136680, Tempo, 1237113
1, 136740, Note_on_c, 0, 67, 0
1, 136740, Note_on_c, 0, 60, 64
1, 136740, Control_c, 0, 64, 0
1, 136800, Tempo, 1411765
1, 136800, Note_on_c, 0, 60, 0
1, 136800, Note_on_c, 0, 55, 0
1, 136800, Note_on_c, 0, 43, 0
1, 136800, Note_on_c, 0, 70, 0
1, 136800, Note_on_c, 0, 72, 76
1, 136800, Note_on_c, 0, 69, 61
1, 136800, Note_on_c, 0, 41, 49
1, 136800, Note_on_c, 0, 53, 54
1, 136920, Tempo, 1348315
1, 136920, Note_on_c, 0, 72, 0
1, 136920, Note_on_c, 0, 74, 53
1, 137040, Note_on_c, 0, 74, 0
1, 137040, Note_on_c, 0, 53, 0
1, 137040, Note_on_c, 0, 41, 0
1, 137040, Note_on_c, 0, 69, 0
1, 137040, Note_on_c, 0, 76, 57
1, 137160, Note_on_c, 0, 76, 0
1, 137160, Note_on_c, 0, 77, 53
1, 137280, Tempo, 1318681
1, 137280, Note_on_c, 0, 77, 0
1, 137280, Note_on_c, 0, 60, 38
1, 137280, Note_on_c, 0, 65, 49
1, 137280, Note_on_c, 0, 57, 37
1, 137280, Note_on_c, 0, 48, 29
1, 137358, Control_c, 0, 64, 127
1, 137732, Control_c, 0, 64, 0
1, 137760, Note_on_c, 0, 57, 0
1, 137760, Note_on_c, 0, 58, 29
1, 137824, Control_c, 0, 64, 127
1, 138000, Tempo, 1348315
1, 138000, Note_on_c, 0, 60, 0
1, 138000, Note_on_c, 0, 65, 0
1, 138000, Note_on_c, 0, 64, 37
1, 138000, Note_on_c, 0, 69, 47
1, 138120, Note_on_c, 0, 69, 0
1, 138120, Note_on_c, 0, 67, 44
1, 138240, Note_on_c, 0, 67, 0
1, 138240, Note_on_c, 0, 64, 0
1, 138240, Note_on_c, 0, 48, 0
1, 138240, Note_on_c, 0, 58, 0
1, 138240, Note_on_c, 0, 65, 47
1, 138240, Note_on_c, 0, 53, 33
1, 138240, Note_on_c, 0, 57, 33
1, 138247, Control_c, 0, 64, 0
1, 138325, Control_c, 0, 64, 127
1, 138720, Tempo, 1395349
1, 138720, Note_on_c, 0, 57, 0
1, 138720, Note_on_c, 0, 53, 0
1, 138720, Note_on_c, 0, 65, 0
1, 138720, Note_on_c, 0, 41, 29
1, 138868, Control_c, 0, 64, 0
1, 138960, Tempo, 1348315
1, 138960, Note_on_c, 0, 41, 0
1, 138960, Control_c, 0, 91, 127
1, 138960, Note_on_c, 0, 60, 33
1, 138960, Note_on_c, 0, 69, 37
1, 138960, Control_c, 0, 91, 127
1, 139116, Control_c, 0, 64, 127
1, 139188, Note_on_c, 0, 69, 0
1, 139188, Note_on_c, 0, 60, 0
1, 139200, Note_on_c, 0, 60, 36
1, 139200, Note_on_c, 0, 69, 40
1, 139428, Note_on_c, 0, 69, 0
1, 139428, Note_on_c, 0, 60, 0
1, 139440, Note_on_c, 0, 60, 33
1, 139440, Note_on_c, 0, 69, 37
1, 139668, Note_on_c, 0, 69, 0
1, 139668, Note_on_c, 0, 60, 0
1, 139680, Tempo, 1304348
1, 139680, Note_on_c, 0, 69, 40
1, 139680, Note_on_c, 0, 60, 36
1, 139680, Note_on_c, 0, 41, 40
1, 139685, Control_c, 0, 64, 0
1, 139779, Control_c, 0, 64, 127
1, 139800, Note_on_c, 0, 41, 0
1, 139800, Note_on_c, 0, 53, 28
1, 139908, Note_on_c, 0, 53, 0
1, 139920, Note_on_c, 0, 53, 29
1, 140028, Note_on_c, 0, 53, 0
1, 140040, Note_on_c, 0, 53, 28
1, 140148, Note_on_c, 0, 53, 0
1, 140160, Note_on_c, 0, 53, 32
1, 140268, Note_on_c, 0, 53, 0
1, 140280, Note_on_c, 0, 53, 29
1, 140388, Note_on_c, 0, 53, 0
1, 140400, Note_on_c, 0, 60, 0
1, 140400, Note_on_c, 0, 69, 0
1, 140400, Note_on_c, 0, 65, 42
1, 140400, Note_on_c, 0, 57, 37
1, 140400, Note_on_c, 0, 53, 29
1, 140508, Note_on_c, 0, 53, 0
1, 140520, Note_on_c, 0, 53, 28
1, 140628, Note_on_c, 0, 53, 0
1, 140640, Note_on_c, 0, 57, 0
1, 140640, Note_on_c, 0, 65, 0
1, 140640, Note_on_c, 0, 67, 39
1, 140640, Note_on_c, 0, 70, 45
1, 140640, Note_on_c, 0, 53, 32
1, 140655, Control_c, 0, 64, 0
1, 140739, Control_c, 0, 64, 127
1, 140748, Note_on_c, 0, 53, 0
1, 140760, Note_on_c, 0, 53, 29
1, 140868, Note_on_c, 0, 53, 0
1, 140880, Note_on_c, 0, 70, 0
1, 140880, Note_on_c, 0, 67, 0
1, 140880, Note_on_c, 0, 64, 37
1, 140880, Note_on_c, 0, 67, 42
1, 140880, Note_on_c, 0, 53, 30
1, 140988, Note_on_c, 0, 53, 0
1, 141000, Note_on_c, 0, 53, 28
1, 141108, Note_on_c, 0, 53, 0
1, 141120, Tempo, 1304348
1, 141120, Note_on_c, 0, 67, 0
1, 141120, Note_on_c, 0, 64, 0
1, 141120, Note_on_c, 0, 72, 49
1, 141120, Note_on_c, 0, 69, 44
1, 141120, Note_on_c, 0, 41, 40
1, 141135, Control_c, 0, 64, 0
1, 141200, Control_c, 0, 64, 127
1, 141240, Note_on_c, 0, 41, 0
1, 141240, Note_on_c, 0, 53, 28
1, 141348, Note_on_c, 0, 53, 0
1, 141360, Note_on_c, 0, 53, 31
1, 141468, Note_on_c, 0, 53, 0
1, 141480, Note_on_c, 0, 53, 28
1, 141588, Note_on_c, 0, 53, 0
1, 141600, Note_on_c, 0, 38, 48
1, 141617, Control_c, 0, 64, 0
1, 141697, Control_c, 0, 64, 127
1, 141720, Note_on_c, 0, 38, 0
1, 141720, Note_on_c, 0, 50, 33
1, 141828, Note_on_c, 0, 50, 0
1, 141840, Tempo, 1333333
1, 141840, Note_on_c, 0, 69, 0
1, 141840, Note_on_c, 0, 72, 0
1, 141840, Note_on_c, 0, 77, 54
1, 141840, Note_on_c, 0, 69, 48
1, 141840, Note_on_c, 0, 50, 37
1, 141948, Note_on_c, 0, 50, 0
1, 141960, Note_on_c, 0, 50, 33
1, 142068, Note_on_c, 0, 50, 0
1, 142068, Note_on_c, 0, 69, 0
1, 142068, Note_on_c, 0, 77, 0
1, 142080, Note_on_c, 0, 69, 50
1, 142080, Note_on_c, 0, 77, 56
1, 142080, Note_on_c, 0, 35, 50
1, 142096, Control_c, 0, 64, 0
1, 142183, Control_c, 0, 64, 127
1, 142200, Note_on_c, 0, 35, 0
1, 142200, Note_on_c, 0, 47, 38
1, 142308, Note_on_c, 0, 47, 0
1, 142308, Note_on_c, 0, 77, 0
1, 142308, Note_on_c, 0, 69, 0
1, 142320, Tempo, 1428571
1, 142320, Note_on_c, 0, 77, 53
1, 142320, Note_on_c, 0, 69, 47
1, 142320, Note_on_c, 0, 47, 42
1, 142428, Note_on_c, 0, 47, 0
1, 142440, Tempo, 1611171
1, 142440, Note_on_c, 0, 47, 38
1, 142548, Note_on_c, 0, 47, 0
1, 142548, Note_on_c, 0, 69, 0
1, 142548, Note_on_c, 0, 77, 0
1, 142560, Tempo, 1326260
1, 142560, Note_on_c, 0, 69, 47
1, 142560, Note_on_c, 0, 65, 42
1, 142560, Note_on_c, 0, 36, 33
1, 142576, Control_c, 0, 64, 0
1, 142645, Control_c, 0, 64, 127
1, 142680, Note_on_c, 0, 36, 0
1, 142680, Note_on_c, 0, 48, 26
1, 142788, Note_on_c, 0, 48, 0
1, 142800, Note_on_c, 0, 48, 28
1, 142908, Note_on_c, 0, 48, 0
1, 142920, Note_on_c, 0, 48, 26
1, 143028, Note_on_c, 0, 48, 0
1, 143040, Note_on_c, 0, 48, 30
1, 143148, Note_on_c, 0, 48, 0
1, 143160, Note_on_c, 0, 48, 22
1, 143268, Note_on_c, 0, 48, 0
1, 143280, Tempo, 1395349
1, 143280, Note_on_c, 0, 65, 0
1, 143280, Note_on_c, 0, 69, 0
1, 143280, Note_on_c, 0, 69, 30
1, 143280, Note_on_c, 0, 72, 34
1, 143280, Note_on_c, 0, 48, 25
1, 143388, Note_on_c, 0, 48, 0
1, 143400, Note_on_c, 0, 48, 23
1, 143508, Note_on_c, 0, 48, 0
1, 143520, Tempo, 1420455
1, 143520, Note_on_c, 0, 72, 0
1, 143520, Note_on_c, 0, 69, 0
1, 143520, Note_on_c, 0, 67, 29
1, 143520, Note_on_c, 0, 70, 33
1, 143520, Note_on_c, 0, 48, 28
1, 143537, Control_c, 0, 64, 0
1, 143589, Control_c, 0, 64, 127
1, 143628, Note_on_c, 0, 48, 0
1, 143640, Note_on_c, 0, 48, 24
1, 143748, Note_on_c, 0, 48, 0
1, 143760, Tempo, 1805054
1, 143760, Note_on_c, 0, 70, 0
1, 143760, Note_on_c, 0, 67, 0
1, 143760, Note_on_c, 0, 64, 30
1, 143760, Note_on_c, 0, 58, 27
1, 143760, Note_on_c, 0, 67, 30
1, 143760, Note_on_c, 0, 48, 26
1, 143868, Note_on_c, 0, 48, 0
1, 143880, Tempo, 2377179
1, 143880, Note_on_c, 0, 48, 24
1, 143988, Note_on_c, 0, 48, 0
1, 144000, Tempo, 1411765
1, 144000, Note_on_c, 0, 67, 0
1, 144000, Note_on_c, 0, 58, 0
1, 144000, Note_on_c, 0, 64, 0
1, 144000, Note_on_c, 0, 65, 30
1, 144000, Note_on_c, 0, 57, 27
1, 144000, Note_on_c, 0, 41, 28
1, 144005, Control_c, 0, 64, 0
1, 144214, Control_c, 0, 64, 127
1, 144480, Marker_t, "Fine"
1, 144480, Note_on_c, 0, 41, 0
1, 144480, Note_on_c, 0, 57, 0
1, 144480, Note_on_c, 0, 65, 0
1, 144854, Control_c, 0, 64, 0
1, 145440, Tempo, 1290323
1, 145440, End_track
0, 0, End_of_file
