0, 0, Header, 0, 1, 480
1, 0, Start_track
1, 0, Title_t, "Klaviersonate Nr. 11 KV 331 3. Satz"
1, 0, Copyright_t, "Copyright © 2005 von Bernd Krüger. "
1, 0, Text_t, "Amadeus Mozart"
1, 0, Text_t, "Fertiggestellt am  11.12.2005\012"
1, 0, Text_t, "Update am 15.7.3013\012"
1, 0, Text_t, "Dauer: 3:10 Minuten\012"
1, 0, Time_signature, 2, 2, 24, 8
1, 0, Key_signature, 0, "major"
1, 0, Tempo, 397351
1, 0, Marker_t, "Allegro"
1, 0, Program_c, 0, 0
1, 0, Control_c, 0, 7, 100
1, 0, Control_c, 0, 10, 64
1, 0, Text_t, "bdca426d104a26ac9dcb070447587523"
1, 0, Control_c, 0, 91, 127
1, 0, Program_c, 0, 0
1, 0, Control_c, 0, 7, 100
1, 0, Control_c, 0, 10, 64
1, 0, Program_c, 0, 0
1, 480, Note_on_c, 0, 71, 66
1, 600, Note_on_c, 0, 71, 0
1, 600, Note_on_c, 0, 69, 64
1, 720, Note_on_c, 0, 69, 0
1, 720, Note_on_c, 0, 68, 64
1, 840, Tempo, 451128
1, 840, Note_on_c, 0, 68, 0
1, 840, Note_on_c, 0, 69, 64
1, 960, Tempo, 397351
1, 960, Note_on_c, 0, 69, 0
1, 960, Note_on_c, 0, 72, 71
1, 960, Note_on_c, 0, 57, 57
1, 1045, Control_c, 0, 64, 127
1, 1080, Note_on_c, 0, 57, 0
1, 1080, Note_on_c, 0, 72, 0
1, 1200, Note_on_c, 0, 64, 52
1, 1200, Note_on_c, 0, 60, 43
1, 1210, Control_c, 0, 64, 0
1, 1320, Tempo, 451128
1, 1320, Note_on_c, 0, 60, 0
1, 1320, Note_on_c, 0, 64, 0
1, 1440, Tempo, 400000
1, 1440, Note_on_c, 0, 74, 66
1, 1440, Note_on_c, 0, 60, 43
1, 1440, Note_on_c, 0, 64, 52
1, 1539, Control_c, 0, 64, 127
1, 1560, Note_on_c, 0, 64, 0
1, 1560, Note_on_c, 0, 60, 0
1, 1560, Note_on_c, 0, 74, 0
1, 1560, Note_on_c, 0, 72, 63
1, 1680, Note_on_c, 0, 72, 0
1, 1680, Note_on_c, 0, 71, 63
1, 1680, Note_on_c, 0, 60, 42
1, 1680, Note_on_c, 0, 64, 51
1, 1800, Tempo, 454545
1, 1800, Note_on_c, 0, 64, 0
1, 1800, Note_on_c, 0, 60, 0
1, 1800, Note_on_c, 0, 71, 0
1, 1800, Note_on_c, 0, 72, 63
1, 1920, Tempo, 397351
1, 1920, Note_on_c, 0, 72, 0
1, 1920, Note_on_c, 0, 76, 72
1, 1920, Note_on_c, 0, 57, 57
1, 1920, Control_c, 0, 64, 0
1, 1995, Control_c, 0, 64, 127
1, 2040, Note_on_c, 0, 57, 0
1, 2040, Note_on_c, 0, 76, 0
1, 2160, Note_on_c, 0, 64, 52
1, 2160, Note_on_c, 0, 60, 43
1, 2170, Control_c, 0, 64, 0
1, 2280, Tempo, 441176
1, 2280, Note_on_c, 0, 60, 0
1, 2280, Note_on_c, 0, 64, 0
1, 2400, Tempo, 397351
1, 2400, Note_on_c, 0, 77, 66
1, 2400, Note_on_c, 0, 64, 52
1, 2400, Note_on_c, 0, 60, 43
1, 2469, Control_c, 0, 64, 127
1, 2520, Note_on_c, 0, 60, 0
1, 2520, Note_on_c, 0, 64, 0
1, 2520, Note_on_c, 0, 77, 0
1, 2520, Note_on_c, 0, 76, 63
1, 2640, Note_on_c, 0, 76, 0
1, 2640, Note_on_c, 0, 75, 63
1, 2640, Note_on_c, 0, 64, 52
1, 2640, Note_on_c, 0, 60, 43
1, 2760, Tempo, 416667
1, 2760, Note_on_c, 0, 60, 0
1, 2760, Note_on_c, 0, 64, 0
1, 2760, Note_on_c, 0, 75, 0
1, 2760, Note_on_c, 0, 76, 63
1, 2880, Tempo, 397351
1, 2880, Note_on_c, 0, 76, 0
1, 2880, Note_on_c, 0, 83, 70
1, 2880, Note_on_c, 0, 57, 57
1, 2880, Control_c, 0, 64, 0
1, 2972, Control_c, 0, 64, 127
1, 3000, Note_on_c, 0, 57, 0
1, 3000, Note_on_c, 0, 83, 0
1, 3000, Note_on_c, 0, 81, 64
1, 3120, Note_on_c, 0, 81, 0
1, 3120, Note_on_c, 0, 80, 64
1, 3120, Note_on_c, 0, 64, 50
1, 3120, Note_on_c, 0, 60, 42
1, 3240, Note_on_c, 0, 60, 0
1, 3240, Note_on_c, 0, 64, 0
1, 3240, Note_on_c, 0, 80, 0
1, 3240, Note_on_c, 0, 81, 64
1, 3360, Tempo, 405405
1, 3360, Note_on_c, 0, 81, 0
1, 3360, Note_on_c, 0, 83, 69
1, 3360, Note_on_c, 0, 57, 57
1, 3360, Control_c, 0, 64, 0
1, 3417, Control_c, 0, 64, 127
1, 3480, Note_on_c, 0, 57, 0
1, 3480, Note_on_c, 0, 83, 0
1, 3480, Note_on_c, 0, 81, 64
1, 3600, Note_on_c, 0, 81, 0
1, 3600, Note_on_c, 0, 80, 64
1, 3600, Note_on_c, 0, 64, 52
1, 3600, Note_on_c, 0, 60, 43
1, 3720, Tempo, 458015
1, 3720, Note_on_c, 0, 60, 0
1, 3720, Note_on_c, 0, 64, 0
1, 3720, Note_on_c, 0, 80, 0
1, 3720, Note_on_c, 0, 81, 64
1, 3840, Tempo, 408163
1, 3840, Note_on_c, 0, 81, 0
1, 3840, Note_on_c, 0, 84, 72
1, 3840, Note_on_c, 0, 57, 57
1, 3840, Control_c, 0, 64, 0
1, 3890, Control_c, 0, 64, 127
1, 3960, Note_on_c, 0, 57, 0
1, 4080, Tempo, 425532
1, 4080, Note_on_c, 0, 64, 50
1, 4080, Note_on_c, 0, 60, 42
1, 4090, Control_c, 0, 64, 0
1, 4200, Tempo, 465116
1, 4200, Note_on_c, 0, 60, 0
1, 4200, Note_on_c, 0, 64, 0
1, 4320, Tempo, 397351
1, 4320, Note_on_c, 0, 84, 0
1, 4320, Note_on_c, 0, 81, 68
1, 4320, Note_on_c, 0, 64, 50
1, 4320, Note_on_c, 0, 60, 42
1, 4440, Note_on_c, 0, 60, 0
1, 4440, Note_on_c, 0, 64, 0
1, 4440, Note_on_c, 0, 81, 0
1, 4560, Tempo, 428571
1, 4560, Note_on_c, 0, 84, 65
1, 4560, Note_on_c, 0, 64, 50
1, 4560, Note_on_c, 0, 60, 42
1, 4680, Tempo, 582524
1, 4680, Note_on_c, 0, 60, 0
1, 4680, Note_on_c, 0, 64, 0
1, 4680, Note_on_c, 0, 84, 0
1, 4740, Tempo, 357143
1, 4740, Note_on_c, 0, 79, 63
1, 4770, Note_on_c, 0, 79, 0
1, 4770, Note_on_c, 0, 81, 63
1, 4800, Tempo, 405405
1, 4800, Note_on_c, 0, 81, 0
1, 4800, Note_on_c, 0, 83, 80
1, 4800, Note_on_c, 0, 52, 65
1, 4920, Note_on_c, 0, 52, 0
1, 4920, Note_on_c, 0, 83, 0
1, 5040, Note_on_c, 0, 78, 54
1, 5040, Note_on_c, 0, 81, 64
1, 5040, Note_on_c, 0, 64, 53
1, 5040, Note_on_c, 0, 59, 44
1, 5160, Note_on_c, 0, 59, 0
1, 5160, Note_on_c, 0, 78, 0
1, 5160, Note_on_c, 0, 81, 0
1, 5160, Note_on_c, 0, 64, 0
1, 5280, Tempo, 397351
1, 5280, Note_on_c, 0, 76, 58
1, 5280, Note_on_c, 0, 79, 69
1, 5280, Note_on_c, 0, 64, 53
1, 5280, Note_on_c, 0, 59, 44
1, 5400, Note_on_c, 0, 59, 0
1, 5400, Note_on_c, 0, 76, 0
1, 5400, Note_on_c, 0, 79, 0
1, 5400, Note_on_c, 0, 64, 0
1, 5520, Tempo, 428571
1, 5520, Note_on_c, 0, 78, 54
1, 5520, Note_on_c, 0, 81, 64
1, 5520, Note_on_c, 0, 64, 53
1, 5520, Note_on_c, 0, 59, 44
1, 5640, Tempo, 571429
1, 5640, Note_on_c, 0, 59, 0
1, 5640, Note_on_c, 0, 78, 0
1, 5640, Note_on_c, 0, 81, 0
1, 5640, Note_on_c, 0, 64, 0
1, 5700, Tempo, 359281
1, 5700, Note_on_c, 0, 79, 65
1, 5730, Note_on_c, 0, 79, 0
1, 5730, Note_on_c, 0, 81, 65
1, 5760, Tempo, 405405
1, 5760, Note_on_c, 0, 81, 0
1, 5760, Note_on_c, 0, 83, 82
1, 5760, Note_on_c, 0, 52, 66
1, 5880, Note_on_c, 0, 52, 0
1, 5880, Note_on_c, 0, 83, 0
1, 6000, Note_on_c, 0, 78, 56
1, 6000, Note_on_c, 0, 81, 66
1, 6000, Note_on_c, 0, 64, 52
1, 6000, Note_on_c, 0, 59, 43
1, 6120, Note_on_c, 0, 59, 0
1, 6120, Note_on_c, 0, 78, 0
1, 6120, Note_on_c, 0, 81, 0
1, 6120, Note_on_c, 0, 64, 0
1, 6240, Tempo, 397351
1, 6240, Note_on_c, 0, 76, 58
1, 6240, Note_on_c, 0, 79, 69
1, 6240, Note_on_c, 0, 64, 52
1, 6240, Note_on_c, 0, 59, 43
1, 6360, Note_on_c, 0, 59, 0
1, 6360, Note_on_c, 0, 76, 0
1, 6360, Note_on_c, 0, 79, 0
1, 6360, Note_on_c, 0, 64, 0
1, 6480, Tempo, 431655
1, 6480, Note_on_c, 0, 78, 55
1, 6480, Note_on_c, 0, 81, 65
1, 6480, Note_on_c, 0, 64, 52
1, 6480, Note_on_c, 0, 59, 43
1, 6600, Tempo, 550459
1, 6600, Note_on_c, 0, 59, 0
1, 6600, Note_on_c, 0, 78, 0
1, 6600, Note_on_c, 0, 81, 0
1, 6600, Note_on_c, 0, 64, 0
1, 6660, Tempo, 355030
1, 6660, Note_on_c, 0, 79, 64
1, 6690, Note_on_c, 0, 79, 0
1, 6690, Note_on_c, 0, 81, 64
1, 6720, Tempo, 402685
1, 6720, Note_on_c, 0, 83, 79
1, 6720, Note_on_c, 0, 52, 67
1, 6750, Note_on_c, 0, 81, 0
1, 6840, Note_on_c, 0, 52, 0
1, 6840, Note_on_c, 0, 83, 0
1, 6960, Note_on_c, 0, 78, 57
1, 6960, Note_on_c, 0, 81, 68
1, 6960, Note_on_c, 0, 64, 52
1, 6960, Note_on_c, 0, 59, 43
1, 7080, Note_on_c, 0, 59, 0
1, 7080, Note_on_c, 0, 78, 0
1, 7080, Note_on_c, 0, 81, 0
1, 7080, Note_on_c, 0, 64, 0
1, 7200, Tempo, 437956
1, 7200, Note_on_c, 0, 76, 58
1, 7200, Note_on_c, 0, 79, 69
1, 7200, Note_on_c, 0, 47, 52
1, 7320, Note_on_c, 0, 47, 0
1, 7320, Note_on_c, 0, 79, 0
1, 7320, Note_on_c, 0, 76, 0
1, 7440, Tempo, 465116
1, 7440, Note_on_c, 0, 75, 56
1, 7440, Note_on_c, 0, 78, 66
1, 7440, Note_on_c, 0, 59, 52
1, 7560, Note_on_c, 0, 59, 0
1, 7560, Note_on_c, 0, 78, 0
1, 7560, Note_on_c, 0, 75, 0
1, 7680, Tempo, 487805
1, 7680, Note_on_c, 0, 76, 69
1, 7680, Note_on_c, 0, 52, 57
1, 8130, Note_on_c, 0, 52, 0
1, 8130, Note_on_c, 0, 76, 0
1, 8160, Tempo, 397351
1, 8160, Note_on_c, 0, 71, 66
1, 8280, Note_on_c, 0, 71, 0
1, 8280, Note_on_c, 0, 69, 64
1, 8400, Note_on_c, 0, 69, 0
1, 8400, Note_on_c, 0, 68, 64
1, 8520, Tempo, 451128
1, 8520, Note_on_c, 0, 68, 0
1, 8520, Note_on_c, 0, 69, 64
1, 8640, Tempo, 397351
1, 8640, Note_on_c, 0, 69, 0
1, 8640, Note_on_c, 0, 72, 71
1, 8640, Note_on_c, 0, 57, 57
1, 8725, Control_c, 0, 64, 127
1, 8760, Note_on_c, 0, 57, 0
1, 8760, Note_on_c, 0, 72, 0
1, 8880, Note_on_c, 0, 64, 52
1, 8880, Note_on_c, 0, 60, 43
1, 8890, Control_c, 0, 64, 0
1, 9000, Tempo, 451128
1, 9000, Note_on_c, 0, 60, 0
1, 9000, Note_on_c, 0, 64, 0
1, 9120, Tempo, 400000
1, 9120, Note_on_c, 0, 74, 66
1, 9120, Note_on_c, 0, 60, 43
1, 9120, Note_on_c, 0, 64, 52
1, 9219, Control_c, 0, 64, 127
1, 9240, Note_on_c, 0, 64, 0
1, 9240, Note_on_c, 0, 60, 0
1, 9240, Note_on_c, 0, 74, 0
1, 9240, Note_on_c, 0, 72, 63
1, 9360, Note_on_c, 0, 72, 0
1, 9360, Note_on_c, 0, 71, 63
1, 9360, Note_on_c, 0, 60, 42
1, 9360, Note_on_c, 0, 64, 51
1, 9480, Tempo, 454545
1, 9480, Note_on_c, 0, 64, 0
1, 9480, Note_on_c, 0, 60, 0
1, 9480, Note_on_c, 0, 71, 0
1, 9480, Note_on_c, 0, 72, 63
1, 9600, Tempo, 397351
1, 9600, Note_on_c, 0, 72, 0
1, 9600, Note_on_c, 0, 76, 72
1, 9600, Note_on_c, 0, 57, 57
1, 9600, Control_c, 0, 64, 0
1, 9675, Control_c, 0, 64, 127
1, 9720, Note_on_c, 0, 57, 0
1, 9720, Note_on_c, 0, 76, 0
1, 9840, Note_on_c, 0, 64, 52
1, 9840, Note_on_c, 0, 60, 43
1, 9850, Control_c, 0, 64, 0
1, 9960, Tempo, 441176
1, 9960, Note_on_c, 0, 60, 0
1, 9960, Note_on_c, 0, 64, 0
1, 10080, Tempo, 397351
1, 10080, Note_on_c, 0, 77, 66
1, 10080, Note_on_c, 0, 64, 52
1, 10080, Note_on_c, 0, 60, 43
1, 10149, Control_c, 0, 64, 127
1, 10200, Note_on_c, 0, 60, 0
1, 10200, Note_on_c, 0, 64, 0
1, 10200, Note_on_c, 0, 77, 0
1, 10200, Note_on_c, 0, 76, 63
1, 10320, Note_on_c, 0, 76, 0
1, 10320, Note_on_c, 0, 75, 63
1, 10320, Note_on_c, 0, 64, 52
1, 10320, Note_on_c, 0, 60, 43
1, 10440, Tempo, 416667
1, 10440, Note_on_c, 0, 60, 0
1, 10440, Note_on_c, 0, 64, 0
1, 10440, Note_on_c, 0, 75, 0
1, 10440, Note_on_c, 0, 76, 63
1, 10560, Tempo, 397351
1, 10560, Note_on_c, 0, 76, 0
1, 10560, Note_on_c, 0, 83, 70
1, 10560, Note_on_c, 0, 57, 57
1, 10560, Control_c, 0, 64, 0
1, 10652, Control_c, 0, 64, 127
1, 10680, Note_on_c, 0, 57, 0
1, 10680, Note_on_c, 0, 83, 0
1, 10680, Note_on_c, 0, 81, 64
1, 10800, Note_on_c, 0, 81, 0
1, 10800, Note_on_c, 0, 80, 64
1, 10800, Note_on_c, 0, 64, 50
1, 10800, Note_on_c, 0, 60, 42
1, 10920, Note_on_c, 0, 60, 0
1, 10920, Note_on_c, 0, 64, 0
1, 10920, Note_on_c, 0, 80, 0
1, 10920, Note_on_c, 0, 81, 64
1, 11040, Tempo, 405405
1, 11040, Note_on_c, 0, 81, 0
1, 11040, Note_on_c, 0, 83, 69
1, 11040, Note_on_c, 0, 57, 57
1, 11040, Control_c, 0, 64, 0
1, 11097, Control_c, 0, 64, 127
1, 11160, Note_on_c, 0, 57, 0
1, 11160, Note_on_c, 0, 83, 0
1, 11160, Note_on_c, 0, 81, 64
1, 11280, Note_on_c, 0, 81, 0
1, 11280, Note_on_c, 0, 80, 64
1, 11280, Note_on_c, 0, 64, 52
1, 11280, Note_on_c, 0, 60, 43
1, 11400, Tempo, 458015
1, 11400, Note_on_c, 0, 60, 0
1, 11400, Note_on_c, 0, 64, 0
1, 11400, Note_on_c, 0, 80, 0
1, 11400, Note_on_c, 0, 81, 64
1, 11520, Tempo, 408163
1, 11520, Note_on_c, 0, 81, 0
1, 11520, Note_on_c, 0, 84, 72
1, 11520, Note_on_c, 0, 57, 57
1, 11520, Control_c, 0, 64, 0
1, 11570, Control_c, 0, 64, 127
1, 11640, Note_on_c, 0, 57, 0
1, 11760, Tempo, 425532
1, 11760, Note_on_c, 0, 64, 50
1, 11760, Note_on_c, 0, 60, 42
1, 11770, Control_c, 0, 64, 0
1, 11880, Tempo, 465116
1, 11880, Note_on_c, 0, 60, 0
1, 11880, Note_on_c, 0, 64, 0
1, 12000, Tempo, 397351
1, 12000, Note_on_c, 0, 84, 0
1, 12000, Note_on_c, 0, 81, 68
1, 12000, Note_on_c, 0, 64, 50
1, 12000, Note_on_c, 0, 60, 42
1, 12120, Note_on_c, 0, 60, 0
1, 12120, Note_on_c, 0, 64, 0
1, 12120, Note_on_c, 0, 81, 0
1, 12240, Tempo, 428571
1, 12240, Note_on_c, 0, 84, 65
1, 12240, Note_on_c, 0, 64, 50
1, 12240, Note_on_c, 0, 60, 42
1, 12360, Tempo, 582524
1, 12360, Note_on_c, 0, 60, 0
1, 12360, Note_on_c, 0, 64, 0
1, 12360, Note_on_c, 0, 84, 0
1, 12420, Tempo, 357143
1, 12420, Note_on_c, 0, 79, 63
1, 12450, Note_on_c, 0, 79, 0
1, 12450, Note_on_c, 0, 81, 63
1, 12480, Tempo, 405405
1, 12480, Note_on_c, 0, 81, 0
1, 12480, Note_on_c, 0, 83, 80
1, 12480, Note_on_c, 0, 52, 65
1, 12600, Note_on_c, 0, 52, 0
1, 12600, Note_on_c, 0, 83, 0
1, 12720, Note_on_c, 0, 78, 54
1, 12720, Note_on_c, 0, 81, 64
1, 12720, Note_on_c, 0, 64, 53
1, 12720, Note_on_c, 0, 59, 44
1, 12840, Note_on_c, 0, 59, 0
1, 12840, Note_on_c, 0, 78, 0
1, 12840, Note_on_c, 0, 81, 0
1, 12840, Note_on_c, 0, 64, 0
1, 12960, Tempo, 397351
1, 12960, Note_on_c, 0, 76, 58
1, 12960, Note_on_c, 0, 79, 69
1, 12960, Note_on_c, 0, 64, 53
1, 12960, Note_on_c, 0, 59, 44
1, 13080, Note_on_c, 0, 59, 0
1, 13080, Note_on_c, 0, 76, 0
1, 13080, Note_on_c, 0, 79, 0
1, 13080, Note_on_c, 0, 64, 0
1, 13200, Tempo, 428571
1, 13200, Note_on_c, 0, 78, 54
1, 13200, Note_on_c, 0, 81, 64
1, 13200, Note_on_c, 0, 64, 53
1, 13200, Note_on_c, 0, 59, 44
1, 13320, Tempo, 571429
1, 13320, Note_on_c, 0, 59, 0
1, 13320, Note_on_c, 0, 78, 0
1, 13320, Note_on_c, 0, 81, 0
1, 13320, Note_on_c, 0, 64, 0
1, 13380, Tempo, 359281
1, 13380, Note_on_c, 0, 79, 65
1, 13410, Note_on_c, 0, 79, 0
1, 13410, Note_on_c, 0, 81, 65
1, 13440, Tempo, 405405
1, 13440, Note_on_c, 0, 81, 0
1, 13440, Note_on_c, 0, 83, 82
1, 13440, Note_on_c, 0, 52, 66
1, 13560, Note_on_c, 0, 52, 0
1, 13560, Note_on_c, 0, 83, 0
1, 13680, Note_on_c, 0, 78, 56
1, 13680, Note_on_c, 0, 81, 66
1, 13680, Note_on_c, 0, 64, 52
1, 13680, Note_on_c, 0, 59, 43
1, 13800, Note_on_c, 0, 59, 0
1, 13800, Note_on_c, 0, 78, 0
1, 13800, Note_on_c, 0, 81, 0
1, 13800, Note_on_c, 0, 64, 0
1, 13920, Tempo, 397351
1, 13920, Note_on_c, 0, 76, 58
1, 13920, Note_on_c, 0, 79, 69
1, 13920, Note_on_c, 0, 64, 52
1, 13920, Note_on_c, 0, 59, 43
1, 14040, Note_on_c, 0, 59, 0
1, 14040, Note_on_c, 0, 76, 0
1, 14040, Note_on_c, 0, 79, 0
1, 14040, Note_on_c, 0, 64, 0
1, 14160, Tempo, 431655
1, 14160, Note_on_c, 0, 78, 55
1, 14160, Note_on_c, 0, 81, 65
1, 14160, Note_on_c, 0, 64, 52
1, 14160, Note_on_c, 0, 59, 43
1, 14280, Tempo, 550459
1, 14280, Note_on_c, 0, 59, 0
1, 14280, Note_on_c, 0, 78, 0
1, 14280, Note_on_c, 0, 81, 0
1, 14280, Note_on_c, 0, 64, 0
1, 14340, Tempo, 355030
1, 14340, Note_on_c, 0, 79, 64
1, 14370, Note_on_c, 0, 79, 0
1, 14370, Note_on_c, 0, 81, 64
1, 14400, Tempo, 400000
1, 14400, Note_on_c, 0, 83, 79
1, 14400, Note_on_c, 0, 52, 67
1, 14430, Note_on_c, 0, 81, 0
1, 14520, Note_on_c, 0, 52, 0
1, 14520, Note_on_c, 0, 83, 0
1, 14640, Note_on_c, 0, 78, 57
1, 14640, Note_on_c, 0, 81, 68
1, 14640, Note_on_c, 0, 64, 52
1, 14640, Note_on_c, 0, 59, 43
1, 14760, Note_on_c, 0, 59, 0
1, 14760, Note_on_c, 0, 78, 0
1, 14760, Note_on_c, 0, 81, 0
1, 14760, Note_on_c, 0, 64, 0
1, 14880, Tempo, 434783
1, 14880, Note_on_c, 0, 76, 58
1, 14880, Note_on_c, 0, 79, 69
1, 14880, Note_on_c, 0, 47, 52
1, 15000, Note_on_c, 0, 47, 0
1, 15000, Note_on_c, 0, 79, 0
1, 15000, Note_on_c, 0, 76, 0
1, 15120, Tempo, 491803
1, 15120, Note_on_c, 0, 75, 56
1, 15120, Note_on_c, 0, 78, 66
1, 15120, Note_on_c, 0, 59, 52
1, 15240, Note_on_c, 0, 59, 0
1, 15240, Note_on_c, 0, 78, 0
1, 15240, Note_on_c, 0, 75, 0
1, 15360, Tempo, 461538
1, 15360, Note_on_c, 0, 76, 69
1, 15360, Note_on_c, 0, 52, 57
1, 15810, Note_on_c, 0, 52, 0
1, 15810, Note_on_c, 0, 76, 0
1, 15840, Tempo, 434783
1, 15840, Note_on_c, 0, 72, 56
1, 15840, Note_on_c, 0, 76, 56
1, 15960, Note_on_c, 0, 76, 0
1, 15960, Note_on_c, 0, 72, 0
1, 16080, Tempo, 425532
1, 16080, Note_on_c, 0, 74, 56
1, 16080, Note_on_c, 0, 77, 56
1, 16200, Note_on_c, 0, 77, 0
1, 16200, Note_on_c, 0, 74, 0
1, 16320, Tempo, 416667
1, 16320, Note_on_c, 0, 76, 66
1, 16320, Note_on_c, 0, 79, 66
1, 16320, Note_on_c, 0, 48, 59
1, 16440, Note_on_c, 0, 48, 0
1, 16440, Note_on_c, 0, 79, 0
1, 16440, Note_on_c, 0, 76, 0
1, 16560, Note_on_c, 0, 76, 57
1, 16560, Note_on_c, 0, 79, 57
1, 16560, Note_on_c, 0, 60, 53
1, 16680, Note_on_c, 0, 60, 0
1, 16680, Note_on_c, 0, 79, 0
1, 16680, Note_on_c, 0, 76, 0
1, 16800, Tempo, 410959
1, 16800, Note_on_c, 0, 81, 64
1, 16800, Note_on_c, 0, 52, 59
1, 16920, Note_on_c, 0, 52, 0
1, 16920, Note_on_c, 0, 81, 0
1, 16920, Note_on_c, 0, 79, 57
1, 16956, Control_c, 0, 64, 127
1, 17040, Note_on_c, 0, 79, 0
1, 17040, Note_on_c, 0, 77, 57
1, 17040, Note_on_c, 0, 64, 57
1, 17100, Tempo, 451128
1, 17160, Note_on_c, 0, 64, 0
1, 17160, Note_on_c, 0, 77, 0
1, 17160, Note_on_c, 0, 76, 57
1, 17280, Tempo, 431655
1, 17280, Note_on_c, 0, 76, 0
1, 17280, Note_on_c, 0, 74, 65
1, 17280, Note_on_c, 0, 71, 65
1, 17280, Note_on_c, 0, 55, 60
1, 17285, Control_c, 0, 64, 0
1, 17407, Control_c, 0, 64, 127
1, 17520, Note_on_c, 0, 71, 0
1, 17520, Note_on_c, 0, 67, 59
1, 17746, Tempo, 491803
1, 17760, Tempo, 434783
1, 17760, Note_on_c, 0, 67, 0
1, 17760, Note_on_c, 0, 55, 0
1, 17760, Note_on_c, 0, 74, 0
1, 17760, Note_on_c, 0, 72, 56
1, 17760, Note_on_c, 0, 76, 56
1, 17760, Control_c, 0, 64, 0
1, 17880, Note_on_c, 0, 76, 0
1, 17880, Note_on_c, 0, 72, 0
1, 18000, Tempo, 425532
1, 18000, Note_on_c, 0, 74, 56
1, 18000, Note_on_c, 0, 77, 56
1, 18120, Note_on_c, 0, 77, 0
1, 18120, Note_on_c, 0, 74, 0
1, 18240, Tempo, 416667
1, 18240, Note_on_c, 0, 76, 66
1, 18240, Note_on_c, 0, 79, 66
1, 18240, Note_on_c, 0, 48, 59
1, 18360, Note_on_c, 0, 48, 0
1, 18360, Note_on_c, 0, 79, 0
1, 18360, Note_on_c, 0, 76, 0
1, 18480, Note_on_c, 0, 76, 57
1, 18480, Note_on_c, 0, 79, 57
1, 18480, Note_on_c, 0, 60, 53
1, 18600, Note_on_c, 0, 60, 0
1, 18600, Note_on_c, 0, 79, 0
1, 18600, Note_on_c, 0, 76, 0
1, 18720, Tempo, 410959
1, 18720, Note_on_c, 0, 81, 64
1, 18720, Note_on_c, 0, 52, 59
1, 18840, Note_on_c, 0, 52, 0
1, 18840, Note_on_c, 0, 81, 0
1, 18840, Note_on_c, 0, 79, 57
1, 18876, Control_c, 0, 64, 127
1, 18960, Note_on_c, 0, 79, 0
1, 18960, Note_on_c, 0, 77, 57
1, 18960, Note_on_c, 0, 64, 57
1, 19020, Tempo, 451128
1, 19080, Note_on_c, 0, 64, 0
1, 19080, Note_on_c, 0, 77, 0
1, 19080, Note_on_c, 0, 76, 57
1, 19200, Tempo, 431655
1, 19200, Note_on_c, 0, 76, 0
1, 19200, Note_on_c, 0, 74, 65
1, 19200, Note_on_c, 0, 71, 65
1, 19200, Note_on_c, 0, 55, 60
1, 19205, Control_c, 0, 64, 0
1, 19327, Control_c, 0, 64, 127
1, 19666, Tempo, 491803
1, 19680, Tempo, 454545
1, 19680, Note_on_c, 0, 55, 0
1, 19680, Note_on_c, 0, 71, 0
1, 19680, Note_on_c, 0, 74, 0
1, 19680, Note_on_c, 0, 69, 56
1, 19680, Note_on_c, 0, 72, 56
1, 19680, Control_c, 0, 64, 0
1, 19800, Note_on_c, 0, 72, 0
1, 19800, Note_on_c, 0, 69, 0
1, 19920, Tempo, 425532
1, 19920, Note_on_c, 0, 71, 56
1, 19920, Note_on_c, 0, 74, 56
1, 20040, Note_on_c, 0, 74, 0
1, 20040, Note_on_c, 0, 71, 0
1, 20160, Tempo, 416667
1, 20160, Note_on_c, 0, 72, 66
1, 20160, Note_on_c, 0, 76, 66
1, 20160, Note_on_c, 0, 45, 59
1, 20280, Note_on_c, 0, 45, 0
1, 20280, Note_on_c, 0, 76, 0
1, 20280, Note_on_c, 0, 72, 0
1, 20400, Note_on_c, 0, 72, 57
1, 20400, Note_on_c, 0, 76, 57
1, 20400, Note_on_c, 0, 57, 53
1, 20520, Note_on_c, 0, 57, 0
1, 20520, Note_on_c, 0, 76, 0
1, 20520, Note_on_c, 0, 72, 0
1, 20640, Tempo, 410959
1, 20640, Note_on_c, 0, 77, 64
1, 20640, Note_on_c, 0, 48, 59
1, 20760, Note_on_c, 0, 48, 0
1, 20760, Note_on_c, 0, 77, 0
1, 20760, Note_on_c, 0, 76, 57
1, 20796, Control_c, 0, 64, 127
1, 20880, Note_on_c, 0, 76, 0
1, 20880, Note_on_c, 0, 74, 57
1, 20880, Note_on_c, 0, 60, 57
1, 20940, Tempo, 451128
1, 21000, Note_on_c, 0, 60, 0
1, 21000, Note_on_c, 0, 74, 0
1, 21000, Note_on_c, 0, 72, 57
1, 21120, Tempo, 431655
1, 21120, Note_on_c, 0, 72, 0
1, 21120, Note_on_c, 0, 71, 65
1, 21120, Note_on_c, 0, 68, 65
1, 21120, Note_on_c, 0, 52, 60
1, 21125, Control_c, 0, 64, 0
1, 21247, Control_c, 0, 64, 127
1, 21360, Note_on_c, 0, 68, 0
1, 21360, Note_on_c, 0, 64, 59
1, 21600, Tempo, 434783
1, 21600, Note_on_c, 0, 64, 0
1, 21600, Note_on_c, 0, 52, 0
1, 21600, Note_on_c, 0, 71, 0
1, 21600, Note_on_c, 0, 69, 56
1, 21600, Note_on_c, 0, 72, 56
1, 21600, Control_c, 0, 64, 0
1, 21720, Note_on_c, 0, 72, 0
1, 21720, Note_on_c, 0, 69, 0
1, 21840, Tempo, 425532
1, 21840, Note_on_c, 0, 71, 56
1, 21840, Note_on_c, 0, 74, 56
1, 21960, Note_on_c, 0, 74, 0
1, 21960, Note_on_c, 0, 71, 0
1, 22080, Tempo, 416667
1, 22080, Note_on_c, 0, 72, 66
1, 22080, Note_on_c, 0, 76, 66
1, 22080, Note_on_c, 0, 45, 59
1, 22200, Note_on_c, 0, 45, 0
1, 22200, Note_on_c, 0, 76, 0
1, 22200, Note_on_c, 0, 72, 0
1, 22320, Note_on_c, 0, 72, 57
1, 22320, Note_on_c, 0, 76, 57
1, 22320, Note_on_c, 0, 57, 53
1, 22440, Note_on_c, 0, 57, 0
1, 22440, Note_on_c, 0, 76, 0
1, 22440, Note_on_c, 0, 72, 0
1, 22560, Tempo, 410959
1, 22560, Note_on_c, 0, 77, 64
1, 22560, Note_on_c, 0, 48, 59
1, 22680, Note_on_c, 0, 48, 0
1, 22680, Note_on_c, 0, 77, 0
1, 22680, Note_on_c, 0, 76, 57
1, 22716, Control_c, 0, 64, 127
1, 22800, Note_on_c, 0, 76, 0
1, 22800, Note_on_c, 0, 74, 57
1, 22800, Note_on_c, 0, 60, 57
1, 22860, Tempo, 451128
1, 22920, Note_on_c, 0, 60, 0
1, 22920, Note_on_c, 0, 74, 0
1, 22920, Note_on_c, 0, 72, 57
1, 23040, Tempo, 431655
1, 23040, Note_on_c, 0, 72, 0
1, 23040, Note_on_c, 0, 71, 65
1, 23040, Note_on_c, 0, 68, 65
1, 23040, Note_on_c, 0, 52, 60
1, 23045, Control_c, 0, 64, 0
1, 23167, Control_c, 0, 64, 127
1, 23520, Tempo, 397351
1, 23520, Note_on_c, 0, 52, 0
1, 23520, Note_on_c, 0, 68, 0
1, 23520, Note_on_c, 0, 71, 0
1, 23520, Note_on_c, 0, 71, 56
1, 23520, Control_c, 0, 64, 0
1, 23640, Note_on_c, 0, 71, 0
1, 23640, Note_on_c, 0, 69, 56
1, 23760, Note_on_c, 0, 69, 0
1, 23760, Note_on_c, 0, 68, 56
1, 23880, Tempo, 451128
1, 23880, Note_on_c, 0, 68, 0
1, 23880, Note_on_c, 0, 69, 56
1, 24000, Tempo, 397351
1, 24000, Note_on_c, 0, 69, 0
1, 24000, Note_on_c, 0, 72, 59
1, 24000, Note_on_c, 0, 57, 53
1, 24085, Control_c, 0, 64, 127
1, 24120, Note_on_c, 0, 57, 0
1, 24120, Note_on_c, 0, 72, 0
1, 24240, Note_on_c, 0, 64, 47
1, 24240, Note_on_c, 0, 60, 47
1, 24250, Control_c, 0, 64, 0
1, 24360, Tempo, 451128
1, 24360, Note_on_c, 0, 60, 0
1, 24360, Note_on_c, 0, 64, 0
1, 24480, Tempo, 400000
1, 24480, Note_on_c, 0, 74, 62
1, 24480, Note_on_c, 0, 60, 47
1, 24480, Note_on_c, 0, 64, 47
1, 24579, Control_c, 0, 64, 127
1, 24600, Note_on_c, 0, 64, 0
1, 24600, Note_on_c, 0, 60, 0
1, 24600, Note_on_c, 0, 74, 0
1, 24600, Note_on_c, 0, 72, 57
1, 24720, Note_on_c, 0, 72, 0
1, 24720, Note_on_c, 0, 71, 57
1, 24720, Note_on_c, 0, 60, 47
1, 24720, Note_on_c, 0, 64, 47
1, 24840, Tempo, 454545
1, 24840, Note_on_c, 0, 64, 0
1, 24840, Note_on_c, 0, 60, 0
1, 24840, Note_on_c, 0, 71, 0
1, 24840, Note_on_c, 0, 72, 57
1, 24960, Tempo, 397351
1, 24960, Note_on_c, 0, 72, 0
1, 24960, Note_on_c, 0, 76, 66
1, 24960, Note_on_c, 0, 57, 54
1, 24960, Control_c, 0, 64, 0
1, 25035, Control_c, 0, 64, 127
1, 25080, Note_on_c, 0, 57, 0
1, 25080, Note_on_c, 0, 76, 0
1, 25200, Note_on_c, 0, 64, 48
1, 25200, Note_on_c, 0, 60, 48
1, 25210, Control_c, 0, 64, 0
1, 25320, Tempo, 441176
1, 25320, Note_on_c, 0, 60, 0
1, 25320, Note_on_c, 0, 64, 0
1, 25440, Tempo, 397351
1, 25440, Note_on_c, 0, 77, 63
1, 25440, Note_on_c, 0, 64, 48
1, 25440, Note_on_c, 0, 60, 48
1, 25509, Control_c, 0, 64, 127
1, 25560, Note_on_c, 0, 60, 0
1, 25560, Note_on_c, 0, 64, 0
1, 25560, Note_on_c, 0, 77, 0
1, 25560, Note_on_c, 0, 76, 58
1, 25680, Note_on_c, 0, 76, 0
1, 25680, Note_on_c, 0, 75, 58
1, 25680, Note_on_c, 0, 64, 48
1, 25680, Note_on_c, 0, 60, 48
1, 25800, Tempo, 416667
1, 25800, Note_on_c, 0, 60, 0
1, 25800, Note_on_c, 0, 64, 0
1, 25800, Note_on_c, 0, 75, 0
1, 25800, Note_on_c, 0, 76, 58
1, 25920, Tempo, 400000
1, 25920, Note_on_c, 0, 76, 0
1, 25920, Note_on_c, 0, 83, 70
1, 25920, Note_on_c, 0, 57, 56
1, 25920, Control_c, 0, 64, 0
1, 26012, Control_c, 0, 64, 127
1, 26040, Note_on_c, 0, 57, 0
1, 26040, Note_on_c, 0, 83, 0
1, 26040, Note_on_c, 0, 81, 63
1, 26160, Note_on_c, 0, 81, 0
1, 26160, Note_on_c, 0, 80, 63
1, 26160, Note_on_c, 0, 64, 49
1, 26160, Note_on_c, 0, 60, 49
1, 26280, Note_on_c, 0, 60, 0
1, 26280, Note_on_c, 0, 64, 0
1, 26280, Note_on_c, 0, 80, 0
1, 26280, Note_on_c, 0, 81, 63
1, 26400, Tempo, 413793
1, 26400, Note_on_c, 0, 81, 0
1, 26400, Note_on_c, 0, 83, 71
1, 26400, Note_on_c, 0, 57, 57
1, 26400, Control_c, 0, 64, 0
1, 26457, Control_c, 0, 64, 127
1, 26520, Note_on_c, 0, 57, 0
1, 26520, Note_on_c, 0, 83, 0
1, 26520, Note_on_c, 0, 81, 64
1, 26640, Note_on_c, 0, 81, 0
1, 26640, Note_on_c, 0, 80, 64
1, 26640, Note_on_c, 0, 64, 52
1, 26640, Note_on_c, 0, 60, 43
1, 26760, Tempo, 512821
1, 26760, Note_on_c, 0, 60, 0
1, 26760, Note_on_c, 0, 64, 0
1, 26760, Note_on_c, 0, 80, 0
1, 26760, Note_on_c, 0, 81, 64
1, 26880, Tempo, 408163
1, 26880, Note_on_c, 0, 81, 0
1, 26880, Note_on_c, 0, 84, 76
1, 26880, Note_on_c, 0, 53, 57
1, 26880, Control_c, 0, 64, 0
1, 26930, Control_c, 0, 64, 127
1, 27000, Note_on_c, 0, 53, 0
1, 27120, Tempo, 425532
1, 27120, Note_on_c, 0, 63, 51
1, 27120, Note_on_c, 0, 57, 51
1, 27130, Control_c, 0, 64, 0
1, 27240, Tempo, 465116
1, 27240, Note_on_c, 0, 57, 0
1, 27240, Note_on_c, 0, 63, 0
1, 27360, Tempo, 410959
1, 27360, Note_on_c, 0, 84, 0
1, 27360, Note_on_c, 0, 81, 62
1, 27360, Note_on_c, 0, 63, 43
1, 27360, Note_on_c, 0, 57, 43
1, 27480, Note_on_c, 0, 57, 0
1, 27480, Note_on_c, 0, 63, 0
1, 27480, Note_on_c, 0, 81, 0
1, 27600, Tempo, 428571
1, 27600, Note_on_c, 0, 83, 62
1, 27600, Note_on_c, 0, 63, 39
1, 27600, Note_on_c, 0, 57, 39
1, 27720, Note_on_c, 0, 57, 0
1, 27720, Note_on_c, 0, 63, 0
1, 27720, Note_on_c, 0, 83, 0
1, 27840, Tempo, 405405
1, 27840, Note_on_c, 0, 84, 70
1, 27840, Note_on_c, 0, 52, 46
1, 27960, Note_on_c, 0, 52, 0
1, 27960, Note_on_c, 0, 84, 0
1, 28080, Note_on_c, 0, 83, 62
1, 28080, Note_on_c, 0, 64, 42
1, 28080, Note_on_c, 0, 57, 42
1, 28200, Note_on_c, 0, 57, 0
1, 28200, Note_on_c, 0, 64, 0
1, 28200, Note_on_c, 0, 83, 0
1, 28320, Tempo, 397351
1, 28320, Note_on_c, 0, 81, 62
1, 28320, Note_on_c, 0, 50, 42
1, 28440, Note_on_c, 0, 50, 0
1, 28440, Note_on_c, 0, 81, 0
1, 28560, Tempo, 428571
1, 28560, Note_on_c, 0, 80, 62
1, 28560, Note_on_c, 0, 59, 42
1, 28560, Note_on_c, 0, 53, 42
1, 28680, Note_on_c, 0, 53, 0
1, 28680, Note_on_c, 0, 59, 0
1, 28680, Note_on_c, 0, 80, 0
1, 28800, Tempo, 405405
1, 28800, Note_on_c, 0, 81, 71
1, 28800, Note_on_c, 0, 48, 47
1, 28920, Note_on_c, 0, 48, 0
1, 28920, Note_on_c, 0, 81, 0
1, 29040, Note_on_c, 0, 76, 64
1, 29040, Note_on_c, 0, 57, 39
1, 29040, Note_on_c, 0, 52, 39
1, 29160, Note_on_c, 0, 52, 0
1, 29160, Note_on_c, 0, 57, 0
1, 29160, Note_on_c, 0, 76, 0
1, 29280, Tempo, 397351
1, 29280, Note_on_c, 0, 50, 41
1, 29284, Note_on_c, 0, 77, 64
1, 29400, Note_on_c, 0, 50, 0
1, 29404, Note_on_c, 0, 77, 0
1, 29520, Tempo, 431655
1, 29520, Note_on_c, 0, 74, 64
1, 29520, Note_on_c, 0, 59, 41
1, 29520, Note_on_c, 0, 53, 41
1, 29640, Note_on_c, 0, 53, 0
1, 29640, Note_on_c, 0, 59, 0
1, 29640, Note_on_c, 0, 74, 0
1, 29760, Tempo, 410959
1, 29760, Note_on_c, 0, 72, 74
1, 29760, Note_on_c, 0, 52, 48
1, 29760, Note_on_c, 0, 57, 48
1, 29840, Control_c, 0, 64, 127
1, 29880, Note_on_c, 0, 57, 0
1, 29880, Note_on_c, 0, 52, 0
1, 30000, Note_on_c, 0, 57, 41
1, 30000, Note_on_c, 0, 52, 41
1, 30120, Note_on_c, 0, 52, 0
1, 30120, Note_on_c, 0, 57, 0
1, 30235, Note_on_c, 0, 52, 41
1, 30240, Tempo, 434783
1, 30240, Note_on_c, 0, 72, 0
1, 30240, Note_on_c, 0, 71, 64
1, 30240, Note_on_c, 0, 56, 41
1, 30251, Control_c, 0, 64, 0
1, 30300, Note_on_c, 0, 71, 0
1, 30300, Note_on_c, 0, 72, 57
1, 30332, Control_c, 0, 64, 127
1, 30355, Note_on_c, 0, 52, 0
1, 30360, Note_on_c, 0, 72, 0
1, 30360, Note_on_c, 0, 56, 0
1, 30360, Note_on_c, 0, 71, 57
1, 30420, Note_on_c, 0, 71, 0
1, 30420, Note_on_c, 0, 72, 57
1, 30480, Tempo, 451128
1, 30480, Note_on_c, 0, 72, 0
1, 30480, Note_on_c, 0, 71, 57
1, 30480, Note_on_c, 0, 52, 41
1, 30480, Note_on_c, 0, 56, 41
1, 30484, Note_on_c, 0, 71, 0
1, 30520, Note_on_c, 0, 72, 57
1, 30550, Tempo, 447761
1, 30560, Note_on_c, 0, 72, 0
1, 30560, Note_on_c, 0, 71, 57
1, 30570, Tempo, 468750
1, 30590, Tempo, 491803
1, 30600, Note_on_c, 0, 71, 0
1, 30600, Note_on_c, 0, 56, 0
1, 30600, Note_on_c, 0, 52, 0
1, 30600, Note_on_c, 0, 69, 64
1, 30610, Tempo, 521739
1, 30630, Tempo, 550459
1, 30650, Tempo, 582524
1, 30660, Note_on_c, 0, 69, 0
1, 30660, Note_on_c, 0, 71, 57
1, 30670, Tempo, 625000
1, 30690, Tempo, 666667
1, 30710, Tempo, 472441
1, 30720, Note_on_c, 0, 71, 0
1, 30720, Note_on_c, 0, 69, 65
1, 30720, Note_on_c, 0, 45, 46
1, 30720, Note_on_c, 0, 57, 46
1, 30720, Control_c, 0, 64, 0
1, 31170, Note_on_c, 0, 57, 0
1, 31170, Note_on_c, 0, 69, 0
1, 31200, Tempo, 434783
1, 31200, Note_on_c, 0, 45, 0
1, 31200, Note_on_c, 0, 72, 56
1, 31200, Note_on_c, 0, 76, 56
1, 31320, Note_on_c, 0, 76, 0
1, 31320, Note_on_c, 0, 72, 0
1, 31440, Tempo, 425532
1, 31440, Note_on_c, 0, 74, 56
1, 31440, Note_on_c, 0, 77, 56
1, 31560, Note_on_c, 0, 77, 0
1, 31560, Note_on_c, 0, 74, 0
1, 31680, Tempo, 416667
1, 31680, Note_on_c, 0, 76, 66
1, 31680, Note_on_c, 0, 79, 66
1, 31680, Note_on_c, 0, 48, 59
1, 31800, Note_on_c, 0, 48, 0
1, 31800, Note_on_c, 0, 79, 0
1, 31800, Note_on_c, 0, 76, 0
1, 31920, Note_on_c, 0, 76, 57
1, 31920, Note_on_c, 0, 79, 57
1, 31920, Note_on_c, 0, 60, 53
1, 32040, Note_on_c, 0, 60, 0
1, 32040, Note_on_c, 0, 79, 0
1, 32040, Note_on_c, 0, 76, 0
1, 32160, Tempo, 410959
1, 32160, Note_on_c, 0, 81, 64
1, 32160, Note_on_c, 0, 52, 59
1, 32280, Note_on_c, 0, 52, 0
1, 32280, Note_on_c, 0, 81, 0
1, 32280, Note_on_c, 0, 79, 57
1, 32316, Control_c, 0, 64, 127
1, 32400, Note_on_c, 0, 79, 0
1, 32400, Note_on_c, 0, 77, 57
1, 32400, Note_on_c, 0, 64, 57
1, 32460, Tempo, 451128
1, 32520, Note_on_c, 0, 64, 0
1, 32520, Note_on_c, 0, 77, 0
1, 32520, Note_on_c, 0, 76, 57
1, 32640, Tempo, 431655
1, 32640, Note_on_c, 0, 76, 0
1, 32640, Note_on_c, 0, 74, 65
1, 32640, Note_on_c, 0, 71, 65
1, 32640, Note_on_c, 0, 55, 60
1, 32645, Control_c, 0, 64, 0
1, 32767, Control_c, 0, 64, 127
1, 32880, Note_on_c, 0, 71, 0
1, 32880, Note_on_c, 0, 67, 59
1, 33106, Tempo, 491803
1, 33120, Tempo, 434783
1, 33120, Note_on_c, 0, 67, 0
1, 33120, Note_on_c, 0, 55, 0
1, 33120, Note_on_c, 0, 74, 0
1, 33120, Note_on_c, 0, 72, 56
1, 33120, Note_on_c, 0, 76, 56
1, 33120, Control_c, 0, 64, 0
1, 33240, Note_on_c, 0, 76, 0
1, 33240, Note_on_c, 0, 72, 0
1, 33360, Tempo, 425532
1, 33360, Note_on_c, 0, 74, 56
1, 33360, Note_on_c, 0, 77, 56
1, 33480, Note_on_c, 0, 77, 0
1, 33480, Note_on_c, 0, 74, 0
1, 33600, Tempo, 416667
1, 33600, Note_on_c, 0, 76, 66
1, 33600, Note_on_c, 0, 79, 66
1, 33600, Note_on_c, 0, 48, 59
1, 33720, Note_on_c, 0, 48, 0
1, 33720, Note_on_c, 0, 79, 0
1, 33720, Note_on_c, 0, 76, 0
1, 33840, Note_on_c, 0, 76, 57
1, 33840, Note_on_c, 0, 79, 57
1, 33840, Note_on_c, 0, 60, 53
1, 33960, Note_on_c, 0, 60, 0
1, 33960, Note_on_c, 0, 79, 0
1, 33960, Note_on_c, 0, 76, 0
1, 34080, Tempo, 410959
1, 34080, Note_on_c, 0, 81, 64
1, 34080, Note_on_c, 0, 52, 59
1, 34200, Note_on_c, 0, 52, 0
1, 34200, Note_on_c, 0, 81, 0
1, 34200, Note_on_c, 0, 79, 57
1, 34236, Control_c, 0, 64, 127
1, 34320, Note_on_c, 0, 79, 0
1, 34320, Note_on_c, 0, 77, 57
1, 34320, Note_on_c, 0, 64, 57
1, 34380, Tempo, 451128
1, 34440, Note_on_c, 0, 64, 0
1, 34440, Note_on_c, 0, 77, 0
1, 34440, Note_on_c, 0, 76, 57
1, 34560, Tempo, 431655
1, 34560, Note_on_c, 0, 76, 0
1, 34560, Note_on_c, 0, 74, 65
1, 34560, Note_on_c, 0, 71, 65
1, 34560, Note_on_c, 0, 55, 60
1, 34565, Control_c, 0, 64, 0
1, 34687, Control_c, 0, 64, 127
1, 35026, Tempo, 491803
1, 35040, Tempo, 454545
1, 35040, Note_on_c, 0, 55, 0
1, 35040, Note_on_c, 0, 71, 0
1, 35040, Note_on_c, 0, 74, 0
1, 35040, Note_on_c, 0, 69, 56
1, 35040, Note_on_c, 0, 72, 56
1, 35040, Control_c, 0, 64, 0
1, 35160, Note_on_c, 0, 72, 0
1, 35160, Note_on_c, 0, 69, 0
1, 35280, Tempo, 425532
1, 35280, Note_on_c, 0, 71, 56
1, 35280, Note_on_c, 0, 74, 56
1, 35400, Note_on_c, 0, 74, 0
1, 35400, Note_on_c, 0, 71, 0
1, 35520, Tempo, 416667
1, 35520, Note_on_c, 0, 72, 66
1, 35520, Note_on_c, 0, 76, 66
1, 35520, Note_on_c, 0, 45, 59
1, 35640, Note_on_c, 0, 45, 0
1, 35640, Note_on_c, 0, 76, 0
1, 35640, Note_on_c, 0, 72, 0
1, 35760, Note_on_c, 0, 72, 57
1, 35760, Note_on_c, 0, 76, 57
1, 35760, Note_on_c, 0, 57, 53
1, 35880, Note_on_c, 0, 57, 0
1, 35880, Note_on_c, 0, 76, 0
1, 35880, Note_on_c, 0, 72, 0
1, 36000, Tempo, 410959
1, 36000, Note_on_c, 0, 77, 64
1, 36000, Note_on_c, 0, 48, 59
1, 36120, Note_on_c, 0, 48, 0
1, 36120, Note_on_c, 0, 77, 0
1, 36120, Note_on_c, 0, 76, 57
1, 36156, Control_c, 0, 64, 127
1, 36240, Note_on_c, 0, 76, 0
1, 36240, Note_on_c, 0, 74, 57
1, 36240, Note_on_c, 0, 60, 57
1, 36300, Tempo, 451128
1, 36360, Note_on_c, 0, 60, 0
1, 36360, Note_on_c, 0, 74, 0
1, 36360, Note_on_c, 0, 72, 57
1, 36480, Tempo, 431655
1, 36480, Note_on_c, 0, 72, 0
1, 36480, Note_on_c, 0, 71, 65
1, 36480, Note_on_c, 0, 68, 65
1, 36480, Note_on_c, 0, 52, 60
1, 36485, Control_c, 0, 64, 0
1, 36607, Control_c, 0, 64, 127
1, 36720, Note_on_c, 0, 68, 0
1, 36720, Note_on_c, 0, 64, 59
1, 36960, Tempo, 434783
1, 36960, Note_on_c, 0, 64, 0
1, 36960, Note_on_c, 0, 52, 0
1, 36960, Note_on_c, 0, 71, 0
1, 36960, Note_on_c, 0, 69, 56
1, 36960, Note_on_c, 0, 72, 56
1, 36960, Control_c, 0, 64, 0
1, 37080, Note_on_c, 0, 72, 0
1, 37080, Note_on_c, 0, 69, 0
1, 37200, Tempo, 425532
1, 37200, Note_on_c, 0, 71, 56
1, 37200, Note_on_c, 0, 74, 56
1, 37320, Note_on_c, 0, 74, 0
1, 37320, Note_on_c, 0, 71, 0
1, 37440, Tempo, 416667
1, 37440, Note_on_c, 0, 72, 66
1, 37440, Note_on_c, 0, 76, 66
1, 37440, Note_on_c, 0, 45, 59
1, 37560, Note_on_c, 0, 45, 0
1, 37560, Note_on_c, 0, 76, 0
1, 37560, Note_on_c, 0, 72, 0
1, 37680, Note_on_c, 0, 72, 57
1, 37680, Note_on_c, 0, 76, 57
1, 37680, Note_on_c, 0, 57, 53
1, 37800, Note_on_c, 0, 57, 0
1, 37800, Note_on_c, 0, 76, 0
1, 37800, Note_on_c, 0, 72, 0
1, 37920, Tempo, 410959
1, 37920, Note_on_c, 0, 77, 64
1, 37920, Note_on_c, 0, 48, 59
1, 38040, Note_on_c, 0, 48, 0
1, 38040, Note_on_c, 0, 77, 0
1, 38040, Note_on_c, 0, 76, 57
1, 38076, Control_c, 0, 64, 127
1, 38160, Note_on_c, 0, 76, 0
1, 38160, Note_on_c, 0, 74, 57
1, 38160, Note_on_c, 0, 60, 57
1, 38220, Tempo, 451128
1, 38280, Note_on_c, 0, 60, 0
1, 38280, Note_on_c, 0, 74, 0
1, 38280, Note_on_c, 0, 72, 57
1, 38400, Tempo, 431655
1, 38400, Note_on_c, 0, 72, 0
1, 38400, Note_on_c, 0, 71, 65
1, 38400, Note_on_c, 0, 68, 65
1, 38400, Note_on_c, 0, 52, 60
1, 38405, Control_c, 0, 64, 0
1, 38527, Control_c, 0, 64, 127
1, 38880, Tempo, 397351
1, 38880, Note_on_c, 0, 52, 0
1, 38880, Note_on_c, 0, 68, 0
1, 38880, Note_on_c, 0, 71, 0
1, 38880, Note_on_c, 0, 71, 56
1, 38880, Control_c, 0, 64, 0
1, 39000, Note_on_c, 0, 71, 0
1, 39000, Note_on_c, 0, 69, 56
1, 39120, Note_on_c, 0, 69, 0
1, 39120, Note_on_c, 0, 68, 56
1, 39240, Tempo, 451128
1, 39240, Note_on_c, 0, 68, 0
1, 39240, Note_on_c, 0, 69, 56
1, 39360, Tempo, 397351
1, 39360, Note_on_c, 0, 69, 0
1, 39360, Note_on_c, 0, 72, 59
1, 39360, Note_on_c, 0, 57, 53
1, 39445, Control_c, 0, 64, 127
1, 39480, Note_on_c, 0, 57, 0
1, 39480, Note_on_c, 0, 72, 0
1, 39600, Note_on_c, 0, 64, 47
1, 39600, Note_on_c, 0, 60, 47
1, 39610, Control_c, 0, 64, 0
1, 39720, Tempo, 451128
1, 39720, Note_on_c, 0, 60, 0
1, 39720, Note_on_c, 0, 64, 0
1, 39840, Tempo, 400000
1, 39840, Note_on_c, 0, 74, 62
1, 39840, Note_on_c, 0, 60, 47
1, 39840, Note_on_c, 0, 64, 47
1, 39939, Control_c, 0, 64, 127
1, 39960, Note_on_c, 0, 64, 0
1, 39960, Note_on_c, 0, 60, 0
1, 39960, Note_on_c, 0, 74, 0
1, 39960, Note_on_c, 0, 72, 57
1, 40080, Note_on_c, 0, 72, 0
1, 40080, Note_on_c, 0, 71, 57
1, 40080, Note_on_c, 0, 60, 47
1, 40080, Note_on_c, 0, 64, 47
1, 40200, Tempo, 454545
1, 40200, Note_on_c, 0, 64, 0
1, 40200, Note_on_c, 0, 60, 0
1, 40200, Note_on_c, 0, 71, 0
1, 40200, Note_on_c, 0, 72, 57
1, 40320, Tempo, 397351
1, 40320, Note_on_c, 0, 72, 0
1, 40320, Note_on_c, 0, 76, 66
1, 40320, Note_on_c, 0, 57, 54
1, 40320, Control_c, 0, 64, 0
1, 40395, Control_c, 0, 64, 127
1, 40440, Note_on_c, 0, 57, 0
1, 40440, Note_on_c, 0, 76, 0
1, 40560, Note_on_c, 0, 64, 48
1, 40560, Note_on_c, 0, 60, 48
1, 40570, Control_c, 0, 64, 0
1, 40680, Tempo, 441176
1, 40680, Note_on_c, 0, 60, 0
1, 40680, Note_on_c, 0, 64, 0
1, 40800, Tempo, 397351
1, 40800, Note_on_c, 0, 77, 63
1, 40800, Note_on_c, 0, 64, 48
1, 40800, Note_on_c, 0, 60, 48
1, 40869, Control_c, 0, 64, 127
1, 40920, Note_on_c, 0, 60, 0
1, 40920, Note_on_c, 0, 64, 0
1, 40920, Note_on_c, 0, 77, 0
1, 40920, Note_on_c, 0, 76, 58
1, 41040, Note_on_c, 0, 76, 0
1, 41040, Note_on_c, 0, 75, 58
1, 41040, Note_on_c, 0, 64, 48
1, 41040, Note_on_c, 0, 60, 48
1, 41160, Tempo, 416667
1, 41160, Note_on_c, 0, 60, 0
1, 41160, Note_on_c, 0, 64, 0
1, 41160, Note_on_c, 0, 75, 0
1, 41160, Note_on_c, 0, 76, 58
1, 41280, Tempo, 400000
1, 41280, Note_on_c, 0, 76, 0
1, 41280, Note_on_c, 0, 83, 70
1, 41280, Note_on_c, 0, 57, 56
1, 41280, Control_c, 0, 64, 0
1, 41372, Control_c, 0, 64, 127
1, 41400, Note_on_c, 0, 57, 0
1, 41400, Note_on_c, 0, 83, 0
1, 41400, Note_on_c, 0, 81, 63
1, 41520, Note_on_c, 0, 81, 0
1, 41520, Note_on_c, 0, 80, 63
1, 41520, Note_on_c, 0, 64, 49
1, 41520, Note_on_c, 0, 60, 49
1, 41640, Note_on_c, 0, 60, 0
1, 41640, Note_on_c, 0, 64, 0
1, 41640, Note_on_c, 0, 80, 0
1, 41640, Note_on_c, 0, 81, 63
1, 41760, Tempo, 413793
1, 41760, Note_on_c, 0, 81, 0
1, 41760, Note_on_c, 0, 83, 71
1, 41760, Note_on_c, 0, 57, 57
1, 41760, Control_c, 0, 64, 0
1, 41817, Control_c, 0, 64, 127
1, 41880, Note_on_c, 0, 57, 0
1, 41880, Note_on_c, 0, 83, 0
1, 41880, Note_on_c, 0, 81, 64
1, 42000, Note_on_c, 0, 81, 0
1, 42000, Note_on_c, 0, 80, 64
1, 42000, Note_on_c, 0, 64, 52
1, 42000, Note_on_c, 0, 60, 43
1, 42120, Tempo, 512821
1, 42120, Note_on_c, 0, 60, 0
1, 42120, Note_on_c, 0, 64, 0
1, 42120, Note_on_c, 0, 80, 0
1, 42120, Note_on_c, 0, 81, 64
1, 42240, Tempo, 408163
1, 42240, Note_on_c, 0, 81, 0
1, 42240, Note_on_c, 0, 84, 76
1, 42240, Note_on_c, 0, 53, 57
1, 42240, Control_c, 0, 64, 0
1, 42290, Control_c, 0, 64, 127
1, 42360, Note_on_c, 0, 53, 0
1, 42480, Tempo, 425532
1, 42480, Note_on_c, 0, 63, 51
1, 42480, Note_on_c, 0, 57, 51
1, 42490, Control_c, 0, 64, 0
1, 42600, Tempo, 465116
1, 42600, Note_on_c, 0, 57, 0
1, 42600, Note_on_c, 0, 63, 0
1, 42720, Tempo, 410959
1, 42720, Note_on_c, 0, 84, 0
1, 42720, Note_on_c, 0, 81, 62
1, 42720, Note_on_c, 0, 63, 43
1, 42720, Note_on_c, 0, 57, 43
1, 42840, Note_on_c, 0, 57, 0
1, 42840, Note_on_c, 0, 63, 0
1, 42840, Note_on_c, 0, 81, 0
1, 42960, Tempo, 428571
1, 42960, Note_on_c, 0, 83, 62
1, 42960, Note_on_c, 0, 63, 39
1, 42960, Note_on_c, 0, 57, 39
1, 43080, Note_on_c, 0, 57, 0
1, 43080, Note_on_c, 0, 63, 0
1, 43080, Note_on_c, 0, 83, 0
1, 43200, Tempo, 405405
1, 43200, Note_on_c, 0, 84, 70
1, 43200, Note_on_c, 0, 52, 46
1, 43320, Note_on_c, 0, 52, 0
1, 43320, Note_on_c, 0, 84, 0
1, 43440, Note_on_c, 0, 83, 62
1, 43440, Note_on_c, 0, 64, 42
1, 43440, Note_on_c, 0, 57, 42
1, 43560, Note_on_c, 0, 57, 0
1, 43560, Note_on_c, 0, 64, 0
1, 43560, Note_on_c, 0, 83, 0
1, 43680, Tempo, 397351
1, 43680, Note_on_c, 0, 81, 62
1, 43680, Note_on_c, 0, 50, 42
1, 43800, Note_on_c, 0, 50, 0
1, 43800, Note_on_c, 0, 81, 0
1, 43920, Tempo, 428571
1, 43920, Note_on_c, 0, 80, 62
1, 43920, Note_on_c, 0, 59, 42
1, 43920, Note_on_c, 0, 53, 42
1, 44040, Note_on_c, 0, 53, 0
1, 44040, Note_on_c, 0, 59, 0
1, 44040, Note_on_c, 0, 80, 0
1, 44160, Tempo, 405405
1, 44160, Note_on_c, 0, 81, 71
1, 44160, Note_on_c, 0, 48, 47
1, 44280, Note_on_c, 0, 48, 0
1, 44280, Note_on_c, 0, 81, 0
1, 44400, Note_on_c, 0, 76, 64
1, 44400, Note_on_c, 0, 57, 39
1, 44400, Note_on_c, 0, 52, 39
1, 44520, Note_on_c, 0, 52, 0
1, 44520, Note_on_c, 0, 57, 0
1, 44520, Note_on_c, 0, 76, 0
1, 44640, Tempo, 397351
1, 44640, Note_on_c, 0, 50, 41
1, 44644, Note_on_c, 0, 77, 64
1, 44760, Note_on_c, 0, 50, 0
1, 44764, Note_on_c, 0, 77, 0
1, 44880, Tempo, 431655
1, 44880, Note_on_c, 0, 74, 64
1, 44880, Note_on_c, 0, 59, 41
1, 44880, Note_on_c, 0, 53, 41
1, 45000, Note_on_c, 0, 53, 0
1, 45000, Note_on_c, 0, 59, 0
1, 45000, Note_on_c, 0, 74, 0
1, 45120, Tempo, 410959
1, 45120, Note_on_c, 0, 72, 74
1, 45120, Note_on_c, 0, 52, 48
1, 45120, Note_on_c, 0, 57, 48
1, 45200, Control_c, 0, 64, 127
1, 45240, Note_on_c, 0, 57, 0
1, 45240, Note_on_c, 0, 52, 0
1, 45360, Note_on_c, 0, 57, 41
1, 45360, Note_on_c, 0, 52, 41
1, 45480, Note_on_c, 0, 52, 0
1, 45480, Note_on_c, 0, 57, 0
1, 45595, Note_on_c, 0, 52, 41
1, 45600, Tempo, 434783
1, 45600, Note_on_c, 0, 72, 0
1, 45600, Note_on_c, 0, 71, 64
1, 45600, Note_on_c, 0, 56, 41
1, 45611, Control_c, 0, 64, 0
1, 45660, Note_on_c, 0, 71, 0
1, 45660, Note_on_c, 0, 72, 57
1, 45692, Control_c, 0, 64, 127
1, 45715, Note_on_c, 0, 52, 0
1, 45720, Note_on_c, 0, 72, 0
1, 45720, Note_on_c, 0, 56, 0
1, 45720, Note_on_c, 0, 71, 57
1, 45780, Note_on_c, 0, 71, 0
1, 45780, Note_on_c, 0, 72, 57
1, 45840, Tempo, 451128
1, 45840, Note_on_c, 0, 72, 0
1, 45840, Note_on_c, 0, 71, 57
1, 45840, Note_on_c, 0, 52, 41
1, 45840, Note_on_c, 0, 56, 41
1, 45844, Note_on_c, 0, 71, 0
1, 45880, Note_on_c, 0, 72, 57
1, 45910, Tempo, 447761
1, 45920, Note_on_c, 0, 72, 0
1, 45920, Note_on_c, 0, 71, 57
1, 45930, Tempo, 468750
1, 45950, Tempo, 491803
1, 45960, Note_on_c, 0, 71, 0
1, 45960, Note_on_c, 0, 56, 0
1, 45960, Note_on_c, 0, 52, 0
1, 45960, Note_on_c, 0, 69, 64
1, 45970, Tempo, 521739
1, 45990, Tempo, 550459
1, 46010, Tempo, 582524
1, 46020, Note_on_c, 0, 69, 0
1, 46020, Note_on_c, 0, 71, 57
1, 46030, Tempo, 625000
1, 46050, Tempo, 666667
1, 46070, Tempo, 472441
1, 46080, Key_signature, 3, "major"
1, 46080, Note_on_c, 0, 71, 0
1, 46080, Note_on_c, 0, 69, 65
1, 46080, Note_on_c, 0, 45, 46
1, 46080, Note_on_c, 0, 57, 46
1, 46080, Control_c, 0, 64, 0
1, 46530, Note_on_c, 0, 57, 0
1, 46530, Note_on_c, 0, 69, 0
1, 46560, Tempo, 422535
1, 46560, Note_on_c, 0, 45, 0
1, 46560, Note_on_c, 0, 69, 73
1, 46560, Note_on_c, 0, 81, 84
1, 46680, Note_on_c, 0, 81, 0
1, 46680, Note_on_c, 0, 69, 0
1, 46800, Tempo, 431655
1, 46800, Note_on_c, 0, 71, 73
1, 46800, Note_on_c, 0, 83, 84
1, 46920, Note_on_c, 0, 83, 0
1, 46920, Note_on_c, 0, 71, 0
1, 46920, Note_on_c, 0, 45, 64
1, 46960, Note_on_c, 0, 45, 0
1, 46960, Note_on_c, 0, 49, 64
1, 46963, Control_c, 0, 64, 127
1, 47000, Note_on_c, 0, 49, 0
1, 47000, Note_on_c, 0, 52, 64
1, 47040, Tempo, 408163
1, 47040, Note_on_c, 0, 52, 0
1, 47040, Note_on_c, 0, 73, 78
1, 47040, Note_on_c, 0, 85, 90
1, 47040, Note_on_c, 0, 57, 73
1, 47160, Note_on_c, 0, 57, 0
1, 47280, Tempo, 422535
1, 47280, Note_on_c, 0, 57, 69
1, 47290, Control_c, 0, 64, 0
1, 47400, Note_on_c, 0, 57, 0
1, 47520, Tempo, 413793
1, 47520, Note_on_c, 0, 85, 0
1, 47520, Note_on_c, 0, 73, 0
1, 47520, Note_on_c, 0, 69, 73
1, 47520, Note_on_c, 0, 81, 84
1, 47520, Note_on_c, 0, 57, 69
1, 47640, Note_on_c, 0, 57, 0
1, 47640, Note_on_c, 0, 81, 0
1, 47640, Note_on_c, 0, 69, 0
1, 47760, Tempo, 422535
1, 47760, Note_on_c, 0, 71, 73
1, 47760, Note_on_c, 0, 83, 84
1, 47760, Note_on_c, 0, 57, 69
1, 47880, Note_on_c, 0, 57, 0
1, 47880, Note_on_c, 0, 83, 0
1, 47880, Note_on_c, 0, 71, 0
1, 47880, Note_on_c, 0, 45, 60
1, 47894, Control_c, 0, 64, 127
1, 47920, Note_on_c, 0, 45, 0
1, 47920, Note_on_c, 0, 49, 60
1, 47960, Note_on_c, 0, 49, 0
1, 47960, Note_on_c, 0, 52, 60
1, 48000, Tempo, 408163
1, 48000, Note_on_c, 0, 52, 0
1, 48000, Note_on_c, 0, 73, 79
1, 48000, Note_on_c, 0, 85, 91
1, 48000, Note_on_c, 0, 57, 72
1, 48120, Note_on_c, 0, 57, 0
1, 48120, Note_on_c, 0, 85, 0
1, 48120, Note_on_c, 0, 73, 0
1, 48240, Tempo, 410959
1, 48240, Note_on_c, 0, 71, 72
1, 48240, Note_on_c, 0, 83, 82
1, 48240, Note_on_c, 0, 57, 64
1, 48250, Control_c, 0, 64, 0
1, 48360, Note_on_c, 0, 57, 0
1, 48360, Note_on_c, 0, 83, 0
1, 48360, Note_on_c, 0, 71, 0
1, 48480, Tempo, 410959
1, 48480, Note_on_c, 0, 69, 77
1, 48480, Note_on_c, 0, 81, 89
1, 48480, Note_on_c, 0, 57, 65
1, 48600, Note_on_c, 0, 57, 0
1, 48600, Note_on_c, 0, 81, 0
1, 48600, Note_on_c, 0, 69, 0
1, 48720, Tempo, 447761
1, 48720, Note_on_c, 0, 68, 73
1, 48720, Note_on_c, 0, 80, 84
1, 48720, Note_on_c, 0, 57, 67
1, 48840, Note_on_c, 0, 57, 0
1, 48840, Note_on_c, 0, 80, 0
1, 48840, Note_on_c, 0, 68, 0
1, 48840, Note_on_c, 0, 38, 63
1, 48865, Control_c, 0, 64, 127
1, 48880, Note_on_c, 0, 38, 0
1, 48880, Note_on_c, 0, 42, 63
1, 48920, Note_on_c, 0, 42, 0
1, 48920, Note_on_c, 0, 45, 63
1, 48960, Tempo, 410959
1, 48960, Note_on_c, 0, 45, 0
1, 48960, Note_on_c, 0, 66, 80
1, 48960, Note_on_c, 0, 78, 92
1, 48960, Note_on_c, 0, 50, 73
1, 49080, Note_on_c, 0, 50, 0
1, 49080, Note_on_c, 0, 78, 0
1, 49080, Note_on_c, 0, 66, 0
1, 49200, Tempo, 419580
1, 49200, Note_on_c, 0, 68, 69
1, 49200, Note_on_c, 0, 80, 78
1, 49200, Note_on_c, 0, 50, 69
1, 49214, Control_c, 0, 64, 0
1, 49320, Note_on_c, 0, 50, 0
1, 49320, Note_on_c, 0, 80, 0
1, 49320, Note_on_c, 0, 68, 0
1, 49320, Note_on_c, 0, 39, 63
1, 49360, Note_on_c, 0, 39, 0
1, 49360, Note_on_c, 0, 42, 63
1, 49400, Note_on_c, 0, 42, 0
1, 49400, Note_on_c, 0, 45, 63
1, 49440, Tempo, 410959
1, 49440, Note_on_c, 0, 45, 0
1, 49440, Note_on_c, 0, 69, 75
1, 49440, Note_on_c, 0, 81, 86
1, 49440, Note_on_c, 0, 51, 73
1, 49477, Control_c, 0, 64, 127
1, 49560, Note_on_c, 0, 51, 0
1, 49560, Note_on_c, 0, 81, 0
1, 49560, Note_on_c, 0, 69, 0
1, 49680, Tempo, 447761
1, 49680, Note_on_c, 0, 71, 70
1, 49680, Note_on_c, 0, 83, 80
1, 49680, Note_on_c, 0, 51, 71
1, 49692, Control_c, 0, 64, 0
1, 49800, Note_on_c, 0, 51, 0
1, 49800, Note_on_c, 0, 83, 0
1, 49800, Note_on_c, 0, 71, 0
1, 49800, Note_on_c, 0, 40, 63
1, 49820, Control_c, 0, 64, 127
1, 49840, Note_on_c, 0, 40, 0
1, 49840, Note_on_c, 0, 44, 63
1, 49880, Note_on_c, 0, 44, 0
1, 49880, Note_on_c, 0, 47, 63
1, 49920, Tempo, 425532
1, 49920, Note_on_c, 0, 47, 0
1, 49920, Note_on_c, 0, 68, 78
1, 49920, Note_on_c, 0, 80, 90
1, 49920, Note_on_c, 0, 52, 73
1, 50160, Tempo, 454545
1, 50160, Note_on_c, 0, 52, 0
1, 50160, Note_on_c, 0, 80, 0
1, 50160, Note_on_c, 0, 68, 0
1, 50160, Note_on_c, 0, 64, 73
1, 50160, Note_on_c, 0, 76, 84
1, 50160, Note_on_c, 0, 52, 73
1, 50266, Control_c, 0, 64, 0
1, 50280, Note_on_c, 0, 52, 0
1, 50280, Note_on_c, 0, 76, 0
1, 50280, Note_on_c, 0, 64, 0
1, 50400, Tempo, 416667
1, 50400, Note_on_c, 0, 69, 73
1, 50400, Note_on_c, 0, 81, 84
1, 50520, Note_on_c, 0, 81, 0
1, 50520, Note_on_c, 0, 69, 0
1, 50640, Tempo, 419580
1, 50640, Note_on_c, 0, 71, 73
1, 50640, Note_on_c, 0, 83, 84
1, 50760, Note_on_c, 0, 83, 0
1, 50760, Note_on_c, 0, 71, 0
1, 50760, Note_on_c, 0, 45, 64
1, 50781, Control_c, 0, 64, 127
1, 50800, Note_on_c, 0, 45, 0
1, 50800, Note_on_c, 0, 49, 64
1, 50840, Note_on_c, 0, 49, 0
1, 50840, Note_on_c, 0, 52, 64
1, 50880, Tempo, 408163
1, 50880, Note_on_c, 0, 52, 0
1, 50880, Note_on_c, 0, 73, 78
1, 50880, Note_on_c, 0, 85, 90
1, 50880, Note_on_c, 0, 57, 73
1, 51000, Note_on_c, 0, 57, 0
1, 51120, Tempo, 419580
1, 51120, Note_on_c, 0, 57, 69
1, 51130, Control_c, 0, 64, 0
1, 51240, Note_on_c, 0, 57, 0
1, 51360, Tempo, 408163
1, 51360, Note_on_c, 0, 85, 0
1, 51360, Note_on_c, 0, 73, 0
1, 51360, Note_on_c, 0, 69, 73
1, 51360, Note_on_c, 0, 81, 84
1, 51360, Note_on_c, 0, 57, 69
1, 51480, Note_on_c, 0, 57, 0
1, 51480, Note_on_c, 0, 81, 0
1, 51480, Note_on_c, 0, 69, 0
1, 51600, Tempo, 422535
1, 51600, Note_on_c, 0, 71, 73
1, 51600, Note_on_c, 0, 83, 84
1, 51600, Note_on_c, 0, 57, 69
1, 51710, Control_c, 0, 64, 127
1, 51720, Note_on_c, 0, 57, 0
1, 51720, Note_on_c, 0, 83, 0
1, 51720, Note_on_c, 0, 71, 0
1, 51720, Note_on_c, 0, 45, 60
1, 51760, Note_on_c, 0, 45, 0
1, 51760, Note_on_c, 0, 49, 60
1, 51800, Note_on_c, 0, 49, 0
1, 51800, Note_on_c, 0, 52, 60
1, 51840, Tempo, 410959
1, 51840, Note_on_c, 0, 52, 0
1, 51840, Note_on_c, 0, 73, 79
1, 51840, Note_on_c, 0, 85, 91
1, 51840, Note_on_c, 0, 57, 72
1, 51960, Note_on_c, 0, 57, 0
1, 51960, Note_on_c, 0, 85, 0
1, 51960, Note_on_c, 0, 73, 0
1, 52080, Tempo, 413793
1, 52080, Note_on_c, 0, 71, 72
1, 52080, Note_on_c, 0, 83, 82
1, 52080, Note_on_c, 0, 57, 64
1, 52090, Control_c, 0, 64, 0
1, 52200, Note_on_c, 0, 57, 0
1, 52200, Note_on_c, 0, 83, 0
1, 52200, Note_on_c, 0, 71, 0
1, 52320, Tempo, 416667
1, 52320, Note_on_c, 0, 69, 77
1, 52320, Note_on_c, 0, 81, 89
1, 52320, Note_on_c, 0, 57, 65
1, 52440, Note_on_c, 0, 57, 0
1, 52440, Note_on_c, 0, 81, 0
1, 52440, Note_on_c, 0, 69, 0
1, 52560, Tempo, 434783
1, 52560, Note_on_c, 0, 68, 73
1, 52560, Note_on_c, 0, 80, 84
1, 52560, Note_on_c, 0, 57, 67
1, 52680, Note_on_c, 0, 57, 0
1, 52680, Note_on_c, 0, 80, 0
1, 52680, Note_on_c, 0, 68, 0
1, 52680, Note_on_c, 0, 38, 63
1, 52708, Control_c, 0, 64, 127
1, 52720, Note_on_c, 0, 38, 0
1, 52720, Note_on_c, 0, 42, 63
1, 52760, Note_on_c, 0, 42, 0
1, 52760, Note_on_c, 0, 45, 63
1, 52800, Tempo, 413793
1, 52800, Note_on_c, 0, 45, 0
1, 52800, Note_on_c, 0, 66, 80
1, 52800, Note_on_c, 0, 78, 92
1, 52800, Note_on_c, 0, 50, 73
1, 52920, Note_on_c, 0, 50, 0
1, 52920, Note_on_c, 0, 78, 0
1, 52920, Note_on_c, 0, 66, 0
1, 53040, Tempo, 434783
1, 53040, Note_on_c, 0, 71, 69
1, 53040, Note_on_c, 0, 83, 78
1, 53040, Note_on_c, 0, 50, 69
1, 53054, Control_c, 0, 64, 0
1, 53160, Note_on_c, 0, 50, 0
1, 53160, Note_on_c, 0, 83, 0
1, 53160, Note_on_c, 0, 71, 0
1, 53160, Note_on_c, 0, 40, 63
1, 53196, Control_c, 0, 64, 127
1, 53200, Note_on_c, 0, 40, 0
1, 53200, Note_on_c, 0, 44, 63
1, 53240, Note_on_c, 0, 44, 0
1, 53240, Note_on_c, 0, 47, 63
1, 53280, Tempo, 451128
1, 53280, Note_on_c, 0, 47, 0
1, 53280, Note_on_c, 0, 68, 75
1, 53280, Note_on_c, 0, 80, 86
1, 53280, Note_on_c, 0, 52, 73
1, 53400, Note_on_c, 0, 52, 0
1, 53400, Note_on_c, 0, 80, 0
1, 53400, Note_on_c, 0, 68, 0
1, 53520, Tempo, 465116
1, 53520, Note_on_c, 0, 64, 70
1, 53520, Note_on_c, 0, 76, 80
1, 53520, Note_on_c, 0, 52, 71
1, 53532, Control_c, 0, 64, 0
1, 53640, Note_on_c, 0, 52, 0
1, 53640, Note_on_c, 0, 76, 0
1, 53640, Note_on_c, 0, 64, 0
1, 53760, Tempo, 451128
1, 53760, Note_on_c, 0, 69, 78
1, 53760, Note_on_c, 0, 81, 90
1, 53760, Note_on_c, 0, 45, 73
1, 53760, Control_c, 0, 64, 127
1, 54106, Control_c, 0, 64, 0
1, 54210, Note_on_c, 0, 45, 0
1, 54210, Note_on_c, 0, 81, 0
1, 54210, Note_on_c, 0, 69, 0
1, 54240, Tempo, 422535
1, 54240, Note_on_c, 0, 69, 73
1, 54240, Note_on_c, 0, 81, 84
1, 54360, Note_on_c, 0, 81, 0
1, 54360, Note_on_c, 0, 69, 0
1, 54480, Tempo, 431655
1, 54480, Note_on_c, 0, 71, 73
1, 54480, Note_on_c, 0, 83, 84
1, 54600, Note_on_c, 0, 83, 0
1, 54600, Note_on_c, 0, 71, 0
1, 54600, Note_on_c, 0, 45, 64
1, 54607, Control_c, 0, 64, 127
1, 54640, Note_on_c, 0, 45, 0
1, 54640, Note_on_c, 0, 49, 64
1, 54680, Note_on_c, 0, 49, 0
1, 54680, Note_on_c, 0, 52, 64
1, 54720, Tempo, 408163
1, 54720, Note_on_c, 0, 52, 0
1, 54720, Note_on_c, 0, 73, 78
1, 54720, Note_on_c, 0, 85, 90
1, 54720, Note_on_c, 0, 57, 73
1, 54840, Note_on_c, 0, 57, 0
1, 54960, Tempo, 422535
1, 54960, Note_on_c, 0, 57, 69
1, 54970, Control_c, 0, 64, 0
1, 55080, Note_on_c, 0, 57, 0
1, 55200, Tempo, 413793
1, 55200, Note_on_c, 0, 85, 0
1, 55200, Note_on_c, 0, 73, 0
1, 55200, Note_on_c, 0, 69, 73
1, 55200, Note_on_c, 0, 81, 84
1, 55200, Note_on_c, 0, 57, 69
1, 55320, Note_on_c, 0, 57, 0
1, 55320, Note_on_c, 0, 81, 0
1, 55320, Note_on_c, 0, 69, 0
1, 55440, Tempo, 425532
1, 55440, Note_on_c, 0, 71, 73
1, 55440, Note_on_c, 0, 83, 84
1, 55440, Note_on_c, 0, 57, 69
1, 55560, Note_on_c, 0, 57, 0
1, 55560, Note_on_c, 0, 83, 0
1, 55560, Note_on_c, 0, 71, 0
1, 55560, Note_on_c, 0, 45, 60
1, 55581, Control_c, 0, 64, 127
1, 55600, Note_on_c, 0, 45, 0
1, 55600, Note_on_c, 0, 49, 60
1, 55640, Note_on_c, 0, 49, 0
1, 55640, Note_on_c, 0, 52, 60
1, 55680, Tempo, 408163
1, 55680, Note_on_c, 0, 52, 0
1, 55680, Note_on_c, 0, 73, 79
1, 55680, Note_on_c, 0, 85, 91
1, 55680, Note_on_c, 0, 57, 72
1, 55800, Note_on_c, 0, 57, 0
1, 55800, Note_on_c, 0, 85, 0
1, 55800, Note_on_c, 0, 73, 0
1, 55920, Tempo, 419580
1, 55920, Note_on_c, 0, 71, 72
1, 55920, Note_on_c, 0, 83, 82
1, 55920, Note_on_c, 0, 57, 64
1, 55930, Control_c, 0, 64, 0
1, 56040, Note_on_c, 0, 57, 0
1, 56040, Note_on_c, 0, 83, 0
1, 56040, Note_on_c, 0, 71, 0
1, 56160, Tempo, 410959
1, 56160, Note_on_c, 0, 69, 77
1, 56160, Note_on_c, 0, 81, 89
1, 56160, Note_on_c, 0, 57, 65
1, 56280, Note_on_c, 0, 57, 0
1, 56280, Note_on_c, 0, 81, 0
1, 56280, Note_on_c, 0, 69, 0
1, 56400, Tempo, 428571
1, 56400, Note_on_c, 0, 68, 73
1, 56400, Note_on_c, 0, 80, 84
1, 56400, Note_on_c, 0, 57, 67
1, 56520, Note_on_c, 0, 57, 0
1, 56520, Note_on_c, 0, 80, 0
1, 56520, Note_on_c, 0, 68, 0
1, 56520, Note_on_c, 0, 38, 63
1, 56560, Note_on_c, 0, 38, 0
1, 56560, Note_on_c, 0, 42, 63
1, 56600, Note_on_c, 0, 42, 0
1, 56600, Note_on_c, 0, 45, 63
1, 56640, Tempo, 410959
1, 56640, Note_on_c, 0, 45, 0
1, 56640, Note_on_c, 0, 66, 80
1, 56640, Note_on_c, 0, 78, 92
1, 56640, Note_on_c, 0, 50, 73
1, 56640, Control_c, 0, 64, 127
1, 56760, Note_on_c, 0, 50, 0
1, 56760, Note_on_c, 0, 78, 0
1, 56760, Note_on_c, 0, 66, 0
1, 56880, Tempo, 431655
1, 56880, Note_on_c, 0, 68, 69
1, 56880, Note_on_c, 0, 80, 78
1, 56880, Note_on_c, 0, 50, 69
1, 56894, Control_c, 0, 64, 0
1, 57000, Note_on_c, 0, 50, 0
1, 57000, Note_on_c, 0, 80, 0
1, 57000, Note_on_c, 0, 68, 0
1, 57000, Note_on_c, 0, 39, 63
1, 57040, Note_on_c, 0, 39, 0
1, 57040, Note_on_c, 0, 42, 63
1, 57080, Note_on_c, 0, 42, 0
1, 57080, Note_on_c, 0, 45, 63
1, 57120, Tempo, 416667
1, 57120, Note_on_c, 0, 45, 0
1, 57120, Note_on_c, 0, 69, 75
1, 57120, Note_on_c, 0, 81, 86
1, 57120, Note_on_c, 0, 51, 73
1, 57157, Control_c, 0, 64, 127
1, 57240, Note_on_c, 0, 51, 0
1, 57240, Note_on_c, 0, 81, 0
1, 57240, Note_on_c, 0, 69, 0
1, 57360, Tempo, 437956
1, 57360, Note_on_c, 0, 71, 70
1, 57360, Note_on_c, 0, 83, 80
1, 57360, Note_on_c, 0, 51, 71
1, 57372, Control_c, 0, 64, 0
1, 57480, Note_on_c, 0, 51, 0
1, 57480, Note_on_c, 0, 83, 0
1, 57480, Note_on_c, 0, 71, 0
1, 57480, Note_on_c, 0, 40, 63
1, 57520, Note_on_c, 0, 40, 0
1, 57520, Note_on_c, 0, 44, 63
1, 57560, Note_on_c, 0, 44, 0
1, 57560, Note_on_c, 0, 47, 63
1, 57600, Tempo, 425532
1, 57600, Note_on_c, 0, 47, 0
1, 57600, Note_on_c, 0, 68, 78
1, 57600, Note_on_c, 0, 80, 90
1, 57600, Note_on_c, 0, 52, 73
1, 57600, Control_c, 0, 64, 127
1, 57840, Tempo, 441176
1, 57840, Note_on_c, 0, 52, 0
1, 57840, Note_on_c, 0, 80, 0
1, 57840, Note_on_c, 0, 68, 0
1, 57840, Note_on_c, 0, 64, 73
1, 57840, Note_on_c, 0, 76, 84
1, 57840, Note_on_c, 0, 52, 73
1, 57946, Control_c, 0, 64, 0
1, 57960, Note_on_c, 0, 52, 0
1, 57960, Note_on_c, 0, 76, 0
1, 57960, Note_on_c, 0, 64, 0
1, 58080, Tempo, 425532
1, 58080, Note_on_c, 0, 69, 73
1, 58080, Note_on_c, 0, 81, 84
1, 58200, Note_on_c, 0, 81, 0
1, 58200, Note_on_c, 0, 69, 0
1, 58320, Tempo, 419580
1, 58320, Note_on_c, 0, 71, 73
1, 58320, Note_on_c, 0, 83, 84
1, 58440, Note_on_c, 0, 83, 0
1, 58440, Note_on_c, 0, 71, 0
1, 58440, Note_on_c, 0, 45, 64
1, 58479, Control_c, 0, 64, 127
1, 58480, Note_on_c, 0, 45, 0
1, 58480, Note_on_c, 0, 49, 64
1, 58520, Note_on_c, 0, 49, 0
1, 58520, Note_on_c, 0, 52, 64
1, 58560, Tempo, 408163
1, 58560, Note_on_c, 0, 52, 0
1, 58560, Note_on_c, 0, 73, 78
1, 58560, Note_on_c, 0, 85, 90
1, 58560, Note_on_c, 0, 57, 73
1, 58680, Note_on_c, 0, 57, 0
1, 58800, Tempo, 419580
1, 58800, Note_on_c, 0, 57, 69
1, 58810, Control_c, 0, 64, 0
1, 58920, Note_on_c, 0, 57, 0
1, 59040, Tempo, 408163
1, 59040, Note_on_c, 0, 85, 0
1, 59040, Note_on_c, 0, 73, 0
1, 59040, Note_on_c, 0, 69, 73
1, 59040, Note_on_c, 0, 81, 84
1, 59040, Note_on_c, 0, 57, 69
1, 59160, Note_on_c, 0, 57, 0
1, 59160, Note_on_c, 0, 81, 0
1, 59160, Note_on_c, 0, 69, 0
1, 59280, Tempo, 431655
1, 59280, Note_on_c, 0, 71, 73
1, 59280, Note_on_c, 0, 83, 84
1, 59280, Note_on_c, 0, 57, 69
1, 59400, Note_on_c, 0, 57, 0
1, 59400, Note_on_c, 0, 83, 0
1, 59400, Note_on_c, 0, 71, 0
1, 59400, Note_on_c, 0, 45, 60
1, 59414, Control_c, 0, 64, 127
1, 59440, Note_on_c, 0, 45, 0
1, 59440, Note_on_c, 0, 49, 60
1, 59480, Note_on_c, 0, 49, 0
1, 59480, Note_on_c, 0, 52, 60
1, 59520, Tempo, 410959
1, 59520, Note_on_c, 0, 52, 0
1, 59520, Note_on_c, 0, 73, 79
1, 59520, Note_on_c, 0, 85, 91
1, 59520, Note_on_c, 0, 57, 72
1, 59640, Note_on_c, 0, 57, 0
1, 59640, Note_on_c, 0, 85, 0
1, 59640, Note_on_c, 0, 73, 0
1, 59760, Tempo, 413793
1, 59760, Note_on_c, 0, 71, 72
1, 59760, Note_on_c, 0, 83, 82
1, 59760, Note_on_c, 0, 57, 64
1, 59770, Control_c, 0, 64, 0
1, 59880, Note_on_c, 0, 57, 0
1, 59880, Note_on_c, 0, 83, 0
1, 59880, Note_on_c, 0, 71, 0
1, 60000, Tempo, 416667
1, 60000, Note_on_c, 0, 69, 77
1, 60000, Note_on_c, 0, 81, 89
1, 60000, Note_on_c, 0, 57, 65
1, 60120, Note_on_c, 0, 57, 0
1, 60120, Note_on_c, 0, 81, 0
1, 60120, Note_on_c, 0, 69, 0
1, 60240, Tempo, 434783
1, 60240, Note_on_c, 0, 68, 73
1, 60240, Note_on_c, 0, 80, 84
1, 60240, Note_on_c, 0, 57, 67
1, 60360, Note_on_c, 0, 57, 0
1, 60360, Note_on_c, 0, 80, 0
1, 60360, Note_on_c, 0, 68, 0
1, 60360, Note_on_c, 0, 38, 63
1, 60374, Control_c, 0, 64, 127
1, 60400, Note_on_c, 0, 38, 0
1, 60400, Note_on_c, 0, 42, 63
1, 60440, Note_on_c, 0, 42, 0
1, 60440, Note_on_c, 0, 45, 63
1, 60480, Tempo, 413793
1, 60480, Note_on_c, 0, 45, 0
1, 60480, Note_on_c, 0, 66, 80
1, 60480, Note_on_c, 0, 78, 92
1, 60480, Note_on_c, 0, 50, 73
1, 60600, Note_on_c, 0, 50, 0
1, 60600, Note_on_c, 0, 78, 0
1, 60600, Note_on_c, 0, 66, 0
1, 60720, Tempo, 454545
1, 60720, Note_on_c, 0, 71, 69
1, 60720, Note_on_c, 0, 83, 78
1, 60720, Note_on_c, 0, 50, 69
1, 60734, Control_c, 0, 64, 0
1, 60840, Note_on_c, 0, 50, 0
1, 60840, Note_on_c, 0, 83, 0
1, 60840, Note_on_c, 0, 71, 0
1, 60840, Note_on_c, 0, 40, 63
1, 60880, Note_on_c, 0, 40, 0
1, 60880, Note_on_c, 0, 44, 63
1, 60897, Control_c, 0, 64, 127
1, 60920, Note_on_c, 0, 44, 0
1, 60920, Note_on_c, 0, 47, 63
1, 60960, Tempo, 451128
1, 60960, Note_on_c, 0, 47, 0
1, 60960, Note_on_c, 0, 68, 75
1, 60960, Note_on_c, 0, 80, 86
1, 60960, Note_on_c, 0, 52, 73
1, 61080, Note_on_c, 0, 52, 0
1, 61080, Note_on_c, 0, 80, 0
1, 61080, Note_on_c, 0, 68, 0
1, 61200, Tempo, 465116
1, 61200, Note_on_c, 0, 64, 70
1, 61200, Note_on_c, 0, 76, 80
1, 61200, Note_on_c, 0, 52, 71
1, 61212, Control_c, 0, 64, 0
1, 61320, Note_on_c, 0, 52, 0
1, 61320, Note_on_c, 0, 76, 0
1, 61320, Note_on_c, 0, 64, 0
1, 61440, Tempo, 451128
1, 61440, Note_on_c, 0, 69, 78
1, 61440, Note_on_c, 0, 81, 90
1, 61440, Note_on_c, 0, 45, 73
1, 61440, Control_c, 0, 64, 127
1, 61786, Control_c, 0, 64, 0
1, 61882, Tempo, 465116
1, 61890, Note_on_c, 0, 45, 0
1, 61890, Note_on_c, 0, 81, 0
1, 61890, Note_on_c, 0, 69, 0
1, 61902, Tempo, 458015
1, 61920, Note_on_c, 0, 85, 60
1, 61922, Tempo, 447761
1, 61942, Tempo, 441176
1, 61962, Tempo, 431655
1, 61982, Tempo, 425532
1, 62002, Tempo, 416667
1, 62022, Tempo, 410959
1, 62040, Note_on_c, 0, 86, 52
1, 62042, Tempo, 402685
1, 62052, Note_on_c, 0, 85, 0
1, 62160, Tempo, 419580
1, 62160, Note_on_c, 0, 85, 52
1, 62172, Note_on_c, 0, 86, 0
1, 62280, Tempo, 434783
1, 62280, Note_on_c, 0, 83, 52
1, 62292, Note_on_c, 0, 85, 0
1, 62400, Tempo, 428571
1, 62400, Note_on_c, 0, 81, 58
1, 62400, Note_on_c, 0, 54, 50
1, 62412, Note_on_c, 0, 83, 0
1, 62520, Note_on_c, 0, 54, 0
1, 62520, Note_on_c, 0, 83, 50
1, 62532, Note_on_c, 0, 81, 0
1, 62640, Tempo, 413793
1, 62640, Note_on_c, 0, 81, 50
1, 62640, Note_on_c, 0, 61, 37
1, 62640, Note_on_c, 0, 57, 31
1, 62652, Note_on_c, 0, 83, 0
1, 62760, Note_on_c, 0, 57, 0
1, 62760, Note_on_c, 0, 61, 0
1, 62760, Note_on_c, 0, 80, 50
1, 62772, Note_on_c, 0, 81, 0
1, 62880, Tempo, 422535
1, 62880, Note_on_c, 0, 78, 56
1, 62880, Note_on_c, 0, 61, 37
1, 62880, Note_on_c, 0, 57, 31
1, 62892, Note_on_c, 0, 80, 0
1, 63000, Note_on_c, 0, 57, 0
1, 63000, Note_on_c, 0, 61, 0
1, 63000, Note_on_c, 0, 81, 50
1, 63012, Note_on_c, 0, 78, 0
1, 63120, Tempo, 425532
1, 63120, Note_on_c, 0, 80, 46
1, 63120, Note_on_c, 0, 61, 37
1, 63120, Note_on_c, 0, 57, 31
1, 63132, Note_on_c, 0, 81, 0
1, 63240, Note_on_c, 0, 57, 0
1, 63240, Note_on_c, 0, 61, 0
1, 63240, Note_on_c, 0, 78, 46
1, 63252, Note_on_c, 0, 80, 0
1, 63360, Tempo, 416667
1, 63360, Note_on_c, 0, 77, 58
1, 63360, Note_on_c, 0, 56, 50
1, 63372, Note_on_c, 0, 78, 0
1, 63480, Note_on_c, 0, 56, 0
1, 63480, Note_on_c, 0, 78, 47
1, 63492, Note_on_c, 0, 77, 0
1, 63600, Tempo, 419580
1, 63600, Note_on_c, 0, 80, 49
1, 63600, Note_on_c, 0, 61, 36
1, 63600, Note_on_c, 0, 59, 30
1, 63612, Note_on_c, 0, 78, 0
1, 63720, Note_on_c, 0, 59, 0
1, 63720, Note_on_c, 0, 61, 0
1, 63720, Note_on_c, 0, 77, 46
1, 63732, Note_on_c, 0, 80, 0
1, 63840, Note_on_c, 0, 73, 56
1, 63840, Note_on_c, 0, 61, 36
1, 63840, Note_on_c, 0, 59, 30
1, 63852, Note_on_c, 0, 77, 0
1, 63960, Note_on_c, 0, 59, 0
1, 63960, Note_on_c, 0, 61, 0
1, 63960, Note_on_c, 0, 75, 47
1, 63972, Note_on_c, 0, 73, 0
1, 64080, Tempo, 422535
1, 64080, Note_on_c, 0, 77, 50
1, 64080, Note_on_c, 0, 61, 36
1, 64080, Note_on_c, 0, 59, 30
1, 64092, Note_on_c, 0, 75, 0
1, 64200, Note_on_c, 0, 59, 0
1, 64200, Note_on_c, 0, 61, 0
1, 64200, Note_on_c, 0, 73, 47
1, 64212, Note_on_c, 0, 77, 0
1, 64320, Tempo, 422535
1, 64320, Note_on_c, 0, 78, 56
1, 64320, Note_on_c, 0, 54, 50
1, 64332, Note_on_c, 0, 73, 0
1, 64440, Note_on_c, 0, 54, 0
1, 64440, Note_on_c, 0, 77, 47
1, 64452, Note_on_c, 0, 78, 0
1, 64560, Tempo, 419580
1, 64560, Note_on_c, 0, 78, 51
1, 64560, Note_on_c, 0, 61, 36
1, 64560, Note_on_c, 0, 57, 30
1, 64572, Note_on_c, 0, 77, 0
1, 64680, Note_on_c, 0, 57, 0
1, 64680, Note_on_c, 0, 61, 0
1, 64680, Note_on_c, 0, 80, 48
1, 64692, Note_on_c, 0, 78, 0
1, 64800, Note_on_c, 0, 81, 58
1, 64800, Note_on_c, 0, 61, 37
1, 64800, Note_on_c, 0, 57, 31
1, 64812, Note_on_c, 0, 80, 0
1, 64920, Note_on_c, 0, 57, 0
1, 64920, Note_on_c, 0, 61, 0
1, 64920, Note_on_c, 0, 80, 54
1, 64932, Note_on_c, 0, 81, 0
1, 65040, Tempo, 422535
1, 65040, Note_on_c, 0, 81, 56
1, 65040, Note_on_c, 0, 61, 38
1, 65040, Note_on_c, 0, 57, 32
1, 65052, Note_on_c, 0, 80, 0
1, 65160, Note_on_c, 0, 57, 0
1, 65160, Note_on_c, 0, 61, 0
1, 65160, Note_on_c, 0, 83, 59
1, 65172, Note_on_c, 0, 81, 0
1, 65280, Tempo, 416667
1, 65280, Note_on_c, 0, 85, 68
1, 65280, Note_on_c, 0, 53, 55
1, 65292, Note_on_c, 0, 83, 0
1, 65400, Note_on_c, 0, 53, 0
1, 65400, Note_on_c, 0, 84, 62
1, 65412, Note_on_c, 0, 85, 0
1, 65520, Tempo, 408163
1, 65520, Note_on_c, 0, 85, 66
1, 65520, Note_on_c, 0, 61, 38
1, 65520, Note_on_c, 0, 56, 31
1, 65532, Note_on_c, 0, 84, 0
1, 65640, Note_on_c, 0, 56, 0
1, 65640, Note_on_c, 0, 61, 0
1, 65640, Note_on_c, 0, 84, 59
1, 65652, Note_on_c, 0, 85, 0
1, 65760, Tempo, 416667
1, 65760, Note_on_c, 0, 84, 0
1, 65760, Note_on_c, 0, 85, 61
1, 65760, Note_on_c, 0, 61, 38
1, 65760, Note_on_c, 0, 56, 31
1, 65880, Note_on_c, 0, 56, 0
1, 65880, Note_on_c, 0, 61, 0
1, 65880, Note_on_c, 0, 86, 55
1, 65892, Note_on_c, 0, 85, 0
1, 66000, Tempo, 425532
1, 66000, Note_on_c, 0, 85, 55
1, 66000, Note_on_c, 0, 61, 38
1, 66000, Note_on_c, 0, 56, 31
1, 66012, Note_on_c, 0, 86, 0
1, 66120, Tempo, 454545
1, 66120, Note_on_c, 0, 56, 0
1, 66120, Note_on_c, 0, 61, 0
1, 66120, Note_on_c, 0, 83, 55
1, 66132, Note_on_c, 0, 85, 0
1, 66240, Tempo, 419580
1, 66240, Note_on_c, 0, 81, 58
1, 66240, Note_on_c, 0, 54, 50
1, 66252, Note_on_c, 0, 83, 0
1, 66360, Note_on_c, 0, 54, 0
1, 66360, Note_on_c, 0, 83, 47
1, 66372, Note_on_c, 0, 81, 0
1, 66480, Tempo, 413793
1, 66480, Note_on_c, 0, 81, 53
1, 66480, Note_on_c, 0, 61, 36
1, 66480, Note_on_c, 0, 57, 30
1, 66492, Note_on_c, 0, 83, 0
1, 66600, Note_on_c, 0, 57, 0
1, 66600, Note_on_c, 0, 61, 0
1, 66600, Note_on_c, 0, 80, 47
1, 66612, Note_on_c, 0, 81, 0
1, 66720, Tempo, 416667
1, 66720, Note_on_c, 0, 78, 54
1, 66720, Note_on_c, 0, 61, 36
1, 66720, Note_on_c, 0, 57, 30
1, 66732, Note_on_c, 0, 80, 0
1, 66840, Note_on_c, 0, 57, 0
1, 66840, Note_on_c, 0, 61, 0
1, 66840, Note_on_c, 0, 81, 47
1, 66852, Note_on_c, 0, 78, 0
1, 66960, Tempo, 425532
1, 66960, Note_on_c, 0, 80, 50
1, 66960, Note_on_c, 0, 61, 36
1, 66960, Note_on_c, 0, 57, 30
1, 66972, Note_on_c, 0, 81, 0
1, 67080, Note_on_c, 0, 57, 0
1, 67080, Note_on_c, 0, 61, 0
1, 67080, Note_on_c, 0, 78, 46
1, 67092, Note_on_c, 0, 80, 0
1, 67200, Tempo, 425532
1, 67200, Note_on_c, 0, 76, 56
1, 67200, Note_on_c, 0, 56, 50
1, 67212, Note_on_c, 0, 78, 0
1, 67320, Note_on_c, 0, 56, 0
1, 67320, Note_on_c, 0, 78, 47
1, 67332, Note_on_c, 0, 76, 0
1, 67440, Tempo, 416667
1, 67440, Note_on_c, 0, 80, 50
1, 67440, Note_on_c, 0, 64, 36
1, 67440, Note_on_c, 0, 61, 30
1, 67452, Note_on_c, 0, 78, 0
1, 67560, Note_on_c, 0, 61, 0
1, 67560, Note_on_c, 0, 64, 0
1, 67560, Note_on_c, 0, 76, 47
1, 67572, Note_on_c, 0, 80, 0
1, 67680, Tempo, 419580
1, 67680, Note_on_c, 0, 73, 54
1, 67680, Note_on_c, 0, 64, 36
1, 67680, Note_on_c, 0, 61, 30
1, 67692, Note_on_c, 0, 76, 0
1, 67800, Note_on_c, 0, 61, 0
1, 67800, Note_on_c, 0, 64, 0
1, 67800, Note_on_c, 0, 75, 47
1, 67812, Note_on_c, 0, 73, 0
1, 67920, Tempo, 428571
1, 67920, Note_on_c, 0, 76, 53
1, 67920, Note_on_c, 0, 64, 36
1, 67920, Note_on_c, 0, 61, 30
1, 67932, Note_on_c, 0, 75, 0
1, 68040, Note_on_c, 0, 61, 0
1, 68040, Note_on_c, 0, 64, 0
1, 68040, Note_on_c, 0, 73, 47
1, 68052, Note_on_c, 0, 76, 0
1, 68160, Tempo, 419580
1, 68160, Note_on_c, 0, 75, 53
1, 68160, Note_on_c, 0, 56, 50
1, 68172, Note_on_c, 0, 73, 0
1, 68280, Note_on_c, 0, 56, 0
1, 68280, Note_on_c, 0, 76, 47
1, 68292, Note_on_c, 0, 75, 0
1, 68400, Tempo, 419580
1, 68400, Note_on_c, 0, 78, 51
1, 68400, Note_on_c, 0, 66, 37
1, 68400, Note_on_c, 0, 63, 31
1, 68412, Note_on_c, 0, 76, 0
1, 68520, Note_on_c, 0, 63, 0
1, 68520, Note_on_c, 0, 66, 0
1, 68520, Note_on_c, 0, 75, 47
1, 68532, Note_on_c, 0, 78, 0
1, 68618, Tempo, 419580
1, 68640, Note_on_c, 0, 72, 50
1, 68640, Note_on_c, 0, 63, 31
1, 68640, Note_on_c, 0, 66, 37
1, 68652, Note_on_c, 0, 75, 0
1, 68658, Tempo, 422535
1, 68698, Tempo, 425532
1, 68738, Tempo, 428571
1, 68750, Tempo, 425532
1, 68760, Note_on_c, 0, 66, 0
1, 68760, Note_on_c, 0, 63, 0
1, 68760, Note_on_c, 0, 73, 47
1, 68772, Note_on_c, 0, 72, 0
1, 68810, Tempo, 428571
1, 68870, Tempo, 431655
1, 68880, Note_on_c, 0, 75, 50
1, 68880, Note_on_c, 0, 63, 31
1, 68880, Note_on_c, 0, 66, 37
1, 68892, Note_on_c, 0, 73, 0
1, 68930, Tempo, 434783
1, 69000, Tempo, 468750
1, 69000, Note_on_c, 0, 66, 0
1, 69000, Note_on_c, 0, 63, 0
1, 69000, Note_on_c, 0, 72, 46
1, 69012, Note_on_c, 0, 75, 0
1, 69120, Tempo, 434783
1, 69120, Note_on_c, 0, 73, 52
1, 69120, Note_on_c, 0, 64, 50
1, 69120, Note_on_c, 0, 61, 42
1, 69132, Note_on_c, 0, 72, 0
1, 69570, Note_on_c, 0, 73, 0
1, 69570, Note_on_c, 0, 64, 0
1, 69570, Note_on_c, 0, 61, 0
1, 69582, Tempo, 476190
1, 69600, Note_on_c, 0, 85, 60
1, 69602, Tempo, 468750
1, 69622, Tempo, 458015
1, 69642, Tempo, 447761
1, 69662, Tempo, 437956
1, 69682, Tempo, 428571
1, 69702, Tempo, 419580
1, 69720, Note_on_c, 0, 86, 52
1, 69722, Tempo, 410959
1, 69732, Note_on_c, 0, 85, 0
1, 69742, Tempo, 402685
1, 69840, Tempo, 419580
1, 69840, Note_on_c, 0, 85, 52
1, 69852, Note_on_c, 0, 86, 0
1, 69960, Tempo, 434783
1, 69960, Note_on_c, 0, 83, 52
1, 69972, Note_on_c, 0, 85, 0
1, 70080, Tempo, 431655
1, 70080, Note_on_c, 0, 81, 58
1, 70080, Note_on_c, 0, 54, 50
1, 70092, Note_on_c, 0, 83, 0
1, 70200, Note_on_c, 0, 54, 0
1, 70200, Note_on_c, 0, 83, 50
1, 70212, Note_on_c, 0, 81, 0
1, 70320, Tempo, 422535
1, 70320, Note_on_c, 0, 81, 50
1, 70320, Note_on_c, 0, 61, 37
1, 70320, Note_on_c, 0, 57, 31
1, 70332, Note_on_c, 0, 83, 0
1, 70440, Note_on_c, 0, 57, 0
1, 70440, Note_on_c, 0, 61, 0
1, 70440, Note_on_c, 0, 80, 50
1, 70452, Note_on_c, 0, 81, 0
1, 70560, Note_on_c, 0, 78, 56
1, 70560, Note_on_c, 0, 61, 37
1, 70560, Note_on_c, 0, 57, 31
1, 70572, Note_on_c, 0, 80, 0
1, 70680, Note_on_c, 0, 57, 0
1, 70680, Note_on_c, 0, 61, 0
1, 70680, Note_on_c, 0, 81, 50
1, 70692, Note_on_c, 0, 78, 0
1, 70800, Tempo, 425532
1, 70800, Note_on_c, 0, 80, 46
1, 70800, Note_on_c, 0, 61, 37
1, 70800, Note_on_c, 0, 57, 31
1, 70812, Note_on_c, 0, 81, 0
1, 70920, Note_on_c, 0, 57, 0
1, 70920, Note_on_c, 0, 61, 0
1, 70920, Note_on_c, 0, 78, 46
1, 70932, Note_on_c, 0, 80, 0
1, 71040, Tempo, 431655
1, 71040, Note_on_c, 0, 77, 58
1, 71040, Note_on_c, 0, 56, 50
1, 71052, Note_on_c, 0, 78, 0
1, 71160, Note_on_c, 0, 56, 0
1, 71160, Note_on_c, 0, 78, 47
1, 71172, Note_on_c, 0, 77, 0
1, 71280, Tempo, 419580
1, 71280, Note_on_c, 0, 80, 49
1, 71280, Note_on_c, 0, 61, 36
1, 71280, Note_on_c, 0, 59, 30
1, 71292, Note_on_c, 0, 78, 0
1, 71400, Note_on_c, 0, 59, 0
1, 71400, Note_on_c, 0, 61, 0
1, 71400, Note_on_c, 0, 77, 46
1, 71412, Note_on_c, 0, 80, 0
1, 71520, Note_on_c, 0, 73, 56
1, 71520, Note_on_c, 0, 61, 36
1, 71520, Note_on_c, 0, 59, 30
1, 71532, Note_on_c, 0, 77, 0
1, 71640, Note_on_c, 0, 59, 0
1, 71640, Note_on_c, 0, 61, 0
1, 71640, Note_on_c, 0, 75, 47
1, 71652, Note_on_c, 0, 73, 0
1, 71760, Tempo, 422535
1, 71760, Note_on_c, 0, 77, 50
1, 71760, Note_on_c, 0, 61, 36
1, 71760, Note_on_c, 0, 59, 30
1, 71772, Note_on_c, 0, 75, 0
1, 71880, Note_on_c, 0, 59, 0
1, 71880, Note_on_c, 0, 61, 0
1, 71880, Note_on_c, 0, 73, 47
1, 71892, Note_on_c, 0, 77, 0
1, 72000, Tempo, 422535
1, 72000, Note_on_c, 0, 78, 56
1, 72000, Note_on_c, 0, 54, 50
1, 72012, Note_on_c, 0, 73, 0
1, 72120, Note_on_c, 0, 54, 0
1, 72120, Note_on_c, 0, 77, 47
1, 72132, Note_on_c, 0, 78, 0
1, 72240, Tempo, 419580
1, 72240, Note_on_c, 0, 78, 51
1, 72240, Note_on_c, 0, 61, 36
1, 72240, Note_on_c, 0, 57, 30
1, 72252, Note_on_c, 0, 77, 0
1, 72360, Note_on_c, 0, 57, 0
1, 72360, Note_on_c, 0, 61, 0
1, 72360, Note_on_c, 0, 80, 48
1, 72372, Note_on_c, 0, 78, 0
1, 72480, Note_on_c, 0, 81, 58
1, 72480, Note_on_c, 0, 61, 37
1, 72480, Note_on_c, 0, 57, 31
1, 72492, Note_on_c, 0, 80, 0
1, 72600, Note_on_c, 0, 57, 0
1, 72600, Note_on_c, 0, 61, 0
1, 72600, Note_on_c, 0, 80, 54
1, 72612, Note_on_c, 0, 81, 0
1, 72720, Tempo, 422535
1, 72720, Note_on_c, 0, 81, 56
1, 72720, Note_on_c, 0, 61, 38
1, 72720, Note_on_c, 0, 57, 32
1, 72732, Note_on_c, 0, 80, 0
1, 72840, Note_on_c, 0, 57, 0
1, 72840, Note_on_c, 0, 61, 0
1, 72840, Note_on_c, 0, 83, 59
1, 72852, Note_on_c, 0, 81, 0
1, 72960, Tempo, 425532
1, 72960, Note_on_c, 0, 85, 68
1, 72960, Note_on_c, 0, 53, 55
1, 72972, Note_on_c, 0, 83, 0
1, 73080, Note_on_c, 0, 53, 0
1, 73080, Note_on_c, 0, 84, 62
1, 73092, Note_on_c, 0, 85, 0
1, 73200, Tempo, 413793
1, 73200, Note_on_c, 0, 85, 66
1, 73200, Note_on_c, 0, 61, 38
1, 73200, Note_on_c, 0, 56, 31
1, 73212, Note_on_c, 0, 84, 0
1, 73320, Note_on_c, 0, 56, 0
1, 73320, Note_on_c, 0, 61, 0
1, 73320, Note_on_c, 0, 84, 59
1, 73332, Note_on_c, 0, 85, 0
1, 73440, Note_on_c, 0, 84, 0
1, 73440, Note_on_c, 0, 85, 64
1, 73440, Note_on_c, 0, 61, 38
1, 73440, Note_on_c, 0, 56, 31
1, 73560, Note_on_c, 0, 56, 0
1, 73560, Note_on_c, 0, 61, 0
1, 73560, Note_on_c, 0, 86, 57
1, 73572, Note_on_c, 0, 85, 0
1, 73680, Tempo, 425532
1, 73680, Note_on_c, 0, 85, 57
1, 73680, Note_on_c, 0, 61, 38
1, 73680, Note_on_c, 0, 56, 31
1, 73692, Note_on_c, 0, 86, 0
1, 73800, Note_on_c, 0, 56, 0
1, 73800, Note_on_c, 0, 61, 0
1, 73800, Note_on_c, 0, 83, 57
1, 73812, Note_on_c, 0, 85, 0
1, 73920, Tempo, 419580
1, 73920, Note_on_c, 0, 81, 60
1, 73920, Note_on_c, 0, 54, 50
1, 73932, Note_on_c, 0, 83, 0
1, 74040, Note_on_c, 0, 54, 0
1, 74040, Note_on_c, 0, 83, 51
1, 74052, Note_on_c, 0, 81, 0
1, 74160, Tempo, 413793
1, 74160, Note_on_c, 0, 81, 55
1, 74160, Note_on_c, 0, 61, 36
1, 74160, Note_on_c, 0, 57, 30
1, 74172, Note_on_c, 0, 83, 0
1, 74280, Note_on_c, 0, 57, 0
1, 74280, Note_on_c, 0, 61, 0
1, 74280, Note_on_c, 0, 80, 47
1, 74292, Note_on_c, 0, 81, 0
1, 74400, Note_on_c, 0, 78, 54
1, 74400, Note_on_c, 0, 61, 36
1, 74400, Note_on_c, 0, 57, 30
1, 74412, Note_on_c, 0, 80, 0
1, 74520, Note_on_c, 0, 57, 0
1, 74520, Note_on_c, 0, 61, 0
1, 74520, Note_on_c, 0, 81, 47
1, 74532, Note_on_c, 0, 78, 0
1, 74640, Tempo, 425532
1, 74640, Note_on_c, 0, 80, 50
1, 74640, Note_on_c, 0, 61, 36
1, 74640, Note_on_c, 0, 57, 30
1, 74652, Note_on_c, 0, 81, 0
1, 74760, Note_on_c, 0, 57, 0
1, 74760, Note_on_c, 0, 61, 0
1, 74760, Note_on_c, 0, 78, 46
1, 74772, Note_on_c, 0, 80, 0
1, 74880, Tempo, 422535
1, 74880, Note_on_c, 0, 76, 53
1, 74880, Note_on_c, 0, 56, 50
1, 74892, Note_on_c, 0, 78, 0
1, 75000, Note_on_c, 0, 56, 0
1, 75000, Note_on_c, 0, 78, 47
1, 75012, Note_on_c, 0, 76, 0
1, 75120, Tempo, 410959
1, 75120, Note_on_c, 0, 80, 50
1, 75120, Note_on_c, 0, 64, 36
1, 75120, Note_on_c, 0, 61, 30
1, 75132, Note_on_c, 0, 78, 0
1, 75240, Note_on_c, 0, 61, 0
1, 75240, Note_on_c, 0, 64, 0
1, 75240, Note_on_c, 0, 76, 47
1, 75252, Note_on_c, 0, 80, 0
1, 75360, Tempo, 416667
1, 75360, Note_on_c, 0, 73, 54
1, 75360, Note_on_c, 0, 64, 36
1, 75360, Note_on_c, 0, 61, 30
1, 75372, Note_on_c, 0, 76, 0
1, 75480, Note_on_c, 0, 61, 0
1, 75480, Note_on_c, 0, 64, 0
1, 75480, Note_on_c, 0, 75, 47
1, 75492, Note_on_c, 0, 73, 0
1, 75600, Tempo, 428571
1, 75600, Note_on_c, 0, 76, 53
1, 75600, Note_on_c, 0, 64, 36
1, 75600, Note_on_c, 0, 61, 30
1, 75612, Note_on_c, 0, 75, 0
1, 75720, Note_on_c, 0, 61, 0
1, 75720, Note_on_c, 0, 64, 0
1, 75720, Note_on_c, 0, 73, 47
1, 75732, Note_on_c, 0, 76, 0
1, 75840, Tempo, 428571
1, 75840, Note_on_c, 0, 75, 53
1, 75840, Note_on_c, 0, 56, 50
1, 75852, Note_on_c, 0, 73, 0
1, 75960, Note_on_c, 0, 56, 0
1, 75960, Note_on_c, 0, 76, 47
1, 75972, Note_on_c, 0, 75, 0
1, 76080, Tempo, 419580
1, 76080, Note_on_c, 0, 78, 51
1, 76080, Note_on_c, 0, 66, 37
1, 76080, Note_on_c, 0, 63, 31
1, 76092, Note_on_c, 0, 76, 0
1, 76200, Note_on_c, 0, 63, 0
1, 76200, Note_on_c, 0, 66, 0
1, 76200, Note_on_c, 0, 75, 47
1, 76212, Note_on_c, 0, 78, 0
1, 76298, Tempo, 419580
1, 76320, Note_on_c, 0, 72, 50
1, 76320, Note_on_c, 0, 63, 31
1, 76320, Note_on_c, 0, 66, 37
1, 76332, Note_on_c, 0, 75, 0
1, 76338, Tempo, 422535
1, 76378, Tempo, 425532
1, 76418, Tempo, 428571
1, 76430, Tempo, 425532
1, 76440, Note_on_c, 0, 66, 0
1, 76440, Note_on_c, 0, 63, 0
1, 76440, Note_on_c, 0, 73, 47
1, 76452, Note_on_c, 0, 72, 0
1, 76490, Tempo, 428571
1, 76550, Tempo, 431655
1, 76560, Note_on_c, 0, 75, 50
1, 76560, Note_on_c, 0, 63, 31
1, 76560, Note_on_c, 0, 66, 37
1, 76572, Note_on_c, 0, 73, 0
1, 76610, Tempo, 434783
1, 76680, Tempo, 468750
1, 76680, Note_on_c, 0, 66, 0
1, 76680, Note_on_c, 0, 63, 0
1, 76680, Note_on_c, 0, 72, 46
1, 76692, Note_on_c, 0, 75, 0
1, 76800, Tempo, 434783
1, 76800, Note_on_c, 0, 73, 52
1, 76800, Note_on_c, 0, 64, 50
1, 76800, Note_on_c, 0, 61, 42
1, 76812, Note_on_c, 0, 72, 0
1, 77250, Note_on_c, 0, 73, 0
1, 77250, Note_on_c, 0, 64, 0
1, 77250, Note_on_c, 0, 61, 0
1, 77280, Tempo, 416667
1, 77280, Note_on_c, 0, 76, 69
1, 77400, Note_on_c, 0, 74, 59
1, 77412, Note_on_c, 0, 76, 0
1, 77520, Tempo, 419580
1, 77520, Note_on_c, 0, 73, 59
1, 77532, Note_on_c, 0, 74, 0
1, 77640, Tempo, 434783
1, 77640, Note_on_c, 0, 71, 59
1, 77652, Note_on_c, 0, 73, 0
1, 77760, Tempo, 428571
1, 77760, Note_on_c, 0, 69, 66
1, 77760, Note_on_c, 0, 57, 57
1, 77772, Note_on_c, 0, 71, 0
1, 77880, Note_on_c, 0, 57, 0
1, 77880, Note_on_c, 0, 71, 57
1, 77892, Note_on_c, 0, 69, 0
1, 78000, Tempo, 422535
1, 78000, Note_on_c, 0, 73, 57
1, 78000, Note_on_c, 0, 64, 43
1, 78000, Note_on_c, 0, 61, 36
1, 78012, Note_on_c, 0, 71, 0
1, 78120, Note_on_c, 0, 61, 0
1, 78120, Note_on_c, 0, 64, 0
1, 78120, Note_on_c, 0, 74, 57
1, 78132, Note_on_c, 0, 73, 0
1, 78240, Note_on_c, 0, 76, 64
1, 78240, Note_on_c, 0, 64, 43
1, 78240, Note_on_c, 0, 61, 36
1, 78252, Note_on_c, 0, 74, 0
1, 78360, Note_on_c, 0, 61, 0
1, 78360, Note_on_c, 0, 64, 0
1, 78360, Note_on_c, 0, 78, 57
1, 78372, Note_on_c, 0, 76, 0
1, 78480, Tempo, 425532
1, 78480, Note_on_c, 0, 80, 56
1, 78480, Note_on_c, 0, 64, 43
1, 78480, Note_on_c, 0, 61, 36
1, 78492, Note_on_c, 0, 78, 0
1, 78600, Note_on_c, 0, 61, 0
1, 78600, Note_on_c, 0, 64, 0
1, 78600, Note_on_c, 0, 81, 56
1, 78612, Note_on_c, 0, 80, 0
1, 78715, Note_on_c, 0, 81, 0
1, 78720, Tempo, 410959
1, 78720, Note_on_c, 0, 81, 66
1, 78720, Note_on_c, 0, 59, 57
1, 78840, Note_on_c, 0, 59, 0
1, 78840, Note_on_c, 0, 80, 60
1, 78852, Note_on_c, 0, 81, 0
1, 78960, Tempo, 419580
1, 78960, Note_on_c, 0, 78, 60
1, 78960, Note_on_c, 0, 64, 42
1, 78960, Note_on_c, 0, 62, 35
1, 78972, Note_on_c, 0, 80, 0
1, 79080, Note_on_c, 0, 62, 0
1, 79080, Note_on_c, 0, 64, 0
1, 79080, Note_on_c, 0, 76, 57
1, 79092, Note_on_c, 0, 78, 0
1, 79195, Note_on_c, 0, 76, 0
1, 79200, Note_on_c, 0, 76, 64
1, 79200, Note_on_c, 0, 56, 57
1, 79320, Note_on_c, 0, 56, 0
1, 79320, Note_on_c, 0, 74, 59
1, 79332, Note_on_c, 0, 76, 0
1, 79440, Tempo, 422535
1, 79440, Note_on_c, 0, 73, 59
1, 79440, Note_on_c, 0, 64, 42
1, 79440, Note_on_c, 0, 62, 35
1, 79452, Note_on_c, 0, 74, 0
1, 79560, Note_on_c, 0, 62, 0
1, 79560, Note_on_c, 0, 64, 0
1, 79560, Note_on_c, 0, 71, 59
1, 79572, Note_on_c, 0, 73, 0
1, 79680, Tempo, 408163
1, 79680, Note_on_c, 0, 69, 64
1, 79680, Note_on_c, 0, 57, 57
1, 79692, Note_on_c, 0, 71, 0
1, 79800, Note_on_c, 0, 57, 0
1, 79800, Note_on_c, 0, 71, 54
1, 79812, Note_on_c, 0, 69, 0
1, 79920, Tempo, 419580
1, 79920, Note_on_c, 0, 73, 57
1, 79920, Note_on_c, 0, 64, 41
1, 79920, Note_on_c, 0, 61, 35
1, 79932, Note_on_c, 0, 71, 0
1, 80040, Note_on_c, 0, 61, 0
1, 80040, Note_on_c, 0, 64, 0
1, 80040, Note_on_c, 0, 74, 54
1, 80052, Note_on_c, 0, 73, 0
1, 80160, Note_on_c, 0, 76, 64
1, 80160, Note_on_c, 0, 64, 41
1, 80160, Note_on_c, 0, 61, 35
1, 80172, Note_on_c, 0, 74, 0
1, 80280, Note_on_c, 0, 61, 0
1, 80280, Note_on_c, 0, 64, 0
1, 80280, Note_on_c, 0, 78, 58
1, 80292, Note_on_c, 0, 76, 0
1, 80400, Tempo, 458015
1, 80400, Note_on_c, 0, 80, 60
1, 80400, Note_on_c, 0, 64, 41
1, 80400, Note_on_c, 0, 61, 35
1, 80412, Note_on_c, 0, 78, 0
1, 80520, Tempo, 491803
1, 80520, Note_on_c, 0, 61, 0
1, 80520, Note_on_c, 0, 64, 0
1, 80520, Note_on_c, 0, 81, 63
1, 80532, Note_on_c, 0, 80, 0
1, 80640, Tempo, 454545
1, 80640, Note_on_c, 0, 81, 0
1, 80640, Note_on_c, 0, 82, 75
1, 80640, Note_on_c, 0, 52, 57
1, 80880, Tempo, 416667
1, 80880, Note_on_c, 0, 52, 0
1, 80880, Note_on_c, 0, 82, 0
1, 80880, Note_on_c, 0, 83, 69
1, 80880, Note_on_c, 0, 62, 39
1, 80880, Note_on_c, 0, 56, 33
1, 81000, Note_on_c, 0, 56, 0
1, 81000, Note_on_c, 0, 62, 0
1, 81012, Note_on_c, 0, 83, 0
1, 81110, Tempo, 441176
1, 81120, Note_on_c, 0, 76, 69
1, 81120, Note_on_c, 0, 56, 33
1, 81120, Note_on_c, 0, 62, 39
1, 81130, Tempo, 437956
1, 81150, Tempo, 434783
1, 81170, Tempo, 431655
1, 81190, Tempo, 428571
1, 81210, Tempo, 422535
1, 81230, Tempo, 419580
1, 81240, Note_on_c, 0, 62, 0
1, 81240, Note_on_c, 0, 56, 0
1, 81240, Note_on_c, 0, 74, 59
1, 81250, Tempo, 416667
1, 81252, Note_on_c, 0, 76, 0
1, 81270, Tempo, 413793
1, 81290, Tempo, 408163
1, 81360, Tempo, 419580
1, 81360, Note_on_c, 0, 73, 59
1, 81360, Note_on_c, 0, 56, 33
1, 81360, Note_on_c, 0, 62, 39
1, 81372, Note_on_c, 0, 74, 0
1, 81480, Tempo, 434783
1, 81480, Note_on_c, 0, 62, 0
1, 81480, Note_on_c, 0, 56, 0
1, 81480, Note_on_c, 0, 71, 59
1, 81492, Note_on_c, 0, 73, 0
1, 81600, Tempo, 428571
1, 81600, Note_on_c, 0, 69, 66
1, 81600, Note_on_c, 0, 57, 57
1, 81612, Note_on_c, 0, 71, 0
1, 81720, Note_on_c, 0, 57, 0
1, 81720, Note_on_c, 0, 71, 57
1, 81732, Note_on_c, 0, 69, 0
1, 81840, Tempo, 422535
1, 81840, Note_on_c, 0, 73, 57
1, 81840, Note_on_c, 0, 64, 43
1, 81840, Note_on_c, 0, 61, 36
1, 81852, Note_on_c, 0, 71, 0
1, 81960, Note_on_c, 0, 61, 0
1, 81960, Note_on_c, 0, 64, 0
1, 81960, Note_on_c, 0, 74, 57
1, 81972, Note_on_c, 0, 73, 0
1, 82080, Note_on_c, 0, 76, 64
1, 82080, Note_on_c, 0, 64, 43
1, 82080, Note_on_c, 0, 61, 36
1, 82092, Note_on_c, 0, 74, 0
1, 82200, Note_on_c, 0, 61, 0
1, 82200, Note_on_c, 0, 64, 0
1, 82200, Note_on_c, 0, 78, 57
1, 82212, Note_on_c, 0, 76, 0
1, 82320, Tempo, 425532
1, 82320, Note_on_c, 0, 80, 56
1, 82320, Note_on_c, 0, 64, 43
1, 82320, Note_on_c, 0, 61, 36
1, 82332, Note_on_c, 0, 78, 0
1, 82440, Note_on_c, 0, 61, 0
1, 82440, Note_on_c, 0, 64, 0
1, 82440, Note_on_c, 0, 81, 56
1, 82452, Note_on_c, 0, 80, 0
1, 82555, Note_on_c, 0, 81, 0
1, 82560, Tempo, 410959
1, 82560, Note_on_c, 0, 81, 66
1, 82560, Note_on_c, 0, 59, 57
1, 82680, Note_on_c, 0, 59, 0
1, 82680, Note_on_c, 0, 80, 57
1, 82692, Note_on_c, 0, 81, 0
1, 82800, Tempo, 419580
1, 82800, Note_on_c, 0, 78, 60
1, 82800, Note_on_c, 0, 64, 42
1, 82800, Note_on_c, 0, 62, 35
1, 82812, Note_on_c, 0, 80, 0
1, 82920, Note_on_c, 0, 62, 0
1, 82920, Note_on_c, 0, 64, 0
1, 82920, Note_on_c, 0, 76, 57
1, 82932, Note_on_c, 0, 78, 0
1, 83035, Note_on_c, 0, 76, 0
1, 83040, Note_on_c, 0, 76, 64
1, 83040, Note_on_c, 0, 56, 57
1, 83160, Note_on_c, 0, 56, 0
1, 83160, Note_on_c, 0, 74, 59
1, 83172, Note_on_c, 0, 76, 0
1, 83280, Tempo, 422535
1, 83280, Note_on_c, 0, 73, 59
1, 83280, Note_on_c, 0, 64, 42
1, 83280, Note_on_c, 0, 62, 35
1, 83292, Note_on_c, 0, 74, 0
1, 83400, Note_on_c, 0, 62, 0
1, 83400, Note_on_c, 0, 64, 0
1, 83400, Note_on_c, 0, 71, 59
1, 83412, Note_on_c, 0, 73, 0
1, 83520, Tempo, 408163
1, 83520, Note_on_c, 0, 73, 64
1, 83520, Note_on_c, 0, 57, 57
1, 83532, Note_on_c, 0, 71, 0
1, 83640, Note_on_c, 0, 57, 0
1, 83640, Note_on_c, 0, 76, 54
1, 83652, Note_on_c, 0, 73, 0
1, 83760, Tempo, 419580
1, 83760, Note_on_c, 0, 69, 57
1, 83760, Note_on_c, 0, 54, 46
1, 83772, Note_on_c, 0, 76, 0
1, 83880, Note_on_c, 0, 54, 0
1, 83880, Note_on_c, 0, 73, 54
1, 83892, Note_on_c, 0, 69, 0
1, 84000, Tempo, 410959
1, 84000, Note_on_c, 0, 71, 64
1, 84000, Note_on_c, 0, 50, 46
1, 84012, Note_on_c, 0, 73, 0
1, 84120, Note_on_c, 0, 50, 0
1, 84120, Note_on_c, 0, 74, 58
1, 84132, Note_on_c, 0, 71, 0
1, 84240, Tempo, 437956
1, 84240, Note_on_c, 0, 68, 60
1, 84240, Note_on_c, 0, 52, 46
1, 84252, Note_on_c, 0, 74, 0
1, 84360, Note_on_c, 0, 52, 0
1, 84360, Note_on_c, 0, 71, 55
1, 84372, Note_on_c, 0, 68, 0
1, 84480, Tempo, 441176
1, 84480, Note_on_c, 0, 71, 0
1, 84480, Note_on_c, 0, 69, 66
1, 84480, Note_on_c, 0, 45, 57
1, 84720, Tempo, 416667
1, 84720, Note_on_c, 0, 45, 0
1, 84720, Note_on_c, 0, 57, 44
1, 84840, Note_on_c, 0, 57, 0
1, 84840, Note_on_c, 0, 69, 0
1, 84950, Tempo, 472441
1, 84960, Note_on_c, 0, 85, 60
1, 84970, Tempo, 465116
1, 84990, Tempo, 454545
1, 85010, Tempo, 447761
1, 85030, Tempo, 437956
1, 85050, Tempo, 431655
1, 85070, Tempo, 422535
1, 85080, Note_on_c, 0, 86, 52
1, 85090, Tempo, 416667
1, 85092, Note_on_c, 0, 85, 0
1, 85110, Tempo, 408163
1, 85200, Tempo, 419580
1, 85200, Note_on_c, 0, 85, 52
1, 85212, Note_on_c, 0, 86, 0
1, 85320, Tempo, 434783
1, 85320, Note_on_c, 0, 83, 52
1, 85332, Note_on_c, 0, 85, 0
1, 85440, Tempo, 425532
1, 85440, Note_on_c, 0, 81, 58
1, 85440, Note_on_c, 0, 52, 50
1, 85452, Note_on_c, 0, 83, 0
1, 85560, Note_on_c, 0, 52, 0
1, 85560, Note_on_c, 0, 83, 50
1, 85572, Note_on_c, 0, 81, 0
1, 85680, Tempo, 422535
1, 85680, Note_on_c, 0, 81, 50
1, 85680, Note_on_c, 0, 61, 42
1, 85680, Note_on_c, 0, 57, 35
1, 85692, Note_on_c, 0, 83, 0
1, 85800, Note_on_c, 0, 57, 0
1, 85800, Note_on_c, 0, 61, 0
1, 85800, Note_on_c, 0, 80, 50
1, 85812, Note_on_c, 0, 81, 0
1, 85920, Note_on_c, 0, 78, 56
1, 85920, Note_on_c, 0, 61, 42
1, 85920, Note_on_c, 0, 57, 35
1, 85932, Note_on_c, 0, 80, 0
1, 86040, Note_on_c, 0, 57, 0
1, 86040, Note_on_c, 0, 61, 0
1, 86040, Note_on_c, 0, 81, 50
1, 86052, Note_on_c, 0, 78, 0
1, 86160, Tempo, 425532
1, 86160, Note_on_c, 0, 80, 46
1, 86160, Note_on_c, 0, 61, 42
1, 86160, Note_on_c, 0, 57, 35
1, 86172, Note_on_c, 0, 81, 0
1, 86280, Note_on_c, 0, 57, 0
1, 86280, Note_on_c, 0, 61, 0
1, 86280, Note_on_c, 0, 78, 46
1, 86292, Note_on_c, 0, 80, 0
1, 86400, Tempo, 422535
1, 86400, Note_on_c, 0, 77, 58
1, 86400, Note_on_c, 0, 56, 50
1, 86412, Note_on_c, 0, 78, 0
1, 86520, Note_on_c, 0, 56, 0
1, 86520, Note_on_c, 0, 78, 47
1, 86532, Note_on_c, 0, 77, 0
1, 86640, Tempo, 419580
1, 86640, Note_on_c, 0, 80, 49
1, 86640, Note_on_c, 0, 61, 41
1, 86640, Note_on_c, 0, 59, 34
1, 86652, Note_on_c, 0, 78, 0
1, 86760, Note_on_c, 0, 59, 0
1, 86760, Note_on_c, 0, 61, 0
1, 86760, Note_on_c, 0, 77, 46
1, 86772, Note_on_c, 0, 80, 0
1, 86880, Note_on_c, 0, 73, 56
1, 86880, Note_on_c, 0, 61, 41
1, 86880, Note_on_c, 0, 59, 34
1, 86892, Note_on_c, 0, 77, 0
1, 87000, Note_on_c, 0, 59, 0
1, 87000, Note_on_c, 0, 61, 0
1, 87000, Note_on_c, 0, 75, 47
1, 87012, Note_on_c, 0, 73, 0
1, 87120, Tempo, 422535
1, 87120, Note_on_c, 0, 77, 50
1, 87120, Note_on_c, 0, 61, 41
1, 87120, Note_on_c, 0, 59, 34
1, 87132, Note_on_c, 0, 75, 0
1, 87240, Note_on_c, 0, 59, 0
1, 87240, Note_on_c, 0, 61, 0
1, 87240, Note_on_c, 0, 73, 47
1, 87252, Note_on_c, 0, 77, 0
1, 87360, Tempo, 431655
1, 87360, Note_on_c, 0, 78, 56
1, 87360, Note_on_c, 0, 54, 50
1, 87372, Note_on_c, 0, 73, 0
1, 87480, Note_on_c, 0, 54, 0
1, 87480, Note_on_c, 0, 77, 47
1, 87492, Note_on_c, 0, 78, 0
1, 87600, Tempo, 419580
1, 87600, Note_on_c, 0, 78, 50
1, 87600, Note_on_c, 0, 61, 40
1, 87600, Note_on_c, 0, 57, 34
1, 87612, Note_on_c, 0, 77, 0
1, 87720, Note_on_c, 0, 57, 0
1, 87720, Note_on_c, 0, 61, 0
1, 87720, Note_on_c, 0, 80, 47
1, 87732, Note_on_c, 0, 78, 0
1, 87840, Note_on_c, 0, 81, 56
1, 87840, Note_on_c, 0, 61, 40
1, 87840, Note_on_c, 0, 57, 34
1, 87852, Note_on_c, 0, 80, 0
1, 87960, Note_on_c, 0, 57, 0
1, 87960, Note_on_c, 0, 61, 0
1, 87960, Note_on_c, 0, 80, 51
1, 87972, Note_on_c, 0, 81, 0
1, 88080, Tempo, 422535
1, 88080, Note_on_c, 0, 81, 53
1, 88080, Note_on_c, 0, 61, 40
1, 88080, Note_on_c, 0, 57, 34
1, 88092, Note_on_c, 0, 80, 0
1, 88200, Note_on_c, 0, 57, 0
1, 88200, Note_on_c, 0, 61, 0
1, 88200, Note_on_c, 0, 83, 55
1, 88212, Note_on_c, 0, 81, 0
1, 88320, Tempo, 410959
1, 88320, Note_on_c, 0, 85, 62
1, 88320, Note_on_c, 0, 49, 50
1, 88332, Note_on_c, 0, 83, 0
1, 88440, Note_on_c, 0, 49, 0
1, 88440, Note_on_c, 0, 84, 57
1, 88452, Note_on_c, 0, 85, 0
1, 88560, Tempo, 416667
1, 88560, Note_on_c, 0, 85, 60
1, 88560, Note_on_c, 0, 61, 49
1, 88560, Note_on_c, 0, 56, 41
1, 88572, Note_on_c, 0, 84, 0
1, 88680, Note_on_c, 0, 56, 0
1, 88680, Note_on_c, 0, 61, 0
1, 88680, Note_on_c, 0, 84, 54
1, 88692, Note_on_c, 0, 85, 0
1, 88800, Note_on_c, 0, 84, 0
1, 88800, Note_on_c, 0, 85, 62
1, 88800, Note_on_c, 0, 61, 48
1, 88800, Note_on_c, 0, 55, 40
1, 88920, Note_on_c, 0, 55, 0
1, 88920, Note_on_c, 0, 61, 0
1, 88920, Note_on_c, 0, 86, 56
1, 88932, Note_on_c, 0, 85, 0
1, 89040, Tempo, 425532
1, 89040, Note_on_c, 0, 85, 65
1, 89040, Note_on_c, 0, 61, 48
1, 89040, Note_on_c, 0, 54, 40
1, 89052, Note_on_c, 0, 86, 0
1, 89160, Note_on_c, 0, 54, 0
1, 89160, Note_on_c, 0, 61, 0
1, 89160, Note_on_c, 0, 82, 60
1, 89172, Note_on_c, 0, 85, 0
1, 89280, Tempo, 428571
1, 89280, Note_on_c, 0, 86, 69
1, 89280, Note_on_c, 0, 47, 59
1, 89292, Note_on_c, 0, 82, 0
1, 89400, Note_on_c, 0, 47, 0
1, 89400, Note_on_c, 0, 85, 63
1, 89412, Note_on_c, 0, 86, 0
1, 89520, Tempo, 416667
1, 89520, Note_on_c, 0, 86, 69
1, 89520, Note_on_c, 0, 59, 53
1, 89520, Note_on_c, 0, 54, 45
1, 89532, Note_on_c, 0, 85, 0
1, 89640, Note_on_c, 0, 54, 0
1, 89640, Note_on_c, 0, 59, 0
1, 89640, Note_on_c, 0, 85, 64
1, 89652, Note_on_c, 0, 86, 0
1, 89760, Note_on_c, 0, 86, 68
1, 89760, Note_on_c, 0, 59, 56
1, 89760, Note_on_c, 0, 54, 47
1, 89772, Note_on_c, 0, 85, 0
1, 89880, Note_on_c, 0, 54, 0
1, 89880, Note_on_c, 0, 59, 0
1, 89880, Note_on_c, 0, 85, 66
1, 89892, Note_on_c, 0, 86, 0
1, 90000, Tempo, 425532
1, 90000, Note_on_c, 0, 86, 72
1, 90000, Note_on_c, 0, 59, 54
1, 90000, Note_on_c, 0, 54, 45
1, 90012, Note_on_c, 0, 85, 0
1, 90120, Note_on_c, 0, 54, 0
1, 90120, Note_on_c, 0, 59, 0
1, 90120, Note_on_c, 0, 85, 68
1, 90132, Note_on_c, 0, 86, 0
1, 90240, Tempo, 425532
1, 90240, Note_on_c, 0, 86, 70
1, 90240, Note_on_c, 0, 47, 65
1, 90252, Note_on_c, 0, 85, 0
1, 90360, Note_on_c, 0, 47, 0
1, 90360, Note_on_c, 0, 85, 69
1, 90372, Note_on_c, 0, 86, 0
1, 90480, Tempo, 416667
1, 90480, Note_on_c, 0, 83, 67
1, 90480, Note_on_c, 0, 59, 54
1, 90480, Note_on_c, 0, 56, 45
1, 90492, Note_on_c, 0, 85, 0
1, 90600, Note_on_c, 0, 56, 0
1, 90600, Note_on_c, 0, 59, 0
1, 90600, Note_on_c, 0, 81, 66
1, 90612, Note_on_c, 0, 83, 0
1, 90720, Note_on_c, 0, 80, 64
1, 90720, Note_on_c, 0, 59, 60
1, 90720, Note_on_c, 0, 56, 51
1, 90732, Note_on_c, 0, 81, 0
1, 90840, Note_on_c, 0, 56, 0
1, 90840, Note_on_c, 0, 59, 0
1, 90840, Note_on_c, 0, 81, 61
1, 90852, Note_on_c, 0, 80, 0
1, 90960, Tempo, 428571
1, 90960, Note_on_c, 0, 83, 64
1, 90960, Note_on_c, 0, 59, 54
1, 90960, Note_on_c, 0, 56, 45
1, 90972, Note_on_c, 0, 81, 0
1, 91080, Note_on_c, 0, 56, 0
1, 91080, Note_on_c, 0, 59, 0
1, 91080, Note_on_c, 0, 80, 61
1, 91092, Note_on_c, 0, 83, 0
1, 91200, Tempo, 416667
1, 91200, Note_on_c, 0, 81, 57
1, 91200, Note_on_c, 0, 49, 58
1, 91212, Note_on_c, 0, 80, 0
1, 91320, Note_on_c, 0, 49, 0
1, 91320, Note_on_c, 0, 83, 49
1, 91332, Note_on_c, 0, 81, 0
1, 91440, Tempo, 419580
1, 91440, Note_on_c, 0, 85, 55
1, 91440, Note_on_c, 0, 57, 47
1, 91440, Note_on_c, 0, 54, 39
1, 91452, Note_on_c, 0, 83, 0
1, 91560, Note_on_c, 0, 54, 0
1, 91560, Note_on_c, 0, 57, 0
1, 91560, Note_on_c, 0, 78, 50
1, 91572, Note_on_c, 0, 85, 0
1, 91658, Tempo, 419580
1, 91680, Note_on_c, 0, 77, 53
1, 91680, Note_on_c, 0, 49, 55
1, 91692, Note_on_c, 0, 78, 0
1, 91698, Tempo, 422535
1, 91738, Tempo, 425532
1, 91778, Tempo, 428571
1, 91790, Tempo, 425532
1, 91800, Note_on_c, 0, 49, 0
1, 91800, Note_on_c, 0, 78, 47
1, 91812, Note_on_c, 0, 77, 0
1, 91850, Tempo, 428571
1, 91910, Tempo, 431655
1, 91920, Note_on_c, 0, 80, 54
1, 91920, Note_on_c, 0, 56, 41
1, 91920, Note_on_c, 0, 59, 49
1, 91932, Note_on_c, 0, 78, 0
1, 91970, Tempo, 434783
1, 92040, Tempo, 512821
1, 92040, Note_on_c, 0, 59, 0
1, 92040, Note_on_c, 0, 56, 0
1, 92040, Note_on_c, 0, 77, 47
1, 92052, Note_on_c, 0, 80, 0
1, 92160, Tempo, 434783
1, 92160, Note_on_c, 0, 78, 54
1, 92160, Note_on_c, 0, 57, 46
1, 92160, Note_on_c, 0, 54, 39
1, 92172, Note_on_c, 0, 77, 0
1, 92610, Note_on_c, 0, 78, 0
1, 92610, Note_on_c, 0, 57, 0
1, 92610, Note_on_c, 0, 54, 0
1, 92640, Tempo, 416667
1, 92640, Note_on_c, 0, 76, 69
1, 92760, Note_on_c, 0, 74, 59
1, 92772, Note_on_c, 0, 76, 0
1, 92880, Tempo, 419580
1, 92880, Note_on_c, 0, 73, 59
1, 92892, Note_on_c, 0, 74, 0
1, 93000, Tempo, 434783
1, 93000, Note_on_c, 0, 71, 59
1, 93012, Note_on_c, 0, 73, 0
1, 93120, Tempo, 428571
1, 93120, Note_on_c, 0, 69, 66
1, 93120, Note_on_c, 0, 57, 57
1, 93132, Note_on_c, 0, 71, 0
1, 93240, Note_on_c, 0, 57, 0
1, 93240, Note_on_c, 0, 71, 57
1, 93252, Note_on_c, 0, 69, 0
1, 93360, Tempo, 422535
1, 93360, Note_on_c, 0, 73, 57
1, 93360, Note_on_c, 0, 64, 43
1, 93360, Note_on_c, 0, 61, 36
1, 93372, Note_on_c, 0, 71, 0
1, 93480, Note_on_c, 0, 61, 0
1, 93480, Note_on_c, 0, 64, 0
1, 93480, Note_on_c, 0, 74, 57
1, 93492, Note_on_c, 0, 73, 0
1, 93600, Tempo, 428571
1, 93600, Note_on_c, 0, 76, 64
1, 93600, Note_on_c, 0, 64, 43
1, 93600, Note_on_c, 0, 61, 36
1, 93612, Note_on_c, 0, 74, 0
1, 93720, Note_on_c, 0, 61, 0
1, 93720, Note_on_c, 0, 64, 0
1, 93720, Note_on_c, 0, 78, 57
1, 93732, Note_on_c, 0, 76, 0
1, 93840, Tempo, 434783
1, 93840, Note_on_c, 0, 80, 56
1, 93840, Note_on_c, 0, 64, 43
1, 93840, Note_on_c, 0, 61, 36
1, 93852, Note_on_c, 0, 78, 0
1, 93960, Note_on_c, 0, 61, 0
1, 93960, Note_on_c, 0, 64, 0
1, 93960, Note_on_c, 0, 81, 56
1, 93972, Note_on_c, 0, 80, 0
1, 94075, Note_on_c, 0, 81, 0
1, 94080, Tempo, 416667
1, 94080, Note_on_c, 0, 81, 66
1, 94080, Note_on_c, 0, 59, 57
1, 94200, Note_on_c, 0, 59, 0
1, 94200, Note_on_c, 0, 80, 60
1, 94212, Note_on_c, 0, 81, 0
1, 94320, Tempo, 419580
1, 94320, Note_on_c, 0, 78, 60
1, 94320, Note_on_c, 0, 64, 42
1, 94320, Note_on_c, 0, 62, 35
1, 94332, Note_on_c, 0, 80, 0
1, 94440, Note_on_c, 0, 62, 0
1, 94440, Note_on_c, 0, 64, 0
1, 94440, Note_on_c, 0, 76, 57
1, 94452, Note_on_c, 0, 78, 0
1, 94555, Note_on_c, 0, 76, 0
1, 94560, Note_on_c, 0, 76, 64
1, 94560, Note_on_c, 0, 56, 57
1, 94680, Note_on_c, 0, 56, 0
1, 94680, Note_on_c, 0, 74, 59
1, 94692, Note_on_c, 0, 76, 0
1, 94800, Tempo, 422535
1, 94800, Note_on_c, 0, 73, 59
1, 94800, Note_on_c, 0, 64, 42
1, 94800, Note_on_c, 0, 62, 35
1, 94812, Note_on_c, 0, 74, 0
1, 94920, Note_on_c, 0, 62, 0
1, 94920, Note_on_c, 0, 64, 0
1, 94920, Note_on_c, 0, 71, 59
1, 94932, Note_on_c, 0, 73, 0
1, 95040, Tempo, 408163
1, 95040, Note_on_c, 0, 69, 64
1, 95040, Note_on_c, 0, 57, 57
1, 95052, Note_on_c, 0, 71, 0
1, 95160, Note_on_c, 0, 57, 0
1, 95160, Note_on_c, 0, 71, 54
1, 95172, Note_on_c, 0, 69, 0
1, 95280, Tempo, 419580
1, 95280, Note_on_c, 0, 73, 57
1, 95280, Note_on_c, 0, 64, 41
1, 95280, Note_on_c, 0, 61, 35
1, 95292, Note_on_c, 0, 71, 0
1, 95400, Note_on_c, 0, 61, 0
1, 95400, Note_on_c, 0, 64, 0
1, 95400, Note_on_c, 0, 74, 54
1, 95412, Note_on_c, 0, 73, 0
1, 95520, Note_on_c, 0, 76, 64
1, 95520, Note_on_c, 0, 64, 41
1, 95520, Note_on_c, 0, 61, 35
1, 95532, Note_on_c, 0, 74, 0
1, 95640, Note_on_c, 0, 61, 0
1, 95640, Note_on_c, 0, 64, 0
1, 95640, Note_on_c, 0, 78, 58
1, 95652, Note_on_c, 0, 76, 0
1, 95760, Tempo, 458015
1, 95760, Note_on_c, 0, 80, 60
1, 95760, Note_on_c, 0, 64, 41
1, 95760, Note_on_c, 0, 61, 35
1, 95772, Note_on_c, 0, 78, 0
1, 95880, Tempo, 508475
1, 95880, Note_on_c, 0, 61, 0
1, 95880, Note_on_c, 0, 64, 0
1, 95880, Note_on_c, 0, 81, 63
1, 95892, Note_on_c, 0, 80, 0
1, 96000, Tempo, 468750
1, 96000, Note_on_c, 0, 81, 0
1, 96000, Note_on_c, 0, 82, 75
1, 96000, Note_on_c, 0, 52, 57
1, 96240, Tempo, 416667
1, 96240, Note_on_c, 0, 52, 0
1, 96240, Note_on_c, 0, 82, 0
1, 96240, Note_on_c, 0, 83, 69
1, 96240, Note_on_c, 0, 62, 39
1, 96240, Note_on_c, 0, 56, 33
1, 96360, Note_on_c, 0, 56, 0
1, 96360, Note_on_c, 0, 62, 0
1, 96372, Note_on_c, 0, 83, 0
1, 96480, Tempo, 416667
1, 96480, Note_on_c, 0, 76, 69
1, 96480, Note_on_c, 0, 56, 33
1, 96480, Note_on_c, 0, 62, 39
1, 96600, Note_on_c, 0, 62, 0
1, 96600, Note_on_c, 0, 56, 0
1, 96600, Note_on_c, 0, 74, 59
1, 96612, Note_on_c, 0, 76, 0
1, 96720, Tempo, 419580
1, 96720, Note_on_c, 0, 73, 59
1, 96720, Note_on_c, 0, 56, 33
1, 96720, Note_on_c, 0, 62, 39
1, 96732, Note_on_c, 0, 74, 0
1, 96840, Tempo, 434783
1, 96840, Note_on_c, 0, 62, 0
1, 96840, Note_on_c, 0, 56, 0
1, 96840, Note_on_c, 0, 71, 59
1, 96852, Note_on_c, 0, 73, 0
1, 96960, Tempo, 428571
1, 96960, Note_on_c, 0, 69, 66
1, 96960, Note_on_c, 0, 57, 57
1, 96972, Note_on_c, 0, 71, 0
1, 97080, Note_on_c, 0, 57, 0
1, 97080, Note_on_c, 0, 71, 57
1, 97092, Note_on_c, 0, 69, 0
1, 97200, Tempo, 422535
1, 97200, Note_on_c, 0, 73, 57
1, 97200, Note_on_c, 0, 64, 43
1, 97200, Note_on_c, 0, 61, 36
1, 97212, Note_on_c, 0, 71, 0
1, 97320, Note_on_c, 0, 61, 0
1, 97320, Note_on_c, 0, 64, 0
1, 97320, Note_on_c, 0, 74, 57
1, 97332, Note_on_c, 0, 73, 0
1, 97440, Tempo, 428571
1, 97440, Note_on_c, 0, 76, 64
1, 97440, Note_on_c, 0, 64, 43
1, 97440, Note_on_c, 0, 61, 36
1, 97452, Note_on_c, 0, 74, 0
1, 97560, Note_on_c, 0, 61, 0
1, 97560, Note_on_c, 0, 64, 0
1, 97560, Note_on_c, 0, 78, 57
1, 97572, Note_on_c, 0, 76, 0
1, 97680, Tempo, 425532
1, 97680, Note_on_c, 0, 80, 56
1, 97680, Note_on_c, 0, 64, 43
1, 97680, Note_on_c, 0, 61, 36
1, 97692, Note_on_c, 0, 78, 0
1, 97800, Note_on_c, 0, 61, 0
1, 97800, Note_on_c, 0, 64, 0
1, 97800, Note_on_c, 0, 81, 56
1, 97812, Note_on_c, 0, 80, 0
1, 97915, Note_on_c, 0, 81, 0
1, 97920, Tempo, 416667
1, 97920, Note_on_c, 0, 81, 66
1, 97920, Note_on_c, 0, 59, 57
1, 98040, Note_on_c, 0, 59, 0
1, 98040, Note_on_c, 0, 80, 57
1, 98052, Note_on_c, 0, 81, 0
1, 98160, Tempo, 419580
1, 98160, Note_on_c, 0, 78, 60
1, 98160, Note_on_c, 0, 64, 42
1, 98160, Note_on_c, 0, 62, 35
1, 98172, Note_on_c, 0, 80, 0
1, 98280, Note_on_c, 0, 62, 0
1, 98280, Note_on_c, 0, 64, 0
1, 98280, Note_on_c, 0, 76, 57
1, 98292, Note_on_c, 0, 78, 0
1, 98395, Note_on_c, 0, 76, 0
1, 98400, Note_on_c, 0, 76, 64
1, 98400, Note_on_c, 0, 56, 57
1, 98520, Note_on_c, 0, 56, 0
1, 98520, Note_on_c, 0, 74, 59
1, 98532, Note_on_c, 0, 76, 0
1, 98640, Tempo, 422535
1, 98640, Note_on_c, 0, 73, 59
1, 98640, Note_on_c, 0, 64, 42
1, 98640, Note_on_c, 0, 62, 35
1, 98652, Note_on_c, 0, 74, 0
1, 98760, Note_on_c, 0, 62, 0
1, 98760, Note_on_c, 0, 64, 0
1, 98760, Note_on_c, 0, 71, 59
1, 98772, Note_on_c, 0, 73, 0
1, 98880, Tempo, 408163
1, 98880, Note_on_c, 0, 73, 64
1, 98880, Note_on_c, 0, 57, 57
1, 98892, Note_on_c, 0, 71, 0
1, 99000, Note_on_c, 0, 57, 0
1, 99000, Note_on_c, 0, 76, 54
1, 99012, Note_on_c, 0, 73, 0
1, 99120, Tempo, 419580
1, 99120, Note_on_c, 0, 69, 57
1, 99120, Note_on_c, 0, 54, 46
1, 99132, Note_on_c, 0, 76, 0
1, 99240, Note_on_c, 0, 54, 0
1, 99240, Note_on_c, 0, 73, 54
1, 99252, Note_on_c, 0, 69, 0
1, 99360, Tempo, 410959
1, 99360, Note_on_c, 0, 71, 64
1, 99360, Note_on_c, 0, 50, 46
1, 99372, Note_on_c, 0, 73, 0
1, 99480, Note_on_c, 0, 50, 0
1, 99480, Note_on_c, 0, 74, 58
1, 99492, Note_on_c, 0, 71, 0
1, 99600, Tempo, 437956
1, 99600, Note_on_c, 0, 68, 60
1, 99600, Note_on_c, 0, 52, 46
1, 99612, Note_on_c, 0, 74, 0
1, 99720, Note_on_c, 0, 52, 0
1, 99720, Note_on_c, 0, 71, 55
1, 99732, Note_on_c, 0, 68, 0
1, 99840, Tempo, 441176
1, 99840, Note_on_c, 0, 71, 0
1, 99840, Note_on_c, 0, 69, 66
1, 99840, Note_on_c, 0, 45, 57
1, 99890, Control_c, 0, 64, 127
1, 100080, Tempo, 431655
1, 100080, Note_on_c, 0, 45, 0
1, 100080, Note_on_c, 0, 57, 44
1, 100108, Control_c, 0, 64, 0
1, 100200, Note_on_c, 0, 57, 0
1, 100200, Note_on_c, 0, 69, 0
1, 100310, Tempo, 495868
1, 100320, Note_on_c, 0, 85, 60
1, 100330, Tempo, 483871
1, 100350, Tempo, 468750
1, 100370, Tempo, 454545
1, 100390, Tempo, 441176
1, 100410, Tempo, 428571
1, 100430, Tempo, 416667
1, 100440, Note_on_c, 0, 86, 52
1, 100450, Tempo, 405405
1, 100452, Note_on_c, 0, 85, 0
1, 100560, Tempo, 419580
1, 100560, Note_on_c, 0, 85, 52
1, 100572, Note_on_c, 0, 86, 0
1, 100680, Tempo, 434783
1, 100680, Note_on_c, 0, 83, 52
1, 100692, Note_on_c, 0, 85, 0
1, 100800, Tempo, 425532
1, 100800, Note_on_c, 0, 81, 58
1, 100800, Note_on_c, 0, 52, 50
1, 100812, Note_on_c, 0, 83, 0
1, 100920, Note_on_c, 0, 52, 0
1, 100920, Note_on_c, 0, 83, 50
1, 100932, Note_on_c, 0, 81, 0
1, 101040, Tempo, 422535
1, 101040, Note_on_c, 0, 81, 50
1, 101040, Note_on_c, 0, 61, 42
1, 101040, Note_on_c, 0, 57, 35
1, 101052, Note_on_c, 0, 83, 0
1, 101160, Note_on_c, 0, 57, 0
1, 101160, Note_on_c, 0, 61, 0
1, 101160, Note_on_c, 0, 80, 50
1, 101172, Note_on_c, 0, 81, 0
1, 101280, Note_on_c, 0, 78, 56
1, 101280, Note_on_c, 0, 61, 42
1, 101280, Note_on_c, 0, 57, 35
1, 101292, Note_on_c, 0, 80, 0
1, 101400, Note_on_c, 0, 57, 0
1, 101400, Note_on_c, 0, 61, 0
1, 101400, Note_on_c, 0, 81, 50
1, 101412, Note_on_c, 0, 78, 0
1, 101520, Tempo, 425532
1, 101520, Note_on_c, 0, 80, 46
1, 101520, Note_on_c, 0, 61, 42
1, 101520, Note_on_c, 0, 57, 35
1, 101532, Note_on_c, 0, 81, 0
1, 101640, Note_on_c, 0, 57, 0
1, 101640, Note_on_c, 0, 61, 0
1, 101640, Note_on_c, 0, 78, 46
1, 101652, Note_on_c, 0, 80, 0
1, 101760, Tempo, 422535
1, 101760, Note_on_c, 0, 77, 58
1, 101760, Note_on_c, 0, 56, 50
1, 101772, Note_on_c, 0, 78, 0
1, 101880, Note_on_c, 0, 56, 0
1, 101880, Note_on_c, 0, 78, 47
1, 101892, Note_on_c, 0, 77, 0
1, 102000, Tempo, 419580
1, 102000, Note_on_c, 0, 80, 49
1, 102000, Note_on_c, 0, 61, 41
1, 102000, Note_on_c, 0, 59, 34
1, 102012, Note_on_c, 0, 78, 0
1, 102120, Note_on_c, 0, 59, 0
1, 102120, Note_on_c, 0, 61, 0
1, 102120, Note_on_c, 0, 77, 46
1, 102132, Note_on_c, 0, 80, 0
1, 102240, Note_on_c, 0, 73, 56
1, 102240, Note_on_c, 0, 61, 41
1, 102240, Note_on_c, 0, 59, 34
1, 102252, Note_on_c, 0, 77, 0
1, 102360, Note_on_c, 0, 59, 0
1, 102360, Note_on_c, 0, 61, 0
1, 102360, Note_on_c, 0, 75, 47
1, 102372, Note_on_c, 0, 73, 0
1, 102480, Tempo, 422535
1, 102480, Note_on_c, 0, 77, 50
1, 102480, Note_on_c, 0, 61, 41
1, 102480, Note_on_c, 0, 59, 34
1, 102492, Note_on_c, 0, 75, 0
1, 102600, Note_on_c, 0, 59, 0
1, 102600, Note_on_c, 0, 61, 0
1, 102600, Note_on_c, 0, 73, 47
1, 102612, Note_on_c, 0, 77, 0
1, 102720, Tempo, 431655
1, 102720, Note_on_c, 0, 78, 56
1, 102720, Note_on_c, 0, 54, 50
1, 102732, Note_on_c, 0, 73, 0
1, 102840, Note_on_c, 0, 54, 0
1, 102840, Note_on_c, 0, 77, 47
1, 102852, Note_on_c, 0, 78, 0
1, 102960, Tempo, 419580
1, 102960, Note_on_c, 0, 78, 50
1, 102960, Note_on_c, 0, 61, 40
1, 102960, Note_on_c, 0, 57, 34
1, 102972, Note_on_c, 0, 77, 0
1, 103080, Note_on_c, 0, 57, 0
1, 103080, Note_on_c, 0, 61, 0
1, 103080, Note_on_c, 0, 80, 47
1, 103092, Note_on_c, 0, 78, 0
1, 103200, Note_on_c, 0, 81, 56
1, 103200, Note_on_c, 0, 61, 40
1, 103200, Note_on_c, 0, 57, 34
1, 103212, Note_on_c, 0, 80, 0
1, 103320, Note_on_c, 0, 57, 0
1, 103320, Note_on_c, 0, 61, 0
1, 103320, Note_on_c, 0, 80, 51
1, 103332, Note_on_c, 0, 81, 0
1, 103440, Tempo, 422535
1, 103440, Note_on_c, 0, 81, 53
1, 103440, Note_on_c, 0, 61, 40
1, 103440, Note_on_c, 0, 57, 34
1, 103452, Note_on_c, 0, 80, 0
1, 103560, Note_on_c, 0, 57, 0
1, 103560, Note_on_c, 0, 61, 0
1, 103560, Note_on_c, 0, 83, 55
1, 103572, Note_on_c, 0, 81, 0
1, 103680, Tempo, 416667
1, 103680, Note_on_c, 0, 85, 62
1, 103680, Note_on_c, 0, 49, 50
1, 103692, Note_on_c, 0, 83, 0
1, 103800, Note_on_c, 0, 49, 0
1, 103800, Note_on_c, 0, 84, 57
1, 103812, Note_on_c, 0, 85, 0
1, 103920, Tempo, 416667
1, 103920, Note_on_c, 0, 85, 60
1, 103920, Note_on_c, 0, 61, 49
1, 103920, Note_on_c, 0, 56, 41
1, 103932, Note_on_c, 0, 84, 0
1, 104040, Note_on_c, 0, 56, 0
1, 104040, Note_on_c, 0, 61, 0
1, 104040, Note_on_c, 0, 84, 54
1, 104052, Note_on_c, 0, 85, 0
1, 104160, Note_on_c, 0, 84, 0
1, 104160, Note_on_c, 0, 85, 62
1, 104160, Note_on_c, 0, 61, 48
1, 104160, Note_on_c, 0, 55, 40
1, 104280, Note_on_c, 0, 55, 0
1, 104280, Note_on_c, 0, 61, 0
1, 104280, Note_on_c, 0, 86, 56
1, 104292, Note_on_c, 0, 85, 0
1, 104400, Tempo, 425532
1, 104400, Note_on_c, 0, 85, 65
1, 104400, Note_on_c, 0, 61, 48
1, 104400, Note_on_c, 0, 54, 40
1, 104412, Note_on_c, 0, 86, 0
1, 104520, Note_on_c, 0, 54, 0
1, 104520, Note_on_c, 0, 61, 0
1, 104520, Note_on_c, 0, 82, 60
1, 104532, Note_on_c, 0, 85, 0
1, 104640, Tempo, 428571
1, 104640, Note_on_c, 0, 86, 69
1, 104640, Note_on_c, 0, 47, 59
1, 104652, Note_on_c, 0, 82, 0
1, 104760, Note_on_c, 0, 47, 0
1, 104760, Note_on_c, 0, 85, 63
1, 104772, Note_on_c, 0, 86, 0
1, 104880, Tempo, 419580
1, 104880, Note_on_c, 0, 86, 69
1, 104880, Note_on_c, 0, 59, 53
1, 104880, Note_on_c, 0, 54, 45
1, 104892, Note_on_c, 0, 85, 0
1, 105000, Note_on_c, 0, 54, 0
1, 105000, Note_on_c, 0, 59, 0
1, 105000, Note_on_c, 0, 85, 64
1, 105012, Note_on_c, 0, 86, 0
1, 105120, Note_on_c, 0, 86, 68
1, 105120, Note_on_c, 0, 59, 56
1, 105120, Note_on_c, 0, 54, 47
1, 105132, Note_on_c, 0, 85, 0
1, 105240, Note_on_c, 0, 54, 0
1, 105240, Note_on_c, 0, 59, 0
1, 105240, Note_on_c, 0, 85, 66
1, 105252, Note_on_c, 0, 86, 0
1, 105360, Tempo, 425532
1, 105360, Note_on_c, 0, 86, 72
1, 105360, Note_on_c, 0, 59, 54
1, 105360, Note_on_c, 0, 54, 45
1, 105372, Note_on_c, 0, 85, 0
1, 105480, Note_on_c, 0, 54, 0
1, 105480, Note_on_c, 0, 59, 0
1, 105480, Note_on_c, 0, 85, 68
1, 105492, Note_on_c, 0, 86, 0
1, 105600, Tempo, 425532
1, 105600, Note_on_c, 0, 86, 70
1, 105600, Note_on_c, 0, 47, 65
1, 105612, Note_on_c, 0, 85, 0
1, 105720, Note_on_c, 0, 47, 0
1, 105720, Note_on_c, 0, 85, 69
1, 105732, Note_on_c, 0, 86, 0
1, 105840, Tempo, 416667
1, 105840, Note_on_c, 0, 83, 67
1, 105840, Note_on_c, 0, 59, 54
1, 105840, Note_on_c, 0, 56, 45
1, 105852, Note_on_c, 0, 85, 0
1, 105960, Note_on_c, 0, 56, 0
1, 105960, Note_on_c, 0, 59, 0
1, 105960, Note_on_c, 0, 81, 66
1, 105972, Note_on_c, 0, 83, 0
1, 106080, Note_on_c, 0, 80, 64
1, 106080, Note_on_c, 0, 59, 60
1, 106080, Note_on_c, 0, 56, 51
1, 106092, Note_on_c, 0, 81, 0
1, 106200, Note_on_c, 0, 56, 0
1, 106200, Note_on_c, 0, 59, 0
1, 106200, Note_on_c, 0, 81, 61
1, 106212, Note_on_c, 0, 80, 0
1, 106320, Tempo, 428571
1, 106320, Note_on_c, 0, 83, 64
1, 106320, Note_on_c, 0, 59, 54
1, 106320, Note_on_c, 0, 56, 45
1, 106332, Note_on_c, 0, 81, 0
1, 106440, Note_on_c, 0, 56, 0
1, 106440, Note_on_c, 0, 59, 0
1, 106440, Note_on_c, 0, 80, 61
1, 106452, Note_on_c, 0, 83, 0
1, 106560, Tempo, 416667
1, 106560, Note_on_c, 0, 81, 57
1, 106560, Note_on_c, 0, 49, 58
1, 106572, Note_on_c, 0, 80, 0
1, 106680, Note_on_c, 0, 49, 0
1, 106680, Note_on_c, 0, 83, 49
1, 106692, Note_on_c, 0, 81, 0
1, 106800, Tempo, 419580
1, 106800, Note_on_c, 0, 85, 55
1, 106800, Note_on_c, 0, 57, 47
1, 106800, Note_on_c, 0, 54, 39
1, 106812, Note_on_c, 0, 83, 0
1, 106920, Note_on_c, 0, 54, 0
1, 106920, Note_on_c, 0, 57, 0
1, 106920, Note_on_c, 0, 78, 50
1, 106932, Note_on_c, 0, 85, 0
1, 107018, Tempo, 419580
1, 107040, Note_on_c, 0, 77, 53
1, 107040, Note_on_c, 0, 49, 55
1, 107052, Note_on_c, 0, 78, 0
1, 107058, Tempo, 422535
1, 107098, Tempo, 425532
1, 107138, Tempo, 428571
1, 107150, Tempo, 425532
1, 107160, Note_on_c, 0, 49, 0
1, 107160, Note_on_c, 0, 78, 47
1, 107172, Note_on_c, 0, 77, 0
1, 107210, Tempo, 428571
1, 107270, Tempo, 431655
1, 107280, Note_on_c, 0, 80, 54
1, 107280, Note_on_c, 0, 56, 41
1, 107280, Note_on_c, 0, 59, 49
1, 107292, Note_on_c, 0, 78, 0
1, 107330, Tempo, 434783
1, 107400, Tempo, 512821
1, 107400, Note_on_c, 0, 59, 0
1, 107400, Note_on_c, 0, 56, 0
1, 107400, Note_on_c, 0, 77, 47
1, 107412, Note_on_c, 0, 80, 0
1, 107520, Tempo, 495868
1, 107520, Note_on_c, 0, 78, 54
1, 107520, Note_on_c, 0, 57, 46
1, 107520, Note_on_c, 0, 54, 39
1, 107532, Note_on_c, 0, 77, 0
1, 107970, Note_on_c, 0, 78, 0
1, 107970, Note_on_c, 0, 57, 0
1, 107970, Note_on_c, 0, 54, 0
1, 108000, Tempo, 428571
1, 108000, Note_on_c, 0, 69, 73
1, 108000, Note_on_c, 0, 81, 84
1, 108120, Note_on_c, 0, 81, 0
1, 108120, Note_on_c, 0, 69, 0
1, 108240, Tempo, 431655
1, 108240, Note_on_c, 0, 71, 73
1, 108240, Note_on_c, 0, 83, 84
1, 108360, Note_on_c, 0, 83, 0
1, 108360, Note_on_c, 0, 71, 0
1, 108360, Note_on_c, 0, 45, 64
1, 108399, Control_c, 0, 64, 127
1, 108400, Note_on_c, 0, 45, 0
1, 108400, Note_on_c, 0, 49, 64
1, 108440, Note_on_c, 0, 49, 0
1, 108440, Note_on_c, 0, 52, 64
1, 108480, Tempo, 408163
1, 108480, Note_on_c, 0, 52, 0
1, 108480, Note_on_c, 0, 73, 78
1, 108480, Note_on_c, 0, 85, 90
1, 108480, Note_on_c, 0, 57, 73
1, 108600, Note_on_c, 0, 57, 0
1, 108720, Tempo, 422535
1, 108720, Note_on_c, 0, 57, 69
1, 108730, Control_c, 0, 64, 0
1, 108840, Note_on_c, 0, 57, 0
1, 108960, Tempo, 413793
1, 108960, Note_on_c, 0, 85, 0
1, 108960, Note_on_c, 0, 73, 0
1, 108960, Note_on_c, 0, 69, 73
1, 108960, Note_on_c, 0, 81, 84
1, 108960, Note_on_c, 0, 57, 69
1, 109080, Note_on_c, 0, 57, 0
1, 109080, Note_on_c, 0, 81, 0
1, 109080, Note_on_c, 0, 69, 0
1, 109200, Tempo, 422535
1, 109200, Note_on_c, 0, 71, 73
1, 109200, Note_on_c, 0, 83, 84
1, 109200, Note_on_c, 0, 57, 69
1, 109320, Note_on_c, 0, 57, 0
1, 109320, Note_on_c, 0, 83, 0
1, 109320, Note_on_c, 0, 71, 0
1, 109320, Note_on_c, 0, 45, 60
1, 109338, Control_c, 0, 64, 127
1, 109360, Note_on_c, 0, 45, 0
1, 109360, Note_on_c, 0, 49, 60
1, 109400, Note_on_c, 0, 49, 0
1, 109400, Note_on_c, 0, 52, 60
1, 109440, Tempo, 408163
1, 109440, Note_on_c, 0, 52, 0
1, 109440, Note_on_c, 0, 73, 79
1, 109440, Note_on_c, 0, 85, 91
1, 109440, Note_on_c, 0, 57, 72
1, 109560, Note_on_c, 0, 57, 0
1, 109560, Note_on_c, 0, 85, 0
1, 109560, Note_on_c, 0, 73, 0
1, 109680, Tempo, 410959
1, 109680, Note_on_c, 0, 71, 72
1, 109680, Note_on_c, 0, 83, 82
1, 109680, Note_on_c, 0, 57, 64
1, 109690, Control_c, 0, 64, 0
1, 109800, Note_on_c, 0, 57, 0
1, 109800, Note_on_c, 0, 83, 0
1, 109800, Note_on_c, 0, 71, 0
1, 109920, Tempo, 410959
1, 109920, Note_on_c, 0, 69, 77
1, 109920, Note_on_c, 0, 81, 89
1, 109920, Note_on_c, 0, 57, 65
1, 110040, Note_on_c, 0, 57, 0
1, 110040, Note_on_c, 0, 81, 0
1, 110040, Note_on_c, 0, 69, 0
1, 110160, Tempo, 447761
1, 110160, Note_on_c, 0, 68, 73
1, 110160, Note_on_c, 0, 80, 84
1, 110160, Note_on_c, 0, 57, 67
1, 110280, Note_on_c, 0, 57, 0
1, 110280, Note_on_c, 0, 80, 0
1, 110280, Note_on_c, 0, 68, 0
1, 110280, Note_on_c, 0, 38, 63
1, 110320, Note_on_c, 0, 38, 0
1, 110320, Note_on_c, 0, 42, 63
1, 110360, Note_on_c, 0, 42, 0
1, 110360, Note_on_c, 0, 45, 63
1, 110400, Tempo, 410959
1, 110400, Note_on_c, 0, 45, 0
1, 110400, Note_on_c, 0, 66, 80
1, 110400, Note_on_c, 0, 78, 92
1, 110400, Note_on_c, 0, 50, 73
1, 110400, Control_c, 0, 64, 127
1, 110520, Note_on_c, 0, 50, 0
1, 110520, Note_on_c, 0, 78, 0
1, 110520, Note_on_c, 0, 66, 0
1, 110640, Tempo, 419580
1, 110640, Note_on_c, 0, 68, 69
1, 110640, Note_on_c, 0, 80, 78
1, 110640, Note_on_c, 0, 50, 69
1, 110654, Control_c, 0, 64, 0
1, 110760, Note_on_c, 0, 50, 0
1, 110760, Note_on_c, 0, 80, 0
1, 110760, Note_on_c, 0, 68, 0
1, 110760, Note_on_c, 0, 39, 63
1, 110800, Note_on_c, 0, 39, 0
1, 110800, Note_on_c, 0, 42, 63
1, 110840, Note_on_c, 0, 42, 0
1, 110840, Note_on_c, 0, 45, 63
1, 110880, Tempo, 425532
1, 110880, Note_on_c, 0, 45, 0
1, 110880, Note_on_c, 0, 69, 75
1, 110880, Note_on_c, 0, 81, 86
1, 110880, Note_on_c, 0, 51, 73
1, 110917, Control_c, 0, 64, 127
1, 111000, Note_on_c, 0, 51, 0
1, 111000, Note_on_c, 0, 81, 0
1, 111000, Note_on_c, 0, 69, 0
1, 111120, Tempo, 447761
1, 111120, Note_on_c, 0, 71, 70
1, 111120, Note_on_c, 0, 83, 80
1, 111120, Note_on_c, 0, 51, 71
1, 111132, Control_c, 0, 64, 0
1, 111240, Note_on_c, 0, 51, 0
1, 111240, Note_on_c, 0, 83, 0
1, 111240, Note_on_c, 0, 71, 0
1, 111240, Note_on_c, 0, 40, 63
1, 111280, Note_on_c, 0, 40, 0
1, 111280, Note_on_c, 0, 44, 63
1, 111320, Note_on_c, 0, 44, 0
1, 111320, Note_on_c, 0, 47, 63
1, 111360, Tempo, 425532
1, 111360, Note_on_c, 0, 47, 0
1, 111360, Note_on_c, 0, 68, 78
1, 111360, Note_on_c, 0, 80, 90
1, 111360, Note_on_c, 0, 52, 73
1, 111360, Control_c, 0, 64, 127
1, 111600, Tempo, 454545
1, 111600, Note_on_c, 0, 52, 0
1, 111600, Note_on_c, 0, 80, 0
1, 111600, Note_on_c, 0, 68, 0
1, 111600, Note_on_c, 0, 64, 73
1, 111600, Note_on_c, 0, 76, 84
1, 111600, Note_on_c, 0, 52, 73
1, 111706, Control_c, 0, 64, 0
1, 111720, Note_on_c, 0, 52, 0
1, 111720, Note_on_c, 0, 76, 0
1, 111720, Note_on_c, 0, 64, 0
1, 111840, Tempo, 425532
1, 111840, Note_on_c, 0, 69, 73
1, 111840, Note_on_c, 0, 81, 84
1, 111960, Note_on_c, 0, 81, 0
1, 111960, Note_on_c, 0, 69, 0
1, 112080, Tempo, 419580
1, 112080, Note_on_c, 0, 71, 73
1, 112080, Note_on_c, 0, 83, 84
1, 112200, Note_on_c, 0, 83, 0
1, 112200, Note_on_c, 0, 71, 0
1, 112200, Note_on_c, 0, 45, 64
1, 112240, Note_on_c, 0, 45, 0
1, 112240, Note_on_c, 0, 49, 64
1, 112243, Control_c, 0, 64, 127
1, 112280, Note_on_c, 0, 49, 0
1, 112280, Note_on_c, 0, 52, 64
1, 112320, Tempo, 408163
1, 112320, Note_on_c, 0, 52, 0
1, 112320, Note_on_c, 0, 73, 78
1, 112320, Note_on_c, 0, 85, 90
1, 112320, Note_on_c, 0, 57, 73
1, 112440, Note_on_c, 0, 57, 0
1, 112560, Tempo, 419580
1, 112560, Note_on_c, 0, 57, 69
1, 112570, Control_c, 0, 64, 0
1, 112680, Note_on_c, 0, 57, 0
1, 112800, Tempo, 408163
1, 112800, Note_on_c, 0, 85, 0
1, 112800, Note_on_c, 0, 73, 0
1, 112800, Note_on_c, 0, 69, 73
1, 112800, Note_on_c, 0, 81, 84
1, 112800, Note_on_c, 0, 57, 69
1, 112920, Note_on_c, 0, 57, 0
1, 112920, Note_on_c, 0, 81, 0
1, 112920, Note_on_c, 0, 69, 0
1, 113040, Tempo, 422535
1, 113040, Note_on_c, 0, 71, 73
1, 113040, Note_on_c, 0, 83, 84
1, 113040, Note_on_c, 0, 57, 69
1, 113160, Note_on_c, 0, 57, 0
1, 113160, Note_on_c, 0, 83, 0
1, 113160, Note_on_c, 0, 71, 0
1, 113160, Note_on_c, 0, 45, 60
1, 113174, Control_c, 0, 64, 127
1, 113200, Note_on_c, 0, 45, 0
1, 113200, Note_on_c, 0, 49, 60
1, 113240, Note_on_c, 0, 49, 0
1, 113240, Note_on_c, 0, 52, 60
1, 113280, Tempo, 410959
1, 113280, Note_on_c, 0, 52, 0
1, 113280, Note_on_c, 0, 73, 79
1, 113280, Note_on_c, 0, 85, 91
1, 113280, Note_on_c, 0, 57, 72
1, 113400, Note_on_c, 0, 57, 0
1, 113400, Note_on_c, 0, 85, 0
1, 113400, Note_on_c, 0, 73, 0
1, 113520, Tempo, 413793
1, 113520, Note_on_c, 0, 71, 72
1, 113520, Note_on_c, 0, 83, 82
1, 113520, Note_on_c, 0, 57, 64
1, 113530, Control_c, 0, 64, 0
1, 113640, Note_on_c, 0, 57, 0
1, 113640, Note_on_c, 0, 83, 0
1, 113640, Note_on_c, 0, 71, 0
1, 113760, Tempo, 416667
1, 113760, Note_on_c, 0, 69, 77
1, 113760, Note_on_c, 0, 81, 89
1, 113760, Note_on_c, 0, 57, 65
1, 113880, Note_on_c, 0, 57, 0
1, 113880, Note_on_c, 0, 81, 0
1, 113880, Note_on_c, 0, 69, 0
1, 114000, Tempo, 434783
1, 114000, Note_on_c, 0, 68, 73
1, 114000, Note_on_c, 0, 80, 84
1, 114000, Note_on_c, 0, 57, 67
1, 114120, Note_on_c, 0, 57, 0
1, 114120, Note_on_c, 0, 80, 0
1, 114120, Note_on_c, 0, 68, 0
1, 114120, Note_on_c, 0, 38, 63
1, 114152, Control_c, 0, 64, 127
1, 114160, Note_on_c, 0, 38, 0
1, 114160, Note_on_c, 0, 42, 63
1, 114200, Note_on_c, 0, 42, 0
1, 114200, Note_on_c, 0, 45, 63
1, 114240, Tempo, 413793
1, 114240, Note_on_c, 0, 45, 0
1, 114240, Note_on_c, 0, 66, 80
1, 114240, Note_on_c, 0, 78, 92
1, 114240, Note_on_c, 0, 50, 73
1, 114360, Note_on_c, 0, 50, 0
1, 114360, Note_on_c, 0, 78, 0
1, 114360, Note_on_c, 0, 66, 0
1, 114480, Tempo, 434783
1, 114480, Note_on_c, 0, 71, 69
1, 114480, Note_on_c, 0, 83, 78
1, 114480, Note_on_c, 0, 50, 69
1, 114494, Control_c, 0, 64, 0
1, 114600, Note_on_c, 0, 50, 0
1, 114600, Note_on_c, 0, 83, 0
1, 114600, Note_on_c, 0, 71, 0
1, 114600, Note_on_c, 0, 40, 63
1, 114628, Control_c, 0, 64, 127
1, 114640, Note_on_c, 0, 40, 0
1, 114640, Note_on_c, 0, 44, 63
1, 114680, Note_on_c, 0, 44, 0
1, 114680, Note_on_c, 0, 47, 63
1, 114720, Tempo, 451128
1, 114720, Note_on_c, 0, 47, 0
1, 114720, Note_on_c, 0, 68, 75
1, 114720, Note_on_c, 0, 80, 86
1, 114720, Note_on_c, 0, 52, 73
1, 114840, Note_on_c, 0, 52, 0
1, 114840, Note_on_c, 0, 80, 0
1, 114840, Note_on_c, 0, 68, 0
1, 114960, Tempo, 465116
1, 114960, Note_on_c, 0, 64, 70
1, 114960, Note_on_c, 0, 76, 80
1, 114960, Note_on_c, 0, 52, 71
1, 114972, Control_c, 0, 64, 0
1, 115080, Note_on_c, 0, 52, 0
1, 115080, Note_on_c, 0, 76, 0
1, 115080, Note_on_c, 0, 64, 0
1, 115200, Tempo, 451128
1, 115200, Note_on_c, 0, 69, 78
1, 115200, Note_on_c, 0, 81, 90
1, 115200, Note_on_c, 0, 45, 73
1, 115200, Control_c, 0, 64, 127
1, 115546, Control_c, 0, 64, 0
1, 115650, Note_on_c, 0, 45, 0
1, 115650, Note_on_c, 0, 81, 0
1, 115650, Note_on_c, 0, 69, 0
1, 115680, Tempo, 419580
1, 115680, Note_on_c, 0, 69, 73
1, 115680, Note_on_c, 0, 81, 84
1, 115800, Note_on_c, 0, 81, 0
1, 115800, Note_on_c, 0, 69, 0
1, 115920, Tempo, 431655
1, 115920, Note_on_c, 0, 71, 73
1, 115920, Note_on_c, 0, 83, 84
1, 116040, Note_on_c, 0, 83, 0
1, 116040, Note_on_c, 0, 71, 0
1, 116040, Note_on_c, 0, 45, 64
1, 116076, Control_c, 0, 64, 127
1, 116080, Note_on_c, 0, 45, 0
1, 116080, Note_on_c, 0, 49, 64
1, 116120, Note_on_c, 0, 49, 0
1, 116120, Note_on_c, 0, 52, 64
1, 116160, Tempo, 408163
1, 116160, Note_on_c, 0, 52, 0
1, 116160, Note_on_c, 0, 73, 78
1, 116160, Note_on_c, 0, 85, 90
1, 116160, Note_on_c, 0, 57, 73
1, 116280, Note_on_c, 0, 57, 0
1, 116400, Tempo, 422535
1, 116400, Note_on_c, 0, 57, 69
1, 116410, Control_c, 0, 64, 0
1, 116520, Note_on_c, 0, 57, 0
1, 116640, Tempo, 413793
1, 116640, Note_on_c, 0, 85, 0
1, 116640, Note_on_c, 0, 73, 0
1, 116640, Note_on_c, 0, 69, 73
1, 116640, Note_on_c, 0, 81, 84
1, 116640, Note_on_c, 0, 57, 69
1, 116760, Note_on_c, 0, 57, 0
1, 116760, Note_on_c, 0, 81, 0
1, 116760, Note_on_c, 0, 69, 0
1, 116880, Tempo, 425532
1, 116880, Note_on_c, 0, 71, 73
1, 116880, Note_on_c, 0, 83, 84
1, 116880, Note_on_c, 0, 57, 69
1, 117000, Note_on_c, 0, 57, 0
1, 117000, Note_on_c, 0, 83, 0
1, 117000, Note_on_c, 0, 71, 0
1, 117000, Note_on_c, 0, 45, 60
1, 117014, Control_c, 0, 64, 127
1, 117040, Note_on_c, 0, 45, 0
1, 117040, Note_on_c, 0, 49, 60
1, 117080, Note_on_c, 0, 49, 0
1, 117080, Note_on_c, 0, 52, 60
1, 117120, Tempo, 408163
1, 117120, Note_on_c, 0, 52, 0
1, 117120, Note_on_c, 0, 73, 79
1, 117120, Note_on_c, 0, 85, 91
1, 117120, Note_on_c, 0, 57, 72
1, 117240, Note_on_c, 0, 57, 0
1, 117240, Note_on_c, 0, 85, 0
1, 117240, Note_on_c, 0, 73, 0
1, 117360, Tempo, 419580
1, 117360, Note_on_c, 0, 71, 72
1, 117360, Note_on_c, 0, 83, 82
1, 117360, Note_on_c, 0, 57, 64
1, 117370, Control_c, 0, 64, 0
1, 117480, Note_on_c, 0, 57, 0
1, 117480, Note_on_c, 0, 83, 0
1, 117480, Note_on_c, 0, 71, 0
1, 117600, Tempo, 410959
1, 117600, Note_on_c, 0, 69, 77
1, 117600, Note_on_c, 0, 81, 89
1, 117600, Note_on_c, 0, 57, 65
1, 117720, Note_on_c, 0, 57, 0
1, 117720, Note_on_c, 0, 81, 0
1, 117720, Note_on_c, 0, 69, 0
1, 117840, Tempo, 428571
1, 117840, Note_on_c, 0, 68, 73
1, 117840, Note_on_c, 0, 80, 84
1, 117840, Note_on_c, 0, 57, 67
1, 117960, Note_on_c, 0, 57, 0
1, 117960, Note_on_c, 0, 80, 0
1, 117960, Note_on_c, 0, 68, 0
1, 117960, Note_on_c, 0, 38, 63
1, 117992, Control_c, 0, 64, 127
1, 118000, Note_on_c, 0, 38, 0
1, 118000, Note_on_c, 0, 42, 63
1, 118040, Note_on_c, 0, 42, 0
1, 118040, Note_on_c, 0, 45, 63
1, 118080, Tempo, 410959
1, 118080, Note_on_c, 0, 45, 0
1, 118080, Note_on_c, 0, 66, 80
1, 118080, Note_on_c, 0, 78, 92
1, 118080, Note_on_c, 0, 50, 73
1, 118200, Note_on_c, 0, 50, 0
1, 118200, Note_on_c, 0, 78, 0
1, 118200, Note_on_c, 0, 66, 0
1, 118320, Tempo, 431655
1, 118320, Note_on_c, 0, 68, 69
1, 118320, Note_on_c, 0, 80, 78
1, 118320, Note_on_c, 0, 50, 69
1, 118334, Control_c, 0, 64, 0
1, 118440, Note_on_c, 0, 50, 0
1, 118440, Note_on_c, 0, 80, 0
1, 118440, Note_on_c, 0, 68, 0
1, 118440, Note_on_c, 0, 39, 63
1, 118480, Note_on_c, 0, 39, 0
1, 118480, Note_on_c, 0, 42, 63
1, 118520, Note_on_c, 0, 42, 0
1, 118520, Note_on_c, 0, 45, 63
1, 118560, Note_on_c, 0, 45, 0
1, 118560, Note_on_c, 0, 69, 75
1, 118560, Note_on_c, 0, 81, 86
1, 118560, Note_on_c, 0, 51, 73
1, 118597, Control_c, 0, 64, 127
1, 118680, Note_on_c, 0, 51, 0
1, 118680, Note_on_c, 0, 81, 0
1, 118680, Note_on_c, 0, 69, 0
1, 118800, Tempo, 447761
1, 118800, Note_on_c, 0, 71, 70
1, 118800, Note_on_c, 0, 83, 80
1, 118800, Note_on_c, 0, 51, 71
1, 118812, Control_c, 0, 64, 0
1, 118920, Note_on_c, 0, 51, 0
1, 118920, Note_on_c, 0, 83, 0
1, 118920, Note_on_c, 0, 71, 0
1, 118920, Note_on_c, 0, 40, 63
1, 118960, Note_on_c, 0, 40, 0
1, 118960, Note_on_c, 0, 44, 63
1, 119000, Note_on_c, 0, 44, 0
1, 119000, Note_on_c, 0, 47, 63
1, 119040, Tempo, 425532
1, 119040, Note_on_c, 0, 47, 0
1, 119040, Note_on_c, 0, 68, 78
1, 119040, Note_on_c, 0, 80, 90
1, 119040, Note_on_c, 0, 52, 73
1, 119040, Control_c, 0, 64, 127
1, 119280, Tempo, 454545
1, 119280, Note_on_c, 0, 52, 0
1, 119280, Note_on_c, 0, 80, 0
1, 119280, Note_on_c, 0, 68, 0
1, 119280, Note_on_c, 0, 64, 73
1, 119280, Note_on_c, 0, 76, 84
1, 119280, Note_on_c, 0, 52, 73
1, 119386, Control_c, 0, 64, 0
1, 119400, Note_on_c, 0, 52, 0
1, 119400, Note_on_c, 0, 76, 0
1, 119400, Note_on_c, 0, 64, 0
1, 119520, Tempo, 416667
1, 119520, Note_on_c, 0, 69, 73
1, 119520, Note_on_c, 0, 81, 84
1, 119640, Note_on_c, 0, 81, 0
1, 119640, Note_on_c, 0, 69, 0
1, 119760, Tempo, 419580
1, 119760, Note_on_c, 0, 71, 73
1, 119760, Note_on_c, 0, 83, 84
1, 119880, Note_on_c, 0, 83, 0
1, 119880, Note_on_c, 0, 71, 0
1, 119880, Note_on_c, 0, 45, 64
1, 119905, Control_c, 0, 64, 127
1, 119920, Note_on_c, 0, 45, 0
1, 119920, Note_on_c, 0, 49, 64
1, 119960, Note_on_c, 0, 49, 0
1, 119960, Note_on_c, 0, 52, 64
1, 120000, Tempo, 408163
1, 120000, Note_on_c, 0, 52, 0
1, 120000, Note_on_c, 0, 73, 78
1, 120000, Note_on_c, 0, 85, 90
1, 120000, Note_on_c, 0, 57, 73
1, 120120, Note_on_c, 0, 57, 0
1, 120240, Tempo, 419580
1, 120240, Note_on_c, 0, 57, 69
1, 120250, Control_c, 0, 64, 0
1, 120360, Note_on_c, 0, 57, 0
1, 120480, Tempo, 408163
1, 120480, Note_on_c, 0, 85, 0
1, 120480, Note_on_c, 0, 73, 0
1, 120480, Note_on_c, 0, 69, 73
1, 120480, Note_on_c, 0, 81, 84
1, 120480, Note_on_c, 0, 57, 69
1, 120600, Note_on_c, 0, 57, 0
1, 120600, Note_on_c, 0, 81, 0
1, 120600, Note_on_c, 0, 69, 0
1, 120720, Tempo, 431655
1, 120720, Note_on_c, 0, 71, 73
1, 120720, Note_on_c, 0, 83, 84
1, 120720, Note_on_c, 0, 57, 69
1, 120840, Note_on_c, 0, 57, 0
1, 120840, Note_on_c, 0, 83, 0
1, 120840, Note_on_c, 0, 71, 0
1, 120840, Note_on_c, 0, 45, 60
1, 120861, Control_c, 0, 64, 127
1, 120880, Note_on_c, 0, 45, 0
1, 120880, Note_on_c, 0, 49, 60
1, 120920, Note_on_c, 0, 49, 0
1, 120920, Note_on_c, 0, 52, 60
1, 120960, Tempo, 410959
1, 120960, Note_on_c, 0, 52, 0
1, 120960, Note_on_c, 0, 73, 79
1, 120960, Note_on_c, 0, 85, 91
1, 120960, Note_on_c, 0, 57, 72
1, 121080, Note_on_c, 0, 57, 0
1, 121080, Note_on_c, 0, 85, 0
1, 121080, Note_on_c, 0, 73, 0
1, 121200, Tempo, 413793
1, 121200, Note_on_c, 0, 71, 72
1, 121200, Note_on_c, 0, 83, 82
1, 121200, Note_on_c, 0, 57, 64
1, 121210, Control_c, 0, 64, 0
1, 121320, Note_on_c, 0, 57, 0
1, 121320, Note_on_c, 0, 83, 0
1, 121320, Note_on_c, 0, 71, 0
1, 121440, Tempo, 416667
1, 121440, Note_on_c, 0, 69, 77
1, 121440, Note_on_c, 0, 81, 89
1, 121440, Note_on_c, 0, 57, 65
1, 121560, Note_on_c, 0, 57, 0
1, 121560, Note_on_c, 0, 81, 0
1, 121560, Note_on_c, 0, 69, 0
1, 121680, Tempo, 434783
1, 121680, Note_on_c, 0, 68, 73
1, 121680, Note_on_c, 0, 80, 84
1, 121680, Note_on_c, 0, 57, 67
1, 121800, Note_on_c, 0, 57, 0
1, 121800, Note_on_c, 0, 80, 0
1, 121800, Note_on_c, 0, 68, 0
1, 121800, Note_on_c, 0, 38, 63
1, 121840, Note_on_c, 0, 38, 0
1, 121840, Note_on_c, 0, 42, 63
1, 121843, Control_c, 0, 64, 127
1, 121880, Note_on_c, 0, 42, 0
1, 121880, Note_on_c, 0, 45, 63
1, 121920, Tempo, 413793
1, 121920, Note_on_c, 0, 45, 0
1, 121920, Note_on_c, 0, 66, 80
1, 121920, Note_on_c, 0, 78, 92
1, 121920, Note_on_c, 0, 50, 73
1, 122040, Note_on_c, 0, 50, 0
1, 122040, Note_on_c, 0, 78, 0
1, 122040, Note_on_c, 0, 66, 0
1, 122160, Tempo, 454545
1, 122160, Note_on_c, 0, 71, 69
1, 122160, Note_on_c, 0, 83, 78
1, 122160, Note_on_c, 0, 50, 69
1, 122174, Control_c, 0, 64, 0
1, 122280, Note_on_c, 0, 50, 0
1, 122280, Note_on_c, 0, 83, 0
1, 122280, Note_on_c, 0, 71, 0
1, 122280, Note_on_c, 0, 40, 63
1, 122301, Control_c, 0, 64, 127
1, 122320, Note_on_c, 0, 40, 0
1, 122320, Note_on_c, 0, 44, 63
1, 122360, Note_on_c, 0, 44, 0
1, 122360, Note_on_c, 0, 47, 63
1, 122400, Tempo, 451128
1, 122400, Note_on_c, 0, 47, 0
1, 122400, Note_on_c, 0, 68, 75
1, 122400, Note_on_c, 0, 80, 86
1, 122400, Note_on_c, 0, 52, 73
1, 122520, Note_on_c, 0, 52, 0
1, 122520, Note_on_c, 0, 80, 0
1, 122520, Note_on_c, 0, 68, 0
1, 122640, Tempo, 465116
1, 122640, Note_on_c, 0, 64, 70
1, 122640, Note_on_c, 0, 76, 80
1, 122640, Note_on_c, 0, 52, 71
1, 122652, Control_c, 0, 64, 0
1, 122760, Note_on_c, 0, 52, 0
1, 122760, Note_on_c, 0, 76, 0
1, 122760, Note_on_c, 0, 64, 0
1, 122880, Key_signature, 0, "major"
1, 122880, Tempo, 594059
1, 122880, Note_on_c, 0, 69, 78
1, 122880, Note_on_c, 0, 81, 90
1, 122880, Note_on_c, 0, 45, 73
1, 122880, Control_c, 0, 64, 127
1, 123226, Control_c, 0, 64, 0
1, 123330, Note_on_c, 0, 45, 0
1, 123330, Note_on_c, 0, 81, 0
1, 123330, Note_on_c, 0, 69, 0
1, 123360, Tempo, 397351
1, 123360, Note_on_c, 0, 71, 66
1, 123480, Note_on_c, 0, 71, 0
1, 123480, Note_on_c, 0, 69, 64
1, 123600, Note_on_c, 0, 69, 0
1, 123600, Note_on_c, 0, 68, 64
1, 123720, Tempo, 451128
1, 123720, Note_on_c, 0, 68, 0
1, 123720, Note_on_c, 0, 69, 64
1, 123840, Tempo, 397351
1, 123840, Note_on_c, 0, 69, 0
1, 123840, Note_on_c, 0, 72, 71
1, 123840, Note_on_c, 0, 57, 57
1, 123925, Control_c, 0, 64, 127
1, 123960, Note_on_c, 0, 57, 0
1, 123960, Note_on_c, 0, 72, 0
1, 124080, Note_on_c, 0, 64, 52
1, 124080, Note_on_c, 0, 60, 43
1, 124090, Control_c, 0, 64, 0
1, 124200, Tempo, 451128
1, 124200, Note_on_c, 0, 60, 0
1, 124200, Note_on_c, 0, 64, 0
1, 124320, Tempo, 400000
1, 124320, Note_on_c, 0, 74, 66
1, 124320, Note_on_c, 0, 60, 43
1, 124320, Note_on_c, 0, 64, 52
1, 124419, Control_c, 0, 64, 127
1, 124440, Note_on_c, 0, 64, 0
1, 124440, Note_on_c, 0, 60, 0
1, 124440, Note_on_c, 0, 74, 0
1, 124440, Note_on_c, 0, 72, 63
1, 124560, Note_on_c, 0, 72, 0
1, 124560, Note_on_c, 0, 71, 63
1, 124560, Note_on_c, 0, 60, 42
1, 124560, Note_on_c, 0, 64, 51
1, 124680, Tempo, 454545
1, 124680, Note_on_c, 0, 64, 0
1, 124680, Note_on_c, 0, 60, 0
1, 124680, Note_on_c, 0, 71, 0
1, 124680, Note_on_c, 0, 72, 63
1, 124800, Tempo, 397351
1, 124800, Note_on_c, 0, 72, 0
1, 124800, Note_on_c, 0, 76, 72
1, 124800, Note_on_c, 0, 57, 57
1, 124800, Control_c, 0, 64, 0
1, 124875, Control_c, 0, 64, 127
1, 124920, Note_on_c, 0, 57, 0
1, 124920, Note_on_c, 0, 76, 0
1, 125040, Note_on_c, 0, 64, 52
1, 125040, Note_on_c, 0, 60, 43
1, 125050, Control_c, 0, 64, 0
1, 125160, Tempo, 441176
1, 125160, Note_on_c, 0, 60, 0
1, 125160, Note_on_c, 0, 64, 0
1, 125280, Tempo, 397351
1, 125280, Note_on_c, 0, 77, 66
1, 125280, Note_on_c, 0, 64, 52
1, 125280, Note_on_c, 0, 60, 43
1, 125349, Control_c, 0, 64, 127
1, 125400, Note_on_c, 0, 60, 0
1, 125400, Note_on_c, 0, 64, 0
1, 125400, Note_on_c, 0, 77, 0
1, 125400, Note_on_c, 0, 76, 63
1, 125520, Note_on_c, 0, 76, 0
1, 125520, Note_on_c, 0, 75, 63
1, 125520, Note_on_c, 0, 64, 52
1, 125520, Note_on_c, 0, 60, 43
1, 125640, Tempo, 416667
1, 125640, Note_on_c, 0, 60, 0
1, 125640, Note_on_c, 0, 64, 0
1, 125640, Note_on_c, 0, 75, 0
1, 125640, Note_on_c, 0, 76, 63
1, 125760, Tempo, 397351
1, 125760, Note_on_c, 0, 76, 0
1, 125760, Note_on_c, 0, 83, 70
1, 125760, Note_on_c, 0, 57, 57
1, 125760, Control_c, 0, 64, 0
1, 125852, Control_c, 0, 64, 127
1, 125880, Note_on_c, 0, 57, 0
1, 125880, Note_on_c, 0, 83, 0
1, 125880, Note_on_c, 0, 81, 64
1, 126000, Note_on_c, 0, 81, 0
1, 126000, Note_on_c, 0, 80, 64
1, 126000, Note_on_c, 0, 64, 50
1, 126000, Note_on_c, 0, 60, 42
1, 126120, Note_on_c, 0, 60, 0
1, 126120, Note_on_c, 0, 64, 0
1, 126120, Note_on_c, 0, 80, 0
1, 126120, Note_on_c, 0, 81, 64
1, 126240, Tempo, 405405
1, 126240, Note_on_c, 0, 81, 0
1, 126240, Note_on_c, 0, 83, 69
1, 126240, Note_on_c, 0, 57, 57
1, 126240, Control_c, 0, 64, 0
1, 126297, Control_c, 0, 64, 127
1, 126360, Note_on_c, 0, 57, 0
1, 126360, Note_on_c, 0, 83, 0
1, 126360, Note_on_c, 0, 81, 64
1, 126480, Note_on_c, 0, 81, 0
1, 126480, Note_on_c, 0, 80, 64
1, 126480, Note_on_c, 0, 64, 52
1, 126480, Note_on_c, 0, 60, 43
1, 126600, Tempo, 458015
1, 126600, Note_on_c, 0, 60, 0
1, 126600, Note_on_c, 0, 64, 0
1, 126600, Note_on_c, 0, 80, 0
1, 126600, Note_on_c, 0, 81, 64
1, 126720, Tempo, 408163
1, 126720, Note_on_c, 0, 81, 0
1, 126720, Note_on_c, 0, 84, 72
1, 126720, Note_on_c, 0, 57, 57
1, 126720, Control_c, 0, 64, 0
1, 126770, Control_c, 0, 64, 127
1, 126840, Note_on_c, 0, 57, 0
1, 126960, Tempo, 425532
1, 126960, Note_on_c, 0, 64, 50
1, 126960, Note_on_c, 0, 60, 42
1, 126970, Control_c, 0, 64, 0
1, 127080, Tempo, 465116
1, 127080, Note_on_c, 0, 60, 0
1, 127080, Note_on_c, 0, 64, 0
1, 127200, Tempo, 397351
1, 127200, Note_on_c, 0, 84, 0
1, 127200, Note_on_c, 0, 81, 68
1, 127200, Note_on_c, 0, 64, 50
1, 127200, Note_on_c, 0, 60, 42
1, 127320, Note_on_c, 0, 60, 0
1, 127320, Note_on_c, 0, 64, 0
1, 127320, Note_on_c, 0, 81, 0
1, 127440, Tempo, 428571
1, 127440, Note_on_c, 0, 84, 65
1, 127440, Note_on_c, 0, 64, 50
1, 127440, Note_on_c, 0, 60, 42
1, 127560, Tempo, 582524
1, 127560, Note_on_c, 0, 60, 0
1, 127560, Note_on_c, 0, 64, 0
1, 127560, Note_on_c, 0, 84, 0
1, 127620, Tempo, 357143
1, 127620, Note_on_c, 0, 79, 63
1, 127650, Note_on_c, 0, 79, 0
1, 127650, Note_on_c, 0, 81, 63
1, 127680, Tempo, 405405
1, 127680, Note_on_c, 0, 81, 0
1, 127680, Note_on_c, 0, 83, 80
1, 127680, Note_on_c, 0, 52, 65
1, 127800, Note_on_c, 0, 52, 0
1, 127800, Note_on_c, 0, 83, 0
1, 127920, Note_on_c, 0, 78, 54
1, 127920, Note_on_c, 0, 81, 64
1, 127920, Note_on_c, 0, 64, 53
1, 127920, Note_on_c, 0, 59, 44
1, 128040, Note_on_c, 0, 59, 0
1, 128040, Note_on_c, 0, 78, 0
1, 128040, Note_on_c, 0, 81, 0
1, 128040, Note_on_c, 0, 64, 0
1, 128160, Tempo, 397351
1, 128160, Note_on_c, 0, 76, 58
1, 128160, Note_on_c, 0, 79, 69
1, 128160, Note_on_c, 0, 64, 53
1, 128160, Note_on_c, 0, 59, 44
1, 128280, Note_on_c, 0, 59, 0
1, 128280, Note_on_c, 0, 76, 0
1, 128280, Note_on_c, 0, 79, 0
1, 128280, Note_on_c, 0, 64, 0
1, 128400, Tempo, 428571
1, 128400, Note_on_c, 0, 78, 54
1, 128400, Note_on_c, 0, 81, 64
1, 128400, Note_on_c, 0, 64, 53
1, 128400, Note_on_c, 0, 59, 44
1, 128520, Tempo, 571429
1, 128520, Note_on_c, 0, 59, 0
1, 128520, Note_on_c, 0, 78, 0
1, 128520, Note_on_c, 0, 81, 0
1, 128520, Note_on_c, 0, 64, 0
1, 128580, Tempo, 359281
1, 128580, Note_on_c, 0, 79, 65
1, 128610, Note_on_c, 0, 79, 0
1, 128610, Note_on_c, 0, 81, 65
1, 128640, Tempo, 405405
1, 128640, Note_on_c, 0, 81, 0
1, 128640, Note_on_c, 0, 83, 82
1, 128640, Note_on_c, 0, 52, 66
1, 128760, Note_on_c, 0, 52, 0
1, 128760, Note_on_c, 0, 83, 0
1, 128880, Note_on_c, 0, 78, 56
1, 128880, Note_on_c, 0, 81, 66
1, 128880, Note_on_c, 0, 64, 52
1, 128880, Note_on_c, 0, 59, 43
1, 129000, Note_on_c, 0, 59, 0
1, 129000, Note_on_c, 0, 78, 0
1, 129000, Note_on_c, 0, 81, 0
1, 129000, Note_on_c, 0, 64, 0
1, 129120, Tempo, 397351
1, 129120, Note_on_c, 0, 76, 58
1, 129120, Note_on_c, 0, 79, 69
1, 129120, Note_on_c, 0, 64, 52
1, 129120, Note_on_c, 0, 59, 43
1, 129240, Note_on_c, 0, 59, 0
1, 129240, Note_on_c, 0, 76, 0
1, 129240, Note_on_c, 0, 79, 0
1, 129240, Note_on_c, 0, 64, 0
1, 129360, Tempo, 431655
1, 129360, Note_on_c, 0, 78, 55
1, 129360, Note_on_c, 0, 81, 65
1, 129360, Note_on_c, 0, 64, 52
1, 129360, Note_on_c, 0, 59, 43
1, 129480, Tempo, 550459
1, 129480, Note_on_c, 0, 59, 0
1, 129480, Note_on_c, 0, 78, 0
1, 129480, Note_on_c, 0, 81, 0
1, 129480, Note_on_c, 0, 64, 0
1, 129540, Tempo, 355030
1, 129540, Note_on_c, 0, 79, 64
1, 129570, Note_on_c, 0, 79, 0
1, 129570, Note_on_c, 0, 81, 64
1, 129600, Tempo, 402685
1, 129600, Note_on_c, 0, 83, 79
1, 129600, Note_on_c, 0, 52, 67
1, 129630, Note_on_c, 0, 81, 0
1, 129720, Note_on_c, 0, 52, 0
1, 129720, Note_on_c, 0, 83, 0
1, 129840, Note_on_c, 0, 78, 57
1, 129840, Note_on_c, 0, 81, 68
1, 129840, Note_on_c, 0, 64, 52
1, 129840, Note_on_c, 0, 59, 43
1, 129960, Note_on_c, 0, 59, 0
1, 129960, Note_on_c, 0, 78, 0
1, 129960, Note_on_c, 0, 81, 0
1, 129960, Note_on_c, 0, 64, 0
1, 130080, Tempo, 437956
1, 130080, Note_on_c, 0, 76, 58
1, 130080, Note_on_c, 0, 79, 69
1, 130080, Note_on_c, 0, 47, 52
1, 130200, Note_on_c, 0, 47, 0
1, 130200, Note_on_c, 0, 79, 0
1, 130200, Note_on_c, 0, 76, 0
1, 130320, Tempo, 465116
1, 130320, Note_on_c, 0, 75, 56
1, 130320, Note_on_c, 0, 78, 66
1, 130320, Note_on_c, 0, 59, 52
1, 130440, Note_on_c, 0, 59, 0
1, 130440, Note_on_c, 0, 78, 0
1, 130440, Note_on_c, 0, 75, 0
1, 130560, Tempo, 487805
1, 130560, Note_on_c, 0, 76, 69
1, 130560, Note_on_c, 0, 52, 57
1, 131010, Note_on_c, 0, 52, 0
1, 131010, Note_on_c, 0, 76, 0
1, 131040, Tempo, 397351
1, 131040, Note_on_c, 0, 71, 66
1, 131160, Note_on_c, 0, 71, 0
1, 131160, Note_on_c, 0, 69, 64
1, 131280, Note_on_c, 0, 69, 0
1, 131280, Note_on_c, 0, 68, 64
1, 131400, Tempo, 451128
1, 131400, Note_on_c, 0, 68, 0
1, 131400, Note_on_c, 0, 69, 64
1, 131520, Tempo, 397351
1, 131520, Note_on_c, 0, 69, 0
1, 131520, Note_on_c, 0, 72, 71
1, 131520, Note_on_c, 0, 57, 57
1, 131605, Control_c, 0, 64, 127
1, 131640, Note_on_c, 0, 57, 0
1, 131640, Note_on_c, 0, 72, 0
1, 131760, Note_on_c, 0, 64, 52
1, 131760, Note_on_c, 0, 60, 43
1, 131770, Control_c, 0, 64, 0
1, 131880, Tempo, 451128
1, 131880, Note_on_c, 0, 60, 0
1, 131880, Note_on_c, 0, 64, 0
1, 132000, Tempo, 400000
1, 132000, Note_on_c, 0, 74, 66
1, 132000, Note_on_c, 0, 60, 43
1, 132000, Note_on_c, 0, 64, 52
1, 132099, Control_c, 0, 64, 127
1, 132120, Note_on_c, 0, 64, 0
1, 132120, Note_on_c, 0, 60, 0
1, 132120, Note_on_c, 0, 74, 0
1, 132120, Note_on_c, 0, 72, 63
1, 132240, Note_on_c, 0, 72, 0
1, 132240, Note_on_c, 0, 71, 63
1, 132240, Note_on_c, 0, 60, 42
1, 132240, Note_on_c, 0, 64, 51
1, 132360, Tempo, 454545
1, 132360, Note_on_c, 0, 64, 0
1, 132360, Note_on_c, 0, 60, 0
1, 132360, Note_on_c, 0, 71, 0
1, 132360, Note_on_c, 0, 72, 63
1, 132480, Tempo, 397351
1, 132480, Note_on_c, 0, 72, 0
1, 132480, Note_on_c, 0, 76, 72
1, 132480, Note_on_c, 0, 57, 57
1, 132480, Control_c, 0, 64, 0
1, 132555, Control_c, 0, 64, 127
1, 132600, Note_on_c, 0, 57, 0
1, 132600, Note_on_c, 0, 76, 0
1, 132720, Note_on_c, 0, 64, 52
1, 132720, Note_on_c, 0, 60, 43
1, 132730, Control_c, 0, 64, 0
1, 132840, Tempo, 441176
1, 132840, Note_on_c, 0, 60, 0
1, 132840, Note_on_c, 0, 64, 0
1, 132960, Tempo, 397351
1, 132960, Note_on_c, 0, 77, 66
1, 132960, Note_on_c, 0, 64, 52
1, 132960, Note_on_c, 0, 60, 43
1, 133029, Control_c, 0, 64, 127
1, 133080, Note_on_c, 0, 60, 0
1, 133080, Note_on_c, 0, 64, 0
1, 133080, Note_on_c, 0, 77, 0
1, 133080, Note_on_c, 0, 76, 63
1, 133200, Note_on_c, 0, 76, 0
1, 133200, Note_on_c, 0, 75, 63
1, 133200, Note_on_c, 0, 64, 52
1, 133200, Note_on_c, 0, 60, 43
1, 133320, Tempo, 416667
1, 133320, Note_on_c, 0, 60, 0
1, 133320, Note_on_c, 0, 64, 0
1, 133320, Note_on_c, 0, 75, 0
1, 133320, Note_on_c, 0, 76, 63
1, 133440, Tempo, 397351
1, 133440, Note_on_c, 0, 76, 0
1, 133440, Note_on_c, 0, 83, 70
1, 133440, Note_on_c, 0, 57, 57
1, 133440, Control_c, 0, 64, 0
1, 133532, Control_c, 0, 64, 127
1, 133560, Note_on_c, 0, 57, 0
1, 133560, Note_on_c, 0, 83, 0
1, 133560, Note_on_c, 0, 81, 64
1, 133680, Note_on_c, 0, 81, 0
1, 133680, Note_on_c, 0, 80, 64
1, 133680, Note_on_c, 0, 64, 50
1, 133680, Note_on_c, 0, 60, 42
1, 133800, Note_on_c, 0, 60, 0
1, 133800, Note_on_c, 0, 64, 0
1, 133800, Note_on_c, 0, 80, 0
1, 133800, Note_on_c, 0, 81, 64
1, 133920, Tempo, 405405
1, 133920, Note_on_c, 0, 81, 0
1, 133920, Note_on_c, 0, 83, 69
1, 133920, Note_on_c, 0, 57, 57
1, 133920, Control_c, 0, 64, 0
1, 133977, Control_c, 0, 64, 127
1, 134040, Note_on_c, 0, 57, 0
1, 134040, Note_on_c, 0, 83, 0
1, 134040, Note_on_c, 0, 81, 64
1, 134160, Note_on_c, 0, 81, 0
1, 134160, Note_on_c, 0, 80, 64
1, 134160, Note_on_c, 0, 64, 52
1, 134160, Note_on_c, 0, 60, 43
1, 134280, Tempo, 458015
1, 134280, Note_on_c, 0, 60, 0
1, 134280, Note_on_c, 0, 64, 0
1, 134280, Note_on_c, 0, 80, 0
1, 134280, Note_on_c, 0, 81, 64
1, 134400, Tempo, 408163
1, 134400, Note_on_c, 0, 81, 0
1, 134400, Note_on_c, 0, 84, 72
1, 134400, Note_on_c, 0, 57, 57
1, 134400, Control_c, 0, 64, 0
1, 134450, Control_c, 0, 64, 127
1, 134520, Note_on_c, 0, 57, 0
1, 134640, Tempo, 425532
1, 134640, Note_on_c, 0, 64, 50
1, 134640, Note_on_c, 0, 60, 42
1, 134650, Control_c, 0, 64, 0
1, 134760, Tempo, 465116
1, 134760, Note_on_c, 0, 60, 0
1, 134760, Note_on_c, 0, 64, 0
1, 134880, Tempo, 397351
1, 134880, Note_on_c, 0, 84, 0
1, 134880, Note_on_c, 0, 81, 68
1, 134880, Note_on_c, 0, 64, 50
1, 134880, Note_on_c, 0, 60, 42
1, 135000, Note_on_c, 0, 60, 0
1, 135000, Note_on_c, 0, 64, 0
1, 135000, Note_on_c, 0, 81, 0
1, 135120, Tempo, 428571
1, 135120, Note_on_c, 0, 84, 65
1, 135120, Note_on_c, 0, 64, 50
1, 135120, Note_on_c, 0, 60, 42
1, 135240, Tempo, 582524
1, 135240, Note_on_c, 0, 60, 0
1, 135240, Note_on_c, 0, 64, 0
1, 135240, Note_on_c, 0, 84, 0
1, 135300, Tempo, 357143
1, 135300, Note_on_c, 0, 79, 63
1, 135330, Note_on_c, 0, 79, 0
1, 135330, Note_on_c, 0, 81, 63
1, 135360, Tempo, 405405
1, 135360, Note_on_c, 0, 81, 0
1, 135360, Note_on_c, 0, 83, 80
1, 135360, Note_on_c, 0, 52, 65
1, 135480, Note_on_c, 0, 52, 0
1, 135480, Note_on_c, 0, 83, 0
1, 135600, Note_on_c, 0, 78, 54
1, 135600, Note_on_c, 0, 81, 64
1, 135600, Note_on_c, 0, 64, 53
1, 135600, Note_on_c, 0, 59, 44
1, 135720, Note_on_c, 0, 59, 0
1, 135720, Note_on_c, 0, 78, 0
1, 135720, Note_on_c, 0, 81, 0
1, 135720, Note_on_c, 0, 64, 0
1, 135840, Tempo, 397351
1, 135840, Note_on_c, 0, 76, 58
1, 135840, Note_on_c, 0, 79, 69
1, 135840, Note_on_c, 0, 64, 53
1, 135840, Note_on_c, 0, 59, 44
1, 135960, Note_on_c, 0, 59, 0
1, 135960, Note_on_c, 0, 76, 0
1, 135960, Note_on_c, 0, 79, 0
1, 135960, Note_on_c, 0, 64, 0
1, 136080, Tempo, 428571
1, 136080, Note_on_c, 0, 78, 54
1, 136080, Note_on_c, 0, 81, 64
1, 136080, Note_on_c, 0, 64, 53
1, 136080, Note_on_c, 0, 59, 44
1, 136200, Tempo, 571429
1, 136200, Note_on_c, 0, 59, 0
1, 136200, Note_on_c, 0, 78, 0
1, 136200, Note_on_c, 0, 81, 0
1, 136200, Note_on_c, 0, 64, 0
1, 136260, Tempo, 359281
1, 136260, Note_on_c, 0, 79, 65
1, 136290, Note_on_c, 0, 79, 0
1, 136290, Note_on_c, 0, 81, 65
1, 136320, Tempo, 405405
1, 136320, Note_on_c, 0, 81, 0
1, 136320, Note_on_c, 0, 83, 82
1, 136320, Note_on_c, 0, 52, 66
1, 136440, Note_on_c, 0, 52, 0
1, 136440, Note_on_c, 0, 83, 0
1, 136560, Note_on_c, 0, 78, 56
1, 136560, Note_on_c, 0, 81, 66
1, 136560, Note_on_c, 0, 64, 52
1, 136560, Note_on_c, 0, 59, 43
1, 136680, Note_on_c, 0, 59, 0
1, 136680, Note_on_c, 0, 78, 0
1, 136680, Note_on_c, 0, 81, 0
1, 136680, Note_on_c, 0, 64, 0
1, 136800, Tempo, 397351
1, 136800, Note_on_c, 0, 76, 58
1, 136800, Note_on_c, 0, 79, 69
1, 136800, Note_on_c, 0, 64, 52
1, 136800, Note_on_c, 0, 59, 43
1, 136920, Note_on_c, 0, 59, 0
1, 136920, Note_on_c, 0, 76, 0
1, 136920, Note_on_c, 0, 79, 0
1, 136920, Note_on_c, 0, 64, 0
1, 137040, Tempo, 431655
1, 137040, Note_on_c, 0, 78, 55
1, 137040, Note_on_c, 0, 81, 65
1, 137040, Note_on_c, 0, 64, 52
1, 137040, Note_on_c, 0, 59, 43
1, 137160, Tempo, 550459
1, 137160, Note_on_c, 0, 59, 0
1, 137160, Note_on_c, 0, 78, 0
1, 137160, Note_on_c, 0, 81, 0
1, 137160, Note_on_c, 0, 64, 0
1, 137220, Tempo, 355030
1, 137220, Note_on_c, 0, 79, 64
1, 137250, Note_on_c, 0, 79, 0
1, 137250, Note_on_c, 0, 81, 64
1, 137280, Tempo, 400000
1, 137280, Note_on_c, 0, 83, 79
1, 137280, Note_on_c, 0, 52, 67
1, 137310, Note_on_c, 0, 81, 0
1, 137400, Note_on_c, 0, 52, 0
1, 137400, Note_on_c, 0, 83, 0
1, 137520, Note_on_c, 0, 78, 57
1, 137520, Note_on_c, 0, 81, 68
1, 137520, Note_on_c, 0, 64, 52
1, 137520, Note_on_c, 0, 59, 43
1, 137640, Note_on_c, 0, 59, 0
1, 137640, Note_on_c, 0, 78, 0
1, 137640, Note_on_c, 0, 81, 0
1, 137640, Note_on_c, 0, 64, 0
1, 137760, Tempo, 434783
1, 137760, Note_on_c, 0, 76, 58
1, 137760, Note_on_c, 0, 79, 69
1, 137760, Note_on_c, 0, 47, 52
1, 137880, Note_on_c, 0, 47, 0
1, 137880, Note_on_c, 0, 79, 0
1, 137880, Note_on_c, 0, 76, 0
1, 138000, Tempo, 491803
1, 138000, Note_on_c, 0, 75, 56
1, 138000, Note_on_c, 0, 78, 66
1, 138000, Note_on_c, 0, 59, 52
1, 138120, Note_on_c, 0, 59, 0
1, 138120, Note_on_c, 0, 78, 0
1, 138120, Note_on_c, 0, 75, 0
1, 138240, Tempo, 461538
1, 138240, Note_on_c, 0, 76, 69
1, 138240, Note_on_c, 0, 52, 57
1, 138690, Note_on_c, 0, 52, 0
1, 138690, Note_on_c, 0, 76, 0
1, 138720, Tempo, 434783
1, 138720, Note_on_c, 0, 72, 56
1, 138720, Note_on_c, 0, 76, 56
1, 138840, Note_on_c, 0, 76, 0
1, 138840, Note_on_c, 0, 72, 0
1, 138960, Tempo, 425532
1, 138960, Note_on_c, 0, 74, 56
1, 138960, Note_on_c, 0, 77, 56
1, 139080, Note_on_c, 0, 77, 0
1, 139080, Note_on_c, 0, 74, 0
1, 139200, Tempo, 416667
1, 139200, Note_on_c, 0, 76, 66
1, 139200, Note_on_c, 0, 79, 66
1, 139200, Note_on_c, 0, 48, 59
1, 139320, Note_on_c, 0, 48, 0
1, 139320, Note_on_c, 0, 79, 0
1, 139320, Note_on_c, 0, 76, 0
1, 139440, Note_on_c, 0, 76, 57
1, 139440, Note_on_c, 0, 79, 57
1, 139440, Note_on_c, 0, 60, 53
1, 139560, Note_on_c, 0, 60, 0
1, 139560, Note_on_c, 0, 79, 0
1, 139560, Note_on_c, 0, 76, 0
1, 139680, Tempo, 410959
1, 139680, Note_on_c, 0, 81, 64
1, 139680, Note_on_c, 0, 52, 59
1, 139800, Note_on_c, 0, 52, 0
1, 139800, Note_on_c, 0, 81, 0
1, 139800, Note_on_c, 0, 79, 57
1, 139836, Control_c, 0, 64, 127
1, 139920, Note_on_c, 0, 79, 0
1, 139920, Note_on_c, 0, 77, 57
1, 139920, Note_on_c, 0, 64, 57
1, 139980, Tempo, 451128
1, 140040, Note_on_c, 0, 64, 0
1, 140040, Note_on_c, 0, 77, 0
1, 140040, Note_on_c, 0, 76, 57
1, 140160, Tempo, 431655
1, 140160, Note_on_c, 0, 76, 0
1, 140160, Note_on_c, 0, 74, 65
1, 140160, Note_on_c, 0, 71, 65
1, 140160, Note_on_c, 0, 55, 60
1, 140165, Control_c, 0, 64, 0
1, 140287, Control_c, 0, 64, 127
1, 140400, Note_on_c, 0, 71, 0
1, 140400, Note_on_c, 0, 67, 59
1, 140626, Tempo, 491803
1, 140640, Tempo, 434783
1, 140640, Note_on_c, 0, 67, 0
1, 140640, Note_on_c, 0, 55, 0
1, 140640, Note_on_c, 0, 74, 0
1, 140640, Note_on_c, 0, 72, 56
1, 140640, Note_on_c, 0, 76, 56
1, 140640, Control_c, 0, 64, 0
1, 140760, Note_on_c, 0, 76, 0
1, 140760, Note_on_c, 0, 72, 0
1, 140880, Tempo, 425532
1, 140880, Note_on_c, 0, 74, 56
1, 140880, Note_on_c, 0, 77, 56
1, 141000, Note_on_c, 0, 77, 0
1, 141000, Note_on_c, 0, 74, 0
1, 141120, Tempo, 416667
1, 141120, Note_on_c, 0, 76, 66
1, 141120, Note_on_c, 0, 79, 66
1, 141120, Note_on_c, 0, 48, 59
1, 141240, Note_on_c, 0, 48, 0
1, 141240, Note_on_c, 0, 79, 0
1, 141240, Note_on_c, 0, 76, 0
1, 141360, Note_on_c, 0, 76, 57
1, 141360, Note_on_c, 0, 79, 57
1, 141360, Note_on_c, 0, 60, 53
1, 141480, Note_on_c, 0, 60, 0
1, 141480, Note_on_c, 0, 79, 0
1, 141480, Note_on_c, 0, 76, 0
1, 141600, Tempo, 410959
1, 141600, Note_on_c, 0, 81, 64
1, 141600, Note_on_c, 0, 52, 59
1, 141720, Note_on_c, 0, 52, 0
1, 141720, Note_on_c, 0, 81, 0
1, 141720, Note_on_c, 0, 79, 57
1, 141756, Control_c, 0, 64, 127
1, 141840, Note_on_c, 0, 79, 0
1, 141840, Note_on_c, 0, 77, 57
1, 141840, Note_on_c, 0, 64, 57
1, 141900, Tempo, 451128
1, 141960, Note_on_c, 0, 64, 0
1, 141960, Note_on_c, 0, 77, 0
1, 141960, Note_on_c, 0, 76, 57
1, 142080, Tempo, 431655
1, 142080, Note_on_c, 0, 76, 0
1, 142080, Note_on_c, 0, 74, 65
1, 142080, Note_on_c, 0, 71, 65
1, 142080, Note_on_c, 0, 55, 60
1, 142085, Control_c, 0, 64, 0
1, 142207, Control_c, 0, 64, 127
1, 142546, Tempo, 491803
1, 142560, Tempo, 454545
1, 142560, Note_on_c, 0, 55, 0
1, 142560, Note_on_c, 0, 71, 0
1, 142560, Note_on_c, 0, 74, 0
1, 142560, Note_on_c, 0, 69, 56
1, 142560, Note_on_c, 0, 72, 56
1, 142560, Control_c, 0, 64, 0
1, 142680, Note_on_c, 0, 72, 0
1, 142680, Note_on_c, 0, 69, 0
1, 142800, Tempo, 425532
1, 142800, Note_on_c, 0, 71, 56
1, 142800, Note_on_c, 0, 74, 56
1, 142920, Note_on_c, 0, 74, 0
1, 142920, Note_on_c, 0, 71, 0
1, 143040, Tempo, 416667
1, 143040, Note_on_c, 0, 72, 66
1, 143040, Note_on_c, 0, 76, 66
1, 143040, Note_on_c, 0, 45, 59
1, 143160, Note_on_c, 0, 45, 0
1, 143160, Note_on_c, 0, 76, 0
1, 143160, Note_on_c, 0, 72, 0
1, 143280, Note_on_c, 0, 72, 57
1, 143280, Note_on_c, 0, 76, 57
1, 143280, Note_on_c, 0, 57, 53
1, 143400, Note_on_c, 0, 57, 0
1, 143400, Note_on_c, 0, 76, 0
1, 143400, Note_on_c, 0, 72, 0
1, 143520, Tempo, 410959
1, 143520, Note_on_c, 0, 77, 64
1, 143520, Note_on_c, 0, 48, 59
1, 143640, Note_on_c, 0, 48, 0
1, 143640, Note_on_c, 0, 77, 0
1, 143640, Note_on_c, 0, 76, 57
1, 143676, Control_c, 0, 64, 127
1, 143760, Note_on_c, 0, 76, 0
1, 143760, Note_on_c, 0, 74, 57
1, 143760, Note_on_c, 0, 60, 57
1, 143820, Tempo, 451128
1, 143880, Note_on_c, 0, 60, 0
1, 143880, Note_on_c, 0, 74, 0
1, 143880, Note_on_c, 0, 72, 57
1, 144000, Tempo, 431655
1, 144000, Note_on_c, 0, 72, 0
1, 144000, Note_on_c, 0, 71, 65
1, 144000, Note_on_c, 0, 68, 65
1, 144000, Note_on_c, 0, 52, 60
1, 144005, Control_c, 0, 64, 0
1, 144127, Control_c, 0, 64, 127
1, 144240, Note_on_c, 0, 68, 0
1, 144240, Note_on_c, 0, 64, 59
1, 144480, Tempo, 434783
1, 144480, Note_on_c, 0, 64, 0
1, 144480, Note_on_c, 0, 52, 0
1, 144480, Note_on_c, 0, 71, 0
1, 144480, Note_on_c, 0, 69, 56
1, 144480, Note_on_c, 0, 72, 56
1, 144480, Control_c, 0, 64, 0
1, 144600, Note_on_c, 0, 72, 0
1, 144600, Note_on_c, 0, 69, 0
1, 144720, Tempo, 425532
1, 144720, Note_on_c, 0, 71, 56
1, 144720, Note_on_c, 0, 74, 56
1, 144840, Note_on_c, 0, 74, 0
1, 144840, Note_on_c, 0, 71, 0
1, 144960, Tempo, 416667
1, 144960, Note_on_c, 0, 72, 66
1, 144960, Note_on_c, 0, 76, 66
1, 144960, Note_on_c, 0, 45, 59
1, 145080, Note_on_c, 0, 45, 0
1, 145080, Note_on_c, 0, 76, 0
1, 145080, Note_on_c, 0, 72, 0
1, 145200, Note_on_c, 0, 72, 57
1, 145200, Note_on_c, 0, 76, 57
1, 145200, Note_on_c, 0, 57, 53
1, 145320, Note_on_c, 0, 57, 0
1, 145320, Note_on_c, 0, 76, 0
1, 145320, Note_on_c, 0, 72, 0
1, 145440, Tempo, 410959
1, 145440, Note_on_c, 0, 77, 64
1, 145440, Note_on_c, 0, 48, 59
1, 145560, Note_on_c, 0, 48, 0
1, 145560, Note_on_c, 0, 77, 0
1, 145560, Note_on_c, 0, 76, 57
1, 145596, Control_c, 0, 64, 127
1, 145680, Note_on_c, 0, 76, 0
1, 145680, Note_on_c, 0, 74, 57
1, 145680, Note_on_c, 0, 60, 57
1, 145740, Tempo, 451128
1, 145800, Note_on_c, 0, 60, 0
1, 145800, Note_on_c, 0, 74, 0
1, 145800, Note_on_c, 0, 72, 57
1, 145920, Tempo, 431655
1, 145920, Note_on_c, 0, 72, 0
1, 145920, Note_on_c, 0, 71, 65
1, 145920, Note_on_c, 0, 68, 65
1, 145920, Note_on_c, 0, 52, 60
1, 145925, Control_c, 0, 64, 0
1, 146047, Control_c, 0, 64, 127
1, 146400, Tempo, 397351
1, 146400, Note_on_c, 0, 52, 0
1, 146400, Note_on_c, 0, 68, 0
1, 146400, Note_on_c, 0, 71, 0
1, 146400, Note_on_c, 0, 71, 56
1, 146400, Control_c, 0, 64, 0
1, 146520, Note_on_c, 0, 71, 0
1, 146520, Note_on_c, 0, 69, 56
1, 146640, Note_on_c, 0, 69, 0
1, 146640, Note_on_c, 0, 68, 56
1, 146760, Tempo, 451128
1, 146760, Note_on_c, 0, 68, 0
1, 146760, Note_on_c, 0, 69, 56
1, 146880, Tempo, 397351
1, 146880, Note_on_c, 0, 69, 0
1, 146880, Note_on_c, 0, 72, 59
1, 146880, Note_on_c, 0, 57, 53
1, 146965, Control_c, 0, 64, 127
1, 147000, Note_on_c, 0, 57, 0
1, 147000, Note_on_c, 0, 72, 0
1, 147120, Note_on_c, 0, 64, 47
1, 147120, Note_on_c, 0, 60, 47
1, 147130, Control_c, 0, 64, 0
1, 147240, Tempo, 451128
1, 147240, Note_on_c, 0, 60, 0
1, 147240, Note_on_c, 0, 64, 0
1, 147360, Tempo, 400000
1, 147360, Note_on_c, 0, 74, 62
1, 147360, Note_on_c, 0, 60, 47
1, 147360, Note_on_c, 0, 64, 47
1, 147459, Control_c, 0, 64, 127
1, 147480, Note_on_c, 0, 64, 0
1, 147480, Note_on_c, 0, 60, 0
1, 147480, Note_on_c, 0, 74, 0
1, 147480, Note_on_c, 0, 72, 57
1, 147600, Note_on_c, 0, 72, 0
1, 147600, Note_on_c, 0, 71, 57
1, 147600, Note_on_c, 0, 60, 47
1, 147600, Note_on_c, 0, 64, 47
1, 147720, Tempo, 454545
1, 147720, Note_on_c, 0, 64, 0
1, 147720, Note_on_c, 0, 60, 0
1, 147720, Note_on_c, 0, 71, 0
1, 147720, Note_on_c, 0, 72, 57
1, 147840, Tempo, 397351
1, 147840, Note_on_c, 0, 72, 0
1, 147840, Note_on_c, 0, 76, 66
1, 147840, Note_on_c, 0, 57, 54
1, 147840, Control_c, 0, 64, 0
1, 147915, Control_c, 0, 64, 127
1, 147960, Note_on_c, 0, 57, 0
1, 147960, Note_on_c, 0, 76, 0
1, 148080, Note_on_c, 0, 64, 48
1, 148080, Note_on_c, 0, 60, 48
1, 148090, Control_c, 0, 64, 0
1, 148200, Tempo, 441176
1, 148200, Note_on_c, 0, 60, 0
1, 148200, Note_on_c, 0, 64, 0
1, 148320, Tempo, 397351
1, 148320, Note_on_c, 0, 77, 63
1, 148320, Note_on_c, 0, 64, 48
1, 148320, Note_on_c, 0, 60, 48
1, 148389, Control_c, 0, 64, 127
1, 148440, Note_on_c, 0, 60, 0
1, 148440, Note_on_c, 0, 64, 0
1, 148440, Note_on_c, 0, 77, 0
1, 148440, Note_on_c, 0, 76, 58
1, 148560, Note_on_c, 0, 76, 0
1, 148560, Note_on_c, 0, 75, 58
1, 148560, Note_on_c, 0, 64, 48
1, 148560, Note_on_c, 0, 60, 48
1, 148680, Tempo, 416667
1, 148680, Note_on_c, 0, 60, 0
1, 148680, Note_on_c, 0, 64, 0
1, 148680, Note_on_c, 0, 75, 0
1, 148680, Note_on_c, 0, 76, 58
1, 148800, Tempo, 400000
1, 148800, Note_on_c, 0, 76, 0
1, 148800, Note_on_c, 0, 83, 70
1, 148800, Note_on_c, 0, 57, 56
1, 148800, Control_c, 0, 64, 0
1, 148892, Control_c, 0, 64, 127
1, 148920, Note_on_c, 0, 57, 0
1, 148920, Note_on_c, 0, 83, 0
1, 148920, Note_on_c, 0, 81, 63
1, 149040, Note_on_c, 0, 81, 0
1, 149040, Note_on_c, 0, 80, 63
1, 149040, Note_on_c, 0, 64, 49
1, 149040, Note_on_c, 0, 60, 49
1, 149160, Note_on_c, 0, 60, 0
1, 149160, Note_on_c, 0, 64, 0
1, 149160, Note_on_c, 0, 80, 0
1, 149160, Note_on_c, 0, 81, 63
1, 149280, Tempo, 413793
1, 149280, Note_on_c, 0, 81, 0
1, 149280, Note_on_c, 0, 83, 71
1, 149280, Note_on_c, 0, 57, 57
1, 149280, Control_c, 0, 64, 0
1, 149337, Control_c, 0, 64, 127
1, 149400, Note_on_c, 0, 57, 0
1, 149400, Note_on_c, 0, 83, 0
1, 149400, Note_on_c, 0, 81, 64
1, 149520, Note_on_c, 0, 81, 0
1, 149520, Note_on_c, 0, 80, 64
1, 149520, Note_on_c, 0, 64, 52
1, 149520, Note_on_c, 0, 60, 43
1, 149640, Tempo, 512821
1, 149640, Note_on_c, 0, 60, 0
1, 149640, Note_on_c, 0, 64, 0
1, 149640, Note_on_c, 0, 80, 0
1, 149640, Note_on_c, 0, 81, 64
1, 149760, Tempo, 408163
1, 149760, Note_on_c, 0, 81, 0
1, 149760, Note_on_c, 0, 84, 76
1, 149760, Note_on_c, 0, 53, 57
1, 149760, Control_c, 0, 64, 0
1, 149810, Control_c, 0, 64, 127
1, 149880, Note_on_c, 0, 53, 0
1, 150000, Tempo, 425532
1, 150000, Note_on_c, 0, 63, 51
1, 150000, Note_on_c, 0, 57, 51
1, 150010, Control_c, 0, 64, 0
1, 150120, Tempo, 465116
1, 150120, Note_on_c, 0, 57, 0
1, 150120, Note_on_c, 0, 63, 0
1, 150240, Tempo, 410959
1, 150240, Note_on_c, 0, 84, 0
1, 150240, Note_on_c, 0, 81, 62
1, 150240, Note_on_c, 0, 63, 43
1, 150240, Note_on_c, 0, 57, 43
1, 150360, Note_on_c, 0, 57, 0
1, 150360, Note_on_c, 0, 63, 0
1, 150360, Note_on_c, 0, 81, 0
1, 150480, Tempo, 428571
1, 150480, Note_on_c, 0, 83, 62
1, 150480, Note_on_c, 0, 63, 39
1, 150480, Note_on_c, 0, 57, 39
1, 150600, Note_on_c, 0, 57, 0
1, 150600, Note_on_c, 0, 63, 0
1, 150600, Note_on_c, 0, 83, 0
1, 150720, Tempo, 405405
1, 150720, Note_on_c, 0, 84, 70
1, 150720, Note_on_c, 0, 52, 46
1, 150840, Note_on_c, 0, 52, 0
1, 150840, Note_on_c, 0, 84, 0
1, 150960, Note_on_c, 0, 83, 62
1, 150960, Note_on_c, 0, 64, 42
1, 150960, Note_on_c, 0, 57, 42
1, 151080, Note_on_c, 0, 57, 0
1, 151080, Note_on_c, 0, 64, 0
1, 151080, Note_on_c, 0, 83, 0
1, 151200, Tempo, 410959
1, 151200, Note_on_c, 0, 81, 62
1, 151200, Note_on_c, 0, 50, 42
1, 151320, Note_on_c, 0, 50, 0
1, 151320, Note_on_c, 0, 81, 0
1, 151440, Tempo, 428571
1, 151440, Note_on_c, 0, 80, 62
1, 151440, Note_on_c, 0, 59, 42
1, 151440, Note_on_c, 0, 53, 42
1, 151560, Note_on_c, 0, 53, 0
1, 151560, Note_on_c, 0, 59, 0
1, 151560, Note_on_c, 0, 80, 0
1, 151680, Tempo, 405405
1, 151680, Note_on_c, 0, 81, 71
1, 151680, Note_on_c, 0, 48, 47
1, 151800, Note_on_c, 0, 48, 0
1, 151800, Note_on_c, 0, 81, 0
1, 151920, Note_on_c, 0, 76, 64
1, 151920, Note_on_c, 0, 57, 39
1, 151920, Note_on_c, 0, 52, 39
1, 152040, Note_on_c, 0, 52, 0
1, 152040, Note_on_c, 0, 57, 0
1, 152040, Note_on_c, 0, 76, 0
1, 152160, Tempo, 413793
1, 152160, Note_on_c, 0, 50, 41
1, 152164, Note_on_c, 0, 77, 64
1, 152280, Note_on_c, 0, 50, 0
1, 152284, Note_on_c, 0, 77, 0
1, 152400, Tempo, 431655
1, 152400, Note_on_c, 0, 74, 64
1, 152400, Note_on_c, 0, 59, 41
1, 152400, Note_on_c, 0, 53, 41
1, 152520, Note_on_c, 0, 53, 0
1, 152520, Note_on_c, 0, 59, 0
1, 152520, Note_on_c, 0, 74, 0
1, 152640, Tempo, 410959
1, 152640, Note_on_c, 0, 72, 74
1, 152640, Note_on_c, 0, 52, 48
1, 152640, Note_on_c, 0, 57, 48
1, 152720, Control_c, 0, 64, 127
1, 152760, Note_on_c, 0, 57, 0
1, 152760, Note_on_c, 0, 52, 0
1, 152880, Note_on_c, 0, 57, 41
1, 152880, Note_on_c, 0, 52, 41
1, 153000, Note_on_c, 0, 52, 0
1, 153000, Note_on_c, 0, 57, 0
1, 153115, Note_on_c, 0, 52, 41
1, 153120, Tempo, 434783
1, 153120, Note_on_c, 0, 72, 0
1, 153120, Note_on_c, 0, 71, 64
1, 153120, Note_on_c, 0, 56, 41
1, 153131, Control_c, 0, 64, 0
1, 153180, Note_on_c, 0, 71, 0
1, 153180, Note_on_c, 0, 72, 57
1, 153212, Control_c, 0, 64, 127
1, 153235, Note_on_c, 0, 52, 0
1, 153240, Note_on_c, 0, 72, 0
1, 153240, Note_on_c, 0, 56, 0
1, 153240, Note_on_c, 0, 71, 57
1, 153300, Note_on_c, 0, 71, 0
1, 153300, Note_on_c, 0, 72, 57
1, 153360, Tempo, 451128
1, 153360, Note_on_c, 0, 72, 0
1, 153360, Note_on_c, 0, 71, 57
1, 153360, Note_on_c, 0, 52, 41
1, 153360, Note_on_c, 0, 56, 41
1, 153364, Note_on_c, 0, 71, 0
1, 153400, Note_on_c, 0, 72, 57
1, 153430, Tempo, 447761
1, 153440, Note_on_c, 0, 72, 0
1, 153440, Note_on_c, 0, 71, 57
1, 153450, Tempo, 468750
1, 153470, Tempo, 491803
1, 153480, Note_on_c, 0, 71, 0
1, 153480, Note_on_c, 0, 56, 0
1, 153480, Note_on_c, 0, 52, 0
1, 153480, Note_on_c, 0, 69, 64
1, 153490, Tempo, 521739
1, 153510, Tempo, 550459
1, 153530, Tempo, 582524
1, 153540, Note_on_c, 0, 69, 0
1, 153540, Note_on_c, 0, 71, 57
1, 153550, Tempo, 625000
1, 153570, Tempo, 666667
1, 153590, Tempo, 472441
1, 153600, Note_on_c, 0, 71, 0
1, 153600, Note_on_c, 0, 69, 65
1, 153600, Note_on_c, 0, 45, 46
1, 153600, Note_on_c, 0, 57, 46
1, 153600, Control_c, 0, 64, 0
1, 154050, Note_on_c, 0, 57, 0
1, 154050, Note_on_c, 0, 69, 0
1, 154080, Tempo, 434783
1, 154080, Note_on_c, 0, 45, 0
1, 154080, Note_on_c, 0, 72, 56
1, 154080, Note_on_c, 0, 76, 56
1, 154200, Note_on_c, 0, 76, 0
1, 154200, Note_on_c, 0, 72, 0
1, 154320, Tempo, 425532
1, 154320, Note_on_c, 0, 74, 56
1, 154320, Note_on_c, 0, 77, 56
1, 154440, Note_on_c, 0, 77, 0
1, 154440, Note_on_c, 0, 74, 0
1, 154560, Tempo, 416667
1, 154560, Note_on_c, 0, 76, 66
1, 154560, Note_on_c, 0, 79, 66
1, 154560, Note_on_c, 0, 48, 59
1, 154680, Note_on_c, 0, 48, 0
1, 154680, Note_on_c, 0, 79, 0
1, 154680, Note_on_c, 0, 76, 0
1, 154800, Note_on_c, 0, 76, 57
1, 154800, Note_on_c, 0, 79, 57
1, 154800, Note_on_c, 0, 60, 53
1, 154920, Note_on_c, 0, 60, 0
1, 154920, Note_on_c, 0, 79, 0
1, 154920, Note_on_c, 0, 76, 0
1, 155040, Tempo, 410959
1, 155040, Note_on_c, 0, 81, 64
1, 155040, Note_on_c, 0, 52, 59
1, 155160, Note_on_c, 0, 52, 0
1, 155160, Note_on_c, 0, 81, 0
1, 155160, Note_on_c, 0, 79, 57
1, 155196, Control_c, 0, 64, 127
1, 155280, Note_on_c, 0, 79, 0
1, 155280, Note_on_c, 0, 77, 57
1, 155280, Note_on_c, 0, 64, 57
1, 155340, Tempo, 451128
1, 155400, Note_on_c, 0, 64, 0
1, 155400, Note_on_c, 0, 77, 0
1, 155400, Note_on_c, 0, 76, 57
1, 155520, Tempo, 431655
1, 155520, Note_on_c, 0, 76, 0
1, 155520, Note_on_c, 0, 74, 65
1, 155520, Note_on_c, 0, 71, 65
1, 155520, Note_on_c, 0, 55, 60
1, 155525, Control_c, 0, 64, 0
1, 155647, Control_c, 0, 64, 127
1, 155760, Note_on_c, 0, 71, 0
1, 155760, Note_on_c, 0, 67, 59
1, 155986, Tempo, 491803
1, 156000, Tempo, 434783
1, 156000, Note_on_c, 0, 67, 0
1, 156000, Note_on_c, 0, 55, 0
1, 156000, Note_on_c, 0, 74, 0
1, 156000, Note_on_c, 0, 72, 56
1, 156000, Note_on_c, 0, 76, 56
1, 156000, Control_c, 0, 64, 0
1, 156120, Note_on_c, 0, 76, 0
1, 156120, Note_on_c, 0, 72, 0
1, 156240, Tempo, 425532
1, 156240, Note_on_c, 0, 74, 56
1, 156240, Note_on_c, 0, 77, 56
1, 156360, Note_on_c, 0, 77, 0
1, 156360, Note_on_c, 0, 74, 0
1, 156480, Tempo, 416667
1, 156480, Note_on_c, 0, 76, 66
1, 156480, Note_on_c, 0, 79, 66
1, 156480, Note_on_c, 0, 48, 59
1, 156600, Note_on_c, 0, 48, 0
1, 156600, Note_on_c, 0, 79, 0
1, 156600, Note_on_c, 0, 76, 0
1, 156720, Note_on_c, 0, 76, 57
1, 156720, Note_on_c, 0, 79, 57
1, 156720, Note_on_c, 0, 60, 53
1, 156840, Note_on_c, 0, 60, 0
1, 156840, Note_on_c, 0, 79, 0
1, 156840, Note_on_c, 0, 76, 0
1, 156960, Tempo, 410959
1, 156960, Note_on_c, 0, 81, 64
1, 156960, Note_on_c, 0, 52, 59
1, 157080, Note_on_c, 0, 52, 0
1, 157080, Note_on_c, 0, 81, 0
1, 157080, Note_on_c, 0, 79, 57
1, 157116, Control_c, 0, 64, 127
1, 157200, Note_on_c, 0, 79, 0
1, 157200, Note_on_c, 0, 77, 57
1, 157200, Note_on_c, 0, 64, 57
1, 157260, Tempo, 451128
1, 157320, Note_on_c, 0, 64, 0
1, 157320, Note_on_c, 0, 77, 0
1, 157320, Note_on_c, 0, 76, 57
1, 157440, Tempo, 431655
1, 157440, Note_on_c, 0, 76, 0
1, 157440, Note_on_c, 0, 74, 65
1, 157440, Note_on_c, 0, 71, 65
1, 157440, Note_on_c, 0, 55, 60
1, 157445, Control_c, 0, 64, 0
1, 157567, Control_c, 0, 64, 127
1, 157906, Tempo, 491803
1, 157920, Tempo, 454545
1, 157920, Note_on_c, 0, 55, 0
1, 157920, Note_on_c, 0, 71, 0
1, 157920, Note_on_c, 0, 74, 0
1, 157920, Note_on_c, 0, 69, 56
1, 157920, Note_on_c, 0, 72, 56
1, 157920, Control_c, 0, 64, 0
1, 158040, Note_on_c, 0, 72, 0
1, 158040, Note_on_c, 0, 69, 0
1, 158160, Tempo, 425532
1, 158160, Note_on_c, 0, 71, 56
1, 158160, Note_on_c, 0, 74, 56
1, 158280, Note_on_c, 0, 74, 0
1, 158280, Note_on_c, 0, 71, 0
1, 158400, Tempo, 416667
1, 158400, Note_on_c, 0, 72, 66
1, 158400, Note_on_c, 0, 76, 66
1, 158400, Note_on_c, 0, 45, 59
1, 158520, Note_on_c, 0, 45, 0
1, 158520, Note_on_c, 0, 76, 0
1, 158520, Note_on_c, 0, 72, 0
1, 158640, Note_on_c, 0, 72, 57
1, 158640, Note_on_c, 0, 76, 57
1, 158640, Note_on_c, 0, 57, 53
1, 158760, Note_on_c, 0, 57, 0
1, 158760, Note_on_c, 0, 76, 0
1, 158760, Note_on_c, 0, 72, 0
1, 158880, Tempo, 410959
1, 158880, Note_on_c, 0, 77, 64
1, 158880, Note_on_c, 0, 48, 59
1, 159000, Note_on_c, 0, 48, 0
1, 159000, Note_on_c, 0, 77, 0
1, 159000, Note_on_c, 0, 76, 57
1, 159036, Control_c, 0, 64, 127
1, 159120, Note_on_c, 0, 76, 0
1, 159120, Note_on_c, 0, 74, 57
1, 159120, Note_on_c, 0, 60, 57
1, 159180, Tempo, 451128
1, 159240, Note_on_c, 0, 60, 0
1, 159240, Note_on_c, 0, 74, 0
1, 159240, Note_on_c, 0, 72, 57
1, 159360, Tempo, 431655
1, 159360, Note_on_c, 0, 72, 0
1, 159360, Note_on_c, 0, 71, 65
1, 159360, Note_on_c, 0, 68, 65
1, 159360, Note_on_c, 0, 52, 60
1, 159365, Control_c, 0, 64, 0
1, 159487, Control_c, 0, 64, 127
1, 159600, Note_on_c, 0, 68, 0
1, 159600, Note_on_c, 0, 64, 59
1, 159840, Tempo, 434783
1, 159840, Note_on_c, 0, 64, 0
1, 159840, Note_on_c, 0, 52, 0
1, 159840, Note_on_c, 0, 71, 0
1, 159840, Note_on_c, 0, 69, 56
1, 159840, Note_on_c, 0, 72, 56
1, 159840, Control_c, 0, 64, 0
1, 159960, Note_on_c, 0, 72, 0
1, 159960, Note_on_c, 0, 69, 0
1, 160080, Tempo, 425532
1, 160080, Note_on_c, 0, 71, 56
1, 160080, Note_on_c, 0, 74, 56
1, 160200, Note_on_c, 0, 74, 0
1, 160200, Note_on_c, 0, 71, 0
1, 160320, Tempo, 416667
1, 160320, Note_on_c, 0, 72, 66
1, 160320, Note_on_c, 0, 76, 66
1, 160320, Note_on_c, 0, 45, 59
1, 160440, Note_on_c, 0, 45, 0
1, 160440, Note_on_c, 0, 76, 0
1, 160440, Note_on_c, 0, 72, 0
1, 160560, Note_on_c, 0, 72, 57
1, 160560, Note_on_c, 0, 76, 57
1, 160560, Note_on_c, 0, 57, 53
1, 160680, Note_on_c, 0, 57, 0
1, 160680, Note_on_c, 0, 76, 0
1, 160680, Note_on_c, 0, 72, 0
1, 160800, Tempo, 410959
1, 160800, Note_on_c, 0, 77, 64
1, 160800, Note_on_c, 0, 48, 59
1, 160920, Note_on_c, 0, 48, 0
1, 160920, Note_on_c, 0, 77, 0
1, 160920, Note_on_c, 0, 76, 57
1, 160956, Control_c, 0, 64, 127
1, 161040, Note_on_c, 0, 76, 0
1, 161040, Note_on_c, 0, 74, 57
1, 161040, Note_on_c, 0, 60, 57
1, 161100, Tempo, 451128
1, 161160, Note_on_c, 0, 60, 0
1, 161160, Note_on_c, 0, 74, 0
1, 161160, Note_on_c, 0, 72, 57
1, 161280, Tempo, 431655
1, 161280, Note_on_c, 0, 72, 0
1, 161280, Note_on_c, 0, 71, 65
1, 161280, Note_on_c, 0, 68, 65
1, 161280, Note_on_c, 0, 52, 60
1, 161285, Control_c, 0, 64, 0
1, 161407, Control_c, 0, 64, 127
1, 161760, Tempo, 397351
1, 161760, Note_on_c, 0, 52, 0
1, 161760, Note_on_c, 0, 68, 0
1, 161760, Note_on_c, 0, 71, 0
1, 161760, Note_on_c, 0, 71, 56
1, 161760, Control_c, 0, 64, 0
1, 161880, Note_on_c, 0, 71, 0
1, 161880, Note_on_c, 0, 69, 56
1, 162000, Note_on_c, 0, 69, 0
1, 162000, Note_on_c, 0, 68, 56
1, 162120, Tempo, 451128
1, 162120, Note_on_c, 0, 68, 0
1, 162120, Note_on_c, 0, 69, 56
1, 162240, Tempo, 397351
1, 162240, Note_on_c, 0, 69, 0
1, 162240, Note_on_c, 0, 72, 59
1, 162240, Note_on_c, 0, 57, 53
1, 162325, Control_c, 0, 64, 127
1, 162360, Note_on_c, 0, 57, 0
1, 162360, Note_on_c, 0, 72, 0
1, 162480, Note_on_c, 0, 64, 47
1, 162480, Note_on_c, 0, 60, 47
1, 162490, Control_c, 0, 64, 0
1, 162600, Tempo, 451128
1, 162600, Note_on_c, 0, 60, 0
1, 162600, Note_on_c, 0, 64, 0
1, 162720, Tempo, 400000
1, 162720, Note_on_c, 0, 74, 62
1, 162720, Note_on_c, 0, 60, 47
1, 162720, Note_on_c, 0, 64, 47
1, 162819, Control_c, 0, 64, 127
1, 162840, Note_on_c, 0, 64, 0
1, 162840, Note_on_c, 0, 60, 0
1, 162840, Note_on_c, 0, 74, 0
1, 162840, Note_on_c, 0, 72, 57
1, 162960, Note_on_c, 0, 72, 0
1, 162960, Note_on_c, 0, 71, 57
1, 162960, Note_on_c, 0, 60, 47
1, 162960, Note_on_c, 0, 64, 47
1, 163080, Tempo, 454545
1, 163080, Note_on_c, 0, 64, 0
1, 163080, Note_on_c, 0, 60, 0
1, 163080, Note_on_c, 0, 71, 0
1, 163080, Note_on_c, 0, 72, 57
1, 163200, Tempo, 397351
1, 163200, Note_on_c, 0, 72, 0
1, 163200, Note_on_c, 0, 76, 66
1, 163200, Note_on_c, 0, 57, 54
1, 163200, Control_c, 0, 64, 0
1, 163275, Control_c, 0, 64, 127
1, 163320, Note_on_c, 0, 57, 0
1, 163320, Note_on_c, 0, 76, 0
1, 163440, Note_on_c, 0, 64, 48
1, 163440, Note_on_c, 0, 60, 48
1, 163450, Control_c, 0, 64, 0
1, 163560, Tempo, 441176
1, 163560, Note_on_c, 0, 60, 0
1, 163560, Note_on_c, 0, 64, 0
1, 163680, Tempo, 397351
1, 163680, Note_on_c, 0, 77, 63
1, 163680, Note_on_c, 0, 64, 48
1, 163680, Note_on_c, 0, 60, 48
1, 163749, Control_c, 0, 64, 127
1, 163800, Note_on_c, 0, 60, 0
1, 163800, Note_on_c, 0, 64, 0
1, 163800, Note_on_c, 0, 77, 0
1, 163800, Note_on_c, 0, 76, 58
1, 163920, Note_on_c, 0, 76, 0
1, 163920, Note_on_c, 0, 75, 58
1, 163920, Note_on_c, 0, 64, 48
1, 163920, Note_on_c, 0, 60, 48
1, 164040, Tempo, 416667
1, 164040, Note_on_c, 0, 60, 0
1, 164040, Note_on_c, 0, 64, 0
1, 164040, Note_on_c, 0, 75, 0
1, 164040, Note_on_c, 0, 76, 58
1, 164160, Tempo, 400000
1, 164160, Note_on_c, 0, 76, 0
1, 164160, Note_on_c, 0, 83, 70
1, 164160, Note_on_c, 0, 57, 56
1, 164160, Control_c, 0, 64, 0
1, 164252, Control_c, 0, 64, 127
1, 164280, Note_on_c, 0, 57, 0
1, 164280, Note_on_c, 0, 83, 0
1, 164280, Note_on_c, 0, 81, 63
1, 164400, Note_on_c, 0, 81, 0
1, 164400, Note_on_c, 0, 80, 63
1, 164400, Note_on_c, 0, 64, 49
1, 164400, Note_on_c, 0, 60, 49
1, 164520, Note_on_c, 0, 60, 0
1, 164520, Note_on_c, 0, 64, 0
1, 164520, Note_on_c, 0, 80, 0
1, 164520, Note_on_c, 0, 81, 63
1, 164640, Tempo, 413793
1, 164640, Note_on_c, 0, 81, 0
1, 164640, Note_on_c, 0, 83, 71
1, 164640, Note_on_c, 0, 57, 57
1, 164640, Control_c, 0, 64, 0
1, 164697, Control_c, 0, 64, 127
1, 164760, Note_on_c, 0, 57, 0
1, 164760, Note_on_c, 0, 83, 0
1, 164760, Note_on_c, 0, 81, 64
1, 164880, Note_on_c, 0, 81, 0
1, 164880, Note_on_c, 0, 80, 64
1, 164880, Note_on_c, 0, 64, 52
1, 164880, Note_on_c, 0, 60, 43
1, 165000, Tempo, 512821
1, 165000, Note_on_c, 0, 60, 0
1, 165000, Note_on_c, 0, 64, 0
1, 165000, Note_on_c, 0, 80, 0
1, 165000, Note_on_c, 0, 81, 64
1, 165120, Tempo, 408163
1, 165120, Note_on_c, 0, 81, 0
1, 165120, Note_on_c, 0, 84, 76
1, 165120, Note_on_c, 0, 57, 57
1, 165120, Control_c, 0, 64, 0
1, 165170, Control_c, 0, 64, 127
1, 165240, Note_on_c, 0, 57, 0
1, 165360, Tempo, 425532
1, 165360, Note_on_c, 0, 63, 51
1, 165360, Note_on_c, 0, 57, 51
1, 165370, Control_c, 0, 64, 0
1, 165480, Tempo, 465116
1, 165480, Note_on_c, 0, 57, 0
1, 165480, Note_on_c, 0, 63, 0
1, 165600, Tempo, 410959
1, 165600, Note_on_c, 0, 84, 0
1, 165600, Note_on_c, 0, 81, 62
1, 165600, Note_on_c, 0, 63, 43
1, 165600, Note_on_c, 0, 57, 43
1, 165720, Note_on_c, 0, 57, 0
1, 165720, Note_on_c, 0, 63, 0
1, 165720, Note_on_c, 0, 81, 0
1, 165840, Tempo, 428571
1, 165840, Note_on_c, 0, 83, 62
1, 165840, Note_on_c, 0, 63, 39
1, 165840, Note_on_c, 0, 57, 39
1, 165960, Note_on_c, 0, 57, 0
1, 165960, Note_on_c, 0, 63, 0
1, 165960, Note_on_c, 0, 83, 0
1, 166080, Tempo, 405405
1, 166080, Note_on_c, 0, 84, 70
1, 166080, Note_on_c, 0, 52, 46
1, 166200, Note_on_c, 0, 52, 0
1, 166200, Note_on_c, 0, 84, 0
1, 166320, Note_on_c, 0, 83, 62
1, 166320, Note_on_c, 0, 64, 42
1, 166320, Note_on_c, 0, 57, 42
1, 166440, Note_on_c, 0, 57, 0
1, 166440, Note_on_c, 0, 64, 0
1, 166440, Note_on_c, 0, 83, 0
1, 166560, Tempo, 413793
1, 166560, Note_on_c, 0, 81, 62
1, 166560, Note_on_c, 0, 50, 42
1, 166680, Note_on_c, 0, 50, 0
1, 166680, Note_on_c, 0, 81, 0
1, 166800, Tempo, 428571
1, 166800, Note_on_c, 0, 80, 62
1, 166800, Note_on_c, 0, 59, 42
1, 166800, Note_on_c, 0, 53, 42
1, 166920, Note_on_c, 0, 53, 0
1, 166920, Note_on_c, 0, 59, 0
1, 166920, Note_on_c, 0, 80, 0
1, 167040, Tempo, 405405
1, 167040, Note_on_c, 0, 81, 71
1, 167040, Note_on_c, 0, 48, 47
1, 167160, Note_on_c, 0, 48, 0
1, 167160, Note_on_c, 0, 81, 0
1, 167280, Note_on_c, 0, 76, 64
1, 167280, Note_on_c, 0, 57, 39
1, 167280, Note_on_c, 0, 52, 39
1, 167400, Note_on_c, 0, 52, 0
1, 167400, Note_on_c, 0, 57, 0
1, 167400, Note_on_c, 0, 76, 0
1, 167520, Tempo, 416667
1, 167520, Note_on_c, 0, 50, 41
1, 167524, Note_on_c, 0, 77, 64
1, 167640, Note_on_c, 0, 50, 0
1, 167644, Note_on_c, 0, 77, 0
1, 167760, Tempo, 431655
1, 167760, Note_on_c, 0, 74, 64
1, 167760, Note_on_c, 0, 59, 41
1, 167760, Note_on_c, 0, 53, 41
1, 167880, Note_on_c, 0, 53, 0
1, 167880, Note_on_c, 0, 59, 0
1, 167880, Note_on_c, 0, 74, 0
1, 168000, Tempo, 410959
1, 168000, Note_on_c, 0, 72, 74
1, 168000, Note_on_c, 0, 52, 48
1, 168000, Note_on_c, 0, 57, 48
1, 168080, Control_c, 0, 64, 127
1, 168120, Note_on_c, 0, 57, 0
1, 168120, Note_on_c, 0, 52, 0
1, 168240, Note_on_c, 0, 57, 41
1, 168240, Note_on_c, 0, 52, 41
1, 168360, Note_on_c, 0, 52, 0
1, 168360, Note_on_c, 0, 57, 0
1, 168475, Note_on_c, 0, 52, 41
1, 168480, Tempo, 434783
1, 168480, Note_on_c, 0, 72, 0
1, 168480, Note_on_c, 0, 71, 64
1, 168480, Note_on_c, 0, 56, 41
1, 168491, Control_c, 0, 64, 0
1, 168540, Note_on_c, 0, 71, 0
1, 168540, Note_on_c, 0, 72, 57
1, 168572, Control_c, 0, 64, 127
1, 168595, Note_on_c, 0, 52, 0
1, 168600, Note_on_c, 0, 72, 0
1, 168600, Note_on_c, 0, 56, 0
1, 168600, Note_on_c, 0, 71, 57
1, 168660, Note_on_c, 0, 71, 0
1, 168660, Note_on_c, 0, 72, 57
1, 168720, Tempo, 451128
1, 168720, Note_on_c, 0, 72, 0
1, 168720, Note_on_c, 0, 71, 57
1, 168720, Note_on_c, 0, 52, 41
1, 168720, Note_on_c, 0, 56, 41
1, 168724, Note_on_c, 0, 71, 0
1, 168760, Note_on_c, 0, 72, 57
1, 168790, Tempo, 447761
1, 168800, Note_on_c, 0, 72, 0
1, 168800, Note_on_c, 0, 71, 57
1, 168810, Tempo, 468750
1, 168830, Tempo, 491803
1, 168840, Note_on_c, 0, 71, 0
1, 168840, Note_on_c, 0, 56, 0
1, 168840, Note_on_c, 0, 52, 0
1, 168840, Note_on_c, 0, 69, 64
1, 168850, Tempo, 521739
1, 168870, Tempo, 550459
1, 168890, Tempo, 582524
1, 168900, Note_on_c, 0, 69, 0
1, 168900, Note_on_c, 0, 71, 57
1, 168910, Tempo, 625000
1, 168930, Tempo, 666667
1, 168950, Tempo, 472441
1, 168960, Key_signature, 3, "major"
1, 168960, Note_on_c, 0, 71, 0
1, 168960, Note_on_c, 0, 69, 65
1, 168960, Note_on_c, 0, 45, 46
1, 168960, Note_on_c, 0, 57, 46
1, 168960, Control_c, 0, 64, 0
1, 169410, Note_on_c, 0, 57, 0
1, 169410, Note_on_c, 0, 69, 0
1, 169440, Tempo, 413793
1, 169440, Note_on_c, 0, 45, 0
1, 169440, Note_on_c, 0, 69, 82
1, 169483, Control_c, 0, 64, 127
1, 169560, Note_on_c, 0, 69, 0
1, 169560, Note_on_c, 0, 81, 79
1, 169680, Tempo, 431655
1, 169680, Note_on_c, 0, 81, 0
1, 169680, Note_on_c, 0, 71, 83
1, 169800, Note_on_c, 0, 71, 0
1, 169800, Note_on_c, 0, 83, 80
1, 169800, Note_on_c, 0, 45, 64
1, 169840, Note_on_c, 0, 45, 0
1, 169840, Note_on_c, 0, 49, 70
1, 169880, Note_on_c, 0, 49, 0
1, 169880, Note_on_c, 0, 52, 76
1, 169920, Tempo, 408163
1, 169920, Note_on_c, 0, 52, 0
1, 169920, Note_on_c, 0, 83, 0
1, 169920, Note_on_c, 0, 73, 89
1, 169920, Note_on_c, 0, 57, 87
1, 169928, Control_c, 0, 64, 0
1, 169966, Control_c, 0, 64, 127
1, 170040, Note_on_c, 0, 57, 0
1, 170040, Note_on_c, 0, 73, 0
1, 170040, Note_on_c, 0, 85, 84
1, 170160, Tempo, 422535
1, 170160, Note_on_c, 0, 85, 0
1, 170160, Note_on_c, 0, 57, 69
1, 170280, Note_on_c, 0, 57, 0
1, 170400, Tempo, 413793
1, 170400, Note_on_c, 0, 69, 85
1, 170400, Note_on_c, 0, 57, 69
1, 170520, Note_on_c, 0, 57, 0
1, 170520, Note_on_c, 0, 69, 0
1, 170520, Note_on_c, 0, 81, 73
1, 170640, Tempo, 422535
1, 170640, Note_on_c, 0, 81, 0
1, 170640, Note_on_c, 0, 71, 84
1, 170640, Note_on_c, 0, 57, 69
1, 170760, Note_on_c, 0, 57, 0
1, 170760, Note_on_c, 0, 71, 0
1, 170760, Note_on_c, 0, 83, 72
1, 170760, Note_on_c, 0, 45, 65
1, 170800, Note_on_c, 0, 45, 0
1, 170800, Note_on_c, 0, 49, 69
1, 170840, Note_on_c, 0, 49, 0
1, 170840, Note_on_c, 0, 52, 73
1, 170880, Tempo, 408163
1, 170880, Note_on_c, 0, 52, 0
1, 170880, Note_on_c, 0, 83, 0
1, 170880, Note_on_c, 0, 73, 90
1, 170880, Note_on_c, 0, 57, 85
1, 170880, Control_c, 0, 64, 0
1, 170937, Control_c, 0, 64, 127
1, 171000, Note_on_c, 0, 57, 0
1, 171000, Note_on_c, 0, 73, 0
1, 171000, Note_on_c, 0, 85, 75
1, 171120, Tempo, 410959
1, 171120, Note_on_c, 0, 85, 0
1, 171120, Note_on_c, 0, 71, 84
1, 171120, Note_on_c, 0, 57, 64
1, 171240, Note_on_c, 0, 57, 0
1, 171240, Note_on_c, 0, 71, 0
1, 171240, Note_on_c, 0, 83, 73
1, 171360, Tempo, 410959
1, 171360, Note_on_c, 0, 83, 0
1, 171360, Note_on_c, 0, 69, 87
1, 171360, Note_on_c, 0, 57, 65
1, 171480, Note_on_c, 0, 57, 0
1, 171480, Note_on_c, 0, 69, 0
1, 171480, Note_on_c, 0, 81, 74
1, 171600, Tempo, 447761
1, 171600, Note_on_c, 0, 81, 0
1, 171600, Note_on_c, 0, 68, 83
1, 171600, Note_on_c, 0, 57, 67
1, 171720, Note_on_c, 0, 57, 0
1, 171720, Note_on_c, 0, 68, 0
1, 171720, Note_on_c, 0, 80, 76
1, 171720, Note_on_c, 0, 38, 66
1, 171760, Note_on_c, 0, 38, 0
1, 171760, Note_on_c, 0, 42, 71
1, 171800, Note_on_c, 0, 42, 0
1, 171800, Note_on_c, 0, 45, 77
1, 171840, Tempo, 410959
1, 171840, Note_on_c, 0, 45, 0
1, 171840, Note_on_c, 0, 80, 0
1, 171840, Note_on_c, 0, 66, 88
1, 171840, Note_on_c, 0, 50, 85
1, 171840, Control_c, 0, 64, 0
1, 171880, Control_c, 0, 64, 127
1, 171960, Note_on_c, 0, 50, 0
1, 171960, Note_on_c, 0, 66, 0
1, 171960, Note_on_c, 0, 78, 75
1, 172080, Tempo, 419580
1, 172080, Note_on_c, 0, 78, 0
1, 172080, Note_on_c, 0, 68, 83
1, 172080, Note_on_c, 0, 50, 69
1, 172200, Note_on_c, 0, 50, 0
1, 172200, Note_on_c, 0, 68, 0
1, 172200, Note_on_c, 0, 80, 69
1, 172200, Note_on_c, 0, 39, 68
1, 172240, Note_on_c, 0, 39, 0
1, 172240, Note_on_c, 0, 42, 72
1, 172280, Note_on_c, 0, 42, 0
1, 172280, Note_on_c, 0, 45, 75
1, 172320, Tempo, 431655
1, 172320, Note_on_c, 0, 45, 0
1, 172320, Note_on_c, 0, 80, 0
1, 172320, Note_on_c, 0, 69, 79
1, 172320, Note_on_c, 0, 51, 85
1, 172324, Control_c, 0, 64, 0
1, 172357, Control_c, 0, 64, 127
1, 172440, Note_on_c, 0, 51, 0
1, 172440, Note_on_c, 0, 69, 0
1, 172440, Note_on_c, 0, 81, 71
1, 172560, Tempo, 447761
1, 172560, Note_on_c, 0, 81, 0
1, 172560, Note_on_c, 0, 71, 81
1, 172560, Note_on_c, 0, 51, 71
1, 172680, Note_on_c, 0, 51, 0
1, 172680, Note_on_c, 0, 71, 0
1, 172680, Note_on_c, 0, 83, 73
1, 172680, Note_on_c, 0, 40, 64
1, 172720, Note_on_c, 0, 40, 0
1, 172720, Note_on_c, 0, 44, 69
1, 172760, Note_on_c, 0, 44, 0
1, 172760, Note_on_c, 0, 47, 74
1, 172800, Tempo, 425532
1, 172800, Note_on_c, 0, 47, 0
1, 172800, Note_on_c, 0, 83, 0
1, 172800, Note_on_c, 0, 68, 86
1, 172800, Note_on_c, 0, 52, 85
1, 172805, Control_c, 0, 64, 0
1, 172860, Control_c, 0, 64, 127
1, 172920, Note_on_c, 0, 68, 0
1, 172920, Note_on_c, 0, 80, 73
1, 173040, Tempo, 454545
1, 173040, Note_on_c, 0, 80, 0
1, 173040, Note_on_c, 0, 52, 0
1, 173040, Note_on_c, 0, 64, 81
1, 173040, Note_on_c, 0, 52, 73
1, 173160, Note_on_c, 0, 52, 0
1, 173160, Note_on_c, 0, 64, 0
1, 173160, Note_on_c, 0, 76, 72
1, 173280, Tempo, 397351
1, 173280, Note_on_c, 0, 76, 0
1, 173280, Note_on_c, 0, 69, 83
1, 173301, Control_c, 0, 64, 0
1, 173347, Control_c, 0, 64, 127
1, 173400, Note_on_c, 0, 69, 0
1, 173400, Note_on_c, 0, 81, 73
1, 173520, Tempo, 419580
1, 173520, Note_on_c, 0, 81, 0
1, 173520, Note_on_c, 0, 71, 82
1, 173640, Note_on_c, 0, 71, 0
1, 173640, Note_on_c, 0, 83, 73
1, 173640, Note_on_c, 0, 45, 67
1, 173680, Note_on_c, 0, 45, 0
1, 173680, Note_on_c, 0, 49, 71
1, 173720, Note_on_c, 0, 49, 0
1, 173720, Note_on_c, 0, 52, 76
1, 173760, Tempo, 408163
1, 173760, Note_on_c, 0, 52, 0
1, 173760, Note_on_c, 0, 83, 0
1, 173760, Note_on_c, 0, 73, 89
1, 173760, Note_on_c, 0, 57, 84
1, 173766, Control_c, 0, 64, 0
1, 173845, Control_c, 0, 64, 127
1, 173880, Note_on_c, 0, 57, 0
1, 173880, Note_on_c, 0, 73, 0
1, 173880, Note_on_c, 0, 85, 77
1, 174000, Tempo, 419580
1, 174000, Note_on_c, 0, 85, 0
1, 174000, Note_on_c, 0, 57, 69
1, 174120, Note_on_c, 0, 57, 0
1, 174240, Tempo, 408163
1, 174240, Note_on_c, 0, 69, 85
1, 174240, Note_on_c, 0, 57, 69
1, 174360, Note_on_c, 0, 57, 0
1, 174360, Note_on_c, 0, 69, 0
1, 174360, Note_on_c, 0, 81, 76
1, 174480, Tempo, 422535
1, 174480, Note_on_c, 0, 81, 0
1, 174480, Note_on_c, 0, 71, 84
1, 174480, Note_on_c, 0, 57, 69
1, 174600, Note_on_c, 0, 57, 0
1, 174600, Note_on_c, 0, 71, 0
1, 174600, Note_on_c, 0, 83, 77
1, 174600, Note_on_c, 0, 45, 61
1, 174640, Note_on_c, 0, 45, 0
1, 174640, Note_on_c, 0, 49, 66
1, 174680, Note_on_c, 0, 49, 0
1, 174680, Note_on_c, 0, 52, 72
1, 174720, Tempo, 410959
1, 174720, Note_on_c, 0, 52, 0
1, 174720, Note_on_c, 0, 83, 0
1, 174720, Note_on_c, 0, 73, 92
1, 174720, Note_on_c, 0, 57, 87
1, 174727, Control_c, 0, 64, 0
1, 174770, Control_c, 0, 64, 127
1, 174840, Note_on_c, 0, 57, 0
1, 174840, Note_on_c, 0, 73, 0
1, 174840, Note_on_c, 0, 85, 77
1, 174960, Tempo, 413793
1, 174960, Note_on_c, 0, 85, 0
1, 174960, Note_on_c, 0, 71, 84
1, 174960, Note_on_c, 0, 57, 64
1, 175080, Note_on_c, 0, 57, 0
1, 175080, Note_on_c, 0, 71, 0
1, 175080, Note_on_c, 0, 83, 75
1, 175200, Tempo, 416667
1, 175200, Note_on_c, 0, 83, 0
1, 175200, Note_on_c, 0, 69, 88
1, 175200, Note_on_c, 0, 57, 65
1, 175320, Note_on_c, 0, 57, 0
1, 175320, Note_on_c, 0, 69, 0
1, 175320, Note_on_c, 0, 81, 77
1, 175440, Tempo, 434783
1, 175440, Note_on_c, 0, 81, 0
1, 175440, Note_on_c, 0, 68, 84
1, 175440, Note_on_c, 0, 57, 67
1, 175560, Note_on_c, 0, 57, 0
1, 175560, Note_on_c, 0, 68, 0
1, 175560, Note_on_c, 0, 80, 75
1, 175560, Note_on_c, 0, 38, 68
1, 175600, Note_on_c, 0, 38, 0
1, 175600, Note_on_c, 0, 42, 72
1, 175640, Note_on_c, 0, 42, 0
1, 175640, Note_on_c, 0, 45, 76
1, 175680, Tempo, 413793
1, 175680, Note_on_c, 0, 45, 0
1, 175680, Note_on_c, 0, 80, 0
1, 175680, Note_on_c, 0, 66, 91
1, 175680, Note_on_c, 0, 50, 83
1, 175689, Control_c, 0, 64, 0
1, 175754, Control_c, 0, 64, 127
1, 175800, Note_on_c, 0, 50, 0
1, 175800, Note_on_c, 0, 66, 0
1, 175800, Note_on_c, 0, 78, 79
1, 175920, Tempo, 434783
1, 175920, Note_on_c, 0, 78, 0
1, 175920, Note_on_c, 0, 71, 82
1, 175920, Note_on_c, 0, 50, 69
1, 176040, Note_on_c, 0, 50, 0
1, 176040, Note_on_c, 0, 71, 0
1, 176040, Note_on_c, 0, 83, 72
1, 176040, Note_on_c, 0, 40, 67
1, 176080, Note_on_c, 0, 40, 0
1, 176080, Note_on_c, 0, 44, 72
1, 176120, Note_on_c, 0, 44, 0
1, 176120, Note_on_c, 0, 47, 78
1, 176160, Tempo, 451128
1, 176160, Note_on_c, 0, 47, 0
1, 176160, Note_on_c, 0, 83, 0
1, 176160, Note_on_c, 0, 68, 86
1, 176160, Note_on_c, 0, 52, 82
1, 176168, Control_c, 0, 64, 0
1, 176197, Control_c, 0, 64, 127
1, 176280, Note_on_c, 0, 52, 0
1, 176280, Note_on_c, 0, 68, 0
1, 176280, Note_on_c, 0, 80, 75
1, 176400, Tempo, 465116
1, 176400, Note_on_c, 0, 80, 0
1, 176400, Note_on_c, 0, 64, 80
1, 176400, Note_on_c, 0, 52, 71
1, 176520, Note_on_c, 0, 52, 0
1, 176520, Note_on_c, 0, 64, 0
1, 176520, Note_on_c, 0, 76, 74
1, 176640, Tempo, 451128
1, 176640, Note_on_c, 0, 76, 0
1, 176640, Note_on_c, 0, 69, 78
1, 176640, Note_on_c, 0, 81, 90
1, 176640, Note_on_c, 0, 45, 84
1, 176650, Control_c, 0, 64, 0
1, 176748, Control_c, 0, 64, 127
1, 176986, Control_c, 0, 64, 0
1, 177090, Note_on_c, 0, 45, 0
1, 177090, Note_on_c, 0, 81, 0
1, 177090, Note_on_c, 0, 69, 0
1, 177120, Tempo, 405405
1, 177120, Note_on_c, 0, 69, 82
1, 177163, Control_c, 0, 64, 127
1, 177240, Note_on_c, 0, 69, 0
1, 177240, Note_on_c, 0, 81, 79
1, 177360, Tempo, 431655
1, 177360, Note_on_c, 0, 81, 0
1, 177360, Note_on_c, 0, 71, 83
1, 177480, Note_on_c, 0, 71, 0
1, 177480, Note_on_c, 0, 83, 80
1, 177480, Note_on_c, 0, 45, 64
1, 177520, Note_on_c, 0, 45, 0
1, 177520, Note_on_c, 0, 49, 70
1, 177560, Note_on_c, 0, 49, 0
1, 177560, Note_on_c, 0, 52, 76
1, 177600, Tempo, 408163
1, 177600, Note_on_c, 0, 52, 0
1, 177600, Note_on_c, 0, 83, 0
1, 177600, Note_on_c, 0, 73, 89
1, 177600, Note_on_c, 0, 57, 87
1, 177608, Control_c, 0, 64, 0
1, 177646, Control_c, 0, 64, 127
1, 177720, Note_on_c, 0, 57, 0
1, 177720, Note_on_c, 0, 73, 0
1, 177720, Note_on_c, 0, 85, 84
1, 177840, Tempo, 422535
1, 177840, Note_on_c, 0, 85, 0
1, 177840, Note_on_c, 0, 57, 69
1, 177960, Note_on_c, 0, 57, 0
1, 178080, Tempo, 413793
1, 178080, Note_on_c, 0, 69, 85
1, 178080, Note_on_c, 0, 57, 69
1, 178200, Note_on_c, 0, 57, 0
1, 178200, Note_on_c, 0, 69, 0
1, 178200, Note_on_c, 0, 81, 73
1, 178320, Tempo, 422535
1, 178320, Note_on_c, 0, 81, 0
1, 178320, Note_on_c, 0, 71, 84
1, 178320, Note_on_c, 0, 57, 69
1, 178440, Note_on_c, 0, 57, 0
1, 178440, Note_on_c, 0, 71, 0
1, 178440, Note_on_c, 0, 83, 72
1, 178440, Note_on_c, 0, 45, 65
1, 178480, Note_on_c, 0, 45, 0
1, 178480, Note_on_c, 0, 49, 69
1, 178520, Note_on_c, 0, 49, 0
1, 178520, Note_on_c, 0, 52, 73
1, 178560, Tempo, 408163
1, 178560, Note_on_c, 0, 52, 0
1, 178560, Note_on_c, 0, 83, 0
1, 178560, Note_on_c, 0, 73, 90
1, 178560, Note_on_c, 0, 57, 85
1, 178560, Control_c, 0, 64, 0
1, 178617, Control_c, 0, 64, 127
1, 178680, Note_on_c, 0, 57, 0
1, 178680, Note_on_c, 0, 73, 0
1, 178680, Note_on_c, 0, 85, 75
1, 178800, Tempo, 410959
1, 178800, Note_on_c, 0, 85, 0
1, 178800, Note_on_c, 0, 71, 84
1, 178800, Note_on_c, 0, 57, 64
1, 178920, Note_on_c, 0, 57, 0
1, 178920, Note_on_c, 0, 71, 0
1, 178920, Note_on_c, 0, 83, 73
1, 179040, Tempo, 410959
1, 179040, Note_on_c, 0, 83, 0
1, 179040, Note_on_c, 0, 69, 87
1, 179040, Note_on_c, 0, 57, 65
1, 179160, Note_on_c, 0, 57, 0
1, 179160, Note_on_c, 0, 69, 0
1, 179160, Note_on_c, 0, 81, 74
1, 179280, Tempo, 447761
1, 179280, Note_on_c, 0, 81, 0
1, 179280, Note_on_c, 0, 68, 83
1, 179280, Note_on_c, 0, 57, 67
1, 179400, Note_on_c, 0, 57, 0
1, 179400, Note_on_c, 0, 68, 0
1, 179400, Note_on_c, 0, 80, 76
1, 179400, Note_on_c, 0, 38, 66
1, 179440, Note_on_c, 0, 38, 0
1, 179440, Note_on_c, 0, 42, 71
1, 179480, Note_on_c, 0, 42, 0
1, 179480, Note_on_c, 0, 45, 77
1, 179520, Tempo, 410959
1, 179520, Note_on_c, 0, 45, 0
1, 179520, Note_on_c, 0, 80, 0
1, 179520, Note_on_c, 0, 66, 88
1, 179520, Note_on_c, 0, 50, 85
1, 179520, Control_c, 0, 64, 0
1, 179560, Control_c, 0, 64, 127
1, 179640, Note_on_c, 0, 50, 0
1, 179640, Note_on_c, 0, 66, 0
1, 179640, Note_on_c, 0, 78, 75
1, 179760, Tempo, 419580
1, 179760, Note_on_c, 0, 78, 0
1, 179760, Note_on_c, 0, 68, 83
1, 179760, Note_on_c, 0, 50, 69
1, 179880, Note_on_c, 0, 50, 0
1, 179880, Note_on_c, 0, 68, 0
1, 179880, Note_on_c, 0, 80, 69
1, 179880, Note_on_c, 0, 39, 68
1, 179920, Note_on_c, 0, 39, 0
1, 179920, Note_on_c, 0, 42, 72
1, 179960, Note_on_c, 0, 42, 0
1, 179960, Note_on_c, 0, 45, 75
1, 180000, Tempo, 431655
1, 180000, Note_on_c, 0, 45, 0
1, 180000, Note_on_c, 0, 80, 0
1, 180000, Note_on_c, 0, 69, 79
1, 180000, Note_on_c, 0, 51, 85
1, 180004, Control_c, 0, 64, 0
1, 180037, Control_c, 0, 64, 127
1, 180120, Note_on_c, 0, 51, 0
1, 180120, Note_on_c, 0, 69, 0
1, 180120, Note_on_c, 0, 81, 71
1, 180240, Tempo, 447761
1, 180240, Note_on_c, 0, 81, 0
1, 180240, Note_on_c, 0, 71, 81
1, 180240, Note_on_c, 0, 51, 71
1, 180360, Note_on_c, 0, 51, 0
1, 180360, Note_on_c, 0, 71, 0
1, 180360, Note_on_c, 0, 83, 73
1, 180360, Note_on_c, 0, 40, 64
1, 180400, Note_on_c, 0, 40, 0
1, 180400, Note_on_c, 0, 44, 69
1, 180440, Note_on_c, 0, 44, 0
1, 180440, Note_on_c, 0, 47, 74
1, 180480, Tempo, 425532
1, 180480, Note_on_c, 0, 47, 0
1, 180480, Note_on_c, 0, 83, 0
1, 180480, Note_on_c, 0, 68, 86
1, 180480, Note_on_c, 0, 52, 85
1, 180485, Control_c, 0, 64, 0
1, 180540, Control_c, 0, 64, 127
1, 180600, Note_on_c, 0, 68, 0
1, 180600, Note_on_c, 0, 80, 73
1, 180720, Tempo, 441176
1, 180720, Note_on_c, 0, 80, 0
1, 180720, Note_on_c, 0, 52, 0
1, 180720, Note_on_c, 0, 64, 81
1, 180720, Note_on_c, 0, 52, 73
1, 180840, Note_on_c, 0, 52, 0
1, 180840, Note_on_c, 0, 64, 0
1, 180840, Note_on_c, 0, 76, 72
1, 180960, Tempo, 397351
1, 180960, Note_on_c, 0, 76, 0
1, 180960, Note_on_c, 0, 69, 83
1, 180981, Control_c, 0, 64, 0
1, 181027, Control_c, 0, 64, 127
1, 181080, Note_on_c, 0, 69, 0
1, 181080, Note_on_c, 0, 81, 73
1, 181200, Tempo, 419580
1, 181200, Note_on_c, 0, 81, 0
1, 181200, Note_on_c, 0, 71, 82
1, 181320, Note_on_c, 0, 71, 0
1, 181320, Note_on_c, 0, 83, 73
1, 181320, Note_on_c, 0, 45, 67
1, 181360, Note_on_c, 0, 45, 0
1, 181360, Note_on_c, 0, 49, 71
1, 181400, Note_on_c, 0, 49, 0
1, 181400, Note_on_c, 0, 52, 76
1, 181440, Tempo, 408163
1, 181440, Note_on_c, 0, 52, 0
1, 181440, Note_on_c, 0, 83, 0
1, 181440, Note_on_c, 0, 73, 89
1, 181440, Note_on_c, 0, 57, 84
1, 181446, Control_c, 0, 64, 0
1, 181525, Control_c, 0, 64, 127
1, 181560, Note_on_c, 0, 57, 0
1, 181560, Note_on_c, 0, 73, 0
1, 181560, Note_on_c, 0, 85, 77
1, 181680, Tempo, 419580
1, 181680, Note_on_c, 0, 85, 0
1, 181680, Note_on_c, 0, 57, 69
1, 181800, Note_on_c, 0, 57, 0
1, 181920, Tempo, 408163
1, 181920, Note_on_c, 0, 69, 85
1, 181920, Note_on_c, 0, 57, 69
1, 182040, Note_on_c, 0, 57, 0
1, 182040, Note_on_c, 0, 69, 0
1, 182040, Note_on_c, 0, 81, 76
1, 182160, Tempo, 422535
1, 182160, Note_on_c, 0, 81, 0
1, 182160, Note_on_c, 0, 71, 84
1, 182160, Note_on_c, 0, 57, 69
1, 182280, Note_on_c, 0, 57, 0
1, 182280, Note_on_c, 0, 71, 0
1, 182280, Note_on_c, 0, 83, 77
1, 182280, Note_on_c, 0, 45, 61
1, 182320, Note_on_c, 0, 45, 0
1, 182320, Note_on_c, 0, 49, 66
1, 182360, Note_on_c, 0, 49, 0
1, 182360, Note_on_c, 0, 52, 72
1, 182400, Tempo, 410959
1, 182400, Note_on_c, 0, 52, 0
1, 182400, Note_on_c, 0, 83, 0
1, 182400, Note_on_c, 0, 73, 92
1, 182400, Note_on_c, 0, 57, 87
1, 182407, Control_c, 0, 64, 0
1, 182450, Control_c, 0, 64, 127
1, 182520, Note_on_c, 0, 57, 0
1, 182520, Note_on_c, 0, 73, 0
1, 182520, Note_on_c, 0, 85, 77
1, 182640, Tempo, 413793
1, 182640, Note_on_c, 0, 85, 0
1, 182640, Note_on_c, 0, 71, 84
1, 182640, Note_on_c, 0, 57, 64
1, 182760, Note_on_c, 0, 57, 0
1, 182760, Note_on_c, 0, 71, 0
1, 182760, Note_on_c, 0, 83, 75
1, 182880, Tempo, 416667
1, 182880, Note_on_c, 0, 83, 0
1, 182880, Note_on_c, 0, 69, 88
1, 182880, Note_on_c, 0, 57, 65
1, 183000, Note_on_c, 0, 57, 0
1, 183000, Note_on_c, 0, 69, 0
1, 183000, Note_on_c, 0, 81, 77
1, 183120, Tempo, 434783
1, 183120, Note_on_c, 0, 81, 0
1, 183120, Note_on_c, 0, 68, 84
1, 183120, Note_on_c, 0, 57, 67
1, 183240, Note_on_c, 0, 57, 0
1, 183240, Note_on_c, 0, 68, 0
1, 183240, Note_on_c, 0, 80, 75
1, 183240, Note_on_c, 0, 38, 68
1, 183280, Note_on_c, 0, 38, 0
1, 183280, Note_on_c, 0, 42, 72
1, 183320, Note_on_c, 0, 42, 0
1, 183320, Note_on_c, 0, 45, 76
1, 183360, Tempo, 413793
1, 183360, Note_on_c, 0, 45, 0
1, 183360, Note_on_c, 0, 80, 0
1, 183360, Note_on_c, 0, 66, 91
1, 183360, Note_on_c, 0, 50, 83
1, 183369, Control_c, 0, 64, 0
1, 183434, Control_c, 0, 64, 127
1, 183480, Note_on_c, 0, 50, 0
1, 183480, Note_on_c, 0, 66, 0
1, 183480, Note_on_c, 0, 78, 79
1, 183600, Tempo, 434783
1, 183600, Note_on_c, 0, 78, 0
1, 183600, Note_on_c, 0, 71, 82
1, 183600, Note_on_c, 0, 50, 69
1, 183720, Note_on_c, 0, 50, 0
1, 183720, Note_on_c, 0, 71, 0
1, 183720, Note_on_c, 0, 83, 72
1, 183720, Note_on_c, 0, 40, 67
1, 183760, Note_on_c, 0, 40, 0
1, 183760, Note_on_c, 0, 44, 72
1, 183800, Note_on_c, 0, 44, 0
1, 183800, Note_on_c, 0, 47, 78
1, 183840, Tempo, 451128
1, 183840, Note_on_c, 0, 47, 0
1, 183840, Note_on_c, 0, 83, 0
1, 183840, Note_on_c, 0, 68, 86
1, 183840, Note_on_c, 0, 52, 82
1, 183848, Control_c, 0, 64, 0
1, 183877, Control_c, 0, 64, 127
1, 183960, Note_on_c, 0, 52, 0
1, 183960, Note_on_c, 0, 68, 0
1, 183960, Note_on_c, 0, 80, 75
1, 184080, Tempo, 465116
1, 184080, Note_on_c, 0, 80, 0
1, 184080, Note_on_c, 0, 64, 80
1, 184080, Note_on_c, 0, 52, 71
1, 184200, Tempo, 422535
1, 184200, Note_on_c, 0, 52, 0
1, 184200, Note_on_c, 0, 64, 0
1, 184200, Note_on_c, 0, 76, 74
1, 184200, Note_on_c, 0, 45, 61
1, 184240, Note_on_c, 0, 45, 0
1, 184240, Note_on_c, 0, 49, 66
1, 184280, Note_on_c, 0, 49, 0
1, 184280, Note_on_c, 0, 52, 72
1, 184320, Tempo, 410959
1, 184320, Note_on_c, 0, 52, 0
1, 184320, Note_on_c, 0, 76, 0
1, 184320, Note_on_c, 0, 69, 78
1, 184320, Note_on_c, 0, 81, 90
1, 184320, Note_on_c, 0, 57, 87
1, 184330, Control_c, 0, 64, 0
1, 184428, Control_c, 0, 64, 127
1, 184440, Note_on_c, 0, 57, 0
1, 184560, Tempo, 413793
1, 184560, Note_on_c, 0, 57, 64
1, 184680, Note_on_c, 0, 57, 0
1, 184800, Tempo, 416667
1, 184800, Note_on_c, 0, 81, 0
1, 184800, Note_on_c, 0, 69, 0
1, 184800, Note_on_c, 0, 85, 90
1, 184800, Note_on_c, 0, 73, 78
1, 184800, Note_on_c, 0, 57, 65
1, 184920, Note_on_c, 0, 57, 0
1, 185040, Tempo, 434783
1, 185040, Note_on_c, 0, 57, 64
1, 185160, Tempo, 422535
1, 185160, Note_on_c, 0, 57, 0
1, 185160, Note_on_c, 0, 85, 0
1, 185160, Note_on_c, 0, 85, 90
1, 185160, Note_on_c, 0, 45, 61
1, 185184, Control_c, 0, 64, 0
1, 185200, Note_on_c, 0, 45, 0
1, 185200, Note_on_c, 0, 49, 66
1, 185227, Control_c, 0, 64, 127
1, 185240, Note_on_c, 0, 49, 0
1, 185240, Note_on_c, 0, 52, 72
1, 185250, Note_on_c, 0, 85, 0
1, 185250, Note_on_c, 0, 73, 74
1, 185260, Note_on_c, 0, 76, 77
1, 185270, Note_on_c, 0, 81, 80
1, 185280, Tempo, 410959
1, 185280, Marker_t, "Coda"
1, 185280, Note_on_c, 0, 52, 0
1, 185280, Note_on_c, 0, 73, 0
1, 185280, Note_on_c, 0, 85, 90
1, 185280, Note_on_c, 0, 57, 87
1, 185400, Note_on_c, 0, 57, 0
1, 185520, Tempo, 413793
1, 185520, Note_on_c, 0, 57, 68
1, 185640, Note_on_c, 0, 57, 0
1, 185760, Tempo, 416667
1, 185760, Note_on_c, 0, 76, 0
1, 185760, Note_on_c, 0, 81, 0
1, 185760, Note_on_c, 0, 73, 0
1, 185760, Note_on_c, 0, 57, 68
1, 185880, Note_on_c, 0, 57, 0
1, 186000, Tempo, 434783
1, 186000, Note_on_c, 0, 57, 68
1, 186120, Tempo, 422535
1, 186120, Note_on_c, 0, 57, 0
1, 186120, Note_on_c, 0, 45, 61
1, 186145, Control_c, 0, 64, 0
1, 186160, Note_on_c, 0, 45, 0
1, 186160, Note_on_c, 0, 49, 66
1, 186177, Control_c, 0, 64, 127
1, 186200, Note_on_c, 0, 49, 0
1, 186200, Note_on_c, 0, 52, 72
1, 186210, Note_on_c, 0, 73, 74
1, 186220, Note_on_c, 0, 76, 77
1, 186230, Note_on_c, 0, 81, 80
1, 186240, Tempo, 410959
1, 186240, Note_on_c, 0, 52, 0
1, 186240, Note_on_c, 0, 85, 0
1, 186240, Note_on_c, 0, 85, 90
1, 186240, Note_on_c, 0, 57, 87
1, 186360, Note_on_c, 0, 57, 0
1, 186480, Tempo, 413793
1, 186480, Note_on_c, 0, 57, 68
1, 186600, Note_on_c, 0, 57, 0
1, 186720, Tempo, 416667
1, 186720, Note_on_c, 0, 76, 0
1, 186720, Note_on_c, 0, 81, 0
1, 186720, Note_on_c, 0, 73, 0
1, 186720, Note_on_c, 0, 57, 68
1, 186840, Note_on_c, 0, 57, 0
1, 186960, Tempo, 434783
1, 186960, Note_on_c, 0, 57, 68
1, 187080, Tempo, 422535
1, 187080, Note_on_c, 0, 57, 0
1, 187080, Note_on_c, 0, 45, 61
1, 187084, Control_c, 0, 64, 0
1, 187120, Note_on_c, 0, 45, 0
1, 187120, Note_on_c, 0, 49, 66
1, 187130, Control_c, 0, 64, 127
1, 187160, Note_on_c, 0, 49, 0
1, 187160, Note_on_c, 0, 52, 72
1, 187200, Tempo, 410959
1, 187200, Note_on_c, 0, 52, 0
1, 187200, Note_on_c, 0, 85, 0
1, 187200, Note_on_c, 0, 86, 90
1, 187200, Note_on_c, 0, 57, 87
1, 187320, Note_on_c, 0, 57, 0
1, 187320, Note_on_c, 0, 86, 0
1, 187320, Note_on_c, 0, 85, 87
1, 187440, Tempo, 413793
1, 187440, Note_on_c, 0, 85, 0
1, 187440, Note_on_c, 0, 83, 86
1, 187440, Note_on_c, 0, 57, 67
1, 187500, Note_on_c, 0, 83, 0
1, 187560, Note_on_c, 0, 57, 0
1, 187560, Note_on_c, 0, 85, 86
1, 187620, Note_on_c, 0, 85, 0
1, 187680, Tempo, 416667
1, 187680, Note_on_c, 0, 86, 90
1, 187680, Note_on_c, 0, 57, 67
1, 187800, Note_on_c, 0, 57, 0
1, 187800, Note_on_c, 0, 86, 0
1, 187800, Note_on_c, 0, 85, 84
1, 187920, Tempo, 434783
1, 187920, Note_on_c, 0, 85, 0
1, 187920, Note_on_c, 0, 83, 84
1, 187920, Note_on_c, 0, 57, 67
1, 187980, Note_on_c, 0, 83, 0
1, 188040, Tempo, 465116
1, 188040, Note_on_c, 0, 57, 0
1, 188040, Note_on_c, 0, 85, 85
1, 188040, Note_on_c, 0, 38, 61
1, 188080, Note_on_c, 0, 38, 0
1, 188080, Note_on_c, 0, 42, 66
1, 188100, Note_on_c, 0, 85, 0
1, 188100, Control_c, 0, 64, 0
1, 188120, Note_on_c, 0, 42, 0
1, 188120, Note_on_c, 0, 45, 72
1, 188128, Control_c, 0, 64, 127
1, 188160, Tempo, 410959
1, 188160, Note_on_c, 0, 45, 0
1, 188160, Note_on_c, 0, 78, 80
1, 188160, Note_on_c, 0, 81, 80
1, 188160, Note_on_c, 0, 86, 90
1, 188160, Note_on_c, 0, 50, 87
1, 188280, Note_on_c, 0, 50, 0
1, 188400, Tempo, 413793
1, 188400, Note_on_c, 0, 50, 67
1, 188520, Note_on_c, 0, 50, 0
1, 188640, Tempo, 416667
1, 188640, Note_on_c, 0, 50, 67
1, 188760, Note_on_c, 0, 50, 0
1, 188873, Note_on_c, 0, 50, 67
1, 188880, Tempo, 434783
1, 188993, Note_on_c, 0, 50, 0
1, 189000, Tempo, 422535
1, 189000, Note_on_c, 0, 45, 61
1, 189025, Control_c, 0, 64, 0
1, 189040, Note_on_c, 0, 45, 0
1, 189040, Note_on_c, 0, 49, 66
1, 189067, Control_c, 0, 64, 127
1, 189080, Note_on_c, 0, 49, 0
1, 189080, Note_on_c, 0, 52, 72
1, 189090, Note_on_c, 0, 86, 76
1, 189120, Tempo, 422535
1, 189120, Note_on_c, 0, 86, 0
1, 189120, Note_on_c, 0, 86, 0
1, 189120, Note_on_c, 0, 78, 0
1, 189120, Note_on_c, 0, 81, 0
1, 189120, Note_on_c, 0, 52, 0
1, 189120, Note_on_c, 0, 76, 76
1, 189120, Note_on_c, 0, 81, 76
1, 189120, Note_on_c, 0, 85, 90
1, 189120, Note_on_c, 0, 57, 87
1, 189180, Note_on_c, 0, 57, 0
1, 189180, Note_on_c, 0, 76, 0
1, 189180, Note_on_c, 0, 81, 0
1, 189180, Note_on_c, 0, 85, 0
1, 189198, Control_c, 0, 64, 0
1, 189330, Note_on_c, 0, 86, 76
1, 189360, Tempo, 413793
1, 189360, Note_on_c, 0, 86, 0
1, 189360, Note_on_c, 0, 76, 72
1, 189360, Note_on_c, 0, 81, 72
1, 189360, Note_on_c, 0, 85, 85
1, 189360, Note_on_c, 0, 57, 67
1, 189420, Note_on_c, 0, 57, 0
1, 189420, Note_on_c, 0, 76, 0
1, 189420, Note_on_c, 0, 81, 0
1, 189420, Note_on_c, 0, 85, 0
1, 189570, Note_on_c, 0, 86, 76
1, 189600, Tempo, 416667
1, 189600, Note_on_c, 0, 86, 0
1, 189600, Note_on_c, 0, 76, 72
1, 189600, Note_on_c, 0, 81, 72
1, 189600, Note_on_c, 0, 85, 85
1, 189600, Note_on_c, 0, 57, 67
1, 189660, Note_on_c, 0, 57, 0
1, 189660, Note_on_c, 0, 76, 0
1, 189660, Note_on_c, 0, 81, 0
1, 189660, Note_on_c, 0, 85, 0
1, 189810, Note_on_c, 0, 86, 76
1, 189840, Tempo, 434783
1, 189840, Note_on_c, 0, 86, 0
1, 189840, Note_on_c, 0, 76, 72
1, 189840, Note_on_c, 0, 81, 72
1, 189840, Note_on_c, 0, 85, 85
1, 189840, Note_on_c, 0, 57, 67
1, 189900, Note_on_c, 0, 57, 0
1, 189900, Note_on_c, 0, 76, 0
1, 189900, Note_on_c, 0, 81, 0
1, 189900, Note_on_c, 0, 85, 0
1, 189960, Tempo, 422535
1, 189960, Note_on_c, 0, 40, 61
1, 189995, Control_c, 0, 64, 127
1, 190000, Note_on_c, 0, 40, 0
1, 190000, Note_on_c, 0, 44, 66
1, 190040, Note_on_c, 0, 44, 0
1, 190040, Note_on_c, 0, 47, 72
1, 190080, Tempo, 410959
1, 190080, Note_on_c, 0, 47, 0
1, 190080, Note_on_c, 0, 76, 80
1, 190080, Note_on_c, 0, 80, 80
1, 190080, Note_on_c, 0, 83, 90
1, 190080, Note_on_c, 0, 52, 87
1, 190200, Note_on_c, 0, 52, 0
1, 190320, Tempo, 413793
1, 190320, Note_on_c, 0, 52, 66
1, 190440, Note_on_c, 0, 52, 0
1, 190560, Tempo, 416667
1, 190560, Note_on_c, 0, 52, 66
1, 190680, Note_on_c, 0, 52, 0
1, 190800, Tempo, 441176
1, 190800, Note_on_c, 0, 52, 66
1, 190920, Tempo, 625000
1, 190920, Note_on_c, 0, 52, 0
1, 190920, Note_on_c, 0, 83, 0
1, 190920, Note_on_c, 0, 88, 103
1, 190920, Note_on_c, 0, 45, 61
1, 190944, Control_c, 0, 64, 0
1, 190960, Note_on_c, 0, 45, 0
1, 190960, Note_on_c, 0, 49, 66
1, 190991, Control_c, 0, 64, 127
1, 191000, Note_on_c, 0, 49, 0
1, 191000, Note_on_c, 0, 52, 72
1, 191010, Note_on_c, 0, 88, 0
1, 191010, Note_on_c, 0, 73, 74
1, 191020, Note_on_c, 0, 76, 77
1, 191030, Note_on_c, 0, 81, 80
1, 191040, Tempo, 410959
1, 191040, Note_on_c, 0, 76, 0
1, 191040, Note_on_c, 0, 52, 0
1, 191040, Note_on_c, 0, 80, 0
1, 191040, Note_on_c, 0, 85, 90
1, 191040, Note_on_c, 0, 57, 87
1, 191160, Note_on_c, 0, 57, 0
1, 191280, Tempo, 413793
1, 191280, Note_on_c, 0, 57, 68
1, 191400, Note_on_c, 0, 57, 0
1, 191520, Tempo, 416667
1, 191520, Note_on_c, 0, 73, 0
1, 191520, Note_on_c, 0, 81, 0
1, 191520, Note_on_c, 0, 76, 0
1, 191520, Note_on_c, 0, 57, 68
1, 191640, Note_on_c, 0, 57, 0
1, 191760, Tempo, 434783
1, 191760, Note_on_c, 0, 57, 68
1, 191880, Tempo, 422535
1, 191880, Note_on_c, 0, 57, 0
1, 191880, Note_on_c, 0, 45, 61
1, 191905, Control_c, 0, 64, 0
1, 191920, Note_on_c, 0, 45, 0
1, 191920, Note_on_c, 0, 49, 66
1, 191951, Control_c, 0, 64, 127
1, 191960, Note_on_c, 0, 49, 0
1, 191960, Note_on_c, 0, 52, 72
1, 191970, Note_on_c, 0, 73, 74
1, 191980, Note_on_c, 0, 76, 77
1, 191990, Note_on_c, 0, 81, 80
1, 192000, Tempo, 410959
1, 192000, Note_on_c, 0, 52, 0
1, 192000, Note_on_c, 0, 85, 0
1, 192000, Note_on_c, 0, 85, 90
1, 192000, Note_on_c, 0, 57, 87
1, 192120, Note_on_c, 0, 57, 0
1, 192240, Tempo, 413793
1, 192240, Note_on_c, 0, 57, 66
1, 192360, Note_on_c, 0, 57, 0
1, 192480, Tempo, 416667
1, 192480, Note_on_c, 0, 76, 0
1, 192480, Note_on_c, 0, 81, 0
1, 192480, Note_on_c, 0, 73, 0
1, 192480, Note_on_c, 0, 57, 66
1, 192600, Note_on_c, 0, 57, 0
1, 192720, Tempo, 434783
1, 192720, Note_on_c, 0, 57, 66
1, 192840, Tempo, 422535
1, 192840, Note_on_c, 0, 57, 0
1, 192840, Note_on_c, 0, 45, 61
1, 192844, Control_c, 0, 64, 0
1, 192880, Note_on_c, 0, 45, 0
1, 192880, Note_on_c, 0, 49, 66
1, 192883, Control_c, 0, 64, 127
1, 192920, Note_on_c, 0, 49, 0
1, 192920, Note_on_c, 0, 52, 72
1, 192960, Tempo, 410959
1, 192960, Note_on_c, 0, 52, 0
1, 192960, Note_on_c, 0, 85, 0
1, 192960, Note_on_c, 0, 86, 90
1, 192960, Note_on_c, 0, 57, 87
1, 193080, Note_on_c, 0, 57, 0
1, 193080, Note_on_c, 0, 86, 0
1, 193080, Note_on_c, 0, 85, 87
1, 193200, Tempo, 413793
1, 193200, Note_on_c, 0, 85, 0
1, 193200, Note_on_c, 0, 83, 86
1, 193200, Note_on_c, 0, 57, 66
1, 193260, Note_on_c, 0, 83, 0
1, 193320, Note_on_c, 0, 57, 0
1, 193320, Note_on_c, 0, 85, 86
1, 193380, Note_on_c, 0, 85, 0
1, 193440, Tempo, 416667
1, 193440, Note_on_c, 0, 86, 90
1, 193440, Note_on_c, 0, 57, 66
1, 193560, Note_on_c, 0, 57, 0
1, 193560, Note_on_c, 0, 86, 0
1, 193560, Note_on_c, 0, 85, 84
1, 193680, Tempo, 434783
1, 193680, Note_on_c, 0, 85, 0
1, 193680, Note_on_c, 0, 83, 84
1, 193680, Note_on_c, 0, 57, 66
1, 193740, Note_on_c, 0, 83, 0
1, 193800, Tempo, 465116
1, 193800, Note_on_c, 0, 57, 0
1, 193800, Note_on_c, 0, 85, 85
1, 193800, Note_on_c, 0, 38, 61
1, 193807, Control_c, 0, 64, 0
1, 193840, Note_on_c, 0, 38, 0
1, 193840, Note_on_c, 0, 42, 66
1, 193860, Note_on_c, 0, 85, 0
1, 193880, Note_on_c, 0, 42, 0
1, 193880, Note_on_c, 0, 45, 72
1, 193885, Control_c, 0, 64, 127
1, 193920, Tempo, 410959
1, 193920, Note_on_c, 0, 45, 0
1, 193920, Note_on_c, 0, 78, 80
1, 193920, Note_on_c, 0, 81, 80
1, 193920, Note_on_c, 0, 86, 90
1, 193920, Note_on_c, 0, 50, 87
1, 194040, Note_on_c, 0, 50, 0
1, 194160, Tempo, 413793
1, 194160, Note_on_c, 0, 50, 66
1, 194280, Note_on_c, 0, 50, 0
1, 194400, Tempo, 416667
1, 194400, Note_on_c, 0, 50, 66
1, 194520, Note_on_c, 0, 50, 0
1, 194633, Note_on_c, 0, 50, 66
1, 194640, Tempo, 434783
1, 194753, Note_on_c, 0, 50, 0
1, 194760, Tempo, 422535
1, 194760, Note_on_c, 0, 45, 61
1, 194785, Control_c, 0, 64, 0
1, 194800, Note_on_c, 0, 45, 0
1, 194800, Note_on_c, 0, 49, 66
1, 194840, Note_on_c, 0, 49, 0
1, 194840, Note_on_c, 0, 52, 72
1, 194850, Note_on_c, 0, 86, 76
1, 194880, Tempo, 422535
1, 194880, Note_on_c, 0, 86, 0
1, 194880, Note_on_c, 0, 86, 0
1, 194880, Note_on_c, 0, 78, 0
1, 194880, Note_on_c, 0, 81, 0
1, 194880, Note_on_c, 0, 52, 0
1, 194880, Note_on_c, 0, 76, 76
1, 194880, Note_on_c, 0, 81, 76
1, 194880, Note_on_c, 0, 85, 90
1, 194880, Note_on_c, 0, 57, 87
1, 194908, Control_c, 0, 64, 127
1, 195000, Note_on_c, 0, 57, 0
1, 195120, Tempo, 413793
1, 195120, Note_on_c, 0, 57, 66
1, 195240, Note_on_c, 0, 57, 0
1, 195360, Tempo, 416667
1, 195360, Note_on_c, 0, 57, 66
1, 195480, Note_on_c, 0, 57, 0
1, 195600, Tempo, 434783
1, 195600, Note_on_c, 0, 57, 66
1, 195720, Tempo, 422535
1, 195720, Note_on_c, 0, 57, 0
1, 195720, Note_on_c, 0, 40, 61
1, 195720, Control_c, 0, 64, 0
1, 195760, Note_on_c, 0, 40, 0
1, 195760, Note_on_c, 0, 44, 66
1, 195798, Control_c, 0, 64, 127
1, 195800, Note_on_c, 0, 44, 0
1, 195800, Note_on_c, 0, 47, 72
1, 195810, Note_on_c, 0, 85, 76
1, 195840, Tempo, 410959
1, 195840, Note_on_c, 0, 85, 0
1, 195840, Note_on_c, 0, 85, 0
1, 195840, Note_on_c, 0, 76, 0
1, 195840, Note_on_c, 0, 81, 0
1, 195840, Note_on_c, 0, 47, 0
1, 195840, Note_on_c, 0, 76, 76
1, 195840, Note_on_c, 0, 80, 76
1, 195840, Note_on_c, 0, 83, 90
1, 195840, Note_on_c, 0, 52, 87
1, 195900, Note_on_c, 0, 52, 0
1, 195900, Note_on_c, 0, 76, 0
1, 195900, Note_on_c, 0, 80, 0
1, 195900, Note_on_c, 0, 83, 0
1, 196050, Note_on_c, 0, 85, 76
1, 196080, Tempo, 413793
1, 196080, Note_on_c, 0, 85, 0
1, 196080, Note_on_c, 0, 76, 72
1, 196080, Note_on_c, 0, 80, 72
1, 196080, Note_on_c, 0, 83, 85
1, 196080, Note_on_c, 0, 52, 66
1, 196140, Note_on_c, 0, 52, 0
1, 196140, Note_on_c, 0, 76, 0
1, 196140, Note_on_c, 0, 80, 0
1, 196140, Note_on_c, 0, 83, 0
1, 196290, Note_on_c, 0, 85, 76
1, 196320, Tempo, 416667
1, 196320, Note_on_c, 0, 85, 0
1, 196320, Note_on_c, 0, 76, 72
1, 196320, Note_on_c, 0, 80, 72
1, 196320, Note_on_c, 0, 83, 85
1, 196320, Note_on_c, 0, 52, 65
1, 196380, Note_on_c, 0, 52, 0
1, 196380, Note_on_c, 0, 76, 0
1, 196380, Note_on_c, 0, 80, 0
1, 196380, Note_on_c, 0, 83, 0
1, 196530, Note_on_c, 0, 85, 76
1, 196560, Tempo, 434783
1, 196560, Note_on_c, 0, 85, 0
1, 196560, Note_on_c, 0, 76, 72
1, 196560, Note_on_c, 0, 80, 72
1, 196560, Note_on_c, 0, 83, 85
1, 196560, Note_on_c, 0, 52, 65
1, 196620, Note_on_c, 0, 52, 0
1, 196620, Note_on_c, 0, 76, 0
1, 196620, Note_on_c, 0, 80, 0
1, 196620, Note_on_c, 0, 83, 0
1, 196800, Note_on_c, 0, 81, 90
1, 196800, Note_on_c, 0, 57, 64
1, 196800, Control_c, 0, 64, 0
1, 196874, Control_c, 0, 64, 127
1, 196920, Note_on_c, 0, 57, 0
1, 196920, Note_on_c, 0, 64, 54
1, 197040, Note_on_c, 0, 64, 0
1, 197040, Note_on_c, 0, 61, 54
1, 197160, Note_on_c, 0, 61, 0
1, 197160, Note_on_c, 0, 64, 54
1, 197220, Note_on_c, 0, 81, 0
1, 197220, Note_on_c, 0, 76, 55
1, 197250, Note_on_c, 0, 76, 0
1, 197250, Note_on_c, 0, 81, 60
1, 197280, Tempo, 416667
1, 197280, Note_on_c, 0, 81, 0
1, 197280, Note_on_c, 0, 64, 0
1, 197280, Note_on_c, 0, 85, 67
1, 197280, Note_on_c, 0, 57, 40
1, 197400, Note_on_c, 0, 57, 0
1, 197400, Note_on_c, 0, 64, 31
1, 197520, Tempo, 434783
1, 197520, Note_on_c, 0, 64, 0
1, 197520, Note_on_c, 0, 61, 31
1, 197640, Tempo, 422535
1, 197640, Note_on_c, 0, 61, 0
1, 197640, Note_on_c, 0, 85, 0
1, 197640, Note_on_c, 0, 85, 63
1, 197640, Note_on_c, 0, 64, 31
1, 197700, Note_on_c, 0, 85, 0
1, 197700, Note_on_c, 0, 76, 55
1, 197730, Note_on_c, 0, 76, 0
1, 197730, Note_on_c, 0, 81, 60
1, 197760, Tempo, 410959
1, 197760, Note_on_c, 0, 81, 0
1, 197760, Note_on_c, 0, 64, 0
1, 197760, Note_on_c, 0, 85, 70
1, 197760, Note_on_c, 0, 57, 40
1, 197760, Control_c, 0, 64, 0
1, 197810, Control_c, 0, 64, 127
1, 197880, Note_on_c, 0, 57, 0
1, 197880, Note_on_c, 0, 64, 31
1, 198000, Tempo, 413793
1, 198000, Note_on_c, 0, 64, 0
1, 198000, Note_on_c, 0, 61, 31
1, 198120, Note_on_c, 0, 61, 0
1, 198120, Note_on_c, 0, 64, 31
1, 198240, Tempo, 416667
1, 198240, Note_on_c, 0, 64, 0
1, 198240, Note_on_c, 0, 57, 40
1, 198360, Note_on_c, 0, 57, 0
1, 198360, Note_on_c, 0, 64, 31
1, 198480, Tempo, 434783
1, 198480, Note_on_c, 0, 64, 0
1, 198480, Note_on_c, 0, 61, 31
1, 198600, Tempo, 422535
1, 198600, Note_on_c, 0, 61, 0
1, 198600, Note_on_c, 0, 64, 31
1, 198660, Note_on_c, 0, 85, 0
1, 198660, Note_on_c, 0, 76, 55
1, 198690, Note_on_c, 0, 76, 0
1, 198690, Note_on_c, 0, 81, 60
1, 198720, Tempo, 410959
1, 198720, Note_on_c, 0, 81, 0
1, 198720, Note_on_c, 0, 64, 0
1, 198720, Note_on_c, 0, 85, 69
1, 198720, Note_on_c, 0, 57, 40
1, 198720, Control_c, 0, 64, 0
1, 198766, Control_c, 0, 64, 127
1, 198840, Note_on_c, 0, 57, 0
1, 198840, Note_on_c, 0, 64, 31
1, 198960, Tempo, 413793
1, 198960, Note_on_c, 0, 64, 0
1, 198960, Note_on_c, 0, 61, 31
1, 199080, Note_on_c, 0, 61, 0
1, 199080, Note_on_c, 0, 64, 31
1, 199200, Tempo, 416667
1, 199200, Note_on_c, 0, 64, 0
1, 199200, Note_on_c, 0, 57, 40
1, 199320, Note_on_c, 0, 57, 0
1, 199320, Note_on_c, 0, 64, 31
1, 199440, Tempo, 434783
1, 199440, Note_on_c, 0, 64, 0
1, 199440, Note_on_c, 0, 61, 31
1, 199560, Tempo, 422535
1, 199560, Note_on_c, 0, 61, 0
1, 199560, Note_on_c, 0, 64, 31
1, 199680, Tempo, 410959
1, 199680, Note_on_c, 0, 64, 0
1, 199680, Note_on_c, 0, 85, 0
1, 199680, Note_on_c, 0, 86, 69
1, 199680, Note_on_c, 0, 57, 40
1, 199680, Control_c, 0, 64, 0
1, 199733, Control_c, 0, 64, 127
1, 199800, Note_on_c, 0, 57, 0
1, 199800, Note_on_c, 0, 86, 0
1, 199800, Note_on_c, 0, 85, 60
1, 199800, Note_on_c, 0, 64, 31
1, 199920, Tempo, 413793
1, 199920, Note_on_c, 0, 64, 0
1, 199920, Note_on_c, 0, 85, 0
1, 199920, Note_on_c, 0, 83, 60
1, 199920, Note_on_c, 0, 61, 31
1, 199980, Note_on_c, 0, 83, 0
1, 200040, Note_on_c, 0, 61, 0
1, 200040, Note_on_c, 0, 85, 60
1, 200040, Note_on_c, 0, 64, 31
1, 200100, Note_on_c, 0, 85, 0
1, 200160, Tempo, 416667
1, 200160, Note_on_c, 0, 64, 0
1, 200160, Note_on_c, 0, 86, 68
1, 200160, Note_on_c, 0, 57, 40
1, 200280, Note_on_c, 0, 57, 0
1, 200280, Note_on_c, 0, 86, 0
1, 200280, Note_on_c, 0, 85, 61
1, 200280, Note_on_c, 0, 64, 31
1, 200400, Tempo, 434783
1, 200400, Note_on_c, 0, 64, 0
1, 200400, Note_on_c, 0, 85, 0
1, 200400, Note_on_c, 0, 83, 61
1, 200400, Note_on_c, 0, 61, 31
1, 200460, Note_on_c, 0, 83, 0
1, 200520, Tempo, 465116
1, 200520, Note_on_c, 0, 61, 0
1, 200520, Note_on_c, 0, 85, 61
1, 200520, Note_on_c, 0, 64, 31
1, 200580, Note_on_c, 0, 85, 0
1, 200640, Tempo, 410959
1, 200640, Note_on_c, 0, 64, 0
1, 200640, Note_on_c, 0, 86, 67
1, 200640, Note_on_c, 0, 57, 40
1, 200650, Control_c, 0, 64, 0
1, 200760, Note_on_c, 0, 57, 0
1, 200760, Note_on_c, 0, 66, 31
1, 200774, Control_c, 0, 64, 127
1, 200880, Tempo, 413793
1, 200880, Note_on_c, 0, 66, 0
1, 200880, Note_on_c, 0, 62, 31
1, 201000, Note_on_c, 0, 62, 0
1, 201000, Note_on_c, 0, 66, 31
1, 201120, Tempo, 416667
1, 201120, Note_on_c, 0, 66, 0
1, 201120, Note_on_c, 0, 57, 40
1, 201240, Note_on_c, 0, 57, 0
1, 201240, Note_on_c, 0, 66, 31
1, 201360, Tempo, 434783
1, 201360, Note_on_c, 0, 66, 0
1, 201360, Note_on_c, 0, 62, 31
1, 201480, Tempo, 422535
1, 201480, Note_on_c, 0, 62, 0
1, 201480, Note_on_c, 0, 66, 31
1, 201570, Note_on_c, 0, 86, 59
1, 201600, Tempo, 422535
1, 201600, Note_on_c, 0, 86, 0
1, 201600, Note_on_c, 0, 66, 0
1, 201600, Note_on_c, 0, 86, 0
1, 201600, Note_on_c, 0, 85, 71
1, 201600, Note_on_c, 0, 57, 40
1, 201643, Control_c, 0, 64, 0
1, 201660, Note_on_c, 0, 85, 0
1, 201703, Control_c, 0, 64, 127
1, 201720, Note_on_c, 0, 57, 0
1, 201720, Note_on_c, 0, 64, 31
1, 201810, Note_on_c, 0, 86, 56
1, 201840, Tempo, 413793
1, 201840, Note_on_c, 0, 86, 0
1, 201840, Note_on_c, 0, 64, 0
1, 201840, Note_on_c, 0, 85, 64
1, 201840, Note_on_c, 0, 61, 31
1, 201900, Note_on_c, 0, 85, 0
1, 201960, Note_on_c, 0, 61, 0
1, 201960, Note_on_c, 0, 64, 31
1, 202050, Note_on_c, 0, 86, 57
1, 202080, Tempo, 416667
1, 202080, Note_on_c, 0, 86, 0
1, 202080, Note_on_c, 0, 64, 0
1, 202080, Note_on_c, 0, 85, 65
1, 202080, Note_on_c, 0, 57, 40
1, 202140, Note_on_c, 0, 85, 0
1, 202200, Note_on_c, 0, 57, 0
1, 202200, Note_on_c, 0, 64, 31
1, 202290, Note_on_c, 0, 86, 59
1, 202320, Tempo, 434783
1, 202320, Note_on_c, 0, 86, 0
1, 202320, Note_on_c, 0, 64, 0
1, 202320, Note_on_c, 0, 85, 66
1, 202320, Note_on_c, 0, 61, 31
1, 202380, Note_on_c, 0, 85, 0
1, 202440, Tempo, 422535
1, 202440, Note_on_c, 0, 61, 0
1, 202440, Note_on_c, 0, 64, 31
1, 202560, Tempo, 410959
1, 202560, Note_on_c, 0, 64, 0
1, 202560, Note_on_c, 0, 83, 67
1, 202560, Note_on_c, 0, 52, 40
1, 202560, Control_c, 0, 64, 0
1, 202610, Control_c, 0, 64, 127
1, 202680, Note_on_c, 0, 52, 0
1, 202680, Note_on_c, 0, 64, 31
1, 202800, Tempo, 413793
1, 202800, Note_on_c, 0, 64, 0
1, 202800, Note_on_c, 0, 59, 31
1, 202920, Note_on_c, 0, 59, 0
1, 202920, Note_on_c, 0, 64, 31
1, 203040, Tempo, 416667
1, 203040, Note_on_c, 0, 64, 0
1, 203040, Note_on_c, 0, 52, 40
1, 203160, Note_on_c, 0, 52, 0
1, 203160, Note_on_c, 0, 64, 31
1, 203280, Tempo, 434783
1, 203280, Note_on_c, 0, 64, 0
1, 203280, Note_on_c, 0, 59, 31
1, 203400, Tempo, 571429
1, 203400, Note_on_c, 0, 59, 0
1, 203400, Note_on_c, 0, 83, 0
1, 203400, Note_on_c, 0, 88, 94
1, 203400, Note_on_c, 0, 64, 31
1, 203460, Note_on_c, 0, 64, 0
1, 203460, Note_on_c, 0, 45, 61
1, 203480, Note_on_c, 0, 45, 0
1, 203480, Note_on_c, 0, 49, 61
1, 203490, Note_on_c, 0, 88, 0
1, 203490, Note_on_c, 0, 73, 74
1, 203500, Note_on_c, 0, 49, 0
1, 203500, Note_on_c, 0, 76, 77
1, 203500, Note_on_c, 0, 52, 61
1, 203510, Note_on_c, 0, 81, 80
1, 203520, Tempo, 410959
1, 203520, Note_on_c, 0, 52, 0
1, 203520, Note_on_c, 0, 85, 90
1, 203520, Note_on_c, 0, 57, 87
1, 203522, Control_c, 0, 64, 0
1, 203577, Control_c, 0, 64, 127
1, 203640, Note_on_c, 0, 57, 0
1, 203760, Tempo, 413793
1, 203760, Note_on_c, 0, 57, 67
1, 203880, Note_on_c, 0, 57, 0
1, 204000, Tempo, 416667
1, 204000, Note_on_c, 0, 73, 0
1, 204000, Note_on_c, 0, 81, 0
1, 204000, Note_on_c, 0, 76, 0
1, 204000, Note_on_c, 0, 57, 67
1, 204120, Note_on_c, 0, 57, 0
1, 204240, Tempo, 434783
1, 204240, Note_on_c, 0, 57, 64
1, 204360, Tempo, 422535
1, 204360, Note_on_c, 0, 57, 0
1, 204360, Note_on_c, 0, 45, 61
1, 204385, Control_c, 0, 64, 0
1, 204400, Note_on_c, 0, 45, 0
1, 204400, Note_on_c, 0, 49, 66
1, 204434, Control_c, 0, 64, 127
1, 204440, Note_on_c, 0, 49, 0
1, 204440, Note_on_c, 0, 52, 72
1, 204450, Note_on_c, 0, 73, 74
1, 204460, Note_on_c, 0, 76, 77
1, 204470, Note_on_c, 0, 81, 80
1, 204480, Tempo, 410959
1, 204480, Note_on_c, 0, 52, 0
1, 204480, Note_on_c, 0, 85, 0
1, 204480, Note_on_c, 0, 85, 90
1, 204480, Note_on_c, 0, 57, 87
1, 204600, Note_on_c, 0, 57, 0
1, 204720, Tempo, 413793
1, 204720, Note_on_c, 0, 57, 66
1, 204840, Note_on_c, 0, 57, 0
1, 204960, Tempo, 416667
1, 204960, Note_on_c, 0, 76, 0
1, 204960, Note_on_c, 0, 81, 0
1, 204960, Note_on_c, 0, 73, 0
1, 204960, Note_on_c, 0, 57, 66
1, 205080, Note_on_c, 0, 57, 0
1, 205200, Tempo, 434783
1, 205200, Note_on_c, 0, 57, 66
1, 205320, Tempo, 422535
1, 205320, Note_on_c, 0, 57, 0
1, 205320, Note_on_c, 0, 45, 61
1, 205324, Control_c, 0, 64, 0
1, 205360, Note_on_c, 0, 45, 0
1, 205360, Note_on_c, 0, 49, 66
1, 205373, Control_c, 0, 64, 127
1, 205400, Note_on_c, 0, 49, 0
1, 205400, Note_on_c, 0, 52, 72
1, 205440, Tempo, 410959
1, 205440, Note_on_c, 0, 52, 0
1, 205440, Note_on_c, 0, 85, 0
1, 205440, Note_on_c, 0, 86, 90
1, 205440, Note_on_c, 0, 57, 87
1, 205560, Note_on_c, 0, 57, 0
1, 205560, Note_on_c, 0, 86, 0
1, 205560, Note_on_c, 0, 85, 87
1, 205680, Tempo, 413793
1, 205680, Note_on_c, 0, 85, 0
1, 205680, Note_on_c, 0, 83, 86
1, 205680, Note_on_c, 0, 57, 67
1, 205740, Note_on_c, 0, 83, 0
1, 205800, Note_on_c, 0, 57, 0
1, 205800, Note_on_c, 0, 85, 86
1, 205860, Note_on_c, 0, 85, 0
1, 205920, Tempo, 416667
1, 205920, Note_on_c, 0, 86, 90
1, 205920, Note_on_c, 0, 57, 67
1, 206040, Note_on_c, 0, 57, 0
1, 206040, Note_on_c, 0, 86, 0
1, 206040, Note_on_c, 0, 85, 84
1, 206160, Tempo, 434783
1, 206160, Note_on_c, 0, 85, 0
1, 206160, Note_on_c, 0, 83, 84
1, 206160, Note_on_c, 0, 57, 67
1, 206220, Note_on_c, 0, 83, 0
1, 206280, Tempo, 465116
1, 206280, Note_on_c, 0, 57, 0
1, 206280, Note_on_c, 0, 85, 85
1, 206280, Note_on_c, 0, 38, 61
1, 206320, Note_on_c, 0, 38, 0
1, 206320, Note_on_c, 0, 42, 66
1, 206340, Note_on_c, 0, 85, 0
1, 206340, Control_c, 0, 64, 0
1, 206360, Note_on_c, 0, 42, 0
1, 206360, Note_on_c, 0, 45, 72
1, 206400, Tempo, 410959
1, 206400, Note_on_c, 0, 45, 0
1, 206400, Note_on_c, 0, 78, 80
1, 206400, Note_on_c, 0, 81, 80
1, 206400, Note_on_c, 0, 86, 90
1, 206400, Note_on_c, 0, 50, 87
1, 206428, Control_c, 0, 64, 127
1, 206520, Note_on_c, 0, 50, 0
1, 206640, Tempo, 413793
1, 206640, Note_on_c, 0, 50, 68
1, 206760, Note_on_c, 0, 50, 0
1, 206880, Tempo, 416667
1, 206880, Note_on_c, 0, 50, 68
1, 207000, Note_on_c, 0, 50, 0
1, 207113, Note_on_c, 0, 50, 68
1, 207120, Tempo, 434783
1, 207233, Note_on_c, 0, 50, 0
1, 207240, Tempo, 422535
1, 207240, Note_on_c, 0, 45, 61
1, 207265, Control_c, 0, 64, 0
1, 207280, Note_on_c, 0, 45, 0
1, 207280, Note_on_c, 0, 49, 66
1, 207320, Note_on_c, 0, 49, 0
1, 207320, Note_on_c, 0, 52, 72
1, 207330, Note_on_c, 0, 86, 76
1, 207360, Tempo, 422535
1, 207360, Note_on_c, 0, 86, 0
1, 207360, Note_on_c, 0, 86, 0
1, 207360, Note_on_c, 0, 78, 0
1, 207360, Note_on_c, 0, 81, 0
1, 207360, Note_on_c, 0, 52, 0
1, 207360, Note_on_c, 0, 76, 76
1, 207360, Note_on_c, 0, 81, 76
1, 207360, Note_on_c, 0, 85, 90
1, 207360, Note_on_c, 0, 57, 87
1, 207406, Control_c, 0, 64, 127
1, 207480, Note_on_c, 0, 57, 0
1, 207600, Tempo, 413793
1, 207600, Note_on_c, 0, 57, 67
1, 207720, Note_on_c, 0, 57, 0
1, 207840, Tempo, 416667
1, 207840, Note_on_c, 0, 57, 67
1, 207960, Note_on_c, 0, 57, 0
1, 208080, Tempo, 434783
1, 208080, Note_on_c, 0, 57, 67
1, 208200, Tempo, 422535
1, 208200, Note_on_c, 0, 57, 0
1, 208200, Note_on_c, 0, 40, 61
1, 208200, Control_c, 0, 64, 0
1, 208240, Note_on_c, 0, 40, 0
1, 208240, Note_on_c, 0, 44, 66
1, 208260, Control_c, 0, 64, 127
1, 208280, Note_on_c, 0, 44, 0
1, 208280, Note_on_c, 0, 47, 72
1, 208290, Note_on_c, 0, 85, 76
1, 208320, Tempo, 410959
1, 208320, Note_on_c, 0, 85, 0
1, 208320, Note_on_c, 0, 85, 0
1, 208320, Note_on_c, 0, 76, 0
1, 208320, Note_on_c, 0, 81, 0
1, 208320, Note_on_c, 0, 47, 0
1, 208320, Note_on_c, 0, 76, 76
1, 208320, Note_on_c, 0, 80, 76
1, 208320, Note_on_c, 0, 83, 90
1, 208320, Note_on_c, 0, 52, 87
1, 208380, Note_on_c, 0, 52, 0
1, 208380, Note_on_c, 0, 76, 0
1, 208380, Note_on_c, 0, 80, 0
1, 208380, Note_on_c, 0, 83, 0
1, 208530, Note_on_c, 0, 85, 76
1, 208560, Tempo, 413793
1, 208560, Note_on_c, 0, 85, 0
1, 208560, Note_on_c, 0, 76, 72
1, 208560, Note_on_c, 0, 80, 72
1, 208560, Note_on_c, 0, 83, 85
1, 208560, Note_on_c, 0, 52, 67
1, 208620, Note_on_c, 0, 52, 0
1, 208620, Note_on_c, 0, 76, 0
1, 208620, Note_on_c, 0, 80, 0
1, 208620, Note_on_c, 0, 83, 0
1, 208770, Note_on_c, 0, 85, 76
1, 208800, Tempo, 416667
1, 208800, Note_on_c, 0, 85, 0
1, 208800, Note_on_c, 0, 76, 72
1, 208800, Note_on_c, 0, 80, 72
1, 208800, Note_on_c, 0, 83, 85
1, 208800, Note_on_c, 0, 52, 67
1, 208860, Note_on_c, 0, 52, 0
1, 208860, Note_on_c, 0, 76, 0
1, 208860, Note_on_c, 0, 80, 0
1, 208860, Note_on_c, 0, 83, 0
1, 209010, Note_on_c, 0, 85, 76
1, 209040, Tempo, 434783
1, 209040, Note_on_c, 0, 85, 0
1, 209040, Note_on_c, 0, 76, 72
1, 209040, Note_on_c, 0, 80, 72
1, 209040, Note_on_c, 0, 83, 85
1, 209040, Note_on_c, 0, 52, 67
1, 209100, Note_on_c, 0, 52, 0
1, 209100, Note_on_c, 0, 76, 0
1, 209100, Note_on_c, 0, 80, 0
1, 209100, Note_on_c, 0, 83, 0
1, 209160, Tempo, 422535
1, 209160, Note_on_c, 0, 45, 61
1, 209178, Control_c, 0, 64, 0
1, 209200, Note_on_c, 0, 45, 0
1, 209200, Note_on_c, 0, 49, 66
1, 209214, Control_c, 0, 64, 127
1, 209240, Note_on_c, 0, 49, 0
1, 209240, Note_on_c, 0, 52, 72
1, 209280, Tempo, 422535
1, 209280, Note_on_c, 0, 52, 0
1, 209280, Note_on_c, 0, 69, 90
1, 209280, Note_on_c, 0, 73, 90
1, 209280, Note_on_c, 0, 76, 90
1, 209280, Note_on_c, 0, 81, 90
1, 209280, Note_on_c, 0, 57, 87
1, 209400, Note_on_c, 0, 57, 0
1, 209520, Note_on_c, 0, 57, 67
1, 209640, Note_on_c, 0, 57, 0
1, 209760, Note_on_c, 0, 57, 67
1, 209880, Note_on_c, 0, 57, 0
1, 210000, Tempo, 461538
1, 210000, Note_on_c, 0, 76, 0
1, 210000, Note_on_c, 0, 69, 0
1, 210000, Note_on_c, 0, 73, 0
1, 210000, Note_on_c, 0, 81, 0
1, 210000, Note_on_c, 0, 73, 73
1, 210000, Note_on_c, 0, 85, 87
1, 210000, Note_on_c, 0, 57, 67
1, 210060, Note_on_c, 0, 85, 0
1, 210060, Note_on_c, 0, 73, 0
1, 210120, Note_on_c, 0, 57, 0
1, 210120, Note_on_c, 0, 45, 61
1, 210160, Note_on_c, 0, 45, 0
1, 210160, Note_on_c, 0, 49, 66
1, 210200, Note_on_c, 0, 49, 0
1, 210200, Note_on_c, 0, 52, 72
1, 210240, Tempo, 422535
1, 210240, Note_on_c, 0, 52, 0
1, 210240, Note_on_c, 0, 69, 90
1, 210240, Note_on_c, 0, 81, 90
1, 210240, Note_on_c, 0, 57, 87
1, 210360, Note_on_c, 0, 57, 0
1, 210480, Note_on_c, 0, 57, 66
1, 210600, Note_on_c, 0, 57, 0
1, 210720, Note_on_c, 0, 57, 66
1, 210840, Note_on_c, 0, 57, 0
1, 210960, Tempo, 468750
1, 210960, Note_on_c, 0, 81, 0
1, 210960, Note_on_c, 0, 69, 0
1, 210960, Note_on_c, 0, 73, 73
1, 210960, Note_on_c, 0, 85, 87
1, 210960, Note_on_c, 0, 57, 66
1, 211020, Note_on_c, 0, 85, 0
1, 211020, Note_on_c, 0, 73, 0
1, 211080, Note_on_c, 0, 57, 0
1, 211080, Note_on_c, 0, 45, 61
1, 211120, Note_on_c, 0, 45, 0
1, 211120, Note_on_c, 0, 49, 66
1, 211160, Note_on_c, 0, 49, 0
1, 211160, Note_on_c, 0, 52, 72
1, 211200, Tempo, 422535
1, 211200, Note_on_c, 0, 52, 0
1, 211200, Note_on_c, 0, 69, 90
1, 211200, Note_on_c, 0, 81, 90
1, 211200, Note_on_c, 0, 57, 87
1, 211320, Note_on_c, 0, 57, 0
1, 211440, Note_on_c, 0, 57, 67
1, 211560, Note_on_c, 0, 57, 0
1, 211680, Note_on_c, 0, 57, 67
1, 211800, Note_on_c, 0, 57, 0
1, 211920, Tempo, 458015
1, 211920, Note_on_c, 0, 81, 0
1, 211920, Note_on_c, 0, 69, 0
1, 211920, Note_on_c, 0, 73, 73
1, 211920, Note_on_c, 0, 85, 87
1, 211920, Note_on_c, 0, 57, 67
1, 211980, Note_on_c, 0, 85, 0
1, 211980, Note_on_c, 0, 73, 0
1, 212040, Note_on_c, 0, 57, 0
1, 212040, Note_on_c, 0, 45, 61
1, 212080, Note_on_c, 0, 45, 0
1, 212080, Note_on_c, 0, 49, 66
1, 212120, Note_on_c, 0, 49, 0
1, 212120, Note_on_c, 0, 52, 72
1, 212160, Tempo, 425532
1, 212160, Note_on_c, 0, 52, 0
1, 212160, Note_on_c, 0, 69, 82
1, 212160, Note_on_c, 0, 81, 97
1, 212160, Note_on_c, 0, 57, 95
1, 212280, Note_on_c, 0, 57, 0
1, 212280, Note_on_c, 0, 81, 0
1, 212280, Note_on_c, 0, 69, 0
1, 212400, Tempo, 416667
1, 212400, Note_on_c, 0, 73, 78
1, 212400, Note_on_c, 0, 85, 92
1, 212400, Note_on_c, 0, 57, 70
1, 212520, Note_on_c, 0, 57, 0
1, 212520, Note_on_c, 0, 85, 0
1, 212520, Note_on_c, 0, 73, 0
1, 212520, Note_on_c, 0, 45, 67
1, 212560, Note_on_c, 0, 45, 0
1, 212560, Note_on_c, 0, 49, 72
1, 212600, Note_on_c, 0, 49, 0
1, 212600, Note_on_c, 0, 52, 79
1, 212640, Note_on_c, 0, 52, 0
1, 212640, Note_on_c, 0, 69, 83
1, 212640, Note_on_c, 0, 81, 99
1, 212640, Note_on_c, 0, 57, 95
1, 212760, Note_on_c, 0, 57, 0
1, 212760, Note_on_c, 0, 81, 0
1, 212760, Note_on_c, 0, 69, 0
1, 212880, Tempo, 447761
1, 212880, Note_on_c, 0, 73, 79
1, 212880, Note_on_c, 0, 85, 93
1, 212880, Note_on_c, 0, 57, 70
1, 213000, Note_on_c, 0, 57, 0
1, 213000, Note_on_c, 0, 85, 0
1, 213000, Note_on_c, 0, 73, 0
1, 213120, Tempo, 458015
1, 213120, Note_on_c, 0, 69, 90
1, 213120, Note_on_c, 0, 81, 108
1, 213120, Note_on_c, 0, 45, 88
1, 213128, Control_c, 0, 64, 0
1, 213414, Control_c, 0, 64, 127
1, 213600, Tempo, 500000
1, 213600, Note_on_c, 0, 45, 0
1, 213600, Note_on_c, 0, 81, 0
1, 213600, Note_on_c, 0, 69, 0
1, 213600, Note_on_c, 0, 69, 82
1, 213600, Note_on_c, 0, 73, 82
1, 213600, Note_on_c, 0, 76, 82
1, 213600, Note_on_c, 0, 81, 97
1, 213600, Note_on_c, 0, 57, 88
1, 214080, Note_on_c, 0, 57, 0
1, 214080, Note_on_c, 0, 76, 0
1, 214080, Note_on_c, 0, 69, 0
1, 214080, Note_on_c, 0, 73, 0
1, 214080, Note_on_c, 0, 81, 0
1, 214080, Note_on_c, 0, 69, 86
1, 214080, Note_on_c, 0, 73, 86
1, 214080, Note_on_c, 0, 76, 86
1, 214080, Note_on_c, 0, 81, 103
1, 214080, Note_on_c, 0, 45, 74
1, 214080, Note_on_c, 0, 49, 74
1, 214080, Note_on_c, 0, 52, 74
1, 214080, Note_on_c, 0, 57, 88
1, 214560, Note_on_c, 0, 57, 0
1, 214560, Note_on_c, 0, 69, 0
1, 214560, Note_on_c, 0, 45, 0
1, 214560, Note_on_c, 0, 73, 0
1, 214560, Note_on_c, 0, 76, 0
1, 214560, Note_on_c, 0, 81, 0
1, 214560, Note_on_c, 0, 49, 0
1, 214560, Note_on_c, 0, 52, 0
1, 215040, Control_c, 0, 64, 0
1, 215040, End_track
0, 0, End_of_file
