0, 0, Header, 0, 1, 480
1, 0, Start_track
1, 0, Title_t, "Sonate KV 545 1. Satz"
1, 0, Copyright_t, "Copyright © 2006 by Bernd Krueger"
1, 0, Text_t, "Mozart"
1, 0, Text_t, "Veröffentlicht: 1.10.2006\012"
1, 0, Text_t, "Update: 23.9.2013\012"
1, 0, Text_t, "Dauer:  4:21 Minuten\012"
1, 0, Time_signature, 4, 2, 24, 8
1, 0, Key_signature, 0, "major"
1, 0, Tempo, 439432
1, 0, Marker_t, "Teil 1"
1, 0, Program_c, 0, 0
1, 0, Note_on_c, 0, 72, 60
1, 0, Program_c, 0, 0
1, 0, Note_on_c, 0, 60, 40
1, 0, Program_c, 0, 0
1, 0, Control_c, 0, 64, 127
1, 240, Note_on_c, 0, 60, 0
1, 240, Note_on_c, 0, 67, 30
1, 480, Note_on_c, 0, 67, 0
1, 480, Note_on_c, 0, 64, 30
1, 720, Note_on_c, 0, 64, 0
1, 720, Note_on_c, 0, 67, 30
1, 960, Tempo, 433182
1, 960, Note_on_c, 0, 67, 0
1, 960, Note_on_c, 0, 72, 0
1, 960, Note_on_c, 0, 76, 60
1, 960, Note_on_c, 0, 60, 40
1, 1200, Note_on_c, 0, 60, 0
1, 1200, Note_on_c, 0, 67, 30
1, 1440, Tempo, 444050
1, 1440, Note_on_c, 0, 67, 0
1, 1440, Note_on_c, 0, 76, 0
1, 1440, Note_on_c, 0, 79, 60
1, 1440, Note_on_c, 0, 64, 30
1, 1680, Note_on_c, 0, 64, 0
1, 1680, Note_on_c, 0, 67, 30
1, 1920, Note_on_c, 0, 67, 0
1, 1920, Note_on_c, 0, 79, 0
1, 1920, Note_on_c, 0, 71, 60
1, 1920, Note_on_c, 0, 62, 30
1, 1928, Control_c, 0, 64, 0
1, 2033, Control_c, 0, 64, 127
1, 2160, Note_on_c, 0, 62, 0
1, 2160, Note_on_c, 0, 67, 29
1, 2240, Tempo, 436745
1, 2400, Note_on_c, 0, 67, 0
1, 2400, Note_on_c, 0, 65, 31
1, 2560, Tempo, 436745
1, 2640, Note_on_c, 0, 65, 0
1, 2640, Note_on_c, 0, 71, 0
1, 2640, Note_on_c, 0, 72, 55
1, 2640, Note_on_c, 0, 67, 28
1, 2760, Note_on_c, 0, 72, 0
1, 2760, Note_on_c, 0, 74, 51
1, 2880, Tempo, 440399
1, 2880, Note_on_c, 0, 74, 0
1, 2880, Note_on_c, 0, 67, 0
1, 2880, Note_on_c, 0, 72, 60
1, 2880, Note_on_c, 0, 60, 40
1, 2893, Control_c, 0, 64, 0
1, 3007, Control_c, 0, 64, 127
1, 3120, Note_on_c, 0, 60, 0
1, 3120, Note_on_c, 0, 67, 29
1, 3360, Note_on_c, 0, 67, 0
1, 3360, Note_on_c, 0, 72, 0
1, 3360, Note_on_c, 0, 64, 32
1, 3600, Note_on_c, 0, 64, 0
1, 3600, Note_on_c, 0, 67, 29
1, 3840, Tempo, 433182
1, 3840, Note_on_c, 0, 67, 0
1, 3840, Note_on_c, 0, 81, 64
1, 3840, Note_on_c, 0, 60, 40
1, 3840, Control_c, 0, 64, 0
1, 4052, Control_c, 0, 64, 127
1, 4080, Note_on_c, 0, 60, 0
1, 4080, Note_on_c, 0, 69, 32
1, 4320, Note_on_c, 0, 69, 0
1, 4320, Note_on_c, 0, 65, 32
1, 4560, Note_on_c, 0, 65, 0
1, 4560, Note_on_c, 0, 69, 32
1, 4800, Tempo, 429646
1, 4800, Note_on_c, 0, 69, 0
1, 4800, Note_on_c, 0, 81, 0
1, 4800, Note_on_c, 0, 79, 62
1, 4800, Note_on_c, 0, 60, 40
1, 4810, Control_c, 0, 64, 0
1, 4998, Control_c, 0, 64, 127
1, 5040, Note_on_c, 0, 60, 0
1, 5040, Note_on_c, 0, 67, 32
1, 5280, Tempo, 434940
1, 5280, Note_on_c, 0, 67, 0
1, 5280, Note_on_c, 0, 79, 0
1, 5280, Note_on_c, 0, 84, 64
1, 5280, Note_on_c, 0, 64, 32
1, 5520, Note_on_c, 0, 64, 0
1, 5520, Note_on_c, 0, 67, 32
1, 5760, Tempo, 429646
1, 5760, Note_on_c, 0, 67, 0
1, 5760, Note_on_c, 0, 84, 0
1, 5760, Note_on_c, 0, 79, 64
1, 5760, Note_on_c, 0, 59, 40
1, 5760, Control_c, 0, 64, 0
1, 5817, Control_c, 0, 64, 127
1, 6000, Note_on_c, 0, 59, 0
1, 6000, Note_on_c, 0, 67, 32
1, 6240, Note_on_c, 0, 67, 0
1, 6240, Note_on_c, 0, 79, 0
1, 6240, Note_on_c, 0, 77, 55
1, 6240, Note_on_c, 0, 62, 32
1, 6320, Note_on_c, 0, 77, 0
1, 6320, Note_on_c, 0, 79, 55
1, 6400, Note_on_c, 0, 79, 0
1, 6400, Note_on_c, 0, 77, 55
1, 6480, Note_on_c, 0, 77, 0
1, 6480, Note_on_c, 0, 62, 0
1, 6480, Note_on_c, 0, 76, 59
1, 6480, Note_on_c, 0, 67, 32
1, 6600, Note_on_c, 0, 76, 0
1, 6600, Note_on_c, 0, 77, 55
1, 6720, Note_on_c, 0, 77, 0
1, 6720, Note_on_c, 0, 67, 0
1, 6720, Note_on_c, 0, 76, 60
1, 6720, Note_on_c, 0, 60, 40
1, 6731, Control_c, 0, 64, 0
1, 6808, Control_c, 0, 64, 127
1, 6960, Note_on_c, 0, 60, 0
1, 6960, Note_on_c, 0, 67, 34
1, 7200, Note_on_c, 0, 67, 0
1, 7200, Note_on_c, 0, 76, 0
1, 7200, Note_on_c, 0, 64, 34
1, 7440, Note_on_c, 0, 64, 0
1, 7440, Note_on_c, 0, 67, 34
1, 7520, Tempo, 451637
1, 7680, Tempo, 442217
1, 7680, Note_on_c, 0, 67, 0
1, 7680, Note_on_c, 0, 69, 60
1, 7680, Note_on_c, 0, 65, 40
1, 7696, Control_c, 0, 64, 0
1, 7795, Tempo, 440399
1, 7910, Tempo, 438564
1, 7920, Note_on_c, 0, 69, 0
1, 7920, Note_on_c, 0, 71, 53
1, 8026, Tempo, 436745
1, 8040, Note_on_c, 0, 72, 54
1, 8052, Note_on_c, 0, 71, 0
1, 8141, Tempo, 434940
1, 8160, Note_on_c, 0, 65, 0
1, 8160, Note_on_c, 0, 74, 55
1, 8172, Note_on_c, 0, 72, 0
1, 8256, Tempo, 433182
1, 8280, Note_on_c, 0, 76, 57
1, 8292, Note_on_c, 0, 74, 0
1, 8371, Tempo, 431406
1, 8400, Note_on_c, 0, 77, 58
1, 8412, Note_on_c, 0, 76, 0
1, 8486, Tempo, 429646
1, 8520, Note_on_c, 0, 79, 59
1, 8532, Note_on_c, 0, 77, 0
1, 8602, Tempo, 427899
1, 8640, Tempo, 426197
1, 8640, Note_on_c, 0, 81, 62
1, 8652, Note_on_c, 0, 79, 0
1, 8736, Tempo, 427899
1, 8760, Note_on_c, 0, 79, 61
1, 8772, Note_on_c, 0, 81, 0
1, 8832, Tempo, 429646
1, 8880, Note_on_c, 0, 77, 60
1, 8892, Note_on_c, 0, 79, 0
1, 8909, Tempo, 431406
1, 9000, Note_on_c, 0, 76, 59
1, 9005, Tempo, 433182
1, 9012, Note_on_c, 0, 77, 0
1, 9101, Tempo, 434940
1, 9120, Note_on_c, 0, 74, 58
1, 9120, Note_on_c, 0, 53, 40
1, 9120, Note_on_c, 0, 60, 40
1, 9132, Note_on_c, 0, 76, 0
1, 9178, Tempo, 436745
1, 9240, Note_on_c, 0, 72, 57
1, 9252, Note_on_c, 0, 74, 0
1, 9274, Tempo, 438564
1, 9360, Note_on_c, 0, 71, 55
1, 9370, Tempo, 440399
1, 9372, Note_on_c, 0, 72, 0
1, 9446, Tempo, 442217
1, 9480, Note_on_c, 0, 69, 53
1, 9492, Note_on_c, 0, 71, 0
1, 9581, Tempo, 438564
1, 9600, Note_on_c, 0, 60, 0
1, 9600, Note_on_c, 0, 53, 0
1, 9600, Note_on_c, 0, 67, 60
1, 9600, Note_on_c, 0, 52, 40
1, 9600, Note_on_c, 0, 60, 40
1, 9600, Control_c, 0, 64, 0
1, 9612, Note_on_c, 0, 69, 0
1, 9754, Tempo, 436745
1, 9840, Note_on_c, 0, 67, 0
1, 9840, Note_on_c, 0, 69, 53
1, 9907, Tempo, 434940
1, 9960, Note_on_c, 0, 71, 54
1, 9972, Note_on_c, 0, 69, 0
1, 10080, Tempo, 433182
1, 10080, Note_on_c, 0, 60, 0
1, 10080, Note_on_c, 0, 52, 0
1, 10080, Note_on_c, 0, 72, 55
1, 10092, Note_on_c, 0, 71, 0
1, 10200, Note_on_c, 0, 74, 57
1, 10212, Note_on_c, 0, 72, 0
1, 10234, Tempo, 431406
1, 10320, Note_on_c, 0, 76, 58
1, 10332, Note_on_c, 0, 74, 0
1, 10406, Tempo, 429646
1, 10440, Note_on_c, 0, 77, 59
1, 10452, Note_on_c, 0, 76, 0
1, 10522, Tempo, 426197
1, 10560, Note_on_c, 0, 79, 62
1, 10572, Note_on_c, 0, 77, 0
1, 10598, Tempo, 427899
1, 10675, Tempo, 429646
1, 10680, Note_on_c, 0, 77, 61
1, 10692, Note_on_c, 0, 79, 0
1, 10752, Tempo, 431406
1, 10800, Note_on_c, 0, 76, 60
1, 10812, Note_on_c, 0, 77, 0
1, 10829, Tempo, 433182
1, 10906, Tempo, 434940
1, 10920, Note_on_c, 0, 74, 59
1, 10932, Note_on_c, 0, 76, 0
1, 10963, Tempo, 436745
1, 11040, Tempo, 438564
1, 11040, Note_on_c, 0, 72, 58
1, 11040, Note_on_c, 0, 52, 40
1, 11040, Note_on_c, 0, 60, 40
1, 11052, Note_on_c, 0, 74, 0
1, 11117, Tempo, 440399
1, 11160, Note_on_c, 0, 71, 57
1, 11172, Note_on_c, 0, 72, 0
1, 11194, Tempo, 442217
1, 11270, Tempo, 444050
1, 11280, Note_on_c, 0, 69, 55
1, 11292, Note_on_c, 0, 71, 0
1, 11328, Tempo, 445931
1, 11400, Note_on_c, 0, 67, 53
1, 11412, Note_on_c, 0, 69, 0
1, 11482, Tempo, 436745
1, 11520, Note_on_c, 0, 60, 0
1, 11520, Note_on_c, 0, 52, 0
1, 11520, Note_on_c, 0, 65, 60
1, 11520, Note_on_c, 0, 50, 40
1, 11520, Note_on_c, 0, 60, 40
1, 11520, Control_c, 0, 64, 0
1, 11532, Note_on_c, 0, 67, 0
1, 11654, Tempo, 434940
1, 11760, Note_on_c, 0, 65, 0
1, 11760, Note_on_c, 0, 67, 53
1, 11808, Tempo, 433182
1, 11880, Note_on_c, 0, 69, 54
1, 11892, Note_on_c, 0, 67, 0
1, 11962, Tempo, 431406
1, 12000, Note_on_c, 0, 60, 0
1, 12000, Note_on_c, 0, 50, 0
1, 12000, Note_on_c, 0, 71, 55
1, 12012, Note_on_c, 0, 69, 0
1, 12120, Note_on_c, 0, 72, 57
1, 12132, Note_on_c, 0, 71, 0
1, 12134, Tempo, 429646
1, 12240, Note_on_c, 0, 74, 58
1, 12252, Note_on_c, 0, 72, 0
1, 12288, Tempo, 427899
1, 12360, Note_on_c, 0, 76, 59
1, 12372, Note_on_c, 0, 74, 0
1, 12422, Tempo, 424508
1, 12480, Note_on_c, 0, 77, 62
1, 12492, Note_on_c, 0, 76, 0
1, 12499, Tempo, 426197
1, 12576, Tempo, 427899
1, 12600, Note_on_c, 0, 76, 61
1, 12612, Note_on_c, 0, 77, 0
1, 12653, Tempo, 429646
1, 12720, Note_on_c, 0, 74, 60
1, 12730, Tempo, 431406
1, 12732, Note_on_c, 0, 76, 0
1, 12806, Tempo, 433182
1, 12840, Note_on_c, 0, 72, 59
1, 12852, Note_on_c, 0, 74, 0
1, 12864, Tempo, 434940
1, 12941, Tempo, 436745
1, 12960, Note_on_c, 0, 71, 58
1, 12960, Note_on_c, 0, 50, 40
1, 12960, Note_on_c, 0, 59, 40
1, 12972, Note_on_c, 0, 72, 0
1, 13018, Tempo, 438564
1, 13080, Note_on_c, 0, 69, 57
1, 13092, Note_on_c, 0, 71, 0
1, 13094, Tempo, 440399
1, 13171, Tempo, 442217
1, 13200, Note_on_c, 0, 67, 55
1, 13212, Note_on_c, 0, 69, 0
1, 13229, Tempo, 444050
1, 13320, Note_on_c, 0, 65, 53
1, 13332, Note_on_c, 0, 67, 0
1, 13440, Note_on_c, 0, 59, 0
1, 13440, Note_on_c, 0, 50, 0
1, 13440, Note_on_c, 0, 64, 60
1, 13440, Note_on_c, 0, 48, 40
1, 13440, Note_on_c, 0, 60, 40
1, 13440, Control_c, 0, 64, 0
1, 13452, Note_on_c, 0, 65, 0
1, 13459, Tempo, 444050
1, 13574, Tempo, 442217
1, 13680, Note_on_c, 0, 64, 0
1, 13680, Note_on_c, 0, 65, 53
1, 13690, Tempo, 440399
1, 13786, Tempo, 438564
1, 13800, Note_on_c, 0, 67, 54
1, 13812, Note_on_c, 0, 65, 0
1, 13901, Tempo, 436745
1, 13920, Note_on_c, 0, 60, 0
1, 13920, Note_on_c, 0, 48, 0
1, 13920, Note_on_c, 0, 69, 55
1, 13932, Note_on_c, 0, 67, 0
1, 13997, Tempo, 434940
1, 14040, Note_on_c, 0, 71, 57
1, 14052, Note_on_c, 0, 69, 0
1, 14112, Tempo, 433182
1, 14160, Note_on_c, 0, 72, 58
1, 14172, Note_on_c, 0, 71, 0
1, 14208, Tempo, 431406
1, 14280, Note_on_c, 0, 74, 59
1, 14292, Note_on_c, 0, 72, 0
1, 14323, Tempo, 429646
1, 14400, Tempo, 427899
1, 14400, Note_on_c, 0, 76, 62
1, 14412, Note_on_c, 0, 74, 0
1, 14496, Tempo, 429646
1, 14520, Note_on_c, 0, 74, 61
1, 14532, Note_on_c, 0, 76, 0
1, 14573, Tempo, 431406
1, 14640, Note_on_c, 0, 72, 60
1, 14650, Tempo, 433182
1, 14652, Note_on_c, 0, 74, 0
1, 14726, Tempo, 434940
1, 14760, Note_on_c, 0, 71, 59
1, 14772, Note_on_c, 0, 72, 0
1, 14803, Tempo, 436745
1, 14880, Tempo, 438564
1, 14880, Note_on_c, 0, 69, 58
1, 14880, Note_on_c, 0, 52, 40
1, 14880, Note_on_c, 0, 48, 40
1, 14892, Note_on_c, 0, 71, 0
1, 14957, Tempo, 440399
1, 15000, Note_on_c, 0, 67, 57
1, 15012, Note_on_c, 0, 69, 0
1, 15034, Tempo, 442217
1, 15110, Tempo, 444050
1, 15120, Note_on_c, 0, 65, 55
1, 15132, Note_on_c, 0, 67, 0
1, 15187, Tempo, 445931
1, 15240, Note_on_c, 0, 64, 53
1, 15252, Note_on_c, 0, 65, 0
1, 15341, Tempo, 442217
1, 15360, Note_on_c, 0, 48, 0
1, 15360, Note_on_c, 0, 52, 0
1, 15360, Note_on_c, 0, 62, 60
1, 15360, Note_on_c, 0, 53, 40
1, 15360, Note_on_c, 0, 57, 40
1, 15360, Control_c, 0, 64, 0
1, 15372, Note_on_c, 0, 64, 0
1, 15514, Tempo, 440399
1, 15600, Note_on_c, 0, 62, 0
1, 15600, Note_on_c, 0, 64, 53
1, 15667, Tempo, 438564
1, 15720, Note_on_c, 0, 65, 54
1, 15732, Note_on_c, 0, 64, 0
1, 15840, Tempo, 436745
1, 15840, Note_on_c, 0, 67, 55
1, 15852, Note_on_c, 0, 65, 0
1, 15960, Note_on_c, 0, 69, 57
1, 15972, Note_on_c, 0, 67, 0
1, 15994, Tempo, 434940
1, 16080, Note_on_c, 0, 71, 58
1, 16092, Note_on_c, 0, 69, 0
1, 16147, Tempo, 433182
1, 16200, Note_on_c, 0, 73, 59
1, 16212, Note_on_c, 0, 71, 0
1, 16320, Tempo, 457526
1, 16320, Note_on_c, 0, 74, 62
1, 16332, Note_on_c, 0, 73, 0
1, 16440, Note_on_c, 0, 74, 0
1, 16440, Note_on_c, 0, 69, 58
1, 16480, Tempo, 433182
1, 16560, Note_on_c, 0, 71, 61
1, 16572, Note_on_c, 0, 69, 0
1, 16680, Note_on_c, 0, 73, 64
1, 16692, Note_on_c, 0, 71, 0
1, 16800, Note_on_c, 0, 74, 66
1, 16812, Note_on_c, 0, 73, 0
1, 16920, Note_on_c, 0, 76, 67
1, 16932, Note_on_c, 0, 74, 0
1, 17040, Note_on_c, 0, 77, 68
1, 17052, Note_on_c, 0, 76, 0
1, 17120, Tempo, 441956
1, 17160, Note_on_c, 0, 79, 69
1, 17172, Note_on_c, 0, 77, 0
1, 17280, Tempo, 428878
1, 17280, Note_on_c, 0, 57, 0
1, 17280, Note_on_c, 0, 53, 0
1, 17280, Note_on_c, 0, 81, 70
1, 17280, Note_on_c, 0, 53, 60
1, 17280, Control_c, 0, 64, 0
1, 17292, Note_on_c, 0, 79, 0
1, 17400, Note_on_c, 0, 83, 69
1, 17412, Note_on_c, 0, 81, 0
1, 17520, Note_on_c, 0, 84, 71
1, 17532, Note_on_c, 0, 83, 0
1, 17640, Note_on_c, 0, 83, 69
1, 17652, Note_on_c, 0, 84, 0
1, 17760, Note_on_c, 0, 81, 67
1, 17772, Note_on_c, 0, 83, 0
1, 17880, Note_on_c, 0, 79, 65
1, 17892, Note_on_c, 0, 81, 0
1, 18000, Note_on_c, 0, 53, 0
1, 18000, Note_on_c, 0, 77, 63
1, 18000, Note_on_c, 0, 55, 55
1, 18012, Note_on_c, 0, 79, 0
1, 18080, Tempo, 443656
1, 18120, Note_on_c, 0, 76, 66
1, 18132, Note_on_c, 0, 77, 0
1, 18240, Tempo, 425743
1, 18240, Note_on_c, 0, 76, 0
1, 18240, Note_on_c, 0, 55, 0
1, 18240, Note_on_c, 0, 77, 65
1, 18240, Note_on_c, 0, 57, 60
1, 18360, Note_on_c, 0, 79, 66
1, 18372, Note_on_c, 0, 77, 0
1, 18480, Note_on_c, 0, 81, 67
1, 18492, Note_on_c, 0, 79, 0
1, 18600, Note_on_c, 0, 79, 67
1, 18612, Note_on_c, 0, 81, 0
1, 18720, Note_on_c, 0, 77, 68
1, 18732, Note_on_c, 0, 79, 0
1, 18840, Note_on_c, 0, 76, 71
1, 18852, Note_on_c, 0, 77, 0
1, 18960, Note_on_c, 0, 57, 0
1, 18960, Note_on_c, 0, 74, 73
1, 18960, Note_on_c, 0, 54, 54
1, 18972, Note_on_c, 0, 76, 0
1, 19040, Tempo, 455546
1, 19080, Note_on_c, 0, 72, 76
1, 19092, Note_on_c, 0, 74, 0
1, 19200, Tempo, 432090
1, 19200, Note_on_c, 0, 54, 0
1, 19200, Note_on_c, 0, 71, 78
1, 19200, Note_on_c, 0, 43, 65
1, 19200, Control_c, 0, 64, 127
1, 19212, Note_on_c, 0, 72, 0
1, 19320, Note_on_c, 0, 43, 0
1, 19320, Note_on_c, 0, 71, 0
1, 19320, Note_on_c, 0, 47, 56
1, 19440, Tempo, 430046
1, 19440, Note_on_c, 0, 47, 0
1, 19440, Note_on_c, 0, 79, 71
1, 19440, Note_on_c, 0, 50, 56
1, 19560, Note_on_c, 0, 50, 0
1, 19560, Note_on_c, 0, 79, 0
1, 19560, Note_on_c, 0, 55, 50
1, 19680, Note_on_c, 0, 55, 0
1, 19680, Note_on_c, 0, 76, 71
1, 19680, Note_on_c, 0, 43, 65
1, 19692, Control_c, 0, 64, 0
1, 19779, Control_c, 0, 64, 127
1, 19800, Note_on_c, 0, 43, 0
1, 19800, Note_on_c, 0, 76, 0
1, 19800, Note_on_c, 0, 48, 55
1, 19920, Note_on_c, 0, 48, 0
1, 19920, Note_on_c, 0, 72, 71
1, 19920, Note_on_c, 0, 52, 55
1, 20000, Tempo, 447828
1, 20040, Note_on_c, 0, 52, 0
1, 20040, Note_on_c, 0, 72, 0
1, 20040, Note_on_c, 0, 55, 50
1, 20160, Tempo, 432090
1, 20160, Note_on_c, 0, 55, 0
1, 20160, Note_on_c, 0, 74, 78
1, 20160, Note_on_c, 0, 43, 65
1, 20171, Control_c, 0, 64, 0
1, 20229, Control_c, 0, 64, 127
1, 20280, Note_on_c, 0, 43, 0
1, 20280, Note_on_c, 0, 74, 0
1, 20280, Note_on_c, 0, 47, 55
1, 20400, Tempo, 431624
1, 20400, Note_on_c, 0, 47, 0
1, 20400, Note_on_c, 0, 79, 71
1, 20400, Note_on_c, 0, 50, 55
1, 20520, Note_on_c, 0, 50, 0
1, 20520, Note_on_c, 0, 79, 0
1, 20520, Note_on_c, 0, 55, 54
1, 20640, Note_on_c, 0, 55, 0
1, 20640, Note_on_c, 0, 76, 71
1, 20640, Note_on_c, 0, 43, 65
1, 20650, Control_c, 0, 64, 0
1, 20760, Note_on_c, 0, 43, 0
1, 20760, Note_on_c, 0, 76, 0
1, 20760, Note_on_c, 0, 48, 57
1, 20774, Control_c, 0, 64, 127
1, 20880, Note_on_c, 0, 48, 0
1, 20880, Note_on_c, 0, 72, 71
1, 20880, Note_on_c, 0, 52, 56
1, 20960, Tempo, 445931
1, 21000, Note_on_c, 0, 52, 0
1, 21000, Note_on_c, 0, 72, 0
1, 21000, Note_on_c, 0, 55, 53
1, 21120, Tempo, 474496
1, 21120, Note_on_c, 0, 55, 0
1, 21120, Note_on_c, 0, 74, 81
1, 21120, Note_on_c, 0, 43, 65
1, 21125, Control_c, 0, 64, 0
1, 21240, Note_on_c, 0, 43, 0
1, 21240, Note_on_c, 0, 74, 0
1, 21600, Tempo, 483832
1, 21600, Note_on_c, 0, 71, 71
1, 21600, Note_on_c, 0, 74, 71
1, 21600, Note_on_c, 0, 79, 71
1, 21600, Note_on_c, 0, 55, 59
1, 21720, Note_on_c, 0, 55, 0
1, 21720, Note_on_c, 0, 71, 0
1, 21720, Note_on_c, 0, 74, 0
1, 21720, Note_on_c, 0, 79, 0
1, 22080, Note_on_c, 0, 67, 83
1, 22080, Note_on_c, 0, 43, 61
1, 22193, Control_c, 0, 64, 127
1, 22560, Tempo, 453583
1, 22560, Note_on_c, 0, 43, 0
1, 22560, Note_on_c, 0, 67, 0
1, 22560, Control_c, 0, 64, 0
1, 23040, Tempo, 433244
1, 23040, Note_on_c, 0, 61, 42
1, 23140, Tempo, 434877
1, 23160, Note_on_c, 0, 62, 36
1, 23172, Note_on_c, 0, 61, 0
1, 23245, Tempo, 428449
1, 23280, Note_on_c, 0, 62, 0
1, 23280, Note_on_c, 0, 61, 42
1, 23335, Tempo, 431624
1, 23400, Note_on_c, 0, 62, 36
1, 23412, Note_on_c, 0, 61, 0
1, 23455, Tempo, 430046
1, 23515, Tempo, 431624
1, 23520, Note_on_c, 0, 62, 0
1, 23520, Note_on_c, 0, 61, 42
1, 23605, Tempo, 430046
1, 23640, Note_on_c, 0, 62, 38
1, 23652, Note_on_c, 0, 61, 0
1, 23725, Tempo, 431624
1, 23760, Note_on_c, 0, 62, 0
1, 23760, Note_on_c, 0, 61, 42
1, 23785, Tempo, 428449
1, 23880, Tempo, 453583
1, 23880, Note_on_c, 0, 62, 37
1, 23892, Note_on_c, 0, 61, 0
1, 24000, Tempo, 431624
1, 24000, Note_on_c, 0, 62, 0
1, 24000, Note_on_c, 0, 60, 42
1, 24115, Tempo, 433244
1, 24120, Note_on_c, 0, 62, 36
1, 24132, Note_on_c, 0, 60, 0
1, 24205, Tempo, 428449
1, 24240, Note_on_c, 0, 62, 0
1, 24240, Note_on_c, 0, 60, 42
1, 24295, Tempo, 431624
1, 24360, Note_on_c, 0, 62, 37
1, 24372, Note_on_c, 0, 60, 0
1, 24480, Note_on_c, 0, 62, 0
1, 24480, Note_on_c, 0, 60, 42
1, 24490, Tempo, 428449
1, 24580, Tempo, 433244
1, 24600, Note_on_c, 0, 62, 37
1, 24612, Note_on_c, 0, 60, 0
1, 24715, Tempo, 430046
1, 24720, Note_on_c, 0, 62, 0
1, 24720, Note_on_c, 0, 60, 42
1, 24840, Tempo, 457143
1, 24840, Note_on_c, 0, 62, 38
1, 24852, Note_on_c, 0, 60, 0
1, 24960, Tempo, 434877
1, 24960, Note_on_c, 0, 62, 0
1, 24960, Note_on_c, 0, 86, 61
1, 24960, Note_on_c, 0, 59, 42
1, 25017, Control_c, 0, 64, 127
1, 25080, Note_on_c, 0, 59, 0
1, 25080, Note_on_c, 0, 62, 36
1, 25200, Tempo, 438148
1, 25200, Note_on_c, 0, 62, 0
1, 25200, Note_on_c, 0, 86, 0
1, 25200, Note_on_c, 0, 83, 55
1, 25200, Note_on_c, 0, 59, 42
1, 25320, Note_on_c, 0, 59, 0
1, 25320, Note_on_c, 0, 62, 36
1, 25440, Note_on_c, 0, 62, 0
1, 25440, Note_on_c, 0, 83, 0
1, 25440, Note_on_c, 0, 79, 61
1, 25440, Note_on_c, 0, 59, 42
1, 25560, Note_on_c, 0, 59, 0
1, 25560, Note_on_c, 0, 62, 32
1, 25680, Note_on_c, 0, 62, 0
1, 25680, Note_on_c, 0, 59, 38
1, 25800, Note_on_c, 0, 59, 0
1, 25800, Note_on_c, 0, 62, 33
1, 25920, Tempo, 434877
1, 25920, Note_on_c, 0, 62, 0
1, 25920, Note_on_c, 0, 59, 39
1, 25920, Control_c, 0, 64, 0
1, 26040, Note_on_c, 0, 59, 0
1, 26040, Note_on_c, 0, 62, 32
1, 26160, Tempo, 438148
1, 26160, Note_on_c, 0, 62, 0
1, 26160, Note_on_c, 0, 79, 0
1, 26160, Note_on_c, 0, 81, 53
1, 26160, Note_on_c, 0, 59, 39
1, 26280, Note_on_c, 0, 59, 0
1, 26280, Note_on_c, 0, 81, 0
1, 26280, Note_on_c, 0, 83, 51
1, 26280, Note_on_c, 0, 62, 34
1, 26400, Note_on_c, 0, 62, 0
1, 26400, Note_on_c, 0, 83, 0
1, 26400, Note_on_c, 0, 81, 55
1, 26400, Note_on_c, 0, 59, 42
1, 26520, Note_on_c, 0, 59, 0
1, 26520, Note_on_c, 0, 62, 37
1, 26640, Note_on_c, 0, 62, 0
1, 26640, Note_on_c, 0, 81, 0
1, 26640, Note_on_c, 0, 79, 53
1, 26640, Note_on_c, 0, 59, 42
1, 26760, Note_on_c, 0, 59, 0
1, 26760, Note_on_c, 0, 79, 0
1, 26760, Note_on_c, 0, 62, 38
1, 26880, Tempo, 441501
1, 26880, Note_on_c, 0, 62, 0
1, 26880, Note_on_c, 0, 79, 55
1, 26880, Note_on_c, 0, 60, 46
1, 26915, Control_c, 0, 64, 127
1, 26940, Note_on_c, 0, 79, 0
1, 26940, Note_on_c, 0, 81, 51
1, 27000, Note_on_c, 0, 81, 0
1, 27000, Note_on_c, 0, 60, 0
1, 27000, Note_on_c, 0, 79, 56
1, 27000, Note_on_c, 0, 62, 38
1, 27060, Note_on_c, 0, 79, 0
1, 27060, Note_on_c, 0, 81, 51
1, 27120, Note_on_c, 0, 81, 0
1, 27120, Note_on_c, 0, 62, 0
1, 27120, Note_on_c, 0, 79, 58
1, 27120, Note_on_c, 0, 59, 42
1, 27124, Control_c, 0, 64, 0
1, 27152, Control_c, 0, 64, 127
1, 27240, Note_on_c, 0, 59, 0
1, 27240, Note_on_c, 0, 79, 0
1, 27240, Note_on_c, 0, 78, 52
1, 27240, Note_on_c, 0, 62, 36
1, 27350, Note_on_c, 0, 78, 0
1, 27360, Tempo, 436491
1, 27360, Note_on_c, 0, 62, 0
1, 27360, Note_on_c, 0, 78, 58
1, 27360, Note_on_c, 0, 57, 39
1, 27363, Control_c, 0, 64, 0
1, 27480, Note_on_c, 0, 62, 27
1, 27492, Note_on_c, 0, 57, 0
1, 27600, Note_on_c, 0, 62, 0
1, 27600, Note_on_c, 0, 59, 47
1, 27720, Note_on_c, 0, 62, 35
1, 27732, Note_on_c, 0, 59, 0
1, 27840, Note_on_c, 0, 62, 0
1, 27840, Note_on_c, 0, 78, 0
1, 27840, Note_on_c, 0, 60, 50
1, 27960, Note_on_c, 0, 62, 36
1, 27972, Note_on_c, 0, 60, 0
1, 28080, Note_on_c, 0, 62, 0
1, 28080, Note_on_c, 0, 59, 44
1, 28200, Note_on_c, 0, 62, 30
1, 28212, Note_on_c, 0, 59, 0
1, 28320, Tempo, 439818
1, 28320, Note_on_c, 0, 62, 0
1, 28320, Note_on_c, 0, 60, 52
1, 28440, Note_on_c, 0, 62, 31
1, 28452, Note_on_c, 0, 60, 0
1, 28560, Note_on_c, 0, 62, 0
1, 28560, Note_on_c, 0, 57, 40
1, 28680, Tempo, 473971
1, 28680, Note_on_c, 0, 62, 28
1, 28692, Note_on_c, 0, 57, 0
1, 28800, Tempo, 434877
1, 28800, Note_on_c, 0, 62, 0
1, 28800, Note_on_c, 0, 86, 61
1, 28800, Note_on_c, 0, 59, 42
1, 28836, Control_c, 0, 64, 127
1, 28920, Note_on_c, 0, 59, 0
1, 28920, Note_on_c, 0, 62, 36
1, 29040, Tempo, 438148
1, 29040, Note_on_c, 0, 62, 0
1, 29040, Note_on_c, 0, 86, 0
1, 29040, Note_on_c, 0, 83, 55
1, 29040, Note_on_c, 0, 59, 42
1, 29160, Note_on_c, 0, 59, 0
1, 29160, Note_on_c, 0, 62, 36
1, 29280, Note_on_c, 0, 62, 0
1, 29280, Note_on_c, 0, 83, 0
1, 29280, Note_on_c, 0, 79, 61
1, 29280, Note_on_c, 0, 59, 42
1, 29400, Note_on_c, 0, 59, 0
1, 29400, Note_on_c, 0, 62, 32
1, 29520, Note_on_c, 0, 62, 0
1, 29520, Note_on_c, 0, 59, 38
1, 29640, Note_on_c, 0, 59, 0
1, 29640, Note_on_c, 0, 62, 33
1, 29760, Tempo, 434877
1, 29760, Note_on_c, 0, 62, 0
1, 29760, Note_on_c, 0, 59, 39
1, 29760, Control_c, 0, 64, 0
1, 29880, Note_on_c, 0, 59, 0
1, 29880, Note_on_c, 0, 62, 32
1, 30000, Tempo, 438148
1, 30000, Note_on_c, 0, 62, 0
1, 30000, Note_on_c, 0, 79, 0
1, 30000, Note_on_c, 0, 81, 53
1, 30000, Note_on_c, 0, 59, 39
1, 30120, Note_on_c, 0, 59, 0
1, 30120, Note_on_c, 0, 81, 0
1, 30120, Note_on_c, 0, 83, 51
1, 30120, Note_on_c, 0, 62, 34
1, 30240, Note_on_c, 0, 62, 0
1, 30240, Note_on_c, 0, 83, 0
1, 30240, Note_on_c, 0, 81, 55
1, 30240, Note_on_c, 0, 59, 42
1, 30360, Note_on_c, 0, 59, 0
1, 30360, Note_on_c, 0, 62, 37
1, 30480, Note_on_c, 0, 62, 0
1, 30480, Note_on_c, 0, 81, 0
1, 30480, Note_on_c, 0, 79, 53
1, 30480, Note_on_c, 0, 59, 42
1, 30600, Note_on_c, 0, 59, 0
1, 30600, Note_on_c, 0, 79, 0
1, 30600, Note_on_c, 0, 62, 38
1, 30720, Tempo, 441501
1, 30720, Note_on_c, 0, 62, 0
1, 30720, Note_on_c, 0, 79, 55
1, 30720, Note_on_c, 0, 60, 42
1, 30755, Control_c, 0, 64, 127
1, 30780, Note_on_c, 0, 79, 0
1, 30780, Note_on_c, 0, 81, 51
1, 30840, Note_on_c, 0, 81, 0
1, 30840, Note_on_c, 0, 60, 0
1, 30840, Note_on_c, 0, 79, 56
1, 30840, Note_on_c, 0, 62, 36
1, 30900, Note_on_c, 0, 79, 0
1, 30900, Note_on_c, 0, 81, 50
1, 30960, Note_on_c, 0, 81, 0
1, 30960, Note_on_c, 0, 62, 0
1, 30960, Note_on_c, 0, 79, 55
1, 30960, Note_on_c, 0, 59, 42
1, 30964, Control_c, 0, 64, 0
1, 30992, Control_c, 0, 64, 127
1, 31080, Note_on_c, 0, 59, 0
1, 31080, Note_on_c, 0, 79, 0
1, 31080, Note_on_c, 0, 78, 52
1, 31080, Note_on_c, 0, 62, 36
1, 31170, Note_on_c, 0, 78, 0
1, 31200, Tempo, 438148
1, 31200, Note_on_c, 0, 62, 0
1, 31200, Note_on_c, 0, 78, 58
1, 31200, Note_on_c, 0, 57, 39
1, 31204, Control_c, 0, 64, 0
1, 31320, Note_on_c, 0, 62, 29
1, 31332, Note_on_c, 0, 57, 0
1, 31440, Note_on_c, 0, 62, 0
1, 31440, Note_on_c, 0, 59, 42
1, 31560, Note_on_c, 0, 62, 32
1, 31572, Note_on_c, 0, 59, 0
1, 31680, Note_on_c, 0, 62, 0
1, 31680, Note_on_c, 0, 78, 0
1, 31680, Note_on_c, 0, 60, 48
1, 31800, Note_on_c, 0, 62, 36
1, 31812, Note_on_c, 0, 60, 0
1, 31920, Note_on_c, 0, 62, 0
1, 31920, Note_on_c, 0, 59, 43
1, 32040, Note_on_c, 0, 62, 30
1, 32052, Note_on_c, 0, 59, 0
1, 32160, Tempo, 439818
1, 32160, Note_on_c, 0, 62, 0
1, 32160, Note_on_c, 0, 60, 48
1, 32280, Note_on_c, 0, 62, 36
1, 32292, Note_on_c, 0, 60, 0
1, 32400, Note_on_c, 0, 62, 0
1, 32400, Note_on_c, 0, 57, 43
1, 32520, Tempo, 468238
1, 32520, Note_on_c, 0, 62, 30
1, 32532, Note_on_c, 0, 57, 0
1, 32640, Tempo, 475888
1, 32640, Note_on_c, 0, 62, 0
1, 32640, Note_on_c, 0, 86, 69
1, 32749, Tempo, 451807
1, 32760, Note_on_c, 0, 59, 39
1, 32760, Control_c, 0, 64, 127
1, 32794, Tempo, 450045
1, 32824, Tempo, 448330
1, 32869, Tempo, 446595
1, 32880, Note_on_c, 0, 59, 0
1, 32880, Note_on_c, 0, 62, 42
1, 32899, Tempo, 444873
1, 32944, Tempo, 443164
1, 32974, Tempo, 441501
1, 33000, Note_on_c, 0, 62, 0
1, 33000, Note_on_c, 0, 67, 39
1, 33004, Tempo, 439818
1, 33120, Tempo, 470109
1, 33120, Note_on_c, 0, 67, 0
1, 33120, Note_on_c, 0, 86, 0
1, 33120, Note_on_c, 0, 71, 48
1, 33240, Tempo, 441501
1, 33240, Note_on_c, 0, 86, 61
1, 33360, Note_on_c, 0, 86, 0
1, 33360, Note_on_c, 0, 83, 66
1, 33480, Note_on_c, 0, 83, 0
1, 33480, Note_on_c, 0, 79, 61
1, 33600, Tempo, 457143
1, 33600, Note_on_c, 0, 79, 0
1, 33600, Note_on_c, 0, 71, 0
1, 33600, Note_on_c, 0, 76, 68
1, 33612, Control_c, 0, 64, 0
1, 33720, Tempo, 439818
1, 33720, Note_on_c, 0, 60, 42
1, 33724, Tempo, 448330
1, 33756, Control_c, 0, 64, 127
1, 33784, Tempo, 446595
1, 33829, Tempo, 444873
1, 33840, Note_on_c, 0, 60, 0
1, 33840, Note_on_c, 0, 64, 44
1, 33874, Tempo, 443164
1, 33919, Tempo, 441501
1, 33960, Note_on_c, 0, 64, 0
1, 33960, Note_on_c, 0, 67, 41
1, 33964, Tempo, 439818
1, 34009, Tempo, 438148
1, 34080, Tempo, 451807
1, 34080, Note_on_c, 0, 67, 0
1, 34080, Note_on_c, 0, 76, 0
1, 34080, Note_on_c, 0, 72, 52
1, 34200, Tempo, 439818
1, 34200, Note_on_c, 0, 76, 61
1, 34320, Note_on_c, 0, 76, 0
1, 34320, Note_on_c, 0, 79, 66
1, 34440, Note_on_c, 0, 79, 0
1, 34440, Note_on_c, 0, 76, 61
1, 34560, Tempo, 475888
1, 34560, Note_on_c, 0, 76, 0
1, 34560, Note_on_c, 0, 72, 0
1, 34560, Note_on_c, 0, 84, 69
1, 34560, Control_c, 0, 64, 0
1, 34617, Control_c, 0, 64, 127
1, 34669, Tempo, 451807
1, 34680, Note_on_c, 0, 57, 39
1, 34714, Tempo, 450045
1, 34759, Tempo, 448330
1, 34789, Tempo, 446595
1, 34800, Note_on_c, 0, 57, 0
1, 34800, Note_on_c, 0, 60, 42
1, 34834, Tempo, 444873
1, 34864, Tempo, 443164
1, 34920, Note_on_c, 0, 60, 0
1, 34920, Note_on_c, 0, 66, 39
1, 35040, Tempo, 451807
1, 35040, Note_on_c, 0, 66, 0
1, 35040, Note_on_c, 0, 84, 0
1, 35040, Note_on_c, 0, 69, 48
1, 35160, Tempo, 441501
1, 35160, Note_on_c, 0, 84, 61
1, 35280, Note_on_c, 0, 84, 0
1, 35280, Note_on_c, 0, 81, 66
1, 35400, Note_on_c, 0, 81, 0
1, 35400, Note_on_c, 0, 78, 61
1, 35520, Tempo, 457143
1, 35520, Note_on_c, 0, 78, 0
1, 35520, Note_on_c, 0, 69, 0
1, 35520, Note_on_c, 0, 74, 68
1, 35532, Control_c, 0, 64, 0
1, 35629, Tempo, 443164
1, 35640, Note_on_c, 0, 59, 42
1, 35676, Control_c, 0, 64, 127
1, 35749, Tempo, 441501
1, 35760, Note_on_c, 0, 59, 0
1, 35760, Note_on_c, 0, 62, 44
1, 35854, Tempo, 439818
1, 35880, Note_on_c, 0, 62, 0
1, 35880, Note_on_c, 0, 66, 41
1, 35959, Tempo, 438148
1, 36000, Tempo, 448163
1, 36000, Note_on_c, 0, 66, 0
1, 36000, Note_on_c, 0, 74, 0
1, 36000, Note_on_c, 0, 71, 52
1, 36120, Tempo, 439818
1, 36120, Note_on_c, 0, 74, 61
1, 36240, Note_on_c, 0, 74, 0
1, 36240, Note_on_c, 0, 78, 66
1, 36360, Note_on_c, 0, 78, 0
1, 36360, Note_on_c, 0, 74, 61
1, 36480, Tempo, 451535
1, 36480, Note_on_c, 0, 74, 0
1, 36480, Note_on_c, 0, 71, 0
1, 36480, Note_on_c, 0, 83, 68
1, 36480, Control_c, 0, 64, 0
1, 36537, Control_c, 0, 64, 127
1, 36600, Tempo, 441501
1, 36600, Note_on_c, 0, 55, 39
1, 36604, Tempo, 448330
1, 36664, Tempo, 446595
1, 36720, Note_on_c, 0, 55, 0
1, 36720, Note_on_c, 0, 59, 42
1, 36724, Tempo, 444873
1, 36769, Tempo, 443164
1, 36829, Tempo, 441501
1, 36840, Note_on_c, 0, 59, 0
1, 36840, Note_on_c, 0, 64, 39
1, 36874, Tempo, 439818
1, 36960, Tempo, 451807
1, 36960, Note_on_c, 0, 64, 0
1, 36960, Note_on_c, 0, 83, 0
1, 36960, Note_on_c, 0, 67, 48
1, 37080, Tempo, 441501
1, 37080, Note_on_c, 0, 83, 61
1, 37200, Note_on_c, 0, 83, 0
1, 37200, Note_on_c, 0, 79, 66
1, 37320, Note_on_c, 0, 79, 0
1, 37320, Note_on_c, 0, 76, 61
1, 37440, Tempo, 457143
1, 37440, Note_on_c, 0, 76, 0
1, 37440, Note_on_c, 0, 67, 0
1, 37440, Note_on_c, 0, 72, 68
1, 37452, Control_c, 0, 64, 0
1, 37549, Tempo, 448330
1, 37560, Note_on_c, 0, 57, 42
1, 37594, Tempo, 446595
1, 37596, Control_c, 0, 64, 127
1, 37639, Tempo, 444873
1, 37680, Note_on_c, 0, 57, 0
1, 37680, Note_on_c, 0, 60, 44
1, 37684, Tempo, 443164
1, 37729, Tempo, 441501
1, 37774, Tempo, 439818
1, 37800, Note_on_c, 0, 60, 0
1, 37800, Note_on_c, 0, 64, 41
1, 37819, Tempo, 438148
1, 37849, Tempo, 436491
1, 37920, Tempo, 451807
1, 37920, Note_on_c, 0, 64, 0
1, 37920, Note_on_c, 0, 72, 0
1, 37920, Note_on_c, 0, 69, 52
1, 38040, Tempo, 439818
1, 38040, Note_on_c, 0, 72, 61
1, 38160, Note_on_c, 0, 72, 0
1, 38160, Note_on_c, 0, 76, 66
1, 38280, Note_on_c, 0, 76, 0
1, 38280, Note_on_c, 0, 72, 61
1, 38400, Tempo, 475888
1, 38400, Note_on_c, 0, 72, 0
1, 38400, Note_on_c, 0, 69, 0
1, 38400, Note_on_c, 0, 81, 68
1, 38400, Control_c, 0, 64, 0
1, 38457, Control_c, 0, 64, 127
1, 38520, Tempo, 441501
1, 38520, Note_on_c, 0, 54, 39
1, 38640, Note_on_c, 0, 54, 0
1, 38640, Note_on_c, 0, 57, 42
1, 38760, Note_on_c, 0, 57, 0
1, 38760, Note_on_c, 0, 62, 39
1, 38880, Tempo, 451807
1, 38880, Note_on_c, 0, 62, 0
1, 38880, Note_on_c, 0, 81, 0
1, 38880, Note_on_c, 0, 66, 48
1, 39000, Tempo, 441501
1, 39000, Note_on_c, 0, 81, 61
1, 39120, Note_on_c, 0, 81, 0
1, 39120, Note_on_c, 0, 78, 66
1, 39240, Note_on_c, 0, 78, 0
1, 39240, Note_on_c, 0, 72, 61
1, 39360, Tempo, 457143
1, 39360, Note_on_c, 0, 72, 0
1, 39360, Note_on_c, 0, 66, 0
1, 39360, Note_on_c, 0, 71, 68
1, 39372, Control_c, 0, 64, 0
1, 39480, Tempo, 439818
1, 39480, Note_on_c, 0, 55, 42
1, 39516, Control_c, 0, 64, 127
1, 39600, Note_on_c, 0, 55, 0
1, 39600, Note_on_c, 0, 59, 44
1, 39720, Note_on_c, 0, 59, 0
1, 39720, Note_on_c, 0, 62, 41
1, 39840, Tempo, 451807
1, 39840, Note_on_c, 0, 62, 0
1, 39840, Note_on_c, 0, 71, 0
1, 39840, Note_on_c, 0, 67, 52
1, 39960, Tempo, 439818
1, 39960, Note_on_c, 0, 79, 61
1, 40080, Note_on_c, 0, 79, 0
1, 40080, Note_on_c, 0, 74, 66
1, 40200, Note_on_c, 0, 74, 0
1, 40200, Note_on_c, 0, 71, 61
1, 40320, Note_on_c, 0, 71, 0
1, 40320, Note_on_c, 0, 67, 0
1, 40320, Note_on_c, 0, 69, 66
1, 40320, Note_on_c, 0, 60, 44
1, 40320, Note_on_c, 0, 64, 44
1, 40320, Control_c, 0, 64, 0
1, 40440, Note_on_c, 0, 64, 0
1, 40440, Note_on_c, 0, 60, 0
1, 40560, Note_on_c, 0, 60, 39
1, 40560, Note_on_c, 0, 64, 39
1, 40680, Note_on_c, 0, 64, 0
1, 40680, Note_on_c, 0, 60, 0
1, 40800, Note_on_c, 0, 60, 39
1, 40800, Note_on_c, 0, 64, 39
1, 40920, Note_on_c, 0, 64, 0
1, 40920, Note_on_c, 0, 60, 0
1, 41040, Note_on_c, 0, 60, 39
1, 41040, Note_on_c, 0, 64, 39
1, 41160, Note_on_c, 0, 64, 0
1, 41160, Note_on_c, 0, 60, 0
1, 41220, Note_on_c, 0, 69, 0
1, 41220, Note_on_c, 0, 71, 64
1, 41280, Note_on_c, 0, 71, 0
1, 41280, Note_on_c, 0, 72, 69
1, 41280, Note_on_c, 0, 60, 44
1, 41280, Note_on_c, 0, 64, 44
1, 41400, Note_on_c, 0, 64, 0
1, 41400, Note_on_c, 0, 60, 0
1, 41520, Note_on_c, 0, 60, 40
1, 41520, Note_on_c, 0, 64, 40
1, 41640, Note_on_c, 0, 64, 0
1, 41640, Note_on_c, 0, 60, 0
1, 41700, Note_on_c, 0, 72, 0
1, 41700, Note_on_c, 0, 75, 65
1, 41760, Note_on_c, 0, 75, 0
1, 41760, Note_on_c, 0, 76, 72
1, 41760, Note_on_c, 0, 60, 40
1, 41760, Note_on_c, 0, 64, 40
1, 41880, Note_on_c, 0, 64, 0
1, 41880, Note_on_c, 0, 60, 0
1, 42000, Tempo, 455339
1, 42000, Note_on_c, 0, 60, 41
1, 42000, Note_on_c, 0, 64, 41
1, 42120, Note_on_c, 0, 64, 0
1, 42120, Note_on_c, 0, 60, 0
1, 42180, Note_on_c, 0, 76, 0
1, 42180, Note_on_c, 0, 80, 65
1, 42240, Tempo, 438148
1, 42240, Note_on_c, 0, 80, 0
1, 42240, Note_on_c, 0, 81, 71
1, 42240, Note_on_c, 0, 60, 50
1, 42240, Note_on_c, 0, 64, 50
1, 42360, Note_on_c, 0, 64, 0
1, 42360, Note_on_c, 0, 60, 0
1, 42480, Note_on_c, 0, 60, 44
1, 42480, Note_on_c, 0, 64, 44
1, 42600, Note_on_c, 0, 64, 0
1, 42600, Note_on_c, 0, 60, 0
1, 42720, Note_on_c, 0, 60, 44
1, 42720, Note_on_c, 0, 64, 44
1, 42840, Note_on_c, 0, 64, 0
1, 42840, Note_on_c, 0, 60, 0
1, 42960, Note_on_c, 0, 81, 0
1, 42960, Note_on_c, 0, 83, 66
1, 42960, Note_on_c, 0, 60, 44
1, 42960, Note_on_c, 0, 64, 44
1, 43020, Note_on_c, 0, 83, 0
1, 43020, Note_on_c, 0, 81, 66
1, 43080, Note_on_c, 0, 81, 0
1, 43080, Note_on_c, 0, 64, 0
1, 43080, Note_on_c, 0, 60, 0
1, 43080, Note_on_c, 0, 80, 66
1, 43140, Note_on_c, 0, 80, 0
1, 43140, Note_on_c, 0, 81, 66
1, 43200, Note_on_c, 0, 81, 0
1, 43200, Note_on_c, 0, 84, 74
1, 43200, Note_on_c, 0, 60, 49
1, 43200, Note_on_c, 0, 64, 49
1, 43320, Note_on_c, 0, 64, 0
1, 43320, Note_on_c, 0, 60, 0
1, 43440, Note_on_c, 0, 84, 0
1, 43440, Note_on_c, 0, 81, 68
1, 43440, Note_on_c, 0, 60, 46
1, 43440, Note_on_c, 0, 64, 46
1, 43560, Note_on_c, 0, 64, 0
1, 43560, Note_on_c, 0, 60, 0
1, 43680, Note_on_c, 0, 81, 0
1, 43680, Note_on_c, 0, 84, 75
1, 43680, Note_on_c, 0, 60, 46
1, 43680, Note_on_c, 0, 64, 46
1, 43800, Note_on_c, 0, 64, 0
1, 43800, Note_on_c, 0, 60, 0
1, 43920, Note_on_c, 0, 84, 0
1, 43920, Note_on_c, 0, 81, 69
1, 43920, Note_on_c, 0, 60, 46
1, 43920, Note_on_c, 0, 64, 46
1, 44040, Tempo, 455339
1, 44040, Note_on_c, 0, 64, 0
1, 44040, Note_on_c, 0, 60, 0
1, 44160, Tempo, 436491
1, 44160, Note_on_c, 0, 81, 0
1, 44160, Note_on_c, 0, 83, 78
1, 44160, Note_on_c, 0, 62, 50
1, 44196, Control_c, 0, 64, 127
1, 44280, Note_on_c, 0, 62, 0
1, 44280, Note_on_c, 0, 71, 42
1, 44400, Note_on_c, 0, 71, 0
1, 44400, Note_on_c, 0, 83, 0
1, 44400, Note_on_c, 0, 79, 73
1, 44400, Note_on_c, 0, 67, 42
1, 44520, Tempo, 458961
1, 44520, Note_on_c, 0, 67, 0
1, 44520, Note_on_c, 0, 71, 42
1, 44640, Tempo, 436491
1, 44640, Note_on_c, 0, 71, 0
1, 44640, Note_on_c, 0, 79, 0
1, 44640, Note_on_c, 0, 86, 79
1, 44640, Note_on_c, 0, 62, 49
1, 44760, Note_on_c, 0, 62, 0
1, 44760, Note_on_c, 0, 71, 42
1, 44880, Note_on_c, 0, 71, 0
1, 44880, Note_on_c, 0, 67, 42
1, 45000, Note_on_c, 0, 67, 0
1, 45000, Note_on_c, 0, 71, 42
1, 45120, Note_on_c, 0, 71, 0
1, 45120, Note_on_c, 0, 62, 48
1, 45240, Note_on_c, 0, 62, 0
1, 45240, Note_on_c, 0, 71, 42
1, 45360, Note_on_c, 0, 71, 0
1, 45360, Note_on_c, 0, 67, 42
1, 45480, Note_on_c, 0, 67, 0
1, 45480, Note_on_c, 0, 71, 42
1, 45600, Note_on_c, 0, 71, 0
1, 45600, Note_on_c, 0, 86, 0
1, 45600, Note_on_c, 0, 84, 70
1, 45600, Note_on_c, 0, 62, 49
1, 45664, Control_c, 0, 64, 0
1, 45720, Note_on_c, 0, 62, 0
1, 45720, Note_on_c, 0, 84, 0
1, 45720, Note_on_c, 0, 83, 68
1, 45720, Note_on_c, 0, 71, 42
1, 45727, Control_c, 0, 64, 127
1, 45840, Note_on_c, 0, 71, 0
1, 45840, Note_on_c, 0, 83, 0
1, 45840, Note_on_c, 0, 81, 67
1, 45840, Note_on_c, 0, 67, 42
1, 45960, Tempo, 462606
1, 45960, Note_on_c, 0, 67, 0
1, 45960, Note_on_c, 0, 81, 0
1, 45960, Note_on_c, 0, 79, 65
1, 45960, Note_on_c, 0, 71, 42
1, 46045, Tempo, 475888
1, 46080, Note_on_c, 0, 71, 0
1, 46080, Note_on_c, 0, 79, 0
1, 46080, Note_on_c, 0, 81, 49
1, 46080, Note_on_c, 0, 62, 50
1, 46083, Tempo, 473971
1, 46087, Control_c, 0, 64, 0
1, 46122, Tempo, 472032
1, 46126, Control_c, 0, 64, 127
1, 46140, Note_on_c, 0, 81, 0
1, 46140, Note_on_c, 0, 83, 38
1, 46141, Tempo, 470109
1, 46179, Tempo, 468238
1, 46199, Tempo, 466345
1, 46200, Note_on_c, 0, 83, 0
1, 46200, Note_on_c, 0, 62, 0
1, 46200, Note_on_c, 0, 81, 49
1, 46200, Note_on_c, 0, 72, 42
1, 46237, Tempo, 464468
1, 46260, Note_on_c, 0, 81, 0
1, 46260, Note_on_c, 0, 83, 40
1, 46275, Tempo, 462606
1, 46295, Tempo, 460794
1, 46320, Note_on_c, 0, 83, 0
1, 46320, Note_on_c, 0, 72, 0
1, 46320, Note_on_c, 0, 81, 50
1, 46320, Note_on_c, 0, 66, 42
1, 46333, Tempo, 458961
1, 46352, Tempo, 457143
1, 46380, Note_on_c, 0, 81, 0
1, 46380, Note_on_c, 0, 83, 40
1, 46391, Tempo, 455339
1, 46429, Tempo, 453583
1, 46440, Note_on_c, 0, 83, 0
1, 46440, Note_on_c, 0, 66, 0
1, 46440, Note_on_c, 0, 81, 50
1, 46440, Note_on_c, 0, 72, 42
1, 46448, Tempo, 451807
1, 46487, Tempo, 450045
1, 46500, Note_on_c, 0, 81, 0
1, 46500, Note_on_c, 0, 83, 40
1, 46506, Tempo, 448330
1, 46544, Tempo, 448330
1, 46560, Note_on_c, 0, 83, 0
1, 46560, Note_on_c, 0, 72, 0
1, 46560, Note_on_c, 0, 81, 52
1, 46560, Note_on_c, 0, 62, 49
1, 46583, Tempo, 450045
1, 46620, Note_on_c, 0, 81, 0
1, 46620, Note_on_c, 0, 83, 40
1, 46640, Tempo, 451807
1, 46679, Tempo, 453583
1, 46680, Note_on_c, 0, 83, 0
1, 46680, Note_on_c, 0, 62, 0
1, 46680, Note_on_c, 0, 81, 52
1, 46680, Note_on_c, 0, 72, 42
1, 46736, Tempo, 451807
1, 46740, Note_on_c, 0, 81, 0
1, 46740, Note_on_c, 0, 83, 41
1, 46794, Tempo, 450045
1, 46800, Note_on_c, 0, 83, 0
1, 46800, Note_on_c, 0, 72, 0
1, 46800, Note_on_c, 0, 81, 53
1, 46800, Note_on_c, 0, 66, 42
1, 46851, Tempo, 448330
1, 46860, Note_on_c, 0, 81, 0
1, 46860, Note_on_c, 0, 83, 41
1, 46909, Tempo, 446595
1, 46920, Note_on_c, 0, 83, 0
1, 46920, Note_on_c, 0, 66, 0
1, 46920, Note_on_c, 0, 81, 53
1, 46920, Note_on_c, 0, 72, 42
1, 46947, Tempo, 444873
1, 46980, Note_on_c, 0, 81, 0
1, 46980, Note_on_c, 0, 83, 42
1, 47040, Note_on_c, 0, 83, 0
1, 47040, Note_on_c, 0, 72, 0
1, 47040, Note_on_c, 0, 81, 54
1, 47040, Note_on_c, 0, 62, 48
1, 47100, Note_on_c, 0, 81, 0
1, 47100, Note_on_c, 0, 83, 43
1, 47160, Note_on_c, 0, 83, 0
1, 47160, Note_on_c, 0, 62, 0
1, 47160, Note_on_c, 0, 81, 54
1, 47160, Note_on_c, 0, 72, 42
1, 47220, Note_on_c, 0, 81, 0
1, 47220, Note_on_c, 0, 83, 45
1, 47280, Note_on_c, 0, 83, 0
1, 47280, Note_on_c, 0, 72, 0
1, 47280, Note_on_c, 0, 81, 54
1, 47280, Note_on_c, 0, 66, 42
1, 47340, Note_on_c, 0, 81, 0
1, 47340, Note_on_c, 0, 83, 44
1, 47389, Tempo, 444873
1, 47400, Note_on_c, 0, 83, 0
1, 47400, Note_on_c, 0, 66, 0
1, 47400, Note_on_c, 0, 81, 54
1, 47400, Note_on_c, 0, 72, 42
1, 47447, Tempo, 446595
1, 47460, Note_on_c, 0, 81, 0
1, 47460, Note_on_c, 0, 83, 44
1, 47485, Tempo, 448330
1, 47520, Note_on_c, 0, 83, 0
1, 47520, Note_on_c, 0, 72, 0
1, 47520, Note_on_c, 0, 81, 53
1, 47520, Note_on_c, 0, 62, 49
1, 47523, Tempo, 450045
1, 47580, Note_on_c, 0, 81, 0
1, 47580, Note_on_c, 0, 83, 45
1, 47581, Tempo, 451807
1, 47619, Tempo, 453583
1, 47640, Note_on_c, 0, 83, 0
1, 47640, Note_on_c, 0, 62, 0
1, 47640, Note_on_c, 0, 81, 53
1, 47640, Note_on_c, 0, 72, 42
1, 47658, Tempo, 455339
1, 47696, Tempo, 457143
1, 47700, Note_on_c, 0, 81, 0
1, 47700, Note_on_c, 0, 83, 42
1, 47754, Tempo, 458961
1, 47760, Note_on_c, 0, 83, 0
1, 47760, Note_on_c, 0, 72, 0
1, 47760, Note_on_c, 0, 81, 53
1, 47760, Note_on_c, 0, 66, 42
1, 47792, Tempo, 460794
1, 47831, Tempo, 462606
1, 47840, Note_on_c, 0, 81, 0
1, 47840, Note_on_c, 0, 79, 59
1, 47869, Tempo, 464468
1, 47880, Note_on_c, 0, 66, 0
1, 47880, Note_on_c, 0, 72, 42
1, 47920, Note_on_c, 0, 79, 0
1, 47920, Note_on_c, 0, 81, 58
1, 48000, Note_on_c, 0, 81, 0
1, 48000, Note_on_c, 0, 72, 0
1, 48000, Note_on_c, 0, 79, 69
1, 48000, Note_on_c, 0, 67, 49
1, 48000, Note_on_c, 0, 71, 58
1, 48000, Control_c, 0, 64, 0
1, 48480, Tempo, 458961
1, 48480, Note_on_c, 0, 71, 0
1, 48480, Note_on_c, 0, 67, 0
1, 48480, Note_on_c, 0, 79, 0
1, 48480, Note_on_c, 0, 79, 67
1, 48520, Control_c, 0, 64, 127
1, 48600, Note_on_c, 0, 79, 0
1, 48600, Note_on_c, 0, 74, 59
1, 48720, Note_on_c, 0, 74, 0
1, 48720, Note_on_c, 0, 79, 62
1, 48840, Tempo, 477859
1, 48840, Note_on_c, 0, 79, 0
1, 48840, Note_on_c, 0, 83, 65
1, 48960, Tempo, 457143
1, 48960, Note_on_c, 0, 83, 0
1, 48960, Note_on_c, 0, 86, 68
1, 49080, Note_on_c, 0, 86, 0
1, 49080, Note_on_c, 0, 83, 63
1, 49200, Note_on_c, 0, 83, 0
1, 49200, Note_on_c, 0, 79, 68
1, 49320, Tempo, 466345
1, 49320, Note_on_c, 0, 79, 0
1, 49320, Note_on_c, 0, 83, 63
1, 49440, Tempo, 455339
1, 49440, Note_on_c, 0, 83, 0
1, 49440, Note_on_c, 0, 84, 69
1, 49440, Note_on_c, 0, 62, 40
1, 49440, Note_on_c, 0, 69, 40
1, 49440, Note_on_c, 0, 72, 48
1, 49455, Control_c, 0, 64, 0
1, 49549, Control_c, 0, 64, 127
1, 49560, Note_on_c, 0, 84, 0
1, 49560, Note_on_c, 0, 81, 63
1, 49680, Note_on_c, 0, 81, 0
1, 49680, Note_on_c, 0, 78, 69
1, 49800, Tempo, 477859
1, 49800, Note_on_c, 0, 78, 0
1, 49800, Note_on_c, 0, 81, 63
1, 49920, Tempo, 464468
1, 49920, Note_on_c, 0, 81, 0
1, 49920, Note_on_c, 0, 72, 0
1, 49920, Note_on_c, 0, 69, 0
1, 49920, Note_on_c, 0, 62, 0
1, 49920, Note_on_c, 0, 79, 69
1, 49920, Note_on_c, 0, 67, 49
1, 49920, Note_on_c, 0, 71, 58
1, 49932, Control_c, 0, 64, 0
1, 50400, Tempo, 458961
1, 50400, Note_on_c, 0, 71, 0
1, 50400, Note_on_c, 0, 67, 0
1, 50400, Note_on_c, 0, 79, 0
1, 50400, Note_on_c, 0, 67, 67
1, 50428, Control_c, 0, 64, 127
1, 50520, Note_on_c, 0, 67, 0
1, 50520, Note_on_c, 0, 62, 59
1, 50640, Note_on_c, 0, 62, 0
1, 50640, Note_on_c, 0, 67, 62
1, 50760, Tempo, 477859
1, 50760, Note_on_c, 0, 67, 0
1, 50760, Note_on_c, 0, 71, 65
1, 50880, Tempo, 458961
1, 50880, Note_on_c, 0, 71, 0
1, 50880, Note_on_c, 0, 74, 68
1, 51000, Note_on_c, 0, 74, 0
1, 51000, Note_on_c, 0, 71, 63
1, 51120, Note_on_c, 0, 71, 0
1, 51120, Note_on_c, 0, 67, 68
1, 51240, Tempo, 470109
1, 51240, Note_on_c, 0, 67, 0
1, 51240, Note_on_c, 0, 71, 63
1, 51360, Tempo, 455339
1, 51360, Note_on_c, 0, 71, 0
1, 51360, Note_on_c, 0, 72, 69
1, 51360, Note_on_c, 0, 50, 40
1, 51360, Note_on_c, 0, 57, 40
1, 51360, Note_on_c, 0, 60, 48
1, 51372, Control_c, 0, 64, 0
1, 51469, Control_c, 0, 64, 127
1, 51480, Note_on_c, 0, 72, 0
1, 51480, Note_on_c, 0, 69, 63
1, 51600, Note_on_c, 0, 69, 0
1, 51600, Note_on_c, 0, 66, 69
1, 51720, Tempo, 487924
1, 51720, Note_on_c, 0, 66, 0
1, 51720, Note_on_c, 0, 69, 63
1, 51840, Note_on_c, 0, 69, 0
1, 51840, Note_on_c, 0, 60, 0
1, 51840, Note_on_c, 0, 57, 0
1, 51840, Note_on_c, 0, 50, 0
1, 51840, Note_on_c, 0, 67, 74
1, 51840, Note_on_c, 0, 55, 44
1, 51840, Note_on_c, 0, 59, 52
1, 51845, Control_c, 0, 64, 0
1, 51960, Note_on_c, 0, 59, 0
1, 51960, Note_on_c, 0, 55, 0
1, 51960, Note_on_c, 0, 67, 0
1, 52320, Note_on_c, 0, 74, 65
1, 52320, Note_on_c, 0, 83, 77
1, 52320, Note_on_c, 0, 43, 44
1, 52320, Note_on_c, 0, 55, 52
1, 52440, Note_on_c, 0, 55, 0
1, 52440, Note_on_c, 0, 74, 0
1, 52440, Note_on_c, 0, 83, 0
1, 52440, Note_on_c, 0, 43, 0
1, 52800, Note_on_c, 0, 71, 62
1, 52800, Note_on_c, 0, 79, 74
1, 52800, Note_on_c, 0, 43, 44
1, 52800, Note_on_c, 0, 55, 52
1, 52800, Control_c, 0, 64, 127
1, 53200, Control_c, 0, 64, 0
1, 53280, Note_on_c, 0, 55, 0
1, 53280, Note_on_c, 0, 71, 0
1, 53280, Note_on_c, 0, 79, 0
1, 53280, Note_on_c, 0, 43, 0
1, 53760, Tempo, 439432
1, 53760, Marker_t, "Teil 1 Wiederholung"
1, 53760, Note_on_c, 0, 72, 60
1, 53760, Note_on_c, 0, 60, 40
1, 53760, Control_c, 0, 64, 127
1, 54000, Note_on_c, 0, 60, 0
1, 54000, Note_on_c, 0, 67, 30
1, 54240, Note_on_c, 0, 67, 0
1, 54240, Note_on_c, 0, 64, 30
1, 54480, Note_on_c, 0, 64, 0
1, 54480, Note_on_c, 0, 67, 30
1, 54720, Tempo, 433182
1, 54720, Note_on_c, 0, 67, 0
1, 54720, Note_on_c, 0, 72, 0
1, 54720, Note_on_c, 0, 76, 60
1, 54720, Note_on_c, 0, 60, 40
1, 54960, Note_on_c, 0, 60, 0
1, 54960, Note_on_c, 0, 67, 30
1, 55200, Tempo, 444050
1, 55200, Note_on_c, 0, 67, 0
1, 55200, Note_on_c, 0, 76, 0
1, 55200, Note_on_c, 0, 79, 60
1, 55200, Note_on_c, 0, 64, 30
1, 55440, Note_on_c, 0, 64, 0
1, 55440, Note_on_c, 0, 67, 30
1, 55680, Note_on_c, 0, 67, 0
1, 55680, Note_on_c, 0, 79, 0
1, 55680, Note_on_c, 0, 71, 60
1, 55680, Note_on_c, 0, 62, 30
1, 55688, Control_c, 0, 64, 0
1, 55793, Control_c, 0, 64, 127
1, 55920, Note_on_c, 0, 62, 0
1, 55920, Note_on_c, 0, 67, 29
1, 56000, Tempo, 436745
1, 56160, Note_on_c, 0, 67, 0
1, 56160, Note_on_c, 0, 65, 31
1, 56320, Tempo, 436745
1, 56400, Note_on_c, 0, 65, 0
1, 56400, Note_on_c, 0, 71, 0
1, 56400, Note_on_c, 0, 72, 55
1, 56400, Note_on_c, 0, 67, 28
1, 56520, Note_on_c, 0, 72, 0
1, 56520, Note_on_c, 0, 74, 51
1, 56640, Tempo, 440399
1, 56640, Note_on_c, 0, 74, 0
1, 56640, Note_on_c, 0, 67, 0
1, 56640, Note_on_c, 0, 72, 60
1, 56640, Note_on_c, 0, 60, 40
1, 56653, Control_c, 0, 64, 0
1, 56767, Control_c, 0, 64, 127
1, 56880, Note_on_c, 0, 60, 0
1, 56880, Note_on_c, 0, 67, 29
1, 57120, Note_on_c, 0, 67, 0
1, 57120, Note_on_c, 0, 72, 0
1, 57120, Note_on_c, 0, 64, 32
1, 57360, Note_on_c, 0, 64, 0
1, 57360, Note_on_c, 0, 67, 29
1, 57600, Tempo, 433182
1, 57600, Note_on_c, 0, 67, 0
1, 57600, Note_on_c, 0, 81, 64
1, 57600, Note_on_c, 0, 60, 40
1, 57600, Control_c, 0, 64, 0
1, 57812, Control_c, 0, 64, 127
1, 57840, Note_on_c, 0, 60, 0
1, 57840, Note_on_c, 0, 69, 32
1, 58080, Note_on_c, 0, 69, 0
1, 58080, Note_on_c, 0, 65, 32
1, 58320, Note_on_c, 0, 65, 0
1, 58320, Note_on_c, 0, 69, 32
1, 58560, Tempo, 429646
1, 58560, Note_on_c, 0, 69, 0
1, 58560, Note_on_c, 0, 81, 0
1, 58560, Note_on_c, 0, 79, 62
1, 58560, Note_on_c, 0, 60, 40
1, 58570, Control_c, 0, 64, 0
1, 58758, Control_c, 0, 64, 127
1, 58800, Note_on_c, 0, 60, 0
1, 58800, Note_on_c, 0, 67, 32
1, 59040, Tempo, 434940
1, 59040, Note_on_c, 0, 67, 0
1, 59040, Note_on_c, 0, 79, 0
1, 59040, Note_on_c, 0, 84, 64
1, 59040, Note_on_c, 0, 64, 32
1, 59280, Note_on_c, 0, 64, 0
1, 59280, Note_on_c, 0, 67, 32
1, 59520, Tempo, 429646
1, 59520, Note_on_c, 0, 67, 0
1, 59520, Note_on_c, 0, 84, 0
1, 59520, Note_on_c, 0, 79, 64
1, 59520, Note_on_c, 0, 59, 40
1, 59520, Control_c, 0, 64, 0
1, 59577, Control_c, 0, 64, 127
1, 59760, Note_on_c, 0, 59, 0
1, 59760, Note_on_c, 0, 67, 32
1, 60000, Note_on_c, 0, 67, 0
1, 60000, Note_on_c, 0, 79, 0
1, 60000, Note_on_c, 0, 77, 55
1, 60000, Note_on_c, 0, 62, 32
1, 60080, Note_on_c, 0, 77, 0
1, 60080, Note_on_c, 0, 79, 55
1, 60160, Note_on_c, 0, 79, 0
1, 60160, Note_on_c, 0, 77, 55
1, 60240, Note_on_c, 0, 77, 0
1, 60240, Note_on_c, 0, 62, 0
1, 60240, Note_on_c, 0, 76, 59
1, 60240, Note_on_c, 0, 67, 32
1, 60360, Note_on_c, 0, 76, 0
1, 60360, Note_on_c, 0, 77, 55
1, 60480, Note_on_c, 0, 77, 0
1, 60480, Note_on_c, 0, 67, 0
1, 60480, Note_on_c, 0, 76, 60
1, 60480, Note_on_c, 0, 60, 40
1, 60491, Control_c, 0, 64, 0
1, 60568, Control_c, 0, 64, 127
1, 60720, Note_on_c, 0, 60, 0
1, 60720, Note_on_c, 0, 67, 34
1, 60960, Note_on_c, 0, 67, 0
1, 60960, Note_on_c, 0, 76, 0
1, 60960, Note_on_c, 0, 64, 34
1, 61200, Note_on_c, 0, 64, 0
1, 61200, Note_on_c, 0, 67, 34
1, 61280, Tempo, 451637
1, 61440, Tempo, 442217
1, 61440, Note_on_c, 0, 67, 0
1, 61440, Note_on_c, 0, 69, 60
1, 61440, Note_on_c, 0, 65, 40
1, 61486, Control_c, 0, 64, 0
1, 61555, Tempo, 440399
1, 61670, Tempo, 438564
1, 61680, Note_on_c, 0, 69, 0
1, 61680, Note_on_c, 0, 71, 53
1, 61786, Tempo, 436745
1, 61800, Note_on_c, 0, 72, 54
1, 61812, Note_on_c, 0, 71, 0
1, 61901, Tempo, 434940
1, 61920, Note_on_c, 0, 65, 0
1, 61920, Note_on_c, 0, 74, 55
1, 61932, Note_on_c, 0, 72, 0
1, 62016, Tempo, 433182
1, 62040, Note_on_c, 0, 76, 57
1, 62052, Note_on_c, 0, 74, 0
1, 62131, Tempo, 431406
1, 62160, Note_on_c, 0, 77, 58
1, 62172, Note_on_c, 0, 76, 0
1, 62246, Tempo, 429646
1, 62280, Note_on_c, 0, 79, 59
1, 62292, Note_on_c, 0, 77, 0
1, 62362, Tempo, 427899
1, 62400, Tempo, 426197
1, 62400, Note_on_c, 0, 81, 62
1, 62412, Note_on_c, 0, 79, 0
1, 62496, Tempo, 427899
1, 62520, Note_on_c, 0, 79, 61
1, 62532, Note_on_c, 0, 81, 0
1, 62592, Tempo, 429646
1, 62640, Note_on_c, 0, 77, 60
1, 62652, Note_on_c, 0, 79, 0
1, 62669, Tempo, 431406
1, 62760, Note_on_c, 0, 76, 59
1, 62765, Tempo, 433182
1, 62772, Note_on_c, 0, 77, 0
1, 62861, Tempo, 434940
1, 62880, Note_on_c, 0, 74, 58
1, 62880, Note_on_c, 0, 53, 40
1, 62880, Note_on_c, 0, 60, 40
1, 62892, Note_on_c, 0, 76, 0
1, 62938, Tempo, 436745
1, 63000, Note_on_c, 0, 72, 57
1, 63012, Note_on_c, 0, 74, 0
1, 63034, Tempo, 438564
1, 63120, Note_on_c, 0, 71, 55
1, 63130, Tempo, 440399
1, 63132, Note_on_c, 0, 72, 0
1, 63206, Tempo, 442217
1, 63240, Note_on_c, 0, 69, 53
1, 63252, Note_on_c, 0, 71, 0
1, 63341, Tempo, 438564
1, 63360, Note_on_c, 0, 60, 0
1, 63360, Note_on_c, 0, 53, 0
1, 63360, Note_on_c, 0, 67, 60
1, 63360, Note_on_c, 0, 52, 40
1, 63360, Note_on_c, 0, 60, 40
1, 63360, Control_c, 0, 64, 0
1, 63372, Note_on_c, 0, 69, 0
1, 63514, Tempo, 436745
1, 63600, Note_on_c, 0, 67, 0
1, 63600, Note_on_c, 0, 69, 53
1, 63667, Tempo, 434940
1, 63720, Note_on_c, 0, 71, 54
1, 63732, Note_on_c, 0, 69, 0
1, 63840, Tempo, 433182
1, 63840, Note_on_c, 0, 60, 0
1, 63840, Note_on_c, 0, 52, 0
1, 63840, Note_on_c, 0, 72, 55
1, 63852, Note_on_c, 0, 71, 0
1, 63960, Note_on_c, 0, 74, 57
1, 63972, Note_on_c, 0, 72, 0
1, 63994, Tempo, 431406
1, 64080, Note_on_c, 0, 76, 58
1, 64092, Note_on_c, 0, 74, 0
1, 64166, Tempo, 429646
1, 64200, Note_on_c, 0, 77, 59
1, 64212, Note_on_c, 0, 76, 0
1, 64282, Tempo, 426197
1, 64320, Note_on_c, 0, 79, 62
1, 64332, Note_on_c, 0, 77, 0
1, 64358, Tempo, 427899
1, 64435, Tempo, 429646
1, 64440, Note_on_c, 0, 77, 61
1, 64452, Note_on_c, 0, 79, 0
1, 64512, Tempo, 431406
1, 64560, Note_on_c, 0, 76, 60
1, 64572, Note_on_c, 0, 77, 0
1, 64589, Tempo, 433182
1, 64666, Tempo, 434940
1, 64680, Note_on_c, 0, 74, 59
1, 64692, Note_on_c, 0, 76, 0
1, 64723, Tempo, 436745
1, 64800, Tempo, 438564
1, 64800, Note_on_c, 0, 72, 58
1, 64800, Note_on_c, 0, 52, 40
1, 64800, Note_on_c, 0, 60, 40
1, 64812, Note_on_c, 0, 74, 0
1, 64877, Tempo, 440399
1, 64920, Note_on_c, 0, 71, 57
1, 64932, Note_on_c, 0, 72, 0
1, 64954, Tempo, 442217
1, 65030, Tempo, 444050
1, 65040, Note_on_c, 0, 69, 55
1, 65052, Note_on_c, 0, 71, 0
1, 65088, Tempo, 445931
1, 65160, Note_on_c, 0, 67, 53
1, 65172, Note_on_c, 0, 69, 0
1, 65242, Tempo, 436745
1, 65280, Note_on_c, 0, 60, 0
1, 65280, Note_on_c, 0, 52, 0
1, 65280, Note_on_c, 0, 65, 60
1, 65280, Note_on_c, 0, 50, 40
1, 65280, Note_on_c, 0, 60, 40
1, 65280, Control_c, 0, 64, 0
1, 65292, Note_on_c, 0, 67, 0
1, 65414, Tempo, 434940
1, 65520, Note_on_c, 0, 65, 0
1, 65520, Note_on_c, 0, 67, 53
1, 65568, Tempo, 433182
1, 65640, Note_on_c, 0, 69, 54
1, 65652, Note_on_c, 0, 67, 0
1, 65722, Tempo, 431406
1, 65760, Note_on_c, 0, 60, 0
1, 65760, Note_on_c, 0, 50, 0
1, 65760, Note_on_c, 0, 71, 55
1, 65772, Note_on_c, 0, 69, 0
1, 65880, Note_on_c, 0, 72, 57
1, 65892, Note_on_c, 0, 71, 0
1, 65894, Tempo, 429646
1, 66000, Note_on_c, 0, 74, 58
1, 66012, Note_on_c, 0, 72, 0
1, 66048, Tempo, 427899
1, 66120, Note_on_c, 0, 76, 59
1, 66132, Note_on_c, 0, 74, 0
1, 66182, Tempo, 424508
1, 66240, Note_on_c, 0, 77, 62
1, 66252, Note_on_c, 0, 76, 0
1, 66259, Tempo, 426197
1, 66336, Tempo, 427899
1, 66360, Note_on_c, 0, 76, 61
1, 66372, Note_on_c, 0, 77, 0
1, 66413, Tempo, 429646
1, 66480, Note_on_c, 0, 74, 60
1, 66490, Tempo, 431406
1, 66492, Note_on_c, 0, 76, 0
1, 66566, Tempo, 433182
1, 66600, Note_on_c, 0, 72, 59
1, 66612, Note_on_c, 0, 74, 0
1, 66624, Tempo, 434940
1, 66701, Tempo, 436745
1, 66720, Note_on_c, 0, 71, 58
1, 66720, Note_on_c, 0, 50, 40
1, 66720, Note_on_c, 0, 59, 40
1, 66732, Note_on_c, 0, 72, 0
1, 66778, Tempo, 438564
1, 66840, Note_on_c, 0, 69, 57
1, 66852, Note_on_c, 0, 71, 0
1, 66854, Tempo, 440399
1, 66931, Tempo, 442217
1, 66960, Note_on_c, 0, 67, 55
1, 66972, Note_on_c, 0, 69, 0
1, 66989, Tempo, 444050
1, 67080, Note_on_c, 0, 65, 53
1, 67092, Note_on_c, 0, 67, 0
1, 67200, Note_on_c, 0, 59, 0
1, 67200, Note_on_c, 0, 50, 0
1, 67200, Note_on_c, 0, 64, 60
1, 67200, Note_on_c, 0, 48, 40
1, 67200, Note_on_c, 0, 60, 40
1, 67200, Control_c, 0, 64, 0
1, 67212, Note_on_c, 0, 65, 0
1, 67219, Tempo, 444050
1, 67334, Tempo, 442217
1, 67440, Note_on_c, 0, 64, 0
1, 67440, Note_on_c, 0, 65, 53
1, 67450, Tempo, 440399
1, 67546, Tempo, 438564
1, 67560, Note_on_c, 0, 67, 54
1, 67572, Note_on_c, 0, 65, 0
1, 67661, Tempo, 436745
1, 67680, Note_on_c, 0, 60, 0
1, 67680, Note_on_c, 0, 48, 0
1, 67680, Note_on_c, 0, 69, 55
1, 67692, Note_on_c, 0, 67, 0
1, 67757, Tempo, 434940
1, 67800, Note_on_c, 0, 71, 57
1, 67812, Note_on_c, 0, 69, 0
1, 67872, Tempo, 433182
1, 67920, Note_on_c, 0, 72, 58
1, 67932, Note_on_c, 0, 71, 0
1, 67968, Tempo, 431406
1, 68040, Note_on_c, 0, 74, 59
1, 68052, Note_on_c, 0, 72, 0
1, 68083, Tempo, 429646
1, 68160, Tempo, 427899
1, 68160, Note_on_c, 0, 76, 62
1, 68172, Note_on_c, 0, 74, 0
1, 68256, Tempo, 429646
1, 68280, Note_on_c, 0, 74, 61
1, 68292, Note_on_c, 0, 76, 0
1, 68333, Tempo, 431406
1, 68400, Note_on_c, 0, 72, 60
1, 68410, Tempo, 433182
1, 68412, Note_on_c, 0, 74, 0
1, 68486, Tempo, 434940
1, 68520, Note_on_c, 0, 71, 59
1, 68532, Note_on_c, 0, 72, 0
1, 68563, Tempo, 436745
1, 68640, Tempo, 438564
1, 68640, Note_on_c, 0, 69, 58
1, 68640, Note_on_c, 0, 52, 40
1, 68640, Note_on_c, 0, 48, 40
1, 68652, Note_on_c, 0, 71, 0
1, 68717, Tempo, 440399
1, 68760, Note_on_c, 0, 67, 57
1, 68772, Note_on_c, 0, 69, 0
1, 68794, Tempo, 442217
1, 68870, Tempo, 444050
1, 68880, Note_on_c, 0, 65, 55
1, 68892, Note_on_c, 0, 67, 0
1, 68947, Tempo, 445931
1, 69000, Note_on_c, 0, 64, 53
1, 69012, Note_on_c, 0, 65, 0
1, 69101, Tempo, 442217
1, 69120, Note_on_c, 0, 48, 0
1, 69120, Note_on_c, 0, 52, 0
1, 69120, Note_on_c, 0, 62, 60
1, 69120, Note_on_c, 0, 53, 40
1, 69120, Note_on_c, 0, 57, 40
1, 69120, Control_c, 0, 64, 0
1, 69132, Note_on_c, 0, 64, 0
1, 69274, Tempo, 440399
1, 69360, Note_on_c, 0, 62, 0
1, 69360, Note_on_c, 0, 64, 53
1, 69427, Tempo, 438564
1, 69480, Note_on_c, 0, 65, 54
1, 69492, Note_on_c, 0, 64, 0
1, 69600, Tempo, 436745
1, 69600, Note_on_c, 0, 67, 55
1, 69612, Note_on_c, 0, 65, 0
1, 69720, Note_on_c, 0, 69, 57
1, 69732, Note_on_c, 0, 67, 0
1, 69754, Tempo, 434940
1, 69840, Note_on_c, 0, 71, 58
1, 69852, Note_on_c, 0, 69, 0
1, 69907, Tempo, 433182
1, 69960, Note_on_c, 0, 73, 59
1, 69972, Note_on_c, 0, 71, 0
1, 70080, Tempo, 457526
1, 70080, Note_on_c, 0, 74, 62
1, 70092, Note_on_c, 0, 73, 0
1, 70200, Note_on_c, 0, 74, 0
1, 70200, Note_on_c, 0, 69, 58
1, 70240, Tempo, 433182
1, 70320, Note_on_c, 0, 71, 61
1, 70332, Note_on_c, 0, 69, 0
1, 70440, Note_on_c, 0, 73, 64
1, 70452, Note_on_c, 0, 71, 0
1, 70560, Note_on_c, 0, 74, 66
1, 70572, Note_on_c, 0, 73, 0
1, 70680, Note_on_c, 0, 76, 67
1, 70692, Note_on_c, 0, 74, 0
1, 70800, Note_on_c, 0, 77, 68
1, 70812, Note_on_c, 0, 76, 0
1, 70880, Tempo, 441956
1, 70920, Note_on_c, 0, 79, 69
1, 70932, Note_on_c, 0, 77, 0
1, 71040, Tempo, 428878
1, 71040, Note_on_c, 0, 57, 0
1, 71040, Note_on_c, 0, 53, 0
1, 71040, Note_on_c, 0, 81, 70
1, 71040, Note_on_c, 0, 53, 60
1, 71040, Control_c, 0, 64, 0
1, 71052, Note_on_c, 0, 79, 0
1, 71160, Note_on_c, 0, 83, 69
1, 71172, Note_on_c, 0, 81, 0
1, 71280, Note_on_c, 0, 84, 71
1, 71292, Note_on_c, 0, 83, 0
1, 71400, Note_on_c, 0, 83, 69
1, 71412, Note_on_c, 0, 84, 0
1, 71520, Note_on_c, 0, 81, 67
1, 71532, Note_on_c, 0, 83, 0
1, 71640, Note_on_c, 0, 79, 65
1, 71652, Note_on_c, 0, 81, 0
1, 71760, Note_on_c, 0, 53, 0
1, 71760, Note_on_c, 0, 77, 63
1, 71760, Note_on_c, 0, 55, 55
1, 71772, Note_on_c, 0, 79, 0
1, 71840, Tempo, 443656
1, 71880, Note_on_c, 0, 76, 66
1, 71892, Note_on_c, 0, 77, 0
1, 72000, Tempo, 425743
1, 72000, Note_on_c, 0, 76, 0
1, 72000, Note_on_c, 0, 55, 0
1, 72000, Note_on_c, 0, 77, 65
1, 72000, Note_on_c, 0, 57, 60
1, 72120, Note_on_c, 0, 79, 66
1, 72132, Note_on_c, 0, 77, 0
1, 72240, Note_on_c, 0, 81, 67
1, 72252, Note_on_c, 0, 79, 0
1, 72360, Note_on_c, 0, 79, 67
1, 72372, Note_on_c, 0, 81, 0
1, 72480, Note_on_c, 0, 77, 68
1, 72492, Note_on_c, 0, 79, 0
1, 72600, Note_on_c, 0, 76, 71
1, 72612, Note_on_c, 0, 77, 0
1, 72720, Note_on_c, 0, 57, 0
1, 72720, Note_on_c, 0, 74, 73
1, 72720, Note_on_c, 0, 54, 54
1, 72732, Note_on_c, 0, 76, 0
1, 72800, Tempo, 455546
1, 72840, Note_on_c, 0, 72, 76
1, 72852, Note_on_c, 0, 74, 0
1, 72960, Tempo, 432090
1, 72960, Note_on_c, 0, 54, 0
1, 72960, Note_on_c, 0, 71, 78
1, 72960, Note_on_c, 0, 43, 65
1, 72960, Control_c, 0, 64, 127
1, 72972, Note_on_c, 0, 72, 0
1, 73080, Note_on_c, 0, 43, 0
1, 73080, Note_on_c, 0, 71, 0
1, 73080, Note_on_c, 0, 47, 56
1, 73200, Tempo, 430046
1, 73200, Note_on_c, 0, 47, 0
1, 73200, Note_on_c, 0, 79, 71
1, 73200, Note_on_c, 0, 50, 56
1, 73320, Note_on_c, 0, 50, 0
1, 73320, Note_on_c, 0, 79, 0
1, 73320, Note_on_c, 0, 55, 50
1, 73440, Note_on_c, 0, 55, 0
1, 73440, Note_on_c, 0, 76, 71
1, 73440, Note_on_c, 0, 43, 65
1, 73452, Control_c, 0, 64, 0
1, 73539, Control_c, 0, 64, 127
1, 73560, Note_on_c, 0, 43, 0
1, 73560, Note_on_c, 0, 76, 0
1, 73560, Note_on_c, 0, 48, 55
1, 73680, Note_on_c, 0, 48, 0
1, 73680, Note_on_c, 0, 72, 71
1, 73680, Note_on_c, 0, 52, 55
1, 73760, Tempo, 447828
1, 73800, Note_on_c, 0, 52, 0
1, 73800, Note_on_c, 0, 72, 0
1, 73800, Note_on_c, 0, 55, 50
1, 73920, Tempo, 432090
1, 73920, Note_on_c, 0, 55, 0
1, 73920, Note_on_c, 0, 74, 78
1, 73920, Note_on_c, 0, 43, 65
1, 73931, Control_c, 0, 64, 0
1, 73989, Control_c, 0, 64, 127
1, 74040, Note_on_c, 0, 43, 0
1, 74040, Note_on_c, 0, 74, 0
1, 74040, Note_on_c, 0, 47, 55
1, 74160, Tempo, 431624
1, 74160, Note_on_c, 0, 47, 0
1, 74160, Note_on_c, 0, 79, 71
1, 74160, Note_on_c, 0, 50, 55
1, 74280, Note_on_c, 0, 50, 0
1, 74280, Note_on_c, 0, 79, 0
1, 74280, Note_on_c, 0, 55, 54
1, 74400, Note_on_c, 0, 55, 0
1, 74400, Note_on_c, 0, 76, 71
1, 74400, Note_on_c, 0, 43, 65
1, 74410, Control_c, 0, 64, 0
1, 74520, Note_on_c, 0, 43, 0
1, 74520, Note_on_c, 0, 76, 0
1, 74520, Note_on_c, 0, 48, 57
1, 74534, Control_c, 0, 64, 127
1, 74640, Note_on_c, 0, 48, 0
1, 74640, Note_on_c, 0, 72, 71
1, 74640, Note_on_c, 0, 52, 56
1, 74720, Tempo, 445931
1, 74760, Note_on_c, 0, 52, 0
1, 74760, Note_on_c, 0, 72, 0
1, 74760, Note_on_c, 0, 55, 53
1, 74880, Tempo, 474496
1, 74880, Note_on_c, 0, 55, 0
1, 74880, Note_on_c, 0, 74, 81
1, 74880, Note_on_c, 0, 43, 65
1, 74885, Control_c, 0, 64, 0
1, 75000, Note_on_c, 0, 43, 0
1, 75000, Note_on_c, 0, 74, 0
1, 75360, Tempo, 483832
1, 75360, Note_on_c, 0, 71, 71
1, 75360, Note_on_c, 0, 79, 71
1, 75360, Note_on_c, 0, 74, 71
1, 75360, Note_on_c, 0, 55, 59
1, 75480, Note_on_c, 0, 55, 0
1, 75480, Note_on_c, 0, 71, 0
1, 75480, Note_on_c, 0, 79, 0
1, 75480, Note_on_c, 0, 74, 0
1, 75840, Note_on_c, 0, 67, 83
1, 75840, Note_on_c, 0, 43, 61
1, 75953, Control_c, 0, 64, 127
1, 76299, Control_c, 0, 64, 0
1, 76320, Tempo, 453583
1, 76320, Note_on_c, 0, 43, 0
1, 76320, Note_on_c, 0, 67, 0
1, 76800, Tempo, 433244
1, 76800, Note_on_c, 0, 61, 42
1, 76900, Tempo, 434877
1, 76920, Note_on_c, 0, 62, 36
1, 76932, Note_on_c, 0, 61, 0
1, 77005, Tempo, 428449
1, 77040, Note_on_c, 0, 62, 0
1, 77040, Note_on_c, 0, 61, 42
1, 77095, Tempo, 431624
1, 77160, Note_on_c, 0, 62, 36
1, 77172, Note_on_c, 0, 61, 0
1, 77215, Tempo, 430046
1, 77275, Tempo, 431624
1, 77280, Note_on_c, 0, 62, 0
1, 77280, Note_on_c, 0, 61, 42
1, 77365, Tempo, 430046
1, 77400, Note_on_c, 0, 62, 38
1, 77412, Note_on_c, 0, 61, 0
1, 77485, Tempo, 431624
1, 77520, Note_on_c, 0, 62, 0
1, 77520, Note_on_c, 0, 61, 42
1, 77545, Tempo, 428449
1, 77640, Tempo, 453583
1, 77640, Note_on_c, 0, 62, 37
1, 77652, Note_on_c, 0, 61, 0
1, 77760, Tempo, 431624
1, 77760, Note_on_c, 0, 62, 0
1, 77760, Note_on_c, 0, 60, 42
1, 77875, Tempo, 433244
1, 77880, Note_on_c, 0, 62, 36
1, 77892, Note_on_c, 0, 60, 0
1, 77965, Tempo, 428449
1, 78000, Note_on_c, 0, 62, 0
1, 78000, Note_on_c, 0, 60, 42
1, 78055, Tempo, 431624
1, 78120, Note_on_c, 0, 62, 37
1, 78132, Note_on_c, 0, 60, 0
1, 78240, Note_on_c, 0, 62, 0
1, 78240, Note_on_c, 0, 60, 42
1, 78250, Tempo, 428449
1, 78340, Tempo, 433244
1, 78360, Note_on_c, 0, 62, 37
1, 78372, Note_on_c, 0, 60, 0
1, 78475, Tempo, 430046
1, 78480, Note_on_c, 0, 62, 0
1, 78480, Note_on_c, 0, 60, 42
1, 78600, Tempo, 457143
1, 78600, Note_on_c, 0, 62, 38
1, 78612, Note_on_c, 0, 60, 0
1, 78720, Tempo, 434877
1, 78720, Note_on_c, 0, 62, 0
1, 78720, Note_on_c, 0, 86, 61
1, 78720, Note_on_c, 0, 59, 42
1, 78770, Control_c, 0, 64, 127
1, 78840, Note_on_c, 0, 59, 0
1, 78840, Note_on_c, 0, 62, 36
1, 78960, Tempo, 438148
1, 78960, Note_on_c, 0, 62, 0
1, 78960, Note_on_c, 0, 86, 0
1, 78960, Note_on_c, 0, 83, 55
1, 78960, Note_on_c, 0, 59, 42
1, 79080, Note_on_c, 0, 59, 0
1, 79080, Note_on_c, 0, 62, 36
1, 79200, Note_on_c, 0, 62, 0
1, 79200, Note_on_c, 0, 83, 0
1, 79200, Note_on_c, 0, 79, 61
1, 79200, Note_on_c, 0, 59, 42
1, 79320, Note_on_c, 0, 59, 0
1, 79320, Note_on_c, 0, 62, 32
1, 79440, Note_on_c, 0, 62, 0
1, 79440, Note_on_c, 0, 59, 38
1, 79560, Note_on_c, 0, 59, 0
1, 79560, Note_on_c, 0, 62, 33
1, 79680, Tempo, 434877
1, 79680, Note_on_c, 0, 62, 0
1, 79680, Note_on_c, 0, 59, 39
1, 79680, Control_c, 0, 64, 0
1, 79800, Note_on_c, 0, 59, 0
1, 79800, Note_on_c, 0, 62, 32
1, 79920, Tempo, 438148
1, 79920, Note_on_c, 0, 62, 0
1, 79920, Note_on_c, 0, 79, 0
1, 79920, Note_on_c, 0, 81, 53
1, 79920, Note_on_c, 0, 59, 39
1, 80040, Note_on_c, 0, 59, 0
1, 80040, Note_on_c, 0, 81, 0
1, 80040, Note_on_c, 0, 83, 51
1, 80040, Note_on_c, 0, 62, 34
1, 80160, Note_on_c, 0, 62, 0
1, 80160, Note_on_c, 0, 83, 0
1, 80160, Note_on_c, 0, 81, 55
1, 80160, Note_on_c, 0, 59, 42
1, 80280, Note_on_c, 0, 59, 0
1, 80280, Note_on_c, 0, 62, 37
1, 80400, Note_on_c, 0, 62, 0
1, 80400, Note_on_c, 0, 81, 0
1, 80400, Note_on_c, 0, 79, 53
1, 80400, Note_on_c, 0, 59, 42
1, 80520, Note_on_c, 0, 59, 0
1, 80520, Note_on_c, 0, 79, 0
1, 80520, Note_on_c, 0, 62, 38
1, 80640, Tempo, 441501
1, 80640, Note_on_c, 0, 62, 0
1, 80640, Note_on_c, 0, 79, 55
1, 80640, Note_on_c, 0, 60, 46
1, 80675, Control_c, 0, 64, 127
1, 80700, Note_on_c, 0, 79, 0
1, 80700, Note_on_c, 0, 81, 51
1, 80760, Note_on_c, 0, 81, 0
1, 80760, Note_on_c, 0, 60, 0
1, 80760, Note_on_c, 0, 79, 56
1, 80760, Note_on_c, 0, 62, 38
1, 80820, Note_on_c, 0, 79, 0
1, 80820, Note_on_c, 0, 81, 51
1, 80880, Note_on_c, 0, 81, 0
1, 80880, Note_on_c, 0, 62, 0
1, 80880, Note_on_c, 0, 79, 58
1, 80880, Note_on_c, 0, 59, 42
1, 80884, Control_c, 0, 64, 0
1, 80912, Control_c, 0, 64, 127
1, 81000, Note_on_c, 0, 59, 0
1, 81000, Note_on_c, 0, 79, 0
1, 81000, Note_on_c, 0, 78, 52
1, 81000, Note_on_c, 0, 62, 36
1, 81110, Note_on_c, 0, 78, 0
1, 81120, Tempo, 436491
1, 81120, Note_on_c, 0, 62, 0
1, 81120, Note_on_c, 0, 78, 58
1, 81120, Note_on_c, 0, 57, 39
1, 81123, Control_c, 0, 64, 0
1, 81240, Note_on_c, 0, 62, 27
1, 81252, Note_on_c, 0, 57, 0
1, 81360, Note_on_c, 0, 62, 0
1, 81360, Note_on_c, 0, 59, 47
1, 81480, Note_on_c, 0, 62, 35
1, 81492, Note_on_c, 0, 59, 0
1, 81600, Note_on_c, 0, 62, 0
1, 81600, Note_on_c, 0, 78, 0
1, 81600, Note_on_c, 0, 60, 50
1, 81720, Note_on_c, 0, 62, 36
1, 81732, Note_on_c, 0, 60, 0
1, 81840, Note_on_c, 0, 62, 0
1, 81840, Note_on_c, 0, 59, 44
1, 81960, Note_on_c, 0, 62, 30
1, 81972, Note_on_c, 0, 59, 0
1, 82080, Tempo, 439818
1, 82080, Note_on_c, 0, 62, 0
1, 82080, Note_on_c, 0, 60, 52
1, 82200, Note_on_c, 0, 62, 31
1, 82212, Note_on_c, 0, 60, 0
1, 82320, Note_on_c, 0, 62, 0
1, 82320, Note_on_c, 0, 57, 40
1, 82440, Tempo, 473971
1, 82440, Note_on_c, 0, 62, 28
1, 82452, Note_on_c, 0, 57, 0
1, 82560, Tempo, 434877
1, 82560, Note_on_c, 0, 62, 0
1, 82560, Note_on_c, 0, 86, 61
1, 82560, Note_on_c, 0, 59, 42
1, 82610, Control_c, 0, 64, 127
1, 82680, Note_on_c, 0, 59, 0
1, 82680, Note_on_c, 0, 62, 36
1, 82800, Tempo, 438148
1, 82800, Note_on_c, 0, 62, 0
1, 82800, Note_on_c, 0, 86, 0
1, 82800, Note_on_c, 0, 83, 55
1, 82800, Note_on_c, 0, 59, 42
1, 82920, Note_on_c, 0, 59, 0
1, 82920, Note_on_c, 0, 62, 36
1, 83040, Note_on_c, 0, 62, 0
1, 83040, Note_on_c, 0, 83, 0
1, 83040, Note_on_c, 0, 79, 61
1, 83040, Note_on_c, 0, 59, 42
1, 83160, Note_on_c, 0, 59, 0
1, 83160, Note_on_c, 0, 62, 32
1, 83280, Note_on_c, 0, 62, 0
1, 83280, Note_on_c, 0, 59, 38
1, 83400, Note_on_c, 0, 59, 0
1, 83400, Note_on_c, 0, 62, 33
1, 83520, Tempo, 434877
1, 83520, Note_on_c, 0, 62, 0
1, 83520, Note_on_c, 0, 59, 39
1, 83520, Control_c, 0, 64, 0
1, 83640, Note_on_c, 0, 59, 0
1, 83640, Note_on_c, 0, 62, 32
1, 83760, Tempo, 438148
1, 83760, Note_on_c, 0, 62, 0
1, 83760, Note_on_c, 0, 79, 0
1, 83760, Note_on_c, 0, 81, 53
1, 83760, Note_on_c, 0, 59, 39
1, 83880, Note_on_c, 0, 59, 0
1, 83880, Note_on_c, 0, 81, 0
1, 83880, Note_on_c, 0, 83, 51
1, 83880, Note_on_c, 0, 62, 34
1, 84000, Note_on_c, 0, 62, 0
1, 84000, Note_on_c, 0, 83, 0
1, 84000, Note_on_c, 0, 81, 55
1, 84000, Note_on_c, 0, 59, 42
1, 84120, Note_on_c, 0, 59, 0
1, 84120, Note_on_c, 0, 62, 37
1, 84240, Note_on_c, 0, 62, 0
1, 84240, Note_on_c, 0, 81, 0
1, 84240, Note_on_c, 0, 79, 53
1, 84240, Note_on_c, 0, 59, 42
1, 84360, Note_on_c, 0, 59, 0
1, 84360, Note_on_c, 0, 79, 0
1, 84360, Note_on_c, 0, 62, 38
1, 84480, Tempo, 441501
1, 84480, Note_on_c, 0, 62, 0
1, 84480, Note_on_c, 0, 79, 55
1, 84480, Note_on_c, 0, 60, 42
1, 84515, Control_c, 0, 64, 127
1, 84540, Note_on_c, 0, 79, 0
1, 84540, Note_on_c, 0, 81, 51
1, 84600, Note_on_c, 0, 81, 0
1, 84600, Note_on_c, 0, 60, 0
1, 84600, Note_on_c, 0, 79, 56
1, 84600, Note_on_c, 0, 62, 36
1, 84660, Note_on_c, 0, 79, 0
1, 84660, Note_on_c, 0, 81, 50
1, 84720, Note_on_c, 0, 81, 0
1, 84720, Note_on_c, 0, 62, 0
1, 84720, Note_on_c, 0, 79, 55
1, 84720, Note_on_c, 0, 59, 42
1, 84724, Control_c, 0, 64, 0
1, 84752, Control_c, 0, 64, 127
1, 84840, Note_on_c, 0, 59, 0
1, 84840, Note_on_c, 0, 79, 0
1, 84840, Note_on_c, 0, 78, 52
1, 84840, Note_on_c, 0, 62, 36
1, 84930, Note_on_c, 0, 78, 0
1, 84960, Tempo, 438148
1, 84960, Note_on_c, 0, 62, 0
1, 84960, Note_on_c, 0, 78, 58
1, 84960, Note_on_c, 0, 57, 39
1, 84964, Control_c, 0, 64, 0
1, 85080, Note_on_c, 0, 62, 29
1, 85092, Note_on_c, 0, 57, 0
1, 85200, Note_on_c, 0, 62, 0
1, 85200, Note_on_c, 0, 59, 42
1, 85320, Note_on_c, 0, 62, 32
1, 85332, Note_on_c, 0, 59, 0
1, 85440, Note_on_c, 0, 62, 0
1, 85440, Note_on_c, 0, 78, 0
1, 85440, Note_on_c, 0, 60, 48
1, 85560, Note_on_c, 0, 62, 36
1, 85572, Note_on_c, 0, 60, 0
1, 85680, Note_on_c, 0, 62, 0
1, 85680, Note_on_c, 0, 59, 43
1, 85800, Note_on_c, 0, 62, 30
1, 85812, Note_on_c, 0, 59, 0
1, 85920, Tempo, 439818
1, 85920, Note_on_c, 0, 62, 0
1, 85920, Note_on_c, 0, 60, 48
1, 86040, Note_on_c, 0, 62, 36
1, 86052, Note_on_c, 0, 60, 0
1, 86160, Note_on_c, 0, 62, 0
1, 86160, Note_on_c, 0, 57, 43
1, 86280, Tempo, 468238
1, 86280, Note_on_c, 0, 62, 30
1, 86292, Note_on_c, 0, 57, 0
1, 86400, Tempo, 475888
1, 86400, Note_on_c, 0, 62, 0
1, 86400, Note_on_c, 0, 86, 69
1, 86509, Tempo, 451807
1, 86520, Note_on_c, 0, 59, 39
1, 86520, Control_c, 0, 64, 127
1, 86554, Tempo, 450045
1, 86584, Tempo, 448330
1, 86629, Tempo, 446595
1, 86640, Note_on_c, 0, 59, 0
1, 86640, Note_on_c, 0, 62, 42
1, 86659, Tempo, 444873
1, 86704, Tempo, 443164
1, 86734, Tempo, 441501
1, 86760, Note_on_c, 0, 62, 0
1, 86760, Note_on_c, 0, 67, 39
1, 86764, Tempo, 439818
1, 86880, Tempo, 470109
1, 86880, Note_on_c, 0, 67, 0
1, 86880, Note_on_c, 0, 86, 0
1, 86880, Note_on_c, 0, 71, 48
1, 87000, Tempo, 441501
1, 87000, Note_on_c, 0, 86, 61
1, 87120, Note_on_c, 0, 86, 0
1, 87120, Note_on_c, 0, 83, 66
1, 87240, Note_on_c, 0, 83, 0
1, 87240, Note_on_c, 0, 79, 61
1, 87360, Tempo, 457143
1, 87360, Note_on_c, 0, 79, 0
1, 87360, Note_on_c, 0, 71, 0
1, 87360, Note_on_c, 0, 76, 68
1, 87372, Control_c, 0, 64, 0
1, 87480, Tempo, 439818
1, 87480, Note_on_c, 0, 60, 42
1, 87484, Tempo, 448330
1, 87516, Control_c, 0, 64, 127
1, 87544, Tempo, 446595
1, 87589, Tempo, 444873
1, 87600, Note_on_c, 0, 60, 0
1, 87600, Note_on_c, 0, 64, 44
1, 87634, Tempo, 443164
1, 87679, Tempo, 441501
1, 87720, Note_on_c, 0, 64, 0
1, 87720, Note_on_c, 0, 67, 41
1, 87724, Tempo, 439818
1, 87769, Tempo, 438148
1, 87840, Tempo, 451807
1, 87840, Note_on_c, 0, 67, 0
1, 87840, Note_on_c, 0, 76, 0
1, 87840, Note_on_c, 0, 72, 52
1, 87960, Tempo, 439818
1, 87960, Note_on_c, 0, 76, 61
1, 88080, Note_on_c, 0, 76, 0
1, 88080, Note_on_c, 0, 79, 66
1, 88200, Note_on_c, 0, 79, 0
1, 88200, Note_on_c, 0, 76, 61
1, 88320, Tempo, 475888
1, 88320, Note_on_c, 0, 76, 0
1, 88320, Note_on_c, 0, 72, 0
1, 88320, Note_on_c, 0, 84, 69
1, 88320, Control_c, 0, 64, 0
1, 88377, Control_c, 0, 64, 127
1, 88429, Tempo, 451807
1, 88440, Note_on_c, 0, 57, 39
1, 88474, Tempo, 450045
1, 88519, Tempo, 448330
1, 88549, Tempo, 446595
1, 88560, Note_on_c, 0, 57, 0
1, 88560, Note_on_c, 0, 60, 42
1, 88594, Tempo, 444873
1, 88624, Tempo, 443164
1, 88680, Note_on_c, 0, 60, 0
1, 88680, Note_on_c, 0, 66, 39
1, 88800, Tempo, 451807
1, 88800, Note_on_c, 0, 66, 0
1, 88800, Note_on_c, 0, 84, 0
1, 88800, Note_on_c, 0, 69, 48
1, 88920, Tempo, 441501
1, 88920, Note_on_c, 0, 84, 61
1, 89040, Note_on_c, 0, 84, 0
1, 89040, Note_on_c, 0, 81, 66
1, 89160, Note_on_c, 0, 81, 0
1, 89160, Note_on_c, 0, 78, 61
1, 89280, Tempo, 446495
1, 89280, Note_on_c, 0, 78, 0
1, 89280, Note_on_c, 0, 69, 0
1, 89280, Note_on_c, 0, 74, 68
1, 89292, Control_c, 0, 64, 0
1, 89389, Tempo, 443164
1, 89400, Note_on_c, 0, 59, 42
1, 89436, Control_c, 0, 64, 127
1, 89509, Tempo, 441501
1, 89520, Note_on_c, 0, 59, 0
1, 89520, Note_on_c, 0, 62, 44
1, 89614, Tempo, 439818
1, 89640, Note_on_c, 0, 62, 0
1, 89640, Note_on_c, 0, 66, 41
1, 89719, Tempo, 438148
1, 89760, Tempo, 451807
1, 89760, Note_on_c, 0, 66, 0
1, 89760, Note_on_c, 0, 74, 0
1, 89760, Note_on_c, 0, 71, 52
1, 89880, Tempo, 439818
1, 89880, Note_on_c, 0, 74, 61
1, 90000, Note_on_c, 0, 74, 0
1, 90000, Note_on_c, 0, 78, 66
1, 90120, Note_on_c, 0, 78, 0
1, 90120, Note_on_c, 0, 74, 61
1, 90240, Tempo, 460193
1, 90240, Note_on_c, 0, 74, 0
1, 90240, Note_on_c, 0, 71, 0
1, 90240, Note_on_c, 0, 83, 68
1, 90240, Control_c, 0, 64, 0
1, 90297, Control_c, 0, 64, 127
1, 90360, Tempo, 441501
1, 90360, Note_on_c, 0, 55, 39
1, 90364, Tempo, 448330
1, 90424, Tempo, 446595
1, 90480, Note_on_c, 0, 55, 0
1, 90480, Note_on_c, 0, 59, 42
1, 90484, Tempo, 444873
1, 90529, Tempo, 443164
1, 90589, Tempo, 441501
1, 90600, Note_on_c, 0, 59, 0
1, 90600, Note_on_c, 0, 64, 39
1, 90634, Tempo, 439818
1, 90720, Tempo, 446495
1, 90720, Note_on_c, 0, 64, 0
1, 90720, Note_on_c, 0, 83, 0
1, 90720, Note_on_c, 0, 67, 48
1, 90840, Tempo, 441501
1, 90840, Note_on_c, 0, 83, 61
1, 90960, Note_on_c, 0, 83, 0
1, 90960, Note_on_c, 0, 79, 66
1, 91080, Note_on_c, 0, 79, 0
1, 91080, Note_on_c, 0, 76, 61
1, 91200, Tempo, 457143
1, 91200, Note_on_c, 0, 76, 0
1, 91200, Note_on_c, 0, 67, 0
1, 91200, Note_on_c, 0, 72, 68
1, 91212, Control_c, 0, 64, 0
1, 91309, Tempo, 448330
1, 91320, Note_on_c, 0, 57, 42
1, 91354, Tempo, 446595
1, 91356, Control_c, 0, 64, 127
1, 91399, Tempo, 444873
1, 91440, Note_on_c, 0, 57, 0
1, 91440, Note_on_c, 0, 60, 44
1, 91444, Tempo, 443164
1, 91489, Tempo, 441501
1, 91534, Tempo, 439818
1, 91560, Note_on_c, 0, 60, 0
1, 91560, Note_on_c, 0, 64, 41
1, 91579, Tempo, 438148
1, 91609, Tempo, 436491
1, 91680, Tempo, 451807
1, 91680, Note_on_c, 0, 64, 0
1, 91680, Note_on_c, 0, 72, 0
1, 91680, Note_on_c, 0, 69, 52
1, 91800, Tempo, 439818
1, 91800, Note_on_c, 0, 72, 61
1, 91920, Note_on_c, 0, 72, 0
1, 91920, Note_on_c, 0, 76, 66
1, 92040, Note_on_c, 0, 76, 0
1, 92040, Note_on_c, 0, 72, 61
1, 92160, Tempo, 475888
1, 92160, Note_on_c, 0, 72, 0
1, 92160, Note_on_c, 0, 69, 0
1, 92160, Note_on_c, 0, 81, 68
1, 92160, Control_c, 0, 64, 0
1, 92217, Control_c, 0, 64, 127
1, 92280, Tempo, 441501
1, 92280, Note_on_c, 0, 54, 39
1, 92400, Note_on_c, 0, 54, 0
1, 92400, Note_on_c, 0, 57, 42
1, 92520, Note_on_c, 0, 57, 0
1, 92520, Note_on_c, 0, 62, 39
1, 92640, Tempo, 451807
1, 92640, Note_on_c, 0, 62, 0
1, 92640, Note_on_c, 0, 81, 0
1, 92640, Note_on_c, 0, 66, 48
1, 92760, Tempo, 441501
1, 92760, Note_on_c, 0, 81, 61
1, 92880, Note_on_c, 0, 81, 0
1, 92880, Note_on_c, 0, 78, 66
1, 93000, Note_on_c, 0, 78, 0
1, 93000, Note_on_c, 0, 72, 61
1, 93120, Tempo, 457143
1, 93120, Note_on_c, 0, 72, 0
1, 93120, Note_on_c, 0, 66, 0
1, 93120, Note_on_c, 0, 71, 68
1, 93132, Control_c, 0, 64, 0
1, 93240, Tempo, 439818
1, 93240, Note_on_c, 0, 55, 42
1, 93276, Control_c, 0, 64, 127
1, 93360, Note_on_c, 0, 55, 0
1, 93360, Note_on_c, 0, 59, 44
1, 93480, Note_on_c, 0, 59, 0
1, 93480, Note_on_c, 0, 62, 41
1, 93600, Tempo, 451807
1, 93600, Note_on_c, 0, 62, 0
1, 93600, Note_on_c, 0, 71, 0
1, 93600, Note_on_c, 0, 67, 52
1, 93720, Tempo, 439818
1, 93720, Note_on_c, 0, 79, 61
1, 93840, Note_on_c, 0, 79, 0
1, 93840, Note_on_c, 0, 74, 66
1, 93960, Note_on_c, 0, 74, 0
1, 93960, Note_on_c, 0, 71, 61
1, 94080, Note_on_c, 0, 71, 0
1, 94080, Note_on_c, 0, 67, 0
1, 94080, Note_on_c, 0, 69, 66
1, 94080, Note_on_c, 0, 64, 44
1, 94080, Note_on_c, 0, 60, 44
1, 94080, Control_c, 0, 64, 0
1, 94200, Note_on_c, 0, 60, 0
1, 94200, Note_on_c, 0, 64, 0
1, 94320, Note_on_c, 0, 64, 39
1, 94320, Note_on_c, 0, 60, 39
1, 94440, Note_on_c, 0, 60, 0
1, 94440, Note_on_c, 0, 64, 0
1, 94560, Note_on_c, 0, 64, 39
1, 94560, Note_on_c, 0, 60, 39
1, 94680, Note_on_c, 0, 60, 0
1, 94680, Note_on_c, 0, 64, 0
1, 94800, Note_on_c, 0, 60, 39
1, 94800, Note_on_c, 0, 64, 39
1, 94920, Note_on_c, 0, 64, 0
1, 94920, Note_on_c, 0, 60, 0
1, 94980, Note_on_c, 0, 69, 0
1, 94980, Note_on_c, 0, 71, 64
1, 95040, Note_on_c, 0, 71, 0
1, 95040, Note_on_c, 0, 72, 69
1, 95040, Note_on_c, 0, 60, 44
1, 95040, Note_on_c, 0, 64, 44
1, 95160, Note_on_c, 0, 64, 0
1, 95160, Note_on_c, 0, 60, 0
1, 95280, Note_on_c, 0, 60, 40
1, 95280, Note_on_c, 0, 64, 40
1, 95400, Note_on_c, 0, 64, 0
1, 95400, Note_on_c, 0, 60, 0
1, 95460, Note_on_c, 0, 72, 0
1, 95460, Note_on_c, 0, 75, 65
1, 95520, Note_on_c, 0, 75, 0
1, 95520, Note_on_c, 0, 76, 72
1, 95520, Note_on_c, 0, 64, 40
1, 95520, Note_on_c, 0, 60, 40
1, 95640, Note_on_c, 0, 60, 0
1, 95640, Note_on_c, 0, 64, 0
1, 95760, Tempo, 455339
1, 95760, Note_on_c, 0, 60, 41
1, 95760, Note_on_c, 0, 64, 41
1, 95880, Note_on_c, 0, 64, 0
1, 95880, Note_on_c, 0, 60, 0
1, 95940, Note_on_c, 0, 76, 0
1, 95940, Note_on_c, 0, 80, 65
1, 96000, Tempo, 438148
1, 96000, Note_on_c, 0, 80, 0
1, 96000, Note_on_c, 0, 81, 71
1, 96000, Note_on_c, 0, 64, 50
1, 96000, Note_on_c, 0, 60, 50
1, 96120, Note_on_c, 0, 60, 0
1, 96120, Note_on_c, 0, 64, 0
1, 96240, Note_on_c, 0, 64, 44
1, 96240, Note_on_c, 0, 60, 44
1, 96360, Note_on_c, 0, 60, 0
1, 96360, Note_on_c, 0, 64, 0
1, 96480, Note_on_c, 0, 64, 44
1, 96480, Note_on_c, 0, 60, 44
1, 96600, Note_on_c, 0, 60, 0
1, 96600, Note_on_c, 0, 64, 0
1, 96720, Note_on_c, 0, 81, 0
1, 96720, Note_on_c, 0, 83, 66
1, 96720, Note_on_c, 0, 60, 44
1, 96720, Note_on_c, 0, 64, 44
1, 96780, Note_on_c, 0, 83, 0
1, 96780, Note_on_c, 0, 81, 66
1, 96840, Note_on_c, 0, 81, 0
1, 96840, Note_on_c, 0, 64, 0
1, 96840, Note_on_c, 0, 60, 0
1, 96840, Note_on_c, 0, 80, 66
1, 96900, Note_on_c, 0, 80, 0
1, 96900, Note_on_c, 0, 81, 66
1, 96960, Note_on_c, 0, 81, 0
1, 96960, Note_on_c, 0, 84, 74
1, 96960, Note_on_c, 0, 60, 49
1, 96960, Note_on_c, 0, 64, 49
1, 97080, Note_on_c, 0, 64, 0
1, 97080, Note_on_c, 0, 60, 0
1, 97200, Note_on_c, 0, 84, 0
1, 97200, Note_on_c, 0, 81, 68
1, 97200, Note_on_c, 0, 64, 46
1, 97200, Note_on_c, 0, 60, 46
1, 97320, Note_on_c, 0, 60, 0
1, 97320, Note_on_c, 0, 64, 0
1, 97440, Note_on_c, 0, 81, 0
1, 97440, Note_on_c, 0, 84, 75
1, 97440, Note_on_c, 0, 60, 46
1, 97440, Note_on_c, 0, 64, 46
1, 97560, Note_on_c, 0, 64, 0
1, 97560, Note_on_c, 0, 60, 0
1, 97680, Note_on_c, 0, 84, 0
1, 97680, Note_on_c, 0, 81, 69
1, 97680, Note_on_c, 0, 60, 46
1, 97680, Note_on_c, 0, 64, 46
1, 97800, Tempo, 455339
1, 97800, Note_on_c, 0, 64, 0
1, 97800, Note_on_c, 0, 60, 0
1, 97920, Tempo, 436491
1, 97920, Note_on_c, 0, 81, 0
1, 97920, Note_on_c, 0, 83, 78
1, 97920, Note_on_c, 0, 62, 50
1, 97956, Control_c, 0, 64, 127
1, 98040, Note_on_c, 0, 62, 0
1, 98040, Note_on_c, 0, 71, 42
1, 98160, Note_on_c, 0, 71, 0
1, 98160, Note_on_c, 0, 83, 0
1, 98160, Note_on_c, 0, 79, 73
1, 98160, Note_on_c, 0, 67, 42
1, 98280, Tempo, 458961
1, 98280, Note_on_c, 0, 67, 0
1, 98280, Note_on_c, 0, 71, 42
1, 98400, Tempo, 436491
1, 98400, Note_on_c, 0, 71, 0
1, 98400, Note_on_c, 0, 79, 0
1, 98400, Note_on_c, 0, 86, 79
1, 98400, Note_on_c, 0, 62, 49
1, 98520, Note_on_c, 0, 62, 0
1, 98520, Note_on_c, 0, 71, 42
1, 98640, Note_on_c, 0, 71, 0
1, 98640, Note_on_c, 0, 67, 42
1, 98760, Note_on_c, 0, 67, 0
1, 98760, Note_on_c, 0, 71, 42
1, 98880, Note_on_c, 0, 71, 0
1, 98880, Note_on_c, 0, 62, 48
1, 99000, Note_on_c, 0, 62, 0
1, 99000, Note_on_c, 0, 71, 42
1, 99120, Note_on_c, 0, 71, 0
1, 99120, Note_on_c, 0, 67, 42
1, 99240, Note_on_c, 0, 67, 0
1, 99240, Note_on_c, 0, 71, 42
1, 99360, Note_on_c, 0, 71, 0
1, 99360, Note_on_c, 0, 86, 0
1, 99360, Note_on_c, 0, 84, 70
1, 99360, Note_on_c, 0, 62, 49
1, 99424, Control_c, 0, 64, 0
1, 99480, Note_on_c, 0, 62, 0
1, 99480, Note_on_c, 0, 84, 0
1, 99480, Note_on_c, 0, 83, 68
1, 99480, Note_on_c, 0, 71, 42
1, 99487, Control_c, 0, 64, 127
1, 99600, Note_on_c, 0, 71, 0
1, 99600, Note_on_c, 0, 83, 0
1, 99600, Note_on_c, 0, 81, 67
1, 99600, Note_on_c, 0, 67, 42
1, 99720, Tempo, 462606
1, 99720, Note_on_c, 0, 67, 0
1, 99720, Note_on_c, 0, 81, 0
1, 99720, Note_on_c, 0, 79, 65
1, 99720, Note_on_c, 0, 71, 42
1, 99805, Tempo, 475888
1, 99840, Note_on_c, 0, 71, 0
1, 99840, Note_on_c, 0, 79, 0
1, 99840, Note_on_c, 0, 81, 49
1, 99840, Note_on_c, 0, 62, 50
1, 99843, Tempo, 473971
1, 99847, Control_c, 0, 64, 0
1, 99882, Tempo, 472032
1, 99886, Control_c, 0, 64, 127
1, 99900, Note_on_c, 0, 81, 0
1, 99900, Note_on_c, 0, 83, 38
1, 99901, Tempo, 470109
1, 99939, Tempo, 468238
1, 99959, Tempo, 466345
1, 99960, Note_on_c, 0, 83, 0
1, 99960, Note_on_c, 0, 62, 0
1, 99960, Note_on_c, 0, 81, 49
1, 99960, Note_on_c, 0, 72, 42
1, 99997, Tempo, 464468
1, 100020, Note_on_c, 0, 81, 0
1, 100020, Note_on_c, 0, 83, 40
1, 100035, Tempo, 462606
1, 100055, Tempo, 460794
1, 100080, Note_on_c, 0, 83, 0
1, 100080, Note_on_c, 0, 72, 0
1, 100080, Note_on_c, 0, 81, 50
1, 100080, Note_on_c, 0, 66, 42
1, 100093, Tempo, 458961
1, 100112, Tempo, 457143
1, 100140, Note_on_c, 0, 81, 0
1, 100140, Note_on_c, 0, 83, 40
1, 100151, Tempo, 455339
1, 100189, Tempo, 453583
1, 100200, Note_on_c, 0, 83, 0
1, 100200, Note_on_c, 0, 66, 0
1, 100200, Note_on_c, 0, 81, 50
1, 100200, Note_on_c, 0, 72, 42
1, 100208, Tempo, 451807
1, 100247, Tempo, 450045
1, 100260, Note_on_c, 0, 81, 0
1, 100260, Note_on_c, 0, 83, 40
1, 100266, Tempo, 448330
1, 100304, Tempo, 448330
1, 100320, Note_on_c, 0, 83, 0
1, 100320, Note_on_c, 0, 72, 0
1, 100320, Note_on_c, 0, 81, 52
1, 100320, Note_on_c, 0, 62, 49
1, 100343, Tempo, 450045
1, 100380, Note_on_c, 0, 81, 0
1, 100380, Note_on_c, 0, 83, 40
1, 100400, Tempo, 451807
1, 100439, Tempo, 453583
1, 100440, Note_on_c, 0, 83, 0
1, 100440, Note_on_c, 0, 62, 0
1, 100440, Note_on_c, 0, 81, 52
1, 100440, Note_on_c, 0, 72, 42
1, 100496, Tempo, 451807
1, 100500, Note_on_c, 0, 81, 0
1, 100500, Note_on_c, 0, 83, 41
1, 100554, Tempo, 450045
1, 100560, Note_on_c, 0, 83, 0
1, 100560, Note_on_c, 0, 72, 0
1, 100560, Note_on_c, 0, 81, 53
1, 100560, Note_on_c, 0, 66, 42
1, 100611, Tempo, 448330
1, 100620, Note_on_c, 0, 81, 0
1, 100620, Note_on_c, 0, 83, 41
1, 100669, Tempo, 446595
1, 100680, Note_on_c, 0, 83, 0
1, 100680, Note_on_c, 0, 66, 0
1, 100680, Note_on_c, 0, 81, 53
1, 100680, Note_on_c, 0, 72, 42
1, 100707, Tempo, 444873
1, 100740, Note_on_c, 0, 81, 0
1, 100740, Note_on_c, 0, 83, 42
1, 100800, Note_on_c, 0, 83, 0
1, 100800, Note_on_c, 0, 72, 0
1, 100800, Note_on_c, 0, 81, 54
1, 100800, Note_on_c, 0, 62, 48
1, 100860, Note_on_c, 0, 81, 0
1, 100860, Note_on_c, 0, 83, 43
1, 100920, Note_on_c, 0, 83, 0
1, 100920, Note_on_c, 0, 62, 0
1, 100920, Note_on_c, 0, 81, 54
1, 100920, Note_on_c, 0, 72, 42
1, 100980, Note_on_c, 0, 81, 0
1, 100980, Note_on_c, 0, 83, 45
1, 101040, Note_on_c, 0, 83, 0
1, 101040, Note_on_c, 0, 72, 0
1, 101040, Note_on_c, 0, 81, 54
1, 101040, Note_on_c, 0, 66, 42
1, 101100, Note_on_c, 0, 81, 0
1, 101100, Note_on_c, 0, 83, 44
1, 101149, Tempo, 444873
1, 101160, Note_on_c, 0, 83, 0
1, 101160, Note_on_c, 0, 66, 0
1, 101160, Note_on_c, 0, 81, 54
1, 101160, Note_on_c, 0, 72, 42
1, 101207, Tempo, 446595
1, 101220, Note_on_c, 0, 81, 0
1, 101220, Note_on_c, 0, 83, 44
1, 101245, Tempo, 448330
1, 101280, Note_on_c, 0, 83, 0
1, 101280, Note_on_c, 0, 72, 0
1, 101280, Note_on_c, 0, 81, 53
1, 101280, Note_on_c, 0, 62, 49
1, 101283, Tempo, 450045
1, 101340, Note_on_c, 0, 81, 0
1, 101340, Note_on_c, 0, 83, 45
1, 101341, Tempo, 451807
1, 101379, Tempo, 453583
1, 101400, Note_on_c, 0, 83, 0
1, 101400, Note_on_c, 0, 62, 0
1, 101400, Note_on_c, 0, 81, 53
1, 101400, Note_on_c, 0, 72, 42
1, 101418, Tempo, 455339
1, 101456, Tempo, 457143
1, 101460, Note_on_c, 0, 81, 0
1, 101460, Note_on_c, 0, 83, 42
1, 101514, Tempo, 458961
1, 101520, Note_on_c, 0, 83, 0
1, 101520, Note_on_c, 0, 72, 0
1, 101520, Note_on_c, 0, 81, 53
1, 101520, Note_on_c, 0, 66, 42
1, 101552, Tempo, 460794
1, 101591, Tempo, 462606
1, 101600, Note_on_c, 0, 81, 0
1, 101600, Note_on_c, 0, 79, 59
1, 101629, Tempo, 464468
1, 101640, Note_on_c, 0, 66, 0
1, 101640, Note_on_c, 0, 72, 42
1, 101680, Note_on_c, 0, 79, 0
1, 101680, Note_on_c, 0, 81, 58
1, 101760, Note_on_c, 0, 81, 0
1, 101760, Note_on_c, 0, 72, 0
1, 101760, Note_on_c, 0, 79, 69
1, 101760, Note_on_c, 0, 71, 58
1, 101760, Note_on_c, 0, 67, 49
1, 101760, Control_c, 0, 64, 0
1, 102240, Tempo, 458961
1, 102240, Note_on_c, 0, 67, 0
1, 102240, Note_on_c, 0, 71, 0
1, 102240, Note_on_c, 0, 79, 0
1, 102240, Note_on_c, 0, 79, 67
1, 102280, Control_c, 0, 64, 127
1, 102360, Note_on_c, 0, 79, 0
1, 102360, Note_on_c, 0, 74, 59
1, 102480, Note_on_c, 0, 74, 0
1, 102480, Note_on_c, 0, 79, 62
1, 102600, Tempo, 477859
1, 102600, Note_on_c, 0, 79, 0
1, 102600, Note_on_c, 0, 83, 65
1, 102720, Tempo, 457143
1, 102720, Note_on_c, 0, 83, 0
1, 102720, Note_on_c, 0, 86, 68
1, 102840, Note_on_c, 0, 86, 0
1, 102840, Note_on_c, 0, 83, 63
1, 102960, Note_on_c, 0, 83, 0
1, 102960, Note_on_c, 0, 79, 68
1, 103080, Tempo, 466345
1, 103080, Note_on_c, 0, 79, 0
1, 103080, Note_on_c, 0, 83, 63
1, 103200, Tempo, 455339
1, 103200, Note_on_c, 0, 83, 0
1, 103200, Note_on_c, 0, 84, 69
1, 103200, Note_on_c, 0, 69, 40
1, 103200, Note_on_c, 0, 72, 48
1, 103200, Note_on_c, 0, 62, 40
1, 103215, Control_c, 0, 64, 0
1, 103309, Control_c, 0, 64, 127
1, 103320, Note_on_c, 0, 84, 0
1, 103320, Note_on_c, 0, 81, 63
1, 103440, Note_on_c, 0, 81, 0
1, 103440, Note_on_c, 0, 78, 69
1, 103560, Tempo, 477859
1, 103560, Note_on_c, 0, 78, 0
1, 103560, Note_on_c, 0, 81, 63
1, 103680, Tempo, 464468
1, 103680, Note_on_c, 0, 81, 0
1, 103680, Note_on_c, 0, 62, 0
1, 103680, Note_on_c, 0, 72, 0
1, 103680, Note_on_c, 0, 69, 0
1, 103680, Note_on_c, 0, 79, 69
1, 103680, Note_on_c, 0, 67, 49
1, 103680, Note_on_c, 0, 71, 58
1, 103692, Control_c, 0, 64, 0
1, 104160, Tempo, 458961
1, 104160, Note_on_c, 0, 71, 0
1, 104160, Note_on_c, 0, 67, 0
1, 104160, Note_on_c, 0, 79, 0
1, 104160, Note_on_c, 0, 67, 67
1, 104188, Control_c, 0, 64, 127
1, 104280, Note_on_c, 0, 67, 0
1, 104280, Note_on_c, 0, 62, 59
1, 104400, Note_on_c, 0, 62, 0
1, 104400, Note_on_c, 0, 67, 62
1, 104520, Tempo, 477859
1, 104520, Note_on_c, 0, 67, 0
1, 104520, Note_on_c, 0, 71, 65
1, 104640, Tempo, 458961
1, 104640, Note_on_c, 0, 71, 0
1, 104640, Note_on_c, 0, 74, 68
1, 104760, Note_on_c, 0, 74, 0
1, 104760, Note_on_c, 0, 71, 63
1, 104880, Note_on_c, 0, 71, 0
1, 104880, Note_on_c, 0, 67, 68
1, 105000, Tempo, 470109
1, 105000, Note_on_c, 0, 67, 0
1, 105000, Note_on_c, 0, 71, 63
1, 105120, Tempo, 455339
1, 105120, Note_on_c, 0, 71, 0
1, 105120, Note_on_c, 0, 72, 69
1, 105120, Note_on_c, 0, 57, 40
1, 105120, Note_on_c, 0, 60, 48
1, 105120, Note_on_c, 0, 50, 40
1, 105132, Control_c, 0, 64, 0
1, 105229, Control_c, 0, 64, 127
1, 105240, Note_on_c, 0, 72, 0
1, 105240, Note_on_c, 0, 69, 63
1, 105360, Note_on_c, 0, 69, 0
1, 105360, Note_on_c, 0, 66, 69
1, 105480, Tempo, 487924
1, 105480, Note_on_c, 0, 66, 0
1, 105480, Note_on_c, 0, 69, 63
1, 105600, Note_on_c, 0, 69, 0
1, 105600, Note_on_c, 0, 50, 0
1, 105600, Note_on_c, 0, 60, 0
1, 105600, Note_on_c, 0, 57, 0
1, 105600, Note_on_c, 0, 67, 74
1, 105600, Note_on_c, 0, 55, 44
1, 105600, Note_on_c, 0, 59, 52
1, 105605, Control_c, 0, 64, 0
1, 105720, Note_on_c, 0, 59, 0
1, 105720, Note_on_c, 0, 55, 0
1, 105720, Note_on_c, 0, 67, 0
1, 106080, Note_on_c, 0, 74, 65
1, 106080, Note_on_c, 0, 83, 77
1, 106080, Note_on_c, 0, 43, 44
1, 106080, Note_on_c, 0, 55, 52
1, 106200, Note_on_c, 0, 55, 0
1, 106200, Note_on_c, 0, 74, 0
1, 106200, Note_on_c, 0, 83, 0
1, 106200, Note_on_c, 0, 43, 0
1, 106534, Control_c, 0, 64, 127
1, 106560, Note_on_c, 0, 71, 62
1, 106560, Note_on_c, 0, 79, 74
1, 106560, Note_on_c, 0, 43, 44
1, 106560, Note_on_c, 0, 55, 52
1, 106960, Control_c, 0, 64, 0
1, 107040, Note_on_c, 0, 55, 0
1, 107040, Note_on_c, 0, 71, 0
1, 107040, Note_on_c, 0, 79, 0
1, 107040, Note_on_c, 0, 43, 0
1, 107520, Tempo, 462606
1, 107520, Marker_t, "Teil 2"
1, 107520, Note_on_c, 0, 67, 69
1, 107520, Note_on_c, 0, 55, 58
1, 107520, Note_on_c, 0, 43, 49
1, 107520, Control_c, 0, 64, 0
1, 108000, Tempo, 458961
1, 108000, Note_on_c, 0, 43, 0
1, 108000, Note_on_c, 0, 55, 0
1, 108000, Note_on_c, 0, 67, 0
1, 108000, Note_on_c, 0, 79, 67
1, 108040, Control_c, 0, 64, 127
1, 108120, Note_on_c, 0, 79, 0
1, 108120, Note_on_c, 0, 74, 59
1, 108240, Note_on_c, 0, 74, 0
1, 108240, Note_on_c, 0, 79, 62
1, 108360, Tempo, 477859
1, 108360, Note_on_c, 0, 79, 0
1, 108360, Note_on_c, 0, 82, 65
1, 108480, Tempo, 449978
1, 108480, Note_on_c, 0, 82, 0
1, 108480, Note_on_c, 0, 86, 68
1, 108600, Note_on_c, 0, 86, 0
1, 108600, Note_on_c, 0, 82, 63
1, 108720, Note_on_c, 0, 82, 0
1, 108720, Note_on_c, 0, 79, 68
1, 108840, Tempo, 466345
1, 108840, Note_on_c, 0, 79, 0
1, 108840, Note_on_c, 0, 82, 63
1, 108960, Tempo, 455339
1, 108960, Note_on_c, 0, 82, 0
1, 108960, Note_on_c, 0, 84, 69
1, 108960, Note_on_c, 0, 69, 40
1, 108960, Note_on_c, 0, 72, 48
1, 108960, Note_on_c, 0, 62, 40
1, 108975, Control_c, 0, 64, 0
1, 109069, Control_c, 0, 64, 127
1, 109080, Note_on_c, 0, 84, 0
1, 109080, Note_on_c, 0, 81, 63
1, 109200, Note_on_c, 0, 81, 0
1, 109200, Note_on_c, 0, 78, 69
1, 109320, Tempo, 477859
1, 109320, Note_on_c, 0, 78, 0
1, 109320, Note_on_c, 0, 81, 63
1, 109440, Tempo, 462606
1, 109440, Note_on_c, 0, 81, 0
1, 109440, Note_on_c, 0, 62, 0
1, 109440, Note_on_c, 0, 72, 0
1, 109440, Note_on_c, 0, 69, 0
1, 109440, Note_on_c, 0, 79, 69
1, 109440, Note_on_c, 0, 67, 49
1, 109440, Note_on_c, 0, 70, 58
1, 109452, Control_c, 0, 64, 0
1, 109920, Tempo, 458961
1, 109920, Note_on_c, 0, 70, 0
1, 109920, Note_on_c, 0, 67, 0
1, 109920, Note_on_c, 0, 79, 0
1, 109920, Note_on_c, 0, 67, 67
1, 109948, Control_c, 0, 64, 127
1, 110040, Note_on_c, 0, 67, 0
1, 110040, Note_on_c, 0, 62, 59
1, 110160, Note_on_c, 0, 62, 0
1, 110160, Note_on_c, 0, 67, 62
1, 110280, Tempo, 477859
1, 110280, Note_on_c, 0, 67, 0
1, 110280, Note_on_c, 0, 70, 65
1, 110400, Tempo, 453515
1, 110400, Note_on_c, 0, 70, 0
1, 110400, Note_on_c, 0, 74, 68
1, 110520, Note_on_c, 0, 74, 0
1, 110520, Note_on_c, 0, 70, 63
1, 110640, Note_on_c, 0, 70, 0
1, 110640, Note_on_c, 0, 67, 68
1, 110760, Tempo, 470109
1, 110760, Note_on_c, 0, 67, 0
1, 110760, Note_on_c, 0, 70, 63
1, 110880, Tempo, 455339
1, 110880, Note_on_c, 0, 70, 0
1, 110880, Note_on_c, 0, 72, 69
1, 110880, Note_on_c, 0, 57, 40
1, 110880, Note_on_c, 0, 60, 48
1, 110880, Note_on_c, 0, 50, 40
1, 110892, Control_c, 0, 64, 0
1, 110989, Control_c, 0, 64, 127
1, 111000, Note_on_c, 0, 72, 0
1, 111000, Note_on_c, 0, 69, 63
1, 111120, Note_on_c, 0, 69, 0
1, 111120, Note_on_c, 0, 66, 69
1, 111240, Tempo, 487924
1, 111240, Note_on_c, 0, 66, 0
1, 111240, Note_on_c, 0, 69, 63
1, 111360, Tempo, 540054
1, 111360, Note_on_c, 0, 69, 0
1, 111360, Note_on_c, 0, 50, 0
1, 111360, Note_on_c, 0, 60, 0
1, 111360, Note_on_c, 0, 57, 0
1, 111360, Note_on_c, 0, 67, 74
1, 111365, Control_c, 0, 64, 0
1, 111480, Tempo, 453515
1, 111480, Note_on_c, 0, 43, 49
1, 111600, Note_on_c, 0, 45, 51
1, 111612, Note_on_c, 0, 43, 0
1, 111720, Note_on_c, 0, 46, 52
1, 111732, Note_on_c, 0, 45, 0
1, 111779, Tempo, 457143
1, 111827, Tempo, 458961
1, 111840, Note_on_c, 0, 67, 0
1, 111840, Note_on_c, 0, 48, 54
1, 111852, Note_on_c, 0, 46, 0
1, 111875, Tempo, 460794
1, 111923, Tempo, 462606
1, 111960, Note_on_c, 0, 50, 56
1, 111971, Tempo, 464468
1, 111972, Note_on_c, 0, 48, 0
1, 112019, Tempo, 466345
1, 112067, Tempo, 468238
1, 112080, Note_on_c, 0, 52, 58
1, 112092, Note_on_c, 0, 50, 0
1, 112115, Tempo, 470109
1, 112163, Tempo, 472032
1, 112200, Note_on_c, 0, 54, 60
1, 112211, Tempo, 473971
1, 112212, Note_on_c, 0, 52, 0
1, 112259, Tempo, 475888
1, 112307, Tempo, 477859
1, 112320, Tempo, 537586
1, 112320, Note_on_c, 0, 55, 61
1, 112332, Note_on_c, 0, 54, 0
1, 112440, Tempo, 457073
1, 112440, Note_on_c, 0, 79, 68
1, 112560, Note_on_c, 0, 82, 72
1, 112572, Note_on_c, 0, 79, 0
1, 112680, Note_on_c, 0, 81, 70
1, 112692, Note_on_c, 0, 82, 0
1, 112787, Tempo, 457143
1, 112800, Note_on_c, 0, 55, 0
1, 112800, Note_on_c, 0, 79, 68
1, 112812, Note_on_c, 0, 81, 0
1, 112835, Tempo, 458961
1, 112883, Tempo, 460794
1, 112920, Note_on_c, 0, 77, 67
1, 112931, Tempo, 462606
1, 112932, Note_on_c, 0, 79, 0
1, 112979, Tempo, 464468
1, 113027, Tempo, 466345
1, 113040, Note_on_c, 0, 76, 65
1, 113052, Note_on_c, 0, 77, 0
1, 113075, Tempo, 468238
1, 113123, Tempo, 470109
1, 113160, Note_on_c, 0, 74, 64
1, 113171, Tempo, 472032
1, 113172, Note_on_c, 0, 76, 0
1, 113219, Tempo, 473971
1, 113280, Tempo, 516129
1, 113280, Note_on_c, 0, 73, 70
1, 113285, Control_c, 0, 64, 0
1, 113292, Note_on_c, 0, 74, 0
1, 113400, Tempo, 457073
1, 113400, Note_on_c, 0, 45, 53
1, 113520, Note_on_c, 0, 47, 55
1, 113532, Note_on_c, 0, 45, 0
1, 113640, Note_on_c, 0, 49, 57
1, 113652, Note_on_c, 0, 47, 0
1, 113747, Tempo, 460794
1, 113760, Note_on_c, 0, 73, 0
1, 113760, Note_on_c, 0, 50, 60
1, 113772, Note_on_c, 0, 49, 0
1, 113819, Tempo, 462606
1, 113880, Note_on_c, 0, 52, 62
1, 113891, Tempo, 464468
1, 113892, Note_on_c, 0, 50, 0
1, 113939, Tempo, 466345
1, 114000, Note_on_c, 0, 54, 64
1, 114011, Tempo, 468238
1, 114012, Note_on_c, 0, 52, 0
1, 114059, Tempo, 470109
1, 114120, Note_on_c, 0, 56, 66
1, 114131, Tempo, 472032
1, 114132, Note_on_c, 0, 54, 0
1, 114179, Tempo, 473971
1, 114240, Tempo, 516129
1, 114240, Note_on_c, 0, 57, 68
1, 114252, Note_on_c, 0, 56, 0
1, 114360, Tempo, 458891
1, 114360, Note_on_c, 0, 85, 75
1, 114480, Note_on_c, 0, 88, 79
1, 114492, Note_on_c, 0, 85, 0
1, 114600, Note_on_c, 0, 86, 77
1, 114612, Note_on_c, 0, 88, 0
1, 114720, Note_on_c, 0, 57, 0
1, 114720, Note_on_c, 0, 85, 74
1, 114731, Tempo, 458961
1, 114732, Note_on_c, 0, 86, 0
1, 114779, Tempo, 460794
1, 114827, Tempo, 462606
1, 114840, Note_on_c, 0, 82, 72
1, 114852, Note_on_c, 0, 85, 0
1, 114875, Tempo, 464468
1, 114923, Tempo, 466345
1, 114960, Note_on_c, 0, 81, 70
1, 114971, Tempo, 468238
1, 114972, Note_on_c, 0, 82, 0
1, 115019, Tempo, 470109
1, 115067, Tempo, 472032
1, 115080, Note_on_c, 0, 79, 72
1, 115092, Note_on_c, 0, 81, 0
1, 115115, Tempo, 473971
1, 115163, Tempo, 475888
1, 115200, Tempo, 462606
1, 115200, Note_on_c, 0, 77, 85
1, 115200, Note_on_c, 0, 50, 71
1, 115200, Note_on_c, 0, 38, 71
1, 115200, Control_c, 0, 64, 0
1, 115212, Note_on_c, 0, 79, 0
1, 115680, Tempo, 453515
1, 115680, Note_on_c, 0, 77, 0
1, 115680, Note_on_c, 0, 50, 0
1, 115680, Note_on_c, 0, 38, 0
1, 115680, Note_on_c, 0, 74, 73
1, 115720, Control_c, 0, 64, 127
1, 115800, Note_on_c, 0, 74, 0
1, 115800, Note_on_c, 0, 69, 64
1, 115920, Note_on_c, 0, 69, 0
1, 115920, Note_on_c, 0, 74, 68
1, 116040, Tempo, 477859
1, 116040, Note_on_c, 0, 74, 0
1, 116040, Note_on_c, 0, 77, 71
1, 116160, Tempo, 453515
1, 116160, Note_on_c, 0, 77, 0
1, 116160, Note_on_c, 0, 81, 74
1, 116280, Note_on_c, 0, 81, 0
1, 116280, Note_on_c, 0, 77, 69
1, 116400, Note_on_c, 0, 77, 0
1, 116400, Note_on_c, 0, 74, 74
1, 116520, Tempo, 466345
1, 116520, Note_on_c, 0, 74, 0
1, 116520, Note_on_c, 0, 77, 69
1, 116640, Tempo, 451739
1, 116640, Note_on_c, 0, 77, 0
1, 116640, Note_on_c, 0, 79, 75
1, 116640, Note_on_c, 0, 64, 44
1, 116640, Note_on_c, 0, 67, 52
1, 116640, Note_on_c, 0, 57, 44
1, 116655, Control_c, 0, 64, 0
1, 116749, Control_c, 0, 64, 127
1, 116760, Note_on_c, 0, 79, 0
1, 116760, Note_on_c, 0, 76, 69
1, 116880, Note_on_c, 0, 76, 0
1, 116880, Note_on_c, 0, 73, 75
1, 117000, Tempo, 477859
1, 117000, Note_on_c, 0, 73, 0
1, 117000, Note_on_c, 0, 76, 69
1, 117120, Tempo, 462606
1, 117120, Note_on_c, 0, 76, 0
1, 117120, Note_on_c, 0, 57, 0
1, 117120, Note_on_c, 0, 67, 0
1, 117120, Note_on_c, 0, 64, 0
1, 117120, Note_on_c, 0, 74, 75
1, 117120, Note_on_c, 0, 62, 53
1, 117120, Note_on_c, 0, 65, 63
1, 117132, Control_c, 0, 64, 0
1, 117595, Note_on_c, 0, 62, 0
1, 117600, Tempo, 458961
1, 117600, Note_on_c, 0, 65, 0
1, 117600, Note_on_c, 0, 74, 0
1, 117600, Note_on_c, 0, 62, 67
1, 117628, Control_c, 0, 64, 127
1, 117720, Note_on_c, 0, 62, 0
1, 117720, Note_on_c, 0, 57, 59
1, 117840, Note_on_c, 0, 57, 0
1, 117840, Note_on_c, 0, 62, 62
1, 117960, Tempo, 477859
1, 117960, Note_on_c, 0, 62, 0
1, 117960, Note_on_c, 0, 65, 65
1, 118080, Tempo, 453515
1, 118080, Note_on_c, 0, 65, 0
1, 118080, Note_on_c, 0, 69, 68
1, 118200, Note_on_c, 0, 69, 0
1, 118200, Note_on_c, 0, 65, 63
1, 118320, Note_on_c, 0, 65, 0
1, 118320, Note_on_c, 0, 62, 68
1, 118440, Tempo, 470109
1, 118440, Note_on_c, 0, 62, 0
1, 118440, Note_on_c, 0, 65, 63
1, 118560, Tempo, 451739
1, 118560, Note_on_c, 0, 65, 0
1, 118560, Note_on_c, 0, 67, 69
1, 118560, Note_on_c, 0, 52, 40
1, 118560, Note_on_c, 0, 55, 48
1, 118560, Note_on_c, 0, 45, 40
1, 118572, Control_c, 0, 64, 0
1, 118669, Control_c, 0, 64, 127
1, 118680, Note_on_c, 0, 67, 0
1, 118680, Note_on_c, 0, 64, 63
1, 118800, Note_on_c, 0, 64, 0
1, 118800, Note_on_c, 0, 61, 69
1, 118920, Tempo, 487924
1, 118920, Note_on_c, 0, 61, 0
1, 118920, Note_on_c, 0, 64, 63
1, 119040, Tempo, 516129
1, 119040, Note_on_c, 0, 64, 0
1, 119040, Note_on_c, 0, 45, 0
1, 119040, Note_on_c, 0, 55, 0
1, 119040, Note_on_c, 0, 52, 0
1, 119040, Note_on_c, 0, 50, 62
1, 119040, Note_on_c, 0, 53, 62
1, 119045, Control_c, 0, 64, 0
1, 119160, Tempo, 458891
1, 119160, Note_on_c, 0, 62, 54
1, 119280, Note_on_c, 0, 64, 56
1, 119292, Note_on_c, 0, 62, 0
1, 119400, Note_on_c, 0, 65, 58
1, 119412, Note_on_c, 0, 64, 0
1, 119507, Tempo, 460794
1, 119520, Note_on_c, 0, 50, 0
1, 119520, Note_on_c, 0, 53, 0
1, 119520, Note_on_c, 0, 67, 60
1, 119532, Note_on_c, 0, 65, 0
1, 119579, Tempo, 462606
1, 119640, Note_on_c, 0, 69, 61
1, 119651, Tempo, 464468
1, 119652, Note_on_c, 0, 67, 0
1, 119699, Tempo, 466345
1, 119760, Note_on_c, 0, 71, 63
1, 119771, Tempo, 468238
1, 119772, Note_on_c, 0, 69, 0
1, 119819, Tempo, 470109
1, 119880, Note_on_c, 0, 73, 65
1, 119891, Tempo, 472032
1, 119892, Note_on_c, 0, 71, 0
1, 119939, Tempo, 473971
1, 120000, Tempo, 525394
1, 120000, Note_on_c, 0, 74, 66
1, 120012, Note_on_c, 0, 73, 0
1, 120120, Tempo, 458961
1, 120120, Note_on_c, 0, 62, 53
1, 120240, Note_on_c, 0, 65, 63
1, 120252, Note_on_c, 0, 62, 0
1, 120360, Note_on_c, 0, 64, 61
1, 120372, Note_on_c, 0, 65, 0
1, 120480, Note_on_c, 0, 74, 0
1, 120480, Note_on_c, 0, 62, 59
1, 120491, Tempo, 458961
1, 120492, Note_on_c, 0, 64, 0
1, 120539, Tempo, 460794
1, 120587, Tempo, 462606
1, 120600, Note_on_c, 0, 60, 56
1, 120612, Note_on_c, 0, 62, 0
1, 120635, Tempo, 464468
1, 120683, Tempo, 466345
1, 120720, Note_on_c, 0, 59, 54
1, 120731, Tempo, 468238
1, 120732, Note_on_c, 0, 60, 0
1, 120779, Tempo, 470109
1, 120827, Tempo, 472032
1, 120840, Note_on_c, 0, 57, 52
1, 120852, Note_on_c, 0, 59, 0
1, 120875, Tempo, 473971
1, 120923, Tempo, 475888
1, 120960, Tempo, 535093
1, 120960, Note_on_c, 0, 56, 57
1, 120965, Control_c, 0, 64, 0
1, 120972, Note_on_c, 0, 57, 0
1, 121080, Tempo, 462606
1, 121080, Note_on_c, 0, 71, 58
1, 121200, Note_on_c, 0, 72, 60
1, 121212, Note_on_c, 0, 71, 0
1, 121320, Note_on_c, 0, 74, 61
1, 121332, Note_on_c, 0, 72, 0
1, 121427, Tempo, 460794
1, 121440, Note_on_c, 0, 56, 0
1, 121440, Note_on_c, 0, 76, 63
1, 121452, Note_on_c, 0, 74, 0
1, 121499, Tempo, 462606
1, 121560, Note_on_c, 0, 78, 64
1, 121571, Tempo, 464468
1, 121572, Note_on_c, 0, 76, 0
1, 121619, Tempo, 466345
1, 121680, Note_on_c, 0, 80, 66
1, 121691, Tempo, 468238
1, 121692, Note_on_c, 0, 78, 0
1, 121739, Tempo, 470109
1, 121800, Note_on_c, 0, 81, 67
1, 121811, Tempo, 472032
1, 121812, Note_on_c, 0, 80, 0
1, 121859, Tempo, 473971
1, 121920, Tempo, 516129
1, 121920, Note_on_c, 0, 83, 69
1, 121932, Note_on_c, 0, 81, 0
1, 122040, Tempo, 458961
1, 122040, Note_on_c, 0, 56, 52
1, 122160, Note_on_c, 0, 59, 61
1, 122172, Note_on_c, 0, 56, 0
1, 122280, Note_on_c, 0, 57, 59
1, 122292, Note_on_c, 0, 59, 0
1, 122400, Note_on_c, 0, 83, 0
1, 122400, Note_on_c, 0, 56, 57
1, 122411, Tempo, 458961
1, 122412, Note_on_c, 0, 57, 0
1, 122459, Tempo, 460794
1, 122507, Tempo, 462606
1, 122520, Note_on_c, 0, 53, 55
1, 122532, Note_on_c, 0, 56, 0
1, 122555, Tempo, 464468
1, 122603, Tempo, 466345
1, 122640, Note_on_c, 0, 52, 53
1, 122651, Tempo, 468238
1, 122652, Note_on_c, 0, 53, 0
1, 122699, Tempo, 470109
1, 122747, Tempo, 472032
1, 122760, Note_on_c, 0, 50, 50
1, 122772, Note_on_c, 0, 52, 0
1, 122795, Tempo, 473971
1, 122843, Tempo, 475888
1, 122880, Tempo, 540054
1, 122880, Note_on_c, 0, 48, 57
1, 122885, Control_c, 0, 64, 0
1, 122892, Note_on_c, 0, 50, 0
1, 123000, Tempo, 462606
1, 123000, Note_on_c, 0, 81, 70
1, 123120, Note_on_c, 0, 88, 77
1, 123132, Note_on_c, 0, 81, 0
1, 123240, Note_on_c, 0, 86, 70
1, 123252, Note_on_c, 0, 88, 0
1, 123347, Tempo, 460794
1, 123360, Note_on_c, 0, 48, 0
1, 123360, Note_on_c, 0, 84, 71
1, 123372, Note_on_c, 0, 86, 0
1, 123419, Tempo, 462606
1, 123480, Note_on_c, 0, 83, 72
1, 123491, Tempo, 464468
1, 123492, Note_on_c, 0, 84, 0
1, 123539, Tempo, 466345
1, 123600, Note_on_c, 0, 81, 73
1, 123611, Tempo, 468238
1, 123612, Note_on_c, 0, 83, 0
1, 123659, Tempo, 470109
1, 123720, Note_on_c, 0, 79, 74
1, 123731, Tempo, 472032
1, 123732, Note_on_c, 0, 81, 0
1, 123779, Tempo, 473971
1, 123840, Tempo, 537586
1, 123840, Note_on_c, 0, 77, 78
1, 123852, Note_on_c, 0, 79, 0
1, 123960, Tempo, 458961
1, 123960, Note_on_c, 0, 62, 58
1, 124080, Note_on_c, 0, 69, 66
1, 124092, Note_on_c, 0, 62, 0
1, 124200, Note_on_c, 0, 67, 64
1, 124212, Note_on_c, 0, 69, 0
1, 124320, Note_on_c, 0, 77, 0
1, 124320, Note_on_c, 0, 65, 62
1, 124331, Tempo, 458961
1, 124332, Note_on_c, 0, 67, 0
1, 124379, Tempo, 460794
1, 124427, Tempo, 462606
1, 124440, Note_on_c, 0, 64, 61
1, 124452, Note_on_c, 0, 65, 0
1, 124475, Tempo, 464468
1, 124523, Tempo, 466345
1, 124560, Note_on_c, 0, 62, 59
1, 124571, Tempo, 468238
1, 124572, Note_on_c, 0, 64, 0
1, 124619, Tempo, 470109
1, 124667, Tempo, 472032
1, 124680, Note_on_c, 0, 60, 58
1, 124692, Note_on_c, 0, 62, 0
1, 124715, Tempo, 473971
1, 124763, Tempo, 475888
1, 124800, Tempo, 516129
1, 124800, Note_on_c, 0, 59, 68
1, 124805, Control_c, 0, 64, 0
1, 124812, Note_on_c, 0, 60, 0
1, 124920, Tempo, 462606
1, 124920, Note_on_c, 0, 79, 64
1, 125040, Note_on_c, 0, 86, 69
1, 125052, Note_on_c, 0, 79, 0
1, 125160, Note_on_c, 0, 84, 63
1, 125172, Note_on_c, 0, 86, 0
1, 125267, Tempo, 460794
1, 125280, Note_on_c, 0, 59, 0
1, 125280, Note_on_c, 0, 83, 64
1, 125292, Note_on_c, 0, 84, 0
1, 125339, Tempo, 462606
1, 125400, Note_on_c, 0, 81, 66
1, 125411, Tempo, 464468
1, 125412, Note_on_c, 0, 83, 0
1, 125459, Tempo, 466345
1, 125520, Note_on_c, 0, 79, 67
1, 125531, Tempo, 468238
1, 125532, Note_on_c, 0, 81, 0
1, 125579, Tempo, 470109
1, 125640, Note_on_c, 0, 77, 69
1, 125651, Tempo, 472032
1, 125652, Note_on_c, 0, 79, 0
1, 125699, Tempo, 473971
1, 125760, Tempo, 537586
1, 125760, Note_on_c, 0, 76, 71
1, 125772, Note_on_c, 0, 77, 0
1, 125880, Tempo, 458961
1, 125880, Note_on_c, 0, 60, 50
1, 126000, Note_on_c, 0, 67, 58
1, 126012, Note_on_c, 0, 60, 0
1, 126120, Note_on_c, 0, 65, 56
1, 126132, Note_on_c, 0, 67, 0
1, 126240, Note_on_c, 0, 76, 0
1, 126240, Note_on_c, 0, 64, 55
1, 126251, Tempo, 458961
1, 126252, Note_on_c, 0, 65, 0
1, 126299, Tempo, 460794
1, 126347, Tempo, 462606
1, 126360, Note_on_c, 0, 62, 53
1, 126372, Note_on_c, 0, 64, 0
1, 126395, Tempo, 464468
1, 126443, Tempo, 466345
1, 126480, Note_on_c, 0, 60, 51
1, 126491, Tempo, 468238
1, 126492, Note_on_c, 0, 62, 0
1, 126539, Tempo, 470109
1, 126587, Tempo, 472032
1, 126600, Note_on_c, 0, 59, 49
1, 126612, Note_on_c, 0, 60, 0
1, 126635, Tempo, 473971
1, 126683, Tempo, 475888
1, 126720, Tempo, 516129
1, 126720, Note_on_c, 0, 57, 57
1, 126725, Control_c, 0, 64, 0
1, 126732, Note_on_c, 0, 59, 0
1, 126840, Tempo, 462606
1, 126840, Note_on_c, 0, 77, 60
1, 126960, Note_on_c, 0, 84, 66
1, 126972, Note_on_c, 0, 77, 0
1, 127080, Note_on_c, 0, 83, 70
1, 127092, Note_on_c, 0, 84, 0
1, 127187, Tempo, 460794
1, 127200, Note_on_c, 0, 57, 0
1, 127200, Note_on_c, 0, 81, 69
1, 127212, Note_on_c, 0, 83, 0
1, 127259, Tempo, 462606
1, 127320, Note_on_c, 0, 79, 68
1, 127331, Tempo, 464468
1, 127332, Note_on_c, 0, 81, 0
1, 127379, Tempo, 466345
1, 127440, Note_on_c, 0, 77, 66
1, 127451, Tempo, 468238
1, 127452, Note_on_c, 0, 79, 0
1, 127499, Tempo, 470109
1, 127560, Note_on_c, 0, 76, 65
1, 127571, Tempo, 472032
1, 127572, Note_on_c, 0, 77, 0
1, 127619, Tempo, 473971
1, 127680, Tempo, 516129
1, 127680, Note_on_c, 0, 74, 69
1, 127692, Note_on_c, 0, 76, 0
1, 127800, Tempo, 458961
1, 127800, Note_on_c, 0, 59, 50
1, 127920, Note_on_c, 0, 65, 56
1, 127932, Note_on_c, 0, 59, 0
1, 128040, Note_on_c, 0, 64, 54
1, 128052, Note_on_c, 0, 65, 0
1, 128160, Note_on_c, 0, 74, 0
1, 128160, Note_on_c, 0, 62, 53
1, 128171, Tempo, 458961
1, 128172, Note_on_c, 0, 64, 0
1, 128219, Tempo, 460794
1, 128267, Tempo, 462606
1, 128280, Note_on_c, 0, 60, 51
1, 128292, Note_on_c, 0, 62, 0
1, 128315, Tempo, 464468
1, 128363, Tempo, 466345
1, 128400, Note_on_c, 0, 59, 49
1, 128411, Tempo, 468238
1, 128412, Note_on_c, 0, 60, 0
1, 128459, Tempo, 470109
1, 128507, Tempo, 472032
1, 128520, Note_on_c, 0, 57, 48
1, 128532, Note_on_c, 0, 59, 0
1, 128555, Tempo, 473971
1, 128603, Tempo, 475888
1, 128640, Tempo, 540054
1, 128640, Note_on_c, 0, 56, 54
1, 128645, Control_c, 0, 64, 0
1, 128652, Note_on_c, 0, 57, 0
1, 128760, Tempo, 462606
1, 128760, Note_on_c, 0, 76, 59
1, 128880, Note_on_c, 0, 83, 67
1, 128892, Note_on_c, 0, 76, 0
1, 129000, Note_on_c, 0, 81, 67
1, 129012, Note_on_c, 0, 83, 0
1, 129107, Tempo, 460794
1, 129120, Note_on_c, 0, 56, 0
1, 129120, Note_on_c, 0, 80, 66
1, 129132, Note_on_c, 0, 81, 0
1, 129179, Tempo, 462606
1, 129240, Note_on_c, 0, 77, 65
1, 129251, Tempo, 464468
1, 129252, Note_on_c, 0, 80, 0
1, 129299, Tempo, 466345
1, 129360, Note_on_c, 0, 76, 64
1, 129371, Tempo, 468238
1, 129372, Note_on_c, 0, 77, 0
1, 129419, Tempo, 470109
1, 129480, Note_on_c, 0, 74, 63
1, 129491, Tempo, 472032
1, 129492, Note_on_c, 0, 76, 0
1, 129539, Tempo, 473971
1, 129600, Tempo, 516129
1, 129600, Note_on_c, 0, 72, 66
1, 129612, Note_on_c, 0, 74, 0
1, 129720, Tempo, 458961
1, 129720, Note_on_c, 0, 57, 44
1, 129840, Note_on_c, 0, 60, 52
1, 129852, Note_on_c, 0, 57, 0
1, 129960, Note_on_c, 0, 59, 50
1, 129972, Note_on_c, 0, 60, 0
1, 130080, Note_on_c, 0, 72, 0
1, 130080, Note_on_c, 0, 57, 48
1, 130091, Tempo, 458961
1, 130092, Note_on_c, 0, 59, 0
1, 130139, Tempo, 460794
1, 130187, Tempo, 462606
1, 130200, Note_on_c, 0, 55, 46
1, 130212, Note_on_c, 0, 57, 0
1, 130235, Tempo, 464468
1, 130283, Tempo, 466345
1, 130320, Note_on_c, 0, 53, 45
1, 130331, Tempo, 468238
1, 130332, Note_on_c, 0, 55, 0
1, 130379, Tempo, 470109
1, 130427, Tempo, 472032
1, 130440, Note_on_c, 0, 52, 43
1, 130452, Note_on_c, 0, 53, 0
1, 130475, Tempo, 473971
1, 130523, Tempo, 475888
1, 130560, Tempo, 537586
1, 130560, Note_on_c, 0, 50, 51
1, 130565, Control_c, 0, 64, 0
1, 130572, Note_on_c, 0, 52, 0
1, 130680, Tempo, 462606
1, 130680, Note_on_c, 0, 70, 58
1, 130800, Note_on_c, 0, 74, 64
1, 130812, Note_on_c, 0, 70, 0
1, 130920, Note_on_c, 0, 72, 59
1, 130932, Note_on_c, 0, 74, 0
1, 131027, Tempo, 460794
1, 131040, Note_on_c, 0, 70, 64
1, 131052, Note_on_c, 0, 72, 0
1, 131099, Tempo, 462606
1, 131160, Note_on_c, 0, 69, 63
1, 131171, Tempo, 464468
1, 131172, Note_on_c, 0, 70, 0
1, 131219, Tempo, 466345
1, 131280, Note_on_c, 0, 67, 61
1, 131291, Tempo, 468238
1, 131292, Note_on_c, 0, 69, 0
1, 131339, Tempo, 470109
1, 131400, Note_on_c, 0, 65, 60
1, 131411, Tempo, 472032
1, 131412, Note_on_c, 0, 67, 0
1, 131459, Tempo, 473971
1, 131520, Tempo, 516129
1, 131520, Note_on_c, 0, 65, 0
1, 131520, Note_on_c, 0, 50, 0
1, 131520, Note_on_c, 0, 64, 59
1, 131520, Note_on_c, 0, 48, 46
1, 131520, Note_on_c, 0, 55, 46
1, 131520, Note_on_c, 0, 58, 57
1, 131640, Tempo, 458961
1, 131640, Note_on_c, 0, 65, 57
1, 131652, Note_on_c, 0, 64, 0
1, 131760, Note_on_c, 0, 67, 56
1, 131772, Note_on_c, 0, 65, 0
1, 131880, Note_on_c, 0, 69, 55
1, 131892, Note_on_c, 0, 67, 0
1, 132000, Note_on_c, 0, 70, 53
1, 132011, Tempo, 458961
1, 132012, Note_on_c, 0, 69, 0
1, 132059, Tempo, 460794
1, 132107, Tempo, 462606
1, 132120, Note_on_c, 0, 72, 52
1, 132132, Note_on_c, 0, 70, 0
1, 132155, Tempo, 464468
1, 132203, Tempo, 466345
1, 132240, Note_on_c, 0, 74, 50
1, 132251, Tempo, 468238
1, 132252, Note_on_c, 0, 72, 0
1, 132299, Tempo, 470109
1, 132360, Tempo, 558347
1, 132360, Note_on_c, 0, 76, 49
1, 132372, Note_on_c, 0, 74, 0
1, 132480, Tempo, 439432
1, 132480, Note_on_c, 0, 58, 0
1, 132480, Note_on_c, 0, 48, 0
1, 132480, Note_on_c, 0, 55, 0
1, 132480, Note_on_c, 0, 76, 0
1, 132480, Note_on_c, 0, 77, 59
1, 132480, Note_on_c, 0, 65, 40
1, 132621, Control_c, 0, 64, 127
1, 132720, Note_on_c, 0, 65, 0
1, 132720, Note_on_c, 0, 72, 30
1, 132960, Note_on_c, 0, 72, 0
1, 132960, Note_on_c, 0, 69, 30
1, 133200, Note_on_c, 0, 69, 0
1, 133200, Note_on_c, 0, 72, 30
1, 133440, Tempo, 433182
1, 133440, Note_on_c, 0, 72, 0
1, 133440, Note_on_c, 0, 77, 0
1, 133440, Note_on_c, 0, 81, 58
1, 133440, Note_on_c, 0, 65, 40
1, 133680, Note_on_c, 0, 65, 0
1, 133680, Note_on_c, 0, 72, 30
1, 133920, Tempo, 444050
1, 133920, Note_on_c, 0, 72, 0
1, 133920, Note_on_c, 0, 81, 0
1, 133920, Note_on_c, 0, 84, 56
1, 133920, Note_on_c, 0, 69, 30
1, 134160, Note_on_c, 0, 69, 0
1, 134160, Note_on_c, 0, 72, 30
1, 134400, Note_on_c, 0, 72, 0
1, 134400, Note_on_c, 0, 84, 0
1, 134400, Note_on_c, 0, 76, 60
1, 134400, Note_on_c, 0, 67, 30
1, 134408, Control_c, 0, 64, 0
1, 134513, Control_c, 0, 64, 127
1, 134640, Note_on_c, 0, 67, 0
1, 134640, Note_on_c, 0, 72, 29
1, 134720, Tempo, 436745
1, 134880, Note_on_c, 0, 72, 0
1, 134880, Note_on_c, 0, 70, 31
1, 135040, Tempo, 436745
1, 135120, Note_on_c, 0, 70, 0
1, 135120, Note_on_c, 0, 76, 0
1, 135120, Note_on_c, 0, 77, 55
1, 135120, Note_on_c, 0, 72, 28
1, 135240, Note_on_c, 0, 77, 0
1, 135240, Note_on_c, 0, 79, 51
1, 135360, Tempo, 440399
1, 135360, Note_on_c, 0, 79, 0
1, 135360, Note_on_c, 0, 72, 0
1, 135360, Note_on_c, 0, 77, 60
1, 135360, Note_on_c, 0, 65, 40
1, 135373, Control_c, 0, 64, 0
1, 135487, Control_c, 0, 64, 127
1, 135600, Note_on_c, 0, 65, 0
1, 135600, Note_on_c, 0, 72, 29
1, 135840, Note_on_c, 0, 72, 0
1, 135840, Note_on_c, 0, 77, 0
1, 135840, Note_on_c, 0, 69, 32
1, 136080, Note_on_c, 0, 69, 0
1, 136080, Note_on_c, 0, 72, 29
1, 136320, Tempo, 433182
1, 136320, Note_on_c, 0, 72, 0
1, 136320, Note_on_c, 0, 86, 64
1, 136320, Note_on_c, 0, 65, 40
1, 136320, Control_c, 0, 64, 0
1, 136532, Control_c, 0, 64, 127
1, 136560, Note_on_c, 0, 65, 0
1, 136560, Note_on_c, 0, 74, 32
1, 136800, Note_on_c, 0, 74, 0
1, 136800, Note_on_c, 0, 70, 32
1, 137040, Note_on_c, 0, 70, 0
1, 137040, Note_on_c, 0, 74, 32
1, 137280, Tempo, 429646
1, 137280, Note_on_c, 0, 74, 0
1, 137280, Note_on_c, 0, 86, 0
1, 137280, Note_on_c, 0, 84, 62
1, 137280, Note_on_c, 0, 65, 40
1, 137290, Control_c, 0, 64, 0
1, 137478, Control_c, 0, 64, 127
1, 137520, Note_on_c, 0, 65, 0
1, 137520, Note_on_c, 0, 72, 32
1, 137760, Tempo, 434940
1, 137760, Note_on_c, 0, 72, 0
1, 137760, Note_on_c, 0, 84, 0
1, 137760, Note_on_c, 0, 89, 64
1, 137760, Note_on_c, 0, 69, 32
1, 138000, Note_on_c, 0, 69, 0
1, 138000, Note_on_c, 0, 72, 32
1, 138240, Tempo, 429646
1, 138240, Note_on_c, 0, 72, 0
1, 138240, Note_on_c, 0, 89, 0
1, 138240, Note_on_c, 0, 84, 64
1, 138240, Note_on_c, 0, 64, 40
1, 138240, Control_c, 0, 64, 0
1, 138297, Control_c, 0, 64, 127
1, 138480, Note_on_c, 0, 64, 0
1, 138480, Note_on_c, 0, 72, 32
1, 138720, Note_on_c, 0, 72, 0
1, 138720, Note_on_c, 0, 84, 0
1, 138720, Note_on_c, 0, 82, 55
1, 138720, Note_on_c, 0, 67, 32
1, 138800, Note_on_c, 0, 82, 0
1, 138800, Note_on_c, 0, 84, 55
1, 138880, Note_on_c, 0, 84, 0
1, 138880, Note_on_c, 0, 82, 55
1, 138960, Note_on_c, 0, 82, 0
1, 138960, Note_on_c, 0, 67, 0
1, 138960, Note_on_c, 0, 81, 59
1, 138960, Note_on_c, 0, 72, 32
1, 139080, Note_on_c, 0, 81, 0
1, 139080, Note_on_c, 0, 82, 55
1, 139200, Note_on_c, 0, 82, 0
1, 139200, Note_on_c, 0, 72, 0
1, 139200, Note_on_c, 0, 81, 60
1, 139200, Note_on_c, 0, 65, 40
1, 139211, Control_c, 0, 64, 0
1, 139288, Control_c, 0, 64, 127
1, 139440, Note_on_c, 0, 65, 0
1, 139440, Note_on_c, 0, 72, 34
1, 139680, Note_on_c, 0, 72, 0
1, 139680, Note_on_c, 0, 81, 0
1, 139680, Note_on_c, 0, 69, 34
1, 139920, Note_on_c, 0, 69, 0
1, 139920, Note_on_c, 0, 72, 34
1, 140000, Tempo, 451637
1, 140160, Tempo, 442217
1, 140160, Note_on_c, 0, 72, 0
1, 140160, Note_on_c, 0, 74, 60
1, 140160, Note_on_c, 0, 70, 40
1, 140206, Control_c, 0, 64, 0
1, 140275, Tempo, 440399
1, 140390, Tempo, 438564
1, 140400, Note_on_c, 0, 74, 0
1, 140400, Note_on_c, 0, 76, 53
1, 140506, Tempo, 436745
1, 140520, Note_on_c, 0, 77, 54
1, 140532, Note_on_c, 0, 76, 0
1, 140621, Tempo, 434940
1, 140640, Note_on_c, 0, 70, 0
1, 140640, Note_on_c, 0, 79, 55
1, 140652, Note_on_c, 0, 77, 0
1, 140736, Tempo, 433182
1, 140760, Note_on_c, 0, 81, 57
1, 140772, Note_on_c, 0, 79, 0
1, 140851, Tempo, 431406
1, 140880, Note_on_c, 0, 82, 58
1, 140892, Note_on_c, 0, 81, 0
1, 140966, Tempo, 429646
1, 141000, Note_on_c, 0, 84, 59
1, 141012, Note_on_c, 0, 82, 0
1, 141082, Tempo, 427899
1, 141120, Tempo, 426197
1, 141120, Note_on_c, 0, 86, 62
1, 141132, Note_on_c, 0, 84, 0
1, 141216, Tempo, 427899
1, 141240, Note_on_c, 0, 84, 61
1, 141252, Note_on_c, 0, 86, 0
1, 141312, Tempo, 429646
1, 141360, Note_on_c, 0, 82, 60
1, 141372, Note_on_c, 0, 84, 0
1, 141389, Tempo, 431406
1, 141480, Note_on_c, 0, 81, 59
1, 141485, Tempo, 433182
1, 141492, Note_on_c, 0, 82, 0
1, 141581, Tempo, 434940
1, 141600, Note_on_c, 0, 79, 58
1, 141600, Note_on_c, 0, 58, 40
1, 141600, Note_on_c, 0, 65, 40
1, 141612, Note_on_c, 0, 81, 0
1, 141658, Tempo, 436745
1, 141720, Note_on_c, 0, 77, 57
1, 141732, Note_on_c, 0, 79, 0
1, 141754, Tempo, 438564
1, 141840, Note_on_c, 0, 76, 55
1, 141850, Tempo, 440399
1, 141852, Note_on_c, 0, 77, 0
1, 141926, Tempo, 442217
1, 141960, Note_on_c, 0, 74, 53
1, 141972, Note_on_c, 0, 76, 0
1, 142061, Tempo, 438564
1, 142080, Note_on_c, 0, 65, 0
1, 142080, Note_on_c, 0, 58, 0
1, 142080, Note_on_c, 0, 72, 60
1, 142080, Note_on_c, 0, 57, 40
1, 142080, Note_on_c, 0, 65, 40
1, 142080, Control_c, 0, 64, 0
1, 142092, Note_on_c, 0, 74, 0
1, 142234, Tempo, 436745
1, 142320, Note_on_c, 0, 72, 0
1, 142320, Note_on_c, 0, 74, 53
1, 142387, Tempo, 434940
1, 142440, Note_on_c, 0, 76, 54
1, 142452, Note_on_c, 0, 74, 0
1, 142560, Tempo, 433182
1, 142560, Note_on_c, 0, 65, 0
1, 142560, Note_on_c, 0, 57, 0
1, 142560, Note_on_c, 0, 77, 55
1, 142572, Note_on_c, 0, 76, 0
1, 142680, Note_on_c, 0, 79, 57
1, 142692, Note_on_c, 0, 77, 0
1, 142714, Tempo, 431406
1, 142800, Note_on_c, 0, 81, 58
1, 142812, Note_on_c, 0, 79, 0
1, 142886, Tempo, 429646
1, 142920, Note_on_c, 0, 82, 59
1, 142932, Note_on_c, 0, 81, 0
1, 143002, Tempo, 426197
1, 143040, Note_on_c, 0, 84, 62
1, 143052, Note_on_c, 0, 82, 0
1, 143078, Tempo, 427899
1, 143155, Tempo, 429646
1, 143160, Note_on_c, 0, 82, 61
1, 143172, Note_on_c, 0, 84, 0
1, 143232, Tempo, 431406
1, 143280, Note_on_c, 0, 81, 60
1, 143292, Note_on_c, 0, 82, 0
1, 143309, Tempo, 433182
1, 143386, Tempo, 434940
1, 143400, Note_on_c, 0, 79, 59
1, 143412, Note_on_c, 0, 81, 0
1, 143443, Tempo, 436745
1, 143520, Tempo, 438564
1, 143520, Note_on_c, 0, 77, 58
1, 143520, Note_on_c, 0, 57, 40
1, 143520, Note_on_c, 0, 65, 40
1, 143532, Note_on_c, 0, 79, 0
1, 143597, Tempo, 440399
1, 143640, Note_on_c, 0, 76, 57
1, 143652, Note_on_c, 0, 77, 0
1, 143674, Tempo, 442217
1, 143750, Tempo, 444050
1, 143760, Note_on_c, 0, 74, 55
1, 143772, Note_on_c, 0, 76, 0
1, 143808, Tempo, 445931
1, 143880, Note_on_c, 0, 72, 53
1, 143892, Note_on_c, 0, 74, 0
1, 143962, Tempo, 436745
1, 144000, Note_on_c, 0, 65, 0
1, 144000, Note_on_c, 0, 57, 0
1, 144000, Note_on_c, 0, 70, 60
1, 144000, Note_on_c, 0, 55, 40
1, 144000, Note_on_c, 0, 65, 40
1, 144000, Control_c, 0, 64, 0
1, 144012, Note_on_c, 0, 72, 0
1, 144134, Tempo, 434940
1, 144240, Note_on_c, 0, 70, 0
1, 144240, Note_on_c, 0, 72, 53
1, 144288, Tempo, 433182
1, 144360, Note_on_c, 0, 74, 54
1, 144372, Note_on_c, 0, 72, 0
1, 144442, Tempo, 431406
1, 144480, Note_on_c, 0, 65, 0
1, 144480, Note_on_c, 0, 55, 0
1, 144480, Note_on_c, 0, 76, 55
1, 144492, Note_on_c, 0, 74, 0
1, 144600, Note_on_c, 0, 77, 57
1, 144612, Note_on_c, 0, 76, 0
1, 144614, Tempo, 429646
1, 144720, Note_on_c, 0, 79, 58
1, 144732, Note_on_c, 0, 77, 0
1, 144768, Tempo, 427899
1, 144840, Note_on_c, 0, 81, 59
1, 144852, Note_on_c, 0, 79, 0
1, 144902, Tempo, 424508
1, 144960, Note_on_c, 0, 82, 62
1, 144972, Note_on_c, 0, 81, 0
1, 144979, Tempo, 426197
1, 145056, Tempo, 427899
1, 145080, Note_on_c, 0, 81, 61
1, 145092, Note_on_c, 0, 82, 0
1, 145133, Tempo, 429646
1, 145200, Note_on_c, 0, 79, 60
1, 145210, Tempo, 431406
1, 145212, Note_on_c, 0, 81, 0
1, 145286, Tempo, 433182
1, 145320, Note_on_c, 0, 77, 59
1, 145332, Note_on_c, 0, 79, 0
1, 145344, Tempo, 434940
1, 145421, Tempo, 436745
1, 145440, Note_on_c, 0, 76, 58
1, 145440, Note_on_c, 0, 55, 40
1, 145440, Note_on_c, 0, 64, 40
1, 145452, Note_on_c, 0, 77, 0
1, 145498, Tempo, 438564
1, 145560, Note_on_c, 0, 74, 57
1, 145572, Note_on_c, 0, 76, 0
1, 145574, Tempo, 440399
1, 145651, Tempo, 442217
1, 145680, Note_on_c, 0, 72, 55
1, 145692, Note_on_c, 0, 74, 0
1, 145709, Tempo, 444050
1, 145800, Note_on_c, 0, 70, 53
1, 145812, Note_on_c, 0, 72, 0
1, 145920, Note_on_c, 0, 64, 0
1, 145920, Note_on_c, 0, 55, 0
1, 145920, Note_on_c, 0, 69, 60
1, 145920, Note_on_c, 0, 53, 40
1, 145920, Note_on_c, 0, 65, 40
1, 145920, Control_c, 0, 64, 0
1, 145932, Note_on_c, 0, 70, 0
1, 145939, Tempo, 444050
1, 146054, Tempo, 442217
1, 146160, Note_on_c, 0, 69, 0
1, 146160, Note_on_c, 0, 70, 53
1, 146170, Tempo, 440399
1, 146266, Tempo, 438564
1, 146280, Note_on_c, 0, 72, 54
1, 146292, Note_on_c, 0, 70, 0
1, 146381, Tempo, 436745
1, 146400, Note_on_c, 0, 65, 0
1, 146400, Note_on_c, 0, 53, 0
1, 146400, Note_on_c, 0, 74, 55
1, 146412, Note_on_c, 0, 72, 0
1, 146477, Tempo, 434940
1, 146520, Note_on_c, 0, 76, 57
1, 146532, Note_on_c, 0, 74, 0
1, 146592, Tempo, 433182
1, 146640, Note_on_c, 0, 77, 58
1, 146652, Note_on_c, 0, 76, 0
1, 146688, Tempo, 431406
1, 146760, Note_on_c, 0, 79, 59
1, 146772, Note_on_c, 0, 77, 0
1, 146803, Tempo, 429646
1, 146880, Tempo, 427899
1, 146880, Note_on_c, 0, 81, 62
1, 146892, Note_on_c, 0, 79, 0
1, 146976, Tempo, 429646
1, 147000, Note_on_c, 0, 79, 61
1, 147012, Note_on_c, 0, 81, 0
1, 147053, Tempo, 431406
1, 147120, Note_on_c, 0, 77, 60
1, 147130, Tempo, 433182
1, 147132, Note_on_c, 0, 79, 0
1, 147206, Tempo, 434940
1, 147240, Note_on_c, 0, 76, 59
1, 147252, Note_on_c, 0, 77, 0
1, 147283, Tempo, 436745
1, 147360, Tempo, 438564
1, 147360, Note_on_c, 0, 74, 58
1, 147372, Note_on_c, 0, 76, 0
1, 147437, Tempo, 440399
1, 147480, Note_on_c, 0, 72, 57
1, 147492, Note_on_c, 0, 74, 0
1, 147514, Tempo, 442217
1, 147590, Tempo, 444050
1, 147600, Note_on_c, 0, 70, 55
1, 147612, Note_on_c, 0, 72, 0
1, 147667, Tempo, 445931
1, 147720, Tempo, 478736
1, 147720, Note_on_c, 0, 69, 53
1, 147732, Note_on_c, 0, 70, 0
1, 147821, Tempo, 442217
1, 147840, Tempo, 442217
1, 147840, Note_on_c, 0, 81, 61
1, 147840, Note_on_c, 0, 53, 48
1, 147852, Note_on_c, 0, 69, 0
1, 147955, Tempo, 440399
1, 148070, Tempo, 438564
1, 148080, Note_on_c, 0, 53, 0
1, 148080, Note_on_c, 0, 55, 42
1, 148186, Tempo, 436745
1, 148200, Note_on_c, 0, 57, 42
1, 148212, Note_on_c, 0, 55, 0
1, 148301, Tempo, 434940
1, 148320, Note_on_c, 0, 81, 0
1, 148320, Note_on_c, 0, 58, 43
1, 148332, Note_on_c, 0, 57, 0
1, 148416, Tempo, 433182
1, 148440, Note_on_c, 0, 60, 45
1, 148452, Note_on_c, 0, 58, 0
1, 148531, Tempo, 431406
1, 148560, Note_on_c, 0, 62, 46
1, 148572, Note_on_c, 0, 60, 0
1, 148646, Tempo, 429646
1, 148680, Note_on_c, 0, 64, 47
1, 148692, Note_on_c, 0, 62, 0
1, 148762, Tempo, 427899
1, 148800, Tempo, 426197
1, 148800, Note_on_c, 0, 65, 49
1, 148812, Note_on_c, 0, 64, 0
1, 148896, Tempo, 427899
1, 148920, Note_on_c, 0, 64, 48
1, 148932, Note_on_c, 0, 65, 0
1, 148992, Tempo, 429646
1, 149040, Note_on_c, 0, 62, 48
1, 149052, Note_on_c, 0, 64, 0
1, 149069, Tempo, 431406
1, 149160, Note_on_c, 0, 60, 47
1, 149165, Tempo, 433182
1, 149172, Note_on_c, 0, 62, 0
1, 149261, Tempo, 434940
1, 149280, Note_on_c, 0, 72, 56
1, 149280, Note_on_c, 0, 81, 56
1, 149280, Note_on_c, 0, 58, 46
1, 149292, Note_on_c, 0, 60, 0
1, 149338, Tempo, 436745
1, 149400, Note_on_c, 0, 57, 45
1, 149412, Note_on_c, 0, 58, 0
1, 149434, Tempo, 438564
1, 149520, Note_on_c, 0, 55, 43
1, 149530, Tempo, 440399
1, 149532, Note_on_c, 0, 57, 0
1, 149606, Tempo, 442217
1, 149640, Note_on_c, 0, 53, 42
1, 149652, Note_on_c, 0, 55, 0
1, 149741, Tempo, 438564
1, 149760, Note_on_c, 0, 72, 0
1, 149760, Note_on_c, 0, 81, 0
1, 149760, Note_on_c, 0, 72, 56
1, 149760, Note_on_c, 0, 79, 56
1, 149760, Note_on_c, 0, 52, 48
1, 149772, Note_on_c, 0, 53, 0
1, 149914, Tempo, 436745
1, 150000, Note_on_c, 0, 52, 0
1, 150000, Note_on_c, 0, 53, 42
1, 150067, Tempo, 434940
1, 150120, Note_on_c, 0, 55, 42
1, 150132, Note_on_c, 0, 53, 0
1, 150240, Tempo, 433182
1, 150240, Note_on_c, 0, 72, 0
1, 150240, Note_on_c, 0, 79, 0
1, 150240, Note_on_c, 0, 57, 43
1, 150252, Note_on_c, 0, 55, 0
1, 150360, Note_on_c, 0, 59, 45
1, 150372, Note_on_c, 0, 57, 0
1, 150394, Tempo, 431406
1, 150480, Note_on_c, 0, 60, 46
1, 150492, Note_on_c, 0, 59, 0
1, 150566, Tempo, 429646
1, 150600, Note_on_c, 0, 62, 47
1, 150612, Note_on_c, 0, 60, 0
1, 150682, Tempo, 426197
1, 150720, Note_on_c, 0, 64, 49
1, 150732, Note_on_c, 0, 62, 0
1, 150758, Tempo, 427899
1, 150835, Tempo, 429646
1, 150840, Note_on_c, 0, 62, 48
1, 150852, Note_on_c, 0, 64, 0
1, 150912, Tempo, 431406
1, 150960, Note_on_c, 0, 60, 48
1, 150972, Note_on_c, 0, 62, 0
1, 150989, Tempo, 433182
1, 151066, Tempo, 434940
1, 151080, Note_on_c, 0, 59, 47
1, 151092, Note_on_c, 0, 60, 0
1, 151123, Tempo, 436745
1, 151200, Tempo, 438564
1, 151200, Note_on_c, 0, 72, 56
1, 151200, Note_on_c, 0, 79, 56
1, 151200, Note_on_c, 0, 57, 46
1, 151212, Note_on_c, 0, 59, 0
1, 151277, Tempo, 440399
1, 151320, Note_on_c, 0, 55, 45
1, 151332, Note_on_c, 0, 57, 0
1, 151354, Tempo, 442217
1, 151430, Tempo, 444050
1, 151440, Note_on_c, 0, 53, 43
1, 151452, Note_on_c, 0, 55, 0
1, 151488, Tempo, 445931
1, 151560, Note_on_c, 0, 52, 42
1, 151572, Note_on_c, 0, 53, 0
1, 151642, Tempo, 436745
1, 151680, Note_on_c, 0, 72, 0
1, 151680, Note_on_c, 0, 79, 0
1, 151680, Note_on_c, 0, 72, 56
1, 151680, Note_on_c, 0, 77, 56
1, 151680, Note_on_c, 0, 50, 48
1, 151692, Note_on_c, 0, 52, 0
1, 151814, Tempo, 434940
1, 151920, Note_on_c, 0, 50, 0
1, 151920, Note_on_c, 0, 52, 42
1, 151968, Tempo, 433182
1, 152040, Note_on_c, 0, 53, 42
1, 152052, Note_on_c, 0, 52, 0
1, 152122, Tempo, 431406
1, 152160, Note_on_c, 0, 72, 0
1, 152160, Note_on_c, 0, 77, 0
1, 152160, Note_on_c, 0, 55, 43
1, 152172, Note_on_c, 0, 53, 0
1, 152280, Note_on_c, 0, 57, 45
1, 152292, Note_on_c, 0, 55, 0
1, 152294, Tempo, 429646
1, 152400, Note_on_c, 0, 59, 46
1, 152412, Note_on_c, 0, 57, 0
1, 152448, Tempo, 427899
1, 152520, Note_on_c, 0, 60, 47
1, 152532, Note_on_c, 0, 59, 0
1, 152582, Tempo, 424508
1, 152640, Note_on_c, 0, 62, 49
1, 152652, Note_on_c, 0, 60, 0
1, 152659, Tempo, 426197
1, 152736, Tempo, 427899
1, 152760, Note_on_c, 0, 60, 48
1, 152772, Note_on_c, 0, 62, 0
1, 152813, Tempo, 429646
1, 152880, Note_on_c, 0, 59, 48
1, 152890, Tempo, 431406
1, 152892, Note_on_c, 0, 60, 0
1, 152966, Tempo, 433182
1, 153000, Note_on_c, 0, 57, 47
1, 153012, Note_on_c, 0, 59, 0
1, 153024, Tempo, 434940
1, 153101, Tempo, 436745
1, 153120, Note_on_c, 0, 71, 56
1, 153120, Note_on_c, 0, 77, 56
1, 153120, Note_on_c, 0, 55, 46
1, 153132, Note_on_c, 0, 57, 0
1, 153178, Tempo, 438564
1, 153240, Note_on_c, 0, 53, 45
1, 153252, Note_on_c, 0, 55, 0
1, 153254, Tempo, 440399
1, 153331, Tempo, 442217
1, 153360, Note_on_c, 0, 52, 43
1, 153372, Note_on_c, 0, 53, 0
1, 153389, Tempo, 444050
1, 153480, Note_on_c, 0, 50, 42
1, 153492, Note_on_c, 0, 52, 0
1, 153600, Note_on_c, 0, 71, 0
1, 153600, Note_on_c, 0, 77, 0
1, 153600, Note_on_c, 0, 72, 56
1, 153600, Note_on_c, 0, 76, 56
1, 153600, Note_on_c, 0, 48, 48
1, 153612, Note_on_c, 0, 50, 0
1, 153619, Tempo, 444050
1, 153734, Tempo, 442217
1, 153840, Note_on_c, 0, 48, 0
1, 153840, Note_on_c, 0, 50, 42
1, 153850, Tempo, 440399
1, 153946, Tempo, 438564
1, 153960, Note_on_c, 0, 52, 42
1, 153972, Note_on_c, 0, 50, 0
1, 154061, Tempo, 436745
1, 154080, Note_on_c, 0, 72, 0
1, 154080, Note_on_c, 0, 76, 0
1, 154080, Note_on_c, 0, 53, 43
1, 154092, Note_on_c, 0, 52, 0
1, 154157, Tempo, 434940
1, 154200, Note_on_c, 0, 55, 45
1, 154212, Note_on_c, 0, 53, 0
1, 154272, Tempo, 433182
1, 154320, Note_on_c, 0, 57, 46
1, 154332, Note_on_c, 0, 55, 0
1, 154368, Tempo, 431406
1, 154440, Note_on_c, 0, 59, 47
1, 154452, Note_on_c, 0, 57, 0
1, 154483, Tempo, 429646
1, 154560, Tempo, 427899
1, 154560, Note_on_c, 0, 60, 49
1, 154572, Note_on_c, 0, 59, 0
1, 154656, Tempo, 429646
1, 154680, Note_on_c, 0, 59, 48
1, 154692, Note_on_c, 0, 60, 0
1, 154733, Tempo, 431406
1, 154800, Note_on_c, 0, 57, 48
1, 154810, Tempo, 433182
1, 154812, Note_on_c, 0, 59, 0
1, 154886, Tempo, 434940
1, 154920, Note_on_c, 0, 55, 47
1, 154932, Note_on_c, 0, 57, 0
1, 154963, Tempo, 436745
1, 155040, Tempo, 438564
1, 155040, Note_on_c, 0, 72, 56
1, 155040, Note_on_c, 0, 76, 56
1, 155040, Note_on_c, 0, 53, 46
1, 155052, Note_on_c, 0, 55, 0
1, 155117, Tempo, 440399
1, 155160, Note_on_c, 0, 52, 45
1, 155172, Note_on_c, 0, 53, 0
1, 155194, Tempo, 442217
1, 155270, Tempo, 444050
1, 155280, Note_on_c, 0, 50, 43
1, 155292, Note_on_c, 0, 52, 0
1, 155347, Tempo, 445931
1, 155400, Note_on_c, 0, 48, 42
1, 155412, Note_on_c, 0, 50, 0
1, 155501, Tempo, 442217
1, 155520, Tempo, 442217
1, 155520, Note_on_c, 0, 72, 0
1, 155520, Note_on_c, 0, 76, 0
1, 155520, Note_on_c, 0, 74, 60
1, 155520, Note_on_c, 0, 53, 38
1, 155520, Note_on_c, 0, 57, 38
1, 155520, Control_c, 0, 64, 0
1, 155532, Note_on_c, 0, 48, 0
1, 155640, Note_on_c, 0, 74, 0
1, 155640, Note_on_c, 0, 62, 53
1, 155674, Tempo, 440399
1, 155760, Note_on_c, 0, 64, 53
1, 155772, Note_on_c, 0, 62, 0
1, 155827, Tempo, 438564
1, 155880, Note_on_c, 0, 65, 54
1, 155892, Note_on_c, 0, 64, 0
1, 156000, Tempo, 436745
1, 156000, Note_on_c, 0, 67, 55
1, 156012, Note_on_c, 0, 65, 0
1, 156120, Note_on_c, 0, 69, 57
1, 156132, Note_on_c, 0, 67, 0
1, 156154, Tempo, 434940
1, 156240, Note_on_c, 0, 71, 58
1, 156252, Note_on_c, 0, 69, 0
1, 156307, Tempo, 433182
1, 156360, Note_on_c, 0, 73, 59
1, 156372, Note_on_c, 0, 71, 0
1, 156480, Tempo, 457526
1, 156480, Note_on_c, 0, 74, 62
1, 156492, Note_on_c, 0, 73, 0
1, 156600, Note_on_c, 0, 74, 0
1, 156600, Note_on_c, 0, 69, 58
1, 156640, Tempo, 433182
1, 156720, Note_on_c, 0, 71, 61
1, 156732, Note_on_c, 0, 69, 0
1, 156840, Note_on_c, 0, 73, 64
1, 156852, Note_on_c, 0, 71, 0
1, 156960, Note_on_c, 0, 74, 66
1, 156972, Note_on_c, 0, 73, 0
1, 157080, Note_on_c, 0, 76, 67
1, 157092, Note_on_c, 0, 74, 0
1, 157200, Note_on_c, 0, 77, 68
1, 157212, Note_on_c, 0, 76, 0
1, 157280, Tempo, 441956
1, 157320, Note_on_c, 0, 79, 69
1, 157332, Note_on_c, 0, 77, 0
1, 157440, Tempo, 428878
1, 157440, Note_on_c, 0, 57, 0
1, 157440, Note_on_c, 0, 53, 0
1, 157440, Note_on_c, 0, 81, 70
1, 157440, Note_on_c, 0, 53, 60
1, 157440, Control_c, 0, 64, 0
1, 157452, Note_on_c, 0, 79, 0
1, 157560, Note_on_c, 0, 83, 69
1, 157572, Note_on_c, 0, 81, 0
1, 157680, Note_on_c, 0, 84, 71
1, 157692, Note_on_c, 0, 83, 0
1, 157800, Note_on_c, 0, 83, 69
1, 157812, Note_on_c, 0, 84, 0
1, 157920, Note_on_c, 0, 81, 67
1, 157932, Note_on_c, 0, 83, 0
1, 158040, Note_on_c, 0, 79, 65
1, 158052, Note_on_c, 0, 81, 0
1, 158160, Note_on_c, 0, 53, 0
1, 158160, Note_on_c, 0, 77, 63
1, 158160, Note_on_c, 0, 55, 55
1, 158172, Note_on_c, 0, 79, 0
1, 158240, Tempo, 443656
1, 158280, Note_on_c, 0, 76, 66
1, 158292, Note_on_c, 0, 77, 0
1, 158400, Tempo, 425743
1, 158400, Note_on_c, 0, 76, 0
1, 158400, Note_on_c, 0, 55, 0
1, 158400, Note_on_c, 0, 77, 65
1, 158400, Note_on_c, 0, 57, 60
1, 158520, Note_on_c, 0, 79, 66
1, 158532, Note_on_c, 0, 77, 0
1, 158640, Note_on_c, 0, 81, 67
1, 158652, Note_on_c, 0, 79, 0
1, 158760, Note_on_c, 0, 79, 67
1, 158772, Note_on_c, 0, 81, 0
1, 158880, Note_on_c, 0, 77, 68
1, 158892, Note_on_c, 0, 79, 0
1, 159000, Note_on_c, 0, 76, 71
1, 159012, Note_on_c, 0, 77, 0
1, 159120, Note_on_c, 0, 57, 0
1, 159120, Note_on_c, 0, 74, 73
1, 159120, Note_on_c, 0, 54, 54
1, 159132, Note_on_c, 0, 76, 0
1, 159200, Tempo, 455546
1, 159240, Note_on_c, 0, 72, 76
1, 159252, Note_on_c, 0, 74, 0
1, 159360, Tempo, 432090
1, 159360, Note_on_c, 0, 54, 0
1, 159360, Note_on_c, 0, 71, 78
1, 159360, Note_on_c, 0, 43, 65
1, 159360, Control_c, 0, 64, 127
1, 159372, Note_on_c, 0, 72, 0
1, 159480, Note_on_c, 0, 43, 0
1, 159480, Note_on_c, 0, 71, 0
1, 159480, Note_on_c, 0, 47, 56
1, 159600, Tempo, 430046
1, 159600, Note_on_c, 0, 47, 0
1, 159600, Note_on_c, 0, 79, 71
1, 159600, Note_on_c, 0, 50, 56
1, 159720, Note_on_c, 0, 50, 0
1, 159720, Note_on_c, 0, 79, 0
1, 159720, Note_on_c, 0, 55, 50
1, 159840, Note_on_c, 0, 55, 0
1, 159840, Note_on_c, 0, 76, 71
1, 159840, Note_on_c, 0, 43, 65
1, 159852, Control_c, 0, 64, 0
1, 159939, Control_c, 0, 64, 127
1, 159960, Note_on_c, 0, 43, 0
1, 159960, Note_on_c, 0, 76, 0
1, 159960, Note_on_c, 0, 48, 55
1, 160080, Note_on_c, 0, 48, 0
1, 160080, Note_on_c, 0, 72, 71
1, 160080, Note_on_c, 0, 52, 55
1, 160160, Tempo, 447828
1, 160200, Note_on_c, 0, 52, 0
1, 160200, Note_on_c, 0, 72, 0
1, 160200, Note_on_c, 0, 55, 50
1, 160320, Tempo, 432090
1, 160320, Note_on_c, 0, 55, 0
1, 160320, Note_on_c, 0, 74, 78
1, 160320, Note_on_c, 0, 43, 65
1, 160331, Control_c, 0, 64, 0
1, 160389, Control_c, 0, 64, 127
1, 160440, Note_on_c, 0, 43, 0
1, 160440, Note_on_c, 0, 74, 0
1, 160440, Note_on_c, 0, 47, 55
1, 160560, Tempo, 431624
1, 160560, Note_on_c, 0, 47, 0
1, 160560, Note_on_c, 0, 79, 71
1, 160560, Note_on_c, 0, 50, 55
1, 160680, Note_on_c, 0, 50, 0
1, 160680, Note_on_c, 0, 79, 0
1, 160680, Note_on_c, 0, 55, 54
1, 160800, Note_on_c, 0, 55, 0
1, 160800, Note_on_c, 0, 76, 71
1, 160800, Note_on_c, 0, 43, 65
1, 160810, Control_c, 0, 64, 0
1, 160920, Note_on_c, 0, 43, 0
1, 160920, Note_on_c, 0, 76, 0
1, 160920, Note_on_c, 0, 48, 57
1, 160934, Control_c, 0, 64, 127
1, 161040, Note_on_c, 0, 48, 0
1, 161040, Note_on_c, 0, 72, 71
1, 161040, Note_on_c, 0, 52, 56
1, 161120, Tempo, 445931
1, 161160, Note_on_c, 0, 52, 0
1, 161160, Note_on_c, 0, 72, 0
1, 161160, Note_on_c, 0, 55, 53
1, 161280, Tempo, 474496
1, 161280, Note_on_c, 0, 55, 0
1, 161280, Note_on_c, 0, 74, 81
1, 161280, Note_on_c, 0, 43, 65
1, 161285, Control_c, 0, 64, 0
1, 161400, Note_on_c, 0, 43, 0
1, 161400, Note_on_c, 0, 74, 0
1, 161760, Tempo, 483832
1, 161760, Note_on_c, 0, 74, 71
1, 161760, Note_on_c, 0, 79, 71
1, 161760, Note_on_c, 0, 71, 71
1, 161760, Note_on_c, 0, 55, 59
1, 161880, Note_on_c, 0, 55, 0
1, 161880, Note_on_c, 0, 74, 0
1, 161880, Note_on_c, 0, 79, 0
1, 161880, Note_on_c, 0, 71, 0
1, 162240, Note_on_c, 0, 67, 83
1, 162240, Note_on_c, 0, 43, 61
1, 162353, Control_c, 0, 64, 127
1, 162678, Control_c, 0, 64, 0
1, 162720, Tempo, 453583
1, 162720, Note_on_c, 0, 43, 0
1, 162720, Note_on_c, 0, 67, 0
1, 163200, Tempo, 433244
1, 163200, Note_on_c, 0, 66, 42
1, 163300, Tempo, 434877
1, 163320, Note_on_c, 0, 67, 36
1, 163332, Note_on_c, 0, 66, 0
1, 163405, Tempo, 428449
1, 163440, Note_on_c, 0, 67, 0
1, 163440, Note_on_c, 0, 66, 42
1, 163495, Tempo, 431624
1, 163560, Note_on_c, 0, 67, 36
1, 163572, Note_on_c, 0, 66, 0
1, 163615, Tempo, 430046
1, 163675, Tempo, 431624
1, 163680, Note_on_c, 0, 67, 0
1, 163680, Note_on_c, 0, 66, 42
1, 163765, Tempo, 430046
1, 163800, Note_on_c, 0, 67, 38
1, 163812, Note_on_c, 0, 66, 0
1, 163885, Tempo, 431624
1, 163920, Note_on_c, 0, 67, 0
1, 163920, Note_on_c, 0, 66, 42
1, 163945, Tempo, 428449
1, 164040, Tempo, 453583
1, 164040, Note_on_c, 0, 67, 37
1, 164052, Note_on_c, 0, 66, 0
1, 164160, Tempo, 431624
1, 164160, Note_on_c, 0, 67, 0
1, 164160, Note_on_c, 0, 65, 42
1, 164275, Tempo, 433244
1, 164280, Note_on_c, 0, 67, 36
1, 164292, Note_on_c, 0, 65, 0
1, 164365, Tempo, 428449
1, 164400, Note_on_c, 0, 67, 0
1, 164400, Note_on_c, 0, 65, 42
1, 164455, Tempo, 431624
1, 164520, Note_on_c, 0, 67, 37
1, 164532, Note_on_c, 0, 65, 0
1, 164640, Note_on_c, 0, 67, 0
1, 164640, Note_on_c, 0, 65, 42
1, 164650, Tempo, 428449
1, 164740, Tempo, 433244
1, 164760, Note_on_c, 0, 67, 37
1, 164772, Note_on_c, 0, 65, 0
1, 164875, Tempo, 430046
1, 164880, Note_on_c, 0, 67, 0
1, 164880, Note_on_c, 0, 65, 42
1, 165000, Tempo, 457143
1, 165000, Note_on_c, 0, 67, 38
1, 165012, Note_on_c, 0, 65, 0
1, 165120, Tempo, 434877
1, 165120, Note_on_c, 0, 67, 0
1, 165120, Note_on_c, 0, 79, 61
1, 165120, Note_on_c, 0, 64, 42
1, 165186, Control_c, 0, 64, 127
1, 165240, Note_on_c, 0, 64, 0
1, 165240, Note_on_c, 0, 67, 36
1, 165360, Tempo, 438148
1, 165360, Note_on_c, 0, 67, 0
1, 165360, Note_on_c, 0, 79, 0
1, 165360, Note_on_c, 0, 76, 55
1, 165360, Note_on_c, 0, 64, 42
1, 165480, Note_on_c, 0, 64, 0
1, 165480, Note_on_c, 0, 67, 36
1, 165600, Note_on_c, 0, 67, 0
1, 165600, Note_on_c, 0, 76, 0
1, 165600, Note_on_c, 0, 72, 61
1, 165600, Note_on_c, 0, 64, 42
1, 165720, Note_on_c, 0, 64, 0
1, 165720, Note_on_c, 0, 67, 32
1, 165840, Note_on_c, 0, 67, 0
1, 165840, Note_on_c, 0, 64, 38
1, 165960, Note_on_c, 0, 64, 0
1, 165960, Note_on_c, 0, 67, 33
1, 166080, Tempo, 434877
1, 166080, Note_on_c, 0, 67, 0
1, 166080, Note_on_c, 0, 64, 39
1, 166080, Control_c, 0, 64, 0
1, 166200, Note_on_c, 0, 64, 0
1, 166200, Note_on_c, 0, 67, 32
1, 166320, Tempo, 438148
1, 166320, Note_on_c, 0, 67, 0
1, 166320, Note_on_c, 0, 72, 0
1, 166320, Note_on_c, 0, 74, 53
1, 166320, Note_on_c, 0, 64, 39
1, 166440, Note_on_c, 0, 64, 0
1, 166440, Note_on_c, 0, 74, 0
1, 166440, Note_on_c, 0, 76, 51
1, 166440, Note_on_c, 0, 67, 34
1, 166560, Note_on_c, 0, 67, 0
1, 166560, Note_on_c, 0, 76, 0
1, 166560, Note_on_c, 0, 74, 55
1, 166560, Note_on_c, 0, 64, 42
1, 166680, Note_on_c, 0, 64, 0
1, 166680, Note_on_c, 0, 67, 37
1, 166800, Note_on_c, 0, 67, 0
1, 166800, Note_on_c, 0, 74, 0
1, 166800, Note_on_c, 0, 72, 53
1, 166800, Note_on_c, 0, 64, 42
1, 166920, Note_on_c, 0, 64, 0
1, 166920, Note_on_c, 0, 72, 0
1, 166920, Note_on_c, 0, 67, 38
1, 167040, Tempo, 441501
1, 167040, Note_on_c, 0, 67, 0
1, 167040, Note_on_c, 0, 72, 55
1, 167040, Note_on_c, 0, 65, 46
1, 167075, Control_c, 0, 64, 127
1, 167100, Note_on_c, 0, 72, 0
1, 167100, Note_on_c, 0, 74, 51
1, 167160, Note_on_c, 0, 74, 0
1, 167160, Note_on_c, 0, 65, 0
1, 167160, Note_on_c, 0, 72, 56
1, 167160, Note_on_c, 0, 67, 38
1, 167220, Note_on_c, 0, 72, 0
1, 167220, Note_on_c, 0, 74, 51
1, 167280, Note_on_c, 0, 74, 0
1, 167280, Note_on_c, 0, 67, 0
1, 167280, Note_on_c, 0, 72, 58
1, 167280, Note_on_c, 0, 64, 42
1, 167284, Control_c, 0, 64, 0
1, 167312, Control_c, 0, 64, 127
1, 167400, Note_on_c, 0, 64, 0
1, 167400, Note_on_c, 0, 72, 0
1, 167400, Note_on_c, 0, 71, 52
1, 167400, Note_on_c, 0, 67, 36
1, 167510, Note_on_c, 0, 71, 0
1, 167520, Tempo, 436491
1, 167520, Note_on_c, 0, 67, 0
1, 167520, Note_on_c, 0, 71, 58
1, 167520, Note_on_c, 0, 62, 39
1, 167523, Control_c, 0, 64, 0
1, 167640, Note_on_c, 0, 67, 27
1, 167652, Note_on_c, 0, 62, 0
1, 167760, Note_on_c, 0, 67, 0
1, 167760, Note_on_c, 0, 64, 47
1, 167880, Note_on_c, 0, 67, 35
1, 167892, Note_on_c, 0, 64, 0
1, 168000, Note_on_c, 0, 67, 0
1, 168000, Note_on_c, 0, 71, 0
1, 168000, Note_on_c, 0, 65, 50
1, 168120, Note_on_c, 0, 67, 36
1, 168132, Note_on_c, 0, 65, 0
1, 168240, Note_on_c, 0, 67, 0
1, 168240, Note_on_c, 0, 64, 44
1, 168360, Note_on_c, 0, 67, 30
1, 168372, Note_on_c, 0, 64, 0
1, 168480, Tempo, 439818
1, 168480, Note_on_c, 0, 67, 0
1, 168480, Note_on_c, 0, 65, 52
1, 168600, Note_on_c, 0, 67, 31
1, 168612, Note_on_c, 0, 65, 0
1, 168720, Note_on_c, 0, 67, 0
1, 168720, Note_on_c, 0, 62, 40
1, 168840, Tempo, 473971
1, 168840, Note_on_c, 0, 67, 28
1, 168852, Note_on_c, 0, 62, 0
1, 168960, Tempo, 434877
1, 168960, Note_on_c, 0, 67, 0
1, 168960, Note_on_c, 0, 79, 61
1, 168960, Note_on_c, 0, 64, 42
1, 169010, Control_c, 0, 64, 127
1, 169080, Note_on_c, 0, 64, 0
1, 169080, Note_on_c, 0, 67, 36
1, 169200, Tempo, 438148
1, 169200, Note_on_c, 0, 67, 0
1, 169200, Note_on_c, 0, 79, 0
1, 169200, Note_on_c, 0, 76, 55
1, 169200, Note_on_c, 0, 64, 42
1, 169320, Note_on_c, 0, 64, 0
1, 169320, Note_on_c, 0, 67, 36
1, 169440, Note_on_c, 0, 67, 0
1, 169440, Note_on_c, 0, 76, 0
1, 169440, Note_on_c, 0, 72, 61
1, 169440, Note_on_c, 0, 64, 42
1, 169560, Note_on_c, 0, 64, 0
1, 169560, Note_on_c, 0, 67, 32
1, 169680, Note_on_c, 0, 67, 0
1, 169680, Note_on_c, 0, 64, 38
1, 169800, Note_on_c, 0, 64, 0
1, 169800, Note_on_c, 0, 67, 33
1, 169920, Tempo, 434877
1, 169920, Note_on_c, 0, 67, 0
1, 169920, Note_on_c, 0, 64, 39
1, 169920, Control_c, 0, 64, 0
1, 170040, Note_on_c, 0, 64, 0
1, 170040, Note_on_c, 0, 67, 32
1, 170160, Tempo, 438148
1, 170160, Note_on_c, 0, 67, 0
1, 170160, Note_on_c, 0, 72, 0
1, 170160, Note_on_c, 0, 74, 53
1, 170160, Note_on_c, 0, 64, 39
1, 170280, Note_on_c, 0, 64, 0
1, 170280, Note_on_c, 0, 74, 0
1, 170280, Note_on_c, 0, 76, 51
1, 170280, Note_on_c, 0, 67, 34
1, 170400, Note_on_c, 0, 67, 0
1, 170400, Note_on_c, 0, 76, 0
1, 170400, Note_on_c, 0, 74, 55
1, 170400, Note_on_c, 0, 64, 42
1, 170520, Note_on_c, 0, 64, 0
1, 170520, Note_on_c, 0, 67, 37
1, 170640, Note_on_c, 0, 67, 0
1, 170640, Note_on_c, 0, 74, 0
1, 170640, Note_on_c, 0, 72, 53
1, 170640, Note_on_c, 0, 64, 42
1, 170760, Note_on_c, 0, 64, 0
1, 170760, Note_on_c, 0, 72, 0
1, 170760, Note_on_c, 0, 67, 38
1, 170880, Tempo, 441501
1, 170880, Note_on_c, 0, 67, 0
1, 170880, Note_on_c, 0, 72, 55
1, 170880, Note_on_c, 0, 65, 42
1, 170915, Control_c, 0, 64, 127
1, 170940, Note_on_c, 0, 72, 0
1, 170940, Note_on_c, 0, 74, 51
1, 171000, Note_on_c, 0, 74, 0
1, 171000, Note_on_c, 0, 65, 0
1, 171000, Note_on_c, 0, 72, 56
1, 171000, Note_on_c, 0, 67, 36
1, 171060, Note_on_c, 0, 72, 0
1, 171060, Note_on_c, 0, 74, 50
1, 171120, Note_on_c, 0, 74, 0
1, 171120, Note_on_c, 0, 67, 0
1, 171120, Note_on_c, 0, 72, 55
1, 171120, Note_on_c, 0, 64, 42
1, 171124, Control_c, 0, 64, 0
1, 171152, Control_c, 0, 64, 127
1, 171240, Note_on_c, 0, 64, 0
1, 171240, Note_on_c, 0, 72, 0
1, 171240, Note_on_c, 0, 71, 52
1, 171240, Note_on_c, 0, 67, 36
1, 171330, Note_on_c, 0, 71, 0
1, 171360, Tempo, 438148
1, 171360, Note_on_c, 0, 67, 0
1, 171360, Note_on_c, 0, 71, 58
1, 171360, Note_on_c, 0, 62, 39
1, 171364, Control_c, 0, 64, 0
1, 171480, Note_on_c, 0, 67, 29
1, 171492, Note_on_c, 0, 62, 0
1, 171600, Note_on_c, 0, 67, 0
1, 171600, Note_on_c, 0, 64, 42
1, 171720, Note_on_c, 0, 67, 32
1, 171732, Note_on_c, 0, 64, 0
1, 171840, Note_on_c, 0, 67, 0
1, 171840, Note_on_c, 0, 71, 0
1, 171840, Note_on_c, 0, 65, 48
1, 171960, Note_on_c, 0, 67, 36
1, 171972, Note_on_c, 0, 65, 0
1, 172080, Note_on_c, 0, 67, 0
1, 172080, Note_on_c, 0, 64, 43
1, 172200, Note_on_c, 0, 67, 30
1, 172212, Note_on_c, 0, 64, 0
1, 172320, Tempo, 439818
1, 172320, Note_on_c, 0, 67, 0
1, 172320, Note_on_c, 0, 65, 48
1, 172440, Note_on_c, 0, 67, 36
1, 172452, Note_on_c, 0, 65, 0
1, 172560, Note_on_c, 0, 67, 0
1, 172560, Note_on_c, 0, 62, 43
1, 172680, Tempo, 468238
1, 172680, Note_on_c, 0, 67, 30
1, 172692, Note_on_c, 0, 62, 0
1, 172800, Tempo, 475888
1, 172800, Note_on_c, 0, 67, 0
1, 172800, Note_on_c, 0, 79, 65
1, 172909, Tempo, 451807
1, 172920, Note_on_c, 0, 52, 37
1, 172920, Control_c, 0, 64, 127
1, 172954, Tempo, 450045
1, 172984, Tempo, 448330
1, 173029, Tempo, 446595
1, 173040, Note_on_c, 0, 52, 0
1, 173040, Note_on_c, 0, 55, 39
1, 173059, Tempo, 444873
1, 173104, Tempo, 443164
1, 173134, Tempo, 441501
1, 173160, Note_on_c, 0, 55, 0
1, 173160, Note_on_c, 0, 60, 37
1, 173164, Tempo, 439818
1, 173280, Tempo, 470109
1, 173280, Note_on_c, 0, 60, 0
1, 173280, Note_on_c, 0, 79, 0
1, 173280, Note_on_c, 0, 64, 45
1, 173400, Tempo, 441501
1, 173400, Note_on_c, 0, 79, 57
1, 173520, Note_on_c, 0, 79, 0
1, 173520, Note_on_c, 0, 76, 62
1, 173640, Note_on_c, 0, 76, 0
1, 173640, Note_on_c, 0, 72, 57
1, 173760, Tempo, 457143
1, 173760, Note_on_c, 0, 72, 0
1, 173760, Note_on_c, 0, 64, 0
1, 173760, Note_on_c, 0, 69, 64
1, 173772, Control_c, 0, 64, 0
1, 173880, Tempo, 439818
1, 173880, Note_on_c, 0, 53, 39
1, 173884, Tempo, 448330
1, 173916, Control_c, 0, 64, 127
1, 173944, Tempo, 446595
1, 173989, Tempo, 444873
1, 174000, Note_on_c, 0, 53, 0
1, 174000, Note_on_c, 0, 57, 41
1, 174034, Tempo, 443164
1, 174079, Tempo, 441501
1, 174120, Note_on_c, 0, 57, 0
1, 174120, Note_on_c, 0, 60, 38
1, 174124, Tempo, 439818
1, 174169, Tempo, 438148
1, 174240, Tempo, 451807
1, 174240, Note_on_c, 0, 60, 0
1, 174240, Note_on_c, 0, 69, 0
1, 174240, Note_on_c, 0, 65, 49
1, 174360, Tempo, 439818
1, 174360, Note_on_c, 0, 69, 57
1, 174480, Note_on_c, 0, 69, 0
1, 174480, Note_on_c, 0, 72, 62
1, 174600, Note_on_c, 0, 72, 0
1, 174600, Note_on_c, 0, 69, 57
1, 174720, Tempo, 475888
1, 174720, Note_on_c, 0, 69, 0
1, 174720, Note_on_c, 0, 65, 0
1, 174720, Note_on_c, 0, 77, 65
1, 174720, Control_c, 0, 64, 0
1, 174777, Control_c, 0, 64, 127
1, 174829, Tempo, 451807
1, 174840, Note_on_c, 0, 50, 37
1, 174874, Tempo, 450045
1, 174919, Tempo, 448330
1, 174949, Tempo, 446595
1, 174960, Note_on_c, 0, 50, 0
1, 174960, Note_on_c, 0, 53, 39
1, 174994, Tempo, 444873
1, 175024, Tempo, 443164
1, 175080, Note_on_c, 0, 53, 0
1, 175080, Note_on_c, 0, 59, 37
1, 175200, Tempo, 436745
1, 175200, Note_on_c, 0, 59, 0
1, 175200, Note_on_c, 0, 77, 0
1, 175200, Note_on_c, 0, 62, 45
1, 175320, Tempo, 441501
1, 175320, Note_on_c, 0, 77, 57
1, 175440, Note_on_c, 0, 77, 0
1, 175440, Note_on_c, 0, 74, 62
1, 175560, Note_on_c, 0, 74, 0
1, 175560, Note_on_c, 0, 71, 57
1, 175680, Tempo, 457143
1, 175680, Note_on_c, 0, 71, 0
1, 175680, Note_on_c, 0, 62, 0
1, 175680, Note_on_c, 0, 67, 64
1, 175692, Control_c, 0, 64, 0
1, 175789, Tempo, 443164
1, 175800, Note_on_c, 0, 52, 39
1, 175836, Control_c, 0, 64, 127
1, 175909, Tempo, 441501
1, 175920, Note_on_c, 0, 52, 0
1, 175920, Note_on_c, 0, 55, 41
1, 176014, Tempo, 439818
1, 176040, Tempo, 468238
1, 176040, Note_on_c, 0, 55, 0
1, 176040, Note_on_c, 0, 59, 38
1, 176160, Tempo, 451807
1, 176160, Note_on_c, 0, 59, 0
1, 176160, Note_on_c, 0, 67, 0
1, 176160, Note_on_c, 0, 64, 49
1, 176280, Tempo, 439818
1, 176280, Note_on_c, 0, 79, 64
1, 176400, Note_on_c, 0, 79, 0
1, 176400, Note_on_c, 0, 83, 67
1, 176520, Note_on_c, 0, 83, 0
1, 176520, Note_on_c, 0, 79, 63
1, 176640, Tempo, 475888
1, 176640, Note_on_c, 0, 79, 0
1, 176640, Note_on_c, 0, 64, 0
1, 176640, Note_on_c, 0, 88, 72
1, 176640, Control_c, 0, 64, 0
1, 176697, Control_c, 0, 64, 127
1, 176760, Tempo, 441501
1, 176760, Note_on_c, 0, 60, 39
1, 176764, Tempo, 448330
1, 176824, Tempo, 446595
1, 176880, Note_on_c, 0, 60, 0
1, 176880, Note_on_c, 0, 64, 42
1, 176884, Tempo, 444873
1, 176929, Tempo, 443164
1, 176989, Tempo, 441501
1, 177000, Note_on_c, 0, 64, 0
1, 177000, Note_on_c, 0, 69, 39
1, 177034, Tempo, 439818
1, 177120, Tempo, 451807
1, 177120, Note_on_c, 0, 69, 0
1, 177120, Note_on_c, 0, 88, 0
1, 177120, Note_on_c, 0, 72, 48
1, 177240, Tempo, 441501
1, 177240, Note_on_c, 0, 88, 61
1, 177360, Note_on_c, 0, 88, 0
1, 177360, Note_on_c, 0, 84, 66
1, 177480, Note_on_c, 0, 84, 0
1, 177480, Note_on_c, 0, 81, 61
1, 177600, Tempo, 457143
1, 177600, Note_on_c, 0, 81, 0
1, 177600, Note_on_c, 0, 72, 0
1, 177600, Note_on_c, 0, 77, 68
1, 177612, Control_c, 0, 64, 0
1, 177709, Tempo, 448330
1, 177720, Note_on_c, 0, 62, 42
1, 177754, Tempo, 446595
1, 177756, Control_c, 0, 64, 127
1, 177799, Tempo, 444873
1, 177840, Note_on_c, 0, 62, 0
1, 177840, Note_on_c, 0, 65, 44
1, 177844, Tempo, 443164
1, 177889, Tempo, 441501
1, 177934, Tempo, 439818
1, 177960, Note_on_c, 0, 65, 0
1, 177960, Note_on_c, 0, 69, 41
1, 177979, Tempo, 438148
1, 178009, Tempo, 436491
1, 178080, Tempo, 443197
1, 178080, Note_on_c, 0, 69, 0
1, 178080, Note_on_c, 0, 77, 0
1, 178080, Note_on_c, 0, 74, 52
1, 178200, Tempo, 439818
1, 178200, Note_on_c, 0, 77, 64
1, 178320, Note_on_c, 0, 77, 0
1, 178320, Note_on_c, 0, 81, 66
1, 178440, Note_on_c, 0, 81, 0
1, 178440, Note_on_c, 0, 77, 64
1, 178560, Tempo, 457143
1, 178560, Note_on_c, 0, 77, 0
1, 178560, Note_on_c, 0, 74, 0
1, 178560, Note_on_c, 0, 86, 73
1, 178560, Control_c, 0, 64, 0
1, 178617, Control_c, 0, 64, 127
1, 178680, Tempo, 441501
1, 178680, Note_on_c, 0, 59, 39
1, 178800, Note_on_c, 0, 59, 0
1, 178800, Note_on_c, 0, 62, 42
1, 178920, Note_on_c, 0, 62, 0
1, 178920, Note_on_c, 0, 67, 39
1, 179040, Tempo, 453583
1, 179040, Note_on_c, 0, 67, 0
1, 179040, Note_on_c, 0, 86, 0
1, 179040, Note_on_c, 0, 71, 48
1, 179160, Tempo, 434877
1, 179160, Note_on_c, 0, 86, 61
1, 179280, Tempo, 434877
1, 179280, Note_on_c, 0, 86, 0
1, 179280, Note_on_c, 0, 83, 66
1, 179400, Tempo, 446595
1, 179400, Note_on_c, 0, 83, 0
1, 179400, Note_on_c, 0, 77, 61
1, 179520, Tempo, 457143
1, 179520, Note_on_c, 0, 77, 0
1, 179520, Note_on_c, 0, 71, 0
1, 179520, Note_on_c, 0, 76, 68
1, 179532, Control_c, 0, 64, 0
1, 179640, Tempo, 439818
1, 179640, Note_on_c, 0, 60, 42
1, 179676, Control_c, 0, 64, 127
1, 179760, Note_on_c, 0, 60, 0
1, 179760, Note_on_c, 0, 64, 44
1, 179880, Note_on_c, 0, 64, 0
1, 179880, Note_on_c, 0, 67, 41
1, 180000, Tempo, 451807
1, 180000, Note_on_c, 0, 67, 0
1, 180000, Note_on_c, 0, 76, 0
1, 180000, Note_on_c, 0, 72, 52
1, 180120, Tempo, 439818
1, 180120, Note_on_c, 0, 84, 61
1, 180240, Note_on_c, 0, 84, 0
1, 180240, Note_on_c, 0, 79, 66
1, 180360, Note_on_c, 0, 79, 0
1, 180360, Note_on_c, 0, 76, 61
1, 180480, Note_on_c, 0, 76, 0
1, 180480, Note_on_c, 0, 72, 0
1, 180480, Note_on_c, 0, 74, 71
1, 180480, Control_c, 0, 64, 0
1, 180720, Note_on_c, 0, 69, 39
1, 180720, Note_on_c, 0, 65, 39
1, 180840, Note_on_c, 0, 65, 0
1, 180840, Note_on_c, 0, 69, 0
1, 180960, Note_on_c, 0, 69, 39
1, 180960, Note_on_c, 0, 65, 39
1, 181080, Note_on_c, 0, 65, 0
1, 181080, Note_on_c, 0, 69, 0
1, 181200, Note_on_c, 0, 65, 39
1, 181200, Note_on_c, 0, 69, 39
1, 181320, Note_on_c, 0, 69, 0
1, 181320, Note_on_c, 0, 65, 0
1, 181380, Note_on_c, 0, 74, 0
1, 181380, Note_on_c, 0, 73, 64
1, 181440, Note_on_c, 0, 73, 0
1, 181440, Note_on_c, 0, 74, 69
1, 181440, Note_on_c, 0, 69, 44
1, 181440, Note_on_c, 0, 65, 44
1, 181560, Note_on_c, 0, 65, 0
1, 181560, Note_on_c, 0, 69, 0
1, 181680, Note_on_c, 0, 65, 40
1, 181680, Note_on_c, 0, 69, 40
1, 181800, Note_on_c, 0, 69, 0
1, 181800, Note_on_c, 0, 65, 0
1, 181860, Note_on_c, 0, 74, 0
1, 181860, Note_on_c, 0, 73, 65
1, 181920, Note_on_c, 0, 73, 0
1, 181920, Note_on_c, 0, 74, 72
1, 181920, Note_on_c, 0, 65, 40
1, 181920, Note_on_c, 0, 69, 40
1, 182040, Note_on_c, 0, 69, 0
1, 182040, Note_on_c, 0, 65, 0
1, 182160, Tempo, 455339
1, 182160, Note_on_c, 0, 65, 41
1, 182160, Note_on_c, 0, 69, 41
1, 182280, Note_on_c, 0, 69, 0
1, 182280, Note_on_c, 0, 65, 0
1, 182400, Tempo, 439818
1, 182400, Note_on_c, 0, 74, 0
1, 182400, Note_on_c, 0, 81, 77
1, 182400, Control_c, 0, 64, 0
1, 182640, Note_on_c, 0, 54, 40
1, 182640, Note_on_c, 0, 63, 40
1, 182640, Note_on_c, 0, 60, 40
1, 182760, Note_on_c, 0, 60, 0
1, 182760, Note_on_c, 0, 63, 0
1, 182760, Note_on_c, 0, 54, 0
1, 182880, Note_on_c, 0, 54, 41
1, 182880, Note_on_c, 0, 63, 41
1, 182880, Note_on_c, 0, 60, 41
1, 183000, Note_on_c, 0, 60, 0
1, 183000, Note_on_c, 0, 63, 0
1, 183000, Note_on_c, 0, 54, 0
1, 183120, Note_on_c, 0, 54, 41
1, 183120, Note_on_c, 0, 60, 41
1, 183120, Note_on_c, 0, 63, 41
1, 183240, Note_on_c, 0, 63, 0
1, 183240, Note_on_c, 0, 60, 0
1, 183240, Note_on_c, 0, 54, 0
1, 183300, Note_on_c, 0, 81, 0
1, 183300, Note_on_c, 0, 80, 69
1, 183360, Note_on_c, 0, 80, 0
1, 183360, Note_on_c, 0, 81, 78
1, 183360, Note_on_c, 0, 54, 47
1, 183360, Note_on_c, 0, 60, 47
1, 183360, Note_on_c, 0, 63, 47
1, 183480, Note_on_c, 0, 63, 0
1, 183480, Note_on_c, 0, 60, 0
1, 183480, Note_on_c, 0, 54, 0
1, 183600, Note_on_c, 0, 54, 43
1, 183600, Note_on_c, 0, 60, 43
1, 183600, Note_on_c, 0, 63, 43
1, 183720, Note_on_c, 0, 63, 0
1, 183720, Note_on_c, 0, 60, 0
1, 183720, Note_on_c, 0, 54, 0
1, 183780, Note_on_c, 0, 81, 0
1, 183780, Note_on_c, 0, 80, 69
1, 183840, Note_on_c, 0, 80, 0
1, 183840, Note_on_c, 0, 81, 79
1, 183840, Note_on_c, 0, 54, 43
1, 183840, Note_on_c, 0, 60, 43
1, 183840, Note_on_c, 0, 63, 43
1, 183960, Note_on_c, 0, 63, 0
1, 183960, Note_on_c, 0, 60, 0
1, 183960, Note_on_c, 0, 54, 0
1, 184080, Tempo, 455339
1, 184080, Note_on_c, 0, 54, 44
1, 184080, Note_on_c, 0, 63, 44
1, 184080, Note_on_c, 0, 60, 44
1, 184200, Note_on_c, 0, 60, 0
1, 184200, Note_on_c, 0, 63, 0
1, 184200, Note_on_c, 0, 54, 0
1, 184320, Note_on_c, 0, 81, 0
1, 184320, Note_on_c, 0, 79, 78
1, 184320, Note_on_c, 0, 55, 54
1, 184395, Control_c, 0, 64, 127
1, 184440, Note_on_c, 0, 55, 0
1, 184440, Note_on_c, 0, 64, 42
1, 184560, Note_on_c, 0, 64, 0
1, 184560, Note_on_c, 0, 79, 0
1, 184560, Note_on_c, 0, 81, 75
1, 184560, Note_on_c, 0, 60, 42
1, 184680, Tempo, 458961
1, 184680, Note_on_c, 0, 60, 0
1, 184680, Note_on_c, 0, 81, 0
1, 184680, Note_on_c, 0, 83, 76
1, 184680, Note_on_c, 0, 64, 42
1, 184800, Tempo, 436491
1, 184800, Note_on_c, 0, 64, 0
1, 184800, Note_on_c, 0, 83, 0
1, 184800, Note_on_c, 0, 84, 79
1, 184800, Note_on_c, 0, 55, 56
1, 184920, Note_on_c, 0, 55, 0
1, 184920, Note_on_c, 0, 84, 0
1, 184920, Note_on_c, 0, 86, 80
1, 184920, Note_on_c, 0, 64, 44
1, 185040, Note_on_c, 0, 64, 0
1, 185040, Note_on_c, 0, 86, 0
1, 185040, Note_on_c, 0, 88, 83
1, 185040, Note_on_c, 0, 60, 42
1, 185160, Note_on_c, 0, 60, 0
1, 185160, Note_on_c, 0, 88, 0
1, 185160, Note_on_c, 0, 86, 82
1, 185160, Note_on_c, 0, 64, 42
1, 185280, Note_on_c, 0, 64, 0
1, 185280, Note_on_c, 0, 86, 0
1, 185280, Note_on_c, 0, 84, 78
1, 185280, Note_on_c, 0, 55, 48
1, 185400, Note_on_c, 0, 55, 0
1, 185400, Note_on_c, 0, 84, 0
1, 185400, Note_on_c, 0, 83, 77
1, 185400, Note_on_c, 0, 64, 42
1, 185520, Note_on_c, 0, 64, 0
1, 185520, Note_on_c, 0, 83, 0
1, 185520, Note_on_c, 0, 81, 75
1, 185520, Note_on_c, 0, 60, 42
1, 185640, Note_on_c, 0, 60, 0
1, 185640, Note_on_c, 0, 81, 0
1, 185640, Note_on_c, 0, 79, 74
1, 185640, Note_on_c, 0, 64, 42
1, 185760, Note_on_c, 0, 64, 0
1, 185760, Note_on_c, 0, 79, 0
1, 185760, Note_on_c, 0, 77, 70
1, 185760, Note_on_c, 0, 55, 49
1, 185824, Control_c, 0, 64, 0
1, 185880, Note_on_c, 0, 55, 0
1, 185880, Note_on_c, 0, 77, 0
1, 185880, Note_on_c, 0, 76, 68
1, 185880, Note_on_c, 0, 64, 42
1, 185887, Control_c, 0, 64, 127
1, 186000, Note_on_c, 0, 64, 0
1, 186000, Note_on_c, 0, 76, 0
1, 186000, Note_on_c, 0, 74, 67
1, 186000, Note_on_c, 0, 60, 42
1, 186120, Tempo, 462606
1, 186120, Note_on_c, 0, 60, 0
1, 186120, Note_on_c, 0, 74, 0
1, 186120, Note_on_c, 0, 72, 65
1, 186120, Note_on_c, 0, 64, 42
1, 186205, Tempo, 475888
1, 186240, Note_on_c, 0, 64, 0
1, 186240, Note_on_c, 0, 72, 0
1, 186240, Note_on_c, 0, 74, 49
1, 186240, Note_on_c, 0, 55, 50
1, 186243, Tempo, 473971
1, 186247, Control_c, 0, 64, 0
1, 186282, Tempo, 472032
1, 186286, Control_c, 0, 64, 127
1, 186300, Note_on_c, 0, 74, 0
1, 186300, Note_on_c, 0, 76, 38
1, 186301, Tempo, 470109
1, 186339, Tempo, 468238
1, 186359, Tempo, 466345
1, 186360, Note_on_c, 0, 76, 0
1, 186360, Note_on_c, 0, 55, 0
1, 186360, Note_on_c, 0, 74, 49
1, 186360, Note_on_c, 0, 65, 42
1, 186397, Tempo, 464468
1, 186420, Note_on_c, 0, 74, 0
1, 186420, Note_on_c, 0, 76, 40
1, 186435, Tempo, 462606
1, 186455, Tempo, 460794
1, 186480, Note_on_c, 0, 76, 0
1, 186480, Note_on_c, 0, 65, 0
1, 186480, Note_on_c, 0, 74, 50
1, 186480, Note_on_c, 0, 59, 42
1, 186493, Tempo, 458961
1, 186512, Tempo, 457143
1, 186540, Note_on_c, 0, 74, 0
1, 186540, Note_on_c, 0, 76, 40
1, 186551, Tempo, 455339
1, 186589, Tempo, 453583
1, 186600, Note_on_c, 0, 76, 0
1, 186600, Note_on_c, 0, 59, 0
1, 186600, Note_on_c, 0, 74, 50
1, 186600, Note_on_c, 0, 65, 42
1, 186608, Tempo, 451807
1, 186647, Tempo, 450045
1, 186660, Note_on_c, 0, 74, 0
1, 186660, Note_on_c, 0, 76, 40
1, 186666, Tempo, 448330
1, 186704, Tempo, 448330
1, 186720, Note_on_c, 0, 76, 0
1, 186720, Note_on_c, 0, 65, 0
1, 186720, Note_on_c, 0, 74, 52
1, 186720, Note_on_c, 0, 55, 49
1, 186743, Tempo, 450045
1, 186780, Note_on_c, 0, 74, 0
1, 186780, Note_on_c, 0, 76, 40
1, 186800, Tempo, 451807
1, 186839, Tempo, 453583
1, 186840, Note_on_c, 0, 76, 0
1, 186840, Note_on_c, 0, 55, 0
1, 186840, Note_on_c, 0, 74, 52
1, 186840, Note_on_c, 0, 65, 42
1, 186896, Tempo, 451807
1, 186900, Note_on_c, 0, 74, 0
1, 186900, Note_on_c, 0, 76, 41
1, 186954, Tempo, 450045
1, 186960, Note_on_c, 0, 76, 0
1, 186960, Note_on_c, 0, 65, 0
1, 186960, Note_on_c, 0, 74, 53
1, 186960, Note_on_c, 0, 59, 42
1, 187011, Tempo, 448330
1, 187020, Note_on_c, 0, 74, 0
1, 187020, Note_on_c, 0, 76, 41
1, 187069, Tempo, 446595
1, 187080, Note_on_c, 0, 76, 0
1, 187080, Note_on_c, 0, 59, 0
1, 187080, Note_on_c, 0, 74, 53
1, 187080, Note_on_c, 0, 65, 42
1, 187107, Tempo, 444873
1, 187140, Note_on_c, 0, 74, 0
1, 187140, Note_on_c, 0, 76, 42
1, 187200, Note_on_c, 0, 76, 0
1, 187200, Note_on_c, 0, 65, 0
1, 187200, Note_on_c, 0, 74, 54
1, 187200, Note_on_c, 0, 55, 48
1, 187260, Note_on_c, 0, 74, 0
1, 187260, Note_on_c, 0, 76, 43
1, 187320, Note_on_c, 0, 76, 0
1, 187320, Note_on_c, 0, 55, 0
1, 187320, Note_on_c, 0, 74, 54
1, 187320, Note_on_c, 0, 65, 42
1, 187380, Note_on_c, 0, 74, 0
1, 187380, Note_on_c, 0, 76, 45
1, 187440, Note_on_c, 0, 76, 0
1, 187440, Note_on_c, 0, 65, 0
1, 187440, Note_on_c, 0, 74, 54
1, 187440, Note_on_c, 0, 59, 42
1, 187500, Note_on_c, 0, 74, 0
1, 187500, Note_on_c, 0, 76, 44
1, 187549, Tempo, 444873
1, 187560, Note_on_c, 0, 76, 0
1, 187560, Note_on_c, 0, 59, 0
1, 187560, Note_on_c, 0, 74, 54
1, 187560, Note_on_c, 0, 65, 42
1, 187607, Tempo, 446595
1, 187620, Note_on_c, 0, 74, 0
1, 187620, Note_on_c, 0, 76, 44
1, 187645, Tempo, 448330
1, 187680, Note_on_c, 0, 76, 0
1, 187680, Note_on_c, 0, 65, 0
1, 187680, Note_on_c, 0, 74, 53
1, 187680, Note_on_c, 0, 55, 49
1, 187683, Tempo, 450045
1, 187740, Note_on_c, 0, 74, 0
1, 187740, Note_on_c, 0, 76, 45
1, 187741, Tempo, 451807
1, 187779, Tempo, 453583
1, 187800, Note_on_c, 0, 76, 0
1, 187800, Note_on_c, 0, 55, 0
1, 187800, Note_on_c, 0, 74, 53
1, 187800, Note_on_c, 0, 65, 42
1, 187818, Tempo, 455339
1, 187856, Tempo, 457143
1, 187860, Note_on_c, 0, 74, 0
1, 187860, Note_on_c, 0, 76, 42
1, 187914, Tempo, 458961
1, 187920, Note_on_c, 0, 76, 0
1, 187920, Note_on_c, 0, 65, 0
1, 187920, Note_on_c, 0, 74, 53
1, 187920, Note_on_c, 0, 59, 42
1, 187952, Tempo, 460794
1, 187991, Tempo, 462606
1, 188000, Note_on_c, 0, 74, 0
1, 188000, Note_on_c, 0, 72, 59
1, 188029, Tempo, 464468
1, 188040, Note_on_c, 0, 59, 0
1, 188040, Note_on_c, 0, 65, 42
1, 188080, Note_on_c, 0, 72, 0
1, 188080, Note_on_c, 0, 74, 58
1, 188160, Note_on_c, 0, 74, 0
1, 188160, Note_on_c, 0, 65, 0
1, 188160, Note_on_c, 0, 72, 69
1, 188160, Note_on_c, 0, 64, 58
1, 188160, Note_on_c, 0, 60, 49
1, 188160, Control_c, 0, 64, 0
1, 188640, Tempo, 458961
1, 188640, Note_on_c, 0, 60, 0
1, 188640, Note_on_c, 0, 64, 0
1, 188640, Note_on_c, 0, 72, 0
1, 188640, Note_on_c, 0, 72, 67
1, 188680, Control_c, 0, 64, 127
1, 188760, Note_on_c, 0, 72, 0
1, 188760, Note_on_c, 0, 67, 59
1, 188880, Note_on_c, 0, 67, 0
1, 188880, Note_on_c, 0, 72, 62
1, 189000, Tempo, 477859
1, 189000, Note_on_c, 0, 72, 0
1, 189000, Note_on_c, 0, 76, 65
1, 189120, Tempo, 457143
1, 189120, Note_on_c, 0, 76, 0
1, 189120, Note_on_c, 0, 79, 68
1, 189240, Note_on_c, 0, 79, 0
1, 189240, Note_on_c, 0, 76, 63
1, 189360, Note_on_c, 0, 76, 0
1, 189360, Note_on_c, 0, 72, 68
1, 189480, Tempo, 466345
1, 189480, Note_on_c, 0, 72, 0
1, 189480, Note_on_c, 0, 76, 63
1, 189600, Tempo, 455339
1, 189600, Note_on_c, 0, 76, 0
1, 189600, Note_on_c, 0, 77, 69
1, 189600, Note_on_c, 0, 55, 40
1, 189600, Note_on_c, 0, 65, 48
1, 189600, Note_on_c, 0, 62, 40
1, 189615, Control_c, 0, 64, 0
1, 189709, Control_c, 0, 64, 127
1, 189720, Note_on_c, 0, 77, 0
1, 189720, Note_on_c, 0, 74, 63
1, 189840, Note_on_c, 0, 74, 0
1, 189840, Note_on_c, 0, 71, 69
1, 189960, Tempo, 477859
1, 189960, Note_on_c, 0, 71, 0
1, 189960, Note_on_c, 0, 74, 63
1, 190080, Tempo, 464468
1, 190080, Note_on_c, 0, 74, 0
1, 190080, Note_on_c, 0, 62, 0
1, 190080, Note_on_c, 0, 65, 0
1, 190080, Note_on_c, 0, 55, 0
1, 190080, Note_on_c, 0, 72, 69
1, 190080, Note_on_c, 0, 64, 58
1, 190080, Note_on_c, 0, 60, 49
1, 190092, Control_c, 0, 64, 0
1, 190560, Tempo, 458961
1, 190560, Note_on_c, 0, 60, 0
1, 190560, Note_on_c, 0, 64, 0
1, 190560, Note_on_c, 0, 72, 0
1, 190560, Note_on_c, 0, 60, 67
1, 190588, Control_c, 0, 64, 127
1, 190680, Note_on_c, 0, 60, 0
1, 190680, Note_on_c, 0, 55, 59
1, 190800, Note_on_c, 0, 55, 0
1, 190800, Note_on_c, 0, 60, 62
1, 190920, Tempo, 477859
1, 190920, Note_on_c, 0, 60, 0
1, 190920, Note_on_c, 0, 64, 65
1, 191040, Tempo, 458961
1, 191040, Note_on_c, 0, 64, 0
1, 191040, Note_on_c, 0, 67, 68
1, 191160, Note_on_c, 0, 67, 0
1, 191160, Note_on_c, 0, 64, 63
1, 191280, Note_on_c, 0, 64, 0
1, 191280, Note_on_c, 0, 60, 68
1, 191400, Tempo, 470109
1, 191400, Note_on_c, 0, 60, 0
1, 191400, Note_on_c, 0, 64, 63
1, 191520, Tempo, 455339
1, 191520, Note_on_c, 0, 64, 0
1, 191520, Note_on_c, 0, 65, 69
1, 191520, Note_on_c, 0, 43, 40
1, 191520, Note_on_c, 0, 50, 40
1, 191520, Note_on_c, 0, 53, 48
1, 191532, Control_c, 0, 64, 0
1, 191629, Control_c, 0, 64, 127
1, 191640, Note_on_c, 0, 65, 0
1, 191640, Note_on_c, 0, 62, 63
1, 191760, Note_on_c, 0, 62, 0
1, 191760, Note_on_c, 0, 59, 69
1, 191880, Tempo, 487924
1, 191880, Note_on_c, 0, 59, 0
1, 191880, Note_on_c, 0, 62, 63
1, 192000, Note_on_c, 0, 62, 0
1, 192000, Note_on_c, 0, 53, 0
1, 192000, Note_on_c, 0, 50, 0
1, 192000, Note_on_c, 0, 43, 0
1, 192000, Note_on_c, 0, 60, 74
1, 192000, Note_on_c, 0, 52, 52
1, 192000, Note_on_c, 0, 48, 44
1, 192005, Control_c, 0, 64, 0
1, 192120, Note_on_c, 0, 60, 0
1, 192120, Note_on_c, 0, 48, 0
1, 192120, Note_on_c, 0, 52, 0
1, 192480, Note_on_c, 0, 79, 72
1, 192480, Note_on_c, 0, 84, 85
1, 192480, Note_on_c, 0, 76, 65
1, 192480, Note_on_c, 0, 60, 59
1, 192600, Note_on_c, 0, 60, 0
1, 192600, Note_on_c, 0, 79, 0
1, 192600, Note_on_c, 0, 84, 0
1, 192600, Note_on_c, 0, 76, 0
1, 192960, Note_on_c, 0, 72, 83
1, 192960, Note_on_c, 0, 48, 55
1, 192960, Note_on_c, 0, 36, 44
1, 192987, Control_c, 0, 64, 127
1, 193360, Control_c, 0, 64, 0
1, 193440, Note_on_c, 0, 36, 0
1, 193440, Note_on_c, 0, 48, 0
1, 193440, Note_on_c, 0, 72, 0
1, 193920, Tempo, 462606
1, 193920, Marker_t, "Teil 2 Wiederholung"
1, 193920, Note_on_c, 0, 67, 69
1, 193920, Note_on_c, 0, 55, 58
1, 193920, Note_on_c, 0, 43, 49
1, 193920, Control_c, 0, 64, 0
1, 194400, Tempo, 458961
1, 194400, Note_on_c, 0, 43, 0
1, 194400, Note_on_c, 0, 55, 0
1, 194400, Note_on_c, 0, 67, 0
1, 194400, Note_on_c, 0, 79, 67
1, 194440, Control_c, 0, 64, 127
1, 194520, Note_on_c, 0, 79, 0
1, 194520, Note_on_c, 0, 74, 59
1, 194640, Note_on_c, 0, 74, 0
1, 194640, Note_on_c, 0, 79, 62
1, 194760, Tempo, 477859
1, 194760, Note_on_c, 0, 79, 0
1, 194760, Note_on_c, 0, 82, 65
1, 194880, Tempo, 449978
1, 194880, Note_on_c, 0, 82, 0
1, 194880, Note_on_c, 0, 86, 68
1, 195000, Note_on_c, 0, 86, 0
1, 195000, Note_on_c, 0, 82, 63
1, 195120, Note_on_c, 0, 82, 0
1, 195120, Note_on_c, 0, 79, 68
1, 195240, Tempo, 466345
1, 195240, Note_on_c, 0, 79, 0
1, 195240, Note_on_c, 0, 82, 63
1, 195360, Tempo, 455339
1, 195360, Note_on_c, 0, 82, 0
1, 195360, Note_on_c, 0, 84, 69
1, 195360, Note_on_c, 0, 69, 40
1, 195360, Note_on_c, 0, 72, 48
1, 195360, Note_on_c, 0, 62, 40
1, 195375, Control_c, 0, 64, 0
1, 195469, Control_c, 0, 64, 127
1, 195480, Note_on_c, 0, 84, 0
1, 195480, Note_on_c, 0, 81, 63
1, 195600, Note_on_c, 0, 81, 0
1, 195600, Note_on_c, 0, 78, 69
1, 195720, Tempo, 477859
1, 195720, Note_on_c, 0, 78, 0
1, 195720, Note_on_c, 0, 81, 63
1, 195840, Tempo, 462606
1, 195840, Note_on_c, 0, 81, 0
1, 195840, Note_on_c, 0, 62, 0
1, 195840, Note_on_c, 0, 72, 0
1, 195840, Note_on_c, 0, 69, 0
1, 195840, Note_on_c, 0, 79, 69
1, 195840, Note_on_c, 0, 67, 49
1, 195840, Note_on_c, 0, 70, 58
1, 195852, Control_c, 0, 64, 0
1, 196320, Tempo, 458961
1, 196320, Note_on_c, 0, 70, 0
1, 196320, Note_on_c, 0, 67, 0
1, 196320, Note_on_c, 0, 79, 0
1, 196320, Note_on_c, 0, 67, 67
1, 196348, Control_c, 0, 64, 127
1, 196440, Note_on_c, 0, 67, 0
1, 196440, Note_on_c, 0, 62, 59
1, 196560, Note_on_c, 0, 62, 0
1, 196560, Note_on_c, 0, 67, 62
1, 196680, Tempo, 477859
1, 196680, Note_on_c, 0, 67, 0
1, 196680, Note_on_c, 0, 70, 65
1, 196800, Tempo, 453515
1, 196800, Note_on_c, 0, 70, 0
1, 196800, Note_on_c, 0, 74, 68
1, 196920, Note_on_c, 0, 74, 0
1, 196920, Note_on_c, 0, 70, 63
1, 197040, Note_on_c, 0, 70, 0
1, 197040, Note_on_c, 0, 67, 68
1, 197160, Tempo, 470109
1, 197160, Note_on_c, 0, 67, 0
1, 197160, Note_on_c, 0, 70, 63
1, 197280, Tempo, 455339
1, 197280, Note_on_c, 0, 70, 0
1, 197280, Note_on_c, 0, 72, 69
1, 197280, Note_on_c, 0, 57, 40
1, 197280, Note_on_c, 0, 60, 48
1, 197280, Note_on_c, 0, 50, 40
1, 197292, Control_c, 0, 64, 0
1, 197389, Control_c, 0, 64, 127
1, 197400, Note_on_c, 0, 72, 0
1, 197400, Note_on_c, 0, 69, 63
1, 197520, Note_on_c, 0, 69, 0
1, 197520, Note_on_c, 0, 66, 69
1, 197640, Tempo, 487924
1, 197640, Note_on_c, 0, 66, 0
1, 197640, Note_on_c, 0, 69, 63
1, 197760, Tempo, 540054
1, 197760, Note_on_c, 0, 69, 0
1, 197760, Note_on_c, 0, 50, 0
1, 197760, Note_on_c, 0, 60, 0
1, 197760, Note_on_c, 0, 57, 0
1, 197760, Note_on_c, 0, 67, 74
1, 197765, Control_c, 0, 64, 0
1, 197880, Tempo, 453515
1, 197880, Note_on_c, 0, 43, 49
1, 198000, Note_on_c, 0, 45, 51
1, 198012, Note_on_c, 0, 43, 0
1, 198120, Note_on_c, 0, 46, 52
1, 198132, Note_on_c, 0, 45, 0
1, 198179, Tempo, 457143
1, 198227, Tempo, 458961
1, 198240, Note_on_c, 0, 67, 0
1, 198240, Note_on_c, 0, 48, 54
1, 198252, Note_on_c, 0, 46, 0
1, 198275, Tempo, 460794
1, 198323, Tempo, 462606
1, 198360, Note_on_c, 0, 50, 56
1, 198371, Tempo, 464468
1, 198372, Note_on_c, 0, 48, 0
1, 198419, Tempo, 466345
1, 198467, Tempo, 468238
1, 198480, Note_on_c, 0, 52, 58
1, 198492, Note_on_c, 0, 50, 0
1, 198515, Tempo, 470109
1, 198563, Tempo, 472032
1, 198600, Note_on_c, 0, 54, 60
1, 198611, Tempo, 473971
1, 198612, Note_on_c, 0, 52, 0
1, 198659, Tempo, 475888
1, 198707, Tempo, 477859
1, 198720, Tempo, 537586
1, 198720, Note_on_c, 0, 55, 61
1, 198732, Note_on_c, 0, 54, 0
1, 198840, Tempo, 457073
1, 198840, Note_on_c, 0, 79, 68
1, 198960, Note_on_c, 0, 82, 72
1, 198972, Note_on_c, 0, 79, 0
1, 199080, Note_on_c, 0, 81, 70
1, 199092, Note_on_c, 0, 82, 0
1, 199187, Tempo, 457143
1, 199200, Note_on_c, 0, 55, 0
1, 199200, Note_on_c, 0, 79, 68
1, 199212, Note_on_c, 0, 81, 0
1, 199235, Tempo, 458961
1, 199283, Tempo, 460794
1, 199320, Note_on_c, 0, 77, 67
1, 199331, Tempo, 462606
1, 199332, Note_on_c, 0, 79, 0
1, 199379, Tempo, 464468
1, 199427, Tempo, 466345
1, 199440, Note_on_c, 0, 76, 65
1, 199452, Note_on_c, 0, 77, 0
1, 199475, Tempo, 468238
1, 199523, Tempo, 470109
1, 199560, Note_on_c, 0, 74, 64
1, 199571, Tempo, 472032
1, 199572, Note_on_c, 0, 76, 0
1, 199619, Tempo, 473971
1, 199680, Tempo, 516129
1, 199680, Note_on_c, 0, 73, 70
1, 199685, Control_c, 0, 64, 0
1, 199692, Note_on_c, 0, 74, 0
1, 199800, Tempo, 457073
1, 199800, Note_on_c, 0, 45, 53
1, 199920, Note_on_c, 0, 47, 55
1, 199932, Note_on_c, 0, 45, 0
1, 200040, Note_on_c, 0, 49, 57
1, 200052, Note_on_c, 0, 47, 0
1, 200147, Tempo, 460794
1, 200160, Note_on_c, 0, 73, 0
1, 200160, Note_on_c, 0, 50, 60
1, 200172, Note_on_c, 0, 49, 0
1, 200219, Tempo, 462606
1, 200280, Note_on_c, 0, 52, 62
1, 200291, Tempo, 464468
1, 200292, Note_on_c, 0, 50, 0
1, 200339, Tempo, 466345
1, 200400, Note_on_c, 0, 54, 64
1, 200411, Tempo, 468238
1, 200412, Note_on_c, 0, 52, 0
1, 200459, Tempo, 470109
1, 200520, Note_on_c, 0, 56, 66
1, 200531, Tempo, 472032
1, 200532, Note_on_c, 0, 54, 0
1, 200579, Tempo, 473971
1, 200640, Tempo, 516129
1, 200640, Note_on_c, 0, 57, 68
1, 200652, Note_on_c, 0, 56, 0
1, 200760, Tempo, 458891
1, 200760, Note_on_c, 0, 85, 75
1, 200880, Note_on_c, 0, 88, 79
1, 200892, Note_on_c, 0, 85, 0
1, 201000, Note_on_c, 0, 86, 77
1, 201012, Note_on_c, 0, 88, 0
1, 201120, Note_on_c, 0, 57, 0
1, 201120, Note_on_c, 0, 85, 74
1, 201131, Tempo, 458961
1, 201132, Note_on_c, 0, 86, 0
1, 201179, Tempo, 460794
1, 201227, Tempo, 462606
1, 201240, Note_on_c, 0, 82, 72
1, 201252, Note_on_c, 0, 85, 0
1, 201275, Tempo, 464468
1, 201323, Tempo, 466345
1, 201360, Note_on_c, 0, 81, 70
1, 201371, Tempo, 468238
1, 201372, Note_on_c, 0, 82, 0
1, 201419, Tempo, 470109
1, 201467, Tempo, 472032
1, 201480, Note_on_c, 0, 79, 72
1, 201492, Note_on_c, 0, 81, 0
1, 201515, Tempo, 473971
1, 201563, Tempo, 475888
1, 201600, Tempo, 462606
1, 201600, Note_on_c, 0, 77, 85
1, 201600, Note_on_c, 0, 50, 71
1, 201600, Note_on_c, 0, 38, 71
1, 201600, Control_c, 0, 64, 0
1, 201612, Note_on_c, 0, 79, 0
1, 202080, Tempo, 453515
1, 202080, Note_on_c, 0, 77, 0
1, 202080, Note_on_c, 0, 50, 0
1, 202080, Note_on_c, 0, 38, 0
1, 202080, Note_on_c, 0, 74, 73
1, 202120, Control_c, 0, 64, 127
1, 202200, Note_on_c, 0, 74, 0
1, 202200, Note_on_c, 0, 69, 64
1, 202320, Note_on_c, 0, 69, 0
1, 202320, Note_on_c, 0, 74, 68
1, 202440, Tempo, 477859
1, 202440, Note_on_c, 0, 74, 0
1, 202440, Note_on_c, 0, 77, 71
1, 202560, Tempo, 453515
1, 202560, Note_on_c, 0, 77, 0
1, 202560, Note_on_c, 0, 81, 74
1, 202680, Note_on_c, 0, 81, 0
1, 202680, Note_on_c, 0, 77, 69
1, 202800, Note_on_c, 0, 77, 0
1, 202800, Note_on_c, 0, 74, 74
1, 202920, Tempo, 466345
1, 202920, Note_on_c, 0, 74, 0
1, 202920, Note_on_c, 0, 77, 69
1, 203040, Tempo, 451739
1, 203040, Note_on_c, 0, 77, 0
1, 203040, Note_on_c, 0, 79, 75
1, 203040, Note_on_c, 0, 64, 44
1, 203040, Note_on_c, 0, 67, 52
1, 203040, Note_on_c, 0, 57, 44
1, 203055, Control_c, 0, 64, 0
1, 203149, Control_c, 0, 64, 127
1, 203160, Note_on_c, 0, 79, 0
1, 203160, Note_on_c, 0, 76, 69
1, 203280, Note_on_c, 0, 76, 0
1, 203280, Note_on_c, 0, 73, 75
1, 203400, Tempo, 477859
1, 203400, Note_on_c, 0, 73, 0
1, 203400, Note_on_c, 0, 76, 69
1, 203520, Tempo, 462606
1, 203520, Note_on_c, 0, 76, 0
1, 203520, Note_on_c, 0, 57, 0
1, 203520, Note_on_c, 0, 67, 0
1, 203520, Note_on_c, 0, 64, 0
1, 203520, Note_on_c, 0, 74, 75
1, 203520, Note_on_c, 0, 62, 53
1, 203520, Note_on_c, 0, 65, 63
1, 203532, Control_c, 0, 64, 0
1, 203997, Note_on_c, 0, 62, 0
1, 204000, Tempo, 458961
1, 204000, Note_on_c, 0, 65, 0
1, 204000, Note_on_c, 0, 74, 0
1, 204000, Note_on_c, 0, 62, 67
1, 204063, Control_c, 0, 64, 127
1, 204120, Note_on_c, 0, 62, 0
1, 204120, Note_on_c, 0, 57, 59
1, 204240, Note_on_c, 0, 57, 0
1, 204240, Note_on_c, 0, 62, 62
1, 204360, Tempo, 477859
1, 204360, Note_on_c, 0, 62, 0
1, 204360, Note_on_c, 0, 65, 65
1, 204480, Tempo, 453515
1, 204480, Note_on_c, 0, 65, 0
1, 204480, Note_on_c, 0, 69, 68
1, 204600, Note_on_c, 0, 69, 0
1, 204600, Note_on_c, 0, 65, 63
1, 204720, Note_on_c, 0, 65, 0
1, 204720, Note_on_c, 0, 62, 68
1, 204840, Tempo, 470109
1, 204840, Note_on_c, 0, 62, 0
1, 204840, Note_on_c, 0, 65, 63
1, 204960, Tempo, 451739
1, 204960, Note_on_c, 0, 65, 0
1, 204960, Note_on_c, 0, 67, 69
1, 204960, Note_on_c, 0, 52, 40
1, 204960, Note_on_c, 0, 55, 48
1, 204960, Note_on_c, 0, 45, 40
1, 204972, Control_c, 0, 64, 0
1, 205069, Control_c, 0, 64, 127
1, 205080, Note_on_c, 0, 67, 0
1, 205080, Note_on_c, 0, 64, 63
1, 205200, Note_on_c, 0, 64, 0
1, 205200, Note_on_c, 0, 61, 69
1, 205320, Tempo, 487924
1, 205320, Note_on_c, 0, 61, 0
1, 205320, Note_on_c, 0, 64, 63
1, 205440, Tempo, 516129
1, 205440, Note_on_c, 0, 64, 0
1, 205440, Note_on_c, 0, 45, 0
1, 205440, Note_on_c, 0, 55, 0
1, 205440, Note_on_c, 0, 52, 0
1, 205440, Note_on_c, 0, 50, 62
1, 205440, Note_on_c, 0, 53, 62
1, 205445, Control_c, 0, 64, 0
1, 205560, Tempo, 458891
1, 205560, Note_on_c, 0, 62, 54
1, 205680, Note_on_c, 0, 64, 56
1, 205692, Note_on_c, 0, 62, 0
1, 205800, Note_on_c, 0, 65, 58
1, 205812, Note_on_c, 0, 64, 0
1, 205907, Tempo, 460794
1, 205920, Note_on_c, 0, 50, 0
1, 205920, Note_on_c, 0, 53, 0
1, 205920, Note_on_c, 0, 67, 60
1, 205932, Note_on_c, 0, 65, 0
1, 205979, Tempo, 462606
1, 206040, Note_on_c, 0, 69, 61
1, 206051, Tempo, 464468
1, 206052, Note_on_c, 0, 67, 0
1, 206099, Tempo, 466345
1, 206160, Note_on_c, 0, 71, 63
1, 206171, Tempo, 468238
1, 206172, Note_on_c, 0, 69, 0
1, 206219, Tempo, 470109
1, 206280, Note_on_c, 0, 73, 65
1, 206291, Tempo, 472032
1, 206292, Note_on_c, 0, 71, 0
1, 206339, Tempo, 473971
1, 206400, Tempo, 525394
1, 206400, Note_on_c, 0, 74, 66
1, 206412, Note_on_c, 0, 73, 0
1, 206520, Tempo, 458961
1, 206520, Note_on_c, 0, 62, 53
1, 206640, Note_on_c, 0, 65, 63
1, 206652, Note_on_c, 0, 62, 0
1, 206760, Note_on_c, 0, 64, 61
1, 206772, Note_on_c, 0, 65, 0
1, 206880, Note_on_c, 0, 74, 0
1, 206880, Note_on_c, 0, 62, 59
1, 206891, Tempo, 458961
1, 206892, Note_on_c, 0, 64, 0
1, 206939, Tempo, 460794
1, 206987, Tempo, 462606
1, 207000, Note_on_c, 0, 60, 56
1, 207012, Note_on_c, 0, 62, 0
1, 207035, Tempo, 464468
1, 207083, Tempo, 466345
1, 207120, Note_on_c, 0, 59, 54
1, 207131, Tempo, 468238
1, 207132, Note_on_c, 0, 60, 0
1, 207179, Tempo, 470109
1, 207227, Tempo, 472032
1, 207240, Note_on_c, 0, 57, 52
1, 207252, Note_on_c, 0, 59, 0
1, 207275, Tempo, 473971
1, 207323, Tempo, 475888
1, 207360, Tempo, 535093
1, 207360, Note_on_c, 0, 56, 57
1, 207365, Control_c, 0, 64, 0
1, 207372, Note_on_c, 0, 57, 0
1, 207480, Tempo, 462606
1, 207480, Note_on_c, 0, 71, 58
1, 207600, Note_on_c, 0, 72, 60
1, 207612, Note_on_c, 0, 71, 0
1, 207720, Note_on_c, 0, 74, 61
1, 207732, Note_on_c, 0, 72, 0
1, 207827, Tempo, 460794
1, 207840, Note_on_c, 0, 56, 0
1, 207840, Note_on_c, 0, 76, 63
1, 207852, Note_on_c, 0, 74, 0
1, 207899, Tempo, 462606
1, 207960, Note_on_c, 0, 78, 64
1, 207971, Tempo, 464468
1, 207972, Note_on_c, 0, 76, 0
1, 208019, Tempo, 466345
1, 208080, Note_on_c, 0, 80, 66
1, 208091, Tempo, 468238
1, 208092, Note_on_c, 0, 78, 0
1, 208139, Tempo, 470109
1, 208200, Note_on_c, 0, 81, 67
1, 208211, Tempo, 472032
1, 208212, Note_on_c, 0, 80, 0
1, 208259, Tempo, 473971
1, 208320, Tempo, 516129
1, 208320, Note_on_c, 0, 83, 69
1, 208332, Note_on_c, 0, 81, 0
1, 208440, Tempo, 458961
1, 208440, Note_on_c, 0, 56, 52
1, 208560, Note_on_c, 0, 59, 61
1, 208572, Note_on_c, 0, 56, 0
1, 208680, Note_on_c, 0, 57, 59
1, 208692, Note_on_c, 0, 59, 0
1, 208800, Note_on_c, 0, 83, 0
1, 208800, Note_on_c, 0, 56, 57
1, 208811, Tempo, 458961
1, 208812, Note_on_c, 0, 57, 0
1, 208859, Tempo, 460794
1, 208907, Tempo, 462606
1, 208920, Note_on_c, 0, 53, 55
1, 208932, Note_on_c, 0, 56, 0
1, 208955, Tempo, 464468
1, 209003, Tempo, 466345
1, 209040, Note_on_c, 0, 52, 53
1, 209051, Tempo, 468238
1, 209052, Note_on_c, 0, 53, 0
1, 209099, Tempo, 470109
1, 209147, Tempo, 472032
1, 209160, Note_on_c, 0, 50, 50
1, 209172, Note_on_c, 0, 52, 0
1, 209195, Tempo, 473971
1, 209243, Tempo, 475888
1, 209280, Tempo, 540054
1, 209280, Note_on_c, 0, 48, 57
1, 209285, Control_c, 0, 64, 0
1, 209292, Note_on_c, 0, 50, 0
1, 209400, Tempo, 462606
1, 209400, Note_on_c, 0, 81, 70
1, 209520, Note_on_c, 0, 88, 77
1, 209532, Note_on_c, 0, 81, 0
1, 209640, Note_on_c, 0, 86, 70
1, 209652, Note_on_c, 0, 88, 0
1, 209747, Tempo, 460794
1, 209760, Note_on_c, 0, 48, 0
1, 209760, Note_on_c, 0, 84, 71
1, 209772, Note_on_c, 0, 86, 0
1, 209819, Tempo, 462606
1, 209880, Note_on_c, 0, 83, 72
1, 209891, Tempo, 464468
1, 209892, Note_on_c, 0, 84, 0
1, 209939, Tempo, 466345
1, 210000, Note_on_c, 0, 81, 73
1, 210011, Tempo, 468238
1, 210012, Note_on_c, 0, 83, 0
1, 210059, Tempo, 470109
1, 210120, Note_on_c, 0, 79, 74
1, 210131, Tempo, 472032
1, 210132, Note_on_c, 0, 81, 0
1, 210179, Tempo, 473971
1, 210240, Tempo, 537586
1, 210240, Note_on_c, 0, 77, 78
1, 210252, Note_on_c, 0, 79, 0
1, 210360, Tempo, 458961
1, 210360, Note_on_c, 0, 62, 58
1, 210480, Note_on_c, 0, 69, 66
1, 210492, Note_on_c, 0, 62, 0
1, 210600, Note_on_c, 0, 67, 64
1, 210612, Note_on_c, 0, 69, 0
1, 210720, Note_on_c, 0, 77, 0
1, 210720, Note_on_c, 0, 65, 62
1, 210731, Tempo, 458961
1, 210732, Note_on_c, 0, 67, 0
1, 210779, Tempo, 460794
1, 210827, Tempo, 462606
1, 210840, Note_on_c, 0, 64, 61
1, 210852, Note_on_c, 0, 65, 0
1, 210875, Tempo, 464468
1, 210923, Tempo, 466345
1, 210960, Note_on_c, 0, 62, 59
1, 210971, Tempo, 468238
1, 210972, Note_on_c, 0, 64, 0
1, 211019, Tempo, 470109
1, 211067, Tempo, 472032
1, 211080, Note_on_c, 0, 60, 58
1, 211092, Note_on_c, 0, 62, 0
1, 211115, Tempo, 473971
1, 211163, Tempo, 475888
1, 211200, Tempo, 516129
1, 211200, Note_on_c, 0, 59, 68
1, 211205, Control_c, 0, 64, 0
1, 211212, Note_on_c, 0, 60, 0
1, 211320, Tempo, 462606
1, 211320, Note_on_c, 0, 79, 64
1, 211440, Note_on_c, 0, 86, 69
1, 211452, Note_on_c, 0, 79, 0
1, 211560, Note_on_c, 0, 84, 63
1, 211572, Note_on_c, 0, 86, 0
1, 211667, Tempo, 460794
1, 211680, Note_on_c, 0, 59, 0
1, 211680, Note_on_c, 0, 83, 64
1, 211692, Note_on_c, 0, 84, 0
1, 211739, Tempo, 462606
1, 211800, Note_on_c, 0, 81, 66
1, 211811, Tempo, 464468
1, 211812, Note_on_c, 0, 83, 0
1, 211859, Tempo, 466345
1, 211920, Note_on_c, 0, 79, 67
1, 211931, Tempo, 468238
1, 211932, Note_on_c, 0, 81, 0
1, 211979, Tempo, 470109
1, 212040, Note_on_c, 0, 77, 69
1, 212051, Tempo, 472032
1, 212052, Note_on_c, 0, 79, 0
1, 212099, Tempo, 473971
1, 212160, Tempo, 537586
1, 212160, Note_on_c, 0, 76, 71
1, 212172, Note_on_c, 0, 77, 0
1, 212280, Tempo, 458961
1, 212280, Note_on_c, 0, 60, 50
1, 212400, Note_on_c, 0, 67, 58
1, 212412, Note_on_c, 0, 60, 0
1, 212520, Note_on_c, 0, 65, 56
1, 212532, Note_on_c, 0, 67, 0
1, 212640, Note_on_c, 0, 76, 0
1, 212640, Note_on_c, 0, 64, 55
1, 212651, Tempo, 458961
1, 212652, Note_on_c, 0, 65, 0
1, 212699, Tempo, 460794
1, 212747, Tempo, 462606
1, 212760, Note_on_c, 0, 62, 53
1, 212772, Note_on_c, 0, 64, 0
1, 212795, Tempo, 464468
1, 212843, Tempo, 466345
1, 212880, Note_on_c, 0, 60, 51
1, 212891, Tempo, 468238
1, 212892, Note_on_c, 0, 62, 0
1, 212939, Tempo, 470109
1, 212987, Tempo, 472032
1, 213000, Note_on_c, 0, 59, 49
1, 213012, Note_on_c, 0, 60, 0
1, 213035, Tempo, 473971
1, 213083, Tempo, 475888
1, 213120, Tempo, 516129
1, 213120, Note_on_c, 0, 57, 57
1, 213125, Control_c, 0, 64, 0
1, 213132, Note_on_c, 0, 59, 0
1, 213240, Tempo, 462606
1, 213240, Note_on_c, 0, 77, 60
1, 213360, Note_on_c, 0, 84, 66
1, 213372, Note_on_c, 0, 77, 0
1, 213480, Note_on_c, 0, 83, 70
1, 213492, Note_on_c, 0, 84, 0
1, 213587, Tempo, 460794
1, 213600, Note_on_c, 0, 57, 0
1, 213600, Note_on_c, 0, 81, 69
1, 213612, Note_on_c, 0, 83, 0
1, 213659, Tempo, 462606
1, 213720, Note_on_c, 0, 79, 68
1, 213731, Tempo, 464468
1, 213732, Note_on_c, 0, 81, 0
1, 213779, Tempo, 466345
1, 213840, Note_on_c, 0, 77, 66
1, 213851, Tempo, 468238
1, 213852, Note_on_c, 0, 79, 0
1, 213899, Tempo, 470109
1, 213960, Note_on_c, 0, 76, 65
1, 213971, Tempo, 472032
1, 213972, Note_on_c, 0, 77, 0
1, 214019, Tempo, 473971
1, 214080, Tempo, 516129
1, 214080, Note_on_c, 0, 74, 69
1, 214092, Note_on_c, 0, 76, 0
1, 214200, Tempo, 458961
1, 214200, Note_on_c, 0, 59, 50
1, 214320, Note_on_c, 0, 65, 56
1, 214332, Note_on_c, 0, 59, 0
1, 214440, Note_on_c, 0, 64, 54
1, 214452, Note_on_c, 0, 65, 0
1, 214560, Note_on_c, 0, 74, 0
1, 214560, Note_on_c, 0, 62, 53
1, 214571, Tempo, 458961
1, 214572, Note_on_c, 0, 64, 0
1, 214619, Tempo, 460794
1, 214667, Tempo, 462606
1, 214680, Note_on_c, 0, 60, 51
1, 214692, Note_on_c, 0, 62, 0
1, 214715, Tempo, 464468
1, 214763, Tempo, 466345
1, 214800, Note_on_c, 0, 59, 49
1, 214811, Tempo, 468238
1, 214812, Note_on_c, 0, 60, 0
1, 214859, Tempo, 470109
1, 214907, Tempo, 472032
1, 214920, Note_on_c, 0, 57, 48
1, 214932, Note_on_c, 0, 59, 0
1, 214955, Tempo, 473971
1, 215003, Tempo, 475888
1, 215040, Tempo, 540054
1, 215040, Note_on_c, 0, 56, 54
1, 215045, Control_c, 0, 64, 0
1, 215052, Note_on_c, 0, 57, 0
1, 215160, Tempo, 462606
1, 215160, Note_on_c, 0, 76, 59
1, 215280, Note_on_c, 0, 83, 67
1, 215292, Note_on_c, 0, 76, 0
1, 215400, Note_on_c, 0, 81, 67
1, 215412, Note_on_c, 0, 83, 0
1, 215507, Tempo, 460794
1, 215520, Note_on_c, 0, 56, 0
1, 215520, Note_on_c, 0, 80, 66
1, 215532, Note_on_c, 0, 81, 0
1, 215579, Tempo, 462606
1, 215640, Note_on_c, 0, 77, 65
1, 215651, Tempo, 464468
1, 215652, Note_on_c, 0, 80, 0
1, 215699, Tempo, 466345
1, 215760, Note_on_c, 0, 76, 64
1, 215771, Tempo, 468238
1, 215772, Note_on_c, 0, 77, 0
1, 215819, Tempo, 470109
1, 215880, Note_on_c, 0, 74, 63
1, 215891, Tempo, 472032
1, 215892, Note_on_c, 0, 76, 0
1, 215939, Tempo, 473971
1, 216000, Tempo, 516129
1, 216000, Note_on_c, 0, 72, 66
1, 216012, Note_on_c, 0, 74, 0
1, 216120, Tempo, 458961
1, 216120, Note_on_c, 0, 57, 44
1, 216240, Note_on_c, 0, 60, 52
1, 216252, Note_on_c, 0, 57, 0
1, 216360, Note_on_c, 0, 59, 50
1, 216372, Note_on_c, 0, 60, 0
1, 216480, Note_on_c, 0, 72, 0
1, 216480, Note_on_c, 0, 57, 48
1, 216491, Tempo, 458961
1, 216492, Note_on_c, 0, 59, 0
1, 216539, Tempo, 460794
1, 216587, Tempo, 462606
1, 216600, Note_on_c, 0, 55, 46
1, 216612, Note_on_c, 0, 57, 0
1, 216635, Tempo, 464468
1, 216683, Tempo, 466345
1, 216720, Note_on_c, 0, 53, 45
1, 216731, Tempo, 468238
1, 216732, Note_on_c, 0, 55, 0
1, 216779, Tempo, 470109
1, 216827, Tempo, 472032
1, 216840, Note_on_c, 0, 52, 43
1, 216852, Note_on_c, 0, 53, 0
1, 216875, Tempo, 473971
1, 216923, Tempo, 475888
1, 216960, Tempo, 537586
1, 216960, Note_on_c, 0, 50, 51
1, 216965, Control_c, 0, 64, 0
1, 216972, Note_on_c, 0, 52, 0
1, 217080, Tempo, 462606
1, 217080, Note_on_c, 0, 70, 58
1, 217200, Note_on_c, 0, 74, 64
1, 217212, Note_on_c, 0, 70, 0
1, 217320, Note_on_c, 0, 72, 59
1, 217332, Note_on_c, 0, 74, 0
1, 217427, Tempo, 460794
1, 217440, Note_on_c, 0, 70, 64
1, 217452, Note_on_c, 0, 72, 0
1, 217499, Tempo, 462606
1, 217560, Note_on_c, 0, 69, 63
1, 217571, Tempo, 464468
1, 217572, Note_on_c, 0, 70, 0
1, 217619, Tempo, 466345
1, 217680, Note_on_c, 0, 67, 61
1, 217691, Tempo, 468238
1, 217692, Note_on_c, 0, 69, 0
1, 217739, Tempo, 470109
1, 217800, Note_on_c, 0, 65, 60
1, 217811, Tempo, 472032
1, 217812, Note_on_c, 0, 67, 0
1, 217859, Tempo, 473971
1, 217920, Tempo, 516129
1, 217920, Note_on_c, 0, 65, 0
1, 217920, Note_on_c, 0, 50, 0
1, 217920, Note_on_c, 0, 64, 59
1, 217920, Note_on_c, 0, 48, 46
1, 217920, Note_on_c, 0, 55, 46
1, 217920, Note_on_c, 0, 58, 57
1, 218040, Tempo, 458961
1, 218040, Note_on_c, 0, 65, 57
1, 218052, Note_on_c, 0, 64, 0
1, 218160, Note_on_c, 0, 67, 56
1, 218172, Note_on_c, 0, 65, 0
1, 218280, Note_on_c, 0, 69, 55
1, 218292, Note_on_c, 0, 67, 0
1, 218400, Note_on_c, 0, 70, 53
1, 218411, Tempo, 458961
1, 218412, Note_on_c, 0, 69, 0
1, 218459, Tempo, 460794
1, 218507, Tempo, 462606
1, 218520, Note_on_c, 0, 72, 52
1, 218532, Note_on_c, 0, 70, 0
1, 218555, Tempo, 464468
1, 218603, Tempo, 466345
1, 218640, Note_on_c, 0, 74, 50
1, 218651, Tempo, 468238
1, 218652, Note_on_c, 0, 72, 0
1, 218699, Tempo, 470109
1, 218760, Tempo, 558347
1, 218760, Note_on_c, 0, 76, 49
1, 218772, Note_on_c, 0, 74, 0
1, 218880, Tempo, 439432
1, 218880, Note_on_c, 0, 58, 0
1, 218880, Note_on_c, 0, 48, 0
1, 218880, Note_on_c, 0, 55, 0
1, 218880, Note_on_c, 0, 76, 0
1, 218880, Note_on_c, 0, 77, 59
1, 218880, Note_on_c, 0, 65, 40
1, 219021, Control_c, 0, 64, 127
1, 219120, Note_on_c, 0, 65, 0
1, 219120, Note_on_c, 0, 72, 30
1, 219360, Note_on_c, 0, 72, 0
1, 219360, Note_on_c, 0, 69, 30
1, 219600, Note_on_c, 0, 69, 0
1, 219600, Note_on_c, 0, 72, 30
1, 219840, Tempo, 433182
1, 219840, Note_on_c, 0, 72, 0
1, 219840, Note_on_c, 0, 77, 0
1, 219840, Note_on_c, 0, 81, 58
1, 219840, Note_on_c, 0, 65, 40
1, 220080, Note_on_c, 0, 65, 0
1, 220080, Note_on_c, 0, 72, 30
1, 220320, Tempo, 444050
1, 220320, Note_on_c, 0, 72, 0
1, 220320, Note_on_c, 0, 81, 0
1, 220320, Note_on_c, 0, 84, 56
1, 220320, Note_on_c, 0, 69, 30
1, 220560, Note_on_c, 0, 69, 0
1, 220560, Note_on_c, 0, 72, 30
1, 220800, Note_on_c, 0, 72, 0
1, 220800, Note_on_c, 0, 84, 0
1, 220800, Note_on_c, 0, 76, 60
1, 220800, Note_on_c, 0, 67, 30
1, 220808, Control_c, 0, 64, 0
1, 220913, Control_c, 0, 64, 127
1, 221040, Note_on_c, 0, 67, 0
1, 221040, Note_on_c, 0, 72, 29
1, 221120, Tempo, 436745
1, 221280, Note_on_c, 0, 72, 0
1, 221280, Note_on_c, 0, 70, 31
1, 221440, Tempo, 436745
1, 221520, Note_on_c, 0, 70, 0
1, 221520, Note_on_c, 0, 76, 0
1, 221520, Note_on_c, 0, 77, 55
1, 221520, Note_on_c, 0, 72, 28
1, 221640, Note_on_c, 0, 77, 0
1, 221640, Note_on_c, 0, 79, 51
1, 221760, Tempo, 440399
1, 221760, Note_on_c, 0, 79, 0
1, 221760, Note_on_c, 0, 72, 0
1, 221760, Note_on_c, 0, 77, 60
1, 221760, Note_on_c, 0, 65, 40
1, 221773, Control_c, 0, 64, 0
1, 221887, Control_c, 0, 64, 127
1, 222000, Note_on_c, 0, 65, 0
1, 222000, Note_on_c, 0, 72, 29
1, 222240, Note_on_c, 0, 72, 0
1, 222240, Note_on_c, 0, 77, 0
1, 222240, Note_on_c, 0, 69, 32
1, 222480, Note_on_c, 0, 69, 0
1, 222480, Note_on_c, 0, 72, 29
1, 222720, Tempo, 433182
1, 222720, Note_on_c, 0, 72, 0
1, 222720, Note_on_c, 0, 86, 64
1, 222720, Note_on_c, 0, 65, 40
1, 222720, Control_c, 0, 64, 0
1, 222932, Control_c, 0, 64, 127
1, 222960, Note_on_c, 0, 65, 0
1, 222960, Note_on_c, 0, 74, 32
1, 223200, Note_on_c, 0, 74, 0
1, 223200, Note_on_c, 0, 70, 32
1, 223440, Note_on_c, 0, 70, 0
1, 223440, Note_on_c, 0, 74, 32
1, 223680, Tempo, 429646
1, 223680, Note_on_c, 0, 74, 0
1, 223680, Note_on_c, 0, 86, 0
1, 223680, Note_on_c, 0, 84, 62
1, 223680, Note_on_c, 0, 65, 40
1, 223690, Control_c, 0, 64, 0
1, 223878, Control_c, 0, 64, 127
1, 223920, Note_on_c, 0, 65, 0
1, 223920, Note_on_c, 0, 72, 32
1, 224160, Tempo, 434940
1, 224160, Note_on_c, 0, 72, 0
1, 224160, Note_on_c, 0, 84, 0
1, 224160, Note_on_c, 0, 89, 64
1, 224160, Note_on_c, 0, 69, 32
1, 224400, Note_on_c, 0, 69, 0
1, 224400, Note_on_c, 0, 72, 32
1, 224640, Tempo, 429646
1, 224640, Note_on_c, 0, 72, 0
1, 224640, Note_on_c, 0, 89, 0
1, 224640, Note_on_c, 0, 84, 64
1, 224640, Note_on_c, 0, 64, 40
1, 224640, Control_c, 0, 64, 0
1, 224697, Control_c, 0, 64, 127
1, 224880, Note_on_c, 0, 64, 0
1, 224880, Note_on_c, 0, 72, 32
1, 225120, Note_on_c, 0, 72, 0
1, 225120, Note_on_c, 0, 84, 0
1, 225120, Note_on_c, 0, 82, 55
1, 225120, Note_on_c, 0, 67, 32
1, 225200, Note_on_c, 0, 82, 0
1, 225200, Note_on_c, 0, 84, 55
1, 225280, Note_on_c, 0, 84, 0
1, 225280, Note_on_c, 0, 82, 55
1, 225360, Note_on_c, 0, 82, 0
1, 225360, Note_on_c, 0, 67, 0
1, 225360, Note_on_c, 0, 81, 59
1, 225360, Note_on_c, 0, 72, 32
1, 225480, Note_on_c, 0, 81, 0
1, 225480, Note_on_c, 0, 82, 55
1, 225600, Note_on_c, 0, 82, 0
1, 225600, Note_on_c, 0, 72, 0
1, 225600, Note_on_c, 0, 81, 60
1, 225600, Note_on_c, 0, 65, 40
1, 225611, Control_c, 0, 64, 0
1, 225688, Control_c, 0, 64, 127
1, 225840, Note_on_c, 0, 65, 0
1, 225840, Note_on_c, 0, 72, 34
1, 226080, Note_on_c, 0, 72, 0
1, 226080, Note_on_c, 0, 81, 0
1, 226080, Note_on_c, 0, 69, 34
1, 226320, Note_on_c, 0, 69, 0
1, 226320, Note_on_c, 0, 72, 34
1, 226400, Tempo, 451637
1, 226560, Tempo, 442217
1, 226560, Note_on_c, 0, 72, 0
1, 226560, Note_on_c, 0, 74, 60
1, 226560, Note_on_c, 0, 70, 40
1, 226606, Control_c, 0, 64, 0
1, 226675, Tempo, 440399
1, 226790, Tempo, 438564
1, 226800, Note_on_c, 0, 74, 0
1, 226800, Note_on_c, 0, 76, 53
1, 226906, Tempo, 436745
1, 226920, Note_on_c, 0, 77, 54
1, 226932, Note_on_c, 0, 76, 0
1, 227021, Tempo, 434940
1, 227040, Note_on_c, 0, 70, 0
1, 227040, Note_on_c, 0, 79, 55
1, 227052, Note_on_c, 0, 77, 0
1, 227136, Tempo, 433182
1, 227160, Note_on_c, 0, 81, 57
1, 227172, Note_on_c, 0, 79, 0
1, 227251, Tempo, 431406
1, 227280, Note_on_c, 0, 82, 58
1, 227292, Note_on_c, 0, 81, 0
1, 227366, Tempo, 429646
1, 227400, Note_on_c, 0, 84, 59
1, 227412, Note_on_c, 0, 82, 0
1, 227482, Tempo, 427899
1, 227520, Tempo, 426197
1, 227520, Note_on_c, 0, 86, 62
1, 227532, Note_on_c, 0, 84, 0
1, 227616, Tempo, 427899
1, 227640, Note_on_c, 0, 84, 61
1, 227652, Note_on_c, 0, 86, 0
1, 227712, Tempo, 429646
1, 227760, Note_on_c, 0, 82, 60
1, 227772, Note_on_c, 0, 84, 0
1, 227789, Tempo, 431406
1, 227880, Note_on_c, 0, 81, 59
1, 227885, Tempo, 433182
1, 227892, Note_on_c, 0, 82, 0
1, 227981, Tempo, 434940
1, 228000, Note_on_c, 0, 79, 58
1, 228000, Note_on_c, 0, 58, 40
1, 228000, Note_on_c, 0, 65, 40
1, 228012, Note_on_c, 0, 81, 0
1, 228058, Tempo, 436745
1, 228120, Note_on_c, 0, 77, 57
1, 228132, Note_on_c, 0, 79, 0
1, 228154, Tempo, 438564
1, 228240, Note_on_c, 0, 76, 55
1, 228250, Tempo, 440399
1, 228252, Note_on_c, 0, 77, 0
1, 228326, Tempo, 442217
1, 228360, Note_on_c, 0, 74, 53
1, 228372, Note_on_c, 0, 76, 0
1, 228461, Tempo, 438564
1, 228480, Note_on_c, 0, 65, 0
1, 228480, Note_on_c, 0, 58, 0
1, 228480, Note_on_c, 0, 72, 60
1, 228480, Note_on_c, 0, 57, 40
1, 228480, Note_on_c, 0, 65, 40
1, 228480, Control_c, 0, 64, 0
1, 228492, Note_on_c, 0, 74, 0
1, 228634, Tempo, 436745
1, 228720, Note_on_c, 0, 72, 0
1, 228720, Note_on_c, 0, 74, 53
1, 228787, Tempo, 434940
1, 228840, Note_on_c, 0, 76, 54
1, 228852, Note_on_c, 0, 74, 0
1, 228960, Tempo, 433182
1, 228960, Note_on_c, 0, 65, 0
1, 228960, Note_on_c, 0, 57, 0
1, 228960, Note_on_c, 0, 77, 55
1, 228972, Note_on_c, 0, 76, 0
1, 229080, Note_on_c, 0, 79, 57
1, 229092, Note_on_c, 0, 77, 0
1, 229114, Tempo, 431406
1, 229200, Note_on_c, 0, 81, 58
1, 229212, Note_on_c, 0, 79, 0
1, 229286, Tempo, 429646
1, 229320, Note_on_c, 0, 82, 59
1, 229332, Note_on_c, 0, 81, 0
1, 229402, Tempo, 426197
1, 229440, Note_on_c, 0, 84, 62
1, 229452, Note_on_c, 0, 82, 0
1, 229478, Tempo, 427899
1, 229555, Tempo, 429646
1, 229560, Note_on_c, 0, 82, 61
1, 229572, Note_on_c, 0, 84, 0
1, 229632, Tempo, 431406
1, 229680, Note_on_c, 0, 81, 60
1, 229692, Note_on_c, 0, 82, 0
1, 229709, Tempo, 433182
1, 229786, Tempo, 434940
1, 229800, Note_on_c, 0, 79, 59
1, 229812, Note_on_c, 0, 81, 0
1, 229843, Tempo, 436745
1, 229920, Tempo, 438564
1, 229920, Note_on_c, 0, 77, 58
1, 229920, Note_on_c, 0, 57, 40
1, 229920, Note_on_c, 0, 65, 40
1, 229932, Note_on_c, 0, 79, 0
1, 229997, Tempo, 440399
1, 230040, Note_on_c, 0, 76, 57
1, 230052, Note_on_c, 0, 77, 0
1, 230074, Tempo, 442217
1, 230150, Tempo, 444050
1, 230160, Note_on_c, 0, 74, 55
1, 230172, Note_on_c, 0, 76, 0
1, 230208, Tempo, 445931
1, 230280, Note_on_c, 0, 72, 53
1, 230292, Note_on_c, 0, 74, 0
1, 230362, Tempo, 436745
1, 230400, Note_on_c, 0, 65, 0
1, 230400, Note_on_c, 0, 57, 0
1, 230400, Note_on_c, 0, 70, 60
1, 230400, Note_on_c, 0, 55, 40
1, 230400, Note_on_c, 0, 65, 40
1, 230400, Control_c, 0, 64, 0
1, 230412, Note_on_c, 0, 72, 0
1, 230534, Tempo, 434940
1, 230640, Note_on_c, 0, 70, 0
1, 230640, Note_on_c, 0, 72, 53
1, 230688, Tempo, 433182
1, 230760, Note_on_c, 0, 74, 54
1, 230772, Note_on_c, 0, 72, 0
1, 230842, Tempo, 431406
1, 230880, Note_on_c, 0, 65, 0
1, 230880, Note_on_c, 0, 55, 0
1, 230880, Note_on_c, 0, 76, 55
1, 230892, Note_on_c, 0, 74, 0
1, 231000, Note_on_c, 0, 77, 57
1, 231012, Note_on_c, 0, 76, 0
1, 231014, Tempo, 429646
1, 231120, Note_on_c, 0, 79, 58
1, 231132, Note_on_c, 0, 77, 0
1, 231168, Tempo, 427899
1, 231240, Note_on_c, 0, 81, 59
1, 231252, Note_on_c, 0, 79, 0
1, 231302, Tempo, 424508
1, 231360, Note_on_c, 0, 82, 62
1, 231372, Note_on_c, 0, 81, 0
1, 231379, Tempo, 426197
1, 231456, Tempo, 427899
1, 231480, Note_on_c, 0, 81, 61
1, 231492, Note_on_c, 0, 82, 0
1, 231533, Tempo, 429646
1, 231600, Note_on_c, 0, 79, 60
1, 231610, Tempo, 431406
1, 231612, Note_on_c, 0, 81, 0
1, 231686, Tempo, 433182
1, 231720, Note_on_c, 0, 77, 59
1, 231732, Note_on_c, 0, 79, 0
1, 231744, Tempo, 434940
1, 231821, Tempo, 436745
1, 231840, Note_on_c, 0, 76, 58
1, 231840, Note_on_c, 0, 55, 40
1, 231840, Note_on_c, 0, 64, 40
1, 231852, Note_on_c, 0, 77, 0
1, 231898, Tempo, 438564
1, 231960, Note_on_c, 0, 74, 57
1, 231972, Note_on_c, 0, 76, 0
1, 231974, Tempo, 440399
1, 232051, Tempo, 442217
1, 232080, Note_on_c, 0, 72, 55
1, 232092, Note_on_c, 0, 74, 0
1, 232109, Tempo, 444050
1, 232200, Note_on_c, 0, 70, 53
1, 232212, Note_on_c, 0, 72, 0
1, 232320, Note_on_c, 0, 64, 0
1, 232320, Note_on_c, 0, 55, 0
1, 232320, Note_on_c, 0, 69, 60
1, 232320, Note_on_c, 0, 53, 40
1, 232320, Note_on_c, 0, 65, 40
1, 232320, Control_c, 0, 64, 0
1, 232332, Note_on_c, 0, 70, 0
1, 232339, Tempo, 444050
1, 232454, Tempo, 442217
1, 232560, Note_on_c, 0, 69, 0
1, 232560, Note_on_c, 0, 70, 53
1, 232570, Tempo, 440399
1, 232666, Tempo, 438564
1, 232680, Note_on_c, 0, 72, 54
1, 232692, Note_on_c, 0, 70, 0
1, 232781, Tempo, 436745
1, 232800, Note_on_c, 0, 65, 0
1, 232800, Note_on_c, 0, 53, 0
1, 232800, Note_on_c, 0, 74, 55
1, 232812, Note_on_c, 0, 72, 0
1, 232877, Tempo, 434940
1, 232920, Note_on_c, 0, 76, 57
1, 232932, Note_on_c, 0, 74, 0
1, 232992, Tempo, 433182
1, 233040, Note_on_c, 0, 77, 58
1, 233052, Note_on_c, 0, 76, 0
1, 233088, Tempo, 431406
1, 233160, Note_on_c, 0, 79, 59
1, 233172, Note_on_c, 0, 77, 0
1, 233203, Tempo, 429646
1, 233280, Tempo, 427899
1, 233280, Note_on_c, 0, 81, 62
1, 233292, Note_on_c, 0, 79, 0
1, 233376, Tempo, 429646
1, 233400, Note_on_c, 0, 79, 61
1, 233412, Note_on_c, 0, 81, 0
1, 233453, Tempo, 431406
1, 233520, Note_on_c, 0, 77, 60
1, 233530, Tempo, 433182
1, 233532, Note_on_c, 0, 79, 0
1, 233606, Tempo, 434940
1, 233640, Note_on_c, 0, 76, 59
1, 233652, Note_on_c, 0, 77, 0
1, 233683, Tempo, 436745
1, 233760, Tempo, 438564
1, 233760, Note_on_c, 0, 74, 58
1, 233772, Note_on_c, 0, 76, 0
1, 233837, Tempo, 440399
1, 233880, Note_on_c, 0, 72, 57
1, 233892, Note_on_c, 0, 74, 0
1, 233914, Tempo, 442217
1, 233990, Tempo, 444050
1, 234000, Note_on_c, 0, 70, 55
1, 234012, Note_on_c, 0, 72, 0
1, 234067, Tempo, 445931
1, 234120, Tempo, 478736
1, 234120, Note_on_c, 0, 69, 53
1, 234132, Note_on_c, 0, 70, 0
1, 234221, Tempo, 442217
1, 234240, Tempo, 442217
1, 234240, Note_on_c, 0, 81, 61
1, 234240, Note_on_c, 0, 53, 48
1, 234252, Note_on_c, 0, 69, 0
1, 234355, Tempo, 440399
1, 234470, Tempo, 438564
1, 234480, Note_on_c, 0, 53, 0
1, 234480, Note_on_c, 0, 55, 42
1, 234586, Tempo, 436745
1, 234600, Note_on_c, 0, 57, 42
1, 234612, Note_on_c, 0, 55, 0
1, 234701, Tempo, 434940
1, 234720, Note_on_c, 0, 81, 0
1, 234720, Note_on_c, 0, 58, 43
1, 234732, Note_on_c, 0, 57, 0
1, 234816, Tempo, 433182
1, 234840, Note_on_c, 0, 60, 45
1, 234852, Note_on_c, 0, 58, 0
1, 234931, Tempo, 431406
1, 234960, Note_on_c, 0, 62, 46
1, 234972, Note_on_c, 0, 60, 0
1, 235046, Tempo, 429646
1, 235080, Note_on_c, 0, 64, 47
1, 235092, Note_on_c, 0, 62, 0
1, 235162, Tempo, 427899
1, 235200, Tempo, 426197
1, 235200, Note_on_c, 0, 65, 49
1, 235212, Note_on_c, 0, 64, 0
1, 235296, Tempo, 427899
1, 235320, Note_on_c, 0, 64, 48
1, 235332, Note_on_c, 0, 65, 0
1, 235392, Tempo, 429646
1, 235440, Note_on_c, 0, 62, 48
1, 235452, Note_on_c, 0, 64, 0
1, 235469, Tempo, 431406
1, 235560, Note_on_c, 0, 60, 47
1, 235565, Tempo, 433182
1, 235572, Note_on_c, 0, 62, 0
1, 235661, Tempo, 434940
1, 235680, Note_on_c, 0, 72, 56
1, 235680, Note_on_c, 0, 81, 56
1, 235680, Note_on_c, 0, 58, 46
1, 235692, Note_on_c, 0, 60, 0
1, 235738, Tempo, 436745
1, 235800, Note_on_c, 0, 57, 45
1, 235812, Note_on_c, 0, 58, 0
1, 235834, Tempo, 438564
1, 235920, Note_on_c, 0, 55, 43
1, 235930, Tempo, 440399
1, 235932, Note_on_c, 0, 57, 0
1, 236006, Tempo, 442217
1, 236040, Note_on_c, 0, 53, 42
1, 236052, Note_on_c, 0, 55, 0
1, 236141, Tempo, 438564
1, 236160, Note_on_c, 0, 72, 0
1, 236160, Note_on_c, 0, 81, 0
1, 236160, Note_on_c, 0, 72, 56
1, 236160, Note_on_c, 0, 79, 56
1, 236160, Note_on_c, 0, 52, 48
1, 236172, Note_on_c, 0, 53, 0
1, 236314, Tempo, 436745
1, 236400, Note_on_c, 0, 52, 0
1, 236400, Note_on_c, 0, 53, 42
1, 236467, Tempo, 434940
1, 236520, Note_on_c, 0, 55, 42
1, 236532, Note_on_c, 0, 53, 0
1, 236640, Tempo, 433182
1, 236640, Note_on_c, 0, 72, 0
1, 236640, Note_on_c, 0, 79, 0
1, 236640, Note_on_c, 0, 57, 43
1, 236652, Note_on_c, 0, 55, 0
1, 236760, Note_on_c, 0, 59, 45
1, 236772, Note_on_c, 0, 57, 0
1, 236794, Tempo, 431406
1, 236880, Note_on_c, 0, 60, 46
1, 236892, Note_on_c, 0, 59, 0
1, 236966, Tempo, 429646
1, 237000, Note_on_c, 0, 62, 47
1, 237012, Note_on_c, 0, 60, 0
1, 237082, Tempo, 426197
1, 237120, Note_on_c, 0, 64, 49
1, 237132, Note_on_c, 0, 62, 0
1, 237158, Tempo, 427899
1, 237235, Tempo, 429646
1, 237240, Note_on_c, 0, 62, 48
1, 237252, Note_on_c, 0, 64, 0
1, 237312, Tempo, 431406
1, 237360, Note_on_c, 0, 60, 48
1, 237372, Note_on_c, 0, 62, 0
1, 237389, Tempo, 433182
1, 237466, Tempo, 434940
1, 237480, Note_on_c, 0, 59, 47
1, 237492, Note_on_c, 0, 60, 0
1, 237523, Tempo, 436745
1, 237600, Tempo, 438564
1, 237600, Note_on_c, 0, 72, 56
1, 237600, Note_on_c, 0, 79, 56
1, 237600, Note_on_c, 0, 57, 46
1, 237612, Note_on_c, 0, 59, 0
1, 237677, Tempo, 440399
1, 237720, Note_on_c, 0, 55, 45
1, 237732, Note_on_c, 0, 57, 0
1, 237754, Tempo, 442217
1, 237830, Tempo, 444050
1, 237840, Note_on_c, 0, 53, 43
1, 237852, Note_on_c, 0, 55, 0
1, 237888, Tempo, 445931
1, 237960, Note_on_c, 0, 52, 42
1, 237972, Note_on_c, 0, 53, 0
1, 238042, Tempo, 436745
1, 238080, Note_on_c, 0, 72, 0
1, 238080, Note_on_c, 0, 79, 0
1, 238080, Note_on_c, 0, 72, 56
1, 238080, Note_on_c, 0, 77, 56
1, 238080, Note_on_c, 0, 50, 48
1, 238092, Note_on_c, 0, 52, 0
1, 238214, Tempo, 434940
1, 238320, Note_on_c, 0, 50, 0
1, 238320, Note_on_c, 0, 52, 42
1, 238368, Tempo, 433182
1, 238440, Note_on_c, 0, 53, 42
1, 238452, Note_on_c, 0, 52, 0
1, 238522, Tempo, 431406
1, 238560, Note_on_c, 0, 72, 0
1, 238560, Note_on_c, 0, 77, 0
1, 238560, Note_on_c, 0, 55, 43
1, 238572, Note_on_c, 0, 53, 0
1, 238680, Note_on_c, 0, 57, 45
1, 238692, Note_on_c, 0, 55, 0
1, 238694, Tempo, 429646
1, 238800, Note_on_c, 0, 59, 46
1, 238812, Note_on_c, 0, 57, 0
1, 238848, Tempo, 427899
1, 238920, Note_on_c, 0, 60, 47
1, 238932, Note_on_c, 0, 59, 0
1, 238982, Tempo, 424508
1, 239040, Note_on_c, 0, 62, 49
1, 239052, Note_on_c, 0, 60, 0
1, 239059, Tempo, 426197
1, 239136, Tempo, 427899
1, 239160, Note_on_c, 0, 60, 48
1, 239172, Note_on_c, 0, 62, 0
1, 239213, Tempo, 429646
1, 239280, Note_on_c, 0, 59, 48
1, 239290, Tempo, 431406
1, 239292, Note_on_c, 0, 60, 0
1, 239366, Tempo, 433182
1, 239400, Note_on_c, 0, 57, 47
1, 239412, Note_on_c, 0, 59, 0
1, 239424, Tempo, 434940
1, 239501, Tempo, 436745
1, 239520, Note_on_c, 0, 71, 56
1, 239520, Note_on_c, 0, 77, 56
1, 239520, Note_on_c, 0, 55, 46
1, 239532, Note_on_c, 0, 57, 0
1, 239578, Tempo, 438564
1, 239640, Note_on_c, 0, 53, 45
1, 239652, Note_on_c, 0, 55, 0
1, 239654, Tempo, 440399
1, 239731, Tempo, 442217
1, 239760, Note_on_c, 0, 52, 43
1, 239772, Note_on_c, 0, 53, 0
1, 239789, Tempo, 444050
1, 239880, Note_on_c, 0, 50, 42
1, 239892, Note_on_c, 0, 52, 0
1, 240000, Note_on_c, 0, 71, 0
1, 240000, Note_on_c, 0, 77, 0
1, 240000, Note_on_c, 0, 72, 56
1, 240000, Note_on_c, 0, 76, 56
1, 240000, Note_on_c, 0, 48, 48
1, 240012, Note_on_c, 0, 50, 0
1, 240019, Tempo, 444050
1, 240134, Tempo, 442217
1, 240240, Note_on_c, 0, 48, 0
1, 240240, Note_on_c, 0, 50, 42
1, 240250, Tempo, 440399
1, 240346, Tempo, 438564
1, 240360, Note_on_c, 0, 52, 42
1, 240372, Note_on_c, 0, 50, 0
1, 240461, Tempo, 436745
1, 240480, Note_on_c, 0, 72, 0
1, 240480, Note_on_c, 0, 76, 0
1, 240480, Note_on_c, 0, 53, 43
1, 240492, Note_on_c, 0, 52, 0
1, 240557, Tempo, 434940
1, 240600, Note_on_c, 0, 55, 45
1, 240612, Note_on_c, 0, 53, 0
1, 240672, Tempo, 433182
1, 240720, Note_on_c, 0, 57, 46
1, 240732, Note_on_c, 0, 55, 0
1, 240768, Tempo, 431406
1, 240840, Note_on_c, 0, 59, 47
1, 240852, Note_on_c, 0, 57, 0
1, 240883, Tempo, 429646
1, 240960, Tempo, 427899
1, 240960, Note_on_c, 0, 60, 49
1, 240972, Note_on_c, 0, 59, 0
1, 241056, Tempo, 429646
1, 241080, Note_on_c, 0, 59, 48
1, 241092, Note_on_c, 0, 60, 0
1, 241133, Tempo, 431406
1, 241200, Note_on_c, 0, 57, 48
1, 241210, Tempo, 433182
1, 241212, Note_on_c, 0, 59, 0
1, 241286, Tempo, 434940
1, 241320, Note_on_c, 0, 55, 47
1, 241332, Note_on_c, 0, 57, 0
1, 241363, Tempo, 436745
1, 241440, Tempo, 438564
1, 241440, Note_on_c, 0, 72, 56
1, 241440, Note_on_c, 0, 76, 56
1, 241440, Note_on_c, 0, 53, 46
1, 241452, Note_on_c, 0, 55, 0
1, 241517, Tempo, 440399
1, 241560, Note_on_c, 0, 52, 45
1, 241572, Note_on_c, 0, 53, 0
1, 241594, Tempo, 442217
1, 241670, Tempo, 444050
1, 241680, Note_on_c, 0, 50, 43
1, 241692, Note_on_c, 0, 52, 0
1, 241747, Tempo, 445931
1, 241800, Note_on_c, 0, 48, 42
1, 241812, Note_on_c, 0, 50, 0
1, 241901, Tempo, 442217
1, 241920, Tempo, 442217
1, 241920, Note_on_c, 0, 72, 0
1, 241920, Note_on_c, 0, 76, 0
1, 241920, Note_on_c, 0, 74, 60
1, 241920, Note_on_c, 0, 53, 38
1, 241920, Note_on_c, 0, 57, 38
1, 241920, Control_c, 0, 64, 0
1, 241932, Note_on_c, 0, 48, 0
1, 242040, Note_on_c, 0, 74, 0
1, 242040, Note_on_c, 0, 62, 53
1, 242074, Tempo, 440399
1, 242160, Note_on_c, 0, 64, 53
1, 242172, Note_on_c, 0, 62, 0
1, 242227, Tempo, 438564
1, 242280, Note_on_c, 0, 65, 54
1, 242292, Note_on_c, 0, 64, 0
1, 242400, Tempo, 436745
1, 242400, Note_on_c, 0, 67, 55
1, 242412, Note_on_c, 0, 65, 0
1, 242520, Note_on_c, 0, 69, 57
1, 242532, Note_on_c, 0, 67, 0
1, 242554, Tempo, 434940
1, 242640, Note_on_c, 0, 71, 58
1, 242652, Note_on_c, 0, 69, 0
1, 242707, Tempo, 433182
1, 242760, Note_on_c, 0, 73, 59
1, 242772, Note_on_c, 0, 71, 0
1, 242880, Tempo, 457526
1, 242880, Note_on_c, 0, 74, 62
1, 242892, Note_on_c, 0, 73, 0
1, 243000, Note_on_c, 0, 74, 0
1, 243000, Note_on_c, 0, 69, 58
1, 243040, Tempo, 433182
1, 243120, Note_on_c, 0, 71, 61
1, 243132, Note_on_c, 0, 69, 0
1, 243240, Note_on_c, 0, 73, 64
1, 243252, Note_on_c, 0, 71, 0
1, 243360, Note_on_c, 0, 74, 66
1, 243372, Note_on_c, 0, 73, 0
1, 243480, Note_on_c, 0, 76, 67
1, 243492, Note_on_c, 0, 74, 0
1, 243600, Note_on_c, 0, 77, 68
1, 243612, Note_on_c, 0, 76, 0
1, 243680, Tempo, 441956
1, 243720, Note_on_c, 0, 79, 69
1, 243732, Note_on_c, 0, 77, 0
1, 243840, Tempo, 428878
1, 243840, Note_on_c, 0, 57, 0
1, 243840, Note_on_c, 0, 53, 0
1, 243840, Note_on_c, 0, 81, 70
1, 243840, Note_on_c, 0, 53, 60
1, 243840, Control_c, 0, 64, 0
1, 243852, Note_on_c, 0, 79, 0
1, 243960, Note_on_c, 0, 83, 69
1, 243972, Note_on_c, 0, 81, 0
1, 244080, Note_on_c, 0, 84, 71
1, 244092, Note_on_c, 0, 83, 0
1, 244200, Note_on_c, 0, 83, 69
1, 244212, Note_on_c, 0, 84, 0
1, 244320, Note_on_c, 0, 81, 67
1, 244332, Note_on_c, 0, 83, 0
1, 244440, Note_on_c, 0, 79, 65
1, 244452, Note_on_c, 0, 81, 0
1, 244560, Note_on_c, 0, 53, 0
1, 244560, Note_on_c, 0, 77, 63
1, 244560, Note_on_c, 0, 55, 55
1, 244572, Note_on_c, 0, 79, 0
1, 244640, Tempo, 443656
1, 244680, Note_on_c, 0, 76, 66
1, 244692, Note_on_c, 0, 77, 0
1, 244800, Tempo, 425743
1, 244800, Note_on_c, 0, 76, 0
1, 244800, Note_on_c, 0, 55, 0
1, 244800, Note_on_c, 0, 77, 65
1, 244800, Note_on_c, 0, 57, 60
1, 244920, Note_on_c, 0, 79, 66
1, 244932, Note_on_c, 0, 77, 0
1, 245040, Note_on_c, 0, 81, 67
1, 245052, Note_on_c, 0, 79, 0
1, 245160, Note_on_c, 0, 79, 67
1, 245172, Note_on_c, 0, 81, 0
1, 245280, Note_on_c, 0, 77, 68
1, 245292, Note_on_c, 0, 79, 0
1, 245400, Note_on_c, 0, 76, 71
1, 245412, Note_on_c, 0, 77, 0
1, 245520, Note_on_c, 0, 57, 0
1, 245520, Note_on_c, 0, 74, 73
1, 245520, Note_on_c, 0, 54, 54
1, 245532, Note_on_c, 0, 76, 0
1, 245600, Tempo, 455546
1, 245640, Note_on_c, 0, 72, 76
1, 245652, Note_on_c, 0, 74, 0
1, 245760, Tempo, 432090
1, 245760, Note_on_c, 0, 54, 0
1, 245760, Note_on_c, 0, 71, 78
1, 245760, Note_on_c, 0, 43, 65
1, 245760, Control_c, 0, 64, 127
1, 245772, Note_on_c, 0, 72, 0
1, 245880, Note_on_c, 0, 43, 0
1, 245880, Note_on_c, 0, 71, 0
1, 245880, Note_on_c, 0, 47, 56
1, 246000, Tempo, 430046
1, 246000, Note_on_c, 0, 47, 0
1, 246000, Note_on_c, 0, 79, 71
1, 246000, Note_on_c, 0, 50, 56
1, 246120, Note_on_c, 0, 50, 0
1, 246120, Note_on_c, 0, 79, 0
1, 246120, Note_on_c, 0, 55, 50
1, 246240, Note_on_c, 0, 55, 0
1, 246240, Note_on_c, 0, 76, 71
1, 246240, Note_on_c, 0, 43, 65
1, 246252, Control_c, 0, 64, 0
1, 246339, Control_c, 0, 64, 127
1, 246360, Note_on_c, 0, 43, 0
1, 246360, Note_on_c, 0, 76, 0
1, 246360, Note_on_c, 0, 48, 55
1, 246480, Note_on_c, 0, 48, 0
1, 246480, Note_on_c, 0, 72, 71
1, 246480, Note_on_c, 0, 52, 55
1, 246560, Tempo, 447828
1, 246600, Note_on_c, 0, 52, 0
1, 246600, Note_on_c, 0, 72, 0
1, 246600, Note_on_c, 0, 55, 50
1, 246720, Tempo, 432090
1, 246720, Note_on_c, 0, 55, 0
1, 246720, Note_on_c, 0, 74, 78
1, 246720, Note_on_c, 0, 43, 65
1, 246731, Control_c, 0, 64, 0
1, 246789, Control_c, 0, 64, 127
1, 246840, Note_on_c, 0, 43, 0
1, 246840, Note_on_c, 0, 74, 0
1, 246840, Note_on_c, 0, 47, 55
1, 246960, Tempo, 431624
1, 246960, Note_on_c, 0, 47, 0
1, 246960, Note_on_c, 0, 79, 71
1, 246960, Note_on_c, 0, 50, 55
1, 247080, Note_on_c, 0, 50, 0
1, 247080, Note_on_c, 0, 79, 0
1, 247080, Note_on_c, 0, 55, 54
1, 247200, Note_on_c, 0, 55, 0
1, 247200, Note_on_c, 0, 76, 71
1, 247200, Note_on_c, 0, 43, 65
1, 247210, Control_c, 0, 64, 0
1, 247320, Note_on_c, 0, 43, 0
1, 247320, Note_on_c, 0, 76, 0
1, 247320, Note_on_c, 0, 48, 57
1, 247334, Control_c, 0, 64, 127
1, 247440, Note_on_c, 0, 48, 0
1, 247440, Note_on_c, 0, 72, 71
1, 247440, Note_on_c, 0, 52, 56
1, 247520, Tempo, 445931
1, 247560, Note_on_c, 0, 52, 0
1, 247560, Note_on_c, 0, 72, 0
1, 247560, Note_on_c, 0, 55, 53
1, 247680, Tempo, 474496
1, 247680, Note_on_c, 0, 55, 0
1, 247680, Note_on_c, 0, 74, 81
1, 247680, Note_on_c, 0, 43, 65
1, 247685, Control_c, 0, 64, 0
1, 247800, Note_on_c, 0, 43, 0
1, 247800, Note_on_c, 0, 74, 0
1, 248160, Tempo, 483832
1, 248160, Note_on_c, 0, 74, 71
1, 248160, Note_on_c, 0, 79, 71
1, 248160, Note_on_c, 0, 71, 71
1, 248160, Note_on_c, 0, 55, 59
1, 248280, Note_on_c, 0, 55, 0
1, 248280, Note_on_c, 0, 74, 0
1, 248280, Note_on_c, 0, 79, 0
1, 248280, Note_on_c, 0, 71, 0
1, 248640, Note_on_c, 0, 67, 83
1, 248640, Note_on_c, 0, 43, 61
1, 248753, Control_c, 0, 64, 127
1, 249078, Control_c, 0, 64, 0
1, 249120, Tempo, 453583
1, 249120, Note_on_c, 0, 43, 0
1, 249120, Note_on_c, 0, 67, 0
1, 249600, Tempo, 433244
1, 249600, Note_on_c, 0, 66, 42
1, 249700, Tempo, 434877
1, 249720, Note_on_c, 0, 67, 36
1, 249732, Note_on_c, 0, 66, 0
1, 249805, Tempo, 428449
1, 249840, Note_on_c, 0, 67, 0
1, 249840, Note_on_c, 0, 66, 42
1, 249895, Tempo, 431624
1, 249960, Note_on_c, 0, 67, 36
1, 249972, Note_on_c, 0, 66, 0
1, 250015, Tempo, 430046
1, 250075, Tempo, 431624
1, 250080, Note_on_c, 0, 67, 0
1, 250080, Note_on_c, 0, 66, 42
1, 250165, Tempo, 430046
1, 250200, Note_on_c, 0, 67, 38
1, 250212, Note_on_c, 0, 66, 0
1, 250285, Tempo, 431624
1, 250320, Note_on_c, 0, 67, 0
1, 250320, Note_on_c, 0, 66, 42
1, 250345, Tempo, 428449
1, 250440, Tempo, 453583
1, 250440, Note_on_c, 0, 67, 37
1, 250452, Note_on_c, 0, 66, 0
1, 250560, Tempo, 431624
1, 250560, Note_on_c, 0, 67, 0
1, 250560, Note_on_c, 0, 65, 42
1, 250675, Tempo, 433244
1, 250680, Note_on_c, 0, 67, 36
1, 250692, Note_on_c, 0, 65, 0
1, 250765, Tempo, 428449
1, 250800, Note_on_c, 0, 67, 0
1, 250800, Note_on_c, 0, 65, 42
1, 250855, Tempo, 431624
1, 250920, Note_on_c, 0, 67, 37
1, 250932, Note_on_c, 0, 65, 0
1, 251040, Note_on_c, 0, 67, 0
1, 251040, Note_on_c, 0, 65, 42
1, 251050, Tempo, 428449
1, 251140, Tempo, 433244
1, 251160, Note_on_c, 0, 67, 37
1, 251172, Note_on_c, 0, 65, 0
1, 251275, Tempo, 430046
1, 251280, Note_on_c, 0, 67, 0
1, 251280, Note_on_c, 0, 65, 42
1, 251400, Tempo, 457143
1, 251400, Note_on_c, 0, 67, 38
1, 251412, Note_on_c, 0, 65, 0
1, 251520, Tempo, 434877
1, 251520, Note_on_c, 0, 67, 0
1, 251520, Note_on_c, 0, 79, 61
1, 251520, Note_on_c, 0, 64, 42
1, 251584, Control_c, 0, 64, 127
1, 251640, Note_on_c, 0, 64, 0
1, 251640, Note_on_c, 0, 67, 36
1, 251760, Tempo, 438148
1, 251760, Note_on_c, 0, 67, 0
1, 251760, Note_on_c, 0, 79, 0
1, 251760, Note_on_c, 0, 76, 55
1, 251760, Note_on_c, 0, 64, 42
1, 251880, Note_on_c, 0, 64, 0
1, 251880, Note_on_c, 0, 67, 36
1, 252000, Note_on_c, 0, 67, 0
1, 252000, Note_on_c, 0, 76, 0
1, 252000, Note_on_c, 0, 72, 61
1, 252000, Note_on_c, 0, 64, 42
1, 252120, Note_on_c, 0, 64, 0
1, 252120, Note_on_c, 0, 67, 32
1, 252240, Note_on_c, 0, 67, 0
1, 252240, Note_on_c, 0, 64, 38
1, 252360, Note_on_c, 0, 64, 0
1, 252360, Note_on_c, 0, 67, 33
1, 252480, Tempo, 434877
1, 252480, Note_on_c, 0, 67, 0
1, 252480, Note_on_c, 0, 64, 39
1, 252480, Control_c, 0, 64, 0
1, 252600, Note_on_c, 0, 64, 0
1, 252600, Note_on_c, 0, 67, 32
1, 252720, Tempo, 438148
1, 252720, Note_on_c, 0, 67, 0
1, 252720, Note_on_c, 0, 72, 0
1, 252720, Note_on_c, 0, 74, 53
1, 252720, Note_on_c, 0, 64, 39
1, 252840, Note_on_c, 0, 64, 0
1, 252840, Note_on_c, 0, 74, 0
1, 252840, Note_on_c, 0, 76, 51
1, 252840, Note_on_c, 0, 67, 34
1, 252960, Note_on_c, 0, 67, 0
1, 252960, Note_on_c, 0, 76, 0
1, 252960, Note_on_c, 0, 74, 55
1, 252960, Note_on_c, 0, 64, 42
1, 253080, Note_on_c, 0, 64, 0
1, 253080, Note_on_c, 0, 67, 37
1, 253200, Note_on_c, 0, 67, 0
1, 253200, Note_on_c, 0, 74, 0
1, 253200, Note_on_c, 0, 72, 53
1, 253200, Note_on_c, 0, 64, 42
1, 253320, Note_on_c, 0, 64, 0
1, 253320, Note_on_c, 0, 72, 0
1, 253320, Note_on_c, 0, 67, 38
1, 253440, Tempo, 441501
1, 253440, Note_on_c, 0, 67, 0
1, 253440, Note_on_c, 0, 72, 55
1, 253440, Note_on_c, 0, 65, 46
1, 253475, Control_c, 0, 64, 127
1, 253500, Note_on_c, 0, 72, 0
1, 253500, Note_on_c, 0, 74, 51
1, 253560, Note_on_c, 0, 74, 0
1, 253560, Note_on_c, 0, 65, 0
1, 253560, Note_on_c, 0, 72, 56
1, 253560, Note_on_c, 0, 67, 38
1, 253620, Note_on_c, 0, 72, 0
1, 253620, Note_on_c, 0, 74, 51
1, 253680, Note_on_c, 0, 74, 0
1, 253680, Note_on_c, 0, 67, 0
1, 253680, Note_on_c, 0, 72, 58
1, 253680, Note_on_c, 0, 64, 42
1, 253684, Control_c, 0, 64, 0
1, 253712, Control_c, 0, 64, 127
1, 253800, Note_on_c, 0, 64, 0
1, 253800, Note_on_c, 0, 72, 0
1, 253800, Note_on_c, 0, 71, 52
1, 253800, Note_on_c, 0, 67, 36
1, 253910, Note_on_c, 0, 71, 0
1, 253920, Tempo, 436491
1, 253920, Note_on_c, 0, 67, 0
1, 253920, Note_on_c, 0, 71, 58
1, 253920, Note_on_c, 0, 62, 39
1, 253923, Control_c, 0, 64, 0
1, 254040, Note_on_c, 0, 67, 27
1, 254052, Note_on_c, 0, 62, 0
1, 254160, Note_on_c, 0, 67, 0
1, 254160, Note_on_c, 0, 64, 47
1, 254280, Note_on_c, 0, 67, 35
1, 254292, Note_on_c, 0, 64, 0
1, 254400, Note_on_c, 0, 67, 0
1, 254400, Note_on_c, 0, 71, 0
1, 254400, Note_on_c, 0, 65, 50
1, 254520, Note_on_c, 0, 67, 36
1, 254532, Note_on_c, 0, 65, 0
1, 254640, Note_on_c, 0, 67, 0
1, 254640, Note_on_c, 0, 64, 44
1, 254760, Note_on_c, 0, 67, 30
1, 254772, Note_on_c, 0, 64, 0
1, 254880, Tempo, 439818
1, 254880, Note_on_c, 0, 67, 0
1, 254880, Note_on_c, 0, 65, 52
1, 255000, Note_on_c, 0, 67, 31
1, 255012, Note_on_c, 0, 65, 0
1, 255120, Note_on_c, 0, 67, 0
1, 255120, Note_on_c, 0, 62, 40
1, 255240, Tempo, 473971
1, 255240, Note_on_c, 0, 67, 28
1, 255252, Note_on_c, 0, 62, 0
1, 255360, Tempo, 434877
1, 255360, Note_on_c, 0, 67, 0
1, 255360, Note_on_c, 0, 79, 61
1, 255360, Note_on_c, 0, 64, 42
1, 255424, Control_c, 0, 64, 127
1, 255480, Note_on_c, 0, 64, 0
1, 255480, Note_on_c, 0, 67, 36
1, 255600, Tempo, 438148
1, 255600, Note_on_c, 0, 67, 0
1, 255600, Note_on_c, 0, 79, 0
1, 255600, Note_on_c, 0, 76, 55
1, 255600, Note_on_c, 0, 64, 42
1, 255720, Note_on_c, 0, 64, 0
1, 255720, Note_on_c, 0, 67, 36
1, 255840, Note_on_c, 0, 67, 0
1, 255840, Note_on_c, 0, 76, 0
1, 255840, Note_on_c, 0, 72, 61
1, 255840, Note_on_c, 0, 64, 42
1, 255960, Note_on_c, 0, 64, 0
1, 255960, Note_on_c, 0, 67, 32
1, 256080, Note_on_c, 0, 67, 0
1, 256080, Note_on_c, 0, 64, 38
1, 256200, Note_on_c, 0, 64, 0
1, 256200, Note_on_c, 0, 67, 33
1, 256320, Tempo, 434877
1, 256320, Note_on_c, 0, 67, 0
1, 256320, Note_on_c, 0, 64, 39
1, 256320, Control_c, 0, 64, 0
1, 256440, Note_on_c, 0, 64, 0
1, 256440, Note_on_c, 0, 67, 32
1, 256560, Tempo, 438148
1, 256560, Note_on_c, 0, 67, 0
1, 256560, Note_on_c, 0, 72, 0
1, 256560, Note_on_c, 0, 74, 53
1, 256560, Note_on_c, 0, 64, 39
1, 256680, Note_on_c, 0, 64, 0
1, 256680, Note_on_c, 0, 74, 0
1, 256680, Note_on_c, 0, 76, 51
1, 256680, Note_on_c, 0, 67, 34
1, 256800, Note_on_c, 0, 67, 0
1, 256800, Note_on_c, 0, 76, 0
1, 256800, Note_on_c, 0, 74, 55
1, 256800, Note_on_c, 0, 64, 42
1, 256920, Note_on_c, 0, 64, 0
1, 256920, Note_on_c, 0, 67, 37
1, 257040, Note_on_c, 0, 67, 0
1, 257040, Note_on_c, 0, 74, 0
1, 257040, Note_on_c, 0, 72, 53
1, 257040, Note_on_c, 0, 64, 42
1, 257160, Note_on_c, 0, 64, 0
1, 257160, Note_on_c, 0, 72, 0
1, 257160, Note_on_c, 0, 67, 38
1, 257280, Tempo, 441501
1, 257280, Note_on_c, 0, 67, 0
1, 257280, Note_on_c, 0, 72, 55
1, 257280, Note_on_c, 0, 65, 42
1, 257315, Control_c, 0, 64, 127
1, 257340, Note_on_c, 0, 72, 0
1, 257340, Note_on_c, 0, 74, 51
1, 257400, Note_on_c, 0, 74, 0
1, 257400, Note_on_c, 0, 65, 0
1, 257400, Note_on_c, 0, 72, 56
1, 257400, Note_on_c, 0, 67, 36
1, 257460, Note_on_c, 0, 72, 0
1, 257460, Note_on_c, 0, 74, 50
1, 257520, Note_on_c, 0, 74, 0
1, 257520, Note_on_c, 0, 67, 0
1, 257520, Note_on_c, 0, 72, 55
1, 257520, Note_on_c, 0, 64, 42
1, 257524, Control_c, 0, 64, 0
1, 257552, Control_c, 0, 64, 127
1, 257640, Note_on_c, 0, 64, 0
1, 257640, Note_on_c, 0, 72, 0
1, 257640, Note_on_c, 0, 71, 52
1, 257640, Note_on_c, 0, 67, 36
1, 257730, Note_on_c, 0, 71, 0
1, 257760, Tempo, 438148
1, 257760, Note_on_c, 0, 67, 0
1, 257760, Note_on_c, 0, 71, 58
1, 257760, Note_on_c, 0, 62, 39
1, 257764, Control_c, 0, 64, 0
1, 257880, Note_on_c, 0, 67, 29
1, 257892, Note_on_c, 0, 62, 0
1, 258000, Note_on_c, 0, 67, 0
1, 258000, Note_on_c, 0, 64, 42
1, 258120, Note_on_c, 0, 67, 32
1, 258132, Note_on_c, 0, 64, 0
1, 258240, Note_on_c, 0, 67, 0
1, 258240, Note_on_c, 0, 71, 0
1, 258240, Note_on_c, 0, 65, 48
1, 258360, Note_on_c, 0, 67, 36
1, 258372, Note_on_c, 0, 65, 0
1, 258480, Note_on_c, 0, 67, 0
1, 258480, Note_on_c, 0, 64, 43
1, 258600, Note_on_c, 0, 67, 30
1, 258612, Note_on_c, 0, 64, 0
1, 258720, Tempo, 439818
1, 258720, Note_on_c, 0, 67, 0
1, 258720, Note_on_c, 0, 65, 48
1, 258840, Note_on_c, 0, 67, 36
1, 258852, Note_on_c, 0, 65, 0
1, 258960, Note_on_c, 0, 67, 0
1, 258960, Note_on_c, 0, 62, 43
1, 259080, Tempo, 468238
1, 259080, Note_on_c, 0, 67, 30
1, 259092, Note_on_c, 0, 62, 0
1, 259200, Tempo, 475888
1, 259200, Note_on_c, 0, 67, 0
1, 259200, Note_on_c, 0, 79, 65
1, 259309, Tempo, 451807
1, 259320, Note_on_c, 0, 52, 37
1, 259320, Control_c, 0, 64, 127
1, 259354, Tempo, 450045
1, 259384, Tempo, 448330
1, 259429, Tempo, 446595
1, 259440, Note_on_c, 0, 52, 0
1, 259440, Note_on_c, 0, 55, 39
1, 259459, Tempo, 444873
1, 259504, Tempo, 443164
1, 259534, Tempo, 441501
1, 259560, Note_on_c, 0, 55, 0
1, 259560, Note_on_c, 0, 60, 37
1, 259564, Tempo, 439818
1, 259680, Tempo, 470109
1, 259680, Note_on_c, 0, 60, 0
1, 259680, Note_on_c, 0, 79, 0
1, 259680, Note_on_c, 0, 64, 45
1, 259800, Tempo, 441501
1, 259800, Note_on_c, 0, 79, 57
1, 259920, Note_on_c, 0, 79, 0
1, 259920, Note_on_c, 0, 76, 62
1, 260040, Note_on_c, 0, 76, 0
1, 260040, Note_on_c, 0, 72, 57
1, 260160, Tempo, 457143
1, 260160, Note_on_c, 0, 72, 0
1, 260160, Note_on_c, 0, 64, 0
1, 260160, Note_on_c, 0, 69, 64
1, 260172, Control_c, 0, 64, 0
1, 260280, Tempo, 439818
1, 260280, Note_on_c, 0, 53, 39
1, 260284, Tempo, 448330
1, 260316, Control_c, 0, 64, 127
1, 260344, Tempo, 446595
1, 260389, Tempo, 444873
1, 260400, Note_on_c, 0, 53, 0
1, 260400, Note_on_c, 0, 57, 41
1, 260434, Tempo, 443164
1, 260479, Tempo, 441501
1, 260520, Note_on_c, 0, 57, 0
1, 260520, Note_on_c, 0, 60, 38
1, 260524, Tempo, 439818
1, 260569, Tempo, 438148
1, 260640, Tempo, 451807
1, 260640, Note_on_c, 0, 60, 0
1, 260640, Note_on_c, 0, 69, 0
1, 260640, Note_on_c, 0, 65, 49
1, 260760, Tempo, 439818
1, 260760, Note_on_c, 0, 69, 57
1, 260880, Note_on_c, 0, 69, 0
1, 260880, Note_on_c, 0, 72, 62
1, 261000, Note_on_c, 0, 72, 0
1, 261000, Note_on_c, 0, 69, 57
1, 261120, Tempo, 475888
1, 261120, Note_on_c, 0, 69, 0
1, 261120, Note_on_c, 0, 65, 0
1, 261120, Note_on_c, 0, 77, 65
1, 261120, Control_c, 0, 64, 0
1, 261177, Control_c, 0, 64, 127
1, 261229, Tempo, 451807
1, 261240, Note_on_c, 0, 50, 37
1, 261274, Tempo, 450045
1, 261319, Tempo, 448330
1, 261349, Tempo, 446595
1, 261360, Note_on_c, 0, 50, 0
1, 261360, Note_on_c, 0, 53, 39
1, 261394, Tempo, 444873
1, 261424, Tempo, 443164
1, 261480, Note_on_c, 0, 53, 0
1, 261480, Note_on_c, 0, 59, 37
1, 261600, Tempo, 427411
1, 261600, Note_on_c, 0, 59, 0
1, 261600, Note_on_c, 0, 77, 0
1, 261600, Note_on_c, 0, 62, 45
1, 261720, Tempo, 441501
1, 261720, Note_on_c, 0, 77, 57
1, 261840, Note_on_c, 0, 77, 0
1, 261840, Note_on_c, 0, 74, 62
1, 261960, Note_on_c, 0, 74, 0
1, 261960, Note_on_c, 0, 71, 57
1, 262080, Tempo, 457143
1, 262080, Note_on_c, 0, 71, 0
1, 262080, Note_on_c, 0, 62, 0
1, 262080, Note_on_c, 0, 67, 64
1, 262092, Control_c, 0, 64, 0
1, 262189, Tempo, 443164
1, 262200, Note_on_c, 0, 52, 39
1, 262236, Control_c, 0, 64, 127
1, 262309, Tempo, 441501
1, 262320, Note_on_c, 0, 52, 0
1, 262320, Note_on_c, 0, 55, 41
1, 262414, Tempo, 439818
1, 262440, Tempo, 468238
1, 262440, Note_on_c, 0, 55, 0
1, 262440, Note_on_c, 0, 59, 38
1, 262560, Tempo, 451807
1, 262560, Note_on_c, 0, 59, 0
1, 262560, Note_on_c, 0, 67, 0
1, 262560, Note_on_c, 0, 64, 49
1, 262680, Tempo, 439818
1, 262680, Note_on_c, 0, 79, 64
1, 262800, Note_on_c, 0, 79, 0
1, 262800, Note_on_c, 0, 83, 67
1, 262920, Note_on_c, 0, 83, 0
1, 262920, Note_on_c, 0, 79, 63
1, 263040, Tempo, 475888
1, 263040, Note_on_c, 0, 79, 0
1, 263040, Note_on_c, 0, 64, 0
1, 263040, Note_on_c, 0, 88, 72
1, 263040, Control_c, 0, 64, 0
1, 263097, Control_c, 0, 64, 127
1, 263160, Tempo, 441501
1, 263160, Note_on_c, 0, 60, 39
1, 263164, Tempo, 448330
1, 263224, Tempo, 446595
1, 263280, Note_on_c, 0, 60, 0
1, 263280, Note_on_c, 0, 64, 42
1, 263284, Tempo, 444873
1, 263329, Tempo, 443164
1, 263389, Tempo, 441501
1, 263400, Note_on_c, 0, 64, 0
1, 263400, Note_on_c, 0, 69, 39
1, 263434, Tempo, 439818
1, 263520, Tempo, 451807
1, 263520, Note_on_c, 0, 69, 0
1, 263520, Note_on_c, 0, 88, 0
1, 263520, Note_on_c, 0, 72, 48
1, 263640, Tempo, 441501
1, 263640, Note_on_c, 0, 88, 61
1, 263760, Note_on_c, 0, 88, 0
1, 263760, Note_on_c, 0, 84, 66
1, 263880, Note_on_c, 0, 84, 0
1, 263880, Note_on_c, 0, 81, 61
1, 264000, Tempo, 457143
1, 264000, Note_on_c, 0, 81, 0
1, 264000, Note_on_c, 0, 72, 0
1, 264000, Note_on_c, 0, 77, 68
1, 264012, Control_c, 0, 64, 0
1, 264109, Tempo, 448330
1, 264120, Note_on_c, 0, 62, 42
1, 264154, Tempo, 446595
1, 264156, Control_c, 0, 64, 127
1, 264199, Tempo, 444873
1, 264240, Note_on_c, 0, 62, 0
1, 264240, Note_on_c, 0, 65, 44
1, 264244, Tempo, 443164
1, 264289, Tempo, 441501
1, 264334, Tempo, 439818
1, 264360, Note_on_c, 0, 65, 0
1, 264360, Note_on_c, 0, 69, 41
1, 264379, Tempo, 438148
1, 264409, Tempo, 436491
1, 264480, Tempo, 451807
1, 264480, Note_on_c, 0, 69, 0
1, 264480, Note_on_c, 0, 77, 0
1, 264480, Note_on_c, 0, 74, 52
1, 264600, Tempo, 439818
1, 264600, Note_on_c, 0, 77, 64
1, 264720, Note_on_c, 0, 77, 0
1, 264720, Note_on_c, 0, 81, 66
1, 264840, Note_on_c, 0, 81, 0
1, 264840, Note_on_c, 0, 77, 64
1, 264960, Tempo, 457143
1, 264960, Note_on_c, 0, 77, 0
1, 264960, Note_on_c, 0, 74, 0
1, 264960, Note_on_c, 0, 86, 73
1, 264960, Control_c, 0, 64, 0
1, 265017, Control_c, 0, 64, 127
1, 265080, Tempo, 441501
1, 265080, Note_on_c, 0, 59, 39
1, 265200, Note_on_c, 0, 59, 0
1, 265200, Note_on_c, 0, 62, 42
1, 265320, Note_on_c, 0, 62, 0
1, 265320, Note_on_c, 0, 67, 39
1, 265440, Tempo, 453583
1, 265440, Note_on_c, 0, 67, 0
1, 265440, Note_on_c, 0, 86, 0
1, 265440, Note_on_c, 0, 71, 48
1, 265560, Tempo, 434877
1, 265560, Note_on_c, 0, 86, 61
1, 265680, Tempo, 434877
1, 265680, Note_on_c, 0, 86, 0
1, 265680, Note_on_c, 0, 83, 66
1, 265800, Tempo, 446595
1, 265800, Note_on_c, 0, 83, 0
1, 265800, Note_on_c, 0, 77, 61
1, 265920, Tempo, 457143
1, 265920, Note_on_c, 0, 77, 0
1, 265920, Note_on_c, 0, 71, 0
1, 265920, Note_on_c, 0, 76, 68
1, 265932, Control_c, 0, 64, 0
1, 266040, Tempo, 439818
1, 266040, Note_on_c, 0, 60, 42
1, 266076, Control_c, 0, 64, 127
1, 266160, Note_on_c, 0, 60, 0
1, 266160, Note_on_c, 0, 64, 44
1, 266280, Note_on_c, 0, 64, 0
1, 266280, Note_on_c, 0, 67, 41
1, 266400, Tempo, 451807
1, 266400, Note_on_c, 0, 67, 0
1, 266400, Note_on_c, 0, 76, 0
1, 266400, Note_on_c, 0, 72, 52
1, 266520, Tempo, 439818
1, 266520, Note_on_c, 0, 84, 61
1, 266640, Note_on_c, 0, 84, 0
1, 266640, Note_on_c, 0, 79, 66
1, 266760, Note_on_c, 0, 79, 0
1, 266760, Note_on_c, 0, 76, 61
1, 266880, Note_on_c, 0, 76, 0
1, 266880, Note_on_c, 0, 72, 0
1, 266880, Note_on_c, 0, 74, 71
1, 266880, Control_c, 0, 64, 0
1, 267120, Note_on_c, 0, 69, 39
1, 267120, Note_on_c, 0, 65, 39
1, 267240, Note_on_c, 0, 65, 0
1, 267240, Note_on_c, 0, 69, 0
1, 267360, Note_on_c, 0, 69, 39
1, 267360, Note_on_c, 0, 65, 39
1, 267480, Note_on_c, 0, 65, 0
1, 267480, Note_on_c, 0, 69, 0
1, 267600, Note_on_c, 0, 65, 39
1, 267600, Note_on_c, 0, 69, 39
1, 267720, Note_on_c, 0, 69, 0
1, 267720, Note_on_c, 0, 65, 0
1, 267780, Note_on_c, 0, 74, 0
1, 267780, Note_on_c, 0, 73, 64
1, 267840, Note_on_c, 0, 73, 0
1, 267840, Note_on_c, 0, 74, 69
1, 267840, Note_on_c, 0, 69, 44
1, 267840, Note_on_c, 0, 65, 44
1, 267960, Note_on_c, 0, 65, 0
1, 267960, Note_on_c, 0, 69, 0
1, 268080, Note_on_c, 0, 65, 40
1, 268080, Note_on_c, 0, 69, 40
1, 268200, Note_on_c, 0, 69, 0
1, 268200, Note_on_c, 0, 65, 0
1, 268260, Note_on_c, 0, 74, 0
1, 268260, Note_on_c, 0, 73, 65
1, 268320, Note_on_c, 0, 73, 0
1, 268320, Note_on_c, 0, 74, 72
1, 268320, Note_on_c, 0, 65, 40
1, 268320, Note_on_c, 0, 69, 40
1, 268440, Note_on_c, 0, 69, 0
1, 268440, Note_on_c, 0, 65, 0
1, 268560, Tempo, 455339
1, 268560, Note_on_c, 0, 65, 41
1, 268560, Note_on_c, 0, 69, 41
1, 268680, Note_on_c, 0, 69, 0
1, 268680, Note_on_c, 0, 65, 0
1, 268800, Tempo, 439818
1, 268800, Note_on_c, 0, 74, 0
1, 268800, Note_on_c, 0, 81, 77
1, 268800, Control_c, 0, 64, 0
1, 269040, Note_on_c, 0, 54, 40
1, 269040, Note_on_c, 0, 63, 40
1, 269040, Note_on_c, 0, 60, 40
1, 269160, Note_on_c, 0, 60, 0
1, 269160, Note_on_c, 0, 63, 0
1, 269160, Note_on_c, 0, 54, 0
1, 269280, Note_on_c, 0, 54, 41
1, 269280, Note_on_c, 0, 63, 41
1, 269280, Note_on_c, 0, 60, 41
1, 269400, Note_on_c, 0, 60, 0
1, 269400, Note_on_c, 0, 63, 0
1, 269400, Note_on_c, 0, 54, 0
1, 269520, Note_on_c, 0, 54, 41
1, 269520, Note_on_c, 0, 60, 41
1, 269520, Note_on_c, 0, 63, 41
1, 269640, Note_on_c, 0, 63, 0
1, 269640, Note_on_c, 0, 60, 0
1, 269640, Note_on_c, 0, 54, 0
1, 269700, Note_on_c, 0, 81, 0
1, 269700, Note_on_c, 0, 80, 69
1, 269760, Note_on_c, 0, 80, 0
1, 269760, Note_on_c, 0, 81, 78
1, 269760, Note_on_c, 0, 54, 47
1, 269760, Note_on_c, 0, 60, 47
1, 269760, Note_on_c, 0, 63, 47
1, 269880, Note_on_c, 0, 63, 0
1, 269880, Note_on_c, 0, 60, 0
1, 269880, Note_on_c, 0, 54, 0
1, 270000, Note_on_c, 0, 54, 43
1, 270000, Note_on_c, 0, 60, 43
1, 270000, Note_on_c, 0, 63, 43
1, 270120, Note_on_c, 0, 63, 0
1, 270120, Note_on_c, 0, 60, 0
1, 270120, Note_on_c, 0, 54, 0
1, 270180, Note_on_c, 0, 81, 0
1, 270180, Note_on_c, 0, 80, 69
1, 270240, Note_on_c, 0, 80, 0
1, 270240, Note_on_c, 0, 81, 79
1, 270240, Note_on_c, 0, 54, 43
1, 270240, Note_on_c, 0, 60, 43
1, 270240, Note_on_c, 0, 63, 43
1, 270360, Note_on_c, 0, 63, 0
1, 270360, Note_on_c, 0, 60, 0
1, 270360, Note_on_c, 0, 54, 0
1, 270480, Tempo, 455339
1, 270480, Note_on_c, 0, 54, 44
1, 270480, Note_on_c, 0, 63, 44
1, 270480, Note_on_c, 0, 60, 44
1, 270600, Note_on_c, 0, 60, 0
1, 270600, Note_on_c, 0, 63, 0
1, 270600, Note_on_c, 0, 54, 0
1, 270720, Note_on_c, 0, 81, 0
1, 270720, Note_on_c, 0, 79, 78
1, 270720, Note_on_c, 0, 55, 54
1, 270770, Control_c, 0, 64, 127
1, 270840, Note_on_c, 0, 55, 0
1, 270840, Note_on_c, 0, 64, 42
1, 270960, Note_on_c, 0, 64, 0
1, 270960, Note_on_c, 0, 79, 0
1, 270960, Note_on_c, 0, 81, 75
1, 270960, Note_on_c, 0, 60, 42
1, 271080, Tempo, 458961
1, 271080, Note_on_c, 0, 60, 0
1, 271080, Note_on_c, 0, 81, 0
1, 271080, Note_on_c, 0, 83, 76
1, 271080, Note_on_c, 0, 64, 42
1, 271200, Tempo, 436491
1, 271200, Note_on_c, 0, 64, 0
1, 271200, Note_on_c, 0, 83, 0
1, 271200, Note_on_c, 0, 84, 79
1, 271200, Note_on_c, 0, 55, 56
1, 271320, Note_on_c, 0, 55, 0
1, 271320, Note_on_c, 0, 84, 0
1, 271320, Note_on_c, 0, 86, 80
1, 271320, Note_on_c, 0, 64, 44
1, 271440, Note_on_c, 0, 64, 0
1, 271440, Note_on_c, 0, 86, 0
1, 271440, Note_on_c, 0, 88, 83
1, 271440, Note_on_c, 0, 60, 42
1, 271560, Note_on_c, 0, 60, 0
1, 271560, Note_on_c, 0, 88, 0
1, 271560, Note_on_c, 0, 86, 82
1, 271560, Note_on_c, 0, 64, 42
1, 271680, Note_on_c, 0, 64, 0
1, 271680, Note_on_c, 0, 86, 0
1, 271680, Note_on_c, 0, 84, 78
1, 271680, Note_on_c, 0, 55, 48
1, 271800, Note_on_c, 0, 55, 0
1, 271800, Note_on_c, 0, 84, 0
1, 271800, Note_on_c, 0, 83, 77
1, 271800, Note_on_c, 0, 64, 42
1, 271920, Note_on_c, 0, 64, 0
1, 271920, Note_on_c, 0, 83, 0
1, 271920, Note_on_c, 0, 81, 75
1, 271920, Note_on_c, 0, 60, 42
1, 272040, Note_on_c, 0, 60, 0
1, 272040, Note_on_c, 0, 81, 0
1, 272040, Note_on_c, 0, 79, 74
1, 272040, Note_on_c, 0, 64, 42
1, 272160, Note_on_c, 0, 64, 0
1, 272160, Note_on_c, 0, 79, 0
1, 272160, Note_on_c, 0, 77, 70
1, 272160, Note_on_c, 0, 55, 49
1, 272224, Control_c, 0, 64, 0
1, 272280, Note_on_c, 0, 55, 0
1, 272280, Note_on_c, 0, 77, 0
1, 272280, Note_on_c, 0, 76, 68
1, 272280, Note_on_c, 0, 64, 42
1, 272287, Control_c, 0, 64, 127
1, 272400, Note_on_c, 0, 64, 0
1, 272400, Note_on_c, 0, 76, 0
1, 272400, Note_on_c, 0, 74, 67
1, 272400, Note_on_c, 0, 60, 42
1, 272520, Tempo, 462606
1, 272520, Note_on_c, 0, 60, 0
1, 272520, Note_on_c, 0, 74, 0
1, 272520, Note_on_c, 0, 72, 65
1, 272520, Note_on_c, 0, 64, 42
1, 272605, Tempo, 475888
1, 272640, Note_on_c, 0, 64, 0
1, 272640, Note_on_c, 0, 72, 0
1, 272640, Note_on_c, 0, 74, 49
1, 272640, Note_on_c, 0, 55, 50
1, 272643, Tempo, 473971
1, 272647, Control_c, 0, 64, 0
1, 272682, Tempo, 472032
1, 272686, Control_c, 0, 64, 127
1, 272700, Note_on_c, 0, 74, 0
1, 272700, Note_on_c, 0, 76, 38
1, 272701, Tempo, 470109
1, 272739, Tempo, 468238
1, 272759, Tempo, 466345
1, 272760, Note_on_c, 0, 76, 0
1, 272760, Note_on_c, 0, 55, 0
1, 272760, Note_on_c, 0, 74, 49
1, 272760, Note_on_c, 0, 65, 42
1, 272797, Tempo, 464468
1, 272820, Note_on_c, 0, 74, 0
1, 272820, Note_on_c, 0, 76, 40
1, 272835, Tempo, 462606
1, 272855, Tempo, 460794
1, 272880, Note_on_c, 0, 76, 0
1, 272880, Note_on_c, 0, 65, 0
1, 272880, Note_on_c, 0, 74, 50
1, 272880, Note_on_c, 0, 59, 42
1, 272893, Tempo, 458961
1, 272912, Tempo, 457143
1, 272940, Note_on_c, 0, 74, 0
1, 272940, Note_on_c, 0, 76, 40
1, 272951, Tempo, 455339
1, 272989, Tempo, 453583
1, 273000, Note_on_c, 0, 76, 0
1, 273000, Note_on_c, 0, 59, 0
1, 273000, Note_on_c, 0, 74, 50
1, 273000, Note_on_c, 0, 65, 42
1, 273008, Tempo, 451807
1, 273047, Tempo, 450045
1, 273060, Note_on_c, 0, 74, 0
1, 273060, Note_on_c, 0, 76, 40
1, 273066, Tempo, 448330
1, 273104, Tempo, 448330
1, 273120, Note_on_c, 0, 76, 0
1, 273120, Note_on_c, 0, 65, 0
1, 273120, Note_on_c, 0, 74, 52
1, 273120, Note_on_c, 0, 55, 49
1, 273143, Tempo, 450045
1, 273180, Note_on_c, 0, 74, 0
1, 273180, Note_on_c, 0, 76, 40
1, 273200, Tempo, 451807
1, 273239, Tempo, 453583
1, 273240, Note_on_c, 0, 76, 0
1, 273240, Note_on_c, 0, 55, 0
1, 273240, Note_on_c, 0, 74, 52
1, 273240, Note_on_c, 0, 65, 42
1, 273296, Tempo, 451807
1, 273300, Note_on_c, 0, 74, 0
1, 273300, Note_on_c, 0, 76, 41
1, 273354, Tempo, 450045
1, 273360, Note_on_c, 0, 76, 0
1, 273360, Note_on_c, 0, 65, 0
1, 273360, Note_on_c, 0, 74, 53
1, 273360, Note_on_c, 0, 59, 42
1, 273411, Tempo, 448330
1, 273420, Note_on_c, 0, 74, 0
1, 273420, Note_on_c, 0, 76, 41
1, 273469, Tempo, 446595
1, 273480, Note_on_c, 0, 76, 0
1, 273480, Note_on_c, 0, 59, 0
1, 273480, Note_on_c, 0, 74, 53
1, 273480, Note_on_c, 0, 65, 42
1, 273507, Tempo, 444873
1, 273540, Note_on_c, 0, 74, 0
1, 273540, Note_on_c, 0, 76, 42
1, 273600, Note_on_c, 0, 76, 0
1, 273600, Note_on_c, 0, 65, 0
1, 273600, Note_on_c, 0, 74, 54
1, 273600, Note_on_c, 0, 55, 48
1, 273660, Note_on_c, 0, 74, 0
1, 273660, Note_on_c, 0, 76, 43
1, 273720, Note_on_c, 0, 76, 0
1, 273720, Note_on_c, 0, 55, 0
1, 273720, Note_on_c, 0, 74, 54
1, 273720, Note_on_c, 0, 65, 42
1, 273780, Note_on_c, 0, 74, 0
1, 273780, Note_on_c, 0, 76, 45
1, 273840, Note_on_c, 0, 76, 0
1, 273840, Note_on_c, 0, 65, 0
1, 273840, Note_on_c, 0, 74, 54
1, 273840, Note_on_c, 0, 59, 42
1, 273900, Note_on_c, 0, 74, 0
1, 273900, Note_on_c, 0, 76, 44
1, 273949, Tempo, 444873
1, 273960, Note_on_c, 0, 76, 0
1, 273960, Note_on_c, 0, 59, 0
1, 273960, Note_on_c, 0, 74, 54
1, 273960, Note_on_c, 0, 65, 42
1, 274007, Tempo, 446595
1, 274020, Note_on_c, 0, 74, 0
1, 274020, Note_on_c, 0, 76, 44
1, 274045, Tempo, 448330
1, 274080, Note_on_c, 0, 76, 0
1, 274080, Note_on_c, 0, 65, 0
1, 274080, Note_on_c, 0, 74, 53
1, 274080, Note_on_c, 0, 55, 49
1, 274083, Tempo, 450045
1, 274140, Note_on_c, 0, 74, 0
1, 274140, Note_on_c, 0, 76, 45
1, 274141, Tempo, 451807
1, 274179, Tempo, 453583
1, 274200, Note_on_c, 0, 76, 0
1, 274200, Note_on_c, 0, 55, 0
1, 274200, Note_on_c, 0, 74, 53
1, 274200, Note_on_c, 0, 65, 42
1, 274218, Tempo, 455339
1, 274256, Tempo, 457143
1, 274260, Note_on_c, 0, 74, 0
1, 274260, Note_on_c, 0, 76, 42
1, 274314, Tempo, 458961
1, 274320, Note_on_c, 0, 76, 0
1, 274320, Note_on_c, 0, 65, 0
1, 274320, Note_on_c, 0, 74, 53
1, 274320, Note_on_c, 0, 59, 42
1, 274352, Tempo, 460794
1, 274391, Tempo, 462606
1, 274400, Note_on_c, 0, 74, 0
1, 274400, Note_on_c, 0, 72, 59
1, 274429, Tempo, 464468
1, 274440, Note_on_c, 0, 59, 0
1, 274440, Note_on_c, 0, 65, 42
1, 274480, Note_on_c, 0, 72, 0
1, 274480, Note_on_c, 0, 74, 58
1, 274560, Note_on_c, 0, 74, 0
1, 274560, Note_on_c, 0, 65, 0
1, 274560, Note_on_c, 0, 72, 69
1, 274560, Note_on_c, 0, 64, 58
1, 274560, Note_on_c, 0, 60, 49
1, 274560, Control_c, 0, 64, 0
1, 275040, Tempo, 458961
1, 275040, Note_on_c, 0, 60, 0
1, 275040, Note_on_c, 0, 64, 0
1, 275040, Note_on_c, 0, 72, 0
1, 275040, Note_on_c, 0, 72, 67
1, 275080, Control_c, 0, 64, 127
1, 275160, Note_on_c, 0, 72, 0
1, 275160, Note_on_c, 0, 67, 59
1, 275280, Note_on_c, 0, 67, 0
1, 275280, Note_on_c, 0, 72, 62
1, 275400, Tempo, 477859
1, 275400, Note_on_c, 0, 72, 0
1, 275400, Note_on_c, 0, 76, 65
1, 275520, Tempo, 457143
1, 275520, Note_on_c, 0, 76, 0
1, 275520, Note_on_c, 0, 79, 68
1, 275640, Note_on_c, 0, 79, 0
1, 275640, Note_on_c, 0, 76, 63
1, 275760, Note_on_c, 0, 76, 0
1, 275760, Note_on_c, 0, 72, 68
1, 275880, Tempo, 466345
1, 275880, Note_on_c, 0, 72, 0
1, 275880, Note_on_c, 0, 76, 63
1, 276000, Tempo, 455339
1, 276000, Note_on_c, 0, 76, 0
1, 276000, Note_on_c, 0, 77, 69
1, 276000, Note_on_c, 0, 55, 40
1, 276000, Note_on_c, 0, 65, 48
1, 276000, Note_on_c, 0, 62, 40
1, 276015, Control_c, 0, 64, 0
1, 276109, Control_c, 0, 64, 127
1, 276120, Note_on_c, 0, 77, 0
1, 276120, Note_on_c, 0, 74, 63
1, 276240, Note_on_c, 0, 74, 0
1, 276240, Note_on_c, 0, 71, 69
1, 276360, Tempo, 477859
1, 276360, Note_on_c, 0, 71, 0
1, 276360, Note_on_c, 0, 74, 63
1, 276480, Tempo, 464468
1, 276480, Note_on_c, 0, 74, 0
1, 276480, Note_on_c, 0, 62, 0
1, 276480, Note_on_c, 0, 65, 0
1, 276480, Note_on_c, 0, 55, 0
1, 276480, Note_on_c, 0, 72, 69
1, 276480, Note_on_c, 0, 64, 58
1, 276480, Note_on_c, 0, 60, 49
1, 276492, Control_c, 0, 64, 0
1, 276960, Tempo, 458961
1, 276960, Note_on_c, 0, 60, 0
1, 276960, Note_on_c, 0, 64, 0
1, 276960, Note_on_c, 0, 72, 0
1, 276960, Note_on_c, 0, 60, 67
1, 276988, Control_c, 0, 64, 127
1, 277080, Note_on_c, 0, 60, 0
1, 277080, Note_on_c, 0, 55, 59
1, 277200, Note_on_c, 0, 55, 0
1, 277200, Note_on_c, 0, 60, 62
1, 277320, Tempo, 477859
1, 277320, Note_on_c, 0, 60, 0
1, 277320, Note_on_c, 0, 64, 65
1, 277440, Tempo, 458961
1, 277440, Note_on_c, 0, 64, 0
1, 277440, Note_on_c, 0, 67, 68
1, 277560, Note_on_c, 0, 67, 0
1, 277560, Note_on_c, 0, 64, 63
1, 277680, Note_on_c, 0, 64, 0
1, 277680, Note_on_c, 0, 60, 68
1, 277800, Tempo, 470109
1, 277800, Note_on_c, 0, 60, 0
1, 277800, Note_on_c, 0, 64, 63
1, 277920, Tempo, 455339
1, 277920, Note_on_c, 0, 64, 0
1, 277920, Note_on_c, 0, 65, 69
1, 277920, Note_on_c, 0, 43, 40
1, 277920, Note_on_c, 0, 50, 40
1, 277920, Note_on_c, 0, 53, 48
1, 277932, Control_c, 0, 64, 0
1, 278029, Control_c, 0, 64, 127
1, 278040, Note_on_c, 0, 65, 0
1, 278040, Note_on_c, 0, 62, 63
1, 278160, Note_on_c, 0, 62, 0
1, 278160, Note_on_c, 0, 59, 69
1, 278280, Tempo, 487924
1, 278280, Note_on_c, 0, 59, 0
1, 278280, Note_on_c, 0, 62, 63
1, 278400, Tempo, 530786
1, 278400, Note_on_c, 0, 62, 0
1, 278400, Note_on_c, 0, 53, 0
1, 278400, Note_on_c, 0, 50, 0
1, 278400, Note_on_c, 0, 43, 0
1, 278400, Note_on_c, 0, 60, 74
1, 278400, Note_on_c, 0, 52, 52
1, 278400, Note_on_c, 0, 48, 44
1, 278405, Control_c, 0, 64, 0
1, 278520, Note_on_c, 0, 60, 0
1, 278520, Note_on_c, 0, 48, 0
1, 278520, Note_on_c, 0, 52, 0
1, 278880, Tempo, 519301
1, 278880, Note_on_c, 0, 79, 75
1, 278880, Note_on_c, 0, 84, 88
1, 278880, Note_on_c, 0, 76, 65
1, 278880, Note_on_c, 0, 60, 59
1, 279000, Note_on_c, 0, 60, 0
1, 279000, Note_on_c, 0, 79, 0
1, 279000, Note_on_c, 0, 84, 0
1, 279000, Note_on_c, 0, 76, 0
1, 279360, Note_on_c, 0, 72, 85
1, 279360, Note_on_c, 0, 48, 58
1, 279360, Note_on_c, 0, 36, 44
1, 279388, Control_c, 0, 64, 127
1, 279840, Note_on_c, 0, 36, 0
1, 279840, Note_on_c, 0, 48, 0
1, 279840, Note_on_c, 0, 72, 0
1, 279883, Control_c, 0, 64, 0
1, 279883, End_track
0, 0, End_of_file
