0, 0, Header, 0, 1, 480
1, 0, Start_track
1, 0, Title_t, "Prelude Opus 32 No. 1"
1, 0, Copyright_t, "Copyright © 2007 by Bernd Krueger"
1, 0, Text_t, "Serge Rachmaninoff"
1, 0, Text_t, "Allegro vivace"
1, 0, Text_t, "Erstellt: 13.2.2007\012"
1, 0, Text_t, "Update: 15.12.2012\012"
1, 0, Text_t, "Dauer: 1:10 Minuten\012"
1, 0, Time_signature, 4, 2, 24, 8
1, 0, Key_signature, 0, "major"
1, 0, Tempo, 483598
1, 0, Program_c, 0, 0
1, 0, Program_c, 0, 0
1, 0, Program_c, 0, 0
1, 480, Tempo, 447761
1, 538, Tempo, 445699
1, 576, Tempo, 443656
1, 634, Tempo, 441631
1, 672, Tempo, 439625
1, 730, Tempo, 437637
1, 768, Tempo, 435667
1, 826, Tempo, 433714
1, 864, Tempo, 431779
1, 902, Tempo, 429861
1, 932, Control_c, 0, 64, 127
1, 960, Tempo, 427960
1, 960, Note_on_c, 0, 24, 80
1, 979, Tempo, 424208
1, 1018, Tempo, 422357
1, 1037, Tempo, 420521
1, 1056, Tempo, 418702
1, 1075, Tempo, 416898
1, 1094, Tempo, 415110
1, 1120, Note_on_c, 0, 24, 0
1, 1120, Note_on_c, 0, 36, 80
1, 1133, Tempo, 413337
1, 1152, Tempo, 411579
1, 1171, Tempo, 409836
1, 1190, Tempo, 408108
1, 1210, Tempo, 406394
1, 1248, Tempo, 404694
1, 1267, Tempo, 403009
1, 1280, Note_on_c, 0, 36, 0
1, 1280, Note_on_c, 0, 43, 76
1, 1286, Tempo, 401338
1, 1306, Tempo, 399654
1, 1325, Tempo, 398010
1, 1363, Tempo, 396380
1, 1382, Tempo, 394763
1, 1402, Tempo, 393159
1, 1421, Tempo, 391568
1, 1440, Tempo, 389990
1, 1440, Note_on_c, 0, 43, 0
1, 1440, Note_on_c, 0, 48, 82
1, 1478, Tempo, 388425
1, 1498, Tempo, 386872
1, 1517, Tempo, 385332
1, 1536, Tempo, 383803
1, 1555, Tempo, 382287
1, 1594, Tempo, 380783
1, 1600, Note_on_c, 0, 48, 0
1, 1600, Note_on_c, 0, 52, 84
1, 1613, Tempo, 379291
1, 1632, Tempo, 377810
1, 1651, Tempo, 376341
1, 1670, Tempo, 374883
1, 1709, Tempo, 373436
1, 1728, Tempo, 372001
1, 1747, Tempo, 370576
1, 1760, Note_on_c, 0, 52, 0
1, 1760, Note_on_c, 0, 55, 88
1, 1766, Tempo, 369163
1, 1786, Tempo, 367760
1, 1824, Tempo, 366367
1, 1843, Tempo, 364986
1, 1862, Tempo, 363614
1, 1882, Tempo, 362253
1, 1920, Tempo, 388425
1, 1920, Note_on_c, 0, 55, 0
1, 1920, Note_on_c, 0, 44, 92
1, 1920, Note_on_c, 0, 56, 99
1, 1923, Control_c, 0, 64, 0
1, 1994, Control_c, 0, 64, 127
1, 2240, Note_on_c, 0, 61, 46
1, 2240, Note_on_c, 0, 64, 54
1, 2320, Note_on_c, 0, 64, 0
1, 2320, Note_on_c, 0, 61, 0
1, 2344, Control_c, 0, 64, 0
1, 2393, Control_c, 0, 64, 127
1, 2400, Tempo, 356888
1, 2400, Note_on_c, 0, 61, 51
1, 2400, Note_on_c, 0, 64, 60
1, 2400, Note_on_c, 0, 49, 53
1, 2560, Note_on_c, 0, 49, 0
1, 2560, Note_on_c, 0, 61, 0
1, 2560, Note_on_c, 0, 64, 0
1, 2560, Note_on_c, 0, 60, 55
1, 2560, Note_on_c, 0, 48, 50
1, 2640, Note_on_c, 0, 48, 0
1, 2640, Note_on_c, 0, 60, 0
1, 2720, Tempo, 415110
1, 2720, Note_on_c, 0, 61, 47
1, 2720, Note_on_c, 0, 65, 56
1, 2720, Note_on_c, 0, 47, 51
1, 2800, Note_on_c, 0, 47, 0
1, 2800, Note_on_c, 0, 61, 0
1, 2800, Note_on_c, 0, 65, 0
1, 2880, Tempo, 358209
1, 2880, Note_on_c, 0, 61, 55
1, 2880, Note_on_c, 0, 65, 64
1, 2880, Note_on_c, 0, 46, 57
1, 2887, Control_c, 0, 64, 0
1, 2933, Control_c, 0, 64, 127
1, 3040, Note_on_c, 0, 46, 0
1, 3040, Note_on_c, 0, 61, 0
1, 3040, Note_on_c, 0, 65, 0
1, 3040, Note_on_c, 0, 60, 58
1, 3040, Note_on_c, 0, 45, 53
1, 3120, Note_on_c, 0, 45, 0
1, 3120, Note_on_c, 0, 60, 0
1, 3198, Note_on_c, 0, 44, 0
1, 3200, Tempo, 411579
1, 3200, Note_on_c, 0, 62, 50
1, 3200, Note_on_c, 0, 66, 59
1, 3200, Note_on_c, 0, 44, 54
1, 3280, Note_on_c, 0, 44, 0
1, 3280, Note_on_c, 0, 66, 0
1, 3280, Note_on_c, 0, 62, 0
1, 3360, Tempo, 354003
1, 3360, Note_on_c, 0, 62, 58
1, 3360, Note_on_c, 0, 66, 68
1, 3360, Note_on_c, 0, 36, 61
1, 3367, Control_c, 0, 64, 0
1, 3434, Control_c, 0, 64, 127
1, 3520, Note_on_c, 0, 36, 0
1, 3520, Note_on_c, 0, 66, 0
1, 3520, Note_on_c, 0, 62, 0
1, 3520, Note_on_c, 0, 60, 60
1, 3520, Note_on_c, 0, 44, 53
1, 3600, Note_on_c, 0, 44, 0
1, 3600, Note_on_c, 0, 60, 0
1, 3680, Tempo, 409836
1, 3680, Note_on_c, 0, 63, 52
1, 3680, Note_on_c, 0, 67, 62
1, 3680, Note_on_c, 0, 51, 55
1, 3760, Note_on_c, 0, 51, 0
1, 3760, Note_on_c, 0, 67, 0
1, 3760, Note_on_c, 0, 63, 0
1, 3840, Tempo, 350898
1, 3840, Note_on_c, 0, 56, 0
1, 3840, Note_on_c, 0, 63, 61
1, 3840, Note_on_c, 0, 67, 72
1, 3840, Note_on_c, 0, 60, 63
1, 3846, Control_c, 0, 64, 0
1, 3897, Control_c, 0, 64, 127
1, 4000, Note_on_c, 0, 60, 0
1, 4000, Note_on_c, 0, 67, 0
1, 4000, Note_on_c, 0, 63, 0
1, 4000, Note_on_c, 0, 62, 63
1, 4000, Note_on_c, 0, 58, 55
1, 4080, Note_on_c, 0, 58, 0
1, 4080, Note_on_c, 0, 62, 0
1, 4160, Tempo, 406394
1, 4160, Note_on_c, 0, 63, 53
1, 4160, Note_on_c, 0, 67, 64
1, 4160, Note_on_c, 0, 56, 60
1, 4240, Note_on_c, 0, 56, 0
1, 4240, Note_on_c, 0, 67, 0
1, 4240, Note_on_c, 0, 63, 0
1, 4320, Tempo, 347846
1, 4320, Note_on_c, 0, 64, 64
1, 4320, Note_on_c, 0, 67, 76
1, 4320, Note_on_c, 0, 55, 67
1, 4327, Control_c, 0, 64, 0
1, 4359, Control_c, 0, 64, 127
1, 4480, Note_on_c, 0, 55, 0
1, 4480, Note_on_c, 0, 67, 0
1, 4480, Note_on_c, 0, 64, 0
1, 4480, Note_on_c, 0, 62, 66
1, 4480, Note_on_c, 0, 53, 61
1, 4640, Tempo, 409836
1, 4640, Note_on_c, 0, 53, 0
1, 4640, Note_on_c, 0, 62, 0
1, 4640, Note_on_c, 0, 64, 56
1, 4640, Note_on_c, 0, 67, 67
1, 4640, Note_on_c, 0, 52, 62
1, 4800, Tempo, 356888
1, 4800, Note_on_c, 0, 52, 0
1, 4800, Note_on_c, 0, 60, 79
1, 4800, Note_on_c, 0, 72, 96
1, 4800, Note_on_c, 0, 52, 75
1, 4811, Control_c, 0, 64, 0
1, 4912, Control_c, 0, 64, 127
1, 4960, Note_on_c, 0, 52, 0
1, 4960, Note_on_c, 0, 43, 64
1, 5120, Note_on_c, 0, 43, 0
1, 5120, Note_on_c, 0, 36, 66
1, 5242, Tempo, 376341
1, 5280, Tempo, 374883
1, 5280, Note_on_c, 0, 36, 0
1, 5280, Note_on_c, 0, 60, 0
1, 5280, Note_on_c, 0, 64, 0
1, 5280, Note_on_c, 0, 67, 0
1, 5280, Note_on_c, 0, 72, 0
1, 5280, Note_on_c, 0, 43, 76
1, 5301, Control_c, 0, 64, 0
1, 5318, Tempo, 373436
1, 5338, Tempo, 372001
1, 5358, Control_c, 0, 64, 127
1, 5376, Tempo, 370576
1, 5395, Tempo, 369163
1, 5400, Note_on_c, 0, 43, 0
1, 5400, Note_on_c, 0, 48, 76
1, 5434, Tempo, 367760
1, 5453, Tempo, 366367
1, 5491, Tempo, 364986
1, 5510, Tempo, 363614
1, 5520, Note_on_c, 0, 48, 0
1, 5520, Note_on_c, 0, 52, 76
1, 5549, Tempo, 362253
1, 5568, Tempo, 360902
1, 5606, Tempo, 359540
1, 5626, Tempo, 358209
1, 5640, Note_on_c, 0, 52, 0
1, 5640, Note_on_c, 0, 55, 76
1, 5664, Tempo, 356888
1, 5683, Tempo, 355577
1, 5722, Tempo, 354275
1, 5741, Tempo, 352983
1, 5760, Tempo, 359540
1, 5760, Note_on_c, 0, 55, 0
1, 5760, Note_on_c, 0, 44, 92
1, 5760, Note_on_c, 0, 56, 99
1, 5763, Control_c, 0, 64, 0
1, 5834, Control_c, 0, 64, 127
1, 6080, Note_on_c, 0, 61, 46
1, 6080, Note_on_c, 0, 64, 54
1, 6160, Note_on_c, 0, 64, 0
1, 6160, Note_on_c, 0, 61, 0
1, 6184, Control_c, 0, 64, 0
1, 6233, Control_c, 0, 64, 127
1, 6240, Note_on_c, 0, 61, 51
1, 6240, Note_on_c, 0, 64, 60
1, 6240, Note_on_c, 0, 49, 53
1, 6400, Note_on_c, 0, 49, 0
1, 6400, Note_on_c, 0, 61, 0
1, 6400, Note_on_c, 0, 64, 0
1, 6400, Note_on_c, 0, 60, 55
1, 6400, Note_on_c, 0, 48, 50
1, 6480, Note_on_c, 0, 48, 0
1, 6480, Note_on_c, 0, 60, 0
1, 6560, Tempo, 415110
1, 6560, Note_on_c, 0, 61, 47
1, 6560, Note_on_c, 0, 65, 56
1, 6560, Note_on_c, 0, 47, 51
1, 6640, Note_on_c, 0, 47, 0
1, 6640, Note_on_c, 0, 61, 0
1, 6640, Note_on_c, 0, 65, 0
1, 6720, Tempo, 358209
1, 6720, Note_on_c, 0, 61, 55
1, 6720, Note_on_c, 0, 65, 64
1, 6720, Note_on_c, 0, 46, 57
1, 6727, Control_c, 0, 64, 0
1, 6773, Control_c, 0, 64, 127
1, 6880, Note_on_c, 0, 46, 0
1, 6880, Note_on_c, 0, 61, 0
1, 6880, Note_on_c, 0, 65, 0
1, 6880, Note_on_c, 0, 60, 58
1, 6880, Note_on_c, 0, 45, 53
1, 6960, Note_on_c, 0, 45, 0
1, 6960, Note_on_c, 0, 60, 0
1, 7038, Note_on_c, 0, 44, 0
1, 7040, Tempo, 411579
1, 7040, Note_on_c, 0, 62, 50
1, 7040, Note_on_c, 0, 66, 59
1, 7040, Note_on_c, 0, 44, 54
1, 7120, Note_on_c, 0, 44, 0
1, 7120, Note_on_c, 0, 66, 0
1, 7120, Note_on_c, 0, 62, 0
1, 7200, Tempo, 350857
1, 7200, Note_on_c, 0, 62, 57
1, 7200, Note_on_c, 0, 66, 68
1, 7200, Note_on_c, 0, 36, 60
1, 7207, Control_c, 0, 64, 0
1, 7274, Control_c, 0, 64, 127
1, 7360, Note_on_c, 0, 36, 0
1, 7360, Note_on_c, 0, 66, 0
1, 7360, Note_on_c, 0, 62, 0
1, 7360, Note_on_c, 0, 60, 60
1, 7360, Note_on_c, 0, 44, 53
1, 7440, Note_on_c, 0, 44, 0
1, 7440, Note_on_c, 0, 60, 0
1, 7520, Tempo, 409836
1, 7520, Note_on_c, 0, 63, 52
1, 7520, Note_on_c, 0, 67, 62
1, 7520, Note_on_c, 0, 51, 55
1, 7600, Note_on_c, 0, 51, 0
1, 7600, Note_on_c, 0, 67, 0
1, 7600, Note_on_c, 0, 63, 0
1, 7680, Tempo, 342838
1, 7680, Note_on_c, 0, 56, 0
1, 7680, Note_on_c, 0, 63, 61
1, 7680, Note_on_c, 0, 67, 72
1, 7680, Note_on_c, 0, 60, 63
1, 7686, Control_c, 0, 64, 0
1, 7737, Control_c, 0, 64, 127
1, 7840, Note_on_c, 0, 60, 0
1, 7840, Note_on_c, 0, 67, 0
1, 7840, Note_on_c, 0, 63, 0
1, 7840, Note_on_c, 0, 62, 63
1, 7840, Note_on_c, 0, 58, 55
1, 7920, Note_on_c, 0, 58, 0
1, 7920, Note_on_c, 0, 62, 0
1, 8000, Tempo, 406394
1, 8000, Note_on_c, 0, 63, 53
1, 8000, Note_on_c, 0, 67, 64
1, 8000, Note_on_c, 0, 56, 60
1, 8080, Note_on_c, 0, 56, 0
1, 8080, Note_on_c, 0, 67, 0
1, 8080, Note_on_c, 0, 63, 0
1, 8160, Tempo, 338009
1, 8160, Note_on_c, 0, 64, 64
1, 8160, Note_on_c, 0, 67, 76
1, 8160, Note_on_c, 0, 55, 67
1, 8167, Control_c, 0, 64, 0
1, 8199, Control_c, 0, 64, 127
1, 8320, Note_on_c, 0, 55, 0
1, 8320, Note_on_c, 0, 67, 0
1, 8320, Note_on_c, 0, 64, 0
1, 8320, Note_on_c, 0, 62, 66
1, 8320, Note_on_c, 0, 53, 61
1, 8480, Tempo, 433182
1, 8480, Note_on_c, 0, 53, 0
1, 8480, Note_on_c, 0, 62, 0
1, 8480, Note_on_c, 0, 64, 56
1, 8480, Note_on_c, 0, 67, 67
1, 8480, Note_on_c, 0, 52, 62
1, 8640, Tempo, 402685
1, 8640, Note_on_c, 0, 52, 0
1, 8640, Note_on_c, 0, 60, 79
1, 8640, Note_on_c, 0, 72, 96
1, 8640, Note_on_c, 0, 52, 75
1, 8651, Control_c, 0, 64, 0
1, 8743, Control_c, 0, 64, 127
1, 8800, Note_on_c, 0, 52, 0
1, 8800, Note_on_c, 0, 43, 64
1, 8960, Note_on_c, 0, 43, 0
1, 8960, Note_on_c, 0, 36, 66
1, 9120, Tempo, 374883
1, 9120, Note_on_c, 0, 36, 0
1, 9120, Note_on_c, 0, 60, 0
1, 9120, Note_on_c, 0, 64, 0
1, 9120, Note_on_c, 0, 67, 0
1, 9120, Note_on_c, 0, 72, 0
1, 9120, Note_on_c, 0, 35, 66
1, 9120, Note_on_c, 0, 47, 78
1, 9139, Tempo, 378549
1, 9141, Control_c, 0, 64, 0
1, 9178, Tempo, 377358
1, 9198, Control_c, 0, 64, 127
1, 9216, Tempo, 376176
1, 9235, Tempo, 375000
1, 9274, Tempo, 373832
1, 9280, Note_on_c, 0, 47, 0
1, 9280, Note_on_c, 0, 35, 0
1, 9280, Note_on_c, 0, 34, 69
1, 9280, Note_on_c, 0, 46, 82
1, 9312, Tempo, 372671
1, 9331, Tempo, 371517
1, 9370, Tempo, 370370
1, 9408, Tempo, 369231
1, 9427, Tempo, 368098
1, 9440, Note_on_c, 0, 46, 0
1, 9440, Note_on_c, 0, 34, 0
1, 9440, Note_on_c, 0, 33, 72
1, 9440, Note_on_c, 0, 45, 85
1, 9466, Tempo, 366972
1, 9504, Tempo, 365854
1, 9523, Tempo, 364742
1, 9562, Tempo, 363636
1, 9581, Tempo, 362538
1, 9600, Tempo, 466926
1, 9600, Note_on_c, 0, 45, 0
1, 9600, Note_on_c, 0, 33, 0
1, 9600, Note_on_c, 0, 32, 78
1, 9600, Note_on_c, 0, 44, 99
1, 9606, Control_c, 0, 64, 0
1, 9697, Control_c, 0, 64, 127
1, 10080, Tempo, 352941
1, 10080, Tempo, 369231
1, 10080, Note_on_c, 0, 71, 54
1, 10080, Note_on_c, 0, 76, 64
1, 10080, Note_on_c, 0, 52, 45
1, 10080, Note_on_c, 0, 60, 53
1, 10091, Control_c, 0, 64, 0
1, 10176, Tempo, 368098
1, 10229, Control_c, 0, 64, 127
1, 10240, Note_on_c, 0, 71, 0
1, 10240, Note_on_c, 0, 72, 54
1, 10240, Note_on_c, 0, 55, 40
1, 10272, Tempo, 366972
1, 10368, Tempo, 365854
1, 10400, Note_on_c, 0, 55, 0
1, 10400, Note_on_c, 0, 72, 0
1, 10400, Note_on_c, 0, 64, 58
1, 10400, Note_on_c, 0, 56, 40
1, 10445, Tempo, 364742
1, 10541, Tempo, 363636
1, 10560, Note_on_c, 0, 56, 0
1, 10560, Note_on_c, 0, 60, 0
1, 10560, Note_on_c, 0, 52, 0
1, 10560, Note_on_c, 0, 76, 0
1, 10560, Note_on_c, 0, 64, 0
1, 10560, Note_on_c, 0, 72, 58
1, 10560, Note_on_c, 0, 77, 69
1, 10560, Note_on_c, 0, 53, 47
1, 10560, Note_on_c, 0, 61, 56
1, 10569, Control_c, 0, 64, 0
1, 10637, Tempo, 362538
1, 10669, Control_c, 0, 64, 127
1, 10714, Tempo, 361446
1, 10720, Note_on_c, 0, 72, 0
1, 10720, Note_on_c, 0, 73, 61
1, 10799, Note_on_c, 0, 44, 0
1, 10800, Note_on_c, 0, 44, 43
1, 10810, Tempo, 360360
1, 10880, Note_on_c, 0, 73, 0
1, 10880, Note_on_c, 0, 65, 62
1, 10906, Tempo, 359281
1, 10982, Tempo, 358209
1, 11040, Note_on_c, 0, 65, 0
1, 11040, Note_on_c, 0, 61, 0
1, 11040, Note_on_c, 0, 77, 0
1, 11040, Note_on_c, 0, 53, 0
1, 11040, Note_on_c, 0, 73, 62
1, 11040, Note_on_c, 0, 78, 73
1, 11040, Note_on_c, 0, 54, 49
1, 11040, Note_on_c, 0, 62, 58
1, 11050, Control_c, 0, 64, 0
1, 11078, Tempo, 357143
1, 11174, Tempo, 356083
1, 11177, Control_c, 0, 64, 127
1, 11200, Note_on_c, 0, 73, 0
1, 11200, Note_on_c, 0, 74, 65
1, 11200, Note_on_c, 0, 58, 48
1, 11251, Tempo, 355030
1, 11347, Tempo, 353982
1, 11360, Note_on_c, 0, 58, 0
1, 11360, Note_on_c, 0, 74, 0
1, 11360, Note_on_c, 0, 66, 66
1, 11360, Note_on_c, 0, 59, 48
1, 11443, Tempo, 352941
1, 11520, Tempo, 351906
1, 11520, Note_on_c, 0, 59, 0
1, 11520, Note_on_c, 0, 62, 0
1, 11520, Note_on_c, 0, 32, 0
1, 11520, Note_on_c, 0, 78, 0
1, 11520, Note_on_c, 0, 44, 0
1, 11520, Note_on_c, 0, 66, 0
1, 11520, Note_on_c, 0, 54, 0
1, 11520, Note_on_c, 0, 74, 66
1, 11520, Note_on_c, 0, 79, 78
1, 11520, Note_on_c, 0, 55, 51
1, 11520, Note_on_c, 0, 63, 61
1, 11526, Control_c, 0, 64, 0
1, 11629, Control_c, 0, 64, 127
1, 11680, Note_on_c, 0, 74, 0
1, 11680, Note_on_c, 0, 75, 68
1, 11680, Note_on_c, 0, 59, 50
1, 11840, Note_on_c, 0, 59, 0
1, 11840, Note_on_c, 0, 75, 0
1, 11840, Note_on_c, 0, 67, 68
1, 11840, Note_on_c, 0, 60, 61
1, 12000, Tempo, 350877
1, 12000, Note_on_c, 0, 60, 0
1, 12000, Note_on_c, 0, 63, 0
1, 12000, Note_on_c, 0, 79, 0
1, 12000, Note_on_c, 0, 55, 0
1, 12000, Note_on_c, 0, 67, 0
1, 12000, Note_on_c, 0, 75, 70
1, 12000, Note_on_c, 0, 80, 83
1, 12000, Note_on_c, 0, 56, 53
1, 12000, Note_on_c, 0, 64, 63
1, 12013, Control_c, 0, 64, 0
1, 12086, Control_c, 0, 64, 127
1, 12160, Note_on_c, 0, 56, 0
1, 12160, Note_on_c, 0, 75, 0
1, 12160, Note_on_c, 0, 76, 71
1, 12160, Note_on_c, 0, 60, 53
1, 12320, Tempo, 396040
1, 12320, Note_on_c, 0, 60, 0
1, 12320, Note_on_c, 0, 76, 0
1, 12320, Note_on_c, 0, 68, 71
1, 12320, Note_on_c, 0, 61, 53
1, 12480, Tempo, 351906
1, 12480, Note_on_c, 0, 61, 0
1, 12480, Note_on_c, 0, 64, 0
1, 12480, Note_on_c, 0, 80, 0
1, 12480, Note_on_c, 0, 68, 0
1, 12480, Note_on_c, 0, 85, 88
1, 12480, Note_on_c, 0, 65, 65
1, 12497, Control_c, 0, 64, 0
1, 12589, Control_c, 0, 64, 127
1, 12640, Note_on_c, 0, 68, 41
1, 12640, Note_on_c, 0, 72, 49
1, 12800, Note_on_c, 0, 72, 0
1, 12800, Note_on_c, 0, 68, 0
1, 12800, Note_on_c, 0, 77, 41
1, 12800, Note_on_c, 0, 80, 49
1, 12800, Note_on_c, 0, 73, 41
1, 12960, Note_on_c, 0, 73, 0
1, 12960, Note_on_c, 0, 77, 0
1, 12960, Note_on_c, 0, 85, 0
1, 12960, Note_on_c, 0, 65, 0
1, 12960, Note_on_c, 0, 80, 0
1, 12960, Note_on_c, 0, 84, 84
1, 12963, Note_on_c, 0, 66, 65
1, 12968, Control_c, 0, 64, 0
1, 13040, Control_c, 0, 64, 127
1, 13120, Note_on_c, 0, 69, 41
1, 13120, Note_on_c, 0, 74, 49
1, 13280, Note_on_c, 0, 74, 0
1, 13280, Note_on_c, 0, 69, 0
1, 13280, Note_on_c, 0, 72, 41
1, 13280, Note_on_c, 0, 75, 41
1, 13280, Note_on_c, 0, 81, 49
1, 13440, Tempo, 348837
1, 13440, Note_on_c, 0, 81, 0
1, 13440, Note_on_c, 0, 72, 0
1, 13440, Note_on_c, 0, 75, 0
1, 13440, Note_on_c, 0, 84, 0
1, 13440, Note_on_c, 0, 79, 89
1, 13440, Note_on_c, 0, 55, 50
1, 13440, Note_on_c, 0, 60, 50
1, 13440, Note_on_c, 0, 64, 59
1, 13440, Control_c, 0, 64, 0
1, 13443, Note_on_c, 0, 66, 0
1, 13583, Control_c, 0, 64, 127
1, 13600, Note_on_c, 0, 79, 0
1, 13600, Note_on_c, 0, 72, 63
1, 13760, Tempo, 394737
1, 13760, Note_on_c, 0, 72, 0
1, 13760, Note_on_c, 0, 67, 63
1, 13920, Tempo, 347826
1, 13920, Note_on_c, 0, 67, 0
1, 13920, Note_on_c, 0, 60, 0
1, 13920, Note_on_c, 0, 55, 0
1, 13920, Note_on_c, 0, 64, 0
1, 13920, Note_on_c, 0, 66, 75
1, 14080, Note_on_c, 0, 66, 0
1, 14080, Note_on_c, 0, 69, 61
1, 14240, Note_on_c, 0, 69, 0
1, 14240, Note_on_c, 0, 67, 61
1, 14400, Note_on_c, 0, 67, 0
1, 14400, Note_on_c, 0, 64, 65
1, 14412, Control_c, 0, 64, 0
1, 14503, Control_c, 0, 64, 127
1, 14560, Tempo, 366950
1, 14560, Note_on_c, 0, 64, 0
1, 14560, Note_on_c, 0, 60, 59
1, 14720, Note_on_c, 0, 60, 0
1, 14720, Note_on_c, 0, 59, 59
1, 14880, Tempo, 410931
1, 14880, Note_on_c, 0, 65, 47
1, 14880, Note_on_c, 0, 67, 53
1, 14880, Note_on_c, 0, 57, 49
1, 15040, Note_on_c, 0, 57, 0
1, 15040, Note_on_c, 0, 55, 41
1, 15200, Tempo, 347826
1, 15200, Note_on_c, 0, 55, 0
1, 15200, Note_on_c, 0, 53, 41
1, 15264, Tempo, 344828
1, 15322, Tempo, 345821
1, 15360, Tempo, 346821
1, 15360, Note_on_c, 0, 53, 0
1, 15360, Note_on_c, 0, 59, 0
1, 15360, Note_on_c, 0, 65, 0
1, 15360, Note_on_c, 0, 67, 0
1, 15360, Note_on_c, 0, 55, 49
1, 15360, Note_on_c, 0, 60, 49
1, 15360, Note_on_c, 0, 67, 58
1, 15360, Note_on_c, 0, 52, 46
1, 15369, Control_c, 0, 64, 0
1, 15418, Tempo, 347826
1, 15456, Tempo, 348837
1, 15480, Control_c, 0, 64, 127
1, 15514, Tempo, 349854
1, 15520, Note_on_c, 0, 52, 0
1, 15520, Note_on_c, 0, 48, 36
1, 15552, Tempo, 350877
1, 15590, Tempo, 351906
1, 15648, Tempo, 352941
1, 15680, Note_on_c, 0, 48, 0
1, 15680, Note_on_c, 0, 43, 36
1, 15686, Tempo, 353982
1, 15744, Tempo, 355030
1, 15782, Tempo, 356083
1, 15840, Tempo, 357143
1, 15840, Note_on_c, 0, 43, 0
1, 15840, Note_on_c, 0, 42, 45
1, 15878, Tempo, 358209
1, 15917, Tempo, 359281
1, 15974, Tempo, 360360
1, 16000, Note_on_c, 0, 42, 0
1, 16000, Note_on_c, 0, 45, 34
1, 16013, Tempo, 361446
1, 16070, Tempo, 362538
1, 16109, Tempo, 363636
1, 16160, Note_on_c, 0, 45, 0
1, 16160, Note_on_c, 0, 43, 35
1, 16166, Tempo, 364742
1, 16205, Tempo, 365854
1, 16243, Tempo, 366972
1, 16301, Tempo, 368098
1, 16320, Note_on_c, 0, 43, 0
1, 16320, Note_on_c, 0, 36, 45
1, 16331, Control_c, 0, 64, 0
1, 16339, Tempo, 369231
1, 16389, Control_c, 0, 64, 127
1, 16397, Tempo, 370370
1, 16435, Tempo, 371517
1, 16480, Note_on_c, 0, 36, 0
1, 16480, Note_on_c, 0, 42, 36
1, 16493, Tempo, 372671
1, 16531, Tempo, 373832
1, 16570, Tempo, 375000
1, 16627, Tempo, 376176
1, 16640, Note_on_c, 0, 42, 0
1, 16640, Note_on_c, 0, 43, 38
1, 16666, Tempo, 377358
1, 16723, Tempo, 378549
1, 16762, Tempo, 379747
1, 16800, Tempo, 374883
1, 16800, Note_on_c, 0, 43, 0
1, 16800, Note_on_c, 0, 55, 0
1, 16800, Note_on_c, 0, 60, 0
1, 16800, Note_on_c, 0, 67, 0
1, 16800, Note_on_c, 0, 43, 76
1, 16821, Control_c, 0, 64, 0
1, 16838, Tempo, 373436
1, 16858, Tempo, 372001
1, 16878, Control_c, 0, 64, 127
1, 16896, Tempo, 370576
1, 16915, Tempo, 369163
1, 16920, Note_on_c, 0, 43, 0
1, 16920, Note_on_c, 0, 48, 76
1, 16954, Tempo, 367760
1, 16973, Tempo, 366367
1, 17011, Tempo, 364986
1, 17030, Tempo, 363614
1, 17040, Note_on_c, 0, 48, 0
1, 17040, Note_on_c, 0, 52, 76
1, 17069, Tempo, 362253
1, 17088, Tempo, 360902
1, 17126, Tempo, 359540
1, 17146, Tempo, 358209
1, 17160, Note_on_c, 0, 52, 0
1, 17160, Note_on_c, 0, 55, 76
1, 17184, Tempo, 356888
1, 17203, Tempo, 355577
1, 17242, Tempo, 354275
1, 17261, Tempo, 352983
1, 17280, Tempo, 388425
1, 17280, Note_on_c, 0, 55, 0
1, 17280, Note_on_c, 0, 47, 92
1, 17280, Note_on_c, 0, 59, 99
1, 17283, Control_c, 0, 64, 0
1, 17354, Control_c, 0, 64, 127
1, 17600, Note_on_c, 0, 61, 46
1, 17600, Note_on_c, 0, 64, 54
1, 17680, Note_on_c, 0, 64, 0
1, 17680, Note_on_c, 0, 61, 0
1, 17704, Control_c, 0, 64, 0
1, 17753, Control_c, 0, 64, 127
1, 17760, Tempo, 356888
1, 17760, Note_on_c, 0, 61, 51
1, 17760, Note_on_c, 0, 64, 60
1, 17760, Note_on_c, 0, 49, 53
1, 17920, Note_on_c, 0, 49, 0
1, 17920, Note_on_c, 0, 61, 0
1, 17920, Note_on_c, 0, 64, 0
1, 17920, Note_on_c, 0, 60, 55
1, 17920, Note_on_c, 0, 48, 50
1, 18000, Note_on_c, 0, 48, 0
1, 18000, Note_on_c, 0, 60, 0
1, 18080, Tempo, 415110
1, 18080, Note_on_c, 0, 61, 47
1, 18080, Note_on_c, 0, 65, 56
1, 18080, Note_on_c, 0, 47, 51
1, 18160, Note_on_c, 0, 47, 0
1, 18160, Note_on_c, 0, 61, 0
1, 18160, Note_on_c, 0, 65, 0
1, 18240, Tempo, 358209
1, 18240, Note_on_c, 0, 47, 0
1, 18240, Note_on_c, 0, 61, 55
1, 18240, Note_on_c, 0, 65, 64
1, 18240, Note_on_c, 0, 46, 57
1, 18247, Control_c, 0, 64, 0
1, 18293, Control_c, 0, 64, 127
1, 18400, Note_on_c, 0, 46, 0
1, 18400, Note_on_c, 0, 65, 0
1, 18400, Note_on_c, 0, 61, 0
1, 18400, Note_on_c, 0, 60, 58
1, 18400, Note_on_c, 0, 45, 53
1, 18480, Note_on_c, 0, 45, 0
1, 18480, Note_on_c, 0, 60, 0
1, 18560, Tempo, 411579
1, 18560, Note_on_c, 0, 62, 50
1, 18560, Note_on_c, 0, 66, 59
1, 18560, Note_on_c, 0, 44, 54
1, 18640, Note_on_c, 0, 66, 0
1, 18640, Note_on_c, 0, 62, 0
1, 18720, Tempo, 352920
1, 18720, Note_on_c, 0, 59, 0
1, 18720, Note_on_c, 0, 62, 58
1, 18720, Note_on_c, 0, 66, 68
1, 18720, Note_on_c, 0, 56, 61
1, 18727, Control_c, 0, 64, 0
1, 18794, Control_c, 0, 64, 127
1, 18880, Note_on_c, 0, 66, 0
1, 18880, Note_on_c, 0, 62, 0
1, 18880, Note_on_c, 0, 60, 60
1, 18960, Note_on_c, 0, 60, 0
1, 19040, Tempo, 409836
1, 19040, Note_on_c, 0, 63, 52
1, 19040, Note_on_c, 0, 67, 62
1, 19120, Note_on_c, 0, 67, 0
1, 19120, Note_on_c, 0, 63, 0
1, 19200, Tempo, 348817
1, 19200, Note_on_c, 0, 44, 0
1, 19200, Note_on_c, 0, 63, 61
1, 19200, Note_on_c, 0, 67, 72
1, 19200, Note_on_c, 0, 46, 63
1, 19206, Control_c, 0, 64, 0
1, 19257, Control_c, 0, 64, 127
1, 19360, Note_on_c, 0, 46, 0
1, 19360, Note_on_c, 0, 67, 0
1, 19360, Note_on_c, 0, 63, 0
1, 19360, Note_on_c, 0, 62, 63
1, 19360, Note_on_c, 0, 44, 55
1, 19440, Note_on_c, 0, 44, 0
1, 19440, Note_on_c, 0, 62, 0
1, 19520, Tempo, 406394
1, 19520, Note_on_c, 0, 63, 53
1, 19520, Note_on_c, 0, 67, 64
1, 19520, Note_on_c, 0, 43, 60
1, 19600, Note_on_c, 0, 67, 0
1, 19600, Note_on_c, 0, 63, 0
1, 19680, Tempo, 342838
1, 19680, Note_on_c, 0, 56, 0
1, 19680, Note_on_c, 0, 64, 64
1, 19680, Note_on_c, 0, 67, 76
1, 19680, Note_on_c, 0, 55, 67
1, 19687, Control_c, 0, 64, 0
1, 19719, Control_c, 0, 64, 127
1, 19840, Note_on_c, 0, 55, 0
1, 19840, Note_on_c, 0, 67, 0
1, 19840, Note_on_c, 0, 64, 0
1, 19840, Note_on_c, 0, 62, 66
1, 19840, Note_on_c, 0, 53, 61
1, 20000, Tempo, 423998
1, 20000, Note_on_c, 0, 53, 0
1, 20000, Note_on_c, 0, 62, 0
1, 20000, Note_on_c, 0, 64, 56
1, 20000, Note_on_c, 0, 67, 67
1, 20000, Note_on_c, 0, 52, 62
1, 20160, Tempo, 356888
1, 20160, Note_on_c, 0, 52, 0
1, 20160, Note_on_c, 0, 43, 0
1, 20160, Note_on_c, 0, 60, 79
1, 20160, Note_on_c, 0, 72, 96
1, 20160, Note_on_c, 0, 52, 75
1, 20171, Control_c, 0, 64, 0
1, 20220, Control_c, 0, 64, 127
1, 20280, Note_on_c, 0, 52, 0
1, 20280, Note_on_c, 0, 48, 64
1, 20400, Note_on_c, 0, 48, 0
1, 20400, Note_on_c, 0, 43, 66
1, 20520, Note_on_c, 0, 43, 0
1, 20520, Note_on_c, 0, 36, 66
1, 20602, Tempo, 376341
1, 20640, Tempo, 374883
1, 20640, Note_on_c, 0, 36, 0
1, 20640, Note_on_c, 0, 72, 0
1, 20640, Note_on_c, 0, 64, 0
1, 20640, Note_on_c, 0, 67, 0
1, 20640, Note_on_c, 0, 60, 0
1, 20640, Note_on_c, 0, 43, 76
1, 20661, Control_c, 0, 64, 0
1, 20678, Tempo, 373436
1, 20698, Tempo, 372001
1, 20718, Control_c, 0, 64, 127
1, 20736, Tempo, 370576
1, 20755, Tempo, 369163
1, 20760, Note_on_c, 0, 43, 0
1, 20760, Note_on_c, 0, 48, 76
1, 20794, Tempo, 367760
1, 20813, Tempo, 366367
1, 20851, Tempo, 364986
1, 20870, Tempo, 363614
1, 20880, Note_on_c, 0, 48, 0
1, 20880, Note_on_c, 0, 24, 56
1, 20880, Note_on_c, 0, 36, 66
1, 20880, Note_on_c, 0, 52, 76
1, 20909, Tempo, 362253
1, 20928, Tempo, 360902
1, 20966, Tempo, 359540
1, 20986, Tempo, 358209
1, 21000, Note_on_c, 0, 52, 0
1, 21000, Note_on_c, 0, 55, 76
1, 21024, Tempo, 356888
1, 21043, Tempo, 355577
1, 21082, Tempo, 354275
1, 21101, Tempo, 352983
1, 21120, Tempo, 359540
1, 21120, Note_on_c, 0, 55, 0
1, 21120, Note_on_c, 0, 36, 0
1, 21120, Note_on_c, 0, 24, 0
1, 21120, Note_on_c, 0, 46, 87
1, 21120, Note_on_c, 0, 58, 102
1, 21123, Control_c, 0, 64, 0
1, 21194, Control_c, 0, 64, 127
1, 21440, Note_on_c, 0, 61, 46
1, 21440, Note_on_c, 0, 64, 54
1, 21520, Note_on_c, 0, 64, 0
1, 21520, Note_on_c, 0, 61, 0
1, 21544, Control_c, 0, 64, 0
1, 21593, Control_c, 0, 64, 127
1, 21600, Note_on_c, 0, 61, 51
1, 21600, Note_on_c, 0, 64, 60
1, 21600, Note_on_c, 0, 49, 53
1, 21760, Note_on_c, 0, 49, 0
1, 21760, Note_on_c, 0, 61, 0
1, 21760, Note_on_c, 0, 64, 0
1, 21760, Note_on_c, 0, 60, 55
1, 21760, Note_on_c, 0, 48, 50
1, 21840, Note_on_c, 0, 48, 0
1, 21840, Note_on_c, 0, 60, 0
1, 21920, Tempo, 415110
1, 21920, Note_on_c, 0, 61, 47
1, 21920, Note_on_c, 0, 65, 56
1, 21920, Note_on_c, 0, 47, 51
1, 22000, Note_on_c, 0, 47, 0
1, 22000, Note_on_c, 0, 61, 0
1, 22000, Note_on_c, 0, 65, 0
1, 22080, Tempo, 358209
1, 22080, Note_on_c, 0, 46, 0
1, 22080, Note_on_c, 0, 61, 55
1, 22080, Note_on_c, 0, 65, 64
1, 22080, Note_on_c, 0, 46, 57
1, 22087, Control_c, 0, 64, 0
1, 22133, Control_c, 0, 64, 127
1, 22240, Note_on_c, 0, 46, 0
1, 22240, Note_on_c, 0, 65, 0
1, 22240, Note_on_c, 0, 61, 0
1, 22240, Note_on_c, 0, 60, 58
1, 22240, Note_on_c, 0, 45, 53
1, 22320, Note_on_c, 0, 45, 0
1, 22320, Note_on_c, 0, 60, 0
1, 22400, Tempo, 411579
1, 22400, Note_on_c, 0, 62, 50
1, 22400, Note_on_c, 0, 66, 59
1, 22400, Note_on_c, 0, 44, 54
1, 22480, Note_on_c, 0, 66, 0
1, 22480, Note_on_c, 0, 62, 0
1, 22560, Tempo, 358209
1, 22560, Note_on_c, 0, 58, 0
1, 22560, Note_on_c, 0, 62, 57
1, 22560, Note_on_c, 0, 66, 68
1, 22560, Note_on_c, 0, 56, 60
1, 22567, Control_c, 0, 64, 0
1, 22634, Control_c, 0, 64, 127
1, 22720, Note_on_c, 0, 66, 0
1, 22720, Note_on_c, 0, 62, 0
1, 22720, Note_on_c, 0, 60, 60
1, 22800, Note_on_c, 0, 60, 0
1, 22880, Tempo, 409836
1, 22880, Note_on_c, 0, 63, 52
1, 22880, Note_on_c, 0, 67, 62
1, 22960, Note_on_c, 0, 67, 0
1, 22960, Note_on_c, 0, 63, 0
1, 23040, Tempo, 352962
1, 23040, Note_on_c, 0, 44, 0
1, 23040, Note_on_c, 0, 63, 61
1, 23040, Note_on_c, 0, 67, 72
1, 23040, Note_on_c, 0, 46, 63
1, 23046, Control_c, 0, 64, 0
1, 23097, Control_c, 0, 64, 127
1, 23200, Note_on_c, 0, 46, 0
1, 23200, Note_on_c, 0, 67, 0
1, 23200, Note_on_c, 0, 63, 0
1, 23200, Note_on_c, 0, 62, 63
1, 23200, Note_on_c, 0, 44, 55
1, 23280, Note_on_c, 0, 44, 0
1, 23280, Note_on_c, 0, 62, 0
1, 23360, Tempo, 406394
1, 23360, Note_on_c, 0, 63, 53
1, 23360, Note_on_c, 0, 67, 64
1, 23360, Note_on_c, 0, 43, 60
1, 23440, Note_on_c, 0, 67, 0
1, 23440, Note_on_c, 0, 63, 0
1, 23520, Tempo, 347846
1, 23520, Note_on_c, 0, 56, 0
1, 23520, Note_on_c, 0, 64, 64
1, 23520, Note_on_c, 0, 67, 76
1, 23520, Note_on_c, 0, 55, 67
1, 23527, Control_c, 0, 64, 0
1, 23559, Control_c, 0, 64, 127
1, 23680, Note_on_c, 0, 55, 0
1, 23680, Note_on_c, 0, 67, 0
1, 23680, Note_on_c, 0, 64, 0
1, 23680, Note_on_c, 0, 62, 66
1, 23680, Note_on_c, 0, 53, 61
1, 23840, Tempo, 428541
1, 23840, Note_on_c, 0, 53, 0
1, 23840, Note_on_c, 0, 62, 0
1, 23840, Note_on_c, 0, 64, 56
1, 23840, Note_on_c, 0, 67, 67
1, 23840, Note_on_c, 0, 52, 62
1, 24000, Tempo, 402685
1, 24000, Note_on_c, 0, 52, 0
1, 24000, Note_on_c, 0, 43, 0
1, 24000, Note_on_c, 0, 60, 79
1, 24000, Note_on_c, 0, 72, 96
1, 24000, Note_on_c, 0, 52, 75
1, 24011, Control_c, 0, 64, 0
1, 24103, Control_c, 0, 64, 127
1, 24160, Note_on_c, 0, 43, 64
1, 24320, Note_on_c, 0, 43, 0
1, 24320, Note_on_c, 0, 36, 66
1, 24462, Tempo, 388350
1, 24480, Note_on_c, 0, 36, 0
1, 24480, Note_on_c, 0, 52, 0
1, 24480, Note_on_c, 0, 60, 0
1, 24480, Note_on_c, 0, 64, 0
1, 24480, Note_on_c, 0, 67, 0
1, 24480, Note_on_c, 0, 72, 0
1, 24480, Note_on_c, 0, 37, 66
1, 24480, Note_on_c, 0, 49, 78
1, 24500, Tempo, 387097
1, 24501, Control_c, 0, 64, 0
1, 24539, Tempo, 385852
1, 24558, Control_c, 0, 64, 127
1, 24577, Tempo, 384615
1, 24615, Tempo, 383387
1, 24640, Note_on_c, 0, 49, 0
1, 24640, Note_on_c, 0, 37, 0
1, 24640, Note_on_c, 0, 36, 69
1, 24640, Note_on_c, 0, 48, 82
1, 24654, Tempo, 382166
1, 24692, Tempo, 380952
1, 24711, Tempo, 379747
1, 24750, Tempo, 378549
1, 24788, Tempo, 377358
1, 24800, Note_on_c, 0, 48, 0
1, 24800, Note_on_c, 0, 36, 0
1, 24800, Note_on_c, 0, 35, 72
1, 24800, Note_on_c, 0, 47, 85
1, 24827, Tempo, 376176
1, 24865, Tempo, 375000
1, 24903, Tempo, 373832
1, 24923, Tempo, 372671
1, 24960, Tempo, 470588
1, 24960, Note_on_c, 0, 47, 0
1, 24960, Note_on_c, 0, 35, 0
1, 24960, Note_on_c, 0, 34, 78
1, 24960, Note_on_c, 0, 46, 99
1, 24966, Control_c, 0, 64, 0
1, 25057, Control_c, 0, 64, 127
1, 25440, Tempo, 352941
1, 25440, Tempo, 369231
1, 25440, Note_on_c, 0, 73, 54
1, 25440, Note_on_c, 0, 78, 64
1, 25440, Note_on_c, 0, 54, 45
1, 25440, Note_on_c, 0, 62, 53
1, 25451, Control_c, 0, 64, 0
1, 25536, Tempo, 368098
1, 25589, Control_c, 0, 64, 127
1, 25600, Note_on_c, 0, 73, 0
1, 25600, Note_on_c, 0, 74, 54
1, 25600, Note_on_c, 0, 57, 40
1, 25632, Tempo, 366972
1, 25728, Tempo, 365854
1, 25760, Note_on_c, 0, 57, 0
1, 25760, Note_on_c, 0, 74, 0
1, 25760, Note_on_c, 0, 66, 58
1, 25760, Note_on_c, 0, 58, 40
1, 25805, Tempo, 364742
1, 25901, Tempo, 363636
1, 25920, Note_on_c, 0, 58, 0
1, 25920, Note_on_c, 0, 62, 0
1, 25920, Note_on_c, 0, 54, 0
1, 25920, Note_on_c, 0, 78, 0
1, 25920, Note_on_c, 0, 66, 0
1, 25920, Note_on_c, 0, 74, 58
1, 25920, Note_on_c, 0, 79, 69
1, 25920, Note_on_c, 0, 55, 47
1, 25920, Note_on_c, 0, 63, 56
1, 25929, Control_c, 0, 64, 0
1, 25997, Tempo, 362538
1, 26029, Control_c, 0, 64, 127
1, 26074, Tempo, 361446
1, 26080, Note_on_c, 0, 74, 0
1, 26080, Note_on_c, 0, 75, 61
1, 26160, Note_on_c, 0, 46, 0
1, 26160, Note_on_c, 0, 46, 43
1, 26170, Tempo, 360360
1, 26240, Note_on_c, 0, 75, 0
1, 26240, Note_on_c, 0, 67, 62
1, 26266, Tempo, 359281
1, 26342, Tempo, 358209
1, 26400, Note_on_c, 0, 67, 0
1, 26400, Note_on_c, 0, 63, 0
1, 26400, Note_on_c, 0, 79, 0
1, 26400, Note_on_c, 0, 55, 0
1, 26400, Note_on_c, 0, 75, 62
1, 26400, Note_on_c, 0, 80, 73
1, 26400, Note_on_c, 0, 56, 49
1, 26400, Note_on_c, 0, 64, 58
1, 26410, Control_c, 0, 64, 0
1, 26438, Tempo, 357143
1, 26534, Tempo, 356083
1, 26537, Control_c, 0, 64, 127
1, 26560, Note_on_c, 0, 75, 0
1, 26560, Note_on_c, 0, 76, 65
1, 26560, Note_on_c, 0, 60, 48
1, 26611, Tempo, 355030
1, 26707, Tempo, 353982
1, 26720, Note_on_c, 0, 60, 0
1, 26720, Note_on_c, 0, 76, 0
1, 26720, Note_on_c, 0, 68, 66
1, 26720, Note_on_c, 0, 61, 48
1, 26803, Tempo, 352941
1, 26880, Tempo, 351906
1, 26880, Note_on_c, 0, 61, 0
1, 26880, Note_on_c, 0, 64, 0
1, 26880, Note_on_c, 0, 34, 0
1, 26880, Note_on_c, 0, 80, 0
1, 26880, Note_on_c, 0, 46, 0
1, 26880, Note_on_c, 0, 68, 0
1, 26880, Note_on_c, 0, 56, 0
1, 26880, Note_on_c, 0, 76, 66
1, 26880, Note_on_c, 0, 81, 78
1, 26880, Note_on_c, 0, 57, 51
1, 26880, Note_on_c, 0, 65, 61
1, 26886, Control_c, 0, 64, 0
1, 26989, Control_c, 0, 64, 127
1, 27040, Note_on_c, 0, 76, 0
1, 27040, Note_on_c, 0, 77, 68
1, 27040, Note_on_c, 0, 61, 50
1, 27200, Note_on_c, 0, 61, 0
1, 27200, Note_on_c, 0, 77, 0
1, 27200, Note_on_c, 0, 69, 68
1, 27200, Note_on_c, 0, 62, 61
1, 27360, Tempo, 350877
1, 27360, Note_on_c, 0, 62, 0
1, 27360, Note_on_c, 0, 65, 0
1, 27360, Note_on_c, 0, 81, 0
1, 27360, Note_on_c, 0, 57, 0
1, 27360, Note_on_c, 0, 69, 0
1, 27360, Note_on_c, 0, 77, 70
1, 27360, Note_on_c, 0, 82, 83
1, 27360, Note_on_c, 0, 58, 53
1, 27360, Note_on_c, 0, 66, 63
1, 27373, Control_c, 0, 64, 0
1, 27446, Control_c, 0, 64, 127
1, 27520, Note_on_c, 0, 58, 0
1, 27520, Note_on_c, 0, 77, 0
1, 27520, Note_on_c, 0, 78, 71
1, 27520, Note_on_c, 0, 62, 53
1, 27680, Tempo, 396040
1, 27680, Note_on_c, 0, 62, 0
1, 27680, Note_on_c, 0, 78, 0
1, 27680, Note_on_c, 0, 70, 71
1, 27680, Note_on_c, 0, 63, 53
1, 27840, Tempo, 351906
1, 27840, Note_on_c, 0, 63, 0
1, 27840, Note_on_c, 0, 66, 0
1, 27840, Note_on_c, 0, 82, 0
1, 27840, Note_on_c, 0, 70, 0
1, 27840, Note_on_c, 0, 87, 91
1, 27840, Note_on_c, 0, 67, 65
1, 27857, Control_c, 0, 64, 0
1, 27949, Control_c, 0, 64, 127
1, 28000, Note_on_c, 0, 70, 41
1, 28000, Note_on_c, 0, 74, 49
1, 28160, Note_on_c, 0, 74, 0
1, 28160, Note_on_c, 0, 70, 0
1, 28160, Note_on_c, 0, 79, 41
1, 28160, Note_on_c, 0, 83, 49
1, 28160, Note_on_c, 0, 75, 41
1, 28320, Note_on_c, 0, 75, 0
1, 28320, Note_on_c, 0, 79, 0
1, 28320, Note_on_c, 0, 87, 0
1, 28320, Note_on_c, 0, 67, 0
1, 28320, Note_on_c, 0, 83, 0
1, 28320, Note_on_c, 0, 86, 84
1, 28320, Note_on_c, 0, 68, 65
1, 28328, Control_c, 0, 64, 0
1, 28400, Control_c, 0, 64, 127
1, 28480, Note_on_c, 0, 72, 41
1, 28480, Note_on_c, 0, 76, 49
1, 28640, Note_on_c, 0, 76, 0
1, 28640, Note_on_c, 0, 72, 0
1, 28640, Note_on_c, 0, 74, 41
1, 28640, Note_on_c, 0, 77, 41
1, 28640, Note_on_c, 0, 80, 49
1, 28800, Tempo, 348837
1, 28800, Note_on_c, 0, 80, 0
1, 28800, Note_on_c, 0, 74, 0
1, 28800, Note_on_c, 0, 86, 0
1, 28800, Note_on_c, 0, 68, 0
1, 28800, Note_on_c, 0, 77, 0
1, 28800, Note_on_c, 0, 79, 89
1, 28800, Note_on_c, 0, 55, 50
1, 28800, Note_on_c, 0, 60, 50
1, 28800, Note_on_c, 0, 64, 59
1, 28800, Control_c, 0, 64, 0
1, 28943, Control_c, 0, 64, 127
1, 28960, Note_on_c, 0, 79, 0
1, 28960, Note_on_c, 0, 72, 63
1, 29120, Tempo, 394737
1, 29120, Note_on_c, 0, 72, 0
1, 29120, Note_on_c, 0, 67, 63
1, 29280, Tempo, 347826
1, 29280, Note_on_c, 0, 67, 0
1, 29280, Note_on_c, 0, 55, 0
1, 29280, Note_on_c, 0, 60, 0
1, 29280, Note_on_c, 0, 64, 0
1, 29280, Note_on_c, 0, 66, 75
1, 29440, Note_on_c, 0, 66, 0
1, 29440, Note_on_c, 0, 69, 61
1, 29600, Note_on_c, 0, 69, 0
1, 29600, Note_on_c, 0, 67, 61
1, 29760, Note_on_c, 0, 67, 0
1, 29760, Note_on_c, 0, 71, 75
1, 29772, Control_c, 0, 64, 0
1, 29863, Control_c, 0, 64, 127
1, 29920, Note_on_c, 0, 71, 0
1, 29920, Note_on_c, 0, 72, 62
1, 30080, Note_on_c, 0, 72, 0
1, 30080, Note_on_c, 0, 76, 62
1, 30240, Note_on_c, 0, 76, 0
1, 30240, Note_on_c, 0, 75, 67
1, 30400, Note_on_c, 0, 75, 0
1, 30400, Note_on_c, 0, 76, 58
1, 30560, Tempo, 347826
1, 30560, Note_on_c, 0, 76, 0
1, 30560, Note_on_c, 0, 78, 51
1, 30624, Tempo, 344828
1, 30682, Tempo, 345821
1, 30720, Tempo, 358209
1, 30720, Note_on_c, 0, 78, 0
1, 30720, Note_on_c, 0, 79, 61
1, 30729, Control_c, 0, 64, 0
1, 30840, Control_c, 0, 64, 127
1, 30880, Note_on_c, 0, 79, 0
1, 30880, Note_on_c, 0, 83, 46
1, 31040, Note_on_c, 0, 83, 0
1, 31040, Note_on_c, 0, 84, 46
1, 31200, Tempo, 379723
1, 31200, Note_on_c, 0, 84, 0
1, 31200, Note_on_c, 0, 90, 55
1, 31200, Note_on_c, 0, 67, 40
1, 31200, Note_on_c, 0, 74, 40
1, 31200, Note_on_c, 0, 77, 40
1, 31360, Note_on_c, 0, 90, 0
1, 31360, Note_on_c, 0, 91, 42
1, 31440, Note_on_c, 0, 67, 0
1, 31440, Note_on_c, 0, 77, 0
1, 31440, Note_on_c, 0, 74, 0
1, 31520, Tempo, 404040
1, 31520, Note_on_c, 0, 91, 0
1, 31520, Note_on_c, 0, 79, 42
1, 31680, Note_on_c, 0, 79, 0
1, 31680, Note_on_c, 0, 84, 50
1, 31680, Note_on_c, 0, 72, 40
1, 31680, Note_on_c, 0, 76, 40
1, 31691, Control_c, 0, 64, 0
1, 31829, Control_c, 0, 64, 127
1, 31920, Note_on_c, 0, 76, 0
1, 31920, Note_on_c, 0, 72, 0
1, 32000, Note_on_c, 0, 84, 0
1, 32000, Note_on_c, 0, 95, 44
1, 32125, Tempo, 356083
1, 32160, Note_on_c, 0, 95, 0
1, 32160, Note_on_c, 0, 84, 50
1, 32160, Note_on_c, 0, 96, 50
1, 32167, Tempo, 355051
1, 32224, Control_c, 0, 64, 0
1, 32273, Control_c, 0, 64, 127
1, 32287, Tempo, 354003
1, 32320, Note_on_c, 0, 96, 0
1, 32320, Note_on_c, 0, 84, 0
1, 32320, Note_on_c, 0, 94, 44
1, 32387, Tempo, 352962
1, 32480, Note_on_c, 0, 94, 0
1, 32480, Note_on_c, 0, 93, 44
1, 32487, Tempo, 351927
1, 32587, Tempo, 350898
1, 32640, Note_on_c, 0, 93, 0
1, 32640, Note_on_c, 0, 84, 47
1, 32640, Note_on_c, 0, 96, 47
1, 32640, Note_on_c, 0, 56, 46
1, 32663, Control_c, 0, 64, 0
1, 32687, Tempo, 349875
1, 32720, Control_c, 0, 64, 127
1, 32760, Note_on_c, 0, 56, 0
1, 32800, Note_on_c, 0, 96, 0
1, 32800, Note_on_c, 0, 84, 0
1, 32800, Note_on_c, 0, 93, 42
1, 32880, Note_on_c, 0, 63, 40
1, 32880, Note_on_c, 0, 66, 48
1, 32887, Tempo, 348857
1, 32960, Note_on_c, 0, 93, 0
1, 32960, Note_on_c, 0, 92, 42
1, 33000, Note_on_c, 0, 66, 0
1, 33000, Note_on_c, 0, 63, 0
1, 33067, Tempo, 347846
1, 33120, Note_on_c, 0, 92, 0
1, 33120, Note_on_c, 0, 84, 49
1, 33120, Note_on_c, 0, 96, 49
1, 33120, Note_on_c, 0, 72, 50
1, 33124, Control_c, 0, 64, 0
1, 33206, Control_c, 0, 64, 127
1, 33240, Note_on_c, 0, 72, 0
1, 33247, Tempo, 346841
1, 33280, Note_on_c, 0, 96, 0
1, 33280, Note_on_c, 0, 84, 0
1, 33280, Note_on_c, 0, 92, 46
1, 33360, Note_on_c, 0, 66, 45
1, 33360, Note_on_c, 0, 71, 53
1, 33427, Tempo, 345841
1, 33440, Note_on_c, 0, 92, 0
1, 33440, Note_on_c, 0, 91, 46
1, 33454, Tempo, 345841
1, 33480, Note_on_c, 0, 71, 0
1, 33480, Note_on_c, 0, 66, 0
1, 33534, Tempo, 344847
1, 33600, Note_on_c, 0, 91, 0
1, 33600, Note_on_c, 0, 84, 51
1, 33600, Note_on_c, 0, 96, 51
1, 33600, Note_on_c, 0, 63, 46
1, 33600, Note_on_c, 0, 72, 55
1, 33613, Control_c, 0, 64, 0
1, 33614, Tempo, 343859
1, 33686, Control_c, 0, 64, 127
1, 33694, Tempo, 342877
1, 33720, Note_on_c, 0, 72, 0
1, 33720, Note_on_c, 0, 63, 0
1, 33760, Note_on_c, 0, 96, 0
1, 33760, Note_on_c, 0, 84, 0
1, 33760, Note_on_c, 0, 91, 47
1, 33774, Tempo, 341900
1, 33840, Note_on_c, 0, 68, 49
1, 33840, Note_on_c, 0, 73, 58
1, 33854, Tempo, 340928
1, 33914, Tempo, 339963
1, 33920, Note_on_c, 0, 91, 0
1, 33920, Note_on_c, 0, 90, 47
1, 33960, Note_on_c, 0, 73, 0
1, 33960, Note_on_c, 0, 68, 0
1, 33994, Tempo, 339002
1, 34074, Tempo, 338047
1, 34080, Note_on_c, 0, 90, 0
1, 34080, Note_on_c, 0, 84, 53
1, 34080, Note_on_c, 0, 96, 53
1, 34080, Note_on_c, 0, 66, 51
1, 34080, Note_on_c, 0, 74, 60
1, 34093, Control_c, 0, 64, 0
1, 34154, Tempo, 337098
1, 34183, Control_c, 0, 64, 127
1, 34200, Note_on_c, 0, 74, 0
1, 34200, Note_on_c, 0, 66, 0
1, 34234, Tempo, 336153
1, 34240, Note_on_c, 0, 96, 0
1, 34240, Note_on_c, 0, 84, 0
1, 34240, Note_on_c, 0, 90, 49
1, 34294, Tempo, 335214
1, 34320, Note_on_c, 0, 72, 52
1, 34320, Note_on_c, 0, 75, 62
1, 34347, Tempo, 340928
1, 34353, Tempo, 347826
1, 34400, Tempo, 389610
1, 34400, Note_on_c, 0, 90, 0
1, 34400, Note_on_c, 0, 89, 49
1, 34440, Note_on_c, 0, 75, 0
1, 34440, Note_on_c, 0, 72, 0
1, 34560, Tempo, 347846
1, 34560, Note_on_c, 0, 89, 0
1, 34560, Note_on_c, 0, 88, 55
1, 34560, Note_on_c, 0, 100, 55
1, 34560, Note_on_c, 0, 64, 55
1, 34560, Note_on_c, 0, 68, 55
1, 34560, Note_on_c, 0, 76, 65
1, 34560, Control_c, 0, 64, 0
1, 34574, Tempo, 342877
1, 34648, Control_c, 0, 64, 127
1, 34680, Note_on_c, 0, 76, 0
1, 34680, Note_on_c, 0, 64, 0
1, 34680, Note_on_c, 0, 68, 0
1, 34800, Note_on_c, 0, 100, 0
1, 34800, Note_on_c, 0, 71, 50
1, 34800, Note_on_c, 0, 78, 59
1, 34880, Tempo, 375000
1, 34880, Note_on_c, 0, 88, 0
1, 34880, Note_on_c, 0, 87, 48
1, 34920, Note_on_c, 0, 78, 0
1, 34920, Note_on_c, 0, 71, 0
1, 35040, Tempo, 346841
1, 35040, Note_on_c, 0, 87, 0
1, 35040, Note_on_c, 0, 92, 51
1, 35040, Note_on_c, 0, 88, 57
1, 35040, Note_on_c, 0, 76, 50
1, 35040, Note_on_c, 0, 80, 59
1, 35049, Control_c, 0, 64, 0
1, 35074, Tempo, 343859
1, 35100, Control_c, 0, 64, 127
1, 35200, Note_on_c, 0, 88, 0
1, 35200, Note_on_c, 0, 92, 0
1, 35200, Note_on_c, 0, 87, 52
1, 35360, Note_on_c, 0, 87, 0
1, 35360, Note_on_c, 0, 86, 52
1, 35520, Tempo, 350877
1, 35520, Note_on_c, 0, 86, 0
1, 35520, Note_on_c, 0, 76, 0
1, 35520, Note_on_c, 0, 80, 0
1, 35520, Note_on_c, 0, 85, 51
1, 35520, Note_on_c, 0, 92, 51
1, 35520, Note_on_c, 0, 65, 46
1, 35520, Note_on_c, 0, 68, 55
1, 35533, Control_c, 0, 64, 0
1, 35606, Control_c, 0, 64, 127
1, 35640, Tempo, 344847
1, 35640, Note_on_c, 0, 68, 0
1, 35640, Note_on_c, 0, 65, 0
1, 35680, Note_on_c, 0, 92, 0
1, 35680, Note_on_c, 0, 85, 0
1, 35680, Note_on_c, 0, 84, 47
1, 35716, Tempo, 349854
1, 35747, Tempo, 346841
1, 35760, Note_on_c, 0, 72, 58
1, 35794, Tempo, 342877
1, 35840, Note_on_c, 0, 84, 0
1, 35840, Note_on_c, 0, 83, 47
1, 35880, Note_on_c, 0, 72, 0
1, 36000, Note_on_c, 0, 83, 0
1, 36000, Note_on_c, 0, 82, 54
1, 36000, Note_on_c, 0, 92, 54
1, 36000, Note_on_c, 0, 68, 52
1, 36000, Note_on_c, 0, 73, 61
1, 36007, Tempo, 345841
1, 36013, Control_c, 0, 64, 0
1, 36103, Control_c, 0, 64, 127
1, 36120, Note_on_c, 0, 73, 0
1, 36120, Note_on_c, 0, 68, 0
1, 36120, Note_on_c, 0, 82, 0
1, 36120, Note_on_c, 0, 83, 55
1, 36160, Note_on_c, 0, 92, 0
1, 36240, Note_on_c, 0, 83, 0
1, 36240, Note_on_c, 0, 84, 55
1, 36240, Note_on_c, 0, 71, 54
1, 36240, Note_on_c, 0, 74, 65
1, 36267, Tempo, 344847
1, 36273, Tempo, 347826
1, 36320, Tempo, 389610
1, 36360, Note_on_c, 0, 74, 0
1, 36360, Note_on_c, 0, 71, 0
1, 36360, Note_on_c, 0, 84, 0
1, 36360, Note_on_c, 0, 88, 56
1, 36480, Tempo, 350877
1, 36480, Note_on_c, 0, 88, 0
1, 36480, Note_on_c, 0, 96, 64
1, 36480, Note_on_c, 0, 60, 64
1, 36480, Note_on_c, 0, 67, 75
1, 36480, Control_c, 0, 64, 0
1, 36576, Control_c, 0, 64, 127
1, 36600, Note_on_c, 0, 67, 0
1, 36600, Note_on_c, 0, 60, 0
1, 36720, Note_on_c, 0, 96, 0
1, 36720, Note_on_c, 0, 67, 59
1, 36720, Note_on_c, 0, 75, 69
1, 36800, Tempo, 375000
1, 36800, Note_on_c, 0, 83, 57
1, 36840, Note_on_c, 0, 75, 0
1, 36840, Note_on_c, 0, 67, 0
1, 36960, Tempo, 349854
1, 36960, Note_on_c, 0, 83, 0
1, 36960, Note_on_c, 0, 88, 63
1, 36960, Note_on_c, 0, 84, 63
1, 36960, Note_on_c, 0, 72, 55
1, 36960, Note_on_c, 0, 76, 65
1, 36969, Control_c, 0, 64, 0
1, 37020, Control_c, 0, 64, 127
1, 37120, Note_on_c, 0, 84, 0
1, 37120, Note_on_c, 0, 88, 0
1, 37120, Note_on_c, 0, 85, 58
1, 37280, Note_on_c, 0, 85, 0
1, 37280, Note_on_c, 0, 86, 58
1, 37387, Control_c, 0, 64, 0
1, 37440, Tempo, 345821
1, 37440, Tempo, 333352
1, 37440, Note_on_c, 0, 86, 0
1, 37440, Note_on_c, 0, 72, 0
1, 37440, Note_on_c, 0, 76, 0
1, 37440, Note_on_c, 0, 93, 82
1, 37440, Note_on_c, 0, 87, 78
1, 37440, Note_on_c, 0, 65, 63
1, 37440, Note_on_c, 0, 69, 63
1, 37440, Note_on_c, 0, 75, 80
1, 37479, Control_c, 0, 64, 127
1, 37600, Note_on_c, 0, 87, 0
1, 37600, Note_on_c, 0, 81, 64
1, 37680, Tempo, 340928
1, 37680, Note_on_c, 0, 69, 0
1, 37680, Note_on_c, 0, 75, 0
1, 37680, Note_on_c, 0, 65, 0
1, 37680, Note_on_c, 0, 61, 67
1, 37760, Note_on_c, 0, 81, 0
1, 37760, Note_on_c, 0, 85, 62
1, 37800, Note_on_c, 0, 61, 0
1, 37920, Tempo, 332428
1, 37920, Note_on_c, 0, 85, 0
1, 37920, Note_on_c, 0, 86, 79
1, 37920, Note_on_c, 0, 66, 60
1, 37920, Note_on_c, 0, 69, 60
1, 37920, Note_on_c, 0, 74, 78
1, 37920, Control_c, 0, 64, 0
1, 37984, Control_c, 0, 64, 127
1, 38080, Note_on_c, 0, 86, 0
1, 38080, Note_on_c, 0, 78, 61
1, 38160, Tempo, 345821
1, 38160, Note_on_c, 0, 69, 0
1, 38160, Note_on_c, 0, 74, 0
1, 38160, Note_on_c, 0, 66, 0
1, 38160, Note_on_c, 0, 62, 66
1, 38240, Note_on_c, 0, 78, 0
1, 38240, Note_on_c, 0, 84, 60
1, 38280, Note_on_c, 0, 62, 0
1, 38400, Tempo, 338028
1, 38400, Note_on_c, 0, 84, 0
1, 38400, Note_on_c, 0, 85, 74
1, 38400, Note_on_c, 0, 65, 59
1, 38400, Note_on_c, 0, 69, 59
1, 38400, Note_on_c, 0, 73, 74
1, 38400, Control_c, 0, 64, 0
1, 38537, Control_c, 0, 64, 127
1, 38560, Note_on_c, 0, 85, 0
1, 38560, Note_on_c, 0, 77, 58
1, 38640, Tempo, 345821
1, 38640, Note_on_c, 0, 69, 0
1, 38640, Note_on_c, 0, 73, 0
1, 38640, Note_on_c, 0, 65, 0
1, 38640, Note_on_c, 0, 63, 64
1, 38720, Note_on_c, 0, 77, 0
1, 38720, Note_on_c, 0, 79, 58
1, 38760, Note_on_c, 0, 63, 0
1, 38880, Note_on_c, 0, 79, 0
1, 38880, Note_on_c, 0, 93, 0
1, 38880, Note_on_c, 0, 84, 78
1, 38880, Note_on_c, 0, 80, 73
1, 38880, Note_on_c, 0, 64, 50
1, 38880, Note_on_c, 0, 69, 50
1, 38880, Note_on_c, 0, 72, 63
1, 38899, Tempo, 355030
1, 38905, Tempo, 345821
1, 38909, Control_c, 0, 64, 0
1, 38982, Tempo, 346821
1, 39000, Control_c, 0, 64, 127
1, 39040, Note_on_c, 0, 80, 0
1, 39040, Note_on_c, 0, 81, 55
1, 39059, Tempo, 347826
1, 39120, Note_on_c, 0, 69, 0
1, 39120, Note_on_c, 0, 72, 0
1, 39120, Note_on_c, 0, 84, 0
1, 39120, Note_on_c, 0, 64, 0
1, 39120, Note_on_c, 0, 57, 52
1, 39135, Tempo, 348837
1, 39193, Tempo, 349854
1, 39200, Note_on_c, 0, 81, 0
1, 39200, Note_on_c, 0, 82, 55
1, 39240, Note_on_c, 0, 57, 0
1, 39270, Tempo, 350877
1, 39337, Control_c, 0, 64, 0
1, 39347, Tempo, 351906
1, 39360, Note_on_c, 0, 82, 0
1, 39360, Note_on_c, 0, 88, 77
1, 39360, Note_on_c, 0, 83, 68
1, 39360, Note_on_c, 0, 62, 54
1, 39360, Note_on_c, 0, 64, 54
1, 39360, Note_on_c, 0, 68, 54
1, 39360, Note_on_c, 0, 71, 66
1, 39404, Tempo, 352941
1, 39406, Control_c, 0, 64, 127
1, 39481, Tempo, 353982
1, 39520, Note_on_c, 0, 83, 0
1, 39520, Note_on_c, 0, 76, 53
1, 39558, Tempo, 355030
1, 39600, Note_on_c, 0, 62, 0
1, 39600, Note_on_c, 0, 68, 0
1, 39600, Note_on_c, 0, 64, 0
1, 39600, Note_on_c, 0, 71, 0
1, 39600, Note_on_c, 0, 59, 54
1, 39615, Tempo, 356083
1, 39680, Note_on_c, 0, 76, 0
1, 39680, Note_on_c, 0, 81, 51
1, 39692, Tempo, 357143
1, 39720, Note_on_c, 0, 59, 0
1, 39769, Tempo, 358209
1, 39827, Tempo, 359281
1, 39840, Tempo, 368098
1, 39840, Note_on_c, 0, 81, 0
1, 39840, Note_on_c, 0, 82, 63
1, 39840, Note_on_c, 0, 61, 46
1, 39840, Note_on_c, 0, 64, 46
1, 39840, Note_on_c, 0, 67, 46
1, 39840, Note_on_c, 0, 70, 54
1, 39845, Control_c, 0, 64, 0
1, 39915, Control_c, 0, 64, 127
1, 40000, Note_on_c, 0, 82, 0
1, 40000, Note_on_c, 0, 79, 49
1, 40080, Note_on_c, 0, 61, 0
1, 40080, Note_on_c, 0, 67, 0
1, 40080, Note_on_c, 0, 64, 0
1, 40080, Note_on_c, 0, 70, 0
1, 40080, Note_on_c, 0, 60, 48
1, 40160, Note_on_c, 0, 79, 0
1, 40160, Note_on_c, 0, 80, 49
1, 40320, Note_on_c, 0, 80, 0
1, 40320, Note_on_c, 0, 81, 58
1, 40320, Note_on_c, 0, 64, 61
1, 40320, Note_on_c, 0, 69, 61
1, 40359, Control_c, 0, 64, 0
1, 40454, Control_c, 0, 64, 127
1, 40640, Note_on_c, 0, 81, 0
1, 40640, Note_on_c, 0, 80, 46
1, 40800, Tempo, 351906
1, 40800, Note_on_c, 0, 80, 0
1, 40800, Note_on_c, 0, 69, 0
1, 40800, Note_on_c, 0, 88, 0
1, 40800, Note_on_c, 0, 60, 0
1, 40800, Note_on_c, 0, 64, 0
1, 40800, Note_on_c, 0, 84, 59
1, 40800, Note_on_c, 0, 81, 50
1, 40800, Note_on_c, 0, 64, 56
1, 40800, Note_on_c, 0, 69, 56
1, 40806, Control_c, 0, 64, 0
1, 40867, Control_c, 0, 64, 127
1, 40920, Note_on_c, 0, 69, 0
1, 40920, Note_on_c, 0, 64, 0
1, 40960, Note_on_c, 0, 81, 0
1, 40960, Note_on_c, 0, 80, 45
1, 41040, Tempo, 345841
1, 41040, Note_on_c, 0, 60, 46
1, 41120, Note_on_c, 0, 80, 0
1, 41120, Note_on_c, 0, 79, 45
1, 41280, Note_on_c, 0, 79, 0
1, 41280, Note_on_c, 0, 84, 0
1, 41280, Note_on_c, 0, 84, 59
1, 41280, Note_on_c, 0, 78, 50
1, 41280, Note_on_c, 0, 64, 53
1, 41280, Note_on_c, 0, 68, 53
1, 41290, Control_c, 0, 64, 0
1, 41351, Control_c, 0, 64, 127
1, 41400, Note_on_c, 0, 68, 0
1, 41400, Note_on_c, 0, 64, 0
1, 41440, Note_on_c, 0, 78, 0
1, 41440, Note_on_c, 0, 77, 44
1, 41520, Tempo, 366972
1, 41520, Note_on_c, 0, 59, 43
1, 41600, Note_on_c, 0, 77, 0
1, 41600, Note_on_c, 0, 76, 44
1, 41760, Tempo, 350877
1, 41760, Note_on_c, 0, 76, 0
1, 41760, Note_on_c, 0, 59, 0
1, 41760, Note_on_c, 0, 84, 0
1, 41760, Note_on_c, 0, 75, 50
1, 41760, Note_on_c, 0, 84, 59
1, 41760, Note_on_c, 0, 64, 53
1, 41760, Note_on_c, 0, 67, 53
1, 41781, Control_c, 0, 64, 0
1, 41852, Control_c, 0, 64, 127
1, 41880, Note_on_c, 0, 67, 0
1, 41880, Note_on_c, 0, 64, 0
1, 41920, Note_on_c, 0, 75, 0
1, 41920, Note_on_c, 0, 76, 47
1, 42000, Note_on_c, 0, 58, 43
1, 42080, Note_on_c, 0, 76, 0
1, 42080, Note_on_c, 0, 77, 44
1, 42240, Note_on_c, 0, 77, 0
1, 42240, Note_on_c, 0, 58, 0
1, 42240, Note_on_c, 0, 84, 0
1, 42240, Note_on_c, 0, 78, 50
1, 42240, Note_on_c, 0, 87, 59
1, 42240, Note_on_c, 0, 63, 54
1, 42240, Note_on_c, 0, 66, 54
1, 42240, Control_c, 0, 64, 0
1, 42343, Control_c, 0, 64, 127
1, 42360, Note_on_c, 0, 66, 0
1, 42360, Note_on_c, 0, 63, 0
1, 42400, Note_on_c, 0, 78, 0
1, 42400, Note_on_c, 0, 77, 46
1, 42480, Tempo, 343859
1, 42480, Note_on_c, 0, 57, 46
1, 42560, Note_on_c, 0, 77, 0
1, 42560, Note_on_c, 0, 76, 46
1, 42600, Note_on_c, 0, 57, 0
1, 42720, Tempo, 347846
1, 42720, Note_on_c, 0, 76, 0
1, 42720, Note_on_c, 0, 87, 0
1, 42720, Note_on_c, 0, 80, 59
1, 42720, Note_on_c, 0, 75, 50
1, 42720, Note_on_c, 0, 48, 56
1, 42720, Note_on_c, 0, 56, 56
1, 42726, Control_c, 0, 64, 0
1, 42787, Control_c, 0, 64, 127
1, 42840, Note_on_c, 0, 56, 0
1, 42840, Note_on_c, 0, 48, 0
1, 42880, Note_on_c, 0, 75, 0
1, 42880, Note_on_c, 0, 74, 45
1, 42960, Note_on_c, 0, 60, 0
1, 42960, Note_on_c, 0, 60, 46
1, 43040, Note_on_c, 0, 74, 0
1, 43040, Note_on_c, 0, 73, 45
1, 43200, Note_on_c, 0, 73, 0
1, 43200, Note_on_c, 0, 80, 0
1, 43200, Note_on_c, 0, 80, 59
1, 43200, Note_on_c, 0, 72, 50
1, 43200, Note_on_c, 0, 65, 53
1, 43210, Control_c, 0, 64, 0
1, 43271, Control_c, 0, 64, 127
1, 43320, Note_on_c, 0, 65, 0
1, 43360, Note_on_c, 0, 72, 0
1, 43360, Note_on_c, 0, 70, 44
1, 43440, Tempo, 366972
1, 43440, Note_on_c, 0, 56, 43
1, 43520, Note_on_c, 0, 70, 0
1, 43520, Note_on_c, 0, 71, 44
1, 43680, Tempo, 350877
1, 43680, Note_on_c, 0, 71, 0
1, 43680, Note_on_c, 0, 56, 0
1, 43680, Note_on_c, 0, 80, 0
1, 43680, Note_on_c, 0, 72, 50
1, 43680, Note_on_c, 0, 80, 59
1, 43680, Note_on_c, 0, 63, 53
1, 43701, Control_c, 0, 64, 0
1, 43772, Control_c, 0, 64, 127
1, 43800, Note_on_c, 0, 63, 0
1, 43840, Note_on_c, 0, 72, 0
1, 43840, Note_on_c, 0, 73, 47
1, 43920, Note_on_c, 0, 55, 43
1, 44000, Note_on_c, 0, 73, 0
1, 44000, Note_on_c, 0, 74, 44
1, 44160, Note_on_c, 0, 74, 0
1, 44160, Note_on_c, 0, 55, 0
1, 44160, Note_on_c, 0, 80, 0
1, 44160, Note_on_c, 0, 75, 50
1, 44160, Note_on_c, 0, 84, 59
1, 44160, Note_on_c, 0, 63, 54
1, 44160, Control_c, 0, 64, 0
1, 44263, Control_c, 0, 64, 127
1, 44280, Tempo, 345841
1, 44280, Note_on_c, 0, 63, 0
1, 44320, Note_on_c, 0, 75, 0
1, 44320, Note_on_c, 0, 74, 46
1, 44400, Note_on_c, 0, 54, 46
1, 44480, Note_on_c, 0, 74, 0
1, 44480, Note_on_c, 0, 73, 46
1, 44520, Note_on_c, 0, 54, 0
1, 44640, Note_on_c, 0, 73, 0
1, 44640, Note_on_c, 0, 84, 0
1, 44640, Note_on_c, 0, 72, 59
1, 44640, Note_on_c, 0, 75, 59
1, 44640, Note_on_c, 0, 79, 59
1, 44640, Note_on_c, 0, 55, 49
1, 44654, Control_c, 0, 64, 0
1, 44723, Control_c, 0, 64, 127
1, 44800, Note_on_c, 0, 55, 0
1, 44800, Note_on_c, 0, 47, 42
1, 44880, Note_on_c, 0, 60, 0
1, 44960, Note_on_c, 0, 72, 0
1, 44960, Note_on_c, 0, 47, 0
1, 44960, Note_on_c, 0, 67, 59
1, 44960, Note_on_c, 0, 48, 42
1, 45000, Tempo, 394737
1, 45052, Control_c, 0, 64, 0
1, 45060, Note_on_c, 0, 70, 45
1, 45080, Note_on_c, 0, 75, 47
1, 45095, Control_c, 0, 64, 127
1, 45100, Note_on_c, 0, 79, 49
1, 45120, Tempo, 350877
1, 45120, Note_on_c, 0, 48, 0
1, 45120, Note_on_c, 0, 67, 0
1, 45120, Note_on_c, 0, 79, 0
1, 45120, Note_on_c, 0, 75, 0
1, 45120, Note_on_c, 0, 82, 59
1, 45120, Note_on_c, 0, 41, 49
1, 45280, Note_on_c, 0, 41, 0
1, 45280, Note_on_c, 0, 49, 42
1, 45440, Note_on_c, 0, 49, 0
1, 45440, Note_on_c, 0, 53, 42
1, 45600, Tempo, 357143
1, 45600, Note_on_c, 0, 53, 0
1, 45600, Note_on_c, 0, 79, 0
1, 45600, Note_on_c, 0, 75, 0
1, 45600, Note_on_c, 0, 70, 0
1, 45600, Note_on_c, 0, 82, 0
1, 45600, Note_on_c, 0, 68, 53
1, 45600, Note_on_c, 0, 73, 53
1, 45600, Note_on_c, 0, 77, 53
1, 45600, Note_on_c, 0, 56, 48
1, 45612, Control_c, 0, 64, 0
1, 45663, Control_c, 0, 64, 127
1, 45760, Note_on_c, 0, 56, 0
1, 45760, Note_on_c, 0, 61, 42
1, 45840, Tempo, 339943
1, 45920, Note_on_c, 0, 61, 0
1, 45920, Note_on_c, 0, 60, 42
1, 45960, Tempo, 439560
1, 46020, Note_on_c, 0, 77, 0
1, 46020, Note_on_c, 0, 68, 0
1, 46020, Note_on_c, 0, 73, 0
1, 46020, Note_on_c, 0, 65, 43
1, 46035, Note_on_c, 0, 68, 45
1, 46050, Note_on_c, 0, 73, 48
1, 46065, Note_on_c, 0, 77, 52
1, 46080, Tempo, 356104
1, 46080, Note_on_c, 0, 60, 0
1, 46080, Note_on_c, 0, 80, 64
1, 46080, Note_on_c, 0, 59, 55
1, 46100, Control_c, 0, 64, 0
1, 46163, Control_c, 0, 64, 127
1, 46240, Note_on_c, 0, 59, 0
1, 46240, Note_on_c, 0, 56, 41
1, 46400, Note_on_c, 0, 56, 0
1, 46400, Note_on_c, 0, 53, 41
1, 46560, Note_on_c, 0, 53, 0
1, 46560, Note_on_c, 0, 68, 0
1, 46560, Note_on_c, 0, 77, 0
1, 46560, Note_on_c, 0, 65, 0
1, 46560, Note_on_c, 0, 80, 0
1, 46560, Note_on_c, 0, 73, 0
1, 46560, Note_on_c, 0, 67, 51
1, 46560, Note_on_c, 0, 72, 51
1, 46560, Note_on_c, 0, 76, 51
1, 46560, Note_on_c, 0, 52, 49
1, 46572, Control_c, 0, 64, 0
1, 46677, Control_c, 0, 64, 127
1, 46720, Note_on_c, 0, 52, 0
1, 46720, Note_on_c, 0, 48, 40
1, 46800, Tempo, 377382
1, 46880, Note_on_c, 0, 48, 0
1, 46880, Note_on_c, 0, 43, 40
1, 47040, Tempo, 363658
1, 47040, Note_on_c, 0, 76, 0
1, 47040, Note_on_c, 0, 67, 0
1, 47040, Note_on_c, 0, 72, 0
1, 47040, Note_on_c, 0, 72, 48
1, 47040, Note_on_c, 0, 65, 48
1, 47040, Note_on_c, 0, 67, 48
1, 47040, Note_on_c, 0, 79, 57
1, 47040, Note_on_c, 0, 77, 48
1, 47040, Note_on_c, 0, 50, 47
1, 47060, Control_c, 0, 64, 0
1, 47166, Control_c, 0, 64, 127
1, 47200, Note_on_c, 0, 50, 0
1, 47200, Note_on_c, 0, 43, 0
1, 47200, Note_on_c, 0, 56, 34
1, 47360, Note_on_c, 0, 56, 0
1, 47360, Note_on_c, 0, 57, 34
1, 47520, Tempo, 377382
1, 47520, Note_on_c, 0, 57, 0
1, 47520, Note_on_c, 0, 72, 0
1, 47520, Note_on_c, 0, 74, 49
1, 47520, Note_on_c, 0, 58, 45
1, 47531, Control_c, 0, 64, 0
1, 47589, Control_c, 0, 64, 127
1, 47680, Note_on_c, 0, 58, 0
1, 47680, Note_on_c, 0, 59, 34
1, 47760, Tempo, 401365
1, 47840, Note_on_c, 0, 59, 0
1, 47840, Note_on_c, 0, 67, 35
1, 48000, Time_signature, 2, 2, 24, 8
1, 48000, Tempo, 390905
1, 48000, Note_on_c, 0, 67, 0
1, 48000, Note_on_c, 0, 77, 0
1, 48000, Note_on_c, 0, 65, 0
1, 48000, Note_on_c, 0, 67, 0
1, 48000, Note_on_c, 0, 74, 0
1, 48000, Note_on_c, 0, 79, 0
1, 48000, Note_on_c, 0, 72, 42
1, 48000, Note_on_c, 0, 64, 46
1, 48000, Note_on_c, 0, 60, 46
1, 48000, Control_c, 0, 64, 0
1, 48085, Control_c, 0, 64, 127
1, 48480, Tempo, 427960
1, 48480, Note_on_c, 0, 60, 0
1, 48480, Note_on_c, 0, 64, 0
1, 48480, Note_on_c, 0, 72, 0
1, 48480, Note_on_c, 0, 24, 64
1, 48499, Tempo, 424208
1, 48538, Tempo, 422357
1, 48557, Tempo, 420521
1, 48560, Note_on_c, 0, 24, 0
1, 48560, Note_on_c, 0, 36, 64
1, 48576, Tempo, 418702
1, 48595, Tempo, 416898
1, 48614, Tempo, 415110
1, 48640, Note_on_c, 0, 36, 0
1, 48640, Note_on_c, 0, 43, 60
1, 48653, Tempo, 413337
1, 48672, Tempo, 411579
1, 48691, Tempo, 409836
1, 48710, Tempo, 408108
1, 48720, Note_on_c, 0, 43, 0
1, 48720, Note_on_c, 0, 48, 65
1, 48730, Tempo, 406394
1, 48768, Tempo, 404694
1, 48787, Tempo, 403009
1, 48800, Note_on_c, 0, 48, 0
1, 48800, Note_on_c, 0, 52, 67
1, 48806, Tempo, 401338
1, 48826, Tempo, 399654
1, 48845, Tempo, 398010
1, 48880, Note_on_c, 0, 52, 0
1, 48880, Note_on_c, 0, 55, 70
1, 48883, Tempo, 396380
1, 48902, Tempo, 394763
1, 48922, Tempo, 393159
1, 48941, Tempo, 391568
1, 48960, Time_signature, 4, 2, 24, 8
1, 48960, Tempo, 388425
1, 48960, Note_on_c, 0, 55, 0
1, 48960, Note_on_c, 0, 44, 73
1, 48960, Note_on_c, 0, 56, 79
1, 48963, Control_c, 0, 64, 0
1, 49034, Control_c, 0, 64, 127
1, 49280, Note_on_c, 0, 61, 37
1, 49280, Note_on_c, 0, 64, 43
1, 49360, Note_on_c, 0, 64, 0
1, 49360, Note_on_c, 0, 61, 0
1, 49384, Control_c, 0, 64, 0
1, 49433, Control_c, 0, 64, 127
1, 49440, Tempo, 356888
1, 49440, Note_on_c, 0, 61, 41
1, 49440, Note_on_c, 0, 64, 48
1, 49440, Note_on_c, 0, 49, 42
1, 49600, Note_on_c, 0, 49, 0
1, 49600, Note_on_c, 0, 61, 0
1, 49600, Note_on_c, 0, 64, 0
1, 49600, Note_on_c, 0, 60, 44
1, 49600, Note_on_c, 0, 48, 40
1, 49680, Note_on_c, 0, 48, 0
1, 49680, Note_on_c, 0, 60, 0
1, 49760, Tempo, 415110
1, 49760, Note_on_c, 0, 61, 38
1, 49760, Note_on_c, 0, 65, 45
1, 49760, Note_on_c, 0, 47, 41
1, 49840, Note_on_c, 0, 47, 0
1, 49840, Note_on_c, 0, 61, 0
1, 49840, Note_on_c, 0, 65, 0
1, 49920, Tempo, 358209
1, 49920, Note_on_c, 0, 61, 45
1, 49920, Note_on_c, 0, 65, 52
1, 49920, Note_on_c, 0, 46, 46
1, 49927, Control_c, 0, 64, 0
1, 49973, Control_c, 0, 64, 127
1, 50080, Note_on_c, 0, 46, 0
1, 50080, Note_on_c, 0, 61, 0
1, 50080, Note_on_c, 0, 65, 0
1, 50080, Note_on_c, 0, 44, 0
1, 50080, Note_on_c, 0, 60, 47
1, 50080, Note_on_c, 0, 45, 43
1, 50160, Note_on_c, 0, 45, 0
1, 50160, Note_on_c, 0, 60, 0
1, 50240, Tempo, 411579
1, 50240, Note_on_c, 0, 62, 41
1, 50240, Note_on_c, 0, 66, 48
1, 50240, Note_on_c, 0, 44, 44
1, 50320, Note_on_c, 0, 66, 0
1, 50320, Note_on_c, 0, 62, 0
1, 50400, Tempo, 351886
1, 50400, Note_on_c, 0, 44, 0
1, 50400, Note_on_c, 0, 62, 48
1, 50400, Note_on_c, 0, 66, 56
1, 50400, Note_on_c, 0, 36, 50
1, 50407, Control_c, 0, 64, 0
1, 50474, Control_c, 0, 64, 127
1, 50560, Note_on_c, 0, 36, 0
1, 50560, Note_on_c, 0, 66, 0
1, 50560, Note_on_c, 0, 62, 0
1, 50560, Note_on_c, 0, 60, 49
1, 50560, Note_on_c, 0, 44, 43
1, 50640, Note_on_c, 0, 44, 0
1, 50640, Note_on_c, 0, 60, 0
1, 50720, Tempo, 409836
1, 50720, Note_on_c, 0, 63, 43
1, 50720, Note_on_c, 0, 67, 51
1, 50720, Note_on_c, 0, 51, 45
1, 50800, Note_on_c, 0, 51, 0
1, 50800, Note_on_c, 0, 67, 0
1, 50800, Note_on_c, 0, 63, 0
1, 50880, Tempo, 346801
1, 50880, Note_on_c, 0, 56, 0
1, 50880, Note_on_c, 0, 63, 51
1, 50880, Note_on_c, 0, 67, 60
1, 50880, Note_on_c, 0, 60, 52
1, 50886, Control_c, 0, 64, 0
1, 50937, Control_c, 0, 64, 127
1, 51040, Tempo, 345801
1, 51040, Note_on_c, 0, 60, 0
1, 51040, Note_on_c, 0, 67, 0
1, 51040, Note_on_c, 0, 63, 0
1, 51040, Note_on_c, 0, 62, 52
1, 51040, Note_on_c, 0, 58, 46
1, 51120, Note_on_c, 0, 58, 0
1, 51120, Note_on_c, 0, 62, 0
1, 51200, Tempo, 406394
1, 51200, Note_on_c, 0, 63, 44
1, 51200, Note_on_c, 0, 67, 53
1, 51200, Note_on_c, 0, 56, 50
1, 51280, Note_on_c, 0, 56, 0
1, 51280, Note_on_c, 0, 67, 0
1, 51280, Note_on_c, 0, 63, 0
1, 51360, Tempo, 338964
1, 51360, Note_on_c, 0, 64, 53
1, 51360, Note_on_c, 0, 67, 63
1, 51360, Note_on_c, 0, 55, 56
1, 51367, Control_c, 0, 64, 0
1, 51399, Control_c, 0, 64, 127
1, 51520, Note_on_c, 0, 55, 0
1, 51520, Note_on_c, 0, 67, 0
1, 51520, Note_on_c, 0, 64, 0
1, 51520, Note_on_c, 0, 62, 56
1, 51520, Note_on_c, 0, 53, 51
1, 51680, Tempo, 419551
1, 51680, Note_on_c, 0, 53, 0
1, 51680, Note_on_c, 0, 62, 0
1, 51680, Note_on_c, 0, 64, 47
1, 51680, Note_on_c, 0, 67, 56
1, 51680, Note_on_c, 0, 52, 52
1, 51840, Tempo, 356888
1, 51840, Note_on_c, 0, 52, 0
1, 51840, Note_on_c, 0, 60, 67
1, 51840, Note_on_c, 0, 72, 81
1, 51840, Note_on_c, 0, 52, 63
1, 51851, Control_c, 0, 64, 0
1, 51932, Control_c, 0, 64, 127
1, 52000, Note_on_c, 0, 52, 0
1, 52000, Note_on_c, 0, 43, 54
1, 52160, Note_on_c, 0, 43, 0
1, 52160, Note_on_c, 0, 36, 56
1, 52282, Tempo, 376341
1, 52320, Tempo, 374883
1, 52320, Note_on_c, 0, 36, 0
1, 52320, Note_on_c, 0, 60, 0
1, 52320, Note_on_c, 0, 64, 0
1, 52320, Note_on_c, 0, 67, 0
1, 52320, Note_on_c, 0, 72, 0
1, 52320, Note_on_c, 0, 43, 65
1, 52341, Control_c, 0, 64, 0
1, 52358, Tempo, 373436
1, 52378, Tempo, 372001
1, 52398, Control_c, 0, 64, 127
1, 52416, Tempo, 370576
1, 52435, Tempo, 369163
1, 52440, Note_on_c, 0, 43, 0
1, 52440, Note_on_c, 0, 48, 65
1, 52474, Tempo, 367760
1, 52493, Tempo, 366367
1, 52531, Tempo, 364986
1, 52550, Tempo, 363614
1, 52560, Note_on_c, 0, 48, 0
1, 52560, Note_on_c, 0, 52, 65
1, 52589, Tempo, 362253
1, 52608, Tempo, 360902
1, 52646, Tempo, 359540
1, 52666, Tempo, 358209
1, 52680, Note_on_c, 0, 52, 0
1, 52680, Note_on_c, 0, 55, 66
1, 52704, Tempo, 356888
1, 52723, Tempo, 355577
1, 52762, Tempo, 354275
1, 52781, Tempo, 352983
1, 52800, Tempo, 359540
1, 52800, Note_on_c, 0, 55, 0
1, 52800, Note_on_c, 0, 46, 80
1, 52800, Note_on_c, 0, 58, 90
1, 52803, Control_c, 0, 64, 0
1, 52874, Control_c, 0, 64, 127
1, 53120, Note_on_c, 0, 63, 40
1, 53120, Note_on_c, 0, 67, 46
1, 53200, Note_on_c, 0, 67, 0
1, 53200, Note_on_c, 0, 63, 0
1, 53224, Control_c, 0, 64, 0
1, 53273, Control_c, 0, 64, 127
1, 53280, Note_on_c, 0, 63, 44
1, 53280, Note_on_c, 0, 67, 52
1, 53280, Note_on_c, 0, 51, 46
1, 53440, Note_on_c, 0, 51, 0
1, 53440, Note_on_c, 0, 63, 0
1, 53440, Note_on_c, 0, 67, 0
1, 53440, Note_on_c, 0, 62, 48
1, 53440, Note_on_c, 0, 50, 44
1, 53520, Note_on_c, 0, 50, 0
1, 53520, Note_on_c, 0, 62, 0
1, 53600, Tempo, 415110
1, 53600, Note_on_c, 0, 64, 41
1, 53600, Note_on_c, 0, 68, 49
1, 53600, Note_on_c, 0, 49, 44
1, 53680, Note_on_c, 0, 49, 0
1, 53680, Note_on_c, 0, 64, 0
1, 53680, Note_on_c, 0, 68, 0
1, 53760, Tempo, 358209
1, 53760, Note_on_c, 0, 64, 48
1, 53760, Note_on_c, 0, 68, 56
1, 53760, Note_on_c, 0, 48, 50
1, 53767, Control_c, 0, 64, 0
1, 53813, Control_c, 0, 64, 127
1, 53920, Note_on_c, 0, 48, 0
1, 53920, Note_on_c, 0, 64, 0
1, 53920, Note_on_c, 0, 68, 0
1, 53920, Note_on_c, 0, 46, 0
1, 53920, Note_on_c, 0, 62, 51
1, 53920, Note_on_c, 0, 46, 47
1, 54000, Note_on_c, 0, 46, 0
1, 54000, Note_on_c, 0, 62, 0
1, 54080, Tempo, 411579
1, 54080, Note_on_c, 0, 65, 44
1, 54080, Note_on_c, 0, 69, 52
1, 54080, Note_on_c, 0, 45, 48
1, 54160, Note_on_c, 0, 69, 0
1, 54160, Note_on_c, 0, 65, 0
1, 54240, Tempo, 358188
1, 54240, Note_on_c, 0, 65, 50
1, 54240, Note_on_c, 0, 69, 60
1, 54240, Note_on_c, 0, 57, 55
1, 54247, Control_c, 0, 64, 0
1, 54314, Control_c, 0, 64, 127
1, 54400, Note_on_c, 0, 69, 0
1, 54400, Note_on_c, 0, 65, 0
1, 54400, Note_on_c, 0, 45, 0
1, 54400, Note_on_c, 0, 62, 53
1, 54400, Note_on_c, 0, 46, 47
1, 54480, Note_on_c, 0, 46, 0
1, 54480, Note_on_c, 0, 62, 0
1, 54560, Tempo, 409836
1, 54560, Note_on_c, 0, 66, 46
1, 54560, Note_on_c, 0, 70, 55
1, 54560, Note_on_c, 0, 45, 49
1, 54640, Note_on_c, 0, 45, 0
1, 54640, Note_on_c, 0, 66, 0
1, 54640, Note_on_c, 0, 70, 0
1, 54720, Tempo, 350898
1, 54720, Note_on_c, 0, 58, 0
1, 54720, Note_on_c, 0, 57, 0
1, 54720, Note_on_c, 0, 66, 54
1, 54720, Note_on_c, 0, 70, 64
1, 54720, Note_on_c, 0, 44, 56
1, 54726, Control_c, 0, 64, 0
1, 54777, Control_c, 0, 64, 127
1, 54880, Note_on_c, 0, 44, 0
1, 54880, Note_on_c, 0, 70, 0
1, 54880, Note_on_c, 0, 66, 0
1, 54880, Note_on_c, 0, 62, 56
1, 54880, Note_on_c, 0, 43, 49
1, 54960, Note_on_c, 0, 62, 0
1, 55040, Tempo, 406394
1, 55040, Note_on_c, 0, 66, 47
1, 55040, Note_on_c, 0, 71, 57
1, 55040, Note_on_c, 0, 56, 54
1, 55120, Note_on_c, 0, 56, 0
1, 55120, Note_on_c, 0, 71, 0
1, 55120, Note_on_c, 0, 66, 0
1, 55200, Tempo, 347846
1, 55200, Note_on_c, 0, 67, 58
1, 55200, Note_on_c, 0, 71, 69
1, 55200, Note_on_c, 0, 55, 60
1, 55207, Control_c, 0, 64, 0
1, 55239, Control_c, 0, 64, 127
1, 55360, Note_on_c, 0, 55, 0
1, 55360, Note_on_c, 0, 71, 0
1, 55360, Note_on_c, 0, 67, 0
1, 55360, Note_on_c, 0, 62, 60
1, 55360, Note_on_c, 0, 53, 55
1, 55520, Tempo, 409836
1, 55520, Note_on_c, 0, 53, 0
1, 55520, Note_on_c, 0, 62, 0
1, 55520, Note_on_c, 0, 67, 50
1, 55520, Note_on_c, 0, 71, 60
1, 55520, Note_on_c, 0, 52, 56
1, 55680, Tempo, 402685
1, 55680, Note_on_c, 0, 52, 0
1, 55680, Note_on_c, 0, 71, 0
1, 55680, Note_on_c, 0, 43, 0
1, 55680, Note_on_c, 0, 64, 72
1, 55680, Note_on_c, 0, 72, 69
1, 55680, Note_on_c, 0, 76, 88
1, 55680, Note_on_c, 0, 52, 69
1, 55691, Control_c, 0, 64, 0
1, 55740, Control_c, 0, 64, 127
1, 55840, Note_on_c, 0, 43, 58
1, 56000, Note_on_c, 0, 43, 0
1, 56000, Note_on_c, 0, 36, 60
1, 56160, Tempo, 374883
1, 56160, Note_on_c, 0, 36, 0
1, 56160, Note_on_c, 0, 52, 0
1, 56160, Note_on_c, 0, 72, 0
1, 56160, Note_on_c, 0, 67, 0
1, 56160, Note_on_c, 0, 64, 0
1, 56160, Note_on_c, 0, 76, 0
1, 56160, Note_on_c, 0, 43, 63
1, 56181, Control_c, 0, 64, 0
1, 56181, Control_c, 0, 64, 0
1, 56198, Tempo, 373436
1, 56218, Tempo, 372001
1, 56238, Control_c, 0, 64, 127
1, 56238, Control_c, 0, 64, 127
1, 56256, Tempo, 370576
1, 56275, Tempo, 369163
1, 56280, Note_on_c, 0, 43, 0
1, 56280, Note_on_c, 0, 48, 66
1, 56314, Tempo, 367760
1, 56333, Tempo, 366367
1, 56371, Tempo, 364986
1, 56390, Tempo, 363614
1, 56400, Note_on_c, 0, 48, 0
1, 56400, Note_on_c, 0, 24, 57
1, 56400, Note_on_c, 0, 36, 68
1, 56400, Note_on_c, 0, 52, 68
1, 56429, Tempo, 362253
1, 56448, Tempo, 360902
1, 56486, Tempo, 359540
1, 56506, Tempo, 358209
1, 56520, Note_on_c, 0, 52, 0
1, 56520, Note_on_c, 0, 55, 69
1, 56544, Tempo, 356888
1, 56563, Tempo, 355577
1, 56602, Tempo, 354275
1, 56621, Tempo, 352983
1, 56640, Tempo, 388425
1, 56640, Note_on_c, 0, 55, 0
1, 56640, Note_on_c, 0, 36, 0
1, 56640, Note_on_c, 0, 24, 0
1, 56640, Note_on_c, 0, 58, 67
1, 56640, Note_on_c, 0, 53, 67
1, 56640, Note_on_c, 0, 50, 67
1, 56640, Note_on_c, 0, 62, 67
1, 56643, Control_c, 0, 64, 0
1, 56714, Control_c, 0, 64, 127
1, 56960, Note_on_c, 0, 67, 43
1, 56960, Note_on_c, 0, 70, 50
1, 57064, Control_c, 0, 64, 0
1, 57113, Control_c, 0, 64, 127
1, 57120, Tempo, 356888
1, 57120, Note_on_c, 0, 70, 0
1, 57120, Note_on_c, 0, 67, 0
1, 57120, Note_on_c, 0, 67, 47
1, 57120, Note_on_c, 0, 70, 56
1, 57280, Note_on_c, 0, 70, 0
1, 57280, Note_on_c, 0, 67, 0
1, 57280, Note_on_c, 0, 65, 51
1, 57360, Note_on_c, 0, 65, 0
1, 57440, Tempo, 415110
1, 57440, Note_on_c, 0, 50, 0
1, 57440, Note_on_c, 0, 58, 0
1, 57440, Note_on_c, 0, 53, 0
1, 57440, Note_on_c, 0, 62, 0
1, 57440, Note_on_c, 0, 68, 44
1, 57440, Note_on_c, 0, 71, 52
1, 57440, Note_on_c, 0, 44, 47
1, 57520, Note_on_c, 0, 71, 0
1, 57520, Note_on_c, 0, 68, 0
1, 57600, Tempo, 355051
1, 57600, Note_on_c, 0, 44, 0
1, 57600, Note_on_c, 0, 68, 53
1, 57600, Note_on_c, 0, 71, 61
1, 57600, Note_on_c, 0, 53, 55
1, 57600, Note_on_c, 0, 61, 58
1, 57607, Control_c, 0, 64, 0
1, 57653, Control_c, 0, 64, 127
1, 57760, Note_on_c, 0, 71, 0
1, 57760, Note_on_c, 0, 68, 0
1, 57760, Note_on_c, 0, 65, 56
1, 57840, Note_on_c, 0, 65, 0
1, 57920, Tempo, 411579
1, 57920, Note_on_c, 0, 53, 0
1, 57920, Note_on_c, 0, 61, 0
1, 57920, Note_on_c, 0, 69, 48
1, 57920, Note_on_c, 0, 72, 57
1, 57920, Note_on_c, 0, 45, 52
1, 58000, Note_on_c, 0, 72, 0
1, 58000, Note_on_c, 0, 69, 0
1, 58080, Tempo, 349834
1, 58080, Note_on_c, 0, 45, 0
1, 58080, Note_on_c, 0, 69, 56
1, 58080, Note_on_c, 0, 72, 66
1, 58080, Note_on_c, 0, 51, 59
1, 58080, Note_on_c, 0, 60, 63
1, 58087, Control_c, 0, 64, 0
1, 58154, Control_c, 0, 64, 127
1, 58240, Note_on_c, 0, 72, 0
1, 58240, Note_on_c, 0, 69, 0
1, 58240, Note_on_c, 0, 65, 58
1, 58320, Note_on_c, 0, 65, 0
1, 58400, Tempo, 409836
1, 58400, Note_on_c, 0, 51, 0
1, 58400, Note_on_c, 0, 60, 0
1, 58400, Note_on_c, 0, 70, 50
1, 58400, Note_on_c, 0, 73, 61
1, 58400, Note_on_c, 0, 41, 49
1, 58480, Note_on_c, 0, 73, 0
1, 58480, Note_on_c, 0, 70, 0
1, 58560, Tempo, 343820
1, 58560, Note_on_c, 0, 41, 0
1, 58560, Note_on_c, 0, 70, 54
1, 58560, Note_on_c, 0, 73, 63
1, 58560, Note_on_c, 0, 49, 56
1, 58560, Note_on_c, 0, 58, 60
1, 58567, Control_c, 0, 64, 0
1, 58613, Control_c, 0, 64, 127
1, 58720, Note_on_c, 0, 73, 0
1, 58720, Note_on_c, 0, 70, 0
1, 58720, Note_on_c, 0, 65, 58
1, 58800, Note_on_c, 0, 65, 0
1, 58880, Tempo, 411579
1, 58880, Note_on_c, 0, 49, 0
1, 58880, Note_on_c, 0, 58, 0
1, 58880, Note_on_c, 0, 71, 50
1, 58880, Note_on_c, 0, 74, 59
1, 58880, Note_on_c, 0, 44, 54
1, 58960, Note_on_c, 0, 74, 0
1, 58960, Note_on_c, 0, 71, 0
1, 59040, Tempo, 368098
1, 59040, Note_on_c, 0, 44, 0
1, 59040, Note_on_c, 0, 71, 59
1, 59040, Note_on_c, 0, 74, 69
1, 59040, Note_on_c, 0, 47, 63
1, 59040, Note_on_c, 0, 56, 67
1, 59047, Control_c, 0, 64, 0
1, 59114, Control_c, 0, 64, 127
1, 59200, Note_on_c, 0, 74, 0
1, 59200, Note_on_c, 0, 71, 0
1, 59200, Note_on_c, 0, 65, 62
1, 59280, Note_on_c, 0, 65, 0
1, 59360, Tempo, 409836
1, 59360, Note_on_c, 0, 47, 0
1, 59360, Note_on_c, 0, 56, 0
1, 59360, Note_on_c, 0, 72, 55
1, 59360, Note_on_c, 0, 75, 65
1, 59360, Note_on_c, 0, 39, 54
1, 59440, Note_on_c, 0, 75, 0
1, 59440, Note_on_c, 0, 72, 0
1, 59520, Tempo, 378549
1, 59520, Note_on_c, 0, 39, 0
1, 59520, Note_on_c, 0, 72, 58
1, 59520, Note_on_c, 0, 75, 68
1, 59520, Note_on_c, 0, 45, 60
1, 59520, Note_on_c, 0, 54, 65
1, 59527, Control_c, 0, 64, 0
1, 59573, Control_c, 0, 64, 127
1, 59680, Note_on_c, 0, 75, 0
1, 59680, Note_on_c, 0, 72, 0
1, 59680, Note_on_c, 0, 66, 63
1, 59760, Note_on_c, 0, 66, 0
1, 59840, Tempo, 411579
1, 59840, Note_on_c, 0, 45, 0
1, 59840, Note_on_c, 0, 54, 0
1, 59840, Note_on_c, 0, 73, 54
1, 59840, Note_on_c, 0, 80, 65
1, 59840, Note_on_c, 0, 41, 58
1, 59920, Note_on_c, 0, 80, 0
1, 59920, Note_on_c, 0, 73, 0
1, 60000, Tempo, 385852
1, 60000, Note_on_c, 0, 41, 0
1, 60000, Note_on_c, 0, 73, 65
1, 60000, Note_on_c, 0, 80, 77
1, 60000, Note_on_c, 0, 44, 57
1, 60000, Note_on_c, 0, 49, 57
1, 60000, Note_on_c, 0, 53, 73
1, 60007, Control_c, 0, 64, 0
1, 60074, Control_c, 0, 64, 127
1, 60160, Note_on_c, 0, 80, 0
1, 60160, Note_on_c, 0, 73, 0
1, 60160, Note_on_c, 0, 68, 69
1, 60240, Note_on_c, 0, 68, 0
1, 60320, Tempo, 504159
1, 60320, Note_on_c, 0, 53, 0
1, 60320, Note_on_c, 0, 44, 0
1, 60320, Note_on_c, 0, 49, 0
1, 60320, Note_on_c, 0, 72, 60
1, 60320, Note_on_c, 0, 75, 72
1, 60320, Note_on_c, 0, 48, 49
1, 60320, Note_on_c, 0, 51, 59
1, 60320, Note_on_c, 0, 42, 49
1, 60480, Tempo, 389610
1, 60480, Note_on_c, 0, 42, 0
1, 60480, Note_on_c, 0, 48, 0
1, 60480, Note_on_c, 0, 72, 0
1, 60480, Note_on_c, 0, 75, 0
1, 60480, Note_on_c, 0, 51, 0
1, 60480, Note_on_c, 0, 67, 67
1, 60480, Note_on_c, 0, 72, 67
1, 60480, Note_on_c, 0, 76, 79
1, 60480, Note_on_c, 0, 79, 93
1, 60480, Note_on_c, 0, 43, 53
1, 60480, Note_on_c, 0, 48, 53
1, 60480, Note_on_c, 0, 52, 63
1, 60480, Note_on_c, 0, 55, 75
1, 60486, Control_c, 0, 64, 0
1, 60621, Control_c, 0, 64, 127
1, 60960, Note_on_c, 0, 55, 0
1, 60960, Note_on_c, 0, 67, 0
1, 60960, Note_on_c, 0, 43, 0
1, 60960, Note_on_c, 0, 72, 0
1, 60960, Note_on_c, 0, 76, 0
1, 60960, Note_on_c, 0, 79, 0
1, 60960, Note_on_c, 0, 48, 0
1, 60960, Note_on_c, 0, 52, 0
1, 60960, Note_on_c, 0, 72, 57
1, 60960, Note_on_c, 0, 71, 57
1, 60960, Note_on_c, 0, 76, 68
1, 60960, Note_on_c, 0, 55, 49
1, 60960, Note_on_c, 0, 60, 49
1, 60960, Note_on_c, 0, 64, 58
1, 60972, Tempo, 383387
1, 61030, Tempo, 384615
1, 61087, Tempo, 385852
1, 61120, Note_on_c, 0, 71, 0
1, 61120, Note_on_c, 0, 69, 58
1, 61145, Tempo, 387097
1, 61203, Tempo, 388350
1, 61260, Tempo, 389610
1, 61280, Note_on_c, 0, 69, 0
1, 61280, Note_on_c, 0, 67, 58
1, 61318, Tempo, 390879
1, 61375, Tempo, 392157
1, 61433, Tempo, 393443
1, 61438, Note_on_c, 0, 64, 0
1, 61440, Note_on_c, 0, 76, 0
1, 61440, Note_on_c, 0, 55, 0
1, 61440, Note_on_c, 0, 72, 0
1, 61440, Note_on_c, 0, 67, 0
1, 61440, Note_on_c, 0, 60, 0
1, 61440, Note_on_c, 0, 64, 64
1, 61453, Control_c, 0, 64, 0
1, 61491, Tempo, 394737
1, 61539, Control_c, 0, 64, 127
1, 61548, Tempo, 396040
1, 61600, Note_on_c, 0, 64, 0
1, 61600, Note_on_c, 0, 62, 54
1, 61606, Tempo, 397351
1, 61663, Tempo, 398671
1, 61721, Tempo, 400000
1, 61760, Note_on_c, 0, 62, 0
1, 61760, Note_on_c, 0, 60, 55
1, 61779, Tempo, 401338
1, 61836, Tempo, 402685
1, 61894, Tempo, 404040
1, 61920, Note_on_c, 0, 60, 0
1, 61920, Note_on_c, 0, 65, 45
1, 61920, Note_on_c, 0, 67, 49
1, 61920, Note_on_c, 0, 59, 54
1, 61932, Tempo, 405405
1, 61933, Control_c, 0, 64, 0
1, 62040, Control_c, 0, 64, 127
1, 62080, Note_on_c, 0, 59, 0
1, 62080, Note_on_c, 0, 57, 47
1, 62240, Tempo, 497925
1, 62240, Note_on_c, 0, 57, 0
1, 62240, Note_on_c, 0, 55, 49
1, 62400, Tempo, 449438
1, 62400, Note_on_c, 0, 67, 0
1, 62400, Note_on_c, 0, 65, 0
1, 62400, Note_on_c, 0, 60, 49
1, 62400, Note_on_c, 0, 64, 49
1, 62400, Note_on_c, 0, 72, 58
1, 62400, Note_on_c, 0, 48, 50
1, 62400, Control_c, 0, 64, 0
1, 62496, Control_c, 0, 64, 127
1, 62720, Note_on_c, 0, 60, 44
1, 62880, Tempo, 389610
1, 62880, Note_on_c, 0, 60, 0
1, 62880, Note_on_c, 0, 60, 0
1, 62880, Note_on_c, 0, 64, 0
1, 62880, Note_on_c, 0, 55, 0
1, 62880, Note_on_c, 0, 48, 0
1, 62880, Note_on_c, 0, 72, 0
1, 62880, Note_on_c, 0, 72, 62
1, 62880, Note_on_c, 0, 76, 62
1, 62880, Note_on_c, 0, 59, 39
1, 62888, Control_c, 0, 64, 0
1, 62944, Control_c, 0, 64, 127
1, 63040, Note_on_c, 0, 59, 0
1, 63040, Note_on_c, 0, 76, 0
1, 63040, Note_on_c, 0, 72, 0
1, 63040, Note_on_c, 0, 67, 55
1, 63040, Note_on_c, 0, 57, 35
1, 63200, Tempo, 419580
1, 63200, Note_on_c, 0, 57, 0
1, 63200, Note_on_c, 0, 67, 0
1, 63200, Note_on_c, 0, 74, 56
1, 63200, Note_on_c, 0, 77, 56
1, 63200, Note_on_c, 0, 55, 35
1, 63280, Note_on_c, 0, 77, 0
1, 63280, Note_on_c, 0, 74, 0
1, 63360, Tempo, 383387
1, 63360, Note_on_c, 0, 55, 0
1, 63360, Note_on_c, 0, 74, 64
1, 63360, Note_on_c, 0, 77, 64
1, 63360, Note_on_c, 0, 52, 41
1, 63369, Control_c, 0, 64, 0
1, 63406, Control_c, 0, 64, 127
1, 63520, Note_on_c, 0, 52, 0
1, 63520, Note_on_c, 0, 77, 0
1, 63520, Note_on_c, 0, 74, 0
1, 63520, Note_on_c, 0, 69, 57
1, 63520, Note_on_c, 0, 50, 33
1, 63680, Tempo, 418118
1, 63680, Note_on_c, 0, 50, 0
1, 63680, Note_on_c, 0, 69, 0
1, 63680, Note_on_c, 0, 75, 57
1, 63680, Note_on_c, 0, 78, 57
1, 63680, Note_on_c, 0, 48, 33
1, 63760, Note_on_c, 0, 78, 0
1, 63760, Note_on_c, 0, 75, 0
1, 63840, Tempo, 372671
1, 63840, Note_on_c, 0, 48, 0
1, 63840, Note_on_c, 0, 75, 66
1, 63840, Note_on_c, 0, 78, 66
1, 63840, Note_on_c, 0, 47, 43
1, 63847, Control_c, 0, 64, 0
1, 63897, Control_c, 0, 64, 127
1, 64000, Note_on_c, 0, 47, 0
1, 64000, Note_on_c, 0, 78, 0
1, 64000, Note_on_c, 0, 75, 0
1, 64000, Note_on_c, 0, 71, 58
1, 64000, Note_on_c, 0, 45, 39
1, 64160, Tempo, 406780
1, 64160, Note_on_c, 0, 45, 0
1, 64160, Note_on_c, 0, 71, 0
1, 64160, Note_on_c, 0, 76, 60
1, 64160, Note_on_c, 0, 79, 60
1, 64160, Note_on_c, 0, 43, 40
1, 64240, Note_on_c, 0, 79, 0
1, 64240, Note_on_c, 0, 76, 0
1, 64320, Tempo, 365854
1, 64320, Note_on_c, 0, 43, 0
1, 64320, Note_on_c, 0, 76, 69
1, 64320, Note_on_c, 0, 79, 69
1, 64320, Note_on_c, 0, 36, 45
1, 64328, Control_c, 0, 64, 0
1, 64394, Control_c, 0, 64, 127
1, 64480, Note_on_c, 0, 36, 0
1, 64480, Note_on_c, 0, 79, 0
1, 64480, Note_on_c, 0, 76, 0
1, 64480, Note_on_c, 0, 72, 63
1, 64480, Note_on_c, 0, 43, 38
1, 64640, Tempo, 394737
1, 64640, Note_on_c, 0, 43, 0
1, 64640, Note_on_c, 0, 72, 0
1, 64640, Note_on_c, 0, 77, 63
1, 64640, Note_on_c, 0, 80, 63
1, 64640, Note_on_c, 0, 52, 39
1, 64720, Note_on_c, 0, 80, 0
1, 64720, Note_on_c, 0, 77, 0
1, 64800, Tempo, 360360
1, 64800, Note_on_c, 0, 52, 0
1, 64800, Note_on_c, 0, 80, 72
1, 64800, Note_on_c, 0, 77, 72
1, 64800, Note_on_c, 0, 53, 47
1, 64809, Control_c, 0, 64, 0
1, 64896, Control_c, 0, 64, 127
1, 64960, Note_on_c, 0, 53, 0
1, 64960, Note_on_c, 0, 77, 0
1, 64960, Note_on_c, 0, 80, 0
1, 64960, Note_on_c, 0, 73, 65
1, 64960, Note_on_c, 0, 57, 42
1, 65120, Tempo, 393443
1, 65120, Note_on_c, 0, 57, 0
1, 65120, Note_on_c, 0, 73, 0
1, 65120, Note_on_c, 0, 81, 66
1, 65120, Note_on_c, 0, 77, 66
1, 65120, Note_on_c, 0, 60, 43
1, 65200, Note_on_c, 0, 77, 0
1, 65200, Note_on_c, 0, 81, 0
1, 65280, Tempo, 362538
1, 65280, Note_on_c, 0, 60, 0
1, 65280, Note_on_c, 0, 81, 74
1, 65280, Note_on_c, 0, 77, 74
1, 65280, Note_on_c, 0, 61, 48
1, 65286, Control_c, 0, 64, 0
1, 65365, Control_c, 0, 64, 127
1, 65440, Note_on_c, 0, 61, 0
1, 65440, Note_on_c, 0, 77, 0
1, 65440, Note_on_c, 0, 81, 0
1, 65440, Note_on_c, 0, 74, 68
1, 65440, Note_on_c, 0, 62, 44
1, 65600, Tempo, 404040
1, 65600, Note_on_c, 0, 62, 0
1, 65600, Note_on_c, 0, 74, 0
1, 65600, Note_on_c, 0, 82, 69
1, 65600, Note_on_c, 0, 79, 69
1, 65600, Note_on_c, 0, 65, 44
1, 65680, Note_on_c, 0, 79, 0
1, 65680, Note_on_c, 0, 82, 0
1, 65760, Tempo, 366972
1, 65760, Note_on_c, 0, 65, 0
1, 65760, Note_on_c, 0, 83, 77
1, 65760, Note_on_c, 0, 80, 77
1, 65760, Note_on_c, 0, 66, 50
1, 65771, Control_c, 0, 64, 0
1, 65838, Control_c, 0, 64, 127
1, 65920, Note_on_c, 0, 66, 0
1, 65920, Note_on_c, 0, 80, 0
1, 65920, Note_on_c, 0, 79, 68
1, 65920, Note_on_c, 0, 67, 45
1, 66080, Tempo, 415225
1, 66080, Note_on_c, 0, 67, 0
1, 66080, Note_on_c, 0, 79, 0
1, 66080, Note_on_c, 0, 77, 70
1, 66080, Note_on_c, 0, 71, 46
1, 66240, Tempo, 390879
1, 66240, Note_on_c, 0, 71, 0
1, 66240, Note_on_c, 0, 77, 0
1, 66240, Note_on_c, 0, 83, 0
1, 66240, Note_on_c, 0, 76, 69
1, 66240, Note_on_c, 0, 84, 80
1, 66240, Note_on_c, 0, 60, 49
1, 66240, Note_on_c, 0, 67, 58
1, 66240, Control_c, 0, 64, 0
1, 66304, Control_c, 0, 64, 127
1, 66400, Note_on_c, 0, 84, 0
1, 66400, Note_on_c, 0, 76, 0
1, 66400, Note_on_c, 0, 72, 55
1, 66560, Note_on_c, 0, 72, 0
1, 66560, Note_on_c, 0, 75, 55
1, 66560, Note_on_c, 0, 71, 46
1, 66640, Note_on_c, 0, 71, 0
1, 66640, Note_on_c, 0, 75, 0
1, 66720, Tempo, 382166
1, 66720, Note_on_c, 0, 60, 0
1, 66720, Note_on_c, 0, 67, 0
1, 66720, Note_on_c, 0, 72, 52
1, 66720, Note_on_c, 0, 76, 62
1, 66743, Control_c, 0, 64, 0
1, 66798, Control_c, 0, 64, 127
1, 66880, Note_on_c, 0, 76, 0
1, 66880, Note_on_c, 0, 72, 0
1, 66880, Note_on_c, 0, 67, 49
1, 67040, Tempo, 419580
1, 67040, Note_on_c, 0, 67, 0
1, 67040, Note_on_c, 0, 75, 41
1, 67040, Note_on_c, 0, 78, 49
1, 67120, Note_on_c, 0, 78, 0
1, 67120, Note_on_c, 0, 75, 0
1, 67200, Tempo, 383387
1, 67200, Note_on_c, 0, 76, 52
1, 67200, Note_on_c, 0, 79, 62
1, 67221, Control_c, 0, 64, 0
1, 67299, Control_c, 0, 64, 127
1, 67360, Note_on_c, 0, 79, 0
1, 67360, Note_on_c, 0, 76, 0
1, 67360, Note_on_c, 0, 72, 50
1, 67520, Tempo, 418118
1, 67520, Note_on_c, 0, 72, 0
1, 67520, Note_on_c, 0, 76, 42
1, 67520, Note_on_c, 0, 80, 50
1, 67600, Note_on_c, 0, 80, 0
1, 67600, Note_on_c, 0, 76, 0
1, 67680, Tempo, 372671
1, 67680, Note_on_c, 0, 77, 54
1, 67680, Note_on_c, 0, 81, 64
1, 67695, Control_c, 0, 64, 0
1, 67751, Control_c, 0, 64, 127
1, 67840, Note_on_c, 0, 81, 0
1, 67840, Note_on_c, 0, 77, 0
1, 67840, Note_on_c, 0, 74, 48
1, 68000, Tempo, 406780
1, 68000, Note_on_c, 0, 74, 0
1, 68000, Note_on_c, 0, 80, 40
1, 68000, Note_on_c, 0, 83, 48
1, 68080, Note_on_c, 0, 83, 0
1, 68080, Note_on_c, 0, 80, 0
1, 68160, Tempo, 378549
1, 68160, Note_on_c, 0, 81, 55
1, 68160, Note_on_c, 0, 84, 65
1, 68184, Control_c, 0, 64, 0
1, 68238, Control_c, 0, 64, 127
1, 68320, Note_on_c, 0, 84, 0
1, 68320, Note_on_c, 0, 81, 0
1, 68320, Note_on_c, 0, 76, 53
1, 68480, Tempo, 401338
1, 68480, Note_on_c, 0, 76, 0
1, 68480, Note_on_c, 0, 85, 53
1, 68480, Note_on_c, 0, 82, 45
1, 68560, Note_on_c, 0, 82, 0
1, 68560, Note_on_c, 0, 85, 0
1, 68640, Tempo, 380952
1, 68640, Note_on_c, 0, 83, 51
1, 68640, Note_on_c, 0, 86, 60
1, 68659, Control_c, 0, 64, 0
1, 68725, Control_c, 0, 64, 127
1, 68800, Note_on_c, 0, 86, 0
1, 68800, Note_on_c, 0, 83, 0
1, 68800, Note_on_c, 0, 77, 47
1, 68960, Tempo, 419580
1, 68960, Note_on_c, 0, 77, 0
1, 68960, Note_on_c, 0, 83, 39
1, 68960, Note_on_c, 0, 87, 47
1, 69040, Note_on_c, 0, 87, 0
1, 69040, Note_on_c, 0, 83, 0
1, 69120, Tempo, 383387
1, 69120, Note_on_c, 0, 84, 48
1, 69120, Note_on_c, 0, 88, 57
1, 69134, Control_c, 0, 64, 0
1, 69191, Control_c, 0, 64, 127
1, 69280, Note_on_c, 0, 88, 0
1, 69280, Note_on_c, 0, 84, 0
1, 69280, Note_on_c, 0, 78, 50
1, 69440, Tempo, 418118
1, 69440, Note_on_c, 0, 78, 0
1, 69440, Note_on_c, 0, 86, 42
1, 69440, Note_on_c, 0, 89, 50
1, 69520, Note_on_c, 0, 89, 0
1, 69520, Note_on_c, 0, 86, 0
1, 69600, Tempo, 384615
1, 69600, Note_on_c, 0, 87, 49
1, 69600, Note_on_c, 0, 90, 58
1, 69612, Control_c, 0, 64, 0
1, 69688, Control_c, 0, 64, 127
1, 69760, Note_on_c, 0, 90, 0
1, 69760, Note_on_c, 0, 87, 0
1, 69760, Note_on_c, 0, 79, 48
1, 69920, Tempo, 459770
1, 69920, Note_on_c, 0, 79, 0
1, 69920, Note_on_c, 0, 88, 40
1, 69920, Note_on_c, 0, 91, 48
1, 70000, Note_on_c, 0, 91, 0
1, 70000, Note_on_c, 0, 88, 0
1, 70080, Note_on_c, 0, 84, 56
1, 70080, Note_on_c, 0, 96, 66
1, 70080, Control_c, 0, 64, 0
1, 70400, Control_c, 0, 64, 127
1, 70560, Note_on_c, 0, 96, 0
1, 70560, Note_on_c, 0, 84, 0
1, 71040, Note_on_c, 0, 55, 39
1, 71040, Note_on_c, 0, 59, 39
1, 71040, Note_on_c, 0, 64, 39
1, 71040, Note_on_c, 0, 67, 46
1, 71040, Note_on_c, 0, 40, 36
1, 71040, Note_on_c, 0, 47, 43
1, 71067, Control_c, 0, 64, 0
1, 71360, Control_c, 0, 64, 127
1, 72000, Tempo, 478088
1, 72000, Note_on_c, 0, 47, 0
1, 72000, Note_on_c, 0, 59, 0
1, 72000, Note_on_c, 0, 55, 0
1, 72000, Note_on_c, 0, 64, 0
1, 72000, Note_on_c, 0, 40, 0
1, 72000, Note_on_c, 0, 64, 33
1, 72000, Note_on_c, 0, 69, 33
1, 72000, Note_on_c, 0, 72, 33
1, 72000, Note_on_c, 0, 76, 39
1, 72000, Note_on_c, 0, 52, 31
1, 72000, Note_on_c, 0, 60, 37
1, 72000, Note_on_c, 0, 45, 31
1, 72006, Control_c, 0, 64, 0
1, 72294, Control_c, 0, 64, 127
1, 72958, Note_on_c, 0, 60, 0
1, 72960, Tempo, 461538
1, 72960, Note_on_c, 0, 67, 0
1, 72960, Note_on_c, 0, 76, 0
1, 72960, Note_on_c, 0, 64, 0
1, 72960, Note_on_c, 0, 69, 0
1, 72960, Note_on_c, 0, 72, 0
1, 72960, Note_on_c, 0, 52, 0
1, 72960, Note_on_c, 0, 45, 0
1, 72960, Note_on_c, 0, 54, 41
1, 72960, Note_on_c, 0, 60, 41
1, 72960, Note_on_c, 0, 64, 41
1, 72960, Note_on_c, 0, 66, 49
1, 72960, Note_on_c, 0, 38, 37
1, 72960, Note_on_c, 0, 45, 44
1, 72966, Control_c, 0, 64, 0
1, 73360, Control_c, 0, 64, 127
1, 73918, Note_on_c, 0, 60, 0
1, 73920, Tempo, 521739
1, 73920, Note_on_c, 0, 64, 0
1, 73920, Note_on_c, 0, 54, 0
1, 73920, Note_on_c, 0, 38, 0
1, 73920, Note_on_c, 0, 45, 0
1, 73920, Note_on_c, 0, 64, 33
1, 73920, Note_on_c, 0, 69, 33
1, 73920, Note_on_c, 0, 72, 33
1, 73920, Note_on_c, 0, 76, 39
1, 73920, Note_on_c, 0, 60, 37
1, 73920, Note_on_c, 0, 52, 31
1, 73920, Note_on_c, 0, 45, 31
1, 73920, Control_c, 0, 64, 0
1, 74240, Control_c, 0, 64, 127
1, 74878, Note_on_c, 0, 60, 0
1, 74880, Tempo, 538165
1, 74880, Note_on_c, 0, 66, 0
1, 74880, Note_on_c, 0, 76, 0
1, 74880, Note_on_c, 0, 64, 0
1, 74880, Note_on_c, 0, 69, 0
1, 74880, Note_on_c, 0, 72, 0
1, 74880, Note_on_c, 0, 52, 0
1, 74880, Note_on_c, 0, 45, 0
1, 74880, Note_on_c, 0, 53, 35
1, 74880, Note_on_c, 0, 60, 35
1, 74880, Note_on_c, 0, 65, 41
1, 74880, Note_on_c, 0, 37, 34
1, 74880, Note_on_c, 0, 44, 40
1, 74896, Control_c, 0, 64, 0
1, 75200, Control_c, 0, 64, 127
1, 75838, Note_on_c, 0, 53, 0
1, 75840, Tempo, 606122
1, 75840, Note_on_c, 0, 37, 0
1, 75840, Note_on_c, 0, 60, 0
1, 75840, Note_on_c, 0, 44, 0
1, 75840, Note_on_c, 0, 64, 27
1, 75840, Note_on_c, 0, 67, 27
1, 75840, Note_on_c, 0, 71, 27
1, 75840, Note_on_c, 0, 76, 33
1, 75840, Note_on_c, 0, 43, 25
1, 75840, Note_on_c, 0, 53, 25
1, 75840, Note_on_c, 0, 59, 31
1, 75845, Control_c, 0, 64, 0
1, 76267, Control_c, 0, 64, 127
1, 77280, Tempo, 1276867
1, 77280, Note_on_c, 0, 59, 0
1, 77280, Note_on_c, 0, 65, 0
1, 77280, Note_on_c, 0, 76, 0
1, 77280, Note_on_c, 0, 64, 0
1, 77280, Note_on_c, 0, 67, 0
1, 77280, Note_on_c, 0, 71, 0
1, 77280, Note_on_c, 0, 43, 0
1, 77280, Note_on_c, 0, 53, 0
1, 77280, Note_on_c, 0, 60, 26
1, 77280, Note_on_c, 0, 64, 26
1, 77280, Note_on_c, 0, 67, 26
1, 77280, Note_on_c, 0, 72, 31
1, 77280, Note_on_c, 0, 36, 23
1, 77280, Note_on_c, 0, 43, 23
1, 77280, Note_on_c, 0, 52, 28
1, 77289, Control_c, 0, 64, 0
1, 77472, Control_c, 0, 64, 127
1, 77760, Tempo, 1008573
1, 77760, Note_on_c, 0, 52, 0
1, 77760, Note_on_c, 0, 36, 0
1, 77760, Note_on_c, 0, 64, 0
1, 77760, Note_on_c, 0, 67, 0
1, 77760, Note_on_c, 0, 60, 0
1, 77760, Note_on_c, 0, 43, 0
1, 77760, Note_on_c, 0, 72, 0
1, 77760, Note_on_c, 0, 60, 24
1, 77760, Note_on_c, 0, 64, 24
1, 77760, Note_on_c, 0, 67, 24
1, 77760, Note_on_c, 0, 72, 29
1, 77760, Note_on_c, 0, 36, 22
1, 77760, Note_on_c, 0, 43, 22
1, 77760, Note_on_c, 0, 52, 27
1, 79680, Note_on_c, 0, 52, 0
1, 79680, Note_on_c, 0, 36, 0
1, 79680, Note_on_c, 0, 64, 0
1, 79680, Note_on_c, 0, 67, 0
1, 79680, Note_on_c, 0, 60, 0
1, 79680, Note_on_c, 0, 43, 0
1, 79680, Note_on_c, 0, 72, 0
1, 81014, Control_c, 0, 64, 0
1, 81014, End_track
0, 0, End_of_file
