0, 0, Header, 0, 1, 480
1, 0, Start_track
1, 0, Title_t, "Impromptu D 935 No. 1"
1, 0, Copyright_t, "Copyright © 2007 by Bernd Krueger"
1, 0, Text_t, "Franz Schubert"
1, 0, Text_t, "Allegro moderato"
1, 0, Text_t, "Erstellt: 24.9.2007\012"
1, 0, Text_t, "Update: 20.3.2014\012"
1, 0, Text_t, "Dauer: 8:38 Minuten\012"
1, 0, Time_signature, 4, 2, 24, 8
1, 0, Key_signature, -4, "major"
1, 0, Tempo, 1237113
1, 0, Marker_t, "Allegro moderato"
1, 0, Program_c, 0, 0
1, 0, Note_on_c, 0, 60, 55
1, 0, Program_c, 0, 0
1, 0, Note_on_c, 0, 48, 51
1, 0, Note_on_c, 0, 41, 43
1, 0, Note_on_c, 0, 56, 51
1, 0, Program_c, 0, 0
1, 7, Control_c, 0, 64, 127
1, 40, Note_on_c, 0, 60, 0
1, 40, Note_on_c, 0, 65, 60
1, 80, Note_on_c, 0, 65, 0
1, 80, Note_on_c, 0, 68, 66
1, 120, Tempo, 547945
1, 120, Note_on_c, 0, 68, 0
1, 120, Note_on_c, 0, 72, 75
1, 840, Tempo, 594059
1, 840, Note_on_c, 0, 72, 0
1, 840, Note_on_c, 0, 70, 57
1, 960, Tempo, 538117
1, 960, Note_on_c, 0, 70, 0
1, 960, Note_on_c, 0, 68, 67
1, 968, Control_c, 0, 64, 0
1, 1063, Control_c, 0, 64, 127
1, 1320, Note_on_c, 0, 68, 0
1, 1320, Note_on_c, 0, 70, 58
1, 1440, Tempo, 528634
1, 1440, Note_on_c, 0, 70, 0
1, 1440, Note_on_c, 0, 56, 0
1, 1440, Note_on_c, 0, 67, 68
1, 1440, Note_on_c, 0, 52, 43
1, 1440, Note_on_c, 0, 43, 36
1, 1450, Control_c, 0, 64, 0
1, 1532, Control_c, 0, 64, 127
1, 1800, Note_on_c, 0, 67, 0
1, 1800, Note_on_c, 0, 68, 51
1, 1920, Tempo, 530973
1, 1920, Note_on_c, 0, 68, 0
1, 1920, Note_on_c, 0, 43, 0
1, 1920, Note_on_c, 0, 52, 0
1, 1920, Note_on_c, 0, 48, 0
1, 1920, Note_on_c, 0, 65, 60
1, 1920, Note_on_c, 0, 53, 43
1, 1920, Note_on_c, 0, 44, 43
1, 1920, Control_c, 0, 64, 0
1, 2057, Control_c, 0, 64, 127
1, 2280, Note_on_c, 0, 65, 0
1, 2280, Note_on_c, 0, 66, 51
1, 2400, Tempo, 528634
1, 2400, Note_on_c, 0, 66, 0
1, 2400, Note_on_c, 0, 44, 0
1, 2400, Note_on_c, 0, 63, 62
1, 2400, Note_on_c, 0, 45, 39
1, 2413, Control_c, 0, 64, 0
1, 2560, Control_c, 0, 64, 127
1, 2760, Note_on_c, 0, 63, 0
1, 2760, Note_on_c, 0, 65, 52
1, 2880, Tempo, 535714
1, 2880, Note_on_c, 0, 65, 0
1, 2880, Note_on_c, 0, 45, 0
1, 2880, Note_on_c, 0, 61, 60
1, 2880, Note_on_c, 0, 43, 43
1, 2893, Control_c, 0, 64, 0
1, 3023, Control_c, 0, 64, 127
1, 3240, Note_on_c, 0, 61, 0
1, 3240, Note_on_c, 0, 63, 51
1, 3360, Tempo, 530973
1, 3360, Note_on_c, 0, 63, 0
1, 3360, Note_on_c, 0, 43, 0
1, 3360, Note_on_c, 0, 60, 60
1, 3360, Note_on_c, 0, 45, 40
1, 3375, Control_c, 0, 64, 0
1, 3509, Control_c, 0, 64, 127
1, 3720, Note_on_c, 0, 60, 0
1, 3720, Note_on_c, 0, 61, 51
1, 3840, Note_on_c, 0, 61, 0
1, 3840, Note_on_c, 0, 45, 0
1, 3840, Note_on_c, 0, 58, 60
1, 3840, Note_on_c, 0, 49, 44
1, 3875, Control_c, 0, 64, 0
1, 3955, Control_c, 0, 64, 127
1, 4200, Note_on_c, 0, 58, 0
1, 4200, Note_on_c, 0, 60, 53
1, 4320, Note_on_c, 0, 60, 0
1, 4320, Note_on_c, 0, 49, 0
1, 4320, Note_on_c, 0, 56, 63
1, 4320, Note_on_c, 0, 48, 41
1, 4333, Control_c, 0, 64, 0
1, 4423, Control_c, 0, 64, 127
1, 4680, Note_on_c, 0, 56, 0
1, 4680, Note_on_c, 0, 58, 60
1, 4800, Tempo, 545455
1, 4800, Note_on_c, 0, 58, 0
1, 4800, Note_on_c, 0, 48, 0
1, 4800, Note_on_c, 0, 53, 0
1, 4800, Note_on_c, 0, 41, 0
1, 4800, Note_on_c, 0, 54, 68
1, 4800, Note_on_c, 0, 46, 41
1, 4800, Note_on_c, 0, 49, 49
1, 4815, Control_c, 0, 64, 0
1, 4909, Control_c, 0, 64, 127
1, 5160, Note_on_c, 0, 54, 0
1, 5160, Note_on_c, 0, 56, 63
1, 5280, Tempo, 568720
1, 5280, Note_on_c, 0, 56, 0
1, 5280, Note_on_c, 0, 49, 0
1, 5280, Note_on_c, 0, 46, 0
1, 5280, Note_on_c, 0, 53, 72
1, 5280, Note_on_c, 0, 48, 45
1, 5280, Note_on_c, 0, 44, 38
1, 5293, Control_c, 0, 64, 0
1, 5417, Control_c, 0, 64, 127
1, 5640, Note_on_c, 0, 53, 0
1, 5640, Note_on_c, 0, 55, 67
1, 5760, Tempo, 597015
1, 5760, Note_on_c, 0, 55, 0
1, 5760, Note_on_c, 0, 44, 0
1, 5760, Note_on_c, 0, 48, 0
1, 5760, Note_on_c, 0, 52, 78
1, 5760, Note_on_c, 0, 46, 57
1, 5760, Note_on_c, 0, 43, 47
1, 5765, Control_c, 0, 64, 0
1, 5820, Control_c, 0, 64, 127
1, 5959, Control_c, 0, 64, 0
1, 6000, Note_on_c, 0, 43, 0
1, 6000, Note_on_c, 0, 46, 0
1, 6000, Note_on_c, 0, 52, 0
1, 6240, Note_on_c, 0, 73, 79
1, 6240, Note_on_c, 0, 67, 66
1, 6240, Note_on_c, 0, 70, 66
1, 6240, Note_on_c, 0, 52, 48
1, 6240, Note_on_c, 0, 55, 48
1, 6240, Note_on_c, 0, 58, 48
1, 6240, Note_on_c, 0, 61, 57
1, 6275, Control_c, 0, 64, 127
1, 6464, Control_c, 0, 64, 0
1, 6480, Note_on_c, 0, 61, 0
1, 6480, Note_on_c, 0, 55, 0
1, 6480, Note_on_c, 0, 67, 0
1, 6480, Note_on_c, 0, 70, 0
1, 6480, Note_on_c, 0, 73, 0
1, 6480, Note_on_c, 0, 58, 0
1, 6480, Note_on_c, 0, 52, 0
1, 6720, Tempo, 547945
1, 7200, Tempo, 769231
1, 7200, Note_on_c, 0, 72, 41
1, 7240, Note_on_c, 0, 72, 0
1, 7240, Note_on_c, 0, 73, 41
1, 7280, Note_on_c, 0, 73, 0
1, 7280, Note_on_c, 0, 75, 41
1, 7320, Tempo, 805369
1, 7320, Note_on_c, 0, 75, 0
1, 7320, Note_on_c, 0, 73, 47
1, 7560, Tempo, 606061
1, 7560, Note_on_c, 0, 73, 0
1, 7560, Note_on_c, 0, 72, 41
1, 7680, Tempo, 618557
1, 7680, Note_on_c, 0, 72, 0
1, 7680, Note_on_c, 0, 72, 47
1, 7680, Note_on_c, 0, 56, 35
1, 7680, Note_on_c, 0, 53, 29
1, 7680, Control_c, 0, 64, 127
1, 7920, Tempo, 550459
1, 8160, Note_on_c, 0, 53, 0
1, 8160, Note_on_c, 0, 56, 0
1, 8160, Note_on_c, 0, 72, 0
1, 8160, Note_on_c, 0, 77, 53
1, 8640, Tempo, 542986
1, 8640, Note_on_c, 0, 46, 27
1, 8640, Note_on_c, 0, 49, 27
1, 8640, Note_on_c, 0, 55, 32
1, 8647, Control_c, 0, 64, 0
1, 8760, Control_c, 0, 64, 127
1, 8800, Note_on_c, 0, 77, 0
1, 8800, Note_on_c, 0, 67, 39
1, 8960, Note_on_c, 0, 67, 0
1, 8960, Note_on_c, 0, 70, 39
1, 9120, Note_on_c, 0, 70, 0
1, 9120, Note_on_c, 0, 46, 0
1, 9120, Note_on_c, 0, 49, 0
1, 9120, Note_on_c, 0, 55, 0
1, 9120, Note_on_c, 0, 73, 44
1, 9280, Note_on_c, 0, 73, 0
1, 9280, Note_on_c, 0, 70, 38
1, 9360, Tempo, 571429
1, 9440, Note_on_c, 0, 70, 0
1, 9440, Note_on_c, 0, 67, 37
1, 9600, Tempo, 566038
1, 9600, Note_on_c, 0, 67, 0
1, 9600, Note_on_c, 0, 65, 46
1, 9600, Note_on_c, 0, 48, 29
1, 9600, Control_c, 0, 64, 0
1, 9760, Tempo, 542986
1, 9760, Note_on_c, 0, 53, 32
1, 9920, Note_on_c, 0, 53, 0
1, 9920, Note_on_c, 0, 56, 34
1, 10080, Note_on_c, 0, 56, 0
1, 10080, Note_on_c, 0, 60, 37
1, 10240, Note_on_c, 0, 60, 0
1, 10240, Note_on_c, 0, 58, 31
1, 10320, Tempo, 745342
1, 10400, Note_on_c, 0, 58, 0
1, 10400, Note_on_c, 0, 56, 31
1, 10560, Tempo, 603015
1, 10560, Note_on_c, 0, 56, 0
1, 10560, Note_on_c, 0, 65, 0
1, 10560, Note_on_c, 0, 64, 41
1, 10560, Note_on_c, 0, 55, 35
1, 10635, Control_c, 0, 64, 127
1, 10790, Tempo, 582524
1, 10800, Note_on_c, 0, 55, 0
1, 10800, Note_on_c, 0, 64, 0
1, 10800, Note_on_c, 0, 48, 0
1, 10800, Note_on_c, 0, 78, 51
1, 10805, Control_c, 0, 64, 0
1, 10848, Tempo, 579710
1, 10906, Tempo, 576923
1, 10920, Note_on_c, 0, 78, 0
1, 10920, Note_on_c, 0, 79, 53
1, 10963, Tempo, 574163
1, 11021, Tempo, 571429
1, 11040, Note_on_c, 0, 79, 0
1, 11040, Note_on_c, 0, 80, 56
1, 11078, Tempo, 568720
1, 11136, Tempo, 566038
1, 11160, Note_on_c, 0, 80, 0
1, 11160, Note_on_c, 0, 81, 58
1, 11194, Tempo, 563380
1, 11251, Tempo, 560748
1, 11280, Note_on_c, 0, 81, 0
1, 11280, Note_on_c, 0, 82, 61
1, 11309, Tempo, 558140
1, 11366, Tempo, 555556
1, 11400, Note_on_c, 0, 82, 0
1, 11400, Note_on_c, 0, 83, 63
1, 11424, Tempo, 552995
1, 11482, Tempo, 550459
1, 11520, Tempo, 1237113
1, 11520, Note_on_c, 0, 83, 0
1, 11520, Note_on_c, 0, 72, 55
1, 11520, Note_on_c, 0, 48, 51
1, 11520, Note_on_c, 0, 56, 51
1, 11520, Note_on_c, 0, 41, 43
1, 11560, Note_on_c, 0, 72, 0
1, 11560, Note_on_c, 0, 77, 60
1, 11600, Note_on_c, 0, 77, 0
1, 11600, Note_on_c, 0, 80, 66
1, 11601, Control_c, 0, 64, 127
1, 11640, Tempo, 547945
1, 11640, Note_on_c, 0, 80, 0
1, 11640, Note_on_c, 0, 84, 76
1, 12360, Tempo, 594059
1, 12360, Note_on_c, 0, 84, 0
1, 12360, Note_on_c, 0, 82, 47
1, 12480, Tempo, 538117
1, 12480, Note_on_c, 0, 82, 0
1, 12480, Note_on_c, 0, 80, 60
1, 12487, Control_c, 0, 64, 0
1, 12565, Control_c, 0, 64, 127
1, 12600, Tempo, 504202
1, 12600, Note_on_c, 0, 80, 0
1, 12600, Note_on_c, 0, 82, 50
1, 12660, Note_on_c, 0, 82, 0
1, 12660, Note_on_c, 0, 80, 50
1, 12720, Tempo, 508475
1, 12720, Note_on_c, 0, 80, 0
1, 12720, Note_on_c, 0, 79, 46
1, 12780, Note_on_c, 0, 79, 0
1, 12780, Note_on_c, 0, 80, 46
1, 12840, Tempo, 530973
1, 12840, Note_on_c, 0, 80, 0
1, 12840, Note_on_c, 0, 82, 54
1, 12960, Tempo, 517241
1, 12960, Note_on_c, 0, 82, 0
1, 12960, Note_on_c, 0, 56, 0
1, 12960, Note_on_c, 0, 79, 60
1, 12960, Note_on_c, 0, 52, 43
1, 12960, Note_on_c, 0, 43, 36
1, 12974, Control_c, 0, 64, 0
1, 13073, Control_c, 0, 64, 127
1, 13080, Tempo, 502092
1, 13080, Note_on_c, 0, 79, 0
1, 13080, Note_on_c, 0, 80, 49
1, 13140, Note_on_c, 0, 80, 0
1, 13140, Note_on_c, 0, 79, 49
1, 13200, Note_on_c, 0, 79, 0
1, 13200, Note_on_c, 0, 77, 45
1, 13260, Note_on_c, 0, 77, 0
1, 13260, Note_on_c, 0, 79, 45
1, 13320, Tempo, 533333
1, 13320, Note_on_c, 0, 79, 0
1, 13320, Note_on_c, 0, 80, 51
1, 13440, Tempo, 530973
1, 13440, Note_on_c, 0, 80, 0
1, 13440, Note_on_c, 0, 43, 0
1, 13440, Note_on_c, 0, 52, 0
1, 13440, Note_on_c, 0, 48, 0
1, 13440, Note_on_c, 0, 77, 60
1, 13440, Note_on_c, 0, 53, 43
1, 13440, Note_on_c, 0, 44, 43
1, 13450, Control_c, 0, 64, 0
1, 13512, Control_c, 0, 64, 127
1, 13560, Tempo, 508475
1, 13560, Note_on_c, 0, 77, 0
1, 13560, Note_on_c, 0, 79, 48
1, 13620, Note_on_c, 0, 79, 0
1, 13620, Note_on_c, 0, 77, 48
1, 13680, Note_on_c, 0, 77, 0
1, 13680, Note_on_c, 0, 76, 43
1, 13740, Note_on_c, 0, 76, 0
1, 13740, Note_on_c, 0, 77, 43
1, 13800, Tempo, 530973
1, 13800, Note_on_c, 0, 77, 0
1, 13800, Note_on_c, 0, 78, 49
1, 13920, Tempo, 528634
1, 13920, Note_on_c, 0, 78, 0
1, 13920, Note_on_c, 0, 44, 0
1, 13920, Note_on_c, 0, 75, 62
1, 13920, Note_on_c, 0, 45, 39
1, 13932, Control_c, 0, 64, 0
1, 14032, Control_c, 0, 64, 127
1, 14040, Tempo, 508475
1, 14040, Note_on_c, 0, 75, 0
1, 14040, Note_on_c, 0, 77, 49
1, 14100, Note_on_c, 0, 77, 0
1, 14100, Note_on_c, 0, 75, 49
1, 14160, Note_on_c, 0, 75, 0
1, 14160, Note_on_c, 0, 74, 44
1, 14220, Note_on_c, 0, 74, 0
1, 14220, Note_on_c, 0, 75, 44
1, 14280, Tempo, 530973
1, 14280, Note_on_c, 0, 75, 0
1, 14280, Note_on_c, 0, 77, 52
1, 14400, Tempo, 535714
1, 14400, Note_on_c, 0, 77, 0
1, 14400, Note_on_c, 0, 45, 0
1, 14400, Note_on_c, 0, 73, 60
1, 14400, Note_on_c, 0, 43, 43
1, 14410, Control_c, 0, 64, 0
1, 14472, Control_c, 0, 64, 127
1, 14520, Tempo, 510638
1, 14520, Note_on_c, 0, 73, 0
1, 14520, Note_on_c, 0, 75, 49
1, 14580, Note_on_c, 0, 75, 0
1, 14580, Note_on_c, 0, 73, 49
1, 14640, Note_on_c, 0, 73, 0
1, 14640, Note_on_c, 0, 72, 47
1, 14700, Note_on_c, 0, 72, 0
1, 14700, Note_on_c, 0, 73, 47
1, 14760, Tempo, 535714
1, 14760, Note_on_c, 0, 73, 0
1, 14760, Note_on_c, 0, 75, 51
1, 14880, Tempo, 530973
1, 14880, Note_on_c, 0, 75, 0
1, 14880, Note_on_c, 0, 43, 0
1, 14880, Note_on_c, 0, 72, 60
1, 14880, Note_on_c, 0, 45, 40
1, 14894, Control_c, 0, 64, 0
1, 14952, Control_c, 0, 64, 127
1, 15000, Tempo, 512821
1, 15000, Note_on_c, 0, 72, 0
1, 15000, Note_on_c, 0, 73, 50
1, 15060, Note_on_c, 0, 73, 0
1, 15060, Note_on_c, 0, 72, 50
1, 15120, Note_on_c, 0, 72, 0
1, 15120, Note_on_c, 0, 71, 44
1, 15180, Note_on_c, 0, 71, 0
1, 15180, Note_on_c, 0, 72, 44
1, 15240, Tempo, 535714
1, 15240, Note_on_c, 0, 72, 0
1, 15240, Note_on_c, 0, 73, 51
1, 15360, Tempo, 495868
1, 15360, Note_on_c, 0, 73, 0
1, 15360, Note_on_c, 0, 45, 0
1, 15360, Note_on_c, 0, 70, 60
1, 15360, Note_on_c, 0, 49, 44
1, 15367, Control_c, 0, 64, 0
1, 15457, Control_c, 0, 64, 127
1, 15480, Tempo, 517241
1, 15480, Note_on_c, 0, 70, 0
1, 15480, Note_on_c, 0, 73, 52
1, 15600, Tempo, 495868
1, 15600, Note_on_c, 0, 73, 0
1, 15600, Note_on_c, 0, 49, 0
1, 15600, Note_on_c, 0, 53, 0
1, 15600, Note_on_c, 0, 41, 0
1, 15600, Note_on_c, 0, 70, 52
1, 15600, Note_on_c, 0, 49, 32
1, 15600, Note_on_c, 0, 53, 37
1, 15720, Tempo, 517241
1, 15720, Note_on_c, 0, 53, 0
1, 15720, Note_on_c, 0, 49, 0
1, 15720, Note_on_c, 0, 70, 0
1, 15720, Note_on_c, 0, 73, 48
1, 15840, Tempo, 495868
1, 15840, Note_on_c, 0, 73, 0
1, 15840, Note_on_c, 0, 68, 63
1, 15840, Note_on_c, 0, 51, 41
1, 15840, Note_on_c, 0, 48, 32
1, 15853, Control_c, 0, 64, 0
1, 15960, Tempo, 517241
1, 15960, Note_on_c, 0, 48, 0
1, 15960, Note_on_c, 0, 51, 0
1, 15960, Note_on_c, 0, 68, 0
1, 15960, Note_on_c, 0, 73, 56
1, 15960, Control_c, 0, 64, 127
1, 16080, Tempo, 500000
1, 16080, Note_on_c, 0, 73, 0
1, 16080, Note_on_c, 0, 68, 57
1, 16080, Note_on_c, 0, 48, 36
1, 16080, Note_on_c, 0, 51, 44
1, 16200, Tempo, 519481
1, 16200, Note_on_c, 0, 51, 0
1, 16200, Note_on_c, 0, 48, 0
1, 16200, Note_on_c, 0, 68, 0
1, 16200, Note_on_c, 0, 73, 55
1, 16320, Tempo, 506329
1, 16320, Note_on_c, 0, 73, 0
1, 16320, Note_on_c, 0, 66, 68
1, 16320, Note_on_c, 0, 49, 47
1, 16320, Note_on_c, 0, 46, 39
1, 16334, Control_c, 0, 64, 0
1, 16435, Control_c, 0, 64, 127
1, 16440, Tempo, 530973
1, 16440, Note_on_c, 0, 46, 0
1, 16440, Note_on_c, 0, 49, 0
1, 16440, Note_on_c, 0, 66, 0
1, 16440, Note_on_c, 0, 73, 62
1, 16560, Tempo, 515021
1, 16560, Note_on_c, 0, 73, 0
1, 16560, Note_on_c, 0, 66, 63
1, 16560, Note_on_c, 0, 46, 43
1, 16560, Note_on_c, 0, 49, 51
1, 16680, Tempo, 538117
1, 16680, Note_on_c, 0, 49, 0
1, 16680, Note_on_c, 0, 46, 0
1, 16680, Note_on_c, 0, 66, 0
1, 16680, Note_on_c, 0, 73, 59
1, 16800, Tempo, 568720
1, 16800, Note_on_c, 0, 73, 0
1, 16800, Note_on_c, 0, 65, 72
1, 16800, Note_on_c, 0, 48, 55
1, 16800, Note_on_c, 0, 44, 46
1, 16814, Control_c, 0, 64, 0
1, 16903, Control_c, 0, 64, 127
1, 16920, Note_on_c, 0, 44, 0
1, 16920, Note_on_c, 0, 48, 0
1, 16920, Note_on_c, 0, 65, 0
1, 16920, Note_on_c, 0, 73, 65
1, 17040, Note_on_c, 0, 73, 0
1, 17040, Note_on_c, 0, 65, 67
1, 17040, Note_on_c, 0, 48, 60
1, 17040, Note_on_c, 0, 44, 49
1, 17160, Note_on_c, 0, 44, 0
1, 17160, Note_on_c, 0, 48, 0
1, 17160, Note_on_c, 0, 65, 0
1, 17160, Note_on_c, 0, 73, 67
1, 17280, Tempo, 597015
1, 17280, Note_on_c, 0, 73, 0
1, 17280, Note_on_c, 0, 64, 90
1, 17280, Note_on_c, 0, 46, 64
1, 17280, Note_on_c, 0, 43, 54
1, 17280, Control_c, 0, 64, 0
1, 17350, Control_c, 0, 64, 127
1, 17504, Control_c, 0, 64, 0
1, 17520, Note_on_c, 0, 43, 0
1, 17520, Note_on_c, 0, 46, 0
1, 17520, Note_on_c, 0, 64, 0
1, 17760, Note_on_c, 0, 82, 75
1, 17760, Note_on_c, 0, 85, 90
1, 17760, Note_on_c, 0, 79, 75
1, 17760, Note_on_c, 0, 55, 55
1, 17760, Note_on_c, 0, 58, 55
1, 17760, Note_on_c, 0, 52, 55
1, 17760, Note_on_c, 0, 61, 65
1, 17798, Control_c, 0, 64, 127
1, 18000, Note_on_c, 0, 61, 0
1, 18000, Note_on_c, 0, 58, 0
1, 18000, Note_on_c, 0, 85, 0
1, 18000, Note_on_c, 0, 79, 0
1, 18000, Note_on_c, 0, 82, 0
1, 18000, Note_on_c, 0, 52, 0
1, 18000, Note_on_c, 0, 55, 0
1, 18003, Control_c, 0, 64, 0
1, 18240, Tempo, 547945
1, 18720, Tempo, 769231
1, 18720, Note_on_c, 0, 72, 41
1, 18760, Note_on_c, 0, 72, 0
1, 18760, Note_on_c, 0, 73, 41
1, 18800, Note_on_c, 0, 73, 0
1, 18800, Note_on_c, 0, 75, 41
1, 18840, Tempo, 805369
1, 18840, Note_on_c, 0, 75, 0
1, 18840, Note_on_c, 0, 73, 47
1, 19080, Tempo, 606061
1, 19080, Note_on_c, 0, 73, 0
1, 19080, Note_on_c, 0, 72, 41
1, 19200, Tempo, 591133
1, 19200, Note_on_c, 0, 72, 0
1, 19200, Note_on_c, 0, 72, 46
1, 19200, Note_on_c, 0, 53, 29
1, 19200, Note_on_c, 0, 56, 35
1, 19320, Control_c, 0, 64, 127
1, 19360, Note_on_c, 0, 72, 0
1, 19360, Note_on_c, 0, 80, 53
1, 19440, Tempo, 560748
1, 19520, Note_on_c, 0, 80, 0
1, 19520, Note_on_c, 0, 79, 47
1, 19680, Note_on_c, 0, 79, 0
1, 19680, Note_on_c, 0, 56, 0
1, 19680, Note_on_c, 0, 53, 0
1, 19680, Note_on_c, 0, 77, 47
1, 19840, Note_on_c, 0, 77, 0
1, 19840, Note_on_c, 0, 72, 43
1, 20000, Note_on_c, 0, 72, 0
1, 20000, Note_on_c, 0, 68, 38
1, 20160, Tempo, 588235
1, 20160, Note_on_c, 0, 68, 0
1, 20160, Note_on_c, 0, 67, 47
1, 20160, Note_on_c, 0, 55, 32
1, 20160, Note_on_c, 0, 49, 27
1, 20160, Note_on_c, 0, 46, 27
1, 20175, Control_c, 0, 64, 0
1, 20301, Control_c, 0, 64, 127
1, 20320, Note_on_c, 0, 67, 0
1, 20320, Note_on_c, 0, 75, 52
1, 20400, Tempo, 545455
1, 20480, Note_on_c, 0, 75, 0
1, 20480, Note_on_c, 0, 72, 39
1, 20640, Note_on_c, 0, 72, 0
1, 20640, Note_on_c, 0, 55, 0
1, 20640, Note_on_c, 0, 49, 0
1, 20640, Note_on_c, 0, 46, 0
1, 20640, Note_on_c, 0, 73, 44
1, 20648, Control_c, 0, 64, 0
1, 20739, Control_c, 0, 64, 127
1, 20800, Note_on_c, 0, 73, 0
1, 20800, Note_on_c, 0, 70, 38
1, 20880, Tempo, 571429
1, 20960, Note_on_c, 0, 70, 0
1, 20960, Note_on_c, 0, 67, 34
1, 21120, Tempo, 566038
1, 21120, Note_on_c, 0, 67, 0
1, 21120, Note_on_c, 0, 65, 53
1, 21120, Note_on_c, 0, 56, 43
1, 21120, Note_on_c, 0, 48, 35
1, 21120, Note_on_c, 0, 53, 35
1, 21124, Control_c, 0, 64, 0
1, 21194, Control_c, 0, 64, 127
1, 21280, Tempo, 542986
1, 21280, Note_on_c, 0, 65, 0
1, 21280, Note_on_c, 0, 60, 48
1, 21360, Note_on_c, 0, 56, 0
1, 21360, Note_on_c, 0, 53, 0
1, 21360, Note_on_c, 0, 48, 0
1, 21440, Note_on_c, 0, 60, 0
1, 21440, Note_on_c, 0, 65, 49
1, 21600, Tempo, 530973
1, 21600, Note_on_c, 0, 65, 0
1, 21600, Note_on_c, 0, 68, 58
1, 21600, Note_on_c, 0, 56, 54
1, 21760, Tempo, 540541
1, 21760, Note_on_c, 0, 56, 0
1, 21760, Note_on_c, 0, 68, 0
1, 21760, Note_on_c, 0, 65, 50
1, 21760, Note_on_c, 0, 53, 46
1, 21920, Tempo, 566038
1, 21920, Note_on_c, 0, 53, 0
1, 21920, Note_on_c, 0, 65, 0
1, 21920, Note_on_c, 0, 73, 51
1, 21920, Note_on_c, 0, 61, 48
1, 22080, Tempo, 606061
1, 22080, Note_on_c, 0, 61, 0
1, 22080, Note_on_c, 0, 73, 0
1, 22080, Note_on_c, 0, 72, 66
1, 22080, Note_on_c, 0, 60, 54
1, 22086, Control_c, 0, 64, 0
1, 22137, Control_c, 0, 64, 127
1, 22285, Control_c, 0, 64, 0
1, 22320, Note_on_c, 0, 60, 0
1, 22320, Note_on_c, 0, 72, 0
1, 22560, Tempo, 603015
1, 22560, Note_on_c, 0, 76, 78
1, 22560, Note_on_c, 0, 67, 66
1, 22560, Note_on_c, 0, 72, 66
1, 22560, Note_on_c, 0, 48, 50
1, 22560, Note_on_c, 0, 60, 60
1, 22630, Control_c, 0, 64, 127
1, 22740, Note_on_c, 0, 60, 0
1, 22740, Note_on_c, 0, 72, 0
1, 22740, Note_on_c, 0, 76, 0
1, 22740, Note_on_c, 0, 67, 0
1, 22740, Note_on_c, 0, 48, 0
1, 22811, Control_c, 0, 64, 0
1, 23040, Tempo, 615385
1, 23040, Note_on_c, 0, 77, 78
1, 23040, Note_on_c, 0, 68, 66
1, 23040, Note_on_c, 0, 72, 66
1, 23040, Note_on_c, 0, 41, 50
1, 23040, Note_on_c, 0, 53, 60
1, 23093, Control_c, 0, 64, 127
1, 23206, Control_c, 0, 64, 0
1, 23220, Note_on_c, 0, 53, 0
1, 23220, Note_on_c, 0, 72, 0
1, 23220, Note_on_c, 0, 77, 0
1, 23220, Note_on_c, 0, 68, 0
1, 23220, Note_on_c, 0, 41, 0
1, 23280, Tempo, 478088
1, 23280, Note_on_c, 0, 68, 45
1, 23400, Note_on_c, 0, 68, 0
1, 23400, Note_on_c, 0, 72, 28
1, 23520, Note_on_c, 0, 72, 0
1, 23520, Note_on_c, 0, 68, 39
1, 23520, Note_on_c, 0, 65, 27
1, 23520, Note_on_c, 0, 53, 22
1, 23559, Control_c, 0, 64, 127
1, 23640, Note_on_c, 0, 68, 0
1, 23640, Note_on_c, 0, 72, 28
1, 23760, Note_on_c, 0, 72, 0
1, 23760, Note_on_c, 0, 68, 38
1, 23880, Tempo, 493827
1, 23880, Note_on_c, 0, 68, 0
1, 23880, Note_on_c, 0, 72, 31
1, 24000, Tempo, 476190
1, 24000, Note_on_c, 0, 72, 0
1, 24000, Note_on_c, 0, 53, 0
1, 24000, Note_on_c, 0, 65, 0
1, 24000, Note_on_c, 0, 67, 45
1, 24006, Control_c, 0, 64, 0
1, 24053, Control_c, 0, 64, 127
1, 24120, Note_on_c, 0, 67, 0
1, 24120, Note_on_c, 0, 71, 30
1, 24219, Control_c, 0, 64, 0
1, 24240, Note_on_c, 0, 71, 0
1, 24240, Note_on_c, 0, 68, 45
1, 24360, Note_on_c, 0, 68, 0
1, 24360, Note_on_c, 0, 72, 32
1, 24480, Note_on_c, 0, 72, 0
1, 24480, Note_on_c, 0, 68, 39
1, 24480, Note_on_c, 0, 53, 22
1, 24480, Note_on_c, 0, 65, 27
1, 24600, Note_on_c, 0, 68, 0
1, 24600, Note_on_c, 0, 72, 27
1, 24720, Note_on_c, 0, 72, 0
1, 24720, Note_on_c, 0, 68, 40
1, 24840, Tempo, 515021
1, 24840, Note_on_c, 0, 68, 0
1, 24840, Note_on_c, 0, 72, 30
1, 24960, Tempo, 472441
1, 24960, Note_on_c, 0, 72, 0
1, 24960, Note_on_c, 0, 65, 0
1, 24960, Note_on_c, 0, 53, 0
1, 24960, Note_on_c, 0, 69, 45
1, 24960, Control_c, 0, 64, 0
1, 25040, Control_c, 0, 64, 127
1, 25080, Note_on_c, 0, 69, 0
1, 25080, Note_on_c, 0, 75, 31
1, 25200, Tempo, 470588
1, 25200, Note_on_c, 0, 75, 0
1, 25200, Note_on_c, 0, 70, 38
1, 25200, Control_c, 0, 64, 0
1, 25320, Note_on_c, 0, 70, 0
1, 25320, Note_on_c, 0, 73, 30
1, 25440, Note_on_c, 0, 73, 0
1, 25440, Note_on_c, 0, 70, 38
1, 25440, Note_on_c, 0, 65, 27
1, 25440, Note_on_c, 0, 53, 22
1, 25448, Control_c, 0, 64, 0
1, 25520, Control_c, 0, 64, 127
1, 25560, Note_on_c, 0, 70, 0
1, 25560, Note_on_c, 0, 73, 32
1, 25680, Note_on_c, 0, 73, 0
1, 25680, Note_on_c, 0, 70, 40
1, 25800, Tempo, 526316
1, 25800, Note_on_c, 0, 70, 0
1, 25800, Note_on_c, 0, 73, 28
1, 25920, Tempo, 468750
1, 25920, Note_on_c, 0, 73, 0
1, 25920, Note_on_c, 0, 53, 0
1, 25920, Note_on_c, 0, 65, 0
1, 25920, Note_on_c, 0, 73, 47
1, 26000, Control_c, 0, 64, 0
1, 26040, Note_on_c, 0, 73, 0
1, 26040, Note_on_c, 0, 77, 38
1, 26063, Control_c, 0, 64, 127
1, 26160, Note_on_c, 0, 77, 0
1, 26160, Note_on_c, 0, 70, 45
1, 26280, Note_on_c, 0, 70, 0
1, 26280, Note_on_c, 0, 73, 32
1, 26400, Note_on_c, 0, 73, 0
1, 26400, Note_on_c, 0, 68, 40
1, 26400, Note_on_c, 0, 53, 22
1, 26400, Note_on_c, 0, 65, 27
1, 26452, Control_c, 0, 64, 0
1, 26520, Note_on_c, 0, 68, 0
1, 26520, Note_on_c, 0, 73, 31
1, 26640, Tempo, 483871
1, 26640, Note_on_c, 0, 73, 0
1, 26640, Note_on_c, 0, 67, 37
1, 26760, Note_on_c, 0, 67, 0
1, 26760, Note_on_c, 0, 73, 31
1, 26880, Tempo, 468750
1, 26880, Note_on_c, 0, 73, 0
1, 26880, Note_on_c, 0, 65, 0
1, 26880, Note_on_c, 0, 53, 0
1, 26880, Note_on_c, 0, 68, 45
1, 27000, Note_on_c, 0, 68, 0
1, 27000, Note_on_c, 0, 73, 30
1, 27120, Note_on_c, 0, 73, 0
1, 27120, Note_on_c, 0, 68, 36
1, 27240, Note_on_c, 0, 68, 0
1, 27240, Note_on_c, 0, 72, 27
1, 27360, Note_on_c, 0, 72, 0
1, 27360, Note_on_c, 0, 68, 38
1, 27360, Note_on_c, 0, 53, 22
1, 27360, Note_on_c, 0, 65, 27
1, 27389, Control_c, 0, 64, 127
1, 27480, Note_on_c, 0, 68, 0
1, 27480, Note_on_c, 0, 72, 31
1, 27600, Note_on_c, 0, 72, 0
1, 27600, Note_on_c, 0, 68, 33
1, 27720, Note_on_c, 0, 68, 0
1, 27720, Note_on_c, 0, 72, 28
1, 27840, Tempo, 474308
1, 27840, Note_on_c, 0, 72, 0
1, 27840, Note_on_c, 0, 65, 0
1, 27840, Note_on_c, 0, 53, 0
1, 27840, Note_on_c, 0, 68, 47
1, 27840, Note_on_c, 0, 46, 27
1, 27850, Control_c, 0, 64, 0
1, 27960, Note_on_c, 0, 68, 0
1, 27960, Note_on_c, 0, 72, 30
1, 28080, Note_on_c, 0, 72, 0
1, 28080, Note_on_c, 0, 46, 0
1, 28080, Note_on_c, 0, 66, 35
1, 28200, Note_on_c, 0, 66, 0
1, 28200, Note_on_c, 0, 70, 31
1, 28320, Note_on_c, 0, 70, 0
1, 28320, Note_on_c, 0, 66, 40
1, 28320, Note_on_c, 0, 54, 22
1, 28320, Note_on_c, 0, 58, 27
1, 28332, Control_c, 0, 64, 127
1, 28440, Note_on_c, 0, 66, 0
1, 28440, Note_on_c, 0, 70, 28
1, 28560, Note_on_c, 0, 70, 0
1, 28560, Note_on_c, 0, 58, 0
1, 28560, Note_on_c, 0, 54, 0
1, 28560, Note_on_c, 0, 66, 36
1, 28680, Tempo, 519481
1, 28680, Note_on_c, 0, 66, 0
1, 28680, Note_on_c, 0, 70, 29
1, 28800, Tempo, 474308
1, 28800, Note_on_c, 0, 70, 0
1, 28800, Note_on_c, 0, 66, 45
1, 28800, Note_on_c, 0, 48, 27
1, 28800, Control_c, 0, 64, 0
1, 28915, Control_c, 0, 64, 127
1, 28920, Note_on_c, 0, 66, 0
1, 28920, Note_on_c, 0, 70, 27
1, 29040, Note_on_c, 0, 70, 0
1, 29040, Note_on_c, 0, 48, 0
1, 29040, Note_on_c, 0, 65, 34
1, 29052, Control_c, 0, 64, 0
1, 29160, Note_on_c, 0, 65, 0
1, 29160, Note_on_c, 0, 68, 27
1, 29280, Note_on_c, 0, 68, 0
1, 29280, Note_on_c, 0, 65, 36
1, 29280, Note_on_c, 0, 53, 22
1, 29280, Note_on_c, 0, 56, 27
1, 29395, Control_c, 0, 64, 127
1, 29400, Note_on_c, 0, 65, 0
1, 29400, Note_on_c, 0, 68, 27
1, 29520, Note_on_c, 0, 68, 0
1, 29520, Note_on_c, 0, 56, 0
1, 29520, Note_on_c, 0, 53, 0
1, 29520, Note_on_c, 0, 65, 32
1, 29537, Control_c, 0, 64, 0
1, 29640, Tempo, 519481
1, 29640, Note_on_c, 0, 65, 0
1, 29640, Note_on_c, 0, 68, 28
1, 29760, Tempo, 478088
1, 29760, Note_on_c, 0, 68, 0
1, 29760, Note_on_c, 0, 65, 45
1, 29760, Note_on_c, 0, 48, 27
1, 29852, Control_c, 0, 64, 127
1, 29880, Note_on_c, 0, 65, 0
1, 29880, Note_on_c, 0, 68, 27
1, 30000, Note_on_c, 0, 68, 0
1, 30000, Note_on_c, 0, 48, 0
1, 30000, Note_on_c, 0, 64, 33
1, 30029, Control_c, 0, 64, 0
1, 30120, Note_on_c, 0, 64, 0
1, 30120, Note_on_c, 0, 67, 27
1, 30240, Note_on_c, 0, 67, 0
1, 30240, Note_on_c, 0, 64, 39
1, 30240, Note_on_c, 0, 52, 22
1, 30240, Note_on_c, 0, 55, 27
1, 30349, Control_c, 0, 64, 127
1, 30360, Note_on_c, 0, 64, 0
1, 30360, Note_on_c, 0, 67, 28
1, 30480, Note_on_c, 0, 67, 0
1, 30480, Note_on_c, 0, 55, 0
1, 30480, Note_on_c, 0, 52, 0
1, 30480, Note_on_c, 0, 64, 36
1, 30532, Control_c, 0, 64, 0
1, 30600, Note_on_c, 0, 64, 0
1, 30600, Note_on_c, 0, 67, 29
1, 30720, Tempo, 535714
1, 30720, Note_on_c, 0, 67, 0
1, 30720, Note_on_c, 0, 65, 60
1, 30720, Note_on_c, 0, 41, 40
1, 30960, Tempo, 478088
1, 30960, Note_on_c, 0, 41, 0
1, 30960, Note_on_c, 0, 65, 0
1, 30960, Note_on_c, 0, 68, 45
1, 30981, Control_c, 0, 64, 127
1, 31080, Note_on_c, 0, 68, 0
1, 31080, Note_on_c, 0, 72, 28
1, 31200, Note_on_c, 0, 72, 0
1, 31200, Note_on_c, 0, 68, 39
1, 31200, Note_on_c, 0, 65, 27
1, 31200, Note_on_c, 0, 53, 22
1, 31320, Note_on_c, 0, 68, 0
1, 31320, Note_on_c, 0, 72, 28
1, 31440, Note_on_c, 0, 72, 0
1, 31440, Note_on_c, 0, 68, 38
1, 31560, Tempo, 493827
1, 31560, Note_on_c, 0, 68, 0
1, 31560, Note_on_c, 0, 72, 31
1, 31680, Tempo, 476190
1, 31680, Note_on_c, 0, 72, 0
1, 31680, Note_on_c, 0, 53, 0
1, 31680, Note_on_c, 0, 65, 0
1, 31680, Note_on_c, 0, 67, 45
1, 31686, Control_c, 0, 64, 0
1, 31755, Control_c, 0, 64, 127
1, 31800, Note_on_c, 0, 67, 0
1, 31800, Note_on_c, 0, 71, 30
1, 31920, Note_on_c, 0, 71, 0
1, 31920, Note_on_c, 0, 68, 45
1, 31932, Control_c, 0, 64, 0
1, 32040, Note_on_c, 0, 68, 0
1, 32040, Note_on_c, 0, 72, 32
1, 32160, Note_on_c, 0, 72, 0
1, 32160, Note_on_c, 0, 68, 39
1, 32160, Note_on_c, 0, 65, 27
1, 32160, Note_on_c, 0, 53, 22
1, 32170, Control_c, 0, 64, 0
1, 32256, Control_c, 0, 64, 127
1, 32280, Note_on_c, 0, 68, 0
1, 32280, Note_on_c, 0, 72, 27
1, 32400, Note_on_c, 0, 72, 0
1, 32400, Note_on_c, 0, 68, 40
1, 32520, Tempo, 515021
1, 32520, Note_on_c, 0, 68, 0
1, 32520, Note_on_c, 0, 72, 30
1, 32640, Tempo, 472441
1, 32640, Note_on_c, 0, 72, 0
1, 32640, Note_on_c, 0, 53, 0
1, 32640, Note_on_c, 0, 65, 0
1, 32640, Note_on_c, 0, 69, 45
1, 32640, Control_c, 0, 64, 0
1, 32703, Control_c, 0, 64, 127
1, 32760, Note_on_c, 0, 69, 0
1, 32760, Note_on_c, 0, 75, 31
1, 32857, Control_c, 0, 64, 0
1, 32880, Tempo, 466926
1, 32880, Note_on_c, 0, 75, 0
1, 32880, Note_on_c, 0, 70, 38
1, 33000, Note_on_c, 0, 70, 0
1, 33000, Note_on_c, 0, 73, 30
1, 33120, Note_on_c, 0, 73, 0
1, 33120, Note_on_c, 0, 70, 38
1, 33120, Note_on_c, 0, 65, 27
1, 33120, Note_on_c, 0, 58, 22
1, 33128, Control_c, 0, 64, 0
1, 33200, Control_c, 0, 64, 127
1, 33240, Note_on_c, 0, 70, 0
1, 33240, Note_on_c, 0, 73, 31
1, 33360, Note_on_c, 0, 73, 0
1, 33360, Note_on_c, 0, 70, 33
1, 33480, Tempo, 526316
1, 33480, Note_on_c, 0, 70, 0
1, 33480, Note_on_c, 0, 73, 28
1, 33600, Tempo, 465116
1, 33600, Note_on_c, 0, 73, 0
1, 33600, Note_on_c, 0, 58, 0
1, 33600, Note_on_c, 0, 65, 0
1, 33600, Note_on_c, 0, 73, 47
1, 33663, Control_c, 0, 64, 0
1, 33720, Note_on_c, 0, 73, 0
1, 33720, Note_on_c, 0, 77, 38
1, 33743, Control_c, 0, 64, 127
1, 33840, Note_on_c, 0, 77, 0
1, 33840, Note_on_c, 0, 70, 45
1, 33960, Note_on_c, 0, 70, 0
1, 33960, Note_on_c, 0, 73, 32
1, 34080, Note_on_c, 0, 73, 0
1, 34080, Note_on_c, 0, 68, 40
1, 34080, Note_on_c, 0, 51, 22
1, 34080, Note_on_c, 0, 63, 27
1, 34084, Control_c, 0, 64, 0
1, 34200, Note_on_c, 0, 68, 0
1, 34200, Note_on_c, 0, 73, 31
1, 34320, Tempo, 483871
1, 34320, Note_on_c, 0, 73, 0
1, 34320, Note_on_c, 0, 67, 37
1, 34440, Note_on_c, 0, 67, 0
1, 34440, Note_on_c, 0, 73, 31
1, 34560, Tempo, 468750
1, 34560, Note_on_c, 0, 73, 0
1, 34560, Note_on_c, 0, 63, 0
1, 34560, Note_on_c, 0, 51, 0
1, 34560, Note_on_c, 0, 68, 45
1, 34680, Note_on_c, 0, 68, 0
1, 34680, Note_on_c, 0, 73, 30
1, 34800, Note_on_c, 0, 73, 0
1, 34800, Note_on_c, 0, 68, 36
1, 34920, Note_on_c, 0, 68, 0
1, 34920, Note_on_c, 0, 72, 27
1, 35040, Note_on_c, 0, 72, 0
1, 35040, Note_on_c, 0, 68, 38
1, 35040, Note_on_c, 0, 56, 22
1, 35040, Note_on_c, 0, 63, 27
1, 35040, Control_c, 0, 64, 127
1, 35160, Note_on_c, 0, 68, 0
1, 35160, Note_on_c, 0, 72, 31
1, 35280, Note_on_c, 0, 72, 0
1, 35280, Note_on_c, 0, 68, 33
1, 35400, Note_on_c, 0, 68, 0
1, 35400, Note_on_c, 0, 72, 28
1, 35520, Tempo, 474308
1, 35520, Note_on_c, 0, 72, 0
1, 35520, Note_on_c, 0, 63, 0
1, 35520, Note_on_c, 0, 56, 0
1, 35520, Note_on_c, 0, 72, 47
1, 35520, Note_on_c, 0, 49, 27
1, 35530, Control_c, 0, 64, 0
1, 35640, Note_on_c, 0, 72, 0
1, 35640, Note_on_c, 0, 75, 30
1, 35640, Control_c, 0, 64, 127
1, 35760, Note_on_c, 0, 75, 0
1, 35760, Note_on_c, 0, 49, 0
1, 35760, Note_on_c, 0, 65, 35
1, 35770, Control_c, 0, 64, 0
1, 35880, Note_on_c, 0, 65, 0
1, 35880, Note_on_c, 0, 70, 31
1, 36000, Tempo, 458015
1, 36000, Note_on_c, 0, 70, 0
1, 36000, Note_on_c, 0, 73, 50
1, 36000, Note_on_c, 0, 61, 22
1, 36000, Note_on_c, 0, 65, 27
1, 36092, Control_c, 0, 64, 127
1, 36120, Note_on_c, 0, 73, 0
1, 36120, Note_on_c, 0, 77, 34
1, 36240, Note_on_c, 0, 77, 0
1, 36240, Note_on_c, 0, 65, 0
1, 36240, Note_on_c, 0, 61, 0
1, 36240, Note_on_c, 0, 75, 43
1, 36260, Control_c, 0, 64, 0
1, 36360, Tempo, 519481
1, 36360, Note_on_c, 0, 75, 0
1, 36360, Note_on_c, 0, 73, 35
1, 36480, Tempo, 474308
1, 36480, Note_on_c, 0, 73, 0
1, 36480, Note_on_c, 0, 70, 45
1, 36480, Note_on_c, 0, 51, 27
1, 36595, Control_c, 0, 64, 127
1, 36600, Note_on_c, 0, 70, 0
1, 36600, Note_on_c, 0, 73, 27
1, 36720, Note_on_c, 0, 73, 0
1, 36720, Note_on_c, 0, 51, 0
1, 36720, Note_on_c, 0, 63, 34
1, 36730, Control_c, 0, 64, 0
1, 36840, Note_on_c, 0, 63, 0
1, 36840, Note_on_c, 0, 68, 27
1, 36960, Tempo, 459770
1, 36960, Note_on_c, 0, 68, 0
1, 36960, Note_on_c, 0, 72, 47
1, 36960, Note_on_c, 0, 63, 27
1, 36960, Note_on_c, 0, 60, 22
1, 37075, Control_c, 0, 64, 127
1, 37080, Note_on_c, 0, 72, 0
1, 37080, Note_on_c, 0, 75, 35
1, 37200, Note_on_c, 0, 75, 0
1, 37200, Note_on_c, 0, 60, 0
1, 37200, Note_on_c, 0, 63, 0
1, 37200, Note_on_c, 0, 73, 41
1, 37217, Control_c, 0, 64, 0
1, 37320, Tempo, 519481
1, 37320, Note_on_c, 0, 73, 0
1, 37320, Note_on_c, 0, 72, 36
1, 37440, Tempo, 478088
1, 37440, Note_on_c, 0, 72, 0
1, 37440, Note_on_c, 0, 69, 45
1, 37440, Note_on_c, 0, 51, 27
1, 37532, Control_c, 0, 64, 127
1, 37560, Note_on_c, 0, 69, 0
1, 37560, Note_on_c, 0, 72, 27
1, 37680, Note_on_c, 0, 72, 0
1, 37680, Note_on_c, 0, 51, 0
1, 37680, Note_on_c, 0, 63, 33
1, 37690, Control_c, 0, 64, 0
1, 37800, Note_on_c, 0, 63, 0
1, 37800, Note_on_c, 0, 67, 27
1, 37920, Tempo, 461538
1, 37920, Note_on_c, 0, 67, 0
1, 37920, Note_on_c, 0, 70, 46
1, 37920, Note_on_c, 0, 55, 22
1, 37920, Note_on_c, 0, 61, 27
1, 38029, Control_c, 0, 64, 127
1, 38040, Note_on_c, 0, 70, 0
1, 38040, Note_on_c, 0, 73, 36
1, 38160, Note_on_c, 0, 73, 0
1, 38160, Note_on_c, 0, 61, 0
1, 38160, Note_on_c, 0, 55, 0
1, 38160, Note_on_c, 0, 72, 40
1, 38170, Control_c, 0, 64, 0
1, 38280, Note_on_c, 0, 72, 0
1, 38280, Note_on_c, 0, 70, 34
1, 38400, Tempo, 535714
1, 38400, Note_on_c, 0, 70, 0
1, 38400, Note_on_c, 0, 68, 50
1, 38400, Note_on_c, 0, 56, 41
1, 38400, Note_on_c, 0, 60, 41
1, 38640, Tempo, 478088
1, 38640, Note_on_c, 0, 60, 0
1, 38640, Note_on_c, 0, 56, 0
1, 38640, Note_on_c, 0, 68, 0
1, 38640, Note_on_c, 0, 68, 45
1, 38640, Note_on_c, 0, 63, 27
1, 38661, Control_c, 0, 64, 127
1, 38760, Note_on_c, 0, 63, 0
1, 38760, Note_on_c, 0, 68, 0
1, 38760, Note_on_c, 0, 72, 28
1, 38880, Note_on_c, 0, 72, 0
1, 38880, Note_on_c, 0, 68, 39
1, 38880, Note_on_c, 0, 63, 30
1, 39000, Note_on_c, 0, 63, 0
1, 39000, Note_on_c, 0, 68, 0
1, 39000, Note_on_c, 0, 72, 28
1, 39120, Note_on_c, 0, 72, 0
1, 39120, Note_on_c, 0, 68, 38
1, 39120, Note_on_c, 0, 63, 27
1, 39240, Tempo, 493827
1, 39240, Note_on_c, 0, 63, 0
1, 39240, Note_on_c, 0, 68, 0
1, 39240, Note_on_c, 0, 72, 31
1, 39360, Tempo, 476190
1, 39360, Note_on_c, 0, 72, 0
1, 39360, Note_on_c, 0, 71, 45
1, 39360, Note_on_c, 0, 64, 37
1, 39366, Control_c, 0, 64, 0
1, 39413, Control_c, 0, 64, 127
1, 39480, Note_on_c, 0, 71, 0
1, 39480, Note_on_c, 0, 74, 30
1, 39600, Note_on_c, 0, 74, 0
1, 39600, Note_on_c, 0, 64, 0
1, 39600, Note_on_c, 0, 72, 45
1, 39600, Note_on_c, 0, 63, 27
1, 39612, Control_c, 0, 64, 0
1, 39720, Note_on_c, 0, 72, 0
1, 39720, Note_on_c, 0, 75, 32
1, 39840, Note_on_c, 0, 75, 0
1, 39840, Note_on_c, 0, 63, 0
1, 39840, Note_on_c, 0, 72, 39
1, 39840, Note_on_c, 0, 63, 30
1, 39932, Control_c, 0, 64, 127
1, 39960, Note_on_c, 0, 63, 0
1, 39960, Note_on_c, 0, 72, 0
1, 39960, Note_on_c, 0, 75, 27
1, 40080, Note_on_c, 0, 75, 0
1, 40080, Note_on_c, 0, 72, 40
1, 40080, Note_on_c, 0, 63, 27
1, 40200, Tempo, 515021
1, 40200, Note_on_c, 0, 63, 0
1, 40200, Note_on_c, 0, 72, 0
1, 40200, Note_on_c, 0, 75, 30
1, 40320, Tempo, 491803
1, 40320, Note_on_c, 0, 75, 0
1, 40320, Note_on_c, 0, 72, 45
1, 40320, Note_on_c, 0, 51, 38
1, 40320, Control_c, 0, 64, 0
1, 40423, Control_c, 0, 64, 127
1, 40440, Tempo, 472441
1, 40440, Note_on_c, 0, 72, 0
1, 40440, Note_on_c, 0, 75, 37
1, 40560, Note_on_c, 0, 75, 0
1, 40560, Note_on_c, 0, 51, 0
1, 40560, Note_on_c, 0, 73, 44
1, 40560, Note_on_c, 0, 63, 27
1, 40577, Control_c, 0, 64, 0
1, 40680, Note_on_c, 0, 63, 0
1, 40680, Note_on_c, 0, 73, 0
1, 40680, Note_on_c, 0, 76, 39
1, 40800, Note_on_c, 0, 76, 0
1, 40800, Note_on_c, 0, 79, 52
1, 40800, Note_on_c, 0, 63, 27
1, 40920, Note_on_c, 0, 63, 0
1, 40920, Note_on_c, 0, 79, 0
1, 40920, Note_on_c, 0, 82, 46
1, 41040, Note_on_c, 0, 82, 0
1, 41040, Note_on_c, 0, 72, 44
1, 41040, Note_on_c, 0, 63, 27
1, 41160, Note_on_c, 0, 63, 0
1, 41160, Note_on_c, 0, 72, 0
1, 41160, Note_on_c, 0, 75, 36
1, 41280, Tempo, 465116
1, 41280, Note_on_c, 0, 75, 0
1, 41280, Note_on_c, 0, 73, 48
1, 41280, Note_on_c, 0, 51, 44
1, 41290, Control_c, 0, 64, 0
1, 41400, Note_on_c, 0, 73, 0
1, 41400, Note_on_c, 0, 76, 51
1, 41412, Control_c, 0, 64, 127
1, 41520, Note_on_c, 0, 76, 0
1, 41520, Note_on_c, 0, 51, 0
1, 41520, Note_on_c, 0, 79, 55
1, 41520, Note_on_c, 0, 63, 37
1, 41543, Control_c, 0, 64, 0
1, 41640, Note_on_c, 0, 63, 0
1, 41640, Note_on_c, 0, 79, 0
1, 41640, Note_on_c, 0, 82, 58
1, 41760, Note_on_c, 0, 82, 0
1, 41760, Note_on_c, 0, 80, 61
1, 41760, Note_on_c, 0, 63, 40
1, 41880, Note_on_c, 0, 63, 0
1, 41880, Note_on_c, 0, 80, 0
1, 41880, Note_on_c, 0, 79, 59
1, 42000, Note_on_c, 0, 79, 0
1, 42000, Note_on_c, 0, 77, 57
1, 42000, Note_on_c, 0, 51, 44
1, 42000, Note_on_c, 0, 61, 44
1, 42000, Note_on_c, 0, 63, 44
1, 42120, Tempo, 502092
1, 42120, Note_on_c, 0, 63, 0
1, 42120, Note_on_c, 0, 77, 0
1, 42120, Note_on_c, 0, 51, 0
1, 42120, Note_on_c, 0, 61, 0
1, 42120, Note_on_c, 0, 79, 62
1, 42240, Tempo, 463320
1, 42240, Note_on_c, 0, 79, 0
1, 42240, Note_on_c, 0, 80, 72
1, 42240, Note_on_c, 0, 56, 48
1, 42240, Note_on_c, 0, 63, 48
1, 42240, Note_on_c, 0, 60, 48
1, 42240, Control_c, 0, 64, 0
1, 42480, Tempo, 478088
1, 42480, Note_on_c, 0, 60, 0
1, 42480, Note_on_c, 0, 80, 0
1, 42480, Note_on_c, 0, 56, 0
1, 42480, Note_on_c, 0, 63, 0
1, 42480, Note_on_c, 0, 68, 51
1, 42480, Note_on_c, 0, 63, 31
1, 42501, Control_c, 0, 64, 127
1, 42600, Note_on_c, 0, 63, 0
1, 42600, Note_on_c, 0, 68, 0
1, 42600, Note_on_c, 0, 72, 32
1, 42715, Control_c, 0, 64, 0
1, 42720, Note_on_c, 0, 72, 0
1, 42720, Note_on_c, 0, 68, 44
1, 42720, Note_on_c, 0, 63, 34
1, 42840, Note_on_c, 0, 63, 0
1, 42840, Note_on_c, 0, 68, 0
1, 42840, Note_on_c, 0, 72, 32
1, 42960, Note_on_c, 0, 72, 0
1, 42960, Note_on_c, 0, 68, 43
1, 42960, Note_on_c, 0, 63, 31
1, 43080, Tempo, 493827
1, 43080, Note_on_c, 0, 63, 0
1, 43080, Note_on_c, 0, 68, 0
1, 43080, Note_on_c, 0, 72, 35
1, 43200, Tempo, 476190
1, 43200, Note_on_c, 0, 72, 0
1, 43200, Note_on_c, 0, 71, 51
1, 43200, Note_on_c, 0, 64, 42
1, 43206, Control_c, 0, 64, 127
1, 43320, Note_on_c, 0, 71, 0
1, 43320, Note_on_c, 0, 74, 34
1, 43440, Note_on_c, 0, 74, 0
1, 43440, Note_on_c, 0, 64, 0
1, 43440, Note_on_c, 0, 72, 51
1, 43440, Note_on_c, 0, 63, 31
1, 43447, Control_c, 0, 64, 0
1, 43560, Note_on_c, 0, 63, 0
1, 43560, Note_on_c, 0, 72, 0
1, 43560, Note_on_c, 0, 75, 36
1, 43680, Note_on_c, 0, 75, 0
1, 43680, Note_on_c, 0, 72, 44
1, 43680, Note_on_c, 0, 63, 34
1, 43800, Note_on_c, 0, 63, 0
1, 43800, Note_on_c, 0, 72, 0
1, 43800, Note_on_c, 0, 75, 31
1, 43920, Note_on_c, 0, 75, 0
1, 43920, Note_on_c, 0, 72, 46
1, 43920, Note_on_c, 0, 66, 31
1, 44040, Tempo, 515021
1, 44040, Note_on_c, 0, 66, 0
1, 44040, Note_on_c, 0, 72, 0
1, 44040, Note_on_c, 0, 75, 34
1, 44160, Tempo, 491803
1, 44160, Note_on_c, 0, 75, 0
1, 44160, Note_on_c, 0, 74, 51
1, 44160, Note_on_c, 0, 53, 43
1, 44160, Control_c, 0, 64, 0
1, 44263, Control_c, 0, 64, 127
1, 44280, Tempo, 472441
1, 44280, Note_on_c, 0, 74, 0
1, 44280, Note_on_c, 0, 77, 42
1, 44400, Note_on_c, 0, 77, 0
1, 44400, Note_on_c, 0, 53, 0
1, 44400, Note_on_c, 0, 75, 50
1, 44400, Note_on_c, 0, 65, 31
1, 44415, Control_c, 0, 64, 0
1, 44520, Note_on_c, 0, 65, 0
1, 44520, Note_on_c, 0, 75, 0
1, 44520, Note_on_c, 0, 78, 44
1, 44640, Note_on_c, 0, 78, 0
1, 44640, Note_on_c, 0, 81, 59
1, 44640, Note_on_c, 0, 65, 31
1, 44760, Note_on_c, 0, 65, 0
1, 44760, Note_on_c, 0, 81, 0
1, 44760, Note_on_c, 0, 84, 52
1, 44880, Note_on_c, 0, 84, 0
1, 44880, Note_on_c, 0, 74, 50
1, 44880, Note_on_c, 0, 65, 31
1, 45000, Note_on_c, 0, 65, 0
1, 45000, Note_on_c, 0, 74, 0
1, 45000, Note_on_c, 0, 77, 41
1, 45120, Tempo, 465116
1, 45120, Note_on_c, 0, 77, 0
1, 45120, Note_on_c, 0, 75, 55
1, 45120, Note_on_c, 0, 53, 50
1, 45130, Control_c, 0, 64, 0
1, 45235, Control_c, 0, 64, 127
1, 45240, Note_on_c, 0, 75, 0
1, 45240, Note_on_c, 0, 78, 58
1, 45360, Note_on_c, 0, 78, 0
1, 45360, Note_on_c, 0, 53, 0
1, 45360, Note_on_c, 0, 81, 63
1, 45360, Note_on_c, 0, 65, 42
1, 45368, Control_c, 0, 64, 0
1, 45480, Note_on_c, 0, 65, 0
1, 45480, Note_on_c, 0, 81, 0
1, 45480, Note_on_c, 0, 84, 66
1, 45600, Note_on_c, 0, 84, 0
1, 45600, Note_on_c, 0, 82, 70
1, 45600, Note_on_c, 0, 65, 46
1, 45720, Note_on_c, 0, 65, 0
1, 45720, Note_on_c, 0, 82, 0
1, 45720, Note_on_c, 0, 81, 67
1, 45840, Note_on_c, 0, 81, 0
1, 45840, Note_on_c, 0, 79, 65
1, 45840, Note_on_c, 0, 65, 50
1, 45840, Note_on_c, 0, 63, 50
1, 45840, Note_on_c, 0, 53, 50
1, 45960, Tempo, 502092
1, 45960, Note_on_c, 0, 53, 0
1, 45960, Note_on_c, 0, 79, 0
1, 45960, Note_on_c, 0, 65, 0
1, 45960, Note_on_c, 0, 63, 0
1, 45960, Note_on_c, 0, 81, 71
1, 46080, Tempo, 463320
1, 46080, Note_on_c, 0, 81, 0
1, 46080, Note_on_c, 0, 82, 77
1, 46080, Note_on_c, 0, 58, 55
1, 46080, Note_on_c, 0, 61, 55
1, 46080, Note_on_c, 0, 65, 55
1, 46080, Control_c, 0, 64, 0
1, 46206, Control_c, 0, 64, 127
1, 46320, Tempo, 478088
1, 46320, Note_on_c, 0, 65, 0
1, 46320, Note_on_c, 0, 82, 0
1, 46320, Note_on_c, 0, 58, 0
1, 46320, Note_on_c, 0, 61, 0
1, 46320, Note_on_c, 0, 73, 51
1, 46320, Note_on_c, 0, 65, 31
1, 46440, Note_on_c, 0, 65, 0
1, 46440, Note_on_c, 0, 73, 0
1, 46440, Note_on_c, 0, 77, 32
1, 46560, Note_on_c, 0, 77, 0
1, 46560, Note_on_c, 0, 73, 44
1, 46560, Note_on_c, 0, 65, 34
1, 46572, Control_c, 0, 64, 0
1, 46680, Note_on_c, 0, 65, 0
1, 46680, Note_on_c, 0, 73, 0
1, 46680, Note_on_c, 0, 77, 32
1, 46800, Note_on_c, 0, 77, 0
1, 46800, Note_on_c, 0, 73, 43
1, 46800, Note_on_c, 0, 65, 31
1, 46920, Tempo, 493827
1, 46920, Note_on_c, 0, 65, 0
1, 46920, Note_on_c, 0, 73, 0
1, 46920, Note_on_c, 0, 77, 35
1, 47040, Tempo, 476190
1, 47040, Note_on_c, 0, 77, 0
1, 47040, Note_on_c, 0, 72, 51
1, 47040, Note_on_c, 0, 66, 42
1, 47093, Control_c, 0, 64, 127
1, 47160, Note_on_c, 0, 72, 0
1, 47160, Note_on_c, 0, 76, 34
1, 47280, Note_on_c, 0, 76, 0
1, 47280, Note_on_c, 0, 66, 0
1, 47280, Note_on_c, 0, 73, 51
1, 47280, Note_on_c, 0, 65, 31
1, 47298, Control_c, 0, 64, 0
1, 47400, Note_on_c, 0, 65, 0
1, 47400, Note_on_c, 0, 73, 0
1, 47400, Note_on_c, 0, 77, 36
1, 47520, Note_on_c, 0, 77, 0
1, 47520, Note_on_c, 0, 73, 44
1, 47520, Note_on_c, 0, 65, 34
1, 47640, Note_on_c, 0, 65, 0
1, 47640, Note_on_c, 0, 73, 0
1, 47640, Note_on_c, 0, 77, 31
1, 47760, Note_on_c, 0, 77, 0
1, 47760, Note_on_c, 0, 73, 46
1, 47760, Note_on_c, 0, 65, 31
1, 47880, Tempo, 515021
1, 47880, Note_on_c, 0, 65, 0
1, 47880, Note_on_c, 0, 73, 0
1, 47880, Note_on_c, 0, 77, 34
1, 48000, Tempo, 463320
1, 48000, Note_on_c, 0, 77, 0
1, 48000, Note_on_c, 0, 82, 72
1, 48000, Note_on_c, 0, 55, 49
1, 48000, Control_c, 0, 64, 0
1, 48103, Control_c, 0, 64, 127
1, 48120, Tempo, 478088
1, 48120, Note_on_c, 0, 82, 0
1, 48120, Note_on_c, 0, 73, 35
1, 48240, Tempo, 478088
1, 48240, Note_on_c, 0, 73, 0
1, 48240, Note_on_c, 0, 76, 46
1, 48240, Note_on_c, 0, 61, 31
1, 48240, Note_on_c, 0, 64, 31
1, 48360, Note_on_c, 0, 76, 0
1, 48360, Note_on_c, 0, 73, 32
1, 48480, Note_on_c, 0, 73, 0
1, 48480, Note_on_c, 0, 64, 0
1, 48480, Note_on_c, 0, 75, 44
1, 48480, Note_on_c, 0, 63, 34
1, 48482, Control_c, 0, 64, 0
1, 48600, Note_on_c, 0, 75, 0
1, 48600, Note_on_c, 0, 73, 32
1, 48720, Note_on_c, 0, 73, 0
1, 48720, Note_on_c, 0, 63, 0
1, 48720, Note_on_c, 0, 76, 43
1, 48720, Note_on_c, 0, 64, 31
1, 48840, Tempo, 493827
1, 48840, Note_on_c, 0, 76, 0
1, 48840, Note_on_c, 0, 73, 35
1, 48960, Tempo, 465116
1, 48960, Note_on_c, 0, 73, 0
1, 48960, Note_on_c, 0, 64, 0
1, 48960, Note_on_c, 0, 61, 0
1, 48960, Note_on_c, 0, 55, 0
1, 48960, Note_on_c, 0, 80, 67
1, 48960, Note_on_c, 0, 56, 50
1, 49013, Control_c, 0, 64, 127
1, 49080, Tempo, 478088
1, 49080, Note_on_c, 0, 80, 0
1, 49080, Note_on_c, 0, 72, 34
1, 49200, Note_on_c, 0, 72, 0
1, 49200, Note_on_c, 0, 77, 45
1, 49200, Note_on_c, 0, 65, 31
1, 49200, Note_on_c, 0, 60, 31
1, 49320, Note_on_c, 0, 77, 0
1, 49320, Note_on_c, 0, 72, 36
1, 49440, Note_on_c, 0, 72, 0
1, 49440, Note_on_c, 0, 65, 0
1, 49440, Note_on_c, 0, 75, 44
1, 49440, Note_on_c, 0, 63, 34
1, 49451, Control_c, 0, 64, 0
1, 49560, Note_on_c, 0, 75, 0
1, 49560, Note_on_c, 0, 72, 31
1, 49680, Note_on_c, 0, 72, 0
1, 49680, Note_on_c, 0, 63, 0
1, 49680, Note_on_c, 0, 80, 63
1, 49680, Note_on_c, 0, 68, 31
1, 49800, Tempo, 515021
1, 49800, Note_on_c, 0, 80, 0
1, 49800, Note_on_c, 0, 72, 34
1, 49920, Tempo, 463320
1, 49920, Note_on_c, 0, 72, 0
1, 49920, Note_on_c, 0, 68, 0
1, 49920, Note_on_c, 0, 56, 0
1, 49920, Note_on_c, 0, 60, 0
1, 49920, Note_on_c, 0, 85, 72
1, 49920, Note_on_c, 0, 82, 61
1, 49920, Note_on_c, 0, 55, 49
1, 50023, Control_c, 0, 64, 127
1, 50040, Tempo, 478088
1, 50040, Note_on_c, 0, 82, 0
1, 50040, Note_on_c, 0, 85, 0
1, 50040, Note_on_c, 0, 73, 35
1, 50160, Tempo, 478088
1, 50160, Note_on_c, 0, 73, 0
1, 50160, Note_on_c, 0, 76, 46
1, 50160, Note_on_c, 0, 61, 31
1, 50160, Note_on_c, 0, 64, 31
1, 50280, Note_on_c, 0, 76, 0
1, 50280, Note_on_c, 0, 73, 32
1, 50400, Note_on_c, 0, 73, 0
1, 50400, Note_on_c, 0, 64, 0
1, 50400, Note_on_c, 0, 75, 44
1, 50400, Note_on_c, 0, 63, 34
1, 50421, Control_c, 0, 64, 0
1, 50520, Note_on_c, 0, 75, 0
1, 50520, Note_on_c, 0, 73, 32
1, 50640, Note_on_c, 0, 73, 0
1, 50640, Note_on_c, 0, 63, 0
1, 50640, Note_on_c, 0, 76, 43
1, 50640, Note_on_c, 0, 64, 31
1, 50760, Tempo, 493827
1, 50760, Note_on_c, 0, 76, 0
1, 50760, Note_on_c, 0, 73, 35
1, 50880, Tempo, 465116
1, 50880, Note_on_c, 0, 73, 0
1, 50880, Note_on_c, 0, 64, 0
1, 50880, Note_on_c, 0, 61, 0
1, 50880, Note_on_c, 0, 55, 0
1, 50880, Note_on_c, 0, 84, 67
1, 50880, Note_on_c, 0, 80, 56
1, 50880, Note_on_c, 0, 56, 50
1, 50933, Control_c, 0, 64, 127
1, 51000, Tempo, 478088
1, 51000, Note_on_c, 0, 80, 0
1, 51000, Note_on_c, 0, 84, 0
1, 51000, Note_on_c, 0, 72, 34
1, 51120, Note_on_c, 0, 72, 0
1, 51120, Note_on_c, 0, 77, 45
1, 51120, Note_on_c, 0, 65, 31
1, 51120, Note_on_c, 0, 60, 31
1, 51240, Note_on_c, 0, 77, 0
1, 51240, Note_on_c, 0, 72, 36
1, 51360, Note_on_c, 0, 72, 0
1, 51360, Note_on_c, 0, 65, 0
1, 51360, Note_on_c, 0, 75, 44
1, 51360, Note_on_c, 0, 63, 34
1, 51376, Control_c, 0, 64, 0
1, 51480, Note_on_c, 0, 75, 0
1, 51480, Note_on_c, 0, 72, 31
1, 51600, Note_on_c, 0, 72, 0
1, 51600, Note_on_c, 0, 63, 0
1, 51600, Note_on_c, 0, 80, 63
1, 51600, Note_on_c, 0, 68, 31
1, 51720, Tempo, 515021
1, 51720, Note_on_c, 0, 80, 0
1, 51720, Note_on_c, 0, 72, 34
1, 51840, Note_on_c, 0, 72, 0
1, 51840, Note_on_c, 0, 68, 0
1, 51840, Note_on_c, 0, 56, 0
1, 51840, Note_on_c, 0, 60, 0
1, 51840, Note_on_c, 0, 84, 70
1, 51840, Note_on_c, 0, 49, 60
1, 51960, Note_on_c, 0, 49, 0
1, 51960, Note_on_c, 0, 84, 0
1, 51960, Note_on_c, 0, 87, 52
1, 52080, Note_on_c, 0, 87, 0
1, 52080, Note_on_c, 0, 77, 57
1, 52080, Note_on_c, 0, 65, 53
1, 52080, Note_on_c, 0, 61, 53
1, 52144, Control_c, 0, 64, 127
1, 52200, Note_on_c, 0, 77, 0
1, 52200, Note_on_c, 0, 82, 53
1, 52320, Tempo, 480000
1, 52320, Note_on_c, 0, 82, 0
1, 52320, Note_on_c, 0, 85, 62
1, 52440, Note_on_c, 0, 85, 0
1, 52440, Note_on_c, 0, 89, 69
1, 52560, Note_on_c, 0, 89, 0
1, 52560, Note_on_c, 0, 61, 0
1, 52560, Note_on_c, 0, 65, 0
1, 52560, Note_on_c, 0, 87, 57
1, 52560, Note_on_c, 0, 61, 44
1, 52560, Note_on_c, 0, 65, 44
1, 52680, Note_on_c, 0, 87, 0
1, 52680, Note_on_c, 0, 85, 57
1, 52800, Tempo, 512821
1, 52800, Note_on_c, 0, 85, 0
1, 52800, Note_on_c, 0, 65, 0
1, 52800, Note_on_c, 0, 61, 0
1, 52800, Note_on_c, 0, 82, 63
1, 52800, Note_on_c, 0, 51, 60
1, 52810, Control_c, 0, 64, 0
1, 52920, Note_on_c, 0, 51, 0
1, 52920, Note_on_c, 0, 82, 0
1, 52920, Note_on_c, 0, 85, 53
1, 53040, Tempo, 476190
1, 53040, Note_on_c, 0, 85, 0
1, 53040, Note_on_c, 0, 75, 53
1, 53040, Note_on_c, 0, 60, 52
1, 53040, Note_on_c, 0, 63, 52
1, 53111, Control_c, 0, 64, 127
1, 53160, Note_on_c, 0, 75, 0
1, 53160, Note_on_c, 0, 80, 48
1, 53280, Note_on_c, 0, 80, 0
1, 53280, Note_on_c, 0, 84, 62
1, 53400, Note_on_c, 0, 84, 0
1, 53400, Note_on_c, 0, 87, 67
1, 53520, Note_on_c, 0, 87, 0
1, 53520, Note_on_c, 0, 63, 0
1, 53520, Note_on_c, 0, 60, 0
1, 53520, Note_on_c, 0, 85, 53
1, 53520, Note_on_c, 0, 63, 45
1, 53520, Note_on_c, 0, 60, 45
1, 53640, Tempo, 515021
1, 53640, Note_on_c, 0, 85, 0
1, 53640, Note_on_c, 0, 84, 53
1, 53760, Note_on_c, 0, 84, 0
1, 53760, Note_on_c, 0, 60, 0
1, 53760, Note_on_c, 0, 63, 0
1, 53760, Note_on_c, 0, 81, 66
1, 53760, Note_on_c, 0, 51, 60
1, 53775, Control_c, 0, 64, 0
1, 53880, Note_on_c, 0, 51, 0
1, 53880, Note_on_c, 0, 81, 0
1, 53880, Note_on_c, 0, 84, 47
1, 54000, Tempo, 480000
1, 54000, Note_on_c, 0, 84, 0
1, 54000, Note_on_c, 0, 75, 53
1, 54000, Note_on_c, 0, 61, 46
1, 54000, Note_on_c, 0, 55, 46
1, 54000, Note_on_c, 0, 63, 46
1, 54029, Control_c, 0, 64, 127
1, 54120, Note_on_c, 0, 75, 0
1, 54120, Note_on_c, 0, 79, 50
1, 54240, Note_on_c, 0, 79, 0
1, 54240, Note_on_c, 0, 82, 61
1, 54360, Note_on_c, 0, 82, 0
1, 54360, Note_on_c, 0, 85, 58
1, 54480, Note_on_c, 0, 85, 0
1, 54480, Note_on_c, 0, 55, 0
1, 54480, Note_on_c, 0, 84, 53
1, 54480, Note_on_c, 0, 56, 46
1, 54600, Note_on_c, 0, 84, 0
1, 54600, Note_on_c, 0, 82, 53
1, 54720, Tempo, 474308
1, 54720, Note_on_c, 0, 82, 0
1, 54720, Note_on_c, 0, 56, 0
1, 54720, Note_on_c, 0, 80, 67
1, 54720, Note_on_c, 0, 58, 46
1, 54771, Control_c, 0, 64, 0
1, 54840, Note_on_c, 0, 80, 0
1, 54840, Note_on_c, 0, 79, 57
1, 54960, Note_on_c, 0, 79, 0
1, 54960, Note_on_c, 0, 58, 0
1, 54960, Note_on_c, 0, 61, 0
1, 54960, Note_on_c, 0, 63, 0
1, 54960, Note_on_c, 0, 77, 64
1, 54960, Note_on_c, 0, 63, 47
1, 54960, Note_on_c, 0, 61, 47
1, 54960, Note_on_c, 0, 56, 47
1, 55080, Note_on_c, 0, 56, 0
1, 55080, Note_on_c, 0, 77, 0
1, 55080, Note_on_c, 0, 63, 0
1, 55080, Note_on_c, 0, 61, 0
1, 55080, Note_on_c, 0, 76, 65
1, 55183, Tempo, 472441
1, 55200, Note_on_c, 0, 76, 0
1, 55200, Note_on_c, 0, 75, 67
1, 55200, Note_on_c, 0, 63, 51
1, 55200, Note_on_c, 0, 61, 51
1, 55200, Note_on_c, 0, 55, 51
1, 55222, Tempo, 474308
1, 55241, Tempo, 476190
1, 55279, Tempo, 478088
1, 55299, Tempo, 480000
1, 55320, Note_on_c, 0, 55, 0
1, 55320, Note_on_c, 0, 75, 0
1, 55320, Note_on_c, 0, 63, 0
1, 55320, Note_on_c, 0, 61, 0
1, 55320, Note_on_c, 0, 73, 68
1, 55337, Tempo, 481928
1, 55356, Tempo, 483871
1, 55395, Tempo, 485830
1, 55414, Tempo, 487805
1, 55440, Note_on_c, 0, 73, 0
1, 55440, Note_on_c, 0, 72, 69
1, 55440, Note_on_c, 0, 63, 55
1, 55440, Note_on_c, 0, 51, 55
1, 55440, Note_on_c, 0, 61, 55
1, 55452, Tempo, 489796
1, 55471, Tempo, 491803
1, 55510, Tempo, 493827
1, 55529, Tempo, 495868
1, 55560, Note_on_c, 0, 61, 0
1, 55560, Note_on_c, 0, 72, 0
1, 55560, Note_on_c, 0, 63, 0
1, 55560, Note_on_c, 0, 51, 0
1, 55560, Note_on_c, 0, 70, 71
1, 55567, Tempo, 497925
1, 55587, Tempo, 500000
1, 55625, Tempo, 502092
1, 55644, Tempo, 504202
1, 55663, Tempo, 506329
1, 55680, Note_on_c, 0, 70, 0
1, 55680, Note_on_c, 0, 68, 75
1, 55680, Note_on_c, 0, 60, 59
1, 55680, Note_on_c, 0, 63, 59
1, 55680, Note_on_c, 0, 56, 59
1, 55689, Control_c, 0, 64, 0
1, 55920, Tempo, 481928
1, 55920, Note_on_c, 0, 56, 0
1, 55920, Note_on_c, 0, 68, 0
1, 55920, Note_on_c, 0, 60, 0
1, 55920, Note_on_c, 0, 63, 0
1, 55920, Note_on_c, 0, 56, 72
1, 55920, Note_on_c, 0, 44, 66
1, 56040, Note_on_c, 0, 44, 0
1, 56040, Note_on_c, 0, 56, 0
1, 56160, Note_on_c, 0, 56, 72
1, 56160, Note_on_c, 0, 44, 66
1, 56280, Note_on_c, 0, 44, 0
1, 56280, Note_on_c, 0, 56, 0
1, 56400, Tempo, 524017
1, 56400, Note_on_c, 0, 56, 72
1, 56400, Note_on_c, 0, 44, 66
1, 56520, Note_on_c, 0, 44, 0
1, 56520, Note_on_c, 0, 56, 0
1, 56640, Tempo, 481928
1, 56640, Note_on_c, 0, 55, 78
1, 56640, Note_on_c, 0, 43, 69
1, 56668, Control_c, 0, 64, 127
1, 56880, Note_on_c, 0, 43, 0
1, 56880, Note_on_c, 0, 55, 0
1, 56880, Note_on_c, 0, 56, 69
1, 56880, Note_on_c, 0, 44, 65
1, 56889, Control_c, 0, 64, 0
1, 57000, Note_on_c, 0, 44, 0
1, 57000, Note_on_c, 0, 56, 0
1, 57120, Note_on_c, 0, 56, 69
1, 57120, Note_on_c, 0, 44, 65
1, 57240, Note_on_c, 0, 44, 0
1, 57240, Note_on_c, 0, 56, 0
1, 57360, Tempo, 504202
1, 57360, Note_on_c, 0, 56, 69
1, 57360, Note_on_c, 0, 44, 65
1, 57480, Note_on_c, 0, 44, 0
1, 57480, Note_on_c, 0, 56, 0
1, 57600, Tempo, 478088
1, 57600, Note_on_c, 0, 57, 72
1, 57600, Note_on_c, 0, 45, 68
1, 57960, Note_on_c, 0, 45, 0
1, 57960, Note_on_c, 0, 57, 0
1, 57960, Note_on_c, 0, 58, 64
1, 57960, Note_on_c, 0, 46, 60
1, 58020, Note_on_c, 0, 46, 0
1, 58020, Note_on_c, 0, 58, 0
1, 58020, Note_on_c, 0, 60, 59
1, 58020, Note_on_c, 0, 48, 57
1, 58080, Note_on_c, 0, 48, 0
1, 58080, Note_on_c, 0, 60, 0
1, 58080, Note_on_c, 0, 58, 72
1, 58080, Note_on_c, 0, 46, 68
1, 58440, Note_on_c, 0, 46, 0
1, 58440, Note_on_c, 0, 58, 0
1, 58440, Note_on_c, 0, 60, 65
1, 58440, Note_on_c, 0, 48, 62
1, 58500, Note_on_c, 0, 48, 0
1, 58500, Note_on_c, 0, 60, 0
1, 58500, Note_on_c, 0, 61, 61
1, 58500, Note_on_c, 0, 49, 58
1, 58522, Tempo, 459770
1, 58560, Note_on_c, 0, 49, 0
1, 58560, Note_on_c, 0, 61, 0
1, 58560, Note_on_c, 0, 63, 72
1, 58560, Note_on_c, 0, 51, 68
1, 58618, Tempo, 458015
1, 58680, Note_on_c, 0, 51, 0
1, 58680, Note_on_c, 0, 63, 0
1, 58714, Tempo, 456274
1, 58800, Note_on_c, 0, 67, 70
1, 58800, Note_on_c, 0, 58, 56
1, 58800, Note_on_c, 0, 51, 56
1, 58800, Note_on_c, 0, 61, 66
1, 58810, Tempo, 454545
1, 58846, Control_c, 0, 64, 127
1, 58906, Tempo, 452830
1, 58920, Note_on_c, 0, 67, 0
1, 58920, Note_on_c, 0, 70, 70
1, 59002, Tempo, 451128
1, 59040, Note_on_c, 0, 70, 0
1, 59040, Note_on_c, 0, 61, 0
1, 59040, Note_on_c, 0, 51, 0
1, 59040, Note_on_c, 0, 58, 0
1, 59040, Note_on_c, 0, 75, 67
1, 59040, Note_on_c, 0, 51, 56
1, 59040, Note_on_c, 0, 61, 66
1, 59040, Note_on_c, 0, 58, 56
1, 59098, Tempo, 449438
1, 59160, Note_on_c, 0, 75, 0
1, 59160, Note_on_c, 0, 79, 70
1, 59175, Tempo, 447761
1, 59194, Tempo, 449438
1, 59213, Tempo, 451128
1, 59233, Tempo, 452830
1, 59252, Tempo, 454545
1, 59271, Tempo, 456274
1, 59280, Note_on_c, 0, 79, 0
1, 59280, Note_on_c, 0, 58, 0
1, 59280, Note_on_c, 0, 61, 0
1, 59280, Note_on_c, 0, 51, 0
1, 59280, Note_on_c, 0, 82, 73
1, 59280, Note_on_c, 0, 51, 56
1, 59280, Note_on_c, 0, 61, 66
1, 59280, Note_on_c, 0, 58, 56
1, 59290, Tempo, 458015
1, 59309, Tempo, 459770
1, 59329, Tempo, 461538
1, 59348, Tempo, 463320
1, 59367, Tempo, 465116
1, 59386, Tempo, 466926
1, 59400, Note_on_c, 0, 82, 0
1, 59400, Note_on_c, 0, 87, 75
1, 59405, Tempo, 468750
1, 59425, Tempo, 470588
1, 59444, Tempo, 472441
1, 59463, Tempo, 474308
1, 59482, Tempo, 476190
1, 59501, Tempo, 478088
1, 59520, Tempo, 476190
1, 59520, Note_on_c, 0, 87, 0
1, 59520, Note_on_c, 0, 58, 0
1, 59520, Note_on_c, 0, 61, 0
1, 59520, Note_on_c, 0, 51, 0
1, 59520, Note_on_c, 0, 80, 78
1, 59520, Note_on_c, 0, 60, 72
1, 59520, Note_on_c, 0, 56, 61
1, 59530, Control_c, 0, 64, 0
1, 59760, Tempo, 481928
1, 59760, Note_on_c, 0, 56, 0
1, 59760, Note_on_c, 0, 60, 0
1, 59760, Note_on_c, 0, 80, 0
1, 59760, Note_on_c, 0, 56, 72
1, 59760, Note_on_c, 0, 44, 66
1, 59880, Note_on_c, 0, 44, 0
1, 59880, Note_on_c, 0, 56, 0
1, 60000, Note_on_c, 0, 56, 72
1, 60000, Note_on_c, 0, 44, 66
1, 60120, Note_on_c, 0, 44, 0
1, 60120, Note_on_c, 0, 56, 0
1, 60240, Tempo, 524017
1, 60240, Note_on_c, 0, 56, 72
1, 60240, Note_on_c, 0, 44, 66
1, 60360, Note_on_c, 0, 44, 0
1, 60360, Note_on_c, 0, 56, 0
1, 60480, Tempo, 481928
1, 60480, Note_on_c, 0, 55, 78
1, 60480, Note_on_c, 0, 43, 69
1, 60508, Control_c, 0, 64, 127
1, 60720, Note_on_c, 0, 43, 0
1, 60720, Note_on_c, 0, 55, 0
1, 60720, Note_on_c, 0, 56, 69
1, 60720, Note_on_c, 0, 44, 65
1, 60729, Control_c, 0, 64, 0
1, 60840, Note_on_c, 0, 44, 0
1, 60840, Note_on_c, 0, 56, 0
1, 60960, Note_on_c, 0, 56, 69
1, 60960, Note_on_c, 0, 44, 65
1, 61080, Note_on_c, 0, 44, 0
1, 61080, Note_on_c, 0, 56, 0
1, 61200, Tempo, 504202
1, 61200, Note_on_c, 0, 56, 69
1, 61200, Note_on_c, 0, 44, 65
1, 61320, Note_on_c, 0, 44, 0
1, 61320, Note_on_c, 0, 56, 0
1, 61440, Tempo, 478088
1, 61440, Note_on_c, 0, 57, 72
1, 61440, Note_on_c, 0, 45, 68
1, 61800, Note_on_c, 0, 45, 0
1, 61800, Note_on_c, 0, 57, 0
1, 61800, Note_on_c, 0, 58, 64
1, 61800, Note_on_c, 0, 46, 60
1, 61860, Note_on_c, 0, 46, 0
1, 61860, Note_on_c, 0, 58, 0
1, 61860, Note_on_c, 0, 60, 59
1, 61860, Note_on_c, 0, 48, 56
1, 61920, Note_on_c, 0, 48, 0
1, 61920, Note_on_c, 0, 60, 0
1, 61920, Note_on_c, 0, 58, 72
1, 61920, Note_on_c, 0, 46, 68
1, 62280, Note_on_c, 0, 46, 0
1, 62280, Note_on_c, 0, 58, 0
1, 62280, Note_on_c, 0, 60, 65
1, 62280, Note_on_c, 0, 48, 62
1, 62340, Note_on_c, 0, 48, 0
1, 62340, Note_on_c, 0, 60, 0
1, 62340, Note_on_c, 0, 61, 59
1, 62340, Note_on_c, 0, 49, 58
1, 62362, Tempo, 459770
1, 62400, Note_on_c, 0, 49, 0
1, 62400, Note_on_c, 0, 61, 0
1, 62400, Note_on_c, 0, 63, 72
1, 62400, Note_on_c, 0, 51, 68
1, 62458, Tempo, 458015
1, 62520, Note_on_c, 0, 51, 0
1, 62520, Note_on_c, 0, 63, 0
1, 62554, Tempo, 456274
1, 62640, Note_on_c, 0, 64, 70
1, 62640, Note_on_c, 0, 55, 56
1, 62640, Note_on_c, 0, 58, 66
1, 62640, Note_on_c, 0, 48, 56
1, 62650, Tempo, 454545
1, 62686, Control_c, 0, 64, 127
1, 62746, Tempo, 452830
1, 62760, Note_on_c, 0, 64, 0
1, 62760, Note_on_c, 0, 67, 70
1, 62842, Tempo, 451128
1, 62880, Note_on_c, 0, 67, 0
1, 62880, Note_on_c, 0, 48, 0
1, 62880, Note_on_c, 0, 58, 0
1, 62880, Note_on_c, 0, 55, 0
1, 62880, Note_on_c, 0, 72, 67
1, 62880, Note_on_c, 0, 48, 56
1, 62880, Note_on_c, 0, 58, 66
1, 62880, Note_on_c, 0, 55, 56
1, 62938, Tempo, 449438
1, 63000, Note_on_c, 0, 72, 0
1, 63000, Note_on_c, 0, 76, 70
1, 63015, Tempo, 447761
1, 63034, Tempo, 449438
1, 63053, Tempo, 451128
1, 63073, Tempo, 452830
1, 63092, Tempo, 454545
1, 63111, Tempo, 456274
1, 63120, Note_on_c, 0, 76, 0
1, 63120, Note_on_c, 0, 55, 0
1, 63120, Note_on_c, 0, 58, 0
1, 63120, Note_on_c, 0, 48, 0
1, 63120, Note_on_c, 0, 79, 73
1, 63120, Note_on_c, 0, 48, 56
1, 63120, Note_on_c, 0, 58, 66
1, 63120, Note_on_c, 0, 55, 56
1, 63130, Tempo, 458015
1, 63149, Tempo, 459770
1, 63169, Tempo, 461538
1, 63188, Tempo, 463320
1, 63207, Tempo, 465116
1, 63226, Tempo, 466926
1, 63240, Note_on_c, 0, 79, 0
1, 63240, Note_on_c, 0, 84, 75
1, 63245, Tempo, 468750
1, 63265, Tempo, 470588
1, 63284, Tempo, 472441
1, 63303, Tempo, 474308
1, 63322, Tempo, 476190
1, 63341, Tempo, 478088
1, 63360, Tempo, 476190
1, 63360, Note_on_c, 0, 84, 0
1, 63360, Note_on_c, 0, 55, 0
1, 63360, Note_on_c, 0, 58, 0
1, 63360, Note_on_c, 0, 48, 0
1, 63360, Note_on_c, 0, 77, 78
1, 63360, Note_on_c, 0, 53, 61
1, 63360, Note_on_c, 0, 56, 72
1, 63370, Control_c, 0, 64, 0
1, 63600, Tempo, 481928
1, 63600, Note_on_c, 0, 56, 0
1, 63600, Note_on_c, 0, 53, 0
1, 63600, Note_on_c, 0, 77, 0
1, 63600, Note_on_c, 0, 65, 72
1, 63600, Note_on_c, 0, 56, 61
1, 63600, Note_on_c, 0, 49, 56
1, 63600, Note_on_c, 0, 53, 66
1, 63720, Note_on_c, 0, 53, 0
1, 63720, Note_on_c, 0, 65, 0
1, 63720, Note_on_c, 0, 56, 0
1, 63720, Note_on_c, 0, 49, 0
1, 63840, Note_on_c, 0, 56, 61
1, 63840, Note_on_c, 0, 65, 72
1, 63840, Note_on_c, 0, 53, 66
1, 63840, Note_on_c, 0, 49, 56
1, 63960, Note_on_c, 0, 49, 0
1, 63960, Note_on_c, 0, 56, 0
1, 63960, Note_on_c, 0, 65, 0
1, 63960, Note_on_c, 0, 53, 0
1, 64080, Tempo, 502092
1, 64080, Note_on_c, 0, 56, 61
1, 64080, Note_on_c, 0, 65, 72
1, 64080, Note_on_c, 0, 49, 56
1, 64080, Note_on_c, 0, 53, 66
1, 64200, Note_on_c, 0, 53, 0
1, 64200, Note_on_c, 0, 56, 0
1, 64200, Note_on_c, 0, 65, 0
1, 64200, Note_on_c, 0, 49, 0
1, 64320, Tempo, 481928
1, 64320, Note_on_c, 0, 56, 61
1, 64320, Note_on_c, 0, 64, 78
1, 64320, Note_on_c, 0, 48, 58
1, 64320, Note_on_c, 0, 52, 69
1, 64348, Control_c, 0, 64, 127
1, 64560, Note_on_c, 0, 52, 0
1, 64560, Note_on_c, 0, 48, 0
1, 64560, Note_on_c, 0, 64, 0
1, 64560, Note_on_c, 0, 65, 69
1, 64560, Note_on_c, 0, 53, 65
1, 64560, Note_on_c, 0, 49, 55
1, 64569, Control_c, 0, 64, 0
1, 64680, Note_on_c, 0, 49, 0
1, 64680, Note_on_c, 0, 56, 0
1, 64680, Note_on_c, 0, 65, 0
1, 64680, Note_on_c, 0, 53, 0
1, 64800, Note_on_c, 0, 56, 58
1, 64800, Note_on_c, 0, 65, 69
1, 64800, Note_on_c, 0, 49, 55
1, 64800, Note_on_c, 0, 53, 65
1, 64920, Note_on_c, 0, 53, 0
1, 64920, Note_on_c, 0, 56, 0
1, 64920, Note_on_c, 0, 65, 0
1, 64920, Note_on_c, 0, 49, 0
1, 65040, Tempo, 504202
1, 65040, Note_on_c, 0, 56, 58
1, 65040, Note_on_c, 0, 65, 69
1, 65040, Note_on_c, 0, 49, 55
1, 65040, Note_on_c, 0, 53, 65
1, 65160, Note_on_c, 0, 53, 0
1, 65160, Note_on_c, 0, 56, 0
1, 65160, Note_on_c, 0, 65, 0
1, 65160, Note_on_c, 0, 49, 0
1, 65280, Tempo, 478088
1, 65280, Note_on_c, 0, 65, 72
1, 65280, Note_on_c, 0, 59, 61
1, 65280, Note_on_c, 0, 50, 57
1, 65280, Note_on_c, 0, 53, 68
1, 65640, Note_on_c, 0, 53, 0
1, 65640, Note_on_c, 0, 65, 0
1, 65640, Note_on_c, 0, 66, 64
1, 65640, Note_on_c, 0, 54, 60
1, 65700, Note_on_c, 0, 54, 0
1, 65700, Note_on_c, 0, 66, 0
1, 65700, Note_on_c, 0, 68, 62
1, 65700, Note_on_c, 0, 56, 57
1, 65760, Note_on_c, 0, 56, 0
1, 65760, Note_on_c, 0, 59, 0
1, 65760, Note_on_c, 0, 50, 0
1, 65760, Note_on_c, 0, 68, 0
1, 65760, Note_on_c, 0, 66, 72
1, 65760, Note_on_c, 0, 58, 61
1, 65760, Note_on_c, 0, 51, 57
1, 65760, Note_on_c, 0, 54, 68
1, 66000, Note_on_c, 0, 58, 0
1, 66120, Note_on_c, 0, 66, 0
1, 66120, Note_on_c, 0, 54, 0
1, 66120, Note_on_c, 0, 68, 65
1, 66120, Note_on_c, 0, 56, 62
1, 66180, Note_on_c, 0, 56, 0
1, 66180, Note_on_c, 0, 68, 0
1, 66180, Note_on_c, 0, 69, 62
1, 66180, Note_on_c, 0, 57, 59
1, 66202, Tempo, 459770
1, 66240, Note_on_c, 0, 57, 0
1, 66240, Note_on_c, 0, 69, 0
1, 66240, Note_on_c, 0, 51, 0
1, 66240, Note_on_c, 0, 68, 72
1, 66240, Note_on_c, 0, 66, 61
1, 66240, Note_on_c, 0, 60, 61
1, 66240, Note_on_c, 0, 44, 57
1, 66240, Note_on_c, 0, 51, 68
1, 66298, Tempo, 458015
1, 66360, Note_on_c, 0, 51, 0
1, 66360, Note_on_c, 0, 60, 0
1, 66360, Note_on_c, 0, 68, 0
1, 66360, Note_on_c, 0, 66, 0
1, 66360, Note_on_c, 0, 44, 0
1, 66394, Tempo, 456274
1, 66480, Note_on_c, 0, 72, 70
1, 66480, Note_on_c, 0, 56, 56
1, 66480, Note_on_c, 0, 66, 66
1, 66480, Note_on_c, 0, 63, 56
1, 66490, Tempo, 454545
1, 66526, Control_c, 0, 64, 127
1, 66586, Tempo, 452830
1, 66600, Note_on_c, 0, 72, 0
1, 66600, Note_on_c, 0, 75, 70
1, 66682, Tempo, 451128
1, 66720, Note_on_c, 0, 75, 0
1, 66720, Note_on_c, 0, 63, 0
1, 66720, Note_on_c, 0, 66, 0
1, 66720, Note_on_c, 0, 56, 0
1, 66720, Note_on_c, 0, 80, 67
1, 66720, Note_on_c, 0, 66, 66
1, 66720, Note_on_c, 0, 56, 56
1, 66720, Note_on_c, 0, 63, 56
1, 66778, Tempo, 449438
1, 66840, Note_on_c, 0, 80, 0
1, 66840, Note_on_c, 0, 84, 70
1, 66855, Tempo, 447761
1, 66874, Tempo, 449438
1, 66893, Tempo, 451128
1, 66913, Tempo, 452830
1, 66932, Tempo, 454545
1, 66951, Tempo, 456274
1, 66960, Note_on_c, 0, 84, 0
1, 66960, Note_on_c, 0, 63, 0
1, 66960, Note_on_c, 0, 56, 0
1, 66960, Note_on_c, 0, 66, 0
1, 66960, Note_on_c, 0, 87, 73
1, 66960, Note_on_c, 0, 56, 56
1, 66960, Note_on_c, 0, 66, 66
1, 66960, Note_on_c, 0, 63, 56
1, 66970, Tempo, 458015
1, 66989, Tempo, 459770
1, 67009, Tempo, 461538
1, 67028, Tempo, 463320
1, 67047, Tempo, 465116
1, 67066, Tempo, 466926
1, 67080, Note_on_c, 0, 87, 0
1, 67080, Note_on_c, 0, 92, 75
1, 67085, Tempo, 468750
1, 67105, Tempo, 470588
1, 67124, Tempo, 472441
1, 67143, Tempo, 474308
1, 67162, Tempo, 476190
1, 67181, Tempo, 478088
1, 67200, Tempo, 476190
1, 67200, Note_on_c, 0, 92, 0
1, 67200, Note_on_c, 0, 63, 0
1, 67200, Note_on_c, 0, 66, 0
1, 67200, Note_on_c, 0, 56, 0
1, 67200, Note_on_c, 0, 85, 78
1, 67200, Note_on_c, 0, 65, 72
1, 67200, Note_on_c, 0, 61, 61
1, 67210, Control_c, 0, 64, 0
1, 67440, Tempo, 481928
1, 67440, Note_on_c, 0, 61, 0
1, 67440, Note_on_c, 0, 65, 0
1, 67440, Note_on_c, 0, 85, 0
1, 67440, Note_on_c, 0, 65, 72
1, 67440, Note_on_c, 0, 56, 61
1, 67440, Note_on_c, 0, 53, 66
1, 67440, Note_on_c, 0, 49, 56
1, 67476, Control_c, 0, 64, 127
1, 67560, Note_on_c, 0, 49, 0
1, 67560, Note_on_c, 0, 65, 0
1, 67560, Note_on_c, 0, 56, 0
1, 67560, Note_on_c, 0, 53, 0
1, 67680, Note_on_c, 0, 56, 61
1, 67680, Note_on_c, 0, 65, 72
1, 67680, Note_on_c, 0, 53, 66
1, 67680, Note_on_c, 0, 49, 56
1, 67800, Note_on_c, 0, 49, 0
1, 67800, Note_on_c, 0, 56, 0
1, 67800, Note_on_c, 0, 65, 0
1, 67800, Note_on_c, 0, 53, 0
1, 67920, Tempo, 493827
1, 67920, Note_on_c, 0, 56, 61
1, 67920, Note_on_c, 0, 65, 72
1, 67920, Note_on_c, 0, 53, 66
1, 67920, Note_on_c, 0, 49, 56
1, 68040, Note_on_c, 0, 49, 0
1, 68040, Note_on_c, 0, 56, 0
1, 68040, Note_on_c, 0, 65, 0
1, 68040, Note_on_c, 0, 53, 0
1, 68160, Tempo, 481928
1, 68160, Note_on_c, 0, 64, 78
1, 68160, Note_on_c, 0, 56, 61
1, 68160, Note_on_c, 0, 48, 58
1, 68160, Note_on_c, 0, 52, 69
1, 68166, Control_c, 0, 64, 0
1, 68252, Control_c, 0, 64, 127
1, 68400, Note_on_c, 0, 52, 0
1, 68400, Note_on_c, 0, 48, 0
1, 68400, Note_on_c, 0, 64, 0
1, 68400, Note_on_c, 0, 65, 69
1, 68400, Note_on_c, 0, 49, 55
1, 68400, Note_on_c, 0, 53, 65
1, 68409, Control_c, 0, 64, 0
1, 68520, Note_on_c, 0, 53, 0
1, 68520, Note_on_c, 0, 56, 0
1, 68520, Note_on_c, 0, 65, 0
1, 68520, Note_on_c, 0, 49, 0
1, 68640, Note_on_c, 0, 56, 58
1, 68640, Note_on_c, 0, 65, 69
1, 68640, Note_on_c, 0, 49, 55
1, 68640, Note_on_c, 0, 53, 65
1, 68760, Note_on_c, 0, 53, 0
1, 68760, Note_on_c, 0, 56, 0
1, 68760, Note_on_c, 0, 65, 0
1, 68760, Note_on_c, 0, 49, 0
1, 68880, Tempo, 504202
1, 68880, Note_on_c, 0, 65, 69
1, 68880, Note_on_c, 0, 56, 58
1, 68880, Note_on_c, 0, 53, 65
1, 68880, Note_on_c, 0, 49, 55
1, 69000, Note_on_c, 0, 49, 0
1, 69000, Note_on_c, 0, 65, 0
1, 69000, Note_on_c, 0, 56, 0
1, 69000, Note_on_c, 0, 53, 0
1, 69120, Tempo, 472441
1, 69120, Note_on_c, 0, 62, 61
1, 69120, Note_on_c, 0, 65, 61
1, 69120, Note_on_c, 0, 71, 78
1, 69120, Note_on_c, 0, 56, 69
1, 69120, Note_on_c, 0, 47, 58
1, 69120, Note_on_c, 0, 53, 58
1, 69191, Control_c, 0, 64, 127
1, 69360, Tempo, 480000
1, 69360, Note_on_c, 0, 53, 0
1, 69360, Note_on_c, 0, 65, 0
1, 69360, Note_on_c, 0, 71, 0
1, 69360, Note_on_c, 0, 62, 0
1, 69360, Note_on_c, 0, 47, 0
1, 69360, Note_on_c, 0, 56, 0
1, 69360, Note_on_c, 0, 65, 58
1, 69360, Note_on_c, 0, 62, 58
1, 69360, Note_on_c, 0, 70, 69
1, 69360, Note_on_c, 0, 46, 55
1, 69360, Note_on_c, 0, 53, 55
1, 69360, Note_on_c, 0, 56, 65
1, 69369, Control_c, 0, 64, 0
1, 69480, Note_on_c, 0, 56, 0
1, 69480, Note_on_c, 0, 62, 0
1, 69480, Note_on_c, 0, 70, 0
1, 69480, Note_on_c, 0, 65, 0
1, 69480, Note_on_c, 0, 53, 0
1, 69480, Note_on_c, 0, 46, 0
1, 69600, Tempo, 472441
1, 69600, Note_on_c, 0, 62, 58
1, 69600, Note_on_c, 0, 70, 69
1, 69600, Note_on_c, 0, 65, 58
1, 69600, Note_on_c, 0, 56, 65
1, 69600, Note_on_c, 0, 53, 55
1, 69600, Note_on_c, 0, 46, 55
1, 69720, Note_on_c, 0, 46, 0
1, 69720, Note_on_c, 0, 70, 0
1, 69720, Note_on_c, 0, 65, 0
1, 69720, Note_on_c, 0, 62, 0
1, 69720, Note_on_c, 0, 53, 0
1, 69720, Note_on_c, 0, 56, 0
1, 69840, Tempo, 487805
1, 69840, Note_on_c, 0, 62, 58
1, 69840, Note_on_c, 0, 65, 58
1, 69840, Note_on_c, 0, 70, 69
1, 69840, Note_on_c, 0, 56, 65
1, 69840, Note_on_c, 0, 46, 55
1, 69840, Note_on_c, 0, 53, 55
1, 69960, Note_on_c, 0, 53, 0
1, 69960, Note_on_c, 0, 65, 0
1, 69960, Note_on_c, 0, 70, 0
1, 69960, Note_on_c, 0, 62, 0
1, 69960, Note_on_c, 0, 46, 0
1, 69960, Note_on_c, 0, 56, 0
1, 70080, Tempo, 459770
1, 70080, Note_on_c, 0, 63, 61
1, 70080, Note_on_c, 0, 67, 72
1, 70080, Note_on_c, 0, 51, 57
1, 70080, Note_on_c, 0, 55, 68
1, 70138, Tempo, 458015
1, 70200, Note_on_c, 0, 55, 0
1, 70200, Note_on_c, 0, 63, 0
1, 70200, Note_on_c, 0, 67, 0
1, 70200, Note_on_c, 0, 51, 0
1, 70234, Tempo, 456274
1, 70320, Note_on_c, 0, 67, 70
1, 70320, Note_on_c, 0, 63, 56
1, 70330, Tempo, 454545
1, 70366, Control_c, 0, 64, 127
1, 70426, Tempo, 452830
1, 70440, Note_on_c, 0, 70, 70
1, 70522, Tempo, 451128
1, 70560, Note_on_c, 0, 70, 0
1, 70560, Note_on_c, 0, 63, 0
1, 70560, Note_on_c, 0, 67, 0
1, 70560, Note_on_c, 0, 75, 67
1, 70560, Note_on_c, 0, 63, 56
1, 70560, Note_on_c, 0, 67, 66
1, 70618, Tempo, 449438
1, 70680, Note_on_c, 0, 75, 0
1, 70680, Note_on_c, 0, 79, 70
1, 70695, Tempo, 447761
1, 70714, Tempo, 449438
1, 70733, Tempo, 451128
1, 70753, Tempo, 452830
1, 70772, Tempo, 454545
1, 70791, Tempo, 456274
1, 70800, Note_on_c, 0, 79, 0
1, 70800, Note_on_c, 0, 67, 0
1, 70800, Note_on_c, 0, 63, 0
1, 70800, Note_on_c, 0, 82, 73
1, 70800, Note_on_c, 0, 63, 56
1, 70800, Note_on_c, 0, 67, 66
1, 70810, Tempo, 458015
1, 70829, Tempo, 459770
1, 70849, Tempo, 461538
1, 70868, Tempo, 463320
1, 70887, Tempo, 465116
1, 70906, Tempo, 466926
1, 70920, Note_on_c, 0, 82, 0
1, 70920, Note_on_c, 0, 87, 75
1, 70925, Tempo, 468750
1, 70945, Tempo, 470588
1, 70964, Tempo, 472441
1, 70983, Tempo, 474308
1, 71002, Tempo, 476190
1, 71021, Tempo, 478088
1, 71040, Tempo, 465116
1, 71040, Note_on_c, 0, 87, 0
1, 71040, Note_on_c, 0, 67, 0
1, 71040, Note_on_c, 0, 63, 0
1, 71040, Note_on_c, 0, 73, 78
1, 71040, Note_on_c, 0, 67, 61
1, 71040, Note_on_c, 0, 64, 61
1, 71040, Note_on_c, 0, 58, 69
1, 71040, Note_on_c, 0, 49, 58
1, 71040, Note_on_c, 0, 55, 58
1, 71046, Control_c, 0, 64, 0
1, 71110, Control_c, 0, 64, 127
1, 71280, Tempo, 476190
1, 71280, Note_on_c, 0, 55, 0
1, 71280, Note_on_c, 0, 67, 0
1, 71280, Note_on_c, 0, 64, 0
1, 71280, Note_on_c, 0, 73, 0
1, 71280, Note_on_c, 0, 49, 0
1, 71280, Note_on_c, 0, 58, 0
1, 71280, Note_on_c, 0, 72, 69
1, 71280, Note_on_c, 0, 67, 58
1, 71280, Note_on_c, 0, 64, 58
1, 71280, Note_on_c, 0, 55, 55
1, 71280, Note_on_c, 0, 58, 65
1, 71280, Note_on_c, 0, 48, 55
1, 71289, Control_c, 0, 64, 0
1, 71383, Control_c, 0, 64, 127
1, 71400, Note_on_c, 0, 48, 0
1, 71400, Note_on_c, 0, 67, 0
1, 71400, Note_on_c, 0, 64, 0
1, 71400, Note_on_c, 0, 72, 0
1, 71400, Note_on_c, 0, 58, 0
1, 71400, Note_on_c, 0, 55, 0
1, 71520, Tempo, 466926
1, 71520, Note_on_c, 0, 67, 58
1, 71520, Note_on_c, 0, 72, 69
1, 71520, Note_on_c, 0, 64, 58
1, 71520, Note_on_c, 0, 48, 55
1, 71520, Note_on_c, 0, 58, 65
1, 71520, Note_on_c, 0, 55, 55
1, 71640, Note_on_c, 0, 55, 0
1, 71640, Note_on_c, 0, 72, 0
1, 71640, Note_on_c, 0, 64, 0
1, 71640, Note_on_c, 0, 67, 0
1, 71640, Note_on_c, 0, 58, 0
1, 71640, Note_on_c, 0, 48, 0
1, 71760, Tempo, 504202
1, 71760, Note_on_c, 0, 67, 58
1, 71760, Note_on_c, 0, 64, 58
1, 71760, Note_on_c, 0, 72, 69
1, 71760, Note_on_c, 0, 48, 55
1, 71760, Note_on_c, 0, 58, 65
1, 71760, Note_on_c, 0, 55, 55
1, 71880, Note_on_c, 0, 55, 0
1, 71880, Note_on_c, 0, 64, 0
1, 71880, Note_on_c, 0, 72, 0
1, 71880, Note_on_c, 0, 67, 0
1, 71880, Note_on_c, 0, 58, 0
1, 71880, Note_on_c, 0, 48, 0
1, 72000, Tempo, 459770
1, 72000, Note_on_c, 0, 65, 61
1, 72000, Note_on_c, 0, 69, 72
1, 72000, Note_on_c, 0, 53, 57
1, 72000, Note_on_c, 0, 57, 68
1, 72013, Control_c, 0, 64, 0
1, 72058, Tempo, 458015
1, 72120, Note_on_c, 0, 57, 0
1, 72120, Note_on_c, 0, 65, 0
1, 72120, Note_on_c, 0, 69, 0
1, 72120, Note_on_c, 0, 53, 0
1, 72154, Tempo, 456274
1, 72240, Note_on_c, 0, 69, 70
1, 72240, Note_on_c, 0, 65, 56
1, 72250, Tempo, 454545
1, 72337, Control_c, 0, 64, 127
1, 72346, Tempo, 452830
1, 72360, Note_on_c, 0, 72, 70
1, 72442, Tempo, 451128
1, 72480, Note_on_c, 0, 72, 0
1, 72480, Note_on_c, 0, 65, 0
1, 72480, Note_on_c, 0, 69, 0
1, 72480, Note_on_c, 0, 77, 67
1, 72480, Note_on_c, 0, 69, 66
1, 72480, Note_on_c, 0, 65, 56
1, 72538, Tempo, 449438
1, 72600, Note_on_c, 0, 77, 0
1, 72600, Note_on_c, 0, 81, 70
1, 72615, Tempo, 447761
1, 72634, Tempo, 449438
1, 72653, Tempo, 451128
1, 72673, Tempo, 452830
1, 72692, Tempo, 454545
1, 72711, Tempo, 456274
1, 72720, Note_on_c, 0, 81, 0
1, 72720, Note_on_c, 0, 65, 0
1, 72720, Note_on_c, 0, 69, 0
1, 72720, Note_on_c, 0, 84, 73
1, 72720, Note_on_c, 0, 65, 56
1, 72720, Note_on_c, 0, 69, 66
1, 72730, Tempo, 458015
1, 72749, Tempo, 459770
1, 72769, Tempo, 461538
1, 72788, Tempo, 463320
1, 72807, Tempo, 465116
1, 72826, Tempo, 466926
1, 72840, Note_on_c, 0, 84, 0
1, 72840, Note_on_c, 0, 89, 75
1, 72845, Tempo, 468750
1, 72865, Tempo, 470588
1, 72884, Tempo, 472441
1, 72903, Tempo, 474308
1, 72922, Tempo, 476190
1, 72941, Tempo, 478088
1, 72960, Tempo, 517241
1, 72960, Note_on_c, 0, 89, 0
1, 72960, Note_on_c, 0, 69, 0
1, 72960, Note_on_c, 0, 65, 0
1, 72960, Note_on_c, 0, 78, 73
1, 72960, Note_on_c, 0, 90, 87
1, 72960, Note_on_c, 0, 54, 51
1, 72960, Note_on_c, 0, 66, 60
1, 72960, Control_c, 0, 64, 0
1, 72999, Control_c, 0, 64, 127
1, 73200, Tempo, 472441
1, 73200, Note_on_c, 0, 66, 0
1, 73200, Note_on_c, 0, 78, 0
1, 73200, Note_on_c, 0, 90, 0
1, 73200, Note_on_c, 0, 54, 0
1, 73200, Note_on_c, 0, 89, 75
1, 73200, Note_on_c, 0, 77, 63
1, 73200, Note_on_c, 0, 65, 52
1, 73200, Note_on_c, 0, 53, 44
1, 73243, Control_c, 0, 64, 0
1, 73380, Note_on_c, 0, 53, 0
1, 73380, Note_on_c, 0, 89, 0
1, 73380, Note_on_c, 0, 77, 0
1, 73380, Note_on_c, 0, 65, 0
1, 73440, Tempo, 459770
1, 73440, Note_on_c, 0, 77, 73
1, 73440, Note_on_c, 0, 89, 87
1, 73440, Note_on_c, 0, 53, 51
1, 73440, Note_on_c, 0, 65, 60
1, 73486, Control_c, 0, 64, 127
1, 73680, Tempo, 472441
1, 73680, Note_on_c, 0, 65, 0
1, 73680, Note_on_c, 0, 77, 0
1, 73680, Note_on_c, 0, 89, 0
1, 73680, Note_on_c, 0, 53, 0
1, 73680, Note_on_c, 0, 88, 75
1, 73680, Note_on_c, 0, 76, 63
1, 73680, Note_on_c, 0, 52, 44
1, 73680, Note_on_c, 0, 64, 52
1, 73758, Control_c, 0, 64, 0
1, 73860, Note_on_c, 0, 64, 0
1, 73860, Note_on_c, 0, 88, 0
1, 73860, Note_on_c, 0, 76, 0
1, 73860, Note_on_c, 0, 52, 0
1, 73920, Tempo, 458015
1, 73920, Note_on_c, 0, 88, 86
1, 73920, Note_on_c, 0, 76, 73
1, 73920, Note_on_c, 0, 64, 60
1, 73920, Note_on_c, 0, 52, 51
1, 73998, Control_c, 0, 64, 127
1, 74160, Tempo, 459770
1, 74160, Note_on_c, 0, 52, 0
1, 74160, Note_on_c, 0, 88, 0
1, 74160, Note_on_c, 0, 76, 0
1, 74160, Note_on_c, 0, 64, 0
1, 74160, Note_on_c, 0, 89, 70
1, 74160, Note_on_c, 0, 77, 59
1, 74160, Note_on_c, 0, 65, 49
1, 74160, Note_on_c, 0, 53, 41
1, 74224, Control_c, 0, 64, 0
1, 74340, Note_on_c, 0, 53, 0
1, 74340, Note_on_c, 0, 89, 0
1, 74340, Note_on_c, 0, 77, 0
1, 74340, Note_on_c, 0, 65, 0
1, 74400, Tempo, 452830
1, 74400, Note_on_c, 0, 89, 78
1, 74400, Note_on_c, 0, 77, 66
1, 74400, Note_on_c, 0, 65, 54
1, 74400, Note_on_c, 0, 53, 46
1, 74464, Control_c, 0, 64, 127
1, 74640, Tempo, 458015
1, 74640, Note_on_c, 0, 53, 0
1, 74640, Note_on_c, 0, 89, 0
1, 74640, Note_on_c, 0, 77, 0
1, 74640, Note_on_c, 0, 65, 0
1, 74640, Note_on_c, 0, 72, 59
1, 74640, Note_on_c, 0, 84, 70
1, 74640, Note_on_c, 0, 48, 41
1, 74640, Note_on_c, 0, 60, 49
1, 74739, Control_c, 0, 64, 0
1, 74820, Note_on_c, 0, 60, 0
1, 74820, Note_on_c, 0, 72, 0
1, 74820, Note_on_c, 0, 84, 0
1, 74820, Note_on_c, 0, 48, 0
1, 74880, Tempo, 441176
1, 74880, Note_on_c, 0, 82, 77
1, 74880, Note_on_c, 0, 70, 65
1, 74880, Note_on_c, 0, 46, 45
1, 74880, Note_on_c, 0, 58, 53
1, 74958, Control_c, 0, 64, 127
1, 75000, Tempo, 442804
1, 75120, Tempo, 454545
1, 75120, Note_on_c, 0, 58, 0
1, 75120, Note_on_c, 0, 82, 0
1, 75120, Note_on_c, 0, 70, 0
1, 75120, Note_on_c, 0, 46, 0
1, 75120, Note_on_c, 0, 81, 68
1, 75120, Note_on_c, 0, 69, 57
1, 75120, Note_on_c, 0, 45, 39
1, 75120, Note_on_c, 0, 57, 47
1, 75230, Control_c, 0, 64, 0
1, 75300, Note_on_c, 0, 57, 0
1, 75300, Note_on_c, 0, 81, 0
1, 75300, Note_on_c, 0, 69, 0
1, 75300, Note_on_c, 0, 45, 0
1, 75360, Tempo, 449438
1, 75360, Note_on_c, 0, 69, 57
1, 75360, Note_on_c, 0, 81, 68
1, 75360, Note_on_c, 0, 57, 47
1, 75360, Note_on_c, 0, 45, 39
1, 75434, Control_c, 0, 64, 127
1, 75600, Tempo, 472441
1, 75600, Note_on_c, 0, 45, 0
1, 75600, Note_on_c, 0, 69, 0
1, 75600, Note_on_c, 0, 81, 0
1, 75600, Note_on_c, 0, 57, 0
1, 75600, Note_on_c, 0, 79, 68
1, 75600, Note_on_c, 0, 67, 57
1, 75600, Note_on_c, 0, 55, 47
1, 75600, Note_on_c, 0, 43, 39
1, 75688, Control_c, 0, 64, 0
1, 75780, Note_on_c, 0, 43, 0
1, 75780, Note_on_c, 0, 79, 0
1, 75780, Note_on_c, 0, 67, 0
1, 75780, Note_on_c, 0, 55, 0
1, 75840, Tempo, 456274
1, 75840, Note_on_c, 0, 79, 74
1, 75840, Note_on_c, 0, 67, 62
1, 75840, Note_on_c, 0, 43, 43
1, 75840, Note_on_c, 0, 55, 51
1, 75921, Control_c, 0, 64, 127
1, 76080, Tempo, 463320
1, 76080, Note_on_c, 0, 55, 0
1, 76080, Note_on_c, 0, 79, 0
1, 76080, Note_on_c, 0, 67, 0
1, 76080, Note_on_c, 0, 43, 0
1, 76080, Note_on_c, 0, 77, 64
1, 76080, Note_on_c, 0, 65, 54
1, 76080, Note_on_c, 0, 41, 37
1, 76080, Note_on_c, 0, 53, 44
1, 76201, Note_on_c, 0, 53, 0
1, 76201, Note_on_c, 0, 77, 0
1, 76201, Note_on_c, 0, 65, 0
1, 76201, Note_on_c, 0, 41, 0
1, 76218, Control_c, 0, 64, 0
1, 76320, Tempo, 456274
1, 76320, Note_on_c, 0, 77, 67
1, 76320, Note_on_c, 0, 65, 56
1, 76320, Note_on_c, 0, 41, 39
1, 76320, Note_on_c, 0, 53, 46
1, 76441, Note_on_c, 0, 53, 0
1, 76441, Note_on_c, 0, 77, 0
1, 76441, Note_on_c, 0, 65, 0
1, 76441, Note_on_c, 0, 41, 0
1, 76560, Tempo, 476190
1, 76560, Note_on_c, 0, 65, 54
1, 76560, Note_on_c, 0, 77, 64
1, 76560, Note_on_c, 0, 41, 37
1, 76560, Note_on_c, 0, 53, 44
1, 76681, Note_on_c, 0, 53, 0
1, 76681, Note_on_c, 0, 65, 0
1, 76681, Note_on_c, 0, 77, 0
1, 76681, Note_on_c, 0, 41, 0
1, 76800, Tempo, 449438
1, 76800, Note_on_c, 0, 66, 58
1, 76800, Note_on_c, 0, 78, 69
1, 76800, Note_on_c, 0, 54, 48
1, 76800, Note_on_c, 0, 42, 40
1, 76839, Control_c, 0, 64, 127
1, 77040, Tempo, 461538
1, 77040, Note_on_c, 0, 42, 0
1, 77040, Note_on_c, 0, 66, 0
1, 77040, Note_on_c, 0, 78, 0
1, 77040, Note_on_c, 0, 54, 0
1, 77040, Note_on_c, 0, 65, 50
1, 77040, Note_on_c, 0, 77, 60
1, 77040, Note_on_c, 0, 53, 41
1, 77040, Note_on_c, 0, 41, 35
1, 77128, Control_c, 0, 64, 0
1, 77220, Note_on_c, 0, 41, 0
1, 77220, Note_on_c, 0, 65, 0
1, 77220, Note_on_c, 0, 77, 0
1, 77220, Note_on_c, 0, 53, 0
1, 77280, Tempo, 451128
1, 77280, Note_on_c, 0, 77, 69
1, 77280, Note_on_c, 0, 65, 58
1, 77280, Note_on_c, 0, 53, 48
1, 77280, Note_on_c, 0, 41, 40
1, 77326, Control_c, 0, 64, 127
1, 77520, Tempo, 459770
1, 77520, Note_on_c, 0, 41, 0
1, 77520, Note_on_c, 0, 77, 0
1, 77520, Note_on_c, 0, 65, 0
1, 77520, Note_on_c, 0, 53, 0
1, 77520, Note_on_c, 0, 76, 60
1, 77520, Note_on_c, 0, 64, 50
1, 77520, Note_on_c, 0, 52, 41
1, 77520, Note_on_c, 0, 40, 35
1, 77623, Control_c, 0, 64, 0
1, 77700, Note_on_c, 0, 40, 0
1, 77700, Note_on_c, 0, 76, 0
1, 77700, Note_on_c, 0, 64, 0
1, 77700, Note_on_c, 0, 52, 0
1, 77760, Tempo, 451128
1, 77760, Note_on_c, 0, 64, 58
1, 77760, Note_on_c, 0, 76, 68
1, 77760, Note_on_c, 0, 52, 48
1, 77760, Note_on_c, 0, 40, 40
1, 77838, Control_c, 0, 64, 127
1, 78000, Tempo, 459770
1, 78000, Note_on_c, 0, 40, 0
1, 78000, Note_on_c, 0, 64, 0
1, 78000, Note_on_c, 0, 76, 0
1, 78000, Note_on_c, 0, 52, 0
1, 78000, Note_on_c, 0, 65, 47
1, 78000, Note_on_c, 0, 77, 56
1, 78000, Note_on_c, 0, 53, 39
1, 78000, Note_on_c, 0, 41, 32
1, 78106, Control_c, 0, 64, 0
1, 78180, Note_on_c, 0, 41, 0
1, 78180, Note_on_c, 0, 65, 0
1, 78180, Note_on_c, 0, 77, 0
1, 78180, Note_on_c, 0, 53, 0
1, 78240, Tempo, 447761
1, 78240, Note_on_c, 0, 77, 62
1, 78240, Note_on_c, 0, 65, 52
1, 78240, Note_on_c, 0, 41, 36
1, 78240, Note_on_c, 0, 53, 43
1, 78304, Control_c, 0, 64, 127
1, 78480, Tempo, 458015
1, 78480, Note_on_c, 0, 53, 0
1, 78480, Note_on_c, 0, 77, 0
1, 78480, Note_on_c, 0, 65, 0
1, 78480, Note_on_c, 0, 41, 0
1, 78480, Note_on_c, 0, 72, 56
1, 78480, Note_on_c, 0, 60, 47
1, 78480, Note_on_c, 0, 48, 39
1, 78480, Note_on_c, 0, 36, 32
1, 78572, Control_c, 0, 64, 0
1, 78660, Note_on_c, 0, 36, 0
1, 78660, Note_on_c, 0, 72, 0
1, 78660, Note_on_c, 0, 60, 0
1, 78660, Note_on_c, 0, 48, 0
1, 78720, Tempo, 441176
1, 78720, Note_on_c, 0, 58, 49
1, 78720, Note_on_c, 0, 70, 57
1, 78720, Note_on_c, 0, 46, 39
1, 78720, Note_on_c, 0, 34, 34
1, 78798, Control_c, 0, 64, 127
1, 78840, Tempo, 442804
1, 78960, Tempo, 454545
1, 78960, Note_on_c, 0, 34, 0
1, 78960, Note_on_c, 0, 58, 0
1, 78960, Note_on_c, 0, 70, 0
1, 78960, Note_on_c, 0, 46, 0
1, 78960, Note_on_c, 0, 57, 42
1, 78960, Note_on_c, 0, 69, 50
1, 78960, Note_on_c, 0, 33, 29
1, 78960, Note_on_c, 0, 45, 34
1, 79045, Control_c, 0, 64, 0
1, 79140, Note_on_c, 0, 45, 0
1, 79140, Note_on_c, 0, 57, 0
1, 79140, Note_on_c, 0, 69, 0
1, 79140, Note_on_c, 0, 33, 0
1, 79200, Tempo, 444444
1, 79200, Note_on_c, 0, 57, 41
1, 79200, Note_on_c, 0, 69, 49
1, 79200, Note_on_c, 0, 33, 28
1, 79200, Note_on_c, 0, 45, 34
1, 79274, Control_c, 0, 64, 127
1, 79440, Tempo, 461538
1, 79440, Note_on_c, 0, 45, 0
1, 79440, Note_on_c, 0, 57, 0
1, 79440, Note_on_c, 0, 69, 0
1, 79440, Note_on_c, 0, 33, 0
1, 79440, Note_on_c, 0, 67, 48
1, 79440, Note_on_c, 0, 55, 40
1, 79440, Note_on_c, 0, 43, 33
1, 79440, Note_on_c, 0, 31, 27
1, 79571, Control_c, 0, 64, 0
1, 79620, Note_on_c, 0, 31, 0
1, 79620, Note_on_c, 0, 67, 0
1, 79620, Note_on_c, 0, 55, 0
1, 79620, Note_on_c, 0, 43, 0
1, 79680, Tempo, 451128
1, 79680, Note_on_c, 0, 67, 51
1, 79680, Note_on_c, 0, 55, 43
1, 79680, Note_on_c, 0, 43, 35
1, 79680, Note_on_c, 0, 31, 29
1, 79761, Control_c, 0, 64, 127
1, 79920, Tempo, 463320
1, 79920, Note_on_c, 0, 31, 0
1, 79920, Note_on_c, 0, 67, 0
1, 79920, Note_on_c, 0, 55, 0
1, 79920, Note_on_c, 0, 43, 0
1, 79920, Note_on_c, 0, 53, 36
1, 79920, Note_on_c, 0, 65, 43
1, 79920, Note_on_c, 0, 29, 24
1, 79920, Note_on_c, 0, 41, 30
1, 80041, Note_on_c, 0, 41, 0
1, 80041, Note_on_c, 0, 53, 0
1, 80041, Note_on_c, 0, 65, 0
1, 80041, Note_on_c, 0, 29, 0
1, 80058, Control_c, 0, 64, 0
1, 80160, Tempo, 451128
1, 80160, Note_on_c, 0, 53, 36
1, 80160, Note_on_c, 0, 65, 44
1, 80160, Note_on_c, 0, 41, 30
1, 80160, Note_on_c, 0, 29, 26
1, 80281, Note_on_c, 0, 29, 0
1, 80281, Note_on_c, 0, 53, 0
1, 80281, Note_on_c, 0, 65, 0
1, 80281, Note_on_c, 0, 41, 0
1, 80400, Tempo, 466926
1, 80400, Note_on_c, 0, 53, 35
1, 80400, Note_on_c, 0, 65, 41
1, 80400, Note_on_c, 0, 41, 28
1, 80400, Note_on_c, 0, 29, 23
1, 80521, Note_on_c, 0, 29, 0
1, 80521, Note_on_c, 0, 53, 0
1, 80521, Note_on_c, 0, 65, 0
1, 80521, Note_on_c, 0, 41, 0
1, 80640, Tempo, 451128
1, 80640, Note_on_c, 0, 53, 32
1, 80640, Note_on_c, 0, 65, 39
1, 80640, Note_on_c, 0, 41, 27
1, 80760, Control_c, 0, 64, 127
1, 80761, Note_on_c, 0, 41, 0
1, 80761, Note_on_c, 0, 65, 0
1, 80761, Note_on_c, 0, 53, 0
1, 80880, Tempo, 466926
1, 80880, Note_on_c, 0, 65, 36
1, 80880, Note_on_c, 0, 53, 31
1, 80880, Note_on_c, 0, 41, 25
1, 81001, Note_on_c, 0, 41, 0
1, 81001, Note_on_c, 0, 53, 0
1, 81001, Note_on_c, 0, 65, 0
1, 81120, Tempo, 451128
1, 81120, Note_on_c, 0, 53, 32
1, 81120, Note_on_c, 0, 65, 39
1, 81120, Note_on_c, 0, 41, 27
1, 81241, Note_on_c, 0, 41, 0
1, 81241, Note_on_c, 0, 65, 0
1, 81241, Note_on_c, 0, 53, 0
1, 81360, Tempo, 466926
1, 81360, Note_on_c, 0, 53, 31
1, 81360, Note_on_c, 0, 65, 36
1, 81360, Note_on_c, 0, 41, 25
1, 81481, Note_on_c, 0, 41, 0
1, 81481, Note_on_c, 0, 65, 0
1, 81481, Note_on_c, 0, 53, 0
1, 81600, Tempo, 451128
1, 81600, Note_on_c, 0, 65, 39
1, 81600, Note_on_c, 0, 53, 32
1, 81600, Note_on_c, 0, 41, 27
1, 81721, Note_on_c, 0, 41, 0
1, 81721, Note_on_c, 0, 53, 0
1, 81721, Note_on_c, 0, 65, 0
1, 81840, Tempo, 476190
1, 81840, Note_on_c, 0, 53, 31
1, 81840, Note_on_c, 0, 65, 36
1, 81840, Note_on_c, 0, 41, 25
1, 81961, Note_on_c, 0, 41, 0
1, 81961, Note_on_c, 0, 65, 0
1, 81961, Note_on_c, 0, 53, 0
1, 82080, Tempo, 463320
1, 82080, Note_on_c, 0, 65, 39
1, 82080, Note_on_c, 0, 53, 32
1, 82080, Note_on_c, 0, 41, 27
1, 82201, Note_on_c, 0, 41, 0
1, 82201, Note_on_c, 0, 53, 0
1, 82201, Note_on_c, 0, 65, 0
1, 82320, Tempo, 493827
1, 82320, Note_on_c, 0, 65, 36
1, 82320, Note_on_c, 0, 53, 31
1, 82320, Note_on_c, 0, 41, 25
1, 82441, Note_on_c, 0, 41, 0
1, 82441, Note_on_c, 0, 53, 0
1, 82441, Note_on_c, 0, 65, 0
1, 82560, Tempo, 476190
1, 82560, Note_on_c, 0, 58, 21
1, 82560, Note_on_c, 0, 64, 33
1, 82560, Note_on_c, 0, 55, 21
1, 82560, Note_on_c, 0, 61, 21
1, 82560, Note_on_c, 0, 52, 22
1, 82571, Control_c, 0, 64, 0
1, 82649, Control_c, 0, 64, 127
1, 82800, Tempo, 500000
1, 82800, Note_on_c, 0, 52, 0
1, 82800, Note_on_c, 0, 64, 0
1, 82800, Note_on_c, 0, 63, 30
1, 82800, Note_on_c, 0, 51, 21
1, 82870, Control_c, 0, 64, 0
1, 82921, Note_on_c, 0, 51, 0
1, 82921, Note_on_c, 0, 63, 0
1, 83040, Tempo, 480000
1, 83040, Note_on_c, 0, 61, 0
1, 83040, Note_on_c, 0, 55, 0
1, 83040, Note_on_c, 0, 58, 0
1, 83040, Note_on_c, 0, 63, 33
1, 83040, Note_on_c, 0, 58, 21
1, 83040, Note_on_c, 0, 55, 21
1, 83040, Note_on_c, 0, 61, 21
1, 83040, Note_on_c, 0, 51, 22
1, 83160, Note_on_c, 0, 55, 0
1, 83160, Note_on_c, 0, 58, 0
1, 83161, Note_on_c, 0, 63, 0
1, 83161, Note_on_c, 0, 61, 0
1, 83161, Note_on_c, 0, 51, 0
1, 83274, Tempo, 478088
1, 83280, Note_on_c, 0, 63, 30
1, 83280, Note_on_c, 0, 61, 20
1, 83280, Note_on_c, 0, 55, 20
1, 83280, Note_on_c, 0, 58, 20
1, 83280, Note_on_c, 0, 51, 21
1, 83282, Tempo, 480000
1, 83306, Tempo, 481928
1, 83330, Tempo, 483871
1, 83354, Tempo, 485830
1, 83378, Tempo, 487805
1, 83390, Tempo, 489796
1, 83400, Note_on_c, 0, 58, 0
1, 83400, Note_on_c, 0, 55, 0
1, 83401, Note_on_c, 0, 63, 0
1, 83401, Note_on_c, 0, 61, 0
1, 83401, Note_on_c, 0, 51, 0
1, 83414, Tempo, 491803
1, 83438, Tempo, 493827
1, 83462, Tempo, 495868
1, 83486, Tempo, 497925
1, 83498, Tempo, 500000
1, 83520, Note_on_c, 0, 61, 21
1, 83520, Note_on_c, 0, 63, 33
1, 83520, Note_on_c, 0, 55, 21
1, 83520, Note_on_c, 0, 58, 21
1, 83520, Note_on_c, 0, 51, 22
1, 83522, Tempo, 502092
1, 83546, Tempo, 504202
1, 83570, Tempo, 506329
1, 83594, Tempo, 508475
1, 83606, Tempo, 510638
1, 83615, Control_c, 0, 64, 127
1, 83630, Tempo, 512821
1, 83640, Note_on_c, 0, 58, 0
1, 83640, Note_on_c, 0, 55, 0
1, 83641, Note_on_c, 0, 61, 0
1, 83641, Note_on_c, 0, 63, 0
1, 83641, Note_on_c, 0, 51, 0
1, 83654, Tempo, 515021
1, 83678, Tempo, 517241
1, 83690, Tempo, 519481
1, 83714, Tempo, 521739
1, 83738, Tempo, 524017
1, 83760, Note_on_c, 0, 61, 20
1, 83760, Note_on_c, 0, 58, 20
1, 83760, Note_on_c, 0, 55, 20
1, 83760, Note_on_c, 0, 63, 30
1, 83760, Note_on_c, 0, 51, 21
1, 83762, Tempo, 526316
1, 83786, Tempo, 528634
1, 83798, Tempo, 530973
1, 83822, Tempo, 533333
1, 83846, Tempo, 535714
1, 83870, Tempo, 538117
1, 83880, Note_on_c, 0, 55, 0
1, 83880, Note_on_c, 0, 58, 0
1, 83881, Note_on_c, 0, 61, 0
1, 83881, Note_on_c, 0, 63, 0
1, 83881, Note_on_c, 0, 51, 0
1, 83894, Tempo, 540541
1, 83906, Tempo, 542986
1, 83930, Tempo, 545455
1, 83954, Tempo, 547945
1, 83978, Tempo, 550459
1, 83990, Tempo, 552995
1, 84000, Note_on_c, 0, 63, 33
1, 84000, Note_on_c, 0, 58, 21
1, 84000, Note_on_c, 0, 55, 21
1, 84000, Note_on_c, 0, 61, 21
1, 84000, Note_on_c, 0, 51, 22
1, 84026, Tempo, 550459
1, 84074, Tempo, 552995
1, 84110, Tempo, 555556
1, 84120, Note_on_c, 0, 55, 0
1, 84120, Note_on_c, 0, 58, 0
1, 84121, Note_on_c, 0, 63, 0
1, 84121, Note_on_c, 0, 61, 0
1, 84121, Note_on_c, 0, 51, 0
1, 84146, Tempo, 558140
1, 84182, Tempo, 560748
1, 84230, Tempo, 563380
1, 84240, Note_on_c, 0, 55, 20
1, 84240, Note_on_c, 0, 61, 20
1, 84240, Note_on_c, 0, 58, 20
1, 84240, Note_on_c, 0, 63, 30
1, 84240, Note_on_c, 0, 51, 21
1, 84266, Tempo, 566038
1, 84302, Tempo, 568720
1, 84338, Tempo, 571429
1, 84360, Tempo, 618557
1, 84360, Note_on_c, 0, 58, 0
1, 84360, Note_on_c, 0, 55, 0
1, 84361, Note_on_c, 0, 61, 0
1, 84361, Note_on_c, 0, 63, 0
1, 84361, Note_on_c, 0, 51, 0
1, 84480, Tempo, 558140
1, 84480, Marker_t, "Sempre legato"
1, 84480, Note_on_c, 0, 56, 28
1, 84480, Note_on_c, 0, 60, 28
1, 84480, Note_on_c, 0, 63, 35
1, 84480, Note_on_c, 0, 44, 33
1, 84480, Control_c, 0, 64, 0
1, 84576, Control_c, 0, 64, 127
1, 84720, Tempo, 519481
1, 84720, Note_on_c, 0, 63, 0
1, 84720, Note_on_c, 0, 56, 0
1, 84720, Note_on_c, 0, 60, 0
1, 84720, Note_on_c, 0, 68, 23
1, 84720, Note_on_c, 0, 63, 23
1, 84720, Note_on_c, 0, 72, 29
1, 84720, Note_on_c, 0, 51, 25
1, 84900, Note_on_c, 0, 51, 0
1, 84900, Note_on_c, 0, 63, 0
1, 84900, Note_on_c, 0, 72, 0
1, 84900, Note_on_c, 0, 68, 0
1, 84960, Note_on_c, 0, 68, 23
1, 84960, Note_on_c, 0, 63, 23
1, 84960, Note_on_c, 0, 72, 29
1, 84960, Note_on_c, 0, 51, 25
1, 85140, Note_on_c, 0, 51, 0
1, 85140, Note_on_c, 0, 63, 0
1, 85140, Note_on_c, 0, 72, 0
1, 85140, Note_on_c, 0, 68, 0
1, 85200, Tempo, 530973
1, 85200, Note_on_c, 0, 63, 23
1, 85200, Note_on_c, 0, 68, 23
1, 85200, Note_on_c, 0, 72, 29
1, 85200, Note_on_c, 0, 51, 25
1, 85380, Note_on_c, 0, 51, 0
1, 85380, Note_on_c, 0, 68, 0
1, 85380, Note_on_c, 0, 72, 0
1, 85380, Note_on_c, 0, 63, 0
1, 85440, Tempo, 528634
1, 85440, Note_on_c, 0, 71, 33
1, 85440, Note_on_c, 0, 68, 26
1, 85440, Note_on_c, 0, 62, 26
1, 85440, Note_on_c, 0, 51, 33
1, 85450, Control_c, 0, 64, 0
1, 85680, Note_on_c, 0, 51, 0
1, 85680, Note_on_c, 0, 68, 0
1, 85680, Note_on_c, 0, 62, 0
1, 85680, Note_on_c, 0, 71, 0
1, 85680, Note_on_c, 0, 72, 28
1, 85680, Note_on_c, 0, 63, 22
1, 85680, Note_on_c, 0, 68, 22
1, 85680, Note_on_c, 0, 56, 26
1, 85694, Control_c, 0, 64, 127
1, 85860, Note_on_c, 0, 56, 0
1, 85860, Note_on_c, 0, 63, 0
1, 85860, Note_on_c, 0, 68, 0
1, 85860, Note_on_c, 0, 72, 0
1, 85920, Note_on_c, 0, 72, 31
1, 85920, Note_on_c, 0, 68, 24
1, 85920, Note_on_c, 0, 63, 24
1, 85920, Note_on_c, 0, 56, 27
1, 85931, Control_c, 0, 64, 0
1, 85987, Control_c, 0, 64, 127
1, 86100, Note_on_c, 0, 56, 0
1, 86100, Note_on_c, 0, 68, 0
1, 86100, Note_on_c, 0, 63, 0
1, 86100, Note_on_c, 0, 72, 0
1, 86160, Tempo, 540541
1, 86160, Note_on_c, 0, 68, 27
1, 86160, Note_on_c, 0, 72, 34
1, 86160, Note_on_c, 0, 63, 27
1, 86160, Note_on_c, 0, 56, 29
1, 86340, Note_on_c, 0, 56, 0
1, 86340, Note_on_c, 0, 72, 0
1, 86340, Note_on_c, 0, 63, 0
1, 86340, Note_on_c, 0, 68, 0
1, 86400, Tempo, 576923
1, 86400, Note_on_c, 0, 44, 0
1, 86400, Note_on_c, 0, 75, 38
1, 86400, Note_on_c, 0, 68, 30
1, 86400, Note_on_c, 0, 66, 30
1, 86400, Note_on_c, 0, 49, 38
1, 86400, Control_c, 0, 64, 0
1, 86640, Tempo, 504202
1, 86640, Note_on_c, 0, 66, 0
1, 86640, Note_on_c, 0, 75, 0
1, 86640, Note_on_c, 0, 68, 0
1, 86640, Note_on_c, 0, 73, 32
1, 86640, Note_on_c, 0, 65, 25
1, 86640, Note_on_c, 0, 68, 25
1, 86640, Note_on_c, 0, 56, 25
1, 86679, Control_c, 0, 64, 127
1, 86820, Note_on_c, 0, 56, 0
1, 86820, Note_on_c, 0, 65, 0
1, 86820, Note_on_c, 0, 68, 0
1, 86820, Note_on_c, 0, 73, 0
1, 86880, Tempo, 515021
1, 86880, Note_on_c, 0, 68, 25
1, 86880, Note_on_c, 0, 73, 32
1, 86880, Note_on_c, 0, 65, 25
1, 86880, Note_on_c, 0, 56, 25
1, 86884, Control_c, 0, 64, 0
1, 86951, Control_c, 0, 64, 127
1, 87060, Note_on_c, 0, 56, 0
1, 87060, Note_on_c, 0, 73, 0
1, 87060, Note_on_c, 0, 65, 0
1, 87060, Note_on_c, 0, 68, 0
1, 87120, Tempo, 535714
1, 87120, Note_on_c, 0, 65, 25
1, 87120, Note_on_c, 0, 68, 25
1, 87120, Note_on_c, 0, 73, 32
1, 87120, Note_on_c, 0, 56, 27
1, 87300, Note_on_c, 0, 56, 0
1, 87300, Note_on_c, 0, 68, 0
1, 87300, Note_on_c, 0, 73, 0
1, 87300, Note_on_c, 0, 65, 0
1, 87360, Tempo, 519481
1, 87360, Note_on_c, 0, 73, 33
1, 87360, Note_on_c, 0, 65, 20
1, 87360, Note_on_c, 0, 68, 26
1, 87360, Note_on_c, 0, 56, 33
1, 87369, Control_c, 0, 64, 0
1, 87434, Control_c, 0, 64, 127
1, 87600, Note_on_c, 0, 56, 0
1, 87600, Note_on_c, 0, 65, 0
1, 87600, Note_on_c, 0, 68, 0
1, 87600, Note_on_c, 0, 73, 0
1, 87600, Note_on_c, 0, 72, 30
1, 87600, Note_on_c, 0, 65, 24
1, 87600, Note_on_c, 0, 63, 24
1, 87600, Note_on_c, 0, 57, 27
1, 87610, Control_c, 0, 64, 0
1, 87692, Control_c, 0, 64, 127
1, 87840, Note_on_c, 0, 57, 0
1, 87840, Note_on_c, 0, 65, 0
1, 87840, Note_on_c, 0, 63, 0
1, 87840, Note_on_c, 0, 72, 0
1, 87840, Note_on_c, 0, 65, 24
1, 87840, Note_on_c, 0, 70, 30
1, 87840, Note_on_c, 0, 61, 24
1, 87840, Note_on_c, 0, 58, 27
1, 87850, Control_c, 0, 64, 0
1, 87943, Control_c, 0, 64, 127
1, 88080, Tempo, 535714
1, 88080, Note_on_c, 0, 58, 0
1, 88080, Note_on_c, 0, 70, 0
1, 88080, Note_on_c, 0, 49, 0
1, 88080, Note_on_c, 0, 65, 0
1, 88080, Note_on_c, 0, 61, 0
1, 88080, Note_on_c, 0, 68, 30
1, 88080, Note_on_c, 0, 65, 24
1, 88080, Note_on_c, 0, 60, 24
1, 88080, Note_on_c, 0, 50, 27
1, 88080, Note_on_c, 0, 53, 27
1, 88090, Control_c, 0, 64, 0
1, 88186, Control_c, 0, 64, 127
1, 88320, Tempo, 528634
1, 88320, Note_on_c, 0, 53, 0
1, 88320, Note_on_c, 0, 60, 0
1, 88320, Note_on_c, 0, 68, 0
1, 88320, Note_on_c, 0, 65, 0
1, 88320, Note_on_c, 0, 50, 0
1, 88320, Note_on_c, 0, 63, 28
1, 88320, Note_on_c, 0, 60, 28
1, 88320, Note_on_c, 0, 68, 35
1, 88320, Note_on_c, 0, 39, 33
1, 88320, Control_c, 0, 64, 0
1, 88560, Tempo, 519481
1, 88560, Note_on_c, 0, 68, 0
1, 88560, Note_on_c, 0, 63, 0
1, 88560, Note_on_c, 0, 60, 0
1, 88560, Note_on_c, 0, 67, 29
1, 88560, Note_on_c, 0, 58, 23
1, 88560, Note_on_c, 0, 63, 23
1, 88560, Note_on_c, 0, 51, 25
1, 88581, Control_c, 0, 64, 127
1, 88740, Note_on_c, 0, 51, 0
1, 88740, Note_on_c, 0, 58, 0
1, 88740, Note_on_c, 0, 63, 0
1, 88740, Note_on_c, 0, 67, 0
1, 88800, Note_on_c, 0, 67, 29
1, 88800, Note_on_c, 0, 58, 23
1, 88800, Note_on_c, 0, 63, 23
1, 88800, Note_on_c, 0, 51, 25
1, 88809, Control_c, 0, 64, 0
1, 88874, Control_c, 0, 64, 127
1, 88980, Note_on_c, 0, 51, 0
1, 88980, Note_on_c, 0, 58, 0
1, 88980, Note_on_c, 0, 63, 0
1, 88980, Note_on_c, 0, 67, 0
1, 89040, Tempo, 530973
1, 89040, Note_on_c, 0, 63, 23
1, 89040, Note_on_c, 0, 67, 29
1, 89040, Note_on_c, 0, 58, 23
1, 89040, Note_on_c, 0, 51, 25
1, 89220, Note_on_c, 0, 51, 0
1, 89220, Note_on_c, 0, 67, 0
1, 89220, Note_on_c, 0, 58, 0
1, 89220, Note_on_c, 0, 63, 0
1, 89280, Tempo, 528634
1, 89280, Note_on_c, 0, 58, 26
1, 89280, Note_on_c, 0, 67, 33
1, 89280, Note_on_c, 0, 63, 26
1, 89280, Note_on_c, 0, 51, 33
1, 89460, Note_on_c, 0, 51, 0
1, 89460, Note_on_c, 0, 67, 0
1, 89460, Note_on_c, 0, 63, 0
1, 89460, Note_on_c, 0, 58, 0
1, 89520, Tempo, 538117
1, 89520, Note_on_c, 0, 63, 22
1, 89520, Note_on_c, 0, 67, 28
1, 89520, Note_on_c, 0, 58, 22
1, 89520, Note_on_c, 0, 51, 26
1, 89700, Note_on_c, 0, 51, 0
1, 89700, Note_on_c, 0, 67, 0
1, 89700, Note_on_c, 0, 58, 0
1, 89700, Note_on_c, 0, 63, 0
1, 89760, Tempo, 547945
1, 89760, Note_on_c, 0, 63, 24
1, 89760, Note_on_c, 0, 60, 24
1, 89760, Note_on_c, 0, 68, 31
1, 89760, Note_on_c, 0, 51, 27
1, 89771, Control_c, 0, 64, 0
1, 89827, Control_c, 0, 64, 127
1, 90000, Tempo, 563380
1, 90000, Note_on_c, 0, 51, 0
1, 90000, Note_on_c, 0, 60, 0
1, 90000, Note_on_c, 0, 68, 0
1, 90000, Note_on_c, 0, 63, 0
1, 90000, Note_on_c, 0, 70, 34
1, 90000, Note_on_c, 0, 61, 27
1, 90000, Note_on_c, 0, 63, 27
1, 90000, Note_on_c, 0, 51, 29
1, 90240, Tempo, 582524
1, 90240, Note_on_c, 0, 51, 0
1, 90240, Note_on_c, 0, 61, 0
1, 90240, Note_on_c, 0, 39, 0
1, 90240, Note_on_c, 0, 70, 0
1, 90240, Note_on_c, 0, 63, 0
1, 90240, Note_on_c, 0, 61, 30
1, 90240, Note_on_c, 0, 63, 38
1, 90240, Note_on_c, 0, 44, 38
1, 90240, Control_c, 0, 64, 0
1, 90480, Tempo, 504202
1, 90480, Note_on_c, 0, 63, 0
1, 90480, Note_on_c, 0, 61, 0
1, 90480, Note_on_c, 0, 68, 32
1, 90480, Note_on_c, 0, 63, 25
1, 90480, Note_on_c, 0, 60, 25
1, 90480, Note_on_c, 0, 51, 25
1, 90533, Control_c, 0, 64, 127
1, 90660, Note_on_c, 0, 51, 0
1, 90660, Note_on_c, 0, 63, 0
1, 90660, Note_on_c, 0, 60, 0
1, 90660, Note_on_c, 0, 68, 0
1, 90720, Tempo, 515021
1, 90720, Note_on_c, 0, 63, 25
1, 90720, Note_on_c, 0, 60, 25
1, 90720, Note_on_c, 0, 68, 32
1, 90720, Note_on_c, 0, 51, 25
1, 90900, Note_on_c, 0, 51, 0
1, 90900, Note_on_c, 0, 60, 0
1, 90900, Note_on_c, 0, 68, 0
1, 90900, Note_on_c, 0, 63, 0
1, 90960, Tempo, 535714
1, 90960, Note_on_c, 0, 68, 32
1, 90960, Note_on_c, 0, 63, 25
1, 90960, Note_on_c, 0, 60, 25
1, 90960, Note_on_c, 0, 51, 27
1, 91140, Note_on_c, 0, 51, 0
1, 91140, Note_on_c, 0, 63, 0
1, 91140, Note_on_c, 0, 60, 0
1, 91140, Note_on_c, 0, 68, 0
1, 91200, Tempo, 519481
1, 91200, Note_on_c, 0, 60, 20
1, 91200, Note_on_c, 0, 68, 33
1, 91200, Note_on_c, 0, 63, 26
1, 91200, Note_on_c, 0, 51, 33
1, 91380, Note_on_c, 0, 51, 0
1, 91380, Note_on_c, 0, 68, 0
1, 91380, Note_on_c, 0, 63, 0
1, 91380, Note_on_c, 0, 60, 0
1, 91440, Tempo, 566038
1, 91440, Note_on_c, 0, 63, 24
1, 91440, Note_on_c, 0, 60, 24
1, 91440, Note_on_c, 0, 68, 30
1, 91440, Note_on_c, 0, 51, 27
1, 91620, Note_on_c, 0, 51, 0
1, 91620, Note_on_c, 0, 60, 0
1, 91620, Note_on_c, 0, 68, 0
1, 91620, Note_on_c, 0, 63, 0
1, 91680, Tempo, 519481
1, 91680, Note_on_c, 0, 44, 0
1, 91680, Note_on_c, 0, 68, 30
1, 91680, Note_on_c, 0, 51, 27
1, 91680, Note_on_c, 0, 44, 27
1, 91690, Control_c, 0, 64, 0
1, 91740, Note_on_c, 0, 72, 42
1, 91740, Note_on_c, 0, 63, 35
1, 91783, Control_c, 0, 64, 127
1, 91920, Tempo, 545455
1, 91920, Note_on_c, 0, 44, 0
1, 91920, Note_on_c, 0, 51, 0
1, 91920, Note_on_c, 0, 51, 27
1, 91920, Note_on_c, 0, 48, 27
1, 92040, Note_on_c, 0, 68, 0
1, 92040, Note_on_c, 0, 63, 0
1, 92040, Note_on_c, 0, 72, 0
1, 92040, Note_on_c, 0, 63, 24
1, 92040, Note_on_c, 0, 60, 24
1, 92040, Note_on_c, 0, 68, 30
1, 92160, Tempo, 579710
1, 92160, Note_on_c, 0, 68, 0
1, 92160, Note_on_c, 0, 63, 0
1, 92160, Note_on_c, 0, 48, 0
1, 92160, Note_on_c, 0, 51, 0
1, 92160, Note_on_c, 0, 60, 0
1, 92160, Note_on_c, 0, 60, 28
1, 92160, Note_on_c, 0, 68, 35
1, 92160, Note_on_c, 0, 63, 28
1, 92160, Note_on_c, 0, 39, 33
1, 92160, Control_c, 0, 64, 0
1, 92400, Tempo, 533333
1, 92400, Note_on_c, 0, 63, 0
1, 92400, Note_on_c, 0, 60, 0
1, 92400, Note_on_c, 0, 68, 0
1, 92400, Note_on_c, 0, 63, 23
1, 92400, Note_on_c, 0, 58, 23
1, 92400, Note_on_c, 0, 67, 29
1, 92400, Note_on_c, 0, 51, 25
1, 92446, Control_c, 0, 64, 127
1, 92580, Note_on_c, 0, 51, 0
1, 92580, Note_on_c, 0, 58, 0
1, 92580, Note_on_c, 0, 67, 0
1, 92580, Note_on_c, 0, 63, 0
1, 92640, Tempo, 524017
1, 92640, Note_on_c, 0, 58, 23
1, 92640, Note_on_c, 0, 63, 23
1, 92640, Note_on_c, 0, 67, 29
1, 92640, Note_on_c, 0, 51, 25
1, 92820, Note_on_c, 0, 51, 0
1, 92820, Note_on_c, 0, 63, 0
1, 92820, Note_on_c, 0, 67, 0
1, 92820, Note_on_c, 0, 58, 0
1, 92880, Tempo, 530973
1, 92880, Note_on_c, 0, 67, 29
1, 92880, Note_on_c, 0, 63, 23
1, 92880, Note_on_c, 0, 58, 23
1, 92880, Note_on_c, 0, 51, 25
1, 93060, Note_on_c, 0, 51, 0
1, 93060, Note_on_c, 0, 63, 0
1, 93060, Note_on_c, 0, 58, 0
1, 93060, Note_on_c, 0, 67, 0
1, 93120, Tempo, 528634
1, 93120, Note_on_c, 0, 67, 33
1, 93120, Note_on_c, 0, 58, 26
1, 93120, Note_on_c, 0, 63, 26
1, 93120, Note_on_c, 0, 51, 33
1, 93300, Note_on_c, 0, 51, 0
1, 93300, Note_on_c, 0, 58, 0
1, 93300, Note_on_c, 0, 63, 0
1, 93300, Note_on_c, 0, 67, 0
1, 93360, Tempo, 533333
1, 93360, Note_on_c, 0, 63, 22
1, 93360, Note_on_c, 0, 67, 28
1, 93360, Note_on_c, 0, 58, 22
1, 93360, Note_on_c, 0, 51, 26
1, 93540, Note_on_c, 0, 51, 0
1, 93540, Note_on_c, 0, 67, 0
1, 93540, Note_on_c, 0, 58, 0
1, 93540, Note_on_c, 0, 63, 0
1, 93600, Tempo, 540541
1, 93600, Note_on_c, 0, 60, 24
1, 93600, Note_on_c, 0, 63, 24
1, 93600, Note_on_c, 0, 68, 31
1, 93600, Note_on_c, 0, 51, 27
1, 93611, Control_c, 0, 64, 0
1, 93667, Control_c, 0, 64, 127
1, 93840, Tempo, 558140
1, 93840, Note_on_c, 0, 51, 0
1, 93840, Note_on_c, 0, 63, 0
1, 93840, Note_on_c, 0, 68, 0
1, 93840, Note_on_c, 0, 60, 0
1, 93840, Note_on_c, 0, 70, 34
1, 93840, Note_on_c, 0, 61, 27
1, 93840, Note_on_c, 0, 63, 27
1, 93840, Note_on_c, 0, 51, 29
1, 94080, Tempo, 552995
1, 94080, Note_on_c, 0, 51, 0
1, 94080, Note_on_c, 0, 61, 0
1, 94080, Note_on_c, 0, 39, 0
1, 94080, Note_on_c, 0, 70, 0
1, 94080, Note_on_c, 0, 63, 0
1, 94080, Note_on_c, 0, 61, 30
1, 94080, Note_on_c, 0, 63, 38
1, 94080, Note_on_c, 0, 44, 38
1, 94080, Control_c, 0, 64, 0
1, 94320, Tempo, 504202
1, 94320, Note_on_c, 0, 63, 0
1, 94320, Note_on_c, 0, 61, 0
1, 94320, Note_on_c, 0, 68, 32
1, 94320, Note_on_c, 0, 60, 25
1, 94320, Note_on_c, 0, 63, 25
1, 94320, Note_on_c, 0, 51, 25
1, 94377, Control_c, 0, 64, 127
1, 94500, Note_on_c, 0, 51, 0
1, 94500, Note_on_c, 0, 60, 0
1, 94500, Note_on_c, 0, 63, 0
1, 94500, Note_on_c, 0, 68, 0
1, 94560, Tempo, 515021
1, 94560, Note_on_c, 0, 60, 25
1, 94560, Note_on_c, 0, 63, 25
1, 94560, Note_on_c, 0, 68, 32
1, 94560, Note_on_c, 0, 48, 25
1, 94740, Note_on_c, 0, 48, 0
1, 94740, Note_on_c, 0, 63, 0
1, 94740, Note_on_c, 0, 68, 0
1, 94740, Note_on_c, 0, 60, 0
1, 94800, Tempo, 535714
1, 94800, Note_on_c, 0, 60, 25
1, 94800, Note_on_c, 0, 63, 25
1, 94800, Note_on_c, 0, 68, 32
1, 94800, Note_on_c, 0, 51, 27
1, 94980, Note_on_c, 0, 51, 0
1, 94980, Note_on_c, 0, 63, 0
1, 94980, Note_on_c, 0, 68, 0
1, 94980, Note_on_c, 0, 60, 0
1, 95040, Tempo, 566038
1, 95040, Note_on_c, 0, 68, 33
1, 95040, Note_on_c, 0, 60, 20
1, 95040, Note_on_c, 0, 63, 26
1, 95040, Note_on_c, 0, 56, 33
1, 95181, Control_c, 0, 64, 0
1, 95220, Note_on_c, 0, 56, 0
1, 95220, Note_on_c, 0, 60, 0
1, 95220, Note_on_c, 0, 44, 0
1, 95220, Note_on_c, 0, 68, 0
1, 95220, Note_on_c, 0, 63, 0
1, 95280, Tempo, 545455
1, 95280, Note_on_c, 0, 75, 34
1, 95280, Note_on_c, 0, 72, 27
1, 95280, Note_on_c, 0, 63, 31
1, 95280, Note_on_c, 0, 60, 31
1, 95326, Control_c, 0, 64, 127
1, 95520, Tempo, 519481
1, 95520, Note_on_c, 0, 60, 0
1, 95520, Note_on_c, 0, 75, 0
1, 95520, Note_on_c, 0, 72, 0
1, 95520, Note_on_c, 0, 63, 0
1, 95520, Note_on_c, 0, 72, 27
1, 95520, Note_on_c, 0, 80, 42
1, 95520, Note_on_c, 0, 75, 27
1, 95520, Note_on_c, 0, 68, 31
1, 95520, Note_on_c, 0, 60, 31
1, 95520, Note_on_c, 0, 63, 31
1, 95541, Control_c, 0, 64, 0
1, 95630, Control_c, 0, 64, 127
1, 95760, Tempo, 535714
1, 95760, Note_on_c, 0, 63, 0
1, 95760, Note_on_c, 0, 80, 0
1, 95760, Note_on_c, 0, 75, 0
1, 95760, Note_on_c, 0, 72, 0
1, 95760, Note_on_c, 0, 60, 0
1, 95760, Note_on_c, 0, 68, 0
1, 95760, Note_on_c, 0, 75, 27
1, 95760, Note_on_c, 0, 82, 34
1, 95760, Note_on_c, 0, 79, 27
1, 95760, Note_on_c, 0, 67, 31
1, 95760, Note_on_c, 0, 70, 31
1, 95760, Note_on_c, 0, 63, 31
1, 96000, Tempo, 558140
1, 96000, Note_on_c, 0, 63, 0
1, 96000, Note_on_c, 0, 82, 0
1, 96000, Note_on_c, 0, 79, 0
1, 96000, Note_on_c, 0, 75, 0
1, 96000, Note_on_c, 0, 70, 0
1, 96000, Note_on_c, 0, 67, 0
1, 96000, Note_on_c, 0, 56, 46
1, 96000, Control_c, 0, 64, 0
1, 96096, Control_c, 0, 64, 127
1, 96120, Note_on_c, 0, 56, 0
1, 96240, Tempo, 519481
1, 96240, Note_on_c, 0, 75, 26
1, 96240, Note_on_c, 0, 84, 33
1, 96240, Note_on_c, 0, 80, 26
1, 96240, Note_on_c, 0, 72, 28
1, 96240, Note_on_c, 0, 68, 23
1, 96240, Note_on_c, 0, 63, 23
1, 96420, Note_on_c, 0, 63, 0
1, 96420, Note_on_c, 0, 84, 0
1, 96420, Note_on_c, 0, 80, 0
1, 96420, Note_on_c, 0, 75, 0
1, 96420, Note_on_c, 0, 68, 0
1, 96420, Note_on_c, 0, 72, 0
1, 96480, Note_on_c, 0, 84, 33
1, 96480, Note_on_c, 0, 80, 26
1, 96480, Note_on_c, 0, 75, 26
1, 96480, Note_on_c, 0, 68, 23
1, 96480, Note_on_c, 0, 72, 28
1, 96480, Note_on_c, 0, 63, 23
1, 96660, Note_on_c, 0, 63, 0
1, 96660, Note_on_c, 0, 80, 0
1, 96660, Note_on_c, 0, 75, 0
1, 96660, Note_on_c, 0, 84, 0
1, 96660, Note_on_c, 0, 72, 0
1, 96660, Note_on_c, 0, 68, 0
1, 96720, Tempo, 530973
1, 96720, Note_on_c, 0, 84, 33
1, 96720, Note_on_c, 0, 80, 26
1, 96720, Note_on_c, 0, 75, 26
1, 96720, Note_on_c, 0, 72, 28
1, 96720, Note_on_c, 0, 63, 23
1, 96720, Note_on_c, 0, 68, 23
1, 96900, Note_on_c, 0, 68, 0
1, 96900, Note_on_c, 0, 80, 0
1, 96900, Note_on_c, 0, 75, 0
1, 96900, Note_on_c, 0, 84, 0
1, 96900, Note_on_c, 0, 63, 0
1, 96900, Note_on_c, 0, 72, 0
1, 96960, Tempo, 528634
1, 96960, Note_on_c, 0, 80, 29
1, 96960, Note_on_c, 0, 74, 29
1, 96960, Note_on_c, 0, 83, 37
1, 96960, Note_on_c, 0, 68, 31
1, 96960, Note_on_c, 0, 62, 31
1, 96960, Note_on_c, 0, 71, 37
1, 96970, Control_c, 0, 64, 0
1, 97200, Note_on_c, 0, 71, 0
1, 97200, Note_on_c, 0, 74, 0
1, 97200, Note_on_c, 0, 83, 0
1, 97200, Note_on_c, 0, 80, 0
1, 97200, Note_on_c, 0, 62, 0
1, 97200, Note_on_c, 0, 68, 0
1, 97200, Note_on_c, 0, 75, 25
1, 97200, Note_on_c, 0, 80, 25
1, 97200, Note_on_c, 0, 84, 32
1, 97200, Note_on_c, 0, 68, 24
1, 97200, Note_on_c, 0, 63, 24
1, 97200, Note_on_c, 0, 72, 29
1, 97232, Control_c, 0, 64, 127
1, 97380, Note_on_c, 0, 72, 0
1, 97380, Note_on_c, 0, 80, 0
1, 97380, Note_on_c, 0, 84, 0
1, 97380, Note_on_c, 0, 75, 0
1, 97380, Note_on_c, 0, 63, 0
1, 97380, Note_on_c, 0, 68, 0
1, 97440, Note_on_c, 0, 84, 35
1, 97440, Note_on_c, 0, 80, 27
1, 97440, Note_on_c, 0, 75, 27
1, 97440, Note_on_c, 0, 63, 26
1, 97440, Note_on_c, 0, 68, 26
1, 97440, Note_on_c, 0, 72, 31
1, 97620, Note_on_c, 0, 72, 0
1, 97620, Note_on_c, 0, 80, 0
1, 97620, Note_on_c, 0, 75, 0
1, 97620, Note_on_c, 0, 84, 0
1, 97620, Note_on_c, 0, 68, 0
1, 97620, Note_on_c, 0, 63, 0
1, 97680, Tempo, 540541
1, 97680, Note_on_c, 0, 84, 39
1, 97680, Note_on_c, 0, 75, 31
1, 97680, Note_on_c, 0, 80, 31
1, 97680, Note_on_c, 0, 72, 33
1, 97680, Note_on_c, 0, 68, 28
1, 97680, Note_on_c, 0, 63, 28
1, 97860, Note_on_c, 0, 63, 0
1, 97860, Note_on_c, 0, 75, 0
1, 97860, Note_on_c, 0, 80, 0
1, 97860, Note_on_c, 0, 84, 0
1, 97860, Note_on_c, 0, 68, 0
1, 97860, Note_on_c, 0, 72, 0
1, 97920, Tempo, 574163
1, 97920, Note_on_c, 0, 87, 43
1, 97920, Note_on_c, 0, 80, 34
1, 97920, Note_on_c, 0, 78, 34
1, 97920, Note_on_c, 0, 61, 43
1, 97920, Control_c, 0, 64, 0
1, 98160, Tempo, 504202
1, 98160, Note_on_c, 0, 78, 0
1, 98160, Note_on_c, 0, 87, 0
1, 98160, Note_on_c, 0, 80, 0
1, 98160, Note_on_c, 0, 80, 28
1, 98160, Note_on_c, 0, 77, 28
1, 98160, Note_on_c, 0, 85, 36
1, 98160, Note_on_c, 0, 68, 23
1, 98160, Note_on_c, 0, 73, 28
1, 98160, Note_on_c, 0, 65, 23
1, 98178, Control_c, 0, 64, 127
1, 98340, Note_on_c, 0, 65, 0
1, 98340, Note_on_c, 0, 68, 0
1, 98340, Note_on_c, 0, 80, 0
1, 98340, Note_on_c, 0, 77, 0
1, 98340, Note_on_c, 0, 85, 0
1, 98340, Note_on_c, 0, 73, 0
1, 98400, Tempo, 515021
1, 98400, Note_on_c, 0, 85, 36
1, 98400, Note_on_c, 0, 80, 28
1, 98400, Note_on_c, 0, 77, 28
1, 98400, Note_on_c, 0, 65, 23
1, 98400, Note_on_c, 0, 73, 28
1, 98400, Note_on_c, 0, 68, 23
1, 98580, Note_on_c, 0, 68, 0
1, 98580, Note_on_c, 0, 65, 0
1, 98580, Note_on_c, 0, 85, 0
1, 98580, Note_on_c, 0, 80, 0
1, 98580, Note_on_c, 0, 77, 0
1, 98580, Note_on_c, 0, 73, 0
1, 98640, Tempo, 535714
1, 98640, Note_on_c, 0, 77, 28
1, 98640, Note_on_c, 0, 85, 36
1, 98640, Note_on_c, 0, 80, 28
1, 98640, Note_on_c, 0, 68, 26
1, 98640, Note_on_c, 0, 65, 26
1, 98640, Note_on_c, 0, 73, 31
1, 98820, Note_on_c, 0, 73, 0
1, 98820, Note_on_c, 0, 68, 0
1, 98820, Note_on_c, 0, 77, 0
1, 98820, Note_on_c, 0, 85, 0
1, 98820, Note_on_c, 0, 80, 0
1, 98820, Note_on_c, 0, 65, 0
1, 98880, Tempo, 519481
1, 98880, Note_on_c, 0, 80, 29
1, 98880, Note_on_c, 0, 85, 37
1, 98880, Note_on_c, 0, 77, 23
1, 98880, Note_on_c, 0, 73, 37
1, 98880, Note_on_c, 0, 68, 31
1, 98880, Note_on_c, 0, 65, 31
1, 98889, Control_c, 0, 64, 0
1, 98954, Control_c, 0, 64, 127
1, 99120, Note_on_c, 0, 65, 0
1, 99120, Note_on_c, 0, 73, 0
1, 99120, Note_on_c, 0, 80, 0
1, 99120, Note_on_c, 0, 85, 0
1, 99120, Note_on_c, 0, 77, 0
1, 99120, Note_on_c, 0, 68, 0
1, 99120, Note_on_c, 0, 75, 27
1, 99120, Note_on_c, 0, 77, 27
1, 99120, Note_on_c, 0, 84, 34
1, 99120, Note_on_c, 0, 65, 26
1, 99120, Note_on_c, 0, 69, 26
1, 99120, Note_on_c, 0, 72, 31
1, 99130, Control_c, 0, 64, 0
1, 99212, Control_c, 0, 64, 127
1, 99360, Note_on_c, 0, 72, 0
1, 99360, Note_on_c, 0, 65, 0
1, 99360, Note_on_c, 0, 75, 0
1, 99360, Note_on_c, 0, 77, 0
1, 99360, Note_on_c, 0, 84, 0
1, 99360, Note_on_c, 0, 69, 0
1, 99360, Note_on_c, 0, 77, 27
1, 99360, Note_on_c, 0, 73, 27
1, 99360, Note_on_c, 0, 82, 34
1, 99360, Note_on_c, 0, 65, 26
1, 99360, Note_on_c, 0, 70, 31
1, 99370, Control_c, 0, 64, 0
1, 99463, Control_c, 0, 64, 127
1, 99600, Tempo, 535714
1, 99600, Note_on_c, 0, 70, 0
1, 99600, Note_on_c, 0, 77, 0
1, 99600, Note_on_c, 0, 73, 0
1, 99600, Note_on_c, 0, 61, 0
1, 99600, Note_on_c, 0, 65, 0
1, 99600, Note_on_c, 0, 82, 0
1, 99600, Note_on_c, 0, 77, 27
1, 99600, Note_on_c, 0, 80, 34
1, 99600, Note_on_c, 0, 72, 27
1, 99600, Note_on_c, 0, 65, 26
1, 99600, Note_on_c, 0, 62, 26
1, 99600, Note_on_c, 0, 68, 31
1, 99610, Control_c, 0, 64, 0
1, 99706, Control_c, 0, 64, 127
1, 99840, Tempo, 528634
1, 99840, Note_on_c, 0, 68, 0
1, 99840, Note_on_c, 0, 80, 0
1, 99840, Note_on_c, 0, 72, 0
1, 99840, Note_on_c, 0, 77, 0
1, 99840, Note_on_c, 0, 62, 0
1, 99840, Note_on_c, 0, 65, 0
1, 99840, Note_on_c, 0, 80, 40
1, 99840, Note_on_c, 0, 72, 32
1, 99840, Note_on_c, 0, 75, 32
1, 99840, Note_on_c, 0, 51, 37
1, 99840, Control_c, 0, 64, 0
1, 100080, Tempo, 519481
1, 100080, Note_on_c, 0, 51, 0
1, 100080, Note_on_c, 0, 80, 0
1, 100080, Note_on_c, 0, 72, 0
1, 100080, Note_on_c, 0, 75, 0
1, 100080, Note_on_c, 0, 75, 26
1, 100080, Note_on_c, 0, 70, 26
1, 100080, Note_on_c, 0, 79, 33
1, 100080, Note_on_c, 0, 63, 23
1, 100080, Note_on_c, 0, 58, 23
1, 100080, Note_on_c, 0, 67, 28
1, 100116, Control_c, 0, 64, 127
1, 100260, Note_on_c, 0, 67, 0
1, 100260, Note_on_c, 0, 70, 0
1, 100260, Note_on_c, 0, 79, 0
1, 100260, Note_on_c, 0, 75, 0
1, 100260, Note_on_c, 0, 58, 0
1, 100260, Note_on_c, 0, 63, 0
1, 100320, Note_on_c, 0, 79, 33
1, 100320, Note_on_c, 0, 75, 26
1, 100320, Note_on_c, 0, 70, 26
1, 100320, Note_on_c, 0, 58, 23
1, 100320, Note_on_c, 0, 63, 23
1, 100320, Note_on_c, 0, 67, 28
1, 100500, Note_on_c, 0, 67, 0
1, 100500, Note_on_c, 0, 75, 0
1, 100500, Note_on_c, 0, 70, 0
1, 100500, Note_on_c, 0, 79, 0
1, 100500, Note_on_c, 0, 63, 0
1, 100500, Note_on_c, 0, 58, 0
1, 100560, Tempo, 530973
1, 100560, Note_on_c, 0, 75, 26
1, 100560, Note_on_c, 0, 79, 33
1, 100560, Note_on_c, 0, 70, 26
1, 100560, Note_on_c, 0, 63, 23
1, 100560, Note_on_c, 0, 67, 28
1, 100560, Note_on_c, 0, 58, 23
1, 100740, Note_on_c, 0, 58, 0
1, 100740, Note_on_c, 0, 79, 0
1, 100740, Note_on_c, 0, 70, 0
1, 100740, Note_on_c, 0, 75, 0
1, 100740, Note_on_c, 0, 67, 0
1, 100740, Note_on_c, 0, 63, 0
1, 100800, Tempo, 560748
1, 100800, Note_on_c, 0, 75, 29
1, 100800, Note_on_c, 0, 70, 29
1, 100800, Note_on_c, 0, 79, 37
1, 100800, Note_on_c, 0, 63, 31
1, 100800, Note_on_c, 0, 67, 37
1, 100800, Note_on_c, 0, 58, 31
1, 100980, Note_on_c, 0, 58, 0
1, 100980, Note_on_c, 0, 70, 0
1, 100980, Note_on_c, 0, 79, 0
1, 100980, Note_on_c, 0, 75, 0
1, 100980, Note_on_c, 0, 67, 0
1, 100980, Note_on_c, 0, 63, 0
1, 101040, Tempo, 542986
1, 101040, Note_on_c, 0, 75, 25
1, 101040, Note_on_c, 0, 79, 32
1, 101040, Note_on_c, 0, 70, 25
1, 101040, Note_on_c, 0, 58, 24
1, 101040, Note_on_c, 0, 63, 24
1, 101040, Note_on_c, 0, 67, 29
1, 101220, Note_on_c, 0, 67, 0
1, 101220, Note_on_c, 0, 79, 0
1, 101220, Note_on_c, 0, 70, 0
1, 101220, Note_on_c, 0, 75, 0
1, 101220, Note_on_c, 0, 63, 0
1, 101220, Note_on_c, 0, 58, 0
1, 101280, Tempo, 550459
1, 101280, Note_on_c, 0, 72, 27
1, 101280, Note_on_c, 0, 75, 27
1, 101280, Note_on_c, 0, 80, 35
1, 101280, Note_on_c, 0, 68, 31
1, 101280, Note_on_c, 0, 60, 26
1, 101280, Note_on_c, 0, 63, 26
1, 101291, Control_c, 0, 64, 0
1, 101347, Control_c, 0, 64, 127
1, 101520, Tempo, 563380
1, 101520, Note_on_c, 0, 63, 0
1, 101520, Note_on_c, 0, 75, 0
1, 101520, Note_on_c, 0, 80, 0
1, 101520, Note_on_c, 0, 72, 0
1, 101520, Note_on_c, 0, 60, 0
1, 101520, Note_on_c, 0, 68, 0
1, 101520, Note_on_c, 0, 75, 31
1, 101520, Note_on_c, 0, 82, 39
1, 101520, Note_on_c, 0, 73, 31
1, 101520, Note_on_c, 0, 63, 28
1, 101520, Note_on_c, 0, 61, 28
1, 101520, Note_on_c, 0, 70, 33
1, 101760, Tempo, 571429
1, 101760, Note_on_c, 0, 70, 0
1, 101760, Note_on_c, 0, 82, 0
1, 101760, Note_on_c, 0, 73, 0
1, 101760, Note_on_c, 0, 75, 0
1, 101760, Note_on_c, 0, 61, 0
1, 101760, Note_on_c, 0, 63, 0
1, 101760, Note_on_c, 0, 73, 34
1, 101760, Note_on_c, 0, 75, 43
1, 101760, Note_on_c, 0, 56, 43
1, 101760, Control_c, 0, 64, 0
1, 102000, Tempo, 504202
1, 102000, Note_on_c, 0, 75, 0
1, 102000, Note_on_c, 0, 73, 0
1, 102000, Note_on_c, 0, 75, 28
1, 102000, Note_on_c, 0, 80, 36
1, 102000, Note_on_c, 0, 72, 28
1, 102000, Note_on_c, 0, 63, 23
1, 102000, Note_on_c, 0, 60, 23
1, 102000, Note_on_c, 0, 68, 28
1, 102060, Control_c, 0, 64, 127
1, 102180, Note_on_c, 0, 68, 0
1, 102180, Note_on_c, 0, 63, 0
1, 102180, Note_on_c, 0, 75, 0
1, 102180, Note_on_c, 0, 80, 0
1, 102180, Note_on_c, 0, 72, 0
1, 102180, Note_on_c, 0, 60, 0
1, 102240, Tempo, 515021
1, 102240, Note_on_c, 0, 80, 36
1, 102240, Note_on_c, 0, 72, 28
1, 102240, Note_on_c, 0, 75, 28
1, 102240, Note_on_c, 0, 68, 28
1, 102240, Note_on_c, 0, 63, 23
1, 102240, Note_on_c, 0, 60, 23
1, 102420, Note_on_c, 0, 60, 0
1, 102420, Note_on_c, 0, 68, 0
1, 102420, Note_on_c, 0, 80, 0
1, 102420, Note_on_c, 0, 72, 0
1, 102420, Note_on_c, 0, 75, 0
1, 102420, Note_on_c, 0, 63, 0
1, 102480, Tempo, 535714
1, 102480, Note_on_c, 0, 75, 28
1, 102480, Note_on_c, 0, 80, 36
1, 102480, Note_on_c, 0, 72, 28
1, 102480, Note_on_c, 0, 60, 26
1, 102480, Note_on_c, 0, 68, 31
1, 102480, Note_on_c, 0, 63, 26
1, 102660, Note_on_c, 0, 63, 0
1, 102660, Note_on_c, 0, 60, 0
1, 102660, Note_on_c, 0, 75, 0
1, 102660, Note_on_c, 0, 80, 0
1, 102660, Note_on_c, 0, 72, 0
1, 102660, Note_on_c, 0, 68, 0
1, 102720, Tempo, 519481
1, 102720, Note_on_c, 0, 80, 37
1, 102720, Note_on_c, 0, 75, 29
1, 102720, Note_on_c, 0, 72, 23
1, 102720, Note_on_c, 0, 68, 37
1, 102720, Note_on_c, 0, 63, 31
1, 102720, Note_on_c, 0, 60, 31
1, 102900, Note_on_c, 0, 60, 0
1, 102900, Note_on_c, 0, 68, 0
1, 102900, Note_on_c, 0, 80, 0
1, 102900, Note_on_c, 0, 75, 0
1, 102900, Note_on_c, 0, 72, 0
1, 102900, Note_on_c, 0, 63, 0
1, 102960, Tempo, 585366
1, 102960, Note_on_c, 0, 56, 0
1, 102960, Note_on_c, 0, 80, 34
1, 102960, Note_on_c, 0, 75, 27
1, 102960, Note_on_c, 0, 72, 27
1, 102960, Note_on_c, 0, 60, 26
1, 102960, Note_on_c, 0, 68, 31
1, 102960, Note_on_c, 0, 63, 26
1, 103140, Note_on_c, 0, 63, 0
1, 103140, Note_on_c, 0, 75, 0
1, 103140, Note_on_c, 0, 72, 0
1, 103140, Note_on_c, 0, 80, 0
1, 103140, Note_on_c, 0, 68, 0
1, 103140, Note_on_c, 0, 60, 0
1, 103200, Tempo, 519481
1, 103200, Note_on_c, 0, 80, 39
1, 103200, Note_on_c, 0, 63, 26
1, 103200, Note_on_c, 0, 72, 31
1, 103200, Note_on_c, 0, 68, 26
1, 103210, Control_c, 0, 64, 0
1, 103260, Note_on_c, 0, 75, 44
1, 103260, Note_on_c, 0, 84, 52
1, 103303, Control_c, 0, 64, 127
1, 103440, Tempo, 535714
1, 103440, Note_on_c, 0, 68, 0
1, 103440, Note_on_c, 0, 72, 0
1, 103440, Note_on_c, 0, 63, 0
1, 103440, Note_on_c, 0, 63, 26
1, 103440, Note_on_c, 0, 60, 26
1, 103440, Note_on_c, 0, 68, 31
1, 103560, Note_on_c, 0, 80, 0
1, 103560, Note_on_c, 0, 84, 0
1, 103560, Note_on_c, 0, 75, 0
1, 103560, Note_on_c, 0, 75, 27
1, 103560, Note_on_c, 0, 72, 27
1, 103560, Note_on_c, 0, 80, 34
1, 103680, Tempo, 528634
1, 103680, Note_on_c, 0, 80, 0
1, 103680, Note_on_c, 0, 60, 0
1, 103680, Note_on_c, 0, 63, 0
1, 103680, Note_on_c, 0, 68, 0
1, 103680, Note_on_c, 0, 72, 0
1, 103680, Note_on_c, 0, 75, 0
1, 103680, Note_on_c, 0, 75, 32
1, 103680, Note_on_c, 0, 80, 40
1, 103680, Note_on_c, 0, 72, 32
1, 103680, Note_on_c, 0, 51, 37
1, 103680, Control_c, 0, 64, 0
1, 103920, Tempo, 519481
1, 103920, Note_on_c, 0, 51, 0
1, 103920, Note_on_c, 0, 75, 0
1, 103920, Note_on_c, 0, 80, 0
1, 103920, Note_on_c, 0, 72, 0
1, 103920, Note_on_c, 0, 75, 26
1, 103920, Note_on_c, 0, 70, 26
1, 103920, Note_on_c, 0, 79, 33
1, 103920, Note_on_c, 0, 63, 23
1, 103920, Note_on_c, 0, 58, 23
1, 103920, Note_on_c, 0, 67, 28
1, 103931, Control_c, 0, 64, 127
1, 104100, Note_on_c, 0, 67, 0
1, 104100, Note_on_c, 0, 70, 0
1, 104100, Note_on_c, 0, 79, 0
1, 104100, Note_on_c, 0, 75, 0
1, 104100, Note_on_c, 0, 58, 0
1, 104100, Note_on_c, 0, 63, 0
1, 104160, Note_on_c, 0, 75, 26
1, 104160, Note_on_c, 0, 70, 26
1, 104160, Note_on_c, 0, 79, 33
1, 104160, Note_on_c, 0, 67, 28
1, 104160, Note_on_c, 0, 63, 23
1, 104160, Note_on_c, 0, 58, 23
1, 104340, Note_on_c, 0, 58, 0
1, 104340, Note_on_c, 0, 70, 0
1, 104340, Note_on_c, 0, 79, 0
1, 104340, Note_on_c, 0, 75, 0
1, 104340, Note_on_c, 0, 63, 0
1, 104340, Note_on_c, 0, 67, 0
1, 104400, Tempo, 530973
1, 104400, Note_on_c, 0, 70, 26
1, 104400, Note_on_c, 0, 75, 26
1, 104400, Note_on_c, 0, 79, 33
1, 104400, Note_on_c, 0, 63, 23
1, 104400, Note_on_c, 0, 67, 28
1, 104400, Note_on_c, 0, 58, 23
1, 104580, Note_on_c, 0, 58, 0
1, 104580, Note_on_c, 0, 75, 0
1, 104580, Note_on_c, 0, 79, 0
1, 104580, Note_on_c, 0, 70, 0
1, 104580, Note_on_c, 0, 67, 0
1, 104580, Note_on_c, 0, 63, 0
1, 104640, Tempo, 528634
1, 104640, Note_on_c, 0, 70, 29
1, 104640, Note_on_c, 0, 79, 37
1, 104640, Note_on_c, 0, 75, 29
1, 104640, Note_on_c, 0, 58, 31
1, 104640, Note_on_c, 0, 67, 37
1, 104640, Note_on_c, 0, 63, 31
1, 104820, Note_on_c, 0, 63, 0
1, 104820, Note_on_c, 0, 79, 0
1, 104820, Note_on_c, 0, 75, 0
1, 104820, Note_on_c, 0, 70, 0
1, 104820, Note_on_c, 0, 67, 0
1, 104820, Note_on_c, 0, 58, 0
1, 104880, Note_on_c, 0, 75, 25
1, 104880, Note_on_c, 0, 79, 32
1, 104880, Note_on_c, 0, 70, 25
1, 104880, Note_on_c, 0, 63, 24
1, 104880, Note_on_c, 0, 67, 29
1, 104880, Note_on_c, 0, 58, 24
1, 105060, Note_on_c, 0, 58, 0
1, 105060, Note_on_c, 0, 79, 0
1, 105060, Note_on_c, 0, 70, 0
1, 105060, Note_on_c, 0, 75, 0
1, 105060, Note_on_c, 0, 67, 0
1, 105060, Note_on_c, 0, 63, 0
1, 105120, Note_on_c, 0, 80, 35
1, 105120, Note_on_c, 0, 75, 27
1, 105120, Note_on_c, 0, 72, 27
1, 105120, Note_on_c, 0, 60, 26
1, 105120, Note_on_c, 0, 63, 26
1, 105120, Note_on_c, 0, 68, 31
1, 105131, Control_c, 0, 64, 0
1, 105187, Control_c, 0, 64, 127
1, 105360, Tempo, 540541
1, 105360, Note_on_c, 0, 68, 0
1, 105360, Note_on_c, 0, 75, 0
1, 105360, Note_on_c, 0, 72, 0
1, 105360, Note_on_c, 0, 80, 0
1, 105360, Note_on_c, 0, 63, 0
1, 105360, Note_on_c, 0, 60, 0
1, 105360, Note_on_c, 0, 75, 31
1, 105360, Note_on_c, 0, 82, 39
1, 105360, Note_on_c, 0, 73, 31
1, 105360, Note_on_c, 0, 70, 33
1, 105360, Note_on_c, 0, 61, 28
1, 105360, Note_on_c, 0, 63, 28
1, 105600, Tempo, 566038
1, 105600, Note_on_c, 0, 63, 0
1, 105600, Note_on_c, 0, 82, 0
1, 105600, Note_on_c, 0, 73, 0
1, 105600, Note_on_c, 0, 75, 0
1, 105600, Note_on_c, 0, 61, 0
1, 105600, Note_on_c, 0, 70, 0
1, 105600, Note_on_c, 0, 73, 34
1, 105600, Note_on_c, 0, 75, 43
1, 105600, Note_on_c, 0, 56, 43
1, 105600, Control_c, 0, 64, 0
1, 105840, Tempo, 504202
1, 105840, Note_on_c, 0, 75, 0
1, 105840, Note_on_c, 0, 73, 0
1, 105840, Note_on_c, 0, 80, 36
1, 105840, Note_on_c, 0, 75, 28
1, 105840, Note_on_c, 0, 72, 28
1, 105840, Note_on_c, 0, 68, 28
1, 105840, Note_on_c, 0, 63, 23
1, 105840, Note_on_c, 0, 60, 23
1, 105890, Control_c, 0, 64, 127
1, 106020, Note_on_c, 0, 60, 0
1, 106020, Note_on_c, 0, 68, 0
1, 106020, Note_on_c, 0, 80, 0
1, 106020, Note_on_c, 0, 75, 0
1, 106020, Note_on_c, 0, 72, 0
1, 106020, Note_on_c, 0, 63, 0
1, 106080, Tempo, 515021
1, 106080, Note_on_c, 0, 75, 28
1, 106080, Note_on_c, 0, 72, 28
1, 106080, Note_on_c, 0, 80, 36
1, 106080, Note_on_c, 0, 63, 23
1, 106080, Note_on_c, 0, 60, 23
1, 106080, Note_on_c, 0, 68, 28
1, 106260, Note_on_c, 0, 68, 0
1, 106260, Note_on_c, 0, 63, 0
1, 106260, Note_on_c, 0, 75, 0
1, 106260, Note_on_c, 0, 72, 0
1, 106260, Note_on_c, 0, 80, 0
1, 106260, Note_on_c, 0, 60, 0
1, 106320, Tempo, 535714
1, 106320, Note_on_c, 0, 80, 36
1, 106320, Note_on_c, 0, 75, 28
1, 106320, Note_on_c, 0, 72, 28
1, 106320, Note_on_c, 0, 60, 26
1, 106320, Note_on_c, 0, 63, 26
1, 106320, Note_on_c, 0, 68, 31
1, 106500, Note_on_c, 0, 68, 0
1, 106500, Note_on_c, 0, 60, 0
1, 106500, Note_on_c, 0, 80, 0
1, 106500, Note_on_c, 0, 75, 0
1, 106500, Note_on_c, 0, 72, 0
1, 106500, Note_on_c, 0, 63, 0
1, 106560, Tempo, 519481
1, 106560, Note_on_c, 0, 80, 37
1, 106560, Note_on_c, 0, 75, 29
1, 106560, Note_on_c, 0, 72, 23
1, 106560, Note_on_c, 0, 60, 31
1, 106560, Note_on_c, 0, 63, 31
1, 106560, Note_on_c, 0, 68, 37
1, 106624, Control_c, 0, 64, 0
1, 106740, Note_on_c, 0, 68, 0
1, 106740, Note_on_c, 0, 60, 0
1, 106740, Note_on_c, 0, 80, 0
1, 106740, Note_on_c, 0, 75, 0
1, 106740, Note_on_c, 0, 56, 0
1, 106740, Note_on_c, 0, 63, 0
1, 106740, Note_on_c, 0, 72, 0
1, 106779, Control_c, 0, 64, 127
1, 106800, Tempo, 545455
1, 106800, Note_on_c, 0, 75, 43
1, 106800, Note_on_c, 0, 63, 31
1, 106800, Note_on_c, 0, 60, 31
1, 106920, Note_on_c, 0, 75, 0
1, 106920, Note_on_c, 0, 87, 36
1, 107040, Tempo, 519481
1, 107040, Note_on_c, 0, 87, 0
1, 107040, Note_on_c, 0, 60, 0
1, 107040, Note_on_c, 0, 63, 0
1, 107040, Note_on_c, 0, 80, 43
1, 107040, Note_on_c, 0, 60, 31
1, 107040, Note_on_c, 0, 68, 31
1, 107040, Note_on_c, 0, 63, 31
1, 107040, Control_c, 0, 64, 0
1, 107118, Control_c, 0, 64, 127
1, 107160, Note_on_c, 0, 80, 0
1, 107160, Note_on_c, 0, 87, 36
1, 107280, Tempo, 535714
1, 107280, Note_on_c, 0, 87, 0
1, 107280, Note_on_c, 0, 63, 0
1, 107280, Note_on_c, 0, 68, 0
1, 107280, Note_on_c, 0, 60, 0
1, 107280, Note_on_c, 0, 82, 44
1, 107280, Note_on_c, 0, 67, 31
1, 107280, Note_on_c, 0, 63, 31
1, 107280, Note_on_c, 0, 70, 31
1, 107400, Note_on_c, 0, 82, 0
1, 107400, Note_on_c, 0, 87, 36
1, 107520, Tempo, 558140
1, 107520, Note_on_c, 0, 87, 0
1, 107520, Note_on_c, 0, 70, 0
1, 107520, Note_on_c, 0, 63, 0
1, 107520, Note_on_c, 0, 67, 0
1, 107520, Note_on_c, 0, 75, 47
1, 107520, Note_on_c, 0, 56, 46
1, 107520, Control_c, 0, 64, 0
1, 107594, Control_c, 0, 64, 127
1, 107640, Note_on_c, 0, 56, 0
1, 107640, Note_on_c, 0, 75, 0
1, 107640, Note_on_c, 0, 87, 36
1, 107760, Tempo, 519481
1, 107760, Note_on_c, 0, 87, 0
1, 107760, Note_on_c, 0, 84, 43
1, 107760, Note_on_c, 0, 63, 23
1, 107760, Note_on_c, 0, 68, 23
1, 107760, Note_on_c, 0, 72, 28
1, 107880, Note_on_c, 0, 84, 0
1, 107880, Note_on_c, 0, 75, 36
1, 107940, Note_on_c, 0, 63, 0
1, 107940, Note_on_c, 0, 72, 0
1, 107940, Note_on_c, 0, 68, 0
1, 108000, Note_on_c, 0, 75, 0
1, 108000, Note_on_c, 0, 75, 43
1, 108000, Note_on_c, 0, 63, 23
1, 108000, Note_on_c, 0, 68, 23
1, 108000, Note_on_c, 0, 72, 28
1, 108120, Note_on_c, 0, 75, 0
1, 108120, Note_on_c, 0, 87, 36
1, 108180, Note_on_c, 0, 63, 0
1, 108180, Note_on_c, 0, 72, 0
1, 108180, Note_on_c, 0, 68, 0
1, 108240, Tempo, 530973
1, 108240, Note_on_c, 0, 87, 0
1, 108240, Note_on_c, 0, 84, 43
1, 108240, Note_on_c, 0, 63, 23
1, 108240, Note_on_c, 0, 68, 23
1, 108240, Note_on_c, 0, 72, 28
1, 108360, Note_on_c, 0, 84, 0
1, 108360, Note_on_c, 0, 75, 36
1, 108420, Note_on_c, 0, 63, 0
1, 108420, Note_on_c, 0, 72, 0
1, 108420, Note_on_c, 0, 68, 0
1, 108480, Tempo, 528634
1, 108480, Note_on_c, 0, 75, 0
1, 108480, Note_on_c, 0, 75, 46
1, 108480, Note_on_c, 0, 68, 31
1, 108480, Note_on_c, 0, 62, 31
1, 108480, Note_on_c, 0, 71, 37
1, 108490, Control_c, 0, 64, 0
1, 108600, Note_on_c, 0, 75, 0
1, 108600, Note_on_c, 0, 87, 36
1, 108720, Note_on_c, 0, 87, 0
1, 108720, Note_on_c, 0, 71, 0
1, 108720, Note_on_c, 0, 62, 0
1, 108720, Note_on_c, 0, 68, 0
1, 108720, Note_on_c, 0, 84, 45
1, 108720, Note_on_c, 0, 63, 24
1, 108720, Note_on_c, 0, 68, 24
1, 108720, Note_on_c, 0, 72, 29
1, 108759, Control_c, 0, 64, 127
1, 108840, Note_on_c, 0, 84, 0
1, 108840, Note_on_c, 0, 75, 36
1, 108900, Note_on_c, 0, 63, 0
1, 108900, Note_on_c, 0, 72, 0
1, 108900, Note_on_c, 0, 68, 0
1, 108960, Note_on_c, 0, 75, 0
1, 108960, Note_on_c, 0, 75, 45
1, 108960, Note_on_c, 0, 63, 26
1, 108960, Note_on_c, 0, 68, 26
1, 108960, Note_on_c, 0, 72, 31
1, 109080, Note_on_c, 0, 75, 0
1, 109080, Note_on_c, 0, 87, 39
1, 109140, Note_on_c, 0, 63, 0
1, 109140, Note_on_c, 0, 72, 0
1, 109140, Note_on_c, 0, 68, 0
1, 109200, Tempo, 540541
1, 109200, Note_on_c, 0, 87, 0
1, 109200, Note_on_c, 0, 80, 46
1, 109200, Note_on_c, 0, 72, 33
1, 109200, Note_on_c, 0, 63, 28
1, 109200, Note_on_c, 0, 68, 28
1, 109320, Note_on_c, 0, 80, 0
1, 109320, Note_on_c, 0, 92, 36
1, 109380, Note_on_c, 0, 72, 0
1, 109380, Note_on_c, 0, 68, 0
1, 109380, Note_on_c, 0, 63, 0
1, 109440, Tempo, 574163
1, 109440, Note_on_c, 0, 92, 0
1, 109440, Note_on_c, 0, 80, 50
1, 109440, Note_on_c, 0, 61, 43
1, 109440, Note_on_c, 0, 75, 37
1, 109440, Note_on_c, 0, 68, 31
1, 109440, Note_on_c, 0, 66, 31
1, 109440, Control_c, 0, 64, 0
1, 109560, Note_on_c, 0, 80, 0
1, 109560, Note_on_c, 0, 92, 36
1, 109680, Tempo, 504202
1, 109680, Note_on_c, 0, 92, 0
1, 109680, Note_on_c, 0, 66, 0
1, 109680, Note_on_c, 0, 68, 0
1, 109680, Note_on_c, 0, 75, 0
1, 109680, Note_on_c, 0, 89, 43
1, 109680, Note_on_c, 0, 68, 23
1, 109680, Note_on_c, 0, 65, 23
1, 109680, Note_on_c, 0, 73, 28
1, 109733, Control_c, 0, 64, 127
1, 109800, Note_on_c, 0, 89, 0
1, 109800, Note_on_c, 0, 80, 36
1, 109860, Note_on_c, 0, 65, 0
1, 109860, Note_on_c, 0, 73, 0
1, 109860, Note_on_c, 0, 68, 0
1, 109920, Tempo, 515021
1, 109920, Note_on_c, 0, 80, 0
1, 109920, Note_on_c, 0, 80, 50
1, 109920, Note_on_c, 0, 68, 23
1, 109920, Note_on_c, 0, 73, 28
1, 109920, Note_on_c, 0, 65, 23
1, 110040, Note_on_c, 0, 80, 0
1, 110040, Note_on_c, 0, 92, 36
1, 110100, Note_on_c, 0, 73, 0
1, 110100, Note_on_c, 0, 65, 0
1, 110100, Note_on_c, 0, 68, 0
1, 110160, Tempo, 535714
1, 110160, Note_on_c, 0, 92, 0
1, 110160, Note_on_c, 0, 89, 42
1, 110160, Note_on_c, 0, 65, 26
1, 110160, Note_on_c, 0, 68, 26
1, 110160, Note_on_c, 0, 73, 31
1, 110280, Note_on_c, 0, 89, 0
1, 110280, Note_on_c, 0, 80, 36
1, 110340, Note_on_c, 0, 68, 0
1, 110340, Note_on_c, 0, 73, 0
1, 110340, Note_on_c, 0, 65, 0
1, 110400, Tempo, 519481
1, 110400, Note_on_c, 0, 80, 0
1, 110400, Note_on_c, 0, 80, 46
1, 110400, Note_on_c, 0, 65, 31
1, 110400, Note_on_c, 0, 73, 37
1, 110400, Note_on_c, 0, 68, 31
1, 110409, Control_c, 0, 64, 0
1, 110474, Control_c, 0, 64, 127
1, 110520, Note_on_c, 0, 80, 0
1, 110520, Note_on_c, 0, 92, 36
1, 110640, Note_on_c, 0, 92, 0
1, 110640, Note_on_c, 0, 68, 0
1, 110640, Note_on_c, 0, 61, 0
1, 110640, Note_on_c, 0, 65, 0
1, 110640, Note_on_c, 0, 73, 0
1, 110640, Note_on_c, 0, 81, 47
1, 110640, Note_on_c, 0, 63, 26
1, 110640, Note_on_c, 0, 72, 31
1, 110640, Note_on_c, 0, 65, 26
1, 110650, Control_c, 0, 64, 0
1, 110707, Control_c, 0, 64, 127
1, 110760, Note_on_c, 0, 81, 0
1, 110760, Note_on_c, 0, 93, 40
1, 110880, Note_on_c, 0, 93, 0
1, 110880, Note_on_c, 0, 65, 0
1, 110880, Note_on_c, 0, 72, 0
1, 110880, Note_on_c, 0, 63, 0
1, 110880, Note_on_c, 0, 82, 52
1, 110880, Note_on_c, 0, 70, 32
1, 110880, Note_on_c, 0, 61, 27
1, 110880, Note_on_c, 0, 65, 27
1, 110890, Control_c, 0, 64, 0
1, 110940, Control_c, 0, 64, 127
1, 111000, Note_on_c, 0, 82, 0
1, 111000, Note_on_c, 0, 94, 36
1, 111120, Tempo, 535714
1, 111120, Note_on_c, 0, 94, 0
1, 111120, Note_on_c, 0, 65, 0
1, 111120, Note_on_c, 0, 61, 0
1, 111120, Note_on_c, 0, 70, 0
1, 111120, Note_on_c, 0, 96, 48
1, 111120, Note_on_c, 0, 84, 48
1, 111120, Note_on_c, 0, 68, 33
1, 111120, Note_on_c, 0, 60, 28
1, 111120, Note_on_c, 0, 63, 28
1, 111130, Control_c, 0, 64, 0
1, 111187, Control_c, 0, 64, 127
1, 111240, Note_on_c, 0, 84, 0
1, 111240, Note_on_c, 0, 96, 0
1, 111240, Note_on_c, 0, 97, 53
1, 111240, Note_on_c, 0, 85, 53
1, 111360, Tempo, 528634
1, 111360, Note_on_c, 0, 85, 0
1, 111360, Note_on_c, 0, 60, 0
1, 111360, Note_on_c, 0, 63, 0
1, 111360, Note_on_c, 0, 68, 0
1, 111360, Note_on_c, 0, 97, 0
1, 111360, Note_on_c, 0, 87, 67
1, 111360, Note_on_c, 0, 51, 41
1, 111360, Control_c, 0, 64, 0
1, 111456, Control_c, 0, 64, 127
1, 111480, Note_on_c, 0, 87, 0
1, 111480, Note_on_c, 0, 99, 53
1, 111600, Tempo, 519481
1, 111600, Note_on_c, 0, 99, 0
1, 111600, Note_on_c, 0, 51, 0
1, 111600, Note_on_c, 0, 97, 60
1, 111600, Note_on_c, 0, 67, 32
1, 111600, Note_on_c, 0, 58, 26
1, 111600, Note_on_c, 0, 63, 26
1, 111720, Note_on_c, 0, 97, 0
1, 111720, Note_on_c, 0, 87, 53
1, 111780, Note_on_c, 0, 67, 0
1, 111780, Note_on_c, 0, 63, 0
1, 111780, Note_on_c, 0, 58, 0
1, 111840, Note_on_c, 0, 87, 0
1, 111840, Note_on_c, 0, 87, 63
1, 111840, Note_on_c, 0, 63, 26
1, 111840, Note_on_c, 0, 67, 32
1, 111840, Note_on_c, 0, 58, 26
1, 111960, Note_on_c, 0, 87, 0
1, 111960, Note_on_c, 0, 99, 53
1, 112020, Note_on_c, 0, 63, 0
1, 112020, Note_on_c, 0, 58, 0
1, 112020, Note_on_c, 0, 67, 0
1, 112080, Tempo, 530973
1, 112080, Note_on_c, 0, 99, 0
1, 112080, Note_on_c, 0, 97, 60
1, 112080, Note_on_c, 0, 67, 32
1, 112080, Note_on_c, 0, 58, 26
1, 112080, Note_on_c, 0, 63, 26
1, 112200, Note_on_c, 0, 97, 0
1, 112200, Note_on_c, 0, 87, 50
1, 112260, Note_on_c, 0, 67, 0
1, 112260, Note_on_c, 0, 63, 0
1, 112260, Note_on_c, 0, 58, 0
1, 112320, Tempo, 560748
1, 112320, Note_on_c, 0, 87, 0
1, 112320, Note_on_c, 0, 87, 59
1, 112320, Note_on_c, 0, 58, 35
1, 112320, Note_on_c, 0, 63, 35
1, 112320, Note_on_c, 0, 67, 42
1, 112440, Note_on_c, 0, 87, 0
1, 112440, Note_on_c, 0, 99, 45
1, 112500, Note_on_c, 0, 58, 0
1, 112500, Note_on_c, 0, 67, 0
1, 112500, Note_on_c, 0, 63, 0
1, 112560, Tempo, 542986
1, 112560, Note_on_c, 0, 99, 0
1, 112560, Note_on_c, 0, 97, 56
1, 112560, Note_on_c, 0, 63, 27
1, 112560, Note_on_c, 0, 67, 33
1, 112560, Note_on_c, 0, 58, 27
1, 112680, Note_on_c, 0, 97, 0
1, 112680, Note_on_c, 0, 87, 48
1, 112740, Note_on_c, 0, 63, 0
1, 112740, Note_on_c, 0, 58, 0
1, 112740, Note_on_c, 0, 67, 0
1, 112800, Tempo, 550459
1, 112800, Note_on_c, 0, 87, 0
1, 112800, Note_on_c, 0, 96, 58
1, 112800, Note_on_c, 0, 60, 29
1, 112800, Note_on_c, 0, 63, 29
1, 112800, Note_on_c, 0, 68, 35
1, 112811, Control_c, 0, 64, 0
1, 112867, Control_c, 0, 64, 127
1, 112920, Note_on_c, 0, 96, 0
1, 112920, Note_on_c, 0, 99, 47
1, 113040, Tempo, 563380
1, 113040, Note_on_c, 0, 99, 0
1, 113040, Note_on_c, 0, 68, 0
1, 113040, Note_on_c, 0, 63, 0
1, 113040, Note_on_c, 0, 60, 0
1, 113040, Note_on_c, 0, 94, 59
1, 113040, Note_on_c, 0, 70, 37
1, 113040, Note_on_c, 0, 61, 32
1, 113040, Note_on_c, 0, 63, 32
1, 113160, Note_on_c, 0, 94, 0
1, 113160, Note_on_c, 0, 99, 52
1, 113280, Tempo, 530973
1, 113280, Note_on_c, 0, 99, 0
1, 113280, Note_on_c, 0, 63, 0
1, 113280, Note_on_c, 0, 61, 0
1, 113280, Note_on_c, 0, 70, 0
1, 113280, Note_on_c, 0, 87, 64
1, 113280, Note_on_c, 0, 56, 43
1, 113280, Note_on_c, 0, 61, 31
1, 113280, Note_on_c, 0, 63, 37
1, 113280, Control_c, 0, 64, 0
1, 113400, Note_on_c, 0, 87, 0
1, 113400, Note_on_c, 0, 99, 43
1, 113520, Tempo, 517241
1, 113520, Note_on_c, 0, 99, 0
1, 113520, Note_on_c, 0, 63, 0
1, 113520, Note_on_c, 0, 61, 0
1, 113520, Note_on_c, 0, 96, 55
1, 113520, Note_on_c, 0, 68, 32
1, 113520, Note_on_c, 0, 63, 26
1, 113520, Note_on_c, 0, 60, 26
1, 113556, Control_c, 0, 64, 127
1, 113640, Note_on_c, 0, 96, 0
1, 113640, Note_on_c, 0, 87, 44
1, 113700, Note_on_c, 0, 63, 0
1, 113700, Note_on_c, 0, 60, 0
1, 113700, Note_on_c, 0, 68, 0
1, 113760, Tempo, 515021
1, 113760, Note_on_c, 0, 87, 0
1, 113760, Note_on_c, 0, 75, 51
1, 113760, Note_on_c, 0, 68, 32
1, 113760, Note_on_c, 0, 60, 26
1, 113760, Note_on_c, 0, 63, 26
1, 113880, Note_on_c, 0, 75, 0
1, 113880, Note_on_c, 0, 87, 43
1, 113940, Note_on_c, 0, 60, 0
1, 113940, Note_on_c, 0, 63, 0
1, 113940, Note_on_c, 0, 68, 0
1, 114000, Tempo, 535714
1, 114000, Note_on_c, 0, 87, 0
1, 114000, Note_on_c, 0, 84, 47
1, 114000, Note_on_c, 0, 68, 35
1, 114000, Note_on_c, 0, 63, 29
1, 114000, Note_on_c, 0, 60, 29
1, 114120, Note_on_c, 0, 84, 0
1, 114120, Note_on_c, 0, 75, 41
1, 114180, Note_on_c, 0, 63, 0
1, 114180, Note_on_c, 0, 60, 0
1, 114180, Note_on_c, 0, 68, 0
1, 114240, Tempo, 519481
1, 114240, Note_on_c, 0, 56, 0
1, 114240, Note_on_c, 0, 75, 0
1, 114240, Note_on_c, 0, 75, 47
1, 114240, Note_on_c, 0, 68, 35
1, 114256, Control_c, 0, 64, 0
1, 114300, Note_on_c, 0, 72, 42
1, 114300, Note_on_c, 0, 63, 35
1, 114360, Note_on_c, 0, 75, 0
1, 114360, Note_on_c, 0, 87, 39
1, 114360, Control_c, 0, 64, 127
1, 114480, Tempo, 585366
1, 114480, Note_on_c, 0, 87, 0
1, 114480, Note_on_c, 0, 63, 0
1, 114480, Note_on_c, 0, 72, 0
1, 114480, Note_on_c, 0, 68, 0
1, 114480, Note_on_c, 0, 84, 41
1, 114480, Note_on_c, 0, 60, 26
1, 114480, Note_on_c, 0, 68, 31
1, 114480, Note_on_c, 0, 63, 26
1, 114600, Note_on_c, 0, 84, 0
1, 114600, Note_on_c, 0, 75, 38
1, 114660, Note_on_c, 0, 60, 0
1, 114660, Note_on_c, 0, 63, 0
1, 114660, Note_on_c, 0, 68, 0
1, 114720, Tempo, 519481
1, 114720, Note_on_c, 0, 75, 0
1, 114720, Note_on_c, 0, 80, 47
1, 114720, Note_on_c, 0, 60, 26
1, 114720, Note_on_c, 0, 68, 31
1, 114720, Note_on_c, 0, 63, 26
1, 114840, Note_on_c, 0, 80, 0
1, 114840, Note_on_c, 0, 92, 42
1, 114900, Note_on_c, 0, 60, 0
1, 114900, Note_on_c, 0, 63, 0
1, 114900, Note_on_c, 0, 68, 0
1, 114960, Tempo, 535714
1, 114960, Note_on_c, 0, 92, 0
1, 114960, Note_on_c, 0, 75, 43
1, 114960, Note_on_c, 0, 63, 26
1, 114960, Note_on_c, 0, 68, 31
1, 114960, Note_on_c, 0, 60, 26
1, 115080, Note_on_c, 0, 75, 0
1, 115080, Note_on_c, 0, 87, 37
1, 115140, Note_on_c, 0, 63, 0
1, 115140, Note_on_c, 0, 60, 0
1, 115140, Note_on_c, 0, 68, 0
1, 115200, Tempo, 528634
1, 115200, Note_on_c, 0, 87, 0
1, 115200, Note_on_c, 0, 75, 50
1, 115200, Note_on_c, 0, 51, 37
1, 115200, Control_c, 0, 64, 0
1, 115296, Control_c, 0, 64, 127
1, 115320, Note_on_c, 0, 75, 0
1, 115320, Note_on_c, 0, 87, 37
1, 115440, Tempo, 519481
1, 115440, Note_on_c, 0, 87, 0
1, 115440, Note_on_c, 0, 51, 0
1, 115440, Note_on_c, 0, 85, 44
1, 115440, Note_on_c, 0, 67, 28
1, 115440, Note_on_c, 0, 58, 23
1, 115440, Note_on_c, 0, 63, 23
1, 115560, Note_on_c, 0, 85, 0
1, 115560, Note_on_c, 0, 75, 37
1, 115620, Note_on_c, 0, 67, 0
1, 115620, Note_on_c, 0, 63, 0
1, 115620, Note_on_c, 0, 58, 0
1, 115680, Note_on_c, 0, 75, 0
1, 115680, Note_on_c, 0, 75, 48
1, 115680, Note_on_c, 0, 63, 23
1, 115680, Note_on_c, 0, 58, 23
1, 115680, Note_on_c, 0, 67, 28
1, 115800, Note_on_c, 0, 75, 0
1, 115800, Note_on_c, 0, 87, 37
1, 115860, Note_on_c, 0, 63, 0
1, 115860, Note_on_c, 0, 67, 0
1, 115860, Note_on_c, 0, 58, 0
1, 115920, Tempo, 530973
1, 115920, Note_on_c, 0, 87, 0
1, 115920, Note_on_c, 0, 85, 43
1, 115920, Note_on_c, 0, 63, 23
1, 115920, Note_on_c, 0, 58, 23
1, 115920, Note_on_c, 0, 67, 28
1, 116040, Note_on_c, 0, 85, 0
1, 116040, Note_on_c, 0, 75, 37
1, 116100, Note_on_c, 0, 63, 0
1, 116100, Note_on_c, 0, 67, 0
1, 116100, Note_on_c, 0, 58, 0
1, 116160, Tempo, 528634
1, 116160, Note_on_c, 0, 75, 0
1, 116160, Note_on_c, 0, 75, 48
1, 116160, Note_on_c, 0, 58, 31
1, 116160, Note_on_c, 0, 63, 31
1, 116160, Note_on_c, 0, 67, 37
1, 116280, Note_on_c, 0, 75, 0
1, 116280, Note_on_c, 0, 87, 37
1, 116340, Note_on_c, 0, 58, 0
1, 116340, Note_on_c, 0, 67, 0
1, 116340, Note_on_c, 0, 63, 0
1, 116400, Note_on_c, 0, 87, 0
1, 116400, Note_on_c, 0, 85, 48
1, 116400, Note_on_c, 0, 63, 24
1, 116400, Note_on_c, 0, 67, 29
1, 116400, Note_on_c, 0, 58, 24
1, 116520, Note_on_c, 0, 85, 0
1, 116520, Note_on_c, 0, 75, 44
1, 116580, Note_on_c, 0, 63, 0
1, 116580, Note_on_c, 0, 58, 0
1, 116580, Note_on_c, 0, 67, 0
1, 116640, Note_on_c, 0, 75, 0
1, 116640, Note_on_c, 0, 84, 53
1, 116640, Note_on_c, 0, 68, 31
1, 116640, Note_on_c, 0, 63, 26
1, 116640, Note_on_c, 0, 60, 26
1, 116651, Control_c, 0, 64, 0
1, 116707, Control_c, 0, 64, 127
1, 116760, Note_on_c, 0, 84, 0
1, 116760, Note_on_c, 0, 87, 46
1, 116880, Tempo, 540541
1, 116880, Note_on_c, 0, 87, 0
1, 116880, Note_on_c, 0, 60, 0
1, 116880, Note_on_c, 0, 63, 0
1, 116880, Note_on_c, 0, 68, 0
1, 116880, Note_on_c, 0, 82, 52
1, 116880, Note_on_c, 0, 61, 28
1, 116880, Note_on_c, 0, 70, 33
1, 116880, Note_on_c, 0, 63, 28
1, 117000, Note_on_c, 0, 82, 0
1, 117000, Note_on_c, 0, 87, 47
1, 117120, Tempo, 566038
1, 117120, Note_on_c, 0, 87, 0
1, 117120, Note_on_c, 0, 63, 0
1, 117120, Note_on_c, 0, 70, 0
1, 117120, Note_on_c, 0, 61, 0
1, 117120, Note_on_c, 0, 75, 58
1, 117120, Note_on_c, 0, 61, 29
1, 117120, Note_on_c, 0, 63, 33
1, 117120, Note_on_c, 0, 56, 43
1, 117120, Control_c, 0, 64, 0
1, 117187, Control_c, 0, 64, 127
1, 117240, Note_on_c, 0, 75, 0
1, 117240, Note_on_c, 0, 87, 36
1, 117360, Tempo, 510638
1, 117360, Note_on_c, 0, 87, 0
1, 117360, Note_on_c, 0, 61, 0
1, 117360, Note_on_c, 0, 63, 0
1, 117360, Note_on_c, 0, 84, 44
1, 117360, Note_on_c, 0, 63, 23
1, 117360, Note_on_c, 0, 68, 28
1, 117360, Note_on_c, 0, 60, 23
1, 117480, Note_on_c, 0, 84, 0
1, 117480, Note_on_c, 0, 75, 36
1, 117540, Note_on_c, 0, 68, 0
1, 117540, Note_on_c, 0, 60, 0
1, 117540, Note_on_c, 0, 63, 0
1, 117600, Tempo, 515021
1, 117600, Note_on_c, 0, 75, 0
1, 117600, Note_on_c, 0, 75, 50
1, 117600, Note_on_c, 0, 63, 23
1, 117600, Note_on_c, 0, 68, 28
1, 117600, Note_on_c, 0, 60, 23
1, 117720, Note_on_c, 0, 75, 0
1, 117720, Note_on_c, 0, 87, 36
1, 117780, Note_on_c, 0, 68, 0
1, 117780, Note_on_c, 0, 60, 0
1, 117780, Note_on_c, 0, 63, 0
1, 117840, Tempo, 535714
1, 117840, Note_on_c, 0, 87, 0
1, 117840, Note_on_c, 0, 84, 43
1, 117840, Note_on_c, 0, 68, 31
1, 117840, Note_on_c, 0, 60, 26
1, 117840, Note_on_c, 0, 63, 26
1, 117960, Note_on_c, 0, 84, 0
1, 117960, Note_on_c, 0, 75, 36
1, 118020, Note_on_c, 0, 60, 0
1, 118020, Note_on_c, 0, 63, 0
1, 118020, Note_on_c, 0, 68, 0
1, 118080, Tempo, 519481
1, 118080, Note_on_c, 0, 56, 0
1, 118080, Note_on_c, 0, 75, 0
1, 118080, Note_on_c, 0, 75, 50
1, 118080, Note_on_c, 0, 68, 31
1, 118088, Control_c, 0, 64, 0
1, 118140, Note_on_c, 0, 72, 37
1, 118140, Note_on_c, 0, 63, 31
1, 118154, Control_c, 0, 64, 127
1, 118200, Note_on_c, 0, 75, 0
1, 118200, Note_on_c, 0, 87, 36
1, 118320, Tempo, 585366
1, 118320, Note_on_c, 0, 87, 0
1, 118320, Note_on_c, 0, 63, 0
1, 118320, Note_on_c, 0, 72, 0
1, 118320, Note_on_c, 0, 68, 0
1, 118320, Note_on_c, 0, 84, 44
1, 118320, Note_on_c, 0, 63, 26
1, 118320, Note_on_c, 0, 68, 31
1, 118320, Note_on_c, 0, 60, 26
1, 118440, Note_on_c, 0, 84, 0
1, 118440, Note_on_c, 0, 75, 36
1, 118500, Note_on_c, 0, 63, 0
1, 118500, Note_on_c, 0, 60, 0
1, 118500, Note_on_c, 0, 68, 0
1, 118560, Tempo, 519481
1, 118560, Note_on_c, 0, 75, 0
1, 118560, Note_on_c, 0, 80, 53
1, 118560, Note_on_c, 0, 68, 31
1, 118560, Note_on_c, 0, 60, 26
1, 118560, Note_on_c, 0, 63, 26
1, 118680, Note_on_c, 0, 80, 0
1, 118680, Note_on_c, 0, 92, 44
1, 118740, Note_on_c, 0, 68, 0
1, 118740, Note_on_c, 0, 63, 0
1, 118740, Note_on_c, 0, 60, 0
1, 118800, Tempo, 535714
1, 118800, Note_on_c, 0, 92, 0
1, 118800, Note_on_c, 0, 75, 53
1, 118800, Note_on_c, 0, 68, 31
1, 118800, Note_on_c, 0, 60, 26
1, 118800, Note_on_c, 0, 63, 26
1, 118920, Note_on_c, 0, 75, 0
1, 118920, Note_on_c, 0, 87, 47
1, 118980, Note_on_c, 0, 68, 0
1, 118980, Note_on_c, 0, 63, 0
1, 118980, Note_on_c, 0, 60, 0
1, 119040, Tempo, 528634
1, 119040, Note_on_c, 0, 87, 0
1, 119040, Note_on_c, 0, 87, 63
1, 119040, Note_on_c, 0, 51, 37
1, 119040, Control_c, 0, 64, 0
1, 119136, Control_c, 0, 64, 127
1, 119160, Note_on_c, 0, 87, 0
1, 119160, Note_on_c, 0, 99, 52
1, 119280, Tempo, 519481
1, 119280, Note_on_c, 0, 99, 0
1, 119280, Note_on_c, 0, 51, 0
1, 119280, Note_on_c, 0, 97, 62
1, 119280, Note_on_c, 0, 58, 23
1, 119280, Note_on_c, 0, 63, 23
1, 119280, Note_on_c, 0, 67, 28
1, 119400, Note_on_c, 0, 97, 0
1, 119400, Note_on_c, 0, 87, 50
1, 119460, Note_on_c, 0, 58, 0
1, 119460, Note_on_c, 0, 67, 0
1, 119460, Note_on_c, 0, 63, 0
1, 119513, Tempo, 521739
1, 119520, Note_on_c, 0, 87, 0
1, 119520, Note_on_c, 0, 87, 63
1, 119520, Note_on_c, 0, 67, 28
1, 119520, Note_on_c, 0, 63, 23
1, 119520, Note_on_c, 0, 58, 23
1, 119590, Tempo, 524017
1, 119640, Note_on_c, 0, 87, 0
1, 119640, Note_on_c, 0, 99, 54
1, 119667, Tempo, 526316
1, 119700, Note_on_c, 0, 67, 0
1, 119700, Note_on_c, 0, 58, 0
1, 119700, Note_on_c, 0, 63, 0
1, 119744, Tempo, 528634
1, 119760, Note_on_c, 0, 99, 0
1, 119760, Note_on_c, 0, 97, 59
1, 119760, Note_on_c, 0, 63, 23
1, 119760, Note_on_c, 0, 67, 28
1, 119760, Note_on_c, 0, 58, 23
1, 119821, Tempo, 530973
1, 119880, Note_on_c, 0, 97, 0
1, 119880, Note_on_c, 0, 87, 51
1, 119897, Tempo, 533333
1, 119940, Note_on_c, 0, 63, 0
1, 119940, Note_on_c, 0, 58, 0
1, 119940, Note_on_c, 0, 67, 0
1, 119974, Tempo, 535714
1, 119993, Tempo, 558140
1, 120000, Note_on_c, 0, 87, 0
1, 120000, Note_on_c, 0, 87, 64
1, 120000, Note_on_c, 0, 58, 31
1, 120000, Note_on_c, 0, 67, 37
1, 120000, Note_on_c, 0, 63, 31
1, 120032, Tempo, 560748
1, 120051, Tempo, 563380
1, 120089, Tempo, 566038
1, 120109, Tempo, 568720
1, 120120, Note_on_c, 0, 87, 0
1, 120120, Note_on_c, 0, 99, 48
1, 120128, Tempo, 571429
1, 120166, Tempo, 574163
1, 120180, Note_on_c, 0, 58, 0
1, 120180, Note_on_c, 0, 63, 0
1, 120180, Note_on_c, 0, 67, 0
1, 120185, Tempo, 576923
1, 120224, Tempo, 579710
1, 120240, Note_on_c, 0, 99, 0
1, 120240, Note_on_c, 0, 97, 57
1, 120240, Note_on_c, 0, 63, 24
1, 120240, Note_on_c, 0, 67, 29
1, 120240, Note_on_c, 0, 58, 24
1, 120243, Tempo, 582524
1, 120262, Tempo, 585366
1, 120301, Tempo, 588235
1, 120320, Tempo, 591133
1, 120358, Tempo, 594059
1, 120360, Note_on_c, 0, 97, 0
1, 120360, Note_on_c, 0, 87, 46
1, 120377, Tempo, 597015
1, 120397, Tempo, 600000
1, 120420, Note_on_c, 0, 63, 0
1, 120420, Note_on_c, 0, 58, 0
1, 120420, Note_on_c, 0, 67, 0
1, 120435, Tempo, 603015
1, 120454, Tempo, 606061
1, 120473, Tempo, 609137
1, 120480, Note_on_c, 0, 87, 0
1, 120480, Note_on_c, 0, 96, 63
1, 120480, Note_on_c, 0, 68, 31
1, 120480, Note_on_c, 0, 63, 26
1, 120480, Note_on_c, 0, 60, 26
1, 120491, Control_c, 0, 64, 0
1, 120547, Control_c, 0, 64, 127
1, 120600, Note_on_c, 0, 96, 0
1, 120600, Note_on_c, 0, 99, 52
1, 120720, Tempo, 674157
1, 120720, Note_on_c, 0, 99, 0
1, 120720, Note_on_c, 0, 60, 0
1, 120720, Note_on_c, 0, 63, 0
1, 120720, Note_on_c, 0, 68, 0
1, 120720, Note_on_c, 0, 94, 59
1, 120720, Note_on_c, 0, 70, 33
1, 120720, Note_on_c, 0, 63, 28
1, 120720, Note_on_c, 0, 61, 28
1, 120840, Note_on_c, 0, 94, 0
1, 120840, Note_on_c, 0, 99, 48
1, 120960, Tempo, 582524
1, 120960, Note_on_c, 0, 99, 0
1, 120960, Note_on_c, 0, 61, 0
1, 120960, Note_on_c, 0, 63, 0
1, 120960, Note_on_c, 0, 70, 0
1, 120960, Note_on_c, 0, 94, 59
1, 120960, Note_on_c, 0, 51, 33
1, 120960, Control_c, 0, 64, 0
1, 121143, Control_c, 0, 64, 127
1, 121200, Note_on_c, 0, 51, 0
1, 121440, Tempo, 568720
1, 121440, Note_on_c, 0, 70, 33
1, 121440, Note_on_c, 0, 63, 33
1, 121440, Note_on_c, 0, 61, 33
1, 121920, Tempo, 576923
1, 122160, Note_on_c, 0, 94, 0
1, 122160, Note_on_c, 0, 96, 66
1, 122165, Control_c, 0, 64, 0
1, 122400, Tempo, 603015
1, 122400, Note_on_c, 0, 96, 0
1, 122400, Note_on_c, 0, 97, 71
1, 122640, Note_on_c, 0, 97, 0
1, 122640, Note_on_c, 0, 98, 75
1, 122880, Tempo, 526316
1, 122880, Note_on_c, 0, 98, 0
1, 122880, Note_on_c, 0, 99, 79
1, 122880, Control_c, 0, 64, 127
1, 124320, Note_on_c, 0, 99, 0
1, 124320, Note_on_c, 0, 91, 66
1, 124800, Tempo, 504202
1, 124800, Note_on_c, 0, 91, 0
1, 124800, Note_on_c, 0, 61, 0
1, 124800, Note_on_c, 0, 63, 0
1, 124800, Note_on_c, 0, 70, 0
1, 124800, Note_on_c, 0, 96, 56
1, 124800, Note_on_c, 0, 68, 33
1, 124800, Note_on_c, 0, 56, 33
1, 124800, Note_on_c, 0, 63, 33
1, 124800, Note_on_c, 0, 60, 33
1, 124800, Control_c, 0, 64, 0
1, 124899, Control_c, 0, 64, 127
1, 124920, Note_on_c, 0, 96, 0
1, 124920, Note_on_c, 0, 99, 49
1, 125040, Note_on_c, 0, 99, 0
1, 125040, Note_on_c, 0, 92, 49
1, 125160, Note_on_c, 0, 92, 0
1, 125160, Note_on_c, 0, 96, 45
1, 125280, Note_on_c, 0, 96, 0
1, 125280, Note_on_c, 0, 87, 56
1, 125400, Note_on_c, 0, 87, 0
1, 125400, Note_on_c, 0, 92, 50
1, 125520, Note_on_c, 0, 92, 0
1, 125520, Note_on_c, 0, 84, 50
1, 125640, Note_on_c, 0, 84, 0
1, 125640, Note_on_c, 0, 87, 45
1, 125760, Note_on_c, 0, 87, 0
1, 125760, Note_on_c, 0, 80, 56
1, 125880, Note_on_c, 0, 80, 0
1, 125880, Note_on_c, 0, 84, 50
1, 126000, Note_on_c, 0, 84, 0
1, 126000, Note_on_c, 0, 75, 50
1, 126120, Note_on_c, 0, 75, 0
1, 126120, Note_on_c, 0, 80, 50
1, 126240, Note_on_c, 0, 80, 0
1, 126240, Note_on_c, 0, 60, 0
1, 126240, Note_on_c, 0, 68, 0
1, 126240, Note_on_c, 0, 56, 0
1, 126240, Note_on_c, 0, 63, 0
1, 126240, Note_on_c, 0, 72, 56
1, 126360, Note_on_c, 0, 72, 0
1, 126360, Note_on_c, 0, 75, 50
1, 126480, Note_on_c, 0, 75, 0
1, 126480, Note_on_c, 0, 68, 50
1, 126600, Tempo, 538117
1, 126600, Note_on_c, 0, 68, 0
1, 126600, Note_on_c, 0, 72, 45
1, 126720, Tempo, 497925
1, 126720, Note_on_c, 0, 72, 0
1, 126720, Note_on_c, 0, 63, 53
1, 126840, Note_on_c, 0, 63, 0
1, 126840, Note_on_c, 0, 68, 44
1, 126960, Note_on_c, 0, 68, 0
1, 126960, Note_on_c, 0, 60, 44
1, 127080, Note_on_c, 0, 60, 0
1, 127080, Note_on_c, 0, 63, 40
1, 127200, Note_on_c, 0, 63, 0
1, 127200, Note_on_c, 0, 56, 46
1, 127320, Note_on_c, 0, 56, 0
1, 127320, Note_on_c, 0, 60, 39
1, 127440, Note_on_c, 0, 60, 0
1, 127440, Note_on_c, 0, 51, 39
1, 127560, Tempo, 533333
1, 127560, Note_on_c, 0, 51, 0
1, 127560, Note_on_c, 0, 56, 35
1, 127680, Tempo, 495868
1, 127680, Note_on_c, 0, 56, 0
1, 127680, Note_on_c, 0, 60, 44
1, 127800, Note_on_c, 0, 60, 0
1, 127800, Note_on_c, 0, 63, 37
1, 127920, Note_on_c, 0, 63, 0
1, 127920, Note_on_c, 0, 51, 37
1, 128040, Note_on_c, 0, 51, 0
1, 128040, Note_on_c, 0, 56, 33
1, 128160, Note_on_c, 0, 56, 0
1, 128160, Note_on_c, 0, 60, 43
1, 128280, Note_on_c, 0, 60, 0
1, 128280, Note_on_c, 0, 63, 35
1, 128400, Note_on_c, 0, 63, 0
1, 128400, Note_on_c, 0, 51, 35
1, 128520, Tempo, 542986
1, 128520, Note_on_c, 0, 51, 0
1, 128520, Note_on_c, 0, 56, 30
1, 128573, Tempo, 497925
1, 128640, Note_on_c, 0, 56, 0
1, 128640, Note_on_c, 0, 60, 41
1, 128746, Tempo, 500000
1, 128760, Note_on_c, 0, 60, 0
1, 128760, Note_on_c, 0, 63, 34
1, 128880, Note_on_c, 0, 63, 0
1, 128880, Note_on_c, 0, 51, 34
1, 128918, Tempo, 502092
1, 129000, Note_on_c, 0, 51, 0
1, 129000, Note_on_c, 0, 56, 28
1, 129091, Tempo, 504202
1, 129120, Note_on_c, 0, 56, 0
1, 129120, Note_on_c, 0, 60, 40
1, 129240, Note_on_c, 0, 60, 0
1, 129240, Note_on_c, 0, 63, 31
1, 129264, Tempo, 506329
1, 129360, Note_on_c, 0, 63, 0
1, 129360, Note_on_c, 0, 51, 31
1, 129437, Tempo, 508475
1, 129480, Note_on_c, 0, 51, 0
1, 129480, Note_on_c, 0, 56, 27
1, 129571, Tempo, 508475
1, 129600, Note_on_c, 0, 56, 0
1, 129600, Note_on_c, 0, 60, 38
1, 129610, Tempo, 510638
1, 129629, Tempo, 512821
1, 129667, Tempo, 515021
1, 129686, Tempo, 517241
1, 129720, Note_on_c, 0, 60, 0
1, 129720, Note_on_c, 0, 63, 31
1, 129725, Tempo, 519481
1, 129744, Tempo, 521739
1, 129782, Tempo, 524017
1, 129802, Tempo, 526316
1, 129840, Tempo, 528634
1, 129840, Note_on_c, 0, 63, 0
1, 129840, Note_on_c, 0, 51, 30
1, 129859, Tempo, 530973
1, 129898, Tempo, 533333
1, 129917, Tempo, 535714
1, 129955, Tempo, 538117
1, 129960, Note_on_c, 0, 51, 0
1, 129960, Note_on_c, 0, 56, 28
1, 129974, Tempo, 540541
1, 130013, Tempo, 542986
1, 130032, Tempo, 545455
1, 130051, Tempo, 547945
1, 130080, Note_on_c, 0, 56, 0
1, 130080, Note_on_c, 0, 60, 38
1, 130090, Tempo, 550459
1, 130109, Tempo, 552995
1, 130147, Tempo, 555556
1, 130166, Tempo, 558140
1, 130200, Note_on_c, 0, 60, 0
1, 130200, Note_on_c, 0, 63, 29
1, 130205, Tempo, 560748
1, 130224, Tempo, 563380
1, 130262, Tempo, 566038
1, 130282, Tempo, 568720
1, 130320, Tempo, 571429
1, 130320, Note_on_c, 0, 63, 0
1, 130320, Note_on_c, 0, 51, 29
1, 130339, Tempo, 574163
1, 130378, Tempo, 576923
1, 130397, Tempo, 579710
1, 130435, Tempo, 582524
1, 130440, Note_on_c, 0, 51, 0
1, 130440, Note_on_c, 0, 56, 25
1, 130454, Tempo, 585366
1, 130474, Tempo, 588235
1, 130493, Tempo, 594059
1, 130531, Tempo, 597015
1, 130560, Tempo, 500000
1, 130560, Marker_t, "appassionato"
1, 130560, Note_on_c, 0, 56, 0
1, 130560, Note_on_c, 0, 44, 37
1, 130560, Note_on_c, 0, 59, 37
1, 130560, Note_on_c, 0, 32, 28
1, 130560, Control_c, 0, 64, 0
1, 130646, Control_c, 0, 64, 127
1, 130675, Note_on_c, 0, 63, 29
1, 130680, Tempo, 497925
1, 130680, Note_on_c, 0, 59, 0
1, 130795, Note_on_c, 0, 63, 0
1, 130800, Note_on_c, 0, 51, 29
1, 130920, Tempo, 497925
1, 130920, Note_on_c, 0, 51, 0
1, 130920, Note_on_c, 0, 56, 25
1, 131040, Tempo, 510638
1, 131040, Note_on_c, 0, 56, 0
1, 131040, Note_on_c, 0, 32, 0
1, 131040, Note_on_c, 0, 44, 0
1, 131040, Note_on_c, 0, 59, 37
1, 131160, Tempo, 495868
1, 131160, Note_on_c, 0, 59, 0
1, 131160, Note_on_c, 0, 63, 29
1, 131280, Tempo, 502092
1, 131280, Note_on_c, 0, 63, 0
1, 131280, Note_on_c, 0, 51, 29
1, 131400, Tempo, 500000
1, 131400, Note_on_c, 0, 51, 0
1, 131400, Note_on_c, 0, 56, 25
1, 131520, Tempo, 506329
1, 131520, Note_on_c, 0, 56, 0
1, 131520, Note_on_c, 0, 59, 37
1, 131640, Tempo, 497925
1, 131640, Note_on_c, 0, 59, 0
1, 131640, Note_on_c, 0, 63, 29
1, 131760, Tempo, 517241
1, 131760, Note_on_c, 0, 63, 0
1, 131760, Note_on_c, 0, 51, 29
1, 131880, Note_on_c, 0, 51, 0
1, 131880, Note_on_c, 0, 56, 26
1, 132000, Tempo, 504202
1, 132000, Note_on_c, 0, 56, 0
1, 132000, Note_on_c, 0, 71, 45
1, 132000, Note_on_c, 0, 68, 38
1, 132000, Note_on_c, 0, 59, 37
1, 132017, Control_c, 0, 64, 0
1, 132075, Control_c, 0, 64, 127
1, 132120, Note_on_c, 0, 59, 0
1, 132120, Note_on_c, 0, 63, 29
1, 132240, Tempo, 528634
1, 132240, Note_on_c, 0, 63, 0
1, 132240, Note_on_c, 0, 68, 0
1, 132240, Note_on_c, 0, 71, 0
1, 132240, Note_on_c, 0, 70, 40
1, 132240, Note_on_c, 0, 73, 48
1, 132240, Note_on_c, 0, 61, 36
1, 132360, Tempo, 638298
1, 132360, Note_on_c, 0, 61, 0
1, 132360, Note_on_c, 0, 63, 39
1, 132478, Tempo, 497925
1, 132480, Note_on_c, 0, 63, 0
1, 132480, Note_on_c, 0, 73, 0
1, 132480, Note_on_c, 0, 70, 0
1, 132480, Note_on_c, 0, 75, 50
1, 132480, Note_on_c, 0, 71, 42
1, 132480, Note_on_c, 0, 59, 47
1, 132480, Control_c, 0, 64, 0
1, 132497, Tempo, 493827
1, 132516, Tempo, 491803
1, 132549, Control_c, 0, 64, 127
1, 132593, Tempo, 493827
1, 132600, Note_on_c, 0, 59, 0
1, 132600, Note_on_c, 0, 63, 36
1, 132612, Tempo, 495868
1, 132689, Tempo, 500000
1, 132720, Note_on_c, 0, 63, 0
1, 132720, Note_on_c, 0, 51, 36
1, 132727, Tempo, 502092
1, 132766, Tempo, 504202
1, 132785, Tempo, 502092
1, 132804, Tempo, 495868
1, 132823, Tempo, 493827
1, 132840, Note_on_c, 0, 51, 0
1, 132840, Note_on_c, 0, 56, 32
1, 132960, Note_on_c, 0, 56, 0
1, 132960, Note_on_c, 0, 71, 0
1, 132960, Note_on_c, 0, 75, 0
1, 132960, Note_on_c, 0, 59, 40
1, 132977, Tempo, 504202
1, 132996, Tempo, 506329
1, 133015, Tempo, 495868
1, 133035, Tempo, 493827
1, 133080, Note_on_c, 0, 59, 0
1, 133080, Note_on_c, 0, 63, 36
1, 133200, Note_on_c, 0, 63, 0
1, 133200, Note_on_c, 0, 51, 36
1, 133227, Tempo, 495868
1, 133246, Tempo, 497925
1, 133265, Tempo, 500000
1, 133320, Note_on_c, 0, 51, 0
1, 133320, Note_on_c, 0, 56, 33
1, 133342, Tempo, 493827
1, 133361, Tempo, 495868
1, 133440, Tempo, 538117
1, 133440, Note_on_c, 0, 56, 0
1, 133440, Note_on_c, 0, 59, 45
1, 133560, Note_on_c, 0, 59, 0
1, 133560, Note_on_c, 0, 63, 35
1, 133680, Tempo, 500000
1, 133680, Note_on_c, 0, 63, 0
1, 133680, Note_on_c, 0, 47, 44
1, 133680, Note_on_c, 0, 51, 37
1, 133680, Note_on_c, 0, 56, 35
1, 133680, Note_on_c, 0, 59, 35
1, 133692, Control_c, 0, 64, 0
1, 133749, Control_c, 0, 64, 127
1, 133800, Note_on_c, 0, 59, 0
1, 133800, Note_on_c, 0, 56, 0
1, 133800, Note_on_c, 0, 63, 35
1, 133920, Note_on_c, 0, 63, 0
1, 133920, Note_on_c, 0, 51, 0
1, 133920, Note_on_c, 0, 47, 0
1, 133920, Note_on_c, 0, 51, 39
1, 133920, Note_on_c, 0, 46, 47
1, 133920, Note_on_c, 0, 55, 44
1, 133920, Note_on_c, 0, 61, 44
1, 133941, Control_c, 0, 64, 0
1, 133944, Tempo, 502092
1, 133956, Tempo, 500000
1, 133968, Tempo, 495868
1, 133980, Tempo, 493827
1, 134006, Control_c, 0, 64, 127
1, 134016, Tempo, 500000
1, 134028, Tempo, 504202
1, 134040, Tempo, 506329
1, 134040, Note_on_c, 0, 61, 0
1, 134040, Note_on_c, 0, 55, 0
1, 134040, Note_on_c, 0, 63, 29
1, 134076, Tempo, 502092
1, 134088, Tempo, 500000
1, 134100, Tempo, 497925
1, 134160, Note_on_c, 0, 63, 0
1, 134160, Note_on_c, 0, 46, 0
1, 134160, Note_on_c, 0, 51, 0
1, 134160, Note_on_c, 0, 44, 50
1, 134160, Note_on_c, 0, 51, 42
1, 134160, Note_on_c, 0, 59, 31
1, 134160, Note_on_c, 0, 56, 31
1, 134172, Tempo, 506329
1, 134172, Control_c, 0, 64, 0
1, 134220, Tempo, 502092
1, 134223, Control_c, 0, 64, 127
1, 134232, Tempo, 500000
1, 134280, Note_on_c, 0, 56, 0
1, 134280, Note_on_c, 0, 59, 0
1, 134280, Note_on_c, 0, 63, 27
1, 134316, Tempo, 497925
1, 134328, Tempo, 500000
1, 134400, Tempo, 500000
1, 134400, Note_on_c, 0, 63, 0
1, 134400, Note_on_c, 0, 51, 0
1, 134400, Note_on_c, 0, 44, 0
1, 134400, Note_on_c, 0, 39, 55
1, 134400, Note_on_c, 0, 51, 39
1, 134400, Note_on_c, 0, 58, 37
1, 134400, Note_on_c, 0, 55, 37
1, 134400, Control_c, 0, 64, 0
1, 134424, Tempo, 497925
1, 134448, Tempo, 495868
1, 134460, Tempo, 493827
1, 134508, Tempo, 504202
1, 134515, Note_on_c, 0, 63, 29
1, 134520, Note_on_c, 0, 55, 0
1, 134520, Note_on_c, 0, 58, 0
1, 134541, Control_c, 0, 64, 127
1, 134556, Tempo, 502092
1, 134568, Tempo, 493827
1, 134580, Tempo, 491803
1, 134635, Note_on_c, 0, 63, 0
1, 134640, Note_on_c, 0, 51, 0
1, 134640, Note_on_c, 0, 39, 0
1, 134640, Note_on_c, 0, 51, 29
1, 134652, Tempo, 493827
1, 134664, Tempo, 495868
1, 134676, Tempo, 500000
1, 134688, Tempo, 502092
1, 134736, Tempo, 500000
1, 134760, Note_on_c, 0, 51, 0
1, 134760, Note_on_c, 0, 55, 26
1, 134772, Tempo, 493827
1, 134784, Tempo, 489796
1, 134820, Tempo, 491803
1, 134832, Tempo, 493827
1, 134844, Tempo, 495868
1, 134880, Note_on_c, 0, 55, 0
1, 134880, Note_on_c, 0, 58, 37
1, 134928, Tempo, 497925
1, 134940, Tempo, 500000
1, 134952, Tempo, 502092
1, 134988, Tempo, 497925
1, 135000, Note_on_c, 0, 58, 0
1, 135000, Note_on_c, 0, 63, 29
1, 135012, Tempo, 493827
1, 135036, Tempo, 489796
1, 135072, Tempo, 493827
1, 135084, Tempo, 497925
1, 135096, Tempo, 500000
1, 135108, Tempo, 502092
1, 135120, Note_on_c, 0, 63, 0
1, 135120, Note_on_c, 0, 51, 29
1, 135168, Tempo, 500000
1, 135192, Tempo, 491803
1, 135240, Tempo, 493827
1, 135240, Note_on_c, 0, 51, 0
1, 135240, Note_on_c, 0, 55, 24
1, 135252, Tempo, 495868
1, 135264, Tempo, 500000
1, 135276, Tempo, 502092
1, 135288, Tempo, 504202
1, 135300, Tempo, 506329
1, 135360, Tempo, 500000
1, 135360, Note_on_c, 0, 55, 0
1, 135360, Note_on_c, 0, 58, 37
1, 135372, Tempo, 495868
1, 135420, Tempo, 497925
1, 135432, Tempo, 500000
1, 135468, Tempo, 502092
1, 135480, Note_on_c, 0, 58, 0
1, 135480, Note_on_c, 0, 63, 29
1, 135504, Tempo, 500000
1, 135600, Tempo, 517241
1, 135600, Note_on_c, 0, 63, 0
1, 135600, Note_on_c, 0, 51, 29
1, 135720, Note_on_c, 0, 51, 0
1, 135720, Note_on_c, 0, 55, 26
1, 135840, Tempo, 504202
1, 135840, Note_on_c, 0, 55, 0
1, 135840, Note_on_c, 0, 70, 54
1, 135840, Note_on_c, 0, 73, 64
1, 135840, Note_on_c, 0, 58, 42
1, 135861, Control_c, 0, 64, 0
1, 135953, Control_c, 0, 64, 127
1, 135960, Note_on_c, 0, 58, 0
1, 135960, Note_on_c, 0, 63, 31
1, 136080, Tempo, 528634
1, 136080, Note_on_c, 0, 63, 0
1, 136080, Note_on_c, 0, 73, 0
1, 136080, Note_on_c, 0, 70, 0
1, 136080, Note_on_c, 0, 76, 61
1, 136080, Note_on_c, 0, 73, 51
1, 136080, Note_on_c, 0, 61, 31
1, 136200, Tempo, 638298
1, 136200, Note_on_c, 0, 61, 0
1, 136200, Note_on_c, 0, 63, 27
1, 136320, Tempo, 502092
1, 136320, Note_on_c, 0, 63, 0
1, 136320, Note_on_c, 0, 73, 0
1, 136320, Note_on_c, 0, 76, 0
1, 136320, Note_on_c, 0, 75, 57
1, 136320, Note_on_c, 0, 71, 48
1, 136320, Note_on_c, 0, 59, 39
1, 136320, Control_c, 0, 64, 0
1, 136344, Tempo, 500000
1, 136356, Tempo, 497925
1, 136368, Tempo, 493827
1, 136389, Control_c, 0, 64, 127
1, 136428, Tempo, 495868
1, 136440, Tempo, 497925
1, 136440, Note_on_c, 0, 59, 0
1, 136447, Note_on_c, 0, 63, 29
1, 136488, Tempo, 500000
1, 136500, Tempo, 502092
1, 136524, Tempo, 504202
1, 136548, Tempo, 500000
1, 136560, Tempo, 495868
1, 136567, Note_on_c, 0, 63, 0
1, 136572, Tempo, 493827
1, 136572, Note_on_c, 0, 51, 29
1, 136596, Tempo, 491803
1, 136620, Tempo, 489796
1, 136656, Tempo, 491803
1, 136668, Tempo, 493827
1, 136692, Note_on_c, 0, 51, 0
1, 136692, Note_on_c, 0, 56, 25
1, 136740, Tempo, 487805
1, 136764, Tempo, 485830
1, 136800, Note_on_c, 0, 71, 0
1, 136800, Note_on_c, 0, 75, 0
1, 136812, Note_on_c, 0, 56, 0
1, 136812, Note_on_c, 0, 59, 42
1, 136848, Tempo, 493827
1, 136860, Tempo, 495868
1, 136932, Tempo, 493827
1, 136932, Note_on_c, 0, 59, 0
1, 136932, Note_on_c, 0, 63, 34
1, 136944, Tempo, 491803
1, 136956, Tempo, 489796
1, 136980, Tempo, 487805
1, 136992, Tempo, 485830
1, 137016, Tempo, 489796
1, 137040, Tempo, 495868
1, 137052, Tempo, 497925
1, 137052, Note_on_c, 0, 63, 0
1, 137052, Note_on_c, 0, 51, 34
1, 137112, Tempo, 495868
1, 137160, Tempo, 500000
1, 137172, Tempo, 495868
1, 137172, Note_on_c, 0, 51, 0
1, 137172, Note_on_c, 0, 56, 27
1, 137184, Tempo, 497925
1, 137280, Tempo, 538117
1, 137292, Note_on_c, 0, 56, 0
1, 137292, Note_on_c, 0, 59, 41
1, 137412, Note_on_c, 0, 59, 0
1, 137412, Note_on_c, 0, 63, 33
1, 137520, Tempo, 500000
1, 137520, Note_on_c, 0, 51, 33
1, 137532, Note_on_c, 0, 63, 0
1, 137640, Note_on_c, 0, 51, 0
1, 137640, Note_on_c, 0, 56, 29
1, 137748, Tempo, 497925
1, 137760, Note_on_c, 0, 56, 0
1, 137760, Note_on_c, 0, 51, 41
1, 137760, Note_on_c, 0, 47, 57
1, 137760, Note_on_c, 0, 59, 37
1, 137782, Control_c, 0, 64, 0
1, 137784, Tempo, 495868
1, 137796, Tempo, 491803
1, 137844, Tempo, 493827
1, 137856, Tempo, 495868
1, 137863, Control_c, 0, 64, 127
1, 137868, Tempo, 497925
1, 137880, Note_on_c, 0, 59, 0
1, 137892, Tempo, 502092
1, 137892, Note_on_c, 0, 63, 29
1, 137904, Tempo, 504202
1, 137940, Tempo, 502092
1, 137952, Tempo, 500000
1, 137964, Tempo, 491803
1, 137976, Tempo, 489796
1, 137988, Tempo, 487805
1, 138000, Note_on_c, 0, 47, 0
1, 138000, Note_on_c, 0, 51, 0
1, 138000, Note_on_c, 0, 46, 47
1, 138000, Note_on_c, 0, 51, 39
1, 138000, Note_on_c, 0, 61, 29
1, 138000, Note_on_c, 0, 55, 29
1, 138006, Control_c, 0, 64, 0
1, 138012, Tempo, 500000
1, 138012, Note_on_c, 0, 63, 0
1, 138024, Tempo, 502092
1, 138036, Tempo, 504202
1, 138103, Control_c, 0, 64, 127
1, 138120, Note_on_c, 0, 61, 0
1, 138120, Note_on_c, 0, 55, 0
1, 138132, Note_on_c, 0, 63, 26
1, 138156, Tempo, 502092
1, 138168, Tempo, 491803
1, 138192, Tempo, 495868
1, 138228, Tempo, 502092
1, 138240, Note_on_c, 0, 63, 0
1, 138240, Note_on_c, 0, 51, 0
1, 138240, Note_on_c, 0, 46, 0
1, 138240, Note_on_c, 0, 44, 50
1, 138240, Note_on_c, 0, 51, 42
1, 138240, Note_on_c, 0, 59, 37
1, 138240, Note_on_c, 0, 56, 37
1, 138240, Control_c, 0, 64, 0
1, 138240, Control_c, 0, 64, 0
1, 138252, Tempo, 500000
1, 138264, Tempo, 497925
1, 138300, Tempo, 495868
1, 138326, Control_c, 0, 64, 127
1, 138355, Note_on_c, 0, 63, 29
1, 138360, Note_on_c, 0, 56, 0
1, 138360, Note_on_c, 0, 59, 0
1, 138372, Tempo, 493827
1, 138396, Tempo, 487805
1, 138420, Tempo, 489796
1, 138432, Tempo, 476190
1, 138444, Tempo, 474308
1, 138468, Tempo, 476190
1, 138475, Note_on_c, 0, 63, 0
1, 138478, Note_on_c, 0, 51, 0
1, 138480, Tempo, 478088
1, 138480, Note_on_c, 0, 44, 0
1, 138480, Note_on_c, 0, 51, 29
1, 138504, Tempo, 480000
1, 138516, Tempo, 489796
1, 138528, Tempo, 491803
1, 138552, Tempo, 487805
1, 138600, Note_on_c, 0, 51, 0
1, 138600, Note_on_c, 0, 56, 24
1, 138624, Tempo, 495868
1, 138648, Tempo, 497925
1, 138720, Note_on_c, 0, 56, 0
1, 138720, Note_on_c, 0, 59, 38
1, 138744, Tempo, 495868
1, 138756, Tempo, 487805
1, 138804, Tempo, 491803
1, 138816, Tempo, 495868
1, 138840, Note_on_c, 0, 59, 0
1, 138840, Note_on_c, 0, 63, 30
1, 138900, Tempo, 497925
1, 138912, Tempo, 500000
1, 138948, Tempo, 495868
1, 138960, Tempo, 491803
1, 138960, Note_on_c, 0, 63, 0
1, 138960, Note_on_c, 0, 51, 31
1, 139008, Tempo, 506329
1, 139032, Tempo, 510638
1, 139056, Tempo, 512821
1, 139068, Tempo, 510638
1, 139080, Tempo, 506329
1, 139080, Note_on_c, 0, 51, 0
1, 139080, Note_on_c, 0, 56, 31
1, 139092, Tempo, 502092
1, 139104, Tempo, 500000
1, 139116, Tempo, 497925
1, 139176, Tempo, 500000
1, 139188, Tempo, 502092
1, 139200, Tempo, 504202
1, 139200, Note_on_c, 0, 56, 0
1, 139200, Note_on_c, 0, 59, 40
1, 139296, Tempo, 502092
1, 139308, Tempo, 500000
1, 139320, Note_on_c, 0, 59, 0
1, 139320, Note_on_c, 0, 63, 32
1, 139344, Tempo, 497925
1, 139380, Tempo, 489796
1, 139392, Tempo, 495868
1, 139440, Tempo, 517241
1, 139440, Note_on_c, 0, 63, 0
1, 139440, Note_on_c, 0, 51, 32
1, 139560, Note_on_c, 0, 51, 0
1, 139560, Note_on_c, 0, 56, 28
1, 139680, Tempo, 504202
1, 139680, Note_on_c, 0, 56, 0
1, 139680, Note_on_c, 0, 71, 51
1, 139680, Note_on_c, 0, 68, 43
1, 139680, Note_on_c, 0, 59, 42
1, 139699, Control_c, 0, 64, 0
1, 139795, Control_c, 0, 64, 127
1, 139800, Note_on_c, 0, 59, 0
1, 139800, Note_on_c, 0, 63, 33
1, 139920, Tempo, 528634
1, 139920, Note_on_c, 0, 63, 0
1, 139920, Note_on_c, 0, 68, 0
1, 139920, Note_on_c, 0, 71, 0
1, 139920, Note_on_c, 0, 73, 55
1, 139920, Note_on_c, 0, 70, 46
1, 139920, Note_on_c, 0, 54, 41
1, 139920, Note_on_c, 0, 61, 41
1, 140040, Tempo, 638298
1, 140040, Note_on_c, 0, 61, 0
1, 140040, Note_on_c, 0, 54, 0
1, 140040, Note_on_c, 0, 66, 44
1, 140160, Tempo, 500000
1, 140160, Note_on_c, 0, 66, 0
1, 140160, Note_on_c, 0, 70, 0
1, 140160, Note_on_c, 0, 73, 0
1, 140160, Note_on_c, 0, 71, 48
1, 140160, Note_on_c, 0, 75, 57
1, 140160, Note_on_c, 0, 63, 54
1, 140160, Note_on_c, 0, 59, 54
1, 140160, Control_c, 0, 64, 0
1, 140184, Tempo, 497925
1, 140196, Tempo, 495868
1, 140208, Tempo, 493827
1, 140220, Tempo, 491803
1, 140229, Control_c, 0, 64, 127
1, 140244, Tempo, 489796
1, 140268, Tempo, 493827
1, 140280, Tempo, 500000
1, 140280, Note_on_c, 0, 59, 0
1, 140280, Note_on_c, 0, 63, 0
1, 140280, Note_on_c, 0, 66, 41
1, 140292, Tempo, 502092
1, 140304, Tempo, 504202
1, 140328, Tempo, 506329
1, 140352, Tempo, 504202
1, 140364, Tempo, 500000
1, 140388, Tempo, 495868
1, 140400, Note_on_c, 0, 66, 0
1, 140402, Note_on_c, 0, 54, 41
1, 140412, Tempo, 493827
1, 140424, Tempo, 491803
1, 140460, Tempo, 493827
1, 140472, Tempo, 500000
1, 140484, Tempo, 502092
1, 140520, Note_on_c, 0, 59, 35
1, 140522, Note_on_c, 0, 54, 0
1, 140532, Tempo, 495868
1, 140544, Tempo, 493827
1, 140568, Tempo, 491803
1, 140628, Tempo, 495868
1, 140640, Tempo, 497925
1, 140640, Note_on_c, 0, 71, 0
1, 140640, Note_on_c, 0, 75, 0
1, 140640, Note_on_c, 0, 59, 0
1, 140640, Note_on_c, 0, 63, 46
1, 140664, Tempo, 500000
1, 140700, Tempo, 502092
1, 140712, Tempo, 504202
1, 140736, Tempo, 502092
1, 140748, Tempo, 497925
1, 140760, Tempo, 495868
1, 140760, Note_on_c, 0, 63, 0
1, 140760, Note_on_c, 0, 66, 41
1, 140772, Tempo, 493827
1, 140844, Tempo, 500000
1, 140868, Tempo, 502092
1, 140880, Note_on_c, 0, 66, 0
1, 140880, Note_on_c, 0, 54, 41
1, 140928, Tempo, 493827
1, 141000, Note_on_c, 0, 54, 0
1, 141000, Note_on_c, 0, 59, 36
1, 141036, Tempo, 495868
1, 141048, Tempo, 497925
1, 141120, Tempo, 538117
1, 141120, Note_on_c, 0, 59, 0
1, 141120, Note_on_c, 0, 63, 51
1, 141240, Note_on_c, 0, 63, 0
1, 141240, Note_on_c, 0, 66, 44
1, 141360, Tempo, 500000
1, 141360, Note_on_c, 0, 66, 0
1, 141360, Note_on_c, 0, 51, 50
1, 141360, Note_on_c, 0, 54, 42
1, 141360, Note_on_c, 0, 59, 46
1, 141360, Note_on_c, 0, 63, 46
1, 141377, Control_c, 0, 64, 0
1, 141444, Tempo, 500000
1, 141463, Control_c, 0, 64, 127
1, 141468, Tempo, 497925
1, 141480, Note_on_c, 0, 63, 0
1, 141480, Note_on_c, 0, 59, 0
1, 141480, Note_on_c, 0, 66, 47
1, 141492, Tempo, 495868
1, 141504, Tempo, 493827
1, 141516, Tempo, 491803
1, 141564, Tempo, 495868
1, 141576, Tempo, 497925
1, 141588, Tempo, 500000
1, 141600, Note_on_c, 0, 66, 0
1, 141600, Note_on_c, 0, 54, 0
1, 141600, Note_on_c, 0, 51, 0
1, 141600, Note_on_c, 0, 49, 51
1, 141600, Note_on_c, 0, 54, 42
1, 141600, Note_on_c, 0, 58, 55
1, 141600, Note_on_c, 0, 64, 55
1, 141615, Control_c, 0, 64, 0
1, 141675, Control_c, 0, 64, 127
1, 141696, Tempo, 493827
1, 141708, Tempo, 491803
1, 141720, Tempo, 489796
1, 141720, Note_on_c, 0, 64, 0
1, 141720, Note_on_c, 0, 58, 0
1, 141720, Note_on_c, 0, 66, 48
1, 141744, Tempo, 502092
1, 141756, Tempo, 504202
1, 141768, Tempo, 506329
1, 141792, Tempo, 504202
1, 141804, Tempo, 502092
1, 141816, Tempo, 493827
1, 141828, Tempo, 491803
1, 141840, Note_on_c, 0, 66, 0
1, 141840, Note_on_c, 0, 54, 0
1, 141840, Note_on_c, 0, 49, 0
1, 141840, Note_on_c, 0, 47, 54
1, 141840, Note_on_c, 0, 54, 45
1, 141840, Note_on_c, 0, 63, 50
1, 141840, Note_on_c, 0, 59, 50
1, 141852, Tempo, 493827
1, 141857, Control_c, 0, 64, 0
1, 141864, Tempo, 500000
1, 141932, Control_c, 0, 64, 127
1, 141960, Note_on_c, 0, 59, 0
1, 141960, Note_on_c, 0, 63, 0
1, 141960, Note_on_c, 0, 66, 54
1, 141996, Tempo, 497925
1, 142032, Tempo, 495868
1, 142068, Tempo, 497925
1, 142080, Tempo, 495868
1, 142080, Note_on_c, 0, 66, 0
1, 142080, Note_on_c, 0, 54, 0
1, 142080, Note_on_c, 0, 47, 0
1, 142080, Note_on_c, 0, 42, 63
1, 142080, Note_on_c, 0, 54, 44
1, 142080, Note_on_c, 0, 61, 60
1, 142080, Note_on_c, 0, 58, 60
1, 142080, Control_c, 0, 64, 0
1, 142104, Tempo, 491803
1, 142116, Tempo, 485830
1, 142140, Tempo, 489796
1, 142164, Tempo, 495868
1, 142166, Control_c, 0, 64, 127
1, 142200, Note_on_c, 0, 58, 0
1, 142200, Note_on_c, 0, 61, 0
1, 142200, Note_on_c, 0, 66, 49
1, 142296, Tempo, 491803
1, 142308, Tempo, 493827
1, 142320, Tempo, 495868
1, 142320, Note_on_c, 0, 66, 0
1, 142320, Note_on_c, 0, 54, 0
1, 142320, Note_on_c, 0, 42, 0
1, 142320, Note_on_c, 0, 54, 49
1, 142332, Tempo, 500000
1, 142344, Tempo, 502092
1, 142380, Tempo, 497925
1, 142404, Tempo, 493827
1, 142440, Tempo, 495868
1, 142440, Note_on_c, 0, 54, 0
1, 142440, Note_on_c, 0, 58, 42
1, 142488, Tempo, 497925
1, 142512, Tempo, 502092
1, 142548, Tempo, 504202
1, 142560, Note_on_c, 0, 58, 0
1, 142560, Note_on_c, 0, 61, 52
1, 142584, Tempo, 502092
1, 142596, Tempo, 500000
1, 142608, Tempo, 497925
1, 142632, Tempo, 495868
1, 142656, Tempo, 493827
1, 142680, Tempo, 491803
1, 142680, Note_on_c, 0, 61, 0
1, 142680, Note_on_c, 0, 66, 42
1, 142704, Tempo, 495868
1, 142716, Tempo, 497925
1, 142728, Tempo, 500000
1, 142740, Tempo, 502092
1, 142800, Note_on_c, 0, 66, 0
1, 142800, Note_on_c, 0, 54, 42
1, 142812, Tempo, 495868
1, 142824, Tempo, 493827
1, 142860, Tempo, 502092
1, 142920, Note_on_c, 0, 54, 0
1, 142920, Note_on_c, 0, 58, 36
1, 142932, Tempo, 497925
1, 143040, Tempo, 495868
1, 143040, Note_on_c, 0, 58, 0
1, 143040, Note_on_c, 0, 61, 58
1, 143124, Tempo, 491803
1, 143160, Tempo, 487805
1, 143160, Note_on_c, 0, 61, 0
1, 143160, Note_on_c, 0, 66, 45
1, 143280, Tempo, 517241
1, 143280, Note_on_c, 0, 66, 0
1, 143280, Note_on_c, 0, 54, 45
1, 143400, Note_on_c, 0, 54, 0
1, 143400, Note_on_c, 0, 58, 40
1, 143520, Tempo, 504202
1, 143520, Note_on_c, 0, 58, 0
1, 143520, Note_on_c, 0, 76, 73
1, 143520, Note_on_c, 0, 73, 62
1, 143520, Note_on_c, 0, 61, 56
1, 143536, Control_c, 0, 64, 0
1, 143623, Control_c, 0, 64, 127
1, 143640, Note_on_c, 0, 61, 0
1, 143640, Note_on_c, 0, 66, 41
1, 143760, Tempo, 528634
1, 143760, Note_on_c, 0, 66, 0
1, 143760, Note_on_c, 0, 73, 0
1, 143760, Note_on_c, 0, 76, 0
1, 143760, Note_on_c, 0, 80, 70
1, 143760, Note_on_c, 0, 76, 58
1, 143760, Note_on_c, 0, 64, 41
1, 143880, Tempo, 638298
1, 143880, Note_on_c, 0, 64, 0
1, 143880, Note_on_c, 0, 66, 35
1, 144000, Tempo, 500000
1, 144000, Note_on_c, 0, 66, 0
1, 144000, Note_on_c, 0, 76, 0
1, 144000, Note_on_c, 0, 80, 0
1, 144000, Note_on_c, 0, 75, 69
1, 144000, Note_on_c, 0, 78, 65
1, 144000, Note_on_c, 0, 63, 53
1, 144000, Control_c, 0, 64, 0
1, 144024, Tempo, 493827
1, 144048, Tempo, 491803
1, 144069, Control_c, 0, 64, 127
1, 144072, Tempo, 500000
1, 144084, Tempo, 506329
1, 144120, Note_on_c, 0, 63, 0
1, 144120, Note_on_c, 0, 66, 43
1, 144144, Tempo, 500000
1, 144168, Tempo, 497925
1, 144180, Tempo, 495868
1, 144240, Note_on_c, 0, 66, 0
1, 144240, Note_on_c, 0, 54, 43
1, 144252, Tempo, 497925
1, 144264, Tempo, 506329
1, 144300, Tempo, 500000
1, 144312, Tempo, 497925
1, 144324, Tempo, 495868
1, 144348, Tempo, 493827
1, 144360, Note_on_c, 0, 54, 0
1, 144360, Note_on_c, 0, 59, 38
1, 144372, Tempo, 491803
1, 144396, Tempo, 493827
1, 144408, Tempo, 500000
1, 144420, Tempo, 502092
1, 144456, Tempo, 506329
1, 144480, Tempo, 504202
1, 144480, Note_on_c, 0, 59, 0
1, 144480, Note_on_c, 0, 78, 0
1, 144480, Note_on_c, 0, 75, 0
1, 144480, Note_on_c, 0, 63, 48
1, 144492, Tempo, 502092
1, 144504, Tempo, 493827
1, 144576, Tempo, 491803
1, 144600, Note_on_c, 0, 63, 0
1, 144600, Note_on_c, 0, 66, 38
1, 144612, Tempo, 500000
1, 144696, Tempo, 502092
1, 144720, Note_on_c, 0, 66, 0
1, 144720, Note_on_c, 0, 54, 38
1, 144744, Tempo, 495868
1, 144756, Tempo, 491803
1, 144828, Tempo, 502092
1, 144840, Note_on_c, 0, 54, 0
1, 144840, Note_on_c, 0, 59, 33
1, 144876, Tempo, 497925
1, 144960, Tempo, 538117
1, 144960, Note_on_c, 0, 59, 0
1, 144960, Note_on_c, 0, 63, 45
1, 145080, Note_on_c, 0, 63, 0
1, 145080, Note_on_c, 0, 66, 35
1, 145200, Tempo, 500000
1, 145200, Note_on_c, 0, 66, 0
1, 145200, Note_on_c, 0, 54, 35
1, 145320, Note_on_c, 0, 54, 0
1, 145320, Note_on_c, 0, 59, 31
1, 145428, Tempo, 500000
1, 145440, Note_on_c, 0, 59, 0
1, 145440, Note_on_c, 0, 51, 59
1, 145440, Note_on_c, 0, 54, 43
1, 145440, Note_on_c, 0, 59, 38
1, 145440, Note_on_c, 0, 63, 38
1, 145452, Tempo, 495868
1, 145456, Control_c, 0, 64, 0
1, 145464, Tempo, 489796
1, 145476, Tempo, 485830
1, 145488, Tempo, 483871
1, 145500, Tempo, 481928
1, 145512, Tempo, 480000
1, 145526, Control_c, 0, 64, 127
1, 145536, Tempo, 483871
1, 145548, Tempo, 485830
1, 145560, Note_on_c, 0, 63, 0
1, 145560, Note_on_c, 0, 59, 0
1, 145560, Note_on_c, 0, 66, 30
1, 145620, Tempo, 480000
1, 145632, Tempo, 478088
1, 145644, Tempo, 476190
1, 145656, Tempo, 478088
1, 145680, Note_on_c, 0, 66, 0
1, 145680, Note_on_c, 0, 54, 0
1, 145680, Note_on_c, 0, 51, 0
1, 145680, Note_on_c, 0, 49, 48
1, 145680, Note_on_c, 0, 54, 40
1, 145680, Note_on_c, 0, 64, 29
1, 145680, Note_on_c, 0, 58, 29
1, 145695, Control_c, 0, 64, 0
1, 145716, Tempo, 481928
1, 145728, Tempo, 474308
1, 145740, Tempo, 489796
1, 145766, Control_c, 0, 64, 127
1, 145776, Tempo, 491803
1, 145788, Tempo, 483871
1, 145800, Tempo, 481928
1, 145800, Note_on_c, 0, 58, 0
1, 145800, Note_on_c, 0, 64, 0
1, 145800, Note_on_c, 0, 66, 26
1, 145812, Tempo, 480000
1, 145884, Tempo, 497925
1, 145896, Tempo, 500000
1, 145908, Note_on_c, 0, 66, 0
1, 145920, Tempo, 502092
1, 145920, Note_on_c, 0, 54, 0
1, 145920, Note_on_c, 0, 49, 0
1, 145920, Note_on_c, 0, 54, 42
1, 145920, Note_on_c, 0, 47, 50
1, 145920, Note_on_c, 0, 63, 37
1, 145920, Note_on_c, 0, 59, 37
1, 145920, Control_c, 0, 64, 0
1, 145920, Control_c, 0, 64, 0
1, 145956, Tempo, 500000
1, 145968, Tempo, 497925
1, 145980, Tempo, 493827
1, 145992, Tempo, 491803
1, 146006, Control_c, 0, 64, 127
1, 146016, Tempo, 489796
1, 146040, Tempo, 493827
1, 146040, Note_on_c, 0, 59, 0
1, 146040, Note_on_c, 0, 63, 0
1, 146040, Note_on_c, 0, 66, 29
1, 146052, Tempo, 495868
1, 146064, Tempo, 497925
1, 146088, Tempo, 502092
1, 146136, Tempo, 489796
1, 146158, Note_on_c, 0, 54, 0
1, 146160, Note_on_c, 0, 66, 0
1, 146160, Note_on_c, 0, 47, 0
1, 146160, Note_on_c, 0, 54, 29
1, 146220, Tempo, 491803
1, 146244, Tempo, 495868
1, 146256, Tempo, 500000
1, 146280, Tempo, 506329
1, 146280, Note_on_c, 0, 54, 0
1, 146280, Note_on_c, 0, 59, 25
1, 146292, Tempo, 508475
1, 146304, Tempo, 510638
1, 146316, Tempo, 512821
1, 146328, Tempo, 510638
1, 146340, Tempo, 508475
1, 146352, Tempo, 504202
1, 146376, Tempo, 502092
1, 146388, Tempo, 500000
1, 146400, Tempo, 497925
1, 146400, Note_on_c, 0, 59, 0
1, 146400, Note_on_c, 0, 63, 38
1, 146424, Tempo, 495868
1, 146436, Tempo, 487805
1, 146460, Tempo, 493827
1, 146484, Tempo, 495868
1, 146496, Tempo, 497925
1, 146508, Tempo, 500000
1, 146520, Note_on_c, 0, 63, 0
1, 146520, Note_on_c, 0, 66, 30
1, 146556, Tempo, 497925
1, 146568, Tempo, 493827
1, 146580, Tempo, 487805
1, 146592, Tempo, 485830
1, 146604, Tempo, 483871
1, 146628, Tempo, 487805
1, 146640, Tempo, 493827
1, 146640, Note_on_c, 0, 66, 0
1, 146640, Note_on_c, 0, 54, 31
1, 146652, Tempo, 495868
1, 146664, Tempo, 497925
1, 146688, Tempo, 508475
1, 146712, Tempo, 504202
1, 146724, Tempo, 502092
1, 146748, Tempo, 500000
1, 146760, Note_on_c, 0, 54, 0
1, 146760, Note_on_c, 0, 59, 26
1, 146772, Tempo, 497925
1, 146784, Tempo, 493827
1, 146808, Tempo, 491803
1, 146856, Tempo, 500000
1, 146880, Note_on_c, 0, 59, 0
1, 146880, Note_on_c, 0, 63, 40
1, 146916, Tempo, 495868
1, 146952, Tempo, 500000
1, 146964, Tempo, 506329
1, 147000, Note_on_c, 0, 63, 0
1, 147000, Note_on_c, 0, 66, 32
1, 147120, Tempo, 517241
1, 147120, Note_on_c, 0, 66, 0
1, 147120, Note_on_c, 0, 75, 61
1, 147120, Note_on_c, 0, 54, 32
1, 147240, Note_on_c, 0, 54, 0
1, 147240, Note_on_c, 0, 59, 28
1, 147360, Tempo, 504202
1, 147360, Note_on_c, 0, 59, 0
1, 147360, Note_on_c, 0, 75, 0
1, 147360, Note_on_c, 0, 73, 64
1, 147360, Note_on_c, 0, 63, 42
1, 147380, Control_c, 0, 64, 0
1, 147480, Note_on_c, 0, 63, 0
1, 147480, Note_on_c, 0, 66, 33
1, 147480, Control_c, 0, 64, 127
1, 147600, Tempo, 528634
1, 147600, Note_on_c, 0, 66, 0
1, 147600, Note_on_c, 0, 73, 0
1, 147600, Note_on_c, 0, 71, 66
1, 147600, Note_on_c, 0, 54, 41
1, 147720, Tempo, 745342
1, 147720, Note_on_c, 0, 54, 0
1, 147720, Note_on_c, 0, 59, 44
1, 147840, Tempo, 497925
1, 147840, Note_on_c, 0, 59, 0
1, 147840, Note_on_c, 0, 71, 0
1, 147840, Note_on_c, 0, 68, 66
1, 147840, Note_on_c, 0, 64, 50
1, 147840, Control_c, 0, 64, 0
1, 147840, Control_c, 0, 64, 0
1, 147864, Tempo, 495868
1, 147876, Tempo, 493827
1, 147888, Tempo, 491803
1, 147926, Control_c, 0, 64, 127
1, 147960, Tempo, 495868
1, 147960, Note_on_c, 0, 64, 0
1, 147960, Note_on_c, 0, 59, 36
1, 147972, Tempo, 497925
1, 148032, Tempo, 495868
1, 148044, Tempo, 493827
1, 148056, Tempo, 491803
1, 148080, Tempo, 489796
1, 148080, Note_on_c, 0, 59, 0
1, 148080, Note_on_c, 0, 56, 36
1, 148092, Tempo, 487805
1, 148116, Tempo, 485830
1, 148176, Tempo, 495868
1, 148200, Note_on_c, 0, 56, 0
1, 148200, Note_on_c, 0, 59, 32
1, 148236, Tempo, 491803
1, 148248, Tempo, 489796
1, 148260, Tempo, 487805
1, 148320, Note_on_c, 0, 59, 0
1, 148320, Note_on_c, 0, 68, 0
1, 148320, Note_on_c, 0, 64, 45
1, 148344, Tempo, 502092
1, 148356, Tempo, 504202
1, 148440, Note_on_c, 0, 64, 0
1, 148440, Note_on_c, 0, 68, 36
1, 148476, Tempo, 489796
1, 148500, Tempo, 487805
1, 148560, Note_on_c, 0, 68, 0
1, 148560, Note_on_c, 0, 56, 36
1, 148572, Tempo, 489796
1, 148596, Tempo, 491803
1, 148632, Tempo, 497925
1, 148656, Tempo, 500000
1, 148680, Note_on_c, 0, 56, 0
1, 148680, Note_on_c, 0, 59, 33
1, 148704, Tempo, 487805
1, 148752, Tempo, 489796
1, 148764, Tempo, 491803
1, 148776, Tempo, 493827
1, 148788, Tempo, 495868
1, 148800, Note_on_c, 0, 59, 0
1, 148800, Note_on_c, 0, 64, 44
1, 148812, Tempo, 497925
1, 148824, Tempo, 502092
1, 148908, Tempo, 495868
1, 148920, Note_on_c, 0, 64, 0
1, 148920, Note_on_c, 0, 68, 37
1, 149040, Tempo, 517241
1, 149040, Note_on_c, 0, 68, 0
1, 149040, Note_on_c, 0, 52, 65
1, 149040, Note_on_c, 0, 56, 37
1, 149055, Control_c, 0, 64, 0
1, 149160, Note_on_c, 0, 56, 0
1, 149160, Note_on_c, 0, 61, 37
1, 149166, Control_c, 0, 64, 127
1, 149280, Tempo, 504202
1, 149280, Note_on_c, 0, 61, 0
1, 149280, Note_on_c, 0, 52, 0
1, 149280, Note_on_c, 0, 51, 68
1, 149280, Note_on_c, 0, 64, 48
1, 149295, Control_c, 0, 64, 0
1, 149360, Control_c, 0, 64, 127
1, 149400, Note_on_c, 0, 64, 0
1, 149400, Note_on_c, 0, 68, 38
1, 149520, Tempo, 528634
1, 149520, Note_on_c, 0, 68, 0
1, 149520, Note_on_c, 0, 51, 0
1, 149520, Note_on_c, 0, 49, 71
1, 149520, Note_on_c, 0, 56, 41
1, 149526, Control_c, 0, 64, 0
1, 149589, Control_c, 0, 64, 127
1, 149640, Tempo, 740741
1, 149640, Note_on_c, 0, 56, 0
1, 149640, Note_on_c, 0, 61, 44
1, 149760, Tempo, 500000
1, 149760, Note_on_c, 0, 61, 0
1, 149760, Note_on_c, 0, 49, 0
1, 149760, Note_on_c, 0, 46, 76
1, 149760, Note_on_c, 0, 64, 56
1, 149760, Control_c, 0, 64, 0
1, 149760, Control_c, 0, 64, 0
1, 149772, Tempo, 495868
1, 149796, Tempo, 493827
1, 149808, Tempo, 491803
1, 149820, Tempo, 489796
1, 149846, Control_c, 0, 64, 127
1, 149880, Tempo, 491803
1, 149880, Note_on_c, 0, 64, 0
1, 149880, Note_on_c, 0, 66, 42
1, 149892, Tempo, 493827
1, 149904, Tempo, 497925
1, 149928, Tempo, 502092
1, 149940, Tempo, 506329
1, 149952, Tempo, 508475
1, 149976, Tempo, 506329
1, 150000, Tempo, 502092
1, 150000, Note_on_c, 0, 66, 0
1, 150000, Note_on_c, 0, 54, 42
1, 150012, Tempo, 500000
1, 150036, Tempo, 497925
1, 150084, Tempo, 495868
1, 150108, Tempo, 489796
1, 150120, Note_on_c, 0, 54, 0
1, 150120, Note_on_c, 0, 61, 35
1, 150132, Tempo, 491803
1, 150144, Tempo, 493827
1, 150168, Tempo, 495868
1, 150216, Tempo, 500000
1, 150240, Note_on_c, 0, 61, 0
1, 150240, Note_on_c, 0, 64, 52
1, 150252, Tempo, 502092
1, 150288, Tempo, 500000
1, 150300, Tempo, 497925
1, 150312, Tempo, 485830
1, 150324, Tempo, 483871
1, 150360, Tempo, 487805
1, 150360, Note_on_c, 0, 64, 0
1, 150360, Note_on_c, 0, 66, 42
1, 150384, Tempo, 489796
1, 150396, Tempo, 491803
1, 150408, Tempo, 493827
1, 150420, Tempo, 495868
1, 150432, Tempo, 497925
1, 150444, Tempo, 500000
1, 150456, Tempo, 502092
1, 150480, Note_on_c, 0, 66, 0
1, 150480, Note_on_c, 0, 54, 42
1, 150492, Tempo, 504202
1, 150516, Tempo, 502092
1, 150528, Tempo, 500000
1, 150540, Tempo, 497925
1, 150552, Tempo, 495868
1, 150564, Tempo, 493827
1, 150576, Tempo, 491803
1, 150600, Tempo, 489796
1, 150600, Note_on_c, 0, 54, 0
1, 150600, Note_on_c, 0, 61, 36
1, 150612, Tempo, 491803
1, 150624, Tempo, 495868
1, 150636, Tempo, 497925
1, 150648, Tempo, 500000
1, 150672, Tempo, 502092
1, 150684, Tempo, 504202
1, 150720, Note_on_c, 0, 61, 0
1, 150720, Note_on_c, 0, 46, 0
1, 150720, Note_on_c, 0, 47, 61
1, 150720, Note_on_c, 0, 63, 50
1, 150756, Tempo, 495868
1, 150772, Control_c, 0, 64, 0
1, 150780, Tempo, 493827
1, 150804, Tempo, 495868
1, 150816, Tempo, 497925
1, 150840, Note_on_c, 0, 63, 0
1, 150840, Note_on_c, 0, 66, 40
1, 150863, Control_c, 0, 64, 127
1, 150876, Tempo, 493827
1, 150960, Tempo, 517241
1, 150960, Note_on_c, 0, 66, 0
1, 150960, Note_on_c, 0, 47, 0
1, 150960, Note_on_c, 0, 75, 68
1, 150960, Note_on_c, 0, 54, 40
1, 151080, Note_on_c, 0, 54, 0
1, 151080, Note_on_c, 0, 59, 36
1, 151200, Tempo, 504202
1, 151200, Note_on_c, 0, 59, 0
1, 151200, Note_on_c, 0, 75, 0
1, 151200, Note_on_c, 0, 76, 73
1, 151200, Note_on_c, 0, 63, 42
1, 151215, Control_c, 0, 64, 0
1, 151280, Control_c, 0, 64, 127
1, 151320, Note_on_c, 0, 63, 0
1, 151320, Note_on_c, 0, 66, 33
1, 151440, Tempo, 528634
1, 151440, Note_on_c, 0, 66, 0
1, 151440, Note_on_c, 0, 76, 0
1, 151440, Note_on_c, 0, 77, 77
1, 151440, Note_on_c, 0, 54, 41
1, 151560, Tempo, 618557
1, 151560, Note_on_c, 0, 54, 0
1, 151560, Note_on_c, 0, 59, 44
1, 151680, Tempo, 500000
1, 151680, Note_on_c, 0, 59, 0
1, 151680, Note_on_c, 0, 77, 0
1, 151680, Note_on_c, 0, 78, 82
1, 151680, Note_on_c, 0, 61, 54
1, 151680, Control_c, 0, 64, 0
1, 151680, Control_c, 0, 64, 0
1, 151704, Tempo, 500000
1, 151716, Tempo, 485830
1, 151740, Tempo, 487805
1, 151764, Tempo, 489796
1, 151766, Control_c, 0, 64, 127
1, 151788, Tempo, 491803
1, 151800, Note_on_c, 0, 61, 0
1, 151800, Note_on_c, 0, 66, 41
1, 151812, Tempo, 495868
1, 151836, Tempo, 497925
1, 151848, Tempo, 502092
1, 151860, Tempo, 506329
1, 151872, Tempo, 508475
1, 151884, Tempo, 512821
1, 151908, Tempo, 508475
1, 151920, Tempo, 506329
1, 151920, Note_on_c, 0, 66, 0
1, 151920, Note_on_c, 0, 54, 41
1, 151932, Tempo, 502092
1, 151956, Tempo, 500000
1, 151968, Tempo, 497925
1, 151980, Tempo, 495868
1, 151992, Tempo, 493827
1, 152016, Tempo, 491803
1, 152040, Note_on_c, 0, 54, 0
1, 152040, Note_on_c, 0, 59, 35
1, 152052, Tempo, 506329
1, 152112, Tempo, 504202
1, 152124, Tempo, 502092
1, 152136, Tempo, 497925
1, 152160, Tempo, 495868
1, 152160, Note_on_c, 0, 59, 0
1, 152160, Note_on_c, 0, 61, 48
1, 152196, Tempo, 491803
1, 152220, Tempo, 489796
1, 152244, Tempo, 493827
1, 152256, Tempo, 497925
1, 152268, Tempo, 500000
1, 152280, Note_on_c, 0, 61, 0
1, 152280, Note_on_c, 0, 66, 39
1, 152400, Tempo, 497925
1, 152400, Note_on_c, 0, 66, 0
1, 152400, Note_on_c, 0, 54, 39
1, 152424, Tempo, 495868
1, 152448, Tempo, 493827
1, 152484, Tempo, 495868
1, 152496, Tempo, 500000
1, 152520, Tempo, 504202
1, 152520, Note_on_c, 0, 54, 0
1, 152520, Note_on_c, 0, 59, 39
1, 152544, Tempo, 506329
1, 152580, Tempo, 504202
1, 152604, Tempo, 502092
1, 152616, Tempo, 497925
1, 152640, Tempo, 495868
1, 152640, Note_on_c, 0, 59, 0
1, 152640, Note_on_c, 0, 61, 48
1, 152664, Tempo, 493827
1, 152748, Tempo, 502092
1, 152760, Note_on_c, 0, 61, 0
1, 152760, Note_on_c, 0, 66, 32
1, 152808, Tempo, 504202
1, 152880, Tempo, 517241
1, 152880, Note_on_c, 0, 66, 0
1, 152880, Note_on_c, 0, 54, 37
1, 153000, Note_on_c, 0, 54, 0
1, 153000, Note_on_c, 0, 58, 35
1, 153120, Tempo, 504202
1, 153120, Note_on_c, 0, 58, 0
1, 153120, Note_on_c, 0, 61, 42
1, 153240, Note_on_c, 0, 61, 0
1, 153240, Note_on_c, 0, 66, 29
1, 153360, Tempo, 528634
1, 153360, Note_on_c, 0, 66, 0
1, 153360, Note_on_c, 0, 54, 29
1, 153480, Tempo, 566038
1, 153480, Note_on_c, 0, 54, 0
1, 153480, Note_on_c, 0, 58, 25
1, 153600, Tempo, 500000
1, 153600, Note_on_c, 0, 58, 0
1, 153600, Note_on_c, 0, 78, 0
1, 153600, Note_on_c, 0, 75, 66
1, 153600, Note_on_c, 0, 63, 37
1, 153600, Control_c, 0, 64, 0
1, 153600, Control_c, 0, 64, 0
1, 153612, Tempo, 495868
1, 153648, Tempo, 493827
1, 153660, Tempo, 491803
1, 153672, Tempo, 489796
1, 153686, Control_c, 0, 64, 127
1, 153696, Tempo, 487805
1, 153720, Note_on_c, 0, 63, 0
1, 153720, Note_on_c, 0, 66, 29
1, 153756, Tempo, 500000
1, 153768, Tempo, 502092
1, 153840, Note_on_c, 0, 66, 0
1, 153840, Note_on_c, 0, 54, 29
1, 153876, Tempo, 495868
1, 153960, Tempo, 502092
1, 153960, Note_on_c, 0, 54, 0
1, 153960, Note_on_c, 0, 59, 25
1, 153972, Tempo, 504202
1, 154020, Tempo, 495868
1, 154032, Tempo, 493827
1, 154044, Tempo, 491803
1, 154080, Note_on_c, 0, 59, 0
1, 154080, Note_on_c, 0, 75, 0
1, 154080, Note_on_c, 0, 63, 38
1, 154092, Tempo, 497925
1, 154104, Tempo, 500000
1, 154152, Tempo, 502092
1, 154200, Note_on_c, 0, 63, 0
1, 154200, Note_on_c, 0, 66, 30
1, 154284, Tempo, 500000
1, 154296, Tempo, 497925
1, 154308, Tempo, 493827
1, 154320, Tempo, 491803
1, 154320, Note_on_c, 0, 66, 0
1, 154320, Note_on_c, 0, 54, 31
1, 154332, Tempo, 489796
1, 154392, Tempo, 491803
1, 154404, Tempo, 497925
1, 154416, Tempo, 500000
1, 154440, Note_on_c, 0, 54, 0
1, 154440, Note_on_c, 0, 59, 28
1, 154464, Tempo, 502092
1, 154476, Tempo, 504202
1, 154500, Tempo, 502092
1, 154512, Tempo, 500000
1, 154524, Tempo, 495868
1, 154548, Tempo, 493827
1, 154560, Note_on_c, 0, 59, 0
1, 154560, Note_on_c, 0, 62, 40
1, 154571, Control_c, 0, 64, 0
1, 154572, Tempo, 491803
1, 154620, Tempo, 495868
1, 154644, Tempo, 500000
1, 154671, Control_c, 0, 64, 127
1, 154680, Note_on_c, 0, 62, 0
1, 154680, Note_on_c, 0, 66, 32
1, 154800, Tempo, 517241
1, 154800, Note_on_c, 0, 66, 0
1, 154800, Note_on_c, 0, 47, 44
1, 154800, Note_on_c, 0, 54, 32
1, 154810, Control_c, 0, 64, 0
1, 154887, Control_c, 0, 64, 127
1, 154920, Note_on_c, 0, 54, 0
1, 154920, Note_on_c, 0, 59, 28
1, 155040, Tempo, 504202
1, 155040, Note_on_c, 0, 59, 0
1, 155040, Note_on_c, 0, 47, 0
1, 155040, Note_on_c, 0, 49, 48
1, 155040, Note_on_c, 0, 62, 42
1, 155059, Control_c, 0, 64, 0
1, 155155, Control_c, 0, 64, 127
1, 155160, Note_on_c, 0, 62, 0
1, 155160, Note_on_c, 0, 66, 33
1, 155280, Tempo, 528634
1, 155280, Note_on_c, 0, 66, 0
1, 155280, Note_on_c, 0, 49, 0
1, 155280, Note_on_c, 0, 50, 45
1, 155280, Note_on_c, 0, 54, 33
1, 155290, Control_c, 0, 64, 0
1, 155357, Control_c, 0, 64, 127
1, 155400, Tempo, 618557
1, 155400, Note_on_c, 0, 54, 0
1, 155400, Note_on_c, 0, 59, 28
1, 155508, Tempo, 500000
1, 155520, Tempo, 497925
1, 155520, Note_on_c, 0, 59, 0
1, 155520, Note_on_c, 0, 50, 0
1, 155520, Note_on_c, 0, 42, 48
1, 155520, Note_on_c, 0, 61, 37
1, 155520, Control_c, 0, 64, 0
1, 155522, Control_c, 0, 64, 0
1, 155532, Tempo, 495868
1, 155544, Tempo, 493827
1, 155556, Tempo, 491803
1, 155568, Tempo, 489796
1, 155604, Tempo, 491803
1, 155606, Control_c, 0, 64, 127
1, 155628, Tempo, 497925
1, 155640, Tempo, 500000
1, 155640, Note_on_c, 0, 61, 0
1, 155640, Note_on_c, 0, 66, 29
1, 155652, Tempo, 508475
1, 155688, Tempo, 506329
1, 155700, Tempo, 504202
1, 155712, Tempo, 502092
1, 155724, Tempo, 500000
1, 155736, Tempo, 497925
1, 155748, Tempo, 491803
1, 155760, Note_on_c, 0, 66, 0
1, 155760, Note_on_c, 0, 54, 29
1, 155772, Tempo, 489796
1, 155784, Tempo, 487805
1, 155796, Tempo, 491803
1, 155808, Tempo, 495868
1, 155820, Tempo, 502092
1, 155832, Tempo, 504202
1, 155880, Note_on_c, 0, 54, 0
1, 155880, Note_on_c, 0, 59, 24
1, 155928, Tempo, 502092
1, 155940, Tempo, 500000
1, 155952, Tempo, 487805
1, 155964, Tempo, 485830
1, 156000, Tempo, 500000
1, 156000, Note_on_c, 0, 59, 0
1, 156000, Note_on_c, 0, 61, 38
1, 156084, Tempo, 504202
1, 156120, Tempo, 502092
1, 156120, Note_on_c, 0, 61, 0
1, 156120, Note_on_c, 0, 66, 29
1, 156132, Tempo, 500000
1, 156144, Tempo, 497925
1, 156180, Tempo, 493827
1, 156192, Tempo, 491803
1, 156228, Tempo, 512821
1, 156240, Note_on_c, 0, 66, 0
1, 156240, Note_on_c, 0, 54, 29
1, 156252, Tempo, 517241
1, 156276, Tempo, 515021
1, 156288, Tempo, 512821
1, 156300, Tempo, 510638
1, 156312, Tempo, 508475
1, 156324, Tempo, 497925
1, 156336, Tempo, 495868
1, 156348, Tempo, 493827
1, 156360, Tempo, 491803
1, 156360, Note_on_c, 0, 54, 0
1, 156360, Note_on_c, 0, 59, 24
1, 156384, Tempo, 489796
1, 156408, Tempo, 487805
1, 156444, Tempo, 502092
1, 156480, Note_on_c, 0, 59, 0
1, 156480, Note_on_c, 0, 61, 40
1, 156492, Tempo, 504202
1, 156528, Tempo, 502092
1, 156600, Tempo, 504202
1, 156600, Note_on_c, 0, 61, 0
1, 156600, Note_on_c, 0, 66, 28
1, 156708, Tempo, 500000
1, 156720, Tempo, 502092
1, 156720, Note_on_c, 0, 66, 0
1, 156720, Note_on_c, 0, 54, 28
1, 156840, Note_on_c, 0, 54, 0
1, 156840, Note_on_c, 0, 58, 28
1, 156960, Tempo, 504202
1, 156960, Note_on_c, 0, 58, 0
1, 156960, Note_on_c, 0, 61, 41
1, 157080, Note_on_c, 0, 61, 0
1, 157080, Note_on_c, 0, 66, 29
1, 157200, Tempo, 528634
1, 157200, Note_on_c, 0, 66, 0
1, 157200, Note_on_c, 0, 54, 29
1, 157320, Tempo, 600000
1, 157320, Note_on_c, 0, 54, 0
1, 157320, Note_on_c, 0, 58, 25
1, 157440, Tempo, 500000
1, 157440, Note_on_c, 0, 58, 0
1, 157440, Note_on_c, 0, 42, 0
1, 157440, Note_on_c, 0, 35, 44
1, 157440, Note_on_c, 0, 59, 37
1, 157440, Control_c, 0, 64, 0
1, 157442, Control_c, 0, 64, 0
1, 157488, Tempo, 497925
1, 157500, Tempo, 495868
1, 157524, Tempo, 493827
1, 157526, Control_c, 0, 64, 127
1, 157548, Tempo, 491803
1, 157560, Tempo, 500000
1, 157560, Note_on_c, 0, 59, 0
1, 157560, Note_on_c, 0, 63, 29
1, 157620, Tempo, 502092
1, 157680, Note_on_c, 0, 63, 0
1, 157680, Note_on_c, 0, 51, 29
1, 157692, Tempo, 485830
1, 157716, Tempo, 483871
1, 157764, Tempo, 495868
1, 157776, Tempo, 497925
1, 157788, Tempo, 500000
1, 157800, Note_on_c, 0, 51, 0
1, 157800, Note_on_c, 0, 54, 25
1, 157812, Tempo, 502092
1, 157824, Tempo, 504202
1, 157920, Note_on_c, 0, 54, 0
1, 157920, Note_on_c, 0, 35, 0
1, 157920, Note_on_c, 0, 59, 38
1, 157932, Tempo, 493827
1, 157956, Tempo, 491803
1, 158040, Note_on_c, 0, 59, 0
1, 158040, Note_on_c, 0, 63, 30
1, 158052, Tempo, 500000
1, 158160, Note_on_c, 0, 63, 0
1, 158160, Note_on_c, 0, 51, 31
1, 158232, Tempo, 495868
1, 158244, Tempo, 493827
1, 158256, Tempo, 489796
1, 158280, Note_on_c, 0, 51, 0
1, 158280, Note_on_c, 0, 54, 28
1, 158304, Tempo, 497925
1, 158316, Tempo, 500000
1, 158328, Tempo, 502092
1, 158364, Tempo, 504202
1, 158388, Tempo, 502092
1, 158400, Note_on_c, 0, 54, 0
1, 158400, Note_on_c, 0, 39, 48
1, 158400, Note_on_c, 0, 61, 40
1, 158412, Control_c, 0, 64, 0
1, 158424, Tempo, 497925
1, 158436, Tempo, 495868
1, 158460, Tempo, 489796
1, 158484, Tempo, 487805
1, 158503, Control_c, 0, 64, 127
1, 158520, Note_on_c, 0, 61, 0
1, 158520, Note_on_c, 0, 63, 32
1, 158532, Tempo, 489796
1, 158544, Tempo, 504202
1, 158640, Tempo, 517241
1, 158640, Note_on_c, 0, 63, 0
1, 158640, Note_on_c, 0, 51, 32
1, 158760, Note_on_c, 0, 51, 0
1, 158760, Note_on_c, 0, 55, 28
1, 158880, Tempo, 504202
1, 158880, Note_on_c, 0, 55, 0
1, 158880, Note_on_c, 0, 61, 42
1, 158995, Note_on_c, 0, 63, 29
1, 159000, Note_on_c, 0, 61, 0
1, 159115, Note_on_c, 0, 63, 0
1, 159120, Tempo, 528634
1, 159120, Note_on_c, 0, 39, 0
1, 159120, Note_on_c, 0, 37, 41
1, 159120, Note_on_c, 0, 51, 29
1, 159200, Note_on_c, 0, 37, 0
1, 159200, Note_on_c, 0, 35, 35
1, 159240, Tempo, 740741
1, 159240, Note_on_c, 0, 51, 0
1, 159240, Note_on_c, 0, 55, 26
1, 159280, Note_on_c, 0, 35, 0
1, 159280, Note_on_c, 0, 34, 35
1, 159360, Tempo, 500000
1, 159360, Marker_t, "appassionato:"
1, 159360, Note_on_c, 0, 34, 0
1, 159360, Note_on_c, 0, 55, 0
1, 159360, Note_on_c, 0, 32, 28
1, 159360, Note_on_c, 0, 44, 37
1, 159360, Note_on_c, 0, 59, 37
1, 159360, Control_c, 0, 64, 0
1, 159372, Tempo, 502092
1, 159396, Tempo, 500000
1, 159408, Tempo, 493827
1, 159432, Tempo, 491803
1, 159446, Control_c, 0, 64, 127
1, 159456, Tempo, 489796
1, 159468, Tempo, 487805
1, 159475, Note_on_c, 0, 63, 29
1, 159480, Note_on_c, 0, 59, 0
1, 159492, Tempo, 485830
1, 159516, Tempo, 483871
1, 159552, Tempo, 491803
1, 159564, Tempo, 502092
1, 159576, Tempo, 508475
1, 159595, Note_on_c, 0, 63, 0
1, 159600, Note_on_c, 0, 51, 29
1, 159648, Tempo, 506329
1, 159660, Tempo, 502092
1, 159684, Tempo, 497925
1, 159696, Tempo, 495868
1, 159720, Tempo, 493827
1, 159720, Note_on_c, 0, 51, 0
1, 159720, Note_on_c, 0, 56, 26
1, 159732, Tempo, 491803
1, 159744, Tempo, 489796
1, 159792, Tempo, 491803
1, 159804, Tempo, 493827
1, 159828, Tempo, 500000
1, 159840, Note_on_c, 0, 56, 0
1, 159840, Note_on_c, 0, 44, 0
1, 159840, Note_on_c, 0, 32, 0
1, 159840, Note_on_c, 0, 59, 37
1, 159864, Tempo, 502092
1, 159948, Tempo, 500000
1, 159960, Note_on_c, 0, 59, 0
1, 159960, Note_on_c, 0, 63, 29
1, 159972, Tempo, 495868
1, 159984, Tempo, 493827
1, 159996, Tempo, 489796
1, 160008, Tempo, 487805
1, 160020, Tempo, 485830
1, 160068, Tempo, 487805
1, 160080, Tempo, 491803
1, 160080, Note_on_c, 0, 63, 0
1, 160080, Note_on_c, 0, 51, 29
1, 160092, Tempo, 493827
1, 160104, Tempo, 495868
1, 160116, Tempo, 497925
1, 160128, Tempo, 502092
1, 160152, Tempo, 504202
1, 160164, Tempo, 506329
1, 160188, Tempo, 504202
1, 160200, Note_on_c, 0, 51, 0
1, 160200, Note_on_c, 0, 56, 26
1, 160212, Tempo, 502092
1, 160224, Tempo, 500000
1, 160236, Tempo, 497925
1, 160248, Tempo, 493827
1, 160284, Tempo, 491803
1, 160320, Note_on_c, 0, 56, 0
1, 160320, Note_on_c, 0, 59, 37
1, 160356, Tempo, 502092
1, 160404, Tempo, 500000
1, 160440, Note_on_c, 0, 59, 0
1, 160440, Note_on_c, 0, 63, 29
1, 160464, Tempo, 493827
1, 160476, Tempo, 500000
1, 160488, Tempo, 497925
1, 160500, Tempo, 500000
1, 160560, Tempo, 517241
1, 160560, Note_on_c, 0, 63, 0
1, 160560, Note_on_c, 0, 51, 29
1, 160680, Note_on_c, 0, 51, 0
1, 160680, Note_on_c, 0, 56, 26
1, 160800, Tempo, 504202
1, 160800, Note_on_c, 0, 56, 0
1, 160800, Note_on_c, 0, 68, 38
1, 160800, Note_on_c, 0, 71, 45
1, 160800, Note_on_c, 0, 59, 37
1, 160822, Control_c, 0, 64, 0
1, 160909, Control_c, 0, 64, 127
1, 160920, Note_on_c, 0, 59, 0
1, 160920, Note_on_c, 0, 63, 29
1, 161040, Tempo, 528634
1, 161040, Note_on_c, 0, 63, 0
1, 161040, Note_on_c, 0, 71, 0
1, 161040, Note_on_c, 0, 68, 0
1, 161040, Note_on_c, 0, 70, 40
1, 161040, Note_on_c, 0, 73, 48
1, 161040, Note_on_c, 0, 61, 36
1, 161160, Tempo, 638298
1, 161160, Note_on_c, 0, 61, 0
1, 161160, Note_on_c, 0, 63, 39
1, 161280, Tempo, 500000
1, 161280, Note_on_c, 0, 63, 0
1, 161280, Note_on_c, 0, 73, 0
1, 161280, Note_on_c, 0, 70, 0
1, 161280, Note_on_c, 0, 75, 50
1, 161280, Note_on_c, 0, 71, 42
1, 161280, Note_on_c, 0, 59, 47
1, 161280, Control_c, 0, 64, 0
1, 161304, Tempo, 497925
1, 161340, Tempo, 495868
1, 161349, Control_c, 0, 64, 127
1, 161400, Note_on_c, 0, 59, 0
1, 161400, Note_on_c, 0, 63, 36
1, 161424, Tempo, 493827
1, 161472, Tempo, 497925
1, 161484, Tempo, 500000
1, 161496, Tempo, 502092
1, 161508, Tempo, 504202
1, 161520, Note_on_c, 0, 63, 0
1, 161520, Note_on_c, 0, 51, 36
1, 161532, Tempo, 493827
1, 161568, Tempo, 491803
1, 161616, Tempo, 489796
1, 161628, Tempo, 487805
1, 161640, Tempo, 489796
1, 161640, Note_on_c, 0, 51, 0
1, 161640, Note_on_c, 0, 56, 32
1, 161652, Tempo, 493827
1, 161676, Tempo, 497925
1, 161688, Tempo, 500000
1, 161712, Tempo, 504202
1, 161760, Tempo, 502092
1, 161760, Note_on_c, 0, 56, 0
1, 161760, Note_on_c, 0, 71, 0
1, 161760, Note_on_c, 0, 75, 0
1, 161760, Note_on_c, 0, 59, 40
1, 161772, Tempo, 495868
1, 161784, Tempo, 487805
1, 161796, Tempo, 485830
1, 161808, Tempo, 487805
1, 161820, Tempo, 489796
1, 161832, Tempo, 491803
1, 161844, Tempo, 495868
1, 161868, Tempo, 500000
1, 161880, Note_on_c, 0, 59, 0
1, 161880, Note_on_c, 0, 63, 36
1, 161892, Tempo, 502092
1, 161976, Tempo, 500000
1, 161988, Tempo, 493827
1, 162000, Tempo, 491803
1, 162000, Note_on_c, 0, 63, 0
1, 162000, Note_on_c, 0, 51, 36
1, 162036, Tempo, 500000
1, 162048, Tempo, 506329
1, 162072, Tempo, 504202
1, 162096, Tempo, 500000
1, 162120, Tempo, 497925
1, 162120, Note_on_c, 0, 51, 0
1, 162120, Note_on_c, 0, 56, 32
1, 162240, Tempo, 538117
1, 162240, Note_on_c, 0, 56, 0
1, 162240, Note_on_c, 0, 59, 45
1, 162360, Note_on_c, 0, 59, 0
1, 162360, Note_on_c, 0, 63, 35
1, 162480, Tempo, 500000
1, 162480, Note_on_c, 0, 63, 0
1, 162480, Note_on_c, 0, 47, 44
1, 162480, Note_on_c, 0, 51, 37
1, 162480, Note_on_c, 0, 59, 35
1, 162480, Note_on_c, 0, 56, 35
1, 162483, Control_c, 0, 64, 0
1, 162577, Control_c, 0, 64, 127
1, 162600, Note_on_c, 0, 56, 0
1, 162600, Note_on_c, 0, 59, 0
1, 162600, Note_on_c, 0, 63, 29
1, 162720, Tempo, 495868
1, 162720, Note_on_c, 0, 63, 0
1, 162720, Note_on_c, 0, 51, 0
1, 162720, Note_on_c, 0, 47, 0
1, 162720, Note_on_c, 0, 51, 39
1, 162720, Note_on_c, 0, 46, 47
1, 162720, Note_on_c, 0, 61, 44
1, 162720, Note_on_c, 0, 55, 44
1, 162736, Control_c, 0, 64, 0
1, 162756, Tempo, 493827
1, 162792, Tempo, 491803
1, 162840, Note_on_c, 0, 55, 0
1, 162840, Note_on_c, 0, 61, 0
1, 162840, Note_on_c, 0, 63, 29
1, 162846, Control_c, 0, 64, 127
1, 162852, Tempo, 493827
1, 162864, Tempo, 495868
1, 162876, Tempo, 497925
1, 162888, Tempo, 500000
1, 162912, Tempo, 504202
1, 162936, Tempo, 506329
1, 162960, Tempo, 502092
1, 162960, Note_on_c, 0, 63, 0
1, 162960, Note_on_c, 0, 46, 0
1, 162960, Note_on_c, 0, 51, 0
1, 162960, Note_on_c, 0, 44, 50
1, 162960, Note_on_c, 0, 51, 42
1, 162960, Note_on_c, 0, 56, 31
1, 162960, Note_on_c, 0, 59, 31
1, 162966, Control_c, 0, 64, 0
1, 162972, Tempo, 493827
1, 163068, Tempo, 495868
1, 163069, Control_c, 0, 64, 127
1, 163080, Tempo, 497925
1, 163080, Note_on_c, 0, 59, 0
1, 163080, Note_on_c, 0, 56, 0
1, 163080, Note_on_c, 0, 63, 28
1, 163092, Tempo, 500000
1, 163152, Tempo, 497925
1, 163176, Tempo, 495868
1, 163200, Note_on_c, 0, 63, 0
1, 163200, Note_on_c, 0, 51, 0
1, 163200, Note_on_c, 0, 44, 0
1, 163200, Note_on_c, 0, 39, 55
1, 163200, Note_on_c, 0, 51, 39
1, 163200, Note_on_c, 0, 55, 37
1, 163200, Note_on_c, 0, 58, 37
1, 163200, Control_c, 0, 64, 0
1, 163224, Tempo, 493827
1, 163236, Tempo, 491803
1, 163260, Tempo, 504202
1, 163284, Tempo, 506329
1, 163286, Control_c, 0, 64, 127
1, 163315, Note_on_c, 0, 63, 29
1, 163320, Note_on_c, 0, 58, 0
1, 163320, Note_on_c, 0, 55, 0
1, 163380, Tempo, 504202
1, 163404, Tempo, 500000
1, 163428, Tempo, 495868
1, 163435, Note_on_c, 0, 63, 0
1, 163438, Note_on_c, 0, 51, 0
1, 163440, Note_on_c, 0, 39, 0
1, 163440, Note_on_c, 0, 51, 29
1, 163452, Tempo, 493827
1, 163488, Tempo, 491803
1, 163500, Tempo, 489796
1, 163560, Note_on_c, 0, 51, 0
1, 163560, Note_on_c, 0, 55, 24
1, 163596, Tempo, 493827
1, 163656, Tempo, 497925
1, 163680, Tempo, 502092
1, 163680, Note_on_c, 0, 55, 0
1, 163680, Note_on_c, 0, 58, 37
1, 163716, Tempo, 506329
1, 163800, Tempo, 502092
1, 163800, Note_on_c, 0, 58, 0
1, 163800, Note_on_c, 0, 63, 29
1, 163812, Tempo, 497925
1, 163824, Tempo, 493827
1, 163860, Tempo, 491803
1, 163920, Note_on_c, 0, 63, 0
1, 163920, Note_on_c, 0, 51, 29
1, 163980, Tempo, 493827
1, 163992, Tempo, 500000
1, 164004, Tempo, 502092
1, 164028, Tempo, 504202
1, 164040, Note_on_c, 0, 51, 0
1, 164040, Note_on_c, 0, 55, 25
1, 164124, Tempo, 502092
1, 164160, Tempo, 500000
1, 164160, Note_on_c, 0, 55, 0
1, 164160, Note_on_c, 0, 58, 37
1, 164280, Note_on_c, 0, 58, 0
1, 164280, Note_on_c, 0, 63, 29
1, 164340, Tempo, 495868
1, 164364, Tempo, 493827
1, 164400, Tempo, 517241
1, 164400, Note_on_c, 0, 63, 0
1, 164400, Note_on_c, 0, 51, 29
1, 164520, Note_on_c, 0, 51, 0
1, 164520, Note_on_c, 0, 55, 26
1, 164640, Tempo, 504202
1, 164640, Note_on_c, 0, 55, 0
1, 164640, Note_on_c, 0, 73, 64
1, 164640, Note_on_c, 0, 70, 54
1, 164640, Note_on_c, 0, 58, 42
1, 164656, Control_c, 0, 64, 0
1, 164746, Control_c, 0, 64, 127
1, 164760, Note_on_c, 0, 58, 0
1, 164760, Note_on_c, 0, 63, 31
1, 164880, Tempo, 528634
1, 164880, Note_on_c, 0, 63, 0
1, 164880, Note_on_c, 0, 70, 0
1, 164880, Note_on_c, 0, 73, 0
1, 164880, Note_on_c, 0, 73, 51
1, 164880, Note_on_c, 0, 76, 61
1, 164880, Note_on_c, 0, 61, 31
1, 165000, Tempo, 638298
1, 165000, Note_on_c, 0, 61, 0
1, 165000, Note_on_c, 0, 63, 29
1, 165120, Tempo, 500000
1, 165120, Note_on_c, 0, 63, 0
1, 165120, Note_on_c, 0, 76, 0
1, 165120, Note_on_c, 0, 73, 0
1, 165120, Note_on_c, 0, 75, 57
1, 165120, Note_on_c, 0, 71, 48
1, 165120, Note_on_c, 0, 59, 39
1, 165120, Control_c, 0, 64, 0
1, 165132, Tempo, 497925
1, 165144, Tempo, 495868
1, 165156, Tempo, 493827
1, 165189, Control_c, 0, 64, 127
1, 165216, Tempo, 504202
1, 165240, Tempo, 506329
1, 165240, Note_on_c, 0, 59, 0
1, 165247, Note_on_c, 0, 63, 29
1, 165288, Tempo, 500000
1, 165312, Tempo, 497925
1, 165336, Tempo, 495868
1, 165367, Note_on_c, 0, 63, 0
1, 165372, Note_on_c, 0, 51, 29
1, 165408, Tempo, 500000
1, 165444, Tempo, 504202
1, 165492, Note_on_c, 0, 51, 0
1, 165492, Note_on_c, 0, 56, 24
1, 165528, Tempo, 489796
1, 165588, Tempo, 491803
1, 165600, Note_on_c, 0, 71, 0
1, 165600, Note_on_c, 0, 75, 0
1, 165612, Tempo, 493827
1, 165612, Note_on_c, 0, 56, 0
1, 165612, Note_on_c, 0, 59, 42
1, 165624, Tempo, 495868
1, 165636, Tempo, 497925
1, 165684, Tempo, 502092
1, 165696, Tempo, 504202
1, 165732, Note_on_c, 0, 59, 0
1, 165732, Note_on_c, 0, 63, 34
1, 165780, Tempo, 500000
1, 165792, Tempo, 487805
1, 165852, Tempo, 495868
1, 165852, Note_on_c, 0, 63, 0
1, 165852, Note_on_c, 0, 51, 34
1, 165876, Tempo, 500000
1, 165888, Tempo, 502092
1, 165924, Tempo, 504202
1, 165972, Note_on_c, 0, 51, 0
1, 165972, Note_on_c, 0, 56, 28
1, 166020, Tempo, 497925
1, 166080, Tempo, 538117
1, 166092, Note_on_c, 0, 56, 0
1, 166092, Note_on_c, 0, 59, 41
1, 166212, Note_on_c, 0, 59, 0
1, 166212, Note_on_c, 0, 63, 33
1, 166320, Tempo, 500000
1, 166320, Note_on_c, 0, 51, 33
1, 166332, Note_on_c, 0, 63, 0
1, 166440, Note_on_c, 0, 51, 0
1, 166440, Note_on_c, 0, 56, 29
1, 166548, Tempo, 500000
1, 166560, Note_on_c, 0, 56, 0
1, 166560, Note_on_c, 0, 47, 57
1, 166560, Note_on_c, 0, 51, 41
1, 166560, Note_on_c, 0, 59, 37
1, 166572, Tempo, 497925
1, 166572, Control_c, 0, 64, 0
1, 166596, Tempo, 495868
1, 166652, Control_c, 0, 64, 127
1, 166680, Note_on_c, 0, 59, 0
1, 166692, Note_on_c, 0, 63, 29
1, 166704, Tempo, 500000
1, 166716, Tempo, 502092
1, 166728, Tempo, 506329
1, 166752, Tempo, 510638
1, 166788, Tempo, 504202
1, 166800, Tempo, 500000
1, 166800, Note_on_c, 0, 51, 0
1, 166800, Note_on_c, 0, 47, 0
1, 166800, Note_on_c, 0, 51, 39
1, 166800, Note_on_c, 0, 46, 47
1, 166800, Note_on_c, 0, 61, 29
1, 166800, Note_on_c, 0, 55, 29
1, 166812, Note_on_c, 0, 63, 0
1, 166815, Control_c, 0, 64, 0
1, 166824, Tempo, 497925
1, 166836, Tempo, 495868
1, 166848, Tempo, 493827
1, 166860, Tempo, 491803
1, 166872, Tempo, 489796
1, 166909, Control_c, 0, 64, 127
1, 166920, Note_on_c, 0, 61, 0
1, 166920, Note_on_c, 0, 55, 0
1, 166932, Tempo, 491803
1, 166932, Note_on_c, 0, 63, 25
1, 166956, Tempo, 495868
1, 166968, Tempo, 497925
1, 166980, Tempo, 500000
1, 166992, Tempo, 502092
1, 167004, Tempo, 504202
1, 167028, Tempo, 506329
1, 167040, Tempo, 504202
1, 167040, Note_on_c, 0, 63, 0
1, 167040, Note_on_c, 0, 46, 0
1, 167040, Note_on_c, 0, 51, 0
1, 167040, Note_on_c, 0, 51, 42
1, 167040, Note_on_c, 0, 44, 50
1, 167040, Note_on_c, 0, 59, 37
1, 167040, Note_on_c, 0, 56, 37
1, 167040, Control_c, 0, 64, 0
1, 167040, Control_c, 0, 64, 0
1, 167052, Tempo, 502092
1, 167076, Tempo, 500000
1, 167088, Tempo, 497925
1, 167112, Tempo, 495868
1, 167126, Control_c, 0, 64, 127
1, 167136, Tempo, 493827
1, 167155, Note_on_c, 0, 63, 29
1, 167160, Note_on_c, 0, 56, 0
1, 167160, Note_on_c, 0, 59, 0
1, 167208, Tempo, 495868
1, 167220, Tempo, 500000
1, 167232, Tempo, 502092
1, 167275, Note_on_c, 0, 63, 0
1, 167280, Note_on_c, 0, 44, 0
1, 167280, Note_on_c, 0, 51, 0
1, 167280, Note_on_c, 0, 51, 29
1, 167292, Tempo, 495868
1, 167304, Tempo, 493827
1, 167328, Tempo, 491803
1, 167376, Tempo, 489796
1, 167400, Note_on_c, 0, 51, 0
1, 167400, Note_on_c, 0, 56, 25
1, 167448, Tempo, 491803
1, 167460, Tempo, 495868
1, 167472, Tempo, 500000
1, 167484, Tempo, 502092
1, 167496, Tempo, 506329
1, 167508, Tempo, 508475
1, 167520, Tempo, 510638
1, 167520, Note_on_c, 0, 56, 0
1, 167520, Note_on_c, 0, 59, 38
1, 167544, Tempo, 512821
1, 167604, Tempo, 497925
1, 167616, Tempo, 495868
1, 167640, Tempo, 493827
1, 167640, Note_on_c, 0, 59, 0
1, 167640, Note_on_c, 0, 63, 30
1, 167676, Tempo, 491803
1, 167760, Note_on_c, 0, 63, 0
1, 167760, Note_on_c, 0, 51, 31
1, 167772, Tempo, 489796
1, 167796, Tempo, 487805
1, 167856, Tempo, 495868
1, 167880, Tempo, 493827
1, 167880, Note_on_c, 0, 51, 0
1, 167880, Note_on_c, 0, 56, 28
1, 167892, Tempo, 491803
1, 167904, Tempo, 489796
1, 167916, Tempo, 487805
1, 167928, Tempo, 485830
1, 167952, Tempo, 483871
1, 167964, Tempo, 481928
1, 167988, Tempo, 493827
1, 168000, Note_on_c, 0, 56, 0
1, 168000, Note_on_c, 0, 59, 40
1, 168108, Tempo, 497925
1, 168120, Note_on_c, 0, 59, 0
1, 168120, Note_on_c, 0, 63, 32
1, 168132, Tempo, 500000
1, 168240, Tempo, 517241
1, 168240, Note_on_c, 0, 63, 0
1, 168240, Note_on_c, 0, 51, 32
1, 168360, Note_on_c, 0, 51, 0
1, 168360, Note_on_c, 0, 56, 27
1, 168480, Tempo, 504202
1, 168480, Note_on_c, 0, 56, 0
1, 168480, Note_on_c, 0, 68, 43
1, 168480, Note_on_c, 0, 71, 51
1, 168480, Note_on_c, 0, 59, 42
1, 168499, Control_c, 0, 64, 0
1, 168600, Note_on_c, 0, 59, 0
1, 168600, Note_on_c, 0, 63, 33
1, 168617, Control_c, 0, 64, 127
1, 168720, Tempo, 528634
1, 168720, Note_on_c, 0, 63, 0
1, 168720, Note_on_c, 0, 71, 0
1, 168720, Note_on_c, 0, 68, 0
1, 168720, Note_on_c, 0, 70, 46
1, 168720, Note_on_c, 0, 73, 55
1, 168720, Note_on_c, 0, 61, 41
1, 168720, Note_on_c, 0, 54, 41
1, 168730, Control_c, 0, 64, 0
1, 168817, Control_c, 0, 64, 127
1, 168840, Tempo, 638298
1, 168840, Note_on_c, 0, 54, 0
1, 168840, Note_on_c, 0, 61, 0
1, 168840, Note_on_c, 0, 66, 44
1, 168960, Tempo, 497925
1, 168960, Note_on_c, 0, 66, 0
1, 168960, Note_on_c, 0, 73, 0
1, 168960, Note_on_c, 0, 70, 0
1, 168960, Note_on_c, 0, 71, 48
1, 168960, Note_on_c, 0, 75, 57
1, 168960, Note_on_c, 0, 63, 54
1, 168960, Note_on_c, 0, 59, 54
1, 168960, Control_c, 0, 64, 0
1, 168996, Tempo, 493827
1, 169008, Tempo, 491803
1, 169029, Control_c, 0, 64, 127
1, 169068, Tempo, 500000
1, 169080, Tempo, 502092
1, 169080, Note_on_c, 0, 59, 0
1, 169080, Note_on_c, 0, 63, 0
1, 169080, Note_on_c, 0, 66, 41
1, 169092, Tempo, 504202
1, 169104, Tempo, 506329
1, 169116, Tempo, 510638
1, 169140, Tempo, 500000
1, 169152, Tempo, 495868
1, 169164, Tempo, 493827
1, 169200, Note_on_c, 0, 66, 0
1, 169202, Note_on_c, 0, 54, 41
1, 169224, Tempo, 491803
1, 169248, Tempo, 495868
1, 169272, Tempo, 497925
1, 169308, Tempo, 500000
1, 169320, Note_on_c, 0, 59, 36
1, 169322, Note_on_c, 0, 54, 0
1, 169332, Tempo, 502092
1, 169440, Tempo, 500000
1, 169440, Note_on_c, 0, 71, 0
1, 169440, Note_on_c, 0, 75, 0
1, 169440, Note_on_c, 0, 59, 0
1, 169440, Note_on_c, 0, 63, 46
1, 169452, Tempo, 497925
1, 169464, Tempo, 493827
1, 169488, Tempo, 491803
1, 169548, Tempo, 504202
1, 169560, Note_on_c, 0, 63, 0
1, 169560, Note_on_c, 0, 66, 41
1, 169572, Tempo, 506329
1, 169656, Tempo, 497925
1, 169668, Tempo, 495868
1, 169680, Note_on_c, 0, 66, 0
1, 169680, Note_on_c, 0, 54, 41
1, 169752, Tempo, 497925
1, 169788, Tempo, 502092
1, 169800, Note_on_c, 0, 54, 0
1, 169800, Note_on_c, 0, 59, 36
1, 169824, Tempo, 500000
1, 169920, Tempo, 538117
1, 169920, Note_on_c, 0, 59, 0
1, 169920, Note_on_c, 0, 63, 51
1, 170040, Note_on_c, 0, 63, 0
1, 170040, Note_on_c, 0, 66, 44
1, 170160, Tempo, 500000
1, 170160, Note_on_c, 0, 66, 0
1, 170160, Note_on_c, 0, 51, 50
1, 170160, Note_on_c, 0, 54, 42
1, 170160, Note_on_c, 0, 63, 46
1, 170160, Note_on_c, 0, 59, 46
1, 170176, Control_c, 0, 64, 0
1, 170240, Control_c, 0, 64, 127
1, 170280, Note_on_c, 0, 59, 0
1, 170280, Note_on_c, 0, 63, 0
1, 170280, Note_on_c, 0, 66, 47
1, 170388, Tempo, 500000
1, 170400, Tempo, 497925
1, 170400, Note_on_c, 0, 66, 0
1, 170400, Note_on_c, 0, 54, 0
1, 170400, Note_on_c, 0, 51, 0
1, 170400, Note_on_c, 0, 54, 42
1, 170400, Note_on_c, 0, 49, 51
1, 170400, Note_on_c, 0, 64, 55
1, 170400, Note_on_c, 0, 58, 55
1, 170412, Tempo, 495868
1, 170413, Control_c, 0, 64, 0
1, 170424, Tempo, 493827
1, 170448, Tempo, 491803
1, 170457, Control_c, 0, 64, 127
1, 170508, Tempo, 493827
1, 170520, Tempo, 495868
1, 170520, Note_on_c, 0, 58, 0
1, 170520, Note_on_c, 0, 64, 0
1, 170520, Note_on_c, 0, 66, 48
1, 170532, Tempo, 497925
1, 170544, Tempo, 500000
1, 170556, Tempo, 502092
1, 170568, Tempo, 504202
1, 170604, Tempo, 508475
1, 170628, Tempo, 506329
1, 170640, Tempo, 504202
1, 170640, Note_on_c, 0, 66, 0
1, 170640, Note_on_c, 0, 49, 0
1, 170640, Note_on_c, 0, 54, 0
1, 170640, Note_on_c, 0, 47, 54
1, 170640, Note_on_c, 0, 54, 45
1, 170640, Note_on_c, 0, 59, 50
1, 170640, Note_on_c, 0, 63, 50
1, 170650, Control_c, 0, 64, 0
1, 170652, Tempo, 502092
1, 170676, Tempo, 500000
1, 170712, Tempo, 497925
1, 170726, Control_c, 0, 64, 127
1, 170760, Note_on_c, 0, 63, 0
1, 170760, Note_on_c, 0, 59, 0
1, 170760, Note_on_c, 0, 66, 54
1, 170808, Tempo, 493827
1, 170820, Tempo, 491803
1, 170856, Tempo, 495868
1, 170880, Tempo, 500000
1, 170880, Note_on_c, 0, 66, 0
1, 170880, Note_on_c, 0, 54, 0
1, 170880, Note_on_c, 0, 47, 0
1, 170880, Note_on_c, 0, 54, 44
1, 170880, Note_on_c, 0, 42, 63
1, 170880, Note_on_c, 0, 61, 60
1, 170880, Note_on_c, 0, 58, 60
1, 170880, Control_c, 0, 64, 0
1, 170916, Tempo, 495868
1, 170928, Tempo, 493827
1, 170940, Tempo, 491803
1, 170952, Tempo, 489796
1, 170966, Control_c, 0, 64, 127
1, 171000, Tempo, 495868
1, 171000, Note_on_c, 0, 58, 0
1, 171000, Note_on_c, 0, 61, 0
1, 171000, Note_on_c, 0, 66, 49
1, 171012, Tempo, 497925
1, 171024, Tempo, 502092
1, 171036, Tempo, 504202
1, 171060, Tempo, 506329
1, 171072, Tempo, 502092
1, 171084, Tempo, 500000
1, 171096, Tempo, 497925
1, 171120, Tempo, 493827
1, 171120, Note_on_c, 0, 66, 0
1, 171120, Note_on_c, 0, 42, 0
1, 171120, Note_on_c, 0, 54, 0
1, 171120, Note_on_c, 0, 54, 49
1, 171132, Tempo, 491803
1, 171156, Tempo, 487805
1, 171168, Tempo, 485830
1, 171192, Tempo, 489796
1, 171216, Tempo, 493827
1, 171240, Tempo, 495868
1, 171240, Note_on_c, 0, 54, 0
1, 171240, Note_on_c, 0, 58, 43
1, 171252, Tempo, 500000
1, 171276, Tempo, 502092
1, 171288, Tempo, 506329
1, 171336, Tempo, 500000
1, 171348, Tempo, 495868
1, 171360, Note_on_c, 0, 58, 0
1, 171360, Note_on_c, 0, 61, 52
1, 171372, Tempo, 491803
1, 171396, Tempo, 489796
1, 171444, Tempo, 491803
1, 171456, Tempo, 493827
1, 171468, Tempo, 495868
1, 171480, Tempo, 497925
1, 171480, Note_on_c, 0, 61, 0
1, 171480, Note_on_c, 0, 66, 42
1, 171564, Tempo, 495868
1, 171576, Tempo, 491803
1, 171600, Tempo, 489796
1, 171600, Note_on_c, 0, 66, 0
1, 171600, Note_on_c, 0, 54, 42
1, 171624, Tempo, 487805
1, 171636, Tempo, 485830
1, 171684, Tempo, 489796
1, 171696, Tempo, 491803
1, 171708, Tempo, 500000
1, 171720, Note_on_c, 0, 54, 0
1, 171720, Note_on_c, 0, 58, 36
1, 171732, Tempo, 502092
1, 171780, Tempo, 489796
1, 171816, Tempo, 493827
1, 171828, Tempo, 495868
1, 171840, Tempo, 500000
1, 171840, Note_on_c, 0, 58, 0
1, 171840, Note_on_c, 0, 61, 58
1, 171852, Tempo, 502092
1, 171864, Tempo, 504202
1, 171888, Tempo, 506329
1, 171900, Tempo, 508475
1, 171960, Tempo, 500000
1, 171960, Note_on_c, 0, 61, 0
1, 171960, Note_on_c, 0, 66, 45
1, 171972, Tempo, 495868
1, 172020, Tempo, 491803
1, 172032, Tempo, 495868
1, 172044, Tempo, 493827
1, 172056, Tempo, 495868
1, 172080, Tempo, 517241
1, 172080, Note_on_c, 0, 66, 0
1, 172080, Note_on_c, 0, 54, 45
1, 172200, Note_on_c, 0, 54, 0
1, 172200, Note_on_c, 0, 58, 36
1, 172320, Tempo, 504202
1, 172320, Note_on_c, 0, 58, 0
1, 172320, Note_on_c, 0, 76, 73
1, 172320, Note_on_c, 0, 73, 62
1, 172320, Note_on_c, 0, 61, 56
1, 172332, Control_c, 0, 64, 0
1, 172417, Control_c, 0, 64, 127
1, 172440, Note_on_c, 0, 61, 0
1, 172440, Note_on_c, 0, 66, 41
1, 172560, Tempo, 528634
1, 172560, Note_on_c, 0, 66, 0
1, 172560, Note_on_c, 0, 73, 0
1, 172560, Note_on_c, 0, 76, 0
1, 172560, Note_on_c, 0, 80, 70
1, 172560, Note_on_c, 0, 76, 58
1, 172560, Note_on_c, 0, 64, 41
1, 172680, Tempo, 638298
1, 172680, Note_on_c, 0, 64, 0
1, 172680, Note_on_c, 0, 66, 36
1, 172800, Tempo, 495868
1, 172800, Note_on_c, 0, 66, 0
1, 172800, Note_on_c, 0, 76, 0
1, 172800, Note_on_c, 0, 80, 0
1, 172800, Note_on_c, 0, 78, 65
1, 172800, Note_on_c, 0, 75, 69
1, 172800, Note_on_c, 0, 63, 53
1, 172800, Control_c, 0, 64, 0
1, 172812, Tempo, 493827
1, 172824, Tempo, 491803
1, 172869, Control_c, 0, 64, 127
1, 172884, Tempo, 489796
1, 172908, Tempo, 491803
1, 172920, Tempo, 493827
1, 172920, Note_on_c, 0, 63, 0
1, 172920, Note_on_c, 0, 66, 43
1, 172944, Tempo, 497925
1, 172968, Tempo, 500000
1, 172980, Tempo, 502092
1, 173004, Tempo, 500000
1, 173016, Tempo, 493827
1, 173028, Tempo, 491803
1, 173040, Tempo, 489796
1, 173040, Note_on_c, 0, 66, 0
1, 173040, Note_on_c, 0, 54, 43
1, 173076, Tempo, 487805
1, 173112, Tempo, 489796
1, 173124, Tempo, 491803
1, 173136, Tempo, 495868
1, 173148, Tempo, 497925
1, 173160, Note_on_c, 0, 54, 0
1, 173160, Note_on_c, 0, 59, 38
1, 173172, Tempo, 502092
1, 173220, Tempo, 497925
1, 173232, Tempo, 489796
1, 173244, Tempo, 487805
1, 173256, Tempo, 485830
1, 173268, Tempo, 483871
1, 173280, Tempo, 485830
1, 173280, Note_on_c, 0, 59, 0
1, 173280, Note_on_c, 0, 75, 0
1, 173280, Note_on_c, 0, 78, 0
1, 173280, Note_on_c, 0, 63, 48
1, 173292, Tempo, 487805
1, 173304, Tempo, 489796
1, 173316, Tempo, 491803
1, 173340, Tempo, 493827
1, 173364, Tempo, 495868
1, 173376, Tempo, 497925
1, 173400, Tempo, 500000
1, 173400, Note_on_c, 0, 63, 0
1, 173400, Note_on_c, 0, 66, 38
1, 173472, Tempo, 497925
1, 173484, Tempo, 493827
1, 173520, Note_on_c, 0, 66, 0
1, 173520, Note_on_c, 0, 54, 38
1, 173532, Tempo, 497925
1, 173544, Tempo, 504202
1, 173604, Tempo, 502092
1, 173616, Tempo, 500000
1, 173628, Tempo, 497925
1, 173640, Note_on_c, 0, 54, 0
1, 173640, Note_on_c, 0, 59, 33
1, 173652, Tempo, 493827
1, 173688, Tempo, 495868
1, 173712, Tempo, 500000
1, 173724, Tempo, 497925
1, 173760, Tempo, 538117
1, 173760, Note_on_c, 0, 59, 0
1, 173760, Note_on_c, 0, 63, 45
1, 173880, Note_on_c, 0, 63, 0
1, 173880, Note_on_c, 0, 66, 35
1, 174000, Tempo, 500000
1, 174000, Note_on_c, 0, 66, 0
1, 174000, Note_on_c, 0, 54, 35
1, 174024, Tempo, 497925
1, 174048, Tempo, 495868
1, 174072, Tempo, 491803
1, 174096, Tempo, 489796
1, 174108, Tempo, 487805
1, 174120, Note_on_c, 0, 54, 0
1, 174120, Note_on_c, 0, 59, 32
1, 174144, Tempo, 489796
1, 174156, Tempo, 491803
1, 174180, Tempo, 493827
1, 174204, Tempo, 495868
1, 174228, Tempo, 497925
1, 174240, Tempo, 502092
1, 174240, Note_on_c, 0, 59, 0
1, 174240, Note_on_c, 0, 54, 43
1, 174240, Note_on_c, 0, 51, 59
1, 174240, Note_on_c, 0, 59, 38
1, 174240, Note_on_c, 0, 63, 38
1, 174260, Control_c, 0, 64, 0
1, 174264, Tempo, 497925
1, 174276, Tempo, 495868
1, 174288, Tempo, 493827
1, 174312, Tempo, 491803
1, 174360, Note_on_c, 0, 63, 0
1, 174360, Note_on_c, 0, 59, 0
1, 174360, Note_on_c, 0, 66, 30
1, 174372, Control_c, 0, 64, 127
1, 174372, Tempo, 495868
1, 174384, Tempo, 500000
1, 174396, Tempo, 502092
1, 174420, Tempo, 504202
1, 174480, Tempo, 502092
1, 174480, Note_on_c, 0, 66, 0
1, 174480, Note_on_c, 0, 51, 0
1, 174480, Note_on_c, 0, 54, 0
1, 174480, Note_on_c, 0, 54, 40
1, 174480, Note_on_c, 0, 49, 48
1, 174480, Note_on_c, 0, 64, 29
1, 174480, Note_on_c, 0, 58, 29
1, 174492, Tempo, 500000
1, 174492, Control_c, 0, 64, 0
1, 174504, Tempo, 497925
1, 174528, Tempo, 495868
1, 174540, Tempo, 493827
1, 174564, Tempo, 489796
1, 174572, Control_c, 0, 64, 127
1, 174576, Tempo, 487805
1, 174600, Tempo, 497925
1, 174600, Note_on_c, 0, 58, 0
1, 174600, Note_on_c, 0, 64, 0
1, 174600, Note_on_c, 0, 66, 25
1, 174708, Note_on_c, 0, 66, 0
1, 174720, Note_on_c, 0, 49, 0
1, 174720, Note_on_c, 0, 54, 0
1, 174720, Note_on_c, 0, 54, 42
1, 174720, Note_on_c, 0, 47, 50
1, 174720, Note_on_c, 0, 63, 37
1, 174720, Note_on_c, 0, 59, 37
1, 174720, Control_c, 0, 64, 0
1, 174720, Control_c, 0, 64, 0
1, 174744, Tempo, 489796
1, 174806, Control_c, 0, 64, 127
1, 174840, Note_on_c, 0, 59, 0
1, 174840, Note_on_c, 0, 63, 0
1, 174840, Note_on_c, 0, 66, 29
1, 174852, Tempo, 493827
1, 174864, Tempo, 495868
1, 174876, Tempo, 497925
1, 174888, Tempo, 500000
1, 174924, Tempo, 497925
1, 174936, Tempo, 493827
1, 174948, Tempo, 491803
1, 174960, Tempo, 489796
1, 174960, Note_on_c, 0, 66, 0
1, 174960, Note_on_c, 0, 47, 0
1, 174960, Note_on_c, 0, 54, 0
1, 174960, Note_on_c, 0, 54, 29
1, 175044, Tempo, 495868
1, 175056, Tempo, 497925
1, 175068, Tempo, 500000
1, 175080, Note_on_c, 0, 54, 0
1, 175080, Note_on_c, 0, 59, 23
1, 175104, Tempo, 497925
1, 175152, Tempo, 512821
1, 175164, Tempo, 510638
1, 175176, Tempo, 506329
1, 175188, Tempo, 504202
1, 175200, Note_on_c, 0, 59, 0
1, 175200, Note_on_c, 0, 63, 38
1, 175212, Tempo, 502092
1, 175224, Tempo, 500000
1, 175236, Tempo, 497925
1, 175248, Tempo, 493827
1, 175272, Tempo, 489796
1, 175284, Tempo, 487805
1, 175320, Tempo, 495868
1, 175320, Note_on_c, 0, 63, 0
1, 175320, Note_on_c, 0, 66, 30
1, 175332, Tempo, 497925
1, 175356, Tempo, 500000
1, 175380, Tempo, 504202
1, 175440, Note_on_c, 0, 66, 0
1, 175440, Note_on_c, 0, 54, 31
1, 175500, Tempo, 502092
1, 175524, Tempo, 485830
1, 175560, Note_on_c, 0, 54, 0
1, 175560, Note_on_c, 0, 59, 26
1, 175572, Tempo, 487805
1, 175584, Tempo, 489796
1, 175596, Tempo, 493827
1, 175608, Tempo, 504202
1, 175620, Tempo, 506329
1, 175680, Note_on_c, 0, 59, 0
1, 175680, Note_on_c, 0, 63, 40
1, 175740, Tempo, 504202
1, 175764, Tempo, 502092
1, 175800, Note_on_c, 0, 63, 0
1, 175800, Note_on_c, 0, 66, 32
1, 175896, Tempo, 500000
1, 175920, Tempo, 517241
1, 175920, Note_on_c, 0, 66, 0
1, 175920, Note_on_c, 0, 75, 61
1, 175920, Note_on_c, 0, 54, 32
1, 175943, Control_c, 0, 64, 0
1, 176012, Control_c, 0, 64, 127
1, 176040, Note_on_c, 0, 54, 0
1, 176040, Note_on_c, 0, 59, 28
1, 176160, Tempo, 504202
1, 176160, Note_on_c, 0, 59, 0
1, 176160, Note_on_c, 0, 75, 0
1, 176160, Note_on_c, 0, 73, 64
1, 176160, Note_on_c, 0, 63, 42
1, 176176, Control_c, 0, 64, 0
1, 176235, Control_c, 0, 64, 127
1, 176280, Note_on_c, 0, 63, 0
1, 176280, Note_on_c, 0, 66, 33
1, 176400, Tempo, 528634
1, 176400, Note_on_c, 0, 66, 0
1, 176400, Note_on_c, 0, 73, 0
1, 176400, Note_on_c, 0, 71, 66
1, 176400, Note_on_c, 0, 54, 41
1, 176520, Tempo, 745342
1, 176520, Note_on_c, 0, 54, 0
1, 176520, Note_on_c, 0, 59, 44
1, 176628, Tempo, 500000
1, 176640, Note_on_c, 0, 59, 0
1, 176640, Note_on_c, 0, 71, 0
1, 176640, Note_on_c, 0, 68, 66
1, 176640, Note_on_c, 0, 64, 50
1, 176640, Control_c, 0, 64, 0
1, 176640, Control_c, 0, 64, 0
1, 176664, Tempo, 497925
1, 176688, Tempo, 495868
1, 176700, Tempo, 491803
1, 176726, Control_c, 0, 64, 127
1, 176748, Tempo, 489796
1, 176760, Tempo, 493827
1, 176760, Note_on_c, 0, 64, 0
1, 176760, Note_on_c, 0, 59, 36
1, 176772, Tempo, 504202
1, 176796, Tempo, 502092
1, 176808, Tempo, 500000
1, 176820, Tempo, 497925
1, 176844, Tempo, 495868
1, 176856, Tempo, 493827
1, 176880, Tempo, 491803
1, 176880, Note_on_c, 0, 59, 0
1, 176880, Note_on_c, 0, 56, 36
1, 176904, Tempo, 489796
1, 176916, Tempo, 487805
1, 176952, Tempo, 497925
1, 177000, Note_on_c, 0, 56, 0
1, 177000, Note_on_c, 0, 59, 31
1, 177036, Tempo, 493827
1, 177048, Tempo, 491803
1, 177060, Tempo, 489796
1, 177084, Tempo, 487805
1, 177108, Tempo, 485830
1, 177120, Note_on_c, 0, 59, 0
1, 177120, Note_on_c, 0, 68, 0
1, 177120, Note_on_c, 0, 64, 45
1, 177132, Tempo, 504202
1, 177204, Tempo, 487805
1, 177216, Tempo, 485830
1, 177228, Tempo, 483871
1, 177240, Note_on_c, 0, 64, 0
1, 177240, Note_on_c, 0, 68, 36
1, 177252, Tempo, 481928
1, 177276, Tempo, 480000
1, 177336, Tempo, 483871
1, 177360, Note_on_c, 0, 68, 0
1, 177360, Note_on_c, 0, 56, 36
1, 177372, Tempo, 487805
1, 177384, Tempo, 483871
1, 177396, Tempo, 481928
1, 177420, Tempo, 480000
1, 177480, Note_on_c, 0, 56, 0
1, 177480, Note_on_c, 0, 59, 31
1, 177492, Tempo, 487805
1, 177504, Tempo, 491803
1, 177528, Tempo, 493827
1, 177564, Tempo, 487805
1, 177588, Tempo, 485830
1, 177600, Tempo, 483871
1, 177600, Note_on_c, 0, 59, 0
1, 177600, Note_on_c, 0, 64, 44
1, 177624, Tempo, 495868
1, 177636, Tempo, 497925
1, 177684, Tempo, 495868
1, 177720, Tempo, 493827
1, 177720, Note_on_c, 0, 64, 0
1, 177720, Note_on_c, 0, 68, 37
1, 177744, Tempo, 495868
1, 177792, Tempo, 493827
1, 177840, Tempo, 517241
1, 177840, Note_on_c, 0, 68, 0
1, 177840, Note_on_c, 0, 52, 65
1, 177840, Note_on_c, 0, 56, 37
1, 177859, Control_c, 0, 64, 0
1, 177920, Control_c, 0, 64, 127
1, 177960, Note_on_c, 0, 56, 0
1, 177960, Note_on_c, 0, 61, 34
1, 178080, Tempo, 504202
1, 178080, Note_on_c, 0, 61, 0
1, 178080, Note_on_c, 0, 52, 0
1, 178080, Note_on_c, 0, 51, 68
1, 178080, Note_on_c, 0, 64, 48
1, 178099, Control_c, 0, 64, 0
1, 178126, Control_c, 0, 64, 127
1, 178200, Note_on_c, 0, 64, 0
1, 178200, Note_on_c, 0, 68, 38
1, 178320, Tempo, 528634
1, 178320, Note_on_c, 0, 68, 0
1, 178320, Note_on_c, 0, 51, 0
1, 178320, Note_on_c, 0, 49, 71
1, 178320, Note_on_c, 0, 56, 41
1, 178322, Control_c, 0, 64, 0
1, 178377, Control_c, 0, 64, 127
1, 178440, Tempo, 740741
1, 178440, Note_on_c, 0, 56, 0
1, 178440, Note_on_c, 0, 61, 44
1, 178560, Tempo, 502092
1, 178560, Note_on_c, 0, 61, 0
1, 178560, Note_on_c, 0, 49, 0
1, 178560, Note_on_c, 0, 46, 76
1, 178560, Note_on_c, 0, 64, 56
1, 178560, Control_c, 0, 64, 0
1, 178560, Control_c, 0, 64, 0
1, 178584, Tempo, 500000
1, 178596, Tempo, 497925
1, 178620, Tempo, 493827
1, 178632, Tempo, 491803
1, 178644, Tempo, 489796
1, 178646, Control_c, 0, 64, 127
1, 178656, Tempo, 487805
1, 178668, Tempo, 485830
1, 178680, Note_on_c, 0, 64, 0
1, 178680, Note_on_c, 0, 66, 42
1, 178692, Tempo, 483871
1, 178704, Tempo, 480000
1, 178728, Tempo, 487805
1, 178740, Tempo, 489796
1, 178752, Tempo, 502092
1, 178776, Tempo, 500000
1, 178788, Tempo, 495868
1, 178800, Note_on_c, 0, 66, 0
1, 178800, Note_on_c, 0, 54, 42
1, 178812, Tempo, 493827
1, 178836, Tempo, 491803
1, 178848, Tempo, 489796
1, 178872, Tempo, 491803
1, 178884, Tempo, 493827
1, 178896, Tempo, 495868
1, 178920, Note_on_c, 0, 54, 0
1, 178920, Note_on_c, 0, 61, 37
1, 178932, Tempo, 497925
1, 178956, Tempo, 502092
1, 179040, Tempo, 487805
1, 179040, Note_on_c, 0, 61, 0
1, 179040, Note_on_c, 0, 64, 52
1, 179076, Tempo, 485830
1, 179100, Tempo, 489796
1, 179112, Tempo, 495868
1, 179124, Tempo, 497925
1, 179136, Tempo, 500000
1, 179160, Tempo, 504202
1, 179160, Note_on_c, 0, 64, 0
1, 179160, Note_on_c, 0, 66, 42
1, 179184, Tempo, 506329
1, 179208, Tempo, 502092
1, 179220, Tempo, 497925
1, 179232, Tempo, 495868
1, 179244, Tempo, 493827
1, 179256, Tempo, 491803
1, 179268, Tempo, 489796
1, 179280, Note_on_c, 0, 66, 0
1, 179280, Note_on_c, 0, 54, 42
1, 179352, Tempo, 495868
1, 179364, Tempo, 497925
1, 179376, Tempo, 502092
1, 179388, Tempo, 504202
1, 179400, Tempo, 506329
1, 179400, Note_on_c, 0, 54, 0
1, 179400, Note_on_c, 0, 61, 36
1, 179412, Tempo, 508475
1, 179472, Tempo, 504202
1, 179484, Tempo, 502092
1, 179496, Tempo, 493827
1, 179508, Tempo, 489796
1, 179520, Note_on_c, 0, 61, 0
1, 179520, Note_on_c, 0, 46, 0
1, 179520, Note_on_c, 0, 47, 61
1, 179520, Note_on_c, 0, 63, 50
1, 179532, Tempo, 491803
1, 179539, Control_c, 0, 64, 0
1, 179556, Tempo, 502092
1, 179604, Tempo, 500000
1, 179612, Control_c, 0, 64, 127
1, 179640, Note_on_c, 0, 63, 0
1, 179640, Note_on_c, 0, 66, 40
1, 179688, Tempo, 493827
1, 179700, Tempo, 497925
1, 179712, Tempo, 500000
1, 179760, Tempo, 517241
1, 179760, Note_on_c, 0, 66, 0
1, 179760, Note_on_c, 0, 47, 0
1, 179760, Note_on_c, 0, 75, 68
1, 179760, Note_on_c, 0, 54, 40
1, 179880, Note_on_c, 0, 54, 0
1, 179880, Note_on_c, 0, 59, 36
1, 180000, Tempo, 504202
1, 180000, Note_on_c, 0, 59, 0
1, 180000, Note_on_c, 0, 75, 0
1, 180000, Note_on_c, 0, 76, 73
1, 180000, Note_on_c, 0, 63, 42
1, 180017, Control_c, 0, 64, 0
1, 180080, Control_c, 0, 64, 127
1, 180120, Note_on_c, 0, 63, 0
1, 180120, Note_on_c, 0, 66, 33
1, 180240, Tempo, 528634
1, 180240, Note_on_c, 0, 66, 0
1, 180240, Note_on_c, 0, 76, 0
1, 180240, Note_on_c, 0, 77, 77
1, 180240, Note_on_c, 0, 54, 41
1, 180360, Tempo, 618557
1, 180360, Note_on_c, 0, 54, 0
1, 180360, Note_on_c, 0, 59, 44
1, 180480, Tempo, 500000
1, 180480, Note_on_c, 0, 59, 0
1, 180480, Note_on_c, 0, 77, 0
1, 180480, Note_on_c, 0, 78, 82
1, 180480, Note_on_c, 0, 61, 54
1, 180480, Control_c, 0, 64, 0
1, 180480, Control_c, 0, 64, 0
1, 180492, Tempo, 500000
1, 180516, Tempo, 497925
1, 180528, Tempo, 495868
1, 180540, Tempo, 493827
1, 180552, Tempo, 491803
1, 180564, Tempo, 487805
1, 180566, Control_c, 0, 64, 127
1, 180576, Tempo, 485830
1, 180588, Tempo, 483871
1, 180600, Note_on_c, 0, 61, 0
1, 180600, Note_on_c, 0, 66, 41
1, 180636, Tempo, 508475
1, 180660, Tempo, 502092
1, 180672, Tempo, 500000
1, 180696, Tempo, 497925
1, 180708, Tempo, 495868
1, 180720, Tempo, 493827
1, 180720, Note_on_c, 0, 66, 0
1, 180720, Note_on_c, 0, 54, 41
1, 180732, Tempo, 491803
1, 180768, Tempo, 489796
1, 180780, Tempo, 495868
1, 180792, Tempo, 497925
1, 180804, Tempo, 500000
1, 180816, Tempo, 502092
1, 180840, Tempo, 504202
1, 180840, Note_on_c, 0, 54, 0
1, 180840, Note_on_c, 0, 59, 36
1, 180924, Tempo, 500000
1, 180948, Tempo, 495868
1, 180960, Tempo, 489796
1, 180960, Note_on_c, 0, 59, 0
1, 180960, Note_on_c, 0, 61, 48
1, 180996, Tempo, 487805
1, 181032, Tempo, 489796
1, 181044, Tempo, 491803
1, 181056, Tempo, 493827
1, 181068, Tempo, 495868
1, 181080, Tempo, 504202
1, 181080, Note_on_c, 0, 61, 0
1, 181080, Note_on_c, 0, 66, 39
1, 181092, Tempo, 506329
1, 181116, Tempo, 504202
1, 181140, Tempo, 500000
1, 181176, Tempo, 491803
1, 181200, Note_on_c, 0, 66, 0
1, 181200, Note_on_c, 0, 54, 39
1, 181224, Tempo, 489796
1, 181236, Tempo, 493827
1, 181260, Tempo, 495868
1, 181272, Tempo, 497925
1, 181284, Tempo, 500000
1, 181308, Tempo, 504202
1, 181320, Note_on_c, 0, 54, 0
1, 181320, Note_on_c, 0, 59, 36
1, 181344, Tempo, 502092
1, 181356, Tempo, 500000
1, 181368, Tempo, 497925
1, 181380, Tempo, 495868
1, 181392, Tempo, 493827
1, 181428, Tempo, 495868
1, 181440, Tempo, 497925
1, 181440, Note_on_c, 0, 59, 0
1, 181440, Note_on_c, 0, 61, 48
1, 181452, Tempo, 500000
1, 181560, Note_on_c, 0, 61, 0
1, 181560, Note_on_c, 0, 66, 32
1, 181584, Tempo, 497925
1, 181596, Tempo, 493827
1, 181608, Tempo, 497925
1, 181680, Tempo, 517241
1, 181680, Note_on_c, 0, 66, 0
1, 181680, Note_on_c, 0, 54, 37
1, 181800, Note_on_c, 0, 54, 0
1, 181800, Note_on_c, 0, 58, 37
1, 181920, Tempo, 504202
1, 181920, Note_on_c, 0, 58, 0
1, 181920, Note_on_c, 0, 61, 42
1, 182040, Note_on_c, 0, 61, 0
1, 182040, Note_on_c, 0, 66, 29
1, 182160, Tempo, 528634
1, 182160, Note_on_c, 0, 66, 0
1, 182160, Note_on_c, 0, 54, 29
1, 182280, Tempo, 566038
1, 182280, Note_on_c, 0, 54, 0
1, 182280, Note_on_c, 0, 58, 29
1, 182400, Tempo, 500000
1, 182400, Note_on_c, 0, 58, 0
1, 182400, Note_on_c, 0, 78, 0
1, 182400, Note_on_c, 0, 75, 66
1, 182400, Note_on_c, 0, 63, 37
1, 182400, Control_c, 0, 64, 0
1, 182400, Control_c, 0, 64, 0
1, 182424, Tempo, 497925
1, 182436, Tempo, 495868
1, 182448, Tempo, 493827
1, 182460, Tempo, 491803
1, 182484, Tempo, 487805
1, 182486, Control_c, 0, 64, 127
1, 182496, Tempo, 483871
1, 182520, Note_on_c, 0, 63, 0
1, 182520, Note_on_c, 0, 66, 29
1, 182568, Tempo, 485830
1, 182592, Tempo, 487805
1, 182604, Tempo, 489796
1, 182616, Tempo, 491803
1, 182628, Tempo, 493827
1, 182640, Tempo, 495868
1, 182640, Note_on_c, 0, 66, 0
1, 182640, Note_on_c, 0, 54, 29
1, 182652, Tempo, 497925
1, 182664, Tempo, 502092
1, 182676, Tempo, 504202
1, 182688, Tempo, 508475
1, 182700, Tempo, 510638
1, 182712, Tempo, 508475
1, 182724, Tempo, 502092
1, 182736, Tempo, 497925
1, 182760, Tempo, 495868
1, 182760, Note_on_c, 0, 54, 0
1, 182760, Note_on_c, 0, 59, 25
1, 182784, Tempo, 493827
1, 182808, Tempo, 491803
1, 182844, Tempo, 502092
1, 182868, Tempo, 506329
1, 182880, Note_on_c, 0, 59, 0
1, 182880, Note_on_c, 0, 75, 0
1, 182880, Note_on_c, 0, 63, 38
1, 182928, Tempo, 504202
1, 182940, Tempo, 500000
1, 182964, Tempo, 497925
1, 182976, Tempo, 495868
1, 182988, Tempo, 493827
1, 183000, Note_on_c, 0, 63, 0
1, 183000, Note_on_c, 0, 66, 30
1, 183012, Tempo, 491803
1, 183036, Tempo, 489796
1, 183048, Tempo, 487805
1, 183060, Tempo, 485830
1, 183072, Tempo, 489796
1, 183084, Tempo, 497925
1, 183108, Tempo, 500000
1, 183120, Note_on_c, 0, 66, 0
1, 183120, Note_on_c, 0, 54, 31
1, 183240, Note_on_c, 0, 54, 0
1, 183240, Note_on_c, 0, 59, 26
1, 183252, Tempo, 502092
1, 183312, Tempo, 497925
1, 183324, Tempo, 495868
1, 183336, Tempo, 493827
1, 183348, Tempo, 489796
1, 183360, Note_on_c, 0, 59, 0
1, 183360, Note_on_c, 0, 62, 40
1, 183371, Control_c, 0, 64, 0
1, 183372, Tempo, 487805
1, 183384, Tempo, 489796
1, 183396, Tempo, 491803
1, 183408, Tempo, 493827
1, 183420, Tempo, 495868
1, 183432, Tempo, 497925
1, 183444, Tempo, 500000
1, 183456, Tempo, 504202
1, 183468, Tempo, 506329
1, 183471, Control_c, 0, 64, 127
1, 183480, Tempo, 508475
1, 183480, Note_on_c, 0, 62, 0
1, 183480, Note_on_c, 0, 66, 32
1, 183492, Tempo, 500000
1, 183600, Tempo, 517241
1, 183600, Note_on_c, 0, 66, 0
1, 183600, Note_on_c, 0, 47, 44
1, 183600, Note_on_c, 0, 54, 32
1, 183615, Control_c, 0, 64, 0
1, 183696, Control_c, 0, 64, 127
1, 183720, Note_on_c, 0, 54, 0
1, 183720, Note_on_c, 0, 59, 29
1, 183840, Tempo, 504202
1, 183840, Note_on_c, 0, 59, 0
1, 183840, Note_on_c, 0, 47, 0
1, 183840, Note_on_c, 0, 49, 48
1, 183840, Note_on_c, 0, 62, 42
1, 183855, Control_c, 0, 64, 0
1, 183898, Control_c, 0, 64, 127
1, 183960, Note_on_c, 0, 62, 0
1, 183960, Note_on_c, 0, 66, 33
1, 184080, Tempo, 528634
1, 184080, Note_on_c, 0, 66, 0
1, 184080, Note_on_c, 0, 49, 0
1, 184080, Note_on_c, 0, 50, 45
1, 184080, Note_on_c, 0, 54, 33
1, 184096, Control_c, 0, 64, 0
1, 184128, Control_c, 0, 64, 127
1, 184200, Tempo, 618557
1, 184200, Note_on_c, 0, 54, 0
1, 184200, Note_on_c, 0, 59, 28
1, 184320, Tempo, 500000
1, 184320, Note_on_c, 0, 59, 0
1, 184320, Note_on_c, 0, 50, 0
1, 184320, Note_on_c, 0, 42, 48
1, 184320, Note_on_c, 0, 61, 37
1, 184320, Control_c, 0, 64, 0
1, 184322, Control_c, 0, 64, 0
1, 184332, Tempo, 502092
1, 184356, Tempo, 500000
1, 184380, Tempo, 497925
1, 184406, Control_c, 0, 64, 127
1, 184428, Tempo, 495868
1, 184440, Note_on_c, 0, 61, 0
1, 184440, Note_on_c, 0, 66, 29
1, 184476, Tempo, 506329
1, 184488, Tempo, 510638
1, 184536, Tempo, 500000
1, 184548, Tempo, 497925
1, 184560, Note_on_c, 0, 66, 0
1, 184560, Note_on_c, 0, 54, 29
1, 184572, Tempo, 495868
1, 184596, Tempo, 493827
1, 184632, Tempo, 495868
1, 184644, Tempo, 497925
1, 184656, Tempo, 504202
1, 184668, Tempo, 510638
1, 184680, Note_on_c, 0, 54, 0
1, 184680, Note_on_c, 0, 59, 26
1, 184740, Tempo, 508475
1, 184752, Tempo, 500000
1, 184764, Tempo, 497925
1, 184776, Tempo, 495868
1, 184800, Tempo, 493827
1, 184800, Note_on_c, 0, 59, 0
1, 184800, Note_on_c, 0, 61, 38
1, 184896, Tempo, 510638
1, 184908, Tempo, 512821
1, 184920, Note_on_c, 0, 61, 0
1, 184920, Note_on_c, 0, 66, 29
1, 184968, Tempo, 506329
1, 184992, Tempo, 500000
1, 185016, Tempo, 495868
1, 185028, Tempo, 491803
1, 185040, Tempo, 489796
1, 185040, Note_on_c, 0, 66, 0
1, 185040, Note_on_c, 0, 54, 29
1, 185064, Tempo, 487805
1, 185100, Tempo, 491803
1, 185124, Tempo, 497925
1, 185136, Tempo, 500000
1, 185148, Tempo, 502092
1, 185160, Tempo, 504202
1, 185160, Note_on_c, 0, 54, 0
1, 185160, Note_on_c, 0, 59, 27
1, 185220, Tempo, 497925
1, 185232, Tempo, 495868
1, 185256, Tempo, 500000
1, 185268, Tempo, 502092
1, 185280, Note_on_c, 0, 59, 0
1, 185280, Note_on_c, 0, 61, 40
1, 185292, Tempo, 495868
1, 185376, Tempo, 497925
1, 185400, Note_on_c, 0, 61, 0
1, 185400, Note_on_c, 0, 66, 28
1, 185460, Tempo, 500000
1, 185472, Tempo, 493827
1, 185484, Tempo, 500000
1, 185520, Tempo, 517241
1, 185520, Note_on_c, 0, 66, 0
1, 185520, Note_on_c, 0, 54, 28
1, 185640, Note_on_c, 0, 54, 0
1, 185640, Note_on_c, 0, 58, 26
1, 185760, Tempo, 504202
1, 185760, Note_on_c, 0, 58, 0
1, 185760, Note_on_c, 0, 61, 41
1, 185880, Note_on_c, 0, 61, 0
1, 185880, Note_on_c, 0, 66, 29
1, 186000, Tempo, 528634
1, 186000, Note_on_c, 0, 66, 0
1, 186000, Note_on_c, 0, 54, 29
1, 186120, Tempo, 600000
1, 186120, Note_on_c, 0, 54, 0
1, 186120, Note_on_c, 0, 58, 26
1, 186240, Tempo, 500000
1, 186240, Note_on_c, 0, 58, 0
1, 186240, Note_on_c, 0, 42, 0
1, 186240, Note_on_c, 0, 35, 44
1, 186240, Note_on_c, 0, 63, 37
1, 186240, Control_c, 0, 64, 0
1, 186242, Control_c, 0, 64, 0
1, 186276, Tempo, 497925
1, 186300, Tempo, 495868
1, 186312, Tempo, 493827
1, 186326, Control_c, 0, 64, 127
1, 186348, Tempo, 497925
1, 186360, Tempo, 502092
1, 186360, Note_on_c, 0, 63, 0
1, 186360, Note_on_c, 0, 66, 29
1, 186372, Tempo, 506329
1, 186396, Tempo, 508475
1, 186456, Tempo, 506329
1, 186468, Tempo, 500000
1, 186480, Tempo, 497925
1, 186480, Note_on_c, 0, 66, 0
1, 186480, Note_on_c, 0, 54, 29
1, 186492, Tempo, 495868
1, 186516, Tempo, 493827
1, 186552, Tempo, 495868
1, 186564, Tempo, 497925
1, 186600, Tempo, 500000
1, 186600, Note_on_c, 0, 54, 0
1, 186600, Note_on_c, 0, 59, 25
1, 186612, Tempo, 502092
1, 186636, Tempo, 504202
1, 186672, Tempo, 506329
1, 186708, Tempo, 508475
1, 186720, Tempo, 510638
1, 186720, Note_on_c, 0, 59, 0
1, 186720, Note_on_c, 0, 35, 0
1, 186720, Note_on_c, 0, 63, 38
1, 186732, Tempo, 497925
1, 186756, Tempo, 493827
1, 186840, Note_on_c, 0, 63, 0
1, 186840, Note_on_c, 0, 66, 30
1, 186912, Tempo, 500000
1, 186924, Tempo, 502092
1, 186936, Tempo, 504202
1, 186960, Note_on_c, 0, 66, 0
1, 186960, Note_on_c, 0, 54, 31
1, 187032, Tempo, 495868
1, 187056, Tempo, 493827
1, 187080, Note_on_c, 0, 54, 0
1, 187080, Note_on_c, 0, 59, 24
1, 187116, Tempo, 510638
1, 187152, Tempo, 504202
1, 187164, Tempo, 502092
1, 187176, Tempo, 500000
1, 187200, Tempo, 497925
1, 187200, Note_on_c, 0, 59, 0
1, 187200, Note_on_c, 0, 63, 45
1, 187296, Tempo, 504202
1, 187320, Note_on_c, 0, 63, 0
1, 187320, Note_on_c, 0, 66, 32
1, 187440, Tempo, 517241
1, 187440, Marker_t, "appassionato 2"
1, 187440, Note_on_c, 0, 66, 0
1, 187440, Note_on_c, 0, 75, 55
1, 187440, Note_on_c, 0, 54, 32
1, 187457, Control_c, 0, 64, 0
1, 187537, Control_c, 0, 64, 127
1, 187560, Note_on_c, 0, 54, 0
1, 187560, Note_on_c, 0, 59, 32
1, 187680, Tempo, 504202
1, 187680, Note_on_c, 0, 59, 0
1, 187680, Note_on_c, 0, 75, 0
1, 187680, Note_on_c, 0, 75, 55
1, 187680, Note_on_c, 0, 63, 47
1, 187800, Note_on_c, 0, 63, 0
1, 187800, Note_on_c, 0, 66, 34
1, 187920, Note_on_c, 0, 66, 0
1, 187920, Note_on_c, 0, 75, 0
1, 187920, Note_on_c, 0, 76, 55
1, 187920, Note_on_c, 0, 54, 38
1, 188040, Tempo, 588235
1, 188040, Note_on_c, 0, 54, 0
1, 188040, Note_on_c, 0, 59, 38
1, 188160, Tempo, 500000
1, 188160, Note_on_c, 0, 59, 0
1, 188160, Note_on_c, 0, 76, 0
1, 188160, Note_on_c, 0, 75, 60
1, 188160, Note_on_c, 0, 73, 51
1, 188160, Note_on_c, 0, 70, 51
1, 188160, Note_on_c, 0, 63, 50
1, 188160, Control_c, 0, 64, 0
1, 188172, Tempo, 497925
1, 188196, Tempo, 489796
1, 188280, Tempo, 493827
1, 188280, Note_on_c, 0, 63, 0
1, 188280, Note_on_c, 0, 67, 39
1, 188292, Tempo, 504202
1, 188294, Control_c, 0, 64, 127
1, 188316, Tempo, 508475
1, 188328, Tempo, 510638
1, 188376, Tempo, 508475
1, 188388, Tempo, 497925
1, 188400, Note_on_c, 0, 67, 0
1, 188400, Note_on_c, 0, 55, 39
1, 188412, Tempo, 493827
1, 188424, Tempo, 489796
1, 188436, Tempo, 487805
1, 188448, Tempo, 485830
1, 188460, Tempo, 483871
1, 188472, Tempo, 481928
1, 188484, Tempo, 480000
1, 188496, Tempo, 481928
1, 188508, Tempo, 485830
1, 188520, Note_on_c, 0, 55, 0
1, 188520, Note_on_c, 0, 58, 34
1, 188532, Tempo, 491803
1, 188544, Tempo, 493827
1, 188556, Tempo, 491803
1, 188568, Tempo, 485830
1, 188580, Tempo, 483871
1, 188592, Tempo, 481928
1, 188604, Tempo, 480000
1, 188640, Note_on_c, 0, 58, 0
1, 188640, Note_on_c, 0, 70, 0
1, 188640, Note_on_c, 0, 73, 0
1, 188640, Note_on_c, 0, 75, 0
1, 188640, Note_on_c, 0, 70, 55
1, 188640, Note_on_c, 0, 63, 51
1, 188652, Tempo, 487805
1, 188700, Tempo, 489796
1, 188712, Tempo, 491803
1, 188748, Tempo, 489796
1, 188760, Tempo, 487805
1, 188760, Note_on_c, 0, 63, 0
1, 188760, Note_on_c, 0, 67, 39
1, 188784, Tempo, 485830
1, 188808, Tempo, 483871
1, 188820, Tempo, 481928
1, 188832, Tempo, 480000
1, 188856, Tempo, 485830
1, 188868, Tempo, 495868
1, 188880, Note_on_c, 0, 67, 0
1, 188880, Note_on_c, 0, 70, 0
1, 188880, Note_on_c, 0, 55, 40
1, 188916, Tempo, 493827
1, 188940, Tempo, 491803
1, 188988, Tempo, 489796
1, 189000, Note_on_c, 0, 55, 0
1, 189000, Note_on_c, 0, 58, 35
1, 189036, Tempo, 497925
1, 189108, Tempo, 495868
1, 189120, Tempo, 489796
1, 189120, Note_on_c, 0, 58, 0
1, 189120, Note_on_c, 0, 63, 49
1, 189132, Tempo, 487805
1, 189144, Tempo, 485830
1, 189180, Tempo, 495868
1, 189240, Note_on_c, 0, 63, 0
1, 189240, Note_on_c, 0, 67, 38
1, 189288, Tempo, 497925
1, 189300, Tempo, 502092
1, 189360, Tempo, 517241
1, 189360, Note_on_c, 0, 67, 0
1, 189360, Note_on_c, 0, 51, 55
1, 189360, Note_on_c, 0, 39, 46
1, 189360, Note_on_c, 0, 55, 38
1, 189374, Control_c, 0, 64, 0
1, 189480, Note_on_c, 0, 55, 0
1, 189480, Note_on_c, 0, 58, 33
1, 189487, Control_c, 0, 64, 127
1, 189600, Tempo, 504202
1, 189600, Note_on_c, 0, 58, 0
1, 189600, Note_on_c, 0, 39, 0
1, 189600, Note_on_c, 0, 51, 0
1, 189600, Note_on_c, 0, 39, 46
1, 189600, Note_on_c, 0, 51, 55
1, 189600, Note_on_c, 0, 63, 51
1, 189720, Note_on_c, 0, 63, 0
1, 189720, Note_on_c, 0, 67, 40
1, 189840, Note_on_c, 0, 67, 0
1, 189840, Note_on_c, 0, 51, 0
1, 189840, Note_on_c, 0, 39, 0
1, 189840, Note_on_c, 0, 34, 46
1, 189840, Note_on_c, 0, 46, 55
1, 189840, Note_on_c, 0, 55, 41
1, 189960, Tempo, 588235
1, 189960, Note_on_c, 0, 55, 0
1, 189960, Note_on_c, 0, 58, 35
1, 190080, Tempo, 500000
1, 190080, Note_on_c, 0, 58, 0
1, 190080, Note_on_c, 0, 46, 0
1, 190080, Note_on_c, 0, 34, 0
1, 190080, Note_on_c, 0, 47, 60
1, 190080, Note_on_c, 0, 35, 51
1, 190080, Note_on_c, 0, 63, 59
1, 190087, Control_c, 0, 64, 0
1, 190104, Tempo, 495868
1, 190152, Tempo, 493827
1, 190177, Control_c, 0, 64, 127
1, 190200, Tempo, 491803
1, 190200, Note_on_c, 0, 63, 0
1, 190200, Note_on_c, 0, 68, 45
1, 190236, Tempo, 489796
1, 190260, Tempo, 497925
1, 190272, Tempo, 500000
1, 190284, Tempo, 502092
1, 190296, Tempo, 504202
1, 190320, Note_on_c, 0, 68, 0
1, 190320, Note_on_c, 0, 56, 46
1, 190344, Tempo, 493827
1, 190440, Note_on_c, 0, 56, 0
1, 190440, Note_on_c, 0, 59, 42
1, 190464, Tempo, 495868
1, 190488, Tempo, 497925
1, 190500, Tempo, 500000
1, 190512, Tempo, 502092
1, 190524, Tempo, 504202
1, 190560, Note_on_c, 0, 59, 0
1, 190560, Note_on_c, 0, 35, 0
1, 190560, Note_on_c, 0, 47, 0
1, 190560, Note_on_c, 0, 44, 59
1, 190560, Note_on_c, 0, 32, 50
1, 190560, Note_on_c, 0, 63, 64
1, 190608, Tempo, 497925
1, 190620, Tempo, 495868
1, 190632, Tempo, 493827
1, 190680, Note_on_c, 0, 63, 0
1, 190680, Note_on_c, 0, 68, 48
1, 190692, Tempo, 495868
1, 190776, Tempo, 493827
1, 190800, Note_on_c, 0, 68, 0
1, 190800, Note_on_c, 0, 32, 0
1, 190800, Note_on_c, 0, 44, 0
1, 190800, Note_on_c, 0, 56, 50
1, 190812, Tempo, 491803
1, 190824, Tempo, 489796
1, 190836, Tempo, 487805
1, 190860, Tempo, 485830
1, 190908, Tempo, 500000
1, 190920, Tempo, 504202
1, 190920, Note_on_c, 0, 56, 0
1, 190920, Note_on_c, 0, 59, 47
1, 190932, Tempo, 506329
1, 190944, Tempo, 508475
1, 191004, Tempo, 504202
1, 191016, Tempo, 500000
1, 191028, Tempo, 497925
1, 191040, Tempo, 495868
1, 191040, Note_on_c, 0, 59, 0
1, 191040, Note_on_c, 0, 63, 58
1, 191124, Tempo, 502092
1, 191160, Note_on_c, 0, 63, 0
1, 191160, Note_on_c, 0, 68, 47
1, 191172, Tempo, 500000
1, 191196, Tempo, 497925
1, 191208, Tempo, 493827
1, 191220, Tempo, 497925
1, 191280, Tempo, 517241
1, 191280, Note_on_c, 0, 68, 0
1, 191280, Note_on_c, 0, 71, 58
1, 191280, Note_on_c, 0, 75, 69
1, 191280, Note_on_c, 0, 56, 47
1, 191292, Control_c, 0, 64, 0
1, 191355, Control_c, 0, 64, 127
1, 191400, Note_on_c, 0, 56, 0
1, 191400, Note_on_c, 0, 59, 44
1, 191520, Tempo, 504202
1, 191520, Note_on_c, 0, 59, 0
1, 191520, Note_on_c, 0, 75, 0
1, 191520, Note_on_c, 0, 71, 0
1, 191520, Note_on_c, 0, 75, 69
1, 191520, Note_on_c, 0, 71, 58
1, 191520, Note_on_c, 0, 63, 54
1, 191640, Note_on_c, 0, 63, 0
1, 191640, Note_on_c, 0, 68, 46
1, 191760, Note_on_c, 0, 68, 0
1, 191760, Note_on_c, 0, 71, 0
1, 191760, Note_on_c, 0, 75, 0
1, 191760, Note_on_c, 0, 71, 58
1, 191760, Note_on_c, 0, 76, 69
1, 191760, Note_on_c, 0, 56, 46
1, 191880, Tempo, 588235
1, 191880, Note_on_c, 0, 56, 0
1, 191880, Note_on_c, 0, 59, 44
1, 192000, Tempo, 500000
1, 192000, Note_on_c, 0, 59, 0
1, 192000, Note_on_c, 0, 76, 0
1, 192000, Note_on_c, 0, 71, 0
1, 192000, Note_on_c, 0, 70, 53
1, 192000, Note_on_c, 0, 73, 53
1, 192000, Note_on_c, 0, 75, 75
1, 192000, Note_on_c, 0, 63, 57
1, 192000, Control_c, 0, 64, 0
1, 192048, Tempo, 500000
1, 192060, Tempo, 489796
1, 192072, Tempo, 487805
1, 192120, Note_on_c, 0, 63, 0
1, 192120, Note_on_c, 0, 67, 44
1, 192134, Control_c, 0, 64, 127
1, 192180, Tempo, 491803
1, 192192, Tempo, 493827
1, 192204, Tempo, 495868
1, 192240, Note_on_c, 0, 67, 0
1, 192240, Note_on_c, 0, 55, 44
1, 192276, Tempo, 500000
1, 192288, Tempo, 504202
1, 192324, Tempo, 502092
1, 192336, Tempo, 495868
1, 192348, Tempo, 489796
1, 192360, Tempo, 485830
1, 192360, Note_on_c, 0, 55, 0
1, 192360, Note_on_c, 0, 58, 40
1, 192384, Tempo, 483871
1, 192432, Tempo, 495868
1, 192480, Tempo, 493827
1, 192480, Note_on_c, 0, 58, 0
1, 192480, Note_on_c, 0, 75, 0
1, 192480, Note_on_c, 0, 73, 0
1, 192480, Note_on_c, 0, 70, 0
1, 192480, Note_on_c, 0, 70, 69
1, 192480, Note_on_c, 0, 63, 58
1, 192492, Tempo, 491803
1, 192504, Tempo, 489796
1, 192516, Tempo, 487805
1, 192588, Tempo, 497925
1, 192600, Tempo, 491803
1, 192600, Note_on_c, 0, 63, 0
1, 192600, Note_on_c, 0, 67, 44
1, 192612, Tempo, 489796
1, 192648, Tempo, 487805
1, 192660, Tempo, 485830
1, 192672, Tempo, 481928
1, 192684, Tempo, 500000
1, 192720, Tempo, 502092
1, 192720, Note_on_c, 0, 67, 0
1, 192720, Note_on_c, 0, 70, 0
1, 192720, Note_on_c, 0, 55, 46
1, 192732, Tempo, 504202
1, 192744, Tempo, 506329
1, 192768, Tempo, 497925
1, 192792, Tempo, 495868
1, 192828, Tempo, 493827
1, 192840, Tempo, 491803
1, 192840, Note_on_c, 0, 55, 0
1, 192840, Note_on_c, 0, 58, 42
1, 192852, Tempo, 487805
1, 192960, Tempo, 485830
1, 192960, Note_on_c, 0, 58, 0
1, 192960, Note_on_c, 0, 63, 56
1, 192972, Tempo, 487805
1, 192984, Tempo, 497925
1, 193080, Note_on_c, 0, 63, 0
1, 193080, Note_on_c, 0, 67, 43
1, 193104, Tempo, 491803
1, 193200, Tempo, 517241
1, 193200, Note_on_c, 0, 67, 0
1, 193200, Note_on_c, 0, 51, 63
1, 193200, Note_on_c, 0, 39, 52
1, 193200, Note_on_c, 0, 55, 43
1, 193210, Control_c, 0, 64, 0
1, 193320, Note_on_c, 0, 55, 0
1, 193320, Note_on_c, 0, 58, 39
1, 193320, Control_c, 0, 64, 127
1, 193440, Tempo, 502092
1, 193440, Note_on_c, 0, 58, 0
1, 193440, Note_on_c, 0, 39, 0
1, 193440, Note_on_c, 0, 51, 0
1, 193440, Note_on_c, 0, 51, 63
1, 193440, Note_on_c, 0, 39, 52
1, 193440, Note_on_c, 0, 63, 58
1, 193512, Tempo, 500000
1, 193524, Tempo, 495868
1, 193536, Tempo, 493827
1, 193560, Note_on_c, 0, 63, 0
1, 193560, Note_on_c, 0, 67, 46
1, 193572, Tempo, 497925
1, 193596, Tempo, 500000
1, 193608, Tempo, 504202
1, 193620, Tempo, 493827
1, 193680, Note_on_c, 0, 67, 0
1, 193680, Note_on_c, 0, 39, 0
1, 193680, Note_on_c, 0, 51, 0
1, 193680, Note_on_c, 0, 34, 52
1, 193680, Note_on_c, 0, 46, 63
1, 193680, Note_on_c, 0, 55, 47
1, 193716, Tempo, 500000
1, 193728, Tempo, 497925
1, 193740, Tempo, 500000
1, 193752, Tempo, 502092
1, 193800, Tempo, 588235
1, 193800, Note_on_c, 0, 55, 0
1, 193800, Note_on_c, 0, 58, 42
1, 193920, Tempo, 500000
1, 193920, Note_on_c, 0, 58, 0
1, 193920, Note_on_c, 0, 46, 0
1, 193920, Note_on_c, 0, 34, 0
1, 193920, Note_on_c, 0, 35, 58
1, 193920, Note_on_c, 0, 47, 69
1, 193920, Note_on_c, 0, 63, 67
1, 193927, Control_c, 0, 64, 0
1, 193932, Tempo, 500000
1, 193944, Tempo, 497925
1, 193968, Tempo, 495868
1, 193980, Tempo, 493827
1, 194016, Tempo, 491803
1, 194017, Control_c, 0, 64, 127
1, 194040, Note_on_c, 0, 63, 0
1, 194040, Note_on_c, 0, 68, 51
1, 194124, Tempo, 497925
1, 194148, Tempo, 500000
1, 194160, Note_on_c, 0, 68, 0
1, 194160, Note_on_c, 0, 56, 51
1, 194244, Tempo, 493827
1, 194256, Tempo, 491803
1, 194268, Tempo, 487805
1, 194280, Note_on_c, 0, 56, 0
1, 194280, Note_on_c, 0, 59, 47
1, 194316, Tempo, 489796
1, 194328, Tempo, 493827
1, 194340, Tempo, 495868
1, 194352, Tempo, 497925
1, 194364, Tempo, 502092
1, 194400, Note_on_c, 0, 59, 0
1, 194400, Note_on_c, 0, 47, 0
1, 194400, Note_on_c, 0, 35, 0
1, 194400, Note_on_c, 0, 44, 64
1, 194400, Note_on_c, 0, 32, 54
1, 194400, Note_on_c, 0, 63, 69
1, 194460, Tempo, 500000
1, 194520, Note_on_c, 0, 63, 0
1, 194520, Note_on_c, 0, 68, 51
1, 194544, Tempo, 497925
1, 194556, Tempo, 495868
1, 194568, Tempo, 493827
1, 194580, Tempo, 491803
1, 194640, Note_on_c, 0, 68, 0
1, 194640, Note_on_c, 0, 32, 0
1, 194640, Note_on_c, 0, 44, 0
1, 194640, Note_on_c, 0, 56, 51
1, 194664, Tempo, 493827
1, 194676, Tempo, 495868
1, 194712, Tempo, 497925
1, 194760, Tempo, 500000
1, 194760, Note_on_c, 0, 56, 0
1, 194760, Note_on_c, 0, 59, 45
1, 194772, Tempo, 502092
1, 194784, Tempo, 504202
1, 194808, Tempo, 502092
1, 194820, Tempo, 495868
1, 194844, Tempo, 491803
1, 194856, Tempo, 489796
1, 194880, Note_on_c, 0, 59, 0
1, 194880, Note_on_c, 0, 63, 60
1, 194892, Tempo, 495868
1, 194904, Tempo, 500000
1, 194928, Tempo, 502092
1, 194940, Tempo, 504202
1, 195000, Tempo, 502092
1, 195000, Note_on_c, 0, 63, 0
1, 195000, Note_on_c, 0, 68, 49
1, 195048, Tempo, 500000
1, 195060, Tempo, 497925
1, 195120, Tempo, 517241
1, 195120, Note_on_c, 0, 68, 0
1, 195120, Note_on_c, 0, 75, 72
1, 195120, Note_on_c, 0, 56, 49
1, 195240, Note_on_c, 0, 56, 0
1, 195240, Note_on_c, 0, 59, 44
1, 195360, Tempo, 524017
1, 195360, Note_on_c, 0, 59, 0
1, 195360, Note_on_c, 0, 75, 0
1, 195360, Note_on_c, 0, 75, 75
1, 195360, Note_on_c, 0, 63, 59
1, 195480, Note_on_c, 0, 63, 0
1, 195480, Note_on_c, 0, 68, 51
1, 195600, Note_on_c, 0, 68, 0
1, 195600, Note_on_c, 0, 75, 0
1, 195600, Note_on_c, 0, 75, 79
1, 195600, Note_on_c, 0, 56, 51
1, 195720, Tempo, 693642
1, 195720, Note_on_c, 0, 56, 0
1, 195720, Note_on_c, 0, 59, 46
1, 195840, Tempo, 500000
1, 195840, Note_on_c, 0, 59, 0
1, 195840, Note_on_c, 0, 75, 0
1, 195840, Note_on_c, 0, 76, 83
1, 195840, Note_on_c, 0, 64, 65
1, 195840, Control_c, 0, 64, 0
1, 195960, Note_on_c, 0, 64, 0
1, 195960, Note_on_c, 0, 68, 53
1, 195974, Control_c, 0, 64, 127
1, 196080, Note_on_c, 0, 68, 0
1, 196080, Note_on_c, 0, 76, 0
1, 196080, Note_on_c, 0, 56, 53
1, 196200, Note_on_c, 0, 56, 0
1, 196200, Note_on_c, 0, 59, 51
1, 196320, Tempo, 504202
1, 196320, Note_on_c, 0, 59, 0
1, 196320, Note_on_c, 0, 40, 77
1, 196320, Note_on_c, 0, 64, 62
1, 196332, Tempo, 504202
1, 196344, Tempo, 495868
1, 196356, Tempo, 493827
1, 196368, Tempo, 491803
1, 196416, Tempo, 497925
1, 196428, Tempo, 500000
1, 196440, Note_on_c, 0, 64, 0
1, 196440, Note_on_c, 0, 68, 53
1, 196452, Tempo, 497925
1, 196476, Tempo, 495868
1, 196488, Tempo, 493827
1, 196500, Tempo, 491803
1, 196512, Tempo, 487805
1, 196524, Tempo, 485830
1, 196536, Tempo, 483871
1, 196560, Note_on_c, 0, 68, 0
1, 196560, Note_on_c, 0, 56, 53
1, 196572, Tempo, 481928
1, 196584, Tempo, 483871
1, 196596, Tempo, 487805
1, 196608, Tempo, 493827
1, 196668, Tempo, 491803
1, 196680, Tempo, 489796
1, 196680, Note_on_c, 0, 56, 0
1, 196680, Note_on_c, 0, 59, 48
1, 196692, Tempo, 487805
1, 196704, Tempo, 483871
1, 196728, Tempo, 485830
1, 196740, Tempo, 493827
1, 196800, Note_on_c, 0, 59, 0
1, 196800, Note_on_c, 0, 64, 62
1, 196813, Control_c, 0, 64, 0
1, 196872, Tempo, 489796
1, 196896, Tempo, 487805
1, 196908, Tempo, 489796
1, 196911, Control_c, 0, 64, 127
1, 196920, Tempo, 493827
1, 196920, Note_on_c, 0, 64, 0
1, 196920, Note_on_c, 0, 69, 53
1, 196944, Tempo, 485830
1, 196980, Tempo, 489796
1, 196992, Tempo, 493827
1, 197040, Tempo, 528634
1, 197040, Note_on_c, 0, 69, 0
1, 197040, Note_on_c, 0, 57, 53
1, 197160, Note_on_c, 0, 57, 0
1, 197160, Note_on_c, 0, 60, 48
1, 197280, Tempo, 502092
1, 197280, Note_on_c, 0, 60, 0
1, 197280, Note_on_c, 0, 40, 0
1, 197280, Note_on_c, 0, 72, 70
1, 197280, Note_on_c, 0, 64, 62
1, 197400, Note_on_c, 0, 64, 0
1, 197400, Note_on_c, 0, 69, 53
1, 197520, Note_on_c, 0, 69, 0
1, 197520, Note_on_c, 0, 57, 53
1, 197640, Note_on_c, 0, 57, 0
1, 197640, Note_on_c, 0, 72, 0
1, 197640, Note_on_c, 0, 74, 67
1, 197640, Note_on_c, 0, 60, 47
1, 197760, Tempo, 489796
1, 197760, Note_on_c, 0, 60, 0
1, 197760, Note_on_c, 0, 74, 0
1, 197760, Note_on_c, 0, 76, 79
1, 197760, Note_on_c, 0, 64, 65
1, 197760, Control_c, 0, 64, 0
1, 197880, Note_on_c, 0, 64, 0
1, 197880, Note_on_c, 0, 68, 53
1, 197894, Control_c, 0, 64, 127
1, 198000, Note_on_c, 0, 68, 0
1, 198000, Note_on_c, 0, 76, 0
1, 198000, Note_on_c, 0, 56, 53
1, 198120, Note_on_c, 0, 56, 0
1, 198120, Note_on_c, 0, 59, 49
1, 198240, Tempo, 504202
1, 198240, Note_on_c, 0, 59, 0
1, 198240, Note_on_c, 0, 40, 77
1, 198240, Note_on_c, 0, 64, 62
1, 198360, Note_on_c, 0, 64, 0
1, 198360, Note_on_c, 0, 68, 53
1, 198396, Tempo, 500000
1, 198408, Tempo, 497925
1, 198420, Tempo, 493827
1, 198432, Tempo, 491803
1, 198456, Tempo, 489796
1, 198480, Tempo, 487805
1, 198480, Note_on_c, 0, 68, 0
1, 198480, Note_on_c, 0, 56, 53
1, 198504, Tempo, 489796
1, 198528, Tempo, 493827
1, 198540, Tempo, 495868
1, 198552, Tempo, 493827
1, 198564, Tempo, 481928
1, 198588, Tempo, 483871
1, 198600, Note_on_c, 0, 56, 0
1, 198600, Note_on_c, 0, 59, 48
1, 198624, Tempo, 485830
1, 198636, Tempo, 487805
1, 198648, Tempo, 489796
1, 198672, Tempo, 491803
1, 198720, Note_on_c, 0, 59, 0
1, 198720, Note_on_c, 0, 64, 62
1, 198733, Control_c, 0, 64, 0
1, 198756, Tempo, 481928
1, 198792, Tempo, 493827
1, 198831, Control_c, 0, 64, 127
1, 198840, Note_on_c, 0, 64, 0
1, 198840, Note_on_c, 0, 69, 53
1, 198876, Tempo, 491803
1, 198888, Tempo, 489796
1, 198900, Tempo, 491803
1, 198912, Tempo, 493827
1, 198924, Tempo, 495868
1, 198960, Tempo, 517241
1, 198960, Note_on_c, 0, 69, 0
1, 198960, Note_on_c, 0, 57, 53
1, 199080, Note_on_c, 0, 57, 0
1, 199080, Note_on_c, 0, 60, 48
1, 199200, Tempo, 500000
1, 199200, Note_on_c, 0, 60, 0
1, 199200, Note_on_c, 0, 40, 0
1, 199200, Note_on_c, 0, 72, 70
1, 199200, Note_on_c, 0, 64, 62
1, 199320, Note_on_c, 0, 64, 0
1, 199320, Note_on_c, 0, 69, 53
1, 199440, Note_on_c, 0, 69, 0
1, 199440, Note_on_c, 0, 57, 53
1, 199560, Note_on_c, 0, 57, 0
1, 199560, Note_on_c, 0, 72, 0
1, 199560, Note_on_c, 0, 74, 67
1, 199560, Note_on_c, 0, 60, 47
1, 199680, Tempo, 528634
1, 199680, Note_on_c, 0, 60, 0
1, 199680, Note_on_c, 0, 74, 0
1, 199680, Note_on_c, 0, 76, 77
1, 199680, Note_on_c, 0, 64, 65
1, 199680, Control_c, 0, 64, 0
1, 199800, Note_on_c, 0, 64, 0
1, 199800, Note_on_c, 0, 68, 46
1, 199814, Control_c, 0, 64, 127
1, 199920, Note_on_c, 0, 68, 0
1, 199920, Note_on_c, 0, 76, 0
1, 199920, Note_on_c, 0, 56, 46
1, 200040, Note_on_c, 0, 56, 0
1, 200040, Note_on_c, 0, 59, 41
1, 200160, Tempo, 519481
1, 200160, Note_on_c, 0, 59, 0
1, 200160, Note_on_c, 0, 40, 66
1, 200160, Note_on_c, 0, 64, 55
1, 200280, Note_on_c, 0, 64, 0
1, 200280, Note_on_c, 0, 68, 40
1, 200400, Note_on_c, 0, 68, 0
1, 200400, Note_on_c, 0, 56, 40
1, 200520, Note_on_c, 0, 56, 0
1, 200520, Note_on_c, 0, 59, 36
1, 200640, Tempo, 547945
1, 200640, Note_on_c, 0, 59, 0
1, 200640, Note_on_c, 0, 64, 40
1, 200760, Note_on_c, 0, 64, 0
1, 200760, Note_on_c, 0, 68, 46
1, 200880, Note_on_c, 0, 68, 0
1, 200880, Note_on_c, 0, 56, 37
1, 201000, Note_on_c, 0, 56, 0
1, 201000, Note_on_c, 0, 59, 37
1, 201120, Tempo, 574163
1, 201120, Note_on_c, 0, 59, 0
1, 201120, Note_on_c, 0, 40, 0
1, 201120, Note_on_c, 0, 39, 49
1, 201120, Note_on_c, 0, 63, 37
1, 201133, Control_c, 0, 64, 0
1, 201240, Note_on_c, 0, 63, 0
1, 201240, Note_on_c, 0, 68, 43
1, 201240, Control_c, 0, 64, 127
1, 201360, Tempo, 568720
1, 201360, Note_on_c, 0, 68, 0
1, 201360, Note_on_c, 0, 56, 37
1, 201372, Tempo, 571429
1, 201384, Tempo, 574163
1, 201396, Tempo, 576923
1, 201408, Tempo, 579710
1, 201420, Tempo, 582524
1, 201432, Tempo, 585366
1, 201444, Tempo, 588235
1, 201456, Tempo, 591133
1, 201468, Tempo, 597015
1, 201480, Tempo, 600000
1, 201480, Note_on_c, 0, 56, 0
1, 201480, Note_on_c, 0, 59, 34
1, 201492, Tempo, 603015
1, 201504, Tempo, 606061
1, 201516, Tempo, 609137
1, 201528, Tempo, 612245
1, 201540, Tempo, 615385
1, 201552, Tempo, 618557
1, 201564, Tempo, 621762
1, 201576, Tempo, 628272
1, 201600, Tempo, 528634
1, 201600, Note_on_c, 0, 59, 0
1, 201600, Note_on_c, 0, 39, 0
1, 201600, Note_on_c, 0, 38, 56
1, 201600, Note_on_c, 0, 65, 37
1, 201600, Control_c, 0, 64, 0
1, 201602, Control_c, 0, 64, 0
1, 201686, Control_c, 0, 64, 127
1, 201720, Note_on_c, 0, 65, 0
1, 201720, Note_on_c, 0, 68, 29
1, 201840, Note_on_c, 0, 68, 0
1, 201840, Note_on_c, 0, 38, 0
1, 201840, Note_on_c, 0, 56, 29
1, 201960, Note_on_c, 0, 56, 0
1, 201960, Note_on_c, 0, 58, 26
1, 202080, Tempo, 512821
1, 202080, Note_on_c, 0, 58, 0
1, 202080, Note_on_c, 0, 77, 55
1, 202080, Note_on_c, 0, 65, 38
1, 202200, Note_on_c, 0, 65, 0
1, 202200, Note_on_c, 0, 68, 30
1, 202320, Note_on_c, 0, 68, 0
1, 202320, Note_on_c, 0, 56, 31
1, 202440, Note_on_c, 0, 56, 0
1, 202440, Note_on_c, 0, 58, 28
1, 202560, Note_on_c, 0, 58, 0
1, 202560, Note_on_c, 0, 65, 41
1, 202680, Note_on_c, 0, 65, 0
1, 202680, Note_on_c, 0, 68, 31
1, 202800, Tempo, 547945
1, 202800, Note_on_c, 0, 68, 0
1, 202800, Note_on_c, 0, 77, 0
1, 202800, Note_on_c, 0, 77, 50
1, 202800, Note_on_c, 0, 56, 31
1, 202807, Control_c, 0, 64, 0
1, 202913, Control_c, 0, 64, 127
1, 202920, Note_on_c, 0, 56, 0
1, 202920, Note_on_c, 0, 58, 25
1, 203040, Tempo, 528634
1, 203040, Note_on_c, 0, 58, 0
1, 203040, Note_on_c, 0, 77, 0
1, 203040, Note_on_c, 0, 79, 53
1, 203040, Note_on_c, 0, 65, 40
1, 203160, Note_on_c, 0, 65, 0
1, 203160, Note_on_c, 0, 68, 29
1, 203280, Note_on_c, 0, 68, 0
1, 203280, Note_on_c, 0, 79, 0
1, 203280, Note_on_c, 0, 80, 56
1, 203280, Note_on_c, 0, 56, 32
1, 203400, Tempo, 588235
1, 203400, Note_on_c, 0, 56, 0
1, 203400, Note_on_c, 0, 58, 30
1, 203520, Tempo, 510638
1, 203520, Note_on_c, 0, 58, 0
1, 203520, Note_on_c, 0, 80, 0
1, 203520, Note_on_c, 0, 79, 63
1, 203520, Note_on_c, 0, 63, 44
1, 203520, Control_c, 0, 64, 0
1, 203640, Note_on_c, 0, 63, 0
1, 203640, Note_on_c, 0, 67, 32
1, 203654, Control_c, 0, 64, 127
1, 203760, Note_on_c, 0, 67, 0
1, 203760, Note_on_c, 0, 79, 0
1, 203760, Note_on_c, 0, 55, 32
1, 203880, Note_on_c, 0, 55, 0
1, 203880, Note_on_c, 0, 58, 28
1, 204000, Note_on_c, 0, 58, 0
1, 204000, Note_on_c, 0, 39, 42
1, 204000, Note_on_c, 0, 63, 44
1, 204120, Note_on_c, 0, 63, 0
1, 204120, Note_on_c, 0, 67, 34
1, 204240, Note_on_c, 0, 67, 0
1, 204240, Note_on_c, 0, 55, 34
1, 204360, Note_on_c, 0, 55, 0
1, 204360, Note_on_c, 0, 58, 33
1, 204480, Tempo, 512821
1, 204480, Note_on_c, 0, 58, 0
1, 204480, Note_on_c, 0, 39, 0
1, 204480, Note_on_c, 0, 63, 41
1, 204600, Note_on_c, 0, 63, 0
1, 204600, Note_on_c, 0, 67, 31
1, 204720, Tempo, 547945
1, 204720, Note_on_c, 0, 67, 0
1, 204720, Note_on_c, 0, 77, 57
1, 204720, Note_on_c, 0, 55, 31
1, 204737, Control_c, 0, 64, 0
1, 204826, Control_c, 0, 64, 127
1, 204840, Note_on_c, 0, 55, 0
1, 204840, Note_on_c, 0, 58, 25
1, 204960, Tempo, 528634
1, 204960, Note_on_c, 0, 58, 0
1, 204960, Note_on_c, 0, 77, 0
1, 204960, Note_on_c, 0, 75, 50
1, 204960, Note_on_c, 0, 63, 40
1, 204972, Tempo, 540541
1, 205080, Note_on_c, 0, 63, 0
1, 205080, Note_on_c, 0, 67, 29
1, 205200, Note_on_c, 0, 67, 0
1, 205200, Note_on_c, 0, 75, 0
1, 205200, Note_on_c, 0, 74, 50
1, 205200, Note_on_c, 0, 55, 31
1, 205320, Tempo, 625000
1, 205320, Note_on_c, 0, 55, 0
1, 205320, Note_on_c, 0, 58, 26
1, 205440, Tempo, 521739
1, 205440, Note_on_c, 0, 58, 0
1, 205440, Note_on_c, 0, 74, 0
1, 205440, Note_on_c, 0, 72, 59
1, 205440, Note_on_c, 0, 63, 37
1, 205440, Control_c, 0, 64, 0
1, 205560, Note_on_c, 0, 63, 0
1, 205560, Note_on_c, 0, 68, 27
1, 205574, Control_c, 0, 64, 127
1, 205680, Note_on_c, 0, 68, 0
1, 205680, Note_on_c, 0, 72, 0
1, 205680, Note_on_c, 0, 56, 27
1, 205800, Note_on_c, 0, 56, 0
1, 205800, Note_on_c, 0, 60, 24
1, 205920, Tempo, 515021
1, 205920, Note_on_c, 0, 60, 0
1, 205920, Note_on_c, 0, 44, 29
1, 205920, Note_on_c, 0, 63, 37
1, 206040, Note_on_c, 0, 63, 0
1, 206040, Note_on_c, 0, 68, 28
1, 206160, Note_on_c, 0, 68, 0
1, 206160, Note_on_c, 0, 56, 28
1, 206280, Note_on_c, 0, 56, 0
1, 206280, Note_on_c, 0, 60, 24
1, 206400, Note_on_c, 0, 60, 0
1, 206400, Note_on_c, 0, 44, 0
1, 206400, Note_on_c, 0, 41, 26
1, 206400, Note_on_c, 0, 65, 37
1, 206410, Control_c, 0, 64, 0
1, 206412, Tempo, 512821
1, 206424, Tempo, 502092
1, 206448, Tempo, 504202
1, 206460, Tempo, 506329
1, 206496, Tempo, 508475
1, 206506, Control_c, 0, 64, 127
1, 206508, Tempo, 510638
1, 206520, Note_on_c, 0, 65, 0
1, 206520, Note_on_c, 0, 68, 27
1, 206616, Tempo, 506329
1, 206640, Note_on_c, 0, 68, 0
1, 206640, Note_on_c, 0, 41, 0
1, 206640, Note_on_c, 0, 56, 27
1, 206652, Tempo, 512821
1, 206664, Tempo, 515021
1, 206700, Tempo, 512821
1, 206712, Tempo, 504202
1, 206724, Tempo, 502092
1, 206736, Tempo, 506329
1, 206748, Tempo, 508475
1, 206760, Note_on_c, 0, 56, 0
1, 206760, Note_on_c, 0, 60, 25
1, 206796, Tempo, 502092
1, 206820, Tempo, 506329
1, 206832, Tempo, 508475
1, 206880, Tempo, 519481
1, 206880, Note_on_c, 0, 60, 0
1, 206880, Note_on_c, 0, 72, 47
1, 206880, Note_on_c, 0, 65, 37
1, 207000, Note_on_c, 0, 65, 0
1, 207000, Note_on_c, 0, 68, 28
1, 207120, Note_on_c, 0, 68, 0
1, 207120, Note_on_c, 0, 56, 28
1, 207240, Note_on_c, 0, 56, 0
1, 207240, Note_on_c, 0, 60, 24
1, 207360, Tempo, 521739
1, 207360, Note_on_c, 0, 60, 0
1, 207360, Note_on_c, 0, 72, 0
1, 207360, Note_on_c, 0, 74, 51
1, 207360, Note_on_c, 0, 65, 37
1, 207360, Control_c, 0, 64, 0
1, 207480, Note_on_c, 0, 65, 0
1, 207480, Note_on_c, 0, 68, 27
1, 207494, Control_c, 0, 64, 127
1, 207600, Note_on_c, 0, 68, 0
1, 207600, Note_on_c, 0, 74, 0
1, 207600, Note_on_c, 0, 56, 27
1, 207720, Note_on_c, 0, 56, 0
1, 207720, Note_on_c, 0, 62, 24
1, 207840, Tempo, 515021
1, 207840, Note_on_c, 0, 62, 0
1, 207840, Note_on_c, 0, 46, 34
1, 207840, Note_on_c, 0, 65, 37
1, 207960, Note_on_c, 0, 65, 0
1, 207960, Note_on_c, 0, 68, 28
1, 208080, Note_on_c, 0, 68, 0
1, 208080, Note_on_c, 0, 56, 28
1, 208200, Note_on_c, 0, 56, 0
1, 208200, Note_on_c, 0, 62, 25
1, 208320, Note_on_c, 0, 62, 0
1, 208320, Note_on_c, 0, 46, 0
1, 208320, Note_on_c, 0, 47, 39
1, 208320, Note_on_c, 0, 65, 37
1, 208440, Note_on_c, 0, 65, 0
1, 208440, Note_on_c, 0, 68, 27
1, 208560, Note_on_c, 0, 68, 0
1, 208560, Note_on_c, 0, 56, 27
1, 208680, Note_on_c, 0, 56, 0
1, 208680, Note_on_c, 0, 62, 24
1, 208800, Tempo, 519481
1, 208800, Note_on_c, 0, 62, 0
1, 208800, Note_on_c, 0, 47, 0
1, 208800, Note_on_c, 0, 46, 35
1, 208800, Note_on_c, 0, 65, 37
1, 208920, Note_on_c, 0, 65, 0
1, 208920, Note_on_c, 0, 68, 29
1, 209040, Note_on_c, 0, 68, 0
1, 209040, Note_on_c, 0, 56, 29
1, 209160, Note_on_c, 0, 56, 0
1, 209160, Note_on_c, 0, 62, 26
1, 209280, Tempo, 521739
1, 209280, Note_on_c, 0, 62, 0
1, 209280, Note_on_c, 0, 46, 0
1, 209280, Note_on_c, 0, 75, 46
1, 209280, Note_on_c, 0, 63, 40
1, 209280, Control_c, 0, 64, 0
1, 209400, Note_on_c, 0, 63, 0
1, 209400, Note_on_c, 0, 67, 29
1, 209414, Control_c, 0, 64, 127
1, 209520, Note_on_c, 0, 67, 0
1, 209520, Note_on_c, 0, 55, 29
1, 209640, Note_on_c, 0, 55, 0
1, 209640, Note_on_c, 0, 58, 23
1, 209760, Tempo, 515021
1, 209760, Note_on_c, 0, 58, 0
1, 209760, Note_on_c, 0, 75, 0
1, 209760, Note_on_c, 0, 63, 38
1, 209880, Note_on_c, 0, 63, 0
1, 209880, Note_on_c, 0, 67, 30
1, 210000, Note_on_c, 0, 67, 0
1, 210000, Note_on_c, 0, 55, 30
1, 210120, Note_on_c, 0, 55, 0
1, 210120, Note_on_c, 0, 58, 28
1, 210240, Note_on_c, 0, 58, 0
1, 210240, Note_on_c, 0, 39, 49
1, 210240, Note_on_c, 0, 63, 30
1, 210360, Note_on_c, 0, 63, 0
1, 210360, Note_on_c, 0, 67, 27
1, 210480, Note_on_c, 0, 67, 0
1, 210480, Note_on_c, 0, 55, 27
1, 210600, Note_on_c, 0, 55, 0
1, 210600, Note_on_c, 0, 58, 27
1, 210720, Tempo, 519481
1, 210720, Note_on_c, 0, 58, 0
1, 210720, Note_on_c, 0, 63, 45
1, 210840, Note_on_c, 0, 63, 0
1, 210840, Note_on_c, 0, 67, 32
1, 210960, Note_on_c, 0, 67, 0
1, 210960, Note_on_c, 0, 55, 35
1, 211080, Note_on_c, 0, 55, 0
1, 211080, Note_on_c, 0, 58, 39
1, 211200, Tempo, 521739
1, 211200, Note_on_c, 0, 58, 0
1, 211200, Note_on_c, 0, 39, 0
1, 211200, Note_on_c, 0, 41, 61
1, 211200, Note_on_c, 0, 62, 49
1, 211200, Control_c, 0, 64, 0
1, 211320, Note_on_c, 0, 62, 0
1, 211320, Note_on_c, 0, 68, 36
1, 211334, Control_c, 0, 64, 127
1, 211440, Note_on_c, 0, 68, 0
1, 211440, Note_on_c, 0, 56, 36
1, 211560, Note_on_c, 0, 56, 0
1, 211560, Note_on_c, 0, 58, 30
1, 211680, Tempo, 515021
1, 211680, Note_on_c, 0, 58, 0
1, 211680, Note_on_c, 0, 62, 46
1, 211800, Note_on_c, 0, 62, 0
1, 211800, Note_on_c, 0, 68, 33
1, 211920, Note_on_c, 0, 68, 0
1, 211920, Note_on_c, 0, 56, 31
1, 212040, Note_on_c, 0, 56, 0
1, 212040, Note_on_c, 0, 58, 26
1, 212160, Note_on_c, 0, 58, 0
1, 212160, Note_on_c, 0, 41, 0
1, 212160, Note_on_c, 0, 43, 39
1, 212160, Note_on_c, 0, 61, 37
1, 212171, Control_c, 0, 64, 0
1, 212269, Control_c, 0, 64, 127
1, 212280, Note_on_c, 0, 61, 0
1, 212280, Note_on_c, 0, 63, 27
1, 212400, Note_on_c, 0, 63, 0
1, 212400, Note_on_c, 0, 51, 27
1, 212520, Note_on_c, 0, 51, 0
1, 212520, Note_on_c, 0, 58, 24
1, 212640, Tempo, 519481
1, 212640, Note_on_c, 0, 58, 0
1, 212640, Note_on_c, 0, 61, 37
1, 212760, Note_on_c, 0, 61, 0
1, 212760, Note_on_c, 0, 63, 28
1, 212880, Note_on_c, 0, 63, 0
1, 212880, Note_on_c, 0, 51, 28
1, 213000, Note_on_c, 0, 51, 0
1, 213000, Note_on_c, 0, 58, 24
1, 213120, Tempo, 515021
1, 213120, Note_on_c, 0, 58, 0
1, 213120, Note_on_c, 0, 43, 0
1, 213120, Note_on_c, 0, 44, 39
1, 213120, Note_on_c, 0, 60, 37
1, 213131, Control_c, 0, 64, 0
1, 213229, Control_c, 0, 64, 127
1, 213240, Note_on_c, 0, 60, 0
1, 213240, Note_on_c, 0, 63, 27
1, 213360, Note_on_c, 0, 63, 0
1, 213360, Note_on_c, 0, 51, 27
1, 213480, Note_on_c, 0, 51, 0
1, 213480, Note_on_c, 0, 56, 24
1, 213600, Tempo, 519481
1, 213600, Note_on_c, 0, 56, 0
1, 213600, Note_on_c, 0, 44, 0
1, 213600, Note_on_c, 0, 60, 37
1, 213609, Tempo, 521739
1, 213685, Tempo, 524017
1, 213720, Note_on_c, 0, 60, 0
1, 213720, Note_on_c, 0, 63, 28
1, 213762, Tempo, 526316
1, 213839, Tempo, 528634
1, 213840, Note_on_c, 0, 63, 0
1, 213840, Note_on_c, 0, 51, 28
1, 213916, Tempo, 530973
1, 213960, Note_on_c, 0, 51, 0
1, 213960, Note_on_c, 0, 56, 28
1, 213993, Tempo, 533333
1, 214050, Tempo, 535714
1, 214080, Note_on_c, 0, 56, 0
1, 214080, Note_on_c, 0, 60, 37
1, 214127, Tempo, 538117
1, 214200, Note_on_c, 0, 60, 0
1, 214200, Note_on_c, 0, 63, 28
1, 214204, Tempo, 540541
1, 214281, Tempo, 542986
1, 214320, Note_on_c, 0, 63, 0
1, 214320, Note_on_c, 0, 51, 28
1, 214357, Tempo, 545455
1, 214434, Tempo, 547945
1, 214440, Note_on_c, 0, 51, 0
1, 214440, Note_on_c, 0, 56, 25
1, 214492, Tempo, 550459
1, 214560, Tempo, 517241
1, 214560, Note_on_c, 0, 56, 0
1, 214560, Note_on_c, 0, 68, 45
1, 214560, Note_on_c, 0, 60, 37
1, 214563, Control_c, 0, 64, 0
1, 214645, Control_c, 0, 64, 127
1, 214680, Note_on_c, 0, 60, 0
1, 214680, Note_on_c, 0, 63, 29
1, 214800, Tempo, 528634
1, 214800, Note_on_c, 0, 63, 0
1, 214800, Note_on_c, 0, 68, 0
1, 214800, Note_on_c, 0, 70, 48
1, 214800, Note_on_c, 0, 67, 40
1, 214800, Note_on_c, 0, 58, 36
1, 214920, Tempo, 638298
1, 214920, Note_on_c, 0, 58, 0
1, 214920, Note_on_c, 0, 63, 39
1, 215040, Tempo, 500000
1, 215040, Note_on_c, 0, 63, 0
1, 215040, Note_on_c, 0, 67, 0
1, 215040, Note_on_c, 0, 70, 0
1, 215040, Note_on_c, 0, 68, 42
1, 215040, Note_on_c, 0, 72, 50
1, 215040, Note_on_c, 0, 60, 47
1, 215040, Control_c, 0, 64, 0
1, 215109, Control_c, 0, 64, 127
1, 215160, Note_on_c, 0, 60, 0
1, 215160, Note_on_c, 0, 63, 36
1, 215200, Tempo, 497925
1, 215224, Tempo, 493827
1, 215236, Tempo, 491803
1, 215248, Tempo, 489796
1, 215280, Note_on_c, 0, 63, 0
1, 215280, Note_on_c, 0, 51, 36
1, 215284, Tempo, 487805
1, 215344, Tempo, 485830
1, 215368, Tempo, 489796
1, 215380, Tempo, 491803
1, 215392, Tempo, 497925
1, 215400, Note_on_c, 0, 51, 0
1, 215400, Note_on_c, 0, 56, 31
1, 215416, Tempo, 493827
1, 215440, Tempo, 489796
1, 215452, Tempo, 487805
1, 215464, Tempo, 485830
1, 215476, Tempo, 483871
1, 215500, Tempo, 481928
1, 215520, Note_on_c, 0, 56, 0
1, 215520, Note_on_c, 0, 72, 0
1, 215520, Note_on_c, 0, 68, 0
1, 215520, Note_on_c, 0, 60, 40
1, 215524, Tempo, 485830
1, 215536, Tempo, 487805
1, 215620, Tempo, 480000
1, 215632, Tempo, 478088
1, 215640, Note_on_c, 0, 60, 0
1, 215640, Note_on_c, 0, 63, 36
1, 215644, Tempo, 485830
1, 215668, Tempo, 489796
1, 215716, Tempo, 487805
1, 215728, Tempo, 481928
1, 215740, Tempo, 480000
1, 215752, Tempo, 481928
1, 215760, Note_on_c, 0, 63, 0
1, 215760, Note_on_c, 0, 51, 36
1, 215764, Tempo, 489796
1, 215836, Tempo, 487805
1, 215880, Note_on_c, 0, 51, 0
1, 215880, Note_on_c, 0, 56, 32
1, 215884, Tempo, 489796
1, 215908, Tempo, 491803
1, 215920, Tempo, 489796
1, 216000, Tempo, 538117
1, 216000, Note_on_c, 0, 56, 0
1, 216000, Note_on_c, 0, 60, 45
1, 216120, Note_on_c, 0, 60, 0
1, 216120, Note_on_c, 0, 63, 35
1, 216240, Tempo, 500000
1, 216240, Note_on_c, 0, 63, 0
1, 216240, Note_on_c, 0, 48, 44
1, 216240, Note_on_c, 0, 51, 37
1, 216240, Note_on_c, 0, 60, 35
1, 216240, Note_on_c, 0, 56, 35
1, 216250, Control_c, 0, 64, 0
1, 216256, Tempo, 497925
1, 216280, Tempo, 495868
1, 216292, Tempo, 493827
1, 216304, Tempo, 491803
1, 216316, Tempo, 489796
1, 216328, Tempo, 487805
1, 216339, Control_c, 0, 64, 127
1, 216360, Note_on_c, 0, 56, 0
1, 216360, Note_on_c, 0, 60, 0
1, 216360, Note_on_c, 0, 63, 31
1, 216364, Tempo, 491803
1, 216400, Tempo, 495868
1, 216412, Tempo, 497925
1, 216436, Tempo, 500000
1, 216460, Tempo, 487805
1, 216480, Note_on_c, 0, 63, 0
1, 216480, Note_on_c, 0, 51, 0
1, 216480, Note_on_c, 0, 48, 0
1, 216480, Note_on_c, 0, 51, 39
1, 216480, Note_on_c, 0, 46, 47
1, 216480, Note_on_c, 0, 55, 44
1, 216480, Note_on_c, 0, 61, 44
1, 216484, Tempo, 489796
1, 216496, Tempo, 500000
1, 216497, Control_c, 0, 64, 0
1, 216520, Tempo, 502092
1, 216600, Note_on_c, 0, 61, 0
1, 216600, Note_on_c, 0, 55, 0
1, 216600, Note_on_c, 0, 63, 29
1, 216600, Control_c, 0, 64, 127
1, 216628, Tempo, 500000
1, 216652, Tempo, 495868
1, 216664, Tempo, 493827
1, 216676, Tempo, 491803
1, 216720, Note_on_c, 0, 63, 0
1, 216720, Note_on_c, 0, 46, 0
1, 216720, Note_on_c, 0, 51, 0
1, 216720, Note_on_c, 0, 44, 50
1, 216720, Note_on_c, 0, 51, 42
1, 216720, Note_on_c, 0, 56, 31
1, 216720, Note_on_c, 0, 60, 31
1, 216730, Control_c, 0, 64, 0
1, 216748, Tempo, 502092
1, 216760, Tempo, 504202
1, 216772, Tempo, 506329
1, 216784, Tempo, 508475
1, 216796, Tempo, 512821
1, 216805, Control_c, 0, 64, 127
1, 216832, Tempo, 506329
1, 216840, Note_on_c, 0, 60, 0
1, 216840, Note_on_c, 0, 56, 0
1, 216840, Note_on_c, 0, 63, 27
1, 216868, Tempo, 510638
1, 216880, Tempo, 512821
1, 216892, Tempo, 515021
1, 216940, Tempo, 512821
1, 216952, Tempo, 510638
1, 216960, Tempo, 500000
1, 216960, Note_on_c, 0, 63, 0
1, 216960, Note_on_c, 0, 51, 0
1, 216960, Note_on_c, 0, 44, 0
1, 216960, Note_on_c, 0, 51, 39
1, 216960, Note_on_c, 0, 39, 55
1, 216960, Note_on_c, 0, 55, 37
1, 216960, Note_on_c, 0, 58, 37
1, 216960, Control_c, 0, 64, 0
1, 216988, Tempo, 497925
1, 217000, Tempo, 495868
1, 217012, Tempo, 491803
1, 217036, Tempo, 489796
1, 217046, Control_c, 0, 64, 127
1, 217075, Note_on_c, 0, 63, 29
1, 217080, Note_on_c, 0, 58, 0
1, 217080, Note_on_c, 0, 55, 0
1, 217084, Tempo, 493827
1, 217096, Tempo, 497925
1, 217132, Tempo, 504202
1, 217144, Tempo, 508475
1, 217168, Tempo, 506329
1, 217180, Tempo, 504202
1, 217192, Tempo, 502092
1, 217195, Note_on_c, 0, 63, 0
1, 217200, Note_on_c, 0, 39, 0
1, 217200, Note_on_c, 0, 51, 0
1, 217200, Note_on_c, 0, 51, 29
1, 217204, Tempo, 500000
1, 217228, Tempo, 493827
1, 217240, Tempo, 489796
1, 217252, Tempo, 491803
1, 217320, Note_on_c, 0, 51, 0
1, 217320, Note_on_c, 0, 55, 25
1, 217336, Tempo, 493827
1, 217372, Tempo, 495868
1, 217384, Tempo, 497925
1, 217396, Tempo, 502092
1, 217408, Tempo, 510638
1, 217420, Tempo, 506329
1, 217440, Note_on_c, 0, 55, 0
1, 217440, Note_on_c, 0, 58, 37
1, 217444, Tempo, 502092
1, 217456, Tempo, 500000
1, 217468, Tempo, 497925
1, 217480, Tempo, 495868
1, 217504, Tempo, 493827
1, 217528, Tempo, 491803
1, 217540, Tempo, 487805
1, 217560, Note_on_c, 0, 58, 0
1, 217560, Note_on_c, 0, 63, 29
1, 217564, Tempo, 491803
1, 217588, Tempo, 495868
1, 217612, Tempo, 500000
1, 217636, Tempo, 502092
1, 217672, Tempo, 504202
1, 217680, Note_on_c, 0, 63, 0
1, 217680, Note_on_c, 0, 51, 29
1, 217696, Tempo, 502092
1, 217708, Tempo, 500000
1, 217720, Tempo, 495868
1, 217744, Tempo, 493827
1, 217768, Tempo, 491803
1, 217800, Note_on_c, 0, 51, 0
1, 217800, Note_on_c, 0, 55, 25
1, 217828, Tempo, 495868
1, 217920, Note_on_c, 0, 55, 0
1, 217920, Note_on_c, 0, 58, 37
1, 217948, Tempo, 497925
1, 217960, Tempo, 500000
1, 218040, Note_on_c, 0, 58, 0
1, 218040, Note_on_c, 0, 63, 29
1, 218160, Tempo, 517241
1, 218160, Note_on_c, 0, 63, 0
1, 218160, Note_on_c, 0, 51, 29
1, 218280, Note_on_c, 0, 51, 0
1, 218280, Note_on_c, 0, 55, 24
1, 218400, Tempo, 504202
1, 218400, Note_on_c, 0, 55, 0
1, 218400, Note_on_c, 0, 70, 54
1, 218400, Note_on_c, 0, 73, 64
1, 218400, Note_on_c, 0, 58, 42
1, 218418, Control_c, 0, 64, 0
1, 218513, Control_c, 0, 64, 127
1, 218520, Note_on_c, 0, 58, 0
1, 218520, Note_on_c, 0, 63, 31
1, 218640, Tempo, 528634
1, 218640, Note_on_c, 0, 63, 0
1, 218640, Note_on_c, 0, 73, 0
1, 218640, Note_on_c, 0, 70, 0
1, 218640, Note_on_c, 0, 77, 61
1, 218640, Note_on_c, 0, 73, 51
1, 218640, Note_on_c, 0, 61, 31
1, 218760, Tempo, 638298
1, 218760, Note_on_c, 0, 61, 0
1, 218760, Note_on_c, 0, 63, 28
1, 218880, Tempo, 500000
1, 218880, Note_on_c, 0, 63, 0
1, 218880, Note_on_c, 0, 73, 0
1, 218880, Note_on_c, 0, 77, 0
1, 218880, Note_on_c, 0, 72, 48
1, 218880, Note_on_c, 0, 75, 57
1, 218880, Note_on_c, 0, 60, 39
1, 218880, Control_c, 0, 64, 0
1, 218896, Tempo, 497925
1, 218920, Tempo, 495868
1, 218932, Tempo, 493827
1, 218944, Tempo, 491803
1, 218949, Control_c, 0, 64, 127
1, 218956, Tempo, 489796
1, 218968, Tempo, 487805
1, 218992, Tempo, 485830
1, 219000, Note_on_c, 0, 60, 0
1, 219007, Note_on_c, 0, 63, 29
1, 219028, Tempo, 491803
1, 219040, Tempo, 493827
1, 219052, Tempo, 485830
1, 219076, Tempo, 483871
1, 219112, Tempo, 489796
1, 219127, Note_on_c, 0, 63, 0
1, 219132, Note_on_c, 0, 51, 29
1, 219148, Tempo, 487805
1, 219160, Tempo, 485830
1, 219172, Tempo, 481928
1, 219196, Tempo, 480000
1, 219252, Note_on_c, 0, 51, 0
1, 219252, Note_on_c, 0, 56, 25
1, 219292, Tempo, 485830
1, 219304, Tempo, 487805
1, 219352, Tempo, 483871
1, 219360, Note_on_c, 0, 75, 0
1, 219360, Note_on_c, 0, 72, 0
1, 219364, Tempo, 481928
1, 219372, Note_on_c, 0, 56, 0
1, 219372, Note_on_c, 0, 60, 42
1, 219388, Tempo, 480000
1, 219424, Tempo, 478088
1, 219448, Tempo, 476190
1, 219492, Note_on_c, 0, 60, 0
1, 219492, Note_on_c, 0, 63, 34
1, 219496, Tempo, 485830
1, 219508, Tempo, 487805
1, 219520, Tempo, 485830
1, 219532, Tempo, 481928
1, 219544, Tempo, 480000
1, 219556, Tempo, 476190
1, 219612, Note_on_c, 0, 63, 0
1, 219612, Note_on_c, 0, 51, 34
1, 219652, Tempo, 483871
1, 219676, Tempo, 487805
1, 219700, Tempo, 489796
1, 219712, Tempo, 491803
1, 219724, Tempo, 489796
1, 219732, Note_on_c, 0, 51, 0
1, 219732, Note_on_c, 0, 56, 29
1, 219736, Tempo, 491803
1, 219840, Tempo, 538117
1, 219840, Note_on_c, 0, 60, 41
1, 219852, Note_on_c, 0, 56, 0
1, 219960, Note_on_c, 0, 60, 0
1, 219972, Note_on_c, 0, 63, 33
1, 220080, Tempo, 500000
1, 220080, Note_on_c, 0, 51, 33
1, 220092, Note_on_c, 0, 63, 0
1, 220200, Note_on_c, 0, 51, 0
1, 220200, Note_on_c, 0, 56, 29
1, 220288, Tempo, 489796
1, 220312, Tempo, 487805
1, 220320, Note_on_c, 0, 56, 0
1, 220320, Note_on_c, 0, 51, 41
1, 220320, Note_on_c, 0, 48, 57
1, 220320, Note_on_c, 0, 60, 37
1, 220324, Tempo, 485830
1, 220336, Control_c, 0, 64, 0
1, 220348, Tempo, 483871
1, 220384, Tempo, 481928
1, 220426, Control_c, 0, 64, 127
1, 220432, Tempo, 483871
1, 220440, Note_on_c, 0, 60, 0
1, 220444, Tempo, 489796
1, 220452, Note_on_c, 0, 63, 29
1, 220456, Tempo, 491803
1, 220468, Tempo, 495868
1, 220516, Tempo, 493827
1, 220528, Tempo, 489796
1, 220552, Tempo, 491803
1, 220560, Note_on_c, 0, 48, 0
1, 220560, Note_on_c, 0, 51, 0
1, 220560, Note_on_c, 0, 51, 39
1, 220560, Note_on_c, 0, 46, 47
1, 220560, Note_on_c, 0, 61, 29
1, 220560, Note_on_c, 0, 55, 29
1, 220564, Tempo, 493827
1, 220572, Note_on_c, 0, 63, 0
1, 220576, Tempo, 504202
1, 220588, Tempo, 506329
1, 220612, Tempo, 508475
1, 220660, Tempo, 500000
1, 220680, Note_on_c, 0, 61, 0
1, 220680, Note_on_c, 0, 55, 0
1, 220692, Note_on_c, 0, 63, 28
1, 220732, Tempo, 504202
1, 220744, Tempo, 506329
1, 220780, Tempo, 504202
1, 220792, Tempo, 497925
1, 220800, Tempo, 500000
1, 220800, Note_on_c, 0, 63, 0
1, 220800, Note_on_c, 0, 46, 0
1, 220800, Note_on_c, 0, 51, 0
1, 220800, Note_on_c, 0, 44, 50
1, 220800, Note_on_c, 0, 51, 42
1, 220800, Note_on_c, 0, 60, 37
1, 220800, Note_on_c, 0, 56, 37
1, 220800, Control_c, 0, 64, 0
1, 220800, Control_c, 0, 64, 0
1, 220816, Tempo, 495868
1, 220840, Tempo, 493827
1, 220852, Tempo, 491803
1, 220864, Tempo, 489796
1, 220876, Tempo, 487805
1, 220886, Control_c, 0, 64, 127
1, 220912, Tempo, 489796
1, 220915, Note_on_c, 0, 63, 29
1, 220920, Note_on_c, 0, 56, 0
1, 220920, Note_on_c, 0, 60, 0
1, 220924, Tempo, 491803
1, 220936, Tempo, 495868
1, 220960, Tempo, 500000
1, 220984, Tempo, 502092
1, 221020, Tempo, 497925
1, 221035, Note_on_c, 0, 63, 0
1, 221038, Note_on_c, 0, 51, 0
1, 221040, Note_on_c, 0, 44, 0
1, 221040, Note_on_c, 0, 51, 29
1, 221044, Tempo, 495868
1, 221056, Tempo, 487805
1, 221080, Tempo, 489796
1, 221092, Tempo, 491803
1, 221104, Tempo, 493827
1, 221116, Tempo, 500000
1, 221128, Tempo, 502092
1, 221160, Note_on_c, 0, 51, 0
1, 221160, Note_on_c, 0, 56, 27
1, 221212, Tempo, 504202
1, 221224, Tempo, 506329
1, 221280, Note_on_c, 0, 56, 0
1, 221280, Note_on_c, 0, 60, 38
1, 221284, Tempo, 497925
1, 221296, Tempo, 495868
1, 221308, Tempo, 491803
1, 221380, Tempo, 493827
1, 221400, Note_on_c, 0, 60, 0
1, 221400, Note_on_c, 0, 63, 30
1, 221404, Tempo, 495868
1, 221416, Tempo, 497925
1, 221428, Tempo, 500000
1, 221440, Tempo, 502092
1, 221452, Tempo, 504202
1, 221512, Tempo, 497925
1, 221520, Note_on_c, 0, 63, 0
1, 221520, Note_on_c, 0, 51, 31
1, 221536, Tempo, 495868
1, 221632, Tempo, 500000
1, 221640, Note_on_c, 0, 51, 0
1, 221640, Note_on_c, 0, 56, 29
1, 221760, Note_on_c, 0, 56, 0
1, 221760, Note_on_c, 0, 60, 40
1, 221880, Note_on_c, 0, 60, 0
1, 221880, Note_on_c, 0, 63, 32
1, 222000, Tempo, 517241
1, 222000, Note_on_c, 0, 63, 0
1, 222000, Note_on_c, 0, 51, 32
1, 222120, Note_on_c, 0, 51, 0
1, 222120, Note_on_c, 0, 56, 29
1, 222240, Tempo, 504202
1, 222240, Note_on_c, 0, 56, 0
1, 222240, Note_on_c, 0, 72, 51
1, 222240, Note_on_c, 0, 68, 43
1, 222240, Note_on_c, 0, 60, 42
1, 222256, Control_c, 0, 64, 0
1, 222339, Control_c, 0, 64, 127
1, 222360, Note_on_c, 0, 60, 0
1, 222360, Note_on_c, 0, 63, 33
1, 222480, Tempo, 528634
1, 222480, Note_on_c, 0, 63, 0
1, 222480, Note_on_c, 0, 68, 0
1, 222480, Note_on_c, 0, 72, 0
1, 222480, Note_on_c, 0, 70, 46
1, 222480, Note_on_c, 0, 73, 55
1, 222480, Note_on_c, 0, 61, 41
1, 222600, Tempo, 638298
1, 222600, Note_on_c, 0, 61, 0
1, 222600, Note_on_c, 0, 63, 44
1, 222720, Tempo, 500000
1, 222720, Note_on_c, 0, 63, 0
1, 222720, Note_on_c, 0, 73, 0
1, 222720, Note_on_c, 0, 70, 0
1, 222720, Note_on_c, 0, 72, 48
1, 222720, Note_on_c, 0, 75, 57
1, 222720, Note_on_c, 0, 60, 54
1, 222720, Control_c, 0, 64, 0
1, 222789, Control_c, 0, 64, 127
1, 222840, Note_on_c, 0, 60, 0
1, 222840, Note_on_c, 0, 63, 41
1, 222960, Note_on_c, 0, 63, 0
1, 222960, Note_on_c, 0, 51, 41
1, 223080, Note_on_c, 0, 51, 0
1, 223080, Note_on_c, 0, 56, 37
1, 223120, Tempo, 497925
1, 223144, Tempo, 493827
1, 223156, Tempo, 491803
1, 223168, Tempo, 489796
1, 223192, Tempo, 487805
1, 223200, Note_on_c, 0, 56, 0
1, 223200, Note_on_c, 0, 75, 0
1, 223200, Note_on_c, 0, 72, 0
1, 223200, Note_on_c, 0, 60, 46
1, 223216, Tempo, 485830
1, 223228, Tempo, 483871
1, 223264, Tempo, 485830
1, 223276, Tempo, 487805
1, 223288, Tempo, 506329
1, 223300, Tempo, 502092
1, 223312, Tempo, 500000
1, 223320, Note_on_c, 0, 60, 0
1, 223320, Note_on_c, 0, 63, 41
1, 223324, Tempo, 495868
1, 223336, Tempo, 487805
1, 223348, Tempo, 485830
1, 223384, Tempo, 483871
1, 223440, Note_on_c, 0, 63, 0
1, 223440, Note_on_c, 0, 51, 41
1, 223444, Tempo, 495868
1, 223456, Tempo, 497925
1, 223492, Tempo, 493827
1, 223504, Tempo, 500000
1, 223560, Note_on_c, 0, 51, 0
1, 223560, Note_on_c, 0, 56, 36
1, 223588, Tempo, 497925
1, 223680, Tempo, 538117
1, 223680, Note_on_c, 0, 56, 0
1, 223680, Note_on_c, 0, 60, 51
1, 223800, Note_on_c, 0, 60, 0
1, 223800, Note_on_c, 0, 63, 44
1, 223920, Tempo, 500000
1, 223920, Note_on_c, 0, 63, 0
1, 223920, Note_on_c, 0, 48, 42
1, 223920, Note_on_c, 0, 44, 42
1, 223920, Note_on_c, 0, 51, 50
1, 223920, Note_on_c, 0, 60, 46
1, 223938, Control_c, 0, 64, 0
1, 224019, Control_c, 0, 64, 127
1, 224040, Note_on_c, 0, 60, 0
1, 224040, Note_on_c, 0, 63, 47
1, 224140, Tempo, 497925
1, 224152, Tempo, 495868
1, 224160, Note_on_c, 0, 63, 0
1, 224160, Note_on_c, 0, 51, 0
1, 224160, Note_on_c, 0, 48, 0
1, 224160, Note_on_c, 0, 49, 42
1, 224160, Note_on_c, 0, 53, 51
1, 224160, Note_on_c, 0, 61, 55
1, 224164, Tempo, 493827
1, 224170, Control_c, 0, 64, 0
1, 224176, Tempo, 489796
1, 224200, Tempo, 487805
1, 224238, Control_c, 0, 64, 127
1, 224280, Note_on_c, 0, 61, 0
1, 224280, Note_on_c, 0, 65, 48
1, 224284, Tempo, 489796
1, 224296, Tempo, 497925
1, 224332, Tempo, 502092
1, 224344, Tempo, 504202
1, 224356, Tempo, 506329
1, 224392, Tempo, 497925
1, 224400, Note_on_c, 0, 65, 0
1, 224400, Note_on_c, 0, 53, 0
1, 224400, Note_on_c, 0, 49, 0
1, 224400, Note_on_c, 0, 55, 54
1, 224400, Note_on_c, 0, 46, 45
1, 224400, Note_on_c, 0, 58, 50
1, 224404, Tempo, 495868
1, 224416, Tempo, 493827
1, 224428, Tempo, 491803
1, 224440, Tempo, 489796
1, 224464, Tempo, 487805
1, 224488, Tempo, 502092
1, 224512, Tempo, 504202
1, 224520, Note_on_c, 0, 58, 0
1, 224520, Note_on_c, 0, 67, 54
1, 224572, Tempo, 500000
1, 224596, Tempo, 495868
1, 224608, Tempo, 493827
1, 224620, Tempo, 489796
1, 224640, Note_on_c, 0, 67, 0
1, 224640, Note_on_c, 0, 46, 0
1, 224640, Note_on_c, 0, 55, 0
1, 224640, Note_on_c, 0, 56, 44
1, 224640, Note_on_c, 0, 48, 63
1, 224640, Note_on_c, 0, 60, 60
1, 224640, Control_c, 0, 64, 0
1, 224644, Tempo, 493827
1, 224668, Tempo, 497925
1, 224716, Tempo, 504202
1, 224726, Control_c, 0, 64, 127
1, 224740, Tempo, 506329
1, 224760, Note_on_c, 0, 60, 0
1, 224760, Note_on_c, 0, 68, 49
1, 224848, Tempo, 500000
1, 224860, Tempo, 497925
1, 224872, Tempo, 495868
1, 224880, Note_on_c, 0, 68, 0
1, 224880, Note_on_c, 0, 48, 0
1, 224880, Note_on_c, 0, 56, 0
1, 224880, Note_on_c, 0, 44, 0
1, 224880, Note_on_c, 0, 56, 49
1, 224884, Tempo, 493827
1, 224908, Tempo, 491803
1, 224944, Tempo, 489796
1, 224956, Tempo, 487805
1, 224968, Tempo, 485830
1, 225000, Note_on_c, 0, 56, 0
1, 225000, Note_on_c, 0, 60, 45
1, 225004, Tempo, 489796
1, 225016, Tempo, 504202
1, 225100, Tempo, 502092
1, 225120, Note_on_c, 0, 60, 0
1, 225120, Note_on_c, 0, 63, 52
1, 225136, Tempo, 497925
1, 225148, Tempo, 495868
1, 225160, Tempo, 493827
1, 225172, Tempo, 491803
1, 225184, Tempo, 489796
1, 225196, Tempo, 485830
1, 225208, Tempo, 483871
1, 225240, Note_on_c, 0, 63, 0
1, 225240, Note_on_c, 0, 68, 42
1, 225292, Tempo, 491803
1, 225304, Tempo, 506329
1, 225316, Tempo, 508475
1, 225352, Tempo, 506329
1, 225360, Note_on_c, 0, 68, 0
1, 225360, Note_on_c, 0, 56, 42
1, 225364, Tempo, 504202
1, 225388, Tempo, 502092
1, 225436, Tempo, 500000
1, 225480, Note_on_c, 0, 56, 0
1, 225480, Note_on_c, 0, 60, 38
1, 225496, Tempo, 497925
1, 225520, Tempo, 493827
1, 225544, Tempo, 491803
1, 225556, Tempo, 489796
1, 225580, Tempo, 487805
1, 225600, Note_on_c, 0, 60, 0
1, 225600, Note_on_c, 0, 63, 58
1, 225616, Tempo, 489796
1, 225628, Tempo, 493827
1, 225640, Tempo, 495868
1, 225720, Note_on_c, 0, 63, 0
1, 225720, Note_on_c, 0, 68, 45
1, 225724, Tempo, 497925
1, 225748, Tempo, 502092
1, 225772, Tempo, 504202
1, 225840, Tempo, 517241
1, 225840, Note_on_c, 0, 68, 0
1, 225840, Note_on_c, 0, 80, 69
1, 225840, Note_on_c, 0, 72, 58
1, 225840, Note_on_c, 0, 60, 45
1, 225858, Control_c, 0, 64, 0
1, 225925, Control_c, 0, 64, 127
1, 225960, Note_on_c, 0, 60, 0
1, 225960, Note_on_c, 0, 68, 39
1, 226080, Tempo, 504202
1, 226080, Note_on_c, 0, 68, 0
1, 226080, Note_on_c, 0, 72, 0
1, 226080, Note_on_c, 0, 80, 0
1, 226080, Note_on_c, 0, 75, 55
1, 226080, Note_on_c, 0, 79, 65
1, 226080, Note_on_c, 0, 63, 56
1, 226098, Control_c, 0, 64, 0
1, 226186, Control_c, 0, 64, 127
1, 226200, Note_on_c, 0, 63, 0
1, 226200, Note_on_c, 0, 67, 41
1, 226320, Tempo, 528634
1, 226320, Note_on_c, 0, 67, 0
1, 226320, Note_on_c, 0, 79, 0
1, 226320, Note_on_c, 0, 75, 0
1, 226320, Note_on_c, 0, 77, 63
1, 226320, Note_on_c, 0, 73, 52
1, 226320, Note_on_c, 0, 61, 41
1, 226440, Tempo, 638298
1, 226440, Note_on_c, 0, 61, 0
1, 226440, Note_on_c, 0, 65, 39
1, 226552, Tempo, 500000
1, 226560, Note_on_c, 0, 65, 0
1, 226560, Note_on_c, 0, 73, 0
1, 226560, Note_on_c, 0, 77, 0
1, 226560, Note_on_c, 0, 75, 61
1, 226560, Note_on_c, 0, 72, 60
1, 226560, Note_on_c, 0, 60, 53
1, 226560, Control_c, 0, 64, 0
1, 226600, Tempo, 497925
1, 226629, Control_c, 0, 64, 127
1, 226636, Tempo, 495868
1, 226648, Tempo, 493827
1, 226660, Tempo, 491803
1, 226672, Tempo, 489796
1, 226680, Note_on_c, 0, 60, 0
1, 226680, Note_on_c, 0, 63, 39
1, 226720, Tempo, 491803
1, 226732, Tempo, 493827
1, 226744, Tempo, 495868
1, 226756, Tempo, 508475
1, 226800, Note_on_c, 0, 63, 0
1, 226800, Note_on_c, 0, 51, 39
1, 226816, Tempo, 506329
1, 226828, Tempo, 504202
1, 226852, Tempo, 497925
1, 226864, Tempo, 495868
1, 226876, Tempo, 491803
1, 226888, Tempo, 487805
1, 226920, Note_on_c, 0, 51, 0
1, 226920, Note_on_c, 0, 56, 37
1, 226924, Tempo, 491803
1, 226936, Tempo, 493827
1, 226948, Tempo, 500000
1, 227040, Note_on_c, 0, 56, 0
1, 227040, Note_on_c, 0, 72, 0
1, 227040, Note_on_c, 0, 75, 0
1, 227040, Note_on_c, 0, 60, 46
1, 227044, Tempo, 495868
1, 227056, Tempo, 493827
1, 227140, Tempo, 491803
1, 227152, Tempo, 504202
1, 227160, Note_on_c, 0, 60, 0
1, 227160, Note_on_c, 0, 63, 34
1, 227176, Tempo, 508475
1, 227236, Tempo, 504202
1, 227260, Tempo, 500000
1, 227272, Tempo, 497925
1, 227280, Note_on_c, 0, 63, 0
1, 227280, Note_on_c, 0, 51, 34
1, 227284, Tempo, 495868
1, 227308, Tempo, 491803
1, 227332, Tempo, 495868
1, 227344, Tempo, 497925
1, 227400, Note_on_c, 0, 51, 0
1, 227400, Note_on_c, 0, 56, 30
1, 227520, Tempo, 538117
1, 227520, Note_on_c, 0, 56, 0
1, 227520, Note_on_c, 0, 60, 40
1, 227640, Note_on_c, 0, 60, 0
1, 227640, Note_on_c, 0, 63, 31
1, 227760, Tempo, 517241
1, 227760, Note_on_c, 0, 63, 0
1, 227760, Note_on_c, 0, 48, 48
1, 227760, Note_on_c, 0, 51, 48
1, 227760, Note_on_c, 0, 60, 31
1, 227760, Note_on_c, 0, 56, 31
1, 227763, Control_c, 0, 64, 0
1, 227838, Control_c, 0, 64, 127
1, 227880, Note_on_c, 0, 56, 0
1, 227880, Note_on_c, 0, 60, 0
1, 227880, Note_on_c, 0, 63, 27
1, 228000, Tempo, 504202
1, 228000, Note_on_c, 0, 63, 0
1, 228000, Note_on_c, 0, 51, 0
1, 228000, Note_on_c, 0, 48, 0
1, 228000, Note_on_c, 0, 49, 41
1, 228000, Note_on_c, 0, 46, 34
1, 228000, Note_on_c, 0, 55, 43
1, 228000, Note_on_c, 0, 61, 43
1, 228007, Control_c, 0, 64, 0
1, 228113, Control_c, 0, 64, 127
1, 228120, Note_on_c, 0, 61, 0
1, 228120, Note_on_c, 0, 55, 0
1, 228120, Note_on_c, 0, 63, 35
1, 228240, Tempo, 528634
1, 228240, Note_on_c, 0, 63, 0
1, 228240, Note_on_c, 0, 46, 0
1, 228240, Note_on_c, 0, 49, 0
1, 228240, Note_on_c, 0, 39, 33
1, 228240, Note_on_c, 0, 46, 39
1, 228240, Note_on_c, 0, 58, 35
1, 228240, Note_on_c, 0, 55, 35
1, 228243, Control_c, 0, 64, 0
1, 228318, Control_c, 0, 64, 127
1, 228360, Tempo, 638298
1, 228360, Note_on_c, 0, 55, 0
1, 228360, Note_on_c, 0, 58, 0
1, 228360, Note_on_c, 0, 63, 33
1, 228472, Tempo, 497925
1, 228480, Note_on_c, 0, 63, 0
1, 228480, Note_on_c, 0, 46, 0
1, 228480, Note_on_c, 0, 39, 0
1, 228480, Note_on_c, 0, 44, 40
1, 228480, Note_on_c, 0, 48, 48
1, 228480, Note_on_c, 0, 60, 36
1, 228480, Note_on_c, 0, 56, 36
1, 228480, Control_c, 0, 64, 0
1, 228496, Tempo, 495868
1, 228532, Tempo, 493827
1, 228544, Tempo, 489796
1, 228562, Control_c, 0, 64, 127
1, 228568, Tempo, 487805
1, 228600, Note_on_c, 0, 56, 0
1, 228600, Note_on_c, 0, 60, 0
1, 228600, Note_on_c, 0, 63, 30
1, 228604, Tempo, 491803
1, 228628, Tempo, 504202
1, 228664, Tempo, 491803
1, 228676, Tempo, 489796
1, 228720, Note_on_c, 0, 63, 0
1, 228720, Note_on_c, 0, 48, 0
1, 228720, Note_on_c, 0, 44, 0
1, 228720, Note_on_c, 0, 51, 30
1, 228808, Tempo, 491803
1, 228820, Tempo, 495868
1, 228832, Tempo, 506329
1, 228840, Note_on_c, 0, 51, 0
1, 228840, Note_on_c, 0, 56, 27
1, 228868, Tempo, 504202
1, 228880, Tempo, 502092
1, 228892, Tempo, 500000
1, 228916, Tempo, 497925
1, 228928, Tempo, 485830
1, 228940, Tempo, 483871
1, 228960, Note_on_c, 0, 56, 0
1, 228960, Note_on_c, 0, 60, 27
1, 228976, Tempo, 487805
1, 228988, Tempo, 489796
1, 229000, Tempo, 493827
1, 229024, Tempo, 497925
1, 229036, Tempo, 500000
1, 229060, Tempo, 502092
1, 229080, Note_on_c, 0, 60, 0
1, 229080, Note_on_c, 0, 63, 33
1, 229084, Tempo, 508475
1, 229108, Tempo, 502092
1, 229120, Tempo, 500000
1, 229132, Tempo, 497925
1, 229168, Tempo, 495868
1, 229200, Note_on_c, 0, 63, 0
1, 229200, Note_on_c, 0, 51, 33
1, 229300, Tempo, 493827
1, 229312, Tempo, 497925
1, 229320, Note_on_c, 0, 51, 0
1, 229320, Note_on_c, 0, 56, 29
1, 229440, Tempo, 538117
1, 229440, Note_on_c, 0, 56, 0
1, 229440, Note_on_c, 0, 60, 45
1, 229560, Note_on_c, 0, 60, 0
1, 229560, Note_on_c, 0, 63, 31
1, 229680, Tempo, 517241
1, 229680, Note_on_c, 0, 63, 0
1, 229680, Note_on_c, 0, 51, 31
1, 229800, Note_on_c, 0, 51, 0
1, 229800, Note_on_c, 0, 56, 25
1, 229920, Tempo, 538117
1, 229920, Note_on_c, 0, 56, 0
1, 229920, Note_on_c, 0, 72, 36
1, 229920, Note_on_c, 0, 68, 30
1, 229920, Note_on_c, 0, 60, 25
1, 229934, Control_c, 0, 64, 0
1, 230040, Note_on_c, 0, 60, 0
1, 230040, Note_on_c, 0, 63, 19
1, 230054, Control_c, 0, 64, 127
1, 230160, Tempo, 550459
1, 230160, Note_on_c, 0, 63, 0
1, 230160, Note_on_c, 0, 68, 0
1, 230160, Note_on_c, 0, 72, 0
1, 230160, Note_on_c, 0, 73, 38
1, 230160, Note_on_c, 0, 70, 32
1, 230160, Note_on_c, 0, 61, 24
1, 230280, Tempo, 689655
1, 230280, Note_on_c, 0, 61, 0
1, 230280, Note_on_c, 0, 63, 26
1, 230400, Tempo, 504202
1, 230400, Note_on_c, 0, 63, 0
1, 230400, Note_on_c, 0, 70, 0
1, 230400, Note_on_c, 0, 73, 0
1, 230400, Note_on_c, 0, 72, 34
1, 230400, Note_on_c, 0, 75, 41
1, 230400, Note_on_c, 0, 60, 32
1, 230400, Control_c, 0, 64, 0
1, 230469, Control_c, 0, 64, 127
1, 230488, Tempo, 504202
1, 230520, Note_on_c, 0, 60, 0
1, 230520, Note_on_c, 0, 63, 24
1, 230536, Tempo, 497925
1, 230560, Tempo, 495868
1, 230584, Tempo, 493827
1, 230608, Tempo, 491803
1, 230632, Tempo, 493827
1, 230640, Note_on_c, 0, 63, 0
1, 230640, Note_on_c, 0, 51, 24
1, 230644, Tempo, 495868
1, 230656, Tempo, 497925
1, 230668, Tempo, 500000
1, 230680, Tempo, 502092
1, 230740, Tempo, 504202
1, 230760, Note_on_c, 0, 51, 0
1, 230760, Note_on_c, 0, 56, 24
1, 230764, Tempo, 502092
1, 230776, Tempo, 500000
1, 230788, Tempo, 491803
1, 230800, Tempo, 489796
1, 230860, Tempo, 506329
1, 230872, Tempo, 508475
1, 230880, Note_on_c, 0, 56, 0
1, 230880, Note_on_c, 0, 75, 0
1, 230880, Note_on_c, 0, 72, 0
1, 230880, Note_on_c, 0, 60, 27
1, 230968, Tempo, 497925
1, 231000, Note_on_c, 0, 60, 0
1, 231000, Note_on_c, 0, 63, 24
1, 231016, Tempo, 502092
1, 231028, Tempo, 504202
1, 231120, Note_on_c, 0, 63, 0
1, 231120, Note_on_c, 0, 51, 24
1, 231124, Tempo, 502092
1, 231136, Tempo, 500000
1, 231172, Tempo, 506329
1, 231240, Note_on_c, 0, 51, 0
1, 231240, Note_on_c, 0, 56, 24
1, 231280, Tempo, 500000
1, 231360, Tempo, 550459
1, 231360, Note_on_c, 0, 56, 0
1, 231360, Note_on_c, 0, 60, 30
1, 231480, Note_on_c, 0, 60, 0
1, 231480, Note_on_c, 0, 63, 26
1, 231600, Tempo, 500000
1, 231600, Note_on_c, 0, 63, 0
1, 231600, Note_on_c, 0, 51, 30
1, 231600, Note_on_c, 0, 48, 25
1, 231600, Note_on_c, 0, 44, 25
1, 231600, Note_on_c, 0, 60, 27
1, 231604, Tempo, 512821
1, 231617, Control_c, 0, 64, 0
1, 231671, Control_c, 0, 64, 127
1, 231720, Note_on_c, 0, 60, 0
1, 231720, Note_on_c, 0, 63, 28
1, 231832, Tempo, 512821
1, 231840, Note_on_c, 0, 63, 0
1, 231840, Note_on_c, 0, 48, 0
1, 231840, Note_on_c, 0, 51, 0
1, 231840, Note_on_c, 0, 49, 27
1, 231840, Note_on_c, 0, 53, 32
1, 231840, Note_on_c, 0, 61, 33
1, 231859, Control_c, 0, 64, 0
1, 231868, Tempo, 517241
1, 231880, Tempo, 524017
1, 231960, Note_on_c, 0, 61, 0
1, 231960, Note_on_c, 0, 65, 28
1, 231960, Control_c, 0, 64, 127
1, 232012, Tempo, 519481
1, 232036, Tempo, 540541
1, 232048, Tempo, 542986
1, 232080, Note_on_c, 0, 65, 0
1, 232080, Note_on_c, 0, 53, 0
1, 232080, Note_on_c, 0, 49, 0
1, 232080, Note_on_c, 0, 55, 34
1, 232080, Note_on_c, 0, 46, 28
1, 232080, Note_on_c, 0, 58, 30
1, 232084, Tempo, 538117
1, 232097, Control_c, 0, 64, 0
1, 232108, Tempo, 535714
1, 232120, Tempo, 528634
1, 232132, Tempo, 526316
1, 232144, Tempo, 524017
1, 232168, Tempo, 538117
1, 232179, Control_c, 0, 64, 127
1, 232180, Tempo, 540541
1, 232192, Tempo, 542986
1, 232200, Note_on_c, 0, 58, 0
1, 232200, Note_on_c, 0, 67, 32
1, 232312, Tempo, 517241
1, 232320, Note_on_c, 0, 67, 0
1, 232320, Note_on_c, 0, 46, 0
1, 232320, Note_on_c, 0, 55, 0
1, 232320, Note_on_c, 0, 48, 37
1, 232320, Note_on_c, 0, 56, 44
1, 232320, Note_on_c, 0, 60, 36
1, 232320, Control_c, 0, 64, 0
1, 232360, Tempo, 512821
1, 232372, Tempo, 510638
1, 232384, Tempo, 502092
1, 232406, Control_c, 0, 64, 127
1, 232440, Note_on_c, 0, 60, 0
1, 232440, Note_on_c, 0, 68, 29
1, 232468, Tempo, 510638
1, 232560, Note_on_c, 0, 68, 0
1, 232560, Note_on_c, 0, 56, 0
1, 232560, Note_on_c, 0, 48, 0
1, 232560, Note_on_c, 0, 44, 0
1, 232560, Note_on_c, 0, 56, 29
1, 232588, Tempo, 508475
1, 232600, Tempo, 506329
1, 232612, Tempo, 502092
1, 232624, Tempo, 500000
1, 232680, Note_on_c, 0, 56, 0
1, 232680, Note_on_c, 0, 60, 29
1, 232684, Tempo, 502092
1, 232696, Tempo, 512821
1, 232708, Tempo, 510638
1, 232720, Tempo, 504202
1, 232732, Tempo, 502092
1, 232744, Tempo, 497925
1, 232800, Note_on_c, 0, 60, 0
1, 232800, Note_on_c, 0, 63, 31
1, 232900, Tempo, 506329
1, 232912, Tempo, 508475
1, 232920, Note_on_c, 0, 63, 0
1, 232920, Note_on_c, 0, 68, 25
1, 232948, Tempo, 500000
1, 232972, Tempo, 497925
1, 232984, Tempo, 491803
1, 233040, Note_on_c, 0, 68, 0
1, 233040, Note_on_c, 0, 56, 25
1, 233044, Tempo, 493827
1, 233056, Tempo, 495868
1, 233068, Tempo, 502092
1, 233140, Tempo, 500000
1, 233160, Note_on_c, 0, 56, 0
1, 233160, Note_on_c, 0, 60, 25
1, 233188, Tempo, 497925
1, 233280, Tempo, 533333
1, 233280, Note_on_c, 0, 60, 0
1, 233280, Note_on_c, 0, 63, 34
1, 233400, Note_on_c, 0, 63, 0
1, 233400, Note_on_c, 0, 68, 24
1, 233520, Tempo, 517241
1, 233520, Note_on_c, 0, 68, 0
1, 233520, Note_on_c, 0, 72, 35
1, 233520, Note_on_c, 0, 80, 42
1, 233520, Note_on_c, 0, 60, 24
1, 233523, Control_c, 0, 64, 0
1, 233619, Control_c, 0, 64, 127
1, 233640, Note_on_c, 0, 60, 0
1, 233640, Note_on_c, 0, 68, 24
1, 233760, Tempo, 504202
1, 233760, Note_on_c, 0, 68, 0
1, 233760, Note_on_c, 0, 80, 0
1, 233760, Note_on_c, 0, 72, 0
1, 233760, Note_on_c, 0, 75, 33
1, 233760, Note_on_c, 0, 79, 39
1, 233760, Note_on_c, 0, 63, 33
1, 233768, Control_c, 0, 64, 0
1, 233852, Control_c, 0, 64, 127
1, 233880, Note_on_c, 0, 63, 0
1, 233880, Note_on_c, 0, 67, 24
1, 234000, Tempo, 528634
1, 234000, Note_on_c, 0, 67, 0
1, 234000, Note_on_c, 0, 79, 0
1, 234000, Note_on_c, 0, 75, 0
1, 234000, Note_on_c, 0, 77, 36
1, 234000, Note_on_c, 0, 73, 30
1, 234000, Note_on_c, 0, 61, 24
1, 234007, Control_c, 0, 64, 0
1, 234120, Tempo, 638298
1, 234120, Note_on_c, 0, 61, 0
1, 234120, Note_on_c, 0, 65, 24
1, 234120, Control_c, 0, 64, 127
1, 234240, Tempo, 500000
1, 234240, Note_on_c, 0, 65, 0
1, 234240, Note_on_c, 0, 73, 0
1, 234240, Note_on_c, 0, 77, 0
1, 234240, Note_on_c, 0, 75, 42
1, 234240, Note_on_c, 0, 72, 35
1, 234240, Note_on_c, 0, 60, 31
1, 234240, Control_c, 0, 64, 0
1, 234309, Control_c, 0, 64, 127
1, 234360, Note_on_c, 0, 60, 0
1, 234360, Note_on_c, 0, 63, 24
1, 234480, Note_on_c, 0, 63, 0
1, 234480, Note_on_c, 0, 51, 24
1, 234600, Note_on_c, 0, 51, 0
1, 234600, Note_on_c, 0, 56, 24
1, 234720, Tempo, 517241
1, 234720, Note_on_c, 0, 56, 0
1, 234720, Note_on_c, 0, 72, 0
1, 234720, Note_on_c, 0, 75, 0
1, 234720, Note_on_c, 0, 60, 28
1, 234840, Note_on_c, 0, 60, 0
1, 234840, Note_on_c, 0, 63, 22
1, 234960, Note_on_c, 0, 63, 0
1, 234960, Note_on_c, 0, 51, 22
1, 235080, Note_on_c, 0, 51, 0
1, 235080, Note_on_c, 0, 56, 22
1, 235200, Tempo, 538117
1, 235200, Note_on_c, 0, 56, 0
1, 235200, Note_on_c, 0, 60, 27
1, 235320, Note_on_c, 0, 60, 0
1, 235320, Note_on_c, 0, 63, 21
1, 235440, Tempo, 517241
1, 235440, Note_on_c, 0, 63, 0
1, 235440, Note_on_c, 0, 48, 37
1, 235440, Note_on_c, 0, 51, 37
1, 235440, Note_on_c, 0, 60, 21
1, 235440, Note_on_c, 0, 56, 21
1, 235443, Control_c, 0, 64, 0
1, 235511, Control_c, 0, 64, 127
1, 235560, Note_on_c, 0, 56, 0
1, 235560, Note_on_c, 0, 60, 0
1, 235560, Note_on_c, 0, 63, 21
1, 235680, Tempo, 504202
1, 235680, Note_on_c, 0, 63, 0
1, 235680, Note_on_c, 0, 51, 0
1, 235680, Note_on_c, 0, 48, 0
1, 235680, Note_on_c, 0, 46, 28
1, 235680, Note_on_c, 0, 49, 33
1, 235680, Note_on_c, 0, 55, 33
1, 235680, Note_on_c, 0, 61, 33
1, 235699, Control_c, 0, 64, 0
1, 235737, Control_c, 0, 64, 127
1, 235800, Note_on_c, 0, 61, 0
1, 235800, Note_on_c, 0, 55, 0
1, 235800, Note_on_c, 0, 63, 24
1, 235920, Tempo, 528634
1, 235920, Note_on_c, 0, 63, 0
1, 235920, Note_on_c, 0, 49, 0
1, 235920, Note_on_c, 0, 46, 0
1, 235920, Note_on_c, 0, 46, 33
1, 235920, Note_on_c, 0, 39, 28
1, 235920, Note_on_c, 0, 58, 24
1, 235920, Note_on_c, 0, 55, 24
1, 235934, Control_c, 0, 64, 0
1, 236019, Control_c, 0, 64, 127
1, 236040, Tempo, 638298
1, 236040, Note_on_c, 0, 55, 0
1, 236040, Note_on_c, 0, 58, 0
1, 236040, Note_on_c, 0, 63, 24
1, 236152, Tempo, 508475
1, 236160, Note_on_c, 0, 63, 0
1, 236160, Note_on_c, 0, 39, 0
1, 236160, Note_on_c, 0, 46, 0
1, 236160, Note_on_c, 0, 48, 37
1, 236160, Note_on_c, 0, 44, 31
1, 236160, Note_on_c, 0, 60, 31
1, 236160, Note_on_c, 0, 56, 31
1, 236160, Control_c, 0, 64, 0
1, 236200, Tempo, 506329
1, 236224, Tempo, 504202
1, 236229, Control_c, 0, 64, 127
1, 236236, Tempo, 502092
1, 236248, Tempo, 500000
1, 236260, Tempo, 495868
1, 236280, Note_on_c, 0, 56, 0
1, 236280, Note_on_c, 0, 60, 0
1, 236280, Note_on_c, 0, 63, 25
1, 236284, Tempo, 489796
1, 236308, Tempo, 504202
1, 236320, Tempo, 506329
1, 236400, Note_on_c, 0, 63, 0
1, 236400, Note_on_c, 0, 44, 0
1, 236400, Note_on_c, 0, 48, 0
1, 236400, Note_on_c, 0, 51, 25
1, 236452, Tempo, 500000
1, 236464, Tempo, 493827
1, 236520, Note_on_c, 0, 51, 0
1, 236520, Note_on_c, 0, 56, 24
1, 236584, Tempo, 500000
1, 236596, Tempo, 502092
1, 236640, Note_on_c, 0, 56, 0
1, 236640, Note_on_c, 0, 60, 28
1, 236644, Tempo, 504202
1, 236656, Tempo, 506329
1, 236668, Tempo, 508475
1, 236680, Tempo, 497925
1, 236704, Tempo, 495868
1, 236716, Tempo, 493827
1, 236760, Note_on_c, 0, 60, 0
1, 236760, Note_on_c, 0, 63, 22
1, 236788, Tempo, 500000
1, 236800, Tempo, 502092
1, 236836, Tempo, 504202
1, 236880, Note_on_c, 0, 63, 0
1, 236880, Note_on_c, 0, 51, 22
1, 236980, Tempo, 493827
1, 236992, Tempo, 504202
1, 237000, Note_on_c, 0, 51, 0
1, 237000, Note_on_c, 0, 56, 22
1, 237016, Tempo, 497925
1, 237028, Tempo, 502092
1, 237040, Tempo, 504202
1, 237120, Tempo, 538117
1, 237120, Note_on_c, 0, 56, 0
1, 237120, Note_on_c, 0, 60, 27
1, 237240, Note_on_c, 0, 60, 0
1, 237240, Note_on_c, 0, 63, 21
1, 237360, Tempo, 517241
1, 237360, Note_on_c, 0, 63, 0
1, 237360, Note_on_c, 0, 51, 37
1, 237360, Note_on_c, 0, 48, 37
1, 237360, Note_on_c, 0, 60, 21
1, 237360, Note_on_c, 0, 56, 21
1, 237373, Control_c, 0, 64, 0
1, 237445, Control_c, 0, 64, 127
1, 237480, Note_on_c, 0, 56, 0
1, 237480, Note_on_c, 0, 60, 0
1, 237480, Note_on_c, 0, 63, 21
1, 237600, Tempo, 504202
1, 237600, Note_on_c, 0, 63, 0
1, 237600, Note_on_c, 0, 48, 0
1, 237600, Note_on_c, 0, 51, 0
1, 237600, Note_on_c, 0, 46, 28
1, 237600, Note_on_c, 0, 49, 33
1, 237600, Note_on_c, 0, 61, 33
1, 237600, Note_on_c, 0, 55, 33
1, 237614, Control_c, 0, 64, 0
1, 237657, Control_c, 0, 64, 127
1, 237720, Note_on_c, 0, 55, 0
1, 237720, Note_on_c, 0, 61, 0
1, 237720, Note_on_c, 0, 63, 24
1, 237840, Tempo, 528634
1, 237840, Note_on_c, 0, 63, 0
1, 237840, Note_on_c, 0, 49, 0
1, 237840, Note_on_c, 0, 46, 0
1, 237840, Note_on_c, 0, 39, 28
1, 237840, Note_on_c, 0, 46, 33
1, 237840, Note_on_c, 0, 55, 24
1, 237840, Note_on_c, 0, 58, 24
1, 237857, Control_c, 0, 64, 0
1, 237960, Tempo, 638298
1, 237960, Note_on_c, 0, 58, 0
1, 237960, Note_on_c, 0, 55, 0
1, 237960, Note_on_c, 0, 63, 24
1, 237967, Control_c, 0, 64, 127
1, 238080, Tempo, 500000
1, 238080, Note_on_c, 0, 63, 0
1, 238080, Note_on_c, 0, 46, 0
1, 238080, Note_on_c, 0, 39, 0
1, 238080, Note_on_c, 0, 44, 31
1, 238080, Note_on_c, 0, 48, 37
1, 238080, Note_on_c, 0, 60, 31
1, 238080, Note_on_c, 0, 56, 31
1, 238080, Control_c, 0, 64, 0
1, 238084, Tempo, 497925
1, 238149, Control_c, 0, 64, 127
1, 238168, Tempo, 493827
1, 238180, Tempo, 491803
1, 238192, Tempo, 489796
1, 238200, Note_on_c, 0, 56, 0
1, 238200, Note_on_c, 0, 60, 0
1, 238200, Note_on_c, 0, 63, 24
1, 238204, Tempo, 485830
1, 238216, Tempo, 483871
1, 238228, Tempo, 487805
1, 238240, Tempo, 489796
1, 238252, Tempo, 491803
1, 238264, Tempo, 493827
1, 238320, Note_on_c, 0, 63, 0
1, 238320, Note_on_c, 0, 48, 0
1, 238320, Note_on_c, 0, 44, 0
1, 238320, Note_on_c, 0, 51, 24
1, 238348, Tempo, 497925
1, 238360, Tempo, 504202
1, 238372, Tempo, 500000
1, 238396, Tempo, 493827
1, 238408, Tempo, 491803
1, 238440, Note_on_c, 0, 51, 0
1, 238440, Note_on_c, 0, 56, 20
1, 238492, Tempo, 500000
1, 238552, Tempo, 502092
1, 238560, Note_on_c, 0, 56, 0
1, 238560, Note_on_c, 0, 60, 26
1, 238564, Tempo, 504202
1, 238612, Tempo, 506329
1, 238636, Tempo, 508475
1, 238648, Tempo, 510638
1, 238660, Tempo, 495868
1, 238672, Tempo, 493827
1, 238680, Note_on_c, 0, 60, 0
1, 238680, Note_on_c, 0, 63, 20
1, 238756, Tempo, 495868
1, 238768, Tempo, 497925
1, 238780, Tempo, 502092
1, 238800, Note_on_c, 0, 63, 0
1, 238800, Note_on_c, 0, 51, 20
1, 238852, Tempo, 497925
1, 238912, Tempo, 500000
1, 238920, Note_on_c, 0, 51, 0
1, 238920, Note_on_c, 0, 56, 20
1, 238924, Tempo, 502092
1, 238936, Tempo, 504202
1, 238948, Tempo, 506329
1, 238960, Tempo, 508475
1, 238972, Tempo, 502092
1, 239040, Tempo, 538117
1, 239040, Note_on_c, 0, 56, 0
1, 239040, Note_on_c, 0, 60, 24
1, 239160, Note_on_c, 0, 60, 0
1, 239160, Note_on_c, 0, 63, 18
1, 239280, Tempo, 517241
1, 239280, Note_on_c, 0, 63, 0
1, 239280, Note_on_c, 0, 51, 32
1, 239280, Note_on_c, 0, 48, 32
1, 239280, Note_on_c, 0, 56, 18
1, 239280, Note_on_c, 0, 60, 18
1, 239295, Control_c, 0, 64, 0
1, 239365, Control_c, 0, 64, 127
1, 239400, Note_on_c, 0, 60, 0
1, 239400, Note_on_c, 0, 56, 0
1, 239400, Note_on_c, 0, 63, 18
1, 239520, Tempo, 504202
1, 239520, Note_on_c, 0, 63, 0
1, 239520, Note_on_c, 0, 48, 0
1, 239520, Note_on_c, 0, 51, 0
1, 239520, Note_on_c, 0, 46, 23
1, 239520, Note_on_c, 0, 49, 28
1, 239520, Note_on_c, 0, 61, 28
1, 239520, Note_on_c, 0, 55, 28
1, 239529, Control_c, 0, 64, 0
1, 239584, Control_c, 0, 64, 127
1, 239640, Note_on_c, 0, 55, 0
1, 239640, Note_on_c, 0, 61, 0
1, 239640, Note_on_c, 0, 63, 20
1, 239760, Tempo, 528634
1, 239760, Note_on_c, 0, 63, 0
1, 239760, Note_on_c, 0, 49, 0
1, 239760, Note_on_c, 0, 46, 0
1, 239760, Note_on_c, 0, 39, 23
1, 239760, Note_on_c, 0, 46, 27
1, 239760, Note_on_c, 0, 55, 19
1, 239760, Note_on_c, 0, 58, 19
1, 239767, Control_c, 0, 64, 0
1, 239845, Control_c, 0, 64, 127
1, 239880, Tempo, 638298
1, 239880, Note_on_c, 0, 58, 0
1, 239880, Note_on_c, 0, 55, 0
1, 239880, Note_on_c, 0, 63, 19
1, 240000, Tempo, 500000
1, 240000, Note_on_c, 0, 63, 0
1, 240000, Note_on_c, 0, 46, 0
1, 240000, Note_on_c, 0, 39, 0
1, 240000, Note_on_c, 0, 32, 24
1, 240000, Note_on_c, 0, 36, 24
1, 240000, Note_on_c, 0, 44, 29
1, 240000, Note_on_c, 0, 56, 24
1, 240000, Control_c, 0, 64, 0
1, 240064, Tempo, 502092
1, 240069, Control_c, 0, 64, 127
1, 240088, Tempo, 500000
1, 240112, Tempo, 497925
1, 240120, Note_on_c, 0, 56, 0
1, 240120, Note_on_c, 0, 60, 20
1, 240220, Tempo, 506329
1, 240240, Note_on_c, 0, 60, 0
1, 240240, Note_on_c, 0, 44, 0
1, 240240, Note_on_c, 0, 36, 0
1, 240240, Note_on_c, 0, 32, 0
1, 240240, Note_on_c, 0, 48, 20
1, 240244, Tempo, 497925
1, 240256, Tempo, 495868
1, 240280, Tempo, 493827
1, 240360, Note_on_c, 0, 48, 0
1, 240360, Note_on_c, 0, 51, 20
1, 240412, Tempo, 497925
1, 240424, Tempo, 502092
1, 240448, Tempo, 512821
1, 240472, Tempo, 508475
1, 240480, Note_on_c, 0, 51, 0
1, 240480, Note_on_c, 0, 56, 22
1, 240484, Tempo, 500000
1, 240508, Tempo, 497925
1, 240544, Tempo, 495868
1, 240600, Note_on_c, 0, 56, 0
1, 240600, Note_on_c, 0, 60, 17
1, 240616, Tempo, 508475
1, 240664, Tempo, 506329
1, 240676, Tempo, 502092
1, 240700, Tempo, 500000
1, 240712, Tempo, 497925
1, 240720, Note_on_c, 0, 60, 0
1, 240720, Note_on_c, 0, 48, 17
1, 240736, Tempo, 500000
1, 240840, Tempo, 521739
1, 240840, Note_on_c, 0, 48, 0
1, 240840, Note_on_c, 0, 51, 17
1, 240960, Tempo, 497925
1, 240960, Note_on_c, 0, 51, 0
1, 240960, Note_on_c, 0, 56, 24
1, 240976, Tempo, 493827
1, 241036, Tempo, 491803
1, 241060, Tempo, 489796
1, 241080, Note_on_c, 0, 56, 0
1, 241080, Note_on_c, 0, 60, 20
1, 241084, Tempo, 487805
1, 241168, Tempo, 489796
1, 241180, Tempo, 493827
1, 241192, Tempo, 500000
1, 241200, Note_on_c, 0, 60, 0
1, 241200, Note_on_c, 0, 48, 20
1, 241204, Tempo, 502092
1, 241216, Tempo, 504202
1, 241288, Tempo, 502092
1, 241300, Tempo, 495868
1, 241312, Tempo, 493827
1, 241320, Note_on_c, 0, 48, 0
1, 241320, Note_on_c, 0, 51, 20
1, 241324, Tempo, 491803
1, 241348, Tempo, 489796
1, 241420, Tempo, 491803
1, 241440, Note_on_c, 0, 51, 0
1, 241440, Note_on_c, 0, 56, 22
1, 241444, Tempo, 495868
1, 241456, Tempo, 497925
1, 241468, Tempo, 500000
1, 241480, Tempo, 502092
1, 241492, Tempo, 504202
1, 241504, Tempo, 506329
1, 241516, Tempo, 508475
1, 241540, Tempo, 502092
1, 241552, Tempo, 497925
1, 241560, Note_on_c, 0, 56, 0
1, 241560, Note_on_c, 0, 60, 17
1, 241564, Tempo, 495868
1, 241576, Tempo, 493827
1, 241636, Tempo, 495868
1, 241648, Tempo, 497925
1, 241660, Tempo, 500000
1, 241680, Note_on_c, 0, 60, 0
1, 241680, Note_on_c, 0, 48, 17
1, 241800, Tempo, 528634
1, 241800, Note_on_c, 0, 48, 0
1, 241800, Note_on_c, 0, 51, 17
1, 241920, Tempo, 500000
1, 241920, Note_on_c, 0, 51, 0
1, 241920, Note_on_c, 0, 56, 26
1, 241924, Tempo, 497925
1, 241960, Tempo, 495868
1, 241984, Tempo, 493827
1, 241996, Tempo, 491803
1, 242008, Tempo, 489796
1, 242040, Note_on_c, 0, 56, 0
1, 242040, Note_on_c, 0, 60, 22
1, 242044, Tempo, 487805
1, 242068, Tempo, 506329
1, 242092, Tempo, 508475
1, 242152, Tempo, 506329
1, 242160, Note_on_c, 0, 60, 0
1, 242160, Note_on_c, 0, 48, 22
1, 242164, Tempo, 502092
1, 242176, Tempo, 497925
1, 242188, Tempo, 495868
1, 242200, Tempo, 491803
1, 242212, Tempo, 489796
1, 242224, Tempo, 487805
1, 242280, Note_on_c, 0, 48, 0
1, 242280, Note_on_c, 0, 51, 22
1, 242296, Tempo, 489796
1, 242308, Tempo, 491803
1, 242320, Tempo, 500000
1, 242332, Tempo, 502092
1, 242356, Tempo, 506329
1, 242380, Tempo, 510638
1, 242392, Tempo, 512821
1, 242400, Note_on_c, 0, 51, 0
1, 242400, Note_on_c, 0, 56, 24
1, 242400, Note_on_c, 0, 32, 31
1, 242404, Tempo, 515021
1, 242428, Tempo, 500000
1, 242440, Tempo, 497925
1, 242452, Tempo, 495868
1, 242476, Tempo, 493827
1, 242512, Tempo, 491803
1, 242520, Note_on_c, 0, 56, 0
1, 242520, Note_on_c, 0, 60, 18
1, 242536, Tempo, 489796
1, 242572, Tempo, 500000
1, 242584, Tempo, 502092
1, 242596, Tempo, 504202
1, 242608, Tempo, 506329
1, 242632, Tempo, 504202
1, 242640, Note_on_c, 0, 60, 0
1, 242640, Note_on_c, 0, 32, 0
1, 242640, Note_on_c, 0, 48, 18
1, 242656, Tempo, 502092
1, 242760, Tempo, 521739
1, 242760, Note_on_c, 0, 48, 0
1, 242760, Note_on_c, 0, 51, 18
1, 242880, Tempo, 497925
1, 242880, Note_on_c, 0, 51, 0
1, 242880, Note_on_c, 0, 56, 26
1, 242880, Note_on_c, 0, 32, 34
1, 243000, Note_on_c, 0, 56, 0
1, 243000, Note_on_c, 0, 60, 22
1, 243120, Note_on_c, 0, 60, 0
1, 243120, Note_on_c, 0, 32, 0
1, 243120, Note_on_c, 0, 48, 22
1, 243240, Note_on_c, 0, 48, 0
1, 243240, Note_on_c, 0, 51, 22
1, 243360, Note_on_c, 0, 51, 0
1, 243360, Note_on_c, 0, 56, 31
1, 243360, Note_on_c, 0, 32, 36
1, 243480, Note_on_c, 0, 56, 0
1, 243480, Note_on_c, 0, 60, 24
1, 243600, Note_on_c, 0, 60, 0
1, 243600, Note_on_c, 0, 32, 0
1, 243600, Note_on_c, 0, 48, 24
1, 243720, Tempo, 528634
1, 243720, Note_on_c, 0, 48, 0
1, 243720, Note_on_c, 0, 51, 24
1, 243786, Tempo, 495868
1, 243840, Note_on_c, 0, 51, 0
1, 243840, Note_on_c, 0, 58, 34
1, 243840, Note_on_c, 0, 43, 43
1, 243840, Note_on_c, 0, 31, 36
1, 243840, Note_on_c, 0, 36, 36
1, 243840, Control_c, 0, 64, 0
1, 243960, Note_on_c, 0, 58, 0
1, 243960, Note_on_c, 0, 60, 24
1, 243960, Control_c, 0, 64, 127
1, 243998, Tempo, 493827
1, 244080, Note_on_c, 0, 60, 0
1, 244080, Note_on_c, 0, 48, 24
1, 244200, Note_on_c, 0, 48, 0
1, 244200, Note_on_c, 0, 52, 24
1, 244209, Tempo, 491803
1, 244320, Note_on_c, 0, 52, 0
1, 244320, Note_on_c, 0, 58, 37
1, 244420, Tempo, 489796
1, 244440, Note_on_c, 0, 58, 0
1, 244440, Note_on_c, 0, 60, 29
1, 244560, Note_on_c, 0, 60, 0
1, 244560, Note_on_c, 0, 52, 31
1, 244631, Tempo, 487805
1, 244680, Note_on_c, 0, 52, 0
1, 244680, Note_on_c, 0, 58, 31
1, 244800, Note_on_c, 0, 58, 0
1, 244800, Note_on_c, 0, 60, 47
1, 244842, Tempo, 485830
1, 244920, Note_on_c, 0, 60, 0
1, 244920, Note_on_c, 0, 64, 33
1, 245040, Note_on_c, 0, 64, 0
1, 245040, Note_on_c, 0, 58, 34
1, 245054, Tempo, 483871
1, 245160, Note_on_c, 0, 58, 0
1, 245160, Note_on_c, 0, 60, 35
1, 245265, Tempo, 481928
1, 245280, Note_on_c, 0, 60, 0
1, 245280, Note_on_c, 0, 64, 51
1, 245400, Note_on_c, 0, 64, 0
1, 245400, Note_on_c, 0, 70, 39
1, 245476, Tempo, 480000
1, 245520, Note_on_c, 0, 70, 0
1, 245520, Note_on_c, 0, 60, 41
1, 245640, Note_on_c, 0, 60, 0
1, 245640, Note_on_c, 0, 64, 42
1, 245687, Tempo, 478088
1, 245760, Tempo, 487805
1, 245760, Note_on_c, 0, 64, 0
1, 245760, Note_on_c, 0, 70, 56
1, 245880, Note_on_c, 0, 70, 0
1, 245880, Note_on_c, 0, 72, 45
1, 246000, Note_on_c, 0, 72, 0
1, 246000, Note_on_c, 0, 60, 47
1, 246120, Note_on_c, 0, 60, 0
1, 246120, Note_on_c, 0, 64, 49
1, 246240, Note_on_c, 0, 64, 0
1, 246240, Note_on_c, 0, 36, 0
1, 246240, Note_on_c, 0, 31, 0
1, 246240, Note_on_c, 0, 43, 0
1, 246240, Note_on_c, 0, 70, 60
1, 246240, Note_on_c, 0, 55, 39
1, 246240, Note_on_c, 0, 43, 33
1, 246240, Note_on_c, 0, 48, 33
1, 246360, Note_on_c, 0, 70, 0
1, 246360, Note_on_c, 0, 72, 48
1, 246480, Note_on_c, 0, 72, 0
1, 246480, Note_on_c, 0, 60, 50
1, 246600, Note_on_c, 0, 60, 0
1, 246600, Note_on_c, 0, 64, 51
1, 246720, Tempo, 500000
1, 246720, Note_on_c, 0, 64, 0
1, 246720, Note_on_c, 0, 48, 0
1, 246720, Note_on_c, 0, 43, 0
1, 246720, Note_on_c, 0, 55, 0
1, 246720, Note_on_c, 0, 70, 64
1, 246720, Note_on_c, 0, 55, 45
1, 246720, Note_on_c, 0, 48, 38
1, 246720, Note_on_c, 0, 43, 38
1, 246724, Tempo, 510638
1, 246840, Note_on_c, 0, 70, 0
1, 246840, Note_on_c, 0, 72, 50
1, 246960, Note_on_c, 0, 72, 0
1, 246960, Note_on_c, 0, 60, 52
1, 247080, Note_on_c, 0, 60, 0
1, 247080, Note_on_c, 0, 64, 55
1, 247185, Tempo, 517241
1, 247200, Note_on_c, 0, 64, 0
1, 247200, Note_on_c, 0, 43, 0
1, 247200, Note_on_c, 0, 48, 0
1, 247200, Note_on_c, 0, 55, 0
1, 247200, Note_on_c, 0, 70, 69
1, 247200, Note_on_c, 0, 43, 42
1, 247200, Note_on_c, 0, 48, 42
1, 247200, Note_on_c, 0, 55, 50
1, 247223, Tempo, 519481
1, 247262, Tempo, 521739
1, 247300, Tempo, 524017
1, 247320, Note_on_c, 0, 70, 0
1, 247320, Note_on_c, 0, 72, 59
1, 247338, Tempo, 526316
1, 247377, Tempo, 528634
1, 247415, Tempo, 530973
1, 247434, Tempo, 533333
1, 247440, Note_on_c, 0, 72, 0
1, 247440, Note_on_c, 0, 60, 61
1, 247473, Tempo, 535714
1, 247511, Tempo, 538117
1, 247550, Tempo, 540541
1, 247560, Note_on_c, 0, 60, 0
1, 247560, Note_on_c, 0, 64, 63
1, 247588, Tempo, 542986
1, 247626, Tempo, 545455
1, 247665, Tempo, 547945
1, 247680, Tempo, 1237113
1, 247680, Marker_t, "Thema 1"
1, 247680, Note_on_c, 0, 64, 0
1, 247680, Note_on_c, 0, 55, 0
1, 247680, Note_on_c, 0, 48, 0
1, 247680, Note_on_c, 0, 43, 0
1, 247680, Note_on_c, 0, 60, 55
1, 247680, Note_on_c, 0, 56, 51
1, 247680, Note_on_c, 0, 48, 51
1, 247680, Note_on_c, 0, 41, 43
1, 247693, Control_c, 0, 64, 0
1, 247720, Note_on_c, 0, 60, 0
1, 247720, Note_on_c, 0, 65, 60
1, 247760, Note_on_c, 0, 65, 0
1, 247760, Note_on_c, 0, 68, 66
1, 247800, Tempo, 547945
1, 247800, Note_on_c, 0, 68, 0
1, 247800, Note_on_c, 0, 72, 76
1, 247828, Control_c, 0, 64, 127
1, 248520, Tempo, 594059
1, 248520, Note_on_c, 0, 72, 0
1, 248520, Note_on_c, 0, 70, 57
1, 248640, Tempo, 538117
1, 248640, Note_on_c, 0, 70, 0
1, 248640, Note_on_c, 0, 68, 67
1, 248648, Control_c, 0, 64, 0
1, 248743, Control_c, 0, 64, 127
1, 249000, Note_on_c, 0, 68, 0
1, 249000, Note_on_c, 0, 70, 58
1, 249120, Tempo, 528634
1, 249120, Note_on_c, 0, 70, 0
1, 249120, Note_on_c, 0, 56, 0
1, 249120, Note_on_c, 0, 67, 68
1, 249120, Note_on_c, 0, 43, 36
1, 249120, Note_on_c, 0, 52, 43
1, 249130, Control_c, 0, 64, 0
1, 249212, Control_c, 0, 64, 127
1, 249480, Note_on_c, 0, 67, 0
1, 249480, Note_on_c, 0, 68, 51
1, 249600, Tempo, 530973
1, 249600, Note_on_c, 0, 68, 0
1, 249600, Note_on_c, 0, 52, 0
1, 249600, Note_on_c, 0, 43, 0
1, 249600, Note_on_c, 0, 48, 0
1, 249600, Note_on_c, 0, 65, 60
1, 249600, Note_on_c, 0, 44, 43
1, 249600, Note_on_c, 0, 53, 43
1, 249600, Control_c, 0, 64, 0
1, 249737, Control_c, 0, 64, 127
1, 249960, Note_on_c, 0, 65, 0
1, 249960, Note_on_c, 0, 66, 51
1, 250080, Tempo, 528634
1, 250080, Note_on_c, 0, 66, 0
1, 250080, Note_on_c, 0, 44, 0
1, 250080, Note_on_c, 0, 63, 62
1, 250080, Note_on_c, 0, 45, 39
1, 250093, Control_c, 0, 64, 0
1, 250240, Control_c, 0, 64, 127
1, 250440, Note_on_c, 0, 63, 0
1, 250440, Note_on_c, 0, 65, 52
1, 250560, Tempo, 535714
1, 250560, Note_on_c, 0, 65, 0
1, 250560, Note_on_c, 0, 45, 0
1, 250560, Note_on_c, 0, 61, 60
1, 250560, Note_on_c, 0, 43, 43
1, 250573, Control_c, 0, 64, 0
1, 250703, Control_c, 0, 64, 127
1, 250920, Note_on_c, 0, 61, 0
1, 250920, Note_on_c, 0, 63, 51
1, 251040, Tempo, 530973
1, 251040, Note_on_c, 0, 63, 0
1, 251040, Note_on_c, 0, 43, 0
1, 251040, Note_on_c, 0, 60, 60
1, 251040, Note_on_c, 0, 45, 40
1, 251055, Control_c, 0, 64, 0
1, 251189, Control_c, 0, 64, 127
1, 251400, Note_on_c, 0, 60, 0
1, 251400, Note_on_c, 0, 61, 51
1, 251520, Note_on_c, 0, 61, 0
1, 251520, Note_on_c, 0, 45, 0
1, 251520, Note_on_c, 0, 58, 60
1, 251520, Note_on_c, 0, 49, 44
1, 251555, Control_c, 0, 64, 0
1, 251635, Control_c, 0, 64, 127
1, 251880, Note_on_c, 0, 58, 0
1, 251880, Note_on_c, 0, 60, 53
1, 252000, Note_on_c, 0, 60, 0
1, 252000, Note_on_c, 0, 49, 0
1, 252000, Note_on_c, 0, 56, 63
1, 252000, Note_on_c, 0, 48, 41
1, 252013, Control_c, 0, 64, 0
1, 252103, Control_c, 0, 64, 127
1, 252360, Note_on_c, 0, 56, 0
1, 252360, Note_on_c, 0, 58, 60
1, 252480, Tempo, 545455
1, 252480, Note_on_c, 0, 58, 0
1, 252480, Note_on_c, 0, 48, 0
1, 252480, Note_on_c, 0, 41, 0
1, 252480, Note_on_c, 0, 53, 0
1, 252480, Note_on_c, 0, 54, 68
1, 252480, Note_on_c, 0, 49, 49
1, 252480, Note_on_c, 0, 46, 41
1, 252495, Control_c, 0, 64, 0
1, 252589, Control_c, 0, 64, 127
1, 252840, Note_on_c, 0, 54, 0
1, 252840, Note_on_c, 0, 56, 63
1, 252960, Tempo, 568720
1, 252960, Note_on_c, 0, 56, 0
1, 252960, Note_on_c, 0, 46, 0
1, 252960, Note_on_c, 0, 49, 0
1, 252960, Note_on_c, 0, 53, 72
1, 252960, Note_on_c, 0, 44, 38
1, 252960, Note_on_c, 0, 48, 45
1, 252973, Control_c, 0, 64, 0
1, 253097, Control_c, 0, 64, 127
1, 253320, Note_on_c, 0, 53, 0
1, 253320, Note_on_c, 0, 55, 67
1, 253440, Tempo, 597015
1, 253440, Note_on_c, 0, 55, 0
1, 253440, Note_on_c, 0, 48, 0
1, 253440, Note_on_c, 0, 44, 0
1, 253440, Note_on_c, 0, 52, 78
1, 253440, Note_on_c, 0, 43, 47
1, 253440, Note_on_c, 0, 46, 57
1, 253445, Control_c, 0, 64, 0
1, 253500, Control_c, 0, 64, 127
1, 253639, Control_c, 0, 64, 0
1, 253680, Note_on_c, 0, 46, 0
1, 253680, Note_on_c, 0, 43, 0
1, 253680, Note_on_c, 0, 52, 0
1, 253920, Note_on_c, 0, 73, 79
1, 253920, Note_on_c, 0, 67, 66
1, 253920, Note_on_c, 0, 70, 66
1, 253920, Note_on_c, 0, 52, 48
1, 253920, Note_on_c, 0, 61, 57
1, 253920, Note_on_c, 0, 58, 48
1, 253920, Note_on_c, 0, 55, 48
1, 253955, Control_c, 0, 64, 127
1, 254144, Control_c, 0, 64, 0
1, 254160, Note_on_c, 0, 55, 0
1, 254160, Note_on_c, 0, 61, 0
1, 254160, Note_on_c, 0, 67, 0
1, 254160, Note_on_c, 0, 70, 0
1, 254160, Note_on_c, 0, 73, 0
1, 254160, Note_on_c, 0, 58, 0
1, 254160, Note_on_c, 0, 52, 0
1, 254400, Tempo, 547945
1, 254880, Tempo, 769231
1, 254880, Note_on_c, 0, 72, 41
1, 254920, Note_on_c, 0, 72, 0
1, 254920, Note_on_c, 0, 73, 41
1, 254960, Note_on_c, 0, 73, 0
1, 254960, Note_on_c, 0, 75, 37
1, 255000, Tempo, 805369
1, 255000, Note_on_c, 0, 75, 0
1, 255000, Note_on_c, 0, 73, 47
1, 255240, Tempo, 606061
1, 255240, Note_on_c, 0, 73, 0
1, 255240, Note_on_c, 0, 72, 41
1, 255360, Tempo, 618557
1, 255360, Note_on_c, 0, 72, 0
1, 255360, Note_on_c, 0, 72, 47
1, 255360, Note_on_c, 0, 56, 35
1, 255360, Note_on_c, 0, 53, 29
1, 255360, Control_c, 0, 64, 127
1, 255600, Tempo, 550459
1, 255840, Note_on_c, 0, 53, 0
1, 255840, Note_on_c, 0, 56, 0
1, 255840, Note_on_c, 0, 72, 0
1, 255840, Note_on_c, 0, 77, 53
1, 256320, Tempo, 542986
1, 256320, Note_on_c, 0, 49, 27
1, 256320, Note_on_c, 0, 55, 32
1, 256320, Note_on_c, 0, 46, 27
1, 256327, Control_c, 0, 64, 0
1, 256440, Control_c, 0, 64, 127
1, 256480, Note_on_c, 0, 77, 0
1, 256480, Note_on_c, 0, 67, 39
1, 256640, Note_on_c, 0, 67, 0
1, 256640, Note_on_c, 0, 70, 39
1, 256800, Note_on_c, 0, 70, 0
1, 256800, Note_on_c, 0, 49, 0
1, 256800, Note_on_c, 0, 55, 0
1, 256800, Note_on_c, 0, 46, 0
1, 256800, Note_on_c, 0, 73, 44
1, 256960, Note_on_c, 0, 73, 0
1, 256960, Note_on_c, 0, 70, 38
1, 257040, Tempo, 571429
1, 257120, Note_on_c, 0, 70, 0
1, 257120, Note_on_c, 0, 67, 37
1, 257280, Tempo, 566038
1, 257280, Note_on_c, 0, 67, 0
1, 257280, Note_on_c, 0, 65, 46
1, 257280, Note_on_c, 0, 48, 29
1, 257280, Control_c, 0, 64, 0
1, 257440, Tempo, 542986
1, 257440, Note_on_c, 0, 53, 32
1, 257600, Note_on_c, 0, 53, 0
1, 257600, Note_on_c, 0, 56, 34
1, 257760, Note_on_c, 0, 56, 0
1, 257760, Note_on_c, 0, 60, 37
1, 257920, Note_on_c, 0, 60, 0
1, 257920, Note_on_c, 0, 58, 31
1, 258000, Tempo, 745342
1, 258080, Note_on_c, 0, 58, 0
1, 258080, Note_on_c, 0, 56, 28
1, 258240, Tempo, 603015
1, 258240, Note_on_c, 0, 56, 0
1, 258240, Note_on_c, 0, 65, 0
1, 258240, Note_on_c, 0, 64, 41
1, 258240, Note_on_c, 0, 55, 35
1, 258315, Control_c, 0, 64, 127
1, 258470, Tempo, 582524
1, 258480, Note_on_c, 0, 55, 0
1, 258480, Note_on_c, 0, 64, 0
1, 258480, Note_on_c, 0, 48, 0
1, 258480, Note_on_c, 0, 78, 51
1, 258485, Control_c, 0, 64, 0
1, 258528, Tempo, 579710
1, 258586, Tempo, 576923
1, 258600, Note_on_c, 0, 78, 0
1, 258600, Note_on_c, 0, 79, 53
1, 258643, Tempo, 574163
1, 258701, Tempo, 571429
1, 258720, Note_on_c, 0, 79, 0
1, 258720, Note_on_c, 0, 80, 56
1, 258758, Tempo, 568720
1, 258816, Tempo, 566038
1, 258840, Note_on_c, 0, 80, 0
1, 258840, Note_on_c, 0, 81, 58
1, 258874, Tempo, 563380
1, 258931, Tempo, 560748
1, 258960, Note_on_c, 0, 81, 0
1, 258960, Note_on_c, 0, 82, 61
1, 258989, Tempo, 558140
1, 259046, Tempo, 555556
1, 259080, Note_on_c, 0, 82, 0
1, 259080, Note_on_c, 0, 83, 63
1, 259104, Tempo, 552995
1, 259162, Tempo, 550459
1, 259200, Tempo, 1237113
1, 259200, Note_on_c, 0, 83, 0
1, 259200, Note_on_c, 0, 72, 55
1, 259200, Note_on_c, 0, 56, 51
1, 259200, Note_on_c, 0, 48, 51
1, 259200, Note_on_c, 0, 41, 43
1, 259240, Note_on_c, 0, 72, 0
1, 259240, Note_on_c, 0, 77, 60
1, 259280, Note_on_c, 0, 77, 0
1, 259280, Note_on_c, 0, 80, 66
1, 259281, Control_c, 0, 64, 127
1, 259320, Tempo, 547945
1, 259320, Note_on_c, 0, 80, 0
1, 259320, Note_on_c, 0, 84, 75
1, 260040, Tempo, 594059
1, 260040, Note_on_c, 0, 84, 0
1, 260040, Note_on_c, 0, 82, 47
1, 260160, Tempo, 538117
1, 260160, Note_on_c, 0, 82, 0
1, 260160, Note_on_c, 0, 80, 60
1, 260167, Control_c, 0, 64, 0
1, 260245, Control_c, 0, 64, 127
1, 260280, Tempo, 504202
1, 260520, Tempo, 530973
1, 260520, Note_on_c, 0, 80, 0
1, 260520, Note_on_c, 0, 92, 60
1, 260640, Tempo, 517241
1, 260640, Note_on_c, 0, 92, 0
1, 260640, Note_on_c, 0, 56, 0
1, 260640, Note_on_c, 0, 79, 60
1, 260640, Note_on_c, 0, 43, 36
1, 260640, Note_on_c, 0, 52, 43
1, 260654, Control_c, 0, 64, 0
1, 260753, Control_c, 0, 64, 127
1, 260760, Tempo, 502092
1, 261000, Tempo, 533333
1, 261000, Note_on_c, 0, 79, 0
1, 261000, Note_on_c, 0, 91, 58
1, 261120, Tempo, 530973
1, 261120, Note_on_c, 0, 91, 0
1, 261120, Note_on_c, 0, 52, 0
1, 261120, Note_on_c, 0, 43, 0
1, 261120, Note_on_c, 0, 48, 0
1, 261120, Note_on_c, 0, 77, 60
1, 261120, Note_on_c, 0, 53, 43
1, 261120, Note_on_c, 0, 44, 43
1, 261130, Control_c, 0, 64, 0
1, 261192, Control_c, 0, 64, 127
1, 261240, Tempo, 508475
1, 261480, Tempo, 530973
1, 261480, Note_on_c, 0, 77, 0
1, 261480, Note_on_c, 0, 89, 58
1, 261600, Tempo, 528634
1, 261600, Note_on_c, 0, 89, 0
1, 261600, Note_on_c, 0, 44, 0
1, 261600, Note_on_c, 0, 75, 62
1, 261600, Note_on_c, 0, 45, 39
1, 261612, Control_c, 0, 64, 0
1, 261712, Control_c, 0, 64, 127
1, 261720, Tempo, 508475
1, 261960, Tempo, 530973
1, 261960, Note_on_c, 0, 75, 0
1, 261960, Note_on_c, 0, 87, 68
1, 262080, Tempo, 535714
1, 262080, Note_on_c, 0, 87, 0
1, 262080, Note_on_c, 0, 45, 0
1, 262080, Note_on_c, 0, 73, 60
1, 262080, Note_on_c, 0, 43, 43
1, 262090, Control_c, 0, 64, 0
1, 262152, Control_c, 0, 64, 127
1, 262200, Tempo, 510638
1, 262440, Tempo, 535714
1, 262440, Note_on_c, 0, 73, 0
1, 262440, Note_on_c, 0, 85, 65
1, 262560, Tempo, 530973
1, 262560, Note_on_c, 0, 85, 0
1, 262560, Note_on_c, 0, 43, 0
1, 262560, Note_on_c, 0, 72, 60
1, 262560, Note_on_c, 0, 45, 40
1, 262574, Control_c, 0, 64, 0
1, 262632, Control_c, 0, 64, 127
1, 262680, Tempo, 512821
1, 262920, Tempo, 535714
1, 262920, Note_on_c, 0, 72, 0
1, 262920, Note_on_c, 0, 84, 61
1, 263040, Tempo, 495868
1, 263040, Note_on_c, 0, 84, 0
1, 263040, Note_on_c, 0, 45, 0
1, 263040, Note_on_c, 0, 70, 60
1, 263040, Note_on_c, 0, 49, 44
1, 263047, Control_c, 0, 64, 0
1, 263137, Control_c, 0, 64, 127
1, 263160, Tempo, 517241
1, 263160, Note_on_c, 0, 70, 0
1, 263166, Note_on_c, 0, 82, 52
1, 263280, Tempo, 495868
1, 263280, Note_on_c, 0, 41, 0
1, 263280, Note_on_c, 0, 49, 0
1, 263280, Note_on_c, 0, 53, 0
1, 263280, Note_on_c, 0, 70, 52
1, 263280, Note_on_c, 0, 49, 32
1, 263280, Note_on_c, 0, 53, 37
1, 263286, Note_on_c, 0, 82, 0
1, 263400, Tempo, 517241
1, 263400, Note_on_c, 0, 70, 0
1, 263400, Note_on_c, 0, 49, 0
1, 263400, Note_on_c, 0, 53, 0
1, 263400, Note_on_c, 0, 82, 47
1, 263520, Tempo, 495868
1, 263520, Note_on_c, 0, 82, 0
1, 263520, Note_on_c, 0, 68, 63
1, 263520, Note_on_c, 0, 48, 32
1, 263520, Note_on_c, 0, 51, 41
1, 263533, Control_c, 0, 64, 0
1, 263640, Tempo, 517241
1, 263640, Note_on_c, 0, 51, 0
1, 263640, Note_on_c, 0, 48, 0
1, 263640, Note_on_c, 0, 68, 0
1, 263640, Note_on_c, 0, 80, 56
1, 263640, Control_c, 0, 64, 127
1, 263760, Tempo, 500000
1, 263760, Note_on_c, 0, 80, 0
1, 263760, Note_on_c, 0, 68, 57
1, 263760, Note_on_c, 0, 48, 36
1, 263760, Note_on_c, 0, 51, 44
1, 263880, Tempo, 519481
1, 263880, Note_on_c, 0, 51, 0
1, 263880, Note_on_c, 0, 48, 0
1, 263880, Note_on_c, 0, 68, 0
1, 263880, Note_on_c, 0, 80, 60
1, 264000, Tempo, 506329
1, 264000, Note_on_c, 0, 80, 0
1, 264000, Note_on_c, 0, 66, 68
1, 264000, Note_on_c, 0, 46, 39
1, 264000, Note_on_c, 0, 49, 47
1, 264014, Control_c, 0, 64, 0
1, 264115, Control_c, 0, 64, 127
1, 264120, Tempo, 530973
1, 264120, Note_on_c, 0, 49, 0
1, 264120, Note_on_c, 0, 46, 0
1, 264120, Note_on_c, 0, 66, 0
1, 264120, Note_on_c, 0, 78, 62
1, 264240, Tempo, 515021
1, 264240, Note_on_c, 0, 78, 0
1, 264240, Note_on_c, 0, 66, 63
1, 264240, Note_on_c, 0, 49, 51
1, 264240, Note_on_c, 0, 46, 43
1, 264360, Tempo, 538117
1, 264360, Note_on_c, 0, 46, 0
1, 264360, Note_on_c, 0, 49, 0
1, 264360, Note_on_c, 0, 66, 0
1, 264360, Note_on_c, 0, 78, 58
1, 264480, Tempo, 568720
1, 264480, Note_on_c, 0, 78, 0
1, 264480, Note_on_c, 0, 65, 72
1, 264480, Note_on_c, 0, 48, 41
1, 264480, Note_on_c, 0, 44, 41
1, 264480, Note_on_c, 0, 49, 55
1, 264494, Control_c, 0, 64, 0
1, 264583, Control_c, 0, 64, 127
1, 264600, Note_on_c, 0, 49, 0
1, 264600, Note_on_c, 0, 65, 0
1, 264600, Note_on_c, 0, 48, 0
1, 264600, Note_on_c, 0, 44, 0
1, 264600, Note_on_c, 0, 77, 65
1, 264720, Note_on_c, 0, 77, 0
1, 264720, Note_on_c, 0, 65, 67
1, 264720, Note_on_c, 0, 48, 44
1, 264720, Note_on_c, 0, 49, 60
1, 264720, Note_on_c, 0, 44, 44
1, 264840, Note_on_c, 0, 44, 0
1, 264840, Note_on_c, 0, 65, 0
1, 264840, Note_on_c, 0, 48, 0
1, 264840, Note_on_c, 0, 49, 0
1, 264840, Note_on_c, 0, 77, 62
1, 264960, Tempo, 597015
1, 264960, Note_on_c, 0, 77, 0
1, 264960, Note_on_c, 0, 76, 83
1, 264960, Note_on_c, 0, 64, 70
1, 264960, Note_on_c, 0, 43, 51
1, 264960, Note_on_c, 0, 49, 64
1, 264960, Note_on_c, 0, 46, 54
1, 264960, Control_c, 0, 64, 0
1, 265030, Control_c, 0, 64, 127
1, 265184, Control_c, 0, 64, 0
1, 265200, Note_on_c, 0, 46, 0
1, 265200, Note_on_c, 0, 43, 0
1, 265200, Note_on_c, 0, 76, 0
1, 265200, Note_on_c, 0, 64, 0
1, 265200, Note_on_c, 0, 49, 0
1, 265440, Note_on_c, 0, 85, 90
1, 265440, Note_on_c, 0, 82, 75
1, 265440, Note_on_c, 0, 79, 75
1, 265440, Note_on_c, 0, 58, 55
1, 265440, Note_on_c, 0, 55, 55
1, 265440, Note_on_c, 0, 52, 55
1, 265440, Note_on_c, 0, 61, 65
1, 265478, Control_c, 0, 64, 127
1, 265680, Note_on_c, 0, 61, 0
1, 265680, Note_on_c, 0, 55, 0
1, 265680, Note_on_c, 0, 82, 0
1, 265680, Note_on_c, 0, 79, 0
1, 265680, Note_on_c, 0, 85, 0
1, 265680, Note_on_c, 0, 52, 0
1, 265680, Note_on_c, 0, 58, 0
1, 265683, Control_c, 0, 64, 0
1, 265920, Tempo, 547945
1, 266400, Tempo, 769231
1, 266400, Note_on_c, 0, 72, 41
1, 266440, Note_on_c, 0, 72, 0
1, 266440, Note_on_c, 0, 73, 41
1, 266480, Note_on_c, 0, 73, 0
1, 266480, Note_on_c, 0, 75, 38
1, 266520, Tempo, 805369
1, 266520, Note_on_c, 0, 75, 0
1, 266520, Note_on_c, 0, 73, 47
1, 266760, Tempo, 606061
1, 266760, Note_on_c, 0, 73, 0
1, 266760, Note_on_c, 0, 72, 41
1, 266880, Tempo, 591133
1, 266880, Note_on_c, 0, 72, 0
1, 266880, Note_on_c, 0, 72, 46
1, 266880, Note_on_c, 0, 56, 35
1, 266880, Note_on_c, 0, 53, 29
1, 266916, Control_c, 0, 64, 127
1, 267040, Note_on_c, 0, 72, 0
1, 267040, Note_on_c, 0, 80, 53
1, 267120, Tempo, 560748
1, 267200, Note_on_c, 0, 80, 0
1, 267200, Note_on_c, 0, 79, 47
1, 267360, Note_on_c, 0, 79, 0
1, 267360, Note_on_c, 0, 53, 0
1, 267360, Note_on_c, 0, 56, 0
1, 267360, Note_on_c, 0, 77, 47
1, 267520, Note_on_c, 0, 77, 0
1, 267520, Note_on_c, 0, 72, 43
1, 267680, Note_on_c, 0, 72, 0
1, 267680, Note_on_c, 0, 68, 43
1, 267840, Tempo, 588235
1, 267840, Note_on_c, 0, 68, 0
1, 267840, Note_on_c, 0, 67, 47
1, 267840, Note_on_c, 0, 55, 32
1, 267840, Note_on_c, 0, 46, 27
1, 267840, Note_on_c, 0, 49, 27
1, 267855, Control_c, 0, 64, 0
1, 267967, Control_c, 0, 64, 127
1, 268000, Note_on_c, 0, 67, 0
1, 268000, Note_on_c, 0, 75, 52
1, 268080, Tempo, 545455
1, 268160, Note_on_c, 0, 75, 0
1, 268160, Note_on_c, 0, 72, 39
1, 268320, Note_on_c, 0, 72, 0
1, 268320, Note_on_c, 0, 55, 0
1, 268320, Note_on_c, 0, 46, 0
1, 268320, Note_on_c, 0, 49, 0
1, 268320, Note_on_c, 0, 73, 44
1, 268331, Control_c, 0, 64, 0
1, 268384, Control_c, 0, 64, 127
1, 268480, Note_on_c, 0, 73, 0
1, 268480, Note_on_c, 0, 70, 38
1, 268560, Tempo, 571429
1, 268640, Note_on_c, 0, 70, 0
1, 268640, Note_on_c, 0, 67, 37
1, 268800, Tempo, 566038
1, 268800, Note_on_c, 0, 67, 0
1, 268800, Note_on_c, 0, 65, 53
1, 268800, Note_on_c, 0, 53, 35
1, 268800, Note_on_c, 0, 48, 35
1, 268800, Note_on_c, 0, 56, 43
1, 268804, Control_c, 0, 64, 0
1, 268874, Control_c, 0, 64, 127
1, 268960, Tempo, 542986
1, 268960, Note_on_c, 0, 65, 0
1, 268960, Note_on_c, 0, 60, 48
1, 269040, Note_on_c, 0, 53, 0
1, 269040, Note_on_c, 0, 56, 0
1, 269040, Note_on_c, 0, 48, 0
1, 269120, Note_on_c, 0, 60, 0
1, 269120, Note_on_c, 0, 65, 49
1, 269280, Tempo, 530973
1, 269280, Note_on_c, 0, 65, 0
1, 269280, Note_on_c, 0, 68, 58
1, 269280, Note_on_c, 0, 56, 54
1, 269440, Tempo, 540541
1, 269440, Note_on_c, 0, 56, 0
1, 269440, Note_on_c, 0, 68, 0
1, 269440, Note_on_c, 0, 65, 50
1, 269440, Note_on_c, 0, 53, 46
1, 269600, Tempo, 566038
1, 269600, Note_on_c, 0, 53, 0
1, 269600, Note_on_c, 0, 65, 0
1, 269600, Note_on_c, 0, 73, 51
1, 269600, Note_on_c, 0, 61, 48
1, 269760, Tempo, 606061
1, 269760, Note_on_c, 0, 61, 0
1, 269760, Note_on_c, 0, 73, 0
1, 269760, Note_on_c, 0, 72, 66
1, 269760, Note_on_c, 0, 60, 54
1, 269766, Control_c, 0, 64, 0
1, 269817, Control_c, 0, 64, 127
1, 269965, Control_c, 0, 64, 0
1, 270000, Note_on_c, 0, 60, 0
1, 270000, Note_on_c, 0, 72, 0
1, 270240, Tempo, 603015
1, 270240, Note_on_c, 0, 76, 78
1, 270240, Note_on_c, 0, 72, 66
1, 270240, Note_on_c, 0, 67, 66
1, 270240, Note_on_c, 0, 60, 60
1, 270240, Note_on_c, 0, 48, 50
1, 270310, Control_c, 0, 64, 127
1, 270420, Note_on_c, 0, 48, 0
1, 270420, Note_on_c, 0, 67, 0
1, 270420, Note_on_c, 0, 76, 0
1, 270420, Note_on_c, 0, 72, 0
1, 270420, Note_on_c, 0, 60, 0
1, 270491, Control_c, 0, 64, 0
1, 270720, Tempo, 615385
1, 270720, Note_on_c, 0, 68, 66
1, 270720, Note_on_c, 0, 72, 66
1, 270720, Note_on_c, 0, 77, 78
1, 270720, Note_on_c, 0, 53, 60
1, 270720, Note_on_c, 0, 41, 50
1, 270773, Control_c, 0, 64, 127
1, 270886, Control_c, 0, 64, 0
1, 270900, Note_on_c, 0, 41, 0
1, 270900, Note_on_c, 0, 77, 0
1, 270900, Note_on_c, 0, 68, 0
1, 270900, Note_on_c, 0, 72, 0
1, 270900, Note_on_c, 0, 53, 0
1, 270960, Tempo, 478088
1, 270960, Note_on_c, 0, 68, 45
1, 270981, Control_c, 0, 64, 127
1, 271080, Note_on_c, 0, 68, 0
1, 271080, Note_on_c, 0, 72, 28
1, 271188, Tempo, 478088
1, 271200, Note_on_c, 0, 72, 0
1, 271200, Note_on_c, 0, 68, 39
1, 271200, Note_on_c, 0, 53, 22
1, 271200, Note_on_c, 0, 65, 27
1, 271212, Tempo, 476190
1, 271224, Tempo, 474308
1, 271236, Tempo, 472441
1, 271248, Tempo, 470588
1, 271320, Note_on_c, 0, 68, 0
1, 271320, Note_on_c, 0, 72, 28
1, 271332, Tempo, 481928
1, 271344, Tempo, 485830
1, 271356, Tempo, 483871
1, 271368, Tempo, 481928
1, 271380, Tempo, 480000
1, 271392, Tempo, 478088
1, 271404, Tempo, 476190
1, 271416, Tempo, 474308
1, 271440, Tempo, 476190
1, 271440, Note_on_c, 0, 72, 0
1, 271440, Note_on_c, 0, 68, 38
1, 271560, Tempo, 493827
1, 271560, Note_on_c, 0, 68, 0
1, 271560, Note_on_c, 0, 72, 31
1, 271680, Tempo, 476190
1, 271680, Note_on_c, 0, 72, 0
1, 271680, Note_on_c, 0, 65, 0
1, 271680, Note_on_c, 0, 53, 0
1, 271680, Note_on_c, 0, 67, 45
1, 271686, Control_c, 0, 64, 0
1, 271692, Tempo, 474308
1, 271716, Tempo, 472441
1, 271728, Tempo, 470588
1, 271740, Tempo, 466926
1, 271800, Note_on_c, 0, 67, 0
1, 271800, Note_on_c, 0, 71, 30
1, 271812, Tempo, 468750
1, 271824, Tempo, 470588
1, 271836, Tempo, 472441
1, 271848, Tempo, 476190
1, 271860, Tempo, 483871
1, 271872, Tempo, 478088
1, 271896, Tempo, 474308
1, 271920, Tempo, 468750
1, 271920, Note_on_c, 0, 71, 0
1, 271920, Note_on_c, 0, 68, 45
1, 271932, Tempo, 466926
1, 271941, Control_c, 0, 64, 0
1, 271944, Tempo, 465116
1, 272040, Tempo, 466926
1, 272040, Note_on_c, 0, 68, 0
1, 272040, Note_on_c, 0, 72, 32
1, 272064, Tempo, 470588
1, 272076, Tempo, 472441
1, 272088, Tempo, 483871
1, 272160, Note_on_c, 0, 72, 0
1, 272160, Note_on_c, 0, 68, 39
1, 272160, Note_on_c, 0, 65, 27
1, 272160, Note_on_c, 0, 53, 22
1, 272184, Tempo, 481928
1, 272196, Tempo, 478088
1, 272208, Tempo, 474308
1, 272220, Tempo, 470588
1, 272232, Tempo, 468750
1, 272256, Control_c, 0, 64, 127
1, 272256, Tempo, 470588
1, 272280, Tempo, 474308
1, 272280, Note_on_c, 0, 68, 0
1, 272280, Note_on_c, 0, 72, 27
1, 272292, Tempo, 476190
1, 272304, Tempo, 478088
1, 272388, Tempo, 476190
1, 272400, Tempo, 474308
1, 272400, Note_on_c, 0, 72, 0
1, 272400, Note_on_c, 0, 68, 40
1, 272412, Tempo, 472441
1, 272424, Tempo, 470588
1, 272460, Tempo, 474308
1, 272520, Tempo, 515021
1, 272520, Note_on_c, 0, 68, 0
1, 272520, Note_on_c, 0, 72, 30
1, 272640, Tempo, 472441
1, 272640, Note_on_c, 0, 72, 0
1, 272640, Note_on_c, 0, 53, 0
1, 272640, Note_on_c, 0, 65, 0
1, 272640, Note_on_c, 0, 69, 45
1, 272640, Control_c, 0, 64, 0
1, 272760, Note_on_c, 0, 69, 0
1, 272760, Note_on_c, 0, 75, 31
1, 272880, Tempo, 470588
1, 272880, Note_on_c, 0, 75, 0
1, 272880, Note_on_c, 0, 70, 38
1, 273000, Note_on_c, 0, 70, 0
1, 273000, Note_on_c, 0, 73, 30
1, 273120, Note_on_c, 0, 73, 0
1, 273120, Note_on_c, 0, 70, 38
1, 273120, Note_on_c, 0, 53, 22
1, 273120, Note_on_c, 0, 65, 27
1, 273128, Control_c, 0, 64, 0
1, 273132, Tempo, 470588
1, 273156, Tempo, 468750
1, 273168, Tempo, 466926
1, 273180, Tempo, 465116
1, 273200, Control_c, 0, 64, 127
1, 273204, Tempo, 463320
1, 273240, Tempo, 465116
1, 273240, Note_on_c, 0, 70, 0
1, 273240, Note_on_c, 0, 73, 31
1, 273264, Tempo, 474308
1, 273276, Tempo, 476190
1, 273324, Tempo, 470588
1, 273336, Tempo, 466926
1, 273360, Note_on_c, 0, 73, 0
1, 273360, Note_on_c, 0, 70, 33
1, 273420, Tempo, 468750
1, 273432, Tempo, 470588
1, 273444, Tempo, 472441
1, 273456, Tempo, 468750
1, 273480, Tempo, 526316
1, 273480, Note_on_c, 0, 70, 0
1, 273480, Note_on_c, 0, 73, 28
1, 273600, Tempo, 468750
1, 273600, Note_on_c, 0, 73, 0
1, 273600, Note_on_c, 0, 65, 0
1, 273600, Note_on_c, 0, 53, 0
1, 273600, Note_on_c, 0, 73, 47
1, 273663, Control_c, 0, 64, 0
1, 273720, Note_on_c, 0, 73, 0
1, 273720, Note_on_c, 0, 77, 38
1, 273743, Control_c, 0, 64, 127
1, 273840, Note_on_c, 0, 77, 0
1, 273840, Note_on_c, 0, 70, 45
1, 273960, Note_on_c, 0, 70, 0
1, 273960, Note_on_c, 0, 73, 32
1, 274080, Note_on_c, 0, 73, 0
1, 274080, Note_on_c, 0, 68, 40
1, 274080, Note_on_c, 0, 65, 27
1, 274080, Note_on_c, 0, 53, 22
1, 274099, Control_c, 0, 64, 0
1, 274200, Note_on_c, 0, 68, 0
1, 274200, Note_on_c, 0, 73, 31
1, 274320, Tempo, 483871
1, 274320, Note_on_c, 0, 73, 0
1, 274320, Note_on_c, 0, 67, 37
1, 274440, Note_on_c, 0, 67, 0
1, 274440, Note_on_c, 0, 73, 31
1, 274560, Tempo, 468750
1, 274560, Note_on_c, 0, 73, 0
1, 274560, Note_on_c, 0, 53, 0
1, 274560, Note_on_c, 0, 65, 0
1, 274560, Note_on_c, 0, 68, 45
1, 274572, Tempo, 466926
1, 274584, Tempo, 463320
1, 274596, Tempo, 461538
1, 274632, Tempo, 459770
1, 274680, Note_on_c, 0, 68, 0
1, 274680, Note_on_c, 0, 75, 30
1, 274692, Tempo, 461538
1, 274704, Tempo, 463320
1, 274709, Control_c, 0, 64, 127
1, 274716, Tempo, 465116
1, 274728, Tempo, 466926
1, 274740, Tempo, 468750
1, 274752, Tempo, 470588
1, 274764, Tempo, 472441
1, 274776, Tempo, 474308
1, 274800, Tempo, 465116
1, 274800, Note_on_c, 0, 75, 0
1, 274800, Note_on_c, 0, 68, 36
1, 274920, Note_on_c, 0, 68, 0
1, 274920, Note_on_c, 0, 72, 27
1, 274980, Tempo, 466926
1, 275004, Tempo, 472441
1, 275028, Tempo, 463320
1, 275040, Note_on_c, 0, 72, 0
1, 275040, Note_on_c, 0, 68, 38
1, 275040, Note_on_c, 0, 53, 22
1, 275040, Note_on_c, 0, 65, 27
1, 275052, Tempo, 466926
1, 275076, Tempo, 468750
1, 275088, Tempo, 470588
1, 275148, Tempo, 472441
1, 275160, Note_on_c, 0, 68, 0
1, 275160, Note_on_c, 0, 72, 31
1, 275220, Tempo, 470588
1, 275244, Tempo, 468750
1, 275268, Tempo, 466926
1, 275280, Note_on_c, 0, 72, 0
1, 275280, Note_on_c, 0, 68, 33
1, 275364, Tempo, 465116
1, 275388, Tempo, 463320
1, 275400, Note_on_c, 0, 68, 0
1, 275400, Note_on_c, 0, 72, 28
1, 275436, Tempo, 465116
1, 275520, Tempo, 474308
1, 275520, Note_on_c, 0, 72, 0
1, 275520, Note_on_c, 0, 65, 0
1, 275520, Note_on_c, 0, 53, 0
1, 275520, Note_on_c, 0, 68, 47
1, 275520, Note_on_c, 0, 46, 27
1, 275530, Control_c, 0, 64, 0
1, 275640, Note_on_c, 0, 68, 0
1, 275640, Note_on_c, 0, 72, 30
1, 275640, Control_c, 0, 64, 127
1, 275712, Tempo, 476190
1, 275736, Tempo, 474308
1, 275748, Tempo, 472441
1, 275760, Note_on_c, 0, 72, 0
1, 275760, Note_on_c, 0, 46, 0
1, 275760, Note_on_c, 0, 66, 35
1, 275760, Control_c, 0, 64, 0
1, 275784, Tempo, 470588
1, 275844, Tempo, 476190
1, 275856, Tempo, 478088
1, 275880, Note_on_c, 0, 66, 0
1, 275880, Note_on_c, 0, 70, 31
1, 275916, Tempo, 481928
1, 275928, Tempo, 480000
1, 275940, Tempo, 478088
1, 275952, Tempo, 474308
1, 275964, Tempo, 470588
1, 275988, Tempo, 468750
1, 276000, Tempo, 466926
1, 276000, Note_on_c, 0, 70, 0
1, 276000, Note_on_c, 0, 66, 40
1, 276000, Note_on_c, 0, 54, 22
1, 276000, Note_on_c, 0, 58, 27
1, 276048, Tempo, 474308
1, 276120, Note_on_c, 0, 66, 0
1, 276120, Note_on_c, 0, 70, 28
1, 276192, Tempo, 472441
1, 276228, Tempo, 474308
1, 276240, Tempo, 476190
1, 276240, Note_on_c, 0, 70, 0
1, 276240, Note_on_c, 0, 58, 0
1, 276240, Note_on_c, 0, 54, 0
1, 276240, Note_on_c, 0, 66, 36
1, 276312, Tempo, 474308
1, 276360, Tempo, 519481
1, 276360, Note_on_c, 0, 66, 0
1, 276360, Note_on_c, 0, 70, 29
1, 276480, Tempo, 476190
1, 276480, Note_on_c, 0, 70, 0
1, 276480, Note_on_c, 0, 66, 45
1, 276480, Note_on_c, 0, 48, 27
1, 276504, Tempo, 474308
1, 276516, Tempo, 472441
1, 276528, Tempo, 470588
1, 276540, Tempo, 468750
1, 276552, Tempo, 466926
1, 276595, Control_c, 0, 64, 127
1, 276600, Note_on_c, 0, 66, 0
1, 276600, Note_on_c, 0, 70, 27
1, 276624, Tempo, 468750
1, 276660, Tempo, 480000
1, 276684, Tempo, 481928
1, 276720, Tempo, 483871
1, 276720, Note_on_c, 0, 70, 0
1, 276720, Note_on_c, 0, 48, 0
1, 276720, Note_on_c, 0, 65, 34
1, 276735, Control_c, 0, 64, 0
1, 276768, Tempo, 481928
1, 276780, Tempo, 480000
1, 276816, Tempo, 476190
1, 276840, Tempo, 474308
1, 276840, Note_on_c, 0, 65, 0
1, 276840, Note_on_c, 0, 68, 27
1, 276864, Tempo, 472441
1, 276900, Tempo, 470588
1, 276936, Tempo, 468750
1, 276960, Note_on_c, 0, 68, 0
1, 276960, Note_on_c, 0, 65, 36
1, 276960, Note_on_c, 0, 56, 27
1, 276960, Note_on_c, 0, 53, 22
1, 276984, Tempo, 465116
1, 276996, Tempo, 474308
1, 277008, Tempo, 478088
1, 277075, Control_c, 0, 64, 127
1, 277080, Note_on_c, 0, 65, 0
1, 277080, Note_on_c, 0, 68, 27
1, 277092, Tempo, 470588
1, 277152, Tempo, 474308
1, 277200, Note_on_c, 0, 68, 0
1, 277200, Note_on_c, 0, 53, 0
1, 277200, Note_on_c, 0, 56, 0
1, 277200, Note_on_c, 0, 65, 32
1, 277211, Control_c, 0, 64, 0
1, 277320, Tempo, 519481
1, 277320, Note_on_c, 0, 65, 0
1, 277320, Note_on_c, 0, 68, 28
1, 277440, Tempo, 478088
1, 277440, Note_on_c, 0, 68, 0
1, 277440, Note_on_c, 0, 65, 45
1, 277440, Note_on_c, 0, 48, 27
1, 277452, Tempo, 480000
1, 277476, Tempo, 478088
1, 277488, Tempo, 476190
1, 277500, Tempo, 474308
1, 277524, Tempo, 472441
1, 277532, Control_c, 0, 64, 127
1, 277536, Tempo, 470588
1, 277548, Tempo, 468750
1, 277560, Note_on_c, 0, 65, 0
1, 277560, Note_on_c, 0, 68, 27
1, 277584, Tempo, 470588
1, 277596, Tempo, 472441
1, 277608, Tempo, 476190
1, 277620, Tempo, 478088
1, 277632, Tempo, 480000
1, 277656, Tempo, 483871
1, 277680, Tempo, 481928
1, 277680, Note_on_c, 0, 68, 0
1, 277680, Note_on_c, 0, 48, 0
1, 277680, Note_on_c, 0, 64, 33
1, 277692, Tempo, 480000
1, 277697, Control_c, 0, 64, 0
1, 277704, Tempo, 478088
1, 277716, Tempo, 476190
1, 277776, Tempo, 474308
1, 277788, Tempo, 472441
1, 277800, Tempo, 470588
1, 277800, Note_on_c, 0, 64, 0
1, 277800, Note_on_c, 0, 67, 27
1, 277824, Tempo, 474308
1, 277836, Tempo, 476190
1, 277848, Tempo, 481928
1, 277860, Tempo, 483871
1, 277908, Tempo, 474308
1, 277920, Tempo, 472441
1, 277920, Note_on_c, 0, 67, 0
1, 277920, Note_on_c, 0, 64, 39
1, 277920, Note_on_c, 0, 55, 27
1, 277920, Note_on_c, 0, 52, 22
1, 277932, Tempo, 470588
1, 277956, Tempo, 468750
1, 278028, Tempo, 470588
1, 278029, Control_c, 0, 64, 127
1, 278040, Tempo, 472441
1, 278040, Note_on_c, 0, 64, 0
1, 278040, Note_on_c, 0, 67, 28
1, 278052, Tempo, 476190
1, 278064, Tempo, 478088
1, 278076, Tempo, 480000
1, 278148, Tempo, 474308
1, 278160, Note_on_c, 0, 67, 0
1, 278160, Note_on_c, 0, 52, 0
1, 278160, Note_on_c, 0, 55, 0
1, 278160, Note_on_c, 0, 64, 36
1, 278172, Tempo, 472441
1, 278220, Tempo, 476190
1, 278280, Note_on_c, 0, 64, 0
1, 278280, Note_on_c, 0, 67, 29
1, 278400, Key_signature, -1, "major"
1, 278400, Tempo, 535714
1, 278400, Note_on_c, 0, 67, 0
1, 278400, Note_on_c, 0, 65, 54
1, 278400, Note_on_c, 0, 41, 40
1, 278414, Control_c, 0, 64, 0
1, 278640, Tempo, 476190
1, 278640, Note_on_c, 0, 41, 0
1, 278640, Note_on_c, 0, 65, 0
1, 278640, Note_on_c, 0, 69, 45
1, 278661, Control_c, 0, 64, 127
1, 278664, Tempo, 470588
1, 278748, Tempo, 472441
1, 278760, Tempo, 474308
1, 278760, Note_on_c, 0, 69, 0
1, 278760, Note_on_c, 0, 72, 28
1, 278784, Tempo, 478088
1, 278844, Tempo, 470588
1, 278880, Note_on_c, 0, 72, 0
1, 278880, Note_on_c, 0, 69, 39
1, 278880, Note_on_c, 0, 53, 22
1, 278880, Note_on_c, 0, 65, 27
1, 278916, Tempo, 472441
1, 278940, Tempo, 476190
1, 278952, Tempo, 478088
1, 278964, Tempo, 480000
1, 279000, Tempo, 483871
1, 279000, Note_on_c, 0, 69, 0
1, 279000, Note_on_c, 0, 72, 28
1, 279024, Tempo, 487805
1, 279048, Tempo, 476190
1, 279060, Tempo, 474308
1, 279072, Tempo, 472441
1, 279120, Note_on_c, 0, 72, 0
1, 279120, Note_on_c, 0, 69, 38
1, 279156, Tempo, 476190
1, 279180, Tempo, 480000
1, 279192, Tempo, 478088
1, 279204, Tempo, 480000
1, 279240, Tempo, 493827
1, 279240, Note_on_c, 0, 69, 0
1, 279240, Note_on_c, 0, 72, 31
1, 279360, Tempo, 478088
1, 279360, Note_on_c, 0, 72, 0
1, 279360, Note_on_c, 0, 65, 0
1, 279360, Note_on_c, 0, 53, 0
1, 279360, Note_on_c, 0, 68, 45
1, 279366, Control_c, 0, 64, 0
1, 279396, Tempo, 476190
1, 279420, Tempo, 474308
1, 279444, Tempo, 472441
1, 279480, Note_on_c, 0, 68, 0
1, 279480, Note_on_c, 0, 71, 30
1, 279540, Tempo, 466926
1, 279552, Tempo, 468750
1, 279564, Tempo, 470588
1, 279576, Tempo, 472441
1, 279600, Tempo, 476190
1, 279600, Note_on_c, 0, 71, 0
1, 279600, Note_on_c, 0, 69, 45
1, 279612, Tempo, 474308
1, 279636, Tempo, 472441
1, 279648, Tempo, 470588
1, 279672, Tempo, 468750
1, 279684, Tempo, 466926
1, 279708, Tempo, 468750
1, 279720, Tempo, 470588
1, 279720, Note_on_c, 0, 69, 0
1, 279720, Note_on_c, 0, 72, 32
1, 279732, Tempo, 472441
1, 279744, Tempo, 474308
1, 279756, Tempo, 476190
1, 279768, Tempo, 478088
1, 279780, Tempo, 480000
1, 279792, Tempo, 481928
1, 279804, Tempo, 483871
1, 279816, Tempo, 474308
1, 279828, Tempo, 468750
1, 279840, Note_on_c, 0, 72, 0
1, 279840, Note_on_c, 0, 69, 39
1, 279840, Note_on_c, 0, 65, 27
1, 279840, Note_on_c, 0, 53, 22
1, 279850, Control_c, 0, 64, 0
1, 279864, Tempo, 466926
1, 279936, Control_c, 0, 64, 127
1, 279936, Tempo, 470588
1, 279948, Tempo, 476190
1, 279960, Tempo, 478088
1, 279960, Note_on_c, 0, 69, 0
1, 279960, Note_on_c, 0, 72, 27
1, 279972, Tempo, 480000
1, 280044, Tempo, 481928
1, 280080, Note_on_c, 0, 72, 0
1, 280080, Note_on_c, 0, 69, 40
1, 280116, Tempo, 474308
1, 280140, Tempo, 472441
1, 280200, Tempo, 515021
1, 280200, Note_on_c, 0, 69, 0
1, 280200, Note_on_c, 0, 72, 30
1, 280320, Tempo, 472441
1, 280320, Note_on_c, 0, 72, 0
1, 280320, Note_on_c, 0, 53, 0
1, 280320, Note_on_c, 0, 65, 0
1, 280320, Note_on_c, 0, 69, 45
1, 280320, Control_c, 0, 64, 0
1, 280372, Control_c, 0, 64, 127
1, 280440, Note_on_c, 0, 69, 0
1, 280440, Note_on_c, 0, 75, 31
1, 280549, Control_c, 0, 64, 0
1, 280560, Tempo, 466926
1, 280560, Note_on_c, 0, 75, 0
1, 280560, Note_on_c, 0, 70, 38
1, 280584, Tempo, 465116
1, 280596, Tempo, 463320
1, 280656, Tempo, 461538
1, 280680, Note_on_c, 0, 70, 0
1, 280680, Note_on_c, 0, 74, 30
1, 280704, Tempo, 470588
1, 280716, Tempo, 472441
1, 280740, Tempo, 466926
1, 280752, Tempo, 465116
1, 280764, Tempo, 463320
1, 280800, Note_on_c, 0, 74, 0
1, 280800, Note_on_c, 0, 70, 38
1, 280800, Note_on_c, 0, 53, 22
1, 280800, Note_on_c, 0, 65, 27
1, 280808, Control_c, 0, 64, 0
1, 280860, Tempo, 461538
1, 280880, Control_c, 0, 64, 127
1, 280908, Tempo, 463320
1, 280920, Tempo, 465116
1, 280920, Note_on_c, 0, 70, 0
1, 280920, Note_on_c, 0, 74, 31
1, 280932, Tempo, 466926
1, 281004, Tempo, 465116
1, 281016, Tempo, 463320
1, 281040, Tempo, 461538
1, 281040, Note_on_c, 0, 74, 0
1, 281040, Note_on_c, 0, 70, 33
1, 281052, Tempo, 465116
1, 281064, Tempo, 466926
1, 281160, Tempo, 526316
1, 281160, Note_on_c, 0, 70, 0
1, 281160, Note_on_c, 0, 74, 28
1, 281280, Tempo, 465116
1, 281280, Note_on_c, 0, 74, 0
1, 281280, Note_on_c, 0, 65, 0
1, 281280, Note_on_c, 0, 53, 0
1, 281280, Note_on_c, 0, 74, 47
1, 281292, Tempo, 465116
1, 281304, Tempo, 463320
1, 281316, Tempo, 461538
1, 281340, Tempo, 459770
1, 281343, Control_c, 0, 64, 0
1, 281352, Tempo, 458015
1, 281364, Tempo, 456274
1, 281388, Tempo, 454545
1, 281400, Note_on_c, 0, 74, 0
1, 281400, Note_on_c, 0, 77, 38
1, 281412, Tempo, 458015
1, 281423, Control_c, 0, 64, 127
1, 281436, Tempo, 459770
1, 281472, Tempo, 461538
1, 281496, Tempo, 466926
1, 281520, Tempo, 474308
1, 281520, Note_on_c, 0, 77, 0
1, 281520, Note_on_c, 0, 70, 45
1, 281556, Tempo, 468750
1, 281568, Tempo, 466926
1, 281592, Tempo, 465116
1, 281640, Tempo, 463320
1, 281640, Note_on_c, 0, 70, 0
1, 281640, Note_on_c, 0, 74, 32
1, 281700, Tempo, 461538
1, 281712, Tempo, 459770
1, 281724, Tempo, 454545
1, 281748, Tempo, 456274
1, 281760, Tempo, 458015
1, 281760, Note_on_c, 0, 74, 0
1, 281760, Note_on_c, 0, 69, 40
1, 281760, Note_on_c, 0, 53, 22
1, 281760, Note_on_c, 0, 65, 27
1, 281771, Control_c, 0, 64, 0
1, 281784, Tempo, 459770
1, 281796, Tempo, 463320
1, 281808, Tempo, 465116
1, 281820, Tempo, 468750
1, 281844, Tempo, 472441
1, 281868, Tempo, 474308
1, 281880, Tempo, 466926
1, 281880, Note_on_c, 0, 69, 0
1, 281880, Note_on_c, 0, 74, 31
1, 281892, Tempo, 465116
1, 281904, Tempo, 463320
1, 282000, Tempo, 483871
1, 282000, Note_on_c, 0, 74, 0
1, 282000, Note_on_c, 0, 68, 37
1, 282120, Note_on_c, 0, 68, 0
1, 282120, Note_on_c, 0, 74, 31
1, 282240, Tempo, 466926
1, 282240, Note_on_c, 0, 74, 0
1, 282240, Note_on_c, 0, 65, 0
1, 282240, Note_on_c, 0, 53, 0
1, 282240, Note_on_c, 0, 69, 45
1, 282240, Control_c, 0, 64, 0
1, 282276, Tempo, 465116
1, 282300, Tempo, 463320
1, 282311, Control_c, 0, 64, 127
1, 282324, Tempo, 461538
1, 282360, Tempo, 459770
1, 282360, Note_on_c, 0, 69, 0
1, 282366, Note_on_c, 0, 74, 30
1, 282372, Tempo, 463320
1, 282420, Tempo, 466926
1, 282444, Tempo, 468750
1, 282456, Tempo, 470588
1, 282466, Control_c, 0, 64, 0
1, 282480, Note_on_c, 0, 69, 36
1, 282486, Note_on_c, 0, 74, 0
1, 282528, Tempo, 466926
1, 282540, Tempo, 465116
1, 282552, Tempo, 463320
1, 282564, Tempo, 461538
1, 282588, Tempo, 459770
1, 282600, Note_on_c, 0, 69, 0
1, 282600, Note_on_c, 0, 72, 27
1, 282624, Tempo, 461538
1, 282636, Tempo, 463320
1, 282648, Tempo, 465116
1, 282660, Tempo, 470588
1, 282720, Note_on_c, 0, 72, 0
1, 282720, Note_on_c, 0, 69, 38
1, 282720, Note_on_c, 0, 53, 22
1, 282726, Note_on_c, 0, 65, 27
1, 282741, Control_c, 0, 64, 127
1, 282780, Tempo, 468750
1, 282792, Tempo, 463320
1, 282804, Tempo, 461538
1, 282828, Tempo, 459770
1, 282840, Note_on_c, 0, 69, 0
1, 282840, Note_on_c, 0, 72, 31
1, 282888, Tempo, 461538
1, 282900, Tempo, 463320
1, 282912, Tempo, 466926
1, 282936, Tempo, 468750
1, 282960, Note_on_c, 0, 72, 0
1, 282960, Note_on_c, 0, 69, 33
1, 283056, Tempo, 463320
1, 283080, Note_on_c, 0, 69, 0
1, 283080, Note_on_c, 0, 72, 28
1, 283104, Tempo, 466926
1, 283116, Tempo, 468750
1, 283140, Tempo, 466926
1, 283176, Tempo, 474308
1, 283200, Tempo, 472441
1, 283200, Note_on_c, 0, 72, 0
1, 283200, Note_on_c, 0, 53, 0
1, 283200, Note_on_c, 0, 69, 47
1, 283200, Note_on_c, 0, 46, 27
1, 283206, Note_on_c, 0, 65, 0
1, 283210, Control_c, 0, 64, 0
1, 283224, Tempo, 470588
1, 283248, Tempo, 468750
1, 283320, Tempo, 476190
1, 283320, Note_on_c, 0, 69, 0
1, 283320, Note_on_c, 0, 72, 30
1, 283320, Control_c, 0, 64, 127
1, 283392, Tempo, 472441
1, 283404, Tempo, 470588
1, 283416, Tempo, 468750
1, 283440, Note_on_c, 0, 72, 0
1, 283440, Note_on_c, 0, 46, 0
1, 283440, Note_on_c, 0, 62, 35
1, 283454, Control_c, 0, 64, 0
1, 283464, Tempo, 470588
1, 283500, Tempo, 474308
1, 283512, Tempo, 476190
1, 283560, Note_on_c, 0, 62, 0
1, 283560, Note_on_c, 0, 67, 31
1, 283608, Tempo, 472441
1, 283680, Tempo, 458015
1, 283680, Note_on_c, 0, 67, 0
1, 283680, Note_on_c, 0, 70, 50
1, 283680, Note_on_c, 0, 55, 22
1, 283680, Note_on_c, 0, 58, 27
1, 283772, Control_c, 0, 64, 127
1, 283800, Note_on_c, 0, 70, 0
1, 283800, Note_on_c, 0, 74, 34
1, 283920, Note_on_c, 0, 74, 0
1, 283920, Note_on_c, 0, 58, 0
1, 283920, Note_on_c, 0, 55, 0
1, 283920, Note_on_c, 0, 72, 43
1, 283939, Control_c, 0, 64, 0
1, 284040, Tempo, 519481
1, 284040, Note_on_c, 0, 72, 0
1, 284040, Note_on_c, 0, 70, 35
1, 284160, Tempo, 474308
1, 284160, Note_on_c, 0, 70, 0
1, 284160, Note_on_c, 0, 67, 45
1, 284160, Note_on_c, 0, 48, 27
1, 284275, Control_c, 0, 64, 127
1, 284280, Note_on_c, 0, 67, 0
1, 284280, Note_on_c, 0, 70, 27
1, 284400, Note_on_c, 0, 70, 0
1, 284400, Note_on_c, 0, 48, 0
1, 284400, Note_on_c, 0, 60, 34
1, 284420, Control_c, 0, 64, 0
1, 284520, Note_on_c, 0, 60, 0
1, 284520, Note_on_c, 0, 65, 27
1, 284640, Tempo, 459770
1, 284640, Note_on_c, 0, 65, 0
1, 284640, Note_on_c, 0, 69, 47
1, 284640, Note_on_c, 0, 53, 22
1, 284640, Note_on_c, 0, 57, 27
1, 284686, Control_c, 0, 64, 127
1, 284760, Note_on_c, 0, 69, 0
1, 284760, Note_on_c, 0, 72, 35
1, 284880, Note_on_c, 0, 72, 0
1, 284880, Note_on_c, 0, 57, 0
1, 284880, Note_on_c, 0, 53, 0
1, 284880, Note_on_c, 0, 70, 41
1, 284885, Control_c, 0, 64, 0
1, 285000, Tempo, 519481
1, 285000, Note_on_c, 0, 70, 0
1, 285000, Note_on_c, 0, 69, 36
1, 285120, Tempo, 478088
1, 285120, Note_on_c, 0, 69, 0
1, 285120, Note_on_c, 0, 66, 45
1, 285120, Note_on_c, 0, 48, 27
1, 285143, Control_c, 0, 64, 127
1, 285240, Note_on_c, 0, 66, 0
1, 285240, Note_on_c, 0, 69, 27
1, 285360, Note_on_c, 0, 69, 0
1, 285360, Note_on_c, 0, 48, 0
1, 285360, Note_on_c, 0, 60, 33
1, 285367, Control_c, 0, 64, 0
1, 285480, Note_on_c, 0, 60, 0
1, 285480, Note_on_c, 0, 64, 27
1, 285600, Tempo, 461538
1, 285600, Note_on_c, 0, 64, 0
1, 285600, Note_on_c, 0, 67, 46
1, 285600, Note_on_c, 0, 58, 27
1, 285600, Note_on_c, 0, 52, 22
1, 285629, Control_c, 0, 64, 127
1, 285720, Note_on_c, 0, 67, 0
1, 285720, Note_on_c, 0, 70, 36
1, 285840, Note_on_c, 0, 70, 0
1, 285840, Note_on_c, 0, 52, 0
1, 285840, Note_on_c, 0, 58, 0
1, 285840, Note_on_c, 0, 69, 40
1, 285855, Control_c, 0, 64, 0
1, 285960, Note_on_c, 0, 69, 0
1, 285960, Note_on_c, 0, 67, 34
1, 286080, Tempo, 535714
1, 286080, Note_on_c, 0, 67, 0
1, 286080, Note_on_c, 0, 65, 50
1, 286080, Note_on_c, 0, 53, 41
1, 286080, Note_on_c, 0, 57, 41
1, 286320, Tempo, 478088
1, 286320, Note_on_c, 0, 57, 0
1, 286320, Note_on_c, 0, 53, 0
1, 286320, Note_on_c, 0, 65, 0
1, 286320, Note_on_c, 0, 69, 45
1, 286320, Note_on_c, 0, 60, 27
1, 286341, Control_c, 0, 64, 127
1, 286440, Note_on_c, 0, 60, 0
1, 286440, Note_on_c, 0, 69, 0
1, 286440, Note_on_c, 0, 72, 28
1, 286548, Tempo, 478088
1, 286560, Tempo, 476190
1, 286560, Note_on_c, 0, 72, 0
1, 286560, Note_on_c, 0, 69, 39
1, 286560, Note_on_c, 0, 60, 30
1, 286596, Tempo, 474308
1, 286656, Tempo, 481928
1, 286680, Note_on_c, 0, 60, 0
1, 286680, Note_on_c, 0, 69, 0
1, 286680, Note_on_c, 0, 72, 28
1, 286692, Tempo, 480000
1, 286704, Tempo, 478088
1, 286800, Note_on_c, 0, 72, 0
1, 286800, Note_on_c, 0, 69, 38
1, 286800, Note_on_c, 0, 60, 27
1, 286824, Tempo, 480000
1, 286836, Tempo, 481928
1, 286848, Tempo, 478088
1, 286920, Tempo, 493827
1, 286920, Note_on_c, 0, 60, 0
1, 286920, Note_on_c, 0, 69, 0
1, 286920, Note_on_c, 0, 72, 31
1, 287040, Tempo, 476190
1, 287040, Note_on_c, 0, 72, 0
1, 287040, Note_on_c, 0, 68, 45
1, 287040, Note_on_c, 0, 61, 37
1, 287046, Control_c, 0, 64, 0
1, 287064, Tempo, 474308
1, 287088, Tempo, 472441
1, 287093, Control_c, 0, 64, 127
1, 287124, Tempo, 470588
1, 287160, Note_on_c, 0, 68, 0
1, 287160, Note_on_c, 0, 71, 30
1, 287208, Tempo, 481928
1, 287280, Note_on_c, 0, 71, 0
1, 287280, Note_on_c, 0, 61, 0
1, 287280, Note_on_c, 0, 69, 45
1, 287280, Note_on_c, 0, 60, 27
1, 287283, Control_c, 0, 64, 0
1, 287292, Tempo, 480000
1, 287304, Tempo, 478088
1, 287316, Tempo, 476190
1, 287328, Tempo, 474308
1, 287340, Tempo, 472441
1, 287364, Tempo, 470588
1, 287400, Note_on_c, 0, 69, 0
1, 287400, Note_on_c, 0, 72, 32
1, 287412, Tempo, 468750
1, 287424, Tempo, 470588
1, 287436, Tempo, 472441
1, 287484, Tempo, 476190
1, 287496, Tempo, 478088
1, 287520, Tempo, 481928
1, 287520, Note_on_c, 0, 72, 0
1, 287520, Note_on_c, 0, 60, 0
1, 287520, Note_on_c, 0, 69, 39
1, 287520, Note_on_c, 0, 60, 30
1, 287556, Tempo, 483871
1, 287580, Tempo, 485830
1, 287592, Tempo, 480000
1, 287604, Tempo, 478088
1, 287612, Control_c, 0, 64, 127
1, 287616, Tempo, 476190
1, 287628, Tempo, 474308
1, 287640, Note_on_c, 0, 60, 0
1, 287640, Note_on_c, 0, 69, 0
1, 287640, Note_on_c, 0, 72, 27
1, 287652, Tempo, 472441
1, 287724, Tempo, 474308
1, 287748, Tempo, 480000
1, 287760, Note_on_c, 0, 72, 0
1, 287760, Note_on_c, 0, 69, 40
1, 287760, Note_on_c, 0, 60, 27
1, 287784, Tempo, 481928
1, 287796, Tempo, 476190
1, 287832, Tempo, 470588
1, 287844, Tempo, 474308
1, 287856, Tempo, 476190
1, 287880, Tempo, 515021
1, 287880, Note_on_c, 0, 60, 0
1, 287880, Note_on_c, 0, 69, 0
1, 287880, Note_on_c, 0, 72, 30
1, 288000, Tempo, 491803
1, 288000, Note_on_c, 0, 72, 0
1, 288000, Note_on_c, 0, 69, 45
1, 288000, Note_on_c, 0, 48, 38
1, 288000, Control_c, 0, 64, 0
1, 288103, Control_c, 0, 64, 127
1, 288108, Tempo, 472441
1, 288120, Note_on_c, 0, 69, 0
1, 288120, Note_on_c, 0, 72, 37
1, 288132, Tempo, 470588
1, 288156, Tempo, 468750
1, 288180, Tempo, 466926
1, 288240, Tempo, 472441
1, 288240, Note_on_c, 0, 72, 0
1, 288240, Note_on_c, 0, 48, 0
1, 288240, Note_on_c, 0, 70, 44
1, 288240, Note_on_c, 0, 60, 27
1, 288242, Control_c, 0, 64, 0
1, 288252, Tempo, 476190
1, 288264, Tempo, 478088
1, 288276, Tempo, 480000
1, 288288, Tempo, 481928
1, 288312, Tempo, 480000
1, 288324, Tempo, 478088
1, 288336, Tempo, 476190
1, 288348, Tempo, 474308
1, 288360, Tempo, 470588
1, 288360, Note_on_c, 0, 60, 0
1, 288360, Note_on_c, 0, 70, 0
1, 288360, Note_on_c, 0, 73, 39
1, 288372, Tempo, 468750
1, 288384, Tempo, 466926
1, 288396, Tempo, 465116
1, 288408, Tempo, 463320
1, 288420, Tempo, 461538
1, 288444, Tempo, 463320
1, 288456, Tempo, 466926
1, 288468, Tempo, 470588
1, 288480, Tempo, 472441
1, 288480, Note_on_c, 0, 73, 0
1, 288480, Note_on_c, 0, 76, 52
1, 288480, Note_on_c, 0, 60, 27
1, 288504, Tempo, 474308
1, 288516, Tempo, 476190
1, 288552, Tempo, 480000
1, 288576, Tempo, 476190
1, 288588, Tempo, 474308
1, 288600, Tempo, 470588
1, 288600, Note_on_c, 0, 60, 0
1, 288600, Note_on_c, 0, 76, 0
1, 288600, Note_on_c, 0, 79, 46
1, 288624, Tempo, 468750
1, 288636, Tempo, 466926
1, 288648, Tempo, 465116
1, 288684, Tempo, 466926
1, 288696, Tempo, 472441
1, 288720, Tempo, 474308
1, 288720, Note_on_c, 0, 79, 0
1, 288720, Note_on_c, 0, 69, 44
1, 288720, Note_on_c, 0, 60, 27
1, 288732, Tempo, 476190
1, 288744, Tempo, 478088
1, 288780, Tempo, 472441
1, 288804, Tempo, 470588
1, 288840, Note_on_c, 0, 60, 0
1, 288840, Note_on_c, 0, 69, 0
1, 288840, Note_on_c, 0, 72, 36
1, 288948, Tempo, 466926
1, 288960, Tempo, 463320
1, 288960, Note_on_c, 0, 72, 0
1, 288960, Note_on_c, 0, 70, 48
1, 288960, Note_on_c, 0, 48, 44
1, 288970, Control_c, 0, 64, 0
1, 288972, Tempo, 461538
1, 288984, Tempo, 459770
1, 288996, Tempo, 458015
1, 289008, Tempo, 456274
1, 289044, Tempo, 458015
1, 289068, Tempo, 459770
1, 289080, Tempo, 461538
1, 289080, Note_on_c, 0, 70, 0
1, 289080, Note_on_c, 0, 73, 51
1, 289092, Control_c, 0, 64, 127
1, 289092, Tempo, 463320
1, 289104, Tempo, 465116
1, 289116, Tempo, 466926
1, 289128, Tempo, 470588
1, 289176, Tempo, 468750
1, 289200, Tempo, 466926
1, 289200, Note_on_c, 0, 73, 0
1, 289200, Note_on_c, 0, 48, 0
1, 289200, Note_on_c, 0, 76, 55
1, 289200, Note_on_c, 0, 60, 37
1, 289209, Control_c, 0, 64, 0
1, 289248, Tempo, 465116
1, 289320, Note_on_c, 0, 60, 0
1, 289320, Note_on_c, 0, 76, 0
1, 289320, Note_on_c, 0, 79, 58
1, 289344, Tempo, 463320
1, 289380, Tempo, 461538
1, 289428, Tempo, 459770
1, 289440, Tempo, 458015
1, 289440, Note_on_c, 0, 79, 0
1, 289440, Note_on_c, 0, 77, 61
1, 289440, Note_on_c, 0, 60, 40
1, 289536, Tempo, 459770
1, 289548, Tempo, 461538
1, 289560, Note_on_c, 0, 60, 0
1, 289560, Note_on_c, 0, 77, 0
1, 289560, Note_on_c, 0, 76, 59
1, 289572, Tempo, 470588
1, 289596, Tempo, 468750
1, 289620, Tempo, 466926
1, 289680, Note_on_c, 0, 76, 0
1, 289680, Note_on_c, 0, 74, 57
1, 289680, Note_on_c, 0, 60, 44
1, 289680, Note_on_c, 0, 48, 44
1, 289680, Note_on_c, 0, 58, 44
1, 289716, Tempo, 465116
1, 289800, Tempo, 502092
1, 289800, Note_on_c, 0, 58, 0
1, 289800, Note_on_c, 0, 74, 0
1, 289800, Note_on_c, 0, 60, 0
1, 289800, Note_on_c, 0, 48, 0
1, 289800, Note_on_c, 0, 76, 62
1, 289920, Tempo, 463320
1, 289920, Note_on_c, 0, 76, 0
1, 289920, Note_on_c, 0, 77, 67
1, 289920, Note_on_c, 0, 57, 48
1, 289920, Note_on_c, 0, 60, 48
1, 289920, Note_on_c, 0, 53, 48
1, 289920, Control_c, 0, 64, 0
1, 290160, Tempo, 476190
1, 290160, Note_on_c, 0, 53, 0
1, 290160, Note_on_c, 0, 77, 0
1, 290160, Note_on_c, 0, 57, 0
1, 290160, Note_on_c, 0, 60, 0
1, 290160, Note_on_c, 0, 69, 51
1, 290160, Note_on_c, 0, 60, 31
1, 290181, Control_c, 0, 64, 127
1, 290208, Tempo, 474308
1, 290220, Tempo, 472441
1, 290244, Tempo, 470588
1, 290280, Note_on_c, 0, 60, 0
1, 290280, Note_on_c, 0, 69, 0
1, 290280, Note_on_c, 0, 72, 32
1, 290316, Tempo, 480000
1, 290328, Tempo, 481928
1, 290340, Tempo, 485830
1, 290352, Tempo, 474308
1, 290376, Tempo, 472441
1, 290388, Tempo, 470588
1, 290400, Note_on_c, 0, 72, 0
1, 290400, Note_on_c, 0, 69, 44
1, 290400, Note_on_c, 0, 60, 34
1, 290460, Tempo, 472441
1, 290472, Tempo, 476190
1, 290484, Tempo, 483871
1, 290496, Tempo, 485830
1, 290520, Note_on_c, 0, 60, 0
1, 290520, Note_on_c, 0, 69, 0
1, 290520, Note_on_c, 0, 72, 32
1, 290544, Tempo, 483871
1, 290556, Tempo, 480000
1, 290568, Tempo, 478088
1, 290580, Tempo, 476190
1, 290592, Tempo, 474308
1, 290604, Tempo, 472441
1, 290628, Tempo, 470588
1, 290640, Note_on_c, 0, 72, 0
1, 290640, Note_on_c, 0, 69, 43
1, 290640, Note_on_c, 0, 60, 31
1, 290652, Tempo, 474308
1, 290664, Tempo, 480000
1, 290688, Tempo, 472441
1, 290760, Tempo, 493827
1, 290760, Note_on_c, 0, 60, 0
1, 290760, Note_on_c, 0, 69, 0
1, 290760, Note_on_c, 0, 72, 35
1, 290880, Tempo, 476190
1, 290880, Note_on_c, 0, 72, 0
1, 290880, Note_on_c, 0, 68, 51
1, 290880, Note_on_c, 0, 61, 42
1, 290886, Control_c, 0, 64, 0
1, 290916, Tempo, 474308
1, 290942, Control_c, 0, 64, 127
1, 291000, Note_on_c, 0, 68, 0
1, 291000, Note_on_c, 0, 71, 34
1, 291012, Tempo, 472441
1, 291024, Tempo, 468750
1, 291048, Tempo, 470588
1, 291060, Tempo, 472441
1, 291072, Tempo, 474308
1, 291096, Tempo, 478088
1, 291108, Tempo, 480000
1, 291120, Tempo, 478088
1, 291120, Note_on_c, 0, 71, 0
1, 291120, Note_on_c, 0, 61, 0
1, 291120, Note_on_c, 0, 69, 51
1, 291120, Note_on_c, 0, 60, 31
1, 291132, Tempo, 476190
1, 291132, Control_c, 0, 64, 0
1, 291168, Tempo, 474308
1, 291228, Tempo, 472441
1, 291240, Tempo, 470588
1, 291240, Note_on_c, 0, 60, 0
1, 291240, Note_on_c, 0, 69, 0
1, 291240, Note_on_c, 0, 72, 36
1, 291252, Tempo, 468750
1, 291276, Tempo, 472441
1, 291288, Tempo, 476190
1, 291312, Tempo, 481928
1, 291348, Tempo, 466926
1, 291360, Note_on_c, 0, 72, 0
1, 291360, Note_on_c, 0, 69, 44
1, 291360, Note_on_c, 0, 60, 34
1, 291432, Tempo, 470588
1, 291444, Tempo, 472441
1, 291452, Control_c, 0, 64, 127
1, 291480, Note_on_c, 0, 60, 0
1, 291480, Note_on_c, 0, 69, 0
1, 291480, Note_on_c, 0, 72, 31
1, 291528, Tempo, 474308
1, 291540, Tempo, 476190
1, 291552, Tempo, 478088
1, 291564, Tempo, 480000
1, 291576, Tempo, 481928
1, 291588, Tempo, 480000
1, 291600, Note_on_c, 0, 72, 0
1, 291600, Note_on_c, 0, 69, 46
1, 291600, Note_on_c, 0, 63, 31
1, 291624, Tempo, 476190
1, 291636, Tempo, 474308
1, 291720, Tempo, 515021
1, 291720, Note_on_c, 0, 63, 0
1, 291720, Note_on_c, 0, 69, 0
1, 291720, Note_on_c, 0, 72, 34
1, 291840, Tempo, 491803
1, 291840, Note_on_c, 0, 72, 0
1, 291840, Note_on_c, 0, 71, 51
1, 291840, Note_on_c, 0, 50, 43
1, 291840, Control_c, 0, 64, 0
1, 291943, Control_c, 0, 64, 127
1, 291960, Tempo, 472441
1, 291960, Note_on_c, 0, 71, 0
1, 291960, Note_on_c, 0, 74, 42
1, 291972, Tempo, 470588
1, 291996, Tempo, 468750
1, 292032, Tempo, 465116
1, 292056, Tempo, 463320
1, 292080, Note_on_c, 0, 74, 0
1, 292080, Note_on_c, 0, 50, 0
1, 292080, Note_on_c, 0, 72, 50
1, 292080, Note_on_c, 0, 62, 31
1, 292082, Control_c, 0, 64, 0
1, 292116, Tempo, 465116
1, 292128, Tempo, 468750
1, 292164, Tempo, 472441
1, 292188, Tempo, 476190
1, 292200, Note_on_c, 0, 62, 0
1, 292200, Note_on_c, 0, 72, 0
1, 292200, Note_on_c, 0, 75, 44
1, 292224, Tempo, 474308
1, 292236, Tempo, 470588
1, 292248, Tempo, 468750
1, 292260, Tempo, 465116
1, 292272, Tempo, 463320
1, 292296, Tempo, 459770
1, 292320, Note_on_c, 0, 75, 0
1, 292320, Note_on_c, 0, 78, 59
1, 292320, Note_on_c, 0, 62, 31
1, 292344, Tempo, 463320
1, 292368, Tempo, 466926
1, 292380, Tempo, 468750
1, 292392, Tempo, 470588
1, 292404, Tempo, 472441
1, 292416, Tempo, 474308
1, 292440, Note_on_c, 0, 62, 0
1, 292440, Note_on_c, 0, 78, 0
1, 292440, Note_on_c, 0, 81, 52
1, 292476, Tempo, 468750
1, 292500, Tempo, 466926
1, 292524, Tempo, 465116
1, 292560, Tempo, 468750
1, 292560, Note_on_c, 0, 81, 0
1, 292560, Note_on_c, 0, 71, 50
1, 292560, Note_on_c, 0, 62, 31
1, 292584, Tempo, 472441
1, 292668, Tempo, 470588
1, 292680, Tempo, 468750
1, 292680, Note_on_c, 0, 62, 0
1, 292680, Note_on_c, 0, 71, 0
1, 292680, Note_on_c, 0, 74, 41
1, 292800, Tempo, 465116
1, 292800, Note_on_c, 0, 74, 0
1, 292800, Note_on_c, 0, 72, 55
1, 292800, Note_on_c, 0, 50, 50
1, 292810, Control_c, 0, 64, 0
1, 292824, Tempo, 465116
1, 292848, Tempo, 463320
1, 292860, Tempo, 461538
1, 292872, Tempo, 459770
1, 292896, Tempo, 458015
1, 292920, Note_on_c, 0, 72, 0
1, 292920, Note_on_c, 0, 75, 58
1, 292932, Tempo, 456274
1, 292980, Tempo, 459770
1, 292992, Tempo, 461538
1, 293004, Tempo, 463320
1, 293028, Tempo, 466926
1, 293040, Note_on_c, 0, 75, 0
1, 293040, Note_on_c, 0, 50, 0
1, 293040, Note_on_c, 0, 78, 63
1, 293040, Note_on_c, 0, 62, 42
1, 293064, Tempo, 465116
1, 293088, Tempo, 463320
1, 293100, Tempo, 458015
1, 293112, Tempo, 456274
1, 293124, Tempo, 452830
1, 293160, Note_on_c, 0, 62, 0
1, 293160, Note_on_c, 0, 78, 0
1, 293160, Note_on_c, 0, 81, 66
1, 293172, Tempo, 456274
1, 293196, Tempo, 458015
1, 293208, Tempo, 461538
1, 293232, Tempo, 470588
1, 293280, Note_on_c, 0, 81, 0
1, 293280, Note_on_c, 0, 79, 70
1, 293280, Note_on_c, 0, 62, 46
1, 293352, Tempo, 466926
1, 293376, Tempo, 461538
1, 293388, Tempo, 459770
1, 293400, Tempo, 458015
1, 293400, Note_on_c, 0, 62, 0
1, 293400, Note_on_c, 0, 79, 0
1, 293400, Note_on_c, 0, 78, 67
1, 293412, Tempo, 456274
1, 293460, Tempo, 459770
1, 293496, Tempo, 461538
1, 293508, Tempo, 463320
1, 293520, Note_on_c, 0, 78, 0
1, 293520, Note_on_c, 0, 76, 65
1, 293520, Note_on_c, 0, 60, 50
1, 293520, Note_on_c, 0, 50, 50
1, 293520, Note_on_c, 0, 62, 50
1, 293640, Tempo, 502092
1, 293640, Note_on_c, 0, 62, 0
1, 293640, Note_on_c, 0, 76, 0
1, 293640, Note_on_c, 0, 60, 0
1, 293640, Note_on_c, 0, 50, 0
1, 293640, Note_on_c, 0, 78, 71
1, 293760, Tempo, 463320
1, 293760, Note_on_c, 0, 78, 0
1, 293760, Note_on_c, 0, 79, 77
1, 293760, Note_on_c, 0, 55, 55
1, 293760, Note_on_c, 0, 62, 55
1, 293760, Note_on_c, 0, 58, 55
1, 293760, Control_c, 0, 64, 0
1, 294000, Tempo, 478088
1, 294000, Note_on_c, 0, 58, 0
1, 294000, Note_on_c, 0, 79, 0
1, 294000, Note_on_c, 0, 55, 0
1, 294000, Note_on_c, 0, 62, 0
1, 294000, Note_on_c, 0, 70, 51
1, 294000, Note_on_c, 0, 62, 31
1, 294012, Tempo, 478088
1, 294021, Control_c, 0, 64, 127
1, 294060, Tempo, 476190
1, 294096, Tempo, 474308
1, 294120, Tempo, 472441
1, 294120, Note_on_c, 0, 62, 0
1, 294120, Note_on_c, 0, 70, 0
1, 294120, Note_on_c, 0, 74, 32
1, 294168, Tempo, 474308
1, 294204, Tempo, 478088
1, 294216, Tempo, 481928
1, 294240, Note_on_c, 0, 74, 0
1, 294240, Note_on_c, 0, 70, 44
1, 294240, Note_on_c, 0, 62, 34
1, 294264, Tempo, 470588
1, 294276, Tempo, 468750
1, 294336, Tempo, 470588
1, 294348, Tempo, 472441
1, 294360, Tempo, 474308
1, 294360, Note_on_c, 0, 62, 0
1, 294360, Note_on_c, 0, 70, 0
1, 294360, Note_on_c, 0, 74, 32
1, 294372, Tempo, 476190
1, 294384, Tempo, 478088
1, 294432, Tempo, 481928
1, 294444, Tempo, 483871
1, 294468, Tempo, 480000
1, 294480, Note_on_c, 0, 74, 0
1, 294480, Note_on_c, 0, 70, 43
1, 294480, Note_on_c, 0, 62, 31
1, 294492, Tempo, 478088
1, 294516, Tempo, 476190
1, 294600, Tempo, 493827
1, 294600, Note_on_c, 0, 62, 0
1, 294600, Note_on_c, 0, 70, 0
1, 294600, Note_on_c, 0, 74, 35
1, 294720, Tempo, 474308
1, 294720, Note_on_c, 0, 74, 0
1, 294720, Note_on_c, 0, 69, 51
1, 294720, Note_on_c, 0, 63, 42
1, 294726, Control_c, 0, 64, 0
1, 294744, Tempo, 472441
1, 294768, Tempo, 470588
1, 294773, Control_c, 0, 64, 127
1, 294780, Tempo, 468750
1, 294804, Tempo, 476190
1, 294828, Tempo, 480000
1, 294840, Note_on_c, 0, 69, 0
1, 294840, Note_on_c, 0, 73, 34
1, 294936, Tempo, 474308
1, 294948, Tempo, 470588
1, 294960, Note_on_c, 0, 73, 0
1, 294960, Note_on_c, 0, 63, 0
1, 294960, Note_on_c, 0, 70, 51
1, 294960, Note_on_c, 0, 62, 31
1, 294966, Control_c, 0, 64, 0
1, 294972, Tempo, 468750
1, 295056, Tempo, 476190
1, 295068, Tempo, 480000
1, 295080, Tempo, 481928
1, 295080, Note_on_c, 0, 62, 0
1, 295080, Note_on_c, 0, 70, 0
1, 295080, Note_on_c, 0, 74, 36
1, 295200, Note_on_c, 0, 74, 0
1, 295200, Note_on_c, 0, 70, 44
1, 295200, Note_on_c, 0, 62, 34
1, 295236, Tempo, 476190
1, 295248, Tempo, 474308
1, 295260, Tempo, 472441
1, 295292, Control_c, 0, 64, 127
1, 295308, Tempo, 474308
1, 295320, Tempo, 478088
1, 295320, Note_on_c, 0, 62, 0
1, 295320, Note_on_c, 0, 70, 0
1, 295320, Note_on_c, 0, 74, 31
1, 295416, Tempo, 474308
1, 295428, Tempo, 472441
1, 295440, Note_on_c, 0, 74, 0
1, 295440, Note_on_c, 0, 70, 46
1, 295440, Note_on_c, 0, 62, 31
1, 295560, Tempo, 515021
1, 295560, Note_on_c, 0, 62, 0
1, 295560, Note_on_c, 0, 70, 0
1, 295560, Note_on_c, 0, 74, 34
1, 295680, Tempo, 463320
1, 295680, Note_on_c, 0, 74, 0
1, 295680, Note_on_c, 0, 79, 72
1, 295680, Note_on_c, 0, 52, 49
1, 295680, Control_c, 0, 64, 0
1, 295783, Control_c, 0, 64, 127
1, 295800, Tempo, 476190
1, 295800, Note_on_c, 0, 79, 0
1, 295800, Note_on_c, 0, 70, 35
1, 295812, Tempo, 472441
1, 295896, Tempo, 478088
1, 295920, Tempo, 481928
1, 295920, Note_on_c, 0, 70, 0
1, 295920, Note_on_c, 0, 73, 46
1, 295920, Note_on_c, 0, 61, 31
1, 295920, Note_on_c, 0, 58, 31
1, 295968, Tempo, 478088
1, 295992, Tempo, 476190
1, 296016, Tempo, 474308
1, 296040, Note_on_c, 0, 73, 0
1, 296040, Note_on_c, 0, 70, 32
1, 296064, Tempo, 472441
1, 296088, Tempo, 476190
1, 296100, Tempo, 478088
1, 296112, Tempo, 480000
1, 296136, Tempo, 481928
1, 296137, Control_c, 0, 64, 0
1, 296148, Tempo, 483871
1, 296160, Note_on_c, 0, 70, 0
1, 296160, Note_on_c, 0, 61, 0
1, 296160, Note_on_c, 0, 72, 44
1, 296160, Note_on_c, 0, 60, 34
1, 296196, Tempo, 481928
1, 296208, Tempo, 480000
1, 296220, Tempo, 478088
1, 296244, Tempo, 476190
1, 296268, Tempo, 474308
1, 296280, Tempo, 472441
1, 296280, Note_on_c, 0, 72, 0
1, 296280, Note_on_c, 0, 70, 32
1, 296292, Tempo, 470588
1, 296304, Tempo, 468750
1, 296328, Tempo, 470588
1, 296340, Tempo, 480000
1, 296364, Tempo, 478088
1, 296400, Note_on_c, 0, 70, 0
1, 296400, Note_on_c, 0, 60, 0
1, 296400, Note_on_c, 0, 73, 43
1, 296400, Note_on_c, 0, 61, 31
1, 296520, Tempo, 493827
1, 296520, Note_on_c, 0, 73, 0
1, 296520, Note_on_c, 0, 70, 35
1, 296640, Tempo, 465116
1, 296640, Note_on_c, 0, 70, 0
1, 296640, Note_on_c, 0, 61, 0
1, 296640, Note_on_c, 0, 52, 0
1, 296640, Note_on_c, 0, 58, 0
1, 296640, Note_on_c, 0, 77, 67
1, 296640, Note_on_c, 0, 53, 50
1, 296693, Control_c, 0, 64, 127
1, 296760, Tempo, 476190
1, 296760, Note_on_c, 0, 77, 0
1, 296760, Note_on_c, 0, 69, 34
1, 296808, Tempo, 474308
1, 296868, Tempo, 472441
1, 296880, Tempo, 470588
1, 296880, Note_on_c, 0, 69, 0
1, 296880, Note_on_c, 0, 74, 45
1, 296880, Note_on_c, 0, 57, 31
1, 296880, Note_on_c, 0, 62, 31
1, 296892, Tempo, 468750
1, 296904, Tempo, 470588
1, 296916, Tempo, 472441
1, 296928, Tempo, 474308
1, 296940, Tempo, 476190
1, 296952, Tempo, 481928
1, 296964, Tempo, 480000
1, 296976, Tempo, 478088
1, 297000, Tempo, 476190
1, 297000, Note_on_c, 0, 74, 0
1, 297000, Note_on_c, 0, 69, 36
1, 297048, Tempo, 474308
1, 297072, Tempo, 472441
1, 297120, Tempo, 474308
1, 297120, Note_on_c, 0, 69, 0
1, 297120, Note_on_c, 0, 62, 0
1, 297120, Note_on_c, 0, 72, 44
1, 297120, Note_on_c, 0, 60, 34
1, 297132, Tempo, 478088
1, 297132, Control_c, 0, 64, 0
1, 297144, Tempo, 480000
1, 297156, Tempo, 481928
1, 297168, Tempo, 483871
1, 297192, Tempo, 476190
1, 297204, Tempo, 474308
1, 297206, Control_c, 0, 64, 127
1, 297228, Tempo, 472441
1, 297240, Note_on_c, 0, 72, 0
1, 297240, Note_on_c, 0, 69, 31
1, 297312, Tempo, 474308
1, 297324, Tempo, 476190
1, 297336, Tempo, 478088
1, 297360, Tempo, 480000
1, 297360, Note_on_c, 0, 69, 0
1, 297360, Note_on_c, 0, 60, 0
1, 297360, Note_on_c, 0, 77, 63
1, 297360, Note_on_c, 0, 65, 31
1, 297396, Tempo, 478088
1, 297480, Tempo, 515021
1, 297480, Note_on_c, 0, 77, 0
1, 297480, Note_on_c, 0, 69, 34
1, 297600, Tempo, 463320
1, 297600, Note_on_c, 0, 69, 0
1, 297600, Note_on_c, 0, 65, 0
1, 297600, Note_on_c, 0, 57, 0
1, 297600, Note_on_c, 0, 53, 0
1, 297600, Note_on_c, 0, 79, 61
1, 297600, Note_on_c, 0, 82, 72
1, 297600, Note_on_c, 0, 52, 49
1, 297600, Control_c, 0, 64, 0
1, 297703, Control_c, 0, 64, 127
1, 297720, Tempo, 476190
1, 297720, Note_on_c, 0, 82, 0
1, 297720, Note_on_c, 0, 79, 0
1, 297720, Note_on_c, 0, 70, 35
1, 297744, Tempo, 474308
1, 297768, Tempo, 472441
1, 297804, Tempo, 470588
1, 297816, Tempo, 474308
1, 297840, Tempo, 478088
1, 297840, Note_on_c, 0, 70, 0
1, 297840, Note_on_c, 0, 73, 46
1, 297840, Note_on_c, 0, 61, 31
1, 297840, Note_on_c, 0, 58, 31
1, 297864, Tempo, 480000
1, 297936, Tempo, 478088
1, 297948, Tempo, 476190
1, 297960, Note_on_c, 0, 73, 0
1, 297960, Note_on_c, 0, 70, 32
1, 297972, Tempo, 470588
1, 297984, Tempo, 468750
1, 298008, Tempo, 472441
1, 298032, Tempo, 474308
1, 298080, Note_on_c, 0, 70, 0
1, 298080, Note_on_c, 0, 61, 0
1, 298080, Note_on_c, 0, 72, 44
1, 298080, Note_on_c, 0, 60, 34
1, 298095, Control_c, 0, 64, 0
1, 298104, Tempo, 476190
1, 298116, Tempo, 478088
1, 298188, Tempo, 476190
1, 298200, Note_on_c, 0, 72, 0
1, 298200, Note_on_c, 0, 70, 32
1, 298212, Tempo, 474308
1, 298248, Tempo, 472441
1, 298320, Tempo, 481928
1, 298320, Note_on_c, 0, 70, 0
1, 298320, Note_on_c, 0, 60, 0
1, 298320, Note_on_c, 0, 73, 43
1, 298320, Note_on_c, 0, 61, 31
1, 298404, Tempo, 476190
1, 298416, Tempo, 474308
1, 298428, Tempo, 468750
1, 298440, Tempo, 493827
1, 298440, Note_on_c, 0, 73, 0
1, 298440, Note_on_c, 0, 70, 35
1, 298560, Tempo, 465116
1, 298560, Note_on_c, 0, 70, 0
1, 298560, Note_on_c, 0, 61, 0
1, 298560, Note_on_c, 0, 52, 0
1, 298560, Note_on_c, 0, 58, 0
1, 298560, Note_on_c, 0, 81, 67
1, 298560, Note_on_c, 0, 77, 56
1, 298560, Note_on_c, 0, 53, 50
1, 298613, Control_c, 0, 64, 127
1, 298680, Tempo, 478088
1, 298680, Note_on_c, 0, 77, 0
1, 298680, Note_on_c, 0, 81, 0
1, 298680, Note_on_c, 0, 69, 34
1, 298704, Tempo, 476190
1, 298728, Tempo, 474308
1, 298752, Tempo, 472441
1, 298776, Tempo, 470588
1, 298788, Tempo, 468750
1, 298800, Tempo, 472441
1, 298800, Note_on_c, 0, 69, 0
1, 298800, Note_on_c, 0, 74, 45
1, 298800, Note_on_c, 0, 62, 31
1, 298800, Note_on_c, 0, 57, 31
1, 298812, Tempo, 476190
1, 298824, Tempo, 478088
1, 298896, Tempo, 476190
1, 298908, Tempo, 474308
1, 298920, Tempo, 472441
1, 298920, Note_on_c, 0, 74, 0
1, 298920, Note_on_c, 0, 69, 36
1, 299004, Tempo, 476190
1, 299016, Tempo, 478088
1, 299028, Tempo, 481928
1, 299040, Note_on_c, 0, 69, 0
1, 299040, Note_on_c, 0, 62, 0
1, 299040, Note_on_c, 0, 72, 44
1, 299040, Note_on_c, 0, 60, 34
1, 299053, Control_c, 0, 64, 0
1, 299064, Tempo, 483871
1, 299112, Tempo, 474308
1, 299115, Control_c, 0, 64, 127
1, 299136, Tempo, 472441
1, 299160, Note_on_c, 0, 72, 0
1, 299160, Note_on_c, 0, 69, 31
1, 299220, Tempo, 476190
1, 299232, Tempo, 478088
1, 299244, Tempo, 480000
1, 299280, Note_on_c, 0, 69, 0
1, 299280, Note_on_c, 0, 60, 0
1, 299280, Note_on_c, 0, 77, 63
1, 299280, Note_on_c, 0, 65, 31
1, 299292, Tempo, 476190
1, 299316, Tempo, 474308
1, 299340, Tempo, 476190
1, 299400, Tempo, 515021
1, 299400, Note_on_c, 0, 77, 0
1, 299400, Note_on_c, 0, 69, 34
1, 299520, Note_on_c, 0, 69, 0
1, 299520, Note_on_c, 0, 65, 0
1, 299520, Note_on_c, 0, 53, 0
1, 299520, Note_on_c, 0, 57, 0
1, 299520, Note_on_c, 0, 81, 70
1, 299520, Note_on_c, 0, 46, 60
1, 299520, Control_c, 0, 64, 0
1, 299532, Tempo, 519481
1, 299544, Tempo, 517241
1, 299556, Tempo, 502092
1, 299580, Tempo, 500000
1, 299604, Tempo, 497925
1, 299640, Tempo, 500000
1, 299640, Note_on_c, 0, 46, 0
1, 299640, Note_on_c, 0, 81, 0
1, 299640, Note_on_c, 0, 84, 52
1, 299652, Tempo, 504202
1, 299664, Tempo, 506329
1, 299676, Tempo, 512821
1, 299688, Tempo, 515021
1, 299760, Note_on_c, 0, 84, 0
1, 299760, Note_on_c, 0, 74, 57
1, 299760, Note_on_c, 0, 62, 53
1, 299760, Note_on_c, 0, 58, 53
1, 299772, Tempo, 512821
1, 299784, Tempo, 510638
1, 299788, Control_c, 0, 64, 127
1, 299808, Tempo, 508475
1, 299832, Tempo, 510638
1, 299844, Tempo, 512821
1, 299868, Tempo, 515021
1, 299880, Note_on_c, 0, 74, 0
1, 299880, Note_on_c, 0, 79, 53
1, 299892, Tempo, 512821
1, 300000, Tempo, 478088
1, 300000, Note_on_c, 0, 79, 0
1, 300000, Note_on_c, 0, 82, 62
1, 300024, Tempo, 476190
1, 300072, Tempo, 474308
1, 300120, Note_on_c, 0, 82, 0
1, 300120, Note_on_c, 0, 86, 69
1, 300144, Tempo, 472441
1, 300156, Tempo, 481928
1, 300168, Tempo, 485830
1, 300180, Tempo, 487805
1, 300192, Tempo, 470588
1, 300240, Note_on_c, 0, 86, 0
1, 300240, Note_on_c, 0, 58, 0
1, 300240, Note_on_c, 0, 62, 0
1, 300240, Note_on_c, 0, 84, 57
1, 300240, Note_on_c, 0, 58, 44
1, 300240, Note_on_c, 0, 62, 44
1, 300264, Tempo, 472441
1, 300276, Tempo, 474308
1, 300300, Tempo, 481928
1, 300360, Note_on_c, 0, 84, 0
1, 300360, Note_on_c, 0, 82, 57
1, 300384, Tempo, 476190
1, 300396, Tempo, 478088
1, 300408, Tempo, 480000
1, 300420, Tempo, 481928
1, 300480, Tempo, 512821
1, 300480, Note_on_c, 0, 82, 0
1, 300480, Note_on_c, 0, 62, 0
1, 300480, Note_on_c, 0, 58, 0
1, 300480, Note_on_c, 0, 79, 63
1, 300480, Note_on_c, 0, 48, 60
1, 300490, Control_c, 0, 64, 0
1, 300600, Note_on_c, 0, 48, 0
1, 300600, Note_on_c, 0, 79, 0
1, 300600, Note_on_c, 0, 82, 53
1, 300720, Tempo, 476190
1, 300720, Note_on_c, 0, 82, 0
1, 300720, Note_on_c, 0, 72, 53
1, 300720, Note_on_c, 0, 60, 52
1, 300720, Note_on_c, 0, 57, 52
1, 300770, Control_c, 0, 64, 127
1, 300840, Note_on_c, 0, 72, 0
1, 300840, Note_on_c, 0, 77, 50
1, 300948, Tempo, 476190
1, 300960, Note_on_c, 0, 77, 0
1, 300960, Note_on_c, 0, 81, 62
1, 301032, Tempo, 474308
1, 301044, Tempo, 472441
1, 301056, Tempo, 470588
1, 301080, Note_on_c, 0, 81, 0
1, 301080, Note_on_c, 0, 84, 67
1, 301092, Tempo, 472441
1, 301104, Tempo, 474308
1, 301116, Tempo, 478088
1, 301128, Tempo, 480000
1, 301152, Tempo, 476190
1, 301176, Tempo, 474308
1, 301200, Note_on_c, 0, 84, 0
1, 301200, Note_on_c, 0, 57, 0
1, 301200, Note_on_c, 0, 60, 0
1, 301200, Note_on_c, 0, 82, 53
1, 301200, Note_on_c, 0, 57, 45
1, 301200, Note_on_c, 0, 60, 45
1, 301320, Tempo, 515021
1, 301320, Note_on_c, 0, 82, 0
1, 301320, Note_on_c, 0, 81, 49
1, 301440, Note_on_c, 0, 81, 0
1, 301440, Note_on_c, 0, 60, 0
1, 301440, Note_on_c, 0, 57, 0
1, 301440, Note_on_c, 0, 78, 66
1, 301440, Note_on_c, 0, 48, 60
1, 301455, Control_c, 0, 64, 0
1, 301537, Control_c, 0, 64, 127
1, 301560, Note_on_c, 0, 48, 0
1, 301560, Note_on_c, 0, 78, 0
1, 301560, Note_on_c, 0, 81, 47
1, 301680, Tempo, 480000
1, 301680, Note_on_c, 0, 81, 0
1, 301680, Note_on_c, 0, 72, 53
1, 301680, Note_on_c, 0, 52, 46
1, 301680, Note_on_c, 0, 58, 46
1, 301680, Note_on_c, 0, 60, 46
1, 301800, Note_on_c, 0, 72, 0
1, 301800, Note_on_c, 0, 76, 50
1, 301920, Note_on_c, 0, 76, 0
1, 301920, Note_on_c, 0, 79, 61
1, 301966, Control_c, 0, 64, 0
1, 302040, Note_on_c, 0, 79, 0
1, 302040, Note_on_c, 0, 82, 66
1, 302160, Note_on_c, 0, 82, 0
1, 302160, Note_on_c, 0, 52, 0
1, 302160, Note_on_c, 0, 81, 53
1, 302160, Note_on_c, 0, 53, 46
1, 302280, Note_on_c, 0, 81, 0
1, 302280, Note_on_c, 0, 79, 49
1, 302400, Tempo, 474308
1, 302400, Note_on_c, 0, 79, 0
1, 302400, Note_on_c, 0, 53, 0
1, 302400, Note_on_c, 0, 77, 67
1, 302400, Note_on_c, 0, 55, 46
1, 302520, Note_on_c, 0, 77, 0
1, 302520, Note_on_c, 0, 76, 57
1, 302640, Note_on_c, 0, 76, 0
1, 302640, Note_on_c, 0, 55, 0
1, 302640, Note_on_c, 0, 58, 0
1, 302640, Note_on_c, 0, 60, 0
1, 302640, Note_on_c, 0, 74, 64
1, 302640, Note_on_c, 0, 53, 47
1, 302640, Note_on_c, 0, 60, 47
1, 302640, Note_on_c, 0, 58, 47
1, 302760, Note_on_c, 0, 58, 0
1, 302760, Note_on_c, 0, 74, 0
1, 302760, Note_on_c, 0, 53, 0
1, 302760, Note_on_c, 0, 60, 0
1, 302760, Note_on_c, 0, 73, 65
1, 302863, Tempo, 472441
1, 302880, Note_on_c, 0, 73, 0
1, 302880, Note_on_c, 0, 72, 67
1, 302880, Note_on_c, 0, 58, 51
1, 302880, Note_on_c, 0, 52, 51
1, 302880, Note_on_c, 0, 60, 51
1, 302902, Tempo, 474308
1, 302921, Tempo, 476190
1, 302959, Tempo, 478088
1, 302979, Tempo, 480000
1, 303000, Note_on_c, 0, 60, 0
1, 303000, Note_on_c, 0, 72, 0
1, 303000, Note_on_c, 0, 58, 0
1, 303000, Note_on_c, 0, 52, 0
1, 303000, Note_on_c, 0, 70, 68
1, 303017, Tempo, 481928
1, 303036, Tempo, 483871
1, 303075, Tempo, 485830
1, 303094, Tempo, 487805
1, 303120, Note_on_c, 0, 70, 0
1, 303120, Note_on_c, 0, 69, 69
1, 303120, Note_on_c, 0, 60, 55
1, 303120, Note_on_c, 0, 58, 55
1, 303120, Note_on_c, 0, 48, 55
1, 303132, Tempo, 489796
1, 303151, Tempo, 491803
1, 303190, Tempo, 493827
1, 303209, Tempo, 495868
1, 303240, Note_on_c, 0, 48, 0
1, 303240, Note_on_c, 0, 69, 0
1, 303240, Note_on_c, 0, 60, 0
1, 303240, Note_on_c, 0, 58, 0
1, 303240, Note_on_c, 0, 67, 71
1, 303247, Tempo, 497925
1, 303267, Tempo, 500000
1, 303305, Tempo, 502092
1, 303324, Tempo, 504202
1, 303343, Tempo, 506329
1, 303360, Note_on_c, 0, 67, 0
1, 303360, Note_on_c, 0, 65, 75
1, 303360, Note_on_c, 0, 53, 59
1, 303360, Note_on_c, 0, 60, 59
1, 303360, Note_on_c, 0, 57, 59
1, 303503, Control_c, 0, 64, 0
1, 303600, Tempo, 481928
1, 303600, Note_on_c, 0, 57, 0
1, 303600, Note_on_c, 0, 65, 0
1, 303600, Note_on_c, 0, 53, 0
1, 303600, Note_on_c, 0, 60, 0
1, 303600, Note_on_c, 0, 53, 72
1, 303600, Note_on_c, 0, 41, 66
1, 303720, Note_on_c, 0, 41, 0
1, 303720, Note_on_c, 0, 53, 0
1, 303840, Note_on_c, 0, 53, 72
1, 303840, Note_on_c, 0, 41, 66
1, 303960, Note_on_c, 0, 41, 0
1, 303960, Note_on_c, 0, 53, 0
1, 304080, Tempo, 524017
1, 304080, Note_on_c, 0, 53, 72
1, 304080, Note_on_c, 0, 41, 66
1, 304200, Note_on_c, 0, 41, 0
1, 304200, Note_on_c, 0, 53, 0
1, 304320, Tempo, 481928
1, 304320, Note_on_c, 0, 52, 78
1, 304320, Note_on_c, 0, 40, 69
1, 304348, Control_c, 0, 64, 127
1, 304560, Note_on_c, 0, 40, 0
1, 304560, Note_on_c, 0, 52, 0
1, 304560, Note_on_c, 0, 53, 69
1, 304560, Note_on_c, 0, 41, 65
1, 304569, Control_c, 0, 64, 0
1, 304680, Note_on_c, 0, 41, 0
1, 304680, Note_on_c, 0, 53, 0
1, 304800, Note_on_c, 0, 53, 69
1, 304800, Note_on_c, 0, 41, 65
1, 304920, Note_on_c, 0, 41, 0
1, 304920, Note_on_c, 0, 53, 0
1, 305040, Tempo, 504202
1, 305040, Note_on_c, 0, 53, 69
1, 305040, Note_on_c, 0, 41, 65
1, 305160, Note_on_c, 0, 41, 0
1, 305160, Note_on_c, 0, 53, 0
1, 305280, Tempo, 478088
1, 305280, Note_on_c, 0, 54, 72
1, 305280, Note_on_c, 0, 42, 68
1, 305640, Note_on_c, 0, 42, 0
1, 305640, Note_on_c, 0, 54, 0
1, 305640, Note_on_c, 0, 55, 64
1, 305640, Note_on_c, 0, 43, 60
1, 305700, Note_on_c, 0, 43, 0
1, 305700, Note_on_c, 0, 55, 0
1, 305700, Note_on_c, 0, 57, 59
1, 305700, Note_on_c, 0, 45, 56
1, 305760, Note_on_c, 0, 45, 0
1, 305760, Note_on_c, 0, 57, 0
1, 305760, Note_on_c, 0, 55, 72
1, 305760, Note_on_c, 0, 43, 68
1, 306120, Note_on_c, 0, 43, 0
1, 306120, Note_on_c, 0, 55, 0
1, 306120, Note_on_c, 0, 57, 65
1, 306120, Note_on_c, 0, 45, 62
1, 306180, Note_on_c, 0, 45, 0
1, 306180, Note_on_c, 0, 57, 0
1, 306180, Note_on_c, 0, 58, 62
1, 306180, Note_on_c, 0, 46, 58
1, 306202, Tempo, 459770
1, 306240, Note_on_c, 0, 46, 0
1, 306240, Note_on_c, 0, 58, 0
1, 306240, Note_on_c, 0, 60, 72
1, 306240, Note_on_c, 0, 48, 68
1, 306298, Tempo, 458015
1, 306360, Note_on_c, 0, 48, 0
1, 306360, Note_on_c, 0, 60, 0
1, 306394, Tempo, 456274
1, 306480, Note_on_c, 0, 64, 70
1, 306480, Note_on_c, 0, 58, 66
1, 306480, Note_on_c, 0, 55, 56
1, 306480, Note_on_c, 0, 48, 56
1, 306490, Tempo, 454545
1, 306526, Control_c, 0, 64, 127
1, 306586, Tempo, 452830
1, 306600, Note_on_c, 0, 64, 0
1, 306600, Note_on_c, 0, 67, 70
1, 306682, Tempo, 451128
1, 306720, Note_on_c, 0, 67, 0
1, 306720, Note_on_c, 0, 48, 0
1, 306720, Note_on_c, 0, 55, 0
1, 306720, Note_on_c, 0, 58, 0
1, 306720, Note_on_c, 0, 72, 67
1, 306720, Note_on_c, 0, 55, 56
1, 306720, Note_on_c, 0, 58, 66
1, 306720, Note_on_c, 0, 48, 56
1, 306778, Tempo, 449438
1, 306840, Note_on_c, 0, 72, 0
1, 306840, Note_on_c, 0, 76, 70
1, 306855, Tempo, 447761
1, 306874, Tempo, 449438
1, 306893, Tempo, 451128
1, 306913, Tempo, 452830
1, 306932, Tempo, 454545
1, 306951, Tempo, 456274
1, 306960, Note_on_c, 0, 76, 0
1, 306960, Note_on_c, 0, 48, 0
1, 306960, Note_on_c, 0, 58, 0
1, 306960, Note_on_c, 0, 55, 0
1, 306960, Note_on_c, 0, 79, 73
1, 306960, Note_on_c, 0, 48, 56
1, 306960, Note_on_c, 0, 55, 56
1, 306960, Note_on_c, 0, 58, 66
1, 306970, Tempo, 458015
1, 306989, Tempo, 459770
1, 307009, Tempo, 461538
1, 307028, Tempo, 463320
1, 307047, Tempo, 465116
1, 307066, Tempo, 466926
1, 307080, Note_on_c, 0, 79, 0
1, 307080, Note_on_c, 0, 84, 75
1, 307085, Tempo, 468750
1, 307105, Tempo, 470588
1, 307124, Tempo, 472441
1, 307143, Tempo, 474308
1, 307162, Tempo, 476190
1, 307181, Tempo, 478088
1, 307200, Tempo, 476190
1, 307200, Note_on_c, 0, 84, 0
1, 307200, Note_on_c, 0, 58, 0
1, 307200, Note_on_c, 0, 55, 0
1, 307200, Note_on_c, 0, 48, 0
1, 307200, Note_on_c, 0, 77, 78
1, 307200, Note_on_c, 0, 53, 61
1, 307200, Note_on_c, 0, 57, 72
1, 307210, Control_c, 0, 64, 0
1, 307440, Tempo, 481928
1, 307440, Note_on_c, 0, 57, 0
1, 307440, Note_on_c, 0, 53, 0
1, 307440, Note_on_c, 0, 77, 0
1, 307440, Note_on_c, 0, 53, 72
1, 307440, Note_on_c, 0, 41, 66
1, 307560, Note_on_c, 0, 41, 0
1, 307560, Note_on_c, 0, 53, 0
1, 307680, Note_on_c, 0, 53, 72
1, 307680, Note_on_c, 0, 41, 66
1, 307800, Note_on_c, 0, 41, 0
1, 307800, Note_on_c, 0, 53, 0
1, 307920, Tempo, 524017
1, 307920, Note_on_c, 0, 53, 72
1, 307920, Note_on_c, 0, 41, 66
1, 308040, Note_on_c, 0, 41, 0
1, 308040, Note_on_c, 0, 53, 0
1, 308160, Tempo, 481928
1, 308160, Note_on_c, 0, 52, 78
1, 308160, Note_on_c, 0, 40, 69
1, 308188, Control_c, 0, 64, 127
1, 308400, Note_on_c, 0, 40, 0
1, 308400, Note_on_c, 0, 52, 0
1, 308400, Note_on_c, 0, 53, 69
1, 308400, Note_on_c, 0, 41, 65
1, 308409, Control_c, 0, 64, 0
1, 308520, Note_on_c, 0, 41, 0
1, 308520, Note_on_c, 0, 53, 0
1, 308640, Note_on_c, 0, 53, 69
1, 308640, Note_on_c, 0, 41, 65
1, 308760, Note_on_c, 0, 41, 0
1, 308760, Note_on_c, 0, 53, 0
1, 308880, Tempo, 504202
1, 308880, Note_on_c, 0, 53, 69
1, 308880, Note_on_c, 0, 41, 65
1, 309000, Note_on_c, 0, 41, 0
1, 309000, Note_on_c, 0, 53, 0
1, 309120, Tempo, 478088
1, 309120, Note_on_c, 0, 54, 72
1, 309120, Note_on_c, 0, 42, 68
1, 309480, Note_on_c, 0, 42, 0
1, 309480, Note_on_c, 0, 54, 0
1, 309480, Note_on_c, 0, 55, 64
1, 309480, Note_on_c, 0, 43, 60
1, 309540, Note_on_c, 0, 43, 0
1, 309540, Note_on_c, 0, 55, 0
1, 309540, Note_on_c, 0, 57, 59
1, 309540, Note_on_c, 0, 45, 55
1, 309600, Note_on_c, 0, 45, 0
1, 309600, Note_on_c, 0, 57, 0
1, 309600, Note_on_c, 0, 55, 72
1, 309600, Note_on_c, 0, 43, 68
1, 309960, Note_on_c, 0, 43, 0
1, 309960, Note_on_c, 0, 55, 0
1, 309960, Note_on_c, 0, 57, 65
1, 309960, Note_on_c, 0, 45, 62
1, 310020, Note_on_c, 0, 45, 0
1, 310020, Note_on_c, 0, 57, 0
1, 310020, Note_on_c, 0, 58, 60
1, 310020, Note_on_c, 0, 46, 57
1, 310042, Tempo, 459770
1, 310080, Note_on_c, 0, 46, 0
1, 310080, Note_on_c, 0, 58, 0
1, 310080, Note_on_c, 0, 60, 72
1, 310080, Note_on_c, 0, 48, 68
1, 310138, Tempo, 458015
1, 310200, Note_on_c, 0, 48, 0
1, 310200, Note_on_c, 0, 60, 0
1, 310234, Tempo, 456274
1, 310320, Note_on_c, 0, 61, 70
1, 310320, Note_on_c, 0, 55, 66
1, 310320, Note_on_c, 0, 52, 56
1, 310320, Note_on_c, 0, 45, 56
1, 310330, Tempo, 454545
1, 310366, Control_c, 0, 64, 127
1, 310426, Tempo, 452830
1, 310440, Note_on_c, 0, 61, 0
1, 310440, Note_on_c, 0, 64, 70
1, 310522, Tempo, 451128
1, 310560, Note_on_c, 0, 64, 0
1, 310560, Note_on_c, 0, 45, 0
1, 310560, Note_on_c, 0, 52, 0
1, 310560, Note_on_c, 0, 55, 0
1, 310560, Note_on_c, 0, 69, 67
1, 310560, Note_on_c, 0, 55, 66
1, 310560, Note_on_c, 0, 45, 56
1, 310560, Note_on_c, 0, 52, 56
1, 310618, Tempo, 449438
1, 310680, Note_on_c, 0, 69, 0
1, 310680, Note_on_c, 0, 73, 70
1, 310695, Tempo, 447761
1, 310714, Tempo, 449438
1, 310733, Tempo, 451128
1, 310753, Tempo, 452830
1, 310772, Tempo, 454545
1, 310791, Tempo, 456274
1, 310800, Note_on_c, 0, 73, 0
1, 310800, Note_on_c, 0, 52, 0
1, 310800, Note_on_c, 0, 45, 0
1, 310800, Note_on_c, 0, 55, 0
1, 310800, Note_on_c, 0, 76, 73
1, 310800, Note_on_c, 0, 55, 66
1, 310800, Note_on_c, 0, 45, 56
1, 310800, Note_on_c, 0, 52, 56
1, 310810, Tempo, 458015
1, 310829, Tempo, 459770
1, 310849, Tempo, 461538
1, 310868, Tempo, 463320
1, 310887, Tempo, 465116
1, 310906, Tempo, 466926
1, 310920, Note_on_c, 0, 76, 0
1, 310920, Note_on_c, 0, 81, 75
1, 310925, Tempo, 468750
1, 310945, Tempo, 470588
1, 310964, Tempo, 472441
1, 310983, Tempo, 474308
1, 311002, Tempo, 476190
1, 311021, Tempo, 478088
1, 311040, Tempo, 476190
1, 311040, Note_on_c, 0, 81, 0
1, 311040, Note_on_c, 0, 52, 0
1, 311040, Note_on_c, 0, 45, 0
1, 311040, Note_on_c, 0, 55, 0
1, 311040, Note_on_c, 0, 74, 78
1, 311040, Note_on_c, 0, 50, 61
1, 311040, Note_on_c, 0, 53, 72
1, 311050, Control_c, 0, 64, 0
1, 311280, Tempo, 481928
1, 311280, Note_on_c, 0, 53, 0
1, 311280, Note_on_c, 0, 50, 0
1, 311280, Note_on_c, 0, 74, 0
1, 311280, Note_on_c, 0, 62, 72
1, 311280, Note_on_c, 0, 53, 61
1, 311280, Note_on_c, 0, 46, 56
1, 311280, Note_on_c, 0, 50, 66
1, 311400, Note_on_c, 0, 50, 0
1, 311400, Note_on_c, 0, 62, 0
1, 311400, Note_on_c, 0, 53, 0
1, 311400, Note_on_c, 0, 46, 0
1, 311520, Note_on_c, 0, 53, 61
1, 311520, Note_on_c, 0, 62, 72
1, 311520, Note_on_c, 0, 50, 66
1, 311520, Note_on_c, 0, 46, 56
1, 311640, Note_on_c, 0, 46, 0
1, 311640, Note_on_c, 0, 53, 0
1, 311640, Note_on_c, 0, 62, 0
1, 311640, Note_on_c, 0, 50, 0
1, 311760, Tempo, 502092
1, 311760, Note_on_c, 0, 53, 61
1, 311760, Note_on_c, 0, 62, 72
1, 311760, Note_on_c, 0, 50, 66
1, 311760, Note_on_c, 0, 46, 56
1, 311880, Note_on_c, 0, 46, 0
1, 311880, Note_on_c, 0, 53, 0
1, 311880, Note_on_c, 0, 62, 0
1, 311880, Note_on_c, 0, 50, 0
1, 312000, Tempo, 481928
1, 312000, Note_on_c, 0, 53, 61
1, 312000, Note_on_c, 0, 61, 78
1, 312000, Note_on_c, 0, 45, 58
1, 312000, Note_on_c, 0, 49, 69
1, 312028, Control_c, 0, 64, 127
1, 312240, Note_on_c, 0, 49, 0
1, 312240, Note_on_c, 0, 53, 0
1, 312240, Note_on_c, 0, 61, 0
1, 312240, Note_on_c, 0, 45, 0
1, 312240, Note_on_c, 0, 53, 58
1, 312240, Note_on_c, 0, 62, 69
1, 312240, Note_on_c, 0, 50, 65
1, 312240, Note_on_c, 0, 46, 55
1, 312249, Control_c, 0, 64, 0
1, 312360, Note_on_c, 0, 46, 0
1, 312360, Note_on_c, 0, 53, 0
1, 312360, Note_on_c, 0, 62, 0
1, 312360, Note_on_c, 0, 50, 0
1, 312480, Note_on_c, 0, 62, 69
1, 312480, Note_on_c, 0, 53, 58
1, 312480, Note_on_c, 0, 50, 65
1, 312480, Note_on_c, 0, 46, 55
1, 312600, Note_on_c, 0, 46, 0
1, 312600, Note_on_c, 0, 62, 0
1, 312600, Note_on_c, 0, 53, 0
1, 312600, Note_on_c, 0, 50, 0
1, 312720, Tempo, 504202
1, 312720, Note_on_c, 0, 53, 58
1, 312720, Note_on_c, 0, 62, 69
1, 312720, Note_on_c, 0, 46, 55
1, 312720, Note_on_c, 0, 50, 65
1, 312840, Note_on_c, 0, 50, 0
1, 312840, Note_on_c, 0, 53, 0
1, 312840, Note_on_c, 0, 62, 0
1, 312840, Note_on_c, 0, 46, 0
1, 312960, Tempo, 478088
1, 312960, Note_on_c, 0, 62, 72
1, 312960, Note_on_c, 0, 56, 61
1, 312960, Note_on_c, 0, 47, 57
1, 312960, Note_on_c, 0, 50, 68
1, 313320, Note_on_c, 0, 50, 0
1, 313320, Note_on_c, 0, 62, 0
1, 313320, Note_on_c, 0, 63, 64
1, 313320, Note_on_c, 0, 51, 60
1, 313380, Note_on_c, 0, 51, 0
1, 313380, Note_on_c, 0, 63, 0
1, 313380, Note_on_c, 0, 65, 59
1, 313380, Note_on_c, 0, 53, 56
1, 313440, Note_on_c, 0, 53, 0
1, 313440, Note_on_c, 0, 56, 0
1, 313440, Note_on_c, 0, 47, 0
1, 313440, Note_on_c, 0, 65, 0
1, 313440, Note_on_c, 0, 63, 72
1, 313440, Note_on_c, 0, 55, 61
1, 313440, Note_on_c, 0, 48, 57
1, 313440, Note_on_c, 0, 51, 68
1, 313680, Note_on_c, 0, 55, 0
1, 313800, Note_on_c, 0, 63, 0
1, 313800, Note_on_c, 0, 51, 0
1, 313800, Note_on_c, 0, 65, 65
1, 313800, Note_on_c, 0, 53, 62
1, 313860, Note_on_c, 0, 53, 0
1, 313860, Note_on_c, 0, 65, 0
1, 313860, Note_on_c, 0, 66, 61
1, 313860, Note_on_c, 0, 54, 58
1, 313882, Tempo, 459770
1, 313920, Note_on_c, 0, 54, 0
1, 313920, Note_on_c, 0, 66, 0
1, 313920, Note_on_c, 0, 48, 0
1, 313920, Note_on_c, 0, 65, 72
1, 313920, Note_on_c, 0, 63, 61
1, 313920, Note_on_c, 0, 57, 61
1, 313920, Note_on_c, 0, 41, 57
1, 313920, Note_on_c, 0, 48, 68
1, 313978, Tempo, 458015
1, 314040, Note_on_c, 0, 48, 0
1, 314040, Note_on_c, 0, 57, 0
1, 314040, Note_on_c, 0, 65, 0
1, 314040, Note_on_c, 0, 63, 0
1, 314040, Note_on_c, 0, 41, 0
1, 314074, Tempo, 456274
1, 314160, Note_on_c, 0, 69, 70
1, 314160, Note_on_c, 0, 60, 56
1, 314160, Note_on_c, 0, 53, 56
1, 314160, Note_on_c, 0, 63, 66
1, 314170, Tempo, 454545
1, 314206, Control_c, 0, 64, 127
1, 314266, Tempo, 452830
1, 314280, Note_on_c, 0, 69, 0
1, 314280, Note_on_c, 0, 72, 70
1, 314362, Tempo, 451128
1, 314400, Note_on_c, 0, 72, 0
1, 314400, Note_on_c, 0, 63, 0
1, 314400, Note_on_c, 0, 53, 0
1, 314400, Note_on_c, 0, 60, 0
1, 314400, Note_on_c, 0, 77, 67
1, 314400, Note_on_c, 0, 60, 56
1, 314400, Note_on_c, 0, 63, 66
1, 314400, Note_on_c, 0, 53, 56
1, 314458, Tempo, 449438
1, 314520, Note_on_c, 0, 77, 0
1, 314520, Note_on_c, 0, 81, 70
1, 314535, Tempo, 447761
1, 314554, Tempo, 449438
1, 314573, Tempo, 451128
1, 314593, Tempo, 452830
1, 314612, Tempo, 454545
1, 314631, Tempo, 456274
1, 314640, Note_on_c, 0, 81, 0
1, 314640, Note_on_c, 0, 53, 0
1, 314640, Note_on_c, 0, 63, 0
1, 314640, Note_on_c, 0, 60, 0
1, 314640, Note_on_c, 0, 84, 73
1, 314640, Note_on_c, 0, 53, 56
1, 314640, Note_on_c, 0, 60, 56
1, 314640, Note_on_c, 0, 63, 66
1, 314650, Tempo, 458015
1, 314669, Tempo, 459770
1, 314689, Tempo, 461538
1, 314708, Tempo, 463320
1, 314727, Tempo, 465116
1, 314746, Tempo, 466926
1, 314760, Note_on_c, 0, 84, 0
1, 314760, Note_on_c, 0, 89, 75
1, 314765, Tempo, 468750
1, 314785, Tempo, 470588
1, 314804, Tempo, 472441
1, 314823, Tempo, 474308
1, 314842, Tempo, 476190
1, 314861, Tempo, 478088
1, 314880, Tempo, 476190
1, 314880, Note_on_c, 0, 89, 0
1, 314880, Note_on_c, 0, 63, 0
1, 314880, Note_on_c, 0, 60, 0
1, 314880, Note_on_c, 0, 53, 0
1, 314880, Note_on_c, 0, 82, 78
1, 314880, Note_on_c, 0, 58, 61
1, 314880, Note_on_c, 0, 62, 72
1, 314890, Control_c, 0, 64, 0
1, 315120, Tempo, 481928
1, 315120, Note_on_c, 0, 62, 0
1, 315120, Note_on_c, 0, 58, 0
1, 315120, Note_on_c, 0, 82, 0
1, 315120, Note_on_c, 0, 62, 72
1, 315120, Note_on_c, 0, 53, 61
1, 315120, Note_on_c, 0, 50, 66
1, 315120, Note_on_c, 0, 46, 56
1, 315156, Control_c, 0, 64, 127
1, 315240, Note_on_c, 0, 46, 0
1, 315240, Note_on_c, 0, 62, 0
1, 315240, Note_on_c, 0, 53, 0
1, 315240, Note_on_c, 0, 50, 0
1, 315360, Note_on_c, 0, 53, 61
1, 315360, Note_on_c, 0, 62, 72
1, 315360, Note_on_c, 0, 46, 56
1, 315360, Note_on_c, 0, 50, 66
1, 315480, Note_on_c, 0, 50, 0
1, 315480, Note_on_c, 0, 53, 0
1, 315480, Note_on_c, 0, 62, 0
1, 315480, Note_on_c, 0, 46, 0
1, 315600, Tempo, 493827
1, 315600, Note_on_c, 0, 53, 61
1, 315600, Note_on_c, 0, 62, 72
1, 315600, Note_on_c, 0, 46, 56
1, 315600, Note_on_c, 0, 50, 66
1, 315720, Note_on_c, 0, 50, 0
1, 315720, Note_on_c, 0, 53, 0
1, 315720, Note_on_c, 0, 62, 0
1, 315720, Note_on_c, 0, 46, 0
1, 315840, Tempo, 481928
1, 315840, Note_on_c, 0, 61, 78
1, 315840, Note_on_c, 0, 53, 61
1, 315840, Note_on_c, 0, 49, 69
1, 315840, Note_on_c, 0, 45, 58
1, 315846, Control_c, 0, 64, 0
1, 315932, Control_c, 0, 64, 127
1, 316080, Note_on_c, 0, 45, 0
1, 316080, Note_on_c, 0, 61, 0
1, 316080, Note_on_c, 0, 53, 0
1, 316080, Note_on_c, 0, 49, 0
1, 316080, Note_on_c, 0, 53, 58
1, 316080, Note_on_c, 0, 62, 69
1, 316080, Note_on_c, 0, 50, 65
1, 316080, Note_on_c, 0, 46, 55
1, 316089, Control_c, 0, 64, 0
1, 316200, Note_on_c, 0, 46, 0
1, 316200, Note_on_c, 0, 53, 0
1, 316200, Note_on_c, 0, 62, 0
1, 316200, Note_on_c, 0, 50, 0
1, 316320, Note_on_c, 0, 62, 69
1, 316320, Note_on_c, 0, 53, 58
1, 316320, Note_on_c, 0, 50, 65
1, 316320, Note_on_c, 0, 46, 55
1, 316440, Note_on_c, 0, 46, 0
1, 316440, Note_on_c, 0, 62, 0
1, 316440, Note_on_c, 0, 53, 0
1, 316440, Note_on_c, 0, 50, 0
1, 316560, Tempo, 504202
1, 316560, Note_on_c, 0, 53, 58
1, 316560, Note_on_c, 0, 62, 69
1, 316560, Note_on_c, 0, 46, 55
1, 316560, Note_on_c, 0, 50, 65
1, 316680, Note_on_c, 0, 50, 0
1, 316680, Note_on_c, 0, 53, 0
1, 316680, Note_on_c, 0, 62, 0
1, 316680, Note_on_c, 0, 46, 0
1, 316800, Tempo, 472441
1, 316800, Note_on_c, 0, 68, 78
1, 316800, Note_on_c, 0, 62, 61
1, 316800, Note_on_c, 0, 59, 61
1, 316800, Note_on_c, 0, 44, 58
1, 316800, Note_on_c, 0, 50, 58
1, 316800, Note_on_c, 0, 53, 69
1, 316871, Control_c, 0, 64, 127
1, 317040, Tempo, 480000
1, 317040, Note_on_c, 0, 53, 0
1, 317040, Note_on_c, 0, 62, 0
1, 317040, Note_on_c, 0, 59, 0
1, 317040, Note_on_c, 0, 68, 0
1, 317040, Note_on_c, 0, 50, 0
1, 317040, Note_on_c, 0, 44, 0
1, 317040, Note_on_c, 0, 59, 58
1, 317040, Note_on_c, 0, 62, 58
1, 317040, Note_on_c, 0, 67, 69
1, 317040, Note_on_c, 0, 43, 55
1, 317040, Note_on_c, 0, 53, 65
1, 317040, Note_on_c, 0, 50, 55
1, 317049, Control_c, 0, 64, 0
1, 317160, Note_on_c, 0, 50, 0
1, 317160, Note_on_c, 0, 62, 0
1, 317160, Note_on_c, 0, 67, 0
1, 317160, Note_on_c, 0, 59, 0
1, 317160, Note_on_c, 0, 53, 0
1, 317160, Note_on_c, 0, 43, 0
1, 317280, Tempo, 472441
1, 317280, Note_on_c, 0, 59, 58
1, 317280, Note_on_c, 0, 62, 58
1, 317280, Note_on_c, 0, 67, 69
1, 317280, Note_on_c, 0, 43, 55
1, 317280, Note_on_c, 0, 53, 65
1, 317280, Note_on_c, 0, 50, 55
1, 317400, Note_on_c, 0, 50, 0
1, 317400, Note_on_c, 0, 62, 0
1, 317400, Note_on_c, 0, 67, 0
1, 317400, Note_on_c, 0, 59, 0
1, 317400, Note_on_c, 0, 53, 0
1, 317400, Note_on_c, 0, 43, 0
1, 317520, Tempo, 487805
1, 317520, Note_on_c, 0, 62, 58
1, 317520, Note_on_c, 0, 67, 69
1, 317520, Note_on_c, 0, 59, 58
1, 317520, Note_on_c, 0, 50, 55
1, 317520, Note_on_c, 0, 53, 65
1, 317520, Note_on_c, 0, 43, 55
1, 317640, Note_on_c, 0, 43, 0
1, 317640, Note_on_c, 0, 67, 0
1, 317640, Note_on_c, 0, 59, 0
1, 317640, Note_on_c, 0, 62, 0
1, 317640, Note_on_c, 0, 53, 0
1, 317640, Note_on_c, 0, 50, 0
1, 317760, Tempo, 459770
1, 317760, Note_on_c, 0, 64, 72
1, 317760, Note_on_c, 0, 60, 61
1, 317760, Note_on_c, 0, 48, 57
1, 317760, Note_on_c, 0, 52, 68
1, 317818, Tempo, 458015
1, 317880, Note_on_c, 0, 52, 0
1, 317880, Note_on_c, 0, 64, 0
1, 317880, Note_on_c, 0, 60, 0
1, 317880, Note_on_c, 0, 48, 0
1, 317914, Tempo, 456274
1, 318000, Note_on_c, 0, 64, 70
1, 318000, Note_on_c, 0, 60, 56
1, 318010, Tempo, 454545
1, 318046, Control_c, 0, 64, 127
1, 318106, Tempo, 452830
1, 318120, Note_on_c, 0, 67, 70
1, 318202, Tempo, 451128
1, 318240, Note_on_c, 0, 67, 0
1, 318240, Note_on_c, 0, 60, 0
1, 318240, Note_on_c, 0, 64, 0
1, 318240, Note_on_c, 0, 72, 67
1, 318240, Note_on_c, 0, 64, 66
1, 318240, Note_on_c, 0, 60, 56
1, 318298, Tempo, 449438
1, 318360, Note_on_c, 0, 72, 0
1, 318360, Note_on_c, 0, 76, 70
1, 318375, Tempo, 447761
1, 318394, Tempo, 449438
1, 318413, Tempo, 451128
1, 318433, Tempo, 452830
1, 318452, Tempo, 454545
1, 318471, Tempo, 456274
1, 318480, Note_on_c, 0, 76, 0
1, 318480, Note_on_c, 0, 60, 0
1, 318480, Note_on_c, 0, 64, 0
1, 318480, Note_on_c, 0, 79, 73
1, 318480, Note_on_c, 0, 64, 66
1, 318480, Note_on_c, 0, 60, 56
1, 318490, Tempo, 458015
1, 318509, Tempo, 459770
1, 318529, Tempo, 461538
1, 318548, Tempo, 463320
1, 318567, Tempo, 465116
1, 318586, Tempo, 466926
1, 318600, Note_on_c, 0, 79, 0
1, 318600, Note_on_c, 0, 84, 75
1, 318605, Tempo, 468750
1, 318625, Tempo, 470588
1, 318644, Tempo, 472441
1, 318663, Tempo, 474308
1, 318682, Tempo, 476190
1, 318701, Tempo, 478088
1, 318720, Tempo, 465116
1, 318720, Note_on_c, 0, 84, 0
1, 318720, Note_on_c, 0, 60, 0
1, 318720, Note_on_c, 0, 64, 0
1, 318720, Note_on_c, 0, 61, 61
1, 318720, Note_on_c, 0, 70, 78
1, 318720, Note_on_c, 0, 64, 61
1, 318720, Note_on_c, 0, 46, 58
1, 318720, Note_on_c, 0, 55, 69
1, 318720, Note_on_c, 0, 52, 58
1, 318726, Control_c, 0, 64, 0
1, 318790, Control_c, 0, 64, 127
1, 318960, Tempo, 476190
1, 318960, Note_on_c, 0, 52, 0
1, 318960, Note_on_c, 0, 70, 0
1, 318960, Note_on_c, 0, 64, 0
1, 318960, Note_on_c, 0, 61, 0
1, 318960, Note_on_c, 0, 55, 0
1, 318960, Note_on_c, 0, 46, 0
1, 318960, Note_on_c, 0, 64, 58
1, 318960, Note_on_c, 0, 69, 69
1, 318960, Note_on_c, 0, 61, 58
1, 318960, Note_on_c, 0, 55, 65
1, 318960, Note_on_c, 0, 52, 55
1, 318960, Note_on_c, 0, 45, 55
1, 318969, Control_c, 0, 64, 0
1, 319063, Control_c, 0, 64, 127
1, 319080, Note_on_c, 0, 45, 0
1, 319080, Note_on_c, 0, 69, 0
1, 319080, Note_on_c, 0, 61, 0
1, 319080, Note_on_c, 0, 64, 0
1, 319080, Note_on_c, 0, 52, 0
1, 319080, Note_on_c, 0, 55, 0
1, 319200, Tempo, 466926
1, 319200, Note_on_c, 0, 64, 58
1, 319200, Note_on_c, 0, 69, 69
1, 319200, Note_on_c, 0, 61, 58
1, 319200, Note_on_c, 0, 55, 65
1, 319200, Note_on_c, 0, 45, 55
1, 319200, Note_on_c, 0, 52, 55
1, 319320, Note_on_c, 0, 52, 0
1, 319320, Note_on_c, 0, 69, 0
1, 319320, Note_on_c, 0, 61, 0
1, 319320, Note_on_c, 0, 64, 0
1, 319320, Note_on_c, 0, 45, 0
1, 319320, Note_on_c, 0, 55, 0
1, 319440, Tempo, 504202
1, 319440, Note_on_c, 0, 64, 58
1, 319440, Note_on_c, 0, 61, 58
1, 319440, Note_on_c, 0, 69, 69
1, 319440, Note_on_c, 0, 45, 55
1, 319440, Note_on_c, 0, 55, 65
1, 319440, Note_on_c, 0, 52, 55
1, 319560, Note_on_c, 0, 52, 0
1, 319560, Note_on_c, 0, 61, 0
1, 319560, Note_on_c, 0, 69, 0
1, 319560, Note_on_c, 0, 64, 0
1, 319560, Note_on_c, 0, 55, 0
1, 319560, Note_on_c, 0, 45, 0
1, 319680, Tempo, 459770
1, 319680, Note_on_c, 0, 62, 61
1, 319680, Note_on_c, 0, 66, 72
1, 319680, Note_on_c, 0, 50, 57
1, 319680, Note_on_c, 0, 54, 68
1, 319693, Control_c, 0, 64, 0
1, 319738, Tempo, 458015
1, 319800, Note_on_c, 0, 54, 0
1, 319800, Note_on_c, 0, 62, 0
1, 319800, Note_on_c, 0, 66, 0
1, 319800, Note_on_c, 0, 50, 0
1, 319834, Tempo, 456274
1, 319920, Note_on_c, 0, 66, 70
1, 319920, Note_on_c, 0, 62, 56
1, 319930, Tempo, 454545
1, 320017, Control_c, 0, 64, 127
1, 320026, Tempo, 452830
1, 320040, Note_on_c, 0, 69, 70
1, 320122, Tempo, 451128
1, 320160, Note_on_c, 0, 69, 0
1, 320160, Note_on_c, 0, 62, 0
1, 320160, Note_on_c, 0, 66, 0
1, 320160, Note_on_c, 0, 74, 67
1, 320160, Note_on_c, 0, 62, 56
1, 320160, Note_on_c, 0, 66, 66
1, 320218, Tempo, 449438
1, 320280, Note_on_c, 0, 74, 0
1, 320280, Note_on_c, 0, 78, 70
1, 320295, Tempo, 447761
1, 320314, Tempo, 449438
1, 320333, Tempo, 451128
1, 320353, Tempo, 452830
1, 320372, Tempo, 454545
1, 320391, Tempo, 456274
1, 320400, Note_on_c, 0, 78, 0
1, 320400, Note_on_c, 0, 66, 0
1, 320400, Note_on_c, 0, 62, 0
1, 320400, Note_on_c, 0, 81, 73
1, 320400, Note_on_c, 0, 66, 66
1, 320400, Note_on_c, 0, 62, 56
1, 320410, Tempo, 458015
1, 320429, Tempo, 459770
1, 320449, Tempo, 461538
1, 320468, Tempo, 463320
1, 320487, Tempo, 465116
1, 320506, Tempo, 466926
1, 320520, Note_on_c, 0, 81, 0
1, 320520, Note_on_c, 0, 86, 75
1, 320525, Tempo, 468750
1, 320545, Tempo, 470588
1, 320564, Tempo, 472441
1, 320583, Tempo, 474308
1, 320602, Tempo, 476190
1, 320621, Tempo, 478088
1, 320640, Tempo, 517241
1, 320640, Note_on_c, 0, 86, 0
1, 320640, Note_on_c, 0, 62, 0
1, 320640, Note_on_c, 0, 66, 0
1, 320640, Note_on_c, 0, 75, 73
1, 320640, Note_on_c, 0, 87, 87
1, 320640, Note_on_c, 0, 51, 51
1, 320640, Note_on_c, 0, 63, 60
1, 320679, Control_c, 0, 64, 127
1, 320880, Tempo, 472441
1, 320880, Note_on_c, 0, 63, 0
1, 320880, Note_on_c, 0, 75, 0
1, 320880, Note_on_c, 0, 87, 0
1, 320880, Note_on_c, 0, 51, 0
1, 320880, Note_on_c, 0, 86, 75
1, 320880, Note_on_c, 0, 74, 63
1, 320880, Note_on_c, 0, 62, 52
1, 320880, Note_on_c, 0, 50, 44
1, 320884, Control_c, 0, 64, 0
1, 321060, Note_on_c, 0, 50, 0
1, 321060, Note_on_c, 0, 86, 0
1, 321060, Note_on_c, 0, 74, 0
1, 321060, Note_on_c, 0, 62, 0
1, 321120, Tempo, 459770
1, 321120, Note_on_c, 0, 86, 87
1, 321120, Note_on_c, 0, 74, 73
1, 321120, Note_on_c, 0, 62, 60
1, 321120, Note_on_c, 0, 50, 51
1, 321166, Control_c, 0, 64, 127
1, 321360, Tempo, 472441
1, 321360, Note_on_c, 0, 50, 0
1, 321360, Note_on_c, 0, 86, 0
1, 321360, Note_on_c, 0, 74, 0
1, 321360, Note_on_c, 0, 62, 0
1, 321360, Note_on_c, 0, 85, 75
1, 321360, Note_on_c, 0, 73, 63
1, 321360, Note_on_c, 0, 49, 44
1, 321360, Note_on_c, 0, 61, 52
1, 321378, Control_c, 0, 64, 0
1, 321540, Note_on_c, 0, 61, 0
1, 321540, Note_on_c, 0, 85, 0
1, 321540, Note_on_c, 0, 73, 0
1, 321540, Note_on_c, 0, 49, 0
1, 321600, Tempo, 458015
1, 321600, Note_on_c, 0, 73, 73
1, 321600, Note_on_c, 0, 85, 86
1, 321600, Note_on_c, 0, 49, 51
1, 321600, Note_on_c, 0, 61, 60
1, 321678, Control_c, 0, 64, 127
1, 321840, Tempo, 459770
1, 321840, Note_on_c, 0, 61, 0
1, 321840, Note_on_c, 0, 73, 0
1, 321840, Note_on_c, 0, 85, 0
1, 321840, Note_on_c, 0, 49, 0
1, 321840, Note_on_c, 0, 86, 70
1, 321840, Note_on_c, 0, 74, 59
1, 321840, Note_on_c, 0, 50, 41
1, 321840, Note_on_c, 0, 62, 49
1, 321897, Control_c, 0, 64, 0
1, 322020, Note_on_c, 0, 62, 0
1, 322020, Note_on_c, 0, 86, 0
1, 322020, Note_on_c, 0, 74, 0
1, 322020, Note_on_c, 0, 50, 0
1, 322080, Tempo, 452830
1, 322080, Note_on_c, 0, 86, 78
1, 322080, Note_on_c, 0, 74, 66
1, 322080, Note_on_c, 0, 62, 54
1, 322080, Note_on_c, 0, 50, 46
1, 322144, Control_c, 0, 64, 127
1, 322320, Tempo, 458015
1, 322320, Note_on_c, 0, 50, 0
1, 322320, Note_on_c, 0, 86, 0
1, 322320, Note_on_c, 0, 74, 0
1, 322320, Note_on_c, 0, 62, 0
1, 322320, Note_on_c, 0, 69, 59
1, 322320, Note_on_c, 0, 81, 70
1, 322320, Note_on_c, 0, 57, 49
1, 322320, Note_on_c, 0, 45, 41
1, 322352, Control_c, 0, 64, 0
1, 322500, Note_on_c, 0, 45, 0
1, 322500, Note_on_c, 0, 69, 0
1, 322500, Note_on_c, 0, 81, 0
1, 322500, Note_on_c, 0, 57, 0
1, 322560, Tempo, 441176
1, 322560, Note_on_c, 0, 79, 77
1, 322560, Note_on_c, 0, 67, 65
1, 322560, Note_on_c, 0, 43, 45
1, 322560, Note_on_c, 0, 55, 53
1, 322638, Control_c, 0, 64, 127
1, 322680, Tempo, 442804
1, 322800, Tempo, 454545
1, 322800, Note_on_c, 0, 55, 0
1, 322800, Note_on_c, 0, 79, 0
1, 322800, Note_on_c, 0, 67, 0
1, 322800, Note_on_c, 0, 43, 0
1, 322800, Note_on_c, 0, 78, 68
1, 322800, Note_on_c, 0, 66, 57
1, 322800, Note_on_c, 0, 42, 39
1, 322800, Note_on_c, 0, 54, 47
1, 322832, Control_c, 0, 64, 0
1, 322980, Note_on_c, 0, 54, 0
1, 322980, Note_on_c, 0, 78, 0
1, 322980, Note_on_c, 0, 66, 0
1, 322980, Note_on_c, 0, 42, 0
1, 323040, Tempo, 449438
1, 323040, Note_on_c, 0, 78, 68
1, 323040, Note_on_c, 0, 66, 57
1, 323040, Note_on_c, 0, 54, 47
1, 323040, Note_on_c, 0, 42, 39
1, 323114, Control_c, 0, 64, 127
1, 323280, Tempo, 472441
1, 323280, Note_on_c, 0, 42, 0
1, 323280, Note_on_c, 0, 78, 0
1, 323280, Note_on_c, 0, 66, 0
1, 323280, Note_on_c, 0, 54, 0
1, 323280, Note_on_c, 0, 64, 57
1, 323280, Note_on_c, 0, 76, 68
1, 323280, Note_on_c, 0, 52, 47
1, 323280, Note_on_c, 0, 40, 39
1, 323301, Control_c, 0, 64, 0
1, 323460, Note_on_c, 0, 40, 0
1, 323460, Note_on_c, 0, 64, 0
1, 323460, Note_on_c, 0, 76, 0
1, 323460, Note_on_c, 0, 52, 0
1, 323520, Tempo, 456274
1, 323520, Note_on_c, 0, 64, 62
1, 323520, Note_on_c, 0, 76, 74
1, 323520, Note_on_c, 0, 52, 51
1, 323520, Note_on_c, 0, 40, 43
1, 323601, Control_c, 0, 64, 127
1, 323760, Tempo, 463320
1, 323760, Note_on_c, 0, 40, 0
1, 323760, Note_on_c, 0, 64, 0
1, 323760, Note_on_c, 0, 76, 0
1, 323760, Note_on_c, 0, 52, 0
1, 323760, Note_on_c, 0, 62, 54
1, 323760, Note_on_c, 0, 74, 64
1, 323760, Note_on_c, 0, 50, 44
1, 323760, Note_on_c, 0, 38, 37
1, 323820, Control_c, 0, 64, 0
1, 323881, Note_on_c, 0, 38, 0
1, 323881, Note_on_c, 0, 62, 0
1, 323881, Note_on_c, 0, 74, 0
1, 323881, Note_on_c, 0, 50, 0
1, 324000, Tempo, 456274
1, 324000, Note_on_c, 0, 62, 56
1, 324000, Note_on_c, 0, 74, 67
1, 324000, Note_on_c, 0, 38, 39
1, 324000, Note_on_c, 0, 50, 46
1, 324121, Note_on_c, 0, 50, 0
1, 324121, Note_on_c, 0, 62, 0
1, 324121, Note_on_c, 0, 74, 0
1, 324121, Note_on_c, 0, 38, 0
1, 324240, Tempo, 476190
1, 324240, Note_on_c, 0, 74, 64
1, 324240, Note_on_c, 0, 62, 54
1, 324240, Note_on_c, 0, 50, 44
1, 324240, Note_on_c, 0, 38, 37
1, 324361, Note_on_c, 0, 38, 0
1, 324361, Note_on_c, 0, 74, 0
1, 324361, Note_on_c, 0, 62, 0
1, 324361, Note_on_c, 0, 50, 0
1, 324480, Tempo, 449438
1, 324480, Note_on_c, 0, 63, 58
1, 324480, Note_on_c, 0, 75, 69
1, 324480, Note_on_c, 0, 51, 48
1, 324480, Note_on_c, 0, 39, 40
1, 324519, Control_c, 0, 64, 127
1, 324720, Tempo, 461538
1, 324720, Note_on_c, 0, 39, 0
1, 324720, Note_on_c, 0, 63, 0
1, 324720, Note_on_c, 0, 75, 0
1, 324720, Note_on_c, 0, 51, 0
1, 324720, Note_on_c, 0, 74, 60
1, 324720, Note_on_c, 0, 62, 50
1, 324720, Note_on_c, 0, 38, 35
1, 324720, Note_on_c, 0, 50, 41
1, 324773, Control_c, 0, 64, 0
1, 324900, Note_on_c, 0, 50, 0
1, 324900, Note_on_c, 0, 74, 0
1, 324900, Note_on_c, 0, 62, 0
1, 324900, Note_on_c, 0, 38, 0
1, 324960, Tempo, 451128
1, 324960, Note_on_c, 0, 62, 58
1, 324960, Note_on_c, 0, 74, 69
1, 324960, Note_on_c, 0, 50, 48
1, 324960, Note_on_c, 0, 38, 40
1, 325006, Control_c, 0, 64, 127
1, 325200, Tempo, 459770
1, 325200, Note_on_c, 0, 38, 0
1, 325200, Note_on_c, 0, 62, 0
1, 325200, Note_on_c, 0, 74, 0
1, 325200, Note_on_c, 0, 50, 0
1, 325200, Note_on_c, 0, 73, 60
1, 325200, Note_on_c, 0, 61, 50
1, 325200, Note_on_c, 0, 37, 35
1, 325200, Note_on_c, 0, 49, 41
1, 325243, Control_c, 0, 64, 0
1, 325380, Note_on_c, 0, 49, 0
1, 325380, Note_on_c, 0, 73, 0
1, 325380, Note_on_c, 0, 61, 0
1, 325380, Note_on_c, 0, 37, 0
1, 325440, Tempo, 451128
1, 325440, Note_on_c, 0, 73, 68
1, 325440, Note_on_c, 0, 61, 58
1, 325440, Note_on_c, 0, 37, 40
1, 325440, Note_on_c, 0, 49, 48
1, 325518, Control_c, 0, 64, 127
1, 325680, Tempo, 459770
1, 325680, Note_on_c, 0, 49, 0
1, 325680, Note_on_c, 0, 73, 0
1, 325680, Note_on_c, 0, 61, 0
1, 325680, Note_on_c, 0, 37, 0
1, 325680, Note_on_c, 0, 62, 47
1, 325680, Note_on_c, 0, 74, 56
1, 325680, Note_on_c, 0, 50, 39
1, 325680, Note_on_c, 0, 38, 32
1, 325758, Control_c, 0, 64, 0
1, 325860, Note_on_c, 0, 38, 0
1, 325860, Note_on_c, 0, 62, 0
1, 325860, Note_on_c, 0, 74, 0
1, 325860, Note_on_c, 0, 50, 0
1, 325920, Tempo, 447761
1, 325920, Note_on_c, 0, 74, 62
1, 325920, Note_on_c, 0, 62, 52
1, 325920, Note_on_c, 0, 50, 43
1, 325920, Note_on_c, 0, 38, 36
1, 325984, Control_c, 0, 64, 127
1, 326160, Tempo, 458015
1, 326160, Note_on_c, 0, 38, 0
1, 326160, Note_on_c, 0, 74, 0
1, 326160, Note_on_c, 0, 62, 0
1, 326160, Note_on_c, 0, 50, 0
1, 326160, Note_on_c, 0, 57, 47
1, 326160, Note_on_c, 0, 69, 56
1, 326160, Note_on_c, 0, 45, 39
1, 326206, Control_c, 0, 64, 0
1, 326340, Note_on_c, 0, 45, 0
1, 326340, Note_on_c, 0, 69, 0
1, 326340, Note_on_c, 0, 57, 0
1, 326400, Tempo, 441176
1, 326400, Note_on_c, 0, 67, 57
1, 326400, Note_on_c, 0, 55, 49
1, 326400, Note_on_c, 0, 43, 39
1, 326478, Control_c, 0, 64, 127
1, 326520, Tempo, 442804
1, 326640, Tempo, 454545
1, 326640, Note_on_c, 0, 43, 0
1, 326640, Note_on_c, 0, 55, 0
1, 326640, Note_on_c, 0, 67, 0
1, 326640, Note_on_c, 0, 66, 50
1, 326640, Note_on_c, 0, 54, 42
1, 326640, Note_on_c, 0, 42, 34
1, 326658, Control_c, 0, 64, 0
1, 326820, Note_on_c, 0, 42, 0
1, 326820, Note_on_c, 0, 54, 0
1, 326820, Note_on_c, 0, 66, 0
1, 326880, Tempo, 444444
1, 326880, Note_on_c, 0, 66, 49
1, 326880, Note_on_c, 0, 54, 41
1, 326880, Note_on_c, 0, 42, 34
1, 326954, Control_c, 0, 64, 127
1, 327120, Tempo, 461538
1, 327120, Note_on_c, 0, 42, 0
1, 327120, Note_on_c, 0, 54, 0
1, 327120, Note_on_c, 0, 66, 0
1, 327120, Note_on_c, 0, 64, 48
1, 327120, Note_on_c, 0, 52, 40
1, 327120, Note_on_c, 0, 40, 33
1, 327173, Control_c, 0, 64, 0
1, 327300, Note_on_c, 0, 40, 0
1, 327300, Note_on_c, 0, 52, 0
1, 327300, Note_on_c, 0, 64, 0
1, 327360, Tempo, 451128
1, 327360, Note_on_c, 0, 52, 43
1, 327360, Note_on_c, 0, 64, 51
1, 327360, Note_on_c, 0, 40, 35
1, 327441, Control_c, 0, 64, 127
1, 327600, Tempo, 463320
1, 327600, Note_on_c, 0, 40, 0
1, 327600, Note_on_c, 0, 64, 0
1, 327600, Note_on_c, 0, 52, 0
1, 327600, Note_on_c, 0, 62, 43
1, 327600, Note_on_c, 0, 50, 36
1, 327600, Note_on_c, 0, 38, 30
1, 327664, Control_c, 0, 64, 0
1, 327721, Note_on_c, 0, 38, 0
1, 327721, Note_on_c, 0, 50, 0
1, 327721, Note_on_c, 0, 62, 0
1, 327840, Tempo, 451128
1, 327840, Note_on_c, 0, 50, 36
1, 327840, Note_on_c, 0, 62, 44
1, 327840, Note_on_c, 0, 38, 30
1, 327961, Note_on_c, 0, 38, 0
1, 327961, Note_on_c, 0, 62, 0
1, 327961, Note_on_c, 0, 50, 0
1, 328080, Tempo, 466926
1, 328080, Note_on_c, 0, 62, 41
1, 328080, Note_on_c, 0, 50, 35
1, 328080, Note_on_c, 0, 38, 28
1, 328201, Note_on_c, 0, 38, 0
1, 328201, Note_on_c, 0, 50, 0
1, 328201, Note_on_c, 0, 62, 0
1, 328320, Tempo, 451128
1, 328320, Note_on_c, 0, 50, 32
1, 328320, Note_on_c, 0, 62, 39
1, 328320, Note_on_c, 0, 38, 27
1, 328440, Control_c, 0, 64, 127
1, 328441, Note_on_c, 0, 38, 0
1, 328441, Note_on_c, 0, 62, 0
1, 328441, Note_on_c, 0, 50, 0
1, 328560, Tempo, 466926
1, 328560, Note_on_c, 0, 62, 36
1, 328560, Note_on_c, 0, 50, 31
1, 328560, Note_on_c, 0, 38, 25
1, 328681, Note_on_c, 0, 38, 0
1, 328681, Note_on_c, 0, 50, 0
1, 328681, Note_on_c, 0, 62, 0
1, 328800, Tempo, 451128
1, 328800, Note_on_c, 0, 62, 39
1, 328800, Note_on_c, 0, 50, 32
1, 328800, Note_on_c, 0, 38, 27
1, 328921, Note_on_c, 0, 38, 0
1, 328921, Note_on_c, 0, 50, 0
1, 328921, Note_on_c, 0, 62, 0
1, 329040, Tempo, 466926
1, 329040, Note_on_c, 0, 50, 31
1, 329040, Note_on_c, 0, 62, 36
1, 329040, Note_on_c, 0, 38, 25
1, 329161, Note_on_c, 0, 38, 0
1, 329161, Note_on_c, 0, 62, 0
1, 329161, Note_on_c, 0, 50, 0
1, 329280, Tempo, 451128
1, 329280, Note_on_c, 0, 50, 32
1, 329280, Note_on_c, 0, 62, 39
1, 329280, Note_on_c, 0, 38, 27
1, 329401, Note_on_c, 0, 38, 0
1, 329401, Note_on_c, 0, 62, 0
1, 329401, Note_on_c, 0, 50, 0
1, 329520, Tempo, 476190
1, 329520, Note_on_c, 0, 50, 31
1, 329520, Note_on_c, 0, 62, 36
1, 329520, Note_on_c, 0, 38, 25
1, 329641, Note_on_c, 0, 38, 0
1, 329641, Note_on_c, 0, 62, 0
1, 329641, Note_on_c, 0, 50, 0
1, 329760, Tempo, 463320
1, 329760, Note_on_c, 0, 62, 39
1, 329760, Note_on_c, 0, 50, 32
1, 329760, Note_on_c, 0, 38, 27
1, 329881, Note_on_c, 0, 38, 0
1, 329881, Note_on_c, 0, 50, 0
1, 329881, Note_on_c, 0, 62, 0
1, 330000, Tempo, 493827
1, 330000, Note_on_c, 0, 62, 36
1, 330000, Note_on_c, 0, 50, 31
1, 330000, Note_on_c, 0, 38, 25
1, 330121, Note_on_c, 0, 38, 0
1, 330121, Note_on_c, 0, 50, 0
1, 330121, Note_on_c, 0, 62, 0
1, 330240, Tempo, 476190
1, 330240, Note_on_c, 0, 58, 21
1, 330240, Note_on_c, 0, 61, 33
1, 330240, Note_on_c, 0, 52, 21
1, 330240, Note_on_c, 0, 55, 21
1, 330240, Note_on_c, 0, 49, 22
1, 330251, Control_c, 0, 64, 0
1, 330329, Control_c, 0, 64, 127
1, 330480, Tempo, 500000
1, 330480, Note_on_c, 0, 49, 0
1, 330480, Note_on_c, 0, 52, 0
1, 330480, Note_on_c, 0, 58, 0
1, 330480, Note_on_c, 0, 61, 0
1, 330480, Note_on_c, 0, 55, 0
1, 330480, Note_on_c, 0, 52, 21
1, 330480, Note_on_c, 0, 55, 21
1, 330480, Note_on_c, 0, 58, 21
1, 330480, Note_on_c, 0, 60, 30
1, 330480, Note_on_c, 0, 48, 21
1, 330550, Control_c, 0, 64, 0
1, 330600, Note_on_c, 0, 58, 0
1, 330600, Note_on_c, 0, 52, 0
1, 330600, Note_on_c, 0, 55, 0
1, 330601, Note_on_c, 0, 60, 0
1, 330601, Note_on_c, 0, 48, 0
1, 330720, Tempo, 480000
1, 330720, Note_on_c, 0, 60, 33
1, 330720, Note_on_c, 0, 55, 21
1, 330720, Note_on_c, 0, 58, 21
1, 330720, Note_on_c, 0, 52, 21
1, 330720, Note_on_c, 0, 48, 22
1, 330840, Note_on_c, 0, 52, 0
1, 330840, Note_on_c, 0, 55, 0
1, 330841, Note_on_c, 0, 60, 0
1, 330841, Note_on_c, 0, 58, 0
1, 330841, Note_on_c, 0, 48, 0
1, 330954, Tempo, 478088
1, 330960, Note_on_c, 0, 58, 20
1, 330960, Note_on_c, 0, 60, 30
1, 330960, Note_on_c, 0, 55, 20
1, 330960, Note_on_c, 0, 52, 20
1, 330960, Note_on_c, 0, 48, 21
1, 330962, Tempo, 480000
1, 330986, Tempo, 481928
1, 331010, Tempo, 483871
1, 331034, Tempo, 485830
1, 331058, Tempo, 487805
1, 331070, Tempo, 489796
1, 331080, Note_on_c, 0, 52, 0
1, 331080, Note_on_c, 0, 55, 0
1, 331081, Note_on_c, 0, 58, 0
1, 331081, Note_on_c, 0, 60, 0
1, 331081, Note_on_c, 0, 48, 0
1, 331094, Tempo, 491803
1, 331118, Tempo, 493827
1, 331142, Tempo, 495868
1, 331166, Tempo, 497925
1, 331178, Tempo, 500000
1, 331200, Note_on_c, 0, 58, 21
1, 331200, Note_on_c, 0, 52, 21
1, 331200, Note_on_c, 0, 60, 33
1, 331200, Note_on_c, 0, 55, 21
1, 331200, Note_on_c, 0, 48, 22
1, 331202, Tempo, 502092
1, 331226, Tempo, 504202
1, 331250, Tempo, 506329
1, 331274, Tempo, 508475
1, 331286, Tempo, 510638
1, 331295, Control_c, 0, 64, 127
1, 331310, Tempo, 512821
1, 331320, Note_on_c, 0, 55, 0
1, 331320, Note_on_c, 0, 52, 0
1, 331321, Note_on_c, 0, 58, 0
1, 331321, Note_on_c, 0, 60, 0
1, 331321, Note_on_c, 0, 48, 0
1, 331334, Tempo, 515021
1, 331358, Tempo, 517241
1, 331370, Tempo, 519481
1, 331394, Tempo, 521739
1, 331418, Tempo, 524017
1, 331440, Note_on_c, 0, 55, 20
1, 331440, Note_on_c, 0, 52, 20
1, 331440, Note_on_c, 0, 58, 20
1, 331440, Note_on_c, 0, 60, 30
1, 331440, Note_on_c, 0, 48, 21
1, 331442, Tempo, 526316
1, 331466, Tempo, 528634
1, 331478, Tempo, 530973
1, 331502, Tempo, 533333
1, 331526, Tempo, 535714
1, 331550, Tempo, 538117
1, 331560, Note_on_c, 0, 52, 0
1, 331560, Note_on_c, 0, 55, 0
1, 331561, Note_on_c, 0, 60, 0
1, 331561, Note_on_c, 0, 58, 0
1, 331561, Note_on_c, 0, 48, 0
1, 331574, Tempo, 540541
1, 331586, Tempo, 542986
1, 331610, Tempo, 545455
1, 331634, Tempo, 547945
1, 331658, Tempo, 550459
1, 331670, Tempo, 552995
1, 331680, Note_on_c, 0, 55, 21
1, 331680, Note_on_c, 0, 52, 21
1, 331680, Note_on_c, 0, 58, 21
1, 331680, Note_on_c, 0, 60, 33
1, 331680, Note_on_c, 0, 48, 22
1, 331706, Tempo, 550459
1, 331754, Tempo, 552995
1, 331790, Tempo, 555556
1, 331800, Note_on_c, 0, 52, 0
1, 331800, Note_on_c, 0, 55, 0
1, 331801, Note_on_c, 0, 60, 0
1, 331801, Note_on_c, 0, 58, 0
1, 331801, Note_on_c, 0, 48, 0
1, 331826, Tempo, 558140
1, 331862, Tempo, 560748
1, 331910, Tempo, 563380
1, 331920, Note_on_c, 0, 52, 20
1, 331920, Note_on_c, 0, 60, 30
1, 331920, Note_on_c, 0, 55, 20
1, 331920, Note_on_c, 0, 58, 20
1, 331920, Note_on_c, 0, 48, 21
1, 331946, Tempo, 566038
1, 331982, Tempo, 568720
1, 332018, Tempo, 571429
1, 332040, Tempo, 618557
1, 332040, Note_on_c, 0, 55, 0
1, 332040, Note_on_c, 0, 52, 0
1, 332041, Note_on_c, 0, 60, 0
1, 332041, Note_on_c, 0, 58, 0
1, 332041, Note_on_c, 0, 48, 0
1, 332160, Tempo, 558140
1, 332160, Note_on_c, 0, 53, 28
1, 332160, Note_on_c, 0, 60, 35
1, 332160, Note_on_c, 0, 57, 28
1, 332160, Note_on_c, 0, 41, 33
1, 332160, Control_c, 0, 64, 0
1, 332256, Control_c, 0, 64, 127
1, 332400, Tempo, 519481
1, 332400, Note_on_c, 0, 57, 0
1, 332400, Note_on_c, 0, 53, 0
1, 332400, Note_on_c, 0, 60, 0
1, 332400, Note_on_c, 0, 65, 23
1, 332400, Note_on_c, 0, 69, 29
1, 332400, Note_on_c, 0, 60, 23
1, 332400, Note_on_c, 0, 48, 25
1, 332580, Note_on_c, 0, 48, 0
1, 332580, Note_on_c, 0, 69, 0
1, 332580, Note_on_c, 0, 60, 0
1, 332580, Note_on_c, 0, 65, 0
1, 332640, Note_on_c, 0, 65, 23
1, 332640, Note_on_c, 0, 69, 29
1, 332640, Note_on_c, 0, 60, 23
1, 332640, Note_on_c, 0, 48, 25
1, 332820, Note_on_c, 0, 48, 0
1, 332820, Note_on_c, 0, 69, 0
1, 332820, Note_on_c, 0, 60, 0
1, 332820, Note_on_c, 0, 65, 0
1, 332880, Tempo, 530973
1, 332880, Note_on_c, 0, 65, 23
1, 332880, Note_on_c, 0, 69, 29
1, 332880, Note_on_c, 0, 60, 23
1, 332880, Note_on_c, 0, 48, 25
1, 333060, Note_on_c, 0, 48, 0
1, 333060, Note_on_c, 0, 69, 0
1, 333060, Note_on_c, 0, 60, 0
1, 333060, Note_on_c, 0, 65, 0
1, 333120, Tempo, 528634
1, 333120, Note_on_c, 0, 65, 26
1, 333120, Note_on_c, 0, 68, 33
1, 333120, Note_on_c, 0, 59, 26
1, 333120, Note_on_c, 0, 48, 33
1, 333130, Control_c, 0, 64, 0
1, 333360, Note_on_c, 0, 48, 0
1, 333360, Note_on_c, 0, 68, 0
1, 333360, Note_on_c, 0, 59, 0
1, 333360, Note_on_c, 0, 65, 0
1, 333360, Note_on_c, 0, 69, 28
1, 333360, Note_on_c, 0, 65, 22
1, 333360, Note_on_c, 0, 60, 22
1, 333360, Note_on_c, 0, 53, 26
1, 333413, Control_c, 0, 64, 127
1, 333540, Note_on_c, 0, 53, 0
1, 333540, Note_on_c, 0, 65, 0
1, 333540, Note_on_c, 0, 60, 0
1, 333540, Note_on_c, 0, 69, 0
1, 333600, Note_on_c, 0, 65, 24
1, 333600, Note_on_c, 0, 69, 31
1, 333600, Note_on_c, 0, 60, 24
1, 333600, Note_on_c, 0, 53, 27
1, 333780, Note_on_c, 0, 53, 0
1, 333780, Note_on_c, 0, 69, 0
1, 333780, Note_on_c, 0, 60, 0
1, 333780, Note_on_c, 0, 65, 0
1, 333840, Tempo, 540541
1, 333840, Note_on_c, 0, 69, 34
1, 333840, Note_on_c, 0, 65, 27
1, 333840, Note_on_c, 0, 60, 27
1, 333840, Note_on_c, 0, 53, 29
1, 334020, Note_on_c, 0, 53, 0
1, 334020, Note_on_c, 0, 65, 0
1, 334020, Note_on_c, 0, 60, 0
1, 334020, Note_on_c, 0, 69, 0
1, 334080, Tempo, 576923
1, 334080, Note_on_c, 0, 41, 0
1, 334080, Note_on_c, 0, 72, 38
1, 334080, Note_on_c, 0, 65, 30
1, 334080, Note_on_c, 0, 63, 30
1, 334080, Note_on_c, 0, 46, 38
1, 334080, Control_c, 0, 64, 0
1, 334320, Tempo, 504202
1, 334320, Note_on_c, 0, 63, 0
1, 334320, Note_on_c, 0, 72, 0
1, 334320, Note_on_c, 0, 65, 0
1, 334320, Note_on_c, 0, 70, 32
1, 334320, Note_on_c, 0, 62, 25
1, 334320, Note_on_c, 0, 65, 25
1, 334320, Note_on_c, 0, 53, 25
1, 334359, Control_c, 0, 64, 127
1, 334500, Note_on_c, 0, 53, 0
1, 334500, Note_on_c, 0, 62, 0
1, 334500, Note_on_c, 0, 65, 0
1, 334500, Note_on_c, 0, 70, 0
1, 334560, Tempo, 515021
1, 334560, Note_on_c, 0, 65, 25
1, 334560, Note_on_c, 0, 62, 25
1, 334560, Note_on_c, 0, 70, 32
1, 334560, Note_on_c, 0, 53, 25
1, 334740, Note_on_c, 0, 53, 0
1, 334740, Note_on_c, 0, 62, 0
1, 334740, Note_on_c, 0, 70, 0
1, 334740, Note_on_c, 0, 65, 0
1, 334800, Tempo, 535714
1, 334800, Note_on_c, 0, 62, 25
1, 334800, Note_on_c, 0, 70, 32
1, 334800, Note_on_c, 0, 65, 25
1, 334800, Note_on_c, 0, 53, 27
1, 334980, Note_on_c, 0, 53, 0
1, 334980, Note_on_c, 0, 70, 0
1, 334980, Note_on_c, 0, 65, 0
1, 334980, Note_on_c, 0, 62, 0
1, 335040, Tempo, 519481
1, 335040, Note_on_c, 0, 70, 33
1, 335040, Note_on_c, 0, 65, 26
1, 335040, Note_on_c, 0, 62, 20
1, 335040, Note_on_c, 0, 53, 33
1, 335049, Control_c, 0, 64, 0
1, 335114, Control_c, 0, 64, 127
1, 335280, Note_on_c, 0, 53, 0
1, 335280, Note_on_c, 0, 65, 0
1, 335280, Note_on_c, 0, 62, 0
1, 335280, Note_on_c, 0, 70, 0
1, 335280, Note_on_c, 0, 69, 30
1, 335280, Note_on_c, 0, 60, 24
1, 335280, Note_on_c, 0, 62, 24
1, 335280, Note_on_c, 0, 54, 27
1, 335290, Control_c, 0, 64, 0
1, 335372, Control_c, 0, 64, 127
1, 335520, Note_on_c, 0, 54, 0
1, 335520, Note_on_c, 0, 60, 0
1, 335520, Note_on_c, 0, 62, 0
1, 335520, Note_on_c, 0, 69, 0
1, 335520, Note_on_c, 0, 67, 30
1, 335520, Note_on_c, 0, 58, 24
1, 335520, Note_on_c, 0, 62, 24
1, 335520, Note_on_c, 0, 55, 27
1, 335530, Control_c, 0, 64, 0
1, 335623, Control_c, 0, 64, 127
1, 335760, Tempo, 535714
1, 335760, Note_on_c, 0, 55, 0
1, 335760, Note_on_c, 0, 58, 0
1, 335760, Note_on_c, 0, 46, 0
1, 335760, Note_on_c, 0, 67, 0
1, 335760, Note_on_c, 0, 62, 0
1, 335760, Note_on_c, 0, 62, 24
1, 335760, Note_on_c, 0, 65, 30
1, 335760, Note_on_c, 0, 57, 24
1, 335760, Note_on_c, 0, 50, 27
1, 335760, Note_on_c, 0, 47, 27
1, 335770, Control_c, 0, 64, 0
1, 335866, Control_c, 0, 64, 127
1, 336000, Tempo, 528634
1, 336000, Note_on_c, 0, 47, 0
1, 336000, Note_on_c, 0, 57, 0
1, 336000, Note_on_c, 0, 62, 0
1, 336000, Note_on_c, 0, 65, 0
1, 336000, Note_on_c, 0, 50, 0
1, 336000, Note_on_c, 0, 57, 28
1, 336000, Note_on_c, 0, 65, 35
1, 336000, Note_on_c, 0, 60, 28
1, 336000, Note_on_c, 0, 36, 33
1, 336000, Control_c, 0, 64, 0
1, 336240, Tempo, 519481
1, 336240, Note_on_c, 0, 60, 0
1, 336240, Note_on_c, 0, 57, 0
1, 336240, Note_on_c, 0, 65, 0
1, 336240, Note_on_c, 0, 64, 29
1, 336240, Note_on_c, 0, 55, 23
1, 336240, Note_on_c, 0, 60, 23
1, 336240, Note_on_c, 0, 48, 25
1, 336300, Control_c, 0, 64, 127
1, 336420, Note_on_c, 0, 48, 0
1, 336420, Note_on_c, 0, 55, 0
1, 336420, Note_on_c, 0, 60, 0
1, 336420, Note_on_c, 0, 64, 0
1, 336480, Note_on_c, 0, 64, 29
1, 336480, Note_on_c, 0, 55, 23
1, 336480, Note_on_c, 0, 60, 23
1, 336480, Note_on_c, 0, 48, 25
1, 336660, Note_on_c, 0, 48, 0
1, 336660, Note_on_c, 0, 55, 0
1, 336660, Note_on_c, 0, 60, 0
1, 336660, Note_on_c, 0, 64, 0
1, 336720, Tempo, 530973
1, 336720, Note_on_c, 0, 64, 29
1, 336720, Note_on_c, 0, 55, 23
1, 336720, Note_on_c, 0, 60, 23
1, 336720, Note_on_c, 0, 48, 25
1, 336900, Note_on_c, 0, 48, 0
1, 336900, Note_on_c, 0, 55, 0
1, 336900, Note_on_c, 0, 60, 0
1, 336900, Note_on_c, 0, 64, 0
1, 336960, Tempo, 528634
1, 336960, Note_on_c, 0, 60, 26
1, 336960, Note_on_c, 0, 64, 33
1, 336960, Note_on_c, 0, 55, 26
1, 336960, Note_on_c, 0, 48, 33
1, 337140, Note_on_c, 0, 48, 0
1, 337140, Note_on_c, 0, 64, 0
1, 337140, Note_on_c, 0, 55, 0
1, 337140, Note_on_c, 0, 60, 0
1, 337200, Tempo, 538117
1, 337200, Note_on_c, 0, 60, 22
1, 337200, Note_on_c, 0, 64, 28
1, 337200, Note_on_c, 0, 55, 22
1, 337200, Note_on_c, 0, 48, 26
1, 337380, Note_on_c, 0, 48, 0
1, 337380, Note_on_c, 0, 64, 0
1, 337380, Note_on_c, 0, 55, 0
1, 337380, Note_on_c, 0, 60, 0
1, 337440, Tempo, 547945
1, 337440, Note_on_c, 0, 60, 24
1, 337440, Note_on_c, 0, 65, 31
1, 337440, Note_on_c, 0, 57, 24
1, 337440, Note_on_c, 0, 48, 27
1, 337451, Control_c, 0, 64, 0
1, 337507, Control_c, 0, 64, 127
1, 337680, Tempo, 563380
1, 337680, Note_on_c, 0, 48, 0
1, 337680, Note_on_c, 0, 65, 0
1, 337680, Note_on_c, 0, 57, 0
1, 337680, Note_on_c, 0, 60, 0
1, 337680, Note_on_c, 0, 58, 27
1, 337680, Note_on_c, 0, 67, 34
1, 337680, Note_on_c, 0, 60, 27
1, 337680, Note_on_c, 0, 48, 29
1, 337920, Tempo, 582524
1, 337920, Note_on_c, 0, 48, 0
1, 337920, Note_on_c, 0, 67, 0
1, 337920, Note_on_c, 0, 36, 0
1, 337920, Note_on_c, 0, 58, 0
1, 337920, Note_on_c, 0, 60, 0
1, 337920, Note_on_c, 0, 60, 38
1, 337920, Note_on_c, 0, 58, 30
1, 337920, Note_on_c, 0, 41, 38
1, 337920, Control_c, 0, 64, 0
1, 338160, Tempo, 504202
1, 338160, Note_on_c, 0, 58, 0
1, 338160, Note_on_c, 0, 60, 0
1, 338160, Note_on_c, 0, 60, 25
1, 338160, Note_on_c, 0, 65, 32
1, 338160, Note_on_c, 0, 57, 25
1, 338160, Note_on_c, 0, 48, 25
1, 338188, Control_c, 0, 64, 127
1, 338340, Note_on_c, 0, 48, 0
1, 338340, Note_on_c, 0, 65, 0
1, 338340, Note_on_c, 0, 57, 0
1, 338340, Note_on_c, 0, 60, 0
1, 338400, Tempo, 515021
1, 338400, Note_on_c, 0, 57, 25
1, 338400, Note_on_c, 0, 65, 32
1, 338400, Note_on_c, 0, 60, 25
1, 338400, Note_on_c, 0, 48, 25
1, 338580, Note_on_c, 0, 48, 0
1, 338580, Note_on_c, 0, 65, 0
1, 338580, Note_on_c, 0, 60, 0
1, 338580, Note_on_c, 0, 57, 0
1, 338640, Tempo, 535714
1, 338640, Note_on_c, 0, 60, 25
1, 338640, Note_on_c, 0, 65, 32
1, 338640, Note_on_c, 0, 57, 25
1, 338640, Note_on_c, 0, 48, 27
1, 338820, Note_on_c, 0, 48, 0
1, 338820, Note_on_c, 0, 65, 0
1, 338820, Note_on_c, 0, 57, 0
1, 338820, Note_on_c, 0, 60, 0
1, 338880, Tempo, 519481
1, 338880, Note_on_c, 0, 57, 20
1, 338880, Note_on_c, 0, 60, 26
1, 338880, Note_on_c, 0, 65, 33
1, 338880, Note_on_c, 0, 48, 33
1, 339060, Note_on_c, 0, 48, 0
1, 339060, Note_on_c, 0, 60, 0
1, 339060, Note_on_c, 0, 65, 0
1, 339060, Note_on_c, 0, 57, 0
1, 339120, Tempo, 566038
1, 339120, Note_on_c, 0, 65, 30
1, 339120, Note_on_c, 0, 60, 24
1, 339120, Note_on_c, 0, 57, 24
1, 339120, Note_on_c, 0, 48, 27
1, 339300, Note_on_c, 0, 48, 0
1, 339300, Note_on_c, 0, 60, 0
1, 339300, Note_on_c, 0, 57, 0
1, 339300, Note_on_c, 0, 65, 0
1, 339360, Tempo, 519481
1, 339360, Note_on_c, 0, 41, 0
1, 339360, Note_on_c, 0, 65, 30
1, 339360, Note_on_c, 0, 48, 27
1, 339360, Note_on_c, 0, 41, 27
1, 339370, Control_c, 0, 64, 0
1, 339420, Note_on_c, 0, 60, 35
1, 339420, Note_on_c, 0, 69, 42
1, 339463, Control_c, 0, 64, 127
1, 339600, Tempo, 545455
1, 339600, Note_on_c, 0, 41, 0
1, 339600, Note_on_c, 0, 48, 0
1, 339600, Note_on_c, 0, 45, 27
1, 339600, Note_on_c, 0, 48, 27
1, 339720, Note_on_c, 0, 65, 0
1, 339720, Note_on_c, 0, 69, 0
1, 339720, Note_on_c, 0, 60, 0
1, 339720, Note_on_c, 0, 60, 24
1, 339720, Note_on_c, 0, 65, 30
1, 339720, Note_on_c, 0, 57, 24
1, 339840, Tempo, 579710
1, 339840, Note_on_c, 0, 57, 0
1, 339840, Note_on_c, 0, 60, 0
1, 339840, Note_on_c, 0, 48, 0
1, 339840, Note_on_c, 0, 45, 0
1, 339840, Note_on_c, 0, 65, 0
1, 339840, Note_on_c, 0, 57, 28
1, 339840, Note_on_c, 0, 60, 28
1, 339840, Note_on_c, 0, 65, 35
1, 339840, Note_on_c, 0, 36, 33
1, 339840, Control_c, 0, 64, 0
1, 340080, Tempo, 533333
1, 340080, Note_on_c, 0, 65, 0
1, 340080, Note_on_c, 0, 57, 0
1, 340080, Note_on_c, 0, 60, 0
1, 340080, Note_on_c, 0, 55, 23
1, 340080, Note_on_c, 0, 64, 29
1, 340080, Note_on_c, 0, 60, 23
1, 340080, Note_on_c, 0, 48, 25
1, 340130, Control_c, 0, 64, 127
1, 340260, Note_on_c, 0, 48, 0
1, 340260, Note_on_c, 0, 64, 0
1, 340260, Note_on_c, 0, 60, 0
1, 340260, Note_on_c, 0, 55, 0
1, 340320, Tempo, 524017
1, 340320, Note_on_c, 0, 60, 23
1, 340320, Note_on_c, 0, 55, 23
1, 340320, Note_on_c, 0, 64, 29
1, 340320, Note_on_c, 0, 48, 25
1, 340500, Note_on_c, 0, 48, 0
1, 340500, Note_on_c, 0, 55, 0
1, 340500, Note_on_c, 0, 64, 0
1, 340500, Note_on_c, 0, 60, 0
1, 340560, Tempo, 530973
1, 340560, Note_on_c, 0, 64, 29
1, 340560, Note_on_c, 0, 55, 23
1, 340560, Note_on_c, 0, 60, 23
1, 340560, Note_on_c, 0, 48, 25
1, 340740, Note_on_c, 0, 48, 0
1, 340740, Note_on_c, 0, 55, 0
1, 340740, Note_on_c, 0, 60, 0
1, 340740, Note_on_c, 0, 64, 0
1, 340800, Tempo, 528634
1, 340800, Note_on_c, 0, 55, 26
1, 340800, Note_on_c, 0, 64, 33
1, 340800, Note_on_c, 0, 60, 26
1, 340800, Note_on_c, 0, 48, 33
1, 340980, Note_on_c, 0, 48, 0
1, 340980, Note_on_c, 0, 64, 0
1, 340980, Note_on_c, 0, 60, 0
1, 340980, Note_on_c, 0, 55, 0
1, 341040, Tempo, 533333
1, 341040, Note_on_c, 0, 64, 28
1, 341040, Note_on_c, 0, 60, 22
1, 341040, Note_on_c, 0, 55, 22
1, 341040, Note_on_c, 0, 48, 26
1, 341220, Note_on_c, 0, 48, 0
1, 341220, Note_on_c, 0, 60, 0
1, 341220, Note_on_c, 0, 55, 0
1, 341220, Note_on_c, 0, 64, 0
1, 341280, Tempo, 540541
1, 341280, Note_on_c, 0, 57, 24
1, 341280, Note_on_c, 0, 60, 24
1, 341280, Note_on_c, 0, 65, 31
1, 341280, Note_on_c, 0, 48, 27
1, 341291, Control_c, 0, 64, 0
1, 341347, Control_c, 0, 64, 127
1, 341520, Tempo, 558140
1, 341520, Note_on_c, 0, 48, 0
1, 341520, Note_on_c, 0, 60, 0
1, 341520, Note_on_c, 0, 65, 0
1, 341520, Note_on_c, 0, 57, 0
1, 341520, Note_on_c, 0, 67, 34
1, 341520, Note_on_c, 0, 58, 27
1, 341520, Note_on_c, 0, 60, 27
1, 341520, Note_on_c, 0, 48, 29
1, 341760, Tempo, 552995
1, 341760, Note_on_c, 0, 48, 0
1, 341760, Note_on_c, 0, 58, 0
1, 341760, Note_on_c, 0, 36, 0
1, 341760, Note_on_c, 0, 67, 0
1, 341760, Note_on_c, 0, 60, 0
1, 341760, Note_on_c, 0, 58, 30
1, 341760, Note_on_c, 0, 60, 38
1, 341760, Note_on_c, 0, 41, 38
1, 341760, Control_c, 0, 64, 0
1, 342000, Tempo, 504202
1, 342000, Note_on_c, 0, 60, 0
1, 342000, Note_on_c, 0, 58, 0
1, 342000, Note_on_c, 0, 57, 25
1, 342000, Note_on_c, 0, 65, 32
1, 342000, Note_on_c, 0, 60, 25
1, 342000, Note_on_c, 0, 48, 25
1, 342032, Control_c, 0, 64, 127
1, 342180, Note_on_c, 0, 48, 0
1, 342180, Note_on_c, 0, 65, 0
1, 342180, Note_on_c, 0, 60, 0
1, 342180, Note_on_c, 0, 57, 0
1, 342240, Tempo, 515021
1, 342240, Note_on_c, 0, 57, 25
1, 342240, Note_on_c, 0, 60, 25
1, 342240, Note_on_c, 0, 65, 32
1, 342240, Note_on_c, 0, 45, 25
1, 342420, Note_on_c, 0, 45, 0
1, 342420, Note_on_c, 0, 60, 0
1, 342420, Note_on_c, 0, 65, 0
1, 342420, Note_on_c, 0, 57, 0
1, 342480, Tempo, 535714
1, 342480, Note_on_c, 0, 57, 25
1, 342480, Note_on_c, 0, 60, 25
1, 342480, Note_on_c, 0, 65, 32
1, 342480, Note_on_c, 0, 48, 27
1, 342660, Note_on_c, 0, 48, 0
1, 342660, Note_on_c, 0, 60, 0
1, 342660, Note_on_c, 0, 65, 0
1, 342660, Note_on_c, 0, 57, 0
1, 342720, Tempo, 566038
1, 342720, Note_on_c, 0, 65, 33
1, 342720, Note_on_c, 0, 60, 26
1, 342720, Note_on_c, 0, 57, 20
1, 342720, Note_on_c, 0, 53, 33
1, 342861, Control_c, 0, 64, 0
1, 342900, Note_on_c, 0, 53, 0
1, 342900, Note_on_c, 0, 60, 0
1, 342900, Note_on_c, 0, 41, 0
1, 342900, Note_on_c, 0, 65, 0
1, 342900, Note_on_c, 0, 57, 0
1, 342960, Tempo, 545455
1, 342960, Note_on_c, 0, 72, 34
1, 342960, Note_on_c, 0, 69, 27
1, 342960, Note_on_c, 0, 60, 31
1, 342960, Note_on_c, 0, 57, 31
1, 343006, Control_c, 0, 64, 127
1, 343200, Tempo, 519481
1, 343200, Note_on_c, 0, 57, 0
1, 343200, Note_on_c, 0, 72, 0
1, 343200, Note_on_c, 0, 69, 0
1, 343200, Note_on_c, 0, 60, 0
1, 343200, Note_on_c, 0, 69, 27
1, 343200, Note_on_c, 0, 77, 42
1, 343200, Note_on_c, 0, 72, 27
1, 343200, Note_on_c, 0, 65, 31
1, 343200, Note_on_c, 0, 57, 31
1, 343200, Note_on_c, 0, 60, 31
1, 343440, Tempo, 535714
1, 343440, Note_on_c, 0, 60, 0
1, 343440, Note_on_c, 0, 77, 0
1, 343440, Note_on_c, 0, 72, 0
1, 343440, Note_on_c, 0, 69, 0
1, 343440, Note_on_c, 0, 57, 0
1, 343440, Note_on_c, 0, 65, 0
1, 343440, Note_on_c, 0, 79, 34
1, 343440, Note_on_c, 0, 76, 27
1, 343440, Note_on_c, 0, 72, 27
1, 343440, Note_on_c, 0, 60, 31
1, 343440, Note_on_c, 0, 67, 31
1, 343440, Note_on_c, 0, 64, 31
1, 343680, Tempo, 558140
1, 343680, Note_on_c, 0, 64, 0
1, 343680, Note_on_c, 0, 76, 0
1, 343680, Note_on_c, 0, 72, 0
1, 343680, Note_on_c, 0, 79, 0
1, 343680, Note_on_c, 0, 67, 0
1, 343680, Note_on_c, 0, 60, 0
1, 343680, Note_on_c, 0, 53, 46
1, 343680, Control_c, 0, 64, 0
1, 343776, Control_c, 0, 64, 127
1, 343800, Note_on_c, 0, 53, 0
1, 343920, Tempo, 519481
1, 343920, Note_on_c, 0, 72, 26
1, 343920, Note_on_c, 0, 81, 33
1, 343920, Note_on_c, 0, 77, 26
1, 343920, Note_on_c, 0, 60, 23
1, 343920, Note_on_c, 0, 69, 28
1, 343920, Note_on_c, 0, 65, 23
1, 344100, Note_on_c, 0, 65, 0
1, 344100, Note_on_c, 0, 81, 0
1, 344100, Note_on_c, 0, 77, 0
1, 344100, Note_on_c, 0, 72, 0
1, 344100, Note_on_c, 0, 69, 0
1, 344100, Note_on_c, 0, 60, 0
1, 344160, Note_on_c, 0, 81, 33
1, 344160, Note_on_c, 0, 72, 26
1, 344160, Note_on_c, 0, 77, 26
1, 344160, Note_on_c, 0, 69, 28
1, 344160, Note_on_c, 0, 60, 23
1, 344160, Note_on_c, 0, 65, 23
1, 344340, Note_on_c, 0, 65, 0
1, 344340, Note_on_c, 0, 72, 0
1, 344340, Note_on_c, 0, 77, 0
1, 344340, Note_on_c, 0, 81, 0
1, 344340, Note_on_c, 0, 60, 0
1, 344340, Note_on_c, 0, 69, 0
1, 344400, Tempo, 530973
1, 344400, Note_on_c, 0, 77, 26
1, 344400, Note_on_c, 0, 81, 33
1, 344400, Note_on_c, 0, 72, 26
1, 344400, Note_on_c, 0, 69, 28
1, 344400, Note_on_c, 0, 65, 23
1, 344400, Note_on_c, 0, 60, 23
1, 344580, Note_on_c, 0, 60, 0
1, 344580, Note_on_c, 0, 81, 0
1, 344580, Note_on_c, 0, 72, 0
1, 344580, Note_on_c, 0, 77, 0
1, 344580, Note_on_c, 0, 65, 0
1, 344580, Note_on_c, 0, 69, 0
1, 344640, Tempo, 528634
1, 344640, Note_on_c, 0, 71, 29
1, 344640, Note_on_c, 0, 77, 29
1, 344640, Note_on_c, 0, 80, 37
1, 344640, Note_on_c, 0, 68, 37
1, 344640, Note_on_c, 0, 65, 31
1, 344640, Note_on_c, 0, 59, 31
1, 344650, Control_c, 0, 64, 0
1, 344880, Note_on_c, 0, 59, 0
1, 344880, Note_on_c, 0, 77, 0
1, 344880, Note_on_c, 0, 80, 0
1, 344880, Note_on_c, 0, 71, 0
1, 344880, Note_on_c, 0, 65, 0
1, 344880, Note_on_c, 0, 68, 0
1, 344880, Note_on_c, 0, 72, 25
1, 344880, Note_on_c, 0, 77, 25
1, 344880, Note_on_c, 0, 81, 32
1, 344880, Note_on_c, 0, 69, 29
1, 344880, Note_on_c, 0, 60, 24
1, 344880, Note_on_c, 0, 65, 24
1, 344933, Control_c, 0, 64, 127
1, 345060, Note_on_c, 0, 65, 0
1, 345060, Note_on_c, 0, 77, 0
1, 345060, Note_on_c, 0, 81, 0
1, 345060, Note_on_c, 0, 72, 0
1, 345060, Note_on_c, 0, 60, 0
1, 345060, Note_on_c, 0, 69, 0
1, 345120, Note_on_c, 0, 77, 27
1, 345120, Note_on_c, 0, 81, 35
1, 345120, Note_on_c, 0, 72, 27
1, 345120, Note_on_c, 0, 65, 26
1, 345120, Note_on_c, 0, 69, 31
1, 345120, Note_on_c, 0, 60, 26
1, 345300, Note_on_c, 0, 60, 0
1, 345300, Note_on_c, 0, 81, 0
1, 345300, Note_on_c, 0, 72, 0
1, 345300, Note_on_c, 0, 77, 0
1, 345300, Note_on_c, 0, 69, 0
1, 345300, Note_on_c, 0, 65, 0
1, 345360, Tempo, 540541
1, 345360, Note_on_c, 0, 81, 39
1, 345360, Note_on_c, 0, 77, 31
1, 345360, Note_on_c, 0, 72, 31
1, 345360, Note_on_c, 0, 65, 28
1, 345360, Note_on_c, 0, 60, 28
1, 345360, Note_on_c, 0, 69, 33
1, 345540, Note_on_c, 0, 69, 0
1, 345540, Note_on_c, 0, 77, 0
1, 345540, Note_on_c, 0, 72, 0
1, 345540, Note_on_c, 0, 81, 0
1, 345540, Note_on_c, 0, 60, 0
1, 345540, Note_on_c, 0, 65, 0
1, 345600, Tempo, 574163
1, 345600, Note_on_c, 0, 84, 43
1, 345600, Note_on_c, 0, 75, 34
1, 345600, Note_on_c, 0, 77, 34
1, 345600, Note_on_c, 0, 58, 43
1, 345600, Control_c, 0, 64, 0
1, 345840, Tempo, 504202
1, 345840, Note_on_c, 0, 77, 0
1, 345840, Note_on_c, 0, 84, 0
1, 345840, Note_on_c, 0, 75, 0
1, 345840, Note_on_c, 0, 74, 28
1, 345840, Note_on_c, 0, 82, 36
1, 345840, Note_on_c, 0, 77, 28
1, 345840, Note_on_c, 0, 65, 23
1, 345840, Note_on_c, 0, 70, 28
1, 345840, Note_on_c, 0, 62, 23
1, 345886, Control_c, 0, 64, 127
1, 346020, Note_on_c, 0, 62, 0
1, 346020, Note_on_c, 0, 65, 0
1, 346020, Note_on_c, 0, 74, 0
1, 346020, Note_on_c, 0, 82, 0
1, 346020, Note_on_c, 0, 77, 0
1, 346020, Note_on_c, 0, 70, 0
1, 346080, Tempo, 515021
1, 346080, Note_on_c, 0, 82, 36
1, 346080, Note_on_c, 0, 74, 28
1, 346080, Note_on_c, 0, 77, 28
1, 346080, Note_on_c, 0, 65, 23
1, 346080, Note_on_c, 0, 70, 28
1, 346080, Note_on_c, 0, 62, 23
1, 346260, Note_on_c, 0, 62, 0
1, 346260, Note_on_c, 0, 65, 0
1, 346260, Note_on_c, 0, 82, 0
1, 346260, Note_on_c, 0, 74, 0
1, 346260, Note_on_c, 0, 77, 0
1, 346260, Note_on_c, 0, 70, 0
1, 346320, Tempo, 535714
1, 346320, Note_on_c, 0, 74, 28
1, 346320, Note_on_c, 0, 77, 28
1, 346320, Note_on_c, 0, 82, 36
1, 346320, Note_on_c, 0, 65, 26
1, 346320, Note_on_c, 0, 70, 31
1, 346320, Note_on_c, 0, 62, 26
1, 346500, Note_on_c, 0, 62, 0
1, 346500, Note_on_c, 0, 65, 0
1, 346500, Note_on_c, 0, 74, 0
1, 346500, Note_on_c, 0, 77, 0
1, 346500, Note_on_c, 0, 82, 0
1, 346500, Note_on_c, 0, 70, 0
1, 346560, Tempo, 519481
1, 346560, Note_on_c, 0, 77, 29
1, 346560, Note_on_c, 0, 74, 23
1, 346560, Note_on_c, 0, 82, 37
1, 346560, Note_on_c, 0, 65, 31
1, 346560, Note_on_c, 0, 70, 37
1, 346560, Note_on_c, 0, 62, 31
1, 346569, Control_c, 0, 64, 0
1, 346634, Control_c, 0, 64, 127
1, 346800, Note_on_c, 0, 62, 0
1, 346800, Note_on_c, 0, 65, 0
1, 346800, Note_on_c, 0, 77, 0
1, 346800, Note_on_c, 0, 74, 0
1, 346800, Note_on_c, 0, 82, 0
1, 346800, Note_on_c, 0, 70, 0
1, 346800, Note_on_c, 0, 72, 27
1, 346800, Note_on_c, 0, 74, 27
1, 346800, Note_on_c, 0, 81, 34
1, 346800, Note_on_c, 0, 69, 31
1, 346800, Note_on_c, 0, 62, 26
1, 346800, Note_on_c, 0, 66, 26
1, 346810, Control_c, 0, 64, 0
1, 346892, Control_c, 0, 64, 127
1, 347040, Note_on_c, 0, 66, 0
1, 347040, Note_on_c, 0, 69, 0
1, 347040, Note_on_c, 0, 72, 0
1, 347040, Note_on_c, 0, 74, 0
1, 347040, Note_on_c, 0, 81, 0
1, 347040, Note_on_c, 0, 62, 0
1, 347040, Note_on_c, 0, 74, 27
1, 347040, Note_on_c, 0, 70, 27
1, 347040, Note_on_c, 0, 79, 34
1, 347040, Note_on_c, 0, 67, 31
1, 347040, Note_on_c, 0, 62, 26
1, 347050, Control_c, 0, 64, 0
1, 347143, Control_c, 0, 64, 127
1, 347280, Tempo, 535714
1, 347280, Note_on_c, 0, 62, 0
1, 347280, Note_on_c, 0, 74, 0
1, 347280, Note_on_c, 0, 70, 0
1, 347280, Note_on_c, 0, 58, 0
1, 347280, Note_on_c, 0, 67, 0
1, 347280, Note_on_c, 0, 79, 0
1, 347280, Note_on_c, 0, 74, 27
1, 347280, Note_on_c, 0, 77, 34
1, 347280, Note_on_c, 0, 69, 27
1, 347280, Note_on_c, 0, 59, 26
1, 347280, Note_on_c, 0, 65, 31
1, 347280, Note_on_c, 0, 62, 26
1, 347290, Control_c, 0, 64, 0
1, 347386, Control_c, 0, 64, 127
1, 347520, Tempo, 528634
1, 347520, Note_on_c, 0, 62, 0
1, 347520, Note_on_c, 0, 77, 0
1, 347520, Note_on_c, 0, 69, 0
1, 347520, Note_on_c, 0, 74, 0
1, 347520, Note_on_c, 0, 65, 0
1, 347520, Note_on_c, 0, 59, 0
1, 347520, Note_on_c, 0, 77, 40
1, 347520, Note_on_c, 0, 72, 32
1, 347520, Note_on_c, 0, 69, 32
1, 347520, Note_on_c, 0, 48, 37
1, 347520, Control_c, 0, 64, 0
1, 347760, Tempo, 519481
1, 347760, Note_on_c, 0, 48, 0
1, 347760, Note_on_c, 0, 77, 0
1, 347760, Note_on_c, 0, 72, 0
1, 347760, Note_on_c, 0, 69, 0
1, 347760, Note_on_c, 0, 72, 26
1, 347760, Note_on_c, 0, 76, 33
1, 347760, Note_on_c, 0, 67, 26
1, 347760, Note_on_c, 0, 64, 28
1, 347760, Note_on_c, 0, 55, 23
1, 347760, Note_on_c, 0, 60, 23
1, 347778, Control_c, 0, 64, 127
1, 347940, Note_on_c, 0, 60, 0
1, 347940, Note_on_c, 0, 76, 0
1, 347940, Note_on_c, 0, 67, 0
1, 347940, Note_on_c, 0, 72, 0
1, 347940, Note_on_c, 0, 55, 0
1, 347940, Note_on_c, 0, 64, 0
1, 348000, Note_on_c, 0, 76, 33
1, 348000, Note_on_c, 0, 67, 26
1, 348000, Note_on_c, 0, 72, 26
1, 348000, Note_on_c, 0, 64, 28
1, 348000, Note_on_c, 0, 55, 23
1, 348000, Note_on_c, 0, 60, 23
1, 348180, Note_on_c, 0, 60, 0
1, 348180, Note_on_c, 0, 67, 0
1, 348180, Note_on_c, 0, 72, 0
1, 348180, Note_on_c, 0, 76, 0
1, 348180, Note_on_c, 0, 55, 0
1, 348180, Note_on_c, 0, 64, 0
1, 348240, Tempo, 530973
1, 348240, Note_on_c, 0, 72, 26
1, 348240, Note_on_c, 0, 67, 26
1, 348240, Note_on_c, 0, 76, 33
1, 348240, Note_on_c, 0, 64, 28
1, 348240, Note_on_c, 0, 60, 23
1, 348240, Note_on_c, 0, 55, 23
1, 348420, Note_on_c, 0, 55, 0
1, 348420, Note_on_c, 0, 67, 0
1, 348420, Note_on_c, 0, 76, 0
1, 348420, Note_on_c, 0, 72, 0
1, 348420, Note_on_c, 0, 60, 0
1, 348420, Note_on_c, 0, 64, 0
1, 348480, Tempo, 560748
1, 348480, Note_on_c, 0, 67, 29
1, 348480, Note_on_c, 0, 76, 37
1, 348480, Note_on_c, 0, 72, 29
1, 348480, Note_on_c, 0, 55, 31
1, 348480, Note_on_c, 0, 64, 37
1, 348480, Note_on_c, 0, 60, 31
1, 348660, Note_on_c, 0, 60, 0
1, 348660, Note_on_c, 0, 76, 0
1, 348660, Note_on_c, 0, 72, 0
1, 348660, Note_on_c, 0, 67, 0
1, 348660, Note_on_c, 0, 64, 0
1, 348660, Note_on_c, 0, 55, 0
1, 348720, Tempo, 542986
1, 348720, Note_on_c, 0, 76, 32
1, 348720, Note_on_c, 0, 72, 25
1, 348720, Note_on_c, 0, 67, 25
1, 348720, Note_on_c, 0, 55, 24
1, 348720, Note_on_c, 0, 64, 29
1, 348720, Note_on_c, 0, 60, 24
1, 348900, Note_on_c, 0, 60, 0
1, 348900, Note_on_c, 0, 72, 0
1, 348900, Note_on_c, 0, 67, 0
1, 348900, Note_on_c, 0, 76, 0
1, 348900, Note_on_c, 0, 64, 0
1, 348900, Note_on_c, 0, 55, 0
1, 348960, Tempo, 550459
1, 348960, Note_on_c, 0, 69, 27
1, 348960, Note_on_c, 0, 77, 35
1, 348960, Note_on_c, 0, 72, 27
1, 348960, Note_on_c, 0, 57, 26
1, 348960, Note_on_c, 0, 60, 26
1, 348960, Note_on_c, 0, 65, 31
1, 348971, Control_c, 0, 64, 0
1, 349027, Control_c, 0, 64, 127
1, 349200, Tempo, 563380
1, 349200, Note_on_c, 0, 65, 0
1, 349200, Note_on_c, 0, 77, 0
1, 349200, Note_on_c, 0, 72, 0
1, 349200, Note_on_c, 0, 69, 0
1, 349200, Note_on_c, 0, 60, 0
1, 349200, Note_on_c, 0, 57, 0
1, 349200, Note_on_c, 0, 79, 39
1, 349200, Note_on_c, 0, 72, 31
1, 349200, Note_on_c, 0, 70, 31
1, 349200, Note_on_c, 0, 60, 28
1, 349200, Note_on_c, 0, 67, 33
1, 349200, Note_on_c, 0, 58, 28
1, 349440, Tempo, 571429
1, 349440, Note_on_c, 0, 58, 0
1, 349440, Note_on_c, 0, 72, 0
1, 349440, Note_on_c, 0, 70, 0
1, 349440, Note_on_c, 0, 79, 0
1, 349440, Note_on_c, 0, 67, 0
1, 349440, Note_on_c, 0, 60, 0
1, 349440, Note_on_c, 0, 72, 43
1, 349440, Note_on_c, 0, 70, 34
1, 349440, Note_on_c, 0, 53, 43
1, 349440, Control_c, 0, 64, 0
1, 349680, Tempo, 504202
1, 349680, Note_on_c, 0, 70, 0
1, 349680, Note_on_c, 0, 72, 0
1, 349680, Note_on_c, 0, 77, 36
1, 349680, Note_on_c, 0, 72, 28
1, 349680, Note_on_c, 0, 69, 28
1, 349680, Note_on_c, 0, 60, 23
1, 349680, Note_on_c, 0, 57, 23
1, 349680, Note_on_c, 0, 65, 28
1, 349744, Control_c, 0, 64, 127
1, 349860, Note_on_c, 0, 65, 0
1, 349860, Note_on_c, 0, 60, 0
1, 349860, Note_on_c, 0, 77, 0
1, 349860, Note_on_c, 0, 72, 0
1, 349860, Note_on_c, 0, 69, 0
1, 349860, Note_on_c, 0, 57, 0
1, 349920, Tempo, 515021
1, 349920, Note_on_c, 0, 77, 36
1, 349920, Note_on_c, 0, 72, 28
1, 349920, Note_on_c, 0, 69, 28
1, 349920, Note_on_c, 0, 57, 23
1, 349920, Note_on_c, 0, 65, 28
1, 349920, Note_on_c, 0, 60, 23
1, 350100, Note_on_c, 0, 60, 0
1, 350100, Note_on_c, 0, 57, 0
1, 350100, Note_on_c, 0, 77, 0
1, 350100, Note_on_c, 0, 72, 0
1, 350100, Note_on_c, 0, 69, 0
1, 350100, Note_on_c, 0, 65, 0
1, 350160, Tempo, 535714
1, 350160, Note_on_c, 0, 77, 36
1, 350160, Note_on_c, 0, 72, 28
1, 350160, Note_on_c, 0, 69, 28
1, 350160, Note_on_c, 0, 65, 31
1, 350160, Note_on_c, 0, 57, 26
1, 350160, Note_on_c, 0, 60, 26
1, 350340, Note_on_c, 0, 60, 0
1, 350340, Note_on_c, 0, 65, 0
1, 350340, Note_on_c, 0, 77, 0
1, 350340, Note_on_c, 0, 72, 0
1, 350340, Note_on_c, 0, 69, 0
1, 350340, Note_on_c, 0, 57, 0
1, 350400, Tempo, 519481
1, 350400, Note_on_c, 0, 72, 29
1, 350400, Note_on_c, 0, 77, 37
1, 350400, Note_on_c, 0, 69, 23
1, 350400, Note_on_c, 0, 57, 31
1, 350400, Note_on_c, 0, 60, 31
1, 350400, Note_on_c, 0, 65, 37
1, 350580, Note_on_c, 0, 65, 0
1, 350580, Note_on_c, 0, 57, 0
1, 350580, Note_on_c, 0, 72, 0
1, 350580, Note_on_c, 0, 77, 0
1, 350580, Note_on_c, 0, 69, 0
1, 350580, Note_on_c, 0, 60, 0
1, 350640, Tempo, 585366
1, 350640, Note_on_c, 0, 53, 0
1, 350640, Note_on_c, 0, 77, 34
1, 350640, Note_on_c, 0, 72, 27
1, 350640, Note_on_c, 0, 69, 27
1, 350640, Note_on_c, 0, 65, 31
1, 350640, Note_on_c, 0, 60, 26
1, 350640, Note_on_c, 0, 57, 26
1, 350820, Note_on_c, 0, 57, 0
1, 350820, Note_on_c, 0, 72, 0
1, 350820, Note_on_c, 0, 69, 0
1, 350820, Note_on_c, 0, 77, 0
1, 350820, Note_on_c, 0, 60, 0
1, 350820, Note_on_c, 0, 65, 0
1, 350880, Tempo, 519481
1, 350880, Note_on_c, 0, 77, 39
1, 350880, Note_on_c, 0, 65, 26
1, 350880, Note_on_c, 0, 69, 31
1, 350880, Note_on_c, 0, 60, 26
1, 350890, Control_c, 0, 64, 0
1, 350940, Note_on_c, 0, 81, 52
1, 350940, Note_on_c, 0, 72, 44
1, 350983, Control_c, 0, 64, 127
1, 351120, Tempo, 535714
1, 351120, Note_on_c, 0, 60, 0
1, 351120, Note_on_c, 0, 69, 0
1, 351120, Note_on_c, 0, 65, 0
1, 351120, Note_on_c, 0, 60, 26
1, 351120, Note_on_c, 0, 57, 26
1, 351120, Note_on_c, 0, 65, 31
1, 351240, Note_on_c, 0, 77, 0
1, 351240, Note_on_c, 0, 72, 0
1, 351240, Note_on_c, 0, 81, 0
1, 351240, Note_on_c, 0, 72, 27
1, 351240, Note_on_c, 0, 69, 27
1, 351240, Note_on_c, 0, 77, 34
1, 351360, Tempo, 528634
1, 351360, Note_on_c, 0, 77, 0
1, 351360, Note_on_c, 0, 57, 0
1, 351360, Note_on_c, 0, 60, 0
1, 351360, Note_on_c, 0, 65, 0
1, 351360, Note_on_c, 0, 69, 0
1, 351360, Note_on_c, 0, 72, 0
1, 351360, Note_on_c, 0, 72, 32
1, 351360, Note_on_c, 0, 69, 32
1, 351360, Note_on_c, 0, 77, 40
1, 351360, Note_on_c, 0, 48, 37
1, 351360, Control_c, 0, 64, 0
1, 351600, Tempo, 519481
1, 351600, Note_on_c, 0, 48, 0
1, 351600, Note_on_c, 0, 72, 0
1, 351600, Note_on_c, 0, 69, 0
1, 351600, Note_on_c, 0, 77, 0
1, 351600, Note_on_c, 0, 67, 26
1, 351600, Note_on_c, 0, 72, 26
1, 351600, Note_on_c, 0, 76, 33
1, 351600, Note_on_c, 0, 60, 23
1, 351600, Note_on_c, 0, 55, 23
1, 351600, Note_on_c, 0, 64, 28
1, 351639, Control_c, 0, 64, 127
1, 351780, Note_on_c, 0, 64, 0
1, 351780, Note_on_c, 0, 72, 0
1, 351780, Note_on_c, 0, 76, 0
1, 351780, Note_on_c, 0, 67, 0
1, 351780, Note_on_c, 0, 55, 0
1, 351780, Note_on_c, 0, 60, 0
1, 351840, Note_on_c, 0, 67, 26
1, 351840, Note_on_c, 0, 72, 26
1, 351840, Note_on_c, 0, 76, 33
1, 351840, Note_on_c, 0, 60, 23
1, 351840, Note_on_c, 0, 64, 28
1, 351840, Note_on_c, 0, 55, 23
1, 352020, Note_on_c, 0, 55, 0
1, 352020, Note_on_c, 0, 72, 0
1, 352020, Note_on_c, 0, 76, 0
1, 352020, Note_on_c, 0, 67, 0
1, 352020, Note_on_c, 0, 64, 0
1, 352020, Note_on_c, 0, 60, 0
1, 352080, Tempo, 530973
1, 352080, Note_on_c, 0, 67, 26
1, 352080, Note_on_c, 0, 72, 26
1, 352080, Note_on_c, 0, 76, 33
1, 352080, Note_on_c, 0, 64, 28
1, 352080, Note_on_c, 0, 55, 23
1, 352080, Note_on_c, 0, 60, 23
1, 352260, Note_on_c, 0, 60, 0
1, 352260, Note_on_c, 0, 72, 0
1, 352260, Note_on_c, 0, 76, 0
1, 352260, Note_on_c, 0, 67, 0
1, 352260, Note_on_c, 0, 55, 0
1, 352260, Note_on_c, 0, 64, 0
1, 352320, Tempo, 528634
1, 352320, Note_on_c, 0, 76, 37
1, 352320, Note_on_c, 0, 67, 29
1, 352320, Note_on_c, 0, 72, 29
1, 352320, Note_on_c, 0, 55, 31
1, 352320, Note_on_c, 0, 64, 37
1, 352320, Note_on_c, 0, 60, 31
1, 352500, Note_on_c, 0, 60, 0
1, 352500, Note_on_c, 0, 67, 0
1, 352500, Note_on_c, 0, 72, 0
1, 352500, Note_on_c, 0, 76, 0
1, 352500, Note_on_c, 0, 64, 0
1, 352500, Note_on_c, 0, 55, 0
1, 352560, Note_on_c, 0, 72, 25
1, 352560, Note_on_c, 0, 67, 25
1, 352560, Note_on_c, 0, 76, 32
1, 352560, Note_on_c, 0, 55, 24
1, 352560, Note_on_c, 0, 60, 24
1, 352560, Note_on_c, 0, 64, 29
1, 352740, Note_on_c, 0, 64, 0
1, 352740, Note_on_c, 0, 67, 0
1, 352740, Note_on_c, 0, 76, 0
1, 352740, Note_on_c, 0, 72, 0
1, 352740, Note_on_c, 0, 60, 0
1, 352740, Note_on_c, 0, 55, 0
1, 352800, Note_on_c, 0, 77, 35
1, 352800, Note_on_c, 0, 69, 27
1, 352800, Note_on_c, 0, 72, 27
1, 352800, Note_on_c, 0, 60, 26
1, 352800, Note_on_c, 0, 57, 26
1, 352800, Note_on_c, 0, 65, 31
1, 352811, Control_c, 0, 64, 0
1, 352867, Control_c, 0, 64, 127
1, 353040, Tempo, 540541
1, 353040, Note_on_c, 0, 65, 0
1, 353040, Note_on_c, 0, 69, 0
1, 353040, Note_on_c, 0, 72, 0
1, 353040, Note_on_c, 0, 77, 0
1, 353040, Note_on_c, 0, 57, 0
1, 353040, Note_on_c, 0, 60, 0
1, 353040, Note_on_c, 0, 79, 39
1, 353040, Note_on_c, 0, 70, 31
1, 353040, Note_on_c, 0, 72, 31
1, 353040, Note_on_c, 0, 60, 28
1, 353040, Note_on_c, 0, 67, 33
1, 353040, Note_on_c, 0, 58, 28
1, 353280, Tempo, 566038
1, 353280, Note_on_c, 0, 58, 0
1, 353280, Note_on_c, 0, 70, 0
1, 353280, Note_on_c, 0, 72, 0
1, 353280, Note_on_c, 0, 79, 0
1, 353280, Note_on_c, 0, 67, 0
1, 353280, Note_on_c, 0, 60, 0
1, 353280, Note_on_c, 0, 70, 34
1, 353280, Note_on_c, 0, 72, 43
1, 353280, Note_on_c, 0, 53, 43
1, 353280, Control_c, 0, 64, 0
1, 353520, Tempo, 504202
1, 353520, Note_on_c, 0, 72, 0
1, 353520, Note_on_c, 0, 70, 0
1, 353520, Note_on_c, 0, 77, 36
1, 353520, Note_on_c, 0, 69, 28
1, 353520, Note_on_c, 0, 72, 28
1, 353520, Note_on_c, 0, 57, 23
1, 353520, Note_on_c, 0, 60, 23
1, 353520, Note_on_c, 0, 65, 28
1, 353552, Control_c, 0, 64, 127
1, 353700, Note_on_c, 0, 65, 0
1, 353700, Note_on_c, 0, 57, 0
1, 353700, Note_on_c, 0, 77, 0
1, 353700, Note_on_c, 0, 69, 0
1, 353700, Note_on_c, 0, 72, 0
1, 353700, Note_on_c, 0, 60, 0
1, 353760, Tempo, 515021
1, 353760, Note_on_c, 0, 77, 36
1, 353760, Note_on_c, 0, 69, 28
1, 353760, Note_on_c, 0, 72, 28
1, 353760, Note_on_c, 0, 60, 23
1, 353760, Note_on_c, 0, 65, 28
1, 353760, Note_on_c, 0, 57, 23
1, 353940, Note_on_c, 0, 57, 0
1, 353940, Note_on_c, 0, 60, 0
1, 353940, Note_on_c, 0, 77, 0
1, 353940, Note_on_c, 0, 69, 0
1, 353940, Note_on_c, 0, 72, 0
1, 353940, Note_on_c, 0, 65, 0
1, 354000, Tempo, 535714
1, 354000, Note_on_c, 0, 72, 28
1, 354000, Note_on_c, 0, 77, 36
1, 354000, Note_on_c, 0, 69, 28
1, 354000, Note_on_c, 0, 65, 31
1, 354000, Note_on_c, 0, 60, 26
1, 354000, Note_on_c, 0, 57, 26
1, 354180, Note_on_c, 0, 57, 0
1, 354180, Note_on_c, 0, 65, 0
1, 354180, Note_on_c, 0, 72, 0
1, 354180, Note_on_c, 0, 77, 0
1, 354180, Note_on_c, 0, 69, 0
1, 354180, Note_on_c, 0, 60, 0
1, 354240, Tempo, 519481
1, 354240, Note_on_c, 0, 72, 29
1, 354240, Note_on_c, 0, 77, 37
1, 354240, Note_on_c, 0, 69, 23
1, 354240, Note_on_c, 0, 57, 31
1, 354240, Note_on_c, 0, 60, 31
1, 354240, Note_on_c, 0, 65, 37
1, 354304, Control_c, 0, 64, 0
1, 354420, Note_on_c, 0, 65, 0
1, 354420, Note_on_c, 0, 57, 0
1, 354420, Note_on_c, 0, 72, 0
1, 354420, Note_on_c, 0, 77, 0
1, 354420, Note_on_c, 0, 53, 0
1, 354420, Note_on_c, 0, 60, 0
1, 354420, Note_on_c, 0, 69, 0
1, 354459, Control_c, 0, 64, 127
1, 354480, Tempo, 545455
1, 354480, Note_on_c, 0, 72, 43
1, 354480, Note_on_c, 0, 60, 31
1, 354480, Note_on_c, 0, 57, 31
1, 354600, Note_on_c, 0, 72, 0
1, 354600, Note_on_c, 0, 84, 36
1, 354720, Tempo, 519481
1, 354720, Note_on_c, 0, 84, 0
1, 354720, Note_on_c, 0, 57, 0
1, 354720, Note_on_c, 0, 60, 0
1, 354720, Note_on_c, 0, 77, 43
1, 354720, Note_on_c, 0, 60, 31
1, 354720, Note_on_c, 0, 65, 31
1, 354720, Note_on_c, 0, 57, 31
1, 354731, Control_c, 0, 64, 0
1, 354787, Control_c, 0, 64, 127
1, 354840, Note_on_c, 0, 77, 0
1, 354840, Note_on_c, 0, 84, 36
1, 354960, Tempo, 535714
1, 354960, Note_on_c, 0, 84, 0
1, 354960, Note_on_c, 0, 57, 0
1, 354960, Note_on_c, 0, 65, 0
1, 354960, Note_on_c, 0, 60, 0
1, 354960, Note_on_c, 0, 79, 44
1, 354960, Note_on_c, 0, 64, 31
1, 354960, Note_on_c, 0, 60, 31
1, 354960, Note_on_c, 0, 67, 31
1, 354966, Control_c, 0, 64, 0
1, 355027, Control_c, 0, 64, 127
1, 355080, Note_on_c, 0, 79, 0
1, 355080, Note_on_c, 0, 84, 36
1, 355200, Tempo, 558140
1, 355200, Note_on_c, 0, 84, 0
1, 355200, Note_on_c, 0, 67, 0
1, 355200, Note_on_c, 0, 60, 0
1, 355200, Note_on_c, 0, 64, 0
1, 355200, Note_on_c, 0, 72, 47
1, 355200, Note_on_c, 0, 53, 46
1, 355200, Control_c, 0, 64, 0
1, 355274, Control_c, 0, 64, 127
1, 355320, Note_on_c, 0, 53, 0
1, 355320, Note_on_c, 0, 72, 0
1, 355320, Note_on_c, 0, 84, 36
1, 355440, Tempo, 519481
1, 355440, Note_on_c, 0, 84, 0
1, 355440, Note_on_c, 0, 81, 43
1, 355440, Note_on_c, 0, 69, 28
1, 355440, Note_on_c, 0, 65, 23
1, 355440, Note_on_c, 0, 60, 23
1, 355560, Note_on_c, 0, 81, 0
1, 355560, Note_on_c, 0, 72, 36
1, 355620, Note_on_c, 0, 69, 0
1, 355620, Note_on_c, 0, 60, 0
1, 355620, Note_on_c, 0, 65, 0
1, 355680, Note_on_c, 0, 72, 0
1, 355680, Note_on_c, 0, 72, 43
1, 355680, Note_on_c, 0, 60, 23
1, 355680, Note_on_c, 0, 65, 23
1, 355680, Note_on_c, 0, 69, 28
1, 355800, Note_on_c, 0, 72, 0
1, 355800, Note_on_c, 0, 84, 36
1, 355860, Note_on_c, 0, 60, 0
1, 355860, Note_on_c, 0, 69, 0
1, 355860, Note_on_c, 0, 65, 0
1, 355920, Tempo, 530973
1, 355920, Note_on_c, 0, 84, 0
1, 355920, Note_on_c, 0, 81, 43
1, 355920, Note_on_c, 0, 69, 28
1, 355920, Note_on_c, 0, 65, 23
1, 355920, Note_on_c, 0, 60, 23
1, 356040, Note_on_c, 0, 81, 0
1, 356040, Note_on_c, 0, 72, 36
1, 356100, Note_on_c, 0, 69, 0
1, 356100, Note_on_c, 0, 60, 0
1, 356100, Note_on_c, 0, 65, 0
1, 356160, Tempo, 528634
1, 356160, Note_on_c, 0, 72, 0
1, 356160, Note_on_c, 0, 72, 46
1, 356160, Note_on_c, 0, 59, 31
1, 356160, Note_on_c, 0, 65, 31
1, 356160, Note_on_c, 0, 68, 37
1, 356170, Control_c, 0, 64, 0
1, 356280, Note_on_c, 0, 72, 0
1, 356280, Note_on_c, 0, 84, 36
1, 356400, Note_on_c, 0, 84, 0
1, 356400, Note_on_c, 0, 68, 0
1, 356400, Note_on_c, 0, 65, 0
1, 356400, Note_on_c, 0, 59, 0
1, 356400, Note_on_c, 0, 81, 45
1, 356400, Note_on_c, 0, 60, 24
1, 356400, Note_on_c, 0, 65, 24
1, 356400, Note_on_c, 0, 69, 29
1, 356432, Control_c, 0, 64, 127
1, 356520, Note_on_c, 0, 81, 0
1, 356520, Note_on_c, 0, 72, 36
1, 356580, Note_on_c, 0, 60, 0
1, 356580, Note_on_c, 0, 69, 0
1, 356580, Note_on_c, 0, 65, 0
1, 356640, Note_on_c, 0, 72, 0
1, 356640, Note_on_c, 0, 72, 45
1, 356640, Note_on_c, 0, 65, 26
1, 356640, Note_on_c, 0, 69, 31
1, 356640, Note_on_c, 0, 60, 26
1, 356760, Note_on_c, 0, 72, 0
1, 356760, Note_on_c, 0, 84, 39
1, 356820, Note_on_c, 0, 65, 0
1, 356820, Note_on_c, 0, 60, 0
1, 356820, Note_on_c, 0, 69, 0
1, 356880, Tempo, 540541
1, 356880, Note_on_c, 0, 84, 0
1, 356880, Note_on_c, 0, 77, 46
1, 356880, Note_on_c, 0, 65, 28
1, 356880, Note_on_c, 0, 69, 33
1, 356880, Note_on_c, 0, 60, 28
1, 357000, Note_on_c, 0, 77, 0
1, 357000, Note_on_c, 0, 89, 36
1, 357060, Note_on_c, 0, 65, 0
1, 357060, Note_on_c, 0, 60, 0
1, 357060, Note_on_c, 0, 69, 0
1, 357120, Tempo, 574163
1, 357120, Note_on_c, 0, 89, 0
1, 357120, Note_on_c, 0, 77, 50
1, 357120, Note_on_c, 0, 65, 31
1, 357120, Note_on_c, 0, 58, 43
1, 357120, Note_on_c, 0, 63, 31
1, 357120, Note_on_c, 0, 72, 37
1, 357120, Control_c, 0, 64, 0
1, 357240, Note_on_c, 0, 77, 0
1, 357240, Note_on_c, 0, 89, 36
1, 357360, Tempo, 504202
1, 357360, Note_on_c, 0, 89, 0
1, 357360, Note_on_c, 0, 72, 0
1, 357360, Note_on_c, 0, 65, 0
1, 357360, Note_on_c, 0, 63, 0
1, 357360, Note_on_c, 0, 86, 43
1, 357360, Note_on_c, 0, 70, 28
1, 357360, Note_on_c, 0, 62, 23
1, 357360, Note_on_c, 0, 65, 23
1, 357396, Control_c, 0, 64, 127
1, 357480, Note_on_c, 0, 86, 0
1, 357480, Note_on_c, 0, 77, 36
1, 357540, Note_on_c, 0, 62, 0
1, 357540, Note_on_c, 0, 65, 0
1, 357540, Note_on_c, 0, 70, 0
1, 357600, Tempo, 515021
1, 357600, Note_on_c, 0, 77, 0
1, 357600, Note_on_c, 0, 77, 50
1, 357600, Note_on_c, 0, 70, 28
1, 357600, Note_on_c, 0, 65, 23
1, 357600, Note_on_c, 0, 62, 23
1, 357720, Note_on_c, 0, 77, 0
1, 357720, Note_on_c, 0, 89, 36
1, 357780, Note_on_c, 0, 65, 0
1, 357780, Note_on_c, 0, 62, 0
1, 357780, Note_on_c, 0, 70, 0
1, 357840, Tempo, 535714
1, 357840, Note_on_c, 0, 89, 0
1, 357840, Note_on_c, 0, 86, 42
1, 357840, Note_on_c, 0, 62, 26
1, 357840, Note_on_c, 0, 70, 31
1, 357840, Note_on_c, 0, 65, 26
1, 357960, Note_on_c, 0, 86, 0
1, 357960, Note_on_c, 0, 77, 36
1, 358020, Note_on_c, 0, 70, 0
1, 358020, Note_on_c, 0, 65, 0
1, 358020, Note_on_c, 0, 62, 0
1, 358080, Tempo, 519481
1, 358080, Note_on_c, 0, 77, 0
1, 358080, Note_on_c, 0, 77, 48
1, 358080, Note_on_c, 0, 62, 31
1, 358080, Note_on_c, 0, 70, 37
1, 358080, Note_on_c, 0, 65, 31
1, 358089, Control_c, 0, 64, 0
1, 358154, Control_c, 0, 64, 127
1, 358200, Note_on_c, 0, 77, 0
1, 358200, Note_on_c, 0, 89, 40
1, 358320, Note_on_c, 0, 89, 0
1, 358320, Note_on_c, 0, 65, 0
1, 358320, Note_on_c, 0, 58, 0
1, 358320, Note_on_c, 0, 62, 0
1, 358320, Note_on_c, 0, 70, 0
1, 358320, Note_on_c, 0, 78, 51
1, 358320, Note_on_c, 0, 69, 31
1, 358320, Note_on_c, 0, 60, 26
1, 358320, Note_on_c, 0, 62, 26
1, 358330, Control_c, 0, 64, 0
1, 358387, Control_c, 0, 64, 127
1, 358440, Note_on_c, 0, 78, 0
1, 358440, Note_on_c, 0, 90, 42
1, 358560, Note_on_c, 0, 90, 0
1, 358560, Note_on_c, 0, 62, 0
1, 358560, Note_on_c, 0, 60, 0
1, 358560, Note_on_c, 0, 69, 0
1, 358560, Note_on_c, 0, 79, 57
1, 358560, Note_on_c, 0, 62, 27
1, 358560, Note_on_c, 0, 67, 32
1, 358560, Note_on_c, 0, 58, 27
1, 358570, Control_c, 0, 64, 0
1, 358620, Control_c, 0, 64, 127
1, 358680, Note_on_c, 0, 79, 0
1, 358680, Note_on_c, 0, 91, 43
1, 358800, Tempo, 535714
1, 358800, Note_on_c, 0, 91, 0
1, 358800, Note_on_c, 0, 58, 0
1, 358800, Note_on_c, 0, 67, 0
1, 358800, Note_on_c, 0, 62, 0
1, 358800, Note_on_c, 0, 81, 53
1, 358800, Note_on_c, 0, 93, 53
1, 358800, Note_on_c, 0, 57, 28
1, 358800, Note_on_c, 0, 65, 33
1, 358800, Note_on_c, 0, 60, 28
1, 358810, Control_c, 0, 64, 0
1, 358867, Control_c, 0, 64, 127
1, 358920, Note_on_c, 0, 93, 0
1, 358920, Note_on_c, 0, 81, 0
1, 358920, Note_on_c, 0, 82, 59
1, 358920, Note_on_c, 0, 94, 59
1, 359040, Tempo, 528634
1, 359040, Note_on_c, 0, 94, 0
1, 359040, Note_on_c, 0, 65, 0
1, 359040, Note_on_c, 0, 60, 0
1, 359040, Note_on_c, 0, 57, 0
1, 359040, Note_on_c, 0, 82, 0
1, 359040, Note_on_c, 0, 84, 67
1, 359040, Note_on_c, 0, 48, 41
1, 359040, Control_c, 0, 64, 0
1, 359136, Control_c, 0, 64, 127
1, 359160, Note_on_c, 0, 84, 0
1, 359160, Note_on_c, 0, 96, 53
1, 359280, Tempo, 519481
1, 359280, Note_on_c, 0, 96, 0
1, 359280, Note_on_c, 0, 48, 0
1, 359280, Note_on_c, 0, 94, 60
1, 359280, Note_on_c, 0, 60, 26
1, 359280, Note_on_c, 0, 55, 26
1, 359280, Note_on_c, 0, 64, 32
1, 359400, Note_on_c, 0, 94, 0
1, 359400, Note_on_c, 0, 84, 53
1, 359460, Note_on_c, 0, 60, 0
1, 359460, Note_on_c, 0, 64, 0
1, 359460, Note_on_c, 0, 55, 0
1, 359520, Note_on_c, 0, 84, 0
1, 359520, Note_on_c, 0, 84, 63
1, 359520, Note_on_c, 0, 64, 32
1, 359520, Note_on_c, 0, 55, 26
1, 359520, Note_on_c, 0, 60, 26
1, 359640, Note_on_c, 0, 84, 0
1, 359640, Note_on_c, 0, 96, 53
1, 359700, Note_on_c, 0, 64, 0
1, 359700, Note_on_c, 0, 60, 0
1, 359700, Note_on_c, 0, 55, 0
1, 359760, Tempo, 530973
1, 359760, Note_on_c, 0, 96, 0
1, 359760, Note_on_c, 0, 94, 60
1, 359760, Note_on_c, 0, 55, 26
1, 359760, Note_on_c, 0, 64, 32
1, 359760, Note_on_c, 0, 60, 26
1, 359880, Note_on_c, 0, 94, 0
1, 359880, Note_on_c, 0, 84, 50
1, 359940, Note_on_c, 0, 55, 0
1, 359940, Note_on_c, 0, 60, 0
1, 359940, Note_on_c, 0, 64, 0
1, 360000, Tempo, 560748
1, 360000, Note_on_c, 0, 84, 0
1, 360000, Note_on_c, 0, 84, 59
1, 360000, Note_on_c, 0, 60, 35
1, 360000, Note_on_c, 0, 55, 35
1, 360000, Note_on_c, 0, 64, 42
1, 360120, Note_on_c, 0, 84, 0
1, 360120, Note_on_c, 0, 96, 45
1, 360180, Note_on_c, 0, 60, 0
1, 360180, Note_on_c, 0, 64, 0
1, 360180, Note_on_c, 0, 55, 0
1, 360240, Tempo, 542986
1, 360240, Note_on_c, 0, 96, 0
1, 360240, Note_on_c, 0, 94, 56
1, 360240, Note_on_c, 0, 64, 33
1, 360240, Note_on_c, 0, 55, 27
1, 360240, Note_on_c, 0, 60, 27
1, 360360, Note_on_c, 0, 94, 0
1, 360360, Note_on_c, 0, 84, 48
1, 360420, Note_on_c, 0, 64, 0
1, 360420, Note_on_c, 0, 60, 0
1, 360420, Note_on_c, 0, 55, 0
1, 360480, Tempo, 550459
1, 360480, Note_on_c, 0, 84, 0
1, 360480, Note_on_c, 0, 93, 58
1, 360480, Note_on_c, 0, 65, 35
1, 360480, Note_on_c, 0, 57, 29
1, 360480, Note_on_c, 0, 60, 29
1, 360491, Control_c, 0, 64, 0
1, 360547, Control_c, 0, 64, 127
1, 360600, Note_on_c, 0, 93, 0
1, 360600, Note_on_c, 0, 96, 47
1, 360720, Tempo, 563380
1, 360720, Note_on_c, 0, 96, 0
1, 360720, Note_on_c, 0, 60, 0
1, 360720, Note_on_c, 0, 57, 0
1, 360720, Note_on_c, 0, 65, 0
1, 360720, Note_on_c, 0, 91, 59
1, 360720, Note_on_c, 0, 58, 32
1, 360720, Note_on_c, 0, 67, 37
1, 360720, Note_on_c, 0, 60, 32
1, 360840, Note_on_c, 0, 91, 0
1, 360840, Note_on_c, 0, 96, 52
1, 360960, Tempo, 571429
1, 360960, Note_on_c, 0, 96, 0
1, 360960, Note_on_c, 0, 60, 0
1, 360960, Note_on_c, 0, 67, 0
1, 360960, Note_on_c, 0, 58, 0
1, 360960, Note_on_c, 0, 84, 64
1, 360960, Note_on_c, 0, 53, 43
1, 360960, Note_on_c, 0, 58, 31
1, 360960, Note_on_c, 0, 60, 37
1, 360960, Control_c, 0, 64, 0
1, 361080, Note_on_c, 0, 84, 0
1, 361080, Note_on_c, 0, 96, 43
1, 361200, Tempo, 504202
1, 361200, Note_on_c, 0, 96, 0
1, 361200, Note_on_c, 0, 60, 0
1, 361200, Note_on_c, 0, 58, 0
1, 361200, Note_on_c, 0, 93, 55
1, 361200, Note_on_c, 0, 57, 26
1, 361200, Note_on_c, 0, 65, 32
1, 361200, Note_on_c, 0, 60, 26
1, 361246, Control_c, 0, 64, 127
1, 361320, Note_on_c, 0, 93, 0
1, 361320, Note_on_c, 0, 84, 44
1, 361380, Note_on_c, 0, 65, 0
1, 361380, Note_on_c, 0, 60, 0
1, 361380, Note_on_c, 0, 57, 0
1, 361440, Tempo, 515021
1, 361440, Note_on_c, 0, 84, 0
1, 361440, Note_on_c, 0, 84, 51
1, 361440, Note_on_c, 0, 65, 32
1, 361440, Note_on_c, 0, 60, 26
1, 361440, Note_on_c, 0, 57, 26
1, 361560, Note_on_c, 0, 84, 0
1, 361560, Note_on_c, 0, 96, 43
1, 361620, Note_on_c, 0, 60, 0
1, 361620, Note_on_c, 0, 57, 0
1, 361620, Note_on_c, 0, 65, 0
1, 361680, Tempo, 535714
1, 361680, Note_on_c, 0, 96, 0
1, 361680, Note_on_c, 0, 93, 47
1, 361680, Note_on_c, 0, 57, 29
1, 361680, Note_on_c, 0, 60, 29
1, 361680, Note_on_c, 0, 65, 35
1, 361800, Note_on_c, 0, 93, 0
1, 361800, Note_on_c, 0, 84, 41
1, 361860, Note_on_c, 0, 60, 0
1, 361860, Note_on_c, 0, 65, 0
1, 361860, Note_on_c, 0, 57, 0
1, 361920, Tempo, 519481
1, 361920, Note_on_c, 0, 84, 0
1, 361920, Note_on_c, 0, 84, 47
1, 361920, Note_on_c, 0, 65, 35
1, 361936, Control_c, 0, 64, 0
1, 361980, Note_on_c, 0, 60, 35
1, 361980, Note_on_c, 0, 69, 42
1, 362040, Note_on_c, 0, 84, 0
1, 362040, Note_on_c, 0, 96, 39
1, 362040, Control_c, 0, 64, 127
1, 362160, Tempo, 585366
1, 362160, Note_on_c, 0, 96, 0
1, 362160, Note_on_c, 0, 69, 0
1, 362160, Note_on_c, 0, 53, 0
1, 362160, Note_on_c, 0, 65, 0
1, 362160, Note_on_c, 0, 60, 0
1, 362160, Note_on_c, 0, 93, 41
1, 362160, Note_on_c, 0, 60, 26
1, 362160, Note_on_c, 0, 65, 31
1, 362160, Note_on_c, 0, 57, 26
1, 362280, Note_on_c, 0, 93, 0
1, 362280, Note_on_c, 0, 84, 38
1, 362340, Note_on_c, 0, 60, 0
1, 362340, Note_on_c, 0, 57, 0
1, 362340, Note_on_c, 0, 65, 0
1, 362400, Tempo, 519481
1, 362400, Note_on_c, 0, 84, 0
1, 362400, Note_on_c, 0, 89, 47
1, 362400, Note_on_c, 0, 57, 26
1, 362400, Note_on_c, 0, 60, 26
1, 362400, Note_on_c, 0, 65, 31
1, 362520, Note_on_c, 0, 89, 0
1, 362520, Note_on_c, 0, 101, 42
1, 362580, Note_on_c, 0, 57, 0
1, 362580, Note_on_c, 0, 65, 0
1, 362580, Note_on_c, 0, 60, 0
1, 362640, Tempo, 535714
1, 362640, Note_on_c, 0, 101, 0
1, 362640, Note_on_c, 0, 84, 43
1, 362640, Note_on_c, 0, 65, 31
1, 362640, Note_on_c, 0, 57, 26
1, 362640, Note_on_c, 0, 60, 26
1, 362760, Note_on_c, 0, 84, 0
1, 362760, Note_on_c, 0, 96, 37
1, 362820, Note_on_c, 0, 65, 0
1, 362820, Note_on_c, 0, 60, 0
1, 362820, Note_on_c, 0, 57, 0
1, 362880, Tempo, 528634
1, 362880, Note_on_c, 0, 96, 0
1, 362880, Note_on_c, 0, 84, 50
1, 362880, Note_on_c, 0, 48, 37
1, 362880, Control_c, 0, 64, 0
1, 362976, Control_c, 0, 64, 127
1, 363000, Note_on_c, 0, 84, 0
1, 363000, Note_on_c, 0, 96, 37
1, 363120, Tempo, 519481
1, 363120, Note_on_c, 0, 96, 0
1, 363120, Note_on_c, 0, 48, 0
1, 363120, Note_on_c, 0, 94, 44
1, 363120, Note_on_c, 0, 60, 23
1, 363120, Note_on_c, 0, 55, 23
1, 363120, Note_on_c, 0, 64, 28
1, 363240, Note_on_c, 0, 94, 0
1, 363240, Note_on_c, 0, 84, 37
1, 363300, Note_on_c, 0, 60, 0
1, 363300, Note_on_c, 0, 64, 0
1, 363300, Note_on_c, 0, 55, 0
1, 363360, Note_on_c, 0, 84, 0
1, 363360, Note_on_c, 0, 84, 48
1, 363360, Note_on_c, 0, 64, 28
1, 363360, Note_on_c, 0, 60, 23
1, 363360, Note_on_c, 0, 55, 23
1, 363480, Note_on_c, 0, 84, 0
1, 363480, Note_on_c, 0, 96, 37
1, 363540, Note_on_c, 0, 64, 0
1, 363540, Note_on_c, 0, 55, 0
1, 363540, Note_on_c, 0, 60, 0
1, 363600, Tempo, 530973
1, 363600, Note_on_c, 0, 96, 0
1, 363600, Note_on_c, 0, 94, 43
1, 363600, Note_on_c, 0, 64, 28
1, 363600, Note_on_c, 0, 55, 23
1, 363600, Note_on_c, 0, 60, 23
1, 363720, Note_on_c, 0, 94, 0
1, 363720, Note_on_c, 0, 84, 37
1, 363780, Note_on_c, 0, 64, 0
1, 363780, Note_on_c, 0, 60, 0
1, 363780, Note_on_c, 0, 55, 0
1, 363840, Tempo, 528634
1, 363840, Note_on_c, 0, 84, 0
1, 363840, Note_on_c, 0, 84, 48
1, 363840, Note_on_c, 0, 55, 31
1, 363840, Note_on_c, 0, 60, 31
1, 363840, Note_on_c, 0, 64, 37
1, 363960, Note_on_c, 0, 84, 0
1, 363960, Note_on_c, 0, 96, 37
1, 364020, Note_on_c, 0, 55, 0
1, 364020, Note_on_c, 0, 64, 0
1, 364020, Note_on_c, 0, 60, 0
1, 364080, Note_on_c, 0, 96, 0
1, 364080, Note_on_c, 0, 94, 48
1, 364080, Note_on_c, 0, 64, 29
1, 364080, Note_on_c, 0, 55, 24
1, 364080, Note_on_c, 0, 60, 24
1, 364200, Note_on_c, 0, 94, 0
1, 364200, Note_on_c, 0, 84, 44
1, 364260, Note_on_c, 0, 64, 0
1, 364260, Note_on_c, 0, 60, 0
1, 364260, Note_on_c, 0, 55, 0
1, 364320, Note_on_c, 0, 84, 0
1, 364320, Note_on_c, 0, 93, 53
1, 364320, Note_on_c, 0, 65, 31
1, 364320, Note_on_c, 0, 57, 26
1, 364320, Note_on_c, 0, 60, 26
1, 364331, Control_c, 0, 64, 0
1, 364387, Control_c, 0, 64, 127
1, 364440, Note_on_c, 0, 93, 0
1, 364440, Note_on_c, 0, 96, 46
1, 364560, Tempo, 540541
1, 364560, Note_on_c, 0, 96, 0
1, 364560, Note_on_c, 0, 60, 0
1, 364560, Note_on_c, 0, 57, 0
1, 364560, Note_on_c, 0, 65, 0
1, 364560, Note_on_c, 0, 91, 52
1, 364560, Note_on_c, 0, 58, 28
1, 364560, Note_on_c, 0, 60, 28
1, 364560, Note_on_c, 0, 67, 33
1, 364680, Note_on_c, 0, 91, 0
1, 364680, Note_on_c, 0, 96, 47
1, 364800, Tempo, 566038
1, 364800, Note_on_c, 0, 96, 0
1, 364800, Note_on_c, 0, 67, 0
1, 364800, Note_on_c, 0, 60, 0
1, 364800, Note_on_c, 0, 58, 0
1, 364800, Note_on_c, 0, 84, 58
1, 364800, Note_on_c, 0, 60, 33
1, 364800, Note_on_c, 0, 58, 29
1, 364800, Note_on_c, 0, 53, 43
1, 364800, Control_c, 0, 64, 0
1, 364920, Note_on_c, 0, 84, 0
1, 364920, Note_on_c, 0, 96, 36
1, 365040, Tempo, 504202
1, 365040, Note_on_c, 0, 96, 0
1, 365040, Note_on_c, 0, 60, 0
1, 365040, Note_on_c, 0, 58, 0
1, 365040, Note_on_c, 0, 93, 48
1, 365040, Note_on_c, 0, 60, 23
1, 365040, Note_on_c, 0, 57, 23
1, 365040, Note_on_c, 0, 65, 28
1, 365047, Control_c, 0, 64, 127
1, 365160, Note_on_c, 0, 93, 0
1, 365160, Note_on_c, 0, 84, 41
1, 365220, Note_on_c, 0, 57, 0
1, 365220, Note_on_c, 0, 65, 0
1, 365220, Note_on_c, 0, 60, 0
1, 365280, Tempo, 515021
1, 365280, Note_on_c, 0, 84, 0
1, 365280, Note_on_c, 0, 84, 54
1, 365280, Note_on_c, 0, 60, 23
1, 365280, Note_on_c, 0, 57, 23
1, 365280, Note_on_c, 0, 65, 28
1, 365400, Note_on_c, 0, 84, 0
1, 365400, Note_on_c, 0, 96, 36
1, 365460, Note_on_c, 0, 57, 0
1, 365460, Note_on_c, 0, 65, 0
1, 365460, Note_on_c, 0, 60, 0
1, 365520, Tempo, 535714
1, 365520, Note_on_c, 0, 96, 0
1, 365520, Note_on_c, 0, 93, 48
1, 365520, Note_on_c, 0, 65, 31
1, 365520, Note_on_c, 0, 60, 26
1, 365520, Note_on_c, 0, 57, 26
1, 365640, Note_on_c, 0, 93, 0
1, 365640, Note_on_c, 0, 84, 42
1, 365700, Note_on_c, 0, 60, 0
1, 365700, Note_on_c, 0, 57, 0
1, 365700, Note_on_c, 0, 65, 0
1, 365760, Tempo, 519481
1, 365760, Note_on_c, 0, 84, 0
1, 365760, Note_on_c, 0, 84, 57
1, 365760, Note_on_c, 0, 65, 31
1, 365768, Control_c, 0, 64, 0
1, 365820, Note_on_c, 0, 60, 31
1, 365820, Note_on_c, 0, 69, 37
1, 365834, Control_c, 0, 64, 127
1, 365880, Note_on_c, 0, 84, 0
1, 365880, Note_on_c, 0, 96, 41
1, 366000, Tempo, 585366
1, 366000, Note_on_c, 0, 96, 0
1, 366000, Note_on_c, 0, 69, 0
1, 366000, Note_on_c, 0, 53, 0
1, 366000, Note_on_c, 0, 65, 0
1, 366000, Note_on_c, 0, 60, 0
1, 366000, Note_on_c, 0, 93, 48
1, 366000, Note_on_c, 0, 60, 26
1, 366000, Note_on_c, 0, 65, 31
1, 366000, Note_on_c, 0, 57, 26
1, 366120, Note_on_c, 0, 93, 0
1, 366120, Note_on_c, 0, 84, 42
1, 366180, Note_on_c, 0, 60, 0
1, 366180, Note_on_c, 0, 57, 0
1, 366180, Note_on_c, 0, 65, 0
1, 366240, Tempo, 519481
1, 366240, Note_on_c, 0, 84, 0
1, 366240, Note_on_c, 0, 89, 53
1, 366240, Note_on_c, 0, 57, 26
1, 366240, Note_on_c, 0, 65, 31
1, 366240, Note_on_c, 0, 60, 26
1, 366360, Note_on_c, 0, 89, 0
1, 366360, Note_on_c, 0, 101, 44
1, 366420, Note_on_c, 0, 57, 0
1, 366420, Note_on_c, 0, 60, 0
1, 366420, Note_on_c, 0, 65, 0
1, 366480, Tempo, 535714
1, 366480, Note_on_c, 0, 101, 0
1, 366480, Note_on_c, 0, 84, 53
1, 366480, Note_on_c, 0, 65, 31
1, 366480, Note_on_c, 0, 57, 26
1, 366480, Note_on_c, 0, 60, 26
1, 366600, Note_on_c, 0, 84, 0
1, 366600, Note_on_c, 0, 96, 47
1, 366660, Note_on_c, 0, 65, 0
1, 366660, Note_on_c, 0, 60, 0
1, 366660, Note_on_c, 0, 57, 0
1, 366720, Tempo, 528634
1, 366720, Note_on_c, 0, 96, 0
1, 366720, Note_on_c, 0, 84, 63
1, 366720, Note_on_c, 0, 48, 37
1, 366720, Control_c, 0, 64, 0
1, 366816, Control_c, 0, 64, 127
1, 366840, Note_on_c, 0, 84, 0
1, 366840, Note_on_c, 0, 96, 52
1, 366960, Tempo, 519481
1, 366960, Note_on_c, 0, 96, 0
1, 366960, Note_on_c, 0, 48, 0
1, 366960, Note_on_c, 0, 94, 62
1, 366960, Note_on_c, 0, 64, 28
1, 366960, Note_on_c, 0, 55, 23
1, 366960, Note_on_c, 0, 60, 23
1, 367080, Note_on_c, 0, 94, 0
1, 367080, Note_on_c, 0, 84, 50
1, 367140, Note_on_c, 0, 64, 0
1, 367140, Note_on_c, 0, 60, 0
1, 367140, Note_on_c, 0, 55, 0
1, 367193, Tempo, 521739
1, 367200, Note_on_c, 0, 84, 0
1, 367200, Note_on_c, 0, 84, 63
1, 367200, Note_on_c, 0, 55, 23
1, 367200, Note_on_c, 0, 60, 23
1, 367200, Note_on_c, 0, 64, 28
1, 367270, Tempo, 524017
1, 367320, Note_on_c, 0, 84, 0
1, 367320, Note_on_c, 0, 96, 54
1, 367347, Tempo, 526316
1, 367380, Note_on_c, 0, 55, 0
1, 367380, Note_on_c, 0, 64, 0
1, 367380, Note_on_c, 0, 60, 0
1, 367424, Tempo, 528634
1, 367440, Note_on_c, 0, 96, 0
1, 367440, Note_on_c, 0, 94, 59
1, 367440, Note_on_c, 0, 60, 23
1, 367440, Note_on_c, 0, 55, 23
1, 367440, Note_on_c, 0, 64, 28
1, 367501, Tempo, 530973
1, 367560, Note_on_c, 0, 94, 0
1, 367560, Note_on_c, 0, 84, 51
1, 367577, Tempo, 533333
1, 367620, Note_on_c, 0, 60, 0
1, 367620, Note_on_c, 0, 64, 0
1, 367620, Note_on_c, 0, 55, 0
1, 367654, Tempo, 535714
1, 367673, Tempo, 558140
1, 367680, Note_on_c, 0, 84, 0
1, 367680, Note_on_c, 0, 84, 64
1, 367680, Note_on_c, 0, 55, 31
1, 367680, Note_on_c, 0, 64, 37
1, 367680, Note_on_c, 0, 60, 31
1, 367712, Tempo, 560748
1, 367731, Tempo, 563380
1, 367769, Tempo, 566038
1, 367789, Tempo, 568720
1, 367800, Note_on_c, 0, 84, 0
1, 367800, Note_on_c, 0, 96, 48
1, 367808, Tempo, 571429
1, 367846, Tempo, 574163
1, 367860, Note_on_c, 0, 55, 0
1, 367860, Note_on_c, 0, 60, 0
1, 367860, Note_on_c, 0, 64, 0
1, 367865, Tempo, 576923
1, 367904, Tempo, 579710
1, 367920, Note_on_c, 0, 96, 0
1, 367920, Note_on_c, 0, 94, 57
1, 367920, Note_on_c, 0, 55, 24
1, 367920, Note_on_c, 0, 64, 29
1, 367920, Note_on_c, 0, 60, 24
1, 367923, Tempo, 582524
1, 367942, Tempo, 585366
1, 367981, Tempo, 588235
1, 368000, Tempo, 591133
1, 368038, Tempo, 594059
1, 368040, Note_on_c, 0, 94, 0
1, 368040, Note_on_c, 0, 84, 46
1, 368057, Tempo, 597015
1, 368077, Tempo, 600000
1, 368100, Note_on_c, 0, 55, 0
1, 368100, Note_on_c, 0, 60, 0
1, 368100, Note_on_c, 0, 64, 0
1, 368115, Tempo, 603015
1, 368134, Tempo, 606061
1, 368153, Tempo, 609137
1, 368160, Note_on_c, 0, 84, 0
1, 368160, Note_on_c, 0, 93, 63
1, 368160, Note_on_c, 0, 57, 26
1, 368160, Note_on_c, 0, 60, 26
1, 368160, Note_on_c, 0, 65, 31
1, 368171, Control_c, 0, 64, 0
1, 368227, Control_c, 0, 64, 127
1, 368280, Note_on_c, 0, 93, 0
1, 368280, Note_on_c, 0, 96, 52
1, 368400, Tempo, 674157
1, 368400, Note_on_c, 0, 96, 0
1, 368400, Note_on_c, 0, 65, 0
1, 368400, Note_on_c, 0, 60, 0
1, 368400, Note_on_c, 0, 57, 0
1, 368400, Note_on_c, 0, 91, 59
1, 368400, Note_on_c, 0, 67, 33
1, 368400, Note_on_c, 0, 60, 28
1, 368400, Note_on_c, 0, 58, 28
1, 368520, Note_on_c, 0, 91, 0
1, 368520, Note_on_c, 0, 96, 48
1, 368640, Tempo, 582524
1, 368640, Note_on_c, 0, 96, 0
1, 368640, Note_on_c, 0, 58, 0
1, 368640, Note_on_c, 0, 60, 0
1, 368640, Note_on_c, 0, 67, 0
1, 368640, Note_on_c, 0, 91, 59
1, 368640, Note_on_c, 0, 48, 33
1, 368640, Control_c, 0, 64, 0
1, 368823, Control_c, 0, 64, 127
1, 368880, Note_on_c, 0, 48, 0
1, 369120, Tempo, 568720
1, 369120, Note_on_c, 0, 67, 33
1, 369120, Note_on_c, 0, 58, 33
1, 369120, Note_on_c, 0, 60, 33
1, 369600, Tempo, 576923
1, 369840, Note_on_c, 0, 91, 0
1, 369840, Note_on_c, 0, 93, 66
1, 369845, Control_c, 0, 64, 0
1, 370080, Tempo, 603015
1, 370080, Note_on_c, 0, 93, 0
1, 370080, Note_on_c, 0, 94, 71
1, 370320, Note_on_c, 0, 94, 0
1, 370320, Note_on_c, 0, 95, 75
1, 370560, Tempo, 526316
1, 370560, Note_on_c, 0, 95, 0
1, 370560, Note_on_c, 0, 96, 79
1, 370560, Control_c, 0, 64, 127
1, 372000, Note_on_c, 0, 96, 0
1, 372000, Note_on_c, 0, 88, 66
1, 372480, Tempo, 504202
1, 372480, Note_on_c, 0, 88, 0
1, 372480, Note_on_c, 0, 60, 0
1, 372480, Note_on_c, 0, 58, 0
1, 372480, Note_on_c, 0, 67, 0
1, 372480, Note_on_c, 0, 89, 56
1, 372480, Note_on_c, 0, 53, 33
1, 372480, Note_on_c, 0, 60, 33
1, 372480, Note_on_c, 0, 57, 33
1, 372480, Note_on_c, 0, 65, 33
1, 372480, Control_c, 0, 64, 0
1, 372579, Control_c, 0, 64, 127
1, 372600, Note_on_c, 0, 89, 0
1, 372600, Note_on_c, 0, 93, 49
1, 372720, Note_on_c, 0, 93, 0
1, 372720, Note_on_c, 0, 84, 49
1, 372840, Note_on_c, 0, 84, 0
1, 372840, Note_on_c, 0, 89, 49
1, 372960, Note_on_c, 0, 89, 0
1, 372960, Note_on_c, 0, 81, 56
1, 373080, Note_on_c, 0, 81, 0
1, 373080, Note_on_c, 0, 84, 44
1, 373200, Note_on_c, 0, 84, 0
1, 373200, Note_on_c, 0, 77, 46
1, 373320, Note_on_c, 0, 77, 0
1, 373320, Note_on_c, 0, 81, 46
1, 373440, Note_on_c, 0, 81, 0
1, 373440, Note_on_c, 0, 72, 51
1, 373560, Note_on_c, 0, 72, 0
1, 373560, Note_on_c, 0, 77, 44
1, 373680, Note_on_c, 0, 77, 0
1, 373680, Note_on_c, 0, 69, 44
1, 373800, Note_on_c, 0, 69, 0
1, 373800, Note_on_c, 0, 72, 44
1, 373920, Note_on_c, 0, 72, 0
1, 373920, Note_on_c, 0, 65, 0
1, 373920, Note_on_c, 0, 53, 0
1, 373920, Note_on_c, 0, 60, 0
1, 373920, Note_on_c, 0, 57, 0
1, 373920, Note_on_c, 0, 65, 51
1, 374040, Note_on_c, 0, 65, 0
1, 374040, Note_on_c, 0, 69, 43
1, 374160, Note_on_c, 0, 69, 0
1, 374160, Note_on_c, 0, 60, 43
1, 374280, Tempo, 538117
1, 374280, Note_on_c, 0, 60, 0
1, 374280, Note_on_c, 0, 65, 43
1, 374400, Tempo, 497925
1, 374400, Note_on_c, 0, 65, 0
1, 374400, Note_on_c, 0, 69, 47
1, 374520, Note_on_c, 0, 69, 0
1, 374520, Note_on_c, 0, 72, 38
1, 374640, Note_on_c, 0, 72, 0
1, 374640, Note_on_c, 0, 60, 38
1, 374760, Note_on_c, 0, 60, 0
1, 374760, Note_on_c, 0, 65, 38
1, 374880, Note_on_c, 0, 65, 0
1, 374880, Note_on_c, 0, 69, 40
1, 375000, Note_on_c, 0, 69, 0
1, 375000, Note_on_c, 0, 72, 36
1, 375120, Note_on_c, 0, 72, 0
1, 375120, Note_on_c, 0, 60, 35
1, 375240, Tempo, 533333
1, 375240, Note_on_c, 0, 60, 0
1, 375240, Note_on_c, 0, 65, 34
1, 375360, Tempo, 495868
1, 375360, Note_on_c, 0, 65, 0
1, 375360, Note_on_c, 0, 69, 39
1, 375480, Note_on_c, 0, 69, 0
1, 375480, Note_on_c, 0, 72, 31
1, 375600, Note_on_c, 0, 72, 0
1, 375600, Note_on_c, 0, 60, 30
1, 375720, Note_on_c, 0, 60, 0
1, 375720, Note_on_c, 0, 65, 30
1, 375840, Note_on_c, 0, 65, 0
1, 375840, Note_on_c, 0, 69, 38
1, 375960, Note_on_c, 0, 69, 0
1, 375960, Note_on_c, 0, 72, 29
1, 376080, Note_on_c, 0, 72, 0
1, 376080, Note_on_c, 0, 60, 29
1, 376200, Tempo, 542986
1, 376200, Note_on_c, 0, 60, 0
1, 376200, Note_on_c, 0, 65, 29
1, 376253, Tempo, 497925
1, 376320, Key_signature, -4, "major"
1, 376320, Tempo, 500000
1, 376320, Note_on_c, 0, 65, 0
1, 376320, Note_on_c, 0, 41, 37
1, 376320, Note_on_c, 0, 68, 37
1, 376320, Control_c, 0, 64, 0
1, 376406, Control_c, 0, 64, 127
1, 376435, Note_on_c, 0, 72, 29
1, 376440, Note_on_c, 0, 68, 0
1, 376555, Note_on_c, 0, 72, 0
1, 376560, Note_on_c, 0, 60, 29
1, 376680, Note_on_c, 0, 60, 0
1, 376680, Note_on_c, 0, 65, 27
1, 376800, Note_on_c, 0, 65, 0
1, 376800, Note_on_c, 0, 41, 0
1, 376800, Note_on_c, 0, 68, 37
1, 376801, Tempo, 497925
1, 376813, Tempo, 495868
1, 376825, Tempo, 493827
1, 376837, Tempo, 491803
1, 376861, Tempo, 489796
1, 376920, Note_on_c, 0, 68, 0
1, 376920, Note_on_c, 0, 72, 29
1, 376933, Tempo, 491803
1, 376945, Tempo, 495868
1, 376957, Tempo, 497925
1, 376993, Tempo, 502092
1, 377029, Tempo, 497925
1, 377040, Note_on_c, 0, 72, 0
1, 377040, Note_on_c, 0, 60, 29
1, 377041, Tempo, 495868
1, 377160, Note_on_c, 0, 60, 0
1, 377160, Note_on_c, 0, 65, 28
1, 377209, Tempo, 497925
1, 377221, Tempo, 500000
1, 377233, Tempo, 504202
1, 377269, Tempo, 500000
1, 377280, Note_on_c, 0, 65, 0
1, 377280, Note_on_c, 0, 68, 37
1, 377281, Tempo, 497925
1, 377305, Tempo, 495868
1, 377317, Tempo, 493827
1, 377341, Tempo, 491803
1, 377400, Note_on_c, 0, 68, 0
1, 377400, Note_on_c, 0, 72, 29
1, 377425, Tempo, 493827
1, 377520, Tempo, 517241
1, 377520, Note_on_c, 0, 72, 0
1, 377520, Note_on_c, 0, 60, 29
1, 377640, Note_on_c, 0, 60, 0
1, 377640, Note_on_c, 0, 65, 26
1, 377760, Tempo, 504202
1, 377760, Note_on_c, 0, 65, 0
1, 377760, Note_on_c, 0, 80, 45
1, 377760, Note_on_c, 0, 77, 38
1, 377760, Note_on_c, 0, 68, 37
1, 377774, Control_c, 0, 64, 0
1, 377880, Note_on_c, 0, 68, 0
1, 377880, Note_on_c, 0, 72, 29
1, 377901, Control_c, 0, 64, 127
1, 378000, Tempo, 528634
1, 378000, Note_on_c, 0, 72, 0
1, 378000, Note_on_c, 0, 77, 0
1, 378000, Note_on_c, 0, 80, 0
1, 378000, Note_on_c, 0, 82, 48
1, 378000, Note_on_c, 0, 79, 40
1, 378000, Note_on_c, 0, 70, 36
1, 378120, Tempo, 638298
1, 378120, Note_on_c, 0, 70, 0
1, 378120, Note_on_c, 0, 72, 39
1, 378240, Tempo, 500000
1, 378240, Note_on_c, 0, 72, 0
1, 378240, Note_on_c, 0, 79, 0
1, 378240, Note_on_c, 0, 82, 0
1, 378240, Note_on_c, 0, 84, 50
1, 378240, Note_on_c, 0, 80, 42
1, 378240, Note_on_c, 0, 68, 47
1, 378240, Control_c, 0, 64, 0
1, 378253, Tempo, 497925
1, 378265, Tempo, 495868
1, 378277, Tempo, 493827
1, 378289, Tempo, 489796
1, 378309, Control_c, 0, 64, 127
1, 378360, Note_on_c, 0, 68, 0
1, 378360, Note_on_c, 0, 72, 36
1, 378361, Tempo, 497925
1, 378385, Tempo, 500000
1, 378397, Tempo, 504202
1, 378421, Tempo, 506329
1, 378433, Tempo, 508475
1, 378469, Tempo, 506329
1, 378480, Note_on_c, 0, 72, 0
1, 378480, Note_on_c, 0, 60, 36
1, 378481, Tempo, 504202
1, 378493, Tempo, 502092
1, 378517, Tempo, 500000
1, 378541, Tempo, 495868
1, 378565, Tempo, 491803
1, 378589, Tempo, 502092
1, 378600, Note_on_c, 0, 60, 0
1, 378600, Note_on_c, 0, 65, 32
1, 378673, Tempo, 504202
1, 378720, Note_on_c, 0, 65, 0
1, 378720, Note_on_c, 0, 80, 0
1, 378720, Note_on_c, 0, 84, 0
1, 378720, Note_on_c, 0, 68, 40
1, 378745, Tempo, 502092
1, 378793, Tempo, 500000
1, 378805, Tempo, 489796
1, 378840, Note_on_c, 0, 68, 0
1, 378840, Note_on_c, 0, 72, 36
1, 378877, Tempo, 491803
1, 378913, Tempo, 493827
1, 378925, Tempo, 495868
1, 378937, Tempo, 497925
1, 378949, Tempo, 500000
1, 378960, Note_on_c, 0, 72, 0
1, 378960, Note_on_c, 0, 60, 36
1, 378961, Tempo, 502092
1, 379033, Tempo, 500000
1, 379080, Note_on_c, 0, 60, 0
1, 379080, Note_on_c, 0, 65, 32
1, 379105, Tempo, 497925
1, 379200, Tempo, 538117
1, 379200, Note_on_c, 0, 65, 0
1, 379200, Note_on_c, 0, 68, 45
1, 379320, Note_on_c, 0, 68, 0
1, 379320, Note_on_c, 0, 72, 35
1, 379440, Tempo, 500000
1, 379440, Note_on_c, 0, 72, 0
1, 379440, Note_on_c, 0, 56, 44
1, 379440, Note_on_c, 0, 60, 37
1, 379440, Note_on_c, 0, 65, 35
1, 379440, Note_on_c, 0, 68, 35
1, 379441, Tempo, 502092
1, 379457, Control_c, 0, 64, 0
1, 379477, Tempo, 500000
1, 379489, Tempo, 497925
1, 379501, Tempo, 495868
1, 379513, Tempo, 493827
1, 379525, Tempo, 491803
1, 379549, Control_c, 0, 64, 127
1, 379560, Note_on_c, 0, 68, 0
1, 379560, Note_on_c, 0, 65, 0
1, 379560, Note_on_c, 0, 72, 31
1, 379573, Tempo, 493827
1, 379597, Tempo, 495868
1, 379609, Tempo, 497925
1, 379621, Tempo, 500000
1, 379633, Tempo, 504202
1, 379645, Tempo, 510638
1, 379669, Tempo, 504202
1, 379680, Note_on_c, 0, 72, 0
1, 379680, Note_on_c, 0, 60, 0
1, 379680, Note_on_c, 0, 56, 0
1, 379680, Note_on_c, 0, 60, 39
1, 379680, Note_on_c, 0, 55, 47
1, 379680, Note_on_c, 0, 70, 44
1, 379680, Note_on_c, 0, 64, 44
1, 379693, Tempo, 500000
1, 379695, Control_c, 0, 64, 0
1, 379705, Tempo, 497925
1, 379717, Tempo, 495868
1, 379741, Tempo, 493827
1, 379765, Tempo, 491803
1, 379789, Control_c, 0, 64, 127
1, 379800, Note_on_c, 0, 64, 0
1, 379800, Note_on_c, 0, 70, 0
1, 379800, Note_on_c, 0, 72, 29
1, 379825, Tempo, 489796
1, 379861, Tempo, 493827
1, 379873, Tempo, 495868
1, 379885, Tempo, 497925
1, 379897, Tempo, 500000
1, 379909, Tempo, 504202
1, 379920, Note_on_c, 0, 72, 0
1, 379920, Note_on_c, 0, 55, 0
1, 379920, Note_on_c, 0, 60, 0
1, 379920, Note_on_c, 0, 53, 50
1, 379920, Note_on_c, 0, 60, 42
1, 379920, Note_on_c, 0, 68, 31
1, 379920, Note_on_c, 0, 65, 31
1, 379921, Tempo, 506329
1, 379936, Control_c, 0, 64, 0
1, 380012, Control_c, 0, 64, 127
1, 380029, Tempo, 504202
1, 380040, Note_on_c, 0, 65, 0
1, 380040, Note_on_c, 0, 68, 0
1, 380040, Note_on_c, 0, 72, 28
1, 380053, Tempo, 502092
1, 380065, Tempo, 500000
1, 380089, Tempo, 497925
1, 380149, Tempo, 495868
1, 380160, Tempo, 500000
1, 380160, Note_on_c, 0, 72, 0
1, 380160, Note_on_c, 0, 60, 0
1, 380160, Note_on_c, 0, 53, 0
1, 380160, Note_on_c, 0, 60, 39
1, 380160, Note_on_c, 0, 48, 55
1, 380160, Note_on_c, 0, 67, 37
1, 380160, Note_on_c, 0, 64, 37
1, 380160, Control_c, 0, 64, 0
1, 380161, Tempo, 500000
1, 380173, Tempo, 497925
1, 380185, Tempo, 493827
1, 380197, Tempo, 489796
1, 380209, Tempo, 487805
1, 380221, Tempo, 485830
1, 380246, Control_c, 0, 64, 127
1, 380275, Note_on_c, 0, 72, 29
1, 380280, Note_on_c, 0, 64, 0
1, 380280, Note_on_c, 0, 67, 0
1, 380317, Tempo, 487805
1, 380329, Tempo, 489796
1, 380341, Tempo, 493827
1, 380353, Tempo, 500000
1, 380365, Tempo, 502092
1, 380389, Tempo, 495868
1, 380395, Note_on_c, 0, 72, 0
1, 380400, Note_on_c, 0, 48, 0
1, 380400, Note_on_c, 0, 60, 0
1, 380400, Note_on_c, 0, 60, 29
1, 380413, Tempo, 489796
1, 380425, Tempo, 487805
1, 380473, Tempo, 491803
1, 380497, Tempo, 493827
1, 380509, Tempo, 497925
1, 380520, Note_on_c, 0, 60, 0
1, 380520, Note_on_c, 0, 64, 27
1, 380640, Note_on_c, 0, 64, 0
1, 380640, Note_on_c, 0, 67, 37
1, 380653, Tempo, 500000
1, 380677, Tempo, 502092
1, 380689, Tempo, 508475
1, 380725, Tempo, 506329
1, 380749, Tempo, 504202
1, 380760, Note_on_c, 0, 67, 0
1, 380760, Note_on_c, 0, 72, 29
1, 380773, Tempo, 502092
1, 380797, Tempo, 500000
1, 380821, Tempo, 497925
1, 380833, Tempo, 495868
1, 380845, Tempo, 489796
1, 380857, Tempo, 487805
1, 380880, Note_on_c, 0, 72, 0
1, 380880, Note_on_c, 0, 60, 29
1, 380941, Tempo, 495868
1, 380953, Tempo, 502092
1, 380977, Tempo, 510638
1, 381000, Note_on_c, 0, 60, 0
1, 381000, Note_on_c, 0, 64, 27
1, 381025, Tempo, 508475
1, 381097, Tempo, 506329
1, 381120, Note_on_c, 0, 64, 0
1, 381120, Note_on_c, 0, 67, 37
1, 381133, Tempo, 504202
1, 381157, Tempo, 489796
1, 381240, Note_on_c, 0, 67, 0
1, 381240, Note_on_c, 0, 72, 29
1, 381241, Tempo, 493827
1, 381265, Tempo, 497925
1, 381289, Tempo, 500000
1, 381301, Tempo, 504202
1, 381325, Tempo, 500000
1, 381337, Tempo, 504202
1, 381360, Tempo, 517241
1, 381360, Note_on_c, 0, 72, 0
1, 381360, Note_on_c, 0, 60, 29
1, 381480, Note_on_c, 0, 60, 0
1, 381480, Note_on_c, 0, 64, 26
1, 381600, Tempo, 504202
1, 381600, Note_on_c, 0, 64, 0
1, 381600, Note_on_c, 0, 79, 54
1, 381600, Note_on_c, 0, 82, 64
1, 381600, Note_on_c, 0, 67, 42
1, 381617, Control_c, 0, 64, 0
1, 381697, Control_c, 0, 64, 127
1, 381720, Note_on_c, 0, 67, 0
1, 381720, Note_on_c, 0, 72, 31
1, 381840, Tempo, 528634
1, 381840, Note_on_c, 0, 72, 0
1, 381840, Note_on_c, 0, 82, 0
1, 381840, Note_on_c, 0, 79, 0
1, 381840, Note_on_c, 0, 85, 61
1, 381840, Note_on_c, 0, 82, 51
1, 381840, Note_on_c, 0, 70, 31
1, 381960, Tempo, 638298
1, 381960, Note_on_c, 0, 70, 0
1, 381960, Note_on_c, 0, 72, 28
1, 382069, Tempo, 502092
1, 382080, Note_on_c, 0, 72, 0
1, 382080, Note_on_c, 0, 82, 0
1, 382080, Note_on_c, 0, 85, 0
1, 382080, Note_on_c, 0, 84, 57
1, 382080, Note_on_c, 0, 80, 48
1, 382080, Note_on_c, 0, 68, 39
1, 382080, Control_c, 0, 64, 0
1, 382081, Tempo, 500000
1, 382105, Tempo, 493827
1, 382129, Tempo, 489796
1, 382149, Control_c, 0, 64, 127
1, 382200, Note_on_c, 0, 68, 0
1, 382207, Note_on_c, 0, 72, 29
1, 382213, Tempo, 493827
1, 382237, Tempo, 495868
1, 382261, Tempo, 497925
1, 382273, Tempo, 500000
1, 382327, Note_on_c, 0, 72, 0
1, 382332, Note_on_c, 0, 60, 29
1, 382345, Tempo, 497925
1, 382357, Tempo, 495868
1, 382369, Tempo, 493827
1, 382381, Tempo, 491803
1, 382452, Note_on_c, 0, 60, 0
1, 382452, Note_on_c, 0, 65, 27
1, 382465, Tempo, 495868
1, 382477, Tempo, 497925
1, 382489, Tempo, 502092
1, 382501, Tempo, 508475
1, 382513, Tempo, 510638
1, 382560, Note_on_c, 0, 80, 0
1, 382560, Note_on_c, 0, 84, 0
1, 382561, Tempo, 508475
1, 382572, Note_on_c, 0, 65, 0
1, 382572, Note_on_c, 0, 68, 42
1, 382585, Tempo, 506329
1, 382597, Tempo, 504202
1, 382609, Tempo, 502092
1, 382621, Tempo, 500000
1, 382633, Tempo, 491803
1, 382657, Tempo, 487805
1, 382692, Note_on_c, 0, 68, 0
1, 382692, Note_on_c, 0, 72, 34
1, 382693, Tempo, 485830
1, 382729, Tempo, 489796
1, 382753, Tempo, 495868
1, 382777, Tempo, 497925
1, 382789, Tempo, 500000
1, 382812, Note_on_c, 0, 72, 0
1, 382812, Note_on_c, 0, 60, 34
1, 382837, Tempo, 495868
1, 382861, Tempo, 493827
1, 382921, Tempo, 497925
1, 382932, Note_on_c, 0, 60, 0
1, 382932, Note_on_c, 0, 65, 29
1, 382945, Tempo, 500000
1, 383040, Tempo, 538117
1, 383052, Note_on_c, 0, 65, 0
1, 383052, Note_on_c, 0, 68, 41
1, 383172, Note_on_c, 0, 68, 0
1, 383172, Note_on_c, 0, 72, 33
1, 383269, Tempo, 497925
1, 383280, Note_on_c, 0, 60, 33
1, 383292, Note_on_c, 0, 72, 0
1, 383293, Tempo, 495868
1, 383305, Tempo, 493827
1, 383317, Tempo, 491803
1, 383341, Tempo, 489796
1, 383353, Tempo, 487805
1, 383400, Note_on_c, 0, 60, 0
1, 383400, Note_on_c, 0, 65, 30
1, 383401, Tempo, 495868
1, 383413, Tempo, 497925
1, 383520, Note_on_c, 0, 65, 0
1, 383520, Note_on_c, 0, 56, 57
1, 383520, Note_on_c, 0, 60, 41
1, 383520, Note_on_c, 0, 68, 37
1, 383526, Control_c, 0, 64, 0
1, 383581, Tempo, 487805
1, 383605, Tempo, 489796
1, 383617, Control_c, 0, 64, 127
1, 383629, Tempo, 491803
1, 383640, Note_on_c, 0, 68, 0
1, 383652, Note_on_c, 0, 72, 29
1, 383653, Tempo, 495868
1, 383677, Tempo, 497925
1, 383749, Tempo, 504202
1, 383760, Note_on_c, 0, 60, 0
1, 383760, Note_on_c, 0, 56, 0
1, 383760, Note_on_c, 0, 55, 47
1, 383760, Note_on_c, 0, 60, 39
1, 383760, Note_on_c, 0, 70, 29
1, 383760, Note_on_c, 0, 64, 29
1, 383761, Tempo, 506329
1, 383772, Note_on_c, 0, 72, 0
1, 383773, Tempo, 508475
1, 383776, Control_c, 0, 64, 0
1, 383785, Tempo, 510638
1, 383821, Tempo, 508475
1, 383845, Tempo, 506329
1, 383857, Tempo, 504202
1, 383869, Tempo, 502092
1, 383875, Control_c, 0, 64, 127
1, 383880, Note_on_c, 0, 70, 0
1, 383880, Note_on_c, 0, 64, 0
1, 383881, Tempo, 500000
1, 383892, Note_on_c, 0, 72, 26
1, 383893, Tempo, 497925
1, 384000, Tempo, 500000
1, 384000, Note_on_c, 0, 72, 0
1, 384000, Note_on_c, 0, 60, 0
1, 384000, Note_on_c, 0, 55, 0
1, 384000, Note_on_c, 0, 53, 50
1, 384000, Note_on_c, 0, 60, 42
1, 384000, Note_on_c, 0, 65, 37
1, 384000, Note_on_c, 0, 68, 37
1, 384000, Control_c, 0, 64, 0
1, 384000, Control_c, 0, 64, 0
1, 384001, Tempo, 500000
1, 384037, Tempo, 497925
1, 384061, Tempo, 495868
1, 384086, Control_c, 0, 64, 127
1, 384097, Tempo, 493827
1, 384115, Note_on_c, 0, 72, 29
1, 384120, Note_on_c, 0, 68, 0
1, 384120, Note_on_c, 0, 65, 0
1, 384145, Tempo, 491803
1, 384205, Tempo, 493827
1, 384229, Tempo, 500000
1, 384235, Note_on_c, 0, 72, 0
1, 384240, Note_on_c, 0, 60, 0
1, 384240, Note_on_c, 0, 53, 0
1, 384240, Note_on_c, 0, 60, 29
1, 384241, Tempo, 502092
1, 384253, Tempo, 504202
1, 384265, Tempo, 506329
1, 384277, Tempo, 508475
1, 384349, Tempo, 500000
1, 384360, Note_on_c, 0, 60, 0
1, 384360, Note_on_c, 0, 65, 25
1, 384361, Tempo, 497925
1, 384373, Tempo, 491803
1, 384385, Tempo, 489796
1, 384409, Tempo, 487805
1, 384480, Note_on_c, 0, 65, 0
1, 384480, Note_on_c, 0, 68, 38
1, 384481, Tempo, 497925
1, 384517, Tempo, 502092
1, 384529, Tempo, 504202
1, 384553, Tempo, 508475
1, 384600, Note_on_c, 0, 68, 0
1, 384600, Note_on_c, 0, 72, 30
1, 384601, Tempo, 510638
1, 384613, Tempo, 515021
1, 384625, Tempo, 510638
1, 384637, Tempo, 504202
1, 384661, Tempo, 500000
1, 384673, Tempo, 497925
1, 384685, Tempo, 495868
1, 384720, Note_on_c, 0, 72, 0
1, 384720, Note_on_c, 0, 60, 31
1, 384745, Tempo, 493827
1, 384817, Tempo, 495868
1, 384829, Tempo, 497925
1, 384840, Note_on_c, 0, 60, 0
1, 384840, Note_on_c, 0, 65, 29
1, 384841, Tempo, 506329
1, 384960, Note_on_c, 0, 65, 0
1, 384960, Note_on_c, 0, 68, 40
1, 384961, Tempo, 495868
1, 384973, Tempo, 493827
1, 384985, Tempo, 491803
1, 385021, Tempo, 489796
1, 385080, Note_on_c, 0, 68, 0
1, 385080, Note_on_c, 0, 72, 32
1, 385129, Tempo, 493827
1, 385141, Tempo, 504202
1, 385153, Tempo, 502092
1, 385200, Tempo, 517241
1, 385200, Note_on_c, 0, 72, 0
1, 385200, Note_on_c, 0, 60, 32
1, 385320, Note_on_c, 0, 60, 0
1, 385320, Note_on_c, 0, 65, 30
1, 385440, Tempo, 504202
1, 385440, Note_on_c, 0, 65, 0
1, 385440, Note_on_c, 0, 77, 43
1, 385440, Note_on_c, 0, 80, 51
1, 385440, Note_on_c, 0, 68, 42
1, 385447, Control_c, 0, 64, 0
1, 385553, Control_c, 0, 64, 127
1, 385560, Note_on_c, 0, 68, 0
1, 385560, Note_on_c, 0, 72, 33
1, 385680, Tempo, 528634
1, 385680, Note_on_c, 0, 72, 0
1, 385680, Note_on_c, 0, 80, 0
1, 385680, Note_on_c, 0, 77, 0
1, 385680, Note_on_c, 0, 79, 46
1, 385680, Note_on_c, 0, 82, 55
1, 385680, Note_on_c, 0, 63, 41
1, 385680, Note_on_c, 0, 70, 41
1, 385800, Tempo, 638298
1, 385800, Note_on_c, 0, 70, 0
1, 385800, Note_on_c, 0, 63, 0
1, 385800, Note_on_c, 0, 75, 44
1, 385909, Tempo, 497925
1, 385920, Note_on_c, 0, 75, 0
1, 385920, Note_on_c, 0, 82, 0
1, 385920, Note_on_c, 0, 79, 0
1, 385920, Note_on_c, 0, 80, 48
1, 385920, Note_on_c, 0, 84, 57
1, 385920, Note_on_c, 0, 72, 54
1, 385920, Note_on_c, 0, 68, 54
1, 385920, Control_c, 0, 64, 0
1, 385945, Tempo, 493827
1, 385957, Tempo, 491803
1, 385989, Control_c, 0, 64, 127
1, 386005, Tempo, 489796
1, 386040, Note_on_c, 0, 68, 0
1, 386040, Note_on_c, 0, 72, 0
1, 386040, Note_on_c, 0, 75, 41
1, 386053, Tempo, 493827
1, 386065, Tempo, 495868
1, 386077, Tempo, 502092
1, 386113, Tempo, 506329
1, 386125, Tempo, 504202
1, 386137, Tempo, 502092
1, 386149, Tempo, 497925
1, 386160, Note_on_c, 0, 75, 0
1, 386161, Tempo, 495868
1, 386162, Note_on_c, 0, 63, 41
1, 386173, Tempo, 493827
1, 386197, Tempo, 491803
1, 386257, Tempo, 493827
1, 386269, Tempo, 495868
1, 386280, Note_on_c, 0, 68, 37
1, 386281, Tempo, 500000
1, 386282, Note_on_c, 0, 63, 0
1, 386305, Tempo, 504202
1, 386317, Tempo, 506329
1, 386329, Tempo, 510638
1, 386353, Tempo, 506329
1, 386365, Tempo, 502092
1, 386389, Tempo, 497925
1, 386400, Note_on_c, 0, 80, 0
1, 386400, Note_on_c, 0, 84, 0
1, 386400, Note_on_c, 0, 68, 0
1, 386400, Note_on_c, 0, 72, 46
1, 386401, Tempo, 495868
1, 386413, Tempo, 493827
1, 386437, Tempo, 491803
1, 386497, Tempo, 495868
1, 386509, Tempo, 500000
1, 386520, Note_on_c, 0, 72, 0
1, 386520, Note_on_c, 0, 75, 41
1, 386521, Tempo, 502092
1, 386533, Tempo, 510638
1, 386545, Tempo, 512821
1, 386593, Tempo, 508475
1, 386605, Tempo, 504202
1, 386629, Tempo, 500000
1, 386640, Note_on_c, 0, 75, 0
1, 386640, Note_on_c, 0, 63, 41
1, 386641, Tempo, 497925
1, 386665, Tempo, 495868
1, 386760, Note_on_c, 0, 63, 0
1, 386760, Note_on_c, 0, 68, 40
1, 386761, Tempo, 497925
1, 386773, Tempo, 500000
1, 386880, Tempo, 538117
1, 386880, Note_on_c, 0, 68, 0
1, 386880, Note_on_c, 0, 72, 51
1, 387000, Note_on_c, 0, 72, 0
1, 387000, Note_on_c, 0, 75, 44
1, 387120, Tempo, 500000
1, 387120, Note_on_c, 0, 75, 0
1, 387120, Note_on_c, 0, 63, 42
1, 387120, Note_on_c, 0, 60, 50
1, 387120, Note_on_c, 0, 68, 46
1, 387120, Note_on_c, 0, 72, 46
1, 387127, Control_c, 0, 64, 0
1, 387240, Note_on_c, 0, 72, 0
1, 387240, Note_on_c, 0, 68, 0
1, 387240, Note_on_c, 0, 75, 44
1, 387261, Control_c, 0, 64, 127
1, 387325, Tempo, 500000
1, 387360, Note_on_c, 0, 75, 0
1, 387360, Note_on_c, 0, 60, 0
1, 387360, Note_on_c, 0, 63, 0
1, 387360, Note_on_c, 0, 58, 51
1, 387360, Note_on_c, 0, 63, 42
1, 387360, Note_on_c, 0, 67, 55
1, 387360, Note_on_c, 0, 73, 55
1, 387373, Tempo, 497925
1, 387374, Control_c, 0, 64, 0
1, 387409, Tempo, 495868
1, 387433, Tempo, 493827
1, 387457, Tempo, 491803
1, 387480, Note_on_c, 0, 73, 0
1, 387480, Note_on_c, 0, 67, 0
1, 387480, Note_on_c, 0, 75, 48
1, 387501, Control_c, 0, 64, 127
1, 387517, Tempo, 493827
1, 387529, Tempo, 495868
1, 387541, Tempo, 497925
1, 387553, Tempo, 502092
1, 387565, Tempo, 504202
1, 387600, Note_on_c, 0, 75, 0
1, 387600, Note_on_c, 0, 63, 0
1, 387600, Note_on_c, 0, 58, 0
1, 387600, Note_on_c, 0, 56, 54
1, 387600, Note_on_c, 0, 63, 45
1, 387600, Note_on_c, 0, 72, 50
1, 387600, Note_on_c, 0, 68, 50
1, 387612, Control_c, 0, 64, 0
1, 387637, Tempo, 500000
1, 387649, Tempo, 497925
1, 387685, Tempo, 495868
1, 387699, Control_c, 0, 64, 127
1, 387720, Note_on_c, 0, 68, 0
1, 387720, Note_on_c, 0, 72, 0
1, 387720, Note_on_c, 0, 75, 54
1, 387721, Tempo, 497925
1, 387733, Tempo, 500000
1, 387745, Tempo, 502092
1, 387757, Tempo, 504202
1, 387805, Tempo, 491803
1, 387840, Tempo, 500000
1, 387840, Note_on_c, 0, 75, 0
1, 387840, Note_on_c, 0, 63, 0
1, 387840, Note_on_c, 0, 56, 0
1, 387840, Note_on_c, 0, 51, 63
1, 387840, Note_on_c, 0, 63, 44
1, 387840, Note_on_c, 0, 67, 60
1, 387840, Note_on_c, 0, 70, 60
1, 387840, Control_c, 0, 64, 0
1, 387853, Tempo, 500000
1, 387901, Tempo, 497925
1, 387926, Control_c, 0, 64, 127
1, 387949, Tempo, 495868
1, 387960, Note_on_c, 0, 70, 0
1, 387960, Note_on_c, 0, 67, 0
1, 387960, Note_on_c, 0, 75, 49
1, 387961, Tempo, 493827
1, 388033, Tempo, 495868
1, 388045, Tempo, 497925
1, 388069, Tempo, 500000
1, 388080, Note_on_c, 0, 75, 0
1, 388080, Note_on_c, 0, 63, 0
1, 388080, Note_on_c, 0, 51, 0
1, 388080, Note_on_c, 0, 63, 49
1, 388081, Tempo, 502092
1, 388117, Tempo, 506329
1, 388153, Tempo, 502092
1, 388165, Tempo, 500000
1, 388177, Tempo, 495868
1, 388189, Tempo, 493827
1, 388200, Note_on_c, 0, 63, 0
1, 388200, Note_on_c, 0, 67, 45
1, 388201, Tempo, 491803
1, 388285, Tempo, 493827
1, 388297, Tempo, 495868
1, 388320, Note_on_c, 0, 67, 0
1, 388320, Note_on_c, 0, 70, 52
1, 388333, Tempo, 500000
1, 388357, Tempo, 504202
1, 388369, Tempo, 506329
1, 388381, Tempo, 508475
1, 388405, Tempo, 506329
1, 388417, Tempo, 504202
1, 388440, Note_on_c, 0, 70, 0
1, 388440, Note_on_c, 0, 75, 42
1, 388441, Tempo, 502092
1, 388453, Tempo, 500000
1, 388477, Tempo, 497925
1, 388489, Tempo, 495868
1, 388501, Tempo, 493827
1, 388513, Tempo, 491803
1, 388525, Tempo, 489796
1, 388560, Note_on_c, 0, 75, 0
1, 388560, Note_on_c, 0, 63, 42
1, 388597, Tempo, 491803
1, 388609, Tempo, 495868
1, 388621, Tempo, 497925
1, 388633, Tempo, 500000
1, 388669, Tempo, 502092
1, 388680, Note_on_c, 0, 63, 0
1, 388680, Note_on_c, 0, 67, 39
1, 388800, Note_on_c, 0, 67, 0
1, 388800, Note_on_c, 0, 70, 58
1, 388813, Tempo, 500000
1, 388837, Tempo, 497925
1, 388849, Tempo, 495868
1, 388920, Note_on_c, 0, 70, 0
1, 388920, Note_on_c, 0, 75, 45
1, 388993, Tempo, 493827
1, 389005, Tempo, 497925
1, 389017, Tempo, 500000
1, 389040, Tempo, 517241
1, 389040, Note_on_c, 0, 75, 0
1, 389040, Note_on_c, 0, 63, 45
1, 389160, Note_on_c, 0, 63, 0
1, 389160, Note_on_c, 0, 67, 40
1, 389280, Tempo, 504202
1, 389280, Note_on_c, 0, 67, 0
1, 389280, Note_on_c, 0, 85, 73
1, 389280, Note_on_c, 0, 82, 62
1, 389280, Note_on_c, 0, 70, 56
1, 389295, Control_c, 0, 64, 0
1, 389393, Control_c, 0, 64, 127
1, 389400, Note_on_c, 0, 70, 0
1, 389400, Note_on_c, 0, 75, 41
1, 389520, Tempo, 528634
1, 389520, Note_on_c, 0, 75, 0
1, 389520, Note_on_c, 0, 82, 0
1, 389520, Note_on_c, 0, 85, 0
1, 389520, Note_on_c, 0, 85, 58
1, 389520, Note_on_c, 0, 89, 70
1, 389520, Note_on_c, 0, 73, 41
1, 389640, Tempo, 638298
1, 389640, Note_on_c, 0, 73, 0
1, 389640, Note_on_c, 0, 75, 38
1, 389760, Tempo, 500000
1, 389760, Note_on_c, 0, 75, 0
1, 389760, Note_on_c, 0, 89, 0
1, 389760, Note_on_c, 0, 85, 0
1, 389760, Note_on_c, 0, 84, 69
1, 389760, Note_on_c, 0, 87, 65
1, 389760, Note_on_c, 0, 72, 53
1, 389760, Control_c, 0, 64, 0
1, 389829, Control_c, 0, 64, 127
1, 389880, Note_on_c, 0, 72, 0
1, 389880, Note_on_c, 0, 75, 43
1, 389905, Tempo, 500000
1, 389917, Tempo, 497925
1, 389929, Tempo, 493827
1, 389953, Tempo, 489796
1, 389965, Tempo, 487805
1, 389977, Tempo, 485830
1, 390000, Note_on_c, 0, 75, 0
1, 390000, Note_on_c, 0, 63, 43
1, 390001, Tempo, 483871
1, 390025, Tempo, 481928
1, 390085, Tempo, 485830
1, 390097, Tempo, 489796
1, 390120, Note_on_c, 0, 63, 0
1, 390120, Note_on_c, 0, 68, 39
1, 390145, Tempo, 491803
1, 390229, Tempo, 489796
1, 390240, Note_on_c, 0, 68, 0
1, 390240, Note_on_c, 0, 87, 0
1, 390240, Note_on_c, 0, 84, 0
1, 390240, Note_on_c, 0, 72, 48
1, 390253, Tempo, 487805
1, 390265, Tempo, 485830
1, 390277, Tempo, 481928
1, 390301, Tempo, 483871
1, 390325, Tempo, 485830
1, 390349, Tempo, 487805
1, 390360, Note_on_c, 0, 72, 0
1, 390360, Note_on_c, 0, 75, 38
1, 390409, Tempo, 483871
1, 390433, Tempo, 480000
1, 390457, Tempo, 481928
1, 390480, Note_on_c, 0, 75, 0
1, 390480, Note_on_c, 0, 63, 38
1, 390481, Tempo, 483871
1, 390505, Tempo, 485830
1, 390541, Tempo, 487805
1, 390600, Note_on_c, 0, 63, 0
1, 390600, Note_on_c, 0, 68, 35
1, 390601, Tempo, 485830
1, 390625, Tempo, 487805
1, 390637, Tempo, 491803
1, 390649, Tempo, 493827
1, 390720, Tempo, 538117
1, 390720, Note_on_c, 0, 68, 0
1, 390720, Note_on_c, 0, 72, 45
1, 390840, Note_on_c, 0, 72, 0
1, 390840, Note_on_c, 0, 75, 35
1, 390960, Tempo, 500000
1, 390960, Note_on_c, 0, 75, 0
1, 390960, Note_on_c, 0, 63, 35
1, 391080, Note_on_c, 0, 63, 0
1, 391080, Note_on_c, 0, 68, 34
1, 391153, Tempo, 497925
1, 391165, Tempo, 493827
1, 391177, Tempo, 491803
1, 391200, Note_on_c, 0, 68, 0
1, 391200, Note_on_c, 0, 60, 59
1, 391200, Note_on_c, 0, 63, 43
1, 391200, Note_on_c, 0, 68, 38
1, 391200, Note_on_c, 0, 72, 38
1, 391214, Control_c, 0, 64, 0
1, 391273, Tempo, 493827
1, 391285, Tempo, 497925
1, 391292, Control_c, 0, 64, 127
1, 391297, Tempo, 502092
1, 391320, Note_on_c, 0, 72, 0
1, 391320, Note_on_c, 0, 68, 0
1, 391320, Note_on_c, 0, 75, 30
1, 391321, Tempo, 500000
1, 391333, Tempo, 497925
1, 391345, Tempo, 495868
1, 391357, Tempo, 493827
1, 391440, Note_on_c, 0, 75, 0
1, 391440, Note_on_c, 0, 63, 0
1, 391440, Note_on_c, 0, 60, 0
1, 391440, Note_on_c, 0, 63, 40
1, 391440, Note_on_c, 0, 58, 48
1, 391440, Note_on_c, 0, 67, 29
1, 391440, Note_on_c, 0, 73, 29
1, 391454, Control_c, 0, 64, 0
1, 391501, Tempo, 497925
1, 391525, Tempo, 502092
1, 391537, Tempo, 510638
1, 391560, Note_on_c, 0, 73, 0
1, 391560, Note_on_c, 0, 67, 0
1, 391560, Note_on_c, 0, 75, 28
1, 391567, Control_c, 0, 64, 127
1, 391597, Tempo, 502092
1, 391621, Tempo, 497925
1, 391645, Tempo, 493827
1, 391668, Note_on_c, 0, 75, 0
1, 391669, Tempo, 497925
1, 391680, Tempo, 500000
1, 391680, Note_on_c, 0, 58, 0
1, 391680, Note_on_c, 0, 63, 0
1, 391680, Note_on_c, 0, 56, 50
1, 391680, Note_on_c, 0, 63, 42
1, 391680, Note_on_c, 0, 68, 37
1, 391680, Note_on_c, 0, 72, 37
1, 391680, Control_c, 0, 64, 0
1, 391680, Control_c, 0, 64, 0
1, 391681, Tempo, 497925
1, 391705, Tempo, 491803
1, 391717, Tempo, 489796
1, 391741, Tempo, 487805
1, 391766, Control_c, 0, 64, 127
1, 391800, Note_on_c, 0, 72, 0
1, 391800, Note_on_c, 0, 68, 0
1, 391800, Note_on_c, 0, 75, 29
1, 391801, Tempo, 495868
1, 391813, Tempo, 502092
1, 391825, Tempo, 504202
1, 391861, Tempo, 502092
1, 391873, Tempo, 500000
1, 391897, Tempo, 497925
1, 391920, Note_on_c, 0, 75, 0
1, 391920, Note_on_c, 0, 63, 0
1, 391920, Note_on_c, 0, 56, 0
1, 391920, Note_on_c, 0, 63, 29
1, 391921, Tempo, 495868
1, 392029, Tempo, 493827
1, 392040, Note_on_c, 0, 63, 0
1, 392040, Note_on_c, 0, 68, 26
1, 392041, Tempo, 489796
1, 392089, Tempo, 491803
1, 392101, Tempo, 493827
1, 392137, Tempo, 497925
1, 392149, Tempo, 506329
1, 392160, Note_on_c, 0, 68, 0
1, 392160, Note_on_c, 0, 72, 38
1, 392173, Tempo, 504202
1, 392197, Tempo, 502092
1, 392209, Tempo, 500000
1, 392233, Tempo, 497925
1, 392245, Tempo, 495868
1, 392257, Tempo, 493827
1, 392269, Tempo, 491803
1, 392280, Note_on_c, 0, 72, 0
1, 392280, Note_on_c, 0, 75, 30
1, 392293, Tempo, 489796
1, 392353, Tempo, 495868
1, 392365, Tempo, 497925
1, 392377, Tempo, 506329
1, 392400, Note_on_c, 0, 75, 0
1, 392400, Note_on_c, 0, 63, 31
1, 392425, Tempo, 502092
1, 392437, Tempo, 500000
1, 392449, Tempo, 497925
1, 392473, Tempo, 495868
1, 392520, Note_on_c, 0, 63, 0
1, 392520, Note_on_c, 0, 68, 29
1, 392533, Tempo, 493827
1, 392557, Tempo, 491803
1, 392593, Tempo, 495868
1, 392617, Tempo, 500000
1, 392640, Note_on_c, 0, 68, 0
1, 392640, Note_on_c, 0, 72, 40
1, 392641, Tempo, 504202
1, 392653, Tempo, 506329
1, 392665, Tempo, 508475
1, 392713, Tempo, 506329
1, 392725, Tempo, 504202
1, 392737, Tempo, 502092
1, 392749, Tempo, 497925
1, 392760, Note_on_c, 0, 72, 0
1, 392760, Note_on_c, 0, 75, 32
1, 392880, Tempo, 517241
1, 392880, Note_on_c, 0, 75, 0
1, 392880, Note_on_c, 0, 84, 61
1, 392880, Note_on_c, 0, 63, 32
1, 393000, Note_on_c, 0, 63, 0
1, 393000, Note_on_c, 0, 68, 30
1, 393120, Tempo, 504202
1, 393120, Note_on_c, 0, 68, 0
1, 393120, Note_on_c, 0, 84, 0
1, 393120, Note_on_c, 0, 82, 64
1, 393120, Note_on_c, 0, 72, 42
1, 393138, Control_c, 0, 64, 0
1, 393205, Control_c, 0, 64, 127
1, 393240, Note_on_c, 0, 72, 0
1, 393240, Note_on_c, 0, 75, 33
1, 393360, Tempo, 528634
1, 393360, Note_on_c, 0, 75, 0
1, 393360, Note_on_c, 0, 82, 0
1, 393360, Note_on_c, 0, 80, 66
1, 393360, Note_on_c, 0, 63, 41
1, 393480, Tempo, 745342
1, 393480, Note_on_c, 0, 63, 0
1, 393480, Note_on_c, 0, 68, 44
1, 393589, Tempo, 497925
1, 393600, Note_on_c, 0, 68, 0
1, 393600, Note_on_c, 0, 80, 0
1, 393600, Note_on_c, 0, 77, 66
1, 393600, Note_on_c, 0, 73, 50
1, 393600, Control_c, 0, 64, 0
1, 393600, Control_c, 0, 64, 0
1, 393637, Tempo, 495868
1, 393649, Tempo, 493827
1, 393661, Tempo, 491803
1, 393673, Tempo, 487805
1, 393685, Tempo, 485830
1, 393686, Control_c, 0, 64, 127
1, 393709, Tempo, 487805
1, 393720, Note_on_c, 0, 73, 0
1, 393720, Note_on_c, 0, 68, 36
1, 393721, Tempo, 491803
1, 393733, Tempo, 493827
1, 393745, Tempo, 500000
1, 393757, Tempo, 506329
1, 393781, Tempo, 502092
1, 393817, Tempo, 497925
1, 393829, Tempo, 495868
1, 393840, Note_on_c, 0, 68, 0
1, 393840, Note_on_c, 0, 65, 36
1, 393841, Tempo, 493827
1, 393853, Tempo, 491803
1, 393877, Tempo, 497925
1, 393889, Tempo, 500000
1, 393901, Tempo, 504202
1, 393937, Tempo, 506329
1, 393949, Tempo, 508475
1, 393960, Note_on_c, 0, 65, 0
1, 393960, Note_on_c, 0, 68, 35
1, 393997, Tempo, 510638
1, 394009, Tempo, 512821
1, 394021, Tempo, 504202
1, 394045, Tempo, 502092
1, 394057, Tempo, 500000
1, 394069, Tempo, 497925
1, 394080, Note_on_c, 0, 68, 0
1, 394080, Note_on_c, 0, 77, 0
1, 394080, Note_on_c, 0, 73, 45
1, 394093, Tempo, 495868
1, 394105, Tempo, 493827
1, 394129, Tempo, 491803
1, 394165, Tempo, 489796
1, 394200, Note_on_c, 0, 73, 0
1, 394200, Note_on_c, 0, 77, 36
1, 394273, Tempo, 495868
1, 394285, Tempo, 502092
1, 394309, Tempo, 500000
1, 394320, Note_on_c, 0, 77, 0
1, 394320, Note_on_c, 0, 65, 36
1, 394321, Tempo, 497925
1, 394333, Tempo, 495868
1, 394440, Note_on_c, 0, 65, 0
1, 394440, Note_on_c, 0, 68, 33
1, 394501, Tempo, 504202
1, 394549, Tempo, 497925
1, 394560, Note_on_c, 0, 68, 0
1, 394560, Note_on_c, 0, 73, 44
1, 394573, Tempo, 495868
1, 394657, Tempo, 500000
1, 394669, Tempo, 502092
1, 394680, Note_on_c, 0, 73, 0
1, 394680, Note_on_c, 0, 77, 37
1, 394800, Tempo, 517241
1, 394800, Note_on_c, 0, 77, 0
1, 394800, Note_on_c, 0, 49, 65
1, 394800, Note_on_c, 0, 65, 37
1, 394814, Control_c, 0, 64, 0
1, 394920, Note_on_c, 0, 65, 0
1, 394920, Note_on_c, 0, 70, 37
1, 394927, Control_c, 0, 64, 127
1, 395040, Tempo, 504202
1, 395040, Note_on_c, 0, 70, 0
1, 395040, Note_on_c, 0, 49, 0
1, 395040, Note_on_c, 0, 48, 68
1, 395040, Note_on_c, 0, 73, 48
1, 395057, Control_c, 0, 64, 0
1, 395139, Control_c, 0, 64, 127
1, 395160, Note_on_c, 0, 73, 0
1, 395160, Note_on_c, 0, 77, 38
1, 395280, Tempo, 528634
1, 395280, Note_on_c, 0, 77, 0
1, 395280, Note_on_c, 0, 48, 0
1, 395280, Note_on_c, 0, 46, 71
1, 395280, Note_on_c, 0, 65, 41
1, 395296, Control_c, 0, 64, 0
1, 395344, Control_c, 0, 64, 127
1, 395400, Tempo, 740741
1, 395400, Note_on_c, 0, 65, 0
1, 395400, Note_on_c, 0, 70, 44
1, 395509, Tempo, 500000
1, 395520, Note_on_c, 0, 70, 0
1, 395520, Note_on_c, 0, 46, 0
1, 395520, Note_on_c, 0, 43, 76
1, 395520, Note_on_c, 0, 73, 56
1, 395520, Control_c, 0, 64, 0
1, 395520, Control_c, 0, 64, 0
1, 395533, Tempo, 497925
1, 395557, Tempo, 495868
1, 395606, Control_c, 0, 64, 127
1, 395640, Note_on_c, 0, 73, 0
1, 395640, Note_on_c, 0, 75, 42
1, 395641, Tempo, 491803
1, 395713, Tempo, 495868
1, 395725, Tempo, 504202
1, 395737, Tempo, 506329
1, 395760, Note_on_c, 0, 75, 0
1, 395760, Note_on_c, 0, 63, 42
1, 395761, Tempo, 504202
1, 395785, Tempo, 500000
1, 395797, Tempo, 497925
1, 395809, Tempo, 495868
1, 395833, Tempo, 493827
1, 395880, Note_on_c, 0, 63, 0
1, 395880, Note_on_c, 0, 70, 40
1, 395929, Tempo, 495868
1, 395941, Tempo, 500000
1, 395953, Tempo, 502092
1, 395965, Tempo, 508475
1, 396000, Note_on_c, 0, 70, 0
1, 396000, Note_on_c, 0, 73, 52
1, 396013, Tempo, 506329
1, 396025, Tempo, 504202
1, 396049, Tempo, 500000
1, 396097, Tempo, 497925
1, 396120, Note_on_c, 0, 73, 0
1, 396120, Note_on_c, 0, 75, 42
1, 396133, Tempo, 495868
1, 396157, Tempo, 493827
1, 396169, Tempo, 491803
1, 396181, Tempo, 489796
1, 396217, Tempo, 493827
1, 396240, Note_on_c, 0, 75, 0
1, 396240, Note_on_c, 0, 63, 42
1, 396241, Tempo, 497925
1, 396253, Tempo, 500000
1, 396301, Tempo, 506329
1, 396313, Tempo, 497925
1, 396325, Tempo, 495868
1, 396337, Tempo, 493827
1, 396349, Tempo, 491803
1, 396360, Note_on_c, 0, 63, 0
1, 396360, Note_on_c, 0, 70, 39
1, 396373, Tempo, 489796
1, 396480, Note_on_c, 0, 70, 0
1, 396480, Note_on_c, 0, 43, 0
1, 396480, Note_on_c, 0, 44, 61
1, 396480, Note_on_c, 0, 72, 50
1, 396493, Tempo, 491803
1, 396505, Tempo, 506329
1, 396600, Note_on_c, 0, 72, 0
1, 396600, Note_on_c, 0, 75, 40
1, 396625, Tempo, 500000
1, 396649, Tempo, 497925
1, 396673, Tempo, 500000
1, 396685, Tempo, 502092
1, 396697, Tempo, 497925
1, 396720, Tempo, 517241
1, 396720, Note_on_c, 0, 75, 0
1, 396720, Note_on_c, 0, 44, 0
1, 396720, Note_on_c, 0, 84, 68
1, 396720, Note_on_c, 0, 63, 40
1, 396734, Control_c, 0, 64, 0
1, 396812, Control_c, 0, 64, 127
1, 396840, Note_on_c, 0, 63, 0
1, 396840, Note_on_c, 0, 68, 38
1, 396960, Tempo, 504202
1, 396960, Note_on_c, 0, 68, 0
1, 396960, Note_on_c, 0, 84, 0
1, 396960, Note_on_c, 0, 85, 73
1, 396960, Note_on_c, 0, 72, 42
1, 396978, Control_c, 0, 64, 0
1, 397066, Control_c, 0, 64, 127
1, 397080, Note_on_c, 0, 72, 0
1, 397080, Note_on_c, 0, 75, 33
1, 397200, Tempo, 528634
1, 397200, Note_on_c, 0, 75, 0
1, 397200, Note_on_c, 0, 85, 0
1, 397200, Note_on_c, 0, 86, 77
1, 397200, Note_on_c, 0, 63, 41
1, 397207, Control_c, 0, 64, 0
1, 397271, Control_c, 0, 64, 127
1, 397320, Tempo, 618557
1, 397320, Note_on_c, 0, 63, 0
1, 397320, Note_on_c, 0, 68, 44
1, 397440, Tempo, 500000
1, 397440, Note_on_c, 0, 68, 0
1, 397440, Note_on_c, 0, 86, 0
1, 397440, Note_on_c, 0, 87, 82
1, 397440, Note_on_c, 0, 70, 54
1, 397440, Control_c, 0, 64, 0
1, 397440, Control_c, 0, 64, 0
1, 397441, Tempo, 497925
1, 397465, Tempo, 495868
1, 397477, Tempo, 493827
1, 397489, Tempo, 491803
1, 397501, Tempo, 487805
1, 397513, Tempo, 485830
1, 397525, Tempo, 481928
1, 397526, Control_c, 0, 64, 127
1, 397549, Tempo, 485830
1, 397560, Note_on_c, 0, 70, 0
1, 397560, Note_on_c, 0, 75, 41
1, 397573, Tempo, 489796
1, 397585, Tempo, 491803
1, 397597, Tempo, 493827
1, 397609, Tempo, 506329
1, 397633, Tempo, 504202
1, 397657, Tempo, 502092
1, 397680, Note_on_c, 0, 75, 0
1, 397680, Note_on_c, 0, 63, 41
1, 397681, Tempo, 500000
1, 397693, Tempo, 497925
1, 397705, Tempo, 491803
1, 397717, Tempo, 489796
1, 397777, Tempo, 493827
1, 397800, Note_on_c, 0, 63, 0
1, 397800, Note_on_c, 0, 68, 36
1, 397801, Tempo, 495868
1, 397813, Tempo, 497925
1, 397825, Tempo, 500000
1, 397837, Tempo, 502092
1, 397897, Tempo, 500000
1, 397920, Note_on_c, 0, 68, 0
1, 397920, Note_on_c, 0, 70, 48
1, 397921, Tempo, 495868
1, 397933, Tempo, 493827
1, 397945, Tempo, 491803
1, 397957, Tempo, 489796
1, 397969, Tempo, 487805
1, 397981, Tempo, 485830
1, 398040, Note_on_c, 0, 70, 0
1, 398040, Note_on_c, 0, 75, 39
1, 398065, Tempo, 497925
1, 398089, Tempo, 502092
1, 398160, Note_on_c, 0, 75, 0
1, 398160, Note_on_c, 0, 63, 39
1, 398161, Tempo, 504202
1, 398209, Tempo, 502092
1, 398221, Tempo, 500000
1, 398233, Tempo, 497925
1, 398245, Tempo, 495868
1, 398269, Tempo, 493827
1, 398280, Note_on_c, 0, 63, 0
1, 398280, Note_on_c, 0, 68, 35
1, 398341, Tempo, 508475
1, 398377, Tempo, 500000
1, 398389, Tempo, 497925
1, 398400, Note_on_c, 0, 68, 0
1, 398400, Note_on_c, 0, 70, 48
1, 398497, Tempo, 500000
1, 398509, Tempo, 502092
1, 398520, Note_on_c, 0, 70, 0
1, 398520, Note_on_c, 0, 75, 32
1, 398533, Tempo, 506329
1, 398640, Tempo, 517241
1, 398640, Note_on_c, 0, 75, 0
1, 398640, Note_on_c, 0, 63, 37
1, 398760, Note_on_c, 0, 63, 0
1, 398760, Note_on_c, 0, 67, 33
1, 398880, Tempo, 504202
1, 398880, Note_on_c, 0, 67, 0
1, 398880, Note_on_c, 0, 70, 42
1, 399000, Note_on_c, 0, 70, 0
1, 399000, Note_on_c, 0, 75, 29
1, 399120, Tempo, 528634
1, 399120, Note_on_c, 0, 75, 0
1, 399120, Note_on_c, 0, 63, 29
1, 399240, Tempo, 566038
1, 399240, Note_on_c, 0, 63, 0
1, 399240, Note_on_c, 0, 67, 26
1, 399360, Tempo, 500000
1, 399360, Note_on_c, 0, 67, 0
1, 399360, Note_on_c, 0, 87, 0
1, 399360, Note_on_c, 0, 84, 66
1, 399360, Note_on_c, 0, 72, 37
1, 399360, Control_c, 0, 64, 0
1, 399360, Control_c, 0, 64, 0
1, 399361, Tempo, 497925
1, 399385, Tempo, 495868
1, 399409, Tempo, 493827
1, 399445, Tempo, 491803
1, 399446, Control_c, 0, 64, 127
1, 399480, Note_on_c, 0, 72, 0
1, 399480, Note_on_c, 0, 75, 29
1, 399481, Tempo, 489796
1, 399505, Tempo, 487805
1, 399529, Tempo, 491803
1, 399553, Tempo, 495868
1, 399565, Tempo, 500000
1, 399577, Tempo, 506329
1, 399600, Note_on_c, 0, 75, 0
1, 399600, Note_on_c, 0, 63, 29
1, 399613, Tempo, 504202
1, 399637, Tempo, 502092
1, 399673, Tempo, 500000
1, 399709, Tempo, 497925
1, 399720, Note_on_c, 0, 63, 0
1, 399720, Note_on_c, 0, 68, 27
1, 399721, Tempo, 495868
1, 399733, Tempo, 493827
1, 399745, Tempo, 491803
1, 399805, Tempo, 495868
1, 399817, Tempo, 497925
1, 399829, Tempo, 500000
1, 399840, Note_on_c, 0, 68, 0
1, 399840, Note_on_c, 0, 84, 0
1, 399840, Note_on_c, 0, 72, 38
1, 399841, Tempo, 502092
1, 399865, Tempo, 506329
1, 399889, Tempo, 508475
1, 399901, Tempo, 506329
1, 399913, Tempo, 500000
1, 399925, Tempo, 497925
1, 399937, Tempo, 493827
1, 399960, Note_on_c, 0, 72, 0
1, 399960, Note_on_c, 0, 75, 30
1, 399961, Tempo, 491803
1, 399973, Tempo, 489796
1, 400080, Note_on_c, 0, 75, 0
1, 400080, Note_on_c, 0, 63, 31
1, 400105, Tempo, 506329
1, 400129, Tempo, 510638
1, 400165, Tempo, 506329
1, 400189, Tempo, 504202
1, 400200, Note_on_c, 0, 63, 0
1, 400200, Note_on_c, 0, 68, 28
1, 400201, Tempo, 502092
1, 400213, Tempo, 500000
1, 400249, Tempo, 497925
1, 400320, Note_on_c, 0, 68, 0
1, 400320, Note_on_c, 0, 71, 40
1, 400331, Control_c, 0, 64, 0
1, 400405, Tempo, 495868
1, 400417, Tempo, 493827
1, 400431, Control_c, 0, 64, 127
1, 400440, Note_on_c, 0, 71, 0
1, 400440, Note_on_c, 0, 75, 32
1, 400441, Tempo, 489796
1, 400465, Tempo, 491803
1, 400477, Tempo, 493827
1, 400489, Tempo, 495868
1, 400501, Tempo, 497925
1, 400513, Tempo, 502092
1, 400525, Tempo, 497925
1, 400560, Tempo, 517241
1, 400560, Note_on_c, 0, 75, 0
1, 400560, Note_on_c, 0, 44, 44
1, 400560, Note_on_c, 0, 63, 32
1, 400680, Note_on_c, 0, 63, 0
1, 400680, Note_on_c, 0, 68, 28
1, 400800, Tempo, 504202
1, 400800, Note_on_c, 0, 68, 0
1, 400800, Note_on_c, 0, 44, 0
1, 400800, Note_on_c, 0, 46, 48
1, 400800, Note_on_c, 0, 71, 42
1, 400817, Control_c, 0, 64, 0
1, 400920, Note_on_c, 0, 71, 0
1, 400920, Note_on_c, 0, 75, 33
1, 400955, Control_c, 0, 64, 127
1, 401040, Tempo, 528634
1, 401040, Note_on_c, 0, 75, 0
1, 401040, Note_on_c, 0, 46, 0
1, 401040, Note_on_c, 0, 47, 45
1, 401040, Note_on_c, 0, 63, 33
1, 401056, Control_c, 0, 64, 0
1, 401126, Control_c, 0, 64, 127
1, 401160, Tempo, 618557
1, 401160, Note_on_c, 0, 63, 0
1, 401160, Note_on_c, 0, 68, 28
1, 401280, Tempo, 500000
1, 401280, Note_on_c, 0, 68, 0
1, 401280, Note_on_c, 0, 47, 0
1, 401280, Note_on_c, 0, 39, 48
1, 401280, Note_on_c, 0, 70, 37
1, 401280, Control_c, 0, 64, 0
1, 401281, Tempo, 497925
1, 401282, Control_c, 0, 64, 0
1, 401305, Tempo, 495868
1, 401317, Tempo, 491803
1, 401341, Tempo, 489796
1, 401365, Tempo, 487805
1, 401366, Control_c, 0, 64, 127
1, 401389, Tempo, 489796
1, 401400, Note_on_c, 0, 70, 0
1, 401400, Note_on_c, 0, 75, 29
1, 401413, Tempo, 491803
1, 401425, Tempo, 493827
1, 401437, Tempo, 506329
1, 401449, Tempo, 508475
1, 401461, Tempo, 502092
1, 401485, Tempo, 500000
1, 401509, Tempo, 497925
1, 401520, Note_on_c, 0, 75, 0
1, 401520, Note_on_c, 0, 63, 29
1, 401533, Tempo, 495868
1, 401545, Tempo, 493827
1, 401569, Tempo, 491803
1, 401629, Tempo, 489796
1, 401640, Note_on_c, 0, 63, 0
1, 401640, Note_on_c, 0, 68, 26
1, 401641, Tempo, 497925
1, 401653, Tempo, 500000
1, 401665, Tempo, 502092
1, 401677, Tempo, 504202
1, 401689, Tempo, 506329
1, 401713, Tempo, 500000
1, 401725, Tempo, 497925
1, 401737, Tempo, 495868
1, 401749, Tempo, 493827
1, 401760, Note_on_c, 0, 68, 0
1, 401760, Note_on_c, 0, 70, 38
1, 401761, Tempo, 491803
1, 401773, Tempo, 489796
1, 401785, Tempo, 487805
1, 401809, Tempo, 485830
1, 401880, Note_on_c, 0, 70, 0
1, 401880, Note_on_c, 0, 75, 29
1, 401893, Tempo, 487805
1, 401905, Tempo, 489796
1, 401917, Tempo, 497925
1, 401929, Tempo, 502092
1, 401941, Tempo, 504202
1, 401953, Tempo, 506329
1, 402000, Note_on_c, 0, 75, 0
1, 402000, Note_on_c, 0, 63, 29
1, 402025, Tempo, 495868
1, 402037, Tempo, 493827
1, 402049, Tempo, 487805
1, 402085, Tempo, 485830
1, 402120, Note_on_c, 0, 63, 0
1, 402120, Note_on_c, 0, 68, 27
1, 402133, Tempo, 487805
1, 402169, Tempo, 489796
1, 402181, Tempo, 491803
1, 402217, Tempo, 500000
1, 402240, Note_on_c, 0, 68, 0
1, 402240, Note_on_c, 0, 70, 40
1, 402241, Tempo, 504202
1, 402265, Tempo, 508475
1, 402289, Tempo, 502092
1, 402337, Tempo, 500000
1, 402360, Note_on_c, 0, 70, 0
1, 402360, Note_on_c, 0, 75, 28
1, 402361, Tempo, 497925
1, 402385, Tempo, 495868
1, 402397, Tempo, 497925
1, 402409, Tempo, 500000
1, 402421, Tempo, 495868
1, 402480, Tempo, 517241
1, 402480, Note_on_c, 0, 75, 0
1, 402480, Note_on_c, 0, 63, 28
1, 402600, Note_on_c, 0, 63, 0
1, 402600, Note_on_c, 0, 67, 26
1, 402720, Tempo, 504202
1, 402720, Note_on_c, 0, 67, 0
1, 402720, Note_on_c, 0, 70, 41
1, 402840, Note_on_c, 0, 70, 0
1, 402840, Note_on_c, 0, 75, 29
1, 402960, Tempo, 528634
1, 402960, Note_on_c, 0, 75, 0
1, 402960, Note_on_c, 0, 63, 29
1, 403080, Tempo, 600000
1, 403080, Note_on_c, 0, 63, 0
1, 403080, Note_on_c, 0, 67, 25
1, 403189, Tempo, 497925
1, 403200, Note_on_c, 0, 67, 0
1, 403200, Note_on_c, 0, 39, 0
1, 403200, Note_on_c, 0, 32, 44
1, 403200, Note_on_c, 0, 72, 37
1, 403200, Control_c, 0, 64, 0
1, 403202, Control_c, 0, 64, 0
1, 403225, Tempo, 495868
1, 403249, Tempo, 493827
1, 403273, Tempo, 491803
1, 403286, Control_c, 0, 64, 127
1, 403320, Note_on_c, 0, 72, 0
1, 403320, Note_on_c, 0, 75, 35
1, 403345, Tempo, 497925
1, 403357, Tempo, 502092
1, 403440, Note_on_c, 0, 75, 0
1, 403440, Note_on_c, 0, 63, 29
1, 403441, Tempo, 500000
1, 403453, Tempo, 497925
1, 403465, Tempo, 495868
1, 403489, Tempo, 493827
1, 403549, Tempo, 491803
1, 403560, Note_on_c, 0, 63, 0
1, 403560, Note_on_c, 0, 68, 28
1, 403561, Tempo, 487805
1, 403609, Tempo, 491803
1, 403633, Tempo, 495868
1, 403645, Tempo, 497925
1, 403657, Tempo, 500000
1, 403680, Note_on_c, 0, 68, 0
1, 403680, Note_on_c, 0, 32, 0
1, 403680, Note_on_c, 0, 72, 38
1, 403753, Tempo, 497925
1, 403765, Tempo, 485830
1, 403800, Note_on_c, 0, 72, 0
1, 403800, Note_on_c, 0, 75, 30
1, 403897, Tempo, 487805
1, 403920, Note_on_c, 0, 75, 0
1, 403920, Note_on_c, 0, 63, 31
1, 403921, Tempo, 491803
1, 403933, Tempo, 495868
1, 403945, Tempo, 500000
1, 403969, Tempo, 502092
1, 403981, Tempo, 504202
1, 404029, Tempo, 506329
1, 404040, Note_on_c, 0, 63, 0
1, 404040, Note_on_c, 0, 68, 28
1, 404053, Tempo, 504202
1, 404065, Tempo, 495868
1, 404077, Tempo, 493827
1, 404089, Tempo, 491803
1, 404113, Tempo, 489796
1, 404160, Note_on_c, 0, 68, 0
1, 404160, Note_on_c, 0, 72, 45
1, 404185, Tempo, 491803
1, 404197, Tempo, 495868
1, 404221, Tempo, 500000
1, 404245, Tempo, 502092
1, 404280, Note_on_c, 0, 72, 0
1, 404280, Note_on_c, 0, 75, 32
1, 404305, Tempo, 497925
1, 404329, Tempo, 495868
1, 404341, Tempo, 493827
1, 404353, Tempo, 495868
1, 404365, Tempo, 497925
1, 404400, Tempo, 517241
1, 404400, Note_on_c, 0, 75, 0
1, 404400, Note_on_c, 0, 80, 46
1, 404400, Note_on_c, 0, 84, 55
1, 404400, Note_on_c, 0, 63, 32
1, 404414, Control_c, 0, 64, 0
1, 404520, Note_on_c, 0, 63, 0
1, 404520, Note_on_c, 0, 68, 30
1, 404520, Control_c, 0, 64, 127
1, 404640, Tempo, 504202
1, 404640, Note_on_c, 0, 68, 0
1, 404640, Note_on_c, 0, 84, 0
1, 404640, Note_on_c, 0, 80, 0
1, 404640, Note_on_c, 0, 84, 55
1, 404640, Note_on_c, 0, 80, 46
1, 404640, Note_on_c, 0, 72, 47
1, 404760, Note_on_c, 0, 72, 0
1, 404760, Note_on_c, 0, 75, 34
1, 404880, Note_on_c, 0, 75, 0
1, 404880, Note_on_c, 0, 80, 0
1, 404880, Note_on_c, 0, 84, 0
1, 404880, Note_on_c, 0, 80, 46
1, 404880, Note_on_c, 0, 85, 55
1, 404880, Note_on_c, 0, 63, 38
1, 405000, Tempo, 588235
1, 405000, Note_on_c, 0, 63, 0
1, 405000, Note_on_c, 0, 68, 35
1, 405120, Tempo, 500000
1, 405120, Note_on_c, 0, 68, 0
1, 405120, Note_on_c, 0, 85, 0
1, 405120, Note_on_c, 0, 80, 0
1, 405120, Note_on_c, 0, 82, 51
1, 405120, Note_on_c, 0, 84, 60
1, 405120, Note_on_c, 0, 79, 51
1, 405120, Note_on_c, 0, 72, 50
1, 405120, Control_c, 0, 64, 0
1, 405157, Tempo, 497925
1, 405193, Tempo, 493827
1, 405217, Tempo, 489796
1, 405229, Tempo, 485830
1, 405240, Note_on_c, 0, 72, 0
1, 405240, Note_on_c, 0, 76, 39
1, 405253, Tempo, 483871
1, 405254, Control_c, 0, 64, 127
1, 405313, Tempo, 487805
1, 405325, Tempo, 491803
1, 405337, Tempo, 497925
1, 405360, Note_on_c, 0, 76, 0
1, 405360, Note_on_c, 0, 64, 39
1, 405361, Tempo, 500000
1, 405397, Tempo, 502092
1, 405421, Tempo, 504202
1, 405445, Tempo, 493827
1, 405457, Tempo, 491803
1, 405480, Note_on_c, 0, 64, 0
1, 405480, Note_on_c, 0, 67, 34
1, 405517, Tempo, 489796
1, 405553, Tempo, 487805
1, 405565, Tempo, 483871
1, 405577, Tempo, 481928
1, 405600, Note_on_c, 0, 67, 0
1, 405600, Note_on_c, 0, 79, 0
1, 405600, Note_on_c, 0, 84, 0
1, 405600, Note_on_c, 0, 82, 0
1, 405600, Note_on_c, 0, 79, 55
1, 405600, Note_on_c, 0, 72, 51
1, 405601, Tempo, 483871
1, 405613, Tempo, 485830
1, 405637, Tempo, 487805
1, 405649, Tempo, 489796
1, 405673, Tempo, 491803
1, 405685, Tempo, 493827
1, 405720, Note_on_c, 0, 72, 0
1, 405720, Note_on_c, 0, 76, 39
1, 405745, Tempo, 485830
1, 405757, Tempo, 481928
1, 405840, Note_on_c, 0, 76, 0
1, 405840, Note_on_c, 0, 79, 0
1, 405840, Note_on_c, 0, 64, 40
1, 405853, Tempo, 483871
1, 405865, Tempo, 485830
1, 405949, Tempo, 483871
1, 405960, Note_on_c, 0, 64, 0
1, 405960, Note_on_c, 0, 67, 34
1, 405973, Tempo, 481928
1, 405997, Tempo, 480000
1, 406009, Tempo, 478088
1, 406057, Tempo, 497925
1, 406080, Note_on_c, 0, 67, 0
1, 406080, Note_on_c, 0, 72, 49
1, 406129, Tempo, 495868
1, 406141, Tempo, 493827
1, 406153, Tempo, 491803
1, 406200, Note_on_c, 0, 72, 0
1, 406200, Note_on_c, 0, 76, 38
1, 406237, Tempo, 493827
1, 406320, Tempo, 517241
1, 406320, Note_on_c, 0, 76, 0
1, 406320, Note_on_c, 0, 60, 55
1, 406320, Note_on_c, 0, 48, 46
1, 406320, Note_on_c, 0, 64, 38
1, 406440, Note_on_c, 0, 64, 0
1, 406440, Note_on_c, 0, 67, 35
1, 406560, Tempo, 504202
1, 406560, Note_on_c, 0, 67, 0
1, 406560, Note_on_c, 0, 48, 0
1, 406560, Note_on_c, 0, 60, 0
1, 406560, Note_on_c, 0, 60, 55
1, 406560, Note_on_c, 0, 48, 46
1, 406560, Note_on_c, 0, 72, 51
1, 406680, Note_on_c, 0, 72, 0
1, 406680, Note_on_c, 0, 76, 40
1, 406800, Note_on_c, 0, 76, 0
1, 406800, Note_on_c, 0, 48, 0
1, 406800, Note_on_c, 0, 60, 0
1, 406800, Note_on_c, 0, 55, 55
1, 406800, Note_on_c, 0, 43, 46
1, 406800, Note_on_c, 0, 64, 41
1, 406920, Tempo, 588235
1, 406920, Note_on_c, 0, 64, 0
1, 406920, Note_on_c, 0, 67, 38
1, 407040, Tempo, 500000
1, 407040, Note_on_c, 0, 67, 0
1, 407040, Note_on_c, 0, 43, 0
1, 407040, Note_on_c, 0, 55, 0
1, 407040, Note_on_c, 0, 56, 60
1, 407040, Note_on_c, 0, 44, 51
1, 407040, Note_on_c, 0, 72, 59
1, 407047, Control_c, 0, 64, 0
1, 407137, Control_c, 0, 64, 127
1, 407160, Note_on_c, 0, 72, 0
1, 407160, Note_on_c, 0, 77, 45
1, 407173, Tempo, 500000
1, 407185, Tempo, 489796
1, 407197, Tempo, 487805
1, 407209, Tempo, 485830
1, 407280, Note_on_c, 0, 77, 0
1, 407280, Note_on_c, 0, 65, 46
1, 407281, Tempo, 487805
1, 407293, Tempo, 489796
1, 407305, Tempo, 493827
1, 407353, Tempo, 495868
1, 407400, Note_on_c, 0, 65, 0
1, 407400, Note_on_c, 0, 68, 45
1, 407413, Tempo, 481928
1, 407425, Tempo, 480000
1, 407509, Tempo, 481928
1, 407520, Note_on_c, 0, 68, 0
1, 407520, Note_on_c, 0, 44, 0
1, 407520, Note_on_c, 0, 56, 0
1, 407520, Note_on_c, 0, 53, 59
1, 407520, Note_on_c, 0, 41, 50
1, 407520, Note_on_c, 0, 72, 64
1, 407521, Tempo, 485830
1, 407533, Tempo, 487805
1, 407545, Tempo, 489796
1, 407569, Tempo, 491803
1, 407640, Note_on_c, 0, 72, 0
1, 407640, Note_on_c, 0, 77, 48
1, 407677, Tempo, 487805
1, 407689, Tempo, 485830
1, 407701, Tempo, 483871
1, 407749, Tempo, 487805
1, 407760, Note_on_c, 0, 77, 0
1, 407760, Note_on_c, 0, 41, 0
1, 407760, Note_on_c, 0, 53, 0
1, 407760, Note_on_c, 0, 65, 50
1, 407761, Tempo, 491803
1, 407773, Tempo, 493827
1, 407821, Tempo, 489796
1, 407833, Tempo, 487805
1, 407845, Tempo, 485830
1, 407880, Note_on_c, 0, 65, 0
1, 407880, Note_on_c, 0, 68, 50
1, 407917, Tempo, 491803
1, 407929, Tempo, 493827
1, 407941, Tempo, 495868
1, 407953, Tempo, 497925
1, 408000, Note_on_c, 0, 68, 0
1, 408000, Note_on_c, 0, 72, 58
1, 408061, Tempo, 495868
1, 408085, Tempo, 491803
1, 408120, Note_on_c, 0, 72, 0
1, 408120, Note_on_c, 0, 77, 47
1, 408133, Tempo, 493827
1, 408193, Tempo, 497925
1, 408205, Tempo, 500000
1, 408240, Tempo, 517241
1, 408240, Note_on_c, 0, 77, 0
1, 408240, Note_on_c, 0, 80, 58
1, 408240, Note_on_c, 0, 84, 69
1, 408240, Note_on_c, 0, 65, 47
1, 408247, Control_c, 0, 64, 0
1, 408339, Control_c, 0, 64, 127
1, 408360, Note_on_c, 0, 65, 0
1, 408360, Note_on_c, 0, 68, 43
1, 408480, Tempo, 504202
1, 408480, Note_on_c, 0, 68, 0
1, 408480, Note_on_c, 0, 84, 0
1, 408480, Note_on_c, 0, 80, 0
1, 408480, Note_on_c, 0, 84, 69
1, 408480, Note_on_c, 0, 80, 58
1, 408480, Note_on_c, 0, 72, 54
1, 408600, Note_on_c, 0, 72, 0
1, 408600, Note_on_c, 0, 77, 46
1, 408720, Note_on_c, 0, 77, 0
1, 408720, Note_on_c, 0, 80, 0
1, 408720, Note_on_c, 0, 84, 0
1, 408720, Note_on_c, 0, 85, 69
1, 408720, Note_on_c, 0, 80, 58
1, 408720, Note_on_c, 0, 65, 46
1, 408840, Tempo, 588235
1, 408840, Note_on_c, 0, 65, 0
1, 408840, Note_on_c, 0, 68, 41
1, 408960, Tempo, 500000
1, 408960, Note_on_c, 0, 68, 0
1, 408960, Note_on_c, 0, 80, 0
1, 408960, Note_on_c, 0, 85, 0
1, 408960, Note_on_c, 0, 79, 53
1, 408960, Note_on_c, 0, 82, 53
1, 408960, Note_on_c, 0, 84, 75
1, 408960, Note_on_c, 0, 72, 57
1, 408960, Control_c, 0, 64, 0
1, 409045, Tempo, 500000
1, 409080, Note_on_c, 0, 72, 0
1, 409080, Note_on_c, 0, 76, 44
1, 409094, Control_c, 0, 64, 127
1, 409117, Tempo, 497925
1, 409129, Tempo, 495868
1, 409153, Tempo, 493827
1, 409165, Tempo, 491803
1, 409177, Tempo, 485830
1, 409189, Tempo, 483871
1, 409200, Note_on_c, 0, 76, 0
1, 409200, Note_on_c, 0, 64, 44
1, 409201, Tempo, 481928
1, 409225, Tempo, 483871
1, 409237, Tempo, 485830
1, 409261, Tempo, 487805
1, 409273, Tempo, 491803
1, 409285, Tempo, 493827
1, 409297, Tempo, 495868
1, 409309, Tempo, 500000
1, 409320, Note_on_c, 0, 64, 0
1, 409320, Note_on_c, 0, 67, 40
1, 409333, Tempo, 495868
1, 409345, Tempo, 493827
1, 409357, Tempo, 491803
1, 409369, Tempo, 489796
1, 409381, Tempo, 487805
1, 409440, Note_on_c, 0, 67, 0
1, 409440, Note_on_c, 0, 84, 0
1, 409440, Note_on_c, 0, 82, 0
1, 409440, Note_on_c, 0, 79, 0
1, 409440, Note_on_c, 0, 79, 69
1, 409440, Note_on_c, 0, 72, 58
1, 409441, Tempo, 491803
1, 409453, Tempo, 495868
1, 409465, Tempo, 497925
1, 409560, Note_on_c, 0, 72, 0
1, 409560, Note_on_c, 0, 76, 44
1, 409561, Tempo, 495868
1, 409573, Tempo, 491803
1, 409585, Tempo, 485830
1, 409669, Tempo, 489796
1, 409680, Note_on_c, 0, 76, 0
1, 409680, Note_on_c, 0, 79, 0
1, 409680, Note_on_c, 0, 64, 46
1, 409681, Tempo, 491803
1, 409693, Tempo, 493827
1, 409800, Note_on_c, 0, 64, 0
1, 409800, Note_on_c, 0, 67, 41
1, 409849, Tempo, 489796
1, 409920, Note_on_c, 0, 67, 0
1, 409920, Note_on_c, 0, 72, 56
1, 409921, Tempo, 497925
1, 409945, Tempo, 502092
1, 410017, Tempo, 500000
1, 410040, Note_on_c, 0, 72, 0
1, 410040, Note_on_c, 0, 76, 43
1, 410041, Tempo, 497925
1, 410065, Tempo, 495868
1, 410077, Tempo, 493827
1, 410089, Tempo, 495868
1, 410101, Tempo, 497925
1, 410113, Tempo, 502092
1, 410137, Tempo, 504202
1, 410160, Note_on_c, 0, 76, 0
1, 410160, Note_on_c, 0, 60, 63
1, 410160, Note_on_c, 0, 48, 52
1, 410160, Note_on_c, 0, 64, 43
1, 410161, Tempo, 506329
1, 410280, Note_on_c, 0, 64, 0
1, 410280, Note_on_c, 0, 67, 39
1, 410400, Tempo, 504202
1, 410400, Note_on_c, 0, 67, 0
1, 410400, Note_on_c, 0, 48, 0
1, 410400, Note_on_c, 0, 60, 0
1, 410400, Note_on_c, 0, 60, 63
1, 410400, Note_on_c, 0, 48, 52
1, 410400, Note_on_c, 0, 72, 58
1, 410520, Note_on_c, 0, 72, 0
1, 410520, Note_on_c, 0, 76, 46
1, 410640, Note_on_c, 0, 76, 0
1, 410640, Note_on_c, 0, 48, 0
1, 410640, Note_on_c, 0, 60, 0
1, 410640, Note_on_c, 0, 55, 63
1, 410640, Note_on_c, 0, 43, 52
1, 410640, Note_on_c, 0, 64, 47
1, 410760, Tempo, 588235
1, 410760, Note_on_c, 0, 64, 0
1, 410760, Note_on_c, 0, 67, 44
1, 410880, Tempo, 500000
1, 410880, Note_on_c, 0, 67, 0
1, 410880, Note_on_c, 0, 43, 0
1, 410880, Note_on_c, 0, 55, 0
1, 410880, Note_on_c, 0, 44, 58
1, 410880, Note_on_c, 0, 56, 69
1, 410880, Note_on_c, 0, 72, 67
1, 410887, Control_c, 0, 64, 0
1, 410905, Tempo, 497925
1, 410929, Tempo, 493827
1, 410953, Tempo, 489796
1, 410977, Tempo, 487805
1, 410977, Control_c, 0, 64, 127
1, 410989, Tempo, 485830
1, 411000, Note_on_c, 0, 72, 0
1, 411000, Note_on_c, 0, 77, 51
1, 411013, Tempo, 483871
1, 411061, Tempo, 487805
1, 411085, Tempo, 489796
1, 411109, Tempo, 493827
1, 411120, Note_on_c, 0, 77, 0
1, 411120, Note_on_c, 0, 65, 51
1, 411121, Tempo, 497925
1, 411145, Tempo, 504202
1, 411169, Tempo, 500000
1, 411181, Tempo, 497925
1, 411193, Tempo, 495868
1, 411205, Tempo, 493827
1, 411229, Tempo, 491803
1, 411240, Note_on_c, 0, 65, 0
1, 411240, Note_on_c, 0, 68, 47
1, 411289, Tempo, 495868
1, 411313, Tempo, 500000
1, 411337, Tempo, 504202
1, 411360, Note_on_c, 0, 68, 0
1, 411360, Note_on_c, 0, 56, 0
1, 411360, Note_on_c, 0, 44, 0
1, 411360, Note_on_c, 0, 53, 64
1, 411360, Note_on_c, 0, 41, 54
1, 411360, Note_on_c, 0, 72, 69
1, 411361, Tempo, 500000
1, 411373, Tempo, 497925
1, 411397, Tempo, 493827
1, 411421, Tempo, 491803
1, 411445, Tempo, 489796
1, 411469, Tempo, 487805
1, 411480, Note_on_c, 0, 72, 0
1, 411480, Note_on_c, 0, 77, 51
1, 411481, Tempo, 485830
1, 411505, Tempo, 487805
1, 411517, Tempo, 489796
1, 411541, Tempo, 491803
1, 411553, Tempo, 493827
1, 411565, Tempo, 495868
1, 411589, Tempo, 497925
1, 411600, Note_on_c, 0, 77, 0
1, 411600, Note_on_c, 0, 41, 0
1, 411600, Note_on_c, 0, 53, 0
1, 411600, Note_on_c, 0, 65, 51
1, 411613, Tempo, 500000
1, 411649, Tempo, 502092
1, 411661, Tempo, 504202
1, 411685, Tempo, 506329
1, 411709, Tempo, 508475
1, 411720, Note_on_c, 0, 65, 0
1, 411720, Note_on_c, 0, 68, 48
1, 411745, Tempo, 506329
1, 411757, Tempo, 504202
1, 411769, Tempo, 497925
1, 411793, Tempo, 495868
1, 411829, Tempo, 497925
1, 411840, Note_on_c, 0, 68, 0
1, 411840, Note_on_c, 0, 72, 60
1, 411853, Tempo, 500000
1, 411865, Tempo, 502092
1, 411877, Tempo, 504202
1, 411960, Note_on_c, 0, 72, 0
1, 411960, Note_on_c, 0, 77, 49
1, 412080, Tempo, 530973
1, 412080, Note_on_c, 0, 77, 0
1, 412080, Note_on_c, 0, 84, 72
1, 412080, Note_on_c, 0, 65, 49
1, 412200, Note_on_c, 0, 65, 0
1, 412200, Note_on_c, 0, 68, 48
1, 412320, Tempo, 552995
1, 412320, Note_on_c, 0, 68, 0
1, 412320, Note_on_c, 0, 84, 0
1, 412320, Note_on_c, 0, 84, 75
1, 412320, Note_on_c, 0, 72, 59
1, 412440, Note_on_c, 0, 72, 0
1, 412440, Note_on_c, 0, 77, 51
1, 412560, Note_on_c, 0, 77, 0
1, 412560, Note_on_c, 0, 84, 0
1, 412560, Note_on_c, 0, 84, 79
1, 412560, Note_on_c, 0, 65, 51
1, 412680, Tempo, 652174
1, 412680, Note_on_c, 0, 65, 0
1, 412680, Note_on_c, 0, 68, 47
1, 412800, Tempo, 519481
1, 412800, Note_on_c, 0, 68, 0
1, 412800, Note_on_c, 0, 84, 0
1, 412800, Note_on_c, 0, 85, 83
1, 412800, Note_on_c, 0, 73, 65
1, 412800, Control_c, 0, 64, 0
1, 412920, Note_on_c, 0, 73, 0
1, 412920, Note_on_c, 0, 77, 53
1, 412934, Control_c, 0, 64, 127
1, 412993, Tempo, 517241
1, 413040, Note_on_c, 0, 77, 0
1, 413040, Note_on_c, 0, 65, 53
1, 413041, Tempo, 515021
1, 413065, Tempo, 512821
1, 413077, Tempo, 510638
1, 413089, Tempo, 508475
1, 413160, Note_on_c, 0, 65, 0
1, 413160, Note_on_c, 0, 68, 49
1, 413173, Tempo, 506329
1, 413197, Tempo, 504202
1, 413209, Tempo, 502092
1, 413221, Tempo, 510638
1, 413269, Tempo, 508475
1, 413280, Note_on_c, 0, 68, 0
1, 413280, Note_on_c, 0, 85, 0
1, 413280, Note_on_c, 0, 49, 77
1, 413280, Note_on_c, 0, 73, 62
1, 413281, Tempo, 504202
1, 413305, Tempo, 500000
1, 413341, Tempo, 502092
1, 413353, Tempo, 491803
1, 413365, Tempo, 489796
1, 413400, Note_on_c, 0, 73, 0
1, 413400, Note_on_c, 0, 77, 53
1, 413413, Tempo, 487805
1, 413497, Tempo, 489796
1, 413509, Tempo, 497925
1, 413520, Note_on_c, 0, 77, 0
1, 413520, Note_on_c, 0, 65, 53
1, 413521, Tempo, 491803
1, 413533, Tempo, 489796
1, 413545, Tempo, 485830
1, 413569, Tempo, 483871
1, 413640, Note_on_c, 0, 65, 0
1, 413640, Note_on_c, 0, 68, 49
1, 413677, Tempo, 485830
1, 413689, Tempo, 487805
1, 413701, Tempo, 493827
1, 413713, Tempo, 495868
1, 413749, Tempo, 491803
1, 413760, Note_on_c, 0, 68, 0
1, 413760, Note_on_c, 0, 73, 62
1, 413761, Tempo, 489796
1, 413773, Tempo, 487805
1, 413773, Control_c, 0, 64, 0
1, 413833, Tempo, 495868
1, 413871, Control_c, 0, 64, 127
1, 413880, Note_on_c, 0, 73, 0
1, 413880, Note_on_c, 0, 78, 53
1, 413881, Tempo, 497925
1, 413917, Tempo, 500000
1, 413929, Tempo, 495868
1, 413941, Tempo, 500000
1, 414000, Tempo, 528634
1, 414000, Note_on_c, 0, 78, 0
1, 414000, Note_on_c, 0, 66, 53
1, 414120, Note_on_c, 0, 66, 0
1, 414120, Note_on_c, 0, 69, 49
1, 414240, Tempo, 502092
1, 414240, Note_on_c, 0, 69, 0
1, 414240, Note_on_c, 0, 49, 0
1, 414240, Note_on_c, 0, 81, 70
1, 414240, Note_on_c, 0, 73, 62
1, 414360, Note_on_c, 0, 73, 0
1, 414360, Note_on_c, 0, 78, 53
1, 414480, Note_on_c, 0, 78, 0
1, 414480, Note_on_c, 0, 66, 53
1, 414600, Note_on_c, 0, 66, 0
1, 414600, Note_on_c, 0, 81, 0
1, 414600, Note_on_c, 0, 83, 67
1, 414600, Note_on_c, 0, 69, 49
1, 414720, Tempo, 489796
1, 414720, Note_on_c, 0, 69, 0
1, 414720, Note_on_c, 0, 83, 0
1, 414720, Note_on_c, 0, 85, 79
1, 414720, Note_on_c, 0, 73, 65
1, 414720, Control_c, 0, 64, 0
1, 414840, Note_on_c, 0, 73, 0
1, 414840, Note_on_c, 0, 77, 53
1, 414854, Control_c, 0, 64, 127
1, 414960, Note_on_c, 0, 77, 0
1, 414960, Note_on_c, 0, 65, 53
1, 415080, Note_on_c, 0, 65, 0
1, 415080, Note_on_c, 0, 68, 47
1, 415200, Tempo, 504202
1, 415200, Note_on_c, 0, 68, 0
1, 415200, Note_on_c, 0, 85, 0
1, 415200, Note_on_c, 0, 49, 77
1, 415200, Note_on_c, 0, 73, 62
1, 415320, Note_on_c, 0, 73, 0
1, 415320, Note_on_c, 0, 77, 53
1, 415321, Tempo, 500000
1, 415345, Tempo, 497925
1, 415357, Tempo, 495868
1, 415369, Tempo, 493827
1, 415381, Tempo, 491803
1, 415393, Tempo, 489796
1, 415405, Tempo, 485830
1, 415440, Note_on_c, 0, 77, 0
1, 415440, Note_on_c, 0, 65, 53
1, 415453, Tempo, 487805
1, 415465, Tempo, 491803
1, 415477, Tempo, 493827
1, 415501, Tempo, 495868
1, 415560, Note_on_c, 0, 65, 0
1, 415560, Note_on_c, 0, 68, 48
1, 415561, Tempo, 493827
1, 415573, Tempo, 489796
1, 415597, Tempo, 493827
1, 415621, Tempo, 497925
1, 415680, Note_on_c, 0, 68, 0
1, 415680, Note_on_c, 0, 73, 62
1, 415681, Tempo, 495868
1, 415693, Tempo, 493827
1, 415693, Control_c, 0, 64, 0
1, 415705, Tempo, 491803
1, 415729, Tempo, 489796
1, 415777, Tempo, 497925
1, 415791, Control_c, 0, 64, 127
1, 415800, Note_on_c, 0, 73, 0
1, 415800, Note_on_c, 0, 78, 53
1, 415849, Tempo, 495868
1, 415861, Tempo, 497925
1, 415920, Tempo, 517241
1, 415920, Note_on_c, 0, 78, 0
1, 415920, Note_on_c, 0, 66, 53
1, 416040, Note_on_c, 0, 66, 0
1, 416040, Note_on_c, 0, 69, 49
1, 416160, Tempo, 500000
1, 416160, Note_on_c, 0, 69, 0
1, 416160, Note_on_c, 0, 49, 0
1, 416160, Note_on_c, 0, 81, 70
1, 416160, Note_on_c, 0, 73, 62
1, 416280, Note_on_c, 0, 73, 0
1, 416280, Note_on_c, 0, 78, 53
1, 416400, Note_on_c, 0, 78, 0
1, 416400, Note_on_c, 0, 66, 53
1, 416520, Note_on_c, 0, 66, 0
1, 416520, Note_on_c, 0, 81, 0
1, 416520, Note_on_c, 0, 83, 67
1, 416520, Note_on_c, 0, 69, 48
1, 416640, Tempo, 528634
1, 416640, Note_on_c, 0, 69, 0
1, 416640, Note_on_c, 0, 83, 0
1, 416640, Note_on_c, 0, 85, 77
1, 416640, Note_on_c, 0, 73, 65
1, 416640, Control_c, 0, 64, 0
1, 416760, Note_on_c, 0, 73, 0
1, 416760, Note_on_c, 0, 77, 46
1, 416774, Control_c, 0, 64, 127
1, 416880, Note_on_c, 0, 77, 0
1, 416880, Note_on_c, 0, 65, 46
1, 417000, Note_on_c, 0, 65, 0
1, 417000, Note_on_c, 0, 68, 42
1, 417120, Tempo, 519481
1, 417120, Note_on_c, 0, 68, 0
1, 417120, Note_on_c, 0, 85, 0
1, 417120, Note_on_c, 0, 49, 66
1, 417120, Note_on_c, 0, 73, 55
1, 417240, Note_on_c, 0, 73, 0
1, 417240, Note_on_c, 0, 77, 40
1, 417360, Note_on_c, 0, 77, 0
1, 417360, Note_on_c, 0, 65, 40
1, 417480, Note_on_c, 0, 65, 0
1, 417480, Note_on_c, 0, 68, 36
1, 417600, Tempo, 547945
1, 417600, Note_on_c, 0, 68, 0
1, 417600, Note_on_c, 0, 73, 40
1, 417720, Note_on_c, 0, 73, 0
1, 417720, Note_on_c, 0, 77, 46
1, 417840, Note_on_c, 0, 77, 0
1, 417840, Note_on_c, 0, 65, 37
1, 417960, Note_on_c, 0, 65, 0
1, 417960, Note_on_c, 0, 68, 35
1, 418069, Tempo, 571429
1, 418080, Note_on_c, 0, 68, 0
1, 418080, Note_on_c, 0, 49, 0
1, 418080, Note_on_c, 0, 48, 49
1, 418080, Note_on_c, 0, 72, 37
1, 418093, Control_c, 0, 64, 0
1, 418105, Tempo, 574163
1, 418129, Tempo, 576923
1, 418153, Tempo, 579710
1, 418177, Tempo, 582524
1, 418200, Note_on_c, 0, 72, 0
1, 418200, Note_on_c, 0, 77, 43
1, 418200, Control_c, 0, 64, 127
1, 418213, Tempo, 585366
1, 418237, Tempo, 588235
1, 418261, Tempo, 591133
1, 418285, Tempo, 594059
1, 418320, Note_on_c, 0, 77, 0
1, 418320, Note_on_c, 0, 65, 37
1, 418321, Tempo, 597015
1, 418345, Tempo, 600000
1, 418369, Tempo, 603015
1, 418393, Tempo, 606061
1, 418429, Tempo, 609137
1, 418440, Note_on_c, 0, 65, 0
1, 418440, Note_on_c, 0, 68, 34
1, 418453, Tempo, 612245
1, 418477, Tempo, 615385
1, 418501, Tempo, 618557
1, 418525, Tempo, 621762
1, 418560, Tempo, 528634
1, 418560, Note_on_c, 0, 68, 0
1, 418560, Note_on_c, 0, 48, 0
1, 418560, Note_on_c, 0, 47, 56
1, 418560, Note_on_c, 0, 74, 37
1, 418560, Control_c, 0, 64, 0
1, 418561, Tempo, 563380
1, 418562, Control_c, 0, 64, 0
1, 418585, Tempo, 560748
1, 418609, Tempo, 558140
1, 418621, Tempo, 555556
1, 418645, Tempo, 552995
1, 418646, Control_c, 0, 64, 127
1, 418669, Tempo, 550459
1, 418680, Note_on_c, 0, 74, 0
1, 418680, Note_on_c, 0, 77, 29
1, 418681, Tempo, 547945
1, 418705, Tempo, 545455
1, 418729, Tempo, 542986
1, 418741, Tempo, 540541
1, 418765, Tempo, 538117
1, 418789, Tempo, 535714
1, 418800, Note_on_c, 0, 77, 0
1, 418800, Note_on_c, 0, 47, 0
1, 418800, Note_on_c, 0, 65, 29
1, 418801, Tempo, 533333
1, 418825, Tempo, 530973
1, 418837, Tempo, 528634
1, 418920, Note_on_c, 0, 65, 0
1, 418920, Note_on_c, 0, 67, 27
1, 419040, Tempo, 512821
1, 419040, Note_on_c, 0, 67, 0
1, 419040, Note_on_c, 0, 86, 63
1, 419040, Note_on_c, 0, 74, 38
1, 419160, Note_on_c, 0, 74, 0
1, 419160, Note_on_c, 0, 77, 30
1, 419280, Note_on_c, 0, 77, 0
1, 419280, Note_on_c, 0, 65, 31
1, 419400, Note_on_c, 0, 65, 0
1, 419400, Note_on_c, 0, 67, 28
1, 419520, Note_on_c, 0, 67, 0
1, 419520, Note_on_c, 0, 74, 41
1, 419640, Note_on_c, 0, 74, 0
1, 419640, Note_on_c, 0, 77, 31
1, 419760, Tempo, 547945
1, 419760, Note_on_c, 0, 77, 0
1, 419760, Note_on_c, 0, 86, 0
1, 419760, Note_on_c, 0, 86, 57
1, 419760, Note_on_c, 0, 65, 31
1, 419880, Note_on_c, 0, 65, 0
1, 419880, Note_on_c, 0, 67, 29
1, 420000, Tempo, 528634
1, 420000, Note_on_c, 0, 67, 0
1, 420000, Note_on_c, 0, 86, 0
1, 420000, Note_on_c, 0, 88, 60
1, 420000, Note_on_c, 0, 74, 40
1, 420019, Control_c, 0, 64, 0
1, 420097, Control_c, 0, 64, 127
1, 420120, Note_on_c, 0, 74, 0
1, 420120, Note_on_c, 0, 77, 29
1, 420240, Note_on_c, 0, 77, 0
1, 420240, Note_on_c, 0, 88, 0
1, 420240, Note_on_c, 0, 89, 60
1, 420240, Note_on_c, 0, 65, 32
1, 420360, Tempo, 588235
1, 420360, Note_on_c, 0, 65, 0
1, 420360, Note_on_c, 0, 67, 28
1, 420480, Tempo, 510638
1, 420480, Note_on_c, 0, 67, 0
1, 420480, Note_on_c, 0, 89, 0
1, 420480, Note_on_c, 0, 88, 69
1, 420480, Note_on_c, 0, 72, 44
1, 420480, Control_c, 0, 64, 0
1, 420600, Note_on_c, 0, 72, 0
1, 420600, Note_on_c, 0, 76, 32
1, 420614, Control_c, 0, 64, 127
1, 420720, Note_on_c, 0, 76, 0
1, 420720, Note_on_c, 0, 88, 0
1, 420720, Note_on_c, 0, 64, 32
1, 420840, Note_on_c, 0, 64, 0
1, 420840, Note_on_c, 0, 67, 30
1, 420960, Note_on_c, 0, 67, 0
1, 420960, Note_on_c, 0, 48, 42
1, 420960, Note_on_c, 0, 72, 44
1, 421080, Note_on_c, 0, 72, 0
1, 421080, Note_on_c, 0, 76, 34
1, 421200, Note_on_c, 0, 76, 0
1, 421200, Note_on_c, 0, 64, 34
1, 421320, Note_on_c, 0, 64, 0
1, 421320, Note_on_c, 0, 67, 31
1, 421440, Tempo, 512821
1, 421440, Note_on_c, 0, 67, 0
1, 421440, Note_on_c, 0, 48, 0
1, 421440, Note_on_c, 0, 72, 41
1, 421560, Note_on_c, 0, 72, 0
1, 421560, Note_on_c, 0, 76, 31
1, 421680, Tempo, 547945
1, 421680, Note_on_c, 0, 76, 0
1, 421680, Note_on_c, 0, 86, 63
1, 421680, Note_on_c, 0, 64, 31
1, 421697, Control_c, 0, 64, 0
1, 421783, Control_c, 0, 64, 127
1, 421800, Note_on_c, 0, 64, 0
1, 421800, Note_on_c, 0, 67, 29
1, 421920, Tempo, 528634
1, 421920, Note_on_c, 0, 67, 0
1, 421920, Note_on_c, 0, 86, 0
1, 421920, Note_on_c, 0, 84, 56
1, 421920, Note_on_c, 0, 72, 40
1, 421937, Control_c, 0, 64, 0
1, 422000, Control_c, 0, 64, 127
1, 422040, Note_on_c, 0, 72, 0
1, 422040, Note_on_c, 0, 76, 29
1, 422160, Note_on_c, 0, 76, 0
1, 422160, Note_on_c, 0, 84, 0
1, 422160, Note_on_c, 0, 83, 56
1, 422160, Note_on_c, 0, 64, 31
1, 422280, Tempo, 588235
1, 422280, Note_on_c, 0, 64, 0
1, 422280, Note_on_c, 0, 67, 26
1, 422400, Tempo, 521739
1, 422400, Note_on_c, 0, 67, 0
1, 422400, Note_on_c, 0, 83, 0
1, 422400, Note_on_c, 0, 81, 64
1, 422400, Note_on_c, 0, 72, 37
1, 422400, Control_c, 0, 64, 0
1, 422520, Note_on_c, 0, 72, 0
1, 422520, Note_on_c, 0, 77, 27
1, 422534, Control_c, 0, 64, 127
1, 422640, Note_on_c, 0, 77, 0
1, 422640, Note_on_c, 0, 81, 0
1, 422640, Note_on_c, 0, 65, 27
1, 422760, Note_on_c, 0, 65, 0
1, 422760, Note_on_c, 0, 69, 24
1, 422880, Tempo, 515021
1, 422880, Note_on_c, 0, 69, 0
1, 422880, Note_on_c, 0, 53, 29
1, 422880, Note_on_c, 0, 72, 37
1, 423000, Note_on_c, 0, 72, 0
1, 423000, Note_on_c, 0, 77, 28
1, 423120, Note_on_c, 0, 77, 0
1, 423120, Note_on_c, 0, 65, 28
1, 423240, Note_on_c, 0, 65, 0
1, 423240, Note_on_c, 0, 69, 24
1, 423360, Note_on_c, 0, 69, 0
1, 423360, Note_on_c, 0, 53, 0
1, 423360, Note_on_c, 0, 50, 26
1, 423360, Note_on_c, 0, 74, 37
1, 423370, Control_c, 0, 64, 0
1, 423466, Control_c, 0, 64, 127
1, 423480, Note_on_c, 0, 74, 0
1, 423480, Note_on_c, 0, 77, 27
1, 423600, Note_on_c, 0, 77, 0
1, 423600, Note_on_c, 0, 50, 0
1, 423600, Note_on_c, 0, 65, 27
1, 423720, Note_on_c, 0, 65, 0
1, 423720, Note_on_c, 0, 69, 25
1, 423840, Tempo, 519481
1, 423840, Note_on_c, 0, 69, 0
1, 423840, Note_on_c, 0, 81, 54
1, 423840, Note_on_c, 0, 74, 37
1, 423960, Note_on_c, 0, 74, 0
1, 423960, Note_on_c, 0, 77, 28
1, 424080, Note_on_c, 0, 77, 0
1, 424080, Note_on_c, 0, 65, 28
1, 424200, Note_on_c, 0, 65, 0
1, 424200, Note_on_c, 0, 69, 26
1, 424320, Tempo, 521739
1, 424320, Note_on_c, 0, 69, 0
1, 424320, Note_on_c, 0, 81, 0
1, 424320, Note_on_c, 0, 83, 58
1, 424320, Note_on_c, 0, 74, 37
1, 424320, Control_c, 0, 64, 0
1, 424440, Note_on_c, 0, 74, 0
1, 424440, Note_on_c, 0, 77, 27
1, 424454, Control_c, 0, 64, 127
1, 424560, Note_on_c, 0, 77, 0
1, 424560, Note_on_c, 0, 83, 0
1, 424560, Note_on_c, 0, 65, 27
1, 424680, Note_on_c, 0, 65, 0
1, 424680, Note_on_c, 0, 71, 24
1, 424800, Tempo, 515021
1, 424800, Note_on_c, 0, 71, 0
1, 424800, Note_on_c, 0, 55, 34
1, 424800, Note_on_c, 0, 74, 37
1, 424920, Note_on_c, 0, 74, 0
1, 424920, Note_on_c, 0, 77, 28
1, 425040, Note_on_c, 0, 77, 0
1, 425040, Note_on_c, 0, 65, 28
1, 425160, Note_on_c, 0, 65, 0
1, 425160, Note_on_c, 0, 71, 25
1, 425280, Note_on_c, 0, 71, 0
1, 425280, Note_on_c, 0, 55, 0
1, 425280, Note_on_c, 0, 56, 39
1, 425280, Note_on_c, 0, 74, 37
1, 425400, Note_on_c, 0, 74, 0
1, 425400, Note_on_c, 0, 77, 27
1, 425520, Note_on_c, 0, 77, 0
1, 425520, Note_on_c, 0, 65, 27
1, 425640, Note_on_c, 0, 65, 0
1, 425640, Note_on_c, 0, 71, 24
1, 425760, Tempo, 519481
1, 425760, Note_on_c, 0, 71, 0
1, 425760, Note_on_c, 0, 56, 0
1, 425760, Note_on_c, 0, 55, 35
1, 425760, Note_on_c, 0, 74, 37
1, 425880, Note_on_c, 0, 74, 0
1, 425880, Note_on_c, 0, 77, 29
1, 426000, Note_on_c, 0, 77, 0
1, 426000, Note_on_c, 0, 65, 29
1, 426120, Note_on_c, 0, 65, 0
1, 426120, Note_on_c, 0, 71, 25
1, 426240, Tempo, 521739
1, 426240, Note_on_c, 0, 71, 0
1, 426240, Note_on_c, 0, 55, 0
1, 426240, Note_on_c, 0, 84, 52
1, 426240, Note_on_c, 0, 72, 40
1, 426240, Control_c, 0, 64, 0
1, 426360, Note_on_c, 0, 72, 0
1, 426360, Note_on_c, 0, 76, 29
1, 426374, Control_c, 0, 64, 127
1, 426480, Note_on_c, 0, 76, 0
1, 426480, Note_on_c, 0, 64, 29
1, 426600, Note_on_c, 0, 64, 0
1, 426600, Note_on_c, 0, 67, 26
1, 426720, Tempo, 515021
1, 426720, Note_on_c, 0, 67, 0
1, 426720, Note_on_c, 0, 84, 0
1, 426720, Note_on_c, 0, 72, 38
1, 426840, Note_on_c, 0, 72, 0
1, 426840, Note_on_c, 0, 76, 30
1, 426960, Note_on_c, 0, 76, 0
1, 426960, Note_on_c, 0, 64, 30
1, 427080, Note_on_c, 0, 64, 0
1, 427080, Note_on_c, 0, 67, 27
1, 427200, Note_on_c, 0, 67, 0
1, 427200, Note_on_c, 0, 48, 49
1, 427200, Note_on_c, 0, 72, 30
1, 427320, Note_on_c, 0, 72, 0
1, 427320, Note_on_c, 0, 76, 27
1, 427440, Note_on_c, 0, 76, 0
1, 427440, Note_on_c, 0, 64, 27
1, 427560, Note_on_c, 0, 64, 0
1, 427560, Note_on_c, 0, 67, 23
1, 427680, Tempo, 519481
1, 427680, Note_on_c, 0, 67, 0
1, 427680, Note_on_c, 0, 72, 45
1, 427800, Note_on_c, 0, 72, 0
1, 427800, Note_on_c, 0, 76, 32
1, 427920, Note_on_c, 0, 76, 0
1, 427920, Note_on_c, 0, 64, 35
1, 428040, Note_on_c, 0, 64, 0
1, 428040, Note_on_c, 0, 67, 39
1, 428160, Tempo, 521739
1, 428160, Note_on_c, 0, 67, 0
1, 428160, Note_on_c, 0, 48, 0
1, 428160, Note_on_c, 0, 50, 61
1, 428160, Note_on_c, 0, 71, 49
1, 428160, Control_c, 0, 64, 0
1, 428280, Note_on_c, 0, 71, 0
1, 428280, Note_on_c, 0, 77, 36
1, 428294, Control_c, 0, 64, 127
1, 428400, Note_on_c, 0, 77, 0
1, 428400, Note_on_c, 0, 65, 36
1, 428520, Note_on_c, 0, 65, 0
1, 428520, Note_on_c, 0, 67, 33
1, 428640, Tempo, 515021
1, 428640, Note_on_c, 0, 67, 0
1, 428640, Note_on_c, 0, 71, 46
1, 428760, Note_on_c, 0, 71, 0
1, 428760, Note_on_c, 0, 77, 33
1, 428880, Note_on_c, 0, 77, 0
1, 428880, Note_on_c, 0, 65, 31
1, 429000, Note_on_c, 0, 65, 0
1, 429000, Note_on_c, 0, 67, 29
1, 429120, Note_on_c, 0, 67, 0
1, 429120, Note_on_c, 0, 50, 0
1, 429120, Note_on_c, 0, 52, 39
1, 429120, Note_on_c, 0, 70, 37
1, 429131, Control_c, 0, 64, 0
1, 429229, Control_c, 0, 64, 127
1, 429240, Note_on_c, 0, 70, 0
1, 429240, Note_on_c, 0, 72, 27
1, 429360, Note_on_c, 0, 72, 0
1, 429360, Note_on_c, 0, 60, 27
1, 429480, Note_on_c, 0, 60, 0
1, 429480, Note_on_c, 0, 67, 25
1, 429600, Tempo, 519481
1, 429600, Note_on_c, 0, 67, 0
1, 429600, Note_on_c, 0, 70, 37
1, 429720, Note_on_c, 0, 70, 0
1, 429720, Note_on_c, 0, 72, 28
1, 429840, Note_on_c, 0, 72, 0
1, 429840, Note_on_c, 0, 60, 28
1, 429960, Note_on_c, 0, 60, 0
1, 429960, Note_on_c, 0, 67, 27
1, 430080, Key_signature, -1, "major"
1, 430080, Tempo, 515021
1, 430080, Note_on_c, 0, 67, 0
1, 430080, Note_on_c, 0, 52, 0
1, 430080, Note_on_c, 0, 53, 39
1, 430080, Note_on_c, 0, 69, 37
1, 430091, Control_c, 0, 64, 0
1, 430189, Control_c, 0, 64, 127
1, 430200, Note_on_c, 0, 69, 0
1, 430200, Note_on_c, 0, 72, 27
1, 430320, Note_on_c, 0, 72, 0
1, 430320, Note_on_c, 0, 60, 27
1, 430440, Note_on_c, 0, 60, 0
1, 430440, Note_on_c, 0, 65, 24
1, 430560, Tempo, 519481
1, 430560, Note_on_c, 0, 65, 0
1, 430560, Note_on_c, 0, 53, 0
1, 430560, Note_on_c, 0, 69, 37
1, 430569, Tempo, 521739
1, 430645, Tempo, 524017
1, 430680, Note_on_c, 0, 69, 0
1, 430680, Note_on_c, 0, 72, 28
1, 430722, Tempo, 526316
1, 430799, Tempo, 528634
1, 430800, Note_on_c, 0, 72, 0
1, 430800, Note_on_c, 0, 60, 28
1, 430876, Tempo, 530973
1, 430920, Note_on_c, 0, 60, 0
1, 430920, Note_on_c, 0, 65, 23
1, 430953, Tempo, 533333
1, 431010, Tempo, 535714
1, 431040, Note_on_c, 0, 65, 0
1, 431040, Note_on_c, 0, 69, 37
1, 431087, Tempo, 538117
1, 431160, Note_on_c, 0, 69, 0
1, 431160, Note_on_c, 0, 72, 28
1, 431164, Tempo, 540541
1, 431241, Tempo, 542986
1, 431280, Note_on_c, 0, 72, 0
1, 431280, Note_on_c, 0, 60, 28
1, 431317, Tempo, 545455
1, 431394, Tempo, 547945
1, 431400, Note_on_c, 0, 60, 0
1, 431400, Note_on_c, 0, 65, 25
1, 431452, Tempo, 550459
1, 431520, Tempo, 517241
1, 431520, Note_on_c, 0, 65, 0
1, 431520, Note_on_c, 0, 77, 45
1, 431520, Note_on_c, 0, 69, 37
1, 431533, Control_c, 0, 64, 0
1, 431640, Note_on_c, 0, 69, 0
1, 431640, Note_on_c, 0, 72, 29
1, 431640, Control_c, 0, 64, 127
1, 431760, Tempo, 528634
1, 431760, Note_on_c, 0, 72, 0
1, 431760, Note_on_c, 0, 77, 0
1, 431760, Note_on_c, 0, 76, 40
1, 431760, Note_on_c, 0, 79, 48
1, 431760, Note_on_c, 0, 67, 36
1, 431880, Tempo, 638298
1, 431880, Note_on_c, 0, 67, 0
1, 431880, Note_on_c, 0, 72, 39
1, 432000, Tempo, 500000
1, 432000, Note_on_c, 0, 72, 0
1, 432000, Note_on_c, 0, 79, 0
1, 432000, Note_on_c, 0, 76, 0
1, 432000, Note_on_c, 0, 77, 42
1, 432000, Note_on_c, 0, 81, 50
1, 432000, Note_on_c, 0, 69, 47
1, 432000, Control_c, 0, 64, 0
1, 432069, Control_c, 0, 64, 127
1, 432120, Note_on_c, 0, 69, 0
1, 432120, Note_on_c, 0, 72, 36
1, 432240, Note_on_c, 0, 72, 0
1, 432240, Note_on_c, 0, 60, 36
1, 432360, Note_on_c, 0, 60, 0
1, 432360, Note_on_c, 0, 65, 32
1, 432476, Tempo, 500000
1, 432480, Note_on_c, 0, 65, 0
1, 432480, Note_on_c, 0, 81, 0
1, 432480, Note_on_c, 0, 77, 0
1, 432480, Note_on_c, 0, 69, 40
1, 432488, Tempo, 497925
1, 432500, Tempo, 495868
1, 432512, Tempo, 493827
1, 432596, Tempo, 495868
1, 432600, Note_on_c, 0, 69, 0
1, 432600, Note_on_c, 0, 72, 36
1, 432608, Tempo, 502092
1, 432620, Tempo, 504202
1, 432632, Tempo, 506329
1, 432644, Tempo, 508475
1, 432668, Tempo, 502092
1, 432692, Tempo, 500000
1, 432704, Tempo, 497925
1, 432716, Tempo, 495868
1, 432720, Note_on_c, 0, 72, 0
1, 432720, Note_on_c, 0, 60, 36
1, 432800, Tempo, 502092
1, 432840, Note_on_c, 0, 60, 0
1, 432840, Note_on_c, 0, 65, 34
1, 432960, Tempo, 538117
1, 432960, Note_on_c, 0, 65, 0
1, 432960, Note_on_c, 0, 69, 45
1, 433080, Note_on_c, 0, 69, 0
1, 433080, Note_on_c, 0, 72, 35
1, 433200, Tempo, 500000
1, 433200, Note_on_c, 0, 72, 0
1, 433200, Note_on_c, 0, 57, 44
1, 433200, Note_on_c, 0, 60, 37
1, 433200, Note_on_c, 0, 69, 35
1, 433200, Note_on_c, 0, 65, 35
1, 433202, Control_c, 0, 64, 0
1, 433292, Control_c, 0, 64, 127
1, 433320, Note_on_c, 0, 65, 0
1, 433320, Note_on_c, 0, 69, 0
1, 433320, Note_on_c, 0, 72, 31
1, 433424, Tempo, 500000
1, 433436, Tempo, 497925
1, 433440, Note_on_c, 0, 72, 0
1, 433440, Note_on_c, 0, 60, 0
1, 433440, Note_on_c, 0, 57, 0
1, 433440, Note_on_c, 0, 55, 47
1, 433440, Note_on_c, 0, 60, 39
1, 433440, Note_on_c, 0, 64, 44
1, 433440, Note_on_c, 0, 70, 44
1, 433448, Tempo, 495868
1, 433458, Control_c, 0, 64, 0
1, 433472, Tempo, 493827
1, 433484, Tempo, 491803
1, 433532, Control_c, 0, 64, 127
1, 433544, Tempo, 504202
1, 433556, Tempo, 506329
1, 433560, Note_on_c, 0, 70, 0
1, 433560, Note_on_c, 0, 64, 0
1, 433560, Note_on_c, 0, 72, 29
1, 433652, Tempo, 504202
1, 433676, Tempo, 500000
1, 433680, Note_on_c, 0, 72, 0
1, 433680, Note_on_c, 0, 60, 0
1, 433680, Note_on_c, 0, 55, 0
1, 433680, Note_on_c, 0, 60, 42
1, 433680, Note_on_c, 0, 53, 50
1, 433680, Note_on_c, 0, 69, 31
1, 433680, Note_on_c, 0, 65, 31
1, 433687, Control_c, 0, 64, 0
1, 433688, Tempo, 497925
1, 433712, Tempo, 495868
1, 433724, Tempo, 493827
1, 433736, Tempo, 491803
1, 433772, Tempo, 500000
1, 433772, Control_c, 0, 64, 127
1, 433784, Tempo, 502092
1, 433800, Note_on_c, 0, 65, 0
1, 433800, Note_on_c, 0, 69, 0
1, 433800, Note_on_c, 0, 72, 28
1, 433820, Tempo, 497925
1, 433844, Tempo, 495868
1, 433880, Tempo, 497925
1, 433920, Tempo, 500000
1, 433920, Note_on_c, 0, 72, 0
1, 433920, Note_on_c, 0, 53, 0
1, 433920, Note_on_c, 0, 60, 0
1, 433920, Note_on_c, 0, 48, 55
1, 433920, Note_on_c, 0, 60, 39
1, 433920, Note_on_c, 0, 64, 37
1, 433920, Note_on_c, 0, 67, 37
1, 433920, Control_c, 0, 64, 0
1, 433928, Tempo, 497925
1, 434000, Tempo, 495868
1, 434006, Control_c, 0, 64, 127
1, 434040, Note_on_c, 0, 67, 0
1, 434040, Note_on_c, 0, 64, 0
1, 434040, Note_on_c, 0, 72, 29
1, 434096, Tempo, 493827
1, 434132, Tempo, 491803
1, 434156, Tempo, 489796
1, 434160, Note_on_c, 0, 72, 0
1, 434160, Note_on_c, 0, 60, 0
1, 434160, Note_on_c, 0, 48, 0
1, 434160, Note_on_c, 0, 60, 29
1, 434168, Tempo, 487805
1, 434180, Tempo, 491803
1, 434192, Tempo, 506329
1, 434252, Tempo, 502092
1, 434264, Tempo, 500000
1, 434276, Tempo, 495868
1, 434280, Note_on_c, 0, 60, 0
1, 434280, Note_on_c, 0, 64, 25
1, 434288, Tempo, 493827
1, 434336, Tempo, 491803
1, 434400, Note_on_c, 0, 64, 0
1, 434400, Note_on_c, 0, 67, 37
1, 434456, Tempo, 493827
1, 434468, Tempo, 495868
1, 434480, Tempo, 504202
1, 434492, Tempo, 506329
1, 434504, Tempo, 508475
1, 434516, Tempo, 510638
1, 434520, Note_on_c, 0, 67, 0
1, 434520, Note_on_c, 0, 72, 29
1, 434552, Tempo, 506329
1, 434564, Tempo, 502092
1, 434588, Tempo, 500000
1, 434612, Tempo, 497925
1, 434636, Tempo, 495868
1, 434640, Note_on_c, 0, 72, 0
1, 434640, Note_on_c, 0, 60, 29
1, 434660, Tempo, 493827
1, 434672, Tempo, 491803
1, 434732, Tempo, 495868
1, 434744, Tempo, 497925
1, 434756, Tempo, 500000
1, 434760, Note_on_c, 0, 60, 0
1, 434760, Note_on_c, 0, 64, 27
1, 434768, Tempo, 502092
1, 434852, Tempo, 497925
1, 434876, Tempo, 495868
1, 434880, Note_on_c, 0, 64, 0
1, 434880, Note_on_c, 0, 67, 37
1, 434936, Tempo, 493827
1, 434960, Tempo, 495868
1, 435000, Note_on_c, 0, 67, 0
1, 435000, Note_on_c, 0, 72, 29
1, 435120, Tempo, 517241
1, 435120, Note_on_c, 0, 72, 0
1, 435120, Note_on_c, 0, 60, 29
1, 435240, Note_on_c, 0, 60, 0
1, 435240, Note_on_c, 0, 64, 26
1, 435360, Tempo, 504202
1, 435360, Note_on_c, 0, 64, 0
1, 435360, Note_on_c, 0, 79, 54
1, 435360, Note_on_c, 0, 82, 64
1, 435360, Note_on_c, 0, 67, 42
1, 435369, Control_c, 0, 64, 0
1, 435445, Control_c, 0, 64, 127
1, 435480, Note_on_c, 0, 67, 0
1, 435480, Note_on_c, 0, 72, 31
1, 435600, Tempo, 528634
1, 435600, Note_on_c, 0, 72, 0
1, 435600, Note_on_c, 0, 82, 0
1, 435600, Note_on_c, 0, 79, 0
1, 435600, Note_on_c, 0, 82, 51
1, 435600, Note_on_c, 0, 86, 61
1, 435600, Note_on_c, 0, 70, 31
1, 435720, Tempo, 638298
1, 435720, Note_on_c, 0, 70, 0
1, 435720, Note_on_c, 0, 72, 28
1, 435840, Tempo, 500000
1, 435840, Note_on_c, 0, 72, 0
1, 435840, Note_on_c, 0, 86, 0
1, 435840, Note_on_c, 0, 82, 0
1, 435840, Note_on_c, 0, 81, 48
1, 435840, Note_on_c, 0, 84, 57
1, 435840, Note_on_c, 0, 69, 39
1, 435840, Control_c, 0, 64, 0
1, 435848, Tempo, 497925
1, 435908, Tempo, 489796
1, 435909, Control_c, 0, 64, 127
1, 435920, Tempo, 487805
1, 435960, Note_on_c, 0, 69, 0
1, 435960, Note_on_c, 0, 72, 29
1, 436004, Tempo, 491803
1, 436028, Tempo, 493827
1, 436040, Tempo, 495868
1, 436052, Tempo, 497925
1, 436064, Tempo, 506329
1, 436076, Tempo, 508475
1, 436080, Note_on_c, 0, 72, 0
1, 436080, Note_on_c, 0, 60, 29
1, 436136, Tempo, 506329
1, 436160, Tempo, 504202
1, 436196, Tempo, 502092
1, 436200, Note_on_c, 0, 60, 0
1, 436200, Note_on_c, 0, 65, 27
1, 436256, Tempo, 500000
1, 436268, Tempo, 495868
1, 436280, Tempo, 487805
1, 436316, Tempo, 489796
1, 436320, Note_on_c, 0, 65, 0
1, 436320, Note_on_c, 0, 84, 0
1, 436320, Note_on_c, 0, 81, 0
1, 436320, Note_on_c, 0, 69, 42
1, 436352, Tempo, 493827
1, 436364, Tempo, 495868
1, 436400, Tempo, 497925
1, 436440, Note_on_c, 0, 69, 0
1, 436440, Note_on_c, 0, 72, 34
1, 436460, Tempo, 495868
1, 436472, Tempo, 491803
1, 436484, Tempo, 489796
1, 436532, Tempo, 491803
1, 436544, Tempo, 502092
1, 436560, Note_on_c, 0, 72, 0
1, 436560, Note_on_c, 0, 60, 34
1, 436680, Note_on_c, 0, 60, 0
1, 436680, Note_on_c, 0, 65, 30
1, 436688, Tempo, 500000
1, 436724, Tempo, 497925
1, 436736, Tempo, 500000
1, 436800, Tempo, 538117
1, 436800, Note_on_c, 0, 65, 0
1, 436800, Note_on_c, 0, 69, 41
1, 436920, Note_on_c, 0, 69, 0
1, 436920, Note_on_c, 0, 72, 33
1, 437040, Tempo, 500000
1, 437040, Note_on_c, 0, 72, 0
1, 437040, Note_on_c, 0, 60, 33
1, 437160, Note_on_c, 0, 60, 0
1, 437160, Note_on_c, 0, 65, 30
1, 437264, Tempo, 495868
1, 437280, Note_on_c, 0, 65, 0
1, 437280, Note_on_c, 0, 60, 41
1, 437280, Note_on_c, 0, 57, 57
1, 437280, Note_on_c, 0, 69, 37
1, 437280, Note_on_c, 0, 65, 37
1, 437287, Control_c, 0, 64, 0
1, 437300, Tempo, 493827
1, 437312, Tempo, 491803
1, 437324, Tempo, 489796
1, 437336, Tempo, 487805
1, 437348, Tempo, 485830
1, 437358, Control_c, 0, 64, 127
1, 437372, Tempo, 483871
1, 437384, Tempo, 481928
1, 437400, Note_on_c, 0, 65, 0
1, 437400, Note_on_c, 0, 69, 0
1, 437400, Note_on_c, 0, 72, 29
1, 437432, Tempo, 483871
1, 437468, Tempo, 485830
1, 437480, Tempo, 487805
1, 437492, Tempo, 489796
1, 437504, Tempo, 493827
1, 437520, Note_on_c, 0, 72, 0
1, 437520, Note_on_c, 0, 57, 0
1, 437520, Note_on_c, 0, 60, 0
1, 437520, Note_on_c, 0, 55, 47
1, 437520, Note_on_c, 0, 60, 39
1, 437520, Note_on_c, 0, 64, 29
1, 437520, Note_on_c, 0, 70, 29
1, 437528, Tempo, 497925
1, 437536, Control_c, 0, 64, 0
1, 437552, Tempo, 502092
1, 437576, Tempo, 506329
1, 437588, Tempo, 508475
1, 437605, Control_c, 0, 64, 127
1, 437612, Tempo, 506329
1, 437624, Tempo, 504202
1, 437636, Tempo, 502092
1, 437640, Note_on_c, 0, 70, 0
1, 437640, Note_on_c, 0, 64, 0
1, 437652, Note_on_c, 0, 72, 26
1, 437660, Tempo, 500000
1, 437672, Tempo, 497925
1, 437684, Tempo, 493827
1, 437696, Tempo, 491803
1, 437732, Tempo, 489796
1, 437760, Note_on_c, 0, 72, 0
1, 437760, Note_on_c, 0, 60, 0
1, 437760, Note_on_c, 0, 55, 0
1, 437760, Note_on_c, 0, 60, 42
1, 437760, Note_on_c, 0, 53, 50
1, 437760, Note_on_c, 0, 69, 37
1, 437760, Note_on_c, 0, 65, 37
1, 437760, Control_c, 0, 64, 0
1, 437760, Control_c, 0, 64, 0
1, 437816, Tempo, 497925
1, 437828, Tempo, 500000
1, 437840, Tempo, 502092
1, 437846, Control_c, 0, 64, 127
1, 437852, Tempo, 504202
1, 437864, Tempo, 506329
1, 437875, Note_on_c, 0, 72, 29
1, 437880, Note_on_c, 0, 65, 0
1, 437880, Note_on_c, 0, 69, 0
1, 437912, Tempo, 504202
1, 437936, Tempo, 502092
1, 437960, Tempo, 500000
1, 437984, Tempo, 497925
1, 437995, Note_on_c, 0, 72, 0
1, 438000, Note_on_c, 0, 53, 0
1, 438000, Note_on_c, 0, 60, 0
1, 438000, Note_on_c, 0, 60, 29
1, 438008, Tempo, 495868
1, 438020, Tempo, 493827
1, 438044, Tempo, 491803
1, 438068, Tempo, 489796
1, 438120, Note_on_c, 0, 60, 0
1, 438120, Note_on_c, 0, 65, 28
1, 438164, Tempo, 504202
1, 438200, Tempo, 506329
1, 438240, Note_on_c, 0, 65, 0
1, 438240, Note_on_c, 0, 69, 38
1, 438296, Tempo, 502092
1, 438320, Tempo, 497925
1, 438332, Tempo, 495868
1, 438356, Tempo, 493827
1, 438360, Note_on_c, 0, 69, 0
1, 438360, Note_on_c, 0, 72, 30
1, 438392, Tempo, 491803
1, 438428, Tempo, 489796
1, 438480, Note_on_c, 0, 72, 0
1, 438480, Note_on_c, 0, 60, 31
1, 438536, Tempo, 493827
1, 438584, Tempo, 508475
1, 438600, Note_on_c, 0, 60, 0
1, 438600, Note_on_c, 0, 65, 29
1, 438656, Tempo, 506329
1, 438668, Tempo, 504202
1, 438680, Tempo, 502092
1, 438704, Tempo, 500000
1, 438716, Tempo, 497925
1, 438720, Note_on_c, 0, 65, 0
1, 438720, Note_on_c, 0, 69, 40
1, 438812, Tempo, 504202
1, 438824, Tempo, 506329
1, 438840, Note_on_c, 0, 69, 0
1, 438840, Note_on_c, 0, 72, 32
1, 438860, Tempo, 508475
1, 438872, Tempo, 502092
1, 438960, Tempo, 517241
1, 438960, Note_on_c, 0, 72, 0
1, 438960, Note_on_c, 0, 60, 32
1, 439080, Note_on_c, 0, 60, 0
1, 439080, Note_on_c, 0, 65, 29
1, 439200, Tempo, 504202
1, 439200, Note_on_c, 0, 65, 0
1, 439200, Note_on_c, 0, 77, 43
1, 439200, Note_on_c, 0, 81, 51
1, 439200, Note_on_c, 0, 69, 42
1, 439208, Control_c, 0, 64, 0
1, 439320, Note_on_c, 0, 69, 0
1, 439320, Note_on_c, 0, 72, 33
1, 439356, Control_c, 0, 64, 127
1, 439440, Tempo, 528634
1, 439440, Note_on_c, 0, 72, 0
1, 439440, Note_on_c, 0, 81, 0
1, 439440, Note_on_c, 0, 77, 0
1, 439440, Note_on_c, 0, 79, 46
1, 439440, Note_on_c, 0, 82, 55
1, 439440, Note_on_c, 0, 70, 41
1, 439560, Tempo, 638298
1, 439560, Note_on_c, 0, 70, 0
1, 439560, Note_on_c, 0, 72, 44
1, 439680, Tempo, 500000
1, 439680, Note_on_c, 0, 72, 0
1, 439680, Note_on_c, 0, 82, 0
1, 439680, Note_on_c, 0, 79, 0
1, 439680, Note_on_c, 0, 81, 48
1, 439680, Note_on_c, 0, 84, 57
1, 439680, Note_on_c, 0, 69, 54
1, 439680, Control_c, 0, 64, 0
1, 439688, Tempo, 497925
1, 439724, Tempo, 495868
1, 439748, Tempo, 493827
1, 439749, Control_c, 0, 64, 127
1, 439784, Tempo, 491803
1, 439800, Note_on_c, 0, 69, 0
1, 439800, Note_on_c, 0, 72, 41
1, 439844, Tempo, 493827
1, 439856, Tempo, 500000
1, 439868, Tempo, 504202
1, 439920, Note_on_c, 0, 72, 0
1, 439920, Note_on_c, 0, 60, 41
1, 439952, Tempo, 502092
1, 439964, Tempo, 500000
1, 439976, Tempo, 497925
1, 439988, Tempo, 495868
1, 440000, Tempo, 493827
1, 440040, Note_on_c, 0, 60, 0
1, 440040, Note_on_c, 0, 65, 36
1, 440120, Tempo, 497925
1, 440132, Tempo, 502092
1, 440160, Note_on_c, 0, 65, 0
1, 440160, Note_on_c, 0, 84, 0
1, 440160, Note_on_c, 0, 81, 0
1, 440160, Note_on_c, 0, 69, 46
1, 440168, Tempo, 504202
1, 440180, Tempo, 506329
1, 440192, Tempo, 508475
1, 440216, Tempo, 504202
1, 440240, Tempo, 502092
1, 440252, Tempo, 500000
1, 440264, Tempo, 497925
1, 440276, Tempo, 495868
1, 440280, Note_on_c, 0, 69, 0
1, 440280, Note_on_c, 0, 72, 41
1, 440360, Tempo, 504202
1, 440400, Note_on_c, 0, 72, 0
1, 440400, Note_on_c, 0, 60, 41
1, 440444, Tempo, 502092
1, 440456, Tempo, 500000
1, 440480, Tempo, 497925
1, 440492, Tempo, 495868
1, 440520, Note_on_c, 0, 60, 0
1, 440520, Note_on_c, 0, 65, 40
1, 440540, Tempo, 500000
1, 440564, Tempo, 502092
1, 440588, Tempo, 497925
1, 440640, Tempo, 538117
1, 440640, Note_on_c, 0, 65, 0
1, 440640, Note_on_c, 0, 69, 51
1, 440760, Note_on_c, 0, 69, 0
1, 440760, Note_on_c, 0, 72, 44
1, 440880, Tempo, 500000
1, 440880, Note_on_c, 0, 72, 0
1, 440880, Note_on_c, 0, 53, 42
1, 440880, Note_on_c, 0, 60, 50
1, 440880, Note_on_c, 0, 57, 42
1, 440880, Note_on_c, 0, 69, 46
1, 440889, Control_c, 0, 64, 0
1, 440993, Control_c, 0, 64, 127
1, 441000, Note_on_c, 0, 69, 0
1, 441000, Note_on_c, 0, 72, 44
1, 441116, Tempo, 497925
1, 441120, Note_on_c, 0, 72, 0
1, 441120, Note_on_c, 0, 57, 0
1, 441120, Note_on_c, 0, 60, 0
1, 441120, Note_on_c, 0, 62, 51
1, 441120, Note_on_c, 0, 58, 42
1, 441120, Note_on_c, 0, 70, 55
1, 441136, Control_c, 0, 64, 0
1, 441140, Tempo, 495868
1, 441152, Tempo, 493827
1, 441176, Tempo, 491803
1, 441188, Tempo, 489796
1, 441212, Tempo, 487805
1, 441212, Control_c, 0, 64, 127
1, 441240, Note_on_c, 0, 70, 0
1, 441240, Note_on_c, 0, 74, 48
1, 441272, Tempo, 489796
1, 441284, Tempo, 495868
1, 441296, Tempo, 497925
1, 441308, Tempo, 504202
1, 441332, Tempo, 506329
1, 441360, Note_on_c, 0, 74, 0
1, 441360, Note_on_c, 0, 58, 0
1, 441360, Note_on_c, 0, 62, 0
1, 441360, Note_on_c, 0, 55, 45
1, 441360, Note_on_c, 0, 64, 54
1, 441360, Note_on_c, 0, 67, 50
1, 441374, Control_c, 0, 64, 0
1, 441380, Tempo, 502092
1, 441392, Tempo, 495868
1, 441404, Tempo, 493827
1, 441416, Tempo, 491803
1, 441466, Control_c, 0, 64, 127
1, 441480, Note_on_c, 0, 67, 0
1, 441480, Note_on_c, 0, 76, 54
1, 441512, Tempo, 506329
1, 441524, Tempo, 508475
1, 441600, Note_on_c, 0, 76, 0
1, 441600, Note_on_c, 0, 64, 0
1, 441600, Note_on_c, 0, 55, 0
1, 441600, Note_on_c, 0, 65, 44
1, 441600, Note_on_c, 0, 57, 63
1, 441600, Note_on_c, 0, 69, 60
1, 441600, Control_c, 0, 64, 0
1, 441608, Tempo, 495868
1, 441632, Tempo, 493827
1, 441668, Tempo, 491803
1, 441686, Control_c, 0, 64, 127
1, 441720, Note_on_c, 0, 69, 0
1, 441720, Note_on_c, 0, 77, 49
1, 441752, Tempo, 493827
1, 441776, Tempo, 495868
1, 441800, Tempo, 497925
1, 441840, Note_on_c, 0, 77, 0
1, 441840, Note_on_c, 0, 57, 0
1, 441840, Note_on_c, 0, 65, 0
1, 441840, Note_on_c, 0, 53, 0
1, 441840, Note_on_c, 0, 65, 49
1, 441896, Tempo, 502092
1, 441920, Tempo, 506329
1, 441944, Tempo, 510638
1, 441960, Note_on_c, 0, 65, 0
1, 441960, Note_on_c, 0, 69, 46
1, 442016, Tempo, 497925
1, 442028, Tempo, 495868
1, 442040, Tempo, 493827
1, 442064, Tempo, 491803
1, 442080, Note_on_c, 0, 69, 0
1, 442080, Note_on_c, 0, 72, 52
1, 442100, Tempo, 489796
1, 442136, Tempo, 487805
1, 442196, Tempo, 491803
1, 442200, Note_on_c, 0, 72, 0
1, 442200, Note_on_c, 0, 77, 42
1, 442208, Tempo, 508475
1, 442320, Note_on_c, 0, 77, 0
1, 442320, Note_on_c, 0, 65, 42
1, 442412, Tempo, 497925
1, 442424, Tempo, 495868
1, 442436, Tempo, 493827
1, 442440, Note_on_c, 0, 65, 0
1, 442440, Note_on_c, 0, 69, 38
1, 442472, Tempo, 491803
1, 442520, Tempo, 493827
1, 442532, Tempo, 495868
1, 442556, Tempo, 500000
1, 442560, Note_on_c, 0, 69, 0
1, 442560, Note_on_c, 0, 72, 58
1, 442592, Tempo, 504202
1, 442604, Tempo, 506329
1, 442680, Note_on_c, 0, 72, 0
1, 442680, Note_on_c, 0, 77, 45
1, 442736, Tempo, 497925
1, 442748, Tempo, 500000
1, 442800, Tempo, 517241
1, 442800, Note_on_c, 0, 77, 0
1, 442800, Note_on_c, 0, 81, 58
1, 442800, Note_on_c, 0, 89, 69
1, 442800, Note_on_c, 0, 69, 45
1, 442814, Control_c, 0, 64, 0
1, 442864, Control_c, 0, 64, 127
1, 442920, Note_on_c, 0, 69, 0
1, 442920, Note_on_c, 0, 77, 40
1, 443040, Tempo, 504202
1, 443040, Note_on_c, 0, 77, 0
1, 443040, Note_on_c, 0, 89, 0
1, 443040, Note_on_c, 0, 81, 0
1, 443040, Note_on_c, 0, 84, 55
1, 443040, Note_on_c, 0, 88, 65
1, 443040, Note_on_c, 0, 72, 56
1, 443057, Control_c, 0, 64, 0
1, 443111, Control_c, 0, 64, 127
1, 443160, Note_on_c, 0, 72, 0
1, 443160, Note_on_c, 0, 76, 41
1, 443280, Tempo, 528634
1, 443280, Note_on_c, 0, 76, 0
1, 443280, Note_on_c, 0, 88, 0
1, 443280, Note_on_c, 0, 84, 0
1, 443280, Note_on_c, 0, 82, 52
1, 443280, Note_on_c, 0, 86, 63
1, 443280, Note_on_c, 0, 70, 41
1, 443294, Control_c, 0, 64, 0
1, 443386, Control_c, 0, 64, 127
1, 443400, Tempo, 638298
1, 443400, Note_on_c, 0, 70, 0
1, 443400, Note_on_c, 0, 74, 37
1, 443520, Tempo, 500000
1, 443520, Note_on_c, 0, 74, 0
1, 443520, Note_on_c, 0, 86, 0
1, 443520, Note_on_c, 0, 82, 0
1, 443520, Note_on_c, 0, 81, 60
1, 443520, Note_on_c, 0, 84, 61
1, 443520, Note_on_c, 0, 69, 53
1, 443520, Control_c, 0, 64, 0
1, 443589, Control_c, 0, 64, 127
1, 443640, Note_on_c, 0, 69, 0
1, 443640, Note_on_c, 0, 72, 39
1, 443660, Tempo, 500000
1, 443684, Tempo, 497925
1, 443696, Tempo, 495868
1, 443744, Tempo, 493827
1, 443760, Note_on_c, 0, 72, 0
1, 443760, Note_on_c, 0, 60, 39
1, 443816, Tempo, 497925
1, 443828, Tempo, 504202
1, 443880, Note_on_c, 0, 60, 0
1, 443880, Note_on_c, 0, 65, 34
1, 443948, Tempo, 495868
1, 443960, Tempo, 493827
1, 443972, Tempo, 491803
1, 443984, Tempo, 489796
1, 443996, Tempo, 487805
1, 444000, Note_on_c, 0, 65, 0
1, 444000, Note_on_c, 0, 84, 0
1, 444000, Note_on_c, 0, 81, 0
1, 444000, Note_on_c, 0, 69, 46
1, 444080, Tempo, 493827
1, 444092, Tempo, 500000
1, 444104, Tempo, 502092
1, 444116, Tempo, 504202
1, 444120, Note_on_c, 0, 69, 0
1, 444120, Note_on_c, 0, 72, 34
1, 444128, Tempo, 506329
1, 444176, Tempo, 504202
1, 444188, Tempo, 491803
1, 444240, Note_on_c, 0, 72, 0
1, 444240, Note_on_c, 0, 60, 34
1, 444248, Tempo, 493827
1, 444260, Tempo, 495868
1, 444272, Tempo, 500000
1, 444332, Tempo, 495868
1, 444360, Note_on_c, 0, 60, 0
1, 444360, Note_on_c, 0, 65, 31
1, 444480, Tempo, 538117
1, 444480, Note_on_c, 0, 65, 0
1, 444480, Note_on_c, 0, 69, 40
1, 444600, Note_on_c, 0, 69, 0
1, 444600, Note_on_c, 0, 72, 31
1, 444720, Tempo, 517241
1, 444720, Note_on_c, 0, 72, 0
1, 444720, Note_on_c, 0, 60, 48
1, 444720, Note_on_c, 0, 57, 48
1, 444720, Note_on_c, 0, 69, 31
1, 444720, Note_on_c, 0, 65, 31
1, 444734, Control_c, 0, 64, 0
1, 444819, Control_c, 0, 64, 127
1, 444840, Note_on_c, 0, 65, 0
1, 444840, Note_on_c, 0, 69, 0
1, 444840, Note_on_c, 0, 72, 30
1, 444960, Tempo, 504202
1, 444960, Note_on_c, 0, 72, 0
1, 444960, Note_on_c, 0, 57, 0
1, 444960, Note_on_c, 0, 60, 0
1, 444960, Note_on_c, 0, 55, 34
1, 444960, Note_on_c, 0, 58, 41
1, 444960, Note_on_c, 0, 64, 43
1, 444960, Note_on_c, 0, 70, 43
1, 444974, Control_c, 0, 64, 0
1, 445045, Control_c, 0, 64, 127
1, 445080, Note_on_c, 0, 70, 0
1, 445080, Note_on_c, 0, 64, 0
1, 445080, Note_on_c, 0, 72, 35
1, 445200, Tempo, 528634
1, 445200, Note_on_c, 0, 72, 0
1, 445200, Note_on_c, 0, 58, 0
1, 445200, Note_on_c, 0, 55, 0
1, 445200, Note_on_c, 0, 48, 33
1, 445200, Note_on_c, 0, 55, 39
1, 445200, Note_on_c, 0, 67, 35
1, 445200, Note_on_c, 0, 64, 35
1, 445202, Control_c, 0, 64, 0
1, 445306, Control_c, 0, 64, 127
1, 445320, Tempo, 638298
1, 445320, Note_on_c, 0, 64, 0
1, 445320, Note_on_c, 0, 67, 0
1, 445320, Note_on_c, 0, 72, 33
1, 445440, Tempo, 500000
1, 445440, Note_on_c, 0, 72, 0
1, 445440, Note_on_c, 0, 55, 0
1, 445440, Note_on_c, 0, 48, 0
1, 445440, Note_on_c, 0, 57, 48
1, 445440, Note_on_c, 0, 53, 40
1, 445440, Note_on_c, 0, 69, 36
1, 445440, Note_on_c, 0, 65, 36
1, 445440, Control_c, 0, 64, 0
1, 445539, Control_c, 0, 64, 127
1, 445560, Note_on_c, 0, 65, 0
1, 445560, Note_on_c, 0, 69, 0
1, 445560, Note_on_c, 0, 72, 30
1, 445680, Note_on_c, 0, 72, 0
1, 445680, Note_on_c, 0, 53, 0
1, 445680, Note_on_c, 0, 57, 0
1, 445680, Note_on_c, 0, 60, 30
1, 445736, Tempo, 500000
1, 445796, Tempo, 497925
1, 445800, Note_on_c, 0, 60, 0
1, 445800, Note_on_c, 0, 65, 26
1, 445916, Tempo, 495868
1, 445920, Note_on_c, 0, 65, 0
1, 445920, Note_on_c, 0, 69, 30
1, 445928, Tempo, 493827
1, 445976, Tempo, 495868
1, 445988, Tempo, 497925
1, 446000, Tempo, 500000
1, 446012, Tempo, 502092
1, 446024, Tempo, 504202
1, 446040, Note_on_c, 0, 69, 0
1, 446040, Note_on_c, 0, 72, 33
1, 446048, Tempo, 506329
1, 446084, Tempo, 508475
1, 446120, Tempo, 506329
1, 446132, Tempo, 500000
1, 446144, Tempo, 497925
1, 446156, Tempo, 495868
1, 446160, Note_on_c, 0, 72, 0
1, 446160, Note_on_c, 0, 60, 33
1, 446180, Tempo, 497925
1, 446204, Tempo, 500000
1, 446240, Tempo, 506329
1, 446264, Tempo, 508475
1, 446276, Tempo, 510638
1, 446280, Note_on_c, 0, 60, 0
1, 446280, Note_on_c, 0, 65, 33
1, 446312, Tempo, 508475
1, 446324, Tempo, 506329
1, 446336, Tempo, 504202
1, 446348, Tempo, 502092
1, 446360, Tempo, 497925
1, 446400, Tempo, 538117
1, 446400, Note_on_c, 0, 65, 0
1, 446400, Note_on_c, 0, 69, 45
1, 446520, Note_on_c, 0, 69, 0
1, 446520, Note_on_c, 0, 72, 31
1, 446640, Tempo, 517241
1, 446640, Note_on_c, 0, 72, 0
1, 446640, Note_on_c, 0, 60, 31
1, 446760, Note_on_c, 0, 60, 0
1, 446760, Note_on_c, 0, 65, 27
1, 446880, Tempo, 538117
1, 446880, Note_on_c, 0, 65, 0
1, 446880, Note_on_c, 0, 81, 36
1, 446880, Note_on_c, 0, 77, 30
1, 446880, Note_on_c, 0, 69, 25
1, 446896, Control_c, 0, 64, 0
1, 446979, Control_c, 0, 64, 127
1, 447000, Note_on_c, 0, 69, 0
1, 447000, Note_on_c, 0, 72, 19
1, 447120, Tempo, 550459
1, 447120, Note_on_c, 0, 72, 0
1, 447120, Note_on_c, 0, 77, 0
1, 447120, Note_on_c, 0, 81, 0
1, 447120, Note_on_c, 0, 82, 38
1, 447120, Note_on_c, 0, 79, 32
1, 447120, Note_on_c, 0, 70, 24
1, 447240, Tempo, 689655
1, 447240, Note_on_c, 0, 70, 0
1, 447240, Note_on_c, 0, 72, 26
1, 447360, Tempo, 504202
1, 447360, Note_on_c, 0, 72, 0
1, 447360, Note_on_c, 0, 79, 0
1, 447360, Note_on_c, 0, 82, 0
1, 447360, Note_on_c, 0, 81, 34
1, 447360, Note_on_c, 0, 84, 41
1, 447360, Note_on_c, 0, 69, 32
1, 447360, Control_c, 0, 64, 0
1, 447429, Control_c, 0, 64, 127
1, 447480, Note_on_c, 0, 69, 0
1, 447480, Note_on_c, 0, 72, 24
1, 447600, Note_on_c, 0, 72, 0
1, 447600, Note_on_c, 0, 60, 24
1, 447720, Note_on_c, 0, 60, 0
1, 447720, Note_on_c, 0, 65, 24
1, 447764, Tempo, 506329
1, 447800, Tempo, 504202
1, 447836, Tempo, 502092
1, 447840, Note_on_c, 0, 65, 0
1, 447840, Note_on_c, 0, 84, 0
1, 447840, Note_on_c, 0, 81, 0
1, 447840, Note_on_c, 0, 69, 27
1, 447884, Tempo, 500000
1, 447908, Tempo, 497925
1, 447960, Note_on_c, 0, 69, 0
1, 447960, Note_on_c, 0, 72, 24
1, 447968, Tempo, 506329
1, 447980, Tempo, 508475
1, 448064, Tempo, 506329
1, 448080, Note_on_c, 0, 72, 0
1, 448080, Note_on_c, 0, 60, 24
1, 448112, Tempo, 504202
1, 448136, Tempo, 502092
1, 448148, Tempo, 500000
1, 448184, Tempo, 504202
1, 448200, Note_on_c, 0, 60, 0
1, 448200, Note_on_c, 0, 65, 24
1, 448208, Tempo, 508475
1, 448232, Tempo, 502092
1, 448244, Tempo, 500000
1, 448320, Tempo, 550459
1, 448320, Note_on_c, 0, 65, 0
1, 448320, Note_on_c, 0, 69, 30
1, 448440, Note_on_c, 0, 69, 0
1, 448440, Note_on_c, 0, 72, 26
1, 448560, Tempo, 500000
1, 448560, Note_on_c, 0, 72, 0
1, 448560, Note_on_c, 0, 57, 25
1, 448560, Note_on_c, 0, 53, 25
1, 448560, Note_on_c, 0, 60, 30
1, 448560, Note_on_c, 0, 69, 27
1, 448577, Control_c, 0, 64, 0
1, 448652, Control_c, 0, 64, 127
1, 448680, Note_on_c, 0, 69, 0
1, 448680, Note_on_c, 0, 72, 28
1, 448796, Tempo, 510638
1, 448800, Note_on_c, 0, 72, 0
1, 448800, Note_on_c, 0, 60, 0
1, 448800, Note_on_c, 0, 57, 0
1, 448800, Note_on_c, 0, 58, 27
1, 448800, Note_on_c, 0, 62, 32
1, 448800, Note_on_c, 0, 70, 33
1, 448816, Control_c, 0, 64, 0
1, 448899, Control_c, 0, 64, 127
1, 448920, Note_on_c, 0, 70, 0
1, 448920, Note_on_c, 0, 74, 28
1, 449040, Note_on_c, 0, 74, 0
1, 449040, Note_on_c, 0, 62, 0
1, 449040, Note_on_c, 0, 58, 0
1, 449040, Note_on_c, 0, 64, 34
1, 449040, Note_on_c, 0, 55, 28
1, 449040, Note_on_c, 0, 67, 30
1, 449058, Control_c, 0, 64, 0
1, 449139, Control_c, 0, 64, 127
1, 449160, Note_on_c, 0, 67, 0
1, 449160, Note_on_c, 0, 76, 32
1, 449280, Tempo, 500000
1, 449280, Note_on_c, 0, 76, 0
1, 449280, Note_on_c, 0, 55, 0
1, 449280, Note_on_c, 0, 64, 0
1, 449280, Note_on_c, 0, 65, 44
1, 449280, Note_on_c, 0, 57, 37
1, 449280, Note_on_c, 0, 69, 36
1, 449280, Control_c, 0, 64, 0
1, 449366, Control_c, 0, 64, 127
1, 449400, Note_on_c, 0, 69, 0
1, 449400, Note_on_c, 0, 77, 29
1, 449520, Note_on_c, 0, 77, 0
1, 449520, Note_on_c, 0, 57, 0
1, 449520, Note_on_c, 0, 65, 0
1, 449520, Note_on_c, 0, 53, 0
1, 449520, Note_on_c, 0, 65, 29
1, 449640, Note_on_c, 0, 65, 0
1, 449640, Note_on_c, 0, 69, 27
1, 449760, Note_on_c, 0, 69, 0
1, 449760, Note_on_c, 0, 72, 31
1, 449880, Note_on_c, 0, 72, 0
1, 449880, Note_on_c, 0, 77, 25
1, 450000, Note_on_c, 0, 77, 0
1, 450000, Note_on_c, 0, 65, 25
1, 450120, Note_on_c, 0, 65, 0
1, 450120, Note_on_c, 0, 69, 25
1, 450240, Tempo, 533333
1, 450240, Note_on_c, 0, 69, 0
1, 450240, Note_on_c, 0, 72, 34
1, 450248, Tempo, 550459
1, 450360, Note_on_c, 0, 72, 0
1, 450360, Note_on_c, 0, 77, 24
1, 450476, Tempo, 530973
1, 450480, Tempo, 530973
1, 450480, Note_on_c, 0, 77, 0
1, 450480, Note_on_c, 0, 81, 35
1, 450480, Note_on_c, 0, 89, 42
1, 450480, Note_on_c, 0, 69, 24
1, 450494, Control_c, 0, 64, 0
1, 450565, Control_c, 0, 64, 127
1, 450600, Note_on_c, 0, 69, 0
1, 450600, Note_on_c, 0, 77, 21
1, 450720, Tempo, 517241
1, 450720, Note_on_c, 0, 77, 0
1, 450720, Note_on_c, 0, 89, 0
1, 450720, Note_on_c, 0, 81, 0
1, 450720, Note_on_c, 0, 88, 39
1, 450720, Note_on_c, 0, 84, 33
1, 450720, Note_on_c, 0, 72, 33
1, 450738, Control_c, 0, 64, 0
1, 450826, Control_c, 0, 64, 127
1, 450840, Note_on_c, 0, 72, 0
1, 450840, Note_on_c, 0, 76, 24
1, 450960, Tempo, 528634
1, 450960, Note_on_c, 0, 76, 0
1, 450960, Note_on_c, 0, 84, 0
1, 450960, Note_on_c, 0, 88, 0
1, 450960, Note_on_c, 0, 82, 30
1, 450960, Note_on_c, 0, 86, 36
1, 450960, Note_on_c, 0, 70, 24
1, 450969, Control_c, 0, 64, 0
1, 451052, Control_c, 0, 64, 127
1, 451080, Tempo, 638298
1, 451080, Note_on_c, 0, 70, 0
1, 451080, Note_on_c, 0, 74, 23
1, 451200, Tempo, 508475
1, 451200, Note_on_c, 0, 74, 0
1, 451200, Note_on_c, 0, 86, 0
1, 451200, Note_on_c, 0, 82, 0
1, 451200, Note_on_c, 0, 84, 42
1, 451200, Note_on_c, 0, 81, 35
1, 451200, Note_on_c, 0, 69, 31
1, 451200, Control_c, 0, 64, 0
1, 451269, Control_c, 0, 64, 127
1, 451320, Note_on_c, 0, 69, 0
1, 451320, Note_on_c, 0, 72, 24
1, 451440, Note_on_c, 0, 72, 0
1, 451440, Note_on_c, 0, 60, 24
1, 451560, Note_on_c, 0, 60, 0
1, 451560, Note_on_c, 0, 65, 24
1, 451680, Tempo, 517241
1, 451680, Note_on_c, 0, 65, 0
1, 451680, Note_on_c, 0, 81, 0
1, 451680, Note_on_c, 0, 84, 0
1, 451680, Note_on_c, 0, 69, 28
1, 451800, Note_on_c, 0, 69, 0
1, 451800, Note_on_c, 0, 72, 22
1, 451920, Note_on_c, 0, 72, 0
1, 451920, Note_on_c, 0, 60, 22
1, 452040, Note_on_c, 0, 60, 0
1, 452040, Note_on_c, 0, 65, 22
1, 452160, Tempo, 550459
1, 452160, Note_on_c, 0, 65, 0
1, 452160, Note_on_c, 0, 69, 27
1, 452280, Note_on_c, 0, 69, 0
1, 452280, Note_on_c, 0, 72, 21
1, 452400, Tempo, 533333
1, 452400, Note_on_c, 0, 72, 0
1, 452400, Note_on_c, 0, 57, 37
1, 452400, Note_on_c, 0, 60, 37
1, 452400, Note_on_c, 0, 69, 21
1, 452400, Note_on_c, 0, 65, 21
1, 452418, Control_c, 0, 64, 0
1, 452485, Control_c, 0, 64, 127
1, 452520, Note_on_c, 0, 65, 0
1, 452520, Note_on_c, 0, 69, 0
1, 452520, Note_on_c, 0, 72, 21
1, 452640, Tempo, 515021
1, 452640, Note_on_c, 0, 72, 0
1, 452640, Note_on_c, 0, 60, 0
1, 452640, Note_on_c, 0, 57, 0
1, 452640, Note_on_c, 0, 55, 28
1, 452640, Note_on_c, 0, 58, 33
1, 452640, Note_on_c, 0, 70, 33
1, 452640, Note_on_c, 0, 64, 33
1, 452658, Control_c, 0, 64, 0
1, 452753, Control_c, 0, 64, 127
1, 452760, Note_on_c, 0, 64, 0
1, 452760, Note_on_c, 0, 70, 0
1, 452760, Note_on_c, 0, 72, 24
1, 452880, Tempo, 528634
1, 452880, Note_on_c, 0, 72, 0
1, 452880, Note_on_c, 0, 58, 0
1, 452880, Note_on_c, 0, 55, 0
1, 452880, Note_on_c, 0, 48, 28
1, 452880, Note_on_c, 0, 55, 33
1, 452880, Note_on_c, 0, 64, 24
1, 452880, Note_on_c, 0, 67, 24
1, 452886, Control_c, 0, 64, 0
1, 452972, Control_c, 0, 64, 127
1, 453000, Tempo, 638298
1, 453000, Note_on_c, 0, 67, 0
1, 453000, Note_on_c, 0, 64, 0
1, 453000, Note_on_c, 0, 72, 22
1, 453120, Tempo, 508475
1, 453120, Note_on_c, 0, 72, 0
1, 453120, Note_on_c, 0, 55, 0
1, 453120, Note_on_c, 0, 48, 0
1, 453120, Note_on_c, 0, 53, 31
1, 453120, Note_on_c, 0, 57, 37
1, 453120, Note_on_c, 0, 65, 31
1, 453120, Note_on_c, 0, 69, 31
1, 453120, Control_c, 0, 64, 0
1, 453197, Control_c, 0, 64, 127
1, 453240, Tempo, 506329
1, 453240, Note_on_c, 0, 69, 0
1, 453240, Note_on_c, 0, 65, 0
1, 453240, Note_on_c, 0, 72, 25
1, 453360, Tempo, 502092
1, 453360, Note_on_c, 0, 72, 0
1, 453360, Note_on_c, 0, 57, 0
1, 453360, Note_on_c, 0, 53, 0
1, 453360, Note_on_c, 0, 60, 25
1, 453480, Tempo, 510638
1, 453480, Note_on_c, 0, 60, 0
1, 453480, Note_on_c, 0, 65, 24
1, 453600, Tempo, 508475
1, 453600, Note_on_c, 0, 65, 0
1, 453600, Note_on_c, 0, 69, 28
1, 453720, Tempo, 502092
1, 453720, Note_on_c, 0, 69, 0
1, 453720, Note_on_c, 0, 72, 22
1, 453840, Tempo, 495868
1, 453840, Note_on_c, 0, 72, 0
1, 453840, Note_on_c, 0, 60, 22
1, 453960, Tempo, 500000
1, 453960, Note_on_c, 0, 60, 0
1, 453960, Note_on_c, 0, 65, 22
1, 454080, Tempo, 538117
1, 454080, Note_on_c, 0, 65, 0
1, 454080, Note_on_c, 0, 69, 27
1, 454200, Note_on_c, 0, 69, 0
1, 454200, Note_on_c, 0, 72, 21
1, 454320, Tempo, 538117
1, 454320, Note_on_c, 0, 72, 0
1, 454320, Note_on_c, 0, 60, 37
1, 454320, Note_on_c, 0, 57, 37
1, 454320, Note_on_c, 0, 65, 21
1, 454320, Note_on_c, 0, 69, 21
1, 454336, Control_c, 0, 64, 0
1, 454419, Control_c, 0, 64, 127
1, 454440, Note_on_c, 0, 69, 0
1, 454440, Note_on_c, 0, 65, 0
1, 454440, Note_on_c, 0, 72, 21
1, 454560, Tempo, 519481
1, 454560, Note_on_c, 0, 72, 0
1, 454560, Note_on_c, 0, 57, 0
1, 454560, Note_on_c, 0, 60, 0
1, 454560, Note_on_c, 0, 55, 28
1, 454560, Note_on_c, 0, 58, 33
1, 454560, Note_on_c, 0, 70, 33
1, 454560, Note_on_c, 0, 64, 33
1, 454574, Control_c, 0, 64, 0
1, 454666, Control_c, 0, 64, 127
1, 454680, Note_on_c, 0, 64, 0
1, 454680, Note_on_c, 0, 70, 0
1, 454680, Note_on_c, 0, 72, 24
1, 454800, Tempo, 547945
1, 454800, Note_on_c, 0, 72, 0
1, 454800, Note_on_c, 0, 58, 0
1, 454800, Note_on_c, 0, 55, 0
1, 454800, Note_on_c, 0, 55, 33
1, 454800, Note_on_c, 0, 48, 28
1, 454800, Note_on_c, 0, 67, 24
1, 454800, Note_on_c, 0, 64, 24
1, 454813, Control_c, 0, 64, 0
1, 454906, Control_c, 0, 64, 127
1, 454920, Tempo, 638298
1, 454920, Note_on_c, 0, 64, 0
1, 454920, Note_on_c, 0, 67, 0
1, 454920, Note_on_c, 0, 72, 23
1, 455040, Tempo, 502092
1, 455040, Note_on_c, 0, 72, 0
1, 455040, Note_on_c, 0, 48, 0
1, 455040, Note_on_c, 0, 55, 0
1, 455040, Note_on_c, 0, 57, 37
1, 455040, Note_on_c, 0, 53, 31
1, 455040, Note_on_c, 0, 69, 31
1, 455040, Note_on_c, 0, 65, 31
1, 455040, Control_c, 0, 64, 0
1, 455123, Control_c, 0, 64, 127
1, 455160, Tempo, 500000
1, 455160, Note_on_c, 0, 65, 0
1, 455160, Note_on_c, 0, 69, 0
1, 455160, Note_on_c, 0, 72, 24
1, 455280, Tempo, 504202
1, 455280, Note_on_c, 0, 72, 0
1, 455280, Note_on_c, 0, 53, 0
1, 455280, Note_on_c, 0, 57, 0
1, 455280, Note_on_c, 0, 60, 24
1, 455400, Tempo, 500000
1, 455400, Note_on_c, 0, 60, 0
1, 455400, Note_on_c, 0, 65, 25
1, 455520, Tempo, 500000
1, 455520, Note_on_c, 0, 65, 0
1, 455520, Note_on_c, 0, 69, 26
1, 455640, Tempo, 506329
1, 455640, Note_on_c, 0, 69, 0
1, 455640, Note_on_c, 0, 72, 20
1, 455760, Tempo, 504202
1, 455760, Note_on_c, 0, 72, 0
1, 455760, Note_on_c, 0, 60, 20
1, 455880, Tempo, 506329
1, 455880, Note_on_c, 0, 60, 0
1, 455880, Note_on_c, 0, 65, 20
1, 456000, Tempo, 521739
1, 456000, Note_on_c, 0, 65, 0
1, 456000, Note_on_c, 0, 69, 24
1, 456120, Note_on_c, 0, 69, 0
1, 456120, Note_on_c, 0, 72, 18
1, 456240, Tempo, 530973
1, 456240, Note_on_c, 0, 72, 0
1, 456240, Note_on_c, 0, 60, 32
1, 456240, Note_on_c, 0, 57, 32
1, 456240, Note_on_c, 0, 65, 18
1, 456240, Note_on_c, 0, 69, 18
1, 456244, Control_c, 0, 64, 0
1, 456360, Note_on_c, 0, 69, 0
1, 456360, Note_on_c, 0, 65, 0
1, 456360, Note_on_c, 0, 72, 18
1, 456396, Control_c, 0, 64, 127
1, 456480, Tempo, 517241
1, 456480, Note_on_c, 0, 72, 0
1, 456480, Note_on_c, 0, 57, 0
1, 456480, Note_on_c, 0, 60, 0
1, 456480, Note_on_c, 0, 58, 28
1, 456480, Note_on_c, 0, 55, 23
1, 456480, Note_on_c, 0, 70, 28
1, 456480, Note_on_c, 0, 64, 28
1, 456497, Control_c, 0, 64, 0
1, 456565, Control_c, 0, 64, 127
1, 456600, Note_on_c, 0, 64, 0
1, 456600, Note_on_c, 0, 70, 0
1, 456600, Note_on_c, 0, 72, 20
1, 456720, Tempo, 533333
1, 456720, Note_on_c, 0, 72, 0
1, 456720, Note_on_c, 0, 55, 0
1, 456720, Note_on_c, 0, 58, 0
1, 456720, Note_on_c, 0, 48, 23
1, 456720, Note_on_c, 0, 55, 27
1, 456720, Note_on_c, 0, 67, 19
1, 456720, Note_on_c, 0, 64, 19
1, 456728, Control_c, 0, 64, 0
1, 456840, Tempo, 638298
1, 456840, Note_on_c, 0, 64, 0
1, 456840, Note_on_c, 0, 67, 0
1, 456840, Note_on_c, 0, 72, 19
1, 456840, Control_c, 0, 64, 127
1, 456960, Tempo, 504202
1, 456960, Note_on_c, 0, 72, 0
1, 456960, Note_on_c, 0, 55, 0
1, 456960, Note_on_c, 0, 48, 0
1, 456960, Note_on_c, 0, 45, 24
1, 456960, Note_on_c, 0, 41, 24
1, 456960, Note_on_c, 0, 53, 29
1, 456960, Note_on_c, 0, 65, 30
1, 456960, Control_c, 0, 64, 0
1, 457039, Control_c, 0, 64, 127
1, 457080, Note_on_c, 0, 65, 0
1, 457080, Note_on_c, 0, 69, 22
1, 457200, Note_on_c, 0, 69, 0
1, 457200, Note_on_c, 0, 53, 0
1, 457200, Note_on_c, 0, 41, 0
1, 457200, Note_on_c, 0, 45, 0
1, 457200, Note_on_c, 0, 57, 22
1, 457320, Note_on_c, 0, 57, 0
1, 457320, Note_on_c, 0, 60, 20
1, 457440, Note_on_c, 0, 60, 0
1, 457440, Note_on_c, 0, 65, 33
1, 457560, Note_on_c, 0, 65, 0
1, 457560, Note_on_c, 0, 69, 25
1, 457680, Note_on_c, 0, 69, 0
1, 457680, Note_on_c, 0, 57, 25
1, 457800, Tempo, 533333
1, 457800, Note_on_c, 0, 57, 0
1, 457800, Note_on_c, 0, 60, 24
1, 457920, Tempo, 508475
1, 457920, Note_on_c, 0, 60, 0
1, 457920, Note_on_c, 0, 65, 37
1, 458040, Note_on_c, 0, 65, 0
1, 458040, Note_on_c, 0, 69, 26
1, 458160, Note_on_c, 0, 69, 0
1, 458160, Note_on_c, 0, 57, 26
1, 458280, Note_on_c, 0, 57, 0
1, 458280, Note_on_c, 0, 60, 25
1, 458400, Note_on_c, 0, 60, 0
1, 458400, Note_on_c, 0, 65, 36
1, 458520, Note_on_c, 0, 65, 0
1, 458520, Note_on_c, 0, 69, 27
1, 458640, Note_on_c, 0, 69, 0
1, 458640, Note_on_c, 0, 57, 28
1, 458760, Tempo, 528634
1, 458760, Note_on_c, 0, 57, 0
1, 458760, Note_on_c, 0, 60, 28
1, 458880, Tempo, 487805
1, 458880, Note_on_c, 0, 60, 0
1, 458880, Note_on_c, 0, 65, 47
1, 458894, Control_c, 0, 64, 0
1, 459000, Note_on_c, 0, 65, 0
1, 459000, Note_on_c, 0, 68, 39
1, 459000, Control_c, 0, 64, 127
1, 459120, Note_on_c, 0, 68, 0
1, 459120, Note_on_c, 0, 56, 39
1, 459120, Note_on_c, 0, 40, 39
1, 459240, Note_on_c, 0, 56, 0
1, 459240, Note_on_c, 0, 60, 43
1, 459360, Note_on_c, 0, 60, 0
1, 459360, Note_on_c, 0, 40, 0
1, 459360, Note_on_c, 0, 65, 54
1, 459360, Note_on_c, 0, 41, 40
1, 459480, Note_on_c, 0, 65, 0
1, 459480, Note_on_c, 0, 68, 45
1, 459600, Note_on_c, 0, 68, 0
1, 459600, Note_on_c, 0, 41, 0
1, 459600, Note_on_c, 0, 56, 45
1, 459600, Note_on_c, 0, 44, 42
1, 459720, Note_on_c, 0, 56, 0
1, 459720, Note_on_c, 0, 60, 48
1, 459840, Tempo, 500000
1, 459840, Note_on_c, 0, 60, 0
1, 459840, Note_on_c, 0, 44, 0
1, 459840, Note_on_c, 0, 65, 64
1, 459840, Note_on_c, 0, 47, 43
1, 459844, Tempo, 510638
1, 459960, Note_on_c, 0, 65, 0
1, 459960, Note_on_c, 0, 68, 50
1, 460080, Note_on_c, 0, 68, 0
1, 460080, Note_on_c, 0, 47, 0
1, 460080, Note_on_c, 0, 56, 52
1, 460080, Note_on_c, 0, 48, 44
1, 460200, Note_on_c, 0, 56, 0
1, 460200, Note_on_c, 0, 60, 55
1, 460305, Tempo, 517241
1, 460320, Note_on_c, 0, 60, 0
1, 460320, Note_on_c, 0, 48, 0
1, 460320, Note_on_c, 0, 68, 69
1, 460320, Note_on_c, 0, 53, 46
1, 460343, Tempo, 519481
1, 460382, Tempo, 521739
1, 460420, Tempo, 524017
1, 460440, Note_on_c, 0, 68, 0
1, 460440, Note_on_c, 0, 72, 59
1, 460458, Tempo, 526316
1, 460497, Tempo, 528634
1, 460535, Tempo, 530973
1, 460554, Tempo, 533333
1, 460560, Note_on_c, 0, 72, 0
1, 460560, Note_on_c, 0, 53, 0
1, 460560, Note_on_c, 0, 60, 61
1, 460560, Note_on_c, 0, 55, 47
1, 460593, Tempo, 535714
1, 460631, Tempo, 538117
1, 460670, Tempo, 540541
1, 460680, Note_on_c, 0, 60, 0
1, 460680, Note_on_c, 0, 65, 63
1, 460708, Tempo, 542986
1, 460746, Tempo, 545455
1, 460785, Tempo, 547945
1, 460800, Key_signature, -4, "major"
1, 460800, Tempo, 1237113
1, 460800, Note_on_c, 0, 65, 0
1, 460800, Note_on_c, 0, 55, 0
1, 460800, Note_on_c, 0, 60, 55
1, 460800, Note_on_c, 0, 56, 51
1, 460800, Note_on_c, 0, 48, 51
1, 460800, Note_on_c, 0, 41, 43
1, 460800, Control_c, 0, 64, 0
1, 460840, Note_on_c, 0, 60, 0
1, 460840, Note_on_c, 0, 65, 60
1, 460880, Note_on_c, 0, 65, 0
1, 460880, Note_on_c, 0, 68, 66
1, 460881, Control_c, 0, 64, 127
1, 460920, Tempo, 547945
1, 460920, Note_on_c, 0, 68, 0
1, 460920, Note_on_c, 0, 72, 77
1, 461640, Tempo, 594059
1, 461640, Note_on_c, 0, 72, 0
1, 461640, Note_on_c, 0, 70, 47
1, 461760, Tempo, 538117
1, 461760, Note_on_c, 0, 70, 0
1, 461760, Note_on_c, 0, 68, 60
1, 461767, Control_c, 0, 64, 0
1, 461845, Control_c, 0, 64, 127
1, 461880, Tempo, 504202
1, 462000, Tempo, 508475
1, 462120, Tempo, 530973
1, 462120, Note_on_c, 0, 68, 0
1, 462120, Note_on_c, 0, 70, 54
1, 462240, Tempo, 517241
1, 462240, Note_on_c, 0, 70, 0
1, 462240, Note_on_c, 0, 56, 0
1, 462240, Note_on_c, 0, 67, 60
1, 462240, Note_on_c, 0, 52, 43
1, 462240, Note_on_c, 0, 43, 36
1, 462254, Control_c, 0, 64, 0
1, 462353, Control_c, 0, 64, 127
1, 462360, Tempo, 502092
1, 462600, Tempo, 533333
1, 462600, Note_on_c, 0, 67, 0
1, 462600, Note_on_c, 0, 68, 51
1, 462720, Tempo, 530973
1, 462720, Note_on_c, 0, 68, 0
1, 462720, Note_on_c, 0, 43, 0
1, 462720, Note_on_c, 0, 52, 0
1, 462720, Note_on_c, 0, 48, 0
1, 462720, Note_on_c, 0, 65, 60
1, 462720, Note_on_c, 0, 44, 43
1, 462720, Note_on_c, 0, 53, 43
1, 462730, Control_c, 0, 64, 0
1, 462775, Control_c, 0, 64, 127
1, 462840, Tempo, 508475
1, 462840, Note_on_c, 0, 65, 0
1, 462840, Note_on_c, 0, 67, 48
1, 462900, Note_on_c, 0, 67, 0
1, 462900, Note_on_c, 0, 65, 48
1, 462960, Note_on_c, 0, 65, 0
1, 462960, Note_on_c, 0, 64, 48
1, 463020, Note_on_c, 0, 64, 0
1, 463020, Note_on_c, 0, 65, 45
1, 463080, Tempo, 530973
1, 463080, Note_on_c, 0, 65, 0
1, 463080, Note_on_c, 0, 66, 45
1, 463200, Tempo, 528634
1, 463200, Note_on_c, 0, 66, 0
1, 463200, Note_on_c, 0, 44, 0
1, 463200, Note_on_c, 0, 63, 62
1, 463200, Note_on_c, 0, 45, 39
1, 463212, Control_c, 0, 64, 0
1, 463286, Control_c, 0, 64, 127
1, 463320, Tempo, 508475
1, 463320, Note_on_c, 0, 63, 0
1, 463320, Note_on_c, 0, 65, 49
1, 463380, Note_on_c, 0, 65, 0
1, 463380, Note_on_c, 0, 63, 49
1, 463440, Note_on_c, 0, 63, 0
1, 463440, Note_on_c, 0, 62, 49
1, 463500, Note_on_c, 0, 62, 0
1, 463500, Note_on_c, 0, 63, 44
1, 463560, Tempo, 530973
1, 463560, Note_on_c, 0, 63, 0
1, 463560, Note_on_c, 0, 65, 47
1, 463680, Tempo, 535714
1, 463680, Note_on_c, 0, 65, 0
1, 463680, Note_on_c, 0, 45, 0
1, 463680, Note_on_c, 0, 61, 60
1, 463680, Note_on_c, 0, 43, 43
1, 463690, Control_c, 0, 64, 0
1, 463743, Control_c, 0, 64, 127
1, 463800, Tempo, 510638
1, 463800, Note_on_c, 0, 61, 0
1, 463800, Note_on_c, 0, 63, 49
1, 463860, Note_on_c, 0, 63, 0
1, 463860, Note_on_c, 0, 61, 49
1, 463920, Note_on_c, 0, 61, 0
1, 463920, Note_on_c, 0, 60, 49
1, 463980, Note_on_c, 0, 60, 0
1, 463980, Note_on_c, 0, 61, 46
1, 464040, Tempo, 535714
1, 464040, Note_on_c, 0, 61, 0
1, 464040, Note_on_c, 0, 63, 46
1, 464160, Tempo, 530973
1, 464160, Note_on_c, 0, 63, 0
1, 464160, Note_on_c, 0, 43, 0
1, 464160, Note_on_c, 0, 60, 60
1, 464160, Note_on_c, 0, 45, 40
1, 464174, Control_c, 0, 64, 0
1, 464217, Control_c, 0, 64, 127
1, 464280, Tempo, 512821
1, 464280, Note_on_c, 0, 60, 0
1, 464280, Note_on_c, 0, 61, 50
1, 464340, Note_on_c, 0, 61, 0
1, 464340, Note_on_c, 0, 60, 50
1, 464400, Note_on_c, 0, 60, 0
1, 464400, Note_on_c, 0, 59, 50
1, 464460, Note_on_c, 0, 59, 0
1, 464460, Note_on_c, 0, 60, 46
1, 464520, Tempo, 535714
1, 464520, Note_on_c, 0, 60, 0
1, 464520, Note_on_c, 0, 61, 46
1, 464640, Tempo, 495868
1, 464640, Note_on_c, 0, 61, 0
1, 464640, Note_on_c, 0, 45, 0
1, 464640, Note_on_c, 0, 58, 60
1, 464640, Note_on_c, 0, 49, 44
1, 464647, Control_c, 0, 64, 0
1, 464737, Control_c, 0, 64, 127
1, 464760, Tempo, 517241
1, 464760, Note_on_c, 0, 58, 0
1, 464760, Note_on_c, 0, 61, 52
1, 464880, Tempo, 495868
1, 464880, Note_on_c, 0, 61, 0
1, 464880, Note_on_c, 0, 49, 0
1, 464880, Note_on_c, 0, 41, 0
1, 464880, Note_on_c, 0, 53, 0
1, 464880, Note_on_c, 0, 58, 52
1, 464880, Note_on_c, 0, 49, 32
1, 464880, Note_on_c, 0, 53, 37
1, 465000, Tempo, 517241
1, 465000, Note_on_c, 0, 53, 0
1, 465000, Note_on_c, 0, 49, 0
1, 465000, Note_on_c, 0, 58, 0
1, 465000, Note_on_c, 0, 61, 53
1, 465120, Tempo, 495868
1, 465120, Note_on_c, 0, 61, 0
1, 465120, Note_on_c, 0, 56, 63
1, 465120, Note_on_c, 0, 48, 32
1, 465120, Note_on_c, 0, 51, 41
1, 465133, Control_c, 0, 64, 0
1, 465240, Tempo, 517241
1, 465240, Note_on_c, 0, 51, 0
1, 465240, Note_on_c, 0, 48, 0
1, 465240, Note_on_c, 0, 56, 0
1, 465240, Note_on_c, 0, 61, 56
1, 465240, Control_c, 0, 64, 127
1, 465360, Tempo, 500000
1, 465360, Note_on_c, 0, 61, 0
1, 465360, Note_on_c, 0, 56, 57
1, 465360, Note_on_c, 0, 48, 36
1, 465360, Note_on_c, 0, 51, 44
1, 465480, Tempo, 519481
1, 465480, Note_on_c, 0, 51, 0
1, 465480, Note_on_c, 0, 48, 0
1, 465480, Note_on_c, 0, 56, 0
1, 465480, Note_on_c, 0, 61, 60
1, 465600, Tempo, 506329
1, 465600, Note_on_c, 0, 61, 0
1, 465600, Note_on_c, 0, 54, 68
1, 465600, Note_on_c, 0, 49, 47
1, 465600, Note_on_c, 0, 46, 39
1, 465614, Control_c, 0, 64, 0
1, 465715, Control_c, 0, 64, 127
1, 465720, Tempo, 530973
1, 465720, Note_on_c, 0, 46, 0
1, 465720, Note_on_c, 0, 49, 0
1, 465720, Note_on_c, 0, 54, 0
1, 465720, Note_on_c, 0, 61, 62
1, 465840, Tempo, 515021
1, 465840, Note_on_c, 0, 61, 0
1, 465840, Note_on_c, 0, 54, 63
1, 465840, Note_on_c, 0, 46, 43
1, 465840, Note_on_c, 0, 49, 51
1, 465960, Tempo, 538117
1, 465960, Note_on_c, 0, 49, 0
1, 465960, Note_on_c, 0, 46, 0
1, 465960, Note_on_c, 0, 54, 0
1, 465960, Note_on_c, 0, 61, 59
1, 466080, Tempo, 568720
1, 466080, Note_on_c, 0, 61, 0
1, 466080, Note_on_c, 0, 53, 72
1, 466080, Note_on_c, 0, 44, 46
1, 466080, Note_on_c, 0, 48, 55
1, 466094, Control_c, 0, 64, 0
1, 466183, Control_c, 0, 64, 127
1, 466200, Note_on_c, 0, 48, 0
1, 466200, Note_on_c, 0, 44, 0
1, 466200, Note_on_c, 0, 53, 0
1, 466200, Note_on_c, 0, 61, 65
1, 466320, Note_on_c, 0, 61, 0
1, 466320, Note_on_c, 0, 53, 67
1, 466320, Note_on_c, 0, 48, 60
1, 466320, Note_on_c, 0, 44, 49
1, 466440, Note_on_c, 0, 44, 0
1, 466440, Note_on_c, 0, 48, 0
1, 466440, Note_on_c, 0, 53, 0
1, 466440, Note_on_c, 0, 61, 67
1, 466560, Tempo, 597015
1, 466560, Note_on_c, 0, 61, 0
1, 466560, Note_on_c, 0, 52, 90
1, 466560, Note_on_c, 0, 43, 54
1, 466560, Note_on_c, 0, 46, 64
1, 466560, Control_c, 0, 64, 0
1, 466630, Control_c, 0, 64, 127
1, 466784, Control_c, 0, 64, 0
1, 466800, Note_on_c, 0, 46, 0
1, 466800, Note_on_c, 0, 43, 0
1, 466800, Note_on_c, 0, 52, 0
1, 467040, Note_on_c, 0, 67, 75
1, 467040, Note_on_c, 0, 70, 75
1, 467040, Note_on_c, 0, 73, 90
1, 467040, Note_on_c, 0, 52, 55
1, 467040, Note_on_c, 0, 58, 55
1, 467040, Note_on_c, 0, 61, 65
1, 467040, Note_on_c, 0, 55, 55
1, 467078, Control_c, 0, 64, 127
1, 467280, Note_on_c, 0, 55, 0
1, 467280, Note_on_c, 0, 58, 0
1, 467280, Note_on_c, 0, 70, 0
1, 467280, Note_on_c, 0, 73, 0
1, 467280, Note_on_c, 0, 67, 0
1, 467280, Note_on_c, 0, 61, 0
1, 467280, Note_on_c, 0, 52, 0
1, 467283, Control_c, 0, 64, 0
1, 467520, Tempo, 547945
1, 468000, Tempo, 769231
1, 468000, Note_on_c, 0, 72, 41
1, 468040, Note_on_c, 0, 72, 0
1, 468040, Note_on_c, 0, 73, 41
1, 468080, Note_on_c, 0, 73, 0
1, 468080, Note_on_c, 0, 75, 36
1, 468120, Tempo, 805369
1, 468120, Note_on_c, 0, 75, 0
1, 468120, Note_on_c, 0, 73, 47
1, 468360, Tempo, 606061
1, 468360, Note_on_c, 0, 73, 0
1, 468360, Note_on_c, 0, 72, 41
1, 468480, Tempo, 591133
1, 468480, Note_on_c, 0, 72, 0
1, 468480, Note_on_c, 0, 72, 46
1, 468480, Note_on_c, 0, 53, 29
1, 468480, Note_on_c, 0, 56, 35
1, 468516, Control_c, 0, 64, 127
1, 468640, Note_on_c, 0, 72, 0
1, 468640, Note_on_c, 0, 80, 53
1, 468720, Tempo, 560748
1, 468800, Note_on_c, 0, 80, 0
1, 468800, Note_on_c, 0, 79, 47
1, 468960, Note_on_c, 0, 79, 0
1, 468960, Note_on_c, 0, 56, 0
1, 468960, Note_on_c, 0, 53, 0
1, 468960, Note_on_c, 0, 77, 47
1, 469120, Note_on_c, 0, 77, 0
1, 469120, Note_on_c, 0, 72, 43
1, 469280, Note_on_c, 0, 72, 0
1, 469280, Note_on_c, 0, 68, 43
1, 469440, Tempo, 588235
1, 469440, Note_on_c, 0, 68, 0
1, 469440, Note_on_c, 0, 67, 47
1, 469440, Note_on_c, 0, 49, 27
1, 469440, Note_on_c, 0, 46, 27
1, 469440, Note_on_c, 0, 55, 32
1, 469455, Control_c, 0, 64, 0
1, 469581, Control_c, 0, 64, 127
1, 469600, Note_on_c, 0, 67, 0
1, 469600, Note_on_c, 0, 75, 52
1, 469680, Tempo, 545455
1, 469760, Note_on_c, 0, 75, 0
1, 469760, Note_on_c, 0, 72, 39
1, 469920, Note_on_c, 0, 72, 0
1, 469920, Note_on_c, 0, 49, 0
1, 469920, Note_on_c, 0, 46, 0
1, 469920, Note_on_c, 0, 55, 0
1, 469920, Note_on_c, 0, 73, 44
1, 469938, Control_c, 0, 64, 0
1, 470054, Control_c, 0, 64, 127
1, 470080, Note_on_c, 0, 73, 0
1, 470080, Note_on_c, 0, 70, 38
1, 470160, Tempo, 641711
1, 470240, Note_on_c, 0, 70, 0
1, 470240, Note_on_c, 0, 67, 37
1, 470394, Tempo, 609137
1, 470400, Note_on_c, 0, 67, 0
1, 470400, Note_on_c, 0, 65, 44
1, 470400, Note_on_c, 0, 48, 41
1, 470404, Control_c, 0, 64, 0
1, 470442, Tempo, 606061
1, 470464, Control_c, 0, 64, 127
1, 470490, Tempo, 603015
1, 470538, Tempo, 600000
1, 470560, Note_on_c, 0, 56, 36
1, 470560, Note_on_c, 0, 53, 32
1, 470586, Tempo, 597015
1, 470622, Tempo, 594059
1, 470670, Tempo, 591133
1, 470718, Tempo, 588235
1, 470720, Note_on_c, 0, 53, 0
1, 470720, Note_on_c, 0, 56, 0
1, 470720, Note_on_c, 0, 58, 37
1, 470720, Note_on_c, 0, 55, 33
1, 470766, Tempo, 585366
1, 470802, Tempo, 582524
1, 470838, Tempo, 585366
1, 470862, Tempo, 588235
1, 470880, Note_on_c, 0, 55, 0
1, 470880, Note_on_c, 0, 58, 0
1, 470880, Note_on_c, 0, 60, 38
1, 470880, Note_on_c, 0, 56, 35
1, 470886, Tempo, 591133
1, 470898, Tempo, 594059
1, 470922, Tempo, 597015
1, 470946, Tempo, 600000
1, 470958, Tempo, 603015
1, 470982, Tempo, 606061
1, 471006, Tempo, 609137
1, 471018, Tempo, 612245
1, 471040, Note_on_c, 0, 56, 0
1, 471040, Note_on_c, 0, 60, 0
1, 471040, Note_on_c, 0, 58, 36
1, 471040, Note_on_c, 0, 55, 34
1, 471042, Tempo, 615385
1, 471066, Tempo, 618557
1, 471078, Tempo, 621762
1, 471102, Tempo, 625000
1, 471126, Tempo, 628272
1, 471138, Tempo, 631579
1, 471162, Tempo, 634921
1, 471186, Tempo, 638298
1, 471198, Tempo, 641711
1, 471200, Tempo, 740741
1, 471200, Note_on_c, 0, 55, 0
1, 471200, Note_on_c, 0, 58, 0
1, 471200, Note_on_c, 0, 56, 34
1, 471201, Note_on_c, 0, 53, 30
1, 471360, Tempo, 612245
1, 471360, Note_on_c, 0, 56, 0
1, 471360, Note_on_c, 0, 65, 0
1, 471360, Note_on_c, 0, 48, 0
1, 471360, Note_on_c, 0, 61, 32
1, 471360, Note_on_c, 0, 64, 32
1, 471360, Note_on_c, 0, 48, 40
1, 471361, Note_on_c, 0, 53, 0
1, 471364, Note_on_c, 0, 58, 40
1, 471374, Control_c, 0, 64, 0
1, 471494, Control_c, 0, 64, 127
1, 471840, Tempo, 631579
1, 471840, Note_on_c, 0, 61, 0
1, 471840, Note_on_c, 0, 60, 44
1, 471840, Note_on_c, 0, 56, 35
1, 471844, Note_on_c, 0, 58, 0
1, 471856, Control_c, 0, 64, 0
1, 472080, Note_on_c, 0, 60, 0
1, 472080, Note_on_c, 0, 56, 0
1, 472080, Note_on_c, 0, 58, 40
1, 472080, Note_on_c, 0, 55, 35
1, 472160, Tempo, 833333
1, 472320, Tempo, 659341
1, 472320, Note_on_c, 0, 55, 0
1, 472320, Note_on_c, 0, 48, 0
1, 472320, Note_on_c, 0, 64, 0
1, 472320, Note_on_c, 0, 58, 0
1, 472320, Note_on_c, 0, 65, 38
1, 472320, Note_on_c, 0, 48, 38
1, 472326, Tempo, 681818
1, 472386, Tempo, 677966
1, 472419, Control_c, 0, 64, 127
1, 472446, Tempo, 674157
1, 472480, Note_on_c, 0, 56, 28
1, 472480, Note_on_c, 0, 53, 25
1, 472506, Tempo, 670391
1, 472566, Tempo, 666667
1, 472626, Tempo, 662983
1, 472640, Note_on_c, 0, 53, 0
1, 472640, Note_on_c, 0, 56, 0
1, 472640, Note_on_c, 0, 58, 31
1, 472640, Note_on_c, 0, 55, 27
1, 472674, Tempo, 659341
1, 472710, Tempo, 662983
1, 472734, Tempo, 666667
1, 472758, Tempo, 670391
1, 472782, Tempo, 674157
1, 472800, Note_on_c, 0, 55, 0
1, 472800, Note_on_c, 0, 58, 0
1, 472800, Note_on_c, 0, 60, 31
1, 472800, Note_on_c, 0, 56, 29
1, 472806, Tempo, 677966
1, 472830, Tempo, 681818
1, 472854, Tempo, 685714
1, 472878, Tempo, 689655
1, 472914, Tempo, 693642
1, 472938, Tempo, 697674
1, 472960, Note_on_c, 0, 56, 0
1, 472960, Note_on_c, 0, 60, 0
1, 472960, Note_on_c, 0, 58, 29
1, 472960, Note_on_c, 0, 55, 29
1, 472962, Tempo, 701754
1, 472986, Tempo, 705882
1, 473010, Tempo, 710059
1, 473034, Tempo, 714286
1, 473058, Tempo, 718563
1, 473082, Tempo, 722892
1, 473106, Tempo, 727273
1, 473120, Tempo, 833333
1, 473120, Note_on_c, 0, 55, 0
1, 473120, Note_on_c, 0, 58, 0
1, 473120, Note_on_c, 0, 56, 27
1, 473121, Note_on_c, 0, 53, 28
1, 473280, Tempo, 714286
1, 473280, Note_on_c, 0, 56, 0
1, 473280, Note_on_c, 0, 65, 0
1, 473280, Note_on_c, 0, 48, 0
1, 473280, Note_on_c, 0, 64, 25
1, 473280, Note_on_c, 0, 61, 25
1, 473280, Note_on_c, 0, 48, 35
1, 473281, Note_on_c, 0, 53, 0
1, 473284, Note_on_c, 0, 58, 35
1, 473292, Control_c, 0, 64, 0
1, 473428, Control_c, 0, 64, 127
1, 473520, Tempo, 750000
1, 473760, Tempo, 827586
1, 473760, Note_on_c, 0, 61, 0
1, 473760, Note_on_c, 0, 60, 35
1, 473760, Note_on_c, 0, 56, 30
1, 473764, Note_on_c, 0, 58, 0
1, 473770, Control_c, 0, 64, 0
1, 474000, Tempo, 1034483
1, 474000, Note_on_c, 0, 60, 0
1, 474000, Note_on_c, 0, 56, 0
1, 474000, Note_on_c, 0, 58, 29
1, 474000, Note_on_c, 0, 55, 29
1, 474240, Tempo, 882353
1, 474240, Note_on_c, 0, 55, 0
1, 474240, Note_on_c, 0, 48, 0
1, 474240, Note_on_c, 0, 64, 0
1, 474240, Note_on_c, 0, 58, 0
1, 474240, Note_on_c, 0, 56, 26
1, 474240, Note_on_c, 0, 65, 31
1, 474240, Note_on_c, 0, 41, 22
1, 474240, Note_on_c, 0, 53, 27
1, 474614, Control_c, 0, 64, 127
1, 474720, Note_on_c, 0, 53, 0
1, 474720, Note_on_c, 0, 56, 0
1, 474720, Note_on_c, 0, 65, 0
1, 474720, Note_on_c, 0, 41, 0
1, 475200, Note_on_c, 0, 56, 25
1, 475200, Note_on_c, 0, 65, 30
1, 475200, Note_on_c, 0, 60, 25
1, 475200, Note_on_c, 0, 41, 22
1, 475200, Note_on_c, 0, 48, 22
1, 475200, Note_on_c, 0, 53, 27
1, 475680, Note_on_c, 0, 53, 0
1, 475680, Note_on_c, 0, 65, 0
1, 475680, Note_on_c, 0, 60, 0
1, 475680, Note_on_c, 0, 56, 0
1, 475680, Note_on_c, 0, 48, 0
1, 475680, Note_on_c, 0, 41, 0
1, 476160, Note_on_c, 0, 56, 23
1, 476160, Note_on_c, 0, 60, 23
1, 476160, Note_on_c, 0, 65, 28
1, 476160, Note_on_c, 0, 48, 22
1, 476160, Note_on_c, 0, 53, 26
1, 476160, Note_on_c, 0, 41, 22
1, 477120, Note_on_c, 0, 41, 0
1, 477120, Note_on_c, 0, 60, 0
1, 477120, Note_on_c, 0, 65, 0
1, 477120, Note_on_c, 0, 56, 0
1, 477120, Note_on_c, 0, 53, 0
1, 477120, Note_on_c, 0, 48, 0
1, 479680, Control_c, 0, 64, 0
1, 479680, End_track
0, 0, End_of_file
