0, 0, Header, 0, 1, 480
1, 0, Start_track
1, 0, Title_t, "Kinderszenen Opus 15"
1, 0, Title_t, "Von fremden Ländern und Menschen"
1, 0, Copyright_t, "Copyright © 1997 von Bernd Krüger."
1, 0, Text_t, "Robert Schumann"
1, 0, Text_t, "Fertiggestellt am 15.11.97\012"
1, 0, Text_t, "Kleine Tempokorrektur am 16.11.97\012"
1, 0, Text_t, "Nochmals Korrekturen am 22.11.97\012"
1, 0, Text_t, "Korrekturen am 4.9.98\012"
1, 0, Text_t, "Anpassungen an Digitalpiano am 1.1.99\012"
1, 0, Text_t, "Update am 16.6.99\012"
1, 0, Text_t, "Update am 9.7.99\012"
1, 0, Text_t, "Normierung: 23.12.2002\012"
1, 0, Text_t, "Update am 3.10.2008\012"
1, 0, Text_t, "Update am 26.3.2014 (keine Änderungen)\012"
1, 0, Text_t, "Dauer: 1:19 Minuten\012"
1, 0, Time_signature, 2, 2, 24, 8
1, 0, Key_signature, 1, "major"
1, 0, Tempo, 877193
1, 0, Marker_t, "A Tale of Distant Lands"
1, 0, Program_c, 0, 0
1, 0, Control_c, 0, 7, 100
1, 0, Control_c, 0, 10, 64
1, 0, Control_c, 0, 91, 127
1, 0, Text_t, "bdca426d104a26ac9dcb070447587523"
1, 0, Program_c, 0, 0
1, 0, Control_c, 0, 7, 100
1, 0, Control_c, 0, 10, 64
1, 0, Control_c, 0, 64, 127
1, 0, Control_c, 0, 91, 127
1, 1, Note_on_c, 0, 71, 55
1, 1, Note_on_c, 0, 55, 35
1, 1, Note_on_c, 0, 59, 35
1, 160, Note_on_c, 0, 62, 37
1, 171, Note_on_c, 0, 59, 0
1, 241, Note_on_c, 0, 55, 0
1, 320, Tempo, 845070
1, 320, Note_on_c, 0, 67, 32
1, 330, Note_on_c, 0, 62, 0
1, 480, Tempo, 908128
1, 480, Note_on_c, 0, 67, 0
1, 480, Note_on_c, 0, 79, 60
1, 480, Note_on_c, 0, 58, 35
1, 480, Note_on_c, 0, 49, 35
1, 491, Note_on_c, 0, 71, 0
1, 493, Control_c, 0, 64, 0
1, 554, Control_c, 0, 64, 127
1, 640, Tempo, 902256
1, 640, Note_on_c, 0, 64, 38
1, 650, Note_on_c, 0, 58, 0
1, 720, Note_on_c, 0, 49, 0
1, 800, Tempo, 871333
1, 800, Note_on_c, 0, 67, 32
1, 810, Note_on_c, 0, 64, 0
1, 960, Tempo, 895522
1, 960, Note_on_c, 0, 67, 0
1, 960, Note_on_c, 0, 79, 0
1, 960, Note_on_c, 0, 78, 57
1, 960, Control_c, 0, 64, 0
1, 960, Note_on_c, 0, 57, 35
1, 960, Note_on_c, 0, 50, 35
1, 1038, Control_c, 0, 64, 127
1, 1120, Tempo, 851064
1, 1120, Note_on_c, 0, 62, 37
1, 1130, Note_on_c, 0, 57, 0
1, 1200, Note_on_c, 0, 50, 0
1, 1280, Note_on_c, 0, 66, 28
1, 1290, Note_on_c, 0, 62, 0
1, 1320, Tempo, 839161
1, 1320, Note_on_c, 0, 76, 37
1, 1330, Note_on_c, 0, 78, 0
1, 1440, Tempo, 882353
1, 1440, Note_on_c, 0, 66, 0
1, 1440, Note_on_c, 0, 74, 37
1, 1440, Note_on_c, 0, 60, 27
1, 1440, Note_on_c, 0, 54, 27
1, 1450, Note_on_c, 0, 76, 0
1, 1454, Control_c, 0, 64, 0
1, 1518, Control_c, 0, 64, 127
1, 1600, Note_on_c, 0, 62, 27
1, 1610, Note_on_c, 0, 60, 0
1, 1680, Note_on_c, 0, 54, 0
1, 1760, Tempo, 845070
1, 1760, Note_on_c, 0, 69, 27
1, 1770, Note_on_c, 0, 62, 0
1, 1920, Tempo, 882353
1, 1920, Note_on_c, 0, 69, 0
1, 1920, Note_on_c, 0, 74, 0
1, 1920, Control_c, 0, 91, 127
1, 1920, Control_c, 0, 64, 0
1, 1920, Control_c, 0, 91, 127
1, 1921, Note_on_c, 0, 71, 55
1, 1921, Note_on_c, 0, 59, 35
1, 1921, Note_on_c, 0, 55, 35
1, 1973, Control_c, 0, 64, 127
1, 2080, Note_on_c, 0, 62, 37
1, 2091, Note_on_c, 0, 59, 0
1, 2161, Note_on_c, 0, 55, 0
1, 2240, Tempo, 851064
1, 2240, Note_on_c, 0, 67, 32
1, 2250, Note_on_c, 0, 62, 0
1, 2400, Tempo, 875912
1, 2400, Note_on_c, 0, 67, 0
1, 2400, Note_on_c, 0, 79, 60
1, 2400, Note_on_c, 0, 49, 35
1, 2400, Note_on_c, 0, 58, 35
1, 2405, Control_c, 0, 64, 0
1, 2411, Note_on_c, 0, 71, 0
1, 2442, Control_c, 0, 64, 127
1, 2560, Note_on_c, 0, 64, 38
1, 2570, Note_on_c, 0, 58, 0
1, 2640, Note_on_c, 0, 49, 0
1, 2720, Tempo, 857143
1, 2720, Note_on_c, 0, 67, 32
1, 2730, Note_on_c, 0, 64, 0
1, 2880, Tempo, 882353
1, 2880, Note_on_c, 0, 67, 0
1, 2880, Note_on_c, 0, 79, 0
1, 2880, Note_on_c, 0, 78, 57
1, 2880, Control_c, 0, 64, 0
1, 2880, Note_on_c, 0, 57, 35
1, 2880, Note_on_c, 0, 50, 35
1, 2979, Control_c, 0, 64, 127
1, 3040, Tempo, 851064
1, 3040, Note_on_c, 0, 62, 37
1, 3050, Note_on_c, 0, 57, 0
1, 3120, Note_on_c, 0, 50, 0
1, 3200, Note_on_c, 0, 66, 29
1, 3210, Note_on_c, 0, 62, 0
1, 3240, Tempo, 827586
1, 3240, Note_on_c, 0, 76, 37
1, 3250, Note_on_c, 0, 78, 0
1, 3360, Tempo, 888889
1, 3360, Note_on_c, 0, 66, 0
1, 3360, Note_on_c, 0, 74, 37
1, 3360, Note_on_c, 0, 60, 27
1, 3360, Note_on_c, 0, 54, 27
1, 3368, Control_c, 0, 64, 0
1, 3370, Note_on_c, 0, 76, 0
1, 3459, Control_c, 0, 64, 127
1, 3520, Note_on_c, 0, 62, 28
1, 3530, Note_on_c, 0, 60, 0
1, 3600, Note_on_c, 0, 54, 0
1, 3680, Tempo, 909091
1, 3680, Note_on_c, 0, 69, 28
1, 3690, Note_on_c, 0, 62, 0
1, 3840, Tempo, 877193
1, 3840, Note_on_c, 0, 69, 0
1, 3840, Note_on_c, 0, 74, 0
1, 3840, Control_c, 0, 91, 127
1, 3840, Control_c, 0, 64, 0
1, 3840, Control_c, 0, 91, 127
1, 3841, Note_on_c, 0, 71, 58
1, 3841, Note_on_c, 0, 55, 35
1, 3841, Note_on_c, 0, 59, 35
1, 3886, Control_c, 0, 64, 127
1, 4000, Note_on_c, 0, 62, 37
1, 4011, Note_on_c, 0, 59, 0
1, 4081, Note_on_c, 0, 55, 0
1, 4160, Tempo, 902256
1, 4160, Note_on_c, 0, 67, 37
1, 4170, Note_on_c, 0, 62, 0
1, 4320, Tempo, 882353
1, 4320, Note_on_c, 0, 67, 0
1, 4320, Note_on_c, 0, 79, 60
1, 4320, Note_on_c, 0, 47, 38
1, 4320, Note_on_c, 0, 55, 38
1, 4331, Note_on_c, 0, 71, 0
1, 4480, Note_on_c, 0, 62, 41
1, 4560, Note_on_c, 0, 47, 0
1, 4640, Tempo, 889284
1, 4640, Note_on_c, 0, 67, 41
1, 4650, Note_on_c, 0, 62, 0
1, 4800, Tempo, 875912
1, 4800, Note_on_c, 0, 79, 0
1, 4800, Note_on_c, 0, 67, 0
1, 4800, Note_on_c, 0, 76, 57
1, 4800, Control_c, 0, 64, 0
1, 4800, Note_on_c, 0, 48, 38
1, 4849, Control_c, 0, 64, 127
1, 4960, Tempo, 851064
1, 4960, Note_on_c, 0, 55, 0
1, 4960, Note_on_c, 0, 64, 40
1, 5040, Note_on_c, 0, 48, 0
1, 5120, Note_on_c, 0, 67, 40
1, 5130, Note_on_c, 0, 64, 0
1, 5160, Tempo, 875912
1, 5160, Note_on_c, 0, 74, 52
1, 5170, Note_on_c, 0, 76, 0
1, 5280, Tempo, 895522
1, 5280, Note_on_c, 0, 67, 0
1, 5280, Note_on_c, 0, 72, 49
1, 5280, Note_on_c, 0, 52, 38
1, 5280, Note_on_c, 0, 55, 38
1, 5284, Control_c, 0, 64, 0
1, 5290, Note_on_c, 0, 74, 0
1, 5322, Control_c, 0, 64, 127
1, 5440, Note_on_c, 0, 60, 40
1, 5450, Note_on_c, 0, 55, 0
1, 5520, Note_on_c, 0, 52, 0
1, 5600, Tempo, 863309
1, 5600, Note_on_c, 0, 67, 40
1, 5610, Note_on_c, 0, 60, 0
1, 5760, Tempo, 883262
1, 5760, Note_on_c, 0, 67, 0
1, 5760, Note_on_c, 0, 72, 0
1, 5760, Note_on_c, 0, 69, 51
1, 5760, Control_c, 0, 64, 0
1, 5760, Note_on_c, 0, 50, 28
1, 5760, Note_on_c, 0, 55, 28
1, 5859, Control_c, 0, 64, 127
1, 5920, Tempo, 908128
1, 5920, Note_on_c, 0, 60, 32
1, 5930, Note_on_c, 0, 55, 0
1, 6000, Note_on_c, 0, 50, 0
1, 6080, Tempo, 937500
1, 6080, Note_on_c, 0, 60, 0
1, 6080, Note_on_c, 0, 67, 29
1, 6240, Tempo, 921093
1, 6240, Note_on_c, 0, 67, 0
1, 6240, Note_on_c, 0, 74, 48
1, 6240, Note_on_c, 0, 54, 26
1, 6240, Note_on_c, 0, 50, 26
1, 6247, Control_c, 0, 64, 0
1, 6250, Note_on_c, 0, 69, 0
1, 6353, Control_c, 0, 64, 127
1, 6400, Note_on_c, 0, 60, 31
1, 6410, Note_on_c, 0, 54, 0
1, 6480, Note_on_c, 0, 50, 0
1, 6560, Tempo, 962310
1, 6560, Note_on_c, 0, 60, 0
1, 6560, Note_on_c, 0, 69, 26
1, 6720, Tempo, 914495
1, 6720, Note_on_c, 0, 69, 0
1, 6720, Note_on_c, 0, 74, 0
1, 6720, Note_on_c, 0, 71, 45
1, 6720, Control_c, 0, 64, 0
1, 6720, Note_on_c, 0, 43, 24
1, 6720, Note_on_c, 0, 50, 24
1, 6766, Control_c, 0, 64, 127
1, 6880, Note_on_c, 0, 59, 28
1, 6890, Note_on_c, 0, 50, 0
1, 6960, Note_on_c, 0, 43, 0
1, 7040, Note_on_c, 0, 67, 25
1, 7050, Note_on_c, 0, 59, 0
1, 7200, Tempo, 944882
1, 7200, Note_on_c, 0, 67, 0
1, 7200, Note_on_c, 0, 55, 26
1, 7360, Note_on_c, 0, 59, 26
1, 7440, Note_on_c, 0, 55, 0
1, 7520, Tempo, 983607
1, 7520, Note_on_c, 0, 67, 21
1, 7530, Note_on_c, 0, 59, 0
1, 7680, Tempo, 882353
1, 7680, Note_on_c, 0, 67, 0
1, 7680, Note_on_c, 0, 71, 0
1, 7680, Control_c, 0, 91, 127
1, 7680, Control_c, 0, 64, 0
1, 7680, Control_c, 0, 91, 127
1, 7681, Note_on_c, 0, 71, 55
1, 7681, Note_on_c, 0, 59, 35
1, 7681, Note_on_c, 0, 55, 35
1, 7726, Control_c, 0, 64, 127
1, 7840, Note_on_c, 0, 62, 37
1, 7851, Note_on_c, 0, 59, 0
1, 7921, Note_on_c, 0, 55, 0
1, 8000, Tempo, 851064
1, 8000, Note_on_c, 0, 67, 32
1, 8010, Note_on_c, 0, 62, 0
1, 8160, Tempo, 875912
1, 8160, Note_on_c, 0, 67, 0
1, 8160, Note_on_c, 0, 79, 60
1, 8160, Note_on_c, 0, 49, 35
1, 8160, Note_on_c, 0, 58, 35
1, 8167, Control_c, 0, 64, 0
1, 8171, Note_on_c, 0, 71, 0
1, 8227, Control_c, 0, 64, 127
1, 8320, Note_on_c, 0, 58, 0
1, 8320, Note_on_c, 0, 64, 38
1, 8400, Note_on_c, 0, 49, 0
1, 8480, Tempo, 871333
1, 8480, Note_on_c, 0, 67, 32
1, 8490, Note_on_c, 0, 64, 0
1, 8640, Tempo, 909091
1, 8640, Note_on_c, 0, 67, 0
1, 8640, Note_on_c, 0, 79, 0
1, 8640, Note_on_c, 0, 78, 57
1, 8640, Control_c, 0, 64, 0
1, 8640, Note_on_c, 0, 50, 35
1, 8640, Note_on_c, 0, 57, 35
1, 8693, Control_c, 0, 64, 127
1, 8800, Tempo, 869565
1, 8800, Note_on_c, 0, 62, 37
1, 8810, Note_on_c, 0, 57, 0
1, 8880, Note_on_c, 0, 50, 0
1, 8960, Note_on_c, 0, 66, 27
1, 8970, Note_on_c, 0, 62, 0
1, 9000, Tempo, 851064
1, 9000, Note_on_c, 0, 76, 38
1, 9010, Note_on_c, 0, 78, 0
1, 9120, Tempo, 882353
1, 9120, Note_on_c, 0, 66, 0
1, 9120, Note_on_c, 0, 74, 38
1, 9120, Note_on_c, 0, 54, 27
1, 9120, Note_on_c, 0, 60, 27
1, 9130, Note_on_c, 0, 76, 0
1, 9134, Control_c, 0, 64, 0
1, 9176, Control_c, 0, 64, 127
1, 9280, Note_on_c, 0, 62, 27
1, 9290, Note_on_c, 0, 60, 0
1, 9360, Note_on_c, 0, 54, 0
1, 9440, Tempo, 845070
1, 9440, Note_on_c, 0, 69, 27
1, 9450, Note_on_c, 0, 62, 0
1, 9600, Tempo, 882353
1, 9600, Note_on_c, 0, 69, 0
1, 9600, Note_on_c, 0, 74, 0
1, 9600, Control_c, 0, 91, 127
1, 9600, Control_c, 0, 64, 0
1, 9600, Control_c, 0, 91, 127
1, 9601, Note_on_c, 0, 71, 55
1, 9601, Note_on_c, 0, 59, 35
1, 9601, Note_on_c, 0, 55, 35
1, 9678, Control_c, 0, 64, 127
1, 9760, Note_on_c, 0, 62, 37
1, 9771, Note_on_c, 0, 59, 0
1, 9841, Note_on_c, 0, 55, 0
1, 9920, Tempo, 845070
1, 9920, Note_on_c, 0, 67, 32
1, 9930, Note_on_c, 0, 62, 0
1, 10080, Tempo, 875912
1, 10080, Note_on_c, 0, 67, 0
1, 10080, Note_on_c, 0, 79, 60
1, 10080, Note_on_c, 0, 49, 35
1, 10080, Note_on_c, 0, 58, 35
1, 10088, Control_c, 0, 64, 0
1, 10091, Note_on_c, 0, 71, 0
1, 10144, Control_c, 0, 64, 127
1, 10240, Note_on_c, 0, 64, 38
1, 10250, Note_on_c, 0, 58, 0
1, 10320, Note_on_c, 0, 49, 0
1, 10400, Tempo, 869565
1, 10400, Note_on_c, 0, 67, 32
1, 10410, Note_on_c, 0, 64, 0
1, 10560, Tempo, 888889
1, 10560, Note_on_c, 0, 67, 0
1, 10560, Note_on_c, 0, 79, 0
1, 10560, Note_on_c, 0, 78, 57
1, 10560, Control_c, 0, 64, 0
1, 10560, Note_on_c, 0, 50, 35
1, 10560, Note_on_c, 0, 57, 35
1, 10599, Control_c, 0, 64, 127
1, 10700, Tempo, 845070
1, 10720, Tempo, 863309
1, 10720, Note_on_c, 0, 62, 37
1, 10730, Note_on_c, 0, 57, 0
1, 10800, Note_on_c, 0, 50, 0
1, 10880, Note_on_c, 0, 66, 28
1, 10890, Note_on_c, 0, 62, 0
1, 10920, Tempo, 845070
1, 10920, Note_on_c, 0, 76, 37
1, 10930, Note_on_c, 0, 78, 0
1, 11040, Tempo, 895522
1, 11040, Note_on_c, 0, 66, 0
1, 11040, Note_on_c, 0, 74, 37
1, 11040, Note_on_c, 0, 54, 27
1, 11040, Note_on_c, 0, 60, 27
1, 11050, Note_on_c, 0, 76, 0
1, 11051, Control_c, 0, 64, 0
1, 11111, Control_c, 0, 64, 127
1, 11200, Note_on_c, 0, 62, 28
1, 11210, Note_on_c, 0, 60, 0
1, 11280, Note_on_c, 0, 54, 0
1, 11360, Tempo, 909091
1, 11360, Note_on_c, 0, 69, 27
1, 11370, Note_on_c, 0, 62, 0
1, 11520, Tempo, 877193
1, 11520, Note_on_c, 0, 69, 0
1, 11520, Note_on_c, 0, 74, 0
1, 11520, Control_c, 0, 91, 127
1, 11520, Control_c, 0, 64, 0
1, 11520, Control_c, 0, 91, 127
1, 11521, Note_on_c, 0, 71, 58
1, 11521, Note_on_c, 0, 59, 35
1, 11521, Note_on_c, 0, 55, 35
1, 11598, Control_c, 0, 64, 127
1, 11680, Note_on_c, 0, 62, 37
1, 11691, Note_on_c, 0, 59, 0
1, 11761, Note_on_c, 0, 55, 0
1, 11840, Tempo, 902256
1, 11840, Note_on_c, 0, 67, 37
1, 11850, Note_on_c, 0, 62, 0
1, 12000, Tempo, 889284
1, 12000, Note_on_c, 0, 67, 0
1, 12000, Note_on_c, 0, 79, 60
1, 12000, Note_on_c, 0, 47, 38
1, 12000, Note_on_c, 0, 55, 38
1, 12011, Note_on_c, 0, 71, 0
1, 12160, Note_on_c, 0, 62, 41
1, 12240, Note_on_c, 0, 47, 0
1, 12320, Tempo, 889284
1, 12320, Note_on_c, 0, 67, 41
1, 12330, Note_on_c, 0, 62, 0
1, 12480, Tempo, 875912
1, 12480, Note_on_c, 0, 79, 0
1, 12480, Note_on_c, 0, 67, 0
1, 12480, Note_on_c, 0, 76, 57
1, 12480, Control_c, 0, 64, 0
1, 12480, Note_on_c, 0, 48, 38
1, 12522, Control_c, 0, 64, 127
1, 12640, Tempo, 857143
1, 12640, Note_on_c, 0, 55, 0
1, 12640, Note_on_c, 0, 64, 40
1, 12720, Note_on_c, 0, 48, 0
1, 12800, Note_on_c, 0, 67, 40
1, 12810, Note_on_c, 0, 64, 0
1, 12840, Tempo, 882353
1, 12840, Note_on_c, 0, 74, 49
1, 12850, Note_on_c, 0, 76, 0
1, 12960, Tempo, 895522
1, 12960, Note_on_c, 0, 67, 0
1, 12960, Note_on_c, 0, 72, 49
1, 12960, Note_on_c, 0, 52, 38
1, 12960, Note_on_c, 0, 55, 38
1, 12970, Note_on_c, 0, 74, 0
1, 12972, Control_c, 0, 64, 0
1, 13059, Control_c, 0, 64, 127
1, 13120, Note_on_c, 0, 60, 40
1, 13130, Note_on_c, 0, 55, 0
1, 13200, Note_on_c, 0, 52, 0
1, 13280, Tempo, 863309
1, 13280, Note_on_c, 0, 67, 40
1, 13290, Note_on_c, 0, 60, 0
1, 13440, Tempo, 883262
1, 13440, Note_on_c, 0, 67, 0
1, 13440, Note_on_c, 0, 72, 0
1, 13440, Note_on_c, 0, 69, 51
1, 13440, Control_c, 0, 64, 0
1, 13440, Note_on_c, 0, 50, 28
1, 13440, Note_on_c, 0, 55, 28
1, 13500, Control_c, 0, 64, 127
1, 13600, Tempo, 908128
1, 13600, Note_on_c, 0, 60, 32
1, 13610, Note_on_c, 0, 55, 0
1, 13680, Note_on_c, 0, 50, 0
1, 13760, Tempo, 937500
1, 13760, Note_on_c, 0, 67, 29
1, 13770, Note_on_c, 0, 60, 0
1, 13920, Tempo, 952381
1, 13920, Note_on_c, 0, 67, 0
1, 13920, Note_on_c, 0, 74, 48
1, 13920, Note_on_c, 0, 50, 26
1, 13920, Note_on_c, 0, 54, 26
1, 13927, Control_c, 0, 64, 0
1, 13930, Note_on_c, 0, 69, 0
1, 13994, Control_c, 0, 64, 127
1, 14080, Note_on_c, 0, 60, 31
1, 14090, Note_on_c, 0, 54, 0
1, 14160, Note_on_c, 0, 50, 0
1, 14240, Tempo, 962310
1, 14240, Note_on_c, 0, 69, 26
1, 14250, Note_on_c, 0, 60, 0
1, 14400, Tempo, 914495
1, 14400, Note_on_c, 0, 69, 0
1, 14400, Note_on_c, 0, 74, 0
1, 14400, Note_on_c, 0, 71, 45
1, 14400, Control_c, 0, 64, 0
1, 14400, Note_on_c, 0, 43, 24
1, 14400, Note_on_c, 0, 50, 24
1, 14453, Control_c, 0, 64, 127
1, 14560, Note_on_c, 0, 59, 28
1, 14570, Note_on_c, 0, 50, 0
1, 14640, Note_on_c, 0, 43, 0
1, 14720, Note_on_c, 0, 67, 25
1, 14730, Note_on_c, 0, 59, 0
1, 14880, Tempo, 944882
1, 14880, Note_on_c, 0, 67, 0
1, 14880, Note_on_c, 0, 55, 26
1, 15040, Note_on_c, 0, 59, 26
1, 15120, Note_on_c, 0, 55, 0
1, 15200, Note_on_c, 0, 67, 21
1, 15210, Note_on_c, 0, 59, 0
1, 15358, Note_on_c, 0, 67, 0
1, 15360, Tempo, 857143
1, 15360, Note_on_c, 0, 71, 0
1, 15360, Note_on_c, 0, 67, 53
1, 15360, Note_on_c, 0, 71, 53
1, 15360, Control_c, 0, 64, 0
1, 15360, Note_on_c, 0, 52, 36
1, 15438, Control_c, 0, 64, 127
1, 15520, Note_on_c, 0, 59, 36
1, 15680, Note_on_c, 0, 64, 36
1, 15690, Note_on_c, 0, 59, 0
1, 15840, Note_on_c, 0, 52, 0
1, 15840, Note_on_c, 0, 64, 0
1, 15840, Note_on_c, 0, 69, 51
1, 15840, Note_on_c, 0, 72, 51
1, 15840, Note_on_c, 0, 45, 36
1, 15850, Note_on_c, 0, 71, 0
1, 15850, Note_on_c, 0, 67, 0
1, 15855, Control_c, 0, 64, 0
1, 15946, Control_c, 0, 64, 127
1, 16000, Note_on_c, 0, 57, 36
1, 16160, Tempo, 882353
1, 16160, Note_on_c, 0, 64, 36
1, 16170, Note_on_c, 0, 57, 0
1, 16320, Tempo, 857143
1, 16320, Note_on_c, 0, 72, 0
1, 16320, Note_on_c, 0, 45, 0
1, 16320, Note_on_c, 0, 69, 0
1, 16320, Note_on_c, 0, 64, 0
1, 16320, Note_on_c, 0, 66, 53
1, 16320, Note_on_c, 0, 69, 53
1, 16320, Note_on_c, 0, 50, 36
1, 16331, Control_c, 0, 64, 0
1, 16440, Control_c, 0, 64, 127
1, 16480, Note_on_c, 0, 57, 39
1, 16640, Note_on_c, 0, 62, 40
1, 16650, Note_on_c, 0, 57, 0
1, 16680, Note_on_c, 0, 50, 0
1, 16680, Note_on_c, 0, 48, 46
1, 16800, Note_on_c, 0, 48, 0
1, 16800, Note_on_c, 0, 62, 0
1, 16800, Note_on_c, 0, 67, 52
1, 16800, Note_on_c, 0, 71, 52
1, 16800, Note_on_c, 0, 47, 35
1, 16807, Control_c, 0, 64, 0
1, 16810, Note_on_c, 0, 69, 0
1, 16810, Note_on_c, 0, 66, 0
1, 16920, Control_c, 0, 64, 127
1, 16960, Note_on_c, 0, 55, 35
1, 17120, Note_on_c, 0, 62, 35
1, 17130, Note_on_c, 0, 55, 0
1, 17280, Tempo, 875912
1, 17280, Note_on_c, 0, 71, 0
1, 17280, Note_on_c, 0, 47, 0
1, 17280, Note_on_c, 0, 67, 0
1, 17280, Note_on_c, 0, 62, 0
1, 17280, Note_on_c, 0, 64, 48
1, 17280, Note_on_c, 0, 67, 48
1, 17280, Control_c, 0, 64, 0
1, 17280, Note_on_c, 0, 48, 27
1, 17351, Control_c, 0, 64, 127
1, 17440, Note_on_c, 0, 55, 27
1, 17600, Note_on_c, 0, 60, 27
1, 17610, Note_on_c, 0, 55, 0
1, 17760, Note_on_c, 0, 48, 0
1, 17760, Note_on_c, 0, 60, 0
1, 17760, Note_on_c, 0, 64, 0
1, 17760, Note_on_c, 0, 64, 45
1, 17760, Note_on_c, 0, 69, 45
1, 17760, Note_on_c, 0, 42, 27
1, 17767, Control_c, 0, 64, 0
1, 17770, Note_on_c, 0, 67, 0
1, 17859, Control_c, 0, 64, 127
1, 17920, Note_on_c, 0, 54, 27
1, 18080, Note_on_c, 0, 60, 27
1, 18090, Note_on_c, 0, 54, 0
1, 18240, Tempo, 916031
1, 18240, Note_on_c, 0, 64, 0
1, 18240, Note_on_c, 0, 42, 0
1, 18240, Note_on_c, 0, 69, 0
1, 18240, Note_on_c, 0, 60, 0
1, 18240, Note_on_c, 0, 63, 44
1, 18240, Note_on_c, 0, 66, 44
1, 18240, Control_c, 0, 64, 0
1, 18240, Note_on_c, 0, 47, 27
1, 18307, Control_c, 0, 64, 127
1, 18400, Note_on_c, 0, 54, 34
1, 18560, Note_on_c, 0, 59, 34
1, 18570, Note_on_c, 0, 54, 0
1, 18600, Note_on_c, 0, 47, 0
1, 18600, Note_on_c, 0, 45, 39
1, 18720, Tempo, 882353
1, 18720, Note_on_c, 0, 45, 0
1, 18720, Note_on_c, 0, 59, 0
1, 18720, Note_on_c, 0, 66, 0
1, 18720, Note_on_c, 0, 63, 0
1, 18720, Note_on_c, 0, 62, 40
1, 18720, Note_on_c, 0, 67, 40
1, 18720, Note_on_c, 0, 43, 27
1, 18727, Control_c, 0, 64, 0
1, 18826, Control_c, 0, 64, 127
1, 18880, Note_on_c, 0, 55, 27
1, 19040, Note_on_c, 0, 59, 27
1, 19050, Note_on_c, 0, 55, 0
1, 19200, Note_on_c, 0, 43, 0
1, 19200, Note_on_c, 0, 62, 0
1, 19200, Note_on_c, 0, 67, 0
1, 19200, Note_on_c, 0, 59, 0
1, 19200, Note_on_c, 0, 64, 49
1, 19200, Control_c, 0, 64, 0
1, 19200, Note_on_c, 0, 48, 31
1, 19278, Control_c, 0, 64, 127
1, 19360, Note_on_c, 0, 55, 31
1, 19520, Note_on_c, 0, 60, 31
1, 19530, Note_on_c, 0, 55, 0
1, 19680, Note_on_c, 0, 60, 0
1, 19680, Note_on_c, 0, 48, 0
1, 19680, Note_on_c, 0, 66, 48
1, 19680, Note_on_c, 0, 48, 31
1, 19680, Note_on_c, 0, 50, 31
1, 19690, Note_on_c, 0, 64, 0
1, 19701, Control_c, 0, 64, 0
1, 19807, Control_c, 0, 64, 127
1, 19840, Note_on_c, 0, 57, 31
1, 19850, Note_on_c, 0, 50, 0
1, 20000, Note_on_c, 0, 62, 31
1, 20010, Note_on_c, 0, 57, 0
1, 20160, Note_on_c, 0, 66, 0
1, 20160, Note_on_c, 0, 48, 0
1, 20160, Note_on_c, 0, 62, 0
1, 20160, Note_on_c, 0, 67, 52
1, 20160, Control_c, 0, 64, 0
1, 20160, Note_on_c, 0, 47, 31
1, 20160, Note_on_c, 0, 50, 31
1, 20224, Control_c, 0, 64, 127
1, 20320, Note_on_c, 0, 55, 33
1, 20480, Note_on_c, 0, 55, 0
1, 20480, Note_on_c, 0, 62, 34
1, 20520, Tempo, 916031
1, 20520, Note_on_c, 0, 47, 0
1, 20520, Note_on_c, 0, 69, 50
1, 20520, Note_on_c, 0, 45, 40
1, 20530, Note_on_c, 0, 67, 0
1, 20640, Tempo, 1600000
1, 20640, Note_on_c, 0, 62, 0
1, 20640, Note_on_c, 0, 45, 0
1, 20640, Note_on_c, 0, 71, 53
1, 20640, Note_on_c, 0, 43, 31
1, 20650, Note_on_c, 0, 69, 0
1, 20654, Control_c, 0, 64, 0
1, 20718, Control_c, 0, 64, 127
1, 20800, Tempo, 1034483
1, 20800, Note_on_c, 0, 57, 25
1, 20960, Tempo, 1008403
1, 20960, Note_on_c, 0, 62, 25
1, 21000, Note_on_c, 0, 72, 38
1, 21010, Note_on_c, 0, 71, 0
1, 21120, Tempo, 895522
1, 21120, Note_on_c, 0, 50, 0
1, 21120, Note_on_c, 0, 57, 0
1, 21120, Note_on_c, 0, 43, 0
1, 21120, Note_on_c, 0, 72, 0
1, 21120, Note_on_c, 0, 62, 0
1, 21120, Note_on_c, 0, 74, 44
1, 21120, Control_c, 0, 91, 127
1, 21120, Control_c, 0, 64, 0
1, 21120, Control_c, 0, 91, 127
1, 21121, Note_on_c, 0, 59, 35
1, 21121, Note_on_c, 0, 55, 35
1, 21184, Control_c, 0, 64, 127
1, 21280, Note_on_c, 0, 62, 37
1, 21291, Note_on_c, 0, 59, 0
1, 21361, Note_on_c, 0, 55, 0
1, 21440, Tempo, 845070
1, 21440, Note_on_c, 0, 67, 32
1, 21450, Note_on_c, 0, 62, 0
1, 21600, Tempo, 882353
1, 21600, Note_on_c, 0, 67, 0
1, 21600, Note_on_c, 0, 79, 48
1, 21600, Note_on_c, 0, 49, 35
1, 21600, Note_on_c, 0, 58, 35
1, 21604, Control_c, 0, 64, 0
1, 21610, Note_on_c, 0, 74, 0
1, 21671, Control_c, 0, 64, 127
1, 21760, Note_on_c, 0, 64, 38
1, 21770, Note_on_c, 0, 58, 0
1, 21840, Note_on_c, 0, 49, 0
1, 21920, Tempo, 845070
1, 21920, Note_on_c, 0, 67, 32
1, 21930, Note_on_c, 0, 64, 0
1, 22080, Tempo, 875912
1, 22080, Note_on_c, 0, 67, 0
1, 22080, Note_on_c, 0, 79, 0
1, 22080, Note_on_c, 0, 78, 48
1, 22080, Control_c, 0, 64, 0
1, 22080, Note_on_c, 0, 50, 35
1, 22080, Note_on_c, 0, 57, 35
1, 22126, Control_c, 0, 64, 127
1, 22240, Tempo, 857143
1, 22240, Note_on_c, 0, 62, 37
1, 22250, Note_on_c, 0, 57, 0
1, 22320, Note_on_c, 0, 50, 0
1, 22400, Note_on_c, 0, 66, 29
1, 22410, Note_on_c, 0, 62, 0
1, 22440, Tempo, 839161
1, 22440, Note_on_c, 0, 76, 38
1, 22450, Note_on_c, 0, 78, 0
1, 22560, Tempo, 901713
1, 22560, Note_on_c, 0, 66, 0
1, 22560, Note_on_c, 0, 74, 38
1, 22560, Note_on_c, 0, 54, 27
1, 22560, Note_on_c, 0, 60, 27
1, 22564, Control_c, 0, 64, 0
1, 22570, Note_on_c, 0, 76, 0
1, 22627, Control_c, 0, 64, 127
1, 22720, Note_on_c, 0, 62, 28
1, 22730, Note_on_c, 0, 60, 0
1, 22800, Note_on_c, 0, 54, 0
1, 22880, Tempo, 845070
1, 22880, Note_on_c, 0, 69, 25
1, 22890, Note_on_c, 0, 62, 0
1, 23040, Tempo, 882353
1, 23040, Note_on_c, 0, 69, 0
1, 23040, Note_on_c, 0, 74, 0
1, 23040, Control_c, 0, 91, 127
1, 23040, Control_c, 0, 91, 127
1, 23041, Note_on_c, 0, 71, 50
1, 23041, Note_on_c, 0, 59, 35
1, 23041, Note_on_c, 0, 55, 35
1, 23042, Control_c, 0, 64, 0
1, 23093, Control_c, 0, 64, 127
1, 23200, Note_on_c, 0, 62, 37
1, 23211, Note_on_c, 0, 59, 0
1, 23281, Note_on_c, 0, 55, 0
1, 23360, Tempo, 851064
1, 23360, Note_on_c, 0, 67, 32
1, 23370, Note_on_c, 0, 62, 0
1, 23520, Tempo, 869565
1, 23520, Note_on_c, 0, 67, 0
1, 23520, Note_on_c, 0, 79, 56
1, 23520, Note_on_c, 0, 49, 35
1, 23520, Note_on_c, 0, 58, 35
1, 23527, Control_c, 0, 64, 0
1, 23531, Note_on_c, 0, 71, 0
1, 23576, Control_c, 0, 64, 127
1, 23680, Note_on_c, 0, 64, 38
1, 23690, Note_on_c, 0, 58, 0
1, 23760, Note_on_c, 0, 49, 0
1, 23840, Tempo, 851064
1, 23840, Note_on_c, 0, 67, 32
1, 23850, Note_on_c, 0, 64, 0
1, 24000, Tempo, 882353
1, 24000, Note_on_c, 0, 67, 0
1, 24000, Note_on_c, 0, 79, 0
1, 24000, Note_on_c, 0, 78, 53
1, 24000, Control_c, 0, 64, 0
1, 24000, Note_on_c, 0, 50, 35
1, 24000, Note_on_c, 0, 57, 35
1, 24049, Control_c, 0, 64, 127
1, 24160, Tempo, 845070
1, 24160, Note_on_c, 0, 62, 37
1, 24170, Note_on_c, 0, 57, 0
1, 24240, Note_on_c, 0, 50, 0
1, 24320, Note_on_c, 0, 66, 27
1, 24330, Note_on_c, 0, 62, 0
1, 24360, Tempo, 869565
1, 24360, Note_on_c, 0, 76, 38
1, 24370, Note_on_c, 0, 78, 0
1, 24480, Tempo, 895522
1, 24480, Note_on_c, 0, 66, 0
1, 24480, Note_on_c, 0, 74, 38
1, 24480, Note_on_c, 0, 54, 26
1, 24480, Note_on_c, 0, 60, 26
1, 24486, Control_c, 0, 64, 0
1, 24490, Note_on_c, 0, 76, 0
1, 24540, Control_c, 0, 64, 127
1, 24640, Note_on_c, 0, 62, 28
1, 24650, Note_on_c, 0, 60, 0
1, 24720, Note_on_c, 0, 54, 0
1, 24800, Tempo, 909091
1, 24800, Note_on_c, 0, 69, 27
1, 24810, Note_on_c, 0, 62, 0
1, 24960, Tempo, 877193
1, 24960, Note_on_c, 0, 69, 0
1, 24960, Note_on_c, 0, 74, 0
1, 24960, Control_c, 0, 91, 127
1, 24960, Control_c, 0, 64, 0
1, 24960, Control_c, 0, 91, 127
1, 24961, Note_on_c, 0, 71, 58
1, 24961, Note_on_c, 0, 59, 35
1, 24961, Note_on_c, 0, 55, 35
1, 25024, Control_c, 0, 64, 127
1, 25120, Note_on_c, 0, 62, 37
1, 25131, Note_on_c, 0, 59, 0
1, 25201, Note_on_c, 0, 55, 0
1, 25280, Tempo, 902256
1, 25280, Note_on_c, 0, 67, 37
1, 25290, Note_on_c, 0, 62, 0
1, 25440, Tempo, 889284
1, 25440, Note_on_c, 0, 67, 0
1, 25440, Note_on_c, 0, 79, 60
1, 25440, Note_on_c, 0, 47, 38
1, 25440, Note_on_c, 0, 55, 38
1, 25451, Note_on_c, 0, 71, 0
1, 25600, Note_on_c, 0, 62, 41
1, 25680, Note_on_c, 0, 47, 0
1, 25760, Tempo, 889284
1, 25760, Note_on_c, 0, 67, 41
1, 25770, Note_on_c, 0, 62, 0
1, 25920, Tempo, 875912
1, 25920, Note_on_c, 0, 79, 0
1, 25920, Note_on_c, 0, 67, 0
1, 25920, Note_on_c, 0, 76, 57
1, 25920, Control_c, 0, 64, 0
1, 25920, Note_on_c, 0, 48, 38
1, 25959, Control_c, 0, 64, 127
1, 26080, Tempo, 857143
1, 26080, Note_on_c, 0, 55, 0
1, 26080, Note_on_c, 0, 64, 40
1, 26160, Note_on_c, 0, 48, 0
1, 26240, Note_on_c, 0, 67, 40
1, 26250, Note_on_c, 0, 64, 0
1, 26280, Tempo, 875912
1, 26280, Note_on_c, 0, 74, 52
1, 26290, Note_on_c, 0, 76, 0
1, 26400, Tempo, 895522
1, 26400, Note_on_c, 0, 67, 0
1, 26400, Note_on_c, 0, 72, 49
1, 26400, Note_on_c, 0, 52, 38
1, 26400, Note_on_c, 0, 55, 38
1, 26410, Note_on_c, 0, 74, 0
1, 26418, Control_c, 0, 64, 0
1, 26464, Control_c, 0, 64, 127
1, 26560, Note_on_c, 0, 60, 40
1, 26570, Note_on_c, 0, 55, 0
1, 26640, Note_on_c, 0, 52, 0
1, 26720, Tempo, 863309
1, 26720, Note_on_c, 0, 67, 40
1, 26730, Note_on_c, 0, 60, 0
1, 26880, Tempo, 883262
1, 26880, Note_on_c, 0, 67, 0
1, 26880, Note_on_c, 0, 72, 0
1, 26880, Note_on_c, 0, 69, 51
1, 26880, Control_c, 0, 64, 0
1, 26880, Note_on_c, 0, 50, 28
1, 26880, Note_on_c, 0, 55, 28
1, 26919, Control_c, 0, 64, 127
1, 27040, Tempo, 908128
1, 27040, Note_on_c, 0, 60, 32
1, 27050, Note_on_c, 0, 55, 0
1, 27120, Note_on_c, 0, 50, 0
1, 27200, Tempo, 937500
1, 27200, Note_on_c, 0, 67, 29
1, 27210, Note_on_c, 0, 60, 0
1, 27360, Tempo, 921093
1, 27360, Note_on_c, 0, 67, 0
1, 27360, Note_on_c, 0, 74, 48
1, 27360, Note_on_c, 0, 50, 26
1, 27360, Note_on_c, 0, 54, 26
1, 27367, Control_c, 0, 64, 0
1, 27370, Note_on_c, 0, 69, 0
1, 27420, Control_c, 0, 64, 127
1, 27520, Note_on_c, 0, 60, 31
1, 27530, Note_on_c, 0, 54, 0
1, 27600, Note_on_c, 0, 50, 0
1, 27680, Tempo, 962310
1, 27680, Note_on_c, 0, 69, 26
1, 27690, Note_on_c, 0, 60, 0
1, 27840, Tempo, 914495
1, 27840, Note_on_c, 0, 69, 0
1, 27840, Note_on_c, 0, 74, 0
1, 27840, Note_on_c, 0, 71, 45
1, 27840, Control_c, 0, 64, 0
1, 27840, Note_on_c, 0, 43, 24
1, 27840, Note_on_c, 0, 50, 24
1, 27893, Control_c, 0, 64, 127
1, 28000, Note_on_c, 0, 59, 28
1, 28160, Note_on_c, 0, 67, 25
1, 28320, Tempo, 944882
1, 28320, Note_on_c, 0, 67, 0
1, 28480, Note_on_c, 0, 59, 0
1, 28480, Note_on_c, 0, 59, 26
1, 28640, Tempo, 1100917
1, 28640, Note_on_c, 0, 59, 0
1, 28640, Note_on_c, 0, 67, 21
1, 28798, Note_on_c, 0, 67, 0
1, 28800, Tempo, 857143
1, 28800, Note_on_c, 0, 71, 0
1, 28800, Note_on_c, 0, 43, 0
1, 28800, Note_on_c, 0, 50, 0
1, 28800, Note_on_c, 0, 67, 53
1, 28800, Note_on_c, 0, 71, 53
1, 28800, Control_c, 0, 64, 0
1, 28800, Note_on_c, 0, 52, 36
1, 28878, Control_c, 0, 64, 127
1, 28960, Note_on_c, 0, 59, 36
1, 29120, Note_on_c, 0, 64, 36
1, 29130, Note_on_c, 0, 59, 0
1, 29280, Note_on_c, 0, 52, 0
1, 29280, Note_on_c, 0, 64, 0
1, 29280, Note_on_c, 0, 69, 51
1, 29280, Note_on_c, 0, 72, 51
1, 29280, Note_on_c, 0, 45, 36
1, 29286, Control_c, 0, 64, 0
1, 29290, Note_on_c, 0, 71, 0
1, 29290, Note_on_c, 0, 67, 0
1, 29358, Control_c, 0, 64, 127
1, 29440, Note_on_c, 0, 57, 36
1, 29600, Tempo, 882353
1, 29600, Note_on_c, 0, 64, 36
1, 29610, Note_on_c, 0, 57, 0
1, 29760, Tempo, 857143
1, 29760, Note_on_c, 0, 72, 0
1, 29760, Note_on_c, 0, 45, 0
1, 29760, Note_on_c, 0, 69, 0
1, 29760, Note_on_c, 0, 64, 0
1, 29760, Note_on_c, 0, 66, 53
1, 29760, Note_on_c, 0, 69, 53
1, 29760, Control_c, 0, 64, 0
1, 29760, Note_on_c, 0, 50, 36
1, 29813, Control_c, 0, 64, 127
1, 29920, Note_on_c, 0, 57, 41
1, 30080, Note_on_c, 0, 62, 40
1, 30090, Note_on_c, 0, 57, 0
1, 30120, Note_on_c, 0, 50, 0
1, 30120, Note_on_c, 0, 48, 48
1, 30240, Note_on_c, 0, 48, 0
1, 30240, Note_on_c, 0, 62, 0
1, 30240, Note_on_c, 0, 67, 52
1, 30240, Note_on_c, 0, 71, 52
1, 30240, Note_on_c, 0, 47, 35
1, 30249, Control_c, 0, 64, 0
1, 30250, Note_on_c, 0, 69, 0
1, 30250, Note_on_c, 0, 66, 0
1, 30332, Control_c, 0, 64, 127
1, 30400, Note_on_c, 0, 55, 35
1, 30560, Note_on_c, 0, 62, 35
1, 30570, Note_on_c, 0, 55, 0
1, 30720, Tempo, 875912
1, 30720, Note_on_c, 0, 71, 0
1, 30720, Note_on_c, 0, 47, 0
1, 30720, Note_on_c, 0, 67, 0
1, 30720, Note_on_c, 0, 62, 0
1, 30720, Note_on_c, 0, 64, 48
1, 30720, Note_on_c, 0, 67, 48
1, 30720, Control_c, 0, 64, 0
1, 30720, Note_on_c, 0, 48, 27
1, 30791, Control_c, 0, 64, 127
1, 30880, Note_on_c, 0, 55, 27
1, 31040, Note_on_c, 0, 60, 27
1, 31050, Note_on_c, 0, 55, 0
1, 31200, Note_on_c, 0, 48, 0
1, 31200, Note_on_c, 0, 60, 0
1, 31200, Note_on_c, 0, 64, 0
1, 31200, Note_on_c, 0, 64, 45
1, 31200, Note_on_c, 0, 69, 45
1, 31200, Note_on_c, 0, 42, 27
1, 31210, Note_on_c, 0, 67, 0
1, 31215, Control_c, 0, 64, 0
1, 31306, Control_c, 0, 64, 127
1, 31360, Note_on_c, 0, 54, 27
1, 31520, Note_on_c, 0, 60, 27
1, 31530, Note_on_c, 0, 54, 0
1, 31680, Tempo, 916031
1, 31680, Note_on_c, 0, 64, 0
1, 31680, Note_on_c, 0, 42, 0
1, 31680, Note_on_c, 0, 69, 0
1, 31680, Note_on_c, 0, 60, 0
1, 31680, Note_on_c, 0, 63, 44
1, 31680, Note_on_c, 0, 66, 44
1, 31680, Control_c, 0, 64, 0
1, 31680, Note_on_c, 0, 47, 27
1, 31751, Control_c, 0, 64, 127
1, 31840, Note_on_c, 0, 54, 33
1, 32000, Note_on_c, 0, 59, 34
1, 32010, Note_on_c, 0, 54, 0
1, 32040, Note_on_c, 0, 47, 0
1, 32040, Note_on_c, 0, 45, 39
1, 32160, Tempo, 882353
1, 32160, Note_on_c, 0, 45, 0
1, 32160, Note_on_c, 0, 59, 0
1, 32160, Note_on_c, 0, 66, 0
1, 32160, Note_on_c, 0, 63, 0
1, 32160, Note_on_c, 0, 62, 40
1, 32160, Note_on_c, 0, 67, 40
1, 32160, Note_on_c, 0, 43, 27
1, 32169, Control_c, 0, 64, 0
1, 32266, Control_c, 0, 64, 127
1, 32320, Note_on_c, 0, 55, 27
1, 32480, Note_on_c, 0, 59, 27
1, 32490, Note_on_c, 0, 55, 0
1, 32640, Note_on_c, 0, 43, 0
1, 32640, Note_on_c, 0, 62, 0
1, 32640, Note_on_c, 0, 67, 0
1, 32640, Note_on_c, 0, 59, 0
1, 32640, Note_on_c, 0, 64, 49
1, 32640, Control_c, 0, 64, 0
1, 32640, Note_on_c, 0, 48, 31
1, 32767, Control_c, 0, 64, 127
1, 32800, Note_on_c, 0, 55, 31
1, 32960, Note_on_c, 0, 60, 31
1, 32970, Note_on_c, 0, 55, 0
1, 33120, Note_on_c, 0, 60, 0
1, 33120, Note_on_c, 0, 48, 0
1, 33120, Note_on_c, 0, 66, 48
1, 33120, Note_on_c, 0, 48, 31
1, 33120, Note_on_c, 0, 50, 31
1, 33130, Note_on_c, 0, 64, 0
1, 33134, Control_c, 0, 64, 0
1, 33212, Control_c, 0, 64, 127
1, 33280, Note_on_c, 0, 57, 31
1, 33290, Note_on_c, 0, 50, 0
1, 33440, Note_on_c, 0, 62, 31
1, 33450, Note_on_c, 0, 57, 0
1, 33600, Note_on_c, 0, 66, 0
1, 33600, Note_on_c, 0, 48, 0
1, 33600, Note_on_c, 0, 62, 0
1, 33600, Note_on_c, 0, 67, 52
1, 33600, Control_c, 0, 64, 0
1, 33600, Note_on_c, 0, 47, 31
1, 33600, Note_on_c, 0, 50, 31
1, 33660, Control_c, 0, 64, 127
1, 33760, Note_on_c, 0, 55, 34
1, 33920, Note_on_c, 0, 55, 0
1, 33920, Note_on_c, 0, 62, 34
1, 33960, Tempo, 916031
1, 33960, Note_on_c, 0, 47, 0
1, 33960, Note_on_c, 0, 69, 50
1, 33960, Note_on_c, 0, 45, 39
1, 33970, Note_on_c, 0, 67, 0
1, 34080, Tempo, 1600000
1, 34080, Note_on_c, 0, 69, 0
1, 34080, Note_on_c, 0, 62, 0
1, 34080, Note_on_c, 0, 45, 0
1, 34080, Note_on_c, 0, 71, 53
1, 34080, Note_on_c, 0, 43, 31
1, 34089, Control_c, 0, 64, 0
1, 34176, Control_c, 0, 64, 127
1, 34240, Tempo, 1034483
1, 34240, Note_on_c, 0, 57, 25
1, 34400, Tempo, 1008403
1, 34400, Note_on_c, 0, 62, 25
1, 34440, Note_on_c, 0, 72, 38
1, 34450, Note_on_c, 0, 71, 0
1, 34560, Tempo, 895522
1, 34560, Note_on_c, 0, 43, 0
1, 34560, Note_on_c, 0, 57, 0
1, 34560, Note_on_c, 0, 50, 0
1, 34560, Note_on_c, 0, 72, 0
1, 34560, Note_on_c, 0, 62, 0
1, 34560, Note_on_c, 0, 74, 44
1, 34560, Control_c, 0, 91, 127
1, 34560, Control_c, 0, 91, 127
1, 34561, Note_on_c, 0, 59, 35
1, 34561, Note_on_c, 0, 55, 35
1, 34578, Control_c, 0, 64, 0
1, 34659, Control_c, 0, 64, 127
1, 34720, Note_on_c, 0, 62, 37
1, 34731, Note_on_c, 0, 59, 0
1, 34801, Note_on_c, 0, 55, 0
1, 34880, Tempo, 845070
1, 34880, Note_on_c, 0, 67, 32
1, 34890, Note_on_c, 0, 62, 0
1, 35040, Tempo, 875912
1, 35040, Note_on_c, 0, 67, 0
1, 35040, Note_on_c, 0, 79, 48
1, 35040, Note_on_c, 0, 49, 35
1, 35040, Note_on_c, 0, 58, 35
1, 35047, Control_c, 0, 64, 0
1, 35050, Note_on_c, 0, 74, 0
1, 35100, Control_c, 0, 64, 127
1, 35200, Note_on_c, 0, 64, 38
1, 35210, Note_on_c, 0, 58, 0
1, 35280, Note_on_c, 0, 49, 0
1, 35360, Tempo, 845070
1, 35360, Note_on_c, 0, 67, 32
1, 35370, Note_on_c, 0, 64, 0
1, 35520, Tempo, 895522
1, 35520, Note_on_c, 0, 67, 0
1, 35520, Note_on_c, 0, 79, 0
1, 35520, Note_on_c, 0, 78, 48
1, 35520, Control_c, 0, 64, 0
1, 35520, Note_on_c, 0, 50, 35
1, 35520, Note_on_c, 0, 57, 35
1, 35569, Control_c, 0, 64, 127
1, 35680, Tempo, 851064
1, 35680, Note_on_c, 0, 62, 37
1, 35690, Note_on_c, 0, 57, 0
1, 35760, Note_on_c, 0, 50, 0
1, 35840, Note_on_c, 0, 66, 27
1, 35850, Note_on_c, 0, 62, 0
1, 35880, Tempo, 833333
1, 35880, Note_on_c, 0, 76, 37
1, 35890, Note_on_c, 0, 78, 0
1, 36000, Tempo, 901713
1, 36000, Note_on_c, 0, 66, 0
1, 36000, Note_on_c, 0, 74, 37
1, 36000, Note_on_c, 0, 54, 26
1, 36000, Note_on_c, 0, 60, 26
1, 36002, Control_c, 0, 64, 0
1, 36010, Note_on_c, 0, 76, 0
1, 36060, Control_c, 0, 64, 127
1, 36160, Note_on_c, 0, 62, 28
1, 36170, Note_on_c, 0, 60, 0
1, 36240, Note_on_c, 0, 54, 0
1, 36320, Tempo, 845070
1, 36320, Note_on_c, 0, 69, 27
1, 36330, Note_on_c, 0, 62, 0
1, 36480, Tempo, 882353
1, 36480, Note_on_c, 0, 69, 0
1, 36480, Note_on_c, 0, 74, 0
1, 36480, Control_c, 0, 91, 127
1, 36480, Control_c, 0, 64, 0
1, 36480, Control_c, 0, 91, 127
1, 36481, Note_on_c, 0, 71, 50
1, 36481, Note_on_c, 0, 59, 35
1, 36481, Note_on_c, 0, 55, 35
1, 36551, Control_c, 0, 64, 127
1, 36640, Note_on_c, 0, 62, 37
1, 36651, Note_on_c, 0, 59, 0
1, 36721, Note_on_c, 0, 55, 0
1, 36800, Tempo, 851064
1, 36800, Note_on_c, 0, 67, 32
1, 36810, Note_on_c, 0, 62, 0
1, 36960, Tempo, 869565
1, 36960, Note_on_c, 0, 67, 0
1, 36960, Note_on_c, 0, 79, 56
1, 36960, Note_on_c, 0, 49, 35
1, 36960, Note_on_c, 0, 58, 35
1, 36967, Control_c, 0, 64, 0
1, 36971, Note_on_c, 0, 71, 0
1, 37013, Control_c, 0, 64, 127
1, 37120, Note_on_c, 0, 64, 38
1, 37130, Note_on_c, 0, 58, 0
1, 37200, Note_on_c, 0, 49, 0
1, 37280, Tempo, 851064
1, 37280, Note_on_c, 0, 67, 32
1, 37290, Note_on_c, 0, 64, 0
1, 37440, Tempo, 869565
1, 37440, Note_on_c, 0, 67, 0
1, 37440, Note_on_c, 0, 79, 0
1, 37440, Note_on_c, 0, 78, 53
1, 37440, Note_on_c, 0, 50, 35
1, 37440, Note_on_c, 0, 57, 35
1, 37454, Control_c, 0, 64, 0
1, 37493, Control_c, 0, 64, 127
1, 37600, Tempo, 851064
1, 37600, Note_on_c, 0, 62, 37
1, 37610, Note_on_c, 0, 57, 0
1, 37680, Note_on_c, 0, 50, 0
1, 37760, Note_on_c, 0, 66, 28
1, 37770, Note_on_c, 0, 62, 0
1, 37800, Tempo, 839161
1, 37800, Note_on_c, 0, 76, 38
1, 37810, Note_on_c, 0, 78, 0
1, 37920, Tempo, 895522
1, 37920, Note_on_c, 0, 66, 0
1, 37920, Note_on_c, 0, 74, 38
1, 37920, Note_on_c, 0, 54, 27
1, 37920, Note_on_c, 0, 60, 27
1, 37930, Note_on_c, 0, 76, 0
1, 37930, Control_c, 0, 64, 0
1, 37980, Control_c, 0, 64, 127
1, 38080, Note_on_c, 0, 62, 28
1, 38090, Note_on_c, 0, 60, 0
1, 38160, Note_on_c, 0, 54, 0
1, 38240, Tempo, 909091
1, 38240, Note_on_c, 0, 69, 26
1, 38250, Note_on_c, 0, 62, 0
1, 38400, Tempo, 877193
1, 38400, Note_on_c, 0, 69, 0
1, 38400, Note_on_c, 0, 74, 0
1, 38400, Control_c, 0, 91, 127
1, 38400, Control_c, 0, 64, 0
1, 38400, Control_c, 0, 91, 127
1, 38401, Note_on_c, 0, 71, 58
1, 38401, Note_on_c, 0, 59, 35
1, 38401, Note_on_c, 0, 55, 35
1, 38527, Control_c, 0, 64, 127
1, 38560, Note_on_c, 0, 62, 37
1, 38571, Note_on_c, 0, 59, 0
1, 38641, Note_on_c, 0, 55, 0
1, 38720, Tempo, 902256
1, 38720, Note_on_c, 0, 67, 37
1, 38730, Note_on_c, 0, 62, 0
1, 38880, Tempo, 889284
1, 38880, Note_on_c, 0, 67, 0
1, 38880, Note_on_c, 0, 79, 60
1, 38880, Note_on_c, 0, 47, 38
1, 38880, Note_on_c, 0, 55, 38
1, 38891, Note_on_c, 0, 71, 0
1, 39040, Note_on_c, 0, 62, 41
1, 39120, Note_on_c, 0, 47, 0
1, 39200, Tempo, 889284
1, 39200, Note_on_c, 0, 67, 41
1, 39210, Note_on_c, 0, 62, 0
1, 39360, Tempo, 901713
1, 39360, Note_on_c, 0, 79, 0
1, 39360, Note_on_c, 0, 67, 0
1, 39360, Note_on_c, 0, 76, 57
1, 39360, Note_on_c, 0, 48, 38
1, 39362, Control_c, 0, 64, 0
1, 39413, Control_c, 0, 64, 127
1, 39520, Tempo, 863309
1, 39520, Note_on_c, 0, 55, 0
1, 39520, Note_on_c, 0, 64, 40
1, 39600, Note_on_c, 0, 48, 0
1, 39680, Note_on_c, 0, 67, 40
1, 39690, Note_on_c, 0, 64, 0
1, 39720, Tempo, 845070
1, 39720, Note_on_c, 0, 74, 52
1, 39730, Note_on_c, 0, 76, 0
1, 39840, Tempo, 895522
1, 39840, Note_on_c, 0, 67, 0
1, 39840, Note_on_c, 0, 72, 49
1, 39840, Note_on_c, 0, 52, 38
1, 39840, Note_on_c, 0, 55, 38
1, 39850, Note_on_c, 0, 74, 0
1, 39854, Control_c, 0, 64, 0
1, 39896, Control_c, 0, 64, 127
1, 40000, Note_on_c, 0, 60, 40
1, 40010, Note_on_c, 0, 55, 0
1, 40080, Note_on_c, 0, 52, 0
1, 40160, Tempo, 863309
1, 40160, Note_on_c, 0, 67, 40
1, 40170, Note_on_c, 0, 60, 0
1, 40320, Tempo, 883262
1, 40320, Note_on_c, 0, 67, 0
1, 40320, Note_on_c, 0, 72, 0
1, 40320, Note_on_c, 0, 69, 51
1, 40320, Note_on_c, 0, 50, 28
1, 40320, Note_on_c, 0, 55, 28
1, 40327, Control_c, 0, 64, 0
1, 40366, Control_c, 0, 64, 127
1, 40480, Tempo, 908128
1, 40480, Note_on_c, 0, 60, 32
1, 40490, Note_on_c, 0, 55, 0
1, 40560, Note_on_c, 0, 50, 0
1, 40640, Tempo, 937500
1, 40640, Note_on_c, 0, 67, 29
1, 40650, Note_on_c, 0, 60, 0
1, 40800, Tempo, 937500
1, 40800, Note_on_c, 0, 67, 0
1, 40800, Note_on_c, 0, 74, 48
1, 40800, Note_on_c, 0, 50, 26
1, 40800, Note_on_c, 0, 54, 26
1, 40810, Note_on_c, 0, 69, 0
1, 40815, Control_c, 0, 64, 0
1, 40856, Control_c, 0, 64, 127
1, 40960, Note_on_c, 0, 60, 31
1, 40970, Note_on_c, 0, 54, 0
1, 41040, Note_on_c, 0, 50, 0
1, 41120, Tempo, 962310
1, 41120, Note_on_c, 0, 69, 26
1, 41130, Note_on_c, 0, 60, 0
1, 41280, Tempo, 967742
1, 41280, Note_on_c, 0, 69, 0
1, 41280, Note_on_c, 0, 74, 0
1, 41280, Note_on_c, 0, 71, 45
1, 41280, Control_c, 0, 64, 0
1, 41280, Note_on_c, 0, 43, 24
1, 41280, Note_on_c, 0, 50, 24
1, 41336, Control_c, 0, 64, 127
1, 41440, Note_on_c, 0, 59, 28
1, 41600, Note_on_c, 0, 67, 25
1, 41760, Tempo, 1237113
1, 41760, Note_on_c, 0, 67, 0
1, 41920, Note_on_c, 0, 59, 0
1, 41920, Note_on_c, 0, 59, 24
1, 42080, Note_on_c, 0, 67, 19
1, 42090, Note_on_c, 0, 59, 0
1, 42240, Marker_t, "Fine"
1, 42240, Note_on_c, 0, 71, 0
1, 42240, Note_on_c, 0, 50, 0
1, 42240, Note_on_c, 0, 43, 0
1, 42240, Note_on_c, 0, 67, 0
1, 42827, Control_c, 0, 64, 0
1, 42827, End_track
0, 0, End_of_file
