0, 0, Header, 0, 1, 480
1, 0, Start_track
1, 0, Title_t, "Die Jahreszeiten"
1, 0, Title_t, "Juni"
1, 0, Copyright_t, "Copyright © 2004 by Bernd Krueger"
1, 0, Text_t, "Peter Tschaikowsky"
1, 0, Text_t, "Andante cantabile"
1, 0, Text_t, "Fertiggestellt am  5.9.2000\012"
1, 0, Text_t, "Normierung: 23.12.2002\012"
1, 0, Text_t, "Update am 17.8.2004\012"
1, 0, Text_t, "Update am 16.9.2008\012"
1, 0, Text_t, "Dauer: 3:54 Minuten\012"
1, 0, SMPTE_offset, 96, 0, 3, 0, 0
1, 0, Time_signature, 4, 2, 24, 8
1, 0, Key_signature, -2, "major"
1, 0, Tempo, 626566
1, 0, Program_c, 0, 0
1, 0, Control_c, 0, 7, 100
1, 0, Control_c, 0, 10, 64
1, 0, Control_c, 0, 91, 127
1, 0, Text_t, "bdca426d104a26ac9dcb070447587523"
1, 0, Program_c, 0, 0
1, 0, Control_c, 0, 7, 100
1, 0, Control_c, 0, 10, 64
1, 0, Note_on_c, 0, 43, 40
1, 0, Control_c, 0, 64, 0
1, 213, Control_c, 0, 64, 127
1, 480, Note_on_c, 0, 43, 0
1, 480, Note_on_c, 0, 50, 38
1, 960, Note_on_c, 0, 50, 0
1, 960, Note_on_c, 0, 58, 28
1, 960, Note_on_c, 0, 55, 28
1, 960, Note_on_c, 0, 62, 34
1, 1920, Note_on_c, 0, 62, 0
1, 1920, Note_on_c, 0, 55, 0
1, 1920, Note_on_c, 0, 58, 0
1, 1920, Note_on_c, 0, 43, 40
1, 1925, Control_c, 0, 64, 0
1, 2091, Control_c, 0, 64, 127
1, 2400, Note_on_c, 0, 43, 0
1, 2400, Note_on_c, 0, 50, 38
1, 2880, Note_on_c, 0, 50, 0
1, 2880, Note_on_c, 0, 62, 35
1, 2880, Note_on_c, 0, 55, 35
1, 2880, Note_on_c, 0, 58, 35
1, 3120, Tempo, 612182
1, 3120, Note_on_c, 0, 62, 53
1, 3360, Tempo, 591133
1, 3360, Note_on_c, 0, 62, 0
1, 3360, Note_on_c, 0, 64, 54
1, 3600, Tempo, 609137
1, 3600, Note_on_c, 0, 64, 0
1, 3600, Note_on_c, 0, 66, 56
1, 3840, Tempo, 621762
1, 3840, Note_on_c, 0, 66, 0
1, 3840, Note_on_c, 0, 62, 0
1, 3840, Note_on_c, 0, 55, 0
1, 3840, Note_on_c, 0, 58, 0
1, 3840, Note_on_c, 0, 67, 57
1, 3840, Note_on_c, 0, 43, 40
1, 3850, Control_c, 0, 64, 0
1, 3954, Control_c, 0, 64, 127
1, 4080, Tempo, 597015
1, 4080, Note_on_c, 0, 67, 0
1, 4080, Note_on_c, 0, 69, 59
1, 4320, Note_on_c, 0, 69, 0
1, 4320, Note_on_c, 0, 43, 0
1, 4320, Note_on_c, 0, 70, 61
1, 4320, Note_on_c, 0, 50, 37
1, 4560, Note_on_c, 0, 70, 0
1, 4560, Note_on_c, 0, 72, 63
1, 4800, Tempo, 641711
1, 4800, Note_on_c, 0, 72, 0
1, 4800, Note_on_c, 0, 50, 0
1, 4800, Note_on_c, 0, 74, 65
1, 4800, Note_on_c, 0, 58, 34
1, 4800, Note_on_c, 0, 62, 40
1, 4800, Note_on_c, 0, 55, 34
1, 4820, Control_c, 0, 64, 0
1, 4937, Control_c, 0, 64, 127
1, 5040, Tempo, 579710
1, 5040, Note_on_c, 0, 74, 0
1, 5040, Note_on_c, 0, 79, 68
1, 5280, Tempo, 597015
1, 5280, Note_on_c, 0, 79, 0
1, 5280, Note_on_c, 0, 55, 0
1, 5280, Note_on_c, 0, 62, 0
1, 5280, Note_on_c, 0, 58, 0
1, 5280, Note_on_c, 0, 78, 66
1, 5280, Note_on_c, 0, 45, 45
1, 5520, Tempo, 655738
1, 5520, Note_on_c, 0, 78, 0
1, 5520, Note_on_c, 0, 79, 58
1, 5760, Tempo, 594059
1, 5760, Note_on_c, 0, 79, 0
1, 5760, Note_on_c, 0, 45, 0
1, 5760, Note_on_c, 0, 74, 53
1, 5760, Note_on_c, 0, 46, 44
1, 5772, Control_c, 0, 64, 0
1, 5920, Control_c, 0, 64, 127
1, 6240, Tempo, 609137
1, 6240, Note_on_c, 0, 46, 0
1, 6240, Note_on_c, 0, 55, 38
1, 6720, Tempo, 608704
1, 6720, Note_on_c, 0, 55, 0
1, 6720, Note_on_c, 0, 74, 0
1, 6720, Note_on_c, 0, 62, 29
1, 6720, Note_on_c, 0, 67, 35
1, 6735, Control_c, 0, 64, 0
1, 6946, Control_c, 0, 64, 127
1, 6960, Tempo, 615700
1, 6960, Note_on_c, 0, 74, 56
1, 7160, Tempo, 630252
1, 7198, Note_on_c, 0, 67, 0
1, 7200, Note_on_c, 0, 74, 0
1, 7200, Note_on_c, 0, 62, 0
1, 7200, Note_on_c, 0, 63, 31
1, 7200, Note_on_c, 0, 69, 59
1, 7200, Note_on_c, 0, 67, 31
1, 7200, Note_on_c, 0, 48, 35
1, 7440, Tempo, 641711
1, 7440, Note_on_c, 0, 69, 0
1, 7440, Note_on_c, 0, 72, 51
1, 7680, Tempo, 605205
1, 7680, Note_on_c, 0, 72, 0
1, 7680, Note_on_c, 0, 48, 0
1, 7680, Note_on_c, 0, 67, 0
1, 7680, Note_on_c, 0, 63, 0
1, 7680, Note_on_c, 0, 62, 45
1, 7680, Note_on_c, 0, 67, 45
1, 7680, Note_on_c, 0, 70, 53
1, 7680, Note_on_c, 0, 50, 42
1, 7700, Control_c, 0, 64, 0
1, 7829, Control_c, 0, 64, 127
1, 7920, Tempo, 616270
1, 7920, Note_on_c, 0, 50, 0
1, 7920, Note_on_c, 0, 62, 0
1, 7920, Note_on_c, 0, 67, 0
1, 7920, Note_on_c, 0, 70, 0
1, 7920, Note_on_c, 0, 63, 50
1, 8160, Tempo, 625652
1, 8160, Note_on_c, 0, 63, 0
1, 8160, Note_on_c, 0, 55, 29
1, 8160, Note_on_c, 0, 58, 29
1, 8160, Note_on_c, 0, 61, 47
1, 8400, Note_on_c, 0, 61, 0
1, 8400, Note_on_c, 0, 58, 0
1, 8400, Note_on_c, 0, 55, 0
1, 8400, Note_on_c, 0, 63, 39
1, 8640, Tempo, 619323
1, 8640, Note_on_c, 0, 63, 0
1, 8640, Note_on_c, 0, 55, 34
1, 8640, Note_on_c, 0, 58, 34
1, 8640, Note_on_c, 0, 62, 40
1, 8660, Control_c, 0, 64, 0
1, 8781, Control_c, 0, 64, 127
1, 8880, Tempo, 626566
1, 8880, Note_on_c, 0, 62, 0
1, 8880, Note_on_c, 0, 58, 0
1, 8880, Note_on_c, 0, 55, 0
1, 8880, Note_on_c, 0, 70, 53
1, 8920, Tempo, 626566
1, 9120, Tempo, 630252
1, 9120, Note_on_c, 0, 70, 0
1, 9120, Note_on_c, 0, 60, 46
1, 9120, Note_on_c, 0, 66, 57
1, 9120, Note_on_c, 0, 50, 42
1, 9360, Note_on_c, 0, 66, 0
1, 9360, Note_on_c, 0, 69, 49
1, 9600, Tempo, 604169
1, 9600, Note_on_c, 0, 69, 0
1, 9600, Note_on_c, 0, 50, 0
1, 9600, Note_on_c, 0, 60, 0
1, 9600, Note_on_c, 0, 58, 47
1, 9600, Note_on_c, 0, 67, 53
1, 9600, Note_on_c, 0, 43, 46
1, 9615, Control_c, 0, 64, 0
1, 9714, Control_c, 0, 64, 127
1, 9840, Tempo, 619451
1, 9840, Note_on_c, 0, 51, 42
1, 10080, Tempo, 632111
1, 10080, Note_on_c, 0, 51, 0
1, 10080, Note_on_c, 0, 49, 37
1, 10320, Note_on_c, 0, 49, 0
1, 10320, Note_on_c, 0, 51, 32
1, 10560, Note_on_c, 0, 51, 0
1, 10560, Note_on_c, 0, 58, 0
1, 10560, Note_on_c, 0, 67, 0
1, 10560, Note_on_c, 0, 50, 35
1, 10580, Control_c, 0, 64, 0
1, 10789, Control_c, 0, 64, 127
1, 10800, Tempo, 612182
1, 10800, Note_on_c, 0, 62, 52
1, 11040, Tempo, 597015
1, 11040, Note_on_c, 0, 62, 0
1, 11040, Note_on_c, 0, 64, 54
1, 11040, Note_on_c, 0, 60, 48
1, 11280, Tempo, 609137
1, 11280, Note_on_c, 0, 64, 0
1, 11280, Note_on_c, 0, 66, 55
1, 11520, Tempo, 618557
1, 11520, Note_on_c, 0, 66, 0
1, 11520, Note_on_c, 0, 60, 0
1, 11520, Note_on_c, 0, 50, 0
1, 11520, Note_on_c, 0, 43, 0
1, 11520, Note_on_c, 0, 67, 57
1, 11520, Note_on_c, 0, 58, 51
1, 11520, Note_on_c, 0, 43, 40
1, 11540, Control_c, 0, 64, 0
1, 11732, Control_c, 0, 64, 127
1, 11760, Tempo, 603015
1, 11760, Note_on_c, 0, 58, 0
1, 11760, Note_on_c, 0, 67, 0
1, 11760, Note_on_c, 0, 69, 59
1, 12000, Note_on_c, 0, 69, 0
1, 12000, Note_on_c, 0, 43, 0
1, 12000, Note_on_c, 0, 70, 61
1, 12000, Note_on_c, 0, 50, 37
1, 12240, Note_on_c, 0, 70, 0
1, 12240, Note_on_c, 0, 72, 63
1, 12480, Tempo, 628272
1, 12480, Note_on_c, 0, 72, 0
1, 12480, Note_on_c, 0, 50, 0
1, 12480, Note_on_c, 0, 74, 68
1, 12480, Note_on_c, 0, 58, 34
1, 12480, Note_on_c, 0, 62, 40
1, 12480, Note_on_c, 0, 55, 34
1, 12500, Control_c, 0, 64, 0
1, 12706, Control_c, 0, 64, 127
1, 12720, Tempo, 585366
1, 12720, Note_on_c, 0, 74, 0
1, 12720, Note_on_c, 0, 79, 63
1, 12960, Tempo, 597015
1, 12960, Note_on_c, 0, 79, 0
1, 12960, Note_on_c, 0, 55, 0
1, 12960, Note_on_c, 0, 62, 0
1, 12960, Note_on_c, 0, 58, 0
1, 12960, Note_on_c, 0, 75, 40
1, 12960, Note_on_c, 0, 77, 61
1, 12960, Note_on_c, 0, 72, 36
1, 12960, Note_on_c, 0, 65, 33
1, 12960, Note_on_c, 0, 45, 42
1, 13200, Tempo, 626566
1, 13200, Note_on_c, 0, 77, 0
1, 13200, Note_on_c, 0, 79, 59
1, 13440, Tempo, 612182
1, 13440, Note_on_c, 0, 79, 0
1, 13440, Note_on_c, 0, 45, 0
1, 13440, Note_on_c, 0, 75, 0
1, 13440, Note_on_c, 0, 72, 0
1, 13440, Note_on_c, 0, 65, 0
1, 13440, Note_on_c, 0, 70, 46
1, 13440, Note_on_c, 0, 74, 55
1, 13440, Note_on_c, 0, 65, 46
1, 13440, Note_on_c, 0, 46, 44
1, 13459, Control_c, 0, 64, 0
1, 13666, Control_c, 0, 64, 127
1, 13680, Tempo, 588235
1, 13920, Tempo, 612182
1, 13920, Note_on_c, 0, 46, 0
1, 13920, Note_on_c, 0, 53, 38
1, 14398, Note_on_c, 0, 65, 0
1, 14400, Tempo, 608704
1, 14400, Note_on_c, 0, 70, 0
1, 14400, Note_on_c, 0, 74, 0
1, 14400, Note_on_c, 0, 53, 0
1, 14400, Note_on_c, 0, 58, 28
1, 14400, Note_on_c, 0, 62, 28
1, 14400, Note_on_c, 0, 65, 39
1, 14419, Control_c, 0, 64, 0
1, 14584, Control_c, 0, 64, 127
1, 14640, Tempo, 615700
1, 14640, Note_on_c, 0, 77, 60
1, 14840, Tempo, 630252
1, 14880, Note_on_c, 0, 77, 0
1, 14880, Note_on_c, 0, 58, 0
1, 14880, Note_on_c, 0, 62, 0
1, 14880, Note_on_c, 0, 65, 0
1, 14880, Note_on_c, 0, 70, 50
1, 14880, Note_on_c, 0, 63, 50
1, 14880, Note_on_c, 0, 74, 50
1, 14880, Note_on_c, 0, 75, 63
1, 14880, Note_on_c, 0, 43, 41
1, 15120, Tempo, 641711
1, 15120, Note_on_c, 0, 75, 0
1, 15120, Note_on_c, 0, 77, 58
1, 15360, Tempo, 612182
1, 15360, Note_on_c, 0, 77, 0
1, 15360, Note_on_c, 0, 43, 0
1, 15360, Note_on_c, 0, 70, 0
1, 15360, Note_on_c, 0, 63, 0
1, 15360, Note_on_c, 0, 74, 0
1, 15360, Note_on_c, 0, 72, 60
1, 15360, Note_on_c, 0, 63, 50
1, 15360, Note_on_c, 0, 69, 50
1, 15360, Note_on_c, 0, 45, 44
1, 15372, Control_c, 0, 64, 0
1, 15520, Control_c, 0, 64, 127
1, 15840, Tempo, 612182
1, 15840, Note_on_c, 0, 45, 0
1, 15840, Note_on_c, 0, 57, 36
1, 16318, Note_on_c, 0, 63, 0
1, 16320, Tempo, 608704
1, 16320, Note_on_c, 0, 72, 0
1, 16320, Note_on_c, 0, 69, 0
1, 16320, Note_on_c, 0, 57, 0
1, 16320, Note_on_c, 0, 60, 30
1, 16320, Note_on_c, 0, 63, 30
1, 16320, Note_on_c, 0, 67, 36
1, 16334, Control_c, 0, 64, 0
1, 16461, Control_c, 0, 64, 127
1, 16560, Tempo, 615700
1, 16560, Note_on_c, 0, 75, 55
1, 16760, Tempo, 630252
1, 16800, Note_on_c, 0, 75, 0
1, 16800, Note_on_c, 0, 60, 0
1, 16800, Note_on_c, 0, 63, 0
1, 16800, Note_on_c, 0, 67, 0
1, 16800, Note_on_c, 0, 72, 38
1, 16800, Note_on_c, 0, 74, 56
1, 16800, Note_on_c, 0, 69, 37
1, 16800, Note_on_c, 0, 62, 37
1, 16800, Note_on_c, 0, 42, 36
1, 17040, Tempo, 641711
1, 17040, Note_on_c, 0, 74, 0
1, 17040, Note_on_c, 0, 75, 50
1, 17280, Tempo, 626566
1, 17280, Note_on_c, 0, 75, 0
1, 17280, Note_on_c, 0, 42, 0
1, 17280, Note_on_c, 0, 72, 0
1, 17280, Note_on_c, 0, 69, 0
1, 17280, Note_on_c, 0, 62, 0
1, 17280, Note_on_c, 0, 67, 44
1, 17280, Note_on_c, 0, 62, 44
1, 17280, Note_on_c, 0, 70, 53
1, 17280, Note_on_c, 0, 43, 39
1, 17302, Control_c, 0, 64, 0
1, 17435, Control_c, 0, 64, 127
1, 17760, Note_on_c, 0, 43, 0
1, 17760, Note_on_c, 0, 67, 0
1, 17760, Note_on_c, 0, 62, 0
1, 17760, Note_on_c, 0, 70, 0
1, 17760, Note_on_c, 0, 50, 36
1, 18240, Tempo, 615700
1, 18240, Note_on_c, 0, 50, 0
1, 18240, Note_on_c, 0, 58, 23
1, 18240, Note_on_c, 0, 55, 23
1, 18240, Note_on_c, 0, 62, 34
1, 18260, Control_c, 0, 64, 0
1, 18395, Control_c, 0, 64, 127
1, 18480, Tempo, 630252
1, 18480, Note_on_c, 0, 74, 54
1, 18720, Note_on_c, 0, 74, 0
1, 18720, Note_on_c, 0, 58, 0
1, 18720, Note_on_c, 0, 55, 0
1, 18720, Note_on_c, 0, 62, 0
1, 18720, Note_on_c, 0, 63, 35
1, 18720, Note_on_c, 0, 69, 35
1, 18720, Note_on_c, 0, 72, 56
1, 18720, Note_on_c, 0, 48, 34
1, 18960, Note_on_c, 0, 72, 0
1, 18960, Note_on_c, 0, 74, 52
1, 19200, Tempo, 641711
1, 19200, Note_on_c, 0, 74, 0
1, 19200, Note_on_c, 0, 48, 0
1, 19200, Note_on_c, 0, 69, 0
1, 19200, Note_on_c, 0, 63, 0
1, 19200, Note_on_c, 0, 72, 55
1, 19200, Note_on_c, 0, 62, 35
1, 19200, Note_on_c, 0, 67, 35
1, 19200, Note_on_c, 0, 50, 39
1, 19218, Control_c, 0, 64, 0
1, 19313, Control_c, 0, 64, 127
1, 19440, Note_on_c, 0, 72, 0
1, 19440, Note_on_c, 0, 70, 47
1, 19678, Note_on_c, 0, 62, 0
1, 19680, Note_on_c, 0, 70, 0
1, 19680, Note_on_c, 0, 67, 0
1, 19680, Note_on_c, 0, 58, 32
1, 19680, Note_on_c, 0, 69, 50
1, 19680, Note_on_c, 0, 62, 32
1, 19920, Tempo, 662983
1, 19920, Note_on_c, 0, 69, 0
1, 19920, Note_on_c, 0, 67, 49
1, 20160, Tempo, 659341
1, 20160, Note_on_c, 0, 67, 0
1, 20160, Note_on_c, 0, 62, 0
1, 20160, Note_on_c, 0, 58, 0
1, 20160, Note_on_c, 0, 64, 35
1, 20160, Note_on_c, 0, 70, 52
1, 20160, Note_on_c, 0, 61, 31
1, 20180, Control_c, 0, 64, 0
1, 20419, Control_c, 0, 64, 127
1, 20640, Tempo, 670391
1, 20640, Note_on_c, 0, 61, 0
1, 20640, Note_on_c, 0, 64, 0
1, 20640, Note_on_c, 0, 63, 29
1, 20640, Note_on_c, 0, 66, 32
1, 20640, Note_on_c, 0, 60, 30
1, 20880, Tempo, 685714
1, 20880, Note_on_c, 0, 70, 0
1, 20880, Note_on_c, 0, 69, 39
1, 21120, Tempo, 652174
1, 21120, Note_on_c, 0, 69, 0
1, 21120, Note_on_c, 0, 50, 0
1, 21120, Note_on_c, 0, 66, 0
1, 21120, Note_on_c, 0, 63, 0
1, 21120, Note_on_c, 0, 62, 40
1, 21120, Note_on_c, 0, 67, 48
1, 21120, Note_on_c, 0, 55, 28
1, 21140, Control_c, 0, 64, 0
1, 21261, Control_c, 0, 64, 127
1, 21360, Note_on_c, 0, 60, 0
1, 21360, Note_on_c, 0, 58, 32
1, 21600, Tempo, 662983
1, 21600, Note_on_c, 0, 58, 0
1, 21600, Note_on_c, 0, 55, 0
1, 21600, Note_on_c, 0, 67, 0
1, 21600, Note_on_c, 0, 62, 0
1, 21600, Note_on_c, 0, 55, 30
1, 21840, Tempo, 677966
1, 21840, Note_on_c, 0, 55, 0
1, 21840, Note_on_c, 0, 50, 30
1, 22080, Tempo, 645161
1, 22080, Note_on_c, 0, 50, 0
1, 22080, Note_on_c, 0, 43, 30
1, 22320, Tempo, 618557
1, 22320, Note_on_c, 0, 67, 67
1, 22560, Tempo, 603015
1, 22560, Note_on_c, 0, 67, 0
1, 22560, Note_on_c, 0, 43, 0
1, 22560, Note_on_c, 0, 69, 69
1, 22602, Control_c, 0, 64, 0
1, 22760, Tempo, 618557
1, 22772, Control_c, 0, 64, 127
1, 22800, Note_on_c, 0, 69, 0
1, 22800, Note_on_c, 0, 70, 66
1, 23040, Tempo, 594059
1, 23040, Note_on_c, 0, 70, 0
1, 23040, Note_on_c, 0, 72, 69
1, 23040, Note_on_c, 0, 51, 52
1, 23051, Control_c, 0, 64, 0
1, 23195, Control_c, 0, 64, 127
1, 23280, Tempo, 609137
1, 23280, Note_on_c, 0, 72, 0
1, 23280, Note_on_c, 0, 74, 70
1, 23520, Tempo, 594059
1, 23520, Note_on_c, 0, 74, 0
1, 23520, Note_on_c, 0, 51, 0
1, 23520, Note_on_c, 0, 75, 72
1, 23520, Note_on_c, 0, 65, 49
1, 23760, Tempo, 609137
1, 23760, Note_on_c, 0, 75, 0
1, 23760, Note_on_c, 0, 77, 74
1, 24000, Tempo, 595061
1, 24000, Note_on_c, 0, 77, 0
1, 24000, Note_on_c, 0, 65, 0
1, 24000, Note_on_c, 0, 79, 75
1, 24000, Note_on_c, 0, 57, 44
1, 24000, Note_on_c, 0, 53, 44
1, 24000, Note_on_c, 0, 60, 52
1, 24020, Control_c, 0, 64, 0
1, 24212, Control_c, 0, 64, 127
1, 24240, Tempo, 582524
1, 24240, Note_on_c, 0, 79, 0
1, 24240, Note_on_c, 0, 81, 72
1, 24480, Tempo, 594059
1, 24480, Note_on_c, 0, 81, 0
1, 24480, Note_on_c, 0, 82, 79
1, 24720, Tempo, 634048
1, 24720, Note_on_c, 0, 82, 0
1, 24720, Note_on_c, 0, 84, 77
1, 24960, Tempo, 588235
1, 24960, Note_on_c, 0, 84, 0
1, 24960, Note_on_c, 0, 60, 0
1, 24960, Note_on_c, 0, 53, 0
1, 24960, Note_on_c, 0, 57, 0
1, 24960, Note_on_c, 0, 77, 75
1, 24960, Note_on_c, 0, 50, 67
1, 24978, Control_c, 0, 64, 0
1, 25129, Control_c, 0, 64, 127
1, 25200, Tempo, 606061
1, 25440, Note_on_c, 0, 50, 0
1, 25440, Note_on_c, 0, 65, 58
1, 25920, Note_on_c, 0, 65, 0
1, 25920, Note_on_c, 0, 77, 0
1, 25920, Note_on_c, 0, 53, 49
1, 25920, Note_on_c, 0, 62, 58
1, 25920, Note_on_c, 0, 58, 49
1, 25940, Control_c, 0, 64, 0
1, 26118, Control_c, 0, 64, 127
1, 26160, Tempo, 615385
1, 26160, Note_on_c, 0, 77, 73
1, 26400, Tempo, 582524
1, 26400, Note_on_c, 0, 77, 0
1, 26400, Note_on_c, 0, 79, 75
1, 26640, Note_on_c, 0, 79, 0
1, 26640, Note_on_c, 0, 82, 73
1, 26680, Tempo, 626566
1, 26880, Tempo, 600000
1, 26880, Note_on_c, 0, 82, 0
1, 26880, Note_on_c, 0, 53, 0
1, 26880, Note_on_c, 0, 62, 0
1, 26880, Note_on_c, 0, 58, 0
1, 26880, Note_on_c, 0, 75, 70
1, 26880, Note_on_c, 0, 48, 57
1, 26904, Control_c, 0, 64, 0
1, 27064, Control_c, 0, 64, 127
1, 27360, Tempo, 609137
1, 27360, Note_on_c, 0, 48, 0
1, 27360, Note_on_c, 0, 65, 53
1, 27840, Note_on_c, 0, 65, 0
1, 27840, Note_on_c, 0, 75, 0
1, 27840, Note_on_c, 0, 57, 44
1, 27840, Note_on_c, 0, 53, 44
1, 27840, Note_on_c, 0, 63, 52
1, 27861, Control_c, 0, 64, 0
1, 28009, Control_c, 0, 64, 127
1, 28080, Tempo, 601805
1, 28080, Note_on_c, 0, 75, 67
1, 28320, Note_on_c, 0, 75, 0
1, 28320, Note_on_c, 0, 77, 71
1, 28560, Tempo, 622924
1, 28560, Note_on_c, 0, 77, 0
1, 28560, Note_on_c, 0, 81, 67
1, 28800, Note_on_c, 0, 81, 0
1, 28800, Note_on_c, 0, 57, 0
1, 28800, Note_on_c, 0, 53, 0
1, 28800, Note_on_c, 0, 63, 0
1, 28800, Note_on_c, 0, 74, 60
1, 28800, Note_on_c, 0, 46, 53
1, 28820, Control_c, 0, 64, 0
1, 29040, Control_c, 0, 64, 127
1, 29280, Note_on_c, 0, 46, 0
1, 29280, Note_on_c, 0, 65, 49
1, 29760, Note_on_c, 0, 65, 0
1, 29760, Note_on_c, 0, 74, 0
1, 29760, Note_on_c, 0, 62, 44
1, 29760, Note_on_c, 0, 58, 37
1, 29760, Note_on_c, 0, 53, 37
1, 29779, Control_c, 0, 64, 0
1, 29929, Control_c, 0, 64, 127
1, 30000, Tempo, 612182
1, 30000, Note_on_c, 0, 67, 68
1, 30240, Tempo, 591133
1, 30240, Note_on_c, 0, 67, 0
1, 30240, Note_on_c, 0, 69, 69
1, 30247, Control_c, 0, 64, 0
1, 30437, Control_c, 0, 64, 127
1, 30480, Tempo, 609137
1, 30480, Note_on_c, 0, 69, 0
1, 30480, Note_on_c, 0, 70, 69
1, 30720, Tempo, 625000
1, 30720, Note_on_c, 0, 70, 0
1, 30720, Note_on_c, 0, 62, 0
1, 30720, Note_on_c, 0, 58, 0
1, 30720, Note_on_c, 0, 53, 0
1, 30720, Note_on_c, 0, 72, 69
1, 30720, Note_on_c, 0, 51, 52
1, 30740, Control_c, 0, 64, 0
1, 30861, Control_c, 0, 64, 127
1, 30960, Tempo, 588235
1, 30960, Note_on_c, 0, 72, 0
1, 30960, Note_on_c, 0, 74, 70
1, 31200, Tempo, 606061
1, 31200, Note_on_c, 0, 74, 0
1, 31200, Note_on_c, 0, 51, 0
1, 31200, Note_on_c, 0, 75, 72
1, 31200, Note_on_c, 0, 65, 49
1, 31440, Note_on_c, 0, 75, 0
1, 31440, Note_on_c, 0, 77, 74
1, 31680, Tempo, 606061
1, 31680, Note_on_c, 0, 77, 0
1, 31680, Note_on_c, 0, 65, 0
1, 31680, Note_on_c, 0, 79, 75
1, 31680, Note_on_c, 0, 60, 52
1, 31680, Note_on_c, 0, 57, 44
1, 31680, Note_on_c, 0, 53, 44
1, 31699, Control_c, 0, 64, 0
1, 31878, Control_c, 0, 64, 127
1, 31920, Tempo, 582524
1, 31920, Note_on_c, 0, 79, 0
1, 31920, Note_on_c, 0, 81, 72
1, 32160, Tempo, 612182
1, 32160, Note_on_c, 0, 81, 0
1, 32160, Note_on_c, 0, 82, 79
1, 32400, Tempo, 634048
1, 32400, Note_on_c, 0, 82, 0
1, 32400, Note_on_c, 0, 84, 77
1, 32640, Tempo, 588235
1, 32640, Note_on_c, 0, 84, 0
1, 32640, Note_on_c, 0, 53, 0
1, 32640, Note_on_c, 0, 57, 0
1, 32640, Note_on_c, 0, 60, 0
1, 32640, Note_on_c, 0, 74, 75
1, 32640, Note_on_c, 0, 50, 67
1, 32655, Control_c, 0, 64, 0
1, 32880, Tempo, 615385
1, 32880, Control_c, 0, 64, 127
1, 32960, Tempo, 603015
1, 33120, Tempo, 603015
1, 33120, Note_on_c, 0, 50, 0
1, 33120, Note_on_c, 0, 66, 58
1, 33600, Note_on_c, 0, 66, 0
1, 33600, Note_on_c, 0, 74, 0
1, 33600, Note_on_c, 0, 57, 44
1, 33600, Note_on_c, 0, 62, 52
1, 33600, Note_on_c, 0, 54, 44
1, 33616, Control_c, 0, 64, 0
1, 33737, Control_c, 0, 64, 127
1, 33840, Tempo, 595061
1, 33840, Note_on_c, 0, 74, 73
1, 34080, Tempo, 585366
1, 34080, Note_on_c, 0, 74, 0
1, 34080, Note_on_c, 0, 76, 75
1, 34320, Note_on_c, 0, 76, 0
1, 34320, Note_on_c, 0, 78, 72
1, 34360, Tempo, 626566
1, 34560, Tempo, 597015
1, 34560, Note_on_c, 0, 78, 0
1, 34560, Note_on_c, 0, 57, 0
1, 34560, Note_on_c, 0, 62, 0
1, 34560, Note_on_c, 0, 54, 0
1, 34560, Note_on_c, 0, 79, 77
1, 34560, Note_on_c, 0, 50, 55
1, 34577, Control_c, 0, 64, 0
1, 34758, Control_c, 0, 64, 127
1, 35040, Tempo, 612245
1, 35040, Note_on_c, 0, 50, 0
1, 35040, Note_on_c, 0, 62, 53
1, 35520, Note_on_c, 0, 62, 0
1, 35520, Note_on_c, 0, 79, 0
1, 35520, Note_on_c, 0, 58, 52
1, 35520, Note_on_c, 0, 55, 44
1, 35540, Control_c, 0, 64, 0
1, 35689, Control_c, 0, 64, 127
1, 35760, Tempo, 601805
1, 35760, Note_on_c, 0, 74, 67
1, 36000, Tempo, 594059
1, 36000, Note_on_c, 0, 74, 0
1, 36000, Note_on_c, 0, 72, 70
1, 36240, Tempo, 622924
1, 36240, Note_on_c, 0, 72, 0
1, 36240, Note_on_c, 0, 70, 67
1, 36480, Tempo, 612182
1, 36480, Note_on_c, 0, 70, 0
1, 36480, Note_on_c, 0, 55, 0
1, 36480, Note_on_c, 0, 58, 0
1, 36480, Note_on_c, 0, 78, 63
1, 36480, Note_on_c, 0, 50, 53
1, 36499, Control_c, 0, 64, 0
1, 36664, Control_c, 0, 64, 127
1, 36960, Note_on_c, 0, 50, 0
1, 36960, Note_on_c, 0, 62, 41
1, 37440, Note_on_c, 0, 62, 0
1, 37440, Note_on_c, 0, 78, 0
1, 37440, Note_on_c, 0, 60, 41
1, 37440, Note_on_c, 0, 57, 35
1, 37457, Control_c, 0, 64, 0
1, 37624, Control_c, 0, 64, 127
1, 37680, Tempo, 601805
1, 37680, Note_on_c, 0, 72, 61
1, 37920, Note_on_c, 0, 72, 0
1, 37920, Note_on_c, 0, 70, 63
1, 38160, Tempo, 626566
1, 38160, Note_on_c, 0, 70, 0
1, 38160, Note_on_c, 0, 69, 61
1, 38400, Tempo, 612182
1, 38400, Note_on_c, 0, 69, 0
1, 38400, Note_on_c, 0, 57, 0
1, 38400, Note_on_c, 0, 60, 0
1, 38400, Note_on_c, 0, 79, 68
1, 38400, Note_on_c, 0, 50, 53
1, 38419, Control_c, 0, 64, 0
1, 38485, Control_c, 0, 64, 127
1, 38640, Note_on_c, 0, 79, 0
1, 38640, Note_on_c, 0, 74, 61
1, 38760, Note_on_c, 0, 74, 0
1, 38760, Note_on_c, 0, 75, 45
1, 38820, Note_on_c, 0, 75, 0
1, 38820, Note_on_c, 0, 74, 47
1, 38880, Note_on_c, 0, 74, 0
1, 38880, Note_on_c, 0, 50, 0
1, 38880, Note_on_c, 0, 73, 63
1, 38880, Note_on_c, 0, 62, 44
1, 39120, Note_on_c, 0, 73, 0
1, 39120, Note_on_c, 0, 74, 60
1, 39360, Tempo, 612182
1, 39360, Note_on_c, 0, 74, 0
1, 39360, Note_on_c, 0, 62, 0
1, 39360, Note_on_c, 0, 75, 63
1, 39360, Note_on_c, 0, 55, 37
1, 39360, Note_on_c, 0, 58, 44
1, 39376, Control_c, 0, 64, 0
1, 39463, Control_c, 0, 64, 127
1, 39600, Note_on_c, 0, 75, 0
1, 39600, Note_on_c, 0, 74, 60
1, 39840, Note_on_c, 0, 74, 0
1, 39840, Note_on_c, 0, 70, 63
1, 40080, Note_on_c, 0, 70, 0
1, 40080, Note_on_c, 0, 67, 60
1, 40120, Tempo, 630252
1, 40320, Tempo, 612182
1, 40320, Note_on_c, 0, 58, 0
1, 40320, Note_on_c, 0, 55, 0
1, 40320, Note_on_c, 0, 74, 63
1, 40320, Control_c, 0, 64, 0
1, 40320, Note_on_c, 0, 57, 46
1, 40320, Note_on_c, 0, 50, 46
1, 40426, Control_c, 0, 64, 127
1, 40440, Note_on_c, 0, 50, 0
1, 40440, Note_on_c, 0, 57, 0
1, 40558, Note_on_c, 0, 67, 0
1, 40560, Tempo, 601805
1, 40560, Note_on_c, 0, 74, 0
1, 40560, Note_on_c, 0, 67, 53
1, 40640, Tempo, 601805
1, 40800, Tempo, 618557
1, 40800, Note_on_c, 0, 67, 0
1, 40800, Note_on_c, 0, 74, 68
1, 40800, Note_on_c, 0, 66, 52
1, 40840, Tempo, 612245
1, 40960, Tempo, 615385
1, 41040, Tempo, 618557
1, 41040, Note_on_c, 0, 66, 0
1, 41040, Note_on_c, 0, 63, 51
1, 41120, Tempo, 621762
1, 41200, Tempo, 625000
1, 41280, Tempo, 648649
1, 41280, Note_on_c, 0, 63, 0
1, 41280, Note_on_c, 0, 62, 50
1, 41300, Control_c, 0, 64, 0
1, 41372, Control_c, 0, 64, 127
1, 41518, Note_on_c, 0, 62, 0
1, 41520, Note_on_c, 0, 74, 0
1, 41520, Note_on_c, 0, 62, 53
1, 41520, Note_on_c, 0, 60, 48
1, 41760, Tempo, 638298
1, 41760, Note_on_c, 0, 60, 0
1, 41760, Note_on_c, 0, 62, 0
1, 41760, Note_on_c, 0, 64, 54
1, 41760, Note_on_c, 0, 58, 47
1, 41840, Tempo, 634921
1, 41880, Tempo, 631579
1, 41920, Tempo, 628272
1, 41960, Tempo, 625000
1, 42000, Note_on_c, 0, 58, 0
1, 42000, Note_on_c, 0, 64, 0
1, 42000, Note_on_c, 0, 66, 56
1, 42000, Note_on_c, 0, 57, 46
1, 42040, Tempo, 621762
1, 42080, Tempo, 618557
1, 42120, Tempo, 615385
1, 42160, Tempo, 612245
1, 42200, Tempo, 609137
1, 42240, Tempo, 594059
1, 42240, Note_on_c, 0, 57, 0
1, 42240, Note_on_c, 0, 66, 0
1, 42240, Note_on_c, 0, 67, 57
1, 42240, Note_on_c, 0, 43, 40
1, 42240, Note_on_c, 0, 55, 40
1, 42256, Control_c, 0, 64, 0
1, 42354, Control_c, 0, 64, 127
1, 42480, Tempo, 609137
1, 42480, Note_on_c, 0, 67, 0
1, 42480, Note_on_c, 0, 69, 59
1, 42720, Tempo, 594059
1, 42720, Note_on_c, 0, 69, 0
1, 42720, Note_on_c, 0, 55, 0
1, 42720, Note_on_c, 0, 43, 0
1, 42720, Note_on_c, 0, 70, 61
1, 42720, Note_on_c, 0, 50, 37
1, 42920, Tempo, 609137
1, 42960, Note_on_c, 0, 70, 0
1, 42960, Note_on_c, 0, 72, 63
1, 43200, Tempo, 648649
1, 43200, Note_on_c, 0, 72, 0
1, 43200, Note_on_c, 0, 50, 0
1, 43200, Note_on_c, 0, 74, 65
1, 43200, Note_on_c, 0, 58, 34
1, 43200, Note_on_c, 0, 62, 40
1, 43200, Note_on_c, 0, 55, 34
1, 43218, Control_c, 0, 64, 0
1, 43296, Control_c, 0, 64, 127
1, 43440, Tempo, 579710
1, 43440, Note_on_c, 0, 74, 0
1, 43440, Note_on_c, 0, 79, 68
1, 43680, Tempo, 591133
1, 43680, Note_on_c, 0, 79, 0
1, 43680, Note_on_c, 0, 55, 0
1, 43680, Note_on_c, 0, 62, 0
1, 43680, Note_on_c, 0, 58, 0
1, 43680, Note_on_c, 0, 78, 66
1, 43680, Note_on_c, 0, 45, 45
1, 43920, Tempo, 652174
1, 43920, Note_on_c, 0, 78, 0
1, 43920, Note_on_c, 0, 79, 64
1, 44160, Tempo, 597015
1, 44160, Note_on_c, 0, 79, 0
1, 44160, Note_on_c, 0, 45, 0
1, 44160, Note_on_c, 0, 74, 53
1, 44160, Note_on_c, 0, 46, 44
1, 44180, Control_c, 0, 64, 0
1, 44320, Control_c, 0, 64, 127
1, 44640, Tempo, 612182
1, 44640, Note_on_c, 0, 46, 0
1, 44640, Note_on_c, 0, 55, 38
1, 45120, Tempo, 608704
1, 45120, Note_on_c, 0, 55, 0
1, 45120, Note_on_c, 0, 74, 0
1, 45120, Note_on_c, 0, 62, 29
1, 45120, Note_on_c, 0, 67, 35
1, 45140, Control_c, 0, 64, 0
1, 45346, Control_c, 0, 64, 127
1, 45360, Tempo, 615700
1, 45360, Note_on_c, 0, 74, 56
1, 45560, Tempo, 630252
1, 45598, Note_on_c, 0, 67, 0
1, 45600, Note_on_c, 0, 74, 0
1, 45600, Note_on_c, 0, 62, 0
1, 45600, Note_on_c, 0, 69, 59
1, 45600, Note_on_c, 0, 63, 31
1, 45600, Note_on_c, 0, 67, 31
1, 45600, Note_on_c, 0, 48, 35
1, 45840, Tempo, 641711
1, 45840, Note_on_c, 0, 69, 0
1, 45840, Note_on_c, 0, 72, 56
1, 46080, Tempo, 594059
1, 46080, Note_on_c, 0, 72, 0
1, 46080, Note_on_c, 0, 48, 0
1, 46080, Note_on_c, 0, 67, 0
1, 46080, Note_on_c, 0, 63, 0
1, 46080, Note_on_c, 0, 70, 53
1, 46080, Note_on_c, 0, 62, 45
1, 46080, Note_on_c, 0, 67, 45
1, 46080, Note_on_c, 0, 50, 42
1, 46100, Control_c, 0, 64, 0
1, 46188, Control_c, 0, 64, 127
1, 46320, Tempo, 616270
1, 46320, Note_on_c, 0, 50, 0
1, 46320, Note_on_c, 0, 70, 0
1, 46320, Note_on_c, 0, 62, 0
1, 46320, Note_on_c, 0, 67, 0
1, 46320, Note_on_c, 0, 63, 50
1, 46560, Tempo, 625652
1, 46560, Note_on_c, 0, 63, 0
1, 46560, Note_on_c, 0, 58, 31
1, 46560, Note_on_c, 0, 61, 50
1, 46560, Note_on_c, 0, 55, 31
1, 46800, Note_on_c, 0, 55, 0
1, 46800, Note_on_c, 0, 61, 0
1, 46800, Note_on_c, 0, 58, 0
1, 46800, Note_on_c, 0, 63, 49
1, 47040, Tempo, 619323
1, 47040, Note_on_c, 0, 63, 0
1, 47040, Note_on_c, 0, 55, 33
1, 47040, Note_on_c, 0, 58, 38
1, 47040, Note_on_c, 0, 62, 45
1, 47060, Control_c, 0, 64, 0
1, 47172, Control_c, 0, 64, 127
1, 47280, Tempo, 626566
1, 47280, Note_on_c, 0, 62, 0
1, 47280, Note_on_c, 0, 58, 0
1, 47280, Note_on_c, 0, 55, 0
1, 47280, Note_on_c, 0, 70, 53
1, 47320, Tempo, 626566
1, 47520, Tempo, 630252
1, 47520, Note_on_c, 0, 70, 0
1, 47520, Note_on_c, 0, 66, 57
1, 47520, Note_on_c, 0, 60, 46
1, 47520, Note_on_c, 0, 50, 42
1, 47760, Note_on_c, 0, 66, 0
1, 47760, Note_on_c, 0, 69, 53
1, 48000, Tempo, 597015
1, 48000, Note_on_c, 0, 69, 0
1, 48000, Note_on_c, 0, 50, 0
1, 48000, Note_on_c, 0, 60, 0
1, 48000, Note_on_c, 0, 67, 53
1, 48000, Note_on_c, 0, 58, 47
1, 48000, Note_on_c, 0, 43, 46
1, 48020, Control_c, 0, 64, 0
1, 48206, Control_c, 0, 64, 127
1, 48240, Tempo, 619451
1, 48240, Note_on_c, 0, 51, 42
1, 48480, Tempo, 632111
1, 48480, Note_on_c, 0, 51, 0
1, 48480, Note_on_c, 0, 49, 44
1, 48720, Note_on_c, 0, 49, 0
1, 48720, Note_on_c, 0, 51, 42
1, 48960, Note_on_c, 0, 51, 0
1, 48960, Note_on_c, 0, 67, 0
1, 48960, Note_on_c, 0, 58, 0
1, 48960, Note_on_c, 0, 50, 39
1, 48980, Control_c, 0, 64, 0
1, 49166, Control_c, 0, 64, 127
1, 49200, Tempo, 612182
1, 49200, Note_on_c, 0, 62, 52
1, 49440, Note_on_c, 0, 62, 0
1, 49440, Note_on_c, 0, 60, 48
1, 49440, Note_on_c, 0, 64, 54
1, 49680, Note_on_c, 0, 64, 0
1, 49680, Note_on_c, 0, 66, 55
1, 49920, Tempo, 618557
1, 49920, Note_on_c, 0, 66, 0
1, 49920, Note_on_c, 0, 60, 0
1, 49920, Note_on_c, 0, 50, 0
1, 49920, Note_on_c, 0, 43, 0
1, 49920, Note_on_c, 0, 58, 51
1, 49920, Note_on_c, 0, 67, 57
1, 49920, Note_on_c, 0, 43, 40
1, 49940, Control_c, 0, 64, 0
1, 50132, Control_c, 0, 64, 127
1, 50160, Tempo, 600000
1, 50160, Note_on_c, 0, 67, 0
1, 50160, Note_on_c, 0, 58, 0
1, 50160, Note_on_c, 0, 69, 59
1, 50400, Tempo, 609137
1, 50400, Note_on_c, 0, 69, 0
1, 50400, Note_on_c, 0, 43, 0
1, 50400, Note_on_c, 0, 70, 61
1, 50400, Note_on_c, 0, 50, 37
1, 50640, Note_on_c, 0, 70, 0
1, 50640, Note_on_c, 0, 72, 63
1, 50880, Tempo, 638298
1, 50880, Note_on_c, 0, 72, 0
1, 50880, Note_on_c, 0, 50, 0
1, 50880, Note_on_c, 0, 74, 68
1, 50880, Note_on_c, 0, 58, 34
1, 50880, Note_on_c, 0, 62, 40
1, 50880, Note_on_c, 0, 55, 34
1, 50900, Control_c, 0, 64, 0
1, 51092, Control_c, 0, 64, 127
1, 51120, Tempo, 579710
1, 51120, Note_on_c, 0, 74, 0
1, 51120, Note_on_c, 0, 79, 63
1, 51360, Tempo, 588235
1, 51360, Note_on_c, 0, 79, 0
1, 51360, Note_on_c, 0, 55, 0
1, 51360, Note_on_c, 0, 62, 0
1, 51360, Note_on_c, 0, 58, 0
1, 51360, Note_on_c, 0, 65, 33
1, 51360, Note_on_c, 0, 75, 40
1, 51360, Note_on_c, 0, 72, 36
1, 51360, Note_on_c, 0, 77, 61
1, 51360, Note_on_c, 0, 45, 42
1, 51600, Tempo, 641711
1, 51600, Note_on_c, 0, 77, 0
1, 51600, Note_on_c, 0, 79, 59
1, 51840, Tempo, 612182
1, 51840, Note_on_c, 0, 79, 0
1, 51840, Note_on_c, 0, 45, 0
1, 51840, Note_on_c, 0, 65, 0
1, 51840, Note_on_c, 0, 75, 0
1, 51840, Note_on_c, 0, 72, 0
1, 51840, Note_on_c, 0, 70, 46
1, 51840, Note_on_c, 0, 65, 46
1, 51840, Note_on_c, 0, 74, 55
1, 51840, Note_on_c, 0, 46, 44
1, 51856, Control_c, 0, 64, 0
1, 52000, Control_c, 0, 64, 127
1, 52320, Tempo, 591133
1, 52320, Note_on_c, 0, 46, 0
1, 52320, Note_on_c, 0, 53, 41
1, 52560, Tempo, 609137
1, 52798, Note_on_c, 0, 65, 0
1, 52800, Tempo, 608704
1, 52800, Note_on_c, 0, 70, 0
1, 52800, Note_on_c, 0, 74, 0
1, 52800, Note_on_c, 0, 53, 0
1, 52800, Note_on_c, 0, 65, 42
1, 52800, Note_on_c, 0, 58, 30
1, 52800, Note_on_c, 0, 62, 30
1, 52817, Control_c, 0, 64, 0
1, 52969, Control_c, 0, 64, 127
1, 53040, Tempo, 615700
1, 53040, Note_on_c, 0, 77, 60
1, 53240, Tempo, 630252
1, 53280, Note_on_c, 0, 77, 0
1, 53280, Note_on_c, 0, 65, 0
1, 53280, Note_on_c, 0, 58, 0
1, 53280, Note_on_c, 0, 62, 0
1, 53280, Note_on_c, 0, 63, 50
1, 53280, Note_on_c, 0, 75, 63
1, 53280, Note_on_c, 0, 70, 50
1, 53280, Note_on_c, 0, 74, 50
1, 53280, Note_on_c, 0, 43, 41
1, 53520, Tempo, 641711
1, 53520, Note_on_c, 0, 75, 0
1, 53520, Note_on_c, 0, 77, 58
1, 53760, Tempo, 612182
1, 53760, Note_on_c, 0, 77, 0
1, 53760, Note_on_c, 0, 43, 0
1, 53760, Note_on_c, 0, 63, 0
1, 53760, Note_on_c, 0, 70, 0
1, 53760, Note_on_c, 0, 74, 0
1, 53760, Note_on_c, 0, 69, 50
1, 53760, Note_on_c, 0, 63, 50
1, 53760, Note_on_c, 0, 72, 60
1, 53760, Note_on_c, 0, 45, 44
1, 53780, Control_c, 0, 64, 0
1, 53986, Control_c, 0, 64, 127
1, 54240, Tempo, 612182
1, 54240, Note_on_c, 0, 45, 0
1, 54240, Note_on_c, 0, 57, 39
1, 54718, Note_on_c, 0, 63, 0
1, 54720, Tempo, 608704
1, 54720, Note_on_c, 0, 69, 0
1, 54720, Note_on_c, 0, 72, 0
1, 54720, Note_on_c, 0, 57, 0
1, 54720, Note_on_c, 0, 60, 33
1, 54720, Note_on_c, 0, 63, 33
1, 54720, Note_on_c, 0, 67, 39
1, 54739, Control_c, 0, 64, 0
1, 54918, Control_c, 0, 64, 127
1, 54960, Tempo, 615700
1, 54960, Note_on_c, 0, 75, 55
1, 55160, Tempo, 630252
1, 55200, Note_on_c, 0, 75, 0
1, 55200, Note_on_c, 0, 60, 0
1, 55200, Note_on_c, 0, 63, 0
1, 55200, Note_on_c, 0, 67, 0
1, 55200, Note_on_c, 0, 69, 37
1, 55200, Note_on_c, 0, 72, 38
1, 55200, Note_on_c, 0, 62, 37
1, 55200, Note_on_c, 0, 74, 56
1, 55200, Note_on_c, 0, 42, 36
1, 55440, Tempo, 641711
1, 55440, Note_on_c, 0, 74, 0
1, 55440, Note_on_c, 0, 75, 50
1, 55680, Tempo, 626566
1, 55680, Note_on_c, 0, 75, 0
1, 55680, Note_on_c, 0, 42, 0
1, 55680, Note_on_c, 0, 69, 0
1, 55680, Note_on_c, 0, 72, 0
1, 55680, Note_on_c, 0, 62, 0
1, 55680, Note_on_c, 0, 62, 44
1, 55680, Note_on_c, 0, 67, 44
1, 55680, Note_on_c, 0, 70, 53
1, 55680, Note_on_c, 0, 43, 39
1, 55698, Control_c, 0, 64, 0
1, 55849, Control_c, 0, 64, 127
1, 56160, Note_on_c, 0, 43, 0
1, 56160, Note_on_c, 0, 62, 0
1, 56160, Note_on_c, 0, 67, 0
1, 56160, Note_on_c, 0, 70, 0
1, 56160, Note_on_c, 0, 50, 36
1, 56640, Tempo, 615700
1, 56640, Note_on_c, 0, 50, 0
1, 56640, Note_on_c, 0, 58, 23
1, 56640, Note_on_c, 0, 55, 23
1, 56640, Note_on_c, 0, 62, 34
1, 56654, Control_c, 0, 64, 0
1, 56880, Tempo, 641711
1, 56880, Note_on_c, 0, 74, 54
1, 56922, Control_c, 0, 64, 127
1, 57120, Tempo, 628272
1, 57120, Note_on_c, 0, 74, 0
1, 57120, Note_on_c, 0, 58, 0
1, 57120, Note_on_c, 0, 55, 0
1, 57120, Note_on_c, 0, 62, 0
1, 57120, Note_on_c, 0, 72, 56
1, 57120, Note_on_c, 0, 63, 35
1, 57120, Note_on_c, 0, 69, 35
1, 57120, Note_on_c, 0, 48, 34
1, 57360, Tempo, 641711
1, 57360, Note_on_c, 0, 72, 0
1, 57360, Note_on_c, 0, 74, 52
1, 57600, Tempo, 645161
1, 57600, Note_on_c, 0, 74, 0
1, 57600, Note_on_c, 0, 48, 0
1, 57600, Note_on_c, 0, 69, 0
1, 57600, Note_on_c, 0, 63, 0
1, 57600, Note_on_c, 0, 67, 35
1, 57600, Note_on_c, 0, 72, 55
1, 57600, Note_on_c, 0, 62, 35
1, 57600, Note_on_c, 0, 50, 39
1, 57616, Control_c, 0, 64, 0
1, 57713, Control_c, 0, 64, 127
1, 57840, Note_on_c, 0, 72, 0
1, 57840, Note_on_c, 0, 70, 51
1, 58078, Note_on_c, 0, 62, 0
1, 58080, Note_on_c, 0, 67, 0
1, 58080, Note_on_c, 0, 70, 0
1, 58080, Note_on_c, 0, 69, 50
1, 58080, Note_on_c, 0, 58, 27
1, 58080, Note_on_c, 0, 62, 32
1, 58320, Tempo, 659341
1, 58320, Note_on_c, 0, 69, 0
1, 58320, Note_on_c, 0, 67, 49
1, 58560, Tempo, 666667
1, 58560, Note_on_c, 0, 67, 0
1, 58560, Note_on_c, 0, 62, 0
1, 58560, Note_on_c, 0, 58, 0
1, 58560, Note_on_c, 0, 70, 52
1, 58560, Note_on_c, 0, 64, 35
1, 58560, Note_on_c, 0, 61, 31
1, 58580, Control_c, 0, 64, 0
1, 58729, Control_c, 0, 64, 127
1, 59040, Tempo, 666667
1, 59040, Note_on_c, 0, 61, 0
1, 59040, Note_on_c, 0, 64, 0
1, 59040, Note_on_c, 0, 63, 29
1, 59040, Note_on_c, 0, 66, 32
1, 59040, Note_on_c, 0, 60, 30
1, 59280, Tempo, 701754
1, 59280, Note_on_c, 0, 70, 0
1, 59280, Note_on_c, 0, 69, 39
1, 59520, Key_signature, 1, "major"
1, 59520, Tempo, 670391
1, 59520, Note_on_c, 0, 69, 0
1, 59520, Note_on_c, 0, 60, 0
1, 59520, Note_on_c, 0, 66, 0
1, 59520, Note_on_c, 0, 63, 0
1, 59520, Note_on_c, 0, 62, 34
1, 59520, Note_on_c, 0, 67, 48
1, 59520, Note_on_c, 0, 59, 34
1, 59520, Control_c, 0, 64, 0
1, 59605, Control_c, 0, 64, 127
1, 59760, Tempo, 600000
1, 59760, Note_on_c, 0, 59, 0
1, 59760, Note_on_c, 0, 50, 0
1, 59760, Note_on_c, 0, 62, 0
1, 59760, Note_on_c, 0, 67, 0
1, 59760, Note_on_c, 0, 43, 25
1, 59760, Note_on_c, 0, 50, 30
1, 60000, Tempo, 560748
1, 60000, Note_on_c, 0, 71, 42
1, 60000, Note_on_c, 0, 74, 50
1, 60240, Tempo, 574163
1, 60240, Note_on_c, 0, 50, 0
1, 60240, Note_on_c, 0, 43, 0
1, 60240, Note_on_c, 0, 50, 24
1, 60240, Note_on_c, 0, 62, 29
1, 60240, Note_on_c, 0, 55, 24
1, 60480, Tempo, 555556
1, 60480, Note_on_c, 0, 71, 0
1, 60480, Note_on_c, 0, 74, 0
1, 60480, Note_on_c, 0, 71, 44
1, 60480, Note_on_c, 0, 67, 37
1, 60720, Tempo, 568720
1, 60720, Note_on_c, 0, 62, 0
1, 60720, Note_on_c, 0, 55, 0
1, 60720, Note_on_c, 0, 50, 0
1, 60720, Note_on_c, 0, 43, 24
1, 60720, Note_on_c, 0, 50, 29
1, 60960, Tempo, 545455
1, 60960, Note_on_c, 0, 71, 0
1, 60960, Note_on_c, 0, 67, 0
1, 60960, Note_on_c, 0, 71, 41
1, 60960, Note_on_c, 0, 74, 49
1, 61200, Tempo, 552995
1, 61200, Note_on_c, 0, 43, 0
1, 61200, Note_on_c, 0, 50, 0
1, 61200, Note_on_c, 0, 50, 24
1, 61200, Note_on_c, 0, 54, 24
1, 61200, Note_on_c, 0, 62, 29
1, 61440, Tempo, 524017
1, 61440, Note_on_c, 0, 71, 0
1, 61440, Note_on_c, 0, 74, 0
1, 61440, Note_on_c, 0, 72, 44
1, 61440, Note_on_c, 0, 76, 52
1, 61460, Control_c, 0, 64, 0
1, 61638, Control_c, 0, 64, 127
1, 61680, Tempo, 535714
1, 61680, Note_on_c, 0, 54, 0
1, 61680, Note_on_c, 0, 62, 0
1, 61680, Note_on_c, 0, 50, 0
1, 61680, Note_on_c, 0, 43, 29
1, 61680, Note_on_c, 0, 50, 29
1, 61920, Tempo, 508475
1, 61920, Note_on_c, 0, 72, 0
1, 61920, Note_on_c, 0, 76, 0
1, 61920, Note_on_c, 0, 69, 47
1, 61920, Note_on_c, 0, 66, 39
1, 62160, Tempo, 521739
1, 62160, Note_on_c, 0, 66, 0
1, 62160, Note_on_c, 0, 50, 0
1, 62160, Note_on_c, 0, 43, 0
1, 62160, Note_on_c, 0, 69, 0
1, 62160, Note_on_c, 0, 67, 39
1, 62160, Note_on_c, 0, 71, 47
1, 62160, Note_on_c, 0, 50, 24
1, 62160, Note_on_c, 0, 54, 24
1, 62160, Note_on_c, 0, 62, 29
1, 62200, Tempo, 528634
1, 62400, Tempo, 508475
1, 62400, Note_on_c, 0, 71, 0
1, 62400, Note_on_c, 0, 67, 0
1, 62400, Note_on_c, 0, 69, 41
1, 62400, Note_on_c, 0, 72, 49
1, 62420, Control_c, 0, 64, 0
1, 62626, Control_c, 0, 64, 127
1, 62640, Tempo, 519481
1, 62640, Note_on_c, 0, 54, 0
1, 62640, Note_on_c, 0, 62, 0
1, 62640, Note_on_c, 0, 50, 0
1, 62640, Note_on_c, 0, 43, 25
1, 62640, Note_on_c, 0, 50, 30
1, 62880, Tempo, 506329
1, 62880, Note_on_c, 0, 69, 0
1, 62880, Note_on_c, 0, 72, 0
1, 62880, Note_on_c, 0, 72, 39
1, 62880, Note_on_c, 0, 76, 47
1, 63120, Note_on_c, 0, 43, 0
1, 63120, Note_on_c, 0, 50, 0
1, 63120, Note_on_c, 0, 50, 25
1, 63120, Note_on_c, 0, 55, 25
1, 63120, Note_on_c, 0, 62, 30
1, 63360, Tempo, 529568
1, 63360, Note_on_c, 0, 72, 0
1, 63360, Note_on_c, 0, 76, 0
1, 63360, Note_on_c, 0, 71, 43
1, 63360, Note_on_c, 0, 74, 51
1, 63380, Control_c, 0, 64, 0
1, 63515, Control_c, 0, 64, 127
1, 63600, Tempo, 504202
1, 63600, Note_on_c, 0, 55, 0
1, 63600, Note_on_c, 0, 62, 0
1, 63600, Note_on_c, 0, 50, 0
1, 63600, Note_on_c, 0, 43, 25
1, 63600, Note_on_c, 0, 50, 30
1, 63840, Tempo, 500000
1, 63840, Note_on_c, 0, 71, 0
1, 63840, Note_on_c, 0, 74, 0
1, 63840, Note_on_c, 0, 79, 52
1, 63840, Note_on_c, 0, 76, 44
1, 63860, Control_c, 0, 64, 0
1, 64080, Tempo, 510638
1, 64080, Note_on_c, 0, 43, 0
1, 64080, Note_on_c, 0, 50, 0
1, 64080, Note_on_c, 0, 50, 25
1, 64080, Note_on_c, 0, 62, 30
1, 64080, Note_on_c, 0, 55, 25
1, 64094, Control_c, 0, 64, 127
1, 64320, Tempo, 502092
1, 64320, Note_on_c, 0, 79, 0
1, 64320, Note_on_c, 0, 76, 0
1, 64320, Note_on_c, 0, 74, 41
1, 64320, Note_on_c, 0, 78, 49
1, 64560, Tempo, 512821
1, 64560, Note_on_c, 0, 62, 0
1, 64560, Note_on_c, 0, 55, 0
1, 64560, Note_on_c, 0, 50, 0
1, 64560, Note_on_c, 0, 43, 25
1, 64560, Note_on_c, 0, 50, 30
1, 64800, Tempo, 502092
1, 64800, Note_on_c, 0, 74, 0
1, 64800, Note_on_c, 0, 78, 0
1, 64800, Note_on_c, 0, 72, 41
1, 64800, Note_on_c, 0, 76, 49
1, 65040, Tempo, 512821
1, 65040, Note_on_c, 0, 43, 0
1, 65040, Note_on_c, 0, 50, 0
1, 65040, Note_on_c, 0, 50, 25
1, 65040, Note_on_c, 0, 54, 25
1, 65040, Note_on_c, 0, 62, 30
1, 65280, Tempo, 502092
1, 65280, Note_on_c, 0, 72, 0
1, 65280, Note_on_c, 0, 76, 0
1, 65280, Note_on_c, 0, 71, 41
1, 65280, Note_on_c, 0, 74, 49
1, 65296, Control_c, 0, 64, 0
1, 65464, Control_c, 0, 64, 127
1, 65520, Tempo, 515021
1, 65520, Note_on_c, 0, 54, 0
1, 65520, Note_on_c, 0, 62, 0
1, 65520, Note_on_c, 0, 50, 0
1, 65520, Note_on_c, 0, 43, 25
1, 65520, Note_on_c, 0, 50, 30
1, 65760, Tempo, 521739
1, 65760, Note_on_c, 0, 71, 0
1, 65760, Note_on_c, 0, 74, 0
1, 65760, Note_on_c, 0, 66, 38
1, 65760, Note_on_c, 0, 69, 46
1, 66000, Note_on_c, 0, 69, 0
1, 66000, Note_on_c, 0, 50, 0
1, 66000, Note_on_c, 0, 43, 0
1, 66000, Note_on_c, 0, 66, 0
1, 66000, Note_on_c, 0, 71, 46
1, 66000, Note_on_c, 0, 67, 38
1, 66000, Note_on_c, 0, 50, 25
1, 66000, Note_on_c, 0, 54, 25
1, 66000, Note_on_c, 0, 62, 30
1, 66240, Tempo, 533333
1, 66240, Note_on_c, 0, 67, 0
1, 66240, Note_on_c, 0, 71, 0
1, 66240, Note_on_c, 0, 69, 39
1, 66240, Note_on_c, 0, 72, 47
1, 66260, Control_c, 0, 64, 0
1, 66452, Control_c, 0, 64, 127
1, 66480, Note_on_c, 0, 54, 0
1, 66480, Note_on_c, 0, 62, 0
1, 66480, Note_on_c, 0, 50, 0
1, 66480, Note_on_c, 0, 43, 25
1, 66480, Note_on_c, 0, 50, 30
1, 66720, Tempo, 556380
1, 66720, Note_on_c, 0, 69, 0
1, 66720, Note_on_c, 0, 72, 0
1, 66720, Note_on_c, 0, 70, 41
1, 66720, Note_on_c, 0, 73, 49
1, 66960, Note_on_c, 0, 43, 0
1, 66960, Note_on_c, 0, 50, 0
1, 66960, Note_on_c, 0, 50, 24
1, 66960, Note_on_c, 0, 55, 24
1, 66960, Note_on_c, 0, 62, 29
1, 67200, Tempo, 529287
1, 67200, Note_on_c, 0, 70, 0
1, 67200, Note_on_c, 0, 73, 0
1, 67200, Note_on_c, 0, 71, 42
1, 67200, Note_on_c, 0, 74, 50
1, 67200, Control_c, 0, 64, 0
1, 67440, Note_on_c, 0, 74, 0
1, 67440, Note_on_c, 0, 55, 0
1, 67440, Note_on_c, 0, 62, 0
1, 67440, Note_on_c, 0, 50, 0
1, 67440, Note_on_c, 0, 71, 0
1, 67440, Note_on_c, 0, 43, 23
1, 67440, Note_on_c, 0, 50, 28
1, 67680, Tempo, 506073
1, 67680, Note_on_c, 0, 50, 0
1, 67680, Note_on_c, 0, 43, 0
1, 67680, Note_on_c, 0, 62, 59
1, 67680, Note_on_c, 0, 71, 60
1, 67680, Note_on_c, 0, 74, 71
1, 67835, Control_c, 0, 64, 127
1, 67920, Tempo, 512733
1, 67920, Note_on_c, 0, 52, 64
1, 68160, Tempo, 493016
1, 68160, Note_on_c, 0, 74, 0
1, 68160, Note_on_c, 0, 62, 0
1, 68160, Note_on_c, 0, 71, 0
1, 68160, Note_on_c, 0, 59, 52
1, 68160, Note_on_c, 0, 71, 62
1, 68160, Note_on_c, 0, 67, 52
1, 68400, Tempo, 503736
1, 68400, Note_on_c, 0, 52, 0
1, 68400, Note_on_c, 0, 43, 41
1, 68400, Note_on_c, 0, 50, 50
1, 68640, Tempo, 495131
1, 68640, Note_on_c, 0, 50, 0
1, 68640, Note_on_c, 0, 59, 0
1, 68640, Note_on_c, 0, 67, 0
1, 68640, Note_on_c, 0, 71, 0
1, 68640, Note_on_c, 0, 43, 0
1, 68640, Note_on_c, 0, 62, 58
1, 68640, Note_on_c, 0, 71, 59
1, 68640, Note_on_c, 0, 74, 70
1, 68880, Tempo, 503736
1, 68880, Note_on_c, 0, 55, 67
1, 69120, Tempo, 488878
1, 69120, Note_on_c, 0, 74, 0
1, 69120, Note_on_c, 0, 62, 0
1, 69120, Note_on_c, 0, 71, 0
1, 69120, Note_on_c, 0, 64, 59
1, 69120, Note_on_c, 0, 72, 60
1, 69120, Note_on_c, 0, 76, 71
1, 69189, Control_c, 0, 64, 0
1, 69349, Control_c, 0, 64, 127
1, 69360, Tempo, 497347
1, 69360, Note_on_c, 0, 55, 0
1, 69360, Note_on_c, 0, 50, 49
1, 69360, Note_on_c, 0, 43, 40
1, 69360, Note_on_c, 0, 54, 49
1, 69600, Tempo, 490958
1, 69600, Note_on_c, 0, 54, 0
1, 69600, Note_on_c, 0, 72, 0
1, 69600, Note_on_c, 0, 64, 0
1, 69600, Note_on_c, 0, 76, 0
1, 69600, Note_on_c, 0, 43, 0
1, 69600, Note_on_c, 0, 50, 0
1, 69600, Note_on_c, 0, 69, 66
1, 69600, Note_on_c, 0, 66, 56
1, 69620, Control_c, 0, 64, 0
1, 69794, Control_c, 0, 64, 127
1, 69840, Tempo, 499417
1, 69840, Note_on_c, 0, 67, 56
1, 69840, Note_on_c, 0, 71, 66
1, 69840, Note_on_c, 0, 63, 61
1, 69860, Note_on_c, 0, 66, 0
1, 69860, Note_on_c, 0, 69, 0
1, 70080, Tempo, 493016
1, 70080, Note_on_c, 0, 69, 59
1, 70080, Note_on_c, 0, 72, 68
1, 70100, Note_on_c, 0, 71, 0
1, 70100, Note_on_c, 0, 67, 0
1, 70320, Tempo, 499417
1, 70320, Note_on_c, 0, 63, 0
1, 70320, Note_on_c, 0, 55, 44
1, 70320, Note_on_c, 0, 57, 44
1, 70320, Note_on_c, 0, 62, 52
1, 70560, Tempo, 499417
1, 70560, Note_on_c, 0, 62, 0
1, 70560, Note_on_c, 0, 55, 0
1, 70560, Note_on_c, 0, 69, 0
1, 70560, Note_on_c, 0, 72, 0
1, 70560, Note_on_c, 0, 57, 0
1, 70560, Note_on_c, 0, 64, 57
1, 70560, Note_on_c, 0, 72, 56
1, 70560, Note_on_c, 0, 76, 67
1, 70629, Control_c, 0, 64, 0
1, 70731, Control_c, 0, 64, 127
1, 70800, Tempo, 508259
1, 70800, Note_on_c, 0, 66, 66
1, 71040, Tempo, 481928
1, 71040, Note_on_c, 0, 62, 63
1, 71040, Note_on_c, 0, 71, 63
1, 71040, Note_on_c, 0, 74, 75
1, 71040, Control_c, 0, 64, 0
1, 71060, Note_on_c, 0, 76, 0
1, 71060, Note_on_c, 0, 64, 0
1, 71060, Note_on_c, 0, 72, 0
1, 71154, Control_c, 0, 64, 127
1, 71280, Tempo, 497347
1, 71280, Note_on_c, 0, 66, 0
1, 71280, Note_on_c, 0, 67, 56
1, 71518, Note_on_c, 0, 67, 0
1, 71520, Tempo, 483871
1, 71520, Note_on_c, 0, 62, 0
1, 71520, Note_on_c, 0, 71, 0
1, 71520, Note_on_c, 0, 74, 0
1, 71520, Note_on_c, 0, 67, 64
1, 71520, Note_on_c, 0, 79, 78
1, 71520, Note_on_c, 0, 76, 66
1, 71540, Control_c, 0, 64, 0
1, 71689, Control_c, 0, 64, 127
1, 71760, Tempo, 501630
1, 71760, Note_on_c, 0, 58, 67
1, 72000, Tempo, 487805
1, 72000, Note_on_c, 0, 66, 61
1, 72000, Note_on_c, 0, 74, 62
1, 72000, Note_on_c, 0, 78, 73
1, 72020, Note_on_c, 0, 76, 0
1, 72020, Note_on_c, 0, 67, 0
1, 72020, Note_on_c, 0, 79, 0
1, 72091, Control_c, 0, 64, 0
1, 72183, Control_c, 0, 64, 127
1, 72240, Tempo, 501630
1, 72240, Note_on_c, 0, 58, 0
1, 72240, Note_on_c, 0, 59, 55
1, 72480, Tempo, 489796
1, 72480, Note_on_c, 0, 59, 0
1, 72480, Note_on_c, 0, 64, 61
1, 72480, Note_on_c, 0, 72, 62
1, 72480, Note_on_c, 0, 76, 74
1, 72500, Note_on_c, 0, 66, 0
1, 72500, Note_on_c, 0, 78, 0
1, 72500, Note_on_c, 0, 74, 0
1, 72519, Control_c, 0, 64, 0
1, 72720, Tempo, 506073
1, 72720, Control_c, 0, 64, 127
1, 72720, Note_on_c, 0, 56, 69
1, 72960, Tempo, 485830
1, 72960, Note_on_c, 0, 62, 61
1, 72960, Note_on_c, 0, 71, 62
1, 72960, Note_on_c, 0, 74, 74
1, 72980, Note_on_c, 0, 64, 0
1, 72980, Note_on_c, 0, 76, 0
1, 72980, Note_on_c, 0, 72, 0
1, 72980, Control_c, 0, 64, 0
1, 73160, Tempo, 485830
1, 73166, Control_c, 0, 64, 127
1, 73200, Note_on_c, 0, 56, 0
1, 73200, Note_on_c, 0, 57, 60
1, 73280, Tempo, 487805
1, 73360, Tempo, 489796
1, 73440, Note_on_c, 0, 57, 0
1, 73440, Note_on_c, 0, 62, 0
1, 73440, Note_on_c, 0, 71, 0
1, 73440, Note_on_c, 0, 74, 0
1, 73440, Note_on_c, 0, 57, 60
1, 73440, Note_on_c, 0, 66, 58
1, 73440, Note_on_c, 0, 69, 69
1, 73460, Control_c, 0, 64, 0
1, 73480, Tempo, 491803
1, 73560, Tempo, 493827
1, 73634, Control_c, 0, 64, 127
1, 73680, Tempo, 495868
1, 73680, Note_on_c, 0, 59, 60
1, 73680, Note_on_c, 0, 71, 69
1, 73680, Note_on_c, 0, 67, 58
1, 73680, Note_on_c, 0, 51, 71
1, 73700, Note_on_c, 0, 69, 0
1, 73700, Note_on_c, 0, 57, 0
1, 73700, Note_on_c, 0, 66, 0
1, 73760, Tempo, 497925
1, 73880, Tempo, 500000
1, 73920, Note_on_c, 0, 60, 61
1, 73920, Note_on_c, 0, 69, 62
1, 73920, Note_on_c, 0, 72, 74
1, 73940, Note_on_c, 0, 71, 0
1, 73940, Note_on_c, 0, 59, 0
1, 73940, Note_on_c, 0, 67, 0
1, 73960, Tempo, 502092
1, 74034, Control_c, 0, 64, 0
1, 74137, Control_c, 0, 64, 127
1, 74160, Tempo, 502092
1, 74160, Note_on_c, 0, 51, 0
1, 74160, Note_on_c, 0, 50, 64
1, 74370, Tempo, 510638
1, 74400, Tempo, 510638
1, 74400, Note_on_c, 0, 50, 0
1, 74400, Note_on_c, 0, 60, 0
1, 74400, Note_on_c, 0, 69, 0
1, 74400, Note_on_c, 0, 72, 0
1, 74400, Note_on_c, 0, 64, 68
1, 74400, Note_on_c, 0, 72, 69
1, 74400, Note_on_c, 0, 76, 82
1, 74583, Control_c, 0, 64, 0
1, 74640, Note_on_c, 0, 42, 78
1, 74686, Control_c, 0, 64, 127
1, 74880, Time_signature, 3, 2, 24, 8
1, 74880, Tempo, 527844
1, 74880, Note_on_c, 0, 76, 0
1, 74880, Note_on_c, 0, 64, 0
1, 74880, Note_on_c, 0, 72, 0
1, 74880, Note_on_c, 0, 62, 78
1, 74880, Note_on_c, 0, 71, 78
1, 74880, Note_on_c, 0, 74, 92
1, 74880, Control_c, 0, 64, 0
1, 75000, Note_on_c, 0, 74, 0
1, 75000, Note_on_c, 0, 42, 0
1, 75000, Note_on_c, 0, 62, 0
1, 75000, Note_on_c, 0, 71, 0
1, 75120, Note_on_c, 0, 67, 71
1, 75120, Note_on_c, 0, 71, 71
1, 75120, Note_on_c, 0, 74, 84
1, 75120, Note_on_c, 0, 43, 74
1, 75240, Note_on_c, 0, 43, 0
1, 75240, Note_on_c, 0, 67, 0
1, 75240, Note_on_c, 0, 71, 0
1, 75240, Note_on_c, 0, 74, 0
1, 75360, Tempo, 513963
1, 75360, Note_on_c, 0, 67, 77
1, 75360, Note_on_c, 0, 71, 77
1, 75360, Note_on_c, 0, 79, 90
1, 75360, Note_on_c, 0, 64, 78
1, 75360, Note_on_c, 0, 59, 78
1, 75360, Note_on_c, 0, 52, 63
1, 75429, Control_c, 0, 64, 127
1, 75840, Note_on_c, 0, 52, 0
1, 75840, Note_on_c, 0, 55, 75
1, 76080, Tempo, 505008
1, 76080, Note_on_c, 0, 79, 0
1, 76080, Note_on_c, 0, 76, 83
1, 76320, Tempo, 518448
1, 76320, Note_on_c, 0, 76, 0
1, 76320, Note_on_c, 0, 55, 0
1, 76320, Note_on_c, 0, 64, 0
1, 76320, Note_on_c, 0, 67, 0
1, 76320, Note_on_c, 0, 71, 0
1, 76320, Note_on_c, 0, 59, 0
1, 76320, Note_on_c, 0, 66, 73
1, 76320, Note_on_c, 0, 71, 73
1, 76320, Note_on_c, 0, 78, 86
1, 76320, Control_c, 0, 64, 0
1, 76320, Note_on_c, 0, 62, 72
1, 76320, Note_on_c, 0, 59, 59
1, 76440, Note_on_c, 0, 59, 0
1, 76440, Note_on_c, 0, 78, 0
1, 76440, Note_on_c, 0, 66, 0
1, 76440, Note_on_c, 0, 71, 0
1, 76440, Note_on_c, 0, 62, 0
1, 76560, Note_on_c, 0, 66, 67
1, 76560, Note_on_c, 0, 71, 81
1, 76560, Note_on_c, 0, 50, 55
1, 76560, Note_on_c, 0, 54, 55
1, 76560, Note_on_c, 0, 59, 63
1, 76680, Note_on_c, 0, 59, 0
1, 76680, Note_on_c, 0, 50, 0
1, 76680, Note_on_c, 0, 66, 0
1, 76680, Note_on_c, 0, 71, 0
1, 76680, Note_on_c, 0, 54, 0
1, 76800, Tempo, 513963
1, 76800, Note_on_c, 0, 64, 77
1, 76800, Note_on_c, 0, 67, 77
1, 76800, Note_on_c, 0, 76, 90
1, 76800, Note_on_c, 0, 60, 78
1, 76800, Note_on_c, 0, 55, 78
1, 76800, Note_on_c, 0, 48, 63
1, 76835, Control_c, 0, 64, 127
1, 77280, Note_on_c, 0, 48, 0
1, 77280, Note_on_c, 0, 52, 75
1, 77520, Tempo, 507228
1, 77520, Note_on_c, 0, 76, 0
1, 77520, Note_on_c, 0, 72, 77
1, 77760, Tempo, 518448
1, 77760, Note_on_c, 0, 72, 0
1, 77760, Note_on_c, 0, 52, 0
1, 77760, Note_on_c, 0, 60, 0
1, 77760, Note_on_c, 0, 64, 0
1, 77760, Note_on_c, 0, 67, 0
1, 77760, Note_on_c, 0, 55, 0
1, 77760, Note_on_c, 0, 62, 73
1, 77760, Note_on_c, 0, 67, 73
1, 77760, Note_on_c, 0, 74, 86
1, 77760, Control_c, 0, 64, 0
1, 77760, Note_on_c, 0, 59, 72
1, 77760, Note_on_c, 0, 55, 59
1, 77880, Note_on_c, 0, 55, 0
1, 77880, Note_on_c, 0, 74, 0
1, 77880, Note_on_c, 0, 62, 0
1, 77880, Note_on_c, 0, 67, 0
1, 77880, Note_on_c, 0, 59, 0
1, 78000, Note_on_c, 0, 67, 81
1, 78120, Note_on_c, 0, 67, 0
1, 78240, Tempo, 502092
1, 78240, Note_on_c, 0, 67, 56
1, 78240, Note_on_c, 0, 62, 77
1, 78240, Note_on_c, 0, 74, 90
1, 78240, Note_on_c, 0, 50, 56
1, 78240, Note_on_c, 0, 47, 56
1, 78240, Note_on_c, 0, 59, 64
1, 78254, Control_c, 0, 64, 127
1, 78480, Tempo, 517241
1, 78720, Tempo, 502092
1, 78720, Note_on_c, 0, 59, 0
1, 78720, Note_on_c, 0, 47, 0
1, 78720, Note_on_c, 0, 46, 57
1, 78720, Note_on_c, 0, 58, 67
1, 78960, Note_on_c, 0, 74, 0
1, 78960, Note_on_c, 0, 62, 0
1, 78960, Note_on_c, 0, 61, 71
1, 78960, Note_on_c, 0, 73, 83
1, 79200, Note_on_c, 0, 73, 0
1, 79200, Note_on_c, 0, 58, 0
1, 79200, Note_on_c, 0, 46, 0
1, 79200, Note_on_c, 0, 67, 0
1, 79200, Note_on_c, 0, 61, 0
1, 79200, Note_on_c, 0, 50, 0
1, 79200, Note_on_c, 0, 60, 71
1, 79200, Note_on_c, 0, 66, 71
1, 79200, Note_on_c, 0, 72, 82
1, 79200, Note_on_c, 0, 45, 57
1, 79200, Note_on_c, 0, 51, 57
1, 79200, Note_on_c, 0, 57, 69
1, 79207, Control_c, 0, 64, 0
1, 79337, Control_c, 0, 64, 127
1, 79635, Control_c, 0, 64, 0
1, 79680, Tempo, 516218
1, 79680, Note_on_c, 0, 57, 0
1, 79680, Note_on_c, 0, 66, 0
1, 79680, Note_on_c, 0, 72, 0
1, 79680, Note_on_c, 0, 60, 0
1, 79680, Note_on_c, 0, 51, 0
1, 79680, Note_on_c, 0, 45, 0
1, 79680, Note_on_c, 0, 59, 60
1, 79680, Note_on_c, 0, 65, 71
1, 79680, Note_on_c, 0, 71, 83
1, 79680, Note_on_c, 0, 44, 46
1, 79680, Note_on_c, 0, 50, 55
1, 79680, Note_on_c, 0, 56, 64
1, 79720, Tempo, 509338
1, 79800, Note_on_c, 0, 56, 0
1, 79800, Note_on_c, 0, 65, 0
1, 79800, Note_on_c, 0, 71, 0
1, 79800, Note_on_c, 0, 59, 0
1, 79800, Note_on_c, 0, 50, 0
1, 79800, Note_on_c, 0, 44, 0
1, 79920, Tempo, 520879
1, 79920, Note_on_c, 0, 68, 64
1, 79920, Note_on_c, 0, 65, 55
1, 79920, Note_on_c, 0, 71, 64
1, 79920, Note_on_c, 0, 77, 79
1, 79920, Note_on_c, 0, 50, 44
1, 79920, Note_on_c, 0, 59, 61
1, 79920, Note_on_c, 0, 56, 61
1, 80040, Note_on_c, 0, 56, 0
1, 80040, Note_on_c, 0, 50, 0
1, 80040, Note_on_c, 0, 65, 0
1, 80040, Note_on_c, 0, 71, 0
1, 80040, Note_on_c, 0, 68, 0
1, 80040, Note_on_c, 0, 59, 0
1, 80040, Note_on_c, 0, 77, 0
1, 80160, Tempo, 504202
1, 80160, Note_on_c, 0, 64, 72
1, 80160, Note_on_c, 0, 69, 72
1, 80160, Note_on_c, 0, 76, 84
1, 80160, Note_on_c, 0, 48, 55
1, 80160, Note_on_c, 0, 60, 64
1, 80160, Note_on_c, 0, 57, 64
1, 80199, Control_c, 0, 64, 127
1, 80400, Note_on_c, 0, 76, 0
1, 80400, Note_on_c, 0, 64, 0
1, 80400, Note_on_c, 0, 69, 0
1, 80400, Note_on_c, 0, 69, 79
1, 80640, Tempo, 495868
1, 80640, Note_on_c, 0, 69, 0
1, 80640, Note_on_c, 0, 57, 0
1, 80640, Note_on_c, 0, 60, 0
1, 80640, Note_on_c, 0, 48, 0
1, 80640, Note_on_c, 0, 62, 70
1, 80640, Note_on_c, 0, 67, 73
1, 80640, Note_on_c, 0, 74, 85
1, 80640, Control_c, 0, 64, 0
1, 80640, Note_on_c, 0, 50, 55
1, 80640, Note_on_c, 0, 55, 59
1, 80640, Note_on_c, 0, 59, 71
1, 80760, Note_on_c, 0, 59, 0
1, 80760, Note_on_c, 0, 67, 0
1, 80760, Note_on_c, 0, 74, 0
1, 80760, Note_on_c, 0, 62, 0
1, 80760, Note_on_c, 0, 55, 0
1, 80760, Note_on_c, 0, 50, 0
1, 80880, Tempo, 506329
1, 80880, Note_on_c, 0, 55, 61
1, 81120, Tempo, 517241
1, 81120, Note_on_c, 0, 55, 0
1, 81120, Note_on_c, 0, 62, 77
1, 81162, Control_c, 0, 64, 127
1, 81360, Tempo, 502092
1, 81360, Note_on_c, 0, 71, 75
1, 81600, Tempo, 510638
1, 81600, Note_on_c, 0, 71, 0
1, 81600, Note_on_c, 0, 60, 57
1, 81600, Note_on_c, 0, 66, 61
1, 81600, Note_on_c, 0, 69, 76
1, 81600, Note_on_c, 0, 50, 61
1, 81840, Tempo, 520879
1, 81840, Note_on_c, 0, 69, 0
1, 81840, Note_on_c, 0, 71, 75
1, 82080, Tempo, 527844
1, 82080, Note_on_c, 0, 71, 0
1, 82080, Note_on_c, 0, 50, 0
1, 82080, Note_on_c, 0, 66, 0
1, 82080, Note_on_c, 0, 60, 0
1, 82080, Note_on_c, 0, 59, 76
1, 82080, Note_on_c, 0, 67, 76
1, 82080, Control_c, 0, 64, 0
1, 82080, Note_on_c, 0, 55, 66
1, 82200, Note_on_c, 0, 55, 0
1, 82200, Note_on_c, 0, 62, 0
1, 82200, Note_on_c, 0, 59, 0
1, 82200, Note_on_c, 0, 67, 0
1, 82320, Note_on_c, 0, 67, 71
1, 82320, Note_on_c, 0, 71, 71
1, 82320, Note_on_c, 0, 74, 84
1, 82320, Note_on_c, 0, 55, 62
1, 82320, Note_on_c, 0, 59, 62
1, 82320, Note_on_c, 0, 62, 74
1, 82440, Note_on_c, 0, 62, 0
1, 82440, Note_on_c, 0, 71, 0
1, 82440, Note_on_c, 0, 74, 0
1, 82440, Note_on_c, 0, 67, 0
1, 82440, Note_on_c, 0, 59, 0
1, 82440, Note_on_c, 0, 55, 0
1, 82560, Tempo, 513963
1, 82560, Note_on_c, 0, 67, 77
1, 82560, Note_on_c, 0, 71, 77
1, 82560, Note_on_c, 0, 79, 90
1, 82560, Note_on_c, 0, 64, 78
1, 82560, Note_on_c, 0, 59, 78
1, 82560, Note_on_c, 0, 52, 63
1, 82629, Control_c, 0, 64, 127
1, 83040, Note_on_c, 0, 52, 0
1, 83040, Note_on_c, 0, 55, 75
1, 83280, Tempo, 505008
1, 83280, Note_on_c, 0, 79, 0
1, 83280, Note_on_c, 0, 76, 83
1, 83520, Tempo, 518448
1, 83520, Note_on_c, 0, 76, 0
1, 83520, Note_on_c, 0, 55, 0
1, 83520, Note_on_c, 0, 64, 0
1, 83520, Note_on_c, 0, 67, 0
1, 83520, Note_on_c, 0, 71, 0
1, 83520, Note_on_c, 0, 59, 0
1, 83520, Note_on_c, 0, 66, 73
1, 83520, Note_on_c, 0, 71, 73
1, 83520, Note_on_c, 0, 78, 86
1, 83520, Note_on_c, 0, 62, 72
1, 83520, Note_on_c, 0, 59, 59
1, 83527, Control_c, 0, 64, 0
1, 83640, Note_on_c, 0, 59, 0
1, 83640, Note_on_c, 0, 78, 0
1, 83640, Note_on_c, 0, 66, 0
1, 83640, Note_on_c, 0, 71, 0
1, 83640, Note_on_c, 0, 62, 0
1, 83760, Note_on_c, 0, 66, 67
1, 83760, Note_on_c, 0, 71, 81
1, 83760, Note_on_c, 0, 50, 55
1, 83760, Note_on_c, 0, 54, 55
1, 83760, Note_on_c, 0, 59, 63
1, 83880, Note_on_c, 0, 59, 0
1, 83880, Note_on_c, 0, 50, 0
1, 83880, Note_on_c, 0, 66, 0
1, 83880, Note_on_c, 0, 71, 0
1, 83880, Note_on_c, 0, 54, 0
1, 84000, Tempo, 513963
1, 84000, Note_on_c, 0, 64, 77
1, 84000, Note_on_c, 0, 67, 77
1, 84000, Note_on_c, 0, 76, 90
1, 84000, Note_on_c, 0, 60, 78
1, 84000, Note_on_c, 0, 55, 78
1, 84000, Note_on_c, 0, 48, 63
1, 84035, Control_c, 0, 64, 127
1, 84480, Note_on_c, 0, 48, 0
1, 84480, Note_on_c, 0, 52, 75
1, 84720, Tempo, 507228
1, 84720, Note_on_c, 0, 76, 0
1, 84720, Note_on_c, 0, 72, 78
1, 84960, Tempo, 518448
1, 84960, Note_on_c, 0, 72, 0
1, 84960, Note_on_c, 0, 52, 0
1, 84960, Note_on_c, 0, 60, 0
1, 84960, Note_on_c, 0, 64, 0
1, 84960, Note_on_c, 0, 67, 0
1, 84960, Note_on_c, 0, 55, 0
1, 84960, Note_on_c, 0, 62, 73
1, 84960, Note_on_c, 0, 67, 73
1, 84960, Note_on_c, 0, 74, 86
1, 84960, Note_on_c, 0, 59, 72
1, 84960, Note_on_c, 0, 55, 59
1, 84981, Control_c, 0, 64, 0
1, 85080, Note_on_c, 0, 55, 0
1, 85080, Note_on_c, 0, 74, 0
1, 85080, Note_on_c, 0, 62, 0
1, 85080, Note_on_c, 0, 67, 0
1, 85080, Note_on_c, 0, 59, 0
1, 85200, Note_on_c, 0, 67, 81
1, 85320, Note_on_c, 0, 67, 0
1, 85440, Tempo, 516218
1, 85440, Note_on_c, 0, 67, 56
1, 85440, Note_on_c, 0, 62, 77
1, 85440, Note_on_c, 0, 74, 90
1, 85440, Note_on_c, 0, 50, 56
1, 85440, Note_on_c, 0, 47, 56
1, 85440, Note_on_c, 0, 59, 64
1, 85468, Control_c, 0, 64, 127
1, 85680, Tempo, 507228
1, 85920, Tempo, 516218
1, 85920, Note_on_c, 0, 59, 0
1, 85920, Note_on_c, 0, 47, 0
1, 85920, Note_on_c, 0, 46, 50
1, 85920, Note_on_c, 0, 58, 60
1, 86160, Tempo, 507228
1, 86160, Note_on_c, 0, 74, 0
1, 86160, Note_on_c, 0, 62, 0
1, 86160, Note_on_c, 0, 61, 71
1, 86160, Note_on_c, 0, 73, 83
1, 86400, Tempo, 513963
1, 86400, Note_on_c, 0, 73, 0
1, 86400, Note_on_c, 0, 58, 0
1, 86400, Note_on_c, 0, 46, 0
1, 86400, Note_on_c, 0, 67, 0
1, 86400, Note_on_c, 0, 61, 0
1, 86400, Note_on_c, 0, 50, 0
1, 86400, Note_on_c, 0, 70, 62
1, 86400, Note_on_c, 0, 64, 80
1, 86400, Note_on_c, 0, 76, 95
1, 86400, Note_on_c, 0, 55, 58
1, 86400, Note_on_c, 0, 49, 58
1, 86400, Note_on_c, 0, 61, 69
1, 86414, Control_c, 0, 64, 0
1, 86571, Control_c, 0, 64, 127
1, 86640, Tempo, 498546
1, 86880, Tempo, 509338
1, 86880, Note_on_c, 0, 61, 0
1, 86880, Note_on_c, 0, 55, 0
1, 86880, Note_on_c, 0, 70, 0
1, 86880, Note_on_c, 0, 49, 0
1, 86880, Note_on_c, 0, 69, 73
1, 86880, Note_on_c, 0, 54, 48
1, 86880, Note_on_c, 0, 48, 49
1, 86880, Note_on_c, 0, 60, 59
1, 87120, Tempo, 500668
1, 87120, Note_on_c, 0, 64, 0
1, 87120, Note_on_c, 0, 76, 0
1, 87120, Note_on_c, 0, 63, 70
1, 87120, Note_on_c, 0, 75, 82
1, 87360, Tempo, 509338
1, 87360, Note_on_c, 0, 75, 0
1, 87360, Note_on_c, 0, 60, 0
1, 87360, Note_on_c, 0, 69, 0
1, 87360, Note_on_c, 0, 54, 0
1, 87360, Note_on_c, 0, 63, 0
1, 87360, Note_on_c, 0, 48, 0
1, 87360, Note_on_c, 0, 72, 71
1, 87360, Note_on_c, 0, 66, 84
1, 87360, Note_on_c, 0, 78, 100
1, 87360, Note_on_c, 0, 57, 61
1, 87360, Note_on_c, 0, 51, 61
1, 87360, Note_on_c, 0, 63, 72
1, 87380, Control_c, 0, 64, 0
1, 87554, Control_c, 0, 64, 127
1, 87600, Tempo, 500668
1, 87840, Tempo, 509338
1, 87840, Note_on_c, 0, 63, 0
1, 87840, Note_on_c, 0, 57, 0
1, 87840, Note_on_c, 0, 72, 0
1, 87840, Note_on_c, 0, 51, 0
1, 87840, Note_on_c, 0, 69, 74
1, 87840, Note_on_c, 0, 56, 50
1, 87840, Note_on_c, 0, 50, 51
1, 87840, Note_on_c, 0, 62, 61
1, 88080, Tempo, 496401
1, 88080, Note_on_c, 0, 66, 0
1, 88080, Note_on_c, 0, 78, 0
1, 88080, Note_on_c, 0, 65, 73
1, 88080, Note_on_c, 0, 77, 84
1, 88320, Tempo, 507228
1, 88320, Note_on_c, 0, 77, 0
1, 88320, Note_on_c, 0, 62, 0
1, 88320, Note_on_c, 0, 69, 0
1, 88320, Note_on_c, 0, 56, 0
1, 88320, Note_on_c, 0, 65, 0
1, 88320, Note_on_c, 0, 50, 0
1, 88320, Note_on_c, 0, 74, 72
1, 88320, Note_on_c, 0, 68, 86
1, 88320, Note_on_c, 0, 80, 104
1, 88320, Note_on_c, 0, 59, 63
1, 88320, Note_on_c, 0, 53, 63
1, 88320, Note_on_c, 0, 65, 75
1, 88330, Control_c, 0, 64, 0
1, 88560, Tempo, 498546
1, 88583, Control_c, 0, 64, 127
1, 88800, Tempo, 511771
1, 88800, Note_on_c, 0, 65, 0
1, 88800, Note_on_c, 0, 59, 0
1, 88800, Note_on_c, 0, 74, 0
1, 88800, Note_on_c, 0, 53, 0
1, 88800, Note_on_c, 0, 73, 80
1, 88800, Note_on_c, 0, 58, 56
1, 88800, Note_on_c, 0, 52, 58
1, 88800, Note_on_c, 0, 64, 69
1, 89040, Tempo, 530270
1, 89040, Note_on_c, 0, 68, 0
1, 89040, Note_on_c, 0, 80, 0
1, 89040, Note_on_c, 0, 67, 81
1, 89040, Note_on_c, 0, 79, 95
1, 89097, Control_c, 0, 64, 0
1, 89200, Tempo, 532718
1, 89200, Note_on_c, 0, 79, 0
1, 89200, Note_on_c, 0, 64, 0
1, 89200, Note_on_c, 0, 58, 0
1, 89200, Note_on_c, 0, 52, 0
1, 89200, Note_on_c, 0, 67, 0
1, 89200, Note_on_c, 0, 55, 50
1, 89210, Note_on_c, 0, 58, 53
1, 89220, Note_on_c, 0, 61, 55
1, 89230, Note_on_c, 0, 64, 57
1, 89240, Note_on_c, 0, 67, 59
1, 89250, Note_on_c, 0, 70, 74
1, 89260, Note_on_c, 0, 73, 77
1, 89270, Note_on_c, 0, 76, 79
1, 89280, Note_on_c, 0, 73, 0
1, 89280, Note_on_c, 0, 82, 99
1, 89312, Control_c, 0, 64, 127
1, 89440, Note_on_c, 0, 82, 0
1, 89440, Note_on_c, 0, 73, 0
1, 89440, Note_on_c, 0, 55, 0
1, 89440, Note_on_c, 0, 67, 0
1, 89440, Note_on_c, 0, 58, 0
1, 89440, Note_on_c, 0, 61, 0
1, 89440, Note_on_c, 0, 76, 0
1, 89440, Note_on_c, 0, 70, 0
1, 89440, Note_on_c, 0, 64, 0
1, 89440, Note_on_c, 0, 58, 48
1, 89450, Note_on_c, 0, 61, 51
1, 89460, Note_on_c, 0, 64, 52
1, 89470, Note_on_c, 0, 67, 56
1, 89480, Note_on_c, 0, 70, 58
1, 89490, Note_on_c, 0, 73, 74
1, 89500, Note_on_c, 0, 76, 78
1, 89510, Note_on_c, 0, 79, 80
1, 89520, Note_on_c, 0, 85, 94
1, 89680, Note_on_c, 0, 85, 0
1, 89680, Note_on_c, 0, 67, 0
1, 89680, Note_on_c, 0, 58, 0
1, 89680, Note_on_c, 0, 70, 0
1, 89680, Note_on_c, 0, 61, 0
1, 89680, Note_on_c, 0, 64, 0
1, 89680, Note_on_c, 0, 76, 0
1, 89680, Note_on_c, 0, 73, 0
1, 89680, Note_on_c, 0, 79, 0
1, 89680, Note_on_c, 0, 61, 52
1, 89690, Note_on_c, 0, 64, 56
1, 89700, Note_on_c, 0, 67, 56
1, 89710, Note_on_c, 0, 70, 59
1, 89720, Note_on_c, 0, 73, 60
1, 89730, Note_on_c, 0, 76, 75
1, 89740, Note_on_c, 0, 79, 80
1, 89750, Note_on_c, 0, 82, 82
1, 89760, Note_on_c, 0, 88, 99
1, 89920, Note_on_c, 0, 88, 0
1, 89920, Note_on_c, 0, 70, 0
1, 89920, Note_on_c, 0, 61, 0
1, 89920, Note_on_c, 0, 73, 0
1, 89920, Note_on_c, 0, 64, 0
1, 89920, Note_on_c, 0, 67, 0
1, 89920, Note_on_c, 0, 79, 0
1, 89920, Note_on_c, 0, 76, 0
1, 89920, Note_on_c, 0, 82, 0
1, 89920, Note_on_c, 0, 64, 50
1, 89930, Note_on_c, 0, 67, 52
1, 89940, Note_on_c, 0, 70, 53
1, 89950, Note_on_c, 0, 73, 56
1, 89960, Note_on_c, 0, 76, 58
1, 89970, Note_on_c, 0, 79, 74
1, 89980, Note_on_c, 0, 82, 78
1, 89990, Note_on_c, 0, 85, 80
1, 90000, Note_on_c, 0, 91, 95
1, 90160, Note_on_c, 0, 91, 0
1, 90160, Note_on_c, 0, 73, 0
1, 90160, Note_on_c, 0, 64, 0
1, 90160, Note_on_c, 0, 76, 0
1, 90160, Note_on_c, 0, 67, 0
1, 90160, Note_on_c, 0, 70, 0
1, 90160, Note_on_c, 0, 82, 0
1, 90160, Note_on_c, 0, 79, 0
1, 90160, Note_on_c, 0, 85, 0
1, 90160, Note_on_c, 0, 67, 53
1, 90170, Note_on_c, 0, 70, 55
1, 90180, Note_on_c, 0, 73, 56
1, 90190, Note_on_c, 0, 76, 58
1, 90200, Note_on_c, 0, 79, 59
1, 90210, Note_on_c, 0, 82, 79
1, 90220, Tempo, 530270
1, 90220, Note_on_c, 0, 85, 82
1, 90230, Note_on_c, 0, 88, 84
1, 90240, Tempo, 532718
1, 90240, Note_on_c, 0, 94, 99
1, 90260, Tempo, 535189
1, 90280, Tempo, 537634
1, 90300, Tempo, 540151
1, 90320, Tempo, 542643
1, 90340, Tempo, 545157
1, 90360, Tempo, 547645
1, 90380, Tempo, 550358
1, 90400, Tempo, 552944
1, 90400, Note_on_c, 0, 94, 0
1, 90400, Note_on_c, 0, 76, 0
1, 90400, Note_on_c, 0, 67, 0
1, 90400, Note_on_c, 0, 79, 0
1, 90400, Note_on_c, 0, 70, 0
1, 90400, Note_on_c, 0, 73, 0
1, 90400, Note_on_c, 0, 85, 0
1, 90400, Note_on_c, 0, 82, 0
1, 90400, Note_on_c, 0, 88, 0
1, 90400, Note_on_c, 0, 70, 51
1, 90410, Note_on_c, 0, 73, 53
1, 90420, Tempo, 555556
1, 90420, Note_on_c, 0, 76, 53
1, 90430, Note_on_c, 0, 79, 56
1, 90440, Tempo, 558191
1, 90440, Note_on_c, 0, 82, 57
1, 90450, Note_on_c, 0, 85, 75
1, 90460, Tempo, 560852
1, 90460, Note_on_c, 0, 88, 79
1, 90470, Note_on_c, 0, 91, 81
1, 90480, Tempo, 563645
1, 90480, Note_on_c, 0, 97, 94
1, 90500, Tempo, 566305
1, 90520, Tempo, 569098
1, 90540, Tempo, 571810
1, 90560, Tempo, 574713
1, 90580, Tempo, 577590
1, 90600, Tempo, 580439
1, 90620, Tempo, 583317
1, 90640, Tempo, 617411
1, 90640, Note_on_c, 0, 97, 0
1, 90640, Note_on_c, 0, 79, 0
1, 90640, Note_on_c, 0, 70, 0
1, 90640, Note_on_c, 0, 82, 0
1, 90640, Note_on_c, 0, 73, 0
1, 90640, Note_on_c, 0, 76, 0
1, 90640, Note_on_c, 0, 88, 0
1, 90640, Note_on_c, 0, 85, 0
1, 90640, Note_on_c, 0, 91, 0
1, 90640, Note_on_c, 0, 73, 51
1, 90650, Note_on_c, 0, 76, 53
1, 90660, Note_on_c, 0, 79, 55
1, 90670, Note_on_c, 0, 82, 58
1, 90680, Note_on_c, 0, 85, 59
1, 90690, Note_on_c, 0, 88, 78
1, 90700, Note_on_c, 0, 91, 83
1, 90710, Note_on_c, 0, 94, 86
1, 90720, Note_on_c, 0, 100, 101
1, 91120, Tempo, 678273
1, 91120, Note_on_c, 0, 100, 0
1, 91120, Note_on_c, 0, 82, 0
1, 91120, Note_on_c, 0, 73, 0
1, 91120, Note_on_c, 0, 85, 0
1, 91120, Note_on_c, 0, 76, 0
1, 91120, Note_on_c, 0, 79, 0
1, 91120, Note_on_c, 0, 91, 0
1, 91120, Note_on_c, 0, 88, 0
1, 91120, Note_on_c, 0, 94, 0
1, 91120, Note_on_c, 0, 76, 50
1, 91130, Note_on_c, 0, 79, 53
1, 91140, Note_on_c, 0, 82, 55
1, 91150, Note_on_c, 0, 85, 57
1, 91160, Note_on_c, 0, 88, 59
1, 91170, Note_on_c, 0, 91, 78
1, 91180, Note_on_c, 0, 94, 82
1, 91190, Note_on_c, 0, 97, 85
1, 91200, Note_on_c, 0, 103, 99
1, 91563, Control_c, 0, 64, 0
1, 91600, Note_on_c, 0, 103, 0
1, 91600, Note_on_c, 0, 85, 0
1, 91600, Note_on_c, 0, 76, 0
1, 91600, Note_on_c, 0, 88, 0
1, 91600, Note_on_c, 0, 79, 0
1, 91600, Note_on_c, 0, 82, 0
1, 91600, Note_on_c, 0, 94, 0
1, 91600, Note_on_c, 0, 91, 0
1, 91600, Note_on_c, 0, 97, 0
1, 91680, Tempo, 689338
1, 92160, Time_signature, 4, 2, 24, 8
1, 92160, Key_signature, -2, "major"
1, 92160, Tempo, 620732
1, 92161, Tempo, 636740
1, 92400, Note_on_c, 0, 52, 72
1, 92520, Note_on_c, 0, 52, 0
1, 92640, Tempo, 650336
1, 92640, Note_on_c, 0, 49, 71
1, 92760, Note_on_c, 0, 49, 0
1, 92880, Note_on_c, 0, 46, 70
1, 93000, Note_on_c, 0, 46, 0
1, 93120, Tempo, 668226
1, 93120, Note_on_c, 0, 45, 74
1, 93600, Note_on_c, 0, 45, 0
1, 93600, Note_on_c, 0, 43, 72
1, 94080, Tempo, 729395
1, 94080, Note_on_c, 0, 43, 0
1, 94080, Note_on_c, 0, 42, 71
1, 94149, Control_c, 0, 64, 127
1, 94560, Note_on_c, 0, 74, 62
1, 94560, Note_on_c, 0, 72, 62
1, 94560, Note_on_c, 0, 69, 62
1, 94560, Note_on_c, 0, 62, 62
1, 94560, Note_on_c, 0, 57, 51
1, 94560, Note_on_c, 0, 50, 51
1, 95040, Tempo, 1224490
1, 95109, Control_c, 0, 64, 0
1, 95280, Tempo, 645161
1, 95280, Note_on_c, 0, 50, 0
1, 95280, Note_on_c, 0, 62, 0
1, 95280, Note_on_c, 0, 74, 0
1, 95280, Note_on_c, 0, 72, 0
1, 95280, Note_on_c, 0, 42, 0
1, 95280, Note_on_c, 0, 57, 0
1, 95280, Note_on_c, 0, 69, 0
1, 95280, Note_on_c, 0, 62, 53
1, 95380, Tempo, 641711
1, 95460, Tempo, 638298
1, 95520, Note_on_c, 0, 62, 0
1, 95520, Note_on_c, 0, 64, 54
1, 95560, Tempo, 634921
1, 95640, Tempo, 631579
1, 95740, Tempo, 628272
1, 95760, Note_on_c, 0, 64, 0
1, 95760, Note_on_c, 0, 66, 56
1, 95820, Tempo, 625000
1, 95920, Tempo, 621762
1, 96000, Tempo, 618557
1, 96000, Note_on_c, 0, 66, 0
1, 96000, Note_on_c, 0, 67, 57
1, 96000, Control_c, 0, 64, 0
1, 96000, Note_on_c, 0, 43, 40
1, 96114, Control_c, 0, 64, 127
1, 96240, Tempo, 603015
1, 96240, Note_on_c, 0, 67, 0
1, 96240, Note_on_c, 0, 69, 59
1, 96480, Tempo, 618557
1, 96480, Note_on_c, 0, 69, 0
1, 96480, Note_on_c, 0, 43, 0
1, 96480, Note_on_c, 0, 70, 61
1, 96480, Note_on_c, 0, 50, 37
1, 96720, Note_on_c, 0, 70, 0
1, 96720, Note_on_c, 0, 72, 63
1, 96960, Tempo, 628865
1, 96960, Note_on_c, 0, 72, 0
1, 96960, Note_on_c, 0, 50, 0
1, 96960, Note_on_c, 0, 74, 65
1, 96960, Note_on_c, 0, 62, 40
1, 96960, Note_on_c, 0, 58, 34
1, 96960, Note_on_c, 0, 55, 34
1, 96973, Control_c, 0, 64, 0
1, 97045, Control_c, 0, 64, 127
1, 97200, Tempo, 610190
1, 97200, Note_on_c, 0, 55, 0
1, 97200, Note_on_c, 0, 74, 0
1, 97200, Note_on_c, 0, 62, 0
1, 97200, Note_on_c, 0, 58, 0
1, 97200, Note_on_c, 0, 79, 68
1, 97200, Note_on_c, 0, 58, 49
1, 97440, Tempo, 632111
1, 97440, Note_on_c, 0, 58, 0
1, 97440, Note_on_c, 0, 79, 0
1, 97440, Note_on_c, 0, 78, 66
1, 97440, Note_on_c, 0, 57, 50
1, 97680, Tempo, 638638
1, 97680, Note_on_c, 0, 57, 0
1, 97680, Note_on_c, 0, 78, 0
1, 97680, Note_on_c, 0, 79, 64
1, 97680, Note_on_c, 0, 55, 48
1, 97920, Tempo, 606061
1, 97920, Note_on_c, 0, 55, 0
1, 97920, Note_on_c, 0, 79, 0
1, 97920, Note_on_c, 0, 74, 53
1, 97920, Note_on_c, 0, 54, 43
1, 97920, Note_on_c, 0, 50, 36
1, 97920, Note_on_c, 0, 46, 36
1, 97940, Control_c, 0, 64, 0
1, 98160, Tempo, 616270
1, 98160, Note_on_c, 0, 54, 0
1, 98160, Control_c, 0, 64, 127
1, 98160, Note_on_c, 0, 55, 48
1, 98400, Tempo, 607226
1, 98400, Note_on_c, 0, 55, 0
1, 98400, Note_on_c, 0, 46, 0
1, 98400, Note_on_c, 0, 50, 0
1, 98400, Note_on_c, 0, 58, 52
1, 98640, Tempo, 622536
1, 98640, Note_on_c, 0, 58, 0
1, 98640, Note_on_c, 0, 60, 48
1, 98880, Tempo, 608704
1, 98880, Note_on_c, 0, 60, 0
1, 98880, Note_on_c, 0, 74, 0
1, 98880, Note_on_c, 0, 62, 52
1, 98895, Control_c, 0, 64, 0
1, 99007, Control_c, 0, 64, 127
1, 99120, Tempo, 615700
1, 99120, Note_on_c, 0, 62, 0
1, 99120, Note_on_c, 0, 74, 56
1, 99320, Tempo, 630252
1, 99360, Note_on_c, 0, 74, 0
1, 99360, Note_on_c, 0, 63, 31
1, 99360, Note_on_c, 0, 67, 31
1, 99360, Note_on_c, 0, 69, 59
1, 99360, Note_on_c, 0, 48, 35
1, 99600, Tempo, 641711
1, 99600, Note_on_c, 0, 69, 0
1, 99600, Note_on_c, 0, 72, 51
1, 99840, Tempo, 605205
1, 99840, Note_on_c, 0, 72, 0
1, 99840, Note_on_c, 0, 48, 0
1, 99840, Note_on_c, 0, 67, 0
1, 99840, Note_on_c, 0, 63, 0
1, 99840, Note_on_c, 0, 62, 45
1, 99840, Note_on_c, 0, 67, 45
1, 99840, Note_on_c, 0, 70, 53
1, 99840, Note_on_c, 0, 50, 42
1, 99860, Control_c, 0, 64, 0
1, 99989, Control_c, 0, 64, 127
1, 100080, Tempo, 616270
1, 100080, Note_on_c, 0, 50, 0
1, 100080, Note_on_c, 0, 62, 0
1, 100080, Note_on_c, 0, 67, 0
1, 100080, Note_on_c, 0, 70, 0
1, 100080, Note_on_c, 0, 63, 50
1, 100320, Tempo, 625652
1, 100320, Note_on_c, 0, 63, 0
1, 100320, Note_on_c, 0, 58, 31
1, 100320, Note_on_c, 0, 55, 31
1, 100320, Note_on_c, 0, 61, 50
1, 100560, Tempo, 628272
1, 100560, Note_on_c, 0, 61, 0
1, 100560, Note_on_c, 0, 55, 0
1, 100560, Note_on_c, 0, 58, 0
1, 100560, Note_on_c, 0, 63, 39
1, 100800, Tempo, 619323
1, 100800, Note_on_c, 0, 63, 0
1, 100800, Note_on_c, 0, 55, 34
1, 100800, Note_on_c, 0, 58, 34
1, 100800, Note_on_c, 0, 62, 40
1, 100810, Control_c, 0, 64, 0
1, 100941, Control_c, 0, 64, 127
1, 101040, Tempo, 626566
1, 101040, Note_on_c, 0, 62, 0
1, 101040, Note_on_c, 0, 58, 0
1, 101040, Note_on_c, 0, 55, 0
1, 101040, Note_on_c, 0, 70, 53
1, 101080, Tempo, 626566
1, 101280, Tempo, 630252
1, 101280, Note_on_c, 0, 70, 0
1, 101280, Note_on_c, 0, 60, 46
1, 101280, Note_on_c, 0, 66, 57
1, 101280, Note_on_c, 0, 50, 42
1, 101520, Note_on_c, 0, 66, 0
1, 101520, Note_on_c, 0, 69, 49
1, 101760, Tempo, 604169
1, 101760, Note_on_c, 0, 69, 0
1, 101760, Note_on_c, 0, 50, 0
1, 101760, Note_on_c, 0, 60, 0
1, 101760, Note_on_c, 0, 58, 47
1, 101760, Note_on_c, 0, 67, 53
1, 101760, Note_on_c, 0, 43, 46
1, 101772, Control_c, 0, 64, 0
1, 101874, Control_c, 0, 64, 127
1, 102000, Tempo, 619451
1, 102000, Note_on_c, 0, 51, 42
1, 102240, Tempo, 632111
1, 102240, Note_on_c, 0, 51, 0
1, 102240, Note_on_c, 0, 49, 44
1, 102480, Note_on_c, 0, 49, 0
1, 102480, Note_on_c, 0, 51, 32
1, 102720, Note_on_c, 0, 51, 0
1, 102720, Note_on_c, 0, 58, 0
1, 102720, Note_on_c, 0, 67, 0
1, 102720, Note_on_c, 0, 50, 35
1, 102741, Control_c, 0, 64, 0
1, 102903, Control_c, 0, 64, 127
1, 102960, Tempo, 612182
1, 102960, Note_on_c, 0, 62, 52
1, 103200, Note_on_c, 0, 62, 0
1, 103200, Note_on_c, 0, 60, 48
1, 103200, Note_on_c, 0, 64, 54
1, 103440, Note_on_c, 0, 64, 0
1, 103440, Note_on_c, 0, 66, 55
1, 103680, Tempo, 618557
1, 103680, Note_on_c, 0, 66, 0
1, 103680, Note_on_c, 0, 60, 0
1, 103680, Note_on_c, 0, 50, 0
1, 103680, Note_on_c, 0, 43, 0
1, 103680, Note_on_c, 0, 58, 51
1, 103680, Note_on_c, 0, 67, 57
1, 103680, Note_on_c, 0, 43, 40
1, 103697, Control_c, 0, 64, 0
1, 103794, Control_c, 0, 64, 127
1, 103920, Tempo, 600000
1, 103920, Note_on_c, 0, 67, 0
1, 103920, Note_on_c, 0, 58, 0
1, 103920, Note_on_c, 0, 69, 59
1, 104160, Tempo, 609137
1, 104160, Note_on_c, 0, 69, 0
1, 104160, Note_on_c, 0, 43, 0
1, 104160, Note_on_c, 0, 70, 61
1, 104160, Note_on_c, 0, 50, 37
1, 104400, Note_on_c, 0, 70, 0
1, 104400, Note_on_c, 0, 72, 63
1, 104640, Tempo, 645161
1, 104640, Note_on_c, 0, 72, 0
1, 104640, Note_on_c, 0, 50, 0
1, 104640, Note_on_c, 0, 74, 68
1, 104640, Note_on_c, 0, 62, 40
1, 104640, Note_on_c, 0, 58, 34
1, 104640, Note_on_c, 0, 55, 34
1, 104660, Control_c, 0, 64, 0
1, 104753, Control_c, 0, 64, 127
1, 104880, Tempo, 582524
1, 104880, Note_on_c, 0, 55, 0
1, 104880, Note_on_c, 0, 74, 0
1, 104880, Note_on_c, 0, 62, 0
1, 104880, Note_on_c, 0, 58, 0
1, 104880, Note_on_c, 0, 79, 63
1, 104880, Note_on_c, 0, 58, 50
1, 105120, Tempo, 600000
1, 105120, Note_on_c, 0, 58, 0
1, 105120, Note_on_c, 0, 79, 0
1, 105120, Note_on_c, 0, 75, 40
1, 105120, Note_on_c, 0, 72, 36
1, 105120, Note_on_c, 0, 65, 33
1, 105120, Note_on_c, 0, 77, 61
1, 105120, Note_on_c, 0, 57, 53
1, 105360, Tempo, 641711
1, 105360, Note_on_c, 0, 57, 0
1, 105360, Note_on_c, 0, 77, 0
1, 105360, Note_on_c, 0, 79, 59
1, 105360, Note_on_c, 0, 55, 49
1, 105600, Tempo, 585366
1, 105600, Note_on_c, 0, 55, 0
1, 105600, Note_on_c, 0, 75, 0
1, 105600, Note_on_c, 0, 65, 0
1, 105600, Note_on_c, 0, 72, 0
1, 105600, Note_on_c, 0, 79, 0
1, 105600, Note_on_c, 0, 65, 46
1, 105600, Note_on_c, 0, 70, 46
1, 105600, Note_on_c, 0, 74, 55
1, 105600, Note_on_c, 0, 53, 38
1, 105600, Note_on_c, 0, 46, 44
1, 105619, Control_c, 0, 64, 0
1, 105760, Control_c, 0, 64, 127
1, 105840, Tempo, 597015
1, 105840, Note_on_c, 0, 53, 0
1, 105840, Note_on_c, 0, 55, 49
1, 106080, Tempo, 606061
1, 106080, Note_on_c, 0, 55, 0
1, 106080, Note_on_c, 0, 46, 0
1, 106080, Note_on_c, 0, 58, 52
1, 106320, Tempo, 622536
1, 106320, Note_on_c, 0, 58, 0
1, 106320, Note_on_c, 0, 62, 49
1, 106558, Note_on_c, 0, 65, 0
1, 106560, Tempo, 608704
1, 106560, Note_on_c, 0, 70, 0
1, 106560, Note_on_c, 0, 74, 0
1, 106560, Note_on_c, 0, 62, 0
1, 106560, Note_on_c, 0, 65, 52
1, 106581, Control_c, 0, 64, 0
1, 106687, Control_c, 0, 64, 127
1, 106800, Tempo, 615700
1, 106800, Note_on_c, 0, 65, 0
1, 106800, Note_on_c, 0, 77, 60
1, 107000, Tempo, 630252
1, 107040, Note_on_c, 0, 77, 0
1, 107040, Note_on_c, 0, 63, 50
1, 107040, Note_on_c, 0, 70, 50
1, 107040, Note_on_c, 0, 74, 50
1, 107040, Note_on_c, 0, 75, 63
1, 107040, Note_on_c, 0, 43, 41
1, 107280, Tempo, 641711
1, 107280, Note_on_c, 0, 75, 0
1, 107280, Note_on_c, 0, 77, 58
1, 107520, Tempo, 594059
1, 107520, Note_on_c, 0, 77, 0
1, 107520, Note_on_c, 0, 43, 0
1, 107520, Note_on_c, 0, 63, 0
1, 107520, Note_on_c, 0, 70, 0
1, 107520, Note_on_c, 0, 74, 0
1, 107520, Note_on_c, 0, 63, 50
1, 107520, Note_on_c, 0, 69, 50
1, 107520, Note_on_c, 0, 72, 60
1, 107520, Note_on_c, 0, 45, 44
1, 107536, Control_c, 0, 64, 0
1, 107680, Control_c, 0, 64, 127
1, 107760, Tempo, 612245
1, 107760, Note_on_c, 0, 55, 44
1, 108000, Tempo, 598325
1, 108000, Note_on_c, 0, 55, 0
1, 108000, Note_on_c, 0, 45, 0
1, 108000, Note_on_c, 0, 57, 48
1, 108240, Tempo, 622536
1, 108240, Note_on_c, 0, 57, 0
1, 108240, Note_on_c, 0, 60, 45
1, 108478, Note_on_c, 0, 63, 0
1, 108480, Tempo, 608704
1, 108480, Note_on_c, 0, 69, 0
1, 108480, Note_on_c, 0, 72, 0
1, 108480, Note_on_c, 0, 60, 0
1, 108480, Note_on_c, 0, 63, 41
1, 108500, Control_c, 0, 64, 0
1, 108635, Control_c, 0, 64, 127
1, 108720, Tempo, 615700
1, 108720, Note_on_c, 0, 63, 0
1, 108720, Note_on_c, 0, 75, 55
1, 108920, Tempo, 630252
1, 108960, Note_on_c, 0, 75, 0
1, 108960, Note_on_c, 0, 62, 37
1, 108960, Note_on_c, 0, 69, 37
1, 108960, Note_on_c, 0, 72, 38
1, 108960, Note_on_c, 0, 74, 56
1, 108960, Note_on_c, 0, 42, 36
1, 109200, Tempo, 641711
1, 109200, Note_on_c, 0, 74, 0
1, 109200, Note_on_c, 0, 75, 50
1, 109440, Tempo, 634921
1, 109440, Note_on_c, 0, 75, 0
1, 109440, Note_on_c, 0, 42, 0
1, 109440, Note_on_c, 0, 62, 0
1, 109440, Note_on_c, 0, 69, 0
1, 109440, Note_on_c, 0, 72, 0
1, 109440, Note_on_c, 0, 62, 47
1, 109440, Note_on_c, 0, 67, 47
1, 109440, Note_on_c, 0, 70, 56
1, 109440, Note_on_c, 0, 43, 42
1, 109461, Control_c, 0, 64, 0
1, 109595, Control_c, 0, 64, 127
1, 109680, Tempo, 609137
1, 109680, Note_on_c, 0, 50, 37
1, 109920, Tempo, 619451
1, 109920, Note_on_c, 0, 50, 0
1, 109920, Note_on_c, 0, 70, 0
1, 109920, Note_on_c, 0, 62, 0
1, 109920, Note_on_c, 0, 67, 0
1, 109920, Note_on_c, 0, 43, 0
1, 109920, Note_on_c, 0, 55, 43
1, 110160, Tempo, 632111
1, 110160, Note_on_c, 0, 55, 0
1, 110160, Note_on_c, 0, 58, 39
1, 110400, Tempo, 615700
1, 110400, Note_on_c, 0, 58, 0
1, 110400, Note_on_c, 0, 62, 38
1, 110420, Control_c, 0, 64, 0
1, 110612, Control_c, 0, 64, 127
1, 110640, Tempo, 630252
1, 110640, Note_on_c, 0, 62, 0
1, 110640, Note_on_c, 0, 74, 57
1, 110880, Tempo, 618557
1, 110880, Note_on_c, 0, 74, 0
1, 110880, Note_on_c, 0, 63, 37
1, 110880, Note_on_c, 0, 69, 37
1, 110880, Note_on_c, 0, 72, 59
1, 110880, Note_on_c, 0, 48, 36
1, 111040, Tempo, 631579
1, 111120, Note_on_c, 0, 72, 0
1, 111120, Note_on_c, 0, 74, 55
1, 111160, Tempo, 634921
1, 111280, Tempo, 638298
1, 111360, Tempo, 628272
1, 111360, Note_on_c, 0, 74, 0
1, 111360, Note_on_c, 0, 48, 0
1, 111360, Note_on_c, 0, 69, 0
1, 111360, Note_on_c, 0, 63, 0
1, 111360, Note_on_c, 0, 62, 37
1, 111360, Note_on_c, 0, 67, 37
1, 111360, Note_on_c, 0, 72, 58
1, 111360, Note_on_c, 0, 50, 42
1, 111370, Control_c, 0, 64, 0
1, 111400, Tempo, 628272
1, 111473, Control_c, 0, 64, 127
1, 111600, Tempo, 634921
1, 111600, Note_on_c, 0, 72, 0
1, 111600, Note_on_c, 0, 70, 54
1, 111838, Note_on_c, 0, 62, 0
1, 111840, Tempo, 641711
1, 111840, Note_on_c, 0, 67, 0
1, 111840, Note_on_c, 0, 70, 0
1, 111840, Note_on_c, 0, 58, 34
1, 111840, Note_on_c, 0, 69, 53
1, 111840, Note_on_c, 0, 62, 34
1, 112080, Tempo, 655738
1, 112080, Note_on_c, 0, 69, 0
1, 112080, Note_on_c, 0, 67, 52
1, 112320, Tempo, 655738
1, 112320, Note_on_c, 0, 67, 0
1, 112320, Note_on_c, 0, 62, 0
1, 112320, Note_on_c, 0, 58, 0
1, 112320, Note_on_c, 0, 64, 37
1, 112320, Note_on_c, 0, 70, 55
1, 112320, Note_on_c, 0, 61, 33
1, 112332, Control_c, 0, 64, 0
1, 112419, Control_c, 0, 64, 127
1, 112800, Tempo, 655738
1, 112800, Note_on_c, 0, 61, 0
1, 112800, Note_on_c, 0, 64, 0
1, 112800, Note_on_c, 0, 63, 31
1, 112800, Note_on_c, 0, 66, 34
1, 112800, Note_on_c, 0, 60, 32
1, 113040, Tempo, 693642
1, 113040, Note_on_c, 0, 70, 0
1, 113040, Note_on_c, 0, 69, 42
1, 113280, Tempo, 645161
1, 113280, Note_on_c, 0, 69, 0
1, 113280, Note_on_c, 0, 50, 0
1, 113280, Note_on_c, 0, 66, 0
1, 113280, Note_on_c, 0, 63, 0
1, 113280, Note_on_c, 0, 62, 43
1, 113280, Note_on_c, 0, 67, 51
1, 113280, Note_on_c, 0, 55, 30
1, 113300, Control_c, 0, 64, 0
1, 113435, Control_c, 0, 64, 127
1, 113520, Tempo, 659341
1, 113520, Note_on_c, 0, 60, 0
1, 113520, Note_on_c, 0, 58, 36
1, 113760, Note_on_c, 0, 58, 0
1, 113760, Note_on_c, 0, 55, 0
1, 113760, Note_on_c, 0, 67, 0
1, 113760, Note_on_c, 0, 62, 0
1, 113760, Note_on_c, 0, 55, 37
1, 114000, Note_on_c, 0, 55, 0
1, 114000, Note_on_c, 0, 50, 36
1, 114240, Note_on_c, 0, 50, 0
1, 114240, Note_on_c, 0, 43, 36
1, 114480, Tempo, 612182
1, 114480, Note_on_c, 0, 67, 68
1, 114720, Tempo, 591133
1, 114720, Note_on_c, 0, 67, 0
1, 114720, Note_on_c, 0, 43, 0
1, 114720, Note_on_c, 0, 69, 69
1, 114726, Control_c, 0, 64, 0
1, 114861, Control_c, 0, 64, 127
1, 114960, Note_on_c, 0, 69, 0
1, 114960, Note_on_c, 0, 70, 69
1, 115000, Tempo, 609137
1, 115200, Tempo, 618557
1, 115200, Note_on_c, 0, 70, 0
1, 115200, Note_on_c, 0, 72, 69
1, 115200, Note_on_c, 0, 51, 52
1, 115213, Control_c, 0, 64, 0
1, 115327, Control_c, 0, 64, 127
1, 115440, Tempo, 591133
1, 115440, Note_on_c, 0, 72, 0
1, 115440, Note_on_c, 0, 74, 70
1, 115680, Tempo, 600000
1, 115680, Note_on_c, 0, 74, 0
1, 115680, Note_on_c, 0, 51, 0
1, 115680, Note_on_c, 0, 75, 72
1, 115680, Note_on_c, 0, 65, 49
1, 115920, Tempo, 612245
1, 115920, Note_on_c, 0, 75, 0
1, 115920, Note_on_c, 0, 77, 74
1, 116160, Tempo, 595061
1, 116160, Note_on_c, 0, 77, 0
1, 116160, Note_on_c, 0, 65, 0
1, 116160, Note_on_c, 0, 79, 75
1, 116160, Note_on_c, 0, 60, 52
1, 116160, Note_on_c, 0, 57, 44
1, 116160, Note_on_c, 0, 53, 44
1, 116182, Control_c, 0, 64, 0
1, 116400, Note_on_c, 0, 79, 0
1, 116400, Note_on_c, 0, 81, 72
1, 116414, Control_c, 0, 64, 127
1, 116640, Tempo, 612182
1, 116640, Note_on_c, 0, 81, 0
1, 116640, Note_on_c, 0, 82, 79
1, 116880, Tempo, 634048
1, 116880, Note_on_c, 0, 82, 0
1, 116880, Note_on_c, 0, 84, 77
1, 117120, Tempo, 609137
1, 117120, Note_on_c, 0, 84, 0
1, 117120, Note_on_c, 0, 53, 0
1, 117120, Note_on_c, 0, 57, 0
1, 117120, Note_on_c, 0, 60, 0
1, 117120, Note_on_c, 0, 77, 75
1, 117120, Note_on_c, 0, 50, 67
1, 117130, Control_c, 0, 64, 0
1, 117261, Control_c, 0, 64, 127
1, 117360, Tempo, 585366
1, 117360, Note_on_c, 0, 53, 60
1, 117600, Tempo, 582524
1, 117600, Note_on_c, 0, 53, 0
1, 117600, Note_on_c, 0, 50, 0
1, 117600, Note_on_c, 0, 58, 63
1, 117840, Tempo, 604169
1, 117840, Note_on_c, 0, 58, 0
1, 117840, Note_on_c, 0, 62, 59
1, 118080, Tempo, 592593
1, 118080, Note_on_c, 0, 62, 0
1, 118080, Note_on_c, 0, 77, 0
1, 118080, Note_on_c, 0, 65, 66
1, 118100, Control_c, 0, 64, 0
1, 118292, Control_c, 0, 64, 127
1, 118320, Tempo, 595061
1, 118320, Note_on_c, 0, 77, 73
1, 118560, Tempo, 585366
1, 118560, Note_on_c, 0, 77, 0
1, 118560, Note_on_c, 0, 79, 75
1, 118560, Note_on_c, 0, 53, 44
1, 118560, Note_on_c, 0, 62, 52
1, 118560, Note_on_c, 0, 58, 44
1, 118800, Note_on_c, 0, 79, 0
1, 118800, Note_on_c, 0, 82, 73
1, 118840, Tempo, 626566
1, 119040, Tempo, 592593
1, 119040, Note_on_c, 0, 82, 0
1, 119040, Note_on_c, 0, 58, 0
1, 119040, Note_on_c, 0, 65, 0
1, 119040, Note_on_c, 0, 53, 0
1, 119040, Note_on_c, 0, 62, 0
1, 119040, Note_on_c, 0, 75, 70
1, 119040, Note_on_c, 0, 48, 57
1, 119058, Control_c, 0, 64, 0
1, 119167, Control_c, 0, 64, 127
1, 119280, Tempo, 576923
1, 119280, Note_on_c, 0, 53, 53
1, 119520, Tempo, 582524
1, 119520, Note_on_c, 0, 53, 0
1, 119520, Note_on_c, 0, 48, 0
1, 119520, Note_on_c, 0, 57, 58
1, 119760, Tempo, 591133
1, 119760, Note_on_c, 0, 57, 0
1, 119760, Note_on_c, 0, 63, 54
1, 120000, Tempo, 601263
1, 120000, Note_on_c, 0, 63, 0
1, 120000, Note_on_c, 0, 75, 0
1, 120000, Note_on_c, 0, 65, 57
1, 120020, Control_c, 0, 64, 0
1, 120226, Control_c, 0, 64, 127
1, 120240, Tempo, 609137
1, 120240, Note_on_c, 0, 75, 67
1, 120480, Tempo, 594059
1, 120480, Note_on_c, 0, 75, 0
1, 120480, Note_on_c, 0, 77, 71
1, 120480, Note_on_c, 0, 63, 47
1, 120480, Note_on_c, 0, 53, 39
1, 120480, Note_on_c, 0, 57, 39
1, 120720, Tempo, 622924
1, 120720, Note_on_c, 0, 77, 0
1, 120720, Note_on_c, 0, 81, 67
1, 120960, Tempo, 618557
1, 120960, Note_on_c, 0, 81, 0
1, 120960, Note_on_c, 0, 57, 0
1, 120960, Note_on_c, 0, 65, 0
1, 120960, Note_on_c, 0, 63, 0
1, 120960, Note_on_c, 0, 53, 0
1, 120960, Note_on_c, 0, 74, 60
1, 120960, Note_on_c, 0, 46, 53
1, 120977, Control_c, 0, 64, 0
1, 121101, Control_c, 0, 64, 127
1, 121200, Tempo, 594059
1, 121200, Note_on_c, 0, 53, 50
1, 121440, Tempo, 615385
1, 121440, Note_on_c, 0, 53, 0
1, 121440, Note_on_c, 0, 46, 0
1, 121440, Note_on_c, 0, 58, 53
1, 121680, Tempo, 634921
1, 121680, Note_on_c, 0, 58, 0
1, 121680, Note_on_c, 0, 62, 48
1, 121920, Tempo, 607226
1, 121920, Note_on_c, 0, 62, 0
1, 121920, Note_on_c, 0, 74, 0
1, 121920, Note_on_c, 0, 65, 47
1, 121934, Control_c, 0, 64, 0
1, 122047, Control_c, 0, 64, 127
1, 122160, Tempo, 591133
1, 122160, Note_on_c, 0, 67, 68
1, 122400, Tempo, 588235
1, 122400, Note_on_c, 0, 67, 0
1, 122400, Note_on_c, 0, 69, 69
1, 122400, Note_on_c, 0, 53, 34
1, 122400, Note_on_c, 0, 62, 41
1, 122400, Note_on_c, 0, 58, 34
1, 122413, Control_c, 0, 64, 0
1, 122569, Control_c, 0, 64, 127
1, 122640, Tempo, 609137
1, 122640, Note_on_c, 0, 69, 0
1, 122640, Note_on_c, 0, 70, 69
1, 122840, Tempo, 588235
1, 122880, Note_on_c, 0, 70, 0
1, 122880, Note_on_c, 0, 58, 0
1, 122880, Note_on_c, 0, 65, 0
1, 122880, Note_on_c, 0, 53, 0
1, 122880, Note_on_c, 0, 62, 0
1, 122880, Note_on_c, 0, 72, 69
1, 122880, Note_on_c, 0, 51, 52
1, 122896, Control_c, 0, 64, 0
1, 123007, Control_c, 0, 64, 127
1, 123120, Note_on_c, 0, 72, 0
1, 123120, Note_on_c, 0, 74, 70
1, 123160, Tempo, 609137
1, 123360, Note_on_c, 0, 74, 0
1, 123360, Note_on_c, 0, 51, 0
1, 123360, Note_on_c, 0, 75, 72
1, 123360, Note_on_c, 0, 65, 49
1, 123600, Note_on_c, 0, 75, 0
1, 123600, Note_on_c, 0, 77, 74
1, 123840, Tempo, 595061
1, 123840, Note_on_c, 0, 77, 0
1, 123840, Note_on_c, 0, 65, 0
1, 123840, Note_on_c, 0, 79, 75
1, 123840, Note_on_c, 0, 60, 52
1, 123840, Note_on_c, 0, 57, 44
1, 123840, Note_on_c, 0, 53, 44
1, 123860, Control_c, 0, 64, 0
1, 124038, Control_c, 0, 64, 127
1, 124080, Note_on_c, 0, 79, 0
1, 124080, Note_on_c, 0, 81, 72
1, 124320, Tempo, 612182
1, 124320, Note_on_c, 0, 81, 0
1, 124320, Note_on_c, 0, 82, 79
1, 124560, Tempo, 634048
1, 124560, Note_on_c, 0, 82, 0
1, 124560, Note_on_c, 0, 84, 77
1, 124800, Tempo, 582524
1, 124800, Note_on_c, 0, 84, 0
1, 124800, Note_on_c, 0, 53, 0
1, 124800, Note_on_c, 0, 57, 0
1, 124800, Note_on_c, 0, 60, 0
1, 124800, Note_on_c, 0, 74, 75
1, 124800, Note_on_c, 0, 50, 67
1, 124815, Control_c, 0, 64, 0
1, 124937, Control_c, 0, 64, 127
1, 125040, Tempo, 594059
1, 125040, Note_on_c, 0, 54, 60
1, 125280, Tempo, 597015
1, 125280, Note_on_c, 0, 54, 0
1, 125280, Note_on_c, 0, 50, 0
1, 125280, Note_on_c, 0, 57, 64
1, 125520, Tempo, 591133
1, 125520, Note_on_c, 0, 57, 0
1, 125520, Note_on_c, 0, 62, 62
1, 125760, Note_on_c, 0, 62, 0
1, 125760, Note_on_c, 0, 74, 0
1, 125760, Note_on_c, 0, 66, 58
1, 125780, Control_c, 0, 64, 0
1, 125931, Control_c, 0, 64, 127
1, 126000, Tempo, 595061
1, 126000, Note_on_c, 0, 74, 73
1, 126240, Note_on_c, 0, 74, 0
1, 126240, Note_on_c, 0, 66, 0
1, 126240, Note_on_c, 0, 76, 75
1, 126240, Note_on_c, 0, 57, 39
1, 126240, Note_on_c, 0, 62, 47
1, 126480, Note_on_c, 0, 76, 0
1, 126480, Note_on_c, 0, 78, 72
1, 126520, Tempo, 626566
1, 126720, Tempo, 601263
1, 126720, Note_on_c, 0, 78, 0
1, 126720, Note_on_c, 0, 62, 0
1, 126720, Note_on_c, 0, 57, 0
1, 126720, Note_on_c, 0, 79, 77
1, 126720, Note_on_c, 0, 50, 55
1, 126738, Control_c, 0, 64, 0
1, 126847, Control_c, 0, 64, 127
1, 126960, Tempo, 610190
1, 126960, Note_on_c, 0, 55, 52
1, 127200, Tempo, 604169
1, 127200, Note_on_c, 0, 55, 0
1, 127200, Note_on_c, 0, 50, 0
1, 127200, Note_on_c, 0, 58, 58
1, 127440, Tempo, 613246
1, 127440, Note_on_c, 0, 58, 0
1, 127440, Note_on_c, 0, 62, 53
1, 127680, Note_on_c, 0, 62, 0
1, 127680, Note_on_c, 0, 79, 0
1, 127680, Note_on_c, 0, 67, 57
1, 127700, Control_c, 0, 64, 0
1, 127920, Tempo, 601805
1, 127920, Note_on_c, 0, 74, 67
1, 127920, Control_c, 0, 64, 127
1, 128160, Note_on_c, 0, 74, 0
1, 128160, Note_on_c, 0, 67, 0
1, 128160, Note_on_c, 0, 72, 69
1, 128160, Note_on_c, 0, 62, 36
1, 128160, Note_on_c, 0, 55, 32
1, 128400, Tempo, 622924
1, 128400, Note_on_c, 0, 72, 0
1, 128400, Note_on_c, 0, 70, 67
1, 128640, Tempo, 601263
1, 128640, Note_on_c, 0, 70, 0
1, 128640, Note_on_c, 0, 55, 0
1, 128640, Note_on_c, 0, 62, 0
1, 128640, Note_on_c, 0, 78, 63
1, 128640, Note_on_c, 0, 50, 53
1, 128655, Control_c, 0, 64, 0
1, 128777, Control_c, 0, 64, 127
1, 128880, Tempo, 613246
1, 128880, Note_on_c, 0, 54, 36
1, 129120, Tempo, 604169
1, 129120, Note_on_c, 0, 54, 0
1, 129120, Note_on_c, 0, 50, 0
1, 129120, Note_on_c, 0, 57, 43
1, 129360, Tempo, 610190
1, 129360, Note_on_c, 0, 57, 0
1, 129360, Note_on_c, 0, 62, 38
1, 129600, Tempo, 604169
1, 129600, Note_on_c, 0, 62, 0
1, 129600, Note_on_c, 0, 78, 0
1, 129600, Note_on_c, 0, 66, 43
1, 129614, Control_c, 0, 64, 0
1, 129714, Control_c, 0, 64, 127
1, 129840, Tempo, 601805
1, 129840, Note_on_c, 0, 72, 61
1, 130080, Note_on_c, 0, 72, 0
1, 130080, Note_on_c, 0, 66, 0
1, 130080, Note_on_c, 0, 70, 63
1, 130080, Note_on_c, 0, 57, 35
1, 130080, Note_on_c, 0, 60, 35
1, 130080, Note_on_c, 0, 62, 35
1, 130320, Tempo, 626566
1, 130320, Note_on_c, 0, 70, 0
1, 130320, Note_on_c, 0, 69, 61
1, 130560, Tempo, 597015
1, 130560, Note_on_c, 0, 69, 0
1, 130560, Note_on_c, 0, 62, 0
1, 130560, Note_on_c, 0, 60, 0
1, 130560, Note_on_c, 0, 57, 0
1, 130560, Note_on_c, 0, 79, 68
1, 130560, Note_on_c, 0, 50, 53
1, 130581, Control_c, 0, 64, 0
1, 130624, Control_c, 0, 64, 127
1, 130800, Tempo, 609137
1, 130800, Note_on_c, 0, 79, 0
1, 130800, Note_on_c, 0, 74, 61
1, 130800, Note_on_c, 0, 55, 44
1, 130920, Note_on_c, 0, 74, 0
1, 130920, Note_on_c, 0, 75, 45
1, 130980, Note_on_c, 0, 75, 0
1, 130980, Note_on_c, 0, 74, 47
1, 131040, Note_on_c, 0, 74, 0
1, 131040, Note_on_c, 0, 55, 0
1, 131040, Note_on_c, 0, 50, 0
1, 131040, Note_on_c, 0, 73, 63
1, 131040, Note_on_c, 0, 58, 46
1, 131280, Note_on_c, 0, 58, 0
1, 131280, Note_on_c, 0, 73, 0
1, 131280, Note_on_c, 0, 74, 60
1, 131280, Note_on_c, 0, 62, 44
1, 131520, Tempo, 612182
1, 131520, Note_on_c, 0, 62, 0
1, 131520, Note_on_c, 0, 74, 0
1, 131520, Note_on_c, 0, 75, 63
1, 131520, Note_on_c, 0, 67, 44
1, 131540, Control_c, 0, 64, 0
1, 131623, Control_c, 0, 64, 127
1, 131760, Note_on_c, 0, 75, 0
1, 131760, Note_on_c, 0, 74, 60
1, 132000, Note_on_c, 0, 74, 0
1, 132000, Note_on_c, 0, 67, 0
1, 132000, Note_on_c, 0, 70, 63
1, 132000, Note_on_c, 0, 62, 44
1, 132000, Note_on_c, 0, 58, 44
1, 132000, Note_on_c, 0, 55, 44
1, 132240, Note_on_c, 0, 70, 0
1, 132240, Note_on_c, 0, 67, 60
1, 132280, Tempo, 630252
1, 132480, Tempo, 612182
1, 132480, Note_on_c, 0, 62, 0
1, 132480, Note_on_c, 0, 55, 0
1, 132480, Note_on_c, 0, 58, 0
1, 132480, Note_on_c, 0, 74, 63
1, 132480, Control_c, 0, 64, 0
1, 132480, Note_on_c, 0, 50, 46
1, 132480, Note_on_c, 0, 57, 46
1, 132586, Control_c, 0, 64, 127
1, 132718, Note_on_c, 0, 67, 0
1, 132720, Tempo, 601805
1, 132720, Note_on_c, 0, 74, 0
1, 132720, Note_on_c, 0, 50, 0
1, 132720, Note_on_c, 0, 57, 0
1, 132720, Note_on_c, 0, 67, 53
1, 132800, Tempo, 601805
1, 132960, Note_on_c, 0, 67, 0
1, 132960, Note_on_c, 0, 74, 68
1, 132960, Note_on_c, 0, 66, 52
1, 133040, Tempo, 605205
1, 133200, Note_on_c, 0, 66, 0
1, 133200, Note_on_c, 0, 63, 51
1, 133280, Tempo, 608704
1, 133440, Tempo, 641711
1, 133440, Note_on_c, 0, 63, 0
1, 133440, Note_on_c, 0, 62, 50
1, 133455, Control_c, 0, 64, 0
1, 133531, Control_c, 0, 64, 127
1, 133680, Note_on_c, 0, 62, 0
1, 133680, Note_on_c, 0, 74, 0
1, 133680, Note_on_c, 0, 62, 53
1, 133680, Note_on_c, 0, 60, 48
1, 133880, Tempo, 631579
1, 133920, Note_on_c, 0, 60, 0
1, 133920, Note_on_c, 0, 62, 0
1, 133920, Note_on_c, 0, 64, 54
1, 133920, Note_on_c, 0, 58, 47
1, 134000, Tempo, 628272
1, 134120, Tempo, 625000
1, 134160, Note_on_c, 0, 58, 0
1, 134160, Note_on_c, 0, 64, 0
1, 134160, Note_on_c, 0, 66, 56
1, 134160, Note_on_c, 0, 57, 46
1, 134240, Tempo, 621762
1, 134360, Tempo, 618557
1, 134400, Tempo, 628865
1, 134400, Note_on_c, 0, 57, 0
1, 134400, Note_on_c, 0, 66, 0
1, 134400, Note_on_c, 0, 67, 57
1, 134400, Note_on_c, 0, 43, 40
1, 134420, Control_c, 0, 64, 0
1, 134514, Control_c, 0, 64, 127
1, 134640, Note_on_c, 0, 67, 0
1, 134640, Note_on_c, 0, 69, 59
1, 134880, Tempo, 612245
1, 134880, Note_on_c, 0, 69, 0
1, 134880, Note_on_c, 0, 43, 0
1, 134880, Note_on_c, 0, 70, 61
1, 134880, Note_on_c, 0, 50, 37
1, 135120, Note_on_c, 0, 70, 0
1, 135120, Note_on_c, 0, 72, 63
1, 135160, Tempo, 628272
1, 135360, Tempo, 628865
1, 135360, Note_on_c, 0, 72, 0
1, 135360, Note_on_c, 0, 50, 0
1, 135360, Note_on_c, 0, 74, 65
1, 135360, Note_on_c, 0, 62, 40
1, 135360, Note_on_c, 0, 58, 34
1, 135360, Note_on_c, 0, 55, 34
1, 135383, Control_c, 0, 64, 0
1, 135463, Control_c, 0, 64, 127
1, 135600, Tempo, 610190
1, 135600, Note_on_c, 0, 55, 0
1, 135600, Note_on_c, 0, 74, 0
1, 135600, Note_on_c, 0, 62, 0
1, 135600, Note_on_c, 0, 58, 0
1, 135600, Note_on_c, 0, 79, 68
1, 135600, Note_on_c, 0, 58, 49
1, 135840, Tempo, 632111
1, 135840, Note_on_c, 0, 58, 0
1, 135840, Note_on_c, 0, 79, 0
1, 135840, Note_on_c, 0, 78, 66
1, 135840, Note_on_c, 0, 57, 52
1, 136080, Tempo, 638638
1, 136080, Note_on_c, 0, 57, 0
1, 136080, Note_on_c, 0, 78, 0
1, 136080, Note_on_c, 0, 79, 64
1, 136080, Note_on_c, 0, 55, 48
1, 136320, Tempo, 597015
1, 136320, Note_on_c, 0, 55, 0
1, 136320, Note_on_c, 0, 79, 0
1, 136320, Note_on_c, 0, 74, 53
1, 136320, Note_on_c, 0, 54, 43
1, 136320, Note_on_c, 0, 50, 36
1, 136320, Note_on_c, 0, 46, 36
1, 136331, Control_c, 0, 64, 0
1, 136520, Tempo, 600000
1, 136560, Tempo, 609137
1, 136560, Note_on_c, 0, 54, 0
1, 136560, Control_c, 0, 64, 127
1, 136560, Note_on_c, 0, 55, 48
1, 136800, Tempo, 607226
1, 136800, Note_on_c, 0, 55, 0
1, 136800, Note_on_c, 0, 46, 0
1, 136800, Note_on_c, 0, 50, 0
1, 136800, Note_on_c, 0, 58, 52
1, 137040, Tempo, 622536
1, 137040, Note_on_c, 0, 58, 0
1, 137040, Note_on_c, 0, 60, 50
1, 137280, Tempo, 608704
1, 137280, Note_on_c, 0, 60, 0
1, 137280, Note_on_c, 0, 74, 0
1, 137280, Note_on_c, 0, 62, 52
1, 137294, Control_c, 0, 64, 0
1, 137407, Control_c, 0, 64, 127
1, 137520, Tempo, 615700
1, 137520, Note_on_c, 0, 62, 0
1, 137520, Note_on_c, 0, 74, 56
1, 137720, Tempo, 630252
1, 137760, Note_on_c, 0, 74, 0
1, 137760, Note_on_c, 0, 63, 31
1, 137760, Note_on_c, 0, 67, 31
1, 137760, Note_on_c, 0, 69, 59
1, 137760, Note_on_c, 0, 48, 35
1, 138000, Tempo, 641711
1, 138000, Note_on_c, 0, 69, 0
1, 138000, Note_on_c, 0, 72, 51
1, 138240, Tempo, 605205
1, 138240, Note_on_c, 0, 72, 0
1, 138240, Note_on_c, 0, 48, 0
1, 138240, Note_on_c, 0, 67, 0
1, 138240, Note_on_c, 0, 63, 0
1, 138240, Note_on_c, 0, 62, 45
1, 138240, Note_on_c, 0, 67, 45
1, 138240, Note_on_c, 0, 70, 53
1, 138240, Note_on_c, 0, 50, 42
1, 138260, Control_c, 0, 64, 0
1, 138389, Control_c, 0, 64, 127
1, 138480, Tempo, 616270
1, 138480, Note_on_c, 0, 50, 0
1, 138480, Note_on_c, 0, 62, 0
1, 138480, Note_on_c, 0, 67, 0
1, 138480, Note_on_c, 0, 70, 0
1, 138480, Note_on_c, 0, 63, 50
1, 138720, Tempo, 625652
1, 138720, Note_on_c, 0, 63, 0
1, 138720, Note_on_c, 0, 58, 31
1, 138720, Note_on_c, 0, 55, 31
1, 138720, Note_on_c, 0, 61, 50
1, 138960, Note_on_c, 0, 61, 0
1, 138960, Note_on_c, 0, 55, 0
1, 138960, Note_on_c, 0, 58, 0
1, 138960, Note_on_c, 0, 63, 39
1, 139200, Tempo, 619323
1, 139200, Note_on_c, 0, 63, 0
1, 139200, Note_on_c, 0, 55, 34
1, 139200, Note_on_c, 0, 58, 34
1, 139200, Note_on_c, 0, 62, 40
1, 139221, Control_c, 0, 64, 0
1, 139324, Control_c, 0, 64, 127
1, 139440, Tempo, 626566
1, 139440, Note_on_c, 0, 62, 0
1, 139440, Note_on_c, 0, 58, 0
1, 139440, Note_on_c, 0, 55, 0
1, 139440, Note_on_c, 0, 70, 53
1, 139480, Tempo, 626566
1, 139680, Tempo, 630252
1, 139680, Note_on_c, 0, 70, 0
1, 139680, Note_on_c, 0, 60, 46
1, 139680, Note_on_c, 0, 66, 57
1, 139680, Note_on_c, 0, 50, 42
1, 139920, Note_on_c, 0, 66, 0
1, 139920, Note_on_c, 0, 69, 49
1, 140160, Tempo, 604169
1, 140160, Note_on_c, 0, 69, 0
1, 140160, Note_on_c, 0, 50, 0
1, 140160, Note_on_c, 0, 60, 0
1, 140160, Note_on_c, 0, 58, 47
1, 140160, Note_on_c, 0, 67, 53
1, 140160, Note_on_c, 0, 43, 46
1, 140174, Control_c, 0, 64, 0
1, 140320, Control_c, 0, 64, 127
1, 140400, Tempo, 619451
1, 140400, Note_on_c, 0, 51, 42
1, 140640, Tempo, 632111
1, 140640, Note_on_c, 0, 51, 0
1, 140640, Note_on_c, 0, 49, 44
1, 140880, Note_on_c, 0, 49, 0
1, 140880, Note_on_c, 0, 51, 32
1, 141120, Note_on_c, 0, 51, 0
1, 141120, Note_on_c, 0, 58, 0
1, 141120, Note_on_c, 0, 67, 0
1, 141120, Note_on_c, 0, 50, 35
1, 141140, Control_c, 0, 64, 0
1, 141326, Control_c, 0, 64, 127
1, 141360, Tempo, 612182
1, 141360, Note_on_c, 0, 62, 52
1, 141600, Tempo, 591133
1, 141600, Note_on_c, 0, 62, 0
1, 141600, Note_on_c, 0, 60, 48
1, 141600, Note_on_c, 0, 64, 54
1, 141840, Tempo, 609137
1, 141840, Note_on_c, 0, 64, 0
1, 141840, Note_on_c, 0, 66, 55
1, 142080, Tempo, 597015
1, 142080, Note_on_c, 0, 66, 0
1, 142080, Note_on_c, 0, 60, 0
1, 142080, Note_on_c, 0, 50, 0
1, 142080, Note_on_c, 0, 43, 0
1, 142080, Note_on_c, 0, 58, 51
1, 142080, Note_on_c, 0, 67, 57
1, 142080, Note_on_c, 0, 43, 40
1, 142091, Control_c, 0, 64, 0
1, 142278, Control_c, 0, 64, 127
1, 142320, Tempo, 609137
1, 142320, Note_on_c, 0, 67, 0
1, 142320, Note_on_c, 0, 58, 0
1, 142320, Note_on_c, 0, 69, 59
1, 142560, Note_on_c, 0, 69, 0
1, 142560, Note_on_c, 0, 43, 0
1, 142560, Note_on_c, 0, 70, 61
1, 142560, Note_on_c, 0, 50, 37
1, 142800, Note_on_c, 0, 70, 0
1, 142800, Note_on_c, 0, 72, 63
1, 143040, Tempo, 622924
1, 143040, Note_on_c, 0, 72, 0
1, 143040, Note_on_c, 0, 50, 0
1, 143040, Note_on_c, 0, 74, 68
1, 143040, Note_on_c, 0, 62, 40
1, 143040, Note_on_c, 0, 58, 34
1, 143040, Note_on_c, 0, 55, 34
1, 143059, Control_c, 0, 64, 0
1, 143153, Control_c, 0, 64, 127
1, 143280, Tempo, 598384
1, 143280, Note_on_c, 0, 55, 0
1, 143280, Note_on_c, 0, 74, 0
1, 143280, Note_on_c, 0, 62, 0
1, 143280, Note_on_c, 0, 58, 0
1, 143280, Note_on_c, 0, 79, 63
1, 143280, Note_on_c, 0, 58, 50
1, 143520, Tempo, 612182
1, 143520, Note_on_c, 0, 58, 0
1, 143520, Note_on_c, 0, 79, 0
1, 143520, Note_on_c, 0, 75, 40
1, 143520, Note_on_c, 0, 72, 36
1, 143520, Note_on_c, 0, 65, 33
1, 143520, Note_on_c, 0, 77, 61
1, 143520, Note_on_c, 0, 45, 40
1, 143520, Note_on_c, 0, 57, 53
1, 143760, Tempo, 626566
1, 143760, Note_on_c, 0, 57, 0
1, 143760, Note_on_c, 0, 77, 0
1, 143760, Note_on_c, 0, 79, 59
1, 143760, Note_on_c, 0, 55, 49
1, 144000, Tempo, 618557
1, 144000, Note_on_c, 0, 55, 0
1, 144000, Note_on_c, 0, 72, 0
1, 144000, Note_on_c, 0, 45, 0
1, 144000, Note_on_c, 0, 75, 0
1, 144000, Note_on_c, 0, 79, 0
1, 144000, Note_on_c, 0, 65, 0
1, 144000, Note_on_c, 0, 65, 46
1, 144000, Note_on_c, 0, 70, 46
1, 144000, Note_on_c, 0, 74, 55
1, 144000, Note_on_c, 0, 53, 38
1, 144000, Note_on_c, 0, 46, 44
1, 144017, Control_c, 0, 64, 0
1, 144160, Control_c, 0, 64, 127
1, 144240, Tempo, 597015
1, 144240, Note_on_c, 0, 53, 0
1, 144240, Note_on_c, 0, 55, 49
1, 144480, Tempo, 594059
1, 144480, Note_on_c, 0, 55, 0
1, 144480, Note_on_c, 0, 46, 0
1, 144480, Note_on_c, 0, 58, 51
1, 144720, Tempo, 606061
1, 144720, Note_on_c, 0, 58, 0
1, 144720, Note_on_c, 0, 62, 49
1, 144958, Note_on_c, 0, 65, 0
1, 144960, Tempo, 608704
1, 144960, Note_on_c, 0, 70, 0
1, 144960, Note_on_c, 0, 74, 0
1, 144960, Note_on_c, 0, 62, 0
1, 144960, Note_on_c, 0, 65, 52
1, 144980, Control_c, 0, 64, 0
1, 145172, Control_c, 0, 64, 127
1, 145200, Tempo, 615700
1, 145200, Note_on_c, 0, 65, 0
1, 145200, Note_on_c, 0, 77, 60
1, 145400, Tempo, 630252
1, 145440, Note_on_c, 0, 77, 0
1, 145440, Note_on_c, 0, 63, 50
1, 145440, Note_on_c, 0, 70, 50
1, 145440, Note_on_c, 0, 74, 50
1, 145440, Note_on_c, 0, 75, 63
1, 145440, Note_on_c, 0, 43, 41
1, 145680, Tempo, 641711
1, 145680, Note_on_c, 0, 75, 0
1, 145680, Note_on_c, 0, 77, 58
1, 145920, Tempo, 621762
1, 145920, Note_on_c, 0, 77, 0
1, 145920, Note_on_c, 0, 43, 0
1, 145920, Note_on_c, 0, 63, 0
1, 145920, Note_on_c, 0, 70, 0
1, 145920, Note_on_c, 0, 74, 0
1, 145920, Note_on_c, 0, 63, 50
1, 145920, Note_on_c, 0, 69, 50
1, 145920, Note_on_c, 0, 72, 60
1, 145920, Note_on_c, 0, 45, 44
1, 145932, Control_c, 0, 64, 0
1, 146080, Control_c, 0, 64, 127
1, 146160, Tempo, 600000
1, 146160, Note_on_c, 0, 55, 44
1, 146400, Tempo, 598325
1, 146400, Note_on_c, 0, 55, 0
1, 146400, Note_on_c, 0, 45, 0
1, 146400, Note_on_c, 0, 57, 48
1, 146640, Tempo, 606061
1, 146640, Note_on_c, 0, 57, 0
1, 146640, Note_on_c, 0, 60, 45
1, 146878, Note_on_c, 0, 63, 0
1, 146880, Tempo, 608704
1, 146880, Note_on_c, 0, 69, 0
1, 146880, Note_on_c, 0, 72, 0
1, 146880, Note_on_c, 0, 60, 0
1, 146880, Note_on_c, 0, 63, 41
1, 146902, Control_c, 0, 64, 0
1, 147021, Control_c, 0, 64, 127
1, 147120, Tempo, 615700
1, 147120, Note_on_c, 0, 63, 0
1, 147120, Note_on_c, 0, 75, 55
1, 147320, Tempo, 630252
1, 147360, Note_on_c, 0, 75, 0
1, 147360, Note_on_c, 0, 62, 37
1, 147360, Note_on_c, 0, 69, 37
1, 147360, Note_on_c, 0, 72, 38
1, 147360, Note_on_c, 0, 74, 56
1, 147360, Note_on_c, 0, 42, 36
1, 147600, Tempo, 641711
1, 147600, Note_on_c, 0, 74, 0
1, 147600, Note_on_c, 0, 75, 50
1, 147840, Tempo, 616270
1, 147840, Note_on_c, 0, 75, 0
1, 147840, Note_on_c, 0, 42, 0
1, 147840, Note_on_c, 0, 62, 0
1, 147840, Note_on_c, 0, 69, 0
1, 147840, Note_on_c, 0, 72, 0
1, 147840, Note_on_c, 0, 62, 44
1, 147840, Note_on_c, 0, 67, 44
1, 147840, Note_on_c, 0, 70, 53
1, 147840, Note_on_c, 0, 43, 39
1, 147861, Control_c, 0, 64, 0
1, 147995, Control_c, 0, 64, 127
1, 148080, Tempo, 628865
1, 148080, Note_on_c, 0, 50, 35
1, 148320, Tempo, 619451
1, 148320, Note_on_c, 0, 50, 0
1, 148320, Note_on_c, 0, 70, 0
1, 148320, Note_on_c, 0, 62, 0
1, 148320, Note_on_c, 0, 67, 0
1, 148320, Note_on_c, 0, 43, 0
1, 148320, Note_on_c, 0, 55, 40
1, 148560, Tempo, 632111
1, 148560, Note_on_c, 0, 55, 0
1, 148560, Note_on_c, 0, 58, 37
1, 148800, Tempo, 615700
1, 148800, Note_on_c, 0, 58, 0
1, 148800, Note_on_c, 0, 62, 36
1, 148820, Control_c, 0, 64, 0
1, 149026, Control_c, 0, 64, 127
1, 149040, Tempo, 630252
1, 149040, Note_on_c, 0, 62, 0
1, 149040, Note_on_c, 0, 74, 54
1, 149280, Note_on_c, 0, 74, 0
1, 149280, Note_on_c, 0, 63, 35
1, 149280, Note_on_c, 0, 69, 35
1, 149280, Note_on_c, 0, 72, 56
1, 149280, Note_on_c, 0, 48, 34
1, 149520, Note_on_c, 0, 72, 0
1, 149520, Note_on_c, 0, 74, 52
1, 149760, Tempo, 634048
1, 149760, Note_on_c, 0, 74, 0
1, 149760, Note_on_c, 0, 48, 0
1, 149760, Note_on_c, 0, 69, 0
1, 149760, Note_on_c, 0, 63, 0
1, 149760, Note_on_c, 0, 62, 35
1, 149760, Note_on_c, 0, 67, 35
1, 149760, Note_on_c, 0, 72, 55
1, 149760, Note_on_c, 0, 50, 39
1, 149779, Control_c, 0, 64, 0
1, 149873, Control_c, 0, 64, 127
1, 150000, Note_on_c, 0, 72, 0
1, 150000, Note_on_c, 0, 70, 51
1, 150238, Note_on_c, 0, 62, 0
1, 150240, Note_on_c, 0, 67, 0
1, 150240, Note_on_c, 0, 70, 0
1, 150240, Note_on_c, 0, 58, 32
1, 150240, Note_on_c, 0, 69, 50
1, 150240, Note_on_c, 0, 62, 32
1, 150480, Tempo, 645578
1, 150480, Note_on_c, 0, 69, 0
1, 150480, Note_on_c, 0, 67, 49
1, 150720, Tempo, 645578
1, 150720, Note_on_c, 0, 67, 0
1, 150720, Note_on_c, 0, 62, 0
1, 150720, Note_on_c, 0, 58, 0
1, 150720, Note_on_c, 0, 64, 35
1, 150720, Note_on_c, 0, 70, 52
1, 150720, Note_on_c, 0, 61, 31
1, 150742, Control_c, 0, 64, 0
1, 150915, Control_c, 0, 64, 127
1, 151200, Tempo, 645578
1, 151200, Note_on_c, 0, 61, 0
1, 151200, Note_on_c, 0, 64, 0
1, 151200, Note_on_c, 0, 63, 29
1, 151200, Note_on_c, 0, 66, 32
1, 151200, Note_on_c, 0, 60, 30
1, 151440, Tempo, 661667
1, 151440, Note_on_c, 0, 70, 0
1, 151440, Note_on_c, 0, 69, 39
1, 151680, Tempo, 631579
1, 151680, Note_on_c, 0, 69, 0
1, 151680, Note_on_c, 0, 50, 0
1, 151680, Note_on_c, 0, 66, 0
1, 151680, Note_on_c, 0, 63, 0
1, 151680, Note_on_c, 0, 62, 40
1, 151680, Note_on_c, 0, 67, 48
1, 151680, Note_on_c, 0, 55, 28
1, 151704, Control_c, 0, 64, 0
1, 151920, Tempo, 641711
1, 151920, Note_on_c, 0, 60, 0
1, 151920, Control_c, 0, 64, 127
1, 151920, Note_on_c, 0, 58, 34
1, 152160, Note_on_c, 0, 58, 0
1, 152160, Note_on_c, 0, 55, 0
1, 152160, Note_on_c, 0, 67, 0
1, 152160, Note_on_c, 0, 62, 0
1, 152160, Note_on_c, 0, 55, 35
1, 152400, Note_on_c, 0, 55, 0
1, 152400, Note_on_c, 0, 50, 34
1, 152640, Note_on_c, 0, 50, 0
1, 152640, Note_on_c, 0, 43, 34
1, 152880, Tempo, 612182
1, 152880, Note_on_c, 0, 82, 47
1, 153120, Tempo, 609137
1, 153120, Note_on_c, 0, 91, 51
1, 153120, Note_on_c, 0, 86, 35
1, 153120, Note_on_c, 0, 50, 36
1, 153134, Control_c, 0, 64, 0
1, 153247, Control_c, 0, 64, 127
1, 153360, Note_on_c, 0, 86, 0
1, 153360, Note_on_c, 0, 91, 0
1, 153360, Note_on_c, 0, 82, 0
1, 153360, Note_on_c, 0, 81, 46
1, 153600, Tempo, 594059
1, 153600, Note_on_c, 0, 43, 0
1, 153600, Note_on_c, 0, 90, 48
1, 153600, Note_on_c, 0, 86, 35
1, 153600, Note_on_c, 0, 84, 35
1, 153600, Note_on_c, 0, 43, 38
1, 153840, Tempo, 612245
1, 153840, Note_on_c, 0, 84, 0
1, 153840, Note_on_c, 0, 86, 0
1, 153840, Note_on_c, 0, 90, 0
1, 153840, Note_on_c, 0, 81, 0
1, 153840, Note_on_c, 0, 79, 45
1, 154080, Note_on_c, 0, 50, 0
1, 154080, Note_on_c, 0, 87, 50
1, 154080, Note_on_c, 0, 84, 35
1, 154080, Note_on_c, 0, 81, 35
1, 154080, Note_on_c, 0, 50, 36
1, 154102, Control_c, 0, 64, 0
1, 154120, Tempo, 594059
1, 154221, Control_c, 0, 64, 127
1, 154320, Note_on_c, 0, 81, 0
1, 154320, Note_on_c, 0, 84, 0
1, 154320, Note_on_c, 0, 87, 0
1, 154320, Note_on_c, 0, 79, 0
1, 154320, Note_on_c, 0, 78, 45
1, 154360, Tempo, 612245
1, 154560, Note_on_c, 0, 86, 50
1, 154560, Note_on_c, 0, 84, 35
1, 154560, Note_on_c, 0, 81, 35
1, 154600, Tempo, 597015
1, 154800, Tempo, 618557
1, 154800, Note_on_c, 0, 81, 0
1, 154800, Note_on_c, 0, 86, 0
1, 154800, Note_on_c, 0, 78, 0
1, 154800, Note_on_c, 0, 84, 0
1, 154800, Note_on_c, 0, 75, 44
1, 155040, Tempo, 597015
1, 155040, Note_on_c, 0, 84, 50
1, 155040, Note_on_c, 0, 81, 35
1, 155040, Note_on_c, 0, 78, 35
1, 155065, Control_c, 0, 64, 0
1, 155156, Control_c, 0, 64, 127
1, 155280, Tempo, 615385
1, 155280, Note_on_c, 0, 78, 0
1, 155280, Note_on_c, 0, 84, 0
1, 155280, Note_on_c, 0, 75, 0
1, 155280, Note_on_c, 0, 81, 0
1, 155280, Note_on_c, 0, 74, 46
1, 155520, Note_on_c, 0, 43, 0
1, 155520, Note_on_c, 0, 82, 50
1, 155520, Note_on_c, 0, 79, 35
1, 155520, Note_on_c, 0, 76, 35
1, 155520, Note_on_c, 0, 43, 40
1, 155560, Tempo, 597015
1, 155760, Tempo, 615385
1, 155760, Note_on_c, 0, 76, 0
1, 155760, Note_on_c, 0, 79, 0
1, 155760, Note_on_c, 0, 82, 0
1, 155760, Note_on_c, 0, 74, 0
1, 155760, Note_on_c, 0, 72, 47
1, 156000, Tempo, 600000
1, 156000, Note_on_c, 0, 50, 0
1, 156000, Note_on_c, 0, 81, 50
1, 156000, Note_on_c, 0, 78, 35
1, 156000, Note_on_c, 0, 75, 35
1, 156000, Note_on_c, 0, 50, 36
1, 156020, Control_c, 0, 64, 0
1, 156123, Control_c, 0, 64, 127
1, 156240, Tempo, 618557
1, 156240, Note_on_c, 0, 75, 0
1, 156240, Note_on_c, 0, 78, 0
1, 156240, Note_on_c, 0, 81, 0
1, 156240, Note_on_c, 0, 72, 0
1, 156240, Note_on_c, 0, 70, 44
1, 156480, Tempo, 597015
1, 156480, Note_on_c, 0, 79, 51
1, 156480, Note_on_c, 0, 74, 35
1, 156499, Control_c, 0, 64, 0
1, 156590, Control_c, 0, 64, 127
1, 156720, Tempo, 621762
1, 156720, Note_on_c, 0, 74, 0
1, 156720, Note_on_c, 0, 70, 0
1, 156720, Note_on_c, 0, 79, 0
1, 156720, Note_on_c, 0, 70, 54
1, 156960, Tempo, 612245
1, 156960, Note_on_c, 0, 70, 0
1, 156960, Note_on_c, 0, 43, 0
1, 156960, Note_on_c, 0, 50, 0
1, 156960, Note_on_c, 0, 74, 38
1, 156960, Note_on_c, 0, 72, 36
1, 156960, Note_on_c, 0, 69, 54
1, 156960, Note_on_c, 0, 55, 37
1, 156960, Note_on_c, 0, 62, 39
1, 157200, Tempo, 621762
1, 157200, Note_on_c, 0, 69, 0
1, 157200, Note_on_c, 0, 67, 54
1, 157440, Tempo, 615385
1, 157440, Note_on_c, 0, 67, 0
1, 157440, Note_on_c, 0, 66, 56
1, 157457, Control_c, 0, 64, 0
1, 157581, Control_c, 0, 64, 127
1, 157680, Tempo, 621762
1, 157680, Note_on_c, 0, 66, 0
1, 157680, Note_on_c, 0, 55, 0
1, 157680, Note_on_c, 0, 74, 0
1, 157680, Note_on_c, 0, 72, 0
1, 157680, Note_on_c, 0, 62, 0
1, 157680, Note_on_c, 0, 67, 53
1, 157920, Tempo, 618557
1, 157920, Note_on_c, 0, 67, 0
1, 157920, Note_on_c, 0, 68, 54
1, 157920, Note_on_c, 0, 62, 32
1, 157920, Note_on_c, 0, 60, 30
1, 157920, Note_on_c, 0, 43, 33
1, 157920, Note_on_c, 0, 50, 33
1, 158160, Tempo, 603015
1, 158160, Note_on_c, 0, 68, 0
1, 158160, Note_on_c, 0, 69, 53
1, 158400, Tempo, 615385
1, 158400, Note_on_c, 0, 69, 0
1, 158400, Note_on_c, 0, 50, 0
1, 158400, Note_on_c, 0, 62, 0
1, 158400, Note_on_c, 0, 60, 0
1, 158400, Note_on_c, 0, 43, 0
1, 158400, Note_on_c, 0, 54, 38
1, 158415, Control_c, 0, 64, 0
1, 158566, Control_c, 0, 64, 127
1, 158640, Tempo, 625000
1, 158640, Note_on_c, 0, 58, 51
1, 158880, Tempo, 615385
1, 158880, Note_on_c, 0, 58, 0
1, 158880, Note_on_c, 0, 62, 38
1, 158880, Note_on_c, 0, 60, 36
1, 158880, Note_on_c, 0, 57, 54
1, 159120, Tempo, 625000
1, 159120, Note_on_c, 0, 57, 0
1, 159120, Note_on_c, 0, 55, 50
1, 159360, Tempo, 615385
1, 159360, Note_on_c, 0, 55, 0
1, 159360, Note_on_c, 0, 54, 0
1, 159360, Note_on_c, 0, 54, 54
1, 159377, Control_c, 0, 64, 0
1, 159520, Control_c, 0, 64, 127
1, 159600, Tempo, 625000
1, 159600, Note_on_c, 0, 54, 0
1, 159600, Note_on_c, 0, 52, 51
1, 159840, Tempo, 621762
1, 159840, Note_on_c, 0, 52, 0
1, 159840, Note_on_c, 0, 60, 0
1, 159840, Note_on_c, 0, 62, 0
1, 159840, Note_on_c, 0, 58, 30
1, 159840, Note_on_c, 0, 62, 35
1, 159840, Note_on_c, 0, 54, 54
1, 160080, Tempo, 645578
1, 160080, Note_on_c, 0, 54, 0
1, 160080, Note_on_c, 0, 55, 51
1, 160320, Tempo, 600000
1, 160320, Note_on_c, 0, 55, 0
1, 160320, Note_on_c, 0, 62, 0
1, 160320, Note_on_c, 0, 58, 0
1, 160320, Note_on_c, 0, 50, 36
1, 160320, Note_on_c, 0, 43, 36
1, 160344, Control_c, 0, 64, 0
1, 160469, Control_c, 0, 64, 127
1, 160560, Tempo, 612182
1, 160560, Note_on_c, 0, 70, 47
1, 160800, Tempo, 597015
1, 160800, Note_on_c, 0, 79, 51
1, 160800, Note_on_c, 0, 74, 35
1, 160813, Control_c, 0, 64, 0
1, 160937, Control_c, 0, 64, 127
1, 161040, Tempo, 618557
1, 161040, Note_on_c, 0, 74, 0
1, 161040, Note_on_c, 0, 70, 0
1, 161040, Note_on_c, 0, 79, 0
1, 161040, Note_on_c, 0, 69, 45
1, 161280, Tempo, 600000
1, 161280, Note_on_c, 0, 43, 0
1, 161280, Note_on_c, 0, 50, 0
1, 161280, Note_on_c, 0, 78, 47
1, 161280, Note_on_c, 0, 74, 34
1, 161280, Note_on_c, 0, 72, 34
1, 161280, Note_on_c, 0, 31, 37
1, 161520, Tempo, 621762
1, 161520, Note_on_c, 0, 72, 0
1, 161520, Note_on_c, 0, 74, 0
1, 161520, Note_on_c, 0, 69, 0
1, 161520, Note_on_c, 0, 78, 0
1, 161520, Note_on_c, 0, 67, 43
1, 161760, Tempo, 600000
1, 161760, Note_on_c, 0, 75, 48
1, 161760, Note_on_c, 0, 72, 33
1, 161760, Note_on_c, 0, 69, 33
1, 161760, Note_on_c, 0, 38, 34
1, 161782, Control_c, 0, 64, 0
1, 161901, Control_c, 0, 64, 127
1, 162000, Tempo, 618557
1, 162000, Note_on_c, 0, 69, 0
1, 162000, Note_on_c, 0, 72, 0
1, 162000, Note_on_c, 0, 75, 0
1, 162000, Note_on_c, 0, 67, 0
1, 162000, Note_on_c, 0, 66, 42
1, 162240, Tempo, 603015
1, 162240, Note_on_c, 0, 74, 48
1, 162240, Note_on_c, 0, 72, 33
1, 162240, Note_on_c, 0, 69, 33
1, 162480, Tempo, 621762
1, 162480, Note_on_c, 0, 69, 0
1, 162480, Note_on_c, 0, 74, 0
1, 162480, Note_on_c, 0, 66, 0
1, 162480, Note_on_c, 0, 72, 0
1, 162480, Note_on_c, 0, 63, 42
1, 162720, Tempo, 603015
1, 162720, Note_on_c, 0, 72, 47
1, 162720, Note_on_c, 0, 69, 33
1, 162720, Note_on_c, 0, 66, 33
1, 162743, Control_c, 0, 64, 0
1, 162836, Control_c, 0, 64, 127
1, 162960, Tempo, 618557
1, 162960, Note_on_c, 0, 66, 0
1, 162960, Note_on_c, 0, 72, 0
1, 162960, Note_on_c, 0, 63, 0
1, 162960, Note_on_c, 0, 69, 0
1, 162960, Note_on_c, 0, 62, 42
1, 163200, Tempo, 603015
1, 163200, Note_on_c, 0, 31, 0
1, 163200, Note_on_c, 0, 70, 46
1, 163200, Note_on_c, 0, 67, 32
1, 163200, Note_on_c, 0, 64, 32
1, 163200, Note_on_c, 0, 31, 37
1, 163440, Tempo, 621762
1, 163440, Note_on_c, 0, 64, 0
1, 163440, Note_on_c, 0, 67, 0
1, 163440, Note_on_c, 0, 70, 0
1, 163440, Note_on_c, 0, 62, 0
1, 163440, Note_on_c, 0, 60, 40
1, 163680, Tempo, 603015
1, 163680, Note_on_c, 0, 38, 0
1, 163680, Note_on_c, 0, 69, 46
1, 163680, Note_on_c, 0, 66, 32
1, 163680, Note_on_c, 0, 63, 32
1, 163680, Note_on_c, 0, 38, 33
1, 163700, Control_c, 0, 64, 0
1, 163745, Control_c, 0, 64, 127
1, 163920, Tempo, 618557
1, 163920, Note_on_c, 0, 63, 0
1, 163920, Note_on_c, 0, 66, 0
1, 163920, Note_on_c, 0, 69, 0
1, 163920, Note_on_c, 0, 60, 0
1, 163920, Note_on_c, 0, 58, 41
1, 164160, Tempo, 597015
1, 164160, Note_on_c, 0, 67, 46
1, 164160, Note_on_c, 0, 62, 31
1, 164178, Control_c, 0, 64, 0
1, 164270, Control_c, 0, 64, 127
1, 164400, Tempo, 621762
1, 164400, Note_on_c, 0, 62, 0
1, 164400, Note_on_c, 0, 58, 0
1, 164400, Note_on_c, 0, 67, 0
1, 164400, Note_on_c, 0, 58, 48
1, 164640, Tempo, 612245
1, 164640, Note_on_c, 0, 58, 0
1, 164640, Note_on_c, 0, 31, 0
1, 164640, Note_on_c, 0, 38, 0
1, 164640, Note_on_c, 0, 62, 34
1, 164640, Note_on_c, 0, 60, 32
1, 164640, Note_on_c, 0, 57, 48
1, 164640, Note_on_c, 0, 43, 33
1, 164640, Note_on_c, 0, 50, 35
1, 164880, Tempo, 621762
1, 164880, Note_on_c, 0, 57, 0
1, 164880, Note_on_c, 0, 55, 48
1, 165120, Tempo, 615385
1, 165120, Note_on_c, 0, 55, 0
1, 165120, Note_on_c, 0, 54, 50
1, 165138, Control_c, 0, 64, 0
1, 165244, Control_c, 0, 64, 127
1, 165360, Tempo, 621762
1, 165360, Note_on_c, 0, 54, 0
1, 165360, Note_on_c, 0, 43, 0
1, 165360, Note_on_c, 0, 62, 0
1, 165360, Note_on_c, 0, 60, 0
1, 165360, Note_on_c, 0, 50, 0
1, 165360, Note_on_c, 0, 55, 47
1, 165600, Tempo, 618557
1, 165600, Note_on_c, 0, 55, 0
1, 165600, Note_on_c, 0, 56, 48
1, 165600, Note_on_c, 0, 50, 28
1, 165600, Note_on_c, 0, 48, 27
1, 165600, Note_on_c, 0, 31, 29
1, 165600, Note_on_c, 0, 38, 29
1, 165840, Tempo, 603015
1, 165840, Note_on_c, 0, 56, 0
1, 165840, Note_on_c, 0, 57, 47
1, 166080, Tempo, 615385
1, 166080, Note_on_c, 0, 57, 0
1, 166080, Note_on_c, 0, 38, 0
1, 166080, Note_on_c, 0, 50, 0
1, 166080, Note_on_c, 0, 48, 0
1, 166080, Note_on_c, 0, 31, 0
1, 166080, Note_on_c, 0, 42, 34
1, 166102, Control_c, 0, 64, 0
1, 166246, Control_c, 0, 64, 127
1, 166320, Tempo, 625000
1, 166320, Note_on_c, 0, 46, 45
1, 166560, Tempo, 615385
1, 166560, Note_on_c, 0, 46, 0
1, 166560, Note_on_c, 0, 50, 33
1, 166560, Note_on_c, 0, 48, 31
1, 166560, Note_on_c, 0, 45, 47
1, 166800, Tempo, 625000
1, 166800, Note_on_c, 0, 45, 0
1, 166800, Note_on_c, 0, 43, 43
1, 167040, Tempo, 634921
1, 167040, Note_on_c, 0, 43, 0
1, 167040, Note_on_c, 0, 42, 0
1, 167040, Note_on_c, 0, 42, 46
1, 167054, Control_c, 0, 64, 0
1, 167139, Control_c, 0, 64, 127
1, 167280, Tempo, 674157
1, 167280, Note_on_c, 0, 42, 0
1, 167280, Note_on_c, 0, 40, 43
1, 167320, Tempo, 655738
1, 167520, Tempo, 638298
1, 167520, Note_on_c, 0, 40, 0
1, 167520, Note_on_c, 0, 48, 0
1, 167520, Note_on_c, 0, 50, 0
1, 167520, Note_on_c, 0, 46, 27
1, 167520, Note_on_c, 0, 50, 33
1, 167520, Note_on_c, 0, 42, 45
1, 167760, Tempo, 659341
1, 167760, Note_on_c, 0, 42, 0
1, 167760, Note_on_c, 0, 43, 41
1, 168000, Tempo, 714286
1, 168000, Note_on_c, 0, 43, 0
1, 168000, Note_on_c, 0, 50, 0
1, 168000, Note_on_c, 0, 46, 0
1, 168000, Control_c, 0, 64, 0
1, 168000, Note_on_c, 0, 31, 31
1, 168240, Tempo, 612245
1, 168240, Note_on_c, 0, 31, 0
1, 168240, Note_on_c, 0, 38, 36
1, 168300, Tempo, 609137
1, 168320, Tempo, 606061
1, 168480, Tempo, 603015
1, 168480, Note_on_c, 0, 42, 28
1, 168480, Note_on_c, 0, 50, 34
1, 168480, Note_on_c, 0, 48, 28
1, 168513, Control_c, 0, 64, 127
1, 168640, Tempo, 600000
1, 168720, Note_on_c, 0, 48, 0
1, 168720, Note_on_c, 0, 38, 0
1, 168720, Note_on_c, 0, 42, 0
1, 168720, Note_on_c, 0, 50, 0
1, 168720, Note_on_c, 0, 31, 29
1, 168800, Tempo, 597015
1, 168960, Tempo, 594059
1, 168960, Note_on_c, 0, 43, 29
1, 168960, Note_on_c, 0, 46, 29
1, 168960, Note_on_c, 0, 50, 35
1, 168969, Control_c, 0, 64, 0
1, 169063, Control_c, 0, 64, 127
1, 169080, Tempo, 591133
1, 169200, Note_on_c, 0, 50, 0
1, 169200, Note_on_c, 0, 31, 0
1, 169200, Note_on_c, 0, 43, 0
1, 169200, Note_on_c, 0, 46, 0
1, 169200, Note_on_c, 0, 38, 32
1, 169240, Tempo, 588235
1, 169400, Tempo, 585366
1, 169440, Note_on_c, 0, 45, 31
1, 169440, Note_on_c, 0, 50, 31
1, 169440, Note_on_c, 0, 54, 37
1, 169450, Control_c, 0, 64, 0
1, 169560, Tempo, 582524
1, 169589, Control_c, 0, 64, 127
1, 169680, Tempo, 579710
1, 169680, Note_on_c, 0, 54, 0
1, 169680, Note_on_c, 0, 38, 0
1, 169680, Note_on_c, 0, 45, 0
1, 169680, Note_on_c, 0, 50, 0
1, 169680, Note_on_c, 0, 31, 27
1, 169840, Tempo, 576923
1, 169920, Note_on_c, 0, 46, 33
1, 169920, Note_on_c, 0, 50, 33
1, 169920, Note_on_c, 0, 55, 39
1, 169938, Control_c, 0, 64, 0
1, 170000, Tempo, 574163
1, 170080, Control_c, 0, 64, 127
1, 170160, Tempo, 571429
1, 170160, Note_on_c, 0, 55, 0
1, 170160, Note_on_c, 0, 31, 0
1, 170160, Note_on_c, 0, 46, 0
1, 170160, Note_on_c, 0, 50, 0
1, 170160, Note_on_c, 0, 38, 33
1, 170280, Tempo, 568720
1, 170400, Note_on_c, 0, 50, 34
1, 170400, Note_on_c, 0, 54, 40
1, 170400, Note_on_c, 0, 57, 40
1, 170409, Control_c, 0, 64, 0
1, 170440, Tempo, 566038
1, 170503, Control_c, 0, 64, 127
1, 170600, Tempo, 563380
1, 170640, Note_on_c, 0, 57, 0
1, 170640, Note_on_c, 0, 38, 0
1, 170640, Note_on_c, 0, 50, 0
1, 170640, Note_on_c, 0, 54, 0
1, 170640, Note_on_c, 0, 31, 29
1, 170760, Tempo, 560748
1, 170880, Tempo, 558140
1, 170880, Note_on_c, 0, 50, 35
1, 170880, Note_on_c, 0, 55, 35
1, 170880, Note_on_c, 0, 58, 42
1, 170891, Control_c, 0, 64, 0
1, 171012, Control_c, 0, 64, 127
1, 171120, Note_on_c, 0, 58, 0
1, 171120, Note_on_c, 0, 31, 0
1, 171120, Note_on_c, 0, 50, 0
1, 171120, Note_on_c, 0, 55, 0
1, 171120, Note_on_c, 0, 38, 34
1, 171360, Note_on_c, 0, 54, 36
1, 171360, Note_on_c, 0, 62, 43
1, 171360, Note_on_c, 0, 60, 36
1, 171369, Control_c, 0, 64, 0
1, 171484, Control_c, 0, 64, 127
1, 171600, Note_on_c, 0, 60, 0
1, 171600, Note_on_c, 0, 38, 0
1, 171600, Note_on_c, 0, 54, 0
1, 171600, Note_on_c, 0, 62, 0
1, 171600, Note_on_c, 0, 31, 30
1, 171840, Tempo, 550459
1, 171840, Note_on_c, 0, 67, 45
1, 171840, Note_on_c, 0, 62, 38
1, 171840, Note_on_c, 0, 58, 38
1, 171859, Control_c, 0, 64, 0
1, 171989, Control_c, 0, 64, 127
1, 172080, Note_on_c, 0, 58, 0
1, 172080, Note_on_c, 0, 31, 0
1, 172080, Note_on_c, 0, 67, 0
1, 172080, Note_on_c, 0, 62, 0
1, 172080, Note_on_c, 0, 50, 36
1, 172320, Note_on_c, 0, 54, 36
1, 172320, Note_on_c, 0, 62, 43
1, 172320, Note_on_c, 0, 60, 36
1, 172335, Control_c, 0, 64, 0
1, 172469, Control_c, 0, 64, 127
1, 172560, Note_on_c, 0, 60, 0
1, 172560, Note_on_c, 0, 50, 0
1, 172560, Note_on_c, 0, 54, 0
1, 172560, Note_on_c, 0, 62, 0
1, 172560, Note_on_c, 0, 43, 32
1, 172760, Tempo, 566038
1, 172800, Tempo, 555556
1, 172800, Note_on_c, 0, 62, 47
1, 172800, Note_on_c, 0, 58, 39
1, 172800, Note_on_c, 0, 55, 39
1, 172812, Control_c, 0, 64, 0
1, 172949, Control_c, 0, 64, 127
1, 173040, Note_on_c, 0, 55, 0
1, 173040, Note_on_c, 0, 43, 0
1, 173040, Note_on_c, 0, 62, 0
1, 173040, Note_on_c, 0, 58, 0
1, 173040, Note_on_c, 0, 50, 36
1, 173160, Tempo, 568720
1, 173200, Tempo, 558140
1, 173280, Note_on_c, 0, 57, 40
1, 173280, Note_on_c, 0, 62, 40
1, 173280, Note_on_c, 0, 66, 48
1, 173300, Control_c, 0, 64, 0
1, 173440, Tempo, 555556
1, 173440, Control_c, 0, 64, 127
1, 173520, Note_on_c, 0, 66, 0
1, 173520, Note_on_c, 0, 50, 0
1, 173520, Note_on_c, 0, 57, 0
1, 173520, Note_on_c, 0, 62, 0
1, 173520, Note_on_c, 0, 43, 31
1, 173640, Tempo, 552995
1, 173760, Note_on_c, 0, 58, 41
1, 173760, Note_on_c, 0, 62, 41
1, 173760, Note_on_c, 0, 67, 49
1, 173771, Control_c, 0, 64, 0
1, 173851, Control_c, 0, 64, 127
1, 173880, Tempo, 550459
1, 174000, Note_on_c, 0, 67, 0
1, 174000, Note_on_c, 0, 43, 0
1, 174000, Note_on_c, 0, 58, 0
1, 174000, Note_on_c, 0, 62, 0
1, 174000, Note_on_c, 0, 50, 37
1, 174080, Tempo, 547945
1, 174240, Note_on_c, 0, 62, 42
1, 174240, Note_on_c, 0, 66, 42
1, 174240, Note_on_c, 0, 69, 50
1, 174260, Control_c, 0, 64, 0
1, 174320, Tempo, 545455
1, 174457, Control_c, 0, 64, 127
1, 174480, Note_on_c, 0, 69, 0
1, 174480, Note_on_c, 0, 50, 0
1, 174480, Note_on_c, 0, 62, 0
1, 174480, Note_on_c, 0, 66, 0
1, 174480, Note_on_c, 0, 43, 33
1, 174520, Tempo, 542986
1, 174720, Note_on_c, 0, 62, 44
1, 174720, Note_on_c, 0, 67, 44
1, 174720, Note_on_c, 0, 70, 53
1, 174739, Control_c, 0, 64, 0
1, 174759, Control_c, 0, 64, 127
1, 174760, Tempo, 540541
1, 174960, Tempo, 538117
1, 174960, Note_on_c, 0, 70, 0
1, 174960, Note_on_c, 0, 43, 0
1, 174960, Note_on_c, 0, 62, 0
1, 174960, Note_on_c, 0, 67, 0
1, 174960, Note_on_c, 0, 50, 38
1, 175160, Tempo, 547945
1, 175200, Tempo, 550459
1, 175200, Note_on_c, 0, 66, 45
1, 175200, Note_on_c, 0, 72, 45
1, 175200, Note_on_c, 0, 74, 54
1, 175218, Control_c, 0, 64, 0
1, 175240, Tempo, 540541
1, 175256, Control_c, 0, 64, 127
1, 175320, Tempo, 542986
1, 175360, Tempo, 545455
1, 175400, Tempo, 547945
1, 175440, Note_on_c, 0, 74, 0
1, 175440, Note_on_c, 0, 50, 0
1, 175440, Note_on_c, 0, 66, 0
1, 175440, Note_on_c, 0, 72, 0
1, 175440, Note_on_c, 0, 43, 33
1, 175480, Tempo, 550459
1, 175520, Tempo, 552995
1, 175560, Tempo, 555556
1, 175680, Tempo, 538117
1, 175680, Note_on_c, 0, 70, 46
1, 175680, Note_on_c, 0, 74, 46
1, 175680, Note_on_c, 0, 79, 55
1, 175700, Control_c, 0, 64, 0
1, 175811, Control_c, 0, 64, 127
1, 175920, Note_on_c, 0, 79, 0
1, 175920, Note_on_c, 0, 43, 0
1, 175920, Note_on_c, 0, 70, 0
1, 175920, Note_on_c, 0, 74, 0
1, 175920, Note_on_c, 0, 50, 40
1, 176160, Tempo, 555556
1, 176160, Note_on_c, 0, 74, 55
1, 176160, Note_on_c, 0, 72, 46
1, 176160, Note_on_c, 0, 66, 46
1, 176184, Control_c, 0, 64, 0
1, 176238, Control_c, 0, 64, 127
1, 176400, Note_on_c, 0, 66, 0
1, 176400, Note_on_c, 0, 50, 0
1, 176400, Note_on_c, 0, 74, 0
1, 176400, Note_on_c, 0, 72, 0
1, 176400, Note_on_c, 0, 43, 35
1, 176502, Control_c, 0, 64, 0
1, 176550, Note_on_c, 0, 67, 44
1, 176580, Note_on_c, 0, 70, 47
1, 176610, Note_on_c, 0, 74, 52
1, 176640, Tempo, 538117
1, 176640, Note_on_c, 0, 79, 56
1, 176640, Control_c, 0, 64, 127
1, 176880, Note_on_c, 0, 79, 0
1, 176880, Note_on_c, 0, 70, 0
1, 176880, Note_on_c, 0, 43, 0
1, 176880, Note_on_c, 0, 67, 0
1, 176880, Note_on_c, 0, 74, 0
1, 176880, Note_on_c, 0, 50, 42
1, 177120, Note_on_c, 0, 74, 55
1, 177120, Note_on_c, 0, 72, 47
1, 177120, Note_on_c, 0, 66, 47
1, 177138, Control_c, 0, 64, 0
1, 177194, Control_c, 0, 64, 127
1, 177360, Note_on_c, 0, 66, 0
1, 177360, Note_on_c, 0, 50, 0
1, 177360, Note_on_c, 0, 74, 0
1, 177360, Note_on_c, 0, 72, 0
1, 177360, Note_on_c, 0, 43, 38
1, 177510, Note_on_c, 0, 67, 44
1, 177540, Note_on_c, 0, 70, 47
1, 177547, Control_c, 0, 64, 0
1, 177570, Note_on_c, 0, 74, 51
1, 177600, Note_on_c, 0, 79, 56
1, 177617, Control_c, 0, 64, 127
1, 177840, Note_on_c, 0, 79, 0
1, 177840, Note_on_c, 0, 70, 0
1, 177840, Note_on_c, 0, 43, 0
1, 177840, Note_on_c, 0, 67, 0
1, 177840, Note_on_c, 0, 74, 0
1, 177840, Note_on_c, 0, 62, 43
1, 178080, Tempo, 555556
1, 178080, Note_on_c, 0, 86, 59
1, 178080, Note_on_c, 0, 84, 50
1, 178080, Note_on_c, 0, 78, 50
1, 178099, Control_c, 0, 64, 0
1, 178161, Control_c, 0, 64, 127
1, 178320, Note_on_c, 0, 78, 0
1, 178320, Note_on_c, 0, 62, 0
1, 178320, Note_on_c, 0, 86, 0
1, 178320, Note_on_c, 0, 84, 0
1, 178320, Note_on_c, 0, 55, 39
1, 178470, Note_on_c, 0, 79, 51
1, 178500, Note_on_c, 0, 82, 56
1, 178510, Control_c, 0, 64, 0
1, 178530, Note_on_c, 0, 86, 60
1, 178560, Tempo, 540541
1, 178560, Note_on_c, 0, 91, 65
1, 178560, Control_c, 0, 64, 127
1, 178800, Note_on_c, 0, 91, 0
1, 178800, Note_on_c, 0, 82, 0
1, 178800, Note_on_c, 0, 55, 0
1, 178800, Note_on_c, 0, 79, 0
1, 178800, Note_on_c, 0, 86, 0
1, 178800, Note_on_c, 0, 62, 45
1, 179040, Tempo, 555556
1, 179040, Note_on_c, 0, 86, 59
1, 179040, Note_on_c, 0, 84, 51
1, 179040, Note_on_c, 0, 78, 51
1, 179062, Control_c, 0, 64, 0
1, 179107, Control_c, 0, 64, 127
1, 179280, Note_on_c, 0, 78, 0
1, 179280, Note_on_c, 0, 62, 0
1, 179280, Note_on_c, 0, 86, 0
1, 179280, Note_on_c, 0, 84, 0
1, 179280, Note_on_c, 0, 55, 41
1, 179430, Note_on_c, 0, 79, 50
1, 179460, Note_on_c, 0, 82, 55
1, 179467, Control_c, 0, 64, 0
1, 179490, Note_on_c, 0, 86, 58
1, 179520, Tempo, 542986
1, 179520, Note_on_c, 0, 91, 65
1, 179530, Control_c, 0, 64, 127
1, 179760, Note_on_c, 0, 91, 0
1, 179760, Note_on_c, 0, 82, 0
1, 179760, Note_on_c, 0, 55, 0
1, 179760, Note_on_c, 0, 79, 0
1, 179760, Note_on_c, 0, 86, 0
1, 179760, Note_on_c, 0, 67, 40
1, 179760, Note_on_c, 0, 74, 40
1, 179910, Note_on_c, 0, 79, 47
1, 179940, Note_on_c, 0, 82, 52
1, 179970, Note_on_c, 0, 86, 57
1, 180000, Note_on_c, 0, 91, 62
1, 180240, Note_on_c, 0, 91, 0
1, 180240, Note_on_c, 0, 74, 0
1, 180240, Note_on_c, 0, 79, 0
1, 180240, Note_on_c, 0, 67, 0
1, 180240, Note_on_c, 0, 86, 0
1, 180240, Note_on_c, 0, 82, 0
1, 180240, Note_on_c, 0, 67, 34
1, 180240, Note_on_c, 0, 74, 34
1, 180390, Note_on_c, 0, 79, 46
1, 180420, Note_on_c, 0, 82, 50
1, 180450, Note_on_c, 0, 86, 54
1, 180480, Tempo, 542986
1, 180480, Note_on_c, 0, 91, 59
1, 180640, Tempo, 545455
1, 180720, Note_on_c, 0, 91, 0
1, 180720, Note_on_c, 0, 74, 0
1, 180720, Note_on_c, 0, 79, 0
1, 180720, Note_on_c, 0, 67, 0
1, 180720, Note_on_c, 0, 86, 0
1, 180720, Note_on_c, 0, 82, 0
1, 180720, Note_on_c, 0, 67, 36
1, 180720, Note_on_c, 0, 74, 36
1, 180760, Tempo, 547945
1, 180870, Note_on_c, 0, 79, 45
1, 180880, Tempo, 550459
1, 180900, Note_on_c, 0, 82, 47
1, 180930, Note_on_c, 0, 86, 51
1, 180960, Note_on_c, 0, 91, 55
1, 181000, Tempo, 552995
1, 181120, Tempo, 555556
1, 181200, Note_on_c, 0, 91, 0
1, 181200, Note_on_c, 0, 74, 0
1, 181200, Note_on_c, 0, 79, 0
1, 181200, Note_on_c, 0, 67, 0
1, 181200, Note_on_c, 0, 86, 0
1, 181200, Note_on_c, 0, 82, 0
1, 181200, Note_on_c, 0, 67, 29
1, 181200, Note_on_c, 0, 74, 29
1, 181240, Tempo, 558140
1, 181350, Note_on_c, 0, 79, 42
1, 181360, Tempo, 560748
1, 181380, Note_on_c, 0, 82, 44
1, 181410, Note_on_c, 0, 86, 46
1, 181440, Tempo, 560748
1, 181440, Note_on_c, 0, 91, 50
1, 181560, Tempo, 563380
1, 181680, Tempo, 566038
1, 181680, Note_on_c, 0, 91, 0
1, 181680, Note_on_c, 0, 74, 0
1, 181680, Note_on_c, 0, 79, 0
1, 181680, Note_on_c, 0, 67, 0
1, 181680, Note_on_c, 0, 86, 0
1, 181680, Note_on_c, 0, 82, 0
1, 181680, Note_on_c, 0, 67, 31
1, 181680, Note_on_c, 0, 74, 31
1, 181760, Tempo, 568720
1, 181830, Note_on_c, 0, 79, 36
1, 181860, Note_on_c, 0, 82, 38
1, 181880, Tempo, 571429
1, 181890, Note_on_c, 0, 86, 40
1, 181920, Note_on_c, 0, 91, 47
1, 182000, Tempo, 574163
1, 182080, Tempo, 576923
1, 182160, Note_on_c, 0, 91, 0
1, 182160, Note_on_c, 0, 74, 0
1, 182160, Note_on_c, 0, 79, 0
1, 182160, Note_on_c, 0, 67, 0
1, 182160, Note_on_c, 0, 86, 0
1, 182160, Note_on_c, 0, 82, 0
1, 182160, Note_on_c, 0, 67, 27
1, 182160, Note_on_c, 0, 74, 27
1, 182200, Tempo, 579710
1, 182310, Note_on_c, 0, 79, 32
1, 182320, Tempo, 582524
1, 182340, Note_on_c, 0, 82, 36
1, 182370, Note_on_c, 0, 86, 40
1, 182400, Tempo, 585366
1, 182400, Note_on_c, 0, 91, 44
1, 182640, Note_on_c, 0, 91, 0
1, 182640, Note_on_c, 0, 74, 0
1, 182640, Note_on_c, 0, 79, 0
1, 182640, Note_on_c, 0, 67, 0
1, 182640, Note_on_c, 0, 86, 0
1, 182640, Note_on_c, 0, 82, 0
1, 182640, Note_on_c, 0, 67, 29
1, 182640, Note_on_c, 0, 74, 29
1, 182790, Note_on_c, 0, 79, 29
1, 182820, Note_on_c, 0, 82, 33
1, 182850, Note_on_c, 0, 86, 34
1, 182880, Tempo, 600000
1, 182880, Note_on_c, 0, 91, 41
1, 183120, Note_on_c, 0, 91, 0
1, 183120, Note_on_c, 0, 74, 0
1, 183120, Note_on_c, 0, 79, 0
1, 183120, Note_on_c, 0, 67, 0
1, 183120, Note_on_c, 0, 86, 0
1, 183120, Note_on_c, 0, 82, 0
1, 183120, Note_on_c, 0, 67, 25
1, 183120, Note_on_c, 0, 74, 25
1, 183240, Tempo, 1500000
1, 183270, Note_on_c, 0, 79, 26
1, 183300, Note_on_c, 0, 82, 30
1, 183330, Note_on_c, 0, 86, 34
1, 183360, Note_on_c, 0, 91, 37
1, 183600, Note_on_c, 0, 91, 0
1, 183600, Note_on_c, 0, 82, 0
1, 183600, Note_on_c, 0, 79, 0
1, 183600, Note_on_c, 0, 86, 0
1, 184320, Tempo, 1200000
1, 184320, Note_on_c, 0, 67, 0
1, 184320, Note_on_c, 0, 74, 0
1, 185840, Control_c, 0, 64, 0
1, 185840, End_track
0, 0, End_of_file
