0, 0, Header, 0, 1, 480
1, 0, Start_track
1, 0, Title_t, "Die Jahreszeiten"
1, 0, Title_t, "November"
1, 0, Copyright_t, "Copyright © 2004 by Bernd Krueger"
1, 0, Text_t, "Peter Tschaikowsky"
1, 0, Text_t, "Allogro moderato"
1, 0, Text_t, "Fertiggestellt am  9.12.2000\012"
1, 0, Text_t, "Normierung: 23.12.2002\012"
1, 0, Text_t, "Update am 8.9.2004\012"
1, 0, Text_t, "Update am 26.9.2008\012"
1, 0, Text_t, "Dauer: 2:58 Minuten\012"
1, 0, SMPTE_offset, 96, 0, 3, 0, 0
1, 0, Time_signature, 4, 2, 24, 8
1, 0, Key_signature, 4, "major"
1, 0, Tempo, 618876
1, 0, Program_c, 0, 0
1, 0, Control_c, 0, 7, 100
1, 0, Control_c, 0, 10, 64
1, 0, Note_on_c, 0, 73, 68
1, 0, Control_c, 0, 91, 127
1, 0, Text_t, "bdca426d104a26ac9dcb070447587523"
1, 0, Program_c, 0, 0
1, 0, Control_c, 0, 7, 100
1, 0, Control_c, 0, 10, 64
1, 0, Note_on_c, 0, 61, 53
1, 0, Control_c, 0, 64, 0
1, 240, Tempo, 639863
1, 240, Note_on_c, 0, 61, 0
1, 240, Note_on_c, 0, 73, 0
1, 240, Note_on_c, 0, 71, 62
1, 240, Note_on_c, 0, 59, 49
1, 480, Tempo, 622278
1, 480, Note_on_c, 0, 59, 0
1, 480, Note_on_c, 0, 71, 0
1, 480, Note_on_c, 0, 76, 63
1, 480, Note_on_c, 0, 64, 50
1, 536, Control_c, 0, 64, 127
1, 960, Tempo, 629195
1, 960, Note_on_c, 0, 68, 44
1, 960, Note_on_c, 0, 71, 44
1, 960, Note_on_c, 0, 59, 37
1, 960, Note_on_c, 0, 52, 37
1, 1440, Tempo, 618876
1, 1440, Note_on_c, 0, 52, 0
1, 1440, Note_on_c, 0, 64, 0
1, 1440, Note_on_c, 0, 68, 0
1, 1440, Note_on_c, 0, 76, 0
1, 1440, Note_on_c, 0, 59, 0
1, 1440, Note_on_c, 0, 71, 0
1, 1440, Note_on_c, 0, 80, 67
1, 1440, Control_c, 0, 64, 0
1, 1440, Note_on_c, 0, 68, 52
1, 1680, Note_on_c, 0, 68, 0
1, 1680, Note_on_c, 0, 80, 0
1, 1680, Note_on_c, 0, 83, 63
1, 1680, Note_on_c, 0, 71, 50
1, 1920, Tempo, 618876
1, 1920, Note_on_c, 0, 71, 0
1, 1920, Note_on_c, 0, 83, 0
1, 1920, Note_on_c, 0, 85, 69
1, 1920, Note_on_c, 0, 73, 55
1, 2160, Tempo, 654664
1, 2160, Note_on_c, 0, 73, 0
1, 2160, Note_on_c, 0, 85, 0
1, 2160, Note_on_c, 0, 83, 62
1, 2160, Note_on_c, 0, 71, 49
1, 2400, Tempo, 618876
1, 2400, Note_on_c, 0, 71, 0
1, 2400, Note_on_c, 0, 83, 0
1, 2400, Note_on_c, 0, 80, 64
1, 2400, Note_on_c, 0, 68, 51
1, 2485, Control_c, 0, 64, 127
1, 2880, Tempo, 629195
1, 2880, Note_on_c, 0, 71, 44
1, 2880, Note_on_c, 0, 68, 44
1, 2880, Note_on_c, 0, 52, 37
1, 2880, Note_on_c, 0, 59, 37
1, 3360, Tempo, 625717
1, 3360, Note_on_c, 0, 59, 0
1, 3360, Note_on_c, 0, 68, 0
1, 3360, Note_on_c, 0, 71, 0
1, 3360, Note_on_c, 0, 80, 0
1, 3360, Note_on_c, 0, 52, 0
1, 3360, Note_on_c, 0, 68, 0
1, 3360, Note_on_c, 0, 76, 63
1, 3360, Control_c, 0, 64, 0
1, 3360, Note_on_c, 0, 64, 50
1, 3600, Note_on_c, 0, 64, 0
1, 3600, Note_on_c, 0, 76, 0
1, 3600, Note_on_c, 0, 73, 60
1, 3600, Note_on_c, 0, 61, 48
1, 3840, Note_on_c, 0, 61, 0
1, 3840, Note_on_c, 0, 73, 0
1, 3840, Note_on_c, 0, 80, 63
1, 3840, Note_on_c, 0, 68, 50
1, 4080, Tempo, 643501
1, 4080, Note_on_c, 0, 68, 0
1, 4080, Note_on_c, 0, 80, 0
1, 4080, Note_on_c, 0, 78, 59
1, 4080, Note_on_c, 0, 66, 47
1, 4320, Tempo, 622278
1, 4320, Note_on_c, 0, 66, 0
1, 4320, Note_on_c, 0, 78, 0
1, 4320, Note_on_c, 0, 73, 62
1, 4320, Note_on_c, 0, 61, 49
1, 4405, Control_c, 0, 64, 127
1, 4800, Tempo, 629195
1, 4800, Note_on_c, 0, 66, 44
1, 4800, Note_on_c, 0, 69, 44
1, 4800, Note_on_c, 0, 59, 37
1, 4800, Note_on_c, 0, 52, 37
1, 5280, Tempo, 618876
1, 5280, Note_on_c, 0, 52, 0
1, 5280, Note_on_c, 0, 61, 0
1, 5280, Note_on_c, 0, 66, 0
1, 5280, Note_on_c, 0, 73, 0
1, 5280, Note_on_c, 0, 59, 0
1, 5280, Note_on_c, 0, 69, 0
1, 5280, Note_on_c, 0, 73, 61
1, 5280, Note_on_c, 0, 61, 48
1, 5286, Control_c, 0, 64, 0
1, 5520, Note_on_c, 0, 61, 0
1, 5520, Note_on_c, 0, 73, 0
1, 5520, Note_on_c, 0, 71, 57
1, 5520, Note_on_c, 0, 59, 41
1, 5760, Tempo, 629195
1, 5760, Note_on_c, 0, 59, 0
1, 5760, Note_on_c, 0, 71, 0
1, 5760, Note_on_c, 0, 78, 62
1, 5760, Note_on_c, 0, 66, 47
1, 6000, Tempo, 643501
1, 6000, Note_on_c, 0, 66, 0
1, 6000, Note_on_c, 0, 78, 0
1, 6000, Note_on_c, 0, 76, 57
1, 6000, Note_on_c, 0, 64, 39
1, 6240, Tempo, 629195
1, 6240, Note_on_c, 0, 64, 0
1, 6240, Note_on_c, 0, 76, 0
1, 6240, Note_on_c, 0, 71, 58
1, 6240, Note_on_c, 0, 59, 41
1, 6320, Control_c, 0, 64, 127
1, 6720, Note_on_c, 0, 68, 44
1, 6720, Note_on_c, 0, 64, 44
1, 6720, Note_on_c, 0, 52, 37
1, 6720, Note_on_c, 0, 56, 37
1, 7200, Note_on_c, 0, 56, 0
1, 7200, Note_on_c, 0, 59, 0
1, 7200, Note_on_c, 0, 68, 0
1, 7200, Note_on_c, 0, 71, 0
1, 7200, Note_on_c, 0, 52, 0
1, 7200, Note_on_c, 0, 64, 0
1, 7200, Note_on_c, 0, 70, 61
1, 7200, Control_c, 0, 64, 0
1, 7200, Note_on_c, 0, 58, 48
1, 7440, Note_on_c, 0, 58, 0
1, 7440, Note_on_c, 0, 70, 0
1, 7440, Note_on_c, 0, 71, 59
1, 7440, Note_on_c, 0, 59, 47
1, 7680, Tempo, 618876
1, 7680, Note_on_c, 0, 59, 0
1, 7680, Note_on_c, 0, 71, 0
1, 7680, Note_on_c, 0, 73, 68
1, 7680, Note_on_c, 0, 61, 53
1, 7920, Tempo, 639863
1, 7920, Note_on_c, 0, 61, 0
1, 7920, Note_on_c, 0, 73, 0
1, 7920, Note_on_c, 0, 71, 62
1, 7920, Note_on_c, 0, 59, 49
1, 8160, Tempo, 622278
1, 8160, Note_on_c, 0, 59, 0
1, 8160, Note_on_c, 0, 71, 0
1, 8160, Note_on_c, 0, 76, 63
1, 8160, Note_on_c, 0, 64, 50
1, 8216, Control_c, 0, 64, 127
1, 8640, Tempo, 629195
1, 8640, Note_on_c, 0, 68, 44
1, 8640, Note_on_c, 0, 71, 44
1, 8640, Note_on_c, 0, 59, 37
1, 8640, Note_on_c, 0, 52, 37
1, 9120, Tempo, 618876
1, 9120, Note_on_c, 0, 52, 0
1, 9120, Note_on_c, 0, 64, 0
1, 9120, Note_on_c, 0, 68, 0
1, 9120, Note_on_c, 0, 76, 0
1, 9120, Note_on_c, 0, 59, 0
1, 9120, Note_on_c, 0, 71, 0
1, 9120, Note_on_c, 0, 80, 67
1, 9120, Control_c, 0, 64, 0
1, 9120, Note_on_c, 0, 68, 52
1, 9360, Note_on_c, 0, 68, 0
1, 9360, Note_on_c, 0, 80, 0
1, 9360, Note_on_c, 0, 83, 63
1, 9360, Note_on_c, 0, 71, 50
1, 9600, Tempo, 618876
1, 9600, Note_on_c, 0, 71, 0
1, 9600, Note_on_c, 0, 83, 0
1, 9600, Note_on_c, 0, 85, 69
1, 9600, Note_on_c, 0, 73, 55
1, 9840, Tempo, 654664
1, 9840, Note_on_c, 0, 73, 0
1, 9840, Note_on_c, 0, 85, 0
1, 9840, Note_on_c, 0, 83, 62
1, 9840, Note_on_c, 0, 71, 49
1, 10080, Tempo, 618876
1, 10080, Note_on_c, 0, 71, 0
1, 10080, Note_on_c, 0, 83, 0
1, 10080, Note_on_c, 0, 80, 64
1, 10080, Note_on_c, 0, 68, 51
1, 10165, Control_c, 0, 64, 127
1, 10560, Tempo, 629195
1, 10560, Note_on_c, 0, 68, 44
1, 10560, Note_on_c, 0, 71, 44
1, 10560, Note_on_c, 0, 52, 37
1, 10560, Note_on_c, 0, 59, 37
1, 11040, Tempo, 625717
1, 11040, Note_on_c, 0, 59, 0
1, 11040, Note_on_c, 0, 68, 0
1, 11040, Note_on_c, 0, 68, 0
1, 11040, Note_on_c, 0, 80, 0
1, 11040, Note_on_c, 0, 52, 0
1, 11040, Note_on_c, 0, 71, 0
1, 11040, Note_on_c, 0, 76, 63
1, 11040, Control_c, 0, 64, 0
1, 11040, Note_on_c, 0, 64, 50
1, 11280, Note_on_c, 0, 64, 0
1, 11280, Note_on_c, 0, 76, 0
1, 11280, Note_on_c, 0, 73, 60
1, 11280, Note_on_c, 0, 61, 48
1, 11520, Note_on_c, 0, 61, 0
1, 11520, Note_on_c, 0, 73, 0
1, 11520, Note_on_c, 0, 71, 63
1, 11520, Note_on_c, 0, 59, 50
1, 11760, Tempo, 654664
1, 11760, Note_on_c, 0, 59, 0
1, 11760, Note_on_c, 0, 71, 0
1, 11760, Note_on_c, 0, 75, 59
1, 11760, Note_on_c, 0, 63, 47
1, 12000, Tempo, 622278
1, 12000, Note_on_c, 0, 63, 0
1, 12000, Note_on_c, 0, 75, 0
1, 12000, Note_on_c, 0, 83, 62
1, 12000, Note_on_c, 0, 71, 49
1, 12085, Control_c, 0, 64, 127
1, 12480, Tempo, 629195
1, 12480, Note_on_c, 0, 75, 44
1, 12480, Note_on_c, 0, 71, 44
1, 12480, Note_on_c, 0, 56, 37
1, 12480, Note_on_c, 0, 51, 37
1, 12480, Note_on_c, 0, 59, 37
1, 12960, Tempo, 632711
1, 12960, Note_on_c, 0, 59, 0
1, 12960, Note_on_c, 0, 56, 0
1, 12960, Note_on_c, 0, 71, 0
1, 12960, Note_on_c, 0, 75, 0
1, 12960, Note_on_c, 0, 83, 0
1, 12960, Note_on_c, 0, 51, 0
1, 12960, Note_on_c, 0, 71, 0
1, 12960, Note_on_c, 0, 82, 61
1, 12960, Control_c, 0, 64, 0
1, 12960, Note_on_c, 0, 70, 48
1, 13200, Tempo, 639863
1, 13200, Note_on_c, 0, 70, 0
1, 13200, Note_on_c, 0, 82, 0
1, 13200, Note_on_c, 0, 80, 57
1, 13200, Note_on_c, 0, 68, 41
1, 13440, Tempo, 629195
1, 13440, Note_on_c, 0, 68, 0
1, 13440, Note_on_c, 0, 80, 0
1, 13440, Note_on_c, 0, 76, 57
1, 13440, Note_on_c, 0, 64, 48
1, 13920, Note_on_c, 0, 64, 0
1, 13920, Note_on_c, 0, 76, 0
1, 13920, Note_on_c, 0, 70, 44
1, 13920, Note_on_c, 0, 67, 44
1, 13920, Note_on_c, 0, 75, 57
1, 13920, Note_on_c, 0, 58, 37
1, 13920, Note_on_c, 0, 63, 48
1, 13920, Note_on_c, 0, 51, 37
1, 14011, Control_c, 0, 64, 127
1, 14160, Tempo, 647179
1, 14160, Note_on_c, 0, 63, 0
1, 14160, Note_on_c, 0, 75, 0
1, 14160, Note_on_c, 0, 73, 53
1, 14160, Note_on_c, 0, 61, 41
1, 14400, Tempo, 632711
1, 14400, Note_on_c, 0, 61, 0
1, 14400, Note_on_c, 0, 51, 0
1, 14400, Note_on_c, 0, 67, 0
1, 14400, Note_on_c, 0, 70, 0
1, 14400, Note_on_c, 0, 73, 0
1, 14400, Note_on_c, 0, 58, 0
1, 14400, Note_on_c, 0, 73, 57
1, 14400, Note_on_c, 0, 63, 40
1, 14400, Note_on_c, 0, 68, 40
1, 14400, Note_on_c, 0, 61, 46
1, 14400, Note_on_c, 0, 56, 34
1, 14409, Control_c, 0, 64, 0
1, 14503, Control_c, 0, 64, 127
1, 14640, Tempo, 650900
1, 14640, Note_on_c, 0, 61, 0
1, 14640, Note_on_c, 0, 73, 0
1, 14640, Note_on_c, 0, 71, 52
1, 14640, Note_on_c, 0, 59, 39
1, 14820, Tempo, 839161
1, 14820, Note_on_c, 0, 59, 0
1, 14820, Note_on_c, 0, 56, 0
1, 14820, Note_on_c, 0, 44, 31
1, 14850, Note_on_c, 0, 51, 31
1, 14880, Tempo, 636267
1, 14880, Note_on_c, 0, 63, 0
1, 14880, Note_on_c, 0, 71, 0
1, 14880, Note_on_c, 0, 68, 0
1, 14880, Note_on_c, 0, 59, 37
1, 14880, Note_on_c, 0, 70, 52
1, 14880, Note_on_c, 0, 63, 38
1, 14880, Note_on_c, 0, 58, 40
1, 14891, Control_c, 0, 64, 0
1, 14961, Control_c, 0, 64, 127
1, 15120, Tempo, 643501
1, 15120, Note_on_c, 0, 58, 0
1, 15120, Note_on_c, 0, 70, 0
1, 15120, Note_on_c, 0, 68, 52
1, 15120, Note_on_c, 0, 56, 37
1, 15234, Control_c, 0, 64, 0
1, 15360, Tempo, 636267
1, 15360, Note_on_c, 0, 56, 0
1, 15360, Note_on_c, 0, 44, 0
1, 15360, Note_on_c, 0, 63, 0
1, 15360, Note_on_c, 0, 51, 0
1, 15360, Note_on_c, 0, 68, 0
1, 15360, Note_on_c, 0, 59, 0
1, 15360, Note_on_c, 0, 69, 64
1, 15600, Tempo, 647179
1, 15600, Note_on_c, 0, 69, 0
1, 15600, Note_on_c, 0, 65, 60
1, 15840, Tempo, 636267
1, 15840, Note_on_c, 0, 65, 0
1, 15840, Note_on_c, 0, 66, 64
1, 15904, Control_c, 0, 64, 127
1, 15960, Note_on_c, 0, 42, 39
1, 16080, Note_on_c, 0, 42, 0
1, 16080, Note_on_c, 0, 49, 37
1, 16200, Note_on_c, 0, 49, 0
1, 16200, Note_on_c, 0, 54, 37
1, 16320, Tempo, 636267
1, 16320, Note_on_c, 0, 54, 0
1, 16320, Note_on_c, 0, 57, 39
1, 16440, Tempo, 639863
1, 16440, Note_on_c, 0, 57, 0
1, 16440, Note_on_c, 0, 61, 39
1, 16560, Tempo, 643501
1, 16560, Note_on_c, 0, 61, 0
1, 16560, Note_on_c, 0, 66, 0
1, 16560, Note_on_c, 0, 66, 39
1, 16680, Tempo, 647179
1, 16680, Note_on_c, 0, 66, 0
1, 16680, Note_on_c, 0, 69, 42
1, 16760, Tempo, 650900
1, 16800, Tempo, 632711
1, 16800, Note_on_c, 0, 69, 0
1, 16800, Note_on_c, 0, 78, 67
1, 16801, Control_c, 0, 64, 0
1, 17040, Tempo, 654664
1, 17040, Note_on_c, 0, 78, 0
1, 17040, Note_on_c, 0, 76, 63
1, 17280, Tempo, 636267
1, 17280, Note_on_c, 0, 76, 0
1, 17280, Note_on_c, 0, 76, 67
1, 17520, Tempo, 643501
1, 17520, Note_on_c, 0, 76, 0
1, 17520, Note_on_c, 0, 74, 63
1, 17760, Note_on_c, 0, 74, 0
1, 17760, Note_on_c, 0, 75, 66
1, 17795, Control_c, 0, 64, 127
1, 17880, Note_on_c, 0, 47, 39
1, 18000, Note_on_c, 0, 47, 0
1, 18000, Note_on_c, 0, 54, 37
1, 18120, Note_on_c, 0, 54, 0
1, 18120, Note_on_c, 0, 57, 37
1, 18240, Note_on_c, 0, 57, 0
1, 18240, Note_on_c, 0, 59, 39
1, 18360, Note_on_c, 0, 59, 0
1, 18360, Note_on_c, 0, 63, 39
1, 18480, Tempo, 658472
1, 18480, Note_on_c, 0, 63, 0
1, 18480, Note_on_c, 0, 66, 39
1, 18600, Note_on_c, 0, 66, 0
1, 18600, Note_on_c, 0, 69, 42
1, 18720, Tempo, 647179
1, 18720, Note_on_c, 0, 69, 0
1, 18720, Note_on_c, 0, 75, 0
1, 18720, Note_on_c, 0, 73, 67
1, 18723, Control_c, 0, 64, 0
1, 18960, Tempo, 658472
1, 18960, Note_on_c, 0, 73, 0
1, 18960, Note_on_c, 0, 71, 67
1, 19200, Tempo, 639863
1, 19200, Note_on_c, 0, 71, 0
1, 19200, Note_on_c, 0, 69, 64
1, 19440, Tempo, 647179
1, 19440, Note_on_c, 0, 69, 0
1, 19440, Note_on_c, 0, 65, 60
1, 19680, Note_on_c, 0, 65, 0
1, 19680, Note_on_c, 0, 66, 64
1, 19744, Control_c, 0, 64, 127
1, 19800, Note_on_c, 0, 42, 37
1, 19920, Note_on_c, 0, 42, 0
1, 19920, Note_on_c, 0, 49, 40
1, 20040, Note_on_c, 0, 49, 0
1, 20040, Note_on_c, 0, 54, 44
1, 20160, Tempo, 636267
1, 20160, Note_on_c, 0, 54, 0
1, 20160, Note_on_c, 0, 57, 48
1, 20280, Tempo, 639863
1, 20280, Note_on_c, 0, 57, 0
1, 20280, Note_on_c, 0, 61, 46
1, 20400, Tempo, 643501
1, 20400, Note_on_c, 0, 61, 0
1, 20400, Note_on_c, 0, 66, 0
1, 20400, Note_on_c, 0, 66, 50
1, 20520, Tempo, 647179
1, 20520, Note_on_c, 0, 66, 0
1, 20520, Note_on_c, 0, 69, 55
1, 20600, Tempo, 650900
1, 20640, Tempo, 658472
1, 20640, Note_on_c, 0, 69, 0
1, 20640, Note_on_c, 0, 81, 68
1, 20640, Control_c, 0, 64, 0
1, 20800, Note_on_c, 0, 81, 0
1, 20800, Note_on_c, 0, 80, 64
1, 20880, Tempo, 654664
1, 20960, Note_on_c, 0, 80, 0
1, 20960, Note_on_c, 0, 78, 63
1, 21120, Tempo, 647179
1, 21120, Note_on_c, 0, 78, 0
1, 21120, Note_on_c, 0, 76, 68
1, 21360, Note_on_c, 0, 76, 0
1, 21360, Note_on_c, 0, 63, 35
1, 21360, Note_on_c, 0, 69, 35
1, 21360, Note_on_c, 0, 75, 60
1, 21360, Note_on_c, 0, 47, 29
1, 21360, Note_on_c, 0, 59, 35
1, 21360, Note_on_c, 0, 54, 29
1, 21600, Note_on_c, 0, 54, 0
1, 21600, Note_on_c, 0, 69, 0
1, 21600, Note_on_c, 0, 75, 0
1, 21600, Note_on_c, 0, 63, 0
1, 21600, Note_on_c, 0, 59, 0
1, 21600, Note_on_c, 0, 47, 0
1, 21600, Note_on_c, 0, 73, 68
1, 21840, Note_on_c, 0, 73, 0
1, 21840, Note_on_c, 0, 64, 35
1, 21840, Note_on_c, 0, 69, 35
1, 21840, Note_on_c, 0, 75, 59
1, 21840, Note_on_c, 0, 52, 25
1, 21840, Note_on_c, 0, 49, 25
1, 21840, Note_on_c, 0, 57, 35
1, 22080, Note_on_c, 0, 57, 0
1, 22080, Note_on_c, 0, 69, 0
1, 22080, Note_on_c, 0, 75, 0
1, 22080, Note_on_c, 0, 64, 0
1, 22080, Note_on_c, 0, 49, 0
1, 22080, Note_on_c, 0, 52, 0
1, 22080, Note_on_c, 0, 73, 63
1, 22320, Note_on_c, 0, 73, 0
1, 22320, Note_on_c, 0, 71, 56
1, 22320, Note_on_c, 0, 65, 35
1, 22320, Note_on_c, 0, 50, 29
1, 22320, Note_on_c, 0, 56, 35
1, 22560, Note_on_c, 0, 56, 0
1, 22560, Note_on_c, 0, 71, 0
1, 22560, Note_on_c, 0, 65, 0
1, 22560, Note_on_c, 0, 50, 0
1, 22560, Note_on_c, 0, 70, 59
1, 22800, Tempo, 654664
1, 22800, Note_on_c, 0, 70, 0
1, 22800, Note_on_c, 0, 66, 35
1, 22800, Note_on_c, 0, 71, 57
1, 22800, Note_on_c, 0, 51, 29
1, 22800, Note_on_c, 0, 57, 35
1, 23040, Tempo, 643501
1, 23040, Note_on_c, 0, 57, 0
1, 23040, Note_on_c, 0, 66, 0
1, 23040, Note_on_c, 0, 71, 0
1, 23040, Note_on_c, 0, 51, 0
1, 23040, Note_on_c, 0, 69, 64
1, 23280, Tempo, 647179
1, 23280, Note_on_c, 0, 69, 0
1, 23280, Note_on_c, 0, 65, 60
1, 23520, Tempo, 636267
1, 23520, Note_on_c, 0, 65, 0
1, 23520, Note_on_c, 0, 66, 64
1, 23584, Control_c, 0, 64, 127
1, 23640, Note_on_c, 0, 42, 39
1, 23760, Note_on_c, 0, 42, 0
1, 23760, Note_on_c, 0, 49, 37
1, 23880, Note_on_c, 0, 49, 0
1, 23880, Note_on_c, 0, 54, 37
1, 24000, Tempo, 636267
1, 24000, Note_on_c, 0, 54, 0
1, 24000, Note_on_c, 0, 57, 39
1, 24120, Tempo, 639863
1, 24120, Note_on_c, 0, 57, 0
1, 24120, Note_on_c, 0, 61, 39
1, 24240, Tempo, 643501
1, 24240, Note_on_c, 0, 61, 0
1, 24240, Note_on_c, 0, 66, 0
1, 24240, Note_on_c, 0, 66, 39
1, 24360, Tempo, 647179
1, 24360, Note_on_c, 0, 66, 0
1, 24360, Note_on_c, 0, 69, 42
1, 24440, Tempo, 650900
1, 24480, Tempo, 632711
1, 24480, Note_on_c, 0, 69, 0
1, 24480, Note_on_c, 0, 78, 67
1, 24480, Control_c, 0, 64, 0
1, 24720, Tempo, 654664
1, 24720, Note_on_c, 0, 78, 0
1, 24720, Note_on_c, 0, 76, 63
1, 24960, Tempo, 636267
1, 24960, Note_on_c, 0, 76, 0
1, 24960, Note_on_c, 0, 76, 67
1, 25200, Tempo, 643501
1, 25200, Note_on_c, 0, 76, 0
1, 25200, Note_on_c, 0, 74, 63
1, 25440, Note_on_c, 0, 74, 0
1, 25440, Note_on_c, 0, 75, 66
1, 25475, Control_c, 0, 64, 127
1, 25560, Note_on_c, 0, 47, 39
1, 25680, Note_on_c, 0, 47, 0
1, 25680, Note_on_c, 0, 54, 37
1, 25800, Note_on_c, 0, 54, 0
1, 25800, Note_on_c, 0, 57, 37
1, 25920, Note_on_c, 0, 57, 0
1, 25920, Note_on_c, 0, 59, 39
1, 26040, Note_on_c, 0, 59, 0
1, 26040, Note_on_c, 0, 63, 39
1, 26160, Tempo, 658472
1, 26160, Note_on_c, 0, 63, 0
1, 26160, Note_on_c, 0, 66, 39
1, 26280, Note_on_c, 0, 66, 0
1, 26280, Note_on_c, 0, 69, 42
1, 26400, Tempo, 647179
1, 26400, Note_on_c, 0, 69, 0
1, 26400, Note_on_c, 0, 75, 0
1, 26400, Note_on_c, 0, 73, 67
1, 26400, Control_c, 0, 64, 0
1, 26640, Tempo, 658472
1, 26640, Note_on_c, 0, 73, 0
1, 26640, Note_on_c, 0, 71, 67
1, 26880, Tempo, 639863
1, 26880, Note_on_c, 0, 71, 0
1, 26880, Note_on_c, 0, 69, 64
1, 27120, Tempo, 647179
1, 27120, Note_on_c, 0, 69, 0
1, 27120, Note_on_c, 0, 65, 60
1, 27360, Note_on_c, 0, 65, 0
1, 27360, Note_on_c, 0, 66, 64
1, 27424, Control_c, 0, 64, 127
1, 27480, Note_on_c, 0, 42, 37
1, 27600, Note_on_c, 0, 42, 0
1, 27600, Note_on_c, 0, 49, 40
1, 27720, Note_on_c, 0, 49, 0
1, 27720, Note_on_c, 0, 54, 44
1, 27840, Tempo, 636267
1, 27840, Note_on_c, 0, 54, 0
1, 27840, Note_on_c, 0, 57, 48
1, 27960, Tempo, 639863
1, 27960, Note_on_c, 0, 57, 0
1, 27960, Note_on_c, 0, 61, 46
1, 28080, Tempo, 643501
1, 28080, Note_on_c, 0, 61, 0
1, 28080, Note_on_c, 0, 66, 0
1, 28080, Note_on_c, 0, 66, 50
1, 28200, Tempo, 647179
1, 28200, Note_on_c, 0, 66, 0
1, 28200, Note_on_c, 0, 69, 55
1, 28280, Tempo, 650900
1, 28320, Tempo, 658472
1, 28320, Note_on_c, 0, 69, 0
1, 28320, Note_on_c, 0, 81, 68
1, 28320, Control_c, 0, 64, 0
1, 28480, Note_on_c, 0, 81, 0
1, 28480, Note_on_c, 0, 80, 64
1, 28560, Tempo, 654664
1, 28640, Note_on_c, 0, 80, 0
1, 28640, Note_on_c, 0, 78, 63
1, 28800, Tempo, 643501
1, 28800, Note_on_c, 0, 78, 0
1, 28800, Note_on_c, 0, 76, 68
1, 29040, Tempo, 662325
1, 29040, Note_on_c, 0, 76, 0
1, 29040, Note_on_c, 0, 63, 35
1, 29040, Note_on_c, 0, 69, 35
1, 29040, Note_on_c, 0, 75, 60
1, 29040, Note_on_c, 0, 47, 29
1, 29040, Note_on_c, 0, 59, 35
1, 29040, Note_on_c, 0, 54, 29
1, 29280, Tempo, 650900
1, 29280, Note_on_c, 0, 54, 0
1, 29280, Note_on_c, 0, 69, 0
1, 29280, Note_on_c, 0, 75, 0
1, 29280, Note_on_c, 0, 63, 0
1, 29280, Note_on_c, 0, 59, 0
1, 29280, Note_on_c, 0, 47, 0
1, 29280, Note_on_c, 0, 80, 64
1, 29440, Note_on_c, 0, 80, 0
1, 29440, Note_on_c, 0, 78, 61
1, 29600, Note_on_c, 0, 78, 0
1, 29600, Note_on_c, 0, 76, 60
1, 29760, Tempo, 639863
1, 29760, Note_on_c, 0, 76, 0
1, 29760, Note_on_c, 0, 75, 63
1, 30000, Tempo, 658472
1, 30000, Note_on_c, 0, 75, 0
1, 30000, Note_on_c, 0, 64, 29
1, 30000, Note_on_c, 0, 73, 59
1, 30000, Note_on_c, 0, 69, 29
1, 30000, Note_on_c, 0, 49, 24
1, 30000, Note_on_c, 0, 57, 24
1, 30000, Note_on_c, 0, 52, 24
1, 30000, Note_on_c, 0, 61, 29
1, 30240, Tempo, 650900
1, 30240, Note_on_c, 0, 61, 0
1, 30240, Note_on_c, 0, 57, 0
1, 30240, Note_on_c, 0, 73, 0
1, 30240, Note_on_c, 0, 69, 0
1, 30240, Note_on_c, 0, 64, 0
1, 30240, Note_on_c, 0, 52, 0
1, 30240, Note_on_c, 0, 49, 0
1, 30240, Note_on_c, 0, 78, 63
1, 30400, Note_on_c, 0, 78, 0
1, 30400, Note_on_c, 0, 76, 60
1, 30560, Note_on_c, 0, 76, 0
1, 30560, Note_on_c, 0, 75, 60
1, 30720, Tempo, 647179
1, 30720, Note_on_c, 0, 75, 0
1, 30720, Note_on_c, 0, 73, 71
1, 30720, Note_on_c, 0, 61, 59
1, 30960, Note_on_c, 0, 61, 0
1, 30960, Note_on_c, 0, 73, 0
1, 30960, Note_on_c, 0, 69, 37
1, 30960, Note_on_c, 0, 66, 37
1, 30960, Note_on_c, 0, 71, 66
1, 30960, Note_on_c, 0, 54, 37
1, 30960, Note_on_c, 0, 51, 37
1, 30960, Note_on_c, 0, 59, 37
1, 31200, Note_on_c, 0, 59, 0
1, 31200, Note_on_c, 0, 66, 0
1, 31200, Note_on_c, 0, 71, 0
1, 31200, Note_on_c, 0, 69, 0
1, 31200, Note_on_c, 0, 51, 0
1, 31200, Note_on_c, 0, 54, 0
1, 31200, Note_on_c, 0, 73, 80
1, 31200, Note_on_c, 0, 61, 67
1, 31440, Note_on_c, 0, 61, 0
1, 31440, Note_on_c, 0, 73, 0
1, 31440, Note_on_c, 0, 71, 73
1, 31440, Note_on_c, 0, 64, 42
1, 31440, Note_on_c, 0, 68, 42
1, 31440, Note_on_c, 0, 56, 42
1, 31440, Note_on_c, 0, 52, 42
1, 31440, Note_on_c, 0, 59, 42
1, 31680, Tempo, 654664
1, 31680, Note_on_c, 0, 59, 0
1, 31680, Note_on_c, 0, 64, 0
1, 31680, Note_on_c, 0, 68, 0
1, 31680, Note_on_c, 0, 71, 0
1, 31680, Note_on_c, 0, 52, 0
1, 31680, Note_on_c, 0, 56, 0
1, 31680, Note_on_c, 0, 73, 84
1, 31680, Note_on_c, 0, 61, 71
1, 31720, Tempo, 654664
1, 31920, Note_on_c, 0, 61, 0
1, 31920, Note_on_c, 0, 73, 0
1, 31920, Note_on_c, 0, 62, 48
1, 31920, Note_on_c, 0, 71, 79
1, 31920, Note_on_c, 0, 68, 48
1, 31920, Note_on_c, 0, 56, 48
1, 31920, Note_on_c, 0, 53, 48
1, 31920, Note_on_c, 0, 59, 48
1, 32160, Tempo, 670166
1, 32160, Note_on_c, 0, 59, 0
1, 32160, Note_on_c, 0, 71, 0
1, 32160, Note_on_c, 0, 68, 0
1, 32160, Note_on_c, 0, 62, 0
1, 32160, Note_on_c, 0, 53, 0
1, 32160, Note_on_c, 0, 56, 0
1, 32160, Note_on_c, 0, 73, 86
1, 32160, Note_on_c, 0, 61, 72
1, 32400, Note_on_c, 0, 61, 0
1, 32400, Note_on_c, 0, 73, 0
1, 32400, Note_on_c, 0, 63, 55
1, 32400, Note_on_c, 0, 69, 55
1, 32400, Note_on_c, 0, 71, 89
1, 32400, Note_on_c, 0, 59, 55
1, 32400, Note_on_c, 0, 54, 55
1, 32640, Tempo, 643501
1, 32640, Note_on_c, 0, 54, 0
1, 32640, Note_on_c, 0, 71, 0
1, 32640, Note_on_c, 0, 63, 0
1, 32640, Note_on_c, 0, 69, 0
1, 32640, Note_on_c, 0, 59, 0
1, 32640, Note_on_c, 0, 73, 88
1, 32640, Note_on_c, 0, 61, 70
1, 32880, Tempo, 639863
1, 32880, Note_on_c, 0, 61, 0
1, 32880, Note_on_c, 0, 73, 0
1, 32880, Note_on_c, 0, 59, 64
1, 32880, Note_on_c, 0, 71, 81
1, 33120, Tempo, 615385
1, 33120, Note_on_c, 0, 71, 0
1, 33120, Note_on_c, 0, 59, 0
1, 33120, Note_on_c, 0, 71, 69
1, 33120, Note_on_c, 0, 76, 85
1, 33120, Note_on_c, 0, 64, 69
1, 33120, Note_on_c, 0, 68, 69
1, 33226, Control_c, 0, 64, 127
1, 33280, Note_on_c, 0, 40, 61
1, 33400, Tempo, 612245
1, 33440, Note_on_c, 0, 40, 0
1, 33440, Note_on_c, 0, 47, 61
1, 33560, Tempo, 606061
1, 33600, Note_on_c, 0, 47, 0
1, 33600, Note_on_c, 0, 52, 66
1, 33720, Tempo, 609137
1, 33760, Note_on_c, 0, 52, 0
1, 33760, Note_on_c, 0, 47, 62
1, 33840, Tempo, 612245
1, 33920, Note_on_c, 0, 47, 0
1, 33920, Note_on_c, 0, 52, 62
1, 33960, Tempo, 615385
1, 34080, Tempo, 618557
1, 34080, Note_on_c, 0, 52, 0
1, 34080, Note_on_c, 0, 64, 0
1, 34080, Note_on_c, 0, 71, 0
1, 34080, Note_on_c, 0, 76, 0
1, 34080, Note_on_c, 0, 68, 0
1, 34080, Note_on_c, 0, 68, 69
1, 34080, Note_on_c, 0, 71, 69
1, 34080, Note_on_c, 0, 80, 86
1, 34080, Note_on_c, 0, 76, 69
1, 34080, Note_on_c, 0, 59, 69
1, 34240, Note_on_c, 0, 59, 0
1, 34240, Note_on_c, 0, 52, 62
1, 34320, Note_on_c, 0, 80, 0
1, 34320, Note_on_c, 0, 76, 0
1, 34320, Note_on_c, 0, 68, 0
1, 34320, Note_on_c, 0, 71, 0
1, 34320, Note_on_c, 0, 71, 66
1, 34320, Note_on_c, 0, 76, 66
1, 34320, Note_on_c, 0, 80, 66
1, 34320, Note_on_c, 0, 83, 82
1, 34400, Note_on_c, 0, 52, 0
1, 34400, Note_on_c, 0, 59, 61
1, 34560, Tempo, 618876
1, 34560, Note_on_c, 0, 59, 0
1, 34560, Note_on_c, 0, 83, 0
1, 34560, Note_on_c, 0, 71, 0
1, 34560, Note_on_c, 0, 76, 0
1, 34560, Note_on_c, 0, 80, 0
1, 34560, Note_on_c, 0, 76, 70
1, 34560, Note_on_c, 0, 85, 89
1, 34560, Note_on_c, 0, 80, 70
1, 34560, Note_on_c, 0, 73, 70
1, 34560, Note_on_c, 0, 64, 71
1, 34572, Control_c, 0, 64, 0
1, 34659, Control_c, 0, 64, 127
1, 34800, Tempo, 654664
1, 34800, Note_on_c, 0, 64, 0
1, 34800, Note_on_c, 0, 80, 0
1, 34800, Note_on_c, 0, 76, 0
1, 34800, Note_on_c, 0, 85, 0
1, 34800, Note_on_c, 0, 73, 0
1, 34800, Note_on_c, 0, 83, 81
1, 34800, Note_on_c, 0, 71, 64
1, 35040, Tempo, 615385
1, 35040, Note_on_c, 0, 71, 0
1, 35040, Note_on_c, 0, 83, 0
1, 35040, Note_on_c, 0, 68, 66
1, 35040, Note_on_c, 0, 71, 66
1, 35040, Note_on_c, 0, 76, 66
1, 35040, Note_on_c, 0, 80, 83
1, 35054, Control_c, 0, 64, 0
1, 35188, Control_c, 0, 64, 127
1, 35200, Note_on_c, 0, 40, 61
1, 35280, Tempo, 612245
1, 35360, Note_on_c, 0, 40, 0
1, 35360, Note_on_c, 0, 47, 61
1, 35480, Tempo, 609137
1, 35520, Note_on_c, 0, 47, 0
1, 35520, Note_on_c, 0, 52, 66
1, 35600, Tempo, 612245
1, 35680, Note_on_c, 0, 52, 0
1, 35680, Note_on_c, 0, 47, 62
1, 35720, Tempo, 615385
1, 35840, Tempo, 618557
1, 35840, Note_on_c, 0, 47, 0
1, 35840, Note_on_c, 0, 52, 62
1, 35960, Tempo, 621762
1, 36000, Tempo, 618876
1, 36000, Note_on_c, 0, 52, 0
1, 36000, Note_on_c, 0, 76, 0
1, 36000, Note_on_c, 0, 68, 0
1, 36000, Note_on_c, 0, 71, 0
1, 36000, Note_on_c, 0, 80, 0
1, 36000, Note_on_c, 0, 68, 66
1, 36000, Note_on_c, 0, 76, 82
1, 36000, Note_on_c, 0, 71, 66
1, 36000, Note_on_c, 0, 64, 66
1, 36000, Note_on_c, 0, 59, 69
1, 36160, Note_on_c, 0, 59, 0
1, 36160, Note_on_c, 0, 52, 62
1, 36240, Note_on_c, 0, 71, 0
1, 36240, Note_on_c, 0, 64, 0
1, 36240, Note_on_c, 0, 68, 0
1, 36240, Note_on_c, 0, 76, 0
1, 36240, Note_on_c, 0, 71, 61
1, 36240, Note_on_c, 0, 73, 78
1, 36240, Note_on_c, 0, 68, 61
1, 36240, Note_on_c, 0, 61, 61
1, 36320, Note_on_c, 0, 52, 0
1, 36320, Note_on_c, 0, 59, 61
1, 36480, Tempo, 618876
1, 36480, Note_on_c, 0, 59, 0
1, 36480, Note_on_c, 0, 61, 0
1, 36480, Note_on_c, 0, 71, 0
1, 36480, Note_on_c, 0, 73, 0
1, 36480, Note_on_c, 0, 68, 0
1, 36480, Note_on_c, 0, 68, 66
1, 36480, Note_on_c, 0, 80, 82
1, 36480, Note_on_c, 0, 71, 66
1, 36480, Note_on_c, 0, 63, 71
1, 36484, Control_c, 0, 64, 0
1, 36586, Control_c, 0, 64, 127
1, 36720, Note_on_c, 0, 63, 0
1, 36720, Note_on_c, 0, 68, 0
1, 36720, Note_on_c, 0, 80, 0
1, 36720, Note_on_c, 0, 71, 0
1, 36720, Note_on_c, 0, 66, 61
1, 36720, Note_on_c, 0, 78, 77
1, 36960, Tempo, 621762
1, 36960, Note_on_c, 0, 78, 0
1, 36960, Note_on_c, 0, 66, 0
1, 36960, Note_on_c, 0, 61, 64
1, 36960, Note_on_c, 0, 73, 81
1, 36960, Note_on_c, 0, 66, 64
1, 36960, Note_on_c, 0, 69, 64
1, 36975, Control_c, 0, 64, 0
1, 37120, Tempo, 618557
1, 37120, Note_on_c, 0, 40, 55
1, 37164, Control_c, 0, 64, 127
1, 37280, Tempo, 615385
1, 37280, Note_on_c, 0, 40, 0
1, 37280, Note_on_c, 0, 47, 55
1, 37440, Tempo, 612245
1, 37440, Note_on_c, 0, 47, 0
1, 37440, Note_on_c, 0, 54, 59
1, 37600, Tempo, 615385
1, 37600, Note_on_c, 0, 54, 0
1, 37600, Note_on_c, 0, 47, 56
1, 37760, Tempo, 618557
1, 37760, Note_on_c, 0, 47, 0
1, 37760, Note_on_c, 0, 54, 56
1, 37880, Tempo, 621762
1, 37920, Tempo, 618876
1, 37920, Note_on_c, 0, 54, 0
1, 37920, Note_on_c, 0, 66, 0
1, 37920, Note_on_c, 0, 61, 0
1, 37920, Note_on_c, 0, 73, 0
1, 37920, Note_on_c, 0, 69, 0
1, 37920, Note_on_c, 0, 61, 62
1, 37920, Note_on_c, 0, 66, 62
1, 37920, Note_on_c, 0, 73, 79
1, 37920, Note_on_c, 0, 69, 62
1, 37920, Note_on_c, 0, 59, 61
1, 38080, Note_on_c, 0, 59, 0
1, 38080, Note_on_c, 0, 54, 56
1, 38160, Note_on_c, 0, 73, 0
1, 38160, Note_on_c, 0, 69, 0
1, 38160, Note_on_c, 0, 61, 0
1, 38160, Note_on_c, 0, 66, 0
1, 38160, Note_on_c, 0, 63, 58
1, 38160, Note_on_c, 0, 66, 58
1, 38160, Note_on_c, 0, 71, 73
1, 38240, Note_on_c, 0, 54, 0
1, 38240, Note_on_c, 0, 59, 55
1, 38400, Tempo, 618876
1, 38400, Note_on_c, 0, 59, 0
1, 38400, Note_on_c, 0, 71, 0
1, 38400, Note_on_c, 0, 66, 0
1, 38400, Note_on_c, 0, 63, 0
1, 38400, Note_on_c, 0, 71, 61
1, 38400, Note_on_c, 0, 78, 77
1, 38400, Note_on_c, 0, 68, 61
1, 38400, Note_on_c, 0, 66, 61
1, 38400, Note_on_c, 0, 64, 63
1, 38407, Control_c, 0, 64, 0
1, 38492, Control_c, 0, 64, 127
1, 38640, Note_on_c, 0, 64, 0
1, 38640, Note_on_c, 0, 68, 0
1, 38640, Note_on_c, 0, 71, 0
1, 38640, Note_on_c, 0, 78, 0
1, 38640, Note_on_c, 0, 66, 0
1, 38640, Note_on_c, 0, 64, 58
1, 38640, Note_on_c, 0, 76, 73
1, 38840, Tempo, 618557
1, 38880, Note_on_c, 0, 76, 0
1, 38880, Note_on_c, 0, 64, 0
1, 38880, Note_on_c, 0, 64, 59
1, 38880, Note_on_c, 0, 71, 74
1, 38880, Note_on_c, 0, 68, 59
1, 38880, Note_on_c, 0, 59, 59
1, 38887, Control_c, 0, 64, 0
1, 39035, Control_c, 0, 64, 127
1, 39040, Note_on_c, 0, 40, 55
1, 39200, Note_on_c, 0, 40, 0
1, 39200, Note_on_c, 0, 47, 55
1, 39360, Note_on_c, 0, 47, 0
1, 39360, Note_on_c, 0, 52, 59
1, 39400, Tempo, 615385
1, 39520, Note_on_c, 0, 52, 0
1, 39520, Note_on_c, 0, 47, 56
1, 39640, Tempo, 618557
1, 39680, Note_on_c, 0, 47, 0
1, 39680, Note_on_c, 0, 52, 56
1, 39840, Tempo, 621762
1, 39840, Note_on_c, 0, 52, 0
1, 39840, Note_on_c, 0, 68, 0
1, 39840, Note_on_c, 0, 64, 0
1, 39840, Note_on_c, 0, 71, 0
1, 39840, Note_on_c, 0, 59, 0
1, 39840, Note_on_c, 0, 68, 62
1, 39840, Note_on_c, 0, 70, 79
1, 39840, Note_on_c, 0, 64, 62
1, 39840, Note_on_c, 0, 58, 62
1, 39840, Note_on_c, 0, 56, 61
1, 40000, Note_on_c, 0, 56, 0
1, 40000, Note_on_c, 0, 52, 56
1, 40080, Note_on_c, 0, 64, 0
1, 40080, Note_on_c, 0, 58, 0
1, 40080, Note_on_c, 0, 68, 0
1, 40080, Note_on_c, 0, 70, 0
1, 40080, Note_on_c, 0, 59, 61
1, 40080, Note_on_c, 0, 71, 77
1, 40160, Note_on_c, 0, 52, 0
1, 40160, Note_on_c, 0, 56, 55
1, 40320, Tempo, 643501
1, 40320, Note_on_c, 0, 56, 0
1, 40320, Note_on_c, 0, 71, 0
1, 40320, Note_on_c, 0, 59, 0
1, 40320, Note_on_c, 0, 64, 70
1, 40320, Note_on_c, 0, 73, 88
1, 40320, Note_on_c, 0, 61, 70
1, 40320, Note_on_c, 0, 68, 70
1, 40320, Note_on_c, 0, 59, 63
1, 40329, Control_c, 0, 64, 0
1, 40419, Control_c, 0, 64, 127
1, 40560, Tempo, 639863
1, 40560, Note_on_c, 0, 59, 0
1, 40560, Note_on_c, 0, 61, 0
1, 40560, Note_on_c, 0, 64, 0
1, 40560, Note_on_c, 0, 73, 0
1, 40560, Note_on_c, 0, 68, 0
1, 40560, Note_on_c, 0, 59, 64
1, 40560, Note_on_c, 0, 71, 81
1, 40560, Note_on_c, 0, 64, 64
1, 40560, Note_on_c, 0, 68, 64
1, 40800, Tempo, 622278
1, 40800, Note_on_c, 0, 68, 0
1, 40800, Note_on_c, 0, 59, 0
1, 40800, Note_on_c, 0, 71, 0
1, 40800, Note_on_c, 0, 64, 0
1, 40800, Note_on_c, 0, 64, 69
1, 40800, Note_on_c, 0, 76, 85
1, 40800, Note_on_c, 0, 68, 69
1, 40800, Note_on_c, 0, 71, 69
1, 40818, Control_c, 0, 64, 0
1, 40840, Tempo, 618557
1, 40960, Note_on_c, 0, 40, 61
1, 40962, Control_c, 0, 64, 127
1, 41000, Tempo, 615385
1, 41120, Note_on_c, 0, 40, 0
1, 41120, Note_on_c, 0, 47, 61
1, 41160, Tempo, 612245
1, 41280, Note_on_c, 0, 47, 0
1, 41280, Note_on_c, 0, 52, 66
1, 41320, Tempo, 609137
1, 41440, Tempo, 612245
1, 41440, Note_on_c, 0, 52, 0
1, 41440, Note_on_c, 0, 47, 62
1, 41520, Tempo, 615385
1, 41600, Tempo, 618557
1, 41600, Note_on_c, 0, 47, 0
1, 41600, Note_on_c, 0, 52, 62
1, 41680, Tempo, 621762
1, 41760, Tempo, 625000
1, 41760, Note_on_c, 0, 52, 0
1, 41760, Note_on_c, 0, 68, 0
1, 41760, Note_on_c, 0, 64, 0
1, 41760, Note_on_c, 0, 76, 0
1, 41760, Note_on_c, 0, 71, 0
1, 41760, Note_on_c, 0, 68, 69
1, 41760, Note_on_c, 0, 71, 69
1, 41760, Note_on_c, 0, 80, 86
1, 41760, Note_on_c, 0, 76, 69
1, 41760, Note_on_c, 0, 59, 69
1, 41920, Note_on_c, 0, 59, 0
1, 41920, Note_on_c, 0, 52, 62
1, 42000, Note_on_c, 0, 80, 0
1, 42000, Note_on_c, 0, 76, 0
1, 42000, Note_on_c, 0, 68, 0
1, 42000, Note_on_c, 0, 71, 0
1, 42000, Note_on_c, 0, 71, 66
1, 42000, Note_on_c, 0, 76, 66
1, 42000, Note_on_c, 0, 80, 66
1, 42000, Note_on_c, 0, 83, 82
1, 42080, Note_on_c, 0, 52, 0
1, 42080, Note_on_c, 0, 59, 61
1, 42240, Tempo, 618876
1, 42240, Note_on_c, 0, 59, 0
1, 42240, Note_on_c, 0, 83, 0
1, 42240, Note_on_c, 0, 71, 0
1, 42240, Note_on_c, 0, 76, 0
1, 42240, Note_on_c, 0, 80, 0
1, 42240, Note_on_c, 0, 80, 70
1, 42240, Note_on_c, 0, 76, 70
1, 42240, Note_on_c, 0, 73, 70
1, 42240, Note_on_c, 0, 85, 89
1, 42240, Note_on_c, 0, 64, 71
1, 42250, Control_c, 0, 64, 0
1, 42339, Control_c, 0, 64, 127
1, 42480, Tempo, 654664
1, 42480, Note_on_c, 0, 64, 0
1, 42480, Note_on_c, 0, 73, 0
1, 42480, Note_on_c, 0, 80, 0
1, 42480, Note_on_c, 0, 76, 0
1, 42480, Note_on_c, 0, 85, 0
1, 42480, Note_on_c, 0, 71, 64
1, 42480, Note_on_c, 0, 83, 81
1, 42720, Tempo, 618557
1, 42720, Note_on_c, 0, 83, 0
1, 42720, Note_on_c, 0, 71, 0
1, 42720, Note_on_c, 0, 71, 66
1, 42720, Note_on_c, 0, 80, 83
1, 42720, Note_on_c, 0, 76, 66
1, 42720, Note_on_c, 0, 68, 66
1, 42732, Control_c, 0, 64, 0
1, 42868, Control_c, 0, 64, 127
1, 42880, Note_on_c, 0, 40, 61
1, 42920, Tempo, 615385
1, 43040, Note_on_c, 0, 40, 0
1, 43040, Note_on_c, 0, 47, 61
1, 43080, Tempo, 612245
1, 43200, Note_on_c, 0, 47, 0
1, 43200, Note_on_c, 0, 52, 66
1, 43240, Tempo, 609137
1, 43360, Tempo, 612245
1, 43360, Note_on_c, 0, 52, 0
1, 43360, Note_on_c, 0, 47, 62
1, 43480, Tempo, 615385
1, 43520, Note_on_c, 0, 47, 0
1, 43520, Note_on_c, 0, 52, 62
1, 43600, Tempo, 618557
1, 43680, Tempo, 618876
1, 43680, Note_on_c, 0, 52, 0
1, 43680, Note_on_c, 0, 76, 0
1, 43680, Note_on_c, 0, 71, 0
1, 43680, Note_on_c, 0, 80, 0
1, 43680, Note_on_c, 0, 68, 0
1, 43680, Note_on_c, 0, 71, 66
1, 43680, Note_on_c, 0, 76, 82
1, 43680, Note_on_c, 0, 68, 66
1, 43680, Note_on_c, 0, 64, 66
1, 43680, Note_on_c, 0, 59, 69
1, 43840, Note_on_c, 0, 59, 0
1, 43840, Note_on_c, 0, 52, 62
1, 43920, Note_on_c, 0, 68, 0
1, 43920, Note_on_c, 0, 64, 0
1, 43920, Note_on_c, 0, 71, 0
1, 43920, Note_on_c, 0, 76, 0
1, 43920, Note_on_c, 0, 61, 61
1, 43920, Note_on_c, 0, 73, 78
1, 43920, Note_on_c, 0, 68, 61
1, 43920, Note_on_c, 0, 71, 61
1, 44000, Note_on_c, 0, 52, 0
1, 44000, Note_on_c, 0, 59, 61
1, 44160, Tempo, 618876
1, 44160, Note_on_c, 0, 59, 0
1, 44160, Note_on_c, 0, 71, 0
1, 44160, Note_on_c, 0, 61, 0
1, 44160, Note_on_c, 0, 73, 0
1, 44160, Note_on_c, 0, 68, 0
1, 44160, Note_on_c, 0, 68, 66
1, 44160, Note_on_c, 0, 71, 66
1, 44160, Note_on_c, 0, 80, 82
1, 44160, Note_on_c, 0, 63, 71
1, 44169, Control_c, 0, 64, 0
1, 44230, Control_c, 0, 64, 127
1, 44400, Note_on_c, 0, 63, 0
1, 44400, Note_on_c, 0, 68, 0
1, 44400, Note_on_c, 0, 71, 0
1, 44400, Note_on_c, 0, 80, 0
1, 44400, Note_on_c, 0, 78, 77
1, 44400, Note_on_c, 0, 66, 61
1, 44640, Tempo, 618557
1, 44640, Note_on_c, 0, 66, 0
1, 44640, Note_on_c, 0, 78, 0
1, 44640, Note_on_c, 0, 61, 64
1, 44640, Note_on_c, 0, 66, 64
1, 44640, Note_on_c, 0, 73, 81
1, 44640, Note_on_c, 0, 69, 64
1, 44646, Control_c, 0, 64, 0
1, 44746, Control_c, 0, 64, 127
1, 44800, Note_on_c, 0, 40, 55
1, 44880, Tempo, 615385
1, 44960, Note_on_c, 0, 40, 0
1, 44960, Note_on_c, 0, 47, 55
1, 45080, Tempo, 612245
1, 45120, Note_on_c, 0, 47, 0
1, 45120, Note_on_c, 0, 54, 59
1, 45240, Tempo, 615385
1, 45280, Note_on_c, 0, 54, 0
1, 45280, Note_on_c, 0, 47, 56
1, 45360, Tempo, 618557
1, 45440, Note_on_c, 0, 47, 0
1, 45440, Note_on_c, 0, 54, 56
1, 45480, Tempo, 621762
1, 45600, Tempo, 618876
1, 45600, Note_on_c, 0, 54, 0
1, 45600, Note_on_c, 0, 73, 0
1, 45600, Note_on_c, 0, 61, 0
1, 45600, Note_on_c, 0, 66, 0
1, 45600, Note_on_c, 0, 69, 0
1, 45600, Note_on_c, 0, 61, 62
1, 45600, Note_on_c, 0, 66, 62
1, 45600, Note_on_c, 0, 69, 62
1, 45600, Note_on_c, 0, 73, 79
1, 45600, Note_on_c, 0, 59, 61
1, 45760, Note_on_c, 0, 59, 0
1, 45760, Note_on_c, 0, 54, 56
1, 45840, Note_on_c, 0, 69, 0
1, 45840, Note_on_c, 0, 73, 0
1, 45840, Note_on_c, 0, 61, 0
1, 45840, Note_on_c, 0, 66, 0
1, 45840, Note_on_c, 0, 66, 58
1, 45840, Note_on_c, 0, 63, 58
1, 45840, Note_on_c, 0, 71, 73
1, 45920, Note_on_c, 0, 54, 0
1, 45920, Note_on_c, 0, 59, 55
1, 46080, Tempo, 618876
1, 46080, Note_on_c, 0, 59, 0
1, 46080, Note_on_c, 0, 71, 0
1, 46080, Note_on_c, 0, 63, 0
1, 46080, Note_on_c, 0, 66, 0
1, 46080, Note_on_c, 0, 66, 61
1, 46080, Note_on_c, 0, 78, 77
1, 46080, Note_on_c, 0, 68, 61
1, 46080, Note_on_c, 0, 71, 61
1, 46080, Note_on_c, 0, 64, 63
1, 46090, Control_c, 0, 64, 0
1, 46193, Control_c, 0, 64, 127
1, 46320, Note_on_c, 0, 64, 0
1, 46320, Note_on_c, 0, 68, 0
1, 46320, Note_on_c, 0, 66, 0
1, 46320, Note_on_c, 0, 78, 0
1, 46320, Note_on_c, 0, 71, 0
1, 46320, Note_on_c, 0, 64, 58
1, 46320, Note_on_c, 0, 76, 73
1, 46520, Tempo, 618557
1, 46560, Note_on_c, 0, 76, 0
1, 46560, Note_on_c, 0, 64, 0
1, 46560, Note_on_c, 0, 68, 59
1, 46560, Note_on_c, 0, 71, 74
1, 46560, Note_on_c, 0, 64, 59
1, 46560, Note_on_c, 0, 59, 59
1, 46567, Control_c, 0, 64, 0
1, 46666, Control_c, 0, 64, 127
1, 46720, Note_on_c, 0, 40, 55
1, 46800, Tempo, 615385
1, 46880, Note_on_c, 0, 40, 0
1, 46880, Note_on_c, 0, 47, 55
1, 47040, Tempo, 612245
1, 47040, Note_on_c, 0, 47, 0
1, 47040, Note_on_c, 0, 52, 59
1, 47200, Note_on_c, 0, 52, 0
1, 47200, Note_on_c, 0, 47, 56
1, 47240, Tempo, 615385
1, 47360, Note_on_c, 0, 47, 0
1, 47360, Note_on_c, 0, 52, 56
1, 47400, Tempo, 618557
1, 47520, Note_on_c, 0, 52, 0
1, 47520, Note_on_c, 0, 64, 0
1, 47520, Note_on_c, 0, 68, 0
1, 47520, Note_on_c, 0, 71, 0
1, 47520, Note_on_c, 0, 59, 0
1, 47520, Note_on_c, 0, 58, 59
1, 47520, Note_on_c, 0, 70, 74
1, 47520, Note_on_c, 0, 64, 59
1, 47520, Note_on_c, 0, 68, 59
1, 47520, Note_on_c, 0, 56, 61
1, 47560, Tempo, 621762
1, 47680, Note_on_c, 0, 56, 0
1, 47680, Note_on_c, 0, 52, 56
1, 47760, Note_on_c, 0, 64, 0
1, 47760, Note_on_c, 0, 68, 0
1, 47760, Note_on_c, 0, 58, 0
1, 47760, Note_on_c, 0, 70, 0
1, 47760, Note_on_c, 0, 64, 58
1, 47760, Note_on_c, 0, 68, 58
1, 47760, Note_on_c, 0, 71, 72
1, 47760, Note_on_c, 0, 59, 58
1, 47840, Note_on_c, 0, 52, 0
1, 47840, Note_on_c, 0, 56, 55
1, 48000, Tempo, 618876
1, 48000, Note_on_c, 0, 56, 0
1, 48000, Note_on_c, 0, 59, 0
1, 48000, Note_on_c, 0, 64, 0
1, 48000, Note_on_c, 0, 68, 0
1, 48000, Note_on_c, 0, 71, 0
1, 48000, Note_on_c, 0, 61, 58
1, 48000, Note_on_c, 0, 64, 58
1, 48000, Note_on_c, 0, 68, 58
1, 48000, Note_on_c, 0, 73, 72
1, 48000, Note_on_c, 0, 59, 63
1, 48009, Control_c, 0, 64, 0
1, 48113, Control_c, 0, 64, 127
1, 48240, Note_on_c, 0, 59, 0
1, 48240, Note_on_c, 0, 68, 0
1, 48240, Note_on_c, 0, 61, 0
1, 48240, Note_on_c, 0, 64, 0
1, 48240, Note_on_c, 0, 73, 0
1, 48240, Note_on_c, 0, 70, 67
1, 48240, Note_on_c, 0, 58, 52
1, 48480, Tempo, 621762
1, 48480, Note_on_c, 0, 58, 0
1, 48480, Note_on_c, 0, 70, 0
1, 48480, Note_on_c, 0, 59, 52
1, 48480, Note_on_c, 0, 64, 52
1, 48480, Note_on_c, 0, 71, 66
1, 48480, Note_on_c, 0, 68, 52
1, 48515, Control_c, 0, 64, 0
1, 48586, Control_c, 0, 64, 127
1, 48640, Note_on_c, 0, 40, 51
1, 48720, Tempo, 618557
1, 48800, Note_on_c, 0, 40, 0
1, 48800, Note_on_c, 0, 47, 50
1, 48960, Tempo, 615385
1, 48960, Note_on_c, 0, 47, 0
1, 48960, Note_on_c, 0, 52, 52
1, 49120, Note_on_c, 0, 52, 0
1, 49120, Note_on_c, 0, 47, 49
1, 49160, Tempo, 618557
1, 49280, Note_on_c, 0, 47, 0
1, 49280, Note_on_c, 0, 52, 48
1, 49320, Tempo, 621762
1, 49440, Note_on_c, 0, 52, 0
1, 49440, Note_on_c, 0, 71, 0
1, 49440, Note_on_c, 0, 59, 0
1, 49440, Note_on_c, 0, 64, 0
1, 49440, Note_on_c, 0, 68, 0
1, 49440, Note_on_c, 0, 58, 44
1, 49440, Note_on_c, 0, 64, 44
1, 49440, Note_on_c, 0, 68, 44
1, 49440, Note_on_c, 0, 70, 56
1, 49440, Note_on_c, 0, 56, 51
1, 49480, Tempo, 625000
1, 49600, Note_on_c, 0, 56, 0
1, 49600, Note_on_c, 0, 52, 46
1, 49680, Note_on_c, 0, 68, 0
1, 49680, Note_on_c, 0, 70, 0
1, 49680, Note_on_c, 0, 58, 0
1, 49680, Note_on_c, 0, 64, 0
1, 49680, Note_on_c, 0, 68, 42
1, 49680, Note_on_c, 0, 71, 53
1, 49680, Note_on_c, 0, 59, 42
1, 49680, Note_on_c, 0, 64, 42
1, 49760, Note_on_c, 0, 52, 0
1, 49760, Note_on_c, 0, 56, 45
1, 49920, Tempo, 618876
1, 49920, Note_on_c, 0, 56, 0
1, 49920, Note_on_c, 0, 64, 0
1, 49920, Note_on_c, 0, 68, 0
1, 49920, Note_on_c, 0, 71, 0
1, 49920, Note_on_c, 0, 59, 0
1, 49920, Note_on_c, 0, 68, 40
1, 49920, Note_on_c, 0, 73, 51
1, 49920, Note_on_c, 0, 64, 40
1, 49920, Note_on_c, 0, 61, 40
1, 49920, Note_on_c, 0, 59, 50
1, 49929, Control_c, 0, 64, 0
1, 50033, Control_c, 0, 64, 127
1, 50160, Note_on_c, 0, 59, 0
1, 50160, Note_on_c, 0, 64, 0
1, 50160, Note_on_c, 0, 68, 0
1, 50160, Note_on_c, 0, 73, 0
1, 50160, Note_on_c, 0, 61, 0
1, 50160, Note_on_c, 0, 58, 37
1, 50160, Note_on_c, 0, 70, 48
1, 50400, Tempo, 621762
1, 50400, Note_on_c, 0, 70, 0
1, 50400, Note_on_c, 0, 58, 0
1, 50400, Note_on_c, 0, 64, 37
1, 50400, Note_on_c, 0, 71, 47
1, 50400, Note_on_c, 0, 68, 37
1, 50400, Note_on_c, 0, 59, 37
1, 50408, Control_c, 0, 64, 0
1, 50506, Control_c, 0, 64, 127
1, 50560, Tempo, 618557
1, 50560, Note_on_c, 0, 40, 40
1, 50680, Tempo, 615385
1, 50720, Note_on_c, 0, 40, 0
1, 50720, Note_on_c, 0, 47, 39
1, 50800, Tempo, 612245
1, 50880, Note_on_c, 0, 47, 0
1, 50880, Note_on_c, 0, 52, 41
1, 50960, Tempo, 615385
1, 51040, Note_on_c, 0, 52, 0
1, 51040, Note_on_c, 0, 47, 39
1, 51080, Tempo, 618557
1, 51200, Tempo, 621762
1, 51200, Note_on_c, 0, 47, 0
1, 51200, Note_on_c, 0, 52, 38
1, 51320, Tempo, 625000
1, 51360, Note_on_c, 0, 52, 0
1, 51360, Note_on_c, 0, 68, 0
1, 51360, Note_on_c, 0, 64, 0
1, 51360, Note_on_c, 0, 71, 0
1, 51360, Note_on_c, 0, 59, 0
1, 51360, Note_on_c, 0, 56, 40
1, 51440, Tempo, 628272
1, 51520, Tempo, 631579
1, 51520, Note_on_c, 0, 56, 0
1, 51520, Note_on_c, 0, 52, 36
1, 51640, Tempo, 634921
1, 51680, Note_on_c, 0, 52, 0
1, 51680, Note_on_c, 0, 56, 35
1, 51840, Key_signature, 1, "major"
1, 51840, Tempo, 618557
1, 51840, Note_on_c, 0, 56, 0
1, 51840, Note_on_c, 0, 45, 42
1, 51848, Control_c, 0, 64, 0
1, 51870, Note_on_c, 0, 52, 47
1, 51900, Note_on_c, 0, 57, 52
1, 51930, Note_on_c, 0, 60, 62
1, 51946, Control_c, 0, 64, 127
1, 51960, Note_on_c, 0, 64, 67
1, 51990, Note_on_c, 0, 69, 69
1, 52020, Tempo, 515021
1, 52020, Note_on_c, 0, 72, 73
1, 52320, Note_on_c, 0, 69, 0
1, 52320, Note_on_c, 0, 60, 0
1, 52320, Note_on_c, 0, 52, 0
1, 52320, Note_on_c, 0, 57, 0
1, 52320, Note_on_c, 0, 45, 0
1, 52320, Note_on_c, 0, 64, 0
1, 52560, Tempo, 461538
1, 52560, Note_on_c, 0, 72, 0
1, 52560, Note_on_c, 0, 72, 62
1, 52800, Tempo, 474308
1, 52800, Note_on_c, 0, 72, 0
1, 52800, Note_on_c, 0, 60, 60
1, 52800, Note_on_c, 0, 66, 60
1, 52800, Note_on_c, 0, 72, 68
1, 52800, Note_on_c, 0, 50, 48
1, 52800, Note_on_c, 0, 57, 53
1, 52813, Control_c, 0, 64, 0
1, 52881, Control_c, 0, 64, 127
1, 53160, Note_on_c, 0, 72, 0
1, 53160, Note_on_c, 0, 71, 62
1, 53220, Note_on_c, 0, 71, 0
1, 53220, Note_on_c, 0, 69, 62
1, 53234, Control_c, 0, 64, 0
1, 53280, Tempo, 458015
1, 53280, Note_on_c, 0, 69, 0
1, 53280, Note_on_c, 0, 50, 0
1, 53280, Note_on_c, 0, 60, 0
1, 53280, Note_on_c, 0, 66, 0
1, 53280, Note_on_c, 0, 57, 0
1, 53280, Note_on_c, 0, 62, 63
1, 53280, Note_on_c, 0, 67, 71
1, 53280, Note_on_c, 0, 43, 50
1, 53280, Note_on_c, 0, 50, 50
1, 53280, Note_on_c, 0, 59, 57
1, 53400, Note_on_c, 0, 59, 0
1, 53400, Note_on_c, 0, 43, 0
1, 53400, Note_on_c, 0, 62, 0
1, 53400, Note_on_c, 0, 67, 0
1, 53400, Note_on_c, 0, 50, 0
1, 53520, Tempo, 465116
1, 53520, Note_on_c, 0, 62, 62
1, 53520, Note_on_c, 0, 67, 62
1, 53520, Note_on_c, 0, 74, 70
1, 53520, Note_on_c, 0, 47, 49
1, 53520, Note_on_c, 0, 55, 49
1, 53520, Note_on_c, 0, 59, 56
1, 53640, Note_on_c, 0, 59, 0
1, 53640, Note_on_c, 0, 67, 0
1, 53640, Note_on_c, 0, 74, 0
1, 53640, Note_on_c, 0, 62, 0
1, 53640, Note_on_c, 0, 55, 0
1, 53640, Note_on_c, 0, 47, 0
1, 53760, Tempo, 483871
1, 53760, Note_on_c, 0, 64, 68
1, 53760, Note_on_c, 0, 67, 68
1, 53760, Note_on_c, 0, 72, 68
1, 53760, Note_on_c, 0, 76, 75
1, 53760, Note_on_c, 0, 48, 53
1, 53760, Note_on_c, 0, 55, 53
1, 53760, Note_on_c, 0, 60, 60
1, 53880, Note_on_c, 0, 60, 0
1, 53880, Note_on_c, 0, 48, 0
1, 53880, Note_on_c, 0, 67, 0
1, 53880, Note_on_c, 0, 72, 0
1, 53880, Note_on_c, 0, 64, 0
1, 53880, Note_on_c, 0, 55, 0
1, 53880, Note_on_c, 0, 76, 0
1, 54000, Tempo, 497925
1, 54000, Note_on_c, 0, 67, 66
1, 54000, Note_on_c, 0, 72, 66
1, 54000, Note_on_c, 0, 79, 73
1, 54000, Note_on_c, 0, 52, 51
1, 54000, Note_on_c, 0, 60, 51
1, 54000, Note_on_c, 0, 64, 58
1, 54120, Note_on_c, 0, 64, 0
1, 54120, Note_on_c, 0, 72, 0
1, 54120, Note_on_c, 0, 79, 0
1, 54120, Note_on_c, 0, 67, 0
1, 54120, Note_on_c, 0, 60, 0
1, 54120, Note_on_c, 0, 52, 0
1, 54240, Tempo, 429123
1, 54240, Note_on_c, 0, 67, 69
1, 54240, Note_on_c, 0, 71, 69
1, 54240, Note_on_c, 0, 74, 78
1, 54240, Note_on_c, 0, 62, 61
1, 54240, Note_on_c, 0, 59, 55
1, 54240, Note_on_c, 0, 55, 55
1, 54353, Control_c, 0, 64, 127
1, 55200, Tempo, 399973
1, 55200, Note_on_c, 0, 55, 0
1, 55200, Note_on_c, 0, 71, 0
1, 55200, Note_on_c, 0, 74, 0
1, 55200, Note_on_c, 0, 67, 0
1, 55200, Note_on_c, 0, 59, 0
1, 55200, Note_on_c, 0, 62, 0
1, 55200, Note_on_c, 0, 68, 64
1, 55200, Note_on_c, 0, 71, 64
1, 55200, Note_on_c, 0, 76, 81
1, 55200, Note_on_c, 0, 52, 58
1, 55200, Note_on_c, 0, 64, 58
1, 55200, Note_on_c, 0, 59, 58
1, 55207, Control_c, 0, 64, 0
1, 55280, Tempo, 401499
1, 55320, Tempo, 403036
1, 55320, Note_on_c, 0, 76, 0
1, 55320, Note_on_c, 0, 74, 71
1, 55400, Tempo, 404558
1, 55440, Tempo, 406119
1, 55440, Note_on_c, 0, 74, 0
1, 55440, Note_on_c, 0, 59, 0
1, 55440, Note_on_c, 0, 52, 0
1, 55440, Note_on_c, 0, 68, 0
1, 55440, Note_on_c, 0, 71, 0
1, 55440, Note_on_c, 0, 64, 0
1, 55440, Note_on_c, 0, 72, 66
1, 55480, Tempo, 407664
1, 55560, Tempo, 409249
1, 55560, Note_on_c, 0, 72, 0
1, 55560, Note_on_c, 0, 71, 59
1, 55600, Tempo, 410846
1, 55640, Tempo, 412428
1, 55680, Tempo, 410846
1, 55680, Note_on_c, 0, 71, 0
1, 55680, Note_on_c, 0, 72, 55
1, 55680, Note_on_c, 0, 69, 46
1, 55680, Note_on_c, 0, 63, 46
1, 55800, Note_on_c, 0, 63, 0
1, 55800, Note_on_c, 0, 69, 0
1, 55800, Note_on_c, 0, 72, 0
1, 55890, Note_on_c, 0, 83, 55
1, 55920, Note_on_c, 0, 83, 0
1, 55920, Note_on_c, 0, 78, 59
1, 55920, Note_on_c, 0, 84, 59
1, 55920, Note_on_c, 0, 57, 49
1, 56040, Note_on_c, 0, 57, 0
1, 56040, Note_on_c, 0, 84, 0
1, 56040, Note_on_c, 0, 78, 0
1, 56160, Note_on_c, 0, 72, 57
1, 56160, Note_on_c, 0, 69, 48
1, 56160, Note_on_c, 0, 63, 48
1, 56280, Note_on_c, 0, 63, 0
1, 56280, Note_on_c, 0, 69, 0
1, 56280, Note_on_c, 0, 72, 0
1, 56370, Note_on_c, 0, 83, 55
1, 56400, Note_on_c, 0, 83, 0
1, 56400, Note_on_c, 0, 84, 58
1, 56400, Note_on_c, 0, 78, 58
1, 56400, Note_on_c, 0, 57, 49
1, 56520, Note_on_c, 0, 57, 0
1, 56520, Note_on_c, 0, 78, 0
1, 56520, Note_on_c, 0, 84, 0
1, 56640, Note_on_c, 0, 72, 55
1, 56640, Note_on_c, 0, 69, 46
1, 56640, Note_on_c, 0, 63, 46
1, 56760, Note_on_c, 0, 63, 0
1, 56760, Note_on_c, 0, 69, 0
1, 56760, Note_on_c, 0, 72, 0
1, 56850, Note_on_c, 0, 83, 55
1, 56880, Note_on_c, 0, 83, 0
1, 56880, Note_on_c, 0, 84, 59
1, 56880, Note_on_c, 0, 78, 59
1, 56880, Note_on_c, 0, 57, 49
1, 57000, Note_on_c, 0, 57, 0
1, 57000, Note_on_c, 0, 78, 0
1, 57000, Note_on_c, 0, 84, 0
1, 57120, Tempo, 399973
1, 57120, Note_on_c, 0, 68, 64
1, 57120, Note_on_c, 0, 71, 64
1, 57120, Note_on_c, 0, 76, 81
1, 57120, Note_on_c, 0, 52, 58
1, 57120, Note_on_c, 0, 64, 58
1, 57120, Note_on_c, 0, 59, 58
1, 57200, Tempo, 401499
1, 57240, Tempo, 403036
1, 57240, Note_on_c, 0, 76, 0
1, 57240, Note_on_c, 0, 74, 71
1, 57320, Tempo, 404558
1, 57360, Tempo, 406119
1, 57360, Note_on_c, 0, 74, 0
1, 57360, Note_on_c, 0, 59, 0
1, 57360, Note_on_c, 0, 52, 0
1, 57360, Note_on_c, 0, 68, 0
1, 57360, Note_on_c, 0, 71, 0
1, 57360, Note_on_c, 0, 64, 0
1, 57360, Note_on_c, 0, 72, 66
1, 57400, Tempo, 407664
1, 57480, Tempo, 409249
1, 57480, Note_on_c, 0, 72, 0
1, 57480, Note_on_c, 0, 71, 59
1, 57520, Tempo, 410846
1, 57560, Tempo, 412428
1, 57600, Tempo, 410846
1, 57600, Note_on_c, 0, 71, 0
1, 57600, Note_on_c, 0, 72, 55
1, 57600, Note_on_c, 0, 69, 46
1, 57600, Note_on_c, 0, 63, 46
1, 57720, Note_on_c, 0, 63, 0
1, 57720, Note_on_c, 0, 69, 0
1, 57720, Note_on_c, 0, 72, 0
1, 57810, Note_on_c, 0, 83, 55
1, 57840, Note_on_c, 0, 83, 0
1, 57840, Note_on_c, 0, 78, 59
1, 57840, Note_on_c, 0, 84, 59
1, 57840, Note_on_c, 0, 57, 49
1, 57960, Note_on_c, 0, 57, 0
1, 57960, Note_on_c, 0, 84, 0
1, 57960, Note_on_c, 0, 78, 0
1, 58080, Note_on_c, 0, 72, 57
1, 58080, Note_on_c, 0, 69, 48
1, 58080, Note_on_c, 0, 63, 48
1, 58200, Note_on_c, 0, 63, 0
1, 58200, Note_on_c, 0, 69, 0
1, 58200, Note_on_c, 0, 72, 0
1, 58290, Note_on_c, 0, 83, 55
1, 58320, Note_on_c, 0, 83, 0
1, 58320, Note_on_c, 0, 84, 58
1, 58320, Note_on_c, 0, 78, 58
1, 58320, Note_on_c, 0, 57, 49
1, 58440, Note_on_c, 0, 57, 0
1, 58440, Note_on_c, 0, 78, 0
1, 58440, Note_on_c, 0, 84, 0
1, 58560, Note_on_c, 0, 72, 55
1, 58560, Note_on_c, 0, 69, 46
1, 58560, Note_on_c, 0, 63, 46
1, 58680, Note_on_c, 0, 63, 0
1, 58680, Note_on_c, 0, 69, 0
1, 58680, Note_on_c, 0, 72, 0
1, 58770, Note_on_c, 0, 83, 55
1, 58800, Note_on_c, 0, 83, 0
1, 58800, Note_on_c, 0, 84, 59
1, 58800, Note_on_c, 0, 78, 59
1, 58800, Note_on_c, 0, 57, 49
1, 58920, Note_on_c, 0, 57, 0
1, 58920, Note_on_c, 0, 78, 0
1, 58920, Note_on_c, 0, 84, 0
1, 59040, Tempo, 399973
1, 59040, Note_on_c, 0, 68, 64
1, 59040, Note_on_c, 0, 71, 64
1, 59040, Note_on_c, 0, 76, 81
1, 59040, Note_on_c, 0, 52, 58
1, 59040, Note_on_c, 0, 64, 58
1, 59040, Note_on_c, 0, 59, 58
1, 59120, Tempo, 401499
1, 59160, Tempo, 403036
1, 59160, Note_on_c, 0, 76, 0
1, 59160, Note_on_c, 0, 74, 71
1, 59240, Tempo, 404558
1, 59280, Tempo, 406119
1, 59280, Note_on_c, 0, 74, 0
1, 59280, Note_on_c, 0, 59, 0
1, 59280, Note_on_c, 0, 52, 0
1, 59280, Note_on_c, 0, 68, 0
1, 59280, Note_on_c, 0, 71, 0
1, 59280, Note_on_c, 0, 64, 0
1, 59280, Note_on_c, 0, 72, 66
1, 59320, Tempo, 407664
1, 59400, Tempo, 379915
1, 59400, Note_on_c, 0, 72, 0
1, 59400, Note_on_c, 0, 71, 59
1, 59520, Tempo, 628272
1, 59520, Note_on_c, 0, 71, 0
1, 59520, Note_on_c, 0, 45, 42
1, 59550, Note_on_c, 0, 52, 47
1, 59580, Note_on_c, 0, 57, 52
1, 59610, Note_on_c, 0, 60, 62
1, 59626, Control_c, 0, 64, 127
1, 59640, Note_on_c, 0, 64, 67
1, 59670, Note_on_c, 0, 69, 69
1, 59700, Tempo, 515021
1, 59700, Note_on_c, 0, 72, 73
1, 60000, Note_on_c, 0, 69, 0
1, 60000, Note_on_c, 0, 60, 0
1, 60000, Note_on_c, 0, 52, 0
1, 60000, Note_on_c, 0, 57, 0
1, 60000, Note_on_c, 0, 45, 0
1, 60000, Note_on_c, 0, 64, 0
1, 60240, Tempo, 463320
1, 60240, Note_on_c, 0, 72, 0
1, 60240, Note_on_c, 0, 72, 62
1, 60480, Tempo, 476190
1, 60480, Note_on_c, 0, 72, 0
1, 60480, Note_on_c, 0, 60, 60
1, 60480, Note_on_c, 0, 66, 60
1, 60480, Note_on_c, 0, 72, 68
1, 60480, Note_on_c, 0, 50, 48
1, 60480, Note_on_c, 0, 57, 53
1, 60489, Control_c, 0, 64, 0
1, 60579, Control_c, 0, 64, 127
1, 60840, Note_on_c, 0, 72, 0
1, 60840, Note_on_c, 0, 71, 62
1, 60900, Note_on_c, 0, 71, 0
1, 60900, Note_on_c, 0, 69, 62
1, 60914, Control_c, 0, 64, 0
1, 60960, Tempo, 458015
1, 60960, Note_on_c, 0, 69, 0
1, 60960, Note_on_c, 0, 50, 0
1, 60960, Note_on_c, 0, 60, 0
1, 60960, Note_on_c, 0, 66, 0
1, 60960, Note_on_c, 0, 57, 0
1, 60960, Note_on_c, 0, 62, 63
1, 60960, Note_on_c, 0, 67, 71
1, 60960, Note_on_c, 0, 43, 50
1, 60960, Note_on_c, 0, 50, 50
1, 60960, Note_on_c, 0, 59, 57
1, 61080, Note_on_c, 0, 59, 0
1, 61080, Note_on_c, 0, 43, 0
1, 61080, Note_on_c, 0, 62, 0
1, 61080, Note_on_c, 0, 67, 0
1, 61080, Note_on_c, 0, 50, 0
1, 61200, Tempo, 470588
1, 61200, Note_on_c, 0, 62, 62
1, 61200, Note_on_c, 0, 67, 62
1, 61200, Note_on_c, 0, 74, 70
1, 61200, Note_on_c, 0, 47, 49
1, 61200, Note_on_c, 0, 55, 49
1, 61200, Note_on_c, 0, 59, 56
1, 61320, Note_on_c, 0, 59, 0
1, 61320, Note_on_c, 0, 67, 0
1, 61320, Note_on_c, 0, 74, 0
1, 61320, Note_on_c, 0, 62, 0
1, 61320, Note_on_c, 0, 55, 0
1, 61320, Note_on_c, 0, 47, 0
1, 61440, Tempo, 483871
1, 61440, Note_on_c, 0, 64, 68
1, 61440, Note_on_c, 0, 67, 68
1, 61440, Note_on_c, 0, 72, 68
1, 61440, Note_on_c, 0, 76, 75
1, 61440, Note_on_c, 0, 48, 53
1, 61440, Note_on_c, 0, 55, 53
1, 61440, Note_on_c, 0, 60, 60
1, 61560, Note_on_c, 0, 60, 0
1, 61560, Note_on_c, 0, 48, 0
1, 61560, Note_on_c, 0, 67, 0
1, 61560, Note_on_c, 0, 72, 0
1, 61560, Note_on_c, 0, 64, 0
1, 61560, Note_on_c, 0, 55, 0
1, 61560, Note_on_c, 0, 76, 0
1, 61680, Tempo, 497925
1, 61680, Note_on_c, 0, 67, 66
1, 61680, Note_on_c, 0, 72, 66
1, 61680, Note_on_c, 0, 79, 73
1, 61680, Note_on_c, 0, 52, 51
1, 61680, Note_on_c, 0, 60, 51
1, 61680, Note_on_c, 0, 64, 58
1, 61800, Note_on_c, 0, 64, 0
1, 61800, Note_on_c, 0, 72, 0
1, 61800, Note_on_c, 0, 79, 0
1, 61800, Note_on_c, 0, 67, 0
1, 61800, Note_on_c, 0, 60, 0
1, 61800, Note_on_c, 0, 52, 0
1, 61920, Tempo, 429123
1, 61920, Note_on_c, 0, 67, 69
1, 61920, Note_on_c, 0, 71, 69
1, 61920, Note_on_c, 0, 74, 78
1, 61920, Note_on_c, 0, 62, 61
1, 61920, Note_on_c, 0, 59, 55
1, 61920, Note_on_c, 0, 55, 55
1, 62880, Tempo, 399973
1, 62880, Note_on_c, 0, 55, 0
1, 62880, Note_on_c, 0, 71, 0
1, 62880, Note_on_c, 0, 74, 0
1, 62880, Note_on_c, 0, 67, 0
1, 62880, Note_on_c, 0, 59, 0
1, 62880, Note_on_c, 0, 62, 0
1, 62880, Note_on_c, 0, 71, 64
1, 62880, Note_on_c, 0, 76, 81
1, 62880, Note_on_c, 0, 59, 58
1, 62880, Note_on_c, 0, 55, 58
1, 62880, Note_on_c, 0, 64, 58
1, 62880, Note_on_c, 0, 61, 58
1, 62960, Tempo, 401499
1, 63000, Tempo, 403036
1, 63000, Note_on_c, 0, 76, 0
1, 63000, Note_on_c, 0, 74, 71
1, 63080, Tempo, 404558
1, 63120, Tempo, 406119
1, 63120, Note_on_c, 0, 74, 0
1, 63120, Note_on_c, 0, 61, 0
1, 63120, Note_on_c, 0, 55, 0
1, 63120, Note_on_c, 0, 71, 0
1, 63120, Note_on_c, 0, 59, 0
1, 63120, Note_on_c, 0, 64, 0
1, 63120, Note_on_c, 0, 73, 66
1, 63160, Tempo, 407664
1, 63240, Tempo, 409249
1, 63240, Note_on_c, 0, 73, 0
1, 63240, Note_on_c, 0, 71, 59
1, 63280, Tempo, 410846
1, 63320, Tempo, 412428
1, 63360, Tempo, 410846
1, 63360, Note_on_c, 0, 71, 0
1, 63360, Note_on_c, 0, 62, 46
1, 63360, Note_on_c, 0, 66, 46
1, 63360, Note_on_c, 0, 59, 46
1, 63480, Note_on_c, 0, 59, 0
1, 63480, Note_on_c, 0, 66, 0
1, 63480, Note_on_c, 0, 62, 0
1, 63570, Note_on_c, 0, 79, 55
1, 63600, Note_on_c, 0, 79, 0
1, 63600, Note_on_c, 0, 74, 59
1, 63600, Note_on_c, 0, 71, 59
1, 63600, Note_on_c, 0, 78, 59
1, 63600, Note_on_c, 0, 54, 49
1, 63720, Note_on_c, 0, 54, 0
1, 63720, Note_on_c, 0, 74, 0
1, 63720, Note_on_c, 0, 71, 0
1, 63720, Note_on_c, 0, 78, 0
1, 63840, Note_on_c, 0, 62, 48
1, 63840, Note_on_c, 0, 66, 48
1, 63840, Note_on_c, 0, 59, 48
1, 63960, Note_on_c, 0, 59, 0
1, 63960, Note_on_c, 0, 66, 0
1, 63960, Note_on_c, 0, 62, 0
1, 64050, Note_on_c, 0, 79, 55
1, 64080, Note_on_c, 0, 79, 0
1, 64080, Note_on_c, 0, 74, 58
1, 64080, Note_on_c, 0, 78, 58
1, 64080, Note_on_c, 0, 71, 58
1, 64080, Note_on_c, 0, 54, 49
1, 64200, Note_on_c, 0, 54, 0
1, 64200, Note_on_c, 0, 74, 0
1, 64200, Note_on_c, 0, 78, 0
1, 64200, Note_on_c, 0, 71, 0
1, 64320, Note_on_c, 0, 62, 46
1, 64320, Note_on_c, 0, 66, 46
1, 64320, Note_on_c, 0, 59, 46
1, 64440, Note_on_c, 0, 59, 0
1, 64440, Note_on_c, 0, 66, 0
1, 64440, Note_on_c, 0, 62, 0
1, 64530, Note_on_c, 0, 79, 55
1, 64560, Note_on_c, 0, 79, 0
1, 64560, Note_on_c, 0, 74, 59
1, 64560, Note_on_c, 0, 78, 59
1, 64560, Note_on_c, 0, 71, 59
1, 64560, Note_on_c, 0, 54, 49
1, 64680, Note_on_c, 0, 54, 0
1, 64680, Note_on_c, 0, 74, 0
1, 64680, Note_on_c, 0, 78, 0
1, 64680, Note_on_c, 0, 71, 0
1, 64800, Tempo, 399973
1, 64800, Note_on_c, 0, 71, 64
1, 64800, Note_on_c, 0, 76, 81
1, 64800, Note_on_c, 0, 59, 58
1, 64800, Note_on_c, 0, 55, 58
1, 64800, Note_on_c, 0, 64, 58
1, 64800, Note_on_c, 0, 61, 58
1, 64880, Tempo, 401499
1, 64920, Tempo, 403036
1, 64920, Note_on_c, 0, 76, 0
1, 64920, Note_on_c, 0, 74, 71
1, 65000, Tempo, 404558
1, 65040, Tempo, 406119
1, 65040, Note_on_c, 0, 74, 0
1, 65040, Note_on_c, 0, 61, 0
1, 65040, Note_on_c, 0, 55, 0
1, 65040, Note_on_c, 0, 71, 0
1, 65040, Note_on_c, 0, 59, 0
1, 65040, Note_on_c, 0, 64, 0
1, 65040, Note_on_c, 0, 73, 66
1, 65080, Tempo, 407664
1, 65160, Tempo, 409249
1, 65160, Note_on_c, 0, 73, 0
1, 65160, Note_on_c, 0, 71, 59
1, 65200, Tempo, 410846
1, 65240, Tempo, 412428
1, 65280, Tempo, 410846
1, 65280, Note_on_c, 0, 71, 0
1, 65280, Note_on_c, 0, 62, 46
1, 65280, Note_on_c, 0, 66, 46
1, 65280, Note_on_c, 0, 59, 46
1, 65400, Note_on_c, 0, 59, 0
1, 65400, Note_on_c, 0, 66, 0
1, 65400, Note_on_c, 0, 62, 0
1, 65490, Note_on_c, 0, 79, 55
1, 65520, Note_on_c, 0, 79, 0
1, 65520, Note_on_c, 0, 74, 59
1, 65520, Note_on_c, 0, 71, 59
1, 65520, Note_on_c, 0, 78, 59
1, 65520, Note_on_c, 0, 54, 49
1, 65640, Note_on_c, 0, 54, 0
1, 65640, Note_on_c, 0, 74, 0
1, 65640, Note_on_c, 0, 71, 0
1, 65640, Note_on_c, 0, 78, 0
1, 65760, Note_on_c, 0, 62, 48
1, 65760, Note_on_c, 0, 66, 48
1, 65760, Note_on_c, 0, 59, 48
1, 65880, Note_on_c, 0, 59, 0
1, 65880, Note_on_c, 0, 66, 0
1, 65880, Note_on_c, 0, 62, 0
1, 65970, Note_on_c, 0, 79, 55
1, 66000, Note_on_c, 0, 79, 0
1, 66000, Note_on_c, 0, 74, 58
1, 66000, Note_on_c, 0, 78, 58
1, 66000, Note_on_c, 0, 71, 58
1, 66000, Note_on_c, 0, 54, 49
1, 66120, Note_on_c, 0, 54, 0
1, 66120, Note_on_c, 0, 74, 0
1, 66120, Note_on_c, 0, 78, 0
1, 66120, Note_on_c, 0, 71, 0
1, 66240, Note_on_c, 0, 62, 46
1, 66240, Note_on_c, 0, 66, 46
1, 66240, Note_on_c, 0, 59, 46
1, 66360, Note_on_c, 0, 59, 0
1, 66360, Note_on_c, 0, 66, 0
1, 66360, Note_on_c, 0, 62, 0
1, 66450, Note_on_c, 0, 79, 55
1, 66480, Note_on_c, 0, 79, 0
1, 66480, Note_on_c, 0, 74, 59
1, 66480, Note_on_c, 0, 78, 59
1, 66480, Note_on_c, 0, 71, 59
1, 66480, Note_on_c, 0, 54, 49
1, 66600, Note_on_c, 0, 54, 0
1, 66600, Note_on_c, 0, 74, 0
1, 66600, Note_on_c, 0, 78, 0
1, 66600, Note_on_c, 0, 71, 0
1, 66720, Tempo, 399973
1, 66720, Note_on_c, 0, 71, 64
1, 66720, Note_on_c, 0, 76, 81
1, 66720, Note_on_c, 0, 59, 58
1, 66720, Note_on_c, 0, 55, 58
1, 66720, Note_on_c, 0, 64, 58
1, 66720, Note_on_c, 0, 61, 58
1, 66800, Tempo, 401499
1, 66840, Tempo, 403036
1, 66840, Note_on_c, 0, 76, 0
1, 66840, Note_on_c, 0, 74, 71
1, 66920, Tempo, 404558
1, 66960, Tempo, 406119
1, 66960, Note_on_c, 0, 74, 0
1, 66960, Note_on_c, 0, 61, 0
1, 66960, Note_on_c, 0, 55, 0
1, 66960, Note_on_c, 0, 71, 0
1, 66960, Note_on_c, 0, 59, 0
1, 66960, Note_on_c, 0, 64, 0
1, 66960, Note_on_c, 0, 73, 66
1, 67000, Tempo, 407664
1, 67080, Tempo, 409249
1, 67080, Note_on_c, 0, 73, 0
1, 67080, Note_on_c, 0, 71, 59
1, 67120, Tempo, 410846
1, 67160, Tempo, 412428
1, 67200, Tempo, 410846
1, 67200, Note_on_c, 0, 71, 0
1, 67200, Note_on_c, 0, 54, 46
1, 67200, Note_on_c, 0, 57, 46
1, 67200, Note_on_c, 0, 50, 46
1, 67320, Note_on_c, 0, 50, 0
1, 67320, Note_on_c, 0, 57, 0
1, 67320, Note_on_c, 0, 54, 0
1, 67410, Note_on_c, 0, 71, 55
1, 67440, Note_on_c, 0, 71, 0
1, 67440, Note_on_c, 0, 66, 59
1, 67440, Note_on_c, 0, 62, 59
1, 67440, Note_on_c, 0, 69, 59
1, 67440, Note_on_c, 0, 45, 49
1, 67560, Note_on_c, 0, 45, 0
1, 67560, Note_on_c, 0, 66, 0
1, 67560, Note_on_c, 0, 62, 0
1, 67560, Note_on_c, 0, 69, 0
1, 67680, Note_on_c, 0, 54, 48
1, 67680, Note_on_c, 0, 57, 48
1, 67680, Note_on_c, 0, 50, 48
1, 67800, Note_on_c, 0, 50, 0
1, 67800, Note_on_c, 0, 57, 0
1, 67800, Note_on_c, 0, 54, 0
1, 67890, Note_on_c, 0, 71, 55
1, 67920, Note_on_c, 0, 71, 0
1, 67920, Note_on_c, 0, 66, 58
1, 67920, Note_on_c, 0, 69, 58
1, 67920, Note_on_c, 0, 62, 58
1, 67920, Note_on_c, 0, 45, 49
1, 68040, Note_on_c, 0, 45, 0
1, 68040, Note_on_c, 0, 66, 0
1, 68040, Note_on_c, 0, 69, 0
1, 68040, Note_on_c, 0, 62, 0
1, 68160, Note_on_c, 0, 54, 46
1, 68160, Note_on_c, 0, 57, 46
1, 68160, Note_on_c, 0, 51, 46
1, 68280, Note_on_c, 0, 51, 0
1, 68280, Note_on_c, 0, 57, 0
1, 68280, Note_on_c, 0, 54, 0
1, 68370, Note_on_c, 0, 71, 55
1, 68400, Note_on_c, 0, 71, 0
1, 68400, Note_on_c, 0, 66, 59
1, 68400, Note_on_c, 0, 69, 59
1, 68400, Note_on_c, 0, 60, 59
1, 68400, Note_on_c, 0, 45, 49
1, 68520, Note_on_c, 0, 45, 0
1, 68520, Note_on_c, 0, 66, 0
1, 68520, Note_on_c, 0, 69, 0
1, 68520, Note_on_c, 0, 60, 0
1, 68640, Tempo, 399973
1, 68640, Note_on_c, 0, 61, 64
1, 68640, Note_on_c, 0, 69, 81
1, 68640, Note_on_c, 0, 52, 58
1, 68640, Note_on_c, 0, 57, 58
1, 68640, Note_on_c, 0, 55, 58
1, 68720, Tempo, 401499
1, 68760, Tempo, 403036
1, 68760, Note_on_c, 0, 67, 71
1, 68772, Note_on_c, 0, 69, 0
1, 68840, Tempo, 404558
1, 68880, Tempo, 406119
1, 68880, Note_on_c, 0, 55, 0
1, 68880, Note_on_c, 0, 57, 0
1, 68880, Note_on_c, 0, 61, 0
1, 68880, Note_on_c, 0, 52, 0
1, 68880, Note_on_c, 0, 66, 66
1, 68892, Note_on_c, 0, 67, 0
1, 68920, Tempo, 407664
1, 69000, Tempo, 409249
1, 69000, Note_on_c, 0, 64, 59
1, 69012, Note_on_c, 0, 66, 0
1, 69040, Tempo, 410846
1, 69080, Tempo, 412428
1, 69120, Tempo, 398486
1, 69120, Note_on_c, 0, 62, 80
1, 69132, Note_on_c, 0, 64, 0
1, 69200, Tempo, 399973
1, 69240, Tempo, 401499
1, 69240, Note_on_c, 0, 61, 68
1, 69252, Note_on_c, 0, 62, 0
1, 69320, Tempo, 403036
1, 69360, Tempo, 404558
1, 69360, Note_on_c, 0, 59, 66
1, 69372, Note_on_c, 0, 61, 0
1, 69400, Tempo, 406119
1, 69480, Tempo, 407664
1, 69480, Note_on_c, 0, 57, 70
1, 69492, Note_on_c, 0, 59, 0
1, 69520, Tempo, 409249
1, 69560, Tempo, 398486
1, 69600, Note_on_c, 0, 55, 78
1, 69612, Note_on_c, 0, 57, 0
1, 69640, Tempo, 399973
1, 69720, Tempo, 401499
1, 69720, Note_on_c, 0, 54, 66
1, 69732, Note_on_c, 0, 55, 0
1, 69760, Tempo, 403036
1, 69840, Tempo, 404558
1, 69840, Note_on_c, 0, 52, 66
1, 69852, Note_on_c, 0, 54, 0
1, 69920, Tempo, 406119
1, 69960, Tempo, 407664
1, 69960, Note_on_c, 0, 50, 64
1, 69972, Note_on_c, 0, 52, 0
1, 70078, Note_on_c, 0, 50, 0
1, 70080, Tempo, 404558
1, 70080, Note_on_c, 0, 50, 73
1, 70120, Tempo, 406119
1, 70160, Tempo, 407664
1, 70200, Tempo, 409249
1, 70200, Note_on_c, 0, 49, 64
1, 70212, Note_on_c, 0, 50, 0
1, 70240, Tempo, 412428
1, 70280, Tempo, 414050
1, 70320, Tempo, 415656
1, 70320, Note_on_c, 0, 47, 63
1, 70332, Note_on_c, 0, 49, 0
1, 70360, Tempo, 418965
1, 70400, Tempo, 420610
1, 70440, Tempo, 422297
1, 70440, Note_on_c, 0, 45, 61
1, 70452, Note_on_c, 0, 47, 0
1, 70480, Tempo, 425683
1, 70520, Tempo, 417304
1, 70560, Note_on_c, 0, 43, 69
1, 70572, Note_on_c, 0, 45, 0
1, 70600, Tempo, 418965
1, 70680, Tempo, 420610
1, 70680, Note_on_c, 0, 42, 62
1, 70692, Note_on_c, 0, 43, 0
1, 70720, Tempo, 422297
1, 70800, Tempo, 423968
1, 70800, Note_on_c, 0, 40, 60
1, 70812, Note_on_c, 0, 42, 0
1, 70840, Tempo, 425683
1, 70920, Tempo, 427411
1, 70920, Note_on_c, 0, 38, 58
1, 70932, Note_on_c, 0, 40, 0
1, 70960, Tempo, 429123
1, 71040, Tempo, 606061
1, 71040, Note_on_c, 0, 38, 0
1, 71040, Note_on_c, 0, 45, 42
1, 71070, Note_on_c, 0, 52, 47
1, 71100, Note_on_c, 0, 57, 52
1, 71130, Note_on_c, 0, 60, 62
1, 71146, Control_c, 0, 64, 127
1, 71160, Note_on_c, 0, 64, 67
1, 71190, Note_on_c, 0, 69, 69
1, 71220, Tempo, 506329
1, 71220, Note_on_c, 0, 72, 73
1, 71520, Note_on_c, 0, 69, 0
1, 71520, Note_on_c, 0, 60, 0
1, 71520, Note_on_c, 0, 52, 0
1, 71520, Note_on_c, 0, 57, 0
1, 71520, Note_on_c, 0, 45, 0
1, 71520, Note_on_c, 0, 64, 0
1, 71760, Tempo, 465116
1, 71760, Note_on_c, 0, 72, 0
1, 71760, Note_on_c, 0, 72, 62
1, 72000, Tempo, 474308
1, 72000, Note_on_c, 0, 72, 0
1, 72000, Note_on_c, 0, 60, 60
1, 72000, Note_on_c, 0, 66, 60
1, 72000, Note_on_c, 0, 72, 68
1, 72000, Note_on_c, 0, 50, 48
1, 72000, Note_on_c, 0, 57, 53
1, 72007, Control_c, 0, 64, 0
1, 72074, Control_c, 0, 64, 127
1, 72360, Note_on_c, 0, 72, 0
1, 72360, Note_on_c, 0, 71, 62
1, 72420, Note_on_c, 0, 71, 0
1, 72420, Note_on_c, 0, 69, 62
1, 72434, Control_c, 0, 64, 0
1, 72480, Tempo, 461538
1, 72480, Note_on_c, 0, 69, 0
1, 72480, Note_on_c, 0, 50, 0
1, 72480, Note_on_c, 0, 60, 0
1, 72480, Note_on_c, 0, 66, 0
1, 72480, Note_on_c, 0, 57, 0
1, 72480, Note_on_c, 0, 62, 63
1, 72480, Note_on_c, 0, 67, 71
1, 72480, Note_on_c, 0, 43, 50
1, 72480, Note_on_c, 0, 50, 50
1, 72480, Note_on_c, 0, 59, 57
1, 72600, Note_on_c, 0, 59, 0
1, 72600, Note_on_c, 0, 43, 0
1, 72600, Note_on_c, 0, 62, 0
1, 72600, Note_on_c, 0, 67, 0
1, 72600, Note_on_c, 0, 50, 0
1, 72720, Tempo, 472441
1, 72720, Note_on_c, 0, 62, 62
1, 72720, Note_on_c, 0, 67, 62
1, 72720, Note_on_c, 0, 74, 70
1, 72720, Note_on_c, 0, 47, 49
1, 72720, Note_on_c, 0, 55, 49
1, 72720, Note_on_c, 0, 59, 56
1, 72840, Note_on_c, 0, 59, 0
1, 72840, Note_on_c, 0, 67, 0
1, 72840, Note_on_c, 0, 74, 0
1, 72840, Note_on_c, 0, 62, 0
1, 72840, Note_on_c, 0, 55, 0
1, 72840, Note_on_c, 0, 47, 0
1, 72960, Tempo, 483871
1, 72960, Note_on_c, 0, 64, 68
1, 72960, Note_on_c, 0, 67, 68
1, 72960, Note_on_c, 0, 72, 68
1, 72960, Note_on_c, 0, 76, 75
1, 72960, Note_on_c, 0, 48, 53
1, 72960, Note_on_c, 0, 55, 53
1, 72960, Note_on_c, 0, 60, 60
1, 73080, Note_on_c, 0, 60, 0
1, 73080, Note_on_c, 0, 48, 0
1, 73080, Note_on_c, 0, 67, 0
1, 73080, Note_on_c, 0, 72, 0
1, 73080, Note_on_c, 0, 64, 0
1, 73080, Note_on_c, 0, 55, 0
1, 73080, Note_on_c, 0, 76, 0
1, 73200, Tempo, 500000
1, 73200, Note_on_c, 0, 67, 66
1, 73200, Note_on_c, 0, 72, 66
1, 73200, Note_on_c, 0, 79, 73
1, 73200, Note_on_c, 0, 52, 51
1, 73200, Note_on_c, 0, 60, 51
1, 73200, Note_on_c, 0, 64, 58
1, 73320, Note_on_c, 0, 64, 0
1, 73320, Note_on_c, 0, 72, 0
1, 73320, Note_on_c, 0, 79, 0
1, 73320, Note_on_c, 0, 67, 0
1, 73320, Note_on_c, 0, 60, 0
1, 73320, Note_on_c, 0, 52, 0
1, 73440, Tempo, 429123
1, 73440, Note_on_c, 0, 67, 69
1, 73440, Note_on_c, 0, 71, 69
1, 73440, Note_on_c, 0, 74, 78
1, 73440, Note_on_c, 0, 62, 61
1, 73440, Note_on_c, 0, 59, 55
1, 73440, Note_on_c, 0, 55, 55
1, 73553, Control_c, 0, 64, 127
1, 74400, Tempo, 399973
1, 74400, Note_on_c, 0, 55, 0
1, 74400, Note_on_c, 0, 71, 0
1, 74400, Note_on_c, 0, 74, 0
1, 74400, Note_on_c, 0, 67, 0
1, 74400, Note_on_c, 0, 59, 0
1, 74400, Note_on_c, 0, 62, 0
1, 74400, Note_on_c, 0, 68, 64
1, 74400, Note_on_c, 0, 71, 64
1, 74400, Note_on_c, 0, 76, 81
1, 74400, Note_on_c, 0, 52, 58
1, 74400, Note_on_c, 0, 64, 58
1, 74400, Note_on_c, 0, 59, 58
1, 74414, Control_c, 0, 64, 0
1, 74480, Tempo, 401499
1, 74520, Tempo, 403036
1, 74520, Note_on_c, 0, 76, 0
1, 74520, Note_on_c, 0, 74, 71
1, 74600, Tempo, 404558
1, 74640, Tempo, 406119
1, 74640, Note_on_c, 0, 74, 0
1, 74640, Note_on_c, 0, 59, 0
1, 74640, Note_on_c, 0, 52, 0
1, 74640, Note_on_c, 0, 68, 0
1, 74640, Note_on_c, 0, 71, 0
1, 74640, Note_on_c, 0, 64, 0
1, 74640, Note_on_c, 0, 72, 66
1, 74680, Tempo, 407664
1, 74760, Tempo, 409249
1, 74760, Note_on_c, 0, 72, 0
1, 74760, Note_on_c, 0, 71, 59
1, 74800, Tempo, 410846
1, 74840, Tempo, 412428
1, 74880, Tempo, 410846
1, 74880, Note_on_c, 0, 71, 0
1, 74880, Note_on_c, 0, 72, 55
1, 74880, Note_on_c, 0, 69, 46
1, 74880, Note_on_c, 0, 63, 46
1, 75000, Note_on_c, 0, 63, 0
1, 75000, Note_on_c, 0, 69, 0
1, 75000, Note_on_c, 0, 72, 0
1, 75090, Note_on_c, 0, 83, 55
1, 75120, Note_on_c, 0, 83, 0
1, 75120, Note_on_c, 0, 78, 59
1, 75120, Note_on_c, 0, 84, 59
1, 75120, Note_on_c, 0, 57, 49
1, 75240, Note_on_c, 0, 57, 0
1, 75240, Note_on_c, 0, 84, 0
1, 75240, Note_on_c, 0, 78, 0
1, 75360, Note_on_c, 0, 72, 57
1, 75360, Note_on_c, 0, 69, 48
1, 75360, Note_on_c, 0, 63, 48
1, 75480, Note_on_c, 0, 63, 0
1, 75480, Note_on_c, 0, 69, 0
1, 75480, Note_on_c, 0, 72, 0
1, 75570, Note_on_c, 0, 83, 55
1, 75600, Note_on_c, 0, 83, 0
1, 75600, Note_on_c, 0, 84, 58
1, 75600, Note_on_c, 0, 78, 58
1, 75600, Note_on_c, 0, 57, 49
1, 75720, Note_on_c, 0, 57, 0
1, 75720, Note_on_c, 0, 78, 0
1, 75720, Note_on_c, 0, 84, 0
1, 75840, Note_on_c, 0, 72, 55
1, 75840, Note_on_c, 0, 69, 46
1, 75840, Note_on_c, 0, 63, 46
1, 75960, Note_on_c, 0, 63, 0
1, 75960, Note_on_c, 0, 69, 0
1, 75960, Note_on_c, 0, 72, 0
1, 76050, Note_on_c, 0, 83, 55
1, 76080, Note_on_c, 0, 83, 0
1, 76080, Note_on_c, 0, 84, 59
1, 76080, Note_on_c, 0, 78, 59
1, 76080, Note_on_c, 0, 57, 49
1, 76200, Note_on_c, 0, 57, 0
1, 76200, Note_on_c, 0, 78, 0
1, 76200, Note_on_c, 0, 84, 0
1, 76320, Tempo, 399973
1, 76320, Note_on_c, 0, 68, 64
1, 76320, Note_on_c, 0, 71, 64
1, 76320, Note_on_c, 0, 76, 81
1, 76320, Note_on_c, 0, 52, 58
1, 76320, Note_on_c, 0, 64, 58
1, 76320, Note_on_c, 0, 59, 58
1, 76400, Tempo, 401499
1, 76440, Tempo, 403036
1, 76440, Note_on_c, 0, 76, 0
1, 76440, Note_on_c, 0, 74, 71
1, 76520, Tempo, 404558
1, 76560, Tempo, 406119
1, 76560, Note_on_c, 0, 74, 0
1, 76560, Note_on_c, 0, 59, 0
1, 76560, Note_on_c, 0, 52, 0
1, 76560, Note_on_c, 0, 68, 0
1, 76560, Note_on_c, 0, 71, 0
1, 76560, Note_on_c, 0, 64, 0
1, 76560, Note_on_c, 0, 72, 66
1, 76600, Tempo, 407664
1, 76680, Tempo, 409249
1, 76680, Note_on_c, 0, 72, 0
1, 76680, Note_on_c, 0, 71, 59
1, 76720, Tempo, 410846
1, 76760, Tempo, 412428
1, 76800, Tempo, 410846
1, 76800, Note_on_c, 0, 71, 0
1, 76800, Note_on_c, 0, 72, 55
1, 76800, Note_on_c, 0, 69, 46
1, 76800, Note_on_c, 0, 63, 46
1, 76920, Note_on_c, 0, 63, 0
1, 76920, Note_on_c, 0, 69, 0
1, 76920, Note_on_c, 0, 72, 0
1, 77010, Note_on_c, 0, 83, 55
1, 77040, Note_on_c, 0, 83, 0
1, 77040, Note_on_c, 0, 78, 59
1, 77040, Note_on_c, 0, 84, 59
1, 77040, Note_on_c, 0, 57, 49
1, 77160, Note_on_c, 0, 57, 0
1, 77160, Note_on_c, 0, 84, 0
1, 77160, Note_on_c, 0, 78, 0
1, 77280, Note_on_c, 0, 72, 57
1, 77280, Note_on_c, 0, 69, 48
1, 77280, Note_on_c, 0, 63, 48
1, 77400, Note_on_c, 0, 63, 0
1, 77400, Note_on_c, 0, 69, 0
1, 77400, Note_on_c, 0, 72, 0
1, 77490, Note_on_c, 0, 83, 55
1, 77520, Note_on_c, 0, 83, 0
1, 77520, Note_on_c, 0, 84, 58
1, 77520, Note_on_c, 0, 78, 58
1, 77520, Note_on_c, 0, 57, 49
1, 77640, Note_on_c, 0, 57, 0
1, 77640, Note_on_c, 0, 78, 0
1, 77640, Note_on_c, 0, 84, 0
1, 77760, Note_on_c, 0, 72, 55
1, 77760, Note_on_c, 0, 69, 46
1, 77760, Note_on_c, 0, 63, 46
1, 77880, Note_on_c, 0, 63, 0
1, 77880, Note_on_c, 0, 69, 0
1, 77880, Note_on_c, 0, 72, 0
1, 77970, Note_on_c, 0, 83, 55
1, 78000, Note_on_c, 0, 83, 0
1, 78000, Note_on_c, 0, 84, 59
1, 78000, Note_on_c, 0, 78, 59
1, 78000, Note_on_c, 0, 57, 49
1, 78120, Note_on_c, 0, 57, 0
1, 78120, Note_on_c, 0, 78, 0
1, 78120, Note_on_c, 0, 84, 0
1, 78240, Tempo, 399973
1, 78240, Note_on_c, 0, 68, 64
1, 78240, Note_on_c, 0, 71, 64
1, 78240, Note_on_c, 0, 76, 81
1, 78240, Note_on_c, 0, 52, 58
1, 78240, Note_on_c, 0, 64, 58
1, 78240, Note_on_c, 0, 59, 58
1, 78320, Tempo, 401499
1, 78360, Tempo, 403036
1, 78360, Note_on_c, 0, 76, 0
1, 78360, Note_on_c, 0, 74, 71
1, 78440, Tempo, 404558
1, 78480, Tempo, 406119
1, 78480, Note_on_c, 0, 74, 0
1, 78480, Note_on_c, 0, 59, 0
1, 78480, Note_on_c, 0, 52, 0
1, 78480, Note_on_c, 0, 68, 0
1, 78480, Note_on_c, 0, 71, 0
1, 78480, Note_on_c, 0, 64, 0
1, 78480, Note_on_c, 0, 72, 66
1, 78520, Tempo, 407664
1, 78600, Tempo, 379915
1, 78600, Note_on_c, 0, 72, 0
1, 78600, Note_on_c, 0, 71, 59
1, 78720, Tempo, 612245
1, 78720, Note_on_c, 0, 71, 0
1, 78720, Note_on_c, 0, 45, 42
1, 78750, Note_on_c, 0, 52, 47
1, 78780, Note_on_c, 0, 57, 52
1, 78810, Note_on_c, 0, 60, 62
1, 78826, Control_c, 0, 64, 127
1, 78840, Note_on_c, 0, 64, 67
1, 78870, Note_on_c, 0, 69, 69
1, 78900, Tempo, 510638
1, 78900, Note_on_c, 0, 72, 73
1, 79200, Note_on_c, 0, 69, 0
1, 79200, Note_on_c, 0, 60, 0
1, 79200, Note_on_c, 0, 52, 0
1, 79200, Note_on_c, 0, 57, 0
1, 79200, Note_on_c, 0, 45, 0
1, 79200, Note_on_c, 0, 64, 0
1, 79440, Tempo, 465116
1, 79440, Note_on_c, 0, 72, 0
1, 79440, Note_on_c, 0, 72, 62
1, 79680, Tempo, 470588
1, 79680, Note_on_c, 0, 72, 0
1, 79680, Note_on_c, 0, 60, 60
1, 79680, Note_on_c, 0, 66, 60
1, 79680, Note_on_c, 0, 72, 68
1, 79680, Note_on_c, 0, 50, 48
1, 79680, Note_on_c, 0, 57, 53
1, 79690, Control_c, 0, 64, 0
1, 79765, Control_c, 0, 64, 127
1, 80040, Note_on_c, 0, 72, 0
1, 80040, Note_on_c, 0, 71, 62
1, 80100, Note_on_c, 0, 71, 0
1, 80100, Note_on_c, 0, 69, 62
1, 80114, Control_c, 0, 64, 0
1, 80160, Tempo, 458015
1, 80160, Note_on_c, 0, 69, 0
1, 80160, Note_on_c, 0, 50, 0
1, 80160, Note_on_c, 0, 60, 0
1, 80160, Note_on_c, 0, 66, 0
1, 80160, Note_on_c, 0, 57, 0
1, 80160, Note_on_c, 0, 62, 63
1, 80160, Note_on_c, 0, 67, 71
1, 80160, Note_on_c, 0, 43, 50
1, 80160, Note_on_c, 0, 50, 50
1, 80160, Note_on_c, 0, 59, 57
1, 80280, Note_on_c, 0, 59, 0
1, 80280, Note_on_c, 0, 43, 0
1, 80280, Note_on_c, 0, 62, 0
1, 80280, Note_on_c, 0, 67, 0
1, 80280, Note_on_c, 0, 50, 0
1, 80400, Tempo, 470588
1, 80400, Note_on_c, 0, 62, 62
1, 80400, Note_on_c, 0, 67, 62
1, 80400, Note_on_c, 0, 74, 70
1, 80400, Note_on_c, 0, 47, 49
1, 80400, Note_on_c, 0, 55, 49
1, 80400, Note_on_c, 0, 59, 56
1, 80520, Note_on_c, 0, 59, 0
1, 80520, Note_on_c, 0, 67, 0
1, 80520, Note_on_c, 0, 74, 0
1, 80520, Note_on_c, 0, 62, 0
1, 80520, Note_on_c, 0, 55, 0
1, 80520, Note_on_c, 0, 47, 0
1, 80640, Tempo, 487805
1, 80640, Note_on_c, 0, 64, 68
1, 80640, Note_on_c, 0, 67, 68
1, 80640, Note_on_c, 0, 72, 68
1, 80640, Note_on_c, 0, 76, 75
1, 80640, Note_on_c, 0, 48, 53
1, 80640, Note_on_c, 0, 55, 53
1, 80640, Note_on_c, 0, 60, 60
1, 80760, Note_on_c, 0, 60, 0
1, 80760, Note_on_c, 0, 48, 0
1, 80760, Note_on_c, 0, 67, 0
1, 80760, Note_on_c, 0, 72, 0
1, 80760, Note_on_c, 0, 64, 0
1, 80760, Note_on_c, 0, 55, 0
1, 80760, Note_on_c, 0, 76, 0
1, 80880, Tempo, 495868
1, 80880, Note_on_c, 0, 67, 66
1, 80880, Note_on_c, 0, 72, 66
1, 80880, Note_on_c, 0, 79, 73
1, 80880, Note_on_c, 0, 52, 51
1, 80880, Note_on_c, 0, 60, 51
1, 80880, Note_on_c, 0, 64, 58
1, 81000, Note_on_c, 0, 64, 0
1, 81000, Note_on_c, 0, 72, 0
1, 81000, Note_on_c, 0, 79, 0
1, 81000, Note_on_c, 0, 67, 0
1, 81000, Note_on_c, 0, 60, 0
1, 81000, Note_on_c, 0, 52, 0
1, 81120, Tempo, 429123
1, 81120, Note_on_c, 0, 67, 69
1, 81120, Note_on_c, 0, 71, 69
1, 81120, Note_on_c, 0, 74, 78
1, 81120, Note_on_c, 0, 62, 61
1, 81120, Note_on_c, 0, 59, 55
1, 81120, Note_on_c, 0, 55, 55
1, 82080, Tempo, 399973
1, 82080, Note_on_c, 0, 55, 0
1, 82080, Note_on_c, 0, 71, 0
1, 82080, Note_on_c, 0, 74, 0
1, 82080, Note_on_c, 0, 67, 0
1, 82080, Note_on_c, 0, 59, 0
1, 82080, Note_on_c, 0, 62, 0
1, 82080, Note_on_c, 0, 71, 64
1, 82080, Note_on_c, 0, 76, 81
1, 82080, Note_on_c, 0, 59, 58
1, 82080, Note_on_c, 0, 55, 58
1, 82080, Note_on_c, 0, 64, 58
1, 82080, Note_on_c, 0, 61, 58
1, 82160, Tempo, 401499
1, 82200, Tempo, 403036
1, 82200, Note_on_c, 0, 76, 0
1, 82200, Note_on_c, 0, 74, 71
1, 82280, Tempo, 404558
1, 82320, Tempo, 406119
1, 82320, Note_on_c, 0, 74, 0
1, 82320, Note_on_c, 0, 61, 0
1, 82320, Note_on_c, 0, 55, 0
1, 82320, Note_on_c, 0, 71, 0
1, 82320, Note_on_c, 0, 59, 0
1, 82320, Note_on_c, 0, 64, 0
1, 82320, Note_on_c, 0, 73, 66
1, 82360, Tempo, 407664
1, 82440, Tempo, 409249
1, 82440, Note_on_c, 0, 73, 0
1, 82440, Note_on_c, 0, 71, 59
1, 82480, Tempo, 410846
1, 82520, Tempo, 412428
1, 82560, Tempo, 410846
1, 82560, Note_on_c, 0, 71, 0
1, 82560, Note_on_c, 0, 62, 46
1, 82560, Note_on_c, 0, 66, 46
1, 82560, Note_on_c, 0, 59, 46
1, 82680, Note_on_c, 0, 59, 0
1, 82680, Note_on_c, 0, 66, 0
1, 82680, Note_on_c, 0, 62, 0
1, 82770, Note_on_c, 0, 79, 55
1, 82800, Note_on_c, 0, 79, 0
1, 82800, Note_on_c, 0, 74, 59
1, 82800, Note_on_c, 0, 71, 59
1, 82800, Note_on_c, 0, 78, 59
1, 82800, Note_on_c, 0, 54, 49
1, 82920, Note_on_c, 0, 54, 0
1, 82920, Note_on_c, 0, 74, 0
1, 82920, Note_on_c, 0, 71, 0
1, 82920, Note_on_c, 0, 78, 0
1, 83040, Note_on_c, 0, 62, 48
1, 83040, Note_on_c, 0, 66, 48
1, 83040, Note_on_c, 0, 59, 48
1, 83160, Note_on_c, 0, 59, 0
1, 83160, Note_on_c, 0, 66, 0
1, 83160, Note_on_c, 0, 62, 0
1, 83250, Note_on_c, 0, 79, 55
1, 83280, Note_on_c, 0, 79, 0
1, 83280, Note_on_c, 0, 74, 58
1, 83280, Note_on_c, 0, 78, 58
1, 83280, Note_on_c, 0, 71, 58
1, 83280, Note_on_c, 0, 54, 49
1, 83400, Note_on_c, 0, 54, 0
1, 83400, Note_on_c, 0, 74, 0
1, 83400, Note_on_c, 0, 78, 0
1, 83400, Note_on_c, 0, 71, 0
1, 83520, Note_on_c, 0, 62, 46
1, 83520, Note_on_c, 0, 66, 46
1, 83520, Note_on_c, 0, 59, 46
1, 83640, Note_on_c, 0, 59, 0
1, 83640, Note_on_c, 0, 66, 0
1, 83640, Note_on_c, 0, 62, 0
1, 83730, Note_on_c, 0, 79, 55
1, 83760, Note_on_c, 0, 79, 0
1, 83760, Note_on_c, 0, 74, 59
1, 83760, Note_on_c, 0, 78, 59
1, 83760, Note_on_c, 0, 71, 59
1, 83760, Note_on_c, 0, 54, 49
1, 83880, Note_on_c, 0, 54, 0
1, 83880, Note_on_c, 0, 74, 0
1, 83880, Note_on_c, 0, 78, 0
1, 83880, Note_on_c, 0, 71, 0
1, 84000, Tempo, 399973
1, 84000, Note_on_c, 0, 71, 64
1, 84000, Note_on_c, 0, 76, 81
1, 84000, Note_on_c, 0, 59, 58
1, 84000, Note_on_c, 0, 55, 58
1, 84000, Note_on_c, 0, 64, 58
1, 84000, Note_on_c, 0, 61, 58
1, 84080, Tempo, 401499
1, 84120, Tempo, 403036
1, 84120, Note_on_c, 0, 76, 0
1, 84120, Note_on_c, 0, 74, 71
1, 84200, Tempo, 404558
1, 84240, Tempo, 406119
1, 84240, Note_on_c, 0, 74, 0
1, 84240, Note_on_c, 0, 61, 0
1, 84240, Note_on_c, 0, 55, 0
1, 84240, Note_on_c, 0, 71, 0
1, 84240, Note_on_c, 0, 59, 0
1, 84240, Note_on_c, 0, 64, 0
1, 84240, Note_on_c, 0, 73, 66
1, 84280, Tempo, 407664
1, 84360, Tempo, 409249
1, 84360, Note_on_c, 0, 73, 0
1, 84360, Note_on_c, 0, 71, 59
1, 84400, Tempo, 410846
1, 84440, Tempo, 412428
1, 84480, Tempo, 410846
1, 84480, Note_on_c, 0, 71, 0
1, 84480, Note_on_c, 0, 62, 46
1, 84480, Note_on_c, 0, 66, 46
1, 84480, Note_on_c, 0, 59, 46
1, 84600, Note_on_c, 0, 59, 0
1, 84600, Note_on_c, 0, 66, 0
1, 84600, Note_on_c, 0, 62, 0
1, 84690, Note_on_c, 0, 79, 55
1, 84720, Note_on_c, 0, 79, 0
1, 84720, Note_on_c, 0, 74, 59
1, 84720, Note_on_c, 0, 71, 59
1, 84720, Note_on_c, 0, 78, 59
1, 84720, Note_on_c, 0, 54, 49
1, 84840, Note_on_c, 0, 54, 0
1, 84840, Note_on_c, 0, 74, 0
1, 84840, Note_on_c, 0, 71, 0
1, 84840, Note_on_c, 0, 78, 0
1, 84960, Note_on_c, 0, 62, 48
1, 84960, Note_on_c, 0, 66, 48
1, 84960, Note_on_c, 0, 59, 48
1, 85080, Note_on_c, 0, 59, 0
1, 85080, Note_on_c, 0, 66, 0
1, 85080, Note_on_c, 0, 62, 0
1, 85170, Note_on_c, 0, 79, 55
1, 85200, Note_on_c, 0, 79, 0
1, 85200, Note_on_c, 0, 74, 58
1, 85200, Note_on_c, 0, 78, 58
1, 85200, Note_on_c, 0, 71, 58
1, 85200, Note_on_c, 0, 54, 49
1, 85320, Note_on_c, 0, 54, 0
1, 85320, Note_on_c, 0, 74, 0
1, 85320, Note_on_c, 0, 78, 0
1, 85320, Note_on_c, 0, 71, 0
1, 85440, Note_on_c, 0, 62, 46
1, 85440, Note_on_c, 0, 66, 46
1, 85440, Note_on_c, 0, 59, 46
1, 85560, Note_on_c, 0, 59, 0
1, 85560, Note_on_c, 0, 66, 0
1, 85560, Note_on_c, 0, 62, 0
1, 85650, Note_on_c, 0, 79, 55
1, 85680, Note_on_c, 0, 79, 0
1, 85680, Note_on_c, 0, 74, 59
1, 85680, Note_on_c, 0, 78, 59
1, 85680, Note_on_c, 0, 71, 59
1, 85680, Note_on_c, 0, 54, 49
1, 85800, Note_on_c, 0, 54, 0
1, 85800, Note_on_c, 0, 74, 0
1, 85800, Note_on_c, 0, 78, 0
1, 85800, Note_on_c, 0, 71, 0
1, 85920, Tempo, 399973
1, 85920, Note_on_c, 0, 71, 64
1, 85920, Note_on_c, 0, 76, 81
1, 85920, Note_on_c, 0, 59, 58
1, 85920, Note_on_c, 0, 55, 58
1, 85920, Note_on_c, 0, 64, 58
1, 85920, Note_on_c, 0, 61, 58
1, 86000, Tempo, 401499
1, 86040, Tempo, 403036
1, 86040, Note_on_c, 0, 76, 0
1, 86040, Note_on_c, 0, 74, 71
1, 86120, Tempo, 404558
1, 86160, Tempo, 406119
1, 86160, Note_on_c, 0, 74, 0
1, 86160, Note_on_c, 0, 61, 0
1, 86160, Note_on_c, 0, 55, 0
1, 86160, Note_on_c, 0, 71, 0
1, 86160, Note_on_c, 0, 59, 0
1, 86160, Note_on_c, 0, 64, 0
1, 86160, Note_on_c, 0, 73, 66
1, 86200, Tempo, 407664
1, 86280, Tempo, 409249
1, 86280, Note_on_c, 0, 73, 0
1, 86280, Note_on_c, 0, 71, 59
1, 86320, Tempo, 410846
1, 86360, Tempo, 412428
1, 86400, Tempo, 410846
1, 86400, Note_on_c, 0, 71, 0
1, 86400, Note_on_c, 0, 63, 46
1, 86400, Note_on_c, 0, 66, 46
1, 86400, Note_on_c, 0, 59, 46
1, 86520, Note_on_c, 0, 59, 0
1, 86520, Note_on_c, 0, 66, 0
1, 86520, Note_on_c, 0, 63, 0
1, 86610, Note_on_c, 0, 80, 55
1, 86640, Note_on_c, 0, 80, 0
1, 86640, Note_on_c, 0, 75, 59
1, 86640, Note_on_c, 0, 71, 59
1, 86640, Note_on_c, 0, 78, 59
1, 86640, Note_on_c, 0, 54, 49
1, 86760, Note_on_c, 0, 54, 0
1, 86760, Note_on_c, 0, 75, 0
1, 86760, Note_on_c, 0, 71, 0
1, 86760, Note_on_c, 0, 78, 0
1, 86880, Note_on_c, 0, 63, 48
1, 86880, Note_on_c, 0, 66, 48
1, 86880, Note_on_c, 0, 59, 48
1, 87000, Note_on_c, 0, 59, 0
1, 87000, Note_on_c, 0, 66, 0
1, 87000, Note_on_c, 0, 63, 0
1, 87090, Note_on_c, 0, 80, 55
1, 87120, Note_on_c, 0, 80, 0
1, 87120, Note_on_c, 0, 75, 58
1, 87120, Note_on_c, 0, 78, 58
1, 87120, Note_on_c, 0, 71, 58
1, 87120, Note_on_c, 0, 54, 49
1, 87240, Note_on_c, 0, 54, 0
1, 87240, Note_on_c, 0, 75, 0
1, 87240, Note_on_c, 0, 78, 0
1, 87240, Note_on_c, 0, 71, 0
1, 87360, Note_on_c, 0, 63, 46
1, 87360, Note_on_c, 0, 66, 46
1, 87360, Note_on_c, 0, 59, 46
1, 87480, Note_on_c, 0, 59, 0
1, 87480, Note_on_c, 0, 66, 0
1, 87480, Note_on_c, 0, 63, 0
1, 87570, Note_on_c, 0, 80, 55
1, 87600, Note_on_c, 0, 80, 0
1, 87600, Note_on_c, 0, 75, 59
1, 87600, Note_on_c, 0, 78, 59
1, 87600, Note_on_c, 0, 71, 59
1, 87600, Note_on_c, 0, 54, 49
1, 87720, Note_on_c, 0, 54, 0
1, 87720, Note_on_c, 0, 75, 0
1, 87720, Note_on_c, 0, 78, 0
1, 87720, Note_on_c, 0, 71, 0
1, 87840, Note_on_c, 0, 59, 46
1, 87840, Note_on_c, 0, 63, 46
1, 87840, Note_on_c, 0, 66, 46
1, 87960, Note_on_c, 0, 66, 0
1, 87960, Note_on_c, 0, 63, 0
1, 87960, Note_on_c, 0, 59, 0
1, 88050, Note_on_c, 0, 80, 55
1, 88080, Tempo, 418118
1, 88080, Note_on_c, 0, 80, 0
1, 88080, Note_on_c, 0, 71, 59
1, 88080, Note_on_c, 0, 75, 59
1, 88080, Note_on_c, 0, 78, 59
1, 88080, Note_on_c, 0, 54, 49
1, 88200, Note_on_c, 0, 54, 0
1, 88200, Note_on_c, 0, 71, 0
1, 88200, Note_on_c, 0, 75, 0
1, 88200, Note_on_c, 0, 78, 0
1, 88280, Tempo, 412428
1, 88320, Tempo, 410846
1, 88320, Note_on_c, 0, 69, 46
1, 88320, Note_on_c, 0, 71, 46
1, 88320, Note_on_c, 0, 66, 46
1, 88440, Note_on_c, 0, 66, 0
1, 88440, Note_on_c, 0, 71, 0
1, 88440, Note_on_c, 0, 69, 0
1, 88530, Note_on_c, 0, 85, 55
1, 88560, Note_on_c, 0, 85, 0
1, 88560, Note_on_c, 0, 75, 59
1, 88560, Note_on_c, 0, 78, 59
1, 88560, Note_on_c, 0, 83, 59
1, 88560, Note_on_c, 0, 59, 49
1, 88680, Note_on_c, 0, 59, 0
1, 88680, Note_on_c, 0, 75, 0
1, 88680, Note_on_c, 0, 78, 0
1, 88680, Note_on_c, 0, 83, 0
1, 88800, Note_on_c, 0, 69, 48
1, 88800, Note_on_c, 0, 71, 48
1, 88800, Note_on_c, 0, 66, 48
1, 88920, Note_on_c, 0, 66, 0
1, 88920, Note_on_c, 0, 71, 0
1, 88920, Note_on_c, 0, 69, 0
1, 89010, Note_on_c, 0, 85, 55
1, 89040, Note_on_c, 0, 85, 0
1, 89040, Note_on_c, 0, 75, 58
1, 89040, Note_on_c, 0, 83, 58
1, 89040, Note_on_c, 0, 78, 58
1, 89040, Note_on_c, 0, 59, 49
1, 89160, Note_on_c, 0, 59, 0
1, 89160, Note_on_c, 0, 75, 0
1, 89160, Note_on_c, 0, 83, 0
1, 89160, Note_on_c, 0, 78, 0
1, 89280, Note_on_c, 0, 69, 46
1, 89280, Note_on_c, 0, 71, 46
1, 89280, Note_on_c, 0, 66, 46
1, 89400, Note_on_c, 0, 66, 0
1, 89400, Note_on_c, 0, 71, 0
1, 89400, Note_on_c, 0, 69, 0
1, 89490, Note_on_c, 0, 85, 55
1, 89520, Note_on_c, 0, 85, 0
1, 89520, Note_on_c, 0, 75, 59
1, 89520, Note_on_c, 0, 83, 59
1, 89520, Note_on_c, 0, 78, 59
1, 89520, Note_on_c, 0, 59, 49
1, 89640, Note_on_c, 0, 59, 0
1, 89640, Note_on_c, 0, 75, 0
1, 89640, Note_on_c, 0, 83, 0
1, 89640, Note_on_c, 0, 78, 0
1, 89760, Note_on_c, 0, 66, 46
1, 89760, Note_on_c, 0, 69, 46
1, 89760, Note_on_c, 0, 71, 46
1, 89880, Note_on_c, 0, 71, 0
1, 89880, Note_on_c, 0, 69, 0
1, 89880, Note_on_c, 0, 66, 0
1, 89970, Note_on_c, 0, 85, 55
1, 90000, Tempo, 418118
1, 90000, Note_on_c, 0, 85, 0
1, 90000, Note_on_c, 0, 83, 59
1, 90000, Note_on_c, 0, 75, 59
1, 90000, Note_on_c, 0, 78, 59
1, 90000, Note_on_c, 0, 59, 49
1, 90120, Note_on_c, 0, 59, 0
1, 90120, Note_on_c, 0, 83, 0
1, 90120, Note_on_c, 0, 75, 0
1, 90120, Note_on_c, 0, 78, 0
1, 90240, Tempo, 410959
1, 90240, Note_on_c, 0, 59, 52
1, 90240, Note_on_c, 0, 66, 52
1, 90240, Note_on_c, 0, 69, 52
1, 90240, Note_on_c, 0, 71, 52
1, 90360, Note_on_c, 0, 71, 0
1, 90360, Note_on_c, 0, 59, 0
1, 90360, Note_on_c, 0, 66, 0
1, 90360, Note_on_c, 0, 69, 0
1, 90360, Note_on_c, 0, 76, 59
1, 90420, Note_on_c, 0, 76, 0
1, 90480, Note_on_c, 0, 74, 62
1, 90540, Note_on_c, 0, 74, 0
1, 90600, Tempo, 415225
1, 90600, Note_on_c, 0, 75, 59
1, 90660, Note_on_c, 0, 75, 0
1, 90720, Tempo, 410959
1, 90720, Note_on_c, 0, 71, 63
1, 90780, Note_on_c, 0, 71, 0
1, 90840, Note_on_c, 0, 76, 62
1, 90900, Note_on_c, 0, 76, 0
1, 90960, Note_on_c, 0, 74, 66
1, 91020, Note_on_c, 0, 74, 0
1, 91080, Tempo, 413793
1, 91080, Note_on_c, 0, 75, 62
1, 91140, Note_on_c, 0, 75, 0
1, 91200, Tempo, 410959
1, 91200, Note_on_c, 0, 63, 57
1, 91200, Note_on_c, 0, 69, 57
1, 91200, Note_on_c, 0, 71, 57
1, 91320, Note_on_c, 0, 71, 0
1, 91320, Note_on_c, 0, 69, 0
1, 91320, Note_on_c, 0, 63, 0
1, 91320, Note_on_c, 0, 80, 66
1, 91380, Note_on_c, 0, 80, 0
1, 91440, Note_on_c, 0, 77, 70
1, 91500, Note_on_c, 0, 77, 0
1, 91560, Tempo, 415225
1, 91560, Note_on_c, 0, 78, 66
1, 91620, Note_on_c, 0, 78, 0
1, 91680, Note_on_c, 0, 71, 71
1, 91720, Tempo, 410959
1, 91740, Note_on_c, 0, 71, 0
1, 91800, Note_on_c, 0, 80, 67
1, 91860, Note_on_c, 0, 80, 0
1, 91920, Note_on_c, 0, 77, 73
1, 91980, Note_on_c, 0, 77, 0
1, 92040, Tempo, 415225
1, 92040, Note_on_c, 0, 78, 71
1, 92100, Note_on_c, 0, 78, 0
1, 92160, Tempo, 410959
1, 92160, Note_on_c, 0, 66, 59
1, 92160, Note_on_c, 0, 71, 59
1, 92160, Note_on_c, 0, 75, 59
1, 92280, Note_on_c, 0, 75, 0
1, 92280, Note_on_c, 0, 71, 0
1, 92280, Note_on_c, 0, 66, 0
1, 92280, Note_on_c, 0, 83, 75
1, 92340, Note_on_c, 0, 83, 0
1, 92400, Note_on_c, 0, 80, 80
1, 92460, Note_on_c, 0, 80, 0
1, 92520, Tempo, 415225
1, 92520, Note_on_c, 0, 81, 77
1, 92580, Note_on_c, 0, 81, 0
1, 92640, Tempo, 410959
1, 92640, Note_on_c, 0, 78, 79
1, 92700, Note_on_c, 0, 78, 0
1, 92760, Note_on_c, 0, 83, 71
1, 92820, Note_on_c, 0, 83, 0
1, 92880, Note_on_c, 0, 80, 77
1, 92940, Note_on_c, 0, 80, 0
1, 93000, Tempo, 416667
1, 93000, Note_on_c, 0, 81, 71
1, 93060, Note_on_c, 0, 81, 0
1, 93120, Tempo, 410959
1, 93120, Note_on_c, 0, 78, 76
1, 93180, Note_on_c, 0, 78, 0
1, 93240, Note_on_c, 0, 83, 70
1, 93300, Note_on_c, 0, 83, 0
1, 93360, Note_on_c, 0, 80, 75
1, 93420, Note_on_c, 0, 80, 0
1, 93480, Tempo, 416667
1, 93480, Note_on_c, 0, 81, 69
1, 93540, Note_on_c, 0, 81, 0
1, 93600, Tempo, 410959
1, 93600, Note_on_c, 0, 78, 75
1, 93660, Note_on_c, 0, 78, 0
1, 93720, Note_on_c, 0, 83, 68
1, 93780, Note_on_c, 0, 83, 0
1, 93840, Note_on_c, 0, 80, 73
1, 93900, Note_on_c, 0, 80, 0
1, 93960, Tempo, 415225
1, 93960, Note_on_c, 0, 81, 67
1, 94020, Note_on_c, 0, 81, 0
1, 94080, Tempo, 410959
1, 94080, Note_on_c, 0, 78, 72
1, 94120, Tempo, 412371
1, 94140, Note_on_c, 0, 78, 0
1, 94200, Note_on_c, 0, 83, 65
1, 94260, Note_on_c, 0, 83, 0
1, 94320, Note_on_c, 0, 80, 69
1, 94360, Tempo, 413793
1, 94380, Note_on_c, 0, 80, 0
1, 94440, Note_on_c, 0, 81, 64
1, 94500, Note_on_c, 0, 81, 0
1, 94560, Tempo, 415225
1, 94560, Note_on_c, 0, 78, 65
1, 94620, Note_on_c, 0, 78, 0
1, 94680, Note_on_c, 0, 83, 57
1, 94740, Note_on_c, 0, 83, 0
1, 94800, Tempo, 416667
1, 94800, Note_on_c, 0, 80, 60
1, 94860, Note_on_c, 0, 80, 0
1, 94920, Note_on_c, 0, 81, 55
1, 94980, Note_on_c, 0, 81, 0
1, 95000, Tempo, 418118
1, 95040, Note_on_c, 0, 78, 57
1, 95100, Note_on_c, 0, 78, 0
1, 95160, Note_on_c, 0, 83, 52
1, 95200, Tempo, 419580
1, 95220, Note_on_c, 0, 83, 0
1, 95280, Note_on_c, 0, 80, 54
1, 95340, Note_on_c, 0, 80, 0
1, 95400, Note_on_c, 0, 81, 49
1, 95440, Tempo, 421053
1, 95460, Note_on_c, 0, 81, 0
1, 95520, Note_on_c, 0, 78, 51
1, 95580, Note_on_c, 0, 78, 0
1, 95640, Tempo, 422535
1, 95640, Note_on_c, 0, 83, 45
1, 95700, Note_on_c, 0, 83, 0
1, 95760, Note_on_c, 0, 80, 48
1, 95820, Note_on_c, 0, 80, 0
1, 95840, Tempo, 424028
1, 95880, Note_on_c, 0, 81, 43
1, 95940, Note_on_c, 0, 81, 0
1, 95941, Tempo, 466926
1, 96000, Key_signature, 4, "major"
1, 96000, Tempo, 429461
1, 96000, Note_on_c, 0, 76, 44
1, 96000, Note_on_c, 0, 61, 53
1, 96003, Control_c, 0, 64, 127
1, 96060, Note_on_c, 0, 76, 0
1, 96120, Note_on_c, 0, 61, 0
1, 96120, Note_on_c, 0, 83, 39
1, 96180, Note_on_c, 0, 83, 0
1, 96240, Tempo, 444017
1, 96240, Note_on_c, 0, 79, 44
1, 96240, Note_on_c, 0, 59, 49
1, 96300, Note_on_c, 0, 79, 0
1, 96360, Note_on_c, 0, 59, 0
1, 96360, Note_on_c, 0, 80, 39
1, 96420, Note_on_c, 0, 80, 0
1, 96480, Tempo, 431810
1, 96480, Note_on_c, 0, 76, 44
1, 96480, Note_on_c, 0, 64, 50
1, 96496, Control_c, 0, 64, 0
1, 96536, Control_c, 0, 64, 127
1, 96540, Note_on_c, 0, 76, 0
1, 96600, Note_on_c, 0, 83, 40
1, 96660, Note_on_c, 0, 83, 0
1, 96720, Note_on_c, 0, 79, 44
1, 96780, Note_on_c, 0, 79, 0
1, 96840, Note_on_c, 0, 80, 40
1, 96900, Note_on_c, 0, 80, 0
1, 96960, Tempo, 436618
1, 96960, Note_on_c, 0, 76, 44
1, 96960, Note_on_c, 0, 52, 37
1, 96960, Note_on_c, 0, 59, 37
1, 97020, Note_on_c, 0, 76, 0
1, 97080, Note_on_c, 0, 83, 39
1, 97140, Note_on_c, 0, 83, 0
1, 97200, Note_on_c, 0, 59, 0
1, 97200, Note_on_c, 0, 52, 0
1, 97200, Note_on_c, 0, 79, 44
1, 97260, Note_on_c, 0, 79, 0
1, 97320, Note_on_c, 0, 80, 39
1, 97380, Note_on_c, 0, 80, 0
1, 97440, Tempo, 429461
1, 97440, Note_on_c, 0, 64, 0
1, 97440, Note_on_c, 0, 76, 46
1, 97440, Note_on_c, 0, 68, 52
1, 97446, Control_c, 0, 64, 0
1, 97496, Control_c, 0, 64, 127
1, 97500, Note_on_c, 0, 76, 0
1, 97560, Note_on_c, 0, 83, 43
1, 97620, Note_on_c, 0, 83, 0
1, 97680, Note_on_c, 0, 68, 0
1, 97680, Note_on_c, 0, 79, 47
1, 97680, Note_on_c, 0, 71, 50
1, 97740, Note_on_c, 0, 79, 0
1, 97800, Note_on_c, 0, 80, 43
1, 97860, Note_on_c, 0, 80, 0
1, 97920, Tempo, 429461
1, 97920, Note_on_c, 0, 71, 0
1, 97920, Note_on_c, 0, 76, 50
1, 97920, Note_on_c, 0, 73, 55
1, 97940, Control_c, 0, 64, 0
1, 97980, Note_on_c, 0, 76, 0
1, 97994, Control_c, 0, 64, 127
1, 98040, Note_on_c, 0, 83, 45
1, 98100, Note_on_c, 0, 83, 0
1, 98160, Tempo, 454305
1, 98160, Note_on_c, 0, 73, 0
1, 98160, Note_on_c, 0, 80, 47
1, 98160, Note_on_c, 0, 71, 49
1, 98220, Note_on_c, 0, 80, 0
1, 98280, Note_on_c, 0, 71, 0
1, 98280, Note_on_c, 0, 85, 45
1, 98340, Note_on_c, 0, 85, 0
1, 98400, Tempo, 429461
1, 98400, Note_on_c, 0, 76, 44
1, 98400, Note_on_c, 0, 68, 51
1, 98421, Control_c, 0, 64, 0
1, 98460, Note_on_c, 0, 76, 0
1, 98485, Control_c, 0, 64, 127
1, 98520, Note_on_c, 0, 83, 40
1, 98580, Note_on_c, 0, 83, 0
1, 98640, Note_on_c, 0, 80, 44
1, 98700, Note_on_c, 0, 80, 0
1, 98760, Note_on_c, 0, 85, 40
1, 98820, Note_on_c, 0, 85, 0
1, 98880, Tempo, 436618
1, 98880, Note_on_c, 0, 76, 44
1, 98880, Note_on_c, 0, 52, 37
1, 98880, Note_on_c, 0, 59, 37
1, 98940, Note_on_c, 0, 76, 0
1, 99000, Note_on_c, 0, 83, 40
1, 99060, Note_on_c, 0, 83, 0
1, 99120, Note_on_c, 0, 59, 0
1, 99120, Note_on_c, 0, 52, 0
1, 99120, Note_on_c, 0, 80, 44
1, 99180, Note_on_c, 0, 80, 0
1, 99240, Note_on_c, 0, 85, 40
1, 99300, Note_on_c, 0, 85, 0
1, 99360, Tempo, 434185
1, 99360, Note_on_c, 0, 68, 0
1, 99360, Note_on_c, 0, 76, 45
1, 99360, Note_on_c, 0, 64, 50
1, 99370, Control_c, 0, 64, 0
1, 99416, Control_c, 0, 64, 127
1, 99420, Note_on_c, 0, 76, 0
1, 99480, Note_on_c, 0, 83, 43
1, 99540, Note_on_c, 0, 83, 0
1, 99600, Note_on_c, 0, 64, 0
1, 99600, Note_on_c, 0, 80, 46
1, 99600, Note_on_c, 0, 61, 48
1, 99660, Note_on_c, 0, 80, 0
1, 99720, Note_on_c, 0, 85, 43
1, 99780, Note_on_c, 0, 85, 0
1, 99840, Note_on_c, 0, 61, 0
1, 99840, Note_on_c, 0, 78, 49
1, 99840, Note_on_c, 0, 68, 50
1, 99850, Control_c, 0, 64, 0
1, 99896, Control_c, 0, 64, 127
1, 99900, Note_on_c, 0, 78, 0
1, 99960, Note_on_c, 0, 83, 40
1, 100020, Note_on_c, 0, 83, 0
1, 100080, Tempo, 446528
1, 100080, Note_on_c, 0, 68, 0
1, 100080, Note_on_c, 0, 81, 45
1, 100080, Note_on_c, 0, 66, 47
1, 100140, Note_on_c, 0, 81, 0
1, 100200, Note_on_c, 0, 66, 0
1, 100200, Note_on_c, 0, 87, 40
1, 100260, Note_on_c, 0, 87, 0
1, 100320, Tempo, 431810
1, 100320, Note_on_c, 0, 78, 46
1, 100320, Note_on_c, 0, 61, 49
1, 100335, Control_c, 0, 64, 0
1, 100380, Note_on_c, 0, 78, 0
1, 100405, Control_c, 0, 64, 127
1, 100440, Note_on_c, 0, 83, 44
1, 100500, Note_on_c, 0, 83, 0
1, 100560, Note_on_c, 0, 81, 45
1, 100620, Note_on_c, 0, 81, 0
1, 100680, Note_on_c, 0, 87, 42
1, 100740, Note_on_c, 0, 87, 0
1, 100800, Tempo, 436618
1, 100800, Note_on_c, 0, 78, 47
1, 100800, Note_on_c, 0, 54, 37
1, 100800, Note_on_c, 0, 52, 37
1, 100800, Note_on_c, 0, 57, 37
1, 100860, Note_on_c, 0, 78, 0
1, 100920, Note_on_c, 0, 83, 44
1, 100980, Note_on_c, 0, 83, 0
1, 101040, Note_on_c, 0, 57, 0
1, 101040, Note_on_c, 0, 52, 0
1, 101040, Note_on_c, 0, 54, 0
1, 101040, Note_on_c, 0, 81, 44
1, 101100, Note_on_c, 0, 81, 0
1, 101160, Note_on_c, 0, 87, 43
1, 101220, Note_on_c, 0, 87, 0
1, 101280, Tempo, 429461
1, 101280, Note_on_c, 0, 61, 0
1, 101280, Note_on_c, 0, 78, 46
1, 101280, Note_on_c, 0, 61, 48
1, 101289, Control_c, 0, 64, 0
1, 101340, Note_on_c, 0, 78, 0
1, 101347, Control_c, 0, 64, 127
1, 101400, Note_on_c, 0, 83, 43
1, 101460, Note_on_c, 0, 83, 0
1, 101520, Note_on_c, 0, 61, 0
1, 101520, Note_on_c, 0, 81, 45
1, 101520, Note_on_c, 0, 59, 41
1, 101580, Note_on_c, 0, 81, 0
1, 101640, Note_on_c, 0, 87, 42
1, 101700, Note_on_c, 0, 87, 0
1, 101760, Tempo, 436618
1, 101760, Note_on_c, 0, 59, 0
1, 101760, Note_on_c, 0, 81, 44
1, 101760, Note_on_c, 0, 66, 47
1, 101771, Control_c, 0, 64, 0
1, 101817, Control_c, 0, 64, 127
1, 101820, Note_on_c, 0, 81, 0
1, 101880, Note_on_c, 0, 83, 40
1, 101940, Note_on_c, 0, 83, 0
1, 102000, Tempo, 446528
1, 102000, Note_on_c, 0, 66, 0
1, 102000, Note_on_c, 0, 80, 44
1, 102000, Note_on_c, 0, 64, 39
1, 102060, Note_on_c, 0, 80, 0
1, 102120, Note_on_c, 0, 64, 0
1, 102120, Note_on_c, 0, 88, 40
1, 102180, Note_on_c, 0, 88, 0
1, 102240, Tempo, 436618
1, 102240, Note_on_c, 0, 79, 44
1, 102240, Note_on_c, 0, 59, 41
1, 102250, Control_c, 0, 64, 0
1, 102300, Note_on_c, 0, 79, 0
1, 102320, Control_c, 0, 64, 127
1, 102360, Note_on_c, 0, 83, 40
1, 102420, Note_on_c, 0, 83, 0
1, 102480, Note_on_c, 0, 80, 44
1, 102540, Note_on_c, 0, 80, 0
1, 102600, Note_on_c, 0, 88, 40
1, 102660, Note_on_c, 0, 88, 0
1, 102720, Note_on_c, 0, 79, 44
1, 102720, Note_on_c, 0, 52, 37
1, 102780, Note_on_c, 0, 79, 0
1, 102840, Note_on_c, 0, 83, 40
1, 102900, Note_on_c, 0, 83, 0
1, 102960, Note_on_c, 0, 52, 0
1, 102960, Note_on_c, 0, 80, 44
1, 103020, Note_on_c, 0, 80, 0
1, 103080, Note_on_c, 0, 88, 40
1, 103140, Note_on_c, 0, 88, 0
1, 103200, Note_on_c, 0, 59, 0
1, 103200, Note_on_c, 0, 79, 46
1, 103200, Note_on_c, 0, 58, 48
1, 103209, Control_c, 0, 64, 0
1, 103260, Note_on_c, 0, 79, 0
1, 103271, Control_c, 0, 64, 127
1, 103320, Note_on_c, 0, 85, 40
1, 103380, Note_on_c, 0, 85, 0
1, 103440, Note_on_c, 0, 58, 0
1, 103440, Note_on_c, 0, 80, 46
1, 103440, Note_on_c, 0, 59, 47
1, 103500, Note_on_c, 0, 80, 0
1, 103560, Note_on_c, 0, 83, 43
1, 103620, Note_on_c, 0, 83, 0
1, 103680, Tempo, 429461
1, 103680, Note_on_c, 0, 59, 0
1, 103680, Note_on_c, 0, 76, 49
1, 103680, Note_on_c, 0, 61, 53
1, 103693, Control_c, 0, 64, 0
1, 103740, Note_on_c, 0, 76, 0
1, 103751, Control_c, 0, 64, 127
1, 103800, Note_on_c, 0, 83, 43
1, 103860, Note_on_c, 0, 83, 0
1, 103920, Tempo, 444017
1, 103920, Note_on_c, 0, 61, 0
1, 103920, Note_on_c, 0, 79, 46
1, 103920, Note_on_c, 0, 59, 49
1, 103980, Note_on_c, 0, 79, 0
1, 104040, Note_on_c, 0, 59, 0
1, 104040, Note_on_c, 0, 80, 44
1, 104100, Note_on_c, 0, 80, 0
1, 104160, Tempo, 431810
1, 104160, Note_on_c, 0, 76, 44
1, 104160, Note_on_c, 0, 64, 50
1, 104168, Control_c, 0, 64, 0
1, 104216, Control_c, 0, 64, 127
1, 104220, Note_on_c, 0, 76, 0
1, 104280, Note_on_c, 0, 83, 40
1, 104340, Note_on_c, 0, 83, 0
1, 104400, Note_on_c, 0, 79, 44
1, 104460, Note_on_c, 0, 79, 0
1, 104520, Note_on_c, 0, 80, 40
1, 104580, Note_on_c, 0, 80, 0
1, 104640, Tempo, 436618
1, 104640, Note_on_c, 0, 76, 44
1, 104640, Note_on_c, 0, 52, 37
1, 104640, Note_on_c, 0, 59, 37
1, 104700, Note_on_c, 0, 76, 0
1, 104760, Note_on_c, 0, 83, 39
1, 104820, Note_on_c, 0, 83, 0
1, 104880, Note_on_c, 0, 59, 0
1, 104880, Note_on_c, 0, 52, 0
1, 104880, Note_on_c, 0, 79, 47
1, 104940, Note_on_c, 0, 79, 0
1, 105000, Note_on_c, 0, 80, 43
1, 105060, Note_on_c, 0, 80, 0
1, 105120, Tempo, 429461
1, 105120, Note_on_c, 0, 64, 0
1, 105120, Note_on_c, 0, 76, 49
1, 105120, Note_on_c, 0, 68, 52
1, 105131, Control_c, 0, 64, 0
1, 105180, Note_on_c, 0, 76, 0
1, 105203, Control_c, 0, 64, 127
1, 105240, Note_on_c, 0, 83, 44
1, 105300, Note_on_c, 0, 83, 0
1, 105360, Note_on_c, 0, 68, 0
1, 105360, Note_on_c, 0, 79, 47
1, 105360, Note_on_c, 0, 71, 50
1, 105420, Note_on_c, 0, 79, 0
1, 105480, Note_on_c, 0, 80, 44
1, 105540, Note_on_c, 0, 80, 0
1, 105600, Tempo, 429461
1, 105600, Note_on_c, 0, 71, 0
1, 105600, Note_on_c, 0, 76, 50
1, 105600, Note_on_c, 0, 73, 55
1, 105610, Control_c, 0, 64, 0
1, 105660, Note_on_c, 0, 76, 0
1, 105688, Control_c, 0, 64, 127
1, 105720, Note_on_c, 0, 83, 44
1, 105780, Note_on_c, 0, 83, 0
1, 105840, Tempo, 454305
1, 105840, Note_on_c, 0, 73, 0
1, 105840, Note_on_c, 0, 80, 49
1, 105840, Note_on_c, 0, 71, 49
1, 105900, Note_on_c, 0, 80, 0
1, 105960, Note_on_c, 0, 71, 0
1, 105960, Note_on_c, 0, 85, 44
1, 106020, Note_on_c, 0, 85, 0
1, 106080, Tempo, 429461
1, 106080, Note_on_c, 0, 76, 47
1, 106080, Note_on_c, 0, 68, 51
1, 106099, Control_c, 0, 64, 0
1, 106140, Note_on_c, 0, 76, 0
1, 106165, Control_c, 0, 64, 127
1, 106200, Note_on_c, 0, 83, 43
1, 106260, Note_on_c, 0, 83, 0
1, 106320, Note_on_c, 0, 80, 46
1, 106380, Note_on_c, 0, 80, 0
1, 106440, Note_on_c, 0, 85, 44
1, 106500, Note_on_c, 0, 85, 0
1, 106560, Tempo, 436618
1, 106560, Note_on_c, 0, 76, 44
1, 106560, Note_on_c, 0, 52, 37
1, 106560, Note_on_c, 0, 59, 37
1, 106620, Note_on_c, 0, 76, 0
1, 106680, Note_on_c, 0, 83, 40
1, 106740, Note_on_c, 0, 83, 0
1, 106800, Note_on_c, 0, 59, 0
1, 106800, Note_on_c, 0, 52, 0
1, 106800, Note_on_c, 0, 80, 44
1, 106860, Note_on_c, 0, 80, 0
1, 106920, Note_on_c, 0, 85, 40
1, 106980, Note_on_c, 0, 85, 0
1, 107040, Tempo, 439560
1, 107040, Note_on_c, 0, 68, 0
1, 107040, Note_on_c, 0, 76, 45
1, 107040, Note_on_c, 0, 64, 50
1, 107051, Control_c, 0, 64, 0
1, 107100, Note_on_c, 0, 76, 0
1, 107121, Control_c, 0, 64, 127
1, 107160, Note_on_c, 0, 83, 42
1, 107220, Note_on_c, 0, 83, 0
1, 107280, Note_on_c, 0, 64, 0
1, 107280, Note_on_c, 0, 80, 45
1, 107280, Note_on_c, 0, 61, 48
1, 107340, Note_on_c, 0, 80, 0
1, 107400, Note_on_c, 0, 85, 42
1, 107460, Note_on_c, 0, 85, 0
1, 107520, Note_on_c, 0, 61, 0
1, 107520, Note_on_c, 0, 79, 45
1, 107520, Note_on_c, 0, 51, 45
1, 107520, Note_on_c, 0, 59, 50
1, 107532, Control_c, 0, 64, 0
1, 107580, Note_on_c, 0, 79, 0
1, 107586, Control_c, 0, 64, 127
1, 107640, Note_on_c, 0, 87, 42
1, 107700, Note_on_c, 0, 87, 0
1, 107760, Tempo, 458015
1, 107760, Note_on_c, 0, 59, 0
1, 107760, Note_on_c, 0, 51, 0
1, 107760, Note_on_c, 0, 80, 47
1, 107760, Note_on_c, 0, 63, 47
1, 107820, Note_on_c, 0, 80, 0
1, 107880, Note_on_c, 0, 63, 0
1, 107880, Note_on_c, 0, 83, 43
1, 107940, Note_on_c, 0, 83, 0
1, 108000, Tempo, 437956
1, 108000, Note_on_c, 0, 79, 50
1, 108000, Note_on_c, 0, 71, 49
1, 108009, Control_c, 0, 64, 0
1, 108060, Note_on_c, 0, 79, 0
1, 108085, Control_c, 0, 64, 127
1, 108120, Note_on_c, 0, 87, 44
1, 108180, Note_on_c, 0, 87, 0
1, 108240, Note_on_c, 0, 80, 49
1, 108300, Note_on_c, 0, 80, 0
1, 108360, Note_on_c, 0, 83, 46
1, 108420, Note_on_c, 0, 83, 0
1, 108480, Tempo, 442804
1, 108480, Note_on_c, 0, 79, 44
1, 108480, Note_on_c, 0, 63, 37
1, 108540, Note_on_c, 0, 79, 0
1, 108600, Note_on_c, 0, 87, 40
1, 108660, Note_on_c, 0, 87, 0
1, 108720, Note_on_c, 0, 63, 0
1, 108720, Note_on_c, 0, 80, 44
1, 108780, Note_on_c, 0, 80, 0
1, 108840, Note_on_c, 0, 83, 40
1, 108900, Note_on_c, 0, 83, 0
1, 108960, Tempo, 447761
1, 108960, Note_on_c, 0, 71, 0
1, 108960, Note_on_c, 0, 79, 47
1, 108960, Note_on_c, 0, 70, 48
1, 108969, Control_c, 0, 64, 0
1, 109014, Control_c, 0, 64, 127
1, 109020, Note_on_c, 0, 79, 0
1, 109080, Note_on_c, 0, 87, 44
1, 109140, Note_on_c, 0, 87, 0
1, 109200, Tempo, 444017
1, 109200, Note_on_c, 0, 70, 0
1, 109200, Note_on_c, 0, 80, 47
1, 109200, Note_on_c, 0, 68, 41
1, 109240, Tempo, 451128
1, 109260, Note_on_c, 0, 80, 0
1, 109320, Note_on_c, 0, 83, 45
1, 109380, Note_on_c, 0, 83, 0
1, 109440, Tempo, 446097
1, 109440, Note_on_c, 0, 68, 0
1, 109440, Note_on_c, 0, 82, 49
1, 109440, Note_on_c, 0, 64, 48
1, 109450, Control_c, 0, 64, 0
1, 109480, Control_c, 0, 64, 127
1, 109500, Note_on_c, 0, 82, 0
1, 109560, Note_on_c, 0, 91, 44
1, 109620, Note_on_c, 0, 91, 0
1, 109680, Note_on_c, 0, 84, 47
1, 109740, Note_on_c, 0, 84, 0
1, 109800, Note_on_c, 0, 85, 44
1, 109860, Note_on_c, 0, 85, 0
1, 109920, Tempo, 452830
1, 109920, Note_on_c, 0, 64, 0
1, 109920, Note_on_c, 0, 82, 50
1, 109920, Note_on_c, 0, 51, 37
1, 109920, Note_on_c, 0, 63, 48
1, 109929, Control_c, 0, 64, 0
1, 109960, Tempo, 459770
1, 109980, Note_on_c, 0, 82, 0
1, 110011, Control_c, 0, 64, 127
1, 110040, Note_on_c, 0, 91, 44
1, 110100, Note_on_c, 0, 91, 0
1, 110160, Tempo, 472441
1, 110160, Note_on_c, 0, 63, 0
1, 110160, Note_on_c, 0, 51, 0
1, 110160, Note_on_c, 0, 86, 47
1, 110160, Note_on_c, 0, 61, 41
1, 110220, Note_on_c, 0, 86, 0
1, 110280, Note_on_c, 0, 87, 43
1, 110340, Note_on_c, 0, 87, 0
1, 110400, Tempo, 461538
1, 110400, Note_on_c, 0, 61, 0
1, 110400, Note_on_c, 0, 80, 50
1, 110400, Note_on_c, 0, 56, 34
1, 110400, Note_on_c, 0, 61, 46
1, 110418, Control_c, 0, 64, 0
1, 110460, Note_on_c, 0, 80, 0
1, 110503, Control_c, 0, 64, 127
1, 110520, Note_on_c, 0, 92, 45
1, 110580, Note_on_c, 0, 92, 0
1, 110640, Tempo, 481928
1, 110640, Note_on_c, 0, 61, 0
1, 110640, Note_on_c, 0, 87, 46
1, 110640, Note_on_c, 0, 59, 39
1, 110700, Note_on_c, 0, 87, 0
1, 110760, Note_on_c, 0, 80, 43
1, 110820, Note_on_c, 0, 80, 0
1, 110880, Tempo, 470588
1, 110880, Note_on_c, 0, 59, 0
1, 110880, Note_on_c, 0, 80, 45
1, 110880, Note_on_c, 0, 58, 40
1, 110892, Control_c, 0, 64, 0
1, 110940, Note_on_c, 0, 80, 0
1, 110949, Control_c, 0, 64, 127
1, 111000, Note_on_c, 0, 75, 42
1, 111060, Note_on_c, 0, 75, 0
1, 111120, Tempo, 519481
1, 111120, Note_on_c, 0, 58, 0
1, 111120, Note_on_c, 0, 75, 44
1, 111120, Note_on_c, 0, 59, 37
1, 111180, Note_on_c, 0, 75, 0
1, 111240, Note_on_c, 0, 68, 36
1, 111300, Note_on_c, 0, 68, 0
1, 111360, Tempo, 636267
1, 111360, Note_on_c, 0, 59, 0
1, 111360, Note_on_c, 0, 56, 0
1, 111360, Note_on_c, 0, 69, 61
1, 111379, Control_c, 0, 64, 0
1, 111480, Note_on_c, 0, 42, 37
1, 111515, Control_c, 0, 64, 127
1, 111600, Tempo, 647179
1, 111600, Note_on_c, 0, 42, 0
1, 111600, Note_on_c, 0, 69, 0
1, 111600, Note_on_c, 0, 65, 57
1, 111600, Note_on_c, 0, 49, 35
1, 111720, Note_on_c, 0, 49, 0
1, 111720, Note_on_c, 0, 54, 35
1, 111840, Tempo, 636267
1, 111840, Note_on_c, 0, 54, 0
1, 111840, Note_on_c, 0, 65, 0
1, 111840, Note_on_c, 0, 66, 61
1, 111840, Note_on_c, 0, 57, 37
1, 111960, Note_on_c, 0, 57, 0
1, 111960, Note_on_c, 0, 61, 37
1, 112080, Note_on_c, 0, 61, 0
1, 112080, Note_on_c, 0, 66, 0
1, 112080, Note_on_c, 0, 66, 37
1, 112200, Note_on_c, 0, 66, 0
1, 112200, Note_on_c, 0, 69, 40
1, 112320, Tempo, 636267
1, 112320, Note_on_c, 0, 69, 0
1, 112320, Note_on_c, 0, 73, 46
1, 112440, Tempo, 639863
1, 112440, Note_on_c, 0, 73, 0
1, 112440, Note_on_c, 0, 66, 42
1, 112560, Tempo, 643501
1, 112560, Note_on_c, 0, 66, 0
1, 112560, Note_on_c, 0, 69, 49
1, 112680, Tempo, 647179
1, 112680, Note_on_c, 0, 69, 0
1, 112680, Note_on_c, 0, 73, 45
1, 112760, Tempo, 650900
1, 112800, Tempo, 632711
1, 112800, Note_on_c, 0, 73, 0
1, 112800, Note_on_c, 0, 78, 62
1, 112804, Control_c, 0, 64, 0
1, 113040, Tempo, 654664
1, 113040, Note_on_c, 0, 78, 0
1, 113040, Note_on_c, 0, 76, 60
1, 113280, Tempo, 636267
1, 113280, Note_on_c, 0, 76, 0
1, 113280, Note_on_c, 0, 76, 62
1, 113400, Note_on_c, 0, 47, 37
1, 113407, Control_c, 0, 64, 127
1, 113520, Tempo, 643501
1, 113520, Note_on_c, 0, 47, 0
1, 113520, Note_on_c, 0, 76, 0
1, 113520, Note_on_c, 0, 74, 60
1, 113520, Note_on_c, 0, 54, 35
1, 113640, Note_on_c, 0, 54, 0
1, 113640, Note_on_c, 0, 57, 35
1, 113760, Note_on_c, 0, 57, 0
1, 113760, Note_on_c, 0, 74, 0
1, 113760, Note_on_c, 0, 75, 62
1, 113760, Note_on_c, 0, 59, 37
1, 113880, Note_on_c, 0, 59, 0
1, 113880, Note_on_c, 0, 63, 37
1, 114000, Note_on_c, 0, 63, 0
1, 114000, Note_on_c, 0, 66, 37
1, 114120, Note_on_c, 0, 66, 0
1, 114120, Note_on_c, 0, 69, 40
1, 114238, Note_on_c, 0, 69, 0
1, 114240, Note_on_c, 0, 69, 44
1, 114360, Note_on_c, 0, 69, 0
1, 114360, Note_on_c, 0, 63, 40
1, 114480, Tempo, 658472
1, 114480, Note_on_c, 0, 63, 0
1, 114480, Note_on_c, 0, 66, 47
1, 114600, Note_on_c, 0, 66, 0
1, 114600, Note_on_c, 0, 69, 45
1, 114720, Tempo, 647179
1, 114720, Note_on_c, 0, 69, 0
1, 114720, Note_on_c, 0, 75, 0
1, 114720, Note_on_c, 0, 73, 62
1, 114732, Control_c, 0, 64, 0
1, 114960, Tempo, 658472
1, 114960, Note_on_c, 0, 73, 0
1, 114960, Note_on_c, 0, 71, 62
1, 115200, Tempo, 639863
1, 115200, Note_on_c, 0, 71, 0
1, 115200, Note_on_c, 0, 69, 61
1, 115271, Control_c, 0, 64, 127
1, 115320, Note_on_c, 0, 42, 35
1, 115440, Tempo, 647179
1, 115440, Note_on_c, 0, 42, 0
1, 115440, Note_on_c, 0, 69, 0
1, 115440, Note_on_c, 0, 65, 57
1, 115440, Note_on_c, 0, 49, 38
1, 115560, Note_on_c, 0, 49, 0
1, 115560, Note_on_c, 0, 54, 41
1, 115680, Note_on_c, 0, 54, 0
1, 115680, Note_on_c, 0, 65, 0
1, 115680, Note_on_c, 0, 66, 61
1, 115680, Note_on_c, 0, 57, 45
1, 115800, Note_on_c, 0, 57, 0
1, 115800, Note_on_c, 0, 61, 42
1, 115920, Note_on_c, 0, 61, 0
1, 115920, Note_on_c, 0, 66, 0
1, 115920, Note_on_c, 0, 66, 47
1, 116040, Note_on_c, 0, 66, 0
1, 116040, Note_on_c, 0, 69, 51
1, 116160, Tempo, 636267
1, 116160, Note_on_c, 0, 69, 0
1, 116160, Note_on_c, 0, 73, 55
1, 116280, Tempo, 639863
1, 116280, Note_on_c, 0, 73, 0
1, 116280, Note_on_c, 0, 69, 52
1, 116400, Tempo, 643501
1, 116400, Note_on_c, 0, 69, 0
1, 116400, Note_on_c, 0, 73, 54
1, 116520, Tempo, 647179
1, 116520, Note_on_c, 0, 73, 0
1, 116520, Note_on_c, 0, 78, 56
1, 116600, Tempo, 650900
1, 116640, Tempo, 658472
1, 116640, Note_on_c, 0, 78, 0
1, 116640, Note_on_c, 0, 81, 63
1, 116646, Control_c, 0, 64, 0
1, 116760, Note_on_c, 0, 81, 0
1, 116800, Note_on_c, 0, 80, 61
1, 116880, Tempo, 654664
1, 116920, Note_on_c, 0, 80, 0
1, 116960, Note_on_c, 0, 78, 60
1, 117080, Note_on_c, 0, 78, 0
1, 117120, Tempo, 647179
1, 117120, Note_on_c, 0, 76, 63
1, 117360, Note_on_c, 0, 76, 0
1, 117360, Note_on_c, 0, 63, 33
1, 117360, Note_on_c, 0, 69, 33
1, 117360, Note_on_c, 0, 75, 57
1, 117360, Note_on_c, 0, 47, 28
1, 117360, Note_on_c, 0, 54, 28
1, 117360, Note_on_c, 0, 59, 33
1, 117600, Note_on_c, 0, 59, 0
1, 117600, Note_on_c, 0, 69, 0
1, 117600, Note_on_c, 0, 75, 0
1, 117600, Note_on_c, 0, 63, 0
1, 117600, Note_on_c, 0, 54, 0
1, 117600, Note_on_c, 0, 47, 0
1, 117600, Note_on_c, 0, 73, 63
1, 117840, Note_on_c, 0, 73, 0
1, 117840, Note_on_c, 0, 64, 33
1, 117840, Note_on_c, 0, 69, 33
1, 117840, Note_on_c, 0, 75, 56
1, 117840, Note_on_c, 0, 49, 23
1, 117840, Note_on_c, 0, 52, 23
1, 117840, Note_on_c, 0, 57, 33
1, 118080, Note_on_c, 0, 57, 0
1, 118080, Note_on_c, 0, 69, 0
1, 118080, Note_on_c, 0, 75, 0
1, 118080, Note_on_c, 0, 64, 0
1, 118080, Note_on_c, 0, 52, 0
1, 118080, Note_on_c, 0, 49, 0
1, 118080, Note_on_c, 0, 73, 60
1, 118320, Note_on_c, 0, 73, 0
1, 118320, Note_on_c, 0, 65, 33
1, 118320, Note_on_c, 0, 71, 52
1, 118320, Note_on_c, 0, 50, 28
1, 118320, Note_on_c, 0, 56, 28
1, 118560, Note_on_c, 0, 56, 0
1, 118560, Note_on_c, 0, 65, 0
1, 118560, Note_on_c, 0, 71, 0
1, 118560, Note_on_c, 0, 50, 0
1, 118560, Note_on_c, 0, 70, 56
1, 118800, Tempo, 654664
1, 118800, Note_on_c, 0, 70, 0
1, 118800, Note_on_c, 0, 66, 33
1, 118800, Note_on_c, 0, 71, 53
1, 118800, Note_on_c, 0, 51, 28
1, 118800, Note_on_c, 0, 57, 33
1, 119040, Tempo, 643501
1, 119040, Note_on_c, 0, 57, 0
1, 119040, Note_on_c, 0, 66, 0
1, 119040, Note_on_c, 0, 71, 0
1, 119040, Note_on_c, 0, 51, 0
1, 119040, Note_on_c, 0, 69, 61
1, 119146, Control_c, 0, 64, 127
1, 119160, Note_on_c, 0, 42, 37
1, 119280, Tempo, 647179
1, 119280, Note_on_c, 0, 42, 0
1, 119280, Note_on_c, 0, 69, 0
1, 119280, Note_on_c, 0, 65, 57
1, 119280, Note_on_c, 0, 49, 35
1, 119400, Note_on_c, 0, 49, 0
1, 119400, Note_on_c, 0, 54, 35
1, 119520, Tempo, 636267
1, 119520, Note_on_c, 0, 54, 0
1, 119520, Note_on_c, 0, 65, 0
1, 119520, Note_on_c, 0, 66, 61
1, 119520, Note_on_c, 0, 57, 37
1, 119640, Note_on_c, 0, 57, 0
1, 119640, Note_on_c, 0, 61, 37
1, 119760, Note_on_c, 0, 61, 0
1, 119760, Note_on_c, 0, 66, 0
1, 119760, Note_on_c, 0, 66, 37
1, 119880, Note_on_c, 0, 66, 0
1, 119880, Note_on_c, 0, 69, 40
1, 120000, Tempo, 636267
1, 120000, Note_on_c, 0, 69, 0
1, 120000, Note_on_c, 0, 73, 45
1, 120120, Tempo, 639863
1, 120120, Note_on_c, 0, 73, 0
1, 120120, Note_on_c, 0, 66, 41
1, 120240, Tempo, 643501
1, 120240, Note_on_c, 0, 66, 0
1, 120240, Note_on_c, 0, 69, 45
1, 120360, Tempo, 647179
1, 120360, Note_on_c, 0, 69, 0
1, 120360, Note_on_c, 0, 73, 43
1, 120440, Tempo, 650900
1, 120480, Tempo, 632711
1, 120480, Note_on_c, 0, 73, 0
1, 120480, Note_on_c, 0, 78, 62
1, 120493, Control_c, 0, 64, 0
1, 120720, Tempo, 654664
1, 120720, Note_on_c, 0, 78, 0
1, 120720, Note_on_c, 0, 76, 60
1, 120960, Tempo, 636267
1, 120960, Note_on_c, 0, 76, 0
1, 120960, Note_on_c, 0, 76, 62
1, 121045, Control_c, 0, 64, 127
1, 121080, Note_on_c, 0, 47, 37
1, 121200, Tempo, 643501
1, 121200, Note_on_c, 0, 47, 0
1, 121200, Note_on_c, 0, 76, 0
1, 121200, Note_on_c, 0, 74, 60
1, 121200, Note_on_c, 0, 54, 35
1, 121320, Note_on_c, 0, 54, 0
1, 121320, Note_on_c, 0, 57, 35
1, 121440, Note_on_c, 0, 57, 0
1, 121440, Note_on_c, 0, 74, 0
1, 121440, Note_on_c, 0, 75, 62
1, 121440, Note_on_c, 0, 59, 37
1, 121560, Note_on_c, 0, 59, 0
1, 121560, Note_on_c, 0, 63, 37
1, 121680, Note_on_c, 0, 63, 0
1, 121680, Note_on_c, 0, 66, 37
1, 121800, Note_on_c, 0, 66, 0
1, 121800, Note_on_c, 0, 69, 37
1, 121920, Note_on_c, 0, 69, 0
1, 121920, Note_on_c, 0, 69, 46
1, 122040, Note_on_c, 0, 69, 0
1, 122040, Note_on_c, 0, 63, 41
1, 122160, Tempo, 658472
1, 122160, Note_on_c, 0, 63, 0
1, 122160, Note_on_c, 0, 66, 48
1, 122280, Note_on_c, 0, 66, 0
1, 122280, Note_on_c, 0, 69, 46
1, 122400, Tempo, 647179
1, 122400, Note_on_c, 0, 69, 0
1, 122400, Note_on_c, 0, 75, 0
1, 122400, Note_on_c, 0, 73, 62
1, 122410, Control_c, 0, 64, 0
1, 122640, Tempo, 658472
1, 122640, Note_on_c, 0, 73, 0
1, 122640, Note_on_c, 0, 71, 62
1, 122880, Tempo, 639863
1, 122880, Note_on_c, 0, 71, 0
1, 122880, Note_on_c, 0, 69, 61
1, 122951, Control_c, 0, 64, 127
1, 123000, Note_on_c, 0, 42, 35
1, 123120, Tempo, 647179
1, 123120, Note_on_c, 0, 42, 0
1, 123120, Note_on_c, 0, 69, 0
1, 123120, Note_on_c, 0, 65, 57
1, 123120, Note_on_c, 0, 49, 38
1, 123240, Note_on_c, 0, 49, 0
1, 123240, Note_on_c, 0, 54, 41
1, 123360, Note_on_c, 0, 54, 0
1, 123360, Note_on_c, 0, 65, 0
1, 123360, Note_on_c, 0, 66, 61
1, 123360, Note_on_c, 0, 57, 45
1, 123480, Note_on_c, 0, 57, 0
1, 123480, Note_on_c, 0, 61, 42
1, 123600, Note_on_c, 0, 61, 0
1, 123600, Note_on_c, 0, 66, 0
1, 123600, Note_on_c, 0, 66, 47
1, 123720, Note_on_c, 0, 66, 0
1, 123720, Note_on_c, 0, 69, 51
1, 123840, Tempo, 636267
1, 123840, Note_on_c, 0, 69, 0
1, 123840, Note_on_c, 0, 73, 48
1, 123960, Tempo, 639863
1, 123960, Note_on_c, 0, 73, 0
1, 123960, Note_on_c, 0, 69, 50
1, 124080, Tempo, 643501
1, 124080, Note_on_c, 0, 69, 0
1, 124080, Note_on_c, 0, 73, 52
1, 124200, Tempo, 647179
1, 124200, Note_on_c, 0, 73, 0
1, 124200, Note_on_c, 0, 78, 54
1, 124280, Tempo, 650900
1, 124320, Tempo, 658472
1, 124320, Note_on_c, 0, 78, 0
1, 124320, Note_on_c, 0, 81, 63
1, 124330, Control_c, 0, 64, 0
1, 124480, Note_on_c, 0, 81, 0
1, 124480, Note_on_c, 0, 80, 61
1, 124560, Tempo, 654664
1, 124640, Note_on_c, 0, 80, 0
1, 124640, Note_on_c, 0, 78, 60
1, 124800, Tempo, 643501
1, 124800, Note_on_c, 0, 78, 0
1, 124800, Note_on_c, 0, 76, 63
1, 125040, Tempo, 662325
1, 125040, Note_on_c, 0, 76, 0
1, 125040, Note_on_c, 0, 63, 33
1, 125040, Note_on_c, 0, 69, 33
1, 125040, Note_on_c, 0, 75, 57
1, 125040, Note_on_c, 0, 47, 28
1, 125040, Note_on_c, 0, 54, 33
1, 125040, Note_on_c, 0, 59, 33
1, 125280, Tempo, 650900
1, 125280, Note_on_c, 0, 59, 0
1, 125280, Note_on_c, 0, 69, 0
1, 125280, Note_on_c, 0, 75, 0
1, 125280, Note_on_c, 0, 63, 0
1, 125280, Note_on_c, 0, 54, 0
1, 125280, Note_on_c, 0, 47, 0
1, 125280, Note_on_c, 0, 80, 61
1, 125440, Note_on_c, 0, 80, 0
1, 125440, Note_on_c, 0, 78, 58
1, 125600, Note_on_c, 0, 78, 0
1, 125600, Note_on_c, 0, 76, 57
1, 125760, Tempo, 639863
1, 125760, Note_on_c, 0, 76, 0
1, 125760, Note_on_c, 0, 75, 60
1, 126000, Tempo, 658472
1, 126000, Note_on_c, 0, 75, 0
1, 126000, Note_on_c, 0, 64, 27
1, 126000, Note_on_c, 0, 69, 27
1, 126000, Note_on_c, 0, 73, 56
1, 126000, Note_on_c, 0, 49, 22
1, 126000, Note_on_c, 0, 52, 22
1, 126000, Note_on_c, 0, 57, 22
1, 126000, Note_on_c, 0, 61, 27
1, 126240, Tempo, 650900
1, 126240, Note_on_c, 0, 61, 0
1, 126240, Note_on_c, 0, 52, 0
1, 126240, Note_on_c, 0, 69, 0
1, 126240, Note_on_c, 0, 73, 0
1, 126240, Note_on_c, 0, 64, 0
1, 126240, Note_on_c, 0, 57, 0
1, 126240, Note_on_c, 0, 49, 0
1, 126240, Note_on_c, 0, 78, 60
1, 126400, Note_on_c, 0, 78, 0
1, 126400, Note_on_c, 0, 76, 57
1, 126560, Note_on_c, 0, 76, 0
1, 126560, Note_on_c, 0, 75, 57
1, 126720, Tempo, 647179
1, 126720, Note_on_c, 0, 75, 0
1, 126720, Note_on_c, 0, 73, 67
1, 126720, Note_on_c, 0, 61, 56
1, 126960, Note_on_c, 0, 61, 0
1, 126960, Note_on_c, 0, 73, 0
1, 126960, Note_on_c, 0, 66, 35
1, 126960, Note_on_c, 0, 69, 35
1, 126960, Note_on_c, 0, 71, 62
1, 126960, Note_on_c, 0, 51, 35
1, 126960, Note_on_c, 0, 54, 35
1, 126960, Note_on_c, 0, 59, 35
1, 127200, Note_on_c, 0, 59, 0
1, 127200, Note_on_c, 0, 69, 0
1, 127200, Note_on_c, 0, 71, 0
1, 127200, Note_on_c, 0, 66, 0
1, 127200, Note_on_c, 0, 54, 0
1, 127200, Note_on_c, 0, 51, 0
1, 127200, Note_on_c, 0, 73, 71
1, 127200, Note_on_c, 0, 61, 58
1, 127440, Note_on_c, 0, 61, 0
1, 127440, Note_on_c, 0, 73, 0
1, 127440, Note_on_c, 0, 64, 37
1, 127440, Note_on_c, 0, 68, 37
1, 127440, Note_on_c, 0, 71, 63
1, 127440, Note_on_c, 0, 52, 37
1, 127440, Note_on_c, 0, 56, 37
1, 127440, Note_on_c, 0, 59, 37
1, 127680, Tempo, 654664
1, 127680, Note_on_c, 0, 59, 0
1, 127680, Note_on_c, 0, 68, 0
1, 127680, Note_on_c, 0, 71, 0
1, 127680, Note_on_c, 0, 64, 0
1, 127680, Note_on_c, 0, 56, 0
1, 127680, Note_on_c, 0, 52, 0
1, 127680, Note_on_c, 0, 73, 74
1, 127680, Note_on_c, 0, 61, 61
1, 127720, Tempo, 654664
1, 127920, Note_on_c, 0, 61, 0
1, 127920, Note_on_c, 0, 73, 0
1, 127920, Note_on_c, 0, 62, 40
1, 127920, Note_on_c, 0, 68, 40
1, 127920, Note_on_c, 0, 71, 68
1, 127920, Note_on_c, 0, 53, 40
1, 127920, Note_on_c, 0, 56, 40
1, 127920, Note_on_c, 0, 59, 40
1, 128160, Tempo, 670166
1, 128160, Note_on_c, 0, 59, 0
1, 128160, Note_on_c, 0, 68, 0
1, 128160, Note_on_c, 0, 71, 0
1, 128160, Note_on_c, 0, 62, 0
1, 128160, Note_on_c, 0, 56, 0
1, 128160, Note_on_c, 0, 53, 0
1, 128160, Note_on_c, 0, 73, 75
1, 128160, Note_on_c, 0, 61, 61
1, 128400, Note_on_c, 0, 61, 0
1, 128400, Note_on_c, 0, 73, 0
1, 128400, Note_on_c, 0, 63, 46
1, 128400, Note_on_c, 0, 69, 46
1, 128400, Note_on_c, 0, 71, 75
1, 128400, Note_on_c, 0, 54, 46
1, 128400, Note_on_c, 0, 59, 46
1, 128640, Tempo, 410959
1, 128640, Note_on_c, 0, 59, 0
1, 128640, Note_on_c, 0, 71, 0
1, 128640, Note_on_c, 0, 63, 0
1, 128640, Note_on_c, 0, 69, 0
1, 128640, Note_on_c, 0, 54, 0
1, 128640, Note_on_c, 0, 69, 59
1, 128680, Tempo, 412371
1, 128700, Note_on_c, 0, 69, 0
1, 128760, Note_on_c, 0, 73, 53
1, 128820, Note_on_c, 0, 73, 0
1, 128880, Note_on_c, 0, 70, 59
1, 128880, Note_on_c, 0, 51, 45
1, 128940, Note_on_c, 0, 70, 0
1, 129000, Note_on_c, 0, 51, 0
1, 129000, Note_on_c, 0, 71, 55
1, 129060, Note_on_c, 0, 71, 0
1, 129120, Note_on_c, 0, 69, 59
1, 129120, Note_on_c, 0, 66, 45
1, 129120, Note_on_c, 0, 57, 45
1, 129120, Note_on_c, 0, 59, 45
1, 129180, Note_on_c, 0, 69, 0
1, 129240, Note_on_c, 0, 66, 0
1, 129240, Note_on_c, 0, 57, 0
1, 129240, Note_on_c, 0, 59, 0
1, 129240, Note_on_c, 0, 73, 55
1, 129300, Note_on_c, 0, 73, 0
1, 129360, Note_on_c, 0, 70, 59
1, 129420, Note_on_c, 0, 70, 0
1, 129480, Note_on_c, 0, 71, 53
1, 129540, Note_on_c, 0, 71, 0
1, 129600, Note_on_c, 0, 69, 59
1, 129660, Note_on_c, 0, 69, 0
1, 129720, Note_on_c, 0, 76, 55
1, 129780, Note_on_c, 0, 76, 0
1, 129840, Note_on_c, 0, 74, 59
1, 129840, Note_on_c, 0, 47, 45
1, 129900, Note_on_c, 0, 74, 0
1, 129960, Note_on_c, 0, 47, 0
1, 129960, Note_on_c, 0, 75, 53
1, 130020, Note_on_c, 0, 75, 0
1, 130080, Note_on_c, 0, 69, 60
1, 130080, Note_on_c, 0, 66, 45
1, 130080, Note_on_c, 0, 57, 45
1, 130080, Note_on_c, 0, 59, 45
1, 130140, Note_on_c, 0, 69, 0
1, 130200, Note_on_c, 0, 66, 0
1, 130200, Note_on_c, 0, 57, 0
1, 130200, Note_on_c, 0, 59, 0
1, 130200, Note_on_c, 0, 76, 56
1, 130260, Note_on_c, 0, 76, 0
1, 130320, Note_on_c, 0, 74, 59
1, 130380, Note_on_c, 0, 74, 0
1, 130440, Note_on_c, 0, 75, 53
1, 130500, Note_on_c, 0, 75, 0
1, 130501, Tempo, 466926
1, 130560, Note_on_c, 0, 75, 53
1, 130600, Tempo, 412371
1, 130620, Note_on_c, 0, 75, 0
1, 130680, Note_on_c, 0, 80, 47
1, 130740, Note_on_c, 0, 80, 0
1, 130800, Note_on_c, 0, 77, 51
1, 130840, Tempo, 413793
1, 130860, Note_on_c, 0, 77, 0
1, 130920, Note_on_c, 0, 78, 47
1, 130980, Note_on_c, 0, 78, 0
1, 131040, Tempo, 415225
1, 131040, Note_on_c, 0, 75, 50
1, 131100, Note_on_c, 0, 75, 0
1, 131160, Note_on_c, 0, 80, 46
1, 131220, Note_on_c, 0, 80, 0
1, 131280, Tempo, 416667
1, 131280, Note_on_c, 0, 77, 49
1, 131340, Note_on_c, 0, 77, 0
1, 131400, Note_on_c, 0, 78, 43
1, 131460, Note_on_c, 0, 78, 0
1, 131480, Tempo, 418118
1, 131520, Note_on_c, 0, 78, 48
1, 131580, Note_on_c, 0, 78, 0
1, 131640, Note_on_c, 0, 83, 44
1, 131680, Tempo, 419580
1, 131700, Note_on_c, 0, 83, 0
1, 131760, Note_on_c, 0, 80, 47
1, 131820, Note_on_c, 0, 80, 0
1, 131880, Note_on_c, 0, 81, 41
1, 131920, Tempo, 421053
1, 131940, Note_on_c, 0, 81, 0
1, 132000, Note_on_c, 0, 78, 46
1, 132060, Note_on_c, 0, 78, 0
1, 132120, Tempo, 422535
1, 132120, Note_on_c, 0, 83, 43
1, 132180, Note_on_c, 0, 83, 0
1, 132240, Note_on_c, 0, 80, 44
1, 132300, Note_on_c, 0, 80, 0
1, 132320, Tempo, 424028
1, 132360, Note_on_c, 0, 81, 42
1, 132420, Note_on_c, 0, 81, 0
1, 132421, Tempo, 466926
1, 132480, Tempo, 429461
1, 132480, Note_on_c, 0, 76, 44
1, 132480, Note_on_c, 0, 61, 53
1, 132509, Control_c, 0, 64, 127
1, 132540, Note_on_c, 0, 76, 0
1, 132600, Note_on_c, 0, 61, 0
1, 132600, Note_on_c, 0, 83, 39
1, 132660, Note_on_c, 0, 83, 0
1, 132720, Tempo, 444017
1, 132720, Note_on_c, 0, 79, 44
1, 132720, Note_on_c, 0, 59, 49
1, 132780, Note_on_c, 0, 79, 0
1, 132840, Note_on_c, 0, 59, 0
1, 132840, Note_on_c, 0, 80, 39
1, 132900, Note_on_c, 0, 80, 0
1, 132960, Tempo, 431810
1, 132960, Note_on_c, 0, 76, 44
1, 132960, Note_on_c, 0, 64, 50
1, 132971, Control_c, 0, 64, 0
1, 133020, Note_on_c, 0, 76, 0
1, 133040, Control_c, 0, 64, 127
1, 133080, Note_on_c, 0, 83, 40
1, 133140, Note_on_c, 0, 83, 0
1, 133200, Note_on_c, 0, 79, 44
1, 133260, Note_on_c, 0, 79, 0
1, 133320, Note_on_c, 0, 80, 40
1, 133380, Note_on_c, 0, 80, 0
1, 133440, Tempo, 436618
1, 133440, Note_on_c, 0, 76, 44
1, 133440, Note_on_c, 0, 52, 37
1, 133440, Note_on_c, 0, 59, 37
1, 133500, Note_on_c, 0, 76, 0
1, 133560, Note_on_c, 0, 83, 39
1, 133620, Note_on_c, 0, 83, 0
1, 133680, Note_on_c, 0, 59, 0
1, 133680, Note_on_c, 0, 52, 0
1, 133680, Note_on_c, 0, 79, 44
1, 133740, Note_on_c, 0, 79, 0
1, 133800, Note_on_c, 0, 80, 39
1, 133860, Note_on_c, 0, 80, 0
1, 133920, Tempo, 429461
1, 133920, Note_on_c, 0, 64, 0
1, 133920, Note_on_c, 0, 76, 46
1, 133920, Note_on_c, 0, 68, 52
1, 133929, Control_c, 0, 64, 0
1, 133976, Control_c, 0, 64, 127
1, 133980, Note_on_c, 0, 76, 0
1, 134040, Note_on_c, 0, 83, 43
1, 134100, Note_on_c, 0, 83, 0
1, 134160, Note_on_c, 0, 68, 0
1, 134160, Note_on_c, 0, 79, 47
1, 134160, Note_on_c, 0, 71, 50
1, 134220, Note_on_c, 0, 79, 0
1, 134280, Note_on_c, 0, 80, 43
1, 134340, Note_on_c, 0, 80, 0
1, 134400, Tempo, 429461
1, 134400, Note_on_c, 0, 71, 0
1, 134400, Note_on_c, 0, 76, 50
1, 134400, Note_on_c, 0, 73, 55
1, 134418, Control_c, 0, 64, 0
1, 134460, Note_on_c, 0, 76, 0
1, 134464, Control_c, 0, 64, 127
1, 134520, Note_on_c, 0, 83, 45
1, 134580, Note_on_c, 0, 83, 0
1, 134640, Tempo, 454305
1, 134640, Note_on_c, 0, 73, 0
1, 134640, Note_on_c, 0, 80, 47
1, 134640, Note_on_c, 0, 71, 49
1, 134700, Note_on_c, 0, 80, 0
1, 134760, Note_on_c, 0, 71, 0
1, 134760, Note_on_c, 0, 85, 45
1, 134820, Note_on_c, 0, 85, 0
1, 134880, Tempo, 429461
1, 134880, Note_on_c, 0, 76, 44
1, 134880, Note_on_c, 0, 68, 51
1, 134887, Control_c, 0, 64, 0
1, 134940, Note_on_c, 0, 76, 0
1, 134965, Control_c, 0, 64, 127
1, 135000, Note_on_c, 0, 83, 40
1, 135060, Note_on_c, 0, 83, 0
1, 135120, Note_on_c, 0, 80, 44
1, 135180, Note_on_c, 0, 80, 0
1, 135240, Note_on_c, 0, 85, 40
1, 135300, Note_on_c, 0, 85, 0
1, 135360, Tempo, 436618
1, 135360, Note_on_c, 0, 76, 44
1, 135360, Note_on_c, 0, 52, 37
1, 135360, Note_on_c, 0, 59, 37
1, 135420, Note_on_c, 0, 76, 0
1, 135480, Note_on_c, 0, 83, 40
1, 135540, Note_on_c, 0, 83, 0
1, 135600, Note_on_c, 0, 59, 0
1, 135600, Note_on_c, 0, 52, 0
1, 135600, Note_on_c, 0, 80, 44
1, 135660, Note_on_c, 0, 80, 0
1, 135720, Note_on_c, 0, 85, 40
1, 135780, Note_on_c, 0, 85, 0
1, 135840, Tempo, 434185
1, 135840, Note_on_c, 0, 68, 0
1, 135840, Note_on_c, 0, 76, 45
1, 135840, Note_on_c, 0, 64, 50
1, 135849, Control_c, 0, 64, 0
1, 135896, Control_c, 0, 64, 127
1, 135900, Note_on_c, 0, 76, 0
1, 135960, Note_on_c, 0, 83, 43
1, 136020, Note_on_c, 0, 83, 0
1, 136080, Note_on_c, 0, 64, 0
1, 136080, Note_on_c, 0, 80, 46
1, 136080, Note_on_c, 0, 61, 48
1, 136140, Note_on_c, 0, 80, 0
1, 136200, Note_on_c, 0, 85, 43
1, 136260, Note_on_c, 0, 85, 0
1, 136320, Note_on_c, 0, 61, 0
1, 136320, Note_on_c, 0, 78, 49
1, 136320, Note_on_c, 0, 68, 50
1, 136330, Control_c, 0, 64, 0
1, 136380, Note_on_c, 0, 78, 0
1, 136412, Control_c, 0, 64, 127
1, 136440, Note_on_c, 0, 83, 40
1, 136500, Note_on_c, 0, 83, 0
1, 136560, Tempo, 446528
1, 136560, Note_on_c, 0, 68, 0
1, 136560, Note_on_c, 0, 81, 45
1, 136560, Note_on_c, 0, 66, 47
1, 136620, Note_on_c, 0, 81, 0
1, 136680, Note_on_c, 0, 66, 0
1, 136680, Note_on_c, 0, 87, 40
1, 136740, Note_on_c, 0, 87, 0
1, 136800, Tempo, 431810
1, 136800, Note_on_c, 0, 78, 46
1, 136800, Note_on_c, 0, 61, 49
1, 136807, Control_c, 0, 64, 0
1, 136860, Note_on_c, 0, 78, 0
1, 136885, Control_c, 0, 64, 127
1, 136920, Note_on_c, 0, 83, 44
1, 136980, Note_on_c, 0, 83, 0
1, 137040, Note_on_c, 0, 81, 45
1, 137100, Note_on_c, 0, 81, 0
1, 137160, Note_on_c, 0, 87, 42
1, 137220, Note_on_c, 0, 87, 0
1, 137280, Tempo, 436618
1, 137280, Note_on_c, 0, 78, 47
1, 137280, Note_on_c, 0, 54, 37
1, 137280, Note_on_c, 0, 52, 37
1, 137280, Note_on_c, 0, 57, 37
1, 137340, Note_on_c, 0, 78, 0
1, 137400, Note_on_c, 0, 83, 44
1, 137460, Note_on_c, 0, 83, 0
1, 137520, Note_on_c, 0, 57, 0
1, 137520, Note_on_c, 0, 52, 0
1, 137520, Note_on_c, 0, 54, 0
1, 137520, Note_on_c, 0, 81, 44
1, 137580, Note_on_c, 0, 81, 0
1, 137640, Note_on_c, 0, 87, 43
1, 137700, Note_on_c, 0, 87, 0
1, 137760, Tempo, 429461
1, 137760, Note_on_c, 0, 61, 0
1, 137760, Note_on_c, 0, 78, 46
1, 137760, Note_on_c, 0, 61, 48
1, 137771, Control_c, 0, 64, 0
1, 137820, Note_on_c, 0, 78, 0
1, 137824, Control_c, 0, 64, 127
1, 137880, Note_on_c, 0, 83, 43
1, 137940, Note_on_c, 0, 83, 0
1, 138000, Note_on_c, 0, 61, 0
1, 138000, Note_on_c, 0, 81, 45
1, 138000, Note_on_c, 0, 59, 41
1, 138060, Note_on_c, 0, 81, 0
1, 138120, Note_on_c, 0, 87, 42
1, 138180, Note_on_c, 0, 87, 0
1, 138240, Tempo, 436618
1, 138240, Note_on_c, 0, 59, 0
1, 138240, Note_on_c, 0, 81, 44
1, 138240, Note_on_c, 0, 66, 47
1, 138250, Control_c, 0, 64, 0
1, 138297, Control_c, 0, 64, 127
1, 138300, Note_on_c, 0, 81, 0
1, 138360, Note_on_c, 0, 83, 40
1, 138420, Note_on_c, 0, 83, 0
1, 138480, Tempo, 446528
1, 138480, Note_on_c, 0, 66, 0
1, 138480, Note_on_c, 0, 80, 44
1, 138480, Note_on_c, 0, 64, 39
1, 138540, Note_on_c, 0, 80, 0
1, 138600, Note_on_c, 0, 64, 0
1, 138600, Note_on_c, 0, 88, 40
1, 138660, Note_on_c, 0, 88, 0
1, 138720, Tempo, 436618
1, 138720, Note_on_c, 0, 79, 44
1, 138720, Note_on_c, 0, 59, 41
1, 138726, Control_c, 0, 64, 0
1, 138780, Note_on_c, 0, 79, 0
1, 138800, Control_c, 0, 64, 127
1, 138840, Note_on_c, 0, 83, 40
1, 138900, Note_on_c, 0, 83, 0
1, 138960, Note_on_c, 0, 80, 44
1, 139020, Note_on_c, 0, 80, 0
1, 139080, Note_on_c, 0, 88, 40
1, 139140, Note_on_c, 0, 88, 0
1, 139200, Note_on_c, 0, 79, 44
1, 139200, Note_on_c, 0, 52, 37
1, 139260, Note_on_c, 0, 79, 0
1, 139320, Note_on_c, 0, 83, 40
1, 139380, Note_on_c, 0, 83, 0
1, 139440, Note_on_c, 0, 52, 0
1, 139440, Note_on_c, 0, 80, 44
1, 139500, Note_on_c, 0, 80, 0
1, 139560, Note_on_c, 0, 88, 40
1, 139620, Note_on_c, 0, 88, 0
1, 139680, Note_on_c, 0, 59, 0
1, 139680, Note_on_c, 0, 79, 46
1, 139680, Note_on_c, 0, 58, 48
1, 139689, Control_c, 0, 64, 0
1, 139740, Note_on_c, 0, 79, 0
1, 139746, Control_c, 0, 64, 127
1, 139800, Note_on_c, 0, 85, 40
1, 139860, Note_on_c, 0, 85, 0
1, 139920, Note_on_c, 0, 58, 0
1, 139920, Note_on_c, 0, 80, 46
1, 139920, Note_on_c, 0, 59, 47
1, 139980, Note_on_c, 0, 80, 0
1, 140040, Note_on_c, 0, 83, 43
1, 140100, Note_on_c, 0, 83, 0
1, 140160, Tempo, 429461
1, 140160, Note_on_c, 0, 59, 0
1, 140160, Note_on_c, 0, 76, 49
1, 140160, Note_on_c, 0, 61, 53
1, 140171, Control_c, 0, 64, 0
1, 140220, Note_on_c, 0, 76, 0
1, 140226, Control_c, 0, 64, 127
1, 140280, Note_on_c, 0, 83, 43
1, 140340, Note_on_c, 0, 83, 0
1, 140400, Tempo, 444017
1, 140400, Note_on_c, 0, 61, 0
1, 140400, Note_on_c, 0, 79, 46
1, 140400, Note_on_c, 0, 59, 49
1, 140460, Note_on_c, 0, 79, 0
1, 140520, Note_on_c, 0, 59, 0
1, 140520, Note_on_c, 0, 80, 44
1, 140580, Note_on_c, 0, 80, 0
1, 140640, Tempo, 431810
1, 140640, Note_on_c, 0, 76, 44
1, 140640, Note_on_c, 0, 64, 50
1, 140651, Control_c, 0, 64, 0
1, 140696, Control_c, 0, 64, 127
1, 140700, Note_on_c, 0, 76, 0
1, 140760, Note_on_c, 0, 83, 40
1, 140820, Note_on_c, 0, 83, 0
1, 140880, Note_on_c, 0, 79, 44
1, 140940, Note_on_c, 0, 79, 0
1, 141000, Note_on_c, 0, 80, 40
1, 141060, Note_on_c, 0, 80, 0
1, 141120, Tempo, 436618
1, 141120, Note_on_c, 0, 76, 44
1, 141120, Note_on_c, 0, 52, 37
1, 141120, Note_on_c, 0, 59, 37
1, 141180, Note_on_c, 0, 76, 0
1, 141240, Note_on_c, 0, 83, 39
1, 141300, Note_on_c, 0, 83, 0
1, 141360, Note_on_c, 0, 59, 0
1, 141360, Note_on_c, 0, 52, 0
1, 141360, Note_on_c, 0, 79, 47
1, 141420, Note_on_c, 0, 79, 0
1, 141480, Note_on_c, 0, 80, 43
1, 141540, Note_on_c, 0, 80, 0
1, 141600, Tempo, 429461
1, 141600, Note_on_c, 0, 64, 0
1, 141600, Note_on_c, 0, 76, 49
1, 141600, Note_on_c, 0, 68, 52
1, 141611, Control_c, 0, 64, 0
1, 141660, Note_on_c, 0, 76, 0
1, 141666, Control_c, 0, 64, 127
1, 141720, Note_on_c, 0, 83, 44
1, 141780, Note_on_c, 0, 83, 0
1, 141840, Note_on_c, 0, 68, 0
1, 141840, Note_on_c, 0, 79, 47
1, 141840, Note_on_c, 0, 71, 50
1, 141900, Note_on_c, 0, 79, 0
1, 141960, Note_on_c, 0, 80, 44
1, 142020, Note_on_c, 0, 80, 0
1, 142080, Tempo, 429461
1, 142080, Note_on_c, 0, 71, 0
1, 142080, Note_on_c, 0, 76, 50
1, 142080, Note_on_c, 0, 73, 55
1, 142090, Control_c, 0, 64, 0
1, 142140, Note_on_c, 0, 76, 0
1, 142147, Control_c, 0, 64, 127
1, 142200, Note_on_c, 0, 83, 44
1, 142260, Note_on_c, 0, 83, 0
1, 142320, Tempo, 439560
1, 142320, Note_on_c, 0, 73, 0
1, 142320, Note_on_c, 0, 80, 49
1, 142320, Note_on_c, 0, 71, 49
1, 142380, Note_on_c, 0, 80, 0
1, 142440, Note_on_c, 0, 71, 0
1, 142440, Note_on_c, 0, 85, 44
1, 142500, Note_on_c, 0, 85, 0
1, 142560, Tempo, 429461
1, 142560, Note_on_c, 0, 76, 47
1, 142560, Note_on_c, 0, 68, 51
1, 142564, Control_c, 0, 64, 0
1, 142620, Note_on_c, 0, 76, 0
1, 142645, Control_c, 0, 64, 127
1, 142680, Note_on_c, 0, 83, 43
1, 142740, Note_on_c, 0, 83, 0
1, 142800, Note_on_c, 0, 80, 46
1, 142860, Note_on_c, 0, 80, 0
1, 142920, Note_on_c, 0, 85, 44
1, 142980, Note_on_c, 0, 85, 0
1, 143040, Tempo, 436618
1, 143040, Note_on_c, 0, 76, 44
1, 143040, Note_on_c, 0, 52, 37
1, 143040, Note_on_c, 0, 59, 37
1, 143100, Note_on_c, 0, 76, 0
1, 143160, Note_on_c, 0, 83, 40
1, 143220, Note_on_c, 0, 83, 0
1, 143280, Note_on_c, 0, 59, 0
1, 143280, Note_on_c, 0, 52, 0
1, 143280, Note_on_c, 0, 80, 44
1, 143340, Note_on_c, 0, 80, 0
1, 143400, Note_on_c, 0, 85, 40
1, 143460, Note_on_c, 0, 85, 0
1, 143520, Tempo, 433213
1, 143520, Note_on_c, 0, 68, 0
1, 143520, Note_on_c, 0, 76, 45
1, 143520, Note_on_c, 0, 64, 50
1, 143530, Control_c, 0, 64, 0
1, 143580, Note_on_c, 0, 76, 0
1, 143605, Control_c, 0, 64, 127
1, 143640, Note_on_c, 0, 83, 42
1, 143700, Note_on_c, 0, 83, 0
1, 143760, Note_on_c, 0, 64, 0
1, 143760, Note_on_c, 0, 80, 45
1, 143760, Note_on_c, 0, 61, 48
1, 143820, Note_on_c, 0, 80, 0
1, 143880, Note_on_c, 0, 85, 42
1, 143940, Note_on_c, 0, 85, 0
1, 144000, Note_on_c, 0, 61, 0
1, 144000, Note_on_c, 0, 78, 45
1, 144000, Note_on_c, 0, 68, 50
1, 144010, Control_c, 0, 64, 0
1, 144053, Control_c, 0, 64, 127
1, 144060, Note_on_c, 0, 78, 0
1, 144120, Note_on_c, 0, 83, 42
1, 144180, Note_on_c, 0, 83, 0
1, 144240, Tempo, 439560
1, 144240, Note_on_c, 0, 68, 0
1, 144240, Note_on_c, 0, 81, 47
1, 144240, Note_on_c, 0, 66, 47
1, 144300, Note_on_c, 0, 81, 0
1, 144360, Note_on_c, 0, 66, 0
1, 144360, Note_on_c, 0, 87, 43
1, 144420, Note_on_c, 0, 87, 0
1, 144480, Tempo, 433213
1, 144480, Note_on_c, 0, 78, 47
1, 144480, Note_on_c, 0, 61, 49
1, 144492, Control_c, 0, 64, 0
1, 144540, Note_on_c, 0, 78, 0
1, 144565, Control_c, 0, 64, 127
1, 144600, Note_on_c, 0, 83, 44
1, 144660, Note_on_c, 0, 83, 0
1, 144720, Note_on_c, 0, 81, 46
1, 144780, Note_on_c, 0, 81, 0
1, 144840, Note_on_c, 0, 87, 42
1, 144900, Note_on_c, 0, 87, 0
1, 144960, Tempo, 437956
1, 144960, Note_on_c, 0, 78, 44
1, 144960, Note_on_c, 0, 52, 37
1, 144960, Note_on_c, 0, 54, 37
1, 144960, Note_on_c, 0, 57, 37
1, 145020, Note_on_c, 0, 78, 0
1, 145080, Note_on_c, 0, 83, 40
1, 145140, Note_on_c, 0, 83, 0
1, 145200, Note_on_c, 0, 57, 0
1, 145200, Note_on_c, 0, 54, 0
1, 145200, Note_on_c, 0, 52, 0
1, 145200, Note_on_c, 0, 81, 44
1, 145260, Note_on_c, 0, 81, 0
1, 145320, Note_on_c, 0, 87, 40
1, 145380, Note_on_c, 0, 87, 0
1, 145440, Tempo, 433213
1, 145440, Note_on_c, 0, 61, 0
1, 145440, Note_on_c, 0, 78, 47
1, 145440, Note_on_c, 0, 61, 48
1, 145449, Control_c, 0, 64, 0
1, 145500, Note_on_c, 0, 78, 0
1, 145511, Control_c, 0, 64, 127
1, 145560, Note_on_c, 0, 83, 44
1, 145620, Note_on_c, 0, 83, 0
1, 145680, Tempo, 441176
1, 145680, Note_on_c, 0, 61, 0
1, 145680, Note_on_c, 0, 81, 47
1, 145680, Note_on_c, 0, 59, 41
1, 145740, Note_on_c, 0, 81, 0
1, 145800, Note_on_c, 0, 87, 45
1, 145860, Note_on_c, 0, 87, 0
1, 145920, Tempo, 434783
1, 145920, Note_on_c, 0, 59, 0
1, 145920, Note_on_c, 0, 81, 49
1, 145920, Note_on_c, 0, 66, 48
1, 145930, Control_c, 0, 64, 0
1, 145980, Note_on_c, 0, 81, 0
1, 145980, Control_c, 0, 64, 127
1, 146040, Note_on_c, 0, 83, 44
1, 146100, Note_on_c, 0, 83, 0
1, 146160, Note_on_c, 0, 66, 0
1, 146160, Note_on_c, 0, 80, 47
1, 146160, Note_on_c, 0, 64, 41
1, 146220, Note_on_c, 0, 80, 0
1, 146280, Note_on_c, 0, 64, 0
1, 146280, Note_on_c, 0, 88, 44
1, 146340, Note_on_c, 0, 88, 0
1, 146400, Note_on_c, 0, 79, 50
1, 146400, Note_on_c, 0, 59, 48
1, 146409, Control_c, 0, 64, 0
1, 146460, Note_on_c, 0, 79, 0
1, 146491, Control_c, 0, 64, 127
1, 146520, Note_on_c, 0, 83, 44
1, 146580, Note_on_c, 0, 83, 0
1, 146640, Tempo, 439560
1, 146640, Note_on_c, 0, 80, 47
1, 146700, Note_on_c, 0, 80, 0
1, 146760, Note_on_c, 0, 88, 43
1, 146820, Note_on_c, 0, 88, 0
1, 146880, Tempo, 442804
1, 146880, Note_on_c, 0, 79, 50
1, 146880, Note_on_c, 0, 52, 41
1, 146891, Control_c, 0, 64, 0
1, 146940, Note_on_c, 0, 79, 0
1, 146983, Control_c, 0, 64, 127
1, 147000, Note_on_c, 0, 83, 45
1, 147060, Note_on_c, 0, 83, 0
1, 147120, Tempo, 452830
1, 147120, Note_on_c, 0, 52, 0
1, 147120, Note_on_c, 0, 80, 46
1, 147180, Note_on_c, 0, 80, 0
1, 147240, Note_on_c, 0, 88, 43
1, 147300, Note_on_c, 0, 88, 0
1, 147360, Tempo, 442804
1, 147360, Note_on_c, 0, 59, 0
1, 147360, Note_on_c, 0, 79, 45
1, 147360, Note_on_c, 0, 58, 40
1, 147366, Control_c, 0, 64, 0
1, 147420, Note_on_c, 0, 79, 0
1, 147437, Control_c, 0, 64, 127
1, 147480, Note_on_c, 0, 85, 42
1, 147540, Note_on_c, 0, 85, 0
1, 147600, Note_on_c, 0, 58, 0
1, 147600, Note_on_c, 0, 80, 44
1, 147600, Note_on_c, 0, 59, 37
1, 147660, Note_on_c, 0, 80, 0
1, 147720, Note_on_c, 0, 83, 36
1, 147780, Note_on_c, 0, 83, 0
1, 147840, Tempo, 434783
1, 147840, Note_on_c, 0, 59, 0
1, 147840, Note_on_c, 0, 76, 49
1, 147840, Note_on_c, 0, 61, 42
1, 147848, Control_c, 0, 64, 0
1, 147889, Control_c, 0, 64, 127
1, 147900, Note_on_c, 0, 76, 0
1, 147960, Note_on_c, 0, 83, 44
1, 148020, Note_on_c, 0, 83, 0
1, 148080, Note_on_c, 0, 61, 0
1, 148080, Note_on_c, 0, 79, 47
1, 148080, Note_on_c, 0, 59, 39
1, 148140, Note_on_c, 0, 79, 0
1, 148200, Note_on_c, 0, 59, 0
1, 148200, Note_on_c, 0, 80, 44
1, 148260, Note_on_c, 0, 80, 0
1, 148320, Note_on_c, 0, 71, 47
1, 148320, Note_on_c, 0, 56, 42
1, 148326, Control_c, 0, 64, 0
1, 148380, Note_on_c, 0, 71, 0
1, 148411, Control_c, 0, 64, 127
1, 148440, Note_on_c, 0, 76, 44
1, 148500, Note_on_c, 0, 76, 0
1, 148560, Tempo, 439560
1, 148560, Note_on_c, 0, 75, 47
1, 148620, Note_on_c, 0, 75, 0
1, 148680, Note_on_c, 0, 76, 43
1, 148740, Note_on_c, 0, 76, 0
1, 148800, Tempo, 442804
1, 148800, Note_on_c, 0, 71, 46
1, 148800, Note_on_c, 0, 52, 39
1, 148811, Control_c, 0, 64, 0
1, 148860, Note_on_c, 0, 71, 0
1, 148903, Control_c, 0, 64, 127
1, 148920, Note_on_c, 0, 76, 43
1, 148980, Note_on_c, 0, 76, 0
1, 149040, Tempo, 452830
1, 149040, Note_on_c, 0, 75, 45
1, 149100, Note_on_c, 0, 75, 0
1, 149160, Note_on_c, 0, 76, 43
1, 149220, Note_on_c, 0, 76, 0
1, 149280, Tempo, 442804
1, 149280, Note_on_c, 0, 56, 0
1, 149280, Note_on_c, 0, 71, 45
1, 149280, Note_on_c, 0, 55, 40
1, 149291, Control_c, 0, 64, 0
1, 149340, Note_on_c, 0, 71, 0
1, 149346, Control_c, 0, 64, 127
1, 149400, Note_on_c, 0, 76, 42
1, 149460, Note_on_c, 0, 76, 0
1, 149520, Note_on_c, 0, 55, 0
1, 149520, Note_on_c, 0, 75, 44
1, 149520, Note_on_c, 0, 56, 37
1, 149580, Note_on_c, 0, 75, 0
1, 149640, Note_on_c, 0, 76, 36
1, 149700, Note_on_c, 0, 76, 0
1, 149760, Tempo, 434783
1, 149760, Note_on_c, 0, 56, 0
1, 149760, Note_on_c, 0, 64, 43
1, 149760, Note_on_c, 0, 57, 42
1, 149769, Control_c, 0, 64, 0
1, 149800, Control_c, 0, 64, 127
1, 149820, Note_on_c, 0, 64, 0
1, 149880, Note_on_c, 0, 71, 39
1, 149940, Note_on_c, 0, 71, 0
1, 150000, Note_on_c, 0, 57, 0
1, 150000, Note_on_c, 0, 52, 0
1, 150000, Note_on_c, 0, 70, 43
1, 150000, Note_on_c, 0, 56, 39
1, 150060, Note_on_c, 0, 70, 0
1, 150120, Note_on_c, 0, 71, 37
1, 150180, Note_on_c, 0, 71, 0
1, 150240, Note_on_c, 0, 56, 0
1, 150240, Note_on_c, 0, 59, 43
1, 150240, Note_on_c, 0, 52, 40
1, 150246, Control_c, 0, 64, 0
1, 150294, Control_c, 0, 64, 127
1, 150300, Note_on_c, 0, 59, 0
1, 150360, Note_on_c, 0, 68, 36
1, 150420, Note_on_c, 0, 68, 0
1, 150480, Tempo, 439560
1, 150480, Note_on_c, 0, 67, 43
1, 150540, Note_on_c, 0, 67, 0
1, 150600, Note_on_c, 0, 68, 36
1, 150660, Note_on_c, 0, 68, 0
1, 150720, Tempo, 442804
1, 150720, Note_on_c, 0, 52, 0
1, 150720, Note_on_c, 0, 59, 43
1, 150720, Note_on_c, 0, 40, 39
1, 150732, Control_c, 0, 64, 0
1, 150766, Control_c, 0, 64, 127
1, 150780, Note_on_c, 0, 59, 0
1, 150840, Note_on_c, 0, 68, 36
1, 150900, Note_on_c, 0, 68, 0
1, 150960, Tempo, 452830
1, 150960, Note_on_c, 0, 67, 42
1, 151020, Note_on_c, 0, 67, 0
1, 151080, Note_on_c, 0, 68, 36
1, 151140, Note_on_c, 0, 68, 0
1, 151200, Tempo, 447761
1, 151200, Note_on_c, 0, 56, 42
1, 151200, Note_on_c, 0, 46, 40
1, 151209, Control_c, 0, 64, 0
1, 151260, Note_on_c, 0, 56, 0
1, 151269, Control_c, 0, 64, 127
1, 151320, Note_on_c, 0, 64, 36
1, 151380, Note_on_c, 0, 64, 0
1, 151440, Note_on_c, 0, 46, 0
1, 151440, Note_on_c, 0, 63, 41
1, 151440, Note_on_c, 0, 47, 37
1, 151500, Note_on_c, 0, 63, 0
1, 151560, Note_on_c, 0, 64, 36
1, 151620, Note_on_c, 0, 64, 0
1, 151660, Tempo, 449438
1, 151680, Note_on_c, 0, 47, 0
1, 151680, Note_on_c, 0, 56, 37
1, 151680, Note_on_c, 0, 49, 42
1, 151690, Control_c, 0, 64, 0
1, 151740, Tempo, 451128
1, 151740, Note_on_c, 0, 56, 0
1, 151749, Control_c, 0, 64, 127
1, 151780, Tempo, 452830
1, 151800, Note_on_c, 0, 64, 35
1, 151860, Tempo, 454545
1, 151860, Note_on_c, 0, 64, 0
1, 151900, Tempo, 456274
1, 151920, Note_on_c, 0, 49, 0
1, 151920, Note_on_c, 0, 63, 37
1, 151920, Note_on_c, 0, 47, 39
1, 151940, Tempo, 458015
1, 151980, Note_on_c, 0, 63, 0
1, 152020, Tempo, 459770
1, 152040, Note_on_c, 0, 47, 0
1, 152040, Note_on_c, 0, 64, 34
1, 152060, Tempo, 461538
1, 152100, Tempo, 463320
1, 152100, Note_on_c, 0, 64, 0
1, 152160, Note_on_c, 0, 52, 37
1, 152160, Note_on_c, 0, 44, 40
1, 152178, Control_c, 0, 64, 0
1, 152180, Tempo, 465116
1, 152217, Control_c, 0, 64, 127
1, 152220, Tempo, 466926
1, 152220, Note_on_c, 0, 52, 0
1, 152260, Tempo, 468750
1, 152280, Note_on_c, 0, 59, 32
1, 152340, Tempo, 470588
1, 152340, Note_on_c, 0, 59, 0
1, 152380, Tempo, 472441
1, 152400, Note_on_c, 0, 58, 37
1, 152420, Tempo, 474308
1, 152460, Note_on_c, 0, 58, 0
1, 152500, Tempo, 476190
1, 152520, Note_on_c, 0, 59, 32
1, 152540, Tempo, 478088
1, 152580, Tempo, 480000
1, 152580, Note_on_c, 0, 59, 0
1, 152640, Note_on_c, 0, 40, 0
1, 152640, Note_on_c, 0, 52, 37
1, 152640, Note_on_c, 0, 40, 39
1, 152651, Control_c, 0, 64, 0
1, 152660, Tempo, 481928
1, 152694, Control_c, 0, 64, 127
1, 152700, Tempo, 483871
1, 152700, Note_on_c, 0, 52, 0
1, 152740, Tempo, 485830
1, 152760, Note_on_c, 0, 59, 33
1, 152820, Tempo, 487805
1, 152820, Note_on_c, 0, 59, 0
1, 152860, Tempo, 489796
1, 152880, Note_on_c, 0, 58, 36
1, 152940, Tempo, 491803
1, 152940, Note_on_c, 0, 58, 0
1, 152980, Tempo, 493827
1, 153000, Note_on_c, 0, 59, 33
1, 153020, Tempo, 495868
1, 153060, Note_on_c, 0, 59, 0
1, 153100, Tempo, 497925
1, 153120, Note_on_c, 0, 44, 0
1, 153120, Note_on_c, 0, 52, 36
1, 153120, Note_on_c, 0, 43, 40
1, 153130, Control_c, 0, 64, 0
1, 153140, Tempo, 500000
1, 153175, Control_c, 0, 64, 127
1, 153180, Note_on_c, 0, 52, 0
1, 153240, Note_on_c, 0, 59, 33
1, 153300, Note_on_c, 0, 59, 0
1, 153360, Note_on_c, 0, 58, 36
1, 153420, Note_on_c, 0, 58, 0
1, 153480, Note_on_c, 0, 59, 33
1, 153540, Note_on_c, 0, 59, 0
1, 153600, Note_on_c, 0, 43, 0
1, 153600, Note_on_c, 0, 52, 37
1, 153600, Note_on_c, 0, 44, 42
1, 153609, Control_c, 0, 64, 0
1, 153649, Control_c, 0, 64, 127
1, 153660, Note_on_c, 0, 52, 0
1, 153720, Note_on_c, 0, 59, 35
1, 153780, Note_on_c, 0, 59, 0
1, 153840, Note_on_c, 0, 58, 37
1, 153900, Note_on_c, 0, 58, 0
1, 153960, Note_on_c, 0, 59, 34
1, 154020, Note_on_c, 0, 59, 0
1, 154060, Tempo, 517241
1, 154080, Note_on_c, 0, 44, 0
1, 154080, Note_on_c, 0, 52, 37
1, 154080, Note_on_c, 0, 45, 40
1, 154094, Control_c, 0, 64, 0
1, 154132, Control_c, 0, 64, 127
1, 154140, Note_on_c, 0, 52, 0
1, 154180, Tempo, 519481
1, 154200, Note_on_c, 0, 59, 32
1, 154260, Tempo, 521739
1, 154260, Note_on_c, 0, 59, 0
1, 154320, Note_on_c, 0, 58, 37
1, 154340, Tempo, 524017
1, 154380, Note_on_c, 0, 58, 0
1, 154420, Tempo, 526316
1, 154440, Note_on_c, 0, 59, 32
1, 154500, Tempo, 528634
1, 154500, Note_on_c, 0, 59, 0
1, 154560, Note_on_c, 0, 45, 0
1, 154560, Note_on_c, 0, 40, 0
1, 154560, Note_on_c, 0, 52, 37
1, 154560, Note_on_c, 0, 44, 42
1, 154560, Note_on_c, 0, 40, 39
1, 154571, Control_c, 0, 64, 0
1, 154580, Tempo, 530973
1, 154614, Control_c, 0, 64, 127
1, 154620, Note_on_c, 0, 52, 0
1, 154660, Tempo, 533333
1, 154680, Note_on_c, 0, 59, 33
1, 154740, Tempo, 535714
1, 154740, Note_on_c, 0, 59, 0
1, 154800, Note_on_c, 0, 58, 36
1, 154820, Tempo, 538117
1, 154860, Note_on_c, 0, 58, 0
1, 154900, Tempo, 540541
1, 154920, Note_on_c, 0, 59, 33
1, 154980, Tempo, 542986
1, 154980, Note_on_c, 0, 59, 0
1, 155040, Note_on_c, 0, 44, 0
1, 155040, Note_on_c, 0, 52, 36
1, 155040, Note_on_c, 0, 43, 40
1, 155048, Control_c, 0, 64, 0
1, 155060, Tempo, 545455
1, 155093, Control_c, 0, 64, 127
1, 155100, Note_on_c, 0, 52, 0
1, 155140, Tempo, 547945
1, 155160, Note_on_c, 0, 59, 33
1, 155220, Tempo, 550459
1, 155220, Note_on_c, 0, 59, 0
1, 155280, Note_on_c, 0, 58, 36
1, 155300, Tempo, 552995
1, 155340, Note_on_c, 0, 58, 0
1, 155380, Tempo, 555556
1, 155400, Note_on_c, 0, 59, 33
1, 155460, Tempo, 558140
1, 155460, Note_on_c, 0, 59, 0
1, 155500, Tempo, 612245
1, 155520, Note_on_c, 0, 43, 0
1, 155520, Note_on_c, 0, 52, 37
1, 155520, Note_on_c, 0, 44, 39
1, 155530, Control_c, 0, 64, 0
1, 155573, Control_c, 0, 64, 127
1, 155580, Tempo, 615385
1, 155580, Note_on_c, 0, 52, 0
1, 155620, Tempo, 618557
1, 155640, Note_on_c, 0, 59, 35
1, 155660, Tempo, 621762
1, 155700, Note_on_c, 0, 59, 0
1, 155740, Tempo, 625000
1, 155760, Note_on_c, 0, 58, 37
1, 155780, Tempo, 628272
1, 155820, Tempo, 631579
1, 155820, Note_on_c, 0, 58, 0
1, 155880, Note_on_c, 0, 59, 33
1, 155900, Tempo, 634921
1, 155940, Tempo, 638298
1, 155940, Note_on_c, 0, 59, 0
1, 155980, Tempo, 641711
1, 156000, Note_on_c, 0, 52, 36
1, 156012, Control_c, 0, 64, 0
1, 156051, Control_c, 0, 64, 127
1, 156060, Tempo, 645161
1, 156060, Note_on_c, 0, 52, 0
1, 156100, Tempo, 648649
1, 156120, Note_on_c, 0, 59, 30
1, 156140, Tempo, 652174
1, 156180, Note_on_c, 0, 59, 0
1, 156220, Tempo, 655738
1, 156240, Note_on_c, 0, 58, 36
1, 156260, Tempo, 659341
1, 156300, Note_on_c, 0, 58, 0
1, 156340, Tempo, 662983
1, 156360, Note_on_c, 0, 59, 30
1, 156380, Tempo, 666667
1, 156420, Tempo, 670391
1, 156420, Note_on_c, 0, 59, 0
1, 156480, Tempo, 705882
1, 156480, Note_on_c, 0, 52, 35
1, 156492, Control_c, 0, 64, 0
1, 156520, Tempo, 710059
1, 156529, Control_c, 0, 64, 127
1, 156540, Note_on_c, 0, 52, 0
1, 156560, Tempo, 714286
1, 156600, Tempo, 722892
1, 156600, Note_on_c, 0, 59, 30
1, 156640, Tempo, 727273
1, 156660, Note_on_c, 0, 59, 0
1, 156680, Tempo, 731707
1, 156720, Tempo, 740741
1, 156720, Note_on_c, 0, 58, 31
1, 156760, Tempo, 745342
1, 156780, Note_on_c, 0, 58, 0
1, 156800, Tempo, 750000
1, 156840, Tempo, 759494
1, 156840, Note_on_c, 0, 59, 25
1, 156880, Tempo, 764331
1, 156900, Note_on_c, 0, 59, 0
1, 156920, Tempo, 769231
1, 156960, Tempo, 779221
1, 156960, Note_on_c, 0, 52, 27
1, 156974, Control_c, 0, 64, 0
1, 157000, Tempo, 784314
1, 157020, Note_on_c, 0, 52, 0
1, 157023, Control_c, 0, 64, 127
1, 157040, Tempo, 789474
1, 157080, Tempo, 800000
1, 157080, Note_on_c, 0, 59, 23
1, 157120, Tempo, 805369
1, 157140, Note_on_c, 0, 59, 0
1, 157160, Tempo, 810811
1, 157200, Tempo, 821918
1, 157200, Note_on_c, 0, 58, 27
1, 157240, Tempo, 827586
1, 157260, Note_on_c, 0, 58, 0
1, 157280, Tempo, 833333
1, 157320, Tempo, 1200000
1, 157320, Note_on_c, 0, 59, 24
1, 157380, Note_on_c, 0, 59, 0
1, 157440, Tempo, 600000
1, 157440, Note_on_c, 0, 52, 22
1, 157446, Control_c, 0, 64, 0
1, 157680, Note_on_c, 0, 52, 0
1, 157962, Control_c, 0, 64, 127
1, 159360, Tempo, 666667
1, 159360, Note_on_c, 0, 44, 0
1, 159360, Note_on_c, 0, 40, 0
1, 160586, Control_c, 0, 64, 0
1, 160586, End_track
0, 0, End_of_file
