0, 0, Header, 0, 1, 480
1, 0, Start_track
1, 0, Title_t, "Beethoven Sonata No. 21 in C major"
1, 0, Title_t, "3. Movement"
1, 0, Copyright_t, "Copyright © 2003 by Bernd Krueger "
1, 0, Text_t, "Ludwig van Beethoven"
1, 0, Text_t, "Rondo: Allegretto moderato"
1, 0, Text_t, "Fertiggestellt am  29.11.2003\012"
1, 0, Text_t, "Ab Prestissimo (Takt 403) Noten halbiert, 4/8- Takt\012"
1, 0, Text_t, "Update am 11.7.2012\012"
1, 0, Text_t, "Dauer: 9:42 Minuten\012"
1, 0, SMPTE_offset, 96, 0, 3, 0, 0
1, 0, Time_signature, 2, 2, 24, 8
1, 0, Key_signature, 0, "major"
1, 0, Tempo, 652813
1, 0, Program_c, 0, 1
1, 0, Control_c, 0, 7, 100
1, 0, Control_c, 0, 10, 64
1, 0, Program_c, 0, 1
1, 0, Control_c, 0, 7, 100
1, 0, Control_c, 0, 10, 64
1, 0, Control_c, 0, 91, 127
1, 0, Text_t, "bdca426d104a26ac9dcb070447587523"
1, 0, Program_c, 0, 1
1, 0, Control_c, 0, 7, 100
1, 0, Control_c, 0, 10, 64
1, 0, Note_on_c, 0, 36, 50
1, 40, Tempo, 658328
1, 78, Control_c, 0, 64, 127
1, 120, Tempo, 654664
1, 120, Note_on_c, 0, 52, 28
1, 200, Tempo, 651183
1, 240, Tempo, 647598
1, 240, Note_on_c, 0, 52, 0
1, 240, Note_on_c, 0, 36, 0
1, 240, Note_on_c, 0, 55, 30
1, 320, Tempo, 644122
1, 360, Tempo, 640683
1, 360, Note_on_c, 0, 55, 0
1, 360, Note_on_c, 0, 60, 32
1, 440, Tempo, 637281
1, 480, Tempo, 633914
1, 480, Note_on_c, 0, 60, 0
1, 480, Note_on_c, 0, 64, 34
1, 480, Note_on_c, 0, 79, 50
1, 600, Note_on_c, 0, 64, 0
1, 600, Note_on_c, 0, 52, 31
1, 720, Note_on_c, 0, 52, 0
1, 720, Note_on_c, 0, 79, 0
1, 720, Note_on_c, 0, 55, 31
1, 840, Note_on_c, 0, 55, 0
1, 840, Note_on_c, 0, 60, 31
1, 960, Tempo, 608149
1, 960, Note_on_c, 0, 60, 0
1, 960, Note_on_c, 0, 64, 35
1, 960, Note_on_c, 0, 79, 54
1, 1080, Note_on_c, 0, 64, 0
1, 1080, Note_on_c, 0, 52, 30
1, 1200, Note_on_c, 0, 52, 0
1, 1200, Note_on_c, 0, 55, 31
1, 1320, Note_on_c, 0, 55, 0
1, 1320, Note_on_c, 0, 60, 33
1, 1440, Note_on_c, 0, 60, 0
1, 1440, Note_on_c, 0, 64, 36
1, 1560, Note_on_c, 0, 64, 0
1, 1560, Note_on_c, 0, 52, 33
1, 1680, Note_on_c, 0, 52, 0
1, 1680, Note_on_c, 0, 79, 0
1, 1680, Note_on_c, 0, 55, 33
1, 1680, Note_on_c, 0, 76, 47
1, 1800, Note_on_c, 0, 55, 0
1, 1800, Note_on_c, 0, 60, 33
1, 1920, Tempo, 573230
1, 1920, Note_on_c, 0, 60, 0
1, 1920, Note_on_c, 0, 76, 0
1, 1920, Note_on_c, 0, 74, 50
1, 1930, Control_c, 0, 64, 0
1, 2005, Control_c, 0, 64, 127
1, 2040, Note_on_c, 0, 53, 28
1, 2160, Note_on_c, 0, 53, 0
1, 2160, Note_on_c, 0, 55, 31
1, 2280, Note_on_c, 0, 55, 0
1, 2280, Note_on_c, 0, 59, 33
1, 2400, Tempo, 596066
1, 2400, Note_on_c, 0, 59, 0
1, 2400, Note_on_c, 0, 74, 0
1, 2400, Note_on_c, 0, 62, 36
1, 2400, Note_on_c, 0, 67, 41
1, 2520, Note_on_c, 0, 62, 0
1, 2520, Note_on_c, 0, 53, 33
1, 2640, Note_on_c, 0, 53, 0
1, 2640, Note_on_c, 0, 55, 33
1, 2760, Note_on_c, 0, 55, 0
1, 2760, Note_on_c, 0, 59, 34
1, 2880, Tempo, 616903
1, 2880, Note_on_c, 0, 59, 0
1, 2880, Note_on_c, 0, 67, 0
1, 2880, Note_on_c, 0, 72, 50
1, 2892, Control_c, 0, 64, 0
1, 2972, Control_c, 0, 64, 127
1, 3000, Note_on_c, 0, 52, 28
1, 3120, Note_on_c, 0, 52, 0
1, 3120, Note_on_c, 0, 55, 30
1, 3240, Note_on_c, 0, 55, 0
1, 3240, Note_on_c, 0, 60, 32
1, 3360, Note_on_c, 0, 60, 0
1, 3360, Note_on_c, 0, 72, 0
1, 3360, Note_on_c, 0, 64, 34
1, 3360, Note_on_c, 0, 76, 47
1, 3480, Note_on_c, 0, 64, 0
1, 3480, Note_on_c, 0, 52, 32
1, 3600, Note_on_c, 0, 52, 0
1, 3600, Note_on_c, 0, 76, 0
1, 3600, Note_on_c, 0, 55, 32
1, 3720, Tempo, 604839
1, 3720, Note_on_c, 0, 55, 0
1, 3720, Note_on_c, 0, 60, 33
1, 3720, Note_on_c, 0, 48, 31
1, 3800, Tempo, 623182
1, 3840, Note_on_c, 0, 48, 0
1, 3840, Note_on_c, 0, 60, 0
1, 3840, Control_c, 0, 91, 127
1, 3840, Text_t, "bdca426d104a26ac9dcb070447587523"
1, 3840, Note_on_c, 0, 36, 50
1, 3862, Control_c, 0, 64, 0
1, 3880, Tempo, 620027
1, 3960, Tempo, 616903
1, 3960, Note_on_c, 0, 52, 28
1, 3960, Control_c, 0, 64, 127
1, 4000, Tempo, 613936
1, 4080, Tempo, 610811
1, 4080, Note_on_c, 0, 52, 0
1, 4080, Note_on_c, 0, 36, 0
1, 4080, Note_on_c, 0, 55, 30
1, 4160, Tempo, 607841
1, 4200, Tempo, 604839
1, 4200, Note_on_c, 0, 55, 0
1, 4200, Note_on_c, 0, 60, 32
1, 4280, Tempo, 601866
1, 4320, Tempo, 598982
1, 4320, Note_on_c, 0, 60, 0
1, 4320, Note_on_c, 0, 64, 34
1, 4320, Note_on_c, 0, 79, 50
1, 4440, Note_on_c, 0, 64, 0
1, 4440, Note_on_c, 0, 52, 31
1, 4560, Note_on_c, 0, 52, 0
1, 4560, Note_on_c, 0, 79, 0
1, 4560, Note_on_c, 0, 55, 31
1, 4680, Note_on_c, 0, 55, 0
1, 4680, Note_on_c, 0, 60, 31
1, 4800, Tempo, 584795
1, 4800, Note_on_c, 0, 60, 0
1, 4800, Note_on_c, 0, 64, 35
1, 4800, Note_on_c, 0, 79, 54
1, 4920, Note_on_c, 0, 64, 0
1, 4920, Note_on_c, 0, 52, 30
1, 5040, Note_on_c, 0, 52, 0
1, 5040, Note_on_c, 0, 55, 31
1, 5160, Note_on_c, 0, 55, 0
1, 5160, Note_on_c, 0, 60, 33
1, 5280, Note_on_c, 0, 60, 0
1, 5280, Note_on_c, 0, 64, 36
1, 5400, Note_on_c, 0, 64, 0
1, 5400, Note_on_c, 0, 52, 33
1, 5520, Note_on_c, 0, 52, 0
1, 5520, Note_on_c, 0, 79, 0
1, 5520, Note_on_c, 0, 55, 33
1, 5520, Note_on_c, 0, 76, 47
1, 5640, Note_on_c, 0, 55, 0
1, 5640, Note_on_c, 0, 60, 33
1, 5760, Tempo, 560852
1, 5760, Note_on_c, 0, 60, 0
1, 5760, Note_on_c, 0, 76, 0
1, 5760, Note_on_c, 0, 74, 50
1, 5773, Control_c, 0, 64, 0
1, 5852, Control_c, 0, 64, 127
1, 5880, Note_on_c, 0, 53, 28
1, 6000, Note_on_c, 0, 53, 0
1, 6000, Note_on_c, 0, 55, 31
1, 6120, Note_on_c, 0, 55, 0
1, 6120, Note_on_c, 0, 59, 33
1, 6240, Tempo, 584795
1, 6240, Note_on_c, 0, 59, 0
1, 6240, Note_on_c, 0, 74, 0
1, 6240, Note_on_c, 0, 62, 36
1, 6240, Note_on_c, 0, 67, 41
1, 6360, Note_on_c, 0, 62, 0
1, 6360, Note_on_c, 0, 53, 33
1, 6480, Note_on_c, 0, 53, 0
1, 6480, Note_on_c, 0, 55, 33
1, 6600, Note_on_c, 0, 55, 0
1, 6600, Note_on_c, 0, 59, 34
1, 6720, Tempo, 598982
1, 6720, Note_on_c, 0, 59, 0
1, 6720, Note_on_c, 0, 67, 0
1, 6720, Note_on_c, 0, 72, 50
1, 6736, Control_c, 0, 64, 0
1, 6798, Control_c, 0, 64, 127
1, 6960, Note_on_c, 0, 72, 0
1, 6960, Note_on_c, 0, 52, 30
1, 7080, Note_on_c, 0, 52, 0
1, 7080, Note_on_c, 0, 55, 32
1, 7200, Note_on_c, 0, 55, 0
1, 7200, Note_on_c, 0, 60, 34
1, 7320, Note_on_c, 0, 60, 0
1, 7320, Note_on_c, 0, 64, 32
1, 7440, Note_on_c, 0, 64, 0
1, 7440, Note_on_c, 0, 62, 32
1, 7560, Tempo, 601866
1, 7560, Note_on_c, 0, 62, 0
1, 7560, Note_on_c, 0, 60, 33
1, 7560, Note_on_c, 0, 43, 30
1, 7680, Tempo, 629459
1, 7680, Note_on_c, 0, 43, 0
1, 7680, Note_on_c, 0, 60, 0
1, 7680, Note_on_c, 0, 59, 35
1, 7680, Control_c, 0, 91, 127
1, 7680, Text_t, "bdca426d104a26ac9dcb070447587523"
1, 7680, Note_on_c, 0, 31, 45
1, 7689, Control_c, 0, 64, 0
1, 7786, Control_c, 0, 64, 127
1, 7800, Tempo, 610811
1, 7800, Note_on_c, 0, 59, 0
1, 7800, Note_on_c, 0, 55, 28
1, 7880, Tempo, 607841
1, 7920, Tempo, 604839
1, 7920, Note_on_c, 0, 55, 0
1, 7920, Note_on_c, 0, 31, 0
1, 7920, Note_on_c, 0, 59, 30
1, 7960, Tempo, 601866
1, 8000, Tempo, 598982
1, 8040, Tempo, 596066
1, 8040, Note_on_c, 0, 59, 0
1, 8040, Note_on_c, 0, 62, 32
1, 8080, Tempo, 593237
1, 8120, Tempo, 590319
1, 8160, Tempo, 590319
1, 8160, Note_on_c, 0, 62, 0
1, 8160, Note_on_c, 0, 67, 34
1, 8160, Note_on_c, 0, 77, 50
1, 8280, Note_on_c, 0, 67, 0
1, 8280, Note_on_c, 0, 55, 31
1, 8400, Note_on_c, 0, 55, 0
1, 8400, Note_on_c, 0, 77, 0
1, 8400, Note_on_c, 0, 59, 31
1, 8520, Note_on_c, 0, 59, 0
1, 8520, Note_on_c, 0, 62, 31
1, 8640, Tempo, 573888
1, 8640, Note_on_c, 0, 62, 0
1, 8640, Note_on_c, 0, 67, 35
1, 8640, Note_on_c, 0, 77, 54
1, 8760, Note_on_c, 0, 67, 0
1, 8760, Note_on_c, 0, 55, 30
1, 8880, Note_on_c, 0, 55, 0
1, 8880, Note_on_c, 0, 59, 31
1, 9000, Note_on_c, 0, 59, 0
1, 9000, Note_on_c, 0, 62, 33
1, 9120, Note_on_c, 0, 62, 0
1, 9120, Note_on_c, 0, 67, 36
1, 9240, Note_on_c, 0, 67, 0
1, 9240, Note_on_c, 0, 55, 33
1, 9360, Note_on_c, 0, 55, 0
1, 9360, Note_on_c, 0, 77, 0
1, 9360, Note_on_c, 0, 59, 33
1, 9360, Note_on_c, 0, 74, 47
1, 9480, Note_on_c, 0, 59, 0
1, 9480, Note_on_c, 0, 67, 33
1, 9600, Tempo, 550812
1, 9600, Note_on_c, 0, 67, 0
1, 9600, Note_on_c, 0, 74, 0
1, 9600, Note_on_c, 0, 76, 50
1, 9611, Control_c, 0, 64, 0
1, 9692, Control_c, 0, 64, 127
1, 9720, Note_on_c, 0, 55, 28
1, 9840, Note_on_c, 0, 55, 0
1, 9840, Note_on_c, 0, 60, 31
1, 9960, Note_on_c, 0, 60, 0
1, 9960, Note_on_c, 0, 67, 33
1, 10080, Tempo, 573888
1, 10080, Note_on_c, 0, 67, 0
1, 10080, Note_on_c, 0, 76, 0
1, 10080, Note_on_c, 0, 72, 41
1, 10200, Note_on_c, 0, 55, 28
1, 10320, Note_on_c, 0, 55, 0
1, 10320, Note_on_c, 0, 64, 31
1, 10440, Note_on_c, 0, 64, 0
1, 10440, Note_on_c, 0, 67, 33
1, 10560, Tempo, 582016
1, 10560, Note_on_c, 0, 67, 0
1, 10560, Note_on_c, 0, 72, 0
1, 10560, Note_on_c, 0, 71, 50
1, 10579, Control_c, 0, 64, 0
1, 10638, Control_c, 0, 64, 127
1, 10680, Note_on_c, 0, 55, 28
1, 10800, Note_on_c, 0, 55, 0
1, 10800, Note_on_c, 0, 62, 30
1, 10920, Note_on_c, 0, 62, 0
1, 10920, Note_on_c, 0, 67, 32
1, 11040, Note_on_c, 0, 67, 0
1, 11040, Note_on_c, 0, 71, 0
1, 11040, Note_on_c, 0, 74, 47
1, 11160, Note_on_c, 0, 55, 28
1, 11280, Note_on_c, 0, 55, 0
1, 11280, Note_on_c, 0, 74, 0
1, 11280, Note_on_c, 0, 59, 30
1, 11400, Tempo, 601866
1, 11400, Note_on_c, 0, 59, 0
1, 11400, Note_on_c, 0, 67, 32
1, 11400, Note_on_c, 0, 43, 32
1, 11520, Tempo, 629459
1, 11520, Note_on_c, 0, 43, 0
1, 11520, Note_on_c, 0, 67, 0
1, 11520, Control_c, 0, 91, 127
1, 11520, Text_t, "bdca426d104a26ac9dcb070447587523"
1, 11520, Note_on_c, 0, 31, 48
1, 11528, Control_c, 0, 64, 0
1, 11633, Control_c, 0, 64, 127
1, 11640, Tempo, 610811
1, 11640, Note_on_c, 0, 55, 28
1, 11720, Tempo, 607841
1, 11760, Tempo, 604839
1, 11760, Note_on_c, 0, 55, 0
1, 11760, Note_on_c, 0, 31, 0
1, 11760, Note_on_c, 0, 59, 30
1, 11800, Tempo, 601866
1, 11840, Tempo, 598982
1, 11880, Tempo, 596066
1, 11880, Note_on_c, 0, 59, 0
1, 11880, Note_on_c, 0, 62, 32
1, 11920, Tempo, 593237
1, 11960, Tempo, 590319
1, 12000, Tempo, 590319
1, 12000, Note_on_c, 0, 62, 0
1, 12000, Note_on_c, 0, 67, 34
1, 12000, Note_on_c, 0, 77, 50
1, 12120, Note_on_c, 0, 67, 0
1, 12120, Note_on_c, 0, 55, 31
1, 12240, Note_on_c, 0, 55, 0
1, 12240, Note_on_c, 0, 77, 0
1, 12240, Note_on_c, 0, 59, 31
1, 12360, Note_on_c, 0, 59, 0
1, 12360, Note_on_c, 0, 62, 31
1, 12480, Tempo, 558347
1, 12480, Note_on_c, 0, 62, 0
1, 12480, Note_on_c, 0, 67, 35
1, 12480, Note_on_c, 0, 77, 54
1, 12600, Note_on_c, 0, 67, 0
1, 12600, Note_on_c, 0, 55, 30
1, 12720, Note_on_c, 0, 55, 0
1, 12720, Note_on_c, 0, 59, 31
1, 12840, Note_on_c, 0, 59, 0
1, 12840, Note_on_c, 0, 62, 33
1, 12960, Note_on_c, 0, 62, 0
1, 12960, Note_on_c, 0, 67, 36
1, 13080, Note_on_c, 0, 67, 0
1, 13080, Note_on_c, 0, 55, 33
1, 13200, Note_on_c, 0, 55, 0
1, 13200, Note_on_c, 0, 77, 0
1, 13200, Note_on_c, 0, 59, 33
1, 13200, Note_on_c, 0, 74, 47
1, 13320, Note_on_c, 0, 59, 0
1, 13320, Note_on_c, 0, 67, 33
1, 13440, Tempo, 543527
1, 13440, Note_on_c, 0, 67, 0
1, 13440, Note_on_c, 0, 74, 0
1, 13440, Note_on_c, 0, 75, 50
1, 13454, Control_c, 0, 64, 0
1, 13503, Control_c, 0, 64, 127
1, 13560, Note_on_c, 0, 55, 28
1, 13680, Note_on_c, 0, 55, 0
1, 13680, Note_on_c, 0, 60, 31
1, 13800, Note_on_c, 0, 60, 0
1, 13800, Note_on_c, 0, 67, 33
1, 13920, Tempo, 555761
1, 13920, Note_on_c, 0, 67, 0
1, 13920, Note_on_c, 0, 75, 0
1, 13920, Note_on_c, 0, 72, 41
1, 14040, Note_on_c, 0, 55, 28
1, 14160, Note_on_c, 0, 55, 0
1, 14160, Note_on_c, 0, 63, 31
1, 14280, Note_on_c, 0, 63, 0
1, 14280, Note_on_c, 0, 67, 33
1, 14400, Tempo, 582016
1, 14400, Note_on_c, 0, 67, 0
1, 14400, Note_on_c, 0, 72, 0
1, 14400, Note_on_c, 0, 71, 50
1, 14414, Control_c, 0, 64, 0
1, 14492, Control_c, 0, 64, 127
1, 14520, Note_on_c, 0, 55, 28
1, 14640, Note_on_c, 0, 55, 0
1, 14640, Note_on_c, 0, 62, 30
1, 14760, Note_on_c, 0, 62, 0
1, 14760, Note_on_c, 0, 67, 32
1, 14880, Note_on_c, 0, 67, 0
1, 14880, Note_on_c, 0, 71, 0
1, 14880, Note_on_c, 0, 74, 47
1, 15000, Note_on_c, 0, 55, 28
1, 15120, Note_on_c, 0, 55, 0
1, 15120, Note_on_c, 0, 59, 30
1, 15240, Note_on_c, 0, 59, 0
1, 15240, Note_on_c, 0, 67, 32
1, 15360, Tempo, 543527
1, 15360, Note_on_c, 0, 67, 0
1, 15360, Note_on_c, 0, 74, 0
1, 15360, Note_on_c, 0, 76, 50
1, 15368, Control_c, 0, 64, 0
1, 15438, Control_c, 0, 64, 127
1, 15480, Note_on_c, 0, 55, 28
1, 15600, Note_on_c, 0, 55, 0
1, 15600, Note_on_c, 0, 60, 31
1, 15720, Note_on_c, 0, 60, 0
1, 15720, Note_on_c, 0, 67, 33
1, 15840, Tempo, 555761
1, 15840, Note_on_c, 0, 67, 0
1, 15840, Note_on_c, 0, 76, 0
1, 15840, Note_on_c, 0, 72, 41
1, 15960, Note_on_c, 0, 55, 28
1, 16080, Note_on_c, 0, 55, 0
1, 16080, Note_on_c, 0, 64, 31
1, 16200, Note_on_c, 0, 64, 0
1, 16200, Note_on_c, 0, 67, 33
1, 16320, Tempo, 582016
1, 16320, Note_on_c, 0, 67, 0
1, 16320, Note_on_c, 0, 72, 0
1, 16320, Note_on_c, 0, 71, 50
1, 16332, Control_c, 0, 64, 0
1, 16398, Control_c, 0, 64, 127
1, 16440, Note_on_c, 0, 55, 28
1, 16560, Note_on_c, 0, 55, 0
1, 16560, Note_on_c, 0, 62, 30
1, 16680, Note_on_c, 0, 62, 0
1, 16680, Note_on_c, 0, 67, 32
1, 16800, Note_on_c, 0, 67, 0
1, 16800, Note_on_c, 0, 71, 0
1, 16800, Note_on_c, 0, 74, 47
1, 16920, Note_on_c, 0, 55, 28
1, 17040, Note_on_c, 0, 55, 0
1, 17040, Note_on_c, 0, 59, 30
1, 17160, Note_on_c, 0, 59, 0
1, 17160, Note_on_c, 0, 67, 32
1, 17280, Tempo, 543527
1, 17280, Note_on_c, 0, 67, 0
1, 17280, Note_on_c, 0, 74, 0
1, 17280, Note_on_c, 0, 75, 50
1, 17297, Control_c, 0, 64, 0
1, 17349, Control_c, 0, 64, 127
1, 17400, Note_on_c, 0, 55, 28
1, 17520, Note_on_c, 0, 55, 0
1, 17520, Note_on_c, 0, 60, 31
1, 17640, Note_on_c, 0, 60, 0
1, 17640, Note_on_c, 0, 67, 33
1, 17760, Tempo, 555761
1, 17760, Note_on_c, 0, 67, 0
1, 17760, Note_on_c, 0, 75, 0
1, 17760, Note_on_c, 0, 72, 41
1, 17880, Note_on_c, 0, 55, 28
1, 18000, Note_on_c, 0, 55, 0
1, 18000, Note_on_c, 0, 60, 31
1, 18120, Note_on_c, 0, 60, 0
1, 18120, Note_on_c, 0, 63, 33
1, 18240, Tempo, 582016
1, 18240, Note_on_c, 0, 63, 0
1, 18240, Note_on_c, 0, 72, 0
1, 18240, Note_on_c, 0, 79, 50
1, 18252, Control_c, 0, 64, 0
1, 18332, Control_c, 0, 64, 127
1, 18360, Note_on_c, 0, 55, 28
1, 18480, Note_on_c, 0, 55, 0
1, 18480, Note_on_c, 0, 59, 30
1, 18600, Note_on_c, 0, 59, 0
1, 18600, Note_on_c, 0, 62, 32
1, 18715, Note_on_c, 0, 79, 0
1, 18720, Tempo, 576535
1, 18720, Note_on_c, 0, 62, 0
1, 18720, Note_on_c, 0, 79, 47
1, 18737, Control_c, 0, 64, 0
1, 18840, Note_on_c, 0, 55, 28
1, 18863, Control_c, 0, 64, 127
1, 18960, Note_on_c, 0, 55, 0
1, 18960, Note_on_c, 0, 60, 30
1, 19080, Note_on_c, 0, 60, 0
1, 19080, Note_on_c, 0, 63, 32
1, 19195, Note_on_c, 0, 79, 0
1, 19200, Note_on_c, 0, 63, 0
1, 19200, Note_on_c, 0, 79, 50
1, 19216, Control_c, 0, 64, 0
1, 19280, Control_c, 0, 64, 127
1, 19320, Note_on_c, 0, 55, 28
1, 19440, Note_on_c, 0, 55, 0
1, 19440, Note_on_c, 0, 59, 30
1, 19560, Note_on_c, 0, 59, 0
1, 19560, Note_on_c, 0, 62, 32
1, 19675, Note_on_c, 0, 79, 0
1, 19680, Note_on_c, 0, 62, 0
1, 19680, Note_on_c, 0, 79, 47
1, 19699, Control_c, 0, 64, 0
1, 19772, Control_c, 0, 64, 127
1, 19800, Note_on_c, 0, 55, 28
1, 19920, Note_on_c, 0, 55, 0
1, 19920, Note_on_c, 0, 60, 30
1, 20040, Note_on_c, 0, 60, 0
1, 20040, Note_on_c, 0, 63, 32
1, 20080, Tempo, 576535
1, 20155, Note_on_c, 0, 79, 0
1, 20160, Note_on_c, 0, 63, 0
1, 20160, Note_on_c, 0, 79, 50
1, 20173, Control_c, 0, 64, 0
1, 20231, Control_c, 0, 64, 127
1, 20240, Tempo, 579262
1, 20280, Note_on_c, 0, 55, 28
1, 20400, Tempo, 582016
1, 20400, Note_on_c, 0, 55, 0
1, 20400, Note_on_c, 0, 59, 30
1, 20520, Note_on_c, 0, 59, 0
1, 20520, Note_on_c, 0, 62, 32
1, 20560, Tempo, 584795
1, 20635, Note_on_c, 0, 79, 0
1, 20640, Note_on_c, 0, 62, 0
1, 20640, Note_on_c, 0, 79, 47
1, 20654, Control_c, 0, 64, 0
1, 20680, Tempo, 587602
1, 20725, Control_c, 0, 64, 127
1, 20760, Note_on_c, 0, 55, 28
1, 20840, Tempo, 590319
1, 20880, Note_on_c, 0, 55, 0
1, 20880, Note_on_c, 0, 57, 30
1, 21000, Tempo, 593237
1, 21000, Note_on_c, 0, 57, 0
1, 21000, Note_on_c, 0, 60, 32
1, 21115, Note_on_c, 0, 79, 0
1, 21120, Tempo, 596066
1, 21120, Note_on_c, 0, 60, 0
1, 21120, Note_on_c, 0, 79, 47
1, 21125, Control_c, 0, 64, 0
1, 21160, Tempo, 584795
1, 21200, Control_c, 0, 64, 127
1, 21240, Note_on_c, 0, 55, 36
1, 21320, Tempo, 582016
1, 21360, Note_on_c, 0, 55, 0
1, 21360, Note_on_c, 0, 59, 38
1, 21480, Tempo, 579262
1, 21480, Note_on_c, 0, 59, 0
1, 21480, Note_on_c, 0, 62, 35
1, 21600, Note_on_c, 0, 62, 0
1, 21600, Note_on_c, 0, 79, 0
1, 21600, Note_on_c, 0, 67, 43
1, 21640, Tempo, 576535
1, 21720, Note_on_c, 0, 67, 0
1, 21720, Note_on_c, 0, 71, 39
1, 21800, Tempo, 573888
1, 21840, Note_on_c, 0, 71, 0
1, 21840, Note_on_c, 0, 69, 41
1, 21920, Tempo, 571211
1, 21960, Note_on_c, 0, 69, 0
1, 21960, Note_on_c, 0, 66, 38
1, 22080, Tempo, 568613
1, 22080, Note_on_c, 0, 66, 0
1, 22080, Note_on_c, 0, 67, 43
1, 22080, Control_c, 0, 64, 0
1, 22151, Control_c, 0, 64, 127
1, 22200, Note_on_c, 0, 67, 0
1, 22200, Note_on_c, 0, 59, 38
1, 22240, Tempo, 565984
1, 22320, Note_on_c, 0, 59, 0
1, 22320, Note_on_c, 0, 62, 41
1, 22400, Tempo, 563380
1, 22440, Note_on_c, 0, 62, 0
1, 22440, Note_on_c, 0, 67, 38
1, 22520, Tempo, 560852
1, 22560, Note_on_c, 0, 67, 0
1, 22560, Note_on_c, 0, 71, 46
1, 22680, Note_on_c, 0, 71, 0
1, 22680, Note_on_c, 0, 74, 41
1, 22800, Note_on_c, 0, 74, 0
1, 22800, Note_on_c, 0, 72, 41
1, 22920, Note_on_c, 0, 72, 0
1, 22920, Note_on_c, 0, 69, 37
1, 23040, Note_on_c, 0, 69, 0
1, 23040, Note_on_c, 0, 71, 47
1, 23050, Control_c, 0, 64, 0
1, 23115, Control_c, 0, 64, 127
1, 23160, Note_on_c, 0, 71, 0
1, 23160, Note_on_c, 0, 67, 42
1, 23280, Note_on_c, 0, 67, 0
1, 23280, Note_on_c, 0, 71, 47
1, 23400, Note_on_c, 0, 71, 0
1, 23400, Note_on_c, 0, 74, 43
1, 23520, Note_on_c, 0, 74, 0
1, 23520, Note_on_c, 0, 79, 51
1, 23640, Note_on_c, 0, 79, 0
1, 23640, Note_on_c, 0, 83, 46
1, 23760, Note_on_c, 0, 83, 0
1, 23760, Note_on_c, 0, 81, 48
1, 23880, Note_on_c, 0, 81, 0
1, 23880, Note_on_c, 0, 78, 43
1, 24000, Note_on_c, 0, 78, 0
1, 24000, Note_on_c, 0, 79, 52
1, 24023, Control_c, 0, 64, 0
1, 24069, Control_c, 0, 64, 127
1, 24120, Note_on_c, 0, 79, 0
1, 24120, Note_on_c, 0, 83, 52
1, 24240, Note_on_c, 0, 83, 0
1, 24240, Note_on_c, 0, 81, 53
1, 24360, Note_on_c, 0, 81, 0
1, 24360, Note_on_c, 0, 84, 54
1, 24440, Tempo, 557207
1, 24480, Note_on_c, 0, 84, 0
1, 24480, Note_on_c, 0, 83, 55
1, 24520, Tempo, 559858
1, 24600, Tempo, 562430
1, 24600, Note_on_c, 0, 83, 0
1, 24600, Note_on_c, 0, 86, 56
1, 24680, Tempo, 565131
1, 24720, Note_on_c, 0, 86, 0
1, 24720, Note_on_c, 0, 85, 56
1, 24760, Tempo, 567805
1, 24840, Tempo, 570505
1, 24840, Note_on_c, 0, 85, 0
1, 24840, Note_on_c, 0, 88, 57
1, 24920, Tempo, 573230
1, 24960, Tempo, 575982
1, 24960, Note_on_c, 0, 88, 0
1, 24960, Note_on_c, 0, 86, 58
1, 24979, Control_c, 0, 64, 0
1, 25024, Control_c, 0, 64, 127
1, 25080, Note_on_c, 0, 86, 0
1, 25080, Note_on_c, 0, 89, 59
1, 25120, Tempo, 573230
1, 25200, Note_on_c, 0, 89, 0
1, 25200, Note_on_c, 0, 88, 60
1, 25280, Tempo, 570505
1, 25320, Note_on_c, 0, 88, 0
1, 25320, Note_on_c, 0, 91, 56
1, 25440, Tempo, 567805
1, 25440, Note_on_c, 0, 91, 0
1, 25440, Note_on_c, 0, 89, 61
1, 25560, Note_on_c, 0, 89, 0
1, 25560, Note_on_c, 0, 93, 62
1, 25600, Tempo, 565131
1, 25680, Note_on_c, 0, 93, 0
1, 25680, Note_on_c, 0, 89, 63
1, 25760, Tempo, 562430
1, 25800, Note_on_c, 0, 89, 0
1, 25800, Note_on_c, 0, 88, 59
1, 25920, Tempo, 559858
1, 25920, Note_on_c, 0, 88, 0
1, 25920, Note_on_c, 0, 86, 65
1, 25931, Control_c, 0, 64, 0
1, 26012, Control_c, 0, 64, 127
1, 26040, Note_on_c, 0, 86, 0
1, 26040, Note_on_c, 0, 89, 66
1, 26160, Note_on_c, 0, 89, 0
1, 26160, Note_on_c, 0, 88, 66
1, 26280, Note_on_c, 0, 88, 0
1, 26280, Note_on_c, 0, 91, 64
1, 26400, Note_on_c, 0, 91, 0
1, 26400, Note_on_c, 0, 89, 68
1, 26520, Note_on_c, 0, 89, 0
1, 26520, Note_on_c, 0, 93, 69
1, 26640, Note_on_c, 0, 93, 0
1, 26640, Note_on_c, 0, 89, 70
1, 26760, Note_on_c, 0, 89, 0
1, 26760, Note_on_c, 0, 88, 66
1, 26880, Note_on_c, 0, 88, 0
1, 26880, Note_on_c, 0, 86, 69
1, 26897, Control_c, 0, 64, 0
1, 26958, Control_c, 0, 64, 127
1, 27000, Note_on_c, 0, 86, 0
1, 27000, Note_on_c, 0, 89, 65
1, 27120, Note_on_c, 0, 89, 0
1, 27120, Note_on_c, 0, 88, 67
1, 27240, Note_on_c, 0, 88, 0
1, 27240, Note_on_c, 0, 84, 60
1, 27360, Note_on_c, 0, 84, 0
1, 27360, Note_on_c, 0, 83, 64
1, 27480, Note_on_c, 0, 83, 0
1, 27480, Note_on_c, 0, 86, 59
1, 27600, Note_on_c, 0, 86, 0
1, 27600, Note_on_c, 0, 84, 62
1, 27720, Note_on_c, 0, 84, 0
1, 27720, Note_on_c, 0, 81, 55
1, 27840, Tempo, 562430
1, 27840, Note_on_c, 0, 81, 0
1, 27840, Note_on_c, 0, 79, 59
1, 27858, Control_c, 0, 64, 0
1, 27925, Control_c, 0, 64, 127
1, 27960, Tempo, 565131
1, 27960, Note_on_c, 0, 79, 0
1, 27960, Note_on_c, 0, 83, 54
1, 28080, Tempo, 567805
1, 28080, Note_on_c, 0, 83, 0
1, 28080, Note_on_c, 0, 81, 56
1, 28200, Tempo, 570505
1, 28200, Note_on_c, 0, 81, 0
1, 28200, Note_on_c, 0, 77, 51
1, 28320, Tempo, 573230
1, 28320, Note_on_c, 0, 77, 0
1, 28320, Note_on_c, 0, 76, 54
1, 28360, Tempo, 570505
1, 28440, Tempo, 573230
1, 28440, Note_on_c, 0, 76, 0
1, 28440, Note_on_c, 0, 79, 46
1, 28480, Tempo, 575982
1, 28560, Tempo, 578760
1, 28560, Note_on_c, 0, 79, 0
1, 28560, Note_on_c, 0, 77, 49
1, 28600, Tempo, 581564
1, 28640, Tempo, 584454
1, 28680, Note_on_c, 0, 77, 0
1, 28680, Note_on_c, 0, 74, 42
1, 28720, Tempo, 587257
1, 28760, Tempo, 590203
1, 28800, Tempo, 633914
1, 28800, Note_on_c, 0, 74, 0
1, 28800, Note_on_c, 0, 72, 49
1, 28800, Note_on_c, 0, 36, 50
1, 28809, Control_c, 0, 64, 0
1, 28880, Tempo, 630517
1, 28885, Control_c, 0, 64, 127
1, 28920, Tempo, 627287
1, 28920, Note_on_c, 0, 36, 0
1, 28920, Note_on_c, 0, 72, 0
1, 28920, Note_on_c, 0, 43, 30
1, 28960, Tempo, 623960
1, 29000, Tempo, 620797
1, 29040, Tempo, 617538
1, 29040, Note_on_c, 0, 43, 0
1, 29040, Note_on_c, 0, 48, 32
1, 29120, Tempo, 614376
1, 29160, Tempo, 611247
1, 29160, Note_on_c, 0, 48, 0
1, 29160, Note_on_c, 0, 52, 34
1, 29200, Tempo, 608149
1, 29240, Tempo, 605083
1, 29280, Tempo, 602047
1, 29280, Note_on_c, 0, 52, 0
1, 29280, Note_on_c, 0, 91, 50
1, 29280, Note_on_c, 0, 79, 50
1, 29280, Note_on_c, 0, 55, 31
1, 29400, Note_on_c, 0, 55, 0
1, 29400, Note_on_c, 0, 48, 31
1, 29520, Note_on_c, 0, 48, 0
1, 29520, Note_on_c, 0, 79, 0
1, 29520, Note_on_c, 0, 91, 0
1, 29520, Note_on_c, 0, 52, 31
1, 29640, Note_on_c, 0, 52, 0
1, 29640, Note_on_c, 0, 55, 35
1, 29760, Tempo, 570505
1, 29760, Note_on_c, 0, 55, 0
1, 29760, Note_on_c, 0, 91, 54
1, 29760, Note_on_c, 0, 79, 54
1, 29760, Note_on_c, 0, 60, 30
1, 29880, Note_on_c, 0, 60, 0
1, 29880, Note_on_c, 0, 52, 31
1, 30000, Note_on_c, 0, 52, 0
1, 30000, Note_on_c, 0, 55, 33
1, 30120, Note_on_c, 0, 55, 0
1, 30120, Note_on_c, 0, 60, 36
1, 30240, Note_on_c, 0, 60, 0
1, 30240, Note_on_c, 0, 64, 33
1, 30360, Note_on_c, 0, 64, 0
1, 30360, Note_on_c, 0, 55, 33
1, 30480, Note_on_c, 0, 55, 0
1, 30480, Note_on_c, 0, 79, 0
1, 30480, Note_on_c, 0, 91, 0
1, 30480, Note_on_c, 0, 88, 47
1, 30480, Note_on_c, 0, 76, 47
1, 30480, Note_on_c, 0, 60, 33
1, 30600, Note_on_c, 0, 60, 0
1, 30600, Note_on_c, 0, 64, 36
1, 30720, Tempo, 552079
1, 30720, Note_on_c, 0, 64, 0
1, 30720, Note_on_c, 0, 76, 0
1, 30720, Note_on_c, 0, 88, 0
1, 30720, Note_on_c, 0, 86, 50
1, 30720, Note_on_c, 0, 74, 50
1, 30720, Note_on_c, 0, 65, 28
1, 30733, Control_c, 0, 64, 0
1, 30791, Control_c, 0, 64, 127
1, 30840, Note_on_c, 0, 65, 0
1, 30840, Note_on_c, 0, 64, 31
1, 30960, Note_on_c, 0, 64, 0
1, 30960, Note_on_c, 0, 62, 33
1, 31080, Note_on_c, 0, 62, 0
1, 31080, Note_on_c, 0, 60, 36
1, 31200, Tempo, 567805
1, 31200, Note_on_c, 0, 60, 0
1, 31200, Note_on_c, 0, 74, 0
1, 31200, Note_on_c, 0, 86, 0
1, 31200, Note_on_c, 0, 79, 41
1, 31200, Note_on_c, 0, 67, 41
1, 31200, Note_on_c, 0, 59, 33
1, 31320, Note_on_c, 0, 59, 0
1, 31320, Note_on_c, 0, 57, 33
1, 31440, Note_on_c, 0, 57, 0
1, 31440, Note_on_c, 0, 55, 34
1, 31560, Note_on_c, 0, 55, 0
1, 31560, Note_on_c, 0, 53, 34
1, 31680, Tempo, 582016
1, 31680, Note_on_c, 0, 53, 0
1, 31680, Note_on_c, 0, 67, 0
1, 31680, Note_on_c, 0, 79, 0
1, 31680, Note_on_c, 0, 84, 50
1, 31680, Note_on_c, 0, 72, 50
1, 31680, Note_on_c, 0, 52, 28
1, 31690, Control_c, 0, 64, 0
1, 31730, Control_c, 0, 64, 127
1, 31800, Note_on_c, 0, 52, 0
1, 31800, Note_on_c, 0, 55, 30
1, 31920, Note_on_c, 0, 55, 0
1, 31920, Note_on_c, 0, 48, 32
1, 32040, Note_on_c, 0, 48, 0
1, 32040, Note_on_c, 0, 52, 34
1, 32160, Note_on_c, 0, 52, 0
1, 32160, Note_on_c, 0, 72, 0
1, 32160, Note_on_c, 0, 84, 0
1, 32160, Note_on_c, 0, 88, 47
1, 32160, Note_on_c, 0, 76, 47
1, 32160, Note_on_c, 0, 43, 32
1, 32280, Note_on_c, 0, 43, 0
1, 32280, Note_on_c, 0, 48, 32
1, 32400, Note_on_c, 0, 48, 0
1, 32400, Note_on_c, 0, 76, 0
1, 32400, Note_on_c, 0, 88, 0
1, 32400, Note_on_c, 0, 40, 33
1, 32520, Tempo, 604839
1, 32520, Note_on_c, 0, 40, 0
1, 32520, Note_on_c, 0, 43, 34
1, 32640, Tempo, 629459
1, 32640, Note_on_c, 0, 43, 0
1, 32640, Note_on_c, 0, 36, 50
1, 32648, Control_c, 0, 64, 0
1, 32704, Control_c, 0, 64, 127
1, 32760, Tempo, 604839
1, 32760, Note_on_c, 0, 36, 0
1, 32760, Note_on_c, 0, 43, 30
1, 32840, Tempo, 601866
1, 32880, Note_on_c, 0, 43, 0
1, 32880, Note_on_c, 0, 48, 32
1, 32920, Tempo, 598982
1, 32960, Tempo, 596066
1, 33000, Note_on_c, 0, 48, 0
1, 33000, Note_on_c, 0, 52, 34
1, 33040, Tempo, 593237
1, 33080, Tempo, 590319
1, 33120, Tempo, 590319
1, 33120, Note_on_c, 0, 52, 0
1, 33120, Note_on_c, 0, 91, 50
1, 33120, Note_on_c, 0, 79, 50
1, 33120, Note_on_c, 0, 55, 31
1, 33240, Note_on_c, 0, 55, 0
1, 33240, Note_on_c, 0, 48, 31
1, 33360, Note_on_c, 0, 48, 0
1, 33360, Note_on_c, 0, 79, 0
1, 33360, Note_on_c, 0, 91, 0
1, 33360, Note_on_c, 0, 52, 31
1, 33480, Note_on_c, 0, 52, 0
1, 33480, Note_on_c, 0, 55, 35
1, 33600, Tempo, 558347
1, 33600, Note_on_c, 0, 55, 0
1, 33600, Note_on_c, 0, 91, 54
1, 33600, Note_on_c, 0, 79, 54
1, 33600, Note_on_c, 0, 60, 30
1, 33720, Note_on_c, 0, 60, 0
1, 33720, Note_on_c, 0, 52, 31
1, 33840, Note_on_c, 0, 52, 0
1, 33840, Note_on_c, 0, 55, 33
1, 33960, Note_on_c, 0, 55, 0
1, 33960, Note_on_c, 0, 60, 36
1, 34080, Note_on_c, 0, 60, 0
1, 34080, Note_on_c, 0, 64, 33
1, 34200, Note_on_c, 0, 64, 0
1, 34200, Note_on_c, 0, 55, 33
1, 34320, Note_on_c, 0, 55, 0
1, 34320, Note_on_c, 0, 79, 0
1, 34320, Note_on_c, 0, 91, 0
1, 34320, Note_on_c, 0, 88, 47
1, 34320, Note_on_c, 0, 76, 47
1, 34320, Note_on_c, 0, 60, 33
1, 34440, Note_on_c, 0, 60, 0
1, 34440, Note_on_c, 0, 64, 33
1, 34560, Tempo, 543527
1, 34560, Note_on_c, 0, 64, 0
1, 34560, Note_on_c, 0, 76, 0
1, 34560, Note_on_c, 0, 88, 0
1, 34560, Note_on_c, 0, 86, 50
1, 34560, Note_on_c, 0, 74, 50
1, 34560, Note_on_c, 0, 65, 28
1, 34571, Control_c, 0, 64, 0
1, 34659, Control_c, 0, 64, 127
1, 34680, Note_on_c, 0, 65, 0
1, 34680, Note_on_c, 0, 64, 31
1, 34800, Note_on_c, 0, 64, 0
1, 34800, Note_on_c, 0, 62, 33
1, 34920, Note_on_c, 0, 62, 0
1, 34920, Note_on_c, 0, 60, 36
1, 35040, Tempo, 555761
1, 35040, Note_on_c, 0, 60, 0
1, 35040, Note_on_c, 0, 74, 0
1, 35040, Note_on_c, 0, 86, 0
1, 35040, Note_on_c, 0, 79, 41
1, 35040, Note_on_c, 0, 67, 41
1, 35040, Note_on_c, 0, 59, 33
1, 35160, Note_on_c, 0, 59, 0
1, 35160, Note_on_c, 0, 55, 33
1, 35280, Note_on_c, 0, 55, 0
1, 35280, Note_on_c, 0, 57, 34
1, 35400, Note_on_c, 0, 57, 0
1, 35400, Note_on_c, 0, 59, 34
1, 35520, Tempo, 582016
1, 35520, Note_on_c, 0, 59, 0
1, 35520, Note_on_c, 0, 67, 0
1, 35520, Note_on_c, 0, 79, 0
1, 35520, Note_on_c, 0, 84, 50
1, 35520, Note_on_c, 0, 72, 50
1, 35520, Note_on_c, 0, 60, 28
1, 35533, Control_c, 0, 64, 0
1, 35619, Control_c, 0, 64, 127
1, 35640, Note_on_c, 0, 60, 0
1, 35640, Note_on_c, 0, 59, 30
1, 35760, Note_on_c, 0, 59, 0
1, 35760, Note_on_c, 0, 72, 0
1, 35760, Note_on_c, 0, 84, 0
1, 35760, Note_on_c, 0, 57, 32
1, 35880, Note_on_c, 0, 57, 0
1, 35880, Note_on_c, 0, 55, 34
1, 36000, Note_on_c, 0, 55, 0
1, 36000, Note_on_c, 0, 53, 32
1, 36120, Note_on_c, 0, 53, 0
1, 36120, Note_on_c, 0, 52, 32
1, 36240, Note_on_c, 0, 52, 0
1, 36240, Note_on_c, 0, 50, 33
1, 36360, Tempo, 601866
1, 36360, Note_on_c, 0, 50, 0
1, 36360, Note_on_c, 0, 48, 35
1, 36480, Tempo, 629459
1, 36480, Note_on_c, 0, 48, 0
1, 36480, Note_on_c, 0, 43, 45
1, 36498, Control_c, 0, 64, 0
1, 36572, Control_c, 0, 64, 127
1, 36600, Tempo, 610811
1, 36600, Note_on_c, 0, 43, 0
1, 36600, Note_on_c, 0, 47, 30
1, 36680, Tempo, 607841
1, 36720, Tempo, 604839
1, 36720, Note_on_c, 0, 47, 0
1, 36720, Note_on_c, 0, 50, 32
1, 36760, Tempo, 601866
1, 36800, Tempo, 598982
1, 36840, Tempo, 596066
1, 36840, Note_on_c, 0, 50, 0
1, 36840, Note_on_c, 0, 55, 34
1, 36880, Tempo, 593237
1, 36920, Tempo, 590319
1, 36960, Tempo, 590319
1, 36960, Note_on_c, 0, 55, 0
1, 36960, Note_on_c, 0, 89, 50
1, 36960, Note_on_c, 0, 77, 50
1, 36960, Note_on_c, 0, 47, 31
1, 37080, Note_on_c, 0, 47, 0
1, 37080, Note_on_c, 0, 50, 31
1, 37200, Note_on_c, 0, 50, 0
1, 37200, Note_on_c, 0, 77, 0
1, 37200, Note_on_c, 0, 89, 0
1, 37200, Note_on_c, 0, 55, 31
1, 37320, Note_on_c, 0, 55, 0
1, 37320, Note_on_c, 0, 59, 35
1, 37440, Tempo, 558347
1, 37440, Note_on_c, 0, 59, 0
1, 37440, Note_on_c, 0, 89, 54
1, 37440, Note_on_c, 0, 77, 54
1, 37440, Note_on_c, 0, 50, 30
1, 37560, Note_on_c, 0, 50, 0
1, 37560, Note_on_c, 0, 55, 31
1, 37680, Note_on_c, 0, 55, 0
1, 37680, Note_on_c, 0, 59, 33
1, 37800, Note_on_c, 0, 59, 0
1, 37800, Note_on_c, 0, 62, 36
1, 37920, Note_on_c, 0, 62, 0
1, 37920, Note_on_c, 0, 55, 33
1, 38040, Note_on_c, 0, 55, 0
1, 38040, Note_on_c, 0, 59, 33
1, 38160, Note_on_c, 0, 59, 0
1, 38160, Note_on_c, 0, 77, 0
1, 38160, Note_on_c, 0, 89, 0
1, 38160, Note_on_c, 0, 86, 47
1, 38160, Note_on_c, 0, 74, 47
1, 38160, Note_on_c, 0, 62, 33
1, 38280, Note_on_c, 0, 62, 0
1, 38280, Note_on_c, 0, 67, 36
1, 38400, Tempo, 543527
1, 38400, Note_on_c, 0, 67, 0
1, 38400, Note_on_c, 0, 74, 0
1, 38400, Note_on_c, 0, 86, 0
1, 38400, Note_on_c, 0, 88, 50
1, 38400, Note_on_c, 0, 76, 50
1, 38400, Note_on_c, 0, 55, 28
1, 38409, Control_c, 0, 64, 0
1, 38478, Control_c, 0, 64, 127
1, 38520, Note_on_c, 0, 55, 0
1, 38520, Note_on_c, 0, 60, 31
1, 38640, Note_on_c, 0, 60, 0
1, 38640, Note_on_c, 0, 67, 33
1, 38760, Note_on_c, 0, 67, 0
1, 38760, Note_on_c, 0, 60, 36
1, 38880, Tempo, 555761
1, 38880, Note_on_c, 0, 60, 0
1, 38880, Note_on_c, 0, 76, 0
1, 38880, Note_on_c, 0, 88, 0
1, 38880, Note_on_c, 0, 84, 41
1, 38880, Note_on_c, 0, 72, 41
1, 38880, Note_on_c, 0, 55, 28
1, 39000, Note_on_c, 0, 55, 0
1, 39000, Note_on_c, 0, 64, 31
1, 39120, Note_on_c, 0, 64, 0
1, 39120, Note_on_c, 0, 67, 33
1, 39240, Note_on_c, 0, 67, 0
1, 39240, Note_on_c, 0, 64, 36
1, 39360, Tempo, 582016
1, 39360, Note_on_c, 0, 64, 0
1, 39360, Note_on_c, 0, 72, 0
1, 39360, Note_on_c, 0, 84, 0
1, 39360, Note_on_c, 0, 83, 50
1, 39360, Note_on_c, 0, 71, 50
1, 39360, Note_on_c, 0, 55, 28
1, 39379, Control_c, 0, 64, 0
1, 39445, Control_c, 0, 64, 127
1, 39480, Note_on_c, 0, 55, 0
1, 39480, Note_on_c, 0, 62, 30
1, 39600, Note_on_c, 0, 62, 0
1, 39600, Note_on_c, 0, 67, 32
1, 39720, Note_on_c, 0, 67, 0
1, 39720, Note_on_c, 0, 62, 36
1, 39840, Note_on_c, 0, 62, 0
1, 39840, Note_on_c, 0, 71, 0
1, 39840, Note_on_c, 0, 83, 0
1, 39840, Note_on_c, 0, 86, 47
1, 39840, Note_on_c, 0, 74, 47
1, 39840, Note_on_c, 0, 55, 28
1, 39960, Note_on_c, 0, 55, 0
1, 39960, Note_on_c, 0, 59, 30
1, 40080, Note_on_c, 0, 59, 0
1, 40080, Note_on_c, 0, 74, 0
1, 40080, Note_on_c, 0, 86, 0
1, 40080, Note_on_c, 0, 67, 32
1, 40200, Tempo, 601866
1, 40200, Note_on_c, 0, 67, 0
1, 40200, Note_on_c, 0, 59, 35
1, 40320, Tempo, 629459
1, 40320, Note_on_c, 0, 59, 0
1, 40320, Note_on_c, 0, 43, 48
1, 40336, Control_c, 0, 64, 0
1, 40398, Control_c, 0, 64, 127
1, 40440, Tempo, 610811
1, 40440, Note_on_c, 0, 43, 0
1, 40440, Note_on_c, 0, 47, 30
1, 40520, Tempo, 607841
1, 40560, Tempo, 604839
1, 40560, Note_on_c, 0, 47, 0
1, 40560, Note_on_c, 0, 50, 32
1, 40600, Tempo, 601866
1, 40640, Tempo, 598982
1, 40680, Tempo, 596066
1, 40680, Note_on_c, 0, 50, 0
1, 40680, Note_on_c, 0, 55, 34
1, 40720, Tempo, 593237
1, 40760, Tempo, 590319
1, 40800, Tempo, 590319
1, 40800, Note_on_c, 0, 55, 0
1, 40800, Note_on_c, 0, 89, 50
1, 40800, Note_on_c, 0, 77, 50
1, 40800, Note_on_c, 0, 47, 31
1, 40920, Note_on_c, 0, 47, 0
1, 40920, Note_on_c, 0, 50, 31
1, 41040, Note_on_c, 0, 50, 0
1, 41040, Note_on_c, 0, 77, 0
1, 41040, Note_on_c, 0, 89, 0
1, 41040, Note_on_c, 0, 55, 31
1, 41160, Note_on_c, 0, 55, 0
1, 41160, Note_on_c, 0, 59, 35
1, 41280, Tempo, 558347
1, 41280, Note_on_c, 0, 59, 0
1, 41280, Note_on_c, 0, 89, 54
1, 41280, Note_on_c, 0, 77, 54
1, 41280, Note_on_c, 0, 50, 30
1, 41400, Note_on_c, 0, 50, 0
1, 41400, Note_on_c, 0, 55, 31
1, 41520, Note_on_c, 0, 55, 0
1, 41520, Note_on_c, 0, 59, 33
1, 41640, Note_on_c, 0, 59, 0
1, 41640, Note_on_c, 0, 62, 36
1, 41760, Note_on_c, 0, 62, 0
1, 41760, Note_on_c, 0, 55, 33
1, 41880, Note_on_c, 0, 55, 0
1, 41880, Note_on_c, 0, 59, 33
1, 42000, Note_on_c, 0, 59, 0
1, 42000, Note_on_c, 0, 77, 0
1, 42000, Note_on_c, 0, 89, 0
1, 42000, Note_on_c, 0, 86, 47
1, 42000, Note_on_c, 0, 74, 47
1, 42000, Note_on_c, 0, 62, 33
1, 42120, Note_on_c, 0, 62, 0
1, 42120, Note_on_c, 0, 67, 36
1, 42240, Tempo, 543527
1, 42240, Note_on_c, 0, 67, 0
1, 42240, Note_on_c, 0, 74, 0
1, 42240, Note_on_c, 0, 86, 0
1, 42240, Note_on_c, 0, 87, 50
1, 42240, Note_on_c, 0, 75, 50
1, 42240, Note_on_c, 0, 55, 28
1, 42247, Control_c, 0, 64, 0
1, 42297, Control_c, 0, 64, 127
1, 42360, Note_on_c, 0, 55, 0
1, 42360, Note_on_c, 0, 60, 31
1, 42480, Note_on_c, 0, 60, 0
1, 42480, Note_on_c, 0, 67, 33
1, 42600, Note_on_c, 0, 67, 0
1, 42600, Note_on_c, 0, 60, 35
1, 42720, Tempo, 555761
1, 42720, Note_on_c, 0, 60, 0
1, 42720, Note_on_c, 0, 75, 0
1, 42720, Note_on_c, 0, 87, 0
1, 42720, Note_on_c, 0, 84, 41
1, 42720, Note_on_c, 0, 72, 41
1, 42720, Note_on_c, 0, 55, 28
1, 42840, Note_on_c, 0, 55, 0
1, 42840, Note_on_c, 0, 63, 31
1, 42960, Note_on_c, 0, 63, 0
1, 42960, Note_on_c, 0, 67, 33
1, 43080, Note_on_c, 0, 67, 0
1, 43080, Note_on_c, 0, 63, 35
1, 43200, Tempo, 582016
1, 43200, Note_on_c, 0, 63, 0
1, 43200, Note_on_c, 0, 72, 0
1, 43200, Note_on_c, 0, 84, 0
1, 43200, Note_on_c, 0, 83, 50
1, 43200, Note_on_c, 0, 71, 50
1, 43200, Note_on_c, 0, 55, 28
1, 43218, Control_c, 0, 64, 0
1, 43285, Control_c, 0, 64, 127
1, 43320, Note_on_c, 0, 55, 0
1, 43320, Note_on_c, 0, 62, 30
1, 43440, Note_on_c, 0, 62, 0
1, 43440, Note_on_c, 0, 67, 32
1, 43560, Note_on_c, 0, 67, 0
1, 43560, Note_on_c, 0, 62, 35
1, 43680, Note_on_c, 0, 62, 0
1, 43680, Note_on_c, 0, 71, 0
1, 43680, Note_on_c, 0, 83, 0
1, 43680, Note_on_c, 0, 86, 47
1, 43680, Note_on_c, 0, 74, 47
1, 43680, Note_on_c, 0, 55, 28
1, 43800, Note_on_c, 0, 55, 0
1, 43800, Note_on_c, 0, 59, 30
1, 43920, Note_on_c, 0, 59, 0
1, 43920, Note_on_c, 0, 67, 32
1, 44040, Note_on_c, 0, 67, 0
1, 44040, Note_on_c, 0, 59, 35
1, 44160, Tempo, 543527
1, 44160, Note_on_c, 0, 59, 0
1, 44160, Note_on_c, 0, 74, 0
1, 44160, Note_on_c, 0, 86, 0
1, 44160, Note_on_c, 0, 88, 50
1, 44160, Note_on_c, 0, 76, 50
1, 44160, Note_on_c, 0, 55, 28
1, 44174, Control_c, 0, 64, 0
1, 44231, Control_c, 0, 64, 127
1, 44280, Note_on_c, 0, 55, 0
1, 44280, Note_on_c, 0, 60, 31
1, 44400, Note_on_c, 0, 60, 0
1, 44400, Note_on_c, 0, 67, 33
1, 44520, Note_on_c, 0, 67, 0
1, 44520, Note_on_c, 0, 60, 35
1, 44640, Tempo, 555761
1, 44640, Note_on_c, 0, 60, 0
1, 44640, Note_on_c, 0, 76, 0
1, 44640, Note_on_c, 0, 88, 0
1, 44640, Note_on_c, 0, 84, 42
1, 44640, Note_on_c, 0, 72, 42
1, 44640, Note_on_c, 0, 55, 28
1, 44760, Note_on_c, 0, 55, 0
1, 44760, Note_on_c, 0, 64, 32
1, 44880, Note_on_c, 0, 64, 0
1, 44880, Note_on_c, 0, 67, 34
1, 45000, Note_on_c, 0, 67, 0
1, 45000, Note_on_c, 0, 64, 37
1, 45120, Tempo, 582016
1, 45120, Note_on_c, 0, 64, 0
1, 45120, Note_on_c, 0, 72, 0
1, 45120, Note_on_c, 0, 84, 0
1, 45120, Note_on_c, 0, 83, 53
1, 45120, Note_on_c, 0, 71, 53
1, 45120, Note_on_c, 0, 55, 29
1, 45134, Control_c, 0, 64, 0
1, 45191, Control_c, 0, 64, 127
1, 45240, Note_on_c, 0, 55, 0
1, 45240, Note_on_c, 0, 62, 32
1, 45360, Note_on_c, 0, 62, 0
1, 45360, Note_on_c, 0, 67, 34
1, 45480, Note_on_c, 0, 67, 0
1, 45480, Note_on_c, 0, 62, 38
1, 45600, Note_on_c, 0, 62, 0
1, 45600, Note_on_c, 0, 71, 0
1, 45600, Note_on_c, 0, 83, 0
1, 45600, Note_on_c, 0, 86, 52
1, 45600, Note_on_c, 0, 74, 52
1, 45600, Note_on_c, 0, 55, 31
1, 45720, Note_on_c, 0, 55, 0
1, 45720, Note_on_c, 0, 59, 33
1, 45840, Note_on_c, 0, 59, 0
1, 45840, Note_on_c, 0, 67, 36
1, 45960, Note_on_c, 0, 67, 0
1, 45960, Note_on_c, 0, 59, 39
1, 46080, Tempo, 543527
1, 46080, Note_on_c, 0, 59, 0
1, 46080, Note_on_c, 0, 74, 0
1, 46080, Note_on_c, 0, 86, 0
1, 46080, Note_on_c, 0, 87, 50
1, 46080, Note_on_c, 0, 75, 50
1, 46080, Note_on_c, 0, 55, 28
1, 46093, Control_c, 0, 64, 0
1, 46137, Control_c, 0, 64, 127
1, 46200, Note_on_c, 0, 55, 0
1, 46200, Note_on_c, 0, 60, 31
1, 46320, Note_on_c, 0, 60, 0
1, 46320, Note_on_c, 0, 67, 33
1, 46440, Note_on_c, 0, 67, 0
1, 46440, Note_on_c, 0, 60, 35
1, 46560, Tempo, 555761
1, 46560, Note_on_c, 0, 60, 0
1, 46560, Note_on_c, 0, 75, 0
1, 46560, Note_on_c, 0, 87, 0
1, 46560, Note_on_c, 0, 84, 41
1, 46560, Note_on_c, 0, 72, 41
1, 46560, Note_on_c, 0, 55, 28
1, 46680, Note_on_c, 0, 55, 0
1, 46680, Note_on_c, 0, 60, 31
1, 46800, Note_on_c, 0, 60, 0
1, 46800, Note_on_c, 0, 63, 33
1, 46920, Note_on_c, 0, 63, 0
1, 46920, Note_on_c, 0, 60, 35
1, 47040, Tempo, 582016
1, 47040, Note_on_c, 0, 60, 0
1, 47040, Note_on_c, 0, 72, 0
1, 47040, Note_on_c, 0, 84, 0
1, 47040, Note_on_c, 0, 79, 50
1, 47040, Note_on_c, 0, 55, 28
1, 47053, Control_c, 0, 64, 0
1, 47109, Control_c, 0, 64, 127
1, 47160, Note_on_c, 0, 55, 0
1, 47160, Note_on_c, 0, 59, 30
1, 47280, Note_on_c, 0, 59, 0
1, 47280, Note_on_c, 0, 62, 32
1, 47400, Note_on_c, 0, 62, 0
1, 47400, Note_on_c, 0, 59, 35
1, 47520, Tempo, 576535
1, 47520, Note_on_c, 0, 59, 0
1, 47520, Note_on_c, 0, 79, 0
1, 47520, Note_on_c, 0, 79, 47
1, 47520, Note_on_c, 0, 55, 28
1, 47536, Control_c, 0, 64, 0
1, 47589, Control_c, 0, 64, 127
1, 47640, Note_on_c, 0, 55, 0
1, 47640, Note_on_c, 0, 60, 30
1, 47760, Note_on_c, 0, 60, 0
1, 47760, Note_on_c, 0, 63, 32
1, 47880, Note_on_c, 0, 63, 0
1, 47880, Note_on_c, 0, 60, 35
1, 48000, Tempo, 582016
1, 48000, Note_on_c, 0, 60, 0
1, 48000, Note_on_c, 0, 79, 0
1, 48000, Note_on_c, 0, 81, 33
1, 48000, Note_on_c, 0, 55, 42
1, 48025, Control_c, 0, 64, 0
1, 48043, Control_c, 0, 64, 127
1, 48060, Note_on_c, 0, 55, 0
1, 48080, Note_on_c, 0, 81, 0
1, 48080, Note_on_c, 0, 79, 33
1, 48120, Note_on_c, 0, 59, 27
1, 48160, Note_on_c, 0, 79, 0
1, 48160, Note_on_c, 0, 81, 33
1, 48240, Note_on_c, 0, 81, 0
1, 48240, Note_on_c, 0, 59, 0
1, 48240, Note_on_c, 0, 79, 33
1, 48240, Note_on_c, 0, 62, 27
1, 48320, Note_on_c, 0, 79, 0
1, 48320, Note_on_c, 0, 81, 34
1, 48360, Note_on_c, 0, 62, 0
1, 48360, Note_on_c, 0, 59, 28
1, 48400, Note_on_c, 0, 81, 0
1, 48400, Note_on_c, 0, 79, 34
1, 48480, Tempo, 579262
1, 48480, Note_on_c, 0, 79, 0
1, 48480, Note_on_c, 0, 59, 0
1, 48480, Note_on_c, 0, 81, 35
1, 48480, Note_on_c, 0, 55, 48
1, 48491, Control_c, 0, 64, 0
1, 48530, Control_c, 0, 64, 127
1, 48540, Note_on_c, 0, 55, 0
1, 48560, Note_on_c, 0, 81, 0
1, 48560, Note_on_c, 0, 79, 35
1, 48600, Note_on_c, 0, 60, 29
1, 48640, Note_on_c, 0, 79, 0
1, 48640, Note_on_c, 0, 81, 35
1, 48720, Note_on_c, 0, 81, 0
1, 48720, Note_on_c, 0, 60, 0
1, 48720, Note_on_c, 0, 79, 35
1, 48720, Note_on_c, 0, 64, 30
1, 48800, Note_on_c, 0, 79, 0
1, 48800, Note_on_c, 0, 81, 36
1, 48840, Note_on_c, 0, 64, 0
1, 48840, Note_on_c, 0, 60, 31
1, 48880, Tempo, 576535
1, 48880, Note_on_c, 0, 81, 0
1, 48880, Note_on_c, 0, 79, 36
1, 48960, Note_on_c, 0, 79, 0
1, 48960, Note_on_c, 0, 60, 0
1, 48960, Note_on_c, 0, 81, 37
1, 48960, Note_on_c, 0, 55, 51
1, 48979, Control_c, 0, 64, 0
1, 49006, Control_c, 0, 64, 127
1, 49020, Note_on_c, 0, 55, 0
1, 49040, Note_on_c, 0, 81, 0
1, 49040, Note_on_c, 0, 79, 37
1, 49080, Note_on_c, 0, 59, 32
1, 49120, Tempo, 573888
1, 49120, Note_on_c, 0, 79, 0
1, 49120, Note_on_c, 0, 81, 37
1, 49200, Note_on_c, 0, 81, 0
1, 49200, Note_on_c, 0, 59, 0
1, 49200, Note_on_c, 0, 79, 39
1, 49200, Note_on_c, 0, 62, 34
1, 49280, Note_on_c, 0, 79, 0
1, 49280, Note_on_c, 0, 81, 39
1, 49320, Tempo, 571211
1, 49320, Note_on_c, 0, 62, 0
1, 49320, Note_on_c, 0, 59, 34
1, 49360, Note_on_c, 0, 81, 0
1, 49360, Note_on_c, 0, 79, 39
1, 49440, Note_on_c, 0, 79, 0
1, 49440, Note_on_c, 0, 59, 0
1, 49440, Note_on_c, 0, 81, 39
1, 49440, Note_on_c, 0, 55, 58
1, 49454, Control_c, 0, 64, 0
1, 49500, Note_on_c, 0, 55, 0
1, 49504, Control_c, 0, 64, 127
1, 49520, Tempo, 568613
1, 49520, Note_on_c, 0, 81, 0
1, 49520, Note_on_c, 0, 79, 39
1, 49560, Note_on_c, 0, 57, 35
1, 49600, Note_on_c, 0, 79, 0
1, 49600, Note_on_c, 0, 81, 41
1, 49680, Note_on_c, 0, 81, 0
1, 49680, Note_on_c, 0, 57, 0
1, 49680, Note_on_c, 0, 79, 41
1, 49680, Note_on_c, 0, 60, 37
1, 49720, Tempo, 565984
1, 49760, Note_on_c, 0, 79, 0
1, 49760, Note_on_c, 0, 81, 41
1, 49800, Note_on_c, 0, 60, 0
1, 49800, Note_on_c, 0, 57, 39
1, 49840, Note_on_c, 0, 81, 0
1, 49840, Note_on_c, 0, 79, 41
1, 49920, Tempo, 563380
1, 49920, Note_on_c, 0, 79, 0
1, 49920, Note_on_c, 0, 57, 0
1, 49920, Note_on_c, 0, 81, 42
1, 49920, Note_on_c, 0, 55, 64
1, 49933, Control_c, 0, 64, 0
1, 49960, Tempo, 560852
1, 49966, Control_c, 0, 64, 127
1, 49980, Tempo, 558347
1, 49980, Note_on_c, 0, 55, 0
1, 50000, Tempo, 553352
1, 50000, Note_on_c, 0, 81, 0
1, 50000, Note_on_c, 0, 79, 42
1, 50020, Tempo, 550812
1, 50040, Note_on_c, 0, 59, 42
1, 50060, Tempo, 558347
1, 50080, Tempo, 563380
1, 50080, Note_on_c, 0, 79, 0
1, 50080, Note_on_c, 0, 81, 42
1, 50100, Tempo, 565984
1, 50120, Tempo, 568613
1, 50160, Tempo, 565984
1, 50160, Note_on_c, 0, 81, 0
1, 50160, Note_on_c, 0, 59, 0
1, 50160, Note_on_c, 0, 79, 42
1, 50160, Note_on_c, 0, 57, 44
1, 50180, Tempo, 553352
1, 50240, Note_on_c, 0, 79, 0
1, 50240, Note_on_c, 0, 81, 42
1, 50260, Tempo, 555761
1, 50280, Tempo, 563380
1, 50280, Note_on_c, 0, 57, 0
1, 50280, Note_on_c, 0, 55, 45
1, 50300, Tempo, 565984
1, 50320, Tempo, 568613
1, 50320, Note_on_c, 0, 81, 0
1, 50320, Note_on_c, 0, 79, 44
1, 50400, Tempo, 558347
1, 50400, Note_on_c, 0, 79, 0
1, 50400, Note_on_c, 0, 55, 0
1, 50400, Note_on_c, 0, 81, 44
1, 50400, Note_on_c, 0, 53, 69
1, 50415, Control_c, 0, 64, 0
1, 50420, Tempo, 555761
1, 50453, Control_c, 0, 64, 127
1, 50460, Note_on_c, 0, 53, 0
1, 50480, Note_on_c, 0, 81, 0
1, 50480, Note_on_c, 0, 79, 44
1, 50500, Tempo, 558347
1, 50520, Tempo, 563380
1, 50520, Note_on_c, 0, 57, 50
1, 50540, Tempo, 565984
1, 50560, Tempo, 571211
1, 50560, Note_on_c, 0, 79, 0
1, 50560, Note_on_c, 0, 81, 45
1, 50600, Tempo, 568613
1, 50620, Tempo, 560852
1, 50640, Tempo, 558347
1, 50640, Note_on_c, 0, 81, 0
1, 50640, Note_on_c, 0, 57, 0
1, 50640, Note_on_c, 0, 79, 45
1, 50640, Note_on_c, 0, 55, 53
1, 50660, Tempo, 555761
1, 50720, Tempo, 553352
1, 50720, Note_on_c, 0, 79, 0
1, 50720, Note_on_c, 0, 81, 45
1, 50740, Tempo, 555761
1, 50760, Tempo, 563380
1, 50760, Note_on_c, 0, 55, 0
1, 50760, Note_on_c, 0, 53, 56
1, 50780, Tempo, 565984
1, 50800, Tempo, 568613
1, 50800, Note_on_c, 0, 81, 0
1, 50800, Note_on_c, 0, 79, 46
1, 50880, Note_on_c, 0, 79, 0
1, 50880, Note_on_c, 0, 53, 0
1, 50880, Note_on_c, 0, 81, 46
1, 50880, Note_on_c, 0, 52, 77
1, 50891, Control_c, 0, 64, 0
1, 50900, Tempo, 565984
1, 50916, Control_c, 0, 64, 127
1, 50920, Tempo, 560852
1, 50940, Tempo, 555761
1, 50940, Note_on_c, 0, 52, 0
1, 50960, Note_on_c, 0, 81, 0
1, 50960, Note_on_c, 0, 79, 47
1, 51000, Note_on_c, 0, 55, 60
1, 51020, Tempo, 558347
1, 51040, Note_on_c, 0, 79, 0
1, 51040, Note_on_c, 0, 81, 47
1, 51060, Tempo, 560852
1, 51080, Tempo, 565984
1, 51100, Tempo, 563380
1, 51120, Tempo, 555761
1, 51120, Note_on_c, 0, 81, 0
1, 51120, Note_on_c, 0, 55, 0
1, 51120, Note_on_c, 0, 79, 48
1, 51120, Note_on_c, 0, 53, 62
1, 51200, Note_on_c, 0, 79, 0
1, 51200, Note_on_c, 0, 81, 49
1, 51220, Tempo, 558347
1, 51240, Tempo, 563380
1, 51240, Note_on_c, 0, 53, 0
1, 51240, Note_on_c, 0, 52, 64
1, 51280, Tempo, 563380
1, 51280, Note_on_c, 0, 81, 0
1, 51280, Note_on_c, 0, 79, 49
1, 51360, Tempo, 563380
1, 51360, Note_on_c, 0, 79, 0
1, 51360, Note_on_c, 0, 52, 0
1, 51360, Note_on_c, 0, 81, 49
1, 51360, Note_on_c, 0, 50, 82
1, 51374, Control_c, 0, 64, 0
1, 51410, Control_c, 0, 64, 127
1, 51420, Note_on_c, 0, 50, 0
1, 51440, Tempo, 565984
1, 51440, Note_on_c, 0, 81, 0
1, 51440, Note_on_c, 0, 79, 49
1, 51480, Note_on_c, 0, 53, 64
1, 51520, Tempo, 568613
1, 51520, Note_on_c, 0, 79, 0
1, 51520, Note_on_c, 0, 81, 50
1, 51560, Tempo, 571211
1, 51600, Note_on_c, 0, 81, 0
1, 51600, Note_on_c, 0, 53, 0
1, 51600, Note_on_c, 0, 79, 50
1, 51600, Note_on_c, 0, 52, 67
1, 51640, Tempo, 573888
1, 51680, Tempo, 576535
1, 51680, Note_on_c, 0, 79, 0
1, 51680, Note_on_c, 0, 81, 51
1, 51720, Note_on_c, 0, 52, 0
1, 51720, Note_on_c, 0, 50, 71
1, 51760, Tempo, 579262
1, 51760, Note_on_c, 0, 81, 0
1, 51760, Note_on_c, 0, 79, 51
1, 51800, Tempo, 582016
1, 51840, Tempo, 579262
1, 51840, Note_on_c, 0, 79, 0
1, 51840, Note_on_c, 0, 50, 0
1, 51840, Note_on_c, 0, 81, 48
1, 51840, Note_on_c, 0, 36, 94
1, 51840, Note_on_c, 0, 48, 94
1, 51846, Control_c, 0, 64, 0
1, 51860, Tempo, 568613
1, 51880, Tempo, 563380
1, 51890, Control_c, 0, 64, 127
1, 51900, Tempo, 558347
1, 51920, Note_on_c, 0, 81, 0
1, 51920, Note_on_c, 0, 79, 35
1, 51960, Tempo, 563380
1, 51960, Note_on_c, 0, 50, 56
1, 51980, Tempo, 568613
1, 52000, Note_on_c, 0, 79, 0
1, 52000, Note_on_c, 0, 81, 38
1, 52020, Tempo, 571211
1, 52020, Note_on_c, 0, 50, 0
1, 52020, Note_on_c, 0, 52, 57
1, 52040, Tempo, 568613
1, 52060, Tempo, 563380
1, 52080, Tempo, 560852
1, 52080, Note_on_c, 0, 52, 0
1, 52080, Note_on_c, 0, 81, 0
1, 52080, Note_on_c, 0, 48, 0
1, 52080, Note_on_c, 0, 36, 0
1, 52080, Note_on_c, 0, 79, 35
1, 52080, Note_on_c, 0, 53, 60
1, 52100, Tempo, 558347
1, 52120, Tempo, 550812
1, 52140, Tempo, 548346
1, 52140, Note_on_c, 0, 53, 0
1, 52140, Note_on_c, 0, 55, 60
1, 52160, Tempo, 555761
1, 52160, Note_on_c, 0, 79, 0
1, 52160, Note_on_c, 0, 81, 38
1, 52180, Tempo, 558347
1, 52200, Note_on_c, 0, 55, 0
1, 52200, Note_on_c, 0, 57, 62
1, 52220, Tempo, 560852
1, 52240, Note_on_c, 0, 81, 0
1, 52240, Note_on_c, 0, 79, 36
1, 52260, Note_on_c, 0, 57, 0
1, 52260, Note_on_c, 0, 59, 63
1, 52300, Tempo, 558347
1, 52320, Tempo, 555761
1, 52320, Note_on_c, 0, 59, 0
1, 52320, Note_on_c, 0, 79, 0
1, 52320, Note_on_c, 0, 81, 40
1, 52320, Note_on_c, 0, 91, 89
1, 52320, Note_on_c, 0, 60, 63
1, 52340, Tempo, 550812
1, 52360, Tempo, 541174
1, 52400, Note_on_c, 0, 81, 0
1, 52400, Note_on_c, 0, 79, 36
1, 52420, Tempo, 546001
1, 52440, Tempo, 550812
1, 52440, Note_on_c, 0, 60, 0
1, 52440, Note_on_c, 0, 62, 65
1, 52460, Tempo, 553352
1, 52480, Tempo, 555761
1, 52480, Note_on_c, 0, 79, 0
1, 52480, Note_on_c, 0, 81, 40
1, 52500, Note_on_c, 0, 62, 0
1, 52500, Note_on_c, 0, 64, 66
1, 52540, Tempo, 548346
1, 52560, Tempo, 531821
1, 52560, Note_on_c, 0, 64, 0
1, 52560, Note_on_c, 0, 81, 0
1, 52560, Note_on_c, 0, 91, 0
1, 52560, Note_on_c, 0, 79, 36
1, 52560, Note_on_c, 0, 65, 67
1, 52580, Tempo, 525026
1, 52620, Tempo, 527241
1, 52620, Note_on_c, 0, 65, 0
1, 52620, Note_on_c, 0, 67, 69
1, 52640, Tempo, 541174
1, 52640, Note_on_c, 0, 79, 0
1, 52640, Note_on_c, 0, 81, 40
1, 52660, Tempo, 546001
1, 52680, Tempo, 555761
1, 52680, Note_on_c, 0, 67, 0
1, 52680, Note_on_c, 0, 69, 70
1, 52700, Tempo, 546001
1, 52720, Tempo, 543527
1, 52720, Note_on_c, 0, 81, 0
1, 52720, Note_on_c, 0, 79, 36
1, 52740, Note_on_c, 0, 69, 0
1, 52740, Note_on_c, 0, 71, 71
1, 52800, Note_on_c, 0, 71, 0
1, 52800, Note_on_c, 0, 79, 0
1, 52800, Note_on_c, 0, 81, 40
1, 52800, Note_on_c, 0, 91, 90
1, 52800, Note_on_c, 0, 72, 74
1, 52820, Tempo, 541174
1, 52840, Tempo, 548346
1, 52860, Tempo, 546001
1, 52860, Note_on_c, 0, 72, 0
1, 52880, Tempo, 541174
1, 52880, Note_on_c, 0, 81, 0
1, 52880, Note_on_c, 0, 79, 37
1, 52920, Tempo, 546001
1, 52920, Note_on_c, 0, 71, 71
1, 52940, Tempo, 550812
1, 52960, Tempo, 555761
1, 52960, Note_on_c, 0, 79, 0
1, 52960, Note_on_c, 0, 81, 40
1, 52980, Tempo, 565984
1, 52980, Note_on_c, 0, 71, 0
1, 53020, Tempo, 560852
1, 53040, Tempo, 558347
1, 53040, Note_on_c, 0, 81, 0
1, 53040, Note_on_c, 0, 79, 36
1, 53040, Note_on_c, 0, 69, 71
1, 53060, Tempo, 553352
1, 53080, Tempo, 550812
1, 53100, Tempo, 548346
1, 53100, Note_on_c, 0, 69, 0
1, 53120, Tempo, 550812
1, 53120, Note_on_c, 0, 79, 0
1, 53120, Note_on_c, 0, 81, 40
1, 53140, Tempo, 555761
1, 53160, Tempo, 558347
1, 53160, Note_on_c, 0, 67, 71
1, 53180, Tempo, 560852
1, 53200, Note_on_c, 0, 81, 0
1, 53200, Note_on_c, 0, 79, 36
1, 53220, Note_on_c, 0, 67, 0
1, 53240, Tempo, 558347
1, 53280, Tempo, 555761
1, 53280, Note_on_c, 0, 79, 0
1, 53280, Note_on_c, 0, 81, 40
1, 53280, Note_on_c, 0, 65, 72
1, 53300, Tempo, 553352
1, 53320, Tempo, 548346
1, 53340, Tempo, 546001
1, 53340, Note_on_c, 0, 65, 0
1, 53360, Note_on_c, 0, 81, 0
1, 53360, Note_on_c, 0, 79, 35
1, 53380, Tempo, 548346
1, 53400, Tempo, 553352
1, 53400, Note_on_c, 0, 64, 69
1, 53420, Tempo, 560852
1, 53440, Tempo, 565984
1, 53440, Note_on_c, 0, 79, 0
1, 53440, Note_on_c, 0, 81, 38
1, 53460, Note_on_c, 0, 64, 0
1, 53520, Tempo, 548346
1, 53520, Note_on_c, 0, 81, 0
1, 53520, Note_on_c, 0, 91, 0
1, 53520, Note_on_c, 0, 79, 33
1, 53520, Note_on_c, 0, 88, 85
1, 53520, Note_on_c, 0, 62, 69
1, 53540, Tempo, 546001
1, 53580, Note_on_c, 0, 62, 0
1, 53600, Note_on_c, 0, 79, 0
1, 53600, Note_on_c, 0, 81, 38
1, 53620, Tempo, 555761
1, 53640, Tempo, 558347
1, 53640, Note_on_c, 0, 60, 67
1, 53680, Note_on_c, 0, 81, 0
1, 53680, Note_on_c, 0, 79, 34
1, 53700, Tempo, 553352
1, 53700, Note_on_c, 0, 60, 0
1, 53720, Tempo, 550812
1, 53760, Tempo, 543527
1, 53760, Note_on_c, 0, 79, 0
1, 53760, Note_on_c, 0, 88, 0
1, 53760, Note_on_c, 0, 81, 38
1, 53760, Note_on_c, 0, 86, 90
1, 53760, Note_on_c, 0, 59, 73
1, 53774, Control_c, 0, 64, 0
1, 53780, Tempo, 541174
1, 53800, Tempo, 538793
1, 53817, Control_c, 0, 64, 127
1, 53820, Tempo, 536481
1, 53820, Note_on_c, 0, 59, 0
1, 53840, Note_on_c, 0, 81, 0
1, 53840, Note_on_c, 0, 79, 34
1, 53880, Tempo, 531821
1, 53880, Note_on_c, 0, 60, 69
1, 53900, Tempo, 534140
1, 53920, Tempo, 541174
1, 53920, Note_on_c, 0, 79, 0
1, 53920, Note_on_c, 0, 81, 36
1, 53940, Tempo, 546001
1, 53940, Note_on_c, 0, 60, 0
1, 53960, Tempo, 543527
1, 53980, Tempo, 538793
1, 54000, Tempo, 536481
1, 54000, Note_on_c, 0, 81, 0
1, 54000, Note_on_c, 0, 79, 33
1, 54000, Note_on_c, 0, 59, 69
1, 54020, Tempo, 529568
1, 54060, Note_on_c, 0, 59, 0
1, 54080, Tempo, 536481
1, 54080, Note_on_c, 0, 79, 0
1, 54080, Note_on_c, 0, 81, 37
1, 54100, Tempo, 546001
1, 54120, Tempo, 548346
1, 54120, Note_on_c, 0, 57, 69
1, 54160, Tempo, 541174
1, 54160, Note_on_c, 0, 81, 0
1, 54160, Note_on_c, 0, 79, 33
1, 54180, Tempo, 538793
1, 54180, Note_on_c, 0, 57, 0
1, 54220, Tempo, 553352
1, 54240, Note_on_c, 0, 79, 0
1, 54240, Note_on_c, 0, 86, 0
1, 54240, Note_on_c, 0, 81, 37
1, 54240, Note_on_c, 0, 79, 84
1, 54240, Note_on_c, 0, 55, 75
1, 54280, Tempo, 550812
1, 54300, Tempo, 548346
1, 54300, Note_on_c, 0, 55, 0
1, 54310, Note_on_c, 0, 79, 0
1, 54320, Tempo, 546001
1, 54320, Note_on_c, 0, 81, 0
1, 54320, Note_on_c, 0, 79, 33
1, 54340, Tempo, 543527
1, 54360, Tempo, 548346
1, 54360, Note_on_c, 0, 53, 69
1, 54380, Tempo, 563380
1, 54400, Tempo, 560852
1, 54400, Note_on_c, 0, 79, 0
1, 54400, Note_on_c, 0, 81, 38
1, 54420, Tempo, 555761
1, 54420, Note_on_c, 0, 53, 0
1, 54440, Tempo, 550812
1, 54460, Tempo, 548346
1, 54480, Tempo, 546001
1, 54480, Note_on_c, 0, 81, 0
1, 54480, Note_on_c, 0, 79, 32
1, 54480, Note_on_c, 0, 52, 69
1, 54540, Tempo, 550812
1, 54540, Note_on_c, 0, 52, 0
1, 54560, Tempo, 558347
1, 54560, Note_on_c, 0, 79, 0
1, 54560, Note_on_c, 0, 81, 37
1, 54580, Tempo, 560852
1, 54600, Note_on_c, 0, 50, 69
1, 54620, Tempo, 553352
1, 54640, Note_on_c, 0, 81, 0
1, 54640, Note_on_c, 0, 79, 32
1, 54660, Note_on_c, 0, 50, 0
1, 54680, Tempo, 553352
1, 54720, Tempo, 546001
1, 54720, Note_on_c, 0, 79, 0
1, 54720, Note_on_c, 0, 81, 38
1, 54720, Note_on_c, 0, 84, 87
1, 54720, Note_on_c, 0, 48, 75
1, 54733, Control_c, 0, 64, 0
1, 54760, Tempo, 553352
1, 54770, Control_c, 0, 64, 127
1, 54780, Tempo, 565984
1, 54780, Note_on_c, 0, 48, 0
1, 54800, Tempo, 550812
1, 54800, Note_on_c, 0, 81, 0
1, 54800, Note_on_c, 0, 79, 32
1, 54840, Note_on_c, 0, 48, 69
1, 54860, Tempo, 558347
1, 54880, Tempo, 563380
1, 54880, Note_on_c, 0, 79, 0
1, 54880, Note_on_c, 0, 81, 37
1, 54900, Tempo, 565984
1, 54900, Note_on_c, 0, 48, 0
1, 54920, Tempo, 563380
1, 54940, Tempo, 553352
1, 54960, Note_on_c, 0, 81, 0
1, 54960, Note_on_c, 0, 79, 32
1, 54960, Note_on_c, 0, 47, 69
1, 55000, Tempo, 555761
1, 55020, Tempo, 560852
1, 55020, Note_on_c, 0, 47, 0
1, 55040, Tempo, 571211
1, 55040, Note_on_c, 0, 79, 0
1, 55040, Note_on_c, 0, 81, 36
1, 55060, Tempo, 553352
1, 55080, Note_on_c, 0, 45, 69
1, 55120, Note_on_c, 0, 81, 0
1, 55120, Note_on_c, 0, 79, 32
1, 55140, Note_on_c, 0, 45, 0
1, 55160, Tempo, 558347
1, 55180, Tempo, 560852
1, 55200, Tempo, 563380
1, 55200, Note_on_c, 0, 79, 0
1, 55200, Note_on_c, 0, 84, 0
1, 55200, Note_on_c, 0, 81, 36
1, 55200, Note_on_c, 0, 88, 84
1, 55200, Note_on_c, 0, 43, 72
1, 55240, Tempo, 573888
1, 55260, Tempo, 582016
1, 55260, Note_on_c, 0, 43, 0
1, 55280, Tempo, 584795
1, 55280, Note_on_c, 0, 81, 0
1, 55280, Note_on_c, 0, 79, 34
1, 55320, Note_on_c, 0, 41, 71
1, 55360, Tempo, 573888
1, 55360, Note_on_c, 0, 79, 0
1, 55360, Note_on_c, 0, 81, 37
1, 55380, Tempo, 571211
1, 55380, Note_on_c, 0, 41, 0
1, 55400, Tempo, 568613
1, 55440, Note_on_c, 0, 81, 0
1, 55440, Note_on_c, 0, 88, 0
1, 55440, Note_on_c, 0, 79, 33
1, 55440, Note_on_c, 0, 40, 75
1, 55460, Tempo, 582016
1, 55500, Note_on_c, 0, 40, 0
1, 55520, Note_on_c, 0, 79, 0
1, 55520, Note_on_c, 0, 81, 36
1, 55560, Tempo, 604839
1, 55560, Note_on_c, 0, 38, 80
1, 55600, Note_on_c, 0, 81, 0
1, 55600, Note_on_c, 0, 79, 32
1, 55620, Note_on_c, 0, 38, 0
1, 55680, Tempo, 616903
1, 55680, Note_on_c, 0, 79, 0
1, 55680, Note_on_c, 0, 81, 36
1, 55680, Note_on_c, 0, 36, 95
1, 55680, Note_on_c, 0, 48, 95
1, 55693, Control_c, 0, 64, 0
1, 55700, Tempo, 616903
1, 55720, Tempo, 610811
1, 55723, Control_c, 0, 64, 127
1, 55740, Tempo, 607841
1, 55760, Tempo, 598982
1, 55760, Note_on_c, 0, 81, 0
1, 55760, Note_on_c, 0, 79, 32
1, 55780, Tempo, 593237
1, 55800, Note_on_c, 0, 50, 56
1, 55840, Tempo, 632778
1, 55840, Note_on_c, 0, 79, 0
1, 55840, Note_on_c, 0, 81, 37
1, 55860, Note_on_c, 0, 50, 0
1, 55860, Note_on_c, 0, 52, 57
1, 55900, Tempo, 629459
1, 55920, Tempo, 623182
1, 55920, Note_on_c, 0, 52, 0
1, 55920, Note_on_c, 0, 81, 0
1, 55920, Note_on_c, 0, 48, 0
1, 55920, Note_on_c, 0, 36, 0
1, 55920, Note_on_c, 0, 79, 33
1, 55920, Note_on_c, 0, 53, 60
1, 55940, Tempo, 616903
1, 55960, Tempo, 601866
1, 55980, Tempo, 598982
1, 55980, Note_on_c, 0, 53, 0
1, 55980, Note_on_c, 0, 55, 60
1, 56000, Tempo, 601866
1, 56000, Note_on_c, 0, 79, 0
1, 56000, Note_on_c, 0, 81, 38
1, 56020, Tempo, 613936
1, 56040, Note_on_c, 0, 55, 0
1, 56040, Note_on_c, 0, 57, 62
1, 56080, Note_on_c, 0, 81, 0
1, 56080, Note_on_c, 0, 79, 33
1, 56100, Tempo, 610811
1, 56100, Note_on_c, 0, 57, 0
1, 56100, Note_on_c, 0, 59, 63
1, 56160, Tempo, 587602
1, 56160, Note_on_c, 0, 59, 0
1, 56160, Note_on_c, 0, 79, 0
1, 56160, Note_on_c, 0, 81, 39
1, 56160, Note_on_c, 0, 91, 90
1, 56160, Note_on_c, 0, 60, 63
1, 56180, Tempo, 582016
1, 56200, Tempo, 576535
1, 56220, Tempo, 573888
1, 56240, Tempo, 582016
1, 56240, Note_on_c, 0, 81, 0
1, 56240, Note_on_c, 0, 79, 35
1, 56260, Tempo, 584795
1, 56280, Tempo, 587602
1, 56280, Note_on_c, 0, 60, 0
1, 56280, Note_on_c, 0, 62, 65
1, 56300, Tempo, 590319
1, 56320, Tempo, 596066
1, 56320, Note_on_c, 0, 79, 0
1, 56320, Note_on_c, 0, 81, 40
1, 56340, Note_on_c, 0, 62, 0
1, 56340, Note_on_c, 0, 64, 66
1, 56360, Tempo, 593237
1, 56380, Tempo, 587602
1, 56400, Tempo, 584795
1, 56400, Note_on_c, 0, 64, 0
1, 56400, Note_on_c, 0, 81, 0
1, 56400, Note_on_c, 0, 91, 0
1, 56400, Note_on_c, 0, 79, 36
1, 56400, Note_on_c, 0, 65, 67
1, 56420, Tempo, 576535
1, 56460, Tempo, 582016
1, 56460, Note_on_c, 0, 65, 0
1, 56460, Note_on_c, 0, 67, 69
1, 56480, Tempo, 593237
1, 56480, Note_on_c, 0, 79, 0
1, 56480, Note_on_c, 0, 81, 40
1, 56520, Note_on_c, 0, 67, 0
1, 56520, Note_on_c, 0, 69, 70
1, 56540, Tempo, 587602
1, 56560, Tempo, 576535
1, 56560, Note_on_c, 0, 81, 0
1, 56560, Note_on_c, 0, 79, 36
1, 56580, Note_on_c, 0, 69, 0
1, 56580, Note_on_c, 0, 71, 71
1, 56620, Tempo, 558347
1, 56640, Tempo, 553352
1, 56640, Note_on_c, 0, 71, 0
1, 56640, Note_on_c, 0, 79, 0
1, 56640, Note_on_c, 0, 81, 40
1, 56640, Note_on_c, 0, 91, 92
1, 56640, Note_on_c, 0, 72, 74
1, 56680, Tempo, 548346
1, 56700, Tempo, 546001
1, 56700, Note_on_c, 0, 72, 0
1, 56720, Note_on_c, 0, 81, 0
1, 56720, Note_on_c, 0, 79, 37
1, 56760, Tempo, 548346
1, 56760, Note_on_c, 0, 71, 71
1, 56780, Tempo, 555761
1, 56800, Tempo, 563380
1, 56800, Note_on_c, 0, 79, 0
1, 56800, Note_on_c, 0, 81, 40
1, 56820, Note_on_c, 0, 71, 0
1, 56860, Tempo, 558347
1, 56880, Tempo, 553352
1, 56880, Note_on_c, 0, 81, 0
1, 56880, Note_on_c, 0, 79, 36
1, 56880, Note_on_c, 0, 69, 71
1, 56900, Tempo, 550812
1, 56920, Tempo, 548346
1, 56940, Tempo, 550812
1, 56940, Note_on_c, 0, 69, 0
1, 56960, Tempo, 555761
1, 56960, Note_on_c, 0, 79, 0
1, 56960, Note_on_c, 0, 81, 40
1, 56980, Tempo, 560852
1, 57000, Tempo, 563380
1, 57000, Note_on_c, 0, 67, 71
1, 57040, Tempo, 560852
1, 57040, Note_on_c, 0, 81, 0
1, 57040, Note_on_c, 0, 79, 36
1, 57060, Tempo, 558347
1, 57060, Note_on_c, 0, 67, 0
1, 57080, Tempo, 553352
1, 57100, Tempo, 548346
1, 57120, Tempo, 550812
1, 57120, Note_on_c, 0, 79, 0
1, 57120, Note_on_c, 0, 81, 39
1, 57120, Note_on_c, 0, 65, 72
1, 57160, Tempo, 553352
1, 57180, Tempo, 563380
1, 57180, Note_on_c, 0, 65, 0
1, 57200, Tempo, 568613
1, 57200, Note_on_c, 0, 81, 0
1, 57200, Note_on_c, 0, 79, 36
1, 57240, Note_on_c, 0, 64, 69
1, 57260, Tempo, 565984
1, 57280, Tempo, 563380
1, 57280, Note_on_c, 0, 79, 0
1, 57280, Note_on_c, 0, 81, 38
1, 57300, Tempo, 553352
1, 57300, Note_on_c, 0, 64, 0
1, 57320, Tempo, 550812
1, 57340, Tempo, 548346
1, 57360, Note_on_c, 0, 81, 0
1, 57360, Note_on_c, 0, 91, 0
1, 57360, Note_on_c, 0, 79, 32
1, 57360, Note_on_c, 0, 88, 84
1, 57360, Note_on_c, 0, 62, 69
1, 57400, Tempo, 550812
1, 57420, Tempo, 555761
1, 57420, Note_on_c, 0, 62, 0
1, 57440, Tempo, 558347
1, 57440, Note_on_c, 0, 79, 0
1, 57440, Note_on_c, 0, 81, 37
1, 57480, Note_on_c, 0, 60, 67
1, 57500, Tempo, 555761
1, 57520, Note_on_c, 0, 81, 0
1, 57520, Note_on_c, 0, 79, 33
1, 57540, Note_on_c, 0, 60, 0
1, 57600, Tempo, 541174
1, 57600, Note_on_c, 0, 79, 0
1, 57600, Note_on_c, 0, 88, 0
1, 57600, Note_on_c, 0, 81, 39
1, 57600, Note_on_c, 0, 86, 90
1, 57600, Note_on_c, 0, 59, 73
1, 57612, Control_c, 0, 64, 0
1, 57620, Tempo, 538793
1, 57635, Control_c, 0, 64, 127
1, 57640, Tempo, 536481
1, 57660, Tempo, 534140
1, 57660, Note_on_c, 0, 59, 0
1, 57680, Note_on_c, 0, 81, 0
1, 57680, Note_on_c, 0, 79, 32
1, 57700, Tempo, 531821
1, 57720, Note_on_c, 0, 60, 69
1, 57740, Tempo, 543527
1, 57760, Tempo, 546001
1, 57760, Note_on_c, 0, 79, 0
1, 57760, Note_on_c, 0, 81, 36
1, 57780, Note_on_c, 0, 60, 0
1, 57820, Tempo, 541174
1, 57840, Note_on_c, 0, 81, 0
1, 57840, Note_on_c, 0, 79, 31
1, 57840, Note_on_c, 0, 59, 69
1, 57860, Tempo, 538793
1, 57880, Tempo, 536481
1, 57900, Tempo, 534140
1, 57900, Note_on_c, 0, 59, 0
1, 57920, Note_on_c, 0, 79, 0
1, 57920, Note_on_c, 0, 81, 36
1, 57940, Tempo, 536481
1, 57960, Tempo, 543527
1, 57960, Note_on_c, 0, 57, 69
1, 57980, Tempo, 546001
1, 58000, Note_on_c, 0, 81, 0
1, 58000, Note_on_c, 0, 79, 30
1, 58020, Note_on_c, 0, 57, 0
1, 58040, Tempo, 555761
1, 58080, Note_on_c, 0, 79, 0
1, 58080, Note_on_c, 0, 86, 0
1, 58080, Note_on_c, 0, 81, 36
1, 58080, Note_on_c, 0, 79, 82
1, 58080, Note_on_c, 0, 55, 75
1, 58120, Tempo, 553352
1, 58140, Tempo, 550812
1, 58140, Note_on_c, 0, 55, 0
1, 58150, Note_on_c, 0, 79, 0
1, 58160, Tempo, 548346
1, 58160, Note_on_c, 0, 81, 0
1, 58160, Note_on_c, 0, 79, 31
1, 58200, Note_on_c, 0, 53, 69
1, 58240, Tempo, 555761
1, 58240, Note_on_c, 0, 79, 0
1, 58240, Note_on_c, 0, 81, 36
1, 58260, Tempo, 558347
1, 58260, Note_on_c, 0, 53, 0
1, 58300, Tempo, 555761
1, 58320, Tempo, 550812
1, 58320, Note_on_c, 0, 81, 0
1, 58320, Note_on_c, 0, 79, 34
1, 58320, Note_on_c, 0, 52, 69
1, 58360, Tempo, 548346
1, 58380, Tempo, 546001
1, 58380, Note_on_c, 0, 52, 0
1, 58400, Tempo, 555761
1, 58400, Note_on_c, 0, 79, 0
1, 58400, Note_on_c, 0, 78, 36
1, 58440, Note_on_c, 0, 50, 69
1, 58480, Tempo, 550812
1, 58480, Note_on_c, 0, 78, 0
1, 58480, Note_on_c, 0, 79, 31
1, 58500, Note_on_c, 0, 50, 0
1, 58560, Tempo, 561798
1, 58560, Note_on_c, 0, 79, 0
1, 58560, Note_on_c, 0, 84, 86
1, 58560, Note_on_c, 0, 48, 75
1, 58569, Control_c, 0, 64, 0
1, 58800, Note_on_c, 0, 48, 0
1, 58800, Note_on_c, 0, 84, 0
1, 58800, Note_on_c, 0, 36, 75
1, 59040, Note_on_c, 0, 36, 0
1, 59040, Note_on_c, 0, 60, 68
1, 59120, Note_on_c, 0, 60, 0
1, 59120, Note_on_c, 0, 64, 62
1, 59200, Note_on_c, 0, 64, 0
1, 59200, Note_on_c, 0, 60, 62
1, 59280, Note_on_c, 0, 60, 0
1, 59280, Note_on_c, 0, 55, 62
1, 59280, Note_on_c, 0, 36, 60
1, 59280, Note_on_c, 0, 48, 71
1, 59305, Control_c, 0, 64, 127
1, 59360, Note_on_c, 0, 55, 0
1, 59360, Note_on_c, 0, 52, 62
1, 59440, Note_on_c, 0, 52, 0
1, 59440, Note_on_c, 0, 55, 62
1, 59520, Tempo, 553914
1, 59520, Note_on_c, 0, 55, 0
1, 59520, Note_on_c, 0, 48, 0
1, 59520, Note_on_c, 0, 36, 0
1, 59520, Note_on_c, 0, 60, 68
1, 59526, Control_c, 0, 64, 0
1, 59600, Note_on_c, 0, 60, 0
1, 59600, Note_on_c, 0, 65, 62
1, 59680, Note_on_c, 0, 65, 0
1, 59680, Note_on_c, 0, 60, 62
1, 59760, Note_on_c, 0, 60, 0
1, 59760, Note_on_c, 0, 57, 62
1, 59760, Note_on_c, 0, 36, 60
1, 59760, Note_on_c, 0, 48, 71
1, 59767, Control_c, 0, 64, 127
1, 59840, Note_on_c, 0, 57, 0
1, 59840, Note_on_c, 0, 53, 62
1, 59920, Note_on_c, 0, 53, 0
1, 59920, Note_on_c, 0, 57, 62
1, 60000, Note_on_c, 0, 57, 0
1, 60000, Note_on_c, 0, 48, 0
1, 60000, Note_on_c, 0, 36, 0
1, 60000, Note_on_c, 0, 60, 68
1, 60013, Control_c, 0, 64, 0
1, 60080, Note_on_c, 0, 60, 0
1, 60080, Note_on_c, 0, 64, 61
1, 60160, Note_on_c, 0, 64, 0
1, 60160, Note_on_c, 0, 60, 61
1, 60240, Note_on_c, 0, 60, 0
1, 60240, Note_on_c, 0, 55, 61
1, 60240, Note_on_c, 0, 36, 57
1, 60240, Note_on_c, 0, 48, 68
1, 60240, Control_c, 0, 64, 127
1, 60320, Note_on_c, 0, 55, 0
1, 60320, Note_on_c, 0, 52, 61
1, 60400, Note_on_c, 0, 52, 0
1, 60400, Note_on_c, 0, 55, 61
1, 60480, Note_on_c, 0, 55, 0
1, 60480, Note_on_c, 0, 48, 0
1, 60480, Note_on_c, 0, 36, 0
1, 60480, Note_on_c, 0, 60, 63
1, 60488, Control_c, 0, 64, 0
1, 60560, Note_on_c, 0, 60, 0
1, 60560, Note_on_c, 0, 62, 59
1, 60640, Note_on_c, 0, 62, 0
1, 60640, Note_on_c, 0, 60, 59
1, 60720, Note_on_c, 0, 60, 0
1, 60720, Note_on_c, 0, 53, 59
1, 60720, Note_on_c, 0, 36, 53
1, 60720, Note_on_c, 0, 48, 63
1, 60735, Control_c, 0, 64, 127
1, 60800, Note_on_c, 0, 53, 0
1, 60800, Note_on_c, 0, 50, 59
1, 60880, Note_on_c, 0, 50, 0
1, 60880, Note_on_c, 0, 53, 59
1, 60960, Tempo, 561798
1, 60960, Note_on_c, 0, 53, 0
1, 60960, Note_on_c, 0, 48, 0
1, 60960, Note_on_c, 0, 36, 0
1, 60960, Note_on_c, 0, 60, 68
1, 60977, Control_c, 0, 64, 0
1, 61040, Note_on_c, 0, 60, 0
1, 61040, Note_on_c, 0, 63, 61
1, 61120, Note_on_c, 0, 63, 0
1, 61120, Note_on_c, 0, 60, 61
1, 61200, Note_on_c, 0, 60, 0
1, 61200, Note_on_c, 0, 54, 61
1, 61200, Note_on_c, 0, 36, 59
1, 61200, Note_on_c, 0, 48, 70
1, 61212, Control_c, 0, 64, 127
1, 61280, Note_on_c, 0, 54, 0
1, 61280, Note_on_c, 0, 51, 61
1, 61360, Note_on_c, 0, 51, 0
1, 61360, Note_on_c, 0, 54, 61
1, 61440, Note_on_c, 0, 54, 0
1, 61440, Note_on_c, 0, 48, 0
1, 61440, Note_on_c, 0, 36, 0
1, 61440, Note_on_c, 0, 60, 68
1, 61440, Control_c, 0, 64, 0
1, 61520, Note_on_c, 0, 60, 0
1, 61520, Note_on_c, 0, 64, 62
1, 61600, Note_on_c, 0, 64, 0
1, 61600, Note_on_c, 0, 60, 62
1, 61680, Note_on_c, 0, 60, 0
1, 61680, Note_on_c, 0, 55, 62
1, 61680, Note_on_c, 0, 36, 60
1, 61680, Note_on_c, 0, 48, 71
1, 61719, Control_c, 0, 64, 127
1, 61760, Note_on_c, 0, 55, 0
1, 61760, Note_on_c, 0, 52, 62
1, 61840, Note_on_c, 0, 52, 0
1, 61840, Note_on_c, 0, 55, 62
1, 61920, Tempo, 567161
1, 61920, Note_on_c, 0, 55, 0
1, 61920, Note_on_c, 0, 48, 0
1, 61920, Note_on_c, 0, 36, 0
1, 61920, Note_on_c, 0, 59, 68
1, 61933, Control_c, 0, 64, 0
1, 62000, Note_on_c, 0, 59, 0
1, 62000, Note_on_c, 0, 62, 61
1, 62080, Note_on_c, 0, 62, 0
1, 62080, Note_on_c, 0, 59, 61
1, 62160, Note_on_c, 0, 59, 0
1, 62160, Note_on_c, 0, 53, 61
1, 62160, Note_on_c, 0, 36, 60
1, 62160, Note_on_c, 0, 48, 71
1, 62203, Control_c, 0, 64, 127
1, 62240, Note_on_c, 0, 53, 0
1, 62240, Note_on_c, 0, 50, 61
1, 62320, Note_on_c, 0, 50, 0
1, 62320, Note_on_c, 0, 53, 61
1, 62400, Tempo, 561798
1, 62400, Note_on_c, 0, 53, 0
1, 62400, Note_on_c, 0, 48, 0
1, 62400, Note_on_c, 0, 36, 0
1, 62400, Note_on_c, 0, 55, 68
1, 62407, Control_c, 0, 64, 0
1, 62480, Note_on_c, 0, 55, 0
1, 62480, Note_on_c, 0, 60, 62
1, 62560, Note_on_c, 0, 60, 0
1, 62560, Note_on_c, 0, 55, 62
1, 62640, Note_on_c, 0, 55, 0
1, 62640, Note_on_c, 0, 52, 62
1, 62640, Note_on_c, 0, 36, 71
1, 62683, Control_c, 0, 64, 127
1, 62720, Note_on_c, 0, 52, 0
1, 62720, Note_on_c, 0, 48, 62
1, 62800, Note_on_c, 0, 48, 0
1, 62800, Note_on_c, 0, 52, 62
1, 62880, Note_on_c, 0, 52, 0
1, 62880, Note_on_c, 0, 36, 0
1, 62880, Note_on_c, 0, 64, 68
1, 62895, Control_c, 0, 64, 0
1, 62960, Note_on_c, 0, 64, 0
1, 62960, Note_on_c, 0, 67, 62
1, 63040, Note_on_c, 0, 67, 0
1, 63040, Note_on_c, 0, 64, 62
1, 63120, Note_on_c, 0, 64, 0
1, 63120, Note_on_c, 0, 60, 62
1, 63120, Note_on_c, 0, 48, 60
1, 63120, Note_on_c, 0, 40, 60
1, 63120, Note_on_c, 0, 52, 71
1, 63163, Control_c, 0, 64, 127
1, 63200, Note_on_c, 0, 60, 0
1, 63200, Note_on_c, 0, 55, 62
1, 63280, Note_on_c, 0, 55, 0
1, 63280, Note_on_c, 0, 60, 62
1, 63360, Tempo, 553914
1, 63360, Note_on_c, 0, 60, 0
1, 63360, Note_on_c, 0, 48, 0
1, 63360, Note_on_c, 0, 40, 0
1, 63360, Note_on_c, 0, 52, 0
1, 63360, Note_on_c, 0, 65, 68
1, 63368, Control_c, 0, 64, 0
1, 63440, Note_on_c, 0, 65, 0
1, 63440, Note_on_c, 0, 69, 62
1, 63520, Note_on_c, 0, 69, 0
1, 63520, Note_on_c, 0, 65, 62
1, 63600, Note_on_c, 0, 65, 0
1, 63600, Note_on_c, 0, 60, 62
1, 63600, Note_on_c, 0, 48, 60
1, 63600, Note_on_c, 0, 41, 60
1, 63600, Note_on_c, 0, 53, 71
1, 63657, Control_c, 0, 64, 127
1, 63680, Note_on_c, 0, 60, 0
1, 63680, Note_on_c, 0, 57, 62
1, 63760, Note_on_c, 0, 57, 0
1, 63760, Note_on_c, 0, 60, 62
1, 63840, Note_on_c, 0, 60, 0
1, 63840, Note_on_c, 0, 48, 0
1, 63840, Note_on_c, 0, 41, 0
1, 63840, Note_on_c, 0, 53, 0
1, 63840, Note_on_c, 0, 64, 68
1, 63854, Control_c, 0, 64, 0
1, 63920, Note_on_c, 0, 64, 0
1, 63920, Note_on_c, 0, 67, 61
1, 64000, Note_on_c, 0, 67, 0
1, 64000, Note_on_c, 0, 64, 61
1, 64080, Note_on_c, 0, 64, 0
1, 64080, Note_on_c, 0, 60, 61
1, 64080, Note_on_c, 0, 48, 57
1, 64080, Note_on_c, 0, 40, 57
1, 64080, Note_on_c, 0, 52, 68
1, 64108, Control_c, 0, 64, 127
1, 64160, Note_on_c, 0, 60, 0
1, 64160, Note_on_c, 0, 55, 61
1, 64240, Note_on_c, 0, 55, 0
1, 64240, Note_on_c, 0, 60, 61
1, 64320, Note_on_c, 0, 60, 0
1, 64320, Note_on_c, 0, 48, 0
1, 64320, Note_on_c, 0, 40, 0
1, 64320, Note_on_c, 0, 52, 0
1, 64320, Note_on_c, 0, 62, 63
1, 64329, Control_c, 0, 64, 0
1, 64400, Note_on_c, 0, 62, 0
1, 64400, Note_on_c, 0, 65, 59
1, 64480, Note_on_c, 0, 65, 0
1, 64480, Note_on_c, 0, 62, 59
1, 64560, Note_on_c, 0, 62, 0
1, 64560, Note_on_c, 0, 60, 59
1, 64560, Note_on_c, 0, 48, 53
1, 64560, Note_on_c, 0, 38, 53
1, 64560, Note_on_c, 0, 50, 63
1, 64600, Control_c, 0, 64, 127
1, 64640, Note_on_c, 0, 60, 0
1, 64640, Note_on_c, 0, 53, 59
1, 64720, Note_on_c, 0, 53, 0
1, 64720, Note_on_c, 0, 60, 59
1, 64800, Tempo, 561798
1, 64800, Note_on_c, 0, 60, 0
1, 64800, Note_on_c, 0, 48, 0
1, 64800, Note_on_c, 0, 38, 0
1, 64800, Note_on_c, 0, 50, 0
1, 64800, Note_on_c, 0, 63, 68
1, 64814, Control_c, 0, 64, 0
1, 64880, Note_on_c, 0, 63, 0
1, 64880, Note_on_c, 0, 66, 61
1, 64960, Note_on_c, 0, 66, 0
1, 64960, Note_on_c, 0, 63, 61
1, 65040, Note_on_c, 0, 63, 0
1, 65040, Note_on_c, 0, 60, 61
1, 65040, Note_on_c, 0, 48, 59
1, 65040, Note_on_c, 0, 39, 59
1, 65040, Note_on_c, 0, 51, 70
1, 65083, Control_c, 0, 64, 127
1, 65120, Note_on_c, 0, 60, 0
1, 65120, Note_on_c, 0, 54, 61
1, 65200, Note_on_c, 0, 54, 0
1, 65200, Note_on_c, 0, 60, 61
1, 65280, Note_on_c, 0, 60, 0
1, 65280, Note_on_c, 0, 48, 0
1, 65280, Note_on_c, 0, 39, 0
1, 65280, Note_on_c, 0, 51, 0
1, 65280, Note_on_c, 0, 64, 68
1, 65291, Control_c, 0, 64, 0
1, 65360, Note_on_c, 0, 64, 0
1, 65360, Note_on_c, 0, 67, 62
1, 65440, Note_on_c, 0, 67, 0
1, 65440, Note_on_c, 0, 64, 62
1, 65520, Note_on_c, 0, 64, 0
1, 65520, Note_on_c, 0, 60, 62
1, 65520, Note_on_c, 0, 48, 60
1, 65520, Note_on_c, 0, 40, 60
1, 65520, Note_on_c, 0, 52, 71
1, 65527, Control_c, 0, 64, 127
1, 65600, Note_on_c, 0, 60, 0
1, 65600, Note_on_c, 0, 55, 62
1, 65680, Note_on_c, 0, 55, 0
1, 65680, Note_on_c, 0, 60, 62
1, 65760, Tempo, 567161
1, 65760, Note_on_c, 0, 60, 0
1, 65760, Note_on_c, 0, 48, 0
1, 65760, Note_on_c, 0, 40, 0
1, 65760, Note_on_c, 0, 52, 0
1, 65760, Note_on_c, 0, 62, 68
1, 65774, Control_c, 0, 64, 0
1, 65840, Note_on_c, 0, 62, 0
1, 65840, Note_on_c, 0, 65, 61
1, 65920, Note_on_c, 0, 65, 0
1, 65920, Note_on_c, 0, 62, 61
1, 66000, Note_on_c, 0, 62, 0
1, 66000, Note_on_c, 0, 59, 61
1, 66000, Note_on_c, 0, 48, 60
1, 66000, Note_on_c, 0, 38, 60
1, 66000, Note_on_c, 0, 50, 71
1, 66046, Control_c, 0, 64, 127
1, 66080, Note_on_c, 0, 59, 0
1, 66080, Note_on_c, 0, 53, 61
1, 66160, Note_on_c, 0, 53, 0
1, 66160, Note_on_c, 0, 59, 61
1, 66240, Tempo, 564387
1, 66240, Note_on_c, 0, 59, 0
1, 66240, Note_on_c, 0, 48, 0
1, 66240, Note_on_c, 0, 38, 0
1, 66240, Note_on_c, 0, 50, 0
1, 66240, Note_on_c, 0, 60, 68
1, 66253, Control_c, 0, 64, 0
1, 66320, Tempo, 567161
1, 66320, Note_on_c, 0, 60, 0
1, 66320, Note_on_c, 0, 64, 62
1, 66400, Tempo, 569855
1, 66400, Note_on_c, 0, 64, 0
1, 66400, Note_on_c, 0, 60, 62
1, 66480, Tempo, 572574
1, 66480, Note_on_c, 0, 60, 0
1, 66480, Note_on_c, 0, 52, 62
1, 66480, Note_on_c, 0, 36, 63
1, 66480, Note_on_c, 0, 48, 63
1, 66519, Control_c, 0, 64, 127
1, 66560, Tempo, 575319
1, 66560, Note_on_c, 0, 52, 0
1, 66560, Note_on_c, 0, 64, 62
1, 66640, Tempo, 578202
1, 66640, Note_on_c, 0, 64, 0
1, 66640, Note_on_c, 0, 52, 62
1, 66700, Tempo, 580945
1, 66720, Tempo, 564387
1, 66720, Note_on_c, 0, 52, 0
1, 66720, Note_on_c, 0, 48, 0
1, 66720, Note_on_c, 0, 36, 0
1, 66720, Note_on_c, 0, 40, 82
1, 66729, Control_c, 0, 64, 0
1, 66800, Note_on_c, 0, 52, 70
1, 66840, Note_on_c, 0, 40, 0
1, 66880, Note_on_c, 0, 52, 0
1, 66880, Note_on_c, 0, 64, 70
1, 66960, Note_on_c, 0, 64, 0
1, 66960, Note_on_c, 0, 40, 82
1, 67040, Note_on_c, 0, 52, 71
1, 67080, Note_on_c, 0, 40, 0
1, 67120, Note_on_c, 0, 52, 0
1, 67120, Note_on_c, 0, 64, 72
1, 67200, Tempo, 561798
1, 67200, Note_on_c, 0, 64, 0
1, 67200, Note_on_c, 0, 33, 68
1, 67200, Note_on_c, 0, 45, 80
1, 67280, Note_on_c, 0, 57, 73
1, 67320, Note_on_c, 0, 45, 0
1, 67320, Note_on_c, 0, 33, 0
1, 67360, Note_on_c, 0, 57, 0
1, 67360, Note_on_c, 0, 69, 74
1, 67440, Note_on_c, 0, 69, 0
1, 67440, Note_on_c, 0, 35, 70
1, 67440, Note_on_c, 0, 47, 83
1, 67520, Note_on_c, 0, 59, 75
1, 67560, Note_on_c, 0, 47, 0
1, 67560, Note_on_c, 0, 35, 0
1, 67600, Note_on_c, 0, 59, 0
1, 67600, Note_on_c, 0, 71, 77
1, 67680, Tempo, 561798
1, 67680, Note_on_c, 0, 71, 0
1, 67680, Note_on_c, 0, 36, 72
1, 67680, Note_on_c, 0, 48, 85
1, 67760, Tempo, 564387
1, 67760, Note_on_c, 0, 60, 78
1, 67800, Note_on_c, 0, 48, 0
1, 67800, Note_on_c, 0, 36, 0
1, 67820, Tempo, 567161
1, 67840, Note_on_c, 0, 60, 0
1, 67840, Note_on_c, 0, 72, 79
1, 67880, Tempo, 569855
1, 67920, Note_on_c, 0, 72, 0
1, 67920, Note_on_c, 0, 38, 74
1, 67920, Note_on_c, 0, 50, 89
1, 67960, Tempo, 572574
1, 68000, Note_on_c, 0, 62, 80
1, 68020, Tempo, 575319
1, 68040, Note_on_c, 0, 50, 0
1, 68040, Note_on_c, 0, 38, 0
1, 68080, Tempo, 578202
1, 68080, Note_on_c, 0, 62, 0
1, 68080, Note_on_c, 0, 74, 81
1, 68140, Tempo, 580945
1, 68160, Tempo, 572574
1, 68160, Note_on_c, 0, 74, 0
1, 68160, Note_on_c, 0, 76, 85
1, 68160, Note_on_c, 0, 40, 80
1, 68160, Note_on_c, 0, 52, 95
1, 68231, Control_c, 0, 64, 127
1, 68240, Note_on_c, 0, 76, 0
1, 68240, Note_on_c, 0, 64, 85
1, 68320, Note_on_c, 0, 64, 0
1, 68320, Note_on_c, 0, 76, 84
1, 68400, Note_on_c, 0, 76, 0
1, 68400, Note_on_c, 0, 64, 84
1, 68480, Note_on_c, 0, 64, 0
1, 68480, Note_on_c, 0, 76, 84
1, 68560, Note_on_c, 0, 76, 0
1, 68560, Note_on_c, 0, 64, 82
1, 68640, Tempo, 556535
1, 68640, Note_on_c, 0, 64, 0
1, 68640, Note_on_c, 0, 52, 0
1, 68640, Note_on_c, 0, 40, 0
1, 68640, Note_on_c, 0, 40, 74
1, 68640, Note_on_c, 0, 52, 88
1, 68640, Control_c, 0, 64, 0
1, 68720, Note_on_c, 0, 64, 79
1, 68760, Note_on_c, 0, 52, 0
1, 68760, Note_on_c, 0, 40, 0
1, 68800, Note_on_c, 0, 64, 0
1, 68800, Note_on_c, 0, 76, 78
1, 68880, Note_on_c, 0, 76, 0
1, 68880, Note_on_c, 0, 38, 73
1, 68880, Note_on_c, 0, 50, 86
1, 68960, Note_on_c, 0, 62, 77
1, 69000, Note_on_c, 0, 50, 0
1, 69000, Note_on_c, 0, 38, 0
1, 69040, Note_on_c, 0, 62, 0
1, 69040, Note_on_c, 0, 74, 77
1, 69120, Tempo, 559128
1, 69120, Note_on_c, 0, 74, 0
1, 69120, Note_on_c, 0, 36, 71
1, 69120, Note_on_c, 0, 48, 84
1, 69200, Note_on_c, 0, 60, 75
1, 69240, Note_on_c, 0, 48, 0
1, 69240, Note_on_c, 0, 36, 0
1, 69280, Note_on_c, 0, 60, 0
1, 69280, Note_on_c, 0, 72, 75
1, 69360, Note_on_c, 0, 72, 0
1, 69360, Note_on_c, 0, 35, 69
1, 69360, Note_on_c, 0, 47, 82
1, 69440, Note_on_c, 0, 59, 74
1, 69480, Note_on_c, 0, 47, 0
1, 69480, Note_on_c, 0, 35, 0
1, 69520, Note_on_c, 0, 59, 0
1, 69520, Note_on_c, 0, 71, 74
1, 69580, Tempo, 553914
1, 69600, Note_on_c, 0, 71, 0
1, 69600, Note_on_c, 0, 36, 68
1, 69600, Note_on_c, 0, 48, 80
1, 69640, Tempo, 556535
1, 69680, Note_on_c, 0, 60, 73
1, 69700, Tempo, 559128
1, 69720, Note_on_c, 0, 48, 0
1, 69720, Note_on_c, 0, 36, 0
1, 69760, Tempo, 561798
1, 69760, Note_on_c, 0, 60, 0
1, 69760, Note_on_c, 0, 72, 73
1, 69820, Tempo, 564387
1, 69840, Note_on_c, 0, 72, 0
1, 69840, Note_on_c, 0, 33, 67
1, 69840, Note_on_c, 0, 45, 79
1, 69880, Tempo, 567161
1, 69920, Note_on_c, 0, 57, 72
1, 69940, Tempo, 569855
1, 69960, Note_on_c, 0, 45, 0
1, 69960, Note_on_c, 0, 33, 0
1, 70000, Tempo, 572574
1, 70000, Note_on_c, 0, 57, 0
1, 70000, Note_on_c, 0, 69, 73
1, 70060, Tempo, 575319
1, 70080, Tempo, 564387
1, 70080, Note_on_c, 0, 69, 0
1, 70080, Note_on_c, 0, 64, 85
1, 70080, Note_on_c, 0, 40, 92
1, 70160, Tempo, 567161
1, 70160, Note_on_c, 0, 64, 0
1, 70160, Note_on_c, 0, 52, 77
1, 70186, Control_c, 0, 64, 127
1, 70240, Tempo, 569855
1, 70240, Note_on_c, 0, 52, 0
1, 70240, Note_on_c, 0, 64, 77
1, 70320, Tempo, 572574
1, 70320, Note_on_c, 0, 64, 0
1, 70320, Note_on_c, 0, 52, 77
1, 70400, Tempo, 575319
1, 70400, Note_on_c, 0, 52, 0
1, 70400, Note_on_c, 0, 64, 77
1, 70480, Tempo, 578202
1, 70480, Note_on_c, 0, 64, 0
1, 70480, Note_on_c, 0, 52, 77
1, 70540, Tempo, 580945
1, 70560, Tempo, 564387
1, 70560, Note_on_c, 0, 52, 0
1, 70560, Note_on_c, 0, 40, 0
1, 70560, Note_on_c, 0, 40, 69
1, 70560, Note_on_c, 0, 52, 82
1, 70571, Control_c, 0, 64, 0
1, 70640, Note_on_c, 0, 64, 70
1, 70680, Note_on_c, 0, 52, 0
1, 70680, Note_on_c, 0, 40, 0
1, 70720, Note_on_c, 0, 64, 0
1, 70720, Note_on_c, 0, 76, 70
1, 70800, Note_on_c, 0, 76, 0
1, 70800, Note_on_c, 0, 40, 69
1, 70800, Note_on_c, 0, 52, 82
1, 70880, Note_on_c, 0, 64, 71
1, 70920, Note_on_c, 0, 52, 0
1, 70920, Note_on_c, 0, 40, 0
1, 70960, Note_on_c, 0, 64, 0
1, 70960, Note_on_c, 0, 76, 72
1, 71040, Tempo, 561798
1, 71040, Note_on_c, 0, 76, 0
1, 71040, Note_on_c, 0, 45, 68
1, 71040, Note_on_c, 0, 57, 80
1, 71120, Note_on_c, 0, 69, 73
1, 71160, Note_on_c, 0, 57, 0
1, 71160, Note_on_c, 0, 45, 0
1, 71200, Note_on_c, 0, 69, 0
1, 71200, Note_on_c, 0, 81, 74
1, 71280, Note_on_c, 0, 81, 0
1, 71280, Note_on_c, 0, 47, 70
1, 71280, Note_on_c, 0, 59, 83
1, 71360, Note_on_c, 0, 71, 75
1, 71400, Note_on_c, 0, 59, 0
1, 71400, Note_on_c, 0, 47, 0
1, 71440, Note_on_c, 0, 71, 0
1, 71440, Note_on_c, 0, 83, 77
1, 71520, Tempo, 561798
1, 71520, Note_on_c, 0, 83, 0
1, 71520, Note_on_c, 0, 48, 72
1, 71520, Note_on_c, 0, 60, 85
1, 71600, Tempo, 564387
1, 71600, Note_on_c, 0, 72, 78
1, 71640, Note_on_c, 0, 60, 0
1, 71640, Note_on_c, 0, 48, 0
1, 71660, Tempo, 567161
1, 71680, Note_on_c, 0, 72, 0
1, 71680, Note_on_c, 0, 84, 79
1, 71720, Tempo, 569855
1, 71760, Note_on_c, 0, 84, 0
1, 71760, Note_on_c, 0, 50, 74
1, 71760, Note_on_c, 0, 62, 89
1, 71800, Tempo, 572574
1, 71840, Note_on_c, 0, 74, 80
1, 71860, Tempo, 575319
1, 71880, Note_on_c, 0, 62, 0
1, 71880, Note_on_c, 0, 50, 0
1, 71920, Tempo, 578202
1, 71920, Note_on_c, 0, 74, 0
1, 71920, Note_on_c, 0, 86, 81
1, 71980, Tempo, 580945
1, 72000, Tempo, 572574
1, 72000, Note_on_c, 0, 86, 0
1, 72000, Note_on_c, 0, 88, 85
1, 72000, Note_on_c, 0, 52, 80
1, 72000, Note_on_c, 0, 64, 95
1, 72043, Control_c, 0, 64, 127
1, 72080, Note_on_c, 0, 88, 0
1, 72080, Note_on_c, 0, 76, 85
1, 72160, Note_on_c, 0, 76, 0
1, 72160, Note_on_c, 0, 88, 84
1, 72240, Note_on_c, 0, 88, 0
1, 72240, Note_on_c, 0, 76, 84
1, 72320, Note_on_c, 0, 76, 0
1, 72320, Note_on_c, 0, 88, 84
1, 72400, Note_on_c, 0, 88, 0
1, 72400, Note_on_c, 0, 76, 82
1, 72480, Tempo, 556535
1, 72480, Note_on_c, 0, 76, 0
1, 72480, Note_on_c, 0, 64, 0
1, 72480, Note_on_c, 0, 52, 0
1, 72480, Note_on_c, 0, 52, 74
1, 72480, Note_on_c, 0, 64, 88
1, 72487, Control_c, 0, 64, 0
1, 72560, Note_on_c, 0, 76, 79
1, 72600, Note_on_c, 0, 64, 0
1, 72600, Note_on_c, 0, 52, 0
1, 72640, Note_on_c, 0, 76, 0
1, 72640, Note_on_c, 0, 88, 78
1, 72720, Note_on_c, 0, 88, 0
1, 72720, Note_on_c, 0, 50, 73
1, 72720, Note_on_c, 0, 62, 86
1, 72800, Note_on_c, 0, 74, 77
1, 72840, Note_on_c, 0, 62, 0
1, 72840, Note_on_c, 0, 50, 0
1, 72880, Note_on_c, 0, 74, 0
1, 72880, Note_on_c, 0, 86, 77
1, 72960, Tempo, 559128
1, 72960, Note_on_c, 0, 86, 0
1, 72960, Note_on_c, 0, 48, 71
1, 72960, Note_on_c, 0, 60, 84
1, 73040, Note_on_c, 0, 72, 75
1, 73080, Note_on_c, 0, 60, 0
1, 73080, Note_on_c, 0, 48, 0
1, 73120, Note_on_c, 0, 72, 0
1, 73120, Note_on_c, 0, 84, 75
1, 73200, Note_on_c, 0, 84, 0
1, 73200, Note_on_c, 0, 47, 69
1, 73200, Note_on_c, 0, 59, 82
1, 73280, Note_on_c, 0, 71, 74
1, 73320, Note_on_c, 0, 59, 0
1, 73320, Note_on_c, 0, 47, 0
1, 73360, Note_on_c, 0, 71, 0
1, 73360, Note_on_c, 0, 83, 74
1, 73420, Tempo, 553914
1, 73440, Note_on_c, 0, 83, 0
1, 73440, Note_on_c, 0, 48, 68
1, 73440, Note_on_c, 0, 60, 80
1, 73480, Tempo, 556535
1, 73520, Note_on_c, 0, 72, 73
1, 73540, Tempo, 559128
1, 73560, Note_on_c, 0, 60, 0
1, 73560, Note_on_c, 0, 48, 0
1, 73600, Tempo, 561798
1, 73600, Note_on_c, 0, 72, 0
1, 73600, Note_on_c, 0, 84, 73
1, 73660, Tempo, 564387
1, 73680, Note_on_c, 0, 84, 0
1, 73680, Note_on_c, 0, 45, 67
1, 73680, Note_on_c, 0, 57, 79
1, 73720, Tempo, 567161
1, 73760, Note_on_c, 0, 69, 72
1, 73780, Tempo, 569855
1, 73800, Note_on_c, 0, 57, 0
1, 73800, Note_on_c, 0, 45, 0
1, 73840, Tempo, 572574
1, 73840, Note_on_c, 0, 69, 0
1, 73840, Note_on_c, 0, 81, 73
1, 73900, Tempo, 575319
1, 73920, Note_on_c, 0, 81, 0
1, 73920, Note_on_c, 0, 76, 82
1, 73920, Note_on_c, 0, 40, 70
1, 73920, Note_on_c, 0, 52, 82
1, 73970, Control_c, 0, 64, 127
1, 74000, Note_on_c, 0, 76, 0
1, 74000, Note_on_c, 0, 64, 78
1, 74080, Note_on_c, 0, 64, 0
1, 74080, Note_on_c, 0, 76, 78
1, 74160, Note_on_c, 0, 76, 0
1, 74160, Note_on_c, 0, 64, 78
1, 74240, Note_on_c, 0, 64, 0
1, 74240, Note_on_c, 0, 76, 78
1, 74320, Note_on_c, 0, 76, 0
1, 74320, Note_on_c, 0, 64, 78
1, 74400, Tempo, 561798
1, 74400, Note_on_c, 0, 64, 0
1, 74400, Note_on_c, 0, 52, 0
1, 74400, Note_on_c, 0, 40, 0
1, 74400, Note_on_c, 0, 81, 80
1, 74400, Note_on_c, 0, 41, 56
1, 74400, Note_on_c, 0, 45, 67
1, 74400, Note_on_c, 0, 53, 79
1, 74404, Control_c, 0, 64, 0
1, 74480, Note_on_c, 0, 81, 0
1, 74480, Note_on_c, 0, 69, 75
1, 74481, Control_c, 0, 64, 127
1, 74520, Note_on_c, 0, 41, 0
1, 74520, Note_on_c, 0, 53, 0
1, 74520, Note_on_c, 0, 45, 0
1, 74560, Note_on_c, 0, 69, 0
1, 74560, Note_on_c, 0, 81, 75
1, 74640, Note_on_c, 0, 81, 0
1, 74640, Note_on_c, 0, 69, 75
1, 74640, Note_on_c, 0, 41, 53
1, 74640, Note_on_c, 0, 45, 63
1, 74640, Note_on_c, 0, 53, 75
1, 74720, Note_on_c, 0, 69, 0
1, 74720, Note_on_c, 0, 81, 75
1, 74760, Note_on_c, 0, 41, 0
1, 74760, Note_on_c, 0, 53, 0
1, 74760, Note_on_c, 0, 45, 0
1, 74800, Note_on_c, 0, 81, 0
1, 74800, Note_on_c, 0, 69, 75
1, 74880, Note_on_c, 0, 69, 0
1, 74880, Note_on_c, 0, 81, 82
1, 74880, Note_on_c, 0, 40, 56
1, 74880, Note_on_c, 0, 45, 67
1, 74880, Note_on_c, 0, 52, 79
1, 74894, Control_c, 0, 64, 0
1, 74933, Control_c, 0, 64, 127
1, 74960, Note_on_c, 0, 81, 0
1, 74960, Note_on_c, 0, 69, 75
1, 75000, Note_on_c, 0, 40, 0
1, 75000, Note_on_c, 0, 52, 0
1, 75000, Note_on_c, 0, 45, 0
1, 75040, Note_on_c, 0, 69, 0
1, 75040, Note_on_c, 0, 81, 75
1, 75120, Note_on_c, 0, 81, 0
1, 75120, Note_on_c, 0, 69, 75
1, 75120, Note_on_c, 0, 40, 56
1, 75120, Note_on_c, 0, 45, 67
1, 75120, Note_on_c, 0, 52, 79
1, 75200, Note_on_c, 0, 69, 0
1, 75200, Note_on_c, 0, 81, 75
1, 75240, Note_on_c, 0, 40, 0
1, 75240, Note_on_c, 0, 52, 0
1, 75240, Note_on_c, 0, 45, 0
1, 75280, Note_on_c, 0, 81, 0
1, 75280, Note_on_c, 0, 69, 75
1, 75360, Tempo, 572574
1, 75360, Note_on_c, 0, 69, 0
1, 75360, Note_on_c, 0, 81, 82
1, 75360, Note_on_c, 0, 38, 56
1, 75360, Note_on_c, 0, 45, 66
1, 75360, Note_on_c, 0, 50, 78
1, 75385, Control_c, 0, 64, 0
1, 75427, Control_c, 0, 64, 127
1, 75440, Note_on_c, 0, 81, 0
1, 75440, Note_on_c, 0, 69, 75
1, 75480, Note_on_c, 0, 38, 0
1, 75480, Note_on_c, 0, 50, 0
1, 75480, Note_on_c, 0, 45, 0
1, 75520, Note_on_c, 0, 69, 0
1, 75520, Note_on_c, 0, 81, 75
1, 75600, Note_on_c, 0, 81, 0
1, 75600, Note_on_c, 0, 69, 75
1, 75600, Note_on_c, 0, 38, 56
1, 75600, Note_on_c, 0, 45, 66
1, 75600, Note_on_c, 0, 50, 78
1, 75680, Note_on_c, 0, 69, 0
1, 75680, Note_on_c, 0, 81, 75
1, 75720, Note_on_c, 0, 38, 0
1, 75720, Note_on_c, 0, 50, 0
1, 75720, Note_on_c, 0, 45, 0
1, 75760, Note_on_c, 0, 81, 0
1, 75760, Note_on_c, 0, 69, 75
1, 75840, Note_on_c, 0, 69, 0
1, 75840, Note_on_c, 0, 81, 81
1, 75840, Note_on_c, 0, 36, 56
1, 75840, Note_on_c, 0, 45, 66
1, 75840, Note_on_c, 0, 48, 78
1, 75844, Control_c, 0, 64, 0
1, 75883, Control_c, 0, 64, 127
1, 75920, Note_on_c, 0, 81, 0
1, 75920, Note_on_c, 0, 69, 75
1, 75960, Note_on_c, 0, 36, 0
1, 75960, Note_on_c, 0, 48, 0
1, 75960, Note_on_c, 0, 45, 0
1, 76000, Note_on_c, 0, 69, 0
1, 76000, Note_on_c, 0, 81, 75
1, 76080, Note_on_c, 0, 81, 0
1, 76080, Note_on_c, 0, 69, 75
1, 76080, Note_on_c, 0, 36, 56
1, 76080, Note_on_c, 0, 45, 67
1, 76080, Note_on_c, 0, 48, 79
1, 76160, Tempo, 636875
1, 76160, Note_on_c, 0, 69, 0
1, 76160, Note_on_c, 0, 81, 75
1, 76200, Note_on_c, 0, 36, 0
1, 76200, Note_on_c, 0, 48, 0
1, 76200, Note_on_c, 0, 45, 0
1, 76240, Note_on_c, 0, 81, 0
1, 76240, Note_on_c, 0, 69, 75
1, 76320, Tempo, 572574
1, 76320, Note_on_c, 0, 69, 0
1, 76320, Note_on_c, 0, 77, 81
1, 76320, Note_on_c, 0, 38, 53
1, 76320, Note_on_c, 0, 45, 63
1, 76320, Note_on_c, 0, 50, 75
1, 76336, Control_c, 0, 64, 0
1, 76400, Note_on_c, 0, 77, 0
1, 76400, Note_on_c, 0, 79, 77
1, 76440, Note_on_c, 0, 38, 0
1, 76440, Note_on_c, 0, 50, 0
1, 76440, Note_on_c, 0, 45, 0
1, 76480, Note_on_c, 0, 79, 0
1, 76480, Note_on_c, 0, 81, 77
1, 76560, Note_on_c, 0, 81, 0
1, 76560, Note_on_c, 0, 77, 79
1, 76560, Note_on_c, 0, 38, 52
1, 76560, Note_on_c, 0, 45, 62
1, 76560, Note_on_c, 0, 50, 74
1, 76640, Note_on_c, 0, 77, 0
1, 76640, Note_on_c, 0, 76, 75
1, 76680, Note_on_c, 0, 38, 0
1, 76680, Note_on_c, 0, 50, 0
1, 76680, Note_on_c, 0, 45, 0
1, 76720, Note_on_c, 0, 76, 0
1, 76720, Note_on_c, 0, 74, 75
1, 76800, Note_on_c, 0, 74, 0
1, 76800, Note_on_c, 0, 72, 80
1, 76800, Note_on_c, 0, 40, 56
1, 76800, Note_on_c, 0, 45, 67
1, 76800, Note_on_c, 0, 52, 79
1, 76820, Tempo, 564387
1, 76880, Note_on_c, 0, 72, 0
1, 76880, Note_on_c, 0, 74, 74
1, 76920, Note_on_c, 0, 40, 0
1, 76920, Note_on_c, 0, 52, 0
1, 76920, Note_on_c, 0, 45, 0
1, 76960, Note_on_c, 0, 74, 0
1, 76960, Note_on_c, 0, 76, 74
1, 77040, Note_on_c, 0, 76, 0
1, 77040, Note_on_c, 0, 72, 78
1, 77040, Note_on_c, 0, 40, 64
1, 77040, Note_on_c, 0, 52, 77
1, 77120, Note_on_c, 0, 72, 0
1, 77120, Note_on_c, 0, 71, 71
1, 77160, Note_on_c, 0, 52, 0
1, 77160, Note_on_c, 0, 40, 0
1, 77200, Note_on_c, 0, 71, 0
1, 77200, Note_on_c, 0, 69, 71
1, 77280, Tempo, 575319
1, 77280, Note_on_c, 0, 69, 0
1, 77280, Note_on_c, 0, 71, 81
1, 77280, Note_on_c, 0, 40, 62
1, 77280, Note_on_c, 0, 52, 74
1, 77360, Note_on_c, 0, 71, 0
1, 77360, Note_on_c, 0, 72, 73
1, 77400, Note_on_c, 0, 52, 0
1, 77400, Note_on_c, 0, 40, 0
1, 77440, Note_on_c, 0, 72, 0
1, 77440, Note_on_c, 0, 74, 73
1, 77520, Note_on_c, 0, 74, 0
1, 77520, Note_on_c, 0, 71, 79
1, 77520, Note_on_c, 0, 40, 62
1, 77520, Note_on_c, 0, 52, 74
1, 77600, Tempo, 626894
1, 77600, Note_on_c, 0, 71, 0
1, 77600, Note_on_c, 0, 69, 75
1, 77640, Note_on_c, 0, 52, 0
1, 77640, Note_on_c, 0, 40, 0
1, 77680, Note_on_c, 0, 69, 0
1, 77680, Note_on_c, 0, 68, 75
1, 77760, Tempo, 595474
1, 77760, Note_on_c, 0, 68, 0
1, 77760, Note_on_c, 0, 69, 79
1, 77760, Note_on_c, 0, 36, 80
1, 77792, Control_c, 0, 64, 127
1, 77840, Note_on_c, 0, 69, 0
1, 77840, Note_on_c, 0, 57, 75
1, 77880, Note_on_c, 0, 36, 0
1, 77880, Note_on_c, 0, 45, 66
1, 77920, Note_on_c, 0, 57, 0
1, 77920, Note_on_c, 0, 69, 75
1, 78000, Note_on_c, 0, 69, 0
1, 78000, Note_on_c, 0, 45, 0
1, 78000, Note_on_c, 0, 57, 75
1, 78000, Note_on_c, 0, 44, 66
1, 78080, Note_on_c, 0, 57, 0
1, 78080, Note_on_c, 0, 69, 75
1, 78120, Note_on_c, 0, 44, 0
1, 78120, Note_on_c, 0, 45, 66
1, 78160, Note_on_c, 0, 69, 0
1, 78160, Note_on_c, 0, 57, 75
1, 78240, Tempo, 561798
1, 78240, Note_on_c, 0, 57, 0
1, 78240, Note_on_c, 0, 45, 0
1, 78240, Note_on_c, 0, 69, 80
1, 78240, Note_on_c, 0, 41, 84
1, 78240, Control_c, 0, 64, 0
1, 78297, Control_c, 0, 64, 127
1, 78320, Note_on_c, 0, 69, 0
1, 78320, Note_on_c, 0, 57, 75
1, 78360, Note_on_c, 0, 41, 0
1, 78360, Note_on_c, 0, 45, 64
1, 78400, Note_on_c, 0, 57, 0
1, 78400, Note_on_c, 0, 69, 75
1, 78480, Note_on_c, 0, 69, 0
1, 78480, Note_on_c, 0, 45, 0
1, 78480, Note_on_c, 0, 57, 75
1, 78480, Note_on_c, 0, 44, 64
1, 78560, Note_on_c, 0, 57, 0
1, 78560, Note_on_c, 0, 69, 75
1, 78600, Note_on_c, 0, 44, 0
1, 78600, Note_on_c, 0, 45, 64
1, 78640, Note_on_c, 0, 69, 0
1, 78640, Note_on_c, 0, 57, 75
1, 78720, Note_on_c, 0, 57, 0
1, 78720, Note_on_c, 0, 45, 0
1, 78720, Note_on_c, 0, 69, 82
1, 78720, Note_on_c, 0, 40, 84
1, 78756, Control_c, 0, 64, 0
1, 78800, Note_on_c, 0, 69, 0
1, 78800, Note_on_c, 0, 57, 75
1, 78801, Control_c, 0, 64, 127
1, 78840, Note_on_c, 0, 40, 0
1, 78840, Note_on_c, 0, 45, 67
1, 78880, Note_on_c, 0, 57, 0
1, 78880, Note_on_c, 0, 69, 75
1, 78960, Note_on_c, 0, 69, 0
1, 78960, Note_on_c, 0, 45, 0
1, 78960, Note_on_c, 0, 57, 75
1, 78960, Note_on_c, 0, 44, 67
1, 79040, Note_on_c, 0, 57, 0
1, 79040, Note_on_c, 0, 69, 75
1, 79080, Note_on_c, 0, 44, 0
1, 79080, Note_on_c, 0, 45, 67
1, 79120, Note_on_c, 0, 69, 0
1, 79120, Note_on_c, 0, 57, 75
1, 79200, Tempo, 572574
1, 79200, Note_on_c, 0, 57, 0
1, 79200, Note_on_c, 0, 45, 0
1, 79200, Note_on_c, 0, 69, 82
1, 79200, Note_on_c, 0, 38, 82
1, 79208, Control_c, 0, 64, 0
1, 79250, Control_c, 0, 64, 127
1, 79280, Note_on_c, 0, 69, 0
1, 79280, Note_on_c, 0, 57, 75
1, 79320, Note_on_c, 0, 38, 0
1, 79320, Note_on_c, 0, 45, 66
1, 79360, Note_on_c, 0, 57, 0
1, 79360, Note_on_c, 0, 69, 75
1, 79440, Note_on_c, 0, 69, 0
1, 79440, Note_on_c, 0, 45, 0
1, 79440, Note_on_c, 0, 57, 75
1, 79440, Note_on_c, 0, 44, 66
1, 79520, Note_on_c, 0, 57, 0
1, 79520, Note_on_c, 0, 69, 75
1, 79560, Note_on_c, 0, 44, 0
1, 79560, Note_on_c, 0, 45, 66
1, 79600, Note_on_c, 0, 69, 0
1, 79600, Note_on_c, 0, 57, 75
1, 79680, Note_on_c, 0, 57, 0
1, 79680, Note_on_c, 0, 45, 0
1, 79680, Note_on_c, 0, 69, 81
1, 79680, Note_on_c, 0, 36, 82
1, 79700, Control_c, 0, 64, 0
1, 79712, Control_c, 0, 64, 127
1, 79760, Note_on_c, 0, 69, 0
1, 79760, Note_on_c, 0, 57, 75
1, 79800, Note_on_c, 0, 36, 0
1, 79800, Note_on_c, 0, 45, 63
1, 79840, Note_on_c, 0, 57, 0
1, 79840, Note_on_c, 0, 69, 75
1, 79920, Note_on_c, 0, 69, 0
1, 79920, Note_on_c, 0, 45, 0
1, 79920, Note_on_c, 0, 57, 75
1, 79920, Note_on_c, 0, 44, 66
1, 80000, Tempo, 636875
1, 80000, Note_on_c, 0, 57, 0
1, 80000, Note_on_c, 0, 69, 75
1, 80040, Note_on_c, 0, 44, 0
1, 80040, Note_on_c, 0, 45, 67
1, 80080, Note_on_c, 0, 69, 0
1, 80080, Note_on_c, 0, 57, 75
1, 80160, Tempo, 572574
1, 80160, Note_on_c, 0, 57, 0
1, 80160, Note_on_c, 0, 45, 0
1, 80160, Note_on_c, 0, 65, 81
1, 80160, Note_on_c, 0, 38, 85
1, 80173, Control_c, 0, 64, 0
1, 80240, Note_on_c, 0, 65, 0
1, 80240, Note_on_c, 0, 67, 77
1, 80280, Note_on_c, 0, 38, 0
1, 80280, Note_on_c, 0, 45, 66
1, 80320, Note_on_c, 0, 67, 0
1, 80320, Note_on_c, 0, 69, 77
1, 80400, Note_on_c, 0, 69, 0
1, 80400, Note_on_c, 0, 45, 0
1, 80400, Note_on_c, 0, 65, 79
1, 80400, Note_on_c, 0, 38, 66
1, 80480, Note_on_c, 0, 65, 0
1, 80480, Note_on_c, 0, 64, 75
1, 80520, Note_on_c, 0, 38, 0
1, 80520, Note_on_c, 0, 45, 66
1, 80560, Note_on_c, 0, 64, 0
1, 80560, Note_on_c, 0, 62, 75
1, 80640, Note_on_c, 0, 62, 0
1, 80640, Note_on_c, 0, 45, 0
1, 80640, Note_on_c, 0, 60, 80
1, 80640, Note_on_c, 0, 40, 85
1, 80660, Tempo, 564387
1, 80720, Note_on_c, 0, 60, 0
1, 80720, Note_on_c, 0, 62, 74
1, 80760, Note_on_c, 0, 40, 0
1, 80760, Note_on_c, 0, 45, 67
1, 80800, Note_on_c, 0, 62, 0
1, 80800, Note_on_c, 0, 64, 74
1, 80880, Note_on_c, 0, 64, 0
1, 80880, Note_on_c, 0, 45, 0
1, 80880, Note_on_c, 0, 60, 78
1, 80880, Note_on_c, 0, 40, 74
1, 80960, Note_on_c, 0, 60, 0
1, 80960, Note_on_c, 0, 59, 71
1, 81000, Note_on_c, 0, 40, 0
1, 81000, Note_on_c, 0, 52, 67
1, 81040, Note_on_c, 0, 59, 0
1, 81040, Note_on_c, 0, 57, 71
1, 81120, Tempo, 575319
1, 81120, Note_on_c, 0, 57, 0
1, 81120, Note_on_c, 0, 52, 0
1, 81120, Note_on_c, 0, 59, 81
1, 81120, Note_on_c, 0, 40, 83
1, 81200, Note_on_c, 0, 59, 0
1, 81200, Note_on_c, 0, 60, 73
1, 81240, Note_on_c, 0, 40, 0
1, 81240, Note_on_c, 0, 52, 66
1, 81280, Note_on_c, 0, 60, 0
1, 81280, Note_on_c, 0, 62, 73
1, 81360, Note_on_c, 0, 62, 0
1, 81360, Note_on_c, 0, 52, 0
1, 81360, Note_on_c, 0, 59, 79
1, 81360, Note_on_c, 0, 40, 69
1, 81440, Tempo, 626894
1, 81440, Note_on_c, 0, 59, 0
1, 81440, Note_on_c, 0, 57, 75
1, 81480, Note_on_c, 0, 40, 0
1, 81480, Note_on_c, 0, 52, 63
1, 81520, Note_on_c, 0, 57, 0
1, 81520, Note_on_c, 0, 56, 75
1, 81600, Tempo, 582242
1, 81600, Note_on_c, 0, 56, 0
1, 81600, Note_on_c, 0, 52, 0
1, 81600, Note_on_c, 0, 57, 79
1, 81600, Note_on_c, 0, 45, 70
1, 81720, Note_on_c, 0, 45, 0
1, 81720, Note_on_c, 0, 52, 67
1, 81840, Note_on_c, 0, 52, 0
1, 81840, Note_on_c, 0, 57, 0
1, 81840, Note_on_c, 0, 48, 68
1, 81960, Note_on_c, 0, 48, 0
1, 81960, Note_on_c, 0, 52, 68
1, 82080, Tempo, 596659
1, 82080, Note_on_c, 0, 52, 0
1, 82080, Note_on_c, 0, 88, 95
1, 82080, Note_on_c, 0, 76, 80
1, 82080, Note_on_c, 0, 45, 59
1, 82080, Note_on_c, 0, 47, 70
1, 82200, Note_on_c, 0, 47, 0
1, 82200, Note_on_c, 0, 88, 0
1, 82200, Note_on_c, 0, 76, 0
1, 82200, Note_on_c, 0, 52, 66
1, 82320, Note_on_c, 0, 52, 0
1, 82320, Note_on_c, 0, 45, 0
1, 82320, Note_on_c, 0, 88, 95
1, 82320, Note_on_c, 0, 76, 80
1, 82320, Note_on_c, 0, 45, 55
1, 82320, Note_on_c, 0, 50, 66
1, 82440, Note_on_c, 0, 50, 0
1, 82440, Note_on_c, 0, 88, 0
1, 82440, Note_on_c, 0, 76, 0
1, 82440, Note_on_c, 0, 52, 66
1, 82560, Tempo, 582242
1, 82560, Note_on_c, 0, 52, 0
1, 82560, Note_on_c, 0, 45, 0
1, 82560, Note_on_c, 0, 76, 91
1, 82560, Note_on_c, 0, 64, 77
1, 82560, Note_on_c, 0, 45, 59
1, 82560, Note_on_c, 0, 48, 70
1, 82680, Note_on_c, 0, 48, 0
1, 82680, Note_on_c, 0, 76, 0
1, 82680, Note_on_c, 0, 64, 0
1, 82680, Note_on_c, 0, 52, 63
1, 82800, Note_on_c, 0, 52, 0
1, 82800, Note_on_c, 0, 45, 0
1, 82800, Note_on_c, 0, 76, 91
1, 82800, Note_on_c, 0, 64, 77
1, 82800, Note_on_c, 0, 45, 53
1, 82800, Note_on_c, 0, 48, 63
1, 82920, Note_on_c, 0, 48, 0
1, 82920, Note_on_c, 0, 76, 0
1, 82920, Note_on_c, 0, 64, 0
1, 82920, Note_on_c, 0, 52, 63
1, 83040, Tempo, 573833
1, 83040, Note_on_c, 0, 52, 0
1, 83040, Note_on_c, 0, 45, 0
1, 83040, Note_on_c, 0, 64, 79
1, 83040, Note_on_c, 0, 76, 93
1, 83040, Note_on_c, 0, 45, 59
1, 83040, Note_on_c, 0, 47, 70
1, 83160, Note_on_c, 0, 47, 0
1, 83160, Note_on_c, 0, 64, 0
1, 83160, Note_on_c, 0, 76, 0
1, 83160, Note_on_c, 0, 52, 66
1, 83280, Note_on_c, 0, 52, 0
1, 83280, Note_on_c, 0, 45, 0
1, 83280, Note_on_c, 0, 68, 82
1, 83280, Note_on_c, 0, 80, 97
1, 83280, Note_on_c, 0, 45, 55
1, 83280, Note_on_c, 0, 50, 66
1, 83400, Note_on_c, 0, 50, 0
1, 83400, Note_on_c, 0, 68, 0
1, 83400, Note_on_c, 0, 80, 0
1, 83400, Note_on_c, 0, 52, 66
1, 83520, Tempo, 596659
1, 83520, Note_on_c, 0, 52, 0
1, 83520, Note_on_c, 0, 45, 0
1, 83520, Note_on_c, 0, 69, 85
1, 83520, Note_on_c, 0, 81, 100
1, 83520, Note_on_c, 0, 45, 59
1, 83520, Note_on_c, 0, 48, 70
1, 83566, Control_c, 0, 64, 127
1, 83640, Note_on_c, 0, 48, 0
1, 83640, Note_on_c, 0, 57, 63
1, 83760, Note_on_c, 0, 57, 0
1, 83760, Note_on_c, 0, 45, 0
1, 83760, Note_on_c, 0, 52, 63
1, 83880, Note_on_c, 0, 52, 0
1, 83880, Note_on_c, 0, 57, 63
1, 84000, Tempo, 571102
1, 84000, Note_on_c, 0, 57, 0
1, 84000, Note_on_c, 0, 81, 0
1, 84000, Note_on_c, 0, 69, 0
1, 84000, Note_on_c, 0, 83, 58
1, 84000, Note_on_c, 0, 45, 36
1, 84000, Note_on_c, 0, 50, 43
1, 84006, Control_c, 0, 64, 0
1, 84120, Note_on_c, 0, 50, 0
1, 84120, Note_on_c, 0, 83, 0
1, 84120, Note_on_c, 0, 86, 53
1, 84120, Note_on_c, 0, 56, 37
1, 84240, Note_on_c, 0, 56, 0
1, 84240, Note_on_c, 0, 86, 0
1, 84240, Note_on_c, 0, 45, 0
1, 84240, Note_on_c, 0, 84, 53
1, 84240, Note_on_c, 0, 52, 37
1, 84360, Note_on_c, 0, 52, 0
1, 84360, Note_on_c, 0, 84, 0
1, 84360, Note_on_c, 0, 83, 53
1, 84360, Note_on_c, 0, 56, 37
1, 84480, Note_on_c, 0, 56, 0
1, 84480, Note_on_c, 0, 83, 0
1, 84480, Note_on_c, 0, 84, 56
1, 84480, Note_on_c, 0, 45, 36
1, 84480, Note_on_c, 0, 48, 44
1, 84600, Note_on_c, 0, 48, 0
1, 84600, Note_on_c, 0, 84, 0
1, 84600, Note_on_c, 0, 88, 53
1, 84600, Note_on_c, 0, 57, 38
1, 84720, Note_on_c, 0, 57, 0
1, 84720, Note_on_c, 0, 88, 0
1, 84720, Note_on_c, 0, 45, 0
1, 84720, Note_on_c, 0, 86, 53
1, 84720, Note_on_c, 0, 52, 38
1, 84840, Note_on_c, 0, 52, 0
1, 84840, Note_on_c, 0, 86, 0
1, 84840, Note_on_c, 0, 84, 53
1, 84840, Note_on_c, 0, 57, 38
1, 84960, Tempo, 576590
1, 84960, Note_on_c, 0, 57, 0
1, 84960, Note_on_c, 0, 84, 0
1, 84960, Note_on_c, 0, 83, 58
1, 84960, Note_on_c, 0, 45, 36
1, 84960, Note_on_c, 0, 50, 44
1, 85080, Tempo, 579374
1, 85080, Note_on_c, 0, 50, 0
1, 85080, Note_on_c, 0, 83, 0
1, 85080, Note_on_c, 0, 86, 53
1, 85080, Note_on_c, 0, 56, 38
1, 85160, Tempo, 582242
1, 85200, Note_on_c, 0, 56, 0
1, 85200, Note_on_c, 0, 86, 0
1, 85200, Note_on_c, 0, 45, 0
1, 85200, Note_on_c, 0, 84, 53
1, 85200, Note_on_c, 0, 52, 38
1, 85240, Tempo, 584966
1, 85320, Tempo, 587947
1, 85320, Note_on_c, 0, 52, 0
1, 85320, Note_on_c, 0, 84, 0
1, 85320, Note_on_c, 0, 83, 53
1, 85320, Note_on_c, 0, 56, 38
1, 85440, Tempo, 579374
1, 85440, Note_on_c, 0, 56, 0
1, 85440, Note_on_c, 0, 83, 0
1, 85440, Note_on_c, 0, 81, 52
1, 85440, Note_on_c, 0, 45, 36
1, 85440, Note_on_c, 0, 48, 44
1, 85497, Control_c, 0, 64, 127
1, 85560, Note_on_c, 0, 48, 0
1, 85560, Note_on_c, 0, 57, 37
1, 85680, Note_on_c, 0, 57, 0
1, 85680, Note_on_c, 0, 45, 0
1, 85680, Note_on_c, 0, 52, 37
1, 85800, Note_on_c, 0, 52, 0
1, 85800, Note_on_c, 0, 57, 37
1, 85920, Note_on_c, 0, 57, 0
1, 85920, Note_on_c, 0, 81, 0
1, 85920, Note_on_c, 0, 88, 95
1, 85920, Note_on_c, 0, 76, 80
1, 85920, Note_on_c, 0, 45, 59
1, 85920, Note_on_c, 0, 47, 70
1, 85927, Tempo, 599640
1, 85934, Tempo, 596659
1, 85941, Control_c, 0, 64, 0
1, 86040, Note_on_c, 0, 47, 0
1, 86040, Note_on_c, 0, 88, 0
1, 86040, Note_on_c, 0, 76, 0
1, 86040, Note_on_c, 0, 52, 66
1, 86160, Note_on_c, 0, 52, 0
1, 86160, Note_on_c, 0, 45, 0
1, 86160, Note_on_c, 0, 88, 95
1, 86160, Note_on_c, 0, 76, 80
1, 86160, Note_on_c, 0, 45, 55
1, 86160, Note_on_c, 0, 50, 66
1, 86280, Note_on_c, 0, 50, 0
1, 86280, Note_on_c, 0, 88, 0
1, 86280, Note_on_c, 0, 76, 0
1, 86280, Note_on_c, 0, 52, 66
1, 86400, Note_on_c, 0, 52, 0
1, 86400, Note_on_c, 0, 45, 0
1, 86400, Note_on_c, 0, 76, 91
1, 86400, Note_on_c, 0, 64, 77
1, 86400, Note_on_c, 0, 45, 59
1, 86400, Note_on_c, 0, 48, 70
1, 86414, Tempo, 582242
1, 86520, Note_on_c, 0, 48, 0
1, 86520, Note_on_c, 0, 76, 0
1, 86520, Note_on_c, 0, 64, 0
1, 86520, Note_on_c, 0, 52, 63
1, 86640, Note_on_c, 0, 52, 0
1, 86640, Note_on_c, 0, 45, 0
1, 86640, Note_on_c, 0, 76, 91
1, 86640, Note_on_c, 0, 64, 77
1, 86640, Note_on_c, 0, 45, 53
1, 86640, Note_on_c, 0, 48, 63
1, 86760, Note_on_c, 0, 48, 0
1, 86760, Note_on_c, 0, 76, 0
1, 86760, Note_on_c, 0, 64, 0
1, 86760, Note_on_c, 0, 52, 63
1, 86880, Note_on_c, 0, 52, 0
1, 86880, Note_on_c, 0, 45, 0
1, 86880, Note_on_c, 0, 64, 79
1, 86880, Note_on_c, 0, 76, 93
1, 86880, Note_on_c, 0, 45, 59
1, 86880, Note_on_c, 0, 47, 70
1, 86894, Tempo, 573833
1, 87000, Note_on_c, 0, 47, 0
1, 87000, Note_on_c, 0, 64, 0
1, 87000, Note_on_c, 0, 76, 0
1, 87000, Note_on_c, 0, 52, 66
1, 87120, Note_on_c, 0, 52, 0
1, 87120, Note_on_c, 0, 45, 0
1, 87120, Note_on_c, 0, 68, 82
1, 87120, Note_on_c, 0, 80, 97
1, 87120, Note_on_c, 0, 45, 55
1, 87120, Note_on_c, 0, 50, 66
1, 87240, Note_on_c, 0, 50, 0
1, 87240, Note_on_c, 0, 68, 0
1, 87240, Note_on_c, 0, 80, 0
1, 87240, Note_on_c, 0, 52, 66
1, 87360, Note_on_c, 0, 52, 0
1, 87360, Note_on_c, 0, 45, 0
1, 87360, Note_on_c, 0, 69, 85
1, 87360, Note_on_c, 0, 81, 100
1, 87360, Note_on_c, 0, 45, 59
1, 87360, Note_on_c, 0, 48, 70
1, 87374, Tempo, 596659
1, 87406, Control_c, 0, 64, 127
1, 87480, Note_on_c, 0, 48, 0
1, 87480, Note_on_c, 0, 57, 63
1, 87600, Note_on_c, 0, 57, 0
1, 87600, Note_on_c, 0, 45, 0
1, 87600, Note_on_c, 0, 52, 63
1, 87720, Note_on_c, 0, 52, 0
1, 87720, Note_on_c, 0, 57, 63
1, 87840, Tempo, 599640
1, 87840, Note_on_c, 0, 57, 0
1, 87840, Note_on_c, 0, 81, 0
1, 87840, Note_on_c, 0, 69, 0
1, 87840, Note_on_c, 0, 83, 58
1, 87840, Note_on_c, 0, 50, 43
1, 87840, Note_on_c, 0, 45, 36
1, 87854, Tempo, 571102
1, 87863, Control_c, 0, 64, 0
1, 87960, Note_on_c, 0, 50, 0
1, 87960, Note_on_c, 0, 83, 0
1, 87960, Note_on_c, 0, 86, 53
1, 87960, Note_on_c, 0, 56, 37
1, 88080, Note_on_c, 0, 56, 0
1, 88080, Note_on_c, 0, 86, 0
1, 88080, Note_on_c, 0, 45, 0
1, 88080, Note_on_c, 0, 84, 53
1, 88080, Note_on_c, 0, 52, 37
1, 88200, Note_on_c, 0, 52, 0
1, 88200, Note_on_c, 0, 84, 0
1, 88200, Note_on_c, 0, 83, 52
1, 88200, Note_on_c, 0, 56, 37
1, 88320, Note_on_c, 0, 56, 0
1, 88320, Note_on_c, 0, 83, 0
1, 88320, Note_on_c, 0, 84, 55
1, 88320, Note_on_c, 0, 48, 43
1, 88320, Note_on_c, 0, 45, 35
1, 88440, Note_on_c, 0, 48, 0
1, 88440, Note_on_c, 0, 84, 0
1, 88440, Note_on_c, 0, 88, 52
1, 88440, Note_on_c, 0, 57, 37
1, 88560, Note_on_c, 0, 57, 0
1, 88560, Note_on_c, 0, 88, 0
1, 88560, Note_on_c, 0, 45, 0
1, 88560, Note_on_c, 0, 86, 51
1, 88560, Note_on_c, 0, 52, 37
1, 88680, Note_on_c, 0, 52, 0
1, 88680, Note_on_c, 0, 86, 0
1, 88680, Note_on_c, 0, 84, 51
1, 88680, Note_on_c, 0, 57, 37
1, 88760, Tempo, 571102
1, 88800, Note_on_c, 0, 57, 0
1, 88800, Note_on_c, 0, 84, 0
1, 88800, Note_on_c, 0, 83, 56
1, 88800, Note_on_c, 0, 50, 43
1, 88800, Note_on_c, 0, 45, 35
1, 88920, Tempo, 573833
1, 88920, Note_on_c, 0, 50, 0
1, 88920, Note_on_c, 0, 83, 0
1, 88920, Note_on_c, 0, 86, 51
1, 88920, Note_on_c, 0, 56, 37
1, 89040, Note_on_c, 0, 56, 0
1, 89040, Note_on_c, 0, 86, 0
1, 89040, Note_on_c, 0, 45, 0
1, 89040, Note_on_c, 0, 84, 51
1, 89040, Note_on_c, 0, 52, 37
1, 89080, Tempo, 576590
1, 89160, Note_on_c, 0, 52, 0
1, 89160, Note_on_c, 0, 84, 0
1, 89160, Note_on_c, 0, 83, 51
1, 89160, Note_on_c, 0, 56, 37
1, 89200, Tempo, 579374
1, 89280, Tempo, 571102
1, 89280, Note_on_c, 0, 56, 0
1, 89280, Note_on_c, 0, 83, 0
1, 89280, Note_on_c, 0, 81, 53
1, 89280, Note_on_c, 0, 45, 34
1, 89280, Note_on_c, 0, 48, 42
1, 89400, Note_on_c, 0, 48, 0
1, 89400, Note_on_c, 0, 81, 0
1, 89400, Note_on_c, 0, 84, 49
1, 89400, Note_on_c, 0, 57, 36
1, 89520, Note_on_c, 0, 57, 0
1, 89520, Note_on_c, 0, 84, 0
1, 89520, Note_on_c, 0, 45, 0
1, 89520, Note_on_c, 0, 83, 48
1, 89520, Note_on_c, 0, 52, 35
1, 89640, Note_on_c, 0, 52, 0
1, 89640, Note_on_c, 0, 83, 0
1, 89640, Note_on_c, 0, 81, 48
1, 89640, Note_on_c, 0, 57, 35
1, 89760, Note_on_c, 0, 57, 0
1, 89760, Note_on_c, 0, 81, 0
1, 89760, Note_on_c, 0, 83, 52
1, 89760, Note_on_c, 0, 50, 37
1, 89760, Note_on_c, 0, 45, 32
1, 89880, Note_on_c, 0, 50, 0
1, 89880, Note_on_c, 0, 83, 0
1, 89880, Note_on_c, 0, 86, 46
1, 89880, Note_on_c, 0, 56, 33
1, 90000, Note_on_c, 0, 56, 0
1, 90000, Note_on_c, 0, 86, 0
1, 90000, Note_on_c, 0, 45, 0
1, 90000, Note_on_c, 0, 84, 46
1, 90000, Note_on_c, 0, 52, 33
1, 90120, Note_on_c, 0, 52, 0
1, 90120, Note_on_c, 0, 84, 0
1, 90120, Note_on_c, 0, 83, 45
1, 90120, Note_on_c, 0, 56, 32
1, 90240, Note_on_c, 0, 56, 0
1, 90240, Note_on_c, 0, 83, 0
1, 90240, Note_on_c, 0, 84, 46
1, 90240, Note_on_c, 0, 48, 38
1, 90240, Note_on_c, 0, 45, 31
1, 90360, Note_on_c, 0, 48, 0
1, 90360, Note_on_c, 0, 84, 0
1, 90360, Note_on_c, 0, 88, 43
1, 90360, Note_on_c, 0, 57, 33
1, 90480, Note_on_c, 0, 57, 0
1, 90480, Note_on_c, 0, 88, 0
1, 90480, Note_on_c, 0, 45, 0
1, 90480, Note_on_c, 0, 86, 42
1, 90480, Note_on_c, 0, 52, 32
1, 90600, Note_on_c, 0, 52, 0
1, 90600, Note_on_c, 0, 86, 0
1, 90600, Note_on_c, 0, 84, 42
1, 90600, Note_on_c, 0, 57, 32
1, 90720, Tempo, 571102
1, 90720, Note_on_c, 0, 57, 0
1, 90720, Note_on_c, 0, 84, 0
1, 90720, Note_on_c, 0, 83, 45
1, 90720, Note_on_c, 0, 50, 34
1, 90720, Note_on_c, 0, 45, 29
1, 90840, Note_on_c, 0, 50, 0
1, 90840, Note_on_c, 0, 83, 0
1, 90840, Note_on_c, 0, 86, 40
1, 90840, Note_on_c, 0, 56, 31
1, 90960, Note_on_c, 0, 56, 0
1, 90960, Note_on_c, 0, 86, 0
1, 90960, Note_on_c, 0, 45, 0
1, 90960, Note_on_c, 0, 84, 39
1, 90960, Note_on_c, 0, 52, 29
1, 91080, Note_on_c, 0, 52, 0
1, 91080, Note_on_c, 0, 84, 0
1, 91080, Note_on_c, 0, 83, 39
1, 91080, Note_on_c, 0, 56, 29
1, 91200, Tempo, 568397
1, 91200, Note_on_c, 0, 56, 0
1, 91200, Note_on_c, 0, 83, 0
1, 91200, Note_on_c, 0, 81, 39
1, 91200, Note_on_c, 0, 45, 26
1, 91200, Note_on_c, 0, 48, 32
1, 91320, Note_on_c, 0, 48, 0
1, 91320, Note_on_c, 0, 81, 0
1, 91320, Note_on_c, 0, 84, 37
1, 91320, Note_on_c, 0, 57, 28
1, 91440, Note_on_c, 0, 57, 0
1, 91440, Note_on_c, 0, 84, 0
1, 91440, Note_on_c, 0, 45, 0
1, 91440, Note_on_c, 0, 83, 37
1, 91440, Note_on_c, 0, 52, 28
1, 91520, Tempo, 571102
1, 91560, Note_on_c, 0, 52, 0
1, 91560, Note_on_c, 0, 83, 0
1, 91560, Note_on_c, 0, 81, 37
1, 91560, Note_on_c, 0, 57, 28
1, 91680, Note_on_c, 0, 57, 0
1, 91680, Note_on_c, 0, 81, 0
1, 91680, Note_on_c, 0, 83, 41
1, 91680, Note_on_c, 0, 50, 32
1, 91680, Note_on_c, 0, 45, 26
1, 91800, Note_on_c, 0, 50, 0
1, 91800, Note_on_c, 0, 83, 0
1, 91800, Note_on_c, 0, 86, 37
1, 91800, Note_on_c, 0, 56, 28
1, 91840, Tempo, 573833
1, 91920, Note_on_c, 0, 56, 0
1, 91920, Note_on_c, 0, 86, 0
1, 91920, Note_on_c, 0, 45, 0
1, 91920, Note_on_c, 0, 84, 37
1, 91920, Note_on_c, 0, 52, 28
1, 92040, Note_on_c, 0, 52, 0
1, 92040, Note_on_c, 0, 84, 0
1, 92040, Note_on_c, 0, 83, 37
1, 92040, Note_on_c, 0, 56, 28
1, 92160, Tempo, 576590
1, 92160, Note_on_c, 0, 56, 0
1, 92160, Note_on_c, 0, 83, 0
1, 92160, Note_on_c, 0, 81, 39
1, 92160, Note_on_c, 0, 45, 26
1, 92160, Note_on_c, 0, 48, 32
1, 92280, Note_on_c, 0, 48, 0
1, 92280, Note_on_c, 0, 81, 0
1, 92280, Note_on_c, 0, 84, 37
1, 92280, Note_on_c, 0, 57, 28
1, 92400, Note_on_c, 0, 57, 0
1, 92400, Note_on_c, 0, 84, 0
1, 92400, Note_on_c, 0, 45, 0
1, 92400, Note_on_c, 0, 83, 37
1, 92400, Note_on_c, 0, 52, 28
1, 92480, Tempo, 579374
1, 92520, Note_on_c, 0, 52, 0
1, 92520, Note_on_c, 0, 83, 0
1, 92520, Note_on_c, 0, 81, 37
1, 92520, Note_on_c, 0, 57, 28
1, 92640, Note_on_c, 0, 57, 0
1, 92640, Note_on_c, 0, 81, 0
1, 92640, Note_on_c, 0, 83, 41
1, 92640, Note_on_c, 0, 50, 32
1, 92640, Note_on_c, 0, 45, 26
1, 92760, Note_on_c, 0, 50, 0
1, 92760, Note_on_c, 0, 83, 0
1, 92760, Note_on_c, 0, 86, 37
1, 92760, Note_on_c, 0, 56, 28
1, 92800, Tempo, 582242
1, 92880, Note_on_c, 0, 56, 0
1, 92880, Note_on_c, 0, 86, 0
1, 92880, Note_on_c, 0, 45, 0
1, 92880, Note_on_c, 0, 84, 37
1, 92880, Note_on_c, 0, 52, 28
1, 93000, Note_on_c, 0, 52, 0
1, 93000, Note_on_c, 0, 84, 0
1, 93000, Note_on_c, 0, 83, 37
1, 93000, Note_on_c, 0, 56, 28
1, 93080, Tempo, 584966
1, 93120, Tempo, 614565
1, 93120, Note_on_c, 0, 56, 0
1, 93120, Note_on_c, 0, 83, 0
1, 93120, Note_on_c, 0, 81, 92
1, 93120, Note_on_c, 0, 45, 62
1, 93120, Note_on_c, 0, 57, 62
1, 93304, Control_c, 0, 64, 127
1, 93360, Note_on_c, 0, 57, 0
1, 93360, Note_on_c, 0, 45, 0
1, 93360, Note_on_c, 0, 81, 0
1, 93600, Note_on_c, 0, 76, 92
1, 93600, Note_on_c, 0, 64, 63
1, 93840, Tempo, 646064
1, 93840, Note_on_c, 0, 64, 0
1, 93840, Note_on_c, 0, 76, 0
1, 94080, Tempo, 614565
1, 94080, Note_on_c, 0, 76, 97
1, 94080, Note_on_c, 0, 64, 74
1, 94800, Note_on_c, 0, 64, 0
1, 94800, Note_on_c, 0, 76, 0
1, 94800, Note_on_c, 0, 72, 53
1, 94800, Note_on_c, 0, 60, 47
1, 95040, Tempo, 620540
1, 95040, Note_on_c, 0, 60, 0
1, 95040, Note_on_c, 0, 72, 0
1, 95040, Note_on_c, 0, 71, 58
1, 95040, Note_on_c, 0, 59, 50
1, 95520, Tempo, 633045
1, 95520, Note_on_c, 0, 59, 0
1, 95520, Note_on_c, 0, 71, 0
1, 95520, Note_on_c, 0, 64, 54
1, 95520, Note_on_c, 0, 52, 47
1, 96000, Note_on_c, 0, 52, 0
1, 96000, Note_on_c, 0, 64, 0
1, 96000, Note_on_c, 0, 69, 54
1, 96000, Note_on_c, 0, 57, 47
1, 96240, Note_on_c, 0, 57, 0
1, 96240, Note_on_c, 0, 69, 0
1, 96537, Control_c, 0, 64, 0
1, 96960, Tempo, 629921
1, 96960, Note_on_c, 0, 53, 102
1, 96960, Note_on_c, 0, 29, 74
1, 96960, Note_on_c, 0, 41, 74
1, 97144, Control_c, 0, 64, 127
1, 97200, Note_on_c, 0, 41, 0
1, 97200, Note_on_c, 0, 29, 0
1, 97200, Note_on_c, 0, 53, 0
1, 97440, Note_on_c, 0, 72, 92
1, 97440, Note_on_c, 0, 84, 92
1, 97440, Note_on_c, 0, 60, 74
1, 97680, Tempo, 646064
1, 97680, Note_on_c, 0, 60, 0
1, 97680, Note_on_c, 0, 84, 0
1, 97680, Note_on_c, 0, 72, 0
1, 97920, Tempo, 614565
1, 97920, Note_on_c, 0, 72, 95
1, 97920, Note_on_c, 0, 84, 95
1, 97920, Note_on_c, 0, 60, 79
1, 98640, Note_on_c, 0, 60, 0
1, 98640, Note_on_c, 0, 84, 0
1, 98640, Note_on_c, 0, 72, 0
1, 98640, Note_on_c, 0, 69, 57
1, 98640, Note_on_c, 0, 81, 57
1, 98640, Note_on_c, 0, 57, 48
1, 98880, Tempo, 620540
1, 98880, Note_on_c, 0, 57, 0
1, 98880, Note_on_c, 0, 81, 0
1, 98880, Note_on_c, 0, 69, 0
1, 98880, Note_on_c, 0, 67, 60
1, 98880, Note_on_c, 0, 79, 60
1, 98880, Note_on_c, 0, 55, 53
1, 99360, Tempo, 633045
1, 99360, Note_on_c, 0, 55, 0
1, 99360, Note_on_c, 0, 79, 0
1, 99360, Note_on_c, 0, 67, 0
1, 99360, Note_on_c, 0, 60, 56
1, 99360, Note_on_c, 0, 72, 56
1, 99360, Note_on_c, 0, 48, 49
1, 99840, Note_on_c, 0, 48, 0
1, 99840, Note_on_c, 0, 72, 0
1, 99840, Note_on_c, 0, 60, 0
1, 99840, Note_on_c, 0, 65, 56
1, 99840, Note_on_c, 0, 77, 56
1, 99840, Note_on_c, 0, 53, 49
1, 100080, Note_on_c, 0, 53, 0
1, 100080, Note_on_c, 0, 77, 0
1, 100080, Note_on_c, 0, 65, 0
1, 100588, Control_c, 0, 64, 0
1, 100800, Tempo, 629921
1, 100800, Note_on_c, 0, 55, 103
1, 100800, Note_on_c, 0, 31, 90
1, 100800, Note_on_c, 0, 43, 90
1, 100984, Control_c, 0, 64, 127
1, 101040, Note_on_c, 0, 43, 0
1, 101040, Note_on_c, 0, 31, 0
1, 101040, Note_on_c, 0, 55, 0
1, 101280, Note_on_c, 0, 77, 63
1, 101280, Note_on_c, 0, 89, 90
1, 101280, Note_on_c, 0, 65, 80
1, 101520, Tempo, 646064
1, 101520, Note_on_c, 0, 65, 0
1, 101520, Note_on_c, 0, 89, 0
1, 101520, Note_on_c, 0, 77, 0
1, 101760, Tempo, 614565
1, 101760, Note_on_c, 0, 77, 67
1, 101760, Note_on_c, 0, 89, 93
1, 101760, Note_on_c, 0, 65, 81
1, 102480, Note_on_c, 0, 65, 0
1, 102480, Note_on_c, 0, 89, 0
1, 102480, Note_on_c, 0, 77, 0
1, 102480, Note_on_c, 0, 74, 56
1, 102480, Note_on_c, 0, 86, 66
1, 102480, Note_on_c, 0, 62, 53
1, 102720, Tempo, 620540
1, 102720, Note_on_c, 0, 62, 0
1, 102720, Note_on_c, 0, 86, 0
1, 102720, Note_on_c, 0, 74, 0
1, 102720, Note_on_c, 0, 71, 58
1, 102720, Note_on_c, 0, 83, 69
1, 102720, Note_on_c, 0, 59, 59
1, 103200, Tempo, 633045
1, 103200, Note_on_c, 0, 59, 0
1, 103200, Note_on_c, 0, 83, 0
1, 103200, Note_on_c, 0, 71, 0
1, 103200, Note_on_c, 0, 67, 49
1, 103200, Note_on_c, 0, 79, 58
1, 103200, Note_on_c, 0, 55, 55
1, 103680, Note_on_c, 0, 55, 0
1, 103680, Note_on_c, 0, 79, 0
1, 103680, Note_on_c, 0, 67, 0
1, 103680, Note_on_c, 0, 65, 54
1, 103680, Note_on_c, 0, 77, 64
1, 103680, Note_on_c, 0, 53, 55
1, 104400, Tempo, 652671
1, 104400, Note_on_c, 0, 53, 0
1, 104400, Note_on_c, 0, 77, 0
1, 104400, Note_on_c, 0, 65, 0
1, 104400, Note_on_c, 0, 62, 44
1, 104400, Note_on_c, 0, 74, 52
1, 104400, Note_on_c, 0, 50, 44
1, 104520, Tempo, 652671
1, 104640, Note_on_c, 0, 50, 0
1, 104640, Note_on_c, 0, 74, 0
1, 104640, Note_on_c, 0, 62, 0
1, 104640, Note_on_c, 0, 59, 46
1, 104640, Note_on_c, 0, 71, 55
1, 104640, Note_on_c, 0, 47, 51
1, 105120, Note_on_c, 0, 47, 0
1, 105120, Note_on_c, 0, 71, 0
1, 105120, Note_on_c, 0, 59, 0
1, 105120, Note_on_c, 0, 55, 41
1, 105120, Note_on_c, 0, 67, 49
1, 105120, Note_on_c, 0, 43, 36
1, 105360, Tempo, 663057
1, 105600, Note_on_c, 0, 43, 0
1, 105600, Note_on_c, 0, 67, 0
1, 105600, Note_on_c, 0, 55, 0
1, 105600, Note_on_c, 0, 53, 43
1, 105600, Note_on_c, 0, 65, 51
1, 105600, Note_on_c, 0, 41, 41
1, 106080, Tempo, 696136
1, 106320, Note_on_c, 0, 41, 0
1, 106320, Note_on_c, 0, 65, 0
1, 106320, Note_on_c, 0, 53, 0
1, 106320, Note_on_c, 0, 50, 34
1, 106320, Note_on_c, 0, 62, 40
1, 106320, Note_on_c, 0, 38, 33
1, 106560, Tempo, 738825
1, 106560, Note_on_c, 0, 38, 0
1, 106560, Note_on_c, 0, 62, 0
1, 106560, Note_on_c, 0, 50, 0
1, 106560, Note_on_c, 0, 47, 34
1, 106560, Note_on_c, 0, 59, 40
1, 106560, Note_on_c, 0, 35, 33
1, 107040, Note_on_c, 0, 35, 0
1, 107040, Note_on_c, 0, 59, 0
1, 107040, Note_on_c, 0, 47, 0
1, 107520, Note_on_c, 0, 55, 40
1, 107520, Note_on_c, 0, 31, 28
1, 107520, Note_on_c, 0, 43, 33
1, 107947, Control_c, 0, 64, 0
1, 108000, Note_on_c, 0, 43, 0
1, 108000, Note_on_c, 0, 31, 0
1, 108000, Note_on_c, 0, 55, 0
1, 108440, Tempo, 676895
1, 108480, Control_c, 0, 91, 127
1, 108480, Text_t, "bdca426d104a26ac9dcb070447587523"
1, 108480, Note_on_c, 0, 36, 50
1, 108520, Tempo, 673098
1, 108551, Control_c, 0, 64, 127
1, 108560, Tempo, 669269
1, 108600, Tempo, 665631
1, 108600, Note_on_c, 0, 52, 28
1, 108640, Tempo, 661886
1, 108680, Tempo, 658328
1, 108720, Note_on_c, 0, 52, 0
1, 108720, Note_on_c, 0, 36, 0
1, 108720, Note_on_c, 0, 55, 30
1, 108760, Tempo, 654664
1, 108800, Tempo, 651183
1, 108840, Tempo, 647598
1, 108840, Note_on_c, 0, 55, 0
1, 108840, Note_on_c, 0, 60, 32
1, 108880, Tempo, 644122
1, 108920, Tempo, 640683
1, 108960, Tempo, 627287
1, 108960, Note_on_c, 0, 60, 0
1, 108960, Note_on_c, 0, 64, 34
1, 108960, Note_on_c, 0, 79, 50
1, 109080, Note_on_c, 0, 64, 0
1, 109080, Note_on_c, 0, 52, 31
1, 109200, Note_on_c, 0, 52, 0
1, 109200, Note_on_c, 0, 79, 0
1, 109200, Note_on_c, 0, 55, 31
1, 109320, Note_on_c, 0, 55, 0
1, 109320, Note_on_c, 0, 60, 31
1, 109440, Tempo, 605083
1, 109440, Note_on_c, 0, 60, 0
1, 109440, Note_on_c, 0, 64, 35
1, 109440, Note_on_c, 0, 79, 54
1, 109560, Note_on_c, 0, 64, 0
1, 109560, Note_on_c, 0, 52, 30
1, 109680, Note_on_c, 0, 52, 0
1, 109680, Note_on_c, 0, 55, 31
1, 109800, Note_on_c, 0, 55, 0
1, 109800, Note_on_c, 0, 60, 33
1, 109920, Note_on_c, 0, 60, 0
1, 109920, Note_on_c, 0, 64, 36
1, 110040, Note_on_c, 0, 64, 0
1, 110040, Note_on_c, 0, 52, 33
1, 110160, Note_on_c, 0, 52, 0
1, 110160, Note_on_c, 0, 79, 0
1, 110160, Note_on_c, 0, 55, 33
1, 110160, Note_on_c, 0, 76, 47
1, 110280, Note_on_c, 0, 55, 0
1, 110280, Note_on_c, 0, 60, 33
1, 110400, Tempo, 573230
1, 110400, Note_on_c, 0, 60, 0
1, 110400, Note_on_c, 0, 76, 0
1, 110400, Note_on_c, 0, 74, 50
1, 110413, Control_c, 0, 64, 0
1, 110471, Control_c, 0, 64, 127
1, 110520, Note_on_c, 0, 53, 28
1, 110640, Note_on_c, 0, 53, 0
1, 110640, Note_on_c, 0, 55, 31
1, 110760, Note_on_c, 0, 55, 0
1, 110760, Note_on_c, 0, 59, 33
1, 110880, Tempo, 599042
1, 110880, Note_on_c, 0, 59, 0
1, 110880, Note_on_c, 0, 74, 0
1, 110880, Note_on_c, 0, 62, 36
1, 110880, Note_on_c, 0, 67, 41
1, 111000, Note_on_c, 0, 62, 0
1, 111000, Note_on_c, 0, 53, 33
1, 111120, Note_on_c, 0, 53, 0
1, 111120, Note_on_c, 0, 55, 33
1, 111240, Note_on_c, 0, 55, 0
1, 111240, Note_on_c, 0, 59, 34
1, 111360, Tempo, 623960
1, 111360, Note_on_c, 0, 59, 0
1, 111360, Note_on_c, 0, 67, 0
1, 111360, Note_on_c, 0, 72, 50
1, 111370, Control_c, 0, 64, 0
1, 111459, Control_c, 0, 64, 127
1, 111480, Note_on_c, 0, 52, 28
1, 111600, Note_on_c, 0, 52, 0
1, 111600, Note_on_c, 0, 55, 30
1, 111720, Note_on_c, 0, 55, 0
1, 111720, Note_on_c, 0, 60, 32
1, 111840, Note_on_c, 0, 60, 0
1, 111840, Note_on_c, 0, 72, 0
1, 111840, Note_on_c, 0, 64, 34
1, 111840, Note_on_c, 0, 76, 47
1, 111960, Note_on_c, 0, 64, 0
1, 111960, Note_on_c, 0, 52, 32
1, 112080, Note_on_c, 0, 52, 0
1, 112080, Note_on_c, 0, 76, 0
1, 112080, Note_on_c, 0, 55, 32
1, 112200, Tempo, 604839
1, 112200, Note_on_c, 0, 55, 0
1, 112200, Note_on_c, 0, 60, 33
1, 112200, Note_on_c, 0, 48, 31
1, 112320, Tempo, 639318
1, 112320, Note_on_c, 0, 48, 0
1, 112320, Note_on_c, 0, 60, 0
1, 112320, Control_c, 0, 91, 127
1, 112320, Text_t, "bdca426d104a26ac9dcb070447587523"
1, 112320, Note_on_c, 0, 36, 50
1, 112333, Control_c, 0, 64, 0
1, 112400, Tempo, 635997
1, 112405, Control_c, 0, 64, 127
1, 112440, Tempo, 632778
1, 112440, Note_on_c, 0, 52, 28
1, 112480, Tempo, 629459
1, 112520, Tempo, 626305
1, 112560, Tempo, 623182
1, 112560, Note_on_c, 0, 52, 0
1, 112560, Note_on_c, 0, 36, 0
1, 112560, Note_on_c, 0, 55, 30
1, 112600, Tempo, 620027
1, 112640, Tempo, 616903
1, 112680, Tempo, 613936
1, 112680, Note_on_c, 0, 55, 0
1, 112680, Note_on_c, 0, 60, 32
1, 112720, Tempo, 610811
1, 112760, Tempo, 607841
1, 112800, Tempo, 604839
1, 112800, Note_on_c, 0, 60, 0
1, 112800, Note_on_c, 0, 64, 34
1, 112800, Note_on_c, 0, 79, 50
1, 112920, Note_on_c, 0, 64, 0
1, 112920, Note_on_c, 0, 52, 31
1, 113040, Note_on_c, 0, 52, 0
1, 113040, Note_on_c, 0, 79, 0
1, 113040, Note_on_c, 0, 55, 31
1, 113160, Note_on_c, 0, 55, 0
1, 113160, Note_on_c, 0, 60, 31
1, 113280, Tempo, 587602
1, 113280, Note_on_c, 0, 60, 0
1, 113280, Note_on_c, 0, 64, 35
1, 113280, Note_on_c, 0, 79, 54
1, 113400, Note_on_c, 0, 64, 0
1, 113400, Note_on_c, 0, 52, 30
1, 113520, Note_on_c, 0, 52, 0
1, 113520, Note_on_c, 0, 55, 31
1, 113640, Note_on_c, 0, 55, 0
1, 113640, Note_on_c, 0, 60, 33
1, 113760, Note_on_c, 0, 60, 0
1, 113760, Note_on_c, 0, 64, 36
1, 113880, Note_on_c, 0, 64, 0
1, 113880, Note_on_c, 0, 52, 33
1, 114000, Note_on_c, 0, 52, 0
1, 114000, Note_on_c, 0, 79, 0
1, 114000, Note_on_c, 0, 55, 33
1, 114000, Note_on_c, 0, 76, 47
1, 114120, Note_on_c, 0, 55, 0
1, 114120, Note_on_c, 0, 60, 33
1, 114240, Tempo, 563380
1, 114240, Note_on_c, 0, 60, 0
1, 114240, Note_on_c, 0, 76, 0
1, 114240, Note_on_c, 0, 74, 50
1, 114254, Control_c, 0, 64, 0
1, 114325, Control_c, 0, 64, 127
1, 114360, Note_on_c, 0, 53, 28
1, 114480, Note_on_c, 0, 53, 0
1, 114480, Note_on_c, 0, 55, 31
1, 114600, Note_on_c, 0, 55, 0
1, 114600, Note_on_c, 0, 59, 33
1, 114720, Tempo, 582016
1, 114720, Note_on_c, 0, 59, 0
1, 114720, Note_on_c, 0, 74, 0
1, 114720, Note_on_c, 0, 62, 36
1, 114720, Note_on_c, 0, 67, 41
1, 114840, Note_on_c, 0, 62, 0
1, 114840, Note_on_c, 0, 53, 33
1, 114960, Note_on_c, 0, 53, 0
1, 114960, Note_on_c, 0, 55, 33
1, 115080, Note_on_c, 0, 55, 0
1, 115080, Note_on_c, 0, 59, 34
1, 115200, Tempo, 587602
1, 115200, Note_on_c, 0, 59, 0
1, 115200, Note_on_c, 0, 67, 0
1, 115200, Note_on_c, 0, 72, 50
1, 115218, Control_c, 0, 64, 0
1, 115240, Tempo, 598982
1, 115292, Control_c, 0, 64, 127
1, 115440, Note_on_c, 0, 72, 0
1, 115440, Note_on_c, 0, 52, 30
1, 115560, Note_on_c, 0, 52, 0
1, 115560, Note_on_c, 0, 55, 32
1, 115680, Note_on_c, 0, 55, 0
1, 115680, Note_on_c, 0, 60, 34
1, 115800, Note_on_c, 0, 60, 0
1, 115800, Note_on_c, 0, 64, 32
1, 115920, Note_on_c, 0, 64, 0
1, 115920, Note_on_c, 0, 62, 32
1, 116040, Tempo, 601866
1, 116040, Note_on_c, 0, 62, 0
1, 116040, Note_on_c, 0, 60, 33
1, 116040, Note_on_c, 0, 43, 30
1, 116160, Tempo, 629459
1, 116160, Note_on_c, 0, 43, 0
1, 116160, Note_on_c, 0, 60, 0
1, 116160, Note_on_c, 0, 59, 35
1, 116160, Control_c, 0, 91, 127
1, 116160, Text_t, "bdca426d104a26ac9dcb070447587523"
1, 116160, Note_on_c, 0, 31, 45
1, 116170, Control_c, 0, 64, 0
1, 116252, Control_c, 0, 64, 127
1, 116280, Tempo, 610811
1, 116280, Note_on_c, 0, 59, 0
1, 116280, Note_on_c, 0, 55, 28
1, 116360, Tempo, 607841
1, 116400, Tempo, 604839
1, 116400, Note_on_c, 0, 55, 0
1, 116400, Note_on_c, 0, 31, 0
1, 116400, Note_on_c, 0, 59, 30
1, 116440, Tempo, 601866
1, 116480, Tempo, 598982
1, 116520, Tempo, 596066
1, 116520, Note_on_c, 0, 59, 0
1, 116520, Note_on_c, 0, 62, 32
1, 116560, Tempo, 593237
1, 116600, Tempo, 590319
1, 116640, Tempo, 590319
1, 116640, Note_on_c, 0, 62, 0
1, 116640, Note_on_c, 0, 67, 34
1, 116640, Note_on_c, 0, 77, 50
1, 116760, Note_on_c, 0, 67, 0
1, 116760, Note_on_c, 0, 55, 31
1, 116880, Note_on_c, 0, 55, 0
1, 116880, Note_on_c, 0, 77, 0
1, 116880, Note_on_c, 0, 59, 31
1, 117000, Note_on_c, 0, 59, 0
1, 117000, Note_on_c, 0, 62, 31
1, 117120, Tempo, 571211
1, 117120, Note_on_c, 0, 62, 0
1, 117120, Note_on_c, 0, 67, 35
1, 117120, Note_on_c, 0, 77, 54
1, 117240, Note_on_c, 0, 67, 0
1, 117240, Note_on_c, 0, 55, 30
1, 117360, Note_on_c, 0, 55, 0
1, 117360, Note_on_c, 0, 59, 31
1, 117480, Note_on_c, 0, 59, 0
1, 117480, Note_on_c, 0, 62, 33
1, 117600, Note_on_c, 0, 62, 0
1, 117600, Note_on_c, 0, 67, 36
1, 117720, Note_on_c, 0, 67, 0
1, 117720, Note_on_c, 0, 55, 33
1, 117840, Note_on_c, 0, 55, 0
1, 117840, Note_on_c, 0, 77, 0
1, 117840, Note_on_c, 0, 59, 33
1, 117840, Note_on_c, 0, 74, 47
1, 117960, Note_on_c, 0, 59, 0
1, 117960, Note_on_c, 0, 67, 33
1, 118080, Tempo, 553352
1, 118080, Note_on_c, 0, 67, 0
1, 118080, Note_on_c, 0, 74, 0
1, 118080, Note_on_c, 0, 76, 50
1, 118089, Control_c, 0, 64, 0
1, 118165, Control_c, 0, 64, 127
1, 118200, Note_on_c, 0, 55, 28
1, 118320, Note_on_c, 0, 55, 0
1, 118320, Note_on_c, 0, 60, 31
1, 118440, Note_on_c, 0, 60, 0
1, 118440, Note_on_c, 0, 67, 33
1, 118560, Tempo, 568613
1, 118560, Note_on_c, 0, 67, 0
1, 118560, Note_on_c, 0, 76, 0
1, 118560, Note_on_c, 0, 72, 41
1, 118680, Note_on_c, 0, 55, 28
1, 118800, Note_on_c, 0, 55, 0
1, 118800, Note_on_c, 0, 64, 31
1, 118920, Note_on_c, 0, 64, 0
1, 118920, Note_on_c, 0, 67, 33
1, 119040, Tempo, 582016
1, 119040, Note_on_c, 0, 67, 0
1, 119040, Note_on_c, 0, 72, 0
1, 119040, Note_on_c, 0, 71, 50
1, 119056, Control_c, 0, 64, 0
1, 119118, Control_c, 0, 64, 127
1, 119160, Note_on_c, 0, 55, 28
1, 119280, Note_on_c, 0, 55, 0
1, 119280, Note_on_c, 0, 62, 30
1, 119400, Note_on_c, 0, 62, 0
1, 119400, Note_on_c, 0, 67, 32
1, 119520, Note_on_c, 0, 67, 0
1, 119520, Note_on_c, 0, 71, 0
1, 119520, Note_on_c, 0, 74, 47
1, 119640, Note_on_c, 0, 55, 28
1, 119760, Note_on_c, 0, 55, 0
1, 119760, Note_on_c, 0, 74, 0
1, 119760, Note_on_c, 0, 59, 30
1, 119880, Tempo, 601866
1, 119880, Note_on_c, 0, 59, 0
1, 119880, Note_on_c, 0, 67, 32
1, 119880, Note_on_c, 0, 43, 32
1, 120000, Tempo, 629459
1, 120000, Note_on_c, 0, 43, 0
1, 120000, Note_on_c, 0, 67, 0
1, 120000, Control_c, 0, 91, 127
1, 120000, Text_t, "bdca426d104a26ac9dcb070447587523"
1, 120000, Note_on_c, 0, 31, 48
1, 120018, Control_c, 0, 64, 0
1, 120092, Control_c, 0, 64, 127
1, 120120, Tempo, 610811
1, 120120, Note_on_c, 0, 55, 28
1, 120200, Tempo, 607841
1, 120240, Tempo, 604839
1, 120240, Note_on_c, 0, 55, 0
1, 120240, Note_on_c, 0, 31, 0
1, 120240, Note_on_c, 0, 59, 30
1, 120280, Tempo, 601866
1, 120320, Tempo, 598982
1, 120360, Tempo, 596066
1, 120360, Note_on_c, 0, 59, 0
1, 120360, Note_on_c, 0, 62, 32
1, 120400, Tempo, 593237
1, 120440, Tempo, 590319
1, 120480, Tempo, 590319
1, 120480, Note_on_c, 0, 62, 0
1, 120480, Note_on_c, 0, 67, 34
1, 120480, Note_on_c, 0, 77, 50
1, 120600, Note_on_c, 0, 67, 0
1, 120600, Note_on_c, 0, 55, 31
1, 120720, Note_on_c, 0, 55, 0
1, 120720, Note_on_c, 0, 77, 0
1, 120720, Note_on_c, 0, 59, 31
1, 120840, Note_on_c, 0, 59, 0
1, 120840, Note_on_c, 0, 62, 31
1, 120960, Tempo, 558347
1, 120960, Note_on_c, 0, 62, 0
1, 120960, Note_on_c, 0, 67, 35
1, 120960, Note_on_c, 0, 77, 54
1, 121080, Note_on_c, 0, 67, 0
1, 121080, Note_on_c, 0, 55, 30
1, 121200, Note_on_c, 0, 55, 0
1, 121200, Note_on_c, 0, 59, 31
1, 121320, Note_on_c, 0, 59, 0
1, 121320, Note_on_c, 0, 62, 33
1, 121440, Note_on_c, 0, 62, 0
1, 121440, Note_on_c, 0, 67, 36
1, 121560, Note_on_c, 0, 67, 0
1, 121560, Note_on_c, 0, 55, 33
1, 121680, Note_on_c, 0, 55, 0
1, 121680, Note_on_c, 0, 77, 0
1, 121680, Note_on_c, 0, 59, 33
1, 121680, Note_on_c, 0, 74, 47
1, 121800, Note_on_c, 0, 59, 0
1, 121800, Note_on_c, 0, 67, 33
1, 121920, Tempo, 543527
1, 121920, Note_on_c, 0, 67, 0
1, 121920, Note_on_c, 0, 74, 0
1, 121920, Note_on_c, 0, 75, 50
1, 121928, Control_c, 0, 64, 0
1, 122023, Control_c, 0, 64, 127
1, 122040, Note_on_c, 0, 55, 28
1, 122160, Note_on_c, 0, 55, 0
1, 122160, Note_on_c, 0, 60, 31
1, 122280, Note_on_c, 0, 60, 0
1, 122280, Note_on_c, 0, 67, 33
1, 122400, Tempo, 555761
1, 122400, Note_on_c, 0, 67, 0
1, 122400, Note_on_c, 0, 75, 0
1, 122400, Note_on_c, 0, 72, 41
1, 122520, Note_on_c, 0, 55, 28
1, 122640, Note_on_c, 0, 55, 0
1, 122640, Note_on_c, 0, 63, 31
1, 122760, Note_on_c, 0, 63, 0
1, 122760, Note_on_c, 0, 67, 33
1, 122880, Tempo, 582016
1, 122880, Note_on_c, 0, 67, 0
1, 122880, Note_on_c, 0, 72, 0
1, 122880, Note_on_c, 0, 71, 50
1, 122892, Control_c, 0, 64, 0
1, 122972, Control_c, 0, 64, 127
1, 123000, Note_on_c, 0, 55, 28
1, 123120, Note_on_c, 0, 55, 0
1, 123120, Note_on_c, 0, 62, 30
1, 123240, Note_on_c, 0, 62, 0
1, 123240, Note_on_c, 0, 67, 32
1, 123360, Note_on_c, 0, 67, 0
1, 123360, Note_on_c, 0, 71, 0
1, 123360, Note_on_c, 0, 74, 47
1, 123480, Note_on_c, 0, 55, 28
1, 123600, Note_on_c, 0, 55, 0
1, 123600, Note_on_c, 0, 59, 30
1, 123720, Note_on_c, 0, 59, 0
1, 123720, Note_on_c, 0, 67, 32
1, 123840, Tempo, 543527
1, 123840, Note_on_c, 0, 67, 0
1, 123840, Note_on_c, 0, 74, 0
1, 123840, Note_on_c, 0, 76, 50
1, 123857, Control_c, 0, 64, 0
1, 123939, Control_c, 0, 64, 127
1, 123960, Note_on_c, 0, 55, 28
1, 124080, Note_on_c, 0, 55, 0
1, 124080, Note_on_c, 0, 60, 31
1, 124200, Note_on_c, 0, 60, 0
1, 124200, Note_on_c, 0, 67, 33
1, 124320, Tempo, 555761
1, 124320, Note_on_c, 0, 67, 0
1, 124320, Note_on_c, 0, 76, 0
1, 124320, Note_on_c, 0, 72, 41
1, 124440, Note_on_c, 0, 55, 28
1, 124560, Note_on_c, 0, 55, 0
1, 124560, Note_on_c, 0, 64, 31
1, 124680, Note_on_c, 0, 64, 0
1, 124680, Note_on_c, 0, 67, 33
1, 124800, Tempo, 582016
1, 124800, Note_on_c, 0, 67, 0
1, 124800, Note_on_c, 0, 72, 0
1, 124800, Note_on_c, 0, 71, 50
1, 124819, Control_c, 0, 64, 0
1, 124899, Control_c, 0, 64, 127
1, 124920, Note_on_c, 0, 55, 28
1, 125040, Note_on_c, 0, 55, 0
1, 125040, Note_on_c, 0, 62, 30
1, 125160, Note_on_c, 0, 62, 0
1, 125160, Note_on_c, 0, 67, 32
1, 125280, Note_on_c, 0, 67, 0
1, 125280, Note_on_c, 0, 71, 0
1, 125280, Note_on_c, 0, 74, 47
1, 125400, Note_on_c, 0, 55, 28
1, 125520, Note_on_c, 0, 55, 0
1, 125520, Note_on_c, 0, 59, 30
1, 125640, Note_on_c, 0, 59, 0
1, 125640, Note_on_c, 0, 67, 32
1, 125760, Tempo, 543527
1, 125760, Note_on_c, 0, 67, 0
1, 125760, Note_on_c, 0, 74, 0
1, 125760, Note_on_c, 0, 75, 50
1, 125770, Control_c, 0, 64, 0
1, 125806, Control_c, 0, 64, 127
1, 125880, Note_on_c, 0, 55, 28
1, 126000, Note_on_c, 0, 55, 0
1, 126000, Note_on_c, 0, 60, 31
1, 126120, Note_on_c, 0, 60, 0
1, 126120, Note_on_c, 0, 67, 33
1, 126240, Tempo, 555761
1, 126240, Note_on_c, 0, 67, 0
1, 126240, Note_on_c, 0, 75, 0
1, 126240, Note_on_c, 0, 72, 41
1, 126360, Note_on_c, 0, 55, 28
1, 126480, Note_on_c, 0, 55, 0
1, 126480, Note_on_c, 0, 60, 31
1, 126600, Note_on_c, 0, 60, 0
1, 126600, Note_on_c, 0, 63, 33
1, 126720, Tempo, 582016
1, 126720, Note_on_c, 0, 63, 0
1, 126720, Note_on_c, 0, 72, 0
1, 126720, Note_on_c, 0, 79, 50
1, 126733, Control_c, 0, 64, 0
1, 126795, Control_c, 0, 64, 127
1, 126840, Note_on_c, 0, 55, 28
1, 126960, Note_on_c, 0, 55, 0
1, 126960, Note_on_c, 0, 59, 30
1, 127080, Note_on_c, 0, 59, 0
1, 127080, Note_on_c, 0, 62, 32
1, 127195, Note_on_c, 0, 79, 0
1, 127200, Tempo, 576535
1, 127200, Note_on_c, 0, 62, 0
1, 127200, Note_on_c, 0, 79, 47
1, 127217, Control_c, 0, 64, 0
1, 127292, Control_c, 0, 64, 127
1, 127320, Note_on_c, 0, 55, 28
1, 127440, Note_on_c, 0, 55, 0
1, 127440, Note_on_c, 0, 60, 30
1, 127560, Note_on_c, 0, 60, 0
1, 127560, Note_on_c, 0, 63, 32
1, 127675, Note_on_c, 0, 79, 0
1, 127680, Note_on_c, 0, 63, 0
1, 127680, Note_on_c, 0, 79, 50
1, 127697, Control_c, 0, 64, 0
1, 127755, Control_c, 0, 64, 127
1, 127800, Note_on_c, 0, 55, 28
1, 127920, Note_on_c, 0, 55, 0
1, 127920, Note_on_c, 0, 59, 30
1, 128040, Note_on_c, 0, 59, 0
1, 128040, Note_on_c, 0, 62, 32
1, 128155, Note_on_c, 0, 79, 0
1, 128160, Note_on_c, 0, 62, 0
1, 128160, Note_on_c, 0, 79, 47
1, 128175, Control_c, 0, 64, 0
1, 128240, Control_c, 0, 64, 127
1, 128280, Note_on_c, 0, 55, 28
1, 128400, Note_on_c, 0, 55, 0
1, 128400, Note_on_c, 0, 60, 30
1, 128520, Note_on_c, 0, 60, 0
1, 128520, Note_on_c, 0, 63, 32
1, 128560, Tempo, 576535
1, 128635, Note_on_c, 0, 79, 0
1, 128640, Note_on_c, 0, 63, 0
1, 128640, Note_on_c, 0, 79, 50
1, 128654, Control_c, 0, 64, 0
1, 128720, Tempo, 579262
1, 128760, Note_on_c, 0, 55, 28
1, 128767, Control_c, 0, 64, 127
1, 128880, Tempo, 582016
1, 128880, Note_on_c, 0, 55, 0
1, 128880, Note_on_c, 0, 59, 30
1, 129000, Note_on_c, 0, 59, 0
1, 129000, Note_on_c, 0, 62, 32
1, 129040, Tempo, 584795
1, 129115, Note_on_c, 0, 79, 0
1, 129120, Note_on_c, 0, 62, 0
1, 129120, Note_on_c, 0, 79, 47
1, 129137, Control_c, 0, 64, 0
1, 129160, Tempo, 587602
1, 129226, Control_c, 0, 64, 127
1, 129240, Note_on_c, 0, 55, 28
1, 129320, Tempo, 590319
1, 129360, Note_on_c, 0, 55, 0
1, 129360, Note_on_c, 0, 57, 30
1, 129480, Tempo, 593237
1, 129480, Note_on_c, 0, 57, 0
1, 129480, Note_on_c, 0, 60, 32
1, 129595, Note_on_c, 0, 79, 0
1, 129600, Tempo, 596066
1, 129600, Note_on_c, 0, 60, 0
1, 129600, Note_on_c, 0, 79, 47
1, 129611, Control_c, 0, 64, 0
1, 129640, Tempo, 584795
1, 129692, Control_c, 0, 64, 127
1, 129720, Note_on_c, 0, 55, 36
1, 129800, Tempo, 582016
1, 129840, Note_on_c, 0, 55, 0
1, 129840, Note_on_c, 0, 59, 38
1, 129960, Tempo, 579262
1, 129960, Note_on_c, 0, 59, 0
1, 129960, Note_on_c, 0, 62, 35
1, 130080, Note_on_c, 0, 62, 0
1, 130080, Note_on_c, 0, 79, 0
1, 130080, Note_on_c, 0, 67, 43
1, 130120, Tempo, 576535
1, 130200, Note_on_c, 0, 67, 0
1, 130200, Note_on_c, 0, 71, 39
1, 130280, Tempo, 573888
1, 130320, Note_on_c, 0, 71, 0
1, 130320, Note_on_c, 0, 69, 41
1, 130400, Tempo, 571211
1, 130440, Note_on_c, 0, 69, 0
1, 130440, Note_on_c, 0, 66, 38
1, 130560, Tempo, 568613
1, 130560, Note_on_c, 0, 66, 0
1, 130560, Note_on_c, 0, 67, 43
1, 130573, Control_c, 0, 64, 0
1, 130659, Control_c, 0, 64, 127
1, 130680, Note_on_c, 0, 67, 0
1, 130680, Note_on_c, 0, 59, 38
1, 130720, Tempo, 565984
1, 130800, Note_on_c, 0, 59, 0
1, 130800, Note_on_c, 0, 62, 41
1, 130880, Tempo, 563380
1, 130920, Note_on_c, 0, 62, 0
1, 130920, Note_on_c, 0, 67, 38
1, 131000, Tempo, 560852
1, 131040, Note_on_c, 0, 67, 0
1, 131040, Note_on_c, 0, 71, 46
1, 131160, Note_on_c, 0, 71, 0
1, 131160, Note_on_c, 0, 74, 41
1, 131280, Note_on_c, 0, 74, 0
1, 131280, Note_on_c, 0, 72, 41
1, 131400, Note_on_c, 0, 72, 0
1, 131400, Note_on_c, 0, 69, 37
1, 131520, Note_on_c, 0, 69, 0
1, 131520, Note_on_c, 0, 71, 47
1, 131530, Control_c, 0, 64, 0
1, 131606, Control_c, 0, 64, 127
1, 131640, Note_on_c, 0, 71, 0
1, 131640, Note_on_c, 0, 67, 42
1, 131760, Note_on_c, 0, 67, 0
1, 131760, Note_on_c, 0, 71, 47
1, 131880, Note_on_c, 0, 71, 0
1, 131880, Note_on_c, 0, 74, 43
1, 132000, Note_on_c, 0, 74, 0
1, 132000, Note_on_c, 0, 79, 51
1, 132120, Note_on_c, 0, 79, 0
1, 132120, Note_on_c, 0, 83, 46
1, 132240, Note_on_c, 0, 83, 0
1, 132240, Note_on_c, 0, 81, 48
1, 132360, Note_on_c, 0, 81, 0
1, 132360, Note_on_c, 0, 78, 43
1, 132480, Tempo, 557207
1, 132480, Note_on_c, 0, 78, 0
1, 132480, Note_on_c, 0, 79, 52
1, 132503, Control_c, 0, 64, 0
1, 132549, Control_c, 0, 64, 127
1, 132600, Note_on_c, 0, 79, 0
1, 132600, Note_on_c, 0, 83, 52
1, 132680, Tempo, 559858
1, 132720, Note_on_c, 0, 83, 0
1, 132720, Note_on_c, 0, 81, 53
1, 132840, Note_on_c, 0, 81, 0
1, 132840, Note_on_c, 0, 84, 54
1, 132880, Tempo, 562430
1, 132960, Note_on_c, 0, 84, 0
1, 132960, Note_on_c, 0, 83, 55
1, 133040, Tempo, 565131
1, 133080, Note_on_c, 0, 83, 0
1, 133080, Note_on_c, 0, 86, 56
1, 133200, Note_on_c, 0, 86, 0
1, 133200, Note_on_c, 0, 85, 56
1, 133240, Tempo, 567805
1, 133320, Note_on_c, 0, 85, 0
1, 133320, Note_on_c, 0, 88, 57
1, 133400, Tempo, 570505
1, 133440, Note_on_c, 0, 88, 0
1, 133440, Note_on_c, 0, 86, 58
1, 133459, Control_c, 0, 64, 0
1, 133518, Control_c, 0, 64, 127
1, 133560, Note_on_c, 0, 86, 0
1, 133560, Note_on_c, 0, 89, 59
1, 133680, Tempo, 567805
1, 133680, Note_on_c, 0, 89, 0
1, 133680, Note_on_c, 0, 88, 60
1, 133800, Note_on_c, 0, 88, 0
1, 133800, Note_on_c, 0, 91, 56
1, 133920, Note_on_c, 0, 91, 0
1, 133920, Note_on_c, 0, 89, 61
1, 133960, Tempo, 565131
1, 134040, Note_on_c, 0, 89, 0
1, 134040, Note_on_c, 0, 93, 62
1, 134160, Note_on_c, 0, 93, 0
1, 134160, Note_on_c, 0, 89, 63
1, 134240, Tempo, 562430
1, 134280, Note_on_c, 0, 89, 0
1, 134280, Note_on_c, 0, 88, 59
1, 134400, Note_on_c, 0, 88, 0
1, 134400, Note_on_c, 0, 86, 65
1, 134413, Control_c, 0, 64, 0
1, 134480, Tempo, 559858
1, 134492, Control_c, 0, 64, 127
1, 134520, Note_on_c, 0, 86, 0
1, 134520, Note_on_c, 0, 89, 66
1, 134640, Note_on_c, 0, 89, 0
1, 134640, Note_on_c, 0, 88, 66
1, 134760, Note_on_c, 0, 88, 0
1, 134760, Note_on_c, 0, 91, 64
1, 134880, Note_on_c, 0, 91, 0
1, 134880, Note_on_c, 0, 89, 68
1, 135000, Note_on_c, 0, 89, 0
1, 135000, Note_on_c, 0, 93, 69
1, 135120, Note_on_c, 0, 93, 0
1, 135120, Note_on_c, 0, 89, 70
1, 135240, Note_on_c, 0, 89, 0
1, 135240, Note_on_c, 0, 88, 66
1, 135360, Note_on_c, 0, 88, 0
1, 135360, Note_on_c, 0, 86, 69
1, 135378, Control_c, 0, 64, 0
1, 135473, Control_c, 0, 64, 127
1, 135480, Note_on_c, 0, 86, 0
1, 135480, Note_on_c, 0, 89, 65
1, 135600, Note_on_c, 0, 89, 0
1, 135600, Note_on_c, 0, 88, 67
1, 135720, Note_on_c, 0, 88, 0
1, 135720, Note_on_c, 0, 84, 60
1, 135840, Note_on_c, 0, 84, 0
1, 135840, Note_on_c, 0, 83, 64
1, 135960, Note_on_c, 0, 83, 0
1, 135960, Note_on_c, 0, 86, 59
1, 136080, Note_on_c, 0, 86, 0
1, 136080, Note_on_c, 0, 84, 62
1, 136200, Note_on_c, 0, 84, 0
1, 136200, Note_on_c, 0, 81, 55
1, 136280, Tempo, 559858
1, 136320, Note_on_c, 0, 81, 0
1, 136320, Note_on_c, 0, 79, 59
1, 136333, Control_c, 0, 64, 0
1, 136426, Control_c, 0, 64, 127
1, 136440, Tempo, 562430
1, 136440, Note_on_c, 0, 79, 0
1, 136440, Note_on_c, 0, 83, 54
1, 136560, Note_on_c, 0, 83, 0
1, 136560, Note_on_c, 0, 81, 56
1, 136600, Tempo, 565131
1, 136680, Note_on_c, 0, 81, 0
1, 136680, Note_on_c, 0, 77, 51
1, 136760, Tempo, 567805
1, 136800, Note_on_c, 0, 77, 0
1, 136800, Note_on_c, 0, 76, 54
1, 136840, Tempo, 570505
1, 136880, Tempo, 573230
1, 136920, Note_on_c, 0, 76, 0
1, 136920, Note_on_c, 0, 79, 46
1, 136960, Tempo, 575982
1, 137000, Tempo, 578760
1, 137040, Tempo, 581564
1, 137040, Note_on_c, 0, 79, 0
1, 137040, Note_on_c, 0, 77, 49
1, 137120, Tempo, 584454
1, 137160, Tempo, 587257
1, 137160, Note_on_c, 0, 77, 0
1, 137160, Note_on_c, 0, 74, 42
1, 137200, Tempo, 590203
1, 137280, Tempo, 640683
1, 137280, Note_on_c, 0, 74, 0
1, 137280, Note_on_c, 0, 72, 49
1, 137280, Note_on_c, 0, 36, 50
1, 137297, Control_c, 0, 64, 0
1, 137320, Tempo, 637281
1, 137358, Control_c, 0, 64, 127
1, 137360, Tempo, 633914
1, 137400, Tempo, 630517
1, 137400, Note_on_c, 0, 36, 0
1, 137400, Note_on_c, 0, 72, 0
1, 137400, Note_on_c, 0, 43, 30
1, 137440, Tempo, 627287
1, 137480, Tempo, 623960
1, 137520, Tempo, 617538
1, 137520, Note_on_c, 0, 43, 0
1, 137520, Note_on_c, 0, 48, 32
1, 137560, Tempo, 614376
1, 137600, Tempo, 611247
1, 137640, Tempo, 608149
1, 137640, Note_on_c, 0, 48, 0
1, 137640, Note_on_c, 0, 52, 34
1, 137680, Tempo, 605083
1, 137720, Tempo, 602047
1, 137760, Tempo, 596066
1, 137760, Note_on_c, 0, 52, 0
1, 137760, Note_on_c, 0, 91, 50
1, 137760, Note_on_c, 0, 79, 50
1, 137760, Note_on_c, 0, 55, 31
1, 137880, Note_on_c, 0, 55, 0
1, 137880, Note_on_c, 0, 48, 31
1, 138000, Note_on_c, 0, 48, 0
1, 138000, Note_on_c, 0, 79, 0
1, 138000, Note_on_c, 0, 91, 0
1, 138000, Note_on_c, 0, 52, 31
1, 138120, Note_on_c, 0, 52, 0
1, 138120, Note_on_c, 0, 55, 35
1, 138240, Tempo, 570505
1, 138240, Note_on_c, 0, 55, 0
1, 138240, Note_on_c, 0, 91, 54
1, 138240, Note_on_c, 0, 79, 54
1, 138240, Note_on_c, 0, 60, 30
1, 138360, Note_on_c, 0, 60, 0
1, 138360, Note_on_c, 0, 52, 31
1, 138480, Note_on_c, 0, 52, 0
1, 138480, Note_on_c, 0, 55, 33
1, 138600, Note_on_c, 0, 55, 0
1, 138600, Note_on_c, 0, 60, 36
1, 138720, Note_on_c, 0, 60, 0
1, 138720, Note_on_c, 0, 64, 33
1, 138840, Note_on_c, 0, 64, 0
1, 138840, Note_on_c, 0, 55, 33
1, 138960, Note_on_c, 0, 55, 0
1, 138960, Note_on_c, 0, 79, 0
1, 138960, Note_on_c, 0, 91, 0
1, 138960, Note_on_c, 0, 88, 47
1, 138960, Note_on_c, 0, 76, 47
1, 138960, Note_on_c, 0, 60, 33
1, 139080, Note_on_c, 0, 60, 0
1, 139080, Note_on_c, 0, 64, 36
1, 139200, Tempo, 547046
1, 139200, Note_on_c, 0, 64, 0
1, 139200, Note_on_c, 0, 76, 0
1, 139200, Note_on_c, 0, 88, 0
1, 139200, Note_on_c, 0, 86, 50
1, 139200, Note_on_c, 0, 74, 50
1, 139200, Note_on_c, 0, 65, 28
1, 139213, Control_c, 0, 64, 0
1, 139257, Control_c, 0, 64, 127
1, 139320, Note_on_c, 0, 65, 0
1, 139320, Note_on_c, 0, 64, 31
1, 139440, Note_on_c, 0, 64, 0
1, 139440, Note_on_c, 0, 62, 33
1, 139560, Note_on_c, 0, 62, 0
1, 139560, Note_on_c, 0, 60, 36
1, 139680, Tempo, 562430
1, 139680, Note_on_c, 0, 60, 0
1, 139680, Note_on_c, 0, 74, 0
1, 139680, Note_on_c, 0, 86, 0
1, 139680, Note_on_c, 0, 79, 41
1, 139680, Note_on_c, 0, 67, 41
1, 139680, Note_on_c, 0, 59, 33
1, 139800, Note_on_c, 0, 59, 0
1, 139800, Note_on_c, 0, 57, 33
1, 139920, Note_on_c, 0, 57, 0
1, 139920, Note_on_c, 0, 55, 34
1, 140040, Note_on_c, 0, 55, 0
1, 140040, Note_on_c, 0, 53, 34
1, 140160, Tempo, 582016
1, 140160, Note_on_c, 0, 53, 0
1, 140160, Note_on_c, 0, 67, 0
1, 140160, Note_on_c, 0, 79, 0
1, 140160, Note_on_c, 0, 84, 50
1, 140160, Note_on_c, 0, 72, 50
1, 140160, Note_on_c, 0, 52, 28
1, 140179, Control_c, 0, 64, 0
1, 140238, Control_c, 0, 64, 127
1, 140280, Note_on_c, 0, 52, 0
1, 140280, Note_on_c, 0, 55, 30
1, 140400, Note_on_c, 0, 55, 0
1, 140400, Note_on_c, 0, 48, 32
1, 140520, Note_on_c, 0, 48, 0
1, 140520, Note_on_c, 0, 52, 34
1, 140640, Note_on_c, 0, 52, 0
1, 140640, Note_on_c, 0, 72, 0
1, 140640, Note_on_c, 0, 84, 0
1, 140640, Note_on_c, 0, 88, 47
1, 140640, Note_on_c, 0, 76, 47
1, 140640, Note_on_c, 0, 43, 32
1, 140760, Note_on_c, 0, 43, 0
1, 140760, Note_on_c, 0, 48, 32
1, 140880, Note_on_c, 0, 48, 0
1, 140880, Note_on_c, 0, 76, 0
1, 140880, Note_on_c, 0, 88, 0
1, 140880, Note_on_c, 0, 40, 33
1, 141000, Tempo, 604839
1, 141000, Note_on_c, 0, 40, 0
1, 141000, Note_on_c, 0, 43, 34
1, 141120, Tempo, 629459
1, 141120, Note_on_c, 0, 43, 0
1, 141120, Note_on_c, 0, 36, 50
1, 141138, Control_c, 0, 64, 0
1, 141191, Control_c, 0, 64, 127
1, 141240, Tempo, 604839
1, 141240, Note_on_c, 0, 36, 0
1, 141240, Note_on_c, 0, 43, 30
1, 141320, Tempo, 601866
1, 141360, Note_on_c, 0, 43, 0
1, 141360, Note_on_c, 0, 48, 32
1, 141400, Tempo, 598982
1, 141440, Tempo, 596066
1, 141480, Note_on_c, 0, 48, 0
1, 141480, Note_on_c, 0, 52, 34
1, 141520, Tempo, 593237
1, 141560, Tempo, 590319
1, 141600, Tempo, 590319
1, 141600, Note_on_c, 0, 52, 0
1, 141600, Note_on_c, 0, 91, 50
1, 141600, Note_on_c, 0, 79, 50
1, 141600, Note_on_c, 0, 55, 31
1, 141720, Note_on_c, 0, 55, 0
1, 141720, Note_on_c, 0, 48, 31
1, 141840, Note_on_c, 0, 48, 0
1, 141840, Note_on_c, 0, 79, 0
1, 141840, Note_on_c, 0, 91, 0
1, 141840, Note_on_c, 0, 52, 31
1, 141960, Note_on_c, 0, 52, 0
1, 141960, Note_on_c, 0, 55, 35
1, 142080, Tempo, 558347
1, 142080, Note_on_c, 0, 55, 0
1, 142080, Note_on_c, 0, 91, 54
1, 142080, Note_on_c, 0, 79, 54
1, 142080, Note_on_c, 0, 60, 30
1, 142200, Note_on_c, 0, 60, 0
1, 142200, Note_on_c, 0, 52, 31
1, 142320, Note_on_c, 0, 52, 0
1, 142320, Note_on_c, 0, 55, 33
1, 142440, Note_on_c, 0, 55, 0
1, 142440, Note_on_c, 0, 60, 36
1, 142560, Note_on_c, 0, 60, 0
1, 142560, Note_on_c, 0, 64, 33
1, 142680, Note_on_c, 0, 64, 0
1, 142680, Note_on_c, 0, 55, 33
1, 142800, Note_on_c, 0, 55, 0
1, 142800, Note_on_c, 0, 79, 0
1, 142800, Note_on_c, 0, 91, 0
1, 142800, Note_on_c, 0, 88, 47
1, 142800, Note_on_c, 0, 76, 47
1, 142800, Note_on_c, 0, 60, 33
1, 142920, Note_on_c, 0, 60, 0
1, 142920, Note_on_c, 0, 64, 33
1, 143040, Tempo, 543527
1, 143040, Note_on_c, 0, 64, 0
1, 143040, Note_on_c, 0, 76, 0
1, 143040, Note_on_c, 0, 88, 0
1, 143040, Note_on_c, 0, 86, 50
1, 143040, Note_on_c, 0, 74, 50
1, 143040, Note_on_c, 0, 65, 28
1, 143050, Control_c, 0, 64, 0
1, 143104, Control_c, 0, 64, 127
1, 143160, Note_on_c, 0, 65, 0
1, 143160, Note_on_c, 0, 64, 31
1, 143280, Note_on_c, 0, 64, 0
1, 143280, Note_on_c, 0, 62, 33
1, 143400, Note_on_c, 0, 62, 0
1, 143400, Note_on_c, 0, 60, 36
1, 143520, Tempo, 555761
1, 143520, Note_on_c, 0, 60, 0
1, 143520, Note_on_c, 0, 74, 0
1, 143520, Note_on_c, 0, 86, 0
1, 143520, Note_on_c, 0, 79, 41
1, 143520, Note_on_c, 0, 67, 41
1, 143520, Note_on_c, 0, 59, 33
1, 143640, Note_on_c, 0, 59, 0
1, 143640, Note_on_c, 0, 55, 33
1, 143760, Note_on_c, 0, 55, 0
1, 143760, Note_on_c, 0, 57, 34
1, 143880, Note_on_c, 0, 57, 0
1, 143880, Note_on_c, 0, 59, 34
1, 144000, Tempo, 582016
1, 144000, Note_on_c, 0, 59, 0
1, 144000, Note_on_c, 0, 67, 0
1, 144000, Note_on_c, 0, 79, 0
1, 144000, Note_on_c, 0, 84, 50
1, 144000, Note_on_c, 0, 72, 50
1, 144000, Note_on_c, 0, 60, 28
1, 144008, Control_c, 0, 64, 0
1, 144050, Control_c, 0, 64, 127
1, 144120, Note_on_c, 0, 60, 0
1, 144120, Note_on_c, 0, 59, 30
1, 144240, Note_on_c, 0, 59, 0
1, 144240, Note_on_c, 0, 72, 0
1, 144240, Note_on_c, 0, 84, 0
1, 144240, Note_on_c, 0, 57, 32
1, 144360, Note_on_c, 0, 57, 0
1, 144360, Note_on_c, 0, 55, 34
1, 144480, Note_on_c, 0, 55, 0
1, 144480, Note_on_c, 0, 53, 32
1, 144600, Note_on_c, 0, 53, 0
1, 144600, Note_on_c, 0, 52, 32
1, 144720, Note_on_c, 0, 52, 0
1, 144720, Note_on_c, 0, 50, 33
1, 144840, Tempo, 601866
1, 144840, Note_on_c, 0, 50, 0
1, 144840, Note_on_c, 0, 48, 35
1, 144960, Tempo, 629459
1, 144960, Note_on_c, 0, 48, 0
1, 144960, Note_on_c, 0, 43, 45
1, 144967, Control_c, 0, 64, 0
1, 145059, Control_c, 0, 64, 127
1, 145080, Tempo, 610811
1, 145080, Note_on_c, 0, 43, 0
1, 145080, Note_on_c, 0, 47, 30
1, 145160, Tempo, 607841
1, 145200, Tempo, 604839
1, 145200, Note_on_c, 0, 47, 0
1, 145200, Note_on_c, 0, 50, 32
1, 145240, Tempo, 601866
1, 145280, Tempo, 598982
1, 145320, Tempo, 596066
1, 145320, Note_on_c, 0, 50, 0
1, 145320, Note_on_c, 0, 55, 34
1, 145360, Tempo, 593237
1, 145400, Tempo, 590319
1, 145440, Tempo, 590319
1, 145440, Note_on_c, 0, 55, 0
1, 145440, Note_on_c, 0, 89, 50
1, 145440, Note_on_c, 0, 77, 50
1, 145440, Note_on_c, 0, 47, 31
1, 145560, Note_on_c, 0, 47, 0
1, 145560, Note_on_c, 0, 50, 31
1, 145680, Note_on_c, 0, 50, 0
1, 145680, Note_on_c, 0, 77, 0
1, 145680, Note_on_c, 0, 89, 0
1, 145680, Note_on_c, 0, 55, 31
1, 145800, Note_on_c, 0, 55, 0
1, 145800, Note_on_c, 0, 59, 35
1, 145920, Tempo, 558347
1, 145920, Note_on_c, 0, 59, 0
1, 145920, Note_on_c, 0, 89, 54
1, 145920, Note_on_c, 0, 77, 54
1, 145920, Note_on_c, 0, 50, 30
1, 146040, Note_on_c, 0, 50, 0
1, 146040, Note_on_c, 0, 55, 31
1, 146160, Note_on_c, 0, 55, 0
1, 146160, Note_on_c, 0, 59, 33
1, 146280, Note_on_c, 0, 59, 0
1, 146280, Note_on_c, 0, 62, 36
1, 146400, Note_on_c, 0, 62, 0
1, 146400, Note_on_c, 0, 55, 33
1, 146520, Note_on_c, 0, 55, 0
1, 146520, Note_on_c, 0, 59, 33
1, 146640, Note_on_c, 0, 59, 0
1, 146640, Note_on_c, 0, 77, 0
1, 146640, Note_on_c, 0, 89, 0
1, 146640, Note_on_c, 0, 86, 47
1, 146640, Note_on_c, 0, 74, 47
1, 146640, Note_on_c, 0, 62, 33
1, 146760, Note_on_c, 0, 62, 0
1, 146760, Note_on_c, 0, 67, 36
1, 146880, Tempo, 543527
1, 146880, Note_on_c, 0, 67, 0
1, 146880, Note_on_c, 0, 74, 0
1, 146880, Note_on_c, 0, 86, 0
1, 146880, Note_on_c, 0, 88, 50
1, 146880, Note_on_c, 0, 76, 50
1, 146880, Note_on_c, 0, 55, 28
1, 146898, Control_c, 0, 64, 0
1, 146972, Control_c, 0, 64, 127
1, 147000, Note_on_c, 0, 55, 0
1, 147000, Note_on_c, 0, 60, 31
1, 147120, Note_on_c, 0, 60, 0
1, 147120, Note_on_c, 0, 67, 33
1, 147240, Note_on_c, 0, 67, 0
1, 147240, Note_on_c, 0, 60, 36
1, 147360, Tempo, 555761
1, 147360, Note_on_c, 0, 60, 0
1, 147360, Note_on_c, 0, 76, 0
1, 147360, Note_on_c, 0, 88, 0
1, 147360, Note_on_c, 0, 84, 41
1, 147360, Note_on_c, 0, 72, 41
1, 147360, Note_on_c, 0, 55, 28
1, 147480, Note_on_c, 0, 55, 0
1, 147480, Note_on_c, 0, 64, 31
1, 147600, Note_on_c, 0, 64, 0
1, 147600, Note_on_c, 0, 67, 33
1, 147720, Note_on_c, 0, 67, 0
1, 147720, Note_on_c, 0, 64, 36
1, 147840, Tempo, 582016
1, 147840, Note_on_c, 0, 64, 0
1, 147840, Note_on_c, 0, 72, 0
1, 147840, Note_on_c, 0, 84, 0
1, 147840, Note_on_c, 0, 83, 50
1, 147840, Note_on_c, 0, 71, 50
1, 147840, Note_on_c, 0, 55, 28
1, 147850, Control_c, 0, 64, 0
1, 147911, Control_c, 0, 64, 127
1, 147960, Note_on_c, 0, 55, 0
1, 147960, Note_on_c, 0, 62, 30
1, 148080, Note_on_c, 0, 62, 0
1, 148080, Note_on_c, 0, 67, 32
1, 148200, Note_on_c, 0, 67, 0
1, 148200, Note_on_c, 0, 62, 36
1, 148320, Note_on_c, 0, 62, 0
1, 148320, Note_on_c, 0, 71, 0
1, 148320, Note_on_c, 0, 83, 0
1, 148320, Note_on_c, 0, 86, 47
1, 148320, Note_on_c, 0, 74, 47
1, 148320, Note_on_c, 0, 55, 28
1, 148440, Note_on_c, 0, 55, 0
1, 148440, Note_on_c, 0, 59, 30
1, 148560, Note_on_c, 0, 59, 0
1, 148560, Note_on_c, 0, 74, 0
1, 148560, Note_on_c, 0, 86, 0
1, 148560, Note_on_c, 0, 67, 32
1, 148680, Tempo, 601866
1, 148680, Note_on_c, 0, 67, 0
1, 148680, Note_on_c, 0, 59, 35
1, 148800, Tempo, 629459
1, 148800, Note_on_c, 0, 59, 0
1, 148800, Note_on_c, 0, 43, 48
1, 148810, Control_c, 0, 64, 0
1, 148920, Tempo, 610811
1, 148920, Note_on_c, 0, 43, 0
1, 148920, Note_on_c, 0, 47, 30
1, 148934, Control_c, 0, 64, 127
1, 149000, Tempo, 607841
1, 149040, Tempo, 604839
1, 149040, Note_on_c, 0, 47, 0
1, 149040, Note_on_c, 0, 50, 32
1, 149080, Tempo, 601866
1, 149120, Tempo, 598982
1, 149160, Tempo, 596066
1, 149160, Note_on_c, 0, 50, 0
1, 149160, Note_on_c, 0, 55, 34
1, 149200, Tempo, 593237
1, 149240, Tempo, 590319
1, 149280, Tempo, 590319
1, 149280, Note_on_c, 0, 55, 0
1, 149280, Note_on_c, 0, 89, 50
1, 149280, Note_on_c, 0, 77, 50
1, 149280, Note_on_c, 0, 47, 31
1, 149400, Note_on_c, 0, 47, 0
1, 149400, Note_on_c, 0, 50, 31
1, 149520, Note_on_c, 0, 50, 0
1, 149520, Note_on_c, 0, 77, 0
1, 149520, Note_on_c, 0, 89, 0
1, 149520, Note_on_c, 0, 55, 31
1, 149640, Note_on_c, 0, 55, 0
1, 149640, Note_on_c, 0, 59, 35
1, 149760, Tempo, 558347
1, 149760, Note_on_c, 0, 59, 0
1, 149760, Note_on_c, 0, 89, 54
1, 149760, Note_on_c, 0, 77, 54
1, 149760, Note_on_c, 0, 50, 30
1, 149880, Note_on_c, 0, 50, 0
1, 149880, Note_on_c, 0, 55, 31
1, 150000, Note_on_c, 0, 55, 0
1, 150000, Note_on_c, 0, 59, 33
1, 150120, Note_on_c, 0, 59, 0
1, 150120, Note_on_c, 0, 62, 36
1, 150240, Note_on_c, 0, 62, 0
1, 150240, Note_on_c, 0, 55, 33
1, 150360, Note_on_c, 0, 55, 0
1, 150360, Note_on_c, 0, 59, 33
1, 150480, Note_on_c, 0, 59, 0
1, 150480, Note_on_c, 0, 77, 0
1, 150480, Note_on_c, 0, 89, 0
1, 150480, Note_on_c, 0, 86, 47
1, 150480, Note_on_c, 0, 74, 47
1, 150480, Note_on_c, 0, 62, 33
1, 150600, Note_on_c, 0, 62, 0
1, 150600, Note_on_c, 0, 67, 36
1, 150720, Tempo, 543527
1, 150720, Note_on_c, 0, 67, 0
1, 150720, Note_on_c, 0, 74, 0
1, 150720, Note_on_c, 0, 86, 0
1, 150720, Note_on_c, 0, 87, 50
1, 150720, Note_on_c, 0, 75, 50
1, 150720, Note_on_c, 0, 55, 28
1, 150730, Control_c, 0, 64, 0
1, 150795, Control_c, 0, 64, 127
1, 150840, Note_on_c, 0, 55, 0
1, 150840, Note_on_c, 0, 60, 31
1, 150960, Note_on_c, 0, 60, 0
1, 150960, Note_on_c, 0, 67, 33
1, 151080, Note_on_c, 0, 67, 0
1, 151080, Note_on_c, 0, 60, 35
1, 151200, Tempo, 555761
1, 151200, Note_on_c, 0, 60, 0
1, 151200, Note_on_c, 0, 75, 0
1, 151200, Note_on_c, 0, 87, 0
1, 151200, Note_on_c, 0, 84, 41
1, 151200, Note_on_c, 0, 72, 41
1, 151200, Note_on_c, 0, 55, 28
1, 151320, Note_on_c, 0, 55, 0
1, 151320, Note_on_c, 0, 63, 31
1, 151440, Note_on_c, 0, 63, 0
1, 151440, Note_on_c, 0, 67, 33
1, 151560, Note_on_c, 0, 67, 0
1, 151560, Note_on_c, 0, 63, 35
1, 151680, Tempo, 582016
1, 151680, Note_on_c, 0, 63, 0
1, 151680, Note_on_c, 0, 72, 0
1, 151680, Note_on_c, 0, 84, 0
1, 151680, Note_on_c, 0, 83, 50
1, 151680, Note_on_c, 0, 71, 50
1, 151680, Note_on_c, 0, 55, 28
1, 151697, Control_c, 0, 64, 0
1, 151744, Control_c, 0, 64, 127
1, 151800, Note_on_c, 0, 55, 0
1, 151800, Note_on_c, 0, 62, 30
1, 151920, Note_on_c, 0, 62, 0
1, 151920, Note_on_c, 0, 67, 32
1, 152040, Note_on_c, 0, 67, 0
1, 152040, Note_on_c, 0, 62, 35
1, 152160, Note_on_c, 0, 62, 0
1, 152160, Note_on_c, 0, 71, 0
1, 152160, Note_on_c, 0, 83, 0
1, 152160, Note_on_c, 0, 86, 47
1, 152160, Note_on_c, 0, 74, 47
1, 152160, Note_on_c, 0, 55, 28
1, 152280, Note_on_c, 0, 55, 0
1, 152280, Note_on_c, 0, 59, 30
1, 152400, Note_on_c, 0, 59, 0
1, 152400, Note_on_c, 0, 67, 32
1, 152520, Note_on_c, 0, 67, 0
1, 152520, Note_on_c, 0, 59, 35
1, 152640, Tempo, 543527
1, 152640, Note_on_c, 0, 59, 0
1, 152640, Note_on_c, 0, 74, 0
1, 152640, Note_on_c, 0, 86, 0
1, 152640, Note_on_c, 0, 88, 50
1, 152640, Note_on_c, 0, 76, 50
1, 152640, Note_on_c, 0, 55, 28
1, 152648, Control_c, 0, 64, 0
1, 152739, Control_c, 0, 64, 127
1, 152760, Note_on_c, 0, 55, 0
1, 152760, Note_on_c, 0, 60, 31
1, 152880, Note_on_c, 0, 60, 0
1, 152880, Note_on_c, 0, 67, 33
1, 153000, Note_on_c, 0, 67, 0
1, 153000, Note_on_c, 0, 60, 35
1, 153120, Tempo, 555761
1, 153120, Note_on_c, 0, 60, 0
1, 153120, Note_on_c, 0, 76, 0
1, 153120, Note_on_c, 0, 88, 0
1, 153120, Note_on_c, 0, 84, 42
1, 153120, Note_on_c, 0, 72, 42
1, 153120, Note_on_c, 0, 55, 28
1, 153240, Note_on_c, 0, 55, 0
1, 153240, Note_on_c, 0, 64, 32
1, 153360, Note_on_c, 0, 64, 0
1, 153360, Note_on_c, 0, 67, 34
1, 153480, Note_on_c, 0, 67, 0
1, 153480, Note_on_c, 0, 64, 37
1, 153600, Tempo, 582016
1, 153600, Note_on_c, 0, 64, 0
1, 153600, Note_on_c, 0, 72, 0
1, 153600, Note_on_c, 0, 84, 0
1, 153600, Note_on_c, 0, 83, 53
1, 153600, Note_on_c, 0, 71, 53
1, 153600, Note_on_c, 0, 55, 29
1, 153618, Control_c, 0, 64, 0
1, 153678, Control_c, 0, 64, 127
1, 153720, Note_on_c, 0, 55, 0
1, 153720, Note_on_c, 0, 62, 32
1, 153840, Note_on_c, 0, 62, 0
1, 153840, Note_on_c, 0, 67, 34
1, 153960, Note_on_c, 0, 67, 0
1, 153960, Note_on_c, 0, 62, 38
1, 154080, Note_on_c, 0, 62, 0
1, 154080, Note_on_c, 0, 71, 0
1, 154080, Note_on_c, 0, 83, 0
1, 154080, Note_on_c, 0, 86, 52
1, 154080, Note_on_c, 0, 74, 52
1, 154080, Note_on_c, 0, 55, 31
1, 154200, Note_on_c, 0, 55, 0
1, 154200, Note_on_c, 0, 59, 33
1, 154320, Note_on_c, 0, 59, 0
1, 154320, Note_on_c, 0, 67, 36
1, 154440, Note_on_c, 0, 67, 0
1, 154440, Note_on_c, 0, 59, 39
1, 154560, Tempo, 543527
1, 154560, Note_on_c, 0, 59, 0
1, 154560, Note_on_c, 0, 74, 0
1, 154560, Note_on_c, 0, 86, 0
1, 154560, Note_on_c, 0, 87, 50
1, 154560, Note_on_c, 0, 75, 50
1, 154560, Note_on_c, 0, 55, 28
1, 154575, Control_c, 0, 64, 0
1, 154617, Control_c, 0, 64, 127
1, 154680, Note_on_c, 0, 55, 0
1, 154680, Note_on_c, 0, 60, 31
1, 154800, Note_on_c, 0, 60, 0
1, 154800, Note_on_c, 0, 67, 33
1, 154920, Note_on_c, 0, 67, 0
1, 154920, Note_on_c, 0, 60, 35
1, 155040, Tempo, 555761
1, 155040, Note_on_c, 0, 60, 0
1, 155040, Note_on_c, 0, 75, 0
1, 155040, Note_on_c, 0, 87, 0
1, 155040, Note_on_c, 0, 84, 41
1, 155040, Note_on_c, 0, 72, 41
1, 155040, Note_on_c, 0, 55, 28
1, 155160, Note_on_c, 0, 55, 0
1, 155160, Note_on_c, 0, 60, 31
1, 155280, Note_on_c, 0, 60, 0
1, 155280, Note_on_c, 0, 63, 33
1, 155400, Note_on_c, 0, 63, 0
1, 155400, Note_on_c, 0, 60, 35
1, 155520, Tempo, 582016
1, 155520, Note_on_c, 0, 60, 0
1, 155520, Note_on_c, 0, 72, 0
1, 155520, Note_on_c, 0, 84, 0
1, 155520, Note_on_c, 0, 79, 50
1, 155520, Note_on_c, 0, 55, 28
1, 155532, Control_c, 0, 64, 0
1, 155595, Control_c, 0, 64, 127
1, 155640, Note_on_c, 0, 55, 0
1, 155640, Note_on_c, 0, 59, 30
1, 155760, Note_on_c, 0, 59, 0
1, 155760, Note_on_c, 0, 62, 32
1, 155880, Note_on_c, 0, 62, 0
1, 155880, Note_on_c, 0, 59, 35
1, 156000, Tempo, 576535
1, 156000, Note_on_c, 0, 59, 0
1, 156000, Note_on_c, 0, 79, 0
1, 156000, Note_on_c, 0, 79, 47
1, 156000, Note_on_c, 0, 55, 28
1, 156018, Control_c, 0, 64, 0
1, 156086, Control_c, 0, 64, 127
1, 156120, Note_on_c, 0, 55, 0
1, 156120, Note_on_c, 0, 60, 30
1, 156240, Note_on_c, 0, 60, 0
1, 156240, Note_on_c, 0, 63, 32
1, 156360, Note_on_c, 0, 63, 0
1, 156360, Note_on_c, 0, 60, 35
1, 156480, Tempo, 582016
1, 156480, Note_on_c, 0, 60, 0
1, 156480, Note_on_c, 0, 79, 0
1, 156480, Note_on_c, 0, 81, 37
1, 156480, Note_on_c, 0, 55, 47
1, 156498, Control_c, 0, 64, 0
1, 156530, Control_c, 0, 64, 127
1, 156540, Note_on_c, 0, 55, 0
1, 156560, Note_on_c, 0, 81, 0
1, 156560, Note_on_c, 0, 79, 37
1, 156600, Note_on_c, 0, 59, 30
1, 156640, Note_on_c, 0, 79, 0
1, 156640, Note_on_c, 0, 81, 37
1, 156720, Note_on_c, 0, 81, 0
1, 156720, Note_on_c, 0, 59, 0
1, 156720, Note_on_c, 0, 79, 37
1, 156720, Note_on_c, 0, 62, 31
1, 156800, Note_on_c, 0, 79, 0
1, 156800, Note_on_c, 0, 81, 38
1, 156840, Note_on_c, 0, 62, 0
1, 156840, Note_on_c, 0, 59, 32
1, 156880, Note_on_c, 0, 81, 0
1, 156880, Note_on_c, 0, 79, 38
1, 156960, Tempo, 579262
1, 156960, Note_on_c, 0, 79, 0
1, 156960, Note_on_c, 0, 59, 0
1, 156960, Note_on_c, 0, 81, 39
1, 156960, Note_on_c, 0, 55, 53
1, 156970, Control_c, 0, 64, 0
1, 157013, Control_c, 0, 64, 127
1, 157020, Note_on_c, 0, 55, 0
1, 157040, Note_on_c, 0, 81, 0
1, 157040, Note_on_c, 0, 79, 39
1, 157080, Note_on_c, 0, 60, 32
1, 157120, Note_on_c, 0, 79, 0
1, 157120, Note_on_c, 0, 81, 39
1, 157200, Note_on_c, 0, 81, 0
1, 157200, Note_on_c, 0, 60, 0
1, 157200, Note_on_c, 0, 79, 39
1, 157200, Note_on_c, 0, 64, 33
1, 157280, Note_on_c, 0, 79, 0
1, 157280, Note_on_c, 0, 81, 40
1, 157320, Note_on_c, 0, 64, 0
1, 157320, Note_on_c, 0, 60, 34
1, 157360, Tempo, 576535
1, 157360, Note_on_c, 0, 81, 0
1, 157360, Note_on_c, 0, 79, 40
1, 157440, Note_on_c, 0, 79, 0
1, 157440, Note_on_c, 0, 60, 0
1, 157440, Note_on_c, 0, 81, 41
1, 157440, Note_on_c, 0, 55, 57
1, 157458, Control_c, 0, 64, 0
1, 157476, Control_c, 0, 64, 127
1, 157500, Note_on_c, 0, 55, 0
1, 157520, Note_on_c, 0, 81, 0
1, 157520, Note_on_c, 0, 79, 41
1, 157560, Note_on_c, 0, 59, 35
1, 157600, Tempo, 573888
1, 157600, Note_on_c, 0, 79, 0
1, 157600, Note_on_c, 0, 81, 41
1, 157680, Note_on_c, 0, 81, 0
1, 157680, Note_on_c, 0, 59, 0
1, 157680, Note_on_c, 0, 79, 43
1, 157680, Note_on_c, 0, 62, 38
1, 157760, Note_on_c, 0, 79, 0
1, 157760, Note_on_c, 0, 81, 43
1, 157800, Tempo, 571211
1, 157800, Note_on_c, 0, 62, 0
1, 157800, Note_on_c, 0, 59, 38
1, 157840, Note_on_c, 0, 81, 0
1, 157840, Note_on_c, 0, 79, 43
1, 157920, Note_on_c, 0, 79, 0
1, 157920, Note_on_c, 0, 59, 0
1, 157920, Note_on_c, 0, 81, 44
1, 157920, Note_on_c, 0, 55, 64
1, 157934, Control_c, 0, 64, 0
1, 157973, Control_c, 0, 64, 127
1, 157980, Note_on_c, 0, 55, 0
1, 158000, Tempo, 568613
1, 158000, Note_on_c, 0, 81, 0
1, 158000, Note_on_c, 0, 79, 44
1, 158040, Note_on_c, 0, 57, 39
1, 158080, Note_on_c, 0, 79, 0
1, 158080, Note_on_c, 0, 81, 45
1, 158160, Note_on_c, 0, 81, 0
1, 158160, Note_on_c, 0, 57, 0
1, 158160, Note_on_c, 0, 79, 45
1, 158160, Note_on_c, 0, 60, 41
1, 158200, Tempo, 565984
1, 158240, Note_on_c, 0, 79, 0
1, 158240, Note_on_c, 0, 81, 45
1, 158280, Note_on_c, 0, 60, 0
1, 158280, Note_on_c, 0, 57, 43
1, 158320, Note_on_c, 0, 81, 0
1, 158320, Note_on_c, 0, 79, 45
1, 158400, Tempo, 563380
1, 158400, Note_on_c, 0, 79, 0
1, 158400, Note_on_c, 0, 57, 0
1, 158400, Note_on_c, 0, 81, 47
1, 158400, Note_on_c, 0, 55, 71
1, 158413, Control_c, 0, 64, 0
1, 158440, Tempo, 560852
1, 158453, Control_c, 0, 64, 127
1, 158460, Tempo, 558347
1, 158460, Note_on_c, 0, 55, 0
1, 158480, Tempo, 553352
1, 158480, Note_on_c, 0, 81, 0
1, 158480, Note_on_c, 0, 79, 47
1, 158500, Tempo, 550812
1, 158520, Note_on_c, 0, 59, 47
1, 158540, Tempo, 558347
1, 158560, Tempo, 563380
1, 158560, Note_on_c, 0, 79, 0
1, 158560, Note_on_c, 0, 81, 47
1, 158580, Tempo, 565984
1, 158600, Tempo, 568613
1, 158640, Tempo, 565984
1, 158640, Note_on_c, 0, 81, 0
1, 158640, Note_on_c, 0, 59, 0
1, 158640, Note_on_c, 0, 79, 47
1, 158640, Note_on_c, 0, 57, 49
1, 158660, Tempo, 553352
1, 158720, Note_on_c, 0, 79, 0
1, 158720, Note_on_c, 0, 81, 47
1, 158740, Tempo, 555761
1, 158760, Tempo, 563380
1, 158760, Note_on_c, 0, 57, 0
1, 158760, Note_on_c, 0, 55, 50
1, 158780, Tempo, 565984
1, 158800, Tempo, 568613
1, 158800, Note_on_c, 0, 81, 0
1, 158800, Note_on_c, 0, 79, 48
1, 158880, Tempo, 558347
1, 158880, Note_on_c, 0, 79, 0
1, 158880, Note_on_c, 0, 55, 0
1, 158880, Note_on_c, 0, 81, 48
1, 158880, Note_on_c, 0, 53, 76
1, 158892, Control_c, 0, 64, 0
1, 158900, Tempo, 555761
1, 158937, Control_c, 0, 64, 127
1, 158940, Note_on_c, 0, 53, 0
1, 158960, Note_on_c, 0, 81, 0
1, 158960, Note_on_c, 0, 79, 48
1, 158980, Tempo, 558347
1, 159000, Tempo, 563380
1, 159000, Note_on_c, 0, 57, 55
1, 159020, Tempo, 565984
1, 159040, Tempo, 571211
1, 159040, Note_on_c, 0, 79, 0
1, 159040, Note_on_c, 0, 81, 49
1, 159080, Tempo, 568613
1, 159100, Tempo, 560852
1, 159120, Tempo, 558347
1, 159120, Note_on_c, 0, 81, 0
1, 159120, Note_on_c, 0, 57, 0
1, 159120, Note_on_c, 0, 79, 49
1, 159120, Note_on_c, 0, 55, 58
1, 159140, Tempo, 555761
1, 159200, Tempo, 553352
1, 159200, Note_on_c, 0, 79, 0
1, 159200, Note_on_c, 0, 81, 50
1, 159220, Tempo, 555761
1, 159240, Tempo, 563380
1, 159240, Note_on_c, 0, 55, 0
1, 159240, Note_on_c, 0, 53, 62
1, 159260, Tempo, 565984
1, 159280, Tempo, 568613
1, 159280, Note_on_c, 0, 81, 0
1, 159280, Note_on_c, 0, 79, 51
1, 159360, Note_on_c, 0, 79, 0
1, 159360, Note_on_c, 0, 53, 0
1, 159360, Note_on_c, 0, 81, 51
1, 159360, Note_on_c, 0, 52, 85
1, 159378, Control_c, 0, 64, 0
1, 159380, Tempo, 565984
1, 159399, Control_c, 0, 64, 127
1, 159400, Tempo, 560852
1, 159420, Tempo, 555761
1, 159420, Note_on_c, 0, 52, 0
1, 159440, Note_on_c, 0, 81, 0
1, 159440, Note_on_c, 0, 79, 52
1, 159480, Note_on_c, 0, 55, 63
1, 159500, Tempo, 558347
1, 159520, Note_on_c, 0, 79, 0
1, 159520, Note_on_c, 0, 81, 52
1, 159540, Tempo, 560852
1, 159560, Tempo, 565984
1, 159580, Tempo, 563380
1, 159600, Tempo, 555761
1, 159600, Note_on_c, 0, 81, 0
1, 159600, Note_on_c, 0, 55, 0
1, 159600, Note_on_c, 0, 79, 52
1, 159600, Note_on_c, 0, 53, 68
1, 159680, Note_on_c, 0, 79, 0
1, 159680, Note_on_c, 0, 81, 54
1, 159700, Tempo, 558347
1, 159720, Tempo, 563380
1, 159720, Note_on_c, 0, 53, 0
1, 159720, Note_on_c, 0, 52, 70
1, 159760, Tempo, 563380
1, 159760, Note_on_c, 0, 81, 0
1, 159760, Note_on_c, 0, 79, 54
1, 159840, Tempo, 563380
1, 159840, Note_on_c, 0, 79, 0
1, 159840, Note_on_c, 0, 52, 0
1, 159840, Note_on_c, 0, 81, 54
1, 159840, Note_on_c, 0, 50, 90
1, 159856, Control_c, 0, 64, 0
1, 159890, Control_c, 0, 64, 127
1, 159900, Note_on_c, 0, 50, 0
1, 159920, Tempo, 565984
1, 159920, Note_on_c, 0, 81, 0
1, 159920, Note_on_c, 0, 79, 55
1, 159960, Note_on_c, 0, 53, 72
1, 160000, Tempo, 568613
1, 160000, Note_on_c, 0, 79, 0
1, 160000, Note_on_c, 0, 81, 55
1, 160040, Tempo, 571211
1, 160080, Note_on_c, 0, 81, 0
1, 160080, Note_on_c, 0, 53, 0
1, 160080, Note_on_c, 0, 79, 55
1, 160080, Note_on_c, 0, 52, 73
1, 160120, Tempo, 573888
1, 160160, Tempo, 576535
1, 160160, Note_on_c, 0, 79, 0
1, 160160, Note_on_c, 0, 81, 56
1, 160200, Note_on_c, 0, 52, 0
1, 160200, Note_on_c, 0, 50, 79
1, 160240, Tempo, 579262
1, 160240, Note_on_c, 0, 81, 0
1, 160240, Note_on_c, 0, 79, 56
1, 160280, Tempo, 582016
1, 160320, Tempo, 579262
1, 160320, Note_on_c, 0, 79, 0
1, 160320, Note_on_c, 0, 50, 0
1, 160320, Note_on_c, 0, 81, 48
1, 160320, Note_on_c, 0, 36, 94
1, 160320, Note_on_c, 0, 48, 94
1, 160334, Control_c, 0, 64, 0
1, 160340, Tempo, 568613
1, 160360, Tempo, 563380
1, 160366, Control_c, 0, 64, 127
1, 160380, Tempo, 558347
1, 160400, Note_on_c, 0, 81, 0
1, 160400, Note_on_c, 0, 79, 35
1, 160440, Tempo, 563380
1, 160440, Note_on_c, 0, 50, 56
1, 160460, Tempo, 568613
1, 160480, Note_on_c, 0, 79, 0
1, 160480, Note_on_c, 0, 81, 38
1, 160500, Tempo, 571211
1, 160500, Note_on_c, 0, 50, 0
1, 160500, Note_on_c, 0, 52, 57
1, 160520, Tempo, 568613
1, 160540, Tempo, 563380
1, 160560, Tempo, 560852
1, 160560, Note_on_c, 0, 52, 0
1, 160560, Note_on_c, 0, 81, 0
1, 160560, Note_on_c, 0, 48, 0
1, 160560, Note_on_c, 0, 36, 0
1, 160560, Note_on_c, 0, 79, 35
1, 160560, Note_on_c, 0, 53, 60
1, 160580, Tempo, 558347
1, 160600, Tempo, 550812
1, 160620, Tempo, 548346
1, 160620, Note_on_c, 0, 53, 0
1, 160620, Note_on_c, 0, 55, 60
1, 160640, Tempo, 555761
1, 160640, Note_on_c, 0, 79, 0
1, 160640, Note_on_c, 0, 81, 38
1, 160660, Tempo, 558347
1, 160680, Note_on_c, 0, 55, 0
1, 160680, Note_on_c, 0, 57, 62
1, 160700, Tempo, 560852
1, 160720, Note_on_c, 0, 81, 0
1, 160720, Note_on_c, 0, 79, 36
1, 160740, Note_on_c, 0, 57, 0
1, 160740, Note_on_c, 0, 59, 63
1, 160780, Tempo, 558347
1, 160800, Tempo, 555761
1, 160800, Note_on_c, 0, 59, 0
1, 160800, Note_on_c, 0, 79, 0
1, 160800, Note_on_c, 0, 81, 40
1, 160800, Note_on_c, 0, 91, 89
1, 160800, Note_on_c, 0, 60, 63
1, 160820, Tempo, 550812
1, 160840, Tempo, 541174
1, 160880, Note_on_c, 0, 81, 0
1, 160880, Note_on_c, 0, 79, 36
1, 160900, Tempo, 546001
1, 160920, Tempo, 550812
1, 160920, Note_on_c, 0, 60, 0
1, 160920, Note_on_c, 0, 62, 65
1, 160940, Tempo, 553352
1, 160960, Tempo, 555761
1, 160960, Note_on_c, 0, 79, 0
1, 160960, Note_on_c, 0, 81, 40
1, 160980, Note_on_c, 0, 62, 0
1, 160980, Note_on_c, 0, 64, 66
1, 161020, Tempo, 548346
1, 161040, Tempo, 531821
1, 161040, Note_on_c, 0, 64, 0
1, 161040, Note_on_c, 0, 81, 0
1, 161040, Note_on_c, 0, 91, 0
1, 161040, Note_on_c, 0, 79, 36
1, 161040, Note_on_c, 0, 65, 67
1, 161060, Tempo, 525026
1, 161100, Tempo, 527241
1, 161100, Note_on_c, 0, 65, 0
1, 161100, Note_on_c, 0, 67, 69
1, 161120, Tempo, 541174
1, 161120, Note_on_c, 0, 79, 0
1, 161120, Note_on_c, 0, 81, 40
1, 161140, Tempo, 546001
1, 161160, Tempo, 555761
1, 161160, Note_on_c, 0, 67, 0
1, 161160, Note_on_c, 0, 69, 70
1, 161180, Tempo, 546001
1, 161200, Tempo, 543527
1, 161200, Note_on_c, 0, 81, 0
1, 161200, Note_on_c, 0, 79, 36
1, 161220, Note_on_c, 0, 69, 0
1, 161220, Note_on_c, 0, 71, 71
1, 161280, Note_on_c, 0, 71, 0
1, 161280, Note_on_c, 0, 79, 0
1, 161280, Note_on_c, 0, 81, 40
1, 161280, Note_on_c, 0, 91, 90
1, 161280, Note_on_c, 0, 72, 74
1, 161300, Tempo, 541174
1, 161320, Tempo, 548346
1, 161340, Tempo, 546001
1, 161340, Note_on_c, 0, 72, 0
1, 161360, Tempo, 541174
1, 161360, Note_on_c, 0, 81, 0
1, 161360, Note_on_c, 0, 79, 37
1, 161400, Tempo, 546001
1, 161400, Note_on_c, 0, 71, 71
1, 161420, Tempo, 550812
1, 161440, Tempo, 555761
1, 161440, Note_on_c, 0, 79, 0
1, 161440, Note_on_c, 0, 81, 40
1, 161460, Tempo, 565984
1, 161460, Note_on_c, 0, 71, 0
1, 161500, Tempo, 560852
1, 161520, Tempo, 558347
1, 161520, Note_on_c, 0, 81, 0
1, 161520, Note_on_c, 0, 79, 36
1, 161520, Note_on_c, 0, 69, 71
1, 161540, Tempo, 553352
1, 161560, Tempo, 550812
1, 161580, Tempo, 548346
1, 161580, Note_on_c, 0, 69, 0
1, 161600, Tempo, 550812
1, 161600, Note_on_c, 0, 79, 0
1, 161600, Note_on_c, 0, 81, 40
1, 161620, Tempo, 555761
1, 161640, Tempo, 558347
1, 161640, Note_on_c, 0, 67, 71
1, 161660, Tempo, 560852
1, 161680, Note_on_c, 0, 81, 0
1, 161680, Note_on_c, 0, 79, 36
1, 161700, Note_on_c, 0, 67, 0
1, 161720, Tempo, 558347
1, 161760, Tempo, 555761
1, 161760, Note_on_c, 0, 79, 0
1, 161760, Note_on_c, 0, 81, 40
1, 161760, Note_on_c, 0, 65, 72
1, 161780, Tempo, 553352
1, 161800, Tempo, 548346
1, 161820, Tempo, 546001
1, 161820, Note_on_c, 0, 65, 0
1, 161840, Note_on_c, 0, 81, 0
1, 161840, Note_on_c, 0, 79, 35
1, 161860, Tempo, 548346
1, 161880, Tempo, 553352
1, 161880, Note_on_c, 0, 64, 69
1, 161900, Tempo, 560852
1, 161920, Tempo, 565984
1, 161920, Note_on_c, 0, 79, 0
1, 161920, Note_on_c, 0, 81, 38
1, 161940, Note_on_c, 0, 64, 0
1, 162000, Tempo, 548346
1, 162000, Note_on_c, 0, 81, 0
1, 162000, Note_on_c, 0, 91, 0
1, 162000, Note_on_c, 0, 79, 33
1, 162000, Note_on_c, 0, 88, 85
1, 162000, Note_on_c, 0, 62, 69
1, 162020, Tempo, 546001
1, 162060, Note_on_c, 0, 62, 0
1, 162080, Note_on_c, 0, 79, 0
1, 162080, Note_on_c, 0, 81, 38
1, 162100, Tempo, 555761
1, 162120, Tempo, 558347
1, 162120, Note_on_c, 0, 60, 67
1, 162160, Note_on_c, 0, 81, 0
1, 162160, Note_on_c, 0, 79, 34
1, 162180, Tempo, 553352
1, 162180, Note_on_c, 0, 60, 0
1, 162200, Tempo, 550812
1, 162240, Tempo, 543527
1, 162240, Note_on_c, 0, 79, 0
1, 162240, Note_on_c, 0, 88, 0
1, 162240, Note_on_c, 0, 81, 38
1, 162240, Note_on_c, 0, 86, 90
1, 162240, Note_on_c, 0, 59, 73
1, 162252, Control_c, 0, 64, 0
1, 162260, Tempo, 541174
1, 162280, Tempo, 538793
1, 162283, Control_c, 0, 64, 127
1, 162300, Tempo, 536481
1, 162300, Note_on_c, 0, 59, 0
1, 162320, Note_on_c, 0, 81, 0
1, 162320, Note_on_c, 0, 79, 34
1, 162360, Tempo, 531821
1, 162360, Note_on_c, 0, 60, 69
1, 162380, Tempo, 534140
1, 162400, Tempo, 541174
1, 162400, Note_on_c, 0, 79, 0
1, 162400, Note_on_c, 0, 81, 36
1, 162420, Tempo, 546001
1, 162420, Note_on_c, 0, 60, 0
1, 162440, Tempo, 543527
1, 162460, Tempo, 538793
1, 162480, Tempo, 536481
1, 162480, Note_on_c, 0, 81, 0
1, 162480, Note_on_c, 0, 79, 33
1, 162480, Note_on_c, 0, 59, 69
1, 162500, Tempo, 529568
1, 162540, Note_on_c, 0, 59, 0
1, 162560, Tempo, 536481
1, 162560, Note_on_c, 0, 79, 0
1, 162560, Note_on_c, 0, 81, 37
1, 162580, Tempo, 546001
1, 162600, Tempo, 548346
1, 162600, Note_on_c, 0, 57, 69
1, 162640, Tempo, 541174
1, 162640, Note_on_c, 0, 81, 0
1, 162640, Note_on_c, 0, 79, 33
1, 162660, Tempo, 538793
1, 162660, Note_on_c, 0, 57, 0
1, 162700, Tempo, 553352
1, 162720, Note_on_c, 0, 79, 0
1, 162720, Note_on_c, 0, 86, 0
1, 162720, Note_on_c, 0, 81, 37
1, 162720, Note_on_c, 0, 79, 84
1, 162720, Note_on_c, 0, 55, 75
1, 162760, Tempo, 550812
1, 162780, Tempo, 548346
1, 162780, Note_on_c, 0, 55, 0
1, 162790, Note_on_c, 0, 79, 0
1, 162800, Tempo, 546001
1, 162800, Note_on_c, 0, 81, 0
1, 162800, Note_on_c, 0, 79, 33
1, 162820, Tempo, 543527
1, 162840, Tempo, 548346
1, 162840, Note_on_c, 0, 53, 69
1, 162860, Tempo, 563380
1, 162880, Tempo, 560852
1, 162880, Note_on_c, 0, 79, 0
1, 162880, Note_on_c, 0, 81, 38
1, 162900, Tempo, 555761
1, 162900, Note_on_c, 0, 53, 0
1, 162920, Tempo, 550812
1, 162940, Tempo, 548346
1, 162960, Tempo, 546001
1, 162960, Note_on_c, 0, 81, 0
1, 162960, Note_on_c, 0, 79, 32
1, 162960, Note_on_c, 0, 52, 69
1, 163020, Tempo, 550812
1, 163020, Note_on_c, 0, 52, 0
1, 163040, Tempo, 558347
1, 163040, Note_on_c, 0, 79, 0
1, 163040, Note_on_c, 0, 81, 37
1, 163060, Tempo, 560852
1, 163080, Note_on_c, 0, 50, 69
1, 163100, Tempo, 553352
1, 163120, Note_on_c, 0, 81, 0
1, 163120, Note_on_c, 0, 79, 32
1, 163140, Note_on_c, 0, 50, 0
1, 163160, Tempo, 553352
1, 163200, Tempo, 546001
1, 163200, Note_on_c, 0, 79, 0
1, 163200, Note_on_c, 0, 81, 38
1, 163200, Note_on_c, 0, 84, 87
1, 163200, Note_on_c, 0, 48, 75
1, 163200, Control_c, 0, 64, 0
1, 163240, Tempo, 553352
1, 163250, Control_c, 0, 64, 127
1, 163260, Tempo, 565984
1, 163260, Note_on_c, 0, 48, 0
1, 163280, Tempo, 550812
1, 163280, Note_on_c, 0, 81, 0
1, 163280, Note_on_c, 0, 79, 32
1, 163320, Note_on_c, 0, 48, 69
1, 163340, Tempo, 558347
1, 163360, Tempo, 563380
1, 163360, Note_on_c, 0, 79, 0
1, 163360, Note_on_c, 0, 81, 37
1, 163380, Tempo, 565984
1, 163380, Note_on_c, 0, 48, 0
1, 163400, Tempo, 563380
1, 163420, Tempo, 553352
1, 163440, Note_on_c, 0, 81, 0
1, 163440, Note_on_c, 0, 79, 32
1, 163440, Note_on_c, 0, 47, 69
1, 163480, Tempo, 555761
1, 163500, Tempo, 560852
1, 163500, Note_on_c, 0, 47, 0
1, 163520, Tempo, 571211
1, 163520, Note_on_c, 0, 79, 0
1, 163520, Note_on_c, 0, 81, 36
1, 163540, Tempo, 553352
1, 163560, Note_on_c, 0, 45, 69
1, 163600, Note_on_c, 0, 81, 0
1, 163600, Note_on_c, 0, 79, 32
1, 163620, Note_on_c, 0, 45, 0
1, 163640, Tempo, 558347
1, 163660, Tempo, 560852
1, 163680, Tempo, 563380
1, 163680, Note_on_c, 0, 79, 0
1, 163680, Note_on_c, 0, 84, 0
1, 163680, Note_on_c, 0, 81, 36
1, 163680, Note_on_c, 0, 88, 84
1, 163680, Note_on_c, 0, 43, 72
1, 163720, Tempo, 573888
1, 163740, Tempo, 582016
1, 163740, Note_on_c, 0, 43, 0
1, 163760, Tempo, 584795
1, 163760, Note_on_c, 0, 81, 0
1, 163760, Note_on_c, 0, 79, 34
1, 163800, Note_on_c, 0, 41, 71
1, 163840, Tempo, 573888
1, 163840, Note_on_c, 0, 79, 0
1, 163840, Note_on_c, 0, 81, 37
1, 163860, Tempo, 571211
1, 163860, Note_on_c, 0, 41, 0
1, 163880, Tempo, 568613
1, 163920, Note_on_c, 0, 81, 0
1, 163920, Note_on_c, 0, 88, 0
1, 163920, Note_on_c, 0, 79, 33
1, 163920, Note_on_c, 0, 40, 75
1, 163940, Tempo, 582016
1, 163980, Note_on_c, 0, 40, 0
1, 164000, Note_on_c, 0, 79, 0
1, 164000, Note_on_c, 0, 81, 36
1, 164040, Tempo, 604839
1, 164040, Note_on_c, 0, 38, 80
1, 164080, Note_on_c, 0, 81, 0
1, 164080, Note_on_c, 0, 79, 32
1, 164100, Note_on_c, 0, 38, 0
1, 164160, Tempo, 616903
1, 164160, Note_on_c, 0, 79, 0
1, 164160, Note_on_c, 0, 81, 36
1, 164160, Note_on_c, 0, 36, 95
1, 164160, Note_on_c, 0, 48, 95
1, 164169, Control_c, 0, 64, 0
1, 164180, Tempo, 616903
1, 164200, Tempo, 610811
1, 164210, Control_c, 0, 64, 127
1, 164220, Tempo, 607841
1, 164240, Tempo, 598982
1, 164240, Note_on_c, 0, 81, 0
1, 164240, Note_on_c, 0, 79, 32
1, 164260, Tempo, 593237
1, 164280, Note_on_c, 0, 50, 56
1, 164320, Tempo, 632778
1, 164320, Note_on_c, 0, 79, 0
1, 164320, Note_on_c, 0, 81, 37
1, 164340, Note_on_c, 0, 50, 0
1, 164340, Note_on_c, 0, 52, 57
1, 164380, Tempo, 629459
1, 164400, Tempo, 623182
1, 164400, Note_on_c, 0, 52, 0
1, 164400, Note_on_c, 0, 81, 0
1, 164400, Note_on_c, 0, 48, 0
1, 164400, Note_on_c, 0, 36, 0
1, 164400, Note_on_c, 0, 79, 33
1, 164400, Note_on_c, 0, 53, 60
1, 164420, Tempo, 616903
1, 164440, Tempo, 601866
1, 164460, Tempo, 598982
1, 164460, Note_on_c, 0, 53, 0
1, 164460, Note_on_c, 0, 55, 60
1, 164480, Tempo, 601866
1, 164480, Note_on_c, 0, 79, 0
1, 164480, Note_on_c, 0, 81, 38
1, 164500, Tempo, 613936
1, 164520, Note_on_c, 0, 55, 0
1, 164520, Note_on_c, 0, 57, 62
1, 164560, Note_on_c, 0, 81, 0
1, 164560, Note_on_c, 0, 79, 33
1, 164580, Tempo, 610811
1, 164580, Note_on_c, 0, 57, 0
1, 164580, Note_on_c, 0, 59, 63
1, 164640, Tempo, 587602
1, 164640, Note_on_c, 0, 59, 0
1, 164640, Note_on_c, 0, 79, 0
1, 164640, Note_on_c, 0, 81, 39
1, 164640, Note_on_c, 0, 91, 90
1, 164640, Note_on_c, 0, 60, 63
1, 164660, Tempo, 582016
1, 164680, Tempo, 576535
1, 164700, Tempo, 573888
1, 164720, Tempo, 582016
1, 164720, Note_on_c, 0, 81, 0
1, 164720, Note_on_c, 0, 79, 35
1, 164740, Tempo, 584795
1, 164760, Tempo, 587602
1, 164760, Note_on_c, 0, 60, 0
1, 164760, Note_on_c, 0, 62, 65
1, 164780, Tempo, 590319
1, 164800, Tempo, 596066
1, 164800, Note_on_c, 0, 79, 0
1, 164800, Note_on_c, 0, 81, 40
1, 164820, Note_on_c, 0, 62, 0
1, 164820, Note_on_c, 0, 64, 66
1, 164840, Tempo, 593237
1, 164860, Tempo, 587602
1, 164880, Tempo, 584795
1, 164880, Note_on_c, 0, 64, 0
1, 164880, Note_on_c, 0, 81, 0
1, 164880, Note_on_c, 0, 91, 0
1, 164880, Note_on_c, 0, 79, 36
1, 164880, Note_on_c, 0, 65, 67
1, 164900, Tempo, 576535
1, 164940, Tempo, 582016
1, 164940, Note_on_c, 0, 65, 0
1, 164940, Note_on_c, 0, 67, 69
1, 164960, Tempo, 593237
1, 164960, Note_on_c, 0, 79, 0
1, 164960, Note_on_c, 0, 81, 40
1, 165000, Note_on_c, 0, 67, 0
1, 165000, Note_on_c, 0, 69, 70
1, 165020, Tempo, 587602
1, 165040, Tempo, 576535
1, 165040, Note_on_c, 0, 81, 0
1, 165040, Note_on_c, 0, 79, 36
1, 165060, Note_on_c, 0, 69, 0
1, 165060, Note_on_c, 0, 71, 71
1, 165100, Tempo, 558347
1, 165120, Tempo, 553352
1, 165120, Note_on_c, 0, 71, 0
1, 165120, Note_on_c, 0, 79, 0
1, 165120, Note_on_c, 0, 81, 40
1, 165120, Note_on_c, 0, 91, 92
1, 165120, Note_on_c, 0, 72, 74
1, 165160, Tempo, 548346
1, 165180, Tempo, 546001
1, 165180, Note_on_c, 0, 72, 0
1, 165200, Note_on_c, 0, 81, 0
1, 165200, Note_on_c, 0, 79, 37
1, 165240, Tempo, 548346
1, 165240, Note_on_c, 0, 71, 71
1, 165260, Tempo, 555761
1, 165280, Tempo, 563380
1, 165280, Note_on_c, 0, 79, 0
1, 165280, Note_on_c, 0, 81, 40
1, 165300, Note_on_c, 0, 71, 0
1, 165340, Tempo, 558347
1, 165360, Tempo, 553352
1, 165360, Note_on_c, 0, 81, 0
1, 165360, Note_on_c, 0, 79, 36
1, 165360, Note_on_c, 0, 69, 71
1, 165380, Tempo, 550812
1, 165400, Tempo, 548346
1, 165420, Tempo, 550812
1, 165420, Note_on_c, 0, 69, 0
1, 165440, Tempo, 555761
1, 165440, Note_on_c, 0, 79, 0
1, 165440, Note_on_c, 0, 81, 40
1, 165460, Tempo, 560852
1, 165480, Tempo, 563380
1, 165480, Note_on_c, 0, 67, 71
1, 165520, Tempo, 560852
1, 165520, Note_on_c, 0, 81, 0
1, 165520, Note_on_c, 0, 79, 36
1, 165540, Tempo, 558347
1, 165540, Note_on_c, 0, 67, 0
1, 165560, Tempo, 553352
1, 165580, Tempo, 548346
1, 165600, Tempo, 550812
1, 165600, Note_on_c, 0, 79, 0
1, 165600, Note_on_c, 0, 81, 39
1, 165600, Note_on_c, 0, 65, 72
1, 165640, Tempo, 553352
1, 165660, Tempo, 563380
1, 165660, Note_on_c, 0, 65, 0
1, 165680, Tempo, 568613
1, 165680, Note_on_c, 0, 81, 0
1, 165680, Note_on_c, 0, 79, 36
1, 165720, Note_on_c, 0, 64, 69
1, 165740, Tempo, 565984
1, 165760, Tempo, 563380
1, 165760, Note_on_c, 0, 79, 0
1, 165760, Note_on_c, 0, 81, 38
1, 165780, Tempo, 553352
1, 165780, Note_on_c, 0, 64, 0
1, 165800, Tempo, 550812
1, 165820, Tempo, 548346
1, 165840, Note_on_c, 0, 81, 0
1, 165840, Note_on_c, 0, 91, 0
1, 165840, Note_on_c, 0, 79, 32
1, 165840, Note_on_c, 0, 88, 84
1, 165840, Note_on_c, 0, 62, 69
1, 165880, Tempo, 550812
1, 165900, Tempo, 555761
1, 165900, Note_on_c, 0, 62, 0
1, 165920, Tempo, 558347
1, 165920, Note_on_c, 0, 79, 0
1, 165920, Note_on_c, 0, 81, 37
1, 165960, Note_on_c, 0, 60, 67
1, 165980, Tempo, 555761
1, 166000, Note_on_c, 0, 81, 0
1, 166000, Note_on_c, 0, 79, 33
1, 166020, Note_on_c, 0, 60, 0
1, 166080, Tempo, 541174
1, 166080, Note_on_c, 0, 79, 0
1, 166080, Note_on_c, 0, 88, 0
1, 166080, Note_on_c, 0, 81, 39
1, 166080, Note_on_c, 0, 86, 90
1, 166080, Note_on_c, 0, 59, 73
1, 166088, Control_c, 0, 64, 0
1, 166100, Tempo, 538793
1, 166120, Tempo, 536481
1, 166126, Control_c, 0, 64, 127
1, 166140, Tempo, 534140
1, 166140, Note_on_c, 0, 59, 0
1, 166160, Note_on_c, 0, 81, 0
1, 166160, Note_on_c, 0, 79, 32
1, 166180, Tempo, 531821
1, 166200, Note_on_c, 0, 60, 69
1, 166220, Tempo, 543527
1, 166240, Tempo, 546001
1, 166240, Note_on_c, 0, 79, 0
1, 166240, Note_on_c, 0, 81, 36
1, 166260, Note_on_c, 0, 60, 0
1, 166300, Tempo, 541174
1, 166320, Note_on_c, 0, 81, 0
1, 166320, Note_on_c, 0, 79, 31
1, 166320, Note_on_c, 0, 59, 69
1, 166340, Tempo, 538793
1, 166360, Tempo, 536481
1, 166380, Tempo, 534140
1, 166380, Note_on_c, 0, 59, 0
1, 166400, Note_on_c, 0, 79, 0
1, 166400, Note_on_c, 0, 81, 36
1, 166420, Tempo, 536481
1, 166440, Tempo, 543527
1, 166440, Note_on_c, 0, 57, 69
1, 166460, Tempo, 546001
1, 166480, Note_on_c, 0, 81, 0
1, 166480, Note_on_c, 0, 79, 30
1, 166500, Note_on_c, 0, 57, 0
1, 166520, Tempo, 555761
1, 166560, Note_on_c, 0, 79, 0
1, 166560, Note_on_c, 0, 86, 0
1, 166560, Note_on_c, 0, 81, 36
1, 166560, Note_on_c, 0, 79, 82
1, 166560, Note_on_c, 0, 55, 75
1, 166600, Tempo, 553352
1, 166620, Tempo, 550812
1, 166620, Note_on_c, 0, 55, 0
1, 166630, Note_on_c, 0, 79, 0
1, 166640, Tempo, 548346
1, 166640, Note_on_c, 0, 81, 0
1, 166640, Note_on_c, 0, 79, 31
1, 166680, Note_on_c, 0, 53, 69
1, 166720, Tempo, 555761
1, 166720, Note_on_c, 0, 79, 0
1, 166720, Note_on_c, 0, 81, 36
1, 166740, Tempo, 558347
1, 166740, Note_on_c, 0, 53, 0
1, 166780, Tempo, 555761
1, 166800, Tempo, 550812
1, 166800, Note_on_c, 0, 81, 0
1, 166800, Note_on_c, 0, 79, 34
1, 166800, Note_on_c, 0, 52, 69
1, 166840, Tempo, 548346
1, 166860, Tempo, 546001
1, 166860, Note_on_c, 0, 52, 0
1, 166880, Tempo, 555761
1, 166880, Note_on_c, 0, 79, 0
1, 166880, Note_on_c, 0, 78, 36
1, 166920, Note_on_c, 0, 50, 69
1, 166960, Tempo, 550812
1, 166960, Note_on_c, 0, 78, 0
1, 166960, Note_on_c, 0, 79, 31
1, 166980, Note_on_c, 0, 50, 0
1, 167040, Tempo, 571429
1, 167040, Note_on_c, 0, 79, 0
1, 167040, Note_on_c, 0, 84, 86
1, 167040, Note_on_c, 0, 48, 75
1, 167052, Control_c, 0, 64, 0
1, 167280, Tempo, 557621
1, 167280, Note_on_c, 0, 48, 0
1, 167280, Note_on_c, 0, 84, 0
1, 167280, Note_on_c, 0, 31, 77
1, 167280, Note_on_c, 0, 43, 77
1, 167400, Note_on_c, 0, 43, 0
1, 167400, Note_on_c, 0, 31, 0
1, 167400, Note_on_c, 0, 55, 67
1, 167520, Tempo, 552384
1, 167520, Note_on_c, 0, 55, 0
1, 167520, Note_on_c, 0, 39, 62
1, 167520, Note_on_c, 0, 51, 74
1, 167640, Note_on_c, 0, 51, 0
1, 167640, Note_on_c, 0, 39, 0
1, 167640, Note_on_c, 0, 63, 62
1, 167760, Note_on_c, 0, 63, 0
1, 167760, Note_on_c, 0, 38, 62
1, 167760, Note_on_c, 0, 50, 74
1, 167880, Note_on_c, 0, 50, 0
1, 167880, Note_on_c, 0, 38, 0
1, 167880, Note_on_c, 0, 62, 62
1, 168000, Key_signature, -3, "major"
1, 168000, Tempo, 557621
1, 168000, Note_on_c, 0, 62, 0
1, 168000, Note_on_c, 0, 36, 65
1, 168000, Note_on_c, 0, 48, 77
1, 168120, Note_on_c, 0, 48, 0
1, 168120, Note_on_c, 0, 36, 0
1, 168120, Note_on_c, 0, 60, 65
1, 168240, Note_on_c, 0, 60, 0
1, 168240, Note_on_c, 0, 31, 61
1, 168240, Note_on_c, 0, 43, 72
1, 168360, Note_on_c, 0, 43, 0
1, 168360, Note_on_c, 0, 31, 0
1, 168360, Note_on_c, 0, 55, 61
1, 168480, Tempo, 557621
1, 168480, Note_on_c, 0, 55, 0
1, 168480, Note_on_c, 0, 33, 62
1, 168480, Note_on_c, 0, 45, 73
1, 168600, Note_on_c, 0, 45, 0
1, 168600, Note_on_c, 0, 33, 0
1, 168600, Note_on_c, 0, 57, 62
1, 168720, Tempo, 573833
1, 168720, Note_on_c, 0, 57, 0
1, 168720, Note_on_c, 0, 35, 62
1, 168720, Note_on_c, 0, 47, 73
1, 168840, Note_on_c, 0, 47, 0
1, 168840, Note_on_c, 0, 35, 0
1, 168840, Note_on_c, 0, 59, 62
1, 168940, Tempo, 576701
1, 168960, Tempo, 568343
1, 168960, Note_on_c, 0, 59, 0
1, 168960, Note_on_c, 0, 36, 65
1, 168960, Note_on_c, 0, 48, 77
1, 169080, Note_on_c, 0, 48, 0
1, 169080, Note_on_c, 0, 36, 0
1, 169080, Note_on_c, 0, 60, 65
1, 169200, Note_on_c, 0, 60, 0
1, 169200, Note_on_c, 0, 36, 61
1, 169200, Note_on_c, 0, 48, 72
1, 169320, Note_on_c, 0, 48, 0
1, 169320, Note_on_c, 0, 36, 0
1, 169320, Note_on_c, 0, 60, 61
1, 169440, Tempo, 552384
1, 169440, Note_on_c, 0, 60, 0
1, 169440, Note_on_c, 0, 44, 66
1, 169440, Note_on_c, 0, 56, 78
1, 169560, Note_on_c, 0, 56, 0
1, 169560, Note_on_c, 0, 44, 0
1, 169560, Note_on_c, 0, 68, 66
1, 169680, Note_on_c, 0, 68, 0
1, 169680, Note_on_c, 0, 43, 62
1, 169680, Note_on_c, 0, 55, 73
1, 169800, Note_on_c, 0, 55, 0
1, 169800, Note_on_c, 0, 43, 0
1, 169800, Note_on_c, 0, 67, 62
1, 169920, Tempo, 554939
1, 169920, Note_on_c, 0, 67, 0
1, 169920, Note_on_c, 0, 41, 68
1, 169920, Note_on_c, 0, 53, 80
1, 170040, Note_on_c, 0, 53, 0
1, 170040, Note_on_c, 0, 41, 0
1, 170040, Note_on_c, 0, 65, 68
1, 170160, Note_on_c, 0, 65, 0
1, 170160, Note_on_c, 0, 36, 63
1, 170160, Note_on_c, 0, 48, 75
1, 170280, Note_on_c, 0, 48, 0
1, 170280, Note_on_c, 0, 36, 0
1, 170280, Note_on_c, 0, 60, 63
1, 170380, Tempo, 549803
1, 170400, Note_on_c, 0, 60, 0
1, 170400, Note_on_c, 0, 38, 63
1, 170400, Note_on_c, 0, 50, 75
1, 170440, Tempo, 552384
1, 170520, Note_on_c, 0, 50, 0
1, 170520, Note_on_c, 0, 38, 0
1, 170520, Note_on_c, 0, 62, 63
1, 170640, Tempo, 571102
1, 170640, Note_on_c, 0, 62, 0
1, 170640, Note_on_c, 0, 40, 63
1, 170640, Note_on_c, 0, 52, 75
1, 170760, Note_on_c, 0, 52, 0
1, 170760, Note_on_c, 0, 40, 0
1, 170760, Note_on_c, 0, 64, 63
1, 170880, Note_on_c, 0, 64, 0
1, 170880, Note_on_c, 0, 41, 66
1, 170880, Note_on_c, 0, 53, 78
1, 171000, Note_on_c, 0, 53, 0
1, 171000, Note_on_c, 0, 41, 0
1, 171000, Note_on_c, 0, 65, 66
1, 171120, Note_on_c, 0, 65, 0
1, 171120, Note_on_c, 0, 41, 62
1, 171120, Note_on_c, 0, 53, 74
1, 171240, Note_on_c, 0, 53, 0
1, 171240, Note_on_c, 0, 41, 0
1, 171240, Note_on_c, 0, 65, 62
1, 171280, Tempo, 573833
1, 171340, Tempo, 576701
1, 171360, Tempo, 560276
1, 171360, Note_on_c, 0, 65, 0
1, 171360, Note_on_c, 0, 49, 68
1, 171360, Note_on_c, 0, 61, 80
1, 171480, Note_on_c, 0, 61, 0
1, 171480, Note_on_c, 0, 49, 0
1, 171480, Note_on_c, 0, 73, 68
1, 171600, Note_on_c, 0, 73, 0
1, 171600, Note_on_c, 0, 48, 64
1, 171600, Note_on_c, 0, 60, 76
1, 171720, Note_on_c, 0, 60, 0
1, 171720, Note_on_c, 0, 48, 0
1, 171720, Note_on_c, 0, 72, 64
1, 171840, Tempo, 557621
1, 171840, Note_on_c, 0, 72, 0
1, 171840, Note_on_c, 0, 46, 68
1, 171840, Note_on_c, 0, 58, 80
1, 171960, Note_on_c, 0, 58, 0
1, 171960, Note_on_c, 0, 46, 0
1, 171960, Note_on_c, 0, 70, 68
1, 172080, Note_on_c, 0, 70, 0
1, 172080, Note_on_c, 0, 44, 62
1, 172080, Note_on_c, 0, 56, 73
1, 172200, Note_on_c, 0, 56, 0
1, 172200, Note_on_c, 0, 44, 0
1, 172200, Note_on_c, 0, 68, 62
1, 172320, Note_on_c, 0, 68, 0
1, 172320, Note_on_c, 0, 43, 62
1, 172320, Note_on_c, 0, 55, 74
1, 172440, Note_on_c, 0, 55, 0
1, 172440, Note_on_c, 0, 43, 0
1, 172440, Note_on_c, 0, 67, 62
1, 172560, Note_on_c, 0, 67, 0
1, 172560, Note_on_c, 0, 41, 62
1, 172560, Note_on_c, 0, 53, 74
1, 172680, Note_on_c, 0, 53, 0
1, 172680, Note_on_c, 0, 41, 0
1, 172680, Note_on_c, 0, 65, 62
1, 172800, Note_on_c, 0, 65, 0
1, 172800, Note_on_c, 0, 39, 69
1, 172800, Note_on_c, 0, 51, 82
1, 172920, Note_on_c, 0, 51, 0
1, 172920, Note_on_c, 0, 39, 0
1, 172920, Note_on_c, 0, 63, 69
1, 173040, Note_on_c, 0, 63, 0
1, 173040, Note_on_c, 0, 49, 75
1, 173160, Note_on_c, 0, 49, 0
1, 173160, Note_on_c, 0, 63, 63
1, 173280, Tempo, 552384
1, 173280, Note_on_c, 0, 63, 0
1, 173280, Note_on_c, 0, 48, 75
1, 173400, Note_on_c, 0, 48, 0
1, 173400, Note_on_c, 0, 51, 40
1, 173400, Note_on_c, 0, 55, 40
1, 173400, Note_on_c, 0, 63, 63
1, 173520, Note_on_c, 0, 63, 0
1, 173520, Note_on_c, 0, 55, 0
1, 173520, Note_on_c, 0, 51, 0
1, 173520, Note_on_c, 0, 46, 75
1, 173640, Note_on_c, 0, 46, 0
1, 173640, Note_on_c, 0, 53, 40
1, 173640, Note_on_c, 0, 56, 50
1, 173640, Note_on_c, 0, 63, 63
1, 173760, Tempo, 549803
1, 173760, Note_on_c, 0, 63, 0
1, 173760, Note_on_c, 0, 56, 0
1, 173760, Note_on_c, 0, 53, 0
1, 173760, Note_on_c, 0, 44, 84
1, 173880, Note_on_c, 0, 44, 0
1, 173880, Note_on_c, 0, 55, 44
1, 173880, Note_on_c, 0, 58, 56
1, 173880, Note_on_c, 0, 63, 71
1, 173920, Tempo, 552384
1, 174000, Note_on_c, 0, 63, 0
1, 174000, Note_on_c, 0, 58, 0
1, 174000, Note_on_c, 0, 55, 0
1, 174000, Note_on_c, 0, 43, 76
1, 174040, Tempo, 554939
1, 174120, Note_on_c, 0, 43, 0
1, 174120, Note_on_c, 0, 56, 40
1, 174120, Note_on_c, 0, 60, 51
1, 174120, Note_on_c, 0, 63, 64
1, 174160, Tempo, 557621
1, 174240, Note_on_c, 0, 63, 0
1, 174240, Note_on_c, 0, 60, 0
1, 174240, Note_on_c, 0, 56, 0
1, 174240, Note_on_c, 0, 41, 76
1, 174280, Tempo, 560276
1, 174360, Note_on_c, 0, 41, 0
1, 174360, Note_on_c, 0, 58, 40
1, 174360, Note_on_c, 0, 61, 51
1, 174360, Note_on_c, 0, 63, 64
1, 174400, Tempo, 562852
1, 174480, Note_on_c, 0, 63, 0
1, 174480, Note_on_c, 0, 61, 0
1, 174480, Note_on_c, 0, 58, 0
1, 174480, Note_on_c, 0, 39, 76
1, 174520, Tempo, 565611
1, 174600, Note_on_c, 0, 39, 0
1, 174600, Note_on_c, 0, 55, 40
1, 174600, Note_on_c, 0, 58, 51
1, 174600, Note_on_c, 0, 63, 64
1, 174640, Tempo, 568343
1, 174720, Tempo, 571429
1, 174720, Note_on_c, 0, 63, 0
1, 174720, Note_on_c, 0, 58, 0
1, 174720, Note_on_c, 0, 55, 0
1, 174720, Note_on_c, 0, 60, 82
1, 174720, Note_on_c, 0, 44, 84
1, 174960, Tempo, 557621
1, 174960, Note_on_c, 0, 44, 0
1, 174960, Note_on_c, 0, 60, 0
1, 174960, Note_on_c, 0, 55, 79
1, 174960, Note_on_c, 0, 67, 79
1, 174960, Note_on_c, 0, 35, 63
1, 175040, Note_on_c, 0, 35, 0
1, 175040, Note_on_c, 0, 33, 56
1, 175080, Note_on_c, 0, 67, 0
1, 175080, Note_on_c, 0, 55, 0
1, 175120, Note_on_c, 0, 33, 0
1, 175120, Note_on_c, 0, 35, 57
1, 175200, Tempo, 552384
1, 175200, Note_on_c, 0, 35, 0
1, 175200, Note_on_c, 0, 63, 62
1, 175200, Note_on_c, 0, 75, 74
1, 175200, Note_on_c, 0, 36, 57
1, 175280, Note_on_c, 0, 36, 0
1, 175280, Note_on_c, 0, 39, 58
1, 175320, Note_on_c, 0, 75, 0
1, 175320, Note_on_c, 0, 63, 0
1, 175360, Note_on_c, 0, 39, 0
1, 175360, Note_on_c, 0, 41, 59
1, 175440, Note_on_c, 0, 41, 0
1, 175440, Note_on_c, 0, 62, 62
1, 175440, Note_on_c, 0, 74, 74
1, 175440, Note_on_c, 0, 43, 60
1, 175520, Note_on_c, 0, 43, 0
1, 175520, Note_on_c, 0, 45, 62
1, 175560, Note_on_c, 0, 74, 0
1, 175560, Note_on_c, 0, 62, 0
1, 175600, Note_on_c, 0, 45, 0
1, 175600, Note_on_c, 0, 47, 63
1, 175680, Tempo, 557621
1, 175680, Note_on_c, 0, 47, 0
1, 175680, Note_on_c, 0, 60, 65
1, 175680, Note_on_c, 0, 72, 77
1, 175680, Note_on_c, 0, 48, 60
1, 175760, Note_on_c, 0, 48, 0
1, 175760, Note_on_c, 0, 50, 62
1, 175800, Note_on_c, 0, 72, 0
1, 175800, Note_on_c, 0, 60, 0
1, 175840, Note_on_c, 0, 50, 0
1, 175840, Note_on_c, 0, 51, 63
1, 175920, Note_on_c, 0, 51, 0
1, 175920, Note_on_c, 0, 55, 61
1, 175920, Note_on_c, 0, 67, 72
1, 175920, Note_on_c, 0, 53, 65
1, 176000, Note_on_c, 0, 53, 0
1, 176000, Note_on_c, 0, 51, 63
1, 176040, Note_on_c, 0, 67, 0
1, 176040, Note_on_c, 0, 55, 0
1, 176080, Note_on_c, 0, 51, 0
1, 176080, Note_on_c, 0, 50, 62
1, 176160, Tempo, 557621
1, 176160, Note_on_c, 0, 50, 0
1, 176160, Note_on_c, 0, 57, 62
1, 176160, Note_on_c, 0, 69, 73
1, 176160, Note_on_c, 0, 48, 63
1, 176240, Note_on_c, 0, 48, 0
1, 176240, Note_on_c, 0, 50, 62
1, 176280, Note_on_c, 0, 69, 0
1, 176280, Note_on_c, 0, 57, 0
1, 176320, Note_on_c, 0, 50, 0
1, 176320, Note_on_c, 0, 51, 63
1, 176400, Tempo, 573833
1, 176400, Note_on_c, 0, 51, 0
1, 176400, Note_on_c, 0, 59, 62
1, 176400, Note_on_c, 0, 71, 73
1, 176400, Note_on_c, 0, 53, 65
1, 176480, Note_on_c, 0, 53, 0
1, 176480, Note_on_c, 0, 51, 64
1, 176520, Note_on_c, 0, 71, 0
1, 176520, Note_on_c, 0, 59, 0
1, 176560, Note_on_c, 0, 51, 0
1, 176560, Note_on_c, 0, 50, 63
1, 176620, Tempo, 576701
1, 176640, Tempo, 568343
1, 176640, Note_on_c, 0, 50, 0
1, 176640, Note_on_c, 0, 60, 65
1, 176640, Note_on_c, 0, 72, 77
1, 176640, Note_on_c, 0, 48, 68
1, 176760, Note_on_c, 0, 72, 0
1, 176760, Note_on_c, 0, 60, 0
1, 176880, Note_on_c, 0, 48, 0
1, 176880, Note_on_c, 0, 60, 61
1, 176880, Note_on_c, 0, 72, 72
1, 176880, Note_on_c, 0, 40, 63
1, 176960, Note_on_c, 0, 40, 0
1, 176960, Note_on_c, 0, 38, 56
1, 177000, Note_on_c, 0, 72, 0
1, 177000, Note_on_c, 0, 60, 0
1, 177040, Note_on_c, 0, 38, 0
1, 177040, Note_on_c, 0, 40, 56
1, 177120, Tempo, 552384
1, 177120, Note_on_c, 0, 40, 0
1, 177120, Note_on_c, 0, 68, 66
1, 177120, Note_on_c, 0, 80, 78
1, 177120, Note_on_c, 0, 41, 54
1, 177200, Note_on_c, 0, 41, 0
1, 177200, Note_on_c, 0, 44, 56
1, 177240, Note_on_c, 0, 80, 0
1, 177240, Note_on_c, 0, 68, 0
1, 177280, Note_on_c, 0, 44, 0
1, 177280, Note_on_c, 0, 46, 58
1, 177360, Note_on_c, 0, 46, 0
1, 177360, Note_on_c, 0, 67, 62
1, 177360, Note_on_c, 0, 79, 73
1, 177360, Note_on_c, 0, 48, 60
1, 177440, Note_on_c, 0, 48, 0
1, 177440, Note_on_c, 0, 50, 62
1, 177480, Note_on_c, 0, 79, 0
1, 177480, Note_on_c, 0, 67, 0
1, 177520, Note_on_c, 0, 50, 0
1, 177520, Note_on_c, 0, 52, 63
1, 177600, Tempo, 554939
1, 177600, Note_on_c, 0, 52, 0
1, 177600, Note_on_c, 0, 65, 68
1, 177600, Note_on_c, 0, 77, 80
1, 177600, Note_on_c, 0, 53, 65
1, 177680, Note_on_c, 0, 53, 0
1, 177680, Note_on_c, 0, 55, 65
1, 177720, Note_on_c, 0, 77, 0
1, 177720, Note_on_c, 0, 65, 0
1, 177760, Note_on_c, 0, 55, 0
1, 177760, Note_on_c, 0, 56, 66
1, 177840, Note_on_c, 0, 56, 0
1, 177840, Note_on_c, 0, 60, 63
1, 177840, Note_on_c, 0, 72, 75
1, 177840, Note_on_c, 0, 58, 68
1, 177920, Note_on_c, 0, 58, 0
1, 177920, Note_on_c, 0, 56, 65
1, 177960, Note_on_c, 0, 72, 0
1, 177960, Note_on_c, 0, 60, 0
1, 178000, Note_on_c, 0, 56, 0
1, 178000, Note_on_c, 0, 55, 63
1, 178060, Tempo, 549803
1, 178080, Note_on_c, 0, 55, 0
1, 178080, Note_on_c, 0, 62, 63
1, 178080, Note_on_c, 0, 74, 75
1, 178080, Note_on_c, 0, 53, 60
1, 178120, Tempo, 552384
1, 178160, Note_on_c, 0, 53, 0
1, 178160, Note_on_c, 0, 55, 62
1, 178200, Note_on_c, 0, 74, 0
1, 178200, Note_on_c, 0, 62, 0
1, 178240, Note_on_c, 0, 55, 0
1, 178240, Note_on_c, 0, 56, 64
1, 178320, Tempo, 571102
1, 178320, Note_on_c, 0, 56, 0
1, 178320, Note_on_c, 0, 64, 63
1, 178320, Note_on_c, 0, 76, 75
1, 178320, Note_on_c, 0, 58, 66
1, 178400, Note_on_c, 0, 58, 0
1, 178400, Note_on_c, 0, 56, 64
1, 178440, Note_on_c, 0, 76, 0
1, 178440, Note_on_c, 0, 64, 0
1, 178480, Note_on_c, 0, 56, 0
1, 178480, Note_on_c, 0, 55, 63
1, 178560, Note_on_c, 0, 55, 0
1, 178560, Note_on_c, 0, 65, 66
1, 178560, Note_on_c, 0, 77, 78
1, 178560, Note_on_c, 0, 53, 67
1, 178680, Note_on_c, 0, 77, 0
1, 178680, Note_on_c, 0, 65, 0
1, 178800, Note_on_c, 0, 53, 0
1, 178800, Note_on_c, 0, 65, 62
1, 178800, Note_on_c, 0, 77, 74
1, 178800, Note_on_c, 0, 45, 63
1, 178880, Note_on_c, 0, 45, 0
1, 178880, Note_on_c, 0, 43, 58
1, 178920, Note_on_c, 0, 77, 0
1, 178920, Note_on_c, 0, 65, 0
1, 178960, Tempo, 573833
1, 178960, Note_on_c, 0, 43, 0
1, 178960, Note_on_c, 0, 45, 58
1, 179020, Tempo, 576701
1, 179040, Tempo, 560276
1, 179040, Note_on_c, 0, 45, 0
1, 179040, Note_on_c, 0, 73, 68
1, 179040, Note_on_c, 0, 85, 80
1, 179040, Note_on_c, 0, 46, 63
1, 179120, Note_on_c, 0, 46, 0
1, 179120, Note_on_c, 0, 48, 58
1, 179160, Note_on_c, 0, 85, 0
1, 179160, Note_on_c, 0, 73, 0
1, 179200, Note_on_c, 0, 48, 0
1, 179200, Note_on_c, 0, 46, 58
1, 179280, Note_on_c, 0, 46, 0
1, 179280, Note_on_c, 0, 72, 64
1, 179280, Note_on_c, 0, 84, 76
1, 179280, Note_on_c, 0, 45, 63
1, 179360, Note_on_c, 0, 45, 0
1, 179360, Note_on_c, 0, 43, 60
1, 179400, Note_on_c, 0, 84, 0
1, 179400, Note_on_c, 0, 72, 0
1, 179440, Note_on_c, 0, 43, 0
1, 179440, Note_on_c, 0, 45, 60
1, 179520, Tempo, 557621
1, 179520, Note_on_c, 0, 45, 0
1, 179520, Note_on_c, 0, 70, 68
1, 179520, Note_on_c, 0, 82, 80
1, 179520, Note_on_c, 0, 46, 59
1, 179600, Note_on_c, 0, 46, 0
1, 179600, Note_on_c, 0, 45, 59
1, 179640, Note_on_c, 0, 82, 0
1, 179640, Note_on_c, 0, 70, 0
1, 179680, Note_on_c, 0, 45, 0
1, 179680, Note_on_c, 0, 46, 60
1, 179760, Note_on_c, 0, 46, 0
1, 179760, Note_on_c, 0, 68, 62
1, 179760, Note_on_c, 0, 80, 73
1, 179760, Note_on_c, 0, 48, 61
1, 179840, Note_on_c, 0, 48, 0
1, 179840, Note_on_c, 0, 47, 59
1, 179880, Note_on_c, 0, 80, 0
1, 179880, Note_on_c, 0, 68, 0
1, 179920, Note_on_c, 0, 47, 0
1, 179920, Note_on_c, 0, 48, 59
1, 180000, Note_on_c, 0, 48, 0
1, 180000, Note_on_c, 0, 67, 62
1, 180000, Note_on_c, 0, 79, 74
1, 180000, Note_on_c, 0, 49, 63
1, 180080, Note_on_c, 0, 49, 0
1, 180080, Note_on_c, 0, 48, 61
1, 180120, Note_on_c, 0, 79, 0
1, 180120, Note_on_c, 0, 67, 0
1, 180160, Note_on_c, 0, 48, 0
1, 180160, Note_on_c, 0, 49, 61
1, 180240, Note_on_c, 0, 49, 0
1, 180240, Note_on_c, 0, 65, 62
1, 180240, Note_on_c, 0, 77, 74
1, 180240, Note_on_c, 0, 50, 64
1, 180320, Note_on_c, 0, 50, 0
1, 180320, Note_on_c, 0, 48, 62
1, 180360, Note_on_c, 0, 77, 0
1, 180360, Note_on_c, 0, 65, 0
1, 180400, Note_on_c, 0, 48, 0
1, 180400, Note_on_c, 0, 50, 62
1, 180480, Note_on_c, 0, 50, 0
1, 180480, Note_on_c, 0, 63, 69
1, 180480, Note_on_c, 0, 75, 82
1, 180480, Note_on_c, 0, 51, 67
1, 180560, Note_on_c, 0, 51, 0
1, 180560, Note_on_c, 0, 53, 63
1, 180600, Note_on_c, 0, 75, 0
1, 180600, Note_on_c, 0, 63, 0
1, 180640, Note_on_c, 0, 53, 0
1, 180640, Note_on_c, 0, 51, 63
1, 180720, Note_on_c, 0, 51, 0
1, 180720, Note_on_c, 0, 63, 63
1, 180720, Note_on_c, 0, 75, 75
1, 180720, Note_on_c, 0, 49, 67
1, 180800, Note_on_c, 0, 49, 0
1, 180800, Note_on_c, 0, 51, 63
1, 180840, Note_on_c, 0, 75, 0
1, 180840, Note_on_c, 0, 63, 0
1, 180880, Note_on_c, 0, 51, 0
1, 180880, Note_on_c, 0, 49, 63
1, 180960, Tempo, 552384
1, 180960, Note_on_c, 0, 49, 0
1, 180960, Note_on_c, 0, 63, 60
1, 180960, Note_on_c, 0, 67, 60
1, 180960, Note_on_c, 0, 75, 75
1, 180960, Note_on_c, 0, 48, 66
1, 181040, Note_on_c, 0, 48, 0
1, 181040, Note_on_c, 0, 49, 63
1, 181080, Note_on_c, 0, 63, 0
1, 181080, Note_on_c, 0, 75, 0
1, 181080, Note_on_c, 0, 67, 0
1, 181120, Note_on_c, 0, 49, 0
1, 181120, Note_on_c, 0, 48, 63
1, 181200, Note_on_c, 0, 48, 0
1, 181200, Note_on_c, 0, 65, 60
1, 181200, Note_on_c, 0, 68, 60
1, 181200, Note_on_c, 0, 75, 75
1, 181200, Note_on_c, 0, 46, 66
1, 181280, Note_on_c, 0, 46, 0
1, 181280, Note_on_c, 0, 48, 62
1, 181320, Note_on_c, 0, 65, 0
1, 181320, Note_on_c, 0, 75, 0
1, 181320, Note_on_c, 0, 68, 0
1, 181360, Note_on_c, 0, 48, 0
1, 181360, Note_on_c, 0, 46, 62
1, 181440, Tempo, 549803
1, 181440, Note_on_c, 0, 46, 0
1, 181440, Note_on_c, 0, 67, 67
1, 181440, Note_on_c, 0, 70, 67
1, 181440, Note_on_c, 0, 75, 84
1, 181440, Note_on_c, 0, 44, 64
1, 181520, Note_on_c, 0, 44, 0
1, 181520, Note_on_c, 0, 46, 62
1, 181560, Note_on_c, 0, 67, 0
1, 181560, Note_on_c, 0, 75, 0
1, 181560, Note_on_c, 0, 70, 0
1, 181600, Tempo, 552384
1, 181600, Note_on_c, 0, 46, 0
1, 181600, Note_on_c, 0, 44, 62
1, 181680, Note_on_c, 0, 44, 0
1, 181680, Note_on_c, 0, 68, 60
1, 181680, Note_on_c, 0, 72, 60
1, 181680, Note_on_c, 0, 75, 76
1, 181680, Note_on_c, 0, 43, 64
1, 181720, Tempo, 554939
1, 181760, Note_on_c, 0, 43, 0
1, 181760, Note_on_c, 0, 44, 61
1, 181800, Note_on_c, 0, 68, 0
1, 181800, Note_on_c, 0, 75, 0
1, 181800, Note_on_c, 0, 72, 0
1, 181840, Tempo, 557621
1, 181840, Note_on_c, 0, 44, 0
1, 181840, Note_on_c, 0, 43, 61
1, 181920, Note_on_c, 0, 43, 0
1, 181920, Note_on_c, 0, 70, 60
1, 181920, Note_on_c, 0, 73, 60
1, 181920, Note_on_c, 0, 75, 76
1, 181920, Note_on_c, 0, 41, 63
1, 181960, Tempo, 560276
1, 182000, Note_on_c, 0, 41, 0
1, 182000, Note_on_c, 0, 43, 62
1, 182040, Note_on_c, 0, 70, 0
1, 182040, Note_on_c, 0, 75, 0
1, 182040, Note_on_c, 0, 73, 0
1, 182080, Tempo, 562852
1, 182080, Note_on_c, 0, 43, 0
1, 182080, Note_on_c, 0, 41, 62
1, 182160, Note_on_c, 0, 41, 0
1, 182160, Note_on_c, 0, 67, 60
1, 182160, Note_on_c, 0, 70, 60
1, 182160, Note_on_c, 0, 75, 76
1, 182160, Note_on_c, 0, 39, 63
1, 182240, Note_on_c, 0, 39, 0
1, 182240, Note_on_c, 0, 41, 60
1, 182280, Note_on_c, 0, 67, 0
1, 182280, Note_on_c, 0, 75, 0
1, 182280, Note_on_c, 0, 70, 0
1, 182320, Note_on_c, 0, 41, 0
1, 182320, Note_on_c, 0, 39, 60
1, 182400, Tempo, 571429
1, 182400, Note_on_c, 0, 39, 0
1, 182400, Note_on_c, 0, 68, 71
1, 182400, Note_on_c, 0, 72, 76
1, 182400, Note_on_c, 0, 44, 77
1, 182520, Note_on_c, 0, 44, 0
1, 182640, Tempo, 557621
1, 182640, Note_on_c, 0, 72, 0
1, 182640, Note_on_c, 0, 68, 0
1, 182640, Note_on_c, 0, 67, 55
1, 182640, Note_on_c, 0, 39, 79
1, 182640, Note_on_c, 0, 51, 79
1, 182720, Note_on_c, 0, 67, 0
1, 182720, Note_on_c, 0, 65, 56
1, 182760, Note_on_c, 0, 51, 0
1, 182760, Note_on_c, 0, 39, 0
1, 182800, Note_on_c, 0, 65, 0
1, 182800, Note_on_c, 0, 67, 57
1, 182880, Tempo, 552384
1, 182880, Note_on_c, 0, 67, 0
1, 182880, Note_on_c, 0, 68, 58
1, 182880, Note_on_c, 0, 48, 62
1, 182880, Note_on_c, 0, 60, 74
1, 182960, Note_on_c, 0, 68, 0
1, 182960, Note_on_c, 0, 72, 60
1, 183000, Note_on_c, 0, 60, 0
1, 183000, Note_on_c, 0, 48, 0
1, 183040, Note_on_c, 0, 72, 0
1, 183040, Note_on_c, 0, 73, 61
1, 183120, Note_on_c, 0, 73, 0
1, 183120, Note_on_c, 0, 75, 62
1, 183120, Note_on_c, 0, 46, 62
1, 183120, Note_on_c, 0, 58, 74
1, 183200, Note_on_c, 0, 75, 0
1, 183200, Note_on_c, 0, 77, 63
1, 183240, Note_on_c, 0, 58, 0
1, 183240, Note_on_c, 0, 46, 0
1, 183280, Note_on_c, 0, 77, 0
1, 183280, Note_on_c, 0, 79, 63
1, 183360, Tempo, 557621
1, 183360, Note_on_c, 0, 79, 0
1, 183360, Note_on_c, 0, 80, 63
1, 183360, Note_on_c, 0, 44, 65
1, 183360, Note_on_c, 0, 56, 77
1, 183440, Note_on_c, 0, 80, 0
1, 183440, Note_on_c, 0, 82, 63
1, 183480, Note_on_c, 0, 56, 0
1, 183480, Note_on_c, 0, 44, 0
1, 183520, Note_on_c, 0, 82, 0
1, 183520, Note_on_c, 0, 84, 65
1, 183600, Note_on_c, 0, 84, 0
1, 183600, Note_on_c, 0, 85, 66
1, 183600, Note_on_c, 0, 39, 61
1, 183600, Note_on_c, 0, 51, 72
1, 183680, Note_on_c, 0, 85, 0
1, 183680, Note_on_c, 0, 84, 63
1, 183720, Note_on_c, 0, 51, 0
1, 183720, Note_on_c, 0, 39, 0
1, 183760, Note_on_c, 0, 84, 0
1, 183760, Note_on_c, 0, 82, 63
1, 183840, Tempo, 557621
1, 183840, Note_on_c, 0, 82, 0
1, 183840, Note_on_c, 0, 85, 66
1, 183840, Note_on_c, 0, 41, 62
1, 183840, Note_on_c, 0, 53, 73
1, 183920, Note_on_c, 0, 85, 0
1, 183920, Note_on_c, 0, 84, 63
1, 183960, Note_on_c, 0, 53, 0
1, 183960, Note_on_c, 0, 41, 0
1, 184000, Note_on_c, 0, 84, 0
1, 184000, Note_on_c, 0, 82, 63
1, 184080, Tempo, 573833
1, 184080, Note_on_c, 0, 82, 0
1, 184080, Note_on_c, 0, 85, 67
1, 184080, Note_on_c, 0, 43, 62
1, 184080, Note_on_c, 0, 55, 73
1, 184160, Note_on_c, 0, 85, 0
1, 184160, Note_on_c, 0, 84, 63
1, 184200, Note_on_c, 0, 55, 0
1, 184200, Note_on_c, 0, 43, 0
1, 184240, Note_on_c, 0, 84, 0
1, 184240, Note_on_c, 0, 82, 63
1, 184300, Tempo, 576701
1, 184320, Tempo, 568343
1, 184320, Note_on_c, 0, 82, 0
1, 184320, Note_on_c, 0, 80, 76
1, 184320, Note_on_c, 0, 44, 65
1, 184320, Note_on_c, 0, 56, 77
1, 184440, Note_on_c, 0, 56, 0
1, 184440, Note_on_c, 0, 44, 0
1, 184560, Note_on_c, 0, 80, 0
1, 184560, Note_on_c, 0, 64, 55
1, 184560, Note_on_c, 0, 36, 61
1, 184560, Note_on_c, 0, 48, 72
1, 184640, Note_on_c, 0, 64, 0
1, 184640, Note_on_c, 0, 62, 56
1, 184680, Note_on_c, 0, 48, 0
1, 184680, Note_on_c, 0, 36, 0
1, 184720, Note_on_c, 0, 62, 0
1, 184720, Note_on_c, 0, 64, 57
1, 184800, Tempo, 552384
1, 184800, Note_on_c, 0, 64, 0
1, 184800, Note_on_c, 0, 65, 58
1, 184800, Note_on_c, 0, 44, 66
1, 184800, Note_on_c, 0, 56, 78
1, 184880, Note_on_c, 0, 65, 0
1, 184880, Note_on_c, 0, 68, 60
1, 184920, Note_on_c, 0, 56, 0
1, 184920, Note_on_c, 0, 44, 0
1, 184960, Note_on_c, 0, 68, 0
1, 184960, Note_on_c, 0, 70, 61
1, 185040, Note_on_c, 0, 70, 0
1, 185040, Note_on_c, 0, 72, 62
1, 185040, Note_on_c, 0, 43, 62
1, 185040, Note_on_c, 0, 55, 73
1, 185120, Note_on_c, 0, 72, 0
1, 185120, Note_on_c, 0, 74, 63
1, 185160, Note_on_c, 0, 55, 0
1, 185160, Note_on_c, 0, 43, 0
1, 185200, Note_on_c, 0, 74, 0
1, 185200, Note_on_c, 0, 76, 63
1, 185280, Tempo, 554939
1, 185280, Note_on_c, 0, 76, 0
1, 185280, Note_on_c, 0, 77, 63
1, 185280, Note_on_c, 0, 41, 68
1, 185280, Note_on_c, 0, 53, 80
1, 185360, Note_on_c, 0, 77, 0
1, 185360, Note_on_c, 0, 79, 63
1, 185400, Note_on_c, 0, 53, 0
1, 185400, Note_on_c, 0, 41, 0
1, 185440, Note_on_c, 0, 79, 0
1, 185440, Note_on_c, 0, 80, 65
1, 185520, Note_on_c, 0, 80, 0
1, 185520, Note_on_c, 0, 82, 66
1, 185520, Note_on_c, 0, 36, 63
1, 185520, Note_on_c, 0, 48, 75
1, 185600, Note_on_c, 0, 82, 0
1, 185600, Note_on_c, 0, 80, 63
1, 185640, Note_on_c, 0, 48, 0
1, 185640, Note_on_c, 0, 36, 0
1, 185680, Note_on_c, 0, 80, 0
1, 185680, Note_on_c, 0, 79, 63
1, 185740, Tempo, 549803
1, 185760, Note_on_c, 0, 79, 0
1, 185760, Note_on_c, 0, 82, 66
1, 185760, Note_on_c, 0, 38, 63
1, 185760, Note_on_c, 0, 50, 75
1, 185800, Tempo, 552384
1, 185840, Note_on_c, 0, 82, 0
1, 185840, Note_on_c, 0, 80, 63
1, 185880, Note_on_c, 0, 50, 0
1, 185880, Note_on_c, 0, 38, 0
1, 185920, Note_on_c, 0, 80, 0
1, 185920, Note_on_c, 0, 79, 63
1, 186000, Tempo, 571102
1, 186000, Note_on_c, 0, 79, 0
1, 186000, Note_on_c, 0, 82, 67
1, 186000, Note_on_c, 0, 40, 63
1, 186000, Note_on_c, 0, 52, 75
1, 186080, Note_on_c, 0, 82, 0
1, 186080, Note_on_c, 0, 80, 63
1, 186120, Note_on_c, 0, 52, 0
1, 186120, Note_on_c, 0, 40, 0
1, 186160, Note_on_c, 0, 80, 0
1, 186160, Note_on_c, 0, 79, 63
1, 186240, Note_on_c, 0, 79, 0
1, 186240, Note_on_c, 0, 80, 70
1, 186240, Note_on_c, 0, 41, 66
1, 186240, Note_on_c, 0, 53, 78
1, 186320, Note_on_c, 0, 80, 0
1, 186320, Note_on_c, 0, 82, 68
1, 186360, Note_on_c, 0, 53, 0
1, 186360, Note_on_c, 0, 41, 0
1, 186400, Note_on_c, 0, 82, 0
1, 186400, Note_on_c, 0, 80, 68
1, 186480, Note_on_c, 0, 80, 0
1, 186480, Note_on_c, 0, 79, 70
1, 186480, Note_on_c, 0, 53, 62
1, 186480, Note_on_c, 0, 65, 74
1, 186560, Note_on_c, 0, 79, 0
1, 186560, Note_on_c, 0, 80, 66
1, 186600, Note_on_c, 0, 65, 0
1, 186600, Note_on_c, 0, 53, 0
1, 186640, Tempo, 573833
1, 186640, Note_on_c, 0, 80, 0
1, 186640, Note_on_c, 0, 79, 66
1, 186700, Tempo, 576701
1, 186720, Tempo, 560276
1, 186720, Note_on_c, 0, 79, 0
1, 186720, Note_on_c, 0, 77, 69
1, 186720, Note_on_c, 0, 56, 68
1, 186720, Note_on_c, 0, 68, 80
1, 186800, Note_on_c, 0, 77, 0
1, 186800, Note_on_c, 0, 79, 66
1, 186840, Note_on_c, 0, 68, 0
1, 186840, Note_on_c, 0, 56, 0
1, 186880, Note_on_c, 0, 79, 0
1, 186880, Note_on_c, 0, 77, 65
1, 186960, Note_on_c, 0, 77, 0
1, 186960, Note_on_c, 0, 75, 69
1, 186960, Note_on_c, 0, 55, 64
1, 186960, Note_on_c, 0, 67, 76
1, 187040, Note_on_c, 0, 75, 0
1, 187040, Note_on_c, 0, 77, 64
1, 187080, Note_on_c, 0, 67, 0
1, 187080, Note_on_c, 0, 55, 0
1, 187120, Note_on_c, 0, 77, 0
1, 187120, Note_on_c, 0, 75, 64
1, 187200, Tempo, 557621
1, 187200, Note_on_c, 0, 75, 0
1, 187200, Note_on_c, 0, 74, 68
1, 187200, Note_on_c, 0, 53, 68
1, 187200, Note_on_c, 0, 65, 80
1, 187280, Note_on_c, 0, 74, 0
1, 187280, Note_on_c, 0, 75, 64
1, 187320, Note_on_c, 0, 65, 0
1, 187320, Note_on_c, 0, 53, 0
1, 187360, Note_on_c, 0, 75, 0
1, 187360, Note_on_c, 0, 74, 64
1, 187440, Note_on_c, 0, 74, 0
1, 187440, Note_on_c, 0, 75, 68
1, 187440, Note_on_c, 0, 51, 62
1, 187440, Note_on_c, 0, 63, 73
1, 187520, Note_on_c, 0, 75, 0
1, 187520, Note_on_c, 0, 77, 64
1, 187560, Note_on_c, 0, 63, 0
1, 187560, Note_on_c, 0, 51, 0
1, 187600, Note_on_c, 0, 77, 0
1, 187600, Note_on_c, 0, 75, 64
1, 187680, Note_on_c, 0, 75, 0
1, 187680, Note_on_c, 0, 77, 70
1, 187680, Note_on_c, 0, 50, 62
1, 187680, Note_on_c, 0, 62, 74
1, 187760, Note_on_c, 0, 77, 0
1, 187760, Note_on_c, 0, 79, 65
1, 187800, Note_on_c, 0, 62, 0
1, 187800, Note_on_c, 0, 50, 0
1, 187840, Note_on_c, 0, 79, 0
1, 187840, Note_on_c, 0, 77, 66
1, 187920, Note_on_c, 0, 77, 0
1, 187920, Note_on_c, 0, 78, 70
1, 187920, Note_on_c, 0, 48, 62
1, 187920, Note_on_c, 0, 60, 74
1, 188000, Note_on_c, 0, 78, 0
1, 188000, Note_on_c, 0, 79, 66
1, 188040, Note_on_c, 0, 60, 0
1, 188040, Note_on_c, 0, 48, 0
1, 188080, Note_on_c, 0, 79, 0
1, 188080, Note_on_c, 0, 78, 66
1, 188160, Note_on_c, 0, 78, 0
1, 188160, Note_on_c, 0, 79, 72
1, 188160, Note_on_c, 0, 47, 69
1, 188160, Note_on_c, 0, 59, 82
1, 188240, Note_on_c, 0, 79, 0
1, 188240, Note_on_c, 0, 80, 67
1, 188320, Note_on_c, 0, 80, 0
1, 188320, Note_on_c, 0, 79, 67
1, 188400, Note_on_c, 0, 79, 0
1, 188400, Note_on_c, 0, 78, 67
1, 188480, Note_on_c, 0, 78, 0
1, 188480, Note_on_c, 0, 79, 67
1, 188560, Note_on_c, 0, 79, 0
1, 188560, Note_on_c, 0, 78, 67
1, 188640, Tempo, 552384
1, 188640, Note_on_c, 0, 78, 0
1, 188640, Note_on_c, 0, 59, 0
1, 188640, Note_on_c, 0, 47, 0
1, 188640, Note_on_c, 0, 79, 72
1, 188640, Note_on_c, 0, 43, 64
1, 188640, Note_on_c, 0, 55, 76
1, 188669, Control_c, 0, 64, 127
1, 188720, Note_on_c, 0, 79, 0
1, 188720, Note_on_c, 0, 80, 67
1, 188800, Note_on_c, 0, 80, 0
1, 188800, Note_on_c, 0, 79, 67
1, 188880, Note_on_c, 0, 79, 0
1, 188880, Note_on_c, 0, 55, 0
1, 188880, Note_on_c, 0, 43, 0
1, 188880, Note_on_c, 0, 78, 67
1, 188880, Note_on_c, 0, 43, 61
1, 188880, Note_on_c, 0, 55, 72
1, 188960, Note_on_c, 0, 78, 0
1, 188960, Note_on_c, 0, 79, 67
1, 189040, Note_on_c, 0, 79, 0
1, 189040, Note_on_c, 0, 78, 67
1, 189120, Tempo, 549803
1, 189120, Note_on_c, 0, 78, 0
1, 189120, Note_on_c, 0, 55, 0
1, 189120, Note_on_c, 0, 43, 0
1, 189120, Note_on_c, 0, 79, 72
1, 189120, Note_on_c, 0, 43, 64
1, 189120, Note_on_c, 0, 55, 76
1, 189141, Control_c, 0, 64, 0
1, 189184, Control_c, 0, 64, 127
1, 189200, Note_on_c, 0, 79, 0
1, 189200, Note_on_c, 0, 80, 67
1, 189280, Tempo, 552384
1, 189280, Note_on_c, 0, 80, 0
1, 189280, Note_on_c, 0, 79, 67
1, 189360, Note_on_c, 0, 79, 0
1, 189360, Note_on_c, 0, 55, 0
1, 189360, Note_on_c, 0, 43, 0
1, 189360, Note_on_c, 0, 77, 69
1, 189360, Note_on_c, 0, 43, 60
1, 189360, Note_on_c, 0, 55, 71
1, 189400, Tempo, 554939
1, 189440, Note_on_c, 0, 77, 0
1, 189440, Note_on_c, 0, 79, 65
1, 189520, Tempo, 557621
1, 189520, Note_on_c, 0, 79, 0
1, 189520, Note_on_c, 0, 77, 65
1, 189600, Note_on_c, 0, 77, 0
1, 189600, Note_on_c, 0, 55, 0
1, 189600, Note_on_c, 0, 43, 0
1, 189600, Note_on_c, 0, 75, 68
1, 189600, Note_on_c, 0, 43, 64
1, 189600, Note_on_c, 0, 55, 76
1, 189614, Control_c, 0, 64, 0
1, 189640, Tempo, 560276
1, 189657, Control_c, 0, 64, 127
1, 189680, Note_on_c, 0, 75, 0
1, 189680, Note_on_c, 0, 77, 63
1, 189760, Tempo, 562852
1, 189760, Note_on_c, 0, 77, 0
1, 189760, Note_on_c, 0, 75, 63
1, 189840, Note_on_c, 0, 75, 0
1, 189840, Note_on_c, 0, 55, 0
1, 189840, Note_on_c, 0, 43, 0
1, 189840, Note_on_c, 0, 74, 67
1, 189840, Note_on_c, 0, 43, 61
1, 189840, Note_on_c, 0, 55, 72
1, 189880, Tempo, 565611
1, 189920, Note_on_c, 0, 74, 0
1, 189920, Note_on_c, 0, 75, 62
1, 190000, Tempo, 568343
1, 190000, Note_on_c, 0, 75, 0
1, 190000, Note_on_c, 0, 74, 62
1, 190080, Tempo, 571429
1, 190080, Note_on_c, 0, 74, 0
1, 190080, Note_on_c, 0, 55, 0
1, 190080, Note_on_c, 0, 43, 0
1, 190080, Note_on_c, 0, 72, 82
1, 190080, Note_on_c, 0, 48, 71
1, 190080, Note_on_c, 0, 60, 84
1, 190088, Control_c, 0, 64, 0
1, 190320, Tempo, 557621
1, 190320, Note_on_c, 0, 60, 0
1, 190320, Note_on_c, 0, 48, 0
1, 190320, Note_on_c, 0, 72, 0
1, 190320, Note_on_c, 0, 63, 79
1, 190320, Note_on_c, 0, 75, 79
1, 190320, Note_on_c, 0, 43, 63
1, 190400, Note_on_c, 0, 43, 0
1, 190400, Note_on_c, 0, 41, 56
1, 190440, Note_on_c, 0, 75, 0
1, 190440, Note_on_c, 0, 63, 0
1, 190480, Note_on_c, 0, 41, 0
1, 190480, Note_on_c, 0, 43, 57
1, 190560, Tempo, 552384
1, 190560, Note_on_c, 0, 43, 0
1, 190560, Note_on_c, 0, 72, 62
1, 190560, Note_on_c, 0, 84, 74
1, 190560, Note_on_c, 0, 44, 57
1, 190640, Note_on_c, 0, 44, 0
1, 190640, Note_on_c, 0, 48, 58
1, 190680, Note_on_c, 0, 84, 0
1, 190680, Note_on_c, 0, 72, 0
1, 190720, Note_on_c, 0, 48, 0
1, 190720, Note_on_c, 0, 49, 59
1, 190800, Note_on_c, 0, 49, 0
1, 190800, Note_on_c, 0, 70, 62
1, 190800, Note_on_c, 0, 82, 74
1, 190800, Note_on_c, 0, 51, 60
1, 190880, Note_on_c, 0, 51, 0
1, 190880, Note_on_c, 0, 53, 62
1, 190920, Note_on_c, 0, 82, 0
1, 190920, Note_on_c, 0, 70, 0
1, 190960, Note_on_c, 0, 53, 0
1, 190960, Note_on_c, 0, 55, 63
1, 191040, Tempo, 557621
1, 191040, Note_on_c, 0, 55, 0
1, 191040, Note_on_c, 0, 68, 65
1, 191040, Note_on_c, 0, 80, 77
1, 191040, Note_on_c, 0, 56, 60
1, 191120, Note_on_c, 0, 56, 0
1, 191120, Note_on_c, 0, 58, 62
1, 191160, Note_on_c, 0, 80, 0
1, 191160, Note_on_c, 0, 68, 0
1, 191200, Note_on_c, 0, 58, 0
1, 191200, Note_on_c, 0, 60, 63
1, 191280, Note_on_c, 0, 60, 0
1, 191280, Note_on_c, 0, 63, 61
1, 191280, Note_on_c, 0, 75, 72
1, 191280, Note_on_c, 0, 61, 65
1, 191360, Note_on_c, 0, 61, 0
1, 191360, Note_on_c, 0, 60, 63
1, 191400, Note_on_c, 0, 75, 0
1, 191400, Note_on_c, 0, 63, 0
1, 191440, Note_on_c, 0, 60, 0
1, 191440, Note_on_c, 0, 58, 62
1, 191520, Tempo, 557621
1, 191520, Note_on_c, 0, 58, 0
1, 191520, Note_on_c, 0, 65, 62
1, 191520, Note_on_c, 0, 77, 73
1, 191520, Note_on_c, 0, 56, 63
1, 191600, Note_on_c, 0, 56, 0
1, 191600, Note_on_c, 0, 58, 62
1, 191640, Note_on_c, 0, 77, 0
1, 191640, Note_on_c, 0, 65, 0
1, 191680, Note_on_c, 0, 58, 0
1, 191680, Note_on_c, 0, 60, 63
1, 191760, Tempo, 573833
1, 191760, Note_on_c, 0, 60, 0
1, 191760, Note_on_c, 0, 67, 62
1, 191760, Note_on_c, 0, 79, 73
1, 191760, Note_on_c, 0, 61, 65
1, 191840, Note_on_c, 0, 61, 0
1, 191840, Note_on_c, 0, 60, 64
1, 191880, Note_on_c, 0, 79, 0
1, 191880, Note_on_c, 0, 67, 0
1, 191920, Note_on_c, 0, 60, 0
1, 191920, Note_on_c, 0, 58, 63
1, 191980, Tempo, 576701
1, 192000, Tempo, 568343
1, 192000, Note_on_c, 0, 58, 0
1, 192000, Note_on_c, 0, 68, 65
1, 192000, Note_on_c, 0, 80, 77
1, 192000, Note_on_c, 0, 56, 68
1, 192120, Note_on_c, 0, 80, 0
1, 192120, Note_on_c, 0, 68, 0
1, 192240, Note_on_c, 0, 56, 0
1, 192240, Note_on_c, 0, 60, 61
1, 192240, Note_on_c, 0, 72, 72
1, 192240, Note_on_c, 0, 40, 63
1, 192320, Note_on_c, 0, 40, 0
1, 192320, Note_on_c, 0, 38, 56
1, 192360, Note_on_c, 0, 72, 0
1, 192360, Note_on_c, 0, 60, 0
1, 192400, Note_on_c, 0, 38, 0
1, 192400, Note_on_c, 0, 40, 56
1, 192480, Tempo, 552384
1, 192480, Note_on_c, 0, 40, 0
1, 192480, Note_on_c, 0, 68, 66
1, 192480, Note_on_c, 0, 80, 78
1, 192480, Note_on_c, 0, 41, 54
1, 192560, Note_on_c, 0, 41, 0
1, 192560, Note_on_c, 0, 44, 56
1, 192600, Note_on_c, 0, 80, 0
1, 192600, Note_on_c, 0, 68, 0
1, 192640, Note_on_c, 0, 44, 0
1, 192640, Note_on_c, 0, 46, 58
1, 192720, Note_on_c, 0, 46, 0
1, 192720, Note_on_c, 0, 67, 62
1, 192720, Note_on_c, 0, 79, 73
1, 192720, Note_on_c, 0, 48, 60
1, 192800, Note_on_c, 0, 48, 0
1, 192800, Note_on_c, 0, 50, 62
1, 192840, Note_on_c, 0, 79, 0
1, 192840, Note_on_c, 0, 67, 0
1, 192880, Note_on_c, 0, 50, 0
1, 192880, Note_on_c, 0, 52, 63
1, 192960, Tempo, 554939
1, 192960, Note_on_c, 0, 52, 0
1, 192960, Note_on_c, 0, 65, 68
1, 192960, Note_on_c, 0, 77, 80
1, 192960, Note_on_c, 0, 53, 65
1, 193040, Note_on_c, 0, 53, 0
1, 193040, Note_on_c, 0, 55, 65
1, 193080, Note_on_c, 0, 77, 0
1, 193080, Note_on_c, 0, 65, 0
1, 193120, Note_on_c, 0, 55, 0
1, 193120, Note_on_c, 0, 56, 66
1, 193200, Note_on_c, 0, 56, 0
1, 193200, Note_on_c, 0, 60, 63
1, 193200, Note_on_c, 0, 72, 75
1, 193200, Note_on_c, 0, 58, 68
1, 193280, Note_on_c, 0, 58, 0
1, 193280, Note_on_c, 0, 56, 65
1, 193320, Note_on_c, 0, 72, 0
1, 193320, Note_on_c, 0, 60, 0
1, 193360, Note_on_c, 0, 56, 0
1, 193360, Note_on_c, 0, 55, 63
1, 193420, Tempo, 549803
1, 193440, Note_on_c, 0, 55, 0
1, 193440, Note_on_c, 0, 62, 63
1, 193440, Note_on_c, 0, 74, 75
1, 193440, Note_on_c, 0, 53, 60
1, 193480, Tempo, 552384
1, 193520, Note_on_c, 0, 53, 0
1, 193520, Note_on_c, 0, 55, 62
1, 193560, Note_on_c, 0, 74, 0
1, 193560, Note_on_c, 0, 62, 0
1, 193600, Note_on_c, 0, 55, 0
1, 193600, Note_on_c, 0, 56, 64
1, 193680, Tempo, 571102
1, 193680, Note_on_c, 0, 56, 0
1, 193680, Note_on_c, 0, 64, 63
1, 193680, Note_on_c, 0, 76, 75
1, 193680, Note_on_c, 0, 58, 66
1, 193760, Note_on_c, 0, 58, 0
1, 193760, Note_on_c, 0, 56, 64
1, 193800, Note_on_c, 0, 76, 0
1, 193800, Note_on_c, 0, 64, 0
1, 193840, Note_on_c, 0, 56, 0
1, 193840, Note_on_c, 0, 55, 63
1, 193920, Note_on_c, 0, 55, 0
1, 193920, Note_on_c, 0, 65, 66
1, 193920, Note_on_c, 0, 77, 78
1, 193920, Note_on_c, 0, 53, 67
1, 194040, Note_on_c, 0, 77, 0
1, 194040, Note_on_c, 0, 65, 0
1, 194160, Note_on_c, 0, 53, 0
1, 194160, Note_on_c, 0, 77, 62
1, 194160, Note_on_c, 0, 89, 74
1, 194160, Note_on_c, 0, 36, 63
1, 194240, Note_on_c, 0, 36, 0
1, 194240, Note_on_c, 0, 38, 58
1, 194280, Note_on_c, 0, 89, 0
1, 194280, Note_on_c, 0, 77, 0
1, 194320, Tempo, 573833
1, 194320, Note_on_c, 0, 38, 0
1, 194320, Note_on_c, 0, 40, 58
1, 194380, Tempo, 576701
1, 194400, Tempo, 560276
1, 194400, Note_on_c, 0, 40, 0
1, 194400, Note_on_c, 0, 80, 68
1, 194400, Note_on_c, 0, 92, 80
1, 194400, Note_on_c, 0, 41, 63
1, 194480, Note_on_c, 0, 41, 0
1, 194480, Note_on_c, 0, 40, 58
1, 194520, Note_on_c, 0, 92, 0
1, 194520, Note_on_c, 0, 80, 0
1, 194560, Note_on_c, 0, 40, 0
1, 194560, Note_on_c, 0, 41, 58
1, 194640, Note_on_c, 0, 41, 0
1, 194640, Note_on_c, 0, 79, 64
1, 194640, Note_on_c, 0, 91, 76
1, 194640, Note_on_c, 0, 43, 63
1, 194720, Note_on_c, 0, 43, 0
1, 194720, Note_on_c, 0, 41, 60
1, 194760, Note_on_c, 0, 91, 0
1, 194760, Note_on_c, 0, 79, 0
1, 194800, Note_on_c, 0, 41, 0
1, 194800, Note_on_c, 0, 43, 60
1, 194880, Tempo, 557621
1, 194880, Note_on_c, 0, 43, 0
1, 194880, Note_on_c, 0, 77, 68
1, 194880, Note_on_c, 0, 89, 80
1, 194880, Note_on_c, 0, 44, 59
1, 194960, Note_on_c, 0, 44, 0
1, 194960, Note_on_c, 0, 46, 59
1, 195000, Note_on_c, 0, 89, 0
1, 195000, Note_on_c, 0, 77, 0
1, 195040, Note_on_c, 0, 46, 0
1, 195040, Note_on_c, 0, 44, 60
1, 195120, Note_on_c, 0, 44, 0
1, 195120, Note_on_c, 0, 75, 62
1, 195120, Note_on_c, 0, 87, 73
1, 195120, Note_on_c, 0, 43, 61
1, 195200, Note_on_c, 0, 43, 0
1, 195200, Note_on_c, 0, 44, 59
1, 195240, Note_on_c, 0, 87, 0
1, 195240, Note_on_c, 0, 75, 0
1, 195280, Note_on_c, 0, 44, 0
1, 195280, Note_on_c, 0, 43, 59
1, 195360, Note_on_c, 0, 43, 0
1, 195360, Note_on_c, 0, 74, 62
1, 195360, Note_on_c, 0, 86, 74
1, 195360, Note_on_c, 0, 41, 63
1, 195440, Note_on_c, 0, 41, 0
1, 195440, Note_on_c, 0, 43, 61
1, 195480, Note_on_c, 0, 86, 0
1, 195480, Note_on_c, 0, 74, 0
1, 195520, Note_on_c, 0, 43, 0
1, 195520, Note_on_c, 0, 41, 61
1, 195600, Note_on_c, 0, 41, 0
1, 195600, Note_on_c, 0, 72, 62
1, 195600, Note_on_c, 0, 84, 74
1, 195600, Note_on_c, 0, 42, 64
1, 195680, Note_on_c, 0, 42, 0
1, 195680, Note_on_c, 0, 43, 62
1, 195720, Note_on_c, 0, 84, 0
1, 195720, Note_on_c, 0, 72, 0
1, 195760, Note_on_c, 0, 43, 0
1, 195760, Note_on_c, 0, 42, 62
1, 195840, Note_on_c, 0, 42, 0
1, 195840, Note_on_c, 0, 71, 69
1, 195840, Note_on_c, 0, 83, 82
1, 195840, Note_on_c, 0, 43, 67
1, 195920, Note_on_c, 0, 43, 0
1, 195920, Note_on_c, 0, 44, 63
1, 196000, Note_on_c, 0, 44, 0
1, 196000, Note_on_c, 0, 43, 63
1, 196080, Note_on_c, 0, 43, 0
1, 196080, Note_on_c, 0, 42, 67
1, 196160, Note_on_c, 0, 42, 0
1, 196160, Note_on_c, 0, 43, 63
1, 196240, Note_on_c, 0, 43, 0
1, 196240, Note_on_c, 0, 42, 63
1, 196320, Tempo, 552384
1, 196320, Note_on_c, 0, 42, 0
1, 196320, Note_on_c, 0, 83, 0
1, 196320, Note_on_c, 0, 71, 0
1, 196320, Note_on_c, 0, 67, 66
1, 196320, Note_on_c, 0, 79, 78
1, 196320, Note_on_c, 0, 43, 66
1, 196349, Control_c, 0, 64, 127
1, 196400, Note_on_c, 0, 43, 0
1, 196400, Note_on_c, 0, 44, 63
1, 196480, Note_on_c, 0, 44, 0
1, 196480, Note_on_c, 0, 43, 63
1, 196558, Note_on_c, 0, 79, 0
1, 196558, Note_on_c, 0, 67, 0
1, 196560, Note_on_c, 0, 43, 0
1, 196560, Note_on_c, 0, 67, 62
1, 196560, Note_on_c, 0, 79, 73
1, 196560, Note_on_c, 0, 42, 66
1, 196640, Note_on_c, 0, 42, 0
1, 196640, Note_on_c, 0, 43, 62
1, 196720, Note_on_c, 0, 43, 0
1, 196720, Note_on_c, 0, 42, 62
1, 196798, Note_on_c, 0, 79, 0
1, 196798, Note_on_c, 0, 67, 0
1, 196800, Tempo, 549803
1, 196800, Note_on_c, 0, 42, 0
1, 196800, Note_on_c, 0, 67, 66
1, 196800, Note_on_c, 0, 79, 78
1, 196800, Note_on_c, 0, 43, 64
1, 196811, Control_c, 0, 64, 0
1, 196839, Control_c, 0, 64, 127
1, 196880, Note_on_c, 0, 43, 0
1, 196880, Note_on_c, 0, 44, 62
1, 196960, Tempo, 552384
1, 196960, Note_on_c, 0, 44, 0
1, 196960, Note_on_c, 0, 43, 62
1, 197038, Note_on_c, 0, 79, 0
1, 197038, Note_on_c, 0, 67, 0
1, 197040, Note_on_c, 0, 43, 0
1, 197040, Note_on_c, 0, 67, 61
1, 197040, Note_on_c, 0, 79, 72
1, 197040, Note_on_c, 0, 41, 64
1, 197080, Tempo, 554939
1, 197120, Note_on_c, 0, 41, 0
1, 197120, Note_on_c, 0, 43, 61
1, 197200, Tempo, 557621
1, 197200, Note_on_c, 0, 43, 0
1, 197200, Note_on_c, 0, 41, 61
1, 197278, Note_on_c, 0, 79, 0
1, 197278, Note_on_c, 0, 67, 0
1, 197280, Note_on_c, 0, 41, 0
1, 197280, Note_on_c, 0, 67, 66
1, 197280, Note_on_c, 0, 79, 78
1, 197280, Note_on_c, 0, 39, 63
1, 197290, Control_c, 0, 64, 0
1, 197320, Tempo, 560276
1, 197340, Control_c, 0, 64, 127
1, 197360, Note_on_c, 0, 39, 0
1, 197360, Note_on_c, 0, 41, 62
1, 197440, Tempo, 562852
1, 197440, Note_on_c, 0, 41, 0
1, 197440, Note_on_c, 0, 39, 62
1, 197518, Note_on_c, 0, 79, 0
1, 197518, Note_on_c, 0, 67, 0
1, 197520, Note_on_c, 0, 39, 0
1, 197520, Note_on_c, 0, 67, 62
1, 197520, Note_on_c, 0, 79, 73
1, 197520, Note_on_c, 0, 38, 63
1, 197600, Note_on_c, 0, 38, 0
1, 197600, Note_on_c, 0, 39, 60
1, 197680, Note_on_c, 0, 39, 0
1, 197680, Note_on_c, 0, 38, 60
1, 197758, Note_on_c, 0, 79, 0
1, 197758, Note_on_c, 0, 67, 0
1, 197760, Tempo, 571429
1, 197760, Note_on_c, 0, 38, 0
1, 197760, Note_on_c, 0, 72, 71
1, 197760, Note_on_c, 0, 84, 76
1, 197760, Note_on_c, 0, 36, 77
1, 197771, Control_c, 0, 64, 0
1, 197880, Note_on_c, 0, 36, 0
1, 198000, Tempo, 557621
1, 198000, Note_on_c, 0, 84, 0
1, 198000, Note_on_c, 0, 72, 0
1, 198000, Note_on_c, 0, 72, 55
1, 198000, Note_on_c, 0, 41, 79
1, 198000, Note_on_c, 0, 53, 79
1, 198080, Note_on_c, 0, 72, 0
1, 198080, Note_on_c, 0, 74, 56
1, 198120, Note_on_c, 0, 53, 0
1, 198120, Note_on_c, 0, 41, 0
1, 198160, Note_on_c, 0, 74, 0
1, 198160, Note_on_c, 0, 76, 57
1, 198240, Tempo, 552384
1, 198240, Note_on_c, 0, 76, 0
1, 198240, Note_on_c, 0, 77, 58
1, 198240, Note_on_c, 0, 44, 62
1, 198240, Note_on_c, 0, 56, 74
1, 198320, Note_on_c, 0, 77, 0
1, 198320, Note_on_c, 0, 76, 60
1, 198360, Note_on_c, 0, 56, 0
1, 198360, Note_on_c, 0, 44, 0
1, 198400, Note_on_c, 0, 76, 0
1, 198400, Note_on_c, 0, 77, 61
1, 198480, Note_on_c, 0, 77, 0
1, 198480, Note_on_c, 0, 79, 62
1, 198480, Note_on_c, 0, 43, 62
1, 198480, Note_on_c, 0, 55, 74
1, 198560, Note_on_c, 0, 79, 0
1, 198560, Note_on_c, 0, 77, 63
1, 198600, Note_on_c, 0, 55, 0
1, 198600, Note_on_c, 0, 43, 0
1, 198640, Note_on_c, 0, 77, 0
1, 198640, Note_on_c, 0, 79, 63
1, 198720, Tempo, 557621
1, 198720, Note_on_c, 0, 79, 0
1, 198720, Note_on_c, 0, 80, 68
1, 198720, Note_on_c, 0, 41, 68
1, 198720, Note_on_c, 0, 53, 80
1, 198800, Note_on_c, 0, 80, 0
1, 198800, Note_on_c, 0, 82, 64
1, 198840, Note_on_c, 0, 53, 0
1, 198840, Note_on_c, 0, 41, 0
1, 198880, Note_on_c, 0, 82, 0
1, 198880, Note_on_c, 0, 80, 64
1, 198960, Note_on_c, 0, 80, 0
1, 198960, Note_on_c, 0, 79, 68
1, 198960, Note_on_c, 0, 39, 62
1, 198960, Note_on_c, 0, 51, 73
1, 199040, Note_on_c, 0, 79, 0
1, 199040, Note_on_c, 0, 80, 64
1, 199080, Note_on_c, 0, 51, 0
1, 199080, Note_on_c, 0, 39, 0
1, 199120, Note_on_c, 0, 80, 0
1, 199120, Note_on_c, 0, 79, 64
1, 199200, Note_on_c, 0, 79, 0
1, 199200, Note_on_c, 0, 77, 70
1, 199200, Note_on_c, 0, 38, 62
1, 199200, Note_on_c, 0, 50, 74
1, 199280, Note_on_c, 0, 77, 0
1, 199280, Note_on_c, 0, 79, 65
1, 199320, Note_on_c, 0, 50, 0
1, 199320, Note_on_c, 0, 38, 0
1, 199360, Note_on_c, 0, 79, 0
1, 199360, Note_on_c, 0, 77, 66
1, 199440, Note_on_c, 0, 77, 0
1, 199440, Note_on_c, 0, 78, 70
1, 199440, Note_on_c, 0, 36, 62
1, 199440, Note_on_c, 0, 48, 74
1, 199520, Note_on_c, 0, 78, 0
1, 199520, Note_on_c, 0, 79, 66
1, 199560, Note_on_c, 0, 48, 0
1, 199560, Note_on_c, 0, 36, 0
1, 199600, Note_on_c, 0, 79, 0
1, 199600, Note_on_c, 0, 78, 66
1, 199680, Note_on_c, 0, 78, 0
1, 199680, Note_on_c, 0, 79, 72
1, 199680, Note_on_c, 0, 35, 69
1, 199680, Note_on_c, 0, 47, 82
1, 199760, Note_on_c, 0, 79, 0
1, 199760, Note_on_c, 0, 80, 67
1, 199840, Note_on_c, 0, 80, 0
1, 199840, Note_on_c, 0, 79, 67
1, 199920, Note_on_c, 0, 79, 0
1, 199920, Note_on_c, 0, 78, 67
1, 200000, Note_on_c, 0, 78, 0
1, 200000, Note_on_c, 0, 79, 67
1, 200080, Note_on_c, 0, 79, 0
1, 200080, Note_on_c, 0, 78, 67
1, 200160, Tempo, 552384
1, 200160, Note_on_c, 0, 78, 0
1, 200160, Note_on_c, 0, 47, 0
1, 200160, Note_on_c, 0, 35, 0
1, 200160, Note_on_c, 0, 79, 72
1, 200160, Note_on_c, 0, 31, 64
1, 200160, Note_on_c, 0, 43, 76
1, 200197, Control_c, 0, 64, 127
1, 200240, Note_on_c, 0, 79, 0
1, 200240, Note_on_c, 0, 80, 67
1, 200320, Note_on_c, 0, 80, 0
1, 200320, Note_on_c, 0, 79, 67
1, 200398, Note_on_c, 0, 43, 0
1, 200398, Note_on_c, 0, 31, 0
1, 200400, Note_on_c, 0, 79, 0
1, 200400, Note_on_c, 0, 78, 67
1, 200400, Note_on_c, 0, 31, 61
1, 200400, Note_on_c, 0, 43, 72
1, 200480, Note_on_c, 0, 78, 0
1, 200480, Note_on_c, 0, 79, 67
1, 200560, Note_on_c, 0, 79, 0
1, 200560, Note_on_c, 0, 78, 67
1, 200638, Note_on_c, 0, 43, 0
1, 200638, Note_on_c, 0, 31, 0
1, 200640, Tempo, 549803
1, 200640, Note_on_c, 0, 78, 0
1, 200640, Note_on_c, 0, 79, 72
1, 200640, Note_on_c, 0, 31, 64
1, 200640, Note_on_c, 0, 43, 76
1, 200640, Control_c, 0, 64, 0
1, 200676, Control_c, 0, 64, 127
1, 200720, Note_on_c, 0, 79, 0
1, 200720, Note_on_c, 0, 80, 67
1, 200800, Tempo, 552384
1, 200800, Note_on_c, 0, 80, 0
1, 200800, Note_on_c, 0, 79, 67
1, 200878, Note_on_c, 0, 43, 0
1, 200878, Note_on_c, 0, 31, 0
1, 200880, Note_on_c, 0, 79, 0
1, 200880, Note_on_c, 0, 77, 69
1, 200880, Note_on_c, 0, 31, 60
1, 200880, Note_on_c, 0, 43, 71
1, 200920, Tempo, 554939
1, 200960, Note_on_c, 0, 77, 0
1, 200960, Note_on_c, 0, 79, 65
1, 201040, Tempo, 557621
1, 201040, Note_on_c, 0, 79, 0
1, 201040, Note_on_c, 0, 77, 65
1, 201118, Note_on_c, 0, 43, 0
1, 201118, Note_on_c, 0, 31, 0
1, 201120, Note_on_c, 0, 77, 0
1, 201120, Note_on_c, 0, 75, 68
1, 201120, Note_on_c, 0, 31, 64
1, 201120, Note_on_c, 0, 43, 76
1, 201138, Control_c, 0, 64, 0
1, 201160, Tempo, 560276
1, 201187, Control_c, 0, 64, 127
1, 201200, Note_on_c, 0, 75, 0
1, 201200, Note_on_c, 0, 77, 63
1, 201280, Tempo, 562852
1, 201280, Note_on_c, 0, 77, 0
1, 201280, Note_on_c, 0, 75, 63
1, 201358, Note_on_c, 0, 43, 0
1, 201358, Note_on_c, 0, 31, 0
1, 201360, Note_on_c, 0, 75, 0
1, 201360, Note_on_c, 0, 74, 67
1, 201360, Note_on_c, 0, 31, 61
1, 201360, Note_on_c, 0, 43, 72
1, 201400, Tempo, 565611
1, 201440, Note_on_c, 0, 74, 0
1, 201440, Note_on_c, 0, 75, 62
1, 201520, Tempo, 568343
1, 201520, Note_on_c, 0, 75, 0
1, 201520, Note_on_c, 0, 74, 62
1, 201598, Note_on_c, 0, 43, 0
1, 201598, Note_on_c, 0, 31, 0
1, 201600, Tempo, 555658
1, 201600, Note_on_c, 0, 74, 0
1, 201600, Note_on_c, 0, 72, 72
1, 201600, Note_on_c, 0, 36, 69
1, 201600, Note_on_c, 0, 48, 82
1, 201600, Control_c, 0, 64, 0
1, 201680, Note_on_c, 0, 72, 0
1, 201680, Note_on_c, 0, 71, 67
1, 201760, Note_on_c, 0, 71, 0
1, 201760, Note_on_c, 0, 72, 67
1, 201840, Note_on_c, 0, 72, 0
1, 201840, Note_on_c, 0, 48, 0
1, 201840, Note_on_c, 0, 36, 0
1, 201840, Note_on_c, 0, 74, 67
1, 201920, Note_on_c, 0, 74, 0
1, 201920, Note_on_c, 0, 72, 67
1, 202000, Note_on_c, 0, 72, 0
1, 202000, Note_on_c, 0, 74, 67
1, 202080, Tempo, 552384
1, 202080, Note_on_c, 0, 74, 0
1, 202080, Note_on_c, 0, 75, 75
1, 202080, Note_on_c, 0, 43, 67
1, 202080, Note_on_c, 0, 55, 79
1, 202109, Control_c, 0, 64, 127
1, 202160, Note_on_c, 0, 75, 0
1, 202160, Note_on_c, 0, 74, 70
1, 202240, Note_on_c, 0, 74, 0
1, 202240, Note_on_c, 0, 75, 70
1, 202318, Note_on_c, 0, 55, 0
1, 202318, Note_on_c, 0, 43, 0
1, 202320, Note_on_c, 0, 75, 0
1, 202320, Note_on_c, 0, 77, 70
1, 202320, Note_on_c, 0, 43, 64
1, 202320, Note_on_c, 0, 55, 75
1, 202400, Note_on_c, 0, 77, 0
1, 202400, Note_on_c, 0, 75, 70
1, 202480, Note_on_c, 0, 75, 0
1, 202480, Note_on_c, 0, 77, 70
1, 202558, Note_on_c, 0, 55, 0
1, 202558, Note_on_c, 0, 43, 0
1, 202560, Tempo, 549803
1, 202560, Note_on_c, 0, 77, 0
1, 202560, Note_on_c, 0, 79, 75
1, 202560, Note_on_c, 0, 43, 67
1, 202560, Note_on_c, 0, 55, 79
1, 202574, Control_c, 0, 64, 0
1, 202606, Control_c, 0, 64, 127
1, 202640, Note_on_c, 0, 79, 0
1, 202640, Note_on_c, 0, 80, 70
1, 202720, Tempo, 552384
1, 202720, Note_on_c, 0, 80, 0
1, 202720, Note_on_c, 0, 79, 70
1, 202798, Note_on_c, 0, 55, 0
1, 202798, Note_on_c, 0, 43, 0
1, 202800, Note_on_c, 0, 79, 0
1, 202800, Note_on_c, 0, 77, 72
1, 202800, Note_on_c, 0, 43, 63
1, 202800, Note_on_c, 0, 55, 74
1, 202840, Tempo, 554939
1, 202880, Note_on_c, 0, 77, 0
1, 202880, Note_on_c, 0, 79, 68
1, 202960, Tempo, 557621
1, 202960, Note_on_c, 0, 79, 0
1, 202960, Note_on_c, 0, 77, 68
1, 203038, Note_on_c, 0, 55, 0
1, 203038, Note_on_c, 0, 43, 0
1, 203040, Note_on_c, 0, 77, 0
1, 203040, Note_on_c, 0, 75, 71
1, 203040, Note_on_c, 0, 43, 67
1, 203040, Note_on_c, 0, 55, 79
1, 203058, Control_c, 0, 64, 0
1, 203080, Tempo, 560276
1, 203104, Control_c, 0, 64, 127
1, 203120, Note_on_c, 0, 75, 0
1, 203120, Note_on_c, 0, 77, 66
1, 203200, Tempo, 562852
1, 203200, Note_on_c, 0, 77, 0
1, 203200, Note_on_c, 0, 75, 66
1, 203278, Note_on_c, 0, 55, 0
1, 203278, Note_on_c, 0, 43, 0
1, 203280, Note_on_c, 0, 75, 0
1, 203280, Note_on_c, 0, 74, 70
1, 203280, Note_on_c, 0, 43, 64
1, 203280, Note_on_c, 0, 55, 75
1, 203320, Tempo, 565611
1, 203360, Note_on_c, 0, 74, 0
1, 203360, Note_on_c, 0, 75, 65
1, 203440, Tempo, 568343
1, 203440, Note_on_c, 0, 75, 0
1, 203440, Note_on_c, 0, 74, 65
1, 203518, Note_on_c, 0, 55, 0
1, 203518, Note_on_c, 0, 43, 0
1, 203520, Tempo, 555658
1, 203520, Note_on_c, 0, 74, 0
1, 203520, Note_on_c, 0, 72, 75
1, 203520, Note_on_c, 0, 48, 72
1, 203520, Note_on_c, 0, 60, 86
1, 203520, Control_c, 0, 64, 0
1, 203600, Note_on_c, 0, 72, 0
1, 203600, Note_on_c, 0, 71, 70
1, 203680, Note_on_c, 0, 71, 0
1, 203680, Note_on_c, 0, 72, 70
1, 203760, Note_on_c, 0, 72, 0
1, 203760, Note_on_c, 0, 60, 0
1, 203760, Note_on_c, 0, 48, 0
1, 203760, Note_on_c, 0, 74, 70
1, 203840, Note_on_c, 0, 74, 0
1, 203840, Note_on_c, 0, 72, 70
1, 203920, Note_on_c, 0, 72, 0
1, 203920, Note_on_c, 0, 74, 70
1, 204000, Tempo, 552384
1, 204000, Note_on_c, 0, 74, 0
1, 204000, Note_on_c, 0, 75, 79
1, 204000, Note_on_c, 0, 31, 80
1, 204000, Note_on_c, 0, 43, 95
1, 204032, Control_c, 0, 64, 127
1, 204080, Note_on_c, 0, 75, 0
1, 204080, Note_on_c, 0, 74, 73
1, 204160, Note_on_c, 0, 74, 0
1, 204160, Note_on_c, 0, 75, 73
1, 204238, Note_on_c, 0, 43, 0
1, 204238, Note_on_c, 0, 31, 0
1, 204240, Note_on_c, 0, 75, 0
1, 204240, Note_on_c, 0, 77, 73
1, 204240, Note_on_c, 0, 31, 77
1, 204240, Note_on_c, 0, 43, 90
1, 204320, Note_on_c, 0, 77, 0
1, 204320, Note_on_c, 0, 75, 73
1, 204400, Note_on_c, 0, 75, 0
1, 204400, Note_on_c, 0, 77, 73
1, 204478, Note_on_c, 0, 43, 0
1, 204478, Note_on_c, 0, 31, 0
1, 204480, Tempo, 549803
1, 204480, Note_on_c, 0, 77, 0
1, 204480, Note_on_c, 0, 79, 79
1, 204480, Note_on_c, 0, 31, 80
1, 204480, Note_on_c, 0, 43, 95
1, 204496, Control_c, 0, 64, 0
1, 204544, Control_c, 0, 64, 127
1, 204560, Note_on_c, 0, 79, 0
1, 204560, Note_on_c, 0, 80, 73
1, 204640, Tempo, 552384
1, 204640, Note_on_c, 0, 80, 0
1, 204640, Note_on_c, 0, 79, 73
1, 204718, Note_on_c, 0, 43, 0
1, 204718, Note_on_c, 0, 31, 0
1, 204720, Note_on_c, 0, 79, 0
1, 204720, Note_on_c, 0, 77, 75
1, 204720, Note_on_c, 0, 31, 75
1, 204720, Note_on_c, 0, 43, 89
1, 204760, Tempo, 554939
1, 204800, Note_on_c, 0, 77, 0
1, 204800, Note_on_c, 0, 79, 71
1, 204880, Tempo, 557621
1, 204880, Note_on_c, 0, 79, 0
1, 204880, Note_on_c, 0, 77, 71
1, 204958, Note_on_c, 0, 43, 0
1, 204958, Note_on_c, 0, 31, 0
1, 204960, Note_on_c, 0, 77, 0
1, 204960, Note_on_c, 0, 75, 74
1, 204960, Note_on_c, 0, 31, 80
1, 204960, Note_on_c, 0, 43, 95
1, 204976, Control_c, 0, 64, 0
1, 205000, Tempo, 560276
1, 205010, Control_c, 0, 64, 127
1, 205040, Note_on_c, 0, 75, 0
1, 205040, Note_on_c, 0, 77, 69
1, 205120, Tempo, 562852
1, 205120, Note_on_c, 0, 77, 0
1, 205120, Note_on_c, 0, 75, 69
1, 205198, Note_on_c, 0, 43, 0
1, 205198, Note_on_c, 0, 31, 0
1, 205200, Note_on_c, 0, 75, 0
1, 205200, Note_on_c, 0, 74, 73
1, 205200, Note_on_c, 0, 31, 77
1, 205200, Note_on_c, 0, 43, 90
1, 205240, Tempo, 565611
1, 205280, Note_on_c, 0, 74, 0
1, 205280, Note_on_c, 0, 75, 68
1, 205360, Tempo, 568343
1, 205360, Note_on_c, 0, 75, 0
1, 205360, Note_on_c, 0, 74, 68
1, 205438, Note_on_c, 0, 43, 0
1, 205438, Note_on_c, 0, 31, 0
1, 205440, Tempo, 555658
1, 205440, Note_on_c, 0, 74, 0
1, 205440, Note_on_c, 0, 72, 79
1, 205440, Note_on_c, 0, 36, 85
1, 205440, Note_on_c, 0, 48, 103
1, 205444, Control_c, 0, 64, 0
1, 205520, Note_on_c, 0, 72, 0
1, 205520, Note_on_c, 0, 71, 69
1, 205600, Note_on_c, 0, 71, 0
1, 205600, Note_on_c, 0, 72, 71
1, 205603, Control_c, 0, 64, 127
1, 205680, Note_on_c, 0, 72, 0
1, 205680, Note_on_c, 0, 48, 0
1, 205680, Note_on_c, 0, 36, 0
1, 205680, Note_on_c, 0, 74, 73
1, 205760, Note_on_c, 0, 74, 0
1, 205760, Note_on_c, 0, 75, 75
1, 205840, Note_on_c, 0, 75, 0
1, 205840, Note_on_c, 0, 77, 78
1, 205920, Tempo, 552384
1, 205920, Note_on_c, 0, 77, 0
1, 205920, Note_on_c, 0, 79, 80
1, 205920, Note_on_c, 0, 31, 80
1, 205920, Note_on_c, 0, 43, 95
1, 205937, Control_c, 0, 64, 0
1, 206000, Note_on_c, 0, 79, 0
1, 206000, Note_on_c, 0, 80, 77
1, 206072, Control_c, 0, 64, 127
1, 206080, Note_on_c, 0, 80, 0
1, 206080, Note_on_c, 0, 79, 75
1, 206160, Note_on_c, 0, 79, 0
1, 206160, Note_on_c, 0, 43, 0
1, 206160, Note_on_c, 0, 31, 0
1, 206160, Note_on_c, 0, 77, 74
1, 206240, Note_on_c, 0, 77, 0
1, 206240, Note_on_c, 0, 75, 73
1, 206320, Note_on_c, 0, 75, 0
1, 206320, Note_on_c, 0, 74, 73
1, 206400, Tempo, 555658
1, 206400, Note_on_c, 0, 74, 0
1, 206400, Note_on_c, 0, 72, 79
1, 206400, Note_on_c, 0, 36, 85
1, 206400, Note_on_c, 0, 48, 103
1, 206409, Control_c, 0, 64, 0
1, 206452, Control_c, 0, 64, 127
1, 206480, Note_on_c, 0, 72, 0
1, 206480, Note_on_c, 0, 71, 69
1, 206560, Note_on_c, 0, 71, 0
1, 206560, Note_on_c, 0, 72, 71
1, 206640, Note_on_c, 0, 72, 0
1, 206640, Note_on_c, 0, 48, 0
1, 206640, Note_on_c, 0, 36, 0
1, 206640, Note_on_c, 0, 74, 73
1, 206720, Note_on_c, 0, 74, 0
1, 206720, Note_on_c, 0, 75, 75
1, 206800, Note_on_c, 0, 75, 0
1, 206800, Note_on_c, 0, 77, 78
1, 206880, Tempo, 552384
1, 206880, Note_on_c, 0, 77, 0
1, 206880, Note_on_c, 0, 79, 80
1, 206880, Note_on_c, 0, 31, 80
1, 206880, Note_on_c, 0, 43, 95
1, 206894, Control_c, 0, 64, 0
1, 206935, Control_c, 0, 64, 127
1, 206960, Note_on_c, 0, 79, 0
1, 206960, Note_on_c, 0, 80, 77
1, 207040, Note_on_c, 0, 80, 0
1, 207040, Note_on_c, 0, 79, 75
1, 207120, Note_on_c, 0, 79, 0
1, 207120, Note_on_c, 0, 43, 0
1, 207120, Note_on_c, 0, 31, 0
1, 207120, Note_on_c, 0, 77, 74
1, 207200, Note_on_c, 0, 77, 0
1, 207200, Note_on_c, 0, 75, 73
1, 207280, Note_on_c, 0, 75, 0
1, 207280, Note_on_c, 0, 74, 73
1, 207360, Tempo, 560800
1, 207360, Note_on_c, 0, 74, 0
1, 207360, Note_on_c, 0, 60, 85
1, 207360, Note_on_c, 0, 72, 101
1, 207360, Note_on_c, 0, 36, 73
1, 207360, Note_on_c, 0, 48, 86
1, 207381, Control_c, 0, 64, 0
1, 207480, Note_on_c, 0, 48, 0
1, 207480, Note_on_c, 0, 60, 0
1, 207480, Note_on_c, 0, 72, 0
1, 207480, Note_on_c, 0, 36, 0
1, 207840, Note_on_c, 0, 60, 85
1, 207840, Note_on_c, 0, 72, 101
1, 207840, Note_on_c, 0, 36, 73
1, 207840, Note_on_c, 0, 48, 86
1, 207960, Note_on_c, 0, 48, 0
1, 207960, Note_on_c, 0, 60, 0
1, 207960, Note_on_c, 0, 72, 0
1, 207960, Note_on_c, 0, 36, 0
1, 208320, Note_on_c, 0, 60, 83
1, 208320, Note_on_c, 0, 72, 99
1, 208320, Note_on_c, 0, 36, 73
1, 208320, Note_on_c, 0, 48, 86
1, 208560, Note_on_c, 0, 48, 0
1, 208560, Note_on_c, 0, 60, 0
1, 208560, Note_on_c, 0, 72, 0
1, 208560, Note_on_c, 0, 36, 0
1, 208800, Tempo, 590842
1, 209280, Note_on_c, 0, 60, 62
1, 209280, Note_on_c, 0, 72, 73
1, 209280, Note_on_c, 0, 36, 48
1, 209280, Note_on_c, 0, 48, 57
1, 209760, Note_on_c, 0, 48, 0
1, 209760, Note_on_c, 0, 60, 0
1, 209760, Note_on_c, 0, 72, 0
1, 209760, Note_on_c, 0, 36, 0
1, 210240, Note_on_c, 0, 60, 47
1, 210240, Note_on_c, 0, 72, 56
1, 210240, Note_on_c, 0, 36, 39
1, 210240, Note_on_c, 0, 48, 46
1, 210720, Note_on_c, 0, 48, 0
1, 210720, Note_on_c, 0, 60, 0
1, 210720, Note_on_c, 0, 72, 0
1, 210720, Note_on_c, 0, 36, 0
1, 211200, Tempo, 621182
1, 211200, Note_on_c, 0, 56, 108
1, 211200, Note_on_c, 0, 32, 70
1, 211200, Note_on_c, 0, 44, 82
1, 211327, Control_c, 0, 64, 127
1, 211440, Note_on_c, 0, 44, 0
1, 211440, Note_on_c, 0, 32, 0
1, 211440, Note_on_c, 0, 56, 0
1, 211680, Tempo, 656383
1, 211680, Note_on_c, 0, 63, 81
1, 211680, Note_on_c, 0, 68, 81
1, 211680, Note_on_c, 0, 72, 81
1, 211680, Note_on_c, 0, 75, 96
1, 211680, Note_on_c, 0, 44, 58
1, 211680, Note_on_c, 0, 48, 58
1, 211680, Note_on_c, 0, 51, 58
1, 211680, Note_on_c, 0, 56, 69
1, 211920, Note_on_c, 0, 56, 0
1, 211920, Note_on_c, 0, 63, 0
1, 211920, Note_on_c, 0, 44, 0
1, 211920, Note_on_c, 0, 68, 0
1, 211920, Note_on_c, 0, 72, 0
1, 211920, Note_on_c, 0, 75, 0
1, 211920, Note_on_c, 0, 48, 0
1, 211920, Note_on_c, 0, 51, 0
1, 212160, Tempo, 597907
1, 212160, Note_on_c, 0, 75, 81
1, 212160, Note_on_c, 0, 80, 81
1, 212160, Note_on_c, 0, 84, 81
1, 212160, Note_on_c, 0, 87, 97
1, 212160, Note_on_c, 0, 56, 60
1, 212160, Note_on_c, 0, 60, 60
1, 212160, Note_on_c, 0, 63, 60
1, 212160, Note_on_c, 0, 68, 71
1, 212880, Tempo, 612245
1, 212880, Note_on_c, 0, 68, 0
1, 212880, Note_on_c, 0, 75, 0
1, 212880, Note_on_c, 0, 56, 0
1, 212880, Note_on_c, 0, 80, 0
1, 212880, Note_on_c, 0, 84, 0
1, 212880, Note_on_c, 0, 87, 0
1, 212880, Note_on_c, 0, 60, 0
1, 212880, Note_on_c, 0, 63, 0
1, 212880, Note_on_c, 0, 84, 64
1, 212880, Note_on_c, 0, 75, 54
1, 212880, Note_on_c, 0, 56, 40
1, 212880, Note_on_c, 0, 60, 40
1, 212880, Note_on_c, 0, 63, 40
1, 212880, Note_on_c, 0, 68, 48
1, 213120, Tempo, 618174
1, 213120, Note_on_c, 0, 68, 0
1, 213120, Note_on_c, 0, 75, 0
1, 213120, Note_on_c, 0, 56, 0
1, 213120, Note_on_c, 0, 84, 0
1, 213120, Note_on_c, 0, 63, 0
1, 213120, Note_on_c, 0, 60, 0
1, 213120, Note_on_c, 0, 73, 57
1, 213120, Note_on_c, 0, 82, 68
1, 213120, Note_on_c, 0, 56, 44
1, 213120, Note_on_c, 0, 58, 44
1, 213120, Note_on_c, 0, 61, 44
1, 213120, Note_on_c, 0, 63, 44
1, 213120, Note_on_c, 0, 67, 52
1, 213133, Control_c, 0, 64, 0
1, 213289, Control_c, 0, 64, 127
1, 213600, Tempo, 624285
1, 213600, Note_on_c, 0, 67, 0
1, 213600, Note_on_c, 0, 61, 0
1, 213600, Note_on_c, 0, 82, 0
1, 213600, Note_on_c, 0, 56, 0
1, 213600, Note_on_c, 0, 73, 0
1, 213600, Note_on_c, 0, 63, 0
1, 213600, Note_on_c, 0, 58, 0
1, 213600, Note_on_c, 0, 73, 50
1, 213600, Note_on_c, 0, 75, 60
1, 213600, Note_on_c, 0, 56, 33
1, 213600, Note_on_c, 0, 58, 33
1, 213600, Note_on_c, 0, 61, 33
1, 213600, Note_on_c, 0, 63, 33
1, 213600, Note_on_c, 0, 67, 39
1, 214080, Note_on_c, 0, 67, 0
1, 214080, Note_on_c, 0, 61, 0
1, 214080, Note_on_c, 0, 75, 0
1, 214080, Note_on_c, 0, 56, 0
1, 214080, Note_on_c, 0, 73, 0
1, 214080, Note_on_c, 0, 63, 0
1, 214080, Note_on_c, 0, 58, 0
1, 214080, Note_on_c, 0, 72, 50
1, 214080, Note_on_c, 0, 80, 60
1, 214080, Note_on_c, 0, 56, 33
1, 214080, Note_on_c, 0, 60, 33
1, 214080, Note_on_c, 0, 63, 33
1, 214080, Note_on_c, 0, 68, 39
1, 214087, Control_c, 0, 64, 0
1, 214560, Note_on_c, 0, 68, 0
1, 214560, Note_on_c, 0, 80, 0
1, 214560, Note_on_c, 0, 56, 0
1, 214560, Note_on_c, 0, 72, 0
1, 214560, Note_on_c, 0, 63, 0
1, 214560, Note_on_c, 0, 60, 0
1, 215040, Tempo, 636672
1, 215040, Note_on_c, 0, 53, 108
1, 215040, Note_on_c, 0, 29, 70
1, 215040, Note_on_c, 0, 41, 82
1, 215083, Control_c, 0, 64, 127
1, 215280, Note_on_c, 0, 41, 0
1, 215280, Note_on_c, 0, 29, 0
1, 215280, Note_on_c, 0, 53, 0
1, 215520, Tempo, 649702
1, 215520, Note_on_c, 0, 60, 81
1, 215520, Note_on_c, 0, 65, 81
1, 215520, Note_on_c, 0, 68, 81
1, 215520, Note_on_c, 0, 72, 96
1, 215520, Note_on_c, 0, 41, 58
1, 215520, Note_on_c, 0, 44, 58
1, 215520, Note_on_c, 0, 48, 58
1, 215520, Note_on_c, 0, 53, 69
1, 215760, Note_on_c, 0, 53, 0
1, 215760, Note_on_c, 0, 60, 0
1, 215760, Note_on_c, 0, 41, 0
1, 215760, Note_on_c, 0, 65, 0
1, 215760, Note_on_c, 0, 68, 0
1, 215760, Note_on_c, 0, 72, 0
1, 215760, Note_on_c, 0, 44, 0
1, 215760, Note_on_c, 0, 48, 0
1, 216000, Tempo, 597907
1, 216000, Note_on_c, 0, 72, 79
1, 216000, Note_on_c, 0, 77, 79
1, 216000, Note_on_c, 0, 80, 79
1, 216000, Note_on_c, 0, 84, 95
1, 216000, Note_on_c, 0, 53, 59
1, 216000, Note_on_c, 0, 56, 59
1, 216000, Note_on_c, 0, 60, 59
1, 216000, Note_on_c, 0, 65, 70
1, 216720, Tempo, 612245
1, 216720, Note_on_c, 0, 65, 0
1, 216720, Note_on_c, 0, 72, 0
1, 216720, Note_on_c, 0, 53, 0
1, 216720, Note_on_c, 0, 77, 0
1, 216720, Note_on_c, 0, 80, 0
1, 216720, Note_on_c, 0, 84, 0
1, 216720, Note_on_c, 0, 56, 0
1, 216720, Note_on_c, 0, 60, 0
1, 216720, Note_on_c, 0, 80, 64
1, 216720, Note_on_c, 0, 72, 54
1, 216720, Note_on_c, 0, 53, 40
1, 216720, Note_on_c, 0, 56, 40
1, 216720, Note_on_c, 0, 60, 40
1, 216720, Note_on_c, 0, 65, 48
1, 216960, Tempo, 618174
1, 216960, Note_on_c, 0, 65, 0
1, 216960, Note_on_c, 0, 72, 0
1, 216960, Note_on_c, 0, 53, 0
1, 216960, Note_on_c, 0, 80, 0
1, 216960, Note_on_c, 0, 60, 0
1, 216960, Note_on_c, 0, 56, 0
1, 216960, Note_on_c, 0, 70, 57
1, 216960, Note_on_c, 0, 79, 68
1, 216960, Note_on_c, 0, 53, 44
1, 216960, Note_on_c, 0, 55, 44
1, 216960, Note_on_c, 0, 58, 44
1, 216960, Note_on_c, 0, 60, 44
1, 216960, Note_on_c, 0, 64, 52
1, 216970, Control_c, 0, 64, 0
1, 217212, Control_c, 0, 64, 127
1, 217440, Tempo, 624285
1, 217440, Note_on_c, 0, 64, 0
1, 217440, Note_on_c, 0, 58, 0
1, 217440, Note_on_c, 0, 79, 0
1, 217440, Note_on_c, 0, 53, 0
1, 217440, Note_on_c, 0, 70, 0
1, 217440, Note_on_c, 0, 60, 0
1, 217440, Note_on_c, 0, 55, 0
1, 217440, Note_on_c, 0, 70, 50
1, 217440, Note_on_c, 0, 72, 60
1, 217440, Note_on_c, 0, 53, 33
1, 217440, Note_on_c, 0, 55, 33
1, 217440, Note_on_c, 0, 58, 33
1, 217440, Note_on_c, 0, 60, 33
1, 217440, Note_on_c, 0, 64, 39
1, 217920, Note_on_c, 0, 64, 0
1, 217920, Note_on_c, 0, 58, 0
1, 217920, Note_on_c, 0, 72, 0
1, 217920, Note_on_c, 0, 53, 0
1, 217920, Note_on_c, 0, 70, 0
1, 217920, Note_on_c, 0, 60, 0
1, 217920, Note_on_c, 0, 55, 0
1, 217920, Note_on_c, 0, 68, 50
1, 217920, Note_on_c, 0, 77, 60
1, 217920, Note_on_c, 0, 53, 33
1, 217920, Note_on_c, 0, 56, 33
1, 217920, Note_on_c, 0, 60, 33
1, 217920, Note_on_c, 0, 65, 39
1, 217924, Control_c, 0, 64, 0
1, 218400, Note_on_c, 0, 65, 0
1, 218400, Note_on_c, 0, 77, 0
1, 218400, Note_on_c, 0, 53, 0
1, 218400, Note_on_c, 0, 68, 0
1, 218400, Note_on_c, 0, 60, 0
1, 218400, Note_on_c, 0, 56, 0
1, 218880, Tempo, 636672
1, 218880, Note_on_c, 0, 61, 108
1, 218880, Note_on_c, 0, 37, 70
1, 218880, Note_on_c, 0, 49, 82
1, 218949, Control_c, 0, 64, 127
1, 219120, Note_on_c, 0, 49, 0
1, 219120, Note_on_c, 0, 37, 0
1, 219120, Note_on_c, 0, 61, 0
1, 219360, Tempo, 666815
1, 219360, Note_on_c, 0, 68, 81
1, 219360, Note_on_c, 0, 73, 81
1, 219360, Note_on_c, 0, 77, 81
1, 219360, Note_on_c, 0, 80, 96
1, 219360, Note_on_c, 0, 49, 58
1, 219360, Note_on_c, 0, 53, 58
1, 219360, Note_on_c, 0, 56, 58
1, 219360, Note_on_c, 0, 61, 69
1, 219600, Note_on_c, 0, 61, 0
1, 219600, Note_on_c, 0, 68, 0
1, 219600, Note_on_c, 0, 49, 0
1, 219600, Note_on_c, 0, 73, 0
1, 219600, Note_on_c, 0, 77, 0
1, 219600, Note_on_c, 0, 80, 0
1, 219600, Note_on_c, 0, 53, 0
1, 219600, Note_on_c, 0, 56, 0
1, 219840, Tempo, 597907
1, 219840, Note_on_c, 0, 80, 81
1, 219840, Note_on_c, 0, 85, 81
1, 219840, Note_on_c, 0, 89, 81
1, 219840, Note_on_c, 0, 92, 97
1, 219840, Note_on_c, 0, 61, 60
1, 219840, Note_on_c, 0, 65, 60
1, 219840, Note_on_c, 0, 68, 60
1, 219840, Note_on_c, 0, 73, 71
1, 220560, Tempo, 612245
1, 220560, Note_on_c, 0, 73, 0
1, 220560, Note_on_c, 0, 80, 0
1, 220560, Note_on_c, 0, 61, 0
1, 220560, Note_on_c, 0, 85, 0
1, 220560, Note_on_c, 0, 89, 0
1, 220560, Note_on_c, 0, 92, 0
1, 220560, Note_on_c, 0, 65, 0
1, 220560, Note_on_c, 0, 68, 0
1, 220560, Note_on_c, 0, 89, 64
1, 220560, Note_on_c, 0, 80, 54
1, 220560, Note_on_c, 0, 61, 40
1, 220560, Note_on_c, 0, 65, 40
1, 220560, Note_on_c, 0, 68, 40
1, 220560, Note_on_c, 0, 73, 48
1, 220800, Tempo, 618174
1, 220800, Note_on_c, 0, 73, 0
1, 220800, Note_on_c, 0, 80, 0
1, 220800, Note_on_c, 0, 61, 0
1, 220800, Note_on_c, 0, 89, 0
1, 220800, Note_on_c, 0, 68, 0
1, 220800, Note_on_c, 0, 65, 0
1, 220800, Note_on_c, 0, 78, 57
1, 220800, Note_on_c, 0, 87, 68
1, 220800, Note_on_c, 0, 61, 44
1, 220800, Note_on_c, 0, 63, 44
1, 220800, Note_on_c, 0, 66, 44
1, 220800, Note_on_c, 0, 68, 44
1, 220800, Note_on_c, 0, 72, 52
1, 220812, Control_c, 0, 64, 0
1, 220943, Control_c, 0, 64, 127
1, 221280, Tempo, 624285
1, 221280, Note_on_c, 0, 72, 0
1, 221280, Note_on_c, 0, 66, 0
1, 221280, Note_on_c, 0, 87, 0
1, 221280, Note_on_c, 0, 61, 0
1, 221280, Note_on_c, 0, 78, 0
1, 221280, Note_on_c, 0, 68, 0
1, 221280, Note_on_c, 0, 63, 0
1, 221280, Note_on_c, 0, 78, 50
1, 221280, Note_on_c, 0, 80, 60
1, 221280, Note_on_c, 0, 61, 33
1, 221280, Note_on_c, 0, 63, 33
1, 221280, Note_on_c, 0, 66, 33
1, 221280, Note_on_c, 0, 68, 33
1, 221280, Note_on_c, 0, 72, 39
1, 221760, Note_on_c, 0, 72, 0
1, 221760, Note_on_c, 0, 66, 0
1, 221760, Note_on_c, 0, 80, 0
1, 221760, Note_on_c, 0, 61, 0
1, 221760, Note_on_c, 0, 78, 0
1, 221760, Note_on_c, 0, 68, 0
1, 221760, Note_on_c, 0, 63, 0
1, 221760, Note_on_c, 0, 77, 50
1, 221760, Note_on_c, 0, 85, 60
1, 221760, Note_on_c, 0, 61, 33
1, 221760, Note_on_c, 0, 65, 33
1, 221760, Note_on_c, 0, 68, 33
1, 221760, Note_on_c, 0, 73, 39
1, 221776, Control_c, 0, 64, 0
1, 222480, Tempo, 612245
1, 222480, Note_on_c, 0, 73, 0
1, 222480, Note_on_c, 0, 85, 0
1, 222480, Note_on_c, 0, 61, 0
1, 222480, Note_on_c, 0, 77, 0
1, 222480, Note_on_c, 0, 68, 0
1, 222480, Note_on_c, 0, 65, 0
1, 222480, Note_on_c, 0, 77, 51
1, 222480, Note_on_c, 0, 68, 43
1, 222480, Note_on_c, 0, 49, 32
1, 222480, Note_on_c, 0, 56, 32
1, 222480, Note_on_c, 0, 61, 38
1, 222720, Tempo, 618174
1, 222720, Note_on_c, 0, 61, 0
1, 222720, Note_on_c, 0, 49, 0
1, 222720, Note_on_c, 0, 77, 0
1, 222720, Note_on_c, 0, 68, 0
1, 222720, Note_on_c, 0, 56, 0
1, 222720, Note_on_c, 0, 66, 45
1, 222720, Note_on_c, 0, 75, 54
1, 222720, Note_on_c, 0, 49, 35
1, 222720, Note_on_c, 0, 56, 35
1, 222720, Note_on_c, 0, 60, 41
1, 222812, Control_c, 0, 64, 127
1, 223200, Tempo, 624285
1, 223200, Note_on_c, 0, 60, 0
1, 223200, Note_on_c, 0, 49, 0
1, 223200, Note_on_c, 0, 66, 0
1, 223200, Note_on_c, 0, 75, 0
1, 223200, Note_on_c, 0, 56, 0
1, 223200, Note_on_c, 0, 66, 39
1, 223200, Note_on_c, 0, 68, 47
1, 223200, Note_on_c, 0, 49, 26
1, 223200, Note_on_c, 0, 56, 26
1, 223200, Note_on_c, 0, 60, 31
1, 223680, Note_on_c, 0, 60, 0
1, 223680, Note_on_c, 0, 49, 0
1, 223680, Note_on_c, 0, 66, 0
1, 223680, Note_on_c, 0, 68, 0
1, 223680, Note_on_c, 0, 56, 0
1, 223680, Note_on_c, 0, 65, 39
1, 223680, Note_on_c, 0, 73, 47
1, 223680, Note_on_c, 0, 49, 26
1, 223680, Note_on_c, 0, 56, 26
1, 223680, Note_on_c, 0, 61, 31
1, 223697, Control_c, 0, 64, 0
1, 224400, Tempo, 612245
1, 224400, Note_on_c, 0, 61, 0
1, 224400, Note_on_c, 0, 49, 0
1, 224400, Note_on_c, 0, 65, 0
1, 224400, Note_on_c, 0, 73, 0
1, 224400, Note_on_c, 0, 56, 0
1, 224400, Note_on_c, 0, 65, 38
1, 224400, Note_on_c, 0, 56, 32
1, 224400, Note_on_c, 0, 37, 19
1, 224400, Note_on_c, 0, 44, 23
1, 224400, Note_on_c, 0, 49, 28
1, 224640, Tempo, 618174
1, 224640, Note_on_c, 0, 49, 0
1, 224640, Note_on_c, 0, 37, 0
1, 224640, Note_on_c, 0, 65, 0
1, 224640, Note_on_c, 0, 56, 0
1, 224640, Note_on_c, 0, 44, 0
1, 224640, Note_on_c, 0, 54, 34
1, 224640, Note_on_c, 0, 63, 40
1, 224640, Note_on_c, 0, 37, 22
1, 224640, Note_on_c, 0, 44, 26
1, 224640, Note_on_c, 0, 48, 30
1, 224732, Control_c, 0, 64, 127
1, 225115, Note_on_c, 0, 48, 0
1, 225115, Note_on_c, 0, 37, 0
1, 225115, Note_on_c, 0, 54, 0
1, 225115, Note_on_c, 0, 63, 0
1, 225115, Note_on_c, 0, 44, 0
1, 225120, Tempo, 624285
1, 225120, Note_on_c, 0, 54, 29
1, 225120, Note_on_c, 0, 56, 35
1, 225120, Note_on_c, 0, 37, 16
1, 225120, Note_on_c, 0, 44, 19
1, 225120, Note_on_c, 0, 48, 23
1, 225595, Note_on_c, 0, 48, 0
1, 225595, Note_on_c, 0, 37, 0
1, 225595, Note_on_c, 0, 54, 0
1, 225595, Note_on_c, 0, 56, 0
1, 225595, Note_on_c, 0, 44, 0
1, 225600, Note_on_c, 0, 53, 29
1, 225600, Note_on_c, 0, 61, 35
1, 225600, Note_on_c, 0, 37, 16
1, 225600, Note_on_c, 0, 44, 19
1, 225600, Note_on_c, 0, 49, 23
1, 226075, Note_on_c, 0, 49, 0
1, 226075, Note_on_c, 0, 37, 0
1, 226075, Note_on_c, 0, 53, 0
1, 226075, Note_on_c, 0, 61, 0
1, 226075, Note_on_c, 0, 44, 0
1, 226080, Note_on_c, 0, 56, 35
1, 226080, Note_on_c, 0, 53, 29
1, 226080, Note_on_c, 0, 37, 16
1, 226080, Note_on_c, 0, 44, 19
1, 226080, Note_on_c, 0, 49, 23
1, 226555, Note_on_c, 0, 49, 0
1, 226555, Note_on_c, 0, 37, 0
1, 226555, Note_on_c, 0, 56, 0
1, 226555, Note_on_c, 0, 53, 0
1, 226555, Note_on_c, 0, 44, 0
1, 226560, Tempo, 618174
1, 226560, Note_on_c, 0, 54, 34
1, 226560, Note_on_c, 0, 63, 40
1, 226560, Note_on_c, 0, 48, 30
1, 226560, Note_on_c, 0, 37, 22
1, 226560, Note_on_c, 0, 44, 26
1, 227035, Note_on_c, 0, 44, 0
1, 227035, Note_on_c, 0, 48, 0
1, 227035, Note_on_c, 0, 54, 0
1, 227035, Note_on_c, 0, 63, 0
1, 227035, Note_on_c, 0, 37, 0
1, 227040, Note_on_c, 0, 54, 29
1, 227040, Note_on_c, 0, 56, 35
1, 227040, Note_on_c, 0, 48, 23
1, 227040, Note_on_c, 0, 37, 16
1, 227040, Note_on_c, 0, 44, 19
1, 227515, Note_on_c, 0, 44, 0
1, 227515, Note_on_c, 0, 48, 0
1, 227515, Note_on_c, 0, 54, 0
1, 227515, Note_on_c, 0, 56, 0
1, 227515, Note_on_c, 0, 37, 0
1, 227520, Tempo, 618174
1, 227520, Note_on_c, 0, 54, 34
1, 227520, Note_on_c, 0, 63, 40
1, 227520, Note_on_c, 0, 48, 30
1, 227520, Note_on_c, 0, 37, 22
1, 227520, Note_on_c, 0, 44, 26
1, 227995, Note_on_c, 0, 44, 0
1, 227995, Note_on_c, 0, 48, 0
1, 227995, Note_on_c, 0, 54, 0
1, 227995, Note_on_c, 0, 63, 0
1, 227995, Note_on_c, 0, 37, 0
1, 228000, Note_on_c, 0, 54, 29
1, 228000, Note_on_c, 0, 56, 35
1, 228000, Note_on_c, 0, 48, 23
1, 228000, Note_on_c, 0, 37, 16
1, 228000, Note_on_c, 0, 44, 19
1, 228475, Note_on_c, 0, 44, 0
1, 228475, Note_on_c, 0, 48, 0
1, 228475, Note_on_c, 0, 54, 0
1, 228475, Note_on_c, 0, 56, 0
1, 228475, Note_on_c, 0, 37, 0
1, 228480, Tempo, 611247
1, 228480, Note_on_c, 0, 53, 30
1, 228480, Note_on_c, 0, 61, 36
1, 228480, Note_on_c, 0, 37, 16
1, 228480, Note_on_c, 0, 44, 19
1, 228480, Note_on_c, 0, 49, 23
1, 228488, Control_c, 0, 64, 0
1, 228720, Tempo, 582016
1, 228720, Note_on_c, 0, 49, 0
1, 228720, Note_on_c, 0, 37, 0
1, 228720, Note_on_c, 0, 53, 0
1, 228720, Note_on_c, 0, 61, 0
1, 228720, Note_on_c, 0, 44, 0
1, 228720, Note_on_c, 0, 56, 27
1, 228720, Note_on_c, 0, 61, 32
1, 228720, Note_on_c, 0, 65, 38
1, 228880, Control_c, 0, 64, 127
1, 228960, Note_on_c, 0, 49, 36
1, 229195, Note_on_c, 0, 65, 0
1, 229195, Note_on_c, 0, 56, 0
1, 229195, Note_on_c, 0, 61, 0
1, 229200, Note_on_c, 0, 49, 0
1, 229200, Note_on_c, 0, 56, 27
1, 229200, Note_on_c, 0, 61, 32
1, 229200, Note_on_c, 0, 65, 38
1, 229440, Note_on_c, 0, 49, 38
1, 229675, Note_on_c, 0, 65, 0
1, 229675, Note_on_c, 0, 56, 0
1, 229675, Note_on_c, 0, 61, 0
1, 229680, Note_on_c, 0, 49, 0
1, 229680, Note_on_c, 0, 56, 27
1, 229680, Note_on_c, 0, 61, 32
1, 229680, Note_on_c, 0, 65, 38
1, 229920, Tempo, 596066
1, 229920, Note_on_c, 0, 49, 38
1, 230035, Control_c, 0, 64, 0
1, 230155, Note_on_c, 0, 65, 0
1, 230155, Note_on_c, 0, 56, 0
1, 230155, Note_on_c, 0, 61, 0
1, 230160, Tempo, 565984
1, 230160, Note_on_c, 0, 49, 0
1, 230160, Note_on_c, 0, 65, 52
1, 230160, Note_on_c, 0, 56, 37
1, 230160, Note_on_c, 0, 61, 44
1, 230398, Note_on_c, 0, 65, 0
1, 230400, Tempo, 558347
1, 230400, Note_on_c, 0, 63, 52
1, 230400, Note_on_c, 0, 44, 45
1, 230635, Note_on_c, 0, 61, 0
1, 230635, Note_on_c, 0, 56, 0
1, 230638, Note_on_c, 0, 63, 0
1, 230640, Tempo, 582016
1, 230640, Note_on_c, 0, 44, 0
1, 230640, Note_on_c, 0, 56, 30
1, 230640, Note_on_c, 0, 60, 36
1, 230640, Note_on_c, 0, 63, 43
1, 230725, Control_c, 0, 64, 127
1, 230880, Tempo, 576535
1, 230880, Note_on_c, 0, 44, 42
1, 231115, Note_on_c, 0, 63, 0
1, 231115, Note_on_c, 0, 56, 0
1, 231115, Note_on_c, 0, 60, 0
1, 231120, Note_on_c, 0, 44, 0
1, 231120, Note_on_c, 0, 56, 30
1, 231120, Note_on_c, 0, 60, 36
1, 231120, Note_on_c, 0, 63, 43
1, 231358, Note_on_c, 0, 60, 0
1, 231360, Note_on_c, 0, 59, 30
1, 231360, Note_on_c, 0, 44, 38
1, 231595, Note_on_c, 0, 63, 0
1, 231595, Note_on_c, 0, 56, 0
1, 231598, Note_on_c, 0, 59, 0
1, 231600, Note_on_c, 0, 44, 0
1, 231600, Note_on_c, 0, 56, 30
1, 231600, Note_on_c, 0, 59, 36
1, 231600, Note_on_c, 0, 63, 43
1, 231840, Tempo, 582016
1, 231840, Note_on_c, 0, 44, 38
1, 232041, Control_c, 0, 64, 0
1, 232075, Note_on_c, 0, 63, 0
1, 232075, Note_on_c, 0, 56, 0
1, 232075, Note_on_c, 0, 59, 0
1, 232080, Tempo, 563380
1, 232080, Note_on_c, 0, 44, 0
1, 232080, Note_on_c, 0, 56, 41
1, 232080, Note_on_c, 0, 60, 41
1, 232080, Note_on_c, 0, 62, 49
1, 232080, Note_on_c, 0, 65, 58
1, 232318, Note_on_c, 0, 65, 0
1, 232318, Note_on_c, 0, 56, 0
1, 232318, Note_on_c, 0, 60, 0
1, 232318, Note_on_c, 0, 62, 0
1, 232320, Tempo, 560852
1, 232320, Note_on_c, 0, 54, 25
1, 232320, Note_on_c, 0, 58, 30
1, 232320, Note_on_c, 0, 63, 39
1, 232320, Note_on_c, 0, 66, 47
1, 232320, Note_on_c, 0, 39, 25
1, 232558, Note_on_c, 0, 66, 0
1, 232558, Note_on_c, 0, 63, 0
1, 232558, Note_on_c, 0, 54, 0
1, 232558, Note_on_c, 0, 58, 0
1, 232560, Tempo, 582016
1, 232560, Note_on_c, 0, 39, 0
1, 232560, Note_on_c, 0, 58, 27
1, 232560, Note_on_c, 0, 63, 32
1, 232560, Note_on_c, 0, 66, 38
1, 232800, Tempo, 573888
1, 232800, Note_on_c, 0, 51, 36
1, 232949, Control_c, 0, 64, 127
1, 233035, Note_on_c, 0, 66, 0
1, 233035, Note_on_c, 0, 58, 0
1, 233035, Note_on_c, 0, 63, 0
1, 233040, Note_on_c, 0, 51, 0
1, 233040, Note_on_c, 0, 58, 27
1, 233040, Note_on_c, 0, 63, 32
1, 233040, Note_on_c, 0, 66, 38
1, 233280, Note_on_c, 0, 51, 38
1, 233515, Note_on_c, 0, 66, 0
1, 233515, Note_on_c, 0, 58, 0
1, 233515, Note_on_c, 0, 63, 0
1, 233520, Note_on_c, 0, 51, 0
1, 233520, Note_on_c, 0, 58, 27
1, 233520, Note_on_c, 0, 63, 32
1, 233520, Note_on_c, 0, 66, 38
1, 233760, Tempo, 596066
1, 233760, Note_on_c, 0, 51, 38
1, 233909, Control_c, 0, 64, 0
1, 233995, Note_on_c, 0, 66, 0
1, 233995, Note_on_c, 0, 58, 0
1, 233995, Note_on_c, 0, 63, 0
1, 234000, Tempo, 565984
1, 234000, Note_on_c, 0, 51, 0
1, 234000, Note_on_c, 0, 66, 52
1, 234000, Note_on_c, 0, 58, 37
1, 234000, Note_on_c, 0, 63, 44
1, 234238, Note_on_c, 0, 66, 0
1, 234240, Tempo, 558347
1, 234240, Note_on_c, 0, 65, 52
1, 234240, Note_on_c, 0, 46, 45
1, 234475, Note_on_c, 0, 63, 0
1, 234475, Note_on_c, 0, 58, 0
1, 234478, Note_on_c, 0, 65, 0
1, 234480, Tempo, 573888
1, 234480, Note_on_c, 0, 46, 0
1, 234480, Note_on_c, 0, 58, 30
1, 234480, Note_on_c, 0, 62, 36
1, 234480, Note_on_c, 0, 65, 43
1, 234607, Control_c, 0, 64, 127
1, 234720, Note_on_c, 0, 46, 42
1, 234955, Note_on_c, 0, 65, 0
1, 234955, Note_on_c, 0, 58, 0
1, 234955, Note_on_c, 0, 62, 0
1, 234960, Note_on_c, 0, 46, 0
1, 234960, Note_on_c, 0, 58, 30
1, 234960, Note_on_c, 0, 62, 36
1, 234960, Note_on_c, 0, 65, 43
1, 235198, Note_on_c, 0, 62, 0
1, 235200, Note_on_c, 0, 61, 30
1, 235200, Note_on_c, 0, 46, 38
1, 235200, Control_c, 0, 64, 0
1, 235298, Control_c, 0, 64, 127
1, 235435, Note_on_c, 0, 65, 0
1, 235435, Note_on_c, 0, 58, 0
1, 235438, Note_on_c, 0, 61, 0
1, 235440, Note_on_c, 0, 46, 0
1, 235440, Note_on_c, 0, 58, 30
1, 235440, Note_on_c, 0, 61, 36
1, 235440, Note_on_c, 0, 65, 43
1, 235680, Tempo, 584795
1, 235680, Note_on_c, 0, 46, 41
1, 235915, Note_on_c, 0, 65, 0
1, 235915, Note_on_c, 0, 58, 0
1, 235915, Note_on_c, 0, 61, 0
1, 235920, Tempo, 568613
1, 235920, Note_on_c, 0, 46, 0
1, 235920, Note_on_c, 0, 58, 41
1, 235920, Note_on_c, 0, 62, 41
1, 235920, Note_on_c, 0, 64, 49
1, 235920, Note_on_c, 0, 67, 58
1, 235921, Control_c, 0, 64, 0
1, 236160, Tempo, 563380
1, 236160, Note_on_c, 0, 67, 0
1, 236160, Note_on_c, 0, 58, 0
1, 236160, Note_on_c, 0, 62, 0
1, 236160, Note_on_c, 0, 64, 0
1, 236160, Note_on_c, 0, 56, 25
1, 236160, Note_on_c, 0, 60, 30
1, 236160, Note_on_c, 0, 65, 39
1, 236160, Note_on_c, 0, 68, 47
1, 236160, Note_on_c, 0, 41, 25
1, 236398, Note_on_c, 0, 68, 0
1, 236398, Note_on_c, 0, 65, 0
1, 236398, Note_on_c, 0, 56, 0
1, 236398, Note_on_c, 0, 60, 0
1, 236400, Tempo, 573888
1, 236400, Note_on_c, 0, 41, 0
1, 236400, Note_on_c, 0, 60, 27
1, 236400, Note_on_c, 0, 65, 32
1, 236400, Note_on_c, 0, 68, 38
1, 236626, Control_c, 0, 64, 127
1, 236640, Note_on_c, 0, 53, 36
1, 236875, Note_on_c, 0, 68, 0
1, 236875, Note_on_c, 0, 60, 0
1, 236875, Note_on_c, 0, 65, 0
1, 236880, Note_on_c, 0, 53, 0
1, 236880, Note_on_c, 0, 60, 27
1, 236880, Note_on_c, 0, 65, 32
1, 236880, Note_on_c, 0, 68, 38
1, 237120, Note_on_c, 0, 53, 38
1, 237355, Note_on_c, 0, 68, 0
1, 237355, Note_on_c, 0, 60, 0
1, 237355, Note_on_c, 0, 65, 0
1, 237360, Note_on_c, 0, 53, 0
1, 237360, Note_on_c, 0, 60, 27
1, 237360, Note_on_c, 0, 65, 32
1, 237360, Note_on_c, 0, 68, 38
1, 237600, Tempo, 596066
1, 237600, Note_on_c, 0, 53, 38
1, 237756, Control_c, 0, 64, 0
1, 237835, Note_on_c, 0, 68, 0
1, 237835, Note_on_c, 0, 60, 0
1, 237835, Note_on_c, 0, 65, 0
1, 237840, Tempo, 565984
1, 237840, Note_on_c, 0, 53, 0
1, 237840, Note_on_c, 0, 68, 48
1, 237840, Note_on_c, 0, 60, 34
1, 237840, Note_on_c, 0, 65, 40
1, 238078, Note_on_c, 0, 68, 0
1, 238080, Tempo, 560852
1, 238080, Note_on_c, 0, 67, 48
1, 238080, Note_on_c, 0, 48, 41
1, 238315, Note_on_c, 0, 65, 0
1, 238315, Note_on_c, 0, 60, 0
1, 238318, Note_on_c, 0, 67, 0
1, 238320, Tempo, 582016
1, 238320, Note_on_c, 0, 48, 0
1, 238320, Note_on_c, 0, 60, 30
1, 238320, Note_on_c, 0, 64, 36
1, 238320, Note_on_c, 0, 67, 43
1, 238560, Note_on_c, 0, 48, 42
1, 238573, Control_c, 0, 64, 127
1, 238795, Note_on_c, 0, 67, 0
1, 238795, Note_on_c, 0, 60, 0
1, 238795, Note_on_c, 0, 64, 0
1, 238800, Tempo, 571211
1, 238800, Note_on_c, 0, 48, 0
1, 238800, Note_on_c, 0, 60, 34
1, 238800, Note_on_c, 0, 64, 40
1, 238800, Note_on_c, 0, 67, 48
1, 239038, Note_on_c, 0, 67, 0
1, 239038, Note_on_c, 0, 64, 0
1, 239040, Tempo, 568613
1, 239040, Note_on_c, 0, 68, 48
1, 239040, Note_on_c, 0, 65, 34
1, 239040, Note_on_c, 0, 53, 38
1, 239049, Control_c, 0, 64, 0
1, 239181, Control_c, 0, 64, 127
1, 239275, Note_on_c, 0, 60, 0
1, 239278, Note_on_c, 0, 68, 0
1, 239278, Note_on_c, 0, 65, 0
1, 239280, Tempo, 579262
1, 239280, Note_on_c, 0, 53, 0
1, 239280, Note_on_c, 0, 60, 30
1, 239280, Note_on_c, 0, 65, 36
1, 239280, Note_on_c, 0, 68, 43
1, 239520, Note_on_c, 0, 53, 38
1, 239755, Note_on_c, 0, 68, 0
1, 239755, Note_on_c, 0, 60, 0
1, 239755, Note_on_c, 0, 65, 0
1, 239760, Note_on_c, 0, 53, 0
1, 239760, Note_on_c, 0, 60, 34
1, 239760, Note_on_c, 0, 65, 40
1, 239760, Note_on_c, 0, 68, 47
1, 240000, Tempo, 627943
1, 240000, Note_on_c, 0, 68, 0
1, 240000, Note_on_c, 0, 65, 0
1, 240000, Note_on_c, 0, 60, 0
1, 240000, Note_on_c, 0, 36, 46
1, 240009, Control_c, 0, 64, 0
1, 240120, Tempo, 570505
1, 240120, Note_on_c, 0, 60, 36
1, 240120, Control_c, 0, 64, 127
1, 240240, Note_on_c, 0, 60, 0
1, 240240, Note_on_c, 0, 36, 0
1, 240240, Note_on_c, 0, 64, 37
1, 240360, Note_on_c, 0, 64, 0
1, 240360, Note_on_c, 0, 67, 38
1, 240480, Note_on_c, 0, 67, 0
1, 240480, Note_on_c, 0, 71, 40
1, 240480, Note_on_c, 0, 52, 39
1, 240480, Note_on_c, 0, 55, 39
1, 240600, Note_on_c, 0, 71, 0
1, 240600, Note_on_c, 0, 72, 41
1, 240680, Tempo, 565131
1, 240720, Tempo, 567805
1, 240720, Note_on_c, 0, 72, 0
1, 240720, Note_on_c, 0, 76, 42
1, 240740, Tempo, 570505
1, 240760, Tempo, 573230
1, 240800, Tempo, 575982
1, 240820, Tempo, 578760
1, 240840, Tempo, 581564
1, 240840, Note_on_c, 0, 76, 0
1, 240840, Note_on_c, 0, 79, 44
1, 240880, Tempo, 584454
1, 240900, Tempo, 587257
1, 240920, Tempo, 590203
1, 240940, Tempo, 593120
1, 240960, Tempo, 562430
1, 240960, Note_on_c, 0, 79, 0
1, 240960, Note_on_c, 0, 55, 0
1, 240960, Note_on_c, 0, 52, 0
1, 240960, Note_on_c, 0, 83, 45
1, 240960, Note_on_c, 0, 52, 39
1, 240960, Note_on_c, 0, 55, 39
1, 241080, Note_on_c, 0, 83, 0
1, 241080, Note_on_c, 0, 84, 44
1, 241200, Note_on_c, 0, 84, 0
1, 241200, Note_on_c, 0, 79, 43
1, 241320, Note_on_c, 0, 79, 0
1, 241320, Note_on_c, 0, 76, 43
1, 241440, Note_on_c, 0, 76, 0
1, 241440, Note_on_c, 0, 72, 42
1, 241560, Note_on_c, 0, 72, 0
1, 241560, Note_on_c, 0, 67, 41
1, 241680, Tempo, 554529
1, 241680, Note_on_c, 0, 67, 0
1, 241680, Note_on_c, 0, 64, 41
1, 241700, Tempo, 554682
1, 241720, Tempo, 557207
1, 241740, Tempo, 559858
1, 241760, Tempo, 562430
1, 241780, Tempo, 565131
1, 241800, Tempo, 567805
1, 241800, Note_on_c, 0, 64, 0
1, 241800, Note_on_c, 0, 60, 40
1, 241820, Tempo, 570505
1, 241840, Tempo, 573230
1, 241860, Tempo, 575982
1, 241880, Tempo, 578760
1, 241900, Tempo, 581564
1, 241920, Tempo, 631247
1, 241920, Note_on_c, 0, 60, 0
1, 241920, Note_on_c, 0, 55, 0
1, 241920, Note_on_c, 0, 52, 0
1, 241920, Note_on_c, 0, 36, 46
1, 241937, Control_c, 0, 64, 0
1, 242000, Control_c, 0, 64, 127
1, 242040, Tempo, 562430
1, 242040, Note_on_c, 0, 61, 36
1, 242160, Note_on_c, 0, 61, 0
1, 242160, Note_on_c, 0, 36, 0
1, 242160, Note_on_c, 0, 65, 37
1, 242280, Note_on_c, 0, 65, 0
1, 242280, Note_on_c, 0, 68, 38
1, 242400, Note_on_c, 0, 68, 0
1, 242400, Note_on_c, 0, 72, 40
1, 242400, Note_on_c, 0, 53, 39
1, 242400, Note_on_c, 0, 56, 39
1, 242520, Note_on_c, 0, 72, 0
1, 242520, Note_on_c, 0, 73, 41
1, 242600, Tempo, 549400
1, 242640, Tempo, 554529
1, 242640, Note_on_c, 0, 73, 0
1, 242640, Note_on_c, 0, 77, 42
1, 242680, Tempo, 559806
1, 242720, Tempo, 565131
1, 242760, Tempo, 570559
1, 242760, Note_on_c, 0, 77, 0
1, 242760, Note_on_c, 0, 80, 44
1, 242800, Tempo, 576037
1, 242840, Tempo, 581790
1, 242880, Tempo, 557103
1, 242880, Note_on_c, 0, 80, 0
1, 242880, Note_on_c, 0, 56, 0
1, 242880, Note_on_c, 0, 53, 0
1, 242880, Note_on_c, 0, 84, 45
1, 242880, Note_on_c, 0, 53, 39
1, 242880, Note_on_c, 0, 56, 39
1, 243000, Note_on_c, 0, 84, 0
1, 243000, Note_on_c, 0, 85, 44
1, 243120, Note_on_c, 0, 85, 0
1, 243120, Note_on_c, 0, 80, 43
1, 243240, Note_on_c, 0, 80, 0
1, 243240, Note_on_c, 0, 77, 43
1, 243360, Note_on_c, 0, 77, 0
1, 243360, Note_on_c, 0, 73, 42
1, 243480, Note_on_c, 0, 73, 0
1, 243480, Note_on_c, 0, 68, 41
1, 243600, Tempo, 554529
1, 243600, Note_on_c, 0, 68, 0
1, 243600, Note_on_c, 0, 65, 41
1, 243640, Tempo, 557103
1, 243680, Tempo, 559806
1, 243720, Tempo, 565131
1, 243720, Note_on_c, 0, 65, 0
1, 243720, Note_on_c, 0, 61, 40
1, 243760, Tempo, 567805
1, 243800, Tempo, 573285
1, 243840, Tempo, 631247
1, 243840, Note_on_c, 0, 61, 0
1, 243840, Note_on_c, 0, 56, 0
1, 243840, Note_on_c, 0, 53, 0
1, 243840, Note_on_c, 0, 36, 46
1, 243857, Control_c, 0, 64, 0
1, 243943, Control_c, 0, 64, 127
1, 243960, Tempo, 559806
1, 243960, Note_on_c, 0, 64, 36
1, 244080, Tempo, 554529
1, 244080, Note_on_c, 0, 64, 0
1, 244080, Note_on_c, 0, 36, 0
1, 244080, Note_on_c, 0, 67, 37
1, 244200, Note_on_c, 0, 67, 0
1, 244200, Note_on_c, 0, 70, 38
1, 244320, Note_on_c, 0, 70, 0
1, 244320, Note_on_c, 0, 75, 40
1, 244320, Note_on_c, 0, 55, 39
1, 244320, Note_on_c, 0, 58, 39
1, 244440, Note_on_c, 0, 75, 0
1, 244440, Note_on_c, 0, 76, 41
1, 244520, Tempo, 549400
1, 244560, Tempo, 554529
1, 244560, Note_on_c, 0, 76, 0
1, 244560, Note_on_c, 0, 79, 42
1, 244600, Tempo, 559806
1, 244640, Tempo, 565131
1, 244680, Tempo, 570559
1, 244680, Note_on_c, 0, 79, 0
1, 244680, Note_on_c, 0, 82, 44
1, 244720, Tempo, 576037
1, 244760, Tempo, 581790
1, 244800, Tempo, 557103
1, 244800, Note_on_c, 0, 82, 0
1, 244800, Note_on_c, 0, 58, 0
1, 244800, Note_on_c, 0, 55, 0
1, 244800, Note_on_c, 0, 87, 45
1, 244800, Note_on_c, 0, 55, 39
1, 244800, Note_on_c, 0, 58, 39
1, 244920, Note_on_c, 0, 87, 0
1, 244920, Note_on_c, 0, 88, 44
1, 245040, Note_on_c, 0, 88, 0
1, 245040, Note_on_c, 0, 82, 43
1, 245160, Note_on_c, 0, 82, 0
1, 245160, Note_on_c, 0, 79, 43
1, 245280, Note_on_c, 0, 79, 0
1, 245280, Note_on_c, 0, 76, 42
1, 245400, Note_on_c, 0, 76, 0
1, 245400, Note_on_c, 0, 70, 41
1, 245520, Tempo, 554529
1, 245520, Note_on_c, 0, 70, 0
1, 245520, Note_on_c, 0, 67, 41
1, 245560, Tempo, 557103
1, 245600, Tempo, 559806
1, 245640, Tempo, 565131
1, 245640, Note_on_c, 0, 67, 0
1, 245640, Note_on_c, 0, 64, 40
1, 245680, Tempo, 567805
1, 245720, Tempo, 573285
1, 245760, Tempo, 631247
1, 245760, Note_on_c, 0, 64, 0
1, 245760, Note_on_c, 0, 58, 0
1, 245760, Note_on_c, 0, 55, 0
1, 245760, Note_on_c, 0, 41, 46
1, 245778, Control_c, 0, 64, 0
1, 245852, Control_c, 0, 64, 127
1, 245880, Tempo, 559806
1, 245880, Note_on_c, 0, 65, 36
1, 246000, Tempo, 554529
1, 246000, Note_on_c, 0, 65, 0
1, 246000, Note_on_c, 0, 41, 0
1, 246000, Note_on_c, 0, 69, 37
1, 246120, Note_on_c, 0, 69, 0
1, 246120, Note_on_c, 0, 72, 38
1, 246240, Note_on_c, 0, 72, 0
1, 246240, Note_on_c, 0, 76, 40
1, 246240, Note_on_c, 0, 57, 39
1, 246240, Note_on_c, 0, 60, 39
1, 246360, Note_on_c, 0, 76, 0
1, 246360, Note_on_c, 0, 77, 41
1, 246440, Tempo, 549400
1, 246480, Tempo, 554529
1, 246480, Note_on_c, 0, 77, 0
1, 246480, Note_on_c, 0, 81, 42
1, 246520, Tempo, 559806
1, 246560, Tempo, 565131
1, 246600, Tempo, 570559
1, 246600, Note_on_c, 0, 81, 0
1, 246600, Note_on_c, 0, 84, 44
1, 246640, Tempo, 576037
1, 246680, Tempo, 581790
1, 246720, Tempo, 557103
1, 246720, Note_on_c, 0, 84, 0
1, 246720, Note_on_c, 0, 60, 0
1, 246720, Note_on_c, 0, 57, 0
1, 246720, Note_on_c, 0, 88, 45
1, 246720, Note_on_c, 0, 57, 39
1, 246720, Note_on_c, 0, 60, 39
1, 246840, Note_on_c, 0, 88, 0
1, 246840, Note_on_c, 0, 89, 44
1, 246960, Note_on_c, 0, 89, 0
1, 246960, Note_on_c, 0, 84, 43
1, 247080, Note_on_c, 0, 84, 0
1, 247080, Note_on_c, 0, 81, 43
1, 247200, Note_on_c, 0, 81, 0
1, 247200, Note_on_c, 0, 77, 42
1, 247320, Note_on_c, 0, 77, 0
1, 247320, Note_on_c, 0, 72, 41
1, 247440, Tempo, 554529
1, 247440, Note_on_c, 0, 72, 0
1, 247440, Note_on_c, 0, 69, 41
1, 247480, Tempo, 557103
1, 247520, Tempo, 559806
1, 247560, Tempo, 565131
1, 247560, Note_on_c, 0, 69, 0
1, 247560, Note_on_c, 0, 65, 40
1, 247600, Tempo, 567805
1, 247640, Tempo, 573285
1, 247680, Tempo, 631247
1, 247680, Note_on_c, 0, 65, 0
1, 247680, Note_on_c, 0, 60, 0
1, 247680, Note_on_c, 0, 57, 0
1, 247680, Note_on_c, 0, 41, 46
1, 247694, Control_c, 0, 64, 0
1, 247795, Control_c, 0, 64, 127
1, 247800, Tempo, 559806
1, 247800, Note_on_c, 0, 66, 36
1, 247920, Tempo, 554529
1, 247920, Note_on_c, 0, 66, 0
1, 247920, Note_on_c, 0, 41, 0
1, 247920, Note_on_c, 0, 70, 37
1, 248040, Note_on_c, 0, 70, 0
1, 248040, Note_on_c, 0, 73, 38
1, 248160, Note_on_c, 0, 73, 0
1, 248160, Note_on_c, 0, 77, 40
1, 248160, Note_on_c, 0, 58, 39
1, 248160, Note_on_c, 0, 61, 39
1, 248280, Note_on_c, 0, 77, 0
1, 248280, Note_on_c, 0, 78, 41
1, 248360, Tempo, 549400
1, 248400, Tempo, 554529
1, 248400, Note_on_c, 0, 78, 0
1, 248400, Note_on_c, 0, 82, 42
1, 248440, Tempo, 559806
1, 248480, Tempo, 565131
1, 248520, Tempo, 570559
1, 248520, Note_on_c, 0, 82, 0
1, 248520, Note_on_c, 0, 85, 44
1, 248560, Tempo, 576037
1, 248600, Tempo, 581790
1, 248640, Tempo, 557103
1, 248640, Note_on_c, 0, 85, 0
1, 248640, Note_on_c, 0, 61, 0
1, 248640, Note_on_c, 0, 58, 0
1, 248640, Note_on_c, 0, 89, 45
1, 248640, Note_on_c, 0, 58, 39
1, 248640, Note_on_c, 0, 61, 39
1, 248760, Note_on_c, 0, 89, 0
1, 248760, Note_on_c, 0, 90, 44
1, 248880, Note_on_c, 0, 90, 0
1, 248880, Note_on_c, 0, 85, 43
1, 249000, Note_on_c, 0, 85, 0
1, 249000, Note_on_c, 0, 82, 43
1, 249120, Note_on_c, 0, 82, 0
1, 249120, Note_on_c, 0, 78, 42
1, 249240, Note_on_c, 0, 78, 0
1, 249240, Note_on_c, 0, 73, 41
1, 249360, Tempo, 554529
1, 249360, Note_on_c, 0, 73, 0
1, 249360, Note_on_c, 0, 70, 41
1, 249400, Tempo, 557103
1, 249440, Tempo, 559806
1, 249480, Tempo, 565131
1, 249480, Note_on_c, 0, 70, 0
1, 249480, Note_on_c, 0, 66, 40
1, 249520, Tempo, 567805
1, 249560, Tempo, 573285
1, 249600, Tempo, 631247
1, 249600, Note_on_c, 0, 66, 0
1, 249600, Note_on_c, 0, 61, 0
1, 249600, Note_on_c, 0, 58, 0
1, 249600, Note_on_c, 0, 41, 46
1, 249612, Control_c, 0, 64, 0
1, 249720, Tempo, 559806
1, 249720, Note_on_c, 0, 69, 36
1, 249720, Control_c, 0, 64, 127
1, 249840, Tempo, 554529
1, 249840, Note_on_c, 0, 69, 0
1, 249840, Note_on_c, 0, 41, 0
1, 249840, Note_on_c, 0, 72, 37
1, 249960, Note_on_c, 0, 72, 0
1, 249960, Note_on_c, 0, 75, 38
1, 250080, Note_on_c, 0, 75, 0
1, 250080, Note_on_c, 0, 80, 40
1, 250080, Note_on_c, 0, 60, 39
1, 250080, Note_on_c, 0, 63, 39
1, 250200, Note_on_c, 0, 80, 0
1, 250200, Note_on_c, 0, 81, 41
1, 250280, Tempo, 549400
1, 250320, Tempo, 554529
1, 250320, Note_on_c, 0, 81, 0
1, 250320, Note_on_c, 0, 84, 42
1, 250360, Tempo, 559806
1, 250400, Tempo, 565131
1, 250440, Tempo, 570559
1, 250440, Note_on_c, 0, 84, 0
1, 250440, Note_on_c, 0, 87, 44
1, 250480, Tempo, 576037
1, 250520, Tempo, 581790
1, 250560, Tempo, 557103
1, 250560, Note_on_c, 0, 87, 0
1, 250560, Note_on_c, 0, 63, 0
1, 250560, Note_on_c, 0, 60, 0
1, 250560, Note_on_c, 0, 92, 45
1, 250560, Note_on_c, 0, 60, 39
1, 250560, Note_on_c, 0, 63, 39
1, 250680, Note_on_c, 0, 92, 0
1, 250680, Note_on_c, 0, 93, 44
1, 250800, Note_on_c, 0, 93, 0
1, 250800, Note_on_c, 0, 87, 43
1, 250920, Note_on_c, 0, 87, 0
1, 250920, Note_on_c, 0, 84, 43
1, 251040, Note_on_c, 0, 84, 0
1, 251040, Note_on_c, 0, 81, 42
1, 251160, Note_on_c, 0, 81, 0
1, 251160, Note_on_c, 0, 75, 41
1, 251280, Tempo, 554529
1, 251280, Note_on_c, 0, 75, 0
1, 251280, Note_on_c, 0, 72, 41
1, 251320, Tempo, 557103
1, 251360, Tempo, 559806
1, 251400, Tempo, 565131
1, 251400, Note_on_c, 0, 72, 0
1, 251400, Note_on_c, 0, 69, 40
1, 251440, Tempo, 567805
1, 251480, Tempo, 573285
1, 251520, Tempo, 631247
1, 251520, Note_on_c, 0, 69, 0
1, 251520, Note_on_c, 0, 63, 0
1, 251520, Note_on_c, 0, 60, 0
1, 251520, Note_on_c, 0, 46, 46
1, 251530, Control_c, 0, 64, 0
1, 251600, Tempo, 567805
1, 251640, Note_on_c, 0, 70, 39
1, 251652, Control_c, 0, 64, 127
1, 251680, Tempo, 565131
1, 251760, Tempo, 562377
1, 251760, Note_on_c, 0, 70, 0
1, 251760, Note_on_c, 0, 46, 0
1, 251760, Note_on_c, 0, 74, 41
1, 251840, Tempo, 559806
1, 251880, Note_on_c, 0, 74, 0
1, 251880, Note_on_c, 0, 77, 44
1, 251920, Tempo, 557103
1, 251960, Tempo, 554529
1, 252000, Note_on_c, 0, 77, 0
1, 252000, Note_on_c, 0, 81, 46
1, 252000, Note_on_c, 0, 62, 39
1, 252000, Note_on_c, 0, 65, 39
1, 252080, Tempo, 557103
1, 252120, Note_on_c, 0, 81, 0
1, 252120, Note_on_c, 0, 82, 44
1, 252160, Tempo, 559806
1, 252240, Tempo, 562377
1, 252240, Note_on_c, 0, 82, 0
1, 252240, Note_on_c, 0, 77, 42
1, 252320, Tempo, 565131
1, 252360, Note_on_c, 0, 77, 0
1, 252360, Note_on_c, 0, 74, 40
1, 252400, Tempo, 567805
1, 252480, Tempo, 565131
1, 252480, Note_on_c, 0, 74, 0
1, 252480, Note_on_c, 0, 65, 0
1, 252480, Note_on_c, 0, 62, 0
1, 252480, Note_on_c, 0, 70, 45
1, 252480, Note_on_c, 0, 62, 39
1, 252480, Note_on_c, 0, 65, 39
1, 252600, Tempo, 562377
1, 252600, Note_on_c, 0, 70, 0
1, 252600, Note_on_c, 0, 74, 41
1, 252720, Tempo, 559806
1, 252720, Note_on_c, 0, 74, 0
1, 252720, Note_on_c, 0, 77, 43
1, 252840, Note_on_c, 0, 77, 0
1, 252840, Note_on_c, 0, 81, 45
1, 252960, Tempo, 554529
1, 252960, Note_on_c, 0, 81, 0
1, 252960, Note_on_c, 0, 82, 47
1, 253040, Tempo, 557103
1, 253080, Tempo, 559806
1, 253080, Note_on_c, 0, 82, 0
1, 253080, Note_on_c, 0, 77, 45
1, 253160, Tempo, 562377
1, 253200, Tempo, 565131
1, 253200, Note_on_c, 0, 77, 0
1, 253200, Note_on_c, 0, 74, 44
1, 253280, Tempo, 567805
1, 253320, Tempo, 570559
1, 253320, Note_on_c, 0, 74, 0
1, 253320, Note_on_c, 0, 70, 42
1, 253360, Tempo, 573285
1, 253400, Tempo, 573285
1, 253440, Tempo, 631247
1, 253440, Note_on_c, 0, 70, 0
1, 253440, Note_on_c, 0, 65, 0
1, 253440, Note_on_c, 0, 62, 0
1, 253440, Note_on_c, 0, 46, 46
1, 253457, Control_c, 0, 64, 0
1, 253520, Tempo, 581564
1, 253560, Note_on_c, 0, 71, 39
1, 253560, Control_c, 0, 64, 127
1, 253580, Tempo, 578760
1, 253620, Tempo, 575982
1, 253660, Tempo, 573230
1, 253680, Note_on_c, 0, 71, 0
1, 253680, Note_on_c, 0, 46, 0
1, 253680, Note_on_c, 0, 75, 41
1, 253700, Tempo, 570505
1, 253760, Tempo, 567805
1, 253800, Tempo, 565131
1, 253800, Note_on_c, 0, 75, 0
1, 253800, Note_on_c, 0, 78, 44
1, 253840, Tempo, 562430
1, 253880, Tempo, 559858
1, 253920, Tempo, 557207
1, 253920, Note_on_c, 0, 78, 0
1, 253920, Note_on_c, 0, 82, 46
1, 253920, Note_on_c, 0, 63, 39
1, 253920, Note_on_c, 0, 66, 39
1, 254000, Tempo, 559858
1, 254040, Note_on_c, 0, 82, 0
1, 254040, Note_on_c, 0, 83, 44
1, 254080, Tempo, 562430
1, 254160, Tempo, 565131
1, 254160, Note_on_c, 0, 83, 0
1, 254160, Note_on_c, 0, 78, 42
1, 254240, Tempo, 567805
1, 254280, Note_on_c, 0, 78, 0
1, 254280, Note_on_c, 0, 75, 40
1, 254320, Tempo, 570505
1, 254400, Tempo, 573230
1, 254400, Note_on_c, 0, 75, 0
1, 254400, Note_on_c, 0, 66, 0
1, 254400, Note_on_c, 0, 63, 0
1, 254400, Note_on_c, 0, 71, 45
1, 254400, Note_on_c, 0, 63, 39
1, 254400, Note_on_c, 0, 66, 39
1, 254520, Tempo, 562377
1, 254520, Note_on_c, 0, 71, 0
1, 254520, Note_on_c, 0, 75, 41
1, 254640, Tempo, 559806
1, 254640, Note_on_c, 0, 75, 0
1, 254640, Note_on_c, 0, 78, 43
1, 254760, Note_on_c, 0, 78, 0
1, 254760, Note_on_c, 0, 82, 45
1, 254880, Tempo, 554529
1, 254880, Note_on_c, 0, 82, 0
1, 254880, Note_on_c, 0, 83, 47
1, 254960, Tempo, 557103
1, 255000, Tempo, 559806
1, 255000, Note_on_c, 0, 83, 0
1, 255000, Note_on_c, 0, 78, 45
1, 255080, Tempo, 562377
1, 255120, Tempo, 565131
1, 255120, Note_on_c, 0, 78, 0
1, 255120, Note_on_c, 0, 75, 44
1, 255200, Tempo, 567805
1, 255240, Tempo, 570559
1, 255240, Note_on_c, 0, 75, 0
1, 255240, Note_on_c, 0, 71, 42
1, 255280, Tempo, 573285
1, 255320, Tempo, 573285
1, 255360, Tempo, 631247
1, 255360, Note_on_c, 0, 71, 0
1, 255360, Note_on_c, 0, 66, 0
1, 255360, Note_on_c, 0, 63, 0
1, 255360, Note_on_c, 0, 46, 46
1, 255372, Control_c, 0, 64, 0
1, 255440, Tempo, 578760
1, 255480, Note_on_c, 0, 74, 39
1, 255492, Control_c, 0, 64, 127
1, 255500, Tempo, 575982
1, 255560, Tempo, 573230
1, 255600, Note_on_c, 0, 74, 0
1, 255600, Note_on_c, 0, 46, 0
1, 255600, Note_on_c, 0, 77, 41
1, 255620, Tempo, 570505
1, 255680, Tempo, 567805
1, 255720, Note_on_c, 0, 77, 0
1, 255720, Note_on_c, 0, 80, 44
1, 255740, Tempo, 565131
1, 255800, Tempo, 562430
1, 255840, Tempo, 559858
1, 255840, Note_on_c, 0, 80, 0
1, 255840, Note_on_c, 0, 85, 46
1, 255840, Note_on_c, 0, 65, 39
1, 255840, Note_on_c, 0, 68, 39
1, 255920, Tempo, 562430
1, 255960, Note_on_c, 0, 85, 0
1, 255960, Note_on_c, 0, 86, 44
1, 256000, Tempo, 565131
1, 256080, Tempo, 567805
1, 256080, Note_on_c, 0, 86, 0
1, 256080, Note_on_c, 0, 80, 42
1, 256160, Tempo, 570505
1, 256200, Note_on_c, 0, 80, 0
1, 256200, Note_on_c, 0, 77, 40
1, 256240, Tempo, 573230
1, 256300, Tempo, 575982
1, 256320, Tempo, 565131
1, 256320, Note_on_c, 0, 77, 0
1, 256320, Note_on_c, 0, 68, 0
1, 256320, Note_on_c, 0, 65, 0
1, 256320, Note_on_c, 0, 74, 45
1, 256320, Note_on_c, 0, 65, 39
1, 256320, Note_on_c, 0, 68, 39
1, 256440, Tempo, 562377
1, 256440, Note_on_c, 0, 74, 0
1, 256440, Note_on_c, 0, 77, 41
1, 256560, Tempo, 559806
1, 256560, Note_on_c, 0, 77, 0
1, 256560, Note_on_c, 0, 80, 43
1, 256680, Note_on_c, 0, 80, 0
1, 256680, Note_on_c, 0, 85, 45
1, 256800, Tempo, 554529
1, 256800, Note_on_c, 0, 85, 0
1, 256800, Note_on_c, 0, 86, 47
1, 256880, Tempo, 557103
1, 256920, Tempo, 559806
1, 256920, Note_on_c, 0, 86, 0
1, 256920, Note_on_c, 0, 80, 45
1, 257000, Tempo, 562377
1, 257040, Tempo, 565131
1, 257040, Note_on_c, 0, 80, 0
1, 257040, Note_on_c, 0, 77, 44
1, 257120, Tempo, 567805
1, 257160, Tempo, 570559
1, 257160, Note_on_c, 0, 77, 0
1, 257160, Note_on_c, 0, 74, 42
1, 257200, Tempo, 573285
1, 257240, Tempo, 573285
1, 257280, Tempo, 631247
1, 257280, Note_on_c, 0, 74, 0
1, 257280, Note_on_c, 0, 68, 0
1, 257280, Note_on_c, 0, 65, 0
1, 257280, Note_on_c, 0, 51, 46
1, 257298, Control_c, 0, 64, 0
1, 257360, Tempo, 567805
1, 257383, Control_c, 0, 64, 127
1, 257400, Note_on_c, 0, 78, 39
1, 257440, Tempo, 565131
1, 257520, Tempo, 562377
1, 257520, Note_on_c, 0, 78, 0
1, 257520, Note_on_c, 0, 51, 0
1, 257520, Note_on_c, 0, 77, 46
1, 257600, Tempo, 559806
1, 257640, Note_on_c, 0, 77, 0
1, 257640, Note_on_c, 0, 78, 44
1, 257680, Tempo, 557103
1, 257720, Tempo, 554529
1, 257760, Note_on_c, 0, 78, 0
1, 257760, Note_on_c, 0, 58, 39
1, 257760, Note_on_c, 0, 63, 39
1, 257760, Note_on_c, 0, 66, 39
1, 257840, Tempo, 557103
1, 257880, Note_on_c, 0, 82, 44
1, 257920, Tempo, 559806
1, 258000, Tempo, 562377
1, 258000, Note_on_c, 0, 82, 0
1, 258000, Note_on_c, 0, 81, 47
1, 258080, Tempo, 565131
1, 258120, Note_on_c, 0, 81, 0
1, 258120, Note_on_c, 0, 82, 40
1, 258160, Tempo, 567805
1, 258240, Tempo, 565131
1, 258240, Note_on_c, 0, 82, 0
1, 258240, Note_on_c, 0, 58, 0
1, 258240, Note_on_c, 0, 63, 0
1, 258240, Note_on_c, 0, 66, 0
1, 258240, Note_on_c, 0, 58, 39
1, 258240, Note_on_c, 0, 63, 39
1, 258240, Note_on_c, 0, 66, 39
1, 258360, Tempo, 562377
1, 258360, Note_on_c, 0, 87, 41
1, 258480, Tempo, 559806
1, 258480, Note_on_c, 0, 87, 0
1, 258480, Note_on_c, 0, 86, 43
1, 258600, Note_on_c, 0, 86, 0
1, 258600, Note_on_c, 0, 87, 42
1, 258720, Tempo, 554529
1, 258720, Note_on_c, 0, 87, 0
1, 258720, Note_on_c, 0, 90, 47
1, 258800, Tempo, 557103
1, 258840, Tempo, 559806
1, 258840, Note_on_c, 0, 90, 0
1, 258840, Note_on_c, 0, 87, 45
1, 258920, Tempo, 562377
1, 258940, Tempo, 559858
1, 258960, Tempo, 562430
1, 258960, Note_on_c, 0, 87, 0
1, 258960, Note_on_c, 0, 90, 49
1, 258980, Tempo, 565131
1, 259000, Tempo, 567805
1, 259020, Tempo, 570505
1, 259040, Tempo, 573230
1, 259060, Tempo, 575982
1, 259080, Tempo, 578760
1, 259080, Note_on_c, 0, 90, 0
1, 259080, Note_on_c, 0, 87, 42
1, 259100, Tempo, 581564
1, 259120, Tempo, 584454
1, 259140, Tempo, 587257
1, 259160, Tempo, 590203
1, 259180, Tempo, 596066
1, 259200, Tempo, 631247
1, 259200, Note_on_c, 0, 87, 0
1, 259200, Note_on_c, 0, 58, 0
1, 259200, Note_on_c, 0, 63, 0
1, 259200, Note_on_c, 0, 66, 0
1, 259200, Note_on_c, 0, 90, 53
1, 259200, Note_on_c, 0, 48, 46
1, 259211, Control_c, 0, 64, 0
1, 259280, Tempo, 567805
1, 259303, Control_c, 0, 64, 127
1, 259320, Note_on_c, 0, 90, 0
1, 259320, Note_on_c, 0, 89, 51
1, 259360, Tempo, 565131
1, 259440, Tempo, 562377
1, 259440, Note_on_c, 0, 89, 0
1, 259440, Note_on_c, 0, 48, 0
1, 259440, Note_on_c, 0, 87, 49
1, 259520, Tempo, 559806
1, 259560, Note_on_c, 0, 87, 0
1, 259560, Note_on_c, 0, 85, 47
1, 259600, Tempo, 557103
1, 259640, Tempo, 554529
1, 259680, Note_on_c, 0, 85, 0
1, 259680, Note_on_c, 0, 84, 45
1, 259680, Note_on_c, 0, 56, 39
1, 259680, Note_on_c, 0, 63, 39
1, 259680, Note_on_c, 0, 66, 39
1, 259760, Tempo, 557103
1, 259800, Note_on_c, 0, 84, 0
1, 259800, Note_on_c, 0, 85, 46
1, 259840, Tempo, 559806
1, 259920, Tempo, 562377
1, 259920, Note_on_c, 0, 85, 0
1, 259920, Note_on_c, 0, 87, 47
1, 260000, Tempo, 565131
1, 260040, Note_on_c, 0, 87, 0
1, 260040, Note_on_c, 0, 89, 48
1, 260080, Tempo, 567805
1, 260160, Tempo, 565131
1, 260160, Note_on_c, 0, 89, 0
1, 260160, Note_on_c, 0, 66, 0
1, 260160, Note_on_c, 0, 63, 0
1, 260160, Note_on_c, 0, 56, 0
1, 260160, Note_on_c, 0, 90, 53
1, 260160, Note_on_c, 0, 56, 39
1, 260160, Note_on_c, 0, 63, 39
1, 260160, Note_on_c, 0, 66, 39
1, 260280, Tempo, 562377
1, 260280, Note_on_c, 0, 90, 0
1, 260280, Note_on_c, 0, 89, 52
1, 260400, Tempo, 559806
1, 260400, Note_on_c, 0, 89, 0
1, 260400, Note_on_c, 0, 87, 51
1, 260520, Note_on_c, 0, 87, 0
1, 260520, Note_on_c, 0, 85, 50
1, 260640, Tempo, 554529
1, 260640, Note_on_c, 0, 85, 0
1, 260640, Note_on_c, 0, 84, 49
1, 260720, Tempo, 557103
1, 260760, Tempo, 559806
1, 260760, Note_on_c, 0, 84, 0
1, 260760, Note_on_c, 0, 82, 48
1, 260840, Tempo, 562377
1, 260880, Tempo, 565131
1, 260880, Note_on_c, 0, 82, 0
1, 260880, Note_on_c, 0, 80, 47
1, 260960, Tempo, 567805
1, 261000, Tempo, 570559
1, 261000, Note_on_c, 0, 80, 0
1, 261000, Note_on_c, 0, 78, 46
1, 261040, Tempo, 573285
1, 261080, Tempo, 573285
1, 261120, Tempo, 631247
1, 261120, Note_on_c, 0, 78, 0
1, 261120, Note_on_c, 0, 66, 0
1, 261120, Note_on_c, 0, 63, 0
1, 261120, Note_on_c, 0, 56, 0
1, 261120, Note_on_c, 0, 49, 39
1, 261129, Control_c, 0, 64, 0
1, 261200, Tempo, 567805
1, 261223, Control_c, 0, 64, 127
1, 261240, Note_on_c, 0, 77, 39
1, 261280, Tempo, 565131
1, 261360, Tempo, 562377
1, 261360, Note_on_c, 0, 77, 0
1, 261360, Note_on_c, 0, 49, 0
1, 261360, Note_on_c, 0, 76, 46
1, 261440, Tempo, 559806
1, 261480, Note_on_c, 0, 76, 0
1, 261480, Note_on_c, 0, 77, 44
1, 261520, Tempo, 557103
1, 261560, Tempo, 554529
1, 261600, Note_on_c, 0, 77, 0
1, 261600, Note_on_c, 0, 56, 33
1, 261600, Note_on_c, 0, 61, 33
1, 261600, Note_on_c, 0, 65, 33
1, 261680, Tempo, 557103
1, 261720, Note_on_c, 0, 80, 44
1, 261760, Tempo, 559806
1, 261840, Tempo, 562377
1, 261840, Note_on_c, 0, 80, 0
1, 261840, Note_on_c, 0, 79, 47
1, 261920, Tempo, 565131
1, 261960, Note_on_c, 0, 79, 0
1, 261960, Note_on_c, 0, 80, 40
1, 262000, Tempo, 567805
1, 262080, Tempo, 565131
1, 262080, Note_on_c, 0, 80, 0
1, 262080, Note_on_c, 0, 56, 0
1, 262080, Note_on_c, 0, 61, 0
1, 262080, Note_on_c, 0, 65, 0
1, 262080, Note_on_c, 0, 56, 33
1, 262080, Note_on_c, 0, 61, 33
1, 262080, Note_on_c, 0, 65, 33
1, 262200, Tempo, 562377
1, 262200, Note_on_c, 0, 85, 41
1, 262320, Tempo, 559806
1, 262320, Note_on_c, 0, 85, 0
1, 262320, Note_on_c, 0, 84, 43
1, 262440, Note_on_c, 0, 84, 0
1, 262440, Note_on_c, 0, 85, 42
1, 262560, Tempo, 554529
1, 262560, Note_on_c, 0, 85, 0
1, 262560, Note_on_c, 0, 89, 47
1, 262640, Tempo, 557103
1, 262680, Tempo, 559806
1, 262680, Note_on_c, 0, 89, 0
1, 262680, Note_on_c, 0, 85, 45
1, 262760, Tempo, 562377
1, 262800, Tempo, 565131
1, 262800, Note_on_c, 0, 85, 0
1, 262800, Note_on_c, 0, 89, 49
1, 262840, Tempo, 565131
1, 262880, Tempo, 567805
1, 262900, Tempo, 570505
1, 262920, Tempo, 573230
1, 262920, Note_on_c, 0, 89, 0
1, 262920, Note_on_c, 0, 85, 42
1, 262940, Tempo, 575982
1, 262960, Tempo, 578760
1, 262980, Tempo, 581564
1, 263000, Tempo, 584454
1, 263020, Tempo, 587257
1, 263040, Tempo, 631247
1, 263040, Note_on_c, 0, 85, 0
1, 263040, Note_on_c, 0, 56, 0
1, 263040, Note_on_c, 0, 61, 0
1, 263040, Note_on_c, 0, 65, 0
1, 263040, Note_on_c, 0, 89, 53
1, 263040, Note_on_c, 0, 47, 39
1, 263054, Control_c, 0, 64, 0
1, 263120, Tempo, 567805
1, 263132, Control_c, 0, 64, 127
1, 263160, Note_on_c, 0, 89, 0
1, 263160, Note_on_c, 0, 87, 51
1, 263200, Tempo, 565131
1, 263280, Tempo, 562377
1, 263280, Note_on_c, 0, 87, 0
1, 263280, Note_on_c, 0, 47, 0
1, 263280, Note_on_c, 0, 86, 49
1, 263360, Tempo, 559806
1, 263400, Note_on_c, 0, 86, 0
1, 263400, Note_on_c, 0, 84, 47
1, 263440, Tempo, 557103
1, 263480, Tempo, 554529
1, 263520, Note_on_c, 0, 84, 0
1, 263520, Note_on_c, 0, 83, 45
1, 263520, Note_on_c, 0, 55, 33
1, 263520, Note_on_c, 0, 62, 33
1, 263520, Note_on_c, 0, 65, 33
1, 263600, Tempo, 557103
1, 263640, Note_on_c, 0, 83, 0
1, 263640, Note_on_c, 0, 84, 46
1, 263680, Tempo, 559806
1, 263760, Tempo, 562377
1, 263760, Note_on_c, 0, 84, 0
1, 263760, Note_on_c, 0, 86, 47
1, 263840, Tempo, 565131
1, 263880, Note_on_c, 0, 86, 0
1, 263880, Note_on_c, 0, 87, 48
1, 263920, Tempo, 567805
1, 264000, Tempo, 565131
1, 264000, Note_on_c, 0, 87, 0
1, 264000, Note_on_c, 0, 65, 0
1, 264000, Note_on_c, 0, 62, 0
1, 264000, Note_on_c, 0, 55, 0
1, 264000, Note_on_c, 0, 89, 53
1, 264000, Note_on_c, 0, 55, 33
1, 264000, Note_on_c, 0, 62, 33
1, 264000, Note_on_c, 0, 65, 33
1, 264120, Tempo, 562377
1, 264120, Note_on_c, 0, 89, 0
1, 264120, Note_on_c, 0, 87, 52
1, 264240, Tempo, 559806
1, 264240, Note_on_c, 0, 87, 0
1, 264240, Note_on_c, 0, 86, 51
1, 264360, Note_on_c, 0, 86, 0
1, 264360, Note_on_c, 0, 84, 50
1, 264480, Tempo, 554529
1, 264480, Note_on_c, 0, 84, 0
1, 264480, Note_on_c, 0, 83, 49
1, 264560, Tempo, 557103
1, 264600, Tempo, 559806
1, 264600, Note_on_c, 0, 83, 0
1, 264600, Note_on_c, 0, 80, 48
1, 264680, Tempo, 562377
1, 264720, Tempo, 565131
1, 264720, Note_on_c, 0, 80, 0
1, 264720, Note_on_c, 0, 79, 47
1, 264800, Tempo, 567805
1, 264840, Tempo, 570559
1, 264840, Note_on_c, 0, 79, 0
1, 264840, Note_on_c, 0, 77, 46
1, 264880, Tempo, 573285
1, 264920, Tempo, 573285
1, 264960, Tempo, 631247
1, 264960, Note_on_c, 0, 77, 0
1, 264960, Note_on_c, 0, 65, 0
1, 264960, Note_on_c, 0, 62, 0
1, 264960, Note_on_c, 0, 55, 0
1, 264960, Note_on_c, 0, 48, 39
1, 264978, Control_c, 0, 64, 0
1, 265040, Tempo, 567805
1, 265080, Note_on_c, 0, 75, 39
1, 265086, Control_c, 0, 64, 127
1, 265120, Tempo, 565131
1, 265200, Tempo, 562377
1, 265200, Note_on_c, 0, 75, 0
1, 265200, Note_on_c, 0, 48, 0
1, 265200, Note_on_c, 0, 74, 46
1, 265280, Tempo, 559806
1, 265320, Note_on_c, 0, 74, 0
1, 265320, Note_on_c, 0, 75, 44
1, 265360, Tempo, 557103
1, 265400, Tempo, 554529
1, 265440, Note_on_c, 0, 75, 0
1, 265440, Note_on_c, 0, 55, 33
1, 265440, Note_on_c, 0, 60, 33
1, 265440, Note_on_c, 0, 63, 33
1, 265520, Tempo, 557103
1, 265560, Note_on_c, 0, 79, 44
1, 265600, Tempo, 559806
1, 265680, Tempo, 562377
1, 265680, Note_on_c, 0, 79, 0
1, 265680, Note_on_c, 0, 78, 47
1, 265760, Tempo, 565131
1, 265800, Note_on_c, 0, 78, 0
1, 265800, Note_on_c, 0, 79, 40
1, 265840, Tempo, 567805
1, 265920, Tempo, 565131
1, 265920, Note_on_c, 0, 79, 0
1, 265920, Note_on_c, 0, 55, 0
1, 265920, Note_on_c, 0, 60, 0
1, 265920, Note_on_c, 0, 63, 0
1, 265920, Note_on_c, 0, 55, 33
1, 265920, Note_on_c, 0, 60, 33
1, 265920, Note_on_c, 0, 63, 33
1, 266040, Tempo, 562377
1, 266040, Note_on_c, 0, 83, 41
1, 266160, Tempo, 559806
1, 266160, Note_on_c, 0, 83, 0
1, 266160, Note_on_c, 0, 84, 43
1, 266280, Note_on_c, 0, 84, 0
1, 266280, Note_on_c, 0, 83, 42
1, 266400, Tempo, 554682
1, 266400, Note_on_c, 0, 83, 0
1, 266400, Note_on_c, 0, 55, 0
1, 266400, Note_on_c, 0, 60, 0
1, 266400, Note_on_c, 0, 63, 0
1, 266400, Note_on_c, 0, 84, 47
1, 266400, Note_on_c, 0, 48, 33
1, 266440, Tempo, 557207
1, 266460, Tempo, 559858
1, 266480, Tempo, 562430
1, 266520, Tempo, 565131
1, 266520, Note_on_c, 0, 84, 0
1, 266520, Note_on_c, 0, 86, 45
1, 266540, Tempo, 567805
1, 266560, Tempo, 570505
1, 266600, Tempo, 573230
1, 266620, Tempo, 575982
1, 266640, Tempo, 578760
1, 266640, Note_on_c, 0, 86, 0
1, 266640, Note_on_c, 0, 87, 49
1, 266680, Tempo, 581564
1, 266700, Tempo, 584454
1, 266720, Tempo, 587257
1, 266760, Tempo, 590203
1, 266760, Note_on_c, 0, 87, 0
1, 266760, Note_on_c, 0, 90, 42
1, 266780, Tempo, 593120
1, 266880, Tempo, 631247
1, 266880, Note_on_c, 0, 90, 0
1, 266880, Note_on_c, 0, 48, 0
1, 266880, Note_on_c, 0, 91, 53
1, 266880, Note_on_c, 0, 43, 33
1, 266893, Control_c, 0, 64, 0
1, 266955, Control_c, 0, 64, 127
1, 266960, Tempo, 584454
1, 267000, Note_on_c, 0, 91, 0
1, 267000, Note_on_c, 0, 86, 51
1, 267020, Tempo, 581564
1, 267060, Tempo, 578760
1, 267120, Tempo, 575982
1, 267120, Note_on_c, 0, 86, 0
1, 267120, Note_on_c, 0, 83, 49
1, 267160, Tempo, 573230
1, 267220, Tempo, 570505
1, 267240, Note_on_c, 0, 83, 0
1, 267240, Note_on_c, 0, 79, 47
1, 267260, Tempo, 567805
1, 267320, Tempo, 565131
1, 267360, Tempo, 562430
1, 267360, Note_on_c, 0, 79, 0
1, 267360, Note_on_c, 0, 43, 0
1, 267360, Note_on_c, 0, 78, 45
1, 267360, Note_on_c, 0, 55, 29
1, 267360, Note_on_c, 0, 59, 29
1, 267360, Note_on_c, 0, 62, 29
1, 267420, Tempo, 565131
1, 267480, Tempo, 567805
1, 267480, Note_on_c, 0, 78, 0
1, 267480, Note_on_c, 0, 79, 46
1, 267520, Tempo, 570505
1, 267580, Tempo, 573230
1, 267600, Note_on_c, 0, 79, 0
1, 267600, Note_on_c, 0, 83, 47
1, 267620, Tempo, 575982
1, 267680, Tempo, 578760
1, 267720, Tempo, 581564
1, 267720, Note_on_c, 0, 83, 0
1, 267720, Note_on_c, 0, 86, 48
1, 267780, Tempo, 584454
1, 267820, Tempo, 587257
1, 267840, Tempo, 631247
1, 267840, Note_on_c, 0, 86, 0
1, 267840, Note_on_c, 0, 62, 0
1, 267840, Note_on_c, 0, 59, 0
1, 267840, Note_on_c, 0, 55, 0
1, 267840, Note_on_c, 0, 87, 53
1, 267840, Note_on_c, 0, 48, 35
1, 267853, Control_c, 0, 64, 0
1, 267920, Tempo, 575982
1, 267925, Control_c, 0, 64, 127
1, 267960, Note_on_c, 0, 87, 0
1, 267960, Note_on_c, 0, 84, 51
1, 267980, Tempo, 573230
1, 268020, Tempo, 570505
1, 268060, Tempo, 567805
1, 268080, Note_on_c, 0, 84, 0
1, 268080, Note_on_c, 0, 79, 49
1, 268100, Tempo, 565131
1, 268140, Tempo, 562430
1, 268180, Tempo, 559858
1, 268200, Note_on_c, 0, 79, 0
1, 268200, Note_on_c, 0, 75, 47
1, 268220, Tempo, 557207
1, 268260, Tempo, 554682
1, 268300, Tempo, 552079
1, 268320, Note_on_c, 0, 75, 0
1, 268320, Note_on_c, 0, 48, 0
1, 268320, Note_on_c, 0, 84, 51
1, 268320, Note_on_c, 0, 55, 30
1, 268320, Note_on_c, 0, 60, 30
1, 268320, Note_on_c, 0, 63, 30
1, 268340, Tempo, 554682
1, 268380, Tempo, 557207
1, 268420, Tempo, 559858
1, 268440, Note_on_c, 0, 84, 0
1, 268440, Note_on_c, 0, 79, 50
1, 268460, Tempo, 562430
1, 268500, Tempo, 565131
1, 268540, Tempo, 567805
1, 268560, Tempo, 570505
1, 268560, Note_on_c, 0, 79, 0
1, 268560, Note_on_c, 0, 75, 49
1, 268600, Tempo, 573230
1, 268640, Tempo, 575982
1, 268680, Tempo, 578760
1, 268680, Note_on_c, 0, 75, 0
1, 268680, Note_on_c, 0, 72, 48
1, 268720, Tempo, 581564
1, 268760, Tempo, 584454
1, 268780, Tempo, 587257
1, 268800, Tempo, 631247
1, 268800, Note_on_c, 0, 72, 0
1, 268800, Note_on_c, 0, 63, 0
1, 268800, Note_on_c, 0, 60, 0
1, 268800, Note_on_c, 0, 55, 0
1, 268800, Note_on_c, 0, 83, 53
1, 268800, Note_on_c, 0, 43, 37
1, 268819, Control_c, 0, 64, 0
1, 268869, Control_c, 0, 64, 127
1, 268880, Tempo, 567805
1, 268920, Note_on_c, 0, 83, 0
1, 268920, Note_on_c, 0, 79, 51
1, 268960, Tempo, 565131
1, 269040, Tempo, 562377
1, 269040, Note_on_c, 0, 79, 0
1, 269040, Note_on_c, 0, 74, 49
1, 269120, Tempo, 559806
1, 269160, Note_on_c, 0, 74, 0
1, 269160, Note_on_c, 0, 71, 47
1, 269200, Tempo, 557103
1, 269240, Tempo, 554529
1, 269280, Note_on_c, 0, 71, 0
1, 269280, Note_on_c, 0, 43, 0
1, 269280, Note_on_c, 0, 79, 51
1, 269280, Note_on_c, 0, 50, 32
1, 269280, Note_on_c, 0, 55, 32
1, 269280, Note_on_c, 0, 59, 32
1, 269360, Tempo, 557103
1, 269400, Note_on_c, 0, 79, 0
1, 269400, Note_on_c, 0, 74, 50
1, 269440, Tempo, 559806
1, 269520, Tempo, 562377
1, 269520, Note_on_c, 0, 74, 0
1, 269520, Note_on_c, 0, 71, 49
1, 269600, Tempo, 565131
1, 269640, Note_on_c, 0, 71, 0
1, 269640, Note_on_c, 0, 67, 48
1, 269680, Tempo, 567805
1, 269760, Tempo, 631247
1, 269760, Note_on_c, 0, 67, 0
1, 269760, Note_on_c, 0, 59, 0
1, 269760, Note_on_c, 0, 55, 0
1, 269760, Note_on_c, 0, 50, 0
1, 269760, Note_on_c, 0, 75, 53
1, 269760, Note_on_c, 0, 36, 46
1, 269773, Control_c, 0, 64, 0
1, 269840, Tempo, 578760
1, 269880, Note_on_c, 0, 75, 0
1, 269880, Note_on_c, 0, 72, 51
1, 269880, Control_c, 0, 64, 127
1, 269900, Tempo, 575982
1, 269940, Tempo, 573230
1, 270000, Tempo, 570505
1, 270000, Note_on_c, 0, 72, 0
1, 270000, Note_on_c, 0, 67, 49
1, 270040, Tempo, 567805
1, 270100, Tempo, 565131
1, 270120, Note_on_c, 0, 67, 0
1, 270120, Note_on_c, 0, 63, 47
1, 270140, Tempo, 562430
1, 270200, Tempo, 559858
1, 270240, Tempo, 557207
1, 270240, Note_on_c, 0, 63, 0
1, 270240, Note_on_c, 0, 36, 0
1, 270240, Note_on_c, 0, 72, 51
1, 270240, Note_on_c, 0, 48, 39
1, 270240, Note_on_c, 0, 51, 39
1, 270240, Note_on_c, 0, 55, 39
1, 270300, Tempo, 559858
1, 270340, Tempo, 562430
1, 270360, Note_on_c, 0, 72, 0
1, 270360, Note_on_c, 0, 67, 50
1, 270380, Tempo, 565131
1, 270420, Tempo, 567805
1, 270460, Tempo, 570505
1, 270480, Note_on_c, 0, 67, 0
1, 270480, Note_on_c, 0, 63, 49
1, 270500, Tempo, 573230
1, 270540, Tempo, 575982
1, 270580, Tempo, 578760
1, 270600, Note_on_c, 0, 63, 0
1, 270600, Note_on_c, 0, 60, 48
1, 270620, Tempo, 581564
1, 270660, Tempo, 584454
1, 270700, Tempo, 587257
1, 270720, Tempo, 631247
1, 270720, Note_on_c, 0, 60, 0
1, 270720, Note_on_c, 0, 55, 0
1, 270720, Note_on_c, 0, 51, 0
1, 270720, Note_on_c, 0, 48, 0
1, 270720, Note_on_c, 0, 71, 53
1, 270720, Note_on_c, 0, 31, 46
1, 270732, Control_c, 0, 64, 0
1, 270800, Tempo, 567805
1, 270820, Tempo, 578760
1, 270829, Control_c, 0, 64, 127
1, 270840, Note_on_c, 0, 71, 0
1, 270840, Note_on_c, 0, 67, 51
1, 270880, Tempo, 575982
1, 270940, Tempo, 573230
1, 270960, Note_on_c, 0, 67, 0
1, 270960, Note_on_c, 0, 62, 49
1, 271000, Tempo, 570505
1, 271040, Tempo, 567805
1, 271080, Note_on_c, 0, 62, 0
1, 271080, Note_on_c, 0, 59, 47
1, 271100, Tempo, 565131
1, 271160, Tempo, 562430
1, 271200, Tempo, 559858
1, 271200, Note_on_c, 0, 59, 0
1, 271200, Note_on_c, 0, 31, 0
1, 271200, Note_on_c, 0, 62, 47
1, 271200, Note_on_c, 0, 47, 39
1, 271200, Note_on_c, 0, 50, 39
1, 271200, Note_on_c, 0, 55, 39
1, 271260, Tempo, 562430
1, 271320, Tempo, 565131
1, 271320, Note_on_c, 0, 62, 0
1, 271320, Note_on_c, 0, 65, 48
1, 271380, Tempo, 567805
1, 271440, Tempo, 570505
1, 271440, Note_on_c, 0, 65, 0
1, 271440, Note_on_c, 0, 71, 50
1, 271500, Tempo, 573230
1, 271560, Tempo, 575982
1, 271560, Note_on_c, 0, 71, 0
1, 271560, Note_on_c, 0, 74, 52
1, 271620, Tempo, 578760
1, 271660, Tempo, 581564
1, 271680, Tempo, 631247
1, 271680, Note_on_c, 0, 74, 0
1, 271680, Note_on_c, 0, 55, 0
1, 271680, Note_on_c, 0, 50, 0
1, 271680, Note_on_c, 0, 47, 0
1, 271680, Note_on_c, 0, 72, 53
1, 271680, Note_on_c, 0, 36, 46
1, 271696, Control_c, 0, 64, 0
1, 271760, Tempo, 581564
1, 271772, Control_c, 0, 64, 127
1, 271800, Note_on_c, 0, 72, 0
1, 271800, Note_on_c, 0, 67, 51
1, 271820, Tempo, 578760
1, 271880, Tempo, 575982
1, 271920, Note_on_c, 0, 67, 0
1, 271920, Note_on_c, 0, 63, 49
1, 271940, Tempo, 573230
1, 272000, Tempo, 570505
1, 272040, Note_on_c, 0, 63, 0
1, 272040, Note_on_c, 0, 60, 47
1, 272060, Tempo, 567805
1, 272120, Tempo, 565131
1, 272160, Tempo, 562430
1, 272160, Note_on_c, 0, 60, 0
1, 272160, Note_on_c, 0, 36, 0
1, 272160, Note_on_c, 0, 67, 51
1, 272160, Note_on_c, 0, 43, 39
1, 272160, Note_on_c, 0, 48, 39
1, 272160, Note_on_c, 0, 51, 39
1, 272220, Tempo, 565131
1, 272280, Tempo, 567805
1, 272280, Note_on_c, 0, 67, 0
1, 272280, Note_on_c, 0, 63, 50
1, 272340, Tempo, 570505
1, 272400, Tempo, 573230
1, 272400, Note_on_c, 0, 63, 0
1, 272400, Note_on_c, 0, 60, 49
1, 272460, Tempo, 575982
1, 272520, Tempo, 578760
1, 272520, Note_on_c, 0, 60, 0
1, 272520, Note_on_c, 0, 55, 48
1, 272580, Tempo, 581564
1, 272620, Tempo, 584454
1, 272640, Tempo, 631247
1, 272640, Note_on_c, 0, 55, 0
1, 272640, Note_on_c, 0, 51, 0
1, 272640, Note_on_c, 0, 48, 0
1, 272640, Note_on_c, 0, 43, 0
1, 272640, Note_on_c, 0, 67, 79
1, 272640, Note_on_c, 0, 43, 69
1, 272640, Note_on_c, 0, 31, 69
1, 272658, Control_c, 0, 64, 0
1, 272686, Control_c, 0, 64, 127
1, 272720, Tempo, 567805
1, 272760, Note_on_c, 0, 67, 0
1, 272760, Note_on_c, 0, 62, 75
1, 272800, Tempo, 565131
1, 272880, Tempo, 562377
1, 272880, Note_on_c, 0, 62, 0
1, 272880, Note_on_c, 0, 31, 0
1, 272880, Note_on_c, 0, 43, 0
1, 272880, Note_on_c, 0, 59, 75
1, 272960, Tempo, 559806
1, 273000, Note_on_c, 0, 59, 0
1, 273000, Note_on_c, 0, 55, 70
1, 273040, Tempo, 557103
1, 273080, Tempo, 554529
1, 273120, Note_on_c, 0, 55, 0
1, 273120, Note_on_c, 0, 59, 75
1, 273120, Note_on_c, 0, 47, 69
1, 273240, Note_on_c, 0, 47, 0
1, 273240, Note_on_c, 0, 59, 0
1, 273240, Note_on_c, 0, 62, 71
1, 273240, Note_on_c, 0, 50, 60
1, 273360, Note_on_c, 0, 50, 0
1, 273360, Note_on_c, 0, 62, 0
1, 273360, Note_on_c, 0, 59, 71
1, 273360, Note_on_c, 0, 47, 60
1, 273480, Tempo, 584624
1, 273480, Note_on_c, 0, 47, 0
1, 273480, Note_on_c, 0, 59, 0
1, 273480, Note_on_c, 0, 55, 71
1, 273480, Note_on_c, 0, 43, 59
1, 273600, Tempo, 562377
1, 273600, Note_on_c, 0, 43, 0
1, 273600, Note_on_c, 0, 55, 0
1, 273600, Note_on_c, 0, 60, 70
1, 273600, Note_on_c, 0, 48, 63
1, 273617, Control_c, 0, 64, 0
1, 273685, Control_c, 0, 64, 127
1, 273720, Note_on_c, 0, 48, 0
1, 273720, Note_on_c, 0, 60, 0
1, 273720, Note_on_c, 0, 55, 61
1, 273720, Note_on_c, 0, 43, 52
1, 273840, Note_on_c, 0, 43, 0
1, 273840, Note_on_c, 0, 55, 0
1, 273840, Note_on_c, 0, 51, 61
1, 273840, Note_on_c, 0, 39, 52
1, 273960, Tempo, 593413
1, 273960, Note_on_c, 0, 39, 0
1, 273960, Note_on_c, 0, 51, 0
1, 273960, Note_on_c, 0, 55, 60
1, 273960, Note_on_c, 0, 43, 52
1, 274080, Tempo, 562377
1, 274080, Note_on_c, 0, 43, 0
1, 274080, Note_on_c, 0, 55, 0
1, 274080, Note_on_c, 0, 51, 64
1, 274080, Note_on_c, 0, 39, 57
1, 274200, Note_on_c, 0, 39, 0
1, 274200, Note_on_c, 0, 51, 0
1, 274200, Note_on_c, 0, 55, 54
1, 274200, Note_on_c, 0, 43, 47
1, 274320, Note_on_c, 0, 43, 0
1, 274320, Note_on_c, 0, 55, 0
1, 274320, Note_on_c, 0, 51, 54
1, 274320, Note_on_c, 0, 39, 46
1, 274440, Note_on_c, 0, 39, 0
1, 274440, Note_on_c, 0, 51, 0
1, 274440, Note_on_c, 0, 48, 54
1, 274440, Note_on_c, 0, 36, 45
1, 274560, Tempo, 611496
1, 274560, Note_on_c, 0, 36, 0
1, 274560, Note_on_c, 0, 48, 0
1, 274560, Note_on_c, 0, 31, 57
1, 274569, Control_c, 0, 64, 0
1, 274646, Control_c, 0, 64, 127
1, 274680, Note_on_c, 0, 55, 34
1, 274800, Tempo, 550055
1, 274800, Note_on_c, 0, 55, 0
1, 274800, Note_on_c, 0, 31, 0
1, 274800, Note_on_c, 0, 50, 34
1, 274920, Note_on_c, 0, 50, 0
1, 274920, Note_on_c, 0, 47, 34
1, 275040, Note_on_c, 0, 47, 0
1, 275040, Note_on_c, 0, 56, 40
1, 275160, Note_on_c, 0, 55, 34
1, 275280, Note_on_c, 0, 55, 0
1, 275280, Note_on_c, 0, 50, 34
1, 275400, Note_on_c, 0, 50, 0
1, 275400, Note_on_c, 0, 47, 34
1, 275520, Note_on_c, 0, 47, 0
1, 275520, Note_on_c, 0, 56, 0
1, 275520, Note_on_c, 0, 56, 40
1, 275640, Note_on_c, 0, 55, 34
1, 275760, Note_on_c, 0, 55, 0
1, 275760, Note_on_c, 0, 50, 34
1, 275880, Note_on_c, 0, 50, 0
1, 275880, Note_on_c, 0, 47, 34
1, 276000, Tempo, 547445
1, 276000, Note_on_c, 0, 47, 0
1, 276000, Note_on_c, 0, 56, 0
1, 276000, Note_on_c, 0, 56, 39
1, 276080, Tempo, 550055
1, 276120, Tempo, 552690
1, 276120, Note_on_c, 0, 55, 34
1, 276160, Tempo, 555247
1, 276200, Tempo, 558088
1, 276240, Tempo, 560800
1, 276240, Note_on_c, 0, 55, 0
1, 276240, Note_on_c, 0, 50, 34
1, 276320, Tempo, 563539
1, 276360, Tempo, 566358
1, 276360, Note_on_c, 0, 50, 0
1, 276360, Note_on_c, 0, 47, 34
1, 276400, Tempo, 569098
1, 276440, Tempo, 571973
1, 276480, Tempo, 592593
1, 276480, Note_on_c, 0, 47, 0
1, 276480, Note_on_c, 0, 56, 0
1, 276480, Note_on_c, 0, 36, 50
1, 276480, Control_c, 0, 64, 0
1, 276600, Note_on_c, 0, 57, 34
1, 276629, Control_c, 0, 64, 127
1, 276720, Tempo, 550055
1, 276720, Note_on_c, 0, 57, 0
1, 276720, Note_on_c, 0, 36, 0
1, 276720, Note_on_c, 0, 51, 34
1, 276840, Note_on_c, 0, 51, 0
1, 276840, Note_on_c, 0, 48, 34
1, 276960, Note_on_c, 0, 48, 0
1, 276960, Note_on_c, 0, 54, 40
1, 277080, Note_on_c, 0, 57, 34
1, 277200, Note_on_c, 0, 57, 0
1, 277200, Note_on_c, 0, 51, 34
1, 277320, Note_on_c, 0, 51, 0
1, 277320, Note_on_c, 0, 48, 34
1, 277440, Note_on_c, 0, 48, 0
1, 277440, Note_on_c, 0, 54, 0
1, 277440, Note_on_c, 0, 54, 40
1, 277560, Note_on_c, 0, 57, 34
1, 277680, Note_on_c, 0, 57, 0
1, 277680, Note_on_c, 0, 51, 34
1, 277800, Note_on_c, 0, 51, 0
1, 277800, Note_on_c, 0, 48, 34
1, 277920, Tempo, 552690
1, 277920, Note_on_c, 0, 48, 0
1, 277920, Note_on_c, 0, 54, 0
1, 277920, Note_on_c, 0, 54, 40
1, 278000, Tempo, 555247
1, 278040, Tempo, 558088
1, 278040, Note_on_c, 0, 57, 34
1, 278080, Tempo, 560800
1, 278120, Tempo, 563539
1, 278160, Note_on_c, 0, 57, 0
1, 278160, Note_on_c, 0, 51, 34
1, 278200, Tempo, 566358
1, 278240, Tempo, 569098
1, 278280, Tempo, 571973
1, 278280, Note_on_c, 0, 51, 0
1, 278280, Note_on_c, 0, 48, 34
1, 278320, Tempo, 574713
1, 278360, Tempo, 577756
1, 278400, Tempo, 592593
1, 278400, Note_on_c, 0, 48, 0
1, 278400, Note_on_c, 0, 54, 0
1, 278400, Note_on_c, 0, 31, 50
1, 278410, Control_c, 0, 64, 0
1, 278515, Control_c, 0, 64, 127
1, 278520, Note_on_c, 0, 55, 34
1, 278640, Tempo, 550055
1, 278640, Note_on_c, 0, 55, 0
1, 278640, Note_on_c, 0, 31, 0
1, 278640, Note_on_c, 0, 50, 34
1, 278760, Note_on_c, 0, 50, 0
1, 278760, Note_on_c, 0, 47, 34
1, 278880, Note_on_c, 0, 47, 0
1, 278880, Note_on_c, 0, 56, 39
1, 279000, Note_on_c, 0, 55, 34
1, 279120, Note_on_c, 0, 55, 0
1, 279120, Note_on_c, 0, 50, 34
1, 279240, Note_on_c, 0, 50, 0
1, 279240, Note_on_c, 0, 47, 34
1, 279360, Note_on_c, 0, 47, 0
1, 279360, Note_on_c, 0, 56, 0
1, 279360, Note_on_c, 0, 56, 39
1, 279480, Note_on_c, 0, 55, 34
1, 279600, Note_on_c, 0, 55, 0
1, 279600, Note_on_c, 0, 50, 34
1, 279720, Note_on_c, 0, 50, 0
1, 279720, Note_on_c, 0, 47, 34
1, 279840, Tempo, 552690
1, 279840, Note_on_c, 0, 47, 0
1, 279840, Note_on_c, 0, 56, 0
1, 279840, Note_on_c, 0, 56, 39
1, 279920, Tempo, 555247
1, 279960, Tempo, 558088
1, 279960, Note_on_c, 0, 55, 34
1, 280000, Tempo, 560800
1, 280040, Tempo, 563539
1, 280080, Note_on_c, 0, 55, 0
1, 280080, Note_on_c, 0, 50, 34
1, 280120, Tempo, 566358
1, 280160, Tempo, 569098
1, 280200, Tempo, 571973
1, 280200, Note_on_c, 0, 50, 0
1, 280200, Note_on_c, 0, 47, 34
1, 280240, Tempo, 574713
1, 280280, Tempo, 577756
1, 280320, Tempo, 592593
1, 280320, Note_on_c, 0, 47, 0
1, 280320, Note_on_c, 0, 56, 0
1, 280320, Note_on_c, 0, 36, 50
1, 280333, Control_c, 0, 64, 0
1, 280440, Note_on_c, 0, 57, 34
1, 280457, Control_c, 0, 64, 127
1, 280560, Tempo, 550055
1, 280560, Note_on_c, 0, 57, 0
1, 280560, Note_on_c, 0, 36, 0
1, 280560, Note_on_c, 0, 51, 34
1, 280680, Note_on_c, 0, 51, 0
1, 280680, Note_on_c, 0, 48, 34
1, 280800, Tempo, 557207
1, 280800, Note_on_c, 0, 48, 0
1, 280800, Note_on_c, 0, 54, 39
1, 280920, Note_on_c, 0, 57, 34
1, 281040, Note_on_c, 0, 57, 0
1, 281040, Note_on_c, 0, 51, 34
1, 281160, Note_on_c, 0, 51, 0
1, 281160, Note_on_c, 0, 48, 34
1, 281280, Note_on_c, 0, 48, 0
1, 281280, Note_on_c, 0, 54, 0
1, 281280, Note_on_c, 0, 54, 39
1, 281400, Note_on_c, 0, 57, 34
1, 281520, Note_on_c, 0, 57, 0
1, 281520, Note_on_c, 0, 51, 34
1, 281640, Note_on_c, 0, 51, 0
1, 281640, Note_on_c, 0, 48, 34
1, 281760, Tempo, 552690
1, 281760, Note_on_c, 0, 48, 0
1, 281760, Note_on_c, 0, 54, 0
1, 281760, Note_on_c, 0, 54, 39
1, 281840, Tempo, 555247
1, 281880, Tempo, 558088
1, 281880, Note_on_c, 0, 57, 34
1, 281920, Tempo, 566358
1, 281960, Tempo, 571973
1, 282000, Tempo, 580608
1, 282000, Note_on_c, 0, 57, 0
1, 282000, Note_on_c, 0, 51, 34
1, 282040, Tempo, 586510
1, 282080, Tempo, 595593
1, 282120, Tempo, 605083
1, 282120, Note_on_c, 0, 51, 0
1, 282120, Note_on_c, 0, 48, 34
1, 282160, Tempo, 611496
1, 282200, Tempo, 621440
1, 282240, Tempo, 631712
1, 282240, Note_on_c, 0, 48, 0
1, 282240, Note_on_c, 0, 54, 0
1, 282240, Note_on_c, 0, 55, 77
1, 282240, Note_on_c, 0, 31, 85
1, 282250, Control_c, 0, 64, 0
1, 282349, Control_c, 0, 64, 127
1, 282360, Tempo, 552690
1, 282360, Note_on_c, 0, 55, 0
1, 282360, Note_on_c, 0, 50, 60
1, 282480, Tempo, 550055
1, 282480, Note_on_c, 0, 50, 0
1, 282480, Note_on_c, 0, 31, 0
1, 282480, Note_on_c, 0, 47, 60
1, 282600, Note_on_c, 0, 47, 0
1, 282600, Note_on_c, 0, 50, 60
1, 282720, Tempo, 570505
1, 282720, Note_on_c, 0, 50, 0
1, 282720, Note_on_c, 0, 55, 76
1, 282720, Note_on_c, 0, 59, 75
1, 282840, Note_on_c, 0, 55, 0
1, 282840, Note_on_c, 0, 50, 60
1, 282960, Note_on_c, 0, 50, 0
1, 282960, Note_on_c, 0, 47, 60
1, 283080, Note_on_c, 0, 47, 0
1, 283080, Note_on_c, 0, 50, 60
1, 283200, Tempo, 557207
1, 283200, Note_on_c, 0, 50, 0
1, 283200, Note_on_c, 0, 59, 0
1, 283200, Note_on_c, 0, 55, 76
1, 283200, Note_on_c, 0, 59, 75
1, 283320, Note_on_c, 0, 55, 0
1, 283320, Note_on_c, 0, 50, 59
1, 283440, Note_on_c, 0, 50, 0
1, 283440, Note_on_c, 0, 47, 59
1, 283560, Note_on_c, 0, 47, 0
1, 283560, Note_on_c, 0, 50, 59
1, 283680, Tempo, 552690
1, 283680, Note_on_c, 0, 50, 0
1, 283680, Note_on_c, 0, 55, 67
1, 283760, Tempo, 555247
1, 283800, Tempo, 558088
1, 283800, Note_on_c, 0, 55, 0
1, 283800, Note_on_c, 0, 50, 61
1, 283840, Tempo, 560800
1, 283880, Tempo, 563539
1, 283920, Note_on_c, 0, 50, 0
1, 283920, Note_on_c, 0, 47, 61
1, 283960, Tempo, 566358
1, 284000, Tempo, 569098
1, 284040, Tempo, 571973
1, 284040, Note_on_c, 0, 47, 0
1, 284040, Note_on_c, 0, 50, 61
1, 284080, Tempo, 574713
1, 284120, Tempo, 577756
1, 284160, Tempo, 631712
1, 284160, Note_on_c, 0, 50, 0
1, 284160, Note_on_c, 0, 59, 0
1, 284160, Note_on_c, 0, 59, 77
1, 284160, Note_on_c, 0, 31, 85
1, 284280, Tempo, 552690
1, 284280, Note_on_c, 0, 59, 0
1, 284280, Note_on_c, 0, 55, 60
1, 284400, Tempo, 550055
1, 284400, Note_on_c, 0, 55, 0
1, 284400, Note_on_c, 0, 31, 0
1, 284400, Note_on_c, 0, 50, 60
1, 284520, Note_on_c, 0, 50, 0
1, 284520, Note_on_c, 0, 55, 60
1, 284640, Tempo, 575982
1, 284640, Note_on_c, 0, 55, 0
1, 284640, Note_on_c, 0, 59, 76
1, 284640, Note_on_c, 0, 62, 75
1, 284760, Note_on_c, 0, 59, 0
1, 284760, Note_on_c, 0, 55, 60
1, 284880, Note_on_c, 0, 55, 0
1, 284880, Note_on_c, 0, 50, 60
1, 285000, Note_on_c, 0, 50, 0
1, 285000, Note_on_c, 0, 55, 60
1, 285120, Tempo, 559858
1, 285120, Note_on_c, 0, 55, 0
1, 285120, Note_on_c, 0, 62, 0
1, 285120, Note_on_c, 0, 59, 76
1, 285120, Note_on_c, 0, 62, 75
1, 285240, Note_on_c, 0, 59, 0
1, 285240, Note_on_c, 0, 55, 59
1, 285360, Note_on_c, 0, 55, 0
1, 285360, Note_on_c, 0, 50, 59
1, 285480, Note_on_c, 0, 50, 0
1, 285480, Note_on_c, 0, 55, 59
1, 285600, Tempo, 552690
1, 285600, Note_on_c, 0, 55, 0
1, 285600, Note_on_c, 0, 59, 66
1, 285680, Tempo, 555247
1, 285720, Tempo, 558088
1, 285720, Note_on_c, 0, 59, 0
1, 285720, Note_on_c, 0, 55, 58
1, 285760, Tempo, 560800
1, 285800, Tempo, 563539
1, 285840, Note_on_c, 0, 55, 0
1, 285840, Note_on_c, 0, 50, 58
1, 285880, Tempo, 566358
1, 285920, Tempo, 569098
1, 285960, Tempo, 571973
1, 285960, Note_on_c, 0, 50, 0
1, 285960, Note_on_c, 0, 55, 58
1, 286000, Tempo, 574713
1, 286040, Tempo, 577756
1, 286080, Tempo, 631712
1, 286080, Note_on_c, 0, 55, 0
1, 286080, Note_on_c, 0, 62, 0
1, 286080, Note_on_c, 0, 62, 77
1, 286080, Note_on_c, 0, 31, 85
1, 286200, Tempo, 552690
1, 286200, Note_on_c, 0, 62, 0
1, 286200, Note_on_c, 0, 59, 60
1, 286320, Tempo, 550055
1, 286320, Note_on_c, 0, 59, 0
1, 286320, Note_on_c, 0, 31, 0
1, 286320, Note_on_c, 0, 55, 60
1, 286440, Note_on_c, 0, 55, 0
1, 286440, Note_on_c, 0, 59, 60
1, 286560, Tempo, 559858
1, 286560, Note_on_c, 0, 59, 0
1, 286560, Note_on_c, 0, 62, 76
1, 286560, Note_on_c, 0, 65, 75
1, 286680, Note_on_c, 0, 62, 0
1, 286680, Note_on_c, 0, 59, 60
1, 286800, Note_on_c, 0, 59, 0
1, 286800, Note_on_c, 0, 55, 60
1, 286920, Note_on_c, 0, 55, 0
1, 286920, Note_on_c, 0, 59, 60
1, 287030, Note_on_c, 0, 65, 0
1, 287040, Tempo, 549602
1, 287040, Note_on_c, 0, 59, 0
1, 287040, Note_on_c, 0, 62, 76
1, 287040, Note_on_c, 0, 65, 75
1, 287160, Note_on_c, 0, 62, 0
1, 287160, Note_on_c, 0, 59, 59
1, 287280, Note_on_c, 0, 59, 0
1, 287280, Note_on_c, 0, 55, 59
1, 287400, Note_on_c, 0, 55, 0
1, 287400, Note_on_c, 0, 59, 59
1, 287520, Tempo, 552690
1, 287520, Note_on_c, 0, 59, 0
1, 287520, Note_on_c, 0, 62, 66
1, 287600, Tempo, 555247
1, 287640, Tempo, 558088
1, 287640, Note_on_c, 0, 62, 0
1, 287640, Note_on_c, 0, 59, 58
1, 287680, Tempo, 560800
1, 287720, Tempo, 563539
1, 287760, Note_on_c, 0, 59, 0
1, 287760, Note_on_c, 0, 55, 58
1, 287800, Tempo, 566358
1, 287840, Tempo, 569098
1, 287880, Tempo, 571973
1, 287880, Note_on_c, 0, 55, 0
1, 287880, Note_on_c, 0, 59, 58
1, 287920, Tempo, 574713
1, 287960, Tempo, 577756
1, 287997, Note_on_c, 0, 65, 0
1, 288000, Tempo, 552690
1, 288000, Note_on_c, 0, 59, 0
1, 288000, Note_on_c, 0, 65, 64
1, 288012, Control_c, 0, 64, 0
1, 288092, Control_c, 0, 64, 127
1, 288120, Note_on_c, 0, 65, 0
1, 288120, Note_on_c, 0, 59, 39
1, 288120, Note_on_c, 0, 62, 50
1, 288240, Note_on_c, 0, 62, 0
1, 288240, Note_on_c, 0, 59, 0
1, 288240, Note_on_c, 0, 55, 49
1, 288360, Note_on_c, 0, 55, 0
1, 288360, Note_on_c, 0, 62, 49
1, 288360, Note_on_c, 0, 59, 39
1, 288480, Tempo, 560800
1, 288480, Note_on_c, 0, 59, 0
1, 288480, Note_on_c, 0, 62, 0
1, 288480, Note_on_c, 0, 65, 58
1, 288480, Note_on_c, 0, 71, 64
1, 288600, Note_on_c, 0, 65, 0
1, 288600, Note_on_c, 0, 62, 47
1, 288600, Note_on_c, 0, 59, 38
1, 288720, Note_on_c, 0, 59, 0
1, 288720, Note_on_c, 0, 62, 0
1, 288720, Note_on_c, 0, 55, 47
1, 288840, Note_on_c, 0, 55, 0
1, 288840, Note_on_c, 0, 62, 47
1, 288840, Note_on_c, 0, 59, 37
1, 288960, Tempo, 550055
1, 288960, Note_on_c, 0, 59, 0
1, 288960, Note_on_c, 0, 62, 0
1, 288960, Note_on_c, 0, 71, 0
1, 288960, Note_on_c, 0, 65, 61
1, 289080, Note_on_c, 0, 65, 0
1, 289080, Note_on_c, 0, 59, 37
1, 289080, Note_on_c, 0, 62, 47
1, 289200, Note_on_c, 0, 62, 0
1, 289200, Note_on_c, 0, 59, 0
1, 289200, Note_on_c, 0, 55, 47
1, 289320, Note_on_c, 0, 55, 0
1, 289320, Note_on_c, 0, 62, 46
1, 289320, Note_on_c, 0, 59, 35
1, 289440, Tempo, 560800
1, 289440, Note_on_c, 0, 59, 0
1, 289440, Note_on_c, 0, 62, 0
1, 289440, Note_on_c, 0, 65, 54
1, 289440, Note_on_c, 0, 74, 57
1, 289560, Note_on_c, 0, 65, 0
1, 289560, Note_on_c, 0, 62, 44
1, 289560, Note_on_c, 0, 59, 35
1, 289680, Note_on_c, 0, 59, 0
1, 289680, Note_on_c, 0, 62, 0
1, 289680, Note_on_c, 0, 55, 44
1, 289800, Note_on_c, 0, 55, 0
1, 289800, Note_on_c, 0, 62, 43
1, 289800, Note_on_c, 0, 59, 34
1, 289920, Tempo, 552690
1, 289920, Note_on_c, 0, 59, 0
1, 289920, Note_on_c, 0, 62, 0
1, 289920, Note_on_c, 0, 74, 0
1, 289920, Note_on_c, 0, 65, 56
1, 290040, Note_on_c, 0, 65, 0
1, 290040, Note_on_c, 0, 59, 33
1, 290040, Note_on_c, 0, 62, 42
1, 290160, Note_on_c, 0, 62, 0
1, 290160, Note_on_c, 0, 59, 0
1, 290160, Note_on_c, 0, 55, 42
1, 290280, Note_on_c, 0, 55, 0
1, 290280, Note_on_c, 0, 62, 42
1, 290280, Note_on_c, 0, 59, 32
1, 290400, Tempo, 563539
1, 290400, Note_on_c, 0, 59, 0
1, 290400, Note_on_c, 0, 62, 0
1, 290400, Note_on_c, 0, 65, 49
1, 290400, Note_on_c, 0, 77, 52
1, 290520, Note_on_c, 0, 65, 0
1, 290520, Note_on_c, 0, 62, 39
1, 290520, Note_on_c, 0, 59, 32
1, 290640, Note_on_c, 0, 59, 0
1, 290640, Note_on_c, 0, 62, 0
1, 290640, Note_on_c, 0, 55, 39
1, 290760, Note_on_c, 0, 55, 0
1, 290760, Note_on_c, 0, 62, 39
1, 290760, Note_on_c, 0, 59, 31
1, 290880, Tempo, 552690
1, 290880, Note_on_c, 0, 59, 0
1, 290880, Note_on_c, 0, 62, 0
1, 290880, Note_on_c, 0, 77, 0
1, 290880, Note_on_c, 0, 65, 50
1, 291000, Note_on_c, 0, 65, 0
1, 291000, Note_on_c, 0, 59, 30
1, 291000, Note_on_c, 0, 62, 39
1, 291120, Note_on_c, 0, 62, 0
1, 291120, Note_on_c, 0, 59, 0
1, 291120, Note_on_c, 0, 55, 39
1, 291240, Note_on_c, 0, 55, 0
1, 291240, Note_on_c, 0, 62, 38
1, 291240, Note_on_c, 0, 59, 29
1, 291360, Tempo, 563539
1, 291360, Note_on_c, 0, 59, 0
1, 291360, Note_on_c, 0, 62, 0
1, 291360, Note_on_c, 0, 65, 45
1, 291360, Note_on_c, 0, 77, 52
1, 291480, Note_on_c, 0, 65, 0
1, 291480, Note_on_c, 0, 62, 36
1, 291480, Note_on_c, 0, 59, 29
1, 291600, Note_on_c, 0, 59, 0
1, 291600, Note_on_c, 0, 62, 0
1, 291600, Note_on_c, 0, 55, 35
1, 291720, Note_on_c, 0, 55, 0
1, 291720, Note_on_c, 0, 62, 35
1, 291720, Note_on_c, 0, 59, 28
1, 291840, Tempo, 552690
1, 291840, Note_on_c, 0, 59, 0
1, 291840, Note_on_c, 0, 62, 0
1, 291840, Note_on_c, 0, 77, 0
1, 291840, Note_on_c, 0, 65, 43
1, 291840, Note_on_c, 0, 77, 49
1, 291960, Note_on_c, 0, 65, 0
1, 291960, Note_on_c, 0, 59, 26
1, 291960, Note_on_c, 0, 62, 33
1, 292080, Note_on_c, 0, 62, 0
1, 292080, Note_on_c, 0, 59, 0
1, 292080, Note_on_c, 0, 55, 33
1, 292200, Note_on_c, 0, 55, 0
1, 292200, Note_on_c, 0, 62, 31
1, 292200, Note_on_c, 0, 59, 24
1, 292320, Tempo, 560800
1, 292320, Note_on_c, 0, 59, 0
1, 292320, Note_on_c, 0, 62, 0
1, 292320, Note_on_c, 0, 77, 0
1, 292320, Note_on_c, 0, 65, 38
1, 292320, Note_on_c, 0, 32, 41
1, 292320, Note_on_c, 0, 44, 41
1, 292440, Note_on_c, 0, 65, 0
1, 292440, Note_on_c, 0, 62, 31
1, 292440, Note_on_c, 0, 59, 24
1, 292560, Note_on_c, 0, 59, 0
1, 292560, Note_on_c, 0, 62, 0
1, 292560, Note_on_c, 0, 55, 30
1, 292680, Note_on_c, 0, 55, 0
1, 292680, Note_on_c, 0, 62, 30
1, 292680, Note_on_c, 0, 59, 23
1, 292800, Tempo, 552690
1, 292800, Note_on_c, 0, 59, 0
1, 292800, Note_on_c, 0, 32, 0
1, 292800, Note_on_c, 0, 44, 0
1, 292800, Note_on_c, 0, 62, 0
1, 292800, Note_on_c, 0, 65, 42
1, 292800, Note_on_c, 0, 31, 38
1, 292800, Note_on_c, 0, 43, 38
1, 292920, Note_on_c, 0, 65, 0
1, 292920, Note_on_c, 0, 59, 25
1, 292920, Note_on_c, 0, 62, 31
1, 293040, Note_on_c, 0, 62, 0
1, 293040, Note_on_c, 0, 31, 0
1, 293040, Note_on_c, 0, 43, 0
1, 293040, Note_on_c, 0, 59, 0
1, 293040, Note_on_c, 0, 55, 31
1, 293160, Note_on_c, 0, 55, 0
1, 293160, Note_on_c, 0, 62, 30
1, 293160, Note_on_c, 0, 59, 24
1, 293280, Tempo, 560800
1, 293280, Note_on_c, 0, 59, 0
1, 293280, Note_on_c, 0, 62, 0
1, 293280, Note_on_c, 0, 65, 38
1, 293280, Note_on_c, 0, 77, 50
1, 293400, Note_on_c, 0, 65, 0
1, 293400, Note_on_c, 0, 62, 30
1, 293400, Note_on_c, 0, 59, 23
1, 293520, Note_on_c, 0, 59, 0
1, 293520, Note_on_c, 0, 62, 0
1, 293520, Note_on_c, 0, 55, 30
1, 293640, Note_on_c, 0, 55, 0
1, 293640, Note_on_c, 0, 62, 30
1, 293640, Note_on_c, 0, 59, 22
1, 293750, Note_on_c, 0, 77, 0
1, 293760, Tempo, 552690
1, 293760, Note_on_c, 0, 59, 0
1, 293760, Note_on_c, 0, 62, 0
1, 293760, Note_on_c, 0, 65, 40
1, 293760, Note_on_c, 0, 77, 50
1, 293880, Note_on_c, 0, 65, 0
1, 293880, Note_on_c, 0, 59, 24
1, 293880, Note_on_c, 0, 62, 30
1, 294000, Note_on_c, 0, 62, 0
1, 294000, Note_on_c, 0, 59, 0
1, 294000, Note_on_c, 0, 55, 30
1, 294120, Note_on_c, 0, 55, 0
1, 294120, Note_on_c, 0, 62, 30
1, 294120, Note_on_c, 0, 59, 23
1, 294240, Tempo, 563539
1, 294240, Note_on_c, 0, 59, 0
1, 294240, Note_on_c, 0, 62, 0
1, 294240, Note_on_c, 0, 77, 0
1, 294240, Note_on_c, 0, 65, 36
1, 294240, Note_on_c, 0, 32, 41
1, 294240, Note_on_c, 0, 44, 41
1, 294360, Note_on_c, 0, 65, 0
1, 294360, Note_on_c, 0, 62, 30
1, 294360, Note_on_c, 0, 59, 23
1, 294480, Note_on_c, 0, 59, 0
1, 294480, Note_on_c, 0, 62, 0
1, 294480, Note_on_c, 0, 55, 29
1, 294600, Note_on_c, 0, 55, 0
1, 294600, Note_on_c, 0, 62, 29
1, 294600, Note_on_c, 0, 59, 21
1, 294720, Tempo, 552690
1, 294720, Note_on_c, 0, 59, 0
1, 294720, Note_on_c, 0, 32, 0
1, 294720, Note_on_c, 0, 44, 0
1, 294720, Note_on_c, 0, 62, 0
1, 294720, Note_on_c, 0, 65, 40
1, 294720, Note_on_c, 0, 31, 39
1, 294720, Note_on_c, 0, 43, 39
1, 294840, Note_on_c, 0, 65, 0
1, 294840, Note_on_c, 0, 59, 23
1, 294840, Note_on_c, 0, 62, 31
1, 294960, Note_on_c, 0, 62, 0
1, 294960, Note_on_c, 0, 31, 0
1, 294960, Note_on_c, 0, 43, 0
1, 294960, Note_on_c, 0, 59, 0
1, 294960, Note_on_c, 0, 55, 30
1, 295080, Note_on_c, 0, 55, 0
1, 295080, Note_on_c, 0, 62, 29
1, 295080, Note_on_c, 0, 59, 23
1, 295200, Tempo, 558088
1, 295200, Note_on_c, 0, 59, 0
1, 295200, Note_on_c, 0, 62, 0
1, 295200, Note_on_c, 0, 65, 35
1, 295200, Note_on_c, 0, 77, 45
1, 295320, Note_on_c, 0, 65, 0
1, 295320, Note_on_c, 0, 62, 29
1, 295320, Note_on_c, 0, 59, 23
1, 295440, Note_on_c, 0, 59, 0
1, 295440, Note_on_c, 0, 62, 0
1, 295440, Note_on_c, 0, 55, 28
1, 295560, Note_on_c, 0, 55, 0
1, 295560, Note_on_c, 0, 62, 28
1, 295560, Note_on_c, 0, 59, 22
1, 295680, Tempo, 552690
1, 295680, Note_on_c, 0, 59, 0
1, 295680, Note_on_c, 0, 62, 0
1, 295680, Note_on_c, 0, 77, 0
1, 295680, Note_on_c, 0, 65, 39
1, 295800, Note_on_c, 0, 65, 0
1, 295800, Note_on_c, 0, 59, 23
1, 295800, Note_on_c, 0, 62, 30
1, 295920, Note_on_c, 0, 62, 0
1, 295920, Note_on_c, 0, 59, 0
1, 295920, Note_on_c, 0, 55, 30
1, 296040, Note_on_c, 0, 55, 0
1, 296040, Note_on_c, 0, 62, 29
1, 296040, Note_on_c, 0, 59, 23
1, 296160, Tempo, 570505
1, 296160, Note_on_c, 0, 59, 0
1, 296160, Note_on_c, 0, 62, 0
1, 296160, Note_on_c, 0, 65, 36
1, 296160, Note_on_c, 0, 77, 45
1, 296280, Note_on_c, 0, 65, 0
1, 296280, Note_on_c, 0, 62, 29
1, 296280, Note_on_c, 0, 59, 23
1, 296400, Note_on_c, 0, 59, 0
1, 296400, Note_on_c, 0, 62, 0
1, 296400, Note_on_c, 0, 55, 28
1, 296520, Note_on_c, 0, 55, 0
1, 296520, Note_on_c, 0, 62, 28
1, 296520, Note_on_c, 0, 59, 22
1, 296640, Tempo, 557207
1, 296640, Note_on_c, 0, 59, 0
1, 296640, Note_on_c, 0, 62, 0
1, 296640, Note_on_c, 0, 77, 0
1, 296640, Note_on_c, 0, 65, 39
1, 296760, Note_on_c, 0, 65, 0
1, 296760, Note_on_c, 0, 59, 24
1, 296760, Note_on_c, 0, 62, 30
1, 296880, Note_on_c, 0, 62, 0
1, 296880, Note_on_c, 0, 59, 0
1, 296880, Note_on_c, 0, 55, 30
1, 297000, Note_on_c, 0, 55, 0
1, 297000, Note_on_c, 0, 62, 29
1, 297000, Note_on_c, 0, 59, 23
1, 297120, Tempo, 575982
1, 297120, Note_on_c, 0, 59, 0
1, 297120, Note_on_c, 0, 62, 0
1, 297120, Note_on_c, 0, 65, 36
1, 297120, Note_on_c, 0, 56, 45
1, 297240, Note_on_c, 0, 65, 0
1, 297240, Note_on_c, 0, 62, 29
1, 297240, Note_on_c, 0, 59, 23
1, 297360, Note_on_c, 0, 59, 0
1, 297360, Note_on_c, 0, 62, 0
1, 297360, Note_on_c, 0, 55, 28
1, 297480, Note_on_c, 0, 55, 0
1, 297480, Note_on_c, 0, 62, 28
1, 297480, Note_on_c, 0, 59, 22
1, 297600, Tempo, 562430
1, 297600, Note_on_c, 0, 59, 0
1, 297600, Note_on_c, 0, 62, 0
1, 297600, Note_on_c, 0, 56, 0
1, 297600, Note_on_c, 0, 65, 40
1, 297720, Note_on_c, 0, 65, 0
1, 297720, Note_on_c, 0, 59, 24
1, 297720, Note_on_c, 0, 62, 31
1, 297840, Note_on_c, 0, 62, 0
1, 297840, Note_on_c, 0, 59, 0
1, 297840, Note_on_c, 0, 55, 31
1, 297960, Note_on_c, 0, 55, 0
1, 297960, Note_on_c, 0, 62, 30
1, 297960, Note_on_c, 0, 59, 23
1, 298080, Tempo, 578760
1, 298080, Note_on_c, 0, 59, 0
1, 298080, Note_on_c, 0, 62, 0
1, 298080, Note_on_c, 0, 65, 36
1, 298080, Note_on_c, 0, 43, 46
1, 298200, Note_on_c, 0, 65, 0
1, 298200, Note_on_c, 0, 62, 30
1, 298200, Note_on_c, 0, 59, 23
1, 298320, Note_on_c, 0, 59, 0
1, 298320, Note_on_c, 0, 62, 0
1, 298320, Note_on_c, 0, 55, 29
1, 298440, Note_on_c, 0, 55, 0
1, 298440, Note_on_c, 0, 62, 29
1, 298440, Note_on_c, 0, 59, 22
1, 298560, Tempo, 567805
1, 298560, Note_on_c, 0, 59, 0
1, 298560, Note_on_c, 0, 62, 0
1, 298560, Note_on_c, 0, 43, 0
1, 298560, Note_on_c, 0, 65, 40
1, 298680, Note_on_c, 0, 65, 0
1, 298680, Note_on_c, 0, 59, 24
1, 298680, Note_on_c, 0, 62, 31
1, 298800, Note_on_c, 0, 62, 0
1, 298800, Note_on_c, 0, 59, 0
1, 298800, Note_on_c, 0, 55, 31
1, 298920, Note_on_c, 0, 55, 0
1, 298920, Note_on_c, 0, 62, 30
1, 298920, Note_on_c, 0, 59, 23
1, 299040, Tempo, 614376
1, 299040, Note_on_c, 0, 59, 0
1, 299040, Note_on_c, 0, 62, 0
1, 299040, Note_on_c, 0, 59, 68
1, 299040, Note_on_c, 0, 71, 80
1, 299040, Note_on_c, 0, 31, 65
1, 299040, Note_on_c, 0, 43, 77
1, 299160, Note_on_c, 0, 71, 0
1, 299160, Note_on_c, 0, 59, 0
1, 299160, Note_on_c, 0, 62, 68
1, 299160, Note_on_c, 0, 59, 57
1, 299280, Note_on_c, 0, 59, 0
1, 299280, Note_on_c, 0, 43, 0
1, 299280, Note_on_c, 0, 31, 0
1, 299280, Note_on_c, 0, 62, 0
1, 299280, Note_on_c, 0, 59, 57
1, 299280, Note_on_c, 0, 71, 69
1, 299280, Note_on_c, 0, 31, 65
1, 299280, Note_on_c, 0, 43, 77
1, 299400, Note_on_c, 0, 71, 0
1, 299400, Note_on_c, 0, 59, 0
1, 299400, Note_on_c, 0, 62, 69
1, 299400, Note_on_c, 0, 59, 57
1, 299520, Key_signature, 0, "major"
1, 299520, Tempo, 629459
1, 299520, Note_on_c, 0, 59, 0
1, 299520, Note_on_c, 0, 43, 0
1, 299520, Note_on_c, 0, 31, 0
1, 299520, Note_on_c, 0, 62, 0
1, 299520, Note_on_c, 0, 60, 87
1, 299520, Note_on_c, 0, 64, 91
1, 299520, Note_on_c, 0, 72, 104
1, 299520, Note_on_c, 0, 48, 79
1, 299520, Note_on_c, 0, 36, 71
1, 299528, Control_c, 0, 64, 0
1, 299560, Tempo, 626305
1, 299600, Tempo, 623182
1, 299619, Control_c, 0, 64, 127
1, 299640, Tempo, 620027
1, 299640, Note_on_c, 0, 36, 0
1, 299640, Note_on_c, 0, 72, 0
1, 299640, Note_on_c, 0, 60, 0
1, 299640, Note_on_c, 0, 64, 0
1, 299640, Note_on_c, 0, 48, 0
1, 299640, Note_on_c, 0, 43, 66
1, 299680, Tempo, 616903
1, 299720, Tempo, 613936
1, 299760, Tempo, 610811
1, 299760, Note_on_c, 0, 43, 0
1, 299760, Note_on_c, 0, 48, 70
1, 299800, Tempo, 607841
1, 299840, Tempo, 604839
1, 299880, Tempo, 601866
1, 299880, Note_on_c, 0, 48, 0
1, 299880, Note_on_c, 0, 52, 76
1, 299920, Tempo, 598982
1, 299960, Tempo, 596066
1, 300000, Tempo, 590319
1, 300000, Note_on_c, 0, 52, 0
1, 300000, Note_on_c, 0, 91, 94
1, 300000, Note_on_c, 0, 79, 77
1, 300000, Note_on_c, 0, 55, 68
1, 300120, Note_on_c, 0, 55, 0
1, 300120, Note_on_c, 0, 48, 68
1, 300240, Note_on_c, 0, 48, 0
1, 300240, Note_on_c, 0, 79, 0
1, 300240, Note_on_c, 0, 91, 0
1, 300240, Note_on_c, 0, 52, 68
1, 300360, Note_on_c, 0, 52, 0
1, 300360, Note_on_c, 0, 55, 76
1, 300480, Tempo, 558347
1, 300480, Note_on_c, 0, 55, 0
1, 300480, Note_on_c, 0, 91, 100
1, 300480, Note_on_c, 0, 79, 84
1, 300480, Note_on_c, 0, 60, 66
1, 300600, Note_on_c, 0, 60, 0
1, 300600, Note_on_c, 0, 52, 68
1, 300720, Note_on_c, 0, 52, 0
1, 300720, Note_on_c, 0, 55, 71
1, 300840, Note_on_c, 0, 55, 0
1, 300840, Note_on_c, 0, 60, 78
1, 300960, Note_on_c, 0, 60, 0
1, 300960, Note_on_c, 0, 64, 71
1, 301080, Note_on_c, 0, 64, 0
1, 301080, Note_on_c, 0, 55, 71
1, 301200, Note_on_c, 0, 55, 0
1, 301200, Note_on_c, 0, 79, 0
1, 301200, Note_on_c, 0, 91, 0
1, 301200, Note_on_c, 0, 88, 87
1, 301200, Note_on_c, 0, 76, 73
1, 301200, Note_on_c, 0, 60, 71
1, 301320, Note_on_c, 0, 60, 0
1, 301320, Note_on_c, 0, 64, 78
1, 301440, Tempo, 543527
1, 301440, Note_on_c, 0, 64, 0
1, 301440, Note_on_c, 0, 76, 0
1, 301440, Note_on_c, 0, 88, 0
1, 301440, Note_on_c, 0, 86, 94
1, 301440, Note_on_c, 0, 74, 77
1, 301440, Note_on_c, 0, 65, 62
1, 301450, Control_c, 0, 64, 0
1, 301532, Control_c, 0, 64, 127
1, 301560, Note_on_c, 0, 65, 0
1, 301560, Note_on_c, 0, 64, 68
1, 301680, Note_on_c, 0, 64, 0
1, 301680, Note_on_c, 0, 62, 71
1, 301800, Note_on_c, 0, 62, 0
1, 301800, Note_on_c, 0, 60, 78
1, 301920, Tempo, 555761
1, 301920, Note_on_c, 0, 60, 0
1, 301920, Note_on_c, 0, 74, 0
1, 301920, Note_on_c, 0, 86, 0
1, 301920, Note_on_c, 0, 79, 76
1, 301920, Note_on_c, 0, 67, 63
1, 301920, Note_on_c, 0, 59, 71
1, 302040, Note_on_c, 0, 59, 0
1, 302040, Note_on_c, 0, 57, 71
1, 302160, Note_on_c, 0, 57, 0
1, 302160, Note_on_c, 0, 55, 76
1, 302280, Note_on_c, 0, 55, 0
1, 302280, Note_on_c, 0, 53, 76
1, 302400, Tempo, 582016
1, 302400, Note_on_c, 0, 53, 0
1, 302400, Note_on_c, 0, 67, 0
1, 302400, Note_on_c, 0, 79, 0
1, 302400, Note_on_c, 0, 84, 88
1, 302400, Note_on_c, 0, 72, 75
1, 302400, Note_on_c, 0, 52, 62
1, 302414, Control_c, 0, 64, 0
1, 302464, Control_c, 0, 64, 127
1, 302520, Note_on_c, 0, 52, 0
1, 302520, Note_on_c, 0, 55, 66
1, 302640, Note_on_c, 0, 55, 0
1, 302640, Note_on_c, 0, 48, 70
1, 302760, Note_on_c, 0, 48, 0
1, 302760, Note_on_c, 0, 52, 76
1, 302880, Note_on_c, 0, 52, 0
1, 302880, Note_on_c, 0, 72, 0
1, 302880, Note_on_c, 0, 84, 0
1, 302880, Note_on_c, 0, 88, 87
1, 302880, Note_on_c, 0, 76, 73
1, 302880, Note_on_c, 0, 43, 70
1, 303000, Note_on_c, 0, 43, 0
1, 303000, Note_on_c, 0, 48, 70
1, 303120, Note_on_c, 0, 48, 0
1, 303120, Note_on_c, 0, 76, 0
1, 303120, Note_on_c, 0, 88, 0
1, 303120, Note_on_c, 0, 40, 71
1, 303240, Tempo, 604839
1, 303240, Note_on_c, 0, 40, 0
1, 303240, Note_on_c, 0, 43, 76
1, 303360, Tempo, 629459
1, 303360, Note_on_c, 0, 43, 0
1, 303360, Note_on_c, 0, 36, 94
1, 303379, Control_c, 0, 64, 0
1, 303473, Control_c, 0, 64, 127
1, 303480, Tempo, 604839
1, 303480, Note_on_c, 0, 36, 0
1, 303480, Note_on_c, 0, 43, 66
1, 303560, Tempo, 601866
1, 303600, Note_on_c, 0, 43, 0
1, 303600, Note_on_c, 0, 48, 70
1, 303640, Tempo, 598982
1, 303680, Tempo, 596066
1, 303720, Note_on_c, 0, 48, 0
1, 303720, Note_on_c, 0, 52, 76
1, 303760, Tempo, 593237
1, 303800, Tempo, 590319
1, 303840, Tempo, 590319
1, 303840, Note_on_c, 0, 52, 0
1, 303840, Note_on_c, 0, 91, 94
1, 303840, Note_on_c, 0, 79, 77
1, 303840, Note_on_c, 0, 55, 68
1, 303960, Note_on_c, 0, 55, 0
1, 303960, Note_on_c, 0, 48, 68
1, 304080, Note_on_c, 0, 48, 0
1, 304080, Note_on_c, 0, 79, 0
1, 304080, Note_on_c, 0, 91, 0
1, 304080, Note_on_c, 0, 52, 68
1, 304200, Note_on_c, 0, 52, 0
1, 304200, Note_on_c, 0, 55, 76
1, 304320, Tempo, 558347
1, 304320, Note_on_c, 0, 55, 0
1, 304320, Note_on_c, 0, 91, 100
1, 304320, Note_on_c, 0, 79, 84
1, 304320, Note_on_c, 0, 60, 66
1, 304440, Note_on_c, 0, 60, 0
1, 304440, Note_on_c, 0, 52, 68
1, 304560, Note_on_c, 0, 52, 0
1, 304560, Note_on_c, 0, 55, 71
1, 304680, Note_on_c, 0, 55, 0
1, 304680, Note_on_c, 0, 60, 78
1, 304800, Note_on_c, 0, 60, 0
1, 304800, Note_on_c, 0, 64, 71
1, 304920, Note_on_c, 0, 64, 0
1, 304920, Note_on_c, 0, 55, 71
1, 305040, Note_on_c, 0, 55, 0
1, 305040, Note_on_c, 0, 79, 0
1, 305040, Note_on_c, 0, 91, 0
1, 305040, Note_on_c, 0, 88, 87
1, 305040, Note_on_c, 0, 76, 73
1, 305040, Note_on_c, 0, 60, 71
1, 305160, Note_on_c, 0, 60, 0
1, 305160, Note_on_c, 0, 64, 71
1, 305280, Tempo, 543527
1, 305280, Note_on_c, 0, 64, 0
1, 305280, Note_on_c, 0, 76, 0
1, 305280, Note_on_c, 0, 88, 0
1, 305280, Note_on_c, 0, 86, 94
1, 305280, Note_on_c, 0, 74, 77
1, 305280, Note_on_c, 0, 65, 62
1, 305290, Control_c, 0, 64, 0
1, 305365, Control_c, 0, 64, 127
1, 305400, Note_on_c, 0, 65, 0
1, 305400, Note_on_c, 0, 64, 68
1, 305520, Note_on_c, 0, 64, 0
1, 305520, Note_on_c, 0, 62, 71
1, 305640, Note_on_c, 0, 62, 0
1, 305640, Note_on_c, 0, 60, 78
1, 305760, Tempo, 555761
1, 305760, Note_on_c, 0, 60, 0
1, 305760, Note_on_c, 0, 74, 0
1, 305760, Note_on_c, 0, 86, 0
1, 305760, Note_on_c, 0, 79, 76
1, 305760, Note_on_c, 0, 67, 63
1, 305760, Note_on_c, 0, 59, 71
1, 305880, Note_on_c, 0, 59, 0
1, 305880, Note_on_c, 0, 55, 71
1, 306000, Note_on_c, 0, 55, 0
1, 306000, Note_on_c, 0, 57, 76
1, 306120, Note_on_c, 0, 57, 0
1, 306120, Note_on_c, 0, 59, 76
1, 306240, Tempo, 582016
1, 306240, Note_on_c, 0, 59, 0
1, 306240, Note_on_c, 0, 67, 0
1, 306240, Note_on_c, 0, 79, 0
1, 306240, Note_on_c, 0, 84, 83
1, 306240, Note_on_c, 0, 72, 69
1, 306240, Note_on_c, 0, 60, 62
1, 306254, Control_c, 0, 64, 0
1, 306325, Control_c, 0, 64, 127
1, 306360, Note_on_c, 0, 60, 0
1, 306360, Note_on_c, 0, 59, 64
1, 306480, Note_on_c, 0, 59, 0
1, 306480, Note_on_c, 0, 72, 0
1, 306480, Note_on_c, 0, 84, 0
1, 306480, Note_on_c, 0, 57, 68
1, 306600, Note_on_c, 0, 57, 0
1, 306600, Note_on_c, 0, 55, 73
1, 306720, Note_on_c, 0, 55, 0
1, 306720, Note_on_c, 0, 53, 68
1, 306840, Note_on_c, 0, 53, 0
1, 306840, Note_on_c, 0, 52, 68
1, 306960, Note_on_c, 0, 52, 0
1, 306960, Note_on_c, 0, 50, 69
1, 307080, Tempo, 601866
1, 307080, Note_on_c, 0, 50, 0
1, 307080, Note_on_c, 0, 48, 74
1, 307200, Tempo, 629459
1, 307200, Note_on_c, 0, 48, 0
1, 307200, Note_on_c, 0, 43, 80
1, 307213, Control_c, 0, 64, 0
1, 307271, Control_c, 0, 64, 127
1, 307320, Tempo, 610811
1, 307320, Note_on_c, 0, 43, 0
1, 307320, Note_on_c, 0, 47, 58
1, 307400, Tempo, 607841
1, 307440, Tempo, 604839
1, 307440, Note_on_c, 0, 47, 0
1, 307440, Note_on_c, 0, 50, 62
1, 307480, Tempo, 601866
1, 307520, Tempo, 598982
1, 307560, Tempo, 596066
1, 307560, Note_on_c, 0, 50, 0
1, 307560, Note_on_c, 0, 55, 67
1, 307600, Tempo, 593237
1, 307640, Tempo, 590319
1, 307680, Tempo, 590319
1, 307680, Note_on_c, 0, 55, 0
1, 307680, Note_on_c, 0, 89, 82
1, 307680, Note_on_c, 0, 77, 69
1, 307680, Note_on_c, 0, 47, 60
1, 307800, Note_on_c, 0, 47, 0
1, 307800, Note_on_c, 0, 50, 60
1, 307920, Note_on_c, 0, 50, 0
1, 307920, Note_on_c, 0, 77, 0
1, 307920, Note_on_c, 0, 89, 0
1, 307920, Note_on_c, 0, 55, 60
1, 308040, Note_on_c, 0, 55, 0
1, 308040, Note_on_c, 0, 59, 68
1, 308160, Tempo, 558347
1, 308160, Note_on_c, 0, 59, 0
1, 308160, Note_on_c, 0, 89, 86
1, 308160, Note_on_c, 0, 77, 73
1, 308160, Note_on_c, 0, 50, 58
1, 308280, Note_on_c, 0, 50, 0
1, 308280, Note_on_c, 0, 55, 60
1, 308400, Note_on_c, 0, 55, 0
1, 308400, Note_on_c, 0, 59, 63
1, 308520, Note_on_c, 0, 59, 0
1, 308520, Note_on_c, 0, 62, 70
1, 308640, Note_on_c, 0, 62, 0
1, 308640, Note_on_c, 0, 55, 53
1, 308760, Note_on_c, 0, 55, 0
1, 308760, Note_on_c, 0, 59, 53
1, 308880, Note_on_c, 0, 59, 0
1, 308880, Note_on_c, 0, 77, 0
1, 308880, Note_on_c, 0, 89, 0
1, 308880, Note_on_c, 0, 86, 55
1, 308880, Note_on_c, 0, 74, 45
1, 308880, Note_on_c, 0, 62, 45
1, 309000, Note_on_c, 0, 62, 0
1, 309000, Note_on_c, 0, 67, 50
1, 309120, Tempo, 543527
1, 309120, Note_on_c, 0, 67, 0
1, 309120, Note_on_c, 0, 74, 0
1, 309120, Note_on_c, 0, 86, 0
1, 309120, Note_on_c, 0, 88, 52
1, 309120, Note_on_c, 0, 76, 44
1, 309120, Note_on_c, 0, 55, 28
1, 309141, Control_c, 0, 64, 0
1, 309205, Control_c, 0, 64, 127
1, 309240, Note_on_c, 0, 55, 0
1, 309240, Note_on_c, 0, 60, 32
1, 309360, Note_on_c, 0, 60, 0
1, 309360, Note_on_c, 0, 67, 34
1, 309480, Note_on_c, 0, 67, 0
1, 309480, Note_on_c, 0, 60, 37
1, 309600, Tempo, 555761
1, 309600, Note_on_c, 0, 60, 0
1, 309600, Note_on_c, 0, 76, 0
1, 309600, Note_on_c, 0, 88, 0
1, 309600, Note_on_c, 0, 84, 42
1, 309600, Note_on_c, 0, 72, 35
1, 309600, Note_on_c, 0, 55, 28
1, 309720, Note_on_c, 0, 55, 0
1, 309720, Note_on_c, 0, 64, 32
1, 309840, Note_on_c, 0, 64, 0
1, 309840, Note_on_c, 0, 67, 34
1, 309960, Note_on_c, 0, 67, 0
1, 309960, Note_on_c, 0, 64, 37
1, 310080, Tempo, 582016
1, 310080, Note_on_c, 0, 64, 0
1, 310080, Note_on_c, 0, 72, 0
1, 310080, Note_on_c, 0, 84, 0
1, 310080, Note_on_c, 0, 83, 52
1, 310080, Note_on_c, 0, 71, 44
1, 310080, Note_on_c, 0, 55, 28
1, 310095, Control_c, 0, 64, 0
1, 310179, Control_c, 0, 64, 127
1, 310200, Note_on_c, 0, 55, 0
1, 310200, Note_on_c, 0, 62, 31
1, 310320, Note_on_c, 0, 62, 0
1, 310320, Note_on_c, 0, 67, 33
1, 310440, Note_on_c, 0, 67, 0
1, 310440, Note_on_c, 0, 62, 37
1, 310560, Note_on_c, 0, 62, 0
1, 310560, Note_on_c, 0, 71, 0
1, 310560, Note_on_c, 0, 83, 0
1, 310560, Note_on_c, 0, 86, 49
1, 310560, Note_on_c, 0, 74, 41
1, 310560, Note_on_c, 0, 55, 28
1, 310680, Note_on_c, 0, 55, 0
1, 310680, Note_on_c, 0, 59, 31
1, 310800, Note_on_c, 0, 59, 0
1, 310800, Note_on_c, 0, 74, 0
1, 310800, Note_on_c, 0, 86, 0
1, 310800, Note_on_c, 0, 67, 33
1, 310920, Tempo, 601866
1, 310920, Note_on_c, 0, 67, 0
1, 310920, Note_on_c, 0, 59, 36
1, 311040, Tempo, 629459
1, 311040, Note_on_c, 0, 59, 0
1, 311040, Note_on_c, 0, 43, 86
1, 311058, Control_c, 0, 64, 0
1, 311139, Control_c, 0, 64, 127
1, 311160, Tempo, 610811
1, 311160, Note_on_c, 0, 43, 0
1, 311160, Note_on_c, 0, 47, 58
1, 311240, Tempo, 607841
1, 311280, Tempo, 604839
1, 311280, Note_on_c, 0, 47, 0
1, 311280, Note_on_c, 0, 50, 62
1, 311320, Tempo, 601866
1, 311360, Tempo, 598982
1, 311400, Tempo, 596066
1, 311400, Note_on_c, 0, 50, 0
1, 311400, Note_on_c, 0, 55, 67
1, 311440, Tempo, 593237
1, 311480, Tempo, 590319
1, 311520, Tempo, 590319
1, 311520, Note_on_c, 0, 55, 0
1, 311520, Note_on_c, 0, 89, 78
1, 311520, Note_on_c, 0, 77, 66
1, 311520, Note_on_c, 0, 47, 60
1, 311640, Note_on_c, 0, 47, 0
1, 311640, Note_on_c, 0, 50, 60
1, 311760, Note_on_c, 0, 50, 0
1, 311760, Note_on_c, 0, 77, 0
1, 311760, Note_on_c, 0, 89, 0
1, 311760, Note_on_c, 0, 55, 60
1, 311880, Note_on_c, 0, 55, 0
1, 311880, Note_on_c, 0, 59, 68
1, 312000, Tempo, 558347
1, 312000, Note_on_c, 0, 59, 0
1, 312000, Note_on_c, 0, 89, 85
1, 312000, Note_on_c, 0, 77, 71
1, 312000, Note_on_c, 0, 50, 58
1, 312120, Note_on_c, 0, 50, 0
1, 312120, Note_on_c, 0, 55, 60
1, 312240, Note_on_c, 0, 55, 0
1, 312240, Note_on_c, 0, 59, 63
1, 312360, Note_on_c, 0, 59, 0
1, 312360, Note_on_c, 0, 62, 70
1, 312480, Note_on_c, 0, 62, 0
1, 312480, Note_on_c, 0, 55, 53
1, 312600, Note_on_c, 0, 55, 0
1, 312600, Note_on_c, 0, 59, 53
1, 312720, Note_on_c, 0, 59, 0
1, 312720, Note_on_c, 0, 77, 0
1, 312720, Note_on_c, 0, 89, 0
1, 312720, Note_on_c, 0, 86, 62
1, 312720, Note_on_c, 0, 74, 51
1, 312720, Note_on_c, 0, 62, 53
1, 312840, Note_on_c, 0, 62, 0
1, 312840, Note_on_c, 0, 67, 59
1, 312960, Tempo, 543527
1, 312960, Note_on_c, 0, 67, 0
1, 312960, Note_on_c, 0, 74, 0
1, 312960, Note_on_c, 0, 86, 0
1, 312960, Note_on_c, 0, 87, 50
1, 312960, Note_on_c, 0, 75, 42
1, 312960, Note_on_c, 0, 55, 26
1, 312972, Control_c, 0, 64, 0
1, 313040, Control_c, 0, 64, 127
1, 313080, Note_on_c, 0, 55, 0
1, 313080, Note_on_c, 0, 60, 30
1, 313200, Note_on_c, 0, 60, 0
1, 313200, Note_on_c, 0, 67, 32
1, 313320, Note_on_c, 0, 67, 0
1, 313320, Note_on_c, 0, 60, 33
1, 313440, Tempo, 555761
1, 313440, Note_on_c, 0, 60, 0
1, 313440, Note_on_c, 0, 75, 0
1, 313440, Note_on_c, 0, 87, 0
1, 313440, Note_on_c, 0, 84, 39
1, 313440, Note_on_c, 0, 72, 33
1, 313440, Note_on_c, 0, 55, 26
1, 313560, Note_on_c, 0, 55, 0
1, 313560, Note_on_c, 0, 63, 30
1, 313680, Note_on_c, 0, 63, 0
1, 313680, Note_on_c, 0, 67, 32
1, 313800, Note_on_c, 0, 67, 0
1, 313800, Note_on_c, 0, 63, 33
1, 313920, Tempo, 582016
1, 313920, Note_on_c, 0, 63, 0
1, 313920, Note_on_c, 0, 72, 0
1, 313920, Note_on_c, 0, 84, 0
1, 313920, Note_on_c, 0, 83, 50
1, 313920, Note_on_c, 0, 71, 42
1, 313920, Note_on_c, 0, 55, 26
1, 313937, Control_c, 0, 64, 0
1, 313998, Control_c, 0, 64, 127
1, 314040, Note_on_c, 0, 55, 0
1, 314040, Note_on_c, 0, 62, 30
1, 314160, Note_on_c, 0, 62, 0
1, 314160, Note_on_c, 0, 67, 31
1, 314280, Note_on_c, 0, 67, 0
1, 314280, Note_on_c, 0, 62, 33
1, 314400, Note_on_c, 0, 62, 0
1, 314400, Note_on_c, 0, 71, 0
1, 314400, Note_on_c, 0, 83, 0
1, 314400, Note_on_c, 0, 86, 45
1, 314400, Note_on_c, 0, 74, 38
1, 314400, Note_on_c, 0, 55, 26
1, 314520, Note_on_c, 0, 55, 0
1, 314520, Note_on_c, 0, 59, 30
1, 314640, Note_on_c, 0, 59, 0
1, 314640, Note_on_c, 0, 67, 31
1, 314760, Note_on_c, 0, 67, 0
1, 314760, Note_on_c, 0, 59, 33
1, 314880, Tempo, 543527
1, 314880, Note_on_c, 0, 59, 0
1, 314880, Note_on_c, 0, 74, 0
1, 314880, Note_on_c, 0, 86, 0
1, 314880, Note_on_c, 0, 88, 60
1, 314880, Note_on_c, 0, 76, 50
1, 314880, Note_on_c, 0, 55, 33
1, 314898, Control_c, 0, 64, 0
1, 314944, Control_c, 0, 64, 127
1, 315000, Note_on_c, 0, 55, 0
1, 315000, Note_on_c, 0, 60, 37
1, 315120, Note_on_c, 0, 60, 0
1, 315120, Note_on_c, 0, 67, 39
1, 315240, Note_on_c, 0, 67, 0
1, 315240, Note_on_c, 0, 60, 42
1, 315360, Tempo, 555761
1, 315360, Note_on_c, 0, 60, 0
1, 315360, Note_on_c, 0, 76, 0
1, 315360, Note_on_c, 0, 88, 0
1, 315360, Note_on_c, 0, 84, 50
1, 315360, Note_on_c, 0, 72, 42
1, 315360, Note_on_c, 0, 55, 33
1, 315480, Note_on_c, 0, 55, 0
1, 315480, Note_on_c, 0, 64, 38
1, 315600, Note_on_c, 0, 64, 0
1, 315600, Note_on_c, 0, 67, 40
1, 315720, Note_on_c, 0, 67, 0
1, 315720, Note_on_c, 0, 64, 44
1, 315840, Tempo, 582016
1, 315840, Note_on_c, 0, 64, 0
1, 315840, Note_on_c, 0, 72, 0
1, 315840, Note_on_c, 0, 84, 0
1, 315840, Note_on_c, 0, 83, 63
1, 315840, Note_on_c, 0, 71, 54
1, 315840, Note_on_c, 0, 55, 34
1, 315858, Control_c, 0, 64, 0
1, 315918, Control_c, 0, 64, 127
1, 315960, Note_on_c, 0, 55, 0
1, 315960, Note_on_c, 0, 62, 38
1, 316080, Note_on_c, 0, 62, 0
1, 316080, Note_on_c, 0, 67, 40
1, 316200, Note_on_c, 0, 67, 0
1, 316200, Note_on_c, 0, 62, 45
1, 316320, Note_on_c, 0, 62, 0
1, 316320, Note_on_c, 0, 71, 0
1, 316320, Note_on_c, 0, 83, 0
1, 316320, Note_on_c, 0, 86, 62
1, 316320, Note_on_c, 0, 74, 52
1, 316320, Note_on_c, 0, 55, 37
1, 316440, Note_on_c, 0, 55, 0
1, 316440, Note_on_c, 0, 59, 39
1, 316560, Note_on_c, 0, 59, 0
1, 316560, Note_on_c, 0, 67, 43
1, 316680, Note_on_c, 0, 67, 0
1, 316680, Note_on_c, 0, 59, 46
1, 316800, Tempo, 543527
1, 316800, Note_on_c, 0, 59, 0
1, 316800, Note_on_c, 0, 74, 0
1, 316800, Note_on_c, 0, 86, 0
1, 316800, Note_on_c, 0, 87, 60
1, 316800, Note_on_c, 0, 75, 60
1, 316800, Note_on_c, 0, 55, 33
1, 316809, Control_c, 0, 64, 0
1, 316875, Control_c, 0, 64, 127
1, 316920, Note_on_c, 0, 55, 0
1, 316920, Note_on_c, 0, 60, 37
1, 317040, Note_on_c, 0, 60, 0
1, 317040, Note_on_c, 0, 67, 39
1, 317160, Note_on_c, 0, 67, 0
1, 317160, Note_on_c, 0, 60, 42
1, 317280, Tempo, 555761
1, 317280, Note_on_c, 0, 60, 0
1, 317280, Note_on_c, 0, 75, 0
1, 317280, Note_on_c, 0, 87, 0
1, 317280, Note_on_c, 0, 84, 49
1, 317280, Note_on_c, 0, 72, 40
1, 317280, Note_on_c, 0, 55, 33
1, 317400, Note_on_c, 0, 55, 0
1, 317400, Note_on_c, 0, 60, 37
1, 317520, Note_on_c, 0, 60, 0
1, 317520, Note_on_c, 0, 63, 39
1, 317640, Note_on_c, 0, 63, 0
1, 317640, Note_on_c, 0, 60, 42
1, 317760, Tempo, 582016
1, 317760, Note_on_c, 0, 60, 0
1, 317760, Note_on_c, 0, 72, 0
1, 317760, Note_on_c, 0, 84, 0
1, 317760, Note_on_c, 0, 79, 50
1, 317760, Note_on_c, 0, 55, 28
1, 317777, Control_c, 0, 64, 0
1, 317840, Control_c, 0, 64, 127
1, 317880, Note_on_c, 0, 55, 0
1, 317880, Note_on_c, 0, 59, 30
1, 318000, Note_on_c, 0, 59, 0
1, 318000, Note_on_c, 0, 62, 32
1, 318120, Note_on_c, 0, 62, 0
1, 318120, Note_on_c, 0, 59, 35
1, 318240, Tempo, 576535
1, 318240, Note_on_c, 0, 59, 0
1, 318240, Note_on_c, 0, 79, 0
1, 318240, Note_on_c, 0, 79, 47
1, 318240, Note_on_c, 0, 55, 28
1, 318249, Control_c, 0, 64, 0
1, 318326, Control_c, 0, 64, 127
1, 318360, Note_on_c, 0, 55, 0
1, 318360, Note_on_c, 0, 60, 30
1, 318480, Note_on_c, 0, 60, 0
1, 318480, Note_on_c, 0, 63, 32
1, 318600, Note_on_c, 0, 63, 0
1, 318600, Note_on_c, 0, 60, 35
1, 318720, Tempo, 582016
1, 318720, Note_on_c, 0, 60, 0
1, 318720, Note_on_c, 0, 79, 0
1, 318720, Note_on_c, 0, 81, 37
1, 318720, Note_on_c, 0, 55, 47
1, 318727, Control_c, 0, 64, 0
1, 318766, Control_c, 0, 64, 127
1, 318780, Note_on_c, 0, 55, 0
1, 318800, Note_on_c, 0, 81, 0
1, 318800, Note_on_c, 0, 79, 37
1, 318840, Note_on_c, 0, 59, 30
1, 318880, Note_on_c, 0, 79, 0
1, 318880, Note_on_c, 0, 81, 37
1, 318960, Note_on_c, 0, 81, 0
1, 318960, Note_on_c, 0, 59, 0
1, 318960, Note_on_c, 0, 79, 37
1, 318960, Note_on_c, 0, 62, 31
1, 319040, Note_on_c, 0, 79, 0
1, 319040, Note_on_c, 0, 81, 38
1, 319080, Note_on_c, 0, 62, 0
1, 319080, Note_on_c, 0, 59, 32
1, 319120, Note_on_c, 0, 81, 0
1, 319120, Note_on_c, 0, 79, 38
1, 319200, Tempo, 579262
1, 319200, Note_on_c, 0, 79, 0
1, 319200, Note_on_c, 0, 59, 0
1, 319200, Note_on_c, 0, 81, 39
1, 319200, Note_on_c, 0, 55, 53
1, 319209, Control_c, 0, 64, 0
1, 319260, Note_on_c, 0, 55, 0
1, 319264, Control_c, 0, 64, 127
1, 319280, Note_on_c, 0, 81, 0
1, 319280, Note_on_c, 0, 79, 39
1, 319320, Note_on_c, 0, 60, 32
1, 319360, Note_on_c, 0, 79, 0
1, 319360, Note_on_c, 0, 81, 39
1, 319440, Note_on_c, 0, 81, 0
1, 319440, Note_on_c, 0, 60, 0
1, 319440, Note_on_c, 0, 79, 39
1, 319440, Note_on_c, 0, 64, 33
1, 319520, Note_on_c, 0, 79, 0
1, 319520, Note_on_c, 0, 81, 40
1, 319560, Note_on_c, 0, 64, 0
1, 319560, Note_on_c, 0, 60, 34
1, 319600, Tempo, 576535
1, 319600, Note_on_c, 0, 81, 0
1, 319600, Note_on_c, 0, 79, 40
1, 319680, Note_on_c, 0, 79, 0
1, 319680, Note_on_c, 0, 60, 0
1, 319680, Note_on_c, 0, 81, 41
1, 319680, Note_on_c, 0, 55, 57
1, 319692, Control_c, 0, 64, 0
1, 319730, Control_c, 0, 64, 127
1, 319740, Note_on_c, 0, 55, 0
1, 319760, Note_on_c, 0, 81, 0
1, 319760, Note_on_c, 0, 79, 41
1, 319800, Note_on_c, 0, 59, 35
1, 319840, Tempo, 573888
1, 319840, Note_on_c, 0, 79, 0
1, 319840, Note_on_c, 0, 81, 41
1, 319920, Note_on_c, 0, 81, 0
1, 319920, Note_on_c, 0, 59, 0
1, 319920, Note_on_c, 0, 79, 43
1, 319920, Note_on_c, 0, 62, 38
1, 320000, Note_on_c, 0, 79, 0
1, 320000, Note_on_c, 0, 81, 43
1, 320040, Tempo, 571211
1, 320040, Note_on_c, 0, 62, 0
1, 320040, Note_on_c, 0, 59, 38
1, 320080, Note_on_c, 0, 81, 0
1, 320080, Note_on_c, 0, 79, 43
1, 320160, Note_on_c, 0, 79, 0
1, 320160, Note_on_c, 0, 59, 0
1, 320160, Note_on_c, 0, 81, 44
1, 320160, Note_on_c, 0, 55, 64
1, 320169, Control_c, 0, 64, 0
1, 320220, Note_on_c, 0, 55, 0
1, 320224, Control_c, 0, 64, 127
1, 320240, Tempo, 568613
1, 320240, Note_on_c, 0, 81, 0
1, 320240, Note_on_c, 0, 79, 44
1, 320280, Note_on_c, 0, 57, 39
1, 320320, Note_on_c, 0, 79, 0
1, 320320, Note_on_c, 0, 81, 45
1, 320400, Note_on_c, 0, 81, 0
1, 320400, Note_on_c, 0, 57, 0
1, 320400, Note_on_c, 0, 79, 45
1, 320400, Note_on_c, 0, 60, 41
1, 320440, Tempo, 565984
1, 320480, Note_on_c, 0, 79, 0
1, 320480, Note_on_c, 0, 81, 45
1, 320520, Note_on_c, 0, 60, 0
1, 320520, Note_on_c, 0, 57, 43
1, 320560, Note_on_c, 0, 81, 0
1, 320560, Note_on_c, 0, 79, 45
1, 320640, Tempo, 563380
1, 320640, Note_on_c, 0, 79, 0
1, 320640, Note_on_c, 0, 57, 0
1, 320640, Note_on_c, 0, 81, 47
1, 320640, Note_on_c, 0, 55, 71
1, 320659, Control_c, 0, 64, 0
1, 320676, Control_c, 0, 64, 127
1, 320680, Tempo, 560852
1, 320700, Tempo, 558347
1, 320700, Note_on_c, 0, 55, 0
1, 320720, Tempo, 553352
1, 320720, Note_on_c, 0, 81, 0
1, 320720, Note_on_c, 0, 79, 47
1, 320740, Tempo, 550812
1, 320760, Note_on_c, 0, 59, 47
1, 320780, Tempo, 558347
1, 320800, Tempo, 563380
1, 320800, Note_on_c, 0, 79, 0
1, 320800, Note_on_c, 0, 81, 47
1, 320820, Tempo, 565984
1, 320840, Tempo, 568613
1, 320880, Tempo, 565984
1, 320880, Note_on_c, 0, 81, 0
1, 320880, Note_on_c, 0, 59, 0
1, 320880, Note_on_c, 0, 79, 47
1, 320880, Note_on_c, 0, 57, 49
1, 320900, Tempo, 553352
1, 320960, Note_on_c, 0, 79, 0
1, 320960, Note_on_c, 0, 81, 47
1, 320980, Tempo, 555761
1, 321000, Tempo, 563380
1, 321000, Note_on_c, 0, 57, 0
1, 321000, Note_on_c, 0, 55, 50
1, 321020, Tempo, 565984
1, 321040, Tempo, 568613
1, 321040, Note_on_c, 0, 81, 0
1, 321040, Note_on_c, 0, 79, 48
1, 321120, Tempo, 558347
1, 321120, Note_on_c, 0, 79, 0
1, 321120, Note_on_c, 0, 55, 0
1, 321120, Note_on_c, 0, 81, 48
1, 321120, Note_on_c, 0, 53, 76
1, 321138, Control_c, 0, 64, 0
1, 321140, Tempo, 555761
1, 321177, Control_c, 0, 64, 127
1, 321180, Note_on_c, 0, 53, 0
1, 321200, Note_on_c, 0, 81, 0
1, 321200, Note_on_c, 0, 79, 48
1, 321220, Tempo, 558347
1, 321240, Tempo, 563380
1, 321240, Note_on_c, 0, 57, 50
1, 321260, Tempo, 565984
1, 321280, Tempo, 571211
1, 321280, Note_on_c, 0, 79, 0
1, 321280, Note_on_c, 0, 81, 49
1, 321320, Tempo, 568613
1, 321340, Tempo, 560852
1, 321360, Tempo, 558347
1, 321360, Note_on_c, 0, 81, 0
1, 321360, Note_on_c, 0, 57, 0
1, 321360, Note_on_c, 0, 79, 49
1, 321360, Note_on_c, 0, 55, 53
1, 321380, Tempo, 555761
1, 321440, Tempo, 553352
1, 321440, Note_on_c, 0, 79, 0
1, 321440, Note_on_c, 0, 81, 50
1, 321460, Tempo, 555761
1, 321480, Tempo, 563380
1, 321480, Note_on_c, 0, 55, 0
1, 321480, Note_on_c, 0, 53, 55
1, 321500, Tempo, 565984
1, 321520, Tempo, 568613
1, 321520, Note_on_c, 0, 81, 0
1, 321520, Note_on_c, 0, 79, 51
1, 321600, Note_on_c, 0, 79, 0
1, 321600, Note_on_c, 0, 53, 0
1, 321600, Note_on_c, 0, 81, 51
1, 321600, Note_on_c, 0, 52, 85
1, 321611, Control_c, 0, 64, 0
1, 321620, Tempo, 565984
1, 321640, Tempo, 560852
1, 321646, Control_c, 0, 64, 127
1, 321660, Tempo, 555761
1, 321660, Note_on_c, 0, 52, 0
1, 321680, Note_on_c, 0, 81, 0
1, 321680, Note_on_c, 0, 79, 52
1, 321720, Note_on_c, 0, 55, 58
1, 321740, Tempo, 558347
1, 321760, Note_on_c, 0, 79, 0
1, 321760, Note_on_c, 0, 81, 52
1, 321780, Tempo, 560852
1, 321800, Tempo, 565984
1, 321820, Tempo, 563380
1, 321840, Tempo, 555761
1, 321840, Note_on_c, 0, 81, 0
1, 321840, Note_on_c, 0, 55, 0
1, 321840, Note_on_c, 0, 79, 52
1, 321840, Note_on_c, 0, 53, 61
1, 321920, Note_on_c, 0, 79, 0
1, 321920, Note_on_c, 0, 81, 54
1, 321940, Tempo, 558347
1, 321960, Tempo, 563380
1, 321960, Note_on_c, 0, 53, 0
1, 321960, Note_on_c, 0, 52, 64
1, 322000, Tempo, 563380
1, 322000, Note_on_c, 0, 81, 0
1, 322000, Note_on_c, 0, 79, 54
1, 322080, Tempo, 563380
1, 322080, Note_on_c, 0, 79, 0
1, 322080, Note_on_c, 0, 52, 0
1, 322080, Note_on_c, 0, 81, 54
1, 322080, Note_on_c, 0, 50, 90
1, 322099, Control_c, 0, 64, 0
1, 322137, Control_c, 0, 64, 127
1, 322140, Note_on_c, 0, 50, 0
1, 322160, Tempo, 565984
1, 322160, Note_on_c, 0, 81, 0
1, 322160, Note_on_c, 0, 79, 55
1, 322200, Note_on_c, 0, 53, 68
1, 322240, Tempo, 568613
1, 322240, Note_on_c, 0, 79, 0
1, 322240, Note_on_c, 0, 81, 55
1, 322280, Tempo, 571211
1, 322320, Note_on_c, 0, 81, 0
1, 322320, Note_on_c, 0, 53, 0
1, 322320, Note_on_c, 0, 79, 55
1, 322320, Note_on_c, 0, 52, 72
1, 322360, Tempo, 573888
1, 322400, Tempo, 576535
1, 322400, Note_on_c, 0, 79, 0
1, 322400, Note_on_c, 0, 81, 56
1, 322440, Note_on_c, 0, 52, 0
1, 322440, Note_on_c, 0, 50, 76
1, 322480, Tempo, 579262
1, 322480, Note_on_c, 0, 81, 0
1, 322480, Note_on_c, 0, 79, 56
1, 322520, Tempo, 582016
1, 322560, Tempo, 579262
1, 322560, Note_on_c, 0, 79, 0
1, 322560, Note_on_c, 0, 50, 0
1, 322560, Note_on_c, 0, 81, 48
1, 322560, Note_on_c, 0, 36, 94
1, 322560, Note_on_c, 0, 48, 94
1, 322579, Control_c, 0, 64, 0
1, 322580, Tempo, 568613
1, 322599, Control_c, 0, 64, 127
1, 322600, Tempo, 563380
1, 322620, Tempo, 558347
1, 322640, Note_on_c, 0, 81, 0
1, 322640, Note_on_c, 0, 79, 35
1, 322680, Tempo, 563380
1, 322680, Note_on_c, 0, 50, 56
1, 322700, Tempo, 568613
1, 322720, Note_on_c, 0, 79, 0
1, 322720, Note_on_c, 0, 81, 38
1, 322740, Tempo, 571211
1, 322740, Note_on_c, 0, 50, 0
1, 322740, Note_on_c, 0, 52, 57
1, 322760, Tempo, 568613
1, 322780, Tempo, 563380
1, 322800, Tempo, 560852
1, 322800, Note_on_c, 0, 52, 0
1, 322800, Note_on_c, 0, 81, 0
1, 322800, Note_on_c, 0, 48, 0
1, 322800, Note_on_c, 0, 36, 0
1, 322800, Note_on_c, 0, 79, 35
1, 322800, Note_on_c, 0, 53, 60
1, 322820, Tempo, 558347
1, 322840, Tempo, 550812
1, 322860, Tempo, 548346
1, 322860, Note_on_c, 0, 53, 0
1, 322860, Note_on_c, 0, 55, 60
1, 322880, Tempo, 555761
1, 322880, Note_on_c, 0, 79, 0
1, 322880, Note_on_c, 0, 81, 38
1, 322900, Tempo, 558347
1, 322920, Note_on_c, 0, 55, 0
1, 322920, Note_on_c, 0, 57, 62
1, 322940, Tempo, 560852
1, 322960, Note_on_c, 0, 81, 0
1, 322960, Note_on_c, 0, 79, 36
1, 322980, Note_on_c, 0, 57, 0
1, 322980, Note_on_c, 0, 59, 63
1, 323020, Tempo, 558347
1, 323040, Tempo, 555761
1, 323040, Note_on_c, 0, 59, 0
1, 323040, Note_on_c, 0, 79, 0
1, 323040, Note_on_c, 0, 81, 40
1, 323040, Note_on_c, 0, 91, 89
1, 323040, Note_on_c, 0, 60, 63
1, 323060, Tempo, 550812
1, 323080, Tempo, 541174
1, 323120, Note_on_c, 0, 81, 0
1, 323120, Note_on_c, 0, 79, 36
1, 323140, Tempo, 546001
1, 323160, Tempo, 550812
1, 323160, Note_on_c, 0, 60, 0
1, 323160, Note_on_c, 0, 62, 65
1, 323180, Tempo, 553352
1, 323200, Tempo, 555761
1, 323200, Note_on_c, 0, 79, 0
1, 323200, Note_on_c, 0, 81, 40
1, 323220, Note_on_c, 0, 62, 0
1, 323220, Note_on_c, 0, 64, 66
1, 323260, Tempo, 548346
1, 323280, Tempo, 531821
1, 323280, Note_on_c, 0, 64, 0
1, 323280, Note_on_c, 0, 81, 0
1, 323280, Note_on_c, 0, 91, 0
1, 323280, Note_on_c, 0, 79, 36
1, 323280, Note_on_c, 0, 65, 67
1, 323300, Tempo, 525026
1, 323340, Tempo, 527241
1, 323340, Note_on_c, 0, 65, 0
1, 323340, Note_on_c, 0, 67, 69
1, 323360, Tempo, 541174
1, 323360, Note_on_c, 0, 79, 0
1, 323360, Note_on_c, 0, 81, 40
1, 323380, Tempo, 546001
1, 323400, Tempo, 555761
1, 323400, Note_on_c, 0, 67, 0
1, 323400, Note_on_c, 0, 69, 70
1, 323420, Tempo, 546001
1, 323440, Tempo, 543527
1, 323440, Note_on_c, 0, 81, 0
1, 323440, Note_on_c, 0, 79, 36
1, 323460, Note_on_c, 0, 69, 0
1, 323460, Note_on_c, 0, 71, 71
1, 323520, Note_on_c, 0, 71, 0
1, 323520, Note_on_c, 0, 79, 0
1, 323520, Note_on_c, 0, 81, 40
1, 323520, Note_on_c, 0, 91, 90
1, 323520, Note_on_c, 0, 72, 74
1, 323540, Tempo, 541174
1, 323560, Tempo, 548346
1, 323580, Tempo, 546001
1, 323580, Note_on_c, 0, 72, 0
1, 323600, Tempo, 541174
1, 323600, Note_on_c, 0, 81, 0
1, 323600, Note_on_c, 0, 79, 37
1, 323640, Tempo, 546001
1, 323640, Note_on_c, 0, 71, 71
1, 323660, Tempo, 550812
1, 323680, Tempo, 555761
1, 323680, Note_on_c, 0, 79, 0
1, 323680, Note_on_c, 0, 81, 40
1, 323700, Tempo, 565984
1, 323700, Note_on_c, 0, 71, 0
1, 323740, Tempo, 560852
1, 323760, Tempo, 558347
1, 323760, Note_on_c, 0, 81, 0
1, 323760, Note_on_c, 0, 79, 36
1, 323760, Note_on_c, 0, 69, 71
1, 323780, Tempo, 553352
1, 323800, Tempo, 550812
1, 323820, Tempo, 548346
1, 323820, Note_on_c, 0, 69, 0
1, 323840, Tempo, 550812
1, 323840, Note_on_c, 0, 79, 0
1, 323840, Note_on_c, 0, 81, 40
1, 323860, Tempo, 555761
1, 323880, Tempo, 558347
1, 323880, Note_on_c, 0, 67, 71
1, 323900, Tempo, 560852
1, 323920, Note_on_c, 0, 81, 0
1, 323920, Note_on_c, 0, 79, 36
1, 323940, Note_on_c, 0, 67, 0
1, 323960, Tempo, 558347
1, 324000, Tempo, 555761
1, 324000, Note_on_c, 0, 79, 0
1, 324000, Note_on_c, 0, 81, 40
1, 324000, Note_on_c, 0, 65, 72
1, 324020, Tempo, 553352
1, 324040, Tempo, 548346
1, 324060, Tempo, 546001
1, 324060, Note_on_c, 0, 65, 0
1, 324080, Note_on_c, 0, 81, 0
1, 324080, Note_on_c, 0, 79, 35
1, 324100, Tempo, 548346
1, 324120, Tempo, 553352
1, 324120, Note_on_c, 0, 64, 69
1, 324140, Tempo, 560852
1, 324160, Tempo, 565984
1, 324160, Note_on_c, 0, 79, 0
1, 324160, Note_on_c, 0, 81, 38
1, 324180, Note_on_c, 0, 64, 0
1, 324240, Tempo, 548346
1, 324240, Note_on_c, 0, 81, 0
1, 324240, Note_on_c, 0, 91, 0
1, 324240, Note_on_c, 0, 79, 33
1, 324240, Note_on_c, 0, 88, 85
1, 324240, Note_on_c, 0, 62, 69
1, 324260, Tempo, 546001
1, 324300, Note_on_c, 0, 62, 0
1, 324320, Note_on_c, 0, 79, 0
1, 324320, Note_on_c, 0, 81, 38
1, 324340, Tempo, 555761
1, 324360, Tempo, 558347
1, 324360, Note_on_c, 0, 60, 67
1, 324400, Note_on_c, 0, 81, 0
1, 324400, Note_on_c, 0, 79, 34
1, 324420, Tempo, 553352
1, 324420, Note_on_c, 0, 60, 0
1, 324440, Tempo, 550812
1, 324480, Tempo, 543527
1, 324480, Note_on_c, 0, 79, 0
1, 324480, Note_on_c, 0, 88, 0
1, 324480, Note_on_c, 0, 81, 38
1, 324480, Note_on_c, 0, 86, 90
1, 324480, Note_on_c, 0, 59, 73
1, 324492, Control_c, 0, 64, 0
1, 324500, Tempo, 541174
1, 324520, Tempo, 538793
1, 324526, Control_c, 0, 64, 127
1, 324540, Tempo, 536481
1, 324540, Note_on_c, 0, 59, 0
1, 324560, Note_on_c, 0, 81, 0
1, 324560, Note_on_c, 0, 79, 34
1, 324600, Tempo, 531821
1, 324600, Note_on_c, 0, 60, 69
1, 324620, Tempo, 534140
1, 324640, Tempo, 541174
1, 324640, Note_on_c, 0, 79, 0
1, 324640, Note_on_c, 0, 81, 36
1, 324660, Tempo, 546001
1, 324660, Note_on_c, 0, 60, 0
1, 324680, Tempo, 543527
1, 324700, Tempo, 538793
1, 324720, Tempo, 536481
1, 324720, Note_on_c, 0, 81, 0
1, 324720, Note_on_c, 0, 79, 33
1, 324720, Note_on_c, 0, 59, 69
1, 324740, Tempo, 529568
1, 324780, Note_on_c, 0, 59, 0
1, 324800, Tempo, 536481
1, 324800, Note_on_c, 0, 79, 0
1, 324800, Note_on_c, 0, 81, 37
1, 324820, Tempo, 546001
1, 324840, Tempo, 548346
1, 324840, Note_on_c, 0, 57, 69
1, 324880, Tempo, 541174
1, 324880, Note_on_c, 0, 81, 0
1, 324880, Note_on_c, 0, 79, 33
1, 324900, Tempo, 538793
1, 324900, Note_on_c, 0, 57, 0
1, 324940, Tempo, 553352
1, 324960, Note_on_c, 0, 79, 0
1, 324960, Note_on_c, 0, 86, 0
1, 324960, Note_on_c, 0, 81, 37
1, 324960, Note_on_c, 0, 79, 84
1, 324960, Note_on_c, 0, 55, 75
1, 325000, Tempo, 550812
1, 325020, Tempo, 548346
1, 325020, Note_on_c, 0, 55, 0
1, 325040, Tempo, 546001
1, 325040, Note_on_c, 0, 81, 0
1, 325040, Note_on_c, 0, 79, 33
1, 325060, Tempo, 543527
1, 325080, Tempo, 548346
1, 325080, Note_on_c, 0, 53, 69
1, 325100, Tempo, 563380
1, 325120, Tempo, 560852
1, 325120, Note_on_c, 0, 79, 0
1, 325120, Note_on_c, 0, 81, 38
1, 325140, Tempo, 555761
1, 325140, Note_on_c, 0, 53, 0
1, 325160, Tempo, 550812
1, 325180, Tempo, 548346
1, 325200, Tempo, 546001
1, 325200, Note_on_c, 0, 81, 0
1, 325200, Note_on_c, 0, 79, 32
1, 325200, Note_on_c, 0, 52, 69
1, 325260, Tempo, 550812
1, 325260, Note_on_c, 0, 52, 0
1, 325280, Tempo, 558347
1, 325280, Note_on_c, 0, 79, 0
1, 325280, Note_on_c, 0, 81, 37
1, 325300, Tempo, 560852
1, 325320, Note_on_c, 0, 50, 69
1, 325340, Tempo, 553352
1, 325360, Note_on_c, 0, 81, 0
1, 325360, Note_on_c, 0, 79, 32
1, 325380, Note_on_c, 0, 50, 0
1, 325400, Tempo, 553352
1, 325440, Tempo, 546001
1, 325440, Note_on_c, 0, 79, 0
1, 325440, Note_on_c, 0, 79, 0
1, 325440, Note_on_c, 0, 81, 38
1, 325440, Note_on_c, 0, 84, 87
1, 325440, Note_on_c, 0, 48, 75
1, 325480, Tempo, 553352
1, 325500, Tempo, 565984
1, 325500, Note_on_c, 0, 48, 0
1, 325520, Tempo, 550812
1, 325520, Note_on_c, 0, 81, 0
1, 325520, Note_on_c, 0, 79, 32
1, 325560, Note_on_c, 0, 48, 69
1, 325580, Tempo, 558347
1, 325600, Tempo, 563380
1, 325600, Note_on_c, 0, 79, 0
1, 325600, Note_on_c, 0, 81, 37
1, 325620, Tempo, 565984
1, 325620, Note_on_c, 0, 48, 0
1, 325640, Tempo, 563380
1, 325660, Tempo, 553352
1, 325680, Note_on_c, 0, 81, 0
1, 325680, Note_on_c, 0, 79, 32
1, 325680, Note_on_c, 0, 47, 69
1, 325720, Tempo, 555761
1, 325740, Tempo, 560852
1, 325740, Note_on_c, 0, 47, 0
1, 325760, Tempo, 571211
1, 325760, Note_on_c, 0, 79, 0
1, 325760, Note_on_c, 0, 81, 36
1, 325780, Tempo, 553352
1, 325800, Note_on_c, 0, 45, 69
1, 325840, Note_on_c, 0, 81, 0
1, 325840, Note_on_c, 0, 79, 32
1, 325860, Note_on_c, 0, 45, 0
1, 325880, Tempo, 558347
1, 325900, Tempo, 560852
1, 325920, Tempo, 563380
1, 325920, Note_on_c, 0, 79, 0
1, 325920, Note_on_c, 0, 84, 0
1, 325920, Note_on_c, 0, 81, 36
1, 325920, Note_on_c, 0, 88, 84
1, 325920, Note_on_c, 0, 43, 72
1, 325960, Tempo, 573888
1, 325980, Tempo, 582016
1, 325980, Note_on_c, 0, 43, 0
1, 326000, Tempo, 584795
1, 326000, Note_on_c, 0, 81, 0
1, 326000, Note_on_c, 0, 79, 34
1, 326040, Note_on_c, 0, 41, 71
1, 326080, Tempo, 573888
1, 326080, Note_on_c, 0, 79, 0
1, 326080, Note_on_c, 0, 81, 37
1, 326100, Tempo, 571211
1, 326100, Note_on_c, 0, 41, 0
1, 326120, Tempo, 568613
1, 326160, Note_on_c, 0, 81, 0
1, 326160, Note_on_c, 0, 88, 0
1, 326160, Note_on_c, 0, 79, 33
1, 326160, Note_on_c, 0, 40, 75
1, 326180, Tempo, 582016
1, 326220, Note_on_c, 0, 40, 0
1, 326240, Note_on_c, 0, 79, 0
1, 326240, Note_on_c, 0, 81, 36
1, 326280, Tempo, 604839
1, 326280, Note_on_c, 0, 38, 80
1, 326320, Note_on_c, 0, 81, 0
1, 326320, Note_on_c, 0, 79, 32
1, 326340, Note_on_c, 0, 38, 0
1, 326400, Tempo, 616903
1, 326400, Note_on_c, 0, 79, 0
1, 326400, Note_on_c, 0, 81, 36
1, 326400, Note_on_c, 0, 36, 95
1, 326400, Note_on_c, 0, 48, 95
1, 326412, Control_c, 0, 64, 0
1, 326420, Tempo, 616903
1, 326440, Tempo, 610811
1, 326460, Tempo, 607841
1, 326460, Control_c, 0, 64, 127
1, 326480, Tempo, 598982
1, 326480, Note_on_c, 0, 81, 0
1, 326480, Note_on_c, 0, 79, 32
1, 326500, Tempo, 593237
1, 326520, Note_on_c, 0, 50, 56
1, 326560, Tempo, 632778
1, 326560, Note_on_c, 0, 79, 0
1, 326560, Note_on_c, 0, 81, 37
1, 326580, Note_on_c, 0, 50, 0
1, 326580, Note_on_c, 0, 52, 57
1, 326620, Tempo, 629459
1, 326640, Tempo, 623182
1, 326640, Note_on_c, 0, 52, 0
1, 326640, Note_on_c, 0, 81, 0
1, 326640, Note_on_c, 0, 48, 0
1, 326640, Note_on_c, 0, 36, 0
1, 326640, Note_on_c, 0, 79, 33
1, 326640, Note_on_c, 0, 53, 60
1, 326660, Tempo, 616903
1, 326680, Tempo, 601866
1, 326700, Tempo, 598982
1, 326700, Note_on_c, 0, 53, 0
1, 326700, Note_on_c, 0, 55, 60
1, 326720, Tempo, 601866
1, 326720, Note_on_c, 0, 79, 0
1, 326720, Note_on_c, 0, 81, 38
1, 326740, Tempo, 613936
1, 326760, Note_on_c, 0, 55, 0
1, 326760, Note_on_c, 0, 57, 62
1, 326800, Note_on_c, 0, 81, 0
1, 326800, Note_on_c, 0, 79, 33
1, 326820, Tempo, 610811
1, 326820, Note_on_c, 0, 57, 0
1, 326820, Note_on_c, 0, 59, 63
1, 326880, Tempo, 587602
1, 326880, Note_on_c, 0, 59, 0
1, 326880, Note_on_c, 0, 79, 0
1, 326880, Note_on_c, 0, 81, 39
1, 326880, Note_on_c, 0, 91, 90
1, 326880, Note_on_c, 0, 60, 63
1, 326900, Tempo, 582016
1, 326920, Tempo, 576535
1, 326940, Tempo, 573888
1, 326960, Tempo, 582016
1, 326960, Note_on_c, 0, 81, 0
1, 326960, Note_on_c, 0, 79, 35
1, 326980, Tempo, 584795
1, 327000, Tempo, 587602
1, 327000, Note_on_c, 0, 60, 0
1, 327000, Note_on_c, 0, 62, 65
1, 327020, Tempo, 590319
1, 327040, Tempo, 596066
1, 327040, Note_on_c, 0, 79, 0
1, 327040, Note_on_c, 0, 81, 40
1, 327060, Note_on_c, 0, 62, 0
1, 327060, Note_on_c, 0, 64, 66
1, 327080, Tempo, 593237
1, 327100, Tempo, 587602
1, 327120, Tempo, 584795
1, 327120, Note_on_c, 0, 64, 0
1, 327120, Note_on_c, 0, 81, 0
1, 327120, Note_on_c, 0, 91, 0
1, 327120, Note_on_c, 0, 79, 36
1, 327120, Note_on_c, 0, 65, 67
1, 327140, Tempo, 576535
1, 327180, Tempo, 582016
1, 327180, Note_on_c, 0, 65, 0
1, 327180, Note_on_c, 0, 67, 69
1, 327200, Tempo, 593237
1, 327200, Note_on_c, 0, 79, 0
1, 327200, Note_on_c, 0, 81, 40
1, 327240, Note_on_c, 0, 67, 0
1, 327240, Note_on_c, 0, 69, 70
1, 327260, Tempo, 587602
1, 327280, Tempo, 576535
1, 327280, Note_on_c, 0, 81, 0
1, 327280, Note_on_c, 0, 79, 36
1, 327300, Note_on_c, 0, 69, 0
1, 327300, Note_on_c, 0, 71, 71
1, 327340, Tempo, 558347
1, 327360, Tempo, 553352
1, 327360, Note_on_c, 0, 71, 0
1, 327360, Note_on_c, 0, 79, 0
1, 327360, Note_on_c, 0, 81, 40
1, 327360, Note_on_c, 0, 91, 92
1, 327360, Note_on_c, 0, 72, 74
1, 327400, Tempo, 548346
1, 327420, Tempo, 546001
1, 327420, Note_on_c, 0, 72, 0
1, 327440, Note_on_c, 0, 81, 0
1, 327440, Note_on_c, 0, 79, 37
1, 327480, Tempo, 548346
1, 327480, Note_on_c, 0, 71, 71
1, 327500, Tempo, 555761
1, 327520, Tempo, 563380
1, 327520, Note_on_c, 0, 79, 0
1, 327520, Note_on_c, 0, 81, 40
1, 327540, Note_on_c, 0, 71, 0
1, 327580, Tempo, 558347
1, 327600, Tempo, 553352
1, 327600, Note_on_c, 0, 81, 0
1, 327600, Note_on_c, 0, 79, 36
1, 327600, Note_on_c, 0, 69, 71
1, 327620, Tempo, 550812
1, 327640, Tempo, 548346
1, 327660, Tempo, 550812
1, 327660, Note_on_c, 0, 69, 0
1, 327680, Tempo, 555761
1, 327680, Note_on_c, 0, 79, 0
1, 327680, Note_on_c, 0, 81, 40
1, 327700, Tempo, 560852
1, 327720, Tempo, 563380
1, 327720, Note_on_c, 0, 67, 71
1, 327760, Tempo, 560852
1, 327760, Note_on_c, 0, 81, 0
1, 327760, Note_on_c, 0, 79, 36
1, 327780, Tempo, 558347
1, 327780, Note_on_c, 0, 67, 0
1, 327800, Tempo, 553352
1, 327820, Tempo, 548346
1, 327840, Tempo, 550812
1, 327840, Note_on_c, 0, 79, 0
1, 327840, Note_on_c, 0, 81, 39
1, 327840, Note_on_c, 0, 65, 72
1, 327880, Tempo, 553352
1, 327900, Tempo, 563380
1, 327900, Note_on_c, 0, 65, 0
1, 327920, Tempo, 568613
1, 327920, Note_on_c, 0, 81, 0
1, 327920, Note_on_c, 0, 79, 36
1, 327960, Note_on_c, 0, 64, 69
1, 327980, Tempo, 565984
1, 328000, Tempo, 563380
1, 328000, Note_on_c, 0, 79, 0
1, 328000, Note_on_c, 0, 81, 38
1, 328020, Tempo, 553352
1, 328020, Note_on_c, 0, 64, 0
1, 328040, Tempo, 550812
1, 328060, Tempo, 548346
1, 328080, Note_on_c, 0, 81, 0
1, 328080, Note_on_c, 0, 91, 0
1, 328080, Note_on_c, 0, 79, 32
1, 328080, Note_on_c, 0, 88, 84
1, 328080, Note_on_c, 0, 62, 69
1, 328120, Tempo, 550812
1, 328140, Tempo, 555761
1, 328140, Note_on_c, 0, 62, 0
1, 328160, Tempo, 558347
1, 328160, Note_on_c, 0, 79, 0
1, 328160, Note_on_c, 0, 81, 37
1, 328200, Note_on_c, 0, 60, 67
1, 328220, Tempo, 555761
1, 328240, Note_on_c, 0, 81, 0
1, 328240, Note_on_c, 0, 79, 33
1, 328260, Note_on_c, 0, 60, 0
1, 328320, Tempo, 541174
1, 328320, Note_on_c, 0, 79, 0
1, 328320, Note_on_c, 0, 88, 0
1, 328320, Note_on_c, 0, 81, 39
1, 328320, Note_on_c, 0, 86, 90
1, 328320, Note_on_c, 0, 59, 73
1, 328339, Control_c, 0, 64, 0
1, 328340, Tempo, 538793
1, 328360, Tempo, 536481
1, 328375, Control_c, 0, 64, 127
1, 328380, Tempo, 534140
1, 328380, Note_on_c, 0, 59, 0
1, 328400, Note_on_c, 0, 81, 0
1, 328400, Note_on_c, 0, 79, 32
1, 328420, Tempo, 531821
1, 328440, Note_on_c, 0, 60, 69
1, 328460, Tempo, 543527
1, 328480, Tempo, 546001
1, 328480, Note_on_c, 0, 79, 0
1, 328480, Note_on_c, 0, 81, 36
1, 328500, Note_on_c, 0, 60, 0
1, 328540, Tempo, 541174
1, 328560, Note_on_c, 0, 81, 0
1, 328560, Note_on_c, 0, 79, 31
1, 328560, Note_on_c, 0, 59, 69
1, 328580, Tempo, 538793
1, 328600, Tempo, 536481
1, 328620, Tempo, 534140
1, 328620, Note_on_c, 0, 59, 0
1, 328640, Note_on_c, 0, 79, 0
1, 328640, Note_on_c, 0, 81, 36
1, 328660, Tempo, 536481
1, 328680, Tempo, 543527
1, 328680, Note_on_c, 0, 57, 69
1, 328700, Tempo, 546001
1, 328720, Note_on_c, 0, 81, 0
1, 328720, Note_on_c, 0, 79, 30
1, 328740, Note_on_c, 0, 57, 0
1, 328760, Tempo, 555761
1, 328800, Note_on_c, 0, 79, 0
1, 328800, Note_on_c, 0, 86, 0
1, 328800, Note_on_c, 0, 81, 36
1, 328800, Note_on_c, 0, 79, 82
1, 328800, Note_on_c, 0, 55, 75
1, 328840, Tempo, 553352
1, 328860, Tempo, 550812
1, 328860, Note_on_c, 0, 55, 0
1, 328880, Tempo, 548346
1, 328880, Note_on_c, 0, 81, 0
1, 328880, Note_on_c, 0, 79, 31
1, 328920, Note_on_c, 0, 53, 69
1, 328960, Tempo, 555761
1, 328960, Note_on_c, 0, 79, 0
1, 328960, Note_on_c, 0, 81, 36
1, 328980, Tempo, 558347
1, 328980, Note_on_c, 0, 53, 0
1, 329020, Tempo, 555761
1, 329040, Tempo, 550812
1, 329040, Note_on_c, 0, 81, 0
1, 329040, Note_on_c, 0, 79, 34
1, 329040, Note_on_c, 0, 52, 69
1, 329080, Tempo, 548346
1, 329100, Tempo, 546001
1, 329100, Note_on_c, 0, 52, 0
1, 329120, Tempo, 555761
1, 329120, Note_on_c, 0, 79, 0
1, 329120, Note_on_c, 0, 78, 36
1, 329160, Note_on_c, 0, 50, 69
1, 329200, Tempo, 550812
1, 329200, Note_on_c, 0, 78, 0
1, 329200, Note_on_c, 0, 79, 31
1, 329220, Note_on_c, 0, 50, 0
1, 329280, Tempo, 565238
1, 329280, Note_on_c, 0, 79, 0
1, 329280, Note_on_c, 0, 79, 0
1, 329280, Note_on_c, 0, 84, 86
1, 329280, Note_on_c, 0, 48, 75
1, 329292, Control_c, 0, 64, 0
1, 329520, Note_on_c, 0, 48, 0
1, 329520, Note_on_c, 0, 84, 0
1, 329520, Note_on_c, 0, 36, 75
1, 329760, Note_on_c, 0, 36, 0
1, 329760, Note_on_c, 0, 60, 68
1, 329840, Note_on_c, 0, 60, 0
1, 329840, Note_on_c, 0, 64, 62
1, 329920, Note_on_c, 0, 64, 0
1, 329920, Note_on_c, 0, 60, 62
1, 330000, Note_on_c, 0, 60, 0
1, 330000, Note_on_c, 0, 55, 62
1, 330000, Note_on_c, 0, 36, 60
1, 330000, Note_on_c, 0, 48, 71
1, 330032, Control_c, 0, 64, 127
1, 330080, Note_on_c, 0, 55, 0
1, 330080, Note_on_c, 0, 52, 62
1, 330160, Note_on_c, 0, 52, 0
1, 330160, Note_on_c, 0, 55, 62
1, 330240, Tempo, 557310
1, 330240, Note_on_c, 0, 55, 0
1, 330240, Note_on_c, 0, 48, 0
1, 330240, Note_on_c, 0, 36, 0
1, 330240, Note_on_c, 0, 60, 68
1, 330248, Control_c, 0, 64, 0
1, 330320, Note_on_c, 0, 60, 0
1, 330320, Note_on_c, 0, 65, 62
1, 330400, Note_on_c, 0, 65, 0
1, 330400, Note_on_c, 0, 60, 62
1, 330480, Note_on_c, 0, 60, 0
1, 330480, Note_on_c, 0, 57, 62
1, 330480, Note_on_c, 0, 36, 60
1, 330480, Note_on_c, 0, 48, 71
1, 330519, Control_c, 0, 64, 127
1, 330560, Note_on_c, 0, 57, 0
1, 330560, Note_on_c, 0, 53, 62
1, 330640, Note_on_c, 0, 53, 0
1, 330640, Note_on_c, 0, 57, 62
1, 330720, Note_on_c, 0, 57, 0
1, 330720, Note_on_c, 0, 48, 0
1, 330720, Note_on_c, 0, 36, 0
1, 330720, Note_on_c, 0, 60, 68
1, 330738, Control_c, 0, 64, 0
1, 330800, Note_on_c, 0, 60, 0
1, 330800, Note_on_c, 0, 64, 61
1, 330880, Note_on_c, 0, 64, 0
1, 330880, Note_on_c, 0, 60, 61
1, 330960, Note_on_c, 0, 60, 0
1, 330960, Note_on_c, 0, 55, 61
1, 330960, Note_on_c, 0, 36, 57
1, 330960, Note_on_c, 0, 48, 68
1, 331006, Control_c, 0, 64, 127
1, 331040, Note_on_c, 0, 55, 0
1, 331040, Note_on_c, 0, 52, 61
1, 331120, Note_on_c, 0, 52, 0
1, 331120, Note_on_c, 0, 55, 61
1, 331200, Note_on_c, 0, 55, 0
1, 331200, Note_on_c, 0, 48, 0
1, 331200, Note_on_c, 0, 36, 0
1, 331200, Note_on_c, 0, 60, 63
1, 331215, Control_c, 0, 64, 0
1, 331280, Note_on_c, 0, 60, 0
1, 331280, Note_on_c, 0, 62, 59
1, 331360, Note_on_c, 0, 62, 0
1, 331360, Note_on_c, 0, 60, 59
1, 331440, Note_on_c, 0, 60, 0
1, 331440, Note_on_c, 0, 53, 59
1, 331440, Note_on_c, 0, 36, 53
1, 331440, Note_on_c, 0, 48, 63
1, 331486, Control_c, 0, 64, 127
1, 331520, Note_on_c, 0, 53, 0
1, 331520, Note_on_c, 0, 50, 59
1, 331600, Note_on_c, 0, 50, 0
1, 331600, Note_on_c, 0, 53, 59
1, 331680, Tempo, 565238
1, 331680, Note_on_c, 0, 53, 0
1, 331680, Note_on_c, 0, 48, 0
1, 331680, Note_on_c, 0, 36, 0
1, 331680, Note_on_c, 0, 60, 68
1, 331689, Control_c, 0, 64, 0
1, 331760, Note_on_c, 0, 60, 0
1, 331760, Note_on_c, 0, 63, 61
1, 331840, Note_on_c, 0, 63, 0
1, 331840, Note_on_c, 0, 60, 61
1, 331920, Note_on_c, 0, 60, 0
1, 331920, Note_on_c, 0, 54, 61
1, 331920, Note_on_c, 0, 36, 59
1, 331920, Note_on_c, 0, 48, 70
1, 331949, Control_c, 0, 64, 127
1, 332000, Note_on_c, 0, 54, 0
1, 332000, Note_on_c, 0, 51, 61
1, 332080, Note_on_c, 0, 51, 0
1, 332080, Note_on_c, 0, 54, 61
1, 332160, Note_on_c, 0, 54, 0
1, 332160, Note_on_c, 0, 48, 0
1, 332160, Note_on_c, 0, 36, 0
1, 332160, Note_on_c, 0, 60, 68
1, 332168, Control_c, 0, 64, 0
1, 332240, Note_on_c, 0, 60, 0
1, 332240, Note_on_c, 0, 64, 62
1, 332320, Note_on_c, 0, 64, 0
1, 332320, Note_on_c, 0, 60, 62
1, 332400, Note_on_c, 0, 60, 0
1, 332400, Note_on_c, 0, 55, 62
1, 332400, Note_on_c, 0, 36, 60
1, 332400, Note_on_c, 0, 48, 71
1, 332443, Control_c, 0, 64, 127
1, 332480, Note_on_c, 0, 55, 0
1, 332480, Note_on_c, 0, 52, 62
1, 332560, Note_on_c, 0, 52, 0
1, 332560, Note_on_c, 0, 55, 62
1, 332640, Tempo, 570668
1, 332640, Note_on_c, 0, 55, 0
1, 332640, Note_on_c, 0, 48, 0
1, 332640, Note_on_c, 0, 36, 0
1, 332640, Note_on_c, 0, 59, 68
1, 332658, Control_c, 0, 64, 0
1, 332720, Note_on_c, 0, 59, 0
1, 332720, Note_on_c, 0, 62, 61
1, 332800, Note_on_c, 0, 62, 0
1, 332800, Note_on_c, 0, 59, 61
1, 332880, Note_on_c, 0, 59, 0
1, 332880, Note_on_c, 0, 53, 61
1, 332880, Note_on_c, 0, 36, 60
1, 332880, Note_on_c, 0, 48, 71
1, 332947, Control_c, 0, 64, 127
1, 332960, Note_on_c, 0, 53, 0
1, 332960, Note_on_c, 0, 50, 61
1, 333040, Note_on_c, 0, 50, 0
1, 333040, Note_on_c, 0, 53, 61
1, 333120, Tempo, 565238
1, 333120, Note_on_c, 0, 53, 0
1, 333120, Note_on_c, 0, 48, 0
1, 333120, Note_on_c, 0, 36, 0
1, 333120, Note_on_c, 0, 55, 68
1, 333128, Control_c, 0, 64, 0
1, 333200, Note_on_c, 0, 55, 0
1, 333200, Note_on_c, 0, 60, 62
1, 333280, Note_on_c, 0, 60, 0
1, 333280, Note_on_c, 0, 55, 62
1, 333360, Note_on_c, 0, 55, 0
1, 333360, Note_on_c, 0, 52, 62
1, 333360, Note_on_c, 0, 36, 71
1, 333410, Control_c, 0, 64, 127
1, 333440, Note_on_c, 0, 52, 0
1, 333440, Note_on_c, 0, 48, 62
1, 333520, Note_on_c, 0, 48, 0
1, 333520, Note_on_c, 0, 52, 62
1, 333600, Tempo, 559858
1, 333600, Note_on_c, 0, 52, 0
1, 333600, Note_on_c, 0, 36, 0
1, 333600, Note_on_c, 0, 64, 68
1, 333614, Control_c, 0, 64, 0
1, 333680, Note_on_c, 0, 64, 0
1, 333680, Note_on_c, 0, 67, 62
1, 333760, Note_on_c, 0, 67, 0
1, 333760, Note_on_c, 0, 64, 62
1, 333840, Note_on_c, 0, 64, 0
1, 333840, Note_on_c, 0, 60, 62
1, 333840, Note_on_c, 0, 48, 60
1, 333840, Note_on_c, 0, 40, 60
1, 333840, Note_on_c, 0, 52, 71
1, 333886, Control_c, 0, 64, 127
1, 333920, Note_on_c, 0, 60, 0
1, 333920, Note_on_c, 0, 55, 62
1, 334000, Note_on_c, 0, 55, 0
1, 334000, Note_on_c, 0, 60, 62
1, 334080, Tempo, 549602
1, 334080, Note_on_c, 0, 60, 0
1, 334080, Note_on_c, 0, 48, 0
1, 334080, Note_on_c, 0, 40, 0
1, 334080, Note_on_c, 0, 52, 0
1, 334080, Note_on_c, 0, 65, 68
1, 334090, Control_c, 0, 64, 0
1, 334160, Note_on_c, 0, 65, 0
1, 334160, Note_on_c, 0, 69, 62
1, 334240, Note_on_c, 0, 69, 0
1, 334240, Note_on_c, 0, 65, 62
1, 334320, Note_on_c, 0, 65, 0
1, 334320, Note_on_c, 0, 60, 62
1, 334320, Note_on_c, 0, 48, 60
1, 334320, Note_on_c, 0, 41, 60
1, 334320, Note_on_c, 0, 53, 71
1, 334370, Control_c, 0, 64, 127
1, 334400, Note_on_c, 0, 60, 0
1, 334400, Note_on_c, 0, 57, 62
1, 334480, Note_on_c, 0, 57, 0
1, 334480, Note_on_c, 0, 60, 62
1, 334560, Tempo, 554682
1, 334560, Note_on_c, 0, 60, 0
1, 334560, Note_on_c, 0, 48, 0
1, 334560, Note_on_c, 0, 41, 0
1, 334560, Note_on_c, 0, 53, 0
1, 334560, Note_on_c, 0, 64, 68
1, 334571, Control_c, 0, 64, 0
1, 334640, Note_on_c, 0, 64, 0
1, 334640, Note_on_c, 0, 67, 61
1, 334720, Note_on_c, 0, 67, 0
1, 334720, Note_on_c, 0, 64, 61
1, 334800, Note_on_c, 0, 64, 0
1, 334800, Note_on_c, 0, 60, 61
1, 334800, Note_on_c, 0, 48, 57
1, 334800, Note_on_c, 0, 40, 57
1, 334800, Note_on_c, 0, 52, 68
1, 334853, Control_c, 0, 64, 127
1, 334880, Note_on_c, 0, 60, 0
1, 334880, Note_on_c, 0, 55, 61
1, 334960, Note_on_c, 0, 55, 0
1, 334960, Note_on_c, 0, 60, 61
1, 335040, Note_on_c, 0, 60, 0
1, 335040, Note_on_c, 0, 48, 0
1, 335040, Note_on_c, 0, 40, 0
1, 335040, Note_on_c, 0, 52, 0
1, 335040, Note_on_c, 0, 62, 63
1, 335049, Control_c, 0, 64, 0
1, 335120, Note_on_c, 0, 62, 0
1, 335120, Note_on_c, 0, 65, 59
1, 335200, Note_on_c, 0, 65, 0
1, 335200, Note_on_c, 0, 62, 59
1, 335280, Note_on_c, 0, 62, 0
1, 335280, Note_on_c, 0, 60, 59
1, 335280, Note_on_c, 0, 48, 53
1, 335280, Note_on_c, 0, 38, 53
1, 335280, Note_on_c, 0, 50, 63
1, 335332, Control_c, 0, 64, 127
1, 335360, Note_on_c, 0, 60, 0
1, 335360, Note_on_c, 0, 53, 59
1, 335440, Note_on_c, 0, 53, 0
1, 335440, Note_on_c, 0, 60, 59
1, 335520, Tempo, 565131
1, 335520, Note_on_c, 0, 60, 0
1, 335520, Note_on_c, 0, 48, 0
1, 335520, Note_on_c, 0, 38, 0
1, 335520, Note_on_c, 0, 50, 0
1, 335520, Note_on_c, 0, 63, 68
1, 335520, Control_c, 0, 64, 0
1, 335600, Note_on_c, 0, 63, 0
1, 335600, Note_on_c, 0, 66, 61
1, 335680, Note_on_c, 0, 66, 0
1, 335680, Note_on_c, 0, 63, 61
1, 335760, Note_on_c, 0, 63, 0
1, 335760, Note_on_c, 0, 60, 61
1, 335760, Note_on_c, 0, 48, 59
1, 335760, Note_on_c, 0, 39, 59
1, 335760, Note_on_c, 0, 51, 70
1, 335803, Control_c, 0, 64, 127
1, 335840, Note_on_c, 0, 60, 0
1, 335840, Note_on_c, 0, 54, 61
1, 335920, Note_on_c, 0, 54, 0
1, 335920, Note_on_c, 0, 60, 61
1, 336000, Note_on_c, 0, 60, 0
1, 336000, Note_on_c, 0, 48, 0
1, 336000, Note_on_c, 0, 39, 0
1, 336000, Note_on_c, 0, 51, 0
1, 336000, Note_on_c, 0, 64, 68
1, 336019, Control_c, 0, 64, 0
1, 336080, Note_on_c, 0, 64, 0
1, 336080, Note_on_c, 0, 67, 62
1, 336160, Note_on_c, 0, 67, 0
1, 336160, Note_on_c, 0, 64, 62
1, 336240, Note_on_c, 0, 64, 0
1, 336240, Note_on_c, 0, 60, 62
1, 336240, Note_on_c, 0, 48, 60
1, 336240, Note_on_c, 0, 40, 60
1, 336240, Note_on_c, 0, 52, 71
1, 336297, Control_c, 0, 64, 127
1, 336320, Note_on_c, 0, 60, 0
1, 336320, Note_on_c, 0, 55, 62
1, 336400, Note_on_c, 0, 55, 0
1, 336400, Note_on_c, 0, 60, 62
1, 336480, Tempo, 570668
1, 336480, Note_on_c, 0, 60, 0
1, 336480, Note_on_c, 0, 48, 0
1, 336480, Note_on_c, 0, 40, 0
1, 336480, Note_on_c, 0, 52, 0
1, 336480, Note_on_c, 0, 62, 68
1, 336501, Control_c, 0, 64, 0
1, 336560, Note_on_c, 0, 62, 0
1, 336560, Note_on_c, 0, 65, 61
1, 336640, Note_on_c, 0, 65, 0
1, 336640, Note_on_c, 0, 62, 61
1, 336720, Note_on_c, 0, 62, 0
1, 336720, Note_on_c, 0, 59, 61
1, 336720, Note_on_c, 0, 48, 60
1, 336720, Note_on_c, 0, 38, 60
1, 336720, Note_on_c, 0, 50, 71
1, 336798, Control_c, 0, 64, 127
1, 336800, Note_on_c, 0, 59, 0
1, 336800, Note_on_c, 0, 53, 61
1, 336880, Note_on_c, 0, 53, 0
1, 336880, Note_on_c, 0, 59, 61
1, 336960, Tempo, 567967
1, 336960, Note_on_c, 0, 59, 0
1, 336960, Note_on_c, 0, 48, 0
1, 336960, Note_on_c, 0, 38, 0
1, 336960, Note_on_c, 0, 50, 0
1, 336960, Note_on_c, 0, 60, 68
1, 336974, Control_c, 0, 64, 0
1, 337040, Tempo, 570668
1, 337040, Note_on_c, 0, 60, 0
1, 337040, Note_on_c, 0, 64, 62
1, 337120, Note_on_c, 0, 64, 0
1, 337120, Note_on_c, 0, 60, 62
1, 337200, Note_on_c, 0, 60, 0
1, 337200, Note_on_c, 0, 55, 62
1, 337200, Note_on_c, 0, 36, 63
1, 337200, Note_on_c, 0, 48, 63
1, 337239, Control_c, 0, 64, 127
1, 337280, Note_on_c, 0, 55, 0
1, 337280, Note_on_c, 0, 52, 62
1, 337360, Note_on_c, 0, 52, 0
1, 337360, Note_on_c, 0, 55, 62
1, 337440, Note_on_c, 0, 55, 0
1, 337440, Note_on_c, 0, 48, 0
1, 337440, Note_on_c, 0, 36, 0
1, 337440, Note_on_c, 0, 67, 68
1, 337440, Note_on_c, 0, 36, 51
1, 337454, Control_c, 0, 64, 0
1, 337497, Control_c, 0, 64, 127
1, 337520, Note_on_c, 0, 36, 0
1, 337520, Note_on_c, 0, 67, 0
1, 337520, Note_on_c, 0, 72, 59
1, 337520, Note_on_c, 0, 40, 45
1, 337600, Note_on_c, 0, 40, 0
1, 337600, Note_on_c, 0, 72, 0
1, 337600, Note_on_c, 0, 67, 59
1, 337600, Note_on_c, 0, 43, 45
1, 337680, Note_on_c, 0, 43, 0
1, 337680, Note_on_c, 0, 67, 0
1, 337680, Note_on_c, 0, 64, 67
1, 337680, Note_on_c, 0, 48, 51
1, 337685, Control_c, 0, 64, 0
1, 337723, Control_c, 0, 64, 127
1, 337760, Note_on_c, 0, 48, 0
1, 337760, Note_on_c, 0, 64, 0
1, 337760, Note_on_c, 0, 60, 58
1, 337760, Note_on_c, 0, 43, 46
1, 337840, Note_on_c, 0, 43, 0
1, 337840, Note_on_c, 0, 60, 0
1, 337840, Note_on_c, 0, 64, 58
1, 337840, Note_on_c, 0, 40, 46
1, 337920, Tempo, 552079
1, 337920, Note_on_c, 0, 40, 0
1, 337920, Note_on_c, 0, 64, 0
1, 337920, Note_on_c, 0, 69, 71
1, 337920, Note_on_c, 0, 36, 51
1, 337927, Control_c, 0, 64, 0
1, 337952, Control_c, 0, 64, 127
1, 338000, Note_on_c, 0, 36, 0
1, 338000, Note_on_c, 0, 69, 0
1, 338000, Note_on_c, 0, 72, 61
1, 338000, Note_on_c, 0, 41, 46
1, 338080, Note_on_c, 0, 41, 0
1, 338080, Note_on_c, 0, 72, 0
1, 338080, Note_on_c, 0, 69, 61
1, 338080, Note_on_c, 0, 45, 46
1, 338160, Note_on_c, 0, 45, 0
1, 338160, Note_on_c, 0, 69, 0
1, 338160, Note_on_c, 0, 65, 67
1, 338160, Note_on_c, 0, 48, 51
1, 338164, Control_c, 0, 64, 0
1, 338213, Control_c, 0, 64, 127
1, 338240, Note_on_c, 0, 48, 0
1, 338240, Note_on_c, 0, 65, 0
1, 338240, Note_on_c, 0, 60, 60
1, 338240, Note_on_c, 0, 45, 45
1, 338320, Note_on_c, 0, 45, 0
1, 338320, Note_on_c, 0, 60, 0
1, 338320, Note_on_c, 0, 65, 60
1, 338320, Note_on_c, 0, 41, 45
1, 338400, Tempo, 557207
1, 338400, Note_on_c, 0, 41, 0
1, 338400, Note_on_c, 0, 65, 0
1, 338400, Note_on_c, 0, 67, 68
1, 338400, Note_on_c, 0, 36, 51
1, 338408, Control_c, 0, 64, 0
1, 338436, Control_c, 0, 64, 127
1, 338480, Note_on_c, 0, 36, 0
1, 338480, Note_on_c, 0, 67, 0
1, 338480, Note_on_c, 0, 72, 59
1, 338480, Note_on_c, 0, 40, 46
1, 338560, Note_on_c, 0, 40, 0
1, 338560, Note_on_c, 0, 72, 0
1, 338560, Note_on_c, 0, 67, 60
1, 338560, Note_on_c, 0, 43, 46
1, 338640, Note_on_c, 0, 43, 0
1, 338640, Note_on_c, 0, 67, 0
1, 338640, Note_on_c, 0, 64, 67
1, 338640, Note_on_c, 0, 48, 51
1, 338658, Control_c, 0, 64, 0
1, 338697, Control_c, 0, 64, 127
1, 338720, Note_on_c, 0, 48, 0
1, 338720, Note_on_c, 0, 64, 0
1, 338720, Note_on_c, 0, 60, 58
1, 338720, Note_on_c, 0, 43, 46
1, 338800, Note_on_c, 0, 43, 0
1, 338800, Note_on_c, 0, 60, 0
1, 338800, Note_on_c, 0, 64, 58
1, 338800, Note_on_c, 0, 40, 46
1, 338880, Note_on_c, 0, 40, 0
1, 338880, Note_on_c, 0, 64, 0
1, 338880, Note_on_c, 0, 65, 70
1, 338880, Note_on_c, 0, 36, 51
1, 338880, Control_c, 0, 64, 0
1, 338915, Control_c, 0, 64, 127
1, 338960, Note_on_c, 0, 36, 0
1, 338960, Note_on_c, 0, 65, 0
1, 338960, Note_on_c, 0, 72, 59
1, 338960, Note_on_c, 0, 38, 46
1, 339040, Note_on_c, 0, 38, 0
1, 339040, Note_on_c, 0, 72, 0
1, 339040, Note_on_c, 0, 65, 59
1, 339040, Note_on_c, 0, 41, 46
1, 339120, Note_on_c, 0, 41, 0
1, 339120, Note_on_c, 0, 65, 0
1, 339120, Note_on_c, 0, 62, 67
1, 339120, Note_on_c, 0, 48, 51
1, 339129, Control_c, 0, 64, 0
1, 339163, Control_c, 0, 64, 127
1, 339200, Note_on_c, 0, 48, 0
1, 339200, Note_on_c, 0, 62, 0
1, 339200, Note_on_c, 0, 60, 60
1, 339200, Note_on_c, 0, 41, 45
1, 339280, Note_on_c, 0, 41, 0
1, 339280, Note_on_c, 0, 60, 0
1, 339280, Note_on_c, 0, 62, 59
1, 339280, Note_on_c, 0, 38, 45
1, 339360, Tempo, 565238
1, 339360, Note_on_c, 0, 38, 0
1, 339360, Note_on_c, 0, 62, 0
1, 339360, Note_on_c, 0, 66, 66
1, 339360, Note_on_c, 0, 36, 56
1, 339370, Control_c, 0, 64, 0
1, 339403, Control_c, 0, 64, 127
1, 339440, Note_on_c, 0, 36, 0
1, 339440, Note_on_c, 0, 66, 0
1, 339440, Note_on_c, 0, 72, 57
1, 339440, Note_on_c, 0, 39, 46
1, 339520, Note_on_c, 0, 39, 0
1, 339520, Note_on_c, 0, 72, 0
1, 339520, Note_on_c, 0, 66, 60
1, 339520, Note_on_c, 0, 42, 46
1, 339600, Note_on_c, 0, 42, 0
1, 339600, Note_on_c, 0, 66, 0
1, 339600, Note_on_c, 0, 63, 70
1, 339600, Note_on_c, 0, 48, 51
1, 339603, Control_c, 0, 64, 0
1, 339640, Control_c, 0, 64, 127
1, 339680, Note_on_c, 0, 48, 0
1, 339680, Note_on_c, 0, 63, 0
1, 339680, Note_on_c, 0, 60, 58
1, 339680, Note_on_c, 0, 42, 46
1, 339760, Note_on_c, 0, 42, 0
1, 339760, Note_on_c, 0, 60, 0
1, 339760, Note_on_c, 0, 63, 58
1, 339760, Note_on_c, 0, 39, 46
1, 339840, Note_on_c, 0, 39, 0
1, 339840, Note_on_c, 0, 63, 0
1, 339840, Note_on_c, 0, 67, 71
1, 339840, Note_on_c, 0, 36, 57
1, 339848, Control_c, 0, 64, 0
1, 339879, Control_c, 0, 64, 127
1, 339920, Note_on_c, 0, 36, 0
1, 339920, Note_on_c, 0, 67, 0
1, 339920, Note_on_c, 0, 72, 61
1, 339920, Note_on_c, 0, 40, 46
1, 340000, Note_on_c, 0, 40, 0
1, 340000, Note_on_c, 0, 72, 0
1, 340000, Note_on_c, 0, 67, 61
1, 340000, Note_on_c, 0, 43, 46
1, 340080, Note_on_c, 0, 43, 0
1, 340080, Note_on_c, 0, 67, 0
1, 340080, Note_on_c, 0, 64, 67
1, 340080, Note_on_c, 0, 48, 51
1, 340084, Control_c, 0, 64, 0
1, 340116, Control_c, 0, 64, 127
1, 340160, Note_on_c, 0, 48, 0
1, 340160, Note_on_c, 0, 64, 0
1, 340160, Note_on_c, 0, 60, 60
1, 340160, Note_on_c, 0, 43, 45
1, 340240, Note_on_c, 0, 43, 0
1, 340240, Note_on_c, 0, 60, 0
1, 340240, Note_on_c, 0, 64, 60
1, 340240, Note_on_c, 0, 40, 45
1, 340320, Tempo, 570668
1, 340320, Note_on_c, 0, 40, 0
1, 340320, Note_on_c, 0, 64, 0
1, 340320, Note_on_c, 0, 65, 68
1, 340320, Note_on_c, 0, 36, 51
1, 340329, Control_c, 0, 64, 0
1, 340384, Control_c, 0, 64, 127
1, 340400, Note_on_c, 0, 36, 0
1, 340400, Note_on_c, 0, 65, 0
1, 340400, Note_on_c, 0, 72, 56
1, 340400, Note_on_c, 0, 38, 45
1, 340480, Note_on_c, 0, 38, 0
1, 340480, Note_on_c, 0, 72, 0
1, 340480, Note_on_c, 0, 65, 57
1, 340480, Note_on_c, 0, 41, 44
1, 340560, Note_on_c, 0, 41, 0
1, 340560, Note_on_c, 0, 65, 0
1, 340560, Note_on_c, 0, 62, 62
1, 340560, Note_on_c, 0, 48, 51
1, 340567, Control_c, 0, 64, 0
1, 340610, Control_c, 0, 64, 127
1, 340640, Note_on_c, 0, 48, 0
1, 340640, Note_on_c, 0, 62, 0
1, 340640, Note_on_c, 0, 59, 58
1, 340640, Note_on_c, 0, 41, 44
1, 340720, Note_on_c, 0, 41, 0
1, 340720, Note_on_c, 0, 59, 0
1, 340720, Note_on_c, 0, 62, 58
1, 340720, Note_on_c, 0, 38, 44
1, 340800, Tempo, 565238
1, 340800, Note_on_c, 0, 38, 0
1, 340800, Note_on_c, 0, 62, 0
1, 340800, Note_on_c, 0, 67, 63
1, 340800, Note_on_c, 0, 36, 51
1, 340808, Control_c, 0, 64, 0
1, 340839, Control_c, 0, 64, 127
1, 340880, Note_on_c, 0, 36, 0
1, 340880, Note_on_c, 0, 67, 0
1, 340880, Note_on_c, 0, 72, 57
1, 340880, Note_on_c, 0, 40, 44
1, 340960, Note_on_c, 0, 40, 0
1, 340960, Note_on_c, 0, 72, 0
1, 340960, Note_on_c, 0, 67, 57
1, 340960, Note_on_c, 0, 43, 44
1, 341040, Note_on_c, 0, 43, 0
1, 341040, Note_on_c, 0, 67, 0
1, 341040, Note_on_c, 0, 64, 60
1, 341040, Note_on_c, 0, 48, 51
1, 341076, Control_c, 0, 64, 0
1, 341120, Note_on_c, 0, 48, 0
1, 341120, Note_on_c, 0, 64, 0
1, 341120, Note_on_c, 0, 60, 57
1, 341120, Note_on_c, 0, 43, 44
1, 341121, Control_c, 0, 64, 127
1, 341160, Tempo, 630650
1, 341200, Note_on_c, 0, 43, 0
1, 341200, Note_on_c, 0, 60, 0
1, 341200, Note_on_c, 0, 64, 57
1, 341200, Note_on_c, 0, 40, 46
1, 341280, Tempo, 559858
1, 341280, Note_on_c, 0, 40, 0
1, 341280, Note_on_c, 0, 64, 0
1, 341280, Note_on_c, 0, 72, 68
1, 341280, Note_on_c, 0, 36, 51
1, 341290, Control_c, 0, 64, 0
1, 341344, Control_c, 0, 64, 127
1, 341360, Note_on_c, 0, 36, 0
1, 341360, Note_on_c, 0, 72, 0
1, 341360, Note_on_c, 0, 76, 59
1, 341360, Note_on_c, 0, 48, 45
1, 341440, Note_on_c, 0, 48, 0
1, 341440, Note_on_c, 0, 76, 0
1, 341440, Note_on_c, 0, 72, 59
1, 341440, Note_on_c, 0, 52, 45
1, 341520, Note_on_c, 0, 52, 0
1, 341520, Note_on_c, 0, 72, 0
1, 341520, Note_on_c, 0, 67, 67
1, 341520, Note_on_c, 0, 55, 51
1, 341600, Note_on_c, 0, 55, 0
1, 341600, Note_on_c, 0, 67, 0
1, 341600, Note_on_c, 0, 64, 58
1, 341600, Note_on_c, 0, 52, 46
1, 341680, Note_on_c, 0, 52, 0
1, 341680, Note_on_c, 0, 64, 0
1, 341680, Note_on_c, 0, 67, 58
1, 341680, Note_on_c, 0, 48, 46
1, 341760, Tempo, 552079
1, 341760, Note_on_c, 0, 48, 0
1, 341760, Note_on_c, 0, 67, 0
1, 341760, Note_on_c, 0, 72, 71
1, 341760, Note_on_c, 0, 36, 51
1, 341771, Control_c, 0, 64, 0
1, 341799, Control_c, 0, 64, 127
1, 341840, Note_on_c, 0, 36, 0
1, 341840, Note_on_c, 0, 72, 0
1, 341840, Note_on_c, 0, 77, 61
1, 341840, Note_on_c, 0, 48, 46
1, 341920, Note_on_c, 0, 48, 0
1, 341920, Note_on_c, 0, 77, 0
1, 341920, Note_on_c, 0, 72, 61
1, 341920, Note_on_c, 0, 53, 46
1, 342000, Note_on_c, 0, 53, 0
1, 342000, Note_on_c, 0, 72, 0
1, 342000, Note_on_c, 0, 69, 67
1, 342000, Note_on_c, 0, 57, 51
1, 342080, Note_on_c, 0, 57, 0
1, 342080, Note_on_c, 0, 69, 0
1, 342080, Note_on_c, 0, 65, 60
1, 342080, Note_on_c, 0, 53, 45
1, 342160, Note_on_c, 0, 53, 0
1, 342160, Note_on_c, 0, 65, 0
1, 342160, Note_on_c, 0, 69, 60
1, 342160, Note_on_c, 0, 48, 45
1, 342240, Tempo, 557207
1, 342240, Note_on_c, 0, 48, 0
1, 342240, Note_on_c, 0, 69, 0
1, 342240, Note_on_c, 0, 72, 68
1, 342240, Note_on_c, 0, 36, 51
1, 342253, Control_c, 0, 64, 0
1, 342297, Control_c, 0, 64, 127
1, 342320, Note_on_c, 0, 36, 0
1, 342320, Note_on_c, 0, 72, 0
1, 342320, Note_on_c, 0, 76, 59
1, 342320, Note_on_c, 0, 48, 46
1, 342400, Note_on_c, 0, 48, 0
1, 342400, Note_on_c, 0, 76, 0
1, 342400, Note_on_c, 0, 72, 60
1, 342400, Note_on_c, 0, 52, 46
1, 342480, Note_on_c, 0, 52, 0
1, 342480, Note_on_c, 0, 72, 0
1, 342480, Note_on_c, 0, 67, 67
1, 342480, Note_on_c, 0, 55, 51
1, 342560, Note_on_c, 0, 55, 0
1, 342560, Note_on_c, 0, 67, 0
1, 342560, Note_on_c, 0, 64, 58
1, 342560, Note_on_c, 0, 52, 46
1, 342640, Note_on_c, 0, 52, 0
1, 342640, Note_on_c, 0, 64, 0
1, 342640, Note_on_c, 0, 67, 58
1, 342640, Note_on_c, 0, 48, 46
1, 342720, Note_on_c, 0, 48, 0
1, 342720, Note_on_c, 0, 67, 0
1, 342720, Note_on_c, 0, 72, 70
1, 342720, Note_on_c, 0, 36, 51
1, 342735, Control_c, 0, 64, 0
1, 342763, Control_c, 0, 64, 127
1, 342800, Note_on_c, 0, 36, 0
1, 342800, Note_on_c, 0, 72, 0
1, 342800, Note_on_c, 0, 74, 59
1, 342800, Note_on_c, 0, 48, 46
1, 342880, Note_on_c, 0, 48, 0
1, 342880, Note_on_c, 0, 74, 0
1, 342880, Note_on_c, 0, 72, 59
1, 342880, Note_on_c, 0, 50, 46
1, 342960, Note_on_c, 0, 50, 0
1, 342960, Note_on_c, 0, 72, 0
1, 342960, Note_on_c, 0, 65, 67
1, 342960, Note_on_c, 0, 53, 51
1, 343040, Note_on_c, 0, 53, 0
1, 343040, Note_on_c, 0, 65, 0
1, 343040, Note_on_c, 0, 62, 60
1, 343040, Note_on_c, 0, 50, 45
1, 343120, Note_on_c, 0, 50, 0
1, 343120, Note_on_c, 0, 62, 0
1, 343120, Note_on_c, 0, 65, 59
1, 343120, Note_on_c, 0, 48, 45
1, 343200, Tempo, 565238
1, 343200, Note_on_c, 0, 48, 0
1, 343200, Note_on_c, 0, 65, 0
1, 343200, Note_on_c, 0, 72, 66
1, 343200, Note_on_c, 0, 36, 56
1, 343213, Control_c, 0, 64, 0
1, 343249, Control_c, 0, 64, 127
1, 343280, Note_on_c, 0, 36, 0
1, 343280, Note_on_c, 0, 72, 0
1, 343280, Note_on_c, 0, 75, 57
1, 343280, Note_on_c, 0, 48, 46
1, 343360, Note_on_c, 0, 48, 0
1, 343360, Note_on_c, 0, 75, 0
1, 343360, Note_on_c, 0, 72, 60
1, 343360, Note_on_c, 0, 51, 46
1, 343440, Note_on_c, 0, 51, 0
1, 343440, Note_on_c, 0, 72, 0
1, 343440, Note_on_c, 0, 66, 70
1, 343440, Note_on_c, 0, 54, 51
1, 343520, Note_on_c, 0, 54, 0
1, 343520, Note_on_c, 0, 66, 0
1, 343520, Note_on_c, 0, 63, 58
1, 343520, Note_on_c, 0, 51, 46
1, 343600, Note_on_c, 0, 51, 0
1, 343600, Note_on_c, 0, 63, 0
1, 343600, Note_on_c, 0, 66, 58
1, 343600, Note_on_c, 0, 48, 46
1, 343680, Note_on_c, 0, 48, 0
1, 343680, Note_on_c, 0, 66, 0
1, 343680, Note_on_c, 0, 72, 71
1, 343680, Note_on_c, 0, 36, 57
1, 343706, Control_c, 0, 64, 0
1, 343719, Control_c, 0, 64, 127
1, 343760, Note_on_c, 0, 36, 0
1, 343760, Note_on_c, 0, 72, 0
1, 343760, Note_on_c, 0, 76, 61
1, 343760, Note_on_c, 0, 48, 46
1, 343840, Note_on_c, 0, 48, 0
1, 343840, Note_on_c, 0, 76, 0
1, 343840, Note_on_c, 0, 72, 61
1, 343840, Note_on_c, 0, 52, 46
1, 343920, Note_on_c, 0, 52, 0
1, 343920, Note_on_c, 0, 72, 0
1, 343920, Note_on_c, 0, 67, 67
1, 343920, Note_on_c, 0, 55, 51
1, 344000, Note_on_c, 0, 55, 0
1, 344000, Note_on_c, 0, 67, 0
1, 344000, Note_on_c, 0, 64, 60
1, 344000, Note_on_c, 0, 52, 45
1, 344080, Note_on_c, 0, 52, 0
1, 344080, Note_on_c, 0, 64, 0
1, 344080, Note_on_c, 0, 67, 60
1, 344080, Note_on_c, 0, 48, 45
1, 344160, Tempo, 570668
1, 344160, Note_on_c, 0, 48, 0
1, 344160, Note_on_c, 0, 67, 0
1, 344160, Note_on_c, 0, 71, 68
1, 344160, Note_on_c, 0, 36, 51
1, 344178, Control_c, 0, 64, 0
1, 344231, Control_c, 0, 64, 127
1, 344240, Note_on_c, 0, 36, 0
1, 344240, Note_on_c, 0, 71, 0
1, 344240, Note_on_c, 0, 74, 56
1, 344240, Note_on_c, 0, 48, 45
1, 344320, Note_on_c, 0, 48, 0
1, 344320, Note_on_c, 0, 74, 0
1, 344320, Note_on_c, 0, 71, 57
1, 344320, Note_on_c, 0, 50, 44
1, 344400, Note_on_c, 0, 50, 0
1, 344400, Note_on_c, 0, 71, 0
1, 344400, Note_on_c, 0, 65, 62
1, 344400, Note_on_c, 0, 53, 51
1, 344480, Note_on_c, 0, 53, 0
1, 344480, Note_on_c, 0, 65, 0
1, 344480, Note_on_c, 0, 62, 58
1, 344480, Note_on_c, 0, 50, 44
1, 344560, Note_on_c, 0, 50, 0
1, 344560, Note_on_c, 0, 62, 0
1, 344560, Note_on_c, 0, 65, 58
1, 344560, Note_on_c, 0, 48, 44
1, 344640, Tempo, 565238
1, 344640, Note_on_c, 0, 48, 0
1, 344640, Note_on_c, 0, 65, 0
1, 344640, Note_on_c, 0, 67, 63
1, 344640, Note_on_c, 0, 36, 51
1, 344649, Control_c, 0, 64, 0
1, 344697, Control_c, 0, 64, 127
1, 344720, Note_on_c, 0, 36, 0
1, 344720, Note_on_c, 0, 67, 0
1, 344720, Note_on_c, 0, 72, 57
1, 344720, Note_on_c, 0, 48, 44
1, 344800, Note_on_c, 0, 48, 0
1, 344800, Note_on_c, 0, 72, 0
1, 344800, Note_on_c, 0, 67, 57
1, 344800, Note_on_c, 0, 52, 44
1, 344880, Note_on_c, 0, 52, 0
1, 344880, Note_on_c, 0, 67, 0
1, 344880, Note_on_c, 0, 64, 60
1, 344880, Note_on_c, 0, 55, 51
1, 344960, Note_on_c, 0, 55, 0
1, 344960, Note_on_c, 0, 64, 0
1, 344960, Note_on_c, 0, 60, 57
1, 344960, Note_on_c, 0, 52, 44
1, 345000, Tempo, 633981
1, 345040, Note_on_c, 0, 52, 0
1, 345040, Note_on_c, 0, 60, 0
1, 345040, Note_on_c, 0, 64, 57
1, 345040, Note_on_c, 0, 48, 46
1, 345120, Tempo, 567967
1, 345120, Note_on_c, 0, 48, 0
1, 345120, Note_on_c, 0, 64, 0
1, 345120, Note_on_c, 0, 72, 74
1, 345120, Note_on_c, 0, 36, 59
1, 345136, Control_c, 0, 64, 0
1, 345173, Control_c, 0, 64, 127
1, 345200, Note_on_c, 0, 36, 0
1, 345200, Note_on_c, 0, 72, 0
1, 345200, Note_on_c, 0, 76, 59
1, 345200, Note_on_c, 0, 48, 45
1, 345280, Note_on_c, 0, 48, 0
1, 345280, Note_on_c, 0, 76, 0
1, 345280, Note_on_c, 0, 72, 59
1, 345280, Note_on_c, 0, 52, 45
1, 345360, Note_on_c, 0, 52, 0
1, 345360, Note_on_c, 0, 72, 0
1, 345360, Note_on_c, 0, 67, 70
1, 345360, Note_on_c, 0, 55, 51
1, 345440, Note_on_c, 0, 55, 0
1, 345440, Note_on_c, 0, 67, 0
1, 345440, Note_on_c, 0, 64, 58
1, 345440, Note_on_c, 0, 52, 46
1, 345520, Note_on_c, 0, 52, 0
1, 345520, Note_on_c, 0, 64, 0
1, 345520, Note_on_c, 0, 67, 58
1, 345520, Note_on_c, 0, 48, 46
1, 345600, Tempo, 557310
1, 345600, Note_on_c, 0, 48, 0
1, 345600, Note_on_c, 0, 67, 0
1, 345600, Note_on_c, 0, 71, 71
1, 345600, Note_on_c, 0, 43, 51
1, 345618, Control_c, 0, 64, 0
1, 345646, Control_c, 0, 64, 127
1, 345680, Note_on_c, 0, 43, 0
1, 345680, Note_on_c, 0, 71, 0
1, 345680, Note_on_c, 0, 74, 61
1, 345680, Note_on_c, 0, 47, 46
1, 345760, Note_on_c, 0, 47, 0
1, 345760, Note_on_c, 0, 74, 0
1, 345760, Note_on_c, 0, 71, 61
1, 345760, Note_on_c, 0, 50, 46
1, 345840, Note_on_c, 0, 50, 0
1, 345840, Note_on_c, 0, 71, 0
1, 345840, Note_on_c, 0, 67, 67
1, 345840, Note_on_c, 0, 55, 51
1, 345920, Note_on_c, 0, 55, 0
1, 345920, Note_on_c, 0, 67, 0
1, 345920, Note_on_c, 0, 62, 60
1, 345920, Note_on_c, 0, 50, 45
1, 345960, Tempo, 627353
1, 346000, Note_on_c, 0, 50, 0
1, 346000, Note_on_c, 0, 62, 0
1, 346000, Note_on_c, 0, 67, 60
1, 346000, Note_on_c, 0, 47, 45
1, 346080, Tempo, 567967
1, 346080, Note_on_c, 0, 47, 0
1, 346080, Note_on_c, 0, 67, 0
1, 346080, Note_on_c, 0, 74, 74
1, 346080, Note_on_c, 0, 38, 59
1, 346094, Control_c, 0, 64, 0
1, 346140, Control_c, 0, 64, 127
1, 346160, Note_on_c, 0, 38, 0
1, 346160, Note_on_c, 0, 74, 0
1, 346160, Note_on_c, 0, 77, 59
1, 346160, Note_on_c, 0, 50, 45
1, 346240, Note_on_c, 0, 50, 0
1, 346240, Note_on_c, 0, 77, 0
1, 346240, Note_on_c, 0, 74, 59
1, 346240, Note_on_c, 0, 53, 45
1, 346320, Note_on_c, 0, 53, 0
1, 346320, Note_on_c, 0, 74, 0
1, 346320, Note_on_c, 0, 69, 70
1, 346320, Note_on_c, 0, 57, 51
1, 346400, Note_on_c, 0, 57, 0
1, 346400, Note_on_c, 0, 69, 0
1, 346400, Note_on_c, 0, 65, 58
1, 346400, Note_on_c, 0, 53, 46
1, 346480, Note_on_c, 0, 53, 0
1, 346480, Note_on_c, 0, 65, 0
1, 346480, Note_on_c, 0, 69, 58
1, 346480, Note_on_c, 0, 50, 46
1, 346560, Tempo, 557310
1, 346560, Note_on_c, 0, 50, 0
1, 346560, Note_on_c, 0, 69, 0
1, 346560, Note_on_c, 0, 72, 71
1, 346560, Note_on_c, 0, 45, 51
1, 346568, Control_c, 0, 64, 0
1, 346617, Control_c, 0, 64, 127
1, 346640, Note_on_c, 0, 45, 0
1, 346640, Note_on_c, 0, 72, 0
1, 346640, Note_on_c, 0, 76, 61
1, 346640, Note_on_c, 0, 48, 46
1, 346720, Note_on_c, 0, 48, 0
1, 346720, Note_on_c, 0, 76, 0
1, 346720, Note_on_c, 0, 72, 61
1, 346720, Note_on_c, 0, 52, 46
1, 346800, Note_on_c, 0, 52, 0
1, 346800, Note_on_c, 0, 72, 0
1, 346800, Note_on_c, 0, 69, 67
1, 346800, Note_on_c, 0, 57, 51
1, 346880, Note_on_c, 0, 57, 0
1, 346880, Note_on_c, 0, 69, 0
1, 346880, Note_on_c, 0, 64, 60
1, 346880, Note_on_c, 0, 52, 45
1, 346920, Tempo, 611372
1, 346960, Note_on_c, 0, 52, 0
1, 346960, Note_on_c, 0, 64, 0
1, 346960, Note_on_c, 0, 69, 60
1, 346960, Note_on_c, 0, 48, 45
1, 347040, Tempo, 567967
1, 347040, Note_on_c, 0, 48, 0
1, 347040, Note_on_c, 0, 69, 0
1, 347040, Note_on_c, 0, 77, 74
1, 347040, Note_on_c, 0, 41, 59
1, 347058, Control_c, 0, 64, 0
1, 347107, Control_c, 0, 64, 127
1, 347120, Note_on_c, 0, 41, 0
1, 347120, Note_on_c, 0, 77, 0
1, 347120, Note_on_c, 0, 81, 59
1, 347120, Note_on_c, 0, 48, 45
1, 347200, Note_on_c, 0, 48, 0
1, 347200, Note_on_c, 0, 81, 0
1, 347200, Note_on_c, 0, 77, 59
1, 347200, Note_on_c, 0, 50, 45
1, 347280, Note_on_c, 0, 50, 0
1, 347280, Note_on_c, 0, 77, 0
1, 347280, Note_on_c, 0, 72, 70
1, 347280, Note_on_c, 0, 53, 51
1, 347360, Note_on_c, 0, 53, 0
1, 347360, Note_on_c, 0, 72, 0
1, 347360, Note_on_c, 0, 69, 58
1, 347360, Note_on_c, 0, 50, 46
1, 347440, Note_on_c, 0, 50, 0
1, 347440, Note_on_c, 0, 69, 0
1, 347440, Note_on_c, 0, 72, 58
1, 347440, Note_on_c, 0, 48, 46
1, 347520, Tempo, 565131
1, 347520, Note_on_c, 0, 48, 0
1, 347520, Note_on_c, 0, 72, 0
1, 347520, Note_on_c, 0, 74, 75
1, 347520, Note_on_c, 0, 43, 51
1, 347528, Control_c, 0, 64, 0
1, 347559, Control_c, 0, 64, 127
1, 347600, Note_on_c, 0, 43, 0
1, 347600, Note_on_c, 0, 74, 0
1, 347600, Note_on_c, 0, 79, 61
1, 347600, Note_on_c, 0, 48, 46
1, 347680, Note_on_c, 0, 48, 0
1, 347680, Note_on_c, 0, 79, 0
1, 347680, Note_on_c, 0, 74, 61
1, 347680, Note_on_c, 0, 50, 46
1, 347760, Note_on_c, 0, 50, 0
1, 347760, Note_on_c, 0, 74, 0
1, 347760, Note_on_c, 0, 72, 67
1, 347760, Note_on_c, 0, 55, 51
1, 347840, Note_on_c, 0, 55, 0
1, 347840, Note_on_c, 0, 72, 0
1, 347840, Note_on_c, 0, 67, 60
1, 347840, Note_on_c, 0, 50, 45
1, 347920, Note_on_c, 0, 50, 0
1, 347920, Note_on_c, 0, 67, 0
1, 347920, Note_on_c, 0, 72, 60
1, 347920, Note_on_c, 0, 48, 45
1, 348000, Tempo, 567967
1, 348000, Note_on_c, 0, 48, 0
1, 348000, Note_on_c, 0, 72, 0
1, 348000, Note_on_c, 0, 74, 74
1, 348000, Note_on_c, 0, 43, 59
1, 348011, Control_c, 0, 64, 0
1, 348050, Control_c, 0, 64, 127
1, 348080, Note_on_c, 0, 43, 0
1, 348080, Note_on_c, 0, 74, 0
1, 348080, Note_on_c, 0, 79, 59
1, 348080, Note_on_c, 0, 47, 45
1, 348160, Note_on_c, 0, 47, 0
1, 348160, Note_on_c, 0, 79, 0
1, 348160, Note_on_c, 0, 74, 59
1, 348160, Note_on_c, 0, 50, 45
1, 348240, Note_on_c, 0, 50, 0
1, 348240, Note_on_c, 0, 74, 0
1, 348240, Note_on_c, 0, 71, 70
1, 348240, Note_on_c, 0, 55, 51
1, 348320, Note_on_c, 0, 55, 0
1, 348320, Note_on_c, 0, 71, 0
1, 348320, Note_on_c, 0, 67, 58
1, 348320, Note_on_c, 0, 50, 46
1, 348400, Note_on_c, 0, 50, 0
1, 348400, Note_on_c, 0, 67, 0
1, 348400, Note_on_c, 0, 71, 58
1, 348400, Note_on_c, 0, 47, 46
1, 348480, Tempo, 557207
1, 348480, Note_on_c, 0, 47, 0
1, 348480, Note_on_c, 0, 71, 0
1, 348480, Note_on_c, 0, 76, 71
1, 348480, Note_on_c, 0, 36, 51
1, 348489, Control_c, 0, 64, 0
1, 348537, Control_c, 0, 64, 127
1, 348560, Note_on_c, 0, 36, 0
1, 348560, Note_on_c, 0, 76, 0
1, 348560, Note_on_c, 0, 79, 58
1, 348560, Note_on_c, 0, 48, 44
1, 348640, Tempo, 559858
1, 348640, Note_on_c, 0, 48, 0
1, 348640, Note_on_c, 0, 79, 0
1, 348640, Note_on_c, 0, 76, 58
1, 348640, Note_on_c, 0, 52, 44
1, 348720, Note_on_c, 0, 52, 0
1, 348720, Note_on_c, 0, 76, 0
1, 348720, Note_on_c, 0, 72, 63
1, 348720, Note_on_c, 0, 55, 50
1, 348800, Tempo, 562430
1, 348800, Note_on_c, 0, 55, 0
1, 348800, Note_on_c, 0, 72, 0
1, 348800, Note_on_c, 0, 67, 60
1, 348800, Note_on_c, 0, 52, 43
1, 348880, Note_on_c, 0, 52, 0
1, 348880, Note_on_c, 0, 67, 0
1, 348880, Note_on_c, 0, 72, 58
1, 348880, Note_on_c, 0, 48, 43
1, 348960, Tempo, 565131
1, 348960, Note_on_c, 0, 48, 0
1, 348960, Note_on_c, 0, 72, 0
1, 348960, Note_on_c, 0, 76, 74
1, 348960, Note_on_c, 0, 36, 59
1, 348971, Control_c, 0, 64, 0
1, 349017, Control_c, 0, 64, 127
1, 349040, Note_on_c, 0, 36, 0
1, 349040, Note_on_c, 0, 76, 0
1, 349040, Note_on_c, 0, 79, 59
1, 349040, Note_on_c, 0, 48, 45
1, 349120, Note_on_c, 0, 48, 0
1, 349120, Note_on_c, 0, 79, 0
1, 349120, Note_on_c, 0, 76, 59
1, 349120, Note_on_c, 0, 52, 45
1, 349200, Note_on_c, 0, 52, 0
1, 349200, Note_on_c, 0, 76, 0
1, 349200, Note_on_c, 0, 72, 70
1, 349200, Note_on_c, 0, 55, 51
1, 349280, Note_on_c, 0, 55, 0
1, 349280, Note_on_c, 0, 72, 0
1, 349280, Note_on_c, 0, 67, 58
1, 349280, Note_on_c, 0, 52, 46
1, 349360, Note_on_c, 0, 52, 0
1, 349360, Note_on_c, 0, 67, 0
1, 349360, Note_on_c, 0, 72, 58
1, 349360, Note_on_c, 0, 48, 46
1, 349400, Tempo, 554682
1, 349440, Note_on_c, 0, 48, 0
1, 349440, Note_on_c, 0, 72, 0
1, 349440, Note_on_c, 0, 74, 71
1, 349440, Note_on_c, 0, 43, 51
1, 349451, Control_c, 0, 64, 0
1, 349490, Control_c, 0, 64, 127
1, 349520, Tempo, 557207
1, 349520, Note_on_c, 0, 43, 0
1, 349520, Note_on_c, 0, 74, 0
1, 349520, Note_on_c, 0, 79, 61
1, 349520, Note_on_c, 0, 47, 46
1, 349600, Note_on_c, 0, 47, 0
1, 349600, Note_on_c, 0, 79, 0
1, 349600, Note_on_c, 0, 74, 61
1, 349600, Note_on_c, 0, 50, 46
1, 349640, Tempo, 559858
1, 349680, Note_on_c, 0, 50, 0
1, 349680, Note_on_c, 0, 74, 0
1, 349680, Note_on_c, 0, 71, 67
1, 349680, Note_on_c, 0, 55, 51
1, 349760, Tempo, 562430
1, 349760, Note_on_c, 0, 55, 0
1, 349760, Note_on_c, 0, 71, 0
1, 349760, Note_on_c, 0, 67, 60
1, 349760, Note_on_c, 0, 50, 45
1, 349800, Tempo, 624090
1, 349840, Note_on_c, 0, 50, 0
1, 349840, Note_on_c, 0, 67, 0
1, 349840, Note_on_c, 0, 71, 60
1, 349840, Note_on_c, 0, 47, 45
1, 349880, Tempo, 565131
1, 349920, Note_on_c, 0, 47, 0
1, 349920, Note_on_c, 0, 71, 0
1, 349920, Note_on_c, 0, 77, 74
1, 349920, Note_on_c, 0, 38, 59
1, 349934, Control_c, 0, 64, 0
1, 349960, Tempo, 567805
1, 349984, Control_c, 0, 64, 127
1, 350000, Note_on_c, 0, 38, 0
1, 350000, Note_on_c, 0, 77, 0
1, 350000, Note_on_c, 0, 81, 59
1, 350000, Note_on_c, 0, 50, 45
1, 350080, Note_on_c, 0, 50, 0
1, 350080, Note_on_c, 0, 81, 0
1, 350080, Note_on_c, 0, 77, 59
1, 350080, Note_on_c, 0, 53, 45
1, 350160, Note_on_c, 0, 53, 0
1, 350160, Note_on_c, 0, 77, 0
1, 350160, Note_on_c, 0, 74, 70
1, 350160, Note_on_c, 0, 57, 51
1, 350240, Note_on_c, 0, 57, 0
1, 350240, Note_on_c, 0, 74, 0
1, 350240, Note_on_c, 0, 69, 58
1, 350240, Note_on_c, 0, 53, 46
1, 350320, Note_on_c, 0, 53, 0
1, 350320, Note_on_c, 0, 69, 0
1, 350320, Note_on_c, 0, 74, 58
1, 350320, Note_on_c, 0, 50, 46
1, 350400, Tempo, 557310
1, 350400, Note_on_c, 0, 50, 0
1, 350400, Note_on_c, 0, 74, 0
1, 350400, Note_on_c, 0, 76, 71
1, 350400, Note_on_c, 0, 45, 51
1, 350419, Control_c, 0, 64, 0
1, 350460, Control_c, 0, 64, 127
1, 350480, Note_on_c, 0, 45, 0
1, 350480, Note_on_c, 0, 76, 0
1, 350480, Note_on_c, 0, 81, 61
1, 350480, Note_on_c, 0, 48, 46
1, 350560, Note_on_c, 0, 48, 0
1, 350560, Note_on_c, 0, 81, 0
1, 350560, Note_on_c, 0, 76, 61
1, 350560, Note_on_c, 0, 52, 46
1, 350640, Note_on_c, 0, 52, 0
1, 350640, Note_on_c, 0, 76, 0
1, 350640, Note_on_c, 0, 72, 67
1, 350640, Note_on_c, 0, 57, 51
1, 350720, Note_on_c, 0, 57, 0
1, 350720, Note_on_c, 0, 72, 0
1, 350720, Note_on_c, 0, 69, 60
1, 350720, Note_on_c, 0, 52, 45
1, 350760, Tempo, 620861
1, 350800, Note_on_c, 0, 52, 0
1, 350800, Note_on_c, 0, 69, 0
1, 350800, Note_on_c, 0, 72, 60
1, 350800, Note_on_c, 0, 48, 45
1, 350880, Tempo, 567967
1, 350880, Note_on_c, 0, 48, 0
1, 350880, Note_on_c, 0, 72, 0
1, 350880, Note_on_c, 0, 81, 74
1, 350880, Note_on_c, 0, 45, 59
1, 350891, Control_c, 0, 64, 0
1, 350940, Control_c, 0, 64, 127
1, 350960, Note_on_c, 0, 45, 0
1, 350960, Note_on_c, 0, 81, 0
1, 350960, Note_on_c, 0, 84, 59
1, 350960, Note_on_c, 0, 48, 45
1, 351040, Note_on_c, 0, 48, 0
1, 351040, Note_on_c, 0, 84, 0
1, 351040, Note_on_c, 0, 81, 59
1, 351040, Note_on_c, 0, 52, 45
1, 351120, Note_on_c, 0, 52, 0
1, 351120, Note_on_c, 0, 81, 0
1, 351120, Note_on_c, 0, 76, 70
1, 351120, Note_on_c, 0, 57, 51
1, 351200, Note_on_c, 0, 57, 0
1, 351200, Note_on_c, 0, 76, 0
1, 351200, Note_on_c, 0, 72, 58
1, 351200, Note_on_c, 0, 52, 46
1, 351280, Note_on_c, 0, 52, 0
1, 351280, Note_on_c, 0, 72, 0
1, 351280, Note_on_c, 0, 76, 58
1, 351280, Note_on_c, 0, 48, 46
1, 351360, Tempo, 557310
1, 351360, Note_on_c, 0, 48, 0
1, 351360, Note_on_c, 0, 76, 0
1, 351360, Note_on_c, 0, 81, 75
1, 351360, Note_on_c, 0, 38, 51
1, 351368, Control_c, 0, 64, 0
1, 351392, Control_c, 0, 64, 127
1, 351440, Note_on_c, 0, 38, 0
1, 351440, Note_on_c, 0, 81, 0
1, 351440, Note_on_c, 0, 84, 61
1, 351440, Note_on_c, 0, 45, 46
1, 351520, Note_on_c, 0, 45, 0
1, 351520, Note_on_c, 0, 84, 0
1, 351520, Note_on_c, 0, 81, 61
1, 351520, Note_on_c, 0, 48, 46
1, 351600, Note_on_c, 0, 48, 0
1, 351600, Note_on_c, 0, 81, 0
1, 351600, Note_on_c, 0, 78, 67
1, 351600, Note_on_c, 0, 50, 51
1, 351680, Note_on_c, 0, 50, 0
1, 351680, Note_on_c, 0, 78, 0
1, 351680, Note_on_c, 0, 72, 60
1, 351680, Note_on_c, 0, 48, 45
1, 351760, Note_on_c, 0, 48, 0
1, 351760, Note_on_c, 0, 72, 0
1, 351760, Note_on_c, 0, 78, 60
1, 351760, Note_on_c, 0, 45, 45
1, 351840, Tempo, 567967
1, 351840, Note_on_c, 0, 45, 0
1, 351840, Note_on_c, 0, 78, 0
1, 351840, Note_on_c, 0, 81, 74
1, 351840, Note_on_c, 0, 38, 59
1, 351851, Control_c, 0, 64, 0
1, 351886, Control_c, 0, 64, 127
1, 351920, Note_on_c, 0, 38, 0
1, 351920, Note_on_c, 0, 81, 0
1, 351920, Note_on_c, 0, 84, 59
1, 351920, Note_on_c, 0, 45, 45
1, 352000, Note_on_c, 0, 45, 0
1, 352000, Note_on_c, 0, 84, 0
1, 352000, Note_on_c, 0, 81, 59
1, 352000, Note_on_c, 0, 48, 45
1, 352080, Note_on_c, 0, 48, 0
1, 352080, Note_on_c, 0, 81, 0
1, 352080, Note_on_c, 0, 78, 70
1, 352080, Note_on_c, 0, 50, 51
1, 352160, Note_on_c, 0, 50, 0
1, 352160, Note_on_c, 0, 78, 0
1, 352160, Note_on_c, 0, 72, 58
1, 352160, Note_on_c, 0, 48, 46
1, 352240, Note_on_c, 0, 48, 0
1, 352240, Note_on_c, 0, 72, 0
1, 352240, Note_on_c, 0, 78, 58
1, 352240, Note_on_c, 0, 45, 46
1, 352320, Tempo, 557310
1, 352320, Note_on_c, 0, 45, 0
1, 352320, Note_on_c, 0, 78, 0
1, 352320, Note_on_c, 0, 79, 71
1, 352320, Note_on_c, 0, 43, 51
1, 352337, Control_c, 0, 64, 0
1, 352363, Control_c, 0, 64, 127
1, 352400, Note_on_c, 0, 43, 0
1, 352400, Note_on_c, 0, 79, 0
1, 352400, Note_on_c, 0, 83, 58
1, 352400, Note_on_c, 0, 50, 44
1, 352480, Note_on_c, 0, 50, 0
1, 352480, Note_on_c, 0, 83, 0
1, 352480, Note_on_c, 0, 79, 58
1, 352480, Note_on_c, 0, 55, 44
1, 352560, Note_on_c, 0, 55, 0
1, 352560, Note_on_c, 0, 79, 0
1, 352560, Note_on_c, 0, 74, 63
1, 352560, Note_on_c, 0, 43, 50
1, 352640, Note_on_c, 0, 43, 0
1, 352640, Note_on_c, 0, 74, 0
1, 352640, Note_on_c, 0, 71, 60
1, 352640, Note_on_c, 0, 47, 43
1, 352680, Tempo, 630650
1, 352720, Note_on_c, 0, 47, 0
1, 352720, Note_on_c, 0, 71, 0
1, 352720, Note_on_c, 0, 74, 58
1, 352720, Note_on_c, 0, 55, 43
1, 352800, Tempo, 567967
1, 352800, Note_on_c, 0, 55, 0
1, 352800, Note_on_c, 0, 74, 0
1, 352800, Note_on_c, 0, 81, 74
1, 352800, Note_on_c, 0, 43, 59
1, 352815, Control_c, 0, 64, 0
1, 352863, Control_c, 0, 64, 127
1, 352880, Note_on_c, 0, 43, 0
1, 352880, Note_on_c, 0, 81, 0
1, 352880, Note_on_c, 0, 86, 59
1, 352880, Note_on_c, 0, 48, 45
1, 352960, Note_on_c, 0, 48, 0
1, 352960, Note_on_c, 0, 86, 0
1, 352960, Note_on_c, 0, 81, 59
1, 352960, Note_on_c, 0, 50, 45
1, 353040, Note_on_c, 0, 50, 0
1, 353040, Note_on_c, 0, 81, 0
1, 353040, Note_on_c, 0, 78, 70
1, 353040, Note_on_c, 0, 43, 51
1, 353120, Note_on_c, 0, 43, 0
1, 353120, Note_on_c, 0, 78, 0
1, 353120, Note_on_c, 0, 74, 58
1, 353120, Note_on_c, 0, 48, 46
1, 353200, Note_on_c, 0, 48, 0
1, 353200, Note_on_c, 0, 74, 0
1, 353200, Note_on_c, 0, 78, 58
1, 353200, Note_on_c, 0, 50, 46
1, 353280, Tempo, 557310
1, 353280, Note_on_c, 0, 50, 0
1, 353280, Note_on_c, 0, 78, 0
1, 353280, Note_on_c, 0, 83, 75
1, 353280, Note_on_c, 0, 43, 51
1, 353285, Control_c, 0, 64, 0
1, 353332, Control_c, 0, 64, 127
1, 353360, Note_on_c, 0, 43, 0
1, 353360, Note_on_c, 0, 83, 0
1, 353360, Note_on_c, 0, 86, 61
1, 353360, Note_on_c, 0, 47, 46
1, 353440, Note_on_c, 0, 47, 0
1, 353440, Note_on_c, 0, 86, 0
1, 353440, Note_on_c, 0, 83, 61
1, 353440, Note_on_c, 0, 50, 46
1, 353520, Note_on_c, 0, 50, 0
1, 353520, Note_on_c, 0, 83, 0
1, 353520, Note_on_c, 0, 79, 67
1, 353520, Note_on_c, 0, 43, 51
1, 353600, Note_on_c, 0, 43, 0
1, 353600, Note_on_c, 0, 79, 0
1, 353600, Note_on_c, 0, 74, 60
1, 353600, Note_on_c, 0, 47, 45
1, 353680, Note_on_c, 0, 47, 0
1, 353680, Note_on_c, 0, 74, 0
1, 353680, Note_on_c, 0, 79, 60
1, 353680, Note_on_c, 0, 50, 45
1, 353760, Tempo, 567967
1, 353760, Note_on_c, 0, 50, 0
1, 353760, Note_on_c, 0, 79, 0
1, 353760, Note_on_c, 0, 81, 74
1, 353760, Note_on_c, 0, 43, 59
1, 353771, Control_c, 0, 64, 0
1, 353812, Control_c, 0, 64, 127
1, 353840, Note_on_c, 0, 43, 0
1, 353840, Note_on_c, 0, 81, 0
1, 353840, Note_on_c, 0, 86, 59
1, 353840, Note_on_c, 0, 48, 45
1, 353920, Note_on_c, 0, 48, 0
1, 353920, Note_on_c, 0, 86, 0
1, 353920, Note_on_c, 0, 81, 59
1, 353920, Note_on_c, 0, 50, 45
1, 354000, Note_on_c, 0, 50, 0
1, 354000, Note_on_c, 0, 81, 0
1, 354000, Note_on_c, 0, 78, 70
1, 354000, Note_on_c, 0, 43, 51
1, 354080, Note_on_c, 0, 43, 0
1, 354080, Note_on_c, 0, 78, 0
1, 354080, Note_on_c, 0, 74, 58
1, 354080, Note_on_c, 0, 48, 46
1, 354160, Note_on_c, 0, 48, 0
1, 354160, Note_on_c, 0, 74, 0
1, 354160, Note_on_c, 0, 78, 58
1, 354160, Note_on_c, 0, 50, 46
1, 354240, Tempo, 557310
1, 354240, Note_on_c, 0, 50, 0
1, 354240, Note_on_c, 0, 78, 0
1, 354240, Note_on_c, 0, 83, 77
1, 354240, Note_on_c, 0, 43, 58
1, 354255, Control_c, 0, 64, 0
1, 354280, Control_c, 0, 64, 127
1, 354320, Note_on_c, 0, 43, 0
1, 354320, Note_on_c, 0, 83, 0
1, 354320, Note_on_c, 0, 86, 58
1, 354320, Note_on_c, 0, 47, 44
1, 354400, Note_on_c, 0, 47, 0
1, 354400, Note_on_c, 0, 86, 0
1, 354400, Note_on_c, 0, 83, 58
1, 354400, Note_on_c, 0, 50, 44
1, 354480, Note_on_c, 0, 50, 0
1, 354480, Note_on_c, 0, 83, 0
1, 354480, Note_on_c, 0, 79, 63
1, 354480, Note_on_c, 0, 43, 50
1, 354560, Note_on_c, 0, 43, 0
1, 354560, Note_on_c, 0, 79, 0
1, 354560, Note_on_c, 0, 74, 60
1, 354560, Note_on_c, 0, 47, 43
1, 354600, Tempo, 630650
1, 354640, Note_on_c, 0, 47, 0
1, 354640, Note_on_c, 0, 74, 0
1, 354640, Note_on_c, 0, 79, 58
1, 354640, Note_on_c, 0, 50, 43
1, 354720, Tempo, 562430
1, 354720, Note_on_c, 0, 50, 0
1, 354720, Note_on_c, 0, 79, 0
1, 354720, Note_on_c, 0, 86, 51
1, 354720, Note_on_c, 0, 43, 40
1, 354737, Control_c, 0, 64, 0
1, 354800, Note_on_c, 0, 43, 0
1, 354800, Note_on_c, 0, 86, 0
1, 354800, Note_on_c, 0, 90, 40
1, 354800, Note_on_c, 0, 48, 30
1, 354880, Note_on_c, 0, 48, 0
1, 354880, Note_on_c, 0, 90, 0
1, 354880, Note_on_c, 0, 86, 40
1, 354880, Note_on_c, 0, 50, 30
1, 354960, Note_on_c, 0, 50, 0
1, 354960, Note_on_c, 0, 86, 0
1, 354960, Note_on_c, 0, 81, 48
1, 354960, Note_on_c, 0, 57, 34
1, 355040, Note_on_c, 0, 57, 0
1, 355040, Note_on_c, 0, 81, 0
1, 355040, Note_on_c, 0, 78, 39
1, 355040, Note_on_c, 0, 50, 31
1, 355120, Note_on_c, 0, 50, 0
1, 355120, Note_on_c, 0, 78, 0
1, 355120, Note_on_c, 0, 81, 39
1, 355120, Note_on_c, 0, 48, 31
1, 355200, Tempo, 552079
1, 355200, Note_on_c, 0, 48, 0
1, 355200, Note_on_c, 0, 81, 0
1, 355200, Note_on_c, 0, 86, 51
1, 355200, Note_on_c, 0, 43, 35
1, 355280, Note_on_c, 0, 43, 0
1, 355280, Note_on_c, 0, 86, 0
1, 355280, Note_on_c, 0, 91, 42
1, 355280, Note_on_c, 0, 47, 31
1, 355360, Note_on_c, 0, 47, 0
1, 355360, Note_on_c, 0, 91, 0
1, 355360, Note_on_c, 0, 86, 42
1, 355360, Note_on_c, 0, 50, 31
1, 355440, Note_on_c, 0, 50, 0
1, 355440, Note_on_c, 0, 86, 0
1, 355440, Note_on_c, 0, 83, 45
1, 355440, Note_on_c, 0, 55, 34
1, 355520, Note_on_c, 0, 55, 0
1, 355520, Note_on_c, 0, 83, 0
1, 355520, Note_on_c, 0, 79, 41
1, 355520, Note_on_c, 0, 50, 30
1, 355600, Note_on_c, 0, 50, 0
1, 355600, Note_on_c, 0, 79, 0
1, 355600, Note_on_c, 0, 83, 41
1, 355600, Note_on_c, 0, 47, 30
1, 355680, Tempo, 562430
1, 355680, Note_on_c, 0, 47, 0
1, 355680, Note_on_c, 0, 83, 0
1, 355680, Note_on_c, 0, 86, 51
1, 355680, Note_on_c, 0, 43, 40
1, 355760, Note_on_c, 0, 43, 0
1, 355760, Note_on_c, 0, 86, 0
1, 355760, Note_on_c, 0, 90, 40
1, 355760, Note_on_c, 0, 48, 30
1, 355840, Note_on_c, 0, 48, 0
1, 355840, Note_on_c, 0, 90, 0
1, 355840, Note_on_c, 0, 86, 40
1, 355840, Note_on_c, 0, 50, 30
1, 355920, Note_on_c, 0, 50, 0
1, 355920, Note_on_c, 0, 86, 0
1, 355920, Note_on_c, 0, 81, 48
1, 355920, Note_on_c, 0, 57, 34
1, 356000, Note_on_c, 0, 57, 0
1, 356000, Note_on_c, 0, 81, 0
1, 356000, Note_on_c, 0, 78, 39
1, 356000, Note_on_c, 0, 50, 31
1, 356080, Note_on_c, 0, 50, 0
1, 356080, Note_on_c, 0, 78, 0
1, 356080, Note_on_c, 0, 81, 39
1, 356080, Note_on_c, 0, 48, 31
1, 356160, Tempo, 557310
1, 356160, Note_on_c, 0, 48, 0
1, 356160, Note_on_c, 0, 81, 0
1, 356160, Note_on_c, 0, 86, 52
1, 356160, Note_on_c, 0, 43, 39
1, 356240, Note_on_c, 0, 43, 0
1, 356240, Note_on_c, 0, 86, 0
1, 356240, Note_on_c, 0, 91, 39
1, 356240, Note_on_c, 0, 47, 30
1, 356320, Note_on_c, 0, 47, 0
1, 356320, Note_on_c, 0, 91, 0
1, 356320, Note_on_c, 0, 86, 39
1, 356320, Note_on_c, 0, 50, 30
1, 356400, Note_on_c, 0, 50, 0
1, 356400, Note_on_c, 0, 86, 0
1, 356400, Note_on_c, 0, 83, 43
1, 356400, Note_on_c, 0, 55, 34
1, 356480, Note_on_c, 0, 55, 0
1, 356480, Note_on_c, 0, 83, 0
1, 356480, Note_on_c, 0, 79, 41
1, 356480, Note_on_c, 0, 50, 29
1, 356520, Tempo, 637349
1, 356560, Note_on_c, 0, 50, 0
1, 356560, Note_on_c, 0, 79, 0
1, 356560, Note_on_c, 0, 83, 39
1, 356560, Note_on_c, 0, 47, 29
1, 356640, Tempo, 567967
1, 356640, Note_on_c, 0, 47, 0
1, 356640, Note_on_c, 0, 83, 0
1, 356640, Note_on_c, 0, 81, 81
1, 356640, Note_on_c, 0, 43, 65
1, 356651, Control_c, 0, 64, 0
1, 356695, Control_c, 0, 64, 127
1, 356720, Note_on_c, 0, 43, 0
1, 356720, Note_on_c, 0, 81, 0
1, 356720, Note_on_c, 0, 86, 61
1, 356720, Note_on_c, 0, 48, 49
1, 356800, Note_on_c, 0, 48, 0
1, 356800, Note_on_c, 0, 86, 0
1, 356800, Note_on_c, 0, 81, 61
1, 356800, Note_on_c, 0, 50, 49
1, 356880, Note_on_c, 0, 50, 0
1, 356880, Note_on_c, 0, 81, 0
1, 356880, Note_on_c, 0, 78, 69
1, 356880, Note_on_c, 0, 43, 56
1, 356960, Note_on_c, 0, 43, 0
1, 356960, Note_on_c, 0, 78, 0
1, 356960, Note_on_c, 0, 74, 63
1, 356960, Note_on_c, 0, 48, 51
1, 357040, Note_on_c, 0, 48, 0
1, 357040, Note_on_c, 0, 74, 0
1, 357040, Note_on_c, 0, 78, 63
1, 357040, Note_on_c, 0, 50, 51
1, 357120, Tempo, 557310
1, 357120, Note_on_c, 0, 50, 0
1, 357120, Note_on_c, 0, 78, 0
1, 357120, Note_on_c, 0, 83, 82
1, 357120, Note_on_c, 0, 43, 56
1, 357129, Control_c, 0, 64, 0
1, 357155, Control_c, 0, 64, 127
1, 357200, Note_on_c, 0, 43, 0
1, 357200, Note_on_c, 0, 83, 0
1, 357200, Note_on_c, 0, 86, 62
1, 357200, Note_on_c, 0, 47, 51
1, 357280, Note_on_c, 0, 47, 0
1, 357280, Note_on_c, 0, 86, 0
1, 357280, Note_on_c, 0, 83, 62
1, 357280, Note_on_c, 0, 50, 51
1, 357360, Note_on_c, 0, 50, 0
1, 357360, Note_on_c, 0, 83, 0
1, 357360, Note_on_c, 0, 79, 67
1, 357360, Note_on_c, 0, 43, 56
1, 357440, Note_on_c, 0, 43, 0
1, 357440, Note_on_c, 0, 79, 0
1, 357440, Note_on_c, 0, 74, 63
1, 357440, Note_on_c, 0, 47, 49
1, 357520, Note_on_c, 0, 47, 0
1, 357520, Note_on_c, 0, 74, 0
1, 357520, Note_on_c, 0, 79, 66
1, 357520, Note_on_c, 0, 50, 49
1, 357600, Tempo, 567967
1, 357600, Note_on_c, 0, 50, 0
1, 357600, Note_on_c, 0, 79, 0
1, 357600, Note_on_c, 0, 81, 81
1, 357600, Note_on_c, 0, 43, 65
1, 357612, Control_c, 0, 64, 0
1, 357649, Control_c, 0, 64, 127
1, 357680, Note_on_c, 0, 43, 0
1, 357680, Note_on_c, 0, 81, 0
1, 357680, Note_on_c, 0, 86, 61
1, 357680, Note_on_c, 0, 48, 49
1, 357760, Note_on_c, 0, 48, 0
1, 357760, Note_on_c, 0, 86, 0
1, 357760, Note_on_c, 0, 81, 61
1, 357760, Note_on_c, 0, 50, 49
1, 357840, Note_on_c, 0, 50, 0
1, 357840, Note_on_c, 0, 81, 0
1, 357840, Note_on_c, 0, 78, 68
1, 357840, Note_on_c, 0, 43, 56
1, 357920, Note_on_c, 0, 43, 0
1, 357920, Note_on_c, 0, 78, 0
1, 357920, Note_on_c, 0, 74, 63
1, 357920, Note_on_c, 0, 48, 51
1, 358000, Note_on_c, 0, 48, 0
1, 358000, Note_on_c, 0, 74, 0
1, 358000, Note_on_c, 0, 78, 63
1, 358000, Note_on_c, 0, 50, 51
1, 358080, Tempo, 557310
1, 358080, Note_on_c, 0, 50, 0
1, 358080, Note_on_c, 0, 78, 0
1, 358080, Note_on_c, 0, 83, 84
1, 358080, Note_on_c, 0, 43, 63
1, 358088, Control_c, 0, 64, 0
1, 358120, Control_c, 0, 64, 127
1, 358160, Note_on_c, 0, 43, 0
1, 358160, Note_on_c, 0, 83, 0
1, 358160, Note_on_c, 0, 86, 63
1, 358160, Note_on_c, 0, 47, 48
1, 358240, Note_on_c, 0, 47, 0
1, 358240, Note_on_c, 0, 86, 0
1, 358240, Note_on_c, 0, 83, 63
1, 358240, Note_on_c, 0, 50, 48
1, 358320, Note_on_c, 0, 50, 0
1, 358320, Note_on_c, 0, 83, 0
1, 358320, Note_on_c, 0, 79, 69
1, 358320, Note_on_c, 0, 43, 54
1, 358400, Note_on_c, 0, 43, 0
1, 358400, Note_on_c, 0, 79, 0
1, 358400, Note_on_c, 0, 74, 66
1, 358400, Note_on_c, 0, 47, 47
1, 358440, Tempo, 617665
1, 358480, Note_on_c, 0, 47, 0
1, 358480, Note_on_c, 0, 74, 0
1, 358480, Note_on_c, 0, 79, 63
1, 358480, Note_on_c, 0, 50, 47
1, 358560, Tempo, 562430
1, 358560, Note_on_c, 0, 50, 0
1, 358560, Note_on_c, 0, 79, 0
1, 358560, Note_on_c, 0, 86, 51
1, 358560, Note_on_c, 0, 43, 40
1, 358566, Control_c, 0, 64, 0
1, 358640, Note_on_c, 0, 43, 0
1, 358640, Note_on_c, 0, 86, 0
1, 358640, Note_on_c, 0, 90, 40
1, 358640, Note_on_c, 0, 48, 30
1, 358720, Note_on_c, 0, 48, 0
1, 358720, Note_on_c, 0, 90, 0
1, 358720, Note_on_c, 0, 86, 40
1, 358720, Note_on_c, 0, 50, 30
1, 358800, Note_on_c, 0, 50, 0
1, 358800, Note_on_c, 0, 86, 0
1, 358800, Note_on_c, 0, 81, 48
1, 358800, Note_on_c, 0, 57, 34
1, 358880, Note_on_c, 0, 57, 0
1, 358880, Note_on_c, 0, 81, 0
1, 358880, Note_on_c, 0, 78, 39
1, 358880, Note_on_c, 0, 50, 31
1, 358960, Note_on_c, 0, 50, 0
1, 358960, Note_on_c, 0, 78, 0
1, 358960, Note_on_c, 0, 81, 39
1, 358960, Note_on_c, 0, 48, 31
1, 359040, Tempo, 552079
1, 359040, Note_on_c, 0, 48, 0
1, 359040, Note_on_c, 0, 81, 0
1, 359040, Note_on_c, 0, 86, 51
1, 359040, Note_on_c, 0, 43, 35
1, 359120, Note_on_c, 0, 43, 0
1, 359120, Note_on_c, 0, 86, 0
1, 359120, Note_on_c, 0, 91, 42
1, 359120, Note_on_c, 0, 47, 31
1, 359200, Note_on_c, 0, 47, 0
1, 359200, Note_on_c, 0, 91, 0
1, 359200, Note_on_c, 0, 86, 42
1, 359200, Note_on_c, 0, 50, 31
1, 359280, Note_on_c, 0, 50, 0
1, 359280, Note_on_c, 0, 86, 0
1, 359280, Note_on_c, 0, 83, 45
1, 359280, Note_on_c, 0, 55, 34
1, 359360, Note_on_c, 0, 55, 0
1, 359360, Note_on_c, 0, 83, 0
1, 359360, Note_on_c, 0, 79, 41
1, 359360, Note_on_c, 0, 50, 30
1, 359440, Note_on_c, 0, 50, 0
1, 359440, Note_on_c, 0, 79, 0
1, 359440, Note_on_c, 0, 83, 41
1, 359440, Note_on_c, 0, 47, 30
1, 359520, Tempo, 567967
1, 359520, Note_on_c, 0, 47, 0
1, 359520, Note_on_c, 0, 83, 0
1, 359520, Note_on_c, 0, 86, 51
1, 359520, Note_on_c, 0, 43, 40
1, 359600, Note_on_c, 0, 43, 0
1, 359600, Note_on_c, 0, 86, 0
1, 359600, Note_on_c, 0, 90, 40
1, 359600, Note_on_c, 0, 48, 30
1, 359680, Note_on_c, 0, 48, 0
1, 359680, Note_on_c, 0, 90, 0
1, 359680, Note_on_c, 0, 86, 40
1, 359680, Note_on_c, 0, 50, 30
1, 359760, Note_on_c, 0, 50, 0
1, 359760, Note_on_c, 0, 86, 0
1, 359760, Note_on_c, 0, 81, 48
1, 359760, Note_on_c, 0, 57, 34
1, 359840, Note_on_c, 0, 57, 0
1, 359840, Note_on_c, 0, 81, 0
1, 359840, Note_on_c, 0, 78, 39
1, 359840, Note_on_c, 0, 50, 31
1, 359920, Note_on_c, 0, 50, 0
1, 359920, Note_on_c, 0, 78, 0
1, 359920, Note_on_c, 0, 81, 39
1, 359920, Note_on_c, 0, 48, 31
1, 360000, Tempo, 557310
1, 360000, Note_on_c, 0, 48, 0
1, 360000, Note_on_c, 0, 81, 0
1, 360000, Note_on_c, 0, 86, 57
1, 360000, Note_on_c, 0, 43, 43
1, 360014, Control_c, 0, 64, 0
1, 360035, Control_c, 0, 64, 127
1, 360080, Note_on_c, 0, 43, 0
1, 360080, Note_on_c, 0, 86, 0
1, 360080, Note_on_c, 0, 91, 42
1, 360080, Note_on_c, 0, 47, 33
1, 360160, Note_on_c, 0, 47, 0
1, 360160, Note_on_c, 0, 91, 0
1, 360160, Note_on_c, 0, 86, 44
1, 360160, Note_on_c, 0, 50, 34
1, 360240, Note_on_c, 0, 50, 0
1, 360240, Note_on_c, 0, 86, 0
1, 360240, Note_on_c, 0, 83, 49
1, 360240, Note_on_c, 0, 55, 39
1, 360320, Note_on_c, 0, 55, 0
1, 360320, Note_on_c, 0, 83, 0
1, 360320, Note_on_c, 0, 79, 48
1, 360320, Note_on_c, 0, 50, 34
1, 360400, Note_on_c, 0, 50, 0
1, 360400, Note_on_c, 0, 79, 0
1, 360400, Note_on_c, 0, 83, 47
1, 360400, Note_on_c, 0, 47, 35
1, 360480, Tempo, 567967
1, 360480, Note_on_c, 0, 47, 0
1, 360480, Note_on_c, 0, 83, 0
1, 360480, Note_on_c, 0, 86, 63
1, 360480, Note_on_c, 0, 43, 50
1, 360495, Control_c, 0, 64, 0
1, 360535, Control_c, 0, 64, 127
1, 360560, Note_on_c, 0, 43, 0
1, 360560, Note_on_c, 0, 86, 0
1, 360560, Note_on_c, 0, 90, 50
1, 360560, Note_on_c, 0, 48, 38
1, 360640, Note_on_c, 0, 48, 0
1, 360640, Note_on_c, 0, 90, 0
1, 360640, Note_on_c, 0, 86, 51
1, 360640, Note_on_c, 0, 50, 39
1, 360720, Note_on_c, 0, 50, 0
1, 360720, Note_on_c, 0, 86, 0
1, 360720, Note_on_c, 0, 81, 63
1, 360720, Note_on_c, 0, 57, 45
1, 360800, Note_on_c, 0, 57, 0
1, 360800, Note_on_c, 0, 81, 0
1, 360800, Note_on_c, 0, 78, 52
1, 360800, Note_on_c, 0, 50, 42
1, 360880, Note_on_c, 0, 50, 0
1, 360880, Note_on_c, 0, 78, 0
1, 360880, Note_on_c, 0, 81, 53
1, 360880, Note_on_c, 0, 48, 43
1, 360960, Tempo, 557310
1, 360960, Note_on_c, 0, 48, 0
1, 360960, Note_on_c, 0, 81, 0
1, 360960, Note_on_c, 0, 86, 72
1, 360960, Note_on_c, 0, 43, 50
1, 360978, Control_c, 0, 64, 0
1, 360992, Control_c, 0, 64, 127
1, 361040, Note_on_c, 0, 43, 0
1, 361040, Note_on_c, 0, 86, 0
1, 361040, Note_on_c, 0, 91, 60
1, 361040, Note_on_c, 0, 47, 44
1, 361120, Note_on_c, 0, 47, 0
1, 361120, Note_on_c, 0, 91, 0
1, 361120, Note_on_c, 0, 86, 62
1, 361120, Note_on_c, 0, 50, 45
1, 361200, Note_on_c, 0, 50, 0
1, 361200, Note_on_c, 0, 86, 0
1, 361200, Note_on_c, 0, 83, 67
1, 361200, Note_on_c, 0, 55, 51
1, 361280, Note_on_c, 0, 55, 0
1, 361280, Note_on_c, 0, 83, 0
1, 361280, Note_on_c, 0, 79, 62
1, 361280, Note_on_c, 0, 50, 45
1, 361360, Note_on_c, 0, 50, 0
1, 361360, Note_on_c, 0, 79, 0
1, 361360, Note_on_c, 0, 83, 64
1, 361360, Note_on_c, 0, 47, 47
1, 361440, Tempo, 567967
1, 361440, Note_on_c, 0, 47, 0
1, 361440, Note_on_c, 0, 83, 0
1, 361440, Note_on_c, 0, 86, 80
1, 361440, Note_on_c, 0, 43, 64
1, 361455, Control_c, 0, 64, 0
1, 361495, Control_c, 0, 64, 127
1, 361520, Note_on_c, 0, 43, 0
1, 361520, Note_on_c, 0, 86, 0
1, 361520, Note_on_c, 0, 90, 64
1, 361520, Note_on_c, 0, 48, 49
1, 361600, Note_on_c, 0, 48, 0
1, 361600, Note_on_c, 0, 90, 0
1, 361600, Note_on_c, 0, 86, 66
1, 361600, Note_on_c, 0, 50, 50
1, 361680, Note_on_c, 0, 50, 0
1, 361680, Note_on_c, 0, 86, 0
1, 361680, Note_on_c, 0, 81, 80
1, 361680, Note_on_c, 0, 57, 57
1, 361760, Note_on_c, 0, 57, 0
1, 361760, Note_on_c, 0, 81, 0
1, 361760, Note_on_c, 0, 78, 66
1, 361760, Note_on_c, 0, 50, 53
1, 361840, Note_on_c, 0, 50, 0
1, 361840, Note_on_c, 0, 78, 0
1, 361840, Note_on_c, 0, 81, 67
1, 361840, Note_on_c, 0, 48, 54
1, 361920, Tempo, 604595
1, 361920, Note_on_c, 0, 48, 0
1, 361920, Note_on_c, 0, 81, 0
1, 361920, Note_on_c, 0, 91, 104
1, 361920, Note_on_c, 0, 79, 98
1, 361920, Note_on_c, 0, 43, 68
1, 361920, Note_on_c, 0, 47, 68
1, 361920, Note_on_c, 0, 50, 68
1, 361920, Note_on_c, 0, 55, 80
1, 361934, Control_c, 0, 64, 0
1, 362061, Control_c, 0, 64, 127
1, 362160, Note_on_c, 0, 55, 0
1, 362160, Note_on_c, 0, 79, 0
1, 362160, Note_on_c, 0, 43, 0
1, 362160, Note_on_c, 0, 91, 0
1, 362160, Note_on_c, 0, 50, 0
1, 362160, Note_on_c, 0, 47, 0
1, 362400, Tempo, 620476
1, 362400, Note_on_c, 0, 67, 81
1, 362400, Note_on_c, 0, 71, 81
1, 362400, Note_on_c, 0, 74, 81
1, 362400, Note_on_c, 0, 79, 96
1, 362640, Note_on_c, 0, 79, 0
1, 362640, Note_on_c, 0, 67, 0
1, 362640, Note_on_c, 0, 71, 0
1, 362640, Note_on_c, 0, 74, 0
1, 362880, Tempo, 601564
1, 362880, Note_on_c, 0, 67, 81
1, 362880, Note_on_c, 0, 71, 81
1, 362880, Note_on_c, 0, 74, 81
1, 362880, Note_on_c, 0, 79, 96
1, 363360, Note_on_c, 0, 43, 78
1, 363360, Note_on_c, 0, 47, 78
1, 363360, Note_on_c, 0, 50, 78
1, 363360, Note_on_c, 0, 55, 92
1, 363600, Note_on_c, 0, 55, 0
1, 363600, Note_on_c, 0, 50, 0
1, 363600, Note_on_c, 0, 43, 0
1, 363600, Note_on_c, 0, 47, 0
1, 363840, Note_on_c, 0, 74, 0
1, 363840, Note_on_c, 0, 79, 0
1, 363840, Note_on_c, 0, 71, 0
1, 363840, Note_on_c, 0, 67, 0
1, 363840, Note_on_c, 0, 31, 85
1, 363840, Note_on_c, 0, 43, 101
1, 364080, Note_on_c, 0, 43, 0
1, 364080, Note_on_c, 0, 31, 0
1, 364320, Tempo, 614062
1, 364320, Note_on_c, 0, 71, 81
1, 364320, Note_on_c, 0, 74, 81
1, 364320, Note_on_c, 0, 79, 81
1, 364320, Note_on_c, 0, 83, 96
1, 364560, Note_on_c, 0, 83, 0
1, 364560, Note_on_c, 0, 71, 0
1, 364560, Note_on_c, 0, 74, 0
1, 364560, Note_on_c, 0, 79, 0
1, 364800, Tempo, 604595
1, 364800, Note_on_c, 0, 71, 81
1, 364800, Note_on_c, 0, 74, 81
1, 364800, Note_on_c, 0, 79, 81
1, 364800, Note_on_c, 0, 83, 96
1, 365294, Note_on_c, 0, 43, 78
1, 365294, Note_on_c, 0, 47, 78
1, 365294, Note_on_c, 0, 50, 78
1, 365294, Note_on_c, 0, 55, 92
1, 365534, Note_on_c, 0, 55, 0
1, 365534, Note_on_c, 0, 50, 0
1, 365534, Note_on_c, 0, 43, 0
1, 365534, Note_on_c, 0, 47, 0
1, 365760, Note_on_c, 0, 79, 0
1, 365760, Note_on_c, 0, 83, 0
1, 365760, Note_on_c, 0, 74, 0
1, 365760, Note_on_c, 0, 71, 0
1, 365774, Note_on_c, 0, 31, 85
1, 365774, Note_on_c, 0, 43, 101
1, 366014, Note_on_c, 0, 43, 0
1, 366014, Note_on_c, 0, 31, 0
1, 366240, Tempo, 620476
1, 366240, Note_on_c, 0, 74, 81
1, 366240, Note_on_c, 0, 77, 81
1, 366240, Note_on_c, 0, 83, 81
1, 366240, Note_on_c, 0, 86, 96
1, 366480, Note_on_c, 0, 86, 0
1, 366480, Note_on_c, 0, 74, 0
1, 366480, Note_on_c, 0, 77, 0
1, 366480, Note_on_c, 0, 83, 0
1, 366720, Tempo, 607718
1, 366720, Note_on_c, 0, 74, 81
1, 366720, Note_on_c, 0, 77, 81
1, 366720, Note_on_c, 0, 83, 81
1, 366720, Note_on_c, 0, 86, 96
1, 367214, Note_on_c, 0, 43, 78
1, 367214, Note_on_c, 0, 47, 78
1, 367214, Note_on_c, 0, 50, 78
1, 367214, Note_on_c, 0, 55, 92
1, 367454, Note_on_c, 0, 55, 0
1, 367454, Note_on_c, 0, 50, 0
1, 367454, Note_on_c, 0, 43, 0
1, 367454, Note_on_c, 0, 47, 0
1, 367680, Note_on_c, 0, 83, 0
1, 367680, Note_on_c, 0, 86, 0
1, 367680, Note_on_c, 0, 77, 0
1, 367680, Note_on_c, 0, 74, 0
1, 367694, Note_on_c, 0, 31, 85
1, 367694, Note_on_c, 0, 43, 101
1, 367934, Note_on_c, 0, 43, 0
1, 367934, Note_on_c, 0, 31, 0
1, 368160, Tempo, 640547
1, 368160, Note_on_c, 0, 77, 81
1, 368160, Note_on_c, 0, 83, 81
1, 368160, Note_on_c, 0, 86, 81
1, 368160, Note_on_c, 0, 89, 96
1, 368400, Note_on_c, 0, 89, 0
1, 368400, Note_on_c, 0, 77, 0
1, 368400, Note_on_c, 0, 83, 0
1, 368400, Note_on_c, 0, 86, 0
1, 368640, Tempo, 617220
1, 368640, Note_on_c, 0, 77, 81
1, 368640, Note_on_c, 0, 83, 81
1, 368640, Note_on_c, 0, 86, 81
1, 368640, Note_on_c, 0, 89, 96
1, 369134, Note_on_c, 0, 43, 78
1, 369134, Note_on_c, 0, 47, 78
1, 369134, Note_on_c, 0, 50, 78
1, 369134, Note_on_c, 0, 55, 92
1, 369374, Note_on_c, 0, 55, 0
1, 369374, Note_on_c, 0, 50, 0
1, 369374, Note_on_c, 0, 43, 0
1, 369374, Note_on_c, 0, 47, 0
1, 369600, Tempo, 626305
1, 369600, Note_on_c, 0, 86, 0
1, 369600, Note_on_c, 0, 89, 0
1, 369600, Note_on_c, 0, 83, 0
1, 369600, Note_on_c, 0, 77, 0
1, 369614, Note_on_c, 0, 31, 76
1, 369614, Note_on_c, 0, 43, 90
1, 369854, Note_on_c, 0, 43, 0
1, 369854, Note_on_c, 0, 31, 0
1, 370080, Tempo, 610811
1, 370080, Note_on_c, 0, 83, 69
1, 370080, Note_on_c, 0, 86, 69
1, 370080, Note_on_c, 0, 89, 69
1, 370080, Note_on_c, 0, 92, 81
1, 370320, Note_on_c, 0, 92, 0
1, 370320, Note_on_c, 0, 83, 0
1, 370320, Note_on_c, 0, 86, 0
1, 370320, Note_on_c, 0, 89, 0
1, 370560, Tempo, 613936
1, 370560, Note_on_c, 0, 65, 64
1, 370560, Note_on_c, 0, 62, 54
1, 370560, Note_on_c, 0, 59, 54
1, 370560, Note_on_c, 0, 55, 54
1, 370800, Note_on_c, 0, 55, 0
1, 370800, Note_on_c, 0, 65, 0
1, 370800, Note_on_c, 0, 62, 0
1, 370800, Note_on_c, 0, 59, 0
1, 371040, Tempo, 610811
1, 371040, Note_on_c, 0, 80, 60
1, 371040, Note_on_c, 0, 83, 60
1, 371040, Note_on_c, 0, 86, 60
1, 371040, Note_on_c, 0, 89, 70
1, 371280, Note_on_c, 0, 89, 0
1, 371280, Note_on_c, 0, 80, 0
1, 371280, Note_on_c, 0, 83, 0
1, 371280, Note_on_c, 0, 86, 0
1, 371520, Tempo, 620027
1, 371520, Note_on_c, 0, 65, 58
1, 371520, Note_on_c, 0, 62, 49
1, 371520, Note_on_c, 0, 59, 49
1, 371520, Note_on_c, 0, 55, 49
1, 371760, Note_on_c, 0, 55, 0
1, 371760, Note_on_c, 0, 65, 0
1, 371760, Note_on_c, 0, 62, 0
1, 371760, Note_on_c, 0, 59, 0
1, 372000, Tempo, 610811
1, 372000, Note_on_c, 0, 86, 67
1, 372000, Note_on_c, 0, 83, 57
1, 372000, Note_on_c, 0, 80, 57
1, 372000, Note_on_c, 0, 77, 57
1, 372240, Note_on_c, 0, 77, 0
1, 372240, Note_on_c, 0, 86, 0
1, 372240, Note_on_c, 0, 83, 0
1, 372240, Note_on_c, 0, 80, 0
1, 372480, Tempo, 620027
1, 372480, Note_on_c, 0, 65, 51
1, 372480, Note_on_c, 0, 62, 43
1, 372480, Note_on_c, 0, 59, 43
1, 372480, Note_on_c, 0, 55, 43
1, 372720, Note_on_c, 0, 55, 0
1, 372720, Note_on_c, 0, 65, 0
1, 372720, Note_on_c, 0, 62, 0
1, 372720, Note_on_c, 0, 59, 0
1, 372960, Tempo, 610811
1, 372960, Note_on_c, 0, 83, 60
1, 372960, Note_on_c, 0, 80, 50
1, 372960, Note_on_c, 0, 77, 50
1, 372960, Note_on_c, 0, 74, 50
1, 373200, Note_on_c, 0, 74, 0
1, 373200, Note_on_c, 0, 83, 0
1, 373200, Note_on_c, 0, 80, 0
1, 373200, Note_on_c, 0, 77, 0
1, 373440, Note_on_c, 0, 55, 40
1, 373440, Note_on_c, 0, 59, 40
1, 373440, Note_on_c, 0, 62, 40
1, 373440, Note_on_c, 0, 65, 48
1, 373680, Note_on_c, 0, 65, 0
1, 373680, Note_on_c, 0, 55, 0
1, 373680, Note_on_c, 0, 59, 0
1, 373680, Note_on_c, 0, 62, 0
1, 373920, Note_on_c, 0, 71, 41
1, 373920, Note_on_c, 0, 74, 41
1, 373920, Note_on_c, 0, 77, 41
1, 373920, Note_on_c, 0, 80, 49
1, 374160, Note_on_c, 0, 80, 0
1, 374160, Note_on_c, 0, 71, 0
1, 374160, Note_on_c, 0, 74, 0
1, 374160, Note_on_c, 0, 77, 0
1, 374400, Note_on_c, 0, 43, 32
1, 374400, Note_on_c, 0, 47, 32
1, 374400, Note_on_c, 0, 50, 32
1, 374400, Note_on_c, 0, 53, 38
1, 374640, Note_on_c, 0, 53, 0
1, 374640, Note_on_c, 0, 43, 0
1, 374640, Note_on_c, 0, 47, 0
1, 374640, Note_on_c, 0, 50, 0
1, 374880, Note_on_c, 0, 68, 39
1, 374880, Note_on_c, 0, 71, 39
1, 374880, Note_on_c, 0, 77, 46
1, 374880, Note_on_c, 0, 74, 39
1, 375120, Note_on_c, 0, 74, 0
1, 375120, Note_on_c, 0, 68, 0
1, 375120, Note_on_c, 0, 71, 0
1, 375120, Note_on_c, 0, 77, 0
1, 375360, Tempo, 605083
1, 375360, Note_on_c, 0, 43, 30
1, 375360, Note_on_c, 0, 47, 30
1, 375360, Note_on_c, 0, 50, 30
1, 375360, Note_on_c, 0, 53, 36
1, 375480, Tempo, 608149
1, 375600, Tempo, 611247
1, 375600, Note_on_c, 0, 53, 0
1, 375600, Note_on_c, 0, 43, 0
1, 375600, Note_on_c, 0, 47, 0
1, 375600, Note_on_c, 0, 50, 0
1, 375680, Tempo, 614376
1, 375800, Tempo, 617538
1, 375840, Note_on_c, 0, 65, 36
1, 375840, Note_on_c, 0, 68, 36
1, 375840, Note_on_c, 0, 71, 36
1, 375840, Note_on_c, 0, 74, 44
1, 375920, Tempo, 620797
1, 376000, Tempo, 623960
1, 376080, Note_on_c, 0, 74, 0
1, 376080, Note_on_c, 0, 65, 0
1, 376080, Note_on_c, 0, 68, 0
1, 376080, Note_on_c, 0, 71, 0
1, 376120, Tempo, 627287
1, 376240, Tempo, 630517
1, 376320, Tempo, 633914
1, 376320, Note_on_c, 0, 43, 28
1, 376320, Note_on_c, 0, 47, 28
1, 376320, Note_on_c, 0, 50, 28
1, 376320, Note_on_c, 0, 53, 34
1, 376400, Tempo, 637281
1, 376560, Note_on_c, 0, 53, 0
1, 376560, Note_on_c, 0, 43, 0
1, 376560, Note_on_c, 0, 47, 0
1, 376560, Note_on_c, 0, 50, 0
1, 376800, Note_on_c, 0, 62, 34
1, 376800, Note_on_c, 0, 65, 34
1, 376800, Note_on_c, 0, 68, 34
1, 376800, Note_on_c, 0, 71, 41
1, 377040, Note_on_c, 0, 71, 0
1, 377040, Note_on_c, 0, 62, 0
1, 377040, Note_on_c, 0, 65, 0
1, 377040, Note_on_c, 0, 68, 0
1, 377280, Note_on_c, 0, 43, 21
1, 377280, Note_on_c, 0, 47, 21
1, 377280, Note_on_c, 0, 50, 21
1, 377280, Note_on_c, 0, 53, 25
1, 377520, Note_on_c, 0, 53, 0
1, 377520, Note_on_c, 0, 43, 0
1, 377520, Note_on_c, 0, 47, 0
1, 377520, Note_on_c, 0, 50, 0
1, 377760, Note_on_c, 0, 59, 26
1, 377760, Note_on_c, 0, 62, 26
1, 377760, Note_on_c, 0, 65, 26
1, 377760, Note_on_c, 0, 68, 32
1, 378000, Note_on_c, 0, 68, 0
1, 378000, Note_on_c, 0, 59, 0
1, 378000, Note_on_c, 0, 62, 0
1, 378000, Note_on_c, 0, 65, 0
1, 378774, Control_c, 0, 64, 0
1, 379200, Tempo, 637281
1, 379200, Note_on_c, 0, 43, 21
1, 379200, Note_on_c, 0, 46, 21
1, 379200, Note_on_c, 0, 49, 21
1, 379200, Note_on_c, 0, 52, 25
1, 379460, Control_c, 0, 64, 127
1, 379680, Note_on_c, 0, 52, 0
1, 379680, Note_on_c, 0, 43, 0
1, 379680, Note_on_c, 0, 46, 0
1, 379680, Note_on_c, 0, 49, 0
1, 379680, Note_on_c, 0, 58, 26
1, 379680, Note_on_c, 0, 61, 26
1, 379680, Note_on_c, 0, 64, 26
1, 379680, Note_on_c, 0, 67, 32
1, 380160, Note_on_c, 0, 67, 0
1, 380160, Note_on_c, 0, 58, 0
1, 380160, Note_on_c, 0, 61, 0
1, 380160, Note_on_c, 0, 64, 0
1, 380640, Control_c, 0, 64, 0
1, 381080, Tempo, 630517
1, 381120, Tempo, 640683
1, 381120, Note_on_c, 0, 43, 21
1, 381120, Note_on_c, 0, 45, 21
1, 381120, Note_on_c, 0, 48, 21
1, 381120, Note_on_c, 0, 51, 25
1, 381240, Tempo, 644122
1, 381341, Control_c, 0, 64, 127
1, 381360, Tempo, 647598
1, 381480, Tempo, 651183
1, 381600, Tempo, 654664
1, 381600, Note_on_c, 0, 51, 0
1, 381600, Note_on_c, 0, 43, 0
1, 381600, Note_on_c, 0, 45, 0
1, 381600, Note_on_c, 0, 48, 0
1, 381600, Note_on_c, 0, 57, 26
1, 381600, Note_on_c, 0, 60, 26
1, 381600, Note_on_c, 0, 63, 26
1, 381600, Note_on_c, 0, 66, 32
1, 381720, Tempo, 658328
1, 381800, Tempo, 661886
1, 381920, Tempo, 665631
1, 382040, Tempo, 669269
1, 382080, Note_on_c, 0, 66, 0
1, 382080, Note_on_c, 0, 57, 0
1, 382080, Note_on_c, 0, 60, 0
1, 382080, Note_on_c, 0, 63, 0
1, 382160, Tempo, 673098
1, 382280, Tempo, 676895
1, 382400, Tempo, 680735
1, 382480, Tempo, 684619
1, 382534, Control_c, 0, 64, 0
1, 382600, Tempo, 688547
1, 382720, Tempo, 692521
1, 382840, Tempo, 696541
1, 382960, Tempo, 700607
1, 383040, Tempo, 735024
1, 383040, Note_on_c, 0, 43, 25
1, 383196, Control_c, 0, 64, 127
1, 383280, Note_on_c, 0, 43, 0
1, 383520, Note_on_c, 0, 59, 22
1, 383520, Note_on_c, 0, 62, 22
1, 383520, Note_on_c, 0, 65, 27
1, 384000, Tempo, 717446
1, 384000, Note_on_c, 0, 79, 30
1, 384240, Note_on_c, 0, 79, 0
1, 384480, Tempo, 777907
1, 384480, Note_on_c, 0, 55, 27
1, 384720, Note_on_c, 0, 55, 0
1, 384960, Tempo, 921659
1, 384960, Note_on_c, 0, 43, 25
1, 385200, Note_on_c, 0, 43, 0
1, 385440, Tempo, 4995837
1, 385440, Note_on_c, 0, 31, 25
1, 385680, Tempo, 967118
1, 385920, Time_signature, 4, 3, 12, 8
1, 385920, Tempo, 541956
1, 385920, Marker_t, "Prestissimo"
1, 385920, Note_on_c, 0, 31, 0
1, 385920, Note_on_c, 0, 65, 0
1, 385920, Note_on_c, 0, 62, 0
1, 385920, Note_on_c, 0, 59, 0
1, 385920, Note_on_c, 0, 60, 85
1, 385920, Note_on_c, 0, 36, 72
1, 385920, Note_on_c, 0, 48, 75
1, 385920, Control_c, 0, 64, 0
1, 386090, Control_c, 0, 64, 127
1, 386160, Tempo, 418323
1, 386160, Note_on_c, 0, 48, 0
1, 386160, Note_on_c, 0, 36, 0
1, 386160, Note_on_c, 0, 60, 0
1, 386160, Note_on_c, 0, 91, 50
1, 386160, Note_on_c, 0, 64, 41
1, 386280, Note_on_c, 0, 64, 0
1, 386280, Note_on_c, 0, 91, 0
1, 386280, Note_on_c, 0, 67, 34
1, 386400, Tempo, 387322
1, 386400, Note_on_c, 0, 67, 0
1, 386400, Note_on_c, 0, 91, 53
1, 386400, Note_on_c, 0, 64, 41
1, 386520, Note_on_c, 0, 64, 0
1, 386520, Note_on_c, 0, 67, 34
1, 386640, Note_on_c, 0, 67, 0
1, 386640, Note_on_c, 0, 64, 41
1, 386760, Note_on_c, 0, 64, 0
1, 386760, Note_on_c, 0, 91, 0
1, 386760, Note_on_c, 0, 88, 50
1, 386760, Note_on_c, 0, 67, 33
1, 386880, Tempo, 391032
1, 386880, Note_on_c, 0, 67, 0
1, 386880, Note_on_c, 0, 88, 0
1, 386880, Note_on_c, 0, 86, 54
1, 386880, Note_on_c, 0, 65, 41
1, 387000, Note_on_c, 0, 65, 0
1, 387000, Note_on_c, 0, 67, 34
1, 387120, Tempo, 383411
1, 387120, Note_on_c, 0, 67, 0
1, 387120, Note_on_c, 0, 86, 0
1, 387120, Note_on_c, 0, 79, 50
1, 387120, Note_on_c, 0, 65, 41
1, 387240, Note_on_c, 0, 65, 0
1, 387240, Note_on_c, 0, 67, 35
1, 387360, Tempo, 396144
1, 387360, Note_on_c, 0, 67, 0
1, 387360, Note_on_c, 0, 79, 0
1, 387360, Note_on_c, 0, 84, 50
1, 387360, Note_on_c, 0, 64, 41
1, 387480, Note_on_c, 0, 64, 0
1, 387480, Note_on_c, 0, 67, 34
1, 387600, Note_on_c, 0, 67, 0
1, 387600, Note_on_c, 0, 84, 0
1, 387600, Note_on_c, 0, 88, 49
1, 387600, Note_on_c, 0, 64, 41
1, 387720, Note_on_c, 0, 64, 0
1, 387720, Note_on_c, 0, 67, 35
1, 387840, Tempo, 410593
1, 387840, Note_on_c, 0, 67, 0
1, 387840, Note_on_c, 0, 88, 0
1, 387840, Note_on_c, 0, 64, 41
1, 387960, Note_on_c, 0, 64, 0
1, 387960, Note_on_c, 0, 67, 34
1, 388080, Tempo, 396144
1, 388080, Note_on_c, 0, 67, 0
1, 388080, Note_on_c, 0, 91, 50
1, 388080, Note_on_c, 0, 64, 41
1, 388200, Note_on_c, 0, 64, 0
1, 388200, Note_on_c, 0, 91, 0
1, 388200, Note_on_c, 0, 67, 34
1, 388320, Tempo, 384911
1, 388320, Note_on_c, 0, 67, 0
1, 388320, Note_on_c, 0, 91, 53
1, 388320, Note_on_c, 0, 64, 41
1, 388440, Note_on_c, 0, 64, 0
1, 388440, Note_on_c, 0, 67, 34
1, 388560, Note_on_c, 0, 67, 0
1, 388560, Note_on_c, 0, 64, 41
1, 388680, Note_on_c, 0, 64, 0
1, 388680, Note_on_c, 0, 91, 0
1, 388680, Note_on_c, 0, 88, 50
1, 388680, Note_on_c, 0, 67, 33
1, 388800, Tempo, 391032
1, 388800, Note_on_c, 0, 67, 0
1, 388800, Note_on_c, 0, 88, 0
1, 388800, Note_on_c, 0, 86, 54
1, 388800, Note_on_c, 0, 65, 41
1, 388920, Note_on_c, 0, 65, 0
1, 388920, Note_on_c, 0, 67, 34
1, 389040, Tempo, 383411
1, 389040, Note_on_c, 0, 67, 0
1, 389040, Note_on_c, 0, 86, 0
1, 389040, Note_on_c, 0, 79, 50
1, 389040, Note_on_c, 0, 65, 41
1, 389160, Note_on_c, 0, 65, 0
1, 389160, Note_on_c, 0, 67, 35
1, 389280, Tempo, 396144
1, 389280, Note_on_c, 0, 67, 0
1, 389280, Note_on_c, 0, 79, 0
1, 389280, Note_on_c, 0, 84, 50
1, 389280, Note_on_c, 0, 64, 41
1, 389400, Note_on_c, 0, 64, 0
1, 389400, Note_on_c, 0, 67, 34
1, 389520, Note_on_c, 0, 67, 0
1, 389520, Note_on_c, 0, 84, 0
1, 389520, Note_on_c, 0, 64, 41
1, 389640, Note_on_c, 0, 64, 0
1, 389640, Note_on_c, 0, 67, 35
1, 389760, Tempo, 377572
1, 389760, Note_on_c, 0, 67, 0
1, 389760, Note_on_c, 0, 91, 50
1, 389760, Note_on_c, 0, 60, 41
1, 389760, Note_on_c, 0, 64, 41
1, 389768, Control_c, 0, 64, 0
1, 389835, Control_c, 0, 64, 127
1, 389880, Note_on_c, 0, 64, 0
1, 389880, Note_on_c, 0, 91, 0
1, 389880, Note_on_c, 0, 90, 47
1, 389880, Note_on_c, 0, 67, 34
1, 390000, Note_on_c, 0, 67, 0
1, 390000, Note_on_c, 0, 90, 0
1, 390000, Note_on_c, 0, 60, 0
1, 390000, Note_on_c, 0, 91, 50
1, 390000, Note_on_c, 0, 60, 41
1, 390000, Note_on_c, 0, 64, 41
1, 390120, Note_on_c, 0, 64, 0
1, 390120, Note_on_c, 0, 91, 0
1, 390120, Note_on_c, 0, 90, 46
1, 390120, Note_on_c, 0, 67, 34
1, 390240, Note_on_c, 0, 67, 0
1, 390240, Note_on_c, 0, 90, 0
1, 390240, Note_on_c, 0, 60, 0
1, 390240, Note_on_c, 0, 91, 50
1, 390240, Note_on_c, 0, 60, 41
1, 390240, Note_on_c, 0, 64, 41
1, 390360, Note_on_c, 0, 64, 0
1, 390360, Note_on_c, 0, 91, 0
1, 390360, Note_on_c, 0, 90, 47
1, 390360, Note_on_c, 0, 67, 34
1, 390480, Tempo, 376176
1, 390480, Note_on_c, 0, 67, 0
1, 390480, Note_on_c, 0, 90, 0
1, 390480, Note_on_c, 0, 60, 0
1, 390480, Note_on_c, 0, 91, 50
1, 390480, Note_on_c, 0, 60, 41
1, 390480, Note_on_c, 0, 64, 41
1, 390520, Tempo, 377572
1, 390540, Tempo, 378907
1, 390560, Tempo, 380300
1, 390580, Tempo, 381655
1, 390600, Tempo, 383093
1, 390600, Note_on_c, 0, 64, 0
1, 390600, Note_on_c, 0, 91, 0
1, 390600, Note_on_c, 0, 88, 47
1, 390600, Note_on_c, 0, 67, 33
1, 390720, Note_on_c, 0, 67, 0
1, 390720, Note_on_c, 0, 88, 0
1, 390720, Note_on_c, 0, 60, 0
1, 390720, Note_on_c, 0, 86, 48
1, 390720, Note_on_c, 0, 60, 38
1, 390720, Note_on_c, 0, 65, 38
1, 390727, Control_c, 0, 64, 0
1, 390800, Control_c, 0, 64, 127
1, 390840, Note_on_c, 0, 65, 0
1, 390840, Note_on_c, 0, 86, 0
1, 390840, Note_on_c, 0, 85, 43
1, 390840, Note_on_c, 0, 67, 32
1, 390960, Note_on_c, 0, 67, 0
1, 390960, Note_on_c, 0, 85, 0
1, 390960, Note_on_c, 0, 60, 0
1, 390960, Note_on_c, 0, 86, 48
1, 390960, Note_on_c, 0, 60, 38
1, 390960, Note_on_c, 0, 65, 38
1, 391080, Note_on_c, 0, 65, 0
1, 391080, Note_on_c, 0, 86, 0
1, 391080, Note_on_c, 0, 79, 45
1, 391080, Note_on_c, 0, 67, 33
1, 391200, Tempo, 388777
1, 391200, Note_on_c, 0, 67, 0
1, 391200, Note_on_c, 0, 79, 0
1, 391200, Note_on_c, 0, 60, 0
1, 391200, Note_on_c, 0, 84, 48
1, 391200, Note_on_c, 0, 60, 38
1, 391200, Note_on_c, 0, 64, 38
1, 391320, Note_on_c, 0, 64, 0
1, 391320, Note_on_c, 0, 84, 0
1, 391320, Note_on_c, 0, 83, 44
1, 391320, Note_on_c, 0, 67, 32
1, 391440, Note_on_c, 0, 67, 0
1, 391440, Note_on_c, 0, 83, 0
1, 391440, Note_on_c, 0, 60, 0
1, 391440, Note_on_c, 0, 84, 50
1, 391440, Note_on_c, 0, 60, 38
1, 391440, Note_on_c, 0, 64, 38
1, 391560, Note_on_c, 0, 64, 0
1, 391560, Note_on_c, 0, 84, 0
1, 391560, Note_on_c, 0, 88, 46
1, 391560, Note_on_c, 0, 67, 33
1, 391620, Tempo, 413365
1, 391680, Tempo, 377572
1, 391680, Note_on_c, 0, 67, 0
1, 391680, Note_on_c, 0, 88, 0
1, 391680, Note_on_c, 0, 60, 0
1, 391680, Note_on_c, 0, 91, 50
1, 391680, Note_on_c, 0, 60, 41
1, 391680, Note_on_c, 0, 64, 41
1, 391689, Control_c, 0, 64, 0
1, 391743, Control_c, 0, 64, 127
1, 391800, Note_on_c, 0, 64, 0
1, 391800, Note_on_c, 0, 91, 0
1, 391800, Note_on_c, 0, 90, 46
1, 391800, Note_on_c, 0, 67, 34
1, 391920, Note_on_c, 0, 67, 0
1, 391920, Note_on_c, 0, 90, 0
1, 391920, Note_on_c, 0, 60, 0
1, 391920, Note_on_c, 0, 91, 50
1, 391920, Note_on_c, 0, 60, 41
1, 391920, Note_on_c, 0, 64, 41
1, 392040, Note_on_c, 0, 64, 0
1, 392040, Note_on_c, 0, 91, 0
1, 392040, Note_on_c, 0, 90, 47
1, 392040, Note_on_c, 0, 67, 34
1, 392160, Note_on_c, 0, 67, 0
1, 392160, Note_on_c, 0, 90, 0
1, 392160, Note_on_c, 0, 60, 0
1, 392160, Note_on_c, 0, 91, 50
1, 392160, Note_on_c, 0, 60, 41
1, 392160, Note_on_c, 0, 64, 41
1, 392280, Note_on_c, 0, 64, 0
1, 392280, Note_on_c, 0, 91, 0
1, 392280, Note_on_c, 0, 90, 46
1, 392280, Note_on_c, 0, 67, 34
1, 392400, Tempo, 376176
1, 392400, Note_on_c, 0, 67, 0
1, 392400, Note_on_c, 0, 90, 0
1, 392400, Note_on_c, 0, 60, 0
1, 392400, Note_on_c, 0, 91, 50
1, 392400, Note_on_c, 0, 60, 41
1, 392400, Note_on_c, 0, 64, 41
1, 392440, Tempo, 377572
1, 392460, Tempo, 378907
1, 392480, Tempo, 380300
1, 392500, Tempo, 381655
1, 392520, Tempo, 383093
1, 392520, Note_on_c, 0, 64, 0
1, 392520, Note_on_c, 0, 91, 0
1, 392520, Note_on_c, 0, 88, 44
1, 392520, Note_on_c, 0, 67, 33
1, 392640, Note_on_c, 0, 67, 0
1, 392640, Note_on_c, 0, 88, 0
1, 392640, Note_on_c, 0, 60, 0
1, 392640, Note_on_c, 0, 86, 48
1, 392640, Note_on_c, 0, 60, 38
1, 392640, Note_on_c, 0, 65, 38
1, 392647, Control_c, 0, 64, 0
1, 392720, Control_c, 0, 64, 127
1, 392760, Note_on_c, 0, 65, 0
1, 392760, Note_on_c, 0, 86, 0
1, 392760, Note_on_c, 0, 85, 45
1, 392760, Note_on_c, 0, 67, 32
1, 392880, Note_on_c, 0, 67, 0
1, 392880, Note_on_c, 0, 85, 0
1, 392880, Note_on_c, 0, 60, 0
1, 392880, Note_on_c, 0, 86, 49
1, 392880, Note_on_c, 0, 60, 38
1, 392880, Note_on_c, 0, 65, 38
1, 393000, Note_on_c, 0, 65, 0
1, 393000, Note_on_c, 0, 86, 0
1, 393000, Note_on_c, 0, 79, 45
1, 393000, Note_on_c, 0, 67, 33
1, 393120, Tempo, 388777
1, 393120, Note_on_c, 0, 67, 0
1, 393120, Note_on_c, 0, 79, 0
1, 393120, Note_on_c, 0, 60, 0
1, 393120, Note_on_c, 0, 84, 49
1, 393120, Note_on_c, 0, 60, 38
1, 393120, Note_on_c, 0, 64, 38
1, 393132, Control_c, 0, 64, 0
1, 393206, Control_c, 0, 64, 127
1, 393240, Note_on_c, 0, 64, 0
1, 393240, Note_on_c, 0, 84, 0
1, 393240, Note_on_c, 0, 83, 46
1, 393240, Note_on_c, 0, 67, 32
1, 393360, Note_on_c, 0, 67, 0
1, 393360, Note_on_c, 0, 83, 0
1, 393360, Note_on_c, 0, 60, 0
1, 393360, Note_on_c, 0, 84, 49
1, 393360, Note_on_c, 0, 60, 38
1, 393360, Note_on_c, 0, 64, 38
1, 393480, Note_on_c, 0, 64, 0
1, 393480, Note_on_c, 0, 84, 0
1, 393480, Note_on_c, 0, 88, 46
1, 393480, Note_on_c, 0, 67, 33
1, 393600, Tempo, 383093
1, 393600, Note_on_c, 0, 67, 0
1, 393600, Note_on_c, 0, 88, 0
1, 393600, Note_on_c, 0, 60, 0
1, 393600, Note_on_c, 0, 86, 59
1, 393600, Note_on_c, 0, 60, 48
1, 393600, Note_on_c, 0, 65, 48
1, 393603, Control_c, 0, 64, 0
1, 393663, Control_c, 0, 64, 127
1, 393720, Note_on_c, 0, 65, 0
1, 393720, Note_on_c, 0, 86, 0
1, 393720, Note_on_c, 0, 85, 55
1, 393720, Note_on_c, 0, 67, 43
1, 393840, Note_on_c, 0, 67, 0
1, 393840, Note_on_c, 0, 85, 0
1, 393840, Note_on_c, 0, 60, 0
1, 393840, Note_on_c, 0, 86, 68
1, 393840, Note_on_c, 0, 60, 54
1, 393840, Note_on_c, 0, 65, 54
1, 393960, Note_on_c, 0, 65, 0
1, 393960, Note_on_c, 0, 86, 0
1, 393960, Note_on_c, 0, 79, 62
1, 393960, Note_on_c, 0, 67, 47
1, 394080, Tempo, 381655
1, 394080, Note_on_c, 0, 67, 0
1, 394080, Note_on_c, 0, 79, 0
1, 394080, Note_on_c, 0, 60, 0
1, 394080, Note_on_c, 0, 84, 74
1, 394080, Note_on_c, 0, 64, 60
1, 394109, Control_c, 0, 64, 0
1, 394200, Note_on_c, 0, 83, 67
1, 394200, Note_on_c, 0, 63, 53
1, 394210, Note_on_c, 0, 64, 0
1, 394210, Note_on_c, 0, 84, 0
1, 394320, Note_on_c, 0, 84, 67
1, 394320, Note_on_c, 0, 64, 53
1, 394330, Note_on_c, 0, 83, 0
1, 394330, Note_on_c, 0, 63, 0
1, 394372, Control_c, 0, 64, 127
1, 394440, Tempo, 390244
1, 394440, Note_on_c, 0, 88, 67
1, 394440, Note_on_c, 0, 60, 54
1, 394450, Note_on_c, 0, 84, 0
1, 394450, Note_on_c, 0, 64, 0
1, 394560, Tempo, 381655
1, 394560, Note_on_c, 0, 88, 0
1, 394560, Note_on_c, 0, 60, 0
1, 394560, Note_on_c, 0, 83, 76
1, 394560, Note_on_c, 0, 62, 61
1, 394560, Control_c, 0, 64, 0
1, 394680, Note_on_c, 0, 82, 69
1, 394680, Note_on_c, 0, 61, 54
1, 394690, Note_on_c, 0, 62, 0
1, 394690, Note_on_c, 0, 83, 0
1, 394800, Note_on_c, 0, 83, 69
1, 394800, Note_on_c, 0, 62, 54
1, 394810, Note_on_c, 0, 82, 0
1, 394810, Note_on_c, 0, 61, 0
1, 394835, Control_c, 0, 64, 127
1, 394920, Tempo, 388777
1, 394920, Note_on_c, 0, 86, 69
1, 394920, Note_on_c, 0, 59, 54
1, 394930, Note_on_c, 0, 83, 0
1, 394930, Note_on_c, 0, 62, 0
1, 395040, Tempo, 381655
1, 395040, Note_on_c, 0, 86, 0
1, 395040, Note_on_c, 0, 59, 0
1, 395040, Note_on_c, 0, 81, 75
1, 395040, Note_on_c, 0, 60, 61
1, 395047, Control_c, 0, 64, 0
1, 395160, Note_on_c, 0, 80, 70
1, 395160, Note_on_c, 0, 59, 54
1, 395170, Note_on_c, 0, 60, 0
1, 395170, Note_on_c, 0, 81, 0
1, 395280, Note_on_c, 0, 81, 70
1, 395280, Note_on_c, 0, 60, 54
1, 395290, Note_on_c, 0, 80, 0
1, 395290, Note_on_c, 0, 59, 0
1, 395343, Control_c, 0, 64, 127
1, 395400, Tempo, 391696
1, 395400, Note_on_c, 0, 84, 70
1, 395400, Note_on_c, 0, 57, 54
1, 395410, Note_on_c, 0, 81, 0
1, 395410, Note_on_c, 0, 60, 0
1, 395520, Tempo, 381655
1, 395520, Note_on_c, 0, 84, 0
1, 395520, Note_on_c, 0, 57, 0
1, 395520, Note_on_c, 0, 79, 75
1, 395520, Note_on_c, 0, 59, 60
1, 395522, Control_c, 0, 64, 0
1, 395640, Note_on_c, 0, 78, 69
1, 395640, Note_on_c, 0, 58, 54
1, 395650, Note_on_c, 0, 59, 0
1, 395650, Note_on_c, 0, 79, 0
1, 395755, Control_c, 0, 64, 127
1, 395760, Note_on_c, 0, 79, 69
1, 395760, Note_on_c, 0, 59, 54
1, 395770, Note_on_c, 0, 78, 0
1, 395770, Note_on_c, 0, 58, 0
1, 395880, Tempo, 388777
1, 395880, Note_on_c, 0, 83, 69
1, 395880, Note_on_c, 0, 55, 54
1, 395890, Note_on_c, 0, 79, 0
1, 395890, Note_on_c, 0, 59, 0
1, 396000, Tempo, 381655
1, 396000, Note_on_c, 0, 83, 0
1, 396000, Note_on_c, 0, 55, 0
1, 396000, Note_on_c, 0, 77, 75
1, 396000, Note_on_c, 0, 57, 60
1, 396010, Control_c, 0, 64, 0
1, 396120, Note_on_c, 0, 76, 69
1, 396120, Note_on_c, 0, 56, 54
1, 396130, Note_on_c, 0, 57, 0
1, 396130, Note_on_c, 0, 77, 0
1, 396240, Note_on_c, 0, 77, 69
1, 396240, Note_on_c, 0, 57, 54
1, 396250, Note_on_c, 0, 76, 0
1, 396250, Note_on_c, 0, 56, 0
1, 396263, Control_c, 0, 64, 127
1, 396360, Tempo, 390244
1, 396360, Note_on_c, 0, 81, 69
1, 396360, Note_on_c, 0, 53, 54
1, 396370, Note_on_c, 0, 77, 0
1, 396370, Note_on_c, 0, 57, 0
1, 396480, Tempo, 383975
1, 396480, Note_on_c, 0, 81, 0
1, 396480, Note_on_c, 0, 53, 0
1, 396480, Note_on_c, 0, 76, 75
1, 396480, Note_on_c, 0, 55, 60
1, 396490, Control_c, 0, 64, 0
1, 396600, Note_on_c, 0, 75, 70
1, 396600, Note_on_c, 0, 54, 54
1, 396610, Note_on_c, 0, 55, 0
1, 396610, Note_on_c, 0, 76, 0
1, 396720, Note_on_c, 0, 76, 70
1, 396720, Note_on_c, 0, 55, 54
1, 396730, Note_on_c, 0, 75, 0
1, 396730, Note_on_c, 0, 54, 0
1, 396737, Control_c, 0, 64, 127
1, 396840, Tempo, 396694
1, 396840, Note_on_c, 0, 79, 70
1, 396840, Note_on_c, 0, 52, 54
1, 396850, Note_on_c, 0, 76, 0
1, 396850, Note_on_c, 0, 55, 0
1, 396960, Tempo, 385233
1, 396960, Note_on_c, 0, 79, 0
1, 396960, Note_on_c, 0, 52, 0
1, 396960, Note_on_c, 0, 74, 75
1, 396960, Note_on_c, 0, 53, 61
1, 396968, Control_c, 0, 64, 0
1, 397080, Note_on_c, 0, 73, 70
1, 397080, Note_on_c, 0, 52, 54
1, 397090, Note_on_c, 0, 53, 0
1, 397090, Note_on_c, 0, 74, 0
1, 397200, Note_on_c, 0, 74, 70
1, 397200, Note_on_c, 0, 53, 54
1, 397210, Note_on_c, 0, 73, 0
1, 397210, Note_on_c, 0, 52, 0
1, 397217, Control_c, 0, 64, 127
1, 397320, Tempo, 399334
1, 397320, Note_on_c, 0, 77, 69
1, 397320, Note_on_c, 0, 50, 54
1, 397330, Note_on_c, 0, 74, 0
1, 397330, Note_on_c, 0, 53, 0
1, 397440, Tempo, 387722
1, 397440, Note_on_c, 0, 77, 0
1, 397440, Note_on_c, 0, 50, 0
1, 397440, Note_on_c, 0, 72, 75
1, 397440, Note_on_c, 0, 52, 62
1, 397450, Control_c, 0, 64, 0
1, 397560, Note_on_c, 0, 71, 69
1, 397560, Note_on_c, 0, 51, 54
1, 397570, Note_on_c, 0, 52, 0
1, 397570, Note_on_c, 0, 72, 0
1, 397680, Note_on_c, 0, 72, 69
1, 397680, Note_on_c, 0, 52, 54
1, 397690, Note_on_c, 0, 71, 0
1, 397690, Note_on_c, 0, 51, 0
1, 397709, Control_c, 0, 64, 127
1, 397800, Tempo, 398010
1, 397800, Note_on_c, 0, 76, 69
1, 397800, Note_on_c, 0, 48, 54
1, 397810, Note_on_c, 0, 72, 0
1, 397810, Note_on_c, 0, 52, 0
1, 397920, Tempo, 386449
1, 397920, Note_on_c, 0, 76, 0
1, 397920, Note_on_c, 0, 48, 0
1, 397920, Note_on_c, 0, 76, 75
1, 397920, Note_on_c, 0, 60, 61
1, 397926, Control_c, 0, 64, 0
1, 398040, Note_on_c, 0, 75, 68
1, 398040, Note_on_c, 0, 59, 54
1, 398050, Note_on_c, 0, 60, 0
1, 398050, Note_on_c, 0, 76, 0
1, 398160, Note_on_c, 0, 76, 68
1, 398160, Note_on_c, 0, 60, 54
1, 398170, Note_on_c, 0, 75, 0
1, 398170, Note_on_c, 0, 59, 0
1, 398200, Control_c, 0, 64, 127
1, 398280, Tempo, 395387
1, 398280, Note_on_c, 0, 79, 68
1, 398280, Note_on_c, 0, 64, 54
1, 398290, Note_on_c, 0, 76, 0
1, 398290, Note_on_c, 0, 60, 0
1, 398400, Tempo, 385233
1, 398400, Note_on_c, 0, 79, 0
1, 398400, Note_on_c, 0, 64, 0
1, 398400, Note_on_c, 0, 74, 75
1, 398400, Note_on_c, 0, 59, 61
1, 398410, Control_c, 0, 64, 0
1, 398520, Note_on_c, 0, 73, 68
1, 398520, Note_on_c, 0, 58, 54
1, 398530, Note_on_c, 0, 59, 0
1, 398530, Note_on_c, 0, 74, 0
1, 398640, Note_on_c, 0, 74, 68
1, 398640, Note_on_c, 0, 59, 54
1, 398646, Control_c, 0, 64, 127
1, 398650, Note_on_c, 0, 73, 0
1, 398650, Note_on_c, 0, 58, 0
1, 398760, Tempo, 394063
1, 398760, Note_on_c, 0, 71, 68
1, 398760, Note_on_c, 0, 62, 54
1, 398770, Note_on_c, 0, 74, 0
1, 398770, Note_on_c, 0, 59, 0
1, 398880, Tempo, 381655
1, 398880, Note_on_c, 0, 71, 0
1, 398880, Note_on_c, 0, 62, 0
1, 398880, Note_on_c, 0, 72, 74
1, 398880, Note_on_c, 0, 57, 61
1, 398893, Control_c, 0, 64, 0
1, 399000, Note_on_c, 0, 71, 68
1, 399000, Note_on_c, 0, 56, 54
1, 399010, Note_on_c, 0, 57, 0
1, 399010, Note_on_c, 0, 72, 0
1, 399120, Note_on_c, 0, 72, 68
1, 399120, Note_on_c, 0, 57, 54
1, 399130, Note_on_c, 0, 71, 0
1, 399130, Note_on_c, 0, 56, 0
1, 399137, Control_c, 0, 64, 127
1, 399240, Tempo, 390244
1, 399240, Note_on_c, 0, 69, 68
1, 399240, Note_on_c, 0, 60, 54
1, 399250, Note_on_c, 0, 72, 0
1, 399250, Note_on_c, 0, 57, 0
1, 399360, Tempo, 381655
1, 399360, Note_on_c, 0, 69, 0
1, 399360, Note_on_c, 0, 60, 0
1, 399360, Note_on_c, 0, 71, 74
1, 399360, Note_on_c, 0, 55, 60
1, 399366, Control_c, 0, 64, 0
1, 399480, Note_on_c, 0, 70, 69
1, 399480, Note_on_c, 0, 54, 54
1, 399490, Note_on_c, 0, 55, 0
1, 399490, Note_on_c, 0, 71, 0
1, 399600, Note_on_c, 0, 71, 68
1, 399600, Note_on_c, 0, 55, 54
1, 399610, Note_on_c, 0, 70, 0
1, 399610, Note_on_c, 0, 54, 0
1, 399663, Control_c, 0, 64, 127
1, 399720, Tempo, 390244
1, 399720, Note_on_c, 0, 67, 68
1, 399720, Note_on_c, 0, 59, 54
1, 399730, Note_on_c, 0, 71, 0
1, 399730, Note_on_c, 0, 55, 0
1, 399840, Tempo, 381655
1, 399840, Note_on_c, 0, 67, 0
1, 399840, Note_on_c, 0, 59, 0
1, 399840, Note_on_c, 0, 69, 74
1, 399840, Note_on_c, 0, 53, 61
1, 399852, Control_c, 0, 64, 0
1, 399960, Note_on_c, 0, 68, 68
1, 399960, Note_on_c, 0, 52, 54
1, 399970, Note_on_c, 0, 53, 0
1, 399970, Note_on_c, 0, 69, 0
1, 400080, Note_on_c, 0, 69, 68
1, 400080, Note_on_c, 0, 53, 54
1, 400090, Note_on_c, 0, 68, 0
1, 400090, Note_on_c, 0, 52, 0
1, 400120, Control_c, 0, 64, 127
1, 400200, Tempo, 390244
1, 400200, Note_on_c, 0, 65, 68
1, 400200, Note_on_c, 0, 57, 54
1, 400210, Note_on_c, 0, 69, 0
1, 400210, Note_on_c, 0, 53, 0
1, 400320, Tempo, 382751
1, 400320, Note_on_c, 0, 65, 0
1, 400320, Note_on_c, 0, 57, 0
1, 400320, Note_on_c, 0, 67, 74
1, 400320, Note_on_c, 0, 52, 62
1, 400320, Control_c, 0, 64, 0
1, 400440, Note_on_c, 0, 66, 68
1, 400440, Note_on_c, 0, 51, 54
1, 400450, Note_on_c, 0, 52, 0
1, 400450, Note_on_c, 0, 67, 0
1, 400560, Note_on_c, 0, 67, 68
1, 400560, Note_on_c, 0, 52, 54
1, 400570, Note_on_c, 0, 66, 0
1, 400570, Note_on_c, 0, 51, 0
1, 400612, Control_c, 0, 64, 127
1, 400680, Tempo, 398010
1, 400680, Note_on_c, 0, 64, 68
1, 400680, Note_on_c, 0, 55, 54
1, 400690, Note_on_c, 0, 67, 0
1, 400690, Note_on_c, 0, 52, 0
1, 400800, Tempo, 385233
1, 400800, Note_on_c, 0, 64, 0
1, 400800, Note_on_c, 0, 55, 0
1, 400800, Note_on_c, 0, 65, 74
1, 400800, Note_on_c, 0, 50, 60
1, 400812, Control_c, 0, 64, 0
1, 400920, Note_on_c, 0, 64, 68
1, 400920, Note_on_c, 0, 49, 54
1, 400930, Note_on_c, 0, 50, 0
1, 400930, Note_on_c, 0, 65, 0
1, 401040, Note_on_c, 0, 65, 68
1, 401040, Note_on_c, 0, 50, 54
1, 401050, Note_on_c, 0, 64, 0
1, 401050, Note_on_c, 0, 49, 0
1, 401080, Control_c, 0, 64, 127
1, 401140, Tempo, 394659
1, 401160, Tempo, 399334
1, 401160, Note_on_c, 0, 62, 68
1, 401160, Note_on_c, 0, 53, 53
1, 401170, Note_on_c, 0, 65, 0
1, 401170, Note_on_c, 0, 50, 0
1, 401280, Tempo, 386449
1, 401280, Note_on_c, 0, 62, 0
1, 401280, Note_on_c, 0, 53, 0
1, 401280, Note_on_c, 0, 64, 91
1, 401280, Note_on_c, 0, 48, 84
1, 401280, Control_c, 0, 64, 0
1, 401386, Control_c, 0, 64, 127
1, 401400, Note_on_c, 0, 60, 81
1, 401410, Note_on_c, 0, 64, 0
1, 401520, Note_on_c, 0, 48, 0
1, 401520, Note_on_c, 0, 55, 81
1, 401530, Note_on_c, 0, 60, 0
1, 401640, Tempo, 391696
1, 401640, Note_on_c, 0, 64, 81
1, 401640, Note_on_c, 0, 48, 72
1, 401650, Note_on_c, 0, 55, 0
1, 401753, Control_c, 0, 64, 0
1, 401760, Tempo, 383975
1, 401760, Note_on_c, 0, 48, 0
1, 401760, Note_on_c, 0, 64, 0
1, 401760, Note_on_c, 0, 62, 90
1, 401760, Note_on_c, 0, 43, 84
1, 401831, Control_c, 0, 64, 127
1, 401880, Note_on_c, 0, 59, 81
1, 401890, Note_on_c, 0, 62, 0
1, 402000, Note_on_c, 0, 43, 0
1, 402000, Note_on_c, 0, 55, 81
1, 402010, Note_on_c, 0, 59, 0
1, 402120, Tempo, 390244
1, 402120, Note_on_c, 0, 62, 81
1, 402120, Note_on_c, 0, 43, 72
1, 402130, Note_on_c, 0, 55, 0
1, 402240, Tempo, 381655
1, 402240, Note_on_c, 0, 43, 0
1, 402240, Note_on_c, 0, 62, 0
1, 402240, Note_on_c, 0, 65, 91
1, 402240, Note_on_c, 0, 50, 84
1, 402246, Control_c, 0, 64, 0
1, 402311, Control_c, 0, 64, 127
1, 402360, Note_on_c, 0, 62, 81
1, 402370, Note_on_c, 0, 65, 0
1, 402480, Note_on_c, 0, 50, 0
1, 402480, Note_on_c, 0, 57, 81
1, 402490, Note_on_c, 0, 62, 0
1, 402600, Tempo, 391696
1, 402600, Note_on_c, 0, 65, 81
1, 402600, Note_on_c, 0, 50, 72
1, 402610, Note_on_c, 0, 57, 0
1, 402720, Tempo, 381655
1, 402720, Note_on_c, 0, 50, 0
1, 402720, Note_on_c, 0, 65, 0
1, 402720, Note_on_c, 0, 64, 90
1, 402720, Note_on_c, 0, 45, 84
1, 402730, Control_c, 0, 64, 0
1, 402805, Control_c, 0, 64, 127
1, 402840, Note_on_c, 0, 60, 81
1, 402850, Note_on_c, 0, 64, 0
1, 402960, Note_on_c, 0, 45, 0
1, 402960, Note_on_c, 0, 57, 81
1, 402970, Note_on_c, 0, 60, 0
1, 403080, Tempo, 393133
1, 403080, Note_on_c, 0, 64, 81
1, 403080, Note_on_c, 0, 45, 72
1, 403090, Note_on_c, 0, 57, 0
1, 403200, Tempo, 381655
1, 403200, Note_on_c, 0, 45, 0
1, 403200, Note_on_c, 0, 64, 0
1, 403200, Note_on_c, 0, 69, 90
1, 403200, Note_on_c, 0, 53, 84
1, 403203, Control_c, 0, 64, 0
1, 403313, Control_c, 0, 64, 127
1, 403320, Note_on_c, 0, 65, 81
1, 403330, Note_on_c, 0, 69, 0
1, 403440, Note_on_c, 0, 53, 0
1, 403440, Note_on_c, 0, 60, 81
1, 403450, Note_on_c, 0, 65, 0
1, 403560, Tempo, 393133
1, 403560, Note_on_c, 0, 69, 81
1, 403560, Note_on_c, 0, 53, 73
1, 403570, Note_on_c, 0, 60, 0
1, 403680, Tempo, 381655
1, 403680, Note_on_c, 0, 53, 0
1, 403680, Note_on_c, 0, 69, 0
1, 403680, Note_on_c, 0, 67, 90
1, 403680, Note_on_c, 0, 48, 84
1, 403691, Control_c, 0, 64, 0
1, 403765, Control_c, 0, 64, 127
1, 403800, Note_on_c, 0, 64, 81
1, 403810, Note_on_c, 0, 67, 0
1, 403920, Note_on_c, 0, 48, 0
1, 403920, Note_on_c, 0, 60, 81
1, 403930, Note_on_c, 0, 64, 0
1, 404040, Tempo, 391696
1, 404040, Note_on_c, 0, 72, 81
1, 404040, Note_on_c, 0, 48, 74
1, 404050, Note_on_c, 0, 60, 0
1, 404160, Tempo, 381655
1, 404160, Note_on_c, 0, 48, 0
1, 404160, Note_on_c, 0, 72, 0
1, 404160, Note_on_c, 0, 62, 91
1, 404160, Note_on_c, 0, 55, 84
1, 404171, Control_c, 0, 64, 0
1, 404238, Control_c, 0, 64, 127
1, 404280, Note_on_c, 0, 72, 81
1, 404290, Note_on_c, 0, 62, 0
1, 404400, Note_on_c, 0, 55, 0
1, 404400, Note_on_c, 0, 67, 81
1, 404410, Note_on_c, 0, 72, 0
1, 404520, Tempo, 391696
1, 404520, Note_on_c, 0, 62, 81
1, 404520, Note_on_c, 0, 55, 73
1, 404530, Note_on_c, 0, 67, 0
1, 404640, Tempo, 381655
1, 404640, Note_on_c, 0, 55, 0
1, 404640, Note_on_c, 0, 62, 0
1, 404640, Note_on_c, 0, 71, 91
1, 404640, Note_on_c, 0, 43, 84
1, 404657, Control_c, 0, 64, 0
1, 404746, Control_c, 0, 64, 127
1, 404760, Note_on_c, 0, 67, 81
1, 404770, Note_on_c, 0, 71, 0
1, 404880, Note_on_c, 0, 43, 0
1, 404880, Note_on_c, 0, 62, 81
1, 404890, Note_on_c, 0, 67, 0
1, 405000, Tempo, 393133
1, 405000, Note_on_c, 0, 71, 81
1, 405000, Note_on_c, 0, 43, 74
1, 405010, Note_on_c, 0, 62, 0
1, 405120, Tempo, 381655
1, 405120, Note_on_c, 0, 43, 0
1, 405120, Note_on_c, 0, 71, 0
1, 405120, Note_on_c, 0, 76, 91
1, 405120, Note_on_c, 0, 48, 84
1, 405137, Control_c, 0, 64, 0
1, 405198, Control_c, 0, 64, 127
1, 405240, Note_on_c, 0, 72, 81
1, 405250, Note_on_c, 0, 76, 0
1, 405360, Note_on_c, 0, 48, 0
1, 405360, Note_on_c, 0, 67, 81
1, 405370, Note_on_c, 0, 72, 0
1, 405480, Tempo, 391696
1, 405480, Note_on_c, 0, 76, 81
1, 405480, Note_on_c, 0, 60, 73
1, 405490, Note_on_c, 0, 67, 0
1, 405600, Tempo, 381655
1, 405600, Note_on_c, 0, 60, 0
1, 405600, Note_on_c, 0, 76, 0
1, 405600, Note_on_c, 0, 67, 91
1, 405600, Note_on_c, 0, 55, 84
1, 405614, Control_c, 0, 64, 0
1, 405699, Control_c, 0, 64, 127
1, 405720, Note_on_c, 0, 74, 81
1, 405730, Note_on_c, 0, 67, 0
1, 405840, Note_on_c, 0, 55, 0
1, 405840, Note_on_c, 0, 71, 81
1, 405850, Note_on_c, 0, 74, 0
1, 405960, Tempo, 393133
1, 405960, Note_on_c, 0, 67, 81
1, 405960, Note_on_c, 0, 55, 73
1, 405970, Note_on_c, 0, 71, 0
1, 406080, Tempo, 381655
1, 406080, Note_on_c, 0, 55, 0
1, 406080, Note_on_c, 0, 67, 0
1, 406080, Note_on_c, 0, 77, 91
1, 406080, Note_on_c, 0, 50, 84
1, 406090, Control_c, 0, 64, 0
1, 406200, Note_on_c, 0, 74, 81
1, 406200, Control_c, 0, 64, 127
1, 406210, Note_on_c, 0, 77, 0
1, 406320, Note_on_c, 0, 50, 0
1, 406320, Note_on_c, 0, 69, 81
1, 406330, Note_on_c, 0, 74, 0
1, 406440, Tempo, 393133
1, 406440, Note_on_c, 0, 77, 81
1, 406440, Note_on_c, 0, 62, 72
1, 406450, Note_on_c, 0, 69, 0
1, 406560, Tempo, 381655
1, 406560, Note_on_c, 0, 62, 0
1, 406560, Note_on_c, 0, 77, 0
1, 406560, Note_on_c, 0, 69, 93
1, 406560, Note_on_c, 0, 57, 84
1, 406579, Control_c, 0, 64, 0
1, 406666, Control_c, 0, 64, 127
1, 406680, Note_on_c, 0, 76, 81
1, 406690, Note_on_c, 0, 69, 0
1, 406800, Note_on_c, 0, 57, 0
1, 406800, Note_on_c, 0, 72, 81
1, 406810, Note_on_c, 0, 76, 0
1, 406920, Tempo, 393133
1, 406920, Note_on_c, 0, 69, 81
1, 406920, Note_on_c, 0, 57, 72
1, 406930, Note_on_c, 0, 72, 0
1, 407040, Tempo, 386498
1, 407040, Note_on_c, 0, 57, 0
1, 407040, Note_on_c, 0, 69, 0
1, 407040, Note_on_c, 0, 81, 92
1, 407040, Note_on_c, 0, 53, 84
1, 407061, Control_c, 0, 64, 0
1, 407160, Note_on_c, 0, 77, 81
1, 407160, Control_c, 0, 64, 127
1, 407170, Note_on_c, 0, 81, 0
1, 407280, Note_on_c, 0, 53, 0
1, 407280, Note_on_c, 0, 72, 81
1, 407290, Note_on_c, 0, 77, 0
1, 407400, Tempo, 401284
1, 407400, Note_on_c, 0, 81, 81
1, 407400, Note_on_c, 0, 65, 73
1, 407410, Note_on_c, 0, 72, 0
1, 407520, Tempo, 389105
1, 407520, Note_on_c, 0, 65, 0
1, 407520, Note_on_c, 0, 81, 0
1, 407520, Note_on_c, 0, 72, 92
1, 407520, Note_on_c, 0, 53, 84
1, 407640, Note_on_c, 0, 81, 81
1, 407650, Note_on_c, 0, 72, 0
1, 407760, Note_on_c, 0, 53, 0
1, 407760, Note_on_c, 0, 77, 81
1, 407770, Note_on_c, 0, 81, 0
1, 407880, Tempo, 406918
1, 407880, Note_on_c, 0, 72, 81
1, 407880, Note_on_c, 0, 65, 73
1, 407890, Note_on_c, 0, 77, 0
1, 408000, Tempo, 390422
1, 408000, Note_on_c, 0, 65, 0
1, 408000, Note_on_c, 0, 72, 0
1, 408000, Note_on_c, 0, 81, 92
1, 408000, Note_on_c, 0, 53, 83
1, 408120, Note_on_c, 0, 77, 81
1, 408130, Note_on_c, 0, 81, 0
1, 408240, Note_on_c, 0, 53, 0
1, 408240, Note_on_c, 0, 72, 81
1, 408250, Note_on_c, 0, 77, 0
1, 408360, Tempo, 402685
1, 408360, Note_on_c, 0, 81, 81
1, 408360, Note_on_c, 0, 65, 72
1, 408370, Note_on_c, 0, 72, 0
1, 408480, Tempo, 391722
1, 408480, Note_on_c, 0, 65, 0
1, 408480, Note_on_c, 0, 81, 0
1, 408480, Note_on_c, 0, 72, 91
1, 408480, Note_on_c, 0, 53, 82
1, 408600, Note_on_c, 0, 81, 81
1, 408610, Note_on_c, 0, 72, 0
1, 408720, Note_on_c, 0, 53, 0
1, 408720, Note_on_c, 0, 77, 81
1, 408730, Note_on_c, 0, 81, 0
1, 408840, Tempo, 406918
1, 408840, Note_on_c, 0, 72, 81
1, 408840, Note_on_c, 0, 53, 72
1, 408850, Note_on_c, 0, 77, 0
1, 408960, Tempo, 421763
1, 408960, Note_on_c, 0, 53, 0
1, 408960, Note_on_c, 0, 72, 0
1, 408960, Note_on_c, 0, 41, 82
1, 408960, Control_c, 0, 64, 0
1, 409137, Control_c, 0, 64, 127
1, 409200, Tempo, 396144
1, 409200, Note_on_c, 0, 41, 0
1, 409200, Note_on_c, 0, 84, 50
1, 409200, Note_on_c, 0, 57, 41
1, 409320, Note_on_c, 0, 57, 0
1, 409320, Note_on_c, 0, 84, 0
1, 409320, Note_on_c, 0, 60, 34
1, 409440, Tempo, 384911
1, 409440, Note_on_c, 0, 60, 0
1, 409440, Note_on_c, 0, 84, 53
1, 409440, Note_on_c, 0, 57, 41
1, 409560, Note_on_c, 0, 57, 0
1, 409560, Note_on_c, 0, 60, 34
1, 409680, Note_on_c, 0, 60, 0
1, 409680, Note_on_c, 0, 57, 41
1, 409800, Note_on_c, 0, 57, 0
1, 409800, Note_on_c, 0, 84, 0
1, 409800, Note_on_c, 0, 81, 50
1, 409800, Note_on_c, 0, 60, 33
1, 409920, Tempo, 391032
1, 409920, Note_on_c, 0, 60, 0
1, 409920, Note_on_c, 0, 81, 0
1, 409920, Note_on_c, 0, 79, 54
1, 409920, Note_on_c, 0, 58, 41
1, 410040, Note_on_c, 0, 58, 0
1, 410040, Note_on_c, 0, 60, 34
1, 410160, Tempo, 383411
1, 410160, Note_on_c, 0, 60, 0
1, 410160, Note_on_c, 0, 79, 0
1, 410160, Note_on_c, 0, 72, 50
1, 410160, Note_on_c, 0, 58, 41
1, 410280, Note_on_c, 0, 58, 0
1, 410280, Note_on_c, 0, 60, 35
1, 410400, Tempo, 396144
1, 410400, Note_on_c, 0, 60, 0
1, 410400, Note_on_c, 0, 72, 0
1, 410400, Note_on_c, 0, 77, 50
1, 410400, Note_on_c, 0, 57, 41
1, 410520, Note_on_c, 0, 57, 0
1, 410520, Note_on_c, 0, 60, 34
1, 410640, Note_on_c, 0, 60, 0
1, 410640, Note_on_c, 0, 77, 0
1, 410640, Note_on_c, 0, 81, 47
1, 410640, Note_on_c, 0, 57, 41
1, 410760, Note_on_c, 0, 57, 0
1, 410760, Note_on_c, 0, 60, 35
1, 410880, Tempo, 377572
1, 410880, Note_on_c, 0, 60, 0
1, 410880, Note_on_c, 0, 81, 0
1, 410880, Note_on_c, 0, 57, 41
1, 411000, Note_on_c, 0, 57, 0
1, 411000, Note_on_c, 0, 60, 34
1, 411120, Note_on_c, 0, 60, 0
1, 411120, Note_on_c, 0, 84, 50
1, 411120, Note_on_c, 0, 57, 41
1, 411240, Note_on_c, 0, 57, 0
1, 411240, Note_on_c, 0, 84, 0
1, 411240, Note_on_c, 0, 83, 46
1, 411240, Note_on_c, 0, 60, 34
1, 411360, Note_on_c, 0, 60, 0
1, 411360, Note_on_c, 0, 83, 0
1, 411360, Note_on_c, 0, 84, 50
1, 411360, Note_on_c, 0, 57, 41
1, 411480, Note_on_c, 0, 57, 0
1, 411480, Note_on_c, 0, 84, 0
1, 411480, Note_on_c, 0, 83, 47
1, 411480, Note_on_c, 0, 60, 34
1, 411600, Tempo, 376176
1, 411600, Note_on_c, 0, 60, 0
1, 411600, Note_on_c, 0, 83, 0
1, 411600, Note_on_c, 0, 84, 50
1, 411600, Note_on_c, 0, 57, 41
1, 411640, Tempo, 377572
1, 411660, Tempo, 378907
1, 411680, Tempo, 380300
1, 411700, Tempo, 381655
1, 411720, Tempo, 383093
1, 411720, Note_on_c, 0, 57, 0
1, 411720, Note_on_c, 0, 84, 0
1, 411720, Note_on_c, 0, 81, 47
1, 411720, Note_on_c, 0, 60, 33
1, 411840, Note_on_c, 0, 60, 0
1, 411840, Note_on_c, 0, 81, 0
1, 411840, Note_on_c, 0, 79, 48
1, 411840, Note_on_c, 0, 58, 38
1, 411846, Control_c, 0, 64, 0
1, 411926, Control_c, 0, 64, 127
1, 411960, Note_on_c, 0, 58, 0
1, 411960, Note_on_c, 0, 79, 0
1, 411960, Note_on_c, 0, 78, 43
1, 411960, Note_on_c, 0, 60, 32
1, 412080, Note_on_c, 0, 60, 0
1, 412080, Note_on_c, 0, 78, 0
1, 412080, Note_on_c, 0, 79, 48
1, 412080, Note_on_c, 0, 58, 38
1, 412200, Note_on_c, 0, 58, 0
1, 412200, Note_on_c, 0, 79, 0
1, 412200, Note_on_c, 0, 72, 45
1, 412200, Note_on_c, 0, 60, 33
1, 412320, Tempo, 388777
1, 412320, Note_on_c, 0, 60, 0
1, 412320, Note_on_c, 0, 72, 0
1, 412320, Note_on_c, 0, 77, 48
1, 412320, Note_on_c, 0, 57, 38
1, 412330, Control_c, 0, 64, 0
1, 412417, Control_c, 0, 64, 127
1, 412440, Note_on_c, 0, 57, 0
1, 412440, Note_on_c, 0, 77, 0
1, 412440, Note_on_c, 0, 76, 44
1, 412440, Note_on_c, 0, 60, 32
1, 412560, Note_on_c, 0, 60, 0
1, 412560, Note_on_c, 0, 76, 0
1, 412560, Note_on_c, 0, 77, 50
1, 412560, Note_on_c, 0, 57, 38
1, 412680, Note_on_c, 0, 57, 0
1, 412680, Note_on_c, 0, 77, 0
1, 412680, Note_on_c, 0, 81, 46
1, 412680, Note_on_c, 0, 60, 33
1, 412740, Tempo, 413365
1, 412800, Tempo, 421763
1, 412800, Note_on_c, 0, 60, 0
1, 412800, Note_on_c, 0, 81, 0
1, 412800, Note_on_c, 0, 43, 85
1, 412809, Control_c, 0, 64, 0
1, 412984, Control_c, 0, 64, 127
1, 413040, Tempo, 396144
1, 413040, Note_on_c, 0, 43, 0
1, 413040, Note_on_c, 0, 89, 46
1, 413040, Note_on_c, 0, 77, 39
1, 413040, Note_on_c, 0, 59, 42
1, 413280, Tempo, 384911
1, 413280, Note_on_c, 0, 59, 0
1, 413280, Note_on_c, 0, 77, 0
1, 413280, Note_on_c, 0, 89, 0
1, 413280, Note_on_c, 0, 89, 48
1, 413280, Note_on_c, 0, 77, 40
1, 413280, Note_on_c, 0, 62, 43
1, 413520, Note_on_c, 0, 62, 0
1, 413520, Note_on_c, 0, 59, 39
1, 413640, Note_on_c, 0, 77, 0
1, 413640, Note_on_c, 0, 89, 0
1, 413640, Note_on_c, 0, 86, 46
1, 413640, Note_on_c, 0, 74, 39
1, 413760, Tempo, 391032
1, 413760, Note_on_c, 0, 74, 0
1, 413760, Note_on_c, 0, 86, 0
1, 413760, Note_on_c, 0, 59, 0
1, 413760, Note_on_c, 0, 88, 49
1, 413760, Note_on_c, 0, 76, 41
1, 413760, Note_on_c, 0, 60, 43
1, 413760, Control_c, 0, 64, 0
1, 413934, Control_c, 0, 64, 127
1, 414000, Tempo, 383411
1, 414000, Note_on_c, 0, 60, 0
1, 414000, Note_on_c, 0, 76, 0
1, 414000, Note_on_c, 0, 88, 0
1, 414000, Note_on_c, 0, 84, 46
1, 414000, Note_on_c, 0, 72, 39
1, 414000, Note_on_c, 0, 64, 42
1, 414240, Tempo, 396144
1, 414240, Note_on_c, 0, 64, 0
1, 414240, Note_on_c, 0, 72, 0
1, 414240, Note_on_c, 0, 84, 0
1, 414240, Note_on_c, 0, 83, 46
1, 414240, Note_on_c, 0, 71, 39
1, 414240, Note_on_c, 0, 62, 42
1, 414255, Control_c, 0, 64, 0
1, 414360, Control_c, 0, 64, 127
1, 414480, Note_on_c, 0, 62, 0
1, 414480, Note_on_c, 0, 71, 0
1, 414480, Note_on_c, 0, 83, 0
1, 414480, Note_on_c, 0, 86, 42
1, 414480, Note_on_c, 0, 74, 35
1, 414480, Note_on_c, 0, 59, 39
1, 414720, Tempo, 421763
1, 414720, Note_on_c, 0, 59, 0
1, 414720, Note_on_c, 0, 74, 0
1, 414720, Note_on_c, 0, 86, 0
1, 414720, Note_on_c, 0, 55, 46
1, 414720, Control_c, 0, 64, 0
1, 414960, Tempo, 396144
1, 414960, Note_on_c, 0, 55, 0
1, 414960, Note_on_c, 0, 89, 46
1, 414960, Note_on_c, 0, 77, 39
1, 414960, Note_on_c, 0, 59, 42
1, 415130, Control_c, 0, 64, 127
1, 415200, Tempo, 384911
1, 415200, Note_on_c, 0, 59, 0
1, 415200, Note_on_c, 0, 77, 0
1, 415200, Note_on_c, 0, 89, 0
1, 415200, Note_on_c, 0, 89, 48
1, 415200, Note_on_c, 0, 77, 40
1, 415200, Note_on_c, 0, 62, 43
1, 415440, Note_on_c, 0, 62, 0
1, 415440, Note_on_c, 0, 59, 39
1, 415560, Note_on_c, 0, 77, 0
1, 415560, Note_on_c, 0, 89, 0
1, 415560, Note_on_c, 0, 86, 46
1, 415560, Note_on_c, 0, 74, 39
1, 415680, Tempo, 391032
1, 415680, Note_on_c, 0, 74, 0
1, 415680, Note_on_c, 0, 86, 0
1, 415680, Note_on_c, 0, 59, 0
1, 415680, Note_on_c, 0, 88, 49
1, 415680, Note_on_c, 0, 76, 41
1, 415680, Note_on_c, 0, 60, 43
1, 415680, Control_c, 0, 64, 0
1, 415920, Tempo, 383411
1, 415920, Note_on_c, 0, 84, 46
1, 415920, Note_on_c, 0, 72, 39
1, 415920, Note_on_c, 0, 64, 42
1, 415930, Note_on_c, 0, 60, 0
1, 415930, Note_on_c, 0, 88, 0
1, 415930, Note_on_c, 0, 76, 0
1, 416160, Tempo, 396144
1, 416160, Note_on_c, 0, 83, 46
1, 416160, Note_on_c, 0, 71, 39
1, 416160, Note_on_c, 0, 62, 42
1, 416170, Note_on_c, 0, 84, 0
1, 416170, Note_on_c, 0, 64, 0
1, 416170, Note_on_c, 0, 72, 0
1, 416400, Note_on_c, 0, 86, 42
1, 416400, Note_on_c, 0, 74, 35
1, 416400, Note_on_c, 0, 59, 39
1, 416410, Note_on_c, 0, 83, 0
1, 416410, Note_on_c, 0, 62, 0
1, 416410, Note_on_c, 0, 71, 0
1, 416640, Tempo, 391032
1, 416640, Note_on_c, 0, 86, 0
1, 416640, Note_on_c, 0, 74, 0
1, 416640, Note_on_c, 0, 59, 0
1, 416640, Note_on_c, 0, 84, 49
1, 416640, Note_on_c, 0, 72, 41
1, 416640, Note_on_c, 0, 57, 43
1, 416880, Tempo, 383411
1, 416880, Note_on_c, 0, 81, 46
1, 416880, Note_on_c, 0, 69, 39
1, 416880, Note_on_c, 0, 60, 42
1, 416890, Note_on_c, 0, 57, 0
1, 416890, Note_on_c, 0, 84, 0
1, 416890, Note_on_c, 0, 72, 0
1, 417120, Tempo, 393056
1, 417120, Note_on_c, 0, 79, 46
1, 417120, Note_on_c, 0, 67, 39
1, 417120, Note_on_c, 0, 59, 42
1, 417130, Note_on_c, 0, 81, 0
1, 417130, Note_on_c, 0, 60, 0
1, 417130, Note_on_c, 0, 69, 0
1, 417360, Note_on_c, 0, 83, 42
1, 417360, Note_on_c, 0, 71, 35
1, 417360, Note_on_c, 0, 55, 39
1, 417370, Note_on_c, 0, 79, 0
1, 417370, Note_on_c, 0, 59, 0
1, 417370, Note_on_c, 0, 67, 0
1, 417600, Tempo, 391032
1, 417600, Note_on_c, 0, 83, 0
1, 417600, Note_on_c, 0, 71, 0
1, 417600, Note_on_c, 0, 55, 0
1, 417600, Note_on_c, 0, 81, 49
1, 417600, Note_on_c, 0, 69, 41
1, 417600, Note_on_c, 0, 53, 43
1, 417840, Tempo, 383411
1, 417840, Note_on_c, 0, 77, 46
1, 417840, Note_on_c, 0, 65, 39
1, 417840, Note_on_c, 0, 57, 42
1, 417850, Note_on_c, 0, 53, 0
1, 417850, Note_on_c, 0, 81, 0
1, 417850, Note_on_c, 0, 69, 0
1, 418080, Tempo, 393056
1, 418080, Note_on_c, 0, 76, 46
1, 418080, Note_on_c, 0, 64, 39
1, 418080, Note_on_c, 0, 55, 42
1, 418090, Note_on_c, 0, 77, 0
1, 418090, Note_on_c, 0, 57, 0
1, 418090, Note_on_c, 0, 65, 0
1, 418320, Note_on_c, 0, 79, 42
1, 418320, Note_on_c, 0, 67, 35
1, 418320, Note_on_c, 0, 52, 39
1, 418330, Note_on_c, 0, 76, 0
1, 418330, Note_on_c, 0, 55, 0
1, 418330, Note_on_c, 0, 64, 0
1, 418560, Tempo, 383926
1, 418560, Note_on_c, 0, 79, 0
1, 418560, Note_on_c, 0, 67, 0
1, 418560, Note_on_c, 0, 52, 0
1, 418560, Note_on_c, 0, 77, 51
1, 418560, Note_on_c, 0, 65, 42
1, 418560, Note_on_c, 0, 50, 44
1, 418800, Tempo, 391722
1, 418800, Note_on_c, 0, 74, 48
1, 418800, Note_on_c, 0, 62, 40
1, 418800, Note_on_c, 0, 53, 43
1, 418810, Note_on_c, 0, 50, 0
1, 418810, Note_on_c, 0, 77, 0
1, 418810, Note_on_c, 0, 65, 0
1, 419040, Tempo, 385183
1, 419040, Note_on_c, 0, 76, 48
1, 419040, Note_on_c, 0, 64, 41
1, 419040, Note_on_c, 0, 48, 44
1, 419050, Note_on_c, 0, 74, 0
1, 419050, Note_on_c, 0, 53, 0
1, 419050, Note_on_c, 0, 62, 0
1, 419280, Tempo, 390422
1, 419280, Note_on_c, 0, 72, 44
1, 419280, Note_on_c, 0, 60, 36
1, 419280, Note_on_c, 0, 52, 41
1, 419290, Note_on_c, 0, 76, 0
1, 419290, Note_on_c, 0, 48, 0
1, 419290, Note_on_c, 0, 64, 0
1, 419520, Tempo, 385183
1, 419520, Note_on_c, 0, 72, 0
1, 419520, Note_on_c, 0, 60, 0
1, 419520, Note_on_c, 0, 52, 0
1, 419520, Note_on_c, 0, 74, 52
1, 419520, Note_on_c, 0, 62, 43
1, 419520, Note_on_c, 0, 47, 46
1, 419760, Tempo, 391722
1, 419760, Note_on_c, 0, 71, 49
1, 419760, Note_on_c, 0, 59, 41
1, 419760, Note_on_c, 0, 50, 44
1, 419770, Note_on_c, 0, 47, 0
1, 419770, Note_on_c, 0, 74, 0
1, 419770, Note_on_c, 0, 62, 0
1, 420000, Tempo, 383926
1, 420000, Note_on_c, 0, 72, 49
1, 420000, Note_on_c, 0, 60, 41
1, 420000, Note_on_c, 0, 45, 44
1, 420010, Note_on_c, 0, 71, 0
1, 420010, Note_on_c, 0, 50, 0
1, 420010, Note_on_c, 0, 59, 0
1, 420240, Tempo, 390422
1, 420240, Note_on_c, 0, 69, 46
1, 420240, Note_on_c, 0, 57, 37
1, 420240, Note_on_c, 0, 48, 42
1, 420250, Note_on_c, 0, 72, 0
1, 420250, Note_on_c, 0, 45, 0
1, 420250, Note_on_c, 0, 60, 0
1, 420480, Tempo, 383926
1, 420480, Note_on_c, 0, 69, 0
1, 420480, Note_on_c, 0, 57, 0
1, 420480, Note_on_c, 0, 48, 0
1, 420480, Note_on_c, 0, 71, 54
1, 420480, Note_on_c, 0, 59, 44
1, 420480, Note_on_c, 0, 43, 47
1, 420720, Tempo, 390422
1, 420720, Note_on_c, 0, 67, 50
1, 420720, Note_on_c, 0, 55, 42
1, 420720, Note_on_c, 0, 47, 46
1, 420730, Note_on_c, 0, 43, 0
1, 420730, Note_on_c, 0, 71, 0
1, 420730, Note_on_c, 0, 59, 0
1, 420960, Tempo, 385183
1, 420960, Note_on_c, 0, 69, 50
1, 420960, Note_on_c, 0, 57, 42
1, 420960, Note_on_c, 0, 41, 47
1, 420970, Note_on_c, 0, 67, 0
1, 420970, Note_on_c, 0, 47, 0
1, 420970, Note_on_c, 0, 55, 0
1, 421200, Tempo, 389105
1, 421200, Note_on_c, 0, 65, 47
1, 421200, Note_on_c, 0, 53, 39
1, 421200, Note_on_c, 0, 45, 42
1, 421210, Note_on_c, 0, 69, 0
1, 421210, Note_on_c, 0, 41, 0
1, 421210, Note_on_c, 0, 57, 0
1, 421440, Tempo, 382751
1, 421440, Note_on_c, 0, 65, 0
1, 421440, Note_on_c, 0, 53, 0
1, 421440, Note_on_c, 0, 45, 0
1, 421440, Note_on_c, 0, 67, 55
1, 421440, Note_on_c, 0, 55, 46
1, 421440, Note_on_c, 0, 40, 48
1, 421680, Tempo, 390244
1, 421680, Note_on_c, 0, 64, 51
1, 421680, Note_on_c, 0, 52, 43
1, 421680, Note_on_c, 0, 43, 47
1, 421690, Note_on_c, 0, 40, 0
1, 421690, Note_on_c, 0, 67, 0
1, 421690, Note_on_c, 0, 55, 0
1, 421920, Tempo, 390244
1, 421920, Note_on_c, 0, 65, 51
1, 421920, Note_on_c, 0, 53, 43
1, 421920, Note_on_c, 0, 31, 47
1, 421920, Note_on_c, 0, 38, 47
1, 421930, Note_on_c, 0, 64, 0
1, 421930, Note_on_c, 0, 43, 0
1, 421930, Note_on_c, 0, 52, 0
1, 422160, Tempo, 399867
1, 422160, Note_on_c, 0, 59, 48
1, 422160, Note_on_c, 0, 47, 40
1, 422160, Note_on_c, 0, 43, 43
1, 422170, Note_on_c, 0, 53, 0
1, 422170, Note_on_c, 0, 38, 0
1, 422170, Note_on_c, 0, 65, 0
1, 422170, Note_on_c, 0, 31, 0
1, 422390, Tempo, 390422
1, 422400, Tempo, 398618
1, 422400, Note_on_c, 0, 43, 0
1, 422400, Note_on_c, 0, 59, 0
1, 422400, Note_on_c, 0, 47, 0
1, 422400, Note_on_c, 0, 51, 104
1, 422400, Note_on_c, 0, 60, 104
1, 422400, Note_on_c, 0, 32, 79
1, 422400, Note_on_c, 0, 44, 94
1, 422492, Control_c, 0, 64, 127
1, 422640, Note_on_c, 0, 44, 0
1, 422640, Note_on_c, 0, 51, 0
1, 422640, Note_on_c, 0, 60, 0
1, 422640, Note_on_c, 0, 32, 0
1, 422880, Note_on_c, 0, 63, 98
1, 422880, Note_on_c, 0, 60, 89
1, 422880, Note_on_c, 0, 56, 82
1, 423000, Note_on_c, 0, 56, 0
1, 423000, Note_on_c, 0, 60, 0
1, 423000, Note_on_c, 0, 63, 0
1, 423360, Note_on_c, 0, 63, 98
1, 423360, Note_on_c, 0, 60, 89
1, 423360, Note_on_c, 0, 56, 82
1, 423520, Tempo, 386847
1, 423520, Note_on_c, 0, 72, 74
1, 423680, Note_on_c, 0, 72, 0
1, 423680, Note_on_c, 0, 75, 74
1, 423840, Note_on_c, 0, 75, 0
1, 423840, Note_on_c, 0, 80, 78
1, 424000, Note_on_c, 0, 80, 0
1, 424000, Note_on_c, 0, 84, 74
1, 424160, Tempo, 406862
1, 424160, Note_on_c, 0, 84, 0
1, 424160, Note_on_c, 0, 87, 74
1, 424320, Tempo, 380325
1, 424320, Note_on_c, 0, 87, 0
1, 424320, Note_on_c, 0, 63, 0
1, 424320, Note_on_c, 0, 60, 0
1, 424320, Note_on_c, 0, 56, 0
1, 424320, Note_on_c, 0, 85, 58
1, 424320, Note_on_c, 0, 39, 47
1, 424325, Control_c, 0, 64, 0
1, 424417, Control_c, 0, 64, 127
1, 424480, Note_on_c, 0, 85, 0
1, 424480, Note_on_c, 0, 82, 49
1, 424560, Note_on_c, 0, 39, 0
1, 424640, Note_on_c, 0, 82, 0
1, 424640, Note_on_c, 0, 79, 49
1, 424800, Tempo, 381534
1, 424800, Note_on_c, 0, 79, 0
1, 424800, Note_on_c, 0, 73, 55
1, 424800, Note_on_c, 0, 61, 40
1, 424800, Note_on_c, 0, 58, 34
1, 424800, Note_on_c, 0, 55, 34
1, 424800, Note_on_c, 0, 51, 34
1, 424880, Tempo, 382751
1, 424940, Tempo, 383975
1, 424960, Note_on_c, 0, 73, 0
1, 424960, Note_on_c, 0, 70, 50
1, 425000, Tempo, 385233
1, 425040, Note_on_c, 0, 55, 0
1, 425040, Note_on_c, 0, 51, 0
1, 425040, Note_on_c, 0, 61, 0
1, 425040, Note_on_c, 0, 58, 0
1, 425060, Tempo, 386449
1, 425120, Tempo, 409696
1, 425120, Note_on_c, 0, 70, 0
1, 425120, Note_on_c, 0, 67, 50
1, 425280, Tempo, 382751
1, 425280, Note_on_c, 0, 67, 0
1, 425280, Note_on_c, 0, 85, 56
1, 425280, Note_on_c, 0, 40, 47
1, 425280, Control_c, 0, 64, 0
1, 425343, Control_c, 0, 64, 127
1, 425440, Note_on_c, 0, 85, 0
1, 425440, Note_on_c, 0, 82, 49
1, 425520, Note_on_c, 0, 40, 0
1, 425600, Note_on_c, 0, 82, 0
1, 425600, Note_on_c, 0, 79, 49
1, 425760, Note_on_c, 0, 79, 0
1, 425760, Note_on_c, 0, 73, 55
1, 425760, Note_on_c, 0, 61, 40
1, 425760, Note_on_c, 0, 58, 34
1, 425760, Note_on_c, 0, 55, 34
1, 425760, Note_on_c, 0, 52, 34
1, 425920, Note_on_c, 0, 73, 0
1, 425920, Note_on_c, 0, 70, 50
1, 426000, Note_on_c, 0, 55, 0
1, 426000, Note_on_c, 0, 52, 0
1, 426000, Note_on_c, 0, 61, 0
1, 426000, Note_on_c, 0, 58, 0
1, 426080, Tempo, 422922
1, 426080, Note_on_c, 0, 70, 0
1, 426080, Note_on_c, 0, 67, 50
1, 426240, Tempo, 398618
1, 426240, Note_on_c, 0, 67, 0
1, 426240, Note_on_c, 0, 41, 94
1, 426246, Control_c, 0, 64, 0
1, 426326, Control_c, 0, 64, 127
1, 426480, Note_on_c, 0, 41, 0
1, 426720, Note_on_c, 0, 60, 98
1, 426720, Note_on_c, 0, 56, 89
1, 426720, Note_on_c, 0, 53, 82
1, 426840, Note_on_c, 0, 53, 0
1, 426840, Note_on_c, 0, 56, 0
1, 426840, Note_on_c, 0, 60, 0
1, 427200, Note_on_c, 0, 60, 98
1, 427200, Note_on_c, 0, 56, 89
1, 427200, Note_on_c, 0, 53, 82
1, 427360, Tempo, 386847
1, 427360, Note_on_c, 0, 68, 74
1, 427520, Note_on_c, 0, 68, 0
1, 427520, Note_on_c, 0, 72, 74
1, 427680, Note_on_c, 0, 72, 0
1, 427680, Note_on_c, 0, 77, 78
1, 427840, Note_on_c, 0, 77, 0
1, 427840, Note_on_c, 0, 80, 74
1, 428000, Tempo, 406862
1, 428000, Note_on_c, 0, 80, 0
1, 428000, Note_on_c, 0, 84, 74
1, 428160, Tempo, 381534
1, 428160, Note_on_c, 0, 84, 0
1, 428160, Note_on_c, 0, 60, 0
1, 428160, Note_on_c, 0, 56, 0
1, 428160, Note_on_c, 0, 53, 0
1, 428160, Note_on_c, 0, 82, 58
1, 428160, Note_on_c, 0, 36, 47
1, 428160, Control_c, 0, 64, 0
1, 428257, Control_c, 0, 64, 127
1, 428320, Note_on_c, 0, 82, 0
1, 428320, Note_on_c, 0, 79, 49
1, 428400, Note_on_c, 0, 36, 0
1, 428480, Note_on_c, 0, 79, 0
1, 428480, Note_on_c, 0, 76, 49
1, 428640, Note_on_c, 0, 76, 0
1, 428640, Note_on_c, 0, 70, 55
1, 428640, Note_on_c, 0, 58, 40
1, 428640, Note_on_c, 0, 55, 34
1, 428640, Note_on_c, 0, 52, 34
1, 428640, Note_on_c, 0, 48, 34
1, 428800, Note_on_c, 0, 70, 0
1, 428800, Note_on_c, 0, 67, 50
1, 428880, Note_on_c, 0, 52, 0
1, 428880, Note_on_c, 0, 48, 0
1, 428880, Note_on_c, 0, 58, 0
1, 428880, Note_on_c, 0, 55, 0
1, 428960, Tempo, 409696
1, 428960, Note_on_c, 0, 67, 0
1, 428960, Note_on_c, 0, 64, 50
1, 429120, Tempo, 382751
1, 429120, Note_on_c, 0, 64, 0
1, 429120, Note_on_c, 0, 82, 56
1, 429120, Note_on_c, 0, 36, 47
1, 429280, Note_on_c, 0, 82, 0
1, 429280, Note_on_c, 0, 79, 49
1, 429360, Note_on_c, 0, 36, 0
1, 429440, Note_on_c, 0, 79, 0
1, 429440, Note_on_c, 0, 76, 49
1, 429600, Note_on_c, 0, 76, 0
1, 429600, Note_on_c, 0, 70, 55
1, 429600, Note_on_c, 0, 58, 40
1, 429600, Note_on_c, 0, 55, 34
1, 429600, Note_on_c, 0, 52, 34
1, 429600, Note_on_c, 0, 48, 34
1, 429760, Note_on_c, 0, 70, 0
1, 429760, Note_on_c, 0, 67, 50
1, 429840, Note_on_c, 0, 52, 0
1, 429840, Note_on_c, 0, 48, 0
1, 429840, Note_on_c, 0, 58, 0
1, 429840, Note_on_c, 0, 55, 0
1, 429920, Note_on_c, 0, 67, 0
1, 429920, Note_on_c, 0, 64, 50
1, 430080, Tempo, 398618
1, 430080, Note_on_c, 0, 64, 0
1, 430080, Note_on_c, 0, 37, 94
1, 430083, Control_c, 0, 64, 0
1, 430177, Control_c, 0, 64, 127
1, 430320, Note_on_c, 0, 37, 0
1, 430560, Note_on_c, 0, 56, 88
1, 430560, Note_on_c, 0, 53, 80
1, 430560, Note_on_c, 0, 49, 73
1, 430680, Note_on_c, 0, 49, 0
1, 430680, Note_on_c, 0, 53, 0
1, 430680, Note_on_c, 0, 56, 0
1, 431040, Note_on_c, 0, 56, 88
1, 431040, Note_on_c, 0, 53, 80
1, 431040, Note_on_c, 0, 49, 73
1, 431200, Tempo, 386847
1, 431200, Note_on_c, 0, 65, 74
1, 431360, Note_on_c, 0, 65, 0
1, 431360, Note_on_c, 0, 68, 74
1, 431520, Note_on_c, 0, 68, 0
1, 431520, Note_on_c, 0, 73, 78
1, 431680, Note_on_c, 0, 73, 0
1, 431680, Note_on_c, 0, 77, 74
1, 431840, Tempo, 406862
1, 431840, Note_on_c, 0, 77, 0
1, 431840, Note_on_c, 0, 80, 74
1, 432000, Tempo, 382751
1, 432000, Note_on_c, 0, 80, 0
1, 432000, Note_on_c, 0, 56, 0
1, 432000, Note_on_c, 0, 53, 0
1, 432000, Note_on_c, 0, 49, 0
1, 432000, Note_on_c, 0, 78, 58
1, 432000, Note_on_c, 0, 32, 47
1, 432000, Control_c, 0, 64, 0
1, 432086, Control_c, 0, 64, 127
1, 432160, Note_on_c, 0, 78, 0
1, 432160, Note_on_c, 0, 75, 49
1, 432240, Note_on_c, 0, 32, 0
1, 432320, Note_on_c, 0, 75, 0
1, 432320, Note_on_c, 0, 72, 49
1, 432480, Note_on_c, 0, 72, 0
1, 432480, Note_on_c, 0, 66, 55
1, 432480, Note_on_c, 0, 54, 40
1, 432480, Note_on_c, 0, 51, 34
1, 432480, Note_on_c, 0, 48, 34
1, 432480, Note_on_c, 0, 44, 34
1, 432640, Note_on_c, 0, 66, 0
1, 432640, Note_on_c, 0, 63, 50
1, 432720, Note_on_c, 0, 48, 0
1, 432720, Note_on_c, 0, 44, 0
1, 432720, Note_on_c, 0, 54, 0
1, 432720, Note_on_c, 0, 51, 0
1, 432800, Tempo, 409696
1, 432800, Note_on_c, 0, 63, 0
1, 432800, Note_on_c, 0, 60, 50
1, 432960, Tempo, 383975
1, 432960, Note_on_c, 0, 60, 0
1, 432960, Note_on_c, 0, 78, 56
1, 432960, Note_on_c, 0, 33, 47
1, 432968, Control_c, 0, 64, 0
1, 433057, Control_c, 0, 64, 127
1, 433120, Note_on_c, 0, 78, 0
1, 433120, Note_on_c, 0, 75, 49
1, 433200, Note_on_c, 0, 33, 0
1, 433280, Note_on_c, 0, 75, 0
1, 433280, Note_on_c, 0, 72, 49
1, 433440, Note_on_c, 0, 72, 0
1, 433440, Note_on_c, 0, 66, 55
1, 433440, Note_on_c, 0, 54, 40
1, 433440, Note_on_c, 0, 51, 34
1, 433440, Note_on_c, 0, 48, 34
1, 433440, Note_on_c, 0, 45, 34
1, 433600, Note_on_c, 0, 66, 0
1, 433600, Note_on_c, 0, 63, 50
1, 433680, Note_on_c, 0, 48, 0
1, 433680, Note_on_c, 0, 45, 0
1, 433680, Note_on_c, 0, 54, 0
1, 433680, Note_on_c, 0, 51, 0
1, 433760, Note_on_c, 0, 63, 0
1, 433760, Note_on_c, 0, 60, 50
1, 433800, Tempo, 405488
1, 433920, Tempo, 388149
1, 433920, Note_on_c, 0, 60, 0
1, 433920, Note_on_c, 0, 34, 58
1, 433926, Control_c, 0, 64, 0
1, 433970, Control_c, 0, 64, 127
1, 434080, Note_on_c, 0, 34, 0
1, 434080, Note_on_c, 0, 53, 39
1, 434240, Note_on_c, 0, 53, 0
1, 434240, Note_on_c, 0, 58, 40
1, 434400, Note_on_c, 0, 58, 0
1, 434400, Note_on_c, 0, 61, 41
1, 434400, Note_on_c, 0, 53, 32
1, 434400, Note_on_c, 0, 49, 27
1, 434400, Note_on_c, 0, 46, 27
1, 434560, Note_on_c, 0, 61, 0
1, 434560, Note_on_c, 0, 65, 43
1, 434640, Note_on_c, 0, 53, 0
1, 434640, Note_on_c, 0, 46, 0
1, 434640, Note_on_c, 0, 49, 0
1, 434720, Note_on_c, 0, 65, 0
1, 434720, Note_on_c, 0, 70, 44
1, 434880, Note_on_c, 0, 70, 0
1, 434880, Note_on_c, 0, 73, 46
1, 434880, Note_on_c, 0, 46, 27
1, 434880, Note_on_c, 0, 49, 27
1, 434880, Note_on_c, 0, 53, 32
1, 435040, Note_on_c, 0, 73, 0
1, 435040, Note_on_c, 0, 77, 45
1, 435200, Tempo, 405488
1, 435200, Note_on_c, 0, 77, 0
1, 435200, Note_on_c, 0, 82, 47
1, 435360, Tempo, 393314
1, 435360, Note_on_c, 0, 82, 0
1, 435360, Note_on_c, 0, 85, 49
1, 435520, Note_on_c, 0, 85, 0
1, 435520, Note_on_c, 0, 89, 45
1, 435680, Tempo, 430601
1, 435680, Note_on_c, 0, 89, 0
1, 435680, Note_on_c, 0, 77, 41
1, 435840, Tempo, 388149
1, 435840, Note_on_c, 0, 77, 0
1, 435840, Note_on_c, 0, 53, 0
1, 435840, Note_on_c, 0, 49, 0
1, 435840, Note_on_c, 0, 46, 0
1, 435840, Note_on_c, 0, 32, 58
1, 435854, Control_c, 0, 64, 0
1, 435893, Control_c, 0, 64, 127
1, 436000, Note_on_c, 0, 32, 0
1, 436000, Note_on_c, 0, 53, 39
1, 436160, Note_on_c, 0, 53, 0
1, 436160, Note_on_c, 0, 56, 40
1, 436320, Note_on_c, 0, 56, 0
1, 436320, Note_on_c, 0, 60, 41
1, 436320, Note_on_c, 0, 53, 32
1, 436320, Note_on_c, 0, 48, 27
1, 436320, Note_on_c, 0, 44, 27
1, 436480, Note_on_c, 0, 60, 0
1, 436480, Note_on_c, 0, 65, 43
1, 436560, Note_on_c, 0, 53, 0
1, 436560, Note_on_c, 0, 44, 0
1, 436560, Note_on_c, 0, 48, 0
1, 436640, Note_on_c, 0, 65, 0
1, 436640, Note_on_c, 0, 68, 44
1, 436800, Note_on_c, 0, 68, 0
1, 436800, Note_on_c, 0, 72, 46
1, 436800, Note_on_c, 0, 44, 27
1, 436800, Note_on_c, 0, 48, 27
1, 436800, Note_on_c, 0, 53, 32
1, 436960, Note_on_c, 0, 72, 0
1, 436960, Note_on_c, 0, 77, 45
1, 437120, Tempo, 405488
1, 437120, Note_on_c, 0, 77, 0
1, 437120, Note_on_c, 0, 80, 47
1, 437280, Tempo, 393314
1, 437280, Note_on_c, 0, 80, 0
1, 437280, Note_on_c, 0, 84, 49
1, 437440, Note_on_c, 0, 84, 0
1, 437440, Note_on_c, 0, 89, 45
1, 437600, Tempo, 430601
1, 437600, Note_on_c, 0, 89, 0
1, 437600, Note_on_c, 0, 77, 41
1, 437760, Tempo, 388149
1, 437760, Note_on_c, 0, 77, 0
1, 437760, Note_on_c, 0, 53, 0
1, 437760, Note_on_c, 0, 48, 0
1, 437760, Note_on_c, 0, 44, 0
1, 437760, Note_on_c, 0, 31, 58
1, 437769, Control_c, 0, 64, 0
1, 437824, Control_c, 0, 64, 127
1, 437920, Note_on_c, 0, 31, 0
1, 437920, Note_on_c, 0, 53, 39
1, 438080, Note_on_c, 0, 53, 0
1, 438080, Note_on_c, 0, 59, 40
1, 438240, Note_on_c, 0, 59, 0
1, 438240, Note_on_c, 0, 62, 41
1, 438240, Note_on_c, 0, 43, 27
1, 438240, Note_on_c, 0, 53, 32
1, 438240, Note_on_c, 0, 50, 27
1, 438240, Note_on_c, 0, 47, 27
1, 438400, Note_on_c, 0, 62, 0
1, 438400, Note_on_c, 0, 65, 43
1, 438480, Note_on_c, 0, 50, 0
1, 438480, Note_on_c, 0, 47, 0
1, 438480, Note_on_c, 0, 43, 0
1, 438480, Note_on_c, 0, 53, 0
1, 438560, Note_on_c, 0, 65, 0
1, 438560, Note_on_c, 0, 71, 44
1, 438720, Note_on_c, 0, 71, 0
1, 438720, Note_on_c, 0, 74, 46
1, 438720, Note_on_c, 0, 43, 27
1, 438720, Note_on_c, 0, 47, 27
1, 438720, Note_on_c, 0, 50, 27
1, 438720, Note_on_c, 0, 53, 32
1, 438880, Note_on_c, 0, 74, 0
1, 438880, Note_on_c, 0, 77, 45
1, 439040, Tempo, 405488
1, 439040, Note_on_c, 0, 77, 0
1, 439040, Note_on_c, 0, 83, 47
1, 439200, Tempo, 393314
1, 439200, Note_on_c, 0, 83, 0
1, 439200, Note_on_c, 0, 86, 49
1, 439360, Note_on_c, 0, 86, 0
1, 439360, Note_on_c, 0, 89, 45
1, 439520, Tempo, 430601
1, 439520, Note_on_c, 0, 89, 0
1, 439520, Note_on_c, 0, 77, 41
1, 439680, Tempo, 388149
1, 439680, Note_on_c, 0, 77, 0
1, 439680, Note_on_c, 0, 53, 0
1, 439680, Note_on_c, 0, 43, 0
1, 439680, Note_on_c, 0, 47, 0
1, 439680, Note_on_c, 0, 50, 0
1, 439680, Note_on_c, 0, 32, 58
1, 439688, Control_c, 0, 64, 0
1, 439746, Control_c, 0, 64, 127
1, 439840, Note_on_c, 0, 32, 0
1, 439840, Note_on_c, 0, 51, 39
1, 440000, Note_on_c, 0, 51, 0
1, 440000, Note_on_c, 0, 56, 40
1, 440160, Note_on_c, 0, 56, 0
1, 440160, Note_on_c, 0, 60, 41
1, 440160, Note_on_c, 0, 51, 32
1, 440160, Note_on_c, 0, 48, 27
1, 440160, Note_on_c, 0, 44, 27
1, 440320, Note_on_c, 0, 60, 0
1, 440320, Note_on_c, 0, 63, 43
1, 440400, Note_on_c, 0, 51, 0
1, 440400, Note_on_c, 0, 44, 0
1, 440400, Note_on_c, 0, 48, 0
1, 440480, Note_on_c, 0, 63, 0
1, 440480, Note_on_c, 0, 68, 44
1, 440640, Note_on_c, 0, 68, 0
1, 440640, Note_on_c, 0, 72, 46
1, 440640, Note_on_c, 0, 44, 27
1, 440640, Note_on_c, 0, 48, 27
1, 440640, Note_on_c, 0, 51, 32
1, 440800, Note_on_c, 0, 72, 0
1, 440800, Note_on_c, 0, 75, 45
1, 440960, Tempo, 405488
1, 440960, Note_on_c, 0, 75, 0
1, 440960, Note_on_c, 0, 80, 47
1, 441120, Tempo, 393314
1, 441120, Note_on_c, 0, 80, 0
1, 441120, Note_on_c, 0, 84, 49
1, 441280, Note_on_c, 0, 84, 0
1, 441280, Note_on_c, 0, 87, 45
1, 441440, Tempo, 430601
1, 441440, Note_on_c, 0, 87, 0
1, 441440, Note_on_c, 0, 75, 41
1, 441600, Tempo, 389408
1, 441600, Note_on_c, 0, 75, 0
1, 441600, Note_on_c, 0, 51, 0
1, 441600, Note_on_c, 0, 48, 0
1, 441600, Note_on_c, 0, 44, 0
1, 441600, Note_on_c, 0, 33, 41
1, 441608, Control_c, 0, 64, 0
1, 441663, Control_c, 0, 64, 127
1, 441760, Note_on_c, 0, 33, 0
1, 441760, Note_on_c, 0, 36, 37
1, 441920, Note_on_c, 0, 36, 0
1, 441920, Note_on_c, 0, 39, 37
1, 442080, Note_on_c, 0, 39, 0
1, 442080, Note_on_c, 0, 42, 41
1, 442240, Note_on_c, 0, 42, 0
1, 442240, Note_on_c, 0, 45, 37
1, 442400, Note_on_c, 0, 45, 0
1, 442400, Note_on_c, 0, 48, 37
1, 442560, Note_on_c, 0, 48, 0
1, 442560, Note_on_c, 0, 51, 41
1, 442720, Note_on_c, 0, 51, 0
1, 442720, Note_on_c, 0, 54, 38
1, 442880, Note_on_c, 0, 54, 0
1, 442880, Note_on_c, 0, 57, 39
1, 443040, Note_on_c, 0, 57, 0
1, 443040, Note_on_c, 0, 60, 45
1, 443200, Note_on_c, 0, 60, 0
1, 443200, Note_on_c, 0, 63, 41
1, 443360, Note_on_c, 0, 63, 0
1, 443360, Note_on_c, 0, 66, 41
1, 443520, Note_on_c, 0, 66, 0
1, 443520, Note_on_c, 0, 69, 46
1, 443680, Note_on_c, 0, 69, 0
1, 443680, Note_on_c, 0, 72, 41
1, 443840, Note_on_c, 0, 72, 0
1, 443840, Note_on_c, 0, 75, 41
1, 444000, Note_on_c, 0, 75, 0
1, 444000, Note_on_c, 0, 78, 46
1, 444160, Note_on_c, 0, 78, 0
1, 444160, Note_on_c, 0, 81, 41
1, 444320, Note_on_c, 0, 81, 0
1, 444320, Note_on_c, 0, 84, 41
1, 444480, Tempo, 390701
1, 444480, Note_on_c, 0, 84, 0
1, 444480, Note_on_c, 0, 87, 47
1, 444560, Tempo, 391978
1, 444640, Tempo, 393314
1, 444640, Note_on_c, 0, 87, 0
1, 444640, Note_on_c, 0, 84, 43
1, 444720, Tempo, 394633
1, 444800, Tempo, 395935
1, 444800, Note_on_c, 0, 84, 0
1, 444800, Note_on_c, 0, 81, 43
1, 444880, Tempo, 397298
1, 444960, Tempo, 398618
1, 444960, Note_on_c, 0, 81, 0
1, 444960, Note_on_c, 0, 90, 47
1, 445040, Tempo, 399947
1, 445120, Tempo, 401311
1, 445120, Note_on_c, 0, 90, 0
1, 445120, Note_on_c, 0, 87, 43
1, 445180, Tempo, 402712
1, 445200, Tempo, 404040
1, 445220, Tempo, 412541
1, 445240, Tempo, 422922
1, 445260, Tempo, 432246
1, 445280, Tempo, 443590
1, 445280, Note_on_c, 0, 87, 0
1, 445280, Note_on_c, 0, 84, 43
1, 445300, Tempo, 453823
1, 445320, Tempo, 466345
1, 445340, Tempo, 477669
1, 445360, Tempo, 491642
1, 445380, Tempo, 504286
1, 445400, Tempo, 519796
1, 445440, Tempo, 466345
1, 445440, Note_on_c, 0, 84, 0
1, 445440, Note_on_c, 0, 31, 41
1, 445440, Note_on_c, 0, 36, 41
1, 445440, Note_on_c, 0, 40, 41
1, 445440, Note_on_c, 0, 43, 41
1, 445458, Control_c, 0, 64, 0
1, 445560, Tempo, 390701
1, 445560, Note_on_c, 0, 91, 49
1, 445560, Note_on_c, 0, 79, 41
1, 445680, Note_on_c, 0, 43, 0
1, 445680, Note_on_c, 0, 40, 0
1, 445680, Note_on_c, 0, 31, 0
1, 445680, Note_on_c, 0, 36, 0
1, 445680, Note_on_c, 0, 89, 49
1, 445680, Note_on_c, 0, 77, 41
1, 445690, Note_on_c, 0, 79, 0
1, 445690, Note_on_c, 0, 91, 0
1, 445800, Note_on_c, 0, 88, 49
1, 445800, Note_on_c, 0, 76, 41
1, 445810, Note_on_c, 0, 89, 0
1, 445810, Note_on_c, 0, 77, 0
1, 445920, Note_on_c, 0, 86, 48
1, 445920, Note_on_c, 0, 74, 40
1, 445930, Note_on_c, 0, 88, 0
1, 445930, Note_on_c, 0, 76, 0
1, 446040, Note_on_c, 0, 84, 48
1, 446040, Note_on_c, 0, 72, 40
1, 446050, Note_on_c, 0, 86, 0
1, 446050, Note_on_c, 0, 74, 0
1, 446160, Note_on_c, 0, 83, 47
1, 446160, Note_on_c, 0, 71, 39
1, 446170, Note_on_c, 0, 84, 0
1, 446170, Note_on_c, 0, 72, 0
1, 446280, Note_on_c, 0, 81, 39
1, 446280, Note_on_c, 0, 69, 39
1, 446290, Note_on_c, 0, 83, 0
1, 446290, Note_on_c, 0, 71, 0
1, 446400, Note_on_c, 0, 67, 39
1, 446400, Note_on_c, 0, 79, 47
1, 446410, Note_on_c, 0, 81, 0
1, 446410, Note_on_c, 0, 69, 0
1, 446620, Tempo, 391978
1, 446640, Note_on_c, 0, 67, 0
1, 446640, Note_on_c, 0, 79, 0
1, 446640, Note_on_c, 0, 65, 38
1, 446640, Note_on_c, 0, 77, 45
1, 446680, Tempo, 393314
1, 446740, Tempo, 394633
1, 446760, Note_on_c, 0, 64, 38
1, 446760, Note_on_c, 0, 76, 45
1, 446770, Note_on_c, 0, 77, 0
1, 446770, Note_on_c, 0, 65, 0
1, 446780, Tempo, 395935
1, 446840, Tempo, 397298
1, 446880, Tempo, 398618
1, 446880, Note_on_c, 0, 62, 37
1, 446880, Note_on_c, 0, 74, 44
1, 446890, Note_on_c, 0, 64, 0
1, 446890, Note_on_c, 0, 76, 0
1, 446940, Tempo, 399947
1, 446980, Tempo, 401311
1, 447000, Note_on_c, 0, 60, 37
1, 447000, Note_on_c, 0, 72, 44
1, 447010, Note_on_c, 0, 62, 0
1, 447010, Note_on_c, 0, 74, 0
1, 447040, Tempo, 402712
1, 447080, Tempo, 404040
1, 447120, Tempo, 404040
1, 447120, Note_on_c, 0, 59, 36
1, 447120, Note_on_c, 0, 71, 43
1, 447130, Note_on_c, 0, 60, 0
1, 447130, Note_on_c, 0, 72, 0
1, 447140, Tempo, 405488
1, 447160, Tempo, 408274
1, 447180, Tempo, 411100
1, 447200, Tempo, 413993
1, 447220, Tempo, 415455
1, 447240, Tempo, 418439
1, 447240, Note_on_c, 0, 57, 35
1, 447240, Note_on_c, 0, 69, 42
1, 447250, Note_on_c, 0, 59, 0
1, 447250, Note_on_c, 0, 71, 0
1, 447260, Tempo, 421408
1, 447280, Tempo, 424418
1, 447300, Tempo, 425955
1, 447320, Tempo, 429062
1, 447340, Tempo, 432246
1, 447360, Tempo, 435414
1, 447360, Note_on_c, 0, 60, 35
1, 447360, Note_on_c, 0, 55, 35
1, 447360, Note_on_c, 0, 64, 35
1, 447360, Note_on_c, 0, 67, 42
1, 447370, Note_on_c, 0, 57, 0
1, 447370, Note_on_c, 0, 69, 0
1, 447480, Tempo, 390701
1, 447480, Note_on_c, 0, 31, 29
1, 447480, Note_on_c, 0, 43, 35
1, 447600, Note_on_c, 0, 33, 29
1, 447600, Note_on_c, 0, 45, 35
1, 447610, Note_on_c, 0, 43, 0
1, 447610, Note_on_c, 0, 31, 0
1, 447720, Note_on_c, 0, 35, 30
1, 447720, Note_on_c, 0, 47, 36
1, 447730, Note_on_c, 0, 45, 0
1, 447730, Note_on_c, 0, 33, 0
1, 447840, Note_on_c, 0, 36, 31
1, 447840, Note_on_c, 0, 48, 37
1, 447850, Note_on_c, 0, 47, 0
1, 447850, Note_on_c, 0, 35, 0
1, 447960, Note_on_c, 0, 38, 31
1, 447960, Note_on_c, 0, 50, 37
1, 447970, Note_on_c, 0, 48, 0
1, 447970, Note_on_c, 0, 36, 0
1, 448080, Note_on_c, 0, 40, 32
1, 448080, Note_on_c, 0, 52, 38
1, 448090, Note_on_c, 0, 50, 0
1, 448090, Note_on_c, 0, 38, 0
1, 448200, Note_on_c, 0, 41, 32
1, 448200, Note_on_c, 0, 53, 38
1, 448210, Note_on_c, 0, 52, 0
1, 448210, Note_on_c, 0, 40, 0
1, 448320, Note_on_c, 0, 64, 0
1, 448320, Note_on_c, 0, 55, 0
1, 448320, Note_on_c, 0, 60, 0
1, 448320, Note_on_c, 0, 59, 35
1, 448320, Note_on_c, 0, 62, 35
1, 448320, Note_on_c, 0, 43, 33
1, 448320, Note_on_c, 0, 55, 39
1, 448330, Note_on_c, 0, 53, 0
1, 448330, Note_on_c, 0, 41, 0
1, 448560, Note_on_c, 0, 43, 0
1, 448560, Note_on_c, 0, 55, 0
1, 448560, Note_on_c, 0, 45, 31
1, 448560, Note_on_c, 0, 57, 37
1, 448680, Note_on_c, 0, 47, 32
1, 448680, Note_on_c, 0, 59, 38
1, 448690, Note_on_c, 0, 57, 0
1, 448690, Note_on_c, 0, 45, 0
1, 448800, Note_on_c, 0, 62, 0
1, 448800, Note_on_c, 0, 67, 0
1, 448800, Note_on_c, 0, 59, 0
1, 448800, Note_on_c, 0, 74, 42
1, 448800, Note_on_c, 0, 77, 46
1, 448800, Note_on_c, 0, 48, 33
1, 448800, Note_on_c, 0, 60, 39
1, 448810, Note_on_c, 0, 59, 0
1, 448810, Note_on_c, 0, 47, 0
1, 448920, Note_on_c, 0, 50, 34
1, 448920, Note_on_c, 0, 62, 40
1, 448930, Note_on_c, 0, 48, 0
1, 448930, Note_on_c, 0, 60, 0
1, 449040, Note_on_c, 0, 52, 35
1, 449040, Note_on_c, 0, 64, 42
1, 449050, Note_on_c, 0, 50, 0
1, 449050, Note_on_c, 0, 62, 0
1, 449160, Note_on_c, 0, 53, 36
1, 449160, Note_on_c, 0, 65, 43
1, 449170, Note_on_c, 0, 52, 0
1, 449170, Note_on_c, 0, 64, 0
1, 449280, Note_on_c, 0, 74, 0
1, 449280, Note_on_c, 0, 77, 0
1, 449280, Note_on_c, 0, 72, 41
1, 449280, Note_on_c, 0, 76, 49
1, 449280, Note_on_c, 0, 55, 37
1, 449280, Note_on_c, 0, 67, 44
1, 449290, Note_on_c, 0, 65, 0
1, 449290, Note_on_c, 0, 53, 0
1, 449340, Note_on_c, 0, 76, 0
1, 449340, Note_on_c, 0, 72, 0
1, 449400, Tempo, 390701
1, 449400, Note_on_c, 0, 91, 49
1, 449400, Note_on_c, 0, 79, 41
1, 449520, Note_on_c, 0, 67, 0
1, 449520, Note_on_c, 0, 55, 0
1, 449520, Note_on_c, 0, 89, 49
1, 449520, Note_on_c, 0, 77, 41
1, 449530, Note_on_c, 0, 91, 0
1, 449530, Note_on_c, 0, 79, 0
1, 449640, Note_on_c, 0, 88, 49
1, 449640, Note_on_c, 0, 76, 41
1, 449650, Note_on_c, 0, 89, 0
1, 449650, Note_on_c, 0, 77, 0
1, 449760, Note_on_c, 0, 86, 48
1, 449760, Note_on_c, 0, 74, 40
1, 449770, Note_on_c, 0, 88, 0
1, 449770, Note_on_c, 0, 76, 0
1, 449880, Note_on_c, 0, 84, 48
1, 449880, Note_on_c, 0, 72, 40
1, 449890, Note_on_c, 0, 86, 0
1, 449890, Note_on_c, 0, 74, 0
1, 450000, Note_on_c, 0, 83, 47
1, 450000, Note_on_c, 0, 71, 39
1, 450010, Note_on_c, 0, 84, 0
1, 450010, Note_on_c, 0, 72, 0
1, 450120, Note_on_c, 0, 81, 39
1, 450120, Note_on_c, 0, 69, 39
1, 450130, Note_on_c, 0, 83, 0
1, 450130, Note_on_c, 0, 71, 0
1, 450240, Note_on_c, 0, 67, 39
1, 450240, Note_on_c, 0, 79, 47
1, 450250, Note_on_c, 0, 81, 0
1, 450250, Note_on_c, 0, 69, 0
1, 450460, Tempo, 391978
1, 450480, Note_on_c, 0, 67, 0
1, 450480, Note_on_c, 0, 79, 0
1, 450480, Note_on_c, 0, 65, 38
1, 450480, Note_on_c, 0, 77, 45
1, 450520, Tempo, 393314
1, 450580, Tempo, 394633
1, 450600, Note_on_c, 0, 64, 38
1, 450600, Note_on_c, 0, 76, 45
1, 450610, Note_on_c, 0, 77, 0
1, 450610, Note_on_c, 0, 65, 0
1, 450620, Tempo, 395935
1, 450680, Tempo, 397298
1, 450720, Tempo, 398618
1, 450720, Note_on_c, 0, 62, 37
1, 450720, Note_on_c, 0, 74, 44
1, 450730, Note_on_c, 0, 64, 0
1, 450730, Note_on_c, 0, 76, 0
1, 450780, Tempo, 399947
1, 450820, Tempo, 401311
1, 450840, Note_on_c, 0, 60, 37
1, 450840, Note_on_c, 0, 72, 44
1, 450850, Note_on_c, 0, 62, 0
1, 450850, Note_on_c, 0, 74, 0
1, 450880, Tempo, 402712
1, 450920, Tempo, 404040
1, 450960, Tempo, 404040
1, 450960, Note_on_c, 0, 59, 36
1, 450960, Note_on_c, 0, 71, 43
1, 450970, Note_on_c, 0, 60, 0
1, 450970, Note_on_c, 0, 72, 0
1, 450980, Tempo, 405488
1, 451000, Tempo, 408274
1, 451020, Tempo, 411100
1, 451040, Tempo, 413993
1, 451060, Tempo, 415455
1, 451080, Tempo, 418439
1, 451080, Note_on_c, 0, 57, 35
1, 451080, Note_on_c, 0, 69, 42
1, 451090, Note_on_c, 0, 59, 0
1, 451090, Note_on_c, 0, 71, 0
1, 451100, Tempo, 421408
1, 451120, Tempo, 424418
1, 451140, Tempo, 425955
1, 451160, Tempo, 429062
1, 451180, Tempo, 432246
1, 451200, Tempo, 435414
1, 451200, Note_on_c, 0, 60, 35
1, 451200, Note_on_c, 0, 55, 35
1, 451200, Note_on_c, 0, 64, 35
1, 451200, Note_on_c, 0, 67, 42
1, 451210, Note_on_c, 0, 57, 0
1, 451210, Note_on_c, 0, 69, 0
1, 451320, Tempo, 390701
1, 451320, Note_on_c, 0, 31, 29
1, 451320, Note_on_c, 0, 43, 35
1, 451440, Note_on_c, 0, 33, 29
1, 451440, Note_on_c, 0, 45, 35
1, 451450, Note_on_c, 0, 43, 0
1, 451450, Note_on_c, 0, 31, 0
1, 451560, Note_on_c, 0, 35, 30
1, 451560, Note_on_c, 0, 47, 36
1, 451570, Note_on_c, 0, 45, 0
1, 451570, Note_on_c, 0, 33, 0
1, 451680, Note_on_c, 0, 36, 31
1, 451680, Note_on_c, 0, 48, 37
1, 451690, Note_on_c, 0, 47, 0
1, 451690, Note_on_c, 0, 35, 0
1, 451800, Note_on_c, 0, 38, 31
1, 451800, Note_on_c, 0, 50, 37
1, 451810, Note_on_c, 0, 48, 0
1, 451810, Note_on_c, 0, 36, 0
1, 451920, Note_on_c, 0, 40, 32
1, 451920, Note_on_c, 0, 52, 38
1, 451930, Note_on_c, 0, 50, 0
1, 451930, Note_on_c, 0, 38, 0
1, 452040, Note_on_c, 0, 41, 32
1, 452040, Note_on_c, 0, 53, 38
1, 452050, Note_on_c, 0, 52, 0
1, 452050, Note_on_c, 0, 40, 0
1, 452160, Note_on_c, 0, 64, 0
1, 452160, Note_on_c, 0, 55, 0
1, 452160, Note_on_c, 0, 60, 0
1, 452160, Note_on_c, 0, 59, 35
1, 452160, Note_on_c, 0, 62, 35
1, 452160, Note_on_c, 0, 43, 33
1, 452160, Note_on_c, 0, 55, 39
1, 452170, Note_on_c, 0, 53, 0
1, 452170, Note_on_c, 0, 41, 0
1, 452400, Note_on_c, 0, 43, 0
1, 452400, Note_on_c, 0, 55, 0
1, 452400, Note_on_c, 0, 45, 31
1, 452400, Note_on_c, 0, 57, 37
1, 452520, Note_on_c, 0, 47, 32
1, 452520, Note_on_c, 0, 59, 38
1, 452530, Note_on_c, 0, 57, 0
1, 452530, Note_on_c, 0, 45, 0
1, 452640, Note_on_c, 0, 62, 0
1, 452640, Note_on_c, 0, 67, 0
1, 452640, Note_on_c, 0, 59, 0
1, 452640, Note_on_c, 0, 74, 42
1, 452640, Note_on_c, 0, 77, 46
1, 452640, Note_on_c, 0, 48, 33
1, 452640, Note_on_c, 0, 60, 39
1, 452650, Note_on_c, 0, 59, 0
1, 452650, Note_on_c, 0, 47, 0
1, 452760, Note_on_c, 0, 50, 34
1, 452760, Note_on_c, 0, 62, 40
1, 452770, Note_on_c, 0, 48, 0
1, 452770, Note_on_c, 0, 60, 0
1, 452880, Note_on_c, 0, 52, 35
1, 452880, Note_on_c, 0, 64, 42
1, 452890, Note_on_c, 0, 50, 0
1, 452890, Note_on_c, 0, 62, 0
1, 453000, Note_on_c, 0, 53, 36
1, 453000, Note_on_c, 0, 65, 43
1, 453010, Note_on_c, 0, 52, 0
1, 453010, Note_on_c, 0, 64, 0
1, 453120, Tempo, 590029
1, 453120, Note_on_c, 0, 74, 0
1, 453120, Note_on_c, 0, 77, 0
1, 453120, Note_on_c, 0, 72, 41
1, 453120, Note_on_c, 0, 76, 49
1, 453120, Note_on_c, 0, 55, 37
1, 453120, Note_on_c, 0, 67, 44
1, 453130, Note_on_c, 0, 65, 0
1, 453130, Note_on_c, 0, 53, 0
1, 453180, Note_on_c, 0, 76, 0
1, 453180, Note_on_c, 0, 72, 0
1, 453240, Tempo, 390701
1, 453240, Note_on_c, 0, 91, 49
1, 453240, Note_on_c, 0, 79, 41
1, 453360, Note_on_c, 0, 67, 0
1, 453360, Note_on_c, 0, 55, 0
1, 453360, Note_on_c, 0, 89, 49
1, 453360, Note_on_c, 0, 77, 41
1, 453370, Note_on_c, 0, 91, 0
1, 453370, Note_on_c, 0, 79, 0
1, 453480, Note_on_c, 0, 88, 49
1, 453480, Note_on_c, 0, 76, 41
1, 453490, Note_on_c, 0, 89, 0
1, 453490, Note_on_c, 0, 77, 0
1, 453600, Note_on_c, 0, 86, 48
1, 453600, Note_on_c, 0, 74, 40
1, 453610, Note_on_c, 0, 88, 0
1, 453610, Note_on_c, 0, 76, 0
1, 453720, Note_on_c, 0, 84, 48
1, 453720, Note_on_c, 0, 72, 40
1, 453730, Note_on_c, 0, 86, 0
1, 453730, Note_on_c, 0, 74, 0
1, 453840, Note_on_c, 0, 83, 47
1, 453840, Note_on_c, 0, 71, 39
1, 453850, Note_on_c, 0, 84, 0
1, 453850, Note_on_c, 0, 72, 0
1, 453960, Note_on_c, 0, 81, 39
1, 453960, Note_on_c, 0, 69, 39
1, 453970, Note_on_c, 0, 83, 0
1, 453970, Note_on_c, 0, 71, 0
1, 454080, Note_on_c, 0, 67, 39
1, 454080, Note_on_c, 0, 79, 47
1, 454090, Note_on_c, 0, 81, 0
1, 454090, Note_on_c, 0, 69, 0
1, 454300, Tempo, 391978
1, 454320, Note_on_c, 0, 67, 0
1, 454320, Note_on_c, 0, 79, 0
1, 454320, Note_on_c, 0, 65, 38
1, 454320, Note_on_c, 0, 77, 45
1, 454360, Tempo, 393314
1, 454420, Tempo, 394633
1, 454440, Note_on_c, 0, 64, 38
1, 454440, Note_on_c, 0, 76, 45
1, 454450, Note_on_c, 0, 77, 0
1, 454450, Note_on_c, 0, 65, 0
1, 454460, Tempo, 395935
1, 454520, Tempo, 397298
1, 454560, Tempo, 398618
1, 454560, Note_on_c, 0, 62, 37
1, 454560, Note_on_c, 0, 74, 44
1, 454570, Note_on_c, 0, 64, 0
1, 454570, Note_on_c, 0, 76, 0
1, 454620, Tempo, 399947
1, 454660, Tempo, 401311
1, 454680, Note_on_c, 0, 60, 37
1, 454680, Note_on_c, 0, 72, 44
1, 454690, Note_on_c, 0, 62, 0
1, 454690, Note_on_c, 0, 74, 0
1, 454720, Tempo, 402712
1, 454760, Tempo, 404040
1, 454800, Tempo, 404040
1, 454800, Note_on_c, 0, 59, 36
1, 454800, Note_on_c, 0, 71, 43
1, 454810, Note_on_c, 0, 60, 0
1, 454810, Note_on_c, 0, 72, 0
1, 454820, Tempo, 405488
1, 454840, Tempo, 408274
1, 454860, Tempo, 411100
1, 454880, Tempo, 413993
1, 454900, Tempo, 415455
1, 454920, Tempo, 418439
1, 454920, Note_on_c, 0, 57, 35
1, 454920, Note_on_c, 0, 69, 42
1, 454930, Note_on_c, 0, 59, 0
1, 454930, Note_on_c, 0, 71, 0
1, 454940, Tempo, 421408
1, 454960, Tempo, 424418
1, 454980, Tempo, 425955
1, 455000, Tempo, 429062
1, 455020, Tempo, 432246
1, 455040, Note_on_c, 0, 55, 44
1, 455040, Note_on_c, 0, 67, 44
1, 455050, Note_on_c, 0, 57, 0
1, 455050, Note_on_c, 0, 69, 0
1, 455160, Tempo, 390701
1, 455160, Note_on_c, 0, 57, 46
1, 455160, Note_on_c, 0, 55, 35
1, 455170, Note_on_c, 0, 55, 0
1, 455170, Note_on_c, 0, 67, 0
1, 455280, Note_on_c, 0, 59, 47
1, 455280, Note_on_c, 0, 53, 37
1, 455290, Note_on_c, 0, 57, 0
1, 455290, Note_on_c, 0, 55, 0
1, 455400, Note_on_c, 0, 60, 49
1, 455400, Note_on_c, 0, 52, 38
1, 455410, Note_on_c, 0, 59, 0
1, 455410, Note_on_c, 0, 53, 0
1, 455520, Note_on_c, 0, 62, 51
1, 455520, Note_on_c, 0, 50, 40
1, 455530, Note_on_c, 0, 60, 0
1, 455530, Note_on_c, 0, 52, 0
1, 455640, Note_on_c, 0, 64, 53
1, 455640, Note_on_c, 0, 48, 41
1, 455650, Note_on_c, 0, 62, 0
1, 455650, Note_on_c, 0, 50, 0
1, 455760, Note_on_c, 0, 65, 54
1, 455760, Note_on_c, 0, 47, 43
1, 455770, Note_on_c, 0, 64, 0
1, 455770, Note_on_c, 0, 48, 0
1, 455880, Note_on_c, 0, 66, 56
1, 455880, Note_on_c, 0, 45, 44
1, 455890, Note_on_c, 0, 65, 0
1, 455890, Note_on_c, 0, 47, 0
1, 456000, Note_on_c, 0, 67, 58
1, 456000, Note_on_c, 0, 43, 46
1, 456010, Note_on_c, 0, 66, 0
1, 456010, Note_on_c, 0, 45, 0
1, 456075, Control_c, 0, 64, 127
1, 456120, Note_on_c, 0, 69, 59
1, 456130, Note_on_c, 0, 67, 0
1, 456220, Tempo, 389408
1, 456240, Note_on_c, 0, 43, 0
1, 456240, Note_on_c, 0, 71, 61
1, 456240, Note_on_c, 0, 41, 47
1, 456250, Note_on_c, 0, 69, 0
1, 456320, Tempo, 390701
1, 456360, Note_on_c, 0, 72, 63
1, 456360, Note_on_c, 0, 40, 48
1, 456370, Note_on_c, 0, 41, 0
1, 456370, Note_on_c, 0, 71, 0
1, 456400, Tempo, 391978
1, 456480, Tempo, 393314
1, 456480, Note_on_c, 0, 74, 65
1, 456480, Note_on_c, 0, 38, 50
1, 456490, Note_on_c, 0, 72, 0
1, 456490, Note_on_c, 0, 40, 0
1, 456560, Tempo, 394633
1, 456600, Note_on_c, 0, 76, 66
1, 456600, Note_on_c, 0, 36, 51
1, 456610, Note_on_c, 0, 74, 0
1, 456610, Note_on_c, 0, 38, 0
1, 456660, Tempo, 395935
1, 456720, Note_on_c, 0, 77, 68
1, 456720, Note_on_c, 0, 35, 53
1, 456730, Note_on_c, 0, 76, 0
1, 456730, Note_on_c, 0, 36, 0
1, 456740, Tempo, 397298
1, 456820, Tempo, 398618
1, 456840, Note_on_c, 0, 78, 70
1, 456840, Note_on_c, 0, 33, 54
1, 456850, Note_on_c, 0, 77, 0
1, 456850, Note_on_c, 0, 35, 0
1, 456900, Tempo, 399947
1, 456920, Tempo, 406862
1, 456940, Tempo, 415455
1, 456960, Tempo, 412541
1, 456960, Note_on_c, 0, 79, 54
1, 456960, Note_on_c, 0, 31, 57
1, 456970, Note_on_c, 0, 78, 0
1, 456970, Note_on_c, 0, 33, 0
1, 456972, Control_c, 0, 64, 0
1, 457003, Control_c, 0, 64, 127
1, 457020, Tempo, 411100
1, 457040, Note_on_c, 0, 79, 0
1, 457040, Note_on_c, 0, 81, 35
1, 457080, Tempo, 409696
1, 457080, Note_on_c, 0, 33, 57
1, 457090, Note_on_c, 0, 31, 0
1, 457120, Note_on_c, 0, 81, 0
1, 457120, Note_on_c, 0, 79, 44
1, 457140, Tempo, 408274
1, 457200, Tempo, 406862
1, 457200, Note_on_c, 0, 79, 0
1, 457200, Note_on_c, 0, 81, 38
1, 457200, Note_on_c, 0, 35, 58
1, 457210, Note_on_c, 0, 33, 0
1, 457260, Tempo, 405488
1, 457280, Note_on_c, 0, 81, 0
1, 457280, Note_on_c, 0, 79, 44
1, 457320, Tempo, 404040
1, 457320, Note_on_c, 0, 36, 58
1, 457330, Note_on_c, 0, 35, 0
1, 457360, Note_on_c, 0, 79, 0
1, 457360, Note_on_c, 0, 81, 37
1, 457380, Tempo, 402712
1, 457440, Tempo, 401311
1, 457440, Note_on_c, 0, 81, 0
1, 457440, Note_on_c, 0, 79, 41
1, 457440, Note_on_c, 0, 38, 59
1, 457450, Note_on_c, 0, 36, 0
1, 457520, Note_on_c, 0, 79, 0
1, 457520, Note_on_c, 0, 81, 36
1, 457560, Note_on_c, 0, 40, 59
1, 457570, Note_on_c, 0, 38, 0
1, 457600, Note_on_c, 0, 81, 0
1, 457600, Note_on_c, 0, 79, 41
1, 457680, Note_on_c, 0, 79, 0
1, 457680, Note_on_c, 0, 81, 37
1, 457680, Note_on_c, 0, 41, 60
1, 457690, Note_on_c, 0, 40, 0
1, 457760, Note_on_c, 0, 81, 0
1, 457760, Note_on_c, 0, 79, 41
1, 457800, Note_on_c, 0, 42, 60
1, 457810, Note_on_c, 0, 41, 0
1, 457840, Note_on_c, 0, 79, 0
1, 457840, Note_on_c, 0, 81, 35
1, 457900, Tempo, 401311
1, 457920, Note_on_c, 0, 81, 0
1, 457920, Note_on_c, 0, 79, 41
1, 457920, Note_on_c, 0, 43, 61
1, 457930, Note_on_c, 0, 42, 0
1, 458000, Note_on_c, 0, 79, 0
1, 458000, Note_on_c, 0, 81, 37
1, 458040, Note_on_c, 0, 45, 61
1, 458050, Note_on_c, 0, 43, 0
1, 458080, Tempo, 399947
1, 458080, Note_on_c, 0, 81, 0
1, 458080, Note_on_c, 0, 79, 41
1, 458160, Note_on_c, 0, 79, 0
1, 458160, Note_on_c, 0, 81, 36
1, 458160, Note_on_c, 0, 47, 62
1, 458170, Note_on_c, 0, 45, 0
1, 458240, Tempo, 398618
1, 458240, Note_on_c, 0, 81, 0
1, 458240, Note_on_c, 0, 79, 41
1, 458280, Note_on_c, 0, 48, 62
1, 458290, Note_on_c, 0, 47, 0
1, 458320, Note_on_c, 0, 79, 0
1, 458320, Note_on_c, 0, 81, 36
1, 458400, Tempo, 397298
1, 458400, Note_on_c, 0, 81, 0
1, 458400, Note_on_c, 0, 79, 41
1, 458400, Note_on_c, 0, 50, 63
1, 458410, Note_on_c, 0, 48, 0
1, 458480, Note_on_c, 0, 79, 0
1, 458480, Note_on_c, 0, 81, 37
1, 458520, Note_on_c, 0, 52, 63
1, 458530, Note_on_c, 0, 50, 0
1, 458560, Tempo, 395935
1, 458560, Note_on_c, 0, 81, 0
1, 458560, Note_on_c, 0, 79, 41
1, 458640, Note_on_c, 0, 79, 0
1, 458640, Note_on_c, 0, 81, 37
1, 458640, Note_on_c, 0, 53, 64
1, 458650, Note_on_c, 0, 52, 0
1, 458720, Tempo, 394633
1, 458720, Note_on_c, 0, 81, 0
1, 458720, Note_on_c, 0, 79, 41
1, 458760, Note_on_c, 0, 54, 64
1, 458770, Note_on_c, 0, 53, 0
1, 458800, Note_on_c, 0, 79, 0
1, 458800, Note_on_c, 0, 81, 36
1, 458880, Tempo, 393314
1, 458880, Note_on_c, 0, 81, 0
1, 458880, Note_on_c, 0, 79, 41
1, 458880, Note_on_c, 0, 55, 64
1, 458890, Note_on_c, 0, 54, 0
1, 458892, Tempo, 386847
1, 458904, Tempo, 384344
1, 458960, Tempo, 386847
1, 458960, Note_on_c, 0, 79, 0
1, 458960, Note_on_c, 0, 81, 36
1, 458972, Tempo, 389408
1, 458984, Tempo, 394633
1, 459000, Tempo, 399947
1, 459000, Note_on_c, 0, 57, 64
1, 459010, Note_on_c, 0, 55, 0
1, 459012, Tempo, 395935
1, 459040, Tempo, 394633
1, 459040, Note_on_c, 0, 81, 0
1, 459040, Note_on_c, 0, 79, 41
1, 459052, Tempo, 390701
1, 459064, Tempo, 389408
1, 459080, Tempo, 388149
1, 459092, Tempo, 386847
1, 459104, Tempo, 389408
1, 459120, Note_on_c, 0, 79, 0
1, 459120, Note_on_c, 0, 81, 37
1, 459120, Note_on_c, 0, 59, 65
1, 459130, Note_on_c, 0, 57, 0
1, 459132, Tempo, 391978
1, 459144, Tempo, 393314
1, 459172, Tempo, 391978
1, 459184, Tempo, 388149
1, 459200, Tempo, 385604
1, 459200, Note_on_c, 0, 81, 0
1, 459200, Note_on_c, 0, 79, 41
1, 459240, Note_on_c, 0, 60, 65
1, 459250, Note_on_c, 0, 59, 0
1, 459280, Note_on_c, 0, 79, 0
1, 459280, Note_on_c, 0, 81, 37
1, 459360, Tempo, 395935
1, 459360, Note_on_c, 0, 81, 0
1, 459360, Note_on_c, 0, 79, 41
1, 459360, Note_on_c, 0, 62, 66
1, 459370, Note_on_c, 0, 60, 0
1, 459384, Tempo, 404040
1, 459400, Tempo, 402712
1, 459412, Tempo, 397298
1, 459424, Tempo, 389408
1, 459440, Tempo, 384344
1, 459440, Note_on_c, 0, 79, 0
1, 459440, Note_on_c, 0, 81, 36
1, 459452, Tempo, 380614
1, 459464, Tempo, 385604
1, 459480, Tempo, 388149
1, 459480, Note_on_c, 0, 64, 66
1, 459490, Note_on_c, 0, 62, 0
1, 459492, Tempo, 395935
1, 459520, Note_on_c, 0, 81, 0
1, 459520, Note_on_c, 0, 79, 41
1, 459572, Tempo, 398618
1, 459600, Tempo, 401311
1, 459600, Note_on_c, 0, 79, 0
1, 459600, Note_on_c, 0, 81, 37
1, 459600, Note_on_c, 0, 65, 67
1, 459610, Note_on_c, 0, 64, 0
1, 459680, Note_on_c, 0, 81, 0
1, 459680, Note_on_c, 0, 79, 41
1, 459704, Tempo, 380614
1, 459720, Tempo, 375775
1, 459720, Note_on_c, 0, 66, 67
1, 459730, Note_on_c, 0, 65, 0
1, 459732, Tempo, 383093
1, 459760, Tempo, 385604
1, 459760, Note_on_c, 0, 79, 0
1, 459760, Note_on_c, 0, 81, 36
1, 459800, Tempo, 386847
1, 459840, Note_on_c, 0, 81, 0
1, 459840, Note_on_c, 0, 79, 40
1, 459840, Note_on_c, 0, 67, 68
1, 459850, Note_on_c, 0, 66, 0
1, 459880, Tempo, 388149
1, 459904, Tempo, 389408
1, 459920, Tempo, 391978
1, 459920, Note_on_c, 0, 79, 0
1, 459920, Note_on_c, 0, 81, 36
1, 459932, Tempo, 394633
1, 459944, Tempo, 397298
1, 459960, Tempo, 398618
1, 459960, Note_on_c, 0, 69, 66
1, 459970, Note_on_c, 0, 67, 0
1, 459984, Tempo, 397298
1, 460000, Note_on_c, 0, 81, 0
1, 460000, Note_on_c, 0, 79, 39
1, 460012, Tempo, 394633
1, 460040, Tempo, 391978
1, 460064, Tempo, 389408
1, 460080, Tempo, 385604
1, 460080, Note_on_c, 0, 79, 0
1, 460080, Note_on_c, 0, 81, 35
1, 460080, Note_on_c, 0, 71, 65
1, 460090, Note_on_c, 0, 69, 0
1, 460092, Tempo, 384344
1, 460120, Tempo, 383093
1, 460144, Tempo, 384344
1, 460160, Tempo, 386847
1, 460160, Note_on_c, 0, 81, 0
1, 460160, Note_on_c, 0, 79, 39
1, 460200, Note_on_c, 0, 72, 63
1, 460210, Note_on_c, 0, 71, 0
1, 460240, Note_on_c, 0, 79, 0
1, 460240, Note_on_c, 0, 81, 35
1, 460260, Tempo, 393314
1, 460320, Note_on_c, 0, 81, 0
1, 460320, Note_on_c, 0, 79, 39
1, 460320, Note_on_c, 0, 74, 62
1, 460330, Note_on_c, 0, 72, 0
1, 460340, Tempo, 394633
1, 460400, Note_on_c, 0, 79, 0
1, 460400, Note_on_c, 0, 81, 35
1, 460420, Tempo, 395935
1, 460440, Note_on_c, 0, 76, 57
1, 460450, Note_on_c, 0, 74, 0
1, 460480, Note_on_c, 0, 81, 0
1, 460480, Note_on_c, 0, 79, 39
1, 460500, Tempo, 397298
1, 460560, Tempo, 398618
1, 460560, Note_on_c, 0, 79, 0
1, 460560, Note_on_c, 0, 81, 35
1, 460560, Note_on_c, 0, 77, 55
1, 460570, Note_on_c, 0, 76, 0
1, 460640, Tempo, 399947
1, 460640, Note_on_c, 0, 81, 0
1, 460640, Note_on_c, 0, 79, 39
1, 460680, Note_on_c, 0, 76, 53
1, 460690, Note_on_c, 0, 77, 0
1, 460720, Tempo, 401311
1, 460720, Note_on_c, 0, 79, 0
1, 460720, Note_on_c, 0, 81, 35
1, 460780, Tempo, 402712
1, 460800, Tempo, 401311
1, 460800, Note_on_c, 0, 81, 0
1, 460800, Note_on_c, 0, 79, 36
1, 460800, Note_on_c, 0, 77, 56
1, 460810, Note_on_c, 0, 76, 0
1, 460812, Tempo, 399947
1, 460819, Control_c, 0, 64, 0
1, 460840, Tempo, 398618
1, 460846, Control_c, 0, 64, 127
1, 460852, Tempo, 397298
1, 460880, Tempo, 395935
1, 460880, Note_on_c, 0, 79, 0
1, 460880, Note_on_c, 0, 81, 32
1, 460892, Tempo, 394633
1, 460904, Tempo, 393314
1, 460920, Tempo, 391978
1, 460932, Tempo, 390701
1, 460944, Tempo, 398618
1, 460960, Tempo, 402712
1, 460960, Note_on_c, 0, 81, 0
1, 460960, Note_on_c, 0, 79, 35
1, 460984, Tempo, 404040
1, 461000, Tempo, 405488
1, 461040, Tempo, 402712
1, 461040, Note_on_c, 0, 79, 0
1, 461040, Note_on_c, 0, 77, 0
1, 461040, Note_on_c, 0, 81, 31
1, 461052, Tempo, 399947
1, 461064, Tempo, 398618
1, 461092, Tempo, 397298
1, 461104, Tempo, 395935
1, 461120, Note_on_c, 0, 81, 0
1, 461120, Note_on_c, 0, 79, 35
1, 461132, Tempo, 394633
1, 461144, Tempo, 399947
1, 461160, Tempo, 404040
1, 461172, Tempo, 406862
1, 461184, Tempo, 408274
1, 461200, Note_on_c, 0, 79, 0
1, 461200, Note_on_c, 0, 81, 31
1, 461212, Tempo, 406862
1, 461224, Tempo, 405488
1, 461240, Tempo, 402712
1, 461252, Tempo, 398618
1, 461264, Tempo, 397298
1, 461280, Note_on_c, 0, 81, 0
1, 461280, Note_on_c, 0, 79, 35
1, 461292, Tempo, 395935
1, 461304, Tempo, 394633
1, 461332, Tempo, 398618
1, 461360, Note_on_c, 0, 79, 0
1, 461360, Note_on_c, 0, 81, 31
1, 461372, Tempo, 399947
1, 461400, Note_on_c, 0, 76, 43
1, 461412, Tempo, 401311
1, 461440, Note_on_c, 0, 81, 0
1, 461440, Note_on_c, 0, 79, 35
1, 461492, Tempo, 399947
1, 461504, Tempo, 398618
1, 461520, Tempo, 395935
1, 461520, Note_on_c, 0, 79, 0
1, 461520, Note_on_c, 0, 76, 0
1, 461520, Note_on_c, 0, 81, 31
1, 461520, Note_on_c, 0, 77, 46
1, 461532, Tempo, 389408
1, 461544, Tempo, 388149
1, 461572, Tempo, 386847
1, 461600, Note_on_c, 0, 81, 0
1, 461600, Note_on_c, 0, 79, 35
1, 461624, Tempo, 388149
1, 461640, Tempo, 389408
1, 461640, Note_on_c, 0, 77, 0
1, 461640, Note_on_c, 0, 76, 43
1, 461652, Tempo, 390701
1, 461680, Tempo, 391978
1, 461680, Note_on_c, 0, 79, 0
1, 461680, Note_on_c, 0, 81, 31
1, 461692, Tempo, 394633
1, 461704, Tempo, 398618
1, 461744, Tempo, 397298
1, 461760, Tempo, 394633
1, 461760, Note_on_c, 0, 81, 0
1, 461760, Note_on_c, 0, 76, 0
1, 461760, Note_on_c, 0, 79, 36
1, 461760, Note_on_c, 0, 77, 51
1, 461772, Tempo, 391978
1, 461784, Tempo, 390701
1, 461800, Tempo, 388149
1, 461812, Tempo, 386847
1, 461840, Note_on_c, 0, 79, 0
1, 461840, Note_on_c, 0, 81, 32
1, 461852, Tempo, 385604
1, 461880, Tempo, 388149
1, 461892, Tempo, 389408
1, 461904, Tempo, 390701
1, 461920, Tempo, 394633
1, 461920, Note_on_c, 0, 81, 0
1, 461920, Note_on_c, 0, 79, 35
1, 461932, Tempo, 397298
1, 461944, Tempo, 398618
1, 462000, Tempo, 397298
1, 462000, Note_on_c, 0, 79, 0
1, 462000, Note_on_c, 0, 77, 0
1, 462000, Note_on_c, 0, 81, 31
1, 462012, Tempo, 395935
1, 462024, Tempo, 391978
1, 462040, Tempo, 389408
1, 462052, Tempo, 388149
1, 462080, Tempo, 386847
1, 462080, Note_on_c, 0, 81, 0
1, 462080, Note_on_c, 0, 79, 35
1, 462104, Tempo, 385604
1, 462120, Tempo, 386847
1, 462132, Tempo, 390701
1, 462144, Tempo, 393314
1, 462160, Note_on_c, 0, 79, 0
1, 462160, Note_on_c, 0, 81, 31
1, 462172, Tempo, 394633
1, 462184, Tempo, 397298
1, 462200, Tempo, 398618
1, 462212, Tempo, 399947
1, 462240, Note_on_c, 0, 81, 0
1, 462240, Note_on_c, 0, 79, 35
1, 462280, Tempo, 394633
1, 462292, Tempo, 391978
1, 462304, Tempo, 389408
1, 462320, Tempo, 388149
1, 462320, Note_on_c, 0, 79, 0
1, 462320, Note_on_c, 0, 81, 31
1, 462332, Tempo, 386847
1, 462360, Note_on_c, 0, 76, 42
1, 462384, Tempo, 389408
1, 462400, Tempo, 391978
1, 462400, Note_on_c, 0, 81, 0
1, 462400, Note_on_c, 0, 79, 35
1, 462412, Tempo, 393314
1, 462424, Tempo, 394633
1, 462440, Tempo, 395935
1, 462480, Tempo, 394633
1, 462480, Note_on_c, 0, 79, 0
1, 462480, Note_on_c, 0, 76, 0
1, 462480, Note_on_c, 0, 81, 31
1, 462480, Note_on_c, 0, 77, 46
1, 462492, Tempo, 393314
1, 462504, Tempo, 391978
1, 462520, Tempo, 389408
1, 462532, Tempo, 388149
1, 462560, Note_on_c, 0, 81, 0
1, 462560, Note_on_c, 0, 79, 35
1, 462572, Tempo, 386847
1, 462600, Note_on_c, 0, 77, 0
1, 462600, Note_on_c, 0, 76, 42
1, 462612, Tempo, 390701
1, 462640, Note_on_c, 0, 79, 0
1, 462640, Note_on_c, 0, 81, 31
1, 462652, Tempo, 393314
1, 462664, Tempo, 394633
1, 462704, Tempo, 393314
1, 462720, Tempo, 390701
1, 462720, Note_on_c, 0, 81, 0
1, 462720, Note_on_c, 0, 76, 0
1, 462720, Note_on_c, 0, 79, 36
1, 462720, Note_on_c, 0, 77, 50
1, 462732, Tempo, 386847
1, 462744, Tempo, 385604
1, 462760, Tempo, 383093
1, 462800, Tempo, 384344
1, 462800, Note_on_c, 0, 79, 0
1, 462800, Note_on_c, 0, 81, 32
1, 462812, Tempo, 388149
1, 462824, Tempo, 390701
1, 462840, Tempo, 393314
1, 462852, Tempo, 395935
1, 462864, Tempo, 398618
1, 462880, Note_on_c, 0, 81, 0
1, 462880, Note_on_c, 0, 79, 35
1, 462904, Tempo, 397298
1, 462920, Tempo, 395935
1, 462932, Tempo, 394633
1, 462944, Tempo, 393314
1, 462960, Tempo, 390701
1, 462960, Note_on_c, 0, 79, 0
1, 462960, Note_on_c, 0, 77, 0
1, 462960, Note_on_c, 0, 81, 32
1, 462972, Tempo, 389408
1, 462984, Tempo, 388149
1, 463000, Tempo, 386847
1, 463024, Tempo, 389408
1, 463040, Note_on_c, 0, 81, 0
1, 463040, Note_on_c, 0, 79, 36
1, 463052, Tempo, 391978
1, 463064, Tempo, 394633
1, 463092, Tempo, 397298
1, 463104, Tempo, 399947
1, 463120, Note_on_c, 0, 79, 0
1, 463120, Note_on_c, 0, 81, 32
1, 463160, Tempo, 395935
1, 463172, Tempo, 393314
1, 463184, Tempo, 390701
1, 463200, Note_on_c, 0, 81, 0
1, 463200, Note_on_c, 0, 79, 37
1, 463212, Tempo, 389408
1, 463224, Tempo, 388149
1, 463240, Tempo, 386847
1, 463264, Tempo, 388149
1, 463280, Tempo, 391978
1, 463280, Note_on_c, 0, 79, 0
1, 463280, Note_on_c, 0, 81, 33
1, 463292, Tempo, 394633
1, 463320, Tempo, 397298
1, 463332, Tempo, 399947
1, 463360, Note_on_c, 0, 81, 0
1, 463360, Note_on_c, 0, 79, 38
1, 463372, Tempo, 398618
1, 463384, Tempo, 397298
1, 463400, Tempo, 395935
1, 463412, Tempo, 393314
1, 463424, Tempo, 391978
1, 463440, Tempo, 390701
1, 463440, Note_on_c, 0, 79, 0
1, 463440, Note_on_c, 0, 81, 34
1, 463452, Tempo, 389408
1, 463464, Tempo, 386847
1, 463492, Tempo, 384344
1, 463520, Tempo, 383093
1, 463520, Note_on_c, 0, 81, 0
1, 463520, Note_on_c, 0, 79, 39
1, 463532, Tempo, 381849
1, 463544, Tempo, 380614
1, 463560, Tempo, 384344
1, 463600, Tempo, 385604
1, 463600, Note_on_c, 0, 79, 0
1, 463600, Note_on_c, 0, 81, 35
1, 463612, Tempo, 386847
1, 463624, Tempo, 388149
1, 463640, Tempo, 389408
1, 463664, Tempo, 391978
1, 463680, Tempo, 393314
1, 463680, Note_on_c, 0, 81, 0
1, 463680, Note_on_c, 0, 79, 41
1, 463692, Tempo, 394633
1, 463704, Tempo, 397298
1, 463720, Tempo, 398618
1, 463744, Tempo, 393314
1, 463760, Tempo, 389408
1, 463760, Note_on_c, 0, 79, 0
1, 463760, Note_on_c, 0, 81, 37
1, 463772, Tempo, 388149
1, 463784, Tempo, 386847
1, 463800, Tempo, 385604
1, 463812, Tempo, 388149
1, 463840, Tempo, 389408
1, 463840, Note_on_c, 0, 81, 0
1, 463840, Note_on_c, 0, 79, 40
1, 463880, Tempo, 390701
1, 463892, Tempo, 391978
1, 463904, Tempo, 393314
1, 463920, Tempo, 391978
1, 463920, Note_on_c, 0, 79, 0
1, 463920, Note_on_c, 0, 81, 36
1, 463932, Tempo, 388149
1, 463960, Tempo, 383093
1, 463972, Tempo, 381849
1, 464000, Note_on_c, 0, 81, 0
1, 464000, Note_on_c, 0, 79, 42
1, 464080, Tempo, 384344
1, 464080, Note_on_c, 0, 79, 0
1, 464080, Note_on_c, 0, 81, 37
1, 464092, Tempo, 385604
1, 464104, Tempo, 389408
1, 464120, Tempo, 390701
1, 464132, Tempo, 391978
1, 464144, Tempo, 394633
1, 464160, Note_on_c, 0, 81, 0
1, 464160, Note_on_c, 0, 79, 42
1, 464200, Tempo, 397298
1, 464224, Tempo, 398618
1, 464240, Tempo, 399947
1, 464240, Note_on_c, 0, 79, 0
1, 464240, Note_on_c, 0, 81, 38
1, 464280, Tempo, 393314
1, 464320, Note_on_c, 0, 81, 0
1, 464320, Note_on_c, 0, 79, 43
1, 464360, Tempo, 391978
1, 464400, Tempo, 390701
1, 464400, Note_on_c, 0, 79, 0
1, 464400, Note_on_c, 0, 81, 39
1, 464460, Tempo, 393314
1, 464480, Tempo, 397298
1, 464480, Note_on_c, 0, 81, 0
1, 464480, Note_on_c, 0, 79, 44
1, 464500, Tempo, 399947
1, 464560, Tempo, 398618
1, 464560, Note_on_c, 0, 79, 0
1, 464560, Note_on_c, 0, 81, 39
1, 464580, Tempo, 395935
1, 464600, Tempo, 394633
1, 464640, Note_on_c, 0, 81, 0
1, 464640, Note_on_c, 0, 79, 46
1, 464640, Note_on_c, 0, 48, 51
1, 464651, Control_c, 0, 64, 0
1, 464660, Tempo, 404068
1, 464700, Tempo, 402793
1, 464704, Control_c, 0, 64, 127
1, 464720, Tempo, 400107
1, 464720, Note_on_c, 0, 79, 0
1, 464720, Note_on_c, 0, 81, 31
1, 464740, Tempo, 397535
1, 464760, Tempo, 396223
1, 464780, Tempo, 401472
1, 464800, Tempo, 402793
1, 464800, Note_on_c, 0, 81, 0
1, 464800, Note_on_c, 0, 48, 0
1, 464800, Note_on_c, 0, 79, 33
1, 464800, Note_on_c, 0, 55, 31
1, 464820, Tempo, 405488
1, 464840, Tempo, 406780
1, 464860, Tempo, 409556
1, 464880, Note_on_c, 0, 79, 0
1, 464880, Note_on_c, 0, 81, 29
1, 464920, Tempo, 406780
1, 464940, Tempo, 404068
1, 464960, Tempo, 402793
1, 464960, Note_on_c, 0, 81, 0
1, 464960, Note_on_c, 0, 55, 0
1, 464960, Note_on_c, 0, 79, 32
1, 464960, Note_on_c, 0, 60, 31
1, 464980, Tempo, 401472
1, 465020, Tempo, 400107
1, 465040, Tempo, 398830
1, 465040, Note_on_c, 0, 79, 0
1, 465040, Note_on_c, 0, 81, 28
1, 465080, Tempo, 400107
1, 465100, Tempo, 404068
1, 465120, Tempo, 405488
1, 465120, Note_on_c, 0, 81, 0
1, 465120, Note_on_c, 0, 60, 0
1, 465120, Note_on_c, 0, 79, 31
1, 465120, Note_on_c, 0, 91, 57
1, 465120, Note_on_c, 0, 64, 33
1, 465140, Tempo, 408136
1, 465180, Tempo, 409556
1, 465200, Tempo, 410903
1, 465200, Note_on_c, 0, 79, 0
1, 465200, Note_on_c, 0, 81, 27
1, 465220, Tempo, 408136
1, 465240, Tempo, 405488
1, 465260, Tempo, 404068
1, 465280, Tempo, 402793
1, 465280, Note_on_c, 0, 81, 0
1, 465280, Note_on_c, 0, 64, 0
1, 465280, Note_on_c, 0, 79, 31
1, 465280, Note_on_c, 0, 60, 31
1, 465300, Tempo, 400107
1, 465320, Tempo, 398830
1, 465340, Tempo, 397535
1, 465360, Tempo, 396223
1, 465360, Note_on_c, 0, 79, 0
1, 465360, Note_on_c, 0, 81, 27
1, 465380, Tempo, 394945
1, 465400, Tempo, 393701
1, 465420, Tempo, 396223
1, 465440, Tempo, 398830
1, 465440, Note_on_c, 0, 81, 0
1, 465440, Note_on_c, 0, 60, 0
1, 465440, Note_on_c, 0, 79, 31
1, 465440, Note_on_c, 0, 64, 31
1, 465460, Tempo, 401472
1, 465480, Tempo, 402793
1, 465500, Tempo, 404068
1, 465520, Tempo, 405488
1, 465520, Note_on_c, 0, 79, 0
1, 465520, Note_on_c, 0, 81, 27
1, 465560, Tempo, 406780
1, 465580, Tempo, 409556
1, 465600, Note_on_c, 0, 81, 0
1, 465600, Note_on_c, 0, 64, 0
1, 465600, Note_on_c, 0, 91, 0
1, 465600, Note_on_c, 0, 79, 32
1, 465600, Note_on_c, 0, 91, 59
1, 465600, Note_on_c, 0, 67, 35
1, 465640, Tempo, 405488
1, 465660, Tempo, 402793
1, 465680, Tempo, 400107
1, 465680, Note_on_c, 0, 79, 0
1, 465680, Note_on_c, 0, 81, 28
1, 465700, Tempo, 398830
1, 465740, Tempo, 397535
1, 465760, Note_on_c, 0, 81, 0
1, 465760, Note_on_c, 0, 67, 0
1, 465760, Note_on_c, 0, 79, 31
1, 465760, Note_on_c, 0, 64, 31
1, 465820, Tempo, 400107
1, 465840, Tempo, 405488
1, 465840, Note_on_c, 0, 79, 0
1, 465840, Note_on_c, 0, 81, 27
1, 465860, Tempo, 406780
1, 465880, Tempo, 409556
1, 465900, Tempo, 410903
1, 465920, Note_on_c, 0, 81, 0
1, 465920, Note_on_c, 0, 64, 0
1, 465920, Note_on_c, 0, 79, 31
1, 465920, Note_on_c, 0, 67, 31
1, 465960, Tempo, 408136
1, 465980, Tempo, 404068
1, 466000, Note_on_c, 0, 79, 0
1, 466000, Note_on_c, 0, 81, 27
1, 466060, Tempo, 406780
1, 466080, Note_on_c, 0, 81, 0
1, 466080, Note_on_c, 0, 67, 0
1, 466080, Note_on_c, 0, 79, 31
1, 466080, Note_on_c, 0, 64, 35
1, 466100, Tempo, 402793
1, 466120, Tempo, 400107
1, 466160, Note_on_c, 0, 79, 0
1, 466160, Note_on_c, 0, 81, 27
1, 466180, Tempo, 398830
1, 466200, Tempo, 401472
1, 466220, Tempo, 405488
1, 466240, Tempo, 406780
1, 466240, Note_on_c, 0, 81, 0
1, 466240, Note_on_c, 0, 64, 0
1, 466240, Note_on_c, 0, 79, 31
1, 466240, Note_on_c, 0, 60, 31
1, 466260, Tempo, 409556
1, 466280, Tempo, 408136
1, 466300, Tempo, 405488
1, 466320, Tempo, 402793
1, 466320, Note_on_c, 0, 79, 0
1, 466320, Note_on_c, 0, 91, 0
1, 466320, Note_on_c, 0, 81, 27
1, 466320, Note_on_c, 0, 88, 50
1, 466360, Tempo, 404068
1, 466380, Tempo, 408136
1, 466400, Tempo, 409556
1, 466400, Note_on_c, 0, 81, 0
1, 466400, Note_on_c, 0, 60, 0
1, 466400, Note_on_c, 0, 79, 31
1, 466400, Note_on_c, 0, 64, 31
1, 466460, Tempo, 404068
1, 466480, Note_on_c, 0, 79, 0
1, 466480, Note_on_c, 0, 81, 27
1, 466540, Tempo, 400107
1, 466560, Note_on_c, 0, 81, 0
1, 466560, Note_on_c, 0, 64, 0
1, 466560, Note_on_c, 0, 88, 0
1, 466560, Note_on_c, 0, 79, 37
1, 466560, Note_on_c, 0, 86, 57
1, 466560, Note_on_c, 0, 65, 35
1, 466560, Control_c, 0, 64, 0
1, 466600, Tempo, 397535
1, 466613, Control_c, 0, 64, 127
1, 466640, Tempo, 396223
1, 466640, Note_on_c, 0, 79, 0
1, 466640, Note_on_c, 0, 81, 28
1, 466660, Tempo, 394945
1, 466680, Tempo, 396223
1, 466700, Tempo, 398830
1, 466720, Tempo, 401472
1, 466720, Note_on_c, 0, 81, 0
1, 466720, Note_on_c, 0, 65, 0
1, 466720, Note_on_c, 0, 79, 34
1, 466720, Note_on_c, 0, 62, 31
1, 466740, Tempo, 402793
1, 466760, Tempo, 404068
1, 466800, Tempo, 402793
1, 466800, Note_on_c, 0, 79, 0
1, 466800, Note_on_c, 0, 81, 28
1, 466820, Tempo, 400107
1, 466840, Tempo, 396223
1, 466860, Tempo, 392413
1, 466880, Tempo, 391160
1, 466880, Note_on_c, 0, 81, 0
1, 466880, Note_on_c, 0, 62, 0
1, 466880, Note_on_c, 0, 79, 34
1, 466880, Note_on_c, 0, 65, 31
1, 466920, Tempo, 393701
1, 466940, Tempo, 394945
1, 466960, Tempo, 396223
1, 466960, Note_on_c, 0, 79, 0
1, 466960, Note_on_c, 0, 81, 28
1, 466980, Tempo, 398830
1, 467000, Tempo, 401472
1, 467020, Tempo, 405488
1, 467040, Note_on_c, 0, 81, 0
1, 467040, Note_on_c, 0, 65, 0
1, 467040, Note_on_c, 0, 86, 0
1, 467040, Note_on_c, 0, 79, 50
1, 467040, Note_on_c, 0, 62, 36
1, 467060, Tempo, 404068
1, 467080, Tempo, 402793
1, 467110, Note_on_c, 0, 79, 0
1, 467120, Note_on_c, 0, 81, 27
1, 467140, Tempo, 401472
1, 467200, Note_on_c, 0, 81, 0
1, 467200, Note_on_c, 0, 62, 0
1, 467200, Note_on_c, 0, 79, 31
1, 467200, Note_on_c, 0, 59, 31
1, 467220, Tempo, 406780
1, 467240, Tempo, 409556
1, 467260, Tempo, 412286
1, 467280, Note_on_c, 0, 79, 0
1, 467280, Note_on_c, 0, 81, 27
1, 467300, Tempo, 410903
1, 467320, Tempo, 409556
1, 467340, Tempo, 406780
1, 467360, Tempo, 404068
1, 467360, Note_on_c, 0, 81, 0
1, 467360, Note_on_c, 0, 59, 0
1, 467360, Note_on_c, 0, 79, 31
1, 467360, Note_on_c, 0, 62, 31
1, 467380, Tempo, 401472
1, 467440, Tempo, 402793
1, 467440, Note_on_c, 0, 79, 0
1, 467440, Note_on_c, 0, 81, 27
1, 467480, Tempo, 404068
1, 467520, Tempo, 409556
1, 467520, Note_on_c, 0, 81, 0
1, 467520, Note_on_c, 0, 62, 0
1, 467520, Note_on_c, 0, 79, 32
1, 467520, Note_on_c, 0, 84, 53
1, 467520, Note_on_c, 0, 64, 35
1, 467526, Control_c, 0, 64, 0
1, 467540, Tempo, 405488
1, 467560, Tempo, 404040
1, 467580, Tempo, 402712
1, 467600, Note_on_c, 0, 79, 0
1, 467600, Note_on_c, 0, 81, 28
1, 467608, Control_c, 0, 64, 127
1, 467620, Tempo, 401311
1, 467640, Tempo, 399947
1, 467680, Note_on_c, 0, 81, 0
1, 467680, Note_on_c, 0, 64, 0
1, 467680, Note_on_c, 0, 79, 31
1, 467680, Note_on_c, 0, 60, 31
1, 467700, Tempo, 402712
1, 467720, Tempo, 405488
1, 467740, Tempo, 406862
1, 467760, Tempo, 409696
1, 467760, Note_on_c, 0, 79, 0
1, 467760, Note_on_c, 0, 81, 27
1, 467780, Tempo, 411100
1, 467800, Tempo, 408274
1, 467840, Tempo, 405488
1, 467840, Note_on_c, 0, 81, 0
1, 467840, Note_on_c, 0, 60, 0
1, 467840, Note_on_c, 0, 79, 31
1, 467840, Note_on_c, 0, 55, 31
1, 467860, Tempo, 404040
1, 467880, Tempo, 402712
1, 467900, Tempo, 399947
1, 467920, Note_on_c, 0, 79, 0
1, 467920, Note_on_c, 0, 81, 27
1, 467940, Tempo, 402712
1, 467960, Tempo, 405488
1, 467980, Tempo, 406862
1, 468000, Tempo, 408274
1, 468000, Note_on_c, 0, 81, 0
1, 468000, Note_on_c, 0, 55, 0
1, 468000, Note_on_c, 0, 84, 0
1, 468000, Note_on_c, 0, 79, 31
1, 468000, Note_on_c, 0, 88, 53
1, 468000, Note_on_c, 0, 60, 35
1, 468020, Tempo, 409696
1, 468040, Tempo, 411100
1, 468080, Note_on_c, 0, 79, 0
1, 468080, Note_on_c, 0, 81, 27
1, 468100, Tempo, 409696
1, 468120, Tempo, 405488
1, 468140, Tempo, 404040
1, 468160, Tempo, 402712
1, 468160, Note_on_c, 0, 81, 0
1, 468160, Note_on_c, 0, 60, 0
1, 468160, Note_on_c, 0, 79, 31
1, 468160, Note_on_c, 0, 55, 31
1, 468180, Tempo, 401311
1, 468240, Tempo, 402712
1, 468240, Note_on_c, 0, 79, 0
1, 468240, Note_on_c, 0, 88, 0
1, 468240, Note_on_c, 0, 81, 27
1, 468260, Tempo, 405488
1, 468280, Tempo, 406862
1, 468300, Tempo, 409696
1, 468320, Tempo, 411100
1, 468320, Note_on_c, 0, 81, 0
1, 468320, Note_on_c, 0, 55, 0
1, 468320, Note_on_c, 0, 79, 31
1, 468320, Note_on_c, 0, 52, 31
1, 468400, Tempo, 408274
1, 468400, Note_on_c, 0, 79, 0
1, 468400, Note_on_c, 0, 81, 27
1, 468420, Tempo, 405488
1, 468440, Tempo, 404040
1, 468480, Tempo, 405488
1, 468480, Note_on_c, 0, 81, 0
1, 468480, Note_on_c, 0, 52, 0
1, 468480, Note_on_c, 0, 79, 36
1, 468480, Note_on_c, 0, 48, 49
1, 468498, Control_c, 0, 64, 0
1, 468500, Tempo, 404068
1, 468530, Control_c, 0, 64, 127
1, 468540, Tempo, 402793
1, 468560, Tempo, 400107
1, 468560, Note_on_c, 0, 79, 0
1, 468560, Note_on_c, 0, 81, 31
1, 468580, Tempo, 397535
1, 468600, Tempo, 396223
1, 468620, Tempo, 401472
1, 468640, Tempo, 402793
1, 468640, Note_on_c, 0, 81, 0
1, 468640, Note_on_c, 0, 48, 0
1, 468640, Note_on_c, 0, 79, 33
1, 468640, Note_on_c, 0, 55, 31
1, 468660, Tempo, 405488
1, 468680, Tempo, 406780
1, 468700, Tempo, 409556
1, 468720, Note_on_c, 0, 79, 0
1, 468720, Note_on_c, 0, 81, 29
1, 468760, Tempo, 406780
1, 468780, Tempo, 404068
1, 468800, Tempo, 402793
1, 468800, Note_on_c, 0, 81, 0
1, 468800, Note_on_c, 0, 55, 0
1, 468800, Note_on_c, 0, 79, 32
1, 468800, Note_on_c, 0, 60, 31
1, 468820, Tempo, 401472
1, 468860, Tempo, 400107
1, 468880, Tempo, 398830
1, 468880, Note_on_c, 0, 79, 0
1, 468880, Note_on_c, 0, 81, 28
1, 468920, Tempo, 400107
1, 468940, Tempo, 404068
1, 468960, Tempo, 405488
1, 468960, Note_on_c, 0, 81, 0
1, 468960, Note_on_c, 0, 60, 0
1, 468960, Note_on_c, 0, 79, 31
1, 468960, Note_on_c, 0, 91, 57
1, 468960, Note_on_c, 0, 64, 33
1, 468980, Tempo, 408136
1, 469020, Tempo, 409556
1, 469040, Tempo, 410903
1, 469040, Note_on_c, 0, 79, 0
1, 469040, Note_on_c, 0, 81, 27
1, 469060, Tempo, 408136
1, 469080, Tempo, 405488
1, 469100, Tempo, 404068
1, 469120, Tempo, 402793
1, 469120, Note_on_c, 0, 81, 0
1, 469120, Note_on_c, 0, 64, 0
1, 469120, Note_on_c, 0, 79, 31
1, 469120, Note_on_c, 0, 60, 31
1, 469140, Tempo, 400107
1, 469160, Tempo, 398830
1, 469180, Tempo, 397535
1, 469200, Tempo, 396223
1, 469200, Note_on_c, 0, 79, 0
1, 469200, Note_on_c, 0, 81, 27
1, 469220, Tempo, 394945
1, 469240, Tempo, 393701
1, 469260, Tempo, 396223
1, 469280, Tempo, 398830
1, 469280, Note_on_c, 0, 81, 0
1, 469280, Note_on_c, 0, 60, 0
1, 469280, Note_on_c, 0, 79, 31
1, 469280, Note_on_c, 0, 64, 31
1, 469300, Tempo, 401472
1, 469320, Tempo, 402793
1, 469340, Tempo, 404068
1, 469360, Tempo, 405488
1, 469360, Note_on_c, 0, 79, 0
1, 469360, Note_on_c, 0, 81, 27
1, 469400, Tempo, 406780
1, 469420, Tempo, 409556
1, 469440, Note_on_c, 0, 81, 0
1, 469440, Note_on_c, 0, 64, 0
1, 469440, Note_on_c, 0, 91, 0
1, 469440, Note_on_c, 0, 79, 32
1, 469440, Note_on_c, 0, 91, 59
1, 469440, Note_on_c, 0, 67, 35
1, 469480, Tempo, 405488
1, 469500, Tempo, 402793
1, 469520, Tempo, 400107
1, 469520, Note_on_c, 0, 79, 0
1, 469520, Note_on_c, 0, 81, 28
1, 469540, Tempo, 398830
1, 469580, Tempo, 397535
1, 469600, Note_on_c, 0, 81, 0
1, 469600, Note_on_c, 0, 67, 0
1, 469600, Note_on_c, 0, 79, 31
1, 469600, Note_on_c, 0, 64, 31
1, 469660, Tempo, 400107
1, 469680, Tempo, 405488
1, 469680, Note_on_c, 0, 79, 0
1, 469680, Note_on_c, 0, 81, 27
1, 469700, Tempo, 406780
1, 469720, Tempo, 409556
1, 469740, Tempo, 410903
1, 469760, Note_on_c, 0, 81, 0
1, 469760, Note_on_c, 0, 64, 0
1, 469760, Note_on_c, 0, 79, 31
1, 469760, Note_on_c, 0, 67, 31
1, 469800, Tempo, 408136
1, 469820, Tempo, 404068
1, 469840, Note_on_c, 0, 79, 0
1, 469840, Note_on_c, 0, 81, 27
1, 469900, Tempo, 406780
1, 469920, Note_on_c, 0, 81, 0
1, 469920, Note_on_c, 0, 67, 0
1, 469920, Note_on_c, 0, 79, 31
1, 469920, Note_on_c, 0, 64, 35
1, 469940, Tempo, 402793
1, 469960, Tempo, 400107
1, 470000, Note_on_c, 0, 79, 0
1, 470000, Note_on_c, 0, 81, 27
1, 470020, Tempo, 398830
1, 470040, Tempo, 401472
1, 470060, Tempo, 405488
1, 470080, Tempo, 406780
1, 470080, Note_on_c, 0, 81, 0
1, 470080, Note_on_c, 0, 64, 0
1, 470080, Note_on_c, 0, 79, 31
1, 470080, Note_on_c, 0, 60, 31
1, 470100, Tempo, 409556
1, 470120, Tempo, 408136
1, 470140, Tempo, 405488
1, 470160, Tempo, 402793
1, 470160, Note_on_c, 0, 79, 0
1, 470160, Note_on_c, 0, 91, 0
1, 470160, Note_on_c, 0, 81, 27
1, 470160, Note_on_c, 0, 88, 50
1, 470200, Tempo, 404068
1, 470220, Tempo, 408136
1, 470240, Tempo, 409556
1, 470240, Note_on_c, 0, 81, 0
1, 470240, Note_on_c, 0, 60, 0
1, 470240, Note_on_c, 0, 79, 31
1, 470240, Note_on_c, 0, 64, 31
1, 470300, Tempo, 404068
1, 470320, Note_on_c, 0, 79, 0
1, 470320, Note_on_c, 0, 81, 27
1, 470380, Tempo, 400107
1, 470400, Note_on_c, 0, 81, 0
1, 470400, Note_on_c, 0, 64, 0
1, 470400, Note_on_c, 0, 88, 0
1, 470400, Note_on_c, 0, 79, 32
1, 470400, Note_on_c, 0, 86, 57
1, 470400, Note_on_c, 0, 65, 35
1, 470409, Control_c, 0, 64, 0
1, 470440, Tempo, 397535
1, 470480, Tempo, 396223
1, 470480, Note_on_c, 0, 79, 0
1, 470480, Note_on_c, 0, 81, 28
1, 470485, Control_c, 0, 64, 127
1, 470500, Tempo, 394945
1, 470520, Tempo, 396223
1, 470540, Tempo, 398830
1, 470560, Tempo, 401472
1, 470560, Note_on_c, 0, 81, 0
1, 470560, Note_on_c, 0, 65, 0
1, 470560, Note_on_c, 0, 79, 31
1, 470560, Note_on_c, 0, 62, 31
1, 470580, Tempo, 402793
1, 470600, Tempo, 404068
1, 470640, Tempo, 402793
1, 470640, Note_on_c, 0, 79, 0
1, 470640, Note_on_c, 0, 81, 27
1, 470660, Tempo, 400107
1, 470680, Tempo, 396223
1, 470700, Tempo, 392413
1, 470720, Tempo, 391160
1, 470720, Note_on_c, 0, 81, 0
1, 470720, Note_on_c, 0, 62, 0
1, 470720, Note_on_c, 0, 79, 31
1, 470720, Note_on_c, 0, 65, 31
1, 470760, Tempo, 393701
1, 470780, Tempo, 394945
1, 470800, Tempo, 396223
1, 470800, Note_on_c, 0, 79, 0
1, 470800, Note_on_c, 0, 81, 27
1, 470820, Tempo, 398830
1, 470840, Tempo, 401472
1, 470860, Tempo, 405488
1, 470880, Note_on_c, 0, 81, 0
1, 470880, Note_on_c, 0, 65, 0
1, 470880, Note_on_c, 0, 86, 0
1, 470880, Note_on_c, 0, 79, 31
1, 470880, Note_on_c, 0, 79, 50
1, 470880, Note_on_c, 0, 59, 36
1, 470900, Tempo, 404068
1, 470920, Tempo, 402793
1, 470950, Note_on_c, 0, 79, 0
1, 470960, Note_on_c, 0, 79, 0
1, 470960, Note_on_c, 0, 81, 27
1, 470980, Tempo, 401472
1, 471040, Note_on_c, 0, 81, 0
1, 471040, Note_on_c, 0, 59, 0
1, 471040, Note_on_c, 0, 79, 31
1, 471040, Note_on_c, 0, 62, 31
1, 471060, Tempo, 406780
1, 471080, Tempo, 409556
1, 471100, Tempo, 412286
1, 471120, Note_on_c, 0, 79, 0
1, 471120, Note_on_c, 0, 81, 27
1, 471140, Tempo, 410903
1, 471160, Tempo, 409556
1, 471180, Tempo, 406780
1, 471200, Tempo, 404068
1, 471200, Note_on_c, 0, 81, 0
1, 471200, Note_on_c, 0, 62, 0
1, 471200, Note_on_c, 0, 79, 31
1, 471200, Note_on_c, 0, 59, 31
1, 471220, Tempo, 401472
1, 471280, Tempo, 402793
1, 471280, Note_on_c, 0, 79, 0
1, 471280, Note_on_c, 0, 81, 27
1, 471320, Tempo, 404068
1, 471360, Tempo, 405488
1, 471360, Note_on_c, 0, 81, 0
1, 471360, Note_on_c, 0, 59, 0
1, 471360, Note_on_c, 0, 79, 32
1, 471360, Note_on_c, 0, 84, 53
1, 471360, Note_on_c, 0, 60, 35
1, 471371, Control_c, 0, 64, 0
1, 471380, Tempo, 404040
1, 471396, Control_c, 0, 64, 127
1, 471400, Tempo, 402712
1, 471420, Tempo, 401311
1, 471440, Note_on_c, 0, 79, 0
1, 471440, Note_on_c, 0, 81, 28
1, 471460, Tempo, 399947
1, 471480, Tempo, 398618
1, 471500, Tempo, 399947
1, 471520, Tempo, 402712
1, 471520, Note_on_c, 0, 81, 0
1, 471520, Note_on_c, 0, 60, 0
1, 471520, Note_on_c, 0, 79, 32
1, 471520, Note_on_c, 0, 57, 31
1, 471540, Tempo, 404040
1, 471560, Tempo, 406862
1, 471561, Control_c, 0, 64, 0
1, 471600, Note_on_c, 0, 79, 0
1, 471600, Note_on_c, 0, 84, 0
1, 471600, Note_on_c, 0, 81, 28
1, 471620, Tempo, 404040
1, 471640, Tempo, 402712
1, 471660, Tempo, 401311
1, 471680, Tempo, 399947
1, 471680, Note_on_c, 0, 81, 0
1, 471680, Note_on_c, 0, 57, 0
1, 471680, Note_on_c, 0, 79, 34
1, 471680, Note_on_c, 0, 55, 31
1, 471720, Tempo, 405488
1, 471740, Tempo, 408274
1, 471760, Tempo, 409696
1, 471760, Note_on_c, 0, 79, 0
1, 471760, Note_on_c, 0, 81, 30
1, 471780, Tempo, 411100
1, 471840, Note_on_c, 0, 81, 0
1, 471840, Note_on_c, 0, 55, 0
1, 471840, Note_on_c, 0, 79, 35
1, 471840, Note_on_c, 0, 53, 35
1, 471860, Tempo, 409696
1, 471900, Tempo, 406862
1, 471920, Tempo, 405488
1, 471920, Note_on_c, 0, 79, 0
1, 471920, Note_on_c, 0, 81, 31
1, 471940, Tempo, 404040
1, 471980, Tempo, 405488
1, 472000, Tempo, 408274
1, 472000, Note_on_c, 0, 81, 0
1, 472000, Note_on_c, 0, 53, 0
1, 472000, Note_on_c, 0, 79, 36
1, 472000, Note_on_c, 0, 52, 31
1, 472040, Tempo, 409696
1, 472060, Tempo, 411100
1, 472080, Note_on_c, 0, 79, 0
1, 472080, Note_on_c, 0, 81, 32
1, 472120, Tempo, 412541
1, 472160, Tempo, 411100
1, 472160, Note_on_c, 0, 81, 0
1, 472160, Note_on_c, 0, 52, 0
1, 472160, Note_on_c, 0, 79, 38
1, 472160, Note_on_c, 0, 50, 31
1, 472180, Tempo, 409696
1, 472200, Tempo, 405488
1, 472220, Tempo, 404040
1, 472240, Tempo, 402712
1, 472240, Note_on_c, 0, 79, 0
1, 472240, Note_on_c, 0, 81, 34
1, 472280, Tempo, 405488
1, 472300, Tempo, 406862
1, 472320, Note_on_c, 0, 81, 0
1, 472320, Note_on_c, 0, 50, 0
1, 472320, Note_on_c, 0, 80, 46
1, 472320, Note_on_c, 0, 48, 63
1, 472340, Tempo, 404068
1, 472366, Control_c, 0, 64, 127
1, 472380, Tempo, 402793
1, 472400, Tempo, 400107
1, 472400, Note_on_c, 0, 80, 0
1, 472400, Note_on_c, 0, 79, 31
1, 472420, Tempo, 397535
1, 472440, Tempo, 396223
1, 472460, Tempo, 401472
1, 472480, Tempo, 402793
1, 472480, Note_on_c, 0, 79, 0
1, 472480, Note_on_c, 0, 48, 0
1, 472480, Note_on_c, 0, 80, 33
1, 472480, Note_on_c, 0, 55, 31
1, 472500, Tempo, 405488
1, 472520, Tempo, 406780
1, 472540, Tempo, 409556
1, 472560, Note_on_c, 0, 80, 0
1, 472560, Note_on_c, 0, 79, 29
1, 472600, Tempo, 406780
1, 472620, Tempo, 404068
1, 472640, Tempo, 402793
1, 472640, Note_on_c, 0, 79, 0
1, 472640, Note_on_c, 0, 55, 0
1, 472640, Note_on_c, 0, 80, 32
1, 472640, Note_on_c, 0, 60, 31
1, 472660, Tempo, 401472
1, 472700, Tempo, 400107
1, 472720, Tempo, 398830
1, 472720, Note_on_c, 0, 80, 0
1, 472720, Note_on_c, 0, 79, 28
1, 472760, Tempo, 400107
1, 472780, Tempo, 404068
1, 472800, Tempo, 405488
1, 472800, Note_on_c, 0, 79, 0
1, 472800, Note_on_c, 0, 60, 0
1, 472800, Note_on_c, 0, 80, 31
1, 472800, Note_on_c, 0, 91, 57
1, 472800, Note_on_c, 0, 63, 33
1, 472820, Tempo, 408136
1, 472860, Tempo, 409556
1, 472880, Tempo, 410903
1, 472880, Note_on_c, 0, 80, 0
1, 472880, Note_on_c, 0, 79, 27
1, 472900, Tempo, 408136
1, 472920, Tempo, 405488
1, 472940, Tempo, 404068
1, 472960, Tempo, 402793
1, 472960, Note_on_c, 0, 79, 0
1, 472960, Note_on_c, 0, 63, 0
1, 472960, Note_on_c, 0, 80, 31
1, 472960, Note_on_c, 0, 60, 31
1, 472980, Tempo, 400107
1, 473000, Tempo, 398830
1, 473020, Tempo, 397535
1, 473040, Tempo, 396223
1, 473040, Note_on_c, 0, 80, 0
1, 473040, Note_on_c, 0, 79, 27
1, 473060, Tempo, 394945
1, 473080, Tempo, 393701
1, 473100, Tempo, 396223
1, 473120, Tempo, 398830
1, 473120, Note_on_c, 0, 79, 0
1, 473120, Note_on_c, 0, 60, 0
1, 473120, Note_on_c, 0, 80, 31
1, 473120, Note_on_c, 0, 63, 31
1, 473140, Tempo, 401472
1, 473160, Tempo, 402793
1, 473180, Tempo, 404068
1, 473200, Tempo, 405488
1, 473200, Note_on_c, 0, 80, 0
1, 473200, Note_on_c, 0, 79, 27
1, 473240, Tempo, 406780
1, 473260, Tempo, 409556
1, 473280, Note_on_c, 0, 79, 0
1, 473280, Note_on_c, 0, 63, 0
1, 473280, Note_on_c, 0, 91, 0
1, 473280, Note_on_c, 0, 80, 32
1, 473280, Note_on_c, 0, 91, 59
1, 473280, Note_on_c, 0, 67, 35
1, 473320, Tempo, 405488
1, 473340, Tempo, 402793
1, 473360, Tempo, 400107
1, 473360, Note_on_c, 0, 80, 0
1, 473360, Note_on_c, 0, 79, 28
1, 473380, Tempo, 398830
1, 473420, Tempo, 397535
1, 473440, Note_on_c, 0, 79, 0
1, 473440, Note_on_c, 0, 67, 0
1, 473440, Note_on_c, 0, 80, 31
1, 473440, Note_on_c, 0, 63, 31
1, 473500, Tempo, 400107
1, 473520, Tempo, 405488
1, 473520, Note_on_c, 0, 80, 0
1, 473520, Note_on_c, 0, 79, 27
1, 473540, Tempo, 406780
1, 473560, Tempo, 409556
1, 473580, Tempo, 410903
1, 473600, Note_on_c, 0, 79, 0
1, 473600, Note_on_c, 0, 63, 0
1, 473600, Note_on_c, 0, 80, 31
1, 473600, Note_on_c, 0, 67, 31
1, 473640, Tempo, 408136
1, 473660, Tempo, 404068
1, 473680, Note_on_c, 0, 80, 0
1, 473680, Note_on_c, 0, 79, 27
1, 473740, Tempo, 406780
1, 473760, Note_on_c, 0, 79, 0
1, 473760, Note_on_c, 0, 67, 0
1, 473760, Note_on_c, 0, 80, 31
1, 473760, Note_on_c, 0, 63, 35
1, 473780, Tempo, 402793
1, 473800, Tempo, 400107
1, 473840, Note_on_c, 0, 80, 0
1, 473840, Note_on_c, 0, 79, 27
1, 473860, Tempo, 398830
1, 473880, Tempo, 401472
1, 473900, Tempo, 405488
1, 473920, Tempo, 406780
1, 473920, Note_on_c, 0, 79, 0
1, 473920, Note_on_c, 0, 63, 0
1, 473920, Note_on_c, 0, 80, 31
1, 473920, Note_on_c, 0, 60, 31
1, 473940, Tempo, 409556
1, 473960, Tempo, 408136
1, 473980, Tempo, 405488
1, 474000, Tempo, 402793
1, 474000, Note_on_c, 0, 80, 0
1, 474000, Note_on_c, 0, 91, 0
1, 474000, Note_on_c, 0, 79, 27
1, 474000, Note_on_c, 0, 87, 50
1, 474040, Tempo, 404068
1, 474060, Tempo, 408136
1, 474080, Tempo, 409556
1, 474080, Note_on_c, 0, 79, 0
1, 474080, Note_on_c, 0, 60, 0
1, 474080, Note_on_c, 0, 80, 31
1, 474080, Note_on_c, 0, 63, 31
1, 474140, Tempo, 404068
1, 474160, Note_on_c, 0, 80, 0
1, 474160, Note_on_c, 0, 79, 27
1, 474220, Tempo, 400107
1, 474240, Note_on_c, 0, 79, 0
1, 474240, Note_on_c, 0, 63, 0
1, 474240, Note_on_c, 0, 87, 0
1, 474240, Note_on_c, 0, 80, 37
1, 474240, Note_on_c, 0, 86, 57
1, 474240, Note_on_c, 0, 65, 35
1, 474250, Control_c, 0, 64, 0
1, 474280, Tempo, 397535
1, 474283, Control_c, 0, 64, 127
1, 474320, Tempo, 396223
1, 474320, Note_on_c, 0, 80, 0
1, 474320, Note_on_c, 0, 79, 28
1, 474340, Tempo, 394945
1, 474360, Tempo, 396223
1, 474380, Tempo, 398830
1, 474400, Tempo, 401472
1, 474400, Note_on_c, 0, 79, 0
1, 474400, Note_on_c, 0, 65, 0
1, 474400, Note_on_c, 0, 80, 34
1, 474400, Note_on_c, 0, 62, 31
1, 474420, Tempo, 402793
1, 474440, Tempo, 404068
1, 474480, Tempo, 402793
1, 474480, Note_on_c, 0, 80, 0
1, 474480, Note_on_c, 0, 79, 28
1, 474500, Tempo, 400107
1, 474520, Tempo, 396223
1, 474540, Tempo, 392413
1, 474560, Tempo, 391160
1, 474560, Note_on_c, 0, 79, 0
1, 474560, Note_on_c, 0, 62, 0
1, 474560, Note_on_c, 0, 80, 34
1, 474560, Note_on_c, 0, 65, 31
1, 474600, Tempo, 393701
1, 474620, Tempo, 394945
1, 474640, Tempo, 396223
1, 474640, Note_on_c, 0, 80, 0
1, 474640, Note_on_c, 0, 79, 28
1, 474660, Tempo, 398830
1, 474680, Tempo, 401472
1, 474700, Tempo, 405488
1, 474720, Note_on_c, 0, 79, 0
1, 474720, Note_on_c, 0, 65, 0
1, 474720, Note_on_c, 0, 86, 0
1, 474720, Note_on_c, 0, 80, 31
1, 474720, Note_on_c, 0, 79, 50
1, 474720, Note_on_c, 0, 62, 36
1, 474740, Tempo, 404068
1, 474760, Tempo, 402793
1, 474790, Note_on_c, 0, 79, 0
1, 474800, Note_on_c, 0, 80, 0
1, 474800, Note_on_c, 0, 79, 27
1, 474820, Tempo, 401472
1, 474880, Note_on_c, 0, 79, 0
1, 474880, Note_on_c, 0, 62, 0
1, 474880, Note_on_c, 0, 80, 31
1, 474880, Note_on_c, 0, 59, 31
1, 474900, Tempo, 406780
1, 474920, Tempo, 409556
1, 474940, Tempo, 412286
1, 474960, Note_on_c, 0, 80, 0
1, 474960, Note_on_c, 0, 79, 27
1, 474980, Tempo, 410903
1, 475000, Tempo, 409556
1, 475020, Tempo, 406780
1, 475040, Tempo, 404068
1, 475040, Note_on_c, 0, 79, 0
1, 475040, Note_on_c, 0, 59, 0
1, 475040, Note_on_c, 0, 80, 31
1, 475040, Note_on_c, 0, 62, 31
1, 475060, Tempo, 401472
1, 475120, Tempo, 402793
1, 475120, Note_on_c, 0, 80, 0
1, 475120, Note_on_c, 0, 79, 27
1, 475160, Tempo, 404068
1, 475200, Tempo, 409556
1, 475200, Note_on_c, 0, 79, 0
1, 475200, Note_on_c, 0, 62, 0
1, 475200, Note_on_c, 0, 80, 32
1, 475200, Note_on_c, 0, 84, 53
1, 475200, Note_on_c, 0, 63, 35
1, 475200, Control_c, 0, 64, 0
1, 475232, Control_c, 0, 64, 127
1, 475240, Tempo, 405488
1, 475260, Tempo, 404040
1, 475280, Tempo, 402712
1, 475280, Note_on_c, 0, 80, 0
1, 475280, Note_on_c, 0, 79, 28
1, 475300, Tempo, 401311
1, 475320, Tempo, 399947
1, 475360, Note_on_c, 0, 79, 0
1, 475360, Note_on_c, 0, 63, 0
1, 475360, Note_on_c, 0, 80, 31
1, 475360, Note_on_c, 0, 60, 31
1, 475380, Tempo, 402712
1, 475400, Tempo, 405488
1, 475440, Tempo, 408274
1, 475440, Note_on_c, 0, 80, 0
1, 475440, Note_on_c, 0, 84, 0
1, 475440, Note_on_c, 0, 79, 27
1, 475520, Tempo, 406862
1, 475520, Note_on_c, 0, 79, 0
1, 475520, Note_on_c, 0, 60, 0
1, 475520, Note_on_c, 0, 80, 31
1, 475520, Note_on_c, 0, 63, 31
1, 475540, Tempo, 402712
1, 475560, Tempo, 401311
1, 475600, Note_on_c, 0, 80, 0
1, 475600, Note_on_c, 0, 79, 27
1, 475620, Tempo, 399947
1, 475640, Tempo, 398618
1, 475660, Tempo, 401311
1, 475680, Tempo, 406862
1, 475680, Note_on_c, 0, 79, 0
1, 475680, Note_on_c, 0, 63, 0
1, 475680, Note_on_c, 0, 80, 31
1, 475680, Note_on_c, 0, 51, 35
1, 475680, Note_on_c, 0, 58, 35
1, 475760, Note_on_c, 0, 80, 0
1, 475760, Note_on_c, 0, 79, 27
1, 475780, Tempo, 408274
1, 475820, Tempo, 409696
1, 475840, Note_on_c, 0, 79, 0
1, 475840, Note_on_c, 0, 58, 0
1, 475840, Note_on_c, 0, 80, 31
1, 475840, Note_on_c, 0, 61, 31
1, 475860, Tempo, 405488
1, 475880, Tempo, 406862
1, 475900, Tempo, 408274
1, 475920, Tempo, 409696
1, 475920, Note_on_c, 0, 80, 0
1, 475920, Note_on_c, 0, 51, 0
1, 475920, Note_on_c, 0, 79, 27
1, 475940, Tempo, 411100
1, 475960, Tempo, 413993
1, 475980, Tempo, 416898
1, 476000, Tempo, 421408
1, 476000, Note_on_c, 0, 79, 0
1, 476000, Note_on_c, 0, 61, 0
1, 476000, Note_on_c, 0, 77, 31
1, 476000, Note_on_c, 0, 58, 31
1, 476020, Tempo, 427533
1, 476040, Tempo, 432246
1, 476060, Tempo, 438629
1, 476080, Tempo, 443590
1, 476080, Note_on_c, 0, 77, 0
1, 476080, Note_on_c, 0, 79, 27
1, 476100, Tempo, 450349
1, 476120, Tempo, 455581
1, 476140, Tempo, 462713
1, 476160, Tempo, 405488
1, 476160, Note_on_c, 0, 79, 0
1, 476160, Note_on_c, 0, 58, 0
1, 476160, Note_on_c, 0, 80, 36
1, 476160, Note_on_c, 0, 44, 45
1, 476160, Control_c, 0, 64, 0
1, 476180, Tempo, 404068
1, 476203, Control_c, 0, 64, 127
1, 476220, Tempo, 402793
1, 476240, Tempo, 400107
1, 476240, Note_on_c, 0, 80, 0
1, 476240, Note_on_c, 0, 82, 31
1, 476260, Tempo, 397535
1, 476280, Tempo, 396223
1, 476300, Tempo, 401472
1, 476320, Tempo, 402793
1, 476320, Note_on_c, 0, 82, 0
1, 476320, Note_on_c, 0, 44, 0
1, 476320, Note_on_c, 0, 80, 33
1, 476320, Note_on_c, 0, 51, 31
1, 476340, Tempo, 405488
1, 476360, Tempo, 406780
1, 476380, Tempo, 409556
1, 476400, Note_on_c, 0, 80, 0
1, 476400, Note_on_c, 0, 82, 29
1, 476440, Tempo, 406780
1, 476460, Tempo, 404068
1, 476480, Tempo, 402793
1, 476480, Note_on_c, 0, 82, 0
1, 476480, Note_on_c, 0, 51, 0
1, 476480, Note_on_c, 0, 80, 32
1, 476480, Note_on_c, 0, 56, 31
1, 476500, Tempo, 401472
1, 476540, Tempo, 400107
1, 476560, Tempo, 398830
1, 476560, Note_on_c, 0, 80, 0
1, 476560, Note_on_c, 0, 82, 28
1, 476600, Tempo, 400107
1, 476620, Tempo, 404068
1, 476640, Tempo, 405488
1, 476640, Note_on_c, 0, 82, 0
1, 476640, Note_on_c, 0, 56, 0
1, 476640, Note_on_c, 0, 75, 31
1, 476640, Note_on_c, 0, 87, 57
1, 476640, Note_on_c, 0, 60, 33
1, 476655, Control_c, 0, 64, 0
1, 476660, Tempo, 408136
1, 476700, Tempo, 409556
1, 476703, Control_c, 0, 64, 127
1, 476720, Tempo, 410903
1, 476720, Note_on_c, 0, 75, 0
1, 476720, Note_on_c, 0, 77, 27
1, 476740, Tempo, 408136
1, 476760, Tempo, 405488
1, 476780, Tempo, 404068
1, 476800, Tempo, 402793
1, 476800, Note_on_c, 0, 77, 0
1, 476800, Note_on_c, 0, 60, 0
1, 476800, Note_on_c, 0, 75, 31
1, 476800, Note_on_c, 0, 56, 31
1, 476820, Tempo, 400107
1, 476840, Tempo, 398830
1, 476860, Tempo, 397535
1, 476880, Tempo, 396223
1, 476880, Note_on_c, 0, 75, 0
1, 476880, Note_on_c, 0, 77, 27
1, 476900, Tempo, 394945
1, 476920, Tempo, 393701
1, 476940, Tempo, 396223
1, 476960, Tempo, 398830
1, 476960, Note_on_c, 0, 77, 0
1, 476960, Note_on_c, 0, 56, 0
1, 476960, Note_on_c, 0, 75, 31
1, 476960, Note_on_c, 0, 60, 31
1, 476980, Tempo, 401472
1, 477000, Tempo, 402793
1, 477020, Tempo, 404068
1, 477040, Tempo, 405488
1, 477040, Note_on_c, 0, 75, 0
1, 477040, Note_on_c, 0, 77, 27
1, 477080, Tempo, 406780
1, 477100, Tempo, 409556
1, 477120, Note_on_c, 0, 77, 0
1, 477120, Note_on_c, 0, 60, 0
1, 477120, Note_on_c, 0, 87, 0
1, 477120, Note_on_c, 0, 75, 32
1, 477120, Note_on_c, 0, 87, 59
1, 477120, Note_on_c, 0, 63, 35
1, 477160, Tempo, 405488
1, 477180, Tempo, 402793
1, 477200, Tempo, 400107
1, 477200, Note_on_c, 0, 75, 0
1, 477200, Note_on_c, 0, 77, 28
1, 477220, Tempo, 398830
1, 477260, Tempo, 397535
1, 477280, Note_on_c, 0, 77, 0
1, 477280, Note_on_c, 0, 63, 0
1, 477280, Note_on_c, 0, 75, 31
1, 477280, Note_on_c, 0, 60, 31
1, 477340, Tempo, 400107
1, 477360, Tempo, 405488
1, 477360, Note_on_c, 0, 75, 0
1, 477360, Note_on_c, 0, 77, 27
1, 477380, Tempo, 406780
1, 477400, Tempo, 409556
1, 477420, Tempo, 410903
1, 477440, Note_on_c, 0, 77, 0
1, 477440, Note_on_c, 0, 60, 0
1, 477440, Note_on_c, 0, 75, 31
1, 477440, Note_on_c, 0, 63, 31
1, 477480, Tempo, 408136
1, 477500, Tempo, 404068
1, 477520, Note_on_c, 0, 75, 0
1, 477520, Note_on_c, 0, 77, 27
1, 477580, Tempo, 406780
1, 477600, Note_on_c, 0, 77, 0
1, 477600, Note_on_c, 0, 63, 0
1, 477600, Note_on_c, 0, 75, 31
1, 477600, Note_on_c, 0, 60, 35
1, 477620, Tempo, 402793
1, 477640, Tempo, 400107
1, 477680, Note_on_c, 0, 75, 0
1, 477680, Note_on_c, 0, 77, 27
1, 477700, Tempo, 398830
1, 477720, Tempo, 401472
1, 477740, Tempo, 405488
1, 477760, Tempo, 406780
1, 477760, Note_on_c, 0, 77, 0
1, 477760, Note_on_c, 0, 60, 0
1, 477760, Note_on_c, 0, 75, 31
1, 477760, Note_on_c, 0, 56, 31
1, 477780, Tempo, 409556
1, 477800, Tempo, 408136
1, 477820, Tempo, 405488
1, 477840, Tempo, 402793
1, 477840, Note_on_c, 0, 75, 0
1, 477840, Note_on_c, 0, 87, 0
1, 477840, Note_on_c, 0, 77, 27
1, 477840, Note_on_c, 0, 84, 50
1, 477880, Tempo, 404068
1, 477900, Tempo, 408136
1, 477920, Tempo, 409556
1, 477920, Note_on_c, 0, 77, 0
1, 477920, Note_on_c, 0, 56, 0
1, 477920, Note_on_c, 0, 75, 31
1, 477920, Note_on_c, 0, 60, 31
1, 477980, Tempo, 404068
1, 478000, Note_on_c, 0, 75, 0
1, 478000, Note_on_c, 0, 77, 27
1, 478060, Tempo, 400107
1, 478080, Note_on_c, 0, 77, 0
1, 478080, Note_on_c, 0, 60, 0
1, 478080, Note_on_c, 0, 84, 0
1, 478080, Note_on_c, 0, 75, 32
1, 478080, Note_on_c, 0, 82, 57
1, 478080, Note_on_c, 0, 61, 35
1, 478087, Control_c, 0, 64, 0
1, 478120, Tempo, 397535
1, 478129, Control_c, 0, 64, 127
1, 478160, Tempo, 396223
1, 478160, Note_on_c, 0, 75, 0
1, 478160, Note_on_c, 0, 77, 28
1, 478180, Tempo, 394945
1, 478200, Tempo, 396223
1, 478220, Tempo, 398830
1, 478240, Tempo, 401472
1, 478240, Note_on_c, 0, 77, 0
1, 478240, Note_on_c, 0, 61, 0
1, 478240, Note_on_c, 0, 75, 31
1, 478240, Note_on_c, 0, 58, 31
1, 478260, Tempo, 402793
1, 478280, Tempo, 404068
1, 478320, Tempo, 402793
1, 478320, Note_on_c, 0, 75, 0
1, 478320, Note_on_c, 0, 77, 27
1, 478340, Tempo, 400107
1, 478360, Tempo, 396223
1, 478380, Tempo, 392413
1, 478400, Tempo, 391160
1, 478400, Note_on_c, 0, 77, 0
1, 478400, Note_on_c, 0, 58, 0
1, 478400, Note_on_c, 0, 75, 31
1, 478400, Note_on_c, 0, 61, 31
1, 478440, Tempo, 393701
1, 478460, Tempo, 394945
1, 478480, Tempo, 396223
1, 478480, Note_on_c, 0, 75, 0
1, 478480, Note_on_c, 0, 77, 27
1, 478500, Tempo, 398830
1, 478520, Tempo, 401472
1, 478540, Tempo, 405488
1, 478560, Note_on_c, 0, 77, 0
1, 478560, Note_on_c, 0, 61, 0
1, 478560, Note_on_c, 0, 82, 0
1, 478560, Note_on_c, 0, 75, 31
1, 478560, Note_on_c, 0, 75, 50
1, 478560, Note_on_c, 0, 58, 36
1, 478580, Tempo, 404068
1, 478600, Tempo, 402793
1, 478640, Note_on_c, 0, 75, 0
1, 478640, Note_on_c, 0, 77, 27
1, 478660, Tempo, 401472
1, 478720, Note_on_c, 0, 77, 0
1, 478720, Note_on_c, 0, 58, 0
1, 478720, Note_on_c, 0, 75, 31
1, 478720, Note_on_c, 0, 55, 31
1, 478740, Tempo, 406780
1, 478760, Tempo, 409556
1, 478780, Tempo, 412286
1, 478800, Note_on_c, 0, 75, 0
1, 478800, Note_on_c, 0, 77, 27
1, 478820, Tempo, 410903
1, 478840, Tempo, 409556
1, 478860, Tempo, 406780
1, 478880, Tempo, 404068
1, 478880, Note_on_c, 0, 77, 0
1, 478880, Note_on_c, 0, 55, 0
1, 478880, Note_on_c, 0, 75, 31
1, 478880, Note_on_c, 0, 58, 31
1, 478900, Tempo, 401472
1, 478960, Tempo, 402793
1, 478960, Note_on_c, 0, 75, 0
1, 478960, Note_on_c, 0, 77, 27
1, 479000, Tempo, 404068
1, 479040, Tempo, 405488
1, 479040, Note_on_c, 0, 77, 0
1, 479040, Note_on_c, 0, 58, 0
1, 479040, Note_on_c, 0, 75, 0
1, 479040, Note_on_c, 0, 75, 32
1, 479040, Note_on_c, 0, 80, 53
1, 479040, Note_on_c, 0, 60, 35
1, 479048, Control_c, 0, 64, 0
1, 479060, Tempo, 404040
1, 479080, Tempo, 402712
1, 479080, Control_c, 0, 64, 127
1, 479120, Note_on_c, 0, 75, 0
1, 479120, Note_on_c, 0, 77, 28
1, 479160, Tempo, 404040
1, 479180, Tempo, 406862
1, 479200, Tempo, 408274
1, 479200, Note_on_c, 0, 77, 0
1, 479200, Note_on_c, 0, 60, 0
1, 479200, Note_on_c, 0, 75, 32
1, 479200, Note_on_c, 0, 56, 31
1, 479220, Tempo, 411100
1, 479232, Control_c, 0, 64, 0
1, 479240, Tempo, 412541
1, 479280, Tempo, 409696
1, 479280, Note_on_c, 0, 75, 0
1, 479280, Note_on_c, 0, 80, 0
1, 479280, Note_on_c, 0, 77, 28
1, 479300, Tempo, 408274
1, 479320, Tempo, 405488
1, 479340, Tempo, 404040
1, 479360, Tempo, 402712
1, 479360, Note_on_c, 0, 77, 0
1, 479360, Note_on_c, 0, 56, 0
1, 479360, Note_on_c, 0, 75, 34
1, 479360, Note_on_c, 0, 60, 31
1, 479400, Tempo, 401311
1, 479420, Tempo, 404040
1, 479440, Tempo, 406862
1, 479440, Note_on_c, 0, 75, 0
1, 479440, Note_on_c, 0, 77, 30
1, 479460, Tempo, 408274
1, 479480, Tempo, 409696
1, 479500, Tempo, 411100
1, 479520, Tempo, 412541
1, 479520, Note_on_c, 0, 77, 0
1, 479520, Note_on_c, 0, 60, 0
1, 479520, Note_on_c, 0, 76, 35
1, 479520, Note_on_c, 0, 48, 35
1, 479520, Note_on_c, 0, 55, 35
1, 479580, Tempo, 408274
1, 479600, Tempo, 405488
1, 479600, Note_on_c, 0, 76, 0
1, 479600, Note_on_c, 0, 77, 31
1, 479640, Tempo, 402712
1, 479660, Tempo, 401311
1, 479680, Note_on_c, 0, 77, 0
1, 479680, Note_on_c, 0, 55, 0
1, 479680, Note_on_c, 0, 76, 36
1, 479680, Note_on_c, 0, 58, 31
1, 479740, Tempo, 404040
1, 479760, Tempo, 406862
1, 479760, Note_on_c, 0, 76, 0
1, 479760, Note_on_c, 0, 48, 0
1, 479760, Note_on_c, 0, 77, 32
1, 479820, Note_on_c, 0, 77, 0
1, 479820, Note_on_c, 0, 76, 38
1, 479840, Note_on_c, 0, 58, 0
1, 479840, Note_on_c, 0, 55, 31
1, 479880, Note_on_c, 0, 76, 0
1, 479880, Note_on_c, 0, 77, 34
1, 479935, Note_on_c, 0, 76, 34
1, 479940, Note_on_c, 0, 77, 0
1, 479995, Note_on_c, 0, 76, 0
1, 480000, Tempo, 405488
1, 480000, Note_on_c, 0, 55, 0
1, 480000, Note_on_c, 0, 77, 36
1, 480000, Note_on_c, 0, 41, 45
1, 480020, Tempo, 404068
1, 480046, Control_c, 0, 64, 127
1, 480060, Tempo, 402793
1, 480080, Tempo, 400107
1, 480080, Note_on_c, 0, 77, 0
1, 480080, Note_on_c, 0, 79, 31
1, 480100, Tempo, 397535
1, 480120, Tempo, 396223
1, 480140, Tempo, 401472
1, 480160, Tempo, 402793
1, 480160, Note_on_c, 0, 79, 0
1, 480160, Note_on_c, 0, 41, 0
1, 480160, Note_on_c, 0, 77, 33
1, 480160, Note_on_c, 0, 48, 31
1, 480180, Tempo, 405488
1, 480200, Tempo, 406780
1, 480220, Tempo, 409556
1, 480240, Note_on_c, 0, 77, 0
1, 480240, Note_on_c, 0, 79, 29
1, 480280, Tempo, 406780
1, 480300, Tempo, 404068
1, 480320, Tempo, 402793
1, 480320, Note_on_c, 0, 79, 0
1, 480320, Note_on_c, 0, 48, 0
1, 480320, Note_on_c, 0, 77, 32
1, 480320, Note_on_c, 0, 53, 31
1, 480340, Tempo, 401472
1, 480380, Tempo, 400107
1, 480400, Tempo, 398830
1, 480400, Note_on_c, 0, 77, 0
1, 480400, Note_on_c, 0, 79, 28
1, 480440, Tempo, 400107
1, 480460, Tempo, 404068
1, 480480, Tempo, 405488
1, 480480, Note_on_c, 0, 79, 0
1, 480480, Note_on_c, 0, 53, 0
1, 480480, Note_on_c, 0, 73, 31
1, 480480, Note_on_c, 0, 84, 57
1, 480480, Note_on_c, 0, 56, 33
1, 480500, Tempo, 408136
1, 480540, Tempo, 409556
1, 480560, Tempo, 410903
1, 480560, Note_on_c, 0, 73, 0
1, 480560, Note_on_c, 0, 72, 27
1, 480580, Tempo, 408136
1, 480600, Tempo, 405488
1, 480620, Tempo, 404068
1, 480640, Tempo, 402793
1, 480640, Note_on_c, 0, 72, 0
1, 480640, Note_on_c, 0, 56, 0
1, 480640, Note_on_c, 0, 73, 31
1, 480640, Note_on_c, 0, 53, 31
1, 480660, Tempo, 400107
1, 480680, Tempo, 398830
1, 480700, Tempo, 397535
1, 480720, Tempo, 396223
1, 480720, Note_on_c, 0, 73, 0
1, 480720, Note_on_c, 0, 72, 27
1, 480740, Tempo, 394945
1, 480760, Tempo, 393701
1, 480780, Tempo, 396223
1, 480800, Tempo, 398830
1, 480800, Note_on_c, 0, 72, 0
1, 480800, Note_on_c, 0, 53, 0
1, 480800, Note_on_c, 0, 73, 31
1, 480800, Note_on_c, 0, 56, 31
1, 480820, Tempo, 401472
1, 480840, Tempo, 402793
1, 480860, Tempo, 404068
1, 480880, Tempo, 405488
1, 480880, Note_on_c, 0, 73, 0
1, 480880, Note_on_c, 0, 72, 27
1, 480920, Tempo, 406780
1, 480940, Tempo, 409556
1, 480960, Note_on_c, 0, 72, 0
1, 480960, Note_on_c, 0, 56, 0
1, 480960, Note_on_c, 0, 84, 0
1, 480960, Note_on_c, 0, 73, 32
1, 480960, Note_on_c, 0, 84, 59
1, 480960, Note_on_c, 0, 60, 35
1, 481000, Tempo, 405488
1, 481020, Tempo, 402793
1, 481040, Tempo, 400107
1, 481040, Note_on_c, 0, 73, 0
1, 481040, Note_on_c, 0, 72, 28
1, 481060, Tempo, 398830
1, 481100, Tempo, 397535
1, 481120, Note_on_c, 0, 72, 0
1, 481120, Note_on_c, 0, 60, 0
1, 481120, Note_on_c, 0, 73, 31
1, 481120, Note_on_c, 0, 56, 31
1, 481180, Tempo, 400107
1, 481200, Tempo, 405488
1, 481200, Note_on_c, 0, 73, 0
1, 481200, Note_on_c, 0, 72, 27
1, 481220, Tempo, 406780
1, 481240, Tempo, 409556
1, 481260, Tempo, 410903
1, 481280, Note_on_c, 0, 72, 0
1, 481280, Note_on_c, 0, 56, 0
1, 481280, Note_on_c, 0, 73, 31
1, 481280, Note_on_c, 0, 60, 31
1, 481320, Tempo, 408136
1, 481340, Tempo, 404068
1, 481360, Note_on_c, 0, 73, 0
1, 481360, Note_on_c, 0, 72, 27
1, 481420, Tempo, 406780
1, 481440, Note_on_c, 0, 72, 0
1, 481440, Note_on_c, 0, 60, 0
1, 481440, Note_on_c, 0, 73, 31
1, 481440, Note_on_c, 0, 56, 35
1, 481460, Tempo, 402793
1, 481480, Tempo, 400107
1, 481520, Note_on_c, 0, 73, 0
1, 481520, Note_on_c, 0, 72, 27
1, 481540, Tempo, 398830
1, 481560, Tempo, 401472
1, 481580, Tempo, 405488
1, 481600, Tempo, 406780
1, 481600, Note_on_c, 0, 72, 0
1, 481600, Note_on_c, 0, 56, 0
1, 481600, Note_on_c, 0, 73, 31
1, 481600, Note_on_c, 0, 53, 31
1, 481620, Tempo, 409556
1, 481640, Tempo, 408136
1, 481660, Tempo, 405488
1, 481680, Tempo, 402793
1, 481680, Note_on_c, 0, 73, 0
1, 481680, Note_on_c, 0, 84, 0
1, 481680, Note_on_c, 0, 72, 27
1, 481680, Note_on_c, 0, 80, 50
1, 481720, Tempo, 404068
1, 481740, Tempo, 408136
1, 481760, Tempo, 409556
1, 481760, Note_on_c, 0, 72, 0
1, 481760, Note_on_c, 0, 53, 0
1, 481760, Note_on_c, 0, 73, 31
1, 481760, Note_on_c, 0, 56, 31
1, 481820, Tempo, 404068
1, 481840, Note_on_c, 0, 73, 0
1, 481840, Note_on_c, 0, 72, 27
1, 481900, Tempo, 400107
1, 481920, Note_on_c, 0, 72, 0
1, 481920, Note_on_c, 0, 56, 0
1, 481920, Note_on_c, 0, 80, 0
1, 481920, Note_on_c, 0, 73, 32
1, 481920, Note_on_c, 0, 79, 57
1, 481920, Note_on_c, 0, 58, 35
1, 481931, Control_c, 0, 64, 0
1, 481960, Tempo, 397535
1, 481969, Control_c, 0, 64, 127
1, 482000, Tempo, 396223
1, 482000, Note_on_c, 0, 73, 0
1, 482000, Note_on_c, 0, 72, 28
1, 482020, Tempo, 394945
1, 482040, Tempo, 396223
1, 482060, Tempo, 398830
1, 482080, Tempo, 401472
1, 482080, Note_on_c, 0, 72, 0
1, 482080, Note_on_c, 0, 58, 0
1, 482080, Note_on_c, 0, 73, 31
1, 482080, Note_on_c, 0, 55, 31
1, 482100, Tempo, 402793
1, 482120, Tempo, 404068
1, 482160, Tempo, 402793
1, 482160, Note_on_c, 0, 73, 0
1, 482160, Note_on_c, 0, 72, 27
1, 482180, Tempo, 400107
1, 482200, Tempo, 396223
1, 482220, Tempo, 392413
1, 482240, Tempo, 391160
1, 482240, Note_on_c, 0, 72, 0
1, 482240, Note_on_c, 0, 55, 0
1, 482240, Note_on_c, 0, 73, 31
1, 482240, Note_on_c, 0, 58, 31
1, 482280, Tempo, 393701
1, 482300, Tempo, 394945
1, 482320, Tempo, 396223
1, 482320, Note_on_c, 0, 73, 0
1, 482320, Note_on_c, 0, 72, 27
1, 482340, Tempo, 398830
1, 482360, Tempo, 401472
1, 482380, Tempo, 405488
1, 482400, Note_on_c, 0, 72, 0
1, 482400, Note_on_c, 0, 58, 0
1, 482400, Note_on_c, 0, 79, 0
1, 482400, Note_on_c, 0, 73, 31
1, 482400, Note_on_c, 0, 72, 50
1, 482400, Note_on_c, 0, 55, 36
1, 482420, Tempo, 404068
1, 482440, Tempo, 402793
1, 482470, Note_on_c, 0, 72, 0
1, 482480, Note_on_c, 0, 73, 0
1, 482480, Note_on_c, 0, 72, 27
1, 482500, Tempo, 401472
1, 482560, Note_on_c, 0, 72, 0
1, 482560, Note_on_c, 0, 55, 0
1, 482560, Note_on_c, 0, 73, 31
1, 482560, Note_on_c, 0, 52, 31
1, 482580, Tempo, 406780
1, 482600, Tempo, 409556
1, 482620, Tempo, 412286
1, 482640, Note_on_c, 0, 73, 0
1, 482640, Note_on_c, 0, 72, 27
1, 482660, Tempo, 410903
1, 482680, Tempo, 409556
1, 482700, Tempo, 406780
1, 482720, Tempo, 404068
1, 482720, Note_on_c, 0, 72, 0
1, 482720, Note_on_c, 0, 52, 0
1, 482720, Note_on_c, 0, 73, 31
1, 482720, Note_on_c, 0, 55, 31
1, 482740, Tempo, 401472
1, 482800, Tempo, 402793
1, 482800, Note_on_c, 0, 73, 0
1, 482800, Note_on_c, 0, 72, 27
1, 482840, Tempo, 404068
1, 482880, Tempo, 405488
1, 482880, Note_on_c, 0, 72, 0
1, 482880, Note_on_c, 0, 55, 0
1, 482880, Note_on_c, 0, 73, 32
1, 482880, Note_on_c, 0, 77, 57
1, 482880, Note_on_c, 0, 56, 35
1, 482897, Control_c, 0, 64, 0
1, 482900, Tempo, 404040
1, 482920, Tempo, 402712
1, 482937, Control_c, 0, 64, 127
1, 482960, Note_on_c, 0, 73, 0
1, 482960, Note_on_c, 0, 72, 28
1, 483000, Tempo, 404040
1, 483020, Tempo, 406862
1, 483040, Tempo, 408274
1, 483040, Note_on_c, 0, 72, 0
1, 483040, Note_on_c, 0, 56, 0
1, 483040, Note_on_c, 0, 73, 32
1, 483040, Note_on_c, 0, 53, 31
1, 483060, Tempo, 411100
1, 483080, Tempo, 412541
1, 483120, Tempo, 409696
1, 483120, Note_on_c, 0, 73, 0
1, 483120, Note_on_c, 0, 72, 28
1, 483140, Tempo, 408274
1, 483160, Tempo, 405488
1, 483180, Tempo, 404040
1, 483200, Tempo, 402712
1, 483200, Note_on_c, 0, 72, 0
1, 483200, Note_on_c, 0, 53, 0
1, 483200, Note_on_c, 0, 73, 34
1, 483200, Note_on_c, 0, 56, 31
1, 483240, Tempo, 401311
1, 483260, Tempo, 404040
1, 483280, Tempo, 406862
1, 483280, Note_on_c, 0, 73, 0
1, 483280, Note_on_c, 0, 72, 30
1, 483300, Tempo, 408274
1, 483320, Tempo, 409696
1, 483340, Tempo, 411100
1, 483360, Tempo, 412541
1, 483360, Note_on_c, 0, 72, 0
1, 483360, Note_on_c, 0, 56, 0
1, 483360, Note_on_c, 0, 73, 35
1, 483360, Note_on_c, 0, 53, 35
1, 483420, Tempo, 408274
1, 483440, Tempo, 405488
1, 483440, Note_on_c, 0, 73, 0
1, 483440, Note_on_c, 0, 72, 29
1, 483480, Tempo, 402712
1, 483500, Tempo, 401311
1, 483520, Note_on_c, 0, 72, 0
1, 483520, Note_on_c, 0, 53, 0
1, 483520, Note_on_c, 0, 73, 34
1, 483520, Note_on_c, 0, 48, 31
1, 483580, Tempo, 404040
1, 483600, Tempo, 406862
1, 483600, Note_on_c, 0, 73, 0
1, 483600, Note_on_c, 0, 77, 0
1, 483600, Note_on_c, 0, 72, 29
1, 483600, Note_on_c, 0, 80, 53
1, 483680, Note_on_c, 0, 72, 0
1, 483680, Note_on_c, 0, 48, 0
1, 483680, Note_on_c, 0, 73, 34
1, 483680, Note_on_c, 0, 53, 31
1, 483760, Note_on_c, 0, 73, 0
1, 483760, Note_on_c, 0, 72, 28
1, 483828, Tempo, 405515
1, 483836, Tempo, 404040
1, 483840, Note_on_c, 0, 72, 0
1, 483840, Note_on_c, 0, 53, 0
1, 483840, Note_on_c, 0, 80, 0
1, 483840, Note_on_c, 0, 73, 32
1, 483840, Note_on_c, 0, 79, 57
1, 483840, Note_on_c, 0, 58, 35
1, 483846, Control_c, 0, 64, 0
1, 483848, Tempo, 402685
1, 483868, Tempo, 401284
1, 483880, Tempo, 397535
1, 483883, Control_c, 0, 64, 127
1, 483920, Tempo, 396223
1, 483920, Note_on_c, 0, 73, 0
1, 483920, Note_on_c, 0, 72, 28
1, 483940, Tempo, 394945
1, 483960, Tempo, 396223
1, 483980, Tempo, 398830
1, 484000, Tempo, 401472
1, 484000, Note_on_c, 0, 72, 0
1, 484000, Note_on_c, 0, 58, 0
1, 484000, Note_on_c, 0, 73, 31
1, 484000, Note_on_c, 0, 55, 31
1, 484020, Tempo, 402793
1, 484040, Tempo, 404068
1, 484080, Tempo, 402793
1, 484080, Note_on_c, 0, 73, 0
1, 484080, Note_on_c, 0, 72, 27
1, 484100, Tempo, 400107
1, 484120, Tempo, 396223
1, 484140, Tempo, 392413
1, 484160, Tempo, 391160
1, 484160, Note_on_c, 0, 72, 0
1, 484160, Note_on_c, 0, 55, 0
1, 484160, Note_on_c, 0, 73, 31
1, 484160, Note_on_c, 0, 58, 31
1, 484200, Tempo, 393701
1, 484220, Tempo, 394945
1, 484240, Tempo, 396223
1, 484240, Note_on_c, 0, 73, 0
1, 484240, Note_on_c, 0, 72, 27
1, 484260, Tempo, 398830
1, 484280, Tempo, 401472
1, 484300, Tempo, 405488
1, 484320, Note_on_c, 0, 72, 0
1, 484320, Note_on_c, 0, 58, 0
1, 484320, Note_on_c, 0, 79, 0
1, 484320, Note_on_c, 0, 73, 31
1, 484320, Note_on_c, 0, 72, 50
1, 484320, Note_on_c, 0, 52, 36
1, 484340, Tempo, 404068
1, 484360, Tempo, 402793
1, 484369, Control_c, 0, 64, 0
1, 484390, Note_on_c, 0, 72, 0
1, 484400, Note_on_c, 0, 73, 0
1, 484400, Note_on_c, 0, 72, 27
1, 484420, Tempo, 401472
1, 484420, Control_c, 0, 64, 127
1, 484480, Note_on_c, 0, 72, 0
1, 484480, Note_on_c, 0, 52, 0
1, 484480, Note_on_c, 0, 73, 31
1, 484480, Note_on_c, 0, 55, 31
1, 484500, Tempo, 406780
1, 484520, Tempo, 409556
1, 484540, Tempo, 412286
1, 484560, Note_on_c, 0, 73, 0
1, 484560, Note_on_c, 0, 72, 27
1, 484580, Tempo, 410903
1, 484600, Tempo, 409556
1, 484620, Tempo, 406780
1, 484640, Tempo, 404068
1, 484640, Note_on_c, 0, 72, 0
1, 484640, Note_on_c, 0, 55, 0
1, 484640, Note_on_c, 0, 73, 31
1, 484640, Note_on_c, 0, 52, 31
1, 484660, Tempo, 401472
1, 484720, Tempo, 402793
1, 484720, Note_on_c, 0, 73, 0
1, 484720, Note_on_c, 0, 72, 27
1, 484760, Tempo, 404068
1, 484800, Tempo, 405488
1, 484800, Note_on_c, 0, 72, 0
1, 484800, Note_on_c, 0, 52, 0
1, 484800, Note_on_c, 0, 73, 32
1, 484800, Note_on_c, 0, 77, 57
1, 484800, Note_on_c, 0, 53, 35
1, 484812, Control_c, 0, 64, 0
1, 484820, Tempo, 404040
1, 484840, Tempo, 402712
1, 484840, Control_c, 0, 64, 127
1, 484880, Note_on_c, 0, 73, 0
1, 484880, Note_on_c, 0, 72, 28
1, 484920, Tempo, 404040
1, 484940, Tempo, 406862
1, 484960, Tempo, 408274
1, 484960, Note_on_c, 0, 72, 0
1, 484960, Note_on_c, 0, 53, 0
1, 484960, Note_on_c, 0, 73, 32
1, 484960, Note_on_c, 0, 56, 31
1, 484980, Tempo, 411100
1, 485000, Tempo, 412541
1, 485040, Tempo, 409696
1, 485040, Note_on_c, 0, 73, 0
1, 485040, Note_on_c, 0, 72, 28
1, 485060, Tempo, 408274
1, 485080, Tempo, 405488
1, 485100, Tempo, 404040
1, 485120, Tempo, 402712
1, 485120, Note_on_c, 0, 72, 0
1, 485120, Note_on_c, 0, 56, 0
1, 485120, Note_on_c, 0, 73, 34
1, 485120, Note_on_c, 0, 53, 31
1, 485160, Tempo, 401311
1, 485180, Tempo, 404040
1, 485200, Tempo, 406862
1, 485200, Note_on_c, 0, 73, 0
1, 485200, Note_on_c, 0, 72, 30
1, 485220, Tempo, 408274
1, 485240, Tempo, 409696
1, 485260, Tempo, 411100
1, 485280, Tempo, 412541
1, 485280, Note_on_c, 0, 72, 0
1, 485280, Note_on_c, 0, 53, 0
1, 485280, Note_on_c, 0, 77, 0
1, 485280, Note_on_c, 0, 73, 34
1, 485280, Note_on_c, 0, 75, 53
1, 485280, Note_on_c, 0, 55, 35
1, 485287, Control_c, 0, 64, 0
1, 485340, Tempo, 408274
1, 485343, Control_c, 0, 64, 127
1, 485360, Tempo, 405488
1, 485360, Note_on_c, 0, 73, 0
1, 485360, Note_on_c, 0, 72, 29
1, 485400, Tempo, 402712
1, 485420, Tempo, 401311
1, 485440, Note_on_c, 0, 72, 0
1, 485440, Note_on_c, 0, 55, 0
1, 485440, Note_on_c, 0, 73, 34
1, 485440, Note_on_c, 0, 60, 31
1, 485500, Tempo, 404040
1, 485520, Tempo, 406862
1, 485520, Note_on_c, 0, 73, 0
1, 485520, Note_on_c, 0, 72, 28
1, 485600, Note_on_c, 0, 72, 0
1, 485600, Note_on_c, 0, 60, 0
1, 485600, Note_on_c, 0, 73, 34
1, 485600, Note_on_c, 0, 55, 31
1, 485680, Note_on_c, 0, 73, 0
1, 485680, Note_on_c, 0, 72, 29
1, 485760, Note_on_c, 0, 72, 0
1, 485760, Note_on_c, 0, 55, 0
1, 485760, Note_on_c, 0, 75, 0
1, 485760, Note_on_c, 0, 74, 32
1, 485760, Note_on_c, 0, 65, 40
1, 485760, Note_on_c, 0, 56, 40
1, 485769, Control_c, 0, 64, 0
1, 485799, Control_c, 0, 64, 127
1, 485840, Note_on_c, 0, 74, 0
1, 485840, Note_on_c, 0, 72, 28
1, 485920, Note_on_c, 0, 72, 0
1, 485920, Note_on_c, 0, 74, 32
1, 486000, Note_on_c, 0, 74, 0
1, 486000, Note_on_c, 0, 56, 0
1, 486000, Note_on_c, 0, 65, 0
1, 486000, Note_on_c, 0, 72, 28
1, 486080, Note_on_c, 0, 72, 0
1, 486080, Note_on_c, 0, 74, 34
1, 486160, Note_on_c, 0, 74, 0
1, 486160, Note_on_c, 0, 72, 30
1, 486240, Note_on_c, 0, 72, 0
1, 486240, Note_on_c, 0, 74, 33
1, 486320, Note_on_c, 0, 74, 0
1, 486320, Note_on_c, 0, 72, 28
1, 486400, Note_on_c, 0, 72, 0
1, 486400, Note_on_c, 0, 74, 35
1, 486480, Note_on_c, 0, 74, 0
1, 486480, Note_on_c, 0, 72, 28
1, 486480, Note_on_c, 0, 56, 40
1, 486480, Note_on_c, 0, 65, 40
1, 486560, Note_on_c, 0, 72, 0
1, 486560, Note_on_c, 0, 74, 34
1, 486640, Note_on_c, 0, 74, 0
1, 486640, Note_on_c, 0, 72, 30
1, 486700, Tempo, 404040
1, 486720, Note_on_c, 0, 72, 0
1, 486720, Note_on_c, 0, 65, 0
1, 486720, Note_on_c, 0, 56, 0
1, 486720, Note_on_c, 0, 74, 33
1, 486720, Note_on_c, 0, 56, 44
1, 486720, Note_on_c, 0, 65, 44
1, 486800, Note_on_c, 0, 74, 0
1, 486800, Note_on_c, 0, 72, 29
1, 486860, Tempo, 402685
1, 486880, Note_on_c, 0, 72, 0
1, 486880, Note_on_c, 0, 74, 33
1, 486960, Note_on_c, 0, 74, 0
1, 486960, Note_on_c, 0, 65, 0
1, 486960, Note_on_c, 0, 56, 0
1, 486960, Note_on_c, 0, 72, 29
1, 487020, Tempo, 401284
1, 487040, Note_on_c, 0, 72, 0
1, 487040, Note_on_c, 0, 74, 36
1, 487120, Note_on_c, 0, 74, 0
1, 487120, Note_on_c, 0, 72, 32
1, 487180, Tempo, 399867
1, 487200, Note_on_c, 0, 72, 0
1, 487200, Note_on_c, 0, 74, 37
1, 487280, Note_on_c, 0, 74, 0
1, 487280, Note_on_c, 0, 72, 33
1, 487340, Tempo, 398486
1, 487360, Note_on_c, 0, 72, 0
1, 487360, Note_on_c, 0, 74, 36
1, 487440, Note_on_c, 0, 74, 0
1, 487440, Note_on_c, 0, 72, 31
1, 487440, Note_on_c, 0, 56, 41
1, 487440, Note_on_c, 0, 65, 41
1, 487500, Tempo, 397167
1, 487520, Note_on_c, 0, 72, 0
1, 487520, Note_on_c, 0, 74, 37
1, 487600, Note_on_c, 0, 74, 0
1, 487600, Note_on_c, 0, 72, 31
1, 487660, Tempo, 395752
1, 487680, Tempo, 394425
1, 487680, Note_on_c, 0, 72, 0
1, 487680, Note_on_c, 0, 65, 0
1, 487680, Note_on_c, 0, 56, 0
1, 487680, Note_on_c, 0, 74, 35
1, 487680, Note_on_c, 0, 56, 49
1, 487680, Note_on_c, 0, 66, 49
1, 487694, Control_c, 0, 64, 0
1, 487720, Tempo, 393056
1, 487747, Control_c, 0, 64, 127
1, 487760, Tempo, 389105
1, 487760, Note_on_c, 0, 74, 0
1, 487760, Note_on_c, 0, 72, 30
1, 487820, Tempo, 391722
1, 487840, Tempo, 395752
1, 487840, Note_on_c, 0, 72, 0
1, 487840, Note_on_c, 0, 74, 35
1, 487860, Tempo, 397167
1, 487880, Tempo, 398486
1, 487920, Note_on_c, 0, 74, 0
1, 487920, Note_on_c, 0, 66, 0
1, 487920, Note_on_c, 0, 56, 0
1, 487920, Note_on_c, 0, 72, 31
1, 487960, Tempo, 395752
1, 487980, Tempo, 394425
1, 488000, Tempo, 393056
1, 488000, Note_on_c, 0, 72, 0
1, 488000, Note_on_c, 0, 74, 37
1, 488020, Tempo, 391722
1, 488040, Tempo, 390422
1, 488080, Tempo, 389105
1, 488080, Note_on_c, 0, 74, 0
1, 488080, Note_on_c, 0, 72, 33
1, 488100, Tempo, 387772
1, 488120, Tempo, 391722
1, 488140, Tempo, 393056
1, 488160, Tempo, 395752
1, 488160, Note_on_c, 0, 72, 0
1, 488160, Note_on_c, 0, 74, 39
1, 488180, Tempo, 398486
1, 488200, Tempo, 399867
1, 488240, Tempo, 397167
1, 488240, Note_on_c, 0, 74, 0
1, 488240, Note_on_c, 0, 72, 34
1, 488260, Tempo, 393056
1, 488280, Tempo, 390422
1, 488300, Tempo, 389105
1, 488320, Tempo, 387772
1, 488320, Note_on_c, 0, 72, 0
1, 488320, Note_on_c, 0, 74, 39
1, 488380, Tempo, 389105
1, 488400, Note_on_c, 0, 74, 0
1, 488400, Note_on_c, 0, 72, 36
1, 488400, Note_on_c, 0, 56, 47
1, 488400, Note_on_c, 0, 66, 47
1, 488420, Tempo, 391722
1, 488440, Tempo, 393056
1, 488460, Tempo, 395752
1, 488480, Note_on_c, 0, 72, 0
1, 488480, Note_on_c, 0, 74, 39
1, 488560, Note_on_c, 0, 74, 0
1, 488560, Note_on_c, 0, 72, 35
1, 488600, Tempo, 394425
1, 488620, Tempo, 393056
1, 488640, Tempo, 391722
1, 488640, Note_on_c, 0, 72, 0
1, 488640, Note_on_c, 0, 66, 0
1, 488640, Note_on_c, 0, 56, 0
1, 488640, Note_on_c, 0, 74, 36
1, 488640, Note_on_c, 0, 56, 52
1, 488640, Note_on_c, 0, 66, 52
1, 488660, Tempo, 390422
1, 488680, Tempo, 387772
1, 488720, Tempo, 389105
1, 488720, Note_on_c, 0, 74, 0
1, 488720, Note_on_c, 0, 72, 32
1, 488740, Tempo, 390422
1, 488760, Tempo, 391722
1, 488800, Note_on_c, 0, 72, 0
1, 488800, Note_on_c, 0, 74, 36
1, 488840, Tempo, 394425
1, 488860, Tempo, 395752
1, 488880, Tempo, 397167
1, 488880, Note_on_c, 0, 74, 0
1, 488880, Note_on_c, 0, 66, 0
1, 488880, Note_on_c, 0, 56, 0
1, 488880, Note_on_c, 0, 72, 32
1, 488900, Tempo, 398486
1, 488920, Tempo, 399867
1, 488960, Tempo, 398486
1, 488960, Note_on_c, 0, 72, 0
1, 488960, Note_on_c, 0, 74, 39
1, 489000, Tempo, 395752
1, 489020, Tempo, 394425
1, 489040, Note_on_c, 0, 74, 0
1, 489040, Note_on_c, 0, 72, 35
1, 489060, Tempo, 393056
1, 489120, Note_on_c, 0, 72, 0
1, 489120, Note_on_c, 0, 74, 40
1, 489140, Tempo, 390422
1, 489160, Tempo, 389105
1, 489180, Tempo, 387772
1, 489200, Note_on_c, 0, 74, 0
1, 489200, Note_on_c, 0, 72, 36
1, 489220, Tempo, 389105
1, 489240, Tempo, 390422
1, 489260, Tempo, 391722
1, 489280, Tempo, 393056
1, 489280, Note_on_c, 0, 72, 0
1, 489280, Note_on_c, 0, 74, 40
1, 489320, Tempo, 395752
1, 489360, Tempo, 398486
1, 489360, Note_on_c, 0, 74, 0
1, 489360, Note_on_c, 0, 72, 35
1, 489360, Note_on_c, 0, 56, 48
1, 489360, Note_on_c, 0, 66, 48
1, 489380, Tempo, 397167
1, 489400, Tempo, 394425
1, 489420, Note_on_c, 0, 72, 0
1, 489420, Note_on_c, 0, 74, 40
1, 489440, Tempo, 393056
1, 489460, Tempo, 391722
1, 489480, Tempo, 390422
1, 489480, Note_on_c, 0, 74, 0
1, 489480, Note_on_c, 0, 72, 34
1, 489500, Tempo, 389105
1, 489520, Tempo, 387772
1, 489540, Tempo, 390422
1, 489540, Note_on_c, 0, 72, 0
1, 489540, Note_on_c, 0, 74, 34
1, 489560, Tempo, 391722
1, 489600, Tempo, 394425
1, 489600, Note_on_c, 0, 74, 0
1, 489600, Note_on_c, 0, 66, 0
1, 489600, Note_on_c, 0, 56, 0
1, 489600, Note_on_c, 0, 72, 38
1, 489600, Note_on_c, 0, 55, 56
1, 489600, Note_on_c, 0, 67, 56
1, 489600, Control_c, 0, 64, 0
1, 489620, Tempo, 397167
1, 489640, Tempo, 395752
1, 489660, Tempo, 393056
1, 489667, Control_c, 0, 64, 127
1, 489680, Tempo, 391722
1, 489680, Note_on_c, 0, 72, 0
1, 489680, Note_on_c, 0, 74, 33
1, 489720, Tempo, 393056
1, 489740, Tempo, 394425
1, 489760, Note_on_c, 0, 74, 0
1, 489760, Note_on_c, 0, 76, 39
1, 489840, Tempo, 391722
1, 489840, Note_on_c, 0, 76, 0
1, 489840, Note_on_c, 0, 67, 0
1, 489840, Note_on_c, 0, 55, 0
1, 489840, Note_on_c, 0, 74, 34
1, 489840, Note_on_c, 0, 67, 57
1, 489840, Note_on_c, 0, 72, 57
1, 489880, Tempo, 386498
1, 489900, Tempo, 383926
1, 489920, Note_on_c, 0, 74, 0
1, 489920, Note_on_c, 0, 76, 42
1, 489940, Tempo, 382677
1, 490000, Note_on_c, 0, 76, 0
1, 490000, Note_on_c, 0, 74, 37
1, 490020, Tempo, 383926
1, 490040, Tempo, 386498
1, 490060, Tempo, 387772
1, 490080, Note_on_c, 0, 74, 0
1, 490080, Note_on_c, 0, 72, 0
1, 490080, Note_on_c, 0, 67, 0
1, 490080, Note_on_c, 0, 76, 44
1, 490080, Note_on_c, 0, 67, 59
1, 490080, Note_on_c, 0, 72, 59
1, 490100, Tempo, 390422
1, 490120, Tempo, 393056
1, 490140, Tempo, 395752
1, 490160, Note_on_c, 0, 76, 0
1, 490160, Note_on_c, 0, 74, 39
1, 490220, Tempo, 394425
1, 490240, Tempo, 393056
1, 490240, Note_on_c, 0, 74, 0
1, 490240, Note_on_c, 0, 76, 43
1, 490260, Tempo, 391722
1, 490280, Tempo, 389105
1, 490320, Tempo, 387772
1, 490320, Note_on_c, 0, 76, 0
1, 490320, Note_on_c, 0, 72, 0
1, 490320, Note_on_c, 0, 67, 0
1, 490320, Note_on_c, 0, 74, 37
1, 490320, Note_on_c, 0, 67, 60
1, 490320, Note_on_c, 0, 72, 60
1, 490340, Tempo, 386498
1, 490360, Tempo, 385183
1, 490400, Note_on_c, 0, 74, 0
1, 490400, Note_on_c, 0, 76, 45
1, 490440, Tempo, 387772
1, 490460, Tempo, 390422
1, 490480, Note_on_c, 0, 76, 0
1, 490480, Note_on_c, 0, 74, 40
1, 490500, Tempo, 391722
1, 490520, Tempo, 393056
1, 490540, Tempo, 394425
1, 490560, Note_on_c, 0, 74, 0
1, 490560, Note_on_c, 0, 72, 0
1, 490560, Note_on_c, 0, 67, 0
1, 490560, Note_on_c, 0, 76, 42
1, 490560, Note_on_c, 0, 67, 62
1, 490560, Note_on_c, 0, 72, 62
1, 490620, Tempo, 393056
1, 490640, Tempo, 391722
1, 490640, Note_on_c, 0, 76, 0
1, 490640, Note_on_c, 0, 74, 37
1, 490660, Tempo, 389105
1, 490680, Tempo, 386498
1, 490700, Tempo, 385183
1, 490720, Note_on_c, 0, 74, 0
1, 490720, Note_on_c, 0, 76, 42
1, 490740, Tempo, 383926
1, 490760, Tempo, 382677
1, 490780, Tempo, 381388
1, 490800, Tempo, 380156
1, 490800, Note_on_c, 0, 76, 0
1, 490800, Note_on_c, 0, 72, 0
1, 490800, Note_on_c, 0, 67, 0
1, 490800, Note_on_c, 0, 74, 37
1, 490800, Note_on_c, 0, 67, 63
1, 490800, Note_on_c, 0, 72, 63
1, 490840, Tempo, 382677
1, 490860, Tempo, 383926
1, 490880, Tempo, 385183
1, 490880, Note_on_c, 0, 74, 0
1, 490880, Note_on_c, 0, 76, 46
1, 490900, Tempo, 387772
1, 490920, Tempo, 389105
1, 490940, Tempo, 390422
1, 490960, Note_on_c, 0, 76, 0
1, 490960, Note_on_c, 0, 74, 41
1, 490980, Tempo, 391722
1, 491000, Tempo, 394425
1, 491040, Note_on_c, 0, 74, 0
1, 491040, Note_on_c, 0, 72, 0
1, 491040, Note_on_c, 0, 67, 0
1, 491040, Note_on_c, 0, 76, 48
1, 491040, Note_on_c, 0, 67, 64
1, 491040, Note_on_c, 0, 72, 64
1, 491080, Tempo, 391722
1, 491120, Tempo, 390422
1, 491120, Note_on_c, 0, 76, 0
1, 491120, Note_on_c, 0, 74, 43
1, 491140, Tempo, 389105
1, 491180, Tempo, 387772
1, 491200, Note_on_c, 0, 74, 0
1, 491200, Note_on_c, 0, 76, 49
1, 491220, Tempo, 386498
1, 491240, Tempo, 383926
1, 491280, Tempo, 390422
1, 491280, Note_on_c, 0, 76, 0
1, 491280, Note_on_c, 0, 72, 0
1, 491280, Note_on_c, 0, 67, 0
1, 491280, Note_on_c, 0, 74, 40
1, 491280, Note_on_c, 0, 67, 66
1, 491280, Note_on_c, 0, 72, 66
1, 491300, Tempo, 386498
1, 491320, Tempo, 382677
1, 491360, Tempo, 402685
1, 491360, Note_on_c, 0, 74, 0
1, 491360, Note_on_c, 0, 76, 49
1, 491440, Note_on_c, 0, 76, 0
1, 491440, Note_on_c, 0, 74, 42
1, 491520, Tempo, 386498
1, 491520, Note_on_c, 0, 74, 0
1, 491520, Note_on_c, 0, 72, 0
1, 491520, Note_on_c, 0, 67, 0
1, 491520, Note_on_c, 0, 76, 46
1, 491520, Note_on_c, 0, 67, 68
1, 491520, Note_on_c, 0, 72, 46
1, 491520, Control_c, 0, 64, 0
1, 491540, Tempo, 385183
1, 491559, Control_c, 0, 64, 127
1, 491560, Tempo, 383926
1, 491580, Tempo, 382677
1, 491600, Tempo, 381388
1, 491600, Note_on_c, 0, 72, 0
1, 491600, Note_on_c, 0, 76, 0
1, 491600, Note_on_c, 0, 74, 40
1, 491600, Note_on_c, 0, 71, 40
1, 491620, Tempo, 382677
1, 491640, Tempo, 385183
1, 491660, Tempo, 387772
1, 491680, Note_on_c, 0, 71, 0
1, 491680, Note_on_c, 0, 74, 0
1, 491680, Note_on_c, 0, 76, 47
1, 491680, Note_on_c, 0, 72, 47
1, 491700, Tempo, 389105
1, 491720, Tempo, 390422
1, 491760, Tempo, 387772
1, 491760, Note_on_c, 0, 72, 0
1, 491760, Note_on_c, 0, 76, 0
1, 491760, Note_on_c, 0, 74, 41
1, 491760, Note_on_c, 0, 79, 63
1, 491760, Note_on_c, 0, 71, 41
1, 491780, Tempo, 386498
1, 491800, Tempo, 385183
1, 491820, Tempo, 383926
1, 491840, Tempo, 382677
1, 491840, Note_on_c, 0, 71, 0
1, 491840, Note_on_c, 0, 74, 0
1, 491840, Note_on_c, 0, 76, 49
1, 491840, Note_on_c, 0, 72, 50
1, 491880, Tempo, 386498
1, 491900, Tempo, 389105
1, 491920, Tempo, 391722
1, 491920, Note_on_c, 0, 72, 0
1, 491920, Note_on_c, 0, 76, 0
1, 491920, Note_on_c, 0, 74, 45
1, 491920, Note_on_c, 0, 71, 45
1, 491940, Tempo, 393056
1, 491998, Note_on_c, 0, 79, 0
1, 492000, Note_on_c, 0, 71, 0
1, 492000, Note_on_c, 0, 74, 0
1, 492000, Note_on_c, 0, 76, 52
1, 492000, Note_on_c, 0, 79, 64
1, 492000, Note_on_c, 0, 72, 52
1, 492040, Tempo, 387772
1, 492060, Tempo, 386498
1, 492080, Tempo, 383926
1, 492080, Note_on_c, 0, 72, 0
1, 492080, Note_on_c, 0, 76, 0
1, 492080, Note_on_c, 0, 74, 47
1, 492080, Note_on_c, 0, 71, 44
1, 492140, Tempo, 385183
1, 492160, Note_on_c, 0, 71, 0
1, 492160, Note_on_c, 0, 74, 0
1, 492160, Note_on_c, 0, 76, 53
1, 492160, Note_on_c, 0, 72, 52
1, 492180, Tempo, 386498
1, 492200, Tempo, 389105
1, 492238, Note_on_c, 0, 79, 0
1, 492240, Note_on_c, 0, 72, 0
1, 492240, Note_on_c, 0, 76, 0
1, 492240, Note_on_c, 0, 74, 43
1, 492240, Note_on_c, 0, 79, 66
1, 492240, Note_on_c, 0, 71, 43
1, 492260, Tempo, 390422
1, 492300, Tempo, 389105
1, 492320, Tempo, 386498
1, 492320, Note_on_c, 0, 71, 0
1, 492320, Note_on_c, 0, 74, 0
1, 492320, Note_on_c, 0, 76, 52
1, 492320, Note_on_c, 0, 72, 54
1, 492360, Tempo, 387772
1, 492380, Tempo, 390422
1, 492400, Note_on_c, 0, 72, 0
1, 492400, Note_on_c, 0, 76, 0
1, 492400, Note_on_c, 0, 74, 53
1, 492400, Note_on_c, 0, 71, 45
1, 492478, Note_on_c, 0, 79, 0
1, 492480, Note_on_c, 0, 71, 0
1, 492480, Note_on_c, 0, 74, 0
1, 492480, Note_on_c, 0, 76, 50
1, 492480, Note_on_c, 0, 79, 68
1, 492480, Note_on_c, 0, 72, 50
1, 492500, Tempo, 389105
1, 492520, Tempo, 385183
1, 492560, Note_on_c, 0, 72, 0
1, 492560, Note_on_c, 0, 76, 0
1, 492560, Note_on_c, 0, 74, 44
1, 492560, Note_on_c, 0, 71, 44
1, 492640, Note_on_c, 0, 71, 0
1, 492640, Note_on_c, 0, 74, 0
1, 492640, Note_on_c, 0, 76, 50
1, 492640, Note_on_c, 0, 72, 50
1, 492718, Note_on_c, 0, 79, 0
1, 492720, Note_on_c, 0, 72, 0
1, 492720, Note_on_c, 0, 76, 0
1, 492720, Note_on_c, 0, 74, 44
1, 492720, Note_on_c, 0, 79, 69
1, 492720, Note_on_c, 0, 71, 44
1, 492740, Tempo, 386498
1, 492760, Tempo, 387772
1, 492780, Tempo, 390422
1, 492800, Tempo, 391722
1, 492800, Note_on_c, 0, 71, 0
1, 492800, Note_on_c, 0, 74, 0
1, 492800, Note_on_c, 0, 76, 54
1, 492800, Note_on_c, 0, 72, 54
1, 492820, Tempo, 395752
1, 492840, Tempo, 397167
1, 492880, Note_on_c, 0, 72, 0
1, 492880, Note_on_c, 0, 76, 0
1, 492880, Note_on_c, 0, 74, 48
1, 492880, Note_on_c, 0, 71, 48
1, 492920, Tempo, 394425
1, 492958, Note_on_c, 0, 79, 0
1, 492960, Tempo, 391722
1, 492960, Note_on_c, 0, 71, 0
1, 492960, Note_on_c, 0, 74, 0
1, 492960, Note_on_c, 0, 76, 58
1, 492960, Note_on_c, 0, 79, 71
1, 492960, Note_on_c, 0, 72, 55
1, 492980, Tempo, 390422
1, 493000, Tempo, 389105
1, 493020, Tempo, 387772
1, 493040, Tempo, 386498
1, 493040, Note_on_c, 0, 72, 0
1, 493040, Note_on_c, 0, 76, 0
1, 493040, Note_on_c, 0, 74, 47
1, 493040, Note_on_c, 0, 71, 44
1, 493080, Tempo, 383926
1, 493100, Tempo, 382677
1, 493120, Tempo, 380156
1, 493120, Note_on_c, 0, 71, 0
1, 493120, Note_on_c, 0, 74, 0
1, 493120, Note_on_c, 0, 76, 56
1, 493120, Note_on_c, 0, 72, 54
1, 493160, Tempo, 385183
1, 493180, Tempo, 387772
1, 493198, Note_on_c, 0, 79, 0
1, 493200, Tempo, 390422
1, 493200, Note_on_c, 0, 72, 0
1, 493200, Note_on_c, 0, 76, 0
1, 493200, Note_on_c, 0, 74, 48
1, 493200, Note_on_c, 0, 79, 72
1, 493200, Note_on_c, 0, 71, 48
1, 493220, Tempo, 391722
1, 493240, Tempo, 394425
1, 493280, Note_on_c, 0, 71, 0
1, 493280, Note_on_c, 0, 74, 0
1, 493280, Note_on_c, 0, 76, 58
1, 493280, Note_on_c, 0, 72, 56
1, 493300, Tempo, 391722
1, 493320, Tempo, 390422
1, 493360, Tempo, 389105
1, 493360, Note_on_c, 0, 72, 0
1, 493360, Note_on_c, 0, 76, 0
1, 493360, Note_on_c, 0, 74, 48
1, 493360, Note_on_c, 0, 71, 50
1, 493423, Control_c, 0, 64, 0
1, 493440, Tempo, 469778
1, 493440, Note_on_c, 0, 71, 0
1, 493440, Note_on_c, 0, 67, 0
1, 493440, Note_on_c, 0, 79, 0
1, 493440, Note_on_c, 0, 74, 0
1, 493440, Note_on_c, 0, 72, 97
1, 493440, Note_on_c, 0, 76, 97
1, 493440, Note_on_c, 0, 36, 85
1, 493504, Control_c, 0, 64, 127
1, 493680, Tempo, 424869
1, 493680, Note_on_c, 0, 36, 0
1, 493680, Note_on_c, 0, 76, 0
1, 493680, Note_on_c, 0, 72, 0
1, 493680, Note_on_c, 0, 79, 75
1, 493680, Note_on_c, 0, 91, 75
1, 493680, Note_on_c, 0, 48, 66
1, 493680, Note_on_c, 0, 52, 66
1, 493680, Note_on_c, 0, 55, 66
1, 493680, Note_on_c, 0, 60, 78
1, 493800, Note_on_c, 0, 60, 0
1, 493800, Note_on_c, 0, 91, 0
1, 493800, Note_on_c, 0, 48, 0
1, 493800, Note_on_c, 0, 52, 0
1, 493800, Note_on_c, 0, 55, 0
1, 493920, Tempo, 399867
1, 493920, Note_on_c, 0, 79, 0
1, 493920, Note_on_c, 0, 79, 75
1, 493920, Note_on_c, 0, 91, 79
1, 493920, Note_on_c, 0, 48, 66
1, 493920, Note_on_c, 0, 52, 66
1, 493920, Note_on_c, 0, 55, 66
1, 493920, Note_on_c, 0, 60, 78
1, 494280, Note_on_c, 0, 91, 0
1, 494280, Note_on_c, 0, 88, 75
1, 494400, Tempo, 409808
1, 494400, Note_on_c, 0, 88, 0
1, 494400, Note_on_c, 0, 60, 0
1, 494400, Note_on_c, 0, 52, 0
1, 494400, Note_on_c, 0, 55, 0
1, 494400, Note_on_c, 0, 86, 81
1, 494400, Note_on_c, 0, 53, 69
1, 494400, Note_on_c, 0, 55, 69
1, 494400, Note_on_c, 0, 59, 82
1, 494640, Tempo, 397167
1, 494640, Note_on_c, 0, 86, 0
1, 494640, Note_on_c, 0, 79, 0
1, 494640, Note_on_c, 0, 79, 75
1, 494880, Tempo, 414222
1, 494880, Note_on_c, 0, 53, 0
1, 494880, Note_on_c, 0, 55, 0
1, 494880, Note_on_c, 0, 59, 0
1, 494880, Note_on_c, 0, 84, 75
1, 494880, Note_on_c, 0, 52, 65
1, 494880, Note_on_c, 0, 55, 65
1, 494880, Note_on_c, 0, 60, 77
1, 495120, Note_on_c, 0, 84, 0
1, 495120, Note_on_c, 0, 88, 73
1, 495360, Tempo, 464145
1, 495360, Note_on_c, 0, 88, 0
1, 495360, Note_on_c, 0, 60, 0
1, 495360, Note_on_c, 0, 52, 0
1, 495360, Note_on_c, 0, 79, 0
1, 495360, Note_on_c, 0, 48, 0
1, 495360, Note_on_c, 0, 55, 0
1, 495360, Note_on_c, 0, 36, 48
1, 495368, Control_c, 0, 64, 0
1, 495466, Control_c, 0, 64, 127
1, 495600, Tempo, 420227
1, 495600, Note_on_c, 0, 36, 0
1, 495600, Note_on_c, 0, 67, 50
1, 495600, Note_on_c, 0, 79, 50
1, 495600, Note_on_c, 0, 48, 37
1, 495600, Note_on_c, 0, 52, 37
1, 495600, Note_on_c, 0, 55, 37
1, 495600, Note_on_c, 0, 60, 43
1, 495720, Note_on_c, 0, 60, 0
1, 495720, Note_on_c, 0, 79, 0
1, 495720, Note_on_c, 0, 48, 0
1, 495720, Note_on_c, 0, 52, 0
1, 495720, Note_on_c, 0, 55, 0
1, 495840, Tempo, 399867
1, 495840, Note_on_c, 0, 67, 0
1, 495840, Note_on_c, 0, 67, 50
1, 495840, Note_on_c, 0, 79, 53
1, 495840, Note_on_c, 0, 48, 37
1, 495840, Note_on_c, 0, 52, 37
1, 495840, Note_on_c, 0, 55, 37
1, 495840, Note_on_c, 0, 60, 43
1, 496200, Note_on_c, 0, 79, 0
1, 496200, Note_on_c, 0, 76, 50
1, 496320, Tempo, 414222
1, 496320, Note_on_c, 0, 76, 0
1, 496320, Note_on_c, 0, 60, 0
1, 496320, Note_on_c, 0, 52, 0
1, 496320, Note_on_c, 0, 55, 0
1, 496320, Note_on_c, 0, 74, 54
1, 496320, Note_on_c, 0, 53, 38
1, 496320, Note_on_c, 0, 55, 38
1, 496320, Note_on_c, 0, 59, 46
1, 496560, Tempo, 398486
1, 496560, Note_on_c, 0, 74, 0
1, 496560, Note_on_c, 0, 67, 0
1, 496560, Note_on_c, 0, 67, 50
1, 496800, Tempo, 412740
1, 496800, Note_on_c, 0, 53, 0
1, 496800, Note_on_c, 0, 55, 0
1, 496800, Note_on_c, 0, 59, 0
1, 496800, Note_on_c, 0, 72, 50
1, 496800, Note_on_c, 0, 52, 37
1, 496800, Note_on_c, 0, 55, 37
1, 496800, Note_on_c, 0, 60, 43
1, 497040, Note_on_c, 0, 72, 0
1, 497040, Note_on_c, 0, 76, 49
1, 497280, Tempo, 396694
1, 497280, Note_on_c, 0, 76, 0
1, 497280, Note_on_c, 0, 60, 0
1, 497280, Note_on_c, 0, 52, 0
1, 497280, Note_on_c, 0, 67, 0
1, 497280, Note_on_c, 0, 48, 0
1, 497280, Note_on_c, 0, 55, 0
1, 497280, Note_on_c, 0, 36, 85
1, 497293, Control_c, 0, 64, 0
1, 497366, Control_c, 0, 64, 127
1, 497520, Tempo, 381534
1, 497520, Note_on_c, 0, 36, 0
1, 497520, Note_on_c, 0, 91, 75
1, 497520, Note_on_c, 0, 48, 66
1, 497520, Note_on_c, 0, 52, 66
1, 497520, Note_on_c, 0, 55, 66
1, 497520, Note_on_c, 0, 60, 78
1, 497640, Note_on_c, 0, 60, 0
1, 497640, Note_on_c, 0, 52, 0
1, 497640, Note_on_c, 0, 91, 0
1, 497640, Note_on_c, 0, 48, 0
1, 497640, Note_on_c, 0, 55, 0
1, 497640, Note_on_c, 0, 90, 69
1, 497760, Note_on_c, 0, 90, 0
1, 497760, Note_on_c, 0, 91, 75
1, 497760, Note_on_c, 0, 48, 66
1, 497760, Note_on_c, 0, 52, 66
1, 497760, Note_on_c, 0, 55, 66
1, 497760, Note_on_c, 0, 60, 78
1, 497880, Note_on_c, 0, 91, 0
1, 497880, Note_on_c, 0, 90, 70
1, 498000, Tempo, 376176
1, 498000, Note_on_c, 0, 90, 0
1, 498000, Note_on_c, 0, 91, 75
1, 498020, Tempo, 385183
1, 498060, Tempo, 386498
1, 498100, Tempo, 387772
1, 498120, Note_on_c, 0, 91, 0
1, 498120, Note_on_c, 0, 88, 70
1, 498140, Tempo, 389105
1, 498180, Tempo, 390422
1, 498220, Tempo, 391722
1, 498240, Tempo, 393056
1, 498240, Note_on_c, 0, 88, 0
1, 498240, Note_on_c, 0, 60, 0
1, 498240, Note_on_c, 0, 55, 0
1, 498240, Note_on_c, 0, 52, 0
1, 498240, Note_on_c, 0, 86, 72
1, 498240, Note_on_c, 0, 53, 69
1, 498240, Note_on_c, 0, 55, 69
1, 498240, Note_on_c, 0, 59, 82
1, 498249, Control_c, 0, 64, 0
1, 498315, Control_c, 0, 64, 127
1, 498360, Note_on_c, 0, 86, 0
1, 498360, Note_on_c, 0, 85, 64
1, 498480, Note_on_c, 0, 85, 0
1, 498480, Note_on_c, 0, 86, 72
1, 498600, Note_on_c, 0, 86, 0
1, 498600, Note_on_c, 0, 79, 67
1, 498720, Tempo, 391722
1, 498720, Note_on_c, 0, 79, 0
1, 498720, Note_on_c, 0, 59, 0
1, 498720, Note_on_c, 0, 55, 0
1, 498720, Note_on_c, 0, 53, 0
1, 498720, Note_on_c, 0, 84, 72
1, 498720, Note_on_c, 0, 52, 65
1, 498720, Note_on_c, 0, 55, 65
1, 498720, Note_on_c, 0, 60, 77
1, 498734, Control_c, 0, 64, 0
1, 498817, Control_c, 0, 64, 127
1, 498840, Note_on_c, 0, 84, 0
1, 498840, Note_on_c, 0, 83, 66
1, 498960, Note_on_c, 0, 83, 0
1, 498960, Note_on_c, 0, 84, 75
1, 499080, Note_on_c, 0, 84, 0
1, 499080, Note_on_c, 0, 88, 69
1, 499140, Tempo, 413365
1, 499200, Tempo, 391492
1, 499200, Note_on_c, 0, 88, 0
1, 499200, Note_on_c, 0, 60, 0
1, 499200, Note_on_c, 0, 48, 0
1, 499200, Note_on_c, 0, 52, 0
1, 499200, Note_on_c, 0, 55, 0
1, 499200, Note_on_c, 0, 36, 48
1, 499214, Control_c, 0, 64, 0
1, 499315, Control_c, 0, 64, 127
1, 499440, Tempo, 382751
1, 499440, Note_on_c, 0, 36, 0
1, 499440, Note_on_c, 0, 79, 50
1, 499440, Note_on_c, 0, 48, 37
1, 499440, Note_on_c, 0, 52, 37
1, 499440, Note_on_c, 0, 55, 37
1, 499440, Note_on_c, 0, 60, 43
1, 499560, Note_on_c, 0, 60, 0
1, 499560, Note_on_c, 0, 52, 0
1, 499560, Note_on_c, 0, 79, 0
1, 499560, Note_on_c, 0, 48, 0
1, 499560, Note_on_c, 0, 55, 0
1, 499560, Note_on_c, 0, 78, 47
1, 499680, Note_on_c, 0, 78, 0
1, 499680, Note_on_c, 0, 79, 50
1, 499680, Note_on_c, 0, 48, 37
1, 499680, Note_on_c, 0, 52, 37
1, 499680, Note_on_c, 0, 55, 37
1, 499680, Note_on_c, 0, 60, 43
1, 499800, Note_on_c, 0, 79, 0
1, 499800, Note_on_c, 0, 78, 46
1, 499920, Tempo, 381388
1, 499920, Note_on_c, 0, 78, 0
1, 499920, Note_on_c, 0, 79, 50
1, 499960, Tempo, 382677
1, 500000, Tempo, 383926
1, 500020, Tempo, 385183
1, 500040, Note_on_c, 0, 79, 0
1, 500040, Note_on_c, 0, 76, 44
1, 500060, Tempo, 386498
1, 500100, Tempo, 387772
1, 500120, Tempo, 389105
1, 500160, Note_on_c, 0, 76, 0
1, 500160, Note_on_c, 0, 60, 0
1, 500160, Note_on_c, 0, 55, 0
1, 500160, Note_on_c, 0, 52, 0
1, 500160, Note_on_c, 0, 74, 48
1, 500160, Note_on_c, 0, 53, 38
1, 500160, Note_on_c, 0, 55, 38
1, 500160, Note_on_c, 0, 59, 46
1, 500168, Control_c, 0, 64, 0
1, 500280, Note_on_c, 0, 74, 0
1, 500280, Note_on_c, 0, 73, 45
1, 500400, Note_on_c, 0, 73, 0
1, 500400, Note_on_c, 0, 74, 49
1, 500520, Note_on_c, 0, 74, 0
1, 500520, Note_on_c, 0, 67, 45
1, 500620, Tempo, 393056
1, 500640, Note_on_c, 0, 67, 0
1, 500640, Note_on_c, 0, 59, 0
1, 500640, Note_on_c, 0, 55, 0
1, 500640, Note_on_c, 0, 53, 0
1, 500640, Note_on_c, 0, 72, 49
1, 500640, Note_on_c, 0, 52, 37
1, 500640, Note_on_c, 0, 55, 37
1, 500640, Note_on_c, 0, 60, 43
1, 500760, Note_on_c, 0, 72, 0
1, 500760, Note_on_c, 0, 71, 46
1, 500880, Note_on_c, 0, 71, 0
1, 500880, Note_on_c, 0, 72, 49
1, 501000, Note_on_c, 0, 72, 0
1, 501000, Note_on_c, 0, 76, 46
1, 501120, Tempo, 383093
1, 501120, Note_on_c, 0, 76, 0
1, 501120, Note_on_c, 0, 60, 0
1, 501120, Note_on_c, 0, 48, 0
1, 501120, Note_on_c, 0, 52, 0
1, 501120, Note_on_c, 0, 55, 0
1, 501120, Note_on_c, 0, 62, 50
1, 501120, Note_on_c, 0, 48, 34
1, 501120, Note_on_c, 0, 53, 41
1, 501240, Note_on_c, 0, 62, 0
1, 501240, Note_on_c, 0, 61, 45
1, 501358, Note_on_c, 0, 53, 0
1, 501358, Note_on_c, 0, 48, 0
1, 501360, Note_on_c, 0, 61, 0
1, 501360, Note_on_c, 0, 62, 51
1, 501360, Note_on_c, 0, 48, 30
1, 501360, Note_on_c, 0, 53, 36
1, 501480, Note_on_c, 0, 62, 0
1, 501480, Note_on_c, 0, 55, 46
1, 501598, Note_on_c, 0, 53, 0
1, 501598, Note_on_c, 0, 48, 0
1, 501600, Tempo, 381655
1, 501600, Note_on_c, 0, 55, 0
1, 501600, Note_on_c, 0, 60, 51
1, 501600, Note_on_c, 0, 48, 31
1, 501600, Note_on_c, 0, 52, 37
1, 501720, Note_on_c, 0, 59, 46
1, 501730, Note_on_c, 0, 60, 0
1, 501838, Note_on_c, 0, 48, 0
1, 501838, Note_on_c, 0, 52, 0
1, 501840, Note_on_c, 0, 60, 51
1, 501840, Note_on_c, 0, 48, 32
1, 501840, Note_on_c, 0, 52, 38
1, 501850, Note_on_c, 0, 59, 0
1, 501960, Tempo, 390244
1, 501960, Note_on_c, 0, 64, 46
1, 501970, Note_on_c, 0, 60, 0
1, 502078, Note_on_c, 0, 52, 0
1, 502078, Note_on_c, 0, 48, 0
1, 502080, Tempo, 383093
1, 502080, Note_on_c, 0, 64, 0
1, 502080, Note_on_c, 0, 62, 50
1, 502080, Note_on_c, 0, 48, 34
1, 502080, Note_on_c, 0, 53, 41
1, 502200, Note_on_c, 0, 62, 0
1, 502200, Note_on_c, 0, 61, 45
1, 502318, Note_on_c, 0, 53, 0
1, 502318, Note_on_c, 0, 48, 0
1, 502320, Note_on_c, 0, 61, 0
1, 502320, Note_on_c, 0, 62, 51
1, 502320, Note_on_c, 0, 48, 30
1, 502320, Note_on_c, 0, 53, 36
1, 502440, Note_on_c, 0, 62, 0
1, 502440, Note_on_c, 0, 55, 46
1, 502558, Note_on_c, 0, 53, 0
1, 502558, Note_on_c, 0, 48, 0
1, 502560, Tempo, 381655
1, 502560, Note_on_c, 0, 55, 0
1, 502560, Note_on_c, 0, 60, 51
1, 502560, Note_on_c, 0, 48, 31
1, 502560, Note_on_c, 0, 52, 37
1, 502680, Note_on_c, 0, 59, 46
1, 502690, Note_on_c, 0, 60, 0
1, 502798, Note_on_c, 0, 48, 0
1, 502798, Note_on_c, 0, 52, 0
1, 502800, Note_on_c, 0, 60, 51
1, 502800, Note_on_c, 0, 48, 32
1, 502800, Note_on_c, 0, 52, 38
1, 502810, Note_on_c, 0, 59, 0
1, 502920, Tempo, 390244
1, 502920, Note_on_c, 0, 64, 46
1, 502930, Note_on_c, 0, 60, 0
1, 503038, Note_on_c, 0, 52, 0
1, 503038, Note_on_c, 0, 48, 0
1, 503040, Tempo, 378884
1, 503040, Note_on_c, 0, 64, 0
1, 503040, Note_on_c, 0, 62, 55
1, 503040, Note_on_c, 0, 48, 37
1, 503040, Note_on_c, 0, 53, 45
1, 503160, Note_on_c, 0, 62, 0
1, 503160, Note_on_c, 0, 61, 49
1, 503278, Note_on_c, 0, 53, 0
1, 503278, Note_on_c, 0, 48, 0
1, 503280, Note_on_c, 0, 61, 0
1, 503280, Note_on_c, 0, 62, 57
1, 503280, Note_on_c, 0, 53, 33
1, 503280, Note_on_c, 0, 48, 33
1, 503280, Note_on_c, 0, 55, 40
1, 503400, Note_on_c, 0, 62, 0
1, 503400, Note_on_c, 0, 59, 52
1, 503518, Note_on_c, 0, 53, 0
1, 503518, Note_on_c, 0, 55, 0
1, 503518, Note_on_c, 0, 48, 0
1, 503520, Tempo, 376412
1, 503520, Note_on_c, 0, 59, 0
1, 503520, Note_on_c, 0, 65, 59
1, 503520, Note_on_c, 0, 50, 36
1, 503520, Note_on_c, 0, 53, 36
1, 503520, Note_on_c, 0, 55, 36
1, 503520, Note_on_c, 0, 48, 36
1, 503520, Note_on_c, 0, 59, 43
1, 503640, Note_on_c, 0, 64, 54
1, 503650, Note_on_c, 0, 65, 0
1, 503758, Note_on_c, 0, 48, 0
1, 503758, Note_on_c, 0, 53, 0
1, 503758, Note_on_c, 0, 55, 0
1, 503758, Note_on_c, 0, 50, 0
1, 503758, Note_on_c, 0, 59, 0
1, 503760, Note_on_c, 0, 65, 61
1, 503760, Note_on_c, 0, 50, 38
1, 503760, Note_on_c, 0, 53, 38
1, 503760, Note_on_c, 0, 55, 38
1, 503760, Note_on_c, 0, 48, 38
1, 503760, Note_on_c, 0, 59, 45
1, 503770, Note_on_c, 0, 64, 0
1, 503880, Tempo, 383926
1, 503880, Note_on_c, 0, 62, 56
1, 503890, Note_on_c, 0, 65, 0
1, 503998, Note_on_c, 0, 48, 0
1, 503998, Note_on_c, 0, 50, 0
1, 503998, Note_on_c, 0, 55, 0
1, 503998, Note_on_c, 0, 53, 0
1, 503998, Note_on_c, 0, 59, 0
1, 504000, Tempo, 377667
1, 504000, Note_on_c, 0, 62, 0
1, 504000, Note_on_c, 0, 71, 62
1, 504000, Note_on_c, 0, 50, 42
1, 504000, Note_on_c, 0, 53, 42
1, 504000, Note_on_c, 0, 55, 42
1, 504000, Note_on_c, 0, 48, 42
1, 504000, Note_on_c, 0, 59, 51
1, 504035, Control_c, 0, 64, 127
1, 504120, Note_on_c, 0, 71, 0
1, 504120, Note_on_c, 0, 70, 56
1, 504238, Note_on_c, 0, 53, 0
1, 504238, Note_on_c, 0, 48, 0
1, 504238, Note_on_c, 0, 55, 0
1, 504238, Note_on_c, 0, 50, 0
1, 504238, Note_on_c, 0, 59, 0
1, 504240, Note_on_c, 0, 70, 0
1, 504240, Note_on_c, 0, 71, 65
1, 504240, Note_on_c, 0, 50, 38
1, 504240, Note_on_c, 0, 55, 38
1, 504240, Note_on_c, 0, 53, 38
1, 504240, Note_on_c, 0, 48, 38
1, 504240, Note_on_c, 0, 59, 46
1, 504360, Note_on_c, 0, 71, 0
1, 504360, Note_on_c, 0, 65, 59
1, 504478, Note_on_c, 0, 55, 0
1, 504478, Note_on_c, 0, 48, 0
1, 504478, Note_on_c, 0, 53, 0
1, 504478, Note_on_c, 0, 50, 0
1, 504478, Note_on_c, 0, 59, 0
1, 504480, Tempo, 376412
1, 504480, Note_on_c, 0, 65, 0
1, 504480, Note_on_c, 0, 74, 67
1, 504480, Note_on_c, 0, 50, 40
1, 504480, Note_on_c, 0, 53, 40
1, 504480, Note_on_c, 0, 55, 40
1, 504480, Note_on_c, 0, 48, 40
1, 504480, Note_on_c, 0, 59, 48
1, 504487, Control_c, 0, 64, 0
1, 504549, Control_c, 0, 64, 127
1, 504600, Note_on_c, 0, 73, 61
1, 504610, Note_on_c, 0, 74, 0
1, 504718, Note_on_c, 0, 48, 0
1, 504718, Note_on_c, 0, 53, 0
1, 504718, Note_on_c, 0, 55, 0
1, 504718, Note_on_c, 0, 50, 0
1, 504718, Note_on_c, 0, 59, 0
1, 504720, Note_on_c, 0, 74, 69
1, 504720, Note_on_c, 0, 50, 43
1, 504720, Note_on_c, 0, 53, 43
1, 504720, Note_on_c, 0, 55, 43
1, 504720, Note_on_c, 0, 48, 43
1, 504720, Note_on_c, 0, 59, 51
1, 504730, Note_on_c, 0, 73, 0
1, 504840, Tempo, 382677
1, 504840, Note_on_c, 0, 71, 63
1, 504850, Note_on_c, 0, 74, 0
1, 504958, Note_on_c, 0, 48, 0
1, 504958, Note_on_c, 0, 50, 0
1, 504958, Note_on_c, 0, 55, 0
1, 504958, Note_on_c, 0, 53, 0
1, 504958, Note_on_c, 0, 59, 0
1, 504960, Tempo, 376412
1, 504960, Note_on_c, 0, 71, 0
1, 504960, Note_on_c, 0, 77, 70
1, 504960, Note_on_c, 0, 50, 47
1, 504960, Note_on_c, 0, 53, 47
1, 504960, Note_on_c, 0, 55, 47
1, 504960, Note_on_c, 0, 48, 47
1, 504960, Note_on_c, 0, 59, 57
1, 504960, Control_c, 0, 64, 0
1, 505012, Control_c, 0, 64, 127
1, 505080, Note_on_c, 0, 77, 0
1, 505080, Note_on_c, 0, 76, 63
1, 505198, Note_on_c, 0, 53, 0
1, 505198, Note_on_c, 0, 48, 0
1, 505198, Note_on_c, 0, 55, 0
1, 505198, Note_on_c, 0, 50, 0
1, 505198, Note_on_c, 0, 59, 0
1, 505200, Note_on_c, 0, 76, 0
1, 505200, Note_on_c, 0, 77, 71
1, 505200, Note_on_c, 0, 50, 42
1, 505200, Note_on_c, 0, 55, 42
1, 505200, Note_on_c, 0, 53, 42
1, 505200, Note_on_c, 0, 48, 42
1, 505200, Note_on_c, 0, 59, 50
1, 505320, Note_on_c, 0, 77, 0
1, 505320, Note_on_c, 0, 74, 65
1, 505438, Note_on_c, 0, 55, 0
1, 505438, Note_on_c, 0, 48, 0
1, 505438, Note_on_c, 0, 53, 0
1, 505438, Note_on_c, 0, 50, 0
1, 505438, Note_on_c, 0, 59, 0
1, 505440, Tempo, 372787
1, 505440, Note_on_c, 0, 74, 0
1, 505440, Note_on_c, 0, 83, 73
1, 505440, Note_on_c, 0, 50, 44
1, 505440, Note_on_c, 0, 53, 44
1, 505440, Note_on_c, 0, 55, 44
1, 505440, Note_on_c, 0, 48, 44
1, 505440, Note_on_c, 0, 59, 52
1, 505456, Control_c, 0, 64, 0
1, 505520, Control_c, 0, 64, 127
1, 505560, Note_on_c, 0, 82, 66
1, 505570, Note_on_c, 0, 83, 0
1, 505678, Note_on_c, 0, 48, 0
1, 505678, Note_on_c, 0, 53, 0
1, 505678, Note_on_c, 0, 55, 0
1, 505678, Note_on_c, 0, 50, 0
1, 505678, Note_on_c, 0, 59, 0
1, 505680, Note_on_c, 0, 83, 73
1, 505680, Note_on_c, 0, 50, 45
1, 505680, Note_on_c, 0, 53, 45
1, 505680, Note_on_c, 0, 55, 45
1, 505680, Note_on_c, 0, 48, 45
1, 505680, Note_on_c, 0, 59, 55
1, 505690, Note_on_c, 0, 82, 0
1, 505800, Tempo, 381388
1, 505800, Note_on_c, 0, 77, 67
1, 505810, Note_on_c, 0, 83, 0
1, 505918, Note_on_c, 0, 48, 0
1, 505918, Note_on_c, 0, 50, 0
1, 505918, Note_on_c, 0, 55, 0
1, 505918, Note_on_c, 0, 53, 0
1, 505918, Note_on_c, 0, 59, 0
1, 505920, Tempo, 375188
1, 505920, Note_on_c, 0, 77, 0
1, 505920, Note_on_c, 0, 86, 74
1, 505920, Note_on_c, 0, 50, 49
1, 505920, Note_on_c, 0, 53, 49
1, 505920, Note_on_c, 0, 55, 49
1, 505920, Note_on_c, 0, 48, 49
1, 505920, Note_on_c, 0, 59, 60
1, 505929, Control_c, 0, 64, 0
1, 505983, Control_c, 0, 64, 127
1, 506040, Note_on_c, 0, 86, 0
1, 506040, Note_on_c, 0, 85, 67
1, 506158, Note_on_c, 0, 53, 0
1, 506158, Note_on_c, 0, 48, 0
1, 506158, Note_on_c, 0, 55, 0
1, 506158, Note_on_c, 0, 50, 0
1, 506158, Note_on_c, 0, 59, 0
1, 506160, Note_on_c, 0, 85, 0
1, 506160, Note_on_c, 0, 86, 76
1, 506160, Note_on_c, 0, 50, 45
1, 506160, Note_on_c, 0, 55, 45
1, 506160, Note_on_c, 0, 53, 45
1, 506160, Note_on_c, 0, 48, 45
1, 506160, Note_on_c, 0, 59, 54
1, 506280, Note_on_c, 0, 86, 0
1, 506280, Note_on_c, 0, 83, 69
1, 506398, Note_on_c, 0, 55, 0
1, 506398, Note_on_c, 0, 48, 0
1, 506398, Note_on_c, 0, 53, 0
1, 506398, Note_on_c, 0, 50, 0
1, 506398, Note_on_c, 0, 59, 0
1, 506400, Tempo, 372787
1, 506400, Note_on_c, 0, 83, 0
1, 506400, Note_on_c, 0, 89, 77
1, 506400, Note_on_c, 0, 50, 46
1, 506400, Note_on_c, 0, 53, 46
1, 506400, Note_on_c, 0, 55, 46
1, 506400, Note_on_c, 0, 48, 46
1, 506400, Note_on_c, 0, 59, 55
1, 506408, Control_c, 0, 64, 0
1, 506480, Control_c, 0, 64, 127
1, 506520, Note_on_c, 0, 88, 70
1, 506530, Note_on_c, 0, 89, 0
1, 506638, Note_on_c, 0, 48, 0
1, 506638, Note_on_c, 0, 53, 0
1, 506638, Note_on_c, 0, 55, 0
1, 506638, Note_on_c, 0, 50, 0
1, 506638, Note_on_c, 0, 59, 0
1, 506640, Note_on_c, 0, 89, 78
1, 506640, Note_on_c, 0, 50, 48
1, 506640, Note_on_c, 0, 53, 48
1, 506640, Note_on_c, 0, 55, 48
1, 506640, Note_on_c, 0, 48, 48
1, 506640, Note_on_c, 0, 59, 58
1, 506650, Note_on_c, 0, 88, 0
1, 506760, Tempo, 380156
1, 506760, Note_on_c, 0, 83, 71
1, 506770, Note_on_c, 0, 89, 0
1, 506878, Note_on_c, 0, 48, 0
1, 506878, Note_on_c, 0, 50, 0
1, 506878, Note_on_c, 0, 55, 0
1, 506878, Note_on_c, 0, 53, 0
1, 506878, Note_on_c, 0, 59, 0
1, 506880, Note_on_c, 0, 83, 0
1, 506880, Note_on_c, 0, 84, 91
1, 506880, Note_on_c, 0, 36, 71
1, 506880, Note_on_c, 0, 48, 71
1, 506943, Control_c, 0, 64, 0
1, 507057, Control_c, 0, 64, 127
1, 507120, Note_on_c, 0, 48, 0
1, 507120, Note_on_c, 0, 36, 0
1, 507120, Note_on_c, 0, 84, 0
1, 507120, Note_on_c, 0, 64, 68
1, 507120, Note_on_c, 0, 67, 81
1, 507120, Note_on_c, 0, 52, 56
1, 507120, Note_on_c, 0, 55, 67
1, 507240, Note_on_c, 0, 55, 0
1, 507240, Note_on_c, 0, 64, 0
1, 507240, Note_on_c, 0, 67, 0
1, 507240, Note_on_c, 0, 52, 0
1, 507360, Note_on_c, 0, 60, 72
1, 507360, Note_on_c, 0, 64, 85
1, 507360, Note_on_c, 0, 48, 59
1, 507360, Note_on_c, 0, 52, 70
1, 507480, Note_on_c, 0, 52, 0
1, 507480, Note_on_c, 0, 60, 0
1, 507480, Note_on_c, 0, 64, 0
1, 507480, Note_on_c, 0, 48, 0
1, 507600, Note_on_c, 0, 67, 68
1, 507600, Note_on_c, 0, 72, 81
1, 507600, Note_on_c, 0, 60, 67
1, 507600, Note_on_c, 0, 55, 56
1, 507720, Note_on_c, 0, 55, 0
1, 507720, Note_on_c, 0, 67, 0
1, 507720, Note_on_c, 0, 72, 0
1, 507720, Note_on_c, 0, 60, 0
1, 507840, Note_on_c, 0, 64, 71
1, 507840, Note_on_c, 0, 67, 84
1, 507840, Note_on_c, 0, 52, 59
1, 507840, Note_on_c, 0, 55, 70
1, 507960, Note_on_c, 0, 55, 0
1, 507960, Note_on_c, 0, 64, 0
1, 507960, Note_on_c, 0, 67, 0
1, 507960, Note_on_c, 0, 52, 0
1, 508080, Note_on_c, 0, 72, 68
1, 508080, Note_on_c, 0, 76, 81
1, 508080, Note_on_c, 0, 60, 56
1, 508080, Note_on_c, 0, 64, 67
1, 508200, Note_on_c, 0, 64, 0
1, 508200, Note_on_c, 0, 72, 0
1, 508200, Note_on_c, 0, 76, 0
1, 508200, Note_on_c, 0, 60, 0
1, 508320, Note_on_c, 0, 67, 73
1, 508320, Note_on_c, 0, 72, 86
1, 508320, Note_on_c, 0, 55, 60
1, 508320, Note_on_c, 0, 60, 71
1, 508440, Note_on_c, 0, 60, 0
1, 508440, Note_on_c, 0, 67, 0
1, 508440, Note_on_c, 0, 72, 0
1, 508440, Note_on_c, 0, 55, 0
1, 508560, Note_on_c, 0, 76, 68
1, 508560, Note_on_c, 0, 79, 81
1, 508560, Note_on_c, 0, 60, 56
1, 508560, Note_on_c, 0, 64, 67
1, 508680, Note_on_c, 0, 64, 0
1, 508680, Note_on_c, 0, 76, 0
1, 508680, Note_on_c, 0, 79, 0
1, 508680, Note_on_c, 0, 60, 0
1, 508800, Note_on_c, 0, 72, 73
1, 508800, Note_on_c, 0, 76, 86
1, 508800, Note_on_c, 0, 64, 59
1, 508800, Note_on_c, 0, 67, 70
1, 508920, Note_on_c, 0, 67, 0
1, 508920, Note_on_c, 0, 72, 0
1, 508920, Note_on_c, 0, 76, 0
1, 508920, Note_on_c, 0, 64, 0
1, 509040, Note_on_c, 0, 84, 81
1, 509040, Note_on_c, 0, 79, 68
1, 509040, Note_on_c, 0, 67, 57
1, 509040, Note_on_c, 0, 72, 68
1, 509160, Note_on_c, 0, 72, 0
1, 509160, Note_on_c, 0, 84, 0
1, 509160, Note_on_c, 0, 79, 0
1, 509160, Note_on_c, 0, 67, 0
1, 509280, Note_on_c, 0, 76, 73
1, 509280, Note_on_c, 0, 79, 86
1, 509280, Note_on_c, 0, 64, 59
1, 509280, Note_on_c, 0, 67, 70
1, 509400, Note_on_c, 0, 67, 0
1, 509400, Note_on_c, 0, 76, 0
1, 509400, Note_on_c, 0, 79, 0
1, 509400, Note_on_c, 0, 64, 0
1, 509520, Note_on_c, 0, 88, 82
1, 509520, Note_on_c, 0, 84, 69
1, 509520, Note_on_c, 0, 72, 57
1, 509520, Note_on_c, 0, 76, 68
1, 509640, Note_on_c, 0, 76, 0
1, 509640, Note_on_c, 0, 88, 0
1, 509640, Note_on_c, 0, 84, 0
1, 509640, Note_on_c, 0, 72, 0
1, 509760, Note_on_c, 0, 84, 87
1, 509760, Note_on_c, 0, 79, 73
1, 509760, Note_on_c, 0, 67, 60
1, 509760, Note_on_c, 0, 72, 71
1, 509880, Note_on_c, 0, 72, 0
1, 509880, Note_on_c, 0, 84, 0
1, 509880, Note_on_c, 0, 79, 0
1, 509880, Note_on_c, 0, 67, 0
1, 510000, Note_on_c, 0, 91, 82
1, 510000, Note_on_c, 0, 88, 69
1, 510000, Note_on_c, 0, 76, 58
1, 510000, Note_on_c, 0, 79, 69
1, 510120, Note_on_c, 0, 79, 0
1, 510120, Note_on_c, 0, 91, 0
1, 510120, Note_on_c, 0, 88, 0
1, 510120, Note_on_c, 0, 76, 0
1, 510240, Note_on_c, 0, 84, 74
1, 510240, Note_on_c, 0, 88, 88
1, 510240, Note_on_c, 0, 72, 61
1, 510240, Note_on_c, 0, 76, 72
1, 510360, Note_on_c, 0, 76, 0
1, 510360, Note_on_c, 0, 84, 0
1, 510360, Note_on_c, 0, 88, 0
1, 510360, Note_on_c, 0, 72, 0
1, 510480, Note_on_c, 0, 91, 82
1, 510480, Note_on_c, 0, 88, 69
1, 510480, Note_on_c, 0, 76, 58
1, 510480, Note_on_c, 0, 79, 69
1, 510600, Note_on_c, 0, 79, 0
1, 510600, Note_on_c, 0, 91, 0
1, 510600, Note_on_c, 0, 88, 0
1, 510600, Note_on_c, 0, 76, 0
1, 510720, Note_on_c, 0, 88, 87
1, 510720, Note_on_c, 0, 84, 73
1, 510720, Note_on_c, 0, 72, 61
1, 510720, Note_on_c, 0, 76, 72
1, 510840, Note_on_c, 0, 76, 0
1, 510840, Note_on_c, 0, 88, 0
1, 510840, Note_on_c, 0, 84, 0
1, 510840, Note_on_c, 0, 72, 0
1, 511680, Tempo, 392799
1, 511680, Note_on_c, 0, 76, 54
1, 511680, Note_on_c, 0, 79, 76
1, 511680, Note_on_c, 0, 64, 44
1, 511680, Note_on_c, 0, 67, 62
1, 511920, Note_on_c, 0, 67, 0
1, 511920, Note_on_c, 0, 76, 0
1, 511920, Note_on_c, 0, 79, 0
1, 511920, Note_on_c, 0, 64, 0
1, 512640, Note_on_c, 0, 72, 50
1, 512640, Note_on_c, 0, 76, 70
1, 512640, Note_on_c, 0, 60, 39
1, 512640, Note_on_c, 0, 64, 56
1, 512880, Note_on_c, 0, 64, 0
1, 512880, Note_on_c, 0, 72, 0
1, 512880, Note_on_c, 0, 76, 0
1, 512880, Note_on_c, 0, 60, 0
1, 513600, Note_on_c, 0, 64, 43
1, 513600, Note_on_c, 0, 67, 60
1, 513600, Note_on_c, 0, 52, 37
1, 513600, Note_on_c, 0, 55, 52
1, 513840, Note_on_c, 0, 55, 0
1, 513840, Note_on_c, 0, 64, 0
1, 513840, Note_on_c, 0, 67, 0
1, 513840, Note_on_c, 0, 52, 0
1, 514560, Note_on_c, 0, 60, 39
1, 514560, Note_on_c, 0, 64, 56
1, 514560, Note_on_c, 0, 48, 32
1, 514560, Note_on_c, 0, 52, 45
1, 514800, Note_on_c, 0, 52, 0
1, 514800, Note_on_c, 0, 60, 0
1, 514800, Note_on_c, 0, 64, 0
1, 514800, Note_on_c, 0, 48, 0
1, 515520, Note_on_c, 0, 76, 36
1, 515520, Note_on_c, 0, 79, 43
1, 515520, Note_on_c, 0, 64, 28
1, 515520, Note_on_c, 0, 67, 34
1, 515760, Note_on_c, 0, 67, 0
1, 515760, Note_on_c, 0, 76, 0
1, 515760, Note_on_c, 0, 79, 0
1, 515760, Note_on_c, 0, 64, 0
1, 516000, Note_on_c, 0, 76, 36
1, 516000, Note_on_c, 0, 79, 43
1, 516000, Note_on_c, 0, 64, 28
1, 516000, Note_on_c, 0, 67, 34
1, 516240, Note_on_c, 0, 67, 0
1, 516240, Note_on_c, 0, 76, 0
1, 516240, Note_on_c, 0, 79, 0
1, 516240, Note_on_c, 0, 64, 0
1, 516480, Note_on_c, 0, 72, 35
1, 516480, Note_on_c, 0, 76, 42
1, 516480, Note_on_c, 0, 60, 28
1, 516480, Note_on_c, 0, 64, 34
1, 516720, Note_on_c, 0, 64, 0
1, 516720, Note_on_c, 0, 72, 0
1, 516720, Note_on_c, 0, 76, 0
1, 516720, Note_on_c, 0, 60, 0
1, 517440, Tempo, 399334
1, 517440, Note_on_c, 0, 91, 101
1, 517440, Note_on_c, 0, 88, 101
1, 517440, Note_on_c, 0, 84, 85
1, 517440, Note_on_c, 0, 79, 85
1, 517440, Note_on_c, 0, 36, 69
1, 517440, Note_on_c, 0, 40, 69
1, 517440, Note_on_c, 0, 43, 69
1, 517440, Note_on_c, 0, 48, 82
1, 517560, Note_on_c, 0, 48, 0
1, 517560, Note_on_c, 0, 91, 0
1, 517560, Note_on_c, 0, 36, 0
1, 517560, Note_on_c, 0, 88, 0
1, 517560, Note_on_c, 0, 84, 0
1, 517560, Note_on_c, 0, 79, 0
1, 517560, Note_on_c, 0, 40, 0
1, 517560, Note_on_c, 0, 43, 0
1, 517920, Note_on_c, 0, 79, 85
1, 517920, Note_on_c, 0, 84, 85
1, 517920, Note_on_c, 0, 88, 101
1, 517920, Note_on_c, 0, 91, 101
1, 517920, Note_on_c, 0, 36, 69
1, 517920, Note_on_c, 0, 40, 69
1, 517920, Note_on_c, 0, 43, 69
1, 517920, Note_on_c, 0, 48, 82
1, 518040, Note_on_c, 0, 48, 0
1, 518040, Note_on_c, 0, 79, 0
1, 518040, Note_on_c, 0, 36, 0
1, 518040, Note_on_c, 0, 84, 0
1, 518040, Note_on_c, 0, 88, 0
1, 518040, Note_on_c, 0, 91, 0
1, 518040, Note_on_c, 0, 40, 0
1, 518040, Note_on_c, 0, 43, 0
1, 518400, Note_on_c, 0, 88, 101
1, 518400, Note_on_c, 0, 84, 101
1, 518400, Note_on_c, 0, 79, 85
1, 518400, Note_on_c, 0, 76, 85
1, 518400, Note_on_c, 0, 36, 69
1, 518400, Note_on_c, 0, 40, 69
1, 518400, Note_on_c, 0, 43, 69
1, 518400, Note_on_c, 0, 48, 82
1, 518520, Note_on_c, 0, 48, 0
1, 518520, Note_on_c, 0, 88, 0
1, 518520, Note_on_c, 0, 36, 0
1, 518520, Note_on_c, 0, 84, 0
1, 518520, Note_on_c, 0, 79, 0
1, 518520, Note_on_c, 0, 76, 0
1, 518520, Note_on_c, 0, 40, 0
1, 518520, Note_on_c, 0, 43, 0
1, 518668, Control_c, 0, 64, 0
1, 519360, Tempo, 411692
1, 519360, Note_on_c, 0, 64, 85
1, 519360, Note_on_c, 0, 67, 85
1, 519360, Note_on_c, 0, 72, 101
1, 519360, Note_on_c, 0, 76, 101
1, 519360, Note_on_c, 0, 36, 69
1, 519360, Note_on_c, 0, 40, 69
1, 519360, Note_on_c, 0, 43, 69
1, 519360, Note_on_c, 0, 48, 82
1, 519410, Control_c, 0, 64, 127
1, 519480, Note_on_c, 0, 48, 0
1, 519480, Note_on_c, 0, 64, 0
1, 519480, Note_on_c, 0, 36, 0
1, 519480, Note_on_c, 0, 67, 0
1, 519480, Note_on_c, 0, 72, 0
1, 519480, Note_on_c, 0, 76, 0
1, 519480, Note_on_c, 0, 40, 0
1, 519480, Note_on_c, 0, 43, 0
1, 519600, Control_c, 0, 64, 0
1, 520320, Note_on_c, 0, 60, 85
1, 520320, Note_on_c, 0, 64, 85
1, 520320, Note_on_c, 0, 67, 101
1, 520320, Note_on_c, 0, 72, 101
1, 520320, Note_on_c, 0, 36, 69
1, 520320, Note_on_c, 0, 40, 69
1, 520320, Note_on_c, 0, 43, 69
1, 520320, Note_on_c, 0, 48, 82
1, 520377, Control_c, 0, 64, 127
1, 520440, Note_on_c, 0, 48, 0
1, 520440, Note_on_c, 0, 60, 0
1, 520440, Note_on_c, 0, 36, 0
1, 520440, Note_on_c, 0, 64, 0
1, 520440, Note_on_c, 0, 67, 0
1, 520440, Note_on_c, 0, 72, 0
1, 520440, Note_on_c, 0, 40, 0
1, 520440, Note_on_c, 0, 43, 0
1, 520560, Control_c, 0, 64, 0
1, 521280, Tempo, 599042
1, 521337, Tempo, 599042
1, 521337, End_track
0, 0, End_of_file
