0, 0, Header, 0, 1, 480
1, 0, Start_track
1, 0, Title_t, "Beethoven Sonata No. 21 in C major"
1, 0, Title_t, "1. Movement"
1, 0, Copyright_t, "Copyright © 2003 by Bernd Krueger "
1, 0, Text_t, "Ludwig van Beethoven"
1, 0, Text_t, "Allegro con brio"
1, 0, Text_t, "Fertiggestellt am 30.11.2003\012"
1, 0, Text_t, "Update am 23.6.2012\012"
1, 0, Text_t, "Dauer: 10:21 Minuten\012"
1, 0, SMPTE_offset, 96, 0, 3, 0, 0
1, 0, Time_signature, 4, 2, 24, 8
1, 0, Key_signature, 0, "major"
1, 0, Tempo, 373902
1, 0, Program_c, 0, 1
1, 0, Control_c, 0, 7, 100
1, 0, Control_c, 0, 10, 64
1, 0, Control_c, 0, 91, 127
1, 0, Text_t, "bdca426d104a26ac9dcb070447587523"
1, 0, Program_c, 0, 1
1, 0, Control_c, 0, 7, 100
1, 0, Control_c, 0, 10, 64
1, 0, Note_on_c, 0, 36, 25
1, 0, Control_c, 0, 64, 0
1, 180, Note_on_c, 0, 36, 0
1, 240, Note_on_c, 0, 48, 28
1, 240, Note_on_c, 0, 52, 33
1, 240, Note_on_c, 0, 43, 26
1, 240, Note_on_c, 0, 36, 22
1, 420, Note_on_c, 0, 36, 0
1, 420, Note_on_c, 0, 48, 0
1, 420, Note_on_c, 0, 52, 0
1, 420, Note_on_c, 0, 43, 0
1, 480, Tempo, 371517
1, 480, Note_on_c, 0, 48, 28
1, 480, Note_on_c, 0, 52, 33
1, 480, Note_on_c, 0, 43, 26
1, 480, Note_on_c, 0, 36, 22
1, 660, Note_on_c, 0, 36, 0
1, 660, Note_on_c, 0, 48, 0
1, 660, Note_on_c, 0, 52, 0
1, 660, Note_on_c, 0, 43, 0
1, 720, Note_on_c, 0, 48, 28
1, 720, Note_on_c, 0, 52, 34
1, 720, Note_on_c, 0, 43, 27
1, 720, Note_on_c, 0, 36, 22
1, 900, Note_on_c, 0, 36, 0
1, 900, Note_on_c, 0, 48, 0
1, 900, Note_on_c, 0, 52, 0
1, 900, Note_on_c, 0, 43, 0
1, 960, Note_on_c, 0, 48, 28
1, 960, Note_on_c, 0, 52, 34
1, 960, Note_on_c, 0, 43, 27
1, 960, Note_on_c, 0, 36, 22
1, 980, Tempo, 375117
1, 1140, Note_on_c, 0, 36, 0
1, 1140, Note_on_c, 0, 48, 0
1, 1140, Note_on_c, 0, 52, 0
1, 1140, Note_on_c, 0, 43, 0
1, 1200, Note_on_c, 0, 48, 28
1, 1200, Note_on_c, 0, 52, 34
1, 1200, Note_on_c, 0, 43, 28
1, 1200, Note_on_c, 0, 36, 23
1, 1380, Note_on_c, 0, 36, 0
1, 1380, Note_on_c, 0, 48, 0
1, 1380, Note_on_c, 0, 52, 0
1, 1380, Note_on_c, 0, 43, 0
1, 1440, Tempo, 372694
1, 1440, Note_on_c, 0, 48, 29
1, 1440, Note_on_c, 0, 52, 35
1, 1440, Note_on_c, 0, 43, 28
1, 1440, Note_on_c, 0, 36, 23
1, 1620, Note_on_c, 0, 36, 0
1, 1620, Note_on_c, 0, 48, 0
1, 1620, Note_on_c, 0, 52, 0
1, 1620, Note_on_c, 0, 43, 0
1, 1680, Note_on_c, 0, 48, 29
1, 1680, Note_on_c, 0, 52, 35
1, 1680, Note_on_c, 0, 43, 29
1, 1680, Note_on_c, 0, 36, 24
1, 1860, Note_on_c, 0, 36, 0
1, 1860, Note_on_c, 0, 48, 0
1, 1860, Note_on_c, 0, 52, 0
1, 1860, Note_on_c, 0, 43, 0
1, 1920, Note_on_c, 0, 48, 30
1, 1920, Note_on_c, 0, 52, 36
1, 1920, Note_on_c, 0, 36, 25
1, 1920, Note_on_c, 0, 43, 30
1, 1960, Tempo, 373902
1, 2100, Note_on_c, 0, 43, 0
1, 2100, Note_on_c, 0, 48, 0
1, 2100, Note_on_c, 0, 52, 0
1, 2100, Note_on_c, 0, 36, 0
1, 2160, Note_on_c, 0, 48, 30
1, 2160, Note_on_c, 0, 52, 36
1, 2160, Note_on_c, 0, 36, 22
1, 2160, Note_on_c, 0, 43, 27
1, 2340, Note_on_c, 0, 43, 0
1, 2340, Note_on_c, 0, 48, 0
1, 2340, Note_on_c, 0, 52, 0
1, 2340, Note_on_c, 0, 36, 0
1, 2400, Tempo, 372694
1, 2400, Note_on_c, 0, 48, 31
1, 2400, Note_on_c, 0, 52, 37
1, 2400, Note_on_c, 0, 36, 23
1, 2400, Note_on_c, 0, 43, 28
1, 2580, Note_on_c, 0, 43, 0
1, 2580, Note_on_c, 0, 48, 0
1, 2580, Note_on_c, 0, 52, 0
1, 2580, Note_on_c, 0, 36, 0
1, 2640, Note_on_c, 0, 48, 32
1, 2640, Note_on_c, 0, 52, 38
1, 2640, Note_on_c, 0, 36, 24
1, 2640, Note_on_c, 0, 43, 29
1, 2820, Note_on_c, 0, 43, 0
1, 2820, Note_on_c, 0, 48, 0
1, 2820, Note_on_c, 0, 52, 0
1, 2820, Note_on_c, 0, 36, 0
1, 2880, Tempo, 373902
1, 2880, Note_on_c, 0, 48, 33
1, 2880, Note_on_c, 0, 52, 39
1, 2880, Note_on_c, 0, 36, 25
1, 2880, Note_on_c, 0, 43, 30
1, 3060, Note_on_c, 0, 43, 0
1, 3060, Note_on_c, 0, 48, 0
1, 3060, Note_on_c, 0, 52, 0
1, 3060, Note_on_c, 0, 36, 0
1, 3120, Note_on_c, 0, 48, 34
1, 3120, Note_on_c, 0, 52, 40
1, 3120, Note_on_c, 0, 36, 25
1, 3120, Note_on_c, 0, 43, 30
1, 3300, Note_on_c, 0, 43, 0
1, 3300, Note_on_c, 0, 48, 0
1, 3300, Note_on_c, 0, 52, 0
1, 3300, Note_on_c, 0, 36, 0
1, 3360, Note_on_c, 0, 50, 34
1, 3360, Note_on_c, 0, 54, 40
1, 3360, Note_on_c, 0, 36, 25
1, 3360, Note_on_c, 0, 45, 30
1, 3540, Note_on_c, 0, 45, 0
1, 3540, Note_on_c, 0, 50, 0
1, 3540, Note_on_c, 0, 54, 0
1, 3540, Note_on_c, 0, 36, 0
1, 3600, Note_on_c, 0, 50, 34
1, 3600, Note_on_c, 0, 54, 40
1, 3600, Note_on_c, 0, 36, 25
1, 3600, Note_on_c, 0, 45, 30
1, 3780, Note_on_c, 0, 45, 0
1, 3780, Note_on_c, 0, 50, 0
1, 3780, Note_on_c, 0, 54, 0
1, 3780, Note_on_c, 0, 36, 0
1, 3840, Marker_t, "Part 1"
1, 3840, Note_on_c, 0, 50, 39
1, 3840, Note_on_c, 0, 55, 46
1, 3840, Note_on_c, 0, 35, 25
1, 3840, Note_on_c, 0, 43, 30
1, 3840, Control_c, 0, 64, 0
1, 3880, Tempo, 373902
1, 4020, Note_on_c, 0, 43, 0
1, 4020, Note_on_c, 0, 35, 0
1, 4080, Note_on_c, 0, 35, 25
1, 4080, Note_on_c, 0, 43, 30
1, 4260, Note_on_c, 0, 43, 0
1, 4260, Note_on_c, 0, 35, 0
1, 4320, Note_on_c, 0, 35, 25
1, 4320, Note_on_c, 0, 43, 30
1, 4500, Note_on_c, 0, 43, 0
1, 4500, Note_on_c, 0, 35, 0
1, 4560, Note_on_c, 0, 55, 0
1, 4560, Note_on_c, 0, 50, 0
1, 4560, Note_on_c, 0, 59, 40
1, 4560, Note_on_c, 0, 35, 25
1, 4560, Note_on_c, 0, 43, 30
1, 4680, Note_on_c, 0, 59, 0
1, 4680, Note_on_c, 0, 57, 40
1, 4740, Note_on_c, 0, 43, 0
1, 4740, Note_on_c, 0, 35, 0
1, 4800, Note_on_c, 0, 57, 0
1, 4800, Note_on_c, 0, 55, 45
1, 4800, Note_on_c, 0, 35, 25
1, 4800, Note_on_c, 0, 43, 30
1, 4920, Note_on_c, 0, 55, 0
1, 4980, Note_on_c, 0, 43, 0
1, 4980, Note_on_c, 0, 35, 0
1, 5040, Note_on_c, 0, 35, 25
1, 5040, Note_on_c, 0, 43, 30
1, 5220, Note_on_c, 0, 43, 0
1, 5220, Note_on_c, 0, 35, 0
1, 5280, Note_on_c, 0, 35, 25
1, 5280, Note_on_c, 0, 43, 30
1, 5460, Note_on_c, 0, 43, 0
1, 5460, Note_on_c, 0, 35, 0
1, 5520, Tempo, 389610
1, 5520, Note_on_c, 0, 35, 25
1, 5520, Note_on_c, 0, 43, 30
1, 5700, Note_on_c, 0, 43, 0
1, 5700, Note_on_c, 0, 35, 0
1, 5700, Note_on_c, 0, 85, 46
1, 5760, Tempo, 379747
1, 5760, Note_on_c, 0, 85, 0
1, 5760, Note_on_c, 0, 86, 57
1, 5760, Note_on_c, 0, 35, 25
1, 5760, Note_on_c, 0, 43, 30
1, 5940, Note_on_c, 0, 43, 0
1, 5940, Note_on_c, 0, 35, 0
1, 6000, Note_on_c, 0, 35, 25
1, 6000, Note_on_c, 0, 43, 30
1, 6180, Note_on_c, 0, 43, 0
1, 6180, Note_on_c, 0, 35, 0
1, 6240, Note_on_c, 0, 35, 25
1, 6240, Note_on_c, 0, 43, 30
1, 6360, Note_on_c, 0, 86, 0
1, 6360, Note_on_c, 0, 84, 48
1, 6420, Note_on_c, 0, 43, 0
1, 6420, Note_on_c, 0, 35, 0
1, 6480, Note_on_c, 0, 84, 0
1, 6480, Note_on_c, 0, 83, 47
1, 6480, Note_on_c, 0, 35, 25
1, 6480, Note_on_c, 0, 43, 30
1, 6600, Note_on_c, 0, 83, 0
1, 6600, Note_on_c, 0, 81, 45
1, 6660, Note_on_c, 0, 43, 0
1, 6660, Note_on_c, 0, 35, 0
1, 6720, Note_on_c, 0, 81, 0
1, 6720, Note_on_c, 0, 79, 44
1, 6720, Note_on_c, 0, 35, 25
1, 6720, Note_on_c, 0, 43, 30
1, 6900, Note_on_c, 0, 43, 0
1, 6900, Note_on_c, 0, 35, 0
1, 6960, Note_on_c, 0, 79, 0
1, 6960, Note_on_c, 0, 35, 25
1, 6960, Note_on_c, 0, 43, 30
1, 7140, Note_on_c, 0, 43, 0
1, 7140, Note_on_c, 0, 35, 0
1, 7200, Note_on_c, 0, 35, 25
1, 7200, Note_on_c, 0, 43, 30
1, 7380, Note_on_c, 0, 43, 0
1, 7380, Note_on_c, 0, 35, 0
1, 7440, Tempo, 387097
1, 7440, Note_on_c, 0, 35, 25
1, 7440, Note_on_c, 0, 43, 30
1, 7620, Note_on_c, 0, 43, 0
1, 7620, Note_on_c, 0, 35, 0
1, 7680, Tempo, 373902
1, 7680, Note_on_c, 0, 46, 29
1, 7680, Note_on_c, 0, 50, 35
1, 7680, Control_c, 0, 91, 127
1, 7680, Text_t, "bdca426d104a26ac9dcb070447587523"
1, 7680, Note_on_c, 0, 41, 30
1, 7680, Note_on_c, 0, 34, 26
1, 7680, Control_c, 0, 64, 0
1, 7860, Note_on_c, 0, 34, 0
1, 7860, Note_on_c, 0, 46, 0
1, 7860, Note_on_c, 0, 50, 0
1, 7860, Note_on_c, 0, 41, 0
1, 7920, Note_on_c, 0, 46, 29
1, 7920, Note_on_c, 0, 50, 35
1, 7920, Note_on_c, 0, 41, 30
1, 7920, Note_on_c, 0, 34, 25
1, 8100, Note_on_c, 0, 34, 0
1, 8100, Note_on_c, 0, 46, 0
1, 8100, Note_on_c, 0, 50, 0
1, 8100, Note_on_c, 0, 41, 0
1, 8160, Tempo, 370325
1, 8160, Note_on_c, 0, 46, 29
1, 8160, Note_on_c, 0, 50, 35
1, 8160, Note_on_c, 0, 41, 30
1, 8160, Note_on_c, 0, 34, 25
1, 8340, Note_on_c, 0, 34, 0
1, 8340, Note_on_c, 0, 46, 0
1, 8340, Note_on_c, 0, 50, 0
1, 8340, Note_on_c, 0, 41, 0
1, 8400, Note_on_c, 0, 46, 30
1, 8400, Note_on_c, 0, 50, 36
1, 8400, Note_on_c, 0, 41, 31
1, 8400, Note_on_c, 0, 34, 26
1, 8580, Note_on_c, 0, 34, 0
1, 8580, Note_on_c, 0, 46, 0
1, 8580, Note_on_c, 0, 50, 0
1, 8580, Note_on_c, 0, 41, 0
1, 8640, Tempo, 375117
1, 8640, Note_on_c, 0, 46, 31
1, 8640, Note_on_c, 0, 50, 37
1, 8640, Note_on_c, 0, 41, 31
1, 8640, Note_on_c, 0, 34, 26
1, 8820, Note_on_c, 0, 34, 0
1, 8820, Note_on_c, 0, 46, 0
1, 8820, Note_on_c, 0, 50, 0
1, 8820, Note_on_c, 0, 41, 0
1, 8880, Note_on_c, 0, 46, 31
1, 8880, Note_on_c, 0, 50, 37
1, 8880, Note_on_c, 0, 41, 31
1, 8880, Note_on_c, 0, 34, 26
1, 9060, Note_on_c, 0, 34, 0
1, 9060, Note_on_c, 0, 46, 0
1, 9060, Note_on_c, 0, 50, 0
1, 9060, Note_on_c, 0, 41, 0
1, 9120, Note_on_c, 0, 46, 32
1, 9120, Note_on_c, 0, 50, 38
1, 9120, Note_on_c, 0, 41, 31
1, 9120, Note_on_c, 0, 34, 26
1, 9300, Note_on_c, 0, 34, 0
1, 9300, Note_on_c, 0, 46, 0
1, 9300, Note_on_c, 0, 50, 0
1, 9300, Note_on_c, 0, 41, 0
1, 9360, Note_on_c, 0, 46, 33
1, 9360, Note_on_c, 0, 50, 39
1, 9360, Note_on_c, 0, 41, 31
1, 9360, Note_on_c, 0, 34, 26
1, 9540, Note_on_c, 0, 34, 0
1, 9540, Note_on_c, 0, 46, 0
1, 9540, Note_on_c, 0, 50, 0
1, 9540, Note_on_c, 0, 41, 0
1, 9600, Tempo, 373902
1, 9600, Note_on_c, 0, 46, 33
1, 9600, Note_on_c, 0, 50, 39
1, 9600, Note_on_c, 0, 34, 26
1, 9600, Note_on_c, 0, 41, 31
1, 9780, Note_on_c, 0, 41, 0
1, 9780, Note_on_c, 0, 46, 0
1, 9780, Note_on_c, 0, 50, 0
1, 9780, Note_on_c, 0, 34, 0
1, 9840, Note_on_c, 0, 46, 34
1, 9840, Note_on_c, 0, 50, 40
1, 9840, Note_on_c, 0, 34, 26
1, 9840, Note_on_c, 0, 41, 31
1, 10020, Note_on_c, 0, 41, 0
1, 10020, Note_on_c, 0, 46, 0
1, 10020, Note_on_c, 0, 50, 0
1, 10020, Note_on_c, 0, 34, 0
1, 10080, Tempo, 375117
1, 10080, Note_on_c, 0, 46, 34
1, 10080, Note_on_c, 0, 50, 40
1, 10080, Note_on_c, 0, 34, 26
1, 10080, Note_on_c, 0, 41, 31
1, 10260, Note_on_c, 0, 41, 0
1, 10260, Note_on_c, 0, 46, 0
1, 10260, Note_on_c, 0, 50, 0
1, 10260, Note_on_c, 0, 34, 0
1, 10320, Note_on_c, 0, 46, 34
1, 10320, Note_on_c, 0, 50, 40
1, 10320, Note_on_c, 0, 34, 26
1, 10320, Note_on_c, 0, 41, 31
1, 10500, Note_on_c, 0, 41, 0
1, 10500, Note_on_c, 0, 46, 0
1, 10500, Note_on_c, 0, 50, 0
1, 10500, Note_on_c, 0, 34, 0
1, 10560, Tempo, 370325
1, 10560, Note_on_c, 0, 46, 34
1, 10560, Note_on_c, 0, 50, 40
1, 10560, Note_on_c, 0, 34, 26
1, 10560, Note_on_c, 0, 41, 31
1, 10740, Note_on_c, 0, 41, 0
1, 10740, Note_on_c, 0, 46, 0
1, 10740, Note_on_c, 0, 50, 0
1, 10740, Note_on_c, 0, 34, 0
1, 10800, Note_on_c, 0, 46, 34
1, 10800, Note_on_c, 0, 50, 40
1, 10800, Note_on_c, 0, 34, 25
1, 10800, Note_on_c, 0, 41, 30
1, 10980, Note_on_c, 0, 41, 0
1, 10980, Note_on_c, 0, 46, 0
1, 10980, Note_on_c, 0, 50, 0
1, 10980, Note_on_c, 0, 34, 0
1, 11040, Tempo, 371517
1, 11040, Note_on_c, 0, 48, 34
1, 11040, Note_on_c, 0, 52, 40
1, 11040, Note_on_c, 0, 34, 25
1, 11040, Note_on_c, 0, 43, 30
1, 11220, Note_on_c, 0, 43, 0
1, 11220, Note_on_c, 0, 48, 0
1, 11220, Note_on_c, 0, 52, 0
1, 11220, Note_on_c, 0, 34, 0
1, 11280, Note_on_c, 0, 48, 34
1, 11280, Note_on_c, 0, 52, 40
1, 11280, Note_on_c, 0, 34, 25
1, 11280, Note_on_c, 0, 43, 30
1, 11460, Note_on_c, 0, 43, 0
1, 11460, Note_on_c, 0, 48, 0
1, 11460, Note_on_c, 0, 52, 0
1, 11460, Note_on_c, 0, 34, 0
1, 11520, Note_on_c, 0, 48, 39
1, 11520, Note_on_c, 0, 53, 46
1, 11520, Note_on_c, 0, 33, 25
1, 11520, Note_on_c, 0, 41, 30
1, 11540, Tempo, 372694
1, 11700, Note_on_c, 0, 41, 0
1, 11700, Note_on_c, 0, 33, 0
1, 11760, Note_on_c, 0, 33, 25
1, 11760, Note_on_c, 0, 41, 30
1, 11940, Note_on_c, 0, 41, 0
1, 11940, Note_on_c, 0, 33, 0
1, 12000, Note_on_c, 0, 33, 25
1, 12000, Note_on_c, 0, 41, 30
1, 12180, Note_on_c, 0, 41, 0
1, 12180, Note_on_c, 0, 33, 0
1, 12240, Note_on_c, 0, 53, 0
1, 12240, Note_on_c, 0, 48, 0
1, 12240, Note_on_c, 0, 57, 40
1, 12240, Note_on_c, 0, 33, 25
1, 12240, Note_on_c, 0, 41, 30
1, 12360, Note_on_c, 0, 57, 0
1, 12360, Note_on_c, 0, 55, 40
1, 12420, Note_on_c, 0, 41, 0
1, 12420, Note_on_c, 0, 33, 0
1, 12480, Note_on_c, 0, 55, 0
1, 12480, Note_on_c, 0, 53, 45
1, 12480, Note_on_c, 0, 33, 25
1, 12480, Note_on_c, 0, 41, 30
1, 12600, Note_on_c, 0, 53, 0
1, 12660, Note_on_c, 0, 41, 0
1, 12660, Note_on_c, 0, 33, 0
1, 12720, Note_on_c, 0, 33, 25
1, 12720, Note_on_c, 0, 41, 30
1, 12900, Note_on_c, 0, 41, 0
1, 12900, Note_on_c, 0, 33, 0
1, 12960, Note_on_c, 0, 33, 25
1, 12960, Note_on_c, 0, 41, 30
1, 13140, Note_on_c, 0, 41, 0
1, 13140, Note_on_c, 0, 33, 0
1, 13200, Tempo, 390879
1, 13200, Note_on_c, 0, 33, 25
1, 13200, Note_on_c, 0, 41, 30
1, 13380, Note_on_c, 0, 41, 0
1, 13380, Note_on_c, 0, 33, 0
1, 13380, Note_on_c, 0, 83, 46
1, 13440, Tempo, 379747
1, 13440, Note_on_c, 0, 83, 0
1, 13440, Note_on_c, 0, 84, 57
1, 13440, Note_on_c, 0, 32, 25
1, 13440, Note_on_c, 0, 41, 30
1, 13620, Note_on_c, 0, 41, 0
1, 13620, Note_on_c, 0, 32, 0
1, 13680, Note_on_c, 0, 32, 25
1, 13680, Note_on_c, 0, 41, 30
1, 13860, Note_on_c, 0, 41, 0
1, 13860, Note_on_c, 0, 32, 0
1, 13920, Note_on_c, 0, 32, 25
1, 13920, Note_on_c, 0, 41, 30
1, 14040, Note_on_c, 0, 84, 0
1, 14040, Note_on_c, 0, 82, 50
1, 14100, Note_on_c, 0, 41, 0
1, 14100, Note_on_c, 0, 32, 0
1, 14160, Note_on_c, 0, 82, 0
1, 14160, Note_on_c, 0, 80, 49
1, 14160, Note_on_c, 0, 32, 25
1, 14160, Note_on_c, 0, 41, 30
1, 14280, Note_on_c, 0, 80, 0
1, 14280, Note_on_c, 0, 79, 47
1, 14340, Note_on_c, 0, 41, 0
1, 14340, Note_on_c, 0, 32, 0
1, 14400, Note_on_c, 0, 79, 0
1, 14400, Note_on_c, 0, 77, 46
1, 14400, Note_on_c, 0, 32, 25
1, 14400, Note_on_c, 0, 41, 30
1, 14580, Note_on_c, 0, 41, 0
1, 14580, Note_on_c, 0, 32, 0
1, 14640, Note_on_c, 0, 77, 0
1, 14640, Note_on_c, 0, 32, 25
1, 14640, Note_on_c, 0, 41, 30
1, 14820, Note_on_c, 0, 41, 0
1, 14820, Note_on_c, 0, 32, 0
1, 14840, Tempo, 383803
1, 14880, Note_on_c, 0, 32, 25
1, 14880, Note_on_c, 0, 41, 30
1, 15060, Note_on_c, 0, 41, 0
1, 15060, Note_on_c, 0, 32, 0
1, 15120, Note_on_c, 0, 32, 25
1, 15120, Note_on_c, 0, 41, 30
1, 15300, Note_on_c, 0, 41, 0
1, 15300, Note_on_c, 0, 32, 0
1, 15300, Note_on_c, 0, 88, 67
1, 15360, Tempo, 373902
1, 15360, Note_on_c, 0, 88, 0
1, 15360, Note_on_c, 0, 89, 73
1, 15360, Note_on_c, 0, 31, 30
1, 15360, Note_on_c, 0, 41, 36
1, 15540, Note_on_c, 0, 41, 0
1, 15540, Note_on_c, 0, 31, 0
1, 15600, Note_on_c, 0, 31, 32
1, 15600, Note_on_c, 0, 41, 38
1, 15780, Note_on_c, 0, 41, 0
1, 15780, Note_on_c, 0, 31, 0
1, 15840, Tempo, 371517
1, 15840, Note_on_c, 0, 31, 33
1, 15840, Note_on_c, 0, 41, 39
1, 16020, Note_on_c, 0, 41, 0
1, 16020, Note_on_c, 0, 31, 0
1, 16080, Note_on_c, 0, 31, 34
1, 16080, Note_on_c, 0, 41, 41
1, 16260, Note_on_c, 0, 41, 0
1, 16260, Note_on_c, 0, 31, 0
1, 16320, Tempo, 375117
1, 16320, Note_on_c, 0, 31, 36
1, 16320, Note_on_c, 0, 41, 43
1, 16500, Note_on_c, 0, 41, 0
1, 16500, Note_on_c, 0, 31, 0
1, 16560, Note_on_c, 0, 31, 38
1, 16560, Note_on_c, 0, 41, 45
1, 16740, Note_on_c, 0, 41, 0
1, 16740, Note_on_c, 0, 31, 0
1, 16800, Note_on_c, 0, 89, 0
1, 16800, Note_on_c, 0, 89, 74
1, 16800, Note_on_c, 0, 32, 39
1, 16800, Note_on_c, 0, 41, 46
1, 16920, Note_on_c, 0, 89, 0
1, 16920, Note_on_c, 0, 87, 73
1, 16980, Note_on_c, 0, 41, 0
1, 16980, Note_on_c, 0, 32, 0
1, 17040, Note_on_c, 0, 87, 0
1, 17040, Note_on_c, 0, 86, 71
1, 17040, Note_on_c, 0, 32, 40
1, 17040, Note_on_c, 0, 41, 48
1, 17160, Note_on_c, 0, 86, 0
1, 17160, Note_on_c, 0, 84, 70
1, 17220, Note_on_c, 0, 41, 0
1, 17220, Note_on_c, 0, 32, 0
1, 17280, Tempo, 373902
1, 17280, Note_on_c, 0, 84, 0
1, 17280, Note_on_c, 0, 83, 72
1, 17280, Note_on_c, 0, 31, 44
1, 17280, Note_on_c, 0, 41, 52
1, 17400, Note_on_c, 0, 83, 0
1, 17400, Note_on_c, 0, 84, 71
1, 17460, Note_on_c, 0, 41, 0
1, 17460, Note_on_c, 0, 31, 0
1, 17520, Note_on_c, 0, 84, 0
1, 17520, Note_on_c, 0, 86, 72
1, 17520, Note_on_c, 0, 31, 44
1, 17520, Note_on_c, 0, 41, 52
1, 17640, Note_on_c, 0, 86, 0
1, 17640, Note_on_c, 0, 87, 73
1, 17700, Note_on_c, 0, 41, 0
1, 17700, Note_on_c, 0, 31, 0
1, 17760, Tempo, 377572
1, 17760, Note_on_c, 0, 87, 0
1, 17760, Note_on_c, 0, 89, 74
1, 17760, Note_on_c, 0, 32, 45
1, 17760, Note_on_c, 0, 41, 55
1, 17880, Note_on_c, 0, 89, 0
1, 17880, Note_on_c, 0, 87, 72
1, 17940, Note_on_c, 0, 41, 0
1, 17940, Note_on_c, 0, 32, 0
1, 18000, Note_on_c, 0, 87, 0
1, 18000, Note_on_c, 0, 86, 71
1, 18000, Note_on_c, 0, 32, 46
1, 18000, Note_on_c, 0, 41, 55
1, 18120, Note_on_c, 0, 86, 0
1, 18120, Note_on_c, 0, 84, 69
1, 18180, Note_on_c, 0, 41, 0
1, 18180, Note_on_c, 0, 32, 0
1, 18240, Tempo, 373902
1, 18240, Note_on_c, 0, 84, 0
1, 18240, Note_on_c, 0, 83, 72
1, 18240, Note_on_c, 0, 31, 48
1, 18240, Note_on_c, 0, 41, 58
1, 18360, Note_on_c, 0, 83, 0
1, 18360, Note_on_c, 0, 84, 75
1, 18420, Note_on_c, 0, 41, 0
1, 18420, Note_on_c, 0, 31, 0
1, 18480, Note_on_c, 0, 84, 0
1, 18480, Note_on_c, 0, 86, 77
1, 18480, Note_on_c, 0, 31, 51
1, 18480, Note_on_c, 0, 41, 60
1, 18600, Note_on_c, 0, 86, 0
1, 18600, Note_on_c, 0, 87, 80
1, 18660, Note_on_c, 0, 41, 0
1, 18660, Note_on_c, 0, 31, 0
1, 18720, Note_on_c, 0, 87, 0
1, 18720, Note_on_c, 0, 89, 80
1, 18720, Note_on_c, 0, 32, 54
1, 18720, Note_on_c, 0, 41, 64
1, 18840, Note_on_c, 0, 89, 0
1, 18840, Note_on_c, 0, 87, 80
1, 18900, Note_on_c, 0, 41, 0
1, 18900, Note_on_c, 0, 32, 0
1, 18960, Note_on_c, 0, 87, 0
1, 18960, Note_on_c, 0, 86, 79
1, 18960, Note_on_c, 0, 32, 56
1, 18960, Note_on_c, 0, 41, 66
1, 19080, Note_on_c, 0, 86, 0
1, 19080, Note_on_c, 0, 84, 81
1, 19140, Note_on_c, 0, 41, 0
1, 19140, Note_on_c, 0, 32, 0
1, 19200, Tempo, 375117
1, 19200, Note_on_c, 0, 84, 0
1, 19200, Note_on_c, 0, 83, 85
1, 19200, Note_on_c, 0, 31, 70
1, 19200, Note_on_c, 0, 41, 85
1, 19240, Tempo, 376341
1, 19280, Tempo, 378788
1, 19320, Tempo, 380035
1, 19320, Note_on_c, 0, 83, 0
1, 19320, Note_on_c, 0, 84, 89
1, 19360, Tempo, 382555
1, 19400, Tempo, 383803
1, 19440, Tempo, 386374
1, 19440, Note_on_c, 0, 84, 0
1, 19440, Note_on_c, 0, 86, 94
1, 19480, Tempo, 390269
1, 19520, Tempo, 399707
1, 19560, Tempo, 409584
1, 19560, Note_on_c, 0, 86, 0
1, 19560, Note_on_c, 0, 87, 98
1, 19600, Tempo, 419962
1, 19640, Tempo, 430911
1, 19680, Tempo, 373902
1, 19680, Note_on_c, 0, 87, 0
1, 19680, Note_on_c, 0, 41, 0
1, 19680, Note_on_c, 0, 31, 0
1, 19680, Note_on_c, 0, 89, 100
1, 19680, Note_on_c, 0, 43, 81
1, 19680, Note_on_c, 0, 55, 96
1, 19800, Note_on_c, 0, 89, 0
1, 19800, Note_on_c, 0, 87, 98
1, 19920, Note_on_c, 0, 87, 0
1, 19920, Note_on_c, 0, 86, 96
1, 20040, Note_on_c, 0, 86, 0
1, 20040, Note_on_c, 0, 84, 94
1, 20160, Note_on_c, 0, 84, 0
1, 20160, Note_on_c, 0, 83, 93
1, 20280, Note_on_c, 0, 83, 0
1, 20280, Note_on_c, 0, 80, 91
1, 20400, Note_on_c, 0, 80, 0
1, 20400, Note_on_c, 0, 79, 89
1, 20520, Note_on_c, 0, 79, 0
1, 20520, Note_on_c, 0, 77, 87
1, 20640, Tempo, 380035
1, 20640, Note_on_c, 0, 77, 0
1, 20640, Note_on_c, 0, 75, 85
1, 20760, Note_on_c, 0, 75, 0
1, 20760, Note_on_c, 0, 74, 83
1, 20880, Note_on_c, 0, 74, 0
1, 20880, Note_on_c, 0, 55, 0
1, 20880, Note_on_c, 0, 43, 0
1, 20880, Note_on_c, 0, 72, 81
1, 20880, Note_on_c, 0, 57, 67
1, 21000, Note_on_c, 0, 57, 0
1, 21000, Note_on_c, 0, 72, 0
1, 21000, Note_on_c, 0, 71, 79
1, 21000, Note_on_c, 0, 59, 70
1, 21120, Tempo, 397351
1, 21120, Note_on_c, 0, 59, 0
1, 21120, Note_on_c, 0, 71, 0
1, 21120, Note_on_c, 0, 72, 93
1, 21120, Note_on_c, 0, 60, 72
1, 21300, Note_on_c, 0, 60, 0
1, 21300, Note_on_c, 0, 72, 0
1, 21600, Tempo, 436364
1, 21600, Note_on_c, 0, 67, 83
1, 21600, Note_on_c, 0, 43, 56
1, 21600, Note_on_c, 0, 55, 66
1, 21780, Note_on_c, 0, 55, 0
1, 21780, Note_on_c, 0, 43, 0
1, 21780, Note_on_c, 0, 67, 0
1, 22080, Tempo, 458015
1, 22080, Note_on_c, 0, 63, 72
1, 22080, Note_on_c, 0, 39, 52
1, 22080, Note_on_c, 0, 51, 62
1, 22260, Note_on_c, 0, 51, 0
1, 22260, Note_on_c, 0, 39, 0
1, 22260, Note_on_c, 0, 63, 0
1, 22560, Tempo, 576923
1, 22560, Note_on_c, 0, 60, 64
1, 22560, Note_on_c, 0, 36, 48
1, 22560, Note_on_c, 0, 48, 57
1, 22740, Note_on_c, 0, 48, 0
1, 22740, Note_on_c, 0, 36, 0
1, 22740, Note_on_c, 0, 60, 0
1, 23040, Tempo, 445831
1, 23040, Note_on_c, 0, 55, 60
1, 23040, Note_on_c, 0, 31, 46
1, 23040, Note_on_c, 0, 43, 54
1, 24960, Tempo, 373902
1, 24960, Note_on_c, 0, 43, 0
1, 24960, Note_on_c, 0, 31, 0
1, 24960, Note_on_c, 0, 55, 0
1, 24960, Note_on_c, 0, 64, 37
1, 24960, Note_on_c, 0, 36, 30
1, 24960, Note_on_c, 0, 48, 30
1, 25079, Note_on_c, 0, 64, 0
1, 25080, Note_on_c, 0, 60, 33
1, 25200, Note_on_c, 0, 60, 0
1, 25200, Note_on_c, 0, 48, 0
1, 25200, Note_on_c, 0, 64, 37
1, 25200, Note_on_c, 0, 48, 31
1, 25253, Control_c, 0, 64, 127
1, 25319, Note_on_c, 0, 48, 0
1, 25319, Note_on_c, 0, 64, 0
1, 25320, Note_on_c, 0, 60, 33
1, 25320, Note_on_c, 0, 55, 26
1, 25440, Tempo, 371517
1, 25440, Note_on_c, 0, 55, 0
1, 25440, Note_on_c, 0, 60, 0
1, 25440, Note_on_c, 0, 64, 37
1, 25440, Note_on_c, 0, 48, 31
1, 25559, Note_on_c, 0, 48, 0
1, 25559, Note_on_c, 0, 64, 0
1, 25560, Note_on_c, 0, 60, 33
1, 25560, Note_on_c, 0, 55, 27
1, 25680, Note_on_c, 0, 55, 0
1, 25680, Note_on_c, 0, 60, 0
1, 25680, Note_on_c, 0, 64, 36
1, 25680, Note_on_c, 0, 48, 31
1, 25799, Note_on_c, 0, 48, 0
1, 25799, Note_on_c, 0, 64, 0
1, 25800, Note_on_c, 0, 60, 33
1, 25800, Note_on_c, 0, 55, 27
1, 25920, Note_on_c, 0, 55, 0
1, 25920, Note_on_c, 0, 60, 0
1, 25920, Note_on_c, 0, 64, 36
1, 25920, Note_on_c, 0, 48, 31
1, 26039, Note_on_c, 0, 48, 0
1, 26039, Note_on_c, 0, 64, 0
1, 26040, Note_on_c, 0, 60, 33
1, 26040, Note_on_c, 0, 55, 26
1, 26160, Note_on_c, 0, 55, 0
1, 26160, Note_on_c, 0, 60, 0
1, 26160, Note_on_c, 0, 64, 37
1, 26160, Note_on_c, 0, 48, 31
1, 26279, Note_on_c, 0, 48, 0
1, 26279, Note_on_c, 0, 64, 0
1, 26280, Note_on_c, 0, 60, 33
1, 26280, Note_on_c, 0, 55, 27
1, 26400, Tempo, 373902
1, 26400, Note_on_c, 0, 55, 0
1, 26400, Note_on_c, 0, 60, 0
1, 26400, Note_on_c, 0, 64, 36
1, 26400, Note_on_c, 0, 48, 31
1, 26519, Note_on_c, 0, 48, 0
1, 26519, Note_on_c, 0, 64, 0
1, 26520, Note_on_c, 0, 60, 33
1, 26520, Note_on_c, 0, 55, 27
1, 26640, Note_on_c, 0, 55, 0
1, 26640, Note_on_c, 0, 60, 0
1, 26640, Note_on_c, 0, 64, 36
1, 26640, Note_on_c, 0, 48, 31
1, 26759, Note_on_c, 0, 48, 0
1, 26759, Note_on_c, 0, 64, 0
1, 26760, Note_on_c, 0, 60, 33
1, 26760, Note_on_c, 0, 55, 25
1, 26880, Note_on_c, 0, 55, 0
1, 26880, Note_on_c, 0, 60, 0
1, 26880, Note_on_c, 0, 36, 0
1, 26880, Note_on_c, 0, 64, 37
1, 26880, Note_on_c, 0, 48, 31
1, 26900, Tempo, 373902
1, 26999, Note_on_c, 0, 48, 0
1, 26999, Note_on_c, 0, 64, 0
1, 27000, Note_on_c, 0, 60, 33
1, 27000, Note_on_c, 0, 55, 26
1, 27120, Note_on_c, 0, 55, 0
1, 27120, Note_on_c, 0, 60, 0
1, 27120, Note_on_c, 0, 64, 37
1, 27120, Note_on_c, 0, 48, 31
1, 27239, Note_on_c, 0, 48, 0
1, 27239, Note_on_c, 0, 64, 0
1, 27240, Note_on_c, 0, 60, 33
1, 27240, Note_on_c, 0, 55, 26
1, 27360, Tempo, 370325
1, 27360, Note_on_c, 0, 55, 0
1, 27360, Note_on_c, 0, 60, 0
1, 27360, Note_on_c, 0, 64, 37
1, 27360, Note_on_c, 0, 48, 31
1, 27479, Note_on_c, 0, 48, 0
1, 27479, Note_on_c, 0, 64, 0
1, 27480, Note_on_c, 0, 60, 33
1, 27480, Note_on_c, 0, 55, 27
1, 27600, Note_on_c, 0, 55, 0
1, 27600, Note_on_c, 0, 60, 0
1, 27600, Note_on_c, 0, 64, 36
1, 27600, Note_on_c, 0, 48, 31
1, 27719, Note_on_c, 0, 48, 0
1, 27719, Note_on_c, 0, 64, 0
1, 27720, Note_on_c, 0, 60, 33
1, 27720, Note_on_c, 0, 55, 27
1, 27840, Note_on_c, 0, 55, 0
1, 27840, Note_on_c, 0, 60, 0
1, 27840, Note_on_c, 0, 64, 36
1, 27840, Note_on_c, 0, 48, 31
1, 27959, Note_on_c, 0, 48, 0
1, 27959, Note_on_c, 0, 64, 0
1, 27960, Note_on_c, 0, 60, 33
1, 27960, Note_on_c, 0, 55, 26
1, 28080, Note_on_c, 0, 55, 0
1, 28080, Note_on_c, 0, 60, 0
1, 28080, Note_on_c, 0, 64, 37
1, 28080, Note_on_c, 0, 48, 31
1, 28199, Note_on_c, 0, 48, 0
1, 28199, Note_on_c, 0, 64, 0
1, 28200, Note_on_c, 0, 60, 33
1, 28200, Note_on_c, 0, 55, 27
1, 28204, Control_c, 0, 64, 0
1, 28257, Control_c, 0, 64, 127
1, 28320, Note_on_c, 0, 55, 0
1, 28320, Note_on_c, 0, 60, 0
1, 28320, Note_on_c, 0, 66, 36
1, 28320, Note_on_c, 0, 48, 31
1, 28340, Tempo, 373902
1, 28439, Note_on_c, 0, 48, 0
1, 28439, Note_on_c, 0, 66, 0
1, 28440, Note_on_c, 0, 62, 33
1, 28440, Note_on_c, 0, 57, 27
1, 28560, Note_on_c, 0, 57, 0
1, 28560, Note_on_c, 0, 62, 0
1, 28560, Note_on_c, 0, 66, 36
1, 28560, Note_on_c, 0, 48, 31
1, 28679, Note_on_c, 0, 48, 0
1, 28679, Note_on_c, 0, 66, 0
1, 28680, Note_on_c, 0, 62, 33
1, 28680, Note_on_c, 0, 57, 25
1, 28800, Tempo, 373902
1, 28800, Note_on_c, 0, 57, 0
1, 28800, Note_on_c, 0, 62, 0
1, 28800, Note_on_c, 0, 67, 46
1, 28800, Note_on_c, 0, 47, 26
1, 28800, Note_on_c, 0, 50, 31
1, 28800, Control_c, 0, 64, 0
1, 28920, Note_on_c, 0, 55, 25
1, 28980, Note_on_c, 0, 50, 0
1, 28980, Note_on_c, 0, 47, 0
1, 29040, Note_on_c, 0, 55, 0
1, 29040, Note_on_c, 0, 47, 26
1, 29040, Note_on_c, 0, 50, 31
1, 29160, Note_on_c, 0, 55, 25
1, 29220, Note_on_c, 0, 50, 0
1, 29220, Note_on_c, 0, 47, 0
1, 29280, Note_on_c, 0, 55, 0
1, 29280, Note_on_c, 0, 47, 26
1, 29280, Note_on_c, 0, 50, 31
1, 29400, Note_on_c, 0, 55, 25
1, 29460, Note_on_c, 0, 50, 0
1, 29460, Note_on_c, 0, 47, 0
1, 29520, Note_on_c, 0, 67, 0
1, 29520, Note_on_c, 0, 55, 0
1, 29520, Note_on_c, 0, 71, 40
1, 29520, Note_on_c, 0, 47, 26
1, 29520, Note_on_c, 0, 50, 31
1, 29640, Note_on_c, 0, 71, 0
1, 29640, Note_on_c, 0, 69, 40
1, 29640, Note_on_c, 0, 55, 25
1, 29700, Note_on_c, 0, 50, 0
1, 29700, Note_on_c, 0, 47, 0
1, 29760, Note_on_c, 0, 69, 0
1, 29760, Note_on_c, 0, 55, 0
1, 29760, Note_on_c, 0, 67, 45
1, 29760, Note_on_c, 0, 47, 26
1, 29760, Note_on_c, 0, 50, 31
1, 29880, Note_on_c, 0, 67, 0
1, 29880, Note_on_c, 0, 55, 25
1, 29940, Note_on_c, 0, 50, 0
1, 29940, Note_on_c, 0, 47, 0
1, 30000, Note_on_c, 0, 55, 0
1, 30000, Note_on_c, 0, 47, 26
1, 30000, Note_on_c, 0, 50, 31
1, 30120, Note_on_c, 0, 55, 25
1, 30180, Note_on_c, 0, 50, 0
1, 30180, Note_on_c, 0, 47, 0
1, 30240, Note_on_c, 0, 55, 0
1, 30240, Note_on_c, 0, 47, 26
1, 30240, Note_on_c, 0, 50, 31
1, 30360, Note_on_c, 0, 55, 25
1, 30420, Note_on_c, 0, 50, 0
1, 30420, Note_on_c, 0, 47, 0
1, 30480, Tempo, 387097
1, 30480, Note_on_c, 0, 55, 0
1, 30480, Note_on_c, 0, 47, 26
1, 30480, Note_on_c, 0, 50, 31
1, 30600, Note_on_c, 0, 55, 25
1, 30660, Note_on_c, 0, 50, 0
1, 30660, Note_on_c, 0, 47, 0
1, 30660, Note_on_c, 0, 85, 46
1, 30720, Tempo, 378549
1, 30720, Note_on_c, 0, 85, 0
1, 30720, Note_on_c, 0, 55, 0
1, 30720, Note_on_c, 0, 86, 57
1, 30720, Note_on_c, 0, 47, 26
1, 30720, Note_on_c, 0, 50, 31
1, 30840, Note_on_c, 0, 55, 25
1, 30900, Note_on_c, 0, 50, 0
1, 30900, Note_on_c, 0, 47, 0
1, 30960, Note_on_c, 0, 55, 0
1, 30960, Note_on_c, 0, 47, 26
1, 30960, Note_on_c, 0, 50, 31
1, 31080, Note_on_c, 0, 55, 25
1, 31140, Note_on_c, 0, 50, 0
1, 31140, Note_on_c, 0, 47, 0
1, 31200, Note_on_c, 0, 55, 0
1, 31200, Note_on_c, 0, 47, 26
1, 31200, Note_on_c, 0, 50, 31
1, 31320, Note_on_c, 0, 86, 0
1, 31320, Note_on_c, 0, 84, 48
1, 31320, Note_on_c, 0, 55, 25
1, 31380, Note_on_c, 0, 50, 0
1, 31380, Note_on_c, 0, 47, 0
1, 31440, Note_on_c, 0, 84, 0
1, 31440, Note_on_c, 0, 55, 0
1, 31440, Note_on_c, 0, 83, 47
1, 31440, Note_on_c, 0, 47, 26
1, 31440, Note_on_c, 0, 50, 31
1, 31560, Note_on_c, 0, 83, 0
1, 31560, Note_on_c, 0, 81, 45
1, 31560, Note_on_c, 0, 55, 25
1, 31620, Note_on_c, 0, 50, 0
1, 31620, Note_on_c, 0, 47, 0
1, 31680, Note_on_c, 0, 81, 0
1, 31680, Note_on_c, 0, 55, 0
1, 31680, Note_on_c, 0, 79, 44
1, 31680, Note_on_c, 0, 47, 26
1, 31680, Note_on_c, 0, 50, 31
1, 31800, Note_on_c, 0, 55, 25
1, 31860, Note_on_c, 0, 50, 0
1, 31860, Note_on_c, 0, 47, 0
1, 31920, Note_on_c, 0, 79, 0
1, 31920, Note_on_c, 0, 55, 0
1, 31920, Note_on_c, 0, 47, 26
1, 31920, Note_on_c, 0, 50, 31
1, 32040, Note_on_c, 0, 55, 25
1, 32100, Note_on_c, 0, 50, 0
1, 32100, Note_on_c, 0, 47, 0
1, 32160, Note_on_c, 0, 55, 0
1, 32160, Note_on_c, 0, 47, 26
1, 32160, Note_on_c, 0, 50, 31
1, 32280, Note_on_c, 0, 55, 25
1, 32340, Note_on_c, 0, 50, 0
1, 32340, Note_on_c, 0, 47, 0
1, 32400, Tempo, 385084
1, 32400, Note_on_c, 0, 55, 0
1, 32400, Note_on_c, 0, 47, 26
1, 32400, Note_on_c, 0, 50, 31
1, 32520, Note_on_c, 0, 55, 25
1, 32580, Note_on_c, 0, 50, 0
1, 32580, Note_on_c, 0, 47, 0
1, 32640, Tempo, 373902
1, 32640, Note_on_c, 0, 55, 0
1, 32640, Note_on_c, 0, 65, 40
1, 32640, Note_on_c, 0, 38, 33
1, 32640, Note_on_c, 0, 50, 33
1, 32693, Control_c, 0, 64, 127
1, 32759, Note_on_c, 0, 65, 0
1, 32760, Note_on_c, 0, 62, 36
1, 32880, Note_on_c, 0, 62, 0
1, 32880, Note_on_c, 0, 50, 0
1, 32880, Note_on_c, 0, 65, 40
1, 32880, Note_on_c, 0, 50, 34
1, 32999, Note_on_c, 0, 50, 0
1, 32999, Note_on_c, 0, 65, 0
1, 33000, Note_on_c, 0, 62, 36
1, 33000, Note_on_c, 0, 57, 28
1, 33120, Tempo, 370325
1, 33120, Note_on_c, 0, 57, 0
1, 33120, Note_on_c, 0, 62, 0
1, 33120, Note_on_c, 0, 65, 40
1, 33120, Note_on_c, 0, 50, 34
1, 33239, Note_on_c, 0, 50, 0
1, 33239, Note_on_c, 0, 65, 0
1, 33240, Note_on_c, 0, 62, 36
1, 33240, Note_on_c, 0, 57, 29
1, 33360, Note_on_c, 0, 57, 0
1, 33360, Note_on_c, 0, 62, 0
1, 33360, Note_on_c, 0, 65, 39
1, 33360, Note_on_c, 0, 50, 34
1, 33479, Note_on_c, 0, 50, 0
1, 33479, Note_on_c, 0, 65, 0
1, 33480, Note_on_c, 0, 62, 36
1, 33480, Note_on_c, 0, 57, 29
1, 33600, Note_on_c, 0, 57, 0
1, 33600, Note_on_c, 0, 62, 0
1, 33600, Note_on_c, 0, 65, 39
1, 33600, Note_on_c, 0, 50, 34
1, 33719, Note_on_c, 0, 50, 0
1, 33719, Note_on_c, 0, 65, 0
1, 33720, Note_on_c, 0, 62, 36
1, 33720, Note_on_c, 0, 57, 28
1, 33840, Note_on_c, 0, 57, 0
1, 33840, Note_on_c, 0, 62, 0
1, 33840, Note_on_c, 0, 65, 41
1, 33840, Note_on_c, 0, 50, 34
1, 33959, Note_on_c, 0, 50, 0
1, 33959, Note_on_c, 0, 65, 0
1, 33960, Note_on_c, 0, 62, 36
1, 33960, Note_on_c, 0, 57, 29
1, 34080, Tempo, 376341
1, 34080, Note_on_c, 0, 57, 0
1, 34080, Note_on_c, 0, 62, 0
1, 34080, Note_on_c, 0, 65, 40
1, 34080, Note_on_c, 0, 50, 34
1, 34199, Note_on_c, 0, 50, 0
1, 34199, Note_on_c, 0, 65, 0
1, 34200, Note_on_c, 0, 62, 37
1, 34200, Note_on_c, 0, 57, 30
1, 34320, Note_on_c, 0, 57, 0
1, 34320, Note_on_c, 0, 62, 0
1, 34320, Note_on_c, 0, 65, 40
1, 34320, Note_on_c, 0, 50, 35
1, 34439, Note_on_c, 0, 50, 0
1, 34439, Note_on_c, 0, 65, 0
1, 34440, Note_on_c, 0, 62, 37
1, 34440, Note_on_c, 0, 57, 28
1, 34560, Tempo, 373902
1, 34560, Note_on_c, 0, 57, 0
1, 34560, Note_on_c, 0, 62, 0
1, 34560, Note_on_c, 0, 38, 0
1, 34560, Note_on_c, 0, 65, 41
1, 34560, Note_on_c, 0, 50, 35
1, 34679, Note_on_c, 0, 50, 0
1, 34679, Note_on_c, 0, 65, 0
1, 34680, Note_on_c, 0, 62, 37
1, 34680, Note_on_c, 0, 57, 29
1, 34800, Note_on_c, 0, 57, 0
1, 34800, Note_on_c, 0, 62, 0
1, 34800, Note_on_c, 0, 65, 41
1, 34800, Note_on_c, 0, 50, 35
1, 34919, Note_on_c, 0, 50, 0
1, 34919, Note_on_c, 0, 65, 0
1, 34920, Note_on_c, 0, 62, 37
1, 34920, Note_on_c, 0, 57, 29
1, 35040, Tempo, 371517
1, 35040, Note_on_c, 0, 57, 0
1, 35040, Note_on_c, 0, 62, 0
1, 35040, Note_on_c, 0, 65, 42
1, 35040, Note_on_c, 0, 50, 35
1, 35159, Note_on_c, 0, 50, 0
1, 35159, Note_on_c, 0, 65, 0
1, 35160, Note_on_c, 0, 62, 37
1, 35160, Note_on_c, 0, 57, 30
1, 35280, Note_on_c, 0, 57, 0
1, 35280, Note_on_c, 0, 62, 0
1, 35280, Note_on_c, 0, 65, 41
1, 35280, Note_on_c, 0, 50, 35
1, 35399, Note_on_c, 0, 50, 0
1, 35399, Note_on_c, 0, 65, 0
1, 35400, Note_on_c, 0, 62, 38
1, 35400, Note_on_c, 0, 57, 30
1, 35520, Note_on_c, 0, 57, 0
1, 35520, Note_on_c, 0, 62, 0
1, 35520, Note_on_c, 0, 65, 41
1, 35520, Note_on_c, 0, 50, 36
1, 35540, Tempo, 376341
1, 35639, Note_on_c, 0, 50, 0
1, 35639, Note_on_c, 0, 65, 0
1, 35640, Note_on_c, 0, 62, 38
1, 35640, Note_on_c, 0, 57, 29
1, 35760, Note_on_c, 0, 57, 0
1, 35760, Note_on_c, 0, 62, 0
1, 35760, Note_on_c, 0, 65, 42
1, 35760, Note_on_c, 0, 50, 36
1, 35879, Note_on_c, 0, 50, 0
1, 35879, Note_on_c, 0, 65, 0
1, 35880, Note_on_c, 0, 62, 38
1, 35880, Note_on_c, 0, 57, 31
1, 36000, Note_on_c, 0, 57, 0
1, 36000, Note_on_c, 0, 62, 0
1, 36000, Note_on_c, 0, 68, 41
1, 36000, Note_on_c, 0, 50, 36
1, 36011, Control_c, 0, 64, 0
1, 36067, Control_c, 0, 64, 127
1, 36119, Note_on_c, 0, 50, 0
1, 36119, Note_on_c, 0, 68, 0
1, 36120, Note_on_c, 0, 64, 38
1, 36120, Note_on_c, 0, 59, 31
1, 36240, Note_on_c, 0, 59, 0
1, 36240, Note_on_c, 0, 64, 0
1, 36240, Note_on_c, 0, 68, 42
1, 36240, Note_on_c, 0, 50, 36
1, 36359, Note_on_c, 0, 50, 0
1, 36359, Note_on_c, 0, 68, 0
1, 36360, Note_on_c, 0, 64, 38
1, 36360, Note_on_c, 0, 59, 29
1, 36480, Tempo, 373902
1, 36480, Note_on_c, 0, 59, 0
1, 36480, Note_on_c, 0, 64, 0
1, 36480, Note_on_c, 0, 69, 55
1, 36480, Note_on_c, 0, 48, 30
1, 36480, Note_on_c, 0, 52, 37
1, 36492, Control_c, 0, 64, 0
1, 36600, Note_on_c, 0, 57, 29
1, 36660, Note_on_c, 0, 52, 0
1, 36660, Note_on_c, 0, 48, 0
1, 36720, Note_on_c, 0, 57, 0
1, 36720, Note_on_c, 0, 48, 30
1, 36720, Note_on_c, 0, 52, 37
1, 36840, Note_on_c, 0, 57, 29
1, 36900, Note_on_c, 0, 52, 0
1, 36900, Note_on_c, 0, 48, 0
1, 36960, Note_on_c, 0, 57, 0
1, 36960, Note_on_c, 0, 48, 30
1, 36960, Note_on_c, 0, 52, 37
1, 37080, Note_on_c, 0, 57, 29
1, 37140, Note_on_c, 0, 52, 0
1, 37140, Note_on_c, 0, 48, 0
1, 37200, Note_on_c, 0, 69, 0
1, 37200, Note_on_c, 0, 57, 0
1, 37200, Note_on_c, 0, 72, 48
1, 37200, Note_on_c, 0, 48, 30
1, 37200, Note_on_c, 0, 52, 37
1, 37320, Note_on_c, 0, 72, 0
1, 37320, Note_on_c, 0, 71, 48
1, 37320, Note_on_c, 0, 57, 29
1, 37380, Note_on_c, 0, 52, 0
1, 37380, Note_on_c, 0, 48, 0
1, 37440, Note_on_c, 0, 71, 0
1, 37440, Note_on_c, 0, 57, 0
1, 37440, Note_on_c, 0, 69, 53
1, 37440, Note_on_c, 0, 48, 30
1, 37440, Note_on_c, 0, 52, 37
1, 37560, Note_on_c, 0, 69, 0
1, 37560, Note_on_c, 0, 57, 29
1, 37620, Note_on_c, 0, 52, 0
1, 37620, Note_on_c, 0, 48, 0
1, 37680, Note_on_c, 0, 57, 0
1, 37680, Note_on_c, 0, 48, 30
1, 37680, Note_on_c, 0, 52, 37
1, 37800, Note_on_c, 0, 57, 29
1, 37860, Note_on_c, 0, 52, 0
1, 37860, Note_on_c, 0, 48, 0
1, 37920, Note_on_c, 0, 57, 0
1, 37920, Note_on_c, 0, 48, 30
1, 37920, Note_on_c, 0, 52, 37
1, 38040, Note_on_c, 0, 57, 29
1, 38100, Note_on_c, 0, 52, 0
1, 38100, Note_on_c, 0, 48, 0
1, 38160, Tempo, 388350
1, 38160, Note_on_c, 0, 57, 0
1, 38160, Note_on_c, 0, 48, 30
1, 38160, Note_on_c, 0, 52, 37
1, 38280, Note_on_c, 0, 57, 29
1, 38340, Note_on_c, 0, 52, 0
1, 38340, Note_on_c, 0, 48, 0
1, 38340, Note_on_c, 0, 87, 55
1, 38400, Tempo, 378549
1, 38400, Note_on_c, 0, 87, 0
1, 38400, Note_on_c, 0, 57, 0
1, 38400, Note_on_c, 0, 88, 68
1, 38400, Note_on_c, 0, 48, 30
1, 38400, Note_on_c, 0, 52, 37
1, 38520, Note_on_c, 0, 57, 29
1, 38580, Note_on_c, 0, 52, 0
1, 38580, Note_on_c, 0, 48, 0
1, 38640, Note_on_c, 0, 57, 0
1, 38640, Note_on_c, 0, 48, 30
1, 38640, Note_on_c, 0, 52, 37
1, 38760, Note_on_c, 0, 57, 29
1, 38820, Note_on_c, 0, 52, 0
1, 38820, Note_on_c, 0, 48, 0
1, 38880, Note_on_c, 0, 57, 0
1, 38880, Note_on_c, 0, 48, 30
1, 38880, Note_on_c, 0, 52, 37
1, 39000, Note_on_c, 0, 88, 0
1, 39000, Note_on_c, 0, 86, 59
1, 39000, Note_on_c, 0, 57, 29
1, 39060, Note_on_c, 0, 52, 0
1, 39060, Note_on_c, 0, 48, 0
1, 39120, Note_on_c, 0, 86, 0
1, 39120, Note_on_c, 0, 57, 0
1, 39120, Note_on_c, 0, 84, 58
1, 39120, Note_on_c, 0, 48, 30
1, 39120, Note_on_c, 0, 52, 39
1, 39240, Note_on_c, 0, 84, 0
1, 39240, Note_on_c, 0, 83, 57
1, 39240, Note_on_c, 0, 57, 31
1, 39300, Note_on_c, 0, 52, 0
1, 39300, Note_on_c, 0, 48, 0
1, 39360, Note_on_c, 0, 83, 0
1, 39360, Note_on_c, 0, 57, 0
1, 39360, Note_on_c, 0, 81, 57
1, 39360, Note_on_c, 0, 48, 32
1, 39360, Note_on_c, 0, 52, 39
1, 39480, Note_on_c, 0, 57, 31
1, 39540, Note_on_c, 0, 52, 0
1, 39540, Note_on_c, 0, 48, 0
1, 39600, Note_on_c, 0, 81, 0
1, 39600, Note_on_c, 0, 57, 0
1, 39600, Note_on_c, 0, 48, 32
1, 39600, Note_on_c, 0, 52, 41
1, 39720, Note_on_c, 0, 57, 31
1, 39780, Note_on_c, 0, 52, 0
1, 39780, Note_on_c, 0, 48, 0
1, 39840, Note_on_c, 0, 57, 0
1, 39840, Note_on_c, 0, 48, 33
1, 39840, Note_on_c, 0, 52, 41
1, 39960, Note_on_c, 0, 57, 33
1, 40020, Note_on_c, 0, 52, 0
1, 40020, Note_on_c, 0, 48, 0
1, 40080, Tempo, 385084
1, 40080, Note_on_c, 0, 57, 0
1, 40080, Note_on_c, 0, 48, 35
1, 40080, Note_on_c, 0, 52, 42
1, 40200, Note_on_c, 0, 57, 33
1, 40260, Note_on_c, 0, 52, 0
1, 40260, Note_on_c, 0, 48, 0
1, 40260, Note_on_c, 0, 87, 66
1, 40320, Tempo, 379747
1, 40320, Note_on_c, 0, 87, 0
1, 40320, Note_on_c, 0, 57, 0
1, 40320, Note_on_c, 0, 88, 85
1, 40320, Note_on_c, 0, 48, 37
1, 40320, Note_on_c, 0, 52, 45
1, 40440, Note_on_c, 0, 58, 36
1, 40500, Note_on_c, 0, 52, 0
1, 40500, Note_on_c, 0, 48, 0
1, 40560, Note_on_c, 0, 58, 0
1, 40560, Note_on_c, 0, 48, 38
1, 40560, Note_on_c, 0, 52, 45
1, 40680, Note_on_c, 0, 58, 37
1, 40740, Note_on_c, 0, 52, 0
1, 40740, Note_on_c, 0, 48, 0
1, 40800, Note_on_c, 0, 58, 0
1, 40800, Note_on_c, 0, 48, 39
1, 40800, Note_on_c, 0, 52, 47
1, 40920, Note_on_c, 0, 88, 0
1, 40920, Note_on_c, 0, 86, 76
1, 40920, Note_on_c, 0, 58, 38
1, 40980, Note_on_c, 0, 52, 0
1, 40980, Note_on_c, 0, 48, 0
1, 41040, Note_on_c, 0, 86, 0
1, 41040, Note_on_c, 0, 58, 0
1, 41040, Note_on_c, 0, 84, 75
1, 41040, Note_on_c, 0, 48, 39
1, 41040, Note_on_c, 0, 52, 47
1, 41160, Note_on_c, 0, 84, 0
1, 41160, Note_on_c, 0, 83, 71
1, 41160, Note_on_c, 0, 58, 38
1, 41220, Note_on_c, 0, 52, 0
1, 41220, Note_on_c, 0, 48, 0
1, 41280, Note_on_c, 0, 83, 0
1, 41280, Note_on_c, 0, 58, 0
1, 41280, Note_on_c, 0, 82, 71
1, 41280, Note_on_c, 0, 48, 41
1, 41280, Note_on_c, 0, 52, 50
1, 41400, Note_on_c, 0, 58, 40
1, 41460, Note_on_c, 0, 52, 0
1, 41460, Note_on_c, 0, 48, 0
1, 41520, Note_on_c, 0, 82, 0
1, 41520, Note_on_c, 0, 58, 0
1, 41520, Note_on_c, 0, 48, 41
1, 41520, Note_on_c, 0, 52, 51
1, 41640, Note_on_c, 0, 58, 40
1, 41700, Note_on_c, 0, 52, 0
1, 41700, Note_on_c, 0, 48, 0
1, 41760, Note_on_c, 0, 58, 0
1, 41760, Note_on_c, 0, 48, 42
1, 41760, Note_on_c, 0, 52, 51
1, 41880, Note_on_c, 0, 58, 42
1, 41940, Note_on_c, 0, 52, 0
1, 41940, Note_on_c, 0, 48, 0
1, 42000, Tempo, 392157
1, 42000, Note_on_c, 0, 58, 0
1, 42000, Note_on_c, 0, 48, 43
1, 42000, Note_on_c, 0, 52, 53
1, 42120, Note_on_c, 0, 58, 42
1, 42180, Note_on_c, 0, 52, 0
1, 42180, Note_on_c, 0, 48, 0
1, 42240, Tempo, 373902
1, 42240, Note_on_c, 0, 58, 0
1, 42240, Note_on_c, 0, 83, 56
1, 42240, Note_on_c, 0, 47, 40
1, 42360, Note_on_c, 0, 51, 35
1, 42380, Note_on_c, 0, 47, 0
1, 42480, Note_on_c, 0, 54, 35
1, 42500, Note_on_c, 0, 51, 0
1, 42600, Note_on_c, 0, 59, 35
1, 42620, Note_on_c, 0, 54, 0
1, 42720, Note_on_c, 0, 59, 0
1, 42720, Note_on_c, 0, 47, 41
1, 42840, Note_on_c, 0, 81, 54
1, 42840, Note_on_c, 0, 51, 35
1, 42860, Note_on_c, 0, 47, 0
1, 42860, Note_on_c, 0, 83, 0
1, 42960, Note_on_c, 0, 79, 53
1, 42960, Note_on_c, 0, 54, 35
1, 42980, Note_on_c, 0, 81, 0
1, 42980, Note_on_c, 0, 51, 0
1, 43080, Note_on_c, 0, 78, 51
1, 43080, Note_on_c, 0, 59, 35
1, 43100, Note_on_c, 0, 79, 0
1, 43100, Note_on_c, 0, 54, 0
1, 43200, Note_on_c, 0, 59, 0
1, 43200, Note_on_c, 0, 79, 53
1, 43200, Note_on_c, 0, 47, 39
1, 43220, Note_on_c, 0, 78, 0
1, 43320, Note_on_c, 0, 78, 52
1, 43320, Note_on_c, 0, 52, 35
1, 43340, Note_on_c, 0, 47, 0
1, 43340, Note_on_c, 0, 79, 0
1, 43440, Note_on_c, 0, 76, 51
1, 43440, Note_on_c, 0, 55, 35
1, 43460, Note_on_c, 0, 78, 0
1, 43460, Note_on_c, 0, 52, 0
1, 43560, Note_on_c, 0, 75, 50
1, 43560, Note_on_c, 0, 59, 35
1, 43580, Note_on_c, 0, 76, 0
1, 43580, Note_on_c, 0, 55, 0
1, 43680, Note_on_c, 0, 59, 0
1, 43680, Note_on_c, 0, 76, 50
1, 43680, Note_on_c, 0, 47, 40
1, 43700, Note_on_c, 0, 75, 0
1, 43800, Note_on_c, 0, 79, 52
1, 43800, Note_on_c, 0, 52, 35
1, 43820, Note_on_c, 0, 47, 0
1, 43820, Note_on_c, 0, 76, 0
1, 43920, Note_on_c, 0, 78, 50
1, 43920, Note_on_c, 0, 55, 35
1, 43940, Note_on_c, 0, 79, 0
1, 43940, Note_on_c, 0, 52, 0
1, 44040, Note_on_c, 0, 76, 50
1, 44040, Note_on_c, 0, 59, 35
1, 44060, Note_on_c, 0, 78, 0
1, 44060, Note_on_c, 0, 55, 0
1, 44120, Tempo, 373902
1, 44160, Note_on_c, 0, 59, 0
1, 44160, Note_on_c, 0, 75, 50
1, 44160, Note_on_c, 0, 47, 40
1, 44180, Note_on_c, 0, 76, 0
1, 44280, Note_on_c, 0, 73, 49
1, 44280, Note_on_c, 0, 54, 35
1, 44300, Note_on_c, 0, 47, 0
1, 44300, Note_on_c, 0, 75, 0
1, 44400, Note_on_c, 0, 71, 48
1, 44400, Note_on_c, 0, 57, 35
1, 44420, Note_on_c, 0, 73, 0
1, 44420, Note_on_c, 0, 54, 0
1, 44440, Tempo, 375117
1, 44520, Note_on_c, 0, 70, 47
1, 44520, Note_on_c, 0, 59, 35
1, 44540, Note_on_c, 0, 71, 0
1, 44540, Note_on_c, 0, 57, 0
1, 44640, Note_on_c, 0, 59, 0
1, 44640, Note_on_c, 0, 71, 49
1, 44640, Note_on_c, 0, 47, 40
1, 44660, Note_on_c, 0, 70, 0
1, 44760, Tempo, 376341
1, 44760, Note_on_c, 0, 73, 49
1, 44760, Note_on_c, 0, 54, 35
1, 44780, Note_on_c, 0, 47, 0
1, 44780, Note_on_c, 0, 71, 0
1, 44880, Note_on_c, 0, 74, 49
1, 44880, Note_on_c, 0, 57, 35
1, 44900, Note_on_c, 0, 73, 0
1, 44900, Note_on_c, 0, 54, 0
1, 45000, Note_on_c, 0, 75, 50
1, 45000, Note_on_c, 0, 59, 35
1, 45020, Note_on_c, 0, 74, 0
1, 45020, Note_on_c, 0, 57, 0
1, 45080, Tempo, 377572
1, 45120, Note_on_c, 0, 59, 0
1, 45120, Note_on_c, 0, 76, 50
1, 45120, Note_on_c, 0, 47, 40
1, 45140, Note_on_c, 0, 75, 0
1, 45240, Note_on_c, 0, 75, 50
1, 45240, Note_on_c, 0, 52, 35
1, 45260, Note_on_c, 0, 47, 0
1, 45260, Note_on_c, 0, 76, 0
1, 45360, Note_on_c, 0, 76, 51
1, 45360, Note_on_c, 0, 55, 35
1, 45380, Note_on_c, 0, 75, 0
1, 45380, Note_on_c, 0, 52, 0
1, 45400, Tempo, 378788
1, 45480, Note_on_c, 0, 78, 51
1, 45480, Note_on_c, 0, 59, 35
1, 45500, Note_on_c, 0, 76, 0
1, 45500, Note_on_c, 0, 55, 0
1, 45600, Note_on_c, 0, 59, 0
1, 45600, Note_on_c, 0, 79, 49
1, 45600, Note_on_c, 0, 47, 40
1, 45620, Note_on_c, 0, 78, 0
1, 45720, Tempo, 380035
1, 45720, Note_on_c, 0, 80, 50
1, 45720, Note_on_c, 0, 52, 35
1, 45740, Note_on_c, 0, 47, 0
1, 45740, Note_on_c, 0, 79, 0
1, 45840, Note_on_c, 0, 81, 52
1, 45840, Note_on_c, 0, 55, 35
1, 45860, Note_on_c, 0, 80, 0
1, 45860, Note_on_c, 0, 52, 0
1, 45960, Note_on_c, 0, 82, 53
1, 45960, Note_on_c, 0, 59, 35
1, 45980, Note_on_c, 0, 81, 0
1, 45980, Note_on_c, 0, 55, 0
1, 46000, Tempo, 381291
1, 46080, Tempo, 376341
1, 46080, Note_on_c, 0, 59, 0
1, 46080, Note_on_c, 0, 83, 55
1, 46080, Note_on_c, 0, 47, 40
1, 46100, Note_on_c, 0, 82, 0
1, 46200, Note_on_c, 0, 82, 53
1, 46200, Note_on_c, 0, 51, 35
1, 46220, Note_on_c, 0, 47, 0
1, 46220, Note_on_c, 0, 83, 0
1, 46320, Note_on_c, 0, 83, 53
1, 46320, Note_on_c, 0, 54, 35
1, 46340, Note_on_c, 0, 82, 0
1, 46340, Note_on_c, 0, 51, 0
1, 46400, Tempo, 375117
1, 46440, Note_on_c, 0, 82, 50
1, 46440, Note_on_c, 0, 59, 35
1, 46460, Note_on_c, 0, 83, 0
1, 46460, Note_on_c, 0, 54, 0
1, 46560, Note_on_c, 0, 59, 0
1, 46560, Note_on_c, 0, 83, 52
1, 46560, Note_on_c, 0, 47, 40
1, 46580, Note_on_c, 0, 82, 0
1, 46680, Note_on_c, 0, 81, 52
1, 46680, Note_on_c, 0, 51, 35
1, 46700, Note_on_c, 0, 47, 0
1, 46700, Note_on_c, 0, 83, 0
1, 46720, Tempo, 373902
1, 46800, Note_on_c, 0, 79, 51
1, 46800, Note_on_c, 0, 54, 35
1, 46820, Note_on_c, 0, 81, 0
1, 46820, Note_on_c, 0, 51, 0
1, 46920, Note_on_c, 0, 78, 50
1, 46920, Note_on_c, 0, 59, 35
1, 46940, Note_on_c, 0, 79, 0
1, 46940, Note_on_c, 0, 54, 0
1, 47040, Tempo, 373902
1, 47040, Note_on_c, 0, 59, 0
1, 47040, Note_on_c, 0, 79, 52
1, 47040, Note_on_c, 0, 47, 40
1, 47060, Note_on_c, 0, 78, 0
1, 47160, Note_on_c, 0, 78, 51
1, 47160, Note_on_c, 0, 52, 35
1, 47180, Note_on_c, 0, 47, 0
1, 47180, Note_on_c, 0, 79, 0
1, 47280, Note_on_c, 0, 76, 49
1, 47280, Note_on_c, 0, 55, 35
1, 47300, Note_on_c, 0, 78, 0
1, 47300, Note_on_c, 0, 52, 0
1, 47400, Note_on_c, 0, 75, 50
1, 47400, Note_on_c, 0, 59, 35
1, 47420, Note_on_c, 0, 76, 0
1, 47420, Note_on_c, 0, 55, 0
1, 47520, Note_on_c, 0, 59, 0
1, 47520, Note_on_c, 0, 76, 50
1, 47520, Note_on_c, 0, 47, 41
1, 47540, Note_on_c, 0, 75, 0
1, 47640, Note_on_c, 0, 79, 53
1, 47640, Note_on_c, 0, 52, 35
1, 47660, Note_on_c, 0, 47, 0
1, 47660, Note_on_c, 0, 76, 0
1, 47760, Note_on_c, 0, 78, 50
1, 47760, Note_on_c, 0, 55, 35
1, 47780, Note_on_c, 0, 79, 0
1, 47780, Note_on_c, 0, 52, 0
1, 47880, Note_on_c, 0, 76, 50
1, 47880, Note_on_c, 0, 59, 35
1, 47900, Note_on_c, 0, 78, 0
1, 47900, Note_on_c, 0, 55, 0
1, 48000, Note_on_c, 0, 59, 0
1, 48000, Note_on_c, 0, 75, 50
1, 48000, Note_on_c, 0, 47, 40
1, 48020, Note_on_c, 0, 76, 0
1, 48120, Note_on_c, 0, 73, 49
1, 48120, Note_on_c, 0, 54, 35
1, 48140, Note_on_c, 0, 47, 0
1, 48140, Note_on_c, 0, 75, 0
1, 48240, Note_on_c, 0, 71, 48
1, 48240, Note_on_c, 0, 57, 35
1, 48260, Note_on_c, 0, 73, 0
1, 48260, Note_on_c, 0, 54, 0
1, 48360, Note_on_c, 0, 70, 47
1, 48360, Note_on_c, 0, 59, 35
1, 48380, Note_on_c, 0, 71, 0
1, 48380, Note_on_c, 0, 57, 0
1, 48480, Note_on_c, 0, 59, 0
1, 48480, Note_on_c, 0, 71, 49
1, 48480, Note_on_c, 0, 47, 40
1, 48500, Note_on_c, 0, 70, 0
1, 48600, Note_on_c, 0, 73, 50
1, 48600, Note_on_c, 0, 54, 36
1, 48620, Note_on_c, 0, 47, 0
1, 48620, Note_on_c, 0, 71, 0
1, 48720, Note_on_c, 0, 74, 50
1, 48720, Note_on_c, 0, 57, 36
1, 48740, Note_on_c, 0, 73, 0
1, 48740, Note_on_c, 0, 54, 0
1, 48840, Note_on_c, 0, 75, 52
1, 48840, Note_on_c, 0, 59, 36
1, 48860, Note_on_c, 0, 74, 0
1, 48860, Note_on_c, 0, 57, 0
1, 48960, Note_on_c, 0, 59, 0
1, 48960, Note_on_c, 0, 76, 52
1, 48960, Note_on_c, 0, 47, 42
1, 48980, Note_on_c, 0, 75, 0
1, 49080, Note_on_c, 0, 75, 52
1, 49080, Note_on_c, 0, 52, 36
1, 49100, Note_on_c, 0, 47, 0
1, 49100, Note_on_c, 0, 76, 0
1, 49200, Note_on_c, 0, 76, 54
1, 49200, Note_on_c, 0, 55, 37
1, 49220, Note_on_c, 0, 75, 0
1, 49220, Note_on_c, 0, 52, 0
1, 49320, Note_on_c, 0, 78, 54
1, 49320, Note_on_c, 0, 59, 37
1, 49340, Note_on_c, 0, 76, 0
1, 49340, Note_on_c, 0, 55, 0
1, 49440, Note_on_c, 0, 59, 0
1, 49440, Note_on_c, 0, 79, 56
1, 49440, Note_on_c, 0, 47, 42
1, 49460, Note_on_c, 0, 78, 0
1, 49560, Note_on_c, 0, 80, 58
1, 49560, Note_on_c, 0, 52, 37
1, 49580, Note_on_c, 0, 47, 0
1, 49580, Note_on_c, 0, 79, 0
1, 49680, Tempo, 392927
1, 49680, Note_on_c, 0, 81, 60
1, 49680, Note_on_c, 0, 55, 37
1, 49700, Note_on_c, 0, 80, 0
1, 49700, Note_on_c, 0, 52, 0
1, 49800, Note_on_c, 0, 82, 62
1, 49800, Note_on_c, 0, 59, 38
1, 49820, Note_on_c, 0, 81, 0
1, 49820, Note_on_c, 0, 55, 0
1, 49920, Tempo, 373902
1, 49920, Note_on_c, 0, 59, 0
1, 49920, Note_on_c, 0, 83, 68
1, 49920, Note_on_c, 0, 47, 44
1, 49940, Note_on_c, 0, 82, 0
1, 49983, Control_c, 0, 64, 127
1, 50040, Note_on_c, 0, 47, 0
1, 50040, Note_on_c, 0, 83, 0
1, 50040, Note_on_c, 0, 78, 60
1, 50040, Note_on_c, 0, 51, 38
1, 50160, Note_on_c, 0, 51, 0
1, 50160, Note_on_c, 0, 78, 0
1, 50160, Note_on_c, 0, 75, 61
1, 50160, Note_on_c, 0, 54, 38
1, 50280, Note_on_c, 0, 54, 0
1, 50280, Note_on_c, 0, 75, 0
1, 50280, Note_on_c, 0, 71, 61
1, 50280, Note_on_c, 0, 59, 38
1, 50400, Note_on_c, 0, 59, 0
1, 50400, Note_on_c, 0, 71, 0
1, 50400, Note_on_c, 0, 70, 75
1, 50400, Note_on_c, 0, 58, 50
1, 50412, Control_c, 0, 64, 0
1, 50475, Control_c, 0, 64, 127
1, 50520, Note_on_c, 0, 58, 0
1, 50520, Note_on_c, 0, 70, 0
1, 50520, Note_on_c, 0, 71, 63
1, 50520, Note_on_c, 0, 59, 41
1, 50640, Note_on_c, 0, 59, 0
1, 50640, Note_on_c, 0, 71, 0
1, 50640, Note_on_c, 0, 76, 63
1, 50640, Note_on_c, 0, 55, 40
1, 50760, Note_on_c, 0, 55, 0
1, 50760, Note_on_c, 0, 76, 0
1, 50760, Note_on_c, 0, 79, 63
1, 50760, Note_on_c, 0, 52, 41
1, 50880, Note_on_c, 0, 52, 0
1, 50880, Note_on_c, 0, 79, 0
1, 50880, Note_on_c, 0, 83, 74
1, 50880, Note_on_c, 0, 47, 52
1, 50897, Control_c, 0, 64, 0
1, 50960, Control_c, 0, 64, 127
1, 51000, Note_on_c, 0, 47, 0
1, 51000, Note_on_c, 0, 83, 0
1, 51000, Note_on_c, 0, 78, 65
1, 51000, Note_on_c, 0, 51, 44
1, 51120, Note_on_c, 0, 51, 0
1, 51120, Note_on_c, 0, 78, 0
1, 51120, Note_on_c, 0, 75, 68
1, 51120, Note_on_c, 0, 54, 45
1, 51240, Note_on_c, 0, 54, 0
1, 51240, Note_on_c, 0, 75, 0
1, 51240, Note_on_c, 0, 71, 68
1, 51240, Note_on_c, 0, 59, 45
1, 51360, Note_on_c, 0, 59, 0
1, 51360, Note_on_c, 0, 71, 0
1, 51360, Note_on_c, 0, 70, 80
1, 51360, Note_on_c, 0, 58, 60
1, 51377, Control_c, 0, 64, 0
1, 51463, Control_c, 0, 64, 127
1, 51480, Note_on_c, 0, 58, 0
1, 51480, Note_on_c, 0, 70, 0
1, 51480, Note_on_c, 0, 71, 71
1, 51480, Note_on_c, 0, 59, 51
1, 51600, Note_on_c, 0, 59, 0
1, 51600, Note_on_c, 0, 71, 0
1, 51600, Note_on_c, 0, 76, 71
1, 51600, Note_on_c, 0, 55, 51
1, 51720, Note_on_c, 0, 55, 0
1, 51720, Note_on_c, 0, 76, 0
1, 51720, Note_on_c, 0, 79, 72
1, 51720, Note_on_c, 0, 52, 52
1, 51840, Note_on_c, 0, 52, 0
1, 51840, Note_on_c, 0, 79, 0
1, 51840, Note_on_c, 0, 83, 91
1, 51840, Note_on_c, 0, 47, 63
1, 51853, Control_c, 0, 64, 0
1, 51903, Control_c, 0, 64, 127
1, 51960, Note_on_c, 0, 47, 0
1, 51960, Note_on_c, 0, 83, 0
1, 51960, Note_on_c, 0, 78, 82
1, 51960, Note_on_c, 0, 51, 52
1, 52080, Note_on_c, 0, 51, 0
1, 52080, Note_on_c, 0, 78, 0
1, 52080, Note_on_c, 0, 75, 82
1, 52080, Note_on_c, 0, 54, 52
1, 52200, Note_on_c, 0, 54, 0
1, 52200, Note_on_c, 0, 75, 0
1, 52200, Note_on_c, 0, 71, 82
1, 52200, Note_on_c, 0, 59, 52
1, 52320, Note_on_c, 0, 59, 0
1, 52320, Note_on_c, 0, 71, 0
1, 52320, Note_on_c, 0, 83, 91
1, 52320, Note_on_c, 0, 47, 63
1, 52335, Control_c, 0, 64, 0
1, 52406, Control_c, 0, 64, 127
1, 52440, Note_on_c, 0, 47, 0
1, 52440, Note_on_c, 0, 83, 0
1, 52440, Note_on_c, 0, 79, 82
1, 52440, Note_on_c, 0, 52, 52
1, 52560, Note_on_c, 0, 52, 0
1, 52560, Note_on_c, 0, 79, 0
1, 52560, Note_on_c, 0, 76, 82
1, 52560, Note_on_c, 0, 55, 52
1, 52680, Note_on_c, 0, 55, 0
1, 52680, Note_on_c, 0, 76, 0
1, 52680, Note_on_c, 0, 71, 82
1, 52680, Note_on_c, 0, 59, 52
1, 52800, Tempo, 373902
1, 52800, Note_on_c, 0, 59, 0
1, 52800, Note_on_c, 0, 71, 0
1, 52800, Note_on_c, 0, 83, 91
1, 52800, Note_on_c, 0, 47, 63
1, 52814, Control_c, 0, 64, 0
1, 52875, Control_c, 0, 64, 127
1, 52920, Note_on_c, 0, 47, 0
1, 52920, Note_on_c, 0, 83, 0
1, 52920, Note_on_c, 0, 78, 82
1, 52920, Note_on_c, 0, 51, 52
1, 53040, Note_on_c, 0, 51, 0
1, 53040, Note_on_c, 0, 78, 0
1, 53040, Note_on_c, 0, 75, 81
1, 53040, Note_on_c, 0, 54, 52
1, 53160, Note_on_c, 0, 54, 0
1, 53160, Note_on_c, 0, 75, 0
1, 53160, Note_on_c, 0, 71, 81
1, 53160, Note_on_c, 0, 59, 52
1, 53280, Note_on_c, 0, 59, 0
1, 53280, Note_on_c, 0, 71, 0
1, 53280, Note_on_c, 0, 83, 91
1, 53280, Note_on_c, 0, 47, 63
1, 53299, Control_c, 0, 64, 0
1, 53355, Control_c, 0, 64, 127
1, 53400, Note_on_c, 0, 47, 0
1, 53400, Note_on_c, 0, 83, 0
1, 53400, Note_on_c, 0, 79, 81
1, 53400, Note_on_c, 0, 52, 52
1, 53520, Note_on_c, 0, 52, 0
1, 53520, Note_on_c, 0, 79, 0
1, 53520, Note_on_c, 0, 76, 81
1, 53520, Note_on_c, 0, 55, 52
1, 53640, Note_on_c, 0, 55, 0
1, 53640, Note_on_c, 0, 76, 0
1, 53640, Note_on_c, 0, 71, 82
1, 53640, Note_on_c, 0, 59, 52
1, 53760, Tempo, 375117
1, 53760, Note_on_c, 0, 59, 0
1, 53760, Note_on_c, 0, 71, 0
1, 53760, Note_on_c, 0, 83, 91
1, 53760, Note_on_c, 0, 47, 54
1, 53760, Note_on_c, 0, 51, 54
1, 53760, Note_on_c, 0, 54, 54
1, 53760, Note_on_c, 0, 59, 63
1, 53769, Control_c, 0, 64, 0
1, 53829, Control_c, 0, 64, 127
1, 53880, Note_on_c, 0, 83, 0
1, 53880, Note_on_c, 0, 78, 82
1, 54000, Note_on_c, 0, 78, 0
1, 54000, Note_on_c, 0, 75, 82
1, 54120, Note_on_c, 0, 75, 0
1, 54120, Note_on_c, 0, 71, 82
1, 54240, Note_on_c, 0, 71, 0
1, 54240, Note_on_c, 0, 59, 0
1, 54240, Note_on_c, 0, 47, 0
1, 54240, Note_on_c, 0, 51, 0
1, 54240, Note_on_c, 0, 54, 0
1, 54240, Note_on_c, 0, 78, 91
1, 54360, Note_on_c, 0, 78, 0
1, 54360, Note_on_c, 0, 75, 82
1, 54400, Tempo, 376341
1, 54480, Note_on_c, 0, 75, 0
1, 54480, Note_on_c, 0, 71, 82
1, 54600, Note_on_c, 0, 71, 0
1, 54600, Note_on_c, 0, 66, 82
1, 54720, Note_on_c, 0, 66, 0
1, 54720, Note_on_c, 0, 75, 91
1, 54840, Note_on_c, 0, 75, 0
1, 54840, Note_on_c, 0, 71, 82
1, 54960, Note_on_c, 0, 71, 0
1, 54960, Note_on_c, 0, 66, 81
1, 55040, Tempo, 377572
1, 55080, Note_on_c, 0, 66, 0
1, 55080, Note_on_c, 0, 63, 81
1, 55200, Note_on_c, 0, 63, 0
1, 55200, Note_on_c, 0, 71, 91
1, 55320, Note_on_c, 0, 71, 0
1, 55320, Note_on_c, 0, 66, 81
1, 55440, Note_on_c, 0, 66, 0
1, 55440, Note_on_c, 0, 63, 81
1, 55560, Note_on_c, 0, 63, 0
1, 55560, Note_on_c, 0, 59, 82
1, 55640, Tempo, 378788
1, 55680, Tempo, 375117
1, 55680, Note_on_c, 0, 59, 0
1, 55680, Note_on_c, 0, 66, 91
1, 55800, Note_on_c, 0, 66, 0
1, 55800, Note_on_c, 0, 63, 81
1, 55920, Note_on_c, 0, 63, 0
1, 55920, Note_on_c, 0, 59, 80
1, 55960, Tempo, 376341
1, 56040, Note_on_c, 0, 59, 0
1, 56040, Note_on_c, 0, 54, 80
1, 56160, Note_on_c, 0, 54, 0
1, 56160, Note_on_c, 0, 63, 89
1, 56240, Tempo, 377572
1, 56280, Note_on_c, 0, 63, 0
1, 56280, Note_on_c, 0, 59, 79
1, 56400, Note_on_c, 0, 59, 0
1, 56400, Note_on_c, 0, 54, 79
1, 56520, Tempo, 378788
1, 56520, Note_on_c, 0, 54, 0
1, 56520, Note_on_c, 0, 51, 78
1, 56640, Note_on_c, 0, 51, 0
1, 56640, Note_on_c, 0, 59, 87
1, 56760, Note_on_c, 0, 59, 0
1, 56760, Note_on_c, 0, 54, 78
1, 56800, Tempo, 380035
1, 56880, Note_on_c, 0, 54, 0
1, 56880, Note_on_c, 0, 51, 77
1, 57000, Note_on_c, 0, 51, 0
1, 57000, Note_on_c, 0, 47, 77
1, 57080, Tempo, 381291
1, 57120, Note_on_c, 0, 47, 0
1, 57120, Note_on_c, 0, 35, 85
1, 57240, Note_on_c, 0, 35, 0
1, 57240, Note_on_c, 0, 39, 76
1, 57360, Tempo, 399707
1, 57360, Note_on_c, 0, 39, 0
1, 57360, Note_on_c, 0, 42, 76
1, 57480, Note_on_c, 0, 42, 0
1, 57480, Note_on_c, 0, 47, 75
1, 57600, Tempo, 383803
1, 57600, Note_on_c, 0, 47, 0
1, 57600, Note_on_c, 0, 35, 77
1, 57600, Control_c, 0, 64, 0
1, 57640, Tempo, 383803
1, 57720, Note_on_c, 0, 35, 0
1, 57840, Note_on_c, 0, 47, 68
1, 57960, Note_on_c, 0, 47, 0
1, 58080, Note_on_c, 0, 37, 73
1, 58200, Note_on_c, 0, 37, 0
1, 58320, Note_on_c, 0, 49, 66
1, 58440, Note_on_c, 0, 49, 0
1, 58560, Note_on_c, 0, 71, 75
1, 58560, Note_on_c, 0, 39, 71
1, 58680, Note_on_c, 0, 39, 0
1, 58680, Note_on_c, 0, 71, 0
1, 58800, Note_on_c, 0, 59, 69
1, 58800, Note_on_c, 0, 51, 65
1, 58920, Note_on_c, 0, 51, 0
1, 58920, Note_on_c, 0, 59, 0
1, 59040, Note_on_c, 0, 73, 74
1, 59160, Note_on_c, 0, 73, 0
1, 59280, Tempo, 401070
1, 59280, Note_on_c, 0, 61, 65
1, 59400, Note_on_c, 0, 61, 0
1, 59520, Tempo, 383803
1, 59520, Note_on_c, 0, 75, 71
1, 59520, Note_on_c, 0, 39, 69
1, 59560, Tempo, 383803
1, 59640, Note_on_c, 0, 39, 0
1, 59640, Note_on_c, 0, 75, 0
1, 59760, Note_on_c, 0, 63, 64
1, 59760, Note_on_c, 0, 51, 61
1, 59880, Tempo, 385084
1, 59880, Note_on_c, 0, 51, 0
1, 59880, Note_on_c, 0, 63, 0
1, 60000, Note_on_c, 0, 40, 65
1, 60120, Note_on_c, 0, 40, 0
1, 60200, Tempo, 386374
1, 60240, Note_on_c, 0, 52, 59
1, 60360, Note_on_c, 0, 52, 0
1, 60480, Note_on_c, 0, 75, 67
1, 60480, Note_on_c, 0, 42, 65
1, 60520, Tempo, 387672
1, 60600, Note_on_c, 0, 42, 0
1, 60600, Note_on_c, 0, 75, 0
1, 60720, Note_on_c, 0, 63, 53
1, 60720, Note_on_c, 0, 54, 54
1, 60840, Tempo, 388954
1, 60840, Note_on_c, 0, 54, 0
1, 60840, Note_on_c, 0, 63, 0
1, 60960, Note_on_c, 0, 76, 59
1, 61080, Note_on_c, 0, 76, 0
1, 61120, Tempo, 390269
1, 61200, Note_on_c, 0, 64, 50
1, 61320, Note_on_c, 0, 64, 0
1, 61440, Tempo, 387672
1, 61440, Note_on_c, 0, 78, 52
1, 61560, Note_on_c, 0, 78, 0
1, 61680, Note_on_c, 0, 66, 49
1, 61760, Tempo, 388954
1, 61800, Note_on_c, 0, 66, 0
1, 61920, Note_on_c, 0, 80, 52
1, 62040, Note_on_c, 0, 80, 0
1, 62080, Tempo, 390269
1, 62160, Note_on_c, 0, 68, 49
1, 62280, Note_on_c, 0, 68, 0
1, 62360, Tempo, 391594
1, 62400, Note_on_c, 0, 81, 52
1, 62400, Note_on_c, 0, 42, 41
1, 62520, Note_on_c, 0, 42, 0
1, 62520, Note_on_c, 0, 81, 0
1, 62640, Note_on_c, 0, 69, 48
1, 62640, Note_on_c, 0, 54, 36
1, 62760, Note_on_c, 0, 54, 0
1, 62760, Note_on_c, 0, 69, 0
1, 62880, Tempo, 390269
1, 62880, Note_on_c, 0, 81, 52
1, 62880, Note_on_c, 0, 44, 41
1, 63000, Note_on_c, 0, 44, 0
1, 63000, Note_on_c, 0, 81, 0
1, 63080, Tempo, 391594
1, 63120, Note_on_c, 0, 71, 46
1, 63120, Note_on_c, 0, 56, 36
1, 63240, Tempo, 392927
1, 63240, Note_on_c, 0, 56, 0
1, 63240, Note_on_c, 0, 71, 0
1, 63360, Note_on_c, 0, 81, 51
1, 63360, Note_on_c, 0, 45, 40
1, 63440, Tempo, 394244
1, 63480, Note_on_c, 0, 45, 0
1, 63480, Note_on_c, 0, 81, 0
1, 63600, Tempo, 395596
1, 63600, Note_on_c, 0, 73, 46
1, 63600, Note_on_c, 0, 57, 37
1, 63720, Note_on_c, 0, 57, 0
1, 63720, Note_on_c, 0, 73, 0
1, 63800, Tempo, 396957
1, 63840, Note_on_c, 0, 81, 51
1, 63840, Note_on_c, 0, 47, 39
1, 63960, Tempo, 398327
1, 63960, Note_on_c, 0, 47, 0
1, 63960, Note_on_c, 0, 81, 0
1, 64080, Note_on_c, 0, 75, 46
1, 64080, Note_on_c, 0, 59, 36
1, 64160, Tempo, 399707
1, 64200, Note_on_c, 0, 59, 0
1, 64200, Note_on_c, 0, 75, 0
1, 64320, Tempo, 401070
1, 64320, Note_on_c, 0, 81, 51
1, 64320, Note_on_c, 0, 49, 38
1, 64340, Tempo, 394244
1, 64380, Tempo, 395596
1, 64400, Tempo, 396957
1, 64420, Tempo, 398327
1, 64440, Note_on_c, 0, 49, 0
1, 64440, Note_on_c, 0, 81, 0
1, 64460, Tempo, 399707
1, 64480, Tempo, 401070
1, 64500, Tempo, 402468
1, 64540, Tempo, 403877
1, 64560, Tempo, 405296
1, 64560, Note_on_c, 0, 76, 47
1, 64560, Note_on_c, 0, 61, 37
1, 64580, Tempo, 406697
1, 64600, Tempo, 408136
1, 64640, Tempo, 409584
1, 64660, Tempo, 411043
1, 64680, Tempo, 412485
1, 64680, Note_on_c, 0, 61, 0
1, 64680, Note_on_c, 0, 76, 0
1, 64720, Tempo, 413964
1, 64740, Tempo, 415455
1, 64760, Tempo, 416956
1, 64780, Tempo, 418468
1, 64800, Tempo, 421496
1, 64800, Note_on_c, 0, 81, 50
1, 64800, Note_on_c, 0, 51, 40
1, 64820, Tempo, 426136
1, 64840, Tempo, 430911
1, 64860, Tempo, 434122
1, 64880, Tempo, 439046
1, 64900, Tempo, 444115
1, 64920, Tempo, 447527
1, 64920, Note_on_c, 0, 51, 0
1, 64920, Note_on_c, 0, 81, 0
1, 64940, Tempo, 452796
1, 64960, Tempo, 458155
1, 64980, Tempo, 461787
1, 65000, Tempo, 467399
1, 65020, Tempo, 473111
1, 65040, Tempo, 477023
1, 65040, Note_on_c, 0, 78, 46
1, 65040, Note_on_c, 0, 63, 37
1, 65060, Tempo, 482975
1, 65080, Tempo, 489077
1, 65100, Tempo, 493259
1, 65120, Tempo, 499625
1, 65140, Tempo, 506158
1, 65160, Tempo, 510638
1, 65160, Note_on_c, 0, 63, 0
1, 65160, Note_on_c, 0, 78, 0
1, 65180, Tempo, 517464
1, 65200, Tempo, 524476
1, 65220, Tempo, 531726
1, 65240, Tempo, 551978
1, 65260, Tempo, 582468
1, 65280, Tempo, 440270
1, 65280, Note_on_c, 0, 71, 42
1, 65280, Note_on_c, 0, 76, 42
1, 65280, Note_on_c, 0, 80, 55
1, 65280, Note_on_c, 0, 68, 39
1, 65280, Note_on_c, 0, 64, 33
1, 66240, Tempo, 430601
1, 66240, Note_on_c, 0, 64, 0
1, 66240, Note_on_c, 0, 80, 0
1, 66240, Note_on_c, 0, 71, 0
1, 66240, Note_on_c, 0, 76, 0
1, 66240, Note_on_c, 0, 68, 0
1, 66240, Note_on_c, 0, 69, 40
1, 66240, Note_on_c, 0, 75, 40
1, 66240, Note_on_c, 0, 78, 52
1, 66240, Note_on_c, 0, 66, 35
1, 66240, Note_on_c, 0, 63, 29
1, 66240, Note_on_c, 0, 59, 29
1, 66720, Tempo, 455650
1, 66720, Note_on_c, 0, 59, 0
1, 66720, Note_on_c, 0, 75, 0
1, 66720, Note_on_c, 0, 78, 0
1, 66720, Note_on_c, 0, 69, 0
1, 66720, Note_on_c, 0, 63, 0
1, 66720, Note_on_c, 0, 66, 0
1, 66720, Note_on_c, 0, 68, 40
1, 66720, Note_on_c, 0, 73, 40
1, 66720, Note_on_c, 0, 76, 52
1, 66720, Note_on_c, 0, 64, 35
1, 66720, Note_on_c, 0, 61, 29
1, 67200, Tempo, 441924
1, 67200, Note_on_c, 0, 61, 0
1, 67200, Note_on_c, 0, 76, 0
1, 67200, Note_on_c, 0, 68, 0
1, 67200, Note_on_c, 0, 73, 0
1, 67200, Note_on_c, 0, 64, 0
1, 67200, Note_on_c, 0, 66, 42
1, 67200, Note_on_c, 0, 72, 42
1, 67200, Note_on_c, 0, 75, 55
1, 67200, Note_on_c, 0, 63, 39
1, 67200, Note_on_c, 0, 60, 33
1, 67200, Note_on_c, 0, 56, 33
1, 68160, Note_on_c, 0, 56, 0
1, 68160, Note_on_c, 0, 72, 0
1, 68160, Note_on_c, 0, 75, 0
1, 68160, Note_on_c, 0, 66, 0
1, 68160, Note_on_c, 0, 60, 0
1, 68160, Note_on_c, 0, 63, 0
1, 68160, Note_on_c, 0, 64, 40
1, 68160, Note_on_c, 0, 73, 52
1, 68160, Note_on_c, 0, 61, 34
1, 68160, Note_on_c, 0, 57, 28
1, 68640, Tempo, 462820
1, 69120, Tempo, 445269
1, 69120, Note_on_c, 0, 57, 0
1, 69120, Note_on_c, 0, 64, 0
1, 69120, Note_on_c, 0, 73, 0
1, 69120, Note_on_c, 0, 61, 0
1, 69120, Note_on_c, 0, 69, 49
1, 69120, Note_on_c, 0, 71, 49
1, 69120, Note_on_c, 0, 75, 63
1, 69120, Note_on_c, 0, 54, 37
1, 69120, Note_on_c, 0, 57, 45
1, 69120, Note_on_c, 0, 59, 37
1, 69120, Note_on_c, 0, 63, 45
1, 70080, Tempo, 465116
1, 70080, Note_on_c, 0, 63, 0
1, 70080, Note_on_c, 0, 57, 0
1, 70080, Note_on_c, 0, 71, 0
1, 70080, Note_on_c, 0, 75, 0
1, 70080, Note_on_c, 0, 69, 0
1, 70080, Note_on_c, 0, 59, 0
1, 70080, Note_on_c, 0, 54, 0
1, 70080, Note_on_c, 0, 71, 50
1, 70080, Note_on_c, 0, 76, 66
1, 70080, Note_on_c, 0, 56, 40
1, 70080, Note_on_c, 0, 59, 40
1, 70080, Note_on_c, 0, 64, 49
1, 70560, Tempo, 489796
1, 70560, Note_on_c, 0, 64, 0
1, 70560, Note_on_c, 0, 56, 0
1, 70560, Note_on_c, 0, 71, 0
1, 70560, Note_on_c, 0, 76, 0
1, 70560, Note_on_c, 0, 59, 0
1, 70560, Note_on_c, 0, 73, 48
1, 70560, Note_on_c, 0, 76, 55
1, 70560, Note_on_c, 0, 78, 72
1, 70560, Note_on_c, 0, 66, 51
1, 70560, Note_on_c, 0, 57, 46
1, 70560, Note_on_c, 0, 61, 42
1, 71040, Tempo, 454545
1, 71040, Note_on_c, 0, 61, 0
1, 71040, Note_on_c, 0, 76, 0
1, 71040, Note_on_c, 0, 78, 0
1, 71040, Note_on_c, 0, 73, 0
1, 71040, Note_on_c, 0, 57, 0
1, 71040, Note_on_c, 0, 66, 0
1, 71040, Note_on_c, 0, 71, 59
1, 71040, Note_on_c, 0, 76, 59
1, 71040, Note_on_c, 0, 80, 77
1, 71040, Note_on_c, 0, 59, 49
1, 71040, Note_on_c, 0, 64, 49
1, 71040, Note_on_c, 0, 68, 59
1, 72000, Tempo, 463320
1, 72000, Note_on_c, 0, 68, 0
1, 72000, Note_on_c, 0, 76, 0
1, 72000, Note_on_c, 0, 80, 0
1, 72000, Note_on_c, 0, 64, 0
1, 72000, Note_on_c, 0, 75, 32
1, 72000, Note_on_c, 0, 78, 49
1, 72000, Note_on_c, 0, 63, 27
1, 72000, Note_on_c, 0, 66, 32
1, 72480, Tempo, 466490
1, 72480, Note_on_c, 0, 71, 0
1, 72480, Note_on_c, 0, 69, 48
1, 72958, Note_on_c, 0, 59, 0
1, 72960, Tempo, 440270
1, 72960, Note_on_c, 0, 66, 0
1, 72960, Note_on_c, 0, 63, 0
1, 72960, Note_on_c, 0, 78, 0
1, 72960, Note_on_c, 0, 69, 0
1, 72960, Note_on_c, 0, 75, 0
1, 72960, Note_on_c, 0, 59, 37
1, 72960, Note_on_c, 0, 64, 37
1, 72960, Note_on_c, 0, 68, 45
1, 72960, Note_on_c, 0, 56, 35
1, 72960, Note_on_c, 0, 52, 29
1, 73920, Tempo, 430601
1, 73920, Note_on_c, 0, 52, 0
1, 73920, Note_on_c, 0, 68, 0
1, 73920, Note_on_c, 0, 59, 0
1, 73920, Note_on_c, 0, 64, 0
1, 73920, Note_on_c, 0, 56, 0
1, 73920, Note_on_c, 0, 57, 36
1, 73920, Note_on_c, 0, 63, 36
1, 73920, Note_on_c, 0, 66, 43
1, 73920, Note_on_c, 0, 54, 31
1, 73920, Note_on_c, 0, 51, 26
1, 73920, Note_on_c, 0, 47, 26
1, 74400, Tempo, 455650
1, 74400, Note_on_c, 0, 47, 0
1, 74400, Note_on_c, 0, 63, 0
1, 74400, Note_on_c, 0, 66, 0
1, 74400, Note_on_c, 0, 57, 0
1, 74400, Note_on_c, 0, 51, 0
1, 74400, Note_on_c, 0, 54, 0
1, 74400, Note_on_c, 0, 56, 36
1, 74400, Note_on_c, 0, 61, 36
1, 74400, Note_on_c, 0, 64, 43
1, 74400, Note_on_c, 0, 52, 31
1, 74400, Note_on_c, 0, 49, 26
1, 74880, Tempo, 441924
1, 74880, Note_on_c, 0, 49, 0
1, 74880, Note_on_c, 0, 64, 0
1, 74880, Note_on_c, 0, 56, 0
1, 74880, Note_on_c, 0, 61, 0
1, 74880, Note_on_c, 0, 52, 0
1, 74880, Note_on_c, 0, 54, 37
1, 74880, Note_on_c, 0, 60, 37
1, 74880, Note_on_c, 0, 63, 45
1, 74880, Note_on_c, 0, 51, 35
1, 74880, Note_on_c, 0, 48, 29
1, 74880, Note_on_c, 0, 44, 29
1, 75840, Note_on_c, 0, 44, 0
1, 75840, Note_on_c, 0, 60, 0
1, 75840, Note_on_c, 0, 63, 0
1, 75840, Note_on_c, 0, 54, 0
1, 75840, Note_on_c, 0, 48, 0
1, 75840, Note_on_c, 0, 51, 0
1, 75840, Note_on_c, 0, 57, 36
1, 75840, Note_on_c, 0, 52, 36
1, 75840, Note_on_c, 0, 61, 43
1, 75840, Note_on_c, 0, 49, 30
1, 75840, Note_on_c, 0, 45, 25
1, 76320, Tempo, 462820
1, 76800, Tempo, 445269
1, 76800, Note_on_c, 0, 45, 0
1, 76800, Note_on_c, 0, 61, 0
1, 76800, Note_on_c, 0, 57, 0
1, 76800, Note_on_c, 0, 52, 0
1, 76800, Note_on_c, 0, 49, 0
1, 76800, Note_on_c, 0, 52, 44
1, 76800, Note_on_c, 0, 56, 44
1, 76800, Note_on_c, 0, 59, 52
1, 76800, Note_on_c, 0, 35, 33
1, 76800, Note_on_c, 0, 47, 40
1, 77280, Note_on_c, 0, 56, 0
1, 77280, Note_on_c, 0, 52, 0
1, 77280, Note_on_c, 0, 54, 50
1, 77280, Note_on_c, 0, 57, 50
1, 77760, Tempo, 435382
1, 77760, Note_on_c, 0, 59, 0
1, 77760, Note_on_c, 0, 61, 61
1, 78240, Tempo, 461007
1, 78240, Note_on_c, 0, 61, 0
1, 78240, Note_on_c, 0, 63, 69
1, 78680, Tempo, 457422
1, 78720, Tempo, 451026
1, 78720, Note_on_c, 0, 63, 0
1, 78720, Note_on_c, 0, 54, 0
1, 78720, Note_on_c, 0, 47, 0
1, 78720, Note_on_c, 0, 35, 0
1, 78720, Note_on_c, 0, 57, 0
1, 78720, Note_on_c, 0, 56, 43
1, 78720, Note_on_c, 0, 64, 49
1, 78720, Note_on_c, 0, 40, 38
1, 78720, Note_on_c, 0, 52, 43
1, 78840, Note_on_c, 0, 64, 0
1, 78880, Note_on_c, 0, 56, 0
1, 78880, Note_on_c, 0, 66, 48
1, 79000, Note_on_c, 0, 66, 0
1, 79040, Note_on_c, 0, 68, 49
1, 79160, Note_on_c, 0, 68, 0
1, 79200, Tempo, 449270
1, 79200, Note_on_c, 0, 40, 0
1, 79200, Note_on_c, 0, 52, 0
1, 79200, Note_on_c, 0, 69, 47
1, 79320, Note_on_c, 0, 69, 0
1, 79360, Note_on_c, 0, 71, 48
1, 79480, Note_on_c, 0, 71, 0
1, 79520, Note_on_c, 0, 73, 49
1, 79640, Note_on_c, 0, 73, 0
1, 79680, Tempo, 447527
1, 79680, Note_on_c, 0, 74, 50
1, 79800, Note_on_c, 0, 74, 0
1, 79840, Note_on_c, 0, 75, 51
1, 79960, Note_on_c, 0, 75, 0
1, 80000, Note_on_c, 0, 76, 52
1, 80120, Note_on_c, 0, 76, 0
1, 80160, Note_on_c, 0, 77, 52
1, 80280, Note_on_c, 0, 77, 0
1, 80320, Note_on_c, 0, 78, 53
1, 80440, Note_on_c, 0, 78, 0
1, 80480, Note_on_c, 0, 79, 53
1, 80600, Note_on_c, 0, 79, 0
1, 80640, Tempo, 434122
1, 80640, Note_on_c, 0, 71, 45
1, 80640, Note_on_c, 0, 80, 57
1, 80640, Note_on_c, 0, 68, 44
1, 80640, Note_on_c, 0, 64, 37
1, 80800, Note_on_c, 0, 80, 0
1, 80800, Note_on_c, 0, 79, 53
1, 80960, Note_on_c, 0, 79, 0
1, 80960, Note_on_c, 0, 80, 53
1, 81120, Note_on_c, 0, 80, 0
1, 81120, Note_on_c, 0, 81, 53
1, 81280, Note_on_c, 0, 81, 0
1, 81280, Note_on_c, 0, 79, 53
1, 81440, Note_on_c, 0, 79, 0
1, 81440, Note_on_c, 0, 80, 53
1, 81600, Tempo, 424598
1, 81600, Note_on_c, 0, 80, 0
1, 81600, Note_on_c, 0, 64, 0
1, 81600, Note_on_c, 0, 68, 0
1, 81600, Note_on_c, 0, 71, 0
1, 81600, Note_on_c, 0, 69, 60
1, 81600, Note_on_c, 0, 66, 40
1, 81600, Note_on_c, 0, 63, 33
1, 81600, Note_on_c, 0, 59, 33
1, 81760, Note_on_c, 0, 80, 54
1, 81920, Note_on_c, 0, 80, 0
1, 81920, Note_on_c, 0, 78, 54
1, 82080, Tempo, 449270
1, 82080, Note_on_c, 0, 78, 0
1, 82080, Note_on_c, 0, 59, 0
1, 82080, Note_on_c, 0, 69, 0
1, 82080, Note_on_c, 0, 66, 0
1, 82080, Note_on_c, 0, 63, 0
1, 82080, Note_on_c, 0, 68, 60
1, 82080, Note_on_c, 0, 64, 40
1, 82080, Note_on_c, 0, 61, 33
1, 82240, Note_on_c, 0, 78, 53
1, 82400, Note_on_c, 0, 78, 0
1, 82400, Note_on_c, 0, 76, 53
1, 82560, Tempo, 435761
1, 82560, Note_on_c, 0, 76, 0
1, 82560, Note_on_c, 0, 61, 0
1, 82560, Note_on_c, 0, 64, 0
1, 82560, Note_on_c, 0, 68, 0
1, 82560, Note_on_c, 0, 66, 60
1, 82560, Note_on_c, 0, 63, 44
1, 82560, Note_on_c, 0, 60, 37
1, 82560, Note_on_c, 0, 56, 37
1, 82720, Note_on_c, 0, 72, 54
1, 82880, Note_on_c, 0, 72, 0
1, 82880, Note_on_c, 0, 75, 54
1, 83040, Note_on_c, 0, 75, 0
1, 83040, Note_on_c, 0, 76, 54
1, 83200, Note_on_c, 0, 76, 0
1, 83200, Note_on_c, 0, 72, 54
1, 83360, Note_on_c, 0, 72, 0
1, 83360, Note_on_c, 0, 75, 54
1, 83520, Note_on_c, 0, 75, 0
1, 83520, Note_on_c, 0, 60, 0
1, 83520, Note_on_c, 0, 66, 0
1, 83520, Note_on_c, 0, 63, 0
1, 83520, Note_on_c, 0, 56, 0
1, 83520, Note_on_c, 0, 64, 60
1, 83520, Note_on_c, 0, 61, 39
1, 83520, Note_on_c, 0, 57, 32
1, 83680, Note_on_c, 0, 69, 54
1, 83840, Note_on_c, 0, 69, 0
1, 83840, Note_on_c, 0, 73, 54
1, 84000, Tempo, 456343
1, 84000, Note_on_c, 0, 73, 0
1, 84000, Note_on_c, 0, 75, 54
1, 84160, Note_on_c, 0, 75, 0
1, 84160, Note_on_c, 0, 69, 54
1, 84320, Note_on_c, 0, 69, 0
1, 84320, Note_on_c, 0, 73, 54
1, 84480, Tempo, 439046
1, 84480, Note_on_c, 0, 73, 0
1, 84480, Note_on_c, 0, 64, 0
1, 84480, Note_on_c, 0, 61, 0
1, 84480, Note_on_c, 0, 57, 0
1, 84480, Note_on_c, 0, 69, 62
1, 84480, Note_on_c, 0, 54, 39
1, 84480, Note_on_c, 0, 57, 47
1, 84480, Note_on_c, 0, 59, 39
1, 84480, Note_on_c, 0, 63, 47
1, 84640, Note_on_c, 0, 74, 62
1, 84800, Note_on_c, 0, 74, 0
1, 84800, Note_on_c, 0, 75, 57
1, 84960, Note_on_c, 0, 75, 0
1, 84960, Note_on_c, 0, 76, 57
1, 85120, Note_on_c, 0, 76, 0
1, 85120, Note_on_c, 0, 74, 59
1, 85280, Note_on_c, 0, 74, 0
1, 85280, Note_on_c, 0, 75, 59
1, 85440, Tempo, 429307
1, 85440, Note_on_c, 0, 75, 0
1, 85440, Note_on_c, 0, 54, 0
1, 85440, Note_on_c, 0, 57, 0
1, 85440, Note_on_c, 0, 69, 0
1, 85440, Note_on_c, 0, 63, 0
1, 85440, Note_on_c, 0, 59, 0
1, 85440, Note_on_c, 0, 71, 71
1, 85440, Note_on_c, 0, 56, 45
1, 85440, Note_on_c, 0, 59, 45
1, 85440, Note_on_c, 0, 64, 53
1, 85600, Note_on_c, 0, 78, 63
1, 85760, Note_on_c, 0, 78, 0
1, 85760, Note_on_c, 0, 76, 64
1, 85920, Tempo, 454545
1, 85920, Note_on_c, 0, 76, 0
1, 85920, Note_on_c, 0, 64, 0
1, 85920, Note_on_c, 0, 71, 0
1, 85920, Note_on_c, 0, 56, 0
1, 85920, Note_on_c, 0, 59, 0
1, 85920, Note_on_c, 0, 73, 74
1, 85920, Note_on_c, 0, 66, 59
1, 85920, Note_on_c, 0, 57, 49
1, 85920, Note_on_c, 0, 61, 49
1, 86080, Note_on_c, 0, 80, 65
1, 86240, Note_on_c, 0, 80, 0
1, 86240, Note_on_c, 0, 78, 65
1, 86400, Tempo, 435761
1, 86400, Note_on_c, 0, 78, 0
1, 86400, Note_on_c, 0, 61, 0
1, 86400, Note_on_c, 0, 73, 0
1, 86400, Note_on_c, 0, 66, 0
1, 86400, Note_on_c, 0, 57, 0
1, 86400, Note_on_c, 0, 80, 79
1, 86400, Note_on_c, 0, 76, 79
1, 86400, Note_on_c, 0, 59, 53
1, 86400, Note_on_c, 0, 64, 53
1, 86400, Note_on_c, 0, 68, 65
1, 86560, Note_on_c, 0, 80, 0
1, 86560, Note_on_c, 0, 79, 72
1, 86720, Note_on_c, 0, 79, 0
1, 86720, Note_on_c, 0, 80, 72
1, 86880, Note_on_c, 0, 80, 0
1, 86880, Note_on_c, 0, 83, 68
1, 87040, Note_on_c, 0, 83, 0
1, 87040, Note_on_c, 0, 81, 72
1, 87200, Note_on_c, 0, 81, 0
1, 87200, Note_on_c, 0, 80, 69
1, 87360, Tempo, 440723
1, 87360, Note_on_c, 0, 80, 0
1, 87360, Note_on_c, 0, 68, 0
1, 87360, Note_on_c, 0, 76, 0
1, 87360, Note_on_c, 0, 64, 0
1, 87360, Note_on_c, 0, 75, 67
1, 87360, Note_on_c, 0, 78, 67
1, 87360, Note_on_c, 0, 63, 45
1, 87360, Note_on_c, 0, 66, 53
1, 87520, Note_on_c, 0, 78, 0
1, 87520, Note_on_c, 0, 75, 0
1, 87520, Note_on_c, 0, 73, 64
1, 87520, Note_on_c, 0, 76, 64
1, 87680, Note_on_c, 0, 76, 0
1, 87680, Note_on_c, 0, 73, 0
1, 87680, Note_on_c, 0, 75, 60
1, 87680, Note_on_c, 0, 71, 60
1, 87840, Tempo, 459982
1, 87840, Note_on_c, 0, 71, 0
1, 87840, Note_on_c, 0, 66, 0
1, 87840, Note_on_c, 0, 75, 0
1, 87840, Note_on_c, 0, 63, 0
1, 87840, Note_on_c, 0, 69, 60
1, 87840, Note_on_c, 0, 73, 60
1, 87840, Note_on_c, 0, 47, 44
1, 88000, Note_on_c, 0, 47, 0
1, 88000, Note_on_c, 0, 73, 0
1, 88000, Note_on_c, 0, 69, 0
1, 88000, Note_on_c, 0, 68, 56
1, 88000, Note_on_c, 0, 71, 56
1, 88000, Note_on_c, 0, 49, 43
1, 88160, Note_on_c, 0, 49, 0
1, 88160, Note_on_c, 0, 71, 0
1, 88160, Note_on_c, 0, 68, 0
1, 88160, Note_on_c, 0, 66, 53
1, 88160, Note_on_c, 0, 69, 53
1, 88160, Note_on_c, 0, 51, 41
1, 88318, Note_on_c, 0, 59, 0
1, 88320, Tempo, 434122
1, 88320, Note_on_c, 0, 66, 0
1, 88320, Note_on_c, 0, 69, 0
1, 88320, Note_on_c, 0, 51, 0
1, 88320, Note_on_c, 0, 59, 57
1, 88320, Note_on_c, 0, 68, 57
1, 88320, Note_on_c, 0, 56, 45
1, 88320, Note_on_c, 0, 52, 37
1, 88480, Note_on_c, 0, 68, 0
1, 88480, Note_on_c, 0, 67, 49
1, 88640, Note_on_c, 0, 67, 0
1, 88640, Note_on_c, 0, 68, 49
1, 88800, Note_on_c, 0, 68, 0
1, 88800, Note_on_c, 0, 69, 49
1, 88960, Note_on_c, 0, 69, 0
1, 88960, Note_on_c, 0, 67, 49
1, 89120, Note_on_c, 0, 67, 0
1, 89120, Note_on_c, 0, 68, 49
1, 89280, Tempo, 424598
1, 89280, Note_on_c, 0, 68, 0
1, 89280, Note_on_c, 0, 52, 0
1, 89280, Note_on_c, 0, 56, 0
1, 89280, Note_on_c, 0, 59, 0
1, 89280, Note_on_c, 0, 57, 56
1, 89280, Note_on_c, 0, 54, 41
1, 89280, Note_on_c, 0, 51, 33
1, 89280, Note_on_c, 0, 47, 33
1, 89440, Note_on_c, 0, 68, 50
1, 89600, Note_on_c, 0, 68, 0
1, 89600, Note_on_c, 0, 66, 50
1, 89760, Tempo, 449270
1, 89760, Note_on_c, 0, 66, 0
1, 89760, Note_on_c, 0, 47, 0
1, 89760, Note_on_c, 0, 57, 0
1, 89760, Note_on_c, 0, 54, 0
1, 89760, Note_on_c, 0, 51, 0
1, 89760, Note_on_c, 0, 56, 56
1, 89760, Note_on_c, 0, 52, 41
1, 89760, Note_on_c, 0, 49, 33
1, 89920, Note_on_c, 0, 66, 49
1, 90080, Note_on_c, 0, 66, 0
1, 90080, Note_on_c, 0, 64, 49
1, 90240, Tempo, 435761
1, 90240, Note_on_c, 0, 64, 0
1, 90240, Note_on_c, 0, 49, 0
1, 90240, Note_on_c, 0, 52, 0
1, 90240, Note_on_c, 0, 56, 0
1, 90240, Note_on_c, 0, 51, 37
1, 90240, Note_on_c, 0, 54, 49
1, 90240, Note_on_c, 0, 48, 37
1, 90240, Note_on_c, 0, 44, 37
1, 90400, Note_on_c, 0, 60, 50
1, 90560, Note_on_c, 0, 60, 0
1, 90560, Note_on_c, 0, 63, 50
1, 90720, Note_on_c, 0, 63, 0
1, 90720, Note_on_c, 0, 64, 53
1, 90880, Note_on_c, 0, 64, 0
1, 90880, Note_on_c, 0, 60, 50
1, 91040, Note_on_c, 0, 60, 0
1, 91040, Note_on_c, 0, 63, 50
1, 91200, Note_on_c, 0, 63, 0
1, 91200, Note_on_c, 0, 48, 0
1, 91200, Note_on_c, 0, 51, 0
1, 91200, Note_on_c, 0, 54, 0
1, 91200, Note_on_c, 0, 44, 0
1, 91200, Note_on_c, 0, 45, 39
1, 91200, Note_on_c, 0, 49, 39
1, 91200, Note_on_c, 0, 52, 32
1, 91360, Note_on_c, 0, 57, 50
1, 91520, Note_on_c, 0, 57, 0
1, 91520, Note_on_c, 0, 61, 50
1, 91680, Tempo, 456343
1, 91680, Note_on_c, 0, 61, 0
1, 91680, Note_on_c, 0, 63, 53
1, 91840, Note_on_c, 0, 63, 0
1, 91840, Note_on_c, 0, 57, 50
1, 92000, Note_on_c, 0, 57, 0
1, 92000, Note_on_c, 0, 61, 50
1, 92160, Tempo, 439046
1, 92160, Note_on_c, 0, 61, 0
1, 92160, Note_on_c, 0, 45, 0
1, 92160, Note_on_c, 0, 49, 0
1, 92160, Note_on_c, 0, 52, 0
1, 92160, Note_on_c, 0, 52, 60
1, 92160, Note_on_c, 0, 35, 46
1, 92160, Note_on_c, 0, 47, 55
1, 92212, Control_c, 0, 64, 127
1, 92320, Note_on_c, 0, 56, 56
1, 92480, Tempo, 463643
1, 92480, Note_on_c, 0, 56, 0
1, 92480, Note_on_c, 0, 59, 57
1, 92640, Tempo, 444115
1, 92640, Note_on_c, 0, 59, 0
1, 92640, Note_on_c, 0, 52, 0
1, 92640, Note_on_c, 0, 54, 66
1, 92650, Control_c, 0, 64, 0
1, 92709, Control_c, 0, 64, 127
1, 92800, Note_on_c, 0, 57, 61
1, 92960, Tempo, 475059
1, 92960, Note_on_c, 0, 57, 0
1, 92960, Note_on_c, 0, 59, 61
1, 93120, Tempo, 459982
1, 93120, Note_on_c, 0, 59, 0
1, 93120, Note_on_c, 0, 54, 0
1, 93120, Note_on_c, 0, 54, 74
1, 93139, Control_c, 0, 64, 0
1, 93189, Control_c, 0, 64, 127
1, 93200, Tempo, 449270
1, 93280, Note_on_c, 0, 57, 67
1, 93440, Tempo, 463643
1, 93440, Note_on_c, 0, 57, 0
1, 93440, Note_on_c, 0, 61, 65
1, 93600, Tempo, 451026
1, 93600, Note_on_c, 0, 61, 0
1, 93600, Note_on_c, 0, 54, 0
1, 93600, Note_on_c, 0, 54, 80
1, 93619, Control_c, 0, 64, 0
1, 93680, Control_c, 0, 64, 127
1, 93760, Note_on_c, 0, 57, 71
1, 93920, Tempo, 465513
1, 93920, Note_on_c, 0, 57, 0
1, 93920, Note_on_c, 0, 63, 70
1, 94071, Tempo, 435761
1, 94080, Tempo, 437413
1, 94080, Note_on_c, 0, 63, 0
1, 94080, Note_on_c, 0, 54, 0
1, 94080, Note_on_c, 0, 47, 0
1, 94080, Note_on_c, 0, 35, 0
1, 94080, Note_on_c, 0, 56, 77
1, 94080, Note_on_c, 0, 64, 82
1, 94080, Note_on_c, 0, 40, 50
1, 94080, Note_on_c, 0, 52, 60
1, 94085, Control_c, 0, 64, 0
1, 94177, Control_c, 0, 64, 127
1, 94240, Note_on_c, 0, 64, 0
1, 94240, Note_on_c, 0, 56, 0
1, 94240, Note_on_c, 0, 59, 75
1, 94400, Note_on_c, 0, 59, 0
1, 94400, Note_on_c, 0, 56, 77
1, 94560, Note_on_c, 0, 56, 0
1, 94560, Note_on_c, 0, 40, 0
1, 94560, Note_on_c, 0, 52, 0
1, 94560, Note_on_c, 0, 59, 82
1, 94560, Note_on_c, 0, 47, 76
1, 94720, Note_on_c, 0, 59, 0
1, 94720, Note_on_c, 0, 64, 77
1, 94880, Tempo, 449270
1, 94880, Note_on_c, 0, 64, 0
1, 94880, Note_on_c, 0, 68, 77
1, 95040, Tempo, 435761
1, 95040, Note_on_c, 0, 68, 0
1, 95040, Note_on_c, 0, 66, 82
1, 95057, Control_c, 0, 64, 0
1, 95160, Control_c, 0, 64, 127
1, 95200, Note_on_c, 0, 66, 0
1, 95200, Note_on_c, 0, 63, 77
1, 95360, Note_on_c, 0, 63, 0
1, 95360, Note_on_c, 0, 59, 77
1, 95520, Note_on_c, 0, 59, 0
1, 95520, Note_on_c, 0, 47, 0
1, 95520, Note_on_c, 0, 63, 82
1, 95520, Note_on_c, 0, 47, 76
1, 95680, Note_on_c, 0, 63, 0
1, 95680, Note_on_c, 0, 66, 77
1, 95840, Tempo, 451026
1, 95840, Note_on_c, 0, 66, 0
1, 95840, Note_on_c, 0, 69, 77
1, 96000, Tempo, 430911
1, 96000, Note_on_c, 0, 69, 0
1, 96000, Note_on_c, 0, 68, 82
1, 96009, Control_c, 0, 64, 0
1, 96080, Control_c, 0, 64, 127
1, 96160, Note_on_c, 0, 68, 0
1, 96160, Note_on_c, 0, 64, 75
1, 96320, Note_on_c, 0, 64, 0
1, 96320, Note_on_c, 0, 59, 77
1, 96480, Note_on_c, 0, 59, 0
1, 96480, Note_on_c, 0, 47, 0
1, 96480, Note_on_c, 0, 64, 82
1, 96480, Note_on_c, 0, 47, 75
1, 96640, Note_on_c, 0, 64, 0
1, 96640, Note_on_c, 0, 68, 77
1, 96800, Tempo, 449270
1, 96800, Note_on_c, 0, 68, 0
1, 96800, Note_on_c, 0, 71, 77
1, 96960, Tempo, 427716
1, 96960, Note_on_c, 0, 71, 0
1, 96960, Note_on_c, 0, 69, 82
1, 96977, Control_c, 0, 64, 0
1, 97046, Control_c, 0, 64, 127
1, 97120, Note_on_c, 0, 69, 0
1, 97120, Note_on_c, 0, 66, 77
1, 97280, Tempo, 445831
1, 97280, Note_on_c, 0, 66, 0
1, 97280, Note_on_c, 0, 63, 77
1, 97440, Tempo, 427716
1, 97440, Note_on_c, 0, 63, 0
1, 97440, Note_on_c, 0, 47, 0
1, 97440, Note_on_c, 0, 75, 82
1, 97440, Note_on_c, 0, 47, 74
1, 97600, Note_on_c, 0, 75, 0
1, 97600, Note_on_c, 0, 69, 77
1, 97760, Note_on_c, 0, 69, 0
1, 97760, Note_on_c, 0, 66, 77
1, 97920, Tempo, 426136
1, 97920, Note_on_c, 0, 66, 0
1, 97920, Note_on_c, 0, 47, 0
1, 97920, Note_on_c, 0, 68, 63
1, 97920, Note_on_c, 0, 76, 75
1, 97920, Note_on_c, 0, 52, 73
1, 97923, Control_c, 0, 64, 0
1, 97983, Control_c, 0, 64, 127
1, 98080, Note_on_c, 0, 52, 0
1, 98080, Note_on_c, 0, 47, 67
1, 98240, Note_on_c, 0, 47, 0
1, 98240, Note_on_c, 0, 44, 69
1, 98400, Note_on_c, 0, 44, 0
1, 98400, Note_on_c, 0, 76, 0
1, 98400, Note_on_c, 0, 68, 0
1, 98400, Note_on_c, 0, 71, 80
1, 98400, Note_on_c, 0, 47, 73
1, 98560, Note_on_c, 0, 47, 0
1, 98560, Note_on_c, 0, 52, 69
1, 98720, Tempo, 440723
1, 98720, Note_on_c, 0, 52, 0
1, 98720, Note_on_c, 0, 56, 69
1, 98880, Tempo, 429307
1, 98880, Note_on_c, 0, 56, 0
1, 98880, Note_on_c, 0, 54, 73
1, 98894, Control_c, 0, 64, 0
1, 98977, Control_c, 0, 64, 127
1, 99040, Note_on_c, 0, 54, 0
1, 99040, Note_on_c, 0, 51, 69
1, 99200, Note_on_c, 0, 51, 0
1, 99200, Note_on_c, 0, 47, 69
1, 99360, Note_on_c, 0, 47, 0
1, 99360, Note_on_c, 0, 71, 0
1, 99360, Note_on_c, 0, 71, 80
1, 99360, Note_on_c, 0, 51, 73
1, 99520, Note_on_c, 0, 51, 0
1, 99520, Note_on_c, 0, 54, 69
1, 99680, Tempo, 442413
1, 99680, Note_on_c, 0, 54, 0
1, 99680, Note_on_c, 0, 57, 69
1, 99840, Tempo, 429307
1, 99840, Note_on_c, 0, 57, 0
1, 99840, Note_on_c, 0, 56, 73
1, 99857, Control_c, 0, 64, 0
1, 99915, Control_c, 0, 64, 127
1, 100000, Note_on_c, 0, 56, 0
1, 100000, Note_on_c, 0, 52, 67
1, 100160, Note_on_c, 0, 52, 0
1, 100160, Note_on_c, 0, 47, 69
1, 100320, Note_on_c, 0, 47, 0
1, 100320, Note_on_c, 0, 71, 0
1, 100320, Note_on_c, 0, 71, 80
1, 100320, Note_on_c, 0, 52, 73
1, 100480, Note_on_c, 0, 52, 0
1, 100480, Note_on_c, 0, 56, 69
1, 100640, Tempo, 442413
1, 100640, Note_on_c, 0, 56, 0
1, 100640, Note_on_c, 0, 59, 69
1, 100800, Tempo, 430911
1, 100800, Note_on_c, 0, 59, 0
1, 100800, Note_on_c, 0, 57, 73
1, 100816, Control_c, 0, 64, 0
1, 100897, Control_c, 0, 64, 127
1, 100960, Note_on_c, 0, 57, 0
1, 100960, Note_on_c, 0, 54, 69
1, 101120, Tempo, 444115
1, 101120, Note_on_c, 0, 54, 0
1, 101120, Note_on_c, 0, 51, 69
1, 101280, Tempo, 427716
1, 101280, Note_on_c, 0, 51, 0
1, 101280, Note_on_c, 0, 71, 0
1, 101280, Note_on_c, 0, 71, 80
1, 101280, Note_on_c, 0, 63, 73
1, 101440, Note_on_c, 0, 63, 0
1, 101440, Note_on_c, 0, 57, 69
1, 101600, Tempo, 444115
1, 101600, Note_on_c, 0, 57, 0
1, 101600, Note_on_c, 0, 54, 69
1, 101760, Tempo, 426136
1, 101760, Note_on_c, 0, 54, 0
1, 101760, Note_on_c, 0, 71, 0
1, 101760, Note_on_c, 0, 76, 82
1, 101760, Note_on_c, 0, 56, 64
1, 101775, Control_c, 0, 64, 0
1, 101829, Control_c, 0, 64, 127
1, 101920, Note_on_c, 0, 56, 0
1, 101920, Note_on_c, 0, 76, 0
1, 101920, Note_on_c, 0, 71, 75
1, 101920, Note_on_c, 0, 59, 56
1, 102080, Note_on_c, 0, 59, 0
1, 102080, Note_on_c, 0, 71, 0
1, 102080, Note_on_c, 0, 68, 77
1, 102080, Note_on_c, 0, 64, 56
1, 102240, Note_on_c, 0, 64, 0
1, 102240, Note_on_c, 0, 68, 0
1, 102240, Note_on_c, 0, 71, 82
1, 102240, Note_on_c, 0, 59, 64
1, 102400, Note_on_c, 0, 59, 0
1, 102400, Note_on_c, 0, 71, 0
1, 102400, Note_on_c, 0, 76, 77
1, 102400, Note_on_c, 0, 56, 57
1, 102560, Tempo, 440723
1, 102560, Note_on_c, 0, 56, 0
1, 102560, Note_on_c, 0, 76, 0
1, 102560, Note_on_c, 0, 80, 77
1, 102560, Note_on_c, 0, 52, 57
1, 102720, Tempo, 427716
1, 102720, Note_on_c, 0, 52, 0
1, 102720, Note_on_c, 0, 80, 0
1, 102720, Note_on_c, 0, 78, 82
1, 102720, Note_on_c, 0, 51, 64
1, 102733, Control_c, 0, 64, 0
1, 102795, Control_c, 0, 64, 127
1, 102880, Note_on_c, 0, 51, 0
1, 102880, Note_on_c, 0, 78, 0
1, 102880, Note_on_c, 0, 75, 77
1, 102880, Note_on_c, 0, 54, 56
1, 103040, Note_on_c, 0, 54, 0
1, 103040, Note_on_c, 0, 75, 0
1, 103040, Note_on_c, 0, 71, 77
1, 103040, Note_on_c, 0, 57, 56
1, 103200, Note_on_c, 0, 57, 0
1, 103200, Note_on_c, 0, 71, 0
1, 103200, Note_on_c, 0, 75, 82
1, 103200, Note_on_c, 0, 54, 64
1, 103360, Note_on_c, 0, 54, 0
1, 103360, Note_on_c, 0, 75, 0
1, 103360, Note_on_c, 0, 78, 77
1, 103360, Note_on_c, 0, 51, 57
1, 103520, Tempo, 439046
1, 103520, Note_on_c, 0, 51, 0
1, 103520, Note_on_c, 0, 78, 0
1, 103520, Note_on_c, 0, 81, 77
1, 103520, Note_on_c, 0, 47, 58
1, 103680, Tempo, 424598
1, 103680, Note_on_c, 0, 47, 0
1, 103680, Note_on_c, 0, 81, 0
1, 103680, Note_on_c, 0, 80, 82
1, 103686, Note_on_c, 0, 52, 64
1, 103692, Control_c, 0, 64, 0
1, 103755, Control_c, 0, 64, 127
1, 103840, Note_on_c, 0, 80, 0
1, 103840, Note_on_c, 0, 76, 75
1, 103840, Note_on_c, 0, 56, 56
1, 103846, Note_on_c, 0, 52, 0
1, 104000, Note_on_c, 0, 56, 0
1, 104000, Note_on_c, 0, 76, 0
1, 104000, Note_on_c, 0, 71, 77
1, 104000, Note_on_c, 0, 59, 56
1, 104160, Note_on_c, 0, 59, 0
1, 104160, Note_on_c, 0, 71, 0
1, 104160, Note_on_c, 0, 76, 82
1, 104160, Note_on_c, 0, 56, 64
1, 104320, Note_on_c, 0, 56, 0
1, 104320, Note_on_c, 0, 76, 0
1, 104320, Note_on_c, 0, 80, 77
1, 104320, Note_on_c, 0, 52, 57
1, 104480, Tempo, 465513
1, 104480, Note_on_c, 0, 52, 0
1, 104480, Note_on_c, 0, 80, 0
1, 104480, Note_on_c, 0, 83, 77
1, 104486, Note_on_c, 0, 47, 57
1, 104640, Tempo, 426136
1, 104640, Note_on_c, 0, 83, 0
1, 104640, Note_on_c, 0, 81, 82
1, 104640, Note_on_c, 0, 51, 64
1, 104646, Note_on_c, 0, 47, 0
1, 104660, Control_c, 0, 64, 0
1, 104743, Control_c, 0, 64, 127
1, 104800, Note_on_c, 0, 51, 0
1, 104800, Note_on_c, 0, 81, 0
1, 104800, Note_on_c, 0, 78, 77
1, 104800, Note_on_c, 0, 57, 56
1, 104960, Tempo, 459982
1, 104960, Note_on_c, 0, 57, 0
1, 104960, Note_on_c, 0, 78, 0
1, 104960, Note_on_c, 0, 75, 77
1, 104966, Note_on_c, 0, 59, 56
1, 105120, Tempo, 424598
1, 105120, Note_on_c, 0, 75, 0
1, 105120, Note_on_c, 0, 87, 82
1, 105120, Note_on_c, 0, 57, 64
1, 105126, Note_on_c, 0, 59, 0
1, 105280, Note_on_c, 0, 57, 0
1, 105280, Note_on_c, 0, 87, 0
1, 105280, Note_on_c, 0, 81, 77
1, 105280, Note_on_c, 0, 59, 57
1, 105440, Note_on_c, 0, 59, 0
1, 105440, Note_on_c, 0, 81, 0
1, 105440, Note_on_c, 0, 78, 77
1, 105440, Note_on_c, 0, 66, 58
1, 105600, Tempo, 423042
1, 105600, Note_on_c, 0, 66, 0
1, 105600, Note_on_c, 0, 78, 0
1, 105600, Note_on_c, 0, 88, 84
1, 105600, Note_on_c, 0, 56, 64
1, 105616, Control_c, 0, 64, 0
1, 105686, Control_c, 0, 64, 127
1, 105760, Note_on_c, 0, 56, 0
1, 105760, Note_on_c, 0, 83, 74
1, 105760, Note_on_c, 0, 59, 55
1, 105840, Note_on_c, 0, 88, 0
1, 105920, Note_on_c, 0, 59, 0
1, 105920, Note_on_c, 0, 83, 0
1, 105920, Note_on_c, 0, 80, 74
1, 105920, Note_on_c, 0, 64, 55
1, 106080, Note_on_c, 0, 64, 0
1, 106080, Note_on_c, 0, 80, 0
1, 106080, Note_on_c, 0, 83, 79
1, 106080, Note_on_c, 0, 52, 62
1, 106240, Note_on_c, 0, 52, 0
1, 106240, Note_on_c, 0, 80, 73
1, 106240, Note_on_c, 0, 56, 55
1, 106320, Note_on_c, 0, 83, 0
1, 106400, Tempo, 439046
1, 106400, Note_on_c, 0, 56, 0
1, 106400, Note_on_c, 0, 80, 0
1, 106400, Note_on_c, 0, 76, 72
1, 106400, Note_on_c, 0, 59, 54
1, 106560, Tempo, 421496
1, 106560, Note_on_c, 0, 59, 0
1, 106560, Note_on_c, 0, 76, 0
1, 106560, Note_on_c, 0, 81, 78
1, 106560, Note_on_c, 0, 54, 59
1, 106571, Control_c, 0, 64, 0
1, 106629, Control_c, 0, 64, 127
1, 106720, Note_on_c, 0, 54, 0
1, 106720, Note_on_c, 0, 78, 71
1, 106720, Note_on_c, 0, 57, 51
1, 106800, Note_on_c, 0, 81, 0
1, 106880, Note_on_c, 0, 57, 0
1, 106880, Note_on_c, 0, 78, 0
1, 106880, Note_on_c, 0, 75, 70
1, 106880, Note_on_c, 0, 59, 51
1, 107040, Note_on_c, 0, 59, 0
1, 107040, Note_on_c, 0, 75, 0
1, 107040, Note_on_c, 0, 87, 77
1, 107040, Note_on_c, 0, 57, 57
1, 107200, Note_on_c, 0, 57, 0
1, 107200, Note_on_c, 0, 83, 69
1, 107200, Note_on_c, 0, 59, 51
1, 107280, Note_on_c, 0, 87, 0
1, 107360, Tempo, 463643
1, 107360, Note_on_c, 0, 59, 0
1, 107360, Note_on_c, 0, 83, 0
1, 107360, Note_on_c, 0, 78, 67
1, 107360, Note_on_c, 0, 66, 51
1, 107520, Tempo, 419962
1, 107520, Note_on_c, 0, 66, 0
1, 107520, Note_on_c, 0, 78, 0
1, 107520, Note_on_c, 0, 88, 74
1, 107520, Note_on_c, 0, 56, 56
1, 107531, Control_c, 0, 64, 0
1, 107583, Control_c, 0, 64, 127
1, 107680, Note_on_c, 0, 56, 0
1, 107680, Note_on_c, 0, 83, 65
1, 107680, Note_on_c, 0, 59, 48
1, 107760, Note_on_c, 0, 88, 0
1, 107840, Note_on_c, 0, 59, 0
1, 107840, Note_on_c, 0, 83, 0
1, 107840, Note_on_c, 0, 80, 65
1, 107840, Note_on_c, 0, 64, 48
1, 108000, Note_on_c, 0, 64, 0
1, 108000, Note_on_c, 0, 80, 0
1, 108000, Note_on_c, 0, 83, 72
1, 108000, Note_on_c, 0, 52, 54
1, 108160, Note_on_c, 0, 52, 0
1, 108160, Note_on_c, 0, 80, 64
1, 108160, Note_on_c, 0, 56, 48
1, 108240, Note_on_c, 0, 83, 0
1, 108320, Tempo, 440723
1, 108320, Note_on_c, 0, 56, 0
1, 108320, Note_on_c, 0, 80, 0
1, 108320, Note_on_c, 0, 76, 63
1, 108320, Note_on_c, 0, 59, 47
1, 108480, Tempo, 418468
1, 108480, Note_on_c, 0, 59, 0
1, 108480, Note_on_c, 0, 76, 0
1, 108480, Note_on_c, 0, 81, 69
1, 108480, Note_on_c, 0, 54, 51
1, 108491, Control_c, 0, 64, 0
1, 108566, Control_c, 0, 64, 127
1, 108640, Note_on_c, 0, 54, 0
1, 108640, Note_on_c, 0, 78, 62
1, 108640, Note_on_c, 0, 57, 44
1, 108720, Note_on_c, 0, 81, 0
1, 108800, Note_on_c, 0, 57, 0
1, 108800, Note_on_c, 0, 78, 0
1, 108800, Note_on_c, 0, 75, 60
1, 108800, Note_on_c, 0, 59, 44
1, 108960, Note_on_c, 0, 59, 0
1, 108960, Note_on_c, 0, 75, 0
1, 108960, Note_on_c, 0, 87, 68
1, 108960, Note_on_c, 0, 57, 50
1, 109120, Note_on_c, 0, 57, 0
1, 109120, Note_on_c, 0, 83, 59
1, 109120, Note_on_c, 0, 59, 44
1, 109200, Note_on_c, 0, 87, 0
1, 109280, Tempo, 463643
1, 109280, Note_on_c, 0, 59, 0
1, 109280, Note_on_c, 0, 83, 0
1, 109280, Note_on_c, 0, 78, 58
1, 109280, Note_on_c, 0, 66, 44
1, 109440, Tempo, 413964
1, 109440, Note_on_c, 0, 66, 0
1, 109440, Note_on_c, 0, 78, 0
1, 109440, Note_on_c, 0, 88, 64
1, 109440, Note_on_c, 0, 56, 50
1, 109449, Control_c, 0, 64, 0
1, 109560, Note_on_c, 0, 56, 0
1, 109560, Note_on_c, 0, 88, 0
1, 109560, Note_on_c, 0, 83, 58
1, 109560, Note_on_c, 0, 59, 43
1, 109620, Tempo, 412485
1, 109680, Note_on_c, 0, 59, 0
1, 109680, Note_on_c, 0, 83, 0
1, 109680, Note_on_c, 0, 80, 58
1, 109680, Note_on_c, 0, 52, 43
1, 109780, Tempo, 411043
1, 109800, Note_on_c, 0, 52, 0
1, 109800, Note_on_c, 0, 80, 0
1, 109800, Note_on_c, 0, 76, 59
1, 109800, Note_on_c, 0, 59, 44
1, 109920, Note_on_c, 0, 59, 0
1, 109920, Note_on_c, 0, 76, 0
1, 109920, Note_on_c, 0, 81, 65
1, 109920, Note_on_c, 0, 54, 51
1, 109940, Tempo, 409584
1, 110040, Note_on_c, 0, 54, 0
1, 110040, Note_on_c, 0, 81, 0
1, 110040, Note_on_c, 0, 78, 59
1, 110040, Note_on_c, 0, 59, 44
1, 110100, Tempo, 408136
1, 110160, Note_on_c, 0, 59, 0
1, 110160, Note_on_c, 0, 78, 0
1, 110160, Note_on_c, 0, 87, 62
1, 110160, Note_on_c, 0, 57, 44
1, 110260, Tempo, 406697
1, 110280, Note_on_c, 0, 57, 0
1, 110280, Note_on_c, 0, 87, 0
1, 110280, Note_on_c, 0, 83, 63
1, 110280, Note_on_c, 0, 59, 44
1, 110400, Note_on_c, 0, 59, 0
1, 110400, Note_on_c, 0, 83, 0
1, 110400, Note_on_c, 0, 88, 69
1, 110400, Note_on_c, 0, 56, 52
1, 110420, Tempo, 405296
1, 110520, Note_on_c, 0, 56, 0
1, 110520, Note_on_c, 0, 88, 0
1, 110520, Note_on_c, 0, 83, 63
1, 110520, Note_on_c, 0, 59, 46
1, 110640, Note_on_c, 0, 59, 0
1, 110640, Note_on_c, 0, 83, 0
1, 110640, Note_on_c, 0, 80, 63
1, 110640, Note_on_c, 0, 52, 47
1, 110760, Note_on_c, 0, 52, 0
1, 110760, Note_on_c, 0, 80, 0
1, 110760, Note_on_c, 0, 76, 64
1, 110760, Note_on_c, 0, 59, 49
1, 110880, Note_on_c, 0, 59, 0
1, 110880, Note_on_c, 0, 76, 0
1, 110880, Note_on_c, 0, 81, 71
1, 110880, Note_on_c, 0, 54, 55
1, 111000, Note_on_c, 0, 54, 0
1, 111000, Note_on_c, 0, 81, 0
1, 111000, Note_on_c, 0, 78, 66
1, 111000, Note_on_c, 0, 59, 48
1, 111120, Note_on_c, 0, 59, 0
1, 111120, Note_on_c, 0, 78, 0
1, 111120, Note_on_c, 0, 87, 67
1, 111120, Note_on_c, 0, 57, 48
1, 111240, Tempo, 437413
1, 111240, Note_on_c, 0, 57, 0
1, 111240, Note_on_c, 0, 87, 0
1, 111240, Note_on_c, 0, 83, 67
1, 111240, Note_on_c, 0, 59, 49
1, 111340, Tempo, 402468
1, 111360, Note_on_c, 0, 59, 0
1, 111360, Note_on_c, 0, 83, 0
1, 111360, Note_on_c, 0, 88, 74
1, 111360, Note_on_c, 0, 56, 58
1, 111480, Note_on_c, 0, 56, 0
1, 111480, Note_on_c, 0, 88, 0
1, 111480, Note_on_c, 0, 83, 67
1, 111480, Note_on_c, 0, 59, 50
1, 111540, Tempo, 401070
1, 111600, Note_on_c, 0, 59, 0
1, 111600, Note_on_c, 0, 83, 0
1, 111600, Note_on_c, 0, 87, 69
1, 111600, Note_on_c, 0, 57, 51
1, 111720, Note_on_c, 0, 57, 0
1, 111720, Note_on_c, 0, 87, 0
1, 111720, Note_on_c, 0, 83, 69
1, 111720, Note_on_c, 0, 59, 52
1, 111740, Tempo, 399707
1, 111840, Note_on_c, 0, 59, 0
1, 111840, Note_on_c, 0, 83, 0
1, 111840, Note_on_c, 0, 88, 77
1, 111840, Note_on_c, 0, 56, 60
1, 111940, Tempo, 398327
1, 111960, Note_on_c, 0, 56, 0
1, 111960, Note_on_c, 0, 88, 0
1, 111960, Note_on_c, 0, 83, 77
1, 111960, Note_on_c, 0, 59, 52
1, 112080, Note_on_c, 0, 59, 0
1, 112080, Note_on_c, 0, 83, 0
1, 112080, Note_on_c, 0, 87, 72
1, 112080, Note_on_c, 0, 57, 52
1, 112140, Tempo, 396957
1, 112200, Note_on_c, 0, 57, 0
1, 112200, Note_on_c, 0, 87, 0
1, 112200, Note_on_c, 0, 83, 73
1, 112200, Note_on_c, 0, 59, 54
1, 112320, Tempo, 395596
1, 112320, Note_on_c, 0, 59, 0
1, 112320, Note_on_c, 0, 83, 0
1, 112320, Note_on_c, 0, 88, 80
1, 112320, Note_on_c, 0, 56, 62
1, 112440, Note_on_c, 0, 56, 0
1, 112440, Note_on_c, 0, 88, 0
1, 112440, Note_on_c, 0, 83, 73
1, 112440, Note_on_c, 0, 59, 55
1, 112560, Note_on_c, 0, 59, 0
1, 112560, Note_on_c, 0, 83, 0
1, 112560, Note_on_c, 0, 87, 74
1, 112560, Note_on_c, 0, 57, 55
1, 112680, Note_on_c, 0, 57, 0
1, 112680, Note_on_c, 0, 87, 0
1, 112680, Note_on_c, 0, 83, 74
1, 112680, Note_on_c, 0, 59, 57
1, 112800, Note_on_c, 0, 59, 0
1, 112800, Note_on_c, 0, 83, 0
1, 112800, Note_on_c, 0, 88, 82
1, 112800, Note_on_c, 0, 56, 65
1, 112920, Note_on_c, 0, 56, 0
1, 112920, Note_on_c, 0, 88, 0
1, 112920, Note_on_c, 0, 83, 85
1, 112920, Note_on_c, 0, 59, 57
1, 113040, Note_on_c, 0, 59, 0
1, 113040, Note_on_c, 0, 83, 0
1, 113040, Note_on_c, 0, 87, 78
1, 113040, Note_on_c, 0, 57, 57
1, 113160, Tempo, 434122
1, 113160, Note_on_c, 0, 57, 0
1, 113160, Note_on_c, 0, 87, 0
1, 113160, Note_on_c, 0, 83, 79
1, 113160, Note_on_c, 0, 59, 58
1, 113280, Tempo, 394244
1, 113280, Note_on_c, 0, 59, 0
1, 113280, Note_on_c, 0, 83, 0
1, 113280, Note_on_c, 0, 88, 89
1, 113280, Note_on_c, 0, 56, 70
1, 113400, Note_on_c, 0, 56, 0
1, 113400, Note_on_c, 0, 88, 0
1, 113400, Note_on_c, 0, 83, 81
1, 113400, Note_on_c, 0, 59, 60
1, 113520, Note_on_c, 0, 59, 0
1, 113520, Note_on_c, 0, 83, 0
1, 113520, Note_on_c, 0, 86, 81
1, 113520, Note_on_c, 0, 44, 60
1, 113600, Tempo, 392927
1, 113640, Note_on_c, 0, 44, 0
1, 113640, Note_on_c, 0, 86, 0
1, 113640, Note_on_c, 0, 83, 81
1, 113640, Note_on_c, 0, 52, 62
1, 113760, Note_on_c, 0, 52, 0
1, 113760, Note_on_c, 0, 83, 0
1, 113760, Note_on_c, 0, 86, 89
1, 113760, Note_on_c, 0, 44, 70
1, 113857, Control_c, 0, 64, 127
1, 113880, Note_on_c, 0, 44, 0
1, 113880, Note_on_c, 0, 86, 0
1, 113880, Note_on_c, 0, 83, 83
1, 113880, Note_on_c, 0, 52, 60
1, 113920, Tempo, 391594
1, 114000, Note_on_c, 0, 52, 0
1, 114000, Note_on_c, 0, 83, 0
1, 114000, Note_on_c, 0, 86, 82
1, 114000, Note_on_c, 0, 44, 60
1, 114120, Note_on_c, 0, 44, 0
1, 114120, Note_on_c, 0, 86, 0
1, 114120, Note_on_c, 0, 83, 82
1, 114120, Note_on_c, 0, 52, 60
1, 114220, Tempo, 390269
1, 114240, Note_on_c, 0, 52, 0
1, 114240, Note_on_c, 0, 83, 0
1, 114240, Note_on_c, 0, 86, 89
1, 114240, Note_on_c, 0, 44, 70
1, 114360, Note_on_c, 0, 44, 0
1, 114360, Note_on_c, 0, 86, 0
1, 114360, Note_on_c, 0, 83, 81
1, 114360, Note_on_c, 0, 52, 60
1, 114480, Note_on_c, 0, 52, 0
1, 114480, Note_on_c, 0, 83, 0
1, 114480, Note_on_c, 0, 86, 81
1, 114480, Note_on_c, 0, 44, 60
1, 114600, Note_on_c, 0, 44, 0
1, 114600, Note_on_c, 0, 86, 0
1, 114600, Note_on_c, 0, 83, 81
1, 114600, Note_on_c, 0, 52, 62
1, 114720, Note_on_c, 0, 52, 0
1, 114720, Note_on_c, 0, 83, 0
1, 114720, Note_on_c, 0, 86, 89
1, 114720, Note_on_c, 0, 44, 70
1, 114840, Note_on_c, 0, 44, 0
1, 114840, Note_on_c, 0, 86, 0
1, 114840, Note_on_c, 0, 83, 83
1, 114840, Note_on_c, 0, 52, 60
1, 114960, Note_on_c, 0, 52, 0
1, 114960, Note_on_c, 0, 83, 0
1, 114960, Note_on_c, 0, 86, 82
1, 114960, Note_on_c, 0, 44, 60
1, 115080, Tempo, 405296
1, 115080, Note_on_c, 0, 44, 0
1, 115080, Note_on_c, 0, 86, 0
1, 115080, Note_on_c, 0, 83, 82
1, 115080, Note_on_c, 0, 52, 60
1, 115200, Tempo, 380035
1, 115200, Note_on_c, 0, 52, 0
1, 115200, Note_on_c, 0, 83, 0
1, 115200, Note_on_c, 0, 86, 89
1, 115200, Note_on_c, 0, 44, 70
1, 115210, Control_c, 0, 64, 0
1, 115269, Control_c, 0, 64, 127
1, 115320, Note_on_c, 0, 44, 0
1, 115320, Note_on_c, 0, 52, 60
1, 115440, Note_on_c, 0, 52, 0
1, 115440, Note_on_c, 0, 86, 0
1, 115440, Note_on_c, 0, 85, 81
1, 115440, Note_on_c, 0, 44, 60
1, 115560, Note_on_c, 0, 44, 0
1, 115560, Note_on_c, 0, 85, 0
1, 115560, Note_on_c, 0, 83, 81
1, 115560, Note_on_c, 0, 52, 62
1, 115680, Note_on_c, 0, 52, 0
1, 115680, Note_on_c, 0, 83, 0
1, 115680, Note_on_c, 0, 81, 88
1, 115680, Note_on_c, 0, 44, 70
1, 115800, Note_on_c, 0, 44, 0
1, 115800, Note_on_c, 0, 81, 0
1, 115800, Note_on_c, 0, 80, 83
1, 115800, Note_on_c, 0, 52, 60
1, 115920, Note_on_c, 0, 52, 0
1, 115920, Note_on_c, 0, 80, 0
1, 115920, Note_on_c, 0, 78, 83
1, 115920, Note_on_c, 0, 44, 60
1, 116040, Note_on_c, 0, 44, 0
1, 116040, Note_on_c, 0, 78, 0
1, 116040, Note_on_c, 0, 76, 83
1, 116040, Note_on_c, 0, 52, 61
1, 116160, Note_on_c, 0, 52, 0
1, 116160, Note_on_c, 0, 76, 0
1, 116160, Note_on_c, 0, 74, 88
1, 116160, Note_on_c, 0, 44, 71
1, 116280, Note_on_c, 0, 44, 0
1, 116280, Note_on_c, 0, 74, 0
1, 116280, Note_on_c, 0, 73, 82
1, 116280, Note_on_c, 0, 52, 61
1, 116400, Note_on_c, 0, 52, 0
1, 116400, Note_on_c, 0, 73, 0
1, 116400, Note_on_c, 0, 71, 83
1, 116400, Note_on_c, 0, 44, 61
1, 116520, Note_on_c, 0, 44, 0
1, 116520, Note_on_c, 0, 71, 0
1, 116520, Note_on_c, 0, 69, 83
1, 116520, Note_on_c, 0, 52, 63
1, 116640, Note_on_c, 0, 52, 0
1, 116640, Note_on_c, 0, 69, 0
1, 116640, Note_on_c, 0, 68, 91
1, 116640, Note_on_c, 0, 44, 72
1, 116760, Note_on_c, 0, 44, 0
1, 116760, Note_on_c, 0, 68, 0
1, 116760, Note_on_c, 0, 66, 86
1, 116760, Note_on_c, 0, 52, 62
1, 116880, Note_on_c, 0, 52, 0
1, 116880, Note_on_c, 0, 66, 0
1, 116880, Note_on_c, 0, 64, 85
1, 116880, Note_on_c, 0, 44, 62
1, 117000, Note_on_c, 0, 44, 0
1, 117000, Note_on_c, 0, 64, 0
1, 117000, Note_on_c, 0, 62, 85
1, 117000, Note_on_c, 0, 52, 62
1, 117120, Tempo, 370370
1, 117120, Note_on_c, 0, 52, 0
1, 117120, Note_on_c, 0, 62, 0
1, 117120, Note_on_c, 0, 61, 93
1, 117120, Note_on_c, 0, 45, 67
1, 117120, Note_on_c, 0, 49, 67
1, 117120, Note_on_c, 0, 52, 80
1, 117140, Tempo, 369231
1, 117140, Control_c, 0, 64, 0
1, 117180, Tempo, 368098
1, 117240, Note_on_c, 0, 61, 0
1, 117240, Note_on_c, 0, 63, 84
1, 117260, Tempo, 371517
1, 117280, Tempo, 373832
1, 117300, Note_on_c, 0, 45, 0
1, 117300, Note_on_c, 0, 52, 0
1, 117300, Note_on_c, 0, 49, 0
1, 117320, Tempo, 376176
1, 117340, Tempo, 377358
1, 117360, Note_on_c, 0, 63, 0
1, 117360, Note_on_c, 0, 64, 84
1, 117360, Note_on_c, 0, 45, 60
1, 117360, Note_on_c, 0, 49, 60
1, 117360, Note_on_c, 0, 52, 73
1, 117380, Tempo, 373832
1, 117400, Tempo, 371517
1, 117420, Tempo, 370370
1, 117480, Tempo, 371517
1, 117480, Note_on_c, 0, 64, 0
1, 117480, Note_on_c, 0, 63, 86
1, 117500, Tempo, 373832
1, 117520, Tempo, 375000
1, 117540, Tempo, 377358
1, 117540, Note_on_c, 0, 45, 0
1, 117540, Note_on_c, 0, 52, 0
1, 117540, Note_on_c, 0, 49, 0
1, 117580, Tempo, 373832
1, 117600, Note_on_c, 0, 63, 0
1, 117600, Note_on_c, 0, 64, 92
1, 117700, Tempo, 372671
1, 117720, Tempo, 369231
1, 117720, Note_on_c, 0, 64, 0
1, 117720, Note_on_c, 0, 68, 85
1, 117740, Tempo, 370370
1, 117760, Tempo, 372671
1, 117840, Tempo, 391594
1, 117840, Note_on_c, 0, 68, 0
1, 117840, Note_on_c, 0, 69, 85
1, 117840, Note_on_c, 0, 45, 60
1, 117840, Note_on_c, 0, 49, 60
1, 117840, Note_on_c, 0, 52, 73
1, 117960, Note_on_c, 0, 69, 0
1, 117960, Note_on_c, 0, 68, 85
1, 118020, Note_on_c, 0, 45, 0
1, 118020, Note_on_c, 0, 52, 0
1, 118020, Note_on_c, 0, 49, 0
1, 118080, Tempo, 375000
1, 118080, Note_on_c, 0, 68, 0
1, 118080, Note_on_c, 0, 69, 93
1, 118080, Note_on_c, 0, 45, 67
1, 118080, Note_on_c, 0, 49, 67
1, 118080, Note_on_c, 0, 52, 80
1, 118100, Tempo, 373832
1, 118120, Tempo, 371517
1, 118160, Tempo, 369231
1, 118200, Tempo, 368098
1, 118200, Note_on_c, 0, 69, 0
1, 118200, Note_on_c, 0, 72, 84
1, 118220, Tempo, 366972
1, 118240, Tempo, 370370
1, 118260, Tempo, 372671
1, 118260, Note_on_c, 0, 45, 0
1, 118260, Note_on_c, 0, 52, 0
1, 118260, Note_on_c, 0, 49, 0
1, 118280, Tempo, 373832
1, 118300, Tempo, 375000
1, 118320, Note_on_c, 0, 72, 0
1, 118320, Note_on_c, 0, 73, 84
1, 118320, Note_on_c, 0, 45, 60
1, 118320, Note_on_c, 0, 49, 60
1, 118320, Note_on_c, 0, 52, 73
1, 118400, Tempo, 371517
1, 118420, Tempo, 369231
1, 118440, Tempo, 368098
1, 118440, Note_on_c, 0, 73, 0
1, 118440, Note_on_c, 0, 72, 84
1, 118460, Tempo, 366972
1, 118500, Note_on_c, 0, 45, 0
1, 118500, Note_on_c, 0, 52, 0
1, 118500, Note_on_c, 0, 49, 0
1, 118520, Tempo, 369231
1, 118540, Tempo, 372671
1, 118560, Tempo, 373832
1, 118560, Note_on_c, 0, 72, 0
1, 118560, Note_on_c, 0, 73, 93
1, 118580, Tempo, 375000
1, 118600, Tempo, 376176
1, 118620, Tempo, 378549
1, 118640, Tempo, 377358
1, 118660, Tempo, 375000
1, 118680, Tempo, 372671
1, 118680, Note_on_c, 0, 73, 0
1, 118680, Note_on_c, 0, 75, 84
1, 118700, Tempo, 370370
1, 118720, Tempo, 369231
1, 118760, Tempo, 373832
1, 118800, Tempo, 390269
1, 118800, Note_on_c, 0, 75, 0
1, 118800, Note_on_c, 0, 76, 84
1, 118800, Note_on_c, 0, 45, 60
1, 118800, Note_on_c, 0, 49, 60
1, 118800, Note_on_c, 0, 52, 73
1, 118920, Note_on_c, 0, 76, 0
1, 118920, Note_on_c, 0, 75, 84
1, 118980, Note_on_c, 0, 45, 0
1, 118980, Note_on_c, 0, 52, 0
1, 118980, Note_on_c, 0, 49, 0
1, 119040, Tempo, 373902
1, 119040, Note_on_c, 0, 75, 0
1, 119040, Note_on_c, 0, 76, 95
1, 119040, Note_on_c, 0, 45, 67
1, 119040, Note_on_c, 0, 49, 67
1, 119040, Note_on_c, 0, 52, 78
1, 119060, Tempo, 373832
1, 119080, Tempo, 372671
1, 119100, Tempo, 371517
1, 119120, Tempo, 370370
1, 119140, Tempo, 368098
1, 119160, Note_on_c, 0, 76, 0
1, 119160, Note_on_c, 0, 80, 86
1, 119180, Tempo, 369231
1, 119200, Tempo, 372671
1, 119220, Tempo, 377358
1, 119220, Note_on_c, 0, 45, 0
1, 119220, Note_on_c, 0, 52, 0
1, 119220, Note_on_c, 0, 49, 0
1, 119260, Tempo, 376176
1, 119280, Tempo, 372671
1, 119280, Note_on_c, 0, 80, 0
1, 119280, Note_on_c, 0, 81, 86
1, 119280, Note_on_c, 0, 45, 60
1, 119280, Note_on_c, 0, 49, 60
1, 119280, Note_on_c, 0, 52, 73
1, 119320, Tempo, 370370
1, 119340, Tempo, 369231
1, 119400, Tempo, 372671
1, 119400, Note_on_c, 0, 81, 0
1, 119400, Note_on_c, 0, 80, 86
1, 119420, Tempo, 373832
1, 119440, Tempo, 375000
1, 119460, Tempo, 376176
1, 119460, Note_on_c, 0, 45, 0
1, 119460, Note_on_c, 0, 52, 0
1, 119460, Note_on_c, 0, 49, 0
1, 119500, Tempo, 375000
1, 119520, Tempo, 372671
1, 119520, Note_on_c, 0, 80, 0
1, 119520, Note_on_c, 0, 81, 95
1, 119540, Tempo, 370370
1, 119560, Tempo, 369231
1, 119620, Tempo, 371517
1, 119640, Tempo, 373832
1, 119640, Note_on_c, 0, 81, 0
1, 119640, Note_on_c, 0, 84, 86
1, 119660, Tempo, 372671
1, 119760, Tempo, 387672
1, 119760, Note_on_c, 0, 84, 0
1, 119760, Note_on_c, 0, 85, 86
1, 119760, Note_on_c, 0, 45, 60
1, 119760, Note_on_c, 0, 49, 60
1, 119760, Note_on_c, 0, 52, 73
1, 119880, Note_on_c, 0, 85, 0
1, 119880, Note_on_c, 0, 84, 86
1, 119940, Note_on_c, 0, 45, 0
1, 119940, Note_on_c, 0, 52, 0
1, 119940, Note_on_c, 0, 49, 0
1, 120000, Tempo, 373902
1, 120000, Note_on_c, 0, 84, 0
1, 120000, Note_on_c, 0, 85, 95
1, 120000, Note_on_c, 0, 45, 67
1, 120000, Note_on_c, 0, 49, 67
1, 120000, Note_on_c, 0, 52, 78
1, 120020, Tempo, 372671
1, 120040, Tempo, 370370
1, 120080, Tempo, 368098
1, 120100, Tempo, 366972
1, 120120, Tempo, 368098
1, 120120, Note_on_c, 0, 85, 0
1, 120120, Note_on_c, 0, 87, 86
1, 120140, Tempo, 371517
1, 120160, Tempo, 373832
1, 120180, Tempo, 376176
1, 120180, Note_on_c, 0, 45, 0
1, 120180, Note_on_c, 0, 52, 0
1, 120180, Note_on_c, 0, 49, 0
1, 120240, Tempo, 375000
1, 120240, Note_on_c, 0, 87, 0
1, 120240, Note_on_c, 0, 88, 86
1, 120240, Note_on_c, 0, 45, 60
1, 120240, Note_on_c, 0, 49, 60
1, 120240, Note_on_c, 0, 52, 73
1, 120260, Tempo, 371517
1, 120280, Tempo, 370370
1, 120300, Tempo, 369231
1, 120320, Tempo, 368098
1, 120340, Tempo, 366972
1, 120360, Note_on_c, 0, 88, 0
1, 120360, Note_on_c, 0, 87, 86
1, 120400, Tempo, 369231
1, 120420, Tempo, 370370
1, 120420, Note_on_c, 0, 45, 0
1, 120420, Note_on_c, 0, 52, 0
1, 120420, Note_on_c, 0, 49, 0
1, 120440, Tempo, 372671
1, 120460, Tempo, 373832
1, 120480, Tempo, 376176
1, 120480, Note_on_c, 0, 87, 0
1, 120480, Note_on_c, 0, 88, 95
1, 120500, Tempo, 378549
1, 120520, Tempo, 377358
1, 120540, Tempo, 376176
1, 120560, Tempo, 373832
1, 120580, Tempo, 371517
1, 120600, Tempo, 370370
1, 120600, Note_on_c, 0, 88, 0
1, 120600, Note_on_c, 0, 87, 86
1, 120640, Tempo, 373832
1, 120720, Tempo, 403877
1, 120720, Note_on_c, 0, 87, 0
1, 120720, Note_on_c, 0, 85, 86
1, 120720, Note_on_c, 0, 45, 60
1, 120720, Note_on_c, 0, 49, 60
1, 120720, Note_on_c, 0, 52, 73
1, 120840, Note_on_c, 0, 85, 0
1, 120840, Note_on_c, 0, 84, 86
1, 120900, Note_on_c, 0, 45, 0
1, 120900, Note_on_c, 0, 52, 0
1, 120900, Note_on_c, 0, 49, 0
1, 120940, Tempo, 373832
1, 120960, Note_on_c, 0, 84, 0
1, 120960, Note_on_c, 0, 85, 95
1, 120960, Note_on_c, 0, 52, 67
1, 120960, Note_on_c, 0, 46, 67
1, 120960, Note_on_c, 0, 49, 67
1, 120960, Note_on_c, 0, 54, 78
1, 120980, Tempo, 372671
1, 121000, Tempo, 370370
1, 121080, Note_on_c, 0, 85, 0
1, 121080, Note_on_c, 0, 84, 86
1, 121120, Tempo, 371517
1, 121140, Tempo, 373832
1, 121140, Note_on_c, 0, 49, 0
1, 121140, Note_on_c, 0, 54, 0
1, 121140, Note_on_c, 0, 52, 0
1, 121140, Note_on_c, 0, 46, 0
1, 121160, Tempo, 376176
1, 121180, Tempo, 377358
1, 121200, Note_on_c, 0, 84, 0
1, 121200, Note_on_c, 0, 85, 86
1, 121200, Note_on_c, 0, 52, 60
1, 121200, Note_on_c, 0, 46, 60
1, 121200, Note_on_c, 0, 49, 60
1, 121200, Note_on_c, 0, 54, 73
1, 121220, Tempo, 378549
1, 121260, Tempo, 375000
1, 121280, Tempo, 372671
1, 121300, Tempo, 370370
1, 121320, Tempo, 369231
1, 121320, Note_on_c, 0, 85, 0
1, 121320, Note_on_c, 0, 87, 86
1, 121380, Tempo, 371517
1, 121380, Note_on_c, 0, 49, 0
1, 121380, Note_on_c, 0, 54, 0
1, 121380, Note_on_c, 0, 52, 0
1, 121380, Note_on_c, 0, 46, 0
1, 121400, Tempo, 373832
1, 121440, Tempo, 375000
1, 121440, Note_on_c, 0, 87, 0
1, 121440, Note_on_c, 0, 88, 95
1, 121460, Tempo, 376176
1, 121480, Tempo, 375000
1, 121500, Tempo, 373832
1, 121520, Tempo, 372671
1, 121540, Tempo, 371517
1, 121560, Note_on_c, 0, 88, 0
1, 121560, Note_on_c, 0, 87, 86
1, 121580, Tempo, 373832
1, 121600, Tempo, 376176
1, 121620, Tempo, 375000
1, 121680, Tempo, 387672
1, 121680, Note_on_c, 0, 87, 0
1, 121680, Note_on_c, 0, 85, 86
1, 121680, Note_on_c, 0, 52, 60
1, 121680, Note_on_c, 0, 46, 60
1, 121680, Note_on_c, 0, 49, 60
1, 121680, Note_on_c, 0, 54, 73
1, 121800, Note_on_c, 0, 85, 0
1, 121800, Note_on_c, 0, 84, 86
1, 121860, Note_on_c, 0, 49, 0
1, 121860, Note_on_c, 0, 54, 0
1, 121860, Note_on_c, 0, 52, 0
1, 121860, Note_on_c, 0, 46, 0
1, 121920, Tempo, 373902
1, 121920, Note_on_c, 0, 84, 0
1, 121920, Note_on_c, 0, 85, 95
1, 121920, Note_on_c, 0, 52, 67
1, 121920, Note_on_c, 0, 46, 67
1, 121920, Note_on_c, 0, 49, 67
1, 121920, Note_on_c, 0, 54, 78
1, 121940, Tempo, 373832
1, 121980, Tempo, 371517
1, 122000, Tempo, 370370
1, 122020, Tempo, 369231
1, 122040, Note_on_c, 0, 85, 0
1, 122040, Note_on_c, 0, 84, 86
1, 122080, Tempo, 372671
1, 122100, Note_on_c, 0, 49, 0
1, 122100, Note_on_c, 0, 54, 0
1, 122100, Note_on_c, 0, 52, 0
1, 122100, Note_on_c, 0, 46, 0
1, 122120, Tempo, 373832
1, 122140, Tempo, 377358
1, 122160, Note_on_c, 0, 84, 0
1, 122160, Note_on_c, 0, 85, 86
1, 122160, Note_on_c, 0, 52, 60
1, 122160, Note_on_c, 0, 46, 60
1, 122160, Note_on_c, 0, 49, 60
1, 122160, Note_on_c, 0, 54, 73
1, 122240, Tempo, 375000
1, 122260, Tempo, 373832
1, 122280, Tempo, 372671
1, 122280, Note_on_c, 0, 85, 0
1, 122280, Note_on_c, 0, 87, 86
1, 122300, Tempo, 370370
1, 122320, Tempo, 369231
1, 122340, Tempo, 368098
1, 122340, Note_on_c, 0, 49, 0
1, 122340, Note_on_c, 0, 54, 0
1, 122340, Note_on_c, 0, 52, 0
1, 122340, Note_on_c, 0, 46, 0
1, 122360, Tempo, 372671
1, 122380, Tempo, 375000
1, 122400, Tempo, 376176
1, 122400, Note_on_c, 0, 87, 0
1, 122400, Note_on_c, 0, 88, 95
1, 122440, Tempo, 377358
1, 122500, Tempo, 376176
1, 122520, Tempo, 373832
1, 122520, Note_on_c, 0, 88, 0
1, 122520, Note_on_c, 0, 87, 86
1, 122540, Tempo, 372671
1, 122640, Tempo, 386374
1, 122640, Note_on_c, 0, 87, 0
1, 122640, Note_on_c, 0, 85, 86
1, 122640, Note_on_c, 0, 52, 60
1, 122640, Note_on_c, 0, 46, 60
1, 122640, Note_on_c, 0, 49, 60
1, 122640, Note_on_c, 0, 54, 73
1, 122760, Note_on_c, 0, 85, 0
1, 122760, Note_on_c, 0, 84, 86
1, 122820, Note_on_c, 0, 49, 0
1, 122820, Note_on_c, 0, 54, 0
1, 122820, Note_on_c, 0, 52, 0
1, 122820, Note_on_c, 0, 46, 0
1, 122880, Tempo, 373902
1, 122880, Note_on_c, 0, 84, 0
1, 122880, Note_on_c, 0, 85, 95
1, 122880, Note_on_c, 0, 52, 67
1, 122880, Note_on_c, 0, 46, 67
1, 122880, Note_on_c, 0, 49, 67
1, 122880, Note_on_c, 0, 54, 78
1, 122900, Tempo, 373832
1, 122940, Tempo, 372671
1, 122960, Tempo, 371517
1, 122980, Tempo, 370370
1, 123000, Note_on_c, 0, 85, 0
1, 123000, Note_on_c, 0, 84, 86
1, 123020, Tempo, 371517
1, 123060, Tempo, 373832
1, 123060, Note_on_c, 0, 49, 0
1, 123060, Note_on_c, 0, 54, 0
1, 123060, Note_on_c, 0, 52, 0
1, 123060, Note_on_c, 0, 46, 0
1, 123080, Tempo, 376176
1, 123100, Tempo, 377358
1, 123120, Note_on_c, 0, 84, 0
1, 123120, Note_on_c, 0, 85, 86
1, 123120, Note_on_c, 0, 52, 60
1, 123120, Note_on_c, 0, 46, 60
1, 123120, Note_on_c, 0, 49, 60
1, 123120, Note_on_c, 0, 54, 73
1, 123180, Tempo, 375000
1, 123200, Tempo, 373832
1, 123240, Note_on_c, 0, 85, 0
1, 123240, Note_on_c, 0, 87, 86
1, 123260, Tempo, 369231
1, 123300, Note_on_c, 0, 49, 0
1, 123300, Note_on_c, 0, 54, 0
1, 123300, Note_on_c, 0, 52, 0
1, 123300, Note_on_c, 0, 46, 0
1, 123320, Tempo, 370370
1, 123340, Tempo, 371517
1, 123360, Note_on_c, 0, 87, 0
1, 123360, Note_on_c, 0, 88, 95
1, 123380, Tempo, 372671
1, 123400, Tempo, 375000
1, 123460, Tempo, 372671
1, 123480, Note_on_c, 0, 88, 0
1, 123480, Note_on_c, 0, 87, 86
1, 123600, Tempo, 387672
1, 123600, Note_on_c, 0, 87, 0
1, 123600, Note_on_c, 0, 85, 86
1, 123600, Note_on_c, 0, 52, 60
1, 123600, Note_on_c, 0, 46, 60
1, 123600, Note_on_c, 0, 49, 60
1, 123600, Note_on_c, 0, 54, 73
1, 123720, Note_on_c, 0, 85, 0
1, 123720, Note_on_c, 0, 84, 86
1, 123780, Note_on_c, 0, 49, 0
1, 123780, Note_on_c, 0, 54, 0
1, 123780, Note_on_c, 0, 52, 0
1, 123780, Note_on_c, 0, 46, 0
1, 123840, Tempo, 373832
1, 123840, Note_on_c, 0, 84, 0
1, 123840, Note_on_c, 0, 85, 95
1, 123840, Note_on_c, 0, 52, 67
1, 123840, Note_on_c, 0, 46, 67
1, 123840, Note_on_c, 0, 49, 67
1, 123840, Note_on_c, 0, 54, 78
1, 123860, Tempo, 372671
1, 123880, Tempo, 371517
1, 123900, Tempo, 370370
1, 123920, Tempo, 369231
1, 123960, Tempo, 371517
1, 123960, Note_on_c, 0, 85, 0
1, 123960, Note_on_c, 0, 84, 86
1, 123980, Tempo, 373832
1, 124000, Tempo, 375000
1, 124020, Tempo, 376176
1, 124020, Note_on_c, 0, 49, 0
1, 124020, Note_on_c, 0, 54, 0
1, 124020, Note_on_c, 0, 52, 0
1, 124020, Note_on_c, 0, 46, 0
1, 124080, Tempo, 375000
1, 124080, Note_on_c, 0, 84, 0
1, 124080, Note_on_c, 0, 85, 86
1, 124080, Note_on_c, 0, 52, 60
1, 124080, Note_on_c, 0, 46, 60
1, 124080, Note_on_c, 0, 49, 60
1, 124080, Note_on_c, 0, 54, 73
1, 124100, Tempo, 372671
1, 124120, Tempo, 371517
1, 124180, Tempo, 370370
1, 124200, Tempo, 371517
1, 124200, Note_on_c, 0, 85, 0
1, 124200, Note_on_c, 0, 87, 86
1, 124240, Tempo, 372671
1, 124260, Note_on_c, 0, 49, 0
1, 124260, Note_on_c, 0, 54, 0
1, 124260, Note_on_c, 0, 52, 0
1, 124260, Note_on_c, 0, 46, 0
1, 124280, Tempo, 373832
1, 124300, Tempo, 375000
1, 124320, Note_on_c, 0, 87, 0
1, 124320, Note_on_c, 0, 88, 95
1, 124360, Tempo, 372671
1, 124380, Tempo, 370370
1, 124420, Tempo, 369231
1, 124440, Tempo, 370370
1, 124440, Note_on_c, 0, 88, 0
1, 124440, Note_on_c, 0, 87, 86
1, 124460, Tempo, 372671
1, 124560, Tempo, 386374
1, 124560, Note_on_c, 0, 87, 0
1, 124560, Note_on_c, 0, 88, 86
1, 124560, Note_on_c, 0, 52, 60
1, 124560, Note_on_c, 0, 46, 60
1, 124560, Note_on_c, 0, 49, 60
1, 124560, Note_on_c, 0, 54, 73
1, 124680, Note_on_c, 0, 88, 0
1, 124680, Note_on_c, 0, 85, 86
1, 124740, Note_on_c, 0, 49, 0
1, 124740, Note_on_c, 0, 54, 0
1, 124740, Note_on_c, 0, 52, 0
1, 124740, Note_on_c, 0, 46, 0
1, 124800, Tempo, 373902
1, 124800, Note_on_c, 0, 85, 0
1, 124800, Note_on_c, 0, 71, 87
1, 124800, Note_on_c, 0, 83, 103
1, 124800, Note_on_c, 0, 47, 78
1, 124897, Control_c, 0, 64, 127
1, 124920, Note_on_c, 0, 47, 0
1, 124920, Note_on_c, 0, 83, 0
1, 124920, Note_on_c, 0, 71, 0
1, 124920, Note_on_c, 0, 52, 70
1, 125040, Note_on_c, 0, 52, 0
1, 125040, Note_on_c, 0, 71, 73
1, 125040, Note_on_c, 0, 83, 87
1, 125040, Note_on_c, 0, 56, 70
1, 125160, Note_on_c, 0, 56, 0
1, 125160, Note_on_c, 0, 83, 0
1, 125160, Note_on_c, 0, 71, 0
1, 125160, Note_on_c, 0, 59, 70
1, 125280, Tempo, 378788
1, 125280, Note_on_c, 0, 59, 0
1, 125280, Note_on_c, 0, 68, 74
1, 125280, Note_on_c, 0, 80, 88
1, 125280, Note_on_c, 0, 47, 77
1, 125400, Note_on_c, 0, 47, 0
1, 125400, Note_on_c, 0, 80, 0
1, 125400, Note_on_c, 0, 68, 0
1, 125400, Note_on_c, 0, 52, 70
1, 125520, Note_on_c, 0, 52, 0
1, 125520, Note_on_c, 0, 64, 73
1, 125520, Note_on_c, 0, 76, 87
1, 125520, Note_on_c, 0, 56, 70
1, 125640, Note_on_c, 0, 56, 0
1, 125640, Note_on_c, 0, 76, 0
1, 125640, Note_on_c, 0, 64, 0
1, 125640, Note_on_c, 0, 59, 70
1, 125760, Tempo, 373902
1, 125760, Note_on_c, 0, 59, 0
1, 125760, Note_on_c, 0, 76, 87
1, 125760, Note_on_c, 0, 88, 103
1, 125760, Note_on_c, 0, 47, 75
1, 125880, Note_on_c, 0, 47, 0
1, 125880, Note_on_c, 0, 88, 0
1, 125880, Note_on_c, 0, 76, 0
1, 125880, Note_on_c, 0, 52, 70
1, 126000, Note_on_c, 0, 52, 0
1, 126000, Note_on_c, 0, 76, 73
1, 126000, Note_on_c, 0, 88, 87
1, 126000, Note_on_c, 0, 56, 70
1, 126120, Note_on_c, 0, 56, 0
1, 126120, Note_on_c, 0, 88, 0
1, 126120, Note_on_c, 0, 76, 0
1, 126120, Note_on_c, 0, 59, 70
1, 126240, Tempo, 381291
1, 126240, Note_on_c, 0, 59, 0
1, 126240, Note_on_c, 0, 71, 73
1, 126240, Note_on_c, 0, 83, 87
1, 126240, Note_on_c, 0, 47, 75
1, 126360, Note_on_c, 0, 47, 0
1, 126360, Note_on_c, 0, 83, 0
1, 126360, Note_on_c, 0, 71, 0
1, 126360, Note_on_c, 0, 52, 70
1, 126480, Note_on_c, 0, 52, 0
1, 126480, Note_on_c, 0, 68, 73
1, 126480, Note_on_c, 0, 80, 87
1, 126480, Note_on_c, 0, 56, 70
1, 126600, Note_on_c, 0, 56, 0
1, 126600, Note_on_c, 0, 80, 0
1, 126600, Note_on_c, 0, 68, 0
1, 126600, Note_on_c, 0, 59, 70
1, 126680, Tempo, 373902
1, 126720, Note_on_c, 0, 59, 0
1, 126720, Note_on_c, 0, 71, 87
1, 126720, Note_on_c, 0, 83, 103
1, 126720, Note_on_c, 0, 47, 78
1, 126720, Control_c, 0, 64, 0
1, 126800, Control_c, 0, 64, 127
1, 126840, Note_on_c, 0, 47, 0
1, 126840, Note_on_c, 0, 83, 0
1, 126840, Note_on_c, 0, 71, 0
1, 126840, Note_on_c, 0, 52, 70
1, 126960, Note_on_c, 0, 52, 0
1, 126960, Note_on_c, 0, 71, 73
1, 126960, Note_on_c, 0, 83, 87
1, 126960, Note_on_c, 0, 56, 70
1, 127080, Note_on_c, 0, 56, 0
1, 127080, Note_on_c, 0, 83, 0
1, 127080, Note_on_c, 0, 71, 0
1, 127080, Note_on_c, 0, 59, 70
1, 127200, Tempo, 377572
1, 127200, Note_on_c, 0, 59, 0
1, 127200, Note_on_c, 0, 68, 74
1, 127200, Note_on_c, 0, 80, 88
1, 127200, Note_on_c, 0, 47, 77
1, 127320, Note_on_c, 0, 47, 0
1, 127320, Note_on_c, 0, 80, 0
1, 127320, Note_on_c, 0, 68, 0
1, 127320, Note_on_c, 0, 52, 70
1, 127440, Note_on_c, 0, 52, 0
1, 127440, Note_on_c, 0, 64, 73
1, 127440, Note_on_c, 0, 76, 87
1, 127440, Note_on_c, 0, 56, 70
1, 127560, Note_on_c, 0, 56, 0
1, 127560, Note_on_c, 0, 76, 0
1, 127560, Note_on_c, 0, 64, 0
1, 127560, Note_on_c, 0, 59, 70
1, 127680, Tempo, 373902
1, 127680, Note_on_c, 0, 59, 0
1, 127680, Note_on_c, 0, 76, 87
1, 127680, Note_on_c, 0, 88, 103
1, 127680, Note_on_c, 0, 56, 75
1, 127800, Note_on_c, 0, 56, 0
1, 127800, Note_on_c, 0, 88, 0
1, 127800, Note_on_c, 0, 76, 0
1, 127920, Note_on_c, 0, 76, 73
1, 127920, Note_on_c, 0, 88, 87
1, 127920, Note_on_c, 0, 56, 70
1, 128040, Note_on_c, 0, 56, 0
1, 128040, Note_on_c, 0, 88, 0
1, 128040, Note_on_c, 0, 76, 0
1, 128160, Tempo, 378788
1, 128160, Note_on_c, 0, 71, 73
1, 128160, Note_on_c, 0, 83, 87
1, 128160, Note_on_c, 0, 52, 75
1, 128280, Note_on_c, 0, 52, 0
1, 128280, Note_on_c, 0, 83, 0
1, 128280, Note_on_c, 0, 71, 0
1, 128400, Note_on_c, 0, 68, 73
1, 128400, Note_on_c, 0, 80, 87
1, 128400, Note_on_c, 0, 47, 70
1, 128520, Note_on_c, 0, 47, 0
1, 128520, Note_on_c, 0, 80, 0
1, 128520, Note_on_c, 0, 68, 0
1, 128640, Tempo, 373902
1, 128640, Note_on_c, 0, 59, 86
1, 128640, Control_c, 0, 64, 0
1, 128755, Control_c, 0, 64, 127
1, 128760, Note_on_c, 0, 59, 0
1, 128760, Note_on_c, 0, 80, 47
1, 128880, Note_on_c, 0, 80, 0
1, 128880, Note_on_c, 0, 83, 50
1, 128880, Note_on_c, 0, 56, 47
1, 128999, Note_on_c, 0, 83, 0
1, 129000, Note_on_c, 0, 56, 0
1, 129000, Note_on_c, 0, 80, 47
1, 129120, Note_on_c, 0, 80, 0
1, 129120, Note_on_c, 0, 83, 51
1, 129120, Note_on_c, 0, 64, 53
1, 129239, Note_on_c, 0, 83, 0
1, 129240, Note_on_c, 0, 64, 0
1, 129240, Note_on_c, 0, 80, 47
1, 129360, Note_on_c, 0, 80, 0
1, 129360, Note_on_c, 0, 83, 50
1, 129360, Note_on_c, 0, 59, 48
1, 129479, Note_on_c, 0, 83, 0
1, 129480, Note_on_c, 0, 59, 0
1, 129480, Note_on_c, 0, 80, 47
1, 129600, Tempo, 370325
1, 129600, Note_on_c, 0, 80, 0
1, 129600, Note_on_c, 0, 83, 51
1, 129600, Note_on_c, 0, 68, 52
1, 129719, Note_on_c, 0, 83, 0
1, 129720, Note_on_c, 0, 68, 0
1, 129720, Note_on_c, 0, 80, 47
1, 129840, Note_on_c, 0, 80, 0
1, 129840, Note_on_c, 0, 83, 50
1, 129840, Note_on_c, 0, 64, 41
1, 129959, Note_on_c, 0, 83, 0
1, 129960, Note_on_c, 0, 64, 0
1, 129960, Note_on_c, 0, 80, 47
1, 130080, Note_on_c, 0, 80, 0
1, 130080, Note_on_c, 0, 83, 52
1, 130080, Note_on_c, 0, 71, 50
1, 130199, Note_on_c, 0, 83, 0
1, 130200, Note_on_c, 0, 71, 0
1, 130200, Note_on_c, 0, 80, 47
1, 130320, Note_on_c, 0, 80, 0
1, 130320, Note_on_c, 0, 83, 51
1, 130320, Note_on_c, 0, 68, 41
1, 130439, Note_on_c, 0, 83, 0
1, 130440, Note_on_c, 0, 68, 0
1, 130440, Note_on_c, 0, 80, 47
1, 130560, Note_on_c, 0, 80, 0
1, 130560, Note_on_c, 0, 83, 50
1, 130560, Note_on_c, 0, 76, 50
1, 130600, Tempo, 372694
1, 130679, Note_on_c, 0, 83, 0
1, 130680, Note_on_c, 0, 76, 0
1, 130680, Note_on_c, 0, 80, 47
1, 130800, Note_on_c, 0, 80, 0
1, 130800, Note_on_c, 0, 83, 50
1, 130800, Note_on_c, 0, 71, 41
1, 130919, Note_on_c, 0, 83, 0
1, 130920, Note_on_c, 0, 71, 0
1, 130920, Note_on_c, 0, 80, 47
1, 131040, Note_on_c, 0, 80, 0
1, 131040, Note_on_c, 0, 83, 51
1, 131040, Note_on_c, 0, 76, 50
1, 131159, Note_on_c, 0, 83, 0
1, 131160, Note_on_c, 0, 76, 0
1, 131160, Note_on_c, 0, 80, 47
1, 131280, Note_on_c, 0, 80, 0
1, 131280, Note_on_c, 0, 83, 50
1, 131280, Note_on_c, 0, 71, 39
1, 131399, Note_on_c, 0, 83, 0
1, 131400, Note_on_c, 0, 71, 0
1, 131400, Note_on_c, 0, 80, 47
1, 131520, Note_on_c, 0, 80, 0
1, 131520, Note_on_c, 0, 83, 51
1, 131520, Note_on_c, 0, 76, 50
1, 131560, Tempo, 372694
1, 131639, Note_on_c, 0, 83, 0
1, 131640, Note_on_c, 0, 76, 0
1, 131640, Note_on_c, 0, 80, 47
1, 131680, Tempo, 373902
1, 131760, Note_on_c, 0, 80, 0
1, 131760, Note_on_c, 0, 83, 50
1, 131760, Note_on_c, 0, 71, 41
1, 131800, Tempo, 375117
1, 131879, Note_on_c, 0, 83, 0
1, 131880, Note_on_c, 0, 71, 0
1, 131880, Note_on_c, 0, 80, 47
1, 131920, Tempo, 376341
1, 132000, Note_on_c, 0, 80, 0
1, 132000, Note_on_c, 0, 83, 52
1, 132000, Note_on_c, 0, 76, 50
1, 132040, Tempo, 377572
1, 132119, Note_on_c, 0, 83, 0
1, 132120, Note_on_c, 0, 76, 0
1, 132120, Note_on_c, 0, 80, 47
1, 132160, Tempo, 378788
1, 132240, Note_on_c, 0, 80, 0
1, 132240, Note_on_c, 0, 83, 51
1, 132240, Note_on_c, 0, 71, 42
1, 132280, Tempo, 380035
1, 132359, Note_on_c, 0, 83, 0
1, 132360, Note_on_c, 0, 71, 0
1, 132360, Note_on_c, 0, 80, 47
1, 132400, Tempo, 381291
1, 132480, Note_on_c, 0, 80, 0
1, 132480, Note_on_c, 0, 75, 46
1, 132480, Control_c, 0, 64, 0
1, 132520, Tempo, 373902
1, 132537, Control_c, 0, 64, 127
1, 132600, Note_on_c, 0, 75, 0
1, 132600, Note_on_c, 0, 81, 42
1, 132720, Note_on_c, 0, 81, 0
1, 132720, Note_on_c, 0, 83, 45
1, 132720, Note_on_c, 0, 71, 37
1, 132839, Note_on_c, 0, 83, 0
1, 132840, Note_on_c, 0, 71, 0
1, 132840, Note_on_c, 0, 81, 41
1, 132920, Tempo, 372694
1, 132960, Note_on_c, 0, 81, 0
1, 132960, Note_on_c, 0, 84, 44
1, 132960, Note_on_c, 0, 75, 43
1, 133079, Note_on_c, 0, 84, 0
1, 133080, Note_on_c, 0, 75, 0
1, 133080, Note_on_c, 0, 81, 40
1, 133160, Tempo, 371517
1, 133200, Note_on_c, 0, 81, 0
1, 133200, Note_on_c, 0, 83, 42
1, 133200, Note_on_c, 0, 71, 36
1, 133319, Note_on_c, 0, 83, 0
1, 133320, Note_on_c, 0, 71, 0
1, 133320, Note_on_c, 0, 81, 39
1, 133400, Tempo, 370325
1, 133440, Note_on_c, 0, 81, 0
1, 133440, Note_on_c, 0, 84, 42
1, 133440, Note_on_c, 0, 75, 41
1, 133464, Tempo, 369140
1, 133492, Tempo, 367963
1, 133504, Tempo, 366815
1, 133544, Tempo, 365653
1, 133559, Note_on_c, 0, 84, 0
1, 133560, Note_on_c, 0, 75, 0
1, 133560, Note_on_c, 0, 81, 38
1, 133572, Tempo, 366815
1, 133584, Tempo, 367963
1, 133600, Tempo, 370325
1, 133624, Tempo, 371517
1, 133640, Tempo, 372694
1, 133680, Tempo, 371517
1, 133680, Note_on_c, 0, 81, 0
1, 133680, Note_on_c, 0, 83, 40
1, 133680, Note_on_c, 0, 71, 32
1, 133704, Tempo, 370325
1, 133732, Tempo, 369140
1, 133760, Tempo, 367963
1, 133772, Tempo, 366815
1, 133799, Note_on_c, 0, 83, 0
1, 133800, Tempo, 367963
1, 133800, Note_on_c, 0, 71, 0
1, 133800, Note_on_c, 0, 81, 37
1, 133812, Tempo, 369140
1, 133824, Tempo, 370325
1, 133840, Tempo, 371517
1, 133852, Tempo, 372694
1, 133892, Tempo, 371517
1, 133920, Tempo, 370325
1, 133920, Note_on_c, 0, 81, 0
1, 133920, Note_on_c, 0, 84, 40
1, 133920, Note_on_c, 0, 75, 39
1, 133932, Tempo, 369140
1, 133960, Tempo, 366815
1, 133972, Tempo, 365653
1, 134024, Tempo, 367963
1, 134039, Note_on_c, 0, 84, 0
1, 134040, Note_on_c, 0, 75, 0
1, 134040, Note_on_c, 0, 81, 36
1, 134052, Tempo, 370325
1, 134064, Tempo, 371517
1, 134080, Tempo, 372694
1, 134120, Tempo, 371517
1, 134132, Tempo, 370325
1, 134144, Tempo, 369140
1, 134160, Tempo, 367963
1, 134160, Note_on_c, 0, 81, 0
1, 134160, Note_on_c, 0, 83, 39
1, 134160, Note_on_c, 0, 71, 31
1, 134172, Tempo, 366815
1, 134212, Tempo, 365653
1, 134224, Tempo, 364498
1, 134240, Tempo, 365653
1, 134264, Tempo, 367963
1, 134279, Note_on_c, 0, 83, 0
1, 134280, Note_on_c, 0, 71, 0
1, 134280, Note_on_c, 0, 81, 35
1, 134292, Tempo, 370325
1, 134360, Tempo, 369140
1, 134372, Tempo, 367963
1, 134384, Tempo, 366815
1, 134400, Note_on_c, 0, 81, 0
1, 134400, Note_on_c, 0, 84, 37
1, 134400, Note_on_c, 0, 75, 36
1, 134412, Tempo, 365653
1, 134440, Tempo, 367963
1, 134464, Tempo, 369140
1, 134480, Tempo, 370325
1, 134504, Tempo, 372694
1, 134519, Note_on_c, 0, 84, 0
1, 134520, Tempo, 373902
1, 134520, Note_on_c, 0, 75, 0
1, 134520, Note_on_c, 0, 81, 34
1, 134532, Tempo, 375117
1, 134560, Tempo, 373902
1, 134584, Tempo, 371517
1, 134612, Tempo, 369140
1, 134640, Tempo, 366815
1, 134640, Note_on_c, 0, 81, 0
1, 134640, Note_on_c, 0, 83, 36
1, 134640, Note_on_c, 0, 71, 30
1, 134664, Tempo, 365653
1, 134680, Tempo, 364498
1, 134692, Tempo, 363350
1, 134720, Tempo, 364498
1, 134732, Tempo, 365653
1, 134744, Tempo, 367963
1, 134759, Note_on_c, 0, 83, 0
1, 134760, Note_on_c, 0, 71, 0
1, 134760, Note_on_c, 0, 81, 34
1, 134772, Tempo, 370325
1, 134784, Tempo, 372694
1, 134812, Tempo, 373902
1, 134840, Tempo, 372694
1, 134852, Tempo, 371517
1, 134864, Tempo, 370325
1, 134880, Note_on_c, 0, 81, 0
1, 134880, Note_on_c, 0, 84, 37
1, 134880, Note_on_c, 0, 75, 36
1, 134892, Tempo, 369140
1, 134920, Tempo, 367963
1, 134944, Tempo, 366815
1, 134960, Tempo, 365653
1, 134984, Tempo, 364498
1, 134999, Note_on_c, 0, 84, 0
1, 135000, Note_on_c, 0, 75, 0
1, 135000, Note_on_c, 0, 81, 34
1, 135024, Tempo, 365653
1, 135052, Tempo, 367963
1, 135080, Tempo, 370325
1, 135092, Tempo, 371517
1, 135120, Note_on_c, 0, 81, 0
1, 135120, Note_on_c, 0, 83, 36
1, 135120, Note_on_c, 0, 71, 31
1, 135132, Tempo, 370325
1, 135160, Tempo, 369140
1, 135172, Tempo, 367963
1, 135184, Tempo, 366815
1, 135212, Tempo, 365653
1, 135239, Note_on_c, 0, 83, 0
1, 135240, Note_on_c, 0, 71, 0
1, 135240, Note_on_c, 0, 81, 34
1, 135252, Tempo, 366815
1, 135264, Tempo, 369140
1, 135280, Tempo, 370325
1, 135360, Tempo, 372694
1, 135360, Note_on_c, 0, 81, 0
1, 135360, Note_on_c, 0, 84, 37
1, 135360, Note_on_c, 0, 75, 36
1, 135479, Note_on_c, 0, 84, 0
1, 135480, Note_on_c, 0, 75, 0
1, 135480, Note_on_c, 0, 81, 34
1, 135560, Tempo, 373902
1, 135600, Note_on_c, 0, 81, 0
1, 135600, Note_on_c, 0, 83, 36
1, 135600, Note_on_c, 0, 71, 29
1, 135719, Note_on_c, 0, 83, 0
1, 135720, Tempo, 375117
1, 135720, Note_on_c, 0, 71, 0
1, 135720, Note_on_c, 0, 81, 34
1, 135840, Note_on_c, 0, 81, 0
1, 135840, Note_on_c, 0, 84, 38
1, 135840, Note_on_c, 0, 75, 36
1, 135880, Tempo, 376341
1, 135959, Note_on_c, 0, 84, 0
1, 135960, Note_on_c, 0, 75, 0
1, 135960, Note_on_c, 0, 81, 34
1, 136040, Tempo, 377572
1, 136080, Note_on_c, 0, 81, 0
1, 136080, Note_on_c, 0, 83, 37
1, 136080, Note_on_c, 0, 71, 30
1, 136199, Note_on_c, 0, 83, 0
1, 136200, Tempo, 378788
1, 136200, Note_on_c, 0, 71, 0
1, 136200, Note_on_c, 0, 81, 34
1, 136304, Tempo, 377572
1, 136320, Note_on_c, 0, 81, 0
1, 136320, Note_on_c, 0, 85, 37
1, 136320, Note_on_c, 0, 75, 37
1, 136320, Control_c, 0, 64, 0
1, 136360, Tempo, 376341
1, 136372, Tempo, 375117
1, 136386, Control_c, 0, 64, 127
1, 136400, Tempo, 372694
1, 136400, Note_on_c, 0, 75, 0
1, 136400, Note_on_c, 0, 76, 32
1, 136412, Tempo, 371517
1, 136424, Tempo, 370325
1, 136440, Tempo, 372694
1, 136440, Note_on_c, 0, 81, 34
1, 136441, Note_on_c, 0, 85, 0
1, 136452, Tempo, 375117
1, 136464, Tempo, 377572
1, 136480, Note_on_c, 0, 76, 0
1, 136480, Note_on_c, 0, 75, 36
1, 136530, Note_on_c, 0, 81, 0
1, 136560, Tempo, 373902
1, 136560, Note_on_c, 0, 75, 0
1, 136560, Note_on_c, 0, 83, 36
1, 136560, Note_on_c, 0, 76, 31
1, 136572, Tempo, 370325
1, 136600, Tempo, 371517
1, 136612, Tempo, 373902
1, 136624, Tempo, 376341
1, 136640, Tempo, 377572
1, 136640, Note_on_c, 0, 76, 0
1, 136640, Note_on_c, 0, 75, 36
1, 136650, Tempo, 382166
1, 136680, Tempo, 380952
1, 136680, Note_on_c, 0, 81, 35
1, 136681, Note_on_c, 0, 83, 0
1, 136700, Tempo, 378549
1, 136710, Tempo, 377358
1, 136720, Tempo, 376176
1, 136720, Note_on_c, 0, 75, 0
1, 136720, Note_on_c, 0, 76, 33
1, 136750, Tempo, 375000
1, 136800, Note_on_c, 0, 76, 0
1, 136800, Note_on_c, 0, 81, 0
1, 136800, Note_on_c, 0, 85, 38
1, 136800, Note_on_c, 0, 75, 37
1, 136860, Tempo, 376176
1, 136870, Tempo, 378549
1, 136880, Tempo, 379747
1, 136880, Note_on_c, 0, 75, 0
1, 136880, Note_on_c, 0, 76, 33
1, 136890, Tempo, 380952
1, 136920, Note_on_c, 0, 81, 36
1, 136921, Note_on_c, 0, 85, 0
1, 136930, Tempo, 379747
1, 136940, Tempo, 378549
1, 136950, Tempo, 377358
1, 136960, Tempo, 376176
1, 136960, Note_on_c, 0, 76, 0
1, 136960, Note_on_c, 0, 75, 37
1, 136970, Tempo, 375000
1, 136980, Tempo, 372671
1, 137000, Tempo, 371517
1, 137020, Tempo, 370370
1, 137030, Tempo, 369231
1, 137040, Tempo, 371517
1, 137040, Note_on_c, 0, 75, 0
1, 137040, Note_on_c, 0, 81, 0
1, 137040, Note_on_c, 0, 83, 38
1, 137040, Note_on_c, 0, 76, 33
1, 137060, Tempo, 372671
1, 137070, Tempo, 375000
1, 137100, Tempo, 379747
1, 137120, Note_on_c, 0, 76, 0
1, 137120, Note_on_c, 0, 75, 38
1, 137140, Tempo, 378549
1, 137150, Tempo, 377358
1, 137160, Tempo, 376176
1, 137160, Note_on_c, 0, 81, 36
1, 137161, Note_on_c, 0, 83, 0
1, 137170, Tempo, 375000
1, 137180, Tempo, 373832
1, 137190, Tempo, 372671
1, 137200, Tempo, 371517
1, 137200, Note_on_c, 0, 75, 0
1, 137200, Note_on_c, 0, 76, 34
1, 137210, Tempo, 370370
1, 137220, Tempo, 369231
1, 137230, Tempo, 371517
1, 137240, Tempo, 372671
1, 137250, Tempo, 373832
1, 137270, Tempo, 376176
1, 137280, Note_on_c, 0, 76, 0
1, 137280, Note_on_c, 0, 81, 0
1, 137280, Note_on_c, 0, 85, 40
1, 137280, Note_on_c, 0, 75, 38
1, 137290, Tempo, 378549
1, 137330, Tempo, 377358
1, 137340, Tempo, 376176
1, 137360, Tempo, 375000
1, 137360, Note_on_c, 0, 75, 0
1, 137360, Note_on_c, 0, 76, 35
1, 137370, Tempo, 372671
1, 137390, Tempo, 371517
1, 137400, Tempo, 370370
1, 137400, Note_on_c, 0, 81, 37
1, 137401, Note_on_c, 0, 85, 0
1, 137420, Tempo, 369231
1, 137430, Tempo, 368098
1, 137440, Tempo, 370370
1, 137440, Note_on_c, 0, 76, 0
1, 137440, Note_on_c, 0, 75, 39
1, 137450, Tempo, 373832
1, 137460, Tempo, 375000
1, 137470, Tempo, 376176
1, 137490, Tempo, 377358
1, 137500, Tempo, 378549
1, 137520, Note_on_c, 0, 75, 0
1, 137520, Note_on_c, 0, 81, 0
1, 137520, Note_on_c, 0, 83, 40
1, 137520, Note_on_c, 0, 76, 35
1, 137540, Tempo, 377358
1, 137550, Tempo, 376176
1, 137560, Tempo, 375000
1, 137570, Tempo, 373832
1, 137580, Tempo, 372671
1, 137590, Tempo, 371517
1, 137600, Note_on_c, 0, 76, 0
1, 137600, Note_on_c, 0, 75, 39
1, 137610, Tempo, 369231
1, 137630, Tempo, 368098
1, 137640, Note_on_c, 0, 81, 38
1, 137641, Note_on_c, 0, 83, 0
1, 137680, Note_on_c, 0, 75, 0
1, 137680, Note_on_c, 0, 76, 36
1, 137690, Tempo, 370370
1, 137700, Tempo, 371517
1, 137710, Tempo, 372671
1, 137720, Tempo, 373832
1, 137730, Tempo, 376176
1, 137740, Tempo, 377358
1, 137760, Note_on_c, 0, 76, 0
1, 137760, Note_on_c, 0, 81, 0
1, 137760, Note_on_c, 0, 85, 43
1, 137760, Note_on_c, 0, 75, 40
1, 137830, Tempo, 376176
1, 137840, Tempo, 375000
1, 137840, Note_on_c, 0, 75, 0
1, 137840, Note_on_c, 0, 76, 36
1, 137850, Tempo, 372671
1, 137870, Tempo, 371517
1, 137880, Tempo, 369231
1, 137880, Note_on_c, 0, 81, 39
1, 137881, Note_on_c, 0, 85, 0
1, 137910, Tempo, 370370
1, 137920, Tempo, 371517
1, 137920, Note_on_c, 0, 76, 0
1, 137920, Note_on_c, 0, 75, 40
1, 137940, Tempo, 373832
1, 137960, Tempo, 376176
1, 137970, Tempo, 377358
1, 138000, Note_on_c, 0, 75, 0
1, 138000, Note_on_c, 0, 81, 0
1, 138000, Note_on_c, 0, 83, 43
1, 138000, Note_on_c, 0, 76, 36
1, 138010, Tempo, 376176
1, 138020, Tempo, 375000
1, 138040, Tempo, 373832
1, 138050, Tempo, 372671
1, 138060, Tempo, 371517
1, 138080, Note_on_c, 0, 76, 0
1, 138080, Note_on_c, 0, 75, 41
1, 138090, Tempo, 370370
1, 138100, Tempo, 369231
1, 138120, Tempo, 368098
1, 138120, Note_on_c, 0, 81, 40
1, 138121, Note_on_c, 0, 83, 0
1, 138140, Tempo, 370370
1, 138150, Tempo, 371517
1, 138160, Tempo, 372671
1, 138160, Note_on_c, 0, 75, 0
1, 138160, Note_on_c, 0, 76, 37
1, 138180, Tempo, 371517
1, 138200, Tempo, 370370
1, 138210, Tempo, 369231
1, 138240, Tempo, 368098
1, 138240, Note_on_c, 0, 76, 0
1, 138240, Note_on_c, 0, 81, 0
1, 138240, Note_on_c, 0, 90, 44
1, 138240, Note_on_c, 0, 75, 41
1, 138240, Control_c, 0, 64, 0
1, 138270, Tempo, 369231
1, 138272, Control_c, 0, 64, 127
1, 138280, Tempo, 371517
1, 138290, Tempo, 373832
1, 138300, Tempo, 375000
1, 138310, Tempo, 377358
1, 138320, Note_on_c, 0, 75, 0
1, 138320, Note_on_c, 0, 76, 36
1, 138360, Tempo, 375000
1, 138360, Note_on_c, 0, 83, 41
1, 138360, Note_on_c, 0, 81, 41
1, 138361, Note_on_c, 0, 90, 0
1, 138370, Tempo, 373832
1, 138380, Tempo, 371517
1, 138390, Tempo, 370370
1, 138400, Tempo, 366972
1, 138400, Note_on_c, 0, 76, 0
1, 138400, Note_on_c, 0, 75, 42
1, 138410, Tempo, 365854
1, 138460, Tempo, 364742
1, 138480, Tempo, 369231
1, 138480, Note_on_c, 0, 75, 0
1, 138480, Note_on_c, 0, 83, 0
1, 138480, Note_on_c, 0, 81, 0
1, 138480, Note_on_c, 0, 90, 43
1, 138480, Note_on_c, 0, 76, 37
1, 138490, Tempo, 370370
1, 138500, Tempo, 371517
1, 138520, Tempo, 372671
1, 138530, Tempo, 373832
1, 138540, Tempo, 375000
1, 138550, Tempo, 377358
1, 138560, Note_on_c, 0, 76, 0
1, 138560, Note_on_c, 0, 75, 42
1, 138600, Tempo, 375000
1, 138600, Note_on_c, 0, 83, 41
1, 138600, Note_on_c, 0, 81, 41
1, 138601, Note_on_c, 0, 90, 0
1, 138610, Tempo, 372671
1, 138620, Tempo, 371517
1, 138640, Note_on_c, 0, 75, 0
1, 138640, Note_on_c, 0, 76, 37
1, 138650, Tempo, 370370
1, 138680, Tempo, 369231
1, 138710, Tempo, 370370
1, 138720, Note_on_c, 0, 76, 0
1, 138720, Note_on_c, 0, 83, 0
1, 138720, Note_on_c, 0, 81, 0
1, 138720, Note_on_c, 0, 90, 46
1, 138720, Note_on_c, 0, 75, 43
1, 138730, Tempo, 373832
1, 138740, Tempo, 375000
1, 138750, Tempo, 376176
1, 138770, Tempo, 377358
1, 138800, Note_on_c, 0, 75, 0
1, 138800, Note_on_c, 0, 76, 38
1, 138820, Tempo, 375000
1, 138830, Tempo, 373832
1, 138840, Tempo, 371517
1, 138840, Note_on_c, 0, 83, 42
1, 138840, Note_on_c, 0, 81, 42
1, 138841, Note_on_c, 0, 90, 0
1, 138860, Tempo, 370370
1, 138880, Tempo, 368098
1, 138880, Note_on_c, 0, 76, 0
1, 138880, Note_on_c, 0, 75, 43
1, 138890, Tempo, 366972
1, 138910, Tempo, 368098
1, 138920, Tempo, 369231
1, 138940, Tempo, 371517
1, 138950, Tempo, 373832
1, 138960, Tempo, 375000
1, 138960, Note_on_c, 0, 75, 0
1, 138960, Note_on_c, 0, 83, 0
1, 138960, Note_on_c, 0, 81, 0
1, 138960, Note_on_c, 0, 90, 46
1, 138960, Note_on_c, 0, 76, 39
1, 139030, Tempo, 373832
1, 139040, Tempo, 371517
1, 139040, Note_on_c, 0, 76, 0
1, 139040, Note_on_c, 0, 75, 44
1, 139050, Tempo, 370370
1, 139070, Tempo, 368098
1, 139080, Tempo, 365854
1, 139080, Note_on_c, 0, 83, 44
1, 139080, Note_on_c, 0, 81, 44
1, 139081, Note_on_c, 0, 90, 0
1, 139100, Tempo, 364742
1, 139120, Tempo, 369231
1, 139120, Note_on_c, 0, 75, 0
1, 139120, Note_on_c, 0, 76, 39
1, 139130, Tempo, 371517
1, 139190, Tempo, 373832
1, 139200, Note_on_c, 0, 76, 0
1, 139200, Note_on_c, 0, 83, 0
1, 139200, Note_on_c, 0, 81, 0
1, 139200, Note_on_c, 0, 90, 49
1, 139200, Note_on_c, 0, 75, 44
1, 139210, Tempo, 376176
1, 139230, Tempo, 377358
1, 139250, Tempo, 375000
1, 139260, Tempo, 373832
1, 139270, Tempo, 371517
1, 139280, Tempo, 370370
1, 139280, Note_on_c, 0, 75, 0
1, 139280, Note_on_c, 0, 76, 38
1, 139281, Note_on_c, 0, 90, 0
1, 139300, Tempo, 369231
1, 139310, Tempo, 366972
1, 139320, Tempo, 368098
1, 139320, Note_on_c, 0, 83, 45
1, 139320, Note_on_c, 0, 81, 45
1, 139340, Tempo, 370370
1, 139350, Tempo, 373832
1, 139360, Tempo, 375000
1, 139360, Note_on_c, 0, 76, 0
1, 139360, Note_on_c, 0, 75, 45
1, 139380, Tempo, 376176
1, 139420, Tempo, 375000
1, 139430, Tempo, 373832
1, 139440, Tempo, 372671
1, 139440, Note_on_c, 0, 75, 0
1, 139440, Note_on_c, 0, 81, 0
1, 139440, Note_on_c, 0, 83, 0
1, 139440, Note_on_c, 0, 90, 49
1, 139440, Note_on_c, 0, 76, 38
1, 139450, Tempo, 371517
1, 139470, Tempo, 370370
1, 139480, Tempo, 369231
1, 139510, Tempo, 368098
1, 139520, Note_on_c, 0, 76, 0
1, 139520, Note_on_c, 0, 75, 45
1, 139530, Tempo, 370370
1, 139540, Tempo, 371517
1, 139550, Tempo, 375000
1, 139560, Tempo, 376176
1, 139560, Note_on_c, 0, 83, 47
1, 139560, Note_on_c, 0, 81, 47
1, 139561, Note_on_c, 0, 90, 0
1, 139570, Tempo, 377358
1, 139600, Tempo, 376176
1, 139600, Note_on_c, 0, 75, 0
1, 139600, Note_on_c, 0, 76, 40
1, 139610, Tempo, 375000
1, 139620, Tempo, 372671
1, 139630, Tempo, 371517
1, 139650, Tempo, 370370
1, 139680, Note_on_c, 0, 76, 0
1, 139680, Note_on_c, 0, 83, 0
1, 139680, Note_on_c, 0, 81, 0
1, 139680, Note_on_c, 0, 90, 54
1, 139680, Note_on_c, 0, 75, 50
1, 139710, Tempo, 371517
1, 139720, Tempo, 373832
1, 139760, Tempo, 370325
1, 139776, Note_on_c, 0, 75, 0
1, 139776, Note_on_c, 0, 76, 44
1, 139800, Tempo, 372694
1, 139800, Note_on_c, 0, 83, 48
1, 139800, Note_on_c, 0, 81, 48
1, 139801, Note_on_c, 0, 90, 0
1, 139840, Tempo, 376341
1, 139872, Note_on_c, 0, 76, 0
1, 139872, Note_on_c, 0, 75, 50
1, 139880, Tempo, 380035
1, 139920, Tempo, 382555
1, 139920, Note_on_c, 0, 83, 0
1, 139920, Note_on_c, 0, 81, 0
1, 139920, Note_on_c, 0, 90, 53
1, 139960, Tempo, 386374
1, 139968, Note_on_c, 0, 75, 0
1, 139968, Note_on_c, 0, 73, 52
1, 140000, Tempo, 390269
1, 140040, Tempo, 402468
1, 140040, Note_on_c, 0, 83, 49
1, 140040, Note_on_c, 0, 81, 49
1, 140041, Note_on_c, 0, 90, 0
1, 140064, Note_on_c, 0, 73, 0
1, 140064, Note_on_c, 0, 75, 47
1, 140160, Note_on_c, 0, 75, 0
1, 140160, Note_on_c, 0, 83, 0
1, 140160, Note_on_c, 0, 81, 0
1, 140160, Note_on_c, 0, 80, 72
1, 140160, Note_on_c, 0, 83, 72
1, 140160, Note_on_c, 0, 88, 72
1, 140160, Note_on_c, 0, 64, 48
1, 140160, Note_on_c, 0, 76, 57
1, 140167, Control_c, 0, 64, 0
1, 140180, Tempo, 383803
1, 141120, Tempo, 373902
1, 141120, Note_on_c, 0, 76, 0
1, 141120, Note_on_c, 0, 68, 38
1, 141120, Note_on_c, 0, 74, 45
1, 141120, Note_on_c, 0, 71, 38
1, 141600, Note_on_c, 0, 80, 0
1, 141600, Note_on_c, 0, 88, 0
1, 141600, Note_on_c, 0, 83, 0
1, 141600, Note_on_c, 0, 88, 58
1, 141720, Note_on_c, 0, 88, 0
1, 141720, Note_on_c, 0, 86, 57
1, 141840, Note_on_c, 0, 86, 0
1, 141840, Note_on_c, 0, 84, 56
1, 141960, Note_on_c, 0, 84, 0
1, 141960, Note_on_c, 0, 83, 55
1, 142080, Note_on_c, 0, 83, 0
1, 142080, Note_on_c, 0, 68, 0
1, 142080, Note_on_c, 0, 71, 0
1, 142080, Note_on_c, 0, 74, 0
1, 142080, Note_on_c, 0, 84, 58
1, 142080, Note_on_c, 0, 72, 47
1, 142080, Note_on_c, 0, 69, 39
1, 142200, Note_on_c, 0, 84, 0
1, 142200, Note_on_c, 0, 83, 57
1, 142320, Note_on_c, 0, 83, 0
1, 142320, Note_on_c, 0, 81, 56
1, 142440, Note_on_c, 0, 81, 0
1, 142440, Note_on_c, 0, 80, 55
1, 142560, Note_on_c, 0, 80, 0
1, 142560, Note_on_c, 0, 81, 51
1, 142680, Note_on_c, 0, 81, 0
1, 142680, Note_on_c, 0, 83, 52
1, 142800, Note_on_c, 0, 83, 0
1, 142800, Note_on_c, 0, 84, 53
1, 142920, Tempo, 395596
1, 142920, Note_on_c, 0, 84, 0
1, 142920, Note_on_c, 0, 86, 54
1, 143040, Tempo, 373902
1, 143040, Note_on_c, 0, 86, 0
1, 143040, Note_on_c, 0, 69, 0
1, 143040, Note_on_c, 0, 72, 0
1, 143040, Note_on_c, 0, 88, 56
1, 143040, Note_on_c, 0, 74, 46
1, 143040, Note_on_c, 0, 71, 39
1, 143040, Note_on_c, 0, 68, 39
1, 143160, Note_on_c, 0, 88, 0
1, 143160, Note_on_c, 0, 89, 57
1, 143280, Note_on_c, 0, 89, 0
1, 143280, Note_on_c, 0, 88, 57
1, 143400, Note_on_c, 0, 88, 0
1, 143400, Note_on_c, 0, 87, 56
1, 143480, Tempo, 373902
1, 143520, Note_on_c, 0, 87, 0
1, 143520, Note_on_c, 0, 88, 56
1, 143640, Note_on_c, 0, 88, 0
1, 143640, Note_on_c, 0, 86, 56
1, 143680, Tempo, 375117
1, 143760, Note_on_c, 0, 86, 0
1, 143760, Note_on_c, 0, 84, 56
1, 143880, Tempo, 376341
1, 143880, Note_on_c, 0, 84, 0
1, 143880, Note_on_c, 0, 83, 56
1, 144000, Note_on_c, 0, 83, 0
1, 144000, Note_on_c, 0, 68, 0
1, 144000, Note_on_c, 0, 64, 0
1, 144000, Note_on_c, 0, 74, 0
1, 144000, Note_on_c, 0, 71, 0
1, 144000, Note_on_c, 0, 84, 57
1, 144000, Note_on_c, 0, 69, 40
1, 144000, Note_on_c, 0, 72, 48
1, 144080, Tempo, 377572
1, 144120, Note_on_c, 0, 84, 0
1, 144120, Note_on_c, 0, 86, 57
1, 144240, Note_on_c, 0, 86, 0
1, 144240, Note_on_c, 0, 84, 57
1, 144280, Tempo, 378788
1, 144360, Note_on_c, 0, 84, 0
1, 144360, Note_on_c, 0, 83, 53
1, 144480, Tempo, 380035
1, 144480, Note_on_c, 0, 83, 0
1, 144480, Note_on_c, 0, 72, 0
1, 144480, Note_on_c, 0, 69, 0
1, 144480, Note_on_c, 0, 81, 56
1, 144600, Note_on_c, 0, 81, 0
1, 144600, Note_on_c, 0, 80, 52
1, 144680, Tempo, 381291
1, 144720, Note_on_c, 0, 80, 0
1, 144720, Note_on_c, 0, 81, 56
1, 144840, Note_on_c, 0, 81, 0
1, 144840, Note_on_c, 0, 83, 52
1, 144960, Tempo, 388954
1, 144960, Note_on_c, 0, 83, 0
1, 144960, Note_on_c, 0, 72, 45
1, 144960, Note_on_c, 0, 84, 59
1, 144960, Note_on_c, 0, 57, 39
1, 144960, Note_on_c, 0, 60, 39
1, 144960, Note_on_c, 0, 66, 39
1, 144960, Note_on_c, 0, 69, 47
1, 145212, Control_c, 0, 64, 127
1, 145440, Note_on_c, 0, 84, 0
1, 145440, Note_on_c, 0, 81, 52
1, 145680, Tempo, 401070
1, 145680, Note_on_c, 0, 81, 0
1, 145680, Note_on_c, 0, 78, 52
1, 145920, Tempo, 388954
1, 145920, Note_on_c, 0, 78, 0
1, 145920, Note_on_c, 0, 57, 0
1, 145920, Note_on_c, 0, 60, 0
1, 145920, Note_on_c, 0, 72, 0
1, 145920, Note_on_c, 0, 69, 0
1, 145920, Note_on_c, 0, 66, 0
1, 145920, Note_on_c, 0, 71, 45
1, 145920, Note_on_c, 0, 83, 57
1, 145920, Note_on_c, 0, 59, 39
1, 145920, Note_on_c, 0, 64, 39
1, 145920, Note_on_c, 0, 67, 46
1, 145939, Control_c, 0, 64, 0
1, 146035, Control_c, 0, 64, 127
1, 146400, Note_on_c, 0, 83, 0
1, 146400, Note_on_c, 0, 79, 52
1, 146640, Tempo, 402468
1, 146640, Note_on_c, 0, 79, 0
1, 146640, Note_on_c, 0, 76, 52
1, 146880, Tempo, 390269
1, 146880, Note_on_c, 0, 76, 0
1, 146880, Note_on_c, 0, 64, 0
1, 146880, Note_on_c, 0, 71, 0
1, 146880, Note_on_c, 0, 59, 0
1, 146880, Note_on_c, 0, 67, 0
1, 146880, Note_on_c, 0, 69, 45
1, 146880, Note_on_c, 0, 81, 57
1, 146880, Note_on_c, 0, 63, 37
1, 146880, Note_on_c, 0, 66, 44
1, 146880, Note_on_c, 0, 59, 37
1, 146893, Control_c, 0, 64, 0
1, 147029, Control_c, 0, 64, 127
1, 147360, Note_on_c, 0, 81, 0
1, 147360, Note_on_c, 0, 78, 52
1, 147600, Note_on_c, 0, 78, 0
1, 147600, Note_on_c, 0, 75, 52
1, 147840, Tempo, 383803
1, 147840, Note_on_c, 0, 75, 0
1, 147840, Note_on_c, 0, 66, 0
1, 147840, Note_on_c, 0, 69, 0
1, 147840, Note_on_c, 0, 63, 0
1, 147840, Note_on_c, 0, 59, 0
1, 147840, Note_on_c, 0, 76, 72
1, 147840, Note_on_c, 0, 64, 56
1, 147840, Note_on_c, 0, 52, 45
1, 147854, Control_c, 0, 64, 0
1, 148800, Tempo, 372694
1, 148800, Note_on_c, 0, 64, 0
1, 148800, Note_on_c, 0, 62, 45
1, 148800, Note_on_c, 0, 59, 38
1, 148800, Note_on_c, 0, 56, 38
1, 149280, Note_on_c, 0, 76, 0
1, 149280, Note_on_c, 0, 76, 58
1, 149400, Note_on_c, 0, 76, 0
1, 149400, Note_on_c, 0, 74, 57
1, 149520, Note_on_c, 0, 74, 0
1, 149520, Note_on_c, 0, 72, 56
1, 149640, Note_on_c, 0, 72, 0
1, 149640, Note_on_c, 0, 71, 55
1, 149760, Note_on_c, 0, 71, 0
1, 149760, Note_on_c, 0, 59, 0
1, 149760, Note_on_c, 0, 56, 0
1, 149760, Note_on_c, 0, 62, 0
1, 149760, Note_on_c, 0, 72, 58
1, 149760, Note_on_c, 0, 57, 39
1, 149760, Note_on_c, 0, 60, 47
1, 149880, Note_on_c, 0, 72, 0
1, 149880, Note_on_c, 0, 71, 57
1, 150000, Note_on_c, 0, 71, 0
1, 150000, Note_on_c, 0, 69, 56
1, 150120, Note_on_c, 0, 69, 0
1, 150120, Note_on_c, 0, 68, 55
1, 150240, Note_on_c, 0, 68, 0
1, 150240, Note_on_c, 0, 69, 51
1, 150360, Note_on_c, 0, 69, 0
1, 150360, Note_on_c, 0, 71, 52
1, 150480, Note_on_c, 0, 71, 0
1, 150480, Note_on_c, 0, 72, 53
1, 150600, Tempo, 395596
1, 150600, Note_on_c, 0, 72, 0
1, 150600, Note_on_c, 0, 74, 54
1, 150720, Tempo, 373902
1, 150720, Note_on_c, 0, 74, 0
1, 150720, Note_on_c, 0, 60, 0
1, 150720, Note_on_c, 0, 57, 0
1, 150720, Note_on_c, 0, 76, 56
1, 150720, Note_on_c, 0, 62, 46
1, 150720, Note_on_c, 0, 59, 39
1, 150720, Note_on_c, 0, 56, 39
1, 150840, Note_on_c, 0, 76, 0
1, 150840, Note_on_c, 0, 77, 57
1, 150960, Note_on_c, 0, 77, 0
1, 150960, Note_on_c, 0, 76, 57
1, 151080, Note_on_c, 0, 76, 0
1, 151080, Note_on_c, 0, 75, 56
1, 151200, Tempo, 370325
1, 151200, Note_on_c, 0, 75, 0
1, 151200, Note_on_c, 0, 76, 56
1, 151320, Note_on_c, 0, 76, 0
1, 151320, Note_on_c, 0, 74, 56
1, 151360, Tempo, 371517
1, 151440, Note_on_c, 0, 74, 0
1, 151440, Note_on_c, 0, 72, 56
1, 151480, Tempo, 372694
1, 151560, Note_on_c, 0, 72, 0
1, 151560, Note_on_c, 0, 71, 56
1, 151600, Tempo, 373902
1, 151680, Note_on_c, 0, 71, 0
1, 151680, Note_on_c, 0, 56, 0
1, 151680, Note_on_c, 0, 52, 0
1, 151680, Note_on_c, 0, 62, 0
1, 151680, Note_on_c, 0, 59, 0
1, 151680, Note_on_c, 0, 72, 57
1, 151680, Note_on_c, 0, 57, 48
1, 151680, Note_on_c, 0, 60, 48
1, 151720, Tempo, 375117
1, 151800, Note_on_c, 0, 72, 0
1, 151800, Note_on_c, 0, 74, 57
1, 151840, Tempo, 376341
1, 151920, Note_on_c, 0, 74, 0
1, 151920, Note_on_c, 0, 72, 57
1, 151960, Tempo, 377572
1, 152040, Note_on_c, 0, 72, 0
1, 152040, Note_on_c, 0, 71, 53
1, 152080, Tempo, 378788
1, 152160, Note_on_c, 0, 71, 0
1, 152160, Note_on_c, 0, 60, 0
1, 152160, Note_on_c, 0, 57, 0
1, 152160, Note_on_c, 0, 69, 56
1, 152200, Tempo, 380035
1, 152280, Note_on_c, 0, 69, 0
1, 152280, Note_on_c, 0, 68, 52
1, 152320, Tempo, 381291
1, 152400, Note_on_c, 0, 68, 0
1, 152400, Note_on_c, 0, 69, 56
1, 152440, Tempo, 382555
1, 152520, Note_on_c, 0, 69, 0
1, 152520, Note_on_c, 0, 71, 52
1, 152560, Tempo, 383803
1, 152640, Tempo, 387672
1, 152640, Note_on_c, 0, 71, 0
1, 152640, Note_on_c, 0, 60, 45
1, 152640, Note_on_c, 0, 72, 59
1, 152640, Note_on_c, 0, 45, 39
1, 152640, Note_on_c, 0, 48, 39
1, 152640, Note_on_c, 0, 54, 39
1, 152640, Note_on_c, 0, 57, 47
1, 152835, Control_c, 0, 64, 127
1, 153120, Note_on_c, 0, 72, 0
1, 153120, Note_on_c, 0, 69, 52
1, 153360, Tempo, 402468
1, 153360, Note_on_c, 0, 69, 0
1, 153360, Note_on_c, 0, 66, 52
1, 153600, Tempo, 388954
1, 153600, Note_on_c, 0, 66, 0
1, 153600, Note_on_c, 0, 45, 0
1, 153600, Note_on_c, 0, 48, 0
1, 153600, Note_on_c, 0, 60, 0
1, 153600, Note_on_c, 0, 57, 0
1, 153600, Note_on_c, 0, 54, 0
1, 153600, Note_on_c, 0, 59, 45
1, 153600, Note_on_c, 0, 71, 57
1, 153600, Note_on_c, 0, 47, 39
1, 153600, Note_on_c, 0, 52, 39
1, 153600, Note_on_c, 0, 55, 46
1, 153616, Control_c, 0, 64, 0
1, 153737, Control_c, 0, 64, 127
1, 154080, Note_on_c, 0, 71, 0
1, 154080, Note_on_c, 0, 67, 52
1, 154320, Tempo, 402468
1, 154320, Note_on_c, 0, 67, 0
1, 154320, Note_on_c, 0, 64, 52
1, 154560, Tempo, 388954
1, 154560, Note_on_c, 0, 64, 0
1, 154560, Note_on_c, 0, 52, 0
1, 154560, Note_on_c, 0, 59, 0
1, 154560, Note_on_c, 0, 47, 0
1, 154560, Note_on_c, 0, 55, 0
1, 154560, Note_on_c, 0, 57, 45
1, 154560, Note_on_c, 0, 69, 57
1, 154560, Note_on_c, 0, 54, 44
1, 154560, Note_on_c, 0, 51, 37
1, 154560, Note_on_c, 0, 47, 37
1, 154579, Control_c, 0, 64, 0
1, 154720, Control_c, 0, 64, 127
1, 155040, Tempo, 394244
1, 155040, Note_on_c, 0, 69, 0
1, 155040, Note_on_c, 0, 66, 52
1, 155280, Note_on_c, 0, 66, 0
1, 155280, Note_on_c, 0, 63, 52
1, 155520, Tempo, 395596
1, 155520, Note_on_c, 0, 63, 0
1, 155520, Note_on_c, 0, 51, 0
1, 155520, Note_on_c, 0, 57, 0
1, 155520, Note_on_c, 0, 54, 0
1, 155520, Note_on_c, 0, 47, 0
1, 155520, Note_on_c, 0, 64, 55
1, 155520, Note_on_c, 0, 55, 44
1, 155520, Note_on_c, 0, 52, 37
1, 155531, Control_c, 0, 64, 0
1, 155760, Tempo, 409584
1, 155760, Note_on_c, 0, 52, 0
1, 155760, Note_on_c, 0, 55, 0
1, 155760, Note_on_c, 0, 64, 0
1, 156000, Tempo, 394244
1, 156000, Note_on_c, 0, 76, 67
1, 156000, Note_on_c, 0, 43, 42
1, 156000, Note_on_c, 0, 52, 51
1, 156240, Note_on_c, 0, 76, 0
1, 156240, Note_on_c, 0, 74, 62
1, 156480, Note_on_c, 0, 74, 0
1, 156480, Note_on_c, 0, 43, 0
1, 156480, Note_on_c, 0, 72, 66
1, 156480, Note_on_c, 0, 45, 42
1, 156720, Note_on_c, 0, 52, 0
1, 156720, Note_on_c, 0, 53, 49
1, 156960, Note_on_c, 0, 53, 0
1, 156960, Note_on_c, 0, 72, 0
1, 156960, Note_on_c, 0, 69, 61
1, 156960, Note_on_c, 0, 55, 51
1, 157200, Tempo, 408136
1, 157200, Note_on_c, 0, 55, 0
1, 157200, Note_on_c, 0, 69, 0
1, 157200, Note_on_c, 0, 65, 54
1, 157200, Note_on_c, 0, 57, 55
1, 157440, Tempo, 395596
1, 157440, Note_on_c, 0, 57, 0
1, 157440, Note_on_c, 0, 65, 0
1, 157440, Note_on_c, 0, 45, 0
1, 157440, Note_on_c, 0, 71, 51
1, 157440, Note_on_c, 0, 59, 41
1, 157440, Note_on_c, 0, 47, 35
1, 157440, Note_on_c, 0, 55, 35
1, 157680, Control_c, 0, 64, 127
1, 157920, Note_on_c, 0, 71, 0
1, 157920, Note_on_c, 0, 67, 46
1, 158160, Note_on_c, 0, 67, 0
1, 158160, Note_on_c, 0, 64, 46
1, 158400, Note_on_c, 0, 64, 0
1, 158400, Note_on_c, 0, 59, 0
1, 158400, Note_on_c, 0, 55, 0
1, 158400, Note_on_c, 0, 69, 51
1, 158400, Note_on_c, 0, 54, 33
1, 158400, Note_on_c, 0, 57, 39
1, 158420, Control_c, 0, 64, 0
1, 158560, Control_c, 0, 64, 127
1, 158880, Note_on_c, 0, 69, 0
1, 158880, Note_on_c, 0, 66, 46
1, 159120, Note_on_c, 0, 66, 0
1, 159120, Note_on_c, 0, 63, 46
1, 159360, Note_on_c, 0, 63, 0
1, 159360, Note_on_c, 0, 47, 0
1, 159360, Note_on_c, 0, 54, 0
1, 159360, Note_on_c, 0, 57, 0
1, 159360, Note_on_c, 0, 64, 55
1, 159360, Note_on_c, 0, 48, 37
1, 159360, Note_on_c, 0, 52, 37
1, 159360, Note_on_c, 0, 55, 44
1, 159366, Control_c, 0, 64, 0
1, 159600, Tempo, 413964
1, 159600, Note_on_c, 0, 55, 0
1, 159600, Note_on_c, 0, 64, 0
1, 159600, Note_on_c, 0, 48, 0
1, 159600, Note_on_c, 0, 52, 0
1, 159840, Tempo, 395596
1, 159840, Note_on_c, 0, 72, 66
1, 159840, Note_on_c, 0, 40, 42
1, 159840, Note_on_c, 0, 48, 51
1, 160080, Note_on_c, 0, 72, 0
1, 160080, Note_on_c, 0, 71, 62
1, 160320, Note_on_c, 0, 71, 0
1, 160320, Note_on_c, 0, 40, 0
1, 160320, Note_on_c, 0, 69, 66
1, 160320, Note_on_c, 0, 41, 42
1, 160560, Note_on_c, 0, 48, 0
1, 160560, Note_on_c, 0, 50, 49
1, 160800, Note_on_c, 0, 50, 0
1, 160800, Note_on_c, 0, 69, 0
1, 160800, Note_on_c, 0, 65, 61
1, 160800, Note_on_c, 0, 52, 51
1, 161040, Tempo, 412485
1, 161040, Note_on_c, 0, 52, 0
1, 161040, Note_on_c, 0, 65, 0
1, 161040, Note_on_c, 0, 62, 54
1, 161040, Note_on_c, 0, 53, 55
1, 161280, Tempo, 396957
1, 161280, Note_on_c, 0, 53, 0
1, 161280, Note_on_c, 0, 62, 0
1, 161280, Note_on_c, 0, 41, 0
1, 161280, Note_on_c, 0, 67, 51
1, 161280, Note_on_c, 0, 52, 35
1, 161280, Note_on_c, 0, 43, 35
1, 161280, Note_on_c, 0, 55, 41
1, 161506, Control_c, 0, 64, 127
1, 161760, Note_on_c, 0, 67, 0
1, 161760, Note_on_c, 0, 64, 46
1, 162000, Tempo, 409584
1, 162000, Note_on_c, 0, 64, 0
1, 162000, Note_on_c, 0, 60, 46
1, 162240, Tempo, 398327
1, 162240, Note_on_c, 0, 60, 0
1, 162240, Note_on_c, 0, 52, 0
1, 162240, Note_on_c, 0, 55, 0
1, 162240, Note_on_c, 0, 65, 51
1, 162240, Note_on_c, 0, 53, 39
1, 162240, Note_on_c, 0, 50, 33
1, 162259, Control_c, 0, 64, 0
1, 162523, Control_c, 0, 64, 127
1, 162720, Note_on_c, 0, 65, 0
1, 162720, Note_on_c, 0, 62, 46
1, 162960, Tempo, 411043
1, 162960, Note_on_c, 0, 62, 0
1, 162960, Note_on_c, 0, 59, 46
1, 163200, Tempo, 373902
1, 163200, Note_on_c, 0, 59, 0
1, 163200, Note_on_c, 0, 43, 0
1, 163200, Note_on_c, 0, 53, 0
1, 163200, Note_on_c, 0, 50, 0
1, 163200, Note_on_c, 0, 48, 28
1, 163200, Note_on_c, 0, 52, 33
1, 163200, Note_on_c, 0, 60, 40
1, 163200, Control_c, 0, 91, 127
1, 163200, Text_t, "bdca426d104a26ac9dcb070447587523"
1, 163200, Note_on_c, 0, 36, 25
1, 163218, Control_c, 0, 64, 0
1, 163380, Note_on_c, 0, 36, 0
1, 163380, Note_on_c, 0, 48, 0
1, 163380, Note_on_c, 0, 52, 0
1, 163440, Note_on_c, 0, 60, 0
1, 163440, Note_on_c, 0, 48, 28
1, 163440, Note_on_c, 0, 52, 33
1, 163440, Note_on_c, 0, 43, 26
1, 163440, Note_on_c, 0, 36, 22
1, 163620, Note_on_c, 0, 36, 0
1, 163620, Note_on_c, 0, 48, 0
1, 163620, Note_on_c, 0, 52, 0
1, 163620, Note_on_c, 0, 43, 0
1, 163680, Tempo, 371517
1, 163680, Note_on_c, 0, 48, 28
1, 163680, Note_on_c, 0, 52, 33
1, 163680, Note_on_c, 0, 43, 26
1, 163680, Note_on_c, 0, 36, 22
1, 163860, Note_on_c, 0, 36, 0
1, 163860, Note_on_c, 0, 48, 0
1, 163860, Note_on_c, 0, 52, 0
1, 163860, Note_on_c, 0, 43, 0
1, 163920, Note_on_c, 0, 48, 28
1, 163920, Note_on_c, 0, 52, 34
1, 163920, Note_on_c, 0, 43, 27
1, 163920, Note_on_c, 0, 36, 22
1, 164100, Note_on_c, 0, 36, 0
1, 164100, Note_on_c, 0, 48, 0
1, 164100, Note_on_c, 0, 52, 0
1, 164100, Note_on_c, 0, 43, 0
1, 164160, Note_on_c, 0, 48, 28
1, 164160, Note_on_c, 0, 52, 34
1, 164160, Note_on_c, 0, 43, 27
1, 164160, Note_on_c, 0, 36, 22
1, 164180, Tempo, 375117
1, 164340, Note_on_c, 0, 36, 0
1, 164340, Note_on_c, 0, 48, 0
1, 164340, Note_on_c, 0, 52, 0
1, 164340, Note_on_c, 0, 43, 0
1, 164400, Note_on_c, 0, 48, 28
1, 164400, Note_on_c, 0, 52, 34
1, 164400, Note_on_c, 0, 43, 28
1, 164400, Note_on_c, 0, 36, 23
1, 164580, Note_on_c, 0, 36, 0
1, 164580, Note_on_c, 0, 48, 0
1, 164580, Note_on_c, 0, 52, 0
1, 164580, Note_on_c, 0, 43, 0
1, 164640, Tempo, 372694
1, 164640, Note_on_c, 0, 48, 29
1, 164640, Note_on_c, 0, 52, 35
1, 164640, Note_on_c, 0, 43, 28
1, 164640, Note_on_c, 0, 36, 23
1, 164820, Note_on_c, 0, 36, 0
1, 164820, Note_on_c, 0, 48, 0
1, 164820, Note_on_c, 0, 52, 0
1, 164820, Note_on_c, 0, 43, 0
1, 164880, Note_on_c, 0, 48, 29
1, 164880, Note_on_c, 0, 52, 35
1, 164880, Note_on_c, 0, 43, 29
1, 164880, Note_on_c, 0, 36, 24
1, 165060, Note_on_c, 0, 36, 0
1, 165060, Note_on_c, 0, 48, 0
1, 165060, Note_on_c, 0, 52, 0
1, 165060, Note_on_c, 0, 43, 0
1, 165120, Note_on_c, 0, 48, 30
1, 165120, Note_on_c, 0, 52, 36
1, 165120, Note_on_c, 0, 36, 25
1, 165120, Note_on_c, 0, 43, 30
1, 165160, Tempo, 373902
1, 165300, Note_on_c, 0, 43, 0
1, 165300, Note_on_c, 0, 48, 0
1, 165300, Note_on_c, 0, 52, 0
1, 165300, Note_on_c, 0, 36, 0
1, 165360, Note_on_c, 0, 48, 30
1, 165360, Note_on_c, 0, 52, 36
1, 165360, Note_on_c, 0, 36, 22
1, 165360, Note_on_c, 0, 43, 27
1, 165540, Note_on_c, 0, 43, 0
1, 165540, Note_on_c, 0, 48, 0
1, 165540, Note_on_c, 0, 52, 0
1, 165540, Note_on_c, 0, 36, 0
1, 165600, Tempo, 372694
1, 165600, Note_on_c, 0, 48, 31
1, 165600, Note_on_c, 0, 52, 37
1, 165600, Note_on_c, 0, 36, 23
1, 165600, Note_on_c, 0, 43, 28
1, 165780, Note_on_c, 0, 43, 0
1, 165780, Note_on_c, 0, 48, 0
1, 165780, Note_on_c, 0, 52, 0
1, 165780, Note_on_c, 0, 36, 0
1, 165840, Note_on_c, 0, 48, 32
1, 165840, Note_on_c, 0, 52, 38
1, 165840, Note_on_c, 0, 36, 24
1, 165840, Note_on_c, 0, 43, 29
1, 166020, Note_on_c, 0, 43, 0
1, 166020, Note_on_c, 0, 48, 0
1, 166020, Note_on_c, 0, 52, 0
1, 166020, Note_on_c, 0, 36, 0
1, 166080, Tempo, 373902
1, 166080, Note_on_c, 0, 48, 33
1, 166080, Note_on_c, 0, 52, 39
1, 166080, Note_on_c, 0, 36, 25
1, 166080, Note_on_c, 0, 43, 30
1, 166260, Note_on_c, 0, 43, 0
1, 166260, Note_on_c, 0, 48, 0
1, 166260, Note_on_c, 0, 52, 0
1, 166260, Note_on_c, 0, 36, 0
1, 166320, Note_on_c, 0, 48, 34
1, 166320, Note_on_c, 0, 52, 40
1, 166320, Note_on_c, 0, 36, 25
1, 166320, Note_on_c, 0, 43, 30
1, 166500, Note_on_c, 0, 43, 0
1, 166500, Note_on_c, 0, 48, 0
1, 166500, Note_on_c, 0, 52, 0
1, 166500, Note_on_c, 0, 36, 0
1, 166560, Note_on_c, 0, 50, 34
1, 166560, Note_on_c, 0, 54, 40
1, 166560, Note_on_c, 0, 36, 25
1, 166560, Note_on_c, 0, 45, 30
1, 166740, Note_on_c, 0, 45, 0
1, 166740, Note_on_c, 0, 50, 0
1, 166740, Note_on_c, 0, 54, 0
1, 166740, Note_on_c, 0, 36, 0
1, 166800, Note_on_c, 0, 50, 34
1, 166800, Note_on_c, 0, 54, 40
1, 166800, Note_on_c, 0, 36, 25
1, 166800, Note_on_c, 0, 45, 30
1, 166980, Note_on_c, 0, 45, 0
1, 166980, Note_on_c, 0, 50, 0
1, 166980, Note_on_c, 0, 54, 0
1, 166980, Note_on_c, 0, 36, 0
1, 167040, Tempo, 376176
1, 167040, Marker_t, "Part 1 repitition"
1, 167040, Note_on_c, 0, 50, 39
1, 167040, Note_on_c, 0, 55, 46
1, 167040, Note_on_c, 0, 35, 25
1, 167040, Note_on_c, 0, 43, 30
1, 167040, Control_c, 0, 64, 0
1, 167220, Note_on_c, 0, 43, 0
1, 167220, Note_on_c, 0, 35, 0
1, 167280, Note_on_c, 0, 35, 25
1, 167280, Note_on_c, 0, 43, 30
1, 167460, Note_on_c, 0, 43, 0
1, 167460, Note_on_c, 0, 35, 0
1, 167520, Note_on_c, 0, 35, 25
1, 167520, Note_on_c, 0, 43, 30
1, 167700, Note_on_c, 0, 43, 0
1, 167700, Note_on_c, 0, 35, 0
1, 167760, Note_on_c, 0, 55, 0
1, 167760, Note_on_c, 0, 50, 0
1, 167760, Note_on_c, 0, 59, 40
1, 167760, Note_on_c, 0, 35, 25
1, 167760, Note_on_c, 0, 43, 30
1, 167880, Note_on_c, 0, 59, 0
1, 167880, Note_on_c, 0, 57, 40
1, 167940, Note_on_c, 0, 43, 0
1, 167940, Note_on_c, 0, 35, 0
1, 168000, Note_on_c, 0, 57, 0
1, 168000, Note_on_c, 0, 55, 45
1, 168000, Note_on_c, 0, 35, 25
1, 168000, Note_on_c, 0, 43, 30
1, 168120, Note_on_c, 0, 55, 0
1, 168180, Note_on_c, 0, 43, 0
1, 168180, Note_on_c, 0, 35, 0
1, 168240, Note_on_c, 0, 35, 25
1, 168240, Note_on_c, 0, 43, 30
1, 168420, Note_on_c, 0, 43, 0
1, 168420, Note_on_c, 0, 35, 0
1, 168480, Note_on_c, 0, 35, 25
1, 168480, Note_on_c, 0, 43, 30
1, 168660, Note_on_c, 0, 43, 0
1, 168660, Note_on_c, 0, 35, 0
1, 168720, Tempo, 388350
1, 168720, Note_on_c, 0, 35, 25
1, 168720, Note_on_c, 0, 43, 30
1, 168900, Note_on_c, 0, 43, 0
1, 168900, Note_on_c, 0, 35, 0
1, 168900, Note_on_c, 0, 85, 46
1, 168960, Tempo, 379747
1, 168960, Note_on_c, 0, 85, 0
1, 168960, Note_on_c, 0, 86, 57
1, 168960, Note_on_c, 0, 35, 25
1, 168960, Note_on_c, 0, 43, 30
1, 169140, Note_on_c, 0, 43, 0
1, 169140, Note_on_c, 0, 35, 0
1, 169200, Note_on_c, 0, 35, 25
1, 169200, Note_on_c, 0, 43, 30
1, 169380, Note_on_c, 0, 43, 0
1, 169380, Note_on_c, 0, 35, 0
1, 169440, Note_on_c, 0, 35, 25
1, 169440, Note_on_c, 0, 43, 30
1, 169560, Note_on_c, 0, 86, 0
1, 169560, Note_on_c, 0, 84, 48
1, 169620, Note_on_c, 0, 43, 0
1, 169620, Note_on_c, 0, 35, 0
1, 169680, Note_on_c, 0, 84, 0
1, 169680, Note_on_c, 0, 83, 47
1, 169680, Note_on_c, 0, 35, 25
1, 169680, Note_on_c, 0, 43, 30
1, 169800, Note_on_c, 0, 83, 0
1, 169800, Note_on_c, 0, 81, 45
1, 169860, Note_on_c, 0, 43, 0
1, 169860, Note_on_c, 0, 35, 0
1, 169920, Tempo, 373902
1, 169920, Note_on_c, 0, 81, 0
1, 169920, Note_on_c, 0, 79, 44
1, 169920, Note_on_c, 0, 35, 25
1, 169920, Note_on_c, 0, 43, 30
1, 170100, Note_on_c, 0, 43, 0
1, 170100, Note_on_c, 0, 35, 0
1, 170160, Note_on_c, 0, 79, 0
1, 170160, Note_on_c, 0, 35, 25
1, 170160, Note_on_c, 0, 43, 30
1, 170340, Note_on_c, 0, 43, 0
1, 170340, Note_on_c, 0, 35, 0
1, 170400, Note_on_c, 0, 35, 25
1, 170400, Note_on_c, 0, 43, 30
1, 170580, Note_on_c, 0, 43, 0
1, 170580, Note_on_c, 0, 35, 0
1, 170640, Tempo, 381291
1, 170640, Note_on_c, 0, 35, 25
1, 170640, Note_on_c, 0, 43, 30
1, 170820, Note_on_c, 0, 43, 0
1, 170820, Note_on_c, 0, 35, 0
1, 170880, Tempo, 373902
1, 170880, Note_on_c, 0, 46, 29
1, 170880, Note_on_c, 0, 50, 35
1, 170880, Control_c, 0, 91, 127
1, 170880, Text_t, "bdca426d104a26ac9dcb070447587523"
1, 170880, Note_on_c, 0, 41, 30
1, 170880, Note_on_c, 0, 34, 26
1, 170880, Control_c, 0, 64, 0
1, 171060, Note_on_c, 0, 34, 0
1, 171060, Note_on_c, 0, 46, 0
1, 171060, Note_on_c, 0, 50, 0
1, 171060, Note_on_c, 0, 41, 0
1, 171120, Note_on_c, 0, 46, 29
1, 171120, Note_on_c, 0, 50, 35
1, 171120, Note_on_c, 0, 41, 30
1, 171120, Note_on_c, 0, 34, 25
1, 171300, Note_on_c, 0, 34, 0
1, 171300, Note_on_c, 0, 46, 0
1, 171300, Note_on_c, 0, 50, 0
1, 171300, Note_on_c, 0, 41, 0
1, 171360, Tempo, 370325
1, 171360, Note_on_c, 0, 46, 29
1, 171360, Note_on_c, 0, 50, 35
1, 171360, Note_on_c, 0, 41, 30
1, 171360, Note_on_c, 0, 34, 25
1, 171540, Note_on_c, 0, 34, 0
1, 171540, Note_on_c, 0, 46, 0
1, 171540, Note_on_c, 0, 50, 0
1, 171540, Note_on_c, 0, 41, 0
1, 171600, Note_on_c, 0, 46, 30
1, 171600, Note_on_c, 0, 50, 36
1, 171600, Note_on_c, 0, 41, 31
1, 171600, Note_on_c, 0, 34, 26
1, 171780, Note_on_c, 0, 34, 0
1, 171780, Note_on_c, 0, 46, 0
1, 171780, Note_on_c, 0, 50, 0
1, 171780, Note_on_c, 0, 41, 0
1, 171840, Tempo, 375117
1, 171840, Note_on_c, 0, 46, 31
1, 171840, Note_on_c, 0, 50, 37
1, 171840, Note_on_c, 0, 41, 31
1, 171840, Note_on_c, 0, 34, 26
1, 172020, Note_on_c, 0, 34, 0
1, 172020, Note_on_c, 0, 46, 0
1, 172020, Note_on_c, 0, 50, 0
1, 172020, Note_on_c, 0, 41, 0
1, 172080, Note_on_c, 0, 46, 31
1, 172080, Note_on_c, 0, 50, 37
1, 172080, Note_on_c, 0, 41, 31
1, 172080, Note_on_c, 0, 34, 26
1, 172260, Note_on_c, 0, 34, 0
1, 172260, Note_on_c, 0, 46, 0
1, 172260, Note_on_c, 0, 50, 0
1, 172260, Note_on_c, 0, 41, 0
1, 172320, Note_on_c, 0, 46, 32
1, 172320, Note_on_c, 0, 50, 38
1, 172320, Note_on_c, 0, 41, 31
1, 172320, Note_on_c, 0, 34, 26
1, 172500, Note_on_c, 0, 34, 0
1, 172500, Note_on_c, 0, 46, 0
1, 172500, Note_on_c, 0, 50, 0
1, 172500, Note_on_c, 0, 41, 0
1, 172560, Note_on_c, 0, 46, 33
1, 172560, Note_on_c, 0, 50, 39
1, 172560, Note_on_c, 0, 41, 31
1, 172560, Note_on_c, 0, 34, 26
1, 172740, Note_on_c, 0, 34, 0
1, 172740, Note_on_c, 0, 46, 0
1, 172740, Note_on_c, 0, 50, 0
1, 172740, Note_on_c, 0, 41, 0
1, 172800, Tempo, 373902
1, 172800, Note_on_c, 0, 46, 33
1, 172800, Note_on_c, 0, 50, 39
1, 172800, Note_on_c, 0, 34, 26
1, 172800, Note_on_c, 0, 41, 31
1, 172980, Note_on_c, 0, 41, 0
1, 172980, Note_on_c, 0, 46, 0
1, 172980, Note_on_c, 0, 50, 0
1, 172980, Note_on_c, 0, 34, 0
1, 173040, Note_on_c, 0, 46, 34
1, 173040, Note_on_c, 0, 50, 40
1, 173040, Note_on_c, 0, 34, 26
1, 173040, Note_on_c, 0, 41, 31
1, 173220, Note_on_c, 0, 41, 0
1, 173220, Note_on_c, 0, 46, 0
1, 173220, Note_on_c, 0, 50, 0
1, 173220, Note_on_c, 0, 34, 0
1, 173280, Tempo, 375117
1, 173280, Note_on_c, 0, 46, 34
1, 173280, Note_on_c, 0, 50, 40
1, 173280, Note_on_c, 0, 34, 26
1, 173280, Note_on_c, 0, 41, 31
1, 173460, Note_on_c, 0, 41, 0
1, 173460, Note_on_c, 0, 46, 0
1, 173460, Note_on_c, 0, 50, 0
1, 173460, Note_on_c, 0, 34, 0
1, 173520, Note_on_c, 0, 46, 34
1, 173520, Note_on_c, 0, 50, 40
1, 173520, Note_on_c, 0, 34, 26
1, 173520, Note_on_c, 0, 41, 31
1, 173700, Note_on_c, 0, 41, 0
1, 173700, Note_on_c, 0, 46, 0
1, 173700, Note_on_c, 0, 50, 0
1, 173700, Note_on_c, 0, 34, 0
1, 173760, Tempo, 370325
1, 173760, Note_on_c, 0, 46, 34
1, 173760, Note_on_c, 0, 50, 40
1, 173760, Note_on_c, 0, 34, 26
1, 173760, Note_on_c, 0, 41, 31
1, 173940, Note_on_c, 0, 41, 0
1, 173940, Note_on_c, 0, 46, 0
1, 173940, Note_on_c, 0, 50, 0
1, 173940, Note_on_c, 0, 34, 0
1, 174000, Note_on_c, 0, 46, 34
1, 174000, Note_on_c, 0, 50, 40
1, 174000, Note_on_c, 0, 34, 25
1, 174000, Note_on_c, 0, 41, 30
1, 174180, Note_on_c, 0, 41, 0
1, 174180, Note_on_c, 0, 46, 0
1, 174180, Note_on_c, 0, 50, 0
1, 174180, Note_on_c, 0, 34, 0
1, 174240, Tempo, 371517
1, 174240, Note_on_c, 0, 48, 34
1, 174240, Note_on_c, 0, 52, 40
1, 174240, Note_on_c, 0, 34, 25
1, 174240, Note_on_c, 0, 43, 30
1, 174420, Note_on_c, 0, 43, 0
1, 174420, Note_on_c, 0, 48, 0
1, 174420, Note_on_c, 0, 52, 0
1, 174420, Note_on_c, 0, 34, 0
1, 174480, Note_on_c, 0, 48, 34
1, 174480, Note_on_c, 0, 52, 40
1, 174480, Note_on_c, 0, 34, 25
1, 174480, Note_on_c, 0, 43, 30
1, 174660, Note_on_c, 0, 43, 0
1, 174660, Note_on_c, 0, 48, 0
1, 174660, Note_on_c, 0, 52, 0
1, 174660, Note_on_c, 0, 34, 0
1, 174720, Note_on_c, 0, 48, 39
1, 174720, Note_on_c, 0, 53, 46
1, 174720, Note_on_c, 0, 33, 25
1, 174720, Note_on_c, 0, 41, 30
1, 174740, Tempo, 372694
1, 174900, Note_on_c, 0, 41, 0
1, 174900, Note_on_c, 0, 33, 0
1, 174960, Note_on_c, 0, 33, 25
1, 174960, Note_on_c, 0, 41, 30
1, 175140, Note_on_c, 0, 41, 0
1, 175140, Note_on_c, 0, 33, 0
1, 175200, Note_on_c, 0, 33, 25
1, 175200, Note_on_c, 0, 41, 30
1, 175380, Note_on_c, 0, 41, 0
1, 175380, Note_on_c, 0, 33, 0
1, 175440, Note_on_c, 0, 53, 0
1, 175440, Note_on_c, 0, 48, 0
1, 175440, Note_on_c, 0, 57, 40
1, 175440, Note_on_c, 0, 33, 25
1, 175440, Note_on_c, 0, 41, 30
1, 175560, Note_on_c, 0, 57, 0
1, 175560, Note_on_c, 0, 55, 40
1, 175620, Note_on_c, 0, 41, 0
1, 175620, Note_on_c, 0, 33, 0
1, 175680, Note_on_c, 0, 55, 0
1, 175680, Note_on_c, 0, 53, 45
1, 175680, Note_on_c, 0, 33, 25
1, 175680, Note_on_c, 0, 41, 30
1, 175800, Note_on_c, 0, 53, 0
1, 175860, Note_on_c, 0, 41, 0
1, 175860, Note_on_c, 0, 33, 0
1, 175920, Note_on_c, 0, 33, 25
1, 175920, Note_on_c, 0, 41, 30
1, 176100, Note_on_c, 0, 41, 0
1, 176100, Note_on_c, 0, 33, 0
1, 176160, Tempo, 385852
1, 176160, Note_on_c, 0, 33, 25
1, 176160, Note_on_c, 0, 41, 30
1, 176340, Note_on_c, 0, 41, 0
1, 176340, Note_on_c, 0, 33, 0
1, 176400, Tempo, 389610
1, 176400, Note_on_c, 0, 33, 25
1, 176400, Note_on_c, 0, 41, 30
1, 176580, Note_on_c, 0, 41, 0
1, 176580, Note_on_c, 0, 33, 0
1, 176580, Note_on_c, 0, 83, 46
1, 176640, Tempo, 378549
1, 176640, Note_on_c, 0, 83, 0
1, 176640, Note_on_c, 0, 84, 57
1, 176640, Note_on_c, 0, 32, 25
1, 176640, Note_on_c, 0, 41, 30
1, 176820, Note_on_c, 0, 41, 0
1, 176820, Note_on_c, 0, 32, 0
1, 176880, Note_on_c, 0, 32, 25
1, 176880, Note_on_c, 0, 41, 30
1, 177060, Note_on_c, 0, 41, 0
1, 177060, Note_on_c, 0, 32, 0
1, 177120, Note_on_c, 0, 32, 25
1, 177120, Note_on_c, 0, 41, 30
1, 177240, Note_on_c, 0, 84, 0
1, 177240, Note_on_c, 0, 82, 50
1, 177300, Note_on_c, 0, 41, 0
1, 177300, Note_on_c, 0, 32, 0
1, 177360, Note_on_c, 0, 82, 0
1, 177360, Note_on_c, 0, 80, 49
1, 177360, Note_on_c, 0, 32, 25
1, 177360, Note_on_c, 0, 41, 30
1, 177480, Note_on_c, 0, 80, 0
1, 177480, Note_on_c, 0, 79, 47
1, 177540, Note_on_c, 0, 41, 0
1, 177540, Note_on_c, 0, 32, 0
1, 177600, Note_on_c, 0, 79, 0
1, 177600, Note_on_c, 0, 77, 46
1, 177600, Note_on_c, 0, 32, 25
1, 177600, Note_on_c, 0, 41, 30
1, 177780, Note_on_c, 0, 41, 0
1, 177780, Note_on_c, 0, 32, 0
1, 177840, Note_on_c, 0, 77, 0
1, 177840, Note_on_c, 0, 32, 25
1, 177840, Note_on_c, 0, 41, 30
1, 178020, Note_on_c, 0, 41, 0
1, 178020, Note_on_c, 0, 32, 0
1, 178040, Tempo, 383803
1, 178080, Tempo, 388350
1, 178080, Note_on_c, 0, 32, 25
1, 178080, Note_on_c, 0, 41, 30
1, 178260, Note_on_c, 0, 41, 0
1, 178260, Note_on_c, 0, 32, 0
1, 178320, Note_on_c, 0, 32, 25
1, 178320, Note_on_c, 0, 41, 30
1, 178500, Note_on_c, 0, 41, 0
1, 178500, Note_on_c, 0, 32, 0
1, 178500, Note_on_c, 0, 88, 67
1, 178560, Tempo, 373902
1, 178560, Note_on_c, 0, 88, 0
1, 178560, Note_on_c, 0, 89, 73
1, 178560, Note_on_c, 0, 31, 30
1, 178560, Note_on_c, 0, 41, 36
1, 178740, Note_on_c, 0, 41, 0
1, 178740, Note_on_c, 0, 31, 0
1, 178800, Note_on_c, 0, 31, 32
1, 178800, Note_on_c, 0, 41, 38
1, 178980, Note_on_c, 0, 41, 0
1, 178980, Note_on_c, 0, 31, 0
1, 179040, Tempo, 371517
1, 179040, Note_on_c, 0, 31, 33
1, 179040, Note_on_c, 0, 41, 39
1, 179220, Note_on_c, 0, 41, 0
1, 179220, Note_on_c, 0, 31, 0
1, 179280, Note_on_c, 0, 31, 34
1, 179280, Note_on_c, 0, 41, 41
1, 179460, Note_on_c, 0, 41, 0
1, 179460, Note_on_c, 0, 31, 0
1, 179520, Tempo, 375117
1, 179520, Note_on_c, 0, 31, 36
1, 179520, Note_on_c, 0, 41, 43
1, 179700, Note_on_c, 0, 41, 0
1, 179700, Note_on_c, 0, 31, 0
1, 179760, Note_on_c, 0, 31, 38
1, 179760, Note_on_c, 0, 41, 45
1, 179940, Note_on_c, 0, 41, 0
1, 179940, Note_on_c, 0, 31, 0
1, 180000, Note_on_c, 0, 89, 0
1, 180000, Note_on_c, 0, 89, 74
1, 180000, Note_on_c, 0, 32, 39
1, 180000, Note_on_c, 0, 41, 46
1, 180120, Note_on_c, 0, 89, 0
1, 180120, Note_on_c, 0, 87, 73
1, 180180, Note_on_c, 0, 41, 0
1, 180180, Note_on_c, 0, 32, 0
1, 180240, Note_on_c, 0, 87, 0
1, 180240, Note_on_c, 0, 86, 71
1, 180240, Note_on_c, 0, 32, 40
1, 180240, Note_on_c, 0, 41, 48
1, 180360, Note_on_c, 0, 86, 0
1, 180360, Note_on_c, 0, 84, 70
1, 180420, Note_on_c, 0, 41, 0
1, 180420, Note_on_c, 0, 32, 0
1, 180480, Tempo, 373902
1, 180480, Note_on_c, 0, 84, 0
1, 180480, Note_on_c, 0, 83, 72
1, 180480, Note_on_c, 0, 31, 44
1, 180480, Note_on_c, 0, 41, 52
1, 180600, Note_on_c, 0, 83, 0
1, 180600, Note_on_c, 0, 84, 71
1, 180660, Note_on_c, 0, 41, 0
1, 180660, Note_on_c, 0, 31, 0
1, 180720, Note_on_c, 0, 84, 0
1, 180720, Note_on_c, 0, 86, 72
1, 180720, Note_on_c, 0, 31, 44
1, 180720, Note_on_c, 0, 41, 52
1, 180840, Note_on_c, 0, 86, 0
1, 180840, Note_on_c, 0, 87, 73
1, 180900, Note_on_c, 0, 41, 0
1, 180900, Note_on_c, 0, 31, 0
1, 180960, Tempo, 377572
1, 180960, Note_on_c, 0, 87, 0
1, 180960, Note_on_c, 0, 89, 74
1, 180960, Note_on_c, 0, 32, 45
1, 180960, Note_on_c, 0, 41, 55
1, 181080, Note_on_c, 0, 89, 0
1, 181080, Note_on_c, 0, 87, 72
1, 181140, Note_on_c, 0, 41, 0
1, 181140, Note_on_c, 0, 32, 0
1, 181200, Note_on_c, 0, 87, 0
1, 181200, Note_on_c, 0, 86, 71
1, 181200, Note_on_c, 0, 32, 46
1, 181200, Note_on_c, 0, 41, 55
1, 181320, Note_on_c, 0, 86, 0
1, 181320, Note_on_c, 0, 84, 69
1, 181380, Note_on_c, 0, 41, 0
1, 181380, Note_on_c, 0, 32, 0
1, 181440, Tempo, 373902
1, 181440, Note_on_c, 0, 84, 0
1, 181440, Note_on_c, 0, 83, 72
1, 181440, Note_on_c, 0, 31, 48
1, 181440, Note_on_c, 0, 41, 58
1, 181560, Note_on_c, 0, 83, 0
1, 181560, Note_on_c, 0, 84, 75
1, 181620, Note_on_c, 0, 41, 0
1, 181620, Note_on_c, 0, 31, 0
1, 181680, Note_on_c, 0, 84, 0
1, 181680, Note_on_c, 0, 86, 77
1, 181680, Note_on_c, 0, 31, 51
1, 181680, Note_on_c, 0, 41, 60
1, 181800, Note_on_c, 0, 86, 0
1, 181800, Note_on_c, 0, 87, 80
1, 181860, Note_on_c, 0, 41, 0
1, 181860, Note_on_c, 0, 31, 0
1, 181920, Note_on_c, 0, 87, 0
1, 181920, Note_on_c, 0, 89, 80
1, 181920, Note_on_c, 0, 32, 54
1, 181920, Note_on_c, 0, 41, 64
1, 182040, Note_on_c, 0, 89, 0
1, 182040, Note_on_c, 0, 87, 80
1, 182100, Note_on_c, 0, 41, 0
1, 182100, Note_on_c, 0, 32, 0
1, 182160, Note_on_c, 0, 87, 0
1, 182160, Note_on_c, 0, 86, 79
1, 182160, Note_on_c, 0, 32, 56
1, 182160, Note_on_c, 0, 41, 66
1, 182280, Note_on_c, 0, 86, 0
1, 182280, Note_on_c, 0, 84, 81
1, 182340, Note_on_c, 0, 41, 0
1, 182340, Note_on_c, 0, 32, 0
1, 182400, Tempo, 375117
1, 182400, Note_on_c, 0, 84, 0
1, 182400, Note_on_c, 0, 83, 85
1, 182400, Note_on_c, 0, 31, 70
1, 182400, Note_on_c, 0, 41, 85
1, 182440, Tempo, 376341
1, 182480, Tempo, 378788
1, 182520, Tempo, 380035
1, 182520, Note_on_c, 0, 83, 0
1, 182520, Note_on_c, 0, 84, 89
1, 182560, Tempo, 382555
1, 182600, Tempo, 383803
1, 182640, Tempo, 386374
1, 182640, Note_on_c, 0, 84, 0
1, 182640, Note_on_c, 0, 86, 94
1, 182680, Tempo, 390269
1, 182720, Tempo, 399707
1, 182760, Tempo, 409584
1, 182760, Note_on_c, 0, 86, 0
1, 182760, Note_on_c, 0, 87, 98
1, 182800, Tempo, 419962
1, 182840, Tempo, 430911
1, 182880, Tempo, 373902
1, 182880, Note_on_c, 0, 87, 0
1, 182880, Note_on_c, 0, 41, 0
1, 182880, Note_on_c, 0, 31, 0
1, 182880, Note_on_c, 0, 89, 100
1, 182880, Note_on_c, 0, 43, 81
1, 182880, Note_on_c, 0, 55, 96
1, 183000, Note_on_c, 0, 89, 0
1, 183000, Note_on_c, 0, 87, 98
1, 183120, Note_on_c, 0, 87, 0
1, 183120, Note_on_c, 0, 86, 96
1, 183240, Note_on_c, 0, 86, 0
1, 183240, Note_on_c, 0, 84, 94
1, 183360, Note_on_c, 0, 84, 0
1, 183360, Note_on_c, 0, 83, 93
1, 183480, Note_on_c, 0, 83, 0
1, 183480, Note_on_c, 0, 80, 91
1, 183600, Note_on_c, 0, 80, 0
1, 183600, Note_on_c, 0, 79, 89
1, 183720, Note_on_c, 0, 79, 0
1, 183720, Note_on_c, 0, 77, 87
1, 183840, Tempo, 380035
1, 183840, Note_on_c, 0, 77, 0
1, 183840, Note_on_c, 0, 75, 85
1, 183960, Note_on_c, 0, 75, 0
1, 183960, Note_on_c, 0, 74, 83
1, 184080, Note_on_c, 0, 74, 0
1, 184080, Note_on_c, 0, 55, 0
1, 184080, Note_on_c, 0, 43, 0
1, 184080, Note_on_c, 0, 72, 81
1, 184080, Note_on_c, 0, 57, 67
1, 184200, Note_on_c, 0, 57, 0
1, 184200, Note_on_c, 0, 72, 0
1, 184200, Note_on_c, 0, 71, 79
1, 184200, Note_on_c, 0, 59, 70
1, 184320, Tempo, 400000
1, 184320, Note_on_c, 0, 59, 0
1, 184320, Note_on_c, 0, 71, 0
1, 184320, Note_on_c, 0, 72, 93
1, 184320, Note_on_c, 0, 60, 72
1, 184500, Note_on_c, 0, 60, 0
1, 184500, Note_on_c, 0, 72, 0
1, 184800, Tempo, 434783
1, 184800, Note_on_c, 0, 67, 83
1, 184800, Note_on_c, 0, 43, 56
1, 184800, Note_on_c, 0, 55, 66
1, 184980, Note_on_c, 0, 55, 0
1, 184980, Note_on_c, 0, 43, 0
1, 184980, Note_on_c, 0, 67, 0
1, 185240, Tempo, 452830
1, 185280, Tempo, 489796
1, 185280, Note_on_c, 0, 63, 72
1, 185280, Note_on_c, 0, 39, 52
1, 185280, Note_on_c, 0, 51, 62
1, 185460, Note_on_c, 0, 51, 0
1, 185460, Note_on_c, 0, 39, 0
1, 185460, Note_on_c, 0, 63, 0
1, 185760, Tempo, 591133
1, 185760, Note_on_c, 0, 60, 64
1, 185760, Note_on_c, 0, 36, 48
1, 185760, Note_on_c, 0, 48, 57
1, 185940, Note_on_c, 0, 48, 0
1, 185940, Note_on_c, 0, 36, 0
1, 185940, Note_on_c, 0, 60, 0
1, 186240, Tempo, 451128
1, 186240, Note_on_c, 0, 55, 60
1, 186240, Note_on_c, 0, 31, 46
1, 186240, Note_on_c, 0, 43, 54
1, 188160, Tempo, 373902
1, 188160, Note_on_c, 0, 43, 0
1, 188160, Note_on_c, 0, 31, 0
1, 188160, Note_on_c, 0, 55, 0
1, 188160, Note_on_c, 0, 64, 37
1, 188160, Note_on_c, 0, 36, 30
1, 188160, Note_on_c, 0, 48, 30
1, 188279, Note_on_c, 0, 64, 0
1, 188280, Note_on_c, 0, 60, 33
1, 188400, Note_on_c, 0, 60, 0
1, 188400, Note_on_c, 0, 48, 0
1, 188400, Note_on_c, 0, 64, 37
1, 188400, Note_on_c, 0, 48, 31
1, 188439, Control_c, 0, 64, 127
1, 188519, Note_on_c, 0, 48, 0
1, 188519, Note_on_c, 0, 64, 0
1, 188520, Note_on_c, 0, 60, 33
1, 188520, Note_on_c, 0, 55, 26
1, 188640, Tempo, 371517
1, 188640, Note_on_c, 0, 55, 0
1, 188640, Note_on_c, 0, 60, 0
1, 188640, Note_on_c, 0, 64, 37
1, 188640, Note_on_c, 0, 48, 31
1, 188759, Note_on_c, 0, 48, 0
1, 188759, Note_on_c, 0, 64, 0
1, 188760, Note_on_c, 0, 60, 33
1, 188760, Note_on_c, 0, 55, 27
1, 188880, Note_on_c, 0, 55, 0
1, 188880, Note_on_c, 0, 60, 0
1, 188880, Note_on_c, 0, 64, 36
1, 188880, Note_on_c, 0, 48, 31
1, 188999, Note_on_c, 0, 48, 0
1, 188999, Note_on_c, 0, 64, 0
1, 189000, Note_on_c, 0, 60, 33
1, 189000, Note_on_c, 0, 55, 27
1, 189120, Note_on_c, 0, 55, 0
1, 189120, Note_on_c, 0, 60, 0
1, 189120, Note_on_c, 0, 64, 36
1, 189120, Note_on_c, 0, 48, 31
1, 189239, Note_on_c, 0, 48, 0
1, 189239, Note_on_c, 0, 64, 0
1, 189240, Note_on_c, 0, 60, 33
1, 189240, Note_on_c, 0, 55, 26
1, 189360, Note_on_c, 0, 55, 0
1, 189360, Note_on_c, 0, 60, 0
1, 189360, Note_on_c, 0, 64, 37
1, 189360, Note_on_c, 0, 48, 31
1, 189479, Note_on_c, 0, 48, 0
1, 189479, Note_on_c, 0, 64, 0
1, 189480, Note_on_c, 0, 60, 33
1, 189480, Note_on_c, 0, 55, 27
1, 189600, Tempo, 373902
1, 189600, Note_on_c, 0, 55, 0
1, 189600, Note_on_c, 0, 60, 0
1, 189600, Note_on_c, 0, 64, 36
1, 189600, Note_on_c, 0, 48, 31
1, 189719, Note_on_c, 0, 48, 0
1, 189719, Note_on_c, 0, 64, 0
1, 189720, Note_on_c, 0, 60, 33
1, 189720, Note_on_c, 0, 55, 27
1, 189840, Note_on_c, 0, 55, 0
1, 189840, Note_on_c, 0, 60, 0
1, 189840, Note_on_c, 0, 64, 36
1, 189840, Note_on_c, 0, 48, 31
1, 189959, Note_on_c, 0, 48, 0
1, 189959, Note_on_c, 0, 64, 0
1, 189960, Note_on_c, 0, 60, 33
1, 189960, Note_on_c, 0, 55, 25
1, 190080, Note_on_c, 0, 55, 0
1, 190080, Note_on_c, 0, 60, 0
1, 190080, Note_on_c, 0, 36, 0
1, 190080, Note_on_c, 0, 64, 37
1, 190080, Note_on_c, 0, 48, 31
1, 190100, Tempo, 373902
1, 190199, Note_on_c, 0, 48, 0
1, 190199, Note_on_c, 0, 64, 0
1, 190200, Note_on_c, 0, 60, 33
1, 190200, Note_on_c, 0, 55, 26
1, 190320, Note_on_c, 0, 55, 0
1, 190320, Note_on_c, 0, 60, 0
1, 190320, Note_on_c, 0, 64, 37
1, 190320, Note_on_c, 0, 48, 31
1, 190439, Note_on_c, 0, 48, 0
1, 190439, Note_on_c, 0, 64, 0
1, 190440, Note_on_c, 0, 60, 33
1, 190440, Note_on_c, 0, 55, 26
1, 190560, Tempo, 370325
1, 190560, Note_on_c, 0, 55, 0
1, 190560, Note_on_c, 0, 60, 0
1, 190560, Note_on_c, 0, 64, 37
1, 190560, Note_on_c, 0, 48, 31
1, 190679, Note_on_c, 0, 48, 0
1, 190679, Note_on_c, 0, 64, 0
1, 190680, Note_on_c, 0, 60, 33
1, 190680, Note_on_c, 0, 55, 27
1, 190800, Note_on_c, 0, 55, 0
1, 190800, Note_on_c, 0, 60, 0
1, 190800, Note_on_c, 0, 64, 36
1, 190800, Note_on_c, 0, 48, 31
1, 190919, Note_on_c, 0, 48, 0
1, 190919, Note_on_c, 0, 64, 0
1, 190920, Note_on_c, 0, 60, 33
1, 190920, Note_on_c, 0, 55, 27
1, 191040, Note_on_c, 0, 55, 0
1, 191040, Note_on_c, 0, 60, 0
1, 191040, Note_on_c, 0, 64, 36
1, 191040, Note_on_c, 0, 48, 31
1, 191159, Note_on_c, 0, 48, 0
1, 191159, Note_on_c, 0, 64, 0
1, 191160, Note_on_c, 0, 60, 33
1, 191160, Note_on_c, 0, 55, 26
1, 191280, Note_on_c, 0, 55, 0
1, 191280, Note_on_c, 0, 60, 0
1, 191280, Note_on_c, 0, 64, 37
1, 191280, Note_on_c, 0, 48, 31
1, 191399, Note_on_c, 0, 48, 0
1, 191399, Note_on_c, 0, 64, 0
1, 191400, Note_on_c, 0, 60, 33
1, 191400, Note_on_c, 0, 55, 27
1, 191520, Note_on_c, 0, 55, 0
1, 191520, Note_on_c, 0, 60, 0
1, 191520, Note_on_c, 0, 66, 36
1, 191520, Note_on_c, 0, 48, 31
1, 191534, Control_c, 0, 64, 0
1, 191540, Tempo, 373902
1, 191595, Control_c, 0, 64, 127
1, 191639, Note_on_c, 0, 48, 0
1, 191639, Note_on_c, 0, 66, 0
1, 191640, Note_on_c, 0, 62, 33
1, 191640, Note_on_c, 0, 57, 27
1, 191760, Note_on_c, 0, 57, 0
1, 191760, Note_on_c, 0, 62, 0
1, 191760, Note_on_c, 0, 66, 36
1, 191760, Note_on_c, 0, 48, 31
1, 191879, Note_on_c, 0, 48, 0
1, 191879, Note_on_c, 0, 66, 0
1, 191880, Note_on_c, 0, 62, 33
1, 191880, Note_on_c, 0, 57, 25
1, 192000, Tempo, 373902
1, 192000, Note_on_c, 0, 57, 0
1, 192000, Note_on_c, 0, 62, 0
1, 192000, Note_on_c, 0, 67, 46
1, 192000, Note_on_c, 0, 47, 26
1, 192000, Note_on_c, 0, 50, 31
1, 192008, Control_c, 0, 64, 0
1, 192120, Note_on_c, 0, 55, 25
1, 192180, Note_on_c, 0, 50, 0
1, 192180, Note_on_c, 0, 47, 0
1, 192240, Note_on_c, 0, 55, 0
1, 192240, Note_on_c, 0, 47, 26
1, 192240, Note_on_c, 0, 50, 31
1, 192360, Note_on_c, 0, 55, 25
1, 192420, Note_on_c, 0, 50, 0
1, 192420, Note_on_c, 0, 47, 0
1, 192480, Note_on_c, 0, 55, 0
1, 192480, Note_on_c, 0, 47, 26
1, 192480, Note_on_c, 0, 50, 31
1, 192600, Note_on_c, 0, 55, 25
1, 192660, Note_on_c, 0, 50, 0
1, 192660, Note_on_c, 0, 47, 0
1, 192720, Note_on_c, 0, 67, 0
1, 192720, Note_on_c, 0, 55, 0
1, 192720, Note_on_c, 0, 71, 40
1, 192720, Note_on_c, 0, 47, 26
1, 192720, Note_on_c, 0, 50, 31
1, 192840, Note_on_c, 0, 71, 0
1, 192840, Note_on_c, 0, 69, 40
1, 192840, Note_on_c, 0, 55, 25
1, 192900, Note_on_c, 0, 50, 0
1, 192900, Note_on_c, 0, 47, 0
1, 192960, Note_on_c, 0, 69, 0
1, 192960, Note_on_c, 0, 55, 0
1, 192960, Note_on_c, 0, 67, 45
1, 192960, Note_on_c, 0, 47, 26
1, 192960, Note_on_c, 0, 50, 31
1, 193080, Note_on_c, 0, 67, 0
1, 193080, Note_on_c, 0, 55, 25
1, 193140, Note_on_c, 0, 50, 0
1, 193140, Note_on_c, 0, 47, 0
1, 193200, Note_on_c, 0, 55, 0
1, 193200, Note_on_c, 0, 47, 26
1, 193200, Note_on_c, 0, 50, 31
1, 193320, Note_on_c, 0, 55, 25
1, 193380, Note_on_c, 0, 50, 0
1, 193380, Note_on_c, 0, 47, 0
1, 193440, Note_on_c, 0, 55, 0
1, 193440, Note_on_c, 0, 47, 26
1, 193440, Note_on_c, 0, 50, 31
1, 193560, Note_on_c, 0, 55, 25
1, 193620, Note_on_c, 0, 50, 0
1, 193620, Note_on_c, 0, 47, 0
1, 193680, Tempo, 388350
1, 193680, Note_on_c, 0, 55, 0
1, 193680, Note_on_c, 0, 47, 26
1, 193680, Note_on_c, 0, 50, 31
1, 193800, Note_on_c, 0, 55, 25
1, 193860, Note_on_c, 0, 50, 0
1, 193860, Note_on_c, 0, 47, 0
1, 193860, Note_on_c, 0, 85, 46
1, 193920, Tempo, 378549
1, 193920, Note_on_c, 0, 85, 0
1, 193920, Note_on_c, 0, 55, 0
1, 193920, Note_on_c, 0, 86, 57
1, 193920, Note_on_c, 0, 47, 26
1, 193920, Note_on_c, 0, 50, 31
1, 194040, Note_on_c, 0, 55, 25
1, 194100, Note_on_c, 0, 50, 0
1, 194100, Note_on_c, 0, 47, 0
1, 194160, Note_on_c, 0, 55, 0
1, 194160, Note_on_c, 0, 47, 26
1, 194160, Note_on_c, 0, 50, 31
1, 194280, Note_on_c, 0, 55, 25
1, 194340, Note_on_c, 0, 50, 0
1, 194340, Note_on_c, 0, 47, 0
1, 194400, Note_on_c, 0, 55, 0
1, 194400, Note_on_c, 0, 47, 26
1, 194400, Note_on_c, 0, 50, 31
1, 194520, Note_on_c, 0, 86, 0
1, 194520, Note_on_c, 0, 84, 48
1, 194520, Note_on_c, 0, 55, 25
1, 194580, Note_on_c, 0, 50, 0
1, 194580, Note_on_c, 0, 47, 0
1, 194640, Note_on_c, 0, 84, 0
1, 194640, Note_on_c, 0, 55, 0
1, 194640, Note_on_c, 0, 83, 47
1, 194640, Note_on_c, 0, 47, 26
1, 194640, Note_on_c, 0, 50, 31
1, 194760, Note_on_c, 0, 83, 0
1, 194760, Note_on_c, 0, 81, 45
1, 194760, Note_on_c, 0, 55, 25
1, 194820, Note_on_c, 0, 50, 0
1, 194820, Note_on_c, 0, 47, 0
1, 194880, Note_on_c, 0, 81, 0
1, 194880, Note_on_c, 0, 55, 0
1, 194880, Note_on_c, 0, 79, 44
1, 194880, Note_on_c, 0, 47, 26
1, 194880, Note_on_c, 0, 50, 31
1, 195000, Note_on_c, 0, 55, 25
1, 195060, Note_on_c, 0, 50, 0
1, 195060, Note_on_c, 0, 47, 0
1, 195120, Note_on_c, 0, 79, 0
1, 195120, Note_on_c, 0, 55, 0
1, 195120, Note_on_c, 0, 47, 26
1, 195120, Note_on_c, 0, 50, 31
1, 195240, Note_on_c, 0, 55, 25
1, 195300, Note_on_c, 0, 50, 0
1, 195300, Note_on_c, 0, 47, 0
1, 195360, Note_on_c, 0, 55, 0
1, 195360, Note_on_c, 0, 47, 26
1, 195360, Note_on_c, 0, 50, 31
1, 195480, Note_on_c, 0, 55, 25
1, 195540, Note_on_c, 0, 50, 0
1, 195540, Note_on_c, 0, 47, 0
1, 195600, Tempo, 385084
1, 195600, Note_on_c, 0, 55, 0
1, 195600, Note_on_c, 0, 47, 26
1, 195600, Note_on_c, 0, 50, 31
1, 195720, Note_on_c, 0, 55, 25
1, 195780, Note_on_c, 0, 50, 0
1, 195780, Note_on_c, 0, 47, 0
1, 195840, Tempo, 373902
1, 195840, Note_on_c, 0, 55, 0
1, 195840, Note_on_c, 0, 65, 40
1, 195840, Note_on_c, 0, 38, 33
1, 195840, Note_on_c, 0, 50, 33
1, 195897, Control_c, 0, 64, 127
1, 195959, Note_on_c, 0, 65, 0
1, 195960, Note_on_c, 0, 62, 36
1, 196080, Note_on_c, 0, 62, 0
1, 196080, Note_on_c, 0, 50, 0
1, 196080, Note_on_c, 0, 65, 40
1, 196080, Note_on_c, 0, 50, 34
1, 196199, Note_on_c, 0, 50, 0
1, 196199, Note_on_c, 0, 65, 0
1, 196200, Note_on_c, 0, 62, 36
1, 196200, Note_on_c, 0, 57, 28
1, 196320, Tempo, 370325
1, 196320, Note_on_c, 0, 57, 0
1, 196320, Note_on_c, 0, 62, 0
1, 196320, Note_on_c, 0, 65, 40
1, 196320, Note_on_c, 0, 50, 34
1, 196439, Note_on_c, 0, 50, 0
1, 196439, Note_on_c, 0, 65, 0
1, 196440, Note_on_c, 0, 62, 36
1, 196440, Note_on_c, 0, 57, 29
1, 196560, Note_on_c, 0, 57, 0
1, 196560, Note_on_c, 0, 62, 0
1, 196560, Note_on_c, 0, 65, 39
1, 196560, Note_on_c, 0, 50, 34
1, 196679, Note_on_c, 0, 50, 0
1, 196679, Note_on_c, 0, 65, 0
1, 196680, Note_on_c, 0, 62, 36
1, 196680, Note_on_c, 0, 57, 29
1, 196800, Note_on_c, 0, 57, 0
1, 196800, Note_on_c, 0, 62, 0
1, 196800, Note_on_c, 0, 65, 39
1, 196800, Note_on_c, 0, 50, 34
1, 196919, Note_on_c, 0, 50, 0
1, 196919, Note_on_c, 0, 65, 0
1, 196920, Note_on_c, 0, 62, 36
1, 196920, Note_on_c, 0, 57, 28
1, 197040, Note_on_c, 0, 57, 0
1, 197040, Note_on_c, 0, 62, 0
1, 197040, Note_on_c, 0, 65, 41
1, 197040, Note_on_c, 0, 50, 34
1, 197159, Note_on_c, 0, 50, 0
1, 197159, Note_on_c, 0, 65, 0
1, 197160, Note_on_c, 0, 62, 36
1, 197160, Note_on_c, 0, 57, 29
1, 197280, Tempo, 376341
1, 197280, Note_on_c, 0, 57, 0
1, 197280, Note_on_c, 0, 62, 0
1, 197280, Note_on_c, 0, 65, 40
1, 197280, Note_on_c, 0, 50, 34
1, 197399, Note_on_c, 0, 50, 0
1, 197399, Note_on_c, 0, 65, 0
1, 197400, Note_on_c, 0, 62, 37
1, 197400, Note_on_c, 0, 57, 30
1, 197520, Note_on_c, 0, 57, 0
1, 197520, Note_on_c, 0, 62, 0
1, 197520, Note_on_c, 0, 65, 40
1, 197520, Note_on_c, 0, 50, 35
1, 197639, Note_on_c, 0, 50, 0
1, 197639, Note_on_c, 0, 65, 0
1, 197640, Note_on_c, 0, 62, 37
1, 197640, Note_on_c, 0, 57, 28
1, 197760, Tempo, 373902
1, 197760, Note_on_c, 0, 57, 0
1, 197760, Note_on_c, 0, 62, 0
1, 197760, Note_on_c, 0, 38, 0
1, 197760, Note_on_c, 0, 65, 41
1, 197760, Note_on_c, 0, 50, 35
1, 197879, Note_on_c, 0, 50, 0
1, 197879, Note_on_c, 0, 65, 0
1, 197880, Note_on_c, 0, 62, 37
1, 197880, Note_on_c, 0, 57, 29
1, 198000, Note_on_c, 0, 57, 0
1, 198000, Note_on_c, 0, 62, 0
1, 198000, Note_on_c, 0, 65, 41
1, 198000, Note_on_c, 0, 50, 35
1, 198119, Note_on_c, 0, 50, 0
1, 198119, Note_on_c, 0, 65, 0
1, 198120, Note_on_c, 0, 62, 37
1, 198120, Note_on_c, 0, 57, 29
1, 198240, Tempo, 371517
1, 198240, Note_on_c, 0, 57, 0
1, 198240, Note_on_c, 0, 62, 0
1, 198240, Note_on_c, 0, 65, 42
1, 198240, Note_on_c, 0, 50, 35
1, 198359, Note_on_c, 0, 50, 0
1, 198359, Note_on_c, 0, 65, 0
1, 198360, Note_on_c, 0, 62, 37
1, 198360, Note_on_c, 0, 57, 30
1, 198480, Note_on_c, 0, 57, 0
1, 198480, Note_on_c, 0, 62, 0
1, 198480, Note_on_c, 0, 65, 41
1, 198480, Note_on_c, 0, 50, 35
1, 198599, Note_on_c, 0, 50, 0
1, 198599, Note_on_c, 0, 65, 0
1, 198600, Note_on_c, 0, 62, 38
1, 198600, Note_on_c, 0, 57, 30
1, 198720, Note_on_c, 0, 57, 0
1, 198720, Note_on_c, 0, 62, 0
1, 198720, Note_on_c, 0, 65, 41
1, 198720, Note_on_c, 0, 50, 36
1, 198740, Tempo, 376341
1, 198839, Note_on_c, 0, 50, 0
1, 198839, Note_on_c, 0, 65, 0
1, 198840, Note_on_c, 0, 62, 38
1, 198840, Note_on_c, 0, 57, 29
1, 198960, Note_on_c, 0, 57, 0
1, 198960, Note_on_c, 0, 62, 0
1, 198960, Note_on_c, 0, 65, 42
1, 198960, Note_on_c, 0, 50, 36
1, 199079, Note_on_c, 0, 50, 0
1, 199079, Note_on_c, 0, 65, 0
1, 199080, Note_on_c, 0, 62, 38
1, 199080, Note_on_c, 0, 57, 31
1, 199200, Note_on_c, 0, 57, 0
1, 199200, Note_on_c, 0, 62, 0
1, 199200, Note_on_c, 0, 68, 41
1, 199200, Note_on_c, 0, 50, 36
1, 199215, Control_c, 0, 64, 0
1, 199275, Control_c, 0, 64, 127
1, 199319, Note_on_c, 0, 50, 0
1, 199319, Note_on_c, 0, 68, 0
1, 199320, Note_on_c, 0, 64, 38
1, 199320, Note_on_c, 0, 59, 31
1, 199440, Note_on_c, 0, 59, 0
1, 199440, Note_on_c, 0, 64, 0
1, 199440, Note_on_c, 0, 68, 42
1, 199440, Note_on_c, 0, 50, 36
1, 199559, Note_on_c, 0, 50, 0
1, 199559, Note_on_c, 0, 68, 0
1, 199560, Note_on_c, 0, 64, 38
1, 199560, Note_on_c, 0, 59, 29
1, 199680, Tempo, 373902
1, 199680, Note_on_c, 0, 59, 0
1, 199680, Note_on_c, 0, 64, 0
1, 199680, Note_on_c, 0, 69, 55
1, 199680, Note_on_c, 0, 48, 30
1, 199680, Note_on_c, 0, 52, 37
1, 199698, Control_c, 0, 64, 0
1, 199800, Note_on_c, 0, 57, 29
1, 199860, Note_on_c, 0, 52, 0
1, 199860, Note_on_c, 0, 48, 0
1, 199920, Note_on_c, 0, 57, 0
1, 199920, Note_on_c, 0, 48, 30
1, 199920, Note_on_c, 0, 52, 37
1, 200040, Note_on_c, 0, 57, 29
1, 200100, Note_on_c, 0, 52, 0
1, 200100, Note_on_c, 0, 48, 0
1, 200160, Note_on_c, 0, 57, 0
1, 200160, Note_on_c, 0, 48, 30
1, 200160, Note_on_c, 0, 52, 37
1, 200280, Note_on_c, 0, 57, 29
1, 200340, Note_on_c, 0, 52, 0
1, 200340, Note_on_c, 0, 48, 0
1, 200400, Note_on_c, 0, 69, 0
1, 200400, Note_on_c, 0, 57, 0
1, 200400, Note_on_c, 0, 72, 48
1, 200400, Note_on_c, 0, 48, 30
1, 200400, Note_on_c, 0, 52, 37
1, 200520, Note_on_c, 0, 72, 0
1, 200520, Note_on_c, 0, 71, 48
1, 200520, Note_on_c, 0, 57, 29
1, 200580, Note_on_c, 0, 52, 0
1, 200580, Note_on_c, 0, 48, 0
1, 200640, Note_on_c, 0, 71, 0
1, 200640, Note_on_c, 0, 57, 0
1, 200640, Note_on_c, 0, 69, 53
1, 200640, Note_on_c, 0, 48, 30
1, 200640, Note_on_c, 0, 52, 37
1, 200760, Note_on_c, 0, 69, 0
1, 200760, Note_on_c, 0, 57, 29
1, 200820, Note_on_c, 0, 52, 0
1, 200820, Note_on_c, 0, 48, 0
1, 200880, Note_on_c, 0, 57, 0
1, 200880, Note_on_c, 0, 48, 30
1, 200880, Note_on_c, 0, 52, 37
1, 201000, Note_on_c, 0, 57, 29
1, 201060, Note_on_c, 0, 52, 0
1, 201060, Note_on_c, 0, 48, 0
1, 201120, Note_on_c, 0, 57, 0
1, 201120, Note_on_c, 0, 48, 30
1, 201120, Note_on_c, 0, 52, 37
1, 201240, Note_on_c, 0, 57, 29
1, 201300, Note_on_c, 0, 52, 0
1, 201300, Note_on_c, 0, 48, 0
1, 201360, Tempo, 390879
1, 201360, Note_on_c, 0, 57, 0
1, 201360, Note_on_c, 0, 48, 30
1, 201360, Note_on_c, 0, 52, 37
1, 201480, Note_on_c, 0, 57, 29
1, 201540, Note_on_c, 0, 52, 0
1, 201540, Note_on_c, 0, 48, 0
1, 201540, Note_on_c, 0, 87, 55
1, 201600, Tempo, 379747
1, 201600, Note_on_c, 0, 87, 0
1, 201600, Note_on_c, 0, 57, 0
1, 201600, Note_on_c, 0, 88, 68
1, 201600, Note_on_c, 0, 48, 30
1, 201600, Note_on_c, 0, 52, 37
1, 201720, Note_on_c, 0, 57, 29
1, 201780, Note_on_c, 0, 52, 0
1, 201780, Note_on_c, 0, 48, 0
1, 201840, Note_on_c, 0, 57, 0
1, 201840, Note_on_c, 0, 48, 30
1, 201840, Note_on_c, 0, 52, 37
1, 201960, Note_on_c, 0, 57, 29
1, 202020, Note_on_c, 0, 52, 0
1, 202020, Note_on_c, 0, 48, 0
1, 202080, Note_on_c, 0, 57, 0
1, 202080, Note_on_c, 0, 48, 30
1, 202080, Note_on_c, 0, 52, 37
1, 202200, Note_on_c, 0, 88, 0
1, 202200, Note_on_c, 0, 86, 59
1, 202200, Note_on_c, 0, 57, 29
1, 202260, Note_on_c, 0, 52, 0
1, 202260, Note_on_c, 0, 48, 0
1, 202320, Note_on_c, 0, 86, 0
1, 202320, Note_on_c, 0, 57, 0
1, 202320, Note_on_c, 0, 84, 58
1, 202320, Note_on_c, 0, 48, 30
1, 202320, Note_on_c, 0, 52, 39
1, 202440, Note_on_c, 0, 84, 0
1, 202440, Note_on_c, 0, 83, 57
1, 202440, Note_on_c, 0, 57, 31
1, 202500, Note_on_c, 0, 52, 0
1, 202500, Note_on_c, 0, 48, 0
1, 202560, Note_on_c, 0, 83, 0
1, 202560, Note_on_c, 0, 57, 0
1, 202560, Note_on_c, 0, 81, 57
1, 202560, Note_on_c, 0, 48, 32
1, 202560, Note_on_c, 0, 52, 39
1, 202680, Note_on_c, 0, 57, 31
1, 202740, Note_on_c, 0, 52, 0
1, 202740, Note_on_c, 0, 48, 0
1, 202800, Note_on_c, 0, 81, 0
1, 202800, Note_on_c, 0, 57, 0
1, 202800, Note_on_c, 0, 48, 32
1, 202800, Note_on_c, 0, 52, 41
1, 202920, Note_on_c, 0, 57, 31
1, 202980, Note_on_c, 0, 52, 0
1, 202980, Note_on_c, 0, 48, 0
1, 203040, Note_on_c, 0, 57, 0
1, 203040, Note_on_c, 0, 48, 33
1, 203040, Note_on_c, 0, 52, 41
1, 203160, Note_on_c, 0, 57, 33
1, 203220, Note_on_c, 0, 52, 0
1, 203220, Note_on_c, 0, 48, 0
1, 203280, Tempo, 392157
1, 203280, Note_on_c, 0, 57, 0
1, 203280, Note_on_c, 0, 48, 35
1, 203280, Note_on_c, 0, 52, 42
1, 203400, Note_on_c, 0, 57, 33
1, 203460, Note_on_c, 0, 52, 0
1, 203460, Note_on_c, 0, 48, 0
1, 203460, Note_on_c, 0, 87, 66
1, 203520, Tempo, 384615
1, 203520, Note_on_c, 0, 87, 0
1, 203520, Note_on_c, 0, 57, 0
1, 203520, Note_on_c, 0, 88, 85
1, 203520, Note_on_c, 0, 48, 37
1, 203520, Note_on_c, 0, 52, 45
1, 203640, Note_on_c, 0, 58, 36
1, 203700, Note_on_c, 0, 52, 0
1, 203700, Note_on_c, 0, 48, 0
1, 203760, Note_on_c, 0, 58, 0
1, 203760, Note_on_c, 0, 48, 38
1, 203760, Note_on_c, 0, 52, 45
1, 203880, Note_on_c, 0, 58, 37
1, 203940, Note_on_c, 0, 52, 0
1, 203940, Note_on_c, 0, 48, 0
1, 204000, Note_on_c, 0, 58, 0
1, 204000, Note_on_c, 0, 48, 39
1, 204000, Note_on_c, 0, 52, 47
1, 204120, Note_on_c, 0, 88, 0
1, 204120, Note_on_c, 0, 86, 76
1, 204120, Note_on_c, 0, 58, 38
1, 204180, Note_on_c, 0, 52, 0
1, 204180, Note_on_c, 0, 48, 0
1, 204240, Note_on_c, 0, 86, 0
1, 204240, Note_on_c, 0, 58, 0
1, 204240, Note_on_c, 0, 84, 75
1, 204240, Note_on_c, 0, 48, 39
1, 204240, Note_on_c, 0, 52, 47
1, 204360, Note_on_c, 0, 84, 0
1, 204360, Note_on_c, 0, 83, 71
1, 204360, Note_on_c, 0, 58, 38
1, 204420, Note_on_c, 0, 52, 0
1, 204420, Note_on_c, 0, 48, 0
1, 204480, Note_on_c, 0, 83, 0
1, 204480, Note_on_c, 0, 58, 0
1, 204480, Note_on_c, 0, 82, 71
1, 204480, Note_on_c, 0, 48, 41
1, 204480, Note_on_c, 0, 52, 50
1, 204600, Note_on_c, 0, 58, 40
1, 204660, Note_on_c, 0, 52, 0
1, 204660, Note_on_c, 0, 48, 0
1, 204720, Note_on_c, 0, 82, 0
1, 204720, Note_on_c, 0, 58, 0
1, 204720, Note_on_c, 0, 48, 41
1, 204720, Note_on_c, 0, 52, 51
1, 204840, Note_on_c, 0, 58, 40
1, 204900, Note_on_c, 0, 52, 0
1, 204900, Note_on_c, 0, 48, 0
1, 204960, Note_on_c, 0, 58, 0
1, 204960, Note_on_c, 0, 48, 42
1, 204960, Note_on_c, 0, 52, 51
1, 205080, Note_on_c, 0, 58, 42
1, 205140, Note_on_c, 0, 52, 0
1, 205140, Note_on_c, 0, 48, 0
1, 205200, Tempo, 406780
1, 205200, Note_on_c, 0, 58, 0
1, 205200, Note_on_c, 0, 48, 43
1, 205200, Note_on_c, 0, 52, 53
1, 205320, Note_on_c, 0, 58, 42
1, 205380, Note_on_c, 0, 52, 0
1, 205380, Note_on_c, 0, 48, 0
1, 205440, Tempo, 383387
1, 205440, Note_on_c, 0, 58, 0
1, 205440, Note_on_c, 0, 83, 56
1, 205440, Note_on_c, 0, 47, 40
1, 205560, Note_on_c, 0, 51, 35
1, 205580, Note_on_c, 0, 47, 0
1, 205600, Tempo, 382166
1, 205680, Note_on_c, 0, 54, 35
1, 205700, Note_on_c, 0, 51, 0
1, 205720, Tempo, 380952
1, 205800, Note_on_c, 0, 59, 35
1, 205820, Note_on_c, 0, 54, 0
1, 205880, Tempo, 379747
1, 205920, Note_on_c, 0, 59, 0
1, 205920, Note_on_c, 0, 47, 41
1, 206000, Tempo, 378549
1, 206040, Note_on_c, 0, 81, 54
1, 206040, Note_on_c, 0, 51, 35
1, 206060, Note_on_c, 0, 47, 0
1, 206060, Note_on_c, 0, 83, 0
1, 206160, Tempo, 377358
1, 206160, Note_on_c, 0, 79, 53
1, 206160, Note_on_c, 0, 54, 35
1, 206180, Note_on_c, 0, 81, 0
1, 206180, Note_on_c, 0, 51, 0
1, 206280, Tempo, 376176
1, 206280, Note_on_c, 0, 78, 51
1, 206280, Note_on_c, 0, 59, 35
1, 206300, Note_on_c, 0, 79, 0
1, 206300, Note_on_c, 0, 54, 0
1, 206400, Tempo, 375000
1, 206400, Note_on_c, 0, 59, 0
1, 206400, Note_on_c, 0, 79, 53
1, 206400, Note_on_c, 0, 47, 39
1, 206420, Note_on_c, 0, 78, 0
1, 206520, Note_on_c, 0, 78, 52
1, 206520, Note_on_c, 0, 52, 35
1, 206540, Note_on_c, 0, 47, 0
1, 206540, Note_on_c, 0, 79, 0
1, 206640, Note_on_c, 0, 76, 51
1, 206640, Note_on_c, 0, 55, 35
1, 206660, Note_on_c, 0, 78, 0
1, 206660, Note_on_c, 0, 52, 0
1, 206760, Note_on_c, 0, 75, 50
1, 206760, Note_on_c, 0, 59, 35
1, 206780, Note_on_c, 0, 76, 0
1, 206780, Note_on_c, 0, 55, 0
1, 206880, Note_on_c, 0, 59, 0
1, 206880, Note_on_c, 0, 76, 50
1, 206880, Note_on_c, 0, 47, 40
1, 206900, Note_on_c, 0, 75, 0
1, 207000, Note_on_c, 0, 79, 52
1, 207000, Note_on_c, 0, 52, 35
1, 207020, Note_on_c, 0, 47, 0
1, 207020, Note_on_c, 0, 76, 0
1, 207120, Note_on_c, 0, 78, 50
1, 207120, Note_on_c, 0, 55, 35
1, 207140, Note_on_c, 0, 79, 0
1, 207140, Note_on_c, 0, 52, 0
1, 207240, Note_on_c, 0, 76, 50
1, 207240, Note_on_c, 0, 59, 35
1, 207260, Note_on_c, 0, 78, 0
1, 207260, Note_on_c, 0, 55, 0
1, 207320, Tempo, 373902
1, 207360, Note_on_c, 0, 59, 0
1, 207360, Note_on_c, 0, 75, 50
1, 207360, Note_on_c, 0, 47, 40
1, 207380, Note_on_c, 0, 76, 0
1, 207480, Note_on_c, 0, 73, 49
1, 207480, Note_on_c, 0, 54, 35
1, 207500, Note_on_c, 0, 47, 0
1, 207500, Note_on_c, 0, 75, 0
1, 207600, Note_on_c, 0, 71, 48
1, 207600, Note_on_c, 0, 57, 35
1, 207620, Note_on_c, 0, 73, 0
1, 207620, Note_on_c, 0, 54, 0
1, 207640, Tempo, 375117
1, 207720, Note_on_c, 0, 70, 47
1, 207720, Note_on_c, 0, 59, 35
1, 207740, Note_on_c, 0, 71, 0
1, 207740, Note_on_c, 0, 57, 0
1, 207840, Note_on_c, 0, 59, 0
1, 207840, Note_on_c, 0, 71, 49
1, 207840, Note_on_c, 0, 47, 40
1, 207860, Note_on_c, 0, 70, 0
1, 207960, Tempo, 376341
1, 207960, Note_on_c, 0, 73, 49
1, 207960, Note_on_c, 0, 54, 35
1, 207980, Note_on_c, 0, 47, 0
1, 207980, Note_on_c, 0, 71, 0
1, 208080, Note_on_c, 0, 74, 49
1, 208080, Note_on_c, 0, 57, 35
1, 208100, Note_on_c, 0, 73, 0
1, 208100, Note_on_c, 0, 54, 0
1, 208200, Note_on_c, 0, 75, 50
1, 208200, Note_on_c, 0, 59, 35
1, 208220, Note_on_c, 0, 74, 0
1, 208220, Note_on_c, 0, 57, 0
1, 208280, Tempo, 378549
1, 208320, Note_on_c, 0, 59, 0
1, 208320, Note_on_c, 0, 76, 50
1, 208320, Note_on_c, 0, 47, 40
1, 208340, Note_on_c, 0, 75, 0
1, 208440, Note_on_c, 0, 75, 50
1, 208440, Note_on_c, 0, 52, 35
1, 208460, Note_on_c, 0, 47, 0
1, 208460, Note_on_c, 0, 76, 0
1, 208480, Tempo, 379747
1, 208560, Note_on_c, 0, 76, 51
1, 208560, Note_on_c, 0, 55, 35
1, 208580, Note_on_c, 0, 75, 0
1, 208580, Note_on_c, 0, 52, 0
1, 208680, Tempo, 380952
1, 208680, Note_on_c, 0, 78, 51
1, 208680, Note_on_c, 0, 59, 35
1, 208700, Note_on_c, 0, 76, 0
1, 208700, Note_on_c, 0, 55, 0
1, 208800, Note_on_c, 0, 59, 0
1, 208800, Note_on_c, 0, 79, 49
1, 208800, Note_on_c, 0, 47, 40
1, 208820, Note_on_c, 0, 78, 0
1, 208880, Tempo, 382166
1, 208920, Note_on_c, 0, 80, 50
1, 208920, Note_on_c, 0, 52, 35
1, 208940, Note_on_c, 0, 47, 0
1, 208940, Note_on_c, 0, 79, 0
1, 209040, Note_on_c, 0, 81, 52
1, 209040, Note_on_c, 0, 55, 35
1, 209060, Note_on_c, 0, 80, 0
1, 209060, Note_on_c, 0, 52, 0
1, 209080, Tempo, 383387
1, 209160, Note_on_c, 0, 82, 53
1, 209160, Note_on_c, 0, 59, 35
1, 209180, Note_on_c, 0, 81, 0
1, 209180, Note_on_c, 0, 55, 0
1, 209200, Tempo, 384615
1, 209280, Note_on_c, 0, 59, 0
1, 209280, Note_on_c, 0, 83, 55
1, 209280, Note_on_c, 0, 47, 40
1, 209300, Note_on_c, 0, 82, 0
1, 209320, Tempo, 383387
1, 209400, Tempo, 382166
1, 209400, Note_on_c, 0, 82, 53
1, 209400, Note_on_c, 0, 51, 35
1, 209420, Note_on_c, 0, 47, 0
1, 209420, Note_on_c, 0, 83, 0
1, 209520, Tempo, 380952
1, 209520, Note_on_c, 0, 83, 53
1, 209520, Note_on_c, 0, 54, 35
1, 209540, Note_on_c, 0, 82, 0
1, 209540, Note_on_c, 0, 51, 0
1, 209600, Tempo, 379747
1, 209640, Note_on_c, 0, 82, 50
1, 209640, Note_on_c, 0, 59, 35
1, 209660, Note_on_c, 0, 83, 0
1, 209660, Note_on_c, 0, 54, 0
1, 209680, Tempo, 378549
1, 209760, Note_on_c, 0, 59, 0
1, 209760, Note_on_c, 0, 83, 52
1, 209760, Note_on_c, 0, 47, 40
1, 209780, Note_on_c, 0, 82, 0
1, 209800, Tempo, 377358
1, 209880, Tempo, 376176
1, 209880, Note_on_c, 0, 81, 52
1, 209880, Note_on_c, 0, 51, 35
1, 209900, Note_on_c, 0, 47, 0
1, 209900, Note_on_c, 0, 83, 0
1, 210000, Tempo, 375000
1, 210000, Note_on_c, 0, 79, 51
1, 210000, Note_on_c, 0, 54, 35
1, 210020, Note_on_c, 0, 81, 0
1, 210020, Note_on_c, 0, 51, 0
1, 210080, Tempo, 373832
1, 210120, Note_on_c, 0, 78, 50
1, 210120, Note_on_c, 0, 59, 35
1, 210140, Note_on_c, 0, 79, 0
1, 210140, Note_on_c, 0, 54, 0
1, 210160, Tempo, 372671
1, 210240, Tempo, 373902
1, 210240, Note_on_c, 0, 59, 0
1, 210240, Note_on_c, 0, 79, 52
1, 210240, Note_on_c, 0, 47, 40
1, 210260, Note_on_c, 0, 78, 0
1, 210360, Note_on_c, 0, 78, 51
1, 210360, Note_on_c, 0, 52, 35
1, 210380, Note_on_c, 0, 47, 0
1, 210380, Note_on_c, 0, 79, 0
1, 210480, Note_on_c, 0, 76, 49
1, 210480, Note_on_c, 0, 55, 35
1, 210500, Note_on_c, 0, 78, 0
1, 210500, Note_on_c, 0, 52, 0
1, 210600, Note_on_c, 0, 75, 50
1, 210600, Note_on_c, 0, 59, 35
1, 210620, Note_on_c, 0, 76, 0
1, 210620, Note_on_c, 0, 55, 0
1, 210720, Note_on_c, 0, 59, 0
1, 210720, Note_on_c, 0, 76, 50
1, 210720, Note_on_c, 0, 47, 41
1, 210740, Note_on_c, 0, 75, 0
1, 210840, Note_on_c, 0, 79, 53
1, 210840, Note_on_c, 0, 52, 35
1, 210860, Note_on_c, 0, 47, 0
1, 210860, Note_on_c, 0, 76, 0
1, 210960, Note_on_c, 0, 78, 50
1, 210960, Note_on_c, 0, 55, 35
1, 210980, Note_on_c, 0, 79, 0
1, 210980, Note_on_c, 0, 52, 0
1, 211080, Note_on_c, 0, 76, 50
1, 211080, Note_on_c, 0, 59, 35
1, 211100, Note_on_c, 0, 78, 0
1, 211100, Note_on_c, 0, 55, 0
1, 211200, Note_on_c, 0, 59, 0
1, 211200, Note_on_c, 0, 75, 50
1, 211200, Note_on_c, 0, 47, 40
1, 211220, Note_on_c, 0, 76, 0
1, 211320, Note_on_c, 0, 73, 49
1, 211320, Note_on_c, 0, 54, 35
1, 211340, Note_on_c, 0, 47, 0
1, 211340, Note_on_c, 0, 75, 0
1, 211440, Note_on_c, 0, 71, 48
1, 211440, Note_on_c, 0, 57, 35
1, 211460, Note_on_c, 0, 73, 0
1, 211460, Note_on_c, 0, 54, 0
1, 211560, Note_on_c, 0, 70, 47
1, 211560, Note_on_c, 0, 59, 35
1, 211580, Note_on_c, 0, 71, 0
1, 211580, Note_on_c, 0, 57, 0
1, 211680, Note_on_c, 0, 59, 0
1, 211680, Note_on_c, 0, 71, 49
1, 211680, Note_on_c, 0, 47, 40
1, 211700, Note_on_c, 0, 70, 0
1, 211800, Note_on_c, 0, 73, 50
1, 211800, Note_on_c, 0, 54, 36
1, 211820, Note_on_c, 0, 47, 0
1, 211820, Note_on_c, 0, 71, 0
1, 211920, Note_on_c, 0, 74, 50
1, 211920, Note_on_c, 0, 57, 36
1, 211940, Note_on_c, 0, 73, 0
1, 211940, Note_on_c, 0, 54, 0
1, 212040, Note_on_c, 0, 75, 52
1, 212040, Note_on_c, 0, 59, 36
1, 212060, Note_on_c, 0, 74, 0
1, 212060, Note_on_c, 0, 57, 0
1, 212160, Note_on_c, 0, 59, 0
1, 212160, Note_on_c, 0, 76, 52
1, 212160, Note_on_c, 0, 47, 42
1, 212180, Note_on_c, 0, 75, 0
1, 212280, Note_on_c, 0, 75, 52
1, 212280, Note_on_c, 0, 52, 36
1, 212300, Note_on_c, 0, 47, 0
1, 212300, Note_on_c, 0, 76, 0
1, 212400, Note_on_c, 0, 76, 54
1, 212400, Note_on_c, 0, 55, 37
1, 212420, Note_on_c, 0, 75, 0
1, 212420, Note_on_c, 0, 52, 0
1, 212520, Note_on_c, 0, 78, 54
1, 212520, Note_on_c, 0, 59, 37
1, 212540, Note_on_c, 0, 76, 0
1, 212540, Note_on_c, 0, 55, 0
1, 212640, Note_on_c, 0, 59, 0
1, 212640, Note_on_c, 0, 79, 56
1, 212640, Note_on_c, 0, 47, 42
1, 212660, Note_on_c, 0, 78, 0
1, 212760, Note_on_c, 0, 80, 58
1, 212760, Note_on_c, 0, 52, 37
1, 212780, Note_on_c, 0, 47, 0
1, 212780, Note_on_c, 0, 79, 0
1, 212880, Tempo, 392927
1, 212880, Note_on_c, 0, 81, 60
1, 212880, Note_on_c, 0, 55, 37
1, 212900, Note_on_c, 0, 80, 0
1, 212900, Note_on_c, 0, 52, 0
1, 213000, Note_on_c, 0, 82, 62
1, 213000, Note_on_c, 0, 59, 38
1, 213020, Note_on_c, 0, 81, 0
1, 213020, Note_on_c, 0, 55, 0
1, 213120, Tempo, 373902
1, 213120, Note_on_c, 0, 59, 0
1, 213120, Note_on_c, 0, 83, 68
1, 213120, Note_on_c, 0, 47, 44
1, 213140, Note_on_c, 0, 82, 0
1, 213183, Control_c, 0, 64, 127
1, 213240, Note_on_c, 0, 47, 0
1, 213240, Note_on_c, 0, 83, 0
1, 213240, Note_on_c, 0, 78, 60
1, 213240, Note_on_c, 0, 51, 38
1, 213360, Note_on_c, 0, 51, 0
1, 213360, Note_on_c, 0, 78, 0
1, 213360, Note_on_c, 0, 75, 61
1, 213360, Note_on_c, 0, 53, 38
1, 213480, Note_on_c, 0, 53, 0
1, 213480, Note_on_c, 0, 75, 0
1, 213480, Note_on_c, 0, 71, 61
1, 213480, Note_on_c, 0, 59, 38
1, 213600, Note_on_c, 0, 59, 0
1, 213600, Note_on_c, 0, 71, 0
1, 213600, Note_on_c, 0, 70, 75
1, 213600, Note_on_c, 0, 58, 50
1, 213612, Control_c, 0, 64, 0
1, 213675, Control_c, 0, 64, 127
1, 213720, Note_on_c, 0, 58, 0
1, 213720, Note_on_c, 0, 70, 0
1, 213720, Note_on_c, 0, 71, 63
1, 213720, Note_on_c, 0, 59, 41
1, 213840, Note_on_c, 0, 59, 0
1, 213840, Note_on_c, 0, 71, 0
1, 213840, Note_on_c, 0, 76, 63
1, 213840, Note_on_c, 0, 55, 40
1, 213960, Note_on_c, 0, 55, 0
1, 213960, Note_on_c, 0, 76, 0
1, 213960, Note_on_c, 0, 79, 63
1, 213960, Note_on_c, 0, 52, 41
1, 214080, Note_on_c, 0, 52, 0
1, 214080, Note_on_c, 0, 79, 0
1, 214080, Note_on_c, 0, 83, 74
1, 214080, Note_on_c, 0, 47, 52
1, 214097, Control_c, 0, 64, 0
1, 214160, Control_c, 0, 64, 127
1, 214200, Note_on_c, 0, 47, 0
1, 214200, Note_on_c, 0, 83, 0
1, 214200, Note_on_c, 0, 78, 65
1, 214200, Note_on_c, 0, 51, 44
1, 214320, Note_on_c, 0, 51, 0
1, 214320, Note_on_c, 0, 78, 0
1, 214320, Note_on_c, 0, 75, 68
1, 214320, Note_on_c, 0, 54, 45
1, 214440, Note_on_c, 0, 54, 0
1, 214440, Note_on_c, 0, 75, 0
1, 214440, Note_on_c, 0, 71, 68
1, 214440, Note_on_c, 0, 59, 45
1, 214560, Note_on_c, 0, 59, 0
1, 214560, Note_on_c, 0, 71, 0
1, 214560, Note_on_c, 0, 70, 80
1, 214560, Note_on_c, 0, 58, 60
1, 214577, Control_c, 0, 64, 0
1, 214663, Control_c, 0, 64, 127
1, 214680, Note_on_c, 0, 58, 0
1, 214680, Note_on_c, 0, 70, 0
1, 214680, Note_on_c, 0, 71, 71
1, 214680, Note_on_c, 0, 59, 51
1, 214800, Note_on_c, 0, 59, 0
1, 214800, Note_on_c, 0, 71, 0
1, 214800, Note_on_c, 0, 76, 71
1, 214800, Note_on_c, 0, 55, 51
1, 214920, Note_on_c, 0, 55, 0
1, 214920, Note_on_c, 0, 76, 0
1, 214920, Note_on_c, 0, 79, 72
1, 214920, Note_on_c, 0, 52, 52
1, 215040, Note_on_c, 0, 52, 0
1, 215040, Note_on_c, 0, 79, 0
1, 215040, Note_on_c, 0, 83, 91
1, 215040, Note_on_c, 0, 47, 63
1, 215053, Control_c, 0, 64, 0
1, 215103, Control_c, 0, 64, 127
1, 215160, Note_on_c, 0, 47, 0
1, 215160, Note_on_c, 0, 83, 0
1, 215160, Note_on_c, 0, 78, 82
1, 215160, Note_on_c, 0, 51, 52
1, 215280, Note_on_c, 0, 51, 0
1, 215280, Note_on_c, 0, 78, 0
1, 215280, Note_on_c, 0, 75, 82
1, 215280, Note_on_c, 0, 54, 52
1, 215400, Note_on_c, 0, 54, 0
1, 215400, Note_on_c, 0, 75, 0
1, 215400, Note_on_c, 0, 71, 82
1, 215400, Note_on_c, 0, 59, 52
1, 215520, Note_on_c, 0, 59, 0
1, 215520, Note_on_c, 0, 71, 0
1, 215520, Note_on_c, 0, 83, 91
1, 215520, Note_on_c, 0, 47, 63
1, 215535, Control_c, 0, 64, 0
1, 215606, Control_c, 0, 64, 127
1, 215640, Note_on_c, 0, 47, 0
1, 215640, Note_on_c, 0, 83, 0
1, 215640, Note_on_c, 0, 79, 82
1, 215640, Note_on_c, 0, 52, 52
1, 215760, Note_on_c, 0, 52, 0
1, 215760, Note_on_c, 0, 79, 0
1, 215760, Note_on_c, 0, 76, 82
1, 215760, Note_on_c, 0, 55, 52
1, 215880, Note_on_c, 0, 55, 0
1, 215880, Note_on_c, 0, 76, 0
1, 215880, Note_on_c, 0, 71, 82
1, 215880, Note_on_c, 0, 59, 52
1, 216000, Tempo, 373902
1, 216000, Note_on_c, 0, 59, 0
1, 216000, Note_on_c, 0, 71, 0
1, 216000, Note_on_c, 0, 83, 91
1, 216000, Note_on_c, 0, 47, 63
1, 216014, Control_c, 0, 64, 0
1, 216075, Control_c, 0, 64, 127
1, 216120, Note_on_c, 0, 47, 0
1, 216120, Note_on_c, 0, 83, 0
1, 216120, Note_on_c, 0, 78, 82
1, 216120, Note_on_c, 0, 51, 52
1, 216240, Note_on_c, 0, 51, 0
1, 216240, Note_on_c, 0, 78, 0
1, 216240, Note_on_c, 0, 75, 81
1, 216240, Note_on_c, 0, 54, 52
1, 216360, Note_on_c, 0, 54, 0
1, 216360, Note_on_c, 0, 75, 0
1, 216360, Note_on_c, 0, 71, 81
1, 216360, Note_on_c, 0, 59, 52
1, 216480, Note_on_c, 0, 59, 0
1, 216480, Note_on_c, 0, 71, 0
1, 216480, Note_on_c, 0, 83, 91
1, 216480, Note_on_c, 0, 47, 63
1, 216499, Control_c, 0, 64, 0
1, 216555, Control_c, 0, 64, 127
1, 216600, Note_on_c, 0, 47, 0
1, 216600, Note_on_c, 0, 83, 0
1, 216600, Note_on_c, 0, 79, 81
1, 216600, Note_on_c, 0, 52, 52
1, 216720, Note_on_c, 0, 52, 0
1, 216720, Note_on_c, 0, 79, 0
1, 216720, Note_on_c, 0, 76, 81
1, 216720, Note_on_c, 0, 55, 52
1, 216840, Note_on_c, 0, 55, 0
1, 216840, Note_on_c, 0, 76, 0
1, 216840, Note_on_c, 0, 71, 82
1, 216840, Note_on_c, 0, 59, 52
1, 216960, Tempo, 375117
1, 216960, Note_on_c, 0, 59, 0
1, 216960, Note_on_c, 0, 71, 0
1, 216960, Note_on_c, 0, 83, 91
1, 216960, Note_on_c, 0, 47, 54
1, 216960, Note_on_c, 0, 51, 54
1, 216960, Note_on_c, 0, 54, 54
1, 216960, Note_on_c, 0, 59, 63
1, 216969, Control_c, 0, 64, 0
1, 217029, Control_c, 0, 64, 127
1, 217080, Note_on_c, 0, 83, 0
1, 217080, Note_on_c, 0, 78, 82
1, 217200, Note_on_c, 0, 78, 0
1, 217200, Note_on_c, 0, 75, 82
1, 217320, Note_on_c, 0, 75, 0
1, 217320, Note_on_c, 0, 71, 82
1, 217440, Note_on_c, 0, 71, 0
1, 217440, Note_on_c, 0, 59, 0
1, 217440, Note_on_c, 0, 47, 0
1, 217440, Note_on_c, 0, 51, 0
1, 217440, Note_on_c, 0, 54, 0
1, 217440, Note_on_c, 0, 78, 91
1, 217560, Note_on_c, 0, 78, 0
1, 217560, Note_on_c, 0, 75, 82
1, 217600, Tempo, 376341
1, 217680, Note_on_c, 0, 75, 0
1, 217680, Note_on_c, 0, 71, 82
1, 217800, Note_on_c, 0, 71, 0
1, 217800, Note_on_c, 0, 66, 82
1, 217920, Note_on_c, 0, 66, 0
1, 217920, Note_on_c, 0, 75, 91
1, 218040, Note_on_c, 0, 75, 0
1, 218040, Note_on_c, 0, 71, 82
1, 218160, Note_on_c, 0, 71, 0
1, 218160, Note_on_c, 0, 66, 81
1, 218240, Tempo, 377572
1, 218280, Note_on_c, 0, 66, 0
1, 218280, Note_on_c, 0, 63, 81
1, 218400, Note_on_c, 0, 63, 0
1, 218400, Note_on_c, 0, 71, 91
1, 218520, Note_on_c, 0, 71, 0
1, 218520, Note_on_c, 0, 66, 81
1, 218640, Note_on_c, 0, 66, 0
1, 218640, Note_on_c, 0, 63, 81
1, 218760, Note_on_c, 0, 63, 0
1, 218760, Note_on_c, 0, 59, 82
1, 218840, Tempo, 378788
1, 218880, Tempo, 375117
1, 218880, Note_on_c, 0, 59, 0
1, 218880, Note_on_c, 0, 66, 91
1, 219000, Note_on_c, 0, 66, 0
1, 219000, Note_on_c, 0, 63, 81
1, 219120, Note_on_c, 0, 63, 0
1, 219120, Note_on_c, 0, 59, 80
1, 219160, Tempo, 376341
1, 219240, Note_on_c, 0, 59, 0
1, 219240, Note_on_c, 0, 54, 80
1, 219360, Note_on_c, 0, 54, 0
1, 219360, Note_on_c, 0, 63, 89
1, 219440, Tempo, 377572
1, 219480, Note_on_c, 0, 63, 0
1, 219480, Note_on_c, 0, 59, 79
1, 219600, Note_on_c, 0, 59, 0
1, 219600, Note_on_c, 0, 54, 79
1, 219720, Tempo, 378788
1, 219720, Note_on_c, 0, 54, 0
1, 219720, Note_on_c, 0, 51, 78
1, 219840, Note_on_c, 0, 51, 0
1, 219840, Note_on_c, 0, 59, 87
1, 219960, Note_on_c, 0, 59, 0
1, 219960, Note_on_c, 0, 54, 78
1, 220000, Tempo, 380035
1, 220080, Note_on_c, 0, 54, 0
1, 220080, Note_on_c, 0, 51, 77
1, 220200, Note_on_c, 0, 51, 0
1, 220200, Note_on_c, 0, 47, 77
1, 220280, Tempo, 381291
1, 220320, Note_on_c, 0, 47, 0
1, 220320, Note_on_c, 0, 35, 85
1, 220440, Note_on_c, 0, 35, 0
1, 220440, Note_on_c, 0, 39, 76
1, 220560, Tempo, 399707
1, 220560, Note_on_c, 0, 39, 0
1, 220560, Note_on_c, 0, 42, 76
1, 220680, Note_on_c, 0, 42, 0
1, 220680, Note_on_c, 0, 47, 75
1, 220800, Tempo, 371517
1, 220800, Note_on_c, 0, 47, 0
1, 220800, Note_on_c, 0, 35, 77
1, 220800, Control_c, 0, 64, 0
1, 220920, Note_on_c, 0, 35, 0
1, 221040, Tempo, 382166
1, 221040, Note_on_c, 0, 47, 68
1, 221160, Note_on_c, 0, 47, 0
1, 221280, Tempo, 375000
1, 221280, Note_on_c, 0, 37, 73
1, 221400, Note_on_c, 0, 37, 0
1, 221520, Tempo, 382166
1, 221520, Note_on_c, 0, 49, 66
1, 221640, Note_on_c, 0, 49, 0
1, 221760, Tempo, 371517
1, 221760, Note_on_c, 0, 71, 75
1, 221760, Note_on_c, 0, 39, 71
1, 221880, Note_on_c, 0, 39, 0
1, 221880, Note_on_c, 0, 71, 0
1, 222000, Tempo, 380952
1, 222000, Note_on_c, 0, 59, 69
1, 222000, Note_on_c, 0, 51, 65
1, 222120, Note_on_c, 0, 51, 0
1, 222120, Note_on_c, 0, 59, 0
1, 222240, Note_on_c, 0, 73, 74
1, 222360, Note_on_c, 0, 73, 0
1, 222480, Tempo, 401070
1, 222480, Note_on_c, 0, 61, 65
1, 222600, Note_on_c, 0, 61, 0
1, 222720, Tempo, 377358
1, 222720, Note_on_c, 0, 75, 71
1, 222720, Note_on_c, 0, 39, 69
1, 222840, Note_on_c, 0, 39, 0
1, 222840, Note_on_c, 0, 75, 0
1, 222920, Tempo, 383387
1, 222960, Note_on_c, 0, 63, 64
1, 222960, Note_on_c, 0, 51, 61
1, 223080, Tempo, 385084
1, 223080, Note_on_c, 0, 51, 0
1, 223080, Note_on_c, 0, 63, 0
1, 223200, Tempo, 377358
1, 223200, Note_on_c, 0, 40, 65
1, 223320, Note_on_c, 0, 40, 0
1, 223400, Tempo, 386374
1, 223440, Note_on_c, 0, 52, 59
1, 223560, Note_on_c, 0, 52, 0
1, 223680, Tempo, 379747
1, 223680, Note_on_c, 0, 75, 67
1, 223680, Note_on_c, 0, 42, 65
1, 223800, Note_on_c, 0, 42, 0
1, 223800, Note_on_c, 0, 75, 0
1, 223920, Tempo, 387097
1, 223920, Note_on_c, 0, 63, 53
1, 223920, Note_on_c, 0, 54, 54
1, 224040, Tempo, 388954
1, 224040, Note_on_c, 0, 54, 0
1, 224040, Note_on_c, 0, 63, 0
1, 224160, Note_on_c, 0, 76, 59
1, 224280, Note_on_c, 0, 76, 0
1, 224320, Tempo, 390269
1, 224400, Note_on_c, 0, 64, 50
1, 224520, Note_on_c, 0, 64, 0
1, 224640, Tempo, 387672
1, 224640, Note_on_c, 0, 78, 52
1, 224760, Note_on_c, 0, 78, 0
1, 224880, Note_on_c, 0, 66, 49
1, 224960, Tempo, 388954
1, 225000, Note_on_c, 0, 66, 0
1, 225120, Note_on_c, 0, 80, 52
1, 225240, Note_on_c, 0, 80, 0
1, 225280, Tempo, 390269
1, 225360, Note_on_c, 0, 68, 49
1, 225480, Note_on_c, 0, 68, 0
1, 225560, Tempo, 391594
1, 225600, Note_on_c, 0, 81, 52
1, 225600, Note_on_c, 0, 42, 41
1, 225720, Note_on_c, 0, 42, 0
1, 225720, Note_on_c, 0, 81, 0
1, 225840, Note_on_c, 0, 69, 48
1, 225840, Note_on_c, 0, 54, 36
1, 225960, Note_on_c, 0, 54, 0
1, 225960, Note_on_c, 0, 69, 0
1, 226080, Tempo, 390269
1, 226080, Note_on_c, 0, 81, 52
1, 226080, Note_on_c, 0, 44, 41
1, 226200, Note_on_c, 0, 44, 0
1, 226200, Note_on_c, 0, 81, 0
1, 226280, Tempo, 391594
1, 226320, Note_on_c, 0, 71, 46
1, 226320, Note_on_c, 0, 56, 36
1, 226440, Tempo, 392927
1, 226440, Note_on_c, 0, 56, 0
1, 226440, Note_on_c, 0, 71, 0
1, 226560, Note_on_c, 0, 81, 51
1, 226560, Note_on_c, 0, 45, 40
1, 226640, Tempo, 394244
1, 226680, Note_on_c, 0, 45, 0
1, 226680, Note_on_c, 0, 81, 0
1, 226800, Tempo, 395596
1, 226800, Note_on_c, 0, 73, 46
1, 226800, Note_on_c, 0, 57, 37
1, 226920, Note_on_c, 0, 57, 0
1, 226920, Note_on_c, 0, 73, 0
1, 227000, Tempo, 396957
1, 227040, Note_on_c, 0, 81, 51
1, 227040, Note_on_c, 0, 47, 39
1, 227160, Tempo, 398327
1, 227160, Note_on_c, 0, 47, 0
1, 227160, Note_on_c, 0, 81, 0
1, 227280, Note_on_c, 0, 75, 46
1, 227280, Note_on_c, 0, 59, 36
1, 227360, Tempo, 399707
1, 227400, Note_on_c, 0, 59, 0
1, 227400, Note_on_c, 0, 75, 0
1, 227520, Tempo, 401070
1, 227520, Note_on_c, 0, 81, 51
1, 227520, Note_on_c, 0, 49, 38
1, 227540, Tempo, 394244
1, 227580, Tempo, 395596
1, 227600, Tempo, 396957
1, 227620, Tempo, 398327
1, 227640, Note_on_c, 0, 49, 0
1, 227640, Note_on_c, 0, 81, 0
1, 227660, Tempo, 399707
1, 227680, Tempo, 401070
1, 227700, Tempo, 402468
1, 227740, Tempo, 403877
1, 227760, Tempo, 405296
1, 227760, Note_on_c, 0, 76, 47
1, 227760, Note_on_c, 0, 61, 37
1, 227780, Tempo, 406697
1, 227800, Tempo, 408136
1, 227840, Tempo, 409584
1, 227860, Tempo, 411043
1, 227880, Tempo, 412485
1, 227880, Note_on_c, 0, 61, 0
1, 227880, Note_on_c, 0, 76, 0
1, 227920, Tempo, 413964
1, 227940, Tempo, 415455
1, 227960, Tempo, 416956
1, 227980, Tempo, 418468
1, 228000, Tempo, 421496
1, 228000, Note_on_c, 0, 81, 50
1, 228000, Note_on_c, 0, 51, 40
1, 228020, Tempo, 426136
1, 228040, Tempo, 430911
1, 228060, Tempo, 434122
1, 228080, Tempo, 439046
1, 228100, Tempo, 444115
1, 228120, Tempo, 447527
1, 228120, Note_on_c, 0, 51, 0
1, 228120, Note_on_c, 0, 81, 0
1, 228140, Tempo, 452796
1, 228160, Tempo, 458155
1, 228180, Tempo, 461787
1, 228200, Tempo, 467399
1, 228220, Tempo, 473111
1, 228240, Tempo, 477023
1, 228240, Note_on_c, 0, 78, 46
1, 228240, Note_on_c, 0, 63, 37
1, 228260, Tempo, 482975
1, 228280, Tempo, 489077
1, 228300, Tempo, 493259
1, 228320, Tempo, 499625
1, 228340, Tempo, 506158
1, 228360, Tempo, 510638
1, 228360, Note_on_c, 0, 63, 0
1, 228360, Note_on_c, 0, 78, 0
1, 228380, Tempo, 517464
1, 228400, Tempo, 524476
1, 228420, Tempo, 531726
1, 228440, Tempo, 551978
1, 228460, Tempo, 582468
1, 228480, Tempo, 447761
1, 228480, Note_on_c, 0, 71, 42
1, 228480, Note_on_c, 0, 76, 42
1, 228480, Note_on_c, 0, 80, 55
1, 228480, Note_on_c, 0, 68, 39
1, 228480, Note_on_c, 0, 64, 33
1, 229440, Tempo, 437956
1, 229440, Note_on_c, 0, 64, 0
1, 229440, Note_on_c, 0, 80, 0
1, 229440, Note_on_c, 0, 71, 0
1, 229440, Note_on_c, 0, 76, 0
1, 229440, Note_on_c, 0, 68, 0
1, 229440, Note_on_c, 0, 69, 40
1, 229440, Note_on_c, 0, 75, 40
1, 229440, Note_on_c, 0, 78, 52
1, 229440, Note_on_c, 0, 66, 35
1, 229440, Note_on_c, 0, 63, 29
1, 229440, Note_on_c, 0, 59, 29
1, 229920, Tempo, 455339
1, 229920, Note_on_c, 0, 59, 0
1, 229920, Note_on_c, 0, 75, 0
1, 229920, Note_on_c, 0, 78, 0
1, 229920, Note_on_c, 0, 69, 0
1, 229920, Note_on_c, 0, 63, 0
1, 229920, Note_on_c, 0, 66, 0
1, 229920, Note_on_c, 0, 68, 40
1, 229920, Note_on_c, 0, 73, 40
1, 229920, Note_on_c, 0, 76, 52
1, 229920, Note_on_c, 0, 64, 35
1, 229920, Note_on_c, 0, 61, 29
1, 230400, Tempo, 441631
1, 230400, Note_on_c, 0, 61, 0
1, 230400, Note_on_c, 0, 76, 0
1, 230400, Note_on_c, 0, 68, 0
1, 230400, Note_on_c, 0, 73, 0
1, 230400, Note_on_c, 0, 64, 0
1, 230400, Note_on_c, 0, 66, 42
1, 230400, Note_on_c, 0, 72, 42
1, 230400, Note_on_c, 0, 75, 55
1, 230400, Note_on_c, 0, 63, 39
1, 230400, Note_on_c, 0, 60, 33
1, 230400, Note_on_c, 0, 56, 33
1, 231360, Note_on_c, 0, 56, 0
1, 231360, Note_on_c, 0, 72, 0
1, 231360, Note_on_c, 0, 75, 0
1, 231360, Note_on_c, 0, 66, 0
1, 231360, Note_on_c, 0, 60, 0
1, 231360, Note_on_c, 0, 63, 0
1, 231360, Note_on_c, 0, 64, 40
1, 231360, Note_on_c, 0, 73, 52
1, 231360, Note_on_c, 0, 61, 34
1, 231360, Note_on_c, 0, 57, 28
1, 231840, Tempo, 462499
1, 232320, Tempo, 449438
1, 232320, Note_on_c, 0, 57, 0
1, 232320, Note_on_c, 0, 64, 0
1, 232320, Note_on_c, 0, 73, 0
1, 232320, Note_on_c, 0, 61, 0
1, 232320, Note_on_c, 0, 69, 49
1, 232320, Note_on_c, 0, 71, 49
1, 232320, Note_on_c, 0, 75, 63
1, 232320, Note_on_c, 0, 54, 37
1, 232320, Note_on_c, 0, 57, 45
1, 232320, Note_on_c, 0, 59, 37
1, 232320, Note_on_c, 0, 63, 45
1, 233280, Tempo, 459770
1, 233280, Note_on_c, 0, 63, 0
1, 233280, Note_on_c, 0, 57, 0
1, 233280, Note_on_c, 0, 71, 0
1, 233280, Note_on_c, 0, 75, 0
1, 233280, Note_on_c, 0, 69, 0
1, 233280, Note_on_c, 0, 59, 0
1, 233280, Note_on_c, 0, 54, 0
1, 233280, Note_on_c, 0, 71, 50
1, 233280, Note_on_c, 0, 76, 66
1, 233280, Note_on_c, 0, 56, 40
1, 233280, Note_on_c, 0, 59, 40
1, 233280, Note_on_c, 0, 64, 49
1, 233760, Tempo, 515021
1, 233760, Note_on_c, 0, 64, 0
1, 233760, Note_on_c, 0, 56, 0
1, 233760, Note_on_c, 0, 71, 0
1, 233760, Note_on_c, 0, 76, 0
1, 233760, Note_on_c, 0, 59, 0
1, 233760, Note_on_c, 0, 73, 49
1, 233760, Note_on_c, 0, 76, 55
1, 233760, Note_on_c, 0, 78, 72
1, 233760, Note_on_c, 0, 66, 55
1, 233760, Note_on_c, 0, 57, 42
1, 233760, Note_on_c, 0, 61, 43
1, 234240, Tempo, 465116
1, 234240, Note_on_c, 0, 61, 0
1, 234240, Note_on_c, 0, 76, 0
1, 234240, Note_on_c, 0, 78, 0
1, 234240, Note_on_c, 0, 73, 0
1, 234240, Note_on_c, 0, 57, 0
1, 234240, Note_on_c, 0, 66, 0
1, 234240, Note_on_c, 0, 71, 59
1, 234240, Note_on_c, 0, 76, 59
1, 234240, Note_on_c, 0, 80, 77
1, 234240, Note_on_c, 0, 59, 49
1, 234240, Note_on_c, 0, 64, 49
1, 234240, Note_on_c, 0, 68, 59
1, 235200, Tempo, 485830
1, 235200, Note_on_c, 0, 68, 0
1, 235200, Note_on_c, 0, 76, 0
1, 235200, Note_on_c, 0, 80, 0
1, 235200, Note_on_c, 0, 64, 0
1, 235200, Note_on_c, 0, 75, 32
1, 235200, Note_on_c, 0, 78, 49
1, 235200, Note_on_c, 0, 63, 27
1, 235200, Note_on_c, 0, 66, 32
1, 235680, Tempo, 466200
1, 235680, Note_on_c, 0, 71, 0
1, 235680, Note_on_c, 0, 69, 48
1, 236158, Note_on_c, 0, 59, 0
1, 236160, Tempo, 439979
1, 236160, Note_on_c, 0, 66, 0
1, 236160, Note_on_c, 0, 63, 0
1, 236160, Note_on_c, 0, 78, 0
1, 236160, Note_on_c, 0, 69, 0
1, 236160, Note_on_c, 0, 75, 0
1, 236160, Note_on_c, 0, 59, 37
1, 236160, Note_on_c, 0, 64, 37
1, 236160, Note_on_c, 0, 68, 45
1, 236160, Note_on_c, 0, 56, 35
1, 236160, Note_on_c, 0, 52, 29
1, 237120, Tempo, 430323
1, 237120, Note_on_c, 0, 52, 0
1, 237120, Note_on_c, 0, 68, 0
1, 237120, Note_on_c, 0, 59, 0
1, 237120, Note_on_c, 0, 64, 0
1, 237120, Note_on_c, 0, 56, 0
1, 237120, Note_on_c, 0, 57, 36
1, 237120, Note_on_c, 0, 63, 36
1, 237120, Note_on_c, 0, 66, 43
1, 237120, Note_on_c, 0, 54, 31
1, 237120, Note_on_c, 0, 51, 26
1, 237120, Note_on_c, 0, 47, 26
1, 237600, Tempo, 455339
1, 237600, Note_on_c, 0, 47, 0
1, 237600, Note_on_c, 0, 63, 0
1, 237600, Note_on_c, 0, 66, 0
1, 237600, Note_on_c, 0, 57, 0
1, 237600, Note_on_c, 0, 51, 0
1, 237600, Note_on_c, 0, 54, 0
1, 237600, Note_on_c, 0, 56, 36
1, 237600, Note_on_c, 0, 61, 36
1, 237600, Note_on_c, 0, 64, 43
1, 237600, Note_on_c, 0, 52, 31
1, 237600, Note_on_c, 0, 49, 26
1, 238080, Tempo, 441631
1, 238080, Note_on_c, 0, 49, 0
1, 238080, Note_on_c, 0, 64, 0
1, 238080, Note_on_c, 0, 56, 0
1, 238080, Note_on_c, 0, 61, 0
1, 238080, Note_on_c, 0, 52, 0
1, 238080, Note_on_c, 0, 54, 37
1, 238080, Note_on_c, 0, 60, 37
1, 238080, Note_on_c, 0, 63, 45
1, 238080, Note_on_c, 0, 51, 35
1, 238080, Note_on_c, 0, 48, 29
1, 238080, Note_on_c, 0, 44, 29
1, 239040, Note_on_c, 0, 44, 0
1, 239040, Note_on_c, 0, 60, 0
1, 239040, Note_on_c, 0, 63, 0
1, 239040, Note_on_c, 0, 54, 0
1, 239040, Note_on_c, 0, 48, 0
1, 239040, Note_on_c, 0, 51, 0
1, 239040, Note_on_c, 0, 57, 36
1, 239040, Note_on_c, 0, 52, 36
1, 239040, Note_on_c, 0, 61, 43
1, 239040, Note_on_c, 0, 49, 30
1, 239040, Note_on_c, 0, 45, 25
1, 239520, Tempo, 462499
1, 240000, Tempo, 444972
1, 240000, Note_on_c, 0, 45, 0
1, 240000, Note_on_c, 0, 61, 0
1, 240000, Note_on_c, 0, 57, 0
1, 240000, Note_on_c, 0, 52, 0
1, 240000, Note_on_c, 0, 49, 0
1, 240000, Note_on_c, 0, 52, 44
1, 240000, Note_on_c, 0, 56, 44
1, 240000, Note_on_c, 0, 59, 52
1, 240000, Note_on_c, 0, 35, 33
1, 240000, Note_on_c, 0, 47, 40
1, 240480, Note_on_c, 0, 56, 0
1, 240480, Note_on_c, 0, 52, 0
1, 240480, Note_on_c, 0, 54, 49
1, 240480, Note_on_c, 0, 57, 49
1, 240960, Tempo, 435098
1, 240960, Note_on_c, 0, 59, 0
1, 240960, Note_on_c, 0, 61, 61
1, 241440, Tempo, 460688
1, 241440, Note_on_c, 0, 61, 0
1, 241440, Note_on_c, 0, 63, 68
1, 241880, Tempo, 457108
1, 241920, Tempo, 446097
1, 241920, Note_on_c, 0, 63, 0
1, 241920, Note_on_c, 0, 54, 0
1, 241920, Note_on_c, 0, 47, 0
1, 241920, Note_on_c, 0, 35, 0
1, 241920, Note_on_c, 0, 57, 0
1, 241920, Note_on_c, 0, 56, 42
1, 241920, Note_on_c, 0, 64, 49
1, 241920, Note_on_c, 0, 40, 42
1, 241920, Note_on_c, 0, 52, 45
1, 242040, Note_on_c, 0, 64, 0
1, 242080, Note_on_c, 0, 56, 0
1, 242080, Note_on_c, 0, 66, 48
1, 242200, Note_on_c, 0, 66, 0
1, 242240, Note_on_c, 0, 68, 49
1, 242360, Note_on_c, 0, 68, 0
1, 242400, Tempo, 444444
1, 242400, Note_on_c, 0, 40, 0
1, 242400, Note_on_c, 0, 52, 0
1, 242400, Note_on_c, 0, 69, 46
1, 242520, Note_on_c, 0, 69, 0
1, 242560, Note_on_c, 0, 71, 47
1, 242680, Note_on_c, 0, 71, 0
1, 242720, Note_on_c, 0, 73, 48
1, 242840, Note_on_c, 0, 73, 0
1, 242880, Tempo, 442804
1, 242880, Note_on_c, 0, 74, 50
1, 243000, Note_on_c, 0, 74, 0
1, 243040, Note_on_c, 0, 75, 51
1, 243160, Note_on_c, 0, 75, 0
1, 243200, Note_on_c, 0, 76, 52
1, 243320, Note_on_c, 0, 76, 0
1, 243360, Note_on_c, 0, 77, 53
1, 243480, Note_on_c, 0, 77, 0
1, 243520, Note_on_c, 0, 78, 51
1, 243640, Note_on_c, 0, 78, 0
1, 243680, Note_on_c, 0, 79, 52
1, 243800, Note_on_c, 0, 79, 0
1, 243840, Tempo, 434122
1, 243840, Note_on_c, 0, 71, 46
1, 243840, Note_on_c, 0, 80, 56
1, 243840, Note_on_c, 0, 68, 43
1, 243840, Note_on_c, 0, 64, 36
1, 244000, Note_on_c, 0, 80, 0
1, 244000, Note_on_c, 0, 79, 53
1, 244160, Note_on_c, 0, 79, 0
1, 244160, Note_on_c, 0, 80, 53
1, 244320, Note_on_c, 0, 80, 0
1, 244320, Note_on_c, 0, 81, 53
1, 244480, Note_on_c, 0, 81, 0
1, 244480, Note_on_c, 0, 79, 53
1, 244640, Note_on_c, 0, 79, 0
1, 244640, Note_on_c, 0, 80, 53
1, 244800, Tempo, 424598
1, 244800, Note_on_c, 0, 80, 0
1, 244800, Note_on_c, 0, 64, 0
1, 244800, Note_on_c, 0, 68, 0
1, 244800, Note_on_c, 0, 71, 0
1, 244800, Note_on_c, 0, 69, 60
1, 244800, Note_on_c, 0, 66, 39
1, 244800, Note_on_c, 0, 63, 32
1, 244800, Note_on_c, 0, 59, 32
1, 244960, Note_on_c, 0, 80, 54
1, 245120, Note_on_c, 0, 80, 0
1, 245120, Note_on_c, 0, 78, 54
1, 245280, Tempo, 449270
1, 245280, Note_on_c, 0, 78, 0
1, 245280, Note_on_c, 0, 59, 0
1, 245280, Note_on_c, 0, 69, 0
1, 245280, Note_on_c, 0, 66, 0
1, 245280, Note_on_c, 0, 63, 0
1, 245280, Note_on_c, 0, 68, 60
1, 245280, Note_on_c, 0, 64, 39
1, 245280, Note_on_c, 0, 61, 32
1, 245440, Note_on_c, 0, 78, 53
1, 245600, Note_on_c, 0, 78, 0
1, 245600, Note_on_c, 0, 76, 53
1, 245760, Tempo, 435761
1, 245760, Note_on_c, 0, 76, 0
1, 245760, Note_on_c, 0, 61, 0
1, 245760, Note_on_c, 0, 64, 0
1, 245760, Note_on_c, 0, 68, 0
1, 245760, Note_on_c, 0, 66, 60
1, 245760, Note_on_c, 0, 63, 43
1, 245760, Note_on_c, 0, 60, 36
1, 245760, Note_on_c, 0, 56, 36
1, 245920, Note_on_c, 0, 72, 54
1, 246080, Note_on_c, 0, 72, 0
1, 246080, Note_on_c, 0, 75, 54
1, 246240, Note_on_c, 0, 75, 0
1, 246240, Note_on_c, 0, 76, 54
1, 246400, Note_on_c, 0, 76, 0
1, 246400, Note_on_c, 0, 72, 54
1, 246560, Note_on_c, 0, 72, 0
1, 246560, Note_on_c, 0, 75, 54
1, 246720, Note_on_c, 0, 75, 0
1, 246720, Note_on_c, 0, 60, 0
1, 246720, Note_on_c, 0, 66, 0
1, 246720, Note_on_c, 0, 63, 0
1, 246720, Note_on_c, 0, 56, 0
1, 246720, Note_on_c, 0, 64, 60
1, 246720, Note_on_c, 0, 61, 38
1, 246720, Note_on_c, 0, 57, 31
1, 246880, Note_on_c, 0, 69, 54
1, 247040, Note_on_c, 0, 69, 0
1, 247040, Note_on_c, 0, 73, 54
1, 247200, Tempo, 456343
1, 247200, Note_on_c, 0, 73, 0
1, 247200, Note_on_c, 0, 75, 54
1, 247360, Note_on_c, 0, 75, 0
1, 247360, Note_on_c, 0, 69, 54
1, 247520, Note_on_c, 0, 69, 0
1, 247520, Note_on_c, 0, 73, 54
1, 247680, Tempo, 439046
1, 247680, Note_on_c, 0, 73, 0
1, 247680, Note_on_c, 0, 64, 0
1, 247680, Note_on_c, 0, 61, 0
1, 247680, Note_on_c, 0, 57, 0
1, 247680, Note_on_c, 0, 69, 62
1, 247680, Note_on_c, 0, 54, 39
1, 247680, Note_on_c, 0, 57, 47
1, 247680, Note_on_c, 0, 59, 39
1, 247680, Note_on_c, 0, 63, 47
1, 247840, Note_on_c, 0, 74, 62
1, 248000, Note_on_c, 0, 74, 0
1, 248000, Note_on_c, 0, 75, 57
1, 248160, Note_on_c, 0, 75, 0
1, 248160, Note_on_c, 0, 76, 57
1, 248320, Note_on_c, 0, 76, 0
1, 248320, Note_on_c, 0, 74, 59
1, 248480, Note_on_c, 0, 74, 0
1, 248480, Note_on_c, 0, 75, 59
1, 248640, Tempo, 429307
1, 248640, Note_on_c, 0, 75, 0
1, 248640, Note_on_c, 0, 54, 0
1, 248640, Note_on_c, 0, 57, 0
1, 248640, Note_on_c, 0, 69, 0
1, 248640, Note_on_c, 0, 63, 0
1, 248640, Note_on_c, 0, 59, 0
1, 248640, Note_on_c, 0, 71, 71
1, 248640, Note_on_c, 0, 56, 45
1, 248640, Note_on_c, 0, 59, 45
1, 248640, Note_on_c, 0, 64, 53
1, 248800, Note_on_c, 0, 78, 63
1, 248960, Note_on_c, 0, 78, 0
1, 248960, Note_on_c, 0, 76, 64
1, 249120, Tempo, 454545
1, 249120, Note_on_c, 0, 76, 0
1, 249120, Note_on_c, 0, 64, 0
1, 249120, Note_on_c, 0, 71, 0
1, 249120, Note_on_c, 0, 56, 0
1, 249120, Note_on_c, 0, 59, 0
1, 249120, Note_on_c, 0, 73, 74
1, 249120, Note_on_c, 0, 66, 59
1, 249120, Note_on_c, 0, 57, 49
1, 249120, Note_on_c, 0, 61, 49
1, 249280, Note_on_c, 0, 80, 65
1, 249440, Note_on_c, 0, 80, 0
1, 249440, Note_on_c, 0, 78, 65
1, 249600, Tempo, 435761
1, 249600, Note_on_c, 0, 78, 0
1, 249600, Note_on_c, 0, 61, 0
1, 249600, Note_on_c, 0, 73, 0
1, 249600, Note_on_c, 0, 66, 0
1, 249600, Note_on_c, 0, 57, 0
1, 249600, Note_on_c, 0, 80, 79
1, 249600, Note_on_c, 0, 76, 79
1, 249600, Note_on_c, 0, 59, 53
1, 249600, Note_on_c, 0, 64, 53
1, 249600, Note_on_c, 0, 68, 65
1, 249760, Note_on_c, 0, 80, 0
1, 249760, Note_on_c, 0, 79, 72
1, 249920, Note_on_c, 0, 79, 0
1, 249920, Note_on_c, 0, 80, 72
1, 250080, Note_on_c, 0, 80, 0
1, 250080, Note_on_c, 0, 83, 68
1, 250240, Note_on_c, 0, 83, 0
1, 250240, Note_on_c, 0, 81, 72
1, 250400, Note_on_c, 0, 81, 0
1, 250400, Note_on_c, 0, 80, 69
1, 250560, Tempo, 440723
1, 250560, Note_on_c, 0, 80, 0
1, 250560, Note_on_c, 0, 68, 0
1, 250560, Note_on_c, 0, 76, 0
1, 250560, Note_on_c, 0, 64, 0
1, 250560, Note_on_c, 0, 75, 67
1, 250560, Note_on_c, 0, 78, 67
1, 250560, Note_on_c, 0, 63, 45
1, 250560, Note_on_c, 0, 66, 53
1, 250720, Note_on_c, 0, 78, 0
1, 250720, Note_on_c, 0, 75, 0
1, 250720, Note_on_c, 0, 73, 64
1, 250720, Note_on_c, 0, 76, 64
1, 250880, Note_on_c, 0, 76, 0
1, 250880, Note_on_c, 0, 73, 0
1, 250880, Note_on_c, 0, 75, 60
1, 250880, Note_on_c, 0, 71, 60
1, 251040, Tempo, 459982
1, 251040, Note_on_c, 0, 71, 0
1, 251040, Note_on_c, 0, 66, 0
1, 251040, Note_on_c, 0, 75, 0
1, 251040, Note_on_c, 0, 63, 0
1, 251040, Note_on_c, 0, 69, 60
1, 251040, Note_on_c, 0, 73, 60
1, 251040, Note_on_c, 0, 47, 44
1, 251200, Note_on_c, 0, 47, 0
1, 251200, Note_on_c, 0, 73, 0
1, 251200, Note_on_c, 0, 69, 0
1, 251200, Note_on_c, 0, 68, 56
1, 251200, Note_on_c, 0, 71, 56
1, 251200, Note_on_c, 0, 49, 43
1, 251360, Note_on_c, 0, 49, 0
1, 251360, Note_on_c, 0, 71, 0
1, 251360, Note_on_c, 0, 68, 0
1, 251360, Note_on_c, 0, 66, 53
1, 251360, Note_on_c, 0, 69, 53
1, 251360, Note_on_c, 0, 51, 41
1, 251518, Note_on_c, 0, 59, 0
1, 251520, Tempo, 439560
1, 251520, Note_on_c, 0, 66, 0
1, 251520, Note_on_c, 0, 69, 0
1, 251520, Note_on_c, 0, 51, 0
1, 251520, Note_on_c, 0, 59, 57
1, 251520, Note_on_c, 0, 68, 57
1, 251520, Note_on_c, 0, 56, 45
1, 251520, Note_on_c, 0, 52, 37
1, 251680, Note_on_c, 0, 68, 0
1, 251680, Note_on_c, 0, 67, 49
1, 251840, Note_on_c, 0, 67, 0
1, 251840, Note_on_c, 0, 68, 49
1, 252000, Note_on_c, 0, 68, 0
1, 252000, Note_on_c, 0, 69, 49
1, 252160, Note_on_c, 0, 69, 0
1, 252160, Note_on_c, 0, 67, 49
1, 252320, Note_on_c, 0, 67, 0
1, 252320, Note_on_c, 0, 68, 49
1, 252480, Tempo, 428571
1, 252480, Note_on_c, 0, 68, 0
1, 252480, Note_on_c, 0, 52, 0
1, 252480, Note_on_c, 0, 56, 0
1, 252480, Note_on_c, 0, 59, 0
1, 252480, Note_on_c, 0, 57, 56
1, 252480, Note_on_c, 0, 54, 41
1, 252480, Note_on_c, 0, 51, 33
1, 252480, Note_on_c, 0, 47, 33
1, 252640, Note_on_c, 0, 68, 50
1, 252800, Note_on_c, 0, 68, 0
1, 252800, Note_on_c, 0, 66, 50
1, 252960, Tempo, 449270
1, 252960, Note_on_c, 0, 66, 0
1, 252960, Note_on_c, 0, 47, 0
1, 252960, Note_on_c, 0, 57, 0
1, 252960, Note_on_c, 0, 54, 0
1, 252960, Note_on_c, 0, 51, 0
1, 252960, Note_on_c, 0, 56, 56
1, 252960, Note_on_c, 0, 52, 41
1, 252960, Note_on_c, 0, 49, 33
1, 253120, Note_on_c, 0, 66, 49
1, 253280, Note_on_c, 0, 66, 0
1, 253280, Note_on_c, 0, 64, 49
1, 253440, Tempo, 435761
1, 253440, Note_on_c, 0, 64, 0
1, 253440, Note_on_c, 0, 49, 0
1, 253440, Note_on_c, 0, 52, 0
1, 253440, Note_on_c, 0, 56, 0
1, 253440, Note_on_c, 0, 51, 37
1, 253440, Note_on_c, 0, 54, 49
1, 253440, Note_on_c, 0, 48, 37
1, 253440, Note_on_c, 0, 44, 37
1, 253600, Note_on_c, 0, 60, 50
1, 253760, Note_on_c, 0, 60, 0
1, 253760, Note_on_c, 0, 63, 50
1, 253920, Note_on_c, 0, 63, 0
1, 253920, Note_on_c, 0, 64, 53
1, 254080, Note_on_c, 0, 64, 0
1, 254080, Note_on_c, 0, 60, 50
1, 254240, Note_on_c, 0, 60, 0
1, 254240, Note_on_c, 0, 63, 50
1, 254400, Note_on_c, 0, 63, 0
1, 254400, Note_on_c, 0, 48, 0
1, 254400, Note_on_c, 0, 51, 0
1, 254400, Note_on_c, 0, 54, 0
1, 254400, Note_on_c, 0, 44, 0
1, 254400, Note_on_c, 0, 45, 39
1, 254400, Note_on_c, 0, 49, 39
1, 254400, Note_on_c, 0, 52, 32
1, 254560, Note_on_c, 0, 57, 50
1, 254720, Note_on_c, 0, 57, 0
1, 254720, Note_on_c, 0, 61, 50
1, 254880, Tempo, 456343
1, 254880, Note_on_c, 0, 61, 0
1, 254880, Note_on_c, 0, 63, 53
1, 255040, Note_on_c, 0, 63, 0
1, 255040, Note_on_c, 0, 57, 50
1, 255200, Note_on_c, 0, 57, 0
1, 255200, Note_on_c, 0, 61, 50
1, 255360, Tempo, 439046
1, 255360, Note_on_c, 0, 61, 0
1, 255360, Note_on_c, 0, 45, 0
1, 255360, Note_on_c, 0, 49, 0
1, 255360, Note_on_c, 0, 52, 0
1, 255360, Note_on_c, 0, 52, 60
1, 255360, Note_on_c, 0, 35, 46
1, 255360, Note_on_c, 0, 47, 55
1, 255412, Control_c, 0, 64, 127
1, 255520, Note_on_c, 0, 56, 56
1, 255680, Tempo, 463643
1, 255680, Note_on_c, 0, 56, 0
1, 255680, Note_on_c, 0, 59, 57
1, 255840, Tempo, 444115
1, 255840, Note_on_c, 0, 59, 0
1, 255840, Note_on_c, 0, 52, 0
1, 255840, Note_on_c, 0, 54, 66
1, 255850, Control_c, 0, 64, 0
1, 255909, Control_c, 0, 64, 127
1, 256000, Note_on_c, 0, 57, 61
1, 256160, Tempo, 475059
1, 256160, Note_on_c, 0, 57, 0
1, 256160, Note_on_c, 0, 59, 61
1, 256320, Tempo, 459982
1, 256320, Note_on_c, 0, 59, 0
1, 256320, Note_on_c, 0, 54, 0
1, 256320, Note_on_c, 0, 54, 74
1, 256339, Control_c, 0, 64, 0
1, 256389, Control_c, 0, 64, 127
1, 256400, Tempo, 449270
1, 256480, Note_on_c, 0, 57, 67
1, 256640, Tempo, 463643
1, 256640, Note_on_c, 0, 57, 0
1, 256640, Note_on_c, 0, 61, 65
1, 256800, Tempo, 451026
1, 256800, Note_on_c, 0, 61, 0
1, 256800, Note_on_c, 0, 54, 0
1, 256800, Note_on_c, 0, 54, 80
1, 256819, Control_c, 0, 64, 0
1, 256880, Control_c, 0, 64, 127
1, 256960, Note_on_c, 0, 57, 71
1, 257120, Tempo, 465513
1, 257120, Note_on_c, 0, 57, 0
1, 257120, Note_on_c, 0, 63, 70
1, 257271, Tempo, 435761
1, 257280, Tempo, 433213
1, 257280, Note_on_c, 0, 63, 0
1, 257280, Note_on_c, 0, 54, 0
1, 257280, Note_on_c, 0, 47, 0
1, 257280, Note_on_c, 0, 35, 0
1, 257280, Note_on_c, 0, 56, 77
1, 257280, Note_on_c, 0, 64, 82
1, 257280, Note_on_c, 0, 40, 50
1, 257280, Note_on_c, 0, 52, 60
1, 257285, Control_c, 0, 64, 0
1, 257377, Control_c, 0, 64, 127
1, 257440, Note_on_c, 0, 64, 0
1, 257440, Note_on_c, 0, 56, 0
1, 257440, Note_on_c, 0, 59, 75
1, 257600, Note_on_c, 0, 59, 0
1, 257600, Note_on_c, 0, 56, 77
1, 257760, Note_on_c, 0, 56, 0
1, 257760, Note_on_c, 0, 40, 0
1, 257760, Note_on_c, 0, 52, 0
1, 257760, Note_on_c, 0, 59, 82
1, 257760, Note_on_c, 0, 47, 74
1, 257920, Note_on_c, 0, 59, 0
1, 257920, Note_on_c, 0, 64, 77
1, 258080, Tempo, 449270
1, 258080, Note_on_c, 0, 64, 0
1, 258080, Note_on_c, 0, 68, 77
1, 258240, Tempo, 430108
1, 258240, Note_on_c, 0, 68, 0
1, 258240, Note_on_c, 0, 66, 82
1, 258257, Control_c, 0, 64, 0
1, 258360, Control_c, 0, 64, 127
1, 258400, Note_on_c, 0, 66, 0
1, 258400, Note_on_c, 0, 63, 77
1, 258560, Note_on_c, 0, 63, 0
1, 258560, Note_on_c, 0, 59, 77
1, 258720, Note_on_c, 0, 59, 0
1, 258720, Note_on_c, 0, 47, 0
1, 258720, Note_on_c, 0, 63, 82
1, 258720, Note_on_c, 0, 47, 74
1, 258880, Note_on_c, 0, 63, 0
1, 258880, Note_on_c, 0, 66, 77
1, 259040, Tempo, 451026
1, 259040, Note_on_c, 0, 66, 0
1, 259040, Note_on_c, 0, 69, 77
1, 259200, Tempo, 427046
1, 259200, Note_on_c, 0, 69, 0
1, 259200, Note_on_c, 0, 68, 82
1, 259209, Control_c, 0, 64, 0
1, 259280, Control_c, 0, 64, 127
1, 259360, Note_on_c, 0, 68, 0
1, 259360, Note_on_c, 0, 64, 75
1, 259520, Note_on_c, 0, 64, 0
1, 259520, Note_on_c, 0, 59, 77
1, 259680, Note_on_c, 0, 59, 0
1, 259680, Note_on_c, 0, 47, 0
1, 259680, Note_on_c, 0, 64, 82
1, 259680, Note_on_c, 0, 47, 74
1, 259840, Note_on_c, 0, 64, 0
1, 259840, Note_on_c, 0, 68, 77
1, 260000, Tempo, 449270
1, 260000, Note_on_c, 0, 68, 0
1, 260000, Note_on_c, 0, 71, 77
1, 260160, Tempo, 424028
1, 260160, Note_on_c, 0, 71, 0
1, 260160, Note_on_c, 0, 69, 82
1, 260177, Control_c, 0, 64, 0
1, 260246, Control_c, 0, 64, 127
1, 260320, Note_on_c, 0, 69, 0
1, 260320, Note_on_c, 0, 66, 77
1, 260480, Tempo, 445831
1, 260480, Note_on_c, 0, 66, 0
1, 260480, Note_on_c, 0, 63, 77
1, 260640, Tempo, 427716
1, 260640, Note_on_c, 0, 63, 0
1, 260640, Note_on_c, 0, 47, 0
1, 260640, Note_on_c, 0, 75, 82
1, 260640, Note_on_c, 0, 47, 73
1, 260800, Note_on_c, 0, 75, 0
1, 260800, Note_on_c, 0, 69, 77
1, 260960, Note_on_c, 0, 69, 0
1, 260960, Note_on_c, 0, 66, 77
1, 261120, Tempo, 422535
1, 261120, Note_on_c, 0, 66, 0
1, 261120, Note_on_c, 0, 47, 0
1, 261120, Note_on_c, 0, 68, 63
1, 261120, Note_on_c, 0, 76, 75
1, 261120, Note_on_c, 0, 52, 73
1, 261123, Control_c, 0, 64, 0
1, 261183, Control_c, 0, 64, 127
1, 261280, Note_on_c, 0, 52, 0
1, 261280, Note_on_c, 0, 47, 67
1, 261440, Note_on_c, 0, 47, 0
1, 261440, Note_on_c, 0, 44, 69
1, 261600, Note_on_c, 0, 44, 0
1, 261600, Note_on_c, 0, 76, 0
1, 261600, Note_on_c, 0, 68, 0
1, 261600, Note_on_c, 0, 71, 80
1, 261600, Note_on_c, 0, 47, 73
1, 261760, Note_on_c, 0, 47, 0
1, 261760, Note_on_c, 0, 52, 69
1, 261920, Tempo, 440723
1, 261920, Note_on_c, 0, 52, 0
1, 261920, Note_on_c, 0, 56, 69
1, 262080, Tempo, 425532
1, 262080, Note_on_c, 0, 56, 0
1, 262080, Note_on_c, 0, 54, 73
1, 262094, Control_c, 0, 64, 0
1, 262177, Control_c, 0, 64, 127
1, 262240, Note_on_c, 0, 54, 0
1, 262240, Note_on_c, 0, 51, 69
1, 262400, Note_on_c, 0, 51, 0
1, 262400, Note_on_c, 0, 47, 69
1, 262560, Note_on_c, 0, 47, 0
1, 262560, Note_on_c, 0, 71, 0
1, 262560, Note_on_c, 0, 71, 80
1, 262560, Note_on_c, 0, 51, 73
1, 262720, Note_on_c, 0, 51, 0
1, 262720, Note_on_c, 0, 54, 69
1, 262880, Tempo, 442413
1, 262880, Note_on_c, 0, 54, 0
1, 262880, Note_on_c, 0, 57, 69
1, 263040, Tempo, 425532
1, 263040, Note_on_c, 0, 57, 0
1, 263040, Note_on_c, 0, 56, 73
1, 263057, Control_c, 0, 64, 0
1, 263115, Control_c, 0, 64, 127
1, 263200, Note_on_c, 0, 56, 0
1, 263200, Note_on_c, 0, 52, 67
1, 263360, Note_on_c, 0, 52, 0
1, 263360, Note_on_c, 0, 47, 69
1, 263520, Note_on_c, 0, 47, 0
1, 263520, Note_on_c, 0, 71, 0
1, 263520, Note_on_c, 0, 71, 80
1, 263520, Note_on_c, 0, 52, 73
1, 263680, Note_on_c, 0, 52, 0
1, 263680, Note_on_c, 0, 56, 69
1, 263840, Tempo, 442413
1, 263840, Note_on_c, 0, 56, 0
1, 263840, Note_on_c, 0, 59, 69
1, 264000, Tempo, 425532
1, 264000, Note_on_c, 0, 59, 0
1, 264000, Note_on_c, 0, 57, 73
1, 264016, Control_c, 0, 64, 0
1, 264097, Control_c, 0, 64, 127
1, 264160, Note_on_c, 0, 57, 0
1, 264160, Note_on_c, 0, 54, 69
1, 264320, Tempo, 444115
1, 264320, Note_on_c, 0, 54, 0
1, 264320, Note_on_c, 0, 51, 69
1, 264480, Tempo, 424028
1, 264480, Note_on_c, 0, 51, 0
1, 264480, Note_on_c, 0, 71, 0
1, 264480, Note_on_c, 0, 71, 80
1, 264480, Note_on_c, 0, 63, 73
1, 264640, Note_on_c, 0, 63, 0
1, 264640, Note_on_c, 0, 57, 69
1, 264800, Tempo, 444115
1, 264800, Note_on_c, 0, 57, 0
1, 264800, Note_on_c, 0, 54, 69
1, 264960, Tempo, 422535
1, 264960, Note_on_c, 0, 54, 0
1, 264960, Note_on_c, 0, 71, 0
1, 264960, Note_on_c, 0, 76, 82
1, 264960, Note_on_c, 0, 56, 64
1, 264975, Control_c, 0, 64, 0
1, 265029, Control_c, 0, 64, 127
1, 265120, Note_on_c, 0, 56, 0
1, 265120, Note_on_c, 0, 76, 0
1, 265120, Note_on_c, 0, 71, 75
1, 265120, Note_on_c, 0, 59, 56
1, 265280, Note_on_c, 0, 59, 0
1, 265280, Note_on_c, 0, 71, 0
1, 265280, Note_on_c, 0, 68, 77
1, 265280, Note_on_c, 0, 64, 56
1, 265440, Note_on_c, 0, 64, 0
1, 265440, Note_on_c, 0, 68, 0
1, 265440, Note_on_c, 0, 71, 82
1, 265440, Note_on_c, 0, 59, 64
1, 265600, Note_on_c, 0, 59, 0
1, 265600, Note_on_c, 0, 71, 0
1, 265600, Note_on_c, 0, 76, 77
1, 265600, Note_on_c, 0, 56, 57
1, 265760, Tempo, 440723
1, 265760, Note_on_c, 0, 56, 0
1, 265760, Note_on_c, 0, 76, 0
1, 265760, Note_on_c, 0, 80, 77
1, 265760, Note_on_c, 0, 52, 57
1, 265920, Tempo, 422535
1, 265920, Note_on_c, 0, 52, 0
1, 265920, Note_on_c, 0, 80, 0
1, 265920, Note_on_c, 0, 78, 82
1, 265920, Note_on_c, 0, 51, 64
1, 265933, Control_c, 0, 64, 0
1, 265995, Control_c, 0, 64, 127
1, 266080, Note_on_c, 0, 51, 0
1, 266080, Note_on_c, 0, 78, 0
1, 266080, Note_on_c, 0, 75, 77
1, 266080, Note_on_c, 0, 54, 56
1, 266240, Note_on_c, 0, 54, 0
1, 266240, Note_on_c, 0, 75, 0
1, 266240, Note_on_c, 0, 71, 77
1, 266240, Note_on_c, 0, 57, 56
1, 266400, Note_on_c, 0, 57, 0
1, 266400, Note_on_c, 0, 71, 0
1, 266400, Note_on_c, 0, 75, 82
1, 266400, Note_on_c, 0, 54, 64
1, 266560, Note_on_c, 0, 54, 0
1, 266560, Note_on_c, 0, 75, 0
1, 266560, Note_on_c, 0, 78, 77
1, 266560, Note_on_c, 0, 51, 57
1, 266720, Tempo, 439046
1, 266720, Note_on_c, 0, 51, 0
1, 266720, Note_on_c, 0, 78, 0
1, 266720, Note_on_c, 0, 81, 77
1, 266720, Note_on_c, 0, 47, 58
1, 266880, Tempo, 419580
1, 266880, Note_on_c, 0, 47, 0
1, 266880, Note_on_c, 0, 81, 0
1, 266880, Note_on_c, 0, 80, 82
1, 266886, Note_on_c, 0, 52, 64
1, 266892, Control_c, 0, 64, 0
1, 266955, Control_c, 0, 64, 127
1, 267040, Note_on_c, 0, 80, 0
1, 267040, Note_on_c, 0, 76, 75
1, 267040, Note_on_c, 0, 56, 56
1, 267046, Note_on_c, 0, 52, 0
1, 267200, Note_on_c, 0, 56, 0
1, 267200, Note_on_c, 0, 76, 0
1, 267200, Note_on_c, 0, 71, 77
1, 267200, Note_on_c, 0, 59, 56
1, 267360, Note_on_c, 0, 59, 0
1, 267360, Note_on_c, 0, 71, 0
1, 267360, Note_on_c, 0, 76, 82
1, 267360, Note_on_c, 0, 56, 64
1, 267520, Note_on_c, 0, 56, 0
1, 267520, Note_on_c, 0, 76, 0
1, 267520, Note_on_c, 0, 80, 77
1, 267520, Note_on_c, 0, 52, 57
1, 267680, Tempo, 465513
1, 267680, Note_on_c, 0, 52, 0
1, 267680, Note_on_c, 0, 80, 0
1, 267680, Note_on_c, 0, 83, 77
1, 267686, Note_on_c, 0, 47, 57
1, 267840, Tempo, 421053
1, 267840, Note_on_c, 0, 83, 0
1, 267840, Note_on_c, 0, 81, 82
1, 267840, Note_on_c, 0, 51, 64
1, 267846, Note_on_c, 0, 47, 0
1, 267860, Control_c, 0, 64, 0
1, 267943, Control_c, 0, 64, 127
1, 268000, Note_on_c, 0, 51, 0
1, 268000, Note_on_c, 0, 81, 0
1, 268000, Note_on_c, 0, 78, 77
1, 268000, Note_on_c, 0, 57, 56
1, 268160, Tempo, 459982
1, 268160, Note_on_c, 0, 57, 0
1, 268160, Note_on_c, 0, 78, 0
1, 268160, Note_on_c, 0, 75, 77
1, 268166, Note_on_c, 0, 59, 56
1, 268320, Tempo, 419580
1, 268320, Note_on_c, 0, 75, 0
1, 268320, Note_on_c, 0, 87, 82
1, 268320, Note_on_c, 0, 57, 64
1, 268326, Note_on_c, 0, 59, 0
1, 268480, Note_on_c, 0, 57, 0
1, 268480, Note_on_c, 0, 87, 0
1, 268480, Note_on_c, 0, 81, 77
1, 268480, Note_on_c, 0, 59, 57
1, 268640, Note_on_c, 0, 59, 0
1, 268640, Note_on_c, 0, 81, 0
1, 268640, Note_on_c, 0, 78, 77
1, 268640, Note_on_c, 0, 66, 58
1, 268800, Tempo, 418118
1, 268800, Note_on_c, 0, 66, 0
1, 268800, Note_on_c, 0, 78, 0
1, 268800, Note_on_c, 0, 88, 86
1, 268800, Note_on_c, 0, 56, 64
1, 268816, Control_c, 0, 64, 0
1, 268886, Control_c, 0, 64, 127
1, 268960, Note_on_c, 0, 56, 0
1, 268960, Note_on_c, 0, 83, 74
1, 268960, Note_on_c, 0, 59, 55
1, 269040, Note_on_c, 0, 88, 0
1, 269120, Note_on_c, 0, 59, 0
1, 269120, Note_on_c, 0, 83, 0
1, 269120, Note_on_c, 0, 80, 74
1, 269120, Note_on_c, 0, 64, 55
1, 269280, Note_on_c, 0, 64, 0
1, 269280, Note_on_c, 0, 80, 0
1, 269280, Note_on_c, 0, 83, 82
1, 269280, Note_on_c, 0, 52, 62
1, 269440, Note_on_c, 0, 52, 0
1, 269440, Note_on_c, 0, 80, 73
1, 269440, Note_on_c, 0, 56, 55
1, 269520, Note_on_c, 0, 83, 0
1, 269600, Tempo, 439046
1, 269600, Note_on_c, 0, 56, 0
1, 269600, Note_on_c, 0, 80, 0
1, 269600, Note_on_c, 0, 76, 72
1, 269600, Note_on_c, 0, 59, 54
1, 269760, Tempo, 416667
1, 269760, Note_on_c, 0, 59, 0
1, 269760, Note_on_c, 0, 76, 0
1, 269760, Note_on_c, 0, 81, 79
1, 269760, Note_on_c, 0, 54, 59
1, 269771, Control_c, 0, 64, 0
1, 269829, Control_c, 0, 64, 127
1, 269920, Note_on_c, 0, 54, 0
1, 269920, Note_on_c, 0, 78, 71
1, 269920, Note_on_c, 0, 57, 51
1, 270000, Note_on_c, 0, 81, 0
1, 270080, Note_on_c, 0, 57, 0
1, 270080, Note_on_c, 0, 78, 0
1, 270080, Note_on_c, 0, 75, 70
1, 270080, Note_on_c, 0, 59, 51
1, 270240, Note_on_c, 0, 59, 0
1, 270240, Note_on_c, 0, 75, 0
1, 270240, Note_on_c, 0, 87, 76
1, 270240, Note_on_c, 0, 57, 57
1, 270400, Note_on_c, 0, 57, 0
1, 270400, Note_on_c, 0, 83, 69
1, 270400, Note_on_c, 0, 59, 51
1, 270480, Note_on_c, 0, 87, 0
1, 270560, Tempo, 463643
1, 270560, Note_on_c, 0, 59, 0
1, 270560, Note_on_c, 0, 83, 0
1, 270560, Note_on_c, 0, 78, 67
1, 270560, Note_on_c, 0, 66, 51
1, 270720, Tempo, 416667
1, 270720, Note_on_c, 0, 66, 0
1, 270720, Note_on_c, 0, 78, 0
1, 270720, Note_on_c, 0, 88, 75
1, 270720, Note_on_c, 0, 56, 56
1, 270731, Control_c, 0, 64, 0
1, 270783, Control_c, 0, 64, 127
1, 270880, Note_on_c, 0, 56, 0
1, 270880, Note_on_c, 0, 83, 65
1, 270880, Note_on_c, 0, 59, 48
1, 270960, Note_on_c, 0, 88, 0
1, 271040, Note_on_c, 0, 59, 0
1, 271040, Note_on_c, 0, 83, 0
1, 271040, Note_on_c, 0, 80, 65
1, 271040, Note_on_c, 0, 64, 48
1, 271200, Note_on_c, 0, 64, 0
1, 271200, Note_on_c, 0, 80, 0
1, 271200, Note_on_c, 0, 83, 72
1, 271200, Note_on_c, 0, 52, 54
1, 271360, Note_on_c, 0, 52, 0
1, 271360, Note_on_c, 0, 80, 64
1, 271360, Note_on_c, 0, 56, 48
1, 271440, Note_on_c, 0, 83, 0
1, 271520, Tempo, 440723
1, 271520, Note_on_c, 0, 56, 0
1, 271520, Note_on_c, 0, 80, 0
1, 271520, Note_on_c, 0, 76, 63
1, 271520, Note_on_c, 0, 59, 47
1, 271680, Tempo, 413793
1, 271680, Note_on_c, 0, 59, 0
1, 271680, Note_on_c, 0, 76, 0
1, 271680, Note_on_c, 0, 81, 69
1, 271680, Note_on_c, 0, 54, 51
1, 271691, Control_c, 0, 64, 0
1, 271766, Control_c, 0, 64, 127
1, 271840, Note_on_c, 0, 54, 0
1, 271840, Note_on_c, 0, 78, 62
1, 271840, Note_on_c, 0, 57, 44
1, 271920, Note_on_c, 0, 81, 0
1, 272000, Note_on_c, 0, 57, 0
1, 272000, Note_on_c, 0, 78, 0
1, 272000, Note_on_c, 0, 75, 60
1, 272000, Note_on_c, 0, 59, 44
1, 272160, Note_on_c, 0, 59, 0
1, 272160, Note_on_c, 0, 75, 0
1, 272160, Note_on_c, 0, 87, 69
1, 272160, Note_on_c, 0, 57, 50
1, 272320, Note_on_c, 0, 57, 0
1, 272320, Note_on_c, 0, 83, 59
1, 272320, Note_on_c, 0, 59, 44
1, 272400, Note_on_c, 0, 87, 0
1, 272480, Tempo, 463643
1, 272480, Note_on_c, 0, 59, 0
1, 272480, Note_on_c, 0, 83, 0
1, 272480, Note_on_c, 0, 78, 58
1, 272480, Note_on_c, 0, 66, 44
1, 272640, Tempo, 413964
1, 272640, Note_on_c, 0, 66, 0
1, 272640, Note_on_c, 0, 78, 0
1, 272640, Note_on_c, 0, 88, 64
1, 272640, Note_on_c, 0, 56, 50
1, 272649, Control_c, 0, 64, 0
1, 272760, Note_on_c, 0, 56, 0
1, 272760, Note_on_c, 0, 88, 0
1, 272760, Note_on_c, 0, 83, 58
1, 272760, Note_on_c, 0, 59, 43
1, 272820, Tempo, 412485
1, 272880, Note_on_c, 0, 59, 0
1, 272880, Note_on_c, 0, 83, 0
1, 272880, Note_on_c, 0, 80, 58
1, 272880, Note_on_c, 0, 52, 43
1, 272980, Tempo, 411043
1, 273000, Note_on_c, 0, 52, 0
1, 273000, Note_on_c, 0, 80, 0
1, 273000, Note_on_c, 0, 76, 59
1, 273000, Note_on_c, 0, 59, 44
1, 273120, Note_on_c, 0, 59, 0
1, 273120, Note_on_c, 0, 76, 0
1, 273120, Note_on_c, 0, 81, 65
1, 273120, Note_on_c, 0, 54, 51
1, 273140, Tempo, 409584
1, 273240, Note_on_c, 0, 54, 0
1, 273240, Note_on_c, 0, 81, 0
1, 273240, Note_on_c, 0, 78, 59
1, 273240, Note_on_c, 0, 59, 44
1, 273300, Tempo, 408136
1, 273360, Note_on_c, 0, 59, 0
1, 273360, Note_on_c, 0, 78, 0
1, 273360, Note_on_c, 0, 87, 62
1, 273360, Note_on_c, 0, 57, 44
1, 273460, Tempo, 406697
1, 273480, Note_on_c, 0, 57, 0
1, 273480, Note_on_c, 0, 87, 0
1, 273480, Note_on_c, 0, 83, 63
1, 273480, Note_on_c, 0, 59, 44
1, 273600, Note_on_c, 0, 59, 0
1, 273600, Note_on_c, 0, 83, 0
1, 273600, Note_on_c, 0, 88, 69
1, 273600, Note_on_c, 0, 56, 52
1, 273620, Tempo, 405296
1, 273720, Note_on_c, 0, 56, 0
1, 273720, Note_on_c, 0, 88, 0
1, 273720, Note_on_c, 0, 83, 63
1, 273720, Note_on_c, 0, 59, 46
1, 273840, Note_on_c, 0, 59, 0
1, 273840, Note_on_c, 0, 83, 0
1, 273840, Note_on_c, 0, 80, 63
1, 273840, Note_on_c, 0, 52, 47
1, 273960, Note_on_c, 0, 52, 0
1, 273960, Note_on_c, 0, 80, 0
1, 273960, Note_on_c, 0, 76, 64
1, 273960, Note_on_c, 0, 59, 49
1, 274080, Note_on_c, 0, 59, 0
1, 274080, Note_on_c, 0, 76, 0
1, 274080, Note_on_c, 0, 81, 71
1, 274080, Note_on_c, 0, 54, 55
1, 274200, Note_on_c, 0, 54, 0
1, 274200, Note_on_c, 0, 81, 0
1, 274200, Note_on_c, 0, 78, 66
1, 274200, Note_on_c, 0, 59, 48
1, 274320, Note_on_c, 0, 59, 0
1, 274320, Note_on_c, 0, 78, 0
1, 274320, Note_on_c, 0, 87, 67
1, 274320, Note_on_c, 0, 57, 48
1, 274440, Tempo, 437413
1, 274440, Note_on_c, 0, 57, 0
1, 274440, Note_on_c, 0, 87, 0
1, 274440, Note_on_c, 0, 83, 67
1, 274440, Note_on_c, 0, 59, 49
1, 274540, Tempo, 402468
1, 274560, Note_on_c, 0, 59, 0
1, 274560, Note_on_c, 0, 83, 0
1, 274560, Note_on_c, 0, 88, 74
1, 274560, Note_on_c, 0, 56, 58
1, 274680, Note_on_c, 0, 56, 0
1, 274680, Note_on_c, 0, 88, 0
1, 274680, Note_on_c, 0, 83, 67
1, 274680, Note_on_c, 0, 59, 50
1, 274740, Tempo, 401070
1, 274800, Note_on_c, 0, 59, 0
1, 274800, Note_on_c, 0, 83, 0
1, 274800, Note_on_c, 0, 87, 69
1, 274800, Note_on_c, 0, 57, 51
1, 274920, Note_on_c, 0, 57, 0
1, 274920, Note_on_c, 0, 87, 0
1, 274920, Note_on_c, 0, 83, 69
1, 274920, Note_on_c, 0, 59, 52
1, 274940, Tempo, 399707
1, 275040, Note_on_c, 0, 59, 0
1, 275040, Note_on_c, 0, 83, 0
1, 275040, Note_on_c, 0, 88, 77
1, 275040, Note_on_c, 0, 56, 60
1, 275140, Tempo, 398327
1, 275160, Note_on_c, 0, 56, 0
1, 275160, Note_on_c, 0, 88, 0
1, 275160, Note_on_c, 0, 83, 77
1, 275160, Note_on_c, 0, 59, 52
1, 275280, Note_on_c, 0, 59, 0
1, 275280, Note_on_c, 0, 83, 0
1, 275280, Note_on_c, 0, 87, 72
1, 275280, Note_on_c, 0, 57, 52
1, 275340, Tempo, 396957
1, 275400, Note_on_c, 0, 57, 0
1, 275400, Note_on_c, 0, 87, 0
1, 275400, Note_on_c, 0, 83, 73
1, 275400, Note_on_c, 0, 59, 54
1, 275520, Tempo, 395596
1, 275520, Note_on_c, 0, 59, 0
1, 275520, Note_on_c, 0, 83, 0
1, 275520, Note_on_c, 0, 88, 80
1, 275520, Note_on_c, 0, 56, 62
1, 275640, Note_on_c, 0, 56, 0
1, 275640, Note_on_c, 0, 88, 0
1, 275640, Note_on_c, 0, 83, 73
1, 275640, Note_on_c, 0, 59, 55
1, 275760, Note_on_c, 0, 59, 0
1, 275760, Note_on_c, 0, 83, 0
1, 275760, Note_on_c, 0, 87, 74
1, 275760, Note_on_c, 0, 57, 55
1, 275880, Note_on_c, 0, 57, 0
1, 275880, Note_on_c, 0, 87, 0
1, 275880, Note_on_c, 0, 83, 74
1, 275880, Note_on_c, 0, 59, 57
1, 276000, Note_on_c, 0, 59, 0
1, 276000, Note_on_c, 0, 83, 0
1, 276000, Note_on_c, 0, 88, 82
1, 276000, Note_on_c, 0, 56, 65
1, 276120, Note_on_c, 0, 56, 0
1, 276120, Note_on_c, 0, 88, 0
1, 276120, Note_on_c, 0, 83, 85
1, 276120, Note_on_c, 0, 59, 57
1, 276240, Note_on_c, 0, 59, 0
1, 276240, Note_on_c, 0, 83, 0
1, 276240, Note_on_c, 0, 87, 78
1, 276240, Note_on_c, 0, 57, 57
1, 276360, Tempo, 434122
1, 276360, Note_on_c, 0, 57, 0
1, 276360, Note_on_c, 0, 87, 0
1, 276360, Note_on_c, 0, 83, 79
1, 276360, Note_on_c, 0, 59, 58
1, 276480, Tempo, 394244
1, 276480, Note_on_c, 0, 59, 0
1, 276480, Note_on_c, 0, 83, 0
1, 276480, Note_on_c, 0, 88, 89
1, 276480, Note_on_c, 0, 56, 70
1, 276600, Note_on_c, 0, 56, 0
1, 276600, Note_on_c, 0, 88, 0
1, 276600, Note_on_c, 0, 83, 81
1, 276600, Note_on_c, 0, 59, 60
1, 276720, Note_on_c, 0, 59, 0
1, 276720, Note_on_c, 0, 83, 0
1, 276720, Note_on_c, 0, 86, 81
1, 276720, Note_on_c, 0, 44, 60
1, 276800, Tempo, 392927
1, 276840, Note_on_c, 0, 44, 0
1, 276840, Note_on_c, 0, 86, 0
1, 276840, Note_on_c, 0, 83, 81
1, 276840, Note_on_c, 0, 52, 62
1, 276960, Note_on_c, 0, 52, 0
1, 276960, Note_on_c, 0, 83, 0
1, 276960, Note_on_c, 0, 86, 89
1, 276960, Note_on_c, 0, 44, 70
1, 277057, Control_c, 0, 64, 127
1, 277080, Note_on_c, 0, 44, 0
1, 277080, Note_on_c, 0, 86, 0
1, 277080, Note_on_c, 0, 83, 83
1, 277080, Note_on_c, 0, 52, 60
1, 277120, Tempo, 391594
1, 277200, Note_on_c, 0, 52, 0
1, 277200, Note_on_c, 0, 83, 0
1, 277200, Note_on_c, 0, 86, 82
1, 277200, Note_on_c, 0, 44, 60
1, 277320, Note_on_c, 0, 44, 0
1, 277320, Note_on_c, 0, 86, 0
1, 277320, Note_on_c, 0, 83, 82
1, 277320, Note_on_c, 0, 52, 60
1, 277420, Tempo, 390269
1, 277440, Note_on_c, 0, 52, 0
1, 277440, Note_on_c, 0, 83, 0
1, 277440, Note_on_c, 0, 86, 89
1, 277440, Note_on_c, 0, 44, 70
1, 277560, Note_on_c, 0, 44, 0
1, 277560, Note_on_c, 0, 86, 0
1, 277560, Note_on_c, 0, 83, 81
1, 277560, Note_on_c, 0, 52, 60
1, 277680, Note_on_c, 0, 52, 0
1, 277680, Note_on_c, 0, 83, 0
1, 277680, Note_on_c, 0, 86, 81
1, 277680, Note_on_c, 0, 44, 60
1, 277800, Note_on_c, 0, 44, 0
1, 277800, Note_on_c, 0, 86, 0
1, 277800, Note_on_c, 0, 83, 81
1, 277800, Note_on_c, 0, 52, 62
1, 277920, Note_on_c, 0, 52, 0
1, 277920, Note_on_c, 0, 83, 0
1, 277920, Note_on_c, 0, 86, 89
1, 277920, Note_on_c, 0, 44, 70
1, 278040, Note_on_c, 0, 44, 0
1, 278040, Note_on_c, 0, 86, 0
1, 278040, Note_on_c, 0, 83, 83
1, 278040, Note_on_c, 0, 52, 60
1, 278160, Note_on_c, 0, 52, 0
1, 278160, Note_on_c, 0, 83, 0
1, 278160, Note_on_c, 0, 86, 82
1, 278160, Note_on_c, 0, 44, 60
1, 278280, Tempo, 405296
1, 278280, Note_on_c, 0, 44, 0
1, 278280, Note_on_c, 0, 86, 0
1, 278280, Note_on_c, 0, 83, 82
1, 278280, Note_on_c, 0, 52, 60
1, 278400, Tempo, 380035
1, 278400, Note_on_c, 0, 52, 0
1, 278400, Note_on_c, 0, 83, 0
1, 278400, Note_on_c, 0, 86, 89
1, 278400, Note_on_c, 0, 44, 70
1, 278410, Control_c, 0, 64, 0
1, 278469, Control_c, 0, 64, 127
1, 278520, Note_on_c, 0, 44, 0
1, 278520, Note_on_c, 0, 52, 60
1, 278640, Note_on_c, 0, 52, 0
1, 278640, Note_on_c, 0, 86, 0
1, 278640, Note_on_c, 0, 85, 81
1, 278640, Note_on_c, 0, 44, 60
1, 278760, Note_on_c, 0, 44, 0
1, 278760, Note_on_c, 0, 85, 0
1, 278760, Note_on_c, 0, 83, 81
1, 278760, Note_on_c, 0, 52, 62
1, 278880, Note_on_c, 0, 52, 0
1, 278880, Note_on_c, 0, 83, 0
1, 278880, Note_on_c, 0, 81, 86
1, 278880, Note_on_c, 0, 44, 70
1, 279000, Note_on_c, 0, 44, 0
1, 279000, Note_on_c, 0, 81, 0
1, 279000, Note_on_c, 0, 80, 82
1, 279000, Note_on_c, 0, 52, 60
1, 279120, Note_on_c, 0, 52, 0
1, 279120, Note_on_c, 0, 80, 0
1, 279120, Note_on_c, 0, 78, 83
1, 279120, Note_on_c, 0, 44, 60
1, 279240, Note_on_c, 0, 44, 0
1, 279240, Note_on_c, 0, 78, 0
1, 279240, Note_on_c, 0, 76, 83
1, 279240, Note_on_c, 0, 52, 61
1, 279360, Note_on_c, 0, 52, 0
1, 279360, Note_on_c, 0, 76, 0
1, 279360, Note_on_c, 0, 74, 86
1, 279360, Note_on_c, 0, 44, 71
1, 279377, Control_c, 0, 64, 0
1, 279463, Control_c, 0, 64, 127
1, 279480, Note_on_c, 0, 44, 0
1, 279480, Note_on_c, 0, 74, 0
1, 279480, Note_on_c, 0, 73, 82
1, 279480, Note_on_c, 0, 52, 61
1, 279600, Note_on_c, 0, 52, 0
1, 279600, Note_on_c, 0, 73, 0
1, 279600, Note_on_c, 0, 71, 83
1, 279600, Note_on_c, 0, 44, 61
1, 279720, Note_on_c, 0, 44, 0
1, 279720, Note_on_c, 0, 71, 0
1, 279720, Note_on_c, 0, 69, 83
1, 279720, Note_on_c, 0, 52, 63
1, 279840, Note_on_c, 0, 52, 0
1, 279840, Note_on_c, 0, 69, 0
1, 279840, Note_on_c, 0, 68, 88
1, 279840, Note_on_c, 0, 44, 72
1, 279960, Note_on_c, 0, 44, 0
1, 279960, Note_on_c, 0, 68, 0
1, 279960, Note_on_c, 0, 66, 85
1, 279960, Note_on_c, 0, 52, 62
1, 280080, Note_on_c, 0, 52, 0
1, 280080, Note_on_c, 0, 66, 0
1, 280080, Note_on_c, 0, 64, 85
1, 280080, Note_on_c, 0, 44, 62
1, 280200, Note_on_c, 0, 44, 0
1, 280200, Note_on_c, 0, 64, 0
1, 280200, Note_on_c, 0, 62, 85
1, 280200, Note_on_c, 0, 52, 62
1, 280320, Tempo, 369231
1, 280320, Note_on_c, 0, 52, 0
1, 280320, Note_on_c, 0, 62, 0
1, 280320, Note_on_c, 0, 61, 93
1, 280320, Note_on_c, 0, 45, 67
1, 280320, Note_on_c, 0, 49, 67
1, 280320, Note_on_c, 0, 52, 80
1, 280340, Control_c, 0, 64, 0
1, 280384, Tempo, 370370
1, 280400, Tempo, 372671
1, 280412, Tempo, 373832
1, 280440, Note_on_c, 0, 61, 0
1, 280440, Note_on_c, 0, 63, 83
1, 280452, Tempo, 372671
1, 280464, Tempo, 370370
1, 280480, Tempo, 369231
1, 280492, Tempo, 368098
1, 280500, Note_on_c, 0, 45, 0
1, 280500, Note_on_c, 0, 52, 0
1, 280500, Note_on_c, 0, 49, 0
1, 280504, Tempo, 366972
1, 280532, Tempo, 370370
1, 280544, Tempo, 371517
1, 280560, Tempo, 372671
1, 280560, Note_on_c, 0, 63, 0
1, 280560, Note_on_c, 0, 64, 83
1, 280560, Note_on_c, 0, 45, 60
1, 280560, Note_on_c, 0, 49, 60
1, 280560, Note_on_c, 0, 52, 73
1, 280584, Tempo, 373832
1, 280600, Tempo, 375000
1, 280640, Tempo, 372671
1, 280652, Tempo, 370370
1, 280664, Tempo, 369231
1, 280680, Tempo, 368098
1, 280680, Note_on_c, 0, 64, 0
1, 280680, Note_on_c, 0, 63, 84
1, 280692, Tempo, 365854
1, 280720, Tempo, 368098
1, 280740, Note_on_c, 0, 45, 0
1, 280740, Note_on_c, 0, 52, 0
1, 280740, Note_on_c, 0, 49, 0
1, 280744, Tempo, 375000
1, 280772, Tempo, 377358
1, 280784, Tempo, 378549
1, 280800, Note_on_c, 0, 63, 0
1, 280800, Note_on_c, 0, 64, 92
1, 280840, Tempo, 377358
1, 280852, Tempo, 372671
1, 280864, Tempo, 371517
1, 280880, Tempo, 370370
1, 280904, Tempo, 371517
1, 280920, Note_on_c, 0, 64, 0
1, 280920, Note_on_c, 0, 68, 84
1, 280940, Tempo, 373832
1, 280960, Tempo, 372671
1, 281040, Tempo, 391594
1, 281040, Note_on_c, 0, 68, 0
1, 281040, Note_on_c, 0, 69, 84
1, 281040, Note_on_c, 0, 45, 60
1, 281040, Note_on_c, 0, 49, 60
1, 281040, Note_on_c, 0, 52, 73
1, 281160, Note_on_c, 0, 69, 0
1, 281160, Note_on_c, 0, 68, 84
1, 281220, Note_on_c, 0, 45, 0
1, 281220, Note_on_c, 0, 52, 0
1, 281220, Note_on_c, 0, 49, 0
1, 281280, Tempo, 373832
1, 281280, Note_on_c, 0, 68, 0
1, 281280, Note_on_c, 0, 69, 93
1, 281280, Note_on_c, 0, 45, 67
1, 281280, Note_on_c, 0, 49, 67
1, 281280, Note_on_c, 0, 52, 80
1, 281304, Tempo, 372671
1, 281320, Tempo, 371517
1, 281332, Tempo, 370370
1, 281384, Tempo, 373832
1, 281400, Tempo, 375000
1, 281400, Note_on_c, 0, 69, 0
1, 281400, Note_on_c, 0, 72, 84
1, 281412, Tempo, 376176
1, 281424, Tempo, 377358
1, 281440, Tempo, 378549
1, 281460, Note_on_c, 0, 45, 0
1, 281460, Note_on_c, 0, 52, 0
1, 281460, Note_on_c, 0, 49, 0
1, 281480, Tempo, 377358
1, 281504, Tempo, 375000
1, 281520, Tempo, 373832
1, 281520, Note_on_c, 0, 72, 0
1, 281520, Note_on_c, 0, 73, 84
1, 281520, Note_on_c, 0, 45, 60
1, 281520, Note_on_c, 0, 49, 60
1, 281520, Note_on_c, 0, 52, 73
1, 281532, Tempo, 372671
1, 281560, Tempo, 373832
1, 281572, Tempo, 377358
1, 281640, Note_on_c, 0, 73, 0
1, 281640, Note_on_c, 0, 72, 84
1, 281652, Tempo, 375000
1, 281664, Tempo, 372671
1, 281680, Tempo, 371517
1, 281700, Note_on_c, 0, 45, 0
1, 281700, Note_on_c, 0, 52, 0
1, 281700, Note_on_c, 0, 49, 0
1, 281720, Tempo, 373832
1, 281732, Tempo, 375000
1, 281744, Tempo, 376176
1, 281760, Tempo, 377358
1, 281760, Note_on_c, 0, 72, 0
1, 281760, Note_on_c, 0, 73, 93
1, 281772, Tempo, 378549
1, 281784, Tempo, 379747
1, 281824, Tempo, 377358
1, 281840, Tempo, 376176
1, 281852, Tempo, 373832
1, 281864, Tempo, 371517
1, 281880, Tempo, 370370
1, 281880, Note_on_c, 0, 73, 0
1, 281880, Note_on_c, 0, 75, 84
1, 281920, Tempo, 373832
1, 282000, Tempo, 390269
1, 282000, Note_on_c, 0, 75, 0
1, 282000, Note_on_c, 0, 76, 84
1, 282000, Note_on_c, 0, 45, 60
1, 282000, Note_on_c, 0, 49, 60
1, 282000, Note_on_c, 0, 52, 73
1, 282120, Note_on_c, 0, 76, 0
1, 282120, Note_on_c, 0, 75, 84
1, 282180, Note_on_c, 0, 45, 0
1, 282180, Note_on_c, 0, 52, 0
1, 282180, Note_on_c, 0, 49, 0
1, 282224, Tempo, 375000
1, 282240, Tempo, 373832
1, 282240, Note_on_c, 0, 75, 0
1, 282240, Note_on_c, 0, 76, 95
1, 282240, Note_on_c, 0, 45, 67
1, 282240, Note_on_c, 0, 49, 67
1, 282240, Note_on_c, 0, 52, 78
1, 282320, Tempo, 372671
1, 282332, Tempo, 371517
1, 282360, Tempo, 370370
1, 282360, Note_on_c, 0, 76, 0
1, 282360, Note_on_c, 0, 80, 85
1, 282372, Tempo, 369231
1, 282384, Tempo, 368098
1, 282412, Tempo, 370370
1, 282420, Note_on_c, 0, 45, 0
1, 282420, Note_on_c, 0, 52, 0
1, 282420, Note_on_c, 0, 49, 0
1, 282424, Tempo, 375000
1, 282440, Tempo, 376176
1, 282452, Tempo, 377358
1, 282464, Tempo, 379747
1, 282480, Note_on_c, 0, 80, 0
1, 282480, Note_on_c, 0, 81, 85
1, 282480, Note_on_c, 0, 45, 60
1, 282480, Note_on_c, 0, 49, 60
1, 282480, Note_on_c, 0, 52, 73
1, 282544, Tempo, 377358
1, 282560, Tempo, 376176
1, 282572, Tempo, 372671
1, 282584, Tempo, 371517
1, 282600, Tempo, 369231
1, 282600, Note_on_c, 0, 81, 0
1, 282600, Note_on_c, 0, 80, 85
1, 282612, Tempo, 368098
1, 282624, Tempo, 370370
1, 282640, Tempo, 372671
1, 282652, Tempo, 375000
1, 282660, Note_on_c, 0, 45, 0
1, 282660, Note_on_c, 0, 52, 0
1, 282660, Note_on_c, 0, 49, 0
1, 282664, Tempo, 377358
1, 282720, Note_on_c, 0, 80, 0
1, 282720, Note_on_c, 0, 81, 95
1, 282760, Tempo, 376176
1, 282772, Tempo, 375000
1, 282784, Tempo, 373832
1, 282800, Tempo, 371517
1, 282812, Tempo, 370370
1, 282840, Note_on_c, 0, 81, 0
1, 282840, Note_on_c, 0, 84, 85
1, 282852, Tempo, 372671
1, 282864, Tempo, 373832
1, 282900, Tempo, 372671
1, 282960, Tempo, 387672
1, 282960, Note_on_c, 0, 84, 0
1, 282960, Note_on_c, 0, 85, 85
1, 282960, Note_on_c, 0, 45, 60
1, 282960, Note_on_c, 0, 49, 60
1, 282960, Note_on_c, 0, 52, 73
1, 283080, Note_on_c, 0, 85, 0
1, 283080, Note_on_c, 0, 84, 86
1, 283140, Note_on_c, 0, 45, 0
1, 283140, Note_on_c, 0, 52, 0
1, 283140, Note_on_c, 0, 49, 0
1, 283200, Tempo, 373902
1, 283200, Note_on_c, 0, 84, 0
1, 283200, Note_on_c, 0, 85, 95
1, 283200, Note_on_c, 0, 45, 67
1, 283200, Note_on_c, 0, 49, 67
1, 283200, Note_on_c, 0, 52, 78
1, 283212, Tempo, 376176
1, 283224, Tempo, 375000
1, 283240, Tempo, 373832
1, 283252, Tempo, 371517
1, 283292, Tempo, 372671
1, 283320, Tempo, 373832
1, 283320, Note_on_c, 0, 85, 0
1, 283320, Note_on_c, 0, 87, 86
1, 283332, Tempo, 376176
1, 283344, Tempo, 377358
1, 283360, Tempo, 378549
1, 283380, Note_on_c, 0, 45, 0
1, 283380, Note_on_c, 0, 52, 0
1, 283380, Note_on_c, 0, 49, 0
1, 283384, Tempo, 377358
1, 283400, Tempo, 376176
1, 283412, Tempo, 375000
1, 283424, Tempo, 373832
1, 283440, Tempo, 371517
1, 283440, Note_on_c, 0, 87, 0
1, 283440, Note_on_c, 0, 88, 86
1, 283440, Note_on_c, 0, 45, 60
1, 283440, Note_on_c, 0, 49, 60
1, 283440, Note_on_c, 0, 52, 73
1, 283452, Tempo, 370370
1, 283480, Tempo, 368098
1, 283520, Tempo, 369231
1, 283532, Tempo, 373832
1, 283544, Tempo, 375000
1, 283560, Tempo, 376176
1, 283560, Note_on_c, 0, 88, 0
1, 283560, Note_on_c, 0, 87, 86
1, 283572, Tempo, 377358
1, 283584, Tempo, 378549
1, 283600, Tempo, 379747
1, 283620, Note_on_c, 0, 45, 0
1, 283620, Note_on_c, 0, 52, 0
1, 283620, Note_on_c, 0, 49, 0
1, 283652, Tempo, 377358
1, 283664, Tempo, 375000
1, 283680, Tempo, 372671
1, 283680, Note_on_c, 0, 87, 0
1, 283680, Note_on_c, 0, 88, 95
1, 283692, Tempo, 371517
1, 283704, Tempo, 370370
1, 283720, Tempo, 369231
1, 283732, Tempo, 373832
1, 283744, Tempo, 375000
1, 283760, Tempo, 376176
1, 283772, Tempo, 378549
1, 283800, Note_on_c, 0, 88, 0
1, 283800, Note_on_c, 0, 87, 86
1, 283864, Tempo, 375000
1, 283880, Tempo, 373832
1, 283920, Tempo, 403877
1, 283920, Note_on_c, 0, 87, 0
1, 283920, Note_on_c, 0, 85, 86
1, 283920, Note_on_c, 0, 45, 60
1, 283920, Note_on_c, 0, 49, 60
1, 283920, Note_on_c, 0, 52, 73
1, 284040, Note_on_c, 0, 85, 0
1, 284040, Note_on_c, 0, 84, 86
1, 284100, Note_on_c, 0, 45, 0
1, 284100, Note_on_c, 0, 52, 0
1, 284100, Note_on_c, 0, 49, 0
1, 284160, Tempo, 373902
1, 284160, Note_on_c, 0, 84, 0
1, 284160, Note_on_c, 0, 85, 95
1, 284160, Note_on_c, 0, 52, 67
1, 284160, Note_on_c, 0, 46, 67
1, 284160, Note_on_c, 0, 49, 67
1, 284160, Note_on_c, 0, 54, 78
1, 284172, Tempo, 376176
1, 284184, Tempo, 375000
1, 284264, Tempo, 373832
1, 284280, Tempo, 372671
1, 284280, Note_on_c, 0, 85, 0
1, 284280, Note_on_c, 0, 84, 86
1, 284292, Tempo, 371517
1, 284320, Tempo, 373832
1, 284332, Tempo, 376176
1, 284340, Note_on_c, 0, 49, 0
1, 284340, Note_on_c, 0, 54, 0
1, 284340, Note_on_c, 0, 52, 0
1, 284340, Note_on_c, 0, 46, 0
1, 284360, Tempo, 378549
1, 284372, Tempo, 379747
1, 284400, Note_on_c, 0, 84, 0
1, 284400, Note_on_c, 0, 85, 86
1, 284400, Note_on_c, 0, 52, 60
1, 284400, Note_on_c, 0, 46, 60
1, 284400, Note_on_c, 0, 49, 60
1, 284400, Note_on_c, 0, 54, 73
1, 284440, Tempo, 378549
1, 284452, Tempo, 377358
1, 284464, Tempo, 375000
1, 284480, Tempo, 373832
1, 284492, Tempo, 372671
1, 284504, Tempo, 371517
1, 284520, Tempo, 370370
1, 284520, Note_on_c, 0, 85, 0
1, 284520, Note_on_c, 0, 87, 86
1, 284532, Tempo, 369231
1, 284544, Tempo, 372671
1, 284572, Tempo, 376176
1, 284580, Note_on_c, 0, 49, 0
1, 284580, Note_on_c, 0, 54, 0
1, 284580, Note_on_c, 0, 52, 0
1, 284580, Note_on_c, 0, 46, 0
1, 284584, Tempo, 377358
1, 284600, Tempo, 378549
1, 284640, Note_on_c, 0, 87, 0
1, 284640, Note_on_c, 0, 88, 95
1, 284652, Tempo, 377358
1, 284680, Tempo, 375000
1, 284692, Tempo, 372671
1, 284720, Tempo, 371517
1, 284732, Tempo, 370370
1, 284744, Tempo, 368098
1, 284760, Tempo, 372671
1, 284760, Note_on_c, 0, 88, 0
1, 284760, Note_on_c, 0, 87, 86
1, 284772, Tempo, 375000
1, 284784, Tempo, 376176
1, 284824, Tempo, 375000
1, 284840, Tempo, 373832
1, 284880, Tempo, 387672
1, 284880, Note_on_c, 0, 87, 0
1, 284880, Note_on_c, 0, 85, 86
1, 284880, Note_on_c, 0, 52, 60
1, 284880, Note_on_c, 0, 46, 60
1, 284880, Note_on_c, 0, 49, 60
1, 284880, Note_on_c, 0, 54, 73
1, 285000, Note_on_c, 0, 85, 0
1, 285000, Note_on_c, 0, 84, 86
1, 285060, Note_on_c, 0, 49, 0
1, 285060, Note_on_c, 0, 54, 0
1, 285060, Note_on_c, 0, 52, 0
1, 285060, Note_on_c, 0, 46, 0
1, 285120, Tempo, 375000
1, 285120, Note_on_c, 0, 84, 0
1, 285120, Note_on_c, 0, 85, 95
1, 285120, Note_on_c, 0, 52, 67
1, 285120, Note_on_c, 0, 46, 67
1, 285120, Note_on_c, 0, 49, 67
1, 285120, Note_on_c, 0, 54, 78
1, 285144, Tempo, 372671
1, 285172, Tempo, 371517
1, 285184, Tempo, 370370
1, 285224, Tempo, 372671
1, 285240, Tempo, 373832
1, 285240, Note_on_c, 0, 85, 0
1, 285240, Note_on_c, 0, 84, 86
1, 285252, Tempo, 375000
1, 285264, Tempo, 376176
1, 285280, Tempo, 377358
1, 285300, Note_on_c, 0, 49, 0
1, 285300, Note_on_c, 0, 54, 0
1, 285300, Note_on_c, 0, 52, 0
1, 285300, Note_on_c, 0, 46, 0
1, 285320, Tempo, 375000
1, 285332, Tempo, 371517
1, 285344, Tempo, 370370
1, 285360, Note_on_c, 0, 84, 0
1, 285360, Note_on_c, 0, 85, 86
1, 285360, Note_on_c, 0, 52, 60
1, 285360, Note_on_c, 0, 46, 60
1, 285360, Note_on_c, 0, 49, 60
1, 285360, Note_on_c, 0, 54, 73
1, 285372, Tempo, 368098
1, 285384, Tempo, 366972
1, 285400, Tempo, 371517
1, 285412, Tempo, 372671
1, 285440, Tempo, 373832
1, 285452, Tempo, 376176
1, 285464, Tempo, 377358
1, 285480, Tempo, 378549
1, 285480, Note_on_c, 0, 85, 0
1, 285480, Note_on_c, 0, 87, 86
1, 285492, Tempo, 379747
1, 285540, Note_on_c, 0, 49, 0
1, 285540, Note_on_c, 0, 54, 0
1, 285540, Note_on_c, 0, 52, 0
1, 285540, Note_on_c, 0, 46, 0
1, 285560, Tempo, 378549
1, 285572, Tempo, 376176
1, 285584, Tempo, 372671
1, 285600, Note_on_c, 0, 87, 0
1, 285600, Note_on_c, 0, 88, 95
1, 285640, Tempo, 372671
1, 285700, Tempo, 375000
1, 285720, Note_on_c, 0, 88, 0
1, 285720, Note_on_c, 0, 87, 86
1, 285840, Tempo, 386374
1, 285840, Note_on_c, 0, 87, 0
1, 285840, Note_on_c, 0, 85, 86
1, 285840, Note_on_c, 0, 52, 60
1, 285840, Note_on_c, 0, 46, 60
1, 285840, Note_on_c, 0, 49, 60
1, 285840, Note_on_c, 0, 54, 73
1, 285960, Note_on_c, 0, 85, 0
1, 285960, Note_on_c, 0, 84, 86
1, 286020, Note_on_c, 0, 49, 0
1, 286020, Note_on_c, 0, 54, 0
1, 286020, Note_on_c, 0, 52, 0
1, 286020, Note_on_c, 0, 46, 0
1, 286080, Tempo, 371517
1, 286080, Note_on_c, 0, 84, 0
1, 286080, Note_on_c, 0, 85, 95
1, 286080, Note_on_c, 0, 52, 67
1, 286080, Note_on_c, 0, 46, 67
1, 286080, Note_on_c, 0, 49, 67
1, 286080, Note_on_c, 0, 54, 78
1, 286104, Tempo, 372671
1, 286120, Tempo, 373832
1, 286132, Tempo, 375000
1, 286144, Tempo, 377358
1, 286160, Tempo, 378549
1, 286200, Note_on_c, 0, 85, 0
1, 286200, Note_on_c, 0, 84, 86
1, 286224, Tempo, 377358
1, 286240, Tempo, 373832
1, 286252, Tempo, 372671
1, 286260, Note_on_c, 0, 49, 0
1, 286260, Note_on_c, 0, 54, 0
1, 286260, Note_on_c, 0, 52, 0
1, 286260, Note_on_c, 0, 46, 0
1, 286280, Tempo, 371517
1, 286292, Tempo, 370370
1, 286320, Note_on_c, 0, 84, 0
1, 286320, Note_on_c, 0, 85, 86
1, 286320, Note_on_c, 0, 52, 60
1, 286320, Note_on_c, 0, 46, 60
1, 286320, Note_on_c, 0, 49, 60
1, 286320, Note_on_c, 0, 54, 73
1, 286332, Tempo, 369231
1, 286344, Tempo, 372671
1, 286360, Tempo, 373832
1, 286372, Tempo, 375000
1, 286384, Tempo, 376176
1, 286412, Tempo, 377358
1, 286440, Note_on_c, 0, 85, 0
1, 286440, Note_on_c, 0, 87, 86
1, 286464, Tempo, 375000
1, 286492, Tempo, 373832
1, 286500, Note_on_c, 0, 49, 0
1, 286500, Note_on_c, 0, 54, 0
1, 286500, Note_on_c, 0, 52, 0
1, 286500, Note_on_c, 0, 46, 0
1, 286504, Tempo, 370370
1, 286544, Tempo, 373832
1, 286560, Tempo, 375000
1, 286560, Note_on_c, 0, 87, 0
1, 286560, Note_on_c, 0, 88, 95
1, 286600, Tempo, 373832
1, 286612, Tempo, 372671
1, 286640, Tempo, 375000
1, 286660, Tempo, 372671
1, 286680, Note_on_c, 0, 88, 0
1, 286680, Note_on_c, 0, 87, 86
1, 286800, Tempo, 387672
1, 286800, Note_on_c, 0, 87, 0
1, 286800, Note_on_c, 0, 85, 86
1, 286800, Note_on_c, 0, 52, 60
1, 286800, Note_on_c, 0, 46, 60
1, 286800, Note_on_c, 0, 49, 60
1, 286800, Note_on_c, 0, 54, 73
1, 286920, Note_on_c, 0, 85, 0
1, 286920, Note_on_c, 0, 84, 86
1, 286980, Note_on_c, 0, 49, 0
1, 286980, Note_on_c, 0, 54, 0
1, 286980, Note_on_c, 0, 52, 0
1, 286980, Note_on_c, 0, 46, 0
1, 287040, Tempo, 375000
1, 287040, Note_on_c, 0, 84, 0
1, 287040, Note_on_c, 0, 85, 95
1, 287040, Note_on_c, 0, 52, 67
1, 287040, Note_on_c, 0, 46, 67
1, 287040, Note_on_c, 0, 49, 67
1, 287040, Note_on_c, 0, 54, 78
1, 287052, Tempo, 376176
1, 287080, Tempo, 377358
1, 287092, Tempo, 378549
1, 287160, Note_on_c, 0, 85, 0
1, 287160, Note_on_c, 0, 84, 86
1, 287212, Tempo, 377358
1, 287220, Note_on_c, 0, 49, 0
1, 287220, Note_on_c, 0, 54, 0
1, 287220, Note_on_c, 0, 52, 0
1, 287220, Note_on_c, 0, 46, 0
1, 287224, Tempo, 376176
1, 287240, Tempo, 375000
1, 287252, Tempo, 373832
1, 287264, Tempo, 372671
1, 287280, Note_on_c, 0, 84, 0
1, 287280, Note_on_c, 0, 85, 86
1, 287280, Note_on_c, 0, 52, 60
1, 287280, Note_on_c, 0, 46, 60
1, 287280, Note_on_c, 0, 49, 60
1, 287280, Note_on_c, 0, 54, 73
1, 287292, Tempo, 370370
1, 287320, Tempo, 373832
1, 287332, Tempo, 378549
1, 287400, Note_on_c, 0, 85, 0
1, 287400, Note_on_c, 0, 87, 86
1, 287412, Tempo, 376176
1, 287424, Tempo, 375000
1, 287440, Tempo, 373832
1, 287460, Note_on_c, 0, 49, 0
1, 287460, Note_on_c, 0, 54, 0
1, 287460, Note_on_c, 0, 52, 0
1, 287460, Note_on_c, 0, 46, 0
1, 287464, Tempo, 372671
1, 287520, Note_on_c, 0, 87, 0
1, 287520, Note_on_c, 0, 88, 95
1, 287560, Tempo, 372671
1, 287640, Note_on_c, 0, 88, 0
1, 287640, Note_on_c, 0, 87, 86
1, 287760, Tempo, 386374
1, 287760, Note_on_c, 0, 87, 0
1, 287760, Note_on_c, 0, 88, 86
1, 287760, Note_on_c, 0, 52, 60
1, 287760, Note_on_c, 0, 46, 60
1, 287760, Note_on_c, 0, 49, 60
1, 287760, Note_on_c, 0, 54, 73
1, 287880, Note_on_c, 0, 88, 0
1, 287880, Note_on_c, 0, 85, 86
1, 287940, Note_on_c, 0, 49, 0
1, 287940, Note_on_c, 0, 54, 0
1, 287940, Note_on_c, 0, 52, 0
1, 287940, Note_on_c, 0, 46, 0
1, 288000, Tempo, 372671
1, 288000, Note_on_c, 0, 85, 0
1, 288000, Note_on_c, 0, 71, 87
1, 288000, Note_on_c, 0, 83, 103
1, 288000, Note_on_c, 0, 47, 78
1, 288046, Control_c, 0, 64, 127
1, 288120, Note_on_c, 0, 47, 0
1, 288120, Note_on_c, 0, 83, 0
1, 288120, Note_on_c, 0, 71, 0
1, 288120, Note_on_c, 0, 52, 70
1, 288240, Note_on_c, 0, 52, 0
1, 288240, Note_on_c, 0, 71, 73
1, 288240, Note_on_c, 0, 83, 87
1, 288240, Note_on_c, 0, 56, 70
1, 288360, Note_on_c, 0, 56, 0
1, 288360, Note_on_c, 0, 83, 0
1, 288360, Note_on_c, 0, 71, 0
1, 288360, Note_on_c, 0, 59, 70
1, 288480, Tempo, 378788
1, 288480, Note_on_c, 0, 59, 0
1, 288480, Note_on_c, 0, 68, 74
1, 288480, Note_on_c, 0, 80, 88
1, 288480, Note_on_c, 0, 47, 77
1, 288600, Note_on_c, 0, 47, 0
1, 288600, Note_on_c, 0, 80, 0
1, 288600, Note_on_c, 0, 68, 0
1, 288600, Note_on_c, 0, 52, 70
1, 288720, Note_on_c, 0, 52, 0
1, 288720, Note_on_c, 0, 64, 73
1, 288720, Note_on_c, 0, 76, 87
1, 288720, Note_on_c, 0, 56, 70
1, 288840, Note_on_c, 0, 56, 0
1, 288840, Note_on_c, 0, 76, 0
1, 288840, Note_on_c, 0, 64, 0
1, 288840, Note_on_c, 0, 59, 70
1, 288960, Tempo, 371517
1, 288960, Note_on_c, 0, 59, 0
1, 288960, Note_on_c, 0, 76, 87
1, 288960, Note_on_c, 0, 88, 103
1, 288960, Note_on_c, 0, 47, 75
1, 289080, Note_on_c, 0, 47, 0
1, 289080, Note_on_c, 0, 88, 0
1, 289080, Note_on_c, 0, 76, 0
1, 289080, Note_on_c, 0, 52, 70
1, 289200, Note_on_c, 0, 52, 0
1, 289200, Note_on_c, 0, 76, 73
1, 289200, Note_on_c, 0, 88, 87
1, 289200, Note_on_c, 0, 56, 70
1, 289320, Note_on_c, 0, 56, 0
1, 289320, Note_on_c, 0, 88, 0
1, 289320, Note_on_c, 0, 76, 0
1, 289320, Note_on_c, 0, 59, 70
1, 289440, Tempo, 381291
1, 289440, Note_on_c, 0, 59, 0
1, 289440, Note_on_c, 0, 71, 73
1, 289440, Note_on_c, 0, 83, 87
1, 289440, Note_on_c, 0, 47, 75
1, 289560, Note_on_c, 0, 47, 0
1, 289560, Note_on_c, 0, 83, 0
1, 289560, Note_on_c, 0, 71, 0
1, 289560, Note_on_c, 0, 52, 70
1, 289680, Note_on_c, 0, 52, 0
1, 289680, Note_on_c, 0, 68, 73
1, 289680, Note_on_c, 0, 80, 87
1, 289680, Note_on_c, 0, 56, 70
1, 289800, Note_on_c, 0, 56, 0
1, 289800, Note_on_c, 0, 80, 0
1, 289800, Note_on_c, 0, 68, 0
1, 289800, Note_on_c, 0, 59, 70
1, 289880, Tempo, 373902
1, 289920, Note_on_c, 0, 59, 0
1, 289920, Note_on_c, 0, 71, 87
1, 289920, Note_on_c, 0, 83, 103
1, 289920, Note_on_c, 0, 47, 78
1, 289930, Control_c, 0, 64, 0
1, 289989, Control_c, 0, 64, 127
1, 290040, Note_on_c, 0, 47, 0
1, 290040, Note_on_c, 0, 83, 0
1, 290040, Note_on_c, 0, 71, 0
1, 290040, Note_on_c, 0, 52, 70
1, 290160, Note_on_c, 0, 52, 0
1, 290160, Note_on_c, 0, 71, 73
1, 290160, Note_on_c, 0, 83, 87
1, 290160, Note_on_c, 0, 56, 70
1, 290280, Note_on_c, 0, 56, 0
1, 290280, Note_on_c, 0, 83, 0
1, 290280, Note_on_c, 0, 71, 0
1, 290280, Note_on_c, 0, 59, 70
1, 290400, Tempo, 377572
1, 290400, Note_on_c, 0, 59, 0
1, 290400, Note_on_c, 0, 68, 74
1, 290400, Note_on_c, 0, 80, 88
1, 290400, Note_on_c, 0, 47, 77
1, 290520, Note_on_c, 0, 47, 0
1, 290520, Note_on_c, 0, 80, 0
1, 290520, Note_on_c, 0, 68, 0
1, 290520, Note_on_c, 0, 52, 70
1, 290640, Note_on_c, 0, 52, 0
1, 290640, Note_on_c, 0, 64, 73
1, 290640, Note_on_c, 0, 76, 87
1, 290640, Note_on_c, 0, 56, 70
1, 290760, Note_on_c, 0, 56, 0
1, 290760, Note_on_c, 0, 76, 0
1, 290760, Note_on_c, 0, 64, 0
1, 290760, Note_on_c, 0, 59, 70
1, 290880, Tempo, 373902
1, 290880, Note_on_c, 0, 59, 0
1, 290880, Note_on_c, 0, 76, 87
1, 290880, Note_on_c, 0, 88, 103
1, 290880, Note_on_c, 0, 56, 75
1, 291000, Note_on_c, 0, 56, 0
1, 291000, Note_on_c, 0, 88, 0
1, 291000, Note_on_c, 0, 76, 0
1, 291120, Note_on_c, 0, 76, 73
1, 291120, Note_on_c, 0, 88, 87
1, 291120, Note_on_c, 0, 56, 70
1, 291240, Note_on_c, 0, 56, 0
1, 291240, Note_on_c, 0, 88, 0
1, 291240, Note_on_c, 0, 76, 0
1, 291360, Tempo, 378788
1, 291360, Note_on_c, 0, 71, 73
1, 291360, Note_on_c, 0, 83, 87
1, 291360, Note_on_c, 0, 52, 75
1, 291480, Note_on_c, 0, 52, 0
1, 291480, Note_on_c, 0, 83, 0
1, 291480, Note_on_c, 0, 71, 0
1, 291600, Note_on_c, 0, 68, 73
1, 291600, Note_on_c, 0, 80, 87
1, 291600, Note_on_c, 0, 47, 70
1, 291720, Note_on_c, 0, 47, 0
1, 291720, Note_on_c, 0, 80, 0
1, 291720, Note_on_c, 0, 68, 0
1, 291840, Tempo, 373902
1, 291840, Note_on_c, 0, 59, 82
1, 291851, Control_c, 0, 64, 0
1, 291886, Control_c, 0, 64, 127
1, 291960, Note_on_c, 0, 59, 0
1, 291960, Note_on_c, 0, 80, 47
1, 292080, Note_on_c, 0, 80, 0
1, 292080, Note_on_c, 0, 83, 50
1, 292080, Note_on_c, 0, 56, 47
1, 292199, Note_on_c, 0, 83, 0
1, 292200, Note_on_c, 0, 56, 0
1, 292200, Note_on_c, 0, 80, 47
1, 292320, Note_on_c, 0, 80, 0
1, 292320, Note_on_c, 0, 83, 51
1, 292320, Note_on_c, 0, 64, 53
1, 292439, Note_on_c, 0, 83, 0
1, 292440, Note_on_c, 0, 64, 0
1, 292440, Note_on_c, 0, 80, 47
1, 292560, Note_on_c, 0, 80, 0
1, 292560, Note_on_c, 0, 83, 50
1, 292560, Note_on_c, 0, 59, 48
1, 292679, Note_on_c, 0, 83, 0
1, 292680, Note_on_c, 0, 59, 0
1, 292680, Note_on_c, 0, 80, 47
1, 292800, Tempo, 370325
1, 292800, Note_on_c, 0, 80, 0
1, 292800, Note_on_c, 0, 83, 51
1, 292800, Note_on_c, 0, 68, 52
1, 292919, Note_on_c, 0, 83, 0
1, 292920, Note_on_c, 0, 68, 0
1, 292920, Note_on_c, 0, 80, 47
1, 293040, Note_on_c, 0, 80, 0
1, 293040, Note_on_c, 0, 83, 50
1, 293040, Note_on_c, 0, 64, 41
1, 293159, Note_on_c, 0, 83, 0
1, 293160, Note_on_c, 0, 64, 0
1, 293160, Note_on_c, 0, 80, 47
1, 293280, Note_on_c, 0, 80, 0
1, 293280, Note_on_c, 0, 83, 52
1, 293280, Note_on_c, 0, 71, 50
1, 293399, Note_on_c, 0, 83, 0
1, 293400, Note_on_c, 0, 71, 0
1, 293400, Note_on_c, 0, 80, 47
1, 293520, Note_on_c, 0, 80, 0
1, 293520, Note_on_c, 0, 83, 51
1, 293520, Note_on_c, 0, 68, 41
1, 293639, Note_on_c, 0, 83, 0
1, 293640, Note_on_c, 0, 68, 0
1, 293640, Note_on_c, 0, 80, 47
1, 293760, Note_on_c, 0, 80, 0
1, 293760, Note_on_c, 0, 83, 50
1, 293760, Note_on_c, 0, 76, 50
1, 293800, Tempo, 372694
1, 293879, Note_on_c, 0, 83, 0
1, 293880, Note_on_c, 0, 76, 0
1, 293880, Note_on_c, 0, 80, 47
1, 294000, Note_on_c, 0, 80, 0
1, 294000, Note_on_c, 0, 83, 50
1, 294000, Note_on_c, 0, 71, 41
1, 294119, Note_on_c, 0, 83, 0
1, 294120, Note_on_c, 0, 71, 0
1, 294120, Note_on_c, 0, 80, 47
1, 294240, Note_on_c, 0, 80, 0
1, 294240, Note_on_c, 0, 83, 51
1, 294240, Note_on_c, 0, 76, 50
1, 294359, Note_on_c, 0, 83, 0
1, 294360, Note_on_c, 0, 76, 0
1, 294360, Note_on_c, 0, 80, 47
1, 294480, Note_on_c, 0, 80, 0
1, 294480, Note_on_c, 0, 83, 50
1, 294480, Note_on_c, 0, 71, 39
1, 294599, Note_on_c, 0, 83, 0
1, 294600, Note_on_c, 0, 71, 0
1, 294600, Note_on_c, 0, 80, 47
1, 294720, Note_on_c, 0, 80, 0
1, 294720, Note_on_c, 0, 83, 51
1, 294720, Note_on_c, 0, 76, 50
1, 294760, Tempo, 372694
1, 294839, Note_on_c, 0, 83, 0
1, 294840, Note_on_c, 0, 76, 0
1, 294840, Note_on_c, 0, 80, 47
1, 294880, Tempo, 373902
1, 294960, Note_on_c, 0, 80, 0
1, 294960, Note_on_c, 0, 83, 50
1, 294960, Note_on_c, 0, 71, 41
1, 295000, Tempo, 375117
1, 295079, Note_on_c, 0, 83, 0
1, 295080, Note_on_c, 0, 71, 0
1, 295080, Note_on_c, 0, 80, 47
1, 295120, Tempo, 376341
1, 295200, Note_on_c, 0, 80, 0
1, 295200, Note_on_c, 0, 83, 52
1, 295200, Note_on_c, 0, 76, 50
1, 295240, Tempo, 377572
1, 295319, Note_on_c, 0, 83, 0
1, 295320, Note_on_c, 0, 76, 0
1, 295320, Note_on_c, 0, 80, 47
1, 295360, Tempo, 378788
1, 295440, Note_on_c, 0, 80, 0
1, 295440, Note_on_c, 0, 83, 51
1, 295440, Note_on_c, 0, 71, 42
1, 295480, Tempo, 380035
1, 295559, Note_on_c, 0, 83, 0
1, 295560, Note_on_c, 0, 71, 0
1, 295560, Note_on_c, 0, 80, 47
1, 295600, Tempo, 381291
1, 295680, Note_on_c, 0, 80, 0
1, 295680, Note_on_c, 0, 75, 46
1, 295689, Control_c, 0, 64, 0
1, 295720, Tempo, 373902
1, 295740, Control_c, 0, 64, 127
1, 295800, Note_on_c, 0, 75, 0
1, 295800, Note_on_c, 0, 81, 42
1, 295920, Note_on_c, 0, 81, 0
1, 295920, Note_on_c, 0, 83, 45
1, 295920, Note_on_c, 0, 71, 37
1, 296039, Note_on_c, 0, 83, 0
1, 296040, Note_on_c, 0, 71, 0
1, 296040, Note_on_c, 0, 81, 41
1, 296120, Tempo, 372694
1, 296160, Note_on_c, 0, 81, 0
1, 296160, Note_on_c, 0, 84, 44
1, 296160, Note_on_c, 0, 75, 43
1, 296279, Note_on_c, 0, 84, 0
1, 296280, Note_on_c, 0, 75, 0
1, 296280, Note_on_c, 0, 81, 40
1, 296360, Tempo, 371517
1, 296400, Note_on_c, 0, 81, 0
1, 296400, Note_on_c, 0, 83, 42
1, 296400, Note_on_c, 0, 71, 36
1, 296519, Note_on_c, 0, 83, 0
1, 296520, Note_on_c, 0, 71, 0
1, 296520, Note_on_c, 0, 81, 39
1, 296600, Tempo, 370325
1, 296640, Tempo, 373832
1, 296640, Note_on_c, 0, 81, 0
1, 296640, Note_on_c, 0, 84, 42
1, 296640, Note_on_c, 0, 75, 41
1, 296660, Tempo, 375000
1, 296680, Tempo, 379747
1, 296759, Note_on_c, 0, 84, 0
1, 296760, Note_on_c, 0, 75, 0
1, 296760, Note_on_c, 0, 81, 38
1, 296780, Tempo, 378549
1, 296800, Tempo, 376176
1, 296820, Tempo, 372671
1, 296840, Tempo, 370370
1, 296860, Tempo, 369231
1, 296880, Tempo, 368098
1, 296880, Note_on_c, 0, 81, 0
1, 296880, Note_on_c, 0, 83, 40
1, 296880, Note_on_c, 0, 71, 32
1, 296940, Tempo, 369231
1, 296960, Tempo, 370370
1, 296980, Tempo, 372671
1, 296999, Note_on_c, 0, 83, 0
1, 297000, Tempo, 373832
1, 297000, Note_on_c, 0, 71, 0
1, 297000, Note_on_c, 0, 81, 37
1, 297040, Tempo, 375000
1, 297100, Tempo, 376176
1, 297120, Note_on_c, 0, 81, 0
1, 297120, Note_on_c, 0, 84, 40
1, 297120, Note_on_c, 0, 75, 39
1, 297140, Tempo, 377358
1, 297160, Tempo, 375000
1, 297180, Tempo, 370370
1, 297200, Tempo, 369231
1, 297239, Note_on_c, 0, 84, 0
1, 297240, Tempo, 366972
1, 297240, Note_on_c, 0, 75, 0
1, 297240, Note_on_c, 0, 81, 36
1, 297260, Tempo, 364742
1, 297280, Tempo, 363636
1, 297320, Tempo, 364742
1, 297340, Tempo, 366972
1, 297360, Note_on_c, 0, 81, 0
1, 297360, Note_on_c, 0, 83, 39
1, 297360, Note_on_c, 0, 71, 31
1, 297380, Tempo, 369231
1, 297420, Tempo, 370370
1, 297460, Tempo, 371517
1, 297479, Note_on_c, 0, 83, 0
1, 297480, Note_on_c, 0, 71, 0
1, 297480, Note_on_c, 0, 81, 35
1, 297500, Tempo, 372671
1, 297540, Tempo, 373832
1, 297560, Tempo, 371517
1, 297580, Tempo, 364742
1, 297600, Tempo, 363636
1, 297600, Note_on_c, 0, 81, 0
1, 297600, Note_on_c, 0, 84, 37
1, 297600, Note_on_c, 0, 75, 36
1, 297620, Tempo, 362538
1, 297660, Tempo, 363636
1, 297680, Tempo, 364742
1, 297700, Tempo, 366972
1, 297719, Note_on_c, 0, 84, 0
1, 297720, Tempo, 369231
1, 297720, Note_on_c, 0, 75, 0
1, 297720, Note_on_c, 0, 81, 34
1, 297760, Tempo, 370370
1, 297780, Tempo, 371517
1, 297840, Tempo, 370370
1, 297840, Note_on_c, 0, 81, 0
1, 297840, Note_on_c, 0, 83, 36
1, 297840, Note_on_c, 0, 71, 30
1, 297860, Tempo, 368098
1, 297880, Tempo, 364742
1, 297900, Tempo, 363636
1, 297959, Note_on_c, 0, 83, 0
1, 297960, Note_on_c, 0, 71, 0
1, 297960, Note_on_c, 0, 81, 34
1, 297980, Tempo, 364742
1, 298080, Note_on_c, 0, 81, 0
1, 298080, Note_on_c, 0, 84, 37
1, 298080, Note_on_c, 0, 75, 36
1, 298100, Tempo, 371517
1, 298120, Tempo, 373832
1, 298140, Tempo, 375000
1, 298199, Note_on_c, 0, 84, 0
1, 298200, Note_on_c, 0, 75, 0
1, 298200, Note_on_c, 0, 81, 34
1, 298220, Tempo, 373832
1, 298240, Tempo, 371517
1, 298260, Tempo, 368098
1, 298280, Tempo, 365854
1, 298300, Tempo, 364742
1, 298320, Note_on_c, 0, 81, 0
1, 298320, Note_on_c, 0, 83, 36
1, 298320, Note_on_c, 0, 71, 31
1, 298340, Tempo, 363636
1, 298380, Tempo, 364742
1, 298384, Tempo, 366815
1, 298412, Tempo, 365653
1, 298439, Note_on_c, 0, 83, 0
1, 298440, Note_on_c, 0, 71, 0
1, 298440, Note_on_c, 0, 81, 34
1, 298452, Tempo, 366815
1, 298464, Tempo, 369140
1, 298480, Tempo, 370325
1, 298560, Tempo, 372694
1, 298560, Note_on_c, 0, 81, 0
1, 298560, Note_on_c, 0, 84, 37
1, 298560, Note_on_c, 0, 75, 36
1, 298679, Note_on_c, 0, 84, 0
1, 298680, Note_on_c, 0, 75, 0
1, 298680, Note_on_c, 0, 81, 34
1, 298760, Tempo, 373902
1, 298800, Note_on_c, 0, 81, 0
1, 298800, Note_on_c, 0, 83, 36
1, 298800, Note_on_c, 0, 71, 29
1, 298919, Note_on_c, 0, 83, 0
1, 298920, Tempo, 375117
1, 298920, Note_on_c, 0, 71, 0
1, 298920, Note_on_c, 0, 81, 34
1, 299040, Note_on_c, 0, 81, 0
1, 299040, Note_on_c, 0, 84, 38
1, 299040, Note_on_c, 0, 75, 36
1, 299080, Tempo, 376341
1, 299159, Note_on_c, 0, 84, 0
1, 299160, Note_on_c, 0, 75, 0
1, 299160, Note_on_c, 0, 81, 34
1, 299240, Tempo, 377572
1, 299280, Note_on_c, 0, 81, 0
1, 299280, Note_on_c, 0, 83, 37
1, 299280, Note_on_c, 0, 71, 30
1, 299399, Note_on_c, 0, 83, 0
1, 299400, Tempo, 378788
1, 299400, Note_on_c, 0, 71, 0
1, 299400, Note_on_c, 0, 81, 34
1, 299504, Tempo, 377572
1, 299520, Tempo, 376176
1, 299520, Note_on_c, 0, 81, 0
1, 299520, Note_on_c, 0, 85, 37
1, 299520, Note_on_c, 0, 75, 37
1, 299528, Control_c, 0, 64, 0
1, 299552, Control_c, 0, 64, 127
1, 299572, Tempo, 375117
1, 299600, Tempo, 372694
1, 299600, Note_on_c, 0, 75, 0
1, 299600, Note_on_c, 0, 76, 32
1, 299612, Tempo, 371517
1, 299624, Tempo, 370325
1, 299640, Tempo, 372694
1, 299640, Note_on_c, 0, 85, 0
1, 299640, Note_on_c, 0, 81, 34
1, 299652, Tempo, 375117
1, 299664, Tempo, 377572
1, 299680, Note_on_c, 0, 76, 0
1, 299680, Note_on_c, 0, 75, 36
1, 299760, Tempo, 373902
1, 299760, Note_on_c, 0, 75, 0
1, 299760, Note_on_c, 0, 81, 0
1, 299760, Note_on_c, 0, 83, 36
1, 299760, Note_on_c, 0, 76, 31
1, 299772, Tempo, 370325
1, 299800, Tempo, 371517
1, 299812, Tempo, 373902
1, 299824, Tempo, 376341
1, 299840, Tempo, 377572
1, 299840, Note_on_c, 0, 76, 0
1, 299840, Note_on_c, 0, 75, 36
1, 299850, Tempo, 382166
1, 299880, Tempo, 380952
1, 299880, Note_on_c, 0, 83, 0
1, 299880, Note_on_c, 0, 81, 35
1, 299900, Tempo, 378549
1, 299910, Tempo, 377358
1, 299920, Tempo, 376176
1, 299920, Note_on_c, 0, 75, 0
1, 299920, Note_on_c, 0, 76, 33
1, 299950, Tempo, 375000
1, 300000, Note_on_c, 0, 76, 0
1, 300000, Note_on_c, 0, 81, 0
1, 300000, Note_on_c, 0, 85, 38
1, 300000, Note_on_c, 0, 75, 37
1, 300060, Tempo, 376176
1, 300070, Tempo, 378549
1, 300080, Tempo, 379747
1, 300080, Note_on_c, 0, 75, 0
1, 300080, Note_on_c, 0, 76, 33
1, 300090, Tempo, 380952
1, 300120, Note_on_c, 0, 85, 0
1, 300120, Note_on_c, 0, 81, 36
1, 300130, Tempo, 379747
1, 300140, Tempo, 378549
1, 300150, Tempo, 377358
1, 300160, Tempo, 376176
1, 300160, Note_on_c, 0, 76, 0
1, 300160, Note_on_c, 0, 75, 37
1, 300170, Tempo, 375000
1, 300180, Tempo, 372671
1, 300200, Tempo, 371517
1, 300220, Tempo, 370370
1, 300230, Tempo, 369231
1, 300240, Tempo, 371517
1, 300240, Note_on_c, 0, 75, 0
1, 300240, Note_on_c, 0, 81, 0
1, 300240, Note_on_c, 0, 83, 38
1, 300240, Note_on_c, 0, 76, 33
1, 300260, Tempo, 372671
1, 300270, Tempo, 375000
1, 300300, Tempo, 379747
1, 300320, Note_on_c, 0, 76, 0
1, 300320, Note_on_c, 0, 75, 38
1, 300340, Tempo, 378549
1, 300350, Tempo, 377358
1, 300360, Tempo, 376176
1, 300360, Note_on_c, 0, 83, 0
1, 300360, Note_on_c, 0, 81, 36
1, 300370, Tempo, 375000
1, 300380, Tempo, 373832
1, 300390, Tempo, 372671
1, 300400, Tempo, 371517
1, 300400, Note_on_c, 0, 75, 0
1, 300400, Note_on_c, 0, 76, 34
1, 300410, Tempo, 370370
1, 300420, Tempo, 369231
1, 300430, Tempo, 371517
1, 300440, Tempo, 372671
1, 300450, Tempo, 373832
1, 300470, Tempo, 376176
1, 300480, Note_on_c, 0, 76, 0
1, 300480, Note_on_c, 0, 81, 0
1, 300480, Note_on_c, 0, 85, 40
1, 300480, Note_on_c, 0, 75, 38
1, 300490, Tempo, 378549
1, 300530, Tempo, 377358
1, 300540, Tempo, 376176
1, 300560, Tempo, 375000
1, 300560, Note_on_c, 0, 75, 0
1, 300560, Note_on_c, 0, 76, 35
1, 300570, Tempo, 372671
1, 300590, Tempo, 371517
1, 300600, Tempo, 370370
1, 300600, Note_on_c, 0, 85, 0
1, 300600, Note_on_c, 0, 81, 37
1, 300620, Tempo, 369231
1, 300630, Tempo, 368098
1, 300640, Tempo, 370370
1, 300640, Note_on_c, 0, 76, 0
1, 300640, Note_on_c, 0, 75, 39
1, 300650, Tempo, 373832
1, 300660, Tempo, 375000
1, 300670, Tempo, 376176
1, 300690, Tempo, 377358
1, 300700, Tempo, 378549
1, 300720, Note_on_c, 0, 75, 0
1, 300720, Note_on_c, 0, 81, 0
1, 300720, Note_on_c, 0, 83, 40
1, 300720, Note_on_c, 0, 76, 35
1, 300740, Tempo, 377358
1, 300750, Tempo, 376176
1, 300760, Tempo, 375000
1, 300770, Tempo, 373832
1, 300780, Tempo, 372671
1, 300790, Tempo, 371517
1, 300800, Note_on_c, 0, 76, 0
1, 300800, Note_on_c, 0, 75, 39
1, 300810, Tempo, 369231
1, 300830, Tempo, 368098
1, 300840, Note_on_c, 0, 83, 0
1, 300840, Note_on_c, 0, 81, 38
1, 300880, Note_on_c, 0, 75, 0
1, 300880, Note_on_c, 0, 76, 36
1, 300890, Tempo, 370370
1, 300900, Tempo, 371517
1, 300910, Tempo, 372671
1, 300920, Tempo, 373832
1, 300930, Tempo, 376176
1, 300940, Tempo, 377358
1, 300960, Note_on_c, 0, 76, 0
1, 300960, Note_on_c, 0, 81, 0
1, 300960, Note_on_c, 0, 85, 43
1, 300960, Note_on_c, 0, 75, 40
1, 301030, Tempo, 376176
1, 301040, Tempo, 375000
1, 301040, Note_on_c, 0, 75, 0
1, 301040, Note_on_c, 0, 76, 36
1, 301050, Tempo, 372671
1, 301070, Tempo, 371517
1, 301080, Tempo, 369231
1, 301080, Note_on_c, 0, 85, 0
1, 301080, Note_on_c, 0, 81, 39
1, 301110, Tempo, 370370
1, 301120, Tempo, 371517
1, 301120, Note_on_c, 0, 76, 0
1, 301120, Note_on_c, 0, 75, 40
1, 301140, Tempo, 373832
1, 301160, Tempo, 376176
1, 301170, Tempo, 377358
1, 301200, Note_on_c, 0, 75, 0
1, 301200, Note_on_c, 0, 81, 0
1, 301200, Note_on_c, 0, 83, 43
1, 301200, Note_on_c, 0, 76, 36
1, 301210, Tempo, 376176
1, 301220, Tempo, 375000
1, 301240, Tempo, 373832
1, 301250, Tempo, 372671
1, 301260, Tempo, 371517
1, 301280, Note_on_c, 0, 76, 0
1, 301280, Note_on_c, 0, 75, 41
1, 301290, Tempo, 370370
1, 301300, Tempo, 369231
1, 301320, Tempo, 368098
1, 301320, Note_on_c, 0, 83, 0
1, 301320, Note_on_c, 0, 81, 40
1, 301340, Tempo, 370370
1, 301350, Tempo, 371517
1, 301360, Tempo, 372671
1, 301360, Note_on_c, 0, 75, 0
1, 301360, Note_on_c, 0, 76, 37
1, 301380, Tempo, 371517
1, 301400, Tempo, 370370
1, 301410, Tempo, 369231
1, 301440, Tempo, 368098
1, 301440, Note_on_c, 0, 76, 0
1, 301440, Note_on_c, 0, 81, 0
1, 301440, Note_on_c, 0, 90, 44
1, 301440, Note_on_c, 0, 75, 41
1, 301453, Control_c, 0, 64, 0
1, 301470, Tempo, 369231
1, 301480, Tempo, 371517
1, 301490, Tempo, 373832
1, 301500, Tempo, 375000
1, 301500, Control_c, 0, 64, 127
1, 301510, Tempo, 377358
1, 301520, Note_on_c, 0, 75, 0
1, 301520, Note_on_c, 0, 76, 36
1, 301560, Tempo, 375000
1, 301560, Note_on_c, 0, 90, 0
1, 301560, Note_on_c, 0, 83, 41
1, 301560, Note_on_c, 0, 81, 41
1, 301570, Tempo, 373832
1, 301580, Tempo, 371517
1, 301590, Tempo, 370370
1, 301600, Tempo, 366972
1, 301600, Note_on_c, 0, 76, 0
1, 301600, Note_on_c, 0, 75, 42
1, 301610, Tempo, 365854
1, 301660, Tempo, 364742
1, 301680, Tempo, 369231
1, 301680, Note_on_c, 0, 75, 0
1, 301680, Note_on_c, 0, 81, 0
1, 301680, Note_on_c, 0, 83, 0
1, 301680, Note_on_c, 0, 90, 43
1, 301680, Note_on_c, 0, 76, 37
1, 301690, Tempo, 370370
1, 301700, Tempo, 371517
1, 301720, Tempo, 372671
1, 301730, Tempo, 373832
1, 301740, Tempo, 375000
1, 301750, Tempo, 377358
1, 301760, Note_on_c, 0, 76, 0
1, 301760, Note_on_c, 0, 75, 42
1, 301800, Tempo, 375000
1, 301800, Note_on_c, 0, 90, 0
1, 301800, Note_on_c, 0, 83, 41
1, 301800, Note_on_c, 0, 81, 41
1, 301810, Tempo, 372671
1, 301820, Tempo, 371517
1, 301840, Note_on_c, 0, 75, 0
1, 301840, Note_on_c, 0, 76, 37
1, 301850, Tempo, 370370
1, 301880, Tempo, 369231
1, 301910, Tempo, 370370
1, 301920, Note_on_c, 0, 76, 0
1, 301920, Note_on_c, 0, 81, 0
1, 301920, Note_on_c, 0, 83, 0
1, 301920, Note_on_c, 0, 90, 46
1, 301920, Note_on_c, 0, 75, 43
1, 301930, Tempo, 373832
1, 301940, Tempo, 375000
1, 301950, Tempo, 376176
1, 301970, Tempo, 377358
1, 302000, Note_on_c, 0, 75, 0
1, 302000, Note_on_c, 0, 76, 38
1, 302020, Tempo, 375000
1, 302030, Tempo, 373832
1, 302040, Tempo, 371517
1, 302040, Note_on_c, 0, 90, 0
1, 302040, Note_on_c, 0, 83, 42
1, 302040, Note_on_c, 0, 81, 42
1, 302060, Tempo, 370370
1, 302080, Tempo, 368098
1, 302080, Note_on_c, 0, 76, 0
1, 302080, Note_on_c, 0, 75, 43
1, 302090, Tempo, 366972
1, 302110, Tempo, 368098
1, 302120, Tempo, 369231
1, 302140, Tempo, 371517
1, 302150, Tempo, 373832
1, 302160, Tempo, 375000
1, 302160, Note_on_c, 0, 75, 0
1, 302160, Note_on_c, 0, 81, 0
1, 302160, Note_on_c, 0, 83, 0
1, 302160, Note_on_c, 0, 90, 46
1, 302160, Note_on_c, 0, 76, 39
1, 302230, Tempo, 373832
1, 302240, Tempo, 371517
1, 302240, Note_on_c, 0, 76, 0
1, 302240, Note_on_c, 0, 75, 44
1, 302250, Tempo, 370370
1, 302270, Tempo, 368098
1, 302280, Tempo, 365854
1, 302280, Note_on_c, 0, 90, 0
1, 302280, Note_on_c, 0, 83, 44
1, 302280, Note_on_c, 0, 81, 44
1, 302300, Tempo, 364742
1, 302320, Tempo, 369231
1, 302320, Note_on_c, 0, 75, 0
1, 302320, Note_on_c, 0, 76, 39
1, 302330, Tempo, 371517
1, 302390, Tempo, 373832
1, 302400, Note_on_c, 0, 76, 0
1, 302400, Note_on_c, 0, 81, 0
1, 302400, Note_on_c, 0, 83, 0
1, 302400, Note_on_c, 0, 90, 49
1, 302400, Note_on_c, 0, 75, 44
1, 302410, Tempo, 376176
1, 302430, Tempo, 377358
1, 302450, Tempo, 375000
1, 302460, Tempo, 373832
1, 302470, Tempo, 371517
1, 302480, Tempo, 370370
1, 302480, Note_on_c, 0, 75, 0
1, 302480, Note_on_c, 0, 76, 38
1, 302500, Tempo, 369231
1, 302510, Tempo, 366972
1, 302520, Tempo, 368098
1, 302520, Note_on_c, 0, 90, 0
1, 302520, Note_on_c, 0, 83, 45
1, 302520, Note_on_c, 0, 81, 45
1, 302540, Tempo, 370370
1, 302550, Tempo, 373832
1, 302560, Tempo, 375000
1, 302560, Note_on_c, 0, 76, 0
1, 302560, Note_on_c, 0, 75, 45
1, 302580, Tempo, 376176
1, 302620, Tempo, 375000
1, 302630, Tempo, 373832
1, 302640, Tempo, 372671
1, 302640, Note_on_c, 0, 75, 0
1, 302640, Note_on_c, 0, 81, 0
1, 302640, Note_on_c, 0, 83, 0
1, 302640, Note_on_c, 0, 90, 49
1, 302640, Note_on_c, 0, 76, 38
1, 302650, Tempo, 371517
1, 302670, Tempo, 370370
1, 302680, Tempo, 369231
1, 302710, Tempo, 368098
1, 302720, Note_on_c, 0, 76, 0
1, 302720, Note_on_c, 0, 75, 45
1, 302730, Tempo, 370370
1, 302740, Tempo, 371517
1, 302750, Tempo, 375000
1, 302760, Tempo, 376176
1, 302760, Note_on_c, 0, 90, 0
1, 302760, Note_on_c, 0, 83, 47
1, 302760, Note_on_c, 0, 81, 47
1, 302770, Tempo, 377358
1, 302800, Tempo, 376176
1, 302800, Note_on_c, 0, 75, 0
1, 302800, Note_on_c, 0, 76, 40
1, 302810, Tempo, 375000
1, 302820, Tempo, 372671
1, 302830, Tempo, 371517
1, 302850, Tempo, 370370
1, 302880, Note_on_c, 0, 76, 0
1, 302880, Note_on_c, 0, 81, 0
1, 302880, Note_on_c, 0, 83, 0
1, 302880, Note_on_c, 0, 90, 54
1, 302880, Note_on_c, 0, 75, 50
1, 302910, Tempo, 371517
1, 302920, Tempo, 373832
1, 302960, Tempo, 370325
1, 302976, Note_on_c, 0, 75, 0
1, 302976, Note_on_c, 0, 76, 44
1, 303000, Tempo, 372694
1, 303000, Note_on_c, 0, 90, 0
1, 303000, Note_on_c, 0, 83, 48
1, 303000, Note_on_c, 0, 81, 48
1, 303040, Tempo, 376341
1, 303072, Note_on_c, 0, 76, 0
1, 303072, Note_on_c, 0, 75, 50
1, 303080, Tempo, 380035
1, 303120, Tempo, 382555
1, 303120, Note_on_c, 0, 81, 0
1, 303120, Note_on_c, 0, 83, 0
1, 303120, Note_on_c, 0, 90, 53
1, 303160, Tempo, 386374
1, 303168, Note_on_c, 0, 75, 0
1, 303168, Note_on_c, 0, 73, 52
1, 303200, Tempo, 390269
1, 303240, Tempo, 402468
1, 303240, Note_on_c, 0, 90, 0
1, 303240, Note_on_c, 0, 83, 49
1, 303240, Note_on_c, 0, 81, 49
1, 303264, Note_on_c, 0, 73, 0
1, 303264, Note_on_c, 0, 75, 47
1, 303360, Note_on_c, 0, 75, 0
1, 303360, Note_on_c, 0, 81, 0
1, 303360, Note_on_c, 0, 83, 0
1, 303360, Note_on_c, 0, 80, 72
1, 303360, Note_on_c, 0, 83, 72
1, 303360, Note_on_c, 0, 88, 72
1, 303360, Note_on_c, 0, 64, 48
1, 303360, Note_on_c, 0, 76, 57
1, 303369, Control_c, 0, 64, 0
1, 303380, Tempo, 383803
1, 304320, Tempo, 373902
1, 304320, Note_on_c, 0, 76, 0
1, 304320, Note_on_c, 0, 74, 45
1, 304320, Note_on_c, 0, 71, 38
1, 304320, Note_on_c, 0, 68, 38
1, 304800, Note_on_c, 0, 80, 0
1, 304800, Note_on_c, 0, 88, 0
1, 304800, Note_on_c, 0, 83, 0
1, 304800, Note_on_c, 0, 88, 58
1, 304920, Note_on_c, 0, 88, 0
1, 304920, Note_on_c, 0, 86, 57
1, 305040, Note_on_c, 0, 86, 0
1, 305040, Note_on_c, 0, 84, 56
1, 305160, Note_on_c, 0, 84, 0
1, 305160, Note_on_c, 0, 83, 55
1, 305280, Tempo, 370370
1, 305280, Note_on_c, 0, 83, 0
1, 305280, Note_on_c, 0, 74, 0
1, 305280, Note_on_c, 0, 68, 0
1, 305280, Note_on_c, 0, 71, 0
1, 305280, Note_on_c, 0, 84, 58
1, 305280, Note_on_c, 0, 69, 39
1, 305280, Note_on_c, 0, 72, 47
1, 305400, Note_on_c, 0, 84, 0
1, 305400, Note_on_c, 0, 83, 57
1, 305520, Note_on_c, 0, 83, 0
1, 305520, Note_on_c, 0, 81, 56
1, 305640, Note_on_c, 0, 81, 0
1, 305640, Note_on_c, 0, 80, 55
1, 305760, Tempo, 375000
1, 305760, Note_on_c, 0, 80, 0
1, 305760, Note_on_c, 0, 81, 51
1, 305880, Note_on_c, 0, 81, 0
1, 305880, Note_on_c, 0, 83, 52
1, 306000, Note_on_c, 0, 83, 0
1, 306000, Note_on_c, 0, 84, 53
1, 306120, Tempo, 395596
1, 306120, Note_on_c, 0, 84, 0
1, 306120, Note_on_c, 0, 86, 54
1, 306240, Tempo, 373902
1, 306240, Note_on_c, 0, 86, 0
1, 306240, Note_on_c, 0, 72, 0
1, 306240, Note_on_c, 0, 69, 0
1, 306240, Note_on_c, 0, 88, 56
1, 306240, Note_on_c, 0, 74, 46
1, 306240, Note_on_c, 0, 68, 39
1, 306240, Note_on_c, 0, 71, 39
1, 306360, Note_on_c, 0, 88, 0
1, 306360, Note_on_c, 0, 89, 57
1, 306480, Note_on_c, 0, 89, 0
1, 306480, Note_on_c, 0, 88, 57
1, 306600, Note_on_c, 0, 88, 0
1, 306600, Note_on_c, 0, 87, 56
1, 306680, Tempo, 373902
1, 306720, Note_on_c, 0, 87, 0
1, 306720, Note_on_c, 0, 88, 56
1, 306840, Note_on_c, 0, 88, 0
1, 306840, Note_on_c, 0, 86, 56
1, 306880, Tempo, 375117
1, 306960, Note_on_c, 0, 86, 0
1, 306960, Note_on_c, 0, 84, 56
1, 307080, Tempo, 376341
1, 307080, Note_on_c, 0, 84, 0
1, 307080, Note_on_c, 0, 83, 56
1, 307200, Note_on_c, 0, 83, 0
1, 307200, Note_on_c, 0, 71, 0
1, 307200, Note_on_c, 0, 64, 0
1, 307200, Note_on_c, 0, 74, 0
1, 307200, Note_on_c, 0, 68, 0
1, 307200, Note_on_c, 0, 84, 57
1, 307200, Note_on_c, 0, 72, 48
1, 307200, Note_on_c, 0, 69, 40
1, 307280, Tempo, 377572
1, 307320, Note_on_c, 0, 84, 0
1, 307320, Note_on_c, 0, 86, 57
1, 307440, Note_on_c, 0, 86, 0
1, 307440, Note_on_c, 0, 84, 57
1, 307480, Tempo, 378788
1, 307560, Note_on_c, 0, 84, 0
1, 307560, Note_on_c, 0, 83, 53
1, 307680, Tempo, 380035
1, 307680, Note_on_c, 0, 83, 0
1, 307680, Note_on_c, 0, 69, 0
1, 307680, Note_on_c, 0, 72, 0
1, 307680, Note_on_c, 0, 81, 56
1, 307800, Note_on_c, 0, 81, 0
1, 307800, Note_on_c, 0, 80, 52
1, 307880, Tempo, 381291
1, 307920, Note_on_c, 0, 80, 0
1, 307920, Note_on_c, 0, 81, 56
1, 308040, Note_on_c, 0, 81, 0
1, 308040, Note_on_c, 0, 83, 52
1, 308160, Tempo, 388954
1, 308160, Note_on_c, 0, 83, 0
1, 308160, Note_on_c, 0, 72, 45
1, 308160, Note_on_c, 0, 84, 59
1, 308160, Note_on_c, 0, 69, 47
1, 308160, Note_on_c, 0, 57, 39
1, 308160, Note_on_c, 0, 60, 39
1, 308160, Note_on_c, 0, 66, 39
1, 308412, Control_c, 0, 64, 127
1, 308640, Note_on_c, 0, 84, 0
1, 308640, Note_on_c, 0, 81, 52
1, 308880, Tempo, 401070
1, 308880, Note_on_c, 0, 81, 0
1, 308880, Note_on_c, 0, 78, 52
1, 309120, Tempo, 388954
1, 309120, Note_on_c, 0, 78, 0
1, 309120, Note_on_c, 0, 69, 0
1, 309120, Note_on_c, 0, 57, 0
1, 309120, Note_on_c, 0, 72, 0
1, 309120, Note_on_c, 0, 66, 0
1, 309120, Note_on_c, 0, 60, 0
1, 309120, Note_on_c, 0, 71, 45
1, 309120, Note_on_c, 0, 83, 57
1, 309120, Note_on_c, 0, 67, 46
1, 309120, Note_on_c, 0, 59, 39
1, 309120, Note_on_c, 0, 64, 39
1, 309139, Control_c, 0, 64, 0
1, 309235, Control_c, 0, 64, 127
1, 309600, Note_on_c, 0, 83, 0
1, 309600, Note_on_c, 0, 79, 52
1, 309840, Tempo, 402468
1, 309840, Note_on_c, 0, 79, 0
1, 309840, Note_on_c, 0, 76, 52
1, 310080, Tempo, 390269
1, 310080, Note_on_c, 0, 76, 0
1, 310080, Note_on_c, 0, 59, 0
1, 310080, Note_on_c, 0, 71, 0
1, 310080, Note_on_c, 0, 67, 0
1, 310080, Note_on_c, 0, 64, 0
1, 310080, Note_on_c, 0, 69, 45
1, 310080, Note_on_c, 0, 81, 57
1, 310080, Note_on_c, 0, 63, 37
1, 310080, Note_on_c, 0, 66, 44
1, 310080, Note_on_c, 0, 59, 37
1, 310093, Control_c, 0, 64, 0
1, 310229, Control_c, 0, 64, 127
1, 310560, Note_on_c, 0, 81, 0
1, 310560, Note_on_c, 0, 78, 52
1, 310800, Note_on_c, 0, 78, 0
1, 310800, Note_on_c, 0, 75, 52
1, 311040, Tempo, 383803
1, 311040, Note_on_c, 0, 75, 0
1, 311040, Note_on_c, 0, 66, 0
1, 311040, Note_on_c, 0, 69, 0
1, 311040, Note_on_c, 0, 63, 0
1, 311040, Note_on_c, 0, 59, 0
1, 311040, Note_on_c, 0, 76, 72
1, 311040, Note_on_c, 0, 64, 56
1, 311040, Note_on_c, 0, 52, 45
1, 311054, Control_c, 0, 64, 0
1, 312000, Tempo, 378549
1, 312000, Note_on_c, 0, 64, 0
1, 312000, Note_on_c, 0, 56, 38
1, 312000, Note_on_c, 0, 62, 45
1, 312000, Note_on_c, 0, 59, 38
1, 312480, Tempo, 373832
1, 312480, Note_on_c, 0, 76, 0
1, 312480, Note_on_c, 0, 76, 58
1, 312600, Note_on_c, 0, 76, 0
1, 312600, Note_on_c, 0, 74, 57
1, 312720, Note_on_c, 0, 74, 0
1, 312720, Note_on_c, 0, 72, 56
1, 312840, Note_on_c, 0, 72, 0
1, 312840, Note_on_c, 0, 71, 55
1, 312960, Note_on_c, 0, 71, 0
1, 312960, Note_on_c, 0, 62, 0
1, 312960, Note_on_c, 0, 59, 0
1, 312960, Note_on_c, 0, 56, 0
1, 312960, Note_on_c, 0, 72, 58
1, 312960, Note_on_c, 0, 57, 39
1, 312960, Note_on_c, 0, 60, 47
1, 313080, Note_on_c, 0, 72, 0
1, 313080, Note_on_c, 0, 71, 57
1, 313200, Note_on_c, 0, 71, 0
1, 313200, Note_on_c, 0, 69, 56
1, 313320, Note_on_c, 0, 69, 0
1, 313320, Note_on_c, 0, 68, 55
1, 313440, Note_on_c, 0, 68, 0
1, 313440, Note_on_c, 0, 69, 51
1, 313560, Note_on_c, 0, 69, 0
1, 313560, Note_on_c, 0, 71, 52
1, 313680, Note_on_c, 0, 71, 0
1, 313680, Note_on_c, 0, 72, 53
1, 313800, Tempo, 395596
1, 313800, Note_on_c, 0, 72, 0
1, 313800, Note_on_c, 0, 74, 54
1, 313920, Tempo, 373902
1, 313920, Note_on_c, 0, 74, 0
1, 313920, Note_on_c, 0, 60, 0
1, 313920, Note_on_c, 0, 57, 0
1, 313920, Note_on_c, 0, 76, 56
1, 313920, Note_on_c, 0, 62, 46
1, 313920, Note_on_c, 0, 59, 39
1, 313920, Note_on_c, 0, 56, 39
1, 314040, Note_on_c, 0, 76, 0
1, 314040, Note_on_c, 0, 77, 57
1, 314160, Note_on_c, 0, 77, 0
1, 314160, Note_on_c, 0, 76, 57
1, 314280, Note_on_c, 0, 76, 0
1, 314280, Note_on_c, 0, 75, 56
1, 314400, Tempo, 370325
1, 314400, Note_on_c, 0, 75, 0
1, 314400, Note_on_c, 0, 76, 56
1, 314520, Note_on_c, 0, 76, 0
1, 314520, Note_on_c, 0, 74, 56
1, 314560, Tempo, 371517
1, 314640, Note_on_c, 0, 74, 0
1, 314640, Note_on_c, 0, 72, 56
1, 314680, Tempo, 372694
1, 314760, Note_on_c, 0, 72, 0
1, 314760, Note_on_c, 0, 71, 56
1, 314800, Tempo, 373902
1, 314880, Note_on_c, 0, 71, 0
1, 314880, Note_on_c, 0, 56, 0
1, 314880, Note_on_c, 0, 52, 0
1, 314880, Note_on_c, 0, 62, 0
1, 314880, Note_on_c, 0, 59, 0
1, 314880, Note_on_c, 0, 72, 57
1, 314880, Note_on_c, 0, 60, 48
1, 314880, Note_on_c, 0, 57, 48
1, 314920, Tempo, 375117
1, 315000, Note_on_c, 0, 72, 0
1, 315000, Note_on_c, 0, 74, 57
1, 315040, Tempo, 376341
1, 315120, Note_on_c, 0, 74, 0
1, 315120, Note_on_c, 0, 72, 57
1, 315160, Tempo, 377572
1, 315240, Note_on_c, 0, 72, 0
1, 315240, Note_on_c, 0, 71, 53
1, 315280, Tempo, 378788
1, 315360, Note_on_c, 0, 71, 0
1, 315360, Note_on_c, 0, 57, 0
1, 315360, Note_on_c, 0, 60, 0
1, 315360, Note_on_c, 0, 69, 56
1, 315400, Tempo, 380035
1, 315480, Note_on_c, 0, 69, 0
1, 315480, Note_on_c, 0, 68, 52
1, 315520, Tempo, 381291
1, 315600, Note_on_c, 0, 68, 0
1, 315600, Note_on_c, 0, 69, 56
1, 315640, Tempo, 382555
1, 315720, Note_on_c, 0, 69, 0
1, 315720, Note_on_c, 0, 71, 52
1, 315760, Tempo, 383803
1, 315840, Tempo, 380952
1, 315840, Note_on_c, 0, 71, 0
1, 315840, Note_on_c, 0, 60, 45
1, 315840, Note_on_c, 0, 72, 59
1, 315840, Note_on_c, 0, 45, 39
1, 315840, Note_on_c, 0, 54, 39
1, 315840, Note_on_c, 0, 57, 47
1, 315840, Note_on_c, 0, 48, 39
1, 316035, Control_c, 0, 64, 127
1, 316320, Tempo, 385852
1, 316320, Note_on_c, 0, 72, 0
1, 316320, Note_on_c, 0, 69, 52
1, 316560, Tempo, 402468
1, 316560, Note_on_c, 0, 69, 0
1, 316560, Note_on_c, 0, 66, 52
1, 316800, Tempo, 384615
1, 316800, Note_on_c, 0, 66, 0
1, 316800, Note_on_c, 0, 45, 0
1, 316800, Note_on_c, 0, 54, 0
1, 316800, Note_on_c, 0, 60, 0
1, 316800, Note_on_c, 0, 48, 0
1, 316800, Note_on_c, 0, 57, 0
1, 316800, Note_on_c, 0, 59, 45
1, 316800, Note_on_c, 0, 71, 57
1, 316800, Note_on_c, 0, 55, 46
1, 316800, Note_on_c, 0, 47, 39
1, 316800, Note_on_c, 0, 52, 39
1, 316816, Control_c, 0, 64, 0
1, 316937, Control_c, 0, 64, 127
1, 317280, Tempo, 389610
1, 317280, Note_on_c, 0, 71, 0
1, 317280, Note_on_c, 0, 67, 52
1, 317520, Tempo, 402468
1, 317520, Note_on_c, 0, 67, 0
1, 317520, Note_on_c, 0, 64, 52
1, 317760, Tempo, 388954
1, 317760, Note_on_c, 0, 64, 0
1, 317760, Note_on_c, 0, 47, 0
1, 317760, Note_on_c, 0, 59, 0
1, 317760, Note_on_c, 0, 55, 0
1, 317760, Note_on_c, 0, 52, 0
1, 317760, Note_on_c, 0, 57, 45
1, 317760, Note_on_c, 0, 69, 57
1, 317760, Note_on_c, 0, 54, 44
1, 317760, Note_on_c, 0, 51, 37
1, 317760, Note_on_c, 0, 47, 37
1, 317779, Control_c, 0, 64, 0
1, 317920, Control_c, 0, 64, 127
1, 318240, Tempo, 394244
1, 318240, Note_on_c, 0, 69, 0
1, 318240, Note_on_c, 0, 66, 52
1, 318480, Note_on_c, 0, 66, 0
1, 318480, Note_on_c, 0, 63, 52
1, 318720, Tempo, 395596
1, 318720, Note_on_c, 0, 63, 0
1, 318720, Note_on_c, 0, 51, 0
1, 318720, Note_on_c, 0, 57, 0
1, 318720, Note_on_c, 0, 54, 0
1, 318720, Note_on_c, 0, 47, 0
1, 318720, Note_on_c, 0, 64, 55
1, 318720, Note_on_c, 0, 55, 44
1, 318720, Note_on_c, 0, 52, 37
1, 318731, Control_c, 0, 64, 0
1, 318960, Tempo, 384615
1, 318960, Note_on_c, 0, 52, 0
1, 318960, Note_on_c, 0, 55, 0
1, 318960, Note_on_c, 0, 64, 0
1, 319200, Tempo, 394244
1, 319200, Note_on_c, 0, 76, 68
1, 319200, Note_on_c, 0, 43, 42
1, 319200, Note_on_c, 0, 52, 51
1, 319440, Note_on_c, 0, 76, 0
1, 319440, Note_on_c, 0, 74, 63
1, 319680, Note_on_c, 0, 74, 0
1, 319680, Note_on_c, 0, 43, 0
1, 319680, Note_on_c, 0, 72, 66
1, 319680, Note_on_c, 0, 45, 42
1, 319920, Note_on_c, 0, 52, 0
1, 319920, Note_on_c, 0, 53, 49
1, 320160, Note_on_c, 0, 53, 0
1, 320160, Note_on_c, 0, 72, 0
1, 320160, Note_on_c, 0, 69, 61
1, 320160, Note_on_c, 0, 55, 51
1, 320400, Tempo, 408136
1, 320400, Note_on_c, 0, 55, 0
1, 320400, Note_on_c, 0, 69, 0
1, 320400, Note_on_c, 0, 65, 54
1, 320400, Note_on_c, 0, 57, 55
1, 320640, Tempo, 395596
1, 320640, Note_on_c, 0, 57, 0
1, 320640, Note_on_c, 0, 65, 0
1, 320640, Note_on_c, 0, 45, 0
1, 320640, Note_on_c, 0, 71, 51
1, 320640, Note_on_c, 0, 59, 41
1, 320640, Note_on_c, 0, 55, 35
1, 320640, Note_on_c, 0, 47, 35
1, 320880, Control_c, 0, 64, 127
1, 321120, Note_on_c, 0, 71, 0
1, 321120, Note_on_c, 0, 67, 46
1, 321360, Note_on_c, 0, 67, 0
1, 321360, Note_on_c, 0, 64, 46
1, 321600, Note_on_c, 0, 64, 0
1, 321600, Note_on_c, 0, 59, 0
1, 321600, Note_on_c, 0, 55, 0
1, 321600, Note_on_c, 0, 69, 51
1, 321600, Note_on_c, 0, 57, 39
1, 321600, Note_on_c, 0, 54, 33
1, 321620, Control_c, 0, 64, 0
1, 321760, Control_c, 0, 64, 127
1, 322080, Note_on_c, 0, 69, 0
1, 322080, Note_on_c, 0, 66, 46
1, 322320, Note_on_c, 0, 66, 0
1, 322320, Note_on_c, 0, 63, 46
1, 322560, Note_on_c, 0, 63, 0
1, 322560, Note_on_c, 0, 47, 0
1, 322560, Note_on_c, 0, 57, 0
1, 322560, Note_on_c, 0, 54, 0
1, 322560, Note_on_c, 0, 64, 55
1, 322560, Note_on_c, 0, 52, 37
1, 322560, Note_on_c, 0, 55, 44
1, 322560, Note_on_c, 0, 48, 37
1, 322566, Control_c, 0, 64, 0
1, 322800, Tempo, 389610
1, 322800, Note_on_c, 0, 48, 0
1, 322800, Note_on_c, 0, 64, 0
1, 322800, Note_on_c, 0, 52, 0
1, 322800, Note_on_c, 0, 55, 0
1, 323040, Tempo, 395596
1, 323040, Note_on_c, 0, 72, 67
1, 323040, Note_on_c, 0, 48, 51
1, 323040, Note_on_c, 0, 40, 42
1, 323280, Note_on_c, 0, 72, 0
1, 323280, Note_on_c, 0, 71, 63
1, 323520, Note_on_c, 0, 71, 0
1, 323520, Note_on_c, 0, 40, 0
1, 323520, Note_on_c, 0, 69, 66
1, 323520, Note_on_c, 0, 41, 42
1, 323760, Note_on_c, 0, 48, 0
1, 323760, Note_on_c, 0, 50, 49
1, 324000, Note_on_c, 0, 50, 0
1, 324000, Note_on_c, 0, 69, 0
1, 324000, Note_on_c, 0, 65, 61
1, 324000, Note_on_c, 0, 52, 51
1, 324240, Tempo, 412485
1, 324240, Note_on_c, 0, 52, 0
1, 324240, Note_on_c, 0, 65, 0
1, 324240, Note_on_c, 0, 62, 54
1, 324240, Note_on_c, 0, 53, 55
1, 324480, Tempo, 396957
1, 324480, Note_on_c, 0, 53, 0
1, 324480, Note_on_c, 0, 62, 0
1, 324480, Note_on_c, 0, 41, 0
1, 324480, Note_on_c, 0, 67, 51
1, 324480, Note_on_c, 0, 52, 35
1, 324480, Note_on_c, 0, 55, 41
1, 324480, Note_on_c, 0, 43, 35
1, 324593, Control_c, 0, 64, 127
1, 324960, Note_on_c, 0, 67, 0
1, 324960, Note_on_c, 0, 64, 46
1, 325200, Tempo, 409584
1, 325200, Note_on_c, 0, 64, 0
1, 325200, Note_on_c, 0, 60, 46
1, 325440, Tempo, 398327
1, 325440, Note_on_c, 0, 60, 0
1, 325440, Note_on_c, 0, 52, 0
1, 325440, Note_on_c, 0, 55, 0
1, 325440, Note_on_c, 0, 65, 51
1, 325440, Note_on_c, 0, 50, 33
1, 325440, Note_on_c, 0, 53, 39
1, 325459, Control_c, 0, 64, 0
1, 325723, Control_c, 0, 64, 127
1, 325920, Note_on_c, 0, 65, 0
1, 325920, Note_on_c, 0, 62, 46
1, 326160, Tempo, 411043
1, 326160, Note_on_c, 0, 62, 0
1, 326160, Note_on_c, 0, 59, 46
1, 326400, Marker_t, "Part 2"
1, 326400, Note_on_c, 0, 59, 0
1, 326400, Note_on_c, 0, 43, 0
1, 326400, Note_on_c, 0, 50, 0
1, 326400, Note_on_c, 0, 53, 0
1, 326400, Note_on_c, 0, 60, 55
1, 326400, Note_on_c, 0, 48, 37
1, 326400, Note_on_c, 0, 52, 44
1, 326418, Control_c, 0, 64, 0
1, 326640, Tempo, 387097
1, 326880, Tempo, 395596
1, 326880, Note_on_c, 0, 52, 0
1, 326880, Note_on_c, 0, 48, 0
1, 326880, Note_on_c, 0, 60, 0
1, 326880, Note_on_c, 0, 77, 69
1, 326880, Note_on_c, 0, 45, 42
1, 326880, Note_on_c, 0, 53, 51
1, 327120, Note_on_c, 0, 77, 0
1, 327120, Note_on_c, 0, 76, 64
1, 327360, Note_on_c, 0, 76, 0
1, 327360, Note_on_c, 0, 45, 0
1, 327360, Note_on_c, 0, 74, 66
1, 327360, Note_on_c, 0, 46, 42
1, 327600, Note_on_c, 0, 53, 0
1, 327600, Note_on_c, 0, 55, 49
1, 327840, Note_on_c, 0, 55, 0
1, 327840, Note_on_c, 0, 74, 0
1, 327840, Note_on_c, 0, 70, 61
1, 327840, Note_on_c, 0, 57, 51
1, 328080, Tempo, 412485
1, 328080, Note_on_c, 0, 57, 0
1, 328080, Note_on_c, 0, 70, 0
1, 328080, Note_on_c, 0, 67, 54
1, 328080, Note_on_c, 0, 58, 55
1, 328320, Tempo, 396957
1, 328320, Note_on_c, 0, 58, 0
1, 328320, Note_on_c, 0, 67, 0
1, 328320, Note_on_c, 0, 46, 0
1, 328320, Note_on_c, 0, 72, 51
1, 328320, Note_on_c, 0, 60, 41
1, 328320, Note_on_c, 0, 48, 35
1, 328320, Note_on_c, 0, 57, 35
1, 328546, Control_c, 0, 64, 127
1, 328800, Note_on_c, 0, 72, 0
1, 328800, Note_on_c, 0, 69, 46
1, 329040, Tempo, 409584
1, 329040, Note_on_c, 0, 69, 0
1, 329040, Note_on_c, 0, 65, 46
1, 329280, Tempo, 398327
1, 329280, Note_on_c, 0, 65, 0
1, 329280, Note_on_c, 0, 60, 0
1, 329280, Note_on_c, 0, 57, 0
1, 329280, Note_on_c, 0, 70, 51
1, 329280, Note_on_c, 0, 55, 33
1, 329280, Note_on_c, 0, 58, 39
1, 329292, Control_c, 0, 64, 0
1, 329760, Note_on_c, 0, 70, 0
1, 329760, Note_on_c, 0, 67, 46
1, 329760, Control_c, 0, 64, 127
1, 330000, Tempo, 411043
1, 330000, Note_on_c, 0, 67, 0
1, 330000, Note_on_c, 0, 64, 46
1, 330240, Note_on_c, 0, 64, 0
1, 330240, Note_on_c, 0, 48, 0
1, 330240, Note_on_c, 0, 55, 0
1, 330240, Note_on_c, 0, 58, 0
1, 330240, Note_on_c, 0, 65, 55
1, 330240, Note_on_c, 0, 50, 37
1, 330240, Note_on_c, 0, 53, 37
1, 330240, Note_on_c, 0, 57, 44
1, 330250, Control_c, 0, 64, 0
1, 330480, Tempo, 413964
1, 330480, Note_on_c, 0, 65, 0
1, 330720, Tempo, 395596
1, 330720, Note_on_c, 0, 50, 0
1, 330720, Note_on_c, 0, 53, 0
1, 330720, Note_on_c, 0, 57, 0
1, 330720, Note_on_c, 0, 65, 68
1, 330720, Note_on_c, 0, 33, 42
1, 330720, Note_on_c, 0, 41, 51
1, 330960, Note_on_c, 0, 65, 0
1, 330960, Note_on_c, 0, 64, 63
1, 331200, Note_on_c, 0, 64, 0
1, 331200, Note_on_c, 0, 33, 0
1, 331200, Note_on_c, 0, 62, 66
1, 331200, Note_on_c, 0, 34, 42
1, 331440, Note_on_c, 0, 41, 0
1, 331440, Note_on_c, 0, 43, 49
1, 331680, Note_on_c, 0, 43, 0
1, 331680, Note_on_c, 0, 62, 0
1, 331680, Note_on_c, 0, 58, 61
1, 331680, Note_on_c, 0, 45, 51
1, 331920, Tempo, 412485
1, 331920, Note_on_c, 0, 45, 0
1, 331920, Note_on_c, 0, 58, 0
1, 331920, Note_on_c, 0, 55, 54
1, 331920, Note_on_c, 0, 46, 55
1, 332160, Tempo, 396957
1, 332160, Note_on_c, 0, 46, 0
1, 332160, Note_on_c, 0, 55, 0
1, 332160, Note_on_c, 0, 34, 0
1, 332160, Note_on_c, 0, 60, 51
1, 332160, Note_on_c, 0, 48, 41
1, 332160, Note_on_c, 0, 36, 35
1, 332160, Note_on_c, 0, 45, 35
1, 332330, Control_c, 0, 64, 127
1, 332640, Note_on_c, 0, 60, 0
1, 332640, Note_on_c, 0, 57, 46
1, 332880, Tempo, 409584
1, 332880, Note_on_c, 0, 57, 0
1, 332880, Note_on_c, 0, 53, 46
1, 333120, Tempo, 398327
1, 333120, Note_on_c, 0, 53, 0
1, 333120, Note_on_c, 0, 48, 0
1, 333120, Note_on_c, 0, 45, 0
1, 333120, Note_on_c, 0, 58, 51
1, 333120, Note_on_c, 0, 43, 33
1, 333120, Note_on_c, 0, 46, 39
1, 333132, Control_c, 0, 64, 0
1, 333360, Control_c, 0, 64, 127
1, 333600, Note_on_c, 0, 58, 0
1, 333600, Note_on_c, 0, 55, 46
1, 333840, Tempo, 411043
1, 333840, Note_on_c, 0, 55, 0
1, 333840, Note_on_c, 0, 52, 46
1, 334080, Tempo, 373902
1, 334080, Note_on_c, 0, 52, 0
1, 334080, Note_on_c, 0, 36, 0
1, 334080, Note_on_c, 0, 43, 0
1, 334080, Note_on_c, 0, 46, 0
1, 334080, Note_on_c, 0, 45, 33
1, 334080, Note_on_c, 0, 53, 40
1, 334080, Control_c, 0, 91, 127
1, 334080, Text_t, "bdca426d104a26ac9dcb070447587523"
1, 334080, Note_on_c, 0, 41, 28
1, 334080, Note_on_c, 0, 29, 25
1, 334095, Control_c, 0, 64, 0
1, 334200, Note_on_c, 0, 29, 0
1, 334200, Note_on_c, 0, 41, 0
1, 334200, Note_on_c, 0, 45, 0
1, 334320, Note_on_c, 0, 53, 0
1, 334320, Note_on_c, 0, 41, 28
1, 334320, Note_on_c, 0, 45, 33
1, 334320, Note_on_c, 0, 36, 26
1, 334320, Note_on_c, 0, 29, 22
1, 334440, Note_on_c, 0, 29, 0
1, 334440, Note_on_c, 0, 41, 0
1, 334440, Note_on_c, 0, 45, 0
1, 334440, Note_on_c, 0, 36, 0
1, 334560, Tempo, 371517
1, 334560, Note_on_c, 0, 41, 28
1, 334560, Note_on_c, 0, 45, 33
1, 334560, Note_on_c, 0, 36, 26
1, 334560, Note_on_c, 0, 29, 22
1, 334680, Note_on_c, 0, 29, 0
1, 334680, Note_on_c, 0, 41, 0
1, 334680, Note_on_c, 0, 45, 0
1, 334680, Note_on_c, 0, 36, 0
1, 334800, Note_on_c, 0, 41, 28
1, 334800, Note_on_c, 0, 45, 34
1, 334800, Note_on_c, 0, 36, 27
1, 334800, Note_on_c, 0, 29, 22
1, 334920, Note_on_c, 0, 29, 0
1, 334920, Note_on_c, 0, 41, 0
1, 334920, Note_on_c, 0, 45, 0
1, 334920, Note_on_c, 0, 36, 0
1, 335040, Note_on_c, 0, 41, 28
1, 335040, Note_on_c, 0, 45, 34
1, 335040, Note_on_c, 0, 36, 27
1, 335040, Note_on_c, 0, 29, 22
1, 335060, Tempo, 375117
1, 335160, Note_on_c, 0, 29, 0
1, 335160, Note_on_c, 0, 41, 0
1, 335160, Note_on_c, 0, 45, 0
1, 335160, Note_on_c, 0, 36, 0
1, 335280, Note_on_c, 0, 41, 28
1, 335280, Note_on_c, 0, 45, 34
1, 335280, Note_on_c, 0, 36, 28
1, 335280, Note_on_c, 0, 29, 23
1, 335400, Note_on_c, 0, 29, 0
1, 335400, Note_on_c, 0, 41, 0
1, 335400, Note_on_c, 0, 45, 0
1, 335400, Note_on_c, 0, 36, 0
1, 335520, Tempo, 372694
1, 335520, Note_on_c, 0, 41, 29
1, 335520, Note_on_c, 0, 45, 35
1, 335520, Note_on_c, 0, 36, 28
1, 335520, Note_on_c, 0, 29, 23
1, 335640, Note_on_c, 0, 29, 0
1, 335640, Note_on_c, 0, 41, 0
1, 335640, Note_on_c, 0, 45, 0
1, 335640, Note_on_c, 0, 36, 0
1, 335760, Note_on_c, 0, 41, 29
1, 335760, Note_on_c, 0, 45, 35
1, 335760, Note_on_c, 0, 36, 29
1, 335760, Note_on_c, 0, 29, 24
1, 335880, Note_on_c, 0, 29, 0
1, 335880, Note_on_c, 0, 41, 0
1, 335880, Note_on_c, 0, 45, 0
1, 335880, Note_on_c, 0, 36, 0
1, 336000, Note_on_c, 0, 41, 30
1, 336000, Note_on_c, 0, 45, 36
1, 336000, Note_on_c, 0, 29, 25
1, 336000, Note_on_c, 0, 36, 30
1, 336040, Tempo, 373902
1, 336120, Note_on_c, 0, 36, 0
1, 336120, Note_on_c, 0, 41, 0
1, 336120, Note_on_c, 0, 45, 0
1, 336120, Note_on_c, 0, 29, 0
1, 336240, Note_on_c, 0, 41, 30
1, 336240, Note_on_c, 0, 45, 36
1, 336240, Note_on_c, 0, 29, 22
1, 336240, Note_on_c, 0, 36, 27
1, 336360, Note_on_c, 0, 36, 0
1, 336360, Note_on_c, 0, 41, 0
1, 336360, Note_on_c, 0, 45, 0
1, 336360, Note_on_c, 0, 29, 0
1, 336480, Tempo, 372694
1, 336480, Note_on_c, 0, 41, 31
1, 336480, Note_on_c, 0, 45, 37
1, 336480, Note_on_c, 0, 29, 23
1, 336480, Note_on_c, 0, 36, 28
1, 336600, Note_on_c, 0, 36, 0
1, 336600, Note_on_c, 0, 41, 0
1, 336600, Note_on_c, 0, 45, 0
1, 336600, Note_on_c, 0, 29, 0
1, 336720, Note_on_c, 0, 41, 32
1, 336720, Note_on_c, 0, 45, 38
1, 336720, Note_on_c, 0, 29, 24
1, 336720, Note_on_c, 0, 36, 29
1, 336840, Note_on_c, 0, 36, 0
1, 336840, Note_on_c, 0, 41, 0
1, 336840, Note_on_c, 0, 45, 0
1, 336840, Note_on_c, 0, 29, 0
1, 336960, Tempo, 373902
1, 336960, Note_on_c, 0, 41, 33
1, 336960, Note_on_c, 0, 45, 39
1, 336960, Note_on_c, 0, 29, 25
1, 336960, Note_on_c, 0, 36, 30
1, 337080, Note_on_c, 0, 36, 0
1, 337080, Note_on_c, 0, 41, 0
1, 337080, Note_on_c, 0, 45, 0
1, 337080, Note_on_c, 0, 29, 0
1, 337200, Note_on_c, 0, 41, 34
1, 337200, Note_on_c, 0, 45, 40
1, 337200, Note_on_c, 0, 29, 25
1, 337200, Note_on_c, 0, 36, 30
1, 337320, Note_on_c, 0, 36, 0
1, 337320, Note_on_c, 0, 41, 0
1, 337320, Note_on_c, 0, 45, 0
1, 337320, Note_on_c, 0, 29, 0
1, 337440, Note_on_c, 0, 43, 34
1, 337440, Note_on_c, 0, 47, 40
1, 337440, Note_on_c, 0, 29, 25
1, 337440, Note_on_c, 0, 38, 30
1, 337560, Note_on_c, 0, 38, 0
1, 337560, Note_on_c, 0, 43, 0
1, 337560, Note_on_c, 0, 47, 0
1, 337560, Note_on_c, 0, 29, 0
1, 337680, Note_on_c, 0, 43, 34
1, 337680, Note_on_c, 0, 47, 40
1, 337680, Note_on_c, 0, 29, 25
1, 337680, Note_on_c, 0, 38, 30
1, 337800, Note_on_c, 0, 38, 0
1, 337800, Note_on_c, 0, 43, 0
1, 337800, Note_on_c, 0, 47, 0
1, 337800, Note_on_c, 0, 29, 0
1, 337920, Tempo, 373902
1, 337920, Note_on_c, 0, 48, 46
1, 337920, Note_on_c, 0, 40, 25
1, 337920, Note_on_c, 0, 43, 30
1, 338100, Note_on_c, 0, 43, 0
1, 338100, Note_on_c, 0, 40, 0
1, 338160, Note_on_c, 0, 40, 25
1, 338160, Note_on_c, 0, 43, 30
1, 338340, Note_on_c, 0, 43, 0
1, 338340, Note_on_c, 0, 40, 0
1, 338400, Note_on_c, 0, 40, 25
1, 338400, Note_on_c, 0, 43, 30
1, 338580, Note_on_c, 0, 43, 0
1, 338580, Note_on_c, 0, 40, 0
1, 338640, Note_on_c, 0, 48, 0
1, 338640, Note_on_c, 0, 52, 40
1, 338640, Note_on_c, 0, 40, 25
1, 338640, Note_on_c, 0, 43, 30
1, 338760, Note_on_c, 0, 52, 0
1, 338760, Note_on_c, 0, 50, 40
1, 338820, Note_on_c, 0, 43, 0
1, 338820, Note_on_c, 0, 40, 0
1, 338880, Note_on_c, 0, 50, 0
1, 338880, Note_on_c, 0, 48, 45
1, 338880, Note_on_c, 0, 40, 25
1, 338880, Note_on_c, 0, 43, 30
1, 339000, Note_on_c, 0, 48, 0
1, 339060, Note_on_c, 0, 43, 0
1, 339060, Note_on_c, 0, 40, 0
1, 339120, Note_on_c, 0, 40, 25
1, 339120, Note_on_c, 0, 43, 30
1, 339300, Note_on_c, 0, 43, 0
1, 339300, Note_on_c, 0, 40, 0
1, 339360, Note_on_c, 0, 40, 25
1, 339360, Note_on_c, 0, 43, 30
1, 339540, Note_on_c, 0, 43, 0
1, 339540, Note_on_c, 0, 40, 0
1, 339600, Tempo, 383803
1, 339600, Note_on_c, 0, 40, 25
1, 339600, Note_on_c, 0, 43, 30
1, 339780, Note_on_c, 0, 43, 0
1, 339780, Note_on_c, 0, 40, 0
1, 339780, Note_on_c, 0, 78, 46
1, 339840, Tempo, 373902
1, 339840, Note_on_c, 0, 78, 0
1, 339840, Note_on_c, 0, 79, 57
1, 339840, Note_on_c, 0, 39, 25
1, 339840, Note_on_c, 0, 43, 30
1, 340020, Note_on_c, 0, 43, 0
1, 340020, Note_on_c, 0, 39, 0
1, 340080, Note_on_c, 0, 39, 25
1, 340080, Note_on_c, 0, 43, 30
1, 340260, Note_on_c, 0, 43, 0
1, 340260, Note_on_c, 0, 39, 0
1, 340320, Note_on_c, 0, 39, 25
1, 340320, Note_on_c, 0, 43, 30
1, 340440, Note_on_c, 0, 79, 0
1, 340440, Note_on_c, 0, 77, 48
1, 340500, Note_on_c, 0, 43, 0
1, 340500, Note_on_c, 0, 39, 0
1, 340560, Note_on_c, 0, 77, 0
1, 340560, Note_on_c, 0, 75, 47
1, 340560, Note_on_c, 0, 39, 25
1, 340560, Note_on_c, 0, 43, 30
1, 340680, Note_on_c, 0, 75, 0
1, 340680, Note_on_c, 0, 74, 45
1, 340740, Note_on_c, 0, 43, 0
1, 340740, Note_on_c, 0, 39, 0
1, 340800, Tempo, 373902
1, 340800, Note_on_c, 0, 74, 0
1, 340800, Note_on_c, 0, 72, 44
1, 340800, Note_on_c, 0, 39, 25
1, 340800, Note_on_c, 0, 43, 30
1, 340980, Note_on_c, 0, 43, 0
1, 340980, Note_on_c, 0, 39, 0
1, 341040, Note_on_c, 0, 72, 0
1, 341040, Note_on_c, 0, 39, 25
1, 341040, Note_on_c, 0, 43, 30
1, 341220, Note_on_c, 0, 43, 0
1, 341220, Note_on_c, 0, 39, 0
1, 341280, Note_on_c, 0, 39, 25
1, 341280, Note_on_c, 0, 43, 30
1, 341460, Note_on_c, 0, 43, 0
1, 341460, Note_on_c, 0, 39, 0
1, 341520, Tempo, 381291
1, 341520, Note_on_c, 0, 39, 25
1, 341520, Note_on_c, 0, 43, 30
1, 341700, Note_on_c, 0, 43, 0
1, 341700, Note_on_c, 0, 39, 0
1, 341760, Tempo, 373902
1, 341760, Note_on_c, 0, 54, 46
1, 341760, Note_on_c, 0, 38, 25
1, 341760, Note_on_c, 0, 45, 30
1, 341940, Note_on_c, 0, 45, 0
1, 341940, Note_on_c, 0, 38, 0
1, 342000, Note_on_c, 0, 38, 25
1, 342000, Note_on_c, 0, 45, 30
1, 342180, Note_on_c, 0, 45, 0
1, 342180, Note_on_c, 0, 38, 0
1, 342240, Note_on_c, 0, 38, 25
1, 342240, Note_on_c, 0, 45, 30
1, 342420, Note_on_c, 0, 45, 0
1, 342420, Note_on_c, 0, 38, 0
1, 342480, Tempo, 367963
1, 342480, Note_on_c, 0, 54, 0
1, 342480, Note_on_c, 0, 57, 40
1, 342480, Note_on_c, 0, 38, 25
1, 342480, Note_on_c, 0, 45, 30
1, 342600, Note_on_c, 0, 57, 0
1, 342600, Note_on_c, 0, 55, 40
1, 342660, Note_on_c, 0, 45, 0
1, 342660, Note_on_c, 0, 38, 0
1, 342720, Tempo, 382166
1, 342720, Note_on_c, 0, 55, 0
1, 342720, Note_on_c, 0, 54, 45
1, 342720, Note_on_c, 0, 38, 25
1, 342720, Note_on_c, 0, 45, 30
1, 342840, Note_on_c, 0, 54, 0
1, 342900, Note_on_c, 0, 45, 0
1, 342900, Note_on_c, 0, 38, 0
1, 342960, Note_on_c, 0, 38, 25
1, 342960, Note_on_c, 0, 45, 30
1, 343140, Note_on_c, 0, 45, 0
1, 343140, Note_on_c, 0, 38, 0
1, 343200, Note_on_c, 0, 38, 25
1, 343200, Note_on_c, 0, 45, 30
1, 343380, Note_on_c, 0, 45, 0
1, 343380, Note_on_c, 0, 38, 0
1, 343440, Tempo, 390879
1, 343440, Note_on_c, 0, 38, 25
1, 343440, Note_on_c, 0, 45, 30
1, 343620, Note_on_c, 0, 45, 0
1, 343620, Note_on_c, 0, 38, 0
1, 343620, Note_on_c, 0, 86, 46
1, 343680, Tempo, 373902
1, 343680, Note_on_c, 0, 86, 0
1, 343680, Note_on_c, 0, 87, 57
1, 343680, Note_on_c, 0, 42, 25
1, 343680, Note_on_c, 0, 50, 30
1, 343860, Note_on_c, 0, 50, 0
1, 343860, Note_on_c, 0, 42, 0
1, 343920, Note_on_c, 0, 42, 25
1, 343920, Note_on_c, 0, 50, 30
1, 344100, Note_on_c, 0, 50, 0
1, 344100, Note_on_c, 0, 42, 0
1, 344160, Tempo, 369140
1, 344160, Note_on_c, 0, 42, 25
1, 344160, Note_on_c, 0, 50, 30
1, 344280, Note_on_c, 0, 87, 0
1, 344280, Note_on_c, 0, 86, 48
1, 344340, Note_on_c, 0, 50, 0
1, 344340, Note_on_c, 0, 42, 0
1, 344400, Note_on_c, 0, 86, 0
1, 344400, Note_on_c, 0, 84, 47
1, 344400, Note_on_c, 0, 42, 25
1, 344400, Note_on_c, 0, 50, 30
1, 344520, Note_on_c, 0, 84, 0
1, 344520, Note_on_c, 0, 82, 45
1, 344580, Note_on_c, 0, 50, 0
1, 344580, Note_on_c, 0, 42, 0
1, 344640, Tempo, 379747
1, 344640, Note_on_c, 0, 82, 0
1, 344640, Note_on_c, 0, 81, 44
1, 344640, Note_on_c, 0, 42, 25
1, 344640, Note_on_c, 0, 50, 30
1, 344820, Note_on_c, 0, 50, 0
1, 344820, Note_on_c, 0, 42, 0
1, 344880, Note_on_c, 0, 81, 0
1, 344880, Note_on_c, 0, 42, 25
1, 344880, Note_on_c, 0, 50, 30
1, 345060, Note_on_c, 0, 50, 0
1, 345060, Note_on_c, 0, 42, 0
1, 345120, Note_on_c, 0, 42, 25
1, 345120, Note_on_c, 0, 50, 30
1, 345300, Note_on_c, 0, 50, 0
1, 345300, Note_on_c, 0, 42, 0
1, 345360, Tempo, 388350
1, 345360, Note_on_c, 0, 42, 25
1, 345360, Note_on_c, 0, 50, 30
1, 345540, Note_on_c, 0, 50, 0
1, 345540, Note_on_c, 0, 42, 0
1, 345600, Tempo, 373902
1, 345600, Note_on_c, 0, 58, 57
1, 345600, Note_on_c, 0, 43, 30
1, 345720, Note_on_c, 0, 50, 26
1, 345765, Note_on_c, 0, 43, 0
1, 345840, Tempo, 365653
1, 345840, Note_on_c, 0, 50, 0
1, 345840, Note_on_c, 0, 58, 0
1, 345840, Note_on_c, 0, 62, 48
1, 345840, Note_on_c, 0, 43, 30
1, 345960, Note_on_c, 0, 62, 0
1, 345960, Note_on_c, 0, 60, 48
1, 345960, Note_on_c, 0, 50, 27
1, 346005, Note_on_c, 0, 43, 0
1, 346080, Tempo, 373902
1, 346080, Note_on_c, 0, 50, 0
1, 346080, Note_on_c, 0, 60, 0
1, 346080, Note_on_c, 0, 58, 51
1, 346080, Note_on_c, 0, 43, 30
1, 346200, Note_on_c, 0, 50, 26
1, 346245, Note_on_c, 0, 43, 0
1, 346320, Note_on_c, 0, 50, 0
1, 346320, Note_on_c, 0, 58, 0
1, 346320, Note_on_c, 0, 43, 30
1, 346440, Note_on_c, 0, 50, 25
1, 346485, Note_on_c, 0, 43, 0
1, 346560, Tempo, 367963
1, 346560, Note_on_c, 0, 50, 0
1, 346560, Note_on_c, 0, 84, 54
1, 346560, Note_on_c, 0, 45, 31
1, 346680, Note_on_c, 0, 84, 0
1, 346680, Note_on_c, 0, 82, 52
1, 346680, Note_on_c, 0, 50, 26
1, 346725, Note_on_c, 0, 45, 0
1, 346800, Note_on_c, 0, 50, 0
1, 346800, Note_on_c, 0, 82, 0
1, 346800, Note_on_c, 0, 81, 50
1, 346800, Note_on_c, 0, 45, 31
1, 346920, Note_on_c, 0, 81, 0
1, 346920, Note_on_c, 0, 79, 48
1, 346920, Note_on_c, 0, 50, 27
1, 346965, Note_on_c, 0, 45, 0
1, 347040, Tempo, 373902
1, 347040, Note_on_c, 0, 50, 0
1, 347040, Note_on_c, 0, 79, 0
1, 347040, Note_on_c, 0, 78, 51
1, 347040, Note_on_c, 0, 45, 31
1, 347160, Note_on_c, 0, 50, 28
1, 347205, Note_on_c, 0, 45, 0
1, 347280, Note_on_c, 0, 50, 0
1, 347280, Note_on_c, 0, 78, 0
1, 347280, Note_on_c, 0, 45, 31
1, 347400, Note_on_c, 0, 50, 27
1, 347445, Note_on_c, 0, 45, 0
1, 347520, Tempo, 373902
1, 347520, Note_on_c, 0, 50, 0
1, 347520, Note_on_c, 0, 67, 57
1, 347520, Note_on_c, 0, 46, 30
1, 347640, Note_on_c, 0, 50, 26
1, 347685, Note_on_c, 0, 46, 0
1, 347760, Tempo, 365653
1, 347760, Note_on_c, 0, 50, 0
1, 347760, Note_on_c, 0, 67, 0
1, 347760, Note_on_c, 0, 70, 48
1, 347760, Note_on_c, 0, 46, 30
1, 347880, Note_on_c, 0, 70, 0
1, 347880, Note_on_c, 0, 69, 48
1, 347880, Note_on_c, 0, 50, 27
1, 347925, Note_on_c, 0, 46, 0
1, 348000, Tempo, 373902
1, 348000, Note_on_c, 0, 50, 0
1, 348000, Note_on_c, 0, 69, 0
1, 348000, Note_on_c, 0, 67, 51
1, 348000, Note_on_c, 0, 46, 30
1, 348120, Note_on_c, 0, 50, 26
1, 348165, Note_on_c, 0, 46, 0
1, 348240, Note_on_c, 0, 50, 0
1, 348240, Note_on_c, 0, 67, 0
1, 348240, Note_on_c, 0, 46, 30
1, 348360, Tempo, 396957
1, 348360, Note_on_c, 0, 50, 25
1, 348405, Note_on_c, 0, 46, 0
1, 348480, Tempo, 367963
1, 348480, Note_on_c, 0, 50, 0
1, 348480, Note_on_c, 0, 87, 54
1, 348480, Note_on_c, 0, 42, 31
1, 348600, Note_on_c, 0, 87, 0
1, 348600, Note_on_c, 0, 86, 52
1, 348600, Note_on_c, 0, 50, 26
1, 348645, Note_on_c, 0, 42, 0
1, 348720, Note_on_c, 0, 50, 0
1, 348720, Note_on_c, 0, 86, 0
1, 348720, Note_on_c, 0, 84, 50
1, 348720, Note_on_c, 0, 42, 31
1, 348840, Note_on_c, 0, 84, 0
1, 348840, Note_on_c, 0, 82, 48
1, 348840, Note_on_c, 0, 50, 27
1, 348885, Note_on_c, 0, 42, 0
1, 348960, Tempo, 373902
1, 348960, Note_on_c, 0, 50, 0
1, 348960, Note_on_c, 0, 82, 0
1, 348960, Note_on_c, 0, 81, 51
1, 348960, Note_on_c, 0, 42, 31
1, 349080, Note_on_c, 0, 50, 28
1, 349125, Note_on_c, 0, 42, 0
1, 349200, Note_on_c, 0, 50, 0
1, 349200, Note_on_c, 0, 81, 0
1, 349200, Note_on_c, 0, 42, 31
1, 349320, Note_on_c, 0, 50, 27
1, 349365, Note_on_c, 0, 42, 0
1, 349440, Tempo, 373902
1, 349440, Note_on_c, 0, 50, 0
1, 349440, Note_on_c, 0, 58, 59
1, 349440, Note_on_c, 0, 43, 31
1, 349560, Note_on_c, 0, 50, 27
1, 349605, Note_on_c, 0, 43, 0
1, 349680, Tempo, 365653
1, 349680, Note_on_c, 0, 50, 0
1, 349680, Note_on_c, 0, 58, 0
1, 349680, Note_on_c, 0, 62, 50
1, 349680, Note_on_c, 0, 43, 31
1, 349800, Note_on_c, 0, 62, 0
1, 349800, Note_on_c, 0, 60, 51
1, 349800, Note_on_c, 0, 50, 29
1, 349845, Note_on_c, 0, 43, 0
1, 349920, Tempo, 373902
1, 349920, Note_on_c, 0, 50, 0
1, 349920, Note_on_c, 0, 60, 0
1, 349920, Note_on_c, 0, 58, 56
1, 349920, Note_on_c, 0, 43, 32
1, 350040, Note_on_c, 0, 50, 28
1, 350085, Note_on_c, 0, 43, 0
1, 350160, Note_on_c, 0, 50, 0
1, 350160, Note_on_c, 0, 58, 0
1, 350160, Note_on_c, 0, 43, 34
1, 350280, Note_on_c, 0, 50, 29
1, 350325, Note_on_c, 0, 43, 0
1, 350400, Tempo, 367963
1, 350400, Note_on_c, 0, 50, 0
1, 350400, Note_on_c, 0, 84, 63
1, 350400, Note_on_c, 0, 45, 36
1, 350520, Note_on_c, 0, 84, 0
1, 350520, Note_on_c, 0, 82, 63
1, 350520, Note_on_c, 0, 50, 31
1, 350565, Note_on_c, 0, 45, 0
1, 350640, Note_on_c, 0, 50, 0
1, 350640, Note_on_c, 0, 82, 0
1, 350640, Note_on_c, 0, 81, 62
1, 350640, Note_on_c, 0, 45, 38
1, 350760, Note_on_c, 0, 81, 0
1, 350760, Note_on_c, 0, 79, 60
1, 350760, Note_on_c, 0, 50, 35
1, 350805, Note_on_c, 0, 45, 0
1, 350880, Tempo, 373902
1, 350880, Note_on_c, 0, 50, 0
1, 350880, Note_on_c, 0, 79, 0
1, 350880, Note_on_c, 0, 78, 64
1, 350880, Note_on_c, 0, 45, 40
1, 351000, Note_on_c, 0, 50, 37
1, 351045, Note_on_c, 0, 45, 0
1, 351120, Note_on_c, 0, 50, 0
1, 351120, Note_on_c, 0, 78, 0
1, 351120, Note_on_c, 0, 45, 43
1, 351240, Note_on_c, 0, 50, 38
1, 351285, Note_on_c, 0, 45, 0
1, 351360, Tempo, 367963
1, 351360, Note_on_c, 0, 50, 0
1, 351360, Note_on_c, 0, 74, 73
1, 351360, Note_on_c, 0, 46, 45
1, 351480, Note_on_c, 0, 74, 0
1, 351480, Note_on_c, 0, 72, 71
1, 351480, Note_on_c, 0, 50, 39
1, 351525, Note_on_c, 0, 46, 0
1, 351600, Note_on_c, 0, 50, 0
1, 351600, Note_on_c, 0, 72, 0
1, 351600, Note_on_c, 0, 70, 71
1, 351600, Note_on_c, 0, 46, 48
1, 351720, Note_on_c, 0, 70, 0
1, 351720, Note_on_c, 0, 69, 67
1, 351720, Note_on_c, 0, 50, 42
1, 351765, Note_on_c, 0, 46, 0
1, 351840, Tempo, 392157
1, 351840, Note_on_c, 0, 50, 0
1, 351840, Note_on_c, 0, 69, 0
1, 351840, Note_on_c, 0, 67, 74
1, 351840, Note_on_c, 0, 46, 50
1, 351960, Note_on_c, 0, 55, 46
1, 352005, Note_on_c, 0, 46, 0
1, 352080, Tempo, 404040
1, 352080, Note_on_c, 0, 55, 0
1, 352080, Note_on_c, 0, 67, 0
1, 352080, Note_on_c, 0, 46, 54
1, 352200, Tempo, 423042
1, 352200, Note_on_c, 0, 55, 51
1, 352245, Note_on_c, 0, 46, 0
1, 352320, Tempo, 367963
1, 352320, Note_on_c, 0, 55, 0
1, 352320, Note_on_c, 0, 80, 87
1, 352320, Note_on_c, 0, 47, 64
1, 352440, Note_on_c, 0, 80, 0
1, 352440, Note_on_c, 0, 79, 83
1, 352440, Note_on_c, 0, 55, 53
1, 352485, Note_on_c, 0, 47, 0
1, 352560, Note_on_c, 0, 55, 0
1, 352560, Note_on_c, 0, 79, 0
1, 352560, Note_on_c, 0, 77, 81
1, 352560, Note_on_c, 0, 47, 64
1, 352680, Note_on_c, 0, 77, 0
1, 352680, Note_on_c, 0, 75, 78
1, 352680, Note_on_c, 0, 55, 56
1, 352725, Note_on_c, 0, 47, 0
1, 352800, Tempo, 373902
1, 352800, Note_on_c, 0, 55, 0
1, 352800, Note_on_c, 0, 75, 0
1, 352800, Note_on_c, 0, 74, 83
1, 352800, Note_on_c, 0, 47, 66
1, 352920, Note_on_c, 0, 55, 59
1, 352965, Note_on_c, 0, 47, 0
1, 353040, Note_on_c, 0, 55, 0
1, 353040, Note_on_c, 0, 74, 0
1, 353040, Note_on_c, 0, 47, 66
1, 353160, Note_on_c, 0, 55, 57
1, 353205, Note_on_c, 0, 47, 0
1, 353280, Tempo, 373902
1, 353280, Note_on_c, 0, 55, 0
1, 353280, Note_on_c, 0, 63, 57
1, 353280, Note_on_c, 0, 48, 30
1, 353400, Note_on_c, 0, 55, 26
1, 353445, Note_on_c, 0, 48, 0
1, 353520, Tempo, 365653
1, 353520, Note_on_c, 0, 55, 0
1, 353520, Note_on_c, 0, 63, 0
1, 353520, Note_on_c, 0, 67, 48
1, 353520, Note_on_c, 0, 48, 30
1, 353640, Note_on_c, 0, 67, 0
1, 353640, Note_on_c, 0, 65, 48
1, 353640, Note_on_c, 0, 55, 27
1, 353685, Note_on_c, 0, 48, 0
1, 353760, Tempo, 373902
1, 353760, Note_on_c, 0, 55, 0
1, 353760, Note_on_c, 0, 65, 0
1, 353760, Note_on_c, 0, 63, 51
1, 353760, Note_on_c, 0, 48, 30
1, 353880, Note_on_c, 0, 55, 26
1, 353925, Note_on_c, 0, 48, 0
1, 354000, Note_on_c, 0, 55, 0
1, 354000, Note_on_c, 0, 63, 0
1, 354000, Note_on_c, 0, 48, 30
1, 354120, Note_on_c, 0, 55, 25
1, 354165, Note_on_c, 0, 48, 0
1, 354240, Tempo, 367963
1, 354240, Note_on_c, 0, 55, 0
1, 354240, Note_on_c, 0, 77, 54
1, 354240, Note_on_c, 0, 50, 31
1, 354360, Note_on_c, 0, 77, 0
1, 354360, Note_on_c, 0, 75, 52
1, 354360, Note_on_c, 0, 55, 26
1, 354405, Note_on_c, 0, 50, 0
1, 354480, Note_on_c, 0, 55, 0
1, 354480, Note_on_c, 0, 75, 0
1, 354480, Note_on_c, 0, 74, 50
1, 354480, Note_on_c, 0, 50, 31
1, 354600, Note_on_c, 0, 74, 0
1, 354600, Note_on_c, 0, 72, 48
1, 354600, Note_on_c, 0, 55, 27
1, 354645, Note_on_c, 0, 50, 0
1, 354720, Tempo, 373902
1, 354720, Note_on_c, 0, 55, 0
1, 354720, Note_on_c, 0, 72, 0
1, 354720, Note_on_c, 0, 71, 51
1, 354720, Note_on_c, 0, 50, 31
1, 354840, Note_on_c, 0, 55, 28
1, 354885, Note_on_c, 0, 50, 0
1, 354960, Note_on_c, 0, 55, 0
1, 354960, Note_on_c, 0, 71, 0
1, 354960, Note_on_c, 0, 50, 31
1, 355080, Note_on_c, 0, 55, 27
1, 355125, Note_on_c, 0, 50, 0
1, 355200, Tempo, 373902
1, 355200, Note_on_c, 0, 55, 0
1, 355200, Note_on_c, 0, 60, 57
1, 355200, Note_on_c, 0, 51, 30
1, 355320, Note_on_c, 0, 55, 26
1, 355365, Note_on_c, 0, 51, 0
1, 355440, Tempo, 365653
1, 355440, Note_on_c, 0, 55, 0
1, 355440, Note_on_c, 0, 60, 0
1, 355440, Note_on_c, 0, 63, 48
1, 355440, Note_on_c, 0, 51, 30
1, 355560, Note_on_c, 0, 63, 0
1, 355560, Note_on_c, 0, 62, 48
1, 355560, Note_on_c, 0, 55, 27
1, 355605, Note_on_c, 0, 51, 0
1, 355680, Tempo, 384615
1, 355680, Note_on_c, 0, 55, 0
1, 355680, Note_on_c, 0, 62, 0
1, 355680, Note_on_c, 0, 60, 51
1, 355680, Note_on_c, 0, 51, 30
1, 355800, Note_on_c, 0, 55, 26
1, 355845, Note_on_c, 0, 51, 0
1, 355920, Note_on_c, 0, 55, 0
1, 355920, Note_on_c, 0, 60, 0
1, 355920, Note_on_c, 0, 51, 30
1, 356040, Tempo, 410959
1, 356040, Note_on_c, 0, 55, 25
1, 356085, Note_on_c, 0, 51, 0
1, 356160, Tempo, 367963
1, 356160, Note_on_c, 0, 55, 0
1, 356160, Note_on_c, 0, 80, 54
1, 356160, Note_on_c, 0, 47, 31
1, 356280, Note_on_c, 0, 80, 0
1, 356280, Note_on_c, 0, 79, 52
1, 356280, Note_on_c, 0, 55, 26
1, 356325, Note_on_c, 0, 47, 0
1, 356400, Note_on_c, 0, 55, 0
1, 356400, Note_on_c, 0, 79, 0
1, 356400, Note_on_c, 0, 77, 50
1, 356400, Note_on_c, 0, 47, 31
1, 356520, Note_on_c, 0, 77, 0
1, 356520, Note_on_c, 0, 75, 48
1, 356520, Note_on_c, 0, 55, 27
1, 356565, Note_on_c, 0, 47, 0
1, 356640, Tempo, 373902
1, 356640, Note_on_c, 0, 55, 0
1, 356640, Note_on_c, 0, 75, 0
1, 356640, Note_on_c, 0, 74, 51
1, 356640, Note_on_c, 0, 47, 31
1, 356760, Note_on_c, 0, 55, 28
1, 356805, Note_on_c, 0, 47, 0
1, 356880, Note_on_c, 0, 55, 0
1, 356880, Note_on_c, 0, 74, 0
1, 356880, Note_on_c, 0, 47, 31
1, 357000, Note_on_c, 0, 55, 27
1, 357045, Note_on_c, 0, 47, 0
1, 357120, Tempo, 373902
1, 357120, Note_on_c, 0, 55, 0
1, 357120, Note_on_c, 0, 63, 59
1, 357120, Note_on_c, 0, 48, 31
1, 357240, Note_on_c, 0, 55, 27
1, 357285, Note_on_c, 0, 48, 0
1, 357360, Tempo, 365653
1, 357360, Note_on_c, 0, 55, 0
1, 357360, Note_on_c, 0, 63, 0
1, 357360, Note_on_c, 0, 67, 50
1, 357360, Note_on_c, 0, 48, 31
1, 357480, Note_on_c, 0, 67, 0
1, 357480, Note_on_c, 0, 65, 51
1, 357480, Note_on_c, 0, 55, 29
1, 357525, Note_on_c, 0, 48, 0
1, 357600, Tempo, 373902
1, 357600, Note_on_c, 0, 55, 0
1, 357600, Note_on_c, 0, 65, 0
1, 357600, Note_on_c, 0, 63, 56
1, 357600, Note_on_c, 0, 48, 32
1, 357720, Note_on_c, 0, 55, 28
1, 357765, Note_on_c, 0, 48, 0
1, 357840, Note_on_c, 0, 55, 0
1, 357840, Note_on_c, 0, 63, 0
1, 357840, Note_on_c, 0, 48, 34
1, 357960, Note_on_c, 0, 55, 29
1, 358005, Note_on_c, 0, 48, 0
1, 358080, Tempo, 367963
1, 358080, Note_on_c, 0, 55, 0
1, 358080, Note_on_c, 0, 77, 63
1, 358080, Note_on_c, 0, 50, 36
1, 358200, Note_on_c, 0, 77, 0
1, 358200, Note_on_c, 0, 75, 63
1, 358200, Note_on_c, 0, 55, 31
1, 358245, Note_on_c, 0, 50, 0
1, 358320, Note_on_c, 0, 55, 0
1, 358320, Note_on_c, 0, 75, 0
1, 358320, Note_on_c, 0, 74, 62
1, 358320, Note_on_c, 0, 50, 38
1, 358440, Note_on_c, 0, 74, 0
1, 358440, Note_on_c, 0, 72, 60
1, 358440, Note_on_c, 0, 55, 35
1, 358485, Note_on_c, 0, 50, 0
1, 358560, Tempo, 373902
1, 358560, Note_on_c, 0, 55, 0
1, 358560, Note_on_c, 0, 72, 0
1, 358560, Note_on_c, 0, 71, 64
1, 358560, Note_on_c, 0, 50, 40
1, 358680, Note_on_c, 0, 55, 37
1, 358725, Note_on_c, 0, 50, 0
1, 358800, Note_on_c, 0, 55, 0
1, 358800, Note_on_c, 0, 71, 0
1, 358800, Note_on_c, 0, 50, 43
1, 358920, Note_on_c, 0, 55, 38
1, 358965, Note_on_c, 0, 50, 0
1, 359040, Tempo, 367963
1, 359040, Note_on_c, 0, 55, 0
1, 359040, Note_on_c, 0, 79, 73
1, 359040, Note_on_c, 0, 51, 45
1, 359160, Note_on_c, 0, 79, 0
1, 359160, Note_on_c, 0, 77, 71
1, 359160, Note_on_c, 0, 55, 39
1, 359205, Note_on_c, 0, 51, 0
1, 359280, Note_on_c, 0, 55, 0
1, 359280, Note_on_c, 0, 77, 0
1, 359280, Note_on_c, 0, 75, 71
1, 359280, Note_on_c, 0, 51, 48
1, 359400, Note_on_c, 0, 75, 0
1, 359400, Note_on_c, 0, 74, 67
1, 359400, Note_on_c, 0, 55, 42
1, 359445, Note_on_c, 0, 51, 0
1, 359520, Tempo, 388350
1, 359520, Note_on_c, 0, 55, 0
1, 359520, Note_on_c, 0, 74, 0
1, 359520, Note_on_c, 0, 72, 74
1, 359520, Note_on_c, 0, 51, 50
1, 359640, Note_on_c, 0, 60, 46
1, 359685, Note_on_c, 0, 51, 0
1, 359760, Tempo, 409556
1, 359760, Note_on_c, 0, 60, 0
1, 359760, Note_on_c, 0, 72, 0
1, 359760, Note_on_c, 0, 51, 54
1, 359880, Tempo, 423042
1, 359880, Note_on_c, 0, 60, 47
1, 359925, Note_on_c, 0, 51, 0
1, 360000, Tempo, 367963
1, 360000, Note_on_c, 0, 60, 0
1, 360000, Note_on_c, 0, 85, 87
1, 360000, Note_on_c, 0, 52, 64
1, 360120, Note_on_c, 0, 85, 0
1, 360120, Note_on_c, 0, 84, 83
1, 360120, Note_on_c, 0, 60, 53
1, 360165, Note_on_c, 0, 52, 0
1, 360240, Note_on_c, 0, 60, 0
1, 360240, Note_on_c, 0, 84, 0
1, 360240, Note_on_c, 0, 82, 81
1, 360240, Note_on_c, 0, 52, 64
1, 360360, Note_on_c, 0, 82, 0
1, 360360, Note_on_c, 0, 80, 78
1, 360360, Note_on_c, 0, 60, 56
1, 360405, Note_on_c, 0, 52, 0
1, 360480, Tempo, 373902
1, 360480, Note_on_c, 0, 60, 0
1, 360480, Note_on_c, 0, 80, 0
1, 360480, Note_on_c, 0, 79, 83
1, 360480, Note_on_c, 0, 52, 66
1, 360600, Note_on_c, 0, 60, 59
1, 360645, Note_on_c, 0, 52, 0
1, 360720, Note_on_c, 0, 60, 0
1, 360720, Note_on_c, 0, 79, 0
1, 360720, Note_on_c, 0, 52, 66
1, 360840, Tempo, 643984
1, 360840, Note_on_c, 0, 60, 57
1, 360885, Note_on_c, 0, 52, 0
1, 360960, Tempo, 382385
1, 360960, Note_on_c, 0, 60, 0
1, 360960, Note_on_c, 0, 80, 48
1, 360960, Note_on_c, 0, 53, 25
1, 361017, Control_c, 0, 64, 127
1, 361080, Note_on_c, 0, 53, 0
1, 361080, Note_on_c, 0, 56, 22
1, 361200, Tempo, 373948
1, 361200, Note_on_c, 0, 56, 0
1, 361200, Note_on_c, 0, 80, 0
1, 361200, Note_on_c, 0, 84, 40
1, 361200, Note_on_c, 0, 60, 22
1, 361320, Note_on_c, 0, 60, 0
1, 361320, Note_on_c, 0, 84, 0
1, 361320, Note_on_c, 0, 82, 40
1, 361320, Note_on_c, 0, 65, 22
1, 361440, Tempo, 382385
1, 361440, Note_on_c, 0, 65, 0
1, 361440, Note_on_c, 0, 82, 0
1, 361440, Note_on_c, 0, 80, 43
1, 361440, Note_on_c, 0, 53, 25
1, 361451, Control_c, 0, 64, 0
1, 361526, Control_c, 0, 64, 127
1, 361560, Note_on_c, 0, 53, 0
1, 361560, Note_on_c, 0, 56, 22
1, 361680, Note_on_c, 0, 56, 0
1, 361680, Note_on_c, 0, 80, 0
1, 361680, Note_on_c, 0, 60, 22
1, 361800, Note_on_c, 0, 60, 0
1, 361800, Note_on_c, 0, 65, 22
1, 361920, Tempo, 376341
1, 361920, Note_on_c, 0, 65, 0
1, 361920, Note_on_c, 0, 85, 48
1, 361920, Note_on_c, 0, 53, 26
1, 361937, Control_c, 0, 64, 0
1, 361983, Control_c, 0, 64, 127
1, 362040, Note_on_c, 0, 53, 0
1, 362040, Note_on_c, 0, 58, 22
1, 362160, Note_on_c, 0, 58, 0
1, 362160, Note_on_c, 0, 85, 0
1, 362160, Note_on_c, 0, 89, 40
1, 362160, Note_on_c, 0, 61, 22
1, 362280, Note_on_c, 0, 61, 0
1, 362280, Note_on_c, 0, 89, 0
1, 362280, Note_on_c, 0, 87, 40
1, 362280, Note_on_c, 0, 65, 22
1, 362400, Tempo, 382385
1, 362400, Note_on_c, 0, 65, 0
1, 362400, Note_on_c, 0, 87, 0
1, 362400, Note_on_c, 0, 85, 43
1, 362400, Note_on_c, 0, 53, 26
1, 362416, Control_c, 0, 64, 0
1, 362475, Control_c, 0, 64, 127
1, 362520, Note_on_c, 0, 53, 0
1, 362520, Note_on_c, 0, 58, 23
1, 362640, Note_on_c, 0, 58, 0
1, 362640, Note_on_c, 0, 85, 0
1, 362640, Note_on_c, 0, 61, 22
1, 362760, Note_on_c, 0, 61, 0
1, 362760, Note_on_c, 0, 65, 22
1, 362880, Tempo, 382385
1, 362880, Note_on_c, 0, 65, 0
1, 362880, Note_on_c, 0, 66, 40
1, 362880, Note_on_c, 0, 52, 25
1, 362890, Control_c, 0, 64, 0
1, 362944, Control_c, 0, 64, 127
1, 363000, Note_on_c, 0, 52, 0
1, 363000, Note_on_c, 0, 54, 22
1, 363120, Tempo, 373948
1, 363120, Note_on_c, 0, 54, 0
1, 363120, Note_on_c, 0, 66, 0
1, 363120, Note_on_c, 0, 70, 34
1, 363120, Note_on_c, 0, 58, 22
1, 363240, Note_on_c, 0, 58, 0
1, 363240, Note_on_c, 0, 70, 0
1, 363240, Note_on_c, 0, 68, 34
1, 363240, Note_on_c, 0, 61, 22
1, 363360, Tempo, 382385
1, 363360, Note_on_c, 0, 61, 0
1, 363360, Note_on_c, 0, 68, 0
1, 363360, Note_on_c, 0, 66, 36
1, 363360, Note_on_c, 0, 52, 25
1, 363371, Control_c, 0, 64, 0
1, 363417, Control_c, 0, 64, 127
1, 363480, Note_on_c, 0, 52, 0
1, 363480, Note_on_c, 0, 54, 22
1, 363600, Note_on_c, 0, 54, 0
1, 363600, Note_on_c, 0, 66, 0
1, 363600, Note_on_c, 0, 58, 22
1, 363720, Tempo, 504456
1, 363720, Note_on_c, 0, 58, 0
1, 363720, Note_on_c, 0, 61, 22
1, 363840, Tempo, 376341
1, 363840, Note_on_c, 0, 61, 0
1, 363840, Note_on_c, 0, 71, 40
1, 363840, Note_on_c, 0, 51, 26
1, 363857, Control_c, 0, 64, 0
1, 363915, Control_c, 0, 64, 127
1, 363960, Note_on_c, 0, 51, 0
1, 363960, Note_on_c, 0, 54, 22
1, 364080, Note_on_c, 0, 54, 0
1, 364080, Note_on_c, 0, 59, 22
1, 364200, Note_on_c, 0, 59, 0
1, 364200, Note_on_c, 0, 63, 22
1, 364320, Tempo, 382385
1, 364320, Note_on_c, 0, 63, 0
1, 364320, Note_on_c, 0, 51, 26
1, 364440, Note_on_c, 0, 51, 0
1, 364440, Note_on_c, 0, 54, 23
1, 364560, Note_on_c, 0, 54, 0
1, 364560, Note_on_c, 0, 59, 22
1, 364680, Tempo, 627221
1, 364680, Note_on_c, 0, 59, 0
1, 364680, Note_on_c, 0, 63, 22
1, 364800, Tempo, 385604
1, 364800, Note_on_c, 0, 63, 0
1, 364800, Note_on_c, 0, 71, 0
1, 364800, Note_on_c, 0, 77, 48
1, 364800, Note_on_c, 0, 51, 25
1, 364813, Control_c, 0, 64, 0
1, 364886, Control_c, 0, 64, 127
1, 364920, Note_on_c, 0, 51, 0
1, 364920, Note_on_c, 0, 53, 22
1, 365040, Tempo, 377098
1, 365040, Note_on_c, 0, 53, 0
1, 365040, Note_on_c, 0, 77, 0
1, 365040, Note_on_c, 0, 81, 40
1, 365040, Note_on_c, 0, 57, 22
1, 365160, Note_on_c, 0, 57, 0
1, 365160, Note_on_c, 0, 81, 0
1, 365160, Note_on_c, 0, 79, 40
1, 365160, Note_on_c, 0, 60, 22
1, 365280, Tempo, 385604
1, 365280, Note_on_c, 0, 60, 0
1, 365280, Note_on_c, 0, 79, 0
1, 365280, Note_on_c, 0, 77, 43
1, 365280, Note_on_c, 0, 51, 25
1, 365300, Control_c, 0, 64, 0
1, 365372, Control_c, 0, 64, 127
1, 365400, Note_on_c, 0, 51, 0
1, 365400, Note_on_c, 0, 53, 22
1, 365520, Note_on_c, 0, 53, 0
1, 365520, Note_on_c, 0, 77, 0
1, 365520, Note_on_c, 0, 57, 22
1, 365640, Note_on_c, 0, 57, 0
1, 365640, Note_on_c, 0, 60, 22
1, 365760, Tempo, 379483
1, 365760, Note_on_c, 0, 60, 0
1, 365760, Note_on_c, 0, 82, 48
1, 365760, Note_on_c, 0, 49, 26
1, 365779, Control_c, 0, 64, 0
1, 365835, Control_c, 0, 64, 127
1, 365880, Note_on_c, 0, 49, 0
1, 365880, Note_on_c, 0, 53, 22
1, 366000, Note_on_c, 0, 53, 0
1, 366000, Note_on_c, 0, 82, 0
1, 366000, Note_on_c, 0, 85, 40
1, 366000, Note_on_c, 0, 58, 22
1, 366120, Note_on_c, 0, 58, 0
1, 366120, Note_on_c, 0, 85, 0
1, 366120, Note_on_c, 0, 84, 40
1, 366120, Note_on_c, 0, 61, 22
1, 366240, Tempo, 385604
1, 366240, Note_on_c, 0, 61, 0
1, 366240, Note_on_c, 0, 84, 0
1, 366240, Note_on_c, 0, 82, 43
1, 366240, Note_on_c, 0, 49, 26
1, 366261, Control_c, 0, 64, 0
1, 366320, Control_c, 0, 64, 127
1, 366360, Note_on_c, 0, 49, 0
1, 366360, Note_on_c, 0, 53, 23
1, 366480, Note_on_c, 0, 53, 0
1, 366480, Note_on_c, 0, 82, 0
1, 366480, Note_on_c, 0, 58, 22
1, 366600, Note_on_c, 0, 58, 0
1, 366600, Note_on_c, 0, 61, 22
1, 366720, Tempo, 385604
1, 366720, Note_on_c, 0, 61, 0
1, 366720, Note_on_c, 0, 63, 40
1, 366720, Note_on_c, 0, 49, 25
1, 366739, Control_c, 0, 64, 0
1, 366800, Control_c, 0, 64, 127
1, 366840, Note_on_c, 0, 49, 0
1, 366840, Note_on_c, 0, 51, 22
1, 366960, Tempo, 377098
1, 366960, Note_on_c, 0, 51, 0
1, 366960, Note_on_c, 0, 63, 0
1, 366960, Note_on_c, 0, 67, 34
1, 366960, Note_on_c, 0, 55, 22
1, 367080, Note_on_c, 0, 55, 0
1, 367080, Note_on_c, 0, 67, 0
1, 367080, Note_on_c, 0, 65, 34
1, 367080, Note_on_c, 0, 58, 22
1, 367200, Tempo, 385604
1, 367200, Note_on_c, 0, 58, 0
1, 367200, Note_on_c, 0, 65, 0
1, 367200, Note_on_c, 0, 63, 36
1, 367200, Note_on_c, 0, 49, 25
1, 367217, Control_c, 0, 64, 0
1, 367286, Control_c, 0, 64, 127
1, 367320, Note_on_c, 0, 49, 0
1, 367320, Note_on_c, 0, 51, 22
1, 367440, Note_on_c, 0, 51, 0
1, 367440, Note_on_c, 0, 63, 0
1, 367440, Note_on_c, 0, 55, 22
1, 367560, Tempo, 508690
1, 367560, Note_on_c, 0, 55, 0
1, 367560, Note_on_c, 0, 58, 22
1, 367680, Tempo, 379483
1, 367680, Note_on_c, 0, 58, 0
1, 367680, Note_on_c, 0, 68, 40
1, 367680, Note_on_c, 0, 48, 26
1, 367698, Control_c, 0, 64, 0
1, 367772, Control_c, 0, 64, 127
1, 367800, Note_on_c, 0, 48, 0
1, 367800, Note_on_c, 0, 51, 22
1, 367920, Note_on_c, 0, 51, 0
1, 367920, Note_on_c, 0, 56, 22
1, 368040, Note_on_c, 0, 56, 0
1, 368040, Note_on_c, 0, 60, 22
1, 368160, Tempo, 385604
1, 368160, Note_on_c, 0, 60, 0
1, 368160, Note_on_c, 0, 48, 26
1, 368280, Note_on_c, 0, 48, 0
1, 368280, Note_on_c, 0, 51, 23
1, 368400, Note_on_c, 0, 51, 0
1, 368400, Note_on_c, 0, 56, 22
1, 368520, Note_on_c, 0, 56, 0
1, 368520, Note_on_c, 0, 60, 22
1, 368640, Tempo, 385604
1, 368640, Note_on_c, 0, 60, 0
1, 368640, Note_on_c, 0, 68, 0
1, 368640, Note_on_c, 0, 73, 48
1, 368640, Note_on_c, 0, 47, 25
1, 368653, Control_c, 0, 64, 0
1, 368703, Control_c, 0, 64, 127
1, 368760, Note_on_c, 0, 47, 0
1, 368760, Note_on_c, 0, 49, 22
1, 368880, Tempo, 377098
1, 368880, Note_on_c, 0, 49, 0
1, 368880, Note_on_c, 0, 73, 0
1, 368880, Note_on_c, 0, 77, 40
1, 368880, Note_on_c, 0, 53, 22
1, 369000, Note_on_c, 0, 53, 0
1, 369000, Note_on_c, 0, 77, 0
1, 369000, Note_on_c, 0, 75, 40
1, 369000, Note_on_c, 0, 56, 22
1, 369120, Tempo, 385604
1, 369120, Note_on_c, 0, 56, 0
1, 369120, Note_on_c, 0, 75, 0
1, 369120, Note_on_c, 0, 73, 43
1, 369120, Note_on_c, 0, 47, 25
1, 369137, Control_c, 0, 64, 0
1, 369183, Control_c, 0, 64, 127
1, 369240, Note_on_c, 0, 47, 0
1, 369240, Note_on_c, 0, 49, 22
1, 369360, Note_on_c, 0, 49, 0
1, 369360, Note_on_c, 0, 73, 0
1, 369360, Note_on_c, 0, 53, 22
1, 369480, Note_on_c, 0, 53, 0
1, 369480, Note_on_c, 0, 56, 22
1, 369600, Tempo, 379483
1, 369600, Note_on_c, 0, 56, 0
1, 369600, Note_on_c, 0, 78, 48
1, 369600, Note_on_c, 0, 46, 26
1, 369620, Control_c, 0, 64, 0
1, 369680, Control_c, 0, 64, 127
1, 369720, Note_on_c, 0, 46, 0
1, 369720, Note_on_c, 0, 49, 22
1, 369840, Note_on_c, 0, 49, 0
1, 369840, Note_on_c, 0, 78, 0
1, 369840, Note_on_c, 0, 82, 40
1, 369840, Note_on_c, 0, 54, 22
1, 369960, Note_on_c, 0, 54, 0
1, 369960, Note_on_c, 0, 82, 0
1, 369960, Note_on_c, 0, 80, 40
1, 369960, Note_on_c, 0, 58, 22
1, 370080, Tempo, 385604
1, 370080, Note_on_c, 0, 58, 0
1, 370080, Note_on_c, 0, 80, 0
1, 370080, Note_on_c, 0, 78, 43
1, 370080, Note_on_c, 0, 46, 26
1, 370096, Control_c, 0, 64, 0
1, 370160, Control_c, 0, 64, 127
1, 370200, Note_on_c, 0, 46, 0
1, 370200, Note_on_c, 0, 49, 23
1, 370320, Note_on_c, 0, 49, 0
1, 370320, Note_on_c, 0, 78, 0
1, 370320, Note_on_c, 0, 54, 22
1, 370440, Note_on_c, 0, 54, 0
1, 370440, Note_on_c, 0, 58, 22
1, 370560, Tempo, 385604
1, 370560, Note_on_c, 0, 58, 0
1, 370560, Note_on_c, 0, 60, 42
1, 370560, Note_on_c, 0, 46, 26
1, 370577, Control_c, 0, 64, 0
1, 370617, Control_c, 0, 64, 127
1, 370680, Note_on_c, 0, 46, 0
1, 370680, Note_on_c, 0, 48, 23
1, 370800, Tempo, 377098
1, 370800, Note_on_c, 0, 48, 0
1, 370800, Note_on_c, 0, 60, 0
1, 370800, Note_on_c, 0, 64, 35
1, 370800, Note_on_c, 0, 52, 23
1, 370920, Note_on_c, 0, 52, 0
1, 370920, Note_on_c, 0, 64, 0
1, 370920, Note_on_c, 0, 62, 35
1, 370920, Note_on_c, 0, 55, 23
1, 371040, Tempo, 385604
1, 371040, Note_on_c, 0, 55, 0
1, 371040, Note_on_c, 0, 62, 0
1, 371040, Note_on_c, 0, 60, 38
1, 371040, Note_on_c, 0, 46, 26
1, 371052, Control_c, 0, 64, 0
1, 371120, Control_c, 0, 64, 127
1, 371160, Note_on_c, 0, 46, 0
1, 371160, Note_on_c, 0, 48, 23
1, 371280, Note_on_c, 0, 48, 0
1, 371280, Note_on_c, 0, 60, 0
1, 371280, Note_on_c, 0, 52, 23
1, 371400, Tempo, 508690
1, 371400, Note_on_c, 0, 52, 0
1, 371400, Note_on_c, 0, 55, 23
1, 371520, Tempo, 379483
1, 371520, Note_on_c, 0, 55, 0
1, 371520, Note_on_c, 0, 72, 42
1, 371520, Note_on_c, 0, 44, 27
1, 371540, Control_c, 0, 64, 0
1, 371629, Control_c, 0, 64, 127
1, 371640, Note_on_c, 0, 44, 0
1, 371640, Note_on_c, 0, 48, 23
1, 371760, Note_on_c, 0, 48, 0
1, 371760, Note_on_c, 0, 53, 23
1, 371880, Note_on_c, 0, 53, 0
1, 371880, Note_on_c, 0, 56, 23
1, 372000, Tempo, 385604
1, 372000, Note_on_c, 0, 56, 0
1, 372000, Note_on_c, 0, 44, 28
1, 372120, Note_on_c, 0, 44, 0
1, 372120, Note_on_c, 0, 48, 25
1, 372240, Note_on_c, 0, 48, 0
1, 372240, Note_on_c, 0, 53, 23
1, 372360, Note_on_c, 0, 53, 0
1, 372360, Note_on_c, 0, 56, 23
1, 372480, Tempo, 385604
1, 372480, Note_on_c, 0, 56, 0
1, 372480, Note_on_c, 0, 72, 0
1, 372480, Note_on_c, 0, 72, 59
1, 372480, Note_on_c, 0, 43, 32
1, 372497, Control_c, 0, 64, 0
1, 372543, Control_c, 0, 64, 127
1, 372600, Note_on_c, 0, 43, 0
1, 372600, Note_on_c, 0, 46, 28
1, 372720, Tempo, 377098
1, 372720, Note_on_c, 0, 46, 0
1, 372720, Note_on_c, 0, 72, 0
1, 372720, Note_on_c, 0, 76, 52
1, 372720, Note_on_c, 0, 52, 28
1, 372840, Note_on_c, 0, 52, 0
1, 372840, Note_on_c, 0, 76, 0
1, 372840, Note_on_c, 0, 74, 52
1, 372840, Note_on_c, 0, 55, 29
1, 372960, Tempo, 385604
1, 372960, Note_on_c, 0, 55, 0
1, 372960, Note_on_c, 0, 74, 0
1, 372960, Note_on_c, 0, 72, 56
1, 372960, Note_on_c, 0, 43, 34
1, 372972, Control_c, 0, 64, 0
1, 373012, Control_c, 0, 64, 127
1, 373080, Note_on_c, 0, 43, 0
1, 373080, Note_on_c, 0, 46, 29
1, 373200, Note_on_c, 0, 46, 0
1, 373200, Note_on_c, 0, 72, 0
1, 373200, Note_on_c, 0, 52, 31
1, 373320, Tempo, 508690
1, 373320, Note_on_c, 0, 52, 0
1, 373320, Note_on_c, 0, 55, 32
1, 373440, Tempo, 379483
1, 373440, Note_on_c, 0, 55, 0
1, 373440, Note_on_c, 0, 84, 69
1, 373440, Note_on_c, 0, 41, 39
1, 373459, Control_c, 0, 64, 0
1, 373520, Control_c, 0, 64, 127
1, 373560, Note_on_c, 0, 41, 0
1, 373560, Note_on_c, 0, 44, 33
1, 373680, Note_on_c, 0, 44, 0
1, 373680, Note_on_c, 0, 48, 33
1, 373800, Note_on_c, 0, 48, 0
1, 373800, Note_on_c, 0, 53, 34
1, 373920, Tempo, 385604
1, 373920, Note_on_c, 0, 53, 0
1, 373920, Note_on_c, 0, 41, 41
1, 374080, Note_on_c, 0, 41, 0
1, 374080, Note_on_c, 0, 44, 35
1, 374240, Note_on_c, 0, 44, 0
1, 374240, Note_on_c, 0, 53, 36
1, 374400, Tempo, 398327
1, 374400, Note_on_c, 0, 53, 0
1, 374400, Note_on_c, 0, 84, 0
1, 374400, Note_on_c, 0, 84, 68
1, 374400, Note_on_c, 0, 40, 44
1, 374417, Control_c, 0, 64, 0
1, 374486, Control_c, 0, 64, 127
1, 374560, Note_on_c, 0, 40, 0
1, 374560, Note_on_c, 0, 43, 45
1, 374640, Tempo, 390269
1, 374640, Note_on_c, 0, 84, 0
1, 374640, Note_on_c, 0, 88, 70
1, 374720, Note_on_c, 0, 43, 0
1, 374720, Note_on_c, 0, 52, 47
1, 374760, Note_on_c, 0, 88, 0
1, 374760, Note_on_c, 0, 86, 71
1, 374880, Tempo, 396957
1, 374880, Note_on_c, 0, 86, 0
1, 374880, Note_on_c, 0, 52, 0
1, 374880, Note_on_c, 0, 84, 73
1, 374880, Note_on_c, 0, 39, 47
1, 374900, Control_c, 0, 64, 0
1, 375000, Note_on_c, 0, 84, 0
1, 375040, Note_on_c, 0, 39, 0
1, 375040, Note_on_c, 0, 43, 49
1, 375120, Note_on_c, 0, 84, 77
1, 375200, Note_on_c, 0, 43, 0
1, 375200, Note_on_c, 0, 51, 51
1, 375240, Note_on_c, 0, 84, 0
1, 375360, Note_on_c, 0, 51, 0
1, 375360, Note_on_c, 0, 84, 81
1, 375360, Note_on_c, 0, 38, 54
1, 375480, Note_on_c, 0, 84, 0
1, 375520, Note_on_c, 0, 38, 0
1, 375520, Note_on_c, 0, 41, 53
1, 375600, Note_on_c, 0, 84, 83
1, 375680, Note_on_c, 0, 41, 0
1, 375680, Note_on_c, 0, 50, 56
1, 375840, Tempo, 409584
1, 375840, Note_on_c, 0, 50, 0
1, 375840, Note_on_c, 0, 84, 0
1, 375840, Note_on_c, 0, 89, 86
1, 375840, Note_on_c, 0, 37, 56
1, 375909, Control_c, 0, 64, 127
1, 376000, Note_on_c, 0, 37, 0
1, 376000, Note_on_c, 0, 41, 58
1, 376080, Tempo, 445831
1, 376080, Note_on_c, 0, 89, 0
1, 376080, Note_on_c, 0, 83, 90
1, 376160, Note_on_c, 0, 41, 0
1, 376160, Note_on_c, 0, 49, 59
1, 376320, Tempo, 410650
1, 376320, Note_on_c, 0, 49, 0
1, 376320, Note_on_c, 0, 83, 0
1, 376320, Note_on_c, 0, 84, 93
1, 376320, Note_on_c, 0, 36, 66
1, 376320, Note_on_c, 0, 48, 70
1, 376336, Control_c, 0, 64, 0
1, 376426, Control_c, 0, 64, 127
1, 376480, Note_on_c, 0, 48, 0
1, 376480, Note_on_c, 0, 36, 0
1, 376480, Note_on_c, 0, 43, 61
1, 376640, Note_on_c, 0, 43, 0
1, 376640, Note_on_c, 0, 40, 62
1, 376800, Note_on_c, 0, 40, 0
1, 376800, Note_on_c, 0, 84, 0
1, 376800, Note_on_c, 0, 67, 75
1, 376800, Note_on_c, 0, 43, 70
1, 376960, Note_on_c, 0, 43, 0
1, 376960, Note_on_c, 0, 48, 63
1, 377120, Tempo, 423191
1, 377120, Note_on_c, 0, 48, 0
1, 377120, Note_on_c, 0, 52, 64
1, 377280, Tempo, 412173
1, 377280, Note_on_c, 0, 52, 0
1, 377280, Note_on_c, 0, 50, 70
1, 377298, Control_c, 0, 64, 0
1, 377400, Control_c, 0, 64, 127
1, 377440, Note_on_c, 0, 50, 0
1, 377440, Note_on_c, 0, 47, 63
1, 377600, Tempo, 424809
1, 377600, Note_on_c, 0, 47, 0
1, 377600, Note_on_c, 0, 43, 64
1, 377760, Tempo, 409110
1, 377760, Note_on_c, 0, 43, 0
1, 377760, Note_on_c, 0, 67, 0
1, 377760, Note_on_c, 0, 67, 75
1, 377760, Note_on_c, 0, 47, 70
1, 377920, Note_on_c, 0, 47, 0
1, 377920, Note_on_c, 0, 50, 65
1, 378080, Tempo, 424809
1, 378080, Note_on_c, 0, 50, 0
1, 378080, Note_on_c, 0, 53, 65
1, 378240, Tempo, 397535
1, 378240, Note_on_c, 0, 53, 0
1, 378240, Note_on_c, 0, 67, 0
1, 378240, Note_on_c, 0, 72, 82
1, 378240, Note_on_c, 0, 52, 64
1, 378248, Control_c, 0, 64, 0
1, 378326, Control_c, 0, 64, 127
1, 378400, Note_on_c, 0, 52, 0
1, 378400, Note_on_c, 0, 72, 0
1, 378400, Note_on_c, 0, 67, 74
1, 378400, Note_on_c, 0, 55, 56
1, 378560, Note_on_c, 0, 55, 0
1, 378560, Note_on_c, 0, 67, 0
1, 378560, Note_on_c, 0, 64, 74
1, 378560, Note_on_c, 0, 60, 56
1, 378720, Note_on_c, 0, 60, 0
1, 378720, Note_on_c, 0, 64, 0
1, 378720, Note_on_c, 0, 67, 82
1, 378720, Note_on_c, 0, 55, 64
1, 378880, Note_on_c, 0, 55, 0
1, 378880, Note_on_c, 0, 67, 0
1, 378880, Note_on_c, 0, 72, 74
1, 378880, Note_on_c, 0, 52, 57
1, 379040, Tempo, 417856
1, 379040, Note_on_c, 0, 52, 0
1, 379040, Note_on_c, 0, 72, 0
1, 379040, Note_on_c, 0, 76, 73
1, 379040, Note_on_c, 0, 48, 57
1, 379200, Tempo, 398910
1, 379200, Note_on_c, 0, 48, 0
1, 379200, Note_on_c, 0, 76, 0
1, 379200, Note_on_c, 0, 74, 82
1, 379200, Note_on_c, 0, 53, 64
1, 379213, Control_c, 0, 64, 0
1, 379275, Control_c, 0, 64, 127
1, 379360, Note_on_c, 0, 53, 0
1, 379360, Note_on_c, 0, 74, 0
1, 379360, Note_on_c, 0, 71, 74
1, 379360, Note_on_c, 0, 56, 56
1, 379520, Note_on_c, 0, 56, 0
1, 379520, Note_on_c, 0, 71, 0
1, 379520, Note_on_c, 0, 68, 74
1, 379520, Note_on_c, 0, 60, 56
1, 379680, Note_on_c, 0, 60, 0
1, 379680, Note_on_c, 0, 68, 0
1, 379680, Note_on_c, 0, 71, 82
1, 379680, Note_on_c, 0, 56, 64
1, 379840, Note_on_c, 0, 56, 0
1, 379840, Note_on_c, 0, 71, 0
1, 379840, Note_on_c, 0, 74, 75
1, 379840, Note_on_c, 0, 53, 57
1, 380000, Tempo, 416262
1, 380000, Note_on_c, 0, 53, 0
1, 380000, Note_on_c, 0, 74, 0
1, 380000, Note_on_c, 0, 77, 75
1, 380000, Note_on_c, 0, 48, 58
1, 380160, Tempo, 396170
1, 380160, Note_on_c, 0, 48, 0
1, 380160, Note_on_c, 0, 77, 0
1, 380160, Note_on_c, 0, 76, 82
1, 380160, Note_on_c, 0, 55, 64
1, 380170, Control_c, 0, 64, 0
1, 380206, Control_c, 0, 64, 127
1, 380320, Note_on_c, 0, 76, 0
1, 380320, Note_on_c, 0, 73, 74
1, 380320, Note_on_c, 0, 58, 56
1, 380480, Note_on_c, 0, 73, 0
1, 380480, Note_on_c, 0, 70, 77
1, 380480, Note_on_c, 0, 60, 56
1, 380640, Note_on_c, 0, 70, 0
1, 380640, Note_on_c, 0, 58, 0
1, 380640, Note_on_c, 0, 73, 82
1, 380640, Note_on_c, 0, 58, 64
1, 380800, Note_on_c, 0, 73, 0
1, 380800, Note_on_c, 0, 55, 0
1, 380800, Note_on_c, 0, 76, 75
1, 380800, Note_on_c, 0, 55, 57
1, 380960, Tempo, 441339
1, 380960, Note_on_c, 0, 76, 0
1, 380960, Note_on_c, 0, 79, 74
1, 380960, Note_on_c, 0, 48, 57
1, 381120, Tempo, 397535
1, 381120, Note_on_c, 0, 79, 0
1, 381120, Note_on_c, 0, 82, 82
1, 381129, Control_c, 0, 64, 0
1, 381163, Control_c, 0, 64, 127
1, 381280, Note_on_c, 0, 82, 0
1, 381280, Note_on_c, 0, 76, 74
1, 381440, Note_on_c, 0, 76, 0
1, 381440, Note_on_c, 0, 85, 74
1, 381600, Tempo, 396170
1, 381600, Note_on_c, 0, 85, 0
1, 381600, Note_on_c, 0, 76, 82
1, 381760, Note_on_c, 0, 76, 0
1, 381760, Note_on_c, 0, 73, 74
1, 381920, Note_on_c, 0, 73, 0
1, 381920, Note_on_c, 0, 82, 74
1, 382080, Tempo, 396170
1, 382080, Note_on_c, 0, 82, 0
1, 382080, Note_on_c, 0, 73, 82
1, 382240, Note_on_c, 0, 73, 0
1, 382240, Note_on_c, 0, 70, 74
1, 382400, Note_on_c, 0, 70, 0
1, 382400, Note_on_c, 0, 76, 74
1, 382560, Note_on_c, 0, 76, 0
1, 382560, Note_on_c, 0, 70, 78
1, 382720, Note_on_c, 0, 70, 0
1, 382720, Note_on_c, 0, 64, 74
1, 382880, Note_on_c, 0, 64, 0
1, 382880, Note_on_c, 0, 73, 74
1, 383040, Tempo, 397535
1, 383040, Note_on_c, 0, 73, 0
1, 383040, Note_on_c, 0, 70, 77
1, 383057, Control_c, 0, 64, 0
1, 383137, Control_c, 0, 64, 127
1, 383200, Note_on_c, 0, 70, 0
1, 383200, Note_on_c, 0, 64, 71
1, 383360, Note_on_c, 0, 64, 0
1, 383360, Note_on_c, 0, 72, 71
1, 383520, Tempo, 397535
1, 383520, Note_on_c, 0, 72, 0
1, 383520, Note_on_c, 0, 70, 76
1, 383680, Note_on_c, 0, 70, 0
1, 383680, Note_on_c, 0, 64, 71
1, 383840, Note_on_c, 0, 64, 0
1, 383840, Note_on_c, 0, 72, 71
1, 384000, Tempo, 407028
1, 384000, Note_on_c, 0, 72, 0
1, 384000, Note_on_c, 0, 58, 0
1, 384000, Note_on_c, 0, 55, 0
1, 384000, Note_on_c, 0, 60, 0
1, 384000, Note_on_c, 0, 48, 0
1, 384000, Note_on_c, 0, 65, 67
1, 384000, Note_on_c, 0, 69, 67
1, 384000, Note_on_c, 0, 72, 79
1, 384000, Note_on_c, 0, 41, 66
1, 384000, Note_on_c, 0, 53, 70
1, 384003, Control_c, 0, 64, 0
1, 384057, Control_c, 0, 64, 127
1, 384160, Note_on_c, 0, 53, 0
1, 384160, Note_on_c, 0, 41, 0
1, 384160, Note_on_c, 0, 48, 61
1, 384320, Note_on_c, 0, 48, 0
1, 384320, Note_on_c, 0, 45, 62
1, 384480, Note_on_c, 0, 45, 0
1, 384480, Note_on_c, 0, 65, 0
1, 384480, Note_on_c, 0, 69, 0
1, 384480, Note_on_c, 0, 72, 0
1, 384480, Note_on_c, 0, 72, 75
1, 384480, Note_on_c, 0, 48, 70
1, 384640, Note_on_c, 0, 48, 0
1, 384640, Note_on_c, 0, 53, 63
1, 384800, Tempo, 419463
1, 384800, Note_on_c, 0, 53, 0
1, 384800, Note_on_c, 0, 57, 64
1, 384960, Tempo, 408525
1, 384960, Note_on_c, 0, 57, 0
1, 384960, Note_on_c, 0, 55, 70
1, 384971, Control_c, 0, 64, 0
1, 385023, Control_c, 0, 64, 127
1, 385120, Note_on_c, 0, 55, 0
1, 385120, Note_on_c, 0, 52, 63
1, 385280, Tempo, 421053
1, 385280, Note_on_c, 0, 52, 0
1, 385280, Note_on_c, 0, 48, 64
1, 385440, Tempo, 405488
1, 385440, Note_on_c, 0, 48, 0
1, 385440, Note_on_c, 0, 72, 0
1, 385440, Note_on_c, 0, 72, 75
1, 385440, Note_on_c, 0, 52, 70
1, 385600, Note_on_c, 0, 52, 0
1, 385600, Note_on_c, 0, 55, 65
1, 385760, Tempo, 421053
1, 385760, Note_on_c, 0, 55, 0
1, 385760, Note_on_c, 0, 58, 65
1, 385920, Tempo, 397535
1, 385920, Note_on_c, 0, 58, 0
1, 385920, Note_on_c, 0, 72, 0
1, 385920, Note_on_c, 0, 77, 82
1, 385920, Note_on_c, 0, 57, 64
1, 385927, Control_c, 0, 64, 0
1, 386000, Control_c, 0, 64, 127
1, 386080, Note_on_c, 0, 57, 0
1, 386080, Note_on_c, 0, 77, 0
1, 386080, Note_on_c, 0, 72, 74
1, 386080, Note_on_c, 0, 60, 56
1, 386240, Note_on_c, 0, 60, 0
1, 386240, Note_on_c, 0, 72, 0
1, 386240, Note_on_c, 0, 69, 74
1, 386240, Note_on_c, 0, 65, 56
1, 386400, Note_on_c, 0, 65, 0
1, 386400, Note_on_c, 0, 69, 0
1, 386400, Note_on_c, 0, 72, 82
1, 386400, Note_on_c, 0, 60, 64
1, 386560, Note_on_c, 0, 60, 0
1, 386560, Note_on_c, 0, 72, 0
1, 386560, Note_on_c, 0, 77, 74
1, 386560, Note_on_c, 0, 57, 57
1, 386720, Tempo, 417856
1, 386720, Note_on_c, 0, 57, 0
1, 386720, Note_on_c, 0, 77, 0
1, 386720, Note_on_c, 0, 81, 73
1, 386720, Note_on_c, 0, 53, 57
1, 386880, Tempo, 398910
1, 386880, Note_on_c, 0, 53, 0
1, 386880, Note_on_c, 0, 81, 0
1, 386880, Note_on_c, 0, 79, 82
1, 386880, Note_on_c, 0, 58, 64
1, 386892, Control_c, 0, 64, 0
1, 386943, Control_c, 0, 64, 127
1, 387040, Note_on_c, 0, 58, 0
1, 387040, Note_on_c, 0, 79, 0
1, 387040, Note_on_c, 0, 76, 74
1, 387040, Note_on_c, 0, 61, 56
1, 387200, Note_on_c, 0, 61, 0
1, 387200, Note_on_c, 0, 76, 0
1, 387200, Note_on_c, 0, 73, 74
1, 387200, Note_on_c, 0, 65, 56
1, 387360, Note_on_c, 0, 65, 0
1, 387360, Note_on_c, 0, 73, 0
1, 387360, Note_on_c, 0, 76, 82
1, 387360, Note_on_c, 0, 61, 64
1, 387520, Note_on_c, 0, 61, 0
1, 387520, Note_on_c, 0, 76, 0
1, 387520, Note_on_c, 0, 79, 75
1, 387520, Note_on_c, 0, 58, 57
1, 387680, Tempo, 416262
1, 387680, Note_on_c, 0, 58, 0
1, 387680, Note_on_c, 0, 79, 0
1, 387680, Note_on_c, 0, 82, 75
1, 387680, Note_on_c, 0, 53, 58
1, 387840, Tempo, 396170
1, 387840, Note_on_c, 0, 53, 0
1, 387840, Note_on_c, 0, 82, 0
1, 387840, Note_on_c, 0, 81, 82
1, 387840, Note_on_c, 0, 60, 64
1, 387849, Control_c, 0, 64, 0
1, 387912, Control_c, 0, 64, 127
1, 388000, Note_on_c, 0, 81, 0
1, 388000, Note_on_c, 0, 78, 74
1, 388000, Note_on_c, 0, 63, 56
1, 388160, Note_on_c, 0, 78, 0
1, 388160, Note_on_c, 0, 75, 77
1, 388160, Note_on_c, 0, 65, 56
1, 388320, Note_on_c, 0, 75, 0
1, 388320, Note_on_c, 0, 63, 0
1, 388320, Note_on_c, 0, 78, 82
1, 388320, Note_on_c, 0, 63, 64
1, 388480, Note_on_c, 0, 78, 0
1, 388480, Note_on_c, 0, 60, 0
1, 388480, Note_on_c, 0, 81, 75
1, 388480, Note_on_c, 0, 60, 57
1, 388640, Tempo, 441339
1, 388640, Note_on_c, 0, 81, 0
1, 388640, Note_on_c, 0, 84, 74
1, 388640, Note_on_c, 0, 53, 57
1, 388800, Tempo, 397535
1, 388800, Note_on_c, 0, 84, 0
1, 388800, Note_on_c, 0, 81, 82
1, 388960, Note_on_c, 0, 81, 0
1, 388960, Note_on_c, 0, 78, 74
1, 389120, Note_on_c, 0, 78, 0
1, 389120, Note_on_c, 0, 87, 74
1, 389280, Tempo, 396170
1, 389280, Note_on_c, 0, 87, 0
1, 389280, Note_on_c, 0, 78, 82
1, 389440, Note_on_c, 0, 78, 0
1, 389440, Note_on_c, 0, 75, 74
1, 389600, Note_on_c, 0, 75, 0
1, 389600, Note_on_c, 0, 84, 74
1, 389760, Tempo, 396170
1, 389760, Note_on_c, 0, 84, 0
1, 389760, Note_on_c, 0, 75, 82
1, 389920, Note_on_c, 0, 75, 0
1, 389920, Note_on_c, 0, 72, 74
1, 390080, Note_on_c, 0, 72, 0
1, 390080, Note_on_c, 0, 81, 74
1, 390240, Note_on_c, 0, 81, 0
1, 390240, Note_on_c, 0, 75, 78
1, 390400, Note_on_c, 0, 75, 0
1, 390400, Note_on_c, 0, 69, 74
1, 390560, Note_on_c, 0, 69, 0
1, 390560, Note_on_c, 0, 78, 74
1, 390720, Tempo, 397535
1, 390720, Note_on_c, 0, 78, 0
1, 390720, Note_on_c, 0, 75, 77
1, 390737, Control_c, 0, 64, 0
1, 390829, Control_c, 0, 64, 127
1, 390880, Note_on_c, 0, 75, 0
1, 390880, Note_on_c, 0, 69, 71
1, 391040, Note_on_c, 0, 69, 0
1, 391040, Note_on_c, 0, 77, 71
1, 391200, Tempo, 397535
1, 391200, Note_on_c, 0, 77, 0
1, 391200, Note_on_c, 0, 75, 76
1, 391360, Note_on_c, 0, 75, 0
1, 391360, Note_on_c, 0, 69, 71
1, 391520, Note_on_c, 0, 69, 0
1, 391520, Note_on_c, 0, 77, 71
1, 391680, Tempo, 407028
1, 391680, Note_on_c, 0, 77, 0
1, 391680, Note_on_c, 0, 63, 0
1, 391680, Note_on_c, 0, 60, 0
1, 391680, Note_on_c, 0, 65, 0
1, 391680, Note_on_c, 0, 53, 0
1, 391680, Note_on_c, 0, 70, 67
1, 391680, Note_on_c, 0, 74, 67
1, 391680, Note_on_c, 0, 77, 79
1, 391680, Note_on_c, 0, 34, 66
1, 391680, Note_on_c, 0, 46, 70
1, 391689, Control_c, 0, 64, 0
1, 391737, Control_c, 0, 64, 127
1, 391840, Note_on_c, 0, 46, 0
1, 391840, Note_on_c, 0, 34, 0
1, 391840, Note_on_c, 0, 41, 61
1, 392000, Note_on_c, 0, 41, 0
1, 392000, Note_on_c, 0, 38, 62
1, 392160, Note_on_c, 0, 38, 0
1, 392160, Note_on_c, 0, 70, 0
1, 392160, Note_on_c, 0, 74, 0
1, 392160, Note_on_c, 0, 77, 0
1, 392160, Note_on_c, 0, 65, 75
1, 392160, Note_on_c, 0, 41, 70
1, 392320, Note_on_c, 0, 41, 0
1, 392320, Note_on_c, 0, 46, 63
1, 392480, Tempo, 419463
1, 392480, Note_on_c, 0, 46, 0
1, 392480, Note_on_c, 0, 50, 64
1, 392640, Tempo, 408525
1, 392640, Note_on_c, 0, 50, 0
1, 392640, Note_on_c, 0, 48, 70
1, 392657, Control_c, 0, 64, 0
1, 392720, Control_c, 0, 64, 127
1, 392800, Note_on_c, 0, 48, 0
1, 392800, Note_on_c, 0, 45, 63
1, 392960, Tempo, 421053
1, 392960, Note_on_c, 0, 45, 0
1, 392960, Note_on_c, 0, 41, 64
1, 393120, Tempo, 405488
1, 393120, Note_on_c, 0, 41, 0
1, 393120, Note_on_c, 0, 65, 0
1, 393120, Note_on_c, 0, 65, 75
1, 393120, Note_on_c, 0, 45, 70
1, 393280, Note_on_c, 0, 45, 0
1, 393280, Note_on_c, 0, 48, 65
1, 393440, Tempo, 421053
1, 393440, Note_on_c, 0, 48, 0
1, 393440, Note_on_c, 0, 51, 65
1, 393600, Tempo, 397535
1, 393600, Note_on_c, 0, 51, 0
1, 393600, Note_on_c, 0, 65, 0
1, 393600, Note_on_c, 0, 70, 82
1, 393600, Note_on_c, 0, 50, 64
1, 393605, Control_c, 0, 64, 0
1, 393669, Control_c, 0, 64, 127
1, 393760, Note_on_c, 0, 50, 0
1, 393760, Note_on_c, 0, 70, 0
1, 393760, Note_on_c, 0, 65, 74
1, 393760, Note_on_c, 0, 53, 56
1, 393920, Note_on_c, 0, 53, 0
1, 393920, Note_on_c, 0, 65, 0
1, 393920, Note_on_c, 0, 62, 74
1, 393920, Note_on_c, 0, 58, 56
1, 394080, Note_on_c, 0, 58, 0
1, 394080, Note_on_c, 0, 62, 0
1, 394080, Note_on_c, 0, 65, 82
1, 394080, Note_on_c, 0, 53, 64
1, 394240, Note_on_c, 0, 53, 0
1, 394240, Note_on_c, 0, 65, 0
1, 394240, Note_on_c, 0, 70, 74
1, 394240, Note_on_c, 0, 50, 57
1, 394400, Tempo, 417856
1, 394400, Note_on_c, 0, 50, 0
1, 394400, Note_on_c, 0, 70, 0
1, 394400, Note_on_c, 0, 74, 73
1, 394400, Note_on_c, 0, 46, 57
1, 394560, Tempo, 398910
1, 394560, Note_on_c, 0, 46, 0
1, 394560, Note_on_c, 0, 74, 0
1, 394560, Note_on_c, 0, 72, 82
1, 394560, Note_on_c, 0, 51, 64
1, 394572, Control_c, 0, 64, 0
1, 394652, Control_c, 0, 64, 127
1, 394720, Note_on_c, 0, 51, 0
1, 394720, Note_on_c, 0, 72, 0
1, 394720, Note_on_c, 0, 69, 74
1, 394720, Note_on_c, 0, 54, 56
1, 394880, Note_on_c, 0, 54, 0
1, 394880, Note_on_c, 0, 69, 0
1, 394880, Note_on_c, 0, 66, 74
1, 394880, Note_on_c, 0, 58, 56
1, 395040, Note_on_c, 0, 58, 0
1, 395040, Note_on_c, 0, 66, 0
1, 395040, Note_on_c, 0, 69, 82
1, 395040, Note_on_c, 0, 54, 64
1, 395200, Note_on_c, 0, 54, 0
1, 395200, Note_on_c, 0, 69, 0
1, 395200, Note_on_c, 0, 72, 75
1, 395200, Note_on_c, 0, 51, 57
1, 395360, Tempo, 416262
1, 395360, Note_on_c, 0, 51, 0
1, 395360, Note_on_c, 0, 72, 0
1, 395360, Note_on_c, 0, 75, 75
1, 395360, Note_on_c, 0, 46, 58
1, 395520, Tempo, 396170
1, 395520, Note_on_c, 0, 46, 0
1, 395520, Note_on_c, 0, 75, 0
1, 395520, Note_on_c, 0, 74, 82
1, 395520, Note_on_c, 0, 53, 64
1, 395532, Control_c, 0, 64, 0
1, 395572, Control_c, 0, 64, 127
1, 395680, Note_on_c, 0, 74, 0
1, 395680, Note_on_c, 0, 71, 74
1, 395680, Note_on_c, 0, 56, 56
1, 395840, Note_on_c, 0, 71, 0
1, 395840, Note_on_c, 0, 68, 77
1, 395840, Note_on_c, 0, 58, 56
1, 396000, Note_on_c, 0, 68, 0
1, 396000, Note_on_c, 0, 56, 0
1, 396000, Note_on_c, 0, 71, 82
1, 396000, Note_on_c, 0, 56, 64
1, 396160, Note_on_c, 0, 71, 0
1, 396160, Note_on_c, 0, 53, 0
1, 396160, Note_on_c, 0, 74, 75
1, 396160, Note_on_c, 0, 53, 57
1, 396320, Tempo, 441339
1, 396320, Note_on_c, 0, 74, 0
1, 396320, Note_on_c, 0, 77, 74
1, 396320, Note_on_c, 0, 46, 57
1, 396480, Tempo, 397535
1, 396480, Note_on_c, 0, 77, 0
1, 396480, Note_on_c, 0, 80, 82
1, 396640, Note_on_c, 0, 80, 0
1, 396640, Note_on_c, 0, 74, 74
1, 396800, Note_on_c, 0, 74, 0
1, 396800, Note_on_c, 0, 83, 74
1, 396960, Tempo, 396170
1, 396960, Note_on_c, 0, 83, 0
1, 396960, Note_on_c, 0, 74, 82
1, 397120, Note_on_c, 0, 74, 0
1, 397120, Note_on_c, 0, 71, 74
1, 397280, Note_on_c, 0, 71, 0
1, 397280, Note_on_c, 0, 80, 74
1, 397440, Tempo, 396170
1, 397440, Note_on_c, 0, 80, 0
1, 397440, Note_on_c, 0, 71, 82
1, 397600, Note_on_c, 0, 71, 0
1, 397600, Note_on_c, 0, 68, 74
1, 397760, Note_on_c, 0, 68, 0
1, 397760, Note_on_c, 0, 77, 74
1, 397920, Note_on_c, 0, 77, 0
1, 397920, Note_on_c, 0, 68, 78
1, 398080, Note_on_c, 0, 68, 0
1, 398080, Note_on_c, 0, 65, 74
1, 398240, Note_on_c, 0, 65, 0
1, 398240, Note_on_c, 0, 74, 74
1, 398400, Tempo, 397535
1, 398400, Note_on_c, 0, 74, 0
1, 398400, Note_on_c, 0, 68, 77
1, 398411, Control_c, 0, 64, 0
1, 398503, Control_c, 0, 64, 127
1, 398560, Note_on_c, 0, 68, 0
1, 398560, Note_on_c, 0, 62, 71
1, 398720, Note_on_c, 0, 62, 0
1, 398720, Note_on_c, 0, 71, 71
1, 398880, Tempo, 397535
1, 398880, Note_on_c, 0, 71, 0
1, 398880, Note_on_c, 0, 68, 76
1, 399040, Note_on_c, 0, 68, 0
1, 399040, Note_on_c, 0, 62, 71
1, 399200, Tempo, 433557
1, 399200, Note_on_c, 0, 62, 0
1, 399200, Note_on_c, 0, 70, 71
1, 399360, Tempo, 396170
1, 399360, Note_on_c, 0, 70, 0
1, 399360, Note_on_c, 0, 56, 0
1, 399360, Note_on_c, 0, 53, 0
1, 399360, Note_on_c, 0, 58, 0
1, 399360, Note_on_c, 0, 46, 0
1, 399360, Note_on_c, 0, 78, 82
1, 399360, Note_on_c, 0, 51, 64
1, 399380, Control_c, 0, 64, 0
1, 399435, Control_c, 0, 64, 127
1, 399520, Note_on_c, 0, 78, 0
1, 399520, Note_on_c, 0, 75, 74
1, 399520, Note_on_c, 0, 54, 56
1, 399680, Note_on_c, 0, 75, 0
1, 399680, Note_on_c, 0, 70, 77
1, 399680, Note_on_c, 0, 58, 56
1, 399840, Note_on_c, 0, 70, 0
1, 399840, Note_on_c, 0, 54, 0
1, 399840, Note_on_c, 0, 75, 82
1, 399840, Note_on_c, 0, 54, 64
1, 400000, Note_on_c, 0, 75, 0
1, 400000, Note_on_c, 0, 51, 0
1, 400000, Note_on_c, 0, 78, 75
1, 400000, Note_on_c, 0, 51, 57
1, 400160, Note_on_c, 0, 78, 0
1, 400160, Note_on_c, 0, 82, 74
1, 400160, Note_on_c, 0, 46, 57
1, 400320, Tempo, 397535
1, 400320, Note_on_c, 0, 82, 0
1, 400320, Note_on_c, 0, 78, 82
1, 400480, Note_on_c, 0, 78, 0
1, 400480, Note_on_c, 0, 75, 74
1, 400640, Note_on_c, 0, 75, 0
1, 400640, Note_on_c, 0, 87, 74
1, 400800, Tempo, 396170
1, 400800, Note_on_c, 0, 87, 0
1, 400800, Note_on_c, 0, 75, 82
1, 400960, Note_on_c, 0, 75, 0
1, 400960, Note_on_c, 0, 70, 74
1, 401120, Note_on_c, 0, 70, 0
1, 401120, Note_on_c, 0, 82, 74
1, 401280, Tempo, 396170
1, 401280, Note_on_c, 0, 82, 0
1, 401280, Note_on_c, 0, 70, 82
1, 401440, Note_on_c, 0, 70, 0
1, 401440, Note_on_c, 0, 66, 74
1, 401600, Note_on_c, 0, 66, 0
1, 401600, Note_on_c, 0, 78, 74
1, 401760, Note_on_c, 0, 78, 0
1, 401760, Note_on_c, 0, 66, 78
1, 401920, Note_on_c, 0, 66, 0
1, 401920, Note_on_c, 0, 63, 74
1, 402080, Note_on_c, 0, 63, 0
1, 402080, Note_on_c, 0, 75, 74
1, 402240, Tempo, 397535
1, 402240, Note_on_c, 0, 75, 0
1, 402240, Note_on_c, 0, 66, 77
1, 402400, Note_on_c, 0, 66, 0
1, 402400, Note_on_c, 0, 63, 71
1, 402560, Note_on_c, 0, 63, 0
1, 402560, Note_on_c, 0, 75, 71
1, 402720, Tempo, 397535
1, 402720, Note_on_c, 0, 75, 0
1, 402720, Note_on_c, 0, 66, 76
1, 402880, Note_on_c, 0, 66, 0
1, 402880, Note_on_c, 0, 63, 71
1, 403040, Tempo, 436840
1, 403040, Note_on_c, 0, 63, 0
1, 403040, Note_on_c, 0, 75, 71
1, 403200, Tempo, 396170
1, 403200, Note_on_c, 0, 75, 0
1, 403200, Note_on_c, 0, 54, 0
1, 403200, Note_on_c, 0, 51, 0
1, 403200, Note_on_c, 0, 58, 0
1, 403200, Note_on_c, 0, 46, 0
1, 403200, Note_on_c, 0, 78, 82
1, 403200, Note_on_c, 0, 49, 64
1, 403210, Control_c, 0, 64, 0
1, 403255, Control_c, 0, 64, 127
1, 403360, Note_on_c, 0, 78, 0
1, 403360, Note_on_c, 0, 76, 74
1, 403360, Note_on_c, 0, 54, 56
1, 403520, Note_on_c, 0, 76, 0
1, 403520, Note_on_c, 0, 73, 77
1, 403520, Note_on_c, 0, 58, 56
1, 403680, Note_on_c, 0, 73, 0
1, 403680, Note_on_c, 0, 54, 0
1, 403680, Note_on_c, 0, 76, 82
1, 403680, Note_on_c, 0, 54, 64
1, 403840, Note_on_c, 0, 76, 0
1, 403840, Note_on_c, 0, 49, 0
1, 403840, Note_on_c, 0, 78, 75
1, 403840, Note_on_c, 0, 49, 57
1, 404000, Note_on_c, 0, 78, 0
1, 404000, Note_on_c, 0, 85, 74
1, 404000, Note_on_c, 0, 46, 57
1, 404160, Tempo, 397535
1, 404160, Note_on_c, 0, 85, 0
1, 404160, Note_on_c, 0, 78, 82
1, 404320, Note_on_c, 0, 78, 0
1, 404320, Note_on_c, 0, 76, 74
1, 404480, Note_on_c, 0, 76, 0
1, 404480, Note_on_c, 0, 88, 74
1, 404640, Tempo, 396170
1, 404640, Note_on_c, 0, 88, 0
1, 404640, Note_on_c, 0, 76, 82
1, 404800, Note_on_c, 0, 76, 0
1, 404800, Note_on_c, 0, 73, 74
1, 404960, Note_on_c, 0, 73, 0
1, 404960, Note_on_c, 0, 85, 74
1, 405120, Tempo, 396170
1, 405120, Note_on_c, 0, 85, 0
1, 405120, Note_on_c, 0, 73, 82
1, 405280, Note_on_c, 0, 73, 0
1, 405280, Note_on_c, 0, 66, 74
1, 405440, Note_on_c, 0, 66, 0
1, 405440, Note_on_c, 0, 78, 74
1, 405600, Note_on_c, 0, 78, 0
1, 405600, Note_on_c, 0, 66, 78
1, 405760, Note_on_c, 0, 66, 0
1, 405760, Note_on_c, 0, 64, 74
1, 405920, Note_on_c, 0, 64, 0
1, 405920, Note_on_c, 0, 76, 74
1, 406080, Tempo, 397535
1, 406080, Note_on_c, 0, 76, 0
1, 406080, Note_on_c, 0, 66, 77
1, 406240, Note_on_c, 0, 66, 0
1, 406240, Note_on_c, 0, 64, 71
1, 406400, Note_on_c, 0, 64, 0
1, 406400, Note_on_c, 0, 76, 71
1, 406560, Tempo, 397535
1, 406560, Note_on_c, 0, 76, 0
1, 406560, Note_on_c, 0, 66, 76
1, 406720, Note_on_c, 0, 66, 0
1, 406720, Note_on_c, 0, 64, 71
1, 406880, Tempo, 436840
1, 406880, Note_on_c, 0, 64, 0
1, 406880, Note_on_c, 0, 76, 71
1, 407040, Tempo, 396170
1, 407040, Note_on_c, 0, 76, 0
1, 407040, Note_on_c, 0, 54, 0
1, 407040, Note_on_c, 0, 49, 0
1, 407040, Note_on_c, 0, 58, 0
1, 407040, Note_on_c, 0, 46, 0
1, 407040, Note_on_c, 0, 78, 82
1, 407040, Note_on_c, 0, 50, 64
1, 407056, Control_c, 0, 64, 0
1, 407129, Control_c, 0, 64, 127
1, 407200, Note_on_c, 0, 78, 0
1, 407200, Note_on_c, 0, 74, 74
1, 407200, Note_on_c, 0, 54, 56
1, 407360, Note_on_c, 0, 74, 0
1, 407360, Note_on_c, 0, 71, 77
1, 407360, Note_on_c, 0, 59, 56
1, 407520, Note_on_c, 0, 71, 0
1, 407520, Note_on_c, 0, 54, 0
1, 407520, Note_on_c, 0, 74, 82
1, 407520, Note_on_c, 0, 54, 64
1, 407680, Note_on_c, 0, 74, 0
1, 407680, Note_on_c, 0, 50, 0
1, 407680, Note_on_c, 0, 78, 75
1, 407680, Note_on_c, 0, 50, 57
1, 407840, Note_on_c, 0, 78, 0
1, 407840, Note_on_c, 0, 83, 74
1, 407840, Note_on_c, 0, 47, 57
1, 408000, Tempo, 397535
1, 408000, Note_on_c, 0, 83, 0
1, 408000, Note_on_c, 0, 78, 82
1, 408160, Note_on_c, 0, 78, 0
1, 408160, Note_on_c, 0, 74, 74
1, 408320, Note_on_c, 0, 74, 0
1, 408320, Note_on_c, 0, 86, 74
1, 408480, Tempo, 396170
1, 408480, Note_on_c, 0, 86, 0
1, 408480, Note_on_c, 0, 74, 82
1, 408640, Note_on_c, 0, 74, 0
1, 408640, Note_on_c, 0, 71, 74
1, 408800, Note_on_c, 0, 71, 0
1, 408800, Note_on_c, 0, 83, 74
1, 408960, Tempo, 396170
1, 408960, Note_on_c, 0, 83, 0
1, 408960, Note_on_c, 0, 71, 82
1, 409120, Note_on_c, 0, 71, 0
1, 409120, Note_on_c, 0, 66, 74
1, 409280, Note_on_c, 0, 66, 0
1, 409280, Note_on_c, 0, 78, 74
1, 409440, Note_on_c, 0, 78, 0
1, 409440, Note_on_c, 0, 66, 78
1, 409600, Note_on_c, 0, 66, 0
1, 409600, Note_on_c, 0, 62, 74
1, 409760, Note_on_c, 0, 62, 0
1, 409760, Note_on_c, 0, 74, 74
1, 409920, Tempo, 397535
1, 409920, Note_on_c, 0, 74, 0
1, 409920, Note_on_c, 0, 66, 77
1, 410080, Note_on_c, 0, 66, 0
1, 410080, Note_on_c, 0, 62, 71
1, 410240, Note_on_c, 0, 62, 0
1, 410240, Note_on_c, 0, 74, 71
1, 410400, Tempo, 397535
1, 410400, Note_on_c, 0, 74, 0
1, 410400, Note_on_c, 0, 66, 76
1, 410560, Note_on_c, 0, 66, 0
1, 410560, Note_on_c, 0, 62, 71
1, 410720, Tempo, 436840
1, 410720, Note_on_c, 0, 62, 0
1, 410720, Note_on_c, 0, 74, 71
1, 410880, Tempo, 396170
1, 410880, Note_on_c, 0, 74, 0
1, 410880, Note_on_c, 0, 54, 0
1, 410880, Note_on_c, 0, 50, 0
1, 410880, Note_on_c, 0, 59, 0
1, 410880, Note_on_c, 0, 47, 0
1, 410880, Note_on_c, 0, 79, 82
1, 410880, Note_on_c, 0, 50, 64
1, 410893, Control_c, 0, 64, 0
1, 410951, Control_c, 0, 64, 127
1, 411040, Note_on_c, 0, 79, 0
1, 411040, Note_on_c, 0, 74, 74
1, 411040, Note_on_c, 0, 55, 56
1, 411200, Note_on_c, 0, 74, 0
1, 411200, Note_on_c, 0, 71, 77
1, 411200, Note_on_c, 0, 59, 56
1, 411360, Note_on_c, 0, 71, 0
1, 411360, Note_on_c, 0, 55, 0
1, 411360, Note_on_c, 0, 74, 82
1, 411360, Note_on_c, 0, 55, 64
1, 411520, Note_on_c, 0, 74, 0
1, 411520, Note_on_c, 0, 50, 0
1, 411520, Note_on_c, 0, 79, 75
1, 411520, Note_on_c, 0, 50, 57
1, 411680, Note_on_c, 0, 79, 0
1, 411680, Note_on_c, 0, 83, 74
1, 411680, Note_on_c, 0, 47, 57
1, 411840, Tempo, 397535
1, 411840, Note_on_c, 0, 83, 0
1, 411840, Note_on_c, 0, 79, 82
1, 412000, Note_on_c, 0, 79, 0
1, 412000, Note_on_c, 0, 74, 74
1, 412160, Note_on_c, 0, 74, 0
1, 412160, Note_on_c, 0, 86, 74
1, 412320, Tempo, 396170
1, 412320, Note_on_c, 0, 86, 0
1, 412320, Note_on_c, 0, 74, 82
1, 412480, Note_on_c, 0, 74, 0
1, 412480, Note_on_c, 0, 71, 74
1, 412640, Note_on_c, 0, 71, 0
1, 412640, Note_on_c, 0, 83, 74
1, 412800, Tempo, 396170
1, 412800, Note_on_c, 0, 83, 0
1, 412800, Note_on_c, 0, 71, 82
1, 412960, Note_on_c, 0, 71, 0
1, 412960, Note_on_c, 0, 67, 74
1, 413120, Note_on_c, 0, 67, 0
1, 413120, Note_on_c, 0, 79, 74
1, 413280, Note_on_c, 0, 79, 0
1, 413280, Note_on_c, 0, 67, 78
1, 413440, Note_on_c, 0, 67, 0
1, 413440, Note_on_c, 0, 65, 74
1, 413600, Note_on_c, 0, 65, 0
1, 413600, Note_on_c, 0, 77, 74
1, 413760, Tempo, 397535
1, 413760, Note_on_c, 0, 77, 0
1, 413760, Note_on_c, 0, 67, 77
1, 413920, Note_on_c, 0, 67, 0
1, 413920, Note_on_c, 0, 62, 71
1, 414080, Note_on_c, 0, 62, 0
1, 414080, Note_on_c, 0, 74, 71
1, 414240, Tempo, 397535
1, 414240, Note_on_c, 0, 74, 0
1, 414240, Note_on_c, 0, 67, 76
1, 414400, Note_on_c, 0, 67, 0
1, 414400, Note_on_c, 0, 62, 71
1, 414560, Tempo, 436840
1, 414560, Note_on_c, 0, 62, 0
1, 414560, Note_on_c, 0, 74, 71
1, 414720, Tempo, 396170
1, 414720, Note_on_c, 0, 74, 0
1, 414720, Note_on_c, 0, 55, 0
1, 414720, Note_on_c, 0, 50, 0
1, 414720, Note_on_c, 0, 59, 0
1, 414720, Note_on_c, 0, 47, 0
1, 414720, Note_on_c, 0, 84, 82
1, 414720, Note_on_c, 0, 51, 64
1, 414734, Control_c, 0, 64, 0
1, 414784, Control_c, 0, 64, 127
1, 414880, Note_on_c, 0, 84, 0
1, 414880, Note_on_c, 0, 79, 74
1, 414880, Note_on_c, 0, 55, 56
1, 415040, Note_on_c, 0, 79, 0
1, 415040, Note_on_c, 0, 75, 77
1, 415040, Note_on_c, 0, 60, 56
1, 415200, Note_on_c, 0, 75, 0
1, 415200, Note_on_c, 0, 55, 0
1, 415200, Note_on_c, 0, 79, 82
1, 415200, Note_on_c, 0, 55, 64
1, 415360, Note_on_c, 0, 79, 0
1, 415360, Note_on_c, 0, 51, 0
1, 415360, Note_on_c, 0, 84, 75
1, 415360, Note_on_c, 0, 51, 57
1, 415520, Note_on_c, 0, 84, 0
1, 415520, Note_on_c, 0, 87, 74
1, 415520, Note_on_c, 0, 48, 57
1, 415680, Tempo, 397535
1, 415680, Note_on_c, 0, 87, 0
1, 415680, Note_on_c, 0, 79, 82
1, 415840, Note_on_c, 0, 79, 0
1, 415840, Note_on_c, 0, 75, 74
1, 416000, Note_on_c, 0, 75, 0
1, 416000, Note_on_c, 0, 87, 74
1, 416160, Tempo, 396170
1, 416160, Note_on_c, 0, 87, 0
1, 416160, Note_on_c, 0, 75, 82
1, 416320, Note_on_c, 0, 75, 0
1, 416320, Note_on_c, 0, 72, 74
1, 416480, Note_on_c, 0, 72, 0
1, 416480, Note_on_c, 0, 84, 74
1, 416640, Tempo, 396170
1, 416640, Note_on_c, 0, 84, 0
1, 416640, Note_on_c, 0, 72, 82
1, 416800, Note_on_c, 0, 72, 0
1, 416800, Note_on_c, 0, 67, 74
1, 416960, Note_on_c, 0, 67, 0
1, 416960, Note_on_c, 0, 79, 74
1, 417120, Note_on_c, 0, 79, 0
1, 417120, Note_on_c, 0, 67, 78
1, 417280, Note_on_c, 0, 67, 0
1, 417280, Note_on_c, 0, 63, 74
1, 417440, Note_on_c, 0, 63, 0
1, 417440, Note_on_c, 0, 75, 74
1, 417600, Tempo, 397535
1, 417600, Note_on_c, 0, 75, 0
1, 417600, Note_on_c, 0, 67, 77
1, 417760, Note_on_c, 0, 67, 0
1, 417760, Note_on_c, 0, 63, 71
1, 417920, Note_on_c, 0, 63, 0
1, 417920, Note_on_c, 0, 75, 71
1, 418080, Tempo, 397535
1, 418080, Note_on_c, 0, 75, 0
1, 418080, Note_on_c, 0, 67, 76
1, 418240, Note_on_c, 0, 67, 0
1, 418240, Note_on_c, 0, 63, 71
1, 418400, Tempo, 436840
1, 418400, Note_on_c, 0, 63, 0
1, 418400, Note_on_c, 0, 75, 71
1, 418560, Tempo, 396170
1, 418560, Note_on_c, 0, 75, 0
1, 418560, Note_on_c, 0, 55, 0
1, 418560, Note_on_c, 0, 51, 0
1, 418560, Note_on_c, 0, 60, 0
1, 418560, Note_on_c, 0, 48, 0
1, 418560, Note_on_c, 0, 77, 82
1, 418560, Note_on_c, 0, 56, 64
1, 418573, Control_c, 0, 64, 0
1, 418606, Control_c, 0, 64, 127
1, 418720, Note_on_c, 0, 77, 0
1, 418720, Note_on_c, 0, 73, 74
1, 418720, Note_on_c, 0, 61, 56
1, 418880, Note_on_c, 0, 73, 0
1, 418880, Note_on_c, 0, 68, 77
1, 418880, Note_on_c, 0, 65, 56
1, 419040, Note_on_c, 0, 68, 0
1, 419040, Note_on_c, 0, 61, 0
1, 419040, Note_on_c, 0, 73, 82
1, 419040, Note_on_c, 0, 61, 64
1, 419200, Note_on_c, 0, 73, 0
1, 419200, Note_on_c, 0, 56, 0
1, 419200, Note_on_c, 0, 77, 75
1, 419200, Note_on_c, 0, 56, 57
1, 419360, Note_on_c, 0, 77, 0
1, 419360, Note_on_c, 0, 80, 74
1, 419360, Note_on_c, 0, 53, 57
1, 419520, Tempo, 397535
1, 419520, Note_on_c, 0, 80, 0
1, 419520, Note_on_c, 0, 77, 82
1, 419680, Note_on_c, 0, 77, 0
1, 419680, Note_on_c, 0, 73, 74
1, 419840, Note_on_c, 0, 73, 0
1, 419840, Note_on_c, 0, 68, 74
1, 420000, Tempo, 396170
1, 420000, Note_on_c, 0, 68, 0
1, 420000, Note_on_c, 0, 77, 82
1, 420160, Note_on_c, 0, 77, 0
1, 420160, Note_on_c, 0, 73, 74
1, 420320, Note_on_c, 0, 73, 0
1, 420320, Note_on_c, 0, 68, 74
1, 420480, Tempo, 396170
1, 420480, Note_on_c, 0, 68, 0
1, 420480, Note_on_c, 0, 61, 0
1, 420480, Note_on_c, 0, 56, 0
1, 420480, Note_on_c, 0, 65, 0
1, 420480, Note_on_c, 0, 53, 0
1, 420480, Note_on_c, 0, 75, 82
1, 420480, Note_on_c, 0, 60, 64
1, 420497, Control_c, 0, 64, 0
1, 420549, Control_c, 0, 64, 127
1, 420640, Note_on_c, 0, 75, 0
1, 420640, Note_on_c, 0, 72, 74
1, 420640, Note_on_c, 0, 63, 56
1, 420800, Note_on_c, 0, 72, 0
1, 420800, Note_on_c, 0, 69, 77
1, 420800, Note_on_c, 0, 66, 56
1, 420960, Note_on_c, 0, 69, 0
1, 420960, Note_on_c, 0, 63, 0
1, 420960, Note_on_c, 0, 72, 82
1, 420960, Note_on_c, 0, 63, 64
1, 421120, Note_on_c, 0, 72, 0
1, 421120, Note_on_c, 0, 60, 0
1, 421120, Note_on_c, 0, 75, 75
1, 421120, Note_on_c, 0, 60, 57
1, 421280, Note_on_c, 0, 75, 0
1, 421280, Note_on_c, 0, 81, 74
1, 421280, Note_on_c, 0, 54, 57
1, 421440, Tempo, 397535
1, 421440, Note_on_c, 0, 81, 0
1, 421440, Note_on_c, 0, 63, 0
1, 421440, Note_on_c, 0, 75, 82
1, 421600, Note_on_c, 0, 75, 0
1, 421600, Note_on_c, 0, 72, 74
1, 421760, Note_on_c, 0, 72, 0
1, 421760, Note_on_c, 0, 69, 74
1, 421920, Tempo, 396170
1, 421920, Note_on_c, 0, 69, 0
1, 421920, Note_on_c, 0, 75, 82
1, 422080, Note_on_c, 0, 75, 0
1, 422080, Note_on_c, 0, 72, 74
1, 422240, Note_on_c, 0, 72, 0
1, 422240, Note_on_c, 0, 69, 74
1, 422400, Tempo, 396170
1, 422400, Note_on_c, 0, 69, 0
1, 422400, Note_on_c, 0, 60, 0
1, 422400, Note_on_c, 0, 66, 0
1, 422400, Note_on_c, 0, 54, 0
1, 422400, Note_on_c, 0, 59, 70
1, 422414, Control_c, 0, 64, 0
1, 422478, Control_c, 0, 64, 127
1, 422560, Note_on_c, 0, 62, 61
1, 422720, Note_on_c, 0, 67, 61
1, 422860, Tempo, 392157
1, 422880, Note_on_c, 0, 62, 0
1, 422880, Note_on_c, 0, 71, 83
1, 422880, Note_on_c, 0, 62, 70
1, 423040, Note_on_c, 0, 71, 0
1, 423040, Note_on_c, 0, 59, 0
1, 423040, Note_on_c, 0, 74, 72
1, 423040, Note_on_c, 0, 59, 62
1, 423200, Note_on_c, 0, 74, 0
1, 423200, Note_on_c, 0, 79, 72
1, 423200, Note_on_c, 0, 55, 62
1, 423360, Tempo, 397535
1, 423360, Note_on_c, 0, 79, 0
1, 423360, Note_on_c, 0, 74, 83
1, 423520, Note_on_c, 0, 74, 0
1, 423520, Note_on_c, 0, 71, 71
1, 423680, Tempo, 474721
1, 423680, Note_on_c, 0, 71, 0
1, 423680, Note_on_c, 0, 67, 70
1, 423840, Tempo, 396170
1, 423840, Note_on_c, 0, 67, 0
1, 423840, Note_on_c, 0, 59, 0
1, 423840, Note_on_c, 0, 62, 0
1, 423840, Note_on_c, 0, 67, 0
1, 423840, Note_on_c, 0, 77, 58
1, 423840, Note_on_c, 0, 62, 36
1, 423851, Control_c, 0, 64, 0
1, 423911, Control_c, 0, 64, 127
1, 424000, Note_on_c, 0, 77, 0
1, 424000, Note_on_c, 0, 71, 47
1, 424160, Tempo, 428663
1, 424160, Note_on_c, 0, 71, 0
1, 424160, Note_on_c, 0, 67, 47
1, 424320, Tempo, 397535
1, 424320, Note_on_c, 0, 67, 0
1, 424320, Note_on_c, 0, 62, 0
1, 424320, Note_on_c, 0, 77, 55
1, 424320, Note_on_c, 0, 59, 41
1, 424480, Note_on_c, 0, 77, 0
1, 424480, Note_on_c, 0, 74, 47
1, 424640, Tempo, 423938
1, 424640, Note_on_c, 0, 74, 0
1, 424640, Note_on_c, 0, 67, 47
1, 424800, Tempo, 397535
1, 424800, Note_on_c, 0, 67, 0
1, 424800, Note_on_c, 0, 59, 0
1, 424800, Note_on_c, 0, 55, 0
1, 424800, Note_on_c, 0, 75, 55
1, 424800, Note_on_c, 0, 55, 36
1, 424815, Control_c, 0, 64, 0
1, 424875, Control_c, 0, 64, 127
1, 424960, Note_on_c, 0, 75, 0
1, 424960, Note_on_c, 0, 74, 47
1, 425120, Tempo, 423938
1, 425120, Note_on_c, 0, 74, 0
1, 425120, Note_on_c, 0, 67, 47
1, 425280, Tempo, 397535
1, 425280, Note_on_c, 0, 67, 0
1, 425280, Note_on_c, 0, 75, 55
1, 425280, Note_on_c, 0, 60, 36
1, 425300, Control_c, 0, 64, 0
1, 425360, Control_c, 0, 64, 127
1, 425440, Note_on_c, 0, 75, 0
1, 425440, Note_on_c, 0, 72, 48
1, 425600, Tempo, 420846
1, 425600, Note_on_c, 0, 72, 0
1, 425600, Note_on_c, 0, 67, 48
1, 425760, Tempo, 397535
1, 425760, Note_on_c, 0, 67, 0
1, 425760, Note_on_c, 0, 60, 0
1, 425760, Note_on_c, 0, 74, 55
1, 425760, Note_on_c, 0, 66, 36
1, 425770, Control_c, 0, 64, 0
1, 425857, Control_c, 0, 64, 127
1, 425920, Note_on_c, 0, 74, 0
1, 425920, Note_on_c, 0, 72, 47
1, 426080, Tempo, 495213
1, 426080, Note_on_c, 0, 72, 0
1, 426080, Note_on_c, 0, 69, 47
1, 426240, Tempo, 396170
1, 426240, Note_on_c, 0, 69, 0
1, 426240, Note_on_c, 0, 66, 0
1, 426240, Note_on_c, 0, 55, 0
1, 426240, Note_on_c, 0, 47, 62
1, 426259, Control_c, 0, 64, 0
1, 426318, Control_c, 0, 64, 127
1, 426400, Note_on_c, 0, 50, 55
1, 426560, Note_on_c, 0, 55, 55
1, 426700, Tempo, 392157
1, 426720, Note_on_c, 0, 50, 0
1, 426720, Note_on_c, 0, 59, 78
1, 426720, Note_on_c, 0, 50, 62
1, 426880, Note_on_c, 0, 59, 0
1, 426880, Note_on_c, 0, 47, 0
1, 426880, Note_on_c, 0, 62, 71
1, 426880, Note_on_c, 0, 47, 56
1, 427040, Note_on_c, 0, 62, 0
1, 427040, Note_on_c, 0, 67, 71
1, 427040, Note_on_c, 0, 43, 56
1, 427200, Tempo, 397535
1, 427200, Note_on_c, 0, 67, 0
1, 427200, Note_on_c, 0, 62, 74
1, 427360, Note_on_c, 0, 62, 0
1, 427360, Note_on_c, 0, 59, 63
1, 427515, Note_on_c, 0, 55, 0
1, 427520, Tempo, 474721
1, 427520, Note_on_c, 0, 59, 0
1, 427520, Note_on_c, 0, 55, 62
1, 427680, Tempo, 396170
1, 427680, Note_on_c, 0, 55, 0
1, 427680, Note_on_c, 0, 47, 0
1, 427680, Note_on_c, 0, 50, 0
1, 427680, Note_on_c, 0, 65, 52
1, 427680, Note_on_c, 0, 50, 32
1, 427691, Control_c, 0, 64, 0
1, 427737, Control_c, 0, 64, 127
1, 427840, Note_on_c, 0, 65, 0
1, 427840, Note_on_c, 0, 59, 42
1, 428000, Tempo, 428663
1, 428000, Note_on_c, 0, 59, 0
1, 428000, Note_on_c, 0, 55, 42
1, 428160, Tempo, 397535
1, 428160, Note_on_c, 0, 55, 0
1, 428160, Note_on_c, 0, 50, 0
1, 428160, Note_on_c, 0, 65, 49
1, 428160, Note_on_c, 0, 47, 36
1, 428320, Note_on_c, 0, 65, 0
1, 428320, Note_on_c, 0, 62, 42
1, 428480, Tempo, 423938
1, 428480, Note_on_c, 0, 62, 0
1, 428480, Note_on_c, 0, 55, 42
1, 428640, Tempo, 397535
1, 428640, Note_on_c, 0, 55, 0
1, 428640, Note_on_c, 0, 47, 0
1, 428640, Note_on_c, 0, 43, 0
1, 428640, Note_on_c, 0, 63, 49
1, 428640, Note_on_c, 0, 43, 32
1, 428650, Control_c, 0, 64, 0
1, 428697, Control_c, 0, 64, 127
1, 428800, Note_on_c, 0, 63, 0
1, 428800, Note_on_c, 0, 62, 42
1, 428960, Tempo, 423938
1, 428960, Note_on_c, 0, 62, 0
1, 428960, Note_on_c, 0, 55, 42
1, 429120, Tempo, 397535
1, 429120, Note_on_c, 0, 55, 0
1, 429120, Note_on_c, 0, 63, 49
1, 429120, Note_on_c, 0, 48, 32
1, 429134, Control_c, 0, 64, 0
1, 429183, Control_c, 0, 64, 127
1, 429280, Note_on_c, 0, 63, 0
1, 429280, Note_on_c, 0, 60, 43
1, 429440, Tempo, 420846
1, 429440, Note_on_c, 0, 60, 0
1, 429440, Note_on_c, 0, 55, 43
1, 429600, Tempo, 397535
1, 429600, Note_on_c, 0, 55, 0
1, 429600, Note_on_c, 0, 48, 0
1, 429600, Note_on_c, 0, 62, 49
1, 429600, Note_on_c, 0, 54, 32
1, 429612, Control_c, 0, 64, 0
1, 429675, Control_c, 0, 64, 127
1, 429760, Note_on_c, 0, 62, 0
1, 429760, Note_on_c, 0, 60, 42
1, 429920, Tempo, 417769
1, 429920, Note_on_c, 0, 60, 0
1, 429920, Note_on_c, 0, 57, 42
1, 430080, Tempo, 397535
1, 430080, Note_on_c, 0, 57, 0
1, 430080, Note_on_c, 0, 54, 0
1, 430080, Note_on_c, 0, 62, 49
1, 430080, Note_on_c, 0, 55, 36
1, 430089, Control_c, 0, 64, 0
1, 430166, Control_c, 0, 64, 127
1, 430240, Note_on_c, 0, 62, 0
1, 430240, Note_on_c, 0, 59, 42
1, 430320, Note_on_c, 0, 55, 0
1, 430320, Note_on_c, 0, 43, 0
1, 430400, Tempo, 423938
1, 430400, Note_on_c, 0, 59, 0
1, 430400, Note_on_c, 0, 55, 42
1, 430560, Tempo, 400320
1, 430560, Note_on_c, 0, 55, 0
1, 430560, Note_on_c, 0, 60, 49
1, 430560, Note_on_c, 0, 48, 32
1, 430576, Control_c, 0, 64, 0
1, 430635, Control_c, 0, 64, 127
1, 430720, Note_on_c, 0, 60, 0
1, 430720, Note_on_c, 0, 55, 42
1, 430880, Tempo, 428663
1, 430880, Note_on_c, 0, 55, 0
1, 430880, Note_on_c, 0, 51, 41
1, 431040, Tempo, 403090
1, 431040, Note_on_c, 0, 51, 0
1, 431040, Note_on_c, 0, 48, 0
1, 431040, Note_on_c, 0, 59, 48
1, 431040, Note_on_c, 0, 43, 31
1, 431057, Control_c, 0, 64, 0
1, 431126, Control_c, 0, 64, 127
1, 431200, Note_on_c, 0, 59, 0
1, 431200, Note_on_c, 0, 55, 41
1, 431360, Tempo, 428663
1, 431360, Note_on_c, 0, 55, 0
1, 431360, Note_on_c, 0, 50, 41
1, 431520, Tempo, 405954
1, 431520, Note_on_c, 0, 50, 0
1, 431520, Note_on_c, 0, 43, 0
1, 431520, Note_on_c, 0, 57, 46
1, 431520, Note_on_c, 0, 36, 30
1, 431533, Control_c, 0, 64, 0
1, 431623, Control_c, 0, 64, 127
1, 431680, Note_on_c, 0, 57, 0
1, 431680, Note_on_c, 0, 51, 39
1, 431840, Tempo, 430293
1, 431840, Note_on_c, 0, 51, 0
1, 431840, Note_on_c, 0, 48, 39
1, 432000, Tempo, 408831
1, 432000, Note_on_c, 0, 48, 0
1, 432000, Note_on_c, 0, 36, 0
1, 432000, Note_on_c, 0, 55, 45
1, 432000, Note_on_c, 0, 31, 33
1, 432012, Control_c, 0, 64, 0
1, 432063, Control_c, 0, 64, 127
1, 432160, Note_on_c, 0, 55, 0
1, 432160, Note_on_c, 0, 50, 38
1, 432320, Tempo, 433557
1, 432320, Note_on_c, 0, 50, 0
1, 432320, Note_on_c, 0, 47, 37
1, 432480, Tempo, 413280
1, 432480, Note_on_c, 0, 47, 0
1, 432480, Note_on_c, 0, 31, 0
1, 432480, Note_on_c, 0, 54, 43
1, 432480, Note_on_c, 0, 36, 28
1, 432497, Control_c, 0, 64, 0
1, 432555, Control_c, 0, 64, 127
1, 432640, Note_on_c, 0, 54, 0
1, 432640, Note_on_c, 0, 51, 36
1, 432800, Tempo, 435161
1, 432800, Note_on_c, 0, 51, 0
1, 432800, Note_on_c, 0, 45, 36
1, 432960, Tempo, 414766
1, 432960, Note_on_c, 0, 45, 0
1, 432960, Note_on_c, 0, 36, 0
1, 432960, Note_on_c, 0, 55, 42
1, 432960, Note_on_c, 0, 31, 27
1, 432977, Control_c, 0, 64, 0
1, 433029, Control_c, 0, 64, 127
1, 433120, Note_on_c, 0, 55, 0
1, 433120, Note_on_c, 0, 50, 36
1, 433280, Tempo, 435161
1, 433280, Note_on_c, 0, 50, 0
1, 433280, Note_on_c, 0, 47, 36
1, 433440, Tempo, 419317
1, 433440, Note_on_c, 0, 47, 0
1, 433440, Note_on_c, 0, 31, 0
1, 433440, Note_on_c, 0, 54, 40
1, 433440, Note_on_c, 0, 36, 26
1, 433457, Control_c, 0, 64, 0
1, 433503, Control_c, 0, 64, 127
1, 433600, Note_on_c, 0, 54, 0
1, 433600, Note_on_c, 0, 51, 34
1, 433760, Tempo, 440205
1, 433760, Note_on_c, 0, 51, 0
1, 433760, Note_on_c, 0, 45, 34
1, 433920, Tempo, 399707
1, 433920, Note_on_c, 0, 45, 0
1, 433920, Note_on_c, 0, 36, 0
1, 433920, Note_on_c, 0, 47, 38
1, 433920, Note_on_c, 0, 50, 38
1, 433920, Note_on_c, 0, 55, 45
1, 433920, Note_on_c, 0, 31, 37
1, 433935, Control_c, 0, 64, 0
1, 434040, Note_on_c, 0, 31, 0
1, 434040, Note_on_c, 0, 36, 33
1, 434160, Note_on_c, 0, 36, 0
1, 434160, Note_on_c, 0, 35, 33
1, 434280, Note_on_c, 0, 35, 0
1, 434280, Note_on_c, 0, 33, 33
1, 434400, Note_on_c, 0, 33, 0
1, 434400, Note_on_c, 0, 31, 37
1, 434520, Note_on_c, 0, 31, 0
1, 434520, Note_on_c, 0, 36, 33
1, 434640, Note_on_c, 0, 36, 0
1, 434640, Note_on_c, 0, 35, 33
1, 434760, Note_on_c, 0, 35, 0
1, 434760, Note_on_c, 0, 33, 33
1, 434880, Note_on_c, 0, 33, 0
1, 434880, Note_on_c, 0, 31, 37
1, 435000, Note_on_c, 0, 31, 0
1, 435000, Note_on_c, 0, 36, 33
1, 435120, Note_on_c, 0, 36, 0
1, 435120, Note_on_c, 0, 35, 33
1, 435240, Note_on_c, 0, 35, 0
1, 435240, Note_on_c, 0, 33, 33
1, 435360, Note_on_c, 0, 33, 0
1, 435360, Note_on_c, 0, 31, 37
1, 435480, Note_on_c, 0, 31, 0
1, 435480, Note_on_c, 0, 36, 33
1, 435600, Note_on_c, 0, 36, 0
1, 435600, Note_on_c, 0, 35, 33
1, 435720, Note_on_c, 0, 35, 0
1, 435720, Note_on_c, 0, 33, 33
1, 435824, Tempo, 377572
1, 435840, Tempo, 427716
1, 435840, Note_on_c, 0, 33, 0
1, 435840, Note_on_c, 0, 31, 33
1, 435960, Tempo, 399707
1, 435960, Note_on_c, 0, 55, 0
1, 435960, Note_on_c, 0, 47, 0
1, 435960, Note_on_c, 0, 50, 0
1, 435960, Note_on_c, 0, 50, 40
1, 436080, Note_on_c, 0, 50, 0
1, 436080, Note_on_c, 0, 52, 40
1, 436200, Note_on_c, 0, 52, 0
1, 436200, Note_on_c, 0, 54, 40
1, 436320, Note_on_c, 0, 54, 0
1, 436320, Note_on_c, 0, 55, 45
1, 436440, Note_on_c, 0, 55, 0
1, 436440, Note_on_c, 0, 50, 40
1, 436560, Note_on_c, 0, 50, 0
1, 436560, Note_on_c, 0, 52, 40
1, 436680, Note_on_c, 0, 52, 0
1, 436680, Note_on_c, 0, 54, 40
1, 436800, Note_on_c, 0, 54, 0
1, 436800, Note_on_c, 0, 55, 45
1, 436920, Note_on_c, 0, 55, 0
1, 436920, Note_on_c, 0, 50, 40
1, 437040, Note_on_c, 0, 50, 0
1, 437040, Note_on_c, 0, 52, 40
1, 437160, Note_on_c, 0, 52, 0
1, 437160, Note_on_c, 0, 54, 40
1, 437280, Note_on_c, 0, 54, 0
1, 437280, Note_on_c, 0, 55, 46
1, 437400, Note_on_c, 0, 55, 0
1, 437400, Note_on_c, 0, 50, 40
1, 437520, Note_on_c, 0, 50, 0
1, 437520, Note_on_c, 0, 52, 40
1, 437640, Note_on_c, 0, 52, 0
1, 437640, Note_on_c, 0, 54, 40
1, 437760, Tempo, 430911
1, 437760, Note_on_c, 0, 54, 0
1, 437760, Note_on_c, 0, 55, 45
1, 437880, Tempo, 399707
1, 437880, Note_on_c, 0, 31, 0
1, 437880, Note_on_c, 0, 36, 33
1, 438000, Note_on_c, 0, 36, 0
1, 438000, Note_on_c, 0, 35, 33
1, 438120, Note_on_c, 0, 35, 0
1, 438120, Note_on_c, 0, 33, 33
1, 438240, Note_on_c, 0, 33, 0
1, 438240, Note_on_c, 0, 31, 37
1, 438360, Note_on_c, 0, 31, 0
1, 438360, Note_on_c, 0, 36, 33
1, 438480, Note_on_c, 0, 36, 0
1, 438480, Note_on_c, 0, 35, 33
1, 438600, Note_on_c, 0, 35, 0
1, 438600, Note_on_c, 0, 33, 33
1, 438720, Note_on_c, 0, 33, 0
1, 438720, Note_on_c, 0, 31, 37
1, 438840, Note_on_c, 0, 31, 0
1, 438840, Note_on_c, 0, 36, 33
1, 438960, Note_on_c, 0, 36, 0
1, 438960, Note_on_c, 0, 35, 33
1, 439080, Note_on_c, 0, 35, 0
1, 439080, Note_on_c, 0, 33, 33
1, 439200, Note_on_c, 0, 33, 0
1, 439200, Note_on_c, 0, 31, 37
1, 439320, Note_on_c, 0, 31, 0
1, 439320, Note_on_c, 0, 36, 33
1, 439440, Note_on_c, 0, 36, 0
1, 439440, Note_on_c, 0, 35, 33
1, 439560, Note_on_c, 0, 35, 0
1, 439560, Note_on_c, 0, 33, 33
1, 439680, Tempo, 427716
1, 439680, Note_on_c, 0, 33, 0
1, 439680, Note_on_c, 0, 31, 33
1, 439800, Tempo, 399707
1, 439800, Note_on_c, 0, 55, 0
1, 439800, Note_on_c, 0, 54, 40
1, 439920, Note_on_c, 0, 54, 0
1, 439920, Note_on_c, 0, 55, 40
1, 440040, Note_on_c, 0, 55, 0
1, 440040, Note_on_c, 0, 57, 40
1, 440160, Note_on_c, 0, 57, 0
1, 440160, Note_on_c, 0, 59, 45
1, 440280, Note_on_c, 0, 59, 0
1, 440280, Note_on_c, 0, 54, 40
1, 440400, Note_on_c, 0, 54, 0
1, 440400, Note_on_c, 0, 55, 40
1, 440520, Note_on_c, 0, 55, 0
1, 440520, Note_on_c, 0, 57, 40
1, 440640, Note_on_c, 0, 57, 0
1, 440640, Note_on_c, 0, 59, 45
1, 440760, Note_on_c, 0, 59, 0
1, 440760, Note_on_c, 0, 54, 40
1, 440880, Note_on_c, 0, 54, 0
1, 440880, Note_on_c, 0, 55, 40
1, 441000, Note_on_c, 0, 55, 0
1, 441000, Note_on_c, 0, 57, 40
1, 441120, Note_on_c, 0, 57, 0
1, 441120, Note_on_c, 0, 59, 46
1, 441240, Note_on_c, 0, 59, 0
1, 441240, Note_on_c, 0, 54, 40
1, 441360, Note_on_c, 0, 54, 0
1, 441360, Note_on_c, 0, 55, 40
1, 441480, Note_on_c, 0, 55, 0
1, 441480, Note_on_c, 0, 57, 40
1, 441600, Tempo, 399707
1, 441600, Note_on_c, 0, 57, 0
1, 441600, Note_on_c, 0, 59, 45
1, 441720, Note_on_c, 0, 31, 0
1, 441720, Note_on_c, 0, 36, 33
1, 441840, Note_on_c, 0, 36, 0
1, 441840, Note_on_c, 0, 59, 0
1, 441840, Note_on_c, 0, 35, 33
1, 441960, Note_on_c, 0, 35, 0
1, 441960, Note_on_c, 0, 33, 33
1, 442080, Note_on_c, 0, 33, 0
1, 442080, Note_on_c, 0, 31, 37
1, 442200, Note_on_c, 0, 31, 0
1, 442200, Note_on_c, 0, 36, 33
1, 442320, Note_on_c, 0, 36, 0
1, 442320, Note_on_c, 0, 59, 41
1, 442320, Note_on_c, 0, 35, 33
1, 442440, Note_on_c, 0, 35, 0
1, 442440, Note_on_c, 0, 59, 0
1, 442440, Note_on_c, 0, 60, 44
1, 442440, Note_on_c, 0, 33, 33
1, 442560, Note_on_c, 0, 33, 0
1, 442560, Note_on_c, 0, 60, 0
1, 442560, Note_on_c, 0, 62, 48
1, 442560, Note_on_c, 0, 31, 38
1, 442680, Note_on_c, 0, 31, 0
1, 442680, Note_on_c, 0, 62, 0
1, 442680, Note_on_c, 0, 36, 33
1, 442800, Note_on_c, 0, 36, 0
1, 442800, Note_on_c, 0, 35, 34
1, 442920, Note_on_c, 0, 35, 0
1, 442920, Note_on_c, 0, 33, 34
1, 443040, Note_on_c, 0, 33, 0
1, 443040, Note_on_c, 0, 31, 38
1, 443160, Note_on_c, 0, 31, 0
1, 443160, Note_on_c, 0, 36, 34
1, 443280, Note_on_c, 0, 36, 0
1, 443280, Note_on_c, 0, 62, 45
1, 443280, Note_on_c, 0, 35, 34
1, 443360, Note_on_c, 0, 62, 0
1, 443360, Note_on_c, 0, 64, 47
1, 443400, Note_on_c, 0, 35, 0
1, 443400, Note_on_c, 0, 33, 34
1, 443440, Note_on_c, 0, 64, 0
1, 443440, Note_on_c, 0, 66, 48
1, 443520, Tempo, 396957
1, 443520, Note_on_c, 0, 66, 0
1, 443520, Note_on_c, 0, 33, 0
1, 443520, Note_on_c, 0, 67, 53
1, 443520, Note_on_c, 0, 31, 39
1, 443640, Note_on_c, 0, 31, 0
1, 443640, Note_on_c, 0, 36, 35
1, 443760, Note_on_c, 0, 36, 0
1, 443760, Note_on_c, 0, 67, 0
1, 443760, Note_on_c, 0, 35, 35
1, 443880, Note_on_c, 0, 35, 0
1, 443880, Note_on_c, 0, 33, 35
1, 444000, Note_on_c, 0, 33, 0
1, 444000, Note_on_c, 0, 31, 39
1, 444120, Note_on_c, 0, 31, 0
1, 444120, Note_on_c, 0, 36, 35
1, 444240, Tempo, 383803
1, 444240, Note_on_c, 0, 36, 0
1, 444240, Note_on_c, 0, 67, 51
1, 444240, Note_on_c, 0, 35, 35
1, 444360, Note_on_c, 0, 35, 0
1, 444360, Note_on_c, 0, 67, 0
1, 444360, Note_on_c, 0, 69, 51
1, 444360, Note_on_c, 0, 33, 35
1, 444480, Tempo, 396957
1, 444480, Note_on_c, 0, 33, 0
1, 444480, Note_on_c, 0, 69, 0
1, 444480, Note_on_c, 0, 71, 55
1, 444480, Note_on_c, 0, 31, 40
1, 444600, Note_on_c, 0, 31, 0
1, 444600, Note_on_c, 0, 71, 0
1, 444600, Note_on_c, 0, 36, 36
1, 444720, Tempo, 383803
1, 444720, Note_on_c, 0, 36, 0
1, 444720, Note_on_c, 0, 71, 51
1, 444720, Note_on_c, 0, 35, 36
1, 444840, Note_on_c, 0, 35, 0
1, 444840, Note_on_c, 0, 71, 0
1, 444840, Note_on_c, 0, 72, 52
1, 444840, Note_on_c, 0, 33, 36
1, 444960, Tempo, 396957
1, 444960, Note_on_c, 0, 33, 0
1, 444960, Note_on_c, 0, 72, 0
1, 444960, Note_on_c, 0, 74, 55
1, 444960, Note_on_c, 0, 31, 40
1, 445080, Note_on_c, 0, 31, 0
1, 445080, Note_on_c, 0, 74, 0
1, 445080, Note_on_c, 0, 36, 36
1, 445200, Tempo, 383803
1, 445200, Note_on_c, 0, 36, 0
1, 445200, Note_on_c, 0, 74, 52
1, 445200, Note_on_c, 0, 35, 36
1, 445280, Note_on_c, 0, 74, 0
1, 445280, Note_on_c, 0, 76, 54
1, 445320, Note_on_c, 0, 35, 0
1, 445320, Note_on_c, 0, 33, 36
1, 445360, Note_on_c, 0, 76, 0
1, 445360, Note_on_c, 0, 78, 56
1, 445440, Tempo, 396957
1, 445440, Note_on_c, 0, 78, 0
1, 445440, Note_on_c, 0, 33, 0
1, 445440, Note_on_c, 0, 79, 58
1, 445440, Note_on_c, 0, 31, 41
1, 445560, Note_on_c, 0, 31, 0
1, 445560, Note_on_c, 0, 36, 36
1, 445680, Note_on_c, 0, 36, 0
1, 445680, Note_on_c, 0, 79, 0
1, 445680, Note_on_c, 0, 35, 37
1, 445800, Note_on_c, 0, 35, 0
1, 445800, Note_on_c, 0, 33, 37
1, 445920, Note_on_c, 0, 33, 0
1, 445920, Note_on_c, 0, 31, 42
1, 446040, Note_on_c, 0, 31, 0
1, 446040, Note_on_c, 0, 36, 37
1, 446160, Tempo, 381291
1, 446160, Note_on_c, 0, 36, 0
1, 446160, Note_on_c, 0, 62, 50
1, 446160, Note_on_c, 0, 35, 37
1, 446240, Note_on_c, 0, 62, 0
1, 446240, Note_on_c, 0, 64, 53
1, 446280, Note_on_c, 0, 35, 0
1, 446280, Note_on_c, 0, 33, 37
1, 446320, Note_on_c, 0, 64, 0
1, 446320, Note_on_c, 0, 66, 55
1, 446400, Tempo, 396957
1, 446400, Note_on_c, 0, 66, 0
1, 446400, Note_on_c, 0, 33, 0
1, 446400, Note_on_c, 0, 67, 58
1, 446400, Note_on_c, 0, 31, 42
1, 446520, Note_on_c, 0, 31, 0
1, 446520, Note_on_c, 0, 36, 38
1, 446640, Note_on_c, 0, 36, 0
1, 446640, Note_on_c, 0, 67, 0
1, 446640, Note_on_c, 0, 35, 38
1, 446760, Note_on_c, 0, 35, 0
1, 446760, Note_on_c, 0, 33, 38
1, 446880, Note_on_c, 0, 33, 0
1, 446880, Note_on_c, 0, 31, 44
1, 447000, Note_on_c, 0, 31, 0
1, 447000, Note_on_c, 0, 36, 38
1, 447120, Tempo, 378788
1, 447120, Note_on_c, 0, 36, 0
1, 447120, Note_on_c, 0, 67, 55
1, 447120, Note_on_c, 0, 35, 38
1, 447240, Note_on_c, 0, 35, 0
1, 447240, Note_on_c, 0, 67, 0
1, 447240, Note_on_c, 0, 69, 59
1, 447240, Note_on_c, 0, 33, 38
1, 447360, Tempo, 394244
1, 447360, Note_on_c, 0, 33, 0
1, 447360, Note_on_c, 0, 69, 0
1, 447360, Note_on_c, 0, 71, 63
1, 447360, Note_on_c, 0, 31, 44
1, 447480, Note_on_c, 0, 31, 0
1, 447480, Note_on_c, 0, 71, 0
1, 447480, Note_on_c, 0, 36, 39
1, 447600, Note_on_c, 0, 36, 0
1, 447600, Note_on_c, 0, 35, 39
1, 447720, Note_on_c, 0, 35, 0
1, 447720, Note_on_c, 0, 33, 39
1, 447840, Note_on_c, 0, 33, 0
1, 447840, Note_on_c, 0, 31, 45
1, 447960, Note_on_c, 0, 31, 0
1, 447960, Note_on_c, 0, 36, 39
1, 448080, Tempo, 377572
1, 448080, Note_on_c, 0, 36, 0
1, 448080, Note_on_c, 0, 71, 57
1, 448080, Note_on_c, 0, 35, 39
1, 448200, Note_on_c, 0, 35, 0
1, 448200, Note_on_c, 0, 71, 0
1, 448200, Note_on_c, 0, 72, 58
1, 448200, Note_on_c, 0, 33, 39
1, 448320, Tempo, 394244
1, 448320, Note_on_c, 0, 33, 0
1, 448320, Note_on_c, 0, 72, 0
1, 448320, Note_on_c, 0, 74, 63
1, 448320, Note_on_c, 0, 31, 45
1, 448440, Note_on_c, 0, 31, 0
1, 448440, Note_on_c, 0, 74, 0
1, 448440, Note_on_c, 0, 36, 39
1, 448560, Tempo, 377572
1, 448560, Note_on_c, 0, 36, 0
1, 448560, Note_on_c, 0, 74, 58
1, 448560, Note_on_c, 0, 35, 40
1, 448640, Note_on_c, 0, 74, 0
1, 448640, Note_on_c, 0, 76, 60
1, 448680, Note_on_c, 0, 35, 0
1, 448680, Note_on_c, 0, 33, 40
1, 448720, Note_on_c, 0, 76, 0
1, 448720, Note_on_c, 0, 78, 63
1, 448800, Tempo, 392927
1, 448800, Note_on_c, 0, 78, 0
1, 448800, Note_on_c, 0, 33, 0
1, 448800, Note_on_c, 0, 79, 66
1, 448800, Note_on_c, 0, 31, 46
1, 448920, Note_on_c, 0, 31, 0
1, 448920, Note_on_c, 0, 79, 0
1, 448920, Note_on_c, 0, 36, 40
1, 449040, Tempo, 376341
1, 449040, Note_on_c, 0, 36, 0
1, 449040, Note_on_c, 0, 79, 65
1, 449040, Note_on_c, 0, 35, 40
1, 449160, Note_on_c, 0, 35, 0
1, 449160, Note_on_c, 0, 79, 0
1, 449160, Note_on_c, 0, 81, 68
1, 449160, Note_on_c, 0, 33, 40
1, 449280, Tempo, 392927
1, 449280, Note_on_c, 0, 33, 0
1, 449280, Note_on_c, 0, 81, 0
1, 449280, Note_on_c, 0, 83, 70
1, 449280, Note_on_c, 0, 31, 46
1, 449400, Note_on_c, 0, 31, 0
1, 449400, Note_on_c, 0, 83, 0
1, 449400, Note_on_c, 0, 36, 41
1, 449520, Note_on_c, 0, 36, 0
1, 449520, Note_on_c, 0, 35, 41
1, 449640, Note_on_c, 0, 35, 0
1, 449640, Note_on_c, 0, 33, 41
1, 449760, Note_on_c, 0, 33, 0
1, 449760, Note_on_c, 0, 31, 47
1, 449880, Note_on_c, 0, 31, 0
1, 449880, Note_on_c, 0, 36, 41
1, 450000, Tempo, 372694
1, 450000, Note_on_c, 0, 36, 0
1, 450000, Note_on_c, 0, 74, 65
1, 450000, Note_on_c, 0, 35, 41
1, 450080, Note_on_c, 0, 74, 0
1, 450080, Note_on_c, 0, 76, 68
1, 450120, Note_on_c, 0, 35, 0
1, 450120, Note_on_c, 0, 33, 41
1, 450160, Note_on_c, 0, 76, 0
1, 450160, Note_on_c, 0, 78, 69
1, 450240, Tempo, 392927
1, 450240, Note_on_c, 0, 78, 0
1, 450240, Note_on_c, 0, 33, 0
1, 450240, Note_on_c, 0, 79, 71
1, 450240, Note_on_c, 0, 31, 48
1, 450360, Note_on_c, 0, 31, 0
1, 450360, Note_on_c, 0, 79, 0
1, 450360, Note_on_c, 0, 36, 42
1, 450480, Note_on_c, 0, 36, 0
1, 450480, Note_on_c, 0, 35, 42
1, 450600, Note_on_c, 0, 35, 0
1, 450600, Note_on_c, 0, 33, 42
1, 450720, Note_on_c, 0, 33, 0
1, 450720, Note_on_c, 0, 31, 48
1, 450840, Note_on_c, 0, 31, 0
1, 450840, Note_on_c, 0, 36, 42
1, 450960, Tempo, 370325
1, 450960, Note_on_c, 0, 36, 0
1, 450960, Note_on_c, 0, 79, 66
1, 450960, Note_on_c, 0, 35, 42
1, 451080, Note_on_c, 0, 35, 0
1, 451080, Note_on_c, 0, 79, 0
1, 451080, Note_on_c, 0, 81, 68
1, 451080, Note_on_c, 0, 33, 42
1, 451200, Tempo, 392927
1, 451200, Note_on_c, 0, 33, 0
1, 451200, Note_on_c, 0, 81, 0
1, 451200, Note_on_c, 0, 83, 73
1, 451200, Note_on_c, 0, 31, 49
1, 451320, Note_on_c, 0, 31, 0
1, 451320, Note_on_c, 0, 83, 0
1, 451320, Note_on_c, 0, 36, 42
1, 451440, Note_on_c, 0, 36, 0
1, 451440, Note_on_c, 0, 35, 44
1, 451560, Note_on_c, 0, 35, 0
1, 451560, Note_on_c, 0, 33, 44
1, 451680, Tempo, 387672
1, 451680, Note_on_c, 0, 33, 0
1, 451680, Note_on_c, 0, 31, 49
1, 451800, Note_on_c, 0, 31, 0
1, 451800, Note_on_c, 0, 36, 44
1, 451920, Tempo, 365653
1, 451920, Note_on_c, 0, 36, 0
1, 451920, Note_on_c, 0, 79, 68
1, 451920, Note_on_c, 0, 35, 44
1, 452040, Note_on_c, 0, 35, 0
1, 452040, Note_on_c, 0, 79, 0
1, 452040, Note_on_c, 0, 81, 72
1, 452040, Note_on_c, 0, 33, 44
1, 452160, Tempo, 387672
1, 452160, Note_on_c, 0, 33, 0
1, 452160, Note_on_c, 0, 81, 0
1, 452160, Note_on_c, 0, 83, 76
1, 452160, Note_on_c, 0, 31, 50
1, 452280, Note_on_c, 0, 31, 0
1, 452280, Note_on_c, 0, 83, 0
1, 452280, Note_on_c, 0, 36, 45
1, 452400, Tempo, 364498
1, 452400, Note_on_c, 0, 36, 0
1, 452400, Note_on_c, 0, 83, 68
1, 452400, Note_on_c, 0, 35, 45
1, 452520, Note_on_c, 0, 35, 0
1, 452520, Note_on_c, 0, 83, 0
1, 452520, Note_on_c, 0, 84, 71
1, 452520, Note_on_c, 0, 33, 45
1, 452640, Tempo, 386374
1, 452640, Note_on_c, 0, 33, 0
1, 452640, Note_on_c, 0, 84, 0
1, 452640, Note_on_c, 0, 86, 75
1, 452640, Note_on_c, 0, 31, 50
1, 452760, Note_on_c, 0, 31, 0
1, 452760, Note_on_c, 0, 86, 0
1, 452760, Note_on_c, 0, 36, 45
1, 452880, Tempo, 362231
1, 452880, Note_on_c, 0, 36, 0
1, 452880, Note_on_c, 0, 86, 70
1, 452880, Note_on_c, 0, 35, 45
1, 453000, Note_on_c, 0, 35, 0
1, 453000, Note_on_c, 0, 86, 0
1, 453000, Note_on_c, 0, 88, 75
1, 453000, Note_on_c, 0, 33, 45
1, 453120, Tempo, 386374
1, 453120, Note_on_c, 0, 33, 0
1, 453120, Note_on_c, 0, 88, 0
1, 453120, Note_on_c, 0, 89, 79
1, 453120, Note_on_c, 0, 31, 51
1, 453240, Note_on_c, 0, 31, 0
1, 453240, Note_on_c, 0, 89, 0
1, 453240, Note_on_c, 0, 36, 46
1, 453360, Note_on_c, 0, 36, 0
1, 453360, Note_on_c, 0, 35, 46
1, 453480, Note_on_c, 0, 35, 0
1, 453480, Note_on_c, 0, 33, 46
1, 453600, Tempo, 383803
1, 453600, Note_on_c, 0, 33, 0
1, 453600, Note_on_c, 0, 31, 52
1, 453720, Note_on_c, 0, 31, 0
1, 453720, Note_on_c, 0, 36, 47
1, 453840, Tempo, 362231
1, 453840, Note_on_c, 0, 36, 0
1, 453840, Note_on_c, 0, 86, 77
1, 453840, Note_on_c, 0, 35, 48
1, 453960, Note_on_c, 0, 35, 0
1, 453960, Note_on_c, 0, 86, 0
1, 453960, Note_on_c, 0, 88, 82
1, 453960, Note_on_c, 0, 33, 48
1, 454080, Tempo, 381291
1, 454080, Note_on_c, 0, 33, 0
1, 454080, Note_on_c, 0, 88, 0
1, 454080, Note_on_c, 0, 89, 86
1, 454080, Note_on_c, 0, 31, 54
1, 454200, Note_on_c, 0, 31, 0
1, 454200, Note_on_c, 0, 89, 0
1, 454200, Note_on_c, 0, 37, 49
1, 454320, Note_on_c, 0, 37, 0
1, 454320, Note_on_c, 0, 35, 49
1, 454440, Note_on_c, 0, 35, 0
1, 454440, Note_on_c, 0, 33, 50
1, 454560, Note_on_c, 0, 33, 0
1, 454560, Note_on_c, 0, 31, 56
1, 454680, Note_on_c, 0, 31, 0
1, 454680, Note_on_c, 0, 37, 51
1, 454800, Tempo, 362231
1, 454800, Note_on_c, 0, 37, 0
1, 454800, Note_on_c, 0, 86, 79
1, 454800, Note_on_c, 0, 35, 51
1, 454920, Note_on_c, 0, 35, 0
1, 454920, Note_on_c, 0, 86, 0
1, 454920, Note_on_c, 0, 88, 84
1, 454920, Note_on_c, 0, 33, 51
1, 455040, Tempo, 380035
1, 455040, Note_on_c, 0, 33, 0
1, 455040, Note_on_c, 0, 88, 0
1, 455040, Note_on_c, 0, 89, 88
1, 455040, Note_on_c, 0, 31, 57
1, 455160, Note_on_c, 0, 89, 0
1, 455160, Note_on_c, 0, 38, 52
1, 455180, Note_on_c, 0, 31, 0
1, 455280, Tempo, 361098
1, 455280, Note_on_c, 0, 86, 79
1, 455280, Note_on_c, 0, 35, 52
1, 455300, Note_on_c, 0, 38, 0
1, 455400, Note_on_c, 0, 86, 0
1, 455400, Note_on_c, 0, 88, 84
1, 455400, Note_on_c, 0, 33, 53
1, 455420, Note_on_c, 0, 35, 0
1, 455520, Tempo, 380035
1, 455520, Note_on_c, 0, 88, 0
1, 455520, Note_on_c, 0, 89, 88
1, 455520, Note_on_c, 0, 31, 59
1, 455540, Note_on_c, 0, 33, 0
1, 455640, Note_on_c, 0, 89, 0
1, 455640, Note_on_c, 0, 38, 54
1, 455660, Note_on_c, 0, 31, 0
1, 455760, Tempo, 362231
1, 455760, Note_on_c, 0, 86, 81
1, 455760, Note_on_c, 0, 35, 54
1, 455780, Note_on_c, 0, 38, 0
1, 455880, Note_on_c, 0, 86, 0
1, 455880, Note_on_c, 0, 88, 85
1, 455880, Note_on_c, 0, 33, 54
1, 455900, Note_on_c, 0, 35, 0
1, 456000, Tempo, 380035
1, 456000, Note_on_c, 0, 88, 0
1, 456000, Note_on_c, 0, 89, 89
1, 456000, Note_on_c, 0, 31, 61
1, 456020, Note_on_c, 0, 33, 0
1, 456120, Note_on_c, 0, 89, 0
1, 456120, Note_on_c, 0, 38, 55
1, 456140, Note_on_c, 0, 31, 0
1, 456240, Tempo, 362231
1, 456240, Note_on_c, 0, 86, 81
1, 456240, Note_on_c, 0, 35, 56
1, 456260, Note_on_c, 0, 38, 0
1, 456360, Note_on_c, 0, 86, 0
1, 456360, Note_on_c, 0, 88, 86
1, 456360, Note_on_c, 0, 33, 56
1, 456380, Note_on_c, 0, 35, 0
1, 456480, Tempo, 380035
1, 456480, Note_on_c, 0, 88, 0
1, 456480, Note_on_c, 0, 89, 92
1, 456480, Note_on_c, 0, 31, 63
1, 456500, Note_on_c, 0, 33, 0
1, 456600, Note_on_c, 0, 89, 0
1, 456600, Note_on_c, 0, 38, 57
1, 456620, Note_on_c, 0, 31, 0
1, 456720, Tempo, 361098
1, 456720, Note_on_c, 0, 86, 85
1, 456720, Note_on_c, 0, 35, 57
1, 456740, Note_on_c, 0, 38, 0
1, 456840, Note_on_c, 0, 86, 0
1, 456840, Note_on_c, 0, 88, 91
1, 456840, Note_on_c, 0, 33, 57
1, 456860, Note_on_c, 0, 35, 0
1, 456960, Tempo, 361098
1, 456960, Note_on_c, 0, 88, 0
1, 456960, Note_on_c, 0, 89, 96
1, 456960, Note_on_c, 0, 31, 67
1, 456980, Note_on_c, 0, 33, 0
1, 457080, Tempo, 362231
1, 457080, Note_on_c, 0, 88, 94
1, 457080, Note_on_c, 0, 33, 66
1, 457100, Note_on_c, 0, 31, 0
1, 457100, Note_on_c, 0, 89, 0
1, 457160, Tempo, 363350
1, 457200, Note_on_c, 0, 86, 92
1, 457200, Note_on_c, 0, 35, 65
1, 457220, Note_on_c, 0, 88, 0
1, 457220, Note_on_c, 0, 33, 0
1, 457280, Tempo, 364498
1, 457320, Note_on_c, 0, 84, 91
1, 457320, Note_on_c, 0, 36, 63
1, 457340, Note_on_c, 0, 86, 0
1, 457340, Note_on_c, 0, 35, 0
1, 457360, Tempo, 365653
1, 457440, Note_on_c, 0, 83, 89
1, 457440, Note_on_c, 0, 38, 62
1, 457460, Note_on_c, 0, 84, 0
1, 457460, Note_on_c, 0, 36, 0
1, 457480, Tempo, 366815
1, 457560, Tempo, 367963
1, 457560, Note_on_c, 0, 84, 91
1, 457560, Note_on_c, 0, 36, 63
1, 457580, Note_on_c, 0, 83, 0
1, 457580, Note_on_c, 0, 38, 0
1, 457680, Tempo, 369140
1, 457680, Note_on_c, 0, 86, 92
1, 457680, Note_on_c, 0, 35, 64
1, 457700, Note_on_c, 0, 84, 0
1, 457700, Note_on_c, 0, 36, 0
1, 457760, Tempo, 370325
1, 457800, Note_on_c, 0, 88, 93
1, 457800, Note_on_c, 0, 33, 66
1, 457820, Note_on_c, 0, 86, 0
1, 457820, Note_on_c, 0, 35, 0
1, 457880, Tempo, 371517
1, 457920, Note_on_c, 0, 89, 96
1, 457920, Note_on_c, 0, 31, 66
1, 457940, Note_on_c, 0, 88, 0
1, 457940, Note_on_c, 0, 33, 0
1, 457960, Tempo, 372694
1, 458040, Note_on_c, 0, 88, 95
1, 458040, Note_on_c, 0, 33, 65
1, 458060, Note_on_c, 0, 89, 0
1, 458060, Note_on_c, 0, 31, 0
1, 458120, Tempo, 371517
1, 458160, Note_on_c, 0, 86, 94
1, 458160, Note_on_c, 0, 35, 64
1, 458180, Note_on_c, 0, 88, 0
1, 458180, Note_on_c, 0, 33, 0
1, 458240, Tempo, 370325
1, 458280, Note_on_c, 0, 84, 93
1, 458280, Note_on_c, 0, 36, 64
1, 458300, Note_on_c, 0, 86, 0
1, 458300, Note_on_c, 0, 35, 0
1, 458360, Tempo, 369140
1, 458400, Note_on_c, 0, 83, 93
1, 458400, Note_on_c, 0, 38, 61
1, 458420, Note_on_c, 0, 84, 0
1, 458420, Note_on_c, 0, 36, 0
1, 458480, Tempo, 367963
1, 458520, Note_on_c, 0, 84, 93
1, 458520, Note_on_c, 0, 36, 63
1, 458540, Note_on_c, 0, 83, 0
1, 458540, Note_on_c, 0, 38, 0
1, 458600, Tempo, 366815
1, 458640, Note_on_c, 0, 86, 95
1, 458640, Note_on_c, 0, 35, 65
1, 458660, Note_on_c, 0, 84, 0
1, 458660, Note_on_c, 0, 36, 0
1, 458680, Tempo, 366815
1, 458760, Note_on_c, 0, 88, 97
1, 458760, Note_on_c, 0, 33, 67
1, 458780, Note_on_c, 0, 86, 0
1, 458780, Note_on_c, 0, 35, 0
1, 458840, Tempo, 365653
1, 458880, Note_on_c, 0, 89, 99
1, 458880, Note_on_c, 0, 31, 69
1, 458900, Note_on_c, 0, 88, 0
1, 458900, Note_on_c, 0, 33, 0
1, 459040, Tempo, 366815
1, 459120, Note_on_c, 0, 88, 97
1, 459120, Note_on_c, 0, 33, 66
1, 459140, Note_on_c, 0, 89, 0
1, 459140, Note_on_c, 0, 31, 0
1, 459240, Tempo, 367963
1, 459240, Note_on_c, 0, 86, 96
1, 459240, Note_on_c, 0, 35, 65
1, 459260, Note_on_c, 0, 88, 0
1, 459260, Note_on_c, 0, 33, 0
1, 459360, Note_on_c, 0, 84, 95
1, 459360, Note_on_c, 0, 36, 64
1, 459380, Note_on_c, 0, 86, 0
1, 459380, Note_on_c, 0, 35, 0
1, 459440, Tempo, 369140
1, 459480, Note_on_c, 0, 83, 93
1, 459480, Note_on_c, 0, 38, 63
1, 459500, Note_on_c, 0, 84, 0
1, 459500, Note_on_c, 0, 36, 0
1, 459600, Note_on_c, 0, 81, 92
1, 459600, Note_on_c, 0, 40, 63
1, 459620, Note_on_c, 0, 83, 0
1, 459620, Note_on_c, 0, 38, 0
1, 459640, Tempo, 370325
1, 459720, Note_on_c, 0, 79, 91
1, 459720, Note_on_c, 0, 41, 62
1, 459740, Note_on_c, 0, 81, 0
1, 459740, Note_on_c, 0, 40, 0
1, 459800, Tempo, 372694
1, 459840, Note_on_c, 0, 77, 90
1, 459840, Note_on_c, 0, 43, 61
1, 459860, Note_on_c, 0, 79, 0
1, 459860, Note_on_c, 0, 41, 0
1, 459960, Note_on_c, 0, 76, 88
1, 459960, Note_on_c, 0, 45, 60
1, 459980, Note_on_c, 0, 77, 0
1, 459980, Note_on_c, 0, 43, 0
1, 460040, Tempo, 373902
1, 460080, Note_on_c, 0, 74, 87
1, 460080, Note_on_c, 0, 47, 59
1, 460100, Note_on_c, 0, 76, 0
1, 460100, Note_on_c, 0, 45, 0
1, 460200, Note_on_c, 0, 72, 86
1, 460200, Note_on_c, 0, 48, 58
1, 460220, Note_on_c, 0, 74, 0
1, 460220, Note_on_c, 0, 47, 0
1, 460240, Tempo, 375117
1, 460320, Note_on_c, 0, 71, 85
1, 460320, Note_on_c, 0, 50, 57
1, 460340, Note_on_c, 0, 72, 0
1, 460340, Note_on_c, 0, 48, 0
1, 460440, Tempo, 376341
1, 460440, Note_on_c, 0, 69, 83
1, 460440, Note_on_c, 0, 52, 56
1, 460460, Note_on_c, 0, 71, 0
1, 460460, Note_on_c, 0, 50, 0
1, 460560, Note_on_c, 0, 67, 82
1, 460560, Note_on_c, 0, 53, 55
1, 460580, Note_on_c, 0, 69, 0
1, 460580, Note_on_c, 0, 52, 0
1, 460640, Tempo, 377572
1, 460680, Note_on_c, 0, 65, 81
1, 460680, Note_on_c, 0, 55, 55
1, 460700, Note_on_c, 0, 67, 0
1, 460700, Note_on_c, 0, 53, 0
1, 460800, Tempo, 373902
1, 460800, Note_on_c, 0, 64, 80
1, 460800, Control_c, 0, 91, 127
1, 460800, Text_t, "bdca426d104a26ac9dcb070447587523"
1, 460800, Note_on_c, 0, 48, 54
1, 460800, Control_c, 0, 64, 0
1, 460820, Note_on_c, 0, 65, 0
1, 460820, Note_on_c, 0, 55, 0
1, 461040, Note_on_c, 0, 64, 0
1, 461040, Note_on_c, 0, 48, 0
1, 461040, Note_on_c, 0, 48, 28
1, 461040, Note_on_c, 0, 52, 33
1, 461040, Note_on_c, 0, 43, 26
1, 461040, Note_on_c, 0, 36, 22
1, 461220, Note_on_c, 0, 36, 0
1, 461220, Note_on_c, 0, 48, 0
1, 461220, Note_on_c, 0, 52, 0
1, 461220, Note_on_c, 0, 43, 0
1, 461280, Tempo, 371517
1, 461280, Note_on_c, 0, 48, 28
1, 461280, Note_on_c, 0, 52, 33
1, 461280, Note_on_c, 0, 43, 26
1, 461280, Note_on_c, 0, 36, 22
1, 461460, Note_on_c, 0, 36, 0
1, 461460, Note_on_c, 0, 48, 0
1, 461460, Note_on_c, 0, 52, 0
1, 461460, Note_on_c, 0, 43, 0
1, 461520, Note_on_c, 0, 48, 28
1, 461520, Note_on_c, 0, 52, 34
1, 461520, Note_on_c, 0, 43, 27
1, 461520, Note_on_c, 0, 36, 22
1, 461700, Note_on_c, 0, 36, 0
1, 461700, Note_on_c, 0, 48, 0
1, 461700, Note_on_c, 0, 52, 0
1, 461700, Note_on_c, 0, 43, 0
1, 461760, Note_on_c, 0, 48, 28
1, 461760, Note_on_c, 0, 52, 34
1, 461760, Note_on_c, 0, 43, 27
1, 461760, Note_on_c, 0, 36, 22
1, 461780, Tempo, 375117
1, 461940, Note_on_c, 0, 36, 0
1, 461940, Note_on_c, 0, 48, 0
1, 461940, Note_on_c, 0, 52, 0
1, 461940, Note_on_c, 0, 43, 0
1, 462000, Note_on_c, 0, 48, 28
1, 462000, Note_on_c, 0, 52, 34
1, 462000, Note_on_c, 0, 43, 28
1, 462000, Note_on_c, 0, 36, 23
1, 462180, Note_on_c, 0, 36, 0
1, 462180, Note_on_c, 0, 48, 0
1, 462180, Note_on_c, 0, 52, 0
1, 462180, Note_on_c, 0, 43, 0
1, 462240, Tempo, 372694
1, 462240, Note_on_c, 0, 48, 29
1, 462240, Note_on_c, 0, 52, 35
1, 462240, Note_on_c, 0, 43, 28
1, 462240, Note_on_c, 0, 36, 23
1, 462420, Note_on_c, 0, 36, 0
1, 462420, Note_on_c, 0, 48, 0
1, 462420, Note_on_c, 0, 52, 0
1, 462420, Note_on_c, 0, 43, 0
1, 462480, Note_on_c, 0, 48, 29
1, 462480, Note_on_c, 0, 52, 35
1, 462480, Note_on_c, 0, 43, 29
1, 462480, Note_on_c, 0, 36, 24
1, 462660, Note_on_c, 0, 36, 0
1, 462660, Note_on_c, 0, 48, 0
1, 462660, Note_on_c, 0, 52, 0
1, 462660, Note_on_c, 0, 43, 0
1, 462720, Note_on_c, 0, 48, 30
1, 462720, Note_on_c, 0, 52, 36
1, 462720, Note_on_c, 0, 36, 25
1, 462720, Note_on_c, 0, 43, 30
1, 462760, Tempo, 373902
1, 462900, Note_on_c, 0, 43, 0
1, 462900, Note_on_c, 0, 48, 0
1, 462900, Note_on_c, 0, 52, 0
1, 462900, Note_on_c, 0, 36, 0
1, 462960, Note_on_c, 0, 48, 30
1, 462960, Note_on_c, 0, 52, 36
1, 462960, Note_on_c, 0, 36, 22
1, 462960, Note_on_c, 0, 43, 27
1, 463140, Note_on_c, 0, 43, 0
1, 463140, Note_on_c, 0, 48, 0
1, 463140, Note_on_c, 0, 52, 0
1, 463140, Note_on_c, 0, 36, 0
1, 463200, Tempo, 372694
1, 463200, Note_on_c, 0, 48, 31
1, 463200, Note_on_c, 0, 52, 37
1, 463200, Note_on_c, 0, 36, 23
1, 463200, Note_on_c, 0, 43, 28
1, 463380, Note_on_c, 0, 43, 0
1, 463380, Note_on_c, 0, 48, 0
1, 463380, Note_on_c, 0, 52, 0
1, 463380, Note_on_c, 0, 36, 0
1, 463440, Note_on_c, 0, 48, 32
1, 463440, Note_on_c, 0, 52, 38
1, 463440, Note_on_c, 0, 36, 24
1, 463440, Note_on_c, 0, 43, 29
1, 463620, Note_on_c, 0, 43, 0
1, 463620, Note_on_c, 0, 48, 0
1, 463620, Note_on_c, 0, 52, 0
1, 463620, Note_on_c, 0, 36, 0
1, 463680, Tempo, 373902
1, 463680, Note_on_c, 0, 48, 33
1, 463680, Note_on_c, 0, 52, 39
1, 463680, Note_on_c, 0, 36, 25
1, 463680, Note_on_c, 0, 43, 30
1, 463860, Note_on_c, 0, 43, 0
1, 463860, Note_on_c, 0, 48, 0
1, 463860, Note_on_c, 0, 52, 0
1, 463860, Note_on_c, 0, 36, 0
1, 463920, Note_on_c, 0, 48, 34
1, 463920, Note_on_c, 0, 52, 40
1, 463920, Note_on_c, 0, 36, 25
1, 463920, Note_on_c, 0, 43, 30
1, 464100, Note_on_c, 0, 43, 0
1, 464100, Note_on_c, 0, 48, 0
1, 464100, Note_on_c, 0, 52, 0
1, 464100, Note_on_c, 0, 36, 0
1, 464160, Note_on_c, 0, 50, 34
1, 464160, Note_on_c, 0, 54, 40
1, 464160, Note_on_c, 0, 36, 25
1, 464160, Note_on_c, 0, 45, 30
1, 464340, Note_on_c, 0, 45, 0
1, 464340, Note_on_c, 0, 50, 0
1, 464340, Note_on_c, 0, 54, 0
1, 464340, Note_on_c, 0, 36, 0
1, 464400, Note_on_c, 0, 50, 34
1, 464400, Note_on_c, 0, 54, 40
1, 464400, Note_on_c, 0, 36, 25
1, 464400, Note_on_c, 0, 45, 30
1, 464580, Note_on_c, 0, 45, 0
1, 464580, Note_on_c, 0, 50, 0
1, 464580, Note_on_c, 0, 54, 0
1, 464580, Note_on_c, 0, 36, 0
1, 464640, Note_on_c, 0, 50, 39
1, 464640, Note_on_c, 0, 55, 46
1, 464640, Note_on_c, 0, 35, 25
1, 464640, Note_on_c, 0, 43, 30
1, 464680, Tempo, 373902
1, 464820, Note_on_c, 0, 43, 0
1, 464820, Note_on_c, 0, 35, 0
1, 464880, Note_on_c, 0, 35, 25
1, 464880, Note_on_c, 0, 43, 30
1, 465060, Note_on_c, 0, 43, 0
1, 465060, Note_on_c, 0, 35, 0
1, 465120, Note_on_c, 0, 35, 25
1, 465120, Note_on_c, 0, 43, 30
1, 465300, Note_on_c, 0, 43, 0
1, 465300, Note_on_c, 0, 35, 0
1, 465360, Note_on_c, 0, 55, 0
1, 465360, Note_on_c, 0, 50, 0
1, 465360, Note_on_c, 0, 59, 40
1, 465360, Note_on_c, 0, 35, 25
1, 465360, Note_on_c, 0, 43, 30
1, 465480, Note_on_c, 0, 59, 0
1, 465480, Note_on_c, 0, 57, 40
1, 465540, Note_on_c, 0, 43, 0
1, 465540, Note_on_c, 0, 35, 0
1, 465600, Note_on_c, 0, 57, 0
1, 465600, Note_on_c, 0, 55, 45
1, 465600, Note_on_c, 0, 35, 25
1, 465600, Note_on_c, 0, 43, 30
1, 465720, Note_on_c, 0, 55, 0
1, 465780, Note_on_c, 0, 43, 0
1, 465780, Note_on_c, 0, 35, 0
1, 465840, Note_on_c, 0, 35, 25
1, 465840, Note_on_c, 0, 43, 30
1, 466020, Note_on_c, 0, 43, 0
1, 466020, Note_on_c, 0, 35, 0
1, 466080, Note_on_c, 0, 35, 25
1, 466080, Note_on_c, 0, 43, 30
1, 466260, Note_on_c, 0, 43, 0
1, 466260, Note_on_c, 0, 35, 0
1, 466320, Tempo, 383803
1, 466320, Note_on_c, 0, 35, 25
1, 466320, Note_on_c, 0, 43, 30
1, 466500, Note_on_c, 0, 43, 0
1, 466500, Note_on_c, 0, 35, 0
1, 466500, Note_on_c, 0, 85, 46
1, 466560, Tempo, 373902
1, 466560, Note_on_c, 0, 85, 0
1, 466560, Note_on_c, 0, 86, 57
1, 466560, Note_on_c, 0, 35, 25
1, 466560, Note_on_c, 0, 43, 30
1, 466740, Note_on_c, 0, 43, 0
1, 466740, Note_on_c, 0, 35, 0
1, 466800, Note_on_c, 0, 35, 25
1, 466800, Note_on_c, 0, 43, 30
1, 466980, Note_on_c, 0, 43, 0
1, 466980, Note_on_c, 0, 35, 0
1, 467040, Note_on_c, 0, 35, 25
1, 467040, Note_on_c, 0, 43, 30
1, 467160, Note_on_c, 0, 86, 0
1, 467160, Note_on_c, 0, 84, 48
1, 467220, Note_on_c, 0, 43, 0
1, 467220, Note_on_c, 0, 35, 0
1, 467280, Note_on_c, 0, 84, 0
1, 467280, Note_on_c, 0, 83, 47
1, 467280, Note_on_c, 0, 35, 25
1, 467280, Note_on_c, 0, 43, 30
1, 467400, Note_on_c, 0, 83, 0
1, 467400, Note_on_c, 0, 81, 45
1, 467460, Note_on_c, 0, 43, 0
1, 467460, Note_on_c, 0, 35, 0
1, 467520, Note_on_c, 0, 81, 0
1, 467520, Note_on_c, 0, 79, 44
1, 467520, Note_on_c, 0, 35, 25
1, 467520, Note_on_c, 0, 43, 30
1, 467700, Note_on_c, 0, 43, 0
1, 467700, Note_on_c, 0, 35, 0
1, 467760, Note_on_c, 0, 79, 0
1, 467760, Note_on_c, 0, 35, 25
1, 467760, Note_on_c, 0, 43, 30
1, 467940, Note_on_c, 0, 43, 0
1, 467940, Note_on_c, 0, 35, 0
1, 468000, Note_on_c, 0, 35, 25
1, 468000, Note_on_c, 0, 43, 30
1, 468180, Note_on_c, 0, 43, 0
1, 468180, Note_on_c, 0, 35, 0
1, 468240, Tempo, 381291
1, 468240, Note_on_c, 0, 35, 25
1, 468240, Note_on_c, 0, 43, 30
1, 468420, Note_on_c, 0, 43, 0
1, 468420, Note_on_c, 0, 35, 0
1, 468480, Tempo, 373902
1, 468480, Note_on_c, 0, 46, 29
1, 468480, Note_on_c, 0, 50, 37
1, 468480, Control_c, 0, 91, 127
1, 468480, Text_t, "bdca426d104a26ac9dcb070447587523"
1, 468480, Note_on_c, 0, 41, 30
1, 468480, Note_on_c, 0, 34, 26
1, 468660, Note_on_c, 0, 34, 0
1, 468660, Note_on_c, 0, 46, 0
1, 468660, Note_on_c, 0, 50, 0
1, 468660, Note_on_c, 0, 41, 0
1, 468720, Note_on_c, 0, 46, 29
1, 468720, Note_on_c, 0, 50, 35
1, 468720, Note_on_c, 0, 41, 30
1, 468720, Note_on_c, 0, 34, 25
1, 468900, Note_on_c, 0, 34, 0
1, 468900, Note_on_c, 0, 46, 0
1, 468900, Note_on_c, 0, 50, 0
1, 468900, Note_on_c, 0, 41, 0
1, 468960, Tempo, 370325
1, 468960, Note_on_c, 0, 46, 29
1, 468960, Note_on_c, 0, 50, 35
1, 468960, Note_on_c, 0, 41, 30
1, 468960, Note_on_c, 0, 34, 25
1, 469140, Note_on_c, 0, 34, 0
1, 469140, Note_on_c, 0, 46, 0
1, 469140, Note_on_c, 0, 50, 0
1, 469140, Note_on_c, 0, 41, 0
1, 469200, Note_on_c, 0, 46, 30
1, 469200, Note_on_c, 0, 50, 36
1, 469200, Note_on_c, 0, 41, 31
1, 469200, Note_on_c, 0, 34, 26
1, 469380, Note_on_c, 0, 34, 0
1, 469380, Note_on_c, 0, 46, 0
1, 469380, Note_on_c, 0, 50, 0
1, 469380, Note_on_c, 0, 41, 0
1, 469440, Tempo, 375117
1, 469440, Note_on_c, 0, 46, 31
1, 469440, Note_on_c, 0, 50, 37
1, 469440, Note_on_c, 0, 41, 31
1, 469440, Note_on_c, 0, 34, 26
1, 469620, Note_on_c, 0, 34, 0
1, 469620, Note_on_c, 0, 46, 0
1, 469620, Note_on_c, 0, 50, 0
1, 469620, Note_on_c, 0, 41, 0
1, 469680, Note_on_c, 0, 46, 31
1, 469680, Note_on_c, 0, 50, 37
1, 469680, Note_on_c, 0, 41, 31
1, 469680, Note_on_c, 0, 34, 26
1, 469860, Note_on_c, 0, 34, 0
1, 469860, Note_on_c, 0, 46, 0
1, 469860, Note_on_c, 0, 50, 0
1, 469860, Note_on_c, 0, 41, 0
1, 469920, Note_on_c, 0, 46, 32
1, 469920, Note_on_c, 0, 50, 38
1, 469920, Note_on_c, 0, 41, 31
1, 469920, Note_on_c, 0, 34, 26
1, 470100, Note_on_c, 0, 34, 0
1, 470100, Note_on_c, 0, 46, 0
1, 470100, Note_on_c, 0, 50, 0
1, 470100, Note_on_c, 0, 41, 0
1, 470160, Note_on_c, 0, 46, 33
1, 470160, Note_on_c, 0, 50, 39
1, 470160, Note_on_c, 0, 41, 31
1, 470160, Note_on_c, 0, 34, 26
1, 470340, Note_on_c, 0, 34, 0
1, 470340, Note_on_c, 0, 46, 0
1, 470340, Note_on_c, 0, 50, 0
1, 470340, Note_on_c, 0, 41, 0
1, 470400, Tempo, 373902
1, 470400, Note_on_c, 0, 46, 33
1, 470400, Note_on_c, 0, 50, 39
1, 470400, Note_on_c, 0, 34, 26
1, 470400, Note_on_c, 0, 41, 31
1, 470580, Note_on_c, 0, 41, 0
1, 470580, Note_on_c, 0, 46, 0
1, 470580, Note_on_c, 0, 50, 0
1, 470580, Note_on_c, 0, 34, 0
1, 470640, Note_on_c, 0, 46, 34
1, 470640, Note_on_c, 0, 50, 40
1, 470640, Note_on_c, 0, 34, 26
1, 470640, Note_on_c, 0, 41, 31
1, 470820, Note_on_c, 0, 41, 0
1, 470820, Note_on_c, 0, 46, 0
1, 470820, Note_on_c, 0, 50, 0
1, 470820, Note_on_c, 0, 34, 0
1, 470880, Tempo, 375117
1, 470880, Note_on_c, 0, 46, 34
1, 470880, Note_on_c, 0, 50, 40
1, 470880, Note_on_c, 0, 34, 26
1, 470880, Note_on_c, 0, 41, 31
1, 471060, Note_on_c, 0, 41, 0
1, 471060, Note_on_c, 0, 46, 0
1, 471060, Note_on_c, 0, 50, 0
1, 471060, Note_on_c, 0, 34, 0
1, 471120, Note_on_c, 0, 46, 34
1, 471120, Note_on_c, 0, 50, 40
1, 471120, Note_on_c, 0, 34, 26
1, 471120, Note_on_c, 0, 41, 31
1, 471300, Note_on_c, 0, 41, 0
1, 471300, Note_on_c, 0, 46, 0
1, 471300, Note_on_c, 0, 50, 0
1, 471300, Note_on_c, 0, 34, 0
1, 471360, Tempo, 370325
1, 471360, Note_on_c, 0, 46, 34
1, 471360, Note_on_c, 0, 50, 40
1, 471360, Note_on_c, 0, 34, 26
1, 471360, Note_on_c, 0, 41, 31
1, 471540, Note_on_c, 0, 41, 0
1, 471540, Note_on_c, 0, 46, 0
1, 471540, Note_on_c, 0, 50, 0
1, 471540, Note_on_c, 0, 34, 0
1, 471600, Note_on_c, 0, 46, 34
1, 471600, Note_on_c, 0, 50, 40
1, 471600, Note_on_c, 0, 34, 25
1, 471600, Note_on_c, 0, 41, 30
1, 471780, Note_on_c, 0, 41, 0
1, 471780, Note_on_c, 0, 46, 0
1, 471780, Note_on_c, 0, 50, 0
1, 471780, Note_on_c, 0, 34, 0
1, 471840, Tempo, 371517
1, 471840, Note_on_c, 0, 48, 34
1, 471840, Note_on_c, 0, 52, 40
1, 471840, Note_on_c, 0, 34, 25
1, 471840, Note_on_c, 0, 43, 30
1, 472020, Note_on_c, 0, 43, 0
1, 472020, Note_on_c, 0, 48, 0
1, 472020, Note_on_c, 0, 52, 0
1, 472020, Note_on_c, 0, 34, 0
1, 472080, Note_on_c, 0, 48, 34
1, 472080, Note_on_c, 0, 52, 40
1, 472080, Note_on_c, 0, 34, 25
1, 472080, Note_on_c, 0, 43, 30
1, 472260, Note_on_c, 0, 43, 0
1, 472260, Note_on_c, 0, 48, 0
1, 472260, Note_on_c, 0, 52, 0
1, 472260, Note_on_c, 0, 34, 0
1, 472320, Note_on_c, 0, 48, 39
1, 472320, Note_on_c, 0, 53, 46
1, 472320, Note_on_c, 0, 33, 25
1, 472320, Note_on_c, 0, 41, 30
1, 472340, Tempo, 372694
1, 472500, Note_on_c, 0, 41, 0
1, 472500, Note_on_c, 0, 33, 0
1, 472560, Note_on_c, 0, 33, 25
1, 472560, Note_on_c, 0, 41, 30
1, 472740, Note_on_c, 0, 41, 0
1, 472740, Note_on_c, 0, 33, 0
1, 472800, Note_on_c, 0, 33, 25
1, 472800, Note_on_c, 0, 41, 30
1, 472980, Note_on_c, 0, 41, 0
1, 472980, Note_on_c, 0, 33, 0
1, 473040, Note_on_c, 0, 53, 0
1, 473040, Note_on_c, 0, 48, 0
1, 473040, Note_on_c, 0, 57, 40
1, 473040, Note_on_c, 0, 33, 25
1, 473040, Note_on_c, 0, 41, 30
1, 473160, Note_on_c, 0, 57, 0
1, 473160, Note_on_c, 0, 55, 40
1, 473220, Note_on_c, 0, 41, 0
1, 473220, Note_on_c, 0, 33, 0
1, 473280, Note_on_c, 0, 55, 0
1, 473280, Note_on_c, 0, 53, 45
1, 473280, Note_on_c, 0, 33, 25
1, 473280, Note_on_c, 0, 41, 30
1, 473400, Note_on_c, 0, 53, 0
1, 473460, Note_on_c, 0, 41, 0
1, 473460, Note_on_c, 0, 33, 0
1, 473520, Note_on_c, 0, 33, 25
1, 473520, Note_on_c, 0, 41, 30
1, 473700, Note_on_c, 0, 41, 0
1, 473700, Note_on_c, 0, 33, 0
1, 473760, Note_on_c, 0, 33, 25
1, 473760, Note_on_c, 0, 41, 30
1, 473940, Note_on_c, 0, 41, 0
1, 473940, Note_on_c, 0, 33, 0
1, 474000, Tempo, 382555
1, 474000, Note_on_c, 0, 33, 25
1, 474000, Note_on_c, 0, 41, 30
1, 474180, Note_on_c, 0, 41, 0
1, 474180, Note_on_c, 0, 33, 0
1, 474180, Note_on_c, 0, 83, 46
1, 474240, Tempo, 373902
1, 474240, Note_on_c, 0, 83, 0
1, 474240, Note_on_c, 0, 84, 57
1, 474240, Note_on_c, 0, 32, 25
1, 474240, Note_on_c, 0, 41, 30
1, 474420, Note_on_c, 0, 41, 0
1, 474420, Note_on_c, 0, 32, 0
1, 474480, Note_on_c, 0, 32, 25
1, 474480, Note_on_c, 0, 41, 30
1, 474660, Note_on_c, 0, 41, 0
1, 474660, Note_on_c, 0, 32, 0
1, 474720, Note_on_c, 0, 32, 25
1, 474720, Note_on_c, 0, 41, 30
1, 474840, Note_on_c, 0, 84, 0
1, 474840, Note_on_c, 0, 82, 50
1, 474900, Note_on_c, 0, 41, 0
1, 474900, Note_on_c, 0, 32, 0
1, 474960, Note_on_c, 0, 82, 0
1, 474960, Note_on_c, 0, 80, 49
1, 474960, Note_on_c, 0, 32, 25
1, 474960, Note_on_c, 0, 41, 30
1, 475080, Note_on_c, 0, 80, 0
1, 475080, Note_on_c, 0, 79, 47
1, 475140, Note_on_c, 0, 41, 0
1, 475140, Note_on_c, 0, 32, 0
1, 475200, Note_on_c, 0, 79, 0
1, 475200, Note_on_c, 0, 77, 46
1, 475200, Note_on_c, 0, 32, 25
1, 475200, Note_on_c, 0, 41, 30
1, 475380, Note_on_c, 0, 41, 0
1, 475380, Note_on_c, 0, 32, 0
1, 475440, Note_on_c, 0, 77, 0
1, 475440, Note_on_c, 0, 32, 25
1, 475440, Note_on_c, 0, 41, 30
1, 475620, Note_on_c, 0, 41, 0
1, 475620, Note_on_c, 0, 32, 0
1, 475640, Tempo, 383803
1, 475680, Note_on_c, 0, 32, 25
1, 475680, Note_on_c, 0, 41, 30
1, 475860, Note_on_c, 0, 41, 0
1, 475860, Note_on_c, 0, 32, 0
1, 475920, Note_on_c, 0, 32, 25
1, 475920, Note_on_c, 0, 41, 30
1, 476100, Note_on_c, 0, 41, 0
1, 476100, Note_on_c, 0, 32, 0
1, 476100, Note_on_c, 0, 88, 67
1, 476160, Tempo, 373902
1, 476160, Note_on_c, 0, 88, 0
1, 476160, Note_on_c, 0, 89, 73
1, 476160, Note_on_c, 0, 31, 30
1, 476160, Note_on_c, 0, 41, 36
1, 476340, Note_on_c, 0, 41, 0
1, 476340, Note_on_c, 0, 31, 0
1, 476400, Note_on_c, 0, 31, 32
1, 476400, Note_on_c, 0, 41, 38
1, 476580, Note_on_c, 0, 41, 0
1, 476580, Note_on_c, 0, 31, 0
1, 476640, Tempo, 371517
1, 476640, Note_on_c, 0, 31, 33
1, 476640, Note_on_c, 0, 41, 39
1, 476820, Note_on_c, 0, 41, 0
1, 476820, Note_on_c, 0, 31, 0
1, 476880, Note_on_c, 0, 31, 34
1, 476880, Note_on_c, 0, 41, 41
1, 477060, Note_on_c, 0, 41, 0
1, 477060, Note_on_c, 0, 31, 0
1, 477120, Tempo, 375117
1, 477120, Note_on_c, 0, 31, 36
1, 477120, Note_on_c, 0, 41, 43
1, 477300, Note_on_c, 0, 41, 0
1, 477300, Note_on_c, 0, 31, 0
1, 477360, Note_on_c, 0, 31, 38
1, 477360, Note_on_c, 0, 41, 45
1, 477540, Note_on_c, 0, 41, 0
1, 477540, Note_on_c, 0, 31, 0
1, 477600, Note_on_c, 0, 89, 0
1, 477600, Note_on_c, 0, 89, 74
1, 477600, Note_on_c, 0, 32, 39
1, 477600, Note_on_c, 0, 41, 46
1, 477720, Note_on_c, 0, 89, 0
1, 477720, Note_on_c, 0, 87, 73
1, 477780, Note_on_c, 0, 41, 0
1, 477780, Note_on_c, 0, 32, 0
1, 477840, Note_on_c, 0, 87, 0
1, 477840, Note_on_c, 0, 86, 71
1, 477840, Note_on_c, 0, 32, 40
1, 477840, Note_on_c, 0, 41, 48
1, 477960, Note_on_c, 0, 86, 0
1, 477960, Note_on_c, 0, 84, 70
1, 478020, Note_on_c, 0, 41, 0
1, 478020, Note_on_c, 0, 32, 0
1, 478080, Tempo, 373902
1, 478080, Note_on_c, 0, 84, 0
1, 478080, Note_on_c, 0, 83, 72
1, 478080, Note_on_c, 0, 31, 44
1, 478080, Note_on_c, 0, 41, 52
1, 478200, Note_on_c, 0, 83, 0
1, 478200, Note_on_c, 0, 84, 71
1, 478260, Note_on_c, 0, 41, 0
1, 478260, Note_on_c, 0, 31, 0
1, 478320, Note_on_c, 0, 84, 0
1, 478320, Note_on_c, 0, 86, 72
1, 478320, Note_on_c, 0, 31, 44
1, 478320, Note_on_c, 0, 41, 52
1, 478440, Note_on_c, 0, 86, 0
1, 478440, Note_on_c, 0, 87, 73
1, 478500, Note_on_c, 0, 41, 0
1, 478500, Note_on_c, 0, 31, 0
1, 478560, Tempo, 377572
1, 478560, Note_on_c, 0, 87, 0
1, 478560, Note_on_c, 0, 89, 74
1, 478560, Note_on_c, 0, 32, 45
1, 478560, Note_on_c, 0, 41, 55
1, 478680, Note_on_c, 0, 89, 0
1, 478680, Note_on_c, 0, 87, 72
1, 478740, Note_on_c, 0, 41, 0
1, 478740, Note_on_c, 0, 32, 0
1, 478800, Note_on_c, 0, 87, 0
1, 478800, Note_on_c, 0, 86, 71
1, 478800, Note_on_c, 0, 32, 46
1, 478800, Note_on_c, 0, 41, 55
1, 478920, Note_on_c, 0, 86, 0
1, 478920, Note_on_c, 0, 84, 69
1, 478980, Note_on_c, 0, 41, 0
1, 478980, Note_on_c, 0, 32, 0
1, 479040, Tempo, 373902
1, 479040, Note_on_c, 0, 84, 0
1, 479040, Note_on_c, 0, 83, 72
1, 479040, Note_on_c, 0, 31, 48
1, 479040, Note_on_c, 0, 41, 58
1, 479160, Note_on_c, 0, 83, 0
1, 479160, Note_on_c, 0, 84, 75
1, 479220, Note_on_c, 0, 41, 0
1, 479220, Note_on_c, 0, 31, 0
1, 479280, Note_on_c, 0, 84, 0
1, 479280, Note_on_c, 0, 86, 77
1, 479280, Note_on_c, 0, 31, 51
1, 479280, Note_on_c, 0, 41, 60
1, 479400, Note_on_c, 0, 86, 0
1, 479400, Note_on_c, 0, 87, 80
1, 479460, Note_on_c, 0, 41, 0
1, 479460, Note_on_c, 0, 31, 0
1, 479520, Note_on_c, 0, 87, 0
1, 479520, Note_on_c, 0, 89, 80
1, 479520, Note_on_c, 0, 32, 54
1, 479520, Note_on_c, 0, 41, 64
1, 479640, Note_on_c, 0, 89, 0
1, 479640, Note_on_c, 0, 87, 80
1, 479700, Note_on_c, 0, 41, 0
1, 479700, Note_on_c, 0, 32, 0
1, 479760, Note_on_c, 0, 87, 0
1, 479760, Note_on_c, 0, 86, 79
1, 479760, Note_on_c, 0, 32, 56
1, 479760, Note_on_c, 0, 41, 66
1, 479880, Note_on_c, 0, 86, 0
1, 479880, Note_on_c, 0, 84, 81
1, 479940, Note_on_c, 0, 41, 0
1, 479940, Note_on_c, 0, 32, 0
1, 480000, Tempo, 375117
1, 480000, Note_on_c, 0, 84, 0
1, 480000, Note_on_c, 0, 83, 85
1, 480000, Note_on_c, 0, 41, 85
1, 480006, Note_on_c, 0, 31, 70
1, 480040, Tempo, 376341
1, 480080, Tempo, 378788
1, 480120, Tempo, 380035
1, 480120, Note_on_c, 0, 83, 0
1, 480120, Note_on_c, 0, 84, 89
1, 480160, Tempo, 382555
1, 480200, Tempo, 383803
1, 480240, Tempo, 386374
1, 480240, Note_on_c, 0, 84, 0
1, 480240, Note_on_c, 0, 86, 94
1, 480280, Tempo, 390269
1, 480320, Tempo, 399707
1, 480360, Tempo, 409584
1, 480360, Note_on_c, 0, 86, 0
1, 480360, Note_on_c, 0, 87, 98
1, 480400, Tempo, 419962
1, 480440, Tempo, 430911
1, 480480, Tempo, 373902
1, 480480, Note_on_c, 0, 87, 0
1, 480480, Note_on_c, 0, 41, 0
1, 480480, Note_on_c, 0, 89, 100
1, 480480, Note_on_c, 0, 43, 81
1, 480480, Note_on_c, 0, 55, 96
1, 480486, Note_on_c, 0, 31, 0
1, 480600, Note_on_c, 0, 89, 0
1, 480600, Note_on_c, 0, 87, 98
1, 480720, Note_on_c, 0, 87, 0
1, 480720, Note_on_c, 0, 86, 96
1, 480840, Note_on_c, 0, 86, 0
1, 480840, Note_on_c, 0, 84, 94
1, 480960, Note_on_c, 0, 84, 0
1, 480960, Note_on_c, 0, 83, 93
1, 481080, Note_on_c, 0, 83, 0
1, 481080, Note_on_c, 0, 80, 91
1, 481200, Note_on_c, 0, 80, 0
1, 481200, Note_on_c, 0, 79, 89
1, 481320, Note_on_c, 0, 79, 0
1, 481320, Note_on_c, 0, 77, 87
1, 481440, Tempo, 380035
1, 481440, Note_on_c, 0, 77, 0
1, 481440, Note_on_c, 0, 75, 85
1, 481560, Note_on_c, 0, 75, 0
1, 481560, Note_on_c, 0, 74, 83
1, 481680, Note_on_c, 0, 74, 0
1, 481680, Note_on_c, 0, 43, 0
1, 481680, Note_on_c, 0, 55, 0
1, 481680, Note_on_c, 0, 72, 81
1, 481680, Note_on_c, 0, 57, 67
1, 481800, Note_on_c, 0, 57, 0
1, 481800, Note_on_c, 0, 72, 0
1, 481800, Note_on_c, 0, 71, 79
1, 481800, Note_on_c, 0, 59, 70
1, 481920, Tempo, 406780
1, 481920, Note_on_c, 0, 59, 0
1, 481920, Note_on_c, 0, 71, 0
1, 481920, Note_on_c, 0, 72, 93
1, 481920, Note_on_c, 0, 60, 72
1, 482100, Note_on_c, 0, 60, 0
1, 482100, Note_on_c, 0, 72, 0
1, 482400, Tempo, 441176
1, 482400, Note_on_c, 0, 67, 83
1, 482400, Note_on_c, 0, 43, 56
1, 482400, Note_on_c, 0, 55, 66
1, 482580, Note_on_c, 0, 55, 0
1, 482580, Note_on_c, 0, 43, 0
1, 482580, Note_on_c, 0, 67, 0
1, 482880, Tempo, 478088
1, 482880, Note_on_c, 0, 63, 72
1, 482880, Note_on_c, 0, 39, 52
1, 482880, Note_on_c, 0, 51, 62
1, 483060, Note_on_c, 0, 51, 0
1, 483060, Note_on_c, 0, 39, 0
1, 483060, Note_on_c, 0, 63, 0
1, 483360, Tempo, 628272
1, 483360, Note_on_c, 0, 60, 64
1, 483360, Note_on_c, 0, 36, 48
1, 483360, Note_on_c, 0, 48, 57
1, 483540, Note_on_c, 0, 48, 0
1, 483540, Note_on_c, 0, 36, 0
1, 483540, Note_on_c, 0, 60, 0
1, 483840, Tempo, 477023
1, 483840, Note_on_c, 0, 56, 60
1, 483840, Note_on_c, 0, 32, 46
1, 483840, Note_on_c, 0, 44, 54
1, 485760, Tempo, 424028
1, 485760, Note_on_c, 0, 44, 0
1, 485760, Note_on_c, 0, 32, 0
1, 485760, Note_on_c, 0, 56, 0
1, 485760, Note_on_c, 0, 73, 54
1, 485760, Note_on_c, 0, 61, 37
1, 485940, Note_on_c, 0, 61, 0
1, 485940, Note_on_c, 0, 73, 0
1, 486240, Tempo, 461538
1, 486240, Note_on_c, 0, 68, 52
1, 486240, Note_on_c, 0, 56, 33
1, 486420, Note_on_c, 0, 56, 0
1, 486420, Note_on_c, 0, 68, 0
1, 486720, Tempo, 524017
1, 486720, Note_on_c, 0, 65, 48
1, 486720, Note_on_c, 0, 53, 32
1, 486900, Note_on_c, 0, 53, 0
1, 486900, Note_on_c, 0, 65, 0
1, 487200, Tempo, 674157
1, 487200, Note_on_c, 0, 61, 43
1, 487200, Note_on_c, 0, 49, 29
1, 487380, Note_on_c, 0, 49, 0
1, 487380, Note_on_c, 0, 61, 0
1, 487680, Tempo, 480962
1, 487680, Note_on_c, 0, 58, 39
1, 487680, Note_on_c, 0, 34, 24
1, 487680, Note_on_c, 0, 46, 29
1, 489600, Tempo, 381291
1, 489600, Note_on_c, 0, 46, 0
1, 489600, Note_on_c, 0, 34, 0
1, 489600, Note_on_c, 0, 58, 0
1, 489600, Note_on_c, 0, 63, 41
1, 489720, Note_on_c, 0, 67, 37
1, 489780, Note_on_c, 0, 63, 0
1, 489840, Note_on_c, 0, 67, 0
1, 489840, Note_on_c, 0, 70, 37
1, 489960, Note_on_c, 0, 70, 0
1, 489960, Note_on_c, 0, 75, 37
1, 490080, Note_on_c, 0, 75, 0
1, 490080, Note_on_c, 0, 58, 37
1, 490200, Note_on_c, 0, 67, 37
1, 490260, Note_on_c, 0, 58, 0
1, 490320, Note_on_c, 0, 67, 0
1, 490320, Note_on_c, 0, 70, 37
1, 490440, Note_on_c, 0, 70, 0
1, 490440, Note_on_c, 0, 75, 37
1, 490560, Note_on_c, 0, 75, 0
1, 490560, Note_on_c, 0, 55, 37
1, 490680, Note_on_c, 0, 67, 37
1, 490740, Note_on_c, 0, 55, 0
1, 490800, Note_on_c, 0, 67, 0
1, 490800, Note_on_c, 0, 70, 37
1, 490920, Note_on_c, 0, 70, 0
1, 490920, Note_on_c, 0, 75, 37
1, 491040, Tempo, 388954
1, 491040, Note_on_c, 0, 75, 0
1, 491040, Note_on_c, 0, 51, 37
1, 491160, Note_on_c, 0, 67, 37
1, 491220, Note_on_c, 0, 51, 0
1, 491280, Note_on_c, 0, 67, 0
1, 491280, Note_on_c, 0, 70, 37
1, 491400, Note_on_c, 0, 70, 0
1, 491400, Note_on_c, 0, 75, 37
1, 491520, Tempo, 381291
1, 491520, Note_on_c, 0, 75, 0
1, 491520, Note_on_c, 0, 53, 35
1, 491640, Note_on_c, 0, 65, 37
1, 491700, Note_on_c, 0, 53, 0
1, 491760, Note_on_c, 0, 65, 0
1, 491760, Note_on_c, 0, 68, 37
1, 491880, Note_on_c, 0, 68, 0
1, 491880, Note_on_c, 0, 75, 37
1, 492000, Tempo, 378788
1, 492000, Note_on_c, 0, 75, 0
1, 492000, Note_on_c, 0, 56, 38
1, 492120, Note_on_c, 0, 65, 41
1, 492180, Note_on_c, 0, 56, 0
1, 492240, Note_on_c, 0, 65, 0
1, 492240, Note_on_c, 0, 71, 41
1, 492360, Note_on_c, 0, 71, 0
1, 492360, Note_on_c, 0, 74, 41
1, 492480, Tempo, 381291
1, 492480, Note_on_c, 0, 74, 0
1, 492480, Note_on_c, 0, 57, 39
1, 492600, Note_on_c, 0, 63, 45
1, 492660, Note_on_c, 0, 57, 0
1, 492720, Note_on_c, 0, 63, 0
1, 492720, Note_on_c, 0, 66, 45
1, 492840, Note_on_c, 0, 66, 0
1, 492840, Note_on_c, 0, 74, 45
1, 492960, Tempo, 390269
1, 492960, Note_on_c, 0, 74, 0
1, 492960, Note_on_c, 0, 54, 37
1, 493080, Note_on_c, 0, 63, 39
1, 493140, Note_on_c, 0, 54, 0
1, 493200, Note_on_c, 0, 63, 0
1, 493200, Note_on_c, 0, 69, 39
1, 493320, Note_on_c, 0, 69, 0
1, 493320, Note_on_c, 0, 72, 39
1, 493440, Tempo, 388954
1, 493440, Note_on_c, 0, 72, 0
1, 493440, Note_on_c, 0, 55, 46
1, 493560, Note_on_c, 0, 62, 44
1, 493620, Note_on_c, 0, 55, 0
1, 493680, Note_on_c, 0, 62, 0
1, 493680, Note_on_c, 0, 67, 44
1, 493800, Note_on_c, 0, 67, 0
1, 493800, Note_on_c, 0, 72, 44
1, 493920, Tempo, 395596
1, 493920, Note_on_c, 0, 72, 0
1, 493920, Note_on_c, 0, 54, 44
1, 494040, Note_on_c, 0, 62, 48
1, 494100, Note_on_c, 0, 54, 0
1, 494160, Note_on_c, 0, 62, 0
1, 494160, Note_on_c, 0, 67, 48
1, 494280, Note_on_c, 0, 67, 0
1, 494280, Note_on_c, 0, 72, 48
1, 494400, Tempo, 390269
1, 494400, Note_on_c, 0, 72, 0
1, 494400, Note_on_c, 0, 55, 60
1, 494520, Note_on_c, 0, 62, 53
1, 494580, Note_on_c, 0, 55, 0
1, 494640, Note_on_c, 0, 62, 0
1, 494640, Note_on_c, 0, 67, 53
1, 494760, Note_on_c, 0, 67, 0
1, 494760, Note_on_c, 0, 71, 53
1, 494880, Tempo, 398327
1, 494880, Note_on_c, 0, 71, 0
1, 494880, Note_on_c, 0, 43, 56
1, 495000, Note_on_c, 0, 62, 58
1, 495060, Note_on_c, 0, 43, 0
1, 495120, Note_on_c, 0, 62, 0
1, 495120, Note_on_c, 0, 65, 59
1, 495240, Tempo, 495336
1, 495240, Note_on_c, 0, 65, 0
1, 495240, Note_on_c, 0, 71, 59
1, 495360, Tempo, 373902
1, 495360, Note_on_c, 0, 71, 0
1, 495360, Note_on_c, 0, 64, 68
1, 495360, Note_on_c, 0, 72, 84
1, 495360, Note_on_c, 0, 36, 70
1, 495360, Note_on_c, 0, 48, 70
1, 495600, Note_on_c, 0, 48, 0
1, 495600, Note_on_c, 0, 64, 0
1, 495600, Note_on_c, 0, 72, 0
1, 495600, Note_on_c, 0, 64, 37
1, 495600, Note_on_c, 0, 48, 31
1, 495719, Note_on_c, 0, 48, 0
1, 495719, Note_on_c, 0, 64, 0
1, 495720, Note_on_c, 0, 60, 33
1, 495720, Note_on_c, 0, 55, 26
1, 495840, Tempo, 371517
1, 495840, Note_on_c, 0, 55, 0
1, 495840, Note_on_c, 0, 60, 0
1, 495840, Note_on_c, 0, 64, 37
1, 495840, Note_on_c, 0, 48, 31
1, 495890, Control_c, 0, 64, 127
1, 495959, Note_on_c, 0, 48, 0
1, 495959, Note_on_c, 0, 64, 0
1, 495960, Note_on_c, 0, 60, 33
1, 495960, Note_on_c, 0, 55, 27
1, 496080, Note_on_c, 0, 55, 0
1, 496080, Note_on_c, 0, 60, 0
1, 496080, Note_on_c, 0, 64, 36
1, 496080, Note_on_c, 0, 48, 31
1, 496199, Note_on_c, 0, 48, 0
1, 496199, Note_on_c, 0, 64, 0
1, 496200, Note_on_c, 0, 60, 33
1, 496200, Note_on_c, 0, 55, 27
1, 496320, Note_on_c, 0, 55, 0
1, 496320, Note_on_c, 0, 60, 0
1, 496320, Note_on_c, 0, 64, 36
1, 496320, Note_on_c, 0, 48, 31
1, 496439, Note_on_c, 0, 48, 0
1, 496439, Note_on_c, 0, 64, 0
1, 496440, Note_on_c, 0, 60, 33
1, 496440, Note_on_c, 0, 55, 26
1, 496560, Note_on_c, 0, 55, 0
1, 496560, Note_on_c, 0, 60, 0
1, 496560, Note_on_c, 0, 64, 37
1, 496560, Note_on_c, 0, 48, 31
1, 496679, Note_on_c, 0, 48, 0
1, 496679, Note_on_c, 0, 64, 0
1, 496680, Note_on_c, 0, 60, 33
1, 496680, Note_on_c, 0, 55, 27
1, 496800, Tempo, 373902
1, 496800, Note_on_c, 0, 55, 0
1, 496800, Note_on_c, 0, 60, 0
1, 496800, Note_on_c, 0, 64, 36
1, 496800, Note_on_c, 0, 48, 31
1, 496919, Note_on_c, 0, 48, 0
1, 496919, Note_on_c, 0, 64, 0
1, 496920, Note_on_c, 0, 60, 33
1, 496920, Note_on_c, 0, 55, 27
1, 497040, Note_on_c, 0, 55, 0
1, 497040, Note_on_c, 0, 60, 0
1, 497040, Note_on_c, 0, 64, 36
1, 497040, Note_on_c, 0, 48, 31
1, 497159, Note_on_c, 0, 48, 0
1, 497159, Note_on_c, 0, 64, 0
1, 497160, Note_on_c, 0, 60, 33
1, 497160, Note_on_c, 0, 55, 25
1, 497280, Note_on_c, 0, 55, 0
1, 497280, Note_on_c, 0, 60, 0
1, 497280, Note_on_c, 0, 36, 0
1, 497280, Note_on_c, 0, 64, 37
1, 497280, Note_on_c, 0, 48, 31
1, 497300, Tempo, 373902
1, 497399, Note_on_c, 0, 48, 0
1, 497399, Note_on_c, 0, 64, 0
1, 497400, Note_on_c, 0, 60, 33
1, 497400, Note_on_c, 0, 55, 26
1, 497520, Note_on_c, 0, 55, 0
1, 497520, Note_on_c, 0, 60, 0
1, 497520, Note_on_c, 0, 64, 37
1, 497520, Note_on_c, 0, 48, 31
1, 497639, Note_on_c, 0, 48, 0
1, 497639, Note_on_c, 0, 64, 0
1, 497640, Note_on_c, 0, 60, 33
1, 497640, Note_on_c, 0, 55, 26
1, 497760, Tempo, 370325
1, 497760, Note_on_c, 0, 55, 0
1, 497760, Note_on_c, 0, 60, 0
1, 497760, Note_on_c, 0, 64, 37
1, 497760, Note_on_c, 0, 48, 31
1, 497879, Note_on_c, 0, 48, 0
1, 497879, Note_on_c, 0, 64, 0
1, 497880, Note_on_c, 0, 60, 33
1, 497880, Note_on_c, 0, 55, 27
1, 498000, Note_on_c, 0, 55, 0
1, 498000, Note_on_c, 0, 60, 0
1, 498000, Note_on_c, 0, 64, 36
1, 498000, Note_on_c, 0, 48, 31
1, 498119, Note_on_c, 0, 48, 0
1, 498119, Note_on_c, 0, 64, 0
1, 498120, Note_on_c, 0, 60, 33
1, 498120, Note_on_c, 0, 55, 27
1, 498240, Note_on_c, 0, 55, 0
1, 498240, Note_on_c, 0, 60, 0
1, 498240, Note_on_c, 0, 64, 36
1, 498240, Note_on_c, 0, 48, 31
1, 498359, Note_on_c, 0, 48, 0
1, 498359, Note_on_c, 0, 64, 0
1, 498360, Note_on_c, 0, 60, 33
1, 498360, Note_on_c, 0, 55, 26
1, 498480, Note_on_c, 0, 55, 0
1, 498480, Note_on_c, 0, 60, 0
1, 498480, Note_on_c, 0, 64, 37
1, 498480, Note_on_c, 0, 48, 31
1, 498599, Note_on_c, 0, 48, 0
1, 498599, Note_on_c, 0, 64, 0
1, 498600, Note_on_c, 0, 60, 33
1, 498600, Note_on_c, 0, 55, 27
1, 498720, Note_on_c, 0, 55, 0
1, 498720, Note_on_c, 0, 60, 0
1, 498720, Note_on_c, 0, 66, 36
1, 498720, Note_on_c, 0, 48, 31
1, 498732, Control_c, 0, 64, 0
1, 498740, Tempo, 373902
1, 498800, Control_c, 0, 64, 127
1, 498839, Note_on_c, 0, 48, 0
1, 498839, Note_on_c, 0, 66, 0
1, 498840, Note_on_c, 0, 62, 33
1, 498840, Note_on_c, 0, 57, 27
1, 498960, Note_on_c, 0, 57, 0
1, 498960, Note_on_c, 0, 62, 0
1, 498960, Note_on_c, 0, 66, 36
1, 498960, Note_on_c, 0, 48, 31
1, 499079, Note_on_c, 0, 48, 0
1, 499079, Note_on_c, 0, 66, 0
1, 499080, Note_on_c, 0, 62, 33
1, 499080, Note_on_c, 0, 57, 25
1, 499200, Tempo, 373902
1, 499200, Note_on_c, 0, 57, 0
1, 499200, Note_on_c, 0, 62, 0
1, 499200, Note_on_c, 0, 67, 46
1, 499200, Note_on_c, 0, 47, 26
1, 499200, Note_on_c, 0, 50, 31
1, 499213, Control_c, 0, 64, 0
1, 499320, Note_on_c, 0, 55, 25
1, 499380, Note_on_c, 0, 50, 0
1, 499380, Note_on_c, 0, 47, 0
1, 499440, Note_on_c, 0, 55, 0
1, 499440, Note_on_c, 0, 47, 26
1, 499440, Note_on_c, 0, 50, 31
1, 499560, Note_on_c, 0, 55, 25
1, 499620, Note_on_c, 0, 50, 0
1, 499620, Note_on_c, 0, 47, 0
1, 499680, Note_on_c, 0, 55, 0
1, 499680, Note_on_c, 0, 47, 26
1, 499680, Note_on_c, 0, 50, 31
1, 499800, Note_on_c, 0, 55, 25
1, 499860, Note_on_c, 0, 50, 0
1, 499860, Note_on_c, 0, 47, 0
1, 499920, Note_on_c, 0, 67, 0
1, 499920, Note_on_c, 0, 55, 0
1, 499920, Note_on_c, 0, 71, 40
1, 499920, Note_on_c, 0, 47, 26
1, 499920, Note_on_c, 0, 50, 31
1, 500040, Note_on_c, 0, 71, 0
1, 500040, Note_on_c, 0, 69, 40
1, 500040, Note_on_c, 0, 55, 25
1, 500100, Note_on_c, 0, 50, 0
1, 500100, Note_on_c, 0, 47, 0
1, 500160, Note_on_c, 0, 69, 0
1, 500160, Note_on_c, 0, 55, 0
1, 500160, Note_on_c, 0, 67, 45
1, 500160, Note_on_c, 0, 47, 26
1, 500160, Note_on_c, 0, 50, 31
1, 500280, Note_on_c, 0, 67, 0
1, 500280, Note_on_c, 0, 55, 25
1, 500340, Note_on_c, 0, 50, 0
1, 500340, Note_on_c, 0, 47, 0
1, 500400, Note_on_c, 0, 55, 0
1, 500400, Note_on_c, 0, 47, 26
1, 500400, Note_on_c, 0, 50, 31
1, 500520, Note_on_c, 0, 55, 25
1, 500580, Note_on_c, 0, 50, 0
1, 500580, Note_on_c, 0, 47, 0
1, 500640, Note_on_c, 0, 55, 0
1, 500640, Note_on_c, 0, 47, 26
1, 500640, Note_on_c, 0, 50, 31
1, 500760, Note_on_c, 0, 55, 25
1, 500820, Note_on_c, 0, 50, 0
1, 500820, Note_on_c, 0, 47, 0
1, 500880, Tempo, 383803
1, 500880, Note_on_c, 0, 55, 0
1, 500880, Note_on_c, 0, 47, 26
1, 500880, Note_on_c, 0, 50, 31
1, 501000, Note_on_c, 0, 55, 25
1, 501060, Note_on_c, 0, 50, 0
1, 501060, Note_on_c, 0, 47, 0
1, 501060, Note_on_c, 0, 85, 46
1, 501120, Tempo, 373902
1, 501120, Note_on_c, 0, 85, 0
1, 501120, Note_on_c, 0, 55, 0
1, 501120, Note_on_c, 0, 86, 57
1, 501120, Note_on_c, 0, 47, 26
1, 501120, Note_on_c, 0, 50, 31
1, 501240, Note_on_c, 0, 55, 25
1, 501300, Note_on_c, 0, 50, 0
1, 501300, Note_on_c, 0, 47, 0
1, 501360, Note_on_c, 0, 55, 0
1, 501360, Note_on_c, 0, 47, 26
1, 501360, Note_on_c, 0, 50, 31
1, 501480, Note_on_c, 0, 55, 25
1, 501540, Note_on_c, 0, 50, 0
1, 501540, Note_on_c, 0, 47, 0
1, 501600, Note_on_c, 0, 55, 0
1, 501600, Note_on_c, 0, 47, 26
1, 501600, Note_on_c, 0, 50, 31
1, 501720, Note_on_c, 0, 86, 0
1, 501720, Note_on_c, 0, 84, 48
1, 501720, Note_on_c, 0, 55, 25
1, 501780, Note_on_c, 0, 50, 0
1, 501780, Note_on_c, 0, 47, 0
1, 501840, Note_on_c, 0, 84, 0
1, 501840, Note_on_c, 0, 55, 0
1, 501840, Note_on_c, 0, 83, 47
1, 501840, Note_on_c, 0, 47, 26
1, 501840, Note_on_c, 0, 50, 31
1, 501960, Note_on_c, 0, 83, 0
1, 501960, Note_on_c, 0, 81, 45
1, 501960, Note_on_c, 0, 55, 25
1, 502020, Note_on_c, 0, 50, 0
1, 502020, Note_on_c, 0, 47, 0
1, 502080, Note_on_c, 0, 81, 0
1, 502080, Note_on_c, 0, 55, 0
1, 502080, Note_on_c, 0, 79, 44
1, 502080, Note_on_c, 0, 47, 26
1, 502080, Note_on_c, 0, 50, 31
1, 502200, Note_on_c, 0, 55, 25
1, 502260, Note_on_c, 0, 50, 0
1, 502260, Note_on_c, 0, 47, 0
1, 502320, Note_on_c, 0, 79, 0
1, 502320, Note_on_c, 0, 55, 0
1, 502320, Note_on_c, 0, 47, 26
1, 502320, Note_on_c, 0, 50, 31
1, 502440, Note_on_c, 0, 55, 25
1, 502500, Note_on_c, 0, 50, 0
1, 502500, Note_on_c, 0, 47, 0
1, 502560, Note_on_c, 0, 55, 0
1, 502560, Note_on_c, 0, 47, 26
1, 502560, Note_on_c, 0, 50, 31
1, 502680, Note_on_c, 0, 55, 25
1, 502740, Note_on_c, 0, 50, 0
1, 502740, Note_on_c, 0, 47, 0
1, 502800, Tempo, 385084
1, 502800, Note_on_c, 0, 55, 0
1, 502800, Note_on_c, 0, 47, 26
1, 502800, Note_on_c, 0, 50, 31
1, 502920, Note_on_c, 0, 55, 25
1, 502980, Note_on_c, 0, 50, 0
1, 502980, Note_on_c, 0, 47, 0
1, 503040, Tempo, 373902
1, 503040, Note_on_c, 0, 55, 0
1, 503040, Note_on_c, 0, 65, 40
1, 503040, Note_on_c, 0, 38, 33
1, 503040, Note_on_c, 0, 50, 33
1, 503159, Note_on_c, 0, 65, 0
1, 503160, Note_on_c, 0, 62, 36
1, 503280, Note_on_c, 0, 62, 0
1, 503280, Note_on_c, 0, 50, 0
1, 503280, Note_on_c, 0, 65, 40
1, 503280, Note_on_c, 0, 50, 34
1, 503351, Control_c, 0, 64, 127
1, 503399, Note_on_c, 0, 50, 0
1, 503399, Note_on_c, 0, 65, 0
1, 503400, Note_on_c, 0, 62, 36
1, 503400, Note_on_c, 0, 57, 28
1, 503520, Tempo, 370325
1, 503520, Note_on_c, 0, 57, 0
1, 503520, Note_on_c, 0, 62, 0
1, 503520, Note_on_c, 0, 65, 40
1, 503520, Note_on_c, 0, 50, 34
1, 503639, Note_on_c, 0, 50, 0
1, 503639, Note_on_c, 0, 65, 0
1, 503640, Note_on_c, 0, 62, 36
1, 503640, Note_on_c, 0, 57, 29
1, 503760, Note_on_c, 0, 57, 0
1, 503760, Note_on_c, 0, 62, 0
1, 503760, Note_on_c, 0, 65, 39
1, 503760, Note_on_c, 0, 50, 34
1, 503879, Note_on_c, 0, 50, 0
1, 503879, Note_on_c, 0, 65, 0
1, 503880, Note_on_c, 0, 62, 36
1, 503880, Note_on_c, 0, 57, 29
1, 504000, Note_on_c, 0, 57, 0
1, 504000, Note_on_c, 0, 62, 0
1, 504000, Note_on_c, 0, 65, 39
1, 504000, Note_on_c, 0, 50, 34
1, 504119, Note_on_c, 0, 50, 0
1, 504119, Note_on_c, 0, 65, 0
1, 504120, Note_on_c, 0, 62, 36
1, 504120, Note_on_c, 0, 57, 28
1, 504240, Note_on_c, 0, 57, 0
1, 504240, Note_on_c, 0, 62, 0
1, 504240, Note_on_c, 0, 65, 41
1, 504240, Note_on_c, 0, 50, 34
1, 504359, Note_on_c, 0, 50, 0
1, 504359, Note_on_c, 0, 65, 0
1, 504360, Note_on_c, 0, 62, 36
1, 504360, Note_on_c, 0, 57, 29
1, 504480, Tempo, 376341
1, 504480, Note_on_c, 0, 57, 0
1, 504480, Note_on_c, 0, 62, 0
1, 504480, Note_on_c, 0, 65, 40
1, 504480, Note_on_c, 0, 50, 34
1, 504599, Note_on_c, 0, 50, 0
1, 504599, Note_on_c, 0, 65, 0
1, 504600, Note_on_c, 0, 62, 37
1, 504600, Note_on_c, 0, 57, 30
1, 504720, Note_on_c, 0, 57, 0
1, 504720, Note_on_c, 0, 62, 0
1, 504720, Note_on_c, 0, 65, 40
1, 504720, Note_on_c, 0, 50, 35
1, 504839, Note_on_c, 0, 50, 0
1, 504839, Note_on_c, 0, 65, 0
1, 504840, Note_on_c, 0, 62, 37
1, 504840, Note_on_c, 0, 57, 28
1, 504960, Tempo, 373902
1, 504960, Note_on_c, 0, 57, 0
1, 504960, Note_on_c, 0, 62, 0
1, 504960, Note_on_c, 0, 38, 0
1, 504960, Note_on_c, 0, 65, 41
1, 504960, Note_on_c, 0, 50, 35
1, 505079, Note_on_c, 0, 50, 0
1, 505079, Note_on_c, 0, 65, 0
1, 505080, Note_on_c, 0, 62, 37
1, 505080, Note_on_c, 0, 57, 29
1, 505200, Note_on_c, 0, 57, 0
1, 505200, Note_on_c, 0, 62, 0
1, 505200, Note_on_c, 0, 65, 41
1, 505200, Note_on_c, 0, 50, 35
1, 505319, Note_on_c, 0, 50, 0
1, 505319, Note_on_c, 0, 65, 0
1, 505320, Note_on_c, 0, 62, 37
1, 505320, Note_on_c, 0, 57, 29
1, 505440, Tempo, 371517
1, 505440, Note_on_c, 0, 57, 0
1, 505440, Note_on_c, 0, 62, 0
1, 505440, Note_on_c, 0, 65, 42
1, 505440, Note_on_c, 0, 50, 35
1, 505559, Note_on_c, 0, 50, 0
1, 505559, Note_on_c, 0, 65, 0
1, 505560, Note_on_c, 0, 62, 37
1, 505560, Note_on_c, 0, 57, 30
1, 505680, Note_on_c, 0, 57, 0
1, 505680, Note_on_c, 0, 62, 0
1, 505680, Note_on_c, 0, 65, 41
1, 505680, Note_on_c, 0, 50, 35
1, 505799, Note_on_c, 0, 50, 0
1, 505799, Note_on_c, 0, 65, 0
1, 505800, Note_on_c, 0, 62, 38
1, 505800, Note_on_c, 0, 57, 30
1, 505920, Note_on_c, 0, 57, 0
1, 505920, Note_on_c, 0, 62, 0
1, 505920, Note_on_c, 0, 65, 41
1, 505920, Note_on_c, 0, 50, 36
1, 505940, Tempo, 376341
1, 506039, Note_on_c, 0, 50, 0
1, 506039, Note_on_c, 0, 65, 0
1, 506040, Note_on_c, 0, 62, 38
1, 506040, Note_on_c, 0, 57, 29
1, 506160, Note_on_c, 0, 57, 0
1, 506160, Note_on_c, 0, 62, 0
1, 506160, Note_on_c, 0, 65, 42
1, 506160, Note_on_c, 0, 50, 36
1, 506279, Note_on_c, 0, 50, 0
1, 506279, Note_on_c, 0, 65, 0
1, 506280, Note_on_c, 0, 62, 38
1, 506280, Note_on_c, 0, 57, 31
1, 506400, Note_on_c, 0, 57, 0
1, 506400, Note_on_c, 0, 62, 0
1, 506400, Note_on_c, 0, 68, 41
1, 506400, Note_on_c, 0, 50, 36
1, 506416, Control_c, 0, 64, 0
1, 506486, Control_c, 0, 64, 127
1, 506519, Note_on_c, 0, 50, 0
1, 506519, Note_on_c, 0, 68, 0
1, 506520, Note_on_c, 0, 64, 38
1, 506520, Note_on_c, 0, 59, 31
1, 506640, Note_on_c, 0, 59, 0
1, 506640, Note_on_c, 0, 64, 0
1, 506640, Note_on_c, 0, 68, 42
1, 506640, Note_on_c, 0, 50, 36
1, 506759, Note_on_c, 0, 50, 0
1, 506759, Note_on_c, 0, 68, 0
1, 506760, Note_on_c, 0, 64, 38
1, 506760, Note_on_c, 0, 59, 29
1, 506880, Tempo, 373902
1, 506880, Note_on_c, 0, 59, 0
1, 506880, Note_on_c, 0, 64, 0
1, 506880, Note_on_c, 0, 69, 55
1, 506880, Note_on_c, 0, 48, 30
1, 506880, Note_on_c, 0, 52, 37
1, 506894, Control_c, 0, 64, 0
1, 507000, Note_on_c, 0, 57, 29
1, 507060, Note_on_c, 0, 52, 0
1, 507060, Note_on_c, 0, 48, 0
1, 507120, Note_on_c, 0, 57, 0
1, 507120, Note_on_c, 0, 48, 30
1, 507120, Note_on_c, 0, 52, 37
1, 507240, Note_on_c, 0, 57, 29
1, 507300, Note_on_c, 0, 52, 0
1, 507300, Note_on_c, 0, 48, 0
1, 507360, Note_on_c, 0, 57, 0
1, 507360, Note_on_c, 0, 48, 30
1, 507360, Note_on_c, 0, 52, 37
1, 507480, Note_on_c, 0, 57, 29
1, 507540, Note_on_c, 0, 52, 0
1, 507540, Note_on_c, 0, 48, 0
1, 507600, Note_on_c, 0, 69, 0
1, 507600, Note_on_c, 0, 57, 0
1, 507600, Note_on_c, 0, 72, 48
1, 507600, Note_on_c, 0, 48, 30
1, 507600, Note_on_c, 0, 52, 37
1, 507720, Note_on_c, 0, 72, 0
1, 507720, Note_on_c, 0, 71, 48
1, 507720, Note_on_c, 0, 57, 29
1, 507780, Note_on_c, 0, 52, 0
1, 507780, Note_on_c, 0, 48, 0
1, 507840, Note_on_c, 0, 71, 0
1, 507840, Note_on_c, 0, 57, 0
1, 507840, Note_on_c, 0, 69, 53
1, 507840, Note_on_c, 0, 48, 30
1, 507840, Note_on_c, 0, 52, 37
1, 507960, Note_on_c, 0, 69, 0
1, 507960, Note_on_c, 0, 57, 29
1, 508020, Note_on_c, 0, 52, 0
1, 508020, Note_on_c, 0, 48, 0
1, 508080, Note_on_c, 0, 57, 0
1, 508080, Note_on_c, 0, 48, 30
1, 508080, Note_on_c, 0, 52, 37
1, 508200, Note_on_c, 0, 57, 29
1, 508260, Note_on_c, 0, 52, 0
1, 508260, Note_on_c, 0, 48, 0
1, 508320, Note_on_c, 0, 57, 0
1, 508320, Note_on_c, 0, 48, 30
1, 508320, Note_on_c, 0, 52, 37
1, 508440, Note_on_c, 0, 57, 29
1, 508500, Note_on_c, 0, 52, 0
1, 508500, Note_on_c, 0, 48, 0
1, 508560, Tempo, 383803
1, 508560, Note_on_c, 0, 57, 0
1, 508560, Note_on_c, 0, 48, 30
1, 508560, Note_on_c, 0, 52, 37
1, 508680, Note_on_c, 0, 57, 29
1, 508740, Note_on_c, 0, 52, 0
1, 508740, Note_on_c, 0, 48, 0
1, 508740, Note_on_c, 0, 87, 55
1, 508800, Tempo, 373902
1, 508800, Note_on_c, 0, 87, 0
1, 508800, Note_on_c, 0, 57, 0
1, 508800, Note_on_c, 0, 88, 68
1, 508800, Note_on_c, 0, 48, 30
1, 508800, Note_on_c, 0, 52, 37
1, 508920, Note_on_c, 0, 57, 29
1, 508980, Note_on_c, 0, 52, 0
1, 508980, Note_on_c, 0, 48, 0
1, 509040, Note_on_c, 0, 57, 0
1, 509040, Note_on_c, 0, 48, 30
1, 509040, Note_on_c, 0, 52, 37
1, 509160, Note_on_c, 0, 57, 29
1, 509220, Note_on_c, 0, 52, 0
1, 509220, Note_on_c, 0, 48, 0
1, 509280, Note_on_c, 0, 57, 0
1, 509280, Note_on_c, 0, 48, 30
1, 509280, Note_on_c, 0, 52, 37
1, 509400, Note_on_c, 0, 88, 0
1, 509400, Note_on_c, 0, 86, 58
1, 509400, Note_on_c, 0, 57, 29
1, 509460, Note_on_c, 0, 52, 0
1, 509460, Note_on_c, 0, 48, 0
1, 509520, Note_on_c, 0, 86, 0
1, 509520, Note_on_c, 0, 57, 0
1, 509520, Note_on_c, 0, 84, 57
1, 509520, Note_on_c, 0, 48, 30
1, 509520, Note_on_c, 0, 52, 38
1, 509640, Note_on_c, 0, 84, 0
1, 509640, Note_on_c, 0, 83, 55
1, 509640, Note_on_c, 0, 57, 30
1, 509700, Note_on_c, 0, 52, 0
1, 509700, Note_on_c, 0, 48, 0
1, 509760, Note_on_c, 0, 83, 0
1, 509760, Note_on_c, 0, 57, 0
1, 509760, Note_on_c, 0, 81, 55
1, 509760, Note_on_c, 0, 48, 31
1, 509760, Note_on_c, 0, 52, 38
1, 509880, Note_on_c, 0, 57, 30
1, 509940, Note_on_c, 0, 52, 0
1, 509940, Note_on_c, 0, 48, 0
1, 510000, Note_on_c, 0, 81, 0
1, 510000, Note_on_c, 0, 57, 0
1, 510000, Note_on_c, 0, 48, 31
1, 510000, Note_on_c, 0, 52, 39
1, 510120, Note_on_c, 0, 57, 30
1, 510180, Note_on_c, 0, 52, 0
1, 510180, Note_on_c, 0, 48, 0
1, 510240, Note_on_c, 0, 57, 0
1, 510240, Note_on_c, 0, 48, 31
1, 510240, Note_on_c, 0, 52, 39
1, 510360, Note_on_c, 0, 57, 31
1, 510420, Note_on_c, 0, 52, 0
1, 510420, Note_on_c, 0, 48, 0
1, 510480, Tempo, 385084
1, 510480, Note_on_c, 0, 57, 0
1, 510480, Note_on_c, 0, 48, 33
1, 510480, Note_on_c, 0, 52, 39
1, 510600, Note_on_c, 0, 57, 31
1, 510660, Note_on_c, 0, 52, 0
1, 510660, Note_on_c, 0, 48, 0
1, 510660, Note_on_c, 0, 83, 61
1, 510720, Tempo, 373902
1, 510720, Note_on_c, 0, 83, 0
1, 510720, Note_on_c, 0, 57, 0
1, 510720, Note_on_c, 0, 84, 78
1, 510720, Note_on_c, 0, 53, 34
1, 510720, Note_on_c, 0, 57, 41
1, 510840, Note_on_c, 0, 60, 33
1, 510900, Note_on_c, 0, 57, 0
1, 510900, Note_on_c, 0, 53, 0
1, 510960, Note_on_c, 0, 60, 0
1, 510960, Note_on_c, 0, 53, 35
1, 510960, Note_on_c, 0, 57, 41
1, 511080, Note_on_c, 0, 60, 34
1, 511140, Note_on_c, 0, 57, 0
1, 511140, Note_on_c, 0, 53, 0
1, 511200, Note_on_c, 0, 60, 0
1, 511200, Note_on_c, 0, 53, 35
1, 511200, Note_on_c, 0, 57, 42
1, 511320, Note_on_c, 0, 84, 0
1, 511320, Note_on_c, 0, 83, 68
1, 511320, Note_on_c, 0, 60, 34
1, 511380, Note_on_c, 0, 57, 0
1, 511380, Note_on_c, 0, 53, 0
1, 511440, Note_on_c, 0, 83, 0
1, 511440, Note_on_c, 0, 60, 0
1, 511440, Note_on_c, 0, 81, 67
1, 511440, Note_on_c, 0, 53, 35
1, 511440, Note_on_c, 0, 57, 42
1, 511560, Note_on_c, 0, 81, 0
1, 511560, Note_on_c, 0, 80, 64
1, 511560, Note_on_c, 0, 60, 34
1, 511620, Note_on_c, 0, 57, 0
1, 511620, Note_on_c, 0, 53, 0
1, 511680, Note_on_c, 0, 80, 0
1, 511680, Note_on_c, 0, 60, 0
1, 511680, Note_on_c, 0, 81, 63
1, 511680, Note_on_c, 0, 53, 36
1, 511680, Note_on_c, 0, 57, 44
1, 511800, Note_on_c, 0, 62, 35
1, 511860, Note_on_c, 0, 57, 0
1, 511860, Note_on_c, 0, 53, 0
1, 511920, Note_on_c, 0, 81, 0
1, 511920, Note_on_c, 0, 62, 0
1, 511920, Note_on_c, 0, 53, 37
1, 511920, Note_on_c, 0, 57, 45
1, 512040, Note_on_c, 0, 62, 36
1, 512100, Note_on_c, 0, 57, 0
1, 512100, Note_on_c, 0, 53, 0
1, 512160, Note_on_c, 0, 62, 0
1, 512160, Note_on_c, 0, 53, 37
1, 512160, Note_on_c, 0, 57, 45
1, 512280, Note_on_c, 0, 62, 37
1, 512340, Note_on_c, 0, 57, 0
1, 512340, Note_on_c, 0, 53, 0
1, 512400, Tempo, 385084
1, 512400, Note_on_c, 0, 62, 0
1, 512400, Note_on_c, 0, 53, 38
1, 512400, Note_on_c, 0, 57, 46
1, 512520, Note_on_c, 0, 62, 37
1, 512580, Tempo, 579542
1, 512580, Note_on_c, 0, 57, 0
1, 512580, Note_on_c, 0, 53, 0
1, 512580, Note_on_c, 0, 83, 63
1, 512640, Tempo, 373902
1, 512640, Note_on_c, 0, 83, 0
1, 512640, Note_on_c, 0, 62, 0
1, 512640, Note_on_c, 0, 84, 81
1, 512640, Note_on_c, 0, 53, 35
1, 512640, Note_on_c, 0, 57, 43
1, 512760, Note_on_c, 0, 63, 34
1, 512820, Note_on_c, 0, 57, 0
1, 512820, Note_on_c, 0, 53, 0
1, 512880, Note_on_c, 0, 63, 0
1, 512880, Note_on_c, 0, 53, 36
1, 512880, Note_on_c, 0, 57, 43
1, 513000, Note_on_c, 0, 63, 35
1, 513060, Note_on_c, 0, 57, 0
1, 513060, Note_on_c, 0, 53, 0
1, 513120, Note_on_c, 0, 63, 0
1, 513120, Note_on_c, 0, 53, 37
1, 513120, Note_on_c, 0, 57, 44
1, 513240, Note_on_c, 0, 84, 0
1, 513240, Note_on_c, 0, 83, 72
1, 513240, Note_on_c, 0, 63, 36
1, 513300, Note_on_c, 0, 57, 0
1, 513300, Note_on_c, 0, 53, 0
1, 513360, Note_on_c, 0, 83, 0
1, 513360, Note_on_c, 0, 63, 0
1, 513360, Note_on_c, 0, 81, 71
1, 513360, Note_on_c, 0, 53, 37
1, 513360, Note_on_c, 0, 57, 44
1, 513480, Note_on_c, 0, 81, 0
1, 513480, Note_on_c, 0, 80, 67
1, 513480, Note_on_c, 0, 63, 36
1, 513540, Note_on_c, 0, 57, 0
1, 513540, Note_on_c, 0, 53, 0
1, 513560, Tempo, 373832
1, 513600, Note_on_c, 0, 80, 0
1, 513600, Note_on_c, 0, 63, 0
1, 513600, Note_on_c, 0, 81, 70
1, 513600, Note_on_c, 0, 53, 38
1, 513600, Note_on_c, 0, 57, 47
1, 513720, Tempo, 375000
1, 513720, Note_on_c, 0, 81, 0
1, 513720, Note_on_c, 0, 80, 66
1, 513720, Note_on_c, 0, 60, 37
1, 513780, Note_on_c, 0, 57, 0
1, 513780, Note_on_c, 0, 53, 0
1, 513840, Tempo, 376176
1, 513840, Note_on_c, 0, 80, 0
1, 513840, Note_on_c, 0, 60, 0
1, 513840, Note_on_c, 0, 81, 66
1, 513840, Note_on_c, 0, 53, 38
1, 513840, Note_on_c, 0, 57, 47
1, 513960, Tempo, 377358
1, 513960, Note_on_c, 0, 81, 0
1, 513960, Note_on_c, 0, 83, 66
1, 513960, Note_on_c, 0, 60, 37
1, 514020, Note_on_c, 0, 57, 0
1, 514020, Note_on_c, 0, 53, 0
1, 514080, Tempo, 378549
1, 514080, Note_on_c, 0, 83, 0
1, 514080, Note_on_c, 0, 60, 0
1, 514080, Note_on_c, 0, 84, 69
1, 514080, Note_on_c, 0, 53, 47
1, 514200, Note_on_c, 0, 84, 0
1, 514200, Note_on_c, 0, 85, 70
1, 514200, Note_on_c, 0, 57, 39
1, 514260, Note_on_c, 0, 53, 0
1, 514320, Tempo, 413793
1, 514320, Note_on_c, 0, 57, 0
1, 514320, Note_on_c, 0, 85, 0
1, 514320, Note_on_c, 0, 86, 71
1, 514320, Note_on_c, 0, 53, 49
1, 514440, Tempo, 519481
1, 514440, Note_on_c, 0, 86, 0
1, 514440, Note_on_c, 0, 87, 74
1, 514440, Note_on_c, 0, 57, 39
1, 514500, Note_on_c, 0, 53, 0
1, 514560, Tempo, 387097
1, 514560, Note_on_c, 0, 57, 0
1, 514560, Note_on_c, 0, 87, 0
1, 514560, Note_on_c, 0, 88, 68
1, 514560, Note_on_c, 0, 52, 40
1, 514680, Tempo, 385852
1, 514680, Note_on_c, 0, 56, 35
1, 514700, Note_on_c, 0, 52, 0
1, 514800, Tempo, 384615
1, 514800, Note_on_c, 0, 59, 35
1, 514820, Note_on_c, 0, 56, 0
1, 514880, Tempo, 383387
1, 514920, Note_on_c, 0, 64, 35
1, 514940, Note_on_c, 0, 59, 0
1, 515000, Tempo, 382166
1, 515040, Note_on_c, 0, 64, 0
1, 515040, Note_on_c, 0, 52, 41
1, 515120, Tempo, 380952
1, 515160, Note_on_c, 0, 86, 54
1, 515160, Note_on_c, 0, 56, 35
1, 515180, Note_on_c, 0, 52, 0
1, 515180, Note_on_c, 0, 88, 0
1, 515200, Tempo, 379747
1, 515280, Note_on_c, 0, 84, 53
1, 515280, Note_on_c, 0, 59, 35
1, 515300, Note_on_c, 0, 86, 0
1, 515300, Note_on_c, 0, 56, 0
1, 515320, Tempo, 378549
1, 515400, Note_on_c, 0, 83, 51
1, 515400, Note_on_c, 0, 64, 35
1, 515420, Note_on_c, 0, 84, 0
1, 515420, Note_on_c, 0, 59, 0
1, 515440, Tempo, 377358
1, 515520, Tempo, 376176
1, 515520, Note_on_c, 0, 64, 0
1, 515520, Note_on_c, 0, 84, 53
1, 515520, Note_on_c, 0, 52, 39
1, 515540, Note_on_c, 0, 83, 0
1, 515640, Note_on_c, 0, 83, 52
1, 515640, Note_on_c, 0, 57, 35
1, 515660, Note_on_c, 0, 52, 0
1, 515660, Note_on_c, 0, 84, 0
1, 515760, Note_on_c, 0, 81, 51
1, 515760, Note_on_c, 0, 60, 35
1, 515780, Note_on_c, 0, 83, 0
1, 515780, Note_on_c, 0, 57, 0
1, 515880, Note_on_c, 0, 80, 50
1, 515880, Note_on_c, 0, 64, 35
1, 515900, Note_on_c, 0, 81, 0
1, 515900, Note_on_c, 0, 60, 0
1, 516000, Note_on_c, 0, 64, 0
1, 516000, Note_on_c, 0, 81, 50
1, 516000, Note_on_c, 0, 52, 40
1, 516020, Note_on_c, 0, 80, 0
1, 516120, Note_on_c, 0, 84, 52
1, 516120, Note_on_c, 0, 57, 35
1, 516140, Note_on_c, 0, 52, 0
1, 516140, Note_on_c, 0, 81, 0
1, 516240, Note_on_c, 0, 83, 50
1, 516240, Note_on_c, 0, 60, 35
1, 516260, Note_on_c, 0, 84, 0
1, 516260, Note_on_c, 0, 57, 0
1, 516360, Note_on_c, 0, 81, 50
1, 516360, Note_on_c, 0, 64, 35
1, 516380, Note_on_c, 0, 83, 0
1, 516380, Note_on_c, 0, 60, 0
1, 516440, Tempo, 373902
1, 516480, Note_on_c, 0, 64, 0
1, 516480, Note_on_c, 0, 80, 50
1, 516480, Note_on_c, 0, 52, 40
1, 516500, Note_on_c, 0, 81, 0
1, 516600, Note_on_c, 0, 78, 49
1, 516600, Note_on_c, 0, 59, 35
1, 516620, Note_on_c, 0, 52, 0
1, 516620, Note_on_c, 0, 80, 0
1, 516720, Note_on_c, 0, 76, 48
1, 516720, Note_on_c, 0, 62, 35
1, 516740, Note_on_c, 0, 78, 0
1, 516740, Note_on_c, 0, 59, 0
1, 516760, Tempo, 375117
1, 516840, Note_on_c, 0, 75, 47
1, 516840, Note_on_c, 0, 64, 35
1, 516860, Note_on_c, 0, 76, 0
1, 516860, Note_on_c, 0, 62, 0
1, 516960, Note_on_c, 0, 64, 0
1, 516960, Note_on_c, 0, 76, 49
1, 516960, Note_on_c, 0, 52, 40
1, 516980, Note_on_c, 0, 75, 0
1, 517080, Tempo, 376341
1, 517080, Note_on_c, 0, 78, 49
1, 517080, Note_on_c, 0, 59, 35
1, 517100, Note_on_c, 0, 52, 0
1, 517100, Note_on_c, 0, 76, 0
1, 517200, Note_on_c, 0, 79, 49
1, 517200, Note_on_c, 0, 62, 35
1, 517220, Note_on_c, 0, 78, 0
1, 517220, Note_on_c, 0, 59, 0
1, 517320, Note_on_c, 0, 80, 50
1, 517320, Note_on_c, 0, 64, 35
1, 517340, Note_on_c, 0, 79, 0
1, 517340, Note_on_c, 0, 62, 0
1, 517400, Tempo, 377572
1, 517440, Note_on_c, 0, 64, 0
1, 517440, Note_on_c, 0, 81, 50
1, 517440, Note_on_c, 0, 52, 40
1, 517460, Note_on_c, 0, 80, 0
1, 517560, Note_on_c, 0, 80, 50
1, 517560, Note_on_c, 0, 57, 35
1, 517580, Note_on_c, 0, 52, 0
1, 517580, Note_on_c, 0, 81, 0
1, 517680, Note_on_c, 0, 81, 51
1, 517680, Note_on_c, 0, 60, 35
1, 517700, Note_on_c, 0, 80, 0
1, 517700, Note_on_c, 0, 57, 0
1, 517720, Tempo, 378788
1, 517800, Note_on_c, 0, 83, 51
1, 517800, Note_on_c, 0, 64, 35
1, 517820, Note_on_c, 0, 81, 0
1, 517820, Note_on_c, 0, 60, 0
1, 517920, Note_on_c, 0, 64, 0
1, 517920, Note_on_c, 0, 84, 49
1, 517920, Note_on_c, 0, 52, 40
1, 517940, Note_on_c, 0, 83, 0
1, 518040, Tempo, 380952
1, 518040, Note_on_c, 0, 85, 50
1, 518040, Note_on_c, 0, 57, 35
1, 518060, Note_on_c, 0, 52, 0
1, 518060, Note_on_c, 0, 84, 0
1, 518080, Tempo, 388350
1, 518120, Tempo, 396040
1, 518160, Tempo, 404040
1, 518160, Note_on_c, 0, 86, 52
1, 518160, Note_on_c, 0, 60, 35
1, 518180, Note_on_c, 0, 85, 0
1, 518180, Note_on_c, 0, 57, 0
1, 518200, Tempo, 416667
1, 518240, Tempo, 431655
1, 518280, Tempo, 447761
1, 518280, Note_on_c, 0, 87, 53
1, 518280, Note_on_c, 0, 64, 35
1, 518300, Note_on_c, 0, 86, 0
1, 518300, Note_on_c, 0, 60, 0
1, 518320, Tempo, 465116
1, 518360, Tempo, 483871
1, 518400, Tempo, 382166
1, 518400, Note_on_c, 0, 64, 0
1, 518400, Note_on_c, 0, 88, 55
1, 518400, Note_on_c, 0, 52, 40
1, 518420, Note_on_c, 0, 87, 0
1, 518520, Note_on_c, 0, 87, 53
1, 518520, Note_on_c, 0, 56, 35
1, 518540, Note_on_c, 0, 52, 0
1, 518540, Note_on_c, 0, 88, 0
1, 518600, Tempo, 380952
1, 518640, Note_on_c, 0, 88, 53
1, 518640, Note_on_c, 0, 59, 35
1, 518660, Note_on_c, 0, 87, 0
1, 518660, Note_on_c, 0, 56, 0
1, 518760, Note_on_c, 0, 87, 50
1, 518760, Note_on_c, 0, 64, 35
1, 518780, Note_on_c, 0, 88, 0
1, 518780, Note_on_c, 0, 59, 0
1, 518800, Tempo, 379747
1, 518880, Note_on_c, 0, 64, 0
1, 518880, Note_on_c, 0, 88, 52
1, 518880, Note_on_c, 0, 52, 40
1, 518900, Note_on_c, 0, 87, 0
1, 519000, Tempo, 378549
1, 519000, Note_on_c, 0, 86, 52
1, 519000, Note_on_c, 0, 56, 35
1, 519020, Note_on_c, 0, 52, 0
1, 519020, Note_on_c, 0, 88, 0
1, 519120, Note_on_c, 0, 84, 51
1, 519120, Note_on_c, 0, 59, 35
1, 519140, Note_on_c, 0, 86, 0
1, 519140, Note_on_c, 0, 56, 0
1, 519200, Tempo, 377358
1, 519240, Note_on_c, 0, 83, 50
1, 519240, Note_on_c, 0, 64, 35
1, 519260, Note_on_c, 0, 84, 0
1, 519260, Note_on_c, 0, 59, 0
1, 519360, Tempo, 376176
1, 519360, Note_on_c, 0, 64, 0
1, 519360, Note_on_c, 0, 84, 52
1, 519360, Note_on_c, 0, 52, 40
1, 519380, Note_on_c, 0, 83, 0
1, 519480, Note_on_c, 0, 83, 51
1, 519480, Note_on_c, 0, 57, 35
1, 519500, Note_on_c, 0, 52, 0
1, 519500, Note_on_c, 0, 84, 0
1, 519600, Note_on_c, 0, 81, 49
1, 519600, Note_on_c, 0, 60, 35
1, 519620, Note_on_c, 0, 83, 0
1, 519620, Note_on_c, 0, 57, 0
1, 519720, Note_on_c, 0, 80, 50
1, 519720, Note_on_c, 0, 64, 35
1, 519740, Note_on_c, 0, 81, 0
1, 519740, Note_on_c, 0, 60, 0
1, 519840, Tempo, 375000
1, 519840, Note_on_c, 0, 64, 0
1, 519840, Note_on_c, 0, 81, 50
1, 519840, Note_on_c, 0, 52, 41
1, 519860, Note_on_c, 0, 80, 0
1, 519960, Note_on_c, 0, 84, 53
1, 519960, Note_on_c, 0, 57, 35
1, 519980, Note_on_c, 0, 52, 0
1, 519980, Note_on_c, 0, 81, 0
1, 520080, Note_on_c, 0, 83, 50
1, 520080, Note_on_c, 0, 60, 35
1, 520100, Note_on_c, 0, 84, 0
1, 520100, Note_on_c, 0, 57, 0
1, 520200, Note_on_c, 0, 81, 50
1, 520200, Note_on_c, 0, 64, 35
1, 520220, Note_on_c, 0, 83, 0
1, 520220, Note_on_c, 0, 60, 0
1, 520280, Tempo, 373832
1, 520320, Note_on_c, 0, 64, 0
1, 520320, Note_on_c, 0, 80, 50
1, 520320, Note_on_c, 0, 52, 40
1, 520340, Note_on_c, 0, 81, 0
1, 520440, Note_on_c, 0, 78, 49
1, 520440, Note_on_c, 0, 59, 35
1, 520460, Note_on_c, 0, 52, 0
1, 520460, Note_on_c, 0, 80, 0
1, 520560, Note_on_c, 0, 76, 48
1, 520560, Note_on_c, 0, 62, 35
1, 520580, Note_on_c, 0, 78, 0
1, 520580, Note_on_c, 0, 59, 0
1, 520680, Note_on_c, 0, 75, 47
1, 520680, Note_on_c, 0, 64, 35
1, 520700, Note_on_c, 0, 76, 0
1, 520700, Note_on_c, 0, 62, 0
1, 520800, Note_on_c, 0, 64, 0
1, 520800, Note_on_c, 0, 76, 49
1, 520800, Note_on_c, 0, 52, 40
1, 520820, Note_on_c, 0, 75, 0
1, 520920, Note_on_c, 0, 78, 50
1, 520920, Note_on_c, 0, 59, 36
1, 520940, Note_on_c, 0, 52, 0
1, 520940, Note_on_c, 0, 76, 0
1, 521040, Note_on_c, 0, 79, 50
1, 521040, Note_on_c, 0, 62, 36
1, 521060, Note_on_c, 0, 78, 0
1, 521060, Note_on_c, 0, 59, 0
1, 521160, Note_on_c, 0, 80, 52
1, 521160, Note_on_c, 0, 64, 36
1, 521180, Note_on_c, 0, 79, 0
1, 521180, Note_on_c, 0, 62, 0
1, 521280, Note_on_c, 0, 64, 0
1, 521280, Note_on_c, 0, 81, 52
1, 521280, Note_on_c, 0, 52, 42
1, 521300, Note_on_c, 0, 80, 0
1, 521400, Note_on_c, 0, 80, 52
1, 521400, Note_on_c, 0, 57, 36
1, 521420, Note_on_c, 0, 52, 0
1, 521420, Note_on_c, 0, 81, 0
1, 521520, Note_on_c, 0, 81, 54
1, 521520, Note_on_c, 0, 60, 37
1, 521540, Note_on_c, 0, 80, 0
1, 521540, Note_on_c, 0, 57, 0
1, 521640, Note_on_c, 0, 83, 54
1, 521640, Note_on_c, 0, 64, 37
1, 521660, Note_on_c, 0, 81, 0
1, 521660, Note_on_c, 0, 60, 0
1, 521760, Note_on_c, 0, 64, 0
1, 521760, Note_on_c, 0, 84, 56
1, 521760, Note_on_c, 0, 52, 42
1, 521780, Note_on_c, 0, 83, 0
1, 521880, Note_on_c, 0, 85, 58
1, 521880, Note_on_c, 0, 57, 37
1, 521900, Note_on_c, 0, 52, 0
1, 521900, Note_on_c, 0, 84, 0
1, 522000, Tempo, 392927
1, 522000, Note_on_c, 0, 86, 60
1, 522000, Note_on_c, 0, 60, 37
1, 522020, Note_on_c, 0, 85, 0
1, 522020, Note_on_c, 0, 57, 0
1, 522120, Note_on_c, 0, 87, 62
1, 522120, Note_on_c, 0, 64, 38
1, 522140, Note_on_c, 0, 86, 0
1, 522140, Note_on_c, 0, 60, 0
1, 522240, Tempo, 373902
1, 522240, Note_on_c, 0, 64, 0
1, 522240, Note_on_c, 0, 88, 68
1, 522240, Note_on_c, 0, 52, 44
1, 522260, Note_on_c, 0, 87, 0
1, 522280, Control_c, 0, 64, 127
1, 522360, Note_on_c, 0, 52, 0
1, 522360, Note_on_c, 0, 88, 0
1, 522360, Note_on_c, 0, 83, 60
1, 522360, Note_on_c, 0, 56, 38
1, 522480, Note_on_c, 0, 56, 0
1, 522480, Note_on_c, 0, 83, 0
1, 522480, Note_on_c, 0, 80, 61
1, 522480, Note_on_c, 0, 59, 38
1, 522600, Note_on_c, 0, 59, 0
1, 522600, Note_on_c, 0, 80, 0
1, 522600, Note_on_c, 0, 76, 61
1, 522600, Note_on_c, 0, 64, 38
1, 522720, Note_on_c, 0, 64, 0
1, 522720, Note_on_c, 0, 76, 0
1, 522720, Note_on_c, 0, 75, 75
1, 522720, Note_on_c, 0, 63, 50
1, 522739, Control_c, 0, 64, 0
1, 522800, Control_c, 0, 64, 127
1, 522840, Note_on_c, 0, 63, 0
1, 522840, Note_on_c, 0, 75, 0
1, 522840, Note_on_c, 0, 76, 63
1, 522840, Note_on_c, 0, 64, 41
1, 522960, Note_on_c, 0, 64, 0
1, 522960, Note_on_c, 0, 76, 0
1, 522960, Note_on_c, 0, 81, 63
1, 522960, Note_on_c, 0, 60, 40
1, 523080, Note_on_c, 0, 60, 0
1, 523080, Note_on_c, 0, 81, 0
1, 523080, Note_on_c, 0, 84, 63
1, 523080, Note_on_c, 0, 57, 41
1, 523200, Note_on_c, 0, 57, 0
1, 523200, Note_on_c, 0, 84, 0
1, 523200, Note_on_c, 0, 88, 74
1, 523200, Note_on_c, 0, 52, 52
1, 523217, Control_c, 0, 64, 0
1, 523275, Control_c, 0, 64, 127
1, 523320, Note_on_c, 0, 52, 0
1, 523320, Note_on_c, 0, 88, 0
1, 523320, Note_on_c, 0, 83, 65
1, 523320, Note_on_c, 0, 56, 44
1, 523440, Note_on_c, 0, 56, 0
1, 523440, Note_on_c, 0, 83, 0
1, 523440, Note_on_c, 0, 80, 68
1, 523440, Note_on_c, 0, 59, 45
1, 523560, Note_on_c, 0, 59, 0
1, 523560, Note_on_c, 0, 80, 0
1, 523560, Note_on_c, 0, 76, 68
1, 523560, Note_on_c, 0, 64, 45
1, 523680, Note_on_c, 0, 64, 0
1, 523680, Note_on_c, 0, 76, 0
1, 523680, Note_on_c, 0, 75, 80
1, 523680, Note_on_c, 0, 63, 60
1, 523697, Control_c, 0, 64, 0
1, 523766, Control_c, 0, 64, 127
1, 523800, Note_on_c, 0, 63, 0
1, 523800, Note_on_c, 0, 75, 0
1, 523800, Note_on_c, 0, 76, 71
1, 523800, Note_on_c, 0, 64, 51
1, 523920, Note_on_c, 0, 64, 0
1, 523920, Note_on_c, 0, 76, 0
1, 523920, Note_on_c, 0, 81, 71
1, 523920, Note_on_c, 0, 60, 51
1, 524040, Note_on_c, 0, 60, 0
1, 524040, Note_on_c, 0, 81, 0
1, 524040, Note_on_c, 0, 84, 72
1, 524040, Note_on_c, 0, 57, 52
1, 524160, Note_on_c, 0, 57, 0
1, 524160, Note_on_c, 0, 84, 0
1, 524160, Note_on_c, 0, 88, 91
1, 524160, Note_on_c, 0, 52, 63
1, 524177, Control_c, 0, 64, 0
1, 524217, Control_c, 0, 64, 127
1, 524280, Note_on_c, 0, 52, 0
1, 524280, Note_on_c, 0, 88, 0
1, 524280, Note_on_c, 0, 83, 82
1, 524280, Note_on_c, 0, 56, 52
1, 524400, Note_on_c, 0, 56, 0
1, 524400, Note_on_c, 0, 83, 0
1, 524400, Note_on_c, 0, 80, 82
1, 524400, Note_on_c, 0, 59, 52
1, 524520, Note_on_c, 0, 59, 0
1, 524520, Note_on_c, 0, 80, 0
1, 524520, Note_on_c, 0, 76, 82
1, 524520, Note_on_c, 0, 64, 52
1, 524640, Note_on_c, 0, 64, 0
1, 524640, Note_on_c, 0, 76, 0
1, 524640, Note_on_c, 0, 88, 91
1, 524640, Note_on_c, 0, 52, 63
1, 524659, Control_c, 0, 64, 0
1, 524720, Control_c, 0, 64, 127
1, 524760, Note_on_c, 0, 52, 0
1, 524760, Note_on_c, 0, 88, 0
1, 524760, Note_on_c, 0, 84, 82
1, 524760, Note_on_c, 0, 57, 52
1, 524880, Note_on_c, 0, 57, 0
1, 524880, Note_on_c, 0, 84, 0
1, 524880, Note_on_c, 0, 81, 82
1, 524880, Note_on_c, 0, 60, 52
1, 525000, Note_on_c, 0, 60, 0
1, 525000, Note_on_c, 0, 81, 0
1, 525000, Note_on_c, 0, 76, 82
1, 525000, Note_on_c, 0, 64, 52
1, 525120, Tempo, 373902
1, 525120, Note_on_c, 0, 64, 0
1, 525120, Note_on_c, 0, 76, 0
1, 525120, Note_on_c, 0, 88, 91
1, 525120, Note_on_c, 0, 52, 63
1, 525137, Control_c, 0, 64, 0
1, 525200, Control_c, 0, 64, 127
1, 525240, Note_on_c, 0, 52, 0
1, 525240, Note_on_c, 0, 88, 0
1, 525240, Note_on_c, 0, 83, 82
1, 525240, Note_on_c, 0, 56, 52
1, 525360, Note_on_c, 0, 56, 0
1, 525360, Note_on_c, 0, 83, 0
1, 525360, Note_on_c, 0, 80, 81
1, 525360, Note_on_c, 0, 59, 52
1, 525480, Note_on_c, 0, 59, 0
1, 525480, Note_on_c, 0, 80, 0
1, 525480, Note_on_c, 0, 76, 81
1, 525480, Note_on_c, 0, 64, 52
1, 525600, Note_on_c, 0, 64, 0
1, 525600, Note_on_c, 0, 76, 0
1, 525600, Note_on_c, 0, 88, 91
1, 525600, Note_on_c, 0, 52, 63
1, 525620, Control_c, 0, 64, 0
1, 525686, Control_c, 0, 64, 127
1, 525720, Note_on_c, 0, 52, 0
1, 525720, Note_on_c, 0, 88, 0
1, 525720, Note_on_c, 0, 84, 81
1, 525720, Note_on_c, 0, 57, 52
1, 525840, Note_on_c, 0, 57, 0
1, 525840, Note_on_c, 0, 84, 0
1, 525840, Note_on_c, 0, 81, 81
1, 525840, Note_on_c, 0, 60, 52
1, 525960, Note_on_c, 0, 60, 0
1, 525960, Note_on_c, 0, 81, 0
1, 525960, Note_on_c, 0, 76, 82
1, 525960, Note_on_c, 0, 64, 52
1, 526080, Tempo, 375117
1, 526080, Note_on_c, 0, 64, 0
1, 526080, Note_on_c, 0, 76, 0
1, 526080, Note_on_c, 0, 88, 91
1, 526080, Note_on_c, 0, 52, 54
1, 526080, Note_on_c, 0, 56, 54
1, 526080, Note_on_c, 0, 59, 54
1, 526080, Note_on_c, 0, 64, 63
1, 526097, Control_c, 0, 64, 0
1, 526166, Control_c, 0, 64, 127
1, 526200, Note_on_c, 0, 88, 0
1, 526200, Note_on_c, 0, 83, 82
1, 526320, Note_on_c, 0, 83, 0
1, 526320, Note_on_c, 0, 80, 82
1, 526440, Note_on_c, 0, 80, 0
1, 526440, Note_on_c, 0, 76, 82
1, 526560, Note_on_c, 0, 76, 0
1, 526560, Note_on_c, 0, 64, 0
1, 526560, Note_on_c, 0, 52, 0
1, 526560, Note_on_c, 0, 56, 0
1, 526560, Note_on_c, 0, 59, 0
1, 526560, Note_on_c, 0, 83, 91
1, 526680, Note_on_c, 0, 83, 0
1, 526680, Note_on_c, 0, 80, 82
1, 526720, Tempo, 376341
1, 526800, Note_on_c, 0, 80, 0
1, 526800, Note_on_c, 0, 76, 82
1, 526920, Note_on_c, 0, 76, 0
1, 526920, Note_on_c, 0, 71, 82
1, 527040, Note_on_c, 0, 71, 0
1, 527040, Note_on_c, 0, 80, 91
1, 527160, Note_on_c, 0, 80, 0
1, 527160, Note_on_c, 0, 76, 82
1, 527280, Note_on_c, 0, 76, 0
1, 527280, Note_on_c, 0, 71, 81
1, 527360, Tempo, 377572
1, 527400, Note_on_c, 0, 71, 0
1, 527400, Note_on_c, 0, 68, 81
1, 527520, Note_on_c, 0, 68, 0
1, 527520, Note_on_c, 0, 76, 91
1, 527640, Note_on_c, 0, 76, 0
1, 527640, Note_on_c, 0, 71, 81
1, 527760, Note_on_c, 0, 71, 0
1, 527760, Note_on_c, 0, 68, 81
1, 527880, Note_on_c, 0, 68, 0
1, 527880, Note_on_c, 0, 64, 82
1, 527960, Tempo, 378788
1, 528000, Tempo, 375117
1, 528000, Note_on_c, 0, 64, 0
1, 528000, Note_on_c, 0, 71, 91
1, 528120, Note_on_c, 0, 71, 0
1, 528120, Note_on_c, 0, 68, 81
1, 528240, Note_on_c, 0, 68, 0
1, 528240, Note_on_c, 0, 64, 80
1, 528280, Tempo, 376341
1, 528360, Note_on_c, 0, 64, 0
1, 528360, Note_on_c, 0, 59, 80
1, 528480, Note_on_c, 0, 59, 0
1, 528480, Note_on_c, 0, 68, 89
1, 528560, Tempo, 377572
1, 528600, Note_on_c, 0, 68, 0
1, 528600, Note_on_c, 0, 64, 79
1, 528720, Note_on_c, 0, 64, 0
1, 528720, Note_on_c, 0, 59, 79
1, 528840, Tempo, 378788
1, 528840, Note_on_c, 0, 59, 0
1, 528840, Note_on_c, 0, 56, 78
1, 528960, Note_on_c, 0, 56, 0
1, 528960, Note_on_c, 0, 64, 87
1, 529080, Note_on_c, 0, 64, 0
1, 529080, Note_on_c, 0, 59, 78
1, 529120, Tempo, 380035
1, 529200, Note_on_c, 0, 59, 0
1, 529200, Note_on_c, 0, 56, 77
1, 529320, Note_on_c, 0, 56, 0
1, 529320, Note_on_c, 0, 52, 77
1, 529400, Tempo, 381291
1, 529440, Note_on_c, 0, 52, 0
1, 529440, Note_on_c, 0, 40, 85
1, 529560, Note_on_c, 0, 40, 0
1, 529560, Note_on_c, 0, 44, 76
1, 529680, Tempo, 399707
1, 529680, Note_on_c, 0, 44, 0
1, 529680, Note_on_c, 0, 47, 76
1, 529800, Note_on_c, 0, 47, 0
1, 529800, Note_on_c, 0, 52, 75
1, 529920, Tempo, 372671
1, 529920, Note_on_c, 0, 52, 0
1, 529920, Note_on_c, 0, 40, 77
1, 529933, Control_c, 0, 64, 0
1, 530040, Note_on_c, 0, 40, 0
1, 530160, Tempo, 382166
1, 530160, Note_on_c, 0, 52, 68
1, 530280, Note_on_c, 0, 52, 0
1, 530400, Tempo, 373832
1, 530400, Note_on_c, 0, 42, 73
1, 530520, Note_on_c, 0, 42, 0
1, 530640, Tempo, 382166
1, 530640, Note_on_c, 0, 54, 66
1, 530760, Note_on_c, 0, 54, 0
1, 530880, Tempo, 373832
1, 530880, Note_on_c, 0, 76, 75
1, 530880, Note_on_c, 0, 44, 71
1, 531000, Note_on_c, 0, 44, 0
1, 531000, Note_on_c, 0, 76, 0
1, 531120, Tempo, 382166
1, 531120, Note_on_c, 0, 64, 69
1, 531120, Note_on_c, 0, 56, 65
1, 531240, Note_on_c, 0, 56, 0
1, 531240, Note_on_c, 0, 64, 0
1, 531360, Tempo, 377358
1, 531360, Note_on_c, 0, 78, 74
1, 531480, Note_on_c, 0, 78, 0
1, 531600, Tempo, 401070
1, 531600, Note_on_c, 0, 66, 65
1, 531720, Note_on_c, 0, 66, 0
1, 531840, Tempo, 376176
1, 531840, Note_on_c, 0, 80, 71
1, 531840, Note_on_c, 0, 44, 69
1, 531960, Note_on_c, 0, 44, 0
1, 531960, Note_on_c, 0, 80, 0
1, 532080, Tempo, 383387
1, 532080, Note_on_c, 0, 68, 64
1, 532080, Note_on_c, 0, 56, 61
1, 532200, Tempo, 385084
1, 532200, Note_on_c, 0, 56, 0
1, 532200, Note_on_c, 0, 68, 0
1, 532320, Tempo, 377358
1, 532320, Note_on_c, 0, 45, 65
1, 532440, Note_on_c, 0, 45, 0
1, 532520, Tempo, 386374
1, 532560, Note_on_c, 0, 57, 59
1, 532680, Note_on_c, 0, 57, 0
1, 532800, Tempo, 378549
1, 532800, Note_on_c, 0, 80, 67
1, 532800, Note_on_c, 0, 47, 65
1, 532920, Note_on_c, 0, 47, 0
1, 532920, Note_on_c, 0, 80, 0
1, 533000, Tempo, 384615
1, 533040, Note_on_c, 0, 68, 53
1, 533040, Note_on_c, 0, 59, 54
1, 533160, Tempo, 388954
1, 533160, Note_on_c, 0, 59, 0
1, 533160, Note_on_c, 0, 68, 0
1, 533280, Note_on_c, 0, 81, 59
1, 533400, Note_on_c, 0, 81, 0
1, 533440, Tempo, 390269
1, 533520, Note_on_c, 0, 69, 50
1, 533640, Note_on_c, 0, 69, 0
1, 533760, Tempo, 380952
1, 533760, Note_on_c, 0, 83, 52
1, 533880, Note_on_c, 0, 83, 0
1, 534000, Tempo, 385852
1, 534000, Note_on_c, 0, 71, 49
1, 534080, Tempo, 388954
1, 534120, Note_on_c, 0, 71, 0
1, 534240, Note_on_c, 0, 85, 52
1, 534360, Note_on_c, 0, 85, 0
1, 534400, Tempo, 390269
1, 534480, Note_on_c, 0, 73, 49
1, 534600, Note_on_c, 0, 73, 0
1, 534680, Tempo, 391594
1, 534720, Note_on_c, 0, 86, 52
1, 534720, Note_on_c, 0, 47, 41
1, 534840, Note_on_c, 0, 47, 0
1, 534840, Note_on_c, 0, 86, 0
1, 534960, Note_on_c, 0, 74, 48
1, 534960, Note_on_c, 0, 59, 36
1, 535080, Note_on_c, 0, 59, 0
1, 535080, Note_on_c, 0, 74, 0
1, 535200, Tempo, 390269
1, 535200, Note_on_c, 0, 86, 52
1, 535200, Note_on_c, 0, 49, 41
1, 535320, Note_on_c, 0, 49, 0
1, 535320, Note_on_c, 0, 86, 0
1, 535400, Tempo, 391594
1, 535440, Note_on_c, 0, 76, 46
1, 535440, Note_on_c, 0, 61, 36
1, 535560, Tempo, 392927
1, 535560, Note_on_c, 0, 61, 0
1, 535560, Note_on_c, 0, 76, 0
1, 535680, Note_on_c, 0, 86, 51
1, 535680, Note_on_c, 0, 50, 40
1, 535760, Tempo, 394244
1, 535800, Note_on_c, 0, 50, 0
1, 535800, Note_on_c, 0, 86, 0
1, 535920, Tempo, 395596
1, 535920, Note_on_c, 0, 78, 46
1, 535920, Note_on_c, 0, 62, 37
1, 536040, Note_on_c, 0, 62, 0
1, 536040, Note_on_c, 0, 78, 0
1, 536120, Tempo, 396957
1, 536160, Note_on_c, 0, 86, 51
1, 536160, Note_on_c, 0, 52, 39
1, 536280, Tempo, 398327
1, 536280, Note_on_c, 0, 52, 0
1, 536280, Note_on_c, 0, 86, 0
1, 536400, Note_on_c, 0, 80, 46
1, 536400, Note_on_c, 0, 64, 36
1, 536480, Tempo, 399707
1, 536520, Note_on_c, 0, 64, 0
1, 536520, Note_on_c, 0, 80, 0
1, 536640, Tempo, 401070
1, 536640, Note_on_c, 0, 86, 51
1, 536640, Note_on_c, 0, 54, 38
1, 536660, Tempo, 394244
1, 536700, Tempo, 395596
1, 536720, Tempo, 396957
1, 536740, Tempo, 398327
1, 536760, Note_on_c, 0, 54, 0
1, 536760, Note_on_c, 0, 86, 0
1, 536780, Tempo, 399707
1, 536800, Tempo, 401070
1, 536820, Tempo, 402468
1, 536860, Tempo, 403877
1, 536880, Tempo, 405296
1, 536880, Note_on_c, 0, 81, 47
1, 536880, Note_on_c, 0, 66, 37
1, 536900, Tempo, 406697
1, 536920, Tempo, 408136
1, 536960, Tempo, 409584
1, 536980, Tempo, 411043
1, 537000, Tempo, 412485
1, 537000, Note_on_c, 0, 66, 0
1, 537000, Note_on_c, 0, 81, 0
1, 537040, Tempo, 413964
1, 537060, Tempo, 415455
1, 537080, Tempo, 416956
1, 537100, Tempo, 418468
1, 537120, Tempo, 421496
1, 537120, Note_on_c, 0, 86, 50
1, 537120, Note_on_c, 0, 56, 40
1, 537140, Tempo, 426136
1, 537160, Tempo, 430911
1, 537180, Tempo, 434122
1, 537200, Tempo, 439046
1, 537220, Tempo, 444115
1, 537240, Tempo, 447527
1, 537240, Note_on_c, 0, 56, 0
1, 537240, Note_on_c, 0, 86, 0
1, 537260, Tempo, 452796
1, 537280, Tempo, 458155
1, 537300, Tempo, 461787
1, 537320, Tempo, 467399
1, 537340, Tempo, 473111
1, 537360, Tempo, 477023
1, 537360, Note_on_c, 0, 83, 46
1, 537360, Note_on_c, 0, 68, 37
1, 537380, Tempo, 482975
1, 537400, Tempo, 489077
1, 537420, Tempo, 493259
1, 537440, Tempo, 499625
1, 537460, Tempo, 506158
1, 537480, Tempo, 510638
1, 537480, Note_on_c, 0, 68, 0
1, 537480, Note_on_c, 0, 83, 0
1, 537500, Tempo, 517464
1, 537520, Tempo, 524476
1, 537540, Tempo, 531726
1, 537560, Tempo, 551978
1, 537580, Tempo, 582468
1, 537600, Tempo, 440109
1, 537600, Note_on_c, 0, 73, 42
1, 537600, Note_on_c, 0, 76, 42
1, 537600, Note_on_c, 0, 81, 42
1, 537600, Note_on_c, 0, 85, 55
1, 537600, Note_on_c, 0, 64, 33
1, 537600, Note_on_c, 0, 61, 33
1, 537600, Note_on_c, 0, 69, 39
1, 537600, Note_on_c, 0, 57, 33
1, 538560, Tempo, 430447
1, 538560, Note_on_c, 0, 57, 0
1, 538560, Note_on_c, 0, 73, 0
1, 538560, Note_on_c, 0, 64, 0
1, 538560, Note_on_c, 0, 76, 0
1, 538560, Note_on_c, 0, 81, 0
1, 538560, Note_on_c, 0, 85, 0
1, 538560, Note_on_c, 0, 61, 0
1, 538560, Note_on_c, 0, 69, 0
1, 538560, Note_on_c, 0, 71, 40
1, 538560, Note_on_c, 0, 76, 40
1, 538560, Note_on_c, 0, 80, 40
1, 538560, Note_on_c, 0, 83, 52
1, 538560, Note_on_c, 0, 59, 29
1, 538560, Note_on_c, 0, 64, 35
1, 538560, Note_on_c, 0, 56, 29
1, 538560, Note_on_c, 0, 52, 29
1, 539040, Tempo, 470588
1, 539040, Note_on_c, 0, 52, 0
1, 539040, Note_on_c, 0, 71, 0
1, 539040, Note_on_c, 0, 59, 0
1, 539040, Note_on_c, 0, 76, 0
1, 539040, Note_on_c, 0, 80, 0
1, 539040, Note_on_c, 0, 83, 0
1, 539040, Note_on_c, 0, 64, 0
1, 539040, Note_on_c, 0, 56, 0
1, 539040, Note_on_c, 0, 69, 40
1, 539040, Note_on_c, 0, 73, 40
1, 539040, Note_on_c, 0, 78, 40
1, 539040, Note_on_c, 0, 81, 52
1, 539040, Note_on_c, 0, 57, 29
1, 539040, Note_on_c, 0, 61, 29
1, 539040, Note_on_c, 0, 66, 35
1, 539040, Note_on_c, 0, 54, 29
1, 539520, Tempo, 444444
1, 539520, Note_on_c, 0, 54, 0
1, 539520, Note_on_c, 0, 69, 0
1, 539520, Note_on_c, 0, 57, 0
1, 539520, Note_on_c, 0, 73, 0
1, 539520, Note_on_c, 0, 78, 0
1, 539520, Note_on_c, 0, 81, 0
1, 539520, Note_on_c, 0, 61, 0
1, 539520, Note_on_c, 0, 66, 0
1, 539520, Note_on_c, 0, 68, 42
1, 539520, Note_on_c, 0, 71, 42
1, 539520, Note_on_c, 0, 77, 42
1, 539520, Note_on_c, 0, 80, 55
1, 539520, Note_on_c, 0, 49, 33
1, 539520, Note_on_c, 0, 61, 39
1, 539520, Note_on_c, 0, 56, 33
1, 539520, Note_on_c, 0, 53, 33
1, 540480, Note_on_c, 0, 53, 0
1, 540480, Note_on_c, 0, 68, 0
1, 540480, Note_on_c, 0, 49, 0
1, 540480, Note_on_c, 0, 71, 0
1, 540480, Note_on_c, 0, 77, 0
1, 540480, Note_on_c, 0, 80, 0
1, 540480, Note_on_c, 0, 61, 0
1, 540480, Note_on_c, 0, 56, 0
1, 540480, Note_on_c, 0, 74, 40
1, 540480, Note_on_c, 0, 66, 40
1, 540480, Note_on_c, 0, 69, 40
1, 540480, Note_on_c, 0, 78, 52
1, 540480, Note_on_c, 0, 54, 28
1, 540480, Note_on_c, 0, 50, 28
1, 540480, Note_on_c, 0, 62, 34
1, 540480, Note_on_c, 0, 57, 28
1, 540960, Tempo, 462642
1, 541440, Tempo, 451128
1, 541440, Note_on_c, 0, 57, 0
1, 541440, Note_on_c, 0, 74, 0
1, 541440, Note_on_c, 0, 54, 0
1, 541440, Note_on_c, 0, 66, 0
1, 541440, Note_on_c, 0, 69, 0
1, 541440, Note_on_c, 0, 78, 0
1, 541440, Note_on_c, 0, 50, 0
1, 541440, Note_on_c, 0, 62, 0
1, 541440, Note_on_c, 0, 68, 49
1, 541440, Note_on_c, 0, 74, 49
1, 541440, Note_on_c, 0, 76, 49
1, 541440, Note_on_c, 0, 80, 63
1, 541440, Note_on_c, 0, 47, 37
1, 541440, Note_on_c, 0, 52, 45
1, 541440, Note_on_c, 0, 56, 37
1, 541440, Note_on_c, 0, 59, 45
1, 542400, Tempo, 468750
1, 542400, Note_on_c, 0, 59, 0
1, 542400, Note_on_c, 0, 68, 0
1, 542400, Note_on_c, 0, 47, 0
1, 542400, Note_on_c, 0, 74, 0
1, 542400, Note_on_c, 0, 76, 0
1, 542400, Note_on_c, 0, 80, 0
1, 542400, Note_on_c, 0, 52, 0
1, 542400, Note_on_c, 0, 56, 0
1, 542400, Note_on_c, 0, 69, 50
1, 542400, Note_on_c, 0, 76, 50
1, 542400, Note_on_c, 0, 81, 66
1, 542400, Note_on_c, 0, 57, 40
1, 542400, Note_on_c, 0, 49, 40
1, 542400, Note_on_c, 0, 52, 40
1, 542400, Note_on_c, 0, 61, 49
1, 542880, Tempo, 508475
1, 542880, Note_on_c, 0, 61, 0
1, 542880, Note_on_c, 0, 49, 0
1, 542880, Note_on_c, 0, 76, 0
1, 542880, Note_on_c, 0, 81, 0
1, 542880, Note_on_c, 0, 69, 0
1, 542880, Note_on_c, 0, 52, 0
1, 542880, Note_on_c, 0, 57, 0
1, 542880, Note_on_c, 0, 71, 55
1, 542880, Note_on_c, 0, 78, 55
1, 542880, Note_on_c, 0, 81, 55
1, 542880, Note_on_c, 0, 83, 72
1, 542880, Note_on_c, 0, 59, 46
1, 542880, Note_on_c, 0, 62, 55
1, 542880, Note_on_c, 0, 50, 36
1, 542880, Note_on_c, 0, 54, 41
1, 543360, Tempo, 449438
1, 543360, Note_on_c, 0, 54, 0
1, 543360, Note_on_c, 0, 71, 0
1, 543360, Note_on_c, 0, 59, 0
1, 543360, Note_on_c, 0, 78, 0
1, 543360, Note_on_c, 0, 81, 0
1, 543360, Note_on_c, 0, 83, 0
1, 543360, Note_on_c, 0, 62, 0
1, 543360, Note_on_c, 0, 50, 0
1, 543360, Note_on_c, 0, 73, 59
1, 543360, Note_on_c, 0, 76, 59
1, 543360, Note_on_c, 0, 81, 59
1, 543360, Note_on_c, 0, 85, 77
1, 543360, Note_on_c, 0, 61, 49
1, 543360, Note_on_c, 0, 52, 49
1, 543360, Note_on_c, 0, 57, 49
1, 543360, Note_on_c, 0, 64, 59
1, 544320, Tempo, 465116
1, 544320, Note_on_c, 0, 64, 0
1, 544320, Note_on_c, 0, 57, 0
1, 544320, Note_on_c, 0, 73, 0
1, 544320, Note_on_c, 0, 85, 0
1, 544320, Note_on_c, 0, 81, 0
1, 544320, Note_on_c, 0, 61, 0
1, 544320, Note_on_c, 0, 71, 33
1, 544320, Note_on_c, 0, 80, 32
1, 544320, Note_on_c, 0, 83, 49
1, 544320, Note_on_c, 0, 59, 27
1, 544320, Note_on_c, 0, 56, 27
1, 544320, Note_on_c, 0, 64, 32
1, 544800, Tempo, 466345
1, 544800, Note_on_c, 0, 76, 0
1, 544800, Note_on_c, 0, 74, 55
1, 545278, Note_on_c, 0, 64, 0
1, 545280, Tempo, 440109
1, 545280, Note_on_c, 0, 83, 0
1, 545280, Note_on_c, 0, 59, 0
1, 545280, Note_on_c, 0, 71, 0
1, 545280, Note_on_c, 0, 80, 0
1, 545280, Note_on_c, 0, 52, 0
1, 545280, Note_on_c, 0, 56, 0
1, 545280, Note_on_c, 0, 74, 0
1, 545280, Note_on_c, 0, 64, 37
1, 545280, Note_on_c, 0, 69, 37
1, 545280, Note_on_c, 0, 72, 45
1, 545280, Note_on_c, 0, 60, 35
1, 545280, Note_on_c, 0, 57, 29
1, 546240, Tempo, 430447
1, 546240, Note_on_c, 0, 57, 0
1, 546240, Note_on_c, 0, 72, 0
1, 546240, Note_on_c, 0, 64, 0
1, 546240, Note_on_c, 0, 69, 0
1, 546240, Note_on_c, 0, 60, 0
1, 546240, Note_on_c, 0, 64, 36
1, 546240, Note_on_c, 0, 67, 36
1, 546240, Note_on_c, 0, 71, 43
1, 546240, Note_on_c, 0, 59, 31
1, 546240, Note_on_c, 0, 55, 26
1, 546240, Note_on_c, 0, 52, 26
1, 546720, Tempo, 455477
1, 546720, Note_on_c, 0, 52, 0
1, 546720, Note_on_c, 0, 67, 0
1, 546720, Note_on_c, 0, 71, 0
1, 546720, Note_on_c, 0, 64, 0
1, 546720, Note_on_c, 0, 55, 0
1, 546720, Note_on_c, 0, 59, 0
1, 546720, Note_on_c, 0, 60, 36
1, 546720, Note_on_c, 0, 65, 36
1, 546720, Note_on_c, 0, 69, 43
1, 546720, Note_on_c, 0, 57, 31
1, 546720, Note_on_c, 0, 53, 26
1, 547200, Tempo, 441761
1, 547200, Note_on_c, 0, 53, 0
1, 547200, Note_on_c, 0, 69, 0
1, 547200, Note_on_c, 0, 60, 0
1, 547200, Note_on_c, 0, 65, 0
1, 547200, Note_on_c, 0, 57, 0
1, 547200, Note_on_c, 0, 60, 37
1, 547200, Note_on_c, 0, 64, 37
1, 547200, Note_on_c, 0, 67, 45
1, 547200, Note_on_c, 0, 55, 35
1, 547200, Note_on_c, 0, 52, 29
1, 547200, Note_on_c, 0, 48, 29
1, 548160, Note_on_c, 0, 48, 0
1, 548160, Note_on_c, 0, 64, 0
1, 548160, Note_on_c, 0, 67, 0
1, 548160, Note_on_c, 0, 60, 0
1, 548160, Note_on_c, 0, 52, 0
1, 548160, Note_on_c, 0, 55, 0
1, 548160, Note_on_c, 0, 62, 36
1, 548160, Note_on_c, 0, 57, 36
1, 548160, Note_on_c, 0, 65, 43
1, 548160, Note_on_c, 0, 53, 30
1, 548160, Note_on_c, 0, 50, 25
1, 548640, Tempo, 462642
1, 549120, Tempo, 445104
1, 549120, Note_on_c, 0, 50, 0
1, 549120, Note_on_c, 0, 65, 0
1, 549120, Note_on_c, 0, 62, 0
1, 549120, Note_on_c, 0, 57, 0
1, 549120, Note_on_c, 0, 53, 0
1, 549120, Note_on_c, 0, 60, 44
1, 549120, Note_on_c, 0, 64, 44
1, 549120, Note_on_c, 0, 67, 52
1, 549120, Note_on_c, 0, 48, 35
1, 549120, Note_on_c, 0, 52, 35
1, 549120, Note_on_c, 0, 43, 26
1, 549600, Note_on_c, 0, 52, 0
1, 549600, Note_on_c, 0, 48, 0
1, 549600, Note_on_c, 0, 64, 0
1, 549600, Note_on_c, 0, 60, 0
1, 549600, Note_on_c, 0, 62, 45
1, 549600, Note_on_c, 0, 65, 45
1, 549600, Note_on_c, 0, 50, 35
1, 549600, Note_on_c, 0, 53, 35
1, 550080, Tempo, 435224
1, 550080, Note_on_c, 0, 67, 0
1, 550080, Note_on_c, 0, 69, 61
1, 550560, Tempo, 460829
1, 550560, Note_on_c, 0, 69, 0
1, 550560, Note_on_c, 0, 71, 69
1, 551000, Tempo, 457247
1, 551040, Tempo, 451026
1, 551040, Note_on_c, 0, 71, 0
1, 551040, Note_on_c, 0, 62, 0
1, 551040, Note_on_c, 0, 65, 0
1, 551040, Note_on_c, 0, 43, 0
1, 551040, Note_on_c, 0, 53, 0
1, 551040, Note_on_c, 0, 50, 0
1, 551040, Note_on_c, 0, 60, 41
1, 551040, Note_on_c, 0, 64, 41
1, 551040, Note_on_c, 0, 72, 51
1, 551040, Note_on_c, 0, 48, 37
1, 551040, Note_on_c, 0, 52, 40
1, 551080, Tempo, 452830
1, 551160, Note_on_c, 0, 72, 0
1, 551200, Note_on_c, 0, 60, 0
1, 551200, Note_on_c, 0, 64, 0
1, 551200, Note_on_c, 0, 74, 48
1, 551280, Tempo, 451128
1, 551320, Note_on_c, 0, 74, 0
1, 551360, Note_on_c, 0, 76, 49
1, 551440, Tempo, 449438
1, 551480, Note_on_c, 0, 76, 0
1, 551520, Note_on_c, 0, 48, 0
1, 551520, Note_on_c, 0, 52, 0
1, 551520, Note_on_c, 0, 77, 50
1, 551600, Tempo, 447761
1, 551640, Note_on_c, 0, 77, 0
1, 551680, Note_on_c, 0, 79, 50
1, 551760, Tempo, 446097
1, 551800, Note_on_c, 0, 79, 0
1, 551840, Note_on_c, 0, 81, 51
1, 551960, Tempo, 444444
1, 551960, Note_on_c, 0, 81, 0
1, 552000, Note_on_c, 0, 82, 52
1, 552120, Tempo, 442804
1, 552120, Note_on_c, 0, 82, 0
1, 552160, Note_on_c, 0, 83, 48
1, 552280, Tempo, 441176
1, 552280, Note_on_c, 0, 83, 0
1, 552320, Note_on_c, 0, 84, 49
1, 552440, Tempo, 439560
1, 552440, Note_on_c, 0, 84, 0
1, 552480, Note_on_c, 0, 85, 51
1, 552560, Tempo, 437956
1, 552600, Note_on_c, 0, 85, 0
1, 552640, Note_on_c, 0, 86, 53
1, 552760, Note_on_c, 0, 86, 0
1, 552800, Note_on_c, 0, 87, 54
1, 552920, Tempo, 436364
1, 552920, Note_on_c, 0, 87, 0
1, 552960, Tempo, 434122
1, 552960, Note_on_c, 0, 84, 48
1, 552960, Note_on_c, 0, 88, 58
1, 552960, Note_on_c, 0, 76, 44
1, 552960, Note_on_c, 0, 72, 37
1, 553120, Note_on_c, 0, 88, 0
1, 553120, Note_on_c, 0, 87, 53
1, 553280, Note_on_c, 0, 87, 0
1, 553280, Note_on_c, 0, 88, 53
1, 553440, Note_on_c, 0, 88, 0
1, 553440, Note_on_c, 0, 89, 53
1, 553600, Note_on_c, 0, 89, 0
1, 553600, Note_on_c, 0, 87, 53
1, 553760, Note_on_c, 0, 87, 0
1, 553760, Note_on_c, 0, 88, 53
1, 553920, Tempo, 424598
1, 553920, Note_on_c, 0, 88, 0
1, 553920, Note_on_c, 0, 72, 0
1, 553920, Note_on_c, 0, 76, 0
1, 553920, Note_on_c, 0, 84, 0
1, 553920, Note_on_c, 0, 83, 60
1, 553920, Note_on_c, 0, 77, 40
1, 553920, Note_on_c, 0, 74, 40
1, 553920, Note_on_c, 0, 71, 33
1, 553920, Note_on_c, 0, 68, 33
1, 554080, Note_on_c, 0, 88, 54
1, 554240, Note_on_c, 0, 88, 0
1, 554240, Note_on_c, 0, 86, 54
1, 554400, Tempo, 449270
1, 554400, Note_on_c, 0, 86, 0
1, 554400, Note_on_c, 0, 68, 0
1, 554400, Note_on_c, 0, 74, 0
1, 554400, Note_on_c, 0, 83, 0
1, 554400, Note_on_c, 0, 77, 0
1, 554400, Note_on_c, 0, 71, 0
1, 554400, Note_on_c, 0, 76, 60
1, 554400, Note_on_c, 0, 76, 40
1, 554400, Note_on_c, 0, 72, 40
1, 554400, Note_on_c, 0, 69, 33
1, 554560, Note_on_c, 0, 86, 53
1, 554720, Note_on_c, 0, 86, 0
1, 554720, Note_on_c, 0, 84, 53
1, 554880, Tempo, 435761
1, 554880, Note_on_c, 0, 84, 0
1, 554880, Note_on_c, 0, 69, 0
1, 554880, Note_on_c, 0, 76, 0
1, 554880, Note_on_c, 0, 76, 0
1, 554880, Note_on_c, 0, 72, 0
1, 554880, Note_on_c, 0, 80, 60
1, 554880, Note_on_c, 0, 74, 44
1, 554880, Note_on_c, 0, 71, 44
1, 554880, Note_on_c, 0, 68, 37
1, 554880, Note_on_c, 0, 64, 37
1, 555040, Note_on_c, 0, 82, 54
1, 555200, Note_on_c, 0, 82, 0
1, 555200, Note_on_c, 0, 83, 54
1, 555360, Note_on_c, 0, 83, 0
1, 555360, Note_on_c, 0, 84, 54
1, 555520, Note_on_c, 0, 84, 0
1, 555520, Note_on_c, 0, 82, 54
1, 555680, Note_on_c, 0, 82, 0
1, 555680, Note_on_c, 0, 83, 54
1, 555840, Note_on_c, 0, 83, 0
1, 555840, Note_on_c, 0, 74, 0
1, 555840, Note_on_c, 0, 71, 0
1, 555840, Note_on_c, 0, 80, 0
1, 555840, Note_on_c, 0, 64, 0
1, 555840, Note_on_c, 0, 68, 0
1, 555840, Note_on_c, 0, 77, 60
1, 555840, Note_on_c, 0, 72, 39
1, 555840, Note_on_c, 0, 69, 39
1, 555840, Note_on_c, 0, 65, 32
1, 556000, Note_on_c, 0, 80, 54
1, 556160, Note_on_c, 0, 80, 0
1, 556160, Note_on_c, 0, 81, 54
1, 556320, Tempo, 456343
1, 556320, Note_on_c, 0, 81, 0
1, 556320, Note_on_c, 0, 83, 54
1, 556480, Note_on_c, 0, 83, 0
1, 556480, Note_on_c, 0, 80, 54
1, 556640, Note_on_c, 0, 80, 0
1, 556640, Note_on_c, 0, 81, 54
1, 556800, Tempo, 439046
1, 556800, Note_on_c, 0, 81, 0
1, 556800, Note_on_c, 0, 69, 0
1, 556800, Note_on_c, 0, 77, 0
1, 556800, Note_on_c, 0, 72, 0
1, 556800, Note_on_c, 0, 65, 0
1, 556800, Note_on_c, 0, 77, 62
1, 556800, Note_on_c, 0, 62, 39
1, 556800, Note_on_c, 0, 65, 47
1, 556800, Note_on_c, 0, 67, 39
1, 556800, Note_on_c, 0, 71, 47
1, 556960, Note_on_c, 0, 82, 62
1, 557120, Note_on_c, 0, 82, 0
1, 557120, Note_on_c, 0, 83, 57
1, 557280, Note_on_c, 0, 83, 0
1, 557280, Note_on_c, 0, 84, 57
1, 557440, Note_on_c, 0, 84, 0
1, 557440, Note_on_c, 0, 82, 59
1, 557600, Note_on_c, 0, 82, 0
1, 557600, Note_on_c, 0, 83, 59
1, 557760, Tempo, 429307
1, 557760, Note_on_c, 0, 83, 0
1, 557760, Note_on_c, 0, 62, 0
1, 557760, Note_on_c, 0, 65, 0
1, 557760, Note_on_c, 0, 77, 0
1, 557760, Note_on_c, 0, 71, 0
1, 557760, Note_on_c, 0, 67, 0
1, 557760, Note_on_c, 0, 79, 71
1, 557760, Note_on_c, 0, 64, 45
1, 557760, Note_on_c, 0, 67, 45
1, 557760, Note_on_c, 0, 72, 53
1, 557920, Note_on_c, 0, 86, 63
1, 558080, Note_on_c, 0, 86, 0
1, 558080, Note_on_c, 0, 84, 64
1, 558240, Tempo, 454545
1, 558240, Note_on_c, 0, 84, 0
1, 558240, Note_on_c, 0, 72, 0
1, 558240, Note_on_c, 0, 79, 0
1, 558240, Note_on_c, 0, 64, 0
1, 558240, Note_on_c, 0, 67, 0
1, 558240, Note_on_c, 0, 81, 74
1, 558240, Note_on_c, 0, 72, 56
1, 558240, Note_on_c, 0, 74, 57
1, 558240, Note_on_c, 0, 65, 45
1, 558240, Note_on_c, 0, 69, 48
1, 558400, Note_on_c, 0, 88, 65
1, 558560, Note_on_c, 0, 88, 0
1, 558560, Note_on_c, 0, 86, 65
1, 558720, Tempo, 435761
1, 558720, Note_on_c, 0, 86, 0
1, 558720, Note_on_c, 0, 69, 0
1, 558720, Note_on_c, 0, 74, 0
1, 558720, Note_on_c, 0, 81, 0
1, 558720, Note_on_c, 0, 72, 0
1, 558720, Note_on_c, 0, 65, 0
1, 558720, Note_on_c, 0, 88, 79
1, 558720, Note_on_c, 0, 84, 79
1, 558720, Note_on_c, 0, 67, 53
1, 558720, Note_on_c, 0, 72, 53
1, 558720, Note_on_c, 0, 76, 65
1, 558880, Note_on_c, 0, 88, 0
1, 558880, Note_on_c, 0, 87, 72
1, 559040, Note_on_c, 0, 87, 0
1, 559040, Note_on_c, 0, 88, 72
1, 559200, Note_on_c, 0, 88, 0
1, 559200, Note_on_c, 0, 91, 68
1, 559360, Note_on_c, 0, 91, 0
1, 559360, Note_on_c, 0, 89, 72
1, 559520, Note_on_c, 0, 89, 0
1, 559520, Note_on_c, 0, 88, 69
1, 559680, Tempo, 440723
1, 559680, Note_on_c, 0, 88, 0
1, 559680, Note_on_c, 0, 76, 0
1, 559680, Note_on_c, 0, 84, 0
1, 559680, Note_on_c, 0, 72, 0
1, 559680, Note_on_c, 0, 83, 67
1, 559680, Note_on_c, 0, 86, 67
1, 559680, Note_on_c, 0, 71, 45
1, 559680, Note_on_c, 0, 74, 53
1, 559840, Note_on_c, 0, 86, 0
1, 559840, Note_on_c, 0, 83, 0
1, 559840, Note_on_c, 0, 81, 64
1, 559840, Note_on_c, 0, 84, 64
1, 560000, Note_on_c, 0, 84, 0
1, 560000, Note_on_c, 0, 81, 0
1, 560000, Note_on_c, 0, 83, 60
1, 560000, Note_on_c, 0, 79, 60
1, 560160, Tempo, 459982
1, 560160, Note_on_c, 0, 79, 0
1, 560160, Note_on_c, 0, 74, 0
1, 560160, Note_on_c, 0, 67, 0
1, 560160, Note_on_c, 0, 71, 0
1, 560160, Note_on_c, 0, 83, 0
1, 560160, Note_on_c, 0, 77, 60
1, 560160, Note_on_c, 0, 81, 60
1, 560160, Note_on_c, 0, 55, 44
1, 560320, Note_on_c, 0, 55, 0
1, 560320, Note_on_c, 0, 81, 0
1, 560320, Note_on_c, 0, 77, 0
1, 560320, Note_on_c, 0, 76, 56
1, 560320, Note_on_c, 0, 79, 56
1, 560320, Note_on_c, 0, 57, 43
1, 560480, Note_on_c, 0, 57, 0
1, 560480, Note_on_c, 0, 79, 0
1, 560480, Note_on_c, 0, 76, 0
1, 560480, Note_on_c, 0, 74, 53
1, 560480, Note_on_c, 0, 77, 53
1, 560480, Note_on_c, 0, 59, 41
1, 560640, Tempo, 434122
1, 560640, Note_on_c, 0, 59, 0
1, 560640, Note_on_c, 0, 77, 0
1, 560640, Note_on_c, 0, 74, 0
1, 560640, Note_on_c, 0, 67, 57
1, 560640, Note_on_c, 0, 76, 57
1, 560640, Note_on_c, 0, 64, 45
1, 560640, Note_on_c, 0, 60, 37
1, 560800, Note_on_c, 0, 76, 0
1, 560800, Note_on_c, 0, 75, 49
1, 560960, Note_on_c, 0, 75, 0
1, 560960, Note_on_c, 0, 76, 49
1, 561120, Note_on_c, 0, 76, 0
1, 561120, Note_on_c, 0, 77, 49
1, 561280, Note_on_c, 0, 77, 0
1, 561280, Note_on_c, 0, 75, 49
1, 561440, Note_on_c, 0, 75, 0
1, 561440, Note_on_c, 0, 76, 49
1, 561600, Tempo, 424598
1, 561600, Note_on_c, 0, 76, 0
1, 561600, Note_on_c, 0, 60, 0
1, 561600, Note_on_c, 0, 64, 0
1, 561600, Note_on_c, 0, 67, 0
1, 561600, Note_on_c, 0, 65, 56
1, 561600, Note_on_c, 0, 62, 41
1, 561600, Note_on_c, 0, 59, 33
1, 561600, Note_on_c, 0, 56, 33
1, 561760, Note_on_c, 0, 76, 50
1, 561920, Note_on_c, 0, 76, 0
1, 561920, Note_on_c, 0, 74, 50
1, 562080, Tempo, 449270
1, 562080, Note_on_c, 0, 74, 0
1, 562080, Note_on_c, 0, 56, 0
1, 562080, Note_on_c, 0, 65, 0
1, 562080, Note_on_c, 0, 62, 0
1, 562080, Note_on_c, 0, 59, 0
1, 562080, Note_on_c, 0, 64, 56
1, 562080, Note_on_c, 0, 60, 41
1, 562080, Note_on_c, 0, 57, 33
1, 562240, Note_on_c, 0, 74, 49
1, 562400, Note_on_c, 0, 74, 0
1, 562400, Note_on_c, 0, 72, 49
1, 562560, Tempo, 435761
1, 562560, Note_on_c, 0, 72, 0
1, 562560, Note_on_c, 0, 57, 0
1, 562560, Note_on_c, 0, 60, 0
1, 562560, Note_on_c, 0, 64, 0
1, 562560, Note_on_c, 0, 59, 37
1, 562560, Note_on_c, 0, 62, 56
1, 562560, Note_on_c, 0, 56, 37
1, 562560, Note_on_c, 0, 52, 37
1, 562720, Note_on_c, 0, 70, 50
1, 562880, Note_on_c, 0, 70, 0
1, 562880, Note_on_c, 0, 71, 50
1, 563040, Note_on_c, 0, 71, 0
1, 563040, Note_on_c, 0, 72, 53
1, 563200, Note_on_c, 0, 72, 0
1, 563200, Note_on_c, 0, 70, 50
1, 563360, Note_on_c, 0, 70, 0
1, 563360, Note_on_c, 0, 71, 50
1, 563520, Note_on_c, 0, 71, 0
1, 563520, Note_on_c, 0, 56, 0
1, 563520, Note_on_c, 0, 59, 0
1, 563520, Note_on_c, 0, 62, 0
1, 563520, Note_on_c, 0, 52, 0
1, 563520, Note_on_c, 0, 53, 39
1, 563520, Note_on_c, 0, 57, 39
1, 563520, Note_on_c, 0, 60, 32
1, 563680, Note_on_c, 0, 68, 50
1, 563840, Note_on_c, 0, 68, 0
1, 563840, Note_on_c, 0, 69, 50
1, 564000, Tempo, 456343
1, 564000, Note_on_c, 0, 69, 0
1, 564000, Note_on_c, 0, 71, 53
1, 564160, Note_on_c, 0, 71, 0
1, 564160, Note_on_c, 0, 68, 50
1, 564320, Note_on_c, 0, 68, 0
1, 564320, Note_on_c, 0, 69, 50
1, 564480, Tempo, 439046
1, 564480, Note_on_c, 0, 69, 0
1, 564480, Note_on_c, 0, 53, 0
1, 564480, Note_on_c, 0, 57, 0
1, 564480, Note_on_c, 0, 60, 0
1, 564480, Note_on_c, 0, 60, 60
1, 564480, Note_on_c, 0, 48, 52
1, 564480, Note_on_c, 0, 43, 46
1, 564480, Note_on_c, 0, 52, 55
1, 564572, Control_c, 0, 64, 127
1, 564640, Note_on_c, 0, 60, 0
1, 564640, Note_on_c, 0, 64, 56
1, 564800, Tempo, 463643
1, 564800, Note_on_c, 0, 64, 0
1, 564800, Note_on_c, 0, 67, 57
1, 564960, Tempo, 444115
1, 564960, Note_on_c, 0, 67, 0
1, 564960, Note_on_c, 0, 48, 0
1, 564960, Note_on_c, 0, 52, 0
1, 564960, Note_on_c, 0, 62, 66
1, 564960, Note_on_c, 0, 50, 55
1, 564960, Note_on_c, 0, 53, 58
1, 564971, Control_c, 0, 64, 0
1, 565031, Control_c, 0, 64, 127
1, 565120, Note_on_c, 0, 62, 0
1, 565120, Note_on_c, 0, 65, 61
1, 565280, Tempo, 475059
1, 565280, Note_on_c, 0, 65, 0
1, 565280, Note_on_c, 0, 67, 61
1, 565440, Tempo, 459982
1, 565440, Note_on_c, 0, 67, 0
1, 565440, Note_on_c, 0, 62, 74
1, 565456, Control_c, 0, 64, 0
1, 565520, Tempo, 449270
1, 565539, Control_c, 0, 64, 127
1, 565600, Note_on_c, 0, 62, 0
1, 565600, Note_on_c, 0, 65, 67
1, 565760, Tempo, 463643
1, 565760, Note_on_c, 0, 65, 0
1, 565760, Note_on_c, 0, 69, 65
1, 565920, Tempo, 451026
1, 565920, Note_on_c, 0, 69, 0
1, 565920, Note_on_c, 0, 62, 80
1, 565938, Control_c, 0, 64, 0
1, 566040, Control_c, 0, 64, 127
1, 566080, Note_on_c, 0, 62, 0
1, 566080, Note_on_c, 0, 65, 71
1, 566240, Tempo, 465513
1, 566240, Note_on_c, 0, 65, 0
1, 566240, Note_on_c, 0, 71, 70
1, 566391, Tempo, 435761
1, 566400, Tempo, 437413
1, 566400, Note_on_c, 0, 71, 0
1, 566400, Note_on_c, 0, 43, 0
1, 566400, Note_on_c, 0, 50, 0
1, 566400, Note_on_c, 0, 53, 0
1, 566400, Note_on_c, 0, 64, 77
1, 566400, Note_on_c, 0, 72, 82
1, 566400, Note_on_c, 0, 36, 50
1, 566400, Note_on_c, 0, 48, 60
1, 566418, Control_c, 0, 64, 0
1, 566492, Control_c, 0, 64, 127
1, 566560, Note_on_c, 0, 72, 0
1, 566560, Note_on_c, 0, 64, 0
1, 566560, Note_on_c, 0, 55, 75
1, 566720, Note_on_c, 0, 55, 0
1, 566720, Note_on_c, 0, 52, 77
1, 566880, Note_on_c, 0, 52, 0
1, 566880, Note_on_c, 0, 36, 0
1, 566880, Note_on_c, 0, 48, 0
1, 566880, Note_on_c, 0, 55, 82
1, 566880, Note_on_c, 0, 43, 60
1, 567040, Note_on_c, 0, 55, 0
1, 567040, Note_on_c, 0, 60, 77
1, 567200, Tempo, 449270
1, 567200, Note_on_c, 0, 60, 0
1, 567200, Note_on_c, 0, 64, 77
1, 567360, Tempo, 435761
1, 567360, Note_on_c, 0, 64, 0
1, 567360, Note_on_c, 0, 62, 82
1, 567378, Control_c, 0, 64, 0
1, 567487, Control_c, 0, 64, 127
1, 567520, Note_on_c, 0, 62, 0
1, 567520, Note_on_c, 0, 59, 77
1, 567680, Note_on_c, 0, 59, 0
1, 567680, Note_on_c, 0, 55, 77
1, 567840, Note_on_c, 0, 55, 0
1, 567840, Note_on_c, 0, 43, 0
1, 567840, Note_on_c, 0, 59, 82
1, 567840, Note_on_c, 0, 43, 60
1, 568000, Note_on_c, 0, 59, 0
1, 568000, Note_on_c, 0, 62, 77
1, 568160, Tempo, 451026
1, 568160, Note_on_c, 0, 62, 0
1, 568160, Note_on_c, 0, 65, 77
1, 568320, Tempo, 430911
1, 568320, Note_on_c, 0, 65, 0
1, 568320, Note_on_c, 0, 64, 82
1, 568339, Control_c, 0, 64, 0
1, 568391, Control_c, 0, 64, 127
1, 568480, Note_on_c, 0, 64, 0
1, 568480, Note_on_c, 0, 60, 75
1, 568640, Note_on_c, 0, 60, 0
1, 568640, Note_on_c, 0, 55, 77
1, 568800, Note_on_c, 0, 55, 0
1, 568800, Note_on_c, 0, 43, 0
1, 568800, Note_on_c, 0, 60, 82
1, 568800, Note_on_c, 0, 43, 60
1, 568960, Note_on_c, 0, 60, 0
1, 568960, Note_on_c, 0, 64, 77
1, 569120, Tempo, 449270
1, 569120, Note_on_c, 0, 64, 0
1, 569120, Note_on_c, 0, 67, 77
1, 569280, Tempo, 427716
1, 569280, Note_on_c, 0, 67, 0
1, 569280, Note_on_c, 0, 65, 82
1, 569299, Control_c, 0, 64, 0
1, 569358, Control_c, 0, 64, 127
1, 569440, Note_on_c, 0, 65, 0
1, 569440, Note_on_c, 0, 62, 77
1, 569600, Tempo, 445831
1, 569600, Note_on_c, 0, 62, 0
1, 569600, Note_on_c, 0, 59, 77
1, 569760, Tempo, 427716
1, 569760, Note_on_c, 0, 59, 0
1, 569760, Note_on_c, 0, 43, 0
1, 569760, Note_on_c, 0, 71, 82
1, 569760, Note_on_c, 0, 43, 60
1, 569920, Note_on_c, 0, 71, 0
1, 569920, Note_on_c, 0, 65, 77
1, 570080, Note_on_c, 0, 65, 0
1, 570080, Note_on_c, 0, 62, 77
1, 570240, Tempo, 426136
1, 570240, Note_on_c, 0, 62, 0
1, 570240, Note_on_c, 0, 43, 0
1, 570240, Note_on_c, 0, 64, 63
1, 570240, Note_on_c, 0, 72, 75
1, 570240, Note_on_c, 0, 48, 73
1, 570250, Control_c, 0, 64, 0
1, 570325, Control_c, 0, 64, 127
1, 570400, Note_on_c, 0, 48, 0
1, 570400, Note_on_c, 0, 43, 67
1, 570560, Note_on_c, 0, 43, 0
1, 570560, Note_on_c, 0, 40, 69
1, 570720, Note_on_c, 0, 40, 0
1, 570720, Note_on_c, 0, 72, 0
1, 570720, Note_on_c, 0, 64, 0
1, 570720, Note_on_c, 0, 67, 75
1, 570720, Note_on_c, 0, 43, 73
1, 570880, Note_on_c, 0, 43, 0
1, 570880, Note_on_c, 0, 48, 69
1, 571040, Tempo, 440723
1, 571040, Note_on_c, 0, 48, 0
1, 571040, Note_on_c, 0, 52, 69
1, 571200, Tempo, 429307
1, 571200, Note_on_c, 0, 52, 0
1, 571200, Note_on_c, 0, 50, 73
1, 571219, Control_c, 0, 64, 0
1, 571306, Control_c, 0, 64, 127
1, 571360, Note_on_c, 0, 50, 0
1, 571360, Note_on_c, 0, 47, 69
1, 571520, Note_on_c, 0, 47, 0
1, 571520, Note_on_c, 0, 43, 69
1, 571680, Note_on_c, 0, 43, 0
1, 571680, Note_on_c, 0, 67, 0
1, 571680, Note_on_c, 0, 67, 75
1, 571680, Note_on_c, 0, 47, 73
1, 571840, Note_on_c, 0, 47, 0
1, 571840, Note_on_c, 0, 50, 69
1, 572000, Tempo, 442413
1, 572000, Note_on_c, 0, 50, 0
1, 572000, Note_on_c, 0, 53, 69
1, 572160, Tempo, 429307
1, 572160, Note_on_c, 0, 53, 0
1, 572160, Note_on_c, 0, 52, 73
1, 572172, Control_c, 0, 64, 0
1, 572238, Control_c, 0, 64, 127
1, 572320, Note_on_c, 0, 52, 0
1, 572320, Note_on_c, 0, 48, 67
1, 572480, Note_on_c, 0, 48, 0
1, 572480, Note_on_c, 0, 43, 69
1, 572640, Note_on_c, 0, 43, 0
1, 572640, Note_on_c, 0, 67, 0
1, 572640, Note_on_c, 0, 67, 75
1, 572640, Note_on_c, 0, 48, 73
1, 572800, Note_on_c, 0, 48, 0
1, 572800, Note_on_c, 0, 52, 69
1, 572960, Tempo, 442413
1, 572960, Note_on_c, 0, 52, 0
1, 572960, Note_on_c, 0, 55, 69
1, 573120, Tempo, 430911
1, 573120, Note_on_c, 0, 55, 0
1, 573120, Note_on_c, 0, 53, 73
1, 573138, Control_c, 0, 64, 0
1, 573219, Control_c, 0, 64, 127
1, 573280, Note_on_c, 0, 53, 0
1, 573280, Note_on_c, 0, 50, 69
1, 573440, Tempo, 444115
1, 573440, Note_on_c, 0, 50, 0
1, 573440, Note_on_c, 0, 47, 69
1, 573600, Tempo, 427716
1, 573600, Note_on_c, 0, 47, 0
1, 573600, Note_on_c, 0, 67, 0
1, 573600, Note_on_c, 0, 67, 75
1, 573600, Note_on_c, 0, 59, 73
1, 573760, Note_on_c, 0, 59, 0
1, 573760, Note_on_c, 0, 53, 69
1, 573920, Tempo, 444115
1, 573920, Note_on_c, 0, 53, 0
1, 573920, Note_on_c, 0, 50, 69
1, 574080, Tempo, 426136
1, 574080, Note_on_c, 0, 50, 0
1, 574080, Note_on_c, 0, 67, 0
1, 574080, Note_on_c, 0, 72, 82
1, 574080, Note_on_c, 0, 52, 64
1, 574091, Control_c, 0, 64, 0
1, 574158, Control_c, 0, 64, 127
1, 574240, Note_on_c, 0, 52, 0
1, 574240, Note_on_c, 0, 72, 0
1, 574240, Note_on_c, 0, 67, 75
1, 574240, Note_on_c, 0, 55, 56
1, 574400, Note_on_c, 0, 55, 0
1, 574400, Note_on_c, 0, 67, 0
1, 574400, Note_on_c, 0, 64, 77
1, 574400, Note_on_c, 0, 60, 56
1, 574560, Note_on_c, 0, 60, 0
1, 574560, Note_on_c, 0, 64, 0
1, 574560, Note_on_c, 0, 67, 82
1, 574560, Note_on_c, 0, 55, 64
1, 574720, Note_on_c, 0, 55, 0
1, 574720, Note_on_c, 0, 67, 0
1, 574720, Note_on_c, 0, 72, 77
1, 574720, Note_on_c, 0, 52, 57
1, 574880, Tempo, 440723
1, 574880, Note_on_c, 0, 52, 0
1, 574880, Note_on_c, 0, 72, 0
1, 574880, Note_on_c, 0, 76, 77
1, 574880, Note_on_c, 0, 48, 57
1, 575040, Tempo, 427716
1, 575040, Note_on_c, 0, 48, 0
1, 575040, Note_on_c, 0, 76, 0
1, 575040, Note_on_c, 0, 74, 82
1, 575040, Note_on_c, 0, 47, 64
1, 575054, Control_c, 0, 64, 0
1, 575132, Control_c, 0, 64, 127
1, 575200, Note_on_c, 0, 47, 0
1, 575200, Note_on_c, 0, 74, 0
1, 575200, Note_on_c, 0, 71, 77
1, 575200, Note_on_c, 0, 50, 56
1, 575360, Note_on_c, 0, 50, 0
1, 575360, Note_on_c, 0, 71, 0
1, 575360, Note_on_c, 0, 67, 77
1, 575360, Note_on_c, 0, 53, 56
1, 575520, Note_on_c, 0, 53, 0
1, 575520, Note_on_c, 0, 67, 0
1, 575520, Note_on_c, 0, 71, 82
1, 575520, Note_on_c, 0, 50, 64
1, 575680, Note_on_c, 0, 50, 0
1, 575680, Note_on_c, 0, 71, 0
1, 575680, Note_on_c, 0, 74, 77
1, 575680, Note_on_c, 0, 47, 57
1, 575840, Tempo, 439046
1, 575840, Note_on_c, 0, 47, 0
1, 575840, Note_on_c, 0, 74, 0
1, 575840, Note_on_c, 0, 77, 77
1, 575840, Note_on_c, 0, 43, 58
1, 576000, Tempo, 424598
1, 576000, Note_on_c, 0, 43, 0
1, 576000, Note_on_c, 0, 77, 0
1, 576000, Note_on_c, 0, 76, 82
1, 576006, Note_on_c, 0, 48, 64
1, 576018, Control_c, 0, 64, 0
1, 576085, Control_c, 0, 64, 127
1, 576160, Note_on_c, 0, 76, 0
1, 576160, Note_on_c, 0, 72, 75
1, 576160, Note_on_c, 0, 52, 56
1, 576166, Note_on_c, 0, 48, 0
1, 576320, Note_on_c, 0, 52, 0
1, 576320, Note_on_c, 0, 72, 0
1, 576320, Note_on_c, 0, 67, 77
1, 576320, Note_on_c, 0, 55, 56
1, 576480, Note_on_c, 0, 55, 0
1, 576480, Note_on_c, 0, 67, 0
1, 576480, Note_on_c, 0, 72, 82
1, 576480, Note_on_c, 0, 52, 64
1, 576640, Note_on_c, 0, 52, 0
1, 576640, Note_on_c, 0, 72, 0
1, 576640, Note_on_c, 0, 76, 77
1, 576640, Note_on_c, 0, 48, 57
1, 576800, Tempo, 465513
1, 576800, Note_on_c, 0, 48, 0
1, 576800, Note_on_c, 0, 76, 0
1, 576800, Note_on_c, 0, 79, 77
1, 576806, Note_on_c, 0, 43, 57
1, 576960, Tempo, 426136
1, 576960, Note_on_c, 0, 79, 0
1, 576960, Note_on_c, 0, 77, 82
1, 576960, Note_on_c, 0, 47, 64
1, 576966, Note_on_c, 0, 43, 0
1, 576974, Control_c, 0, 64, 0
1, 577066, Control_c, 0, 64, 127
1, 577120, Note_on_c, 0, 47, 0
1, 577120, Note_on_c, 0, 77, 0
1, 577120, Note_on_c, 0, 74, 77
1, 577120, Note_on_c, 0, 53, 56
1, 577280, Tempo, 459982
1, 577280, Note_on_c, 0, 53, 0
1, 577280, Note_on_c, 0, 74, 0
1, 577280, Note_on_c, 0, 71, 77
1, 577286, Note_on_c, 0, 55, 56
1, 577440, Tempo, 424598
1, 577440, Note_on_c, 0, 71, 0
1, 577440, Note_on_c, 0, 83, 82
1, 577440, Note_on_c, 0, 53, 64
1, 577446, Note_on_c, 0, 55, 0
1, 577600, Note_on_c, 0, 53, 0
1, 577600, Note_on_c, 0, 83, 0
1, 577600, Note_on_c, 0, 77, 77
1, 577600, Note_on_c, 0, 55, 57
1, 577760, Note_on_c, 0, 55, 0
1, 577760, Note_on_c, 0, 77, 0
1, 577760, Note_on_c, 0, 74, 77
1, 577760, Note_on_c, 0, 62, 58
1, 577920, Tempo, 423042
1, 577920, Note_on_c, 0, 62, 0
1, 577920, Note_on_c, 0, 74, 0
1, 577920, Note_on_c, 0, 84, 82
1, 577920, Note_on_c, 0, 52, 64
1, 577936, Control_c, 0, 64, 0
1, 578012, Control_c, 0, 64, 127
1, 578080, Note_on_c, 0, 52, 0
1, 578080, Note_on_c, 0, 79, 74
1, 578080, Note_on_c, 0, 55, 55
1, 578160, Note_on_c, 0, 84, 0
1, 578240, Note_on_c, 0, 55, 0
1, 578240, Note_on_c, 0, 79, 0
1, 578240, Note_on_c, 0, 76, 74
1, 578240, Note_on_c, 0, 60, 55
1, 578400, Note_on_c, 0, 60, 0
1, 578400, Note_on_c, 0, 76, 0
1, 578400, Note_on_c, 0, 79, 79
1, 578400, Note_on_c, 0, 48, 62
1, 578560, Note_on_c, 0, 48, 0
1, 578560, Note_on_c, 0, 76, 73
1, 578560, Note_on_c, 0, 52, 55
1, 578640, Note_on_c, 0, 79, 0
1, 578720, Tempo, 439046
1, 578720, Note_on_c, 0, 52, 0
1, 578720, Note_on_c, 0, 76, 0
1, 578720, Note_on_c, 0, 72, 72
1, 578720, Note_on_c, 0, 55, 54
1, 578880, Tempo, 421496
1, 578880, Note_on_c, 0, 55, 0
1, 578880, Note_on_c, 0, 72, 0
1, 578880, Note_on_c, 0, 77, 77
1, 578880, Note_on_c, 0, 50, 59
1, 578893, Control_c, 0, 64, 0
1, 578979, Control_c, 0, 64, 127
1, 579040, Note_on_c, 0, 50, 0
1, 579040, Note_on_c, 0, 74, 71
1, 579040, Note_on_c, 0, 53, 51
1, 579120, Note_on_c, 0, 77, 0
1, 579200, Note_on_c, 0, 53, 0
1, 579200, Note_on_c, 0, 74, 0
1, 579200, Note_on_c, 0, 71, 70
1, 579200, Note_on_c, 0, 55, 51
1, 579360, Note_on_c, 0, 55, 0
1, 579360, Note_on_c, 0, 71, 0
1, 579360, Note_on_c, 0, 83, 74
1, 579360, Note_on_c, 0, 53, 57
1, 579520, Note_on_c, 0, 53, 0
1, 579520, Note_on_c, 0, 79, 69
1, 579520, Note_on_c, 0, 55, 51
1, 579600, Note_on_c, 0, 83, 0
1, 579680, Tempo, 463643
1, 579680, Note_on_c, 0, 55, 0
1, 579680, Note_on_c, 0, 79, 0
1, 579680, Note_on_c, 0, 74, 67
1, 579680, Note_on_c, 0, 62, 51
1, 579840, Tempo, 419962
1, 579840, Note_on_c, 0, 62, 0
1, 579840, Note_on_c, 0, 74, 0
1, 579840, Note_on_c, 0, 84, 72
1, 579840, Note_on_c, 0, 52, 56
1, 579854, Control_c, 0, 64, 0
1, 579939, Control_c, 0, 64, 127
1, 580000, Note_on_c, 0, 52, 0
1, 580000, Note_on_c, 0, 79, 65
1, 580000, Note_on_c, 0, 55, 48
1, 580080, Note_on_c, 0, 84, 0
1, 580160, Note_on_c, 0, 55, 0
1, 580160, Note_on_c, 0, 79, 0
1, 580160, Note_on_c, 0, 76, 65
1, 580160, Note_on_c, 0, 60, 48
1, 580320, Note_on_c, 0, 60, 0
1, 580320, Note_on_c, 0, 76, 0
1, 580320, Note_on_c, 0, 79, 70
1, 580320, Note_on_c, 0, 48, 54
1, 580480, Note_on_c, 0, 48, 0
1, 580480, Note_on_c, 0, 76, 64
1, 580480, Note_on_c, 0, 52, 48
1, 580560, Note_on_c, 0, 79, 0
1, 580640, Tempo, 440723
1, 580640, Note_on_c, 0, 52, 0
1, 580640, Note_on_c, 0, 76, 0
1, 580640, Note_on_c, 0, 72, 63
1, 580640, Note_on_c, 0, 55, 47
1, 580800, Tempo, 418468
1, 580800, Note_on_c, 0, 55, 0
1, 580800, Note_on_c, 0, 72, 0
1, 580800, Note_on_c, 0, 77, 67
1, 580800, Note_on_c, 0, 50, 51
1, 580816, Control_c, 0, 64, 0
1, 580899, Control_c, 0, 64, 127
1, 580960, Note_on_c, 0, 50, 0
1, 580960, Note_on_c, 0, 74, 62
1, 580960, Note_on_c, 0, 53, 44
1, 581040, Note_on_c, 0, 77, 0
1, 581120, Note_on_c, 0, 53, 0
1, 581120, Note_on_c, 0, 74, 0
1, 581120, Note_on_c, 0, 71, 60
1, 581120, Note_on_c, 0, 55, 44
1, 581280, Note_on_c, 0, 55, 0
1, 581280, Note_on_c, 0, 71, 0
1, 581280, Note_on_c, 0, 83, 64
1, 581280, Note_on_c, 0, 53, 50
1, 581440, Note_on_c, 0, 53, 0
1, 581440, Note_on_c, 0, 79, 59
1, 581440, Note_on_c, 0, 55, 44
1, 581520, Note_on_c, 0, 83, 0
1, 581600, Tempo, 463643
1, 581600, Note_on_c, 0, 55, 0
1, 581600, Note_on_c, 0, 79, 0
1, 581600, Note_on_c, 0, 74, 58
1, 581600, Note_on_c, 0, 62, 44
1, 581760, Tempo, 413964
1, 581760, Note_on_c, 0, 62, 0
1, 581760, Note_on_c, 0, 74, 0
1, 581760, Note_on_c, 0, 84, 64
1, 581760, Note_on_c, 0, 52, 50
1, 581774, Control_c, 0, 64, 0
1, 581880, Note_on_c, 0, 52, 0
1, 581880, Note_on_c, 0, 84, 0
1, 581880, Note_on_c, 0, 79, 58
1, 581880, Note_on_c, 0, 55, 43
1, 581940, Tempo, 412485
1, 582000, Note_on_c, 0, 55, 0
1, 582000, Note_on_c, 0, 79, 0
1, 582000, Note_on_c, 0, 76, 58
1, 582000, Note_on_c, 0, 48, 43
1, 582100, Tempo, 411043
1, 582120, Note_on_c, 0, 48, 0
1, 582120, Note_on_c, 0, 76, 0
1, 582120, Note_on_c, 0, 72, 59
1, 582120, Note_on_c, 0, 55, 44
1, 582240, Note_on_c, 0, 55, 0
1, 582240, Note_on_c, 0, 72, 0
1, 582240, Note_on_c, 0, 77, 65
1, 582240, Note_on_c, 0, 50, 51
1, 582260, Tempo, 409584
1, 582360, Note_on_c, 0, 50, 0
1, 582360, Note_on_c, 0, 77, 0
1, 582360, Note_on_c, 0, 74, 59
1, 582360, Note_on_c, 0, 55, 44
1, 582420, Tempo, 408136
1, 582480, Note_on_c, 0, 55, 0
1, 582480, Note_on_c, 0, 74, 0
1, 582480, Note_on_c, 0, 83, 62
1, 582480, Note_on_c, 0, 53, 44
1, 582580, Tempo, 406697
1, 582600, Note_on_c, 0, 53, 0
1, 582600, Note_on_c, 0, 83, 0
1, 582600, Note_on_c, 0, 79, 63
1, 582600, Note_on_c, 0, 55, 44
1, 582720, Note_on_c, 0, 55, 0
1, 582720, Note_on_c, 0, 79, 0
1, 582720, Note_on_c, 0, 84, 69
1, 582720, Note_on_c, 0, 52, 52
1, 582740, Tempo, 405296
1, 582840, Note_on_c, 0, 52, 0
1, 582840, Note_on_c, 0, 84, 0
1, 582840, Note_on_c, 0, 79, 63
1, 582840, Note_on_c, 0, 55, 46
1, 582960, Note_on_c, 0, 55, 0
1, 582960, Note_on_c, 0, 79, 0
1, 582960, Note_on_c, 0, 76, 63
1, 582960, Note_on_c, 0, 48, 47
1, 583080, Note_on_c, 0, 48, 0
1, 583080, Note_on_c, 0, 76, 0
1, 583080, Note_on_c, 0, 72, 64
1, 583080, Note_on_c, 0, 55, 49
1, 583200, Note_on_c, 0, 55, 0
1, 583200, Note_on_c, 0, 72, 0
1, 583200, Note_on_c, 0, 77, 71
1, 583200, Note_on_c, 0, 50, 55
1, 583320, Note_on_c, 0, 50, 0
1, 583320, Note_on_c, 0, 77, 0
1, 583320, Note_on_c, 0, 74, 66
1, 583320, Note_on_c, 0, 55, 48
1, 583440, Note_on_c, 0, 55, 0
1, 583440, Note_on_c, 0, 74, 0
1, 583440, Note_on_c, 0, 83, 67
1, 583440, Note_on_c, 0, 53, 48
1, 583560, Tempo, 437413
1, 583560, Note_on_c, 0, 53, 0
1, 583560, Note_on_c, 0, 83, 0
1, 583560, Note_on_c, 0, 79, 67
1, 583560, Note_on_c, 0, 55, 49
1, 583660, Tempo, 402468
1, 583680, Note_on_c, 0, 55, 0
1, 583680, Note_on_c, 0, 79, 0
1, 583680, Note_on_c, 0, 84, 74
1, 583680, Note_on_c, 0, 52, 58
1, 583800, Note_on_c, 0, 52, 0
1, 583800, Note_on_c, 0, 84, 0
1, 583800, Note_on_c, 0, 79, 67
1, 583800, Note_on_c, 0, 55, 50
1, 583860, Tempo, 401070
1, 583920, Note_on_c, 0, 55, 0
1, 583920, Note_on_c, 0, 79, 0
1, 583920, Note_on_c, 0, 83, 69
1, 583920, Note_on_c, 0, 53, 51
1, 584040, Note_on_c, 0, 53, 0
1, 584040, Note_on_c, 0, 83, 0
1, 584040, Note_on_c, 0, 79, 69
1, 584040, Note_on_c, 0, 55, 52
1, 584060, Tempo, 399707
1, 584160, Note_on_c, 0, 55, 0
1, 584160, Note_on_c, 0, 79, 0
1, 584160, Note_on_c, 0, 84, 77
1, 584160, Note_on_c, 0, 52, 60
1, 584260, Tempo, 398327
1, 584280, Note_on_c, 0, 52, 0
1, 584280, Note_on_c, 0, 84, 0
1, 584280, Note_on_c, 0, 79, 77
1, 584280, Note_on_c, 0, 55, 52
1, 584400, Note_on_c, 0, 55, 0
1, 584400, Note_on_c, 0, 79, 0
1, 584400, Note_on_c, 0, 83, 72
1, 584400, Note_on_c, 0, 53, 52
1, 584460, Tempo, 396957
1, 584520, Note_on_c, 0, 53, 0
1, 584520, Note_on_c, 0, 83, 0
1, 584520, Note_on_c, 0, 79, 73
1, 584520, Note_on_c, 0, 55, 54
1, 584640, Tempo, 395596
1, 584640, Note_on_c, 0, 55, 0
1, 584640, Note_on_c, 0, 79, 0
1, 584640, Note_on_c, 0, 84, 80
1, 584640, Note_on_c, 0, 52, 62
1, 584760, Note_on_c, 0, 52, 0
1, 584760, Note_on_c, 0, 84, 0
1, 584760, Note_on_c, 0, 79, 73
1, 584760, Note_on_c, 0, 55, 55
1, 584880, Note_on_c, 0, 55, 0
1, 584880, Note_on_c, 0, 79, 0
1, 584880, Note_on_c, 0, 83, 74
1, 584880, Note_on_c, 0, 53, 55
1, 585000, Note_on_c, 0, 53, 0
1, 585000, Note_on_c, 0, 83, 0
1, 585000, Note_on_c, 0, 79, 74
1, 585000, Note_on_c, 0, 55, 57
1, 585120, Note_on_c, 0, 55, 0
1, 585120, Note_on_c, 0, 79, 0
1, 585120, Note_on_c, 0, 84, 82
1, 585120, Note_on_c, 0, 52, 65
1, 585240, Note_on_c, 0, 52, 0
1, 585240, Note_on_c, 0, 84, 0
1, 585240, Note_on_c, 0, 79, 85
1, 585240, Note_on_c, 0, 55, 57
1, 585360, Note_on_c, 0, 55, 0
1, 585360, Note_on_c, 0, 79, 0
1, 585360, Note_on_c, 0, 83, 78
1, 585360, Note_on_c, 0, 53, 57
1, 585480, Tempo, 434122
1, 585480, Note_on_c, 0, 53, 0
1, 585480, Note_on_c, 0, 83, 0
1, 585480, Note_on_c, 0, 79, 79
1, 585480, Note_on_c, 0, 55, 58
1, 585600, Tempo, 394244
1, 585600, Note_on_c, 0, 55, 0
1, 585600, Note_on_c, 0, 79, 0
1, 585600, Note_on_c, 0, 84, 89
1, 585600, Note_on_c, 0, 52, 70
1, 585720, Note_on_c, 0, 52, 0
1, 585720, Note_on_c, 0, 84, 0
1, 585720, Note_on_c, 0, 79, 81
1, 585720, Note_on_c, 0, 55, 60
1, 585840, Note_on_c, 0, 55, 0
1, 585840, Note_on_c, 0, 79, 0
1, 585840, Note_on_c, 0, 82, 81
1, 585840, Note_on_c, 0, 40, 60
1, 585920, Tempo, 392927
1, 585960, Note_on_c, 0, 40, 0
1, 585960, Note_on_c, 0, 82, 0
1, 585960, Note_on_c, 0, 79, 81
1, 585960, Note_on_c, 0, 48, 62
1, 586080, Note_on_c, 0, 48, 0
1, 586080, Note_on_c, 0, 79, 0
1, 586080, Note_on_c, 0, 82, 89
1, 586080, Note_on_c, 0, 40, 70
1, 586137, Control_c, 0, 64, 127
1, 586200, Note_on_c, 0, 40, 0
1, 586200, Note_on_c, 0, 82, 0
1, 586200, Note_on_c, 0, 79, 83
1, 586200, Note_on_c, 0, 48, 60
1, 586240, Tempo, 391594
1, 586320, Note_on_c, 0, 48, 0
1, 586320, Note_on_c, 0, 79, 0
1, 586320, Note_on_c, 0, 82, 82
1, 586320, Note_on_c, 0, 40, 60
1, 586440, Note_on_c, 0, 40, 0
1, 586440, Note_on_c, 0, 82, 0
1, 586440, Note_on_c, 0, 79, 82
1, 586440, Note_on_c, 0, 48, 60
1, 586540, Tempo, 390269
1, 586560, Note_on_c, 0, 48, 0
1, 586560, Note_on_c, 0, 79, 0
1, 586560, Note_on_c, 0, 82, 89
1, 586560, Note_on_c, 0, 40, 70
1, 586680, Note_on_c, 0, 40, 0
1, 586680, Note_on_c, 0, 82, 0
1, 586680, Note_on_c, 0, 79, 81
1, 586680, Note_on_c, 0, 48, 60
1, 586800, Note_on_c, 0, 48, 0
1, 586800, Note_on_c, 0, 79, 0
1, 586800, Note_on_c, 0, 82, 81
1, 586800, Note_on_c, 0, 40, 60
1, 586920, Note_on_c, 0, 40, 0
1, 586920, Note_on_c, 0, 82, 0
1, 586920, Note_on_c, 0, 79, 81
1, 586920, Note_on_c, 0, 48, 62
1, 587040, Note_on_c, 0, 48, 0
1, 587040, Note_on_c, 0, 79, 0
1, 587040, Note_on_c, 0, 82, 89
1, 587040, Note_on_c, 0, 40, 70
1, 587160, Note_on_c, 0, 40, 0
1, 587160, Note_on_c, 0, 82, 0
1, 587160, Note_on_c, 0, 79, 83
1, 587160, Note_on_c, 0, 48, 60
1, 587280, Note_on_c, 0, 48, 0
1, 587280, Note_on_c, 0, 79, 0
1, 587280, Note_on_c, 0, 82, 82
1, 587280, Note_on_c, 0, 40, 60
1, 587400, Tempo, 405296
1, 587400, Note_on_c, 0, 40, 0
1, 587400, Note_on_c, 0, 82, 0
1, 587400, Note_on_c, 0, 79, 82
1, 587400, Note_on_c, 0, 48, 60
1, 587520, Tempo, 380035
1, 587520, Note_on_c, 0, 48, 0
1, 587520, Note_on_c, 0, 79, 0
1, 587520, Note_on_c, 0, 82, 89
1, 587520, Note_on_c, 0, 40, 70
1, 587537, Control_c, 0, 64, 0
1, 587572, Control_c, 0, 64, 127
1, 587640, Note_on_c, 0, 40, 0
1, 587640, Note_on_c, 0, 48, 60
1, 587760, Note_on_c, 0, 48, 0
1, 587760, Note_on_c, 0, 82, 0
1, 587760, Note_on_c, 0, 81, 81
1, 587760, Note_on_c, 0, 40, 60
1, 587880, Note_on_c, 0, 40, 0
1, 587880, Note_on_c, 0, 81, 0
1, 587880, Note_on_c, 0, 79, 81
1, 587880, Note_on_c, 0, 48, 62
1, 588000, Note_on_c, 0, 48, 0
1, 588000, Note_on_c, 0, 79, 0
1, 588000, Note_on_c, 0, 77, 84
1, 588000, Note_on_c, 0, 40, 70
1, 588120, Note_on_c, 0, 40, 0
1, 588120, Note_on_c, 0, 77, 0
1, 588120, Note_on_c, 0, 76, 78
1, 588120, Note_on_c, 0, 48, 60
1, 588240, Note_on_c, 0, 48, 0
1, 588240, Note_on_c, 0, 76, 0
1, 588240, Note_on_c, 0, 74, 78
1, 588240, Note_on_c, 0, 40, 60
1, 588360, Note_on_c, 0, 40, 0
1, 588360, Note_on_c, 0, 74, 0
1, 588360, Note_on_c, 0, 72, 80
1, 588360, Note_on_c, 0, 48, 61
1, 588480, Note_on_c, 0, 48, 0
1, 588480, Note_on_c, 0, 72, 0
1, 588480, Note_on_c, 0, 70, 84
1, 588480, Note_on_c, 0, 40, 71
1, 588600, Note_on_c, 0, 40, 0
1, 588600, Note_on_c, 0, 70, 0
1, 588600, Note_on_c, 0, 69, 80
1, 588600, Note_on_c, 0, 48, 61
1, 588720, Note_on_c, 0, 48, 0
1, 588720, Note_on_c, 0, 69, 0
1, 588720, Note_on_c, 0, 67, 80
1, 588720, Note_on_c, 0, 40, 61
1, 588840, Note_on_c, 0, 40, 0
1, 588840, Note_on_c, 0, 67, 0
1, 588840, Note_on_c, 0, 65, 81
1, 588840, Note_on_c, 0, 48, 63
1, 588960, Note_on_c, 0, 48, 0
1, 588960, Note_on_c, 0, 65, 0
1, 588960, Note_on_c, 0, 64, 86
1, 588960, Note_on_c, 0, 40, 72
1, 589080, Note_on_c, 0, 40, 0
1, 589080, Note_on_c, 0, 64, 0
1, 589080, Note_on_c, 0, 62, 84
1, 589080, Note_on_c, 0, 48, 62
1, 589200, Note_on_c, 0, 48, 0
1, 589200, Note_on_c, 0, 62, 0
1, 589200, Note_on_c, 0, 60, 85
1, 589200, Note_on_c, 0, 40, 62
1, 589320, Note_on_c, 0, 40, 0
1, 589320, Note_on_c, 0, 60, 0
1, 589320, Note_on_c, 0, 58, 85
1, 589320, Note_on_c, 0, 48, 62
1, 589440, Tempo, 375000
1, 589440, Note_on_c, 0, 48, 0
1, 589440, Note_on_c, 0, 58, 0
1, 589440, Note_on_c, 0, 57, 93
1, 589440, Note_on_c, 0, 41, 67
1, 589440, Note_on_c, 0, 45, 67
1, 589440, Note_on_c, 0, 48, 80
1, 589454, Control_c, 0, 64, 0
1, 589464, Tempo, 377358
1, 589480, Tempo, 378549
1, 589532, Tempo, 377358
1, 589544, Tempo, 376176
1, 589560, Tempo, 373832
1, 589560, Note_on_c, 0, 57, 0
1, 589560, Note_on_c, 0, 59, 81
1, 589572, Tempo, 372671
1, 589600, Tempo, 371517
1, 589620, Note_on_c, 0, 41, 0
1, 589620, Note_on_c, 0, 48, 0
1, 589620, Note_on_c, 0, 45, 0
1, 589640, Tempo, 373832
1, 589652, Tempo, 376176
1, 589664, Tempo, 378549
1, 589680, Tempo, 380952
1, 589680, Note_on_c, 0, 59, 0
1, 589680, Note_on_c, 0, 60, 81
1, 589680, Note_on_c, 0, 41, 60
1, 589680, Note_on_c, 0, 45, 60
1, 589680, Note_on_c, 0, 48, 73
1, 589692, Tempo, 379747
1, 589704, Tempo, 378549
1, 589720, Tempo, 376176
1, 589732, Tempo, 373832
1, 589744, Tempo, 370370
1, 589772, Tempo, 369231
1, 589784, Tempo, 368098
1, 589800, Tempo, 369231
1, 589800, Note_on_c, 0, 60, 0
1, 589800, Note_on_c, 0, 59, 81
1, 589812, Tempo, 371517
1, 589840, Tempo, 372671
1, 589852, Tempo, 376176
1, 589860, Note_on_c, 0, 41, 0
1, 589860, Note_on_c, 0, 48, 0
1, 589860, Note_on_c, 0, 45, 0
1, 589864, Tempo, 378549
1, 589880, Tempo, 379747
1, 589920, Tempo, 377358
1, 589920, Note_on_c, 0, 59, 0
1, 589920, Note_on_c, 0, 60, 92
1, 589932, Tempo, 375000
1, 589944, Tempo, 373832
1, 589960, Tempo, 372671
1, 589972, Tempo, 371517
1, 590000, Tempo, 375000
1, 590020, Tempo, 369231
1, 590040, Tempo, 375000
1, 590040, Note_on_c, 0, 60, 0
1, 590040, Note_on_c, 0, 64, 81
1, 590160, Tempo, 391594
1, 590160, Note_on_c, 0, 64, 0
1, 590160, Note_on_c, 0, 65, 81
1, 590160, Note_on_c, 0, 41, 60
1, 590160, Note_on_c, 0, 45, 60
1, 590160, Note_on_c, 0, 48, 73
1, 590280, Note_on_c, 0, 65, 0
1, 590280, Note_on_c, 0, 64, 82
1, 590340, Note_on_c, 0, 41, 0
1, 590340, Note_on_c, 0, 48, 0
1, 590340, Note_on_c, 0, 45, 0
1, 590400, Tempo, 373832
1, 590400, Note_on_c, 0, 64, 0
1, 590400, Note_on_c, 0, 65, 93
1, 590400, Note_on_c, 0, 41, 67
1, 590400, Note_on_c, 0, 45, 67
1, 590400, Note_on_c, 0, 48, 80
1, 590412, Tempo, 372671
1, 590424, Tempo, 371517
1, 590440, Tempo, 368098
1, 590520, Tempo, 376176
1, 590520, Note_on_c, 0, 65, 0
1, 590520, Note_on_c, 0, 68, 80
1, 590532, Tempo, 377358
1, 590544, Tempo, 378549
1, 590580, Note_on_c, 0, 41, 0
1, 590580, Note_on_c, 0, 48, 0
1, 590580, Note_on_c, 0, 45, 0
1, 590612, Tempo, 376176
1, 590624, Tempo, 373832
1, 590640, Tempo, 372671
1, 590640, Note_on_c, 0, 68, 0
1, 590640, Note_on_c, 0, 69, 80
1, 590640, Note_on_c, 0, 41, 60
1, 590640, Note_on_c, 0, 45, 60
1, 590640, Note_on_c, 0, 48, 73
1, 590652, Tempo, 371517
1, 590692, Tempo, 370370
1, 590704, Tempo, 371517
1, 590720, Tempo, 373832
1, 590744, Tempo, 376176
1, 590760, Tempo, 378549
1, 590760, Note_on_c, 0, 69, 0
1, 590760, Note_on_c, 0, 68, 81
1, 590772, Tempo, 379747
1, 590800, Tempo, 377358
1, 590820, Note_on_c, 0, 41, 0
1, 590820, Note_on_c, 0, 48, 0
1, 590820, Note_on_c, 0, 45, 0
1, 590824, Tempo, 376176
1, 590840, Tempo, 375000
1, 590852, Tempo, 372671
1, 590880, Note_on_c, 0, 68, 0
1, 590880, Note_on_c, 0, 69, 93
1, 590920, Tempo, 375000
1, 590932, Tempo, 376176
1, 590972, Tempo, 372671
1, 591000, Note_on_c, 0, 69, 0
1, 591000, Note_on_c, 0, 71, 83
1, 591024, Tempo, 371517
1, 591040, Tempo, 370370
1, 591060, Tempo, 371517
1, 591120, Tempo, 390269
1, 591120, Note_on_c, 0, 71, 0
1, 591120, Note_on_c, 0, 72, 83
1, 591120, Note_on_c, 0, 41, 60
1, 591120, Note_on_c, 0, 45, 60
1, 591120, Note_on_c, 0, 48, 73
1, 591240, Note_on_c, 0, 72, 0
1, 591240, Note_on_c, 0, 71, 83
1, 591300, Note_on_c, 0, 41, 0
1, 591300, Note_on_c, 0, 48, 0
1, 591300, Note_on_c, 0, 45, 0
1, 591360, Tempo, 373902
1, 591360, Note_on_c, 0, 71, 0
1, 591360, Note_on_c, 0, 72, 95
1, 591360, Note_on_c, 0, 41, 67
1, 591360, Note_on_c, 0, 45, 67
1, 591360, Note_on_c, 0, 48, 78
1, 591372, Tempo, 376176
1, 591384, Tempo, 375000
1, 591412, Tempo, 373832
1, 591440, Tempo, 372671
1, 591464, Tempo, 371517
1, 591480, Tempo, 370370
1, 591480, Note_on_c, 0, 72, 0
1, 591480, Note_on_c, 0, 76, 84
1, 591504, Tempo, 368098
1, 591520, Tempo, 366972
1, 591540, Note_on_c, 0, 41, 0
1, 591540, Note_on_c, 0, 48, 0
1, 591540, Note_on_c, 0, 45, 0
1, 591560, Tempo, 370370
1, 591572, Tempo, 371517
1, 591584, Tempo, 373832
1, 591600, Tempo, 376176
1, 591600, Note_on_c, 0, 76, 0
1, 591600, Note_on_c, 0, 77, 84
1, 591600, Note_on_c, 0, 41, 60
1, 591600, Note_on_c, 0, 45, 60
1, 591600, Note_on_c, 0, 48, 73
1, 591720, Note_on_c, 0, 77, 0
1, 591720, Note_on_c, 0, 76, 84
1, 591732, Tempo, 375000
1, 591744, Tempo, 373832
1, 591760, Tempo, 370370
1, 591772, Tempo, 369231
1, 591780, Note_on_c, 0, 41, 0
1, 591780, Note_on_c, 0, 48, 0
1, 591780, Note_on_c, 0, 45, 0
1, 591784, Tempo, 368098
1, 591824, Tempo, 369231
1, 591840, Note_on_c, 0, 76, 0
1, 591840, Note_on_c, 0, 77, 95
1, 591852, Tempo, 371517
1, 591864, Tempo, 372671
1, 591880, Tempo, 373832
1, 591892, Tempo, 375000
1, 591920, Tempo, 373832
1, 591932, Tempo, 372671
1, 591960, Note_on_c, 0, 77, 0
1, 591960, Note_on_c, 0, 80, 82
1, 591980, Tempo, 375000
1, 592000, Tempo, 371517
1, 592080, Tempo, 387672
1, 592080, Note_on_c, 0, 80, 0
1, 592080, Note_on_c, 0, 81, 82
1, 592080, Note_on_c, 0, 41, 60
1, 592080, Note_on_c, 0, 45, 60
1, 592080, Note_on_c, 0, 48, 73
1, 592200, Note_on_c, 0, 81, 0
1, 592200, Note_on_c, 0, 80, 82
1, 592260, Note_on_c, 0, 41, 0
1, 592260, Note_on_c, 0, 48, 0
1, 592260, Note_on_c, 0, 45, 0
1, 592320, Tempo, 370370
1, 592320, Note_on_c, 0, 80, 0
1, 592320, Note_on_c, 0, 81, 95
1, 592320, Note_on_c, 0, 41, 67
1, 592320, Note_on_c, 0, 45, 67
1, 592320, Note_on_c, 0, 48, 78
1, 592344, Tempo, 371517
1, 592424, Tempo, 373832
1, 592440, Tempo, 375000
1, 592440, Note_on_c, 0, 81, 0
1, 592440, Note_on_c, 0, 83, 82
1, 592452, Tempo, 376176
1, 592492, Tempo, 375000
1, 592500, Note_on_c, 0, 41, 0
1, 592500, Note_on_c, 0, 48, 0
1, 592500, Note_on_c, 0, 45, 0
1, 592504, Tempo, 372671
1, 592520, Tempo, 371517
1, 592544, Tempo, 370370
1, 592560, Tempo, 369231
1, 592560, Note_on_c, 0, 83, 0
1, 592560, Note_on_c, 0, 84, 82
1, 592560, Note_on_c, 0, 41, 60
1, 592560, Note_on_c, 0, 45, 60
1, 592560, Note_on_c, 0, 48, 73
1, 592584, Tempo, 370370
1, 592680, Note_on_c, 0, 84, 0
1, 592680, Note_on_c, 0, 83, 82
1, 592740, Note_on_c, 0, 41, 0
1, 592740, Note_on_c, 0, 48, 0
1, 592740, Note_on_c, 0, 45, 0
1, 592800, Tempo, 376176
1, 592800, Note_on_c, 0, 83, 0
1, 592800, Note_on_c, 0, 84, 95
1, 592824, Tempo, 375000
1, 592860, Tempo, 373832
1, 592920, Note_on_c, 0, 84, 0
1, 592920, Note_on_c, 0, 83, 82
1, 593040, Tempo, 403877
1, 593040, Note_on_c, 0, 83, 0
1, 593040, Note_on_c, 0, 81, 83
1, 593040, Note_on_c, 0, 41, 60
1, 593040, Note_on_c, 0, 45, 60
1, 593040, Note_on_c, 0, 48, 73
1, 593160, Note_on_c, 0, 81, 0
1, 593160, Note_on_c, 0, 80, 83
1, 593220, Note_on_c, 0, 41, 0
1, 593220, Note_on_c, 0, 48, 0
1, 593220, Note_on_c, 0, 45, 0
1, 593280, Tempo, 373902
1, 593280, Note_on_c, 0, 80, 0
1, 593280, Note_on_c, 0, 81, 95
1, 593280, Note_on_c, 0, 48, 67
1, 593280, Note_on_c, 0, 42, 67
1, 593280, Note_on_c, 0, 45, 67
1, 593280, Note_on_c, 0, 50, 78
1, 593292, Tempo, 373832
1, 593320, Tempo, 372671
1, 593344, Tempo, 370370
1, 593372, Tempo, 369231
1, 593384, Tempo, 368098
1, 593400, Tempo, 366972
1, 593400, Note_on_c, 0, 81, 0
1, 593400, Note_on_c, 0, 80, 83
1, 593440, Tempo, 369231
1, 593452, Tempo, 370370
1, 593460, Note_on_c, 0, 45, 0
1, 593460, Note_on_c, 0, 50, 0
1, 593460, Note_on_c, 0, 48, 0
1, 593460, Note_on_c, 0, 42, 0
1, 593464, Tempo, 371517
1, 593492, Tempo, 372671
1, 593504, Tempo, 373832
1, 593520, Note_on_c, 0, 80, 0
1, 593520, Note_on_c, 0, 81, 83
1, 593520, Note_on_c, 0, 48, 60
1, 593520, Note_on_c, 0, 42, 60
1, 593520, Note_on_c, 0, 45, 60
1, 593520, Note_on_c, 0, 50, 73
1, 593532, Tempo, 375000
1, 593624, Tempo, 372671
1, 593640, Tempo, 370370
1, 593640, Note_on_c, 0, 81, 0
1, 593640, Note_on_c, 0, 83, 83
1, 593652, Tempo, 369231
1, 593664, Tempo, 368098
1, 593700, Note_on_c, 0, 45, 0
1, 593700, Note_on_c, 0, 50, 0
1, 593700, Note_on_c, 0, 48, 0
1, 593700, Note_on_c, 0, 42, 0
1, 593704, Tempo, 370370
1, 593720, Tempo, 372671
1, 593732, Tempo, 375000
1, 593744, Tempo, 376176
1, 593760, Tempo, 377358
1, 593760, Note_on_c, 0, 83, 0
1, 593760, Note_on_c, 0, 84, 95
1, 593852, Tempo, 376176
1, 593864, Tempo, 373832
1, 593880, Tempo, 370370
1, 593880, Note_on_c, 0, 84, 0
1, 593880, Note_on_c, 0, 83, 85
1, 593892, Tempo, 369231
1, 593920, Tempo, 372671
1, 593940, Tempo, 373832
1, 594000, Tempo, 387672
1, 594000, Note_on_c, 0, 83, 0
1, 594000, Note_on_c, 0, 81, 85
1, 594000, Note_on_c, 0, 48, 60
1, 594000, Note_on_c, 0, 42, 60
1, 594000, Note_on_c, 0, 45, 60
1, 594000, Note_on_c, 0, 50, 73
1, 594120, Note_on_c, 0, 81, 0
1, 594120, Note_on_c, 0, 80, 85
1, 594180, Note_on_c, 0, 45, 0
1, 594180, Note_on_c, 0, 50, 0
1, 594180, Note_on_c, 0, 48, 0
1, 594180, Note_on_c, 0, 42, 0
1, 594240, Tempo, 373902
1, 594240, Note_on_c, 0, 80, 0
1, 594240, Note_on_c, 0, 81, 95
1, 594240, Note_on_c, 0, 48, 67
1, 594240, Note_on_c, 0, 42, 67
1, 594240, Note_on_c, 0, 45, 67
1, 594240, Note_on_c, 0, 50, 78
1, 594260, Tempo, 369231
1, 594280, Tempo, 371517
1, 594292, Tempo, 369231
1, 594304, Tempo, 368098
1, 594332, Tempo, 366972
1, 594344, Tempo, 370370
1, 594360, Note_on_c, 0, 81, 0
1, 594360, Note_on_c, 0, 80, 84
1, 594372, Tempo, 371517
1, 594384, Tempo, 372671
1, 594400, Tempo, 375000
1, 594420, Note_on_c, 0, 45, 0
1, 594420, Note_on_c, 0, 50, 0
1, 594420, Note_on_c, 0, 48, 0
1, 594420, Note_on_c, 0, 42, 0
1, 594424, Tempo, 377358
1, 594440, Tempo, 378549
1, 594480, Note_on_c, 0, 80, 0
1, 594480, Note_on_c, 0, 81, 84
1, 594480, Note_on_c, 0, 48, 60
1, 594480, Note_on_c, 0, 42, 60
1, 594480, Note_on_c, 0, 45, 60
1, 594480, Note_on_c, 0, 50, 73
1, 594492, Tempo, 377358
1, 594504, Tempo, 375000
1, 594532, Tempo, 373832
1, 594544, Tempo, 372671
1, 594560, Tempo, 370370
1, 594600, Tempo, 373832
1, 594600, Note_on_c, 0, 81, 0
1, 594600, Note_on_c, 0, 83, 84
1, 594612, Tempo, 378549
1, 594660, Note_on_c, 0, 45, 0
1, 594660, Note_on_c, 0, 50, 0
1, 594660, Note_on_c, 0, 48, 0
1, 594660, Note_on_c, 0, 42, 0
1, 594692, Tempo, 377358
1, 594704, Tempo, 375000
1, 594720, Note_on_c, 0, 83, 0
1, 594720, Note_on_c, 0, 84, 95
1, 594732, Tempo, 373832
1, 594760, Tempo, 372671
1, 594772, Tempo, 371517
1, 594800, Tempo, 370370
1, 594824, Tempo, 372671
1, 594840, Tempo, 373832
1, 594840, Note_on_c, 0, 84, 0
1, 594840, Note_on_c, 0, 83, 84
1, 594960, Tempo, 386374
1, 594960, Note_on_c, 0, 83, 0
1, 594960, Note_on_c, 0, 81, 84
1, 594960, Note_on_c, 0, 48, 60
1, 594960, Note_on_c, 0, 42, 60
1, 594960, Note_on_c, 0, 45, 60
1, 594960, Note_on_c, 0, 50, 73
1, 595080, Note_on_c, 0, 81, 0
1, 595080, Note_on_c, 0, 80, 84
1, 595140, Note_on_c, 0, 45, 0
1, 595140, Note_on_c, 0, 50, 0
1, 595140, Note_on_c, 0, 48, 0
1, 595140, Note_on_c, 0, 42, 0
1, 595200, Tempo, 375000
1, 595200, Note_on_c, 0, 80, 0
1, 595200, Note_on_c, 0, 81, 95
1, 595200, Note_on_c, 0, 48, 67
1, 595200, Note_on_c, 0, 42, 67
1, 595200, Note_on_c, 0, 45, 67
1, 595200, Note_on_c, 0, 50, 78
1, 595212, Tempo, 372671
1, 595240, Tempo, 371517
1, 595252, Tempo, 370370
1, 595264, Tempo, 369231
1, 595292, Tempo, 368098
1, 595320, Note_on_c, 0, 81, 0
1, 595320, Note_on_c, 0, 80, 84
1, 595344, Tempo, 370370
1, 595360, Tempo, 377358
1, 595372, Tempo, 378549
1, 595380, Note_on_c, 0, 45, 0
1, 595380, Note_on_c, 0, 50, 0
1, 595380, Note_on_c, 0, 48, 0
1, 595380, Note_on_c, 0, 42, 0
1, 595384, Tempo, 379747
1, 595440, Tempo, 378549
1, 595440, Note_on_c, 0, 80, 0
1, 595440, Note_on_c, 0, 81, 84
1, 595440, Note_on_c, 0, 48, 60
1, 595440, Note_on_c, 0, 42, 60
1, 595440, Note_on_c, 0, 45, 60
1, 595440, Note_on_c, 0, 50, 73
1, 595452, Tempo, 376176
1, 595464, Tempo, 372671
1, 595492, Tempo, 371517
1, 595560, Tempo, 373832
1, 595560, Note_on_c, 0, 81, 0
1, 595560, Note_on_c, 0, 83, 84
1, 595620, Note_on_c, 0, 45, 0
1, 595620, Note_on_c, 0, 50, 0
1, 595620, Note_on_c, 0, 48, 0
1, 595620, Note_on_c, 0, 42, 0
1, 595680, Note_on_c, 0, 83, 0
1, 595680, Note_on_c, 0, 84, 95
1, 595732, Tempo, 382166
1, 595744, Tempo, 371517
1, 595760, Tempo, 369231
1, 595780, Tempo, 371517
1, 595800, Tempo, 369231
1, 595800, Note_on_c, 0, 84, 0
1, 595800, Note_on_c, 0, 83, 83
1, 595820, Tempo, 370370
1, 595840, Tempo, 373832
1, 595920, Tempo, 387672
1, 595920, Note_on_c, 0, 83, 0
1, 595920, Note_on_c, 0, 81, 83
1, 595920, Note_on_c, 0, 48, 60
1, 595920, Note_on_c, 0, 42, 60
1, 595920, Note_on_c, 0, 45, 60
1, 595920, Note_on_c, 0, 50, 73
1, 596040, Note_on_c, 0, 81, 0
1, 596040, Note_on_c, 0, 80, 83
1, 596100, Note_on_c, 0, 45, 0
1, 596100, Note_on_c, 0, 50, 0
1, 596100, Note_on_c, 0, 48, 0
1, 596100, Note_on_c, 0, 42, 0
1, 596160, Tempo, 375000
1, 596160, Note_on_c, 0, 80, 0
1, 596160, Note_on_c, 0, 81, 95
1, 596160, Note_on_c, 0, 48, 67
1, 596160, Note_on_c, 0, 42, 67
1, 596160, Note_on_c, 0, 45, 67
1, 596160, Note_on_c, 0, 50, 78
1, 596200, Tempo, 376176
1, 596280, Note_on_c, 0, 81, 0
1, 596280, Note_on_c, 0, 80, 83
1, 596332, Tempo, 375000
1, 596340, Note_on_c, 0, 45, 0
1, 596340, Note_on_c, 0, 50, 0
1, 596340, Note_on_c, 0, 48, 0
1, 596340, Note_on_c, 0, 42, 0
1, 596344, Tempo, 370370
1, 596400, Tempo, 371517
1, 596400, Note_on_c, 0, 80, 0
1, 596400, Note_on_c, 0, 81, 83
1, 596400, Note_on_c, 0, 48, 60
1, 596400, Note_on_c, 0, 42, 60
1, 596400, Note_on_c, 0, 45, 60
1, 596400, Note_on_c, 0, 50, 73
1, 596424, Tempo, 373832
1, 596440, Tempo, 376176
1, 596464, Tempo, 377358
1, 596520, Note_on_c, 0, 81, 0
1, 596520, Note_on_c, 0, 83, 83
1, 596544, Tempo, 375000
1, 596560, Tempo, 373832
1, 596572, Tempo, 370370
1, 596580, Note_on_c, 0, 45, 0
1, 596580, Note_on_c, 0, 50, 0
1, 596580, Note_on_c, 0, 48, 0
1, 596580, Note_on_c, 0, 42, 0
1, 596584, Tempo, 372671
1, 596600, Tempo, 372671
1, 596620, Tempo, 376176
1, 596640, Note_on_c, 0, 83, 0
1, 596640, Note_on_c, 0, 84, 95
1, 596680, Tempo, 372671
1, 596760, Note_on_c, 0, 84, 0
1, 596760, Note_on_c, 0, 83, 84
1, 596880, Tempo, 386374
1, 596880, Note_on_c, 0, 83, 0
1, 596880, Note_on_c, 0, 84, 84
1, 596880, Note_on_c, 0, 48, 60
1, 596880, Note_on_c, 0, 42, 60
1, 596880, Note_on_c, 0, 45, 60
1, 596880, Note_on_c, 0, 50, 73
1, 597000, Note_on_c, 0, 84, 0
1, 597000, Note_on_c, 0, 81, 86
1, 597060, Note_on_c, 0, 45, 0
1, 597060, Note_on_c, 0, 50, 0
1, 597060, Note_on_c, 0, 48, 0
1, 597060, Note_on_c, 0, 42, 0
1, 597120, Tempo, 373902
1, 597120, Note_on_c, 0, 81, 0
1, 597120, Note_on_c, 0, 67, 87
1, 597120, Note_on_c, 0, 79, 103
1, 597120, Note_on_c, 0, 43, 78
1, 597219, Control_c, 0, 64, 127
1, 597240, Note_on_c, 0, 43, 0
1, 597240, Note_on_c, 0, 79, 0
1, 597240, Note_on_c, 0, 67, 0
1, 597240, Note_on_c, 0, 48, 70
1, 597360, Note_on_c, 0, 48, 0
1, 597360, Note_on_c, 0, 67, 73
1, 597360, Note_on_c, 0, 79, 87
1, 597360, Note_on_c, 0, 52, 70
1, 597480, Note_on_c, 0, 52, 0
1, 597480, Note_on_c, 0, 79, 0
1, 597480, Note_on_c, 0, 67, 0
1, 597480, Note_on_c, 0, 55, 70
1, 597600, Tempo, 378788
1, 597600, Note_on_c, 0, 55, 0
1, 597600, Note_on_c, 0, 64, 74
1, 597600, Note_on_c, 0, 76, 88
1, 597600, Note_on_c, 0, 43, 77
1, 597720, Note_on_c, 0, 43, 0
1, 597720, Note_on_c, 0, 76, 0
1, 597720, Note_on_c, 0, 64, 0
1, 597720, Note_on_c, 0, 48, 70
1, 597840, Note_on_c, 0, 48, 0
1, 597840, Note_on_c, 0, 60, 73
1, 597840, Note_on_c, 0, 72, 87
1, 597840, Note_on_c, 0, 52, 70
1, 597960, Note_on_c, 0, 52, 0
1, 597960, Note_on_c, 0, 72, 0
1, 597960, Note_on_c, 0, 60, 0
1, 597960, Note_on_c, 0, 55, 70
1, 598080, Tempo, 373902
1, 598080, Note_on_c, 0, 55, 0
1, 598080, Note_on_c, 0, 72, 87
1, 598080, Note_on_c, 0, 84, 103
1, 598080, Note_on_c, 0, 43, 75
1, 598200, Note_on_c, 0, 43, 0
1, 598200, Note_on_c, 0, 84, 0
1, 598200, Note_on_c, 0, 72, 0
1, 598200, Note_on_c, 0, 48, 70
1, 598320, Note_on_c, 0, 48, 0
1, 598320, Note_on_c, 0, 72, 73
1, 598320, Note_on_c, 0, 84, 87
1, 598320, Note_on_c, 0, 52, 70
1, 598440, Note_on_c, 0, 52, 0
1, 598440, Note_on_c, 0, 84, 0
1, 598440, Note_on_c, 0, 72, 0
1, 598440, Note_on_c, 0, 55, 70
1, 598560, Tempo, 381291
1, 598560, Note_on_c, 0, 55, 0
1, 598560, Note_on_c, 0, 67, 73
1, 598560, Note_on_c, 0, 79, 87
1, 598560, Note_on_c, 0, 43, 75
1, 598680, Note_on_c, 0, 43, 0
1, 598680, Note_on_c, 0, 79, 0
1, 598680, Note_on_c, 0, 67, 0
1, 598680, Note_on_c, 0, 48, 70
1, 598800, Note_on_c, 0, 48, 0
1, 598800, Note_on_c, 0, 64, 73
1, 598800, Note_on_c, 0, 76, 87
1, 598800, Note_on_c, 0, 52, 70
1, 598920, Note_on_c, 0, 52, 0
1, 598920, Note_on_c, 0, 76, 0
1, 598920, Note_on_c, 0, 64, 0
1, 598920, Note_on_c, 0, 55, 70
1, 599000, Tempo, 373902
1, 599040, Note_on_c, 0, 55, 0
1, 599040, Note_on_c, 0, 67, 87
1, 599040, Note_on_c, 0, 79, 103
1, 599040, Note_on_c, 0, 43, 78
1, 599054, Control_c, 0, 64, 0
1, 599139, Control_c, 0, 64, 127
1, 599160, Note_on_c, 0, 43, 0
1, 599160, Note_on_c, 0, 79, 0
1, 599160, Note_on_c, 0, 67, 0
1, 599160, Note_on_c, 0, 48, 70
1, 599280, Note_on_c, 0, 48, 0
1, 599280, Note_on_c, 0, 67, 73
1, 599280, Note_on_c, 0, 79, 87
1, 599280, Note_on_c, 0, 52, 70
1, 599400, Note_on_c, 0, 52, 0
1, 599400, Note_on_c, 0, 79, 0
1, 599400, Note_on_c, 0, 67, 0
1, 599400, Note_on_c, 0, 55, 70
1, 599520, Tempo, 377572
1, 599520, Note_on_c, 0, 55, 0
1, 599520, Note_on_c, 0, 64, 74
1, 599520, Note_on_c, 0, 76, 88
1, 599520, Note_on_c, 0, 43, 77
1, 599640, Note_on_c, 0, 43, 0
1, 599640, Note_on_c, 0, 76, 0
1, 599640, Note_on_c, 0, 64, 0
1, 599640, Note_on_c, 0, 48, 70
1, 599760, Note_on_c, 0, 48, 0
1, 599760, Note_on_c, 0, 60, 73
1, 599760, Note_on_c, 0, 72, 87
1, 599760, Note_on_c, 0, 52, 70
1, 599880, Note_on_c, 0, 52, 0
1, 599880, Note_on_c, 0, 72, 0
1, 599880, Note_on_c, 0, 60, 0
1, 599880, Note_on_c, 0, 55, 70
1, 600000, Tempo, 373902
1, 600000, Note_on_c, 0, 55, 0
1, 600000, Note_on_c, 0, 72, 87
1, 600000, Note_on_c, 0, 84, 103
1, 600000, Note_on_c, 0, 52, 75
1, 600120, Note_on_c, 0, 52, 0
1, 600120, Note_on_c, 0, 84, 0
1, 600120, Note_on_c, 0, 72, 0
1, 600240, Note_on_c, 0, 72, 73
1, 600240, Note_on_c, 0, 84, 87
1, 600240, Note_on_c, 0, 52, 70
1, 600360, Note_on_c, 0, 52, 0
1, 600360, Note_on_c, 0, 84, 0
1, 600360, Note_on_c, 0, 72, 0
1, 600480, Tempo, 378788
1, 600480, Note_on_c, 0, 67, 73
1, 600480, Note_on_c, 0, 79, 87
1, 600480, Note_on_c, 0, 48, 75
1, 600600, Note_on_c, 0, 48, 0
1, 600600, Note_on_c, 0, 79, 0
1, 600600, Note_on_c, 0, 67, 0
1, 600720, Note_on_c, 0, 64, 73
1, 600720, Note_on_c, 0, 76, 87
1, 600720, Note_on_c, 0, 43, 70
1, 600840, Note_on_c, 0, 43, 0
1, 600840, Note_on_c, 0, 76, 0
1, 600840, Note_on_c, 0, 64, 0
1, 600960, Tempo, 373902
1, 600960, Note_on_c, 0, 55, 86
1, 600971, Control_c, 0, 64, 0
1, 600980, Tempo, 375000
1, 601059, Control_c, 0, 64, 127
1, 601080, Note_on_c, 0, 55, 0
1, 601080, Note_on_c, 0, 84, 47
1, 601140, Tempo, 373832
1, 601200, Note_on_c, 0, 84, 0
1, 601200, Note_on_c, 0, 88, 50
1, 601200, Note_on_c, 0, 52, 47
1, 601300, Tempo, 372671
1, 601319, Note_on_c, 0, 88, 0
1, 601320, Note_on_c, 0, 52, 0
1, 601320, Note_on_c, 0, 84, 47
1, 601440, Tempo, 371517
1, 601440, Note_on_c, 0, 84, 0
1, 601440, Note_on_c, 0, 91, 51
1, 601440, Note_on_c, 0, 60, 53
1, 601559, Note_on_c, 0, 91, 0
1, 601560, Note_on_c, 0, 60, 0
1, 601560, Note_on_c, 0, 88, 47
1, 601600, Tempo, 370370
1, 601680, Note_on_c, 0, 88, 0
1, 601680, Note_on_c, 0, 91, 50
1, 601680, Note_on_c, 0, 55, 48
1, 601760, Tempo, 369231
1, 601799, Note_on_c, 0, 91, 0
1, 601800, Note_on_c, 0, 55, 0
1, 601800, Note_on_c, 0, 88, 47
1, 601900, Tempo, 368098
1, 601920, Tempo, 370325
1, 601920, Note_on_c, 0, 88, 0
1, 601920, Note_on_c, 0, 91, 51
1, 601920, Note_on_c, 0, 64, 52
1, 602039, Note_on_c, 0, 91, 0
1, 602040, Note_on_c, 0, 64, 0
1, 602040, Note_on_c, 0, 88, 47
1, 602160, Note_on_c, 0, 88, 0
1, 602160, Note_on_c, 0, 91, 50
1, 602160, Note_on_c, 0, 60, 41
1, 602279, Note_on_c, 0, 91, 0
1, 602280, Note_on_c, 0, 60, 0
1, 602280, Note_on_c, 0, 88, 47
1, 602400, Note_on_c, 0, 88, 0
1, 602400, Note_on_c, 0, 91, 52
1, 602400, Note_on_c, 0, 67, 50
1, 602519, Note_on_c, 0, 91, 0
1, 602520, Note_on_c, 0, 67, 0
1, 602520, Note_on_c, 0, 88, 47
1, 602640, Note_on_c, 0, 88, 0
1, 602640, Note_on_c, 0, 91, 51
1, 602640, Note_on_c, 0, 64, 41
1, 602759, Note_on_c, 0, 91, 0
1, 602760, Note_on_c, 0, 64, 0
1, 602760, Note_on_c, 0, 88, 47
1, 602880, Note_on_c, 0, 88, 0
1, 602880, Note_on_c, 0, 91, 50
1, 602880, Note_on_c, 0, 72, 50
1, 602920, Tempo, 372694
1, 602999, Note_on_c, 0, 91, 0
1, 603000, Note_on_c, 0, 72, 0
1, 603000, Note_on_c, 0, 88, 47
1, 603120, Note_on_c, 0, 88, 0
1, 603120, Note_on_c, 0, 91, 50
1, 603120, Note_on_c, 0, 67, 41
1, 603239, Note_on_c, 0, 91, 0
1, 603240, Note_on_c, 0, 67, 0
1, 603240, Note_on_c, 0, 88, 47
1, 603360, Note_on_c, 0, 88, 0
1, 603360, Note_on_c, 0, 91, 51
1, 603360, Note_on_c, 0, 76, 50
1, 603479, Note_on_c, 0, 91, 0
1, 603480, Note_on_c, 0, 76, 0
1, 603480, Note_on_c, 0, 88, 47
1, 603600, Note_on_c, 0, 88, 0
1, 603600, Note_on_c, 0, 91, 50
1, 603600, Note_on_c, 0, 72, 39
1, 603719, Note_on_c, 0, 91, 0
1, 603720, Note_on_c, 0, 72, 0
1, 603720, Note_on_c, 0, 88, 47
1, 603840, Note_on_c, 0, 88, 0
1, 603840, Note_on_c, 0, 91, 51
1, 603840, Note_on_c, 0, 79, 50
1, 603880, Tempo, 372694
1, 603959, Note_on_c, 0, 91, 0
1, 603960, Note_on_c, 0, 79, 0
1, 603960, Note_on_c, 0, 88, 47
1, 604000, Tempo, 373902
1, 604080, Note_on_c, 0, 88, 0
1, 604080, Note_on_c, 0, 91, 50
1, 604080, Note_on_c, 0, 76, 41
1, 604120, Tempo, 375117
1, 604199, Note_on_c, 0, 91, 0
1, 604200, Note_on_c, 0, 76, 0
1, 604200, Note_on_c, 0, 88, 47
1, 604240, Tempo, 376341
1, 604320, Note_on_c, 0, 88, 0
1, 604320, Note_on_c, 0, 91, 52
1, 604320, Note_on_c, 0, 84, 50
1, 604360, Tempo, 377572
1, 604439, Note_on_c, 0, 91, 0
1, 604440, Note_on_c, 0, 84, 0
1, 604440, Note_on_c, 0, 88, 47
1, 604480, Tempo, 378788
1, 604560, Note_on_c, 0, 88, 0
1, 604560, Note_on_c, 0, 91, 51
1, 604560, Note_on_c, 0, 79, 42
1, 604600, Tempo, 380035
1, 604679, Note_on_c, 0, 91, 0
1, 604680, Note_on_c, 0, 79, 0
1, 604680, Note_on_c, 0, 88, 47
1, 604720, Tempo, 381291
1, 604800, Note_on_c, 0, 88, 0
1, 604800, Note_on_c, 0, 83, 46
1, 604800, Control_c, 0, 64, 0
1, 604840, Tempo, 373902
1, 604860, Control_c, 0, 64, 127
1, 604920, Note_on_c, 0, 83, 0
1, 604920, Note_on_c, 0, 89, 42
1, 605040, Note_on_c, 0, 89, 0
1, 605040, Note_on_c, 0, 91, 45
1, 605040, Note_on_c, 0, 79, 37
1, 605160, Note_on_c, 0, 79, 0
1, 605160, Note_on_c, 0, 89, 41
1, 605220, Note_on_c, 0, 91, 0
1, 605240, Tempo, 372694
1, 605280, Note_on_c, 0, 89, 0
1, 605280, Note_on_c, 0, 92, 44
1, 605280, Note_on_c, 0, 83, 43
1, 605400, Note_on_c, 0, 83, 0
1, 605400, Note_on_c, 0, 89, 40
1, 605460, Note_on_c, 0, 92, 0
1, 605480, Tempo, 371517
1, 605520, Note_on_c, 0, 89, 0
1, 605520, Note_on_c, 0, 91, 42
1, 605520, Note_on_c, 0, 79, 36
1, 605640, Note_on_c, 0, 79, 0
1, 605640, Note_on_c, 0, 89, 39
1, 605700, Note_on_c, 0, 91, 0
1, 605720, Tempo, 370325
1, 605760, Tempo, 371517
1, 605760, Note_on_c, 0, 89, 0
1, 605760, Note_on_c, 0, 92, 42
1, 605760, Note_on_c, 0, 83, 41
1, 605780, Tempo, 369231
1, 605820, Tempo, 366972
1, 605840, Tempo, 365854
1, 605860, Tempo, 363636
1, 605880, Tempo, 362538
1, 605880, Note_on_c, 0, 83, 0
1, 605880, Note_on_c, 0, 89, 38
1, 605900, Tempo, 361446
1, 605920, Tempo, 362538
1, 605940, Tempo, 363636
1, 605940, Note_on_c, 0, 92, 0
1, 605960, Tempo, 365854
1, 605980, Tempo, 366972
1, 606000, Tempo, 368098
1, 606000, Note_on_c, 0, 89, 0
1, 606000, Note_on_c, 0, 91, 40
1, 606000, Note_on_c, 0, 79, 32
1, 606020, Tempo, 369231
1, 606100, Tempo, 368098
1, 606120, Tempo, 364742
1, 606120, Note_on_c, 0, 79, 0
1, 606120, Note_on_c, 0, 89, 37
1, 606180, Note_on_c, 0, 91, 0
1, 606200, Tempo, 366972
1, 606220, Tempo, 368098
1, 606240, Note_on_c, 0, 89, 0
1, 606240, Note_on_c, 0, 92, 40
1, 606240, Note_on_c, 0, 83, 39
1, 606280, Tempo, 363636
1, 606360, Note_on_c, 0, 83, 0
1, 606360, Note_on_c, 0, 89, 36
1, 606420, Note_on_c, 0, 92, 0
1, 606460, Tempo, 366972
1, 606480, Note_on_c, 0, 89, 0
1, 606480, Note_on_c, 0, 91, 39
1, 606480, Note_on_c, 0, 79, 31
1, 606500, Tempo, 369231
1, 606520, Tempo, 370370
1, 606540, Tempo, 369231
1, 606560, Tempo, 365854
1, 606600, Tempo, 363636
1, 606600, Note_on_c, 0, 79, 0
1, 606600, Note_on_c, 0, 89, 35
1, 606640, Tempo, 361446
1, 606660, Tempo, 359281
1, 606660, Note_on_c, 0, 91, 0
1, 606720, Note_on_c, 0, 89, 0
1, 606720, Note_on_c, 0, 92, 37
1, 606720, Note_on_c, 0, 83, 36
1, 606820, Tempo, 361446
1, 606840, Tempo, 365854
1, 606840, Note_on_c, 0, 83, 0
1, 606840, Note_on_c, 0, 89, 34
1, 606860, Tempo, 366972
1, 606900, Tempo, 365854
1, 606900, Note_on_c, 0, 92, 0
1, 606920, Tempo, 364742
1, 606940, Tempo, 363636
1, 606960, Tempo, 360360
1, 606960, Note_on_c, 0, 89, 0
1, 606960, Note_on_c, 0, 91, 36
1, 606960, Note_on_c, 0, 79, 30
1, 606980, Tempo, 359281
1, 607000, Tempo, 358209
1, 607080, Note_on_c, 0, 79, 0
1, 607080, Note_on_c, 0, 89, 34
1, 607120, Tempo, 360360
1, 607140, Tempo, 362538
1, 607140, Note_on_c, 0, 91, 0
1, 607160, Tempo, 364742
1, 607180, Tempo, 365854
1, 607200, Tempo, 366972
1, 607200, Note_on_c, 0, 89, 0
1, 607200, Note_on_c, 0, 92, 37
1, 607200, Note_on_c, 0, 83, 36
1, 607260, Tempo, 365854
1, 607280, Tempo, 363636
1, 607300, Tempo, 361446
1, 607320, Tempo, 359281
1, 607320, Note_on_c, 0, 83, 0
1, 607320, Note_on_c, 0, 89, 34
1, 607380, Tempo, 358209
1, 607380, Note_on_c, 0, 92, 0
1, 607400, Tempo, 363636
1, 607420, Tempo, 365854
1, 607440, Note_on_c, 0, 89, 0
1, 607440, Note_on_c, 0, 91, 36
1, 607440, Note_on_c, 0, 79, 31
1, 607452, Tempo, 370325
1, 607480, Tempo, 369140
1, 607492, Tempo, 367963
1, 607504, Tempo, 366815
1, 607532, Tempo, 365653
1, 607560, Note_on_c, 0, 79, 0
1, 607560, Note_on_c, 0, 89, 34
1, 607572, Tempo, 366815
1, 607584, Tempo, 369140
1, 607600, Tempo, 370325
1, 607620, Note_on_c, 0, 91, 0
1, 607680, Tempo, 372694
1, 607680, Note_on_c, 0, 89, 0
1, 607680, Note_on_c, 0, 92, 37
1, 607680, Note_on_c, 0, 83, 36
1, 607800, Note_on_c, 0, 83, 0
1, 607800, Note_on_c, 0, 89, 34
1, 607860, Note_on_c, 0, 92, 0
1, 607880, Tempo, 373902
1, 607920, Note_on_c, 0, 89, 0
1, 607920, Note_on_c, 0, 91, 36
1, 607920, Note_on_c, 0, 79, 29
1, 608040, Tempo, 375117
1, 608040, Note_on_c, 0, 79, 0
1, 608040, Note_on_c, 0, 89, 34
1, 608100, Note_on_c, 0, 91, 0
1, 608160, Note_on_c, 0, 89, 0
1, 608160, Note_on_c, 0, 92, 38
1, 608160, Note_on_c, 0, 83, 36
1, 608200, Tempo, 376341
1, 608280, Note_on_c, 0, 83, 0
1, 608280, Note_on_c, 0, 89, 34
1, 608340, Note_on_c, 0, 92, 0
1, 608360, Tempo, 377572
1, 608400, Note_on_c, 0, 89, 0
1, 608400, Note_on_c, 0, 91, 37
1, 608400, Note_on_c, 0, 79, 30
1, 608520, Tempo, 378788
1, 608520, Note_on_c, 0, 79, 0
1, 608520, Note_on_c, 0, 89, 34
1, 608580, Note_on_c, 0, 91, 0
1, 608620, Tempo, 368098
1, 608640, Tempo, 384615
1, 608640, Note_on_c, 0, 89, 0
1, 608640, Note_on_c, 0, 93, 37
1, 608640, Note_on_c, 0, 83, 37
1, 608648, Control_c, 0, 64, 0
1, 608660, Tempo, 382166
1, 608680, Tempo, 380952
1, 608690, Tempo, 379747
1, 608710, Tempo, 378549
1, 608711, Control_c, 0, 64, 127
1, 608720, Note_on_c, 0, 83, 0
1, 608720, Note_on_c, 0, 84, 32
1, 608740, Tempo, 380952
1, 608750, Tempo, 382166
1, 608760, Tempo, 383387
1, 608760, Note_on_c, 0, 93, 0
1, 608760, Note_on_c, 0, 89, 34
1, 608790, Tempo, 382166
1, 608800, Tempo, 380952
1, 608800, Note_on_c, 0, 84, 0
1, 608800, Note_on_c, 0, 83, 36
1, 608810, Tempo, 379747
1, 608820, Tempo, 378549
1, 608830, Tempo, 377358
1, 608840, Tempo, 376176
1, 608880, Note_on_c, 0, 83, 0
1, 608880, Note_on_c, 0, 89, 0
1, 608880, Note_on_c, 0, 91, 36
1, 608880, Note_on_c, 0, 84, 31
1, 608910, Tempo, 375000
1, 608930, Tempo, 377358
1, 608940, Tempo, 378549
1, 608950, Tempo, 379747
1, 608960, Note_on_c, 0, 84, 0
1, 608960, Note_on_c, 0, 83, 36
1, 608990, Tempo, 380952
1, 609000, Note_on_c, 0, 91, 0
1, 609000, Note_on_c, 0, 89, 35
1, 609020, Tempo, 379747
1, 609040, Tempo, 377358
1, 609040, Note_on_c, 0, 83, 0
1, 609040, Note_on_c, 0, 84, 33
1, 609050, Tempo, 376176
1, 609060, Tempo, 375000
1, 609070, Tempo, 373832
1, 609080, Tempo, 372671
1, 609090, Tempo, 371517
1, 609110, Tempo, 370370
1, 609120, Tempo, 369231
1, 609120, Note_on_c, 0, 84, 0
1, 609120, Note_on_c, 0, 89, 0
1, 609120, Note_on_c, 0, 93, 38
1, 609120, Note_on_c, 0, 83, 37
1, 609130, Tempo, 370370
1, 609140, Tempo, 371517
1, 609160, Tempo, 373832
1, 609170, Tempo, 375000
1, 609190, Tempo, 376176
1, 609200, Tempo, 378549
1, 609200, Note_on_c, 0, 83, 0
1, 609200, Note_on_c, 0, 84, 33
1, 609240, Note_on_c, 0, 93, 0
1, 609240, Note_on_c, 0, 89, 36
1, 609260, Tempo, 380952
1, 609270, Tempo, 382166
1, 609280, Note_on_c, 0, 84, 0
1, 609280, Note_on_c, 0, 83, 37
1, 609290, Tempo, 379747
1, 609300, Tempo, 377358
1, 609310, Tempo, 376176
1, 609320, Tempo, 375000
1, 609330, Tempo, 373832
1, 609340, Tempo, 372671
1, 609360, Tempo, 373832
1, 609360, Note_on_c, 0, 83, 0
1, 609360, Note_on_c, 0, 89, 0
1, 609360, Note_on_c, 0, 91, 38
1, 609360, Note_on_c, 0, 84, 33
1, 609380, Tempo, 372671
1, 609390, Tempo, 375000
1, 609420, Tempo, 379747
1, 609440, Note_on_c, 0, 84, 0
1, 609440, Note_on_c, 0, 83, 38
1, 609460, Tempo, 378549
1, 609470, Tempo, 377358
1, 609480, Tempo, 376176
1, 609480, Note_on_c, 0, 91, 0
1, 609480, Note_on_c, 0, 89, 36
1, 609490, Tempo, 375000
1, 609500, Tempo, 373832
1, 609510, Tempo, 372671
1, 609520, Tempo, 371517
1, 609520, Note_on_c, 0, 83, 0
1, 609520, Note_on_c, 0, 84, 34
1, 609530, Tempo, 370370
1, 609540, Tempo, 369231
1, 609550, Tempo, 371517
1, 609560, Tempo, 372671
1, 609570, Tempo, 373832
1, 609590, Tempo, 376176
1, 609600, Note_on_c, 0, 84, 0
1, 609600, Note_on_c, 0, 89, 0
1, 609600, Note_on_c, 0, 93, 40
1, 609600, Note_on_c, 0, 83, 38
1, 609610, Tempo, 378549
1, 609650, Tempo, 377358
1, 609660, Tempo, 376176
1, 609680, Tempo, 375000
1, 609680, Note_on_c, 0, 83, 0
1, 609680, Note_on_c, 0, 84, 35
1, 609690, Tempo, 372671
1, 609710, Tempo, 371517
1, 609720, Tempo, 370370
1, 609720, Note_on_c, 0, 93, 0
1, 609720, Note_on_c, 0, 89, 37
1, 609740, Tempo, 369231
1, 609750, Tempo, 368098
1, 609760, Tempo, 370370
1, 609760, Note_on_c, 0, 84, 0
1, 609760, Note_on_c, 0, 83, 39
1, 609770, Tempo, 373832
1, 609780, Tempo, 375000
1, 609790, Tempo, 376176
1, 609810, Tempo, 377358
1, 609820, Tempo, 378549
1, 609840, Note_on_c, 0, 83, 0
1, 609840, Note_on_c, 0, 89, 0
1, 609840, Note_on_c, 0, 91, 40
1, 609840, Note_on_c, 0, 84, 35
1, 609860, Tempo, 377358
1, 609870, Tempo, 376176
1, 609880, Tempo, 375000
1, 609890, Tempo, 373832
1, 609900, Tempo, 372671
1, 609910, Tempo, 371517
1, 609920, Note_on_c, 0, 84, 0
1, 609920, Note_on_c, 0, 83, 39
1, 609930, Tempo, 369231
1, 609950, Tempo, 368098
1, 609960, Note_on_c, 0, 91, 0
1, 609960, Note_on_c, 0, 89, 38
1, 610000, Note_on_c, 0, 83, 0
1, 610000, Note_on_c, 0, 84, 36
1, 610010, Tempo, 370370
1, 610020, Tempo, 371517
1, 610030, Tempo, 372671
1, 610040, Tempo, 373832
1, 610050, Tempo, 376176
1, 610060, Tempo, 377358
1, 610080, Note_on_c, 0, 84, 0
1, 610080, Note_on_c, 0, 89, 0
1, 610080, Note_on_c, 0, 93, 43
1, 610080, Note_on_c, 0, 83, 40
1, 610150, Tempo, 376176
1, 610160, Tempo, 375000
1, 610160, Note_on_c, 0, 83, 0
1, 610160, Note_on_c, 0, 84, 36
1, 610170, Tempo, 372671
1, 610190, Tempo, 371517
1, 610200, Tempo, 369231
1, 610200, Note_on_c, 0, 93, 0
1, 610200, Note_on_c, 0, 89, 39
1, 610230, Tempo, 370370
1, 610240, Tempo, 371517
1, 610240, Note_on_c, 0, 84, 0
1, 610240, Note_on_c, 0, 83, 40
1, 610260, Tempo, 373832
1, 610280, Tempo, 376176
1, 610290, Tempo, 377358
1, 610320, Note_on_c, 0, 83, 0
1, 610320, Note_on_c, 0, 89, 0
1, 610320, Note_on_c, 0, 91, 43
1, 610320, Note_on_c, 0, 84, 36
1, 610330, Tempo, 376176
1, 610340, Tempo, 375000
1, 610360, Tempo, 373832
1, 610370, Tempo, 372671
1, 610380, Tempo, 371517
1, 610400, Note_on_c, 0, 84, 0
1, 610400, Note_on_c, 0, 83, 41
1, 610410, Tempo, 370370
1, 610420, Tempo, 369231
1, 610440, Tempo, 368098
1, 610440, Note_on_c, 0, 91, 0
1, 610440, Note_on_c, 0, 89, 40
1, 610460, Tempo, 370370
1, 610470, Tempo, 371517
1, 610480, Tempo, 372671
1, 610480, Note_on_c, 0, 83, 0
1, 610480, Note_on_c, 0, 84, 37
1, 610500, Tempo, 371517
1, 610520, Tempo, 370370
1, 610530, Tempo, 369231
1, 610560, Tempo, 368098
1, 610560, Note_on_c, 0, 84, 0
1, 610560, Note_on_c, 0, 89, 0
1, 610560, Note_on_c, 0, 93, 44
1, 610560, Note_on_c, 0, 83, 41
1, 610575, Control_c, 0, 64, 0
1, 610590, Tempo, 369231
1, 610599, Control_c, 0, 64, 127
1, 610600, Tempo, 371517
1, 610610, Tempo, 373832
1, 610620, Tempo, 375000
1, 610630, Tempo, 377358
1, 610640, Note_on_c, 0, 83, 0
1, 610640, Note_on_c, 0, 84, 36
1, 610680, Tempo, 375000
1, 610680, Note_on_c, 0, 93, 0
1, 610690, Tempo, 373832
1, 610700, Tempo, 371517
1, 610710, Tempo, 370370
1, 610720, Tempo, 366972
1, 610720, Note_on_c, 0, 84, 0
1, 610720, Note_on_c, 0, 83, 42
1, 610730, Tempo, 365854
1, 610780, Tempo, 364742
1, 610800, Tempo, 369231
1, 610800, Note_on_c, 0, 83, 0
1, 610800, Note_on_c, 0, 89, 43
1, 610800, Note_on_c, 0, 91, 43
1, 610800, Note_on_c, 0, 84, 37
1, 610810, Tempo, 370370
1, 610820, Tempo, 371517
1, 610840, Tempo, 372671
1, 610850, Tempo, 373832
1, 610860, Tempo, 375000
1, 610870, Tempo, 377358
1, 610880, Note_on_c, 0, 84, 0
1, 610880, Note_on_c, 0, 83, 42
1, 610920, Tempo, 375000
1, 610920, Note_on_c, 0, 91, 0
1, 610920, Note_on_c, 0, 89, 0
1, 610930, Tempo, 372671
1, 610940, Tempo, 371517
1, 610960, Note_on_c, 0, 83, 0
1, 610960, Note_on_c, 0, 84, 37
1, 610970, Tempo, 370370
1, 611000, Tempo, 369231
1, 611030, Tempo, 370370
1, 611040, Note_on_c, 0, 84, 0
1, 611040, Note_on_c, 0, 89, 46
1, 611040, Note_on_c, 0, 91, 46
1, 611040, Note_on_c, 0, 83, 43
1, 611050, Tempo, 373832
1, 611060, Tempo, 375000
1, 611070, Tempo, 376176
1, 611090, Tempo, 377358
1, 611120, Note_on_c, 0, 83, 0
1, 611120, Note_on_c, 0, 84, 38
1, 611140, Tempo, 375000
1, 611150, Tempo, 373832
1, 611160, Tempo, 371517
1, 611160, Note_on_c, 0, 91, 0
1, 611160, Note_on_c, 0, 89, 0
1, 611180, Tempo, 370370
1, 611200, Tempo, 368098
1, 611200, Note_on_c, 0, 84, 0
1, 611200, Note_on_c, 0, 83, 43
1, 611210, Tempo, 366972
1, 611230, Tempo, 368098
1, 611240, Tempo, 369231
1, 611260, Tempo, 371517
1, 611270, Tempo, 373832
1, 611280, Tempo, 375000
1, 611280, Note_on_c, 0, 83, 0
1, 611280, Note_on_c, 0, 89, 46
1, 611280, Note_on_c, 0, 91, 46
1, 611280, Note_on_c, 0, 84, 39
1, 611350, Tempo, 373832
1, 611360, Tempo, 371517
1, 611360, Note_on_c, 0, 84, 0
1, 611360, Note_on_c, 0, 83, 44
1, 611370, Tempo, 370370
1, 611390, Tempo, 368098
1, 611400, Tempo, 365854
1, 611400, Note_on_c, 0, 91, 0
1, 611400, Note_on_c, 0, 89, 0
1, 611420, Tempo, 364742
1, 611440, Tempo, 369231
1, 611440, Note_on_c, 0, 83, 0
1, 611440, Note_on_c, 0, 84, 39
1, 611450, Tempo, 371517
1, 611510, Tempo, 373832
1, 611520, Note_on_c, 0, 84, 0
1, 611520, Note_on_c, 0, 89, 49
1, 611520, Note_on_c, 0, 91, 49
1, 611520, Note_on_c, 0, 83, 44
1, 611530, Tempo, 376176
1, 611550, Tempo, 377358
1, 611570, Tempo, 375000
1, 611580, Tempo, 373832
1, 611590, Tempo, 371517
1, 611600, Tempo, 370370
1, 611600, Note_on_c, 0, 83, 0
1, 611600, Note_on_c, 0, 84, 38
1, 611620, Tempo, 369231
1, 611630, Tempo, 366972
1, 611640, Tempo, 368098
1, 611640, Note_on_c, 0, 91, 0
1, 611640, Note_on_c, 0, 89, 0
1, 611660, Tempo, 370370
1, 611670, Tempo, 373832
1, 611680, Tempo, 375000
1, 611680, Note_on_c, 0, 84, 0
1, 611680, Note_on_c, 0, 83, 45
1, 611700, Tempo, 376176
1, 611740, Tempo, 375000
1, 611750, Tempo, 373832
1, 611760, Tempo, 372671
1, 611760, Note_on_c, 0, 83, 0
1, 611760, Note_on_c, 0, 89, 49
1, 611760, Note_on_c, 0, 91, 49
1, 611760, Note_on_c, 0, 84, 38
1, 611770, Tempo, 371517
1, 611790, Tempo, 370370
1, 611800, Tempo, 369231
1, 611830, Tempo, 368098
1, 611840, Note_on_c, 0, 84, 0
1, 611840, Note_on_c, 0, 83, 45
1, 611850, Tempo, 370370
1, 611860, Tempo, 371517
1, 611870, Tempo, 375000
1, 611880, Tempo, 376176
1, 611880, Note_on_c, 0, 91, 0
1, 611880, Note_on_c, 0, 89, 0
1, 611890, Tempo, 377358
1, 611920, Tempo, 376176
1, 611920, Note_on_c, 0, 83, 0
1, 611920, Note_on_c, 0, 84, 40
1, 611930, Tempo, 375000
1, 611940, Tempo, 372671
1, 611950, Tempo, 371517
1, 611970, Tempo, 370370
1, 612000, Note_on_c, 0, 84, 0
1, 612000, Note_on_c, 0, 89, 54
1, 612000, Note_on_c, 0, 91, 54
1, 612000, Note_on_c, 0, 83, 50
1, 612030, Tempo, 371517
1, 612040, Tempo, 373832
1, 612080, Tempo, 370325
1, 612096, Note_on_c, 0, 83, 0
1, 612096, Note_on_c, 0, 84, 44
1, 612120, Tempo, 372694
1, 612120, Note_on_c, 0, 91, 0
1, 612120, Note_on_c, 0, 89, 0
1, 612160, Tempo, 376341
1, 612192, Note_on_c, 0, 84, 0
1, 612192, Note_on_c, 0, 83, 50
1, 612200, Tempo, 380035
1, 612240, Tempo, 382555
1, 612240, Note_on_c, 0, 89, 53
1, 612240, Note_on_c, 0, 91, 53
1, 612280, Tempo, 386374
1, 612288, Note_on_c, 0, 83, 0
1, 612288, Note_on_c, 0, 81, 52
1, 612320, Tempo, 390269
1, 612360, Tempo, 402468
1, 612360, Note_on_c, 0, 91, 0
1, 612360, Note_on_c, 0, 89, 0
1, 612384, Note_on_c, 0, 81, 0
1, 612384, Note_on_c, 0, 83, 47
1, 612480, Note_on_c, 0, 83, 0
1, 612480, Note_on_c, 0, 84, 82
1, 612480, Note_on_c, 0, 60, 52
1, 612480, Note_on_c, 0, 72, 62
1, 612486, Control_c, 0, 64, 0
1, 612500, Tempo, 383803
1, 613440, Tempo, 373902
1, 613440, Note_on_c, 0, 72, 0
1, 613440, Note_on_c, 0, 64, 38
1, 613440, Note_on_c, 0, 67, 38
1, 613440, Note_on_c, 0, 70, 45
1, 613920, Note_on_c, 0, 84, 0
1, 613920, Note_on_c, 0, 84, 58
1, 614040, Note_on_c, 0, 84, 0
1, 614040, Note_on_c, 0, 82, 57
1, 614160, Note_on_c, 0, 82, 0
1, 614160, Note_on_c, 0, 80, 56
1, 614280, Note_on_c, 0, 80, 0
1, 614280, Note_on_c, 0, 79, 55
1, 614400, Note_on_c, 0, 79, 0
1, 614400, Note_on_c, 0, 67, 0
1, 614400, Note_on_c, 0, 70, 0
1, 614400, Note_on_c, 0, 64, 0
1, 614400, Note_on_c, 0, 80, 58
1, 614400, Note_on_c, 0, 65, 39
1, 614400, Note_on_c, 0, 68, 47
1, 614520, Note_on_c, 0, 80, 0
1, 614520, Note_on_c, 0, 79, 57
1, 614640, Note_on_c, 0, 79, 0
1, 614640, Note_on_c, 0, 77, 56
1, 614760, Note_on_c, 0, 77, 0
1, 614760, Note_on_c, 0, 76, 55
1, 614880, Note_on_c, 0, 76, 0
1, 614880, Note_on_c, 0, 77, 51
1, 615000, Note_on_c, 0, 77, 0
1, 615000, Note_on_c, 0, 79, 52
1, 615120, Note_on_c, 0, 79, 0
1, 615120, Note_on_c, 0, 80, 53
1, 615240, Tempo, 395596
1, 615240, Note_on_c, 0, 80, 0
1, 615240, Note_on_c, 0, 82, 54
1, 615360, Tempo, 373902
1, 615360, Note_on_c, 0, 82, 0
1, 615360, Note_on_c, 0, 68, 0
1, 615360, Note_on_c, 0, 65, 0
1, 615360, Note_on_c, 0, 84, 56
1, 615360, Note_on_c, 0, 64, 39
1, 615360, Note_on_c, 0, 67, 39
1, 615360, Note_on_c, 0, 70, 46
1, 615480, Note_on_c, 0, 84, 0
1, 615480, Note_on_c, 0, 85, 57
1, 615600, Note_on_c, 0, 85, 0
1, 615600, Note_on_c, 0, 84, 57
1, 615720, Note_on_c, 0, 84, 0
1, 615720, Note_on_c, 0, 83, 56
1, 615800, Tempo, 373902
1, 615840, Note_on_c, 0, 83, 0
1, 615840, Note_on_c, 0, 84, 56
1, 615960, Note_on_c, 0, 84, 0
1, 615960, Note_on_c, 0, 82, 56
1, 616000, Tempo, 375117
1, 616080, Note_on_c, 0, 82, 0
1, 616080, Note_on_c, 0, 80, 56
1, 616200, Tempo, 376341
1, 616200, Note_on_c, 0, 80, 0
1, 616200, Note_on_c, 0, 79, 56
1, 616320, Note_on_c, 0, 79, 0
1, 616320, Note_on_c, 0, 70, 0
1, 616320, Note_on_c, 0, 60, 0
1, 616320, Note_on_c, 0, 64, 0
1, 616320, Note_on_c, 0, 67, 0
1, 616320, Note_on_c, 0, 80, 57
1, 616320, Note_on_c, 0, 68, 48
1, 616320, Note_on_c, 0, 65, 40
1, 616400, Tempo, 377572
1, 616440, Note_on_c, 0, 80, 0
1, 616440, Note_on_c, 0, 82, 57
1, 616560, Note_on_c, 0, 82, 0
1, 616560, Note_on_c, 0, 80, 57
1, 616600, Tempo, 378788
1, 616680, Note_on_c, 0, 80, 0
1, 616680, Note_on_c, 0, 79, 53
1, 616800, Tempo, 380035
1, 616800, Note_on_c, 0, 79, 0
1, 616800, Note_on_c, 0, 65, 0
1, 616800, Note_on_c, 0, 68, 0
1, 616800, Note_on_c, 0, 77, 56
1, 616920, Note_on_c, 0, 77, 0
1, 616920, Note_on_c, 0, 76, 52
1, 617000, Tempo, 381291
1, 617040, Note_on_c, 0, 76, 0
1, 617040, Note_on_c, 0, 77, 56
1, 617160, Note_on_c, 0, 77, 0
1, 617160, Note_on_c, 0, 79, 52
1, 617280, Tempo, 388954
1, 617280, Note_on_c, 0, 79, 0
1, 617280, Note_on_c, 0, 68, 45
1, 617280, Note_on_c, 0, 80, 59
1, 617280, Note_on_c, 0, 65, 47
1, 617280, Note_on_c, 0, 61, 39
1, 617280, Note_on_c, 0, 56, 39
1, 617280, Note_on_c, 0, 53, 39
1, 617429, Control_c, 0, 64, 127
1, 617760, Note_on_c, 0, 80, 0
1, 617760, Note_on_c, 0, 77, 52
1, 618000, Tempo, 401070
1, 618000, Note_on_c, 0, 77, 0
1, 618000, Note_on_c, 0, 73, 52
1, 618240, Tempo, 388954
1, 618240, Note_on_c, 0, 73, 0
1, 618240, Note_on_c, 0, 65, 0
1, 618240, Note_on_c, 0, 61, 0
1, 618240, Note_on_c, 0, 68, 0
1, 618240, Note_on_c, 0, 53, 0
1, 618240, Note_on_c, 0, 56, 0
1, 618240, Note_on_c, 0, 67, 45
1, 618240, Note_on_c, 0, 79, 57
1, 618240, Note_on_c, 0, 60, 39
1, 618240, Note_on_c, 0, 55, 39
1, 618240, Note_on_c, 0, 63, 46
1, 618252, Control_c, 0, 64, 0
1, 618435, Control_c, 0, 64, 127
1, 618720, Note_on_c, 0, 79, 0
1, 618720, Note_on_c, 0, 75, 52
1, 618960, Tempo, 402468
1, 618960, Note_on_c, 0, 75, 0
1, 618960, Note_on_c, 0, 72, 52
1, 619200, Tempo, 390269
1, 619200, Note_on_c, 0, 72, 0
1, 619200, Note_on_c, 0, 55, 0
1, 619200, Note_on_c, 0, 67, 0
1, 619200, Note_on_c, 0, 60, 0
1, 619200, Note_on_c, 0, 63, 0
1, 619200, Note_on_c, 0, 65, 45
1, 619200, Note_on_c, 0, 77, 57
1, 619200, Note_on_c, 0, 55, 37
1, 619200, Note_on_c, 0, 59, 37
1, 619200, Note_on_c, 0, 62, 44
1, 619215, Control_c, 0, 64, 0
1, 619337, Control_c, 0, 64, 127
1, 619680, Note_on_c, 0, 77, 0
1, 619680, Note_on_c, 0, 74, 52
1, 619920, Note_on_c, 0, 74, 0
1, 619920, Note_on_c, 0, 71, 52
1, 620160, Tempo, 383803
1, 620160, Note_on_c, 0, 71, 0
1, 620160, Note_on_c, 0, 59, 0
1, 620160, Note_on_c, 0, 65, 0
1, 620160, Note_on_c, 0, 55, 0
1, 620160, Note_on_c, 0, 62, 0
1, 620160, Note_on_c, 0, 72, 72
1, 620160, Note_on_c, 0, 60, 56
1, 620160, Note_on_c, 0, 48, 45
1, 620176, Control_c, 0, 64, 0
1, 621120, Tempo, 372694
1, 621120, Note_on_c, 0, 60, 0
1, 621120, Note_on_c, 0, 52, 38
1, 621120, Note_on_c, 0, 55, 38
1, 621120, Note_on_c, 0, 58, 45
1, 621600, Note_on_c, 0, 72, 0
1, 621600, Note_on_c, 0, 72, 58
1, 621720, Note_on_c, 0, 72, 0
1, 621720, Note_on_c, 0, 70, 57
1, 621840, Note_on_c, 0, 70, 0
1, 621840, Note_on_c, 0, 69, 56
1, 621960, Note_on_c, 0, 69, 0
1, 621960, Note_on_c, 0, 67, 55
1, 622080, Note_on_c, 0, 67, 0
1, 622080, Note_on_c, 0, 55, 0
1, 622080, Note_on_c, 0, 58, 0
1, 622080, Note_on_c, 0, 52, 0
1, 622080, Note_on_c, 0, 69, 58
1, 622080, Note_on_c, 0, 53, 39
1, 622080, Note_on_c, 0, 57, 47
1, 622200, Note_on_c, 0, 69, 0
1, 622200, Note_on_c, 0, 67, 57
1, 622320, Note_on_c, 0, 67, 0
1, 622320, Note_on_c, 0, 65, 56
1, 622440, Note_on_c, 0, 65, 0
1, 622440, Note_on_c, 0, 64, 55
1, 622560, Note_on_c, 0, 64, 0
1, 622560, Note_on_c, 0, 65, 51
1, 622680, Note_on_c, 0, 65, 0
1, 622680, Note_on_c, 0, 67, 52
1, 622800, Note_on_c, 0, 67, 0
1, 622800, Note_on_c, 0, 69, 53
1, 622920, Tempo, 395596
1, 622920, Note_on_c, 0, 69, 0
1, 622920, Note_on_c, 0, 70, 54
1, 623040, Tempo, 373902
1, 623040, Note_on_c, 0, 70, 0
1, 623040, Note_on_c, 0, 57, 0
1, 623040, Note_on_c, 0, 53, 0
1, 623040, Note_on_c, 0, 72, 56
1, 623040, Note_on_c, 0, 55, 39
1, 623040, Note_on_c, 0, 58, 46
1, 623040, Note_on_c, 0, 52, 39
1, 623160, Note_on_c, 0, 72, 0
1, 623160, Note_on_c, 0, 74, 57
1, 623280, Note_on_c, 0, 74, 0
1, 623280, Note_on_c, 0, 72, 57
1, 623400, Note_on_c, 0, 72, 0
1, 623400, Note_on_c, 0, 71, 56
1, 623520, Tempo, 370325
1, 623520, Note_on_c, 0, 71, 0
1, 623520, Note_on_c, 0, 72, 56
1, 623640, Note_on_c, 0, 72, 0
1, 623640, Note_on_c, 0, 70, 56
1, 623680, Tempo, 371517
1, 623760, Note_on_c, 0, 70, 0
1, 623760, Note_on_c, 0, 69, 56
1, 623800, Tempo, 372694
1, 623880, Note_on_c, 0, 69, 0
1, 623880, Note_on_c, 0, 67, 56
1, 623920, Tempo, 373902
1, 624000, Note_on_c, 0, 67, 0
1, 624000, Note_on_c, 0, 52, 0
1, 624000, Note_on_c, 0, 48, 0
1, 624000, Note_on_c, 0, 55, 0
1, 624000, Note_on_c, 0, 58, 0
1, 624000, Note_on_c, 0, 69, 57
1, 624000, Note_on_c, 0, 53, 48
1, 624000, Note_on_c, 0, 57, 48
1, 624040, Tempo, 375117
1, 624120, Note_on_c, 0, 69, 0
1, 624120, Note_on_c, 0, 70, 57
1, 624160, Tempo, 376341
1, 624240, Note_on_c, 0, 70, 0
1, 624240, Note_on_c, 0, 69, 57
1, 624280, Tempo, 377572
1, 624360, Note_on_c, 0, 69, 0
1, 624360, Note_on_c, 0, 67, 53
1, 624400, Tempo, 378788
1, 624480, Note_on_c, 0, 67, 0
1, 624480, Note_on_c, 0, 57, 0
1, 624480, Note_on_c, 0, 53, 0
1, 624480, Note_on_c, 0, 65, 56
1, 624520, Tempo, 380035
1, 624600, Note_on_c, 0, 65, 0
1, 624600, Note_on_c, 0, 64, 52
1, 624640, Tempo, 381291
1, 624720, Note_on_c, 0, 64, 0
1, 624720, Note_on_c, 0, 65, 56
1, 624760, Tempo, 382555
1, 624840, Note_on_c, 0, 65, 0
1, 624840, Note_on_c, 0, 67, 52
1, 624880, Tempo, 383803
1, 624960, Tempo, 387672
1, 624960, Note_on_c, 0, 67, 0
1, 624960, Note_on_c, 0, 57, 45
1, 624960, Note_on_c, 0, 69, 59
1, 624960, Note_on_c, 0, 41, 39
1, 624960, Note_on_c, 0, 50, 47
1, 624960, Note_on_c, 0, 45, 39
1, 625172, Control_c, 0, 64, 127
1, 625440, Note_on_c, 0, 69, 0
1, 625440, Note_on_c, 0, 65, 52
1, 625680, Tempo, 402468
1, 625680, Note_on_c, 0, 65, 0
1, 625680, Note_on_c, 0, 62, 52
1, 625920, Tempo, 388954
1, 625920, Note_on_c, 0, 62, 0
1, 625920, Note_on_c, 0, 50, 0
1, 625920, Note_on_c, 0, 57, 0
1, 625920, Note_on_c, 0, 41, 0
1, 625920, Note_on_c, 0, 45, 0
1, 625920, Note_on_c, 0, 55, 45
1, 625920, Note_on_c, 0, 67, 57
1, 625920, Note_on_c, 0, 48, 39
1, 625920, Note_on_c, 0, 43, 39
1, 625920, Note_on_c, 0, 52, 46
1, 625933, Control_c, 0, 64, 0
1, 626160, Control_c, 0, 64, 127
1, 626400, Note_on_c, 0, 67, 0
1, 626400, Note_on_c, 0, 64, 52
1, 626640, Tempo, 402468
1, 626640, Note_on_c, 0, 64, 0
1, 626640, Note_on_c, 0, 60, 52
1, 626880, Tempo, 388954
1, 626880, Note_on_c, 0, 60, 0
1, 626880, Note_on_c, 0, 52, 0
1, 626880, Note_on_c, 0, 48, 0
1, 626880, Note_on_c, 0, 65, 57
1, 626880, Note_on_c, 0, 50, 37
1, 626880, Note_on_c, 0, 53, 44
1, 626899, Control_c, 0, 64, 0
1, 627092, Control_c, 0, 64, 127
1, 627360, Tempo, 394244
1, 627360, Note_on_c, 0, 65, 0
1, 627360, Note_on_c, 0, 62, 52
1, 627600, Note_on_c, 0, 62, 0
1, 627600, Note_on_c, 0, 59, 52
1, 627840, Tempo, 395596
1, 627840, Note_on_c, 0, 59, 0
1, 627840, Note_on_c, 0, 50, 0
1, 627840, Note_on_c, 0, 43, 0
1, 627840, Note_on_c, 0, 55, 0
1, 627840, Note_on_c, 0, 53, 0
1, 627840, Note_on_c, 0, 55, 51
1, 627840, Note_on_c, 0, 60, 55
1, 627840, Note_on_c, 0, 48, 37
1, 627840, Note_on_c, 0, 52, 44
1, 627851, Control_c, 0, 64, 0
1, 628080, Tempo, 409584
1, 628320, Tempo, 394244
1, 628320, Note_on_c, 0, 52, 0
1, 628320, Note_on_c, 0, 55, 0
1, 628320, Note_on_c, 0, 60, 0
1, 628320, Note_on_c, 0, 48, 0
1, 628320, Note_on_c, 0, 72, 68
1, 628320, Note_on_c, 0, 48, 51
1, 628320, Note_on_c, 0, 40, 42
1, 628560, Note_on_c, 0, 72, 0
1, 628560, Note_on_c, 0, 71, 64
1, 628800, Note_on_c, 0, 71, 0
1, 628800, Note_on_c, 0, 40, 0
1, 628800, Note_on_c, 0, 69, 66
1, 628800, Note_on_c, 0, 41, 42
1, 629040, Note_on_c, 0, 48, 0
1, 629040, Note_on_c, 0, 50, 49
1, 629280, Note_on_c, 0, 50, 0
1, 629280, Note_on_c, 0, 69, 0
1, 629280, Note_on_c, 0, 65, 61
1, 629280, Note_on_c, 0, 52, 51
1, 629520, Tempo, 408136
1, 629520, Note_on_c, 0, 52, 0
1, 629520, Note_on_c, 0, 65, 0
1, 629520, Note_on_c, 0, 62, 54
1, 629520, Note_on_c, 0, 53, 55
1, 629760, Tempo, 395596
1, 629760, Note_on_c, 0, 53, 0
1, 629760, Note_on_c, 0, 62, 0
1, 629760, Note_on_c, 0, 41, 0
1, 629760, Note_on_c, 0, 67, 51
1, 629760, Note_on_c, 0, 43, 35
1, 629760, Note_on_c, 0, 52, 35
1, 629760, Note_on_c, 0, 55, 41
1, 629887, Control_c, 0, 64, 127
1, 630240, Note_on_c, 0, 67, 0
1, 630240, Note_on_c, 0, 64, 46
1, 630480, Note_on_c, 0, 64, 0
1, 630480, Note_on_c, 0, 60, 46
1, 630720, Note_on_c, 0, 60, 0
1, 630720, Note_on_c, 0, 55, 0
1, 630720, Note_on_c, 0, 52, 0
1, 630720, Note_on_c, 0, 65, 51
1, 630720, Note_on_c, 0, 50, 33
1, 630720, Note_on_c, 0, 53, 39
1, 630737, Control_c, 0, 64, 0
1, 630890, Control_c, 0, 64, 127
1, 631200, Note_on_c, 0, 65, 0
1, 631200, Note_on_c, 0, 62, 46
1, 631440, Note_on_c, 0, 62, 0
1, 631440, Note_on_c, 0, 59, 46
1, 631680, Tempo, 408163
1, 631680, Note_on_c, 0, 59, 0
1, 631680, Note_on_c, 0, 43, 0
1, 631680, Note_on_c, 0, 50, 0
1, 631680, Note_on_c, 0, 53, 0
1, 631680, Note_on_c, 0, 60, 55
1, 631680, Note_on_c, 0, 52, 44
1, 631680, Note_on_c, 0, 48, 37
1, 631699, Control_c, 0, 64, 0
1, 631920, Tempo, 380952
1, 632160, Tempo, 395596
1, 632160, Note_on_c, 0, 48, 0
1, 632160, Note_on_c, 0, 52, 0
1, 632160, Note_on_c, 0, 60, 0
1, 632160, Note_on_c, 0, 77, 68
1, 632160, Note_on_c, 0, 45, 42
1, 632160, Note_on_c, 0, 53, 51
1, 632400, Note_on_c, 0, 77, 0
1, 632400, Note_on_c, 0, 76, 64
1, 632640, Note_on_c, 0, 76, 0
1, 632640, Note_on_c, 0, 45, 0
1, 632640, Note_on_c, 0, 74, 66
1, 632640, Note_on_c, 0, 46, 42
1, 632880, Note_on_c, 0, 53, 0
1, 632880, Note_on_c, 0, 55, 49
1, 633120, Note_on_c, 0, 55, 0
1, 633120, Note_on_c, 0, 74, 0
1, 633120, Note_on_c, 0, 70, 61
1, 633120, Note_on_c, 0, 57, 51
1, 633360, Tempo, 412485
1, 633360, Note_on_c, 0, 57, 0
1, 633360, Note_on_c, 0, 70, 0
1, 633360, Note_on_c, 0, 67, 54
1, 633360, Note_on_c, 0, 58, 55
1, 633600, Tempo, 396957
1, 633600, Note_on_c, 0, 58, 0
1, 633600, Note_on_c, 0, 67, 0
1, 633600, Note_on_c, 0, 46, 0
1, 633600, Note_on_c, 0, 72, 51
1, 633600, Note_on_c, 0, 60, 41
1, 633600, Note_on_c, 0, 57, 35
1, 633600, Note_on_c, 0, 48, 35
1, 633840, Control_c, 0, 64, 127
1, 634080, Note_on_c, 0, 72, 0
1, 634080, Note_on_c, 0, 69, 46
1, 634320, Tempo, 409584
1, 634320, Note_on_c, 0, 69, 0
1, 634320, Note_on_c, 0, 65, 46
1, 634560, Tempo, 398327
1, 634560, Note_on_c, 0, 65, 0
1, 634560, Note_on_c, 0, 60, 0
1, 634560, Note_on_c, 0, 57, 0
1, 634560, Note_on_c, 0, 70, 51
1, 634560, Note_on_c, 0, 55, 33
1, 634560, Note_on_c, 0, 58, 39
1, 634574, Control_c, 0, 64, 0
1, 634744, Control_c, 0, 64, 127
1, 635040, Note_on_c, 0, 70, 0
1, 635040, Note_on_c, 0, 67, 46
1, 635280, Tempo, 411043
1, 635280, Note_on_c, 0, 67, 0
1, 635280, Note_on_c, 0, 64, 46
1, 635520, Note_on_c, 0, 64, 0
1, 635520, Note_on_c, 0, 48, 0
1, 635520, Note_on_c, 0, 55, 0
1, 635520, Note_on_c, 0, 58, 0
1, 635520, Note_on_c, 0, 65, 55
1, 635520, Note_on_c, 0, 56, 44
1, 635520, Note_on_c, 0, 53, 37
1, 635535, Control_c, 0, 64, 0
1, 635760, Tempo, 413964
1, 636000, Tempo, 395596
1, 636000, Note_on_c, 0, 53, 0
1, 636000, Note_on_c, 0, 56, 0
1, 636000, Note_on_c, 0, 65, 0
1, 636000, Note_on_c, 0, 77, 67
1, 636000, Note_on_c, 0, 44, 42
1, 636000, Note_on_c, 0, 53, 51
1, 636240, Note_on_c, 0, 77, 0
1, 636240, Note_on_c, 0, 75, 63
1, 636480, Note_on_c, 0, 75, 0
1, 636480, Note_on_c, 0, 44, 0
1, 636480, Note_on_c, 0, 73, 66
1, 636480, Note_on_c, 0, 46, 42
1, 636720, Note_on_c, 0, 53, 0
1, 636720, Note_on_c, 0, 55, 49
1, 636960, Note_on_c, 0, 55, 0
1, 636960, Note_on_c, 0, 73, 0
1, 636960, Note_on_c, 0, 70, 61
1, 636960, Note_on_c, 0, 56, 51
1, 637200, Tempo, 412485
1, 637200, Note_on_c, 0, 56, 0
1, 637200, Note_on_c, 0, 70, 0
1, 637200, Note_on_c, 0, 67, 54
1, 637200, Note_on_c, 0, 58, 55
1, 637440, Tempo, 396957
1, 637440, Note_on_c, 0, 58, 0
1, 637440, Note_on_c, 0, 67, 0
1, 637440, Note_on_c, 0, 46, 0
1, 637440, Note_on_c, 0, 72, 51
1, 637440, Note_on_c, 0, 48, 35
1, 637440, Note_on_c, 0, 60, 41
1, 637440, Note_on_c, 0, 56, 35
1, 637669, Control_c, 0, 64, 127
1, 637920, Note_on_c, 0, 72, 0
1, 637920, Note_on_c, 0, 68, 46
1, 638160, Tempo, 409584
1, 638160, Note_on_c, 0, 68, 0
1, 638160, Note_on_c, 0, 65, 46
1, 638400, Tempo, 398327
1, 638400, Note_on_c, 0, 65, 0
1, 638400, Note_on_c, 0, 56, 0
1, 638400, Note_on_c, 0, 60, 0
1, 638400, Note_on_c, 0, 70, 51
1, 638400, Note_on_c, 0, 55, 33
1, 638400, Note_on_c, 0, 58, 39
1, 638415, Control_c, 0, 64, 0
1, 638572, Control_c, 0, 64, 127
1, 638880, Note_on_c, 0, 70, 0
1, 638880, Note_on_c, 0, 67, 46
1, 639120, Tempo, 411043
1, 639120, Note_on_c, 0, 67, 0
1, 639120, Note_on_c, 0, 64, 46
1, 639360, Tempo, 373902
1, 639360, Note_on_c, 0, 64, 0
1, 639360, Note_on_c, 0, 48, 0
1, 639360, Note_on_c, 0, 55, 0
1, 639360, Note_on_c, 0, 58, 0
1, 639360, Note_on_c, 0, 65, 40
1, 639360, Control_c, 0, 91, 127
1, 639360, Text_t, "bdca426d104a26ac9dcb070447587523"
1, 639360, Note_on_c, 0, 49, 25
1, 639360, Note_on_c, 0, 56, 28
1, 639360, Note_on_c, 0, 53, 25
1, 639371, Control_c, 0, 64, 0
1, 639480, Note_on_c, 0, 53, 0
1, 639480, Note_on_c, 0, 56, 0
1, 639480, Note_on_c, 0, 49, 0
1, 639600, Note_on_c, 0, 65, 0
1, 639600, Note_on_c, 0, 49, 28
1, 639600, Note_on_c, 0, 53, 33
1, 639600, Note_on_c, 0, 37, 22
1, 639600, Note_on_c, 0, 44, 26
1, 639720, Note_on_c, 0, 44, 0
1, 639720, Note_on_c, 0, 49, 0
1, 639720, Note_on_c, 0, 53, 0
1, 639720, Note_on_c, 0, 37, 0
1, 639840, Tempo, 371517
1, 639840, Note_on_c, 0, 49, 28
1, 639840, Note_on_c, 0, 53, 33
1, 639840, Note_on_c, 0, 44, 26
1, 639840, Note_on_c, 0, 37, 22
1, 639960, Note_on_c, 0, 37, 0
1, 639960, Note_on_c, 0, 49, 0
1, 639960, Note_on_c, 0, 53, 0
1, 639960, Note_on_c, 0, 44, 0
1, 640080, Note_on_c, 0, 49, 28
1, 640080, Note_on_c, 0, 53, 34
1, 640080, Note_on_c, 0, 44, 27
1, 640080, Note_on_c, 0, 37, 22
1, 640200, Note_on_c, 0, 37, 0
1, 640200, Note_on_c, 0, 49, 0
1, 640200, Note_on_c, 0, 53, 0
1, 640200, Note_on_c, 0, 44, 0
1, 640320, Note_on_c, 0, 49, 28
1, 640320, Note_on_c, 0, 53, 34
1, 640320, Note_on_c, 0, 37, 22
1, 640320, Note_on_c, 0, 44, 27
1, 640340, Tempo, 375117
1, 640440, Note_on_c, 0, 44, 0
1, 640440, Note_on_c, 0, 49, 0
1, 640440, Note_on_c, 0, 53, 0
1, 640440, Note_on_c, 0, 37, 0
1, 640560, Note_on_c, 0, 49, 28
1, 640560, Note_on_c, 0, 53, 34
1, 640560, Note_on_c, 0, 44, 28
1, 640560, Note_on_c, 0, 37, 23
1, 640680, Note_on_c, 0, 37, 0
1, 640680, Note_on_c, 0, 49, 0
1, 640680, Note_on_c, 0, 53, 0
1, 640680, Note_on_c, 0, 44, 0
1, 640800, Tempo, 372694
1, 640800, Note_on_c, 0, 49, 29
1, 640800, Note_on_c, 0, 53, 35
1, 640800, Note_on_c, 0, 44, 28
1, 640800, Note_on_c, 0, 37, 23
1, 640920, Note_on_c, 0, 37, 0
1, 640920, Note_on_c, 0, 49, 0
1, 640920, Note_on_c, 0, 53, 0
1, 640920, Note_on_c, 0, 44, 0
1, 641040, Note_on_c, 0, 49, 29
1, 641040, Note_on_c, 0, 53, 35
1, 641040, Note_on_c, 0, 37, 24
1, 641040, Note_on_c, 0, 44, 29
1, 641160, Note_on_c, 0, 44, 0
1, 641160, Note_on_c, 0, 49, 0
1, 641160, Note_on_c, 0, 53, 0
1, 641160, Note_on_c, 0, 37, 0
1, 641280, Note_on_c, 0, 49, 30
1, 641280, Note_on_c, 0, 53, 36
1, 641280, Note_on_c, 0, 37, 25
1, 641280, Note_on_c, 0, 44, 30
1, 641320, Tempo, 373902
1, 641400, Note_on_c, 0, 44, 0
1, 641400, Note_on_c, 0, 49, 0
1, 641400, Note_on_c, 0, 53, 0
1, 641400, Note_on_c, 0, 37, 0
1, 641520, Note_on_c, 0, 49, 30
1, 641520, Note_on_c, 0, 53, 36
1, 641520, Note_on_c, 0, 44, 27
1, 641520, Note_on_c, 0, 37, 22
1, 641640, Note_on_c, 0, 37, 0
1, 641640, Note_on_c, 0, 49, 0
1, 641640, Note_on_c, 0, 53, 0
1, 641640, Note_on_c, 0, 44, 0
1, 641760, Tempo, 372694
1, 641760, Note_on_c, 0, 49, 31
1, 641760, Note_on_c, 0, 53, 37
1, 641760, Note_on_c, 0, 37, 23
1, 641760, Note_on_c, 0, 44, 28
1, 641880, Note_on_c, 0, 44, 0
1, 641880, Note_on_c, 0, 49, 0
1, 641880, Note_on_c, 0, 53, 0
1, 641880, Note_on_c, 0, 37, 0
1, 642000, Note_on_c, 0, 49, 32
1, 642000, Note_on_c, 0, 53, 38
1, 642000, Note_on_c, 0, 44, 29
1, 642000, Note_on_c, 0, 37, 24
1, 642120, Note_on_c, 0, 37, 0
1, 642120, Note_on_c, 0, 49, 0
1, 642120, Note_on_c, 0, 53, 0
1, 642120, Note_on_c, 0, 44, 0
1, 642240, Tempo, 373902
1, 642240, Note_on_c, 0, 49, 33
1, 642240, Note_on_c, 0, 53, 39
1, 642240, Note_on_c, 0, 37, 25
1, 642240, Note_on_c, 0, 44, 30
1, 642360, Note_on_c, 0, 44, 0
1, 642360, Note_on_c, 0, 49, 0
1, 642360, Note_on_c, 0, 53, 0
1, 642360, Note_on_c, 0, 37, 0
1, 642480, Note_on_c, 0, 49, 34
1, 642480, Note_on_c, 0, 53, 40
1, 642480, Note_on_c, 0, 37, 25
1, 642480, Note_on_c, 0, 44, 30
1, 642600, Note_on_c, 0, 44, 0
1, 642600, Note_on_c, 0, 49, 0
1, 642600, Note_on_c, 0, 53, 0
1, 642600, Note_on_c, 0, 37, 0
1, 642720, Note_on_c, 0, 51, 34
1, 642720, Note_on_c, 0, 55, 40
1, 642720, Note_on_c, 0, 37, 25
1, 642720, Note_on_c, 0, 46, 30
1, 642840, Note_on_c, 0, 46, 0
1, 642840, Note_on_c, 0, 51, 0
1, 642840, Note_on_c, 0, 55, 0
1, 642840, Note_on_c, 0, 37, 0
1, 642960, Note_on_c, 0, 51, 34
1, 642960, Note_on_c, 0, 55, 40
1, 642960, Note_on_c, 0, 37, 25
1, 642960, Note_on_c, 0, 46, 30
1, 643080, Note_on_c, 0, 46, 0
1, 643080, Note_on_c, 0, 51, 0
1, 643080, Note_on_c, 0, 55, 0
1, 643080, Note_on_c, 0, 37, 0
1, 643200, Tempo, 373902
1, 643200, Note_on_c, 0, 56, 46
1, 643200, Note_on_c, 0, 36, 25
1, 643200, Note_on_c, 0, 44, 30
1, 643200, Note_on_c, 0, 39, 25
1, 643380, Note_on_c, 0, 39, 0
1, 643380, Note_on_c, 0, 44, 0
1, 643380, Note_on_c, 0, 36, 0
1, 643440, Note_on_c, 0, 36, 25
1, 643440, Note_on_c, 0, 39, 25
1, 643440, Note_on_c, 0, 44, 30
1, 643620, Note_on_c, 0, 44, 0
1, 643620, Note_on_c, 0, 39, 0
1, 643620, Note_on_c, 0, 36, 0
1, 643680, Note_on_c, 0, 36, 25
1, 643680, Note_on_c, 0, 39, 25
1, 643680, Note_on_c, 0, 44, 30
1, 643860, Note_on_c, 0, 44, 0
1, 643860, Note_on_c, 0, 39, 0
1, 643860, Note_on_c, 0, 36, 0
1, 643920, Note_on_c, 0, 56, 0
1, 643920, Note_on_c, 0, 60, 40
1, 643920, Note_on_c, 0, 36, 25
1, 643920, Note_on_c, 0, 39, 25
1, 643920, Note_on_c, 0, 44, 30
1, 644040, Note_on_c, 0, 60, 0
1, 644040, Note_on_c, 0, 58, 40
1, 644100, Note_on_c, 0, 36, 0
1, 644100, Note_on_c, 0, 44, 0
1, 644100, Note_on_c, 0, 39, 0
1, 644160, Note_on_c, 0, 58, 0
1, 644160, Note_on_c, 0, 56, 45
1, 644160, Note_on_c, 0, 36, 25
1, 644160, Note_on_c, 0, 39, 25
1, 644160, Note_on_c, 0, 44, 30
1, 644280, Note_on_c, 0, 56, 0
1, 644340, Note_on_c, 0, 36, 0
1, 644340, Note_on_c, 0, 39, 0
1, 644340, Note_on_c, 0, 44, 0
1, 644400, Note_on_c, 0, 44, 30
1, 644400, Note_on_c, 0, 39, 25
1, 644400, Note_on_c, 0, 36, 25
1, 644580, Note_on_c, 0, 36, 0
1, 644580, Note_on_c, 0, 39, 0
1, 644580, Note_on_c, 0, 44, 0
1, 644640, Note_on_c, 0, 36, 25
1, 644640, Note_on_c, 0, 39, 25
1, 644640, Note_on_c, 0, 44, 30
1, 644820, Note_on_c, 0, 44, 0
1, 644820, Note_on_c, 0, 39, 0
1, 644820, Note_on_c, 0, 36, 0
1, 644880, Tempo, 383803
1, 644880, Note_on_c, 0, 36, 25
1, 644880, Note_on_c, 0, 39, 25
1, 644880, Note_on_c, 0, 44, 30
1, 645060, Note_on_c, 0, 44, 0
1, 645060, Note_on_c, 0, 39, 0
1, 645060, Note_on_c, 0, 36, 0
1, 645060, Note_on_c, 0, 86, 72
1, 645120, Tempo, 373902
1, 645120, Note_on_c, 0, 86, 0
1, 645120, Note_on_c, 0, 87, 89
1, 645120, Note_on_c, 0, 41, 38
1, 645120, Note_on_c, 0, 39, 38
1, 645120, Note_on_c, 0, 36, 38
1, 645120, Note_on_c, 0, 45, 47
1, 645300, Note_on_c, 0, 45, 0
1, 645300, Note_on_c, 0, 39, 0
1, 645300, Note_on_c, 0, 36, 0
1, 645300, Note_on_c, 0, 41, 0
1, 645360, Note_on_c, 0, 39, 38
1, 645360, Note_on_c, 0, 36, 38
1, 645360, Note_on_c, 0, 45, 47
1, 645360, Note_on_c, 0, 41, 38
1, 645540, Note_on_c, 0, 41, 0
1, 645540, Note_on_c, 0, 36, 0
1, 645540, Note_on_c, 0, 45, 0
1, 645540, Note_on_c, 0, 39, 0
1, 645600, Note_on_c, 0, 39, 38
1, 645600, Note_on_c, 0, 36, 38
1, 645600, Note_on_c, 0, 41, 38
1, 645600, Note_on_c, 0, 45, 47
1, 645720, Note_on_c, 0, 87, 0
1, 645720, Note_on_c, 0, 85, 75
1, 645780, Note_on_c, 0, 41, 0
1, 645780, Note_on_c, 0, 45, 0
1, 645780, Note_on_c, 0, 39, 0
1, 645780, Note_on_c, 0, 36, 0
1, 645840, Note_on_c, 0, 85, 0
1, 645840, Note_on_c, 0, 84, 73
1, 645840, Note_on_c, 0, 41, 38
1, 645840, Note_on_c, 0, 39, 38
1, 645840, Note_on_c, 0, 36, 38
1, 645840, Note_on_c, 0, 45, 47
1, 645960, Note_on_c, 0, 84, 0
1, 645960, Note_on_c, 0, 82, 70
1, 646020, Note_on_c, 0, 36, 0
1, 646020, Note_on_c, 0, 45, 0
1, 646020, Note_on_c, 0, 41, 0
1, 646020, Note_on_c, 0, 39, 0
1, 646080, Tempo, 373902
1, 646080, Note_on_c, 0, 82, 0
1, 646080, Note_on_c, 0, 81, 69
1, 646080, Note_on_c, 0, 41, 38
1, 646080, Note_on_c, 0, 45, 47
1, 646080, Note_on_c, 0, 36, 38
1, 646080, Note_on_c, 0, 39, 38
1, 646260, Note_on_c, 0, 39, 0
1, 646260, Note_on_c, 0, 45, 0
1, 646260, Note_on_c, 0, 36, 0
1, 646260, Note_on_c, 0, 41, 0
1, 646320, Note_on_c, 0, 81, 0
1, 646320, Note_on_c, 0, 36, 37
1, 646320, Note_on_c, 0, 39, 37
1, 646320, Note_on_c, 0, 41, 37
1, 646320, Note_on_c, 0, 45, 45
1, 646500, Note_on_c, 0, 45, 0
1, 646500, Note_on_c, 0, 36, 0
1, 646500, Note_on_c, 0, 39, 0
1, 646500, Note_on_c, 0, 41, 0
1, 646560, Note_on_c, 0, 41, 37
1, 646560, Note_on_c, 0, 39, 37
1, 646560, Note_on_c, 0, 36, 37
1, 646560, Note_on_c, 0, 45, 45
1, 646740, Note_on_c, 0, 45, 0
1, 646740, Note_on_c, 0, 41, 0
1, 646740, Note_on_c, 0, 39, 0
1, 646740, Note_on_c, 0, 36, 0
1, 646800, Tempo, 381291
1, 646800, Note_on_c, 0, 41, 37
1, 646800, Note_on_c, 0, 45, 45
1, 646800, Note_on_c, 0, 39, 37
1, 646800, Note_on_c, 0, 36, 37
1, 646980, Note_on_c, 0, 36, 0
1, 646980, Note_on_c, 0, 41, 0
1, 646980, Note_on_c, 0, 45, 0
1, 646980, Note_on_c, 0, 39, 0
1, 647040, Tempo, 373902
1, 647040, Note_on_c, 0, 58, 46
1, 647040, Note_on_c, 0, 41, 25
1, 647040, Note_on_c, 0, 37, 25
1, 647040, Note_on_c, 0, 46, 30
1, 647220, Note_on_c, 0, 46, 0
1, 647220, Note_on_c, 0, 37, 0
1, 647220, Note_on_c, 0, 41, 0
1, 647280, Note_on_c, 0, 41, 25
1, 647280, Note_on_c, 0, 37, 25
1, 647280, Note_on_c, 0, 46, 30
1, 647460, Note_on_c, 0, 46, 0
1, 647460, Note_on_c, 0, 37, 0
1, 647460, Note_on_c, 0, 41, 0
1, 647520, Note_on_c, 0, 41, 25
1, 647520, Note_on_c, 0, 37, 25
1, 647520, Note_on_c, 0, 46, 30
1, 647700, Note_on_c, 0, 46, 0
1, 647700, Note_on_c, 0, 37, 0
1, 647700, Note_on_c, 0, 41, 0
1, 647760, Tempo, 367963
1, 647760, Note_on_c, 0, 58, 0
1, 647760, Note_on_c, 0, 61, 40
1, 647760, Note_on_c, 0, 41, 25
1, 647760, Note_on_c, 0, 37, 25
1, 647760, Note_on_c, 0, 46, 30
1, 647880, Note_on_c, 0, 61, 0
1, 647880, Note_on_c, 0, 60, 40
1, 647940, Note_on_c, 0, 41, 0
1, 647940, Note_on_c, 0, 46, 0
1, 647940, Note_on_c, 0, 37, 0
1, 648000, Tempo, 373902
1, 648000, Note_on_c, 0, 60, 0
1, 648000, Note_on_c, 0, 58, 45
1, 648000, Note_on_c, 0, 46, 30
1, 648000, Note_on_c, 0, 41, 25
1, 648000, Note_on_c, 0, 37, 25
1, 648120, Note_on_c, 0, 58, 0
1, 648180, Note_on_c, 0, 46, 0
1, 648180, Note_on_c, 0, 41, 0
1, 648180, Note_on_c, 0, 37, 0
1, 648240, Note_on_c, 0, 37, 25
1, 648240, Note_on_c, 0, 46, 30
1, 648240, Note_on_c, 0, 41, 25
1, 648420, Note_on_c, 0, 41, 0
1, 648420, Note_on_c, 0, 46, 0
1, 648420, Note_on_c, 0, 37, 0
1, 648480, Note_on_c, 0, 37, 25
1, 648480, Note_on_c, 0, 46, 30
1, 648480, Note_on_c, 0, 41, 25
1, 648660, Note_on_c, 0, 41, 0
1, 648660, Note_on_c, 0, 46, 0
1, 648660, Note_on_c, 0, 37, 0
1, 648720, Tempo, 383803
1, 648720, Note_on_c, 0, 37, 25
1, 648720, Note_on_c, 0, 46, 30
1, 648720, Note_on_c, 0, 41, 25
1, 648900, Note_on_c, 0, 41, 0
1, 648900, Note_on_c, 0, 46, 0
1, 648900, Note_on_c, 0, 37, 0
1, 648900, Note_on_c, 0, 88, 72
1, 648960, Tempo, 373902
1, 648960, Note_on_c, 0, 88, 0
1, 648960, Note_on_c, 0, 89, 89
1, 648960, Note_on_c, 0, 47, 47
1, 648960, Note_on_c, 0, 41, 38
1, 648960, Note_on_c, 0, 38, 38
1, 649140, Note_on_c, 0, 38, 0
1, 649140, Note_on_c, 0, 41, 0
1, 649140, Note_on_c, 0, 47, 0
1, 649200, Note_on_c, 0, 41, 38
1, 649200, Note_on_c, 0, 38, 38
1, 649200, Note_on_c, 0, 47, 47
1, 649380, Note_on_c, 0, 47, 0
1, 649380, Note_on_c, 0, 38, 0
1, 649380, Note_on_c, 0, 41, 0
1, 649440, Tempo, 369140
1, 649440, Note_on_c, 0, 41, 38
1, 649440, Note_on_c, 0, 38, 38
1, 649440, Note_on_c, 0, 47, 47
1, 649560, Note_on_c, 0, 89, 0
1, 649560, Note_on_c, 0, 87, 75
1, 649620, Note_on_c, 0, 41, 0
1, 649620, Note_on_c, 0, 47, 0
1, 649620, Note_on_c, 0, 38, 0
1, 649680, Note_on_c, 0, 87, 0
1, 649680, Note_on_c, 0, 86, 73
1, 649680, Note_on_c, 0, 41, 38
1, 649680, Note_on_c, 0, 38, 38
1, 649680, Note_on_c, 0, 47, 47
1, 649800, Note_on_c, 0, 86, 0
1, 649800, Note_on_c, 0, 84, 70
1, 649860, Note_on_c, 0, 41, 0
1, 649860, Note_on_c, 0, 47, 0
1, 649860, Note_on_c, 0, 38, 0
1, 649920, Tempo, 373902
1, 649920, Note_on_c, 0, 84, 0
1, 649920, Note_on_c, 0, 83, 69
1, 649920, Note_on_c, 0, 41, 37
1, 649920, Note_on_c, 0, 38, 37
1, 649920, Note_on_c, 0, 47, 45
1, 650100, Note_on_c, 0, 47, 0
1, 650100, Note_on_c, 0, 38, 0
1, 650100, Note_on_c, 0, 41, 0
1, 650160, Note_on_c, 0, 83, 0
1, 650160, Note_on_c, 0, 47, 45
1, 650160, Note_on_c, 0, 41, 37
1, 650160, Note_on_c, 0, 38, 37
1, 650340, Note_on_c, 0, 38, 0
1, 650340, Note_on_c, 0, 41, 0
1, 650340, Note_on_c, 0, 47, 0
1, 650400, Note_on_c, 0, 41, 37
1, 650400, Note_on_c, 0, 47, 45
1, 650400, Note_on_c, 0, 38, 37
1, 650580, Note_on_c, 0, 38, 0
1, 650580, Note_on_c, 0, 47, 0
1, 650580, Note_on_c, 0, 41, 0
1, 650640, Tempo, 381291
1, 650640, Note_on_c, 0, 38, 37
1, 650640, Note_on_c, 0, 41, 37
1, 650640, Note_on_c, 0, 47, 45
1, 650820, Note_on_c, 0, 47, 0
1, 650820, Note_on_c, 0, 41, 0
1, 650820, Note_on_c, 0, 38, 0
1, 650880, Tempo, 373902
1, 650880, Note_on_c, 0, 60, 82
1, 650880, Note_on_c, 0, 43, 37
1, 650880, Note_on_c, 0, 39, 37
1, 650880, Note_on_c, 0, 47, 45
1, 651060, Note_on_c, 0, 47, 0
1, 651060, Note_on_c, 0, 39, 0
1, 651060, Note_on_c, 0, 43, 0
1, 651120, Tempo, 365653
1, 651120, Note_on_c, 0, 60, 0
1, 651120, Note_on_c, 0, 63, 70
1, 651120, Note_on_c, 0, 43, 37
1, 651120, Note_on_c, 0, 39, 37
1, 651120, Note_on_c, 0, 47, 45
1, 651240, Note_on_c, 0, 63, 0
1, 651240, Note_on_c, 0, 62, 70
1, 651300, Note_on_c, 0, 43, 0
1, 651300, Note_on_c, 0, 47, 0
1, 651300, Note_on_c, 0, 39, 0
1, 651360, Tempo, 373902
1, 651360, Note_on_c, 0, 62, 0
1, 651360, Note_on_c, 0, 60, 74
1, 651360, Note_on_c, 0, 43, 37
1, 651360, Note_on_c, 0, 39, 37
1, 651360, Note_on_c, 0, 48, 45
1, 651540, Note_on_c, 0, 48, 0
1, 651540, Note_on_c, 0, 39, 0
1, 651540, Note_on_c, 0, 43, 0
1, 651600, Tempo, 391594
1, 651600, Note_on_c, 0, 60, 0
1, 651600, Note_on_c, 0, 39, 37
1, 651600, Note_on_c, 0, 48, 45
1, 651600, Note_on_c, 0, 43, 37
1, 651780, Note_on_c, 0, 43, 0
1, 651780, Note_on_c, 0, 48, 0
1, 651780, Note_on_c, 0, 39, 0
1, 651840, Tempo, 367963
1, 651840, Note_on_c, 0, 80, 78
1, 651840, Note_on_c, 0, 41, 37
1, 651840, Note_on_c, 0, 48, 45
1, 651840, Note_on_c, 0, 44, 37
1, 651960, Note_on_c, 0, 80, 0
1, 651960, Note_on_c, 0, 79, 75
1, 652020, Note_on_c, 0, 41, 0
1, 652020, Note_on_c, 0, 44, 0
1, 652020, Note_on_c, 0, 48, 0
1, 652080, Note_on_c, 0, 79, 0
1, 652080, Note_on_c, 0, 77, 73
1, 652080, Note_on_c, 0, 41, 38
1, 652080, Note_on_c, 0, 48, 46
1, 652080, Note_on_c, 0, 44, 38
1, 652200, Note_on_c, 0, 77, 0
1, 652200, Note_on_c, 0, 75, 70
1, 652260, Note_on_c, 0, 41, 0
1, 652260, Note_on_c, 0, 44, 0
1, 652260, Note_on_c, 0, 48, 0
1, 652320, Tempo, 373902
1, 652320, Note_on_c, 0, 75, 0
1, 652320, Note_on_c, 0, 74, 74
1, 652320, Note_on_c, 0, 44, 38
1, 652320, Note_on_c, 0, 41, 38
1, 652320, Note_on_c, 0, 50, 46
1, 652500, Note_on_c, 0, 50, 0
1, 652500, Note_on_c, 0, 41, 0
1, 652500, Note_on_c, 0, 44, 0
1, 652560, Note_on_c, 0, 74, 0
1, 652560, Note_on_c, 0, 50, 46
1, 652560, Note_on_c, 0, 41, 38
1, 652560, Note_on_c, 0, 44, 38
1, 652740, Note_on_c, 0, 44, 0
1, 652740, Note_on_c, 0, 41, 0
1, 652740, Note_on_c, 0, 50, 0
1, 652800, Tempo, 373902
1, 652800, Note_on_c, 0, 64, 82
1, 652800, Note_on_c, 0, 43, 38
1, 652800, Note_on_c, 0, 46, 38
1, 652800, Note_on_c, 0, 50, 47
1, 652980, Note_on_c, 0, 50, 0
1, 652980, Note_on_c, 0, 46, 0
1, 652980, Note_on_c, 0, 43, 0
1, 653040, Tempo, 365653
1, 653040, Note_on_c, 0, 64, 0
1, 653040, Note_on_c, 0, 67, 70
1, 653040, Note_on_c, 0, 43, 38
1, 653040, Note_on_c, 0, 46, 38
1, 653040, Note_on_c, 0, 50, 47
1, 653160, Note_on_c, 0, 67, 0
1, 653160, Note_on_c, 0, 65, 70
1, 653220, Note_on_c, 0, 43, 0
1, 653220, Note_on_c, 0, 50, 0
1, 653220, Note_on_c, 0, 46, 0
1, 653280, Tempo, 373902
1, 653280, Note_on_c, 0, 65, 0
1, 653280, Note_on_c, 0, 64, 74
1, 653280, Note_on_c, 0, 43, 39
1, 653280, Note_on_c, 0, 46, 39
1, 653280, Note_on_c, 0, 52, 47
1, 653460, Note_on_c, 0, 52, 0
1, 653460, Note_on_c, 0, 46, 0
1, 653460, Note_on_c, 0, 43, 0
1, 653520, Tempo, 396957
1, 653520, Note_on_c, 0, 64, 0
1, 653520, Note_on_c, 0, 46, 39
1, 653520, Note_on_c, 0, 43, 39
1, 653520, Note_on_c, 0, 52, 48
1, 653640, Tempo, 396957
1, 653700, Note_on_c, 0, 52, 0
1, 653700, Note_on_c, 0, 43, 0
1, 653700, Note_on_c, 0, 46, 0
1, 653760, Tempo, 367963
1, 653760, Note_on_c, 0, 84, 78
1, 653760, Note_on_c, 0, 44, 39
1, 653760, Note_on_c, 0, 52, 48
1, 653760, Note_on_c, 0, 48, 39
1, 653880, Note_on_c, 0, 84, 0
1, 653880, Note_on_c, 0, 82, 75
1, 653940, Note_on_c, 0, 44, 0
1, 653940, Note_on_c, 0, 48, 0
1, 653940, Note_on_c, 0, 52, 0
1, 654000, Note_on_c, 0, 82, 0
1, 654000, Note_on_c, 0, 80, 73
1, 654000, Note_on_c, 0, 44, 39
1, 654000, Note_on_c, 0, 52, 48
1, 654000, Note_on_c, 0, 48, 39
1, 654120, Note_on_c, 0, 80, 0
1, 654120, Note_on_c, 0, 79, 70
1, 654180, Note_on_c, 0, 44, 0
1, 654180, Note_on_c, 0, 48, 0
1, 654180, Note_on_c, 0, 52, 0
1, 654240, Tempo, 373902
1, 654240, Note_on_c, 0, 79, 0
1, 654240, Note_on_c, 0, 77, 74
1, 654240, Note_on_c, 0, 44, 40
1, 654240, Note_on_c, 0, 53, 49
1, 654240, Note_on_c, 0, 48, 40
1, 654420, Note_on_c, 0, 48, 0
1, 654420, Note_on_c, 0, 53, 0
1, 654420, Note_on_c, 0, 44, 0
1, 654480, Tempo, 381291
1, 654480, Note_on_c, 0, 77, 0
1, 654480, Note_on_c, 0, 48, 40
1, 654480, Note_on_c, 0, 44, 40
1, 654480, Note_on_c, 0, 53, 49
1, 654660, Note_on_c, 0, 53, 0
1, 654660, Note_on_c, 0, 44, 0
1, 654660, Note_on_c, 0, 48, 0
1, 654720, Tempo, 367963
1, 654720, Note_on_c, 0, 87, 90
1, 654720, Note_on_c, 0, 54, 51
1, 654720, Note_on_c, 0, 45, 42
1, 654720, Note_on_c, 0, 48, 42
1, 654840, Note_on_c, 0, 87, 0
1, 654840, Note_on_c, 0, 86, 86
1, 654900, Note_on_c, 0, 54, 0
1, 654900, Note_on_c, 0, 48, 0
1, 654900, Note_on_c, 0, 45, 0
1, 654960, Note_on_c, 0, 86, 0
1, 654960, Note_on_c, 0, 84, 84
1, 654960, Note_on_c, 0, 54, 51
1, 654960, Note_on_c, 0, 45, 42
1, 654960, Note_on_c, 0, 48, 42
1, 655080, Note_on_c, 0, 84, 0
1, 655080, Note_on_c, 0, 83, 80
1, 655140, Note_on_c, 0, 54, 0
1, 655140, Note_on_c, 0, 48, 0
1, 655140, Note_on_c, 0, 45, 0
1, 655200, Tempo, 373902
1, 655200, Note_on_c, 0, 83, 0
1, 655200, Note_on_c, 0, 84, 85
1, 655200, Note_on_c, 0, 48, 42
1, 655200, Note_on_c, 0, 45, 42
1, 655200, Note_on_c, 0, 54, 51
1, 655380, Note_on_c, 0, 54, 0
1, 655380, Note_on_c, 0, 45, 0
1, 655380, Note_on_c, 0, 48, 0
1, 655440, Tempo, 381291
1, 655440, Note_on_c, 0, 84, 0
1, 655440, Note_on_c, 0, 48, 42
1, 655440, Note_on_c, 0, 45, 42
1, 655440, Note_on_c, 0, 54, 51
1, 655620, Note_on_c, 0, 54, 0
1, 655620, Note_on_c, 0, 45, 0
1, 655620, Note_on_c, 0, 48, 0
1, 655680, Tempo, 367963
1, 655680, Note_on_c, 0, 75, 90
1, 655680, Note_on_c, 0, 54, 51
1, 655680, Note_on_c, 0, 48, 42
1, 655680, Note_on_c, 0, 45, 42
1, 655800, Note_on_c, 0, 75, 0
1, 655800, Note_on_c, 0, 74, 86
1, 655860, Note_on_c, 0, 54, 0
1, 655860, Note_on_c, 0, 45, 0
1, 655860, Note_on_c, 0, 48, 0
1, 655920, Note_on_c, 0, 74, 0
1, 655920, Note_on_c, 0, 72, 84
1, 655920, Note_on_c, 0, 48, 42
1, 655920, Note_on_c, 0, 45, 42
1, 655920, Note_on_c, 0, 54, 51
1, 656040, Note_on_c, 0, 72, 0
1, 656040, Note_on_c, 0, 71, 80
1, 656100, Note_on_c, 0, 48, 0
1, 656100, Note_on_c, 0, 54, 0
1, 656100, Note_on_c, 0, 45, 0
1, 656160, Tempo, 373902
1, 656160, Note_on_c, 0, 71, 0
1, 656160, Note_on_c, 0, 72, 85
1, 656160, Note_on_c, 0, 48, 42
1, 656160, Note_on_c, 0, 45, 42
1, 656160, Note_on_c, 0, 54, 51
1, 656340, Note_on_c, 0, 54, 0
1, 656340, Note_on_c, 0, 45, 0
1, 656340, Note_on_c, 0, 48, 0
1, 656400, Tempo, 394737
1, 656400, Note_on_c, 0, 72, 0
1, 656400, Note_on_c, 0, 48, 42
1, 656400, Note_on_c, 0, 45, 42
1, 656400, Note_on_c, 0, 54, 51
1, 656580, Note_on_c, 0, 54, 0
1, 656580, Note_on_c, 0, 45, 0
1, 656580, Note_on_c, 0, 48, 0
1, 656640, Tempo, 367963
1, 656640, Note_on_c, 0, 63, 90
1, 656640, Note_on_c, 0, 48, 42
1, 656640, Note_on_c, 0, 54, 51
1, 656640, Note_on_c, 0, 44, 42
1, 656760, Note_on_c, 0, 63, 0
1, 656760, Note_on_c, 0, 62, 86
1, 656820, Note_on_c, 0, 48, 0
1, 656820, Note_on_c, 0, 44, 0
1, 656820, Note_on_c, 0, 54, 0
1, 656880, Note_on_c, 0, 62, 0
1, 656880, Note_on_c, 0, 60, 84
1, 656880, Note_on_c, 0, 54, 51
1, 656880, Note_on_c, 0, 44, 42
1, 656880, Note_on_c, 0, 48, 42
1, 657000, Note_on_c, 0, 60, 0
1, 657000, Note_on_c, 0, 59, 80
1, 657060, Note_on_c, 0, 54, 0
1, 657060, Note_on_c, 0, 48, 0
1, 657060, Note_on_c, 0, 44, 0
1, 657120, Tempo, 373902
1, 657120, Note_on_c, 0, 59, 0
1, 657120, Note_on_c, 0, 60, 85
1, 657120, Note_on_c, 0, 48, 42
1, 657120, Note_on_c, 0, 44, 42
1, 657120, Note_on_c, 0, 54, 51
1, 657300, Note_on_c, 0, 54, 0
1, 657300, Note_on_c, 0, 44, 0
1, 657300, Note_on_c, 0, 48, 0
1, 657360, Note_on_c, 0, 60, 0
1, 657360, Note_on_c, 0, 48, 42
1, 657360, Note_on_c, 0, 44, 42
1, 657360, Note_on_c, 0, 54, 51
1, 657540, Note_on_c, 0, 54, 0
1, 657540, Note_on_c, 0, 44, 0
1, 657540, Note_on_c, 0, 48, 0
1, 657600, Tempo, 367963
1, 657600, Note_on_c, 0, 75, 90
1, 657600, Note_on_c, 0, 48, 42
1, 657600, Note_on_c, 0, 44, 42
1, 657600, Note_on_c, 0, 51, 51
1, 657720, Note_on_c, 0, 75, 0
1, 657720, Note_on_c, 0, 74, 86
1, 657780, Note_on_c, 0, 48, 0
1, 657780, Note_on_c, 0, 51, 0
1, 657780, Note_on_c, 0, 44, 0
1, 657840, Note_on_c, 0, 74, 0
1, 657840, Note_on_c, 0, 72, 84
1, 657840, Note_on_c, 0, 51, 51
1, 657840, Note_on_c, 0, 48, 42
1, 657840, Note_on_c, 0, 44, 42
1, 657960, Note_on_c, 0, 72, 0
1, 657960, Note_on_c, 0, 71, 80
1, 658020, Note_on_c, 0, 51, 0
1, 658020, Note_on_c, 0, 44, 0
1, 658020, Note_on_c, 0, 48, 0
1, 658080, Tempo, 376341
1, 658080, Note_on_c, 0, 71, 0
1, 658080, Note_on_c, 0, 72, 85
1, 658080, Note_on_c, 0, 44, 42
1, 658080, Note_on_c, 0, 48, 51
1, 658120, Tempo, 378788
1, 658160, Tempo, 381291
1, 658200, Tempo, 385084
1, 658200, Note_on_c, 0, 72, 0
1, 658200, Note_on_c, 0, 74, 85
1, 658240, Tempo, 387672
1, 658260, Note_on_c, 0, 48, 0
1, 658260, Note_on_c, 0, 44, 0
1, 658280, Tempo, 391594
1, 658320, Tempo, 394244
1, 658320, Note_on_c, 0, 74, 0
1, 658320, Note_on_c, 0, 75, 85
1, 658320, Note_on_c, 0, 48, 51
1, 658320, Note_on_c, 0, 44, 42
1, 658360, Tempo, 396957
1, 658400, Tempo, 401070
1, 658440, Tempo, 403877
1, 658440, Note_on_c, 0, 75, 0
1, 658440, Note_on_c, 0, 78, 85
1, 658480, Tempo, 408136
1, 658500, Note_on_c, 0, 44, 0
1, 658500, Note_on_c, 0, 48, 0
1, 658520, Tempo, 411043
1, 658560, Tempo, 390269
1, 658560, Note_on_c, 0, 78, 0
1, 658560, Note_on_c, 0, 79, 85
1, 658560, Note_on_c, 0, 43, 42
1, 658560, Note_on_c, 0, 47, 51
1, 658780, Note_on_c, 0, 47, 0
1, 658780, Note_on_c, 0, 43, 0
1, 658780, Note_on_c, 0, 79, 0
1, 658800, Note_on_c, 0, 67, 38
1, 658800, Note_on_c, 0, 79, 45
1, 659020, Note_on_c, 0, 79, 0
1, 659020, Note_on_c, 0, 67, 0
1, 659040, Note_on_c, 0, 67, 38
1, 659040, Note_on_c, 0, 79, 45
1, 659260, Note_on_c, 0, 79, 0
1, 659260, Note_on_c, 0, 67, 0
1, 659280, Note_on_c, 0, 67, 38
1, 659280, Note_on_c, 0, 79, 45
1, 659500, Note_on_c, 0, 79, 0
1, 659500, Note_on_c, 0, 67, 0
1, 659520, Note_on_c, 0, 67, 38
1, 659520, Note_on_c, 0, 79, 45
1, 659740, Note_on_c, 0, 79, 0
1, 659740, Note_on_c, 0, 67, 0
1, 659760, Note_on_c, 0, 67, 38
1, 659760, Note_on_c, 0, 79, 45
1, 659980, Note_on_c, 0, 79, 0
1, 659980, Note_on_c, 0, 67, 0
1, 660000, Note_on_c, 0, 67, 38
1, 660000, Note_on_c, 0, 79, 45
1, 660220, Note_on_c, 0, 79, 0
1, 660220, Note_on_c, 0, 67, 0
1, 660240, Note_on_c, 0, 67, 38
1, 660240, Note_on_c, 0, 79, 45
1, 660460, Note_on_c, 0, 79, 0
1, 660460, Note_on_c, 0, 67, 0
1, 660480, Tempo, 382555
1, 660480, Note_on_c, 0, 67, 37
1, 660480, Note_on_c, 0, 70, 37
1, 660480, Note_on_c, 0, 73, 37
1, 660480, Note_on_c, 0, 79, 45
1, 660700, Note_on_c, 0, 79, 0
1, 660700, Note_on_c, 0, 67, 0
1, 660700, Note_on_c, 0, 70, 0
1, 660700, Note_on_c, 0, 73, 0
1, 660720, Note_on_c, 0, 67, 39
1, 660720, Note_on_c, 0, 70, 39
1, 660720, Note_on_c, 0, 73, 39
1, 660720, Note_on_c, 0, 79, 47
1, 660940, Note_on_c, 0, 79, 0
1, 660940, Note_on_c, 0, 67, 0
1, 660940, Note_on_c, 0, 70, 0
1, 660940, Note_on_c, 0, 73, 0
1, 660960, Note_on_c, 0, 67, 41
1, 660960, Note_on_c, 0, 70, 41
1, 660960, Note_on_c, 0, 73, 41
1, 660960, Note_on_c, 0, 79, 49
1, 661180, Note_on_c, 0, 79, 0
1, 661180, Note_on_c, 0, 67, 0
1, 661180, Note_on_c, 0, 70, 0
1, 661180, Note_on_c, 0, 73, 0
1, 661200, Note_on_c, 0, 67, 43
1, 661200, Note_on_c, 0, 70, 43
1, 661200, Note_on_c, 0, 73, 43
1, 661200, Note_on_c, 0, 79, 52
1, 661360, Tempo, 381291
1, 661400, Tempo, 383803
1, 661420, Note_on_c, 0, 79, 0
1, 661420, Note_on_c, 0, 67, 0
1, 661420, Note_on_c, 0, 70, 0
1, 661420, Note_on_c, 0, 73, 0
1, 661440, Note_on_c, 0, 67, 45
1, 661440, Note_on_c, 0, 70, 45
1, 661440, Note_on_c, 0, 73, 45
1, 661440, Note_on_c, 0, 79, 54
1, 661480, Tempo, 385084
1, 661560, Tempo, 386374
1, 661640, Tempo, 387672
1, 661660, Note_on_c, 0, 79, 0
1, 661660, Note_on_c, 0, 67, 0
1, 661660, Note_on_c, 0, 70, 0
1, 661660, Note_on_c, 0, 73, 0
1, 661680, Note_on_c, 0, 67, 46
1, 661680, Note_on_c, 0, 70, 46
1, 661680, Note_on_c, 0, 73, 46
1, 661680, Note_on_c, 0, 79, 55
1, 661720, Tempo, 388954
1, 661760, Tempo, 390269
1, 661840, Tempo, 391594
1, 661900, Note_on_c, 0, 79, 0
1, 661900, Note_on_c, 0, 67, 0
1, 661900, Note_on_c, 0, 70, 0
1, 661900, Note_on_c, 0, 73, 0
1, 661920, Tempo, 392927
1, 661920, Note_on_c, 0, 67, 49
1, 661920, Note_on_c, 0, 70, 49
1, 661920, Note_on_c, 0, 73, 49
1, 661920, Note_on_c, 0, 79, 59
1, 662000, Tempo, 394244
1, 662040, Tempo, 395596
1, 662120, Tempo, 396957
1, 662140, Note_on_c, 0, 79, 0
1, 662140, Note_on_c, 0, 67, 0
1, 662140, Note_on_c, 0, 70, 0
1, 662140, Note_on_c, 0, 73, 0
1, 662160, Note_on_c, 0, 67, 51
1, 662160, Note_on_c, 0, 70, 51
1, 662160, Note_on_c, 0, 73, 51
1, 662160, Note_on_c, 0, 79, 61
1, 662200, Tempo, 398327
1, 662280, Tempo, 399707
1, 662320, Tempo, 401070
1, 662380, Note_on_c, 0, 79, 0
1, 662380, Note_on_c, 0, 67, 0
1, 662380, Note_on_c, 0, 70, 0
1, 662380, Note_on_c, 0, 73, 0
1, 662400, Tempo, 403877
1, 662400, Note_on_c, 0, 67, 41
1, 662400, Note_on_c, 0, 71, 41
1, 662400, Note_on_c, 0, 74, 41
1, 662400, Note_on_c, 0, 79, 49
1, 662400, Note_on_c, 0, 47, 29
1, 662400, Note_on_c, 0, 50, 35
1, 662580, Note_on_c, 0, 50, 0
1, 662580, Note_on_c, 0, 47, 0
1, 662640, Tempo, 390269
1, 662640, Note_on_c, 0, 74, 0
1, 662640, Note_on_c, 0, 67, 0
1, 662640, Note_on_c, 0, 71, 0
1, 662640, Note_on_c, 0, 79, 0
1, 662640, Note_on_c, 0, 91, 58
1, 662640, Note_on_c, 0, 79, 49
1, 662640, Note_on_c, 0, 50, 35
1, 662640, Note_on_c, 0, 47, 29
1, 662820, Note_on_c, 0, 47, 0
1, 662820, Note_on_c, 0, 50, 0
1, 662880, Note_on_c, 0, 50, 35
1, 662880, Note_on_c, 0, 47, 29
1, 663060, Note_on_c, 0, 47, 0
1, 663060, Note_on_c, 0, 50, 0
1, 663120, Note_on_c, 0, 79, 0
1, 663120, Note_on_c, 0, 91, 0
1, 663120, Note_on_c, 0, 89, 53
1, 663120, Note_on_c, 0, 77, 53
1, 663120, Note_on_c, 0, 47, 29
1, 663120, Note_on_c, 0, 50, 35
1, 663300, Note_on_c, 0, 50, 0
1, 663300, Note_on_c, 0, 47, 0
1, 663360, Note_on_c, 0, 47, 29
1, 663360, Note_on_c, 0, 50, 35
1, 663540, Note_on_c, 0, 50, 0
1, 663540, Note_on_c, 0, 47, 0
1, 663600, Note_on_c, 0, 77, 0
1, 663600, Note_on_c, 0, 89, 0
1, 663600, Note_on_c, 0, 88, 55
1, 663600, Note_on_c, 0, 76, 46
1, 663600, Note_on_c, 0, 50, 35
1, 663600, Note_on_c, 0, 47, 29
1, 663780, Note_on_c, 0, 47, 0
1, 663780, Note_on_c, 0, 50, 0
1, 663840, Note_on_c, 0, 47, 29
1, 663840, Note_on_c, 0, 50, 35
1, 664020, Note_on_c, 0, 50, 0
1, 664020, Note_on_c, 0, 47, 0
1, 664080, Tempo, 378788
1, 664080, Note_on_c, 0, 76, 0
1, 664080, Note_on_c, 0, 88, 0
1, 664080, Note_on_c, 0, 86, 53
1, 664080, Note_on_c, 0, 74, 45
1, 664080, Note_on_c, 0, 47, 29
1, 664080, Note_on_c, 0, 50, 35
1, 664260, Note_on_c, 0, 50, 0
1, 664260, Note_on_c, 0, 47, 0
1, 664320, Tempo, 391594
1, 664320, Note_on_c, 0, 47, 29
1, 664320, Note_on_c, 0, 50, 35
1, 664500, Note_on_c, 0, 50, 0
1, 664500, Note_on_c, 0, 47, 0
1, 664560, Note_on_c, 0, 74, 0
1, 664560, Note_on_c, 0, 86, 0
1, 664560, Note_on_c, 0, 84, 52
1, 664560, Note_on_c, 0, 72, 44
1, 664560, Note_on_c, 0, 47, 29
1, 664560, Note_on_c, 0, 50, 35
1, 664740, Note_on_c, 0, 50, 0
1, 664740, Note_on_c, 0, 47, 0
1, 664760, Tempo, 392927
1, 664800, Note_on_c, 0, 47, 29
1, 664800, Note_on_c, 0, 50, 35
1, 664980, Note_on_c, 0, 50, 0
1, 664980, Note_on_c, 0, 47, 0
1, 665000, Tempo, 391594
1, 665040, Note_on_c, 0, 72, 0
1, 665040, Note_on_c, 0, 84, 0
1, 665040, Note_on_c, 0, 83, 50
1, 665040, Note_on_c, 0, 71, 42
1, 665040, Note_on_c, 0, 47, 29
1, 665040, Note_on_c, 0, 50, 35
1, 665220, Note_on_c, 0, 50, 0
1, 665220, Note_on_c, 0, 47, 0
1, 665240, Tempo, 390269
1, 665280, Note_on_c, 0, 50, 35
1, 665280, Note_on_c, 0, 47, 29
1, 665440, Tempo, 388954
1, 665460, Note_on_c, 0, 47, 0
1, 665460, Note_on_c, 0, 50, 0
1, 665520, Note_on_c, 0, 71, 0
1, 665520, Note_on_c, 0, 83, 0
1, 665520, Note_on_c, 0, 81, 49
1, 665520, Note_on_c, 0, 69, 41
1, 665520, Note_on_c, 0, 47, 29
1, 665520, Note_on_c, 0, 50, 35
1, 665680, Tempo, 387672
1, 665700, Note_on_c, 0, 50, 0
1, 665700, Note_on_c, 0, 47, 0
1, 665760, Note_on_c, 0, 52, 35
1, 665760, Note_on_c, 0, 49, 29
1, 665920, Tempo, 386374
1, 665940, Note_on_c, 0, 49, 0
1, 665940, Note_on_c, 0, 52, 0
1, 666000, Note_on_c, 0, 69, 0
1, 666000, Note_on_c, 0, 81, 0
1, 666000, Note_on_c, 0, 79, 47
1, 666000, Note_on_c, 0, 67, 39
1, 666000, Note_on_c, 0, 49, 29
1, 666000, Note_on_c, 0, 52, 35
1, 666120, Tempo, 385084
1, 666180, Note_on_c, 0, 52, 0
1, 666180, Note_on_c, 0, 49, 0
1, 666240, Tempo, 373902
1, 666240, Note_on_c, 0, 67, 0
1, 666240, Note_on_c, 0, 79, 0
1, 666240, Note_on_c, 0, 65, 38
1, 666240, Note_on_c, 0, 77, 45
1, 666240, Note_on_c, 0, 53, 42
1, 666240, Note_on_c, 0, 50, 42
1, 666360, Note_on_c, 0, 77, 0
1, 666360, Note_on_c, 0, 65, 0
1, 666360, Note_on_c, 0, 62, 37
1, 666480, Note_on_c, 0, 62, 0
1, 666480, Note_on_c, 0, 64, 39
1, 666600, Note_on_c, 0, 64, 0
1, 666600, Note_on_c, 0, 65, 40
1, 666720, Note_on_c, 0, 65, 0
1, 666720, Note_on_c, 0, 67, 42
1, 666840, Note_on_c, 0, 67, 0
1, 666840, Note_on_c, 0, 69, 44
1, 666960, Tempo, 367963
1, 666960, Note_on_c, 0, 69, 0
1, 666960, Note_on_c, 0, 53, 0
1, 666960, Note_on_c, 0, 71, 45
1, 666960, Note_on_c, 0, 57, 40
1, 667080, Note_on_c, 0, 57, 0
1, 667080, Note_on_c, 0, 71, 0
1, 667080, Note_on_c, 0, 73, 47
1, 667080, Note_on_c, 0, 55, 40
1, 667200, Tempo, 373902
1, 667200, Note_on_c, 0, 55, 0
1, 667200, Note_on_c, 0, 73, 0
1, 667200, Note_on_c, 0, 74, 48
1, 667200, Note_on_c, 0, 53, 45
1, 667320, Note_on_c, 0, 74, 0
1, 667320, Note_on_c, 0, 65, 42
1, 667440, Note_on_c, 0, 65, 0
1, 667440, Note_on_c, 0, 53, 0
1, 667440, Note_on_c, 0, 50, 0
1, 667440, Note_on_c, 0, 67, 43
1, 667560, Note_on_c, 0, 67, 0
1, 667560, Note_on_c, 0, 69, 45
1, 667680, Note_on_c, 0, 69, 0
1, 667680, Note_on_c, 0, 71, 46
1, 667800, Note_on_c, 0, 71, 0
1, 667800, Note_on_c, 0, 73, 48
1, 667920, Tempo, 383803
1, 667920, Note_on_c, 0, 73, 0
1, 667920, Note_on_c, 0, 74, 49
1, 668040, Note_on_c, 0, 74, 0
1, 668040, Note_on_c, 0, 76, 50
1, 668160, Tempo, 373902
1, 668160, Note_on_c, 0, 76, 0
1, 668160, Note_on_c, 0, 77, 52
1, 668160, Note_on_c, 0, 69, 46
1, 668280, Note_on_c, 0, 77, 0
1, 668280, Note_on_c, 0, 74, 46
1, 668400, Note_on_c, 0, 74, 0
1, 668400, Note_on_c, 0, 76, 46
1, 668520, Note_on_c, 0, 76, 0
1, 668520, Note_on_c, 0, 77, 47
1, 668640, Note_on_c, 0, 77, 0
1, 668640, Note_on_c, 0, 79, 48
1, 668760, Note_on_c, 0, 79, 0
1, 668760, Note_on_c, 0, 69, 0
1, 668760, Note_on_c, 0, 81, 49
1, 668760, Note_on_c, 0, 67, 40
1, 668880, Tempo, 367963
1, 668880, Note_on_c, 0, 67, 0
1, 668880, Note_on_c, 0, 81, 0
1, 668880, Note_on_c, 0, 83, 50
1, 668880, Note_on_c, 0, 65, 40
1, 669000, Note_on_c, 0, 65, 0
1, 669000, Note_on_c, 0, 83, 0
1, 669000, Note_on_c, 0, 85, 51
1, 669000, Note_on_c, 0, 64, 40
1, 669120, Tempo, 373902
1, 669120, Note_on_c, 0, 64, 0
1, 669120, Note_on_c, 0, 85, 0
1, 669120, Note_on_c, 0, 86, 52
1, 669120, Note_on_c, 0, 62, 45
1, 669240, Note_on_c, 0, 86, 0
1, 669240, Note_on_c, 0, 85, 46
1, 669360, Note_on_c, 0, 85, 0
1, 669360, Note_on_c, 0, 62, 0
1, 669360, Note_on_c, 0, 86, 47
1, 669480, Note_on_c, 0, 86, 0
1, 669480, Note_on_c, 0, 88, 48
1, 669600, Note_on_c, 0, 88, 0
1, 669600, Note_on_c, 0, 89, 49
1, 669720, Note_on_c, 0, 89, 0
1, 669720, Note_on_c, 0, 85, 51
1, 669840, Tempo, 383803
1, 669840, Note_on_c, 0, 85, 0
1, 669840, Note_on_c, 0, 86, 52
1, 669960, Note_on_c, 0, 86, 0
1, 669960, Note_on_c, 0, 88, 53
1, 670080, Tempo, 403877
1, 670080, Note_on_c, 0, 88, 0
1, 670080, Note_on_c, 0, 89, 49
1, 670080, Note_on_c, 0, 45, 29
1, 670080, Note_on_c, 0, 48, 35
1, 670260, Note_on_c, 0, 48, 0
1, 670260, Note_on_c, 0, 45, 0
1, 670320, Tempo, 390269
1, 670320, Note_on_c, 0, 89, 0
1, 670320, Note_on_c, 0, 89, 58
1, 670320, Note_on_c, 0, 77, 49
1, 670320, Note_on_c, 0, 45, 29
1, 670320, Note_on_c, 0, 48, 35
1, 670500, Note_on_c, 0, 48, 0
1, 670500, Note_on_c, 0, 45, 0
1, 670560, Note_on_c, 0, 48, 35
1, 670560, Note_on_c, 0, 45, 29
1, 670740, Note_on_c, 0, 45, 0
1, 670740, Note_on_c, 0, 48, 0
1, 670800, Note_on_c, 0, 77, 0
1, 670800, Note_on_c, 0, 89, 0
1, 670800, Note_on_c, 0, 88, 53
1, 670800, Note_on_c, 0, 76, 53
1, 670800, Note_on_c, 0, 45, 29
1, 670800, Note_on_c, 0, 48, 35
1, 670980, Note_on_c, 0, 48, 0
1, 670980, Note_on_c, 0, 45, 0
1, 671040, Note_on_c, 0, 45, 29
1, 671040, Note_on_c, 0, 48, 35
1, 671220, Note_on_c, 0, 48, 0
1, 671220, Note_on_c, 0, 45, 0
1, 671280, Note_on_c, 0, 76, 0
1, 671280, Note_on_c, 0, 88, 0
1, 671280, Note_on_c, 0, 86, 55
1, 671280, Note_on_c, 0, 74, 46
1, 671280, Note_on_c, 0, 48, 35
1, 671280, Note_on_c, 0, 45, 29
1, 671460, Note_on_c, 0, 45, 0
1, 671460, Note_on_c, 0, 48, 0
1, 671520, Note_on_c, 0, 45, 29
1, 671520, Note_on_c, 0, 48, 35
1, 671700, Note_on_c, 0, 48, 0
1, 671700, Note_on_c, 0, 45, 0
1, 671760, Tempo, 378788
1, 671760, Note_on_c, 0, 74, 0
1, 671760, Note_on_c, 0, 86, 0
1, 671760, Note_on_c, 0, 84, 53
1, 671760, Note_on_c, 0, 72, 45
1, 671760, Note_on_c, 0, 45, 29
1, 671760, Note_on_c, 0, 48, 35
1, 671940, Note_on_c, 0, 48, 0
1, 671940, Note_on_c, 0, 45, 0
1, 672000, Tempo, 391594
1, 672000, Note_on_c, 0, 48, 35
1, 672000, Note_on_c, 0, 45, 29
1, 672180, Note_on_c, 0, 45, 0
1, 672180, Note_on_c, 0, 48, 0
1, 672240, Note_on_c, 0, 72, 0
1, 672240, Note_on_c, 0, 84, 0
1, 672240, Note_on_c, 0, 83, 52
1, 672240, Note_on_c, 0, 71, 44
1, 672240, Note_on_c, 0, 45, 29
1, 672240, Note_on_c, 0, 48, 35
1, 672420, Note_on_c, 0, 48, 0
1, 672420, Note_on_c, 0, 45, 0
1, 672440, Tempo, 392927
1, 672480, Note_on_c, 0, 45, 29
1, 672480, Note_on_c, 0, 48, 35
1, 672660, Note_on_c, 0, 48, 0
1, 672660, Note_on_c, 0, 45, 0
1, 672680, Tempo, 391594
1, 672720, Note_on_c, 0, 71, 0
1, 672720, Note_on_c, 0, 83, 0
1, 672720, Note_on_c, 0, 81, 50
1, 672720, Note_on_c, 0, 69, 42
1, 672720, Note_on_c, 0, 48, 35
1, 672720, Note_on_c, 0, 45, 29
1, 672900, Note_on_c, 0, 45, 0
1, 672900, Note_on_c, 0, 48, 0
1, 672920, Tempo, 390269
1, 672960, Note_on_c, 0, 45, 29
1, 672960, Note_on_c, 0, 48, 35
1, 673120, Tempo, 388954
1, 673140, Note_on_c, 0, 48, 0
1, 673140, Note_on_c, 0, 45, 0
1, 673200, Note_on_c, 0, 69, 0
1, 673200, Note_on_c, 0, 81, 0
1, 673200, Note_on_c, 0, 79, 49
1, 673200, Note_on_c, 0, 67, 41
1, 673200, Note_on_c, 0, 48, 35
1, 673200, Note_on_c, 0, 45, 29
1, 673360, Tempo, 387672
1, 673380, Note_on_c, 0, 45, 0
1, 673380, Note_on_c, 0, 48, 0
1, 673440, Note_on_c, 0, 47, 29
1, 673440, Note_on_c, 0, 50, 35
1, 673600, Tempo, 386374
1, 673620, Note_on_c, 0, 50, 0
1, 673620, Note_on_c, 0, 47, 0
1, 673680, Note_on_c, 0, 67, 0
1, 673680, Note_on_c, 0, 79, 0
1, 673680, Note_on_c, 0, 77, 47
1, 673680, Note_on_c, 0, 65, 39
1, 673680, Note_on_c, 0, 47, 29
1, 673680, Note_on_c, 0, 50, 35
1, 673800, Tempo, 385084
1, 673860, Note_on_c, 0, 50, 0
1, 673860, Note_on_c, 0, 47, 0
1, 673920, Tempo, 373902
1, 673920, Note_on_c, 0, 65, 0
1, 673920, Note_on_c, 0, 77, 0
1, 673920, Note_on_c, 0, 64, 38
1, 673920, Note_on_c, 0, 76, 45
1, 673920, Note_on_c, 0, 52, 42
1, 673920, Note_on_c, 0, 48, 42
1, 674040, Note_on_c, 0, 76, 0
1, 674040, Note_on_c, 0, 64, 0
1, 674040, Note_on_c, 0, 64, 37
1, 674160, Note_on_c, 0, 64, 0
1, 674160, Note_on_c, 0, 65, 39
1, 674280, Note_on_c, 0, 65, 0
1, 674280, Note_on_c, 0, 67, 40
1, 674400, Note_on_c, 0, 67, 0
1, 674400, Note_on_c, 0, 69, 42
1, 674520, Note_on_c, 0, 69, 0
1, 674520, Note_on_c, 0, 71, 44
1, 674640, Tempo, 367963
1, 674640, Note_on_c, 0, 71, 0
1, 674640, Note_on_c, 0, 52, 0
1, 674640, Note_on_c, 0, 72, 45
1, 674640, Note_on_c, 0, 55, 40
1, 674760, Note_on_c, 0, 55, 0
1, 674760, Note_on_c, 0, 72, 0
1, 674760, Note_on_c, 0, 74, 47
1, 674760, Note_on_c, 0, 53, 40
1, 674880, Tempo, 373902
1, 674880, Note_on_c, 0, 53, 0
1, 674880, Note_on_c, 0, 74, 0
1, 674880, Note_on_c, 0, 76, 48
1, 674880, Note_on_c, 0, 52, 45
1, 675000, Note_on_c, 0, 76, 0
1, 675000, Note_on_c, 0, 69, 42
1, 675120, Note_on_c, 0, 69, 0
1, 675120, Note_on_c, 0, 52, 0
1, 675120, Note_on_c, 0, 48, 0
1, 675120, Note_on_c, 0, 71, 43
1, 675240, Note_on_c, 0, 71, 0
1, 675240, Note_on_c, 0, 72, 45
1, 675360, Note_on_c, 0, 72, 0
1, 675360, Note_on_c, 0, 74, 46
1, 675480, Note_on_c, 0, 74, 0
1, 675480, Note_on_c, 0, 76, 48
1, 675600, Tempo, 383803
1, 675600, Note_on_c, 0, 76, 0
1, 675600, Note_on_c, 0, 78, 49
1, 675720, Note_on_c, 0, 78, 0
1, 675720, Note_on_c, 0, 80, 50
1, 675780, Note_on_c, 0, 48, 36
1, 675840, Tempo, 373902
1, 675840, Note_on_c, 0, 48, 0
1, 675840, Note_on_c, 0, 80, 0
1, 675840, Note_on_c, 0, 81, 52
1, 675840, Note_on_c, 0, 64, 46
1, 675960, Note_on_c, 0, 81, 0
1, 675960, Note_on_c, 0, 76, 46
1, 676080, Note_on_c, 0, 76, 0
1, 676080, Note_on_c, 0, 78, 46
1, 676200, Note_on_c, 0, 78, 0
1, 676200, Note_on_c, 0, 80, 47
1, 676320, Note_on_c, 0, 80, 0
1, 676320, Note_on_c, 0, 81, 48
1, 676440, Note_on_c, 0, 81, 0
1, 676440, Note_on_c, 0, 64, 0
1, 676440, Note_on_c, 0, 83, 49
1, 676440, Note_on_c, 0, 62, 40
1, 676560, Tempo, 367963
1, 676560, Note_on_c, 0, 62, 0
1, 676560, Note_on_c, 0, 83, 0
1, 676560, Note_on_c, 0, 84, 50
1, 676560, Note_on_c, 0, 60, 40
1, 676680, Note_on_c, 0, 60, 0
1, 676680, Note_on_c, 0, 84, 0
1, 676680, Note_on_c, 0, 86, 51
1, 676680, Note_on_c, 0, 59, 40
1, 676800, Tempo, 373902
1, 676800, Note_on_c, 0, 59, 0
1, 676800, Note_on_c, 0, 86, 0
1, 676800, Note_on_c, 0, 88, 52
1, 676800, Note_on_c, 0, 57, 45
1, 676920, Note_on_c, 0, 88, 0
1, 676920, Note_on_c, 0, 86, 46
1, 677040, Note_on_c, 0, 86, 0
1, 677040, Note_on_c, 0, 57, 0
1, 677040, Note_on_c, 0, 84, 47
1, 677160, Note_on_c, 0, 84, 0
1, 677160, Note_on_c, 0, 83, 48
1, 677280, Note_on_c, 0, 83, 0
1, 677280, Note_on_c, 0, 81, 49
1, 677400, Note_on_c, 0, 81, 0
1, 677400, Note_on_c, 0, 83, 51
1, 677520, Tempo, 383803
1, 677520, Note_on_c, 0, 83, 0
1, 677520, Note_on_c, 0, 84, 52
1, 677640, Note_on_c, 0, 84, 0
1, 677640, Note_on_c, 0, 81, 53
1, 677760, Tempo, 373902
1, 677760, Note_on_c, 0, 81, 0
1, 677760, Note_on_c, 0, 53, 44
1, 677760, Note_on_c, 0, 50, 44
1, 677880, Note_on_c, 0, 65, 38
1, 678000, Note_on_c, 0, 65, 0
1, 678000, Note_on_c, 0, 67, 41
1, 678120, Note_on_c, 0, 67, 0
1, 678120, Note_on_c, 0, 69, 42
1, 678240, Note_on_c, 0, 69, 0
1, 678240, Note_on_c, 0, 71, 44
1, 678360, Note_on_c, 0, 71, 0
1, 678360, Note_on_c, 0, 72, 47
1, 678480, Tempo, 367963
1, 678480, Note_on_c, 0, 72, 0
1, 678480, Note_on_c, 0, 53, 0
1, 678480, Note_on_c, 0, 74, 48
1, 678480, Note_on_c, 0, 57, 43
1, 678600, Note_on_c, 0, 57, 0
1, 678600, Note_on_c, 0, 74, 0
1, 678600, Note_on_c, 0, 76, 50
1, 678600, Note_on_c, 0, 55, 43
1, 678720, Tempo, 373902
1, 678720, Note_on_c, 0, 55, 0
1, 678720, Note_on_c, 0, 76, 0
1, 678720, Note_on_c, 0, 77, 52
1, 678720, Note_on_c, 0, 53, 49
1, 678840, Note_on_c, 0, 77, 0
1, 678840, Note_on_c, 0, 71, 45
1, 678960, Note_on_c, 0, 71, 0
1, 678960, Note_on_c, 0, 53, 0
1, 678960, Note_on_c, 0, 50, 0
1, 678960, Note_on_c, 0, 72, 47
1, 679080, Note_on_c, 0, 72, 0
1, 679080, Note_on_c, 0, 74, 49
1, 679200, Note_on_c, 0, 74, 0
1, 679200, Note_on_c, 0, 76, 51
1, 679320, Note_on_c, 0, 76, 0
1, 679320, Note_on_c, 0, 77, 53
1, 679440, Tempo, 383803
1, 679440, Note_on_c, 0, 77, 0
1, 679440, Note_on_c, 0, 79, 54
1, 679560, Note_on_c, 0, 79, 0
1, 679560, Note_on_c, 0, 81, 56
1, 679620, Note_on_c, 0, 50, 35
1, 679680, Tempo, 373902
1, 679680, Note_on_c, 0, 50, 0
1, 679680, Note_on_c, 0, 81, 0
1, 679680, Note_on_c, 0, 83, 58
1, 679680, Note_on_c, 0, 65, 55
1, 679800, Note_on_c, 0, 83, 0
1, 679800, Note_on_c, 0, 77, 51
1, 679920, Note_on_c, 0, 77, 0
1, 679920, Note_on_c, 0, 79, 52
1, 680040, Note_on_c, 0, 79, 0
1, 680040, Note_on_c, 0, 81, 53
1, 680160, Note_on_c, 0, 81, 0
1, 680160, Note_on_c, 0, 83, 55
1, 680280, Note_on_c, 0, 83, 0
1, 680280, Note_on_c, 0, 65, 0
1, 680280, Note_on_c, 0, 84, 56
1, 680280, Note_on_c, 0, 64, 46
1, 680400, Tempo, 367963
1, 680400, Note_on_c, 0, 64, 0
1, 680400, Note_on_c, 0, 84, 0
1, 680400, Note_on_c, 0, 86, 58
1, 680400, Note_on_c, 0, 62, 46
1, 680520, Note_on_c, 0, 62, 0
1, 680520, Note_on_c, 0, 86, 0
1, 680520, Note_on_c, 0, 88, 59
1, 680520, Note_on_c, 0, 60, 46
1, 680640, Tempo, 373902
1, 680640, Note_on_c, 0, 60, 0
1, 680640, Note_on_c, 0, 88, 0
1, 680640, Note_on_c, 0, 89, 60
1, 680640, Note_on_c, 0, 59, 52
1, 680760, Note_on_c, 0, 89, 0
1, 680760, Note_on_c, 0, 88, 54
1, 680880, Note_on_c, 0, 88, 0
1, 680880, Note_on_c, 0, 86, 55
1, 681000, Note_on_c, 0, 86, 0
1, 681000, Note_on_c, 0, 84, 57
1, 681120, Note_on_c, 0, 84, 0
1, 681120, Note_on_c, 0, 59, 0
1, 681120, Note_on_c, 0, 83, 58
1, 681240, Note_on_c, 0, 83, 0
1, 681240, Note_on_c, 0, 84, 61
1, 681360, Tempo, 383803
1, 681360, Note_on_c, 0, 84, 0
1, 681360, Note_on_c, 0, 86, 62
1, 681480, Note_on_c, 0, 86, 0
1, 681480, Note_on_c, 0, 83, 64
1, 681540, Tempo, 579542
1, 681540, Note_on_c, 0, 52, 40
1, 681600, Tempo, 373902
1, 681600, Note_on_c, 0, 52, 0
1, 681600, Note_on_c, 0, 83, 0
1, 681600, Note_on_c, 0, 67, 64
1, 681720, Note_on_c, 0, 79, 56
1, 681840, Note_on_c, 0, 79, 0
1, 681840, Note_on_c, 0, 81, 56
1, 681960, Note_on_c, 0, 81, 0
1, 681960, Note_on_c, 0, 83, 57
1, 682080, Note_on_c, 0, 83, 0
1, 682080, Note_on_c, 0, 84, 59
1, 682200, Note_on_c, 0, 84, 0
1, 682200, Note_on_c, 0, 67, 0
1, 682200, Note_on_c, 0, 86, 60
1, 682200, Note_on_c, 0, 65, 52
1, 682320, Tempo, 367963
1, 682320, Note_on_c, 0, 65, 0
1, 682320, Note_on_c, 0, 86, 0
1, 682320, Note_on_c, 0, 88, 62
1, 682320, Note_on_c, 0, 64, 51
1, 682440, Note_on_c, 0, 64, 0
1, 682440, Note_on_c, 0, 88, 0
1, 682440, Note_on_c, 0, 89, 63
1, 682440, Note_on_c, 0, 62, 51
1, 682560, Tempo, 373902
1, 682560, Note_on_c, 0, 62, 0
1, 682560, Note_on_c, 0, 89, 0
1, 682560, Note_on_c, 0, 91, 65
1, 682560, Note_on_c, 0, 61, 56
1, 682680, Note_on_c, 0, 91, 0
1, 682680, Note_on_c, 0, 89, 57
1, 682800, Note_on_c, 0, 89, 0
1, 682800, Note_on_c, 0, 88, 59
1, 682920, Note_on_c, 0, 88, 0
1, 682920, Note_on_c, 0, 86, 60
1, 683040, Note_on_c, 0, 86, 0
1, 683040, Note_on_c, 0, 61, 0
1, 683040, Note_on_c, 0, 85, 62
1, 683160, Note_on_c, 0, 85, 0
1, 683160, Note_on_c, 0, 86, 65
1, 683280, Tempo, 383803
1, 683280, Note_on_c, 0, 86, 0
1, 683280, Note_on_c, 0, 88, 66
1, 683400, Note_on_c, 0, 88, 0
1, 683400, Note_on_c, 0, 85, 68
1, 683460, Tempo, 579542
1, 683460, Note_on_c, 0, 53, 46
1, 683520, Tempo, 373902
1, 683520, Note_on_c, 0, 53, 0
1, 683520, Note_on_c, 0, 85, 0
1, 683520, Note_on_c, 0, 69, 73
1, 683640, Note_on_c, 0, 73, 59
1, 683760, Note_on_c, 0, 73, 0
1, 683760, Note_on_c, 0, 74, 59
1, 683880, Note_on_c, 0, 74, 0
1, 683880, Note_on_c, 0, 76, 61
1, 684000, Note_on_c, 0, 76, 0
1, 684000, Note_on_c, 0, 69, 0
1, 684000, Note_on_c, 0, 77, 63
1, 684000, Note_on_c, 0, 67, 60
1, 684120, Note_on_c, 0, 67, 0
1, 684120, Note_on_c, 0, 77, 0
1, 684120, Note_on_c, 0, 79, 64
1, 684120, Note_on_c, 0, 65, 60
1, 684220, Tempo, 375000
1, 684240, Tempo, 377358
1, 684240, Note_on_c, 0, 65, 0
1, 684240, Note_on_c, 0, 79, 0
1, 684240, Note_on_c, 0, 81, 66
1, 684240, Note_on_c, 0, 64, 60
1, 684260, Tempo, 380952
1, 684280, Tempo, 384615
1, 684300, Tempo, 388350
1, 684320, Tempo, 392157
1, 684340, Tempo, 396040
1, 684360, Note_on_c, 0, 64, 0
1, 684360, Note_on_c, 0, 81, 0
1, 684360, Note_on_c, 0, 77, 67
1, 684360, Note_on_c, 0, 62, 59
1, 684420, Tempo, 503948
1, 684420, Note_on_c, 0, 62, 0
1, 684420, Note_on_c, 0, 55, 47
1, 684480, Tempo, 373902
1, 684480, Note_on_c, 0, 55, 0
1, 684480, Note_on_c, 0, 71, 75
1, 684600, Note_on_c, 0, 77, 0
1, 684600, Note_on_c, 0, 75, 61
1, 684720, Note_on_c, 0, 75, 0
1, 684720, Note_on_c, 0, 76, 61
1, 684840, Note_on_c, 0, 76, 0
1, 684840, Note_on_c, 0, 77, 64
1, 684960, Note_on_c, 0, 77, 0
1, 684960, Note_on_c, 0, 71, 0
1, 684960, Note_on_c, 0, 79, 65
1, 684960, Note_on_c, 0, 69, 62
1, 685080, Note_on_c, 0, 69, 0
1, 685080, Note_on_c, 0, 79, 0
1, 685080, Note_on_c, 0, 81, 66
1, 685080, Note_on_c, 0, 67, 62
1, 685180, Tempo, 376176
1, 685200, Tempo, 377358
1, 685200, Note_on_c, 0, 67, 0
1, 685200, Note_on_c, 0, 81, 0
1, 685200, Note_on_c, 0, 83, 69
1, 685200, Note_on_c, 0, 65, 63
1, 685220, Tempo, 379747
1, 685240, Tempo, 380952
1, 685260, Tempo, 383387
1, 685280, Tempo, 384615
1, 685300, Tempo, 387097
1, 685320, Tempo, 389610
1, 685320, Note_on_c, 0, 65, 0
1, 685320, Note_on_c, 0, 83, 0
1, 685320, Note_on_c, 0, 79, 70
1, 685320, Note_on_c, 0, 64, 62
1, 685380, Tempo, 491159
1, 685380, Note_on_c, 0, 64, 0
1, 685380, Note_on_c, 0, 57, 50
1, 685440, Tempo, 373902
1, 685440, Note_on_c, 0, 57, 0
1, 685440, Note_on_c, 0, 72, 78
1, 685560, Note_on_c, 0, 79, 0
1, 685560, Note_on_c, 0, 76, 63
1, 685680, Note_on_c, 0, 76, 0
1, 685680, Note_on_c, 0, 77, 64
1, 685800, Note_on_c, 0, 77, 0
1, 685800, Note_on_c, 0, 79, 66
1, 685920, Note_on_c, 0, 79, 0
1, 685920, Note_on_c, 0, 72, 0
1, 685920, Note_on_c, 0, 81, 68
1, 685920, Note_on_c, 0, 71, 64
1, 686040, Note_on_c, 0, 71, 0
1, 686040, Note_on_c, 0, 81, 0
1, 686040, Note_on_c, 0, 83, 69
1, 686040, Note_on_c, 0, 69, 64
1, 686160, Tempo, 376176
1, 686160, Note_on_c, 0, 69, 0
1, 686160, Note_on_c, 0, 83, 0
1, 686160, Note_on_c, 0, 84, 72
1, 686160, Note_on_c, 0, 67, 65
1, 686180, Tempo, 377358
1, 686200, Tempo, 379747
1, 686220, Tempo, 382166
1, 686240, Tempo, 384615
1, 686260, Tempo, 387097
1, 686280, Tempo, 389610
1, 686280, Note_on_c, 0, 67, 0
1, 686280, Note_on_c, 0, 84, 0
1, 686280, Note_on_c, 0, 81, 73
1, 686280, Note_on_c, 0, 65, 64
1, 686300, Tempo, 392157
1, 686340, Tempo, 491159
1, 686340, Note_on_c, 0, 65, 0
1, 686340, Note_on_c, 0, 59, 54
1, 686400, Tempo, 373902
1, 686400, Note_on_c, 0, 59, 0
1, 686400, Note_on_c, 0, 74, 81
1, 686520, Note_on_c, 0, 81, 0
1, 686520, Note_on_c, 0, 78, 66
1, 686640, Note_on_c, 0, 78, 0
1, 686640, Note_on_c, 0, 79, 66
1, 686760, Note_on_c, 0, 79, 0
1, 686760, Note_on_c, 0, 81, 68
1, 686880, Note_on_c, 0, 81, 0
1, 686880, Note_on_c, 0, 74, 0
1, 686880, Note_on_c, 0, 83, 70
1, 686880, Note_on_c, 0, 72, 67
1, 687000, Note_on_c, 0, 72, 0
1, 687000, Note_on_c, 0, 83, 0
1, 687000, Note_on_c, 0, 84, 71
1, 687000, Note_on_c, 0, 71, 67
1, 687100, Tempo, 376176
1, 687120, Tempo, 377358
1, 687120, Note_on_c, 0, 71, 0
1, 687120, Note_on_c, 0, 84, 0
1, 687120, Note_on_c, 0, 86, 74
1, 687120, Note_on_c, 0, 69, 67
1, 687140, Tempo, 379747
1, 687160, Tempo, 380952
1, 687180, Tempo, 383387
1, 687200, Tempo, 384615
1, 687220, Tempo, 387097
1, 687240, Tempo, 389610
1, 687240, Note_on_c, 0, 69, 0
1, 687240, Note_on_c, 0, 86, 0
1, 687240, Note_on_c, 0, 83, 75
1, 687240, Note_on_c, 0, 67, 66
1, 687300, Tempo, 478965
1, 687300, Note_on_c, 0, 67, 0
1, 687300, Note_on_c, 0, 60, 56
1, 687360, Tempo, 373902
1, 687360, Note_on_c, 0, 60, 0
1, 687360, Note_on_c, 0, 76, 84
1, 687480, Note_on_c, 0, 83, 0
1, 687480, Note_on_c, 0, 80, 69
1, 687600, Note_on_c, 0, 80, 0
1, 687600, Note_on_c, 0, 81, 69
1, 687720, Note_on_c, 0, 81, 0
1, 687720, Note_on_c, 0, 83, 71
1, 687840, Note_on_c, 0, 83, 0
1, 687840, Note_on_c, 0, 76, 0
1, 687840, Note_on_c, 0, 84, 73
1, 687840, Note_on_c, 0, 74, 69
1, 687960, Note_on_c, 0, 74, 0
1, 687960, Note_on_c, 0, 84, 0
1, 687960, Note_on_c, 0, 86, 74
1, 687960, Note_on_c, 0, 72, 70
1, 688060, Tempo, 376176
1, 688080, Tempo, 379747
1, 688080, Note_on_c, 0, 72, 0
1, 688080, Note_on_c, 0, 86, 0
1, 688080, Note_on_c, 0, 88, 77
1, 688080, Note_on_c, 0, 71, 70
1, 688100, Tempo, 384615
1, 688120, Tempo, 389610
1, 688140, Tempo, 394737
1, 688160, Tempo, 400000
1, 688180, Tempo, 405405
1, 688200, Note_on_c, 0, 71, 0
1, 688200, Note_on_c, 0, 88, 0
1, 688200, Note_on_c, 0, 84, 79
1, 688200, Note_on_c, 0, 69, 69
1, 688260, Tempo, 478965
1, 688260, Note_on_c, 0, 69, 0
1, 688260, Note_on_c, 0, 62, 58
1, 688320, Tempo, 373902
1, 688320, Note_on_c, 0, 62, 0
1, 688320, Note_on_c, 0, 77, 87
1, 688440, Note_on_c, 0, 84, 0
1, 688440, Note_on_c, 0, 82, 71
1, 688560, Note_on_c, 0, 82, 0
1, 688560, Note_on_c, 0, 83, 71
1, 688680, Note_on_c, 0, 83, 0
1, 688680, Note_on_c, 0, 84, 74
1, 688800, Note_on_c, 0, 84, 0
1, 688800, Note_on_c, 0, 77, 0
1, 688800, Note_on_c, 0, 86, 75
1, 688800, Note_on_c, 0, 76, 71
1, 688920, Note_on_c, 0, 76, 0
1, 688920, Note_on_c, 0, 86, 0
1, 688920, Note_on_c, 0, 88, 77
1, 688920, Note_on_c, 0, 74, 72
1, 689020, Tempo, 376176
1, 689040, Tempo, 377358
1, 689040, Note_on_c, 0, 74, 0
1, 689040, Note_on_c, 0, 88, 0
1, 689040, Note_on_c, 0, 89, 79
1, 689040, Note_on_c, 0, 72, 72
1, 689060, Tempo, 379747
1, 689080, Tempo, 380952
1, 689100, Tempo, 383387
1, 689120, Tempo, 384615
1, 689140, Tempo, 387097
1, 689160, Tempo, 388350
1, 689160, Note_on_c, 0, 72, 0
1, 689160, Note_on_c, 0, 89, 0
1, 689160, Note_on_c, 0, 86, 81
1, 689160, Note_on_c, 0, 71, 71
1, 689180, Tempo, 390879
1, 689200, Tempo, 392157
1, 689220, Tempo, 394737
1, 689240, Tempo, 397351
1, 689280, Tempo, 382555
1, 689280, Note_on_c, 0, 71, 0
1, 689280, Note_on_c, 0, 86, 0
1, 689280, Note_on_c, 0, 64, 78
1, 689317, Control_c, 0, 64, 127
1, 689360, Note_on_c, 0, 64, 0
1, 689360, Note_on_c, 0, 72, 74
1, 689440, Note_on_c, 0, 72, 0
1, 689440, Note_on_c, 0, 76, 74
1, 689520, Note_on_c, 0, 76, 0
1, 689520, Note_on_c, 0, 79, 76
1, 689600, Note_on_c, 0, 79, 0
1, 689600, Note_on_c, 0, 84, 69
1, 689680, Note_on_c, 0, 84, 0
1, 689680, Note_on_c, 0, 91, 70
1, 689760, Note_on_c, 0, 91, 0
1, 689760, Note_on_c, 0, 64, 79
1, 689840, Note_on_c, 0, 64, 0
1, 689840, Note_on_c, 0, 72, 74
1, 689920, Note_on_c, 0, 72, 0
1, 689920, Note_on_c, 0, 76, 75
1, 690000, Note_on_c, 0, 76, 0
1, 690000, Note_on_c, 0, 79, 78
1, 690080, Note_on_c, 0, 79, 0
1, 690080, Note_on_c, 0, 84, 72
1, 690160, Note_on_c, 0, 84, 0
1, 690160, Note_on_c, 0, 91, 71
1, 690240, Tempo, 381291
1, 690240, Note_on_c, 0, 91, 0
1, 690240, Note_on_c, 0, 64, 81
1, 690259, Control_c, 0, 64, 0
1, 690297, Control_c, 0, 64, 127
1, 690320, Tempo, 382555
1, 690320, Note_on_c, 0, 64, 0
1, 690320, Note_on_c, 0, 72, 77
1, 690400, Tempo, 383803
1, 690400, Note_on_c, 0, 72, 0
1, 690400, Note_on_c, 0, 76, 77
1, 690480, Tempo, 385084
1, 690480, Note_on_c, 0, 76, 0
1, 690480, Note_on_c, 0, 80, 80
1, 690560, Tempo, 386374
1, 690560, Note_on_c, 0, 80, 0
1, 690560, Note_on_c, 0, 84, 73
1, 690640, Tempo, 387672
1, 690640, Note_on_c, 0, 84, 0
1, 690640, Note_on_c, 0, 92, 74
1, 690720, Tempo, 388954
1, 690720, Note_on_c, 0, 92, 0
1, 690720, Note_on_c, 0, 64, 81
1, 690800, Tempo, 390269
1, 690800, Note_on_c, 0, 64, 0
1, 690800, Note_on_c, 0, 72, 78
1, 690880, Tempo, 391594
1, 690880, Note_on_c, 0, 72, 0
1, 690880, Note_on_c, 0, 76, 79
1, 690960, Tempo, 392927
1, 690960, Note_on_c, 0, 76, 0
1, 690960, Note_on_c, 0, 80, 82
1, 691040, Tempo, 394244
1, 691040, Note_on_c, 0, 80, 0
1, 691040, Note_on_c, 0, 84, 75
1, 691120, Tempo, 395596
1, 691120, Note_on_c, 0, 84, 0
1, 691120, Note_on_c, 0, 92, 75
1, 691180, Tempo, 396957
1, 691200, Tempo, 402468
1, 691200, Note_on_c, 0, 92, 0
1, 691200, Note_on_c, 0, 81, 85
1, 691200, Note_on_c, 0, 72, 75
1, 691200, Note_on_c, 0, 77, 75
1, 691200, Note_on_c, 0, 65, 75
1, 691221, Control_c, 0, 64, 0
1, 691285, Control_c, 0, 64, 127
1, 691320, Tempo, 375117
1, 691320, Note_on_c, 0, 81, 0
1, 691320, Note_on_c, 0, 93, 88
1, 691360, Tempo, 373832
1, 691440, Note_on_c, 0, 93, 0
1, 691440, Note_on_c, 0, 91, 87
1, 691560, Note_on_c, 0, 91, 0
1, 691560, Note_on_c, 0, 89, 86
1, 691680, Note_on_c, 0, 89, 0
1, 691680, Note_on_c, 0, 65, 0
1, 691680, Note_on_c, 0, 77, 0
1, 691680, Note_on_c, 0, 72, 0
1, 691680, Note_on_c, 0, 88, 86
1, 691800, Note_on_c, 0, 88, 0
1, 691800, Note_on_c, 0, 86, 85
1, 691920, Note_on_c, 0, 86, 0
1, 691920, Note_on_c, 0, 84, 84
1, 692040, Note_on_c, 0, 84, 0
1, 692040, Note_on_c, 0, 83, 83
1, 692160, Note_on_c, 0, 83, 0
1, 692160, Note_on_c, 0, 81, 82
1, 692200, Tempo, 375000
1, 692280, Note_on_c, 0, 81, 0
1, 692280, Note_on_c, 0, 79, 81
1, 692400, Note_on_c, 0, 79, 0
1, 692400, Note_on_c, 0, 77, 80
1, 692520, Note_on_c, 0, 77, 0
1, 692520, Note_on_c, 0, 76, 79
1, 692640, Note_on_c, 0, 76, 0
1, 692640, Note_on_c, 0, 74, 78
1, 692760, Note_on_c, 0, 74, 0
1, 692760, Note_on_c, 0, 72, 77
1, 692880, Note_on_c, 0, 72, 0
1, 692880, Note_on_c, 0, 71, 77
1, 693000, Note_on_c, 0, 71, 0
1, 693000, Note_on_c, 0, 69, 76
1, 693040, Tempo, 376176
1, 693120, Note_on_c, 0, 69, 0
1, 693120, Note_on_c, 0, 68, 75
1, 693120, Control_c, 0, 64, 0
1, 693183, Control_c, 0, 64, 127
1, 693240, Note_on_c, 0, 68, 0
1, 693240, Note_on_c, 0, 69, 78
1, 693360, Note_on_c, 0, 69, 0
1, 693360, Note_on_c, 0, 67, 77
1, 693480, Note_on_c, 0, 67, 0
1, 693480, Note_on_c, 0, 65, 77
1, 693600, Note_on_c, 0, 65, 0
1, 693600, Note_on_c, 0, 64, 77
1, 693600, Note_on_c, 0, 29, 75
1, 693608, Control_c, 0, 64, 0
1, 693675, Control_c, 0, 64, 127
1, 693720, Note_on_c, 0, 64, 0
1, 693720, Note_on_c, 0, 62, 77
1, 693840, Note_on_c, 0, 62, 0
1, 693840, Note_on_c, 0, 60, 76
1, 693960, Note_on_c, 0, 60, 0
1, 693960, Note_on_c, 0, 59, 76
1, 694040, Tempo, 375000
1, 694080, Note_on_c, 0, 59, 0
1, 694080, Note_on_c, 0, 57, 76
1, 694096, Control_c, 0, 64, 0
1, 694160, Tempo, 375000
1, 694166, Control_c, 0, 64, 127
1, 694200, Note_on_c, 0, 57, 0
1, 694200, Note_on_c, 0, 29, 0
1, 694200, Note_on_c, 0, 55, 75
1, 694200, Note_on_c, 0, 31, 68
1, 694320, Note_on_c, 0, 31, 0
1, 694320, Note_on_c, 0, 55, 0
1, 694320, Note_on_c, 0, 53, 75
1, 694320, Note_on_c, 0, 33, 69
1, 694400, Tempo, 376176
1, 694440, Note_on_c, 0, 33, 0
1, 694440, Note_on_c, 0, 53, 0
1, 694440, Note_on_c, 0, 52, 75
1, 694440, Note_on_c, 0, 35, 70
1, 694560, Note_on_c, 0, 35, 0
1, 694560, Note_on_c, 0, 52, 0
1, 694560, Note_on_c, 0, 50, 75
1, 694560, Note_on_c, 0, 36, 71
1, 694572, Control_c, 0, 64, 0
1, 694600, Tempo, 377358
1, 694640, Control_c, 0, 64, 127
1, 694680, Note_on_c, 0, 36, 0
1, 694680, Note_on_c, 0, 50, 0
1, 694680, Note_on_c, 0, 48, 74
1, 694680, Note_on_c, 0, 38, 73
1, 694800, Note_on_c, 0, 38, 0
1, 694800, Note_on_c, 0, 48, 0
1, 694800, Note_on_c, 0, 47, 74
1, 694800, Note_on_c, 0, 40, 74
1, 694840, Tempo, 378549
1, 694920, Note_on_c, 0, 40, 0
1, 694920, Note_on_c, 0, 47, 0
1, 694920, Note_on_c, 0, 45, 74
1, 694920, Note_on_c, 0, 41, 75
1, 695040, Tempo, 379747
1, 695040, Note_on_c, 0, 41, 0
1, 695040, Note_on_c, 0, 45, 0
1, 695040, Note_on_c, 0, 43, 75
1, 695040, Note_on_c, 0, 31, 63
1, 695040, Note_on_c, 0, 36, 63
1, 695040, Note_on_c, 0, 40, 75
1, 695053, Control_c, 0, 64, 0
1, 695080, Tempo, 379747
1, 695160, Note_on_c, 0, 43, 0
1, 695160, Note_on_c, 0, 48, 75
1, 695280, Note_on_c, 0, 48, 0
1, 695280, Note_on_c, 0, 47, 47
1, 695400, Note_on_c, 0, 47, 0
1, 695400, Note_on_c, 0, 50, 47
1, 695520, Note_on_c, 0, 50, 0
1, 695520, Note_on_c, 0, 40, 0
1, 695520, Note_on_c, 0, 36, 0
1, 695520, Note_on_c, 0, 31, 0
1, 695520, Note_on_c, 0, 48, 47
1, 695640, Note_on_c, 0, 48, 0
1, 695640, Note_on_c, 0, 52, 48
1, 695760, Note_on_c, 0, 52, 0
1, 695760, Note_on_c, 0, 51, 48
1, 695880, Note_on_c, 0, 51, 0
1, 695880, Note_on_c, 0, 53, 48
1, 696000, Note_on_c, 0, 53, 0
1, 696000, Note_on_c, 0, 52, 48
1, 696040, Tempo, 378549
1, 696120, Note_on_c, 0, 52, 0
1, 696120, Note_on_c, 0, 55, 49
1, 696240, Note_on_c, 0, 55, 0
1, 696240, Note_on_c, 0, 54, 49
1, 696360, Note_on_c, 0, 54, 0
1, 696360, Note_on_c, 0, 57, 49
1, 696480, Note_on_c, 0, 57, 0
1, 696480, Note_on_c, 0, 55, 50
1, 696600, Note_on_c, 0, 55, 0
1, 696600, Note_on_c, 0, 60, 50
1, 696720, Note_on_c, 0, 60, 0
1, 696720, Note_on_c, 0, 59, 50
1, 696840, Note_on_c, 0, 59, 0
1, 696840, Note_on_c, 0, 62, 51
1, 696960, Tempo, 375000
1, 696960, Note_on_c, 0, 62, 0
1, 696960, Note_on_c, 0, 60, 51
1, 697080, Note_on_c, 0, 60, 0
1, 697080, Note_on_c, 0, 64, 51
1, 697200, Note_on_c, 0, 64, 0
1, 697200, Note_on_c, 0, 63, 52
1, 697320, Note_on_c, 0, 63, 0
1, 697320, Note_on_c, 0, 65, 52
1, 697440, Note_on_c, 0, 65, 0
1, 697440, Note_on_c, 0, 64, 52
1, 697560, Note_on_c, 0, 64, 0
1, 697560, Note_on_c, 0, 67, 53
1, 697680, Note_on_c, 0, 67, 0
1, 697680, Note_on_c, 0, 66, 53
1, 697800, Note_on_c, 0, 66, 0
1, 697800, Note_on_c, 0, 69, 53
1, 697920, Note_on_c, 0, 69, 0
1, 697920, Note_on_c, 0, 67, 54
1, 698040, Note_on_c, 0, 67, 0
1, 698040, Note_on_c, 0, 72, 54
1, 698160, Note_on_c, 0, 72, 0
1, 698160, Note_on_c, 0, 71, 54
1, 698280, Note_on_c, 0, 71, 0
1, 698280, Note_on_c, 0, 74, 55
1, 698400, Note_on_c, 0, 74, 0
1, 698400, Note_on_c, 0, 72, 55
1, 698520, Note_on_c, 0, 72, 0
1, 698520, Note_on_c, 0, 76, 55
1, 698640, Note_on_c, 0, 76, 0
1, 698640, Note_on_c, 0, 75, 56
1, 698760, Note_on_c, 0, 75, 0
1, 698760, Note_on_c, 0, 77, 56
1, 698880, Note_on_c, 0, 77, 0
1, 698880, Note_on_c, 0, 76, 56
1, 699000, Note_on_c, 0, 76, 0
1, 699000, Note_on_c, 0, 79, 58
1, 699120, Note_on_c, 0, 79, 0
1, 699120, Note_on_c, 0, 78, 60
1, 699240, Tempo, 429307
1, 699240, Note_on_c, 0, 78, 0
1, 699240, Note_on_c, 0, 81, 62
1, 699360, Tempo, 375117
1, 699360, Note_on_c, 0, 81, 0
1, 699360, Note_on_c, 0, 79, 70
1, 699420, Note_on_c, 0, 79, 0
1, 699480, Note_on_c, 0, 84, 62
1, 699480, Note_on_c, 0, 76, 52
1, 699530, Control_c, 0, 64, 127
1, 699600, Note_on_c, 0, 76, 0
1, 699600, Note_on_c, 0, 84, 0
1, 699600, Note_on_c, 0, 83, 62
1, 699600, Note_on_c, 0, 75, 52
1, 699720, Tempo, 412371
1, 699720, Note_on_c, 0, 75, 0
1, 699720, Note_on_c, 0, 83, 0
1, 699720, Note_on_c, 0, 84, 63
1, 699720, Note_on_c, 0, 76, 53
1, 699840, Tempo, 375000
1, 699840, Note_on_c, 0, 76, 0
1, 699840, Note_on_c, 0, 84, 0
1, 699840, Note_on_c, 0, 79, 70
1, 699840, Note_on_c, 0, 67, 60
1, 699847, Control_c, 0, 64, 0
1, 699900, Note_on_c, 0, 67, 0
1, 699900, Note_on_c, 0, 79, 0
1, 699960, Note_on_c, 0, 88, 63
1, 699960, Note_on_c, 0, 72, 54
1, 699967, Control_c, 0, 64, 127
1, 700080, Note_on_c, 0, 72, 0
1, 700080, Note_on_c, 0, 88, 0
1, 700080, Note_on_c, 0, 87, 64
1, 700080, Note_on_c, 0, 71, 55
1, 700200, Tempo, 400000
1, 700200, Note_on_c, 0, 71, 0
1, 700200, Note_on_c, 0, 87, 0
1, 700200, Note_on_c, 0, 88, 65
1, 700200, Note_on_c, 0, 72, 55
1, 700320, Tempo, 375000
1, 700320, Note_on_c, 0, 72, 0
1, 700320, Note_on_c, 0, 88, 0
1, 700320, Note_on_c, 0, 79, 72
1, 700320, Note_on_c, 0, 67, 61
1, 700341, Control_c, 0, 64, 0
1, 700380, Note_on_c, 0, 67, 0
1, 700380, Note_on_c, 0, 79, 0
1, 700440, Note_on_c, 0, 84, 65
1, 700440, Note_on_c, 0, 76, 56
1, 700465, Control_c, 0, 64, 127
1, 700560, Note_on_c, 0, 76, 0
1, 700560, Note_on_c, 0, 84, 0
1, 700560, Note_on_c, 0, 83, 66
1, 700560, Note_on_c, 0, 75, 56
1, 700680, Tempo, 398671
1, 700680, Note_on_c, 0, 75, 0
1, 700680, Note_on_c, 0, 83, 0
1, 700680, Note_on_c, 0, 84, 66
1, 700680, Note_on_c, 0, 76, 56
1, 700800, Tempo, 375000
1, 700800, Note_on_c, 0, 76, 0
1, 700800, Note_on_c, 0, 84, 0
1, 700800, Note_on_c, 0, 79, 74
1, 700800, Note_on_c, 0, 67, 63
1, 700807, Control_c, 0, 64, 0
1, 700860, Note_on_c, 0, 67, 0
1, 700860, Note_on_c, 0, 79, 0
1, 700920, Tempo, 375000
1, 700920, Note_on_c, 0, 88, 67
1, 700920, Note_on_c, 0, 72, 57
1, 700956, Control_c, 0, 64, 127
1, 701040, Note_on_c, 0, 72, 0
1, 701040, Note_on_c, 0, 88, 0
1, 701040, Note_on_c, 0, 87, 68
1, 701040, Note_on_c, 0, 71, 58
1, 701160, Tempo, 394737
1, 701160, Note_on_c, 0, 71, 0
1, 701160, Note_on_c, 0, 87, 0
1, 701160, Note_on_c, 0, 88, 68
1, 701160, Note_on_c, 0, 72, 58
1, 701280, Tempo, 375000
1, 701280, Note_on_c, 0, 72, 0
1, 701280, Note_on_c, 0, 88, 0
1, 701280, Note_on_c, 0, 79, 76
1, 701280, Note_on_c, 0, 67, 65
1, 701292, Control_c, 0, 64, 0
1, 701340, Note_on_c, 0, 67, 0
1, 701340, Note_on_c, 0, 79, 0
1, 701400, Note_on_c, 0, 84, 69
1, 701400, Note_on_c, 0, 76, 59
1, 701467, Control_c, 0, 64, 127
1, 701520, Note_on_c, 0, 76, 0
1, 701520, Note_on_c, 0, 84, 0
1, 701520, Note_on_c, 0, 83, 69
1, 701520, Note_on_c, 0, 75, 59
1, 701640, Tempo, 393443
1, 701640, Note_on_c, 0, 75, 0
1, 701640, Note_on_c, 0, 83, 0
1, 701640, Note_on_c, 0, 84, 70
1, 701640, Note_on_c, 0, 76, 59
1, 701760, Tempo, 376176
1, 701760, Note_on_c, 0, 76, 0
1, 701760, Note_on_c, 0, 84, 0
1, 701760, Note_on_c, 0, 79, 78
1, 701760, Note_on_c, 0, 67, 67
1, 701774, Control_c, 0, 64, 0
1, 701820, Note_on_c, 0, 67, 0
1, 701820, Note_on_c, 0, 79, 0
1, 701880, Note_on_c, 0, 88, 71
1, 701880, Note_on_c, 0, 72, 60
1, 701919, Control_c, 0, 64, 127
1, 702000, Note_on_c, 0, 72, 0
1, 702000, Note_on_c, 0, 88, 0
1, 702000, Note_on_c, 0, 87, 71
1, 702000, Note_on_c, 0, 71, 60
1, 702120, Note_on_c, 0, 71, 0
1, 702120, Note_on_c, 0, 87, 0
1, 702120, Note_on_c, 0, 88, 71
1, 702120, Note_on_c, 0, 72, 61
1, 702240, Tempo, 375117
1, 702240, Note_on_c, 0, 72, 0
1, 702240, Note_on_c, 0, 88, 0
1, 702240, Note_on_c, 0, 79, 80
1, 702240, Note_on_c, 0, 67, 69
1, 702254, Control_c, 0, 64, 0
1, 702280, Tempo, 378788
1, 702300, Note_on_c, 0, 67, 0
1, 702300, Note_on_c, 0, 79, 0
1, 702320, Tempo, 382555
1, 702360, Tempo, 386374
1, 702360, Note_on_c, 0, 84, 72
1, 702360, Note_on_c, 0, 76, 62
1, 702396, Control_c, 0, 64, 127
1, 702400, Tempo, 390269
1, 702440, Tempo, 395596
1, 702480, Tempo, 408136
1, 702480, Note_on_c, 0, 76, 0
1, 702480, Note_on_c, 0, 84, 0
1, 702480, Note_on_c, 0, 83, 73
1, 702480, Note_on_c, 0, 75, 62
1, 702520, Tempo, 432495
1, 702560, Tempo, 469263
1, 702600, Tempo, 512908
1, 702600, Note_on_c, 0, 75, 0
1, 702600, Note_on_c, 0, 83, 0
1, 702600, Note_on_c, 0, 84, 73
1, 702600, Note_on_c, 0, 76, 63
1, 702720, Tempo, 594059
1, 702720, Note_on_c, 0, 76, 0
1, 702720, Note_on_c, 0, 84, 0
1, 702720, Note_on_c, 0, 89, 87
1, 702720, Note_on_c, 0, 83, 87
1, 702720, Note_on_c, 0, 74, 73
1, 702720, Note_on_c, 0, 67, 73
1, 702720, Note_on_c, 0, 77, 73
1, 702727, Control_c, 0, 64, 0
1, 702798, Control_c, 0, 64, 127
1, 703901, Tempo, 547945
1, 703920, Note_on_c, 0, 83, 0
1, 703920, Note_on_c, 0, 89, 0
1, 703920, Note_on_c, 0, 89, 73
1, 703965, Tempo, 550459
1, 703980, Note_on_c, 0, 89, 0
1, 703980, Note_on_c, 0, 88, 73
1, 704021, Tempo, 552995
1, 704040, Note_on_c, 0, 88, 0
1, 704040, Note_on_c, 0, 86, 72
1, 704073, Tempo, 555556
1, 704100, Note_on_c, 0, 86, 0
1, 704100, Note_on_c, 0, 84, 71
1, 704125, Tempo, 558140
1, 704160, Note_on_c, 0, 84, 0
1, 704160, Note_on_c, 0, 83, 70
1, 704181, Tempo, 560748
1, 704220, Note_on_c, 0, 83, 0
1, 704220, Note_on_c, 0, 81, 69
1, 704233, Tempo, 563380
1, 704280, Note_on_c, 0, 81, 0
1, 704280, Note_on_c, 0, 79, 68
1, 704285, Tempo, 566038
1, 704340, Note_on_c, 0, 79, 0
1, 704340, Note_on_c, 0, 77, 68
1, 704341, Tempo, 568720
1, 704393, Tempo, 571429
1, 704400, Note_on_c, 0, 77, 0
1, 704400, Note_on_c, 0, 76, 66
1, 704445, Tempo, 574163
1, 704460, Note_on_c, 0, 76, 0
1, 704460, Note_on_c, 0, 74, 66
1, 704501, Tempo, 576923
1, 704520, Tempo, 571429
1, 704520, Note_on_c, 0, 74, 0
1, 704520, Note_on_c, 0, 72, 65
1, 704540, Tempo, 588235
1, 704560, Tempo, 609137
1, 704580, Tempo, 628272
1, 704580, Note_on_c, 0, 72, 0
1, 704580, Note_on_c, 0, 71, 65
1, 704600, Tempo, 648649
1, 704620, Tempo, 674157
1, 704640, Tempo, 621762
1, 704640, Note_on_c, 0, 71, 0
1, 704640, Note_on_c, 0, 67, 0
1, 704640, Note_on_c, 0, 74, 0
1, 704640, Note_on_c, 0, 77, 0
1, 704640, Note_on_c, 0, 71, 78
1, 704640, Note_on_c, 0, 77, 78
1, 704640, Note_on_c, 0, 65, 65
1, 704640, Note_on_c, 0, 55, 65
1, 704640, Note_on_c, 0, 62, 65
1, 704658, Control_c, 0, 64, 0
1, 704732, Control_c, 0, 64, 127
1, 706060, Tempo, 659341
1, 706080, Tempo, 662983
1, 706080, Note_on_c, 0, 77, 0
1, 706080, Note_on_c, 0, 71, 0
1, 706080, Note_on_c, 0, 77, 64
1, 706100, Tempo, 666667
1, 706120, Tempo, 670391
1, 706140, Tempo, 674157
1, 706140, Note_on_c, 0, 77, 0
1, 706140, Note_on_c, 0, 76, 62
1, 706160, Tempo, 681818
1, 706180, Tempo, 685714
1, 706200, Tempo, 689655
1, 706200, Note_on_c, 0, 76, 0
1, 706200, Note_on_c, 0, 74, 60
1, 706220, Tempo, 693642
1, 706240, Tempo, 697674
1, 706260, Tempo, 705882
1, 706260, Note_on_c, 0, 74, 0
1, 706260, Note_on_c, 0, 72, 60
1, 706280, Tempo, 710059
1, 706300, Tempo, 714286
1, 706320, Tempo, 718563
1, 706320, Note_on_c, 0, 72, 0
1, 706320, Note_on_c, 0, 71, 60
1, 706340, Tempo, 722892
1, 706360, Tempo, 731707
1, 706380, Tempo, 750000
1, 706380, Note_on_c, 0, 71, 0
1, 706380, Note_on_c, 0, 69, 59
1, 706400, Tempo, 769231
1, 706420, Tempo, 794702
1, 706440, Tempo, 816327
1, 706440, Note_on_c, 0, 69, 0
1, 706440, Note_on_c, 0, 67, 56
1, 706460, Tempo, 845070
1, 706480, Tempo, 869565
1, 706500, Tempo, 902256
1, 706500, Note_on_c, 0, 67, 0
1, 706500, Note_on_c, 0, 65, 54
1, 706520, Tempo, 930233
1, 706540, Tempo, 967742
1, 706560, Tempo, 445203
1, 706560, Note_on_c, 0, 65, 0
1, 706560, Note_on_c, 0, 55, 0
1, 706560, Note_on_c, 0, 65, 0
1, 706560, Note_on_c, 0, 62, 0
1, 706560, Note_on_c, 0, 55, 42
1, 706560, Note_on_c, 0, 60, 42
1, 706560, Note_on_c, 0, 64, 50
1, 706560, Note_on_c, 0, 48, 39
1, 706560, Note_on_c, 0, 36, 33
1, 706567, Control_c, 0, 64, 0
1, 707520, Tempo, 435445
1, 707520, Note_on_c, 0, 36, 0
1, 707520, Note_on_c, 0, 64, 0
1, 707520, Note_on_c, 0, 55, 0
1, 707520, Note_on_c, 0, 60, 0
1, 707520, Note_on_c, 0, 48, 0
1, 707520, Note_on_c, 0, 53, 40
1, 707520, Note_on_c, 0, 59, 40
1, 707520, Note_on_c, 0, 62, 48
1, 707520, Note_on_c, 0, 44, 29
1, 707520, Note_on_c, 0, 32, 29
1, 708000, Tempo, 460759
1, 708000, Note_on_c, 0, 32, 0
1, 708000, Note_on_c, 0, 62, 0
1, 708000, Note_on_c, 0, 53, 0
1, 708000, Note_on_c, 0, 59, 0
1, 708000, Note_on_c, 0, 44, 0
1, 708000, Note_on_c, 0, 52, 40
1, 708000, Note_on_c, 0, 57, 40
1, 708000, Note_on_c, 0, 60, 48
1, 708000, Note_on_c, 0, 45, 35
1, 708000, Note_on_c, 0, 33, 29
1, 708480, Tempo, 446894
1, 708480, Note_on_c, 0, 33, 0
1, 708480, Note_on_c, 0, 60, 0
1, 708480, Note_on_c, 0, 52, 0
1, 708480, Note_on_c, 0, 57, 0
1, 708480, Note_on_c, 0, 45, 0
1, 708480, Note_on_c, 0, 50, 42
1, 708480, Note_on_c, 0, 56, 42
1, 708480, Note_on_c, 0, 59, 50
1, 708480, Note_on_c, 0, 40, 39
1, 709440, Note_on_c, 0, 40, 0
1, 709440, Note_on_c, 0, 50, 0
1, 709440, Note_on_c, 0, 56, 0
1, 709440, Note_on_c, 0, 59, 0
1, 709440, Note_on_c, 0, 48, 40
1, 709440, Note_on_c, 0, 57, 48
1, 709440, Note_on_c, 0, 41, 34
1, 709920, Tempo, 468019
1, 710400, Tempo, 450281
1, 710400, Note_on_c, 0, 41, 0
1, 710400, Note_on_c, 0, 57, 0
1, 710400, Note_on_c, 0, 48, 0
1, 710400, Note_on_c, 0, 65, 45
1, 710400, Note_on_c, 0, 67, 45
1, 710400, Note_on_c, 0, 71, 53
1, 710400, Note_on_c, 0, 53, 41
1, 710400, Note_on_c, 0, 55, 34
1, 710400, Note_on_c, 0, 59, 41
1, 710400, Note_on_c, 0, 50, 34
1, 711360, Tempo, 440270
1, 711360, Note_on_c, 0, 50, 0
1, 711360, Note_on_c, 0, 55, 0
1, 711360, Note_on_c, 0, 67, 0
1, 711360, Note_on_c, 0, 71, 0
1, 711360, Note_on_c, 0, 65, 0
1, 711360, Note_on_c, 0, 59, 0
1, 711360, Note_on_c, 0, 53, 0
1, 711360, Note_on_c, 0, 67, 47
1, 711360, Note_on_c, 0, 72, 56
1, 711360, Note_on_c, 0, 55, 38
1, 711360, Note_on_c, 0, 60, 46
1, 711360, Note_on_c, 0, 52, 38
1, 711840, Tempo, 487211
1, 711840, Note_on_c, 0, 52, 0
1, 711840, Note_on_c, 0, 55, 0
1, 711840, Note_on_c, 0, 67, 0
1, 711840, Note_on_c, 0, 72, 0
1, 711840, Note_on_c, 0, 60, 0
1, 711840, Note_on_c, 0, 69, 51
1, 711840, Note_on_c, 0, 72, 51
1, 711840, Note_on_c, 0, 74, 62
1, 711840, Note_on_c, 0, 62, 51
1, 711840, Note_on_c, 0, 53, 43
1, 711840, Note_on_c, 0, 60, 43
1, 711840, Note_on_c, 0, 57, 43
1, 712320, Tempo, 446894
1, 712320, Note_on_c, 0, 57, 0
1, 712320, Note_on_c, 0, 53, 0
1, 712320, Note_on_c, 0, 72, 0
1, 712320, Note_on_c, 0, 74, 0
1, 712320, Note_on_c, 0, 69, 0
1, 712320, Note_on_c, 0, 60, 0
1, 712320, Note_on_c, 0, 62, 0
1, 712320, Note_on_c, 0, 67, 56
1, 712320, Note_on_c, 0, 72, 56
1, 712320, Note_on_c, 0, 76, 67
1, 712320, Note_on_c, 0, 55, 46
1, 712320, Note_on_c, 0, 60, 46
1, 712320, Note_on_c, 0, 64, 56
1, 713280, Tempo, 451977
1, 713280, Note_on_c, 0, 64, 0
1, 713280, Note_on_c, 0, 72, 0
1, 713280, Note_on_c, 0, 76, 0
1, 713280, Note_on_c, 0, 60, 0
1, 713280, Note_on_c, 0, 71, 50
1, 713280, Note_on_c, 0, 74, 60
1, 713280, Note_on_c, 0, 59, 41
1, 713280, Note_on_c, 0, 62, 49
1, 713760, Tempo, 471735
1, 713760, Note_on_c, 0, 67, 0
1, 713760, Note_on_c, 0, 79, 50
1, 714000, Note_on_c, 0, 79, 0
1, 714000, Note_on_c, 0, 77, 49
1, 714240, Tempo, 439560
1, 714240, Note_on_c, 0, 77, 0
1, 714240, Note_on_c, 0, 71, 0
1, 714240, Note_on_c, 0, 74, 0
1, 714240, Note_on_c, 0, 55, 0
1, 714240, Note_on_c, 0, 62, 0
1, 714240, Note_on_c, 0, 59, 0
1, 714240, Note_on_c, 0, 76, 50
1, 714240, Note_on_c, 0, 72, 42
1, 714720, Note_on_c, 0, 88, 52
1, 714720, Note_on_c, 0, 84, 44
1, 715200, Tempo, 428571
1, 715200, Note_on_c, 0, 84, 0
1, 715200, Note_on_c, 0, 76, 0
1, 715200, Note_on_c, 0, 72, 0
1, 715200, Note_on_c, 0, 88, 0
1, 715200, Note_on_c, 0, 86, 50
1, 715200, Note_on_c, 0, 83, 42
1, 715200, Note_on_c, 0, 77, 42
1, 715200, Note_on_c, 0, 74, 48
1, 715200, Note_on_c, 0, 68, 40
1, 715200, Note_on_c, 0, 71, 40
1, 715680, Tempo, 449270
1, 715680, Note_on_c, 0, 71, 0
1, 715680, Note_on_c, 0, 83, 0
1, 715680, Note_on_c, 0, 77, 0
1, 715680, Note_on_c, 0, 86, 0
1, 715680, Note_on_c, 0, 68, 0
1, 715680, Note_on_c, 0, 74, 0
1, 715680, Note_on_c, 0, 84, 50
1, 715680, Note_on_c, 0, 81, 42
1, 715680, Note_on_c, 0, 76, 42
1, 715680, Note_on_c, 0, 69, 40
1, 715680, Note_on_c, 0, 72, 48
1, 716160, Tempo, 435761
1, 716160, Note_on_c, 0, 72, 0
1, 716160, Note_on_c, 0, 76, 0
1, 716160, Note_on_c, 0, 84, 0
1, 716160, Note_on_c, 0, 81, 0
1, 716160, Note_on_c, 0, 69, 0
1, 716160, Note_on_c, 0, 74, 45
1, 716160, Note_on_c, 0, 80, 45
1, 716160, Note_on_c, 0, 83, 53
1, 716160, Note_on_c, 0, 64, 42
1, 716160, Note_on_c, 0, 68, 42
1, 716160, Note_on_c, 0, 71, 50
1, 717120, Tempo, 452796
1, 717120, Note_on_c, 0, 71, 0
1, 717120, Note_on_c, 0, 80, 0
1, 717120, Note_on_c, 0, 83, 0
1, 717120, Note_on_c, 0, 74, 0
1, 717120, Note_on_c, 0, 68, 0
1, 717120, Note_on_c, 0, 64, 0
1, 717120, Note_on_c, 0, 72, 42
1, 717120, Note_on_c, 0, 81, 50
1, 717120, Note_on_c, 0, 65, 40
1, 717120, Note_on_c, 0, 69, 48
1, 718080, Note_on_c, 0, 69, 0
1, 718080, Note_on_c, 0, 72, 0
1, 718080, Note_on_c, 0, 81, 0
1, 718080, Note_on_c, 0, 65, 0
1, 718080, Note_on_c, 0, 72, 45
1, 718080, Note_on_c, 0, 76, 45
1, 718080, Note_on_c, 0, 79, 53
1, 718080, Note_on_c, 0, 60, 34
1, 718080, Note_on_c, 0, 64, 40
1, 718080, Note_on_c, 0, 55, 34
1, 718560, Tempo, 471180
1, 718560, Note_on_c, 0, 64, 0
1, 718560, Note_on_c, 0, 60, 0
1, 718560, Note_on_c, 0, 76, 0
1, 718560, Note_on_c, 0, 72, 0
1, 718560, Note_on_c, 0, 74, 40
1, 718560, Note_on_c, 0, 77, 48
1, 718560, Note_on_c, 0, 65, 35
1, 718560, Note_on_c, 0, 62, 29
1, 719040, Tempo, 531726
1, 719040, Note_on_c, 0, 79, 0
1, 719040, Note_on_c, 0, 81, 53
1, 719520, Tempo, 1302366
1, 719520, Note_on_c, 0, 81, 0
1, 719520, Note_on_c, 0, 83, 51
1, 720000, Tempo, 485005
1, 720000, Note_on_c, 0, 83, 0
1, 720000, Note_on_c, 0, 74, 0
1, 720000, Note_on_c, 0, 77, 0
1, 720000, Note_on_c, 0, 55, 0
1, 720000, Note_on_c, 0, 62, 0
1, 720000, Note_on_c, 0, 65, 0
1, 720000, Note_on_c, 0, 60, 45
1, 720000, Note_on_c, 0, 64, 45
1, 720000, Note_on_c, 0, 67, 53
1, 720000, Note_on_c, 0, 43, 34
1, 720000, Note_on_c, 0, 52, 40
1, 720000, Note_on_c, 0, 48, 34
1, 720480, Tempo, 495336
1, 720480, Note_on_c, 0, 48, 0
1, 720480, Note_on_c, 0, 64, 0
1, 720480, Note_on_c, 0, 60, 0
1, 720480, Note_on_c, 0, 52, 0
1, 720480, Note_on_c, 0, 62, 40
1, 720480, Note_on_c, 0, 65, 48
1, 720480, Note_on_c, 0, 50, 29
1, 720480, Note_on_c, 0, 53, 35
1, 721920, Tempo, 515154
1, 721920, Note_on_c, 0, 67, 0
1, 721920, Note_on_c, 0, 68, 56
1, 722880, Tempo, 733676
1, 722880, Note_on_c, 0, 68, 0
1, 722880, Note_on_c, 0, 71, 46
1, 723840, Tempo, 485005
1, 723840, Note_on_c, 0, 71, 0
1, 723840, Note_on_c, 0, 62, 0
1, 723840, Note_on_c, 0, 65, 0
1, 723840, Note_on_c, 0, 43, 0
1, 723840, Note_on_c, 0, 53, 0
1, 723840, Note_on_c, 0, 50, 0
1, 723840, Note_on_c, 0, 48, 45
1, 723840, Note_on_c, 0, 52, 45
1, 723840, Note_on_c, 0, 55, 53
1, 723840, Note_on_c, 0, 31, 34
1, 723840, Note_on_c, 0, 36, 34
1, 723840, Note_on_c, 0, 40, 40
1, 724320, Tempo, 495336
1, 724320, Note_on_c, 0, 40, 0
1, 724320, Note_on_c, 0, 52, 0
1, 724320, Note_on_c, 0, 48, 0
1, 724320, Note_on_c, 0, 36, 0
1, 724320, Note_on_c, 0, 50, 40
1, 724320, Note_on_c, 0, 53, 48
1, 724320, Note_on_c, 0, 38, 29
1, 724320, Note_on_c, 0, 41, 35
1, 725760, Tempo, 515154
1, 725760, Note_on_c, 0, 55, 0
1, 725760, Note_on_c, 0, 57, 56
1, 726720, Tempo, 733676
1, 726720, Note_on_c, 0, 57, 0
1, 726720, Note_on_c, 0, 59, 46
1, 727680, Tempo, 361664
1, 727680, Note_on_c, 0, 59, 0
1, 727680, Note_on_c, 0, 50, 0
1, 727680, Note_on_c, 0, 53, 0
1, 727680, Note_on_c, 0, 31, 0
1, 727680, Note_on_c, 0, 41, 0
1, 727680, Note_on_c, 0, 38, 0
1, 727680, Note_on_c, 0, 52, 28
1, 727680, Note_on_c, 0, 60, 40
1, 727680, Control_c, 0, 91, 127
1, 727680, Text_t, "bdca426d104a26ac9dcb070447587523"
1, 727680, Note_on_c, 0, 48, 25
1, 727680, Note_on_c, 0, 36, 25
1, 727680, Control_c, 0, 64, 0
1, 727800, Note_on_c, 0, 36, 0
1, 727800, Note_on_c, 0, 48, 0
1, 727800, Note_on_c, 0, 52, 0
1, 727920, Note_on_c, 0, 60, 0
1, 727920, Note_on_c, 0, 60, 28
1, 727920, Note_on_c, 0, 64, 33
1, 727920, Note_on_c, 0, 55, 26
1, 727920, Note_on_c, 0, 48, 22
1, 728040, Note_on_c, 0, 48, 0
1, 728040, Note_on_c, 0, 60, 0
1, 728040, Note_on_c, 0, 64, 0
1, 728040, Note_on_c, 0, 55, 0
1, 728160, Tempo, 359324
1, 728160, Note_on_c, 0, 60, 28
1, 728160, Note_on_c, 0, 64, 33
1, 728160, Note_on_c, 0, 55, 26
1, 728160, Note_on_c, 0, 48, 22
1, 728280, Note_on_c, 0, 48, 0
1, 728280, Note_on_c, 0, 60, 0
1, 728280, Note_on_c, 0, 64, 0
1, 728280, Note_on_c, 0, 55, 0
1, 728400, Note_on_c, 0, 60, 28
1, 728400, Note_on_c, 0, 64, 34
1, 728400, Note_on_c, 0, 55, 27
1, 728400, Note_on_c, 0, 48, 22
1, 728520, Note_on_c, 0, 48, 0
1, 728520, Note_on_c, 0, 60, 0
1, 728520, Note_on_c, 0, 64, 0
1, 728520, Note_on_c, 0, 55, 0
1, 728640, Note_on_c, 0, 60, 28
1, 728640, Note_on_c, 0, 64, 34
1, 728640, Note_on_c, 0, 48, 22
1, 728640, Note_on_c, 0, 55, 27
1, 728660, Tempo, 362823
1, 728760, Note_on_c, 0, 55, 0
1, 728760, Note_on_c, 0, 60, 0
1, 728760, Note_on_c, 0, 64, 0
1, 728760, Note_on_c, 0, 48, 0
1, 728880, Note_on_c, 0, 60, 28
1, 728880, Note_on_c, 0, 64, 34
1, 728880, Note_on_c, 0, 55, 28
1, 728880, Note_on_c, 0, 48, 23
1, 729000, Note_on_c, 0, 48, 0
1, 729000, Note_on_c, 0, 60, 0
1, 729000, Note_on_c, 0, 64, 0
1, 729000, Note_on_c, 0, 55, 0
1, 729120, Tempo, 360490
1, 729120, Note_on_c, 0, 60, 29
1, 729120, Note_on_c, 0, 64, 35
1, 729120, Note_on_c, 0, 55, 28
1, 729120, Note_on_c, 0, 48, 23
1, 729240, Note_on_c, 0, 48, 0
1, 729240, Note_on_c, 0, 60, 0
1, 729240, Note_on_c, 0, 64, 0
1, 729240, Note_on_c, 0, 55, 0
1, 729360, Note_on_c, 0, 60, 29
1, 729360, Note_on_c, 0, 64, 35
1, 729360, Note_on_c, 0, 55, 29
1, 729360, Note_on_c, 0, 48, 24
1, 729480, Note_on_c, 0, 48, 0
1, 729480, Note_on_c, 0, 60, 0
1, 729480, Note_on_c, 0, 64, 0
1, 729480, Note_on_c, 0, 55, 0
1, 729600, Note_on_c, 0, 60, 30
1, 729600, Note_on_c, 0, 64, 36
1, 729600, Note_on_c, 0, 48, 25
1, 729600, Note_on_c, 0, 55, 30
1, 729640, Tempo, 361664
1, 729720, Note_on_c, 0, 55, 0
1, 729720, Note_on_c, 0, 60, 0
1, 729720, Note_on_c, 0, 64, 0
1, 729720, Note_on_c, 0, 48, 0
1, 729840, Note_on_c, 0, 60, 30
1, 729840, Note_on_c, 0, 64, 36
1, 729840, Note_on_c, 0, 48, 22
1, 729840, Note_on_c, 0, 55, 27
1, 729960, Note_on_c, 0, 55, 0
1, 729960, Note_on_c, 0, 60, 0
1, 729960, Note_on_c, 0, 64, 0
1, 729960, Note_on_c, 0, 48, 0
1, 730080, Tempo, 360490
1, 730080, Note_on_c, 0, 60, 31
1, 730080, Note_on_c, 0, 64, 37
1, 730080, Note_on_c, 0, 48, 23
1, 730080, Note_on_c, 0, 55, 28
1, 730200, Note_on_c, 0, 55, 0
1, 730200, Note_on_c, 0, 60, 0
1, 730200, Note_on_c, 0, 64, 0
1, 730200, Note_on_c, 0, 48, 0
1, 730320, Note_on_c, 0, 60, 32
1, 730320, Note_on_c, 0, 64, 38
1, 730320, Note_on_c, 0, 55, 29
1, 730320, Note_on_c, 0, 48, 24
1, 730440, Note_on_c, 0, 48, 0
1, 730440, Note_on_c, 0, 60, 0
1, 730440, Note_on_c, 0, 64, 0
1, 730440, Note_on_c, 0, 55, 0
1, 730560, Tempo, 361664
1, 730560, Note_on_c, 0, 60, 33
1, 730560, Note_on_c, 0, 64, 39
1, 730560, Note_on_c, 0, 55, 30
1, 730560, Note_on_c, 0, 48, 25
1, 730680, Note_on_c, 0, 48, 0
1, 730680, Note_on_c, 0, 60, 0
1, 730680, Note_on_c, 0, 64, 0
1, 730680, Note_on_c, 0, 55, 0
1, 730800, Note_on_c, 0, 60, 34
1, 730800, Note_on_c, 0, 64, 40
1, 730800, Note_on_c, 0, 48, 25
1, 730800, Note_on_c, 0, 55, 30
1, 730920, Note_on_c, 0, 55, 0
1, 730920, Note_on_c, 0, 60, 0
1, 730920, Note_on_c, 0, 64, 0
1, 730920, Note_on_c, 0, 48, 0
1, 731040, Note_on_c, 0, 62, 34
1, 731040, Note_on_c, 0, 66, 40
1, 731040, Note_on_c, 0, 57, 30
1, 731040, Note_on_c, 0, 48, 25
1, 731160, Note_on_c, 0, 48, 0
1, 731160, Note_on_c, 0, 62, 0
1, 731160, Note_on_c, 0, 66, 0
1, 731160, Note_on_c, 0, 57, 0
1, 731280, Note_on_c, 0, 62, 34
1, 731280, Note_on_c, 0, 66, 40
1, 731280, Note_on_c, 0, 48, 25
1, 731280, Note_on_c, 0, 57, 30
1, 731400, Note_on_c, 0, 57, 0
1, 731400, Note_on_c, 0, 62, 0
1, 731400, Note_on_c, 0, 66, 0
1, 731400, Note_on_c, 0, 48, 0
1, 731520, Tempo, 361664
1, 731520, Note_on_c, 0, 67, 52
1, 731520, Note_on_c, 0, 47, 28
1, 731520, Note_on_c, 0, 50, 28
1, 731520, Note_on_c, 0, 55, 34
1, 731700, Note_on_c, 0, 55, 0
1, 731700, Note_on_c, 0, 50, 0
1, 731700, Note_on_c, 0, 47, 0
1, 731760, Tempo, 354778
1, 731760, Note_on_c, 0, 67, 0
1, 731760, Note_on_c, 0, 71, 46
1, 731760, Note_on_c, 0, 55, 34
1, 731760, Note_on_c, 0, 47, 28
1, 731760, Note_on_c, 0, 50, 28
1, 731880, Note_on_c, 0, 71, 0
1, 731880, Note_on_c, 0, 69, 46
1, 731940, Note_on_c, 0, 55, 0
1, 731940, Note_on_c, 0, 50, 0
1, 731940, Note_on_c, 0, 47, 0
1, 732000, Tempo, 361664
1, 732000, Note_on_c, 0, 69, 0
1, 732000, Note_on_c, 0, 67, 52
1, 732000, Note_on_c, 0, 47, 28
1, 732000, Note_on_c, 0, 50, 28
1, 732000, Note_on_c, 0, 55, 34
1, 732120, Note_on_c, 0, 67, 0
1, 732180, Note_on_c, 0, 47, 0
1, 732180, Note_on_c, 0, 50, 0
1, 732180, Note_on_c, 0, 55, 0
1, 732240, Note_on_c, 0, 47, 28
1, 732240, Note_on_c, 0, 50, 28
1, 732240, Note_on_c, 0, 55, 35
1, 732420, Note_on_c, 0, 55, 0
1, 732420, Note_on_c, 0, 50, 0
1, 732420, Note_on_c, 0, 47, 0
1, 732480, Tempo, 361664
1, 732480, Note_on_c, 0, 72, 65
1, 732480, Note_on_c, 0, 46, 34
1, 732480, Note_on_c, 0, 48, 34
1, 732480, Note_on_c, 0, 55, 42
1, 732660, Note_on_c, 0, 55, 0
1, 732660, Note_on_c, 0, 48, 0
1, 732660, Note_on_c, 0, 46, 0
1, 732720, Tempo, 354778
1, 732720, Note_on_c, 0, 72, 0
1, 732720, Note_on_c, 0, 76, 58
1, 732720, Note_on_c, 0, 55, 42
1, 732720, Note_on_c, 0, 46, 34
1, 732720, Note_on_c, 0, 48, 34
1, 732840, Note_on_c, 0, 76, 0
1, 732840, Note_on_c, 0, 74, 58
1, 732900, Note_on_c, 0, 55, 0
1, 732900, Note_on_c, 0, 48, 0
1, 732900, Note_on_c, 0, 46, 0
1, 732960, Tempo, 361664
1, 732960, Note_on_c, 0, 74, 0
1, 732960, Note_on_c, 0, 72, 64
1, 732960, Note_on_c, 0, 55, 42
1, 732960, Note_on_c, 0, 48, 35
1, 732960, Note_on_c, 0, 46, 35
1, 733080, Note_on_c, 0, 72, 0
1, 733140, Note_on_c, 0, 55, 0
1, 733140, Note_on_c, 0, 48, 0
1, 733140, Note_on_c, 0, 46, 0
1, 733200, Note_on_c, 0, 55, 43
1, 733200, Note_on_c, 0, 46, 35
1, 733200, Note_on_c, 0, 48, 35
1, 733380, Note_on_c, 0, 48, 0
1, 733380, Note_on_c, 0, 46, 0
1, 733380, Note_on_c, 0, 55, 0
1, 733440, Tempo, 361664
1, 733440, Note_on_c, 0, 77, 75
1, 733440, Note_on_c, 0, 45, 38
1, 733440, Note_on_c, 0, 48, 38
1, 733440, Note_on_c, 0, 53, 48
1, 733620, Note_on_c, 0, 53, 0
1, 733620, Note_on_c, 0, 48, 0
1, 733620, Note_on_c, 0, 45, 0
1, 733680, Tempo, 354778
1, 733680, Note_on_c, 0, 77, 0
1, 733680, Note_on_c, 0, 81, 65
1, 733680, Note_on_c, 0, 45, 38
1, 733680, Note_on_c, 0, 48, 38
1, 733680, Note_on_c, 0, 53, 48
1, 733800, Note_on_c, 0, 81, 0
1, 733800, Note_on_c, 0, 79, 65
1, 733860, Note_on_c, 0, 45, 0
1, 733860, Note_on_c, 0, 53, 0
1, 733860, Note_on_c, 0, 48, 0
1, 733920, Tempo, 361664
1, 733920, Note_on_c, 0, 79, 0
1, 733920, Note_on_c, 0, 77, 73
1, 733920, Note_on_c, 0, 45, 39
1, 733920, Note_on_c, 0, 48, 39
1, 733920, Note_on_c, 0, 53, 49
1, 734040, Note_on_c, 0, 77, 0
1, 734100, Note_on_c, 0, 45, 0
1, 734100, Note_on_c, 0, 48, 0
1, 734100, Note_on_c, 0, 53, 0
1, 734160, Note_on_c, 0, 45, 39
1, 734160, Note_on_c, 0, 53, 49
1, 734160, Note_on_c, 0, 48, 39
1, 734340, Note_on_c, 0, 48, 0
1, 734340, Note_on_c, 0, 53, 0
1, 734340, Note_on_c, 0, 45, 0
1, 734400, Note_on_c, 0, 89, 87
1, 734400, Note_on_c, 0, 44, 62
1, 734400, Note_on_c, 0, 48, 62
1, 734400, Note_on_c, 0, 53, 62
1, 734485, Control_c, 0, 64, 127
1, 734520, Note_on_c, 0, 89, 0
1, 734520, Note_on_c, 0, 88, 79
1, 734580, Note_on_c, 0, 44, 0
1, 734580, Note_on_c, 0, 53, 0
1, 734580, Note_on_c, 0, 48, 0
1, 734640, Note_on_c, 0, 88, 0
1, 734640, Note_on_c, 0, 89, 79
1, 734640, Note_on_c, 0, 32, 55
1, 734640, Note_on_c, 0, 44, 55
1, 734760, Note_on_c, 0, 89, 0
1, 734760, Note_on_c, 0, 88, 79
1, 734820, Note_on_c, 0, 44, 0
1, 734820, Note_on_c, 0, 32, 0
1, 734880, Note_on_c, 0, 88, 0
1, 734880, Note_on_c, 0, 89, 79
1, 734880, Note_on_c, 0, 32, 55
1, 734880, Note_on_c, 0, 44, 55
1, 735000, Note_on_c, 0, 89, 0
1, 735000, Note_on_c, 0, 88, 79
1, 735060, Note_on_c, 0, 44, 0
1, 735060, Note_on_c, 0, 32, 0
1, 735120, Note_on_c, 0, 88, 0
1, 735120, Note_on_c, 0, 89, 79
1, 735120, Note_on_c, 0, 32, 55
1, 735120, Note_on_c, 0, 44, 55
1, 735240, Note_on_c, 0, 89, 0
1, 735240, Note_on_c, 0, 88, 79
1, 735300, Note_on_c, 0, 44, 0
1, 735300, Note_on_c, 0, 32, 0
1, 735360, Note_on_c, 0, 88, 0
1, 735360, Note_on_c, 0, 89, 78
1, 735360, Note_on_c, 0, 43, 56
1, 735360, Note_on_c, 0, 31, 56
1, 735372, Control_c, 0, 64, 0
1, 735480, Note_on_c, 0, 31, 0
1, 735480, Note_on_c, 0, 43, 0
1, 735480, Note_on_c, 0, 89, 0
1, 735480, Note_on_c, 0, 88, 78
1, 735480, Note_on_c, 0, 33, 57
1, 735508, Control_c, 0, 64, 127
1, 735600, Note_on_c, 0, 33, 0
1, 735600, Note_on_c, 0, 88, 0
1, 735600, Note_on_c, 0, 86, 79
1, 735600, Note_on_c, 0, 35, 57
1, 735720, Note_on_c, 0, 35, 0
1, 735720, Note_on_c, 0, 86, 0
1, 735720, Note_on_c, 0, 84, 80
1, 735720, Note_on_c, 0, 36, 58
1, 735840, Note_on_c, 0, 36, 0
1, 735840, Note_on_c, 0, 84, 0
1, 735840, Note_on_c, 0, 83, 81
1, 735840, Note_on_c, 0, 38, 59
1, 735960, Note_on_c, 0, 38, 0
1, 735960, Note_on_c, 0, 83, 0
1, 735960, Note_on_c, 0, 81, 82
1, 735960, Note_on_c, 0, 40, 59
1, 736080, Note_on_c, 0, 40, 0
1, 736080, Note_on_c, 0, 81, 0
1, 736080, Note_on_c, 0, 79, 83
1, 736080, Note_on_c, 0, 41, 60
1, 736200, Note_on_c, 0, 41, 0
1, 736200, Note_on_c, 0, 79, 0
1, 736200, Note_on_c, 0, 77, 84
1, 736200, Note_on_c, 0, 43, 62
1, 736320, Tempo, 362231
1, 736320, Note_on_c, 0, 43, 0
1, 736320, Note_on_c, 0, 77, 0
1, 736320, Note_on_c, 0, 76, 85
1, 736320, Note_on_c, 0, 45, 62
1, 736400, Tempo, 363350
1, 736440, Tempo, 364498
1, 736440, Note_on_c, 0, 45, 0
1, 736440, Note_on_c, 0, 76, 0
1, 736440, Note_on_c, 0, 74, 86
1, 736440, Note_on_c, 0, 47, 63
1, 736480, Tempo, 365653
1, 736520, Tempo, 366815
1, 736560, Tempo, 367963
1, 736560, Note_on_c, 0, 47, 0
1, 736560, Note_on_c, 0, 74, 0
1, 736560, Note_on_c, 0, 72, 88
1, 736560, Note_on_c, 0, 48, 63
1, 736600, Tempo, 369140
1, 736640, Tempo, 370325
1, 736680, Tempo, 371517
1, 736680, Note_on_c, 0, 48, 0
1, 736680, Note_on_c, 0, 72, 0
1, 736680, Note_on_c, 0, 71, 89
1, 736680, Note_on_c, 0, 50, 64
1, 736720, Tempo, 372694
1, 736760, Tempo, 373902
1, 736800, Tempo, 375117
1, 736800, Note_on_c, 0, 50, 0
1, 736800, Note_on_c, 0, 71, 0
1, 736800, Note_on_c, 0, 69, 90
1, 736800, Note_on_c, 0, 52, 65
1, 736840, Tempo, 376341
1, 736880, Tempo, 377572
1, 736920, Tempo, 378788
1, 736920, Note_on_c, 0, 52, 0
1, 736920, Note_on_c, 0, 69, 0
1, 736920, Note_on_c, 0, 67, 92
1, 736920, Note_on_c, 0, 53, 66
1, 736960, Tempo, 380035
1, 737000, Tempo, 381291
1, 737040, Tempo, 382555
1, 737040, Note_on_c, 0, 53, 0
1, 737040, Note_on_c, 0, 67, 0
1, 737040, Note_on_c, 0, 65, 92
1, 737040, Note_on_c, 0, 55, 67
1, 737080, Tempo, 383803
1, 737120, Tempo, 385084
1, 737160, Tempo, 386374
1, 737160, Note_on_c, 0, 55, 0
1, 737160, Note_on_c, 0, 65, 0
1, 737160, Note_on_c, 0, 64, 93
1, 737160, Note_on_c, 0, 57, 68
1, 737200, Tempo, 387672
1, 737240, Tempo, 388954
1, 737280, Tempo, 390269
1, 737280, Note_on_c, 0, 57, 0
1, 737280, Note_on_c, 0, 64, 0
1, 737280, Note_on_c, 0, 62, 100
1, 737280, Note_on_c, 0, 53, 78
1, 737280, Note_on_c, 0, 41, 66
1, 737288, Control_c, 0, 64, 0
1, 737520, Note_on_c, 0, 41, 0
1, 737520, Note_on_c, 0, 53, 0
1, 737520, Note_on_c, 0, 62, 0
1, 737760, Note_on_c, 0, 67, 85
1, 737760, Note_on_c, 0, 71, 85
1, 737760, Note_on_c, 0, 74, 100
1, 737760, Note_on_c, 0, 79, 100
1, 737760, Note_on_c, 0, 43, 66
1, 737760, Note_on_c, 0, 47, 66
1, 737760, Note_on_c, 0, 50, 78
1, 737760, Note_on_c, 0, 55, 78
1, 738000, Note_on_c, 0, 55, 0
1, 738000, Note_on_c, 0, 67, 0
1, 738000, Note_on_c, 0, 43, 0
1, 738000, Note_on_c, 0, 71, 0
1, 738000, Note_on_c, 0, 74, 0
1, 738000, Note_on_c, 0, 79, 0
1, 738000, Note_on_c, 0, 47, 0
1, 738000, Note_on_c, 0, 50, 0
1, 739200, Note_on_c, 0, 64, 89
1, 739200, Note_on_c, 0, 67, 89
1, 739200, Note_on_c, 0, 72, 106
1, 739200, Note_on_c, 0, 76, 106
1, 739200, Note_on_c, 0, 60, 78
1, 739200, Note_on_c, 0, 55, 78
1, 739200, Note_on_c, 0, 48, 66
1, 739200, Note_on_c, 0, 52, 66
1, 739440, Note_on_c, 0, 52, 0
1, 739440, Note_on_c, 0, 64, 0
1, 739440, Note_on_c, 0, 60, 0
1, 739440, Note_on_c, 0, 67, 0
1, 739440, Note_on_c, 0, 72, 0
1, 739440, Note_on_c, 0, 76, 0
1, 739440, Note_on_c, 0, 55, 0
1, 739440, Note_on_c, 0, 48, 0
1, 740160, Note_on_c, 0, 67, 89
1, 740160, Note_on_c, 0, 71, 89
1, 740160, Note_on_c, 0, 74, 106
1, 740160, Note_on_c, 0, 79, 106
1, 740160, Note_on_c, 0, 47, 66
1, 740160, Note_on_c, 0, 43, 66
1, 740160, Note_on_c, 0, 50, 78
1, 740160, Note_on_c, 0, 55, 78
1, 740400, Note_on_c, 0, 55, 0
1, 740400, Note_on_c, 0, 67, 0
1, 740400, Note_on_c, 0, 47, 0
1, 740400, Note_on_c, 0, 71, 0
1, 740400, Note_on_c, 0, 74, 0
1, 740400, Note_on_c, 0, 79, 0
1, 740400, Note_on_c, 0, 43, 0
1, 740400, Note_on_c, 0, 50, 0
1, 740640, Tempo, 424598
1, 741120, Note_on_c, 0, 84, 106
1, 741120, Note_on_c, 0, 79, 106
1, 741120, Note_on_c, 0, 76, 89
1, 741120, Note_on_c, 0, 72, 89
1, 741120, Note_on_c, 0, 36, 65
1, 741120, Note_on_c, 0, 40, 65
1, 741120, Note_on_c, 0, 43, 77
1, 741120, Note_on_c, 0, 48, 77
1, 741360, Note_on_c, 0, 48, 0
1, 741360, Note_on_c, 0, 84, 0
1, 741360, Note_on_c, 0, 36, 0
1, 741360, Note_on_c, 0, 79, 0
1, 741360, Note_on_c, 0, 76, 0
1, 741360, Note_on_c, 0, 72, 0
1, 741360, Note_on_c, 0, 40, 0
1, 741360, Note_on_c, 0, 43, 0
1, 741362, Tempo, 439560
1, 743040, Tempo, 387097
1, 744944, Tempo, 377572
1, 744944, End_track
0, 0, End_of_file
