0, 0, Header, 0, 1, 384
1, 0, Start_track
1, 0, Tempo, 512820
1, 0, Title_t, "Wandererfantasie D760, 4 Satz"
1, 0, Program_c, 0, 0
1, 0, Control_c, 0, 7, 100
1, 3, Control_c, 0, 91, 127
1, 3, Program_c, 0, 0
1, 3, Control_c, 0, 7, 100
1, 748, Note_on_c, 0, 36, 81
1, 748, Note_on_c, 0, 48, 94
1, 1057, Note_on_c, 0, 48, 0
1, 1057, Note_on_c, 0, 36, 0
1, 1057, Note_on_c, 0, 36, 77
1, 1060, Note_on_c, 0, 48, 89
1, 1114, Note_on_c, 0, 48, 0
1, 1114, Note_on_c, 0, 36, 0
1, 1209, Note_on_c, 0, 36, 77
1, 1209, Note_on_c, 0, 48, 89
1, 1266, Note_on_c, 0, 48, 0
1, 1266, Note_on_c, 0, 36, 0
1, 1362, Note_on_c, 0, 36, 77
1, 1362, Note_on_c, 0, 48, 89
1, 1670, Note_on_c, 0, 48, 0
1, 1670, Note_on_c, 0, 36, 0
1, 1670, Note_on_c, 0, 36, 78
1, 1673, Note_on_c, 0, 48, 90
1, 1728, Note_on_c, 0, 48, 0
1, 1728, Note_on_c, 0, 36, 0
1, 1823, Note_on_c, 0, 36, 79
1, 1823, Note_on_c, 0, 48, 91
1, 1880, Note_on_c, 0, 48, 0
1, 1880, Note_on_c, 0, 36, 0
1, 1975, Note_on_c, 0, 37, 86
1, 1975, Note_on_c, 0, 49, 100
1, 2035, Note_on_c, 0, 49, 0
1, 2035, Note_on_c, 0, 37, 0
1, 2297, Note_on_c, 0, 38, 85
1, 2297, Note_on_c, 0, 50, 99
1, 2760, Note_on_c, 0, 50, 0
1, 2760, Note_on_c, 0, 38, 0
1, 2760, Note_on_c, 0, 40, 78
1, 2763, Note_on_c, 0, 52, 90
1, 2817, Note_on_c, 0, 52, 0
1, 2817, Note_on_c, 0, 40, 0
1, 2912, Note_on_c, 0, 41, 77
1, 2912, Note_on_c, 0, 53, 89
1, 2969, Note_on_c, 0, 53, 0
1, 2969, Note_on_c, 0, 41, 0
1, 3064, Note_on_c, 0, 40, 78
1, 3064, Note_on_c, 0, 52, 90
1, 3121, Note_on_c, 0, 52, 0
1, 3121, Note_on_c, 0, 40, 0
1, 3216, Control_c, 0, 91, 127
1, 3216, Note_on_c, 0, 38, 81
1, 3216, Note_on_c, 0, 50, 94
1, 3524, Note_on_c, 0, 50, 0
1, 3524, Note_on_c, 0, 38, 0
1, 3524, Note_on_c, 0, 38, 81
1, 3527, Note_on_c, 0, 50, 94
1, 3581, Note_on_c, 0, 50, 0
1, 3581, Note_on_c, 0, 38, 0
1, 3676, Note_on_c, 0, 38, 78
1, 3676, Note_on_c, 0, 50, 90
1, 3733, Note_on_c, 0, 50, 0
1, 3733, Note_on_c, 0, 38, 0
1, 3828, Note_on_c, 0, 38, 78
1, 3828, Note_on_c, 0, 50, 90
1, 4137, Note_on_c, 0, 50, 0
1, 4137, Note_on_c, 0, 38, 0
1, 4137, Note_on_c, 0, 38, 79
1, 4140, Note_on_c, 0, 50, 91
1, 4194, Note_on_c, 0, 50, 0
1, 4194, Note_on_c, 0, 38, 0
1, 4289, Note_on_c, 0, 38, 79
1, 4289, Note_on_c, 0, 50, 91
1, 4346, Note_on_c, 0, 50, 0
1, 4346, Note_on_c, 0, 38, 0
1, 4441, Note_on_c, 0, 39, 86
1, 4441, Note_on_c, 0, 51, 100
1, 4503, Note_on_c, 0, 51, 0
1, 4503, Note_on_c, 0, 39, 0
1, 4769, Note_on_c, 0, 40, 85
1, 4769, Note_on_c, 0, 52, 99
1, 5232, Note_on_c, 0, 52, 0
1, 5232, Note_on_c, 0, 40, 0
1, 5232, Note_on_c, 0, 42, 90
1, 5235, Note_on_c, 0, 54, 90
1, 5291, Note_on_c, 0, 54, 0
1, 5291, Note_on_c, 0, 42, 0
1, 5389, Note_on_c, 0, 43, 78
1, 5389, Note_on_c, 0, 55, 90
1, 5448, Note_on_c, 0, 55, 0
1, 5448, Note_on_c, 0, 43, 0
1, 5546, Note_on_c, 0, 45, 79
1, 5546, Note_on_c, 0, 57, 92
1, 5604, Note_on_c, 0, 57, 0
1, 5604, Note_on_c, 0, 45, 0
1, 5702, Note_on_c, 0, 46, 88
1, 5702, Note_on_c, 0, 58, 103
1, 6011, Note_on_c, 0, 58, 0
1, 6011, Note_on_c, 0, 46, 0
1, 6011, Note_on_c, 0, 46, 81
1, 6014, Note_on_c, 0, 58, 94
1, 6069, Note_on_c, 0, 58, 0
1, 6069, Note_on_c, 0, 46, 0
1, 6167, Note_on_c, 0, 46, 81
1, 6167, Note_on_c, 0, 58, 94
1, 6228, Note_on_c, 0, 58, 0
1, 6228, Note_on_c, 0, 46, 0
1, 6330, Note_on_c, 0, 37, 89
1, 6330, Note_on_c, 0, 49, 104
1, 6793, Note_on_c, 0, 49, 0
1, 6793, Note_on_c, 0, 37, 0
1, 6793, Note_on_c, 0, 37, 83
1, 6796, Note_on_c, 0, 49, 96
1, 6852, Note_on_c, 0, 49, 0
1, 6852, Note_on_c, 0, 37, 0
1, 6951, Note_on_c, 0, 45, 89
1, 6951, Note_on_c, 0, 57, 104
1, 7261, Note_on_c, 0, 57, 0
1, 7261, Note_on_c, 0, 45, 0
1, 7261, Note_on_c, 0, 45, 81
1, 7264, Note_on_c, 0, 57, 94
1, 7320, Note_on_c, 0, 57, 0
1, 7320, Note_on_c, 0, 45, 0
1, 7417, Note_on_c, 0, 45, 82
1, 7417, Note_on_c, 0, 57, 95
1, 7479, Note_on_c, 0, 57, 0
1, 7479, Note_on_c, 0, 45, 0
1, 7582, Note_on_c, 0, 36, 89
1, 7582, Note_on_c, 0, 48, 104
1, 8045, Note_on_c, 0, 48, 0
1, 8045, Note_on_c, 0, 36, 0
1, 8045, Note_on_c, 0, 36, 82
1, 8048, Note_on_c, 0, 48, 95
1, 8103, Note_on_c, 0, 48, 0
1, 8103, Note_on_c, 0, 36, 0
1, 8199, Note_on_c, 0, 35, 82
1, 8199, Note_on_c, 0, 47, 95
1, 8257, Note_on_c, 0, 47, 0
1, 8257, Note_on_c, 0, 35, 0
1, 8353, Note_on_c, 0, 38, 82
1, 8353, Note_on_c, 0, 50, 96
1, 8411, Note_on_c, 0, 50, 0
1, 8411, Note_on_c, 0, 38, 0
1, 8506, Note_on_c, 0, 43, 85
1, 8506, Note_on_c, 0, 55, 100
1, 8563, Note_on_c, 0, 55, 0
1, 8563, Note_on_c, 0, 43, 0
1, 8658, Note_on_c, 0, 41, 82
1, 8658, Note_on_c, 0, 53, 95
1, 8715, Note_on_c, 0, 53, 0
1, 8715, Note_on_c, 0, 41, 0
1, 8810, Note_on_c, 0, 40, 83
1, 8810, Note_on_c, 0, 52, 96
1, 8868, Note_on_c, 0, 52, 0
1, 8868, Note_on_c, 0, 40, 0
1, 8965, Note_on_c, 0, 36, 80
1, 8965, Note_on_c, 0, 48, 92
1, 9023, Note_on_c, 0, 48, 0
1, 9023, Note_on_c, 0, 36, 0
1, 9119, Note_on_c, 0, 35, 80
1, 9119, Note_on_c, 0, 47, 92
1, 9177, Note_on_c, 0, 47, 0
1, 9177, Note_on_c, 0, 35, 0
1, 9274, Note_on_c, 0, 33, 79
1, 9274, Note_on_c, 0, 45, 91
1, 9331, Note_on_c, 0, 45, 0
1, 9331, Note_on_c, 0, 33, 0
1, 9428, Note_on_c, 0, 41, 81
1, 9428, Note_on_c, 0, 53, 94
1, 9740, Note_on_c, 0, 53, 0
1, 9740, Note_on_c, 0, 41, 0
1, 9740, Note_on_c, 0, 40, 79
1, 9743, Note_on_c, 0, 52, 91
1, 10057, Note_on_c, 0, 52, 0
1, 10057, Note_on_c, 0, 40, 0
1, 10057, Note_on_c, 0, 38, 81
1, 10060, Note_on_c, 0, 50, 94
1, 10722, Note_on_c, 0, 55, 81
1, 10722, Note_on_c, 0, 67, 94
1, 10722, Note_on_c, 0, 50, 0
1, 10725, Note_on_c, 0, 38, 0
1, 10725, Note_on_c, 0, 36, 75
1, 10725, Note_on_c, 0, 48, 87
1, 11029, Note_on_c, 0, 67, 0
1, 11029, Note_on_c, 0, 55, 0
1, 11029, Note_on_c, 0, 55, 77
1, 11032, Note_on_c, 0, 67, 89
1, 11085, Note_on_c, 0, 67, 0
1, 11085, Note_on_c, 0, 55, 0
1, 11179, Note_on_c, 0, 55, 77
1, 11179, Note_on_c, 0, 67, 89
1, 11235, Note_on_c, 0, 67, 0
1, 11235, Note_on_c, 0, 55, 0
1, 11329, Note_on_c, 0, 55, 77
1, 11329, Note_on_c, 0, 67, 89
1, 11481, Note_on_c, 0, 48, 0
1, 11481, Note_on_c, 0, 36, 0
1, 11481, Note_on_c, 0, 38, 71
1, 11484, Note_on_c, 0, 50, 83
1, 11538, Note_on_c, 0, 50, 0
1, 11538, Note_on_c, 0, 38, 0
1, 11632, Note_on_c, 0, 67, 0
1, 11632, Note_on_c, 0, 55, 0
1, 11632, Note_on_c, 0, 55, 78
1, 11635, Note_on_c, 0, 67, 90
1, 11635, Note_on_c, 0, 40, 71
1, 11635, Note_on_c, 0, 52, 83
1, 11689, Note_on_c, 0, 67, 0
1, 11689, Note_on_c, 0, 55, 0
1, 11689, Note_on_c, 0, 52, 0
1, 11692, Note_on_c, 0, 40, 0
1, 11782, Note_on_c, 0, 55, 79
1, 11782, Note_on_c, 0, 67, 91
1, 11782, Note_on_c, 0, 41, 71
1, 11785, Note_on_c, 0, 53, 83
1, 11839, Note_on_c, 0, 67, 0
1, 11839, Note_on_c, 0, 55, 0
1, 11839, Note_on_c, 0, 53, 0
1, 11842, Note_on_c, 0, 41, 0
1, 11932, Note_on_c, 0, 56, 86
1, 11932, Note_on_c, 0, 68, 100
1, 11932, Note_on_c, 0, 40, 75
1, 11935, Note_on_c, 0, 52, 87
1, 11990, Note_on_c, 0, 68, 0
1, 11990, Note_on_c, 0, 56, 0
1, 11990, Note_on_c, 0, 52, 0
1, 11993, Note_on_c, 0, 40, 0
1, 12086, Note_on_c, 0, 38, 73
1, 12086, Note_on_c, 0, 50, 84
1, 12143, Note_on_c, 0, 50, 0
1, 12143, Note_on_c, 0, 38, 0
1, 12239, Note_on_c, 0, 57, 85
1, 12239, Note_on_c, 0, 69, 99
1, 12239, Note_on_c, 0, 36, 73
1, 12242, Note_on_c, 0, 48, 84
1, 12296, Note_on_c, 0, 48, 0
1, 12296, Note_on_c, 0, 36, 0
1, 12391, Note_on_c, 0, 35, 73
1, 12391, Note_on_c, 0, 47, 84
1, 12448, Note_on_c, 0, 47, 0
1, 12448, Note_on_c, 0, 35, 0
1, 12543, Note_on_c, 0, 33, 77
1, 12543, Note_on_c, 0, 45, 89
1, 12695, Note_on_c, 0, 69, 0
1, 12695, Note_on_c, 0, 57, 0
1, 12695, Note_on_c, 0, 59, 78
1, 12698, Note_on_c, 0, 71, 90
1, 12751, Note_on_c, 0, 71, 0
1, 12751, Note_on_c, 0, 59, 0
1, 12845, Note_on_c, 0, 60, 77
1, 12845, Note_on_c, 0, 72, 89
1, 12901, Note_on_c, 0, 72, 0
1, 12901, Note_on_c, 0, 60, 0
1, 12994, Note_on_c, 0, 59, 78
1, 12994, Note_on_c, 0, 71, 90
1, 12994, Note_on_c, 0, 45, 0
1, 12997, Note_on_c, 0, 33, 0
1, 12997, Note_on_c, 0, 40, 74
1, 12997, Note_on_c, 0, 52, 85
1, 13050, Note_on_c, 0, 71, 0
1, 13050, Note_on_c, 0, 59, 0
1, 13050, Note_on_c, 0, 52, 0
1, 13053, Note_on_c, 0, 40, 0
1, 13143, Note_on_c, 0, 57, 81
1, 13143, Note_on_c, 0, 69, 94
1, 13143, Note_on_c, 0, 41, 75
1, 13146, Note_on_c, 0, 53, 87
1, 13447, Note_on_c, 0, 69, 0
1, 13447, Note_on_c, 0, 57, 0
1, 13447, Note_on_c, 0, 57, 81
1, 13450, Note_on_c, 0, 69, 94
1, 13503, Note_on_c, 0, 69, 0
1, 13503, Note_on_c, 0, 57, 0
1, 13597, Note_on_c, 0, 57, 78
1, 13597, Note_on_c, 0, 69, 90
1, 13653, Note_on_c, 0, 69, 0
1, 13653, Note_on_c, 0, 57, 0
1, 13746, Note_on_c, 0, 57, 78
1, 13746, Note_on_c, 0, 69, 90
1, 13898, Note_on_c, 0, 53, 0
1, 13898, Note_on_c, 0, 41, 0
1, 13898, Note_on_c, 0, 40, 71
1, 13901, Note_on_c, 0, 52, 83
1, 13955, Note_on_c, 0, 52, 0
1, 13955, Note_on_c, 0, 40, 0
1, 14050, Note_on_c, 0, 69, 0
1, 14050, Note_on_c, 0, 57, 0
1, 14050, Note_on_c, 0, 57, 79
1, 14053, Note_on_c, 0, 69, 91
1, 14053, Note_on_c, 0, 41, 71
1, 14053, Note_on_c, 0, 53, 83
1, 14106, Note_on_c, 0, 69, 0
1, 14106, Note_on_c, 0, 57, 0
1, 14106, Note_on_c, 0, 53, 0
1, 14109, Note_on_c, 0, 41, 0
1, 14200, Note_on_c, 0, 57, 79
1, 14200, Note_on_c, 0, 69, 91
1, 14200, Note_on_c, 0, 43, 71
1, 14203, Note_on_c, 0, 55, 83
1, 14256, Note_on_c, 0, 69, 0
1, 14256, Note_on_c, 0, 57, 0
1, 14256, Note_on_c, 0, 55, 0
1, 14259, Note_on_c, 0, 43, 0
1, 14350, Note_on_c, 0, 58, 86
1, 14350, Note_on_c, 0, 70, 100
1, 14350, Note_on_c, 0, 42, 75
1, 14353, Note_on_c, 0, 54, 87
1, 14408, Note_on_c, 0, 70, 0
1, 14408, Note_on_c, 0, 58, 0
1, 14408, Note_on_c, 0, 54, 0
1, 14411, Note_on_c, 0, 42, 0
1, 14504, Note_on_c, 0, 40, 73
1, 14504, Note_on_c, 0, 52, 84
1, 14562, Note_on_c, 0, 52, 0
1, 14562, Note_on_c, 0, 40, 0
1, 14658, Note_on_c, 0, 59, 85
1, 14658, Note_on_c, 0, 71, 99
1, 14658, Note_on_c, 0, 38, 73
1, 14661, Note_on_c, 0, 50, 84
1, 14715, Note_on_c, 0, 50, 0
1, 14715, Note_on_c, 0, 38, 0
1, 14810, Note_on_c, 0, 37, 73
1, 14810, Note_on_c, 0, 49, 84
1, 14867, Note_on_c, 0, 49, 0
1, 14867, Note_on_c, 0, 37, 0
1, 14962, Note_on_c, 0, 35, 77
1, 14962, Note_on_c, 0, 47, 89
1, 15114, Note_on_c, 0, 71, 0
1, 15114, Note_on_c, 0, 59, 0
1, 15114, Note_on_c, 0, 61, 86
1, 15117, Note_on_c, 0, 73, 86
1, 15169, Note_on_c, 0, 73, 0
1, 15169, Note_on_c, 0, 61, 0
1, 15261, Note_on_c, 0, 62, 73
1, 15261, Note_on_c, 0, 74, 85
1, 15316, Note_on_c, 0, 74, 0
1, 15316, Note_on_c, 0, 62, 0
1, 15409, Note_on_c, 0, 64, 74
1, 15409, Note_on_c, 0, 76, 86
1, 15409, Note_on_c, 0, 47, 0
1, 15412, Note_on_c, 0, 35, 0
1, 15412, Note_on_c, 0, 33, 69
1, 15412, Note_on_c, 0, 45, 81
1, 15467, Note_on_c, 0, 76, 0
1, 15467, Note_on_c, 0, 64, 0
1, 15467, Note_on_c, 0, 45, 0
1, 15470, Note_on_c, 0, 33, 0
1, 15564, Note_on_c, 0, 65, 82
1, 15564, Note_on_c, 0, 77, 95
1, 15564, Note_on_c, 0, 32, 70
1, 15567, Note_on_c, 0, 44, 83
1, 15621, Note_on_c, 0, 44, 0
1, 15621, Note_on_c, 0, 32, 0
1, 15716, Note_on_c, 0, 35, 67
1, 15716, Note_on_c, 0, 47, 78
1, 15773, Note_on_c, 0, 47, 0
1, 15773, Note_on_c, 0, 35, 0
1, 15868, Note_on_c, 0, 77, 0
1, 15868, Note_on_c, 0, 65, 0
1, 15868, Note_on_c, 0, 65, 74
1, 15871, Note_on_c, 0, 77, 86
1, 15871, Note_on_c, 0, 32, 70
1, 15871, Note_on_c, 0, 44, 83
1, 15925, Note_on_c, 0, 77, 0
1, 15925, Note_on_c, 0, 65, 0
1, 15925, Note_on_c, 0, 44, 0
1, 15928, Note_on_c, 0, 32, 0
1, 16020, Note_on_c, 0, 65, 74
1, 16020, Note_on_c, 0, 77, 86
1, 16020, Note_on_c, 0, 35, 65
1, 16023, Note_on_c, 0, 47, 76
1, 16080, Note_on_c, 0, 77, 0
1, 16080, Note_on_c, 0, 65, 0
1, 16080, Note_on_c, 0, 47, 0
1, 16083, Note_on_c, 0, 35, 0
1, 16181, Note_on_c, 0, 56, 86
1, 16181, Note_on_c, 0, 68, 100
1, 16181, Note_on_c, 0, 41, 75
1, 16184, Note_on_c, 0, 53, 87
1, 16236, Note_on_c, 0, 53, 0
1, 16236, Note_on_c, 0, 41, 0
1, 16328, Note_on_c, 0, 41, 74
1, 16328, Note_on_c, 0, 53, 85
1, 16632, Note_on_c, 0, 68, 0
1, 16632, Note_on_c, 0, 56, 0
1, 16632, Note_on_c, 0, 56, 80
1, 16635, Note_on_c, 0, 68, 92
1, 16689, Note_on_c, 0, 68, 0
1, 16689, Note_on_c, 0, 56, 0
1, 16784, Note_on_c, 0, 64, 82
1, 16784, Note_on_c, 0, 76, 95
1, 16784, Note_on_c, 0, 53, 0
1, 16787, Note_on_c, 0, 41, 0
1, 16787, Note_on_c, 0, 31, 70
1, 16787, Note_on_c, 0, 43, 83
1, 16841, Note_on_c, 0, 43, 0
1, 16841, Note_on_c, 0, 31, 0
1, 16936, Note_on_c, 0, 34, 67
1, 16936, Note_on_c, 0, 46, 78
1, 16993, Note_on_c, 0, 46, 0
1, 16993, Note_on_c, 0, 34, 0
1, 17088, Note_on_c, 0, 76, 0
1, 17088, Note_on_c, 0, 64, 0
1, 17088, Note_on_c, 0, 64, 74
1, 17091, Note_on_c, 0, 76, 86
1, 17091, Note_on_c, 0, 31, 70
1, 17091, Note_on_c, 0, 43, 83
1, 17143, Note_on_c, 0, 76, 0
1, 17143, Note_on_c, 0, 64, 0
1, 17143, Note_on_c, 0, 43, 0
1, 17146, Note_on_c, 0, 31, 0
1, 17236, Note_on_c, 0, 64, 75
1, 17236, Note_on_c, 0, 76, 87
1, 17236, Note_on_c, 0, 34, 65
1, 17239, Note_on_c, 0, 46, 76
1, 17297, Note_on_c, 0, 76, 0
1, 17297, Note_on_c, 0, 64, 0
1, 17297, Note_on_c, 0, 46, 0
1, 17300, Note_on_c, 0, 34, 0
1, 17398, Note_on_c, 0, 55, 86
1, 17398, Note_on_c, 0, 67, 100
1, 17398, Note_on_c, 0, 40, 75
1, 17401, Note_on_c, 0, 52, 87
1, 17453, Note_on_c, 0, 52, 0
1, 17453, Note_on_c, 0, 40, 0
1, 17545, Note_on_c, 0, 40, 74
1, 17545, Note_on_c, 0, 52, 85
1, 17848, Note_on_c, 0, 67, 0
1, 17848, Note_on_c, 0, 55, 0
1, 17848, Note_on_c, 0, 55, 79
1, 17851, Note_on_c, 0, 67, 91
1, 17905, Note_on_c, 0, 67, 0
1, 17905, Note_on_c, 0, 55, 0
1, 18000, Note_on_c, 0, 54, 79
1, 18000, Note_on_c, 0, 66, 91
1, 18000, Note_on_c, 0, 52, 0
1, 18003, Note_on_c, 0, 40, 0
1, 18003, Note_on_c, 0, 38, 74
1, 18003, Note_on_c, 0, 50, 85
1, 18056, Note_on_c, 0, 66, 0
1, 18056, Note_on_c, 0, 54, 0
1, 18151, Note_on_c, 0, 57, 80
1, 18151, Note_on_c, 0, 69, 92
1, 18207, Note_on_c, 0, 69, 0
1, 18207, Note_on_c, 0, 57, 0
1, 18301, Note_on_c, 0, 62, 83
1, 18301, Note_on_c, 0, 74, 97
1, 18301, Note_on_c, 0, 50, 0
1, 18304, Note_on_c, 0, 38, 0
1, 18304, Note_on_c, 0, 30, 69
1, 18304, Note_on_c, 0, 42, 81
1, 18357, Note_on_c, 0, 74, 0
1, 18357, Note_on_c, 0, 62, 0
1, 18451, Note_on_c, 0, 60, 80
1, 18451, Note_on_c, 0, 72, 92
1, 18507, Note_on_c, 0, 72, 0
1, 18507, Note_on_c, 0, 60, 0
1, 18601, Note_on_c, 0, 59, 81
1, 18601, Note_on_c, 0, 71, 94
1, 18601, Note_on_c, 0, 42, 0
1, 18604, Note_on_c, 0, 30, 0
1, 18604, Note_on_c, 0, 31, 68
1, 18604, Note_on_c, 0, 43, 79
1, 18658, Note_on_c, 0, 71, 0
1, 18658, Note_on_c, 0, 59, 0
1, 18658, Note_on_c, 0, 43, 0
1, 18661, Note_on_c, 0, 31, 0
1, 18753, Note_on_c, 0, 55, 79
1, 18753, Note_on_c, 0, 67, 91
1, 18753, Note_on_c, 0, 33, 69
1, 18756, Note_on_c, 0, 45, 81
1, 18810, Note_on_c, 0, 67, 0
1, 18810, Note_on_c, 0, 55, 0
1, 18810, Note_on_c, 0, 45, 0
1, 18813, Note_on_c, 0, 33, 0
1, 18905, Note_on_c, 0, 54, 79
1, 18905, Note_on_c, 0, 66, 91
1, 18905, Note_on_c, 0, 35, 71
1, 18908, Note_on_c, 0, 47, 83
1, 18962, Note_on_c, 0, 66, 0
1, 18962, Note_on_c, 0, 54, 0
1, 18962, Note_on_c, 0, 47, 0
1, 18965, Note_on_c, 0, 35, 0
1, 19057, Note_on_c, 0, 52, 79
1, 19057, Note_on_c, 0, 64, 91
1, 19057, Note_on_c, 0, 36, 74
1, 19060, Note_on_c, 0, 48, 85
1, 19114, Note_on_c, 0, 64, 0
1, 19114, Note_on_c, 0, 52, 0
1, 19114, Note_on_c, 0, 48, 0
1, 19117, Note_on_c, 0, 36, 0
1, 19209, Note_on_c, 0, 60, 81
1, 19209, Note_on_c, 0, 72, 94
1, 19209, Note_on_c, 0, 38, 75
1, 19212, Note_on_c, 0, 50, 87
1, 19266, Note_on_c, 0, 50, 0
1, 19266, Note_on_c, 0, 38, 0
1, 19362, Note_on_c, 0, 42, 74
1, 19362, Note_on_c, 0, 54, 85
1, 19420, Note_on_c, 0, 54, 0
1, 19420, Note_on_c, 0, 42, 0
1, 19516, Note_on_c, 0, 72, 0
1, 19516, Note_on_c, 0, 60, 0
1, 19516, Note_on_c, 0, 59, 79
1, 19519, Note_on_c, 0, 71, 91
1, 19519, Note_on_c, 0, 43, 75
1, 19519, Note_on_c, 0, 55, 86
1, 19828, Note_on_c, 0, 71, 0
1, 19828, Note_on_c, 0, 59, 0
1, 19828, Note_on_c, 0, 57, 81
1, 19831, Note_on_c, 0, 69, 94
1, 20149, Note_on_c, 0, 55, 0
1, 20149, Note_on_c, 0, 43, 0
1, 20149, Note_on_c, 0, 42, 74
1, 20152, Note_on_c, 0, 54, 85
1, 20469, Note_on_c, 0, 69, 0
1, 20469, Note_on_c, 0, 57, 0
1, 20469, Note_on_c, 0, 59, 79
1, 20472, Note_on_c, 0, 71, 91
1, 20472, Note_on_c, 0, 54, 0
1, 20472, Note_on_c, 0, 42, 0
1, 20475, Note_on_c, 0, 41, 74
1, 20475, Note_on_c, 0, 53, 85
1, 20528, Note_on_c, 0, 71, 0
1, 20528, Note_on_c, 0, 59, 0
1, 20626, Note_on_c, 0, 55, 74
1, 20626, Note_on_c, 0, 67, 85
1, 20685, Note_on_c, 0, 67, 0
1, 20685, Note_on_c, 0, 55, 0
1, 20783, Note_on_c, 0, 60, 78
1, 20783, Note_on_c, 0, 72, 90
1, 20783, Note_on_c, 0, 53, 0
1, 20786, Note_on_c, 0, 41, 0
1, 20786, Note_on_c, 0, 40, 73
1, 20786, Note_on_c, 0, 52, 84
1, 21108, Note_on_c, 0, 52, 0
1, 21108, Note_on_c, 0, 40, 0
1, 21108, Note_on_c, 0, 38, 70
1, 21111, Note_on_c, 0, 50, 82
1, 21437, Note_on_c, 0, 72, 0
1, 21437, Note_on_c, 0, 60, 0
1, 21437, Note_on_c, 0, 59, 75
1, 21440, Note_on_c, 0, 71, 87
1, 21767, Note_on_c, 0, 71, 0
1, 21767, Note_on_c, 0, 59, 0
1, 21767, Note_on_c, 0, 60, 81
1, 21770, Note_on_c, 0, 72, 94
1, 21770, Note_on_c, 0, 50, 0
1, 21770, Note_on_c, 0, 38, 0
1, 21773, Note_on_c, 0, 48, 75
1, 21773, Note_on_c, 0, 52, 87
1, 22076, Note_on_c, 0, 72, 0
1, 22076, Note_on_c, 0, 60, 0
1, 22076, Note_on_c, 0, 60, 77
1, 22079, Note_on_c, 0, 72, 89
1, 22133, Note_on_c, 0, 72, 0
1, 22133, Note_on_c, 0, 60, 0
1, 22229, Note_on_c, 0, 60, 77
1, 22229, Note_on_c, 0, 72, 89
1, 22286, Note_on_c, 0, 72, 0
1, 22286, Note_on_c, 0, 60, 0
1, 22381, Note_on_c, 0, 60, 77
1, 22381, Note_on_c, 0, 72, 89
1, 22533, Note_on_c, 0, 52, 0
1, 22533, Note_on_c, 0, 48, 0
1, 22533, Note_on_c, 0, 52, 71
1, 22536, Note_on_c, 0, 55, 83
1, 22590, Note_on_c, 0, 55, 0
1, 22590, Note_on_c, 0, 52, 0
1, 22685, Note_on_c, 0, 72, 0
1, 22685, Note_on_c, 0, 60, 0
1, 22685, Note_on_c, 0, 60, 78
1, 22688, Note_on_c, 0, 72, 90
1, 22688, Note_on_c, 0, 53, 71
1, 22688, Note_on_c, 0, 57, 83
1, 22741, Note_on_c, 0, 72, 0
1, 22741, Note_on_c, 0, 60, 0
1, 22741, Note_on_c, 0, 57, 0
1, 22744, Note_on_c, 0, 53, 0
1, 22835, Note_on_c, 0, 60, 79
1, 22835, Note_on_c, 0, 72, 91
1, 22835, Note_on_c, 0, 55, 71
1, 22838, Note_on_c, 0, 58, 83
1, 22891, Note_on_c, 0, 72, 0
1, 22891, Note_on_c, 0, 60, 0
1, 22891, Note_on_c, 0, 58, 0
1, 22894, Note_on_c, 0, 55, 0
1, 22985, Note_on_c, 0, 61, 86
1, 22985, Note_on_c, 0, 73, 100
1, 22985, Note_on_c, 0, 53, 75
1, 22988, Note_on_c, 0, 57, 87
1, 23044, Note_on_c, 0, 73, 0
1, 23044, Note_on_c, 0, 61, 0
1, 23044, Note_on_c, 0, 57, 0
1, 23047, Note_on_c, 0, 53, 0
1, 23143, Note_on_c, 0, 52, 73
1, 23143, Note_on_c, 0, 55, 84
1, 23201, Note_on_c, 0, 55, 0
1, 23201, Note_on_c, 0, 52, 0
1, 23297, Note_on_c, 0, 62, 85
1, 23297, Note_on_c, 0, 74, 99
1, 23297, Note_on_c, 0, 50, 73
1, 23300, Note_on_c, 0, 53, 84
1, 23354, Note_on_c, 0, 53, 0
1, 23354, Note_on_c, 0, 50, 0
1, 23449, Note_on_c, 0, 45, 73
1, 23449, Note_on_c, 0, 52, 84
1, 23506, Note_on_c, 0, 52, 0
1, 23506, Note_on_c, 0, 45, 0
1, 23601, Note_on_c, 0, 41, 77
1, 23601, Note_on_c, 0, 50, 89
1, 23753, Note_on_c, 0, 74, 0
1, 23753, Note_on_c, 0, 62, 0
1, 23753, Note_on_c, 0, 64, 78
1, 23756, Note_on_c, 0, 76, 90
1, 23809, Note_on_c, 0, 76, 0
1, 23809, Note_on_c, 0, 64, 0
1, 23902, Note_on_c, 0, 65, 77
1, 23902, Note_on_c, 0, 77, 89
1, 23958, Note_on_c, 0, 77, 0
1, 23958, Note_on_c, 0, 65, 0
1, 24050, Note_on_c, 0, 64, 78
1, 24050, Note_on_c, 0, 76, 90
1, 24050, Note_on_c, 0, 50, 0
1, 24053, Note_on_c, 0, 41, 0
1, 24053, Note_on_c, 0, 45, 74
1, 24053, Note_on_c, 0, 49, 85
1, 24106, Note_on_c, 0, 76, 0
1, 24106, Note_on_c, 0, 64, 0
1, 24106, Note_on_c, 0, 49, 0
1, 24109, Note_on_c, 0, 45, 0
1, 24198, Note_on_c, 0, 62, 81
1, 24198, Note_on_c, 0, 74, 94
1, 24198, Note_on_c, 0, 46, 75
1, 24201, Note_on_c, 0, 50, 87
1, 24502, Note_on_c, 0, 74, 0
1, 24502, Note_on_c, 0, 62, 0
1, 24502, Note_on_c, 0, 62, 81
1, 24505, Note_on_c, 0, 74, 94
1, 24558, Note_on_c, 0, 74, 0
1, 24558, Note_on_c, 0, 62, 0
1, 24651, Note_on_c, 0, 62, 78
1, 24651, Note_on_c, 0, 74, 90
1, 24707, Note_on_c, 0, 74, 0
1, 24707, Note_on_c, 0, 62, 0
1, 24801, Note_on_c, 0, 62, 78
1, 24801, Note_on_c, 0, 74, 90
1, 24953, Note_on_c, 0, 50, 0
1, 24953, Note_on_c, 0, 46, 0
1, 24953, Note_on_c, 0, 50, 71
1, 24956, Note_on_c, 0, 58, 83
1, 25010, Note_on_c, 0, 58, 0
1, 25010, Note_on_c, 0, 50, 0
1, 25105, Note_on_c, 0, 74, 0
1, 25105, Note_on_c, 0, 62, 0
1, 25105, Note_on_c, 0, 62, 79
1, 25108, Note_on_c, 0, 74, 91
1, 25108, Note_on_c, 0, 58, 71
1, 25108, Note_on_c, 0, 62, 83
1, 25161, Note_on_c, 0, 74, 0
1, 25161, Note_on_c, 0, 62, 0
1, 25161, Note_on_c, 0, 62, 0
1, 25164, Note_on_c, 0, 58, 0
1, 25255, Note_on_c, 0, 62, 79
1, 25255, Note_on_c, 0, 74, 91
1, 25255, Note_on_c, 0, 57, 71
1, 25258, Note_on_c, 0, 60, 83
1, 25311, Note_on_c, 0, 74, 0
1, 25311, Note_on_c, 0, 62, 0
1, 25311, Note_on_c, 0, 60, 0
1, 25314, Note_on_c, 0, 57, 0
1, 25404, Note_on_c, 0, 63, 86
1, 25404, Note_on_c, 0, 75, 100
1, 25404, Note_on_c, 0, 55, 75
1, 25407, Note_on_c, 0, 59, 87
1, 25465, Note_on_c, 0, 75, 0
1, 25465, Note_on_c, 0, 63, 0
1, 25465, Note_on_c, 0, 59, 0
1, 25468, Note_on_c, 0, 55, 0
1, 25566, Note_on_c, 0, 54, 73
1, 25566, Note_on_c, 0, 57, 84
1, 25624, Note_on_c, 0, 57, 0
1, 25624, Note_on_c, 0, 54, 0
1, 25720, Note_on_c, 0, 64, 85
1, 25720, Note_on_c, 0, 76, 99
1, 25720, Note_on_c, 0, 52, 73
1, 25723, Note_on_c, 0, 55, 84
1, 25777, Note_on_c, 0, 55, 0
1, 25777, Note_on_c, 0, 52, 0
1, 25872, Note_on_c, 0, 47, 73
1, 25872, Note_on_c, 0, 54, 84
1, 25929, Note_on_c, 0, 54, 0
1, 25929, Note_on_c, 0, 47, 0
1, 26024, Note_on_c, 0, 43, 77
1, 26024, Note_on_c, 0, 52, 89
1, 26176, Note_on_c, 0, 76, 0
1, 26176, Note_on_c, 0, 64, 0
1, 26176, Note_on_c, 0, 66, 82
1, 26179, Note_on_c, 0, 78, 82
1, 26232, Note_on_c, 0, 78, 0
1, 26232, Note_on_c, 0, 66, 0
1, 26324, Note_on_c, 0, 67, 69
1, 26324, Note_on_c, 0, 79, 81
1, 26379, Note_on_c, 0, 79, 0
1, 26379, Note_on_c, 0, 67, 0
1, 26471, Note_on_c, 0, 69, 70
1, 26471, Note_on_c, 0, 81, 82
1, 26471, Note_on_c, 0, 52, 0
1, 26474, Note_on_c, 0, 43, 0
1, 26474, Note_on_c, 0, 41, 66
1, 26474, Note_on_c, 0, 50, 77
1, 26526, Note_on_c, 0, 81, 0
1, 26526, Note_on_c, 0, 69, 0
1, 26526, Note_on_c, 0, 50, 0
1, 26529, Note_on_c, 0, 41, 0
1, 26618, Note_on_c, 0, 70, 78
1, 26618, Note_on_c, 0, 82, 90
1, 26618, Note_on_c, 0, 40, 67
1, 26621, Note_on_c, 0, 49, 79
1, 26675, Note_on_c, 0, 49, 0
1, 26675, Note_on_c, 0, 40, 0
1, 26770, Note_on_c, 0, 43, 64
1, 26770, Note_on_c, 0, 52, 75
1, 26827, Note_on_c, 0, 52, 0
1, 26827, Note_on_c, 0, 43, 0
1, 26922, Note_on_c, 0, 82, 0
1, 26922, Note_on_c, 0, 70, 0
1, 26922, Note_on_c, 0, 70, 70
1, 26925, Note_on_c, 0, 82, 82
1, 26925, Note_on_c, 0, 40, 67
1, 26925, Note_on_c, 0, 49, 79
1, 26979, Note_on_c, 0, 82, 0
1, 26979, Note_on_c, 0, 70, 0
1, 26979, Note_on_c, 0, 49, 0
1, 26982, Note_on_c, 0, 40, 0
1, 27074, Note_on_c, 0, 70, 70
1, 27074, Note_on_c, 0, 82, 82
1, 27074, Note_on_c, 0, 43, 62
1, 27077, Note_on_c, 0, 52, 73
1, 27134, Note_on_c, 0, 82, 0
1, 27134, Note_on_c, 0, 70, 0
1, 27134, Note_on_c, 0, 52, 0
1, 27137, Note_on_c, 0, 43, 0
1, 27235, Note_on_c, 0, 61, 81
1, 27235, Note_on_c, 0, 73, 94
1, 27235, Note_on_c, 0, 55, 69
1, 27238, Note_on_c, 0, 58, 82
1, 27290, Note_on_c, 0, 58, 0
1, 27290, Note_on_c, 0, 55, 0
1, 27382, Note_on_c, 0, 55, 68
1, 27382, Note_on_c, 0, 58, 80
1, 27685, Note_on_c, 0, 73, 0
1, 27685, Note_on_c, 0, 61, 0
1, 27685, Note_on_c, 0, 61, 76
1, 27688, Note_on_c, 0, 73, 87
1, 27741, Note_on_c, 0, 73, 0
1, 27741, Note_on_c, 0, 61, 0
1, 27834, Note_on_c, 0, 69, 78
1, 27834, Note_on_c, 0, 81, 90
1, 27834, Note_on_c, 0, 58, 0
1, 27837, Note_on_c, 0, 55, 0
1, 27837, Note_on_c, 0, 39, 67
1, 27837, Note_on_c, 0, 48, 79
1, 27890, Note_on_c, 0, 48, 0
1, 27890, Note_on_c, 0, 39, 0
1, 27985, Note_on_c, 0, 42, 64
1, 27985, Note_on_c, 0, 51, 75
1, 28042, Note_on_c, 0, 51, 0
1, 28042, Note_on_c, 0, 42, 0
1, 28137, Note_on_c, 0, 81, 0
1, 28137, Note_on_c, 0, 69, 0
1, 28137, Note_on_c, 0, 69, 70
1, 28140, Note_on_c, 0, 81, 82
1, 28140, Note_on_c, 0, 39, 67
1, 28140, Note_on_c, 0, 48, 79
1, 28194, Note_on_c, 0, 81, 0
1, 28194, Note_on_c, 0, 69, 0
1, 28194, Note_on_c, 0, 48, 0
1, 28197, Note_on_c, 0, 39, 0
1, 28289, Note_on_c, 0, 69, 71
1, 28289, Note_on_c, 0, 81, 83
1, 28289, Note_on_c, 0, 42, 62
1, 28292, Note_on_c, 0, 51, 73
1, 28350, Note_on_c, 0, 81, 0
1, 28350, Note_on_c, 0, 69, 0
1, 28350, Note_on_c, 0, 51, 0
1, 28353, Note_on_c, 0, 42, 0
1, 28451, Note_on_c, 0, 60, 81
1, 28451, Note_on_c, 0, 72, 94
1, 28451, Note_on_c, 0, 54, 69
1, 28454, Note_on_c, 0, 57, 82
1, 28506, Note_on_c, 0, 57, 0
1, 28506, Note_on_c, 0, 54, 0
1, 28599, Note_on_c, 0, 54, 68
1, 28599, Note_on_c, 0, 57, 80
1, 28902, Note_on_c, 0, 72, 0
1, 28902, Note_on_c, 0, 60, 0
1, 28902, Note_on_c, 0, 60, 71
1, 28905, Note_on_c, 0, 72, 83
1, 28959, Note_on_c, 0, 72, 0
1, 28959, Note_on_c, 0, 60, 0
1, 29053, Note_on_c, 0, 59, 73
1, 29053, Note_on_c, 0, 71, 83
1, 29053, Note_on_c, 0, 57, 0
1, 29056, Note_on_c, 0, 54, 0
1, 29056, Note_on_c, 0, 55, 81
1, 29110, Note_on_c, 0, 71, 0
1, 29110, Note_on_c, 0, 59, 0
1, 29205, Note_on_c, 0, 62, 74
1, 29205, Note_on_c, 0, 74, 85
1, 29261, Note_on_c, 0, 74, 0
1, 29261, Note_on_c, 0, 62, 0
1, 29355, Note_on_c, 0, 67, 78
1, 29355, Note_on_c, 0, 79, 90
1, 29355, Note_on_c, 0, 55, 0
1, 29358, Note_on_c, 0, 47, 65
1, 29358, Note_on_c, 0, 50, 76
1, 29411, Note_on_c, 0, 79, 0
1, 29411, Note_on_c, 0, 67, 0
1, 29505, Note_on_c, 0, 65, 75
1, 29505, Note_on_c, 0, 77, 87
1, 29561, Note_on_c, 0, 77, 0
1, 29561, Note_on_c, 0, 65, 0
1, 29655, Note_on_c, 0, 64, 77
1, 29655, Note_on_c, 0, 76, 89
1, 29655, Note_on_c, 0, 50, 0
1, 29658, Note_on_c, 0, 47, 0
1, 29658, Note_on_c, 0, 48, 65
1, 29658, Note_on_c, 0, 52, 75
1, 29712, Note_on_c, 0, 76, 0
1, 29712, Note_on_c, 0, 64, 0
1, 29712, Note_on_c, 0, 52, 0
1, 29715, Note_on_c, 0, 48, 0
1, 29807, Note_on_c, 0, 60, 76
1, 29807, Note_on_c, 0, 72, 87
1, 29807, Note_on_c, 0, 50, 66
1, 29810, Note_on_c, 0, 53, 78
1, 29864, Note_on_c, 0, 72, 0
1, 29864, Note_on_c, 0, 60, 0
1, 29864, Note_on_c, 0, 53, 0
1, 29867, Note_on_c, 0, 50, 0
1, 29959, Note_on_c, 0, 59, 77
1, 29959, Note_on_c, 0, 71, 88
1, 29959, Note_on_c, 0, 52, 69
1, 29962, Note_on_c, 0, 55, 80
1, 30016, Note_on_c, 0, 71, 0
1, 30016, Note_on_c, 0, 59, 0
1, 30016, Note_on_c, 0, 55, 0
1, 30019, Note_on_c, 0, 52, 0
1, 30111, Note_on_c, 0, 57, 77
1, 30111, Note_on_c, 0, 69, 89
1, 30111, Note_on_c, 0, 53, 71
1, 30114, Note_on_c, 0, 57, 83
1, 30168, Note_on_c, 0, 69, 0
1, 30168, Note_on_c, 0, 57, 0
1, 30168, Note_on_c, 0, 57, 0
1, 30171, Note_on_c, 0, 53, 0
1, 30263, Note_on_c, 0, 65, 81
1, 30263, Note_on_c, 0, 77, 94
1, 30263, Note_on_c, 0, 50, 75
1, 30266, Note_on_c, 0, 55, 87
1, 30320, Note_on_c, 0, 55, 0
1, 30416, Note_on_c, 0, 59, 85
1, 30474, Note_on_c, 0, 59, 0
1, 30570, Note_on_c, 0, 77, 0
1, 30570, Note_on_c, 0, 65, 0
1, 30570, Note_on_c, 0, 64, 79
1, 30573, Note_on_c, 0, 76, 91
1, 30573, Note_on_c, 0, 50, 0
1, 30573, Note_on_c, 0, 48, 87
1, 30576, Note_on_c, 0, 60, 86
1, 30628, Note_on_c, 0, 48, 0
1, 30726, Note_on_c, 0, 52, 85
1, 30785, Note_on_c, 0, 52, 0
1, 30882, Note_on_c, 0, 76, 0
1, 30882, Note_on_c, 0, 64, 0
1, 30882, Note_on_c, 0, 62, 81
1, 30885, Note_on_c, 0, 74, 94
1, 30885, Note_on_c, 0, 55, 75
1, 31208, Note_on_c, 0, 60, 0
1, 31208, Note_on_c, 0, 59, 85
1, 31542, Note_on_c, 0, 74, 0
1, 31542, Note_on_c, 0, 62, 0
1, 31542, Note_on_c, 0, 76, 84
1, 31545, Note_on_c, 0, 72, 84
1, 31545, Note_on_c, 0, 84, 99
1, 31545, Note_on_c, 0, 59, 0
1, 31548, Note_on_c, 0, 55, 0
1, 31548, Note_on_c, 0, 36, 91
1, 31548, Note_on_c, 0, 48, 106
1, 31849, Note_on_c, 0, 48, 0
1, 31849, Note_on_c, 0, 36, 0
1, 31849, Note_on_c, 0, 36, 87
1, 31852, Note_on_c, 0, 48, 101
1, 31906, Note_on_c, 0, 48, 0
1, 31906, Note_on_c, 0, 36, 0
1, 32002, Note_on_c, 0, 36, 87
1, 32002, Note_on_c, 0, 48, 101
1, 32059, Note_on_c, 0, 48, 0
1, 32059, Note_on_c, 0, 36, 0
1, 32154, Note_on_c, 0, 36, 87
1, 32154, Note_on_c, 0, 48, 101
1, 32300, Note_on_c, 0, 84, 0
1, 32300, Note_on_c, 0, 72, 0
1, 32300, Note_on_c, 0, 76, 0
1, 32303, Note_on_c, 0, 67, 80
1, 32303, Note_on_c, 0, 76, 80
1, 32303, Note_on_c, 0, 79, 94
1, 32356, Note_on_c, 0, 79, 0
1, 32356, Note_on_c, 0, 76, 0
1, 32356, Note_on_c, 0, 67, 0
1, 32449, Note_on_c, 0, 69, 80
1, 32449, Note_on_c, 0, 77, 80
1, 32449, Note_on_c, 0, 81, 94
1, 32452, Note_on_c, 0, 48, 0
1, 32452, Note_on_c, 0, 36, 0
1, 32452, Note_on_c, 0, 36, 88
1, 32455, Note_on_c, 0, 48, 102
1, 32505, Note_on_c, 0, 81, 0
1, 32505, Note_on_c, 0, 77, 0
1, 32505, Note_on_c, 0, 69, 0
1, 32508, Note_on_c, 0, 48, 0
1, 32508, Note_on_c, 0, 36, 0
1, 32600, Note_on_c, 0, 70, 80
1, 32600, Note_on_c, 0, 79, 80
1, 32600, Note_on_c, 0, 82, 94
1, 32603, Note_on_c, 0, 36, 89
1, 32603, Note_on_c, 0, 48, 103
1, 32657, Note_on_c, 0, 82, 0
1, 32657, Note_on_c, 0, 79, 0
1, 32657, Note_on_c, 0, 70, 0
1, 32660, Note_on_c, 0, 48, 0
1, 32660, Note_on_c, 0, 36, 0
1, 32752, Note_on_c, 0, 69, 84
1, 32752, Note_on_c, 0, 77, 84
1, 32752, Note_on_c, 0, 81, 99
1, 32755, Note_on_c, 0, 37, 95
1, 32755, Note_on_c, 0, 49, 110
1, 32807, Note_on_c, 0, 81, 0
1, 32807, Note_on_c, 0, 77, 0
1, 32807, Note_on_c, 0, 69, 0
1, 32810, Note_on_c, 0, 49, 0
1, 32810, Note_on_c, 0, 37, 0
1, 32900, Note_on_c, 0, 67, 80
1, 32900, Note_on_c, 0, 76, 80
1, 32900, Note_on_c, 0, 79, 93
1, 32956, Note_on_c, 0, 79, 0
1, 32956, Note_on_c, 0, 76, 0
1, 32956, Note_on_c, 0, 67, 0
1, 33049, Note_on_c, 0, 65, 80
1, 33049, Note_on_c, 0, 74, 80
1, 33049, Note_on_c, 0, 77, 93
1, 33052, Note_on_c, 0, 38, 91
1, 33052, Note_on_c, 0, 50, 109
1, 33106, Note_on_c, 0, 77, 0
1, 33106, Note_on_c, 0, 74, 0
1, 33106, Note_on_c, 0, 65, 0
1, 33201, Note_on_c, 0, 64, 80
1, 33201, Note_on_c, 0, 69, 80
1, 33201, Note_on_c, 0, 76, 93
1, 33258, Note_on_c, 0, 76, 0
1, 33258, Note_on_c, 0, 69, 0
1, 33258, Note_on_c, 0, 64, 0
1, 33353, Note_on_c, 0, 62, 85
1, 33353, Note_on_c, 0, 65, 85
1, 33353, Note_on_c, 0, 74, 99
1, 33505, Note_on_c, 0, 50, 0
1, 33505, Note_on_c, 0, 38, 0
1, 33505, Note_on_c, 0, 40, 88
1, 33508, Note_on_c, 0, 52, 102
1, 33561, Note_on_c, 0, 52, 0
1, 33561, Note_on_c, 0, 40, 0
1, 33655, Note_on_c, 0, 41, 87
1, 33655, Note_on_c, 0, 53, 101
1, 33710, Note_on_c, 0, 53, 0
1, 33710, Note_on_c, 0, 41, 0
1, 33802, Note_on_c, 0, 74, 0
1, 33802, Note_on_c, 0, 65, 0
1, 33802, Note_on_c, 0, 62, 0
1, 33805, Note_on_c, 0, 73, 83
1, 33805, Note_on_c, 0, 76, 83
1, 33805, Note_on_c, 0, 85, 96
1, 33808, Note_on_c, 0, 40, 88
1, 33808, Note_on_c, 0, 52, 102
1, 33858, Note_on_c, 0, 85, 0
1, 33858, Note_on_c, 0, 76, 0
1, 33858, Note_on_c, 0, 73, 0
1, 33861, Note_on_c, 0, 52, 0
1, 33861, Note_on_c, 0, 40, 0
1, 33950, Note_on_c, 0, 74, 84
1, 33950, Note_on_c, 0, 77, 84
1, 33950, Note_on_c, 0, 86, 99
1, 33953, Note_on_c, 0, 38, 91
1, 33953, Note_on_c, 0, 50, 106
1, 34254, Note_on_c, 0, 50, 0
1, 34254, Note_on_c, 0, 38, 0
1, 34254, Note_on_c, 0, 38, 91
1, 34257, Note_on_c, 0, 50, 106
1, 34310, Note_on_c, 0, 50, 0
1, 34310, Note_on_c, 0, 38, 0
1, 34403, Note_on_c, 0, 38, 88
1, 34403, Note_on_c, 0, 50, 102
1, 34459, Note_on_c, 0, 50, 0
1, 34459, Note_on_c, 0, 38, 0
1, 34553, Note_on_c, 0, 38, 88
1, 34553, Note_on_c, 0, 50, 102
1, 34705, Note_on_c, 0, 86, 0
1, 34705, Note_on_c, 0, 77, 0
1, 34705, Note_on_c, 0, 74, 0
1, 34708, Note_on_c, 0, 69, 80
1, 34708, Note_on_c, 0, 77, 80
1, 34708, Note_on_c, 0, 81, 94
1, 34760, Note_on_c, 0, 81, 0
1, 34760, Note_on_c, 0, 77, 0
1, 34760, Note_on_c, 0, 69, 0
1, 34851, Note_on_c, 0, 79, 80
1, 34851, Note_on_c, 0, 71, 80
1, 34851, Note_on_c, 0, 83, 94
1, 34854, Note_on_c, 0, 50, 0
1, 34854, Note_on_c, 0, 38, 0
1, 34854, Note_on_c, 0, 38, 89
1, 34857, Note_on_c, 0, 50, 103
1, 34907, Note_on_c, 0, 83, 0
1, 34907, Note_on_c, 0, 71, 0
1, 34907, Note_on_c, 0, 79, 0
1, 34910, Note_on_c, 0, 50, 0
1, 34910, Note_on_c, 0, 38, 0
1, 35001, Note_on_c, 0, 72, 80
1, 35001, Note_on_c, 0, 81, 80
1, 35001, Note_on_c, 0, 84, 94
1, 35004, Note_on_c, 0, 38, 89
1, 35004, Note_on_c, 0, 50, 103
1, 35058, Note_on_c, 0, 84, 0
1, 35058, Note_on_c, 0, 81, 0
1, 35058, Note_on_c, 0, 72, 0
1, 35061, Note_on_c, 0, 50, 0
1, 35061, Note_on_c, 0, 38, 0
1, 35152, Note_on_c, 0, 71, 84
1, 35152, Note_on_c, 0, 79, 84
1, 35152, Note_on_c, 0, 83, 99
1, 35155, Note_on_c, 0, 39, 95
1, 35155, Note_on_c, 0, 51, 110
1, 35207, Note_on_c, 0, 83, 0
1, 35207, Note_on_c, 0, 79, 0
1, 35207, Note_on_c, 0, 71, 0
1, 35210, Note_on_c, 0, 51, 0
1, 35210, Note_on_c, 0, 39, 0
1, 35300, Note_on_c, 0, 69, 80
1, 35300, Note_on_c, 0, 78, 80
1, 35300, Note_on_c, 0, 81, 93
1, 35355, Note_on_c, 0, 81, 0
1, 35355, Note_on_c, 0, 78, 0
1, 35355, Note_on_c, 0, 69, 0
1, 35448, Note_on_c, 0, 67, 80
1, 35448, Note_on_c, 0, 76, 80
1, 35448, Note_on_c, 0, 79, 93
1, 35451, Note_on_c, 0, 40, 90
1, 35451, Note_on_c, 0, 52, 109
1, 35505, Note_on_c, 0, 79, 0
1, 35505, Note_on_c, 0, 76, 0
1, 35505, Note_on_c, 0, 67, 0
1, 35600, Note_on_c, 0, 66, 80
1, 35600, Note_on_c, 0, 71, 80
1, 35600, Note_on_c, 0, 78, 93
1, 35657, Note_on_c, 0, 78, 0
1, 35657, Note_on_c, 0, 71, 0
1, 35657, Note_on_c, 0, 66, 0
1, 35752, Note_on_c, 0, 64, 85
1, 35752, Note_on_c, 0, 67, 85
1, 35752, Note_on_c, 0, 76, 99
1, 35904, Note_on_c, 0, 52, 0
1, 35904, Note_on_c, 0, 40, 0
1, 35904, Note_on_c, 0, 42, 102
1, 35907, Note_on_c, 0, 54, 102
1, 35959, Note_on_c, 0, 54, 0
1, 35959, Note_on_c, 0, 42, 0
1, 36053, Note_on_c, 0, 43, 87
1, 36053, Note_on_c, 0, 55, 101
1, 36108, Note_on_c, 0, 55, 0
1, 36108, Note_on_c, 0, 43, 0
1, 36201, Note_on_c, 0, 76, 0
1, 36201, Note_on_c, 0, 67, 0
1, 36201, Note_on_c, 0, 64, 0
1, 36204, Note_on_c, 0, 62, 83
1, 36204, Note_on_c, 0, 65, 83
1, 36204, Note_on_c, 0, 74, 96
1, 36207, Note_on_c, 0, 45, 88
1, 36207, Note_on_c, 0, 57, 102
1, 36257, Note_on_c, 0, 74, 0
1, 36257, Note_on_c, 0, 65, 0
1, 36257, Note_on_c, 0, 62, 0
1, 36260, Note_on_c, 0, 57, 0
1, 36260, Note_on_c, 0, 45, 0
1, 36350, Note_on_c, 0, 61, 84
1, 36350, Note_on_c, 0, 64, 84
1, 36350, Note_on_c, 0, 73, 99
1, 36353, Note_on_c, 0, 46, 97
1, 36353, Note_on_c, 0, 58, 113
1, 36406, Note_on_c, 0, 73, 0
1, 36406, Note_on_c, 0, 64, 0
1, 36406, Note_on_c, 0, 61, 0
1, 36500, Note_on_c, 0, 64, 79
1, 36500, Note_on_c, 0, 67, 79
1, 36500, Note_on_c, 0, 76, 92
1, 36556, Note_on_c, 0, 76, 0
1, 36556, Note_on_c, 0, 67, 0
1, 36556, Note_on_c, 0, 64, 0
1, 36650, Note_on_c, 0, 61, 84
1, 36650, Note_on_c, 0, 64, 84
1, 36650, Note_on_c, 0, 73, 99
1, 36653, Note_on_c, 0, 58, 0
1, 36653, Note_on_c, 0, 46, 0
1, 36653, Note_on_c, 0, 46, 88
1, 36656, Note_on_c, 0, 58, 102
1, 36707, Note_on_c, 0, 73, 0
1, 36707, Note_on_c, 0, 64, 0
1, 36707, Note_on_c, 0, 61, 0
1, 36710, Note_on_c, 0, 58, 0
1, 36710, Note_on_c, 0, 46, 0
1, 36802, Note_on_c, 0, 64, 77
1, 36802, Note_on_c, 0, 67, 77
1, 36802, Note_on_c, 0, 76, 90
1, 36805, Note_on_c, 0, 46, 88
1, 36805, Note_on_c, 0, 58, 102
1, 36863, Note_on_c, 0, 76, 0
1, 36863, Note_on_c, 0, 67, 0
1, 36863, Note_on_c, 0, 64, 0
1, 36866, Note_on_c, 0, 58, 0
1, 36866, Note_on_c, 0, 46, 0
1, 36963, Note_on_c, 0, 70, 84
1, 36963, Note_on_c, 0, 79, 84
1, 36963, Note_on_c, 0, 82, 99
1, 36966, Note_on_c, 0, 37, 95
1, 36966, Note_on_c, 0, 49, 110
1, 37018, Note_on_c, 0, 82, 0
1, 37018, Note_on_c, 0, 79, 0
1, 37018, Note_on_c, 0, 70, 0
1, 37109, Note_on_c, 0, 70, 83
1, 37109, Note_on_c, 0, 79, 83
1, 37109, Note_on_c, 0, 82, 96
1, 37412, Note_on_c, 0, 49, 0
1, 37412, Note_on_c, 0, 37, 0
1, 37412, Note_on_c, 0, 37, 90
1, 37415, Note_on_c, 0, 49, 104
1, 37469, Note_on_c, 0, 49, 0
1, 37469, Note_on_c, 0, 37, 0
1, 37564, Note_on_c, 0, 82, 0
1, 37564, Note_on_c, 0, 79, 0
1, 37564, Note_on_c, 0, 70, 0
1, 37567, Note_on_c, 0, 60, 82
1, 37567, Note_on_c, 0, 63, 82
1, 37567, Note_on_c, 0, 72, 97
1, 37570, Note_on_c, 0, 45, 95
1, 37570, Note_on_c, 0, 57, 110
1, 37620, Note_on_c, 0, 72, 0
1, 37620, Note_on_c, 0, 63, 0
1, 37620, Note_on_c, 0, 60, 0
1, 37713, Note_on_c, 0, 63, 77
1, 37713, Note_on_c, 0, 66, 77
1, 37713, Note_on_c, 0, 75, 90
1, 37769, Note_on_c, 0, 75, 0
1, 37769, Note_on_c, 0, 66, 0
1, 37769, Note_on_c, 0, 63, 0
1, 37863, Note_on_c, 0, 60, 82
1, 37863, Note_on_c, 0, 63, 82
1, 37863, Note_on_c, 0, 72, 97
1, 37866, Note_on_c, 0, 57, 0
1, 37866, Note_on_c, 0, 45, 0
1, 37866, Note_on_c, 0, 45, 86
1, 37869, Note_on_c, 0, 57, 100
1, 37919, Note_on_c, 0, 72, 0
1, 37919, Note_on_c, 0, 63, 0
1, 37919, Note_on_c, 0, 60, 0
1, 37922, Note_on_c, 0, 57, 0
1, 37922, Note_on_c, 0, 45, 0
1, 38012, Note_on_c, 0, 63, 75
1, 38012, Note_on_c, 0, 66, 75
1, 38012, Note_on_c, 0, 75, 88
1, 38015, Note_on_c, 0, 45, 87
1, 38015, Note_on_c, 0, 57, 101
1, 38073, Note_on_c, 0, 75, 0
1, 38073, Note_on_c, 0, 66, 0
1, 38073, Note_on_c, 0, 63, 0
1, 38076, Note_on_c, 0, 57, 0
1, 38076, Note_on_c, 0, 45, 0
1, 38174, Note_on_c, 0, 69, 82
1, 38174, Note_on_c, 0, 78, 82
1, 38174, Note_on_c, 0, 81, 97
1, 38177, Note_on_c, 0, 36, 93
1, 38177, Note_on_c, 0, 48, 108
1, 38229, Note_on_c, 0, 81, 0
1, 38229, Note_on_c, 0, 78, 0
1, 38229, Note_on_c, 0, 69, 0
1, 38320, Note_on_c, 0, 69, 81
1, 38320, Note_on_c, 0, 78, 81
1, 38320, Note_on_c, 0, 81, 94
1, 38625, Note_on_c, 0, 48, 0
1, 38625, Note_on_c, 0, 36, 0
1, 38625, Note_on_c, 0, 36, 87
1, 38628, Note_on_c, 0, 48, 101
1, 38682, Note_on_c, 0, 48, 0
1, 38682, Note_on_c, 0, 36, 0
1, 38777, Note_on_c, 0, 81, 0
1, 38777, Note_on_c, 0, 78, 0
1, 38777, Note_on_c, 0, 69, 0
1, 38780, Note_on_c, 0, 67, 94
1, 38780, Note_on_c, 0, 79, 100
1, 38780, Note_on_c, 0, 35, 89
1, 38783, Note_on_c, 0, 47, 103
1, 38834, Note_on_c, 0, 47, 0
1, 38834, Note_on_c, 0, 35, 0
1, 38930, Note_on_c, 0, 38, 90
1, 38930, Note_on_c, 0, 50, 104
1, 38986, Note_on_c, 0, 50, 0
1, 38986, Note_on_c, 0, 38, 0
1, 39080, Note_on_c, 0, 79, 0
1, 39080, Note_on_c, 0, 67, 0
1, 39080, Note_on_c, 0, 62, 78
1, 39083, Note_on_c, 0, 71, 78
1, 39083, Note_on_c, 0, 74, 91
1, 39083, Note_on_c, 0, 43, 94
1, 39086, Note_on_c, 0, 55, 110
1, 39136, Note_on_c, 0, 55, 0
1, 39136, Note_on_c, 0, 43, 0
1, 39229, Note_on_c, 0, 41, 90
1, 39229, Note_on_c, 0, 53, 104
1, 39286, Note_on_c, 0, 53, 0
1, 39286, Note_on_c, 0, 41, 0
1, 39379, Note_on_c, 0, 74, 0
1, 39379, Note_on_c, 0, 71, 0
1, 39379, Note_on_c, 0, 62, 0
1, 39382, Note_on_c, 0, 64, 77
1, 39382, Note_on_c, 0, 72, 77
1, 39382, Note_on_c, 0, 76, 89
1, 39385, Note_on_c, 0, 40, 91
1, 39385, Note_on_c, 0, 52, 106
1, 39436, Note_on_c, 0, 76, 0
1, 39436, Note_on_c, 0, 72, 0
1, 39436, Note_on_c, 0, 64, 0
1, 39439, Note_on_c, 0, 52, 0
1, 39439, Note_on_c, 0, 40, 0
1, 39531, Note_on_c, 0, 65, 78
1, 39531, Note_on_c, 0, 74, 78
1, 39531, Note_on_c, 0, 77, 91
1, 39534, Note_on_c, 0, 36, 89
1, 39534, Note_on_c, 0, 48, 103
1, 39588, Note_on_c, 0, 77, 0
1, 39588, Note_on_c, 0, 74, 0
1, 39588, Note_on_c, 0, 65, 0
1, 39591, Note_on_c, 0, 48, 0
1, 39591, Note_on_c, 0, 36, 0
1, 39683, Note_on_c, 0, 67, 80
1, 39683, Note_on_c, 0, 76, 80
1, 39683, Note_on_c, 0, 79, 94
1, 39686, Note_on_c, 0, 35, 89
1, 39686, Note_on_c, 0, 47, 103
1, 39740, Note_on_c, 0, 79, 0
1, 39740, Note_on_c, 0, 76, 0
1, 39740, Note_on_c, 0, 67, 0
1, 39743, Note_on_c, 0, 47, 0
1, 39743, Note_on_c, 0, 35, 0
1, 39835, Note_on_c, 0, 69, 83
1, 39835, Note_on_c, 0, 77, 83
1, 39835, Note_on_c, 0, 81, 96
1, 39838, Note_on_c, 0, 33, 89
1, 39838, Note_on_c, 0, 45, 103
1, 39892, Note_on_c, 0, 81, 0
1, 39892, Note_on_c, 0, 77, 0
1, 39892, Note_on_c, 0, 69, 0
1, 39895, Note_on_c, 0, 45, 0
1, 39895, Note_on_c, 0, 33, 0
1, 39987, Note_on_c, 0, 71, 84
1, 39987, Note_on_c, 0, 74, 84
1, 39987, Note_on_c, 0, 79, 99
1, 39990, Note_on_c, 0, 41, 91
1, 39990, Note_on_c, 0, 53, 106
1, 40294, Note_on_c, 0, 79, 0
1, 40294, Note_on_c, 0, 74, 0
1, 40294, Note_on_c, 0, 71, 0
1, 40297, Note_on_c, 0, 72, 84
1, 40297, Note_on_c, 0, 79, 84
1, 40297, Note_on_c, 0, 84, 98
1, 40300, Note_on_c, 0, 53, 0
1, 40300, Note_on_c, 0, 41, 0
1, 40300, Note_on_c, 0, 40, 89
1, 40303, Note_on_c, 0, 52, 103
1, 40634, Note_on_c, 0, 84, 0
1, 40634, Note_on_c, 0, 79, 0
1, 40634, Note_on_c, 0, 72, 0
1, 40637, Note_on_c, 0, 83, 92
1, 40637, Note_on_c, 0, 77, 92
1, 40637, Note_on_c, 0, 89, 107
1, 40640, Note_on_c, 0, 52, 0
1, 40640, Note_on_c, 0, 40, 0
1, 40640, Note_on_c, 0, 38, 91
1, 40643, Note_on_c, 0, 50, 106
1, 40955, Note_on_c, 0, 83, 0
1, 40955, Note_on_c, 0, 83, 104
1, 41275, Note_on_c, 0, 83, 0
1, 41275, Note_on_c, 0, 89, 0
1, 41275, Note_on_c, 0, 77, 0
1, 41278, Note_on_c, 0, 50, 0
1, 41278, Note_on_c, 0, 38, 0
1, 41278, Note_on_c, 0, 49, 90
1, 41281, Note_on_c, 0, 61, 106
1, 41310, Control_c, 0, 64, 127
1, 41348, Note_on_c, 0, 67, 84
1, 41421, Note_on_c, 0, 67, 0
1, 41421, Note_on_c, 0, 70, 85
1, 41494, Note_on_c, 0, 70, 0
1, 41494, Note_on_c, 0, 73, 85
1, 41563, Control_c, 0, 64, 0
1, 41567, Note_on_c, 0, 73, 0
1, 41567, Note_on_c, 0, 76, 86
1, 41567, Note_on_c, 0, 61, 0
1, 41570, Note_on_c, 0, 49, 0
1, 41570, Note_on_c, 0, 49, 87
1, 41570, Note_on_c, 0, 61, 102
1, 41639, Note_on_c, 0, 79, 87
1, 41639, Note_on_c, 0, 61, 0
1, 41639, Note_on_c, 0, 49, 0
1, 41650, Note_on_c, 0, 76, 0
1, 41710, Note_on_c, 0, 82, 88
1, 41710, Note_on_c, 0, 49, 84
1, 41710, Note_on_c, 0, 61, 98
1, 41722, Note_on_c, 0, 79, 0
1, 41782, Note_on_c, 0, 85, 89
1, 41782, Note_on_c, 0, 61, 0
1, 41782, Note_on_c, 0, 49, 0
1, 41795, Note_on_c, 0, 82, 0
1, 41863, Note_on_c, 0, 91, 89
1, 41863, Note_on_c, 0, 40, 87
1, 41863, Note_on_c, 0, 52, 102
1, 41875, Note_on_c, 0, 85, 0
1, 41887, Control_c, 0, 64, 127
1, 41936, Note_on_c, 0, 91, 0
1, 41936, Note_on_c, 0, 88, 88
1, 42009, Note_on_c, 0, 88, 0
1, 42009, Note_on_c, 0, 85, 87
1, 42081, Note_on_c, 0, 85, 0
1, 42081, Note_on_c, 0, 82, 86
1, 42154, Note_on_c, 0, 82, 0
1, 42154, Note_on_c, 0, 79, 85
1, 42227, Note_on_c, 0, 79, 0
1, 42227, Note_on_c, 0, 76, 84
1, 42299, Note_on_c, 0, 76, 0
1, 42299, Note_on_c, 0, 73, 83
1, 42373, Note_on_c, 0, 73, 0
1, 42373, Note_on_c, 0, 70, 82
1, 42475, Note_on_c, 0, 70, 0
1, 42475, Note_on_c, 0, 52, 0
1, 42475, Note_on_c, 0, 40, 0
1, 42478, Note_on_c, 0, 62, 106
1, 42478, Note_on_c, 0, 50, 90
1, 42478, Control_c, 0, 64, 0
1, 42509, Control_c, 0, 64, 127
1, 42548, Note_on_c, 0, 67, 84
1, 42620, Note_on_c, 0, 67, 0
1, 42620, Note_on_c, 0, 71, 85
1, 42693, Note_on_c, 0, 71, 0
1, 42693, Note_on_c, 0, 77, 85
1, 42762, Control_c, 0, 64, 0
1, 42766, Note_on_c, 0, 77, 0
1, 42766, Note_on_c, 0, 79, 86
1, 42766, Note_on_c, 0, 50, 0
1, 42769, Note_on_c, 0, 62, 0
1, 42769, Note_on_c, 0, 50, 87
1, 42769, Note_on_c, 0, 62, 102
1, 42837, Note_on_c, 0, 83, 87
1, 42837, Note_on_c, 0, 62, 0
1, 42837, Note_on_c, 0, 50, 0
1, 42848, Note_on_c, 0, 79, 0
1, 42907, Note_on_c, 0, 89, 88
1, 42907, Note_on_c, 0, 50, 84
1, 42907, Note_on_c, 0, 62, 98
1, 42919, Note_on_c, 0, 83, 0
1, 42978, Note_on_c, 0, 83, 89
1, 42978, Note_on_c, 0, 62, 0
1, 42978, Note_on_c, 0, 50, 0
1, 42992, Note_on_c, 0, 89, 0
1, 43058, Note_on_c, 0, 91, 89
1, 43058, Note_on_c, 0, 41, 87
1, 43058, Note_on_c, 0, 53, 102
1, 43070, Note_on_c, 0, 83, 0
1, 43082, Control_c, 0, 64, 127
1, 43131, Note_on_c, 0, 91, 0
1, 43131, Note_on_c, 0, 86, 88
1, 43203, Note_on_c, 0, 86, 0
1, 43203, Note_on_c, 0, 83, 87
1, 43276, Note_on_c, 0, 83, 0
1, 43276, Note_on_c, 0, 79, 86
1, 43348, Note_on_c, 0, 79, 0
1, 43348, Note_on_c, 0, 74, 85
1, 43420, Note_on_c, 0, 74, 0
1, 43420, Note_on_c, 0, 71, 84
1, 43492, Note_on_c, 0, 71, 0
1, 43492, Note_on_c, 0, 67, 83
1, 43565, Note_on_c, 0, 67, 0
1, 43565, Note_on_c, 0, 71, 82
1, 43668, Note_on_c, 0, 71, 0
1, 43668, Note_on_c, 0, 53, 0
1, 43668, Note_on_c, 0, 41, 0
1, 43671, Note_on_c, 0, 49, 90
1, 43671, Note_on_c, 0, 61, 106
1, 43702, Control_c, 0, 64, 127
1, 43740, Note_on_c, 0, 67, 84
1, 43812, Note_on_c, 0, 67, 0
1, 43812, Note_on_c, 0, 70, 85
1, 43884, Note_on_c, 0, 70, 0
1, 43884, Note_on_c, 0, 73, 85
1, 43953, Control_c, 0, 64, 0
1, 43957, Note_on_c, 0, 73, 0
1, 43957, Note_on_c, 0, 76, 86
1, 43957, Note_on_c, 0, 61, 0
1, 43960, Note_on_c, 0, 49, 0
1, 43960, Note_on_c, 0, 49, 87
1, 43960, Note_on_c, 0, 61, 102
1, 44027, Note_on_c, 0, 79, 87
1, 44027, Note_on_c, 0, 61, 0
1, 44027, Note_on_c, 0, 49, 0
1, 44039, Note_on_c, 0, 76, 0
1, 44098, Note_on_c, 0, 82, 88
1, 44098, Note_on_c, 0, 49, 84
1, 44098, Note_on_c, 0, 61, 98
1, 44110, Note_on_c, 0, 79, 0
1, 44169, Note_on_c, 0, 85, 89
1, 44169, Note_on_c, 0, 61, 0
1, 44169, Note_on_c, 0, 49, 0
1, 44182, Note_on_c, 0, 82, 0
1, 44247, Note_on_c, 0, 91, 89
1, 44247, Note_on_c, 0, 40, 87
1, 44247, Note_on_c, 0, 52, 102
1, 44259, Note_on_c, 0, 85, 0
1, 44271, Control_c, 0, 64, 127
1, 44320, Note_on_c, 0, 91, 0
1, 44320, Note_on_c, 0, 88, 88
1, 44393, Note_on_c, 0, 88, 0
1, 44393, Note_on_c, 0, 85, 87
1, 44466, Note_on_c, 0, 85, 0
1, 44466, Note_on_c, 0, 82, 86
1, 44538, Note_on_c, 0, 82, 0
1, 44538, Note_on_c, 0, 79, 85
1, 44611, Note_on_c, 0, 79, 0
1, 44611, Note_on_c, 0, 76, 84
1, 44684, Note_on_c, 0, 76, 0
1, 44684, Note_on_c, 0, 73, 83
1, 44757, Note_on_c, 0, 73, 0
1, 44757, Note_on_c, 0, 70, 82
1, 44859, Note_on_c, 0, 70, 0
1, 44859, Note_on_c, 0, 52, 0
1, 44859, Note_on_c, 0, 40, 0
1, 44862, Note_on_c, 0, 62, 106
1, 44862, Note_on_c, 0, 50, 90
1, 44862, Control_c, 0, 64, 0
1, 44894, Control_c, 0, 64, 127
1, 44932, Note_on_c, 0, 67, 84
1, 45005, Note_on_c, 0, 67, 0
1, 45005, Note_on_c, 0, 71, 85
1, 45078, Note_on_c, 0, 71, 0
1, 45078, Note_on_c, 0, 77, 85
1, 45147, Control_c, 0, 64, 0
1, 45151, Note_on_c, 0, 77, 0
1, 45151, Note_on_c, 0, 79, 86
1, 45151, Note_on_c, 0, 50, 0
1, 45154, Note_on_c, 0, 62, 0
1, 45154, Note_on_c, 0, 50, 87
1, 45154, Note_on_c, 0, 62, 102
1, 45205, Note_on_c, 0, 62, 0
1, 45205, Note_on_c, 0, 50, 0
1, 45223, Note_on_c, 0, 83, 87
1, 45235, Note_on_c, 0, 79, 0
1, 45294, Note_on_c, 0, 89, 88
1, 45294, Note_on_c, 0, 50, 84
1, 45294, Note_on_c, 0, 62, 98
1, 45306, Note_on_c, 0, 83, 0
1, 45348, Note_on_c, 0, 62, 0
1, 45348, Note_on_c, 0, 50, 0
1, 45366, Note_on_c, 0, 83, 89
1, 45379, Note_on_c, 0, 89, 0
1, 45443, Note_on_c, 0, 91, 89
1, 45443, Note_on_c, 0, 41, 87
1, 45443, Note_on_c, 0, 53, 102
1, 45455, Note_on_c, 0, 83, 0
1, 45468, Control_c, 0, 64, 127
1, 45516, Note_on_c, 0, 91, 0
1, 45516, Note_on_c, 0, 86, 88
1, 45589, Note_on_c, 0, 86, 0
1, 45589, Note_on_c, 0, 83, 87
1, 45661, Note_on_c, 0, 83, 0
1, 45661, Note_on_c, 0, 79, 86
1, 45733, Note_on_c, 0, 79, 0
1, 45733, Note_on_c, 0, 74, 85
1, 45805, Note_on_c, 0, 74, 0
1, 45805, Note_on_c, 0, 71, 84
1, 45878, Note_on_c, 0, 71, 0
1, 45878, Note_on_c, 0, 67, 83
1, 45951, Note_on_c, 0, 67, 0
1, 45951, Note_on_c, 0, 71, 82
1, 46053, Note_on_c, 0, 71, 0
1, 46053, Note_on_c, 0, 73, 81
1, 46053, Note_on_c, 0, 53, 0
1, 46056, Note_on_c, 0, 41, 0
1, 46056, Note_on_c, 0, 40, 68
1, 46056, Note_on_c, 0, 52, 79
1, 46060, Control_c, 0, 64, 0
1, 46097, Control_c, 0, 64, 127
1, 46130, Note_on_c, 0, 79, 75
1, 46143, Note_on_c, 0, 73, 0
1, 46206, Note_on_c, 0, 82, 75
1, 46219, Note_on_c, 0, 79, 0
1, 46282, Note_on_c, 0, 85, 75
1, 46295, Note_on_c, 0, 82, 0
1, 46357, Note_on_c, 0, 74, 84
1, 46357, Note_on_c, 0, 52, 0
1, 46357, Note_on_c, 0, 40, 0
1, 46360, Note_on_c, 0, 38, 72
1, 46360, Note_on_c, 0, 50, 83
1, 46363, Control_c, 0, 64, 0
1, 46370, Note_on_c, 0, 85, 0
1, 46393, Control_c, 0, 64, 127
1, 46432, Note_on_c, 0, 79, 80
1, 46444, Note_on_c, 0, 74, 0
1, 46506, Note_on_c, 0, 83, 80
1, 46519, Note_on_c, 0, 79, 0
1, 46580, Note_on_c, 0, 86, 80
1, 46592, Note_on_c, 0, 83, 0
1, 46653, Note_on_c, 0, 76, 89
1, 46653, Note_on_c, 0, 50, 0
1, 46653, Note_on_c, 0, 38, 0
1, 46656, Note_on_c, 0, 37, 76
1, 46656, Note_on_c, 0, 49, 89
1, 46659, Control_c, 0, 64, 0
1, 46665, Note_on_c, 0, 86, 0
1, 46688, Control_c, 0, 64, 127
1, 46726, Note_on_c, 0, 79, 82
1, 46738, Note_on_c, 0, 76, 0
1, 46799, Note_on_c, 0, 82, 82
1, 46811, Note_on_c, 0, 79, 0
1, 46872, Note_on_c, 0, 88, 82
1, 46884, Note_on_c, 0, 82, 0
1, 46945, Note_on_c, 0, 78, 93
1, 46945, Note_on_c, 0, 49, 0
1, 46945, Note_on_c, 0, 37, 0
1, 46948, Note_on_c, 0, 38, 80
1, 46948, Note_on_c, 0, 50, 94
1, 46951, Control_c, 0, 64, 0
1, 46957, Note_on_c, 0, 88, 0
1, 46997, Control_c, 0, 64, 127
1, 47018, Note_on_c, 0, 81, 83
1, 47031, Note_on_c, 0, 78, 0
1, 47093, Note_on_c, 0, 84, 83
1, 47105, Note_on_c, 0, 81, 0
1, 47168, Note_on_c, 0, 90, 83
1, 47185, Note_on_c, 0, 84, 0
1, 47267, Note_on_c, 0, 50, 0
1, 47267, Note_on_c, 0, 38, 0
1, 47267, Note_on_c, 0, 59, 98
1, 47270, Note_on_c, 0, 55, 84
1, 47270, Control_c, 0, 64, 0
1, 47279, Note_on_c, 0, 90, 0
1, 47302, Control_c, 0, 64, 127
1, 47340, Note_on_c, 0, 67, 84
1, 47412, Note_on_c, 0, 67, 0
1, 47412, Note_on_c, 0, 71, 85
1, 47484, Note_on_c, 0, 71, 0
1, 47484, Note_on_c, 0, 76, 85
1, 47556, Note_on_c, 0, 76, 0
1, 47556, Note_on_c, 0, 79, 86
1, 47556, Note_on_c, 0, 55, 0
1, 47559, Note_on_c, 0, 59, 0
1, 47559, Note_on_c, 0, 55, 84
1, 47559, Note_on_c, 0, 59, 98
1, 47559, Control_c, 0, 64, 0
1, 47585, Control_c, 0, 64, 127
1, 47627, Note_on_c, 0, 79, 0
1, 47627, Note_on_c, 0, 83, 87
1, 47697, Note_on_c, 0, 83, 0
1, 47697, Note_on_c, 0, 88, 88
1, 47697, Note_on_c, 0, 59, 0
1, 47700, Note_on_c, 0, 55, 0
1, 47700, Note_on_c, 0, 55, 81
1, 47700, Note_on_c, 0, 59, 94
1, 47768, Note_on_c, 0, 88, 0
1, 47768, Note_on_c, 0, 91, 89
1, 47847, Note_on_c, 0, 91, 0
1, 47847, Note_on_c, 0, 95, 89
1, 47847, Note_on_c, 0, 59, 0
1, 47850, Note_on_c, 0, 55, 0
1, 47850, Note_on_c, 0, 43, 84
1, 47850, Note_on_c, 0, 52, 98
1, 47853, Control_c, 0, 64, 0
1, 47890, Control_c, 0, 64, 127
1, 47919, Note_on_c, 0, 95, 0
1, 47919, Note_on_c, 0, 91, 88
1, 47992, Note_on_c, 0, 91, 0
1, 47992, Note_on_c, 0, 88, 87
1, 48063, Note_on_c, 0, 88, 0
1, 48063, Note_on_c, 0, 83, 86
1, 48134, Note_on_c, 0, 83, 0
1, 48134, Note_on_c, 0, 79, 85
1, 48205, Note_on_c, 0, 79, 0
1, 48205, Note_on_c, 0, 76, 84
1, 48276, Note_on_c, 0, 76, 0
1, 48276, Note_on_c, 0, 71, 83
1, 48348, Note_on_c, 0, 71, 0
1, 48348, Note_on_c, 0, 67, 82
1, 48451, Note_on_c, 0, 67, 0
1, 48451, Note_on_c, 0, 52, 0
1, 48451, Note_on_c, 0, 43, 0
1, 48454, Note_on_c, 0, 59, 98
1, 48454, Note_on_c, 0, 55, 84
1, 48454, Control_c, 0, 64, 0
1, 48485, Control_c, 0, 64, 127
1, 48523, Note_on_c, 0, 67, 84
1, 48596, Note_on_c, 0, 67, 0
1, 48596, Note_on_c, 0, 71, 85
1, 48668, Note_on_c, 0, 71, 0
1, 48668, Note_on_c, 0, 75, 85
1, 48740, Note_on_c, 0, 75, 0
1, 48740, Note_on_c, 0, 79, 86
1, 48740, Note_on_c, 0, 55, 0
1, 48743, Note_on_c, 0, 59, 0
1, 48743, Note_on_c, 0, 55, 84
1, 48743, Note_on_c, 0, 59, 98
1, 48743, Control_c, 0, 64, 0
1, 48769, Control_c, 0, 64, 127
1, 48811, Note_on_c, 0, 79, 0
1, 48811, Note_on_c, 0, 83, 87
1, 48881, Note_on_c, 0, 83, 0
1, 48881, Note_on_c, 0, 87, 88
1, 48881, Note_on_c, 0, 59, 0
1, 48884, Note_on_c, 0, 55, 0
1, 48884, Note_on_c, 0, 55, 81
1, 48884, Note_on_c, 0, 59, 94
1, 48952, Note_on_c, 0, 87, 0
1, 48952, Note_on_c, 0, 91, 89
1, 49031, Note_on_c, 0, 91, 0
1, 49031, Note_on_c, 0, 95, 89
1, 49031, Note_on_c, 0, 59, 0
1, 49034, Note_on_c, 0, 55, 0
1, 49034, Note_on_c, 0, 43, 84
1, 49034, Note_on_c, 0, 51, 98
1, 49037, Control_c, 0, 64, 0
1, 49074, Control_c, 0, 64, 127
1, 49104, Note_on_c, 0, 95, 0
1, 49104, Note_on_c, 0, 91, 88
1, 49175, Note_on_c, 0, 91, 0
1, 49175, Note_on_c, 0, 87, 87
1, 49247, Note_on_c, 0, 87, 0
1, 49247, Note_on_c, 0, 83, 86
1, 49318, Note_on_c, 0, 83, 0
1, 49318, Note_on_c, 0, 79, 85
1, 49389, Note_on_c, 0, 79, 0
1, 49389, Note_on_c, 0, 75, 84
1, 49460, Note_on_c, 0, 75, 0
1, 49460, Note_on_c, 0, 71, 83
1, 49533, Note_on_c, 0, 71, 0
1, 49533, Note_on_c, 0, 67, 82
1, 49635, Note_on_c, 0, 67, 0
1, 49635, Note_on_c, 0, 51, 0
1, 49635, Note_on_c, 0, 43, 0
1, 49638, Note_on_c, 0, 59, 98
1, 49638, Note_on_c, 0, 55, 84
1, 49638, Control_c, 0, 64, 0
1, 49670, Control_c, 0, 64, 127
1, 49708, Note_on_c, 0, 67, 84
1, 49781, Note_on_c, 0, 67, 0
1, 49781, Note_on_c, 0, 71, 85
1, 49854, Note_on_c, 0, 71, 0
1, 49854, Note_on_c, 0, 76, 85
1, 49927, Note_on_c, 0, 76, 0
1, 49927, Note_on_c, 0, 79, 86
1, 49927, Note_on_c, 0, 55, 0
1, 49930, Note_on_c, 0, 59, 0
1, 49930, Note_on_c, 0, 55, 84
1, 49930, Note_on_c, 0, 59, 98
1, 49933, Control_c, 0, 64, 0
1, 49956, Control_c, 0, 64, 127
1, 49999, Note_on_c, 0, 79, 0
1, 49999, Note_on_c, 0, 83, 87
1, 50070, Note_on_c, 0, 83, 0
1, 50070, Note_on_c, 0, 88, 88
1, 50070, Note_on_c, 0, 59, 0
1, 50073, Note_on_c, 0, 55, 0
1, 50073, Note_on_c, 0, 55, 81
1, 50073, Note_on_c, 0, 59, 94
1, 50142, Note_on_c, 0, 88, 0
1, 50142, Note_on_c, 0, 91, 89
1, 50221, Note_on_c, 0, 91, 0
1, 50221, Note_on_c, 0, 95, 89
1, 50221, Note_on_c, 0, 59, 0
1, 50224, Note_on_c, 0, 55, 0
1, 50224, Note_on_c, 0, 43, 84
1, 50224, Note_on_c, 0, 52, 98
1, 50227, Control_c, 0, 64, 0
1, 50264, Control_c, 0, 64, 127
1, 50294, Note_on_c, 0, 95, 0
1, 50294, Note_on_c, 0, 91, 88
1, 50367, Note_on_c, 0, 91, 0
1, 50367, Note_on_c, 0, 88, 87
1, 50439, Note_on_c, 0, 88, 0
1, 50439, Note_on_c, 0, 83, 86
1, 50511, Note_on_c, 0, 83, 0
1, 50511, Note_on_c, 0, 79, 85
1, 50583, Note_on_c, 0, 79, 0
1, 50583, Note_on_c, 0, 76, 84
1, 50656, Note_on_c, 0, 76, 0
1, 50656, Note_on_c, 0, 71, 83
1, 50729, Note_on_c, 0, 71, 0
1, 50729, Note_on_c, 0, 67, 82
1, 50831, Note_on_c, 0, 67, 0
1, 50831, Note_on_c, 0, 52, 0
1, 50831, Note_on_c, 0, 43, 0
1, 50834, Note_on_c, 0, 59, 102
1, 50834, Note_on_c, 0, 55, 87
1, 50834, Control_c, 0, 64, 0
1, 50867, Control_c, 0, 64, 127
1, 50907, Note_on_c, 0, 67, 87
1, 50982, Note_on_c, 0, 67, 0
1, 50982, Note_on_c, 0, 71, 88
1, 51057, Note_on_c, 0, 71, 0
1, 51057, Note_on_c, 0, 74, 88
1, 51133, Note_on_c, 0, 74, 0
1, 51133, Note_on_c, 0, 77, 89
1, 51133, Note_on_c, 0, 55, 0
1, 51136, Note_on_c, 0, 59, 0
1, 51136, Note_on_c, 0, 55, 87
1, 51136, Note_on_c, 0, 59, 102
1, 51136, Control_c, 0, 64, 0
1, 51163, Control_c, 0, 64, 127
1, 51206, Note_on_c, 0, 77, 0
1, 51206, Note_on_c, 0, 83, 90
1, 51280, Note_on_c, 0, 83, 0
1, 51280, Note_on_c, 0, 86, 91
1, 51280, Note_on_c, 0, 59, 0
1, 51283, Note_on_c, 0, 55, 0
1, 51283, Note_on_c, 0, 55, 84
1, 51283, Note_on_c, 0, 59, 98
1, 51354, Note_on_c, 0, 86, 0
1, 51354, Note_on_c, 0, 89, 92
1, 51446, Note_on_c, 0, 89, 0
1, 51446, Note_on_c, 0, 95, 92
1, 51446, Note_on_c, 0, 59, 0
1, 51449, Note_on_c, 0, 55, 0
1, 51449, Note_on_c, 0, 43, 87
1, 51449, Note_on_c, 0, 53, 102
1, 51453, Control_c, 0, 64, 0
1, 51491, Control_c, 0, 64, 127
1, 51521, Note_on_c, 0, 95, 0
1, 51521, Note_on_c, 0, 89, 91
1, 51595, Note_on_c, 0, 89, 0
1, 51595, Note_on_c, 0, 86, 90
1, 51669, Note_on_c, 0, 86, 0
1, 51669, Note_on_c, 0, 83, 89
1, 51742, Note_on_c, 0, 83, 0
1, 51742, Note_on_c, 0, 77, 88
1, 51815, Note_on_c, 0, 77, 0
1, 51815, Note_on_c, 0, 74, 87
1, 51889, Note_on_c, 0, 74, 0
1, 51889, Note_on_c, 0, 71, 86
1, 51964, Note_on_c, 0, 71, 0
1, 51964, Note_on_c, 0, 65, 85
1, 52061, Note_on_c, 0, 65, 0
1, 52061, Note_on_c, 0, 77, 90
1, 52061, Note_on_c, 0, 53, 0
1, 52064, Note_on_c, 0, 43, 0
1, 52064, Note_on_c, 0, 43, 81
1, 52064, Note_on_c, 0, 55, 94
1, 52067, Control_c, 0, 64, 0
1, 52107, Control_c, 0, 64, 127
1, 52141, Note_on_c, 0, 77, 0
1, 52141, Note_on_c, 0, 83, 83
1, 52222, Note_on_c, 0, 83, 0
1, 52222, Note_on_c, 0, 86, 83
1, 52301, Note_on_c, 0, 86, 0
1, 52301, Note_on_c, 0, 89, 83
1, 52381, Note_on_c, 0, 89, 0
1, 52381, Note_on_c, 0, 78, 88
1, 52381, Note_on_c, 0, 55, 0
1, 52384, Note_on_c, 0, 43, 0
1, 52384, Note_on_c, 0, 42, 74
1, 52384, Note_on_c, 0, 54, 87
1, 52387, Control_c, 0, 64, 0
1, 52418, Control_c, 0, 64, 127
1, 52459, Note_on_c, 0, 78, 0
1, 52459, Note_on_c, 0, 83, 84
1, 52537, Note_on_c, 0, 83, 0
1, 52537, Note_on_c, 0, 86, 84
1, 52615, Note_on_c, 0, 86, 0
1, 52615, Note_on_c, 0, 90, 85
1, 52693, Note_on_c, 0, 90, 0
1, 52693, Note_on_c, 0, 80, 95
1, 52693, Note_on_c, 0, 54, 0
1, 52696, Note_on_c, 0, 42, 0
1, 52696, Note_on_c, 0, 41, 87
1, 52696, Note_on_c, 0, 53, 100
1, 52699, Control_c, 0, 64, 0
1, 52729, Control_c, 0, 64, 127
1, 52769, Note_on_c, 0, 80, 0
1, 52769, Note_on_c, 0, 83, 88
1, 52846, Note_on_c, 0, 83, 0
1, 52846, Note_on_c, 0, 86, 89
1, 52923, Note_on_c, 0, 86, 0
1, 52923, Note_on_c, 0, 92, 89
1, 53000, Note_on_c, 0, 92, 0
1, 53000, Note_on_c, 0, 82, 101
1, 53000, Note_on_c, 0, 53, 0
1, 53003, Note_on_c, 0, 41, 0
1, 53003, Note_on_c, 0, 42, 82
1, 53003, Note_on_c, 0, 54, 96
1, 53007, Control_c, 0, 64, 0
1, 53056, Control_c, 0, 64, 127
1, 53078, Note_on_c, 0, 82, 0
1, 53078, Note_on_c, 0, 85, 91
1, 53157, Note_on_c, 0, 85, 0
1, 53157, Note_on_c, 0, 88, 91
1, 53236, Note_on_c, 0, 88, 0
1, 53236, Note_on_c, 0, 94, 91
1, 53336, Note_on_c, 0, 94, 0
1, 53336, Note_on_c, 0, 74, 87
1, 53336, Note_on_c, 0, 78, 87
1, 53339, Note_on_c, 0, 83, 87
1, 53339, Note_on_c, 0, 86, 102
1, 53339, Note_on_c, 0, 54, 0
1, 53342, Note_on_c, 0, 42, 0
1, 53342, Note_on_c, 0, 47, 88
1, 53355, Control_c, 0, 64, 0
1, 53364, Control_c, 0, 64, 127
1, 53414, Note_on_c, 0, 47, 0
1, 53414, Note_on_c, 0, 59, 78
1, 53491, Note_on_c, 0, 59, 0
1, 53491, Note_on_c, 0, 62, 79
1, 53569, Note_on_c, 0, 62, 0
1, 53569, Note_on_c, 0, 59, 79
1, 53647, Note_on_c, 0, 86, 0
1, 53647, Note_on_c, 0, 74, 0
1, 53647, Note_on_c, 0, 78, 0
1, 53650, Note_on_c, 0, 83, 0
1, 53650, Note_on_c, 0, 74, 87
1, 53650, Note_on_c, 0, 78, 87
1, 53653, Note_on_c, 0, 83, 87
1, 53653, Note_on_c, 0, 86, 102
1, 53653, Note_on_c, 0, 59, 0
1, 53656, Note_on_c, 0, 54, 89
1, 53656, Control_c, 0, 64, 0
1, 53666, Control_c, 0, 64, 127
1, 53722, Note_on_c, 0, 54, 0
1, 53722, Note_on_c, 0, 59, 81
1, 53798, Note_on_c, 0, 86, 0
1, 53798, Note_on_c, 0, 74, 0
1, 53798, Note_on_c, 0, 78, 0
1, 53801, Note_on_c, 0, 83, 0
1, 53801, Note_on_c, 0, 74, 84
1, 53801, Note_on_c, 0, 78, 84
1, 53804, Note_on_c, 0, 83, 84
1, 53804, Note_on_c, 0, 86, 98
1, 53804, Note_on_c, 0, 59, 0
1, 53807, Note_on_c, 0, 50, 85
1, 53874, Note_on_c, 0, 50, 0
1, 53874, Note_on_c, 0, 54, 81
1, 53957, Note_on_c, 0, 86, 0
1, 53957, Note_on_c, 0, 74, 0
1, 53957, Note_on_c, 0, 78, 0
1, 53960, Note_on_c, 0, 83, 0
1, 53960, Note_on_c, 0, 78, 87
1, 53960, Note_on_c, 0, 82, 87
1, 53963, Note_on_c, 0, 85, 87
1, 53963, Note_on_c, 0, 90, 102
1, 53963, Note_on_c, 0, 54, 0
1, 53966, Note_on_c, 0, 42, 88
1, 53966, Control_c, 0, 64, 0
1, 53992, Control_c, 0, 64, 127
1, 54035, Note_on_c, 0, 42, 0
1, 54035, Note_on_c, 0, 54, 78
1, 54112, Note_on_c, 0, 54, 0
1, 54112, Note_on_c, 0, 58, 83
1, 54190, Note_on_c, 0, 58, 0
1, 54190, Note_on_c, 0, 54, 77
1, 54268, Note_on_c, 0, 54, 0
1, 54268, Note_on_c, 0, 49, 84
1, 54346, Note_on_c, 0, 49, 0
1, 54346, Note_on_c, 0, 54, 75
1, 54423, Note_on_c, 0, 54, 0
1, 54423, Note_on_c, 0, 46, 81
1, 54501, Note_on_c, 0, 46, 0
1, 54501, Note_on_c, 0, 49, 75
1, 54579, Note_on_c, 0, 90, 0
1, 54579, Note_on_c, 0, 78, 0
1, 54579, Note_on_c, 0, 82, 0
1, 54582, Note_on_c, 0, 85, 0
1, 54582, Note_on_c, 0, 73, 87
1, 54582, Note_on_c, 0, 76, 87
1, 54585, Note_on_c, 0, 81, 87
1, 54585, Note_on_c, 0, 85, 102
1, 54585, Note_on_c, 0, 49, 0
1, 54588, Note_on_c, 0, 45, 88
1, 54588, Control_c, 0, 64, 0
1, 54607, Control_c, 0, 64, 127
1, 54656, Note_on_c, 0, 45, 0
1, 54656, Note_on_c, 0, 57, 78
1, 54734, Note_on_c, 0, 57, 0
1, 54734, Note_on_c, 0, 61, 79
1, 54812, Note_on_c, 0, 61, 0
1, 54812, Note_on_c, 0, 57, 79
1, 54890, Note_on_c, 0, 85, 0
1, 54890, Note_on_c, 0, 73, 0
1, 54890, Note_on_c, 0, 76, 0
1, 54893, Note_on_c, 0, 81, 0
1, 54893, Note_on_c, 0, 73, 87
1, 54893, Note_on_c, 0, 76, 87
1, 54896, Note_on_c, 0, 81, 87
1, 54896, Note_on_c, 0, 85, 102
1, 54896, Note_on_c, 0, 57, 0
1, 54899, Note_on_c, 0, 52, 89
1, 54899, Control_c, 0, 64, 0
1, 54909, Control_c, 0, 64, 127
1, 54965, Note_on_c, 0, 52, 0
1, 54965, Note_on_c, 0, 57, 81
1, 55041, Note_on_c, 0, 85, 0
1, 55041, Note_on_c, 0, 73, 0
1, 55041, Note_on_c, 0, 76, 0
1, 55044, Note_on_c, 0, 81, 0
1, 55044, Note_on_c, 0, 73, 84
1, 55044, Note_on_c, 0, 76, 84
1, 55047, Note_on_c, 0, 81, 84
1, 55047, Note_on_c, 0, 85, 98
1, 55047, Note_on_c, 0, 57, 0
1, 55050, Note_on_c, 0, 49, 85
1, 55117, Note_on_c, 0, 49, 0
1, 55117, Note_on_c, 0, 52, 81
1, 55200, Note_on_c, 0, 85, 0
1, 55200, Note_on_c, 0, 73, 0
1, 55200, Note_on_c, 0, 76, 0
1, 55203, Note_on_c, 0, 81, 0
1, 55203, Note_on_c, 0, 76, 87
1, 55203, Note_on_c, 0, 80, 87
1, 55206, Note_on_c, 0, 83, 87
1, 55206, Note_on_c, 0, 88, 102
1, 55206, Note_on_c, 0, 52, 0
1, 55209, Note_on_c, 0, 40, 88
1, 55209, Control_c, 0, 64, 0
1, 55235, Control_c, 0, 64, 127
1, 55278, Note_on_c, 0, 40, 0
1, 55278, Note_on_c, 0, 52, 78
1, 55355, Note_on_c, 0, 52, 0
1, 55355, Note_on_c, 0, 56, 83
1, 55433, Note_on_c, 0, 56, 0
1, 55433, Note_on_c, 0, 52, 77
1, 55511, Note_on_c, 0, 52, 0
1, 55511, Note_on_c, 0, 47, 84
1, 55588, Note_on_c, 0, 47, 0
1, 55588, Note_on_c, 0, 52, 75
1, 55666, Note_on_c, 0, 52, 0
1, 55666, Note_on_c, 0, 44, 81
1, 55744, Note_on_c, 0, 44, 0
1, 55744, Note_on_c, 0, 47, 75
1, 55822, Note_on_c, 0, 88, 0
1, 55822, Note_on_c, 0, 76, 0
1, 55822, Note_on_c, 0, 80, 0
1, 55825, Note_on_c, 0, 83, 0
1, 55825, Note_on_c, 0, 71, 80
1, 55825, Note_on_c, 0, 74, 80
1, 55828, Note_on_c, 0, 79, 80
1, 55828, Note_on_c, 0, 83, 93
1, 55828, Note_on_c, 0, 47, 0
1, 55831, Note_on_c, 0, 43, 81
1, 55831, Control_c, 0, 64, 0
1, 55850, Control_c, 0, 64, 127
1, 55899, Note_on_c, 0, 43, 0
1, 55899, Note_on_c, 0, 55, 71
1, 55977, Note_on_c, 0, 55, 0
1, 55977, Note_on_c, 0, 59, 72
1, 56055, Note_on_c, 0, 59, 0
1, 56055, Note_on_c, 0, 55, 72
1, 56133, Note_on_c, 0, 83, 0
1, 56133, Note_on_c, 0, 71, 0
1, 56133, Note_on_c, 0, 74, 0
1, 56136, Note_on_c, 0, 79, 0
1, 56136, Note_on_c, 0, 71, 79
1, 56136, Note_on_c, 0, 74, 79
1, 56139, Note_on_c, 0, 79, 79
1, 56139, Note_on_c, 0, 83, 92
1, 56139, Note_on_c, 0, 55, 0
1, 56142, Note_on_c, 0, 50, 81
1, 56142, Control_c, 0, 64, 0
1, 56152, Control_c, 0, 64, 127
1, 56209, Note_on_c, 0, 50, 0
1, 56209, Note_on_c, 0, 55, 73
1, 56286, Note_on_c, 0, 83, 0
1, 56286, Note_on_c, 0, 71, 0
1, 56286, Note_on_c, 0, 74, 0
1, 56289, Note_on_c, 0, 79, 0
1, 56289, Note_on_c, 0, 71, 76
1, 56289, Note_on_c, 0, 74, 76
1, 56292, Note_on_c, 0, 79, 76
1, 56292, Note_on_c, 0, 83, 88
1, 56292, Note_on_c, 0, 55, 0
1, 56295, Note_on_c, 0, 47, 76
1, 56363, Note_on_c, 0, 47, 0
1, 56363, Note_on_c, 0, 50, 72
1, 56447, Note_on_c, 0, 83, 0
1, 56447, Note_on_c, 0, 71, 0
1, 56447, Note_on_c, 0, 74, 0
1, 56450, Note_on_c, 0, 79, 0
1, 56450, Note_on_c, 0, 74, 78
1, 56450, Note_on_c, 0, 78, 78
1, 56453, Note_on_c, 0, 81, 78
1, 56453, Note_on_c, 0, 86, 90
1, 56453, Note_on_c, 0, 50, 0
1, 56456, Note_on_c, 0, 38, 79
1, 56456, Control_c, 0, 64, 0
1, 56482, Control_c, 0, 64, 127
1, 56524, Note_on_c, 0, 38, 0
1, 56524, Note_on_c, 0, 50, 69
1, 56602, Note_on_c, 0, 50, 0
1, 56602, Note_on_c, 0, 54, 68
1, 56680, Note_on_c, 0, 54, 0
1, 56680, Note_on_c, 0, 57, 67
1, 56757, Note_on_c, 0, 86, 0
1, 56757, Note_on_c, 0, 74, 0
1, 56757, Note_on_c, 0, 78, 0
1, 56760, Note_on_c, 0, 81, 0
1, 56760, Note_on_c, 0, 71, 73
1, 56760, Note_on_c, 0, 74, 73
1, 56763, Note_on_c, 0, 79, 73
1, 56763, Note_on_c, 0, 83, 86
1, 56763, Note_on_c, 0, 57, 0
1, 56766, Note_on_c, 0, 43, 73
1, 56766, Control_c, 0, 64, 0
1, 56784, Control_c, 0, 64, 127
1, 56836, Note_on_c, 0, 43, 0
1, 56836, Note_on_c, 0, 47, 65
1, 56915, Note_on_c, 0, 47, 0
1, 56915, Note_on_c, 0, 55, 65
1, 56994, Note_on_c, 0, 55, 0
1, 56994, Note_on_c, 0, 59, 64
1, 57073, Note_on_c, 0, 83, 0
1, 57073, Note_on_c, 0, 71, 0
1, 57073, Note_on_c, 0, 74, 0
1, 57076, Note_on_c, 0, 79, 0
1, 57076, Note_on_c, 0, 69, 75
1, 57076, Note_on_c, 0, 74, 75
1, 57079, Note_on_c, 0, 79, 75
1, 57079, Note_on_c, 0, 81, 87
1, 57079, Note_on_c, 0, 59, 0
1, 57082, Note_on_c, 0, 38, 76
1, 57082, Control_c, 0, 64, 0
1, 57101, Control_c, 0, 64, 127
1, 57150, Note_on_c, 0, 38, 0
1, 57150, Note_on_c, 0, 50, 67
1, 57228, Note_on_c, 0, 50, 0
1, 57228, Note_on_c, 0, 55, 67
1, 57306, Note_on_c, 0, 55, 0
1, 57306, Note_on_c, 0, 57, 67
1, 57384, Note_on_c, 0, 81, 0
1, 57384, Note_on_c, 0, 69, 0
1, 57384, Note_on_c, 0, 74, 0
1, 57387, Note_on_c, 0, 79, 0
1, 57387, Note_on_c, 0, 69, 73
1, 57387, Note_on_c, 0, 74, 73
1, 57390, Note_on_c, 0, 78, 73
1, 57390, Note_on_c, 0, 81, 85
1, 57390, Note_on_c, 0, 57, 0
1, 57393, Note_on_c, 0, 38, 75
1, 57393, Control_c, 0, 64, 0
1, 57403, Control_c, 0, 64, 127
1, 57463, Note_on_c, 0, 38, 0
1, 57463, Note_on_c, 0, 50, 68
1, 57542, Note_on_c, 0, 50, 0
1, 57542, Note_on_c, 0, 54, 71
1, 57621, Note_on_c, 0, 54, 0
1, 57621, Note_on_c, 0, 57, 67
1, 57700, Note_on_c, 0, 81, 0
1, 57700, Note_on_c, 0, 69, 0
1, 57700, Note_on_c, 0, 74, 0
1, 57703, Note_on_c, 0, 78, 0
1, 57703, Note_on_c, 0, 71, 72
1, 57703, Note_on_c, 0, 74, 72
1, 57706, Note_on_c, 0, 79, 72
1, 57706, Note_on_c, 0, 83, 83
1, 57706, Note_on_c, 0, 57, 0
1, 57709, Note_on_c, 0, 31, 73
1, 57709, Control_c, 0, 64, 0
1, 57744, Control_c, 0, 64, 127
1, 57778, Note_on_c, 0, 31, 0
1, 57778, Note_on_c, 0, 43, 64
1, 57856, Note_on_c, 0, 43, 0
1, 57856, Note_on_c, 0, 47, 63
1, 57933, Note_on_c, 0, 47, 0
1, 57933, Note_on_c, 0, 50, 63
1, 58011, Note_on_c, 0, 50, 0
1, 58011, Note_on_c, 0, 55, 68
1, 58089, Note_on_c, 0, 55, 0
1, 58089, Note_on_c, 0, 50, 60
1, 58166, Note_on_c, 0, 50, 0
1, 58166, Note_on_c, 0, 47, 60
1, 58244, Note_on_c, 0, 47, 0
1, 58244, Note_on_c, 0, 43, 60
1, 58322, Note_on_c, 0, 83, 0
1, 58322, Note_on_c, 0, 71, 0
1, 58322, Note_on_c, 0, 74, 0
1, 58325, Note_on_c, 0, 79, 0
1, 58325, Note_on_c, 0, 71, 72
1, 58325, Note_on_c, 0, 74, 72
1, 58328, Note_on_c, 0, 79, 72
1, 58328, Note_on_c, 0, 83, 84
1, 58328, Note_on_c, 0, 43, 0
1, 58331, Note_on_c, 0, 31, 73
1, 58331, Control_c, 0, 64, 0
1, 58350, Control_c, 0, 64, 127
1, 58400, Note_on_c, 0, 31, 0
1, 58400, Note_on_c, 0, 55, 65
1, 58477, Note_on_c, 0, 55, 0
1, 58477, Note_on_c, 0, 59, 66
1, 58555, Note_on_c, 0, 59, 0
1, 58555, Note_on_c, 0, 55, 66
1, 58633, Note_on_c, 0, 83, 0
1, 58633, Note_on_c, 0, 71, 0
1, 58633, Note_on_c, 0, 74, 0
1, 58636, Note_on_c, 0, 79, 0
1, 58636, Note_on_c, 0, 71, 72
1, 58636, Note_on_c, 0, 74, 72
1, 58639, Note_on_c, 0, 79, 72
1, 58639, Note_on_c, 0, 83, 84
1, 58639, Note_on_c, 0, 55, 0
1, 58642, Note_on_c, 0, 50, 74
1, 58642, Control_c, 0, 64, 0
1, 58652, Control_c, 0, 64, 127
1, 58708, Note_on_c, 0, 50, 0
1, 58708, Note_on_c, 0, 55, 67
1, 58784, Note_on_c, 0, 83, 0
1, 58784, Note_on_c, 0, 71, 0
1, 58784, Note_on_c, 0, 74, 0
1, 58787, Note_on_c, 0, 79, 0
1, 58787, Note_on_c, 0, 71, 70
1, 58787, Note_on_c, 0, 74, 70
1, 58790, Note_on_c, 0, 79, 70
1, 58790, Note_on_c, 0, 83, 81
1, 58790, Note_on_c, 0, 55, 0
1, 58793, Note_on_c, 0, 47, 71
1, 58860, Note_on_c, 0, 47, 0
1, 58860, Note_on_c, 0, 50, 67
1, 58943, Note_on_c, 0, 83, 0
1, 58943, Note_on_c, 0, 71, 0
1, 58943, Note_on_c, 0, 74, 0
1, 58946, Note_on_c, 0, 79, 0
1, 58946, Note_on_c, 0, 74, 72
1, 58946, Note_on_c, 0, 78, 72
1, 58949, Note_on_c, 0, 81, 72
1, 58949, Note_on_c, 0, 86, 84
1, 58949, Note_on_c, 0, 50, 0
1, 58952, Note_on_c, 0, 38, 73
1, 58952, Control_c, 0, 64, 0
1, 58988, Control_c, 0, 64, 127
1, 59021, Note_on_c, 0, 38, 0
1, 59021, Note_on_c, 0, 50, 65
1, 59098, Note_on_c, 0, 50, 0
1, 59098, Note_on_c, 0, 54, 69
1, 59176, Note_on_c, 0, 54, 0
1, 59176, Note_on_c, 0, 50, 64
1, 59254, Note_on_c, 0, 50, 0
1, 59254, Note_on_c, 0, 45, 70
1, 59332, Note_on_c, 0, 45, 0
1, 59332, Note_on_c, 0, 50, 62
1, 59409, Note_on_c, 0, 50, 0
1, 59409, Note_on_c, 0, 42, 67
1, 59487, Note_on_c, 0, 42, 0
1, 59487, Note_on_c, 0, 45, 62
1, 59565, Note_on_c, 0, 86, 0
1, 59565, Note_on_c, 0, 74, 0
1, 59565, Note_on_c, 0, 78, 0
1, 59568, Note_on_c, 0, 81, 0
1, 59568, Note_on_c, 0, 69, 72
1, 59568, Note_on_c, 0, 72, 72
1, 59571, Note_on_c, 0, 77, 72
1, 59571, Note_on_c, 0, 81, 84
1, 59571, Note_on_c, 0, 45, 0
1, 59574, Note_on_c, 0, 41, 73
1, 59574, Control_c, 0, 64, 0
1, 59593, Control_c, 0, 64, 127
1, 59642, Note_on_c, 0, 41, 0
1, 59642, Note_on_c, 0, 53, 65
1, 59720, Note_on_c, 0, 53, 0
1, 59720, Note_on_c, 0, 57, 66
1, 59798, Note_on_c, 0, 57, 0
1, 59798, Note_on_c, 0, 53, 66
1, 59876, Note_on_c, 0, 81, 0
1, 59876, Note_on_c, 0, 69, 0
1, 59876, Note_on_c, 0, 72, 0
1, 59879, Note_on_c, 0, 77, 0
1, 59879, Note_on_c, 0, 69, 72
1, 59879, Note_on_c, 0, 72, 72
1, 59882, Note_on_c, 0, 77, 72
1, 59882, Note_on_c, 0, 81, 84
1, 59882, Note_on_c, 0, 53, 0
1, 59885, Note_on_c, 0, 48, 74
1, 59885, Control_c, 0, 64, 0
1, 59895, Control_c, 0, 64, 127
1, 59951, Note_on_c, 0, 48, 0
1, 59951, Note_on_c, 0, 53, 67
1, 60027, Note_on_c, 0, 81, 0
1, 60027, Note_on_c, 0, 69, 0
1, 60027, Note_on_c, 0, 72, 0
1, 60030, Note_on_c, 0, 77, 0
1, 60030, Note_on_c, 0, 69, 70
1, 60030, Note_on_c, 0, 72, 70
1, 60033, Note_on_c, 0, 77, 70
1, 60033, Note_on_c, 0, 81, 81
1, 60033, Note_on_c, 0, 53, 0
1, 60036, Note_on_c, 0, 45, 71
1, 60103, Note_on_c, 0, 45, 0
1, 60103, Note_on_c, 0, 48, 67
1, 60186, Note_on_c, 0, 81, 0
1, 60186, Note_on_c, 0, 69, 0
1, 60186, Note_on_c, 0, 72, 0
1, 60189, Note_on_c, 0, 77, 0
1, 60189, Note_on_c, 0, 72, 72
1, 60189, Note_on_c, 0, 76, 72
1, 60192, Note_on_c, 0, 79, 72
1, 60192, Note_on_c, 0, 84, 84
1, 60192, Note_on_c, 0, 48, 0
1, 60195, Note_on_c, 0, 36, 73
1, 60195, Control_c, 0, 64, 0
1, 60230, Control_c, 0, 64, 127
1, 60264, Note_on_c, 0, 36, 0
1, 60264, Note_on_c, 0, 48, 65
1, 60341, Note_on_c, 0, 48, 0
1, 60341, Note_on_c, 0, 52, 69
1, 60419, Note_on_c, 0, 52, 0
1, 60419, Note_on_c, 0, 48, 64
1, 60497, Note_on_c, 0, 48, 0
1, 60497, Note_on_c, 0, 43, 70
1, 60574, Note_on_c, 0, 43, 0
1, 60574, Note_on_c, 0, 48, 62
1, 60652, Note_on_c, 0, 48, 0
1, 60652, Note_on_c, 0, 40, 67
1, 60730, Note_on_c, 0, 40, 0
1, 60730, Note_on_c, 0, 43, 62
1, 60808, Note_on_c, 0, 84, 0
1, 60808, Note_on_c, 0, 72, 0
1, 60808, Note_on_c, 0, 76, 0
1, 60811, Note_on_c, 0, 79, 0
1, 60811, Note_on_c, 0, 67, 69
1, 60811, Note_on_c, 0, 71, 69
1, 60814, Note_on_c, 0, 76, 69
1, 60814, Note_on_c, 0, 79, 80
1, 60814, Note_on_c, 0, 43, 0
1, 60817, Note_on_c, 0, 40, 70
1, 60817, Control_c, 0, 64, 0
1, 60836, Control_c, 0, 64, 127
1, 60885, Note_on_c, 0, 40, 0
1, 60885, Note_on_c, 0, 52, 61
1, 60963, Note_on_c, 0, 52, 0
1, 60963, Note_on_c, 0, 55, 62
1, 61041, Note_on_c, 0, 55, 0
1, 61041, Note_on_c, 0, 52, 62
1, 61119, Note_on_c, 0, 79, 0
1, 61119, Note_on_c, 0, 67, 0
1, 61119, Note_on_c, 0, 71, 0
1, 61122, Note_on_c, 0, 76, 0
1, 61122, Note_on_c, 0, 67, 68
1, 61122, Note_on_c, 0, 71, 68
1, 61125, Note_on_c, 0, 76, 68
1, 61125, Note_on_c, 0, 79, 79
1, 61125, Note_on_c, 0, 52, 0
1, 61128, Note_on_c, 0, 47, 70
1, 61128, Control_c, 0, 64, 0
1, 61138, Control_c, 0, 64, 127
1, 61196, Note_on_c, 0, 47, 0
1, 61196, Note_on_c, 0, 52, 63
1, 61273, Note_on_c, 0, 79, 0
1, 61273, Note_on_c, 0, 67, 0
1, 61273, Note_on_c, 0, 71, 0
1, 61276, Note_on_c, 0, 76, 0
1, 61276, Note_on_c, 0, 67, 66
1, 61276, Note_on_c, 0, 71, 66
1, 61279, Note_on_c, 0, 76, 66
1, 61279, Note_on_c, 0, 79, 76
1, 61279, Note_on_c, 0, 52, 0
1, 61282, Note_on_c, 0, 43, 66
1, 61350, Note_on_c, 0, 43, 0
1, 61350, Note_on_c, 0, 47, 62
1, 61433, Note_on_c, 0, 79, 0
1, 61433, Note_on_c, 0, 67, 0
1, 61433, Note_on_c, 0, 71, 0
1, 61436, Note_on_c, 0, 76, 0
1, 61436, Note_on_c, 0, 71, 67
1, 61436, Note_on_c, 0, 75, 67
1, 61439, Note_on_c, 0, 78, 67
1, 61439, Note_on_c, 0, 83, 78
1, 61439, Note_on_c, 0, 47, 0
1, 61442, Note_on_c, 0, 35, 68
1, 61442, Control_c, 0, 64, 0
1, 61473, Control_c, 0, 64, 127
1, 61512, Note_on_c, 0, 35, 0
1, 61512, Note_on_c, 0, 47, 60
1, 61592, Note_on_c, 0, 47, 0
1, 61592, Note_on_c, 0, 51, 59
1, 61671, Note_on_c, 0, 51, 0
1, 61671, Note_on_c, 0, 54, 58
1, 61750, Note_on_c, 0, 83, 0
1, 61750, Note_on_c, 0, 71, 0
1, 61750, Note_on_c, 0, 75, 0
1, 61753, Note_on_c, 0, 78, 0
1, 61753, Note_on_c, 0, 67, 63
1, 61753, Note_on_c, 0, 71, 63
1, 61756, Note_on_c, 0, 76, 63
1, 61756, Note_on_c, 0, 79, 74
1, 61756, Note_on_c, 0, 54, 0
1, 61759, Note_on_c, 0, 40, 63
1, 61759, Control_c, 0, 64, 0
1, 61789, Control_c, 0, 64, 127
1, 61829, Note_on_c, 0, 40, 0
1, 61829, Note_on_c, 0, 47, 56
1, 61908, Note_on_c, 0, 47, 0
1, 61908, Note_on_c, 0, 52, 56
1, 61987, Note_on_c, 0, 52, 0
1, 61987, Note_on_c, 0, 55, 55
1, 62066, Note_on_c, 0, 79, 0
1, 62066, Note_on_c, 0, 67, 0
1, 62066, Note_on_c, 0, 71, 0
1, 62069, Note_on_c, 0, 76, 0
1, 62069, Note_on_c, 0, 66, 65
1, 62069, Note_on_c, 0, 71, 65
1, 62072, Note_on_c, 0, 76, 65
1, 62072, Note_on_c, 0, 78, 75
1, 62072, Note_on_c, 0, 55, 0
1, 62075, Note_on_c, 0, 35, 66
1, 62075, Control_c, 0, 64, 0
1, 62095, Control_c, 0, 64, 127
1, 62146, Note_on_c, 0, 35, 0
1, 62146, Note_on_c, 0, 47, 58
1, 62225, Note_on_c, 0, 47, 0
1, 62225, Note_on_c, 0, 52, 58
1, 62304, Note_on_c, 0, 52, 0
1, 62304, Note_on_c, 0, 54, 58
1, 62384, Note_on_c, 0, 78, 0
1, 62384, Note_on_c, 0, 66, 0
1, 62384, Note_on_c, 0, 71, 0
1, 62387, Note_on_c, 0, 76, 0
1, 62387, Note_on_c, 0, 66, 63
1, 62387, Note_on_c, 0, 71, 63
1, 62390, Note_on_c, 0, 75, 63
1, 62390, Note_on_c, 0, 78, 73
1, 62390, Note_on_c, 0, 54, 0
1, 62393, Note_on_c, 0, 35, 65
1, 62393, Control_c, 0, 64, 0
1, 62423, Control_c, 0, 64, 127
1, 62463, Note_on_c, 0, 35, 0
1, 62463, Note_on_c, 0, 47, 59
1, 62542, Note_on_c, 0, 47, 0
1, 62542, Note_on_c, 0, 51, 61
1, 62622, Note_on_c, 0, 51, 0
1, 62622, Note_on_c, 0, 54, 58
1, 62701, Note_on_c, 0, 78, 0
1, 62701, Note_on_c, 0, 66, 0
1, 62701, Note_on_c, 0, 71, 0
1, 62704, Note_on_c, 0, 75, 0
1, 62704, Note_on_c, 0, 67, 62
1, 62704, Note_on_c, 0, 71, 62
1, 62707, Note_on_c, 0, 76, 62
1, 62707, Note_on_c, 0, 79, 72
1, 62707, Note_on_c, 0, 54, 0
1, 62710, Note_on_c, 0, 40, 63
1, 62710, Control_c, 0, 64, 0
1, 62752, Control_c, 0, 64, 127
1, 62779, Note_on_c, 0, 40, 0
1, 62779, Note_on_c, 0, 52, 55
1, 62857, Note_on_c, 0, 52, 0
1, 62857, Note_on_c, 0, 55, 55
1, 62934, Note_on_c, 0, 55, 0
1, 62934, Note_on_c, 0, 59, 55
1, 63012, Note_on_c, 0, 59, 0
1, 63012, Note_on_c, 0, 64, 59
1, 63090, Note_on_c, 0, 64, 0
1, 63090, Note_on_c, 0, 59, 52
1, 63168, Note_on_c, 0, 59, 0
1, 63168, Note_on_c, 0, 55, 52
1, 63245, Note_on_c, 0, 55, 0
1, 63245, Note_on_c, 0, 52, 52
1, 63323, Note_on_c, 0, 79, 0
1, 63323, Note_on_c, 0, 67, 0
1, 63323, Note_on_c, 0, 71, 0
1, 63326, Note_on_c, 0, 76, 0
1, 63326, Note_on_c, 0, 68, 64
1, 63326, Note_on_c, 0, 80, 74
1, 63329, Note_on_c, 0, 52, 0
1, 63329, Control_c, 0, 64, 0
1, 63329, Note_on_c, 0, 60, 59
1, 63332, Note_on_c, 0, 64, 69
1, 63382, Note_on_c, 0, 80, 0
1, 63382, Note_on_c, 0, 68, 0
1, 63382, Note_on_c, 0, 64, 0
1, 63385, Note_on_c, 0, 60, 0
1, 63480, Note_on_c, 0, 59, 58
1, 63480, Note_on_c, 0, 62, 66
1, 63538, Note_on_c, 0, 62, 0
1, 63538, Note_on_c, 0, 59, 0
1, 63633, Note_on_c, 0, 69, 67
1, 63633, Note_on_c, 0, 81, 78
1, 63633, Note_on_c, 0, 57, 58
1, 63636, Note_on_c, 0, 60, 66
1, 63690, Note_on_c, 0, 60, 0
1, 63690, Note_on_c, 0, 57, 0
1, 63784, Note_on_c, 0, 52, 58
1, 63784, Note_on_c, 0, 59, 66
1, 63841, Note_on_c, 0, 59, 0
1, 63841, Note_on_c, 0, 52, 0
1, 63935, Note_on_c, 0, 48, 61
1, 63935, Note_on_c, 0, 57, 70
1, 64086, Note_on_c, 0, 81, 0
1, 64086, Note_on_c, 0, 69, 0
1, 64086, Note_on_c, 0, 71, 62
1, 64089, Note_on_c, 0, 83, 71
1, 64142, Note_on_c, 0, 83, 0
1, 64142, Note_on_c, 0, 71, 0
1, 64235, Note_on_c, 0, 72, 61
1, 64235, Note_on_c, 0, 84, 70
1, 64290, Note_on_c, 0, 84, 0
1, 64290, Note_on_c, 0, 72, 0
1, 64383, Note_on_c, 0, 71, 62
1, 64383, Note_on_c, 0, 83, 71
1, 64383, Note_on_c, 0, 57, 0
1, 64386, Note_on_c, 0, 48, 0
1, 64386, Note_on_c, 0, 55, 58
1, 64386, Note_on_c, 0, 65, 67
1, 64439, Note_on_c, 0, 83, 0
1, 64439, Note_on_c, 0, 71, 0
1, 64439, Note_on_c, 0, 65, 0
1, 64442, Note_on_c, 0, 55, 0
1, 64532, Note_on_c, 0, 70, 64
1, 64532, Note_on_c, 0, 82, 74
1, 64532, Note_on_c, 0, 54, 59
1, 64535, Note_on_c, 0, 66, 69
1, 64592, Note_on_c, 0, 82, 0
1, 64592, Note_on_c, 0, 70, 0
1, 64592, Note_on_c, 0, 66, 0
1, 64595, Note_on_c, 0, 54, 0
1, 64692, Note_on_c, 0, 61, 58
1, 64692, Note_on_c, 0, 64, 66
1, 64749, Note_on_c, 0, 64, 0
1, 64749, Note_on_c, 0, 61, 0
1, 64845, Note_on_c, 0, 71, 67
1, 64845, Note_on_c, 0, 83, 78
1, 64845, Note_on_c, 0, 59, 58
1, 64848, Note_on_c, 0, 62, 66
1, 64902, Note_on_c, 0, 62, 0
1, 64902, Note_on_c, 0, 59, 0
1, 64996, Note_on_c, 0, 54, 58
1, 64996, Note_on_c, 0, 61, 66
1, 65053, Note_on_c, 0, 61, 0
1, 65053, Note_on_c, 0, 54, 0
1, 65147, Note_on_c, 0, 50, 61
1, 65147, Note_on_c, 0, 59, 70
1, 65298, Note_on_c, 0, 83, 0
1, 65298, Note_on_c, 0, 71, 0
1, 65298, Note_on_c, 0, 73, 71
1, 65301, Note_on_c, 0, 85, 71
1, 65354, Note_on_c, 0, 85, 0
1, 65354, Note_on_c, 0, 73, 0
1, 65446, Note_on_c, 0, 74, 61
1, 65446, Note_on_c, 0, 86, 70
1, 65502, Note_on_c, 0, 86, 0
1, 65502, Note_on_c, 0, 74, 0
1, 65594, Note_on_c, 0, 76, 62
1, 65594, Note_on_c, 0, 88, 71
1, 65594, Note_on_c, 0, 59, 0
1, 65597, Note_on_c, 0, 50, 0
1, 65597, Note_on_c, 0, 48, 58
1, 65597, Note_on_c, 0, 57, 67
1, 65650, Note_on_c, 0, 88, 0
1, 65650, Note_on_c, 0, 76, 0
1, 65650, Note_on_c, 0, 57, 0
1, 65653, Note_on_c, 0, 48, 0
1, 65742, Note_on_c, 0, 77, 64
1, 65742, Note_on_c, 0, 89, 74
1, 65742, Note_on_c, 0, 47, 59
1, 65745, Note_on_c, 0, 56, 69
1, 65799, Note_on_c, 0, 56, 0
1, 65799, Note_on_c, 0, 47, 0
1, 65893, Note_on_c, 0, 50, 56
1, 65893, Note_on_c, 0, 59, 65
1, 65950, Note_on_c, 0, 59, 0
1, 65950, Note_on_c, 0, 50, 0
1, 66044, Note_on_c, 0, 89, 0
1, 66044, Note_on_c, 0, 77, 0
1, 66044, Note_on_c, 0, 77, 62
1, 66047, Note_on_c, 0, 89, 71
1, 66047, Note_on_c, 0, 47, 59
1, 66047, Note_on_c, 0, 56, 69
1, 66101, Note_on_c, 0, 89, 0
1, 66101, Note_on_c, 0, 77, 0
1, 66101, Note_on_c, 0, 56, 0
1, 66104, Note_on_c, 0, 47, 0
1, 66195, Note_on_c, 0, 77, 62
1, 66195, Note_on_c, 0, 89, 71
1, 66195, Note_on_c, 0, 50, 54
1, 66198, Note_on_c, 0, 59, 63
1, 66255, Note_on_c, 0, 89, 0
1, 66255, Note_on_c, 0, 77, 0
1, 66255, Note_on_c, 0, 59, 0
1, 66258, Note_on_c, 0, 50, 0
1, 66355, Note_on_c, 0, 68, 74
1, 66355, Note_on_c, 0, 80, 87
1, 66355, Note_on_c, 0, 62, 69
1, 66358, Note_on_c, 0, 65, 80
1, 66408, Note_on_c, 0, 80, 0
1, 66408, Note_on_c, 0, 68, 0
1, 66408, Note_on_c, 0, 65, 0
1, 66411, Note_on_c, 0, 62, 0
1, 66497, Note_on_c, 0, 71, 67
1, 66497, Note_on_c, 0, 83, 77
1, 66497, Note_on_c, 0, 62, 67
1, 66500, Note_on_c, 0, 65, 78
1, 66556, Note_on_c, 0, 83, 0
1, 66556, Note_on_c, 0, 71, 0
1, 66654, Note_on_c, 0, 68, 67
1, 66654, Note_on_c, 0, 80, 77
1, 66710, Note_on_c, 0, 80, 0
1, 66710, Note_on_c, 0, 68, 0
1, 66805, Note_on_c, 0, 71, 67
1, 66805, Note_on_c, 0, 83, 77
1, 66861, Note_on_c, 0, 83, 0
1, 66861, Note_on_c, 0, 71, 0
1, 66956, Note_on_c, 0, 76, 64
1, 66956, Note_on_c, 0, 88, 74
1, 66956, Note_on_c, 0, 65, 0
1, 66959, Note_on_c, 0, 62, 0
1, 66959, Note_on_c, 0, 46, 59
1, 66959, Note_on_c, 0, 55, 69
1, 67012, Note_on_c, 0, 55, 0
1, 67012, Note_on_c, 0, 46, 0
1, 67107, Note_on_c, 0, 49, 56
1, 67107, Note_on_c, 0, 58, 65
1, 67163, Note_on_c, 0, 58, 0
1, 67163, Note_on_c, 0, 49, 0
1, 67258, Note_on_c, 0, 88, 0
1, 67258, Note_on_c, 0, 76, 0
1, 67258, Note_on_c, 0, 76, 62
1, 67261, Note_on_c, 0, 88, 71
1, 67261, Note_on_c, 0, 46, 59
1, 67261, Note_on_c, 0, 55, 69
1, 67314, Note_on_c, 0, 88, 0
1, 67314, Note_on_c, 0, 76, 0
1, 67314, Note_on_c, 0, 55, 0
1, 67317, Note_on_c, 0, 46, 0
1, 67409, Note_on_c, 0, 76, 62
1, 67409, Note_on_c, 0, 88, 72
1, 67409, Note_on_c, 0, 49, 54
1, 67412, Note_on_c, 0, 58, 63
1, 67469, Note_on_c, 0, 88, 0
1, 67469, Note_on_c, 0, 76, 0
1, 67469, Note_on_c, 0, 58, 0
1, 67472, Note_on_c, 0, 49, 0
1, 67570, Note_on_c, 0, 67, 71
1, 67570, Note_on_c, 0, 79, 83
1, 67570, Note_on_c, 0, 61, 69
1, 67573, Note_on_c, 0, 64, 80
1, 67623, Note_on_c, 0, 79, 0
1, 67623, Note_on_c, 0, 67, 0
1, 67623, Note_on_c, 0, 64, 0
1, 67626, Note_on_c, 0, 61, 0
1, 67713, Note_on_c, 0, 70, 66
1, 67713, Note_on_c, 0, 82, 77
1, 67713, Note_on_c, 0, 61, 66
1, 67716, Note_on_c, 0, 64, 77
1, 67772, Note_on_c, 0, 82, 0
1, 67772, Note_on_c, 0, 70, 0
1, 67870, Note_on_c, 0, 67, 66
1, 67870, Note_on_c, 0, 79, 77
1, 67926, Note_on_c, 0, 79, 0
1, 67926, Note_on_c, 0, 67, 0
1, 68021, Note_on_c, 0, 70, 67
1, 68021, Note_on_c, 0, 82, 78
1, 68077, Note_on_c, 0, 82, 0
1, 68077, Note_on_c, 0, 70, 0
1, 68172, Note_on_c, 0, 75, 64
1, 68172, Note_on_c, 0, 87, 74
1, 68172, Note_on_c, 0, 64, 0
1, 68175, Note_on_c, 0, 61, 0
1, 68175, Note_on_c, 0, 45, 59
1, 68175, Note_on_c, 0, 54, 69
1, 68228, Note_on_c, 0, 54, 0
1, 68228, Note_on_c, 0, 45, 0
1, 68323, Note_on_c, 0, 48, 56
1, 68323, Note_on_c, 0, 57, 65
1, 68380, Note_on_c, 0, 57, 0
1, 68380, Note_on_c, 0, 48, 0
1, 68475, Note_on_c, 0, 87, 0
1, 68475, Note_on_c, 0, 75, 0
1, 68475, Note_on_c, 0, 66, 62
1, 68478, Note_on_c, 0, 78, 71
1, 68478, Note_on_c, 0, 60, 62
1, 68478, Note_on_c, 0, 63, 69
1, 68530, Note_on_c, 0, 78, 0
1, 68530, Note_on_c, 0, 66, 0
1, 68623, Note_on_c, 0, 69, 62
1, 68623, Note_on_c, 0, 81, 72
1, 68681, Note_on_c, 0, 81, 0
1, 68681, Note_on_c, 0, 69, 0
1, 68777, Note_on_c, 0, 74, 64
1, 68777, Note_on_c, 0, 86, 74
1, 68777, Note_on_c, 0, 63, 0
1, 68780, Note_on_c, 0, 60, 0
1, 68780, Note_on_c, 0, 44, 59
1, 68780, Note_on_c, 0, 53, 69
1, 68834, Note_on_c, 0, 53, 0
1, 68834, Note_on_c, 0, 44, 0
1, 68929, Note_on_c, 0, 47, 56
1, 68929, Note_on_c, 0, 56, 65
1, 68985, Note_on_c, 0, 56, 0
1, 68985, Note_on_c, 0, 47, 0
1, 69080, Note_on_c, 0, 86, 0
1, 69080, Note_on_c, 0, 74, 0
1, 69080, Note_on_c, 0, 65, 62
1, 69083, Note_on_c, 0, 77, 71
1, 69083, Note_on_c, 0, 59, 62
1, 69083, Note_on_c, 0, 62, 69
1, 69137, Note_on_c, 0, 77, 0
1, 69137, Note_on_c, 0, 65, 0
1, 69233, Note_on_c, 0, 68, 62
1, 69233, Note_on_c, 0, 80, 72
1, 69292, Note_on_c, 0, 80, 0
1, 69292, Note_on_c, 0, 68, 0
1, 69390, Note_on_c, 0, 73, 61
1, 69390, Note_on_c, 0, 85, 70
1, 69390, Note_on_c, 0, 62, 0
1, 69393, Note_on_c, 0, 59, 0
1, 69393, Note_on_c, 0, 43, 56
1, 69393, Note_on_c, 0, 52, 66
1, 69449, Note_on_c, 0, 52, 0
1, 69449, Note_on_c, 0, 43, 0
1, 69545, Note_on_c, 0, 46, 53
1, 69545, Note_on_c, 0, 55, 61
1, 69603, Note_on_c, 0, 55, 0
1, 69603, Note_on_c, 0, 46, 0
1, 69700, Note_on_c, 0, 85, 0
1, 69700, Note_on_c, 0, 73, 0
1, 69700, Note_on_c, 0, 64, 57
1, 69703, Note_on_c, 0, 76, 66
1, 69703, Note_on_c, 0, 58, 57
1, 69703, Note_on_c, 0, 61, 64
1, 69759, Note_on_c, 0, 76, 0
1, 69759, Note_on_c, 0, 64, 0
1, 69858, Note_on_c, 0, 67, 56
1, 69858, Note_on_c, 0, 79, 65
1, 69919, Note_on_c, 0, 79, 0
1, 69919, Note_on_c, 0, 67, 0
1, 70021, Note_on_c, 0, 72, 57
1, 70021, Note_on_c, 0, 84, 66
1, 70021, Note_on_c, 0, 61, 0
1, 70024, Note_on_c, 0, 58, 0
1, 70024, Note_on_c, 0, 42, 53
1, 70024, Note_on_c, 0, 51, 61
1, 70081, Note_on_c, 0, 51, 0
1, 70081, Note_on_c, 0, 42, 0
1, 70181, Note_on_c, 0, 45, 49
1, 70181, Note_on_c, 0, 54, 57
1, 70240, Note_on_c, 0, 54, 0
1, 70240, Note_on_c, 0, 45, 0
1, 70340, Note_on_c, 0, 84, 0
1, 70340, Note_on_c, 0, 72, 0
1, 70340, Note_on_c, 0, 63, 53
1, 70343, Note_on_c, 0, 75, 61
1, 70343, Note_on_c, 0, 57, 53
1, 70343, Note_on_c, 0, 60, 59
1, 70403, Note_on_c, 0, 75, 0
1, 70403, Note_on_c, 0, 63, 0
1, 70508, Note_on_c, 0, 66, 52
1, 70508, Note_on_c, 0, 78, 60
1, 70574, Note_on_c, 0, 78, 0
1, 70574, Note_on_c, 0, 66, 0
1, 70686, Note_on_c, 0, 60, 45
1, 70686, Note_on_c, 0, 66, 52
1, 70686, Note_on_c, 0, 60, 0
1, 70689, Note_on_c, 0, 57, 0
1, 70689, Note_on_c, 0, 32, 48
1, 70720, Control_c, 0, 64, 127
1, 70766, Note_on_c, 0, 66, 0
1, 70766, Note_on_c, 0, 60, 0
1, 70766, Note_on_c, 0, 72, 48
1, 70769, Note_on_c, 0, 32, 0
1, 70769, Note_on_c, 0, 44, 46
1, 70845, Note_on_c, 0, 72, 0
1, 70845, Note_on_c, 0, 60, 45
1, 70845, Note_on_c, 0, 66, 52
1, 70848, Note_on_c, 0, 44, 0
1, 70848, Note_on_c, 0, 32, 49
1, 70925, Note_on_c, 0, 66, 0
1, 70925, Note_on_c, 0, 60, 0
1, 70925, Note_on_c, 0, 72, 50
1, 70928, Note_on_c, 0, 32, 0
1, 70928, Note_on_c, 0, 44, 46
1, 71004, Note_on_c, 0, 72, 0
1, 71004, Note_on_c, 0, 60, 48
1, 71004, Note_on_c, 0, 66, 55
1, 71007, Note_on_c, 0, 44, 0
1, 71007, Note_on_c, 0, 32, 51
1, 71083, Note_on_c, 0, 66, 0
1, 71083, Note_on_c, 0, 60, 0
1, 71083, Note_on_c, 0, 72, 51
1, 71086, Note_on_c, 0, 32, 0
1, 71086, Note_on_c, 0, 44, 48
1, 71162, Note_on_c, 0, 72, 0
1, 71162, Note_on_c, 0, 60, 50
1, 71162, Note_on_c, 0, 66, 57
1, 71165, Note_on_c, 0, 44, 0
1, 71165, Note_on_c, 0, 32, 52
1, 71241, Note_on_c, 0, 66, 0
1, 71241, Note_on_c, 0, 60, 0
1, 71241, Note_on_c, 0, 72, 53
1, 71244, Note_on_c, 0, 32, 0
1, 71244, Note_on_c, 0, 44, 49
1, 71320, Note_on_c, 0, 72, 0
1, 71320, Note_on_c, 0, 60, 51
1, 71320, Note_on_c, 0, 66, 59
1, 71323, Note_on_c, 0, 44, 0
1, 71323, Note_on_c, 0, 32, 54
1, 71399, Note_on_c, 0, 66, 0
1, 71399, Note_on_c, 0, 60, 0
1, 71399, Note_on_c, 0, 72, 55
1, 71402, Note_on_c, 0, 32, 0
1, 71402, Note_on_c, 0, 44, 51
1, 71477, Note_on_c, 0, 72, 0
1, 71477, Note_on_c, 0, 60, 53
1, 71477, Note_on_c, 0, 66, 61
1, 71480, Note_on_c, 0, 44, 0
1, 71480, Note_on_c, 0, 32, 55
1, 71556, Note_on_c, 0, 66, 0
1, 71556, Note_on_c, 0, 60, 0
1, 71556, Note_on_c, 0, 72, 56
1, 71559, Note_on_c, 0, 32, 0
1, 71559, Note_on_c, 0, 44, 54
1, 71634, Note_on_c, 0, 72, 0
1, 71634, Note_on_c, 0, 60, 53
1, 71634, Note_on_c, 0, 66, 62
1, 71637, Note_on_c, 0, 44, 0
1, 71637, Note_on_c, 0, 32, 57
1, 71712, Note_on_c, 0, 66, 0
1, 71712, Note_on_c, 0, 60, 0
1, 71712, Note_on_c, 0, 72, 58
1, 71715, Note_on_c, 0, 32, 0
1, 71715, Note_on_c, 0, 44, 54
1, 71790, Note_on_c, 0, 72, 0
1, 71790, Note_on_c, 0, 60, 55
1, 71790, Note_on_c, 0, 66, 63
1, 71793, Note_on_c, 0, 44, 0
1, 71793, Note_on_c, 0, 32, 58
1, 71868, Note_on_c, 0, 66, 0
1, 71868, Note_on_c, 0, 60, 0
1, 71868, Note_on_c, 0, 72, 62
1, 71871, Note_on_c, 0, 32, 0
1, 71871, Note_on_c, 0, 44, 57
1, 71946, Note_on_c, 0, 72, 0
1, 71946, Note_on_c, 0, 72, 61
1, 71946, Note_on_c, 0, 78, 71
1, 71949, Note_on_c, 0, 44, 0
1, 71949, Control_c, 0, 64, 0
1, 71949, Note_on_c, 0, 45, 66
1, 71979, Control_c, 0, 64, 127
1, 72023, Note_on_c, 0, 78, 0
1, 72023, Note_on_c, 0, 72, 0
1, 72023, Note_on_c, 0, 84, 66
1, 72026, Note_on_c, 0, 45, 0
1, 72026, Note_on_c, 0, 46, 63
1, 72101, Note_on_c, 0, 84, 0
1, 72101, Note_on_c, 0, 72, 62
1, 72101, Note_on_c, 0, 78, 72
1, 72104, Note_on_c, 0, 46, 0
1, 72104, Note_on_c, 0, 47, 64
1, 72178, Note_on_c, 0, 78, 0
1, 72178, Note_on_c, 0, 72, 0
1, 72178, Note_on_c, 0, 84, 69
1, 72181, Note_on_c, 0, 47, 0
1, 72181, Note_on_c, 0, 48, 65
1, 72255, Note_on_c, 0, 84, 0
1, 72255, Note_on_c, 0, 72, 66
1, 72255, Note_on_c, 0, 78, 77
1, 72258, Note_on_c, 0, 48, 0
1, 72258, Note_on_c, 0, 49, 67
1, 72332, Note_on_c, 0, 78, 0
1, 72332, Note_on_c, 0, 72, 0
1, 72332, Note_on_c, 0, 84, 72
1, 72335, Note_on_c, 0, 49, 0
1, 72335, Note_on_c, 0, 50, 69
1, 72408, Note_on_c, 0, 84, 0
1, 72408, Note_on_c, 0, 72, 69
1, 72408, Note_on_c, 0, 78, 80
1, 72411, Note_on_c, 0, 50, 0
1, 72411, Note_on_c, 0, 51, 70
1, 72485, Note_on_c, 0, 78, 0
1, 72485, Note_on_c, 0, 72, 0
1, 72485, Note_on_c, 0, 84, 76
1, 72488, Note_on_c, 0, 51, 0
1, 72488, Note_on_c, 0, 52, 71
1, 72561, Note_on_c, 0, 84, 0
1, 72561, Note_on_c, 0, 72, 72
1, 72561, Note_on_c, 0, 78, 84
1, 72564, Note_on_c, 0, 52, 0
1, 72564, Note_on_c, 0, 53, 73
1, 72638, Note_on_c, 0, 78, 0
1, 72638, Note_on_c, 0, 72, 0
1, 72638, Note_on_c, 0, 84, 79
1, 72641, Note_on_c, 0, 53, 0
1, 72641, Note_on_c, 0, 54, 75
1, 72714, Note_on_c, 0, 84, 0
1, 72714, Note_on_c, 0, 72, 74
1, 72714, Note_on_c, 0, 78, 86
1, 72717, Note_on_c, 0, 54, 0
1, 72717, Note_on_c, 0, 55, 77
1, 72790, Note_on_c, 0, 78, 0
1, 72790, Note_on_c, 0, 72, 0
1, 72790, Note_on_c, 0, 84, 80
1, 72793, Note_on_c, 0, 55, 0
1, 72793, Note_on_c, 0, 56, 78
1, 72851, Control_c, 0, 64, 0
1, 72866, Note_on_c, 0, 84, 0
1, 72866, Note_on_c, 0, 84, 88
1, 72866, Note_on_c, 0, 72, 76
1, 72869, Note_on_c, 0, 78, 76
1, 72869, Note_on_c, 0, 56, 0
1, 72869, Note_on_c, 0, 44, 71
1, 72872, Note_on_c, 0, 56, 82
1, 72942, Note_on_c, 0, 78, 0
1, 72942, Note_on_c, 0, 72, 0
1, 72942, Note_on_c, 0, 84, 0
1, 72945, Note_on_c, 0, 56, 0
1, 72945, Note_on_c, 0, 44, 0
1, 73017, Note_on_c, 0, 84, 87
1, 73017, Note_on_c, 0, 72, 75
1, 73017, Note_on_c, 0, 78, 75
1, 73020, Note_on_c, 0, 44, 72
1, 73020, Note_on_c, 0, 56, 83
1, 73093, Note_on_c, 0, 78, 0
1, 73093, Note_on_c, 0, 72, 0
1, 73093, Note_on_c, 0, 84, 0
1, 73096, Note_on_c, 0, 56, 0
1, 73096, Note_on_c, 0, 44, 0
1, 73168, Note_on_c, 0, 72, 85
1, 73168, Note_on_c, 0, 78, 85
1, 73168, Note_on_c, 0, 84, 99
1, 73171, Note_on_c, 0, 44, 73
1, 73171, Note_on_c, 0, 56, 85
1, 73243, Note_on_c, 0, 84, 0
1, 73243, Note_on_c, 0, 78, 0
1, 73243, Note_on_c, 0, 72, 0
1, 73246, Note_on_c, 0, 56, 0
1, 73246, Note_on_c, 0, 44, 0
1, 73318, Note_on_c, 0, 74, 86
1, 73318, Note_on_c, 0, 78, 86
1, 73318, Note_on_c, 0, 84, 100
1, 73321, Note_on_c, 0, 86, 100
1, 73321, Note_on_c, 0, 56, 75
1, 73321, Note_on_c, 0, 68, 87
1, 73324, Control_c, 0, 64, 127
1, 73466, Note_on_c, 0, 86, 0
1, 73466, Note_on_c, 0, 74, 0
1, 73466, Note_on_c, 0, 78, 0
1, 73469, Note_on_c, 0, 84, 0
1, 73469, Note_on_c, 0, 74, 88
1, 73469, Note_on_c, 0, 78, 88
1, 73472, Note_on_c, 0, 84, 102
1, 73472, Note_on_c, 0, 86, 102
1, 73472, Note_on_c, 0, 68, 0
1, 73475, Note_on_c, 0, 56, 0
1, 73475, Note_on_c, 0, 56, 78
1, 73475, Note_on_c, 0, 68, 90
1, 73614, Note_on_c, 0, 86, 0
1, 73614, Note_on_c, 0, 74, 0
1, 73614, Note_on_c, 0, 78, 0
1, 73617, Note_on_c, 0, 84, 0
1, 73617, Note_on_c, 0, 74, 90
1, 73617, Note_on_c, 0, 78, 90
1, 73620, Note_on_c, 0, 84, 104
1, 73620, Note_on_c, 0, 86, 104
1, 73620, Note_on_c, 0, 68, 0
1, 73623, Note_on_c, 0, 56, 0
1, 73623, Note_on_c, 0, 56, 80
1, 73623, Note_on_c, 0, 68, 93
1, 73762, Note_on_c, 0, 86, 0
1, 73762, Note_on_c, 0, 74, 0
1, 73762, Note_on_c, 0, 78, 0
1, 73765, Note_on_c, 0, 84, 0
1, 73765, Note_on_c, 0, 74, 92
1, 73765, Note_on_c, 0, 78, 92
1, 73768, Note_on_c, 0, 84, 107
1, 73768, Note_on_c, 0, 86, 107
1, 73768, Note_on_c, 0, 68, 0
1, 73771, Note_on_c, 0, 56, 0
1, 73771, Note_on_c, 0, 56, 83
1, 73771, Note_on_c, 0, 68, 97
1, 73909, Note_on_c, 0, 86, 0
1, 73909, Note_on_c, 0, 74, 0
1, 73909, Note_on_c, 0, 78, 0
1, 73912, Note_on_c, 0, 84, 0
1, 73912, Note_on_c, 0, 74, 92
1, 73912, Note_on_c, 0, 78, 92
1, 73915, Note_on_c, 0, 84, 107
1, 73915, Note_on_c, 0, 86, 107
1, 73915, Note_on_c, 0, 68, 0
1, 73918, Note_on_c, 0, 56, 0
1, 73918, Note_on_c, 0, 56, 85
1, 73918, Note_on_c, 0, 68, 100
1, 74051, Control_c, 0, 64, 0
1, 74057, Note_on_c, 0, 86, 0
1, 74057, Note_on_c, 0, 74, 0
1, 74057, Note_on_c, 0, 78, 0
1, 74060, Note_on_c, 0, 84, 0
1, 74060, Note_on_c, 0, 74, 94
1, 74060, Note_on_c, 0, 78, 94
1, 74063, Note_on_c, 0, 84, 109
1, 74063, Note_on_c, 0, 86, 109
1, 74063, Note_on_c, 0, 68, 0
1, 74066, Note_on_c, 0, 56, 0
1, 74066, Note_on_c, 0, 56, 88
1, 74066, Note_on_c, 0, 68, 103
1, 74133, Note_on_c, 0, 86, 0
1, 74133, Note_on_c, 0, 74, 0
1, 74133, Note_on_c, 0, 78, 0
1, 74136, Note_on_c, 0, 84, 0
1, 74136, Note_on_c, 0, 68, 0
1, 74136, Note_on_c, 0, 56, 0
1, 74210, Note_on_c, 0, 74, 96
1, 74210, Note_on_c, 0, 78, 96
1, 74210, Note_on_c, 0, 84, 111
1, 74213, Note_on_c, 0, 86, 111
1, 74213, Note_on_c, 0, 56, 91
1, 74213, Note_on_c, 0, 68, 106
1, 74291, Note_on_c, 0, 86, 0
1, 74291, Note_on_c, 0, 74, 0
1, 74291, Note_on_c, 0, 78, 0
1, 74294, Note_on_c, 0, 84, 0
1, 74294, Note_on_c, 0, 68, 0
1, 74294, Note_on_c, 0, 56, 0
1, 74372, Note_on_c, 0, 76, 98
1, 74372, Note_on_c, 0, 79, 98
1, 74372, Note_on_c, 0, 84, 98
1, 74375, Note_on_c, 0, 88, 114
1, 74375, Note_on_c, 0, 55, 97
1, 74375, Note_on_c, 0, 67, 112
1, 74409, Control_c, 0, 64, 127
1, 74530, Note_on_c, 0, 88, 0
1, 74530, Note_on_c, 0, 76, 0
1, 74530, Note_on_c, 0, 79, 0
1, 74533, Note_on_c, 0, 84, 0
1, 74533, Note_on_c, 0, 77, 91
1, 74533, Note_on_c, 0, 83, 91
1, 74536, Note_on_c, 0, 86, 91
1, 74536, Note_on_c, 0, 91, 107
1, 74536, Note_on_c, 0, 67, 0
1, 74539, Note_on_c, 0, 55, 0
1, 74539, Note_on_c, 0, 31, 91
1, 74539, Note_on_c, 0, 43, 107
1, 74688, Note_on_c, 0, 91, 0
1, 74688, Note_on_c, 0, 77, 0
1, 74688, Note_on_c, 0, 83, 0
1, 74691, Note_on_c, 0, 86, 0
1, 74691, Note_on_c, 0, 77, 93
1, 74691, Note_on_c, 0, 83, 93
1, 74694, Note_on_c, 0, 86, 93
1, 74694, Note_on_c, 0, 91, 108
1, 74694, Note_on_c, 0, 43, 0
1, 74697, Note_on_c, 0, 31, 0
1, 74697, Note_on_c, 0, 31, 91
1, 74697, Note_on_c, 0, 43, 107
1, 74847, Note_on_c, 0, 91, 0
1, 74847, Note_on_c, 0, 77, 0
1, 74847, Note_on_c, 0, 83, 0
1, 74850, Note_on_c, 0, 86, 0
1, 74850, Note_on_c, 0, 77, 93
1, 74850, Note_on_c, 0, 83, 93
1, 74853, Note_on_c, 0, 86, 93
1, 74853, Note_on_c, 0, 91, 108
1, 74853, Note_on_c, 0, 43, 0
1, 74856, Note_on_c, 0, 31, 0
1, 74856, Note_on_c, 0, 31, 91
1, 74856, Note_on_c, 0, 43, 107
1, 75006, Note_on_c, 0, 91, 0
1, 75006, Note_on_c, 0, 77, 0
1, 75006, Note_on_c, 0, 83, 0
1, 75009, Note_on_c, 0, 86, 0
1, 75009, Note_on_c, 0, 77, 93
1, 75009, Note_on_c, 0, 83, 93
1, 75012, Note_on_c, 0, 86, 93
1, 75012, Note_on_c, 0, 91, 108
1, 75012, Note_on_c, 0, 43, 0
1, 75015, Note_on_c, 0, 31, 0
1, 75015, Note_on_c, 0, 31, 91
1, 75015, Note_on_c, 0, 43, 107
1, 75167, Note_on_c, 0, 91, 0
1, 75167, Note_on_c, 0, 77, 0
1, 75167, Note_on_c, 0, 83, 0
1, 75170, Note_on_c, 0, 86, 0
1, 75170, Note_on_c, 0, 77, 91
1, 75170, Note_on_c, 0, 83, 91
1, 75173, Note_on_c, 0, 86, 91
1, 75173, Note_on_c, 0, 91, 107
1, 75173, Note_on_c, 0, 43, 0
1, 75176, Note_on_c, 0, 31, 0
1, 75176, Note_on_c, 0, 31, 91
1, 75176, Note_on_c, 0, 43, 107
1, 75329, Note_on_c, 0, 91, 0
1, 75329, Note_on_c, 0, 77, 0
1, 75329, Note_on_c, 0, 83, 0
1, 75332, Note_on_c, 0, 86, 0
1, 75332, Note_on_c, 0, 77, 91
1, 75332, Note_on_c, 0, 83, 91
1, 75335, Note_on_c, 0, 86, 91
1, 75335, Note_on_c, 0, 91, 107
1, 75335, Note_on_c, 0, 43, 0
1, 75338, Note_on_c, 0, 31, 0
1, 75338, Note_on_c, 0, 31, 91
1, 75338, Note_on_c, 0, 43, 107
1, 75497, Note_on_c, 0, 91, 0
1, 75497, Note_on_c, 0, 77, 0
1, 75497, Note_on_c, 0, 83, 0
1, 75500, Note_on_c, 0, 86, 0
1, 75500, Note_on_c, 0, 77, 91
1, 75500, Note_on_c, 0, 83, 91
1, 75503, Note_on_c, 0, 86, 91
1, 75503, Note_on_c, 0, 91, 107
1, 75503, Note_on_c, 0, 43, 0
1, 75506, Note_on_c, 0, 31, 0
1, 75506, Note_on_c, 0, 31, 91
1, 75506, Note_on_c, 0, 43, 107
1, 75678, Note_on_c, 0, 91, 0
1, 75678, Note_on_c, 0, 77, 0
1, 75678, Note_on_c, 0, 83, 0
1, 75681, Note_on_c, 0, 86, 0
1, 75681, Note_on_c, 0, 84, 86
1, 75681, Note_on_c, 0, 88, 100
1, 75684, Control_c, 0, 91, 127
1, 75684, Note_on_c, 0, 43, 0
1, 75684, Note_on_c, 0, 31, 0
1, 75687, Control_c, 0, 64, 0
1, 75687, Note_on_c, 0, 36, 95
1, 75687, Note_on_c, 0, 48, 110
1, 75723, Control_c, 0, 64, 127
1, 75757, Note_on_c, 0, 88, 0
1, 75757, Note_on_c, 0, 84, 0
1, 75757, Note_on_c, 0, 96, 105
1, 75836, Note_on_c, 0, 96, 0
1, 75836, Note_on_c, 0, 91, 105
1, 75916, Note_on_c, 0, 91, 0
1, 75916, Note_on_c, 0, 88, 104
1, 75995, Note_on_c, 0, 88, 0
1, 75995, Note_on_c, 0, 84, 103
1, 75995, Note_on_c, 0, 48, 0
1, 75998, Note_on_c, 0, 36, 0
1, 75998, Note_on_c, 0, 36, 89
1, 75998, Note_on_c, 0, 48, 105
1, 76053, Note_on_c, 0, 48, 0
1, 76053, Note_on_c, 0, 36, 0
1, 76072, Note_on_c, 0, 84, 0
1, 76072, Note_on_c, 0, 79, 102
1, 76149, Note_on_c, 0, 79, 0
1, 76149, Note_on_c, 0, 76, 101
1, 76149, Note_on_c, 0, 36, 89
1, 76152, Note_on_c, 0, 48, 105
1, 76207, Note_on_c, 0, 48, 0
1, 76207, Note_on_c, 0, 36, 0
1, 76227, Note_on_c, 0, 76, 0
1, 76227, Note_on_c, 0, 79, 100
1, 76304, Note_on_c, 0, 79, 0
1, 76304, Note_on_c, 0, 72, 100
1, 76304, Note_on_c, 0, 36, 89
1, 76307, Note_on_c, 0, 48, 105
1, 76460, Note_on_c, 0, 72, 0
1, 76460, Note_on_c, 0, 88, 86
1, 76460, Note_on_c, 0, 91, 100
1, 76539, Note_on_c, 0, 91, 0
1, 76539, Note_on_c, 0, 88, 0
1, 76539, Note_on_c, 0, 79, 96
1, 76617, Note_on_c, 0, 79, 0
1, 76617, Note_on_c, 0, 89, 89
1, 76617, Note_on_c, 0, 93, 103
1, 76620, Note_on_c, 0, 48, 0
1, 76620, Note_on_c, 0, 36, 0
1, 76620, Control_c, 0, 64, 0
1, 76623, Note_on_c, 0, 36, 91
1, 76623, Note_on_c, 0, 48, 106
1, 76678, Note_on_c, 0, 48, 0
1, 76678, Note_on_c, 0, 36, 0
1, 76698, Note_on_c, 0, 93, 0
1, 76698, Note_on_c, 0, 89, 0
1, 76698, Note_on_c, 0, 81, 96
1, 76780, Note_on_c, 0, 81, 0
1, 76780, Note_on_c, 0, 91, 89
1, 76780, Note_on_c, 0, 94, 103
1, 76783, Note_on_c, 0, 36, 92
1, 76783, Note_on_c, 0, 48, 107
1, 76844, Note_on_c, 0, 48, 0
1, 76844, Note_on_c, 0, 36, 0
1, 76865, Note_on_c, 0, 94, 0
1, 76865, Note_on_c, 0, 91, 0
1, 76865, Note_on_c, 0, 82, 99
1, 76956, Note_on_c, 0, 82, 0
1, 76956, Note_on_c, 0, 89, 93
1, 76956, Note_on_c, 0, 93, 108
1, 76959, Note_on_c, 0, 37, 99
1, 76959, Note_on_c, 0, 49, 115
1, 76971, Control_c, 0, 64, 127
1, 77016, Note_on_c, 0, 49, 0
1, 77016, Note_on_c, 0, 37, 0
1, 77036, Note_on_c, 0, 93, 0
1, 77036, Note_on_c, 0, 89, 0
1, 77036, Note_on_c, 0, 81, 99
1, 77117, Note_on_c, 0, 81, 0
1, 77117, Note_on_c, 0, 88, 89
1, 77117, Note_on_c, 0, 91, 104
1, 77197, Note_on_c, 0, 91, 0
1, 77197, Note_on_c, 0, 88, 0
1, 77197, Note_on_c, 0, 79, 97
1, 77278, Note_on_c, 0, 79, 0
1, 77278, Note_on_c, 0, 86, 89
1, 77278, Note_on_c, 0, 89, 103
1, 77281, Note_on_c, 0, 38, 96
1, 77281, Note_on_c, 0, 50, 112
1, 77285, Control_c, 0, 64, 0
1, 77322, Control_c, 0, 64, 127
1, 77355, Note_on_c, 0, 89, 0
1, 77355, Note_on_c, 0, 86, 0
1, 77355, Note_on_c, 0, 77, 96
1, 77432, Note_on_c, 0, 77, 0
1, 77432, Note_on_c, 0, 81, 87
1, 77432, Note_on_c, 0, 88, 101
1, 77509, Note_on_c, 0, 88, 0
1, 77509, Note_on_c, 0, 81, 0
1, 77509, Note_on_c, 0, 76, 87
1, 77587, Note_on_c, 0, 76, 0
1, 77587, Note_on_c, 0, 77, 83
1, 77587, Note_on_c, 0, 86, 96
1, 77665, Note_on_c, 0, 86, 0
1, 77665, Note_on_c, 0, 77, 0
1, 77665, Note_on_c, 0, 74, 86
1, 77743, Note_on_c, 0, 74, 0
1, 77743, Note_on_c, 0, 81, 83
1, 77743, Note_on_c, 0, 85, 97
1, 77746, Note_on_c, 0, 50, 0
1, 77746, Note_on_c, 0, 38, 0
1, 77746, Note_on_c, 0, 40, 91
1, 77749, Note_on_c, 0, 52, 106
1, 77749, Control_c, 0, 64, 0
1, 77802, Note_on_c, 0, 52, 0
1, 77802, Note_on_c, 0, 40, 0
1, 77821, Note_on_c, 0, 85, 0
1, 77821, Note_on_c, 0, 81, 0
1, 77821, Note_on_c, 0, 73, 89
1, 77900, Note_on_c, 0, 73, 0
1, 77900, Note_on_c, 0, 81, 88
1, 77900, Note_on_c, 0, 86, 102
1, 77903, Note_on_c, 0, 41, 89
1, 77903, Note_on_c, 0, 53, 105
1, 77933, Control_c, 0, 64, 127
1, 77959, Note_on_c, 0, 53, 0
1, 77959, Note_on_c, 0, 41, 0
1, 77979, Note_on_c, 0, 86, 0
1, 77979, Note_on_c, 0, 81, 0
1, 77979, Note_on_c, 0, 74, 91
1, 78058, Note_on_c, 0, 74, 0
1, 78058, Note_on_c, 0, 88, 90
1, 78058, Note_on_c, 0, 97, 105
1, 78061, Note_on_c, 0, 40, 91
1, 78061, Note_on_c, 0, 52, 106
1, 78118, Note_on_c, 0, 52, 0
1, 78118, Note_on_c, 0, 40, 0
1, 78138, Note_on_c, 0, 97, 0
1, 78138, Note_on_c, 0, 88, 0
1, 78138, Note_on_c, 0, 85, 96
1, 78224, Note_on_c, 0, 85, 0
1, 78224, Control_c, 0, 91, 127
1, 78224, Note_on_c, 0, 86, 100
1, 78227, Control_c, 0, 64, 0
1, 78227, Note_on_c, 0, 38, 95
1, 78227, Note_on_c, 0, 50, 110
1, 78266, Control_c, 0, 64, 127
1, 78303, Note_on_c, 0, 86, 0
1, 78303, Note_on_c, 0, 98, 105
1, 78383, Note_on_c, 0, 98, 0
1, 78383, Note_on_c, 0, 93, 105
1, 78463, Note_on_c, 0, 93, 0
1, 78463, Note_on_c, 0, 89, 104
1, 78542, Note_on_c, 0, 89, 0
1, 78542, Note_on_c, 0, 86, 103
1, 78542, Note_on_c, 0, 50, 0
1, 78545, Note_on_c, 0, 38, 0
1, 78545, Note_on_c, 0, 38, 95
1, 78545, Note_on_c, 0, 50, 110
1, 78600, Note_on_c, 0, 50, 0
1, 78600, Note_on_c, 0, 38, 0
1, 78619, Note_on_c, 0, 86, 0
1, 78619, Note_on_c, 0, 81, 102
1, 78697, Note_on_c, 0, 81, 0
1, 78697, Note_on_c, 0, 77, 101
1, 78697, Note_on_c, 0, 38, 91
1, 78700, Note_on_c, 0, 50, 106
1, 78754, Note_on_c, 0, 50, 0
1, 78754, Note_on_c, 0, 38, 0
1, 78774, Note_on_c, 0, 77, 0
1, 78774, Note_on_c, 0, 81, 100
1, 78851, Note_on_c, 0, 81, 0
1, 78851, Note_on_c, 0, 74, 100
1, 78851, Note_on_c, 0, 38, 91
1, 78854, Note_on_c, 0, 50, 106
1, 79008, Note_on_c, 0, 74, 0
1, 79008, Note_on_c, 0, 89, 86
1, 79008, Note_on_c, 0, 93, 100
1, 79087, Note_on_c, 0, 93, 0
1, 79087, Note_on_c, 0, 89, 0
1, 79087, Note_on_c, 0, 81, 96
1, 79165, Note_on_c, 0, 81, 0
1, 79165, Note_on_c, 0, 91, 89
1, 79165, Note_on_c, 0, 95, 103
1, 79168, Note_on_c, 0, 50, 0
1, 79168, Note_on_c, 0, 38, 0
1, 79168, Note_on_c, 0, 38, 92
1, 79171, Note_on_c, 0, 50, 107
1, 79217, Control_c, 0, 64, 0
1, 79225, Note_on_c, 0, 50, 0
1, 79225, Note_on_c, 0, 38, 0
1, 79245, Note_on_c, 0, 95, 0
1, 79245, Note_on_c, 0, 91, 0
1, 79245, Note_on_c, 0, 83, 96
1, 79324, Note_on_c, 0, 83, 0
1, 79324, Note_on_c, 0, 93, 89
1, 79324, Note_on_c, 0, 96, 103
1, 79327, Note_on_c, 0, 38, 92
1, 79327, Note_on_c, 0, 50, 107
1, 79387, Note_on_c, 0, 50, 0
1, 79387, Note_on_c, 0, 38, 0
1, 79407, Note_on_c, 0, 96, 0
1, 79407, Note_on_c, 0, 93, 0
1, 79407, Note_on_c, 0, 84, 99
1, 79493, Note_on_c, 0, 84, 0
1, 79493, Note_on_c, 0, 91, 93
1, 79493, Note_on_c, 0, 95, 108
1, 79496, Note_on_c, 0, 39, 99
1, 79496, Note_on_c, 0, 51, 115
1, 79513, Control_c, 0, 64, 127
1, 79554, Note_on_c, 0, 51, 0
1, 79554, Note_on_c, 0, 39, 0
1, 79575, Note_on_c, 0, 95, 0
1, 79575, Note_on_c, 0, 91, 0
1, 79575, Note_on_c, 0, 83, 99
1, 79657, Note_on_c, 0, 83, 0
1, 79657, Note_on_c, 0, 90, 89
1, 79657, Note_on_c, 0, 93, 104
1, 79739, Note_on_c, 0, 93, 0
1, 79739, Note_on_c, 0, 90, 0
1, 79739, Note_on_c, 0, 81, 97
1, 79821, Note_on_c, 0, 81, 0
1, 79821, Note_on_c, 0, 88, 89
1, 79821, Note_on_c, 0, 91, 103
1, 79824, Note_on_c, 0, 40, 96
1, 79824, Note_on_c, 0, 52, 112
1, 79827, Control_c, 0, 64, 0
1, 79865, Control_c, 0, 64, 127
1, 79898, Note_on_c, 0, 91, 0
1, 79898, Note_on_c, 0, 88, 0
1, 79898, Note_on_c, 0, 79, 96
1, 79975, Note_on_c, 0, 79, 0
1, 79975, Note_on_c, 0, 83, 87
1, 79975, Note_on_c, 0, 90, 101
1, 80052, Note_on_c, 0, 90, 0
1, 80052, Note_on_c, 0, 83, 0
1, 80052, Note_on_c, 0, 78, 87
1, 80130, Note_on_c, 0, 78, 0
1, 80130, Note_on_c, 0, 79, 83
1, 80130, Note_on_c, 0, 88, 96
1, 80208, Note_on_c, 0, 88, 0
1, 80208, Note_on_c, 0, 79, 0
1, 80208, Note_on_c, 0, 76, 86
1, 80286, Note_on_c, 0, 76, 0
1, 80286, Note_on_c, 0, 83, 83
1, 80286, Note_on_c, 0, 87, 97
1, 80289, Note_on_c, 0, 52, 0
1, 80289, Note_on_c, 0, 40, 0
1, 80289, Note_on_c, 0, 42, 103
1, 80292, Note_on_c, 0, 54, 103
1, 80305, Control_c, 0, 64, 0
1, 80345, Note_on_c, 0, 54, 0
1, 80345, Note_on_c, 0, 42, 0
1, 80364, Note_on_c, 0, 87, 0
1, 80364, Note_on_c, 0, 83, 0
1, 80364, Note_on_c, 0, 75, 89
1, 80443, Note_on_c, 0, 75, 0
1, 80443, Note_on_c, 0, 83, 88
1, 80443, Note_on_c, 0, 88, 102
1, 80446, Note_on_c, 0, 43, 87
1, 80446, Note_on_c, 0, 55, 102
1, 80473, Control_c, 0, 64, 127
1, 80502, Note_on_c, 0, 55, 0
1, 80502, Note_on_c, 0, 43, 0
1, 80522, Note_on_c, 0, 88, 0
1, 80522, Note_on_c, 0, 83, 0
1, 80522, Note_on_c, 0, 76, 91
1, 80601, Note_on_c, 0, 76, 0
1, 80601, Note_on_c, 0, 77, 90
1, 80601, Note_on_c, 0, 86, 105
1, 80604, Note_on_c, 0, 45, 89
1, 80604, Note_on_c, 0, 57, 103
1, 80661, Note_on_c, 0, 57, 0
1, 80661, Note_on_c, 0, 45, 0
1, 80681, Note_on_c, 0, 86, 0
1, 80681, Note_on_c, 0, 77, 0
1, 80681, Note_on_c, 0, 74, 96
1, 80760, Note_on_c, 0, 74, 0
1, 80760, Note_on_c, 0, 73, 103
1, 80760, Note_on_c, 0, 76, 103
1, 80763, Control_c, 0, 64, 0
1, 80763, Note_on_c, 0, 46, 96
1, 80763, Note_on_c, 0, 58, 111
1, 80786, Control_c, 0, 64, 127
1, 80838, Note_on_c, 0, 76, 0
1, 80838, Note_on_c, 0, 73, 0
1, 80838, Note_on_c, 0, 85, 97
1, 80917, Note_on_c, 0, 85, 0
1, 80917, Note_on_c, 0, 76, 97
1, 80917, Note_on_c, 0, 79, 97
1, 80995, Note_on_c, 0, 79, 0
1, 80995, Note_on_c, 0, 76, 0
1, 80995, Note_on_c, 0, 88, 97
1, 81073, Note_on_c, 0, 88, 0
1, 81073, Note_on_c, 0, 73, 103
1, 81073, Note_on_c, 0, 76, 103
1, 81076, Note_on_c, 0, 58, 0
1, 81076, Note_on_c, 0, 46, 0
1, 81076, Note_on_c, 0, 46, 89
1, 81079, Note_on_c, 0, 58, 103
1, 81084, Control_c, 0, 64, 0
1, 81132, Note_on_c, 0, 58, 0
1, 81132, Note_on_c, 0, 46, 0
1, 81151, Note_on_c, 0, 76, 0
1, 81151, Note_on_c, 0, 73, 0
1, 81151, Note_on_c, 0, 85, 96
1, 81230, Note_on_c, 0, 85, 0
1, 81230, Note_on_c, 0, 76, 98
1, 81230, Note_on_c, 0, 79, 98
1, 81233, Note_on_c, 0, 46, 89
1, 81233, Note_on_c, 0, 58, 103
1, 81291, Note_on_c, 0, 58, 0
1, 81291, Note_on_c, 0, 46, 0
1, 81311, Note_on_c, 0, 79, 0
1, 81311, Note_on_c, 0, 76, 0
1, 81311, Note_on_c, 0, 88, 98
1, 81393, Note_on_c, 0, 88, 0
1, 81393, Note_on_c, 0, 82, 105
1, 81393, Note_on_c, 0, 37, 92
1, 81396, Note_on_c, 0, 49, 107
1, 81426, Control_c, 0, 64, 127
1, 81471, Note_on_c, 0, 82, 0
1, 81471, Note_on_c, 0, 94, 100
1, 81550, Note_on_c, 0, 94, 0
1, 81550, Note_on_c, 0, 91, 98
1, 81628, Note_on_c, 0, 91, 0
1, 81628, Note_on_c, 0, 88, 96
1, 81706, Note_on_c, 0, 88, 0
1, 81706, Note_on_c, 0, 82, 95
1, 81786, Note_on_c, 0, 82, 0
1, 81786, Note_on_c, 0, 79, 95
1, 81867, Note_on_c, 0, 79, 0
1, 81867, Note_on_c, 0, 76, 94
1, 81947, Note_on_c, 0, 76, 0
1, 81947, Note_on_c, 0, 70, 93
1, 82027, Note_on_c, 0, 70, 0
1, 82027, Note_on_c, 0, 72, 101
1, 82027, Note_on_c, 0, 75, 101
1, 82030, Note_on_c, 0, 49, 0
1, 82030, Note_on_c, 0, 37, 0
1, 82030, Control_c, 0, 64, 0
1, 82033, Note_on_c, 0, 45, 94
1, 82033, Note_on_c, 0, 57, 108
1, 82052, Control_c, 0, 64, 127
1, 82107, Note_on_c, 0, 75, 0
1, 82107, Note_on_c, 0, 72, 0
1, 82107, Note_on_c, 0, 84, 95
1, 82186, Note_on_c, 0, 84, 0
1, 82186, Note_on_c, 0, 75, 95
1, 82186, Note_on_c, 0, 78, 95
1, 82265, Note_on_c, 0, 78, 0
1, 82265, Note_on_c, 0, 75, 0
1, 82265, Note_on_c, 0, 87, 95
1, 82345, Note_on_c, 0, 87, 0
1, 82345, Note_on_c, 0, 72, 101
1, 82345, Note_on_c, 0, 75, 101
1, 82348, Note_on_c, 0, 57, 0
1, 82348, Note_on_c, 0, 45, 0
1, 82348, Note_on_c, 0, 45, 87
1, 82351, Note_on_c, 0, 57, 101
1, 82364, Control_c, 0, 64, 0
1, 82404, Note_on_c, 0, 57, 0
1, 82404, Note_on_c, 0, 45, 0
1, 82424, Note_on_c, 0, 75, 0
1, 82424, Note_on_c, 0, 72, 0
1, 82424, Note_on_c, 0, 84, 94
1, 82503, Note_on_c, 0, 84, 0
1, 82503, Note_on_c, 0, 75, 96
1, 82503, Note_on_c, 0, 78, 96
1, 82506, Note_on_c, 0, 45, 88
1, 82506, Note_on_c, 0, 57, 102
1, 82565, Note_on_c, 0, 57, 0
1, 82565, Note_on_c, 0, 45, 0
1, 82586, Note_on_c, 0, 78, 0
1, 82586, Note_on_c, 0, 75, 0
1, 82586, Note_on_c, 0, 87, 96
1, 82668, Note_on_c, 0, 87, 0
1, 82668, Note_on_c, 0, 81, 103
1, 82668, Note_on_c, 0, 36, 90
1, 82671, Note_on_c, 0, 48, 105
1, 82698, Control_c, 0, 64, 127
1, 82747, Note_on_c, 0, 81, 0
1, 82747, Note_on_c, 0, 93, 98
1, 82826, Note_on_c, 0, 93, 0
1, 82826, Note_on_c, 0, 90, 96
1, 82905, Note_on_c, 0, 90, 0
1, 82905, Note_on_c, 0, 87, 94
1, 82984, Note_on_c, 0, 87, 0
1, 82984, Note_on_c, 0, 81, 93
1, 83063, Note_on_c, 0, 81, 0
1, 83063, Note_on_c, 0, 78, 93
1, 83143, Note_on_c, 0, 78, 0
1, 83143, Note_on_c, 0, 75, 92
1, 83222, Note_on_c, 0, 75, 0
1, 83222, Note_on_c, 0, 69, 91
1, 83301, Note_on_c, 0, 69, 0
1, 83301, Note_on_c, 0, 67, 94
1, 83301, Note_on_c, 0, 48, 0
1, 83304, Note_on_c, 0, 36, 0
1, 83304, Control_c, 0, 64, 0
1, 83304, Note_on_c, 0, 35, 89
1, 83307, Note_on_c, 0, 47, 103
1, 83360, Note_on_c, 0, 47, 0
1, 83360, Note_on_c, 0, 35, 0
1, 83379, Note_on_c, 0, 67, 0
1, 83379, Note_on_c, 0, 79, 85
1, 83458, Note_on_c, 0, 79, 0
1, 83458, Note_on_c, 0, 74, 85
1, 83458, Note_on_c, 0, 38, 90
1, 83461, Note_on_c, 0, 50, 104
1, 83517, Note_on_c, 0, 50, 0
1, 83517, Note_on_c, 0, 38, 0
1, 83536, Note_on_c, 0, 74, 0
1, 83536, Note_on_c, 0, 71, 84
1, 83615, Note_on_c, 0, 71, 0
1, 83615, Note_on_c, 0, 74, 90
1, 83615, Note_on_c, 0, 43, 94
1, 83618, Note_on_c, 0, 55, 109
1, 83674, Note_on_c, 0, 55, 0
1, 83674, Note_on_c, 0, 43, 0
1, 83693, Note_on_c, 0, 74, 0
1, 83693, Note_on_c, 0, 86, 85
1, 83772, Note_on_c, 0, 86, 0
1, 83772, Note_on_c, 0, 83, 85
1, 83772, Note_on_c, 0, 41, 90
1, 83775, Note_on_c, 0, 53, 104
1, 83831, Note_on_c, 0, 53, 0
1, 83831, Note_on_c, 0, 41, 0
1, 83851, Note_on_c, 0, 83, 0
1, 83851, Note_on_c, 0, 79, 85
1, 83929, Note_on_c, 0, 79, 0
1, 83929, Note_on_c, 0, 84, 72
1, 83929, Note_on_c, 0, 88, 83
1, 83932, Note_on_c, 0, 40, 91
1, 83932, Note_on_c, 0, 52, 106
1, 83971, Control_c, 0, 64, 127
1, 83988, Note_on_c, 0, 52, 0
1, 83988, Note_on_c, 0, 40, 0
1, 84008, Note_on_c, 0, 88, 0
1, 84008, Note_on_c, 0, 84, 0
1, 84008, Note_on_c, 0, 76, 84
1, 84086, Note_on_c, 0, 76, 0
1, 84086, Note_on_c, 0, 86, 74
1, 84086, Note_on_c, 0, 89, 86
1, 84089, Note_on_c, 0, 36, 89
1, 84089, Note_on_c, 0, 48, 103
1, 84089, Control_c, 0, 64, 0
1, 84145, Note_on_c, 0, 48, 0
1, 84145, Note_on_c, 0, 36, 0
1, 84151, Control_c, 0, 64, 127
1, 84165, Note_on_c, 0, 89, 0
1, 84165, Note_on_c, 0, 86, 0
1, 84165, Note_on_c, 0, 77, 88
1, 84243, Note_on_c, 0, 77, 0
1, 84243, Note_on_c, 0, 88, 77
1, 84243, Note_on_c, 0, 91, 89
1, 84246, Note_on_c, 0, 35, 89
1, 84246, Note_on_c, 0, 47, 103
1, 84256, Control_c, 0, 64, 0
1, 84302, Note_on_c, 0, 47, 0
1, 84302, Note_on_c, 0, 35, 0
1, 84322, Note_on_c, 0, 91, 0
1, 84322, Note_on_c, 0, 88, 0
1, 84322, Note_on_c, 0, 79, 91
1, 84326, Control_c, 0, 64, 127
1, 84400, Note_on_c, 0, 79, 0
1, 84400, Note_on_c, 0, 89, 80
1, 84400, Note_on_c, 0, 93, 93
1, 84403, Note_on_c, 0, 33, 89
1, 84403, Note_on_c, 0, 45, 103
1, 84403, Control_c, 0, 64, 0
1, 84456, Control_c, 0, 64, 127
1, 84459, Note_on_c, 0, 45, 0
1, 84459, Note_on_c, 0, 33, 0
1, 84479, Note_on_c, 0, 93, 0
1, 84479, Note_on_c, 0, 89, 0
1, 84479, Note_on_c, 0, 81, 94
1, 84557, Note_on_c, 0, 81, 0
1, 84557, Note_on_c, 0, 86, 82
1, 84557, Note_on_c, 0, 91, 82
1, 84560, Note_on_c, 0, 95, 95
1, 84560, Control_c, 0, 64, 0
1, 84560, Note_on_c, 0, 41, 97
1, 84599, Control_c, 0, 64, 127
1, 84616, Note_on_c, 0, 41, 0
1, 84636, Note_on_c, 0, 95, 0
1, 84636, Note_on_c, 0, 91, 0
1, 84636, Note_on_c, 0, 86, 0
1, 84639, Note_on_c, 0, 83, 96
1, 84639, Note_on_c, 0, 53, 98
1, 84695, Note_on_c, 0, 53, 0
1, 84715, Note_on_c, 0, 83, 0
1, 84715, Note_on_c, 0, 91, 83
1, 84715, Note_on_c, 0, 95, 97
1, 84718, Note_on_c, 0, 41, 99
1, 84774, Note_on_c, 0, 41, 0
1, 84794, Note_on_c, 0, 95, 0
1, 84794, Note_on_c, 0, 91, 0
1, 84794, Note_on_c, 0, 83, 99
1, 84797, Note_on_c, 0, 53, 101
1, 84854, Note_on_c, 0, 53, 0
1, 84874, Note_on_c, 0, 83, 0
1, 84874, Note_on_c, 0, 96, 100
1, 84874, Note_on_c, 0, 91, 86
1, 84877, Note_on_c, 0, 40, 102
1, 84881, Control_c, 0, 64, 0
1, 84933, Note_on_c, 0, 40, 0
1, 84940, Control_c, 0, 64, 127
1, 84954, Note_on_c, 0, 91, 0
1, 84954, Note_on_c, 0, 96, 0
1, 84954, Note_on_c, 0, 84, 102
1, 84957, Note_on_c, 0, 52, 103
1, 85014, Note_on_c, 0, 52, 0
1, 85034, Note_on_c, 0, 84, 0
1, 85034, Note_on_c, 0, 96, 103
1, 85034, Note_on_c, 0, 91, 89
1, 85037, Note_on_c, 0, 40, 104
1, 85095, Note_on_c, 0, 40, 0
1, 85115, Note_on_c, 0, 91, 0
1, 85115, Note_on_c, 0, 96, 0
1, 85115, Note_on_c, 0, 84, 104
1, 85118, Note_on_c, 0, 52, 106
1, 85176, Note_on_c, 0, 52, 0
1, 85196, Note_on_c, 0, 84, 0
1, 85196, Note_on_c, 0, 101, 104
1, 85196, Note_on_c, 0, 96, 89
1, 85199, Note_on_c, 0, 38, 107
1, 85199, Control_c, 0, 64, 0
1, 85257, Note_on_c, 0, 38, 0
1, 85264, Control_c, 0, 64, 127
1, 85278, Note_on_c, 0, 96, 0
1, 85278, Note_on_c, 0, 101, 0
1, 85278, Note_on_c, 0, 89, 104
1, 85281, Note_on_c, 0, 50, 104
1, 85339, Note_on_c, 0, 50, 0
1, 85360, Note_on_c, 0, 89, 0
1, 85360, Note_on_c, 0, 101, 104
1, 85360, Note_on_c, 0, 96, 89
1, 85363, Note_on_c, 0, 38, 107
1, 85421, Note_on_c, 0, 38, 0
1, 85441, Note_on_c, 0, 96, 0
1, 85441, Note_on_c, 0, 101, 0
1, 85441, Note_on_c, 0, 89, 104
1, 85444, Note_on_c, 0, 50, 102
1, 85502, Note_on_c, 0, 50, 0
1, 85523, Note_on_c, 0, 89, 0
1, 85523, Note_on_c, 0, 95, 89
1, 85523, Note_on_c, 0, 101, 104
1, 85526, Note_on_c, 0, 43, 107
1, 85530, Control_c, 0, 64, 0
1, 85557, Control_c, 0, 64, 127
1, 85585, Note_on_c, 0, 43, 0
1, 85607, Note_on_c, 0, 101, 0
1, 85607, Note_on_c, 0, 95, 0
1, 85607, Note_on_c, 0, 89, 104
1, 85610, Note_on_c, 0, 55, 102
1, 85672, Note_on_c, 0, 55, 0
1, 85694, Note_on_c, 0, 89, 0
1, 85694, Note_on_c, 0, 95, 89
1, 85694, Note_on_c, 0, 101, 104
1, 85697, Note_on_c, 0, 43, 102
1, 85762, Note_on_c, 0, 43, 0
1, 85785, Note_on_c, 0, 101, 0
1, 85785, Note_on_c, 0, 95, 0
1, 85785, Note_on_c, 0, 89, 104
1, 85788, Note_on_c, 0, 55, 102
1, 85857, Note_on_c, 0, 55, 0
1, 85881, Note_on_c, 0, 89, 0
1, 85881, Note_on_c, 0, 88, 90
1, 85881, Note_on_c, 0, 95, 94
1, 85884, Note_on_c, 0, 100, 109
1, 85884, Control_c, 0, 64, 0
1, 85884, Note_on_c, 0, 44, 92
1, 85887, Note_on_c, 0, 56, 111
1, 86189, Note_on_c, 0, 100, 0
1, 86189, Note_on_c, 0, 95, 0
1, 86189, Note_on_c, 0, 88, 0
1, 86192, Note_on_c, 0, 56, 0
1, 86192, Note_on_c, 0, 44, 0
1, 86217, Note_on_c, 0, 52, 89
1, 86217, Note_on_c, 0, 59, 89
1, 86217, Note_on_c, 0, 64, 104
1, 86220, Note_on_c, 0, 32, 88
1, 86220, Note_on_c, 0, 44, 102
1, 86301, Note_on_c, 0, 64, 0
1, 86301, Note_on_c, 0, 59, 0
1, 86301, Note_on_c, 0, 52, 0
1, 86304, Note_on_c, 0, 44, 0
1, 86304, Note_on_c, 0, 32, 0
1, 86328, Note_on_c, 0, 64, 98
1, 86328, Note_on_c, 0, 52, 84
1, 86328, Note_on_c, 0, 59, 84
1, 86331, Note_on_c, 0, 32, 83
1, 86331, Note_on_c, 0, 44, 96
1, 87192, Note_on_c, 0, 64, 0
1, 87192, Note_on_c, 0, 62, 75
1, 87624, Note_on_c, 0, 62, 0
1, 87624, Note_on_c, 0, 59, 0
1, 87624, Note_on_c, 0, 52, 0
1, 87627, Note_on_c, 0, 58, 45
1, 87627, Note_on_c, 0, 61, 52
1, 87627, Note_on_c, 0, 44, 0
1, 87630, Note_on_c, 0, 32, 0
1, 87630, Note_on_c, 0, 31, 44
1, 87679, Control_c, 0, 64, 127
1, 87708, Note_on_c, 0, 61, 0
1, 87708, Note_on_c, 0, 58, 0
1, 87708, Note_on_c, 0, 52, 52
1, 87711, Note_on_c, 0, 31, 0
1, 87711, Note_on_c, 0, 43, 44
1, 87791, Note_on_c, 0, 52, 0
1, 87791, Note_on_c, 0, 58, 46
1, 87791, Note_on_c, 0, 61, 53
1, 87794, Note_on_c, 0, 43, 0
1, 87794, Note_on_c, 0, 31, 45
1, 87873, Note_on_c, 0, 61, 0
1, 87873, Note_on_c, 0, 58, 0
1, 87873, Note_on_c, 0, 52, 53
1, 87876, Note_on_c, 0, 31, 0
1, 87876, Note_on_c, 0, 43, 45
1, 87955, Note_on_c, 0, 52, 0
1, 87955, Note_on_c, 0, 61, 54
1, 87955, Note_on_c, 0, 58, 47
1, 87958, Note_on_c, 0, 43, 0
1, 87958, Note_on_c, 0, 31, 46
1, 88037, Note_on_c, 0, 58, 0
1, 88037, Note_on_c, 0, 61, 0
1, 88037, Note_on_c, 0, 52, 55
1, 88040, Note_on_c, 0, 31, 0
1, 88040, Note_on_c, 0, 43, 46
1, 88118, Note_on_c, 0, 52, 0
1, 88118, Note_on_c, 0, 58, 48
1, 88118, Note_on_c, 0, 61, 55
1, 88121, Note_on_c, 0, 43, 0
1, 88121, Note_on_c, 0, 31, 47
1, 88199, Note_on_c, 0, 61, 0
1, 88199, Note_on_c, 0, 58, 0
1, 88199, Note_on_c, 0, 52, 56
1, 88202, Note_on_c, 0, 31, 0
1, 88202, Note_on_c, 0, 43, 47
1, 88280, Note_on_c, 0, 52, 0
1, 88280, Note_on_c, 0, 61, 49
1, 88280, Note_on_c, 0, 64, 56
1, 88283, Note_on_c, 0, 43, 0
1, 88283, Note_on_c, 0, 31, 48
1, 88361, Note_on_c, 0, 64, 0
1, 88361, Note_on_c, 0, 61, 0
1, 88361, Note_on_c, 0, 58, 57
1, 88364, Note_on_c, 0, 31, 0
1, 88364, Note_on_c, 0, 43, 48
1, 88441, Note_on_c, 0, 58, 0
1, 88441, Note_on_c, 0, 61, 49
1, 88441, Note_on_c, 0, 64, 57
1, 88444, Note_on_c, 0, 43, 0
1, 88444, Note_on_c, 0, 31, 49
1, 88520, Note_on_c, 0, 64, 0
1, 88520, Note_on_c, 0, 61, 0
1, 88520, Note_on_c, 0, 58, 58
1, 88523, Note_on_c, 0, 31, 0
1, 88523, Note_on_c, 0, 43, 49
1, 88600, Note_on_c, 0, 58, 0
1, 88600, Note_on_c, 0, 61, 50
1, 88600, Note_on_c, 0, 64, 58
1, 88603, Note_on_c, 0, 43, 0
1, 88603, Note_on_c, 0, 31, 50
1, 88679, Note_on_c, 0, 64, 0
1, 88679, Note_on_c, 0, 61, 0
1, 88679, Note_on_c, 0, 58, 59
1, 88682, Note_on_c, 0, 31, 0
1, 88682, Note_on_c, 0, 43, 50
1, 88757, Note_on_c, 0, 58, 0
1, 88757, Note_on_c, 0, 61, 52
1, 88757, Note_on_c, 0, 64, 60
1, 88760, Note_on_c, 0, 43, 0
1, 88760, Note_on_c, 0, 31, 51
1, 88836, Note_on_c, 0, 64, 0
1, 88836, Note_on_c, 0, 61, 0
1, 88836, Note_on_c, 0, 58, 60
1, 88839, Note_on_c, 0, 31, 0
1, 88839, Note_on_c, 0, 43, 51
1, 88914, Note_on_c, 0, 58, 0
1, 88914, Note_on_c, 0, 64, 52
1, 88914, Note_on_c, 0, 70, 60
1, 88917, Note_on_c, 0, 43, 0
1, 88917, Note_on_c, 0, 43, 56
1, 88917, Control_c, 0, 64, 0
1, 88934, Control_c, 0, 64, 127
1, 88991, Note_on_c, 0, 70, 0
1, 88991, Note_on_c, 0, 64, 0
1, 88991, Note_on_c, 0, 61, 62
1, 88994, Note_on_c, 0, 43, 0
1, 88994, Note_on_c, 0, 55, 53
1, 89068, Note_on_c, 0, 61, 0
1, 89068, Note_on_c, 0, 64, 55
1, 89068, Note_on_c, 0, 70, 64
1, 89071, Note_on_c, 0, 55, 0
1, 89071, Note_on_c, 0, 43, 55
1, 89144, Note_on_c, 0, 70, 0
1, 89144, Note_on_c, 0, 64, 0
1, 89144, Note_on_c, 0, 61, 66
1, 89147, Note_on_c, 0, 43, 0
1, 89147, Note_on_c, 0, 55, 57
1, 89220, Note_on_c, 0, 61, 0
1, 89220, Note_on_c, 0, 70, 61
1, 89220, Note_on_c, 0, 73, 71
1, 89223, Note_on_c, 0, 55, 0
1, 89223, Note_on_c, 0, 43, 59
1, 89296, Note_on_c, 0, 73, 0
1, 89296, Note_on_c, 0, 70, 0
1, 89296, Note_on_c, 0, 64, 74
1, 89299, Note_on_c, 0, 43, 0
1, 89299, Note_on_c, 0, 55, 61
1, 89372, Note_on_c, 0, 64, 0
1, 89372, Note_on_c, 0, 70, 66
1, 89372, Note_on_c, 0, 73, 76
1, 89375, Note_on_c, 0, 55, 0
1, 89375, Note_on_c, 0, 43, 63
1, 89447, Note_on_c, 0, 73, 0
1, 89447, Note_on_c, 0, 70, 0
1, 89447, Note_on_c, 0, 64, 80
1, 89450, Note_on_c, 0, 43, 0
1, 89450, Note_on_c, 0, 55, 66
1, 89522, Note_on_c, 0, 64, 0
1, 89522, Note_on_c, 0, 73, 71
1, 89522, Note_on_c, 0, 76, 82
1, 89525, Note_on_c, 0, 55, 0
1, 89525, Note_on_c, 0, 55, 67
1, 89538, Control_c, 0, 64, 0
1, 89552, Control_c, 0, 64, 127
1, 89596, Note_on_c, 0, 76, 0
1, 89596, Note_on_c, 0, 73, 0
1, 89596, Note_on_c, 0, 70, 85
1, 89599, Note_on_c, 0, 55, 0
1, 89599, Note_on_c, 0, 67, 69
1, 89671, Note_on_c, 0, 70, 0
1, 89671, Note_on_c, 0, 76, 75
1, 89671, Note_on_c, 0, 82, 88
1, 89674, Note_on_c, 0, 67, 0
1, 89674, Note_on_c, 0, 55, 71
1, 89745, Note_on_c, 0, 82, 0
1, 89745, Note_on_c, 0, 76, 0
1, 89745, Note_on_c, 0, 73, 91
1, 89748, Note_on_c, 0, 55, 0
1, 89748, Note_on_c, 0, 67, 73
1, 89818, Note_on_c, 0, 73, 0
1, 89818, Note_on_c, 0, 82, 80
1, 89818, Note_on_c, 0, 85, 93
1, 89821, Note_on_c, 0, 67, 0
1, 89821, Note_on_c, 0, 55, 75
1, 89892, Note_on_c, 0, 85, 0
1, 89892, Note_on_c, 0, 82, 0
1, 89892, Note_on_c, 0, 76, 97
1, 89895, Note_on_c, 0, 55, 0
1, 89895, Note_on_c, 0, 67, 78
1, 89965, Note_on_c, 0, 76, 0
1, 89965, Note_on_c, 0, 88, 99
1, 89965, Note_on_c, 0, 85, 85
1, 89968, Note_on_c, 0, 67, 0
1, 89968, Note_on_c, 0, 55, 80
1, 90038, Note_on_c, 0, 85, 0
1, 90038, Note_on_c, 0, 88, 0
1, 90038, Note_on_c, 0, 82, 102
1, 90041, Note_on_c, 0, 55, 0
1, 90041, Note_on_c, 0, 67, 82
1, 90150, Note_on_c, 0, 82, 0
1, 90150, Note_on_c, 0, 89, 114
1, 90150, Note_on_c, 0, 86, 98
1, 90153, Note_on_c, 0, 81, 98
1, 90153, Note_on_c, 0, 67, 0
1, 90153, Note_on_c, 0, 65, 95
1, 90156, Note_on_c, 0, 53, 82
1, 90156, Control_c, 0, 64, 0
1, 90281, Control_c, 0, 64, 127
1, 90486, Note_on_c, 0, 81, 0
1, 90486, Note_on_c, 0, 86, 0
1, 90486, Note_on_c, 0, 89, 0
1, 90489, Note_on_c, 0, 93, 109
1, 90489, Note_on_c, 0, 89, 93
1, 90489, Note_on_c, 0, 86, 93
1, 90492, Note_on_c, 0, 81, 93
1, 90492, Note_on_c, 0, 53, 0
1, 90492, Note_on_c, 0, 65, 0
1, 90495, Note_on_c, 0, 62, 93
1, 90495, Note_on_c, 0, 50, 81
1, 90495, Control_c, 0, 64, 0
1, 90642, Control_c, 0, 64, 127
1, 90836, Note_on_c, 0, 81, 0
1, 90836, Note_on_c, 0, 93, 0
1, 90836, Note_on_c, 0, 89, 0
1, 90839, Note_on_c, 0, 86, 0
1, 90839, Note_on_c, 0, 88, 114
1, 90839, Note_on_c, 0, 84, 98
1, 90842, Note_on_c, 0, 79, 98
1, 90842, Note_on_c, 0, 76, 98
1, 90842, Note_on_c, 0, 50, 0
1, 90845, Note_on_c, 0, 62, 0
1, 90845, Note_on_c, 0, 67, 96
1, 90845, Note_on_c, 0, 55, 83
1, 90848, Control_c, 0, 64, 0
1, 90949, Control_c, 0, 64, 127
1, 91174, Note_on_c, 0, 76, 0
1, 91174, Note_on_c, 0, 88, 0
1, 91174, Note_on_c, 0, 84, 0
1, 91177, Note_on_c, 0, 79, 0
1, 91177, Note_on_c, 0, 86, 111
1, 91177, Note_on_c, 0, 83, 94
1, 91180, Note_on_c, 0, 79, 94
1, 91180, Note_on_c, 0, 74, 94
1, 91180, Note_on_c, 0, 55, 0
1, 91183, Note_on_c, 0, 67, 0
1, 91183, Note_on_c, 0, 43, 80
1, 91183, Note_on_c, 0, 55, 92
1, 91186, Control_c, 0, 64, 0
1, 91294, Control_c, 0, 64, 127
1, 91535, Note_on_c, 0, 74, 0
1, 91535, Note_on_c, 0, 86, 0
1, 91535, Note_on_c, 0, 83, 0
1, 91538, Note_on_c, 0, 79, 0
1, 91538, Note_on_c, 0, 76, 99
1, 91538, Note_on_c, 0, 83, 102
1, 91541, Note_on_c, 0, 88, 118
1, 91541, Note_on_c, 0, 55, 0
1, 91541, Note_on_c, 0, 43, 0
1, 91544, Control_c, 0, 64, 0
1, 91544, Note_on_c, 0, 44, 92
1, 91544, Note_on_c, 0, 56, 109
1, 91808, Note_on_c, 0, 88, 0
1, 91808, Note_on_c, 0, 83, 0
1, 91808, Note_on_c, 0, 76, 0
1, 91811, Note_on_c, 0, 56, 0
1, 91811, Note_on_c, 0, 44, 0
1, 91833, Note_on_c, 0, 52, 95
1, 91833, Note_on_c, 0, 59, 95
1, 91833, Note_on_c, 0, 64, 110
1, 91836, Note_on_c, 0, 32, 89
1, 91836, Note_on_c, 0, 44, 104
1, 91907, Note_on_c, 0, 64, 0
1, 91907, Note_on_c, 0, 59, 0
1, 91907, Note_on_c, 0, 52, 0
1, 91910, Note_on_c, 0, 44, 0
1, 91910, Note_on_c, 0, 32, 0
1, 91932, Note_on_c, 0, 64, 104
1, 91932, Note_on_c, 0, 52, 89
1, 91932, Note_on_c, 0, 59, 89
1, 91935, Note_on_c, 0, 32, 80
1, 91935, Note_on_c, 0, 44, 93
1, 92727, Note_on_c, 0, 64, 0
1, 92727, Note_on_c, 0, 62, 75
1, 93125, Note_on_c, 0, 62, 0
1, 93125, Note_on_c, 0, 59, 0
1, 93125, Note_on_c, 0, 52, 0
1, 93128, Note_on_c, 0, 58, 45
1, 93128, Note_on_c, 0, 61, 52
1, 93128, Note_on_c, 0, 44, 0
1, 93131, Note_on_c, 0, 32, 0
1, 93131, Note_on_c, 0, 31, 44
1, 93179, Control_c, 0, 64, 127
1, 93208, Note_on_c, 0, 61, 0
1, 93208, Note_on_c, 0, 58, 0
1, 93208, Note_on_c, 0, 52, 52
1, 93211, Note_on_c, 0, 31, 0
1, 93211, Note_on_c, 0, 43, 44
1, 93291, Note_on_c, 0, 52, 0
1, 93291, Note_on_c, 0, 58, 46
1, 93291, Note_on_c, 0, 61, 53
1, 93294, Note_on_c, 0, 43, 0
1, 93294, Note_on_c, 0, 31, 45
1, 93374, Note_on_c, 0, 61, 0
1, 93374, Note_on_c, 0, 58, 0
1, 93374, Note_on_c, 0, 52, 53
1, 93377, Note_on_c, 0, 31, 0
1, 93377, Note_on_c, 0, 43, 45
1, 93456, Note_on_c, 0, 52, 0
1, 93456, Note_on_c, 0, 61, 54
1, 93456, Note_on_c, 0, 58, 47
1, 93459, Note_on_c, 0, 43, 0
1, 93459, Note_on_c, 0, 31, 46
1, 93537, Note_on_c, 0, 58, 0
1, 93537, Note_on_c, 0, 61, 0
1, 93537, Note_on_c, 0, 52, 55
1, 93540, Note_on_c, 0, 31, 0
1, 93540, Note_on_c, 0, 43, 46
1, 93619, Note_on_c, 0, 52, 0
1, 93619, Note_on_c, 0, 58, 48
1, 93619, Note_on_c, 0, 61, 55
1, 93622, Note_on_c, 0, 43, 0
1, 93622, Note_on_c, 0, 31, 47
1, 93700, Note_on_c, 0, 61, 0
1, 93700, Note_on_c, 0, 58, 0
1, 93700, Note_on_c, 0, 52, 56
1, 93703, Note_on_c, 0, 31, 0
1, 93703, Note_on_c, 0, 43, 47
1, 93781, Note_on_c, 0, 52, 0
1, 93781, Note_on_c, 0, 61, 49
1, 93781, Note_on_c, 0, 64, 56
1, 93784, Note_on_c, 0, 43, 0
1, 93784, Note_on_c, 0, 31, 48
1, 93861, Note_on_c, 0, 64, 0
1, 93861, Note_on_c, 0, 61, 0
1, 93861, Note_on_c, 0, 58, 57
1, 93864, Note_on_c, 0, 31, 0
1, 93864, Note_on_c, 0, 43, 48
1, 93941, Note_on_c, 0, 58, 0
1, 93941, Note_on_c, 0, 61, 49
1, 93941, Note_on_c, 0, 64, 57
1, 93944, Note_on_c, 0, 43, 0
1, 93944, Note_on_c, 0, 31, 49
1, 94021, Note_on_c, 0, 64, 0
1, 94021, Note_on_c, 0, 61, 0
1, 94021, Note_on_c, 0, 58, 58
1, 94024, Note_on_c, 0, 31, 0
1, 94024, Note_on_c, 0, 43, 49
1, 94100, Note_on_c, 0, 58, 0
1, 94100, Note_on_c, 0, 61, 50
1, 94100, Note_on_c, 0, 64, 58
1, 94103, Note_on_c, 0, 43, 0
1, 94103, Note_on_c, 0, 31, 50
1, 94179, Note_on_c, 0, 64, 0
1, 94179, Note_on_c, 0, 61, 0
1, 94179, Note_on_c, 0, 58, 59
1, 94182, Note_on_c, 0, 31, 0
1, 94182, Note_on_c, 0, 43, 50
1, 94258, Note_on_c, 0, 58, 0
1, 94258, Note_on_c, 0, 61, 52
1, 94258, Note_on_c, 0, 64, 60
1, 94261, Note_on_c, 0, 43, 0
1, 94261, Note_on_c, 0, 31, 51
1, 94336, Note_on_c, 0, 64, 0
1, 94336, Note_on_c, 0, 61, 0
1, 94336, Note_on_c, 0, 58, 60
1, 94339, Note_on_c, 0, 31, 0
1, 94339, Note_on_c, 0, 43, 51
1, 94414, Note_on_c, 0, 58, 0
1, 94414, Note_on_c, 0, 64, 52
1, 94414, Note_on_c, 0, 70, 60
1, 94417, Note_on_c, 0, 43, 0
1, 94417, Note_on_c, 0, 43, 56
1, 94421, Control_c, 0, 64, 0
1, 94434, Control_c, 0, 64, 127
1, 94491, Note_on_c, 0, 70, 0
1, 94491, Note_on_c, 0, 64, 0
1, 94491, Note_on_c, 0, 61, 62
1, 94494, Note_on_c, 0, 43, 0
1, 94494, Note_on_c, 0, 55, 53
1, 94568, Note_on_c, 0, 61, 0
1, 94568, Note_on_c, 0, 64, 55
1, 94568, Note_on_c, 0, 70, 64
1, 94571, Note_on_c, 0, 55, 0
1, 94571, Note_on_c, 0, 43, 55
1, 94645, Note_on_c, 0, 70, 0
1, 94645, Note_on_c, 0, 64, 0
1, 94645, Note_on_c, 0, 61, 66
1, 94648, Note_on_c, 0, 43, 0
1, 94648, Note_on_c, 0, 55, 57
1, 94721, Note_on_c, 0, 61, 0
1, 94721, Note_on_c, 0, 70, 61
1, 94721, Note_on_c, 0, 73, 71
1, 94724, Note_on_c, 0, 55, 0
1, 94724, Note_on_c, 0, 43, 59
1, 94797, Note_on_c, 0, 73, 0
1, 94797, Note_on_c, 0, 70, 0
1, 94797, Note_on_c, 0, 64, 74
1, 94800, Note_on_c, 0, 43, 0
1, 94800, Note_on_c, 0, 55, 61
1, 94872, Note_on_c, 0, 64, 0
1, 94872, Note_on_c, 0, 70, 66
1, 94872, Note_on_c, 0, 73, 76
1, 94875, Note_on_c, 0, 55, 0
1, 94875, Note_on_c, 0, 43, 63
1, 94948, Note_on_c, 0, 73, 0
1, 94948, Note_on_c, 0, 70, 0
1, 94948, Note_on_c, 0, 64, 80
1, 94951, Note_on_c, 0, 43, 0
1, 94951, Note_on_c, 0, 55, 66
1, 95022, Note_on_c, 0, 64, 0
1, 95022, Note_on_c, 0, 73, 71
1, 95022, Note_on_c, 0, 76, 82
1, 95025, Note_on_c, 0, 55, 0
1, 95025, Note_on_c, 0, 55, 67
1, 95039, Control_c, 0, 64, 0
1, 95053, Control_c, 0, 64, 127
1, 95097, Note_on_c, 0, 76, 0
1, 95097, Note_on_c, 0, 73, 0
1, 95097, Note_on_c, 0, 70, 85
1, 95100, Note_on_c, 0, 55, 0
1, 95100, Note_on_c, 0, 67, 69
1, 95171, Note_on_c, 0, 70, 0
1, 95171, Note_on_c, 0, 76, 75
1, 95171, Note_on_c, 0, 82, 88
1, 95174, Note_on_c, 0, 67, 0
1, 95174, Note_on_c, 0, 55, 71
1, 95245, Note_on_c, 0, 82, 0
1, 95245, Note_on_c, 0, 76, 0
1, 95245, Note_on_c, 0, 73, 91
1, 95248, Note_on_c, 0, 55, 0
1, 95248, Note_on_c, 0, 67, 73
1, 95319, Note_on_c, 0, 73, 0
1, 95319, Note_on_c, 0, 82, 80
1, 95319, Note_on_c, 0, 85, 93
1, 95322, Note_on_c, 0, 67, 0
1, 95322, Note_on_c, 0, 55, 75
1, 95392, Note_on_c, 0, 85, 0
1, 95392, Note_on_c, 0, 82, 0
1, 95392, Note_on_c, 0, 76, 97
1, 95395, Note_on_c, 0, 55, 0
1, 95395, Note_on_c, 0, 67, 78
1, 95465, Note_on_c, 0, 76, 0
1, 95465, Note_on_c, 0, 88, 99
1, 95465, Note_on_c, 0, 85, 85
1, 95468, Note_on_c, 0, 67, 0
1, 95468, Note_on_c, 0, 55, 80
1, 95538, Note_on_c, 0, 85, 0
1, 95538, Note_on_c, 0, 88, 0
1, 95538, Note_on_c, 0, 82, 102
1, 95541, Note_on_c, 0, 55, 0
1, 95541, Note_on_c, 0, 67, 82
1, 95650, Note_on_c, 0, 82, 0
1, 95650, Note_on_c, 0, 82, 92
1, 95650, Note_on_c, 0, 77, 92
1, 95653, Note_on_c, 0, 86, 92
1, 95653, Note_on_c, 0, 89, 108
1, 95653, Note_on_c, 0, 67, 0
1, 95656, Control_c, 0, 64, 0
1, 95656, Note_on_c, 0, 29, 82
1, 95656, Note_on_c, 0, 41, 96
1, 95692, Control_c, 0, 64, 127
1, 95891, Note_on_c, 0, 89, 0
1, 95891, Note_on_c, 0, 82, 0
1, 95891, Note_on_c, 0, 77, 0
1, 95894, Note_on_c, 0, 86, 0
1, 95894, Note_on_c, 0, 70, 81
1, 95894, Note_on_c, 0, 65, 81
1, 95897, Note_on_c, 0, 74, 94
1, 95897, Note_on_c, 0, 77, 94
1, 95897, Note_on_c, 0, 41, 0
1, 95900, Note_on_c, 0, 29, 0
1, 95900, Note_on_c, 0, 41, 74
1, 95900, Note_on_c, 0, 53, 85
1, 95947, Note_on_c, 0, 77, 0
1, 95947, Note_on_c, 0, 70, 0
1, 95947, Note_on_c, 0, 65, 0
1, 95950, Note_on_c, 0, 74, 0
1, 95950, Note_on_c, 0, 53, 0
1, 95950, Note_on_c, 0, 41, 0
1, 95965, Note_on_c, 0, 65, 84
1, 95965, Note_on_c, 0, 70, 84
1, 95965, Note_on_c, 0, 77, 98
1, 95968, Note_on_c, 0, 74, 98
1, 95968, Note_on_c, 0, 41, 75
1, 95968, Note_on_c, 0, 53, 86
1, 96070, Control_c, 0, 64, 0
1, 96262, Note_on_c, 0, 74, 0
1, 96262, Note_on_c, 0, 65, 0
1, 96262, Note_on_c, 0, 70, 0
1, 96265, Note_on_c, 0, 77, 0
1, 96265, Note_on_c, 0, 82, 92
1, 96265, Note_on_c, 0, 76, 92
1, 96268, Note_on_c, 0, 85, 92
1, 96268, Note_on_c, 0, 88, 107
1, 96268, Note_on_c, 0, 53, 0
1, 96271, Note_on_c, 0, 41, 0
1, 96271, Note_on_c, 0, 31, 82
1, 96271, Note_on_c, 0, 43, 96
1, 96344, Control_c, 0, 64, 127
1, 96500, Note_on_c, 0, 88, 0
1, 96500, Note_on_c, 0, 82, 0
1, 96500, Note_on_c, 0, 76, 0
1, 96503, Note_on_c, 0, 85, 0
1, 96503, Note_on_c, 0, 70, 84
1, 96503, Note_on_c, 0, 64, 84
1, 96506, Note_on_c, 0, 73, 84
1, 96506, Note_on_c, 0, 76, 98
1, 96506, Note_on_c, 0, 43, 0
1, 96509, Note_on_c, 0, 31, 0
1, 96509, Note_on_c, 0, 43, 73
1, 96509, Note_on_c, 0, 55, 84
1, 96556, Note_on_c, 0, 76, 0
1, 96556, Note_on_c, 0, 70, 0
1, 96556, Note_on_c, 0, 64, 0
1, 96559, Note_on_c, 0, 73, 0
1, 96559, Note_on_c, 0, 55, 0
1, 96559, Note_on_c, 0, 43, 0
1, 96575, Note_on_c, 0, 64, 86
1, 96575, Note_on_c, 0, 70, 86
1, 96575, Note_on_c, 0, 76, 101
1, 96578, Note_on_c, 0, 73, 86
1, 96578, Note_on_c, 0, 43, 73
1, 96578, Note_on_c, 0, 55, 84
1, 96745, Control_c, 0, 64, 0
1, 96874, Note_on_c, 0, 73, 0
1, 96874, Note_on_c, 0, 64, 0
1, 96874, Note_on_c, 0, 70, 0
1, 96877, Note_on_c, 0, 76, 0
1, 96877, Note_on_c, 0, 78, 97
1, 96877, Note_on_c, 0, 75, 97
1, 96880, Note_on_c, 0, 84, 97
1, 96880, Note_on_c, 0, 87, 112
1, 96880, Note_on_c, 0, 55, 0
1, 96883, Note_on_c, 0, 43, 0
1, 96883, Note_on_c, 0, 33, 86
1, 96883, Note_on_c, 0, 45, 100
1, 96934, Control_c, 0, 64, 127
1, 97112, Note_on_c, 0, 87, 0
1, 97112, Note_on_c, 0, 78, 0
1, 97112, Note_on_c, 0, 75, 0
1, 97115, Note_on_c, 0, 84, 0
1, 97115, Note_on_c, 0, 66, 87
1, 97115, Note_on_c, 0, 63, 87
1, 97118, Note_on_c, 0, 72, 87
1, 97118, Note_on_c, 0, 75, 102
1, 97118, Note_on_c, 0, 45, 0
1, 97121, Note_on_c, 0, 33, 0
1, 97121, Note_on_c, 0, 45, 75
1, 97121, Note_on_c, 0, 57, 86
1, 97168, Note_on_c, 0, 75, 0
1, 97168, Note_on_c, 0, 66, 0
1, 97168, Note_on_c, 0, 63, 0
1, 97171, Note_on_c, 0, 72, 0
1, 97171, Note_on_c, 0, 57, 0
1, 97171, Note_on_c, 0, 45, 0
1, 97187, Note_on_c, 0, 63, 87
1, 97187, Note_on_c, 0, 66, 87
1, 97187, Note_on_c, 0, 75, 102
1, 97190, Note_on_c, 0, 72, 87
1, 97190, Note_on_c, 0, 45, 75
1, 97190, Note_on_c, 0, 57, 86
1, 97335, Control_c, 0, 64, 0
1, 97490, Note_on_c, 0, 72, 0
1, 97490, Note_on_c, 0, 63, 0
1, 97490, Note_on_c, 0, 66, 0
1, 97493, Note_on_c, 0, 75, 0
1, 97493, Note_on_c, 0, 77, 99
1, 97493, Note_on_c, 0, 74, 99
1, 97496, Note_on_c, 0, 82, 99
1, 97496, Note_on_c, 0, 86, 116
1, 97496, Note_on_c, 0, 57, 0
1, 97499, Note_on_c, 0, 45, 0
1, 97499, Note_on_c, 0, 34, 86
1, 97499, Note_on_c, 0, 46, 101
1, 97573, Control_c, 0, 64, 127
1, 97729, Note_on_c, 0, 86, 0
1, 97729, Note_on_c, 0, 77, 0
1, 97729, Note_on_c, 0, 74, 0
1, 97732, Note_on_c, 0, 82, 0
1, 97732, Note_on_c, 0, 65, 90
1, 97732, Note_on_c, 0, 62, 90
1, 97735, Note_on_c, 0, 70, 90
1, 97735, Note_on_c, 0, 74, 105
1, 97735, Note_on_c, 0, 46, 0
1, 97738, Note_on_c, 0, 34, 0
1, 97738, Note_on_c, 0, 46, 75
1, 97738, Note_on_c, 0, 58, 87
1, 97786, Note_on_c, 0, 74, 0
1, 97786, Note_on_c, 0, 65, 0
1, 97786, Note_on_c, 0, 62, 0
1, 97789, Note_on_c, 0, 70, 0
1, 97789, Note_on_c, 0, 58, 0
1, 97789, Note_on_c, 0, 46, 0
1, 97805, Note_on_c, 0, 62, 90
1, 97805, Note_on_c, 0, 65, 90
1, 97805, Note_on_c, 0, 74, 105
1, 97808, Note_on_c, 0, 70, 90
1, 97808, Note_on_c, 0, 46, 77
1, 97808, Note_on_c, 0, 58, 89
1, 97969, Control_c, 0, 64, 0
1, 98111, Note_on_c, 0, 70, 0
1, 98111, Note_on_c, 0, 62, 0
1, 98111, Note_on_c, 0, 65, 0
1, 98114, Note_on_c, 0, 74, 0
1, 98114, Note_on_c, 0, 66, 96
1, 98114, Note_on_c, 0, 62, 96
1, 98117, Note_on_c, 0, 72, 96
1, 98117, Note_on_c, 0, 74, 111
1, 98117, Note_on_c, 0, 58, 0
1, 98120, Note_on_c, 0, 46, 0
1, 98120, Note_on_c, 0, 44, 85
1, 98120, Note_on_c, 0, 56, 99
1, 98147, Control_c, 0, 64, 127
1, 98351, Note_on_c, 0, 74, 0
1, 98351, Note_on_c, 0, 66, 0
1, 98351, Note_on_c, 0, 62, 0
1, 98354, Note_on_c, 0, 72, 0
1, 98354, Note_on_c, 0, 78, 87
1, 98354, Note_on_c, 0, 74, 87
1, 98357, Note_on_c, 0, 84, 87
1, 98357, Note_on_c, 0, 86, 102
1, 98357, Note_on_c, 0, 56, 0
1, 98360, Note_on_c, 0, 44, 0
1, 98360, Note_on_c, 0, 32, 74
1, 98360, Note_on_c, 0, 44, 85
1, 98408, Note_on_c, 0, 86, 0
1, 98408, Note_on_c, 0, 78, 0
1, 98408, Note_on_c, 0, 74, 0
1, 98411, Note_on_c, 0, 84, 0
1, 98411, Note_on_c, 0, 44, 0
1, 98411, Note_on_c, 0, 32, 0
1, 98427, Note_on_c, 0, 74, 97
1, 98427, Note_on_c, 0, 78, 97
1, 98427, Note_on_c, 0, 86, 113
1, 98430, Note_on_c, 0, 84, 97
1, 98430, Note_on_c, 0, 32, 83
1, 98430, Note_on_c, 0, 44, 97
1, 98588, Control_c, 0, 64, 0
1, 98734, Note_on_c, 0, 84, 0
1, 98734, Note_on_c, 0, 74, 0
1, 98734, Note_on_c, 0, 78, 0
1, 98737, Note_on_c, 0, 86, 0
1, 98737, Note_on_c, 0, 67, 92
1, 98737, Note_on_c, 0, 62, 92
1, 98740, Note_on_c, 0, 71, 92
1, 98740, Note_on_c, 0, 74, 107
1, 98740, Note_on_c, 0, 44, 0
1, 98743, Note_on_c, 0, 32, 0
1, 98743, Note_on_c, 0, 43, 82
1, 98743, Note_on_c, 0, 55, 96
1, 98798, Control_c, 0, 64, 127
1, 98978, Note_on_c, 0, 74, 0
1, 98978, Note_on_c, 0, 67, 0
1, 98978, Note_on_c, 0, 62, 0
1, 98981, Note_on_c, 0, 71, 0
1, 98981, Note_on_c, 0, 79, 89
1, 98981, Note_on_c, 0, 74, 89
1, 98984, Note_on_c, 0, 83, 89
1, 98984, Note_on_c, 0, 86, 105
1, 98984, Note_on_c, 0, 55, 0
1, 98987, Note_on_c, 0, 43, 0
1, 98987, Note_on_c, 0, 31, 73
1, 98987, Note_on_c, 0, 43, 84
1, 99036, Note_on_c, 0, 86, 0
1, 99036, Note_on_c, 0, 79, 0
1, 99036, Note_on_c, 0, 74, 0
1, 99039, Note_on_c, 0, 83, 0
1, 99039, Note_on_c, 0, 43, 0
1, 99039, Note_on_c, 0, 31, 0
1, 99055, Note_on_c, 0, 74, 94
1, 99055, Note_on_c, 0, 79, 94
1, 99055, Note_on_c, 0, 86, 109
1, 99058, Note_on_c, 0, 83, 94
1, 99058, Note_on_c, 0, 31, 82
1, 99058, Note_on_c, 0, 43, 96
1, 99255, Control_c, 0, 64, 0
1, 99374, Note_on_c, 0, 83, 0
1, 99374, Note_on_c, 0, 74, 0
1, 99374, Note_on_c, 0, 79, 0
1, 99377, Note_on_c, 0, 86, 0
1, 99377, Note_on_c, 0, 67, 92
1, 99377, Note_on_c, 0, 64, 92
1, 99380, Note_on_c, 0, 72, 92
1, 99380, Note_on_c, 0, 76, 108
1, 99380, Note_on_c, 0, 43, 0
1, 99383, Note_on_c, 0, 31, 0
1, 99383, Note_on_c, 0, 43, 80
1, 99383, Note_on_c, 0, 55, 92
1, 99455, Control_c, 0, 64, 127
1, 99631, Note_on_c, 0, 76, 0
1, 99631, Note_on_c, 0, 67, 0
1, 99631, Note_on_c, 0, 64, 0
1, 99634, Note_on_c, 0, 72, 0
1, 99634, Note_on_c, 0, 79, 85
1, 99634, Note_on_c, 0, 76, 85
1, 99637, Note_on_c, 0, 84, 85
1, 99637, Note_on_c, 0, 88, 99
1, 99637, Note_on_c, 0, 55, 0
1, 99640, Note_on_c, 0, 43, 0
1, 99640, Note_on_c, 0, 31, 74
1, 99640, Note_on_c, 0, 43, 86
1, 99692, Note_on_c, 0, 88, 0
1, 99692, Note_on_c, 0, 79, 0
1, 99692, Note_on_c, 0, 76, 0
1, 99695, Note_on_c, 0, 84, 0
1, 99695, Note_on_c, 0, 43, 0
1, 99695, Note_on_c, 0, 31, 0
1, 99713, Note_on_c, 0, 76, 96
1, 99713, Note_on_c, 0, 79, 96
1, 99713, Note_on_c, 0, 88, 112
1, 99716, Note_on_c, 0, 84, 96
1, 99716, Note_on_c, 0, 31, 84
1, 99716, Note_on_c, 0, 43, 98
1, 99855, Control_c, 0, 64, 0
1, 100076, Note_on_c, 0, 84, 0
1, 100076, Note_on_c, 0, 76, 0
1, 100076, Note_on_c, 0, 79, 0
1, 100079, Note_on_c, 0, 88, 0
1, 100079, Note_on_c, 0, 71, 96
1, 100079, Note_on_c, 0, 67, 96
1, 100082, Note_on_c, 0, 77, 96
1, 100082, Note_on_c, 0, 79, 111
1, 100082, Note_on_c, 0, 43, 0
1, 100085, Note_on_c, 0, 31, 0
1, 100085, Note_on_c, 0, 43, 82
1, 100085, Note_on_c, 0, 55, 95
1, 100168, Control_c, 0, 64, 127
1, 100353, Note_on_c, 0, 79, 0
1, 100353, Note_on_c, 0, 71, 0
1, 100353, Note_on_c, 0, 67, 0
1, 100356, Note_on_c, 0, 77, 0
1, 100356, Note_on_c, 0, 83, 90
1, 100356, Note_on_c, 0, 79, 90
1, 100359, Note_on_c, 0, 89, 90
1, 100359, Note_on_c, 0, 91, 106
1, 100359, Note_on_c, 0, 55, 0
1, 100362, Note_on_c, 0, 43, 0
1, 100362, Note_on_c, 0, 31, 76
1, 100362, Note_on_c, 0, 43, 88
1, 100433, Note_on_c, 0, 91, 0
1, 100433, Note_on_c, 0, 83, 0
1, 100433, Note_on_c, 0, 79, 0
1, 100436, Note_on_c, 0, 89, 0
1, 100436, Note_on_c, 0, 43, 0
1, 100436, Note_on_c, 0, 31, 0
1, 100460, Note_on_c, 0, 79, 96
1, 100460, Note_on_c, 0, 83, 96
1, 100460, Note_on_c, 0, 91, 113
1, 100463, Note_on_c, 0, 89, 96
1, 100463, Note_on_c, 0, 31, 87
1, 100463, Note_on_c, 0, 43, 102
1, 100696, Control_c, 0, 64, 0
1, 101059, Note_on_c, 0, 89, 0
1, 101059, Note_on_c, 0, 79, 0
1, 101059, Note_on_c, 0, 83, 0
1, 101062, Note_on_c, 0, 91, 0
1, 101062, Note_on_c, 0, 55, 60
1, 101062, Note_on_c, 0, 43, 0
1, 101065, Note_on_c, 0, 31, 0
1, 101065, Note_on_c, 0, 35, 52
1, 101065, Note_on_c, 0, 47, 60
1, 101117, Note_on_c, 0, 47, 0
1, 101117, Note_on_c, 0, 35, 0
1, 101136, Note_on_c, 0, 67, 56
1, 101149, Note_on_c, 0, 55, 0
1, 101214, Note_on_c, 0, 62, 56
1, 101214, Note_on_c, 0, 38, 53
1, 101214, Note_on_c, 0, 50, 61
1, 101227, Note_on_c, 0, 67, 0
1, 101271, Note_on_c, 0, 50, 0
1, 101271, Note_on_c, 0, 38, 0
1, 101290, Note_on_c, 0, 59, 56
1, 101303, Note_on_c, 0, 62, 0
1, 101366, Note_on_c, 0, 62, 60
1, 101366, Note_on_c, 0, 43, 55
1, 101366, Note_on_c, 0, 55, 63
1, 101379, Note_on_c, 0, 59, 0
1, 101423, Note_on_c, 0, 55, 0
1, 101423, Note_on_c, 0, 43, 0
1, 101442, Note_on_c, 0, 74, 56
1, 101455, Note_on_c, 0, 62, 0
1, 101519, Note_on_c, 0, 71, 56
1, 101519, Note_on_c, 0, 41, 53
1, 101519, Note_on_c, 0, 53, 61
1, 101531, Note_on_c, 0, 74, 0
1, 101576, Note_on_c, 0, 53, 0
1, 101576, Note_on_c, 0, 41, 0
1, 101595, Note_on_c, 0, 67, 56
1, 101607, Note_on_c, 0, 71, 0
1, 101671, Note_on_c, 0, 72, 61
1, 101671, Note_on_c, 0, 76, 61
1, 101671, Note_on_c, 0, 40, 54
1, 101674, Note_on_c, 0, 52, 62
1, 101684, Note_on_c, 0, 67, 0
1, 101729, Note_on_c, 0, 52, 0
1, 101729, Note_on_c, 0, 40, 0
1, 101748, Note_on_c, 0, 64, 57
1, 101761, Note_on_c, 0, 76, 0
1, 101761, Note_on_c, 0, 72, 0
1, 101825, Note_on_c, 0, 74, 61
1, 101825, Note_on_c, 0, 77, 61
1, 101825, Note_on_c, 0, 36, 52
1, 101828, Note_on_c, 0, 48, 60
1, 101838, Note_on_c, 0, 64, 0
1, 101883, Note_on_c, 0, 48, 0
1, 101883, Note_on_c, 0, 36, 0
1, 101902, Note_on_c, 0, 65, 57
1, 101915, Note_on_c, 0, 77, 0
1, 101915, Note_on_c, 0, 74, 0
1, 101980, Note_on_c, 0, 76, 63
1, 101980, Note_on_c, 0, 79, 63
1, 101980, Note_on_c, 0, 35, 52
1, 101983, Note_on_c, 0, 47, 60
1, 101992, Note_on_c, 0, 65, 0
1, 102038, Note_on_c, 0, 47, 0
1, 102038, Note_on_c, 0, 35, 0
1, 102057, Note_on_c, 0, 67, 57
1, 102070, Note_on_c, 0, 79, 0
1, 102070, Note_on_c, 0, 76, 0
1, 102134, Note_on_c, 0, 77, 63
1, 102134, Note_on_c, 0, 81, 63
1, 102134, Note_on_c, 0, 33, 52
1, 102137, Note_on_c, 0, 45, 60
1, 102147, Note_on_c, 0, 67, 0
1, 102192, Note_on_c, 0, 45, 0
1, 102192, Note_on_c, 0, 33, 0
1, 102211, Note_on_c, 0, 69, 58
1, 102224, Note_on_c, 0, 81, 0
1, 102224, Note_on_c, 0, 77, 0
1, 102288, Note_on_c, 0, 74, 61
1, 102288, Note_on_c, 0, 79, 61
1, 102288, Note_on_c, 0, 83, 61
1, 102291, Note_on_c, 0, 41, 64
1, 102301, Note_on_c, 0, 69, 0
1, 102321, Control_c, 0, 64, 127
1, 102366, Note_on_c, 0, 74, 0
1, 102366, Note_on_c, 0, 79, 0
1, 102366, Note_on_c, 0, 83, 0
1, 102369, Note_on_c, 0, 71, 63
1, 102369, Note_on_c, 0, 41, 0
1, 102369, Note_on_c, 0, 53, 66
1, 102443, Note_on_c, 0, 71, 0
1, 102443, Note_on_c, 0, 74, 65
1, 102443, Note_on_c, 0, 79, 65
1, 102446, Note_on_c, 0, 83, 65
1, 102446, Note_on_c, 0, 53, 0
1, 102446, Note_on_c, 0, 41, 67
1, 102520, Note_on_c, 0, 83, 0
1, 102520, Note_on_c, 0, 79, 0
1, 102520, Note_on_c, 0, 74, 0
1, 102523, Note_on_c, 0, 71, 66
1, 102523, Note_on_c, 0, 41, 0
1, 102523, Note_on_c, 0, 53, 69
1, 102597, Note_on_c, 0, 71, 0
1, 102597, Note_on_c, 0, 79, 68
1, 102597, Note_on_c, 0, 84, 68
1, 102600, Note_on_c, 0, 53, 0
1, 102600, Note_on_c, 0, 40, 70
1, 102603, Control_c, 0, 64, 0
1, 102633, Control_c, 0, 64, 127
1, 102673, Note_on_c, 0, 84, 0
1, 102673, Note_on_c, 0, 79, 0
1, 102673, Note_on_c, 0, 72, 70
1, 102676, Note_on_c, 0, 40, 0
1, 102676, Note_on_c, 0, 52, 72
1, 102750, Note_on_c, 0, 72, 0
1, 102750, Note_on_c, 0, 84, 72
1, 102750, Note_on_c, 0, 79, 72
1, 102753, Note_on_c, 0, 52, 0
1, 102753, Note_on_c, 0, 40, 73
1, 102826, Note_on_c, 0, 79, 0
1, 102826, Note_on_c, 0, 84, 0
1, 102826, Note_on_c, 0, 72, 73
1, 102829, Note_on_c, 0, 40, 0
1, 102829, Note_on_c, 0, 52, 75
1, 102903, Note_on_c, 0, 72, 0
1, 102903, Note_on_c, 0, 89, 75
1, 102903, Note_on_c, 0, 84, 75
1, 102906, Note_on_c, 0, 52, 0
1, 102906, Note_on_c, 0, 38, 76
1, 102909, Control_c, 0, 64, 0
1, 102954, Control_c, 0, 64, 127
1, 102979, Note_on_c, 0, 84, 0
1, 102979, Note_on_c, 0, 89, 0
1, 102979, Note_on_c, 0, 77, 75
1, 102982, Note_on_c, 0, 38, 0
1, 102982, Note_on_c, 0, 50, 76
1, 103055, Note_on_c, 0, 77, 0
1, 103055, Note_on_c, 0, 89, 76
1, 103055, Note_on_c, 0, 84, 76
1, 103058, Note_on_c, 0, 50, 0
1, 103058, Note_on_c, 0, 38, 77
1, 103131, Note_on_c, 0, 84, 0
1, 103131, Note_on_c, 0, 89, 0
1, 103131, Note_on_c, 0, 77, 76
1, 103134, Note_on_c, 0, 38, 0
1, 103134, Note_on_c, 0, 50, 78
1, 103207, Note_on_c, 0, 77, 0
1, 103207, Note_on_c, 0, 89, 77
1, 103207, Note_on_c, 0, 83, 77
1, 103210, Note_on_c, 0, 50, 0
1, 103210, Note_on_c, 0, 32, 79
1, 103283, Note_on_c, 0, 83, 0
1, 103283, Note_on_c, 0, 89, 0
1, 103283, Note_on_c, 0, 77, 77
1, 103286, Note_on_c, 0, 32, 0
1, 103286, Note_on_c, 0, 44, 79
1, 103359, Note_on_c, 0, 77, 0
1, 103359, Note_on_c, 0, 89, 78
1, 103359, Note_on_c, 0, 83, 78
1, 103362, Note_on_c, 0, 44, 0
1, 103362, Note_on_c, 0, 32, 80
1, 103436, Note_on_c, 0, 83, 0
1, 103436, Note_on_c, 0, 89, 0
1, 103436, Note_on_c, 0, 77, 78
1, 103439, Note_on_c, 0, 32, 0
1, 103439, Note_on_c, 0, 44, 81
1, 103513, Note_on_c, 0, 77, 0
1, 103513, Note_on_c, 0, 57, 70
1, 103513, Note_on_c, 0, 44, 0
1, 103516, Control_c, 0, 64, 0
1, 103516, Note_on_c, 0, 33, 60
1, 103516, Note_on_c, 0, 45, 70
1, 103571, Note_on_c, 0, 45, 0
1, 103571, Note_on_c, 0, 33, 0
1, 103590, Note_on_c, 0, 69, 65
1, 103603, Note_on_c, 0, 57, 0
1, 103668, Note_on_c, 0, 64, 65
1, 103668, Note_on_c, 0, 40, 61
1, 103668, Note_on_c, 0, 52, 71
1, 103680, Note_on_c, 0, 69, 0
1, 103724, Note_on_c, 0, 52, 0
1, 103724, Note_on_c, 0, 40, 0
1, 103743, Note_on_c, 0, 61, 65
1, 103756, Note_on_c, 0, 64, 0
1, 103819, Note_on_c, 0, 64, 70
1, 103819, Note_on_c, 0, 45, 64
1, 103819, Note_on_c, 0, 57, 73
1, 103831, Note_on_c, 0, 61, 0
1, 103875, Note_on_c, 0, 57, 0
1, 103875, Note_on_c, 0, 45, 0
1, 103894, Note_on_c, 0, 76, 65
1, 103907, Note_on_c, 0, 64, 0
1, 103969, Note_on_c, 0, 73, 65
1, 103969, Note_on_c, 0, 43, 61
1, 103969, Note_on_c, 0, 55, 71
1, 103982, Note_on_c, 0, 76, 0
1, 104026, Note_on_c, 0, 55, 0
1, 104026, Note_on_c, 0, 43, 0
1, 104045, Note_on_c, 0, 69, 65
1, 104057, Note_on_c, 0, 73, 0
1, 104120, Note_on_c, 0, 74, 61
1, 104120, Note_on_c, 0, 77, 71
1, 104120, Note_on_c, 0, 41, 62
1, 104123, Note_on_c, 0, 53, 72
1, 104133, Note_on_c, 0, 69, 0
1, 104178, Note_on_c, 0, 53, 0
1, 104178, Note_on_c, 0, 41, 0
1, 104197, Note_on_c, 0, 65, 66
1, 104210, Note_on_c, 0, 77, 0
1, 104210, Note_on_c, 0, 74, 0
1, 104273, Note_on_c, 0, 76, 61
1, 104273, Note_on_c, 0, 79, 71
1, 104273, Note_on_c, 0, 38, 60
1, 104276, Note_on_c, 0, 50, 70
1, 104286, Note_on_c, 0, 65, 0
1, 104331, Note_on_c, 0, 50, 0
1, 104331, Note_on_c, 0, 38, 0
1, 104350, Note_on_c, 0, 67, 66
1, 104363, Note_on_c, 0, 79, 0
1, 104363, Note_on_c, 0, 76, 0
1, 104427, Note_on_c, 0, 77, 63
1, 104427, Note_on_c, 0, 81, 73
1, 104427, Note_on_c, 0, 36, 60
1, 104430, Note_on_c, 0, 48, 70
1, 104440, Note_on_c, 0, 67, 0
1, 104484, Note_on_c, 0, 48, 0
1, 104484, Note_on_c, 0, 36, 0
1, 104503, Note_on_c, 0, 69, 66
1, 104516, Note_on_c, 0, 81, 0
1, 104516, Note_on_c, 0, 77, 0
1, 104580, Note_on_c, 0, 79, 63
1, 104580, Note_on_c, 0, 82, 73
1, 104580, Note_on_c, 0, 34, 60
1, 104583, Note_on_c, 0, 46, 70
1, 104593, Note_on_c, 0, 69, 0
1, 104638, Note_on_c, 0, 46, 0
1, 104638, Note_on_c, 0, 34, 0
1, 104657, Note_on_c, 0, 70, 67
1, 104670, Note_on_c, 0, 82, 0
1, 104670, Note_on_c, 0, 79, 0
1, 104733, Note_on_c, 0, 76, 61
1, 104733, Note_on_c, 0, 81, 61
1, 104733, Note_on_c, 0, 85, 71
1, 104736, Note_on_c, 0, 43, 71
1, 104746, Note_on_c, 0, 70, 0
1, 104766, Control_c, 0, 64, 127
1, 104810, Note_on_c, 0, 76, 0
1, 104810, Note_on_c, 0, 81, 0
1, 104810, Note_on_c, 0, 85, 0
1, 104813, Note_on_c, 0, 73, 72
1, 104813, Note_on_c, 0, 43, 0
1, 104813, Note_on_c, 0, 55, 72
1, 104886, Note_on_c, 0, 73, 0
1, 104886, Note_on_c, 0, 76, 64
1, 104886, Note_on_c, 0, 81, 64
1, 104889, Note_on_c, 0, 85, 74
1, 104889, Note_on_c, 0, 55, 0
1, 104889, Note_on_c, 0, 43, 74
1, 104962, Note_on_c, 0, 85, 0
1, 104962, Note_on_c, 0, 81, 0
1, 104962, Note_on_c, 0, 76, 0
1, 104965, Note_on_c, 0, 73, 76
1, 104965, Note_on_c, 0, 43, 0
1, 104965, Note_on_c, 0, 55, 76
1, 105038, Note_on_c, 0, 73, 0
1, 105038, Note_on_c, 0, 81, 66
1, 105038, Note_on_c, 0, 86, 77
1, 105041, Note_on_c, 0, 55, 0
1, 105041, Note_on_c, 0, 41, 77
1, 105044, Control_c, 0, 64, 0
1, 105074, Control_c, 0, 64, 127
1, 105113, Note_on_c, 0, 86, 0
1, 105113, Note_on_c, 0, 81, 0
1, 105113, Note_on_c, 0, 74, 79
1, 105116, Note_on_c, 0, 41, 0
1, 105116, Note_on_c, 0, 53, 79
1, 105189, Note_on_c, 0, 74, 0
1, 105189, Note_on_c, 0, 86, 80
1, 105189, Note_on_c, 0, 81, 69
1, 105192, Note_on_c, 0, 53, 0
1, 105192, Note_on_c, 0, 41, 81
1, 105265, Note_on_c, 0, 81, 0
1, 105265, Note_on_c, 0, 86, 0
1, 105265, Note_on_c, 0, 74, 82
1, 105268, Note_on_c, 0, 41, 0
1, 105268, Note_on_c, 0, 53, 83
1, 105340, Note_on_c, 0, 74, 0
1, 105340, Note_on_c, 0, 91, 84
1, 105340, Note_on_c, 0, 86, 72
1, 105343, Note_on_c, 0, 53, 0
1, 105343, Note_on_c, 0, 40, 86
1, 105346, Control_c, 0, 64, 0
1, 105390, Control_c, 0, 64, 127
1, 105415, Note_on_c, 0, 86, 0
1, 105415, Note_on_c, 0, 91, 0
1, 105415, Note_on_c, 0, 79, 80
1, 105418, Note_on_c, 0, 40, 0
1, 105418, Note_on_c, 0, 52, 82
1, 105491, Note_on_c, 0, 79, 0
1, 105491, Note_on_c, 0, 91, 84
1, 105491, Note_on_c, 0, 86, 72
1, 105494, Note_on_c, 0, 52, 0
1, 105494, Note_on_c, 0, 40, 86
1, 105566, Note_on_c, 0, 86, 0
1, 105566, Note_on_c, 0, 91, 0
1, 105566, Note_on_c, 0, 79, 80
1, 105569, Note_on_c, 0, 40, 0
1, 105569, Note_on_c, 0, 52, 81
1, 105641, Note_on_c, 0, 79, 0
1, 105641, Note_on_c, 0, 91, 84
1, 105641, Note_on_c, 0, 85, 72
1, 105644, Note_on_c, 0, 52, 0
1, 105644, Note_on_c, 0, 33, 86
1, 105716, Note_on_c, 0, 85, 0
1, 105716, Note_on_c, 0, 91, 0
1, 105716, Note_on_c, 0, 79, 80
1, 105719, Note_on_c, 0, 33, 0
1, 105719, Note_on_c, 0, 45, 82
1, 105791, Note_on_c, 0, 79, 0
1, 105791, Note_on_c, 0, 91, 84
1, 105791, Note_on_c, 0, 85, 72
1, 105794, Note_on_c, 0, 45, 0
1, 105794, Note_on_c, 0, 33, 86
1, 105867, Note_on_c, 0, 85, 0
1, 105867, Note_on_c, 0, 91, 0
1, 105867, Note_on_c, 0, 79, 80
1, 105870, Note_on_c, 0, 33, 0
1, 105870, Note_on_c, 0, 45, 81
1, 105942, Note_on_c, 0, 79, 0
1, 105942, Note_on_c, 0, 62, 89
1, 105942, Note_on_c, 0, 45, 0
1, 105945, Control_c, 0, 64, 0
1, 105945, Note_on_c, 0, 38, 81
1, 105945, Note_on_c, 0, 50, 94
1, 105989, Control_c, 0, 64, 127
1, 106019, Note_on_c, 0, 62, 0
1, 106019, Note_on_c, 0, 74, 80
1, 106095, Note_on_c, 0, 74, 0
1, 106095, Note_on_c, 0, 69, 80
1, 106095, Note_on_c, 0, 50, 0
1, 106098, Note_on_c, 0, 38, 0
1, 106098, Note_on_c, 0, 45, 75
1, 106098, Note_on_c, 0, 57, 87
1, 106169, Note_on_c, 0, 69, 0
1, 106169, Note_on_c, 0, 66, 80
1, 106237, Control_c, 0, 64, 0
1, 106244, Note_on_c, 0, 66, 0
1, 106244, Note_on_c, 0, 69, 89
1, 106244, Note_on_c, 0, 57, 0
1, 106247, Note_on_c, 0, 45, 0
1, 106247, Note_on_c, 0, 50, 82
1, 106247, Note_on_c, 0, 62, 95
1, 106299, Note_on_c, 0, 62, 0
1, 106299, Note_on_c, 0, 50, 0
1, 106318, Note_on_c, 0, 69, 0
1, 106318, Note_on_c, 0, 81, 80
1, 106392, Note_on_c, 0, 81, 0
1, 106392, Note_on_c, 0, 78, 80
1, 106392, Note_on_c, 0, 48, 74
1, 106395, Note_on_c, 0, 60, 86
1, 106448, Note_on_c, 0, 60, 0
1, 106448, Note_on_c, 0, 48, 0
1, 106467, Note_on_c, 0, 78, 0
1, 106467, Note_on_c, 0, 74, 81
1, 106541, Note_on_c, 0, 74, 0
1, 106541, Note_on_c, 0, 79, 77
1, 106541, Note_on_c, 0, 83, 89
1, 106544, Note_on_c, 0, 47, 79
1, 106544, Note_on_c, 0, 59, 92
1, 106548, Control_c, 0, 64, 127
1, 106617, Note_on_c, 0, 83, 0
1, 106617, Note_on_c, 0, 79, 0
1, 106617, Note_on_c, 0, 71, 82
1, 106694, Note_on_c, 0, 71, 0
1, 106694, Note_on_c, 0, 81, 77
1, 106694, Note_on_c, 0, 84, 89
1, 106697, Note_on_c, 0, 59, 0
1, 106697, Note_on_c, 0, 47, 0
1, 106697, Note_on_c, 0, 43, 72
1, 106700, Note_on_c, 0, 55, 84
1, 106770, Note_on_c, 0, 84, 0
1, 106770, Note_on_c, 0, 81, 0
1, 106770, Note_on_c, 0, 72, 83
1, 106843, Control_c, 0, 64, 0
1, 106847, Note_on_c, 0, 72, 0
1, 106847, Note_on_c, 0, 83, 78
1, 106847, Note_on_c, 0, 86, 90
1, 106850, Note_on_c, 0, 55, 0
1, 106850, Note_on_c, 0, 43, 0
1, 106850, Note_on_c, 0, 42, 73
1, 106853, Note_on_c, 0, 54, 85
1, 106904, Note_on_c, 0, 54, 0
1, 106904, Note_on_c, 0, 42, 0
1, 106923, Note_on_c, 0, 86, 0
1, 106923, Note_on_c, 0, 83, 0
1, 106923, Note_on_c, 0, 74, 81
1, 107000, Note_on_c, 0, 74, 0
1, 107000, Note_on_c, 0, 84, 77
1, 107000, Note_on_c, 0, 88, 89
1, 107003, Note_on_c, 0, 40, 73
1, 107003, Note_on_c, 0, 52, 85
1, 107057, Note_on_c, 0, 52, 0
1, 107057, Note_on_c, 0, 40, 0
1, 107076, Note_on_c, 0, 88, 0
1, 107076, Note_on_c, 0, 84, 0
1, 107076, Note_on_c, 0, 76, 82
1, 107152, Note_on_c, 0, 76, 0
1, 107152, Note_on_c, 0, 81, 70
1, 107152, Note_on_c, 0, 86, 70
1, 107155, Note_on_c, 0, 90, 81
1, 107155, Note_on_c, 0, 48, 76
1, 107185, Control_c, 0, 64, 127
1, 107229, Note_on_c, 0, 90, 0
1, 107229, Note_on_c, 0, 86, 0
1, 107229, Note_on_c, 0, 81, 0
1, 107232, Note_on_c, 0, 78, 82
1, 107232, Note_on_c, 0, 48, 0
1, 107232, Note_on_c, 0, 60, 77
1, 107306, Note_on_c, 0, 78, 0
1, 107306, Note_on_c, 0, 81, 72
1, 107306, Note_on_c, 0, 86, 72
1, 107309, Note_on_c, 0, 90, 83
1, 107309, Note_on_c, 0, 60, 0
1, 107309, Note_on_c, 0, 48, 78
1, 107383, Note_on_c, 0, 90, 0
1, 107383, Note_on_c, 0, 86, 0
1, 107383, Note_on_c, 0, 81, 0
1, 107386, Note_on_c, 0, 78, 84
1, 107386, Note_on_c, 0, 48, 0
1, 107386, Note_on_c, 0, 60, 79
1, 107460, Note_on_c, 0, 78, 0
1, 107460, Note_on_c, 0, 86, 73
1, 107460, Note_on_c, 0, 91, 85
1, 107463, Note_on_c, 0, 60, 0
1, 107463, Note_on_c, 0, 47, 81
1, 107466, Control_c, 0, 64, 0
1, 107496, Control_c, 0, 64, 127
1, 107536, Note_on_c, 0, 91, 0
1, 107536, Note_on_c, 0, 86, 0
1, 107536, Note_on_c, 0, 79, 86
1, 107539, Note_on_c, 0, 47, 0
1, 107539, Note_on_c, 0, 59, 82
1, 107613, Note_on_c, 0, 79, 0
1, 107613, Note_on_c, 0, 91, 87
1, 107613, Note_on_c, 0, 86, 75
1, 107616, Note_on_c, 0, 59, 0
1, 107616, Note_on_c, 0, 47, 83
1, 107689, Note_on_c, 0, 86, 0
1, 107689, Note_on_c, 0, 91, 0
1, 107689, Note_on_c, 0, 79, 88
1, 107692, Note_on_c, 0, 47, 0
1, 107692, Note_on_c, 0, 59, 84
1, 107765, Note_on_c, 0, 79, 0
1, 107765, Note_on_c, 0, 96, 92
1, 107765, Note_on_c, 0, 91, 79
1, 107768, Note_on_c, 0, 59, 0
1, 107768, Note_on_c, 0, 45, 85
1, 107772, Control_c, 0, 64, 0
1, 107816, Control_c, 0, 64, 127
1, 107841, Note_on_c, 0, 91, 0
1, 107841, Note_on_c, 0, 96, 0
1, 107841, Note_on_c, 0, 84, 85
1, 107844, Note_on_c, 0, 45, 0
1, 107844, Note_on_c, 0, 57, 83
1, 107917, Note_on_c, 0, 84, 0
1, 107917, Note_on_c, 0, 96, 90
1, 107917, Note_on_c, 0, 91, 78
1, 107920, Note_on_c, 0, 57, 0
1, 107920, Note_on_c, 0, 45, 88
1, 107993, Note_on_c, 0, 91, 0
1, 107993, Note_on_c, 0, 96, 0
1, 107993, Note_on_c, 0, 84, 84
1, 107996, Note_on_c, 0, 45, 0
1, 107996, Note_on_c, 0, 57, 81
1, 108069, Note_on_c, 0, 84, 0
1, 108069, Note_on_c, 0, 96, 90
1, 108069, Note_on_c, 0, 90, 78
1, 108072, Note_on_c, 0, 57, 0
1, 108072, Note_on_c, 0, 38, 88
1, 108144, Note_on_c, 0, 90, 0
1, 108144, Note_on_c, 0, 96, 0
1, 108144, Note_on_c, 0, 84, 85
1, 108147, Note_on_c, 0, 38, 0
1, 108147, Note_on_c, 0, 50, 80
1, 108220, Note_on_c, 0, 84, 0
1, 108220, Note_on_c, 0, 96, 89
1, 108220, Note_on_c, 0, 90, 77
1, 108223, Note_on_c, 0, 50, 0
1, 108223, Note_on_c, 0, 38, 86
1, 108297, Note_on_c, 0, 90, 0
1, 108297, Note_on_c, 0, 96, 0
1, 108297, Note_on_c, 0, 84, 84
1, 108300, Note_on_c, 0, 38, 0
1, 108300, Note_on_c, 0, 50, 80
1, 108374, Note_on_c, 0, 84, 0
1, 108374, Note_on_c, 0, 67, 89
1, 108374, Note_on_c, 0, 50, 0
1, 108377, Control_c, 0, 64, 0
1, 108377, Note_on_c, 0, 43, 81
1, 108377, Note_on_c, 0, 55, 94
1, 108422, Control_c, 0, 64, 127
1, 108452, Note_on_c, 0, 67, 0
1, 108452, Note_on_c, 0, 79, 80
1, 108529, Note_on_c, 0, 79, 0
1, 108529, Note_on_c, 0, 74, 80
1, 108529, Note_on_c, 0, 55, 0
1, 108532, Note_on_c, 0, 43, 0
1, 108532, Note_on_c, 0, 50, 75
1, 108532, Note_on_c, 0, 62, 87
1, 108605, Note_on_c, 0, 74, 0
1, 108605, Note_on_c, 0, 71, 80
1, 108680, Note_on_c, 0, 71, 0
1, 108680, Note_on_c, 0, 74, 89
1, 108680, Note_on_c, 0, 62, 0
1, 108683, Note_on_c, 0, 50, 0
1, 108683, Note_on_c, 0, 55, 82
1, 108683, Note_on_c, 0, 67, 95
1, 108687, Control_c, 0, 64, 0
1, 108711, Control_c, 0, 64, 127
1, 108756, Note_on_c, 0, 74, 0
1, 108756, Note_on_c, 0, 86, 80
1, 108832, Note_on_c, 0, 86, 0
1, 108832, Note_on_c, 0, 83, 80
1, 108832, Note_on_c, 0, 67, 0
1, 108835, Note_on_c, 0, 55, 0
1, 108835, Note_on_c, 0, 53, 74
1, 108835, Note_on_c, 0, 65, 86
1, 108907, Note_on_c, 0, 83, 0
1, 108907, Note_on_c, 0, 79, 81
1, 108983, Note_on_c, 0, 79, 0
1, 108983, Note_on_c, 0, 84, 77
1, 108983, Note_on_c, 0, 88, 89
1, 108986, Note_on_c, 0, 65, 0
1, 108986, Note_on_c, 0, 53, 0
1, 108986, Note_on_c, 0, 52, 79
1, 108989, Note_on_c, 0, 64, 92
1, 108989, Control_c, 0, 64, 0
1, 109010, Control_c, 0, 64, 127
1, 109060, Note_on_c, 0, 88, 0
1, 109060, Note_on_c, 0, 84, 0
1, 109060, Note_on_c, 0, 76, 82
1, 109137, Note_on_c, 0, 76, 0
1, 109137, Note_on_c, 0, 86, 77
1, 109137, Note_on_c, 0, 89, 89
1, 109140, Note_on_c, 0, 64, 0
1, 109140, Note_on_c, 0, 52, 0
1, 109140, Note_on_c, 0, 48, 72
1, 109143, Note_on_c, 0, 60, 84
1, 109214, Note_on_c, 0, 89, 0
1, 109214, Note_on_c, 0, 86, 0
1, 109214, Note_on_c, 0, 77, 83
1, 109288, Control_c, 0, 64, 0
1, 109292, Note_on_c, 0, 77, 0
1, 109292, Note_on_c, 0, 88, 78
1, 109292, Note_on_c, 0, 91, 90
1, 109295, Note_on_c, 0, 60, 0
1, 109295, Note_on_c, 0, 48, 0
1, 109295, Note_on_c, 0, 47, 73
1, 109298, Note_on_c, 0, 59, 85
1, 109333, Control_c, 0, 64, 127
1, 109369, Note_on_c, 0, 91, 0
1, 109369, Note_on_c, 0, 88, 0
1, 109369, Note_on_c, 0, 79, 81
1, 109446, Note_on_c, 0, 79, 0
1, 109446, Note_on_c, 0, 89, 77
1, 109446, Note_on_c, 0, 93, 89
1, 109449, Note_on_c, 0, 59, 0
1, 109449, Note_on_c, 0, 47, 0
1, 109449, Note_on_c, 0, 45, 73
1, 109452, Note_on_c, 0, 57, 85
1, 109523, Note_on_c, 0, 93, 0
1, 109523, Note_on_c, 0, 89, 0
1, 109523, Note_on_c, 0, 81, 82
1, 109600, Note_on_c, 0, 81, 0
1, 109600, Note_on_c, 0, 86, 70
1, 109600, Note_on_c, 0, 91, 70
1, 109603, Note_on_c, 0, 95, 81
1, 109603, Note_on_c, 0, 57, 0
1, 109603, Note_on_c, 0, 45, 0
1, 109606, Note_on_c, 0, 53, 76
1, 109606, Control_c, 0, 64, 0
1, 109655, Control_c, 0, 64, 127
1, 109678, Note_on_c, 0, 95, 0
1, 109678, Note_on_c, 0, 91, 0
1, 109678, Note_on_c, 0, 86, 0
1, 109681, Note_on_c, 0, 83, 82
1, 109681, Note_on_c, 0, 53, 0
1, 109681, Note_on_c, 0, 65, 77
1, 109756, Note_on_c, 0, 83, 0
1, 109756, Note_on_c, 0, 86, 72
1, 109756, Note_on_c, 0, 91, 72
1, 109759, Note_on_c, 0, 95, 83
1, 109759, Note_on_c, 0, 65, 0
1, 109759, Note_on_c, 0, 53, 78
1, 109833, Note_on_c, 0, 95, 0
1, 109833, Note_on_c, 0, 91, 0
1, 109833, Note_on_c, 0, 86, 0
1, 109836, Note_on_c, 0, 83, 84
1, 109836, Note_on_c, 0, 53, 0
1, 109836, Note_on_c, 0, 65, 79
1, 109910, Note_on_c, 0, 83, 0
1, 109910, Note_on_c, 0, 91, 73
1, 109910, Note_on_c, 0, 96, 85
1, 109913, Note_on_c, 0, 65, 0
1, 109913, Note_on_c, 0, 52, 81
1, 109917, Control_c, 0, 64, 0
1, 109947, Control_c, 0, 64, 127
1, 109989, Note_on_c, 0, 96, 0
1, 109989, Note_on_c, 0, 91, 0
1, 109989, Note_on_c, 0, 84, 86
1, 109992, Note_on_c, 0, 52, 0
1, 109992, Note_on_c, 0, 64, 82
1, 110069, Note_on_c, 0, 84, 0
1, 110069, Note_on_c, 0, 96, 87
1, 110069, Note_on_c, 0, 91, 75
1, 110072, Note_on_c, 0, 64, 0
1, 110072, Note_on_c, 0, 52, 83
1, 110151, Note_on_c, 0, 91, 0
1, 110151, Note_on_c, 0, 96, 0
1, 110151, Note_on_c, 0, 84, 88
1, 110154, Note_on_c, 0, 52, 0
1, 110154, Note_on_c, 0, 64, 84
1, 110257, Note_on_c, 0, 84, 0
1, 110257, Note_on_c, 0, 101, 92
1, 110257, Note_on_c, 0, 96, 79
1, 110260, Note_on_c, 0, 64, 0
1, 110260, Note_on_c, 0, 50, 85
1, 110263, Control_c, 0, 64, 0
1, 110310, Control_c, 0, 64, 127
1, 110337, Note_on_c, 0, 96, 0
1, 110337, Note_on_c, 0, 101, 0
1, 110337, Note_on_c, 0, 89, 85
1, 110340, Note_on_c, 0, 50, 0
1, 110340, Note_on_c, 0, 62, 83
1, 110417, Note_on_c, 0, 89, 0
1, 110417, Note_on_c, 0, 101, 92
1, 110417, Note_on_c, 0, 96, 80
1, 110420, Note_on_c, 0, 62, 0
1, 110420, Note_on_c, 0, 50, 90
1, 110497, Note_on_c, 0, 96, 0
1, 110497, Note_on_c, 0, 101, 0
1, 110497, Note_on_c, 0, 89, 87
1, 110500, Note_on_c, 0, 50, 0
1, 110500, Note_on_c, 0, 62, 84
1, 110577, Note_on_c, 0, 89, 0
1, 110577, Note_on_c, 0, 101, 95
1, 110577, Note_on_c, 0, 95, 82
1, 110580, Note_on_c, 0, 62, 0
1, 110580, Note_on_c, 0, 43, 93
1, 110658, Note_on_c, 0, 95, 0
1, 110658, Note_on_c, 0, 101, 0
1, 110658, Note_on_c, 0, 89, 91
1, 110661, Note_on_c, 0, 43, 0
1, 110661, Note_on_c, 0, 55, 85
1, 110738, Note_on_c, 0, 89, 0
1, 110738, Note_on_c, 0, 101, 96
1, 110738, Note_on_c, 0, 95, 83
1, 110741, Note_on_c, 0, 55, 0
1, 110741, Note_on_c, 0, 43, 93
1, 110818, Note_on_c, 0, 95, 0
1, 110818, Note_on_c, 0, 101, 0
1, 110818, Note_on_c, 0, 89, 92
1, 110821, Note_on_c, 0, 43, 0
1, 110821, Note_on_c, 0, 55, 88
1, 110898, Note_on_c, 0, 89, 0
1, 110898, Note_on_c, 0, 100, 88
1, 110898, Note_on_c, 0, 95, 76
1, 110901, Note_on_c, 0, 55, 0
1, 110901, Note_on_c, 0, 48, 74
1, 110901, Control_c, 0, 64, 0
1, 110924, Control_c, 0, 64, 127
1, 110975, Note_on_c, 0, 95, 0
1, 110975, Note_on_c, 0, 100, 0
1, 110975, Note_on_c, 0, 88, 80
1, 110978, Note_on_c, 0, 48, 0
1, 110978, Note_on_c, 0, 60, 64
1, 111051, Note_on_c, 0, 88, 0
1, 111051, Note_on_c, 0, 100, 87
1, 111051, Note_on_c, 0, 95, 75
1, 111054, Note_on_c, 0, 60, 0
1, 111054, Note_on_c, 0, 48, 74
1, 111127, Note_on_c, 0, 95, 0
1, 111127, Note_on_c, 0, 100, 0
1, 111127, Note_on_c, 0, 88, 80
1, 111130, Note_on_c, 0, 48, 0
1, 111130, Note_on_c, 0, 60, 63
1, 111203, Note_on_c, 0, 88, 0
1, 111203, Note_on_c, 0, 100, 85
1, 111203, Note_on_c, 0, 93, 74
1, 111206, Note_on_c, 0, 60, 0
1, 111206, Note_on_c, 0, 41, 74
1, 111209, Control_c, 0, 64, 0
1, 111258, Control_c, 0, 64, 127
1, 111279, Note_on_c, 0, 93, 0
1, 111279, Note_on_c, 0, 100, 0
1, 111279, Note_on_c, 0, 88, 78
1, 111282, Note_on_c, 0, 41, 0
1, 111282, Note_on_c, 0, 53, 65
1, 111355, Note_on_c, 0, 88, 0
1, 111355, Note_on_c, 0, 100, 82
1, 111355, Note_on_c, 0, 93, 70
1, 111358, Note_on_c, 0, 53, 0
1, 111358, Note_on_c, 0, 41, 74
1, 111431, Note_on_c, 0, 93, 0
1, 111431, Note_on_c, 0, 100, 0
1, 111431, Note_on_c, 0, 88, 77
1, 111434, Note_on_c, 0, 41, 0
1, 111434, Note_on_c, 0, 53, 64
1, 111508, Note_on_c, 0, 88, 0
1, 111508, Note_on_c, 0, 98, 84
1, 111508, Note_on_c, 0, 93, 73
1, 111511, Note_on_c, 0, 53, 0
1, 111511, Note_on_c, 0, 47, 74
1, 111514, Control_c, 0, 64, 0
1, 111536, Control_c, 0, 64, 127
1, 111583, Note_on_c, 0, 93, 0
1, 111583, Note_on_c, 0, 98, 0
1, 111583, Note_on_c, 0, 86, 78
1, 111586, Note_on_c, 0, 47, 0
1, 111586, Note_on_c, 0, 59, 64
1, 111658, Note_on_c, 0, 86, 0
1, 111658, Note_on_c, 0, 98, 84
1, 111658, Note_on_c, 0, 93, 73
1, 111661, Note_on_c, 0, 59, 0
1, 111661, Note_on_c, 0, 47, 74
1, 111734, Note_on_c, 0, 93, 0
1, 111734, Note_on_c, 0, 98, 0
1, 111734, Note_on_c, 0, 86, 77
1, 111737, Note_on_c, 0, 47, 0
1, 111737, Note_on_c, 0, 59, 64
1, 111809, Note_on_c, 0, 86, 0
1, 111809, Note_on_c, 0, 98, 84
1, 111809, Note_on_c, 0, 92, 73
1, 111812, Note_on_c, 0, 59, 0
1, 111812, Note_on_c, 0, 40, 74
1, 111815, Control_c, 0, 64, 0
1, 111856, Control_c, 0, 64, 127
1, 111884, Note_on_c, 0, 92, 0
1, 111884, Note_on_c, 0, 98, 0
1, 111884, Note_on_c, 0, 86, 76
1, 111887, Note_on_c, 0, 40, 0
1, 111887, Note_on_c, 0, 52, 63
1, 111960, Note_on_c, 0, 86, 0
1, 111960, Note_on_c, 0, 98, 84
1, 111960, Note_on_c, 0, 92, 73
1, 111963, Note_on_c, 0, 52, 0
1, 111963, Note_on_c, 0, 40, 74
1, 112035, Note_on_c, 0, 92, 0
1, 112035, Note_on_c, 0, 98, 0
1, 112035, Note_on_c, 0, 86, 78
1, 112038, Note_on_c, 0, 40, 0
1, 112038, Note_on_c, 0, 52, 65
1, 112111, Note_on_c, 0, 86, 0
1, 112111, Note_on_c, 0, 96, 84
1, 112111, Note_on_c, 0, 93, 73
1, 112114, Note_on_c, 0, 52, 0
1, 112114, Note_on_c, 0, 41, 74
1, 112114, Control_c, 0, 64, 0
1, 112164, Control_c, 0, 64, 127
1, 112186, Note_on_c, 0, 93, 0
1, 112186, Note_on_c, 0, 96, 0
1, 112186, Note_on_c, 0, 84, 78
1, 112189, Note_on_c, 0, 41, 0
1, 112189, Note_on_c, 0, 53, 66
1, 112261, Note_on_c, 0, 84, 0
1, 112261, Note_on_c, 0, 96, 84
1, 112261, Note_on_c, 0, 93, 73
1, 112264, Note_on_c, 0, 53, 0
1, 112264, Note_on_c, 0, 41, 74
1, 112336, Note_on_c, 0, 93, 0
1, 112336, Note_on_c, 0, 96, 0
1, 112336, Note_on_c, 0, 84, 77
1, 112339, Note_on_c, 0, 41, 0
1, 112339, Note_on_c, 0, 53, 64
1, 112411, Note_on_c, 0, 84, 0
1, 112411, Note_on_c, 0, 89, 75
1, 112411, Note_on_c, 0, 93, 75
1, 112414, Note_on_c, 0, 98, 87
1, 112414, Note_on_c, 0, 53, 0
1, 112414, Note_on_c, 0, 50, 77
1, 112417, Note_on_c, 0, 45, 66
1, 112417, Note_on_c, 0, 41, 66
1, 112417, Control_c, 0, 64, 0
1, 112467, Control_c, 0, 64, 127
1, 112484, Note_on_c, 0, 98, 0
1, 112484, Note_on_c, 0, 93, 0
1, 112484, Note_on_c, 0, 89, 0
1, 112487, Note_on_c, 0, 86, 80
1, 112487, Note_on_c, 0, 41, 0
1, 112487, Note_on_c, 0, 45, 0
1, 112490, Note_on_c, 0, 50, 0
1, 112490, Note_on_c, 0, 53, 69
1, 112558, Note_on_c, 0, 86, 0
1, 112558, Note_on_c, 0, 98, 86
1, 112558, Note_on_c, 0, 93, 75
1, 112561, Note_on_c, 0, 89, 75
1, 112561, Note_on_c, 0, 53, 0
1, 112561, Note_on_c, 0, 41, 66
1, 112564, Note_on_c, 0, 45, 66
1, 112564, Note_on_c, 0, 50, 77
1, 112632, Note_on_c, 0, 89, 0
1, 112632, Note_on_c, 0, 93, 0
1, 112632, Note_on_c, 0, 98, 0
1, 112635, Note_on_c, 0, 86, 80
1, 112635, Note_on_c, 0, 50, 0
1, 112635, Note_on_c, 0, 45, 0
1, 112638, Note_on_c, 0, 41, 0
1, 112638, Note_on_c, 0, 53, 67
1, 112706, Note_on_c, 0, 86, 0
1, 112706, Note_on_c, 0, 96, 84
1, 112706, Note_on_c, 0, 91, 73
1, 112709, Note_on_c, 0, 88, 73
1, 112709, Note_on_c, 0, 53, 0
1, 112709, Note_on_c, 0, 43, 63
1, 112712, Note_on_c, 0, 48, 63
1, 112712, Note_on_c, 0, 52, 74
1, 112712, Control_c, 0, 64, 0
1, 112754, Control_c, 0, 64, 127
1, 112780, Note_on_c, 0, 88, 0
1, 112780, Note_on_c, 0, 91, 0
1, 112780, Note_on_c, 0, 96, 0
1, 112783, Note_on_c, 0, 84, 78
1, 112783, Note_on_c, 0, 52, 0
1, 112783, Note_on_c, 0, 48, 0
1, 112786, Note_on_c, 0, 43, 0
1, 112786, Note_on_c, 0, 55, 67
1, 112855, Note_on_c, 0, 84, 0
1, 112855, Note_on_c, 0, 96, 84
1, 112855, Note_on_c, 0, 91, 73
1, 112858, Note_on_c, 0, 88, 73
1, 112858, Note_on_c, 0, 55, 0
1, 112858, Note_on_c, 0, 43, 63
1, 112861, Note_on_c, 0, 48, 63
1, 112861, Note_on_c, 0, 52, 74
1, 112929, Note_on_c, 0, 88, 0
1, 112929, Note_on_c, 0, 91, 0
1, 112929, Note_on_c, 0, 96, 0
1, 112932, Note_on_c, 0, 84, 78
1, 112932, Note_on_c, 0, 52, 0
1, 112932, Note_on_c, 0, 48, 0
1, 112935, Note_on_c, 0, 43, 0
1, 112935, Note_on_c, 0, 55, 66
1, 113003, Note_on_c, 0, 84, 0
1, 113003, Note_on_c, 0, 95, 84
1, 113003, Note_on_c, 0, 91, 73
1, 113006, Note_on_c, 0, 86, 73
1, 113006, Note_on_c, 0, 55, 0
1, 113006, Note_on_c, 0, 43, 63
1, 113009, Note_on_c, 0, 47, 63
1, 113009, Note_on_c, 0, 50, 74
1, 113009, Control_c, 0, 64, 0
1, 113065, Control_c, 0, 64, 127
1, 113078, Note_on_c, 0, 86, 0
1, 113078, Note_on_c, 0, 91, 0
1, 113078, Note_on_c, 0, 95, 0
1, 113081, Note_on_c, 0, 83, 79
1, 113081, Note_on_c, 0, 50, 0
1, 113081, Note_on_c, 0, 47, 0
1, 113084, Note_on_c, 0, 43, 0
1, 113084, Note_on_c, 0, 55, 67
1, 113153, Note_on_c, 0, 83, 0
1, 113153, Note_on_c, 0, 95, 84
1, 113153, Note_on_c, 0, 91, 73
1, 113156, Note_on_c, 0, 86, 73
1, 113156, Note_on_c, 0, 55, 0
1, 113156, Note_on_c, 0, 43, 63
1, 113159, Note_on_c, 0, 47, 63
1, 113159, Note_on_c, 0, 50, 74
1, 113229, Note_on_c, 0, 86, 0
1, 113229, Note_on_c, 0, 91, 0
1, 113229, Note_on_c, 0, 95, 0
1, 113232, Note_on_c, 0, 83, 78
1, 113232, Note_on_c, 0, 50, 0
1, 113232, Note_on_c, 0, 47, 0
1, 113235, Note_on_c, 0, 43, 0
1, 113235, Note_on_c, 0, 55, 67
1, 113304, Note_on_c, 0, 83, 0
1, 113304, Note_on_c, 0, 84, 73
1, 113304, Note_on_c, 0, 88, 73
1, 113307, Note_on_c, 0, 91, 84
1, 113307, Note_on_c, 0, 55, 0
1, 113307, Note_on_c, 0, 60, 74
1, 113310, Note_on_c, 0, 55, 63
1, 113310, Note_on_c, 0, 52, 63
1, 113310, Control_c, 0, 64, 0
1, 113353, Control_c, 0, 64, 127
1, 113380, Note_on_c, 0, 91, 0
1, 113380, Note_on_c, 0, 88, 0
1, 113380, Note_on_c, 0, 84, 0
1, 113383, Note_on_c, 0, 79, 76
1, 113383, Note_on_c, 0, 52, 0
1, 113383, Note_on_c, 0, 55, 0
1, 113386, Note_on_c, 0, 60, 0
1, 113386, Note_on_c, 0, 64, 65
1, 113455, Note_on_c, 0, 79, 0
1, 113455, Note_on_c, 0, 91, 84
1, 113455, Note_on_c, 0, 88, 73
1, 113458, Note_on_c, 0, 84, 73
1, 113458, Note_on_c, 0, 64, 0
1, 113458, Note_on_c, 0, 60, 74
1, 113461, Note_on_c, 0, 55, 63
1, 113461, Note_on_c, 0, 52, 63
1, 113531, Note_on_c, 0, 84, 0
1, 113531, Note_on_c, 0, 88, 0
1, 113531, Note_on_c, 0, 91, 0
1, 113534, Note_on_c, 0, 79, 76
1, 113534, Note_on_c, 0, 52, 0
1, 113534, Note_on_c, 0, 55, 0
1, 113537, Note_on_c, 0, 60, 0
1, 113537, Note_on_c, 0, 64, 65
1, 113607, Note_on_c, 0, 79, 0
1, 113607, Note_on_c, 0, 81, 75
1, 113607, Note_on_c, 0, 86, 75
1, 113610, Note_on_c, 0, 89, 87
1, 113610, Note_on_c, 0, 64, 0
1, 113610, Note_on_c, 0, 62, 77
1, 113613, Note_on_c, 0, 57, 66
1, 113613, Note_on_c, 0, 53, 66
1, 113613, Control_c, 0, 64, 0
1, 113661, Control_c, 0, 64, 127
1, 113684, Note_on_c, 0, 89, 0
1, 113684, Note_on_c, 0, 86, 0
1, 113684, Note_on_c, 0, 81, 0
1, 113687, Note_on_c, 0, 77, 79
1, 113687, Note_on_c, 0, 53, 0
1, 113687, Note_on_c, 0, 57, 0
1, 113690, Note_on_c, 0, 62, 0
1, 113690, Note_on_c, 0, 65, 68
1, 113761, Note_on_c, 0, 77, 0
1, 113761, Note_on_c, 0, 89, 86
1, 113761, Note_on_c, 0, 86, 75
1, 113764, Note_on_c, 0, 81, 75
1, 113764, Note_on_c, 0, 65, 0
1, 113764, Note_on_c, 0, 62, 77
1, 113767, Note_on_c, 0, 57, 66
1, 113767, Note_on_c, 0, 53, 66
1, 113838, Note_on_c, 0, 81, 0
1, 113838, Note_on_c, 0, 86, 0
1, 113838, Note_on_c, 0, 89, 0
1, 113841, Note_on_c, 0, 77, 80
1, 113841, Note_on_c, 0, 53, 0
1, 113841, Note_on_c, 0, 57, 0
1, 113844, Note_on_c, 0, 62, 0
1, 113844, Note_on_c, 0, 65, 66
1, 113915, Note_on_c, 0, 77, 0
1, 113915, Note_on_c, 0, 79, 76
1, 113915, Note_on_c, 0, 84, 76
1, 113918, Note_on_c, 0, 88, 88
1, 113918, Note_on_c, 0, 65, 0
1, 113918, Note_on_c, 0, 64, 81
1, 113921, Note_on_c, 0, 60, 69
1, 113921, Note_on_c, 0, 55, 69
1, 113921, Control_c, 0, 64, 0
1, 113974, Control_c, 0, 64, 127
1, 113992, Note_on_c, 0, 88, 0
1, 113992, Note_on_c, 0, 84, 0
1, 113992, Note_on_c, 0, 79, 0
1, 113995, Note_on_c, 0, 76, 81
1, 113995, Note_on_c, 0, 55, 0
1, 113995, Note_on_c, 0, 60, 0
1, 113998, Note_on_c, 0, 64, 0
1, 113998, Note_on_c, 0, 67, 71
1, 114070, Note_on_c, 0, 76, 0
1, 114070, Note_on_c, 0, 79, 77
1, 114070, Note_on_c, 0, 84, 77
1, 114073, Note_on_c, 0, 88, 89
1, 114073, Note_on_c, 0, 67, 0
1, 114073, Note_on_c, 0, 64, 80
1, 114076, Note_on_c, 0, 60, 68
1, 114076, Note_on_c, 0, 55, 68
1, 114149, Note_on_c, 0, 88, 0
1, 114149, Note_on_c, 0, 84, 0
1, 114149, Note_on_c, 0, 79, 0
1, 114152, Note_on_c, 0, 76, 80
1, 114152, Note_on_c, 0, 55, 0
1, 114152, Note_on_c, 0, 60, 0
1, 114155, Note_on_c, 0, 64, 0
1, 114155, Note_on_c, 0, 67, 69
1, 114229, Note_on_c, 0, 76, 0
1, 114229, Note_on_c, 0, 79, 77
1, 114229, Note_on_c, 0, 83, 77
1, 114232, Note_on_c, 0, 86, 89
1, 114232, Note_on_c, 0, 67, 0
1, 114232, Note_on_c, 0, 65, 81
1, 114235, Note_on_c, 0, 62, 69
1, 114235, Note_on_c, 0, 55, 69
1, 114235, Control_c, 0, 64, 0
1, 114286, Control_c, 0, 64, 127
1, 114309, Note_on_c, 0, 86, 0
1, 114309, Note_on_c, 0, 83, 0
1, 114309, Note_on_c, 0, 79, 0
1, 114312, Note_on_c, 0, 74, 84
1, 114312, Note_on_c, 0, 55, 0
1, 114312, Note_on_c, 0, 62, 0
1, 114315, Note_on_c, 0, 65, 0
1, 114315, Note_on_c, 0, 67, 74
1, 114390, Note_on_c, 0, 74, 0
1, 114390, Note_on_c, 0, 79, 78
1, 114390, Note_on_c, 0, 83, 78
1, 114393, Note_on_c, 0, 86, 90
1, 114393, Note_on_c, 0, 67, 0
1, 114393, Note_on_c, 0, 65, 84
1, 114396, Note_on_c, 0, 62, 73
1, 114396, Note_on_c, 0, 55, 73
1, 114470, Note_on_c, 0, 86, 0
1, 114470, Note_on_c, 0, 83, 0
1, 114470, Note_on_c, 0, 79, 0
1, 114473, Note_on_c, 0, 74, 84
1, 114473, Note_on_c, 0, 55, 0
1, 114473, Note_on_c, 0, 62, 0
1, 114476, Note_on_c, 0, 65, 0
1, 114476, Note_on_c, 0, 67, 73
1, 114551, Note_on_c, 0, 74, 0
1, 114551, Note_on_c, 0, 88, 88
1, 114551, Control_c, 0, 91, 127
1, 114554, Note_on_c, 0, 67, 0
1, 114554, Control_c, 0, 64, 0
1, 114554, Control_c, 0, 64, 0
1, 114557, Note_on_c, 0, 36, 80
1, 114557, Note_on_c, 0, 48, 92
1, 114595, Control_c, 0, 64, 127
1, 114628, Note_on_c, 0, 88, 0
1, 114628, Note_on_c, 0, 96, 86
1, 114705, Note_on_c, 0, 96, 0
1, 114705, Note_on_c, 0, 91, 86
1, 114783, Note_on_c, 0, 91, 0
1, 114783, Note_on_c, 0, 88, 85
1, 114860, Note_on_c, 0, 88, 0
1, 114860, Note_on_c, 0, 84, 84
1, 114860, Note_on_c, 0, 48, 0
1, 114863, Note_on_c, 0, 36, 0
1, 114863, Note_on_c, 0, 40, 70
1, 114863, Note_on_c, 0, 52, 82
1, 114873, Control_c, 0, 64, 0
1, 114916, Note_on_c, 0, 52, 0
1, 114916, Note_on_c, 0, 40, 0
1, 114935, Note_on_c, 0, 79, 83
1, 114947, Note_on_c, 0, 84, 0
1, 115010, Note_on_c, 0, 76, 82
1, 115010, Note_on_c, 0, 40, 70
1, 115010, Note_on_c, 0, 52, 82
1, 115023, Note_on_c, 0, 79, 0
1, 115067, Note_on_c, 0, 52, 0
1, 115067, Note_on_c, 0, 40, 0
1, 115086, Note_on_c, 0, 72, 82
1, 115099, Note_on_c, 0, 76, 0
1, 115162, Note_on_c, 0, 86, 82
1, 115162, Note_on_c, 0, 43, 76
1, 115162, Note_on_c, 0, 55, 88
1, 115175, Note_on_c, 0, 72, 0
1, 115216, Control_c, 0, 64, 127
1, 115238, Note_on_c, 0, 86, 0
1, 115238, Note_on_c, 0, 95, 86
1, 115315, Note_on_c, 0, 95, 0
1, 115315, Note_on_c, 0, 91, 82
1, 115391, Note_on_c, 0, 91, 0
1, 115391, Note_on_c, 0, 89, 78
1, 115467, Note_on_c, 0, 89, 0
1, 115467, Note_on_c, 0, 83, 84
1, 115467, Note_on_c, 0, 55, 0
1, 115470, Note_on_c, 0, 43, 0
1, 115470, Control_c, 0, 64, 0
1, 115470, Note_on_c, 0, 31, 72
1, 115473, Note_on_c, 0, 43, 83
1, 115524, Note_on_c, 0, 43, 0
1, 115524, Note_on_c, 0, 31, 0
1, 115543, Note_on_c, 0, 79, 78
1, 115556, Note_on_c, 0, 83, 0
1, 115619, Note_on_c, 0, 77, 84
1, 115619, Note_on_c, 0, 31, 73
1, 115619, Note_on_c, 0, 43, 84
1, 115632, Note_on_c, 0, 79, 0
1, 115678, Note_on_c, 0, 43, 0
1, 115678, Note_on_c, 0, 31, 0
1, 115698, Note_on_c, 0, 71, 81
1, 115712, Note_on_c, 0, 77, 0
1, 115784, Note_on_c, 0, 86, 82
1, 115784, Control_c, 0, 91, 127
1, 115784, Note_on_c, 0, 38, 77
1, 115787, Note_on_c, 0, 50, 89
1, 115797, Note_on_c, 0, 71, 0
1, 115829, Control_c, 0, 64, 127
1, 115862, Note_on_c, 0, 86, 0
1, 115862, Note_on_c, 0, 98, 86
1, 115939, Note_on_c, 0, 98, 0
1, 115939, Note_on_c, 0, 93, 86
1, 116016, Note_on_c, 0, 93, 0
1, 116016, Note_on_c, 0, 89, 85
1, 116093, Note_on_c, 0, 89, 0
1, 116093, Note_on_c, 0, 86, 84
1, 116093, Note_on_c, 0, 50, 0
1, 116096, Note_on_c, 0, 38, 0
1, 116096, Note_on_c, 0, 41, 70
1, 116096, Note_on_c, 0, 53, 82
1, 116106, Control_c, 0, 64, 0
1, 116150, Note_on_c, 0, 53, 0
1, 116150, Note_on_c, 0, 41, 0
1, 116168, Note_on_c, 0, 81, 83
1, 116181, Note_on_c, 0, 86, 0
1, 116244, Note_on_c, 0, 77, 82
1, 116244, Note_on_c, 0, 41, 70
1, 116244, Note_on_c, 0, 53, 82
1, 116256, Note_on_c, 0, 81, 0
1, 116301, Note_on_c, 0, 53, 0
1, 116301, Note_on_c, 0, 41, 0
1, 116320, Note_on_c, 0, 74, 82
1, 116332, Note_on_c, 0, 77, 0
1, 116396, Note_on_c, 0, 85, 82
1, 116396, Note_on_c, 0, 45, 76
1, 116396, Note_on_c, 0, 57, 88
1, 116409, Note_on_c, 0, 74, 0
1, 116450, Control_c, 0, 64, 127
1, 116472, Note_on_c, 0, 85, 0
1, 116472, Note_on_c, 0, 97, 86
1, 116549, Note_on_c, 0, 97, 0
1, 116549, Note_on_c, 0, 93, 82
1, 116625, Note_on_c, 0, 93, 0
1, 116625, Note_on_c, 0, 91, 78
1, 116701, Note_on_c, 0, 91, 0
1, 116701, Note_on_c, 0, 85, 84
1, 116701, Note_on_c, 0, 57, 0
1, 116704, Note_on_c, 0, 45, 0
1, 116704, Control_c, 0, 64, 0
1, 116704, Note_on_c, 0, 33, 72
1, 116707, Note_on_c, 0, 45, 83
1, 116759, Note_on_c, 0, 45, 0
1, 116759, Note_on_c, 0, 33, 0
1, 116778, Note_on_c, 0, 81, 78
1, 116791, Note_on_c, 0, 85, 0
1, 116855, Note_on_c, 0, 79, 84
1, 116855, Note_on_c, 0, 33, 73
1, 116855, Note_on_c, 0, 45, 84
1, 116868, Note_on_c, 0, 81, 0
1, 116914, Note_on_c, 0, 45, 0
1, 116914, Note_on_c, 0, 33, 0
1, 116933, Note_on_c, 0, 73, 81
1, 116948, Note_on_c, 0, 79, 0
1, 117020, Note_on_c, 0, 89, 82
1, 117020, Control_c, 0, 91, 127
1, 117020, Note_on_c, 0, 41, 77
1, 117023, Note_on_c, 0, 53, 89
1, 117033, Note_on_c, 0, 73, 0
1, 117064, Control_c, 0, 64, 127
1, 117097, Note_on_c, 0, 89, 0
1, 117097, Note_on_c, 0, 101, 86
1, 117174, Note_on_c, 0, 101, 0
1, 117174, Note_on_c, 0, 96, 86
1, 117251, Note_on_c, 0, 96, 0
1, 117251, Note_on_c, 0, 93, 85
1, 117329, Note_on_c, 0, 93, 0
1, 117329, Note_on_c, 0, 89, 84
1, 117329, Note_on_c, 0, 53, 0
1, 117332, Note_on_c, 0, 41, 0
1, 117332, Note_on_c, 0, 45, 70
1, 117332, Note_on_c, 0, 57, 82
1, 117342, Control_c, 0, 64, 0
1, 117384, Note_on_c, 0, 57, 0
1, 117384, Note_on_c, 0, 45, 0
1, 117403, Note_on_c, 0, 84, 83
1, 117415, Note_on_c, 0, 89, 0
1, 117477, Note_on_c, 0, 81, 82
1, 117477, Note_on_c, 0, 45, 70
1, 117477, Note_on_c, 0, 57, 82
1, 117490, Note_on_c, 0, 84, 0
1, 117535, Note_on_c, 0, 57, 0
1, 117535, Note_on_c, 0, 45, 0
1, 117554, Note_on_c, 0, 77, 82
1, 117566, Note_on_c, 0, 81, 0
1, 117630, Note_on_c, 0, 88, 82
1, 117630, Note_on_c, 0, 48, 76
1, 117630, Note_on_c, 0, 60, 88
1, 117643, Note_on_c, 0, 77, 0
1, 117683, Control_c, 0, 64, 127
1, 117705, Note_on_c, 0, 88, 0
1, 117705, Note_on_c, 0, 100, 86
1, 117781, Note_on_c, 0, 100, 0
1, 117781, Note_on_c, 0, 96, 82
1, 117856, Note_on_c, 0, 96, 0
1, 117856, Note_on_c, 0, 91, 78
1, 117932, Note_on_c, 0, 91, 0
1, 117932, Note_on_c, 0, 88, 84
1, 117932, Note_on_c, 0, 60, 0
1, 117935, Note_on_c, 0, 48, 0
1, 117935, Control_c, 0, 64, 0
1, 117935, Note_on_c, 0, 36, 72
1, 117938, Note_on_c, 0, 48, 83
1, 117990, Note_on_c, 0, 48, 0
1, 117990, Note_on_c, 0, 36, 0
1, 118009, Note_on_c, 0, 84, 78
1, 118022, Note_on_c, 0, 88, 0
1, 118086, Note_on_c, 0, 79, 84
1, 118086, Note_on_c, 0, 36, 73
1, 118086, Note_on_c, 0, 48, 84
1, 118099, Note_on_c, 0, 84, 0
1, 118145, Note_on_c, 0, 48, 0
1, 118145, Note_on_c, 0, 36, 0
1, 118165, Note_on_c, 0, 76, 81
1, 118179, Note_on_c, 0, 79, 0
1, 118251, Note_on_c, 0, 85, 83
1, 118251, Note_on_c, 0, 82, 83
1, 118251, Note_on_c, 0, 79, 83
1, 118254, Note_on_c, 0, 91, 97
1, 118254, Note_on_c, 0, 40, 81
1, 118264, Note_on_c, 0, 76, 0
1, 118288, Control_c, 0, 64, 127
1, 118328, Note_on_c, 0, 46, 74
1, 118341, Note_on_c, 0, 40, 0
1, 118405, Note_on_c, 0, 49, 74
1, 118418, Note_on_c, 0, 46, 0
1, 118483, Note_on_c, 0, 52, 74
1, 118495, Note_on_c, 0, 49, 0
1, 118560, Note_on_c, 0, 79, 0
1, 118560, Note_on_c, 0, 85, 0
1, 118560, Note_on_c, 0, 82, 0
1, 118563, Note_on_c, 0, 91, 0
1, 118563, Note_on_c, 0, 73, 70
1, 118563, Note_on_c, 0, 70, 70
1, 118566, Note_on_c, 0, 67, 70
1, 118566, Note_on_c, 0, 79, 82
1, 118566, Note_on_c, 0, 52, 81
1, 118572, Note_on_c, 0, 52, 0
1, 118635, Note_on_c, 0, 58, 76
1, 118647, Note_on_c, 0, 52, 0
1, 118710, Note_on_c, 0, 79, 0
1, 118710, Note_on_c, 0, 73, 0
1, 118710, Note_on_c, 0, 70, 0
1, 118713, Note_on_c, 0, 67, 0
1, 118713, Note_on_c, 0, 73, 70
1, 118713, Note_on_c, 0, 70, 70
1, 118716, Note_on_c, 0, 67, 70
1, 118716, Note_on_c, 0, 79, 82
1, 118716, Note_on_c, 0, 61, 76
1, 118723, Note_on_c, 0, 58, 0
1, 118785, Note_on_c, 0, 64, 76
1, 118800, Note_on_c, 0, 61, 0
1, 118874, Note_on_c, 0, 79, 0
1, 118874, Note_on_c, 0, 73, 0
1, 118874, Note_on_c, 0, 70, 0
1, 118877, Note_on_c, 0, 67, 0
1, 118877, Note_on_c, 0, 86, 79
1, 118877, Note_on_c, 0, 83, 79
1, 118880, Note_on_c, 0, 79, 79
1, 118880, Note_on_c, 0, 91, 92
1, 118880, Note_on_c, 0, 41, 81
1, 118880, Control_c, 0, 64, 0
1, 118887, Note_on_c, 0, 64, 0
1, 118925, Control_c, 0, 64, 127
1, 118951, Note_on_c, 0, 47, 75
1, 118964, Note_on_c, 0, 41, 0
1, 119028, Note_on_c, 0, 50, 76
1, 119041, Note_on_c, 0, 47, 0
1, 119106, Note_on_c, 0, 53, 76
1, 119118, Note_on_c, 0, 50, 0
1, 119183, Note_on_c, 0, 91, 0
1, 119183, Note_on_c, 0, 86, 0
1, 119183, Note_on_c, 0, 83, 0
1, 119186, Note_on_c, 0, 79, 0
1, 119186, Note_on_c, 0, 74, 72
1, 119186, Note_on_c, 0, 71, 72
1, 119189, Note_on_c, 0, 67, 72
1, 119189, Note_on_c, 0, 79, 83
1, 119189, Note_on_c, 0, 53, 81
1, 119195, Note_on_c, 0, 53, 0
1, 119259, Note_on_c, 0, 59, 75
1, 119272, Note_on_c, 0, 53, 0
1, 119335, Note_on_c, 0, 79, 0
1, 119335, Note_on_c, 0, 74, 0
1, 119335, Note_on_c, 0, 71, 0
1, 119338, Note_on_c, 0, 67, 0
1, 119338, Note_on_c, 0, 74, 73
1, 119338, Note_on_c, 0, 71, 73
1, 119341, Note_on_c, 0, 67, 73
1, 119341, Note_on_c, 0, 79, 84
1, 119341, Note_on_c, 0, 62, 75
1, 119348, Note_on_c, 0, 59, 0
1, 119411, Note_on_c, 0, 65, 75
1, 119426, Note_on_c, 0, 62, 0
1, 119478, Control_c, 0, 64, 0
1, 119500, Note_on_c, 0, 79, 0
1, 119500, Note_on_c, 0, 74, 0
1, 119500, Note_on_c, 0, 71, 0
1, 119503, Note_on_c, 0, 67, 0
1, 119503, Note_on_c, 0, 85, 83
1, 119503, Note_on_c, 0, 82, 83
1, 119506, Note_on_c, 0, 79, 83
1, 119506, Note_on_c, 0, 91, 97
1, 119506, Note_on_c, 0, 40, 81
1, 119513, Note_on_c, 0, 65, 0
1, 119537, Control_c, 0, 64, 127
1, 119577, Note_on_c, 0, 46, 74
1, 119590, Note_on_c, 0, 40, 0
1, 119654, Note_on_c, 0, 49, 74
1, 119667, Note_on_c, 0, 46, 0
1, 119732, Note_on_c, 0, 52, 74
1, 119744, Note_on_c, 0, 49, 0
1, 119809, Note_on_c, 0, 91, 0
1, 119809, Note_on_c, 0, 85, 0
1, 119809, Note_on_c, 0, 82, 0
1, 119812, Note_on_c, 0, 79, 0
1, 119812, Note_on_c, 0, 73, 70
1, 119812, Note_on_c, 0, 70, 70
1, 119815, Note_on_c, 0, 67, 70
1, 119815, Note_on_c, 0, 79, 82
1, 119815, Note_on_c, 0, 52, 81
1, 119821, Note_on_c, 0, 52, 0
1, 119884, Note_on_c, 0, 58, 76
1, 119896, Note_on_c, 0, 52, 0
1, 119959, Note_on_c, 0, 79, 0
1, 119959, Note_on_c, 0, 73, 0
1, 119959, Note_on_c, 0, 70, 0
1, 119962, Note_on_c, 0, 67, 0
1, 119962, Note_on_c, 0, 73, 70
1, 119962, Note_on_c, 0, 70, 70
1, 119965, Note_on_c, 0, 67, 70
1, 119965, Note_on_c, 0, 79, 82
1, 119965, Note_on_c, 0, 61, 76
1, 119972, Note_on_c, 0, 58, 0
1, 120034, Note_on_c, 0, 64, 76
1, 120049, Note_on_c, 0, 61, 0
1, 120123, Note_on_c, 0, 79, 0
1, 120123, Note_on_c, 0, 73, 0
1, 120123, Note_on_c, 0, 70, 0
1, 120126, Note_on_c, 0, 67, 0
1, 120126, Note_on_c, 0, 86, 79
1, 120126, Note_on_c, 0, 83, 79
1, 120129, Note_on_c, 0, 79, 79
1, 120129, Note_on_c, 0, 91, 92
1, 120129, Note_on_c, 0, 41, 81
1, 120129, Control_c, 0, 64, 0
1, 120136, Note_on_c, 0, 64, 0
1, 120174, Control_c, 0, 64, 127
1, 120200, Note_on_c, 0, 47, 75
1, 120213, Note_on_c, 0, 41, 0
1, 120277, Note_on_c, 0, 50, 76
1, 120290, Note_on_c, 0, 47, 0
1, 120354, Note_on_c, 0, 53, 76
1, 120367, Note_on_c, 0, 50, 0
1, 120432, Note_on_c, 0, 91, 0
1, 120432, Note_on_c, 0, 86, 0
1, 120432, Note_on_c, 0, 83, 0
1, 120435, Note_on_c, 0, 79, 0
1, 120435, Note_on_c, 0, 74, 72
1, 120435, Note_on_c, 0, 71, 72
1, 120438, Note_on_c, 0, 67, 72
1, 120438, Note_on_c, 0, 79, 83
1, 120438, Note_on_c, 0, 53, 81
1, 120444, Note_on_c, 0, 53, 0
1, 120508, Note_on_c, 0, 59, 75
1, 120521, Note_on_c, 0, 53, 0
1, 120584, Note_on_c, 0, 79, 0
1, 120584, Note_on_c, 0, 74, 0
1, 120584, Note_on_c, 0, 71, 0
1, 120587, Note_on_c, 0, 67, 0
1, 120587, Note_on_c, 0, 74, 73
1, 120587, Note_on_c, 0, 71, 73
1, 120590, Note_on_c, 0, 67, 73
1, 120590, Note_on_c, 0, 79, 84
1, 120590, Note_on_c, 0, 62, 75
1, 120597, Note_on_c, 0, 59, 0
1, 120660, Note_on_c, 0, 65, 75
1, 120675, Note_on_c, 0, 62, 0
1, 120727, Control_c, 0, 64, 0
1, 120749, Note_on_c, 0, 79, 0
1, 120749, Note_on_c, 0, 74, 0
1, 120749, Note_on_c, 0, 71, 0
1, 120752, Note_on_c, 0, 67, 0
1, 120752, Note_on_c, 0, 91, 74
1, 120752, Note_on_c, 0, 96, 86
1, 120755, Note_on_c, 0, 60, 77
1, 120755, Note_on_c, 0, 55, 66
1, 120755, Note_on_c, 0, 52, 66
1, 120758, Control_c, 0, 64, 0
1, 120762, Note_on_c, 0, 65, 0
1, 120798, Control_c, 0, 64, 127
1, 120825, Note_on_c, 0, 96, 0
1, 120825, Note_on_c, 0, 91, 0
1, 120825, Note_on_c, 0, 84, 81
1, 120828, Note_on_c, 0, 60, 0
1, 120828, Note_on_c, 0, 55, 0
1, 120828, Note_on_c, 0, 52, 0
1, 120831, Note_on_c, 0, 64, 68
1, 120900, Note_on_c, 0, 84, 0
1, 120900, Note_on_c, 0, 96, 86
1, 120900, Note_on_c, 0, 91, 74
1, 120903, Note_on_c, 0, 64, 0
1, 120903, Note_on_c, 0, 60, 77
1, 120903, Note_on_c, 0, 55, 66
1, 120906, Note_on_c, 0, 52, 66
1, 120976, Note_on_c, 0, 91, 0
1, 120976, Note_on_c, 0, 96, 0
1, 120976, Note_on_c, 0, 84, 79
1, 120979, Note_on_c, 0, 52, 0
1, 120979, Note_on_c, 0, 55, 0
1, 120979, Note_on_c, 0, 60, 0
1, 120982, Note_on_c, 0, 64, 67
1, 121052, Note_on_c, 0, 84, 0
1, 121052, Note_on_c, 0, 84, 73
1, 121052, Note_on_c, 0, 89, 73
1, 121055, Note_on_c, 0, 93, 85
1, 121055, Note_on_c, 0, 64, 0
1, 121055, Note_on_c, 0, 60, 76
1, 121058, Note_on_c, 0, 57, 66
1, 121058, Note_on_c, 0, 53, 66
1, 121058, Control_c, 0, 64, 0
1, 121106, Control_c, 0, 64, 127
1, 121129, Note_on_c, 0, 93, 0
1, 121129, Note_on_c, 0, 89, 0
1, 121129, Note_on_c, 0, 84, 0
1, 121132, Note_on_c, 0, 81, 78
1, 121132, Note_on_c, 0, 53, 0
1, 121132, Note_on_c, 0, 57, 0
1, 121135, Note_on_c, 0, 60, 0
1, 121135, Note_on_c, 0, 65, 67
1, 121205, Note_on_c, 0, 81, 0
1, 121205, Note_on_c, 0, 93, 84
1, 121205, Note_on_c, 0, 89, 72
1, 121208, Note_on_c, 0, 84, 72
1, 121208, Note_on_c, 0, 65, 0
1, 121208, Note_on_c, 0, 60, 76
1, 121211, Note_on_c, 0, 57, 66
1, 121211, Note_on_c, 0, 53, 66
1, 121283, Note_on_c, 0, 84, 0
1, 121283, Note_on_c, 0, 89, 0
1, 121283, Note_on_c, 0, 93, 0
1, 121286, Note_on_c, 0, 81, 77
1, 121286, Note_on_c, 0, 53, 0
1, 121286, Note_on_c, 0, 57, 0
1, 121289, Note_on_c, 0, 60, 0
1, 121289, Note_on_c, 0, 65, 65
1, 121360, Note_on_c, 0, 81, 0
1, 121360, Note_on_c, 0, 84, 72
1, 121360, Note_on_c, 0, 88, 72
1, 121363, Note_on_c, 0, 91, 83
1, 121363, Note_on_c, 0, 65, 0
1, 121363, Note_on_c, 0, 64, 75
1, 121366, Note_on_c, 0, 60, 65
1, 121366, Note_on_c, 0, 55, 65
1, 121366, Control_c, 0, 64, 0
1, 121419, Control_c, 0, 64, 127
1, 121437, Note_on_c, 0, 91, 0
1, 121437, Note_on_c, 0, 88, 0
1, 121437, Note_on_c, 0, 84, 0
1, 121440, Note_on_c, 0, 79, 77
1, 121440, Note_on_c, 0, 55, 0
1, 121440, Note_on_c, 0, 60, 0
1, 121443, Note_on_c, 0, 64, 0
1, 121443, Note_on_c, 0, 67, 65
1, 121515, Note_on_c, 0, 79, 0
1, 121515, Note_on_c, 0, 84, 72
1, 121515, Note_on_c, 0, 88, 72
1, 121518, Note_on_c, 0, 91, 83
1, 121518, Note_on_c, 0, 67, 0
1, 121518, Note_on_c, 0, 64, 75
1, 121521, Note_on_c, 0, 60, 65
1, 121521, Note_on_c, 0, 55, 65
1, 121594, Note_on_c, 0, 91, 0
1, 121594, Note_on_c, 0, 88, 0
1, 121594, Note_on_c, 0, 84, 0
1, 121597, Note_on_c, 0, 79, 76
1, 121597, Note_on_c, 0, 55, 0
1, 121597, Note_on_c, 0, 60, 0
1, 121600, Note_on_c, 0, 64, 0
1, 121600, Note_on_c, 0, 67, 66
1, 121674, Note_on_c, 0, 79, 0
1, 121674, Note_on_c, 0, 83, 71
1, 121674, Note_on_c, 0, 86, 71
1, 121677, Note_on_c, 0, 91, 82
1, 121677, Note_on_c, 0, 67, 0
1, 121677, Note_on_c, 0, 65, 74
1, 121680, Note_on_c, 0, 62, 64
1, 121680, Note_on_c, 0, 55, 64
1, 121680, Control_c, 0, 64, 0
1, 121731, Control_c, 0, 64, 127
1, 121754, Note_on_c, 0, 91, 0
1, 121754, Note_on_c, 0, 86, 0
1, 121754, Note_on_c, 0, 83, 0
1, 121757, Note_on_c, 0, 79, 75
1, 121757, Note_on_c, 0, 55, 0
1, 121757, Note_on_c, 0, 62, 0
1, 121760, Note_on_c, 0, 65, 0
1, 121760, Note_on_c, 0, 67, 65
1, 121835, Note_on_c, 0, 79, 0
1, 121835, Note_on_c, 0, 83, 70
1, 121835, Note_on_c, 0, 86, 70
1, 121838, Note_on_c, 0, 91, 81
1, 121838, Note_on_c, 0, 67, 0
1, 121838, Note_on_c, 0, 65, 73
1, 121841, Note_on_c, 0, 62, 63
1, 121841, Note_on_c, 0, 55, 63
1, 121918, Note_on_c, 0, 91, 0
1, 121918, Note_on_c, 0, 86, 0
1, 121918, Note_on_c, 0, 83, 0
1, 121921, Note_on_c, 0, 79, 75
1, 121921, Note_on_c, 0, 55, 0
1, 121921, Note_on_c, 0, 62, 0
1, 121924, Note_on_c, 0, 65, 0
1, 121924, Note_on_c, 0, 67, 64
1, 121984, Control_c, 0, 64, 0
1, 122042, Note_on_c, 0, 79, 0
1, 122042, Note_on_c, 0, 88, 56
1, 122042, Control_c, 0, 91, 127
1, 122045, Note_on_c, 0, 67, 0
1, 122045, Note_on_c, 0, 36, 59
1, 122087, Control_c, 0, 64, 127
1, 122119, Note_on_c, 0, 88, 0
1, 122119, Note_on_c, 0, 96, 59
1, 122196, Note_on_c, 0, 96, 0
1, 122196, Note_on_c, 0, 91, 59
1, 122272, Note_on_c, 0, 91, 0
1, 122272, Note_on_c, 0, 88, 58
1, 122349, Note_on_c, 0, 88, 0
1, 122349, Note_on_c, 0, 84, 58
1, 122349, Note_on_c, 0, 36, 0
1, 122352, Note_on_c, 0, 52, 49
1, 122352, Note_on_c, 0, 60, 56
1, 122362, Control_c, 0, 64, 0
1, 122405, Note_on_c, 0, 60, 0
1, 122405, Note_on_c, 0, 52, 0
1, 122423, Note_on_c, 0, 79, 57
1, 122436, Note_on_c, 0, 84, 0
1, 122497, Note_on_c, 0, 76, 56
1, 122497, Note_on_c, 0, 52, 49
1, 122497, Note_on_c, 0, 60, 56
1, 122510, Note_on_c, 0, 79, 0
1, 122553, Note_on_c, 0, 60, 0
1, 122553, Note_on_c, 0, 52, 0
1, 122572, Note_on_c, 0, 72, 56
1, 122584, Note_on_c, 0, 76, 0
1, 122646, Note_on_c, 0, 86, 56
1, 122646, Note_on_c, 0, 55, 49
1, 122646, Note_on_c, 0, 62, 56
1, 122658, Note_on_c, 0, 72, 0
1, 122699, Control_c, 0, 64, 127
1, 122722, Note_on_c, 0, 86, 0
1, 122722, Note_on_c, 0, 95, 59
1, 122797, Note_on_c, 0, 95, 0
1, 122797, Note_on_c, 0, 91, 56
1, 122873, Note_on_c, 0, 91, 0
1, 122873, Note_on_c, 0, 89, 54
1, 122949, Note_on_c, 0, 89, 0
1, 122949, Note_on_c, 0, 83, 58
1, 122949, Note_on_c, 0, 62, 0
1, 122952, Note_on_c, 0, 55, 0
1, 122952, Control_c, 0, 64, 0
1, 122952, Note_on_c, 0, 43, 57
1, 123007, Note_on_c, 0, 43, 0
1, 123026, Note_on_c, 0, 79, 54
1, 123039, Note_on_c, 0, 83, 0
1, 123103, Note_on_c, 0, 77, 58
1, 123103, Note_on_c, 0, 43, 58
1, 123115, Note_on_c, 0, 79, 0
1, 123160, Note_on_c, 0, 43, 0
1, 123179, Note_on_c, 0, 71, 56
1, 123194, Note_on_c, 0, 77, 0
1, 123266, Note_on_c, 0, 86, 56
1, 123266, Control_c, 0, 91, 127
1, 123266, Note_on_c, 0, 38, 59
1, 123278, Note_on_c, 0, 71, 0
1, 123310, Control_c, 0, 64, 127
1, 123342, Note_on_c, 0, 86, 0
1, 123342, Note_on_c, 0, 98, 59
1, 123418, Note_on_c, 0, 98, 0
1, 123418, Note_on_c, 0, 93, 59
1, 123495, Note_on_c, 0, 93, 0
1, 123495, Note_on_c, 0, 89, 58
1, 123571, Note_on_c, 0, 89, 0
1, 123571, Note_on_c, 0, 86, 58
1, 123571, Note_on_c, 0, 38, 0
1, 123574, Note_on_c, 0, 53, 49
1, 123574, Note_on_c, 0, 62, 56
1, 123584, Control_c, 0, 64, 0
1, 123626, Note_on_c, 0, 62, 0
1, 123626, Note_on_c, 0, 53, 0
1, 123645, Note_on_c, 0, 81, 57
1, 123657, Note_on_c, 0, 86, 0
1, 123718, Note_on_c, 0, 77, 56
1, 123718, Note_on_c, 0, 53, 49
1, 123718, Note_on_c, 0, 62, 56
1, 123731, Note_on_c, 0, 81, 0
1, 123775, Note_on_c, 0, 62, 0
1, 123775, Note_on_c, 0, 53, 0
1, 123794, Note_on_c, 0, 74, 56
1, 123806, Note_on_c, 0, 77, 0
1, 123869, Note_on_c, 0, 85, 56
1, 123869, Note_on_c, 0, 57, 49
1, 123869, Note_on_c, 0, 64, 56
1, 123882, Note_on_c, 0, 74, 0
1, 123923, Control_c, 0, 64, 127
1, 123945, Note_on_c, 0, 85, 0
1, 123945, Note_on_c, 0, 97, 59
1, 124022, Note_on_c, 0, 97, 0
1, 124022, Note_on_c, 0, 93, 56
1, 124098, Note_on_c, 0, 93, 0
1, 124098, Note_on_c, 0, 91, 54
1, 124175, Note_on_c, 0, 91, 0
1, 124175, Note_on_c, 0, 85, 58
1, 124175, Note_on_c, 0, 64, 0
1, 124178, Note_on_c, 0, 57, 0
1, 124178, Control_c, 0, 64, 0
1, 124178, Note_on_c, 0, 45, 57
1, 124232, Note_on_c, 0, 45, 0
1, 124251, Note_on_c, 0, 81, 54
1, 124264, Note_on_c, 0, 85, 0
1, 124328, Note_on_c, 0, 79, 58
1, 124328, Note_on_c, 0, 45, 58
1, 124341, Note_on_c, 0, 81, 0
1, 124385, Note_on_c, 0, 45, 0
1, 124405, Note_on_c, 0, 73, 56
1, 124419, Note_on_c, 0, 79, 0
1, 124491, Note_on_c, 0, 89, 60
1, 124491, Control_c, 0, 91, 127
1, 124491, Note_on_c, 0, 41, 63
1, 124504, Note_on_c, 0, 73, 0
1, 124535, Control_c, 0, 64, 127
1, 124567, Note_on_c, 0, 89, 0
1, 124567, Note_on_c, 0, 101, 65
1, 124644, Note_on_c, 0, 101, 0
1, 124644, Note_on_c, 0, 96, 66
1, 124720, Note_on_c, 0, 96, 0
1, 124720, Note_on_c, 0, 93, 67
1, 124797, Note_on_c, 0, 93, 0
1, 124797, Note_on_c, 0, 89, 68
1, 124797, Note_on_c, 0, 41, 0
1, 124800, Note_on_c, 0, 57, 57
1, 124800, Note_on_c, 0, 65, 66
1, 124810, Control_c, 0, 64, 0
1, 124852, Note_on_c, 0, 65, 0
1, 124852, Note_on_c, 0, 57, 0
1, 124871, Note_on_c, 0, 84, 68
1, 124883, Note_on_c, 0, 89, 0
1, 124945, Note_on_c, 0, 81, 68
1, 124945, Note_on_c, 0, 57, 59
1, 124945, Note_on_c, 0, 65, 68
1, 124958, Note_on_c, 0, 84, 0
1, 125001, Note_on_c, 0, 65, 0
1, 125001, Note_on_c, 0, 57, 0
1, 125020, Note_on_c, 0, 77, 70
1, 125032, Note_on_c, 0, 81, 0
1, 125094, Note_on_c, 0, 88, 72
1, 125094, Note_on_c, 0, 60, 62
1, 125094, Note_on_c, 0, 67, 72
1, 125107, Note_on_c, 0, 77, 0
1, 125148, Control_c, 0, 64, 127
1, 125170, Note_on_c, 0, 88, 0
1, 125170, Note_on_c, 0, 100, 77
1, 125246, Note_on_c, 0, 100, 0
1, 125246, Note_on_c, 0, 96, 74
1, 125323, Note_on_c, 0, 96, 0
1, 125323, Note_on_c, 0, 91, 73
1, 125399, Note_on_c, 0, 91, 0
1, 125399, Note_on_c, 0, 88, 80
1, 125399, Note_on_c, 0, 67, 0
1, 125402, Note_on_c, 0, 60, 0
1, 125402, Control_c, 0, 64, 0
1, 125402, Note_on_c, 0, 48, 79
1, 125456, Note_on_c, 0, 48, 0
1, 125476, Note_on_c, 0, 84, 76
1, 125488, Note_on_c, 0, 88, 0
1, 125553, Note_on_c, 0, 79, 83
1, 125553, Note_on_c, 0, 48, 83
1, 125565, Note_on_c, 0, 84, 0
1, 125610, Note_on_c, 0, 48, 0
1, 125630, Note_on_c, 0, 76, 81
1, 125644, Note_on_c, 0, 79, 0
1, 125716, Note_on_c, 0, 85, 83
1, 125716, Note_on_c, 0, 82, 83
1, 125716, Note_on_c, 0, 79, 83
1, 125719, Note_on_c, 0, 91, 97
1, 125719, Note_on_c, 0, 40, 81
1, 125729, Note_on_c, 0, 76, 0
1, 125752, Control_c, 0, 64, 127
1, 125792, Note_on_c, 0, 40, 0
1, 125792, Note_on_c, 0, 46, 74
1, 125869, Note_on_c, 0, 46, 0
1, 125869, Note_on_c, 0, 49, 74
1, 125945, Note_on_c, 0, 49, 0
1, 125945, Note_on_c, 0, 52, 74
1, 126022, Note_on_c, 0, 79, 0
1, 126022, Note_on_c, 0, 85, 0
1, 126022, Note_on_c, 0, 82, 0
1, 126025, Note_on_c, 0, 91, 0
1, 126025, Note_on_c, 0, 73, 70
1, 126025, Note_on_c, 0, 70, 70
1, 126028, Note_on_c, 0, 67, 70
1, 126028, Note_on_c, 0, 79, 82
1, 126028, Note_on_c, 0, 52, 0
1, 126031, Note_on_c, 0, 52, 81
1, 126096, Note_on_c, 0, 52, 0
1, 126096, Note_on_c, 0, 58, 76
1, 126170, Note_on_c, 0, 79, 0
1, 126170, Note_on_c, 0, 73, 0
1, 126170, Note_on_c, 0, 70, 0
1, 126173, Note_on_c, 0, 67, 0
1, 126173, Note_on_c, 0, 73, 70
1, 126173, Note_on_c, 0, 70, 70
1, 126176, Note_on_c, 0, 67, 70
1, 126176, Note_on_c, 0, 79, 82
1, 126176, Note_on_c, 0, 58, 0
1, 126179, Note_on_c, 0, 61, 76
1, 126245, Note_on_c, 0, 61, 0
1, 126245, Note_on_c, 0, 64, 76
1, 126333, Note_on_c, 0, 79, 0
1, 126333, Note_on_c, 0, 73, 0
1, 126333, Note_on_c, 0, 70, 0
1, 126336, Note_on_c, 0, 67, 0
1, 126336, Note_on_c, 0, 86, 82
1, 126336, Note_on_c, 0, 83, 82
1, 126339, Note_on_c, 0, 80, 82
1, 126339, Note_on_c, 0, 92, 96
1, 126339, Note_on_c, 0, 64, 0
1, 126342, Note_on_c, 0, 41, 81
1, 126342, Control_c, 0, 64, 0
1, 126384, Control_c, 0, 64, 127
1, 126410, Note_on_c, 0, 41, 0
1, 126410, Note_on_c, 0, 47, 75
1, 126486, Note_on_c, 0, 47, 0
1, 126486, Note_on_c, 0, 50, 76
1, 126563, Note_on_c, 0, 50, 0
1, 126563, Note_on_c, 0, 53, 76
1, 126639, Note_on_c, 0, 92, 0
1, 126639, Note_on_c, 0, 86, 0
1, 126639, Note_on_c, 0, 83, 0
1, 126642, Note_on_c, 0, 80, 0
1, 126642, Note_on_c, 0, 74, 72
1, 126642, Note_on_c, 0, 71, 72
1, 126645, Note_on_c, 0, 68, 72
1, 126645, Note_on_c, 0, 80, 83
1, 126645, Note_on_c, 0, 53, 0
1, 126648, Note_on_c, 0, 53, 81
1, 126713, Note_on_c, 0, 53, 0
1, 126713, Note_on_c, 0, 59, 75
1, 126788, Note_on_c, 0, 80, 0
1, 126788, Note_on_c, 0, 74, 0
1, 126788, Note_on_c, 0, 71, 0
1, 126791, Note_on_c, 0, 68, 0
1, 126791, Note_on_c, 0, 74, 73
1, 126791, Note_on_c, 0, 71, 73
1, 126794, Note_on_c, 0, 68, 73
1, 126794, Note_on_c, 0, 80, 84
1, 126794, Note_on_c, 0, 59, 0
1, 126797, Note_on_c, 0, 62, 75
1, 126862, Note_on_c, 0, 62, 0
1, 126862, Note_on_c, 0, 65, 75
1, 126930, Control_c, 0, 64, 0
1, 126951, Note_on_c, 0, 80, 0
1, 126951, Note_on_c, 0, 74, 0
1, 126951, Note_on_c, 0, 71, 0
1, 126954, Note_on_c, 0, 68, 0
1, 126954, Note_on_c, 0, 87, 83
1, 126954, Note_on_c, 0, 84, 83
1, 126957, Note_on_c, 0, 81, 83
1, 126957, Note_on_c, 0, 93, 97
1, 126957, Note_on_c, 0, 65, 0
1, 126960, Note_on_c, 0, 42, 81
1, 126987, Control_c, 0, 64, 127
1, 127027, Note_on_c, 0, 42, 0
1, 127027, Note_on_c, 0, 48, 74
1, 127102, Note_on_c, 0, 48, 0
1, 127102, Note_on_c, 0, 51, 74
1, 127178, Note_on_c, 0, 51, 0
1, 127178, Note_on_c, 0, 54, 74
1, 127254, Note_on_c, 0, 93, 0
1, 127254, Note_on_c, 0, 87, 0
1, 127254, Note_on_c, 0, 84, 0
1, 127257, Note_on_c, 0, 81, 0
1, 127257, Note_on_c, 0, 75, 70
1, 127257, Note_on_c, 0, 72, 70
1, 127260, Note_on_c, 0, 69, 70
1, 127260, Note_on_c, 0, 81, 82
1, 127260, Note_on_c, 0, 54, 0
1, 127263, Note_on_c, 0, 54, 81
1, 127328, Note_on_c, 0, 54, 0
1, 127328, Note_on_c, 0, 60, 76
1, 127402, Note_on_c, 0, 81, 0
1, 127402, Note_on_c, 0, 75, 0
1, 127402, Note_on_c, 0, 72, 0
1, 127405, Note_on_c, 0, 69, 0
1, 127405, Note_on_c, 0, 75, 70
1, 127405, Note_on_c, 0, 72, 70
1, 127408, Note_on_c, 0, 69, 70
1, 127408, Note_on_c, 0, 81, 82
1, 127408, Note_on_c, 0, 60, 0
1, 127411, Note_on_c, 0, 63, 76
1, 127476, Note_on_c, 0, 63, 0
1, 127476, Note_on_c, 0, 66, 76
1, 127565, Note_on_c, 0, 81, 0
1, 127565, Note_on_c, 0, 75, 0
1, 127565, Note_on_c, 0, 72, 0
1, 127568, Note_on_c, 0, 69, 0
1, 127568, Note_on_c, 0, 88, 84
1, 127568, Note_on_c, 0, 85, 84
1, 127571, Note_on_c, 0, 82, 84
1, 127571, Note_on_c, 0, 94, 98
1, 127571, Note_on_c, 0, 66, 0
1, 127574, Note_on_c, 0, 43, 81
1, 127574, Control_c, 0, 64, 0
1, 127615, Control_c, 0, 64, 127
1, 127640, Note_on_c, 0, 43, 0
1, 127640, Note_on_c, 0, 49, 75
1, 127716, Note_on_c, 0, 49, 0
1, 127716, Note_on_c, 0, 52, 76
1, 127791, Note_on_c, 0, 52, 0
1, 127791, Note_on_c, 0, 55, 76
1, 127866, Note_on_c, 0, 94, 0
1, 127866, Note_on_c, 0, 88, 0
1, 127866, Note_on_c, 0, 85, 0
1, 127869, Note_on_c, 0, 82, 0
1, 127869, Note_on_c, 0, 76, 73
1, 127869, Note_on_c, 0, 73, 73
1, 127872, Note_on_c, 0, 70, 73
1, 127872, Note_on_c, 0, 82, 84
1, 127872, Note_on_c, 0, 55, 0
1, 127875, Note_on_c, 0, 55, 81
1, 127941, Note_on_c, 0, 55, 0
1, 127941, Note_on_c, 0, 61, 75
1, 128016, Note_on_c, 0, 82, 0
1, 128016, Note_on_c, 0, 76, 0
1, 128016, Note_on_c, 0, 73, 0
1, 128019, Note_on_c, 0, 70, 0
1, 128019, Note_on_c, 0, 76, 74
1, 128019, Note_on_c, 0, 73, 74
1, 128022, Note_on_c, 0, 70, 74
1, 128022, Note_on_c, 0, 82, 85
1, 128022, Note_on_c, 0, 61, 0
1, 128025, Note_on_c, 0, 64, 75
1, 128090, Note_on_c, 0, 64, 0
1, 128090, Note_on_c, 0, 67, 75
1, 128158, Control_c, 0, 64, 0
1, 128179, Note_on_c, 0, 82, 0
1, 128179, Note_on_c, 0, 76, 0
1, 128179, Note_on_c, 0, 73, 0
1, 128182, Note_on_c, 0, 70, 0
1, 128182, Note_on_c, 0, 77, 81
1, 128182, Note_on_c, 0, 74, 81
1, 128185, Note_on_c, 0, 71, 81
1, 128185, Note_on_c, 0, 83, 95
1, 128185, Note_on_c, 0, 67, 0
1, 128188, Note_on_c, 0, 44, 73
1, 128215, Control_c, 0, 64, 127
1, 128254, Note_on_c, 0, 44, 0
1, 128254, Note_on_c, 0, 50, 67
1, 128330, Note_on_c, 0, 50, 0
1, 128330, Note_on_c, 0, 53, 68
1, 128405, Note_on_c, 0, 53, 0
1, 128405, Note_on_c, 0, 56, 68
1, 128481, Note_on_c, 0, 83, 0
1, 128481, Note_on_c, 0, 77, 0
1, 128481, Note_on_c, 0, 74, 0
1, 128484, Note_on_c, 0, 71, 0
1, 128484, Note_on_c, 0, 78, 71
1, 128484, Note_on_c, 0, 75, 71
1, 128487, Note_on_c, 0, 72, 71
1, 128487, Note_on_c, 0, 84, 83
1, 128487, Note_on_c, 0, 56, 0
1, 128490, Note_on_c, 0, 57, 76
1, 128555, Note_on_c, 0, 57, 0
1, 128555, Note_on_c, 0, 63, 72
1, 128629, Note_on_c, 0, 84, 0
1, 128629, Note_on_c, 0, 78, 0
1, 128629, Note_on_c, 0, 75, 0
1, 128632, Note_on_c, 0, 72, 0
1, 128632, Note_on_c, 0, 75, 73
1, 128632, Note_on_c, 0, 78, 73
1, 128635, Note_on_c, 0, 72, 73
1, 128635, Note_on_c, 0, 84, 85
1, 128635, Note_on_c, 0, 63, 0
1, 128638, Note_on_c, 0, 66, 72
1, 128703, Note_on_c, 0, 66, 0
1, 128703, Note_on_c, 0, 69, 73
1, 128792, Note_on_c, 0, 84, 0
1, 128792, Note_on_c, 0, 75, 0
1, 128792, Note_on_c, 0, 78, 0
1, 128795, Note_on_c, 0, 72, 0
1, 128795, Note_on_c, 0, 79, 82
1, 128795, Note_on_c, 0, 76, 82
1, 128798, Note_on_c, 0, 73, 82
1, 128798, Note_on_c, 0, 85, 96
1, 128798, Note_on_c, 0, 69, 0
1, 128801, Note_on_c, 0, 46, 78
1, 128801, Control_c, 0, 64, 0
1, 128842, Control_c, 0, 64, 127
1, 128867, Note_on_c, 0, 46, 0
1, 128867, Note_on_c, 0, 52, 73
1, 128943, Note_on_c, 0, 52, 0
1, 128943, Note_on_c, 0, 55, 75
1, 129018, Note_on_c, 0, 55, 0
1, 129018, Note_on_c, 0, 58, 76
1, 129093, Note_on_c, 0, 85, 0
1, 129093, Note_on_c, 0, 79, 0
1, 129093, Note_on_c, 0, 76, 0
1, 129096, Note_on_c, 0, 73, 0
1, 129096, Note_on_c, 0, 80, 72
1, 129096, Note_on_c, 0, 77, 72
1, 129099, Note_on_c, 0, 74, 72
1, 129099, Note_on_c, 0, 86, 83
1, 129099, Note_on_c, 0, 58, 0
1, 129102, Note_on_c, 0, 59, 81
1, 129168, Note_on_c, 0, 59, 0
1, 129168, Note_on_c, 0, 65, 76
1, 129242, Note_on_c, 0, 86, 0
1, 129242, Note_on_c, 0, 80, 0
1, 129242, Note_on_c, 0, 77, 0
1, 129245, Note_on_c, 0, 74, 0
1, 129245, Note_on_c, 0, 80, 74
1, 129245, Note_on_c, 0, 77, 74
1, 129248, Note_on_c, 0, 74, 74
1, 129248, Note_on_c, 0, 86, 86
1, 129248, Note_on_c, 0, 65, 0
1, 129251, Note_on_c, 0, 68, 76
1, 129316, Note_on_c, 0, 68, 0
1, 129316, Note_on_c, 0, 71, 77
1, 129396, Note_on_c, 0, 86, 0
1, 129396, Note_on_c, 0, 80, 0
1, 129396, Note_on_c, 0, 77, 0
1, 129399, Note_on_c, 0, 74, 0
1, 129399, Note_on_c, 0, 75, 81
1, 129399, Note_on_c, 0, 78, 81
1, 129402, Note_on_c, 0, 81, 81
1, 129402, Note_on_c, 0, 87, 92
1, 129402, Note_on_c, 0, 71, 0
1, 129405, Note_on_c, 0, 48, 84
1, 129405, Control_c, 0, 64, 0
1, 129432, Control_c, 0, 64, 127
1, 129471, Note_on_c, 0, 48, 0
1, 129471, Note_on_c, 0, 54, 77
1, 129546, Note_on_c, 0, 87, 0
1, 129546, Note_on_c, 0, 75, 0
1, 129546, Note_on_c, 0, 78, 0
1, 129549, Note_on_c, 0, 81, 0
1, 129549, Note_on_c, 0, 75, 81
1, 129549, Note_on_c, 0, 78, 81
1, 129552, Note_on_c, 0, 81, 81
1, 129552, Note_on_c, 0, 87, 93
1, 129552, Note_on_c, 0, 54, 0
1, 129555, Note_on_c, 0, 57, 77
1, 129621, Note_on_c, 0, 57, 0
1, 129621, Note_on_c, 0, 60, 78
1, 129697, Note_on_c, 0, 87, 0
1, 129697, Note_on_c, 0, 75, 0
1, 129697, Note_on_c, 0, 78, 0
1, 129700, Note_on_c, 0, 81, 0
1, 129700, Note_on_c, 0, 76, 83
1, 129700, Note_on_c, 0, 79, 83
1, 129703, Note_on_c, 0, 82, 83
1, 129703, Note_on_c, 0, 88, 94
1, 129703, Note_on_c, 0, 60, 0
1, 129706, Note_on_c, 0, 49, 86
1, 129706, Control_c, 0, 64, 0
1, 129733, Control_c, 0, 64, 127
1, 129773, Note_on_c, 0, 49, 0
1, 129773, Note_on_c, 0, 55, 81
1, 129849, Note_on_c, 0, 88, 0
1, 129849, Note_on_c, 0, 76, 0
1, 129849, Note_on_c, 0, 79, 0
1, 129852, Note_on_c, 0, 82, 0
1, 129852, Note_on_c, 0, 76, 84
1, 129852, Note_on_c, 0, 79, 84
1, 129855, Note_on_c, 0, 82, 84
1, 129855, Note_on_c, 0, 88, 96
1, 129855, Note_on_c, 0, 55, 0
1, 129858, Note_on_c, 0, 58, 82
1, 129926, Note_on_c, 0, 58, 0
1, 129926, Note_on_c, 0, 61, 83
1, 130002, Note_on_c, 0, 88, 0
1, 130002, Note_on_c, 0, 76, 0
1, 130002, Note_on_c, 0, 79, 0
1, 130005, Note_on_c, 0, 82, 0
1, 130005, Note_on_c, 0, 77, 85
1, 130005, Note_on_c, 0, 80, 85
1, 130008, Note_on_c, 0, 83, 85
1, 130008, Note_on_c, 0, 89, 97
1, 130008, Note_on_c, 0, 61, 0
1, 130011, Note_on_c, 0, 50, 89
1, 130011, Control_c, 0, 64, 0
1, 130028, Control_c, 0, 64, 127
1, 130078, Note_on_c, 0, 50, 0
1, 130078, Note_on_c, 0, 56, 83
1, 130154, Note_on_c, 0, 89, 0
1, 130154, Note_on_c, 0, 77, 0
1, 130154, Note_on_c, 0, 80, 0
1, 130157, Note_on_c, 0, 83, 0
1, 130157, Note_on_c, 0, 77, 86
1, 130157, Note_on_c, 0, 80, 86
1, 130160, Note_on_c, 0, 83, 86
1, 130160, Note_on_c, 0, 89, 99
1, 130160, Note_on_c, 0, 56, 0
1, 130163, Note_on_c, 0, 59, 85
1, 130230, Note_on_c, 0, 59, 0
1, 130230, Note_on_c, 0, 62, 85
1, 130306, Note_on_c, 0, 89, 0
1, 130306, Note_on_c, 0, 77, 0
1, 130306, Note_on_c, 0, 80, 0
1, 130309, Note_on_c, 0, 83, 0
1, 130309, Note_on_c, 0, 77, 88
1, 130309, Note_on_c, 0, 80, 88
1, 130312, Note_on_c, 0, 83, 88
1, 130312, Note_on_c, 0, 89, 100
1, 130312, Note_on_c, 0, 62, 0
1, 130315, Note_on_c, 0, 65, 92
1, 130382, Note_on_c, 0, 65, 0
1, 130382, Note_on_c, 0, 59, 86
1, 130458, Note_on_c, 0, 89, 0
1, 130458, Note_on_c, 0, 77, 0
1, 130458, Note_on_c, 0, 80, 0
1, 130461, Note_on_c, 0, 83, 0
1, 130461, Note_on_c, 0, 77, 89
1, 130461, Note_on_c, 0, 80, 89
1, 130464, Note_on_c, 0, 83, 89
1, 130464, Note_on_c, 0, 89, 102
1, 130464, Note_on_c, 0, 59, 0
1, 130467, Note_on_c, 0, 62, 86
1, 130534, Note_on_c, 0, 62, 0
1, 130534, Note_on_c, 0, 65, 87
1, 130623, Note_on_c, 0, 89, 0
1, 130623, Note_on_c, 0, 77, 0
1, 130623, Note_on_c, 0, 80, 0
1, 130626, Note_on_c, 0, 83, 0
1, 130626, Note_on_c, 0, 77, 95
1, 130626, Note_on_c, 0, 83, 95
1, 130629, Note_on_c, 0, 86, 95
1, 130629, Note_on_c, 0, 89, 108
1, 130629, Note_on_c, 0, 65, 0
1, 130632, Note_on_c, 0, 56, 75
1, 130632, Note_on_c, 0, 68, 88
1, 130632, Control_c, 0, 64, 0
1, 130956, Note_on_c, 0, 89, 0
1, 130956, Note_on_c, 0, 77, 0
1, 130956, Note_on_c, 0, 83, 0
1, 130959, Note_on_c, 0, 86, 0
1, 130959, Note_on_c, 0, 68, 0
1, 130959, Note_on_c, 0, 56, 0
1, 131289, Note_on_c, 0, 76, 95
1, 131289, Note_on_c, 0, 81, 95
1, 131289, Note_on_c, 0, 84, 95
1, 131292, Note_on_c, 0, 88, 108
1, 131292, Note_on_c, 0, 57, 75
1, 131292, Note_on_c, 0, 69, 88
1, 131621, Note_on_c, 0, 88, 0
1, 131621, Note_on_c, 0, 76, 0
1, 131621, Note_on_c, 0, 81, 0
1, 131624, Note_on_c, 0, 84, 0
1, 131624, Note_on_c, 0, 69, 0
1, 131624, Note_on_c, 0, 57, 0
1, 131954, Note_on_c, 0, 74, 95
1, 131954, Note_on_c, 0, 81, 95
1, 131954, Note_on_c, 0, 84, 95
1, 131957, Note_on_c, 0, 86, 108
1, 131957, Note_on_c, 0, 41, 75
1, 131957, Note_on_c, 0, 45, 75
1, 131960, Note_on_c, 0, 50, 75
1, 131960, Note_on_c, 0, 53, 88
1, 132287, Note_on_c, 0, 86, 0
1, 132287, Note_on_c, 0, 74, 0
1, 132287, Note_on_c, 0, 81, 0
1, 132290, Note_on_c, 0, 84, 0
1, 132290, Note_on_c, 0, 53, 0
1, 132290, Note_on_c, 0, 41, 0
1, 132293, Note_on_c, 0, 45, 0
1, 132293, Note_on_c, 0, 50, 0
1, 132620, Note_on_c, 0, 74, 95
1, 132620, Note_on_c, 0, 79, 95
1, 132620, Note_on_c, 0, 83, 95
1, 132623, Note_on_c, 0, 86, 108
1, 132623, Note_on_c, 0, 43, 75
1, 132623, Note_on_c, 0, 47, 75
1, 132626, Note_on_c, 0, 50, 75
1, 132626, Note_on_c, 0, 55, 88
1, 132953, Note_on_c, 0, 86, 0
1, 132953, Note_on_c, 0, 74, 0
1, 132953, Note_on_c, 0, 79, 0
1, 132956, Note_on_c, 0, 83, 0
1, 132956, Note_on_c, 0, 55, 0
1, 132956, Note_on_c, 0, 43, 0
1, 132959, Note_on_c, 0, 47, 0
1, 132959, Note_on_c, 0, 50, 0
1, 133285, Note_on_c, 0, 52, 60
1, 133285, Note_on_c, 0, 36, 42
1, 133323, Control_c, 0, 64, 127
1, 133365, Note_on_c, 0, 52, 0
1, 133365, Note_on_c, 0, 64, 42
1, 133365, Note_on_c, 0, 36, 0
1, 133368, Note_on_c, 0, 48, 36
1, 133445, Note_on_c, 0, 64, 0
1, 133445, Note_on_c, 0, 60, 42
1, 133445, Note_on_c, 0, 55, 42
1, 133448, Note_on_c, 0, 48, 0
1, 133448, Note_on_c, 0, 43, 36
1, 133525, Note_on_c, 0, 55, 0
1, 133525, Note_on_c, 0, 60, 0
1, 133525, Note_on_c, 0, 64, 42
1, 133528, Note_on_c, 0, 43, 0
1, 133528, Note_on_c, 0, 48, 36
1, 133605, Note_on_c, 0, 64, 0
1, 133605, Note_on_c, 0, 54, 60
1, 133605, Note_on_c, 0, 48, 0
1, 133608, Note_on_c, 0, 44, 42
1, 133612, Control_c, 0, 64, 0
1, 133638, Control_c, 0, 64, 127
1, 133683, Note_on_c, 0, 54, 0
1, 133683, Note_on_c, 0, 66, 42
1, 133683, Note_on_c, 0, 44, 0
1, 133686, Note_on_c, 0, 51, 36
1, 133762, Note_on_c, 0, 66, 0
1, 133762, Note_on_c, 0, 60, 42
1, 133762, Note_on_c, 0, 63, 42
1, 133765, Note_on_c, 0, 51, 0
1, 133765, Note_on_c, 0, 48, 35
1, 133840, Note_on_c, 0, 63, 0
1, 133840, Note_on_c, 0, 60, 0
1, 133840, Note_on_c, 0, 66, 42
1, 133843, Note_on_c, 0, 48, 0
1, 133843, Note_on_c, 0, 51, 35
1, 133918, Note_on_c, 0, 66, 0
1, 133918, Note_on_c, 0, 55, 61
1, 133918, Note_on_c, 0, 51, 0
1, 133921, Note_on_c, 0, 43, 42
1, 133925, Control_c, 0, 64, 0
1, 133959, Control_c, 0, 64, 127
1, 133997, Note_on_c, 0, 55, 0
1, 133997, Note_on_c, 0, 67, 42
1, 133997, Note_on_c, 0, 43, 0
1, 134000, Note_on_c, 0, 52, 36
1, 134075, Note_on_c, 0, 67, 0
1, 134075, Note_on_c, 0, 60, 42
1, 134075, Note_on_c, 0, 64, 42
1, 134078, Note_on_c, 0, 52, 0
1, 134078, Note_on_c, 0, 48, 36
1, 134153, Note_on_c, 0, 64, 0
1, 134153, Note_on_c, 0, 60, 0
1, 134153, Note_on_c, 0, 67, 42
1, 134156, Note_on_c, 0, 48, 0
1, 134156, Note_on_c, 0, 52, 37
1, 134231, Note_on_c, 0, 67, 0
1, 134231, Note_on_c, 0, 55, 60
1, 134231, Note_on_c, 0, 52, 0
1, 134234, Note_on_c, 0, 43, 43
1, 134238, Control_c, 0, 64, 0
1, 134277, Control_c, 0, 64, 127
1, 134310, Note_on_c, 0, 55, 0
1, 134310, Note_on_c, 0, 67, 43
1, 134310, Note_on_c, 0, 43, 0
1, 134313, Note_on_c, 0, 53, 37
1, 134389, Note_on_c, 0, 67, 0
1, 134389, Note_on_c, 0, 59, 43
1, 134389, Note_on_c, 0, 62, 43
1, 134392, Note_on_c, 0, 53, 0
1, 134392, Note_on_c, 0, 50, 37
1, 134468, Note_on_c, 0, 62, 0
1, 134468, Note_on_c, 0, 59, 0
1, 134468, Note_on_c, 0, 67, 43
1, 134471, Note_on_c, 0, 50, 0
1, 134471, Note_on_c, 0, 53, 37
1, 134547, Note_on_c, 0, 67, 0
1, 134547, Note_on_c, 0, 60, 69
1, 134547, Note_on_c, 0, 53, 0
1, 134550, Control_c, 0, 64, 0
1, 134550, Note_on_c, 0, 48, 43
1, 134583, Control_c, 0, 64, 127
1, 134623, Note_on_c, 0, 60, 0
1, 134623, Note_on_c, 0, 72, 43
1, 134623, Note_on_c, 0, 48, 0
1, 134626, Note_on_c, 0, 55, 37
1, 134700, Note_on_c, 0, 72, 0
1, 134700, Note_on_c, 0, 67, 43
1, 134700, Note_on_c, 0, 64, 43
1, 134703, Note_on_c, 0, 55, 0
1, 134703, Note_on_c, 0, 52, 37
1, 134777, Note_on_c, 0, 64, 0
1, 134777, Note_on_c, 0, 67, 0
1, 134777, Note_on_c, 0, 72, 43
1, 134780, Note_on_c, 0, 52, 0
1, 134780, Note_on_c, 0, 55, 37
1, 134853, Note_on_c, 0, 72, 0
1, 134853, Note_on_c, 0, 60, 65
1, 134853, Note_on_c, 0, 55, 0
1, 134856, Note_on_c, 0, 44, 43
1, 134860, Control_c, 0, 64, 0
1, 134886, Control_c, 0, 64, 127
1, 134930, Note_on_c, 0, 60, 0
1, 134930, Note_on_c, 0, 72, 43
1, 134930, Note_on_c, 0, 44, 0
1, 134933, Note_on_c, 0, 54, 37
1, 135007, Note_on_c, 0, 72, 0
1, 135007, Note_on_c, 0, 63, 43
1, 135007, Note_on_c, 0, 66, 43
1, 135010, Note_on_c, 0, 54, 0
1, 135010, Note_on_c, 0, 51, 36
1, 135083, Note_on_c, 0, 66, 0
1, 135083, Note_on_c, 0, 63, 0
1, 135083, Note_on_c, 0, 72, 44
1, 135086, Note_on_c, 0, 51, 0
1, 135086, Note_on_c, 0, 54, 36
1, 135160, Note_on_c, 0, 72, 0
1, 135160, Note_on_c, 0, 60, 65
1, 135160, Note_on_c, 0, 54, 0
1, 135163, Note_on_c, 0, 43, 44
1, 135166, Control_c, 0, 64, 0
1, 135195, Control_c, 0, 64, 127
1, 135237, Note_on_c, 0, 60, 0
1, 135237, Note_on_c, 0, 72, 44
1, 135237, Note_on_c, 0, 43, 0
1, 135240, Note_on_c, 0, 55, 37
1, 135313, Note_on_c, 0, 72, 0
1, 135313, Note_on_c, 0, 64, 44
1, 135313, Note_on_c, 0, 67, 44
1, 135316, Note_on_c, 0, 55, 0
1, 135316, Note_on_c, 0, 48, 38
1, 135316, Note_on_c, 0, 52, 38
1, 135390, Note_on_c, 0, 67, 0
1, 135390, Note_on_c, 0, 64, 0
1, 135390, Note_on_c, 0, 72, 44
1, 135393, Note_on_c, 0, 52, 0
1, 135393, Note_on_c, 0, 48, 0
1, 135393, Note_on_c, 0, 55, 39
1, 135467, Note_on_c, 0, 72, 0
1, 135467, Note_on_c, 0, 59, 63
1, 135467, Note_on_c, 0, 55, 0
1, 135470, Note_on_c, 0, 43, 45
1, 135473, Control_c, 0, 64, 0
1, 135512, Control_c, 0, 64, 127
1, 135545, Note_on_c, 0, 59, 0
1, 135545, Note_on_c, 0, 71, 44
1, 135545, Note_on_c, 0, 43, 0
1, 135548, Note_on_c, 0, 55, 38
1, 135623, Note_on_c, 0, 71, 0
1, 135623, Note_on_c, 0, 62, 44
1, 135623, Note_on_c, 0, 67, 44
1, 135626, Note_on_c, 0, 55, 0
1, 135626, Note_on_c, 0, 47, 38
1, 135626, Note_on_c, 0, 50, 38
1, 135701, Note_on_c, 0, 67, 0
1, 135701, Note_on_c, 0, 62, 0
1, 135701, Note_on_c, 0, 71, 44
1, 135704, Note_on_c, 0, 50, 0
1, 135704, Note_on_c, 0, 47, 0
1, 135704, Note_on_c, 0, 55, 38
1, 135779, Note_on_c, 0, 71, 0
1, 135779, Note_on_c, 0, 64, 71
1, 135779, Note_on_c, 0, 55, 0
1, 135782, Control_c, 0, 64, 0
1, 135782, Note_on_c, 0, 48, 51
1, 135816, Control_c, 0, 64, 127
1, 135858, Note_on_c, 0, 64, 0
1, 135858, Note_on_c, 0, 76, 51
1, 135858, Note_on_c, 0, 48, 0
1, 135861, Note_on_c, 0, 60, 43
1, 135936, Note_on_c, 0, 76, 0
1, 135936, Note_on_c, 0, 72, 51
1, 135936, Note_on_c, 0, 67, 51
1, 135939, Note_on_c, 0, 60, 0
1, 135939, Note_on_c, 0, 55, 43
1, 136015, Note_on_c, 0, 67, 0
1, 136015, Note_on_c, 0, 72, 0
1, 136015, Note_on_c, 0, 76, 51
1, 136018, Note_on_c, 0, 55, 0
1, 136018, Note_on_c, 0, 60, 43
1, 136094, Note_on_c, 0, 76, 0
1, 136094, Note_on_c, 0, 66, 73
1, 136094, Note_on_c, 0, 60, 0
1, 136097, Note_on_c, 0, 56, 52
1, 136101, Control_c, 0, 64, 0
1, 136127, Control_c, 0, 64, 127
1, 136171, Note_on_c, 0, 66, 0
1, 136171, Note_on_c, 0, 78, 52
1, 136171, Note_on_c, 0, 56, 0
1, 136174, Note_on_c, 0, 63, 44
1, 136248, Note_on_c, 0, 78, 0
1, 136248, Note_on_c, 0, 72, 52
1, 136248, Note_on_c, 0, 75, 52
1, 136251, Note_on_c, 0, 63, 0
1, 136251, Note_on_c, 0, 60, 43
1, 136325, Note_on_c, 0, 75, 0
1, 136325, Note_on_c, 0, 72, 0
1, 136325, Note_on_c, 0, 78, 52
1, 136328, Note_on_c, 0, 60, 0
1, 136328, Note_on_c, 0, 63, 43
1, 136402, Note_on_c, 0, 78, 0
1, 136402, Note_on_c, 0, 67, 76
1, 136402, Note_on_c, 0, 63, 0
1, 136405, Note_on_c, 0, 55, 53
1, 136408, Control_c, 0, 64, 0
1, 136442, Control_c, 0, 64, 127
1, 136479, Note_on_c, 0, 67, 0
1, 136479, Note_on_c, 0, 79, 53
1, 136479, Note_on_c, 0, 55, 0
1, 136482, Note_on_c, 0, 64, 45
1, 136556, Note_on_c, 0, 79, 0
1, 136556, Note_on_c, 0, 72, 53
1, 136556, Note_on_c, 0, 76, 53
1, 136559, Note_on_c, 0, 64, 0
1, 136559, Note_on_c, 0, 60, 45
1, 136633, Note_on_c, 0, 76, 0
1, 136633, Note_on_c, 0, 72, 0
1, 136633, Note_on_c, 0, 79, 54
1, 136636, Note_on_c, 0, 60, 0
1, 136636, Note_on_c, 0, 64, 47
1, 136709, Note_on_c, 0, 79, 0
1, 136709, Note_on_c, 0, 67, 77
1, 136709, Note_on_c, 0, 64, 0
1, 136712, Note_on_c, 0, 55, 56
1, 136716, Control_c, 0, 64, 0
1, 136755, Control_c, 0, 64, 127
1, 136788, Note_on_c, 0, 67, 0
1, 136788, Note_on_c, 0, 79, 54
1, 136788, Note_on_c, 0, 55, 0
1, 136791, Note_on_c, 0, 65, 46
1, 136867, Note_on_c, 0, 79, 0
1, 136867, Note_on_c, 0, 71, 55
1, 136867, Note_on_c, 0, 74, 55
1, 136870, Note_on_c, 0, 65, 0
1, 136870, Note_on_c, 0, 62, 47
1, 136945, Note_on_c, 0, 74, 0
1, 136945, Note_on_c, 0, 71, 0
1, 136945, Note_on_c, 0, 79, 56
1, 136948, Note_on_c, 0, 62, 0
1, 136948, Note_on_c, 0, 65, 47
1, 137024, Note_on_c, 0, 79, 0
1, 137024, Note_on_c, 0, 72, 83
1, 137024, Note_on_c, 0, 65, 0
1, 137027, Control_c, 0, 64, 0
1, 137027, Note_on_c, 0, 60, 57
1, 137060, Control_c, 0, 64, 127
1, 137101, Note_on_c, 0, 72, 0
1, 137101, Note_on_c, 0, 84, 57
1, 137101, Note_on_c, 0, 60, 0
1, 137104, Note_on_c, 0, 67, 47
1, 137177, Note_on_c, 0, 84, 0
1, 137177, Note_on_c, 0, 79, 57
1, 137177, Note_on_c, 0, 76, 57
1, 137180, Note_on_c, 0, 67, 0
1, 137180, Note_on_c, 0, 64, 48
1, 137254, Note_on_c, 0, 76, 0
1, 137254, Note_on_c, 0, 79, 0
1, 137254, Note_on_c, 0, 84, 57
1, 137257, Note_on_c, 0, 64, 0
1, 137257, Note_on_c, 0, 67, 48
1, 137331, Note_on_c, 0, 84, 0
1, 137331, Note_on_c, 0, 72, 82
1, 137331, Note_on_c, 0, 67, 0
1, 137334, Note_on_c, 0, 56, 58
1, 137338, Control_c, 0, 64, 0
1, 137364, Control_c, 0, 64, 127
1, 137408, Note_on_c, 0, 72, 0
1, 137408, Note_on_c, 0, 84, 58
1, 137408, Note_on_c, 0, 56, 0
1, 137411, Note_on_c, 0, 66, 49
1, 137485, Note_on_c, 0, 84, 0
1, 137485, Note_on_c, 0, 75, 58
1, 137485, Note_on_c, 0, 78, 58
1, 137488, Note_on_c, 0, 66, 0
1, 137488, Note_on_c, 0, 63, 48
1, 137562, Note_on_c, 0, 78, 0
1, 137562, Note_on_c, 0, 75, 0
1, 137562, Note_on_c, 0, 84, 58
1, 137565, Note_on_c, 0, 63, 0
1, 137565, Note_on_c, 0, 66, 48
1, 137639, Note_on_c, 0, 84, 0
1, 137639, Note_on_c, 0, 72, 84
1, 137639, Note_on_c, 0, 66, 0
1, 137642, Note_on_c, 0, 55, 60
1, 137645, Control_c, 0, 64, 0
1, 137674, Control_c, 0, 64, 127
1, 137716, Note_on_c, 0, 72, 0
1, 137716, Note_on_c, 0, 84, 59
1, 137716, Note_on_c, 0, 55, 0
1, 137719, Note_on_c, 0, 67, 50
1, 137793, Note_on_c, 0, 84, 0
1, 137793, Note_on_c, 0, 76, 59
1, 137793, Note_on_c, 0, 79, 59
1, 137796, Note_on_c, 0, 67, 0
1, 137796, Note_on_c, 0, 60, 50
1, 137796, Note_on_c, 0, 64, 50
1, 137870, Note_on_c, 0, 79, 0
1, 137870, Note_on_c, 0, 76, 0
1, 137870, Note_on_c, 0, 84, 60
1, 137873, Note_on_c, 0, 64, 0
1, 137873, Note_on_c, 0, 60, 0
1, 137873, Note_on_c, 0, 67, 52
1, 137947, Note_on_c, 0, 84, 0
1, 137947, Note_on_c, 0, 71, 79
1, 137947, Note_on_c, 0, 67, 0
1, 137950, Note_on_c, 0, 55, 62
1, 137953, Control_c, 0, 64, 0
1, 137992, Control_c, 0, 64, 127
1, 138025, Note_on_c, 0, 71, 0
1, 138025, Note_on_c, 0, 83, 60
1, 138025, Note_on_c, 0, 55, 0
1, 138028, Note_on_c, 0, 67, 51
1, 138103, Note_on_c, 0, 83, 0
1, 138103, Note_on_c, 0, 74, 61
1, 138103, Note_on_c, 0, 79, 61
1, 138106, Note_on_c, 0, 67, 0
1, 138106, Note_on_c, 0, 59, 52
1, 138106, Note_on_c, 0, 62, 52
1, 138182, Note_on_c, 0, 79, 0
1, 138182, Note_on_c, 0, 74, 0
1, 138182, Note_on_c, 0, 83, 62
1, 138185, Note_on_c, 0, 62, 0
1, 138185, Note_on_c, 0, 59, 0
1, 138185, Note_on_c, 0, 67, 52
1, 138260, Note_on_c, 0, 83, 0
1, 138260, Note_on_c, 0, 76, 81
1, 138260, Note_on_c, 0, 67, 0
1, 138263, Control_c, 0, 64, 0
1, 138263, Note_on_c, 0, 60, 59
1, 138297, Control_c, 0, 64, 127
1, 138337, Note_on_c, 0, 76, 0
1, 138337, Note_on_c, 0, 88, 59
1, 138337, Note_on_c, 0, 60, 0
1, 138340, Note_on_c, 0, 72, 49
1, 138414, Note_on_c, 0, 88, 0
1, 138414, Note_on_c, 0, 84, 59
1, 138414, Note_on_c, 0, 79, 59
1, 138417, Note_on_c, 0, 72, 0
1, 138417, Note_on_c, 0, 67, 49
1, 138491, Note_on_c, 0, 79, 0
1, 138491, Note_on_c, 0, 84, 0
1, 138491, Note_on_c, 0, 88, 60
1, 138494, Note_on_c, 0, 67, 0
1, 138494, Note_on_c, 0, 72, 50
1, 138569, Note_on_c, 0, 88, 0
1, 138569, Note_on_c, 0, 78, 82
1, 138569, Note_on_c, 0, 72, 0
1, 138572, Note_on_c, 0, 68, 60
1, 138576, Control_c, 0, 64, 0
1, 138601, Control_c, 0, 64, 127
1, 138645, Note_on_c, 0, 78, 0
1, 138645, Note_on_c, 0, 90, 60
1, 138645, Note_on_c, 0, 68, 0
1, 138648, Note_on_c, 0, 75, 50
1, 138720, Note_on_c, 0, 90, 0
1, 138720, Note_on_c, 0, 84, 60
1, 138720, Note_on_c, 0, 87, 60
1, 138723, Note_on_c, 0, 75, 0
1, 138723, Note_on_c, 0, 72, 50
1, 138796, Note_on_c, 0, 87, 0
1, 138796, Note_on_c, 0, 84, 0
1, 138796, Note_on_c, 0, 90, 60
1, 138799, Note_on_c, 0, 72, 0
1, 138799, Note_on_c, 0, 75, 50
1, 138872, Note_on_c, 0, 90, 0
1, 138872, Note_on_c, 0, 79, 84
1, 138872, Note_on_c, 0, 75, 0
1, 138875, Note_on_c, 0, 67, 62
1, 138879, Control_c, 0, 64, 0
1, 138912, Control_c, 0, 64, 127
1, 138948, Note_on_c, 0, 79, 0
1, 138948, Note_on_c, 0, 91, 61
1, 138948, Note_on_c, 0, 67, 0
1, 138951, Note_on_c, 0, 76, 52
1, 139024, Note_on_c, 0, 91, 0
1, 139024, Note_on_c, 0, 84, 61
1, 139024, Note_on_c, 0, 88, 61
1, 139027, Note_on_c, 0, 76, 0
1, 139027, Note_on_c, 0, 72, 52
1, 139100, Note_on_c, 0, 88, 0
1, 139100, Note_on_c, 0, 84, 0
1, 139100, Note_on_c, 0, 91, 62
1, 139103, Note_on_c, 0, 72, 0
1, 139103, Note_on_c, 0, 76, 54
1, 139176, Note_on_c, 0, 91, 0
1, 139176, Note_on_c, 0, 79, 85
1, 139176, Note_on_c, 0, 76, 0
1, 139179, Note_on_c, 0, 67, 65
1, 139182, Control_c, 0, 64, 0
1, 139220, Control_c, 0, 64, 127
1, 139253, Note_on_c, 0, 79, 0
1, 139253, Note_on_c, 0, 91, 62
1, 139253, Note_on_c, 0, 67, 0
1, 139256, Note_on_c, 0, 74, 53
1, 139330, Note_on_c, 0, 91, 0
1, 139330, Note_on_c, 0, 83, 63
1, 139330, Note_on_c, 0, 86, 63
1, 139333, Note_on_c, 0, 74, 0
1, 139333, Note_on_c, 0, 71, 53
1, 139407, Note_on_c, 0, 86, 0
1, 139407, Note_on_c, 0, 83, 0
1, 139407, Note_on_c, 0, 91, 64
1, 139410, Note_on_c, 0, 71, 0
1, 139410, Note_on_c, 0, 74, 54
1, 139485, Note_on_c, 0, 91, 0
1, 139485, Note_on_c, 0, 79, 89
1, 139485, Note_on_c, 0, 74, 0
1, 139488, Control_c, 0, 64, 0
1, 139488, Note_on_c, 0, 55, 70
1, 139520, Control_c, 0, 64, 127
1, 139560, Note_on_c, 0, 79, 0
1, 139560, Note_on_c, 0, 91, 70
1, 139560, Note_on_c, 0, 55, 0
1, 139563, Note_on_c, 0, 67, 58
1, 139635, Note_on_c, 0, 91, 0
1, 139635, Note_on_c, 0, 88, 71
1, 139635, Note_on_c, 0, 84, 71
1, 139638, Note_on_c, 0, 67, 0
1, 139638, Note_on_c, 0, 60, 58
1, 139638, Note_on_c, 0, 64, 58
1, 139711, Note_on_c, 0, 84, 0
1, 139711, Note_on_c, 0, 88, 0
1, 139711, Note_on_c, 0, 91, 72
1, 139714, Note_on_c, 0, 64, 0
1, 139714, Note_on_c, 0, 60, 0
1, 139714, Note_on_c, 0, 67, 59
1, 139786, Note_on_c, 0, 91, 0
1, 139786, Note_on_c, 0, 79, 94
1, 139786, Note_on_c, 0, 67, 0
1, 139789, Note_on_c, 0, 55, 72
1, 139793, Control_c, 0, 64, 0
1, 139818, Control_c, 0, 64, 127
1, 139860, Note_on_c, 0, 79, 0
1, 139860, Note_on_c, 0, 91, 73
1, 139860, Note_on_c, 0, 55, 0
1, 139863, Note_on_c, 0, 67, 60
1, 139934, Note_on_c, 0, 91, 0
1, 139934, Note_on_c, 0, 83, 73
1, 139934, Note_on_c, 0, 86, 73
1, 139937, Note_on_c, 0, 67, 0
1, 139937, Note_on_c, 0, 59, 59
1, 139937, Note_on_c, 0, 62, 59
1, 140009, Note_on_c, 0, 86, 0
1, 140009, Note_on_c, 0, 83, 0
1, 140009, Note_on_c, 0, 91, 74
1, 140012, Note_on_c, 0, 62, 0
1, 140012, Note_on_c, 0, 59, 0
1, 140012, Note_on_c, 0, 67, 62
1, 140083, Note_on_c, 0, 91, 0
1, 140083, Note_on_c, 0, 79, 100
1, 140083, Note_on_c, 0, 67, 0
1, 140086, Note_on_c, 0, 43, 77
1, 140089, Control_c, 0, 64, 0
1, 140117, Control_c, 0, 64, 127
1, 140157, Note_on_c, 0, 79, 0
1, 140157, Note_on_c, 0, 91, 76
1, 140157, Note_on_c, 0, 43, 0
1, 140160, Note_on_c, 0, 55, 65
1, 140231, Note_on_c, 0, 91, 0
1, 140231, Note_on_c, 0, 84, 77
1, 140231, Note_on_c, 0, 88, 77
1, 140234, Note_on_c, 0, 55, 0
1, 140234, Note_on_c, 0, 48, 65
1, 140234, Note_on_c, 0, 52, 65
1, 140305, Note_on_c, 0, 88, 0
1, 140305, Note_on_c, 0, 84, 0
1, 140305, Note_on_c, 0, 91, 79
1, 140308, Note_on_c, 0, 52, 0
1, 140308, Note_on_c, 0, 48, 0
1, 140308, Note_on_c, 0, 55, 67
1, 140379, Note_on_c, 0, 91, 0
1, 140379, Note_on_c, 0, 79, 103
1, 140379, Note_on_c, 0, 55, 0
1, 140382, Note_on_c, 0, 43, 83
1, 140386, Control_c, 0, 64, 0
1, 140423, Control_c, 0, 64, 127
1, 140455, Note_on_c, 0, 79, 0
1, 140455, Note_on_c, 0, 91, 80
1, 140455, Note_on_c, 0, 43, 0
1, 140458, Note_on_c, 0, 55, 68
1, 140530, Note_on_c, 0, 91, 0
1, 140530, Note_on_c, 0, 83, 81
1, 140530, Note_on_c, 0, 86, 81
1, 140533, Note_on_c, 0, 55, 0
1, 140533, Note_on_c, 0, 47, 68
1, 140533, Note_on_c, 0, 50, 68
1, 140605, Note_on_c, 0, 86, 0
1, 140605, Note_on_c, 0, 83, 0
1, 140605, Note_on_c, 0, 91, 84
1, 140608, Note_on_c, 0, 50, 0
1, 140608, Note_on_c, 0, 47, 0
1, 140608, Note_on_c, 0, 55, 70
1, 140681, Note_on_c, 0, 91, 0
1, 140681, Note_on_c, 0, 88, 107
1, 140681, Note_on_c, 0, 84, 92
1, 140684, Note_on_c, 0, 79, 92
1, 140684, Note_on_c, 0, 55, 0
1, 140684, Control_c, 0, 64, 0
1, 140687, Note_on_c, 0, 36, 74
1, 140687, Note_on_c, 0, 48, 86
1, 140726, Control_c, 0, 64, 127
1, 140757, Note_on_c, 0, 79, 0
1, 140757, Note_on_c, 0, 84, 0
1, 140757, Note_on_c, 0, 88, 0
1, 140760, Note_on_c, 0, 91, 99
1, 140833, Note_on_c, 0, 91, 0
1, 140833, Note_on_c, 0, 86, 108
1, 140833, Note_on_c, 0, 83, 92
1, 140836, Note_on_c, 0, 79, 92
1, 140836, Note_on_c, 0, 48, 0
1, 140836, Note_on_c, 0, 36, 0
1, 140839, Note_on_c, 0, 31, 68
1, 140839, Note_on_c, 0, 43, 80
1, 140909, Note_on_c, 0, 79, 0
1, 140909, Note_on_c, 0, 83, 0
1, 140909, Note_on_c, 0, 86, 0
1, 140912, Note_on_c, 0, 91, 101
1, 140985, Note_on_c, 0, 91, 0
1, 140985, Note_on_c, 0, 88, 109
1, 140985, Note_on_c, 0, 84, 95
1, 140988, Note_on_c, 0, 79, 95
1, 140988, Note_on_c, 0, 43, 0
1, 140988, Note_on_c, 0, 31, 0
1, 140991, Note_on_c, 0, 36, 76
1, 140991, Note_on_c, 0, 48, 89
1, 141060, Note_on_c, 0, 79, 0
1, 141060, Note_on_c, 0, 84, 0
1, 141060, Note_on_c, 0, 88, 0
1, 141063, Note_on_c, 0, 91, 103
1, 141136, Note_on_c, 0, 91, 0
1, 141136, Note_on_c, 0, 86, 111
1, 141136, Note_on_c, 0, 83, 96
1, 141139, Note_on_c, 0, 79, 96
1, 141139, Note_on_c, 0, 48, 0
1, 141139, Note_on_c, 0, 36, 0
1, 141142, Note_on_c, 0, 31, 70
1, 141142, Note_on_c, 0, 43, 83
1, 141211, Note_on_c, 0, 79, 0
1, 141211, Note_on_c, 0, 83, 0
1, 141211, Note_on_c, 0, 86, 0
1, 141214, Note_on_c, 0, 91, 104
1, 141286, Note_on_c, 0, 91, 0
1, 141286, Note_on_c, 0, 88, 113
1, 141286, Note_on_c, 0, 84, 97
1, 141289, Note_on_c, 0, 79, 97
1, 141289, Note_on_c, 0, 43, 0
1, 141289, Note_on_c, 0, 31, 0
1, 141292, Note_on_c, 0, 36, 79
1, 141292, Note_on_c, 0, 48, 91
1, 141295, Control_c, 0, 64, 0
1, 141321, Control_c, 0, 64, 127
1, 141362, Note_on_c, 0, 79, 0
1, 141362, Note_on_c, 0, 84, 0
1, 141362, Note_on_c, 0, 88, 0
1, 141365, Note_on_c, 0, 91, 106
1, 141438, Note_on_c, 0, 91, 0
1, 141438, Note_on_c, 0, 86, 115
1, 141438, Note_on_c, 0, 83, 99
1, 141441, Note_on_c, 0, 79, 99
1, 141441, Note_on_c, 0, 48, 0
1, 141441, Note_on_c, 0, 36, 0
1, 141444, Note_on_c, 0, 31, 73
1, 141444, Note_on_c, 0, 43, 85
1, 141515, Note_on_c, 0, 79, 0
1, 141515, Note_on_c, 0, 83, 0
1, 141515, Note_on_c, 0, 86, 0
1, 141518, Note_on_c, 0, 91, 111
1, 141593, Note_on_c, 0, 91, 0
1, 141593, Note_on_c, 0, 88, 117
1, 141593, Note_on_c, 0, 84, 100
1, 141596, Note_on_c, 0, 79, 100
1, 141596, Note_on_c, 0, 43, 0
1, 141596, Note_on_c, 0, 31, 0
1, 141599, Note_on_c, 0, 36, 81
1, 141599, Note_on_c, 0, 48, 95
1, 141672, Note_on_c, 0, 79, 0
1, 141672, Note_on_c, 0, 84, 0
1, 141672, Note_on_c, 0, 88, 0
1, 141675, Note_on_c, 0, 91, 109
1, 141752, Note_on_c, 0, 91, 0
1, 141752, Note_on_c, 0, 86, 118
1, 141752, Note_on_c, 0, 83, 101
1, 141755, Note_on_c, 0, 79, 101
1, 141755, Note_on_c, 0, 48, 0
1, 141755, Note_on_c, 0, 36, 0
1, 141758, Note_on_c, 0, 31, 74
1, 141758, Note_on_c, 0, 43, 86
1, 141834, Note_on_c, 0, 79, 0
1, 141834, Note_on_c, 0, 83, 0
1, 141834, Note_on_c, 0, 86, 0
1, 141837, Note_on_c, 0, 91, 110
1, 141918, Note_on_c, 0, 91, 0
1, 141918, Note_on_c, 0, 72, 93
1, 141918, Note_on_c, 0, 76, 93
1, 141921, Note_on_c, 0, 79, 103
1, 141921, Note_on_c, 0, 84, 120
1, 141921, Note_on_c, 0, 43, 0
1, 141924, Note_on_c, 0, 31, 0
1, 141924, Control_c, 0, 64, 0
1, 141924, Note_on_c, 0, 36, 78
1, 141927, Note_on_c, 0, 40, 86
1, 141927, Note_on_c, 0, 43, 86
1, 141927, Note_on_c, 0, 48, 100
1, 141977, Control_c, 0, 64, 127
1, 142001, Note_on_c, 0, 84, 0
1, 142001, Note_on_c, 0, 72, 0
1, 142001, Note_on_c, 0, 76, 0
1, 142004, Note_on_c, 0, 79, 0
1, 142004, Note_on_c, 0, 48, 0
1, 142004, Note_on_c, 0, 36, 0
1, 142007, Note_on_c, 0, 40, 0
1, 142007, Note_on_c, 0, 43, 0
1, 142083, Note_on_c, 0, 84, 93
1, 142083, Note_on_c, 0, 72, 78
1, 142160, Note_on_c, 0, 84, 0
1, 142160, Note_on_c, 0, 79, 91
1, 142160, Note_on_c, 0, 72, 0
1, 142163, Note_on_c, 0, 67, 77
1, 142236, Note_on_c, 0, 79, 0
1, 142236, Note_on_c, 0, 76, 91
1, 142236, Note_on_c, 0, 67, 0
1, 142239, Note_on_c, 0, 64, 75
1, 142312, Note_on_c, 0, 76, 0
1, 142312, Note_on_c, 0, 72, 90
1, 142312, Note_on_c, 0, 64, 0
1, 142315, Note_on_c, 0, 60, 74
1, 142388, Note_on_c, 0, 72, 0
1, 142388, Note_on_c, 0, 67, 88
1, 142388, Note_on_c, 0, 60, 0
1, 142391, Note_on_c, 0, 55, 73
1, 142464, Note_on_c, 0, 67, 0
1, 142464, Note_on_c, 0, 64, 86
1, 142464, Note_on_c, 0, 55, 0
1, 142467, Note_on_c, 0, 52, 73
1, 142540, Note_on_c, 0, 64, 0
1, 142540, Note_on_c, 0, 60, 83
1, 142540, Note_on_c, 0, 52, 0
1, 142543, Note_on_c, 0, 48, 70
1, 142615, Note_on_c, 0, 60, 0
1, 142615, Note_on_c, 0, 55, 84
1, 142615, Note_on_c, 0, 48, 0
1, 142618, Note_on_c, 0, 43, 71
1, 142691, Note_on_c, 0, 55, 0
1, 142691, Note_on_c, 0, 60, 85
1, 142691, Note_on_c, 0, 43, 0
1, 142694, Note_on_c, 0, 48, 72
1, 142767, Note_on_c, 0, 60, 0
1, 142767, Note_on_c, 0, 64, 86
1, 142767, Note_on_c, 0, 48, 0
1, 142770, Note_on_c, 0, 52, 73
1, 142843, Note_on_c, 0, 64, 0
1, 142843, Note_on_c, 0, 67, 87
1, 142843, Note_on_c, 0, 52, 0
1, 142846, Note_on_c, 0, 55, 74
1, 142920, Note_on_c, 0, 67, 0
1, 142920, Note_on_c, 0, 72, 88
1, 142920, Note_on_c, 0, 55, 0
1, 142923, Note_on_c, 0, 60, 75
1, 142998, Note_on_c, 0, 72, 0
1, 142998, Note_on_c, 0, 76, 89
1, 142998, Note_on_c, 0, 60, 0
1, 143001, Note_on_c, 0, 64, 76
1, 143076, Note_on_c, 0, 76, 0
1, 143076, Note_on_c, 0, 79, 90
1, 143076, Note_on_c, 0, 64, 0
1, 143079, Note_on_c, 0, 67, 77
1, 143155, Note_on_c, 0, 79, 0
1, 143155, Note_on_c, 0, 72, 95
1, 143155, Note_on_c, 0, 76, 95
1, 143158, Note_on_c, 0, 79, 95
1, 143158, Note_on_c, 0, 84, 111
1, 143158, Note_on_c, 0, 67, 0
1, 143161, Control_c, 0, 64, 0
1, 143161, Note_on_c, 0, 60, 78
1, 143161, Note_on_c, 0, 64, 78
1, 143164, Note_on_c, 0, 67, 78
1, 143164, Note_on_c, 0, 72, 90
1, 143214, Control_c, 0, 64, 127
1, 143238, Note_on_c, 0, 84, 0
1, 143238, Note_on_c, 0, 72, 0
1, 143238, Note_on_c, 0, 76, 0
1, 143241, Note_on_c, 0, 79, 0
1, 143241, Note_on_c, 0, 72, 0
1, 143241, Note_on_c, 0, 60, 0
1, 143244, Note_on_c, 0, 64, 0
1, 143244, Note_on_c, 0, 67, 0
1, 143320, Note_on_c, 0, 88, 93
1, 143320, Note_on_c, 0, 76, 78
1, 143397, Note_on_c, 0, 88, 0
1, 143397, Note_on_c, 0, 84, 91
1, 143397, Note_on_c, 0, 76, 0
1, 143400, Note_on_c, 0, 72, 77
1, 143473, Note_on_c, 0, 84, 0
1, 143473, Note_on_c, 0, 79, 91
1, 143473, Note_on_c, 0, 72, 0
1, 143476, Note_on_c, 0, 67, 75
1, 143549, Note_on_c, 0, 79, 0
1, 143549, Note_on_c, 0, 76, 90
1, 143549, Note_on_c, 0, 67, 0
1, 143552, Note_on_c, 0, 64, 74
1, 143625, Note_on_c, 0, 76, 0
1, 143625, Note_on_c, 0, 72, 88
1, 143625, Note_on_c, 0, 64, 0
1, 143628, Note_on_c, 0, 60, 73
1, 143700, Note_on_c, 0, 72, 0
1, 143700, Note_on_c, 0, 67, 86
1, 143700, Note_on_c, 0, 60, 0
1, 143703, Note_on_c, 0, 55, 73
1, 143776, Note_on_c, 0, 67, 0
1, 143776, Note_on_c, 0, 64, 83
1, 143776, Note_on_c, 0, 55, 0
1, 143779, Note_on_c, 0, 52, 70
1, 143851, Note_on_c, 0, 64, 0
1, 143851, Note_on_c, 0, 60, 84
1, 143851, Note_on_c, 0, 52, 0
1, 143854, Note_on_c, 0, 48, 71
1, 143927, Note_on_c, 0, 60, 0
1, 143927, Note_on_c, 0, 64, 85
1, 143927, Note_on_c, 0, 48, 0
1, 143930, Note_on_c, 0, 52, 72
1, 144003, Note_on_c, 0, 64, 0
1, 144003, Note_on_c, 0, 67, 86
1, 144003, Note_on_c, 0, 52, 0
1, 144006, Note_on_c, 0, 55, 73
1, 144079, Note_on_c, 0, 67, 0
1, 144079, Note_on_c, 0, 72, 87
1, 144079, Note_on_c, 0, 55, 0
1, 144082, Note_on_c, 0, 60, 74
1, 144156, Note_on_c, 0, 72, 0
1, 144156, Note_on_c, 0, 76, 88
1, 144156, Note_on_c, 0, 60, 0
1, 144159, Note_on_c, 0, 64, 75
1, 144233, Note_on_c, 0, 76, 0
1, 144233, Note_on_c, 0, 79, 89
1, 144233, Note_on_c, 0, 64, 0
1, 144236, Note_on_c, 0, 67, 76
1, 144311, Note_on_c, 0, 79, 0
1, 144311, Note_on_c, 0, 84, 90
1, 144311, Note_on_c, 0, 67, 0
1, 144314, Note_on_c, 0, 72, 77
1, 144390, Note_on_c, 0, 84, 0
1, 144390, Note_on_c, 0, 76, 95
1, 144390, Note_on_c, 0, 79, 95
1, 144393, Note_on_c, 0, 84, 95
1, 144393, Note_on_c, 0, 88, 111
1, 144393, Note_on_c, 0, 72, 0
1, 144396, Control_c, 0, 64, 0
1, 144396, Note_on_c, 0, 64, 78
1, 144396, Note_on_c, 0, 67, 78
1, 144399, Note_on_c, 0, 72, 78
1, 144399, Note_on_c, 0, 76, 90
1, 144449, Control_c, 0, 64, 127
1, 144473, Note_on_c, 0, 88, 0
1, 144473, Note_on_c, 0, 76, 0
1, 144473, Note_on_c, 0, 79, 0
1, 144476, Note_on_c, 0, 84, 0
1, 144476, Note_on_c, 0, 76, 0
1, 144476, Note_on_c, 0, 64, 0
1, 144479, Note_on_c, 0, 67, 0
1, 144479, Note_on_c, 0, 72, 0
1, 144556, Note_on_c, 0, 91, 93
1, 144556, Note_on_c, 0, 79, 78
1, 144632, Note_on_c, 0, 91, 0
1, 144632, Note_on_c, 0, 88, 91
1, 144632, Note_on_c, 0, 79, 0
1, 144635, Note_on_c, 0, 76, 77
1, 144708, Note_on_c, 0, 88, 0
1, 144708, Note_on_c, 0, 84, 91
1, 144708, Note_on_c, 0, 76, 0
1, 144711, Note_on_c, 0, 72, 75
1, 144784, Note_on_c, 0, 84, 0
1, 144784, Note_on_c, 0, 79, 90
1, 144784, Note_on_c, 0, 72, 0
1, 144787, Note_on_c, 0, 67, 74
1, 144860, Note_on_c, 0, 79, 0
1, 144860, Note_on_c, 0, 76, 88
1, 144860, Note_on_c, 0, 67, 0
1, 144863, Note_on_c, 0, 64, 73
1, 144936, Note_on_c, 0, 76, 0
1, 144936, Note_on_c, 0, 72, 86
1, 144936, Note_on_c, 0, 64, 0
1, 144939, Note_on_c, 0, 60, 73
1, 145011, Note_on_c, 0, 72, 0
1, 145011, Note_on_c, 0, 67, 83
1, 145011, Note_on_c, 0, 60, 0
1, 145014, Note_on_c, 0, 55, 70
1, 145086, Note_on_c, 0, 67, 0
1, 145086, Note_on_c, 0, 64, 84
1, 145086, Note_on_c, 0, 55, 0
1, 145089, Note_on_c, 0, 52, 71
1, 145162, Note_on_c, 0, 64, 0
1, 145162, Note_on_c, 0, 67, 85
1, 145162, Note_on_c, 0, 52, 0
1, 145165, Note_on_c, 0, 55, 72
1, 145237, Note_on_c, 0, 67, 0
1, 145237, Note_on_c, 0, 72, 86
1, 145237, Note_on_c, 0, 55, 0
1, 145240, Note_on_c, 0, 60, 73
1, 145314, Note_on_c, 0, 72, 0
1, 145314, Note_on_c, 0, 76, 87
1, 145314, Note_on_c, 0, 60, 0
1, 145317, Note_on_c, 0, 64, 74
1, 145390, Note_on_c, 0, 76, 0
1, 145390, Note_on_c, 0, 79, 88
1, 145390, Note_on_c, 0, 64, 0
1, 145393, Note_on_c, 0, 67, 75
1, 145467, Note_on_c, 0, 79, 0
1, 145467, Note_on_c, 0, 84, 89
1, 145467, Note_on_c, 0, 67, 0
1, 145470, Note_on_c, 0, 72, 76
1, 145545, Note_on_c, 0, 84, 0
1, 145545, Note_on_c, 0, 88, 90
1, 145545, Note_on_c, 0, 72, 0
1, 145548, Note_on_c, 0, 76, 77
1, 145626, Note_on_c, 0, 88, 0
1, 145626, Note_on_c, 0, 79, 95
1, 145626, Note_on_c, 0, 84, 95
1, 145629, Note_on_c, 0, 88, 95
1, 145629, Note_on_c, 0, 91, 111
1, 145629, Note_on_c, 0, 76, 0
1, 145632, Control_c, 0, 64, 0
1, 145632, Note_on_c, 0, 67, 78
1, 145632, Note_on_c, 0, 72, 78
1, 145635, Note_on_c, 0, 76, 78
1, 145635, Note_on_c, 0, 79, 90
1, 145685, Control_c, 0, 64, 127
1, 145709, Note_on_c, 0, 91, 0
1, 145709, Note_on_c, 0, 79, 0
1, 145709, Note_on_c, 0, 84, 0
1, 145712, Note_on_c, 0, 88, 0
1, 145712, Note_on_c, 0, 79, 0
1, 145712, Note_on_c, 0, 67, 0
1, 145715, Note_on_c, 0, 72, 0
1, 145715, Note_on_c, 0, 76, 0
1, 145791, Note_on_c, 0, 96, 93
1, 145791, Note_on_c, 0, 84, 78
1, 145868, Note_on_c, 0, 96, 0
1, 145868, Note_on_c, 0, 91, 91
1, 145868, Note_on_c, 0, 84, 0
1, 145871, Note_on_c, 0, 79, 77
1, 145945, Note_on_c, 0, 91, 0
1, 145945, Note_on_c, 0, 88, 91
1, 145945, Note_on_c, 0, 79, 0
1, 145948, Note_on_c, 0, 76, 75
1, 146021, Note_on_c, 0, 88, 0
1, 146021, Note_on_c, 0, 84, 90
1, 146021, Note_on_c, 0, 76, 0
1, 146024, Note_on_c, 0, 72, 74
1, 146097, Note_on_c, 0, 84, 0
1, 146097, Note_on_c, 0, 79, 88
1, 146097, Note_on_c, 0, 72, 0
1, 146100, Note_on_c, 0, 67, 73
1, 146173, Note_on_c, 0, 79, 0
1, 146173, Note_on_c, 0, 76, 86
1, 146173, Note_on_c, 0, 67, 0
1, 146176, Note_on_c, 0, 64, 73
1, 146248, Note_on_c, 0, 76, 0
1, 146248, Note_on_c, 0, 72, 83
1, 146248, Note_on_c, 0, 64, 0
1, 146251, Note_on_c, 0, 60, 70
1, 146324, Note_on_c, 0, 72, 0
1, 146324, Note_on_c, 0, 67, 84
1, 146324, Note_on_c, 0, 60, 0
1, 146327, Note_on_c, 0, 55, 71
1, 146399, Note_on_c, 0, 67, 0
1, 146399, Note_on_c, 0, 72, 85
1, 146399, Note_on_c, 0, 55, 0
1, 146402, Note_on_c, 0, 60, 72
1, 146475, Note_on_c, 0, 72, 0
1, 146475, Note_on_c, 0, 76, 86
1, 146475, Note_on_c, 0, 60, 0
1, 146478, Note_on_c, 0, 64, 73
1, 146552, Note_on_c, 0, 76, 0
1, 146552, Note_on_c, 0, 79, 87
1, 146552, Note_on_c, 0, 64, 0
1, 146555, Note_on_c, 0, 67, 74
1, 146628, Note_on_c, 0, 79, 0
1, 146628, Note_on_c, 0, 84, 88
1, 146628, Note_on_c, 0, 67, 0
1, 146631, Note_on_c, 0, 72, 75
1, 146705, Note_on_c, 0, 84, 0
1, 146705, Note_on_c, 0, 88, 89
1, 146705, Note_on_c, 0, 72, 0
1, 146708, Note_on_c, 0, 76, 76
1, 146784, Note_on_c, 0, 88, 0
1, 146784, Note_on_c, 0, 91, 90
1, 146784, Note_on_c, 0, 76, 0
1, 146787, Note_on_c, 0, 79, 77
1, 146865, Note_on_c, 0, 91, 0
1, 146865, Note_on_c, 0, 84, 95
1, 146865, Note_on_c, 0, 88, 95
1, 146868, Note_on_c, 0, 91, 95
1, 146868, Note_on_c, 0, 96, 111
1, 146868, Note_on_c, 0, 79, 0
1, 146871, Control_c, 0, 64, 0
1, 146871, Note_on_c, 0, 72, 78
1, 146871, Note_on_c, 0, 76, 78
1, 146874, Note_on_c, 0, 79, 78
1, 146874, Note_on_c, 0, 84, 90
1, 146925, Control_c, 0, 64, 127
1, 146950, Note_on_c, 0, 96, 0
1, 146950, Note_on_c, 0, 84, 0
1, 146950, Note_on_c, 0, 88, 0
1, 146953, Note_on_c, 0, 91, 0
1, 146953, Note_on_c, 0, 84, 0
1, 146953, Note_on_c, 0, 72, 0
1, 146956, Note_on_c, 0, 76, 0
1, 146956, Note_on_c, 0, 79, 0
1, 147036, Note_on_c, 0, 100, 99
1, 147036, Note_on_c, 0, 60, 83
1, 147113, Note_on_c, 0, 100, 0
1, 147113, Note_on_c, 0, 96, 97
1, 147113, Note_on_c, 0, 60, 0
1, 147116, Note_on_c, 0, 55, 81
1, 147189, Note_on_c, 0, 96, 0
1, 147189, Note_on_c, 0, 91, 94
1, 147189, Note_on_c, 0, 55, 0
1, 147192, Note_on_c, 0, 52, 79
1, 147266, Note_on_c, 0, 91, 0
1, 147266, Note_on_c, 0, 88, 91
1, 147266, Note_on_c, 0, 52, 0
1, 147269, Note_on_c, 0, 48, 77
1, 147342, Note_on_c, 0, 88, 0
1, 147342, Note_on_c, 0, 84, 89
1, 147342, Note_on_c, 0, 48, 0
1, 147345, Note_on_c, 0, 43, 75
1, 147418, Note_on_c, 0, 84, 0
1, 147418, Note_on_c, 0, 79, 86
1, 147418, Note_on_c, 0, 43, 0
1, 147421, Note_on_c, 0, 40, 73
1, 147493, Note_on_c, 0, 79, 0
1, 147493, Note_on_c, 0, 76, 83
1, 147493, Note_on_c, 0, 40, 0
1, 147496, Note_on_c, 0, 36, 70
1, 147569, Note_on_c, 0, 76, 0
1, 147569, Note_on_c, 0, 72, 84
1, 147569, Note_on_c, 0, 36, 0
1, 147572, Note_on_c, 0, 31, 71
1, 147644, Note_on_c, 0, 72, 0
1, 147644, Note_on_c, 0, 76, 85
1, 147644, Note_on_c, 0, 31, 0
1, 147647, Note_on_c, 0, 36, 72
1, 147720, Note_on_c, 0, 76, 0
1, 147720, Note_on_c, 0, 79, 86
1, 147720, Note_on_c, 0, 36, 0
1, 147723, Note_on_c, 0, 40, 73
1, 147797, Note_on_c, 0, 79, 0
1, 147797, Note_on_c, 0, 84, 87
1, 147797, Note_on_c, 0, 40, 0
1, 147800, Note_on_c, 0, 43, 74
1, 147874, Note_on_c, 0, 84, 0
1, 147874, Note_on_c, 0, 88, 88
1, 147874, Note_on_c, 0, 43, 0
1, 147877, Note_on_c, 0, 48, 75
1, 147951, Note_on_c, 0, 88, 0
1, 147951, Note_on_c, 0, 91, 89
1, 147951, Note_on_c, 0, 48, 0
1, 147954, Note_on_c, 0, 52, 76
1, 148030, Note_on_c, 0, 91, 0
1, 148030, Note_on_c, 0, 96, 90
1, 148030, Note_on_c, 0, 52, 0
1, 148033, Note_on_c, 0, 55, 77
1, 148110, Note_on_c, 0, 96, 0
1, 148110, Note_on_c, 0, 88, 97
1, 148110, Note_on_c, 0, 91, 97
1, 148113, Note_on_c, 0, 96, 97
1, 148113, Note_on_c, 0, 100, 113
1, 148113, Note_on_c, 0, 55, 0
1, 148116, Control_c, 0, 64, 0
1, 148116, Note_on_c, 0, 48, 81
1, 148116, Note_on_c, 0, 52, 81
1, 148119, Note_on_c, 0, 55, 81
1, 148119, Note_on_c, 0, 60, 94
1, 148255, Control_c, 0, 64, 127
1, 148437, Note_on_c, 0, 100, 0
1, 148437, Note_on_c, 0, 88, 0
1, 148437, Note_on_c, 0, 91, 0
1, 148440, Note_on_c, 0, 96, 0
1, 148440, Note_on_c, 0, 60, 0
1, 148440, Note_on_c, 0, 48, 0
1, 148443, Note_on_c, 0, 52, 0
1, 148443, Note_on_c, 0, 55, 0
1, 148456, Control_c, 0, 64, 0
1, 148764, Note_on_c, 0, 79, 99
1, 148764, Note_on_c, 0, 83, 99
1, 148764, Note_on_c, 0, 86, 99
1, 148767, Note_on_c, 0, 91, 116
1, 148767, Note_on_c, 0, 43, 81
1, 148767, Note_on_c, 0, 47, 81
1, 148770, Note_on_c, 0, 50, 81
1, 148770, Note_on_c, 0, 55, 94
1, 148927, Control_c, 0, 64, 127
1, 149091, Note_on_c, 0, 91, 0
1, 149091, Note_on_c, 0, 79, 0
1, 149091, Note_on_c, 0, 83, 0
1, 149094, Note_on_c, 0, 86, 0
1, 149094, Note_on_c, 0, 55, 0
1, 149094, Note_on_c, 0, 43, 0
1, 149097, Note_on_c, 0, 47, 0
1, 149097, Note_on_c, 0, 50, 0
1, 149109, Control_c, 0, 64, 0
1, 149417, Note_on_c, 0, 76, 99
1, 149417, Note_on_c, 0, 79, 99
1, 149417, Note_on_c, 0, 84, 99
1, 149420, Note_on_c, 0, 88, 116
1, 149420, Note_on_c, 0, 48, 81
1, 149420, Note_on_c, 0, 52, 81
1, 149423, Note_on_c, 0, 55, 81
1, 149423, Note_on_c, 0, 60, 94
1, 149490, Control_c, 0, 64, 127
1, 149744, Note_on_c, 0, 88, 0
1, 149744, Note_on_c, 0, 76, 0
1, 149744, Note_on_c, 0, 79, 0
1, 149747, Note_on_c, 0, 84, 0
1, 149747, Note_on_c, 0, 60, 0
1, 149747, Note_on_c, 0, 48, 0
1, 149750, Note_on_c, 0, 52, 0
1, 149750, Note_on_c, 0, 55, 0
1, 149799, Control_c, 0, 64, 0
1, 150071, Note_on_c, 0, 79, 99
1, 150071, Note_on_c, 0, 83, 99
1, 150071, Note_on_c, 0, 86, 99
1, 150074, Note_on_c, 0, 91, 116
1, 150074, Note_on_c, 0, 43, 81
1, 150074, Note_on_c, 0, 47, 81
1, 150077, Note_on_c, 0, 50, 81
1, 150077, Note_on_c, 0, 55, 94
1, 150234, Control_c, 0, 64, 127
1, 150398, Note_on_c, 0, 91, 0
1, 150398, Note_on_c, 0, 79, 0
1, 150398, Note_on_c, 0, 83, 0
1, 150401, Note_on_c, 0, 86, 0
1, 150401, Note_on_c, 0, 55, 0
1, 150401, Note_on_c, 0, 43, 0
1, 150404, Note_on_c, 0, 47, 0
1, 150404, Note_on_c, 0, 50, 0
1, 150525, Control_c, 0, 64, 0
1, 150723, Note_on_c, 0, 72, 66
1, 150723, Note_on_c, 0, 48, 55
1, 150745, Control_c, 0, 64, 127
1, 150801, Note_on_c, 0, 72, 0
1, 150801, Note_on_c, 0, 84, 67
1, 150801, Note_on_c, 0, 48, 0
1, 150804, Note_on_c, 0, 60, 58
1, 150879, Note_on_c, 0, 84, 0
1, 150879, Note_on_c, 0, 78, 70
1, 150879, Note_on_c, 0, 75, 60
1, 150882, Note_on_c, 0, 72, 60
1, 150882, Note_on_c, 0, 60, 0
1, 150882, Note_on_c, 0, 54, 60
1, 150885, Note_on_c, 0, 51, 53
1, 150885, Note_on_c, 0, 48, 53
1, 150956, Note_on_c, 0, 72, 0
1, 150956, Note_on_c, 0, 75, 0
1, 150956, Note_on_c, 0, 78, 0
1, 150959, Note_on_c, 0, 84, 73
1, 150959, Note_on_c, 0, 48, 0
1, 150959, Note_on_c, 0, 51, 0
1, 150962, Note_on_c, 0, 54, 0
1, 150962, Note_on_c, 0, 60, 63
1, 151032, Note_on_c, 0, 84, 0
1, 151032, Note_on_c, 0, 72, 64
1, 151032, Note_on_c, 0, 76, 64
1, 151035, Note_on_c, 0, 79, 75
1, 151035, Note_on_c, 0, 60, 0
1, 151035, Note_on_c, 0, 48, 57
1, 151038, Note_on_c, 0, 52, 57
1, 151038, Note_on_c, 0, 55, 65
1, 151038, Control_c, 0, 64, 0
1, 151071, Control_c, 0, 64, 127
1, 151108, Note_on_c, 0, 79, 0
1, 151108, Note_on_c, 0, 76, 0
1, 151108, Note_on_c, 0, 72, 0
1, 151111, Note_on_c, 0, 84, 77
1, 151111, Note_on_c, 0, 55, 0
1, 151111, Note_on_c, 0, 52, 0
1, 151114, Note_on_c, 0, 48, 0
1, 151114, Note_on_c, 0, 60, 69
1, 151184, Note_on_c, 0, 84, 0
1, 151184, Note_on_c, 0, 78, 80
1, 151184, Note_on_c, 0, 75, 69
1, 151187, Note_on_c, 0, 72, 69
1, 151187, Note_on_c, 0, 60, 0
1, 151187, Note_on_c, 0, 54, 72
1, 151190, Note_on_c, 0, 51, 62
1, 151190, Note_on_c, 0, 48, 62
1, 151260, Note_on_c, 0, 72, 0
1, 151260, Note_on_c, 0, 75, 0
1, 151260, Note_on_c, 0, 78, 0
1, 151263, Note_on_c, 0, 84, 82
1, 151263, Note_on_c, 0, 48, 0
1, 151263, Note_on_c, 0, 51, 0
1, 151266, Note_on_c, 0, 54, 0
1, 151266, Note_on_c, 0, 60, 74
1, 151336, Note_on_c, 0, 84, 0
1, 151336, Note_on_c, 0, 72, 72
1, 151336, Note_on_c, 0, 76, 72
1, 151339, Note_on_c, 0, 79, 84
1, 151339, Note_on_c, 0, 60, 0
1, 151339, Note_on_c, 0, 48, 66
1, 151342, Note_on_c, 0, 52, 66
1, 151342, Note_on_c, 0, 55, 76
1, 151342, Control_c, 0, 64, 0
1, 151362, Control_c, 0, 64, 127
1, 151413, Note_on_c, 0, 79, 0
1, 151413, Note_on_c, 0, 76, 0
1, 151413, Note_on_c, 0, 72, 0
1, 151416, Note_on_c, 0, 84, 87
1, 151416, Note_on_c, 0, 55, 0
1, 151416, Note_on_c, 0, 52, 0
1, 151419, Note_on_c, 0, 48, 0
1, 151419, Note_on_c, 0, 60, 80
1, 151489, Note_on_c, 0, 84, 0
1, 151489, Note_on_c, 0, 78, 90
1, 151489, Note_on_c, 0, 75, 77
1, 151492, Note_on_c, 0, 72, 77
1, 151492, Note_on_c, 0, 60, 0
1, 151492, Note_on_c, 0, 54, 83
1, 151495, Note_on_c, 0, 51, 71
1, 151495, Note_on_c, 0, 48, 71
1, 151566, Note_on_c, 0, 72, 0
1, 151566, Note_on_c, 0, 75, 0
1, 151566, Note_on_c, 0, 78, 0
1, 151569, Note_on_c, 0, 84, 93
1, 151569, Note_on_c, 0, 48, 0
1, 151569, Note_on_c, 0, 51, 0
1, 151572, Note_on_c, 0, 54, 0
1, 151572, Note_on_c, 0, 60, 85
1, 151644, Note_on_c, 0, 84, 0
1, 151644, Note_on_c, 0, 72, 81
1, 151644, Note_on_c, 0, 76, 81
1, 151647, Note_on_c, 0, 79, 95
1, 151647, Note_on_c, 0, 60, 0
1, 151647, Note_on_c, 0, 48, 75
1, 151650, Note_on_c, 0, 52, 75
1, 151650, Note_on_c, 0, 55, 86
1, 151650, Control_c, 0, 64, 0
1, 151657, Control_c, 0, 64, 127
1, 151722, Note_on_c, 0, 79, 0
1, 151722, Note_on_c, 0, 76, 0
1, 151722, Note_on_c, 0, 72, 0
1, 151725, Note_on_c, 0, 84, 92
1, 151725, Note_on_c, 0, 55, 0
1, 151725, Note_on_c, 0, 52, 0
1, 151728, Note_on_c, 0, 48, 0
1, 151728, Note_on_c, 0, 60, 84
1, 151802, Note_on_c, 0, 84, 0
1, 151802, Note_on_c, 0, 78, 90
1, 151802, Note_on_c, 0, 75, 78
1, 151805, Note_on_c, 0, 72, 78
1, 151805, Note_on_c, 0, 60, 0
1, 151805, Note_on_c, 0, 54, 82
1, 151808, Note_on_c, 0, 51, 70
1, 151808, Note_on_c, 0, 48, 70
1, 151884, Note_on_c, 0, 72, 0
1, 151884, Note_on_c, 0, 75, 0
1, 151884, Note_on_c, 0, 78, 0
1, 151887, Note_on_c, 0, 84, 88
1, 151887, Note_on_c, 0, 48, 0
1, 151887, Note_on_c, 0, 51, 0
1, 151890, Note_on_c, 0, 54, 0
1, 151890, Note_on_c, 0, 60, 80
1, 151968, Note_on_c, 0, 84, 0
1, 151968, Note_on_c, 0, 72, 91
1, 151968, Note_on_c, 0, 76, 91
1, 151971, Note_on_c, 0, 79, 91
1, 151971, Note_on_c, 0, 84, 107
1, 151971, Note_on_c, 0, 60, 0
1, 151974, Control_c, 0, 64, 0
1, 151974, Note_on_c, 0, 48, 74
1, 151974, Note_on_c, 0, 52, 74
1, 151977, Note_on_c, 0, 55, 74
1, 151977, Note_on_c, 0, 60, 87
1, 152185, Control_c, 0, 64, 127
1, 152323, Note_on_c, 0, 84, 0
1, 152323, Note_on_c, 0, 72, 0
1, 152323, Note_on_c, 0, 76, 0
1, 152326, Note_on_c, 0, 79, 0
1, 152326, Note_on_c, 0, 60, 0
1, 152326, Note_on_c, 0, 48, 0
1, 152329, Note_on_c, 0, 52, 0
1, 152329, Note_on_c, 0, 55, 0
1, 152450, Control_c, 0, 64, 0
1, 152678, Note_on_c, 0, 84, 99
1, 152678, Note_on_c, 0, 88, 99
1, 152678, Note_on_c, 0, 91, 99
1, 152681, Note_on_c, 0, 96, 116
1, 152681, Note_on_c, 0, 60, 81
1, 152681, Note_on_c, 0, 64, 81
1, 152684, Note_on_c, 0, 67, 81
1, 152684, Note_on_c, 0, 72, 94
1, 152854, Control_c, 0, 64, 127
1, 153074, Note_on_c, 0, 96, 0
1, 153074, Note_on_c, 0, 84, 0
1, 153074, Note_on_c, 0, 88, 0
1, 153077, Note_on_c, 0, 91, 0
1, 153077, Note_on_c, 0, 72, 0
1, 153077, Note_on_c, 0, 60, 0
1, 153080, Note_on_c, 0, 64, 0
1, 153080, Note_on_c, 0, 67, 0
1, 153199, Control_c, 0, 64, 0
1, 153470, Note_on_c, 0, 52, 99
1, 153470, Note_on_c, 0, 55, 99
1, 153470, Note_on_c, 0, 60, 116
1, 153473, Note_on_c, 0, 36, 81
1, 153473, Note_on_c, 0, 40, 81
1, 153473, Note_on_c, 0, 43, 81
1, 153476, Note_on_c, 0, 48, 94
1, 153624, Control_c, 0, 64, 127
1, 154262, Note_on_c, 0, 60, 0
1, 154262, Note_on_c, 0, 55, 0
1, 154262, Note_on_c, 0, 52, 0
1, 154265, Note_on_c, 0, 48, 0
1, 154265, Note_on_c, 0, 36, 0
1, 154265, Note_on_c, 0, 40, 0
1, 154268, Note_on_c, 0, 43, 0
1, 154416, Control_c, 0, 64, 0
1, 155914, End_track
0, 0, End_of_file
