0, 0, Header, 0, 1, 384
1, 0, Start_track
1, 0, Tempo, 512820
1, 0, Title_t, "Klaviersonate a-Moll, Opus 143 3"
1, 0, Program_c, 0, 0
1, 0, Control_c, 0, 7, 100
1, 3, Control_c, 0, 91, 127
1, 3, Program_c, 0, 0
1, 3, Control_c, 0, 7, 100
1, 6, Control_c, 0, 91, 127
1, 6, Control_c, 0, 64, 0
1, 748, Note_on_c, 0, 69, 60
1, 837, Note_on_c, 0, 69, 0
1, 837, Note_on_c, 0, 71, 56
1, 926, Note_on_c, 0, 71, 0
1, 926, Note_on_c, 0, 72, 56
1, 1016, Note_on_c, 0, 72, 0
1, 1016, Note_on_c, 0, 71, 60
1, 1105, Note_on_c, 0, 71, 0
1, 1105, Note_on_c, 0, 72, 56
1, 1195, Note_on_c, 0, 72, 0
1, 1195, Note_on_c, 0, 74, 56
1, 1286, Note_on_c, 0, 74, 0
1, 1286, Note_on_c, 0, 76, 75
1, 1286, Note_on_c, 0, 64, 60
1, 1315, Control_c, 0, 64, 127
1, 1376, Note_on_c, 0, 64, 0
1, 1376, Note_on_c, 0, 66, 54
1, 1465, Note_on_c, 0, 66, 0
1, 1465, Note_on_c, 0, 68, 54
1, 1554, Note_on_c, 0, 76, 0
1, 1554, Note_on_c, 0, 69, 60
1, 1554, Note_on_c, 0, 68, 0
1, 1557, Control_c, 0, 64, 0
1, 1557, Note_on_c, 0, 66, 62
1, 1644, Note_on_c, 0, 69, 0
1, 1644, Note_on_c, 0, 71, 55
1, 1644, Note_on_c, 0, 66, 0
1, 1647, Note_on_c, 0, 68, 55
1, 1733, Note_on_c, 0, 71, 0
1, 1733, Note_on_c, 0, 72, 55
1, 1733, Note_on_c, 0, 68, 0
1, 1736, Note_on_c, 0, 69, 55
1, 1823, Note_on_c, 0, 72, 0
1, 1823, Note_on_c, 0, 71, 80
1, 1823, Note_on_c, 0, 69, 0
1, 1912, Note_on_c, 0, 72, 54
1, 2001, Note_on_c, 0, 72, 0
1, 2001, Note_on_c, 0, 74, 54
1, 2094, Note_on_c, 0, 74, 0
1, 2094, Note_on_c, 0, 71, 0
1, 2094, Note_on_c, 0, 76, 75
1, 2097, Note_on_c, 0, 64, 60
1, 2122, Control_c, 0, 64, 127
1, 2183, Note_on_c, 0, 64, 0
1, 2183, Note_on_c, 0, 66, 56
1, 2272, Note_on_c, 0, 66, 0
1, 2272, Note_on_c, 0, 68, 56
1, 2365, Note_on_c, 0, 76, 0
1, 2365, Note_on_c, 0, 69, 60
1, 2365, Note_on_c, 0, 68, 0
1, 2368, Control_c, 0, 64, 0
1, 2368, Note_on_c, 0, 66, 60
1, 2454, Note_on_c, 0, 69, 0
1, 2454, Note_on_c, 0, 71, 55
1, 2454, Note_on_c, 0, 66, 0
1, 2457, Note_on_c, 0, 68, 55
1, 2544, Note_on_c, 0, 71, 0
1, 2544, Note_on_c, 0, 72, 55
1, 2544, Note_on_c, 0, 68, 0
1, 2547, Note_on_c, 0, 69, 55
1, 2635, Note_on_c, 0, 72, 0
1, 2635, Note_on_c, 0, 71, 76
1, 2635, Note_on_c, 0, 69, 0
1, 2724, Note_on_c, 0, 72, 55
1, 2814, Note_on_c, 0, 72, 0
1, 2814, Note_on_c, 0, 74, 55
1, 2905, Note_on_c, 0, 74, 0
1, 2905, Note_on_c, 0, 71, 0
1, 2905, Note_on_c, 0, 72, 60
1, 2908, Note_on_c, 0, 69, 60
1, 2994, Note_on_c, 0, 72, 0
1, 2994, Note_on_c, 0, 74, 58
1, 2994, Note_on_c, 0, 69, 0
1, 2997, Note_on_c, 0, 71, 60
1, 3084, Note_on_c, 0, 74, 0
1, 3084, Note_on_c, 0, 76, 60
1, 3084, Note_on_c, 0, 71, 0
1, 3087, Note_on_c, 0, 72, 61
1, 3173, Note_on_c, 0, 76, 0
1, 3173, Note_on_c, 0, 77, 60
1, 3173, Note_on_c, 0, 72, 0
1, 3176, Note_on_c, 0, 74, 62
1, 3263, Note_on_c, 0, 77, 0
1, 3263, Note_on_c, 0, 79, 64
1, 3263, Note_on_c, 0, 74, 0
1, 3266, Note_on_c, 0, 76, 63
1, 3352, Note_on_c, 0, 79, 0
1, 3352, Note_on_c, 0, 81, 68
1, 3352, Note_on_c, 0, 76, 0
1, 3355, Note_on_c, 0, 77, 66
1, 3443, Note_on_c, 0, 81, 0
1, 3443, Note_on_c, 0, 79, 71
1, 3443, Note_on_c, 0, 77, 0
1, 3446, Note_on_c, 0, 76, 70
1, 3533, Note_on_c, 0, 79, 0
1, 3533, Note_on_c, 0, 77, 66
1, 3533, Note_on_c, 0, 76, 0
1, 3536, Note_on_c, 0, 74, 65
1, 3622, Note_on_c, 0, 77, 0
1, 3622, Note_on_c, 0, 76, 63
1, 3622, Note_on_c, 0, 74, 0
1, 3625, Note_on_c, 0, 72, 61
1, 3712, Note_on_c, 0, 76, 0
1, 3712, Note_on_c, 0, 74, 65
1, 3712, Note_on_c, 0, 72, 0
1, 3715, Note_on_c, 0, 71, 65
1, 3802, Note_on_c, 0, 74, 0
1, 3802, Note_on_c, 0, 72, 62
1, 3802, Note_on_c, 0, 71, 0
1, 3805, Note_on_c, 0, 69, 62
1, 3891, Note_on_c, 0, 72, 0
1, 3891, Note_on_c, 0, 71, 58
1, 3891, Note_on_c, 0, 69, 0
1, 3894, Note_on_c, 0, 67, 60
1, 3987, Note_on_c, 0, 71, 0
1, 3987, Note_on_c, 0, 69, 66
1, 3987, Note_on_c, 0, 67, 0
1, 3990, Note_on_c, 0, 65, 69
1, 4080, Note_on_c, 0, 69, 0
1, 4080, Note_on_c, 0, 71, 60
1, 4092, Note_on_c, 0, 65, 0
1, 4174, Note_on_c, 0, 71, 0
1, 4174, Note_on_c, 0, 72, 60
1, 4267, Note_on_c, 0, 72, 0
1, 4267, Note_on_c, 0, 71, 63
1, 4267, Note_on_c, 0, 60, 66
1, 4359, Note_on_c, 0, 71, 0
1, 4359, Note_on_c, 0, 69, 58
1, 4371, Note_on_c, 0, 60, 0
1, 4451, Note_on_c, 0, 69, 0
1, 4451, Note_on_c, 0, 67, 58
1, 4544, Note_on_c, 0, 67, 0
1, 4544, Note_on_c, 0, 65, 63
1, 4544, Note_on_c, 0, 57, 60
1, 4566, Control_c, 0, 64, 127
1, 4636, Note_on_c, 0, 65, 0
1, 4636, Note_on_c, 0, 64, 57
1, 4729, Note_on_c, 0, 64, 0
1, 4729, Note_on_c, 0, 63, 57
1, 4823, Note_on_c, 0, 63, 0
1, 4823, Note_on_c, 0, 64, 67
1, 4823, Note_on_c, 0, 57, 0
1, 4826, Control_c, 0, 64, 0
1, 4826, Note_on_c, 0, 56, 63
1, 4914, Note_on_c, 0, 56, 0
1, 4914, Note_on_c, 0, 54, 58
1, 5005, Note_on_c, 0, 54, 0
1, 5005, Note_on_c, 0, 52, 58
1, 5095, Note_on_c, 0, 64, 0
1, 5095, Note_on_c, 0, 52, 0
1, 5095, Note_on_c, 0, 51, 62
1, 5185, Note_on_c, 0, 51, 0
1, 5185, Note_on_c, 0, 49, 57
1, 5276, Note_on_c, 0, 49, 0
1, 5276, Note_on_c, 0, 47, 58
1, 5368, Note_on_c, 0, 59, 60
1, 5368, Note_on_c, 0, 47, 0
1, 5368, Note_on_c, 0, 57, 74
1, 5458, Note_on_c, 0, 59, 0
1, 5458, Note_on_c, 0, 61, 55
1, 5547, Note_on_c, 0, 61, 0
1, 5547, Note_on_c, 0, 63, 55
1, 5637, Note_on_c, 0, 63, 0
1, 5637, Note_on_c, 0, 64, 64
1, 5637, Note_on_c, 0, 57, 0
1, 5640, Note_on_c, 0, 56, 64
1, 5728, Note_on_c, 0, 64, 0
1, 5728, Note_on_c, 0, 66, 59
1, 5728, Note_on_c, 0, 56, 0
1, 5731, Note_on_c, 0, 54, 59
1, 5819, Note_on_c, 0, 66, 0
1, 5819, Note_on_c, 0, 68, 59
1, 5819, Note_on_c, 0, 54, 0
1, 5822, Note_on_c, 0, 52, 59
1, 5911, Note_on_c, 0, 68, 0
1, 5911, Note_on_c, 0, 69, 69
1, 5911, Note_on_c, 0, 52, 0
1, 5914, Note_on_c, 0, 51, 63
1, 5927, Control_c, 0, 64, 127
1, 6000, Note_on_c, 0, 51, 0
1, 6000, Note_on_c, 0, 49, 57
1, 6090, Note_on_c, 0, 49, 0
1, 6090, Note_on_c, 0, 47, 57
1, 6182, Note_on_c, 0, 69, 0
1, 6182, Note_on_c, 0, 59, 60
1, 6182, Note_on_c, 0, 47, 0
1, 6185, Note_on_c, 0, 57, 74
1, 6188, Control_c, 0, 64, 0
1, 6271, Note_on_c, 0, 59, 0
1, 6271, Note_on_c, 0, 61, 55
1, 6360, Note_on_c, 0, 61, 0
1, 6360, Note_on_c, 0, 63, 55
1, 6449, Note_on_c, 0, 63, 0
1, 6449, Note_on_c, 0, 64, 64
1, 6449, Note_on_c, 0, 57, 0
1, 6452, Note_on_c, 0, 56, 64
1, 6540, Note_on_c, 0, 64, 0
1, 6540, Note_on_c, 0, 66, 58
1, 6540, Note_on_c, 0, 56, 0
1, 6543, Note_on_c, 0, 54, 57
1, 6630, Note_on_c, 0, 66, 0
1, 6630, Note_on_c, 0, 68, 58
1, 6630, Note_on_c, 0, 54, 0
1, 6633, Note_on_c, 0, 52, 57
1, 6723, Note_on_c, 0, 68, 0
1, 6723, Note_on_c, 0, 69, 68
1, 6723, Note_on_c, 0, 52, 0
1, 6726, Note_on_c, 0, 51, 62
1, 6745, Control_c, 0, 64, 127
1, 6812, Note_on_c, 0, 51, 0
1, 6812, Note_on_c, 0, 49, 54
1, 6901, Note_on_c, 0, 49, 0
1, 6901, Note_on_c, 0, 47, 54
1, 6987, Control_c, 0, 64, 0
1, 6993, Note_on_c, 0, 69, 0
1, 6993, Note_on_c, 0, 59, 60
1, 6993, Note_on_c, 0, 47, 0
1, 6996, Note_on_c, 0, 57, 74
1, 7083, Note_on_c, 0, 59, 0
1, 7083, Note_on_c, 0, 61, 56
1, 7172, Note_on_c, 0, 61, 0
1, 7172, Note_on_c, 0, 63, 56
1, 7261, Note_on_c, 0, 63, 0
1, 7261, Note_on_c, 0, 64, 64
1, 7261, Note_on_c, 0, 57, 0
1, 7264, Note_on_c, 0, 56, 60
1, 7284, Control_c, 0, 64, 127
1, 7352, Note_on_c, 0, 64, 0
1, 7352, Note_on_c, 0, 66, 57
1, 7352, Note_on_c, 0, 56, 0
1, 7355, Note_on_c, 0, 54, 53
1, 7442, Note_on_c, 0, 66, 0
1, 7442, Note_on_c, 0, 68, 57
1, 7442, Note_on_c, 0, 54, 0
1, 7445, Note_on_c, 0, 52, 53
1, 7534, Note_on_c, 0, 68, 0
1, 7534, Note_on_c, 0, 66, 70
1, 7534, Note_on_c, 0, 52, 0
1, 7537, Note_on_c, 0, 54, 62
1, 7540, Control_c, 0, 64, 0
1, 7576, Control_c, 0, 64, 127
1, 7624, Note_on_c, 0, 66, 0
1, 7624, Note_on_c, 0, 68, 63
1, 7624, Note_on_c, 0, 54, 0
1, 7627, Note_on_c, 0, 52, 54
1, 7713, Note_on_c, 0, 68, 0
1, 7713, Note_on_c, 0, 69, 63
1, 7713, Note_on_c, 0, 52, 0
1, 7716, Note_on_c, 0, 51, 54
1, 7805, Note_on_c, 0, 69, 0
1, 7805, Note_on_c, 0, 68, 74
1, 7805, Note_on_c, 0, 51, 0
1, 7808, Note_on_c, 0, 52, 62
1, 7811, Control_c, 0, 64, 0
1, 7838, Control_c, 0, 64, 127
1, 7894, Note_on_c, 0, 68, 0
1, 7894, Note_on_c, 0, 69, 68
1, 7894, Note_on_c, 0, 52, 0
1, 7897, Note_on_c, 0, 51, 57
1, 7983, Note_on_c, 0, 69, 0
1, 7983, Note_on_c, 0, 71, 70
1, 7983, Note_on_c, 0, 51, 0
1, 7986, Note_on_c, 0, 50, 57
1, 8075, Note_on_c, 0, 71, 0
1, 8075, Note_on_c, 0, 69, 78
1, 8075, Note_on_c, 0, 50, 0
1, 8078, Note_on_c, 0, 52, 66
1, 8081, Control_c, 0, 64, 0
1, 8102, Control_c, 0, 64, 127
1, 8164, Note_on_c, 0, 69, 0
1, 8164, Note_on_c, 0, 71, 70
1, 8164, Note_on_c, 0, 52, 0
1, 8167, Note_on_c, 0, 50, 62
1, 8253, Note_on_c, 0, 71, 0
1, 8253, Note_on_c, 0, 72, 73
1, 8253, Note_on_c, 0, 50, 0
1, 8256, Note_on_c, 0, 48, 63
1, 8343, Note_on_c, 0, 72, 0
1, 8343, Note_on_c, 0, 71, 83
1, 8343, Note_on_c, 0, 48, 0
1, 8346, Note_on_c, 0, 50, 68
1, 8351, Control_c, 0, 64, 0
1, 8394, Control_c, 0, 64, 127
1, 8433, Note_on_c, 0, 71, 0
1, 8433, Note_on_c, 0, 72, 73
1, 8433, Note_on_c, 0, 50, 0
1, 8436, Note_on_c, 0, 48, 65
1, 8523, Note_on_c, 0, 72, 0
1, 8523, Note_on_c, 0, 74, 78
1, 8523, Note_on_c, 0, 48, 0
1, 8526, Note_on_c, 0, 47, 65
1, 8613, Note_on_c, 0, 74, 0
1, 8613, Note_on_c, 0, 72, 89
1, 8613, Note_on_c, 0, 47, 0
1, 8616, Note_on_c, 0, 48, 75
1, 8621, Control_c, 0, 64, 0
1, 8653, Control_c, 0, 64, 127
1, 8703, Note_on_c, 0, 72, 0
1, 8703, Note_on_c, 0, 74, 78
1, 8703, Note_on_c, 0, 48, 0
1, 8706, Note_on_c, 0, 47, 69
1, 8794, Note_on_c, 0, 74, 0
1, 8794, Note_on_c, 0, 76, 84
1, 8794, Note_on_c, 0, 47, 0
1, 8797, Note_on_c, 0, 45, 69
1, 8885, Note_on_c, 0, 76, 0
1, 8885, Note_on_c, 0, 77, 100
1, 8885, Note_on_c, 0, 45, 0
1, 8888, Note_on_c, 0, 44, 87
1, 8888, Control_c, 0, 64, 0
1, 8922, Control_c, 0, 64, 127
1, 8976, Note_on_c, 0, 77, 0
1, 8976, Note_on_c, 0, 76, 87
1, 8976, Note_on_c, 0, 44, 0
1, 8979, Note_on_c, 0, 45, 77
1, 9068, Note_on_c, 0, 76, 0
1, 9068, Note_on_c, 0, 74, 89
1, 9068, Note_on_c, 0, 45, 0
1, 9071, Note_on_c, 0, 47, 77
1, 9162, Note_on_c, 0, 74, 0
1, 9162, Note_on_c, 0, 77, 98
1, 9162, Note_on_c, 0, 83, 98
1, 9165, Note_on_c, 0, 47, 0
1, 9165, Note_on_c, 0, 38, 85
1, 9165, Note_on_c, 0, 44, 85
1, 9168, Control_c, 0, 64, 0
1, 9196, Control_c, 0, 64, 127
1, 9254, Note_on_c, 0, 77, 0
1, 9254, Note_on_c, 0, 76, 89
1, 9254, Note_on_c, 0, 44, 0
1, 9257, Note_on_c, 0, 45, 76
1, 9299, Note_on_c, 0, 83, 0
1, 9299, Note_on_c, 0, 38, 0
1, 9345, Note_on_c, 0, 76, 0
1, 9345, Note_on_c, 0, 74, 89
1, 9345, Note_on_c, 0, 45, 0
1, 9348, Note_on_c, 0, 47, 76
1, 9437, Note_on_c, 0, 74, 0
1, 9437, Note_on_c, 0, 83, 102
1, 9437, Note_on_c, 0, 77, 102
1, 9440, Note_on_c, 0, 47, 0
1, 9440, Note_on_c, 0, 38, 86
1, 9440, Note_on_c, 0, 44, 86
1, 9445, Control_c, 0, 64, 0
1, 9461, Control_c, 0, 64, 127
1, 9528, Note_on_c, 0, 77, 0
1, 9528, Note_on_c, 0, 76, 90
1, 9528, Note_on_c, 0, 44, 0
1, 9531, Note_on_c, 0, 45, 79
1, 9574, Note_on_c, 0, 83, 0
1, 9574, Note_on_c, 0, 38, 0
1, 9620, Note_on_c, 0, 76, 0
1, 9620, Note_on_c, 0, 74, 90
1, 9620, Note_on_c, 0, 45, 0
1, 9623, Note_on_c, 0, 47, 79
1, 9712, Note_on_c, 0, 74, 0
1, 9712, Note_on_c, 0, 77, 103
1, 9712, Note_on_c, 0, 83, 103
1, 9715, Note_on_c, 0, 47, 0
1, 9715, Note_on_c, 0, 38, 88
1, 9715, Note_on_c, 0, 44, 88
1, 9718, Control_c, 0, 64, 0
1, 9736, Control_c, 0, 64, 127
1, 9804, Note_on_c, 0, 77, 0
1, 9804, Note_on_c, 0, 76, 94
1, 9804, Note_on_c, 0, 44, 0
1, 9807, Note_on_c, 0, 45, 82
1, 9850, Note_on_c, 0, 83, 0
1, 9850, Note_on_c, 0, 38, 0
1, 9896, Note_on_c, 0, 76, 0
1, 9896, Note_on_c, 0, 74, 96
1, 9896, Note_on_c, 0, 45, 0
1, 9899, Note_on_c, 0, 47, 84
1, 9990, Note_on_c, 0, 74, 0
1, 9990, Note_on_c, 0, 83, 107
1, 9990, Note_on_c, 0, 77, 107
1, 9993, Note_on_c, 0, 47, 0
1, 9993, Note_on_c, 0, 38, 91
1, 9993, Note_on_c, 0, 44, 91
1, 9997, Control_c, 0, 64, 0
1, 10027, Control_c, 0, 64, 127
1, 10083, Note_on_c, 0, 77, 0
1, 10083, Note_on_c, 0, 76, 96
1, 10083, Note_on_c, 0, 44, 0
1, 10086, Note_on_c, 0, 45, 84
1, 10129, Note_on_c, 0, 83, 0
1, 10129, Note_on_c, 0, 38, 0
1, 10175, Note_on_c, 0, 76, 0
1, 10175, Note_on_c, 0, 74, 97
1, 10175, Note_on_c, 0, 45, 0
1, 10178, Note_on_c, 0, 47, 86
1, 10270, Note_on_c, 0, 74, 0
1, 10270, Note_on_c, 0, 83, 110
1, 10270, Note_on_c, 0, 77, 110
1, 10273, Note_on_c, 0, 47, 0
1, 10273, Note_on_c, 0, 38, 94
1, 10273, Note_on_c, 0, 44, 94
1, 10276, Control_c, 0, 64, 0
1, 10305, Control_c, 0, 64, 127
1, 10363, Note_on_c, 0, 77, 0
1, 10363, Note_on_c, 0, 76, 98
1, 10363, Note_on_c, 0, 44, 0
1, 10366, Note_on_c, 0, 45, 86
1, 10409, Note_on_c, 0, 83, 0
1, 10409, Note_on_c, 0, 38, 0
1, 10455, Note_on_c, 0, 76, 0
1, 10455, Note_on_c, 0, 74, 101
1, 10455, Note_on_c, 0, 45, 0
1, 10458, Note_on_c, 0, 47, 88
1, 10553, Note_on_c, 0, 74, 0
1, 10553, Note_on_c, 0, 77, 116
1, 10553, Note_on_c, 0, 83, 116
1, 10556, Note_on_c, 0, 47, 0
1, 10556, Note_on_c, 0, 32, 94
1, 10556, Note_on_c, 0, 44, 109
1, 10560, Control_c, 0, 64, 0
1, 10593, Control_c, 0, 64, 127
1, 10644, Note_on_c, 0, 77, 0
1, 10644, Note_on_c, 0, 76, 71
1, 10689, Note_on_c, 0, 83, 0
1, 10689, Note_on_c, 0, 44, 0
1, 10689, Note_on_c, 0, 32, 0
1, 10735, Note_on_c, 0, 76, 0
1, 10735, Note_on_c, 0, 74, 62
1, 10819, Control_c, 0, 64, 0
1, 10827, Note_on_c, 0, 74, 0
1, 10827, Note_on_c, 0, 77, 70
1, 10918, Note_on_c, 0, 77, 0
1, 10918, Note_on_c, 0, 76, 61
1, 11010, Note_on_c, 0, 76, 0
1, 11010, Note_on_c, 0, 74, 56
1, 11102, Note_on_c, 0, 74, 0
1, 11102, Note_on_c, 0, 77, 67
1, 11195, Note_on_c, 0, 77, 0
1, 11195, Note_on_c, 0, 76, 59
1, 11289, Note_on_c, 0, 76, 0
1, 11289, Note_on_c, 0, 74, 53
1, 11384, Note_on_c, 0, 74, 0
1, 11384, Note_on_c, 0, 77, 66
1, 11478, Note_on_c, 0, 77, 0
1, 11478, Note_on_c, 0, 76, 57
1, 11571, Note_on_c, 0, 76, 0
1, 11571, Note_on_c, 0, 74, 54
1, 11666, Note_on_c, 0, 74, 0
1, 11666, Note_on_c, 0, 76, 66
1, 11760, Note_on_c, 0, 76, 0
1, 11760, Note_on_c, 0, 74, 56
1, 11853, Note_on_c, 0, 74, 0
1, 11853, Note_on_c, 0, 72, 56
1, 11948, Note_on_c, 0, 72, 0
1, 11948, Note_on_c, 0, 74, 65
1, 12042, Note_on_c, 0, 74, 0
1, 12042, Note_on_c, 0, 72, 55
1, 12136, Note_on_c, 0, 72, 0
1, 12136, Note_on_c, 0, 71, 55
1, 12231, Note_on_c, 0, 71, 0
1, 12231, Note_on_c, 0, 69, 60
1, 12323, Note_on_c, 0, 69, 0
1, 12323, Note_on_c, 0, 71, 56
1, 12415, Note_on_c, 0, 71, 0
1, 12415, Note_on_c, 0, 72, 56
1, 12506, Note_on_c, 0, 72, 0
1, 12506, Note_on_c, 0, 71, 60
1, 12597, Note_on_c, 0, 71, 0
1, 12597, Note_on_c, 0, 72, 56
1, 12687, Note_on_c, 0, 72, 0
1, 12687, Note_on_c, 0, 74, 56
1, 12779, Note_on_c, 0, 74, 0
1, 12779, Note_on_c, 0, 76, 75
1, 12779, Note_on_c, 0, 64, 60
1, 12807, Control_c, 0, 64, 127
1, 12868, Note_on_c, 0, 64, 0
1, 12868, Note_on_c, 0, 66, 54
1, 12958, Note_on_c, 0, 66, 0
1, 12958, Note_on_c, 0, 68, 54
1, 13047, Note_on_c, 0, 76, 0
1, 13047, Note_on_c, 0, 69, 60
1, 13047, Note_on_c, 0, 68, 0
1, 13050, Note_on_c, 0, 66, 62
1, 13050, Control_c, 0, 64, 0
1, 13136, Note_on_c, 0, 69, 0
1, 13136, Note_on_c, 0, 71, 55
1, 13136, Note_on_c, 0, 66, 0
1, 13139, Note_on_c, 0, 68, 55
1, 13226, Note_on_c, 0, 71, 0
1, 13226, Note_on_c, 0, 72, 55
1, 13226, Note_on_c, 0, 68, 0
1, 13229, Note_on_c, 0, 69, 55
1, 13315, Note_on_c, 0, 72, 0
1, 13315, Note_on_c, 0, 71, 80
1, 13315, Note_on_c, 0, 69, 0
1, 13405, Note_on_c, 0, 72, 54
1, 13494, Note_on_c, 0, 72, 0
1, 13494, Note_on_c, 0, 74, 54
1, 13586, Note_on_c, 0, 74, 0
1, 13586, Note_on_c, 0, 71, 0
1, 13586, Note_on_c, 0, 76, 75
1, 13589, Note_on_c, 0, 64, 60
1, 13615, Control_c, 0, 64, 127
1, 13676, Note_on_c, 0, 64, 0
1, 13676, Note_on_c, 0, 66, 56
1, 13765, Note_on_c, 0, 66, 0
1, 13765, Note_on_c, 0, 68, 56
1, 13857, Note_on_c, 0, 76, 0
1, 13857, Note_on_c, 0, 69, 60
1, 13857, Note_on_c, 0, 68, 0
1, 13860, Note_on_c, 0, 66, 60
1, 13860, Control_c, 0, 64, 0
1, 13947, Note_on_c, 0, 69, 0
1, 13947, Note_on_c, 0, 71, 55
1, 13947, Note_on_c, 0, 66, 0
1, 13950, Note_on_c, 0, 68, 55
1, 14036, Note_on_c, 0, 71, 0
1, 14036, Note_on_c, 0, 72, 55
1, 14036, Note_on_c, 0, 68, 0
1, 14039, Note_on_c, 0, 69, 55
1, 14128, Note_on_c, 0, 72, 0
1, 14128, Note_on_c, 0, 71, 76
1, 14128, Note_on_c, 0, 69, 0
1, 14217, Note_on_c, 0, 72, 55
1, 14306, Note_on_c, 0, 72, 0
1, 14306, Note_on_c, 0, 74, 55
1, 14398, Note_on_c, 0, 74, 0
1, 14398, Note_on_c, 0, 71, 0
1, 14398, Note_on_c, 0, 72, 60
1, 14401, Note_on_c, 0, 69, 60
1, 14487, Note_on_c, 0, 72, 0
1, 14487, Note_on_c, 0, 74, 58
1, 14487, Note_on_c, 0, 69, 0
1, 14490, Note_on_c, 0, 71, 60
1, 14576, Note_on_c, 0, 74, 0
1, 14576, Note_on_c, 0, 76, 60
1, 14576, Note_on_c, 0, 71, 0
1, 14579, Note_on_c, 0, 72, 61
1, 14666, Note_on_c, 0, 76, 0
1, 14666, Note_on_c, 0, 77, 60
1, 14666, Note_on_c, 0, 72, 0
1, 14669, Note_on_c, 0, 74, 62
1, 14755, Note_on_c, 0, 77, 0
1, 14755, Note_on_c, 0, 79, 64
1, 14755, Note_on_c, 0, 74, 0
1, 14758, Note_on_c, 0, 76, 63
1, 14845, Note_on_c, 0, 79, 0
1, 14845, Note_on_c, 0, 81, 68
1, 14845, Note_on_c, 0, 76, 0
1, 14848, Note_on_c, 0, 77, 66
1, 14936, Note_on_c, 0, 81, 0
1, 14936, Note_on_c, 0, 79, 71
1, 14936, Note_on_c, 0, 77, 0
1, 14939, Note_on_c, 0, 76, 70
1, 15025, Note_on_c, 0, 79, 0
1, 15025, Note_on_c, 0, 77, 66
1, 15025, Note_on_c, 0, 76, 0
1, 15028, Note_on_c, 0, 74, 65
1, 15115, Note_on_c, 0, 77, 0
1, 15115, Note_on_c, 0, 76, 63
1, 15115, Note_on_c, 0, 74, 0
1, 15118, Note_on_c, 0, 72, 61
1, 15205, Note_on_c, 0, 76, 0
1, 15205, Note_on_c, 0, 74, 65
1, 15205, Note_on_c, 0, 72, 0
1, 15208, Note_on_c, 0, 71, 65
1, 15294, Note_on_c, 0, 74, 0
1, 15294, Note_on_c, 0, 72, 62
1, 15294, Note_on_c, 0, 71, 0
1, 15297, Note_on_c, 0, 69, 62
1, 15384, Note_on_c, 0, 72, 0
1, 15384, Note_on_c, 0, 71, 58
1, 15384, Note_on_c, 0, 69, 0
1, 15387, Note_on_c, 0, 67, 60
1, 15480, Note_on_c, 0, 71, 0
1, 15480, Note_on_c, 0, 69, 66
1, 15480, Note_on_c, 0, 67, 0
1, 15483, Note_on_c, 0, 65, 69
1, 15573, Note_on_c, 0, 69, 0
1, 15573, Note_on_c, 0, 71, 60
1, 15584, Note_on_c, 0, 65, 0
1, 15665, Note_on_c, 0, 71, 0
1, 15665, Note_on_c, 0, 72, 60
1, 15758, Note_on_c, 0, 72, 0
1, 15758, Note_on_c, 0, 71, 63
1, 15758, Note_on_c, 0, 60, 66
1, 15850, Note_on_c, 0, 71, 0
1, 15850, Note_on_c, 0, 69, 58
1, 15862, Note_on_c, 0, 60, 0
1, 15942, Note_on_c, 0, 69, 0
1, 15942, Note_on_c, 0, 67, 58
1, 16035, Note_on_c, 0, 67, 0
1, 16035, Note_on_c, 0, 65, 63
1, 16035, Note_on_c, 0, 57, 60
1, 16057, Control_c, 0, 64, 127
1, 16127, Note_on_c, 0, 65, 0
1, 16127, Note_on_c, 0, 64, 57
1, 16220, Note_on_c, 0, 64, 0
1, 16220, Note_on_c, 0, 63, 57
1, 16314, Note_on_c, 0, 63, 0
1, 16314, Note_on_c, 0, 64, 64
1, 16314, Note_on_c, 0, 57, 0
1, 16317, Note_on_c, 0, 55, 64
1, 16317, Control_c, 0, 64, 0
1, 16405, Note_on_c, 0, 64, 0
1, 16405, Note_on_c, 0, 66, 59
1, 16405, Note_on_c, 0, 55, 0
1, 16408, Note_on_c, 0, 54, 59
1, 16495, Note_on_c, 0, 66, 0
1, 16495, Note_on_c, 0, 67, 59
1, 16495, Note_on_c, 0, 54, 0
1, 16498, Note_on_c, 0, 52, 59
1, 16588, Note_on_c, 0, 67, 0
1, 16588, Note_on_c, 0, 69, 69
1, 16588, Note_on_c, 0, 52, 0
1, 16591, Note_on_c, 0, 51, 63
1, 16604, Control_c, 0, 64, 127
1, 16677, Note_on_c, 0, 51, 0
1, 16677, Note_on_c, 0, 49, 57
1, 16767, Note_on_c, 0, 49, 0
1, 16767, Note_on_c, 0, 47, 57
1, 16859, Note_on_c, 0, 69, 0
1, 16859, Note_on_c, 0, 59, 60
1, 16859, Note_on_c, 0, 47, 0
1, 16862, Note_on_c, 0, 57, 74
1, 16862, Control_c, 0, 64, 0
1, 16948, Note_on_c, 0, 59, 0
1, 16948, Note_on_c, 0, 61, 55
1, 17037, Note_on_c, 0, 61, 0
1, 17037, Note_on_c, 0, 63, 55
1, 17126, Note_on_c, 0, 63, 0
1, 17126, Note_on_c, 0, 64, 64
1, 17126, Note_on_c, 0, 57, 0
1, 17129, Note_on_c, 0, 55, 64
1, 17216, Note_on_c, 0, 64, 0
1, 17216, Note_on_c, 0, 66, 58
1, 17216, Note_on_c, 0, 55, 0
1, 17219, Note_on_c, 0, 54, 57
1, 17307, Note_on_c, 0, 66, 0
1, 17307, Note_on_c, 0, 67, 58
1, 17307, Note_on_c, 0, 54, 0
1, 17310, Note_on_c, 0, 52, 57
1, 17399, Note_on_c, 0, 67, 0
1, 17399, Note_on_c, 0, 69, 68
1, 17399, Note_on_c, 0, 52, 0
1, 17402, Note_on_c, 0, 51, 62
1, 17422, Control_c, 0, 64, 127
1, 17489, Note_on_c, 0, 51, 0
1, 17489, Note_on_c, 0, 49, 54
1, 17578, Note_on_c, 0, 49, 0
1, 17578, Note_on_c, 0, 47, 54
1, 17670, Note_on_c, 0, 69, 0
1, 17670, Note_on_c, 0, 59, 60
1, 17670, Note_on_c, 0, 47, 0
1, 17673, Note_on_c, 0, 57, 74
1, 17673, Control_c, 0, 64, 0
1, 17760, Note_on_c, 0, 59, 0
1, 17760, Note_on_c, 0, 61, 56
1, 17849, Note_on_c, 0, 61, 0
1, 17849, Note_on_c, 0, 63, 56
1, 17938, Note_on_c, 0, 63, 0
1, 17938, Note_on_c, 0, 64, 64
1, 17938, Note_on_c, 0, 57, 0
1, 17941, Note_on_c, 0, 55, 60
1, 17961, Control_c, 0, 64, 127
1, 18029, Note_on_c, 0, 64, 0
1, 18029, Note_on_c, 0, 66, 57
1, 18029, Note_on_c, 0, 55, 0
1, 18032, Note_on_c, 0, 54, 53
1, 18119, Note_on_c, 0, 66, 0
1, 18119, Note_on_c, 0, 67, 57
1, 18119, Note_on_c, 0, 54, 0
1, 18122, Note_on_c, 0, 52, 53
1, 18211, Note_on_c, 0, 67, 0
1, 18211, Note_on_c, 0, 66, 70
1, 18211, Note_on_c, 0, 52, 0
1, 18214, Note_on_c, 0, 51, 62
1, 18218, Control_c, 0, 64, 0
1, 18237, Control_c, 0, 64, 127
1, 18300, Note_on_c, 0, 66, 0
1, 18300, Note_on_c, 0, 67, 63
1, 18300, Note_on_c, 0, 51, 0
1, 18303, Note_on_c, 0, 52, 54
1, 18390, Note_on_c, 0, 67, 0
1, 18390, Note_on_c, 0, 69, 63
1, 18390, Note_on_c, 0, 52, 0
1, 18393, Note_on_c, 0, 54, 54
1, 18481, Note_on_c, 0, 69, 0
1, 18481, Note_on_c, 0, 67, 74
1, 18481, Note_on_c, 0, 54, 0
1, 18484, Note_on_c, 0, 52, 62
1, 18489, Control_c, 0, 64, 0
1, 18520, Control_c, 0, 64, 127
1, 18571, Note_on_c, 0, 67, 0
1, 18571, Note_on_c, 0, 69, 68
1, 18571, Note_on_c, 0, 52, 0
1, 18574, Note_on_c, 0, 54, 57
1, 18660, Note_on_c, 0, 69, 0
1, 18660, Note_on_c, 0, 71, 70
1, 18660, Note_on_c, 0, 54, 0
1, 18663, Note_on_c, 0, 55, 57
1, 18752, Note_on_c, 0, 71, 0
1, 18752, Note_on_c, 0, 69, 78
1, 18752, Note_on_c, 0, 55, 0
1, 18755, Note_on_c, 0, 54, 66
1, 18758, Control_c, 0, 64, 0
1, 18796, Control_c, 0, 64, 127
1, 18841, Note_on_c, 0, 69, 0
1, 18841, Note_on_c, 0, 71, 70
1, 18841, Note_on_c, 0, 54, 0
1, 18844, Note_on_c, 0, 55, 62
1, 18930, Note_on_c, 0, 71, 0
1, 18930, Note_on_c, 0, 72, 73
1, 18930, Note_on_c, 0, 55, 0
1, 18933, Note_on_c, 0, 57, 63
1, 19020, Note_on_c, 0, 72, 0
1, 19020, Note_on_c, 0, 71, 83
1, 19020, Note_on_c, 0, 57, 0
1, 19023, Note_on_c, 0, 56, 68
1, 19026, Control_c, 0, 64, 0
1, 19061, Control_c, 0, 64, 127
1, 19109, Note_on_c, 0, 71, 0
1, 19109, Note_on_c, 0, 72, 73
1, 19109, Note_on_c, 0, 56, 0
1, 19112, Note_on_c, 0, 57, 65
1, 19199, Note_on_c, 0, 72, 0
1, 19199, Note_on_c, 0, 74, 78
1, 19199, Note_on_c, 0, 57, 0
1, 19202, Note_on_c, 0, 59, 65
1, 19290, Note_on_c, 0, 74, 0
1, 19290, Note_on_c, 0, 72, 89
1, 19290, Note_on_c, 0, 59, 0
1, 19293, Note_on_c, 0, 57, 75
1, 19299, Control_c, 0, 64, 0
1, 19330, Control_c, 0, 64, 127
1, 19381, Note_on_c, 0, 72, 0
1, 19381, Note_on_c, 0, 74, 78
1, 19381, Note_on_c, 0, 57, 0
1, 19384, Note_on_c, 0, 59, 69
1, 19473, Note_on_c, 0, 74, 0
1, 19473, Note_on_c, 0, 76, 84
1, 19473, Note_on_c, 0, 59, 0
1, 19476, Note_on_c, 0, 60, 69
1, 19570, Note_on_c, 0, 76, 0
1, 19570, Note_on_c, 0, 65, 106
1, 19570, Note_on_c, 0, 60, 0
1, 19573, Note_on_c, 0, 62, 101
1, 19576, Control_c, 0, 64, 0
1, 19621, Control_c, 0, 64, 127
1, 19659, Note_on_c, 0, 65, 0
1, 19659, Note_on_c, 0, 70, 88
1, 19659, Note_on_c, 0, 62, 0
1, 19662, Note_on_c, 0, 58, 87
1, 19749, Note_on_c, 0, 70, 0
1, 19749, Note_on_c, 0, 74, 84
1, 19749, Note_on_c, 0, 58, 0
1, 19752, Note_on_c, 0, 53, 87
1, 19838, Note_on_c, 0, 74, 0
1, 19838, Note_on_c, 0, 77, 97
1, 19838, Note_on_c, 0, 53, 0
1, 19841, Note_on_c, 0, 50, 96
1, 19928, Note_on_c, 0, 77, 0
1, 19928, Note_on_c, 0, 82, 86
1, 19928, Note_on_c, 0, 50, 0
1, 19931, Note_on_c, 0, 46, 86
1, 20019, Note_on_c, 0, 82, 0
1, 20019, Note_on_c, 0, 86, 86
1, 20019, Note_on_c, 0, 46, 0
1, 20022, Note_on_c, 0, 41, 86
1, 20109, Note_on_c, 0, 86, 0
1, 20109, Note_on_c, 0, 89, 98
1, 20109, Note_on_c, 0, 41, 0
1, 20112, Note_on_c, 0, 38, 93
1, 20201, Note_on_c, 0, 89, 0
1, 20201, Note_on_c, 0, 94, 86
1, 20201, Note_on_c, 0, 38, 0
1, 20204, Note_on_c, 0, 34, 85
1, 20295, Note_on_c, 0, 94, 0
1, 20295, Note_on_c, 0, 98, 86
1, 20295, Note_on_c, 0, 34, 0
1, 20298, Note_on_c, 0, 29, 85
1, 20392, Note_on_c, 0, 98, 0
1, 20392, Note_on_c, 0, 101, 107
1, 20392, Note_on_c, 0, 29, 0
1, 20395, Note_on_c, 0, 26, 101
1, 20467, Note_on_c, 0, 101, 0
1, 20467, Note_on_c, 0, 26, 0
1, 20539, Control_c, 0, 64, 0
1, 20694, Note_on_c, 0, 69, 89
1, 20694, Note_on_c, 0, 76, 103
1, 20694, Note_on_c, 0, 72, 89
1, 20697, Note_on_c, 0, 64, 89
1, 20697, Note_on_c, 0, 52, 87
1, 20697, Note_on_c, 0, 40, 75
1, 20700, Note_on_c, 0, 48, 75
1, 20700, Note_on_c, 0, 45, 75
1, 20717, Control_c, 0, 64, 127
1, 20849, Note_on_c, 0, 64, 0
1, 20849, Note_on_c, 0, 69, 0
1, 20849, Note_on_c, 0, 76, 0
1, 20852, Note_on_c, 0, 72, 0
1, 20852, Note_on_c, 0, 45, 0
1, 20852, Note_on_c, 0, 52, 0
1, 20855, Note_on_c, 0, 40, 0
1, 20855, Note_on_c, 0, 48, 0
1, 20855, Control_c, 0, 64, 0
1, 21004, Note_on_c, 0, 64, 84
1, 21004, Note_on_c, 0, 76, 98
1, 21004, Note_on_c, 0, 68, 84
1, 21007, Note_on_c, 0, 71, 84
1, 21007, Note_on_c, 0, 44, 71
1, 21007, Note_on_c, 0, 47, 71
1, 21010, Note_on_c, 0, 52, 82
1, 21010, Note_on_c, 0, 40, 71
1, 21046, Control_c, 0, 64, 127
1, 21163, Note_on_c, 0, 71, 0
1, 21163, Note_on_c, 0, 64, 0
1, 21163, Note_on_c, 0, 76, 0
1, 21166, Note_on_c, 0, 68, 0
1, 21166, Note_on_c, 0, 40, 0
1, 21166, Note_on_c, 0, 44, 0
1, 21169, Note_on_c, 0, 47, 0
1, 21169, Note_on_c, 0, 52, 0
1, 21195, Control_c, 0, 64, 0
1, 21321, Note_on_c, 0, 69, 77
1, 21321, Note_on_c, 0, 60, 72
1, 21412, Note_on_c, 0, 69, 0
1, 21412, Note_on_c, 0, 71, 66
1, 21412, Note_on_c, 0, 60, 0
1, 21415, Note_on_c, 0, 59, 66
1, 21503, Note_on_c, 0, 71, 0
1, 21503, Note_on_c, 0, 72, 66
1, 21503, Note_on_c, 0, 59, 0
1, 21506, Note_on_c, 0, 57, 66
1, 21595, Note_on_c, 0, 72, 0
1, 21595, Note_on_c, 0, 74, 75
1, 21595, Note_on_c, 0, 57, 0
1, 21598, Note_on_c, 0, 56, 71
1, 21611, Control_c, 0, 64, 127
1, 21685, Note_on_c, 0, 56, 0
1, 21685, Note_on_c, 0, 54, 65
1, 21774, Note_on_c, 0, 54, 0
1, 21774, Note_on_c, 0, 52, 64
1, 21866, Note_on_c, 0, 74, 0
1, 21866, Note_on_c, 0, 64, 76
1, 21866, Note_on_c, 0, 52, 0
1, 21869, Note_on_c, 0, 62, 77
1, 21875, Control_c, 0, 64, 0
1, 21955, Note_on_c, 0, 64, 0
1, 21955, Note_on_c, 0, 66, 64
1, 22045, Note_on_c, 0, 66, 0
1, 22045, Note_on_c, 0, 68, 63
1, 22134, Note_on_c, 0, 68, 0
1, 22134, Note_on_c, 0, 69, 74
1, 22134, Note_on_c, 0, 62, 0
1, 22137, Note_on_c, 0, 60, 71
1, 22224, Note_on_c, 0, 69, 0
1, 22224, Note_on_c, 0, 71, 65
1, 22224, Note_on_c, 0, 60, 0
1, 22227, Note_on_c, 0, 59, 65
1, 22314, Note_on_c, 0, 71, 0
1, 22314, Note_on_c, 0, 72, 65
1, 22314, Note_on_c, 0, 59, 0
1, 22317, Note_on_c, 0, 57, 65
1, 22407, Note_on_c, 0, 72, 0
1, 22407, Note_on_c, 0, 74, 75
1, 22407, Note_on_c, 0, 57, 0
1, 22410, Note_on_c, 0, 56, 70
1, 22429, Control_c, 0, 64, 127
1, 22496, Note_on_c, 0, 56, 0
1, 22496, Note_on_c, 0, 54, 64
1, 22586, Note_on_c, 0, 54, 0
1, 22586, Note_on_c, 0, 52, 64
1, 22678, Note_on_c, 0, 74, 0
1, 22678, Note_on_c, 0, 64, 74
1, 22678, Note_on_c, 0, 52, 0
1, 22681, Note_on_c, 0, 62, 78
1, 22689, Control_c, 0, 64, 0
1, 22767, Note_on_c, 0, 64, 0
1, 22767, Note_on_c, 0, 66, 68
1, 22856, Note_on_c, 0, 66, 0
1, 22856, Note_on_c, 0, 68, 68
1, 22946, Note_on_c, 0, 68, 0
1, 22946, Note_on_c, 0, 69, 78
1, 22946, Note_on_c, 0, 62, 0
1, 22949, Note_on_c, 0, 60, 74
1, 22973, Control_c, 0, 64, 127
1, 23035, Note_on_c, 0, 69, 0
1, 23035, Note_on_c, 0, 71, 70
1, 23035, Note_on_c, 0, 60, 0
1, 23038, Note_on_c, 0, 59, 67
1, 23124, Note_on_c, 0, 71, 0
1, 23124, Note_on_c, 0, 72, 73
1, 23124, Note_on_c, 0, 59, 0
1, 23127, Note_on_c, 0, 57, 67
1, 23213, Note_on_c, 0, 72, 0
1, 23213, Note_on_c, 0, 71, 83
1, 23213, Note_on_c, 0, 57, 0
1, 23216, Note_on_c, 0, 56, 77
1, 23220, Control_c, 0, 64, 0
1, 23248, Control_c, 0, 64, 127
1, 23303, Note_on_c, 0, 71, 0
1, 23303, Note_on_c, 0, 72, 73
1, 23303, Note_on_c, 0, 56, 0
1, 23306, Note_on_c, 0, 57, 66
1, 23393, Note_on_c, 0, 72, 0
1, 23393, Note_on_c, 0, 74, 78
1, 23393, Note_on_c, 0, 57, 0
1, 23396, Note_on_c, 0, 59, 66
1, 23483, Note_on_c, 0, 74, 0
1, 23483, Note_on_c, 0, 72, 89
1, 23483, Note_on_c, 0, 59, 0
1, 23486, Note_on_c, 0, 57, 82
1, 23493, Control_c, 0, 64, 0
1, 23524, Control_c, 0, 64, 127
1, 23574, Note_on_c, 0, 72, 0
1, 23574, Note_on_c, 0, 74, 78
1, 23574, Note_on_c, 0, 57, 0
1, 23577, Note_on_c, 0, 59, 74
1, 23667, Note_on_c, 0, 74, 0
1, 23667, Note_on_c, 0, 76, 84
1, 23667, Note_on_c, 0, 59, 0
1, 23670, Note_on_c, 0, 60, 74
1, 23764, Note_on_c, 0, 76, 0
1, 23764, Note_on_c, 0, 65, 106
1, 23764, Note_on_c, 0, 60, 0
1, 23767, Note_on_c, 0, 62, 101
1, 23774, Control_c, 0, 64, 0
1, 23799, Control_c, 0, 64, 127
1, 23853, Note_on_c, 0, 65, 0
1, 23853, Note_on_c, 0, 70, 88
1, 23853, Note_on_c, 0, 62, 0
1, 23856, Note_on_c, 0, 58, 86
1, 23943, Note_on_c, 0, 70, 0
1, 23943, Note_on_c, 0, 74, 85
1, 23943, Note_on_c, 0, 58, 0
1, 23946, Note_on_c, 0, 53, 86
1, 24032, Note_on_c, 0, 74, 0
1, 24032, Note_on_c, 0, 77, 103
1, 24032, Note_on_c, 0, 53, 0
1, 24035, Note_on_c, 0, 50, 95
1, 24122, Note_on_c, 0, 77, 0
1, 24122, Note_on_c, 0, 82, 87
1, 24122, Note_on_c, 0, 50, 0
1, 24125, Note_on_c, 0, 46, 84
1, 24213, Note_on_c, 0, 82, 0
1, 24213, Note_on_c, 0, 86, 87
1, 24213, Note_on_c, 0, 46, 0
1, 24216, Note_on_c, 0, 41, 85
1, 24303, Note_on_c, 0, 86, 0
1, 24303, Note_on_c, 0, 89, 102
1, 24303, Note_on_c, 0, 41, 0
1, 24306, Note_on_c, 0, 38, 95
1, 24395, Note_on_c, 0, 89, 0
1, 24395, Note_on_c, 0, 94, 88
1, 24395, Note_on_c, 0, 38, 0
1, 24398, Note_on_c, 0, 34, 85
1, 24489, Note_on_c, 0, 94, 0
1, 24489, Note_on_c, 0, 98, 88
1, 24489, Note_on_c, 0, 34, 0
1, 24492, Note_on_c, 0, 29, 86
1, 24586, Note_on_c, 0, 98, 0
1, 24586, Note_on_c, 0, 101, 107
1, 24586, Note_on_c, 0, 29, 0
1, 24589, Note_on_c, 0, 26, 103
1, 24662, Note_on_c, 0, 101, 0
1, 24662, Note_on_c, 0, 26, 0
1, 24734, Control_c, 0, 64, 0
1, 24892, Note_on_c, 0, 69, 89
1, 24892, Note_on_c, 0, 72, 89
1, 24892, Note_on_c, 0, 64, 89
1, 24895, Note_on_c, 0, 76, 103
1, 24895, Note_on_c, 0, 40, 78
1, 24895, Note_on_c, 0, 45, 78
1, 24898, Note_on_c, 0, 48, 78
1, 24898, Note_on_c, 0, 52, 90
1, 24915, Control_c, 0, 64, 127
1, 25014, Control_c, 0, 64, 0
1, 25052, Note_on_c, 0, 76, 0
1, 25052, Note_on_c, 0, 69, 0
1, 25052, Note_on_c, 0, 72, 0
1, 25055, Note_on_c, 0, 64, 0
1, 25055, Note_on_c, 0, 52, 0
1, 25055, Note_on_c, 0, 40, 0
1, 25058, Note_on_c, 0, 45, 0
1, 25058, Note_on_c, 0, 48, 0
1, 25211, Note_on_c, 0, 68, 84
1, 25211, Note_on_c, 0, 64, 84
1, 25211, Note_on_c, 0, 71, 84
1, 25214, Note_on_c, 0, 76, 98
1, 25214, Note_on_c, 0, 40, 73
1, 25214, Note_on_c, 0, 47, 73
1, 25217, Note_on_c, 0, 44, 73
1, 25217, Note_on_c, 0, 52, 85
1, 25231, Control_c, 0, 64, 127
1, 25333, Control_c, 0, 64, 0
1, 25384, Note_on_c, 0, 76, 0
1, 25384, Note_on_c, 0, 68, 0
1, 25384, Note_on_c, 0, 64, 0
1, 25387, Note_on_c, 0, 71, 0
1, 25387, Note_on_c, 0, 52, 0
1, 25387, Note_on_c, 0, 40, 0
1, 25390, Note_on_c, 0, 47, 0
1, 25390, Note_on_c, 0, 44, 0
1, 25556, Note_on_c, 0, 69, 98
1, 25556, Note_on_c, 0, 81, 114
1, 25556, Note_on_c, 0, 72, 98
1, 25559, Note_on_c, 0, 76, 98
1, 25559, Note_on_c, 0, 36, 83
1, 25559, Note_on_c, 0, 40, 83
1, 25562, Note_on_c, 0, 45, 96
1, 25562, Note_on_c, 0, 33, 83
1, 25603, Control_c, 0, 64, 127
1, 26352, Control_c, 0, 64, 0
1, 26385, Note_on_c, 0, 76, 0
1, 26385, Note_on_c, 0, 69, 0
1, 26385, Note_on_c, 0, 81, 0
1, 26388, Note_on_c, 0, 72, 0
1, 26388, Note_on_c, 0, 33, 0
1, 26388, Note_on_c, 0, 36, 0
1, 26391, Note_on_c, 0, 40, 0
1, 26391, Note_on_c, 0, 45, 0
1, 26391, Note_on_c, 0, 45, 86
1, 26425, Note_on_c, 0, 45, 0
1, 26425, Note_on_c, 0, 47, 87
1, 26466, Note_on_c, 0, 47, 0
1, 26466, Note_on_c, 0, 48, 87
1, 26506, Note_on_c, 0, 48, 0
1, 26506, Note_on_c, 0, 50, 88
1, 26546, Note_on_c, 0, 76, 98
1, 26546, Note_on_c, 0, 68, 84
1, 26546, Note_on_c, 0, 50, 0
1, 26549, Note_on_c, 0, 52, 95
1, 26549, Note_on_c, 0, 40, 82
1, 26618, Note_on_c, 0, 68, 0
1, 26618, Note_on_c, 0, 76, 0
1, 26618, Note_on_c, 0, 40, 0
1, 26621, Note_on_c, 0, 52, 0
1, 26690, Note_on_c, 0, 75, 79
1, 26690, Note_on_c, 0, 69, 68
1, 26690, Note_on_c, 0, 53, 79
1, 26693, Note_on_c, 0, 41, 68
1, 26765, Note_on_c, 0, 69, 0
1, 26765, Note_on_c, 0, 75, 0
1, 26765, Note_on_c, 0, 41, 0
1, 26768, Note_on_c, 0, 53, 0
1, 26839, Note_on_c, 0, 68, 78
1, 26839, Note_on_c, 0, 76, 91
1, 26839, Note_on_c, 0, 52, 87
1, 26842, Note_on_c, 0, 40, 75
1, 26912, Note_on_c, 0, 76, 0
1, 26912, Note_on_c, 0, 68, 0
1, 26912, Note_on_c, 0, 40, 0
1, 26915, Note_on_c, 0, 52, 0
1, 26984, Note_on_c, 0, 69, 68
1, 26984, Note_on_c, 0, 75, 79
1, 26984, Note_on_c, 0, 53, 79
1, 26987, Note_on_c, 0, 41, 68
1, 27058, Note_on_c, 0, 75, 0
1, 27058, Note_on_c, 0, 69, 0
1, 27058, Note_on_c, 0, 41, 0
1, 27061, Note_on_c, 0, 53, 0
1, 27133, Note_on_c, 0, 76, 98
1, 27133, Note_on_c, 0, 68, 84
1, 27133, Note_on_c, 0, 52, 87
1, 27136, Note_on_c, 0, 40, 75
1, 27220, Note_on_c, 0, 68, 0
1, 27220, Note_on_c, 0, 76, 0
1, 27220, Note_on_c, 0, 40, 0
1, 27223, Note_on_c, 0, 52, 0
1, 27480, Note_on_c, 0, 72, 98
1, 27480, Note_on_c, 0, 65, 98
1, 27480, Note_on_c, 0, 69, 98
1, 27483, Note_on_c, 0, 77, 114
1, 27483, Note_on_c, 0, 29, 83
1, 27483, Note_on_c, 0, 36, 83
1, 27486, Note_on_c, 0, 33, 83
1, 27486, Note_on_c, 0, 41, 97
1, 27492, Control_c, 0, 64, 127
1, 28291, Control_c, 0, 64, 0
1, 28309, Note_on_c, 0, 77, 0
1, 28309, Note_on_c, 0, 72, 0
1, 28309, Note_on_c, 0, 65, 0
1, 28312, Note_on_c, 0, 69, 0
1, 28312, Note_on_c, 0, 41, 0
1, 28312, Note_on_c, 0, 29, 0
1, 28315, Note_on_c, 0, 36, 0
1, 28315, Note_on_c, 0, 33, 0
1, 28315, Note_on_c, 0, 41, 79
1, 28349, Note_on_c, 0, 41, 0
1, 28349, Note_on_c, 0, 43, 79
1, 28389, Note_on_c, 0, 43, 0
1, 28389, Note_on_c, 0, 45, 79
1, 28429, Note_on_c, 0, 45, 0
1, 28429, Note_on_c, 0, 47, 80
1, 28469, Note_on_c, 0, 64, 84
1, 28469, Note_on_c, 0, 72, 98
1, 28469, Note_on_c, 0, 47, 0
1, 28472, Note_on_c, 0, 36, 69
1, 28472, Note_on_c, 0, 48, 80
1, 28541, Note_on_c, 0, 72, 0
1, 28541, Note_on_c, 0, 64, 0
1, 28541, Note_on_c, 0, 48, 0
1, 28544, Note_on_c, 0, 36, 0
1, 28614, Note_on_c, 0, 71, 82
1, 28614, Note_on_c, 0, 65, 71
1, 28614, Note_on_c, 0, 38, 62
1, 28617, Note_on_c, 0, 50, 72
1, 28688, Note_on_c, 0, 65, 0
1, 28688, Note_on_c, 0, 71, 0
1, 28688, Note_on_c, 0, 50, 0
1, 28691, Note_on_c, 0, 38, 0
1, 28762, Note_on_c, 0, 64, 77
1, 28762, Note_on_c, 0, 72, 89
1, 28762, Note_on_c, 0, 36, 70
1, 28765, Note_on_c, 0, 48, 81
1, 28835, Note_on_c, 0, 72, 0
1, 28835, Note_on_c, 0, 64, 0
1, 28835, Note_on_c, 0, 48, 0
1, 28838, Note_on_c, 0, 36, 0
1, 28908, Note_on_c, 0, 65, 71
1, 28908, Note_on_c, 0, 71, 82
1, 28908, Note_on_c, 0, 50, 74
1, 28911, Note_on_c, 0, 38, 64
1, 28982, Note_on_c, 0, 71, 0
1, 28982, Note_on_c, 0, 65, 0
1, 28982, Note_on_c, 0, 38, 0
1, 28985, Note_on_c, 0, 50, 0
1, 29056, Note_on_c, 0, 72, 98
1, 29056, Note_on_c, 0, 64, 84
1, 29056, Note_on_c, 0, 36, 75
1, 29059, Note_on_c, 0, 48, 87
1, 29143, Note_on_c, 0, 64, 0
1, 29143, Note_on_c, 0, 72, 0
1, 29143, Note_on_c, 0, 48, 0
1, 29146, Note_on_c, 0, 36, 0
1, 29403, Note_on_c, 0, 71, 93
1, 29403, Note_on_c, 0, 62, 93
1, 29403, Note_on_c, 0, 65, 93
1, 29406, Note_on_c, 0, 74, 108
1, 29406, Note_on_c, 0, 32, 83
1, 29406, Note_on_c, 0, 44, 96
1, 30066, Note_on_c, 0, 74, 0
1, 30066, Note_on_c, 0, 71, 0
1, 30066, Note_on_c, 0, 62, 0
1, 30069, Note_on_c, 0, 65, 0
1, 30069, Note_on_c, 0, 64, 86
1, 30069, Note_on_c, 0, 69, 86
1, 30072, Note_on_c, 0, 60, 86
1, 30072, Note_on_c, 0, 72, 100
1, 30072, Note_on_c, 0, 44, 0
1, 30075, Note_on_c, 0, 32, 0
1, 30075, Note_on_c, 0, 33, 78
1, 30075, Note_on_c, 0, 45, 90
1, 30115, Control_c, 0, 64, 127
1, 30232, Note_on_c, 0, 72, 0
1, 30232, Note_on_c, 0, 64, 0
1, 30232, Note_on_c, 0, 69, 0
1, 30235, Note_on_c, 0, 60, 0
1, 30235, Note_on_c, 0, 45, 0
1, 30235, Note_on_c, 0, 33, 0
1, 30291, Control_c, 0, 64, 0
1, 30398, Note_on_c, 0, 62, 86
1, 30398, Note_on_c, 0, 58, 86
1, 30398, Note_on_c, 0, 65, 86
1, 30401, Note_on_c, 0, 70, 100
1, 30401, Note_on_c, 0, 34, 75
1, 30401, Note_on_c, 0, 46, 87
1, 30432, Control_c, 0, 64, 127
1, 30543, Control_c, 0, 64, 0
1, 30560, Note_on_c, 0, 70, 0
1, 30560, Note_on_c, 0, 62, 0
1, 30560, Note_on_c, 0, 58, 0
1, 30563, Note_on_c, 0, 65, 0
1, 30563, Note_on_c, 0, 46, 0
1, 30563, Note_on_c, 0, 34, 0
1, 30722, Note_on_c, 0, 65, 90
1, 30722, Note_on_c, 0, 77, 105
1, 30722, Note_on_c, 0, 68, 90
1, 30725, Note_on_c, 0, 74, 90
1, 30725, Note_on_c, 0, 35, 80
1, 30725, Note_on_c, 0, 47, 93
1, 30739, Control_c, 0, 64, 127
1, 30876, Control_c, 0, 64, 0
1, 30881, Note_on_c, 0, 74, 0
1, 30881, Note_on_c, 0, 65, 0
1, 30881, Note_on_c, 0, 77, 0
1, 30884, Note_on_c, 0, 68, 0
1, 30884, Note_on_c, 0, 47, 0
1, 30884, Note_on_c, 0, 35, 0
1, 31040, Note_on_c, 0, 72, 87
1, 31040, Note_on_c, 0, 76, 101
1, 31040, Note_on_c, 0, 64, 87
1, 31043, Note_on_c, 0, 69, 87
1, 31043, Note_on_c, 0, 48, 89
1, 31043, Note_on_c, 0, 36, 77
1, 31079, Control_c, 0, 64, 127
1, 31191, Control_c, 0, 64, 0
1, 31202, Note_on_c, 0, 69, 0
1, 31202, Note_on_c, 0, 72, 0
1, 31202, Note_on_c, 0, 76, 0
1, 31205, Note_on_c, 0, 64, 0
1, 31205, Note_on_c, 0, 36, 0
1, 31205, Note_on_c, 0, 48, 0
1, 31365, Note_on_c, 0, 74, 104
1, 31365, Note_on_c, 0, 65, 89
1, 31365, Note_on_c, 0, 71, 89
1, 31368, Note_on_c, 0, 50, 94
1, 31368, Note_on_c, 0, 38, 81
1, 31405, Control_c, 0, 64, 127
1, 31532, Note_on_c, 0, 71, 0
1, 31532, Note_on_c, 0, 65, 0
1, 31532, Note_on_c, 0, 74, 0
1, 31535, Note_on_c, 0, 38, 0
1, 31535, Note_on_c, 0, 50, 0
1, 31539, Control_c, 0, 64, 0
1, 31698, Note_on_c, 0, 72, 100
1, 31698, Note_on_c, 0, 64, 86
1, 31698, Note_on_c, 0, 69, 86
1, 31701, Note_on_c, 0, 52, 88
1, 31701, Note_on_c, 0, 40, 76
1, 31747, Control_c, 0, 64, 127
1, 31868, Note_on_c, 0, 69, 0
1, 31868, Note_on_c, 0, 64, 0
1, 31868, Note_on_c, 0, 72, 0
1, 31871, Note_on_c, 0, 40, 0
1, 31871, Note_on_c, 0, 52, 0
1, 31892, Control_c, 0, 64, 0
1, 32038, Note_on_c, 0, 71, 98
1, 32038, Note_on_c, 0, 64, 84
1, 32038, Note_on_c, 0, 68, 84
1, 32041, Note_on_c, 0, 52, 85
1, 32041, Note_on_c, 0, 40, 73
1, 32080, Control_c, 0, 64, 127
1, 32214, Note_on_c, 0, 68, 0
1, 32214, Note_on_c, 0, 64, 0
1, 32214, Note_on_c, 0, 71, 0
1, 32217, Note_on_c, 0, 40, 0
1, 32217, Note_on_c, 0, 52, 0
1, 32222, Control_c, 0, 64, 0
1, 32389, Note_on_c, 0, 69, 97
1, 32389, Note_on_c, 0, 45, 79
1, 32389, Note_on_c, 0, 48, 79
1, 32392, Note_on_c, 0, 52, 79
1, 32392, Note_on_c, 0, 57, 92
1, 32392, Control_c, 0, 64, 127
1, 32535, Note_on_c, 0, 69, 0
1, 32535, Note_on_c, 0, 71, 93
1, 32607, Note_on_c, 0, 71, 0
1, 32607, Note_on_c, 0, 72, 85
1, 32680, Note_on_c, 0, 72, 0
1, 32680, Note_on_c, 0, 74, 86
1, 32753, Note_on_c, 0, 74, 0
1, 32753, Note_on_c, 0, 76, 88
1, 32825, Note_on_c, 0, 76, 0
1, 32825, Note_on_c, 0, 78, 90
1, 32898, Note_on_c, 0, 78, 0
1, 32898, Note_on_c, 0, 80, 92
1, 32972, Note_on_c, 0, 80, 0
1, 32972, Note_on_c, 0, 81, 93
1, 33045, Note_on_c, 0, 81, 0
1, 33045, Note_on_c, 0, 83, 95
1, 33119, Note_on_c, 0, 83, 0
1, 33119, Note_on_c, 0, 84, 97
1, 33194, Note_on_c, 0, 84, 0
1, 33194, Note_on_c, 0, 86, 98
1, 33268, Note_on_c, 0, 86, 0
1, 33268, Note_on_c, 0, 88, 109
1, 33268, Note_on_c, 0, 76, 94
1, 33271, Note_on_c, 0, 57, 0
1, 33271, Note_on_c, 0, 45, 0
1, 33271, Note_on_c, 0, 48, 0
1, 33274, Note_on_c, 0, 52, 0
1, 33274, Note_on_c, 0, 56, 87
1, 33274, Note_on_c, 0, 52, 75
1, 33277, Control_c, 0, 64, 0
1, 33341, Note_on_c, 0, 76, 0
1, 33341, Note_on_c, 0, 88, 0
1, 33341, Note_on_c, 0, 52, 0
1, 33344, Note_on_c, 0, 56, 0
1, 33414, Note_on_c, 0, 75, 83
1, 33414, Note_on_c, 0, 87, 96
1, 33414, Note_on_c, 0, 57, 77
1, 33417, Note_on_c, 0, 53, 66
1, 33489, Note_on_c, 0, 87, 0
1, 33489, Note_on_c, 0, 75, 0
1, 33489, Note_on_c, 0, 53, 0
1, 33492, Note_on_c, 0, 57, 0
1, 33564, Note_on_c, 0, 88, 103
1, 33564, Note_on_c, 0, 76, 89
1, 33564, Note_on_c, 0, 56, 82
1, 33567, Note_on_c, 0, 52, 71
1, 33637, Note_on_c, 0, 76, 0
1, 33637, Note_on_c, 0, 88, 0
1, 33637, Note_on_c, 0, 52, 0
1, 33640, Note_on_c, 0, 56, 0
1, 33710, Note_on_c, 0, 75, 83
1, 33710, Note_on_c, 0, 87, 96
1, 33710, Note_on_c, 0, 57, 75
1, 33713, Note_on_c, 0, 53, 65
1, 33785, Note_on_c, 0, 87, 0
1, 33785, Note_on_c, 0, 75, 0
1, 33785, Note_on_c, 0, 53, 0
1, 33788, Note_on_c, 0, 57, 0
1, 33860, Note_on_c, 0, 88, 111
1, 33860, Note_on_c, 0, 76, 95
1, 33860, Note_on_c, 0, 56, 87
1, 33863, Note_on_c, 0, 52, 75
1, 33947, Note_on_c, 0, 76, 0
1, 33947, Note_on_c, 0, 88, 0
1, 33947, Note_on_c, 0, 52, 0
1, 33950, Note_on_c, 0, 56, 0
1, 34207, Note_on_c, 0, 65, 99
1, 34207, Control_c, 0, 64, 127
1, 34207, Note_on_c, 0, 48, 82
1, 34210, Note_on_c, 0, 45, 82
1, 34210, Note_on_c, 0, 41, 82
1, 34210, Note_on_c, 0, 53, 95
1, 34352, Note_on_c, 0, 65, 0
1, 34352, Note_on_c, 0, 67, 93
1, 34425, Note_on_c, 0, 67, 0
1, 34425, Note_on_c, 0, 69, 85
1, 34498, Note_on_c, 0, 69, 0
1, 34498, Note_on_c, 0, 70, 86
1, 34570, Note_on_c, 0, 70, 0
1, 34570, Note_on_c, 0, 72, 88
1, 34643, Note_on_c, 0, 72, 0
1, 34643, Note_on_c, 0, 74, 90
1, 34716, Note_on_c, 0, 74, 0
1, 34716, Note_on_c, 0, 76, 92
1, 34789, Note_on_c, 0, 76, 0
1, 34789, Note_on_c, 0, 77, 93
1, 34863, Note_on_c, 0, 77, 0
1, 34863, Note_on_c, 0, 79, 95
1, 34937, Note_on_c, 0, 79, 0
1, 34937, Note_on_c, 0, 81, 97
1, 35011, Note_on_c, 0, 81, 0
1, 35011, Note_on_c, 0, 82, 98
1, 35086, Note_on_c, 0, 82, 0
1, 35086, Note_on_c, 0, 72, 89
1, 35086, Note_on_c, 0, 84, 104
1, 35089, Note_on_c, 0, 53, 0
1, 35089, Note_on_c, 0, 48, 0
1, 35089, Note_on_c, 0, 45, 0
1, 35092, Note_on_c, 0, 41, 0
1, 35092, Note_on_c, 0, 52, 81
1, 35092, Note_on_c, 0, 48, 70
1, 35092, Control_c, 0, 64, 0
1, 35159, Note_on_c, 0, 84, 0
1, 35159, Note_on_c, 0, 72, 0
1, 35159, Note_on_c, 0, 48, 0
1, 35162, Note_on_c, 0, 52, 0
1, 35232, Note_on_c, 0, 83, 92
1, 35232, Note_on_c, 0, 71, 79
1, 35232, Note_on_c, 0, 53, 74
1, 35235, Note_on_c, 0, 50, 64
1, 35307, Note_on_c, 0, 71, 0
1, 35307, Note_on_c, 0, 83, 0
1, 35307, Note_on_c, 0, 50, 0
1, 35310, Note_on_c, 0, 53, 0
1, 35382, Note_on_c, 0, 72, 86
1, 35382, Note_on_c, 0, 84, 100
1, 35382, Note_on_c, 0, 52, 80
1, 35385, Note_on_c, 0, 48, 69
1, 35455, Note_on_c, 0, 84, 0
1, 35455, Note_on_c, 0, 72, 0
1, 35455, Note_on_c, 0, 48, 0
1, 35458, Note_on_c, 0, 52, 0
1, 35528, Note_on_c, 0, 83, 91
1, 35528, Note_on_c, 0, 71, 78
1, 35528, Note_on_c, 0, 53, 72
1, 35531, Note_on_c, 0, 50, 62
1, 35603, Note_on_c, 0, 71, 0
1, 35603, Note_on_c, 0, 83, 0
1, 35603, Note_on_c, 0, 50, 0
1, 35606, Note_on_c, 0, 53, 0
1, 35678, Note_on_c, 0, 84, 105
1, 35678, Note_on_c, 0, 72, 90
1, 35678, Note_on_c, 0, 52, 84
1, 35681, Note_on_c, 0, 48, 72
1, 35765, Note_on_c, 0, 72, 0
1, 35765, Note_on_c, 0, 84, 0
1, 35765, Note_on_c, 0, 48, 0
1, 35768, Note_on_c, 0, 52, 0
1, 36025, Note_on_c, 0, 71, 95
1, 36025, Note_on_c, 0, 50, 67
1, 36025, Note_on_c, 0, 47, 67
1, 36028, Note_on_c, 0, 56, 78
1, 36028, Note_on_c, 0, 53, 67
1, 36028, Note_on_c, 0, 44, 67
1, 36079, Control_c, 0, 64, 127
1, 36108, Note_on_c, 0, 71, 0
1, 36108, Note_on_c, 0, 72, 90
1, 36191, Note_on_c, 0, 72, 0
1, 36191, Note_on_c, 0, 74, 90
1, 36274, Note_on_c, 0, 74, 0
1, 36274, Note_on_c, 0, 76, 88
1, 36357, Note_on_c, 0, 76, 0
1, 36357, Note_on_c, 0, 77, 100
1, 36440, Note_on_c, 0, 77, 0
1, 36440, Note_on_c, 0, 83, 93
1, 36523, Note_on_c, 0, 83, 0
1, 36523, Note_on_c, 0, 86, 92
1, 36605, Note_on_c, 0, 86, 0
1, 36605, Note_on_c, 0, 89, 88
1, 36688, Note_on_c, 0, 89, 0
1, 36688, Note_on_c, 0, 88, 102
1, 36688, Note_on_c, 0, 44, 0
1, 36691, Note_on_c, 0, 56, 0
1, 36691, Note_on_c, 0, 50, 0
1, 36691, Note_on_c, 0, 47, 0
1, 36694, Note_on_c, 0, 53, 0
1, 36694, Note_on_c, 0, 48, 65
1, 36694, Note_on_c, 0, 57, 75
1, 36697, Note_on_c, 0, 52, 65
1, 36697, Note_on_c, 0, 45, 65
1, 36703, Control_c, 0, 64, 0
1, 36771, Note_on_c, 0, 88, 0
1, 36854, Note_on_c, 0, 45, 0
1, 36854, Note_on_c, 0, 48, 0
1, 36854, Note_on_c, 0, 57, 0
1, 36857, Note_on_c, 0, 52, 0
1, 37028, Note_on_c, 0, 70, 96
1, 37028, Note_on_c, 0, 50, 61
1, 37028, Note_on_c, 0, 58, 70
1, 37031, Note_on_c, 0, 53, 61
1, 37031, Note_on_c, 0, 46, 61
1, 37072, Control_c, 0, 64, 127
1, 37112, Note_on_c, 0, 70, 0
1, 37112, Note_on_c, 0, 74, 88
1, 37196, Note_on_c, 0, 74, 0
1, 37196, Note_on_c, 0, 77, 88
1, 37196, Note_on_c, 0, 46, 0
1, 37199, Note_on_c, 0, 50, 0
1, 37199, Note_on_c, 0, 58, 0
1, 37199, Note_on_c, 0, 53, 0
1, 37280, Note_on_c, 0, 77, 0
1, 37280, Note_on_c, 0, 82, 88
1, 37364, Note_on_c, 0, 82, 0
1, 37364, Note_on_c, 0, 74, 96
1, 37364, Note_on_c, 0, 50, 59
1, 37367, Note_on_c, 0, 56, 59
1, 37367, Note_on_c, 0, 59, 68
1, 37367, Note_on_c, 0, 47, 59
1, 37370, Note_on_c, 0, 53, 59
1, 37370, Control_c, 0, 64, 0
1, 37448, Note_on_c, 0, 74, 0
1, 37448, Note_on_c, 0, 77, 88
1, 37448, Control_c, 0, 64, 127
1, 37532, Note_on_c, 0, 77, 0
1, 37532, Note_on_c, 0, 80, 88
1, 37532, Note_on_c, 0, 53, 0
1, 37535, Note_on_c, 0, 59, 0
1, 37535, Note_on_c, 0, 50, 0
1, 37535, Note_on_c, 0, 56, 0
1, 37538, Note_on_c, 0, 47, 0
1, 37616, Note_on_c, 0, 80, 0
1, 37616, Note_on_c, 0, 86, 88
1, 37701, Note_on_c, 0, 86, 0
1, 37701, Note_on_c, 0, 72, 96
1, 37701, Note_on_c, 0, 52, 58
1, 37704, Note_on_c, 0, 60, 67
1, 37704, Note_on_c, 0, 57, 58
1, 37704, Note_on_c, 0, 48, 58
1, 37704, Control_c, 0, 64, 0
1, 37785, Note_on_c, 0, 72, 0
1, 37785, Note_on_c, 0, 76, 86
1, 37785, Control_c, 0, 64, 127
1, 37869, Note_on_c, 0, 76, 0
1, 37869, Note_on_c, 0, 81, 86
1, 37869, Note_on_c, 0, 48, 0
1, 37872, Note_on_c, 0, 52, 0
1, 37872, Note_on_c, 0, 60, 0
1, 37872, Note_on_c, 0, 57, 0
1, 37956, Note_on_c, 0, 81, 0
1, 37956, Note_on_c, 0, 84, 86
1, 38043, Note_on_c, 0, 84, 0
1, 38043, Note_on_c, 0, 71, 90
1, 38043, Note_on_c, 0, 53, 59
1, 38046, Note_on_c, 0, 62, 68
1, 38046, Note_on_c, 0, 50, 59
1, 38046, Note_on_c, 0, 59, 59
1, 38053, Control_c, 0, 64, 0
1, 38108, Control_c, 0, 64, 127
1, 38128, Note_on_c, 0, 71, 0
1, 38128, Note_on_c, 0, 74, 83
1, 38214, Note_on_c, 0, 74, 0
1, 38214, Note_on_c, 0, 77, 83
1, 38214, Note_on_c, 0, 59, 0
1, 38217, Note_on_c, 0, 53, 0
1, 38217, Note_on_c, 0, 62, 0
1, 38217, Note_on_c, 0, 50, 0
1, 38299, Note_on_c, 0, 77, 0
1, 38299, Note_on_c, 0, 83, 82
1, 38385, Note_on_c, 0, 83, 0
1, 38385, Note_on_c, 0, 69, 88
1, 38385, Note_on_c, 0, 57, 57
1, 38388, Note_on_c, 0, 64, 66
1, 38388, Note_on_c, 0, 60, 57
1, 38388, Note_on_c, 0, 52, 57
1, 38395, Control_c, 0, 64, 0
1, 38460, Control_c, 0, 64, 127
1, 38473, Note_on_c, 0, 69, 0
1, 38473, Note_on_c, 0, 72, 80
1, 38561, Note_on_c, 0, 72, 0
1, 38561, Note_on_c, 0, 76, 80
1, 38561, Note_on_c, 0, 52, 0
1, 38564, Note_on_c, 0, 57, 0
1, 38564, Note_on_c, 0, 64, 0
1, 38564, Note_on_c, 0, 60, 0
1, 38649, Note_on_c, 0, 76, 0
1, 38649, Note_on_c, 0, 81, 80
1, 38737, Note_on_c, 0, 81, 0
1, 38737, Note_on_c, 0, 68, 87
1, 38737, Note_on_c, 0, 59, 55
1, 38740, Note_on_c, 0, 64, 64
1, 38740, Note_on_c, 0, 52, 55
1, 38740, Note_on_c, 0, 56, 55
1, 38745, Control_c, 0, 64, 0
1, 38790, Control_c, 0, 64, 127
1, 38828, Note_on_c, 0, 68, 0
1, 38828, Note_on_c, 0, 71, 79
1, 38920, Note_on_c, 0, 71, 0
1, 38920, Note_on_c, 0, 76, 79
1, 38920, Note_on_c, 0, 56, 0
1, 38923, Note_on_c, 0, 59, 0
1, 38923, Note_on_c, 0, 64, 0
1, 38923, Note_on_c, 0, 52, 0
1, 39011, Note_on_c, 0, 76, 0
1, 39011, Note_on_c, 0, 80, 79
1, 39102, Note_on_c, 0, 80, 0
1, 39102, Note_on_c, 0, 57, 97
1, 39102, Note_on_c, 0, 45, 87
1, 39106, Control_c, 0, 64, 0
1, 39168, Control_c, 0, 64, 127
1, 39248, Note_on_c, 0, 57, 0
1, 39248, Note_on_c, 0, 59, 92
1, 39248, Note_on_c, 0, 45, 0
1, 39251, Note_on_c, 0, 47, 83
1, 39320, Note_on_c, 0, 59, 0
1, 39320, Note_on_c, 0, 60, 88
1, 39320, Note_on_c, 0, 47, 0
1, 39323, Note_on_c, 0, 48, 77
1, 39393, Note_on_c, 0, 60, 0
1, 39393, Note_on_c, 0, 62, 87
1, 39393, Note_on_c, 0, 48, 0
1, 39396, Note_on_c, 0, 50, 77
1, 39466, Note_on_c, 0, 62, 0
1, 39466, Note_on_c, 0, 64, 87
1, 39466, Note_on_c, 0, 50, 0
1, 39469, Note_on_c, 0, 52, 76
1, 39538, Note_on_c, 0, 64, 0
1, 39538, Note_on_c, 0, 66, 87
1, 39538, Note_on_c, 0, 52, 0
1, 39541, Note_on_c, 0, 54, 75
1, 39611, Note_on_c, 0, 66, 0
1, 39611, Note_on_c, 0, 68, 86
1, 39611, Note_on_c, 0, 54, 0
1, 39614, Note_on_c, 0, 56, 74
1, 39685, Note_on_c, 0, 68, 0
1, 39685, Note_on_c, 0, 69, 86
1, 39685, Note_on_c, 0, 56, 0
1, 39688, Note_on_c, 0, 57, 73
1, 39758, Note_on_c, 0, 69, 0
1, 39758, Note_on_c, 0, 71, 86
1, 39758, Note_on_c, 0, 57, 0
1, 39761, Note_on_c, 0, 59, 73
1, 39832, Note_on_c, 0, 71, 0
1, 39832, Note_on_c, 0, 72, 85
1, 39832, Note_on_c, 0, 59, 0
1, 39835, Note_on_c, 0, 60, 72
1, 39907, Note_on_c, 0, 72, 0
1, 39907, Note_on_c, 0, 74, 85
1, 39907, Note_on_c, 0, 60, 0
1, 39910, Note_on_c, 0, 62, 72
1, 39981, Note_on_c, 0, 74, 0
1, 39981, Note_on_c, 0, 76, 84
1, 39981, Note_on_c, 0, 62, 0
1, 39984, Note_on_c, 0, 64, 71
1, 40056, Note_on_c, 0, 76, 0
1, 40056, Note_on_c, 0, 77, 84
1, 40056, Note_on_c, 0, 64, 0
1, 40059, Note_on_c, 0, 65, 71
1, 40131, Note_on_c, 0, 77, 0
1, 40131, Note_on_c, 0, 79, 83
1, 40131, Note_on_c, 0, 65, 0
1, 40134, Note_on_c, 0, 67, 70
1, 40206, Note_on_c, 0, 79, 0
1, 40206, Note_on_c, 0, 81, 83
1, 40206, Note_on_c, 0, 67, 0
1, 40209, Note_on_c, 0, 69, 70
1, 40281, Note_on_c, 0, 81, 0
1, 40281, Note_on_c, 0, 82, 81
1, 40281, Note_on_c, 0, 69, 0
1, 40284, Note_on_c, 0, 70, 70
1, 40287, Control_c, 0, 64, 0
1, 40380, Control_c, 0, 64, 127
1, 40433, Note_on_c, 0, 82, 0
1, 40433, Note_on_c, 0, 70, 0
1, 41192, Note_on_c, 0, 79, 81
1, 41192, Note_on_c, 0, 67, 70
1, 41344, Note_on_c, 0, 79, 0
1, 41344, Note_on_c, 0, 67, 0
1, 42103, Note_on_c, 0, 76, 77
1, 42103, Note_on_c, 0, 64, 65
1, 42255, Note_on_c, 0, 76, 0
1, 42255, Note_on_c, 0, 64, 0
1, 43026, Note_on_c, 0, 73, 65
1, 43026, Note_on_c, 0, 61, 58
1, 43181, Note_on_c, 0, 73, 0
1, 43181, Note_on_c, 0, 61, 0
1, 43990, Note_on_c, 0, 72, 60
1, 43990, Note_on_c, 0, 60, 56
1, 44162, Note_on_c, 0, 72, 0
1, 44162, Note_on_c, 0, 60, 0
1, 44963, Note_on_c, 0, 69, 48
1, 44963, Note_on_c, 0, 60, 43
1, 44963, Control_c, 0, 64, 0
1, 44966, Note_on_c, 0, 41, 46
1, 45013, Control_c, 0, 64, 127
1, 45125, Note_on_c, 0, 41, 0
1, 45125, Note_on_c, 0, 48, 32
1, 45287, Note_on_c, 0, 48, 0
1, 45287, Note_on_c, 0, 53, 37
1, 45449, Note_on_c, 0, 53, 0
1, 45449, Note_on_c, 0, 48, 32
1, 45611, Note_on_c, 0, 48, 0
1, 45611, Note_on_c, 0, 53, 46
1, 45766, Note_on_c, 0, 69, 0
1, 45766, Note_on_c, 0, 70, 46
1, 45766, Note_on_c, 0, 53, 0
1, 45843, Note_on_c, 0, 70, 0
1, 45843, Note_on_c, 0, 69, 41
1, 45920, Note_on_c, 0, 69, 0
1, 45920, Note_on_c, 0, 67, 46
1, 45920, Note_on_c, 0, 40, 46
1, 45924, Control_c, 0, 64, 0
1, 45994, Control_c, 0, 64, 127
1, 46075, Note_on_c, 0, 40, 0
1, 46075, Note_on_c, 0, 48, 36
1, 46229, Note_on_c, 0, 67, 0
1, 46229, Note_on_c, 0, 70, 48
1, 46229, Note_on_c, 0, 48, 0
1, 46232, Note_on_c, 0, 55, 41
1, 46386, Note_on_c, 0, 55, 0
1, 46386, Note_on_c, 0, 48, 36
1, 46543, Note_on_c, 0, 70, 0
1, 46543, Note_on_c, 0, 73, 52
1, 46543, Note_on_c, 0, 48, 0
1, 46546, Note_on_c, 0, 58, 45
1, 46703, Note_on_c, 0, 58, 0
1, 46863, Note_on_c, 0, 73, 0
1, 46863, Note_on_c, 0, 60, 0
1, 46863, Note_on_c, 0, 72, 50
1, 46866, Note_on_c, 0, 60, 43
1, 46866, Note_on_c, 0, 41, 43
1, 46871, Control_c, 0, 64, 0
1, 46964, Control_c, 0, 64, 127
1, 47019, Note_on_c, 0, 41, 0
1, 47019, Note_on_c, 0, 48, 33
1, 47175, Note_on_c, 0, 48, 0
1, 47175, Note_on_c, 0, 57, 36
1, 47331, Note_on_c, 0, 57, 0
1, 47331, Note_on_c, 0, 48, 32
1, 47487, Note_on_c, 0, 72, 0
1, 47487, Note_on_c, 0, 69, 44
1, 47487, Note_on_c, 0, 48, 0
1, 47490, Note_on_c, 0, 53, 46
1, 47645, Note_on_c, 0, 53, 0
1, 47797, Note_on_c, 0, 69, 0
1, 47803, Note_on_c, 0, 60, 0
1, 47803, Note_on_c, 0, 72, 50
1, 47803, Note_on_c, 0, 60, 43
1, 47806, Note_on_c, 0, 40, 46
1, 47811, Control_c, 0, 64, 0
1, 47885, Control_c, 0, 64, 127
1, 47958, Note_on_c, 0, 40, 0
1, 47958, Note_on_c, 0, 48, 37
1, 48112, Note_on_c, 0, 48, 0
1, 48112, Note_on_c, 0, 52, 41
1, 48267, Note_on_c, 0, 52, 0
1, 48267, Note_on_c, 0, 48, 36
1, 48421, Note_on_c, 0, 72, 0
1, 48421, Note_on_c, 0, 70, 44
1, 48421, Note_on_c, 0, 48, 0
1, 48424, Note_on_c, 0, 55, 45
1, 48585, Note_on_c, 0, 55, 0
1, 48741, Note_on_c, 0, 70, 0
1, 48748, Note_on_c, 0, 60, 0
1, 48748, Note_on_c, 0, 69, 48
1, 48748, Note_on_c, 0, 60, 48
1, 48751, Note_on_c, 0, 41, 44
1, 48756, Control_c, 0, 64, 0
1, 48796, Control_c, 0, 64, 127
1, 48905, Note_on_c, 0, 41, 0
1, 48905, Note_on_c, 0, 48, 37
1, 49062, Note_on_c, 0, 48, 0
1, 49062, Note_on_c, 0, 53, 39
1, 49219, Note_on_c, 0, 53, 0
1, 49219, Note_on_c, 0, 48, 36
1, 49376, Note_on_c, 0, 48, 0
1, 49376, Note_on_c, 0, 53, 46
1, 49528, Note_on_c, 0, 69, 0
1, 49528, Note_on_c, 0, 70, 45
1, 49528, Note_on_c, 0, 53, 0
1, 49604, Note_on_c, 0, 70, 0
1, 49604, Note_on_c, 0, 69, 41
1, 49679, Note_on_c, 0, 69, 0
1, 49679, Note_on_c, 0, 67, 46
1, 49679, Note_on_c, 0, 40, 46
1, 49685, Control_c, 0, 64, 0
1, 49751, Control_c, 0, 64, 127
1, 49831, Note_on_c, 0, 40, 0
1, 49831, Note_on_c, 0, 48, 37
1, 49982, Note_on_c, 0, 67, 0
1, 49982, Note_on_c, 0, 70, 48
1, 49982, Note_on_c, 0, 48, 0
1, 49985, Note_on_c, 0, 55, 41
1, 50135, Note_on_c, 0, 55, 0
1, 50135, Note_on_c, 0, 48, 37
1, 50288, Note_on_c, 0, 70, 0
1, 50288, Note_on_c, 0, 73, 52
1, 50288, Note_on_c, 0, 48, 0
1, 50291, Note_on_c, 0, 58, 45
1, 50447, Note_on_c, 0, 58, 0
1, 50607, Note_on_c, 0, 73, 0
1, 50607, Note_on_c, 0, 60, 0
1, 50607, Note_on_c, 0, 72, 50
1, 50610, Note_on_c, 0, 60, 43
1, 50610, Note_on_c, 0, 41, 43
1, 50613, Control_c, 0, 64, 0
1, 50705, Control_c, 0, 64, 127
1, 50760, Note_on_c, 0, 41, 0
1, 50760, Note_on_c, 0, 48, 33
1, 50913, Note_on_c, 0, 48, 0
1, 50913, Note_on_c, 0, 57, 37
1, 51066, Note_on_c, 0, 57, 0
1, 51066, Note_on_c, 0, 48, 32
1, 51219, Note_on_c, 0, 72, 0
1, 51219, Note_on_c, 0, 69, 44
1, 51219, Note_on_c, 0, 48, 0
1, 51222, Note_on_c, 0, 53, 46
1, 51377, Note_on_c, 0, 53, 0
1, 51528, Note_on_c, 0, 69, 0
1, 51535, Note_on_c, 0, 60, 0
1, 51535, Note_on_c, 0, 72, 57
1, 51535, Note_on_c, 0, 60, 57
1, 51538, Note_on_c, 0, 40, 48
1, 51542, Control_c, 0, 64, 0
1, 51662, Control_c, 0, 64, 127
1, 51689, Note_on_c, 0, 40, 0
1, 51689, Note_on_c, 0, 48, 38
1, 51843, Note_on_c, 0, 48, 0
1, 51843, Note_on_c, 0, 52, 45
1, 51997, Note_on_c, 0, 52, 0
1, 51997, Note_on_c, 0, 48, 38
1, 52151, Note_on_c, 0, 72, 0
1, 52151, Note_on_c, 0, 70, 55
1, 52151, Note_on_c, 0, 48, 0
1, 52154, Note_on_c, 0, 55, 45
1, 52311, Note_on_c, 0, 55, 0
1, 52464, Note_on_c, 0, 70, 0
1, 52471, Note_on_c, 0, 60, 0
1, 52471, Note_on_c, 0, 61, 63
1, 52471, Note_on_c, 0, 73, 63
1, 52474, Note_on_c, 0, 40, 48
1, 52474, Control_c, 0, 64, 0
1, 52573, Control_c, 0, 64, 127
1, 52624, Note_on_c, 0, 40, 0
1, 52624, Note_on_c, 0, 49, 40
1, 52777, Note_on_c, 0, 49, 0
1, 52777, Note_on_c, 0, 52, 46
1, 52930, Note_on_c, 0, 52, 0
1, 52930, Note_on_c, 0, 49, 41
1, 53083, Note_on_c, 0, 73, 0
1, 53083, Note_on_c, 0, 70, 59
1, 53083, Note_on_c, 0, 49, 0
1, 53086, Note_on_c, 0, 55, 49
1, 53244, Note_on_c, 0, 55, 0
1, 53397, Note_on_c, 0, 70, 0
1, 53404, Note_on_c, 0, 61, 0
1, 53404, Note_on_c, 0, 62, 67
1, 53404, Note_on_c, 0, 74, 67
1, 53407, Note_on_c, 0, 41, 57
1, 53412, Control_c, 0, 64, 0
1, 53486, Control_c, 0, 64, 127
1, 53560, Note_on_c, 0, 41, 0
1, 53560, Note_on_c, 0, 50, 43
1, 53715, Note_on_c, 0, 50, 0
1, 53715, Note_on_c, 0, 53, 46
1, 53871, Note_on_c, 0, 53, 0
1, 53871, Note_on_c, 0, 50, 43
1, 54026, Note_on_c, 0, 74, 0
1, 54026, Note_on_c, 0, 70, 59
1, 54026, Note_on_c, 0, 50, 0
1, 54029, Note_on_c, 0, 58, 51
1, 54187, Note_on_c, 0, 58, 0
1, 54340, Note_on_c, 0, 70, 0
1, 54347, Note_on_c, 0, 62, 0
1, 54347, Note_on_c, 0, 63, 63
1, 54347, Note_on_c, 0, 69, 63
1, 54350, Note_on_c, 0, 41, 58
1, 54354, Control_c, 0, 64, 0
1, 54423, Control_c, 0, 64, 127
1, 54509, Note_on_c, 0, 41, 0
1, 54509, Note_on_c, 0, 53, 45
1, 54670, Note_on_c, 0, 69, 0
1, 54670, Note_on_c, 0, 78, 71
1, 54670, Note_on_c, 0, 53, 0
1, 54673, Note_on_c, 0, 60, 50
1, 54828, Note_on_c, 0, 60, 0
1, 54828, Note_on_c, 0, 53, 45
1, 54986, Note_on_c, 0, 78, 0
1, 54986, Note_on_c, 0, 77, 65
1, 54986, Note_on_c, 0, 53, 0
1, 54989, Note_on_c, 0, 60, 54
1, 55146, Note_on_c, 0, 60, 0
1, 55307, Note_on_c, 0, 77, 0
1, 55307, Note_on_c, 0, 63, 0
1, 55307, Note_on_c, 0, 65, 43
1, 55310, Note_on_c, 0, 75, 60
1, 55310, Note_on_c, 0, 46, 49
1, 55316, Control_c, 0, 64, 0
1, 55367, Control_c, 0, 64, 127
1, 55465, Note_on_c, 0, 46, 0
1, 55465, Note_on_c, 0, 53, 34
1, 55623, Note_on_c, 0, 53, 0
1, 55623, Note_on_c, 0, 58, 36
1, 55779, Note_on_c, 0, 58, 0
1, 55779, Note_on_c, 0, 53, 32
1, 55934, Note_on_c, 0, 75, 0
1, 55934, Note_on_c, 0, 74, 55
1, 55934, Note_on_c, 0, 53, 0
1, 55937, Note_on_c, 0, 62, 41
1, 56096, Note_on_c, 0, 62, 0
1, 56252, Note_on_c, 0, 74, 0
1, 56258, Note_on_c, 0, 65, 0
1, 56258, Note_on_c, 0, 60, 59
1, 56258, Note_on_c, 0, 69, 59
1, 56261, Note_on_c, 0, 38, 48
1, 56267, Control_c, 0, 64, 0
1, 56388, Control_c, 0, 64, 127
1, 56419, Note_on_c, 0, 38, 0
1, 56419, Note_on_c, 0, 50, 40
1, 56579, Note_on_c, 0, 69, 0
1, 56579, Note_on_c, 0, 75, 63
1, 56579, Note_on_c, 0, 50, 0
1, 56582, Note_on_c, 0, 54, 43
1, 56736, Note_on_c, 0, 54, 0
1, 56736, Note_on_c, 0, 50, 39
1, 56892, Note_on_c, 0, 75, 0
1, 56892, Note_on_c, 0, 74, 55
1, 56892, Note_on_c, 0, 50, 0
1, 56895, Note_on_c, 0, 57, 48
1, 57052, Note_on_c, 0, 57, 0
1, 57211, Note_on_c, 0, 74, 0
1, 57211, Note_on_c, 0, 60, 0
1, 57211, Note_on_c, 0, 72, 58
1, 57214, Note_on_c, 0, 62, 43
1, 57214, Note_on_c, 0, 43, 46
1, 57222, Control_c, 0, 64, 0
1, 57339, Control_c, 0, 64, 127
1, 57369, Note_on_c, 0, 43, 0
1, 57369, Note_on_c, 0, 50, 35
1, 57525, Note_on_c, 0, 50, 0
1, 57525, Note_on_c, 0, 55, 38
1, 57680, Note_on_c, 0, 55, 0
1, 57680, Note_on_c, 0, 50, 36
1, 57836, Note_on_c, 0, 72, 0
1, 57836, Note_on_c, 0, 70, 55
1, 57836, Note_on_c, 0, 50, 0
1, 57839, Note_on_c, 0, 58, 41
1, 57994, Note_on_c, 0, 58, 0
1, 58146, Note_on_c, 0, 70, 0
1, 58153, Note_on_c, 0, 62, 0
1, 58153, Note_on_c, 0, 60, 43
1, 58153, Note_on_c, 0, 72, 50
1, 58156, Note_on_c, 0, 40, 46
1, 58160, Control_c, 0, 64, 0
1, 58261, Control_c, 0, 64, 127
1, 58307, Note_on_c, 0, 40, 0
1, 58307, Note_on_c, 0, 48, 37
1, 58461, Note_on_c, 0, 48, 0
1, 58461, Note_on_c, 0, 52, 39
1, 58615, Note_on_c, 0, 52, 0
1, 58615, Note_on_c, 0, 48, 37
1, 58769, Note_on_c, 0, 72, 0
1, 58769, Note_on_c, 0, 70, 44
1, 58769, Note_on_c, 0, 48, 0
1, 58772, Note_on_c, 0, 55, 45
1, 58929, Note_on_c, 0, 55, 0
1, 59082, Note_on_c, 0, 70, 0
1, 59089, Note_on_c, 0, 60, 0
1, 59089, Note_on_c, 0, 60, 43
1, 59089, Note_on_c, 0, 72, 50
1, 59092, Note_on_c, 0, 41, 43
1, 59096, Control_c, 0, 64, 0
1, 59188, Control_c, 0, 64, 127
1, 59243, Note_on_c, 0, 41, 0
1, 59243, Note_on_c, 0, 48, 38
1, 59397, Note_on_c, 0, 48, 0
1, 59397, Note_on_c, 0, 57, 39
1, 59551, Note_on_c, 0, 57, 0
1, 59551, Note_on_c, 0, 48, 38
1, 59705, Note_on_c, 0, 72, 0
1, 59705, Note_on_c, 0, 69, 44
1, 59705, Note_on_c, 0, 48, 0
1, 59708, Note_on_c, 0, 53, 46
1, 59865, Note_on_c, 0, 53, 0
1, 60019, Note_on_c, 0, 69, 0
1, 60026, Note_on_c, 0, 60, 0
1, 60026, Note_on_c, 0, 58, 43
1, 60026, Note_on_c, 0, 73, 61
1, 60029, Note_on_c, 0, 36, 43
1, 60034, Control_c, 0, 64, 0
1, 60130, Control_c, 0, 64, 127
1, 60183, Note_on_c, 0, 36, 0
1, 60183, Note_on_c, 0, 48, 39
1, 60340, Note_on_c, 0, 73, 0
1, 60340, Note_on_c, 0, 72, 46
1, 60340, Note_on_c, 0, 48, 0
1, 60343, Note_on_c, 0, 55, 39
1, 60497, Note_on_c, 0, 72, 0
1, 60497, Note_on_c, 0, 70, 41
1, 60497, Note_on_c, 0, 55, 0
1, 60500, Note_on_c, 0, 48, 39
1, 60655, Note_on_c, 0, 70, 0
1, 60655, Note_on_c, 0, 69, 45
1, 60655, Note_on_c, 0, 48, 0
1, 60658, Note_on_c, 0, 52, 46
1, 60815, Note_on_c, 0, 69, 0
1, 60815, Note_on_c, 0, 67, 39
1, 60815, Note_on_c, 0, 52, 0
1, 60975, Note_on_c, 0, 67, 0
1, 60975, Note_on_c, 0, 58, 0
1, 60975, Note_on_c, 0, 57, 38
1, 60978, Note_on_c, 0, 65, 45
1, 60978, Note_on_c, 0, 41, 43
1, 60989, Control_c, 0, 64, 0
1, 61076, Control_c, 0, 64, 127
1, 61137, Note_on_c, 0, 41, 0
1, 61137, Note_on_c, 0, 48, 36
1, 61299, Note_on_c, 0, 57, 0
1, 61299, Note_on_c, 0, 48, 0
1, 61299, Note_on_c, 0, 57, 36
1, 61460, Note_on_c, 0, 65, 0
1, 61460, Note_on_c, 0, 67, 48
1, 61460, Note_on_c, 0, 57, 0
1, 61463, Note_on_c, 0, 48, 36
1, 61622, Note_on_c, 0, 67, 0
1, 61622, Note_on_c, 0, 69, 53
1, 61622, Note_on_c, 0, 48, 0
1, 61625, Note_on_c, 0, 53, 40
1, 61783, Note_on_c, 0, 69, 0
1, 61783, Note_on_c, 0, 70, 56
1, 61783, Note_on_c, 0, 53, 0
1, 61945, Note_on_c, 0, 70, 0
1, 61945, Note_on_c, 0, 69, 64
1, 61945, Note_on_c, 0, 63, 64
1, 61948, Note_on_c, 0, 41, 54
1, 61953, Control_c, 0, 64, 0
1, 62039, Control_c, 0, 64, 127
1, 62104, Note_on_c, 0, 41, 0
1, 62104, Note_on_c, 0, 53, 46
1, 62264, Note_on_c, 0, 69, 0
1, 62264, Note_on_c, 0, 78, 69
1, 62264, Note_on_c, 0, 53, 0
1, 62267, Note_on_c, 0, 60, 48
1, 62420, Note_on_c, 0, 60, 0
1, 62420, Note_on_c, 0, 53, 46
1, 62577, Note_on_c, 0, 78, 0
1, 62577, Note_on_c, 0, 77, 64
1, 62577, Note_on_c, 0, 53, 0
1, 62580, Note_on_c, 0, 60, 54
1, 62736, Note_on_c, 0, 60, 0
1, 62896, Note_on_c, 0, 77, 0
1, 62896, Note_on_c, 0, 63, 0
1, 62896, Note_on_c, 0, 65, 62
1, 62899, Note_on_c, 0, 75, 62
1, 62899, Note_on_c, 0, 46, 49
1, 62906, Control_c, 0, 64, 0
1, 62978, Control_c, 0, 64, 127
1, 63052, Note_on_c, 0, 46, 0
1, 63052, Note_on_c, 0, 53, 36
1, 63209, Note_on_c, 0, 53, 0
1, 63209, Note_on_c, 0, 58, 36
1, 63364, Note_on_c, 0, 58, 0
1, 63364, Note_on_c, 0, 53, 36
1, 63520, Note_on_c, 0, 75, 0
1, 63520, Note_on_c, 0, 74, 59
1, 63520, Note_on_c, 0, 53, 0
1, 63523, Note_on_c, 0, 62, 41
1, 63682, Note_on_c, 0, 62, 0
1, 63837, Note_on_c, 0, 74, 0
1, 63844, Note_on_c, 0, 65, 0
1, 63844, Note_on_c, 0, 69, 60
1, 63844, Note_on_c, 0, 60, 60
1, 63847, Note_on_c, 0, 38, 50
1, 63851, Control_c, 0, 64, 0
1, 63920, Control_c, 0, 64, 127
1, 64005, Note_on_c, 0, 38, 0
1, 64005, Note_on_c, 0, 50, 40
1, 64165, Note_on_c, 0, 69, 0
1, 64165, Note_on_c, 0, 75, 66
1, 64165, Note_on_c, 0, 50, 0
1, 64168, Note_on_c, 0, 54, 46
1, 64322, Note_on_c, 0, 54, 0
1, 64322, Note_on_c, 0, 50, 39
1, 64478, Note_on_c, 0, 75, 0
1, 64478, Note_on_c, 0, 74, 61
1, 64478, Note_on_c, 0, 50, 0
1, 64481, Note_on_c, 0, 57, 48
1, 64638, Note_on_c, 0, 57, 0
1, 64797, Note_on_c, 0, 74, 0
1, 64797, Note_on_c, 0, 60, 0
1, 64797, Note_on_c, 0, 62, 43
1, 64800, Note_on_c, 0, 72, 58
1, 64800, Note_on_c, 0, 43, 46
1, 64804, Control_c, 0, 64, 0
1, 64917, Control_c, 0, 64, 127
1, 64955, Note_on_c, 0, 43, 0
1, 64955, Note_on_c, 0, 50, 36
1, 65110, Note_on_c, 0, 50, 0
1, 65110, Note_on_c, 0, 55, 36
1, 65266, Note_on_c, 0, 55, 0
1, 65266, Note_on_c, 0, 50, 36
1, 65421, Note_on_c, 0, 72, 0
1, 65421, Note_on_c, 0, 70, 55
1, 65421, Note_on_c, 0, 50, 0
1, 65424, Note_on_c, 0, 58, 41
1, 65582, Note_on_c, 0, 58, 0
1, 65737, Note_on_c, 0, 70, 0
1, 65743, Note_on_c, 0, 62, 0
1, 65743, Note_on_c, 0, 60, 53
1, 65743, Note_on_c, 0, 72, 53
1, 65746, Note_on_c, 0, 40, 46
1, 65750, Control_c, 0, 64, 0
1, 65861, Control_c, 0, 64, 127
1, 65897, Note_on_c, 0, 40, 0
1, 65897, Note_on_c, 0, 48, 37
1, 66051, Note_on_c, 0, 48, 0
1, 66051, Note_on_c, 0, 52, 38
1, 66205, Note_on_c, 0, 52, 0
1, 66205, Note_on_c, 0, 48, 38
1, 66359, Note_on_c, 0, 72, 0
1, 66359, Note_on_c, 0, 70, 46
1, 66359, Note_on_c, 0, 48, 0
1, 66362, Note_on_c, 0, 55, 45
1, 66519, Note_on_c, 0, 55, 0
1, 66673, Note_on_c, 0, 70, 0
1, 66679, Note_on_c, 0, 60, 0
1, 66679, Note_on_c, 0, 60, 53
1, 66679, Note_on_c, 0, 72, 53
1, 66682, Note_on_c, 0, 41, 43
1, 66688, Control_c, 0, 64, 0
1, 66770, Control_c, 0, 64, 127
1, 66833, Note_on_c, 0, 41, 0
1, 66833, Note_on_c, 0, 48, 37
1, 66987, Note_on_c, 0, 48, 0
1, 66987, Note_on_c, 0, 57, 39
1, 67142, Note_on_c, 0, 57, 0
1, 67142, Note_on_c, 0, 48, 36
1, 67296, Note_on_c, 0, 72, 0
1, 67296, Note_on_c, 0, 69, 44
1, 67296, Note_on_c, 0, 48, 0
1, 67299, Note_on_c, 0, 53, 46
1, 67456, Note_on_c, 0, 53, 0
1, 67610, Note_on_c, 0, 69, 0
1, 67616, Note_on_c, 0, 60, 0
1, 67616, Note_on_c, 0, 58, 43
1, 67616, Note_on_c, 0, 73, 61
1, 67619, Note_on_c, 0, 36, 43
1, 67627, Control_c, 0, 64, 0
1, 67746, Control_c, 0, 64, 127
1, 67776, Note_on_c, 0, 36, 0
1, 67776, Note_on_c, 0, 48, 36
1, 67936, Note_on_c, 0, 73, 0
1, 67936, Note_on_c, 0, 72, 46
1, 67936, Note_on_c, 0, 48, 0
1, 67939, Note_on_c, 0, 55, 39
1, 68097, Note_on_c, 0, 72, 0
1, 68097, Note_on_c, 0, 70, 41
1, 68097, Note_on_c, 0, 55, 0
1, 68100, Note_on_c, 0, 48, 37
1, 68259, Note_on_c, 0, 70, 0
1, 68259, Note_on_c, 0, 69, 45
1, 68259, Note_on_c, 0, 48, 0
1, 68262, Note_on_c, 0, 52, 46
1, 68421, Note_on_c, 0, 69, 0
1, 68421, Note_on_c, 0, 67, 39
1, 68421, Note_on_c, 0, 52, 0
1, 68585, Note_on_c, 0, 67, 0
1, 68585, Note_on_c, 0, 58, 0
1, 68585, Note_on_c, 0, 65, 45
1, 68588, Note_on_c, 0, 57, 41
1, 68588, Note_on_c, 0, 41, 43
1, 68591, Control_c, 0, 64, 0
1, 68730, Control_c, 0, 64, 127
1, 68749, Note_on_c, 0, 41, 0
1, 68749, Note_on_c, 0, 48, 33
1, 68913, Note_on_c, 0, 57, 0
1, 68913, Note_on_c, 0, 65, 0
1, 68913, Note_on_c, 0, 48, 0
1, 68916, Note_on_c, 0, 53, 36
1, 69077, Note_on_c, 0, 53, 0
1, 69077, Note_on_c, 0, 48, 33
1, 69242, Note_on_c, 0, 48, 0
1, 69242, Note_on_c, 0, 57, 33
1, 69414, Note_on_c, 0, 57, 0
1, 69586, Note_on_c, 0, 60, 45
1, 69586, Note_on_c, 0, 69, 45
1, 69586, Note_on_c, 0, 41, 43
1, 69593, Control_c, 0, 64, 0
1, 69673, Control_c, 0, 64, 127
1, 69750, Note_on_c, 0, 41, 0
1, 69750, Note_on_c, 0, 48, 30
1, 69915, Note_on_c, 0, 48, 0
1, 69915, Note_on_c, 0, 53, 36
1, 70079, Note_on_c, 0, 53, 0
1, 70079, Note_on_c, 0, 48, 30
1, 70243, Note_on_c, 0, 48, 0
1, 70243, Note_on_c, 0, 57, 35
1, 70426, Note_on_c, 0, 57, 0
1, 70608, Note_on_c, 0, 69, 0
1, 70608, Note_on_c, 0, 60, 0
1, 70608, Note_on_c, 0, 64, 42
1, 70611, Note_on_c, 0, 60, 42
1, 70611, Note_on_c, 0, 69, 42
1, 70611, Note_on_c, 0, 40, 41
1, 70616, Control_c, 0, 64, 0
1, 70734, Control_c, 0, 64, 127
1, 70772, Note_on_c, 0, 40, 0
1, 70772, Note_on_c, 0, 48, 28
1, 70936, Note_on_c, 0, 48, 0
1, 70936, Note_on_c, 0, 52, 33
1, 71106, Note_on_c, 0, 52, 0
1, 71106, Note_on_c, 0, 48, 28
1, 71277, Note_on_c, 0, 48, 0
1, 71277, Note_on_c, 0, 57, 35
1, 71462, Note_on_c, 0, 57, 0
1, 71648, Note_on_c, 0, 69, 0
1, 71648, Note_on_c, 0, 60, 0
1, 71648, Note_on_c, 0, 64, 0
1, 71651, Note_on_c, 0, 64, 40
1, 71651, Note_on_c, 0, 68, 40
1, 71651, Note_on_c, 0, 59, 40
1, 71654, Note_on_c, 0, 40, 39
1, 71654, Control_c, 0, 64, 0
1, 71767, Control_c, 0, 64, 127
1, 71816, Note_on_c, 0, 40, 0
1, 71816, Note_on_c, 0, 47, 30
1, 71993, Note_on_c, 0, 47, 0
1, 71993, Note_on_c, 0, 52, 35
1, 72177, Note_on_c, 0, 52, 0
1, 72177, Note_on_c, 0, 47, 28
1, 72371, Note_on_c, 0, 47, 0
1, 72371, Note_on_c, 0, 56, 30
1, 72646, Note_on_c, 0, 56, 0
1, 72672, Control_c, 0, 64, 0
1, 72920, Note_on_c, 0, 59, 0
1, 72920, Note_on_c, 0, 68, 0
1, 72920, Note_on_c, 0, 64, 0
1, 72923, Note_on_c, 0, 69, 52
1, 72923, Note_on_c, 0, 45, 48
1, 73009, Note_on_c, 0, 69, 0
1, 73009, Note_on_c, 0, 71, 49
1, 73099, Note_on_c, 0, 71, 0
1, 73099, Note_on_c, 0, 72, 49
1, 73188, Note_on_c, 0, 72, 0
1, 73188, Note_on_c, 0, 71, 52
1, 73188, Note_on_c, 0, 45, 0
1, 73277, Note_on_c, 0, 71, 0
1, 73277, Note_on_c, 0, 72, 49
1, 73367, Note_on_c, 0, 72, 0
1, 73367, Note_on_c, 0, 74, 49
1, 73458, Note_on_c, 0, 74, 0
1, 73458, Note_on_c, 0, 76, 65
1, 73458, Note_on_c, 0, 64, 52
1, 73487, Control_c, 0, 64, 127
1, 73548, Note_on_c, 0, 64, 0
1, 73548, Note_on_c, 0, 66, 47
1, 73637, Note_on_c, 0, 66, 0
1, 73637, Note_on_c, 0, 68, 47
1, 73727, Note_on_c, 0, 76, 0
1, 73727, Note_on_c, 0, 69, 52
1, 73727, Note_on_c, 0, 68, 0
1, 73730, Note_on_c, 0, 66, 54
1, 73730, Control_c, 0, 64, 0
1, 73816, Note_on_c, 0, 69, 0
1, 73816, Note_on_c, 0, 71, 48
1, 73816, Note_on_c, 0, 66, 0
1, 73819, Note_on_c, 0, 68, 48
1, 73905, Note_on_c, 0, 71, 0
1, 73905, Note_on_c, 0, 72, 48
1, 73905, Note_on_c, 0, 68, 0
1, 73908, Note_on_c, 0, 69, 48
1, 73995, Note_on_c, 0, 72, 0
1, 73995, Note_on_c, 0, 71, 69
1, 73995, Note_on_c, 0, 69, 0
1, 74084, Note_on_c, 0, 72, 47
1, 74173, Note_on_c, 0, 72, 0
1, 74173, Note_on_c, 0, 74, 47
1, 74266, Note_on_c, 0, 74, 0
1, 74266, Note_on_c, 0, 71, 0
1, 74266, Note_on_c, 0, 76, 65
1, 74269, Note_on_c, 0, 64, 52
1, 74294, Control_c, 0, 64, 127
1, 74355, Note_on_c, 0, 64, 0
1, 74355, Note_on_c, 0, 66, 49
1, 74445, Note_on_c, 0, 66, 0
1, 74445, Note_on_c, 0, 68, 49
1, 74537, Note_on_c, 0, 76, 0
1, 74537, Note_on_c, 0, 69, 52
1, 74537, Note_on_c, 0, 68, 0
1, 74540, Note_on_c, 0, 66, 52
1, 74540, Control_c, 0, 64, 0
1, 74626, Note_on_c, 0, 69, 0
1, 74626, Note_on_c, 0, 71, 48
1, 74626, Note_on_c, 0, 66, 0
1, 74629, Note_on_c, 0, 68, 48
1, 74716, Note_on_c, 0, 71, 0
1, 74716, Note_on_c, 0, 72, 48
1, 74716, Note_on_c, 0, 68, 0
1, 74719, Note_on_c, 0, 69, 48
1, 74807, Note_on_c, 0, 72, 0
1, 74807, Note_on_c, 0, 71, 66
1, 74807, Note_on_c, 0, 69, 0
1, 74896, Note_on_c, 0, 72, 48
1, 74986, Note_on_c, 0, 72, 0
1, 74986, Note_on_c, 0, 74, 48
1, 75077, Note_on_c, 0, 74, 0
1, 75077, Note_on_c, 0, 71, 0
1, 75077, Note_on_c, 0, 72, 52
1, 75080, Note_on_c, 0, 69, 52
1, 75166, Note_on_c, 0, 72, 0
1, 75166, Note_on_c, 0, 74, 50
1, 75166, Note_on_c, 0, 69, 0
1, 75169, Note_on_c, 0, 71, 52
1, 75256, Note_on_c, 0, 74, 0
1, 75256, Note_on_c, 0, 76, 52
1, 75256, Note_on_c, 0, 71, 0
1, 75259, Note_on_c, 0, 72, 53
1, 75345, Note_on_c, 0, 76, 0
1, 75345, Note_on_c, 0, 77, 52
1, 75345, Note_on_c, 0, 72, 0
1, 75348, Note_on_c, 0, 74, 54
1, 75435, Note_on_c, 0, 77, 0
1, 75435, Note_on_c, 0, 79, 55
1, 75435, Note_on_c, 0, 74, 0
1, 75438, Note_on_c, 0, 76, 55
1, 75525, Note_on_c, 0, 79, 0
1, 75525, Note_on_c, 0, 81, 59
1, 75525, Note_on_c, 0, 76, 0
1, 75528, Note_on_c, 0, 77, 57
1, 75615, Note_on_c, 0, 81, 0
1, 75615, Note_on_c, 0, 79, 61
1, 75615, Note_on_c, 0, 77, 0
1, 75618, Note_on_c, 0, 76, 61
1, 75705, Note_on_c, 0, 79, 0
1, 75705, Note_on_c, 0, 77, 57
1, 75705, Note_on_c, 0, 76, 0
1, 75708, Note_on_c, 0, 74, 56
1, 75794, Note_on_c, 0, 77, 0
1, 75794, Note_on_c, 0, 76, 55
1, 75794, Note_on_c, 0, 74, 0
1, 75797, Note_on_c, 0, 72, 53
1, 75884, Note_on_c, 0, 76, 0
1, 75884, Note_on_c, 0, 74, 56
1, 75884, Note_on_c, 0, 72, 0
1, 75887, Note_on_c, 0, 71, 56
1, 75974, Note_on_c, 0, 74, 0
1, 75974, Note_on_c, 0, 72, 54
1, 75974, Note_on_c, 0, 71, 0
1, 75977, Note_on_c, 0, 69, 54
1, 76064, Note_on_c, 0, 72, 0
1, 76064, Note_on_c, 0, 71, 50
1, 76064, Note_on_c, 0, 69, 0
1, 76067, Note_on_c, 0, 67, 52
1, 76159, Note_on_c, 0, 71, 0
1, 76159, Note_on_c, 0, 69, 57
1, 76159, Note_on_c, 0, 67, 0
1, 76162, Note_on_c, 0, 65, 60
1, 76253, Note_on_c, 0, 69, 0
1, 76253, Note_on_c, 0, 71, 52
1, 76264, Note_on_c, 0, 65, 0
1, 76346, Note_on_c, 0, 71, 0
1, 76346, Note_on_c, 0, 72, 52
1, 76439, Note_on_c, 0, 72, 0
1, 76439, Note_on_c, 0, 71, 55
1, 76439, Note_on_c, 0, 60, 57
1, 76531, Note_on_c, 0, 71, 0
1, 76531, Note_on_c, 0, 69, 50
1, 76543, Note_on_c, 0, 60, 0
1, 76624, Note_on_c, 0, 69, 0
1, 76624, Note_on_c, 0, 67, 50
1, 76716, Note_on_c, 0, 67, 0
1, 76716, Note_on_c, 0, 65, 55
1, 76716, Note_on_c, 0, 57, 52
1, 76738, Control_c, 0, 64, 127
1, 76808, Note_on_c, 0, 65, 0
1, 76808, Note_on_c, 0, 64, 49
1, 76901, Note_on_c, 0, 64, 0
1, 76901, Note_on_c, 0, 63, 49
1, 76995, Note_on_c, 0, 63, 0
1, 76995, Note_on_c, 0, 64, 58
1, 76995, Note_on_c, 0, 57, 0
1, 76998, Control_c, 0, 64, 0
1, 76998, Note_on_c, 0, 56, 55
1, 77086, Note_on_c, 0, 56, 0
1, 77086, Note_on_c, 0, 54, 50
1, 77177, Note_on_c, 0, 54, 0
1, 77177, Note_on_c, 0, 52, 50
1, 77267, Note_on_c, 0, 64, 0
1, 77267, Note_on_c, 0, 52, 0
1, 77267, Note_on_c, 0, 51, 54
1, 77357, Note_on_c, 0, 51, 0
1, 77357, Note_on_c, 0, 49, 49
1, 77448, Note_on_c, 0, 49, 0
1, 77448, Note_on_c, 0, 47, 50
1, 77540, Note_on_c, 0, 59, 52
1, 77540, Note_on_c, 0, 47, 0
1, 77540, Note_on_c, 0, 57, 64
1, 77630, Note_on_c, 0, 59, 0
1, 77630, Note_on_c, 0, 61, 48
1, 77719, Note_on_c, 0, 61, 0
1, 77719, Note_on_c, 0, 63, 48
1, 77809, Note_on_c, 0, 63, 0
1, 77809, Note_on_c, 0, 64, 55
1, 77809, Note_on_c, 0, 57, 0
1, 77812, Note_on_c, 0, 56, 55
1, 77900, Note_on_c, 0, 64, 0
1, 77900, Note_on_c, 0, 66, 51
1, 77900, Note_on_c, 0, 56, 0
1, 77903, Note_on_c, 0, 54, 51
1, 77991, Note_on_c, 0, 66, 0
1, 77991, Note_on_c, 0, 68, 51
1, 77991, Note_on_c, 0, 54, 0
1, 77994, Note_on_c, 0, 52, 51
1, 78083, Note_on_c, 0, 68, 0
1, 78083, Note_on_c, 0, 69, 60
1, 78083, Note_on_c, 0, 52, 0
1, 78086, Note_on_c, 0, 51, 55
1, 78099, Control_c, 0, 64, 127
1, 78172, Note_on_c, 0, 51, 0
1, 78172, Note_on_c, 0, 49, 49
1, 78262, Note_on_c, 0, 49, 0
1, 78262, Note_on_c, 0, 47, 49
1, 78354, Note_on_c, 0, 69, 0
1, 78354, Note_on_c, 0, 59, 52
1, 78354, Note_on_c, 0, 47, 0
1, 78357, Note_on_c, 0, 57, 64
1, 78357, Control_c, 0, 64, 0
1, 78443, Note_on_c, 0, 59, 0
1, 78443, Note_on_c, 0, 61, 48
1, 78532, Note_on_c, 0, 61, 0
1, 78532, Note_on_c, 0, 63, 48
1, 78622, Note_on_c, 0, 63, 0
1, 78622, Note_on_c, 0, 64, 55
1, 78622, Note_on_c, 0, 57, 0
1, 78625, Note_on_c, 0, 56, 55
1, 78712, Note_on_c, 0, 64, 0
1, 78712, Note_on_c, 0, 66, 50
1, 78712, Note_on_c, 0, 56, 0
1, 78715, Note_on_c, 0, 54, 49
1, 78802, Note_on_c, 0, 66, 0
1, 78802, Note_on_c, 0, 68, 50
1, 78802, Note_on_c, 0, 54, 0
1, 78805, Note_on_c, 0, 52, 49
1, 78895, Note_on_c, 0, 68, 0
1, 78895, Note_on_c, 0, 69, 59
1, 78895, Note_on_c, 0, 52, 0
1, 78898, Note_on_c, 0, 51, 54
1, 78917, Control_c, 0, 64, 127
1, 78984, Note_on_c, 0, 51, 0
1, 78984, Note_on_c, 0, 49, 47
1, 79073, Note_on_c, 0, 49, 0
1, 79073, Note_on_c, 0, 47, 47
1, 79165, Note_on_c, 0, 69, 0
1, 79165, Note_on_c, 0, 59, 52
1, 79165, Note_on_c, 0, 47, 0
1, 79168, Note_on_c, 0, 57, 64
1, 79168, Control_c, 0, 64, 0
1, 79255, Note_on_c, 0, 59, 0
1, 79255, Note_on_c, 0, 61, 49
1, 79344, Note_on_c, 0, 61, 0
1, 79344, Note_on_c, 0, 63, 49
1, 79434, Note_on_c, 0, 63, 0
1, 79434, Note_on_c, 0, 64, 55
1, 79434, Note_on_c, 0, 57, 0
1, 79437, Note_on_c, 0, 56, 52
1, 79456, Control_c, 0, 64, 127
1, 79524, Note_on_c, 0, 64, 0
1, 79524, Note_on_c, 0, 66, 49
1, 79524, Note_on_c, 0, 56, 0
1, 79527, Note_on_c, 0, 54, 46
1, 79614, Note_on_c, 0, 66, 0
1, 79614, Note_on_c, 0, 68, 50
1, 79614, Note_on_c, 0, 54, 0
1, 79617, Note_on_c, 0, 52, 46
1, 79706, Note_on_c, 0, 68, 0
1, 79706, Note_on_c, 0, 66, 62
1, 79706, Note_on_c, 0, 52, 0
1, 79709, Note_on_c, 0, 54, 55
1, 79709, Control_c, 0, 64, 0
1, 79734, Control_c, 0, 64, 127
1, 79796, Note_on_c, 0, 66, 0
1, 79796, Note_on_c, 0, 68, 56
1, 79796, Note_on_c, 0, 54, 0
1, 79799, Note_on_c, 0, 52, 48
1, 79885, Note_on_c, 0, 68, 0
1, 79885, Note_on_c, 0, 69, 57
1, 79885, Note_on_c, 0, 52, 0
1, 79888, Note_on_c, 0, 51, 49
1, 79977, Note_on_c, 0, 69, 0
1, 79977, Note_on_c, 0, 68, 67
1, 79977, Note_on_c, 0, 51, 0
1, 79980, Note_on_c, 0, 52, 56
1, 79983, Control_c, 0, 64, 0
1, 80018, Control_c, 0, 64, 127
1, 80066, Note_on_c, 0, 68, 0
1, 80066, Note_on_c, 0, 69, 62
1, 80066, Note_on_c, 0, 52, 0
1, 80069, Note_on_c, 0, 51, 52
1, 80156, Note_on_c, 0, 69, 0
1, 80156, Note_on_c, 0, 71, 64
1, 80156, Note_on_c, 0, 51, 0
1, 80159, Note_on_c, 0, 50, 52
1, 80247, Note_on_c, 0, 71, 0
1, 80247, Note_on_c, 0, 69, 72
1, 80247, Note_on_c, 0, 50, 0
1, 80250, Note_on_c, 0, 52, 61
1, 80253, Control_c, 0, 64, 0
1, 80298, Control_c, 0, 64, 127
1, 80336, Note_on_c, 0, 69, 0
1, 80336, Note_on_c, 0, 71, 65
1, 80336, Note_on_c, 0, 52, 0
1, 80339, Note_on_c, 0, 50, 58
1, 80425, Note_on_c, 0, 71, 0
1, 80425, Note_on_c, 0, 72, 69
1, 80425, Note_on_c, 0, 50, 0
1, 80428, Note_on_c, 0, 48, 59
1, 80515, Note_on_c, 0, 72, 0
1, 80515, Note_on_c, 0, 71, 79
1, 80515, Note_on_c, 0, 48, 0
1, 80518, Note_on_c, 0, 50, 65
1, 80524, Control_c, 0, 64, 0
1, 80570, Control_c, 0, 64, 127
1, 80605, Note_on_c, 0, 71, 0
1, 80605, Note_on_c, 0, 72, 69
1, 80605, Note_on_c, 0, 50, 0
1, 80608, Note_on_c, 0, 48, 62
1, 80695, Note_on_c, 0, 72, 0
1, 80695, Note_on_c, 0, 74, 75
1, 80695, Note_on_c, 0, 48, 0
1, 80698, Note_on_c, 0, 47, 62
1, 80785, Note_on_c, 0, 74, 0
1, 80785, Note_on_c, 0, 72, 86
1, 80785, Note_on_c, 0, 47, 0
1, 80788, Note_on_c, 0, 48, 73
1, 80795, Control_c, 0, 64, 0
1, 80825, Control_c, 0, 64, 127
1, 80875, Note_on_c, 0, 72, 0
1, 80875, Note_on_c, 0, 74, 76
1, 80875, Note_on_c, 0, 48, 0
1, 80878, Note_on_c, 0, 47, 67
1, 80966, Note_on_c, 0, 74, 0
1, 80966, Note_on_c, 0, 76, 83
1, 80966, Note_on_c, 0, 47, 0
1, 80969, Note_on_c, 0, 45, 68
1, 81057, Note_on_c, 0, 76, 0
1, 81057, Note_on_c, 0, 77, 100
1, 81057, Note_on_c, 0, 45, 0
1, 81060, Note_on_c, 0, 44, 87
1, 81065, Control_c, 0, 64, 0
1, 81107, Control_c, 0, 64, 127
1, 81149, Note_on_c, 0, 77, 0
1, 81149, Note_on_c, 0, 76, 87
1, 81149, Note_on_c, 0, 44, 0
1, 81152, Note_on_c, 0, 45, 77
1, 81240, Note_on_c, 0, 76, 0
1, 81240, Note_on_c, 0, 74, 89
1, 81240, Note_on_c, 0, 45, 0
1, 81243, Note_on_c, 0, 47, 77
1, 81334, Note_on_c, 0, 74, 0
1, 81334, Note_on_c, 0, 83, 98
1, 81334, Note_on_c, 0, 77, 98
1, 81337, Note_on_c, 0, 47, 0
1, 81337, Note_on_c, 0, 44, 85
1, 81337, Note_on_c, 0, 38, 85
1, 81337, Control_c, 0, 64, 0
1, 81377, Control_c, 0, 64, 127
1, 81426, Note_on_c, 0, 77, 0
1, 81426, Note_on_c, 0, 76, 89
1, 81426, Note_on_c, 0, 44, 0
1, 81429, Note_on_c, 0, 45, 76
1, 81471, Note_on_c, 0, 83, 0
1, 81471, Note_on_c, 0, 38, 0
1, 81517, Note_on_c, 0, 76, 0
1, 81517, Note_on_c, 0, 74, 89
1, 81517, Note_on_c, 0, 45, 0
1, 81520, Note_on_c, 0, 47, 76
1, 81609, Note_on_c, 0, 74, 0
1, 81609, Note_on_c, 0, 77, 102
1, 81609, Note_on_c, 0, 83, 102
1, 81612, Note_on_c, 0, 47, 0
1, 81612, Note_on_c, 0, 44, 86
1, 81612, Note_on_c, 0, 38, 86
1, 81612, Control_c, 0, 64, 0
1, 81651, Control_c, 0, 64, 127
1, 81700, Note_on_c, 0, 77, 0
1, 81700, Note_on_c, 0, 76, 90
1, 81700, Note_on_c, 0, 44, 0
1, 81703, Note_on_c, 0, 45, 79
1, 81746, Note_on_c, 0, 83, 0
1, 81746, Note_on_c, 0, 38, 0
1, 81792, Note_on_c, 0, 76, 0
1, 81792, Note_on_c, 0, 74, 90
1, 81792, Note_on_c, 0, 45, 0
1, 81795, Note_on_c, 0, 47, 79
1, 81884, Note_on_c, 0, 74, 0
1, 81884, Note_on_c, 0, 83, 103
1, 81884, Note_on_c, 0, 77, 103
1, 81887, Note_on_c, 0, 47, 0
1, 81887, Note_on_c, 0, 38, 88
1, 81887, Note_on_c, 0, 44, 88
1, 81893, Control_c, 0, 64, 0
1, 81908, Control_c, 0, 64, 127
1, 81976, Note_on_c, 0, 77, 0
1, 81976, Note_on_c, 0, 76, 94
1, 81976, Note_on_c, 0, 44, 0
1, 81979, Note_on_c, 0, 45, 82
1, 82022, Note_on_c, 0, 83, 0
1, 82022, Note_on_c, 0, 38, 0
1, 82068, Note_on_c, 0, 76, 0
1, 82068, Note_on_c, 0, 74, 96
1, 82068, Note_on_c, 0, 45, 0
1, 82071, Note_on_c, 0, 47, 84
1, 82162, Note_on_c, 0, 74, 0
1, 82162, Note_on_c, 0, 77, 107
1, 82162, Note_on_c, 0, 83, 107
1, 82165, Note_on_c, 0, 47, 0
1, 82165, Note_on_c, 0, 38, 91
1, 82165, Note_on_c, 0, 44, 91
1, 82170, Control_c, 0, 64, 0
1, 82203, Control_c, 0, 64, 127
1, 82255, Note_on_c, 0, 77, 0
1, 82255, Note_on_c, 0, 76, 96
1, 82255, Note_on_c, 0, 44, 0
1, 82258, Note_on_c, 0, 45, 84
1, 82301, Note_on_c, 0, 83, 0
1, 82301, Note_on_c, 0, 38, 0
1, 82347, Note_on_c, 0, 76, 0
1, 82347, Note_on_c, 0, 74, 97
1, 82347, Note_on_c, 0, 45, 0
1, 82350, Note_on_c, 0, 47, 86
1, 82442, Note_on_c, 0, 74, 0
1, 82442, Note_on_c, 0, 83, 110
1, 82442, Note_on_c, 0, 77, 110
1, 82445, Note_on_c, 0, 47, 0
1, 82445, Note_on_c, 0, 44, 94
1, 82445, Note_on_c, 0, 38, 94
1, 82448, Control_c, 0, 64, 0
1, 82474, Control_c, 0, 64, 127
1, 82535, Note_on_c, 0, 77, 0
1, 82535, Note_on_c, 0, 76, 98
1, 82535, Note_on_c, 0, 44, 0
1, 82538, Note_on_c, 0, 45, 86
1, 82581, Note_on_c, 0, 83, 0
1, 82581, Note_on_c, 0, 38, 0
1, 82627, Note_on_c, 0, 76, 0
1, 82627, Note_on_c, 0, 74, 101
1, 82627, Note_on_c, 0, 45, 0
1, 82630, Note_on_c, 0, 47, 88
1, 82726, Note_on_c, 0, 74, 0
1, 82726, Note_on_c, 0, 77, 116
1, 82726, Note_on_c, 0, 83, 116
1, 82729, Note_on_c, 0, 47, 0
1, 82729, Note_on_c, 0, 43, 109
1, 82729, Note_on_c, 0, 31, 109
1, 82729, Control_c, 0, 64, 0
1, 82789, Control_c, 0, 64, 127
1, 82819, Note_on_c, 0, 77, 0
1, 82819, Note_on_c, 0, 75, 89
1, 82865, Note_on_c, 0, 83, 0
1, 82865, Note_on_c, 0, 31, 0
1, 82865, Note_on_c, 0, 43, 0
1, 82912, Note_on_c, 0, 75, 0
1, 82912, Note_on_c, 0, 74, 77
1, 82997, Control_c, 0, 64, 0
1, 83005, Note_on_c, 0, 74, 0
1, 83005, Note_on_c, 0, 77, 85
1, 83005, Note_on_c, 0, 83, 85
1, 83099, Note_on_c, 0, 77, 0
1, 83099, Note_on_c, 0, 75, 74
1, 83146, Note_on_c, 0, 83, 0
1, 83193, Note_on_c, 0, 75, 0
1, 83193, Note_on_c, 0, 74, 67
1, 83288, Note_on_c, 0, 74, 0
1, 83288, Note_on_c, 0, 77, 73
1, 83288, Note_on_c, 0, 83, 73
1, 83383, Note_on_c, 0, 77, 0
1, 83383, Note_on_c, 0, 75, 66
1, 83431, Note_on_c, 0, 83, 0
1, 83478, Note_on_c, 0, 75, 0
1, 83478, Note_on_c, 0, 74, 59
1, 83583, Note_on_c, 0, 74, 0
1, 83583, Note_on_c, 0, 80, 71
1, 83677, Note_on_c, 0, 80, 0
1, 83677, Note_on_c, 0, 79, 64
1, 83770, Note_on_c, 0, 79, 0
1, 83770, Note_on_c, 0, 77, 60
1, 83866, Note_on_c, 0, 77, 0
1, 83866, Note_on_c, 0, 79, 66
1, 83960, Note_on_c, 0, 79, 0
1, 83960, Note_on_c, 0, 77, 56
1, 84054, Note_on_c, 0, 77, 0
1, 84054, Note_on_c, 0, 75, 56
1, 84151, Note_on_c, 0, 75, 0
1, 84151, Note_on_c, 0, 77, 65
1, 84245, Note_on_c, 0, 77, 0
1, 84245, Note_on_c, 0, 75, 55
1, 84340, Note_on_c, 0, 75, 0
1, 84340, Note_on_c, 0, 74, 55
1, 84437, Note_on_c, 0, 74, 0
1, 84437, Note_on_c, 0, 72, 60
1, 84529, Note_on_c, 0, 72, 0
1, 84529, Note_on_c, 0, 74, 56
1, 84621, Note_on_c, 0, 74, 0
1, 84621, Note_on_c, 0, 75, 56
1, 84713, Note_on_c, 0, 75, 0
1, 84713, Note_on_c, 0, 74, 60
1, 84804, Note_on_c, 0, 74, 0
1, 84804, Note_on_c, 0, 75, 56
1, 84895, Note_on_c, 0, 75, 0
1, 84895, Note_on_c, 0, 77, 56
1, 84988, Note_on_c, 0, 77, 0
1, 84988, Note_on_c, 0, 79, 75
1, 84988, Note_on_c, 0, 67, 60
1, 85016, Control_c, 0, 64, 127
1, 85078, Note_on_c, 0, 67, 0
1, 85078, Note_on_c, 0, 69, 54
1, 85168, Note_on_c, 0, 69, 0
1, 85168, Note_on_c, 0, 71, 54
1, 85258, Note_on_c, 0, 79, 0
1, 85258, Note_on_c, 0, 72, 60
1, 85258, Note_on_c, 0, 71, 0
1, 85261, Note_on_c, 0, 69, 62
1, 85261, Control_c, 0, 64, 0
1, 85347, Note_on_c, 0, 72, 0
1, 85347, Note_on_c, 0, 74, 55
1, 85347, Note_on_c, 0, 69, 0
1, 85350, Note_on_c, 0, 71, 55
1, 85436, Note_on_c, 0, 74, 0
1, 85436, Note_on_c, 0, 75, 55
1, 85436, Note_on_c, 0, 71, 0
1, 85439, Note_on_c, 0, 72, 55
1, 85525, Note_on_c, 0, 75, 0
1, 85525, Note_on_c, 0, 74, 80
1, 85525, Note_on_c, 0, 72, 0
1, 85614, Note_on_c, 0, 75, 54
1, 85703, Note_on_c, 0, 75, 0
1, 85703, Note_on_c, 0, 77, 54
1, 85796, Note_on_c, 0, 77, 0
1, 85796, Note_on_c, 0, 74, 0
1, 85796, Note_on_c, 0, 79, 75
1, 85799, Note_on_c, 0, 67, 60
1, 85824, Control_c, 0, 64, 127
1, 85885, Note_on_c, 0, 67, 0
1, 85885, Note_on_c, 0, 69, 56
1, 85974, Note_on_c, 0, 69, 0
1, 85974, Note_on_c, 0, 71, 56
1, 86067, Note_on_c, 0, 79, 0
1, 86067, Note_on_c, 0, 72, 60
1, 86067, Note_on_c, 0, 71, 0
1, 86070, Note_on_c, 0, 69, 60
1, 86070, Control_c, 0, 64, 0
1, 86156, Note_on_c, 0, 72, 0
1, 86156, Note_on_c, 0, 74, 55
1, 86156, Note_on_c, 0, 69, 0
1, 86159, Note_on_c, 0, 71, 55
1, 86246, Note_on_c, 0, 74, 0
1, 86246, Note_on_c, 0, 75, 55
1, 86246, Note_on_c, 0, 71, 0
1, 86249, Note_on_c, 0, 72, 55
1, 86337, Note_on_c, 0, 75, 0
1, 86337, Note_on_c, 0, 74, 76
1, 86337, Note_on_c, 0, 72, 0
1, 86426, Note_on_c, 0, 75, 55
1, 86516, Note_on_c, 0, 75, 0
1, 86516, Note_on_c, 0, 77, 55
1, 86607, Note_on_c, 0, 77, 0
1, 86607, Note_on_c, 0, 74, 0
1, 86607, Note_on_c, 0, 75, 60
1, 86610, Note_on_c, 0, 72, 60
1, 86696, Note_on_c, 0, 75, 0
1, 86696, Note_on_c, 0, 77, 58
1, 86696, Note_on_c, 0, 72, 0
1, 86699, Note_on_c, 0, 74, 60
1, 86786, Note_on_c, 0, 77, 0
1, 86786, Note_on_c, 0, 79, 60
1, 86786, Note_on_c, 0, 74, 0
1, 86789, Note_on_c, 0, 75, 61
1, 86875, Note_on_c, 0, 79, 0
1, 86875, Note_on_c, 0, 80, 60
1, 86875, Note_on_c, 0, 75, 0
1, 86878, Note_on_c, 0, 77, 62
1, 86965, Note_on_c, 0, 80, 0
1, 86965, Note_on_c, 0, 82, 64
1, 86965, Note_on_c, 0, 77, 0
1, 86968, Note_on_c, 0, 79, 63
1, 87054, Note_on_c, 0, 82, 0
1, 87054, Note_on_c, 0, 84, 68
1, 87054, Note_on_c, 0, 79, 0
1, 87057, Note_on_c, 0, 80, 66
1, 87145, Note_on_c, 0, 84, 0
1, 87145, Note_on_c, 0, 82, 71
1, 87145, Note_on_c, 0, 80, 0
1, 87148, Note_on_c, 0, 79, 70
1, 87235, Note_on_c, 0, 82, 0
1, 87235, Note_on_c, 0, 80, 66
1, 87235, Note_on_c, 0, 79, 0
1, 87238, Note_on_c, 0, 77, 65
1, 87324, Note_on_c, 0, 80, 0
1, 87324, Note_on_c, 0, 79, 63
1, 87324, Note_on_c, 0, 77, 0
1, 87327, Note_on_c, 0, 75, 61
1, 87414, Note_on_c, 0, 79, 0
1, 87414, Note_on_c, 0, 77, 65
1, 87414, Note_on_c, 0, 75, 0
1, 87417, Note_on_c, 0, 74, 65
1, 87504, Note_on_c, 0, 77, 0
1, 87504, Note_on_c, 0, 75, 62
1, 87504, Note_on_c, 0, 74, 0
1, 87507, Note_on_c, 0, 72, 62
1, 87593, Note_on_c, 0, 75, 0
1, 87593, Note_on_c, 0, 74, 58
1, 87593, Note_on_c, 0, 72, 0
1, 87596, Note_on_c, 0, 70, 60
1, 87689, Note_on_c, 0, 74, 0
1, 87689, Note_on_c, 0, 72, 66
1, 87689, Note_on_c, 0, 70, 0
1, 87692, Note_on_c, 0, 68, 65
1, 87782, Note_on_c, 0, 72, 0
1, 87782, Note_on_c, 0, 74, 60
1, 87794, Note_on_c, 0, 68, 0
1, 87875, Note_on_c, 0, 74, 0
1, 87875, Note_on_c, 0, 75, 60
1, 87967, Note_on_c, 0, 75, 0
1, 87967, Note_on_c, 0, 74, 63
1, 87967, Note_on_c, 0, 63, 62
1, 88060, Note_on_c, 0, 74, 0
1, 88060, Note_on_c, 0, 72, 58
1, 88071, Note_on_c, 0, 63, 0
1, 88152, Note_on_c, 0, 72, 0
1, 88152, Note_on_c, 0, 70, 58
1, 88244, Note_on_c, 0, 70, 0
1, 88244, Note_on_c, 0, 68, 63
1, 88244, Note_on_c, 0, 60, 60
1, 88266, Control_c, 0, 64, 127
1, 88337, Note_on_c, 0, 68, 0
1, 88337, Note_on_c, 0, 67, 57
1, 88429, Note_on_c, 0, 67, 0
1, 88429, Note_on_c, 0, 66, 57
1, 88523, Note_on_c, 0, 66, 0
1, 88523, Note_on_c, 0, 67, 64
1, 88523, Note_on_c, 0, 60, 0
1, 88526, Note_on_c, 0, 59, 64
1, 88526, Control_c, 0, 64, 0
1, 88614, Note_on_c, 0, 59, 0
1, 88614, Note_on_c, 0, 57, 59
1, 88659, Note_on_c, 0, 67, 0
1, 88705, Note_on_c, 0, 57, 0
1, 88705, Note_on_c, 0, 55, 59
1, 88797, Note_on_c, 0, 55, 0
1, 88797, Note_on_c, 0, 54, 63
1, 88813, Control_c, 0, 64, 127
1, 88886, Note_on_c, 0, 54, 0
1, 88886, Note_on_c, 0, 52, 57
1, 88976, Note_on_c, 0, 52, 0
1, 88976, Note_on_c, 0, 50, 57
1, 89068, Note_on_c, 0, 62, 60
1, 89068, Note_on_c, 0, 50, 0
1, 89068, Note_on_c, 0, 60, 74
1, 89077, Control_c, 0, 64, 0
1, 89157, Note_on_c, 0, 62, 0
1, 89157, Note_on_c, 0, 64, 55
1, 89246, Note_on_c, 0, 64, 0
1, 89246, Note_on_c, 0, 66, 55
1, 89336, Note_on_c, 0, 66, 0
1, 89336, Note_on_c, 0, 67, 64
1, 89336, Note_on_c, 0, 60, 0
1, 89339, Note_on_c, 0, 59, 64
1, 89426, Note_on_c, 0, 67, 0
1, 89426, Note_on_c, 0, 69, 58
1, 89426, Note_on_c, 0, 59, 0
1, 89429, Note_on_c, 0, 57, 57
1, 89516, Note_on_c, 0, 69, 0
1, 89516, Note_on_c, 0, 71, 58
1, 89516, Note_on_c, 0, 57, 0
1, 89519, Note_on_c, 0, 55, 57
1, 89609, Note_on_c, 0, 71, 0
1, 89609, Note_on_c, 0, 72, 68
1, 89609, Note_on_c, 0, 55, 0
1, 89612, Note_on_c, 0, 54, 62
1, 89631, Control_c, 0, 64, 127
1, 89698, Note_on_c, 0, 54, 0
1, 89698, Note_on_c, 0, 52, 54
1, 89787, Note_on_c, 0, 52, 0
1, 89787, Note_on_c, 0, 50, 54
1, 89879, Note_on_c, 0, 72, 0
1, 89879, Note_on_c, 0, 62, 60
1, 89879, Note_on_c, 0, 50, 0
1, 89882, Note_on_c, 0, 60, 74
1, 89886, Control_c, 0, 64, 0
1, 89969, Note_on_c, 0, 62, 0
1, 89969, Note_on_c, 0, 64, 56
1, 90058, Note_on_c, 0, 64, 0
1, 90058, Note_on_c, 0, 66, 56
1, 90148, Note_on_c, 0, 66, 0
1, 90148, Note_on_c, 0, 67, 64
1, 90148, Note_on_c, 0, 60, 0
1, 90151, Note_on_c, 0, 59, 64
1, 90237, Note_on_c, 0, 67, 0
1, 90237, Note_on_c, 0, 69, 58
1, 90237, Note_on_c, 0, 59, 0
1, 90240, Note_on_c, 0, 57, 57
1, 90326, Note_on_c, 0, 69, 0
1, 90326, Note_on_c, 0, 71, 58
1, 90326, Note_on_c, 0, 57, 0
1, 90329, Note_on_c, 0, 55, 57
1, 90419, Note_on_c, 0, 71, 0
1, 90419, Note_on_c, 0, 72, 68
1, 90419, Note_on_c, 0, 55, 0
1, 90422, Note_on_c, 0, 54, 62
1, 90441, Control_c, 0, 64, 127
1, 90508, Note_on_c, 0, 54, 0
1, 90508, Note_on_c, 0, 52, 54
1, 90598, Note_on_c, 0, 52, 0
1, 90598, Note_on_c, 0, 50, 54
1, 90690, Note_on_c, 0, 72, 0
1, 90690, Note_on_c, 0, 62, 60
1, 90690, Note_on_c, 0, 50, 0
1, 90693, Note_on_c, 0, 60, 74
1, 90696, Control_c, 0, 64, 0
1, 90779, Note_on_c, 0, 62, 0
1, 90779, Note_on_c, 0, 64, 56
1, 90869, Note_on_c, 0, 64, 0
1, 90869, Note_on_c, 0, 66, 56
1, 90958, Note_on_c, 0, 66, 0
1, 90958, Note_on_c, 0, 67, 64
1, 90958, Note_on_c, 0, 60, 0
1, 90961, Note_on_c, 0, 59, 60
1, 90981, Control_c, 0, 64, 127
1, 91048, Note_on_c, 0, 67, 0
1, 91048, Note_on_c, 0, 69, 57
1, 91048, Note_on_c, 0, 59, 0
1, 91051, Note_on_c, 0, 57, 53
1, 91138, Note_on_c, 0, 69, 0
1, 91138, Note_on_c, 0, 71, 57
1, 91138, Note_on_c, 0, 57, 0
1, 91141, Note_on_c, 0, 55, 53
1, 91231, Note_on_c, 0, 71, 0
1, 91231, Note_on_c, 0, 69, 70
1, 91231, Note_on_c, 0, 55, 0
1, 91234, Note_on_c, 0, 57, 62
1, 91237, Control_c, 0, 64, 0
1, 91279, Control_c, 0, 64, 127
1, 91320, Note_on_c, 0, 69, 0
1, 91320, Note_on_c, 0, 71, 63
1, 91320, Note_on_c, 0, 57, 0
1, 91323, Note_on_c, 0, 55, 54
1, 91410, Note_on_c, 0, 71, 0
1, 91410, Note_on_c, 0, 72, 63
1, 91410, Note_on_c, 0, 55, 0
1, 91413, Note_on_c, 0, 54, 54
1, 91501, Note_on_c, 0, 72, 0
1, 91501, Note_on_c, 0, 71, 74
1, 91501, Note_on_c, 0, 54, 0
1, 91504, Note_on_c, 0, 55, 62
1, 91507, Control_c, 0, 64, 0
1, 91540, Control_c, 0, 64, 127
1, 91591, Note_on_c, 0, 71, 0
1, 91591, Note_on_c, 0, 72, 68
1, 91591, Note_on_c, 0, 55, 0
1, 91594, Note_on_c, 0, 54, 57
1, 91680, Note_on_c, 0, 72, 0
1, 91680, Note_on_c, 0, 74, 70
1, 91680, Note_on_c, 0, 54, 0
1, 91683, Note_on_c, 0, 53, 57
1, 91772, Note_on_c, 0, 74, 0
1, 91772, Note_on_c, 0, 72, 78
1, 91772, Note_on_c, 0, 53, 0
1, 91775, Note_on_c, 0, 52, 66
1, 91779, Control_c, 0, 64, 0
1, 91807, Control_c, 0, 64, 127
1, 91861, Note_on_c, 0, 72, 0
1, 91861, Note_on_c, 0, 74, 70
1, 91861, Note_on_c, 0, 52, 0
1, 91864, Note_on_c, 0, 50, 62
1, 91950, Note_on_c, 0, 74, 0
1, 91950, Note_on_c, 0, 76, 73
1, 91950, Note_on_c, 0, 50, 0
1, 91953, Note_on_c, 0, 48, 63
1, 92039, Note_on_c, 0, 76, 0
1, 92039, Note_on_c, 0, 74, 83
1, 92039, Note_on_c, 0, 48, 0
1, 92042, Note_on_c, 0, 50, 68
1, 92046, Control_c, 0, 64, 0
1, 92075, Control_c, 0, 64, 127
1, 92129, Note_on_c, 0, 74, 0
1, 92129, Note_on_c, 0, 76, 73
1, 92129, Note_on_c, 0, 50, 0
1, 92132, Note_on_c, 0, 48, 65
1, 92219, Note_on_c, 0, 76, 0
1, 92219, Note_on_c, 0, 77, 78
1, 92219, Note_on_c, 0, 48, 0
1, 92222, Note_on_c, 0, 47, 65
1, 92309, Note_on_c, 0, 77, 0
1, 92309, Note_on_c, 0, 76, 89
1, 92309, Note_on_c, 0, 47, 0
1, 92312, Note_on_c, 0, 48, 75
1, 92318, Control_c, 0, 64, 0
1, 92349, Control_c, 0, 64, 127
1, 92400, Note_on_c, 0, 76, 0
1, 92400, Note_on_c, 0, 77, 78
1, 92400, Note_on_c, 0, 48, 0
1, 92403, Note_on_c, 0, 47, 69
1, 92493, Note_on_c, 0, 77, 0
1, 92493, Note_on_c, 0, 79, 84
1, 92493, Note_on_c, 0, 47, 0
1, 92496, Note_on_c, 0, 46, 69
1, 92590, Note_on_c, 0, 79, 0
1, 92590, Note_on_c, 0, 60, 107
1, 92590, Note_on_c, 0, 46, 0
1, 92593, Note_on_c, 0, 45, 93
1, 92596, Control_c, 0, 64, 0
1, 92625, Control_c, 0, 64, 127
1, 92657, Note_on_c, 0, 45, 0
1, 92679, Note_on_c, 0, 60, 0
1, 92679, Note_on_c, 0, 65, 87
1, 92768, Note_on_c, 0, 65, 0
1, 92768, Note_on_c, 0, 69, 88
1, 92858, Note_on_c, 0, 69, 0
1, 92858, Note_on_c, 0, 72, 95
1, 92858, Note_on_c, 0, 57, 88
1, 92948, Note_on_c, 0, 72, 0
1, 92948, Note_on_c, 0, 77, 84
1, 92948, Note_on_c, 0, 57, 0
1, 92951, Note_on_c, 0, 53, 78
1, 93038, Note_on_c, 0, 77, 0
1, 93038, Note_on_c, 0, 81, 87
1, 93038, Note_on_c, 0, 53, 0
1, 93041, Note_on_c, 0, 48, 78
1, 93129, Note_on_c, 0, 81, 0
1, 93129, Note_on_c, 0, 84, 101
1, 93129, Note_on_c, 0, 48, 0
1, 93132, Note_on_c, 0, 45, 92
1, 93220, Note_on_c, 0, 84, 0
1, 93220, Note_on_c, 0, 89, 89
1, 93220, Note_on_c, 0, 45, 0
1, 93223, Note_on_c, 0, 41, 82
1, 93315, Note_on_c, 0, 89, 0
1, 93315, Note_on_c, 0, 93, 89
1, 93315, Note_on_c, 0, 41, 0
1, 93318, Note_on_c, 0, 36, 89
1, 93411, Note_on_c, 0, 93, 0
1, 93411, Note_on_c, 0, 96, 118
1, 93411, Note_on_c, 0, 36, 0
1, 93414, Note_on_c, 0, 33, 103
1, 93487, Note_on_c, 0, 96, 0
1, 93487, Note_on_c, 0, 33, 0
1, 93558, Control_c, 0, 64, 0
1, 93714, Note_on_c, 0, 71, 89
1, 93714, Note_on_c, 0, 79, 89
1, 93714, Note_on_c, 0, 83, 103
1, 93717, Note_on_c, 0, 76, 89
1, 93717, Note_on_c, 0, 52, 80
1, 93717, Note_on_c, 0, 47, 80
1, 93720, Note_on_c, 0, 55, 80
1, 93720, Note_on_c, 0, 59, 93
1, 93737, Control_c, 0, 64, 127
1, 93869, Note_on_c, 0, 76, 0
1, 93869, Note_on_c, 0, 71, 0
1, 93869, Note_on_c, 0, 79, 0
1, 93872, Note_on_c, 0, 83, 0
1, 93872, Note_on_c, 0, 59, 0
1, 93872, Note_on_c, 0, 52, 0
1, 93875, Note_on_c, 0, 47, 0
1, 93875, Note_on_c, 0, 55, 0
1, 93875, Control_c, 0, 64, 0
1, 94024, Note_on_c, 0, 75, 84
1, 94024, Note_on_c, 0, 83, 98
1, 94024, Note_on_c, 0, 71, 84
1, 94027, Note_on_c, 0, 78, 84
1, 94027, Note_on_c, 0, 59, 85
1, 94027, Note_on_c, 0, 54, 73
1, 94030, Note_on_c, 0, 51, 73
1, 94030, Note_on_c, 0, 47, 73
1, 94066, Control_c, 0, 64, 127
1, 94182, Note_on_c, 0, 78, 0
1, 94182, Note_on_c, 0, 75, 0
1, 94182, Note_on_c, 0, 83, 0
1, 94185, Note_on_c, 0, 71, 0
1, 94185, Note_on_c, 0, 47, 0
1, 94185, Note_on_c, 0, 59, 0
1, 94188, Note_on_c, 0, 54, 0
1, 94188, Note_on_c, 0, 51, 0
1, 94215, Control_c, 0, 64, 0
1, 94341, Note_on_c, 0, 76, 77
1, 94341, Note_on_c, 0, 67, 69
1, 94432, Note_on_c, 0, 76, 0
1, 94432, Note_on_c, 0, 78, 66
1, 94432, Note_on_c, 0, 67, 0
1, 94435, Note_on_c, 0, 66, 63
1, 94523, Note_on_c, 0, 78, 0
1, 94523, Note_on_c, 0, 79, 66
1, 94523, Note_on_c, 0, 66, 0
1, 94526, Note_on_c, 0, 64, 63
1, 94615, Note_on_c, 0, 79, 0
1, 94615, Note_on_c, 0, 81, 75
1, 94615, Note_on_c, 0, 64, 0
1, 94618, Note_on_c, 0, 63, 68
1, 94631, Control_c, 0, 64, 127
1, 94704, Note_on_c, 0, 63, 0
1, 94704, Note_on_c, 0, 61, 62
1, 94794, Note_on_c, 0, 61, 0
1, 94794, Note_on_c, 0, 59, 62
1, 94886, Note_on_c, 0, 81, 0
1, 94886, Note_on_c, 0, 71, 76
1, 94886, Note_on_c, 0, 59, 0
1, 94889, Note_on_c, 0, 69, 77
1, 94895, Control_c, 0, 64, 0
1, 94975, Note_on_c, 0, 71, 0
1, 94975, Note_on_c, 0, 73, 64
1, 95064, Note_on_c, 0, 73, 0
1, 95064, Note_on_c, 0, 75, 63
1, 95153, Note_on_c, 0, 75, 0
1, 95153, Note_on_c, 0, 76, 74
1, 95153, Note_on_c, 0, 69, 0
1, 95156, Note_on_c, 0, 67, 71
1, 95244, Note_on_c, 0, 76, 0
1, 95244, Note_on_c, 0, 78, 65
1, 95244, Note_on_c, 0, 67, 0
1, 95247, Note_on_c, 0, 66, 61
1, 95334, Note_on_c, 0, 78, 0
1, 95334, Note_on_c, 0, 79, 65
1, 95334, Note_on_c, 0, 66, 0
1, 95337, Note_on_c, 0, 64, 61
1, 95427, Note_on_c, 0, 79, 0
1, 95427, Note_on_c, 0, 81, 75
1, 95427, Note_on_c, 0, 64, 0
1, 95430, Note_on_c, 0, 63, 61
1, 95449, Control_c, 0, 64, 127
1, 95516, Note_on_c, 0, 63, 0
1, 95516, Note_on_c, 0, 61, 64
1, 95605, Note_on_c, 0, 61, 0
1, 95605, Note_on_c, 0, 59, 64
1, 95697, Note_on_c, 0, 81, 0
1, 95697, Note_on_c, 0, 71, 74
1, 95697, Note_on_c, 0, 59, 0
1, 95700, Note_on_c, 0, 69, 78
1, 95703, Control_c, 0, 64, 0
1, 95787, Note_on_c, 0, 71, 0
1, 95787, Note_on_c, 0, 73, 68
1, 95876, Note_on_c, 0, 73, 0
1, 95876, Note_on_c, 0, 75, 68
1, 95965, Note_on_c, 0, 75, 0
1, 95965, Note_on_c, 0, 76, 78
1, 95965, Note_on_c, 0, 69, 0
1, 95968, Note_on_c, 0, 67, 70
1, 95993, Control_c, 0, 64, 127
1, 96054, Note_on_c, 0, 76, 0
1, 96054, Note_on_c, 0, 78, 70
1, 96054, Note_on_c, 0, 67, 0
1, 96057, Note_on_c, 0, 66, 64
1, 96144, Note_on_c, 0, 78, 0
1, 96144, Note_on_c, 0, 79, 73
1, 96144, Note_on_c, 0, 66, 0
1, 96147, Note_on_c, 0, 64, 67
1, 96233, Note_on_c, 0, 79, 0
1, 96233, Note_on_c, 0, 78, 83
1, 96233, Note_on_c, 0, 64, 0
1, 96236, Note_on_c, 0, 63, 74
1, 96240, Control_c, 0, 64, 0
1, 96257, Control_c, 0, 64, 127
1, 96323, Note_on_c, 0, 78, 0
1, 96323, Note_on_c, 0, 79, 73
1, 96323, Note_on_c, 0, 63, 0
1, 96326, Note_on_c, 0, 64, 66
1, 96413, Note_on_c, 0, 79, 0
1, 96413, Note_on_c, 0, 81, 78
1, 96413, Note_on_c, 0, 64, 0
1, 96416, Note_on_c, 0, 66, 66
1, 96503, Note_on_c, 0, 81, 0
1, 96503, Note_on_c, 0, 79, 89
1, 96503, Note_on_c, 0, 66, 0
1, 96506, Note_on_c, 0, 64, 82
1, 96510, Control_c, 0, 64, 0
1, 96543, Control_c, 0, 64, 127
1, 96594, Note_on_c, 0, 79, 0
1, 96594, Note_on_c, 0, 81, 78
1, 96594, Note_on_c, 0, 64, 0
1, 96597, Note_on_c, 0, 66, 74
1, 96686, Note_on_c, 0, 81, 0
1, 96686, Note_on_c, 0, 83, 84
1, 96686, Note_on_c, 0, 66, 0
1, 96689, Note_on_c, 0, 67, 74
1, 96784, Note_on_c, 0, 83, 0
1, 96784, Note_on_c, 0, 60, 107
1, 96784, Note_on_c, 0, 67, 0
1, 96790, Control_c, 0, 64, 0
1, 96854, Control_c, 0, 64, 127
1, 96873, Note_on_c, 0, 60, 0
1, 96873, Note_on_c, 0, 65, 87
1, 96962, Note_on_c, 0, 65, 0
1, 96962, Note_on_c, 0, 69, 87
1, 97052, Note_on_c, 0, 69, 0
1, 97052, Note_on_c, 0, 72, 101
1, 97052, Note_on_c, 0, 57, 92
1, 97142, Note_on_c, 0, 72, 0
1, 97142, Note_on_c, 0, 77, 88
1, 97142, Note_on_c, 0, 57, 0
1, 97145, Note_on_c, 0, 53, 83
1, 97232, Note_on_c, 0, 77, 0
1, 97232, Note_on_c, 0, 81, 88
1, 97232, Note_on_c, 0, 53, 0
1, 97235, Note_on_c, 0, 48, 83
1, 97323, Note_on_c, 0, 81, 0
1, 97323, Note_on_c, 0, 84, 106
1, 97323, Note_on_c, 0, 48, 0
1, 97326, Note_on_c, 0, 45, 99
1, 97414, Note_on_c, 0, 84, 0
1, 97414, Note_on_c, 0, 89, 89
1, 97414, Note_on_c, 0, 45, 0
1, 97417, Note_on_c, 0, 41, 89
1, 97508, Note_on_c, 0, 89, 0
1, 97508, Note_on_c, 0, 93, 89
1, 97508, Note_on_c, 0, 41, 0
1, 97511, Note_on_c, 0, 36, 89
1, 97605, Note_on_c, 0, 93, 0
1, 97605, Note_on_c, 0, 96, 110
1, 97605, Note_on_c, 0, 36, 0
1, 97608, Note_on_c, 0, 33, 103
1, 97681, Note_on_c, 0, 96, 0
1, 97681, Note_on_c, 0, 33, 0
1, 97752, Control_c, 0, 64, 0
1, 97908, Note_on_c, 0, 79, 89
1, 97908, Note_on_c, 0, 83, 103
1, 97908, Note_on_c, 0, 76, 89
1, 97911, Note_on_c, 0, 71, 89
1, 97911, Note_on_c, 0, 52, 80
1, 97911, Note_on_c, 0, 47, 80
1, 97914, Note_on_c, 0, 59, 93
1, 97914, Note_on_c, 0, 55, 80
1, 97930, Control_c, 0, 64, 127
1, 98063, Note_on_c, 0, 71, 0
1, 98063, Note_on_c, 0, 79, 0
1, 98063, Note_on_c, 0, 83, 0
1, 98066, Note_on_c, 0, 76, 0
1, 98066, Note_on_c, 0, 55, 0
1, 98066, Note_on_c, 0, 52, 0
1, 98069, Note_on_c, 0, 47, 0
1, 98069, Note_on_c, 0, 59, 0
1, 98069, Control_c, 0, 64, 0
1, 98218, Note_on_c, 0, 71, 84
1, 98218, Note_on_c, 0, 78, 84
1, 98218, Note_on_c, 0, 75, 84
1, 98221, Note_on_c, 0, 83, 98
1, 98221, Note_on_c, 0, 59, 85
1, 98221, Note_on_c, 0, 54, 73
1, 98224, Note_on_c, 0, 51, 73
1, 98224, Note_on_c, 0, 47, 73
1, 98262, Control_c, 0, 64, 127
1, 98385, Note_on_c, 0, 83, 0
1, 98385, Note_on_c, 0, 71, 0
1, 98385, Note_on_c, 0, 78, 0
1, 98388, Note_on_c, 0, 75, 0
1, 98388, Note_on_c, 0, 47, 0
1, 98388, Note_on_c, 0, 59, 0
1, 98391, Note_on_c, 0, 54, 0
1, 98391, Note_on_c, 0, 51, 0
1, 98419, Control_c, 0, 64, 0
1, 98553, Note_on_c, 0, 83, 98
1, 98553, Note_on_c, 0, 88, 114
1, 98553, Note_on_c, 0, 79, 98
1, 98556, Note_on_c, 0, 76, 98
1, 98556, Control_c, 0, 64, 127
1, 98556, Note_on_c, 0, 43, 85
1, 98559, Note_on_c, 0, 40, 85
1, 98559, Note_on_c, 0, 52, 99
1, 98559, Note_on_c, 0, 47, 85
1, 99206, Control_c, 0, 64, 0
1, 99370, Note_on_c, 0, 76, 0
1, 99370, Note_on_c, 0, 83, 0
1, 99370, Note_on_c, 0, 88, 0
1, 99373, Note_on_c, 0, 79, 0
1, 99373, Note_on_c, 0, 47, 0
1, 99373, Note_on_c, 0, 43, 0
1, 99376, Note_on_c, 0, 40, 0
1, 99376, Note_on_c, 0, 52, 0
1, 99533, Note_on_c, 0, 75, 84
1, 99533, Note_on_c, 0, 83, 98
1, 99533, Note_on_c, 0, 47, 75
1, 99536, Note_on_c, 0, 59, 87
1, 99606, Note_on_c, 0, 83, 0
1, 99606, Note_on_c, 0, 75, 0
1, 99606, Note_on_c, 0, 59, 0
1, 99609, Note_on_c, 0, 47, 0
1, 99678, Note_on_c, 0, 82, 85
1, 99678, Note_on_c, 0, 76, 73
1, 99678, Note_on_c, 0, 48, 66
1, 99681, Note_on_c, 0, 60, 77
1, 99753, Note_on_c, 0, 76, 0
1, 99753, Note_on_c, 0, 82, 0
1, 99753, Note_on_c, 0, 60, 0
1, 99756, Note_on_c, 0, 48, 0
1, 99828, Note_on_c, 0, 83, 94
1, 99828, Note_on_c, 0, 75, 81
1, 99828, Note_on_c, 0, 47, 73
1, 99831, Note_on_c, 0, 59, 85
1, 99900, Note_on_c, 0, 75, 0
1, 99900, Note_on_c, 0, 83, 0
1, 99900, Note_on_c, 0, 59, 0
1, 99903, Note_on_c, 0, 47, 0
1, 99973, Note_on_c, 0, 82, 85
1, 99973, Note_on_c, 0, 76, 73
1, 99973, Note_on_c, 0, 48, 67
1, 99976, Note_on_c, 0, 60, 78
1, 100048, Note_on_c, 0, 76, 0
1, 100048, Note_on_c, 0, 82, 0
1, 100048, Note_on_c, 0, 60, 0
1, 100051, Note_on_c, 0, 48, 0
1, 100123, Note_on_c, 0, 75, 82
1, 100123, Note_on_c, 0, 83, 95
1, 100123, Note_on_c, 0, 47, 73
1, 100126, Note_on_c, 0, 59, 85
1, 100209, Note_on_c, 0, 83, 0
1, 100209, Note_on_c, 0, 75, 0
1, 100209, Note_on_c, 0, 59, 0
1, 100212, Note_on_c, 0, 47, 0
1, 100469, Note_on_c, 0, 74, 98
1, 100469, Note_on_c, 0, 86, 114
1, 100469, Note_on_c, 0, 78, 98
1, 100472, Note_on_c, 0, 81, 98
1, 100472, Note_on_c, 0, 38, 84
1, 100472, Note_on_c, 0, 45, 84
1, 100475, Note_on_c, 0, 50, 98
1, 100475, Note_on_c, 0, 42, 84
1, 100482, Control_c, 0, 64, 127
1, 101281, Control_c, 0, 64, 0
1, 101298, Note_on_c, 0, 81, 0
1, 101298, Note_on_c, 0, 74, 0
1, 101298, Note_on_c, 0, 86, 0
1, 101301, Note_on_c, 0, 78, 0
1, 101301, Note_on_c, 0, 42, 0
1, 101301, Note_on_c, 0, 38, 0
1, 101304, Note_on_c, 0, 45, 0
1, 101304, Note_on_c, 0, 50, 0
1, 101459, Note_on_c, 0, 73, 84
1, 101459, Note_on_c, 0, 81, 98
1, 101459, Note_on_c, 0, 57, 87
1, 101462, Note_on_c, 0, 45, 75
1, 101532, Note_on_c, 0, 81, 0
1, 101532, Note_on_c, 0, 73, 0
1, 101532, Note_on_c, 0, 45, 0
1, 101535, Note_on_c, 0, 57, 0
1, 101604, Note_on_c, 0, 74, 74
1, 101604, Note_on_c, 0, 80, 86
1, 101604, Note_on_c, 0, 58, 76
1, 101607, Note_on_c, 0, 46, 66
1, 101679, Note_on_c, 0, 80, 0
1, 101679, Note_on_c, 0, 74, 0
1, 101679, Note_on_c, 0, 46, 0
1, 101682, Note_on_c, 0, 58, 0
1, 101753, Note_on_c, 0, 81, 93
1, 101753, Note_on_c, 0, 73, 80
1, 101753, Note_on_c, 0, 57, 83
1, 101756, Note_on_c, 0, 45, 72
1, 101826, Note_on_c, 0, 73, 0
1, 101826, Note_on_c, 0, 81, 0
1, 101826, Note_on_c, 0, 45, 0
1, 101829, Note_on_c, 0, 57, 0
1, 101899, Note_on_c, 0, 74, 73
1, 101899, Note_on_c, 0, 80, 85
1, 101899, Note_on_c, 0, 58, 76
1, 101902, Note_on_c, 0, 46, 66
1, 101974, Note_on_c, 0, 80, 0
1, 101974, Note_on_c, 0, 74, 0
1, 101974, Note_on_c, 0, 46, 0
1, 101977, Note_on_c, 0, 58, 0
1, 102048, Note_on_c, 0, 81, 97
1, 102048, Note_on_c, 0, 73, 83
1, 102048, Note_on_c, 0, 57, 83
1, 102051, Note_on_c, 0, 45, 72
1, 102135, Note_on_c, 0, 73, 0
1, 102135, Note_on_c, 0, 81, 0
1, 102135, Note_on_c, 0, 45, 0
1, 102138, Note_on_c, 0, 57, 0
1, 102395, Note_on_c, 0, 78, 93
1, 102395, Note_on_c, 0, 81, 93
1, 102395, Note_on_c, 0, 72, 93
1, 102398, Note_on_c, 0, 84, 108
1, 102398, Note_on_c, 0, 51, 99
1, 102398, Note_on_c, 0, 39, 85
1, 103058, Note_on_c, 0, 84, 0
1, 103058, Note_on_c, 0, 78, 0
1, 103058, Note_on_c, 0, 81, 0
1, 103061, Note_on_c, 0, 72, 0
1, 103061, Note_on_c, 0, 71, 86
1, 103061, Note_on_c, 0, 83, 100
1, 103064, Note_on_c, 0, 79, 86
1, 103064, Note_on_c, 0, 76, 86
1, 103064, Note_on_c, 0, 39, 0
1, 103067, Note_on_c, 0, 51, 0
1, 103067, Note_on_c, 0, 52, 90
1, 103067, Note_on_c, 0, 40, 78
1, 103107, Control_c, 0, 64, 127
1, 103224, Note_on_c, 0, 76, 0
1, 103224, Note_on_c, 0, 71, 0
1, 103224, Note_on_c, 0, 83, 0
1, 103227, Note_on_c, 0, 79, 0
1, 103227, Note_on_c, 0, 40, 0
1, 103227, Note_on_c, 0, 52, 0
1, 103283, Control_c, 0, 64, 0
1, 103390, Note_on_c, 0, 69, 86
1, 103390, Note_on_c, 0, 77, 86
1, 103390, Note_on_c, 0, 72, 86
1, 103393, Note_on_c, 0, 81, 100
1, 103393, Note_on_c, 0, 53, 87
1, 103393, Note_on_c, 0, 41, 75
1, 103424, Control_c, 0, 64, 127
1, 103536, Control_c, 0, 64, 0
1, 103553, Note_on_c, 0, 81, 0
1, 103553, Note_on_c, 0, 69, 0
1, 103553, Note_on_c, 0, 77, 0
1, 103556, Note_on_c, 0, 72, 0
1, 103556, Note_on_c, 0, 41, 0
1, 103556, Note_on_c, 0, 53, 0
1, 103715, Note_on_c, 0, 72, 90
1, 103715, Note_on_c, 0, 84, 105
1, 103715, Note_on_c, 0, 75, 90
1, 103718, Note_on_c, 0, 81, 90
1, 103718, Note_on_c, 0, 54, 93
1, 103718, Note_on_c, 0, 42, 80
1, 103733, Control_c, 0, 64, 127
1, 103876, Control_c, 0, 64, 0
1, 103881, Note_on_c, 0, 81, 0
1, 103881, Note_on_c, 0, 72, 0
1, 103881, Note_on_c, 0, 84, 0
1, 103884, Note_on_c, 0, 75, 0
1, 103884, Note_on_c, 0, 42, 0
1, 103884, Note_on_c, 0, 54, 0
1, 104047, Note_on_c, 0, 79, 87
1, 104047, Note_on_c, 0, 71, 87
1, 104047, Note_on_c, 0, 76, 87
1, 104050, Note_on_c, 0, 83, 101
1, 104050, Note_on_c, 0, 55, 89
1, 104050, Note_on_c, 0, 43, 77
1, 104087, Control_c, 0, 64, 127
1, 104201, Control_c, 0, 64, 0
1, 104213, Note_on_c, 0, 83, 0
1, 104213, Note_on_c, 0, 79, 0
1, 104213, Note_on_c, 0, 71, 0
1, 104216, Note_on_c, 0, 76, 0
1, 104216, Note_on_c, 0, 43, 0
1, 104216, Note_on_c, 0, 55, 0
1, 104379, Note_on_c, 0, 81, 104
1, 104379, Note_on_c, 0, 78, 89
1, 104379, Note_on_c, 0, 72, 89
1, 104382, Note_on_c, 0, 57, 94
1, 104382, Note_on_c, 0, 45, 81
1, 104418, Control_c, 0, 64, 127
1, 104546, Note_on_c, 0, 72, 0
1, 104546, Note_on_c, 0, 78, 0
1, 104546, Note_on_c, 0, 81, 0
1, 104549, Note_on_c, 0, 45, 0
1, 104549, Note_on_c, 0, 57, 0
1, 104554, Control_c, 0, 64, 0
1, 104714, Note_on_c, 0, 71, 86
1, 104714, Note_on_c, 0, 76, 86
1, 104714, Note_on_c, 0, 79, 100
1, 104717, Note_on_c, 0, 59, 88
1, 104717, Note_on_c, 0, 47, 76
1, 104763, Control_c, 0, 64, 127
1, 104884, Note_on_c, 0, 79, 0
1, 104884, Note_on_c, 0, 76, 0
1, 104884, Note_on_c, 0, 71, 0
1, 104887, Note_on_c, 0, 47, 0
1, 104887, Note_on_c, 0, 59, 0
1, 104908, Control_c, 0, 64, 0
1, 105054, Note_on_c, 0, 71, 86
1, 105054, Note_on_c, 0, 75, 100
1, 105054, Note_on_c, 0, 78, 100
1, 105057, Note_on_c, 0, 59, 85
1, 105057, Note_on_c, 0, 47, 73
1, 105096, Control_c, 0, 64, 127
1, 105230, Note_on_c, 0, 78, 0
1, 105230, Note_on_c, 0, 75, 0
1, 105230, Note_on_c, 0, 71, 0
1, 105233, Note_on_c, 0, 47, 0
1, 105233, Note_on_c, 0, 59, 0
1, 105238, Control_c, 0, 64, 0
1, 105405, Note_on_c, 0, 64, 99
1, 105405, Control_c, 0, 64, 127
1, 105405, Note_on_c, 0, 55, 76
1, 105408, Note_on_c, 0, 59, 76
1, 105408, Note_on_c, 0, 64, 88
1, 105408, Note_on_c, 0, 52, 76
1, 105551, Note_on_c, 0, 64, 0
1, 105551, Note_on_c, 0, 66, 93
1, 105623, Note_on_c, 0, 66, 0
1, 105623, Note_on_c, 0, 67, 85
1, 105696, Note_on_c, 0, 67, 0
1, 105696, Note_on_c, 0, 69, 86
1, 105768, Note_on_c, 0, 69, 0
1, 105768, Note_on_c, 0, 71, 88
1, 105841, Note_on_c, 0, 71, 0
1, 105841, Note_on_c, 0, 73, 90
1, 105914, Note_on_c, 0, 73, 0
1, 105914, Note_on_c, 0, 75, 92
1, 105987, Note_on_c, 0, 75, 0
1, 105987, Note_on_c, 0, 76, 93
1, 106061, Note_on_c, 0, 76, 0
1, 106061, Note_on_c, 0, 78, 95
1, 106135, Note_on_c, 0, 78, 0
1, 106135, Note_on_c, 0, 79, 97
1, 106209, Note_on_c, 0, 79, 0
1, 106209, Note_on_c, 0, 81, 98
1, 106284, Note_on_c, 0, 81, 0
1, 106284, Note_on_c, 0, 71, 89
1, 106284, Note_on_c, 0, 83, 103
1, 106287, Note_on_c, 0, 52, 0
1, 106287, Note_on_c, 0, 55, 0
1, 106287, Note_on_c, 0, 59, 0
1, 106290, Note_on_c, 0, 64, 0
1, 106290, Control_c, 0, 64, 0
1, 106290, Note_on_c, 0, 51, 87
1, 106293, Note_on_c, 0, 47, 75
1, 106357, Note_on_c, 0, 83, 0
1, 106357, Note_on_c, 0, 71, 0
1, 106357, Note_on_c, 0, 47, 0
1, 106360, Note_on_c, 0, 51, 0
1, 106429, Note_on_c, 0, 82, 86
1, 106429, Note_on_c, 0, 70, 74
1, 106429, Note_on_c, 0, 52, 76
1, 106432, Note_on_c, 0, 48, 66
1, 106503, Note_on_c, 0, 70, 0
1, 106503, Note_on_c, 0, 82, 0
1, 106503, Note_on_c, 0, 48, 0
1, 106506, Note_on_c, 0, 52, 0
1, 106578, Note_on_c, 0, 71, 83
1, 106578, Note_on_c, 0, 83, 96
1, 106578, Note_on_c, 0, 51, 81
1, 106581, Note_on_c, 0, 47, 70
1, 106651, Note_on_c, 0, 83, 0
1, 106651, Note_on_c, 0, 71, 0
1, 106651, Note_on_c, 0, 47, 0
1, 106654, Note_on_c, 0, 51, 0
1, 106723, Note_on_c, 0, 70, 77
1, 106723, Note_on_c, 0, 82, 89
1, 106723, Note_on_c, 0, 52, 75
1, 106726, Note_on_c, 0, 48, 65
1, 106798, Note_on_c, 0, 82, 0
1, 106798, Note_on_c, 0, 70, 0
1, 106798, Note_on_c, 0, 48, 0
1, 106801, Note_on_c, 0, 52, 0
1, 106872, Note_on_c, 0, 71, 88
1, 106872, Note_on_c, 0, 83, 102
1, 106872, Note_on_c, 0, 47, 75
1, 106875, Note_on_c, 0, 51, 87
1, 106959, Note_on_c, 0, 83, 0
1, 106959, Note_on_c, 0, 71, 0
1, 106959, Note_on_c, 0, 51, 0
1, 106962, Note_on_c, 0, 47, 0
1, 107219, Note_on_c, 0, 62, 99
1, 107219, Control_c, 0, 64, 127
1, 107219, Note_on_c, 0, 57, 82
1, 107222, Note_on_c, 0, 54, 82
1, 107222, Note_on_c, 0, 50, 82
1, 107222, Note_on_c, 0, 62, 95
1, 107364, Note_on_c, 0, 62, 0
1, 107364, Note_on_c, 0, 64, 93
1, 107437, Note_on_c, 0, 64, 0
1, 107437, Note_on_c, 0, 66, 85
1, 107510, Note_on_c, 0, 66, 0
1, 107510, Note_on_c, 0, 67, 86
1, 107582, Note_on_c, 0, 67, 0
1, 107582, Note_on_c, 0, 69, 88
1, 107655, Note_on_c, 0, 69, 0
1, 107655, Note_on_c, 0, 71, 90
1, 107728, Note_on_c, 0, 71, 0
1, 107728, Note_on_c, 0, 73, 92
1, 107801, Note_on_c, 0, 73, 0
1, 107801, Note_on_c, 0, 74, 93
1, 107875, Note_on_c, 0, 74, 0
1, 107875, Note_on_c, 0, 76, 95
1, 107949, Note_on_c, 0, 76, 0
1, 107949, Note_on_c, 0, 78, 97
1, 108023, Note_on_c, 0, 78, 0
1, 108023, Note_on_c, 0, 80, 98
1, 108098, Note_on_c, 0, 80, 0
1, 108098, Note_on_c, 0, 81, 103
1, 108098, Note_on_c, 0, 69, 89
1, 108101, Note_on_c, 0, 62, 0
1, 108101, Note_on_c, 0, 57, 0
1, 108101, Note_on_c, 0, 54, 0
1, 108104, Note_on_c, 0, 50, 0
1, 108104, Note_on_c, 0, 45, 72
1, 108104, Note_on_c, 0, 49, 84
1, 108107, Control_c, 0, 64, 0
1, 108171, Note_on_c, 0, 69, 0
1, 108171, Note_on_c, 0, 81, 0
1, 108171, Note_on_c, 0, 49, 0
1, 108174, Note_on_c, 0, 45, 0
1, 108244, Note_on_c, 0, 80, 88
1, 108244, Note_on_c, 0, 68, 76
1, 108244, Note_on_c, 0, 46, 66
1, 108247, Note_on_c, 0, 50, 76
1, 108319, Note_on_c, 0, 68, 0
1, 108319, Note_on_c, 0, 80, 0
1, 108319, Note_on_c, 0, 50, 0
1, 108322, Note_on_c, 0, 46, 0
1, 108394, Note_on_c, 0, 81, 95
1, 108394, Note_on_c, 0, 69, 82
1, 108394, Note_on_c, 0, 45, 71
1, 108397, Note_on_c, 0, 49, 82
1, 108467, Note_on_c, 0, 69, 0
1, 108467, Note_on_c, 0, 81, 0
1, 108467, Note_on_c, 0, 49, 0
1, 108470, Note_on_c, 0, 45, 0
1, 108540, Note_on_c, 0, 68, 75
1, 108540, Note_on_c, 0, 80, 87
1, 108540, Note_on_c, 0, 46, 64
1, 108543, Note_on_c, 0, 50, 74
1, 108615, Note_on_c, 0, 80, 0
1, 108615, Note_on_c, 0, 68, 0
1, 108615, Note_on_c, 0, 50, 0
1, 108618, Note_on_c, 0, 46, 0
1, 108690, Note_on_c, 0, 81, 98
1, 108690, Note_on_c, 0, 69, 84
1, 108690, Note_on_c, 0, 45, 72
1, 108693, Note_on_c, 0, 49, 83
1, 108777, Note_on_c, 0, 69, 0
1, 108777, Note_on_c, 0, 81, 0
1, 108777, Note_on_c, 0, 49, 0
1, 108780, Note_on_c, 0, 45, 0
1, 109037, Note_on_c, 0, 43, 67
1, 109037, Note_on_c, 0, 40, 67
1, 109037, Note_on_c, 0, 36, 67
1, 109040, Note_on_c, 0, 48, 78
1, 109091, Control_c, 0, 64, 127
1, 109120, Note_on_c, 0, 72, 87
1, 109203, Note_on_c, 0, 72, 0
1, 109203, Note_on_c, 0, 76, 87
1, 109286, Note_on_c, 0, 76, 0
1, 109286, Note_on_c, 0, 79, 85
1, 109369, Note_on_c, 0, 79, 0
1, 109369, Note_on_c, 0, 84, 97
1, 109451, Note_on_c, 0, 84, 0
1, 109451, Note_on_c, 0, 88, 85
1, 109534, Note_on_c, 0, 88, 0
1, 109534, Note_on_c, 0, 91, 89
1, 109617, Note_on_c, 0, 91, 0
1, 109617, Note_on_c, 0, 96, 85
1, 109700, Note_on_c, 0, 96, 0
1, 109700, Note_on_c, 0, 95, 99
1, 109700, Note_on_c, 0, 48, 0
1, 109703, Note_on_c, 0, 43, 0
1, 109703, Note_on_c, 0, 40, 0
1, 109703, Note_on_c, 0, 36, 0
1, 109706, Note_on_c, 0, 47, 65
1, 109706, Note_on_c, 0, 43, 65
1, 109706, Note_on_c, 0, 40, 65
1, 109709, Note_on_c, 0, 52, 75
1, 109734, Control_c, 0, 64, 0
1, 109783, Note_on_c, 0, 95, 0
1, 109866, Note_on_c, 0, 52, 0
1, 109866, Note_on_c, 0, 47, 0
1, 109866, Note_on_c, 0, 43, 0
1, 109869, Note_on_c, 0, 40, 0
1, 110039, Note_on_c, 0, 69, 96
1, 110039, Note_on_c, 0, 48, 66
1, 110039, Note_on_c, 0, 45, 66
1, 110042, Note_on_c, 0, 41, 66
1, 110042, Note_on_c, 0, 53, 76
1, 110084, Control_c, 0, 64, 127
1, 110124, Note_on_c, 0, 69, 0
1, 110124, Note_on_c, 0, 72, 88
1, 110208, Note_on_c, 0, 72, 0
1, 110208, Note_on_c, 0, 77, 88
1, 110208, Note_on_c, 0, 53, 0
1, 110211, Note_on_c, 0, 48, 0
1, 110211, Note_on_c, 0, 45, 0
1, 110211, Note_on_c, 0, 41, 0
1, 110292, Note_on_c, 0, 77, 0
1, 110292, Note_on_c, 0, 81, 88
1, 110376, Note_on_c, 0, 81, 0
1, 110376, Note_on_c, 0, 72, 96
1, 110376, Note_on_c, 0, 51, 64
1, 110379, Note_on_c, 0, 54, 74
1, 110379, Note_on_c, 0, 42, 64
1, 110379, Note_on_c, 0, 45, 64
1, 110384, Control_c, 0, 64, 0
1, 110460, Note_on_c, 0, 72, 0
1, 110460, Note_on_c, 0, 75, 88
1, 110460, Control_c, 0, 64, 127
1, 110544, Note_on_c, 0, 75, 0
1, 110544, Note_on_c, 0, 81, 88
1, 110544, Note_on_c, 0, 45, 0
1, 110547, Note_on_c, 0, 51, 0
1, 110547, Note_on_c, 0, 54, 0
1, 110547, Note_on_c, 0, 42, 0
1, 110628, Note_on_c, 0, 81, 0
1, 110628, Note_on_c, 0, 84, 88
1, 110712, Note_on_c, 0, 84, 0
1, 110712, Note_on_c, 0, 71, 96
1, 110712, Note_on_c, 0, 47, 61
1, 110715, Note_on_c, 0, 55, 71
1, 110715, Note_on_c, 0, 43, 61
1, 110715, Note_on_c, 0, 52, 61
1, 110723, Control_c, 0, 64, 0
1, 110797, Note_on_c, 0, 71, 0
1, 110797, Note_on_c, 0, 76, 86
1, 110797, Control_c, 0, 64, 127
1, 110881, Note_on_c, 0, 76, 0
1, 110881, Note_on_c, 0, 79, 86
1, 110881, Note_on_c, 0, 52, 0
1, 110884, Note_on_c, 0, 47, 0
1, 110884, Note_on_c, 0, 55, 0
1, 110884, Note_on_c, 0, 43, 0
1, 110968, Note_on_c, 0, 79, 0
1, 110968, Note_on_c, 0, 83, 86
1, 111055, Note_on_c, 0, 83, 0
1, 111055, Note_on_c, 0, 69, 90
1, 111055, Note_on_c, 0, 48, 64
1, 111058, Note_on_c, 0, 57, 74
1, 111058, Note_on_c, 0, 54, 64
1, 111058, Note_on_c, 0, 45, 64
1, 111063, Control_c, 0, 64, 0
1, 111124, Control_c, 0, 64, 127
1, 111140, Note_on_c, 0, 69, 0
1, 111140, Note_on_c, 0, 72, 83
1, 111226, Note_on_c, 0, 72, 0
1, 111226, Note_on_c, 0, 78, 83
1, 111226, Note_on_c, 0, 45, 0
1, 111229, Note_on_c, 0, 48, 0
1, 111229, Note_on_c, 0, 57, 0
1, 111229, Note_on_c, 0, 54, 0
1, 111311, Note_on_c, 0, 78, 0
1, 111311, Note_on_c, 0, 81, 82
1, 111397, Note_on_c, 0, 81, 0
1, 111397, Note_on_c, 0, 67, 88
1, 111397, Note_on_c, 0, 52, 59
1, 111400, Note_on_c, 0, 59, 68
1, 111400, Note_on_c, 0, 47, 59
1, 111400, Note_on_c, 0, 55, 59
1, 111404, Control_c, 0, 64, 0
1, 111472, Control_c, 0, 64, 127
1, 111485, Note_on_c, 0, 67, 0
1, 111485, Note_on_c, 0, 71, 80
1, 111573, Note_on_c, 0, 71, 0
1, 111573, Note_on_c, 0, 76, 80
1, 111573, Note_on_c, 0, 55, 0
1, 111576, Note_on_c, 0, 52, 0
1, 111576, Note_on_c, 0, 59, 0
1, 111576, Note_on_c, 0, 47, 0
1, 111661, Note_on_c, 0, 76, 0
1, 111661, Note_on_c, 0, 79, 80
1, 111749, Note_on_c, 0, 79, 0
1, 111749, Note_on_c, 0, 66, 87
1, 111749, Note_on_c, 0, 54, 58
1, 111752, Note_on_c, 0, 59, 67
1, 111752, Note_on_c, 0, 47, 58
1, 111752, Note_on_c, 0, 51, 58
1, 111752, Control_c, 0, 64, 0
1, 111801, Control_c, 0, 64, 127
1, 111840, Note_on_c, 0, 66, 0
1, 111840, Note_on_c, 0, 71, 79
1, 111932, Note_on_c, 0, 71, 0
1, 111932, Note_on_c, 0, 75, 79
1, 111932, Note_on_c, 0, 51, 0
1, 111935, Note_on_c, 0, 54, 0
1, 111935, Note_on_c, 0, 59, 0
1, 111935, Note_on_c, 0, 47, 0
1, 112023, Note_on_c, 0, 75, 0
1, 112023, Note_on_c, 0, 78, 79
1, 112114, Note_on_c, 0, 78, 0
1, 112114, Note_on_c, 0, 64, 97
1, 112114, Control_c, 0, 64, 0
1, 112117, Note_on_c, 0, 52, 87
1, 112173, Control_c, 0, 64, 127
1, 112260, Note_on_c, 0, 64, 0
1, 112260, Note_on_c, 0, 66, 92
1, 112260, Note_on_c, 0, 52, 0
1, 112263, Note_on_c, 0, 54, 83
1, 112332, Note_on_c, 0, 66, 0
1, 112332, Note_on_c, 0, 67, 88
1, 112332, Note_on_c, 0, 54, 0
1, 112335, Note_on_c, 0, 55, 77
1, 112405, Note_on_c, 0, 67, 0
1, 112405, Note_on_c, 0, 69, 87
1, 112405, Note_on_c, 0, 55, 0
1, 112408, Note_on_c, 0, 57, 77
1, 112478, Note_on_c, 0, 69, 0
1, 112478, Note_on_c, 0, 71, 87
1, 112478, Note_on_c, 0, 57, 0
1, 112481, Note_on_c, 0, 59, 76
1, 112550, Note_on_c, 0, 71, 0
1, 112550, Note_on_c, 0, 73, 87
1, 112550, Note_on_c, 0, 59, 0
1, 112553, Note_on_c, 0, 61, 75
1, 112623, Note_on_c, 0, 73, 0
1, 112623, Note_on_c, 0, 75, 86
1, 112623, Note_on_c, 0, 61, 0
1, 112626, Note_on_c, 0, 63, 74
1, 112696, Note_on_c, 0, 75, 0
1, 112696, Note_on_c, 0, 76, 86
1, 112696, Note_on_c, 0, 63, 0
1, 112699, Note_on_c, 0, 64, 73
1, 112770, Note_on_c, 0, 76, 0
1, 112770, Note_on_c, 0, 78, 86
1, 112770, Note_on_c, 0, 64, 0
1, 112773, Note_on_c, 0, 66, 73
1, 112844, Note_on_c, 0, 78, 0
1, 112844, Note_on_c, 0, 79, 85
1, 112844, Note_on_c, 0, 66, 0
1, 112847, Note_on_c, 0, 67, 72
1, 112918, Note_on_c, 0, 79, 0
1, 112918, Note_on_c, 0, 81, 85
1, 112918, Note_on_c, 0, 67, 0
1, 112921, Note_on_c, 0, 69, 72
1, 112993, Note_on_c, 0, 81, 0
1, 112993, Note_on_c, 0, 83, 84
1, 112993, Note_on_c, 0, 69, 0
1, 112996, Note_on_c, 0, 71, 71
1, 113068, Note_on_c, 0, 83, 0
1, 113068, Note_on_c, 0, 84, 84
1, 113068, Note_on_c, 0, 71, 0
1, 113071, Note_on_c, 0, 72, 71
1, 113142, Note_on_c, 0, 84, 0
1, 113142, Note_on_c, 0, 86, 83
1, 113142, Note_on_c, 0, 72, 0
1, 113145, Note_on_c, 0, 74, 70
1, 113218, Note_on_c, 0, 86, 0
1, 113218, Note_on_c, 0, 88, 83
1, 113218, Note_on_c, 0, 74, 0
1, 113221, Note_on_c, 0, 76, 70
1, 113253, Control_c, 0, 64, 0
1, 113293, Note_on_c, 0, 88, 0
1, 113293, Note_on_c, 0, 89, 81
1, 113293, Note_on_c, 0, 76, 0
1, 113296, Note_on_c, 0, 77, 70
1, 113391, Control_c, 0, 64, 127
1, 113445, Note_on_c, 0, 89, 0
1, 113445, Note_on_c, 0, 77, 0
1, 114204, Note_on_c, 0, 86, 81
1, 114204, Note_on_c, 0, 74, 70
1, 114356, Note_on_c, 0, 86, 0
1, 114356, Note_on_c, 0, 74, 0
1, 115115, Note_on_c, 0, 83, 77
1, 115115, Note_on_c, 0, 71, 65
1, 115267, Note_on_c, 0, 83, 0
1, 115267, Note_on_c, 0, 71, 0
1, 116038, Note_on_c, 0, 80, 65
1, 116038, Note_on_c, 0, 68, 58
1, 116193, Note_on_c, 0, 80, 0
1, 116193, Note_on_c, 0, 68, 0
1, 117002, Note_on_c, 0, 79, 60
1, 117002, Note_on_c, 0, 67, 56
1, 117174, Note_on_c, 0, 79, 0
1, 117174, Note_on_c, 0, 67, 0
1, 117863, Control_c, 0, 64, 0
1, 117975, Note_on_c, 0, 76, 51
1, 117975, Note_on_c, 0, 67, 46
1, 117975, Note_on_c, 0, 48, 49
1, 118025, Control_c, 0, 64, 127
1, 118137, Note_on_c, 0, 48, 0
1, 118137, Note_on_c, 0, 55, 34
1, 118299, Note_on_c, 0, 55, 0
1, 118299, Note_on_c, 0, 60, 39
1, 118461, Note_on_c, 0, 60, 0
1, 118461, Note_on_c, 0, 55, 34
1, 118623, Note_on_c, 0, 55, 0
1, 118623, Note_on_c, 0, 64, 49
1, 118777, Note_on_c, 0, 76, 0
1, 118777, Note_on_c, 0, 77, 49
1, 118777, Note_on_c, 0, 64, 0
1, 118855, Note_on_c, 0, 77, 0
1, 118855, Note_on_c, 0, 76, 44
1, 118932, Note_on_c, 0, 76, 0
1, 118932, Note_on_c, 0, 74, 49
1, 118932, Note_on_c, 0, 47, 49
1, 118940, Control_c, 0, 64, 0
1, 119005, Control_c, 0, 64, 127
1, 119086, Note_on_c, 0, 47, 0
1, 119086, Note_on_c, 0, 55, 38
1, 119241, Note_on_c, 0, 74, 0
1, 119241, Note_on_c, 0, 77, 51
1, 119241, Note_on_c, 0, 55, 0
1, 119244, Note_on_c, 0, 62, 44
1, 119398, Note_on_c, 0, 62, 0
1, 119398, Note_on_c, 0, 55, 38
1, 119555, Note_on_c, 0, 77, 0
1, 119555, Note_on_c, 0, 80, 56
1, 119555, Note_on_c, 0, 55, 0
1, 119558, Note_on_c, 0, 65, 48
1, 119715, Note_on_c, 0, 65, 0
1, 119875, Note_on_c, 0, 80, 0
1, 119875, Note_on_c, 0, 67, 0
1, 119875, Note_on_c, 0, 79, 54
1, 119878, Note_on_c, 0, 67, 46
1, 119878, Note_on_c, 0, 48, 46
1, 119881, Control_c, 0, 64, 0
1, 119985, Control_c, 0, 64, 127
1, 120031, Note_on_c, 0, 48, 0
1, 120031, Note_on_c, 0, 55, 35
1, 120187, Note_on_c, 0, 55, 0
1, 120187, Note_on_c, 0, 64, 38
1, 120343, Note_on_c, 0, 64, 0
1, 120343, Note_on_c, 0, 55, 34
1, 120499, Note_on_c, 0, 79, 0
1, 120499, Note_on_c, 0, 76, 47
1, 120499, Note_on_c, 0, 55, 0
1, 120502, Note_on_c, 0, 60, 49
1, 120657, Note_on_c, 0, 60, 0
1, 120809, Note_on_c, 0, 76, 0
1, 120815, Note_on_c, 0, 67, 0
1, 120815, Note_on_c, 0, 67, 46
1, 120815, Note_on_c, 0, 79, 54
1, 120818, Note_on_c, 0, 47, 49
1, 120824, Control_c, 0, 64, 0
1, 120897, Control_c, 0, 64, 127
1, 120970, Note_on_c, 0, 47, 0
1, 120970, Note_on_c, 0, 55, 39
1, 121124, Note_on_c, 0, 55, 0
1, 121124, Note_on_c, 0, 65, 44
1, 121279, Note_on_c, 0, 65, 0
1, 121279, Note_on_c, 0, 55, 38
1, 121433, Note_on_c, 0, 79, 0
1, 121433, Note_on_c, 0, 77, 47
1, 121433, Note_on_c, 0, 55, 0
1, 121436, Note_on_c, 0, 62, 48
1, 121596, Note_on_c, 0, 62, 0
1, 121753, Note_on_c, 0, 77, 0
1, 121760, Note_on_c, 0, 67, 0
1, 121760, Note_on_c, 0, 67, 51
1, 121760, Note_on_c, 0, 76, 51
1, 121763, Note_on_c, 0, 48, 47
1, 121766, Control_c, 0, 64, 0
1, 121838, Control_c, 0, 64, 127
1, 121917, Note_on_c, 0, 48, 0
1, 121917, Note_on_c, 0, 55, 39
1, 122074, Note_on_c, 0, 55, 0
1, 122074, Note_on_c, 0, 60, 41
1, 122231, Note_on_c, 0, 60, 0
1, 122231, Note_on_c, 0, 55, 38
1, 122388, Note_on_c, 0, 55, 0
1, 122388, Note_on_c, 0, 64, 49
1, 122540, Note_on_c, 0, 76, 0
1, 122540, Note_on_c, 0, 77, 48
1, 122540, Note_on_c, 0, 64, 0
1, 122615, Note_on_c, 0, 77, 0
1, 122615, Note_on_c, 0, 76, 44
1, 122691, Note_on_c, 0, 76, 0
1, 122691, Note_on_c, 0, 74, 49
1, 122691, Note_on_c, 0, 47, 49
1, 122699, Control_c, 0, 64, 0
1, 122763, Control_c, 0, 64, 127
1, 122843, Note_on_c, 0, 47, 0
1, 122843, Note_on_c, 0, 55, 39
1, 122994, Note_on_c, 0, 74, 0
1, 122994, Note_on_c, 0, 77, 51
1, 122994, Note_on_c, 0, 55, 0
1, 122997, Note_on_c, 0, 62, 44
1, 123147, Note_on_c, 0, 62, 0
1, 123147, Note_on_c, 0, 55, 39
1, 123300, Note_on_c, 0, 77, 0
1, 123300, Note_on_c, 0, 80, 56
1, 123300, Note_on_c, 0, 55, 0
1, 123303, Note_on_c, 0, 65, 48
1, 123459, Note_on_c, 0, 65, 0
1, 123618, Note_on_c, 0, 80, 0
1, 123618, Note_on_c, 0, 67, 0
1, 123618, Note_on_c, 0, 79, 54
1, 123621, Note_on_c, 0, 67, 46
1, 123621, Note_on_c, 0, 48, 46
1, 123627, Control_c, 0, 64, 0
1, 123683, Control_c, 0, 64, 127
1, 123772, Note_on_c, 0, 48, 0
1, 123772, Note_on_c, 0, 55, 35
1, 123925, Note_on_c, 0, 55, 0
1, 123925, Note_on_c, 0, 64, 39
1, 124078, Note_on_c, 0, 64, 0
1, 124078, Note_on_c, 0, 55, 34
1, 124231, Note_on_c, 0, 79, 0
1, 124231, Note_on_c, 0, 76, 47
1, 124231, Note_on_c, 0, 55, 0
1, 124234, Note_on_c, 0, 60, 49
1, 124389, Note_on_c, 0, 60, 0
1, 124540, Note_on_c, 0, 76, 0
1, 124547, Note_on_c, 0, 67, 0
1, 124547, Note_on_c, 0, 67, 61
1, 124547, Note_on_c, 0, 79, 61
1, 124550, Note_on_c, 0, 47, 51
1, 124554, Control_c, 0, 64, 0
1, 124628, Control_c, 0, 64, 127
1, 124701, Note_on_c, 0, 47, 0
1, 124701, Note_on_c, 0, 55, 40
1, 124855, Note_on_c, 0, 55, 0
1, 124855, Note_on_c, 0, 65, 48
1, 125009, Note_on_c, 0, 65, 0
1, 125009, Note_on_c, 0, 55, 40
1, 125163, Note_on_c, 0, 79, 0
1, 125163, Note_on_c, 0, 77, 59
1, 125163, Note_on_c, 0, 55, 0
1, 125166, Note_on_c, 0, 62, 48
1, 125323, Note_on_c, 0, 62, 0
1, 125476, Note_on_c, 0, 77, 0
1, 125483, Note_on_c, 0, 67, 0
1, 125483, Note_on_c, 0, 68, 68
1, 125483, Note_on_c, 0, 80, 68
1, 125486, Note_on_c, 0, 47, 51
1, 125489, Control_c, 0, 64, 0
1, 125546, Control_c, 0, 64, 127
1, 125636, Note_on_c, 0, 47, 0
1, 125636, Note_on_c, 0, 56, 43
1, 125789, Note_on_c, 0, 56, 0
1, 125789, Note_on_c, 0, 65, 49
1, 125942, Note_on_c, 0, 65, 0
1, 125942, Note_on_c, 0, 56, 44
1, 126095, Note_on_c, 0, 80, 0
1, 126095, Note_on_c, 0, 77, 63
1, 126095, Note_on_c, 0, 56, 0
1, 126098, Note_on_c, 0, 62, 52
1, 126256, Note_on_c, 0, 62, 0
1, 126409, Note_on_c, 0, 77, 0
1, 126416, Note_on_c, 0, 68, 0
1, 126416, Note_on_c, 0, 69, 72
1, 126416, Note_on_c, 0, 81, 72
1, 126419, Note_on_c, 0, 48, 61
1, 126423, Control_c, 0, 64, 0
1, 126498, Control_c, 0, 64, 127
1, 126572, Note_on_c, 0, 48, 0
1, 126572, Note_on_c, 0, 57, 46
1, 126727, Note_on_c, 0, 57, 0
1, 126727, Note_on_c, 0, 65, 49
1, 126882, Note_on_c, 0, 65, 0
1, 126882, Note_on_c, 0, 57, 46
1, 127038, Note_on_c, 0, 81, 0
1, 127038, Note_on_c, 0, 77, 63
1, 127038, Note_on_c, 0, 57, 0
1, 127041, Note_on_c, 0, 60, 55
1, 127198, Note_on_c, 0, 60, 0
1, 127352, Note_on_c, 0, 77, 0
1, 127359, Note_on_c, 0, 69, 0
1, 127359, Note_on_c, 0, 76, 68
1, 127359, Note_on_c, 0, 70, 68
1, 127362, Note_on_c, 0, 48, 62
1, 127366, Control_c, 0, 64, 0
1, 127463, Control_c, 0, 64, 127
1, 127521, Note_on_c, 0, 48, 0
1, 127521, Note_on_c, 0, 60, 48
1, 127682, Note_on_c, 0, 76, 0
1, 127682, Note_on_c, 0, 85, 73
1, 127682, Note_on_c, 0, 60, 0
1, 127685, Note_on_c, 0, 67, 54
1, 127840, Note_on_c, 0, 67, 0
1, 127840, Note_on_c, 0, 60, 48
1, 127997, Note_on_c, 0, 85, 0
1, 127997, Note_on_c, 0, 84, 70
1, 127997, Note_on_c, 0, 60, 0
1, 128000, Note_on_c, 0, 64, 58
1, 128158, Note_on_c, 0, 64, 0
1, 128319, Note_on_c, 0, 84, 0
1, 128319, Note_on_c, 0, 70, 0
1, 128319, Note_on_c, 0, 72, 46
1, 128322, Note_on_c, 0, 82, 65
1, 128322, Note_on_c, 0, 53, 52
1, 128332, Control_c, 0, 64, 0
1, 128421, Control_c, 0, 64, 127
1, 128477, Note_on_c, 0, 53, 0
1, 128477, Note_on_c, 0, 60, 36
1, 128635, Note_on_c, 0, 60, 0
1, 128635, Note_on_c, 0, 65, 38
1, 128790, Note_on_c, 0, 65, 0
1, 128790, Note_on_c, 0, 60, 34
1, 128946, Note_on_c, 0, 82, 0
1, 128946, Note_on_c, 0, 81, 59
1, 128946, Note_on_c, 0, 60, 0
1, 128949, Note_on_c, 0, 69, 44
1, 129108, Note_on_c, 0, 69, 0
1, 129270, Note_on_c, 0, 81, 0
1, 129270, Note_on_c, 0, 72, 0
1, 129270, Note_on_c, 0, 67, 63
1, 129273, Note_on_c, 0, 76, 63
1, 129273, Note_on_c, 0, 45, 51
1, 129273, Control_c, 0, 64, 0
1, 129346, Control_c, 0, 64, 127
1, 129431, Note_on_c, 0, 45, 0
1, 129431, Note_on_c, 0, 57, 43
1, 129591, Note_on_c, 0, 76, 0
1, 129591, Note_on_c, 0, 82, 68
1, 129591, Note_on_c, 0, 57, 0
1, 129594, Note_on_c, 0, 61, 46
1, 129748, Note_on_c, 0, 61, 0
1, 129748, Note_on_c, 0, 57, 41
1, 129904, Note_on_c, 0, 82, 0
1, 129904, Note_on_c, 0, 81, 59
1, 129904, Note_on_c, 0, 57, 0
1, 129907, Note_on_c, 0, 64, 51
1, 130064, Note_on_c, 0, 64, 0
1, 130223, Note_on_c, 0, 81, 0
1, 130223, Note_on_c, 0, 67, 0
1, 130223, Note_on_c, 0, 79, 62
1, 130226, Note_on_c, 0, 69, 46
1, 130226, Note_on_c, 0, 50, 49
1, 130236, Control_c, 0, 64, 0
1, 130316, Control_c, 0, 64, 127
1, 130381, Note_on_c, 0, 50, 0
1, 130381, Note_on_c, 0, 57, 37
1, 130537, Note_on_c, 0, 57, 0
1, 130537, Note_on_c, 0, 62, 40
1, 130692, Note_on_c, 0, 62, 0
1, 130692, Note_on_c, 0, 57, 38
1, 130848, Note_on_c, 0, 79, 0
1, 130848, Note_on_c, 0, 77, 59
1, 130848, Note_on_c, 0, 57, 0
1, 130851, Note_on_c, 0, 65, 44
1, 131006, Note_on_c, 0, 65, 0
1, 131158, Note_on_c, 0, 77, 0
1, 131164, Note_on_c, 0, 69, 0
1, 131164, Note_on_c, 0, 79, 54
1, 131164, Note_on_c, 0, 67, 46
1, 131167, Note_on_c, 0, 47, 49
1, 131167, Control_c, 0, 64, 0
1, 131246, Control_c, 0, 64, 127
1, 131319, Note_on_c, 0, 47, 0
1, 131319, Note_on_c, 0, 55, 39
1, 131473, Note_on_c, 0, 55, 0
1, 131473, Note_on_c, 0, 65, 41
1, 131627, Note_on_c, 0, 65, 0
1, 131627, Note_on_c, 0, 55, 39
1, 131781, Note_on_c, 0, 79, 0
1, 131781, Note_on_c, 0, 77, 47
1, 131781, Note_on_c, 0, 55, 0
1, 131784, Note_on_c, 0, 62, 48
1, 131941, Note_on_c, 0, 62, 0
1, 132094, Note_on_c, 0, 77, 0
1, 132101, Note_on_c, 0, 67, 0
1, 132101, Note_on_c, 0, 67, 46
1, 132101, Note_on_c, 0, 79, 54
1, 132104, Note_on_c, 0, 48, 46
1, 132104, Control_c, 0, 64, 0
1, 132200, Control_c, 0, 64, 127
1, 132255, Note_on_c, 0, 48, 0
1, 132255, Note_on_c, 0, 55, 40
1, 132409, Note_on_c, 0, 55, 0
1, 132409, Note_on_c, 0, 64, 41
1, 132563, Note_on_c, 0, 64, 0
1, 132563, Note_on_c, 0, 55, 40
1, 132717, Note_on_c, 0, 79, 0
1, 132717, Note_on_c, 0, 76, 47
1, 132717, Note_on_c, 0, 55, 0
1, 132720, Note_on_c, 0, 60, 49
1, 132877, Note_on_c, 0, 60, 0
1, 133031, Note_on_c, 0, 76, 0
1, 133038, Note_on_c, 0, 67, 0
1, 133038, Note_on_c, 0, 65, 46
1, 133038, Note_on_c, 0, 80, 66
1, 133041, Note_on_c, 0, 43, 46
1, 133047, Control_c, 0, 64, 0
1, 133130, Control_c, 0, 64, 127
1, 133195, Note_on_c, 0, 43, 0
1, 133195, Note_on_c, 0, 55, 41
1, 133352, Note_on_c, 0, 80, 0
1, 133352, Note_on_c, 0, 79, 49
1, 133352, Note_on_c, 0, 55, 0
1, 133355, Note_on_c, 0, 62, 41
1, 133509, Note_on_c, 0, 79, 0
1, 133509, Note_on_c, 0, 77, 44
1, 133509, Note_on_c, 0, 62, 0
1, 133512, Note_on_c, 0, 55, 41
1, 133667, Note_on_c, 0, 77, 0
1, 133667, Note_on_c, 0, 76, 48
1, 133667, Note_on_c, 0, 55, 0
1, 133670, Note_on_c, 0, 59, 49
1, 133827, Note_on_c, 0, 76, 0
1, 133827, Note_on_c, 0, 74, 41
1, 133827, Note_on_c, 0, 59, 0
1, 133987, Note_on_c, 0, 74, 0
1, 133987, Note_on_c, 0, 65, 0
1, 133987, Note_on_c, 0, 72, 48
1, 133990, Note_on_c, 0, 64, 40
1, 133990, Note_on_c, 0, 48, 46
1, 134001, Control_c, 0, 64, 0
1, 134073, Control_c, 0, 64, 127
1, 134149, Note_on_c, 0, 48, 0
1, 134149, Note_on_c, 0, 55, 38
1, 134310, Note_on_c, 0, 64, 0
1, 134310, Note_on_c, 0, 55, 0
1, 134310, Note_on_c, 0, 64, 38
1, 134472, Note_on_c, 0, 72, 0
1, 134472, Note_on_c, 0, 74, 51
1, 134472, Note_on_c, 0, 64, 0
1, 134475, Note_on_c, 0, 55, 38
1, 134634, Note_on_c, 0, 74, 0
1, 134634, Note_on_c, 0, 76, 60
1, 134634, Note_on_c, 0, 55, 0
1, 134637, Note_on_c, 0, 60, 43
1, 134795, Note_on_c, 0, 76, 0
1, 134795, Note_on_c, 0, 77, 64
1, 134795, Note_on_c, 0, 60, 0
1, 134957, Note_on_c, 0, 77, 0
1, 134957, Note_on_c, 0, 70, 69
1, 134957, Note_on_c, 0, 76, 69
1, 134960, Note_on_c, 0, 48, 58
1, 134969, Control_c, 0, 64, 0
1, 135060, Control_c, 0, 64, 127
1, 135116, Note_on_c, 0, 48, 0
1, 135116, Note_on_c, 0, 60, 49
1, 135276, Note_on_c, 0, 76, 0
1, 135276, Note_on_c, 0, 85, 74
1, 135276, Note_on_c, 0, 60, 0
1, 135279, Note_on_c, 0, 67, 51
1, 135432, Note_on_c, 0, 67, 0
1, 135432, Note_on_c, 0, 60, 49
1, 135589, Note_on_c, 0, 85, 0
1, 135589, Note_on_c, 0, 84, 69
1, 135589, Note_on_c, 0, 60, 0
1, 135592, Note_on_c, 0, 64, 58
1, 135748, Note_on_c, 0, 64, 0
1, 135908, Note_on_c, 0, 84, 0
1, 135908, Note_on_c, 0, 70, 0
1, 135908, Note_on_c, 0, 72, 67
1, 135911, Note_on_c, 0, 82, 67
1, 135911, Note_on_c, 0, 53, 52
1, 135921, Control_c, 0, 64, 0
1, 135990, Control_c, 0, 64, 127
1, 136064, Note_on_c, 0, 53, 0
1, 136064, Note_on_c, 0, 60, 38
1, 136221, Note_on_c, 0, 60, 0
1, 136221, Note_on_c, 0, 65, 38
1, 136376, Note_on_c, 0, 65, 0
1, 136376, Note_on_c, 0, 60, 38
1, 136532, Note_on_c, 0, 82, 0
1, 136532, Note_on_c, 0, 81, 63
1, 136532, Note_on_c, 0, 60, 0
1, 136535, Note_on_c, 0, 69, 44
1, 136694, Note_on_c, 0, 69, 0
1, 136849, Note_on_c, 0, 81, 0
1, 136856, Note_on_c, 0, 72, 0
1, 136856, Note_on_c, 0, 67, 65
1, 136856, Note_on_c, 0, 76, 65
1, 136859, Note_on_c, 0, 45, 54
1, 136859, Control_c, 0, 64, 0
1, 136925, Control_c, 0, 64, 127
1, 137016, Note_on_c, 0, 45, 0
1, 137016, Note_on_c, 0, 57, 43
1, 137177, Note_on_c, 0, 76, 0
1, 137177, Note_on_c, 0, 82, 71
1, 137177, Note_on_c, 0, 57, 0
1, 137180, Note_on_c, 0, 61, 49
1, 137333, Note_on_c, 0, 61, 0
1, 137333, Note_on_c, 0, 57, 41
1, 137490, Note_on_c, 0, 82, 0
1, 137490, Note_on_c, 0, 81, 66
1, 137490, Note_on_c, 0, 57, 0
1, 137493, Note_on_c, 0, 64, 51
1, 137649, Note_on_c, 0, 64, 0
1, 137809, Note_on_c, 0, 81, 0
1, 137809, Note_on_c, 0, 67, 0
1, 137809, Note_on_c, 0, 79, 62
1, 137812, Note_on_c, 0, 69, 46
1, 137812, Note_on_c, 0, 50, 49
1, 137819, Control_c, 0, 64, 0
1, 137902, Control_c, 0, 64, 127
1, 137967, Note_on_c, 0, 50, 0
1, 137967, Note_on_c, 0, 57, 38
1, 138122, Note_on_c, 0, 57, 0
1, 138122, Note_on_c, 0, 62, 38
1, 138278, Note_on_c, 0, 62, 0
1, 138278, Note_on_c, 0, 57, 38
1, 138433, Note_on_c, 0, 79, 0
1, 138433, Note_on_c, 0, 77, 59
1, 138433, Note_on_c, 0, 57, 0
1, 138436, Note_on_c, 0, 65, 44
1, 138594, Note_on_c, 0, 65, 0
1, 138749, Note_on_c, 0, 77, 0
1, 138755, Note_on_c, 0, 69, 0
1, 138755, Note_on_c, 0, 67, 57
1, 138755, Note_on_c, 0, 79, 57
1, 138758, Note_on_c, 0, 47, 49
1, 138761, Control_c, 0, 64, 0
1, 138837, Control_c, 0, 64, 127
1, 138909, Note_on_c, 0, 47, 0
1, 138909, Note_on_c, 0, 55, 39
1, 139063, Note_on_c, 0, 55, 0
1, 139063, Note_on_c, 0, 65, 40
1, 139217, Note_on_c, 0, 65, 0
1, 139217, Note_on_c, 0, 55, 40
1, 139371, Note_on_c, 0, 79, 0
1, 139371, Note_on_c, 0, 77, 49
1, 139371, Note_on_c, 0, 55, 0
1, 139374, Note_on_c, 0, 62, 48
1, 139531, Note_on_c, 0, 62, 0
1, 139685, Note_on_c, 0, 77, 0
1, 139691, Note_on_c, 0, 67, 0
1, 139691, Note_on_c, 0, 67, 57
1, 139691, Note_on_c, 0, 79, 57
1, 139694, Note_on_c, 0, 48, 46
1, 139699, Control_c, 0, 64, 0
1, 139755, Control_c, 0, 64, 127
1, 139845, Note_on_c, 0, 48, 0
1, 139845, Note_on_c, 0, 55, 39
1, 139999, Note_on_c, 0, 55, 0
1, 139999, Note_on_c, 0, 64, 41
1, 140153, Note_on_c, 0, 64, 0
1, 140153, Note_on_c, 0, 55, 38
1, 140307, Note_on_c, 0, 79, 0
1, 140307, Note_on_c, 0, 76, 47
1, 140307, Note_on_c, 0, 55, 0
1, 140310, Note_on_c, 0, 60, 49
1, 140468, Note_on_c, 0, 60, 0
1, 140622, Note_on_c, 0, 76, 0
1, 140628, Note_on_c, 0, 67, 0
1, 140628, Note_on_c, 0, 80, 66
1, 140628, Note_on_c, 0, 65, 46
1, 140631, Note_on_c, 0, 43, 46
1, 140637, Control_c, 0, 64, 0
1, 140732, Control_c, 0, 64, 127
1, 140788, Note_on_c, 0, 43, 0
1, 140788, Note_on_c, 0, 55, 38
1, 140948, Note_on_c, 0, 80, 0
1, 140948, Note_on_c, 0, 79, 49
1, 140948, Note_on_c, 0, 55, 0
1, 140951, Note_on_c, 0, 62, 41
1, 141109, Note_on_c, 0, 79, 0
1, 141109, Note_on_c, 0, 77, 44
1, 141109, Note_on_c, 0, 62, 0
1, 141112, Note_on_c, 0, 55, 39
1, 141271, Note_on_c, 0, 77, 0
1, 141271, Note_on_c, 0, 76, 48
1, 141271, Note_on_c, 0, 55, 0
1, 141274, Note_on_c, 0, 59, 49
1, 141433, Note_on_c, 0, 76, 0
1, 141433, Note_on_c, 0, 74, 41
1, 141433, Note_on_c, 0, 59, 0
1, 141596, Note_on_c, 0, 74, 0
1, 141596, Note_on_c, 0, 65, 0
1, 141596, Note_on_c, 0, 72, 48
1, 141599, Note_on_c, 0, 64, 44
1, 141599, Note_on_c, 0, 48, 46
1, 141603, Control_c, 0, 64, 0
1, 141674, Control_c, 0, 64, 127
1, 141761, Note_on_c, 0, 48, 0
1, 141761, Note_on_c, 0, 55, 35
1, 141925, Note_on_c, 0, 64, 0
1, 141925, Note_on_c, 0, 72, 0
1, 141925, Note_on_c, 0, 55, 0
1, 141928, Note_on_c, 0, 60, 38
1, 142089, Note_on_c, 0, 60, 0
1, 142089, Note_on_c, 0, 55, 35
1, 142253, Note_on_c, 0, 55, 0
1, 142253, Note_on_c, 0, 64, 35
1, 142426, Note_on_c, 0, 64, 0
1, 142598, Note_on_c, 0, 76, 45
1, 142598, Note_on_c, 0, 67, 45
1, 142598, Note_on_c, 0, 48, 43
1, 142603, Control_c, 0, 64, 0
1, 142685, Control_c, 0, 64, 127
1, 142762, Note_on_c, 0, 48, 0
1, 142762, Note_on_c, 0, 55, 30
1, 142926, Note_on_c, 0, 55, 0
1, 142926, Note_on_c, 0, 60, 36
1, 143091, Note_on_c, 0, 60, 0
1, 143091, Note_on_c, 0, 55, 30
1, 143255, Note_on_c, 0, 55, 0
1, 143255, Note_on_c, 0, 64, 35
1, 143438, Note_on_c, 0, 64, 0
1, 143620, Note_on_c, 0, 67, 0
1, 143620, Note_on_c, 0, 76, 0
1, 143620, Note_on_c, 0, 76, 42
1, 143623, Note_on_c, 0, 67, 42
1, 143623, Note_on_c, 0, 71, 42
1, 143623, Note_on_c, 0, 47, 41
1, 143627, Control_c, 0, 64, 0
1, 143688, Control_c, 0, 64, 127
1, 143784, Note_on_c, 0, 47, 0
1, 143784, Note_on_c, 0, 55, 28
1, 143948, Note_on_c, 0, 55, 0
1, 143948, Note_on_c, 0, 59, 33
1, 144118, Note_on_c, 0, 59, 0
1, 144118, Note_on_c, 0, 55, 28
1, 144289, Note_on_c, 0, 55, 0
1, 144289, Note_on_c, 0, 64, 35
1, 144474, Note_on_c, 0, 64, 0
1, 144660, Note_on_c, 0, 71, 0
1, 144660, Note_on_c, 0, 67, 0
1, 144660, Note_on_c, 0, 76, 0
1, 144663, Note_on_c, 0, 75, 40
1, 144663, Note_on_c, 0, 66, 40
1, 144663, Note_on_c, 0, 71, 40
1, 144666, Note_on_c, 0, 47, 39
1, 144666, Control_c, 0, 64, 0
1, 144731, Control_c, 0, 64, 127
1, 144828, Note_on_c, 0, 47, 0
1, 144828, Note_on_c, 0, 54, 30
1, 145004, Note_on_c, 0, 54, 0
1, 145004, Note_on_c, 0, 59, 35
1, 145189, Note_on_c, 0, 59, 0
1, 145189, Note_on_c, 0, 54, 28
1, 145383, Note_on_c, 0, 54, 0
1, 145383, Note_on_c, 0, 63, 30
1, 145657, Note_on_c, 0, 63, 0
1, 145932, Note_on_c, 0, 71, 0
1, 145932, Note_on_c, 0, 66, 0
1, 145932, Note_on_c, 0, 75, 0
1, 145935, Note_on_c, 0, 65, 101
1, 145935, Control_c, 0, 64, 0
1, 145935, Note_on_c, 0, 56, 93
1, 145967, Control_c, 0, 64, 127
1, 146021, Note_on_c, 0, 65, 0
1, 146021, Note_on_c, 0, 71, 87
1, 146021, Note_on_c, 0, 56, 0
1, 146024, Note_on_c, 0, 65, 82
1, 146110, Note_on_c, 0, 71, 0
1, 146110, Note_on_c, 0, 74, 84
1, 146110, Note_on_c, 0, 65, 0
1, 146113, Note_on_c, 0, 62, 78
1, 146200, Note_on_c, 0, 74, 0
1, 146200, Note_on_c, 0, 77, 92
1, 146200, Note_on_c, 0, 62, 0
1, 146203, Note_on_c, 0, 59, 85
1, 146290, Note_on_c, 0, 77, 0
1, 146290, Note_on_c, 0, 83, 83
1, 146290, Note_on_c, 0, 59, 0
1, 146293, Note_on_c, 0, 56, 78
1, 146380, Note_on_c, 0, 83, 0
1, 146380, Note_on_c, 0, 86, 81
1, 146380, Note_on_c, 0, 56, 0
1, 146383, Note_on_c, 0, 53, 78
1, 146471, Note_on_c, 0, 86, 0
1, 146471, Note_on_c, 0, 89, 88
1, 146471, Note_on_c, 0, 53, 0
1, 146474, Note_on_c, 0, 50, 75
1, 146562, Note_on_c, 0, 89, 0
1, 146562, Note_on_c, 0, 95, 81
1, 146562, Note_on_c, 0, 50, 0
1, 146565, Note_on_c, 0, 47, 64
1, 146656, Note_on_c, 0, 95, 0
1, 146656, Note_on_c, 0, 98, 80
1, 146656, Note_on_c, 0, 47, 0
1, 146659, Note_on_c, 0, 45, 63
1, 146753, Note_on_c, 0, 98, 0
1, 146753, Note_on_c, 0, 101, 86
1, 146753, Note_on_c, 0, 45, 0
1, 146756, Note_on_c, 0, 44, 73
1, 146829, Note_on_c, 0, 101, 0
1, 146829, Note_on_c, 0, 44, 0
1, 146900, Control_c, 0, 64, 0
1, 147661, Note_on_c, 0, 46, 43
1, 147685, Control_c, 0, 64, 127
1, 147825, Note_on_c, 0, 46, 0
1, 147825, Note_on_c, 0, 53, 33
1, 147989, Note_on_c, 0, 53, 0
1, 147989, Note_on_c, 0, 58, 36
1, 148155, Note_on_c, 0, 58, 0
1, 148155, Note_on_c, 0, 53, 33
1, 148321, Note_on_c, 0, 53, 0
1, 148321, Note_on_c, 0, 62, 33
1, 148496, Note_on_c, 0, 62, 0
1, 148671, Note_on_c, 0, 74, 45
1, 148671, Note_on_c, 0, 68, 45
1, 148671, Note_on_c, 0, 65, 45
1, 148674, Note_on_c, 0, 46, 43
1, 148678, Control_c, 0, 64, 0
1, 148726, Control_c, 0, 64, 127
1, 148836, Note_on_c, 0, 46, 0
1, 148836, Note_on_c, 0, 53, 30
1, 149002, Note_on_c, 0, 53, 0
1, 149002, Note_on_c, 0, 58, 36
1, 149168, Note_on_c, 0, 58, 0
1, 149168, Note_on_c, 0, 53, 30
1, 149334, Note_on_c, 0, 53, 0
1, 149334, Note_on_c, 0, 62, 35
1, 149509, Note_on_c, 0, 62, 0
1, 149685, Note_on_c, 0, 65, 0
1, 149685, Note_on_c, 0, 68, 0
1, 149685, Note_on_c, 0, 74, 0
1, 149688, Note_on_c, 0, 74, 42
1, 149688, Note_on_c, 0, 69, 42
1, 149688, Note_on_c, 0, 65, 42
1, 149691, Note_on_c, 0, 45, 41
1, 149691, Control_c, 0, 64, 0
1, 149763, Control_c, 0, 64, 127
1, 149850, Note_on_c, 0, 45, 0
1, 149850, Note_on_c, 0, 53, 28
1, 150015, Note_on_c, 0, 53, 0
1, 150015, Note_on_c, 0, 57, 33
1, 150186, Note_on_c, 0, 57, 0
1, 150186, Note_on_c, 0, 53, 28
1, 150356, Note_on_c, 0, 53, 0
1, 150356, Note_on_c, 0, 62, 35
1, 150541, Note_on_c, 0, 62, 0
1, 150727, Note_on_c, 0, 65, 0
1, 150727, Note_on_c, 0, 69, 0
1, 150727, Note_on_c, 0, 74, 0
1, 150730, Note_on_c, 0, 69, 40
1, 150730, Note_on_c, 0, 64, 40
1, 150730, Note_on_c, 0, 73, 40
1, 150733, Control_c, 0, 64, 0
1, 150733, Note_on_c, 0, 45, 39
1, 150790, Control_c, 0, 64, 127
1, 150895, Note_on_c, 0, 45, 0
1, 150895, Note_on_c, 0, 52, 30
1, 151072, Note_on_c, 0, 52, 0
1, 151072, Note_on_c, 0, 57, 35
1, 151256, Note_on_c, 0, 57, 0
1, 151256, Note_on_c, 0, 52, 28
1, 151450, Note_on_c, 0, 52, 0
1, 151450, Note_on_c, 0, 61, 30
1, 151725, Note_on_c, 0, 61, 0
1, 151999, Note_on_c, 0, 73, 0
1, 151999, Note_on_c, 0, 64, 0
1, 151999, Note_on_c, 0, 69, 0
1, 152002, Note_on_c, 0, 63, 101
1, 152002, Control_c, 0, 64, 0
1, 152002, Note_on_c, 0, 54, 93
1, 152034, Control_c, 0, 64, 127
1, 152088, Note_on_c, 0, 63, 0
1, 152088, Note_on_c, 0, 69, 87
1, 152088, Note_on_c, 0, 54, 0
1, 152091, Note_on_c, 0, 63, 83
1, 152178, Note_on_c, 0, 69, 0
1, 152178, Note_on_c, 0, 72, 82
1, 152178, Note_on_c, 0, 63, 0
1, 152181, Note_on_c, 0, 60, 80
1, 152267, Note_on_c, 0, 72, 0
1, 152267, Note_on_c, 0, 75, 92
1, 152267, Note_on_c, 0, 60, 0
1, 152270, Note_on_c, 0, 57, 85
1, 152357, Note_on_c, 0, 75, 0
1, 152357, Note_on_c, 0, 81, 83
1, 152357, Note_on_c, 0, 57, 0
1, 152360, Note_on_c, 0, 53, 78
1, 152448, Note_on_c, 0, 81, 0
1, 152448, Note_on_c, 0, 84, 81
1, 152448, Note_on_c, 0, 53, 0
1, 152451, Note_on_c, 0, 51, 78
1, 152538, Note_on_c, 0, 84, 0
1, 152538, Note_on_c, 0, 87, 88
1, 152538, Note_on_c, 0, 51, 0
1, 152541, Note_on_c, 0, 48, 75
1, 152630, Note_on_c, 0, 87, 0
1, 152630, Note_on_c, 0, 93, 81
1, 152630, Note_on_c, 0, 48, 0
1, 152633, Note_on_c, 0, 45, 64
1, 152724, Note_on_c, 0, 93, 0
1, 152724, Note_on_c, 0, 96, 80
1, 152724, Note_on_c, 0, 45, 0
1, 152727, Note_on_c, 0, 43, 63
1, 152821, Note_on_c, 0, 96, 0
1, 152821, Note_on_c, 0, 99, 86
1, 152821, Note_on_c, 0, 43, 0
1, 152824, Note_on_c, 0, 42, 73
1, 152896, Note_on_c, 0, 99, 0
1, 152896, Note_on_c, 0, 42, 0
1, 152967, Control_c, 0, 64, 0
1, 153728, Note_on_c, 0, 44, 43
1, 153753, Control_c, 0, 64, 127
1, 153896, Note_on_c, 0, 44, 0
1, 153896, Note_on_c, 0, 51, 33
1, 154064, Note_on_c, 0, 51, 0
1, 154064, Note_on_c, 0, 56, 36
1, 154234, Note_on_c, 0, 56, 0
1, 154234, Note_on_c, 0, 51, 33
1, 154404, Note_on_c, 0, 51, 0
1, 154404, Note_on_c, 0, 60, 33
1, 154583, Note_on_c, 0, 60, 0
1, 154762, Note_on_c, 0, 66, 45
1, 154762, Note_on_c, 0, 68, 45
1, 154762, Note_on_c, 0, 75, 45
1, 154765, Note_on_c, 0, 44, 43
1, 154765, Control_c, 0, 64, 0
1, 154826, Control_c, 0, 64, 127
1, 154932, Note_on_c, 0, 44, 0
1, 154932, Note_on_c, 0, 51, 30
1, 155102, Note_on_c, 0, 51, 0
1, 155102, Note_on_c, 0, 56, 36
1, 155276, Note_on_c, 0, 56, 0
1, 155276, Note_on_c, 0, 51, 30
1, 155449, Note_on_c, 0, 51, 0
1, 155449, Note_on_c, 0, 60, 35
1, 155628, Note_on_c, 0, 60, 0
1, 155807, Note_on_c, 0, 75, 0
1, 155807, Note_on_c, 0, 68, 0
1, 155807, Note_on_c, 0, 66, 0
1, 155810, Note_on_c, 0, 68, 42
1, 155810, Note_on_c, 0, 65, 42
1, 155810, Note_on_c, 0, 75, 42
1, 155813, Note_on_c, 0, 44, 41
1, 155813, Control_c, 0, 64, 0
1, 155876, Control_c, 0, 64, 127
1, 155975, Note_on_c, 0, 44, 0
1, 155975, Note_on_c, 0, 53, 28
1, 156142, Note_on_c, 0, 53, 0
1, 156142, Note_on_c, 0, 56, 33
1, 156318, Note_on_c, 0, 56, 0
1, 156318, Note_on_c, 0, 53, 28
1, 156493, Note_on_c, 0, 53, 0
1, 156493, Note_on_c, 0, 61, 35
1, 156679, Note_on_c, 0, 61, 0
1, 156864, Note_on_c, 0, 75, 0
1, 156864, Note_on_c, 0, 73, 49
1, 156864, Note_on_c, 0, 44, 41
1, 156870, Control_c, 0, 64, 0
1, 156932, Control_c, 0, 64, 127
1, 157028, Note_on_c, 0, 44, 0
1, 157028, Note_on_c, 0, 53, 28
1, 157192, Note_on_c, 0, 73, 0
1, 157192, Note_on_c, 0, 77, 51
1, 157192, Note_on_c, 0, 53, 0
1, 157195, Note_on_c, 0, 56, 33
1, 157362, Note_on_c, 0, 56, 0
1, 157362, Note_on_c, 0, 53, 28
1, 157533, Note_on_c, 0, 77, 0
1, 157533, Note_on_c, 0, 78, 57
1, 157533, Note_on_c, 0, 53, 0
1, 157536, Note_on_c, 0, 61, 35
1, 157714, Note_on_c, 0, 61, 0
1, 157805, Note_on_c, 0, 78, 0
1, 157805, Note_on_c, 0, 65, 0
1, 157805, Note_on_c, 0, 68, 0
1, 157808, Note_on_c, 0, 63, 44
1, 157816, Control_c, 0, 64, 0
1, 157835, Control_c, 0, 64, 127
1, 157850, Note_on_c, 0, 73, 45
1, 157895, Note_on_c, 0, 80, 57
1, 157895, Note_on_c, 0, 32, 41
1, 158067, Note_on_c, 0, 32, 0
1, 158067, Note_on_c, 0, 44, 28
1, 158239, Note_on_c, 0, 44, 0
1, 158239, Note_on_c, 0, 51, 28
1, 158416, Note_on_c, 0, 51, 0
1, 158416, Note_on_c, 0, 44, 28
1, 158593, Note_on_c, 0, 44, 0
1, 158593, Note_on_c, 0, 54, 33
1, 158783, Note_on_c, 0, 54, 0
1, 158877, Note_on_c, 0, 80, 0
1, 158877, Note_on_c, 0, 73, 0
1, 158877, Note_on_c, 0, 63, 0
1, 158880, Note_on_c, 0, 66, 39
1, 158885, Control_c, 0, 64, 0
1, 158925, Note_on_c, 0, 72, 39
1, 158925, Control_c, 0, 64, 127
1, 158972, Note_on_c, 0, 80, 54
1, 158972, Note_on_c, 0, 32, 41
1, 159146, Note_on_c, 0, 32, 0
1, 159146, Note_on_c, 0, 44, 28
1, 159321, Note_on_c, 0, 44, 0
1, 159321, Note_on_c, 0, 51, 28
1, 159504, Note_on_c, 0, 51, 0
1, 159504, Note_on_c, 0, 44, 28
1, 159714, Note_on_c, 0, 44, 0
1, 159714, Note_on_c, 0, 56, 37
1, 159898, Note_on_c, 0, 56, 0
1, 159991, Note_on_c, 0, 80, 0
1, 159991, Note_on_c, 0, 72, 0
1, 159991, Note_on_c, 0, 66, 0
1, 160083, Note_on_c, 0, 73, 46
1, 160083, Note_on_c, 0, 56, 37
1, 160083, Note_on_c, 0, 61, 37
1, 160086, Note_on_c, 0, 49, 37
1, 160086, Note_on_c, 0, 53, 37
1, 160091, Control_c, 0, 64, 0
1, 160125, Control_c, 0, 64, 127
1, 160179, Note_on_c, 0, 73, 0
1, 160179, Note_on_c, 0, 75, 40
1, 160275, Note_on_c, 0, 75, 0
1, 160275, Note_on_c, 0, 77, 40
1, 160371, Note_on_c, 0, 77, 0
1, 160371, Note_on_c, 0, 75, 46
1, 160467, Note_on_c, 0, 75, 0
1, 160467, Note_on_c, 0, 77, 41
1, 160563, Note_on_c, 0, 77, 0
1, 160563, Note_on_c, 0, 78, 41
1, 160659, Note_on_c, 0, 78, 0
1, 160659, Note_on_c, 0, 77, 45
1, 160755, Note_on_c, 0, 77, 0
1, 160755, Note_on_c, 0, 78, 40
1, 160851, Note_on_c, 0, 78, 0
1, 160851, Note_on_c, 0, 80, 41
1, 160947, Note_on_c, 0, 80, 0
1, 160947, Note_on_c, 0, 78, 49
1, 160959, Control_c, 0, 64, 0
1, 160995, Control_c, 0, 64, 127
1, 161043, Note_on_c, 0, 78, 0
1, 161043, Note_on_c, 0, 80, 42
1, 161138, Note_on_c, 0, 80, 0
1, 161138, Note_on_c, 0, 82, 42
1, 161233, Note_on_c, 0, 82, 0
1, 161233, Note_on_c, 0, 80, 53
1, 161328, Note_on_c, 0, 80, 0
1, 161328, Note_on_c, 0, 82, 46
1, 161422, Note_on_c, 0, 82, 0
1, 161422, Note_on_c, 0, 84, 45
1, 161516, Note_on_c, 0, 84, 0
1, 161516, Note_on_c, 0, 85, 57
1, 161610, Note_on_c, 0, 85, 0
1, 161610, Note_on_c, 0, 87, 49
1, 161704, Note_on_c, 0, 87, 0
1, 161704, Note_on_c, 0, 89, 50
1, 161801, Note_on_c, 0, 89, 0
1, 161801, Note_on_c, 0, 90, 62
1, 161801, Note_on_c, 0, 53, 0
1, 161804, Note_on_c, 0, 56, 0
1, 161804, Note_on_c, 0, 61, 0
1, 161804, Note_on_c, 0, 49, 0
1, 161807, Note_on_c, 0, 56, 39
1, 161807, Note_on_c, 0, 60, 39
1, 161807, Note_on_c, 0, 51, 39
1, 161810, Note_on_c, 0, 49, 39
1, 161810, Control_c, 0, 64, 0
1, 161848, Control_c, 0, 64, 127
1, 161894, Note_on_c, 0, 90, 0
1, 161894, Note_on_c, 0, 89, 51
1, 161988, Note_on_c, 0, 89, 0
1, 161988, Note_on_c, 0, 87, 51
1, 162081, Note_on_c, 0, 87, 0
1, 162081, Note_on_c, 0, 89, 60
1, 162174, Note_on_c, 0, 89, 0
1, 162174, Note_on_c, 0, 87, 49
1, 162268, Note_on_c, 0, 87, 0
1, 162268, Note_on_c, 0, 85, 51
1, 162361, Note_on_c, 0, 85, 0
1, 162361, Note_on_c, 0, 87, 58
1, 162454, Note_on_c, 0, 87, 0
1, 162454, Note_on_c, 0, 85, 48
1, 162548, Note_on_c, 0, 85, 0
1, 162548, Note_on_c, 0, 84, 48
1, 162641, Note_on_c, 0, 84, 0
1, 162641, Note_on_c, 0, 85, 52
1, 162641, Note_on_c, 0, 51, 0
1, 162644, Note_on_c, 0, 54, 38
1, 162648, Control_c, 0, 64, 0
1, 162678, Control_c, 0, 64, 127
1, 162734, Note_on_c, 0, 85, 0
1, 162734, Note_on_c, 0, 84, 45
1, 162827, Note_on_c, 0, 84, 0
1, 162827, Note_on_c, 0, 82, 45
1, 162921, Note_on_c, 0, 82, 0
1, 162921, Note_on_c, 0, 84, 50
1, 163015, Note_on_c, 0, 84, 0
1, 163015, Note_on_c, 0, 82, 43
1, 163109, Note_on_c, 0, 82, 0
1, 163109, Note_on_c, 0, 80, 43
1, 163203, Note_on_c, 0, 80, 0
1, 163203, Note_on_c, 0, 78, 47
1, 163298, Note_on_c, 0, 78, 0
1, 163298, Note_on_c, 0, 77, 42
1, 163393, Note_on_c, 0, 77, 0
1, 163393, Note_on_c, 0, 75, 42
1, 163494, Note_on_c, 0, 75, 0
1, 163494, Note_on_c, 0, 73, 49
1, 163494, Note_on_c, 0, 54, 0
1, 163497, Note_on_c, 0, 49, 0
1, 163497, Note_on_c, 0, 60, 0
1, 163497, Note_on_c, 0, 56, 0
1, 163500, Note_on_c, 0, 56, 39
1, 163500, Note_on_c, 0, 61, 39
1, 163500, Note_on_c, 0, 49, 39
1, 163503, Note_on_c, 0, 52, 39
1, 163503, Control_c, 0, 64, 0
1, 163556, Control_c, 0, 64, 127
1, 163590, Note_on_c, 0, 73, 0
1, 163590, Note_on_c, 0, 75, 43
1, 163686, Note_on_c, 0, 75, 0
1, 163686, Note_on_c, 0, 76, 43
1, 163782, Note_on_c, 0, 76, 0
1, 163782, Note_on_c, 0, 75, 49
1, 163878, Note_on_c, 0, 75, 0
1, 163878, Note_on_c, 0, 76, 43
1, 163974, Note_on_c, 0, 76, 0
1, 163974, Note_on_c, 0, 78, 43
1, 164070, Note_on_c, 0, 78, 0
1, 164070, Note_on_c, 0, 76, 47
1, 164166, Note_on_c, 0, 76, 0
1, 164166, Note_on_c, 0, 78, 42
1, 164262, Note_on_c, 0, 78, 0
1, 164262, Note_on_c, 0, 80, 42
1, 164358, Note_on_c, 0, 80, 0
1, 164358, Note_on_c, 0, 78, 51
1, 164366, Control_c, 0, 64, 0
1, 164413, Control_c, 0, 64, 127
1, 164454, Note_on_c, 0, 78, 0
1, 164454, Note_on_c, 0, 80, 43
1, 164549, Note_on_c, 0, 80, 0
1, 164549, Note_on_c, 0, 81, 43
1, 164643, Note_on_c, 0, 81, 0
1, 164643, Note_on_c, 0, 80, 53
1, 164737, Note_on_c, 0, 80, 0
1, 164737, Note_on_c, 0, 82, 46
1, 164830, Note_on_c, 0, 82, 0
1, 164830, Note_on_c, 0, 84, 45
1, 164923, Note_on_c, 0, 84, 0
1, 164923, Note_on_c, 0, 85, 56
1, 165015, Note_on_c, 0, 85, 0
1, 165015, Note_on_c, 0, 87, 49
1, 165106, Note_on_c, 0, 87, 0
1, 165106, Note_on_c, 0, 88, 49
1, 165203, Note_on_c, 0, 88, 0
1, 165203, Note_on_c, 0, 90, 60
1, 165203, Note_on_c, 0, 52, 0
1, 165206, Note_on_c, 0, 56, 0
1, 165206, Note_on_c, 0, 61, 0
1, 165206, Note_on_c, 0, 49, 0
1, 165209, Note_on_c, 0, 56, 38
1, 165209, Note_on_c, 0, 60, 38
1, 165209, Note_on_c, 0, 51, 38
1, 165212, Note_on_c, 0, 49, 38
1, 165212, Control_c, 0, 64, 0
1, 165248, Control_c, 0, 64, 127
1, 165294, Note_on_c, 0, 90, 0
1, 165294, Note_on_c, 0, 88, 49
1, 165385, Note_on_c, 0, 88, 0
1, 165385, Note_on_c, 0, 87, 49
1, 165476, Note_on_c, 0, 87, 0
1, 165476, Note_on_c, 0, 88, 58
1, 165567, Note_on_c, 0, 88, 0
1, 165567, Note_on_c, 0, 87, 49
1, 165658, Note_on_c, 0, 87, 0
1, 165658, Note_on_c, 0, 85, 50
1, 165749, Note_on_c, 0, 85, 0
1, 165749, Note_on_c, 0, 87, 57
1, 165840, Note_on_c, 0, 87, 0
1, 165840, Note_on_c, 0, 85, 48
1, 165931, Note_on_c, 0, 85, 0
1, 165931, Note_on_c, 0, 84, 48
1, 166022, Note_on_c, 0, 84, 0
1, 166022, Note_on_c, 0, 85, 52
1, 166022, Note_on_c, 0, 51, 0
1, 166025, Note_on_c, 0, 54, 38
1, 166030, Control_c, 0, 64, 0
1, 166058, Control_c, 0, 64, 127
1, 166114, Note_on_c, 0, 85, 0
1, 166114, Note_on_c, 0, 83, 46
1, 166205, Note_on_c, 0, 83, 0
1, 166205, Note_on_c, 0, 81, 46
1, 166297, Note_on_c, 0, 81, 0
1, 166297, Note_on_c, 0, 83, 52
1, 166389, Note_on_c, 0, 83, 0
1, 166389, Note_on_c, 0, 81, 45
1, 166481, Note_on_c, 0, 81, 0
1, 166481, Note_on_c, 0, 80, 45
1, 166573, Note_on_c, 0, 80, 0
1, 166573, Note_on_c, 0, 78, 50
1, 166666, Note_on_c, 0, 78, 0
1, 166666, Note_on_c, 0, 76, 44
1, 166758, Note_on_c, 0, 76, 0
1, 166758, Note_on_c, 0, 75, 44
1, 166857, Note_on_c, 0, 75, 0
1, 166857, Note_on_c, 0, 73, 50
1, 166857, Note_on_c, 0, 54, 0
1, 166860, Note_on_c, 0, 60, 0
1, 166860, Note_on_c, 0, 52, 39
1, 166860, Note_on_c, 0, 61, 39
1, 166860, Control_c, 0, 64, 0
1, 166948, Note_on_c, 0, 73, 0
1, 166948, Note_on_c, 0, 75, 45
1, 167039, Note_on_c, 0, 75, 0
1, 167039, Note_on_c, 0, 76, 45
1, 167131, Note_on_c, 0, 76, 0
1, 167131, Note_on_c, 0, 75, 55
1, 167131, Note_on_c, 0, 61, 0
1, 167134, Note_on_c, 0, 49, 0
1, 167134, Note_on_c, 0, 56, 0
1, 167134, Note_on_c, 0, 52, 0
1, 167222, Note_on_c, 0, 75, 0
1, 167222, Note_on_c, 0, 76, 47
1, 167313, Note_on_c, 0, 76, 0
1, 167313, Note_on_c, 0, 78, 47
1, 167405, Note_on_c, 0, 78, 0
1, 167405, Note_on_c, 0, 76, 57
1, 167496, Note_on_c, 0, 76, 0
1, 167496, Note_on_c, 0, 78, 49
1, 167587, Note_on_c, 0, 78, 0
1, 167587, Note_on_c, 0, 80, 48
1, 167679, Note_on_c, 0, 80, 0
1, 167679, Note_on_c, 0, 81, 63
1, 167679, Note_on_c, 0, 60, 50
1, 167771, Note_on_c, 0, 60, 0
1, 167771, Note_on_c, 0, 61, 45
1, 167862, Note_on_c, 0, 61, 0
1, 167862, Note_on_c, 0, 63, 45
1, 167953, Note_on_c, 0, 63, 0
1, 167953, Note_on_c, 0, 61, 51
1, 168045, Note_on_c, 0, 61, 0
1, 168045, Note_on_c, 0, 63, 47
1, 168136, Note_on_c, 0, 63, 0
1, 168136, Note_on_c, 0, 64, 47
1, 168227, Note_on_c, 0, 81, 0
1, 168227, Note_on_c, 0, 80, 58
1, 168227, Note_on_c, 0, 64, 0
1, 168230, Note_on_c, 0, 66, 52
1, 168263, Control_c, 0, 64, 127
1, 168319, Note_on_c, 0, 66, 0
1, 168319, Note_on_c, 0, 64, 47
1, 168410, Note_on_c, 0, 64, 0
1, 168410, Note_on_c, 0, 63, 47
1, 168504, Note_on_c, 0, 80, 0
1, 168504, Note_on_c, 0, 73, 50
1, 168504, Note_on_c, 0, 63, 0
1, 168507, Note_on_c, 0, 64, 55
1, 168507, Control_c, 0, 64, 0
1, 168595, Note_on_c, 0, 73, 0
1, 168595, Note_on_c, 0, 75, 45
1, 168686, Note_on_c, 0, 75, 0
1, 168686, Note_on_c, 0, 76, 45
1, 168778, Note_on_c, 0, 76, 0
1, 168778, Note_on_c, 0, 75, 56
1, 168869, Note_on_c, 0, 75, 0
1, 168869, Note_on_c, 0, 76, 47
1, 168960, Note_on_c, 0, 76, 0
1, 168960, Note_on_c, 0, 78, 47
1, 169052, Note_on_c, 0, 78, 0
1, 169052, Note_on_c, 0, 76, 58
1, 169052, Note_on_c, 0, 64, 0
1, 169055, Note_on_c, 0, 61, 47
1, 169143, Note_on_c, 0, 76, 0
1, 169143, Note_on_c, 0, 78, 49
1, 169235, Note_on_c, 0, 78, 0
1, 169235, Note_on_c, 0, 80, 48
1, 169328, Note_on_c, 0, 80, 0
1, 169328, Note_on_c, 0, 81, 63
1, 169328, Note_on_c, 0, 61, 0
1, 169331, Note_on_c, 0, 60, 50
1, 169419, Note_on_c, 0, 60, 0
1, 169419, Note_on_c, 0, 61, 45
1, 169510, Note_on_c, 0, 61, 0
1, 169510, Note_on_c, 0, 63, 45
1, 169602, Note_on_c, 0, 63, 0
1, 169602, Note_on_c, 0, 61, 51
1, 169693, Note_on_c, 0, 61, 0
1, 169693, Note_on_c, 0, 63, 47
1, 169785, Note_on_c, 0, 63, 0
1, 169785, Note_on_c, 0, 64, 47
1, 169876, Note_on_c, 0, 81, 0
1, 169876, Note_on_c, 0, 80, 58
1, 169876, Note_on_c, 0, 64, 0
1, 169879, Note_on_c, 0, 66, 52
1, 169892, Control_c, 0, 64, 127
1, 169967, Note_on_c, 0, 66, 0
1, 169967, Note_on_c, 0, 64, 47
1, 170059, Note_on_c, 0, 64, 0
1, 170059, Note_on_c, 0, 63, 47
1, 170152, Note_on_c, 0, 80, 0
1, 170152, Note_on_c, 0, 76, 56
1, 170152, Note_on_c, 0, 63, 0
1, 170155, Note_on_c, 0, 64, 55
1, 170155, Control_c, 0, 64, 0
1, 170243, Note_on_c, 0, 76, 0
1, 170243, Note_on_c, 0, 78, 48
1, 170334, Note_on_c, 0, 78, 0
1, 170334, Note_on_c, 0, 79, 48
1, 170426, Note_on_c, 0, 79, 0
1, 170426, Note_on_c, 0, 78, 61
1, 170517, Note_on_c, 0, 78, 0
1, 170517, Note_on_c, 0, 79, 50
1, 170608, Note_on_c, 0, 79, 0
1, 170608, Note_on_c, 0, 81, 50
1, 170700, Note_on_c, 0, 81, 0
1, 170700, Note_on_c, 0, 79, 62
1, 170792, Note_on_c, 0, 79, 0
1, 170792, Note_on_c, 0, 81, 52
1, 170885, Note_on_c, 0, 81, 0
1, 170885, Note_on_c, 0, 83, 51
1, 170979, Note_on_c, 0, 83, 0
1, 170979, Note_on_c, 0, 84, 68
1, 170979, Note_on_c, 0, 64, 0
1, 170982, Note_on_c, 0, 63, 50
1, 171071, Note_on_c, 0, 63, 0
1, 171071, Note_on_c, 0, 64, 45
1, 171162, Note_on_c, 0, 64, 0
1, 171162, Note_on_c, 0, 66, 45
1, 171253, Note_on_c, 0, 66, 0
1, 171253, Note_on_c, 0, 64, 51
1, 171345, Note_on_c, 0, 64, 0
1, 171345, Note_on_c, 0, 66, 47
1, 171436, Note_on_c, 0, 66, 0
1, 171436, Note_on_c, 0, 67, 47
1, 171527, Note_on_c, 0, 84, 0
1, 171527, Note_on_c, 0, 83, 62
1, 171527, Note_on_c, 0, 67, 0
1, 171530, Note_on_c, 0, 69, 52
1, 171554, Control_c, 0, 64, 127
1, 171620, Note_on_c, 0, 69, 0
1, 171620, Note_on_c, 0, 67, 47
1, 171712, Note_on_c, 0, 67, 0
1, 171712, Note_on_c, 0, 66, 47
1, 171806, Note_on_c, 0, 86, 84
1, 171806, Note_on_c, 0, 66, 0
1, 171806, Control_c, 0, 64, 0
1, 171809, Note_on_c, 0, 65, 50
1, 171812, Note_on_c, 0, 83, 0
1, 171897, Note_on_c, 0, 65, 0
1, 171897, Note_on_c, 0, 66, 45
1, 171989, Note_on_c, 0, 66, 0
1, 171989, Note_on_c, 0, 68, 45
1, 172080, Note_on_c, 0, 68, 0
1, 172080, Note_on_c, 0, 66, 51
1, 172172, Note_on_c, 0, 66, 0
1, 172172, Note_on_c, 0, 68, 47
1, 172263, Note_on_c, 0, 68, 0
1, 172263, Note_on_c, 0, 69, 47
1, 172354, Note_on_c, 0, 86, 0
1, 172354, Note_on_c, 0, 85, 73
1, 172354, Note_on_c, 0, 69, 0
1, 172357, Note_on_c, 0, 71, 52
1, 172400, Control_c, 0, 64, 127
1, 172447, Note_on_c, 0, 71, 0
1, 172447, Note_on_c, 0, 69, 47
1, 172539, Note_on_c, 0, 69, 0
1, 172539, Note_on_c, 0, 68, 47
1, 172633, Note_on_c, 0, 85, 0
1, 172633, Note_on_c, 0, 78, 68
1, 172633, Note_on_c, 0, 68, 0
1, 172636, Note_on_c, 0, 66, 52
1, 172636, Control_c, 0, 64, 0
1, 172725, Note_on_c, 0, 78, 0
1, 172725, Note_on_c, 0, 80, 60
1, 172816, Note_on_c, 0, 80, 0
1, 172816, Note_on_c, 0, 81, 60
1, 172907, Note_on_c, 0, 81, 0
1, 172907, Note_on_c, 0, 80, 70
1, 172907, Note_on_c, 0, 66, 0
1, 172999, Note_on_c, 0, 80, 0
1, 172999, Note_on_c, 0, 81, 58
1, 173090, Note_on_c, 0, 81, 0
1, 173090, Note_on_c, 0, 83, 58
1, 173181, Note_on_c, 0, 83, 0
1, 173181, Note_on_c, 0, 79, 72
1, 173181, Note_on_c, 0, 85, 72
1, 173184, Note_on_c, 0, 64, 49
1, 173204, Control_c, 0, 64, 127
1, 173273, Note_on_c, 0, 64, 0
1, 173273, Note_on_c, 0, 70, 46
1, 173365, Note_on_c, 0, 70, 0
1, 173365, Note_on_c, 0, 64, 46
1, 173459, Note_on_c, 0, 85, 0
1, 173459, Note_on_c, 0, 79, 0
1, 173459, Note_on_c, 0, 90, 67
1, 173462, Note_on_c, 0, 78, 67
1, 173462, Note_on_c, 0, 64, 0
1, 173462, Note_on_c, 0, 63, 50
1, 173465, Note_on_c, 0, 71, 50
1, 173465, Control_c, 0, 64, 0
1, 173492, Control_c, 0, 64, 127
1, 173551, Note_on_c, 0, 71, 0
1, 173551, Note_on_c, 0, 63, 0
1, 173551, Note_on_c, 0, 64, 45
1, 173560, Control_c, 0, 64, 0
1, 173596, Note_on_c, 0, 78, 0
1, 173596, Note_on_c, 0, 90, 0
1, 173642, Note_on_c, 0, 64, 0
1, 173642, Note_on_c, 0, 66, 45
1, 173733, Note_on_c, 0, 66, 0
1, 173733, Note_on_c, 0, 64, 51
1, 173825, Note_on_c, 0, 64, 0
1, 173825, Note_on_c, 0, 66, 47
1, 173913, Note_on_c, 0, 67, 47
1, 173916, Note_on_c, 0, 66, 0
1, 174004, Note_on_c, 0, 67, 0
1, 174007, Note_on_c, 0, 78, 74
1, 174007, Note_on_c, 0, 75, 51
1, 174007, Note_on_c, 0, 69, 51
1, 174037, Control_c, 0, 64, 127
1, 174100, Note_on_c, 0, 78, 0
1, 174100, Note_on_c, 0, 83, 65
1, 174192, Note_on_c, 0, 83, 0
1, 174192, Note_on_c, 0, 78, 65
1, 174286, Note_on_c, 0, 78, 0
1, 174286, Note_on_c, 0, 88, 73
1, 174286, Note_on_c, 0, 76, 73
1, 174289, Note_on_c, 0, 69, 0
1, 174289, Note_on_c, 0, 75, 0
1, 174289, Note_on_c, 0, 68, 51
1, 174289, Control_c, 0, 64, 0
1, 174324, Control_c, 0, 64, 127
1, 174377, Note_on_c, 0, 76, 0
1, 174377, Note_on_c, 0, 78, 60
1, 174386, Control_c, 0, 64, 0
1, 174423, Note_on_c, 0, 88, 0
1, 174423, Note_on_c, 0, 68, 0
1, 174468, Note_on_c, 0, 78, 0
1, 174468, Note_on_c, 0, 80, 60
1, 174560, Note_on_c, 0, 80, 0
1, 174560, Note_on_c, 0, 78, 67
1, 174651, Note_on_c, 0, 78, 0
1, 174651, Note_on_c, 0, 80, 58
1, 174742, Note_on_c, 0, 80, 0
1, 174742, Note_on_c, 0, 81, 58
1, 174834, Note_on_c, 0, 81, 0
1, 174834, Note_on_c, 0, 77, 75
1, 174834, Note_on_c, 0, 83, 75
1, 174837, Note_on_c, 0, 62, 50
1, 174857, Control_c, 0, 64, 127
1, 174926, Note_on_c, 0, 62, 0
1, 174926, Note_on_c, 0, 68, 47
1, 175018, Note_on_c, 0, 68, 0
1, 175018, Note_on_c, 0, 62, 47
1, 175112, Note_on_c, 0, 83, 0
1, 175112, Note_on_c, 0, 77, 0
1, 175112, Note_on_c, 0, 76, 74
1, 175115, Note_on_c, 0, 88, 74
1, 175115, Note_on_c, 0, 62, 0
1, 175115, Note_on_c, 0, 61, 50
1, 175118, Note_on_c, 0, 69, 50
1, 175118, Control_c, 0, 64, 0
1, 175144, Control_c, 0, 64, 127
1, 175203, Note_on_c, 0, 69, 0
1, 175203, Note_on_c, 0, 61, 0
1, 175203, Note_on_c, 0, 62, 45
1, 175249, Note_on_c, 0, 88, 0
1, 175249, Note_on_c, 0, 76, 0
1, 175275, Control_c, 0, 64, 0
1, 175294, Note_on_c, 0, 62, 0
1, 175294, Note_on_c, 0, 64, 45
1, 175386, Note_on_c, 0, 64, 0
1, 175386, Note_on_c, 0, 62, 51
1, 175477, Note_on_c, 0, 62, 0
1, 175477, Note_on_c, 0, 64, 47
1, 175568, Note_on_c, 0, 64, 0
1, 175568, Note_on_c, 0, 66, 47
1, 175660, Note_on_c, 0, 76, 75
1, 175660, Note_on_c, 0, 66, 0
1, 175660, Note_on_c, 0, 67, 51
1, 175663, Note_on_c, 0, 73, 51
1, 175686, Control_c, 0, 64, 127
1, 175752, Note_on_c, 0, 76, 0
1, 175752, Note_on_c, 0, 81, 65
1, 175845, Note_on_c, 0, 81, 0
1, 175845, Note_on_c, 0, 76, 65
1, 175940, Note_on_c, 0, 76, 0
1, 175940, Note_on_c, 0, 74, 76
1, 175940, Note_on_c, 0, 86, 76
1, 175943, Note_on_c, 0, 73, 0
1, 175943, Note_on_c, 0, 67, 0
1, 175943, Note_on_c, 0, 66, 51
1, 175943, Control_c, 0, 64, 0
1, 175979, Control_c, 0, 64, 127
1, 176032, Note_on_c, 0, 74, 0
1, 176032, Note_on_c, 0, 76, 60
1, 176041, Control_c, 0, 64, 0
1, 176077, Note_on_c, 0, 86, 0
1, 176077, Note_on_c, 0, 66, 0
1, 176123, Note_on_c, 0, 76, 0
1, 176123, Note_on_c, 0, 78, 60
1, 176214, Note_on_c, 0, 78, 0
1, 176214, Note_on_c, 0, 76, 67
1, 176306, Note_on_c, 0, 76, 0
1, 176306, Note_on_c, 0, 78, 58
1, 176397, Note_on_c, 0, 78, 0
1, 176397, Note_on_c, 0, 79, 58
1, 176489, Note_on_c, 0, 79, 0
1, 176489, Note_on_c, 0, 81, 79
1, 176489, Note_on_c, 0, 74, 79
1, 176492, Note_on_c, 0, 86, 79
1, 176492, Note_on_c, 0, 65, 51
1, 176512, Control_c, 0, 64, 127
1, 176581, Note_on_c, 0, 65, 0
1, 176581, Note_on_c, 0, 69, 47
1, 176674, Note_on_c, 0, 69, 0
1, 176674, Note_on_c, 0, 65, 47
1, 176768, Note_on_c, 0, 81, 0
1, 176768, Note_on_c, 0, 80, 77
1, 176768, Note_on_c, 0, 65, 0
1, 176771, Note_on_c, 0, 64, 50
1, 176771, Control_c, 0, 64, 0
1, 176801, Control_c, 0, 64, 127
1, 176859, Note_on_c, 0, 64, 0
1, 176859, Note_on_c, 0, 66, 45
1, 176859, Control_c, 0, 64, 0
1, 176951, Note_on_c, 0, 66, 0
1, 176951, Note_on_c, 0, 68, 45
1, 177042, Note_on_c, 0, 80, 0
1, 177042, Note_on_c, 0, 86, 0
1, 177042, Note_on_c, 0, 74, 0
1, 177045, Note_on_c, 0, 68, 0
1, 177045, Note_on_c, 0, 66, 51
1, 177133, Note_on_c, 0, 66, 0
1, 177133, Note_on_c, 0, 68, 47
1, 177225, Note_on_c, 0, 68, 0
1, 177225, Note_on_c, 0, 69, 47
1, 177316, Note_on_c, 0, 81, 75
1, 177316, Note_on_c, 0, 69, 0
1, 177316, Note_on_c, 0, 65, 51
1, 177319, Note_on_c, 0, 71, 51
1, 177319, Note_on_c, 0, 74, 51
1, 177343, Control_c, 0, 64, 127
1, 177409, Note_on_c, 0, 81, 0
1, 177409, Note_on_c, 0, 86, 65
1, 177502, Note_on_c, 0, 86, 0
1, 177502, Note_on_c, 0, 81, 66
1, 177597, Note_on_c, 0, 81, 0
1, 177597, Note_on_c, 0, 80, 75
1, 177597, Note_on_c, 0, 65, 0
1, 177600, Note_on_c, 0, 64, 51
1, 177600, Control_c, 0, 64, 0
1, 177688, Note_on_c, 0, 80, 0
1, 177688, Note_on_c, 0, 81, 63
1, 177780, Note_on_c, 0, 81, 0
1, 177780, Note_on_c, 0, 83, 63
1, 177871, Note_on_c, 0, 83, 0
1, 177871, Note_on_c, 0, 81, 72
1, 177871, Note_on_c, 0, 64, 0
1, 177874, Note_on_c, 0, 74, 0
1, 177874, Note_on_c, 0, 71, 0
1, 177962, Note_on_c, 0, 81, 0
1, 177962, Note_on_c, 0, 83, 62
1, 178054, Note_on_c, 0, 83, 0
1, 178054, Note_on_c, 0, 84, 62
1, 178145, Note_on_c, 0, 84, 0
1, 178145, Note_on_c, 0, 81, 79
1, 178145, Note_on_c, 0, 74, 79
1, 178148, Note_on_c, 0, 86, 79
1, 178148, Note_on_c, 0, 65, 49
1, 178168, Control_c, 0, 64, 127
1, 178238, Note_on_c, 0, 65, 0
1, 178238, Note_on_c, 0, 69, 47
1, 178331, Note_on_c, 0, 69, 0
1, 178331, Note_on_c, 0, 65, 48
1, 178425, Note_on_c, 0, 81, 0
1, 178425, Note_on_c, 0, 80, 78
1, 178425, Note_on_c, 0, 65, 0
1, 178428, Note_on_c, 0, 64, 50
1, 178428, Control_c, 0, 64, 0
1, 178458, Control_c, 0, 64, 127
1, 178517, Note_on_c, 0, 64, 0
1, 178517, Control_c, 0, 64, 0
1, 178517, Note_on_c, 0, 66, 45
1, 178608, Note_on_c, 0, 66, 0
1, 178608, Note_on_c, 0, 68, 45
1, 178699, Note_on_c, 0, 80, 0
1, 178699, Note_on_c, 0, 86, 0
1, 178699, Note_on_c, 0, 74, 0
1, 178702, Note_on_c, 0, 68, 0
1, 178702, Note_on_c, 0, 66, 51
1, 178791, Note_on_c, 0, 66, 0
1, 178791, Note_on_c, 0, 68, 47
1, 178882, Note_on_c, 0, 68, 0
1, 178882, Note_on_c, 0, 69, 47
1, 178973, Note_on_c, 0, 81, 75
1, 178973, Note_on_c, 0, 69, 0
1, 178973, Note_on_c, 0, 71, 51
1, 178976, Note_on_c, 0, 74, 51
1, 178976, Note_on_c, 0, 65, 51
1, 179000, Control_c, 0, 64, 127
1, 179066, Note_on_c, 0, 81, 0
1, 179066, Note_on_c, 0, 86, 67
1, 179158, Note_on_c, 0, 86, 0
1, 179158, Note_on_c, 0, 81, 67
1, 179252, Note_on_c, 0, 81, 0
1, 179252, Note_on_c, 0, 80, 74
1, 179252, Note_on_c, 0, 65, 0
1, 179255, Note_on_c, 0, 64, 51
1, 179255, Control_c, 0, 64, 0
1, 179343, Note_on_c, 0, 80, 0
1, 179343, Note_on_c, 0, 81, 60
1, 179435, Note_on_c, 0, 81, 0
1, 179435, Note_on_c, 0, 83, 60
1, 179526, Note_on_c, 0, 83, 0
1, 179526, Note_on_c, 0, 81, 67
1, 179526, Note_on_c, 0, 64, 0
1, 179529, Note_on_c, 0, 74, 0
1, 179529, Note_on_c, 0, 71, 0
1, 179617, Note_on_c, 0, 81, 0
1, 179617, Note_on_c, 0, 83, 58
1, 179709, Note_on_c, 0, 83, 0
1, 179709, Note_on_c, 0, 84, 58
1, 179800, Note_on_c, 0, 84, 0
1, 179800, Note_on_c, 0, 81, 78
1, 179800, Note_on_c, 0, 74, 78
1, 179803, Note_on_c, 0, 86, 78
1, 179803, Note_on_c, 0, 65, 55
1, 179823, Control_c, 0, 64, 127
1, 179892, Note_on_c, 0, 65, 0
1, 179892, Note_on_c, 0, 69, 48
1, 179984, Note_on_c, 0, 69, 0
1, 179984, Note_on_c, 0, 65, 48
1, 180077, Note_on_c, 0, 81, 0
1, 180077, Note_on_c, 0, 80, 77
1, 180077, Note_on_c, 0, 65, 0
1, 180080, Note_on_c, 0, 64, 55
1, 180080, Control_c, 0, 64, 0
1, 180109, Control_c, 0, 64, 127
1, 180168, Note_on_c, 0, 64, 0
1, 180168, Control_c, 0, 64, 0
1, 180168, Note_on_c, 0, 66, 46
1, 180259, Note_on_c, 0, 66, 0
1, 180259, Note_on_c, 0, 68, 46
1, 180349, Note_on_c, 0, 80, 0
1, 180349, Note_on_c, 0, 86, 0
1, 180349, Note_on_c, 0, 74, 0
1, 180352, Note_on_c, 0, 68, 0
1, 180352, Note_on_c, 0, 66, 56
1, 180440, Note_on_c, 0, 66, 0
1, 180440, Note_on_c, 0, 68, 47
1, 180530, Note_on_c, 0, 68, 0
1, 180530, Note_on_c, 0, 69, 47
1, 180620, Note_on_c, 0, 69, 0
1, 180620, Note_on_c, 0, 68, 57
1, 180710, Note_on_c, 0, 68, 0
1, 180710, Note_on_c, 0, 69, 51
1, 180800, Note_on_c, 0, 69, 0
1, 180800, Note_on_c, 0, 71, 52
1, 180890, Note_on_c, 0, 69, 60
1, 180890, Note_on_c, 0, 71, 0
1, 180980, Note_on_c, 0, 69, 0
1, 180980, Note_on_c, 0, 71, 56
1, 181070, Note_on_c, 0, 71, 0
1, 181070, Note_on_c, 0, 72, 56
1, 181159, Note_on_c, 0, 72, 0
1, 181159, Note_on_c, 0, 71, 60
1, 181249, Note_on_c, 0, 71, 0
1, 181249, Note_on_c, 0, 72, 56
1, 181339, Note_on_c, 0, 72, 0
1, 181339, Note_on_c, 0, 74, 56
1, 181430, Note_on_c, 0, 74, 0
1, 181430, Note_on_c, 0, 76, 75
1, 181430, Note_on_c, 0, 64, 60
1, 181459, Control_c, 0, 64, 127
1, 181520, Note_on_c, 0, 64, 0
1, 181520, Note_on_c, 0, 66, 54
1, 181609, Note_on_c, 0, 66, 0
1, 181609, Note_on_c, 0, 68, 54
1, 181699, Note_on_c, 0, 76, 0
1, 181699, Note_on_c, 0, 69, 60
1, 181699, Note_on_c, 0, 68, 0
1, 181702, Note_on_c, 0, 66, 62
1, 181702, Control_c, 0, 64, 0
1, 181788, Note_on_c, 0, 69, 0
1, 181788, Note_on_c, 0, 71, 55
1, 181788, Note_on_c, 0, 66, 0
1, 181791, Note_on_c, 0, 68, 55
1, 181877, Note_on_c, 0, 71, 0
1, 181877, Note_on_c, 0, 72, 55
1, 181877, Note_on_c, 0, 68, 0
1, 181880, Note_on_c, 0, 69, 55
1, 181967, Note_on_c, 0, 72, 0
1, 181967, Note_on_c, 0, 71, 80
1, 181967, Note_on_c, 0, 69, 0
1, 182056, Note_on_c, 0, 72, 54
1, 182145, Note_on_c, 0, 72, 0
1, 182145, Note_on_c, 0, 74, 54
1, 182238, Note_on_c, 0, 74, 0
1, 182238, Note_on_c, 0, 71, 0
1, 182238, Note_on_c, 0, 76, 75
1, 182241, Note_on_c, 0, 64, 60
1, 182266, Control_c, 0, 64, 127
1, 182327, Note_on_c, 0, 64, 0
1, 182327, Note_on_c, 0, 66, 56
1, 182417, Note_on_c, 0, 66, 0
1, 182417, Note_on_c, 0, 68, 56
1, 182509, Note_on_c, 0, 76, 0
1, 182509, Note_on_c, 0, 69, 60
1, 182509, Note_on_c, 0, 68, 0
1, 182512, Note_on_c, 0, 66, 60
1, 182512, Control_c, 0, 64, 0
1, 182598, Note_on_c, 0, 69, 0
1, 182598, Note_on_c, 0, 71, 55
1, 182598, Note_on_c, 0, 66, 0
1, 182601, Note_on_c, 0, 68, 55
1, 182688, Note_on_c, 0, 71, 0
1, 182688, Note_on_c, 0, 72, 55
1, 182688, Note_on_c, 0, 68, 0
1, 182691, Note_on_c, 0, 69, 55
1, 182779, Note_on_c, 0, 72, 0
1, 182779, Note_on_c, 0, 71, 76
1, 182779, Note_on_c, 0, 69, 0
1, 182868, Note_on_c, 0, 72, 55
1, 182958, Note_on_c, 0, 72, 0
1, 182958, Note_on_c, 0, 74, 55
1, 183049, Note_on_c, 0, 74, 0
1, 183049, Note_on_c, 0, 71, 0
1, 183049, Note_on_c, 0, 72, 60
1, 183052, Note_on_c, 0, 69, 60
1, 183138, Note_on_c, 0, 72, 0
1, 183138, Note_on_c, 0, 74, 58
1, 183138, Note_on_c, 0, 69, 0
1, 183141, Note_on_c, 0, 71, 60
1, 183228, Note_on_c, 0, 74, 0
1, 183228, Note_on_c, 0, 76, 60
1, 183228, Note_on_c, 0, 71, 0
1, 183231, Note_on_c, 0, 72, 61
1, 183317, Note_on_c, 0, 76, 0
1, 183317, Note_on_c, 0, 77, 60
1, 183317, Note_on_c, 0, 72, 0
1, 183320, Note_on_c, 0, 74, 62
1, 183407, Note_on_c, 0, 77, 0
1, 183407, Note_on_c, 0, 79, 64
1, 183407, Note_on_c, 0, 74, 0
1, 183410, Note_on_c, 0, 76, 63
1, 183497, Note_on_c, 0, 79, 0
1, 183497, Note_on_c, 0, 81, 68
1, 183497, Note_on_c, 0, 76, 0
1, 183500, Note_on_c, 0, 77, 66
1, 183587, Note_on_c, 0, 81, 0
1, 183587, Note_on_c, 0, 79, 71
1, 183587, Note_on_c, 0, 77, 0
1, 183590, Note_on_c, 0, 76, 70
1, 183677, Note_on_c, 0, 79, 0
1, 183677, Note_on_c, 0, 77, 66
1, 183677, Note_on_c, 0, 76, 0
1, 183680, Note_on_c, 0, 74, 65
1, 183766, Note_on_c, 0, 77, 0
1, 183766, Note_on_c, 0, 76, 63
1, 183766, Note_on_c, 0, 74, 0
1, 183769, Note_on_c, 0, 72, 61
1, 183856, Note_on_c, 0, 76, 0
1, 183856, Note_on_c, 0, 74, 65
1, 183856, Note_on_c, 0, 72, 0
1, 183859, Note_on_c, 0, 71, 65
1, 183946, Note_on_c, 0, 74, 0
1, 183946, Note_on_c, 0, 72, 62
1, 183946, Note_on_c, 0, 71, 0
1, 183949, Note_on_c, 0, 69, 62
1, 184036, Note_on_c, 0, 72, 0
1, 184036, Note_on_c, 0, 71, 58
1, 184036, Note_on_c, 0, 69, 0
1, 184039, Note_on_c, 0, 67, 60
1, 184131, Note_on_c, 0, 71, 0
1, 184131, Note_on_c, 0, 69, 66
1, 184131, Note_on_c, 0, 67, 0
1, 184134, Note_on_c, 0, 65, 69
1, 184225, Note_on_c, 0, 69, 0
1, 184225, Note_on_c, 0, 71, 60
1, 184236, Note_on_c, 0, 65, 0
1, 184318, Note_on_c, 0, 71, 0
1, 184318, Note_on_c, 0, 72, 60
1, 184411, Note_on_c, 0, 72, 0
1, 184411, Note_on_c, 0, 71, 63
1, 184411, Note_on_c, 0, 60, 66
1, 184503, Note_on_c, 0, 71, 0
1, 184503, Note_on_c, 0, 69, 58
1, 184515, Note_on_c, 0, 60, 0
1, 184595, Note_on_c, 0, 69, 0
1, 184595, Note_on_c, 0, 67, 58
1, 184688, Note_on_c, 0, 67, 0
1, 184688, Note_on_c, 0, 65, 63
1, 184688, Note_on_c, 0, 57, 60
1, 184710, Control_c, 0, 64, 127
1, 184780, Note_on_c, 0, 65, 0
1, 184780, Note_on_c, 0, 64, 57
1, 184873, Note_on_c, 0, 64, 0
1, 184873, Note_on_c, 0, 63, 57
1, 184967, Note_on_c, 0, 63, 0
1, 184967, Note_on_c, 0, 64, 67
1, 184967, Note_on_c, 0, 57, 0
1, 184970, Note_on_c, 0, 56, 63
1, 184970, Control_c, 0, 64, 0
1, 185058, Note_on_c, 0, 56, 0
1, 185058, Note_on_c, 0, 54, 58
1, 185149, Note_on_c, 0, 54, 0
1, 185149, Note_on_c, 0, 52, 58
1, 185239, Note_on_c, 0, 64, 0
1, 185239, Note_on_c, 0, 52, 0
1, 185239, Note_on_c, 0, 51, 62
1, 185329, Note_on_c, 0, 51, 0
1, 185329, Note_on_c, 0, 49, 57
1, 185420, Note_on_c, 0, 49, 0
1, 185420, Note_on_c, 0, 47, 58
1, 185512, Note_on_c, 0, 59, 60
1, 185512, Note_on_c, 0, 47, 0
1, 185512, Note_on_c, 0, 57, 74
1, 185602, Note_on_c, 0, 59, 0
1, 185602, Note_on_c, 0, 61, 55
1, 185691, Note_on_c, 0, 61, 0
1, 185691, Note_on_c, 0, 63, 55
1, 185781, Note_on_c, 0, 63, 0
1, 185781, Note_on_c, 0, 64, 64
1, 185781, Note_on_c, 0, 57, 0
1, 185784, Note_on_c, 0, 56, 64
1, 185872, Note_on_c, 0, 64, 0
1, 185872, Note_on_c, 0, 66, 59
1, 185872, Note_on_c, 0, 56, 0
1, 185875, Note_on_c, 0, 54, 59
1, 185963, Note_on_c, 0, 66, 0
1, 185963, Note_on_c, 0, 68, 59
1, 185963, Note_on_c, 0, 54, 0
1, 185966, Note_on_c, 0, 52, 59
1, 186055, Note_on_c, 0, 68, 0
1, 186055, Note_on_c, 0, 69, 69
1, 186055, Note_on_c, 0, 52, 0
1, 186058, Note_on_c, 0, 51, 63
1, 186071, Control_c, 0, 64, 127
1, 186144, Note_on_c, 0, 51, 0
1, 186144, Note_on_c, 0, 49, 57
1, 186234, Note_on_c, 0, 49, 0
1, 186234, Note_on_c, 0, 47, 57
1, 186326, Note_on_c, 0, 69, 0
1, 186326, Note_on_c, 0, 59, 60
1, 186326, Note_on_c, 0, 47, 0
1, 186329, Note_on_c, 0, 57, 74
1, 186329, Control_c, 0, 64, 0
1, 186415, Note_on_c, 0, 59, 0
1, 186415, Note_on_c, 0, 61, 55
1, 186504, Note_on_c, 0, 61, 0
1, 186504, Note_on_c, 0, 63, 55
1, 186594, Note_on_c, 0, 63, 0
1, 186594, Note_on_c, 0, 64, 64
1, 186594, Note_on_c, 0, 57, 0
1, 186597, Note_on_c, 0, 56, 64
1, 186684, Note_on_c, 0, 64, 0
1, 186684, Note_on_c, 0, 66, 58
1, 186684, Note_on_c, 0, 56, 0
1, 186687, Note_on_c, 0, 54, 57
1, 186774, Note_on_c, 0, 66, 0
1, 186774, Note_on_c, 0, 68, 58
1, 186774, Note_on_c, 0, 54, 0
1, 186777, Note_on_c, 0, 52, 57
1, 186867, Note_on_c, 0, 68, 0
1, 186867, Note_on_c, 0, 69, 68
1, 186867, Note_on_c, 0, 52, 0
1, 186870, Note_on_c, 0, 51, 62
1, 186889, Control_c, 0, 64, 127
1, 186956, Note_on_c, 0, 51, 0
1, 186956, Note_on_c, 0, 49, 54
1, 187045, Note_on_c, 0, 49, 0
1, 187045, Note_on_c, 0, 47, 54
1, 187137, Note_on_c, 0, 69, 0
1, 187137, Note_on_c, 0, 59, 60
1, 187137, Note_on_c, 0, 47, 0
1, 187140, Note_on_c, 0, 57, 74
1, 187140, Control_c, 0, 64, 0
1, 187227, Note_on_c, 0, 59, 0
1, 187227, Note_on_c, 0, 61, 56
1, 187316, Note_on_c, 0, 61, 0
1, 187316, Note_on_c, 0, 63, 56
1, 187406, Note_on_c, 0, 63, 0
1, 187406, Note_on_c, 0, 64, 64
1, 187406, Note_on_c, 0, 57, 0
1, 187409, Note_on_c, 0, 56, 60
1, 187428, Control_c, 0, 64, 127
1, 187496, Note_on_c, 0, 64, 0
1, 187496, Note_on_c, 0, 66, 57
1, 187496, Note_on_c, 0, 56, 0
1, 187499, Note_on_c, 0, 54, 53
1, 187586, Note_on_c, 0, 66, 0
1, 187586, Note_on_c, 0, 68, 57
1, 187586, Note_on_c, 0, 54, 0
1, 187589, Note_on_c, 0, 52, 53
1, 187678, Note_on_c, 0, 68, 0
1, 187678, Note_on_c, 0, 66, 70
1, 187678, Note_on_c, 0, 52, 0
1, 187681, Note_on_c, 0, 54, 62
1, 187684, Control_c, 0, 64, 0
1, 187704, Control_c, 0, 64, 127
1, 187768, Note_on_c, 0, 66, 0
1, 187768, Note_on_c, 0, 68, 63
1, 187768, Note_on_c, 0, 54, 0
1, 187771, Note_on_c, 0, 52, 54
1, 187857, Note_on_c, 0, 68, 0
1, 187857, Note_on_c, 0, 69, 63
1, 187857, Note_on_c, 0, 52, 0
1, 187860, Note_on_c, 0, 51, 54
1, 187949, Note_on_c, 0, 69, 0
1, 187949, Note_on_c, 0, 68, 74
1, 187949, Note_on_c, 0, 51, 0
1, 187952, Note_on_c, 0, 52, 62
1, 187955, Control_c, 0, 64, 0
1, 187987, Control_c, 0, 64, 127
1, 188038, Note_on_c, 0, 68, 0
1, 188038, Note_on_c, 0, 69, 68
1, 188038, Note_on_c, 0, 52, 0
1, 188041, Note_on_c, 0, 51, 57
1, 188128, Note_on_c, 0, 69, 0
1, 188128, Note_on_c, 0, 71, 70
1, 188128, Note_on_c, 0, 51, 0
1, 188131, Note_on_c, 0, 50, 57
1, 188219, Note_on_c, 0, 71, 0
1, 188219, Note_on_c, 0, 69, 78
1, 188219, Note_on_c, 0, 50, 0
1, 188222, Note_on_c, 0, 52, 66
1, 188222, Control_c, 0, 64, 0
1, 188274, Control_c, 0, 64, 127
1, 188308, Note_on_c, 0, 69, 0
1, 188308, Note_on_c, 0, 71, 70
1, 188308, Note_on_c, 0, 52, 0
1, 188311, Note_on_c, 0, 50, 62
1, 188397, Note_on_c, 0, 71, 0
1, 188397, Note_on_c, 0, 72, 73
1, 188397, Note_on_c, 0, 50, 0
1, 188400, Note_on_c, 0, 48, 63
1, 188487, Note_on_c, 0, 72, 0
1, 188487, Note_on_c, 0, 71, 83
1, 188487, Note_on_c, 0, 48, 0
1, 188490, Note_on_c, 0, 50, 68
1, 188496, Control_c, 0, 64, 0
1, 188538, Control_c, 0, 64, 127
1, 188577, Note_on_c, 0, 71, 0
1, 188577, Note_on_c, 0, 72, 73
1, 188577, Note_on_c, 0, 50, 0
1, 188580, Note_on_c, 0, 48, 65
1, 188667, Note_on_c, 0, 72, 0
1, 188667, Note_on_c, 0, 74, 78
1, 188667, Note_on_c, 0, 48, 0
1, 188670, Note_on_c, 0, 47, 65
1, 188757, Note_on_c, 0, 74, 0
1, 188757, Note_on_c, 0, 72, 89
1, 188757, Note_on_c, 0, 47, 0
1, 188760, Note_on_c, 0, 48, 75
1, 188774, Control_c, 0, 64, 0
1, 188797, Control_c, 0, 64, 127
1, 188847, Note_on_c, 0, 72, 0
1, 188847, Note_on_c, 0, 74, 78
1, 188847, Note_on_c, 0, 48, 0
1, 188850, Note_on_c, 0, 47, 69
1, 188938, Note_on_c, 0, 74, 0
1, 188938, Note_on_c, 0, 76, 84
1, 188938, Note_on_c, 0, 47, 0
1, 188941, Note_on_c, 0, 45, 69
1, 189029, Note_on_c, 0, 76, 0
1, 189029, Note_on_c, 0, 65, 103
1, 189029, Note_on_c, 0, 45, 0
1, 189032, Note_on_c, 0, 62, 101
1, 189035, Control_c, 0, 64, 0
1, 189077, Control_c, 0, 64, 127
1, 189118, Note_on_c, 0, 65, 0
1, 189118, Note_on_c, 0, 70, 89
1, 189118, Note_on_c, 0, 62, 0
1, 189121, Note_on_c, 0, 58, 89
1, 189208, Note_on_c, 0, 70, 0
1, 189208, Note_on_c, 0, 74, 87
1, 189208, Note_on_c, 0, 58, 0
1, 189211, Note_on_c, 0, 53, 87
1, 189297, Note_on_c, 0, 74, 0
1, 189297, Note_on_c, 0, 77, 100
1, 189297, Note_on_c, 0, 53, 0
1, 189300, Note_on_c, 0, 50, 95
1, 189387, Note_on_c, 0, 77, 0
1, 189387, Note_on_c, 0, 82, 89
1, 189387, Note_on_c, 0, 50, 0
1, 189390, Note_on_c, 0, 46, 85
1, 189478, Note_on_c, 0, 82, 0
1, 189478, Note_on_c, 0, 86, 89
1, 189478, Note_on_c, 0, 46, 0
1, 189481, Note_on_c, 0, 41, 85
1, 189568, Note_on_c, 0, 86, 0
1, 189568, Note_on_c, 0, 89, 99
1, 189568, Note_on_c, 0, 41, 0
1, 189571, Note_on_c, 0, 38, 94
1, 189660, Note_on_c, 0, 89, 0
1, 189660, Note_on_c, 0, 94, 88
1, 189660, Note_on_c, 0, 38, 0
1, 189663, Note_on_c, 0, 34, 86
1, 189754, Note_on_c, 0, 94, 0
1, 189754, Note_on_c, 0, 98, 88
1, 189754, Note_on_c, 0, 34, 0
1, 189757, Note_on_c, 0, 29, 86
1, 189851, Note_on_c, 0, 98, 0
1, 189851, Note_on_c, 0, 101, 106
1, 189851, Note_on_c, 0, 29, 0
1, 189854, Note_on_c, 0, 26, 98
1, 189926, Note_on_c, 0, 101, 0
1, 189926, Note_on_c, 0, 26, 0
1, 189998, Control_c, 0, 64, 0
1, 190153, Note_on_c, 0, 72, 89
1, 190153, Note_on_c, 0, 64, 89
1, 190153, Note_on_c, 0, 69, 89
1, 190156, Note_on_c, 0, 76, 103
1, 190156, Note_on_c, 0, 60, 93
1, 190156, Note_on_c, 0, 52, 80
1, 190159, Note_on_c, 0, 57, 80
1, 190176, Control_c, 0, 64, 127
1, 190308, Note_on_c, 0, 76, 0
1, 190308, Note_on_c, 0, 72, 0
1, 190308, Note_on_c, 0, 64, 0
1, 190311, Note_on_c, 0, 69, 0
1, 190311, Note_on_c, 0, 57, 0
1, 190311, Note_on_c, 0, 52, 0
1, 190314, Note_on_c, 0, 60, 0
1, 190314, Control_c, 0, 64, 0
1, 190463, Note_on_c, 0, 68, 84
1, 190463, Note_on_c, 0, 76, 98
1, 190463, Note_on_c, 0, 71, 84
1, 190466, Note_on_c, 0, 64, 84
1, 190466, Note_on_c, 0, 52, 73
1, 190466, Note_on_c, 0, 59, 85
1, 190469, Note_on_c, 0, 56, 73
1, 190505, Control_c, 0, 64, 127
1, 190622, Note_on_c, 0, 64, 0
1, 190622, Note_on_c, 0, 68, 0
1, 190622, Note_on_c, 0, 76, 0
1, 190625, Note_on_c, 0, 71, 0
1, 190625, Note_on_c, 0, 56, 0
1, 190625, Note_on_c, 0, 59, 0
1, 190628, Note_on_c, 0, 52, 0
1, 190654, Control_c, 0, 64, 0
1, 190780, Note_on_c, 0, 69, 77
1, 190780, Note_on_c, 0, 60, 72
1, 190871, Note_on_c, 0, 60, 0
1, 190871, Note_on_c, 0, 59, 66
1, 190962, Note_on_c, 0, 59, 0
1, 190962, Note_on_c, 0, 57, 66
1, 191054, Note_on_c, 0, 69, 0
1, 191054, Note_on_c, 0, 57, 0
1, 191054, Note_on_c, 0, 56, 71
1, 191070, Control_c, 0, 64, 127
1, 191144, Note_on_c, 0, 56, 0
1, 191144, Note_on_c, 0, 54, 65
1, 191233, Note_on_c, 0, 54, 0
1, 191233, Note_on_c, 0, 52, 64
1, 191325, Note_on_c, 0, 64, 76
1, 191325, Note_on_c, 0, 52, 0
1, 191325, Note_on_c, 0, 62, 77
1, 191330, Control_c, 0, 64, 0
1, 191414, Note_on_c, 0, 64, 0
1, 191414, Note_on_c, 0, 66, 64
1, 191504, Note_on_c, 0, 66, 0
1, 191504, Note_on_c, 0, 68, 63
1, 191593, Note_on_c, 0, 68, 0
1, 191593, Note_on_c, 0, 69, 74
1, 191593, Note_on_c, 0, 62, 0
1, 191596, Note_on_c, 0, 60, 71
1, 191683, Note_on_c, 0, 69, 0
1, 191683, Note_on_c, 0, 71, 65
1, 191683, Note_on_c, 0, 60, 0
1, 191686, Note_on_c, 0, 59, 65
1, 191773, Note_on_c, 0, 71, 0
1, 191773, Note_on_c, 0, 72, 65
1, 191773, Note_on_c, 0, 59, 0
1, 191776, Note_on_c, 0, 57, 65
1, 191866, Note_on_c, 0, 72, 0
1, 191866, Note_on_c, 0, 74, 75
1, 191866, Note_on_c, 0, 57, 0
1, 191869, Note_on_c, 0, 56, 70
1, 191888, Control_c, 0, 64, 127
1, 191955, Note_on_c, 0, 56, 0
1, 191955, Note_on_c, 0, 54, 64
1, 192045, Note_on_c, 0, 54, 0
1, 192045, Note_on_c, 0, 52, 64
1, 192137, Note_on_c, 0, 74, 0
1, 192137, Note_on_c, 0, 64, 74
1, 192137, Note_on_c, 0, 52, 0
1, 192140, Note_on_c, 0, 62, 78
1, 192140, Control_c, 0, 64, 0
1, 192226, Note_on_c, 0, 64, 0
1, 192226, Note_on_c, 0, 66, 68
1, 192315, Note_on_c, 0, 66, 0
1, 192315, Note_on_c, 0, 68, 68
1, 192405, Note_on_c, 0, 68, 0
1, 192405, Note_on_c, 0, 69, 74
1, 192405, Note_on_c, 0, 62, 0
1, 192408, Note_on_c, 0, 60, 71
1, 192495, Note_on_c, 0, 69, 0
1, 192495, Note_on_c, 0, 71, 65
1, 192495, Note_on_c, 0, 60, 0
1, 192498, Note_on_c, 0, 59, 65
1, 192585, Note_on_c, 0, 71, 0
1, 192585, Note_on_c, 0, 72, 65
1, 192585, Note_on_c, 0, 59, 0
1, 192588, Note_on_c, 0, 57, 65
1, 192678, Note_on_c, 0, 72, 0
1, 192678, Note_on_c, 0, 74, 75
1, 192678, Note_on_c, 0, 57, 0
1, 192681, Note_on_c, 0, 56, 70
1, 192700, Control_c, 0, 64, 127
1, 192767, Note_on_c, 0, 56, 0
1, 192767, Note_on_c, 0, 54, 64
1, 192857, Note_on_c, 0, 54, 0
1, 192857, Note_on_c, 0, 52, 64
1, 192949, Note_on_c, 0, 74, 0
1, 192949, Note_on_c, 0, 64, 74
1, 192949, Note_on_c, 0, 52, 0
1, 192952, Note_on_c, 0, 62, 78
1, 192955, Control_c, 0, 64, 0
1, 193038, Note_on_c, 0, 64, 0
1, 193038, Note_on_c, 0, 66, 68
1, 193127, Note_on_c, 0, 66, 0
1, 193127, Note_on_c, 0, 68, 68
1, 193217, Note_on_c, 0, 68, 0
1, 193217, Note_on_c, 0, 69, 78
1, 193217, Note_on_c, 0, 62, 0
1, 193220, Note_on_c, 0, 60, 74
1, 193244, Control_c, 0, 64, 127
1, 193306, Note_on_c, 0, 69, 0
1, 193306, Note_on_c, 0, 71, 70
1, 193306, Note_on_c, 0, 60, 0
1, 193309, Note_on_c, 0, 59, 67
1, 193396, Note_on_c, 0, 71, 0
1, 193396, Note_on_c, 0, 72, 73
1, 193396, Note_on_c, 0, 59, 0
1, 193399, Note_on_c, 0, 57, 67
1, 193485, Note_on_c, 0, 72, 0
1, 193485, Note_on_c, 0, 71, 83
1, 193485, Note_on_c, 0, 57, 0
1, 193488, Note_on_c, 0, 56, 77
1, 193491, Control_c, 0, 64, 0
1, 193509, Control_c, 0, 64, 127
1, 193575, Note_on_c, 0, 71, 0
1, 193575, Note_on_c, 0, 72, 73
1, 193575, Note_on_c, 0, 56, 0
1, 193578, Note_on_c, 0, 57, 66
1, 193665, Note_on_c, 0, 72, 0
1, 193665, Note_on_c, 0, 74, 78
1, 193665, Note_on_c, 0, 57, 0
1, 193668, Note_on_c, 0, 59, 66
1, 193755, Note_on_c, 0, 74, 0
1, 193755, Note_on_c, 0, 72, 89
1, 193755, Note_on_c, 0, 59, 0
1, 193758, Note_on_c, 0, 57, 82
1, 193763, Control_c, 0, 64, 0
1, 193817, Control_c, 0, 64, 127
1, 193846, Note_on_c, 0, 72, 0
1, 193846, Note_on_c, 0, 74, 78
1, 193846, Note_on_c, 0, 57, 0
1, 193849, Note_on_c, 0, 59, 74
1, 193938, Note_on_c, 0, 74, 0
1, 193938, Note_on_c, 0, 76, 84
1, 193938, Note_on_c, 0, 59, 0
1, 193941, Note_on_c, 0, 60, 74
1, 194035, Note_on_c, 0, 76, 0
1, 194035, Note_on_c, 0, 65, 103
1, 194035, Note_on_c, 0, 60, 0
1, 194038, Note_on_c, 0, 62, 101
1, 194044, Control_c, 0, 64, 0
1, 194090, Control_c, 0, 64, 127
1, 194125, Note_on_c, 0, 65, 0
1, 194125, Note_on_c, 0, 70, 89
1, 194125, Note_on_c, 0, 62, 0
1, 194128, Note_on_c, 0, 58, 89
1, 194214, Note_on_c, 0, 70, 0
1, 194214, Note_on_c, 0, 74, 89
1, 194214, Note_on_c, 0, 58, 0
1, 194217, Note_on_c, 0, 53, 89
1, 194304, Note_on_c, 0, 74, 0
1, 194304, Note_on_c, 0, 77, 100
1, 194304, Note_on_c, 0, 53, 0
1, 194307, Note_on_c, 0, 50, 96
1, 194394, Note_on_c, 0, 77, 0
1, 194394, Note_on_c, 0, 82, 87
1, 194394, Note_on_c, 0, 50, 0
1, 194397, Note_on_c, 0, 46, 87
1, 194484, Note_on_c, 0, 82, 0
1, 194484, Note_on_c, 0, 86, 87
1, 194484, Note_on_c, 0, 46, 0
1, 194487, Note_on_c, 0, 41, 87
1, 194575, Note_on_c, 0, 86, 0
1, 194575, Note_on_c, 0, 89, 100
1, 194575, Note_on_c, 0, 41, 0
1, 194578, Note_on_c, 0, 38, 96
1, 194666, Note_on_c, 0, 89, 0
1, 194666, Note_on_c, 0, 94, 86
1, 194666, Note_on_c, 0, 38, 0
1, 194669, Note_on_c, 0, 34, 88
1, 194760, Note_on_c, 0, 94, 0
1, 194760, Note_on_c, 0, 98, 86
1, 194760, Note_on_c, 0, 34, 0
1, 194763, Note_on_c, 0, 29, 87
1, 194857, Note_on_c, 0, 98, 0
1, 194857, Note_on_c, 0, 101, 107
1, 194857, Note_on_c, 0, 29, 0
1, 194860, Note_on_c, 0, 26, 103
1, 194934, Note_on_c, 0, 101, 0
1, 194934, Note_on_c, 0, 26, 0
1, 195006, Control_c, 0, 64, 0
1, 195164, Note_on_c, 0, 72, 89
1, 195164, Note_on_c, 0, 76, 103
1, 195164, Note_on_c, 0, 69, 89
1, 195167, Note_on_c, 0, 64, 89
1, 195167, Note_on_c, 0, 57, 80
1, 195167, Note_on_c, 0, 52, 80
1, 195170, Note_on_c, 0, 60, 93
1, 195187, Control_c, 0, 64, 127
1, 195286, Control_c, 0, 64, 0
1, 195323, Note_on_c, 0, 64, 0
1, 195323, Note_on_c, 0, 72, 0
1, 195323, Note_on_c, 0, 76, 0
1, 195326, Note_on_c, 0, 69, 0
1, 195326, Note_on_c, 0, 60, 0
1, 195326, Note_on_c, 0, 52, 0
1, 195329, Note_on_c, 0, 57, 0
1, 195482, Note_on_c, 0, 68, 84
1, 195482, Note_on_c, 0, 71, 84
1, 195482, Note_on_c, 0, 64, 84
1, 195485, Note_on_c, 0, 76, 98
1, 195485, Note_on_c, 0, 56, 73
1, 195485, Note_on_c, 0, 52, 73
1, 195488, Note_on_c, 0, 59, 85
1, 195503, Control_c, 0, 64, 127
1, 195604, Control_c, 0, 64, 0
1, 195655, Note_on_c, 0, 76, 0
1, 195655, Note_on_c, 0, 68, 0
1, 195655, Note_on_c, 0, 71, 0
1, 195658, Note_on_c, 0, 64, 0
1, 195658, Note_on_c, 0, 59, 0
1, 195658, Note_on_c, 0, 52, 0
1, 195661, Note_on_c, 0, 56, 0
1, 195828, Note_on_c, 0, 65, 103
1, 195828, Note_on_c, 0, 62, 101
1, 195872, Control_c, 0, 64, 127
1, 195916, Note_on_c, 0, 65, 0
1, 195916, Note_on_c, 0, 70, 91
1, 195916, Note_on_c, 0, 62, 0
1, 195919, Note_on_c, 0, 58, 89
1, 196004, Note_on_c, 0, 70, 0
1, 196004, Note_on_c, 0, 74, 90
1, 196004, Note_on_c, 0, 58, 0
1, 196007, Note_on_c, 0, 53, 89
1, 196093, Note_on_c, 0, 74, 0
1, 196093, Note_on_c, 0, 77, 100
1, 196093, Note_on_c, 0, 53, 0
1, 196096, Note_on_c, 0, 50, 96
1, 196183, Note_on_c, 0, 77, 0
1, 196183, Note_on_c, 0, 82, 89
1, 196183, Note_on_c, 0, 50, 0
1, 196186, Note_on_c, 0, 46, 86
1, 196273, Note_on_c, 0, 82, 0
1, 196273, Note_on_c, 0, 86, 89
1, 196273, Note_on_c, 0, 46, 0
1, 196276, Note_on_c, 0, 41, 86
1, 196364, Note_on_c, 0, 86, 0
1, 196364, Note_on_c, 0, 89, 103
1, 196364, Note_on_c, 0, 41, 0
1, 196367, Note_on_c, 0, 38, 96
1, 196455, Note_on_c, 0, 89, 0
1, 196455, Note_on_c, 0, 94, 89
1, 196455, Note_on_c, 0, 38, 0
1, 196458, Note_on_c, 0, 34, 86
1, 196549, Note_on_c, 0, 94, 0
1, 196549, Note_on_c, 0, 98, 89
1, 196549, Note_on_c, 0, 34, 0
1, 196552, Note_on_c, 0, 29, 86
1, 196646, Note_on_c, 0, 98, 0
1, 196646, Note_on_c, 0, 101, 107
1, 196646, Note_on_c, 0, 29, 0
1, 196649, Note_on_c, 0, 26, 100
1, 196720, Note_on_c, 0, 101, 0
1, 196720, Note_on_c, 0, 26, 0
1, 196745, Control_c, 0, 64, 0
1, 196942, Note_on_c, 0, 65, 89
1, 196942, Note_on_c, 0, 77, 103
1, 196942, Note_on_c, 0, 70, 89
1, 196945, Note_on_c, 0, 74, 89
1, 196945, Note_on_c, 0, 58, 80
1, 196945, Note_on_c, 0, 53, 80
1, 196948, Note_on_c, 0, 62, 93
1, 196964, Control_c, 0, 64, 127
1, 197058, Control_c, 0, 64, 0
1, 197093, Note_on_c, 0, 74, 0
1, 197093, Note_on_c, 0, 65, 0
1, 197093, Note_on_c, 0, 77, 0
1, 197096, Note_on_c, 0, 70, 0
1, 197096, Note_on_c, 0, 62, 0
1, 197096, Note_on_c, 0, 53, 0
1, 197099, Note_on_c, 0, 58, 0
1, 197244, Note_on_c, 0, 72, 84
1, 197244, Note_on_c, 0, 65, 84
1, 197244, Note_on_c, 0, 69, 84
1, 197247, Note_on_c, 0, 77, 98
1, 197247, Note_on_c, 0, 60, 85
1, 197247, Note_on_c, 0, 57, 73
1, 197250, Note_on_c, 0, 53, 73
1, 197262, Control_c, 0, 64, 127
1, 197349, Control_c, 0, 64, 0
1, 197393, Note_on_c, 0, 77, 0
1, 197393, Note_on_c, 0, 72, 0
1, 197393, Note_on_c, 0, 65, 0
1, 197396, Note_on_c, 0, 69, 0
1, 197396, Note_on_c, 0, 53, 0
1, 197396, Note_on_c, 0, 57, 0
1, 197399, Note_on_c, 0, 60, 0
1, 197542, Note_on_c, 0, 79, 84
1, 197542, Note_on_c, 0, 91, 98
1, 197542, Note_on_c, 0, 31, 89
1, 197545, Note_on_c, 0, 43, 103
1, 197576, Control_c, 0, 64, 127
1, 197659, Control_c, 0, 64, 0
1, 197687, Note_on_c, 0, 91, 0
1, 197687, Note_on_c, 0, 79, 0
1, 197687, Note_on_c, 0, 43, 0
1, 197690, Note_on_c, 0, 31, 0
1, 197832, Note_on_c, 0, 72, 89
1, 197832, Note_on_c, 0, 67, 89
1, 197832, Note_on_c, 0, 79, 103
1, 197835, Note_on_c, 0, 75, 89
1, 197835, Note_on_c, 0, 60, 80
1, 197835, Note_on_c, 0, 55, 80
1, 197838, Note_on_c, 0, 63, 93
1, 197854, Control_c, 0, 64, 127
1, 197947, Control_c, 0, 64, 0
1, 197982, Note_on_c, 0, 75, 0
1, 197982, Note_on_c, 0, 72, 0
1, 197982, Note_on_c, 0, 67, 0
1, 197985, Note_on_c, 0, 79, 0
1, 197985, Note_on_c, 0, 63, 0
1, 197985, Note_on_c, 0, 55, 0
1, 197988, Note_on_c, 0, 60, 0
1, 198133, Note_on_c, 0, 74, 84
1, 198133, Note_on_c, 0, 79, 98
1, 198133, Note_on_c, 0, 71, 84
1, 198136, Note_on_c, 0, 67, 84
1, 198136, Note_on_c, 0, 55, 73
1, 198136, Note_on_c, 0, 59, 73
1, 198139, Note_on_c, 0, 62, 85
1, 198147, Control_c, 0, 64, 127
1, 198238, Control_c, 0, 64, 0
1, 198282, Note_on_c, 0, 67, 0
1, 198282, Note_on_c, 0, 74, 0
1, 198282, Note_on_c, 0, 79, 0
1, 198285, Note_on_c, 0, 71, 0
1, 198285, Note_on_c, 0, 62, 0
1, 198285, Note_on_c, 0, 59, 0
1, 198288, Note_on_c, 0, 55, 0
1, 198431, Note_on_c, 0, 81, 84
1, 198431, Note_on_c, 0, 93, 98
1, 198431, Note_on_c, 0, 45, 103
1, 198434, Note_on_c, 0, 33, 89
1, 198472, Control_c, 0, 64, 127
1, 198576, Note_on_c, 0, 93, 0
1, 198576, Note_on_c, 0, 81, 0
1, 198576, Note_on_c, 0, 33, 0
1, 198579, Note_on_c, 0, 45, 0
1, 198579, Control_c, 0, 64, 0
1, 198721, Note_on_c, 0, 74, 89
1, 198721, Note_on_c, 0, 81, 103
1, 198721, Note_on_c, 0, 77, 89
1, 198724, Note_on_c, 0, 69, 89
1, 198724, Note_on_c, 0, 62, 80
1, 198724, Note_on_c, 0, 57, 80
1, 198727, Note_on_c, 0, 65, 93
1, 198744, Control_c, 0, 64, 127
1, 198838, Control_c, 0, 64, 0
1, 198873, Note_on_c, 0, 69, 0
1, 198873, Note_on_c, 0, 74, 0
1, 198873, Note_on_c, 0, 81, 0
1, 198876, Note_on_c, 0, 77, 0
1, 198876, Note_on_c, 0, 65, 0
1, 198876, Note_on_c, 0, 57, 0
1, 198879, Note_on_c, 0, 62, 0
1, 199025, Note_on_c, 0, 69, 84
1, 199025, Note_on_c, 0, 81, 98
1, 199025, Note_on_c, 0, 73, 84
1, 199028, Note_on_c, 0, 76, 84
1, 199028, Note_on_c, 0, 57, 73
1, 199028, Note_on_c, 0, 61, 73
1, 199031, Note_on_c, 0, 64, 85
1, 199043, Control_c, 0, 64, 127
1, 199136, Control_c, 0, 64, 0
1, 199182, Note_on_c, 0, 76, 0
1, 199182, Note_on_c, 0, 69, 0
1, 199182, Note_on_c, 0, 81, 0
1, 199185, Note_on_c, 0, 73, 0
1, 199185, Note_on_c, 0, 64, 0
1, 199185, Note_on_c, 0, 61, 0
1, 199188, Note_on_c, 0, 57, 0
1, 199339, Note_on_c, 0, 70, 69
1, 199339, Note_on_c, 0, 67, 60
1, 199339, Note_on_c, 0, 55, 52
1, 199342, Note_on_c, 0, 58, 60
1, 199369, Control_c, 0, 64, 127
1, 199416, Note_on_c, 0, 67, 0
1, 199416, Note_on_c, 0, 70, 0
1, 199416, Note_on_c, 0, 58, 0
1, 199419, Note_on_c, 0, 55, 0
1, 199493, Note_on_c, 0, 67, 62
1, 199493, Note_on_c, 0, 70, 72
1, 199493, Note_on_c, 0, 58, 59
1, 199496, Note_on_c, 0, 55, 51
1, 199570, Note_on_c, 0, 70, 0
1, 199570, Note_on_c, 0, 67, 0
1, 199570, Note_on_c, 0, 55, 0
1, 199573, Note_on_c, 0, 58, 0
1, 199647, Note_on_c, 0, 70, 64
1, 199647, Note_on_c, 0, 67, 64
1, 199647, Note_on_c, 0, 73, 74
1, 199650, Note_on_c, 0, 55, 54
1, 199650, Note_on_c, 0, 58, 62
1, 199650, Note_on_c, 0, 52, 54
1, 199724, Note_on_c, 0, 73, 0
1, 199724, Note_on_c, 0, 67, 0
1, 199724, Note_on_c, 0, 70, 0
1, 199727, Note_on_c, 0, 52, 0
1, 199727, Note_on_c, 0, 58, 0
1, 199727, Note_on_c, 0, 55, 0
1, 199801, Note_on_c, 0, 70, 77
1, 199801, Note_on_c, 0, 67, 66
1, 199801, Note_on_c, 0, 73, 77
1, 199804, Note_on_c, 0, 52, 55
1, 199804, Note_on_c, 0, 58, 64
1, 199804, Note_on_c, 0, 55, 55
1, 199878, Note_on_c, 0, 73, 0
1, 199878, Note_on_c, 0, 67, 0
1, 199878, Note_on_c, 0, 70, 0
1, 199881, Note_on_c, 0, 55, 0
1, 199881, Note_on_c, 0, 58, 0
1, 199881, Note_on_c, 0, 52, 0
1, 199955, Note_on_c, 0, 70, 69
1, 199955, Note_on_c, 0, 67, 69
1, 199955, Note_on_c, 0, 76, 80
1, 199958, Note_on_c, 0, 73, 69
1, 199958, Note_on_c, 0, 49, 57
1, 199958, Note_on_c, 0, 55, 57
1, 199961, Note_on_c, 0, 52, 57
1, 199961, Note_on_c, 0, 58, 66
1, 200032, Note_on_c, 0, 73, 0
1, 200032, Note_on_c, 0, 70, 0
1, 200032, Note_on_c, 0, 67, 0
1, 200035, Note_on_c, 0, 76, 0
1, 200035, Note_on_c, 0, 58, 0
1, 200035, Note_on_c, 0, 49, 0
1, 200038, Note_on_c, 0, 55, 0
1, 200038, Note_on_c, 0, 52, 0
1, 200109, Note_on_c, 0, 70, 72
1, 200109, Note_on_c, 0, 76, 83
1, 200109, Note_on_c, 0, 73, 72
1, 200112, Note_on_c, 0, 67, 72
1, 200112, Note_on_c, 0, 49, 59
1, 200112, Note_on_c, 0, 55, 59
1, 200115, Note_on_c, 0, 52, 59
1, 200115, Note_on_c, 0, 58, 68
1, 200185, Note_on_c, 0, 67, 0
1, 200185, Note_on_c, 0, 70, 0
1, 200185, Note_on_c, 0, 76, 0
1, 200188, Note_on_c, 0, 73, 0
1, 200188, Note_on_c, 0, 58, 0
1, 200188, Note_on_c, 0, 49, 0
1, 200191, Note_on_c, 0, 55, 0
1, 200191, Note_on_c, 0, 52, 0
1, 200262, Note_on_c, 0, 70, 74
1, 200262, Note_on_c, 0, 79, 86
1, 200262, Note_on_c, 0, 73, 74
1, 200265, Note_on_c, 0, 76, 74
1, 200265, Note_on_c, 0, 46, 61
1, 200265, Note_on_c, 0, 52, 61
1, 200268, Note_on_c, 0, 49, 61
1, 200268, Note_on_c, 0, 55, 70
1, 200339, Note_on_c, 0, 76, 0
1, 200339, Note_on_c, 0, 70, 0
1, 200339, Note_on_c, 0, 79, 0
1, 200342, Note_on_c, 0, 73, 0
1, 200342, Note_on_c, 0, 55, 0
1, 200342, Note_on_c, 0, 46, 0
1, 200345, Note_on_c, 0, 52, 0
1, 200345, Note_on_c, 0, 49, 0
1, 200416, Note_on_c, 0, 76, 77
1, 200416, Note_on_c, 0, 70, 77
1, 200416, Note_on_c, 0, 73, 77
1, 200419, Note_on_c, 0, 79, 89
1, 200419, Note_on_c, 0, 46, 62
1, 200419, Note_on_c, 0, 52, 62
1, 200422, Note_on_c, 0, 49, 62
1, 200422, Note_on_c, 0, 55, 72
1, 200493, Note_on_c, 0, 79, 0
1, 200493, Note_on_c, 0, 76, 0
1, 200493, Note_on_c, 0, 70, 0
1, 200496, Note_on_c, 0, 73, 0
1, 200496, Note_on_c, 0, 55, 0
1, 200496, Note_on_c, 0, 46, 0
1, 200499, Note_on_c, 0, 52, 0
1, 200499, Note_on_c, 0, 49, 0
1, 200570, Note_on_c, 0, 76, 79
1, 200570, Note_on_c, 0, 79, 79
1, 200570, Note_on_c, 0, 73, 79
1, 200573, Note_on_c, 0, 82, 92
1, 200573, Note_on_c, 0, 46, 64
1, 200573, Note_on_c, 0, 49, 64
1, 200576, Note_on_c, 0, 52, 74
1, 200576, Note_on_c, 0, 43, 64
1, 200647, Note_on_c, 0, 82, 0
1, 200647, Note_on_c, 0, 76, 0
1, 200647, Note_on_c, 0, 79, 0
1, 200650, Note_on_c, 0, 73, 0
1, 200650, Note_on_c, 0, 43, 0
1, 200650, Note_on_c, 0, 46, 0
1, 200653, Note_on_c, 0, 49, 0
1, 200653, Note_on_c, 0, 52, 0
1, 200724, Note_on_c, 0, 76, 82
1, 200724, Note_on_c, 0, 73, 82
1, 200724, Note_on_c, 0, 79, 82
1, 200727, Note_on_c, 0, 82, 95
1, 200727, Note_on_c, 0, 43, 66
1, 200727, Note_on_c, 0, 49, 66
1, 200730, Note_on_c, 0, 46, 66
1, 200730, Note_on_c, 0, 52, 76
1, 200801, Note_on_c, 0, 82, 0
1, 200801, Note_on_c, 0, 76, 0
1, 200801, Note_on_c, 0, 73, 0
1, 200804, Note_on_c, 0, 79, 0
1, 200804, Note_on_c, 0, 52, 0
1, 200804, Note_on_c, 0, 43, 0
1, 200807, Note_on_c, 0, 49, 0
1, 200807, Note_on_c, 0, 46, 0
1, 200878, Note_on_c, 0, 76, 83
1, 200878, Note_on_c, 0, 85, 97
1, 200878, Note_on_c, 0, 79, 83
1, 200881, Note_on_c, 0, 82, 83
1, 200881, Note_on_c, 0, 40, 68
1, 200881, Note_on_c, 0, 46, 68
1, 200884, Note_on_c, 0, 43, 68
1, 200884, Note_on_c, 0, 49, 79
1, 200956, Note_on_c, 0, 82, 0
1, 200956, Note_on_c, 0, 76, 0
1, 200956, Note_on_c, 0, 85, 0
1, 200959, Note_on_c, 0, 79, 0
1, 200959, Note_on_c, 0, 49, 0
1, 200959, Note_on_c, 0, 40, 0
1, 200962, Note_on_c, 0, 46, 0
1, 200962, Note_on_c, 0, 43, 0
1, 201034, Note_on_c, 0, 82, 86
1, 201034, Note_on_c, 0, 85, 100
1, 201034, Note_on_c, 0, 76, 86
1, 201037, Note_on_c, 0, 79, 86
1, 201037, Note_on_c, 0, 40, 72
1, 201037, Note_on_c, 0, 46, 72
1, 201040, Note_on_c, 0, 43, 72
1, 201040, Note_on_c, 0, 49, 84
1, 201116, Note_on_c, 0, 79, 0
1, 201116, Note_on_c, 0, 82, 0
1, 201116, Note_on_c, 0, 85, 0
1, 201119, Note_on_c, 0, 76, 0
1, 201119, Note_on_c, 0, 49, 0
1, 201119, Note_on_c, 0, 40, 0
1, 201122, Note_on_c, 0, 46, 0
1, 201122, Note_on_c, 0, 43, 0
1, 201197, Note_on_c, 0, 81, 100
1, 201197, Note_on_c, 0, 74, 95
1, 201197, Note_on_c, 0, 77, 95
1, 201200, Note_on_c, 0, 86, 110
1, 201200, Control_c, 0, 64, 0
1, 201200, Note_on_c, 0, 45, 83
1, 201203, Note_on_c, 0, 41, 83
1, 201203, Note_on_c, 0, 50, 97
1, 201284, Control_c, 0, 64, 127
1, 201361, Note_on_c, 0, 86, 0
1, 201361, Note_on_c, 0, 81, 0
1, 201361, Note_on_c, 0, 74, 0
1, 201364, Note_on_c, 0, 77, 0
1, 201364, Note_on_c, 0, 50, 0
1, 201364, Note_on_c, 0, 41, 0
1, 201367, Note_on_c, 0, 45, 0
1, 201466, Control_c, 0, 64, 0
1, 202178, Note_on_c, 0, 77, 95
1, 202178, Note_on_c, 0, 86, 108
1, 202178, Note_on_c, 0, 81, 95
1, 202181, Note_on_c, 0, 89, 110
1, 202181, Note_on_c, 0, 41, 83
1, 202181, Note_on_c, 0, 38, 83
1, 202184, Note_on_c, 0, 50, 97
1, 202184, Note_on_c, 0, 45, 83
1, 202264, Control_c, 0, 64, 127
1, 202341, Note_on_c, 0, 89, 0
1, 202341, Note_on_c, 0, 77, 0
1, 202341, Note_on_c, 0, 86, 0
1, 202344, Note_on_c, 0, 81, 0
1, 202344, Note_on_c, 0, 45, 0
1, 202344, Note_on_c, 0, 41, 0
1, 202347, Note_on_c, 0, 38, 0
1, 202347, Note_on_c, 0, 50, 0
1, 202447, Control_c, 0, 64, 0
1, 203158, Note_on_c, 0, 69, 52
1, 203158, Note_on_c, 0, 76, 60
1, 203158, Note_on_c, 0, 52, 52
1, 203161, Note_on_c, 0, 60, 60
1, 203161, Control_c, 0, 64, 127
1, 203317, Note_on_c, 0, 76, 0
1, 203317, Note_on_c, 0, 69, 0
1, 203317, Note_on_c, 0, 60, 0
1, 203320, Note_on_c, 0, 52, 0
1, 203320, Control_c, 0, 64, 0
1, 204114, Note_on_c, 0, 68, 52
1, 204114, Note_on_c, 0, 76, 60
1, 204114, Note_on_c, 0, 59, 60
1, 204117, Note_on_c, 0, 52, 52
1, 204130, Control_c, 0, 64, 127
1, 204254, Control_c, 0, 64, 0
1, 204277, Note_on_c, 0, 76, 0
1, 204277, Note_on_c, 0, 68, 0
1, 204277, Note_on_c, 0, 52, 0
1, 204280, Note_on_c, 0, 59, 0
1, 205155, Note_on_c, 0, 73, 48
1, 205155, Note_on_c, 0, 64, 43
1, 205155, Note_on_c, 0, 45, 46
1, 205205, Control_c, 0, 64, 127
1, 205317, Note_on_c, 0, 45, 0
1, 205317, Note_on_c, 0, 52, 32
1, 205479, Note_on_c, 0, 52, 0
1, 205479, Note_on_c, 0, 57, 37
1, 205641, Note_on_c, 0, 57, 0
1, 205641, Note_on_c, 0, 52, 32
1, 205803, Note_on_c, 0, 52, 0
1, 205803, Note_on_c, 0, 61, 46
1, 205958, Note_on_c, 0, 73, 0
1, 205958, Note_on_c, 0, 74, 46
1, 205958, Note_on_c, 0, 61, 0
1, 206035, Note_on_c, 0, 74, 0
1, 206035, Note_on_c, 0, 73, 41
1, 206112, Note_on_c, 0, 73, 0
1, 206112, Note_on_c, 0, 71, 46
1, 206112, Note_on_c, 0, 44, 46
1, 206117, Control_c, 0, 64, 0
1, 206185, Control_c, 0, 64, 127
1, 206267, Note_on_c, 0, 44, 0
1, 206267, Note_on_c, 0, 52, 36
1, 206421, Note_on_c, 0, 71, 0
1, 206421, Note_on_c, 0, 74, 48
1, 206421, Note_on_c, 0, 52, 0
1, 206424, Note_on_c, 0, 59, 41
1, 206578, Note_on_c, 0, 59, 0
1, 206578, Note_on_c, 0, 52, 36
1, 206735, Note_on_c, 0, 74, 0
1, 206735, Note_on_c, 0, 77, 52
1, 206735, Note_on_c, 0, 52, 0
1, 206738, Note_on_c, 0, 62, 45
1, 206895, Note_on_c, 0, 62, 0
1, 207055, Note_on_c, 0, 77, 0
1, 207055, Note_on_c, 0, 64, 0
1, 207055, Note_on_c, 0, 64, 43
1, 207058, Note_on_c, 0, 76, 50
1, 207058, Note_on_c, 0, 45, 43
1, 207062, Control_c, 0, 64, 0
1, 207119, Control_c, 0, 64, 127
1, 207211, Note_on_c, 0, 45, 0
1, 207211, Note_on_c, 0, 52, 33
1, 207367, Note_on_c, 0, 52, 0
1, 207367, Note_on_c, 0, 61, 36
1, 207523, Note_on_c, 0, 61, 0
1, 207523, Note_on_c, 0, 52, 32
1, 207679, Note_on_c, 0, 76, 0
1, 207679, Note_on_c, 0, 73, 44
1, 207679, Note_on_c, 0, 52, 0
1, 207682, Note_on_c, 0, 57, 46
1, 207837, Note_on_c, 0, 57, 0
1, 207989, Note_on_c, 0, 73, 0
1, 207995, Note_on_c, 0, 64, 0
1, 207995, Note_on_c, 0, 64, 43
1, 207995, Note_on_c, 0, 76, 50
1, 207998, Note_on_c, 0, 44, 46
1, 208002, Control_c, 0, 64, 0
1, 208077, Control_c, 0, 64, 127
1, 208150, Note_on_c, 0, 44, 0
1, 208150, Note_on_c, 0, 52, 37
1, 208304, Note_on_c, 0, 52, 0
1, 208304, Note_on_c, 0, 56, 41
1, 208459, Note_on_c, 0, 56, 0
1, 208459, Note_on_c, 0, 52, 36
1, 208613, Note_on_c, 0, 76, 0
1, 208613, Note_on_c, 0, 74, 44
1, 208613, Note_on_c, 0, 52, 0
1, 208616, Note_on_c, 0, 59, 45
1, 208776, Note_on_c, 0, 59, 0
1, 208933, Note_on_c, 0, 74, 0
1, 208940, Note_on_c, 0, 64, 0
1, 208940, Note_on_c, 0, 73, 48
1, 208940, Note_on_c, 0, 64, 48
1, 208943, Note_on_c, 0, 45, 44
1, 208946, Control_c, 0, 64, 0
1, 209018, Control_c, 0, 64, 127
1, 209097, Note_on_c, 0, 45, 0
1, 209097, Note_on_c, 0, 52, 37
1, 209254, Note_on_c, 0, 52, 0
1, 209254, Note_on_c, 0, 57, 39
1, 209411, Note_on_c, 0, 57, 0
1, 209411, Note_on_c, 0, 52, 36
1, 209568, Note_on_c, 0, 52, 0
1, 209568, Note_on_c, 0, 61, 46
1, 209720, Note_on_c, 0, 73, 0
1, 209720, Note_on_c, 0, 74, 45
1, 209720, Note_on_c, 0, 61, 0
1, 209795, Note_on_c, 0, 74, 0
1, 209795, Note_on_c, 0, 73, 41
1, 209871, Note_on_c, 0, 73, 0
1, 209871, Note_on_c, 0, 71, 46
1, 209871, Note_on_c, 0, 44, 46
1, 209884, Control_c, 0, 64, 0
1, 209943, Control_c, 0, 64, 127
1, 210023, Note_on_c, 0, 44, 0
1, 210023, Note_on_c, 0, 52, 37
1, 210174, Note_on_c, 0, 71, 0
1, 210174, Note_on_c, 0, 74, 48
1, 210174, Note_on_c, 0, 52, 0
1, 210177, Note_on_c, 0, 59, 41
1, 210327, Note_on_c, 0, 59, 0
1, 210327, Note_on_c, 0, 52, 37
1, 210480, Note_on_c, 0, 74, 0
1, 210480, Note_on_c, 0, 77, 52
1, 210480, Note_on_c, 0, 52, 0
1, 210483, Note_on_c, 0, 62, 45
1, 210639, Note_on_c, 0, 62, 0
1, 210798, Note_on_c, 0, 77, 0
1, 210798, Note_on_c, 0, 64, 0
1, 210798, Note_on_c, 0, 64, 43
1, 210801, Note_on_c, 0, 76, 50
1, 210801, Note_on_c, 0, 45, 43
1, 210811, Control_c, 0, 64, 0
1, 210901, Control_c, 0, 64, 127
1, 210952, Note_on_c, 0, 45, 0
1, 210952, Note_on_c, 0, 52, 33
1, 211105, Note_on_c, 0, 52, 0
1, 211105, Note_on_c, 0, 61, 37
1, 211258, Note_on_c, 0, 61, 0
1, 211258, Note_on_c, 0, 52, 32
1, 211411, Note_on_c, 0, 76, 0
1, 211411, Note_on_c, 0, 73, 44
1, 211411, Note_on_c, 0, 52, 0
1, 211414, Note_on_c, 0, 57, 46
1, 211569, Note_on_c, 0, 57, 0
1, 211720, Note_on_c, 0, 73, 0
1, 211727, Note_on_c, 0, 64, 0
1, 211727, Note_on_c, 0, 64, 57
1, 211727, Note_on_c, 0, 76, 57
1, 211730, Note_on_c, 0, 44, 48
1, 211733, Control_c, 0, 64, 0
1, 211836, Control_c, 0, 64, 127
1, 211881, Note_on_c, 0, 44, 0
1, 211881, Note_on_c, 0, 52, 38
1, 212035, Note_on_c, 0, 52, 0
1, 212035, Note_on_c, 0, 56, 45
1, 212189, Note_on_c, 0, 56, 0
1, 212189, Note_on_c, 0, 52, 38
1, 212343, Note_on_c, 0, 76, 0
1, 212343, Note_on_c, 0, 74, 55
1, 212343, Note_on_c, 0, 52, 0
1, 212346, Note_on_c, 0, 59, 45
1, 212503, Note_on_c, 0, 59, 0
1, 212656, Note_on_c, 0, 74, 0
1, 212663, Note_on_c, 0, 64, 0
1, 212663, Note_on_c, 0, 77, 63
1, 212663, Note_on_c, 0, 65, 63
1, 212666, Note_on_c, 0, 44, 48
1, 212670, Control_c, 0, 64, 0
1, 212765, Control_c, 0, 64, 127
1, 212816, Note_on_c, 0, 44, 0
1, 212816, Note_on_c, 0, 53, 40
1, 212969, Note_on_c, 0, 53, 0
1, 212969, Note_on_c, 0, 56, 46
1, 213122, Note_on_c, 0, 56, 0
1, 213122, Note_on_c, 0, 53, 41
1, 213275, Note_on_c, 0, 77, 0
1, 213275, Note_on_c, 0, 74, 59
1, 213275, Note_on_c, 0, 53, 0
1, 213278, Note_on_c, 0, 59, 49
1, 213436, Note_on_c, 0, 59, 0
1, 213589, Note_on_c, 0, 74, 0
1, 213596, Note_on_c, 0, 65, 0
1, 213596, Note_on_c, 0, 78, 67
1, 213596, Note_on_c, 0, 66, 67
1, 213599, Note_on_c, 0, 45, 57
1, 213609, Control_c, 0, 64, 0
1, 213678, Control_c, 0, 64, 127
1, 213752, Note_on_c, 0, 45, 0
1, 213752, Note_on_c, 0, 54, 43
1, 213907, Note_on_c, 0, 54, 0
1, 213907, Note_on_c, 0, 57, 46
1, 214063, Note_on_c, 0, 57, 0
1, 214063, Note_on_c, 0, 54, 43
1, 214218, Note_on_c, 0, 78, 0
1, 214218, Note_on_c, 0, 74, 59
1, 214218, Note_on_c, 0, 54, 0
1, 214221, Note_on_c, 0, 62, 51
1, 214379, Note_on_c, 0, 62, 0
1, 214532, Note_on_c, 0, 74, 0
1, 214539, Note_on_c, 0, 66, 0
1, 214539, Note_on_c, 0, 73, 63
1, 214539, Note_on_c, 0, 67, 63
1, 214542, Note_on_c, 0, 45, 58
1, 214542, Control_c, 0, 64, 0
1, 214615, Control_c, 0, 64, 127
1, 214701, Note_on_c, 0, 45, 0
1, 214701, Note_on_c, 0, 57, 45
1, 214862, Note_on_c, 0, 73, 0
1, 214862, Note_on_c, 0, 82, 71
1, 214862, Note_on_c, 0, 57, 0
1, 214865, Note_on_c, 0, 64, 50
1, 215020, Note_on_c, 0, 64, 0
1, 215020, Note_on_c, 0, 57, 45
1, 215177, Note_on_c, 0, 82, 0
1, 215177, Note_on_c, 0, 81, 65
1, 215177, Note_on_c, 0, 57, 0
1, 215180, Note_on_c, 0, 64, 54
1, 215338, Note_on_c, 0, 64, 0
1, 215499, Note_on_c, 0, 81, 0
1, 215499, Note_on_c, 0, 67, 0
1, 215499, Note_on_c, 0, 69, 43
1, 215502, Note_on_c, 0, 79, 60
1, 215502, Note_on_c, 0, 50, 49
1, 215512, Control_c, 0, 64, 0
1, 215589, Control_c, 0, 64, 127
1, 215657, Note_on_c, 0, 50, 0
1, 215657, Note_on_c, 0, 57, 34
1, 215815, Note_on_c, 0, 57, 0
1, 215815, Note_on_c, 0, 62, 36
1, 215971, Note_on_c, 0, 62, 0
1, 215971, Note_on_c, 0, 57, 32
1, 216126, Note_on_c, 0, 79, 0
1, 216126, Note_on_c, 0, 78, 55
1, 216126, Note_on_c, 0, 57, 0
1, 216129, Note_on_c, 0, 66, 41
1, 216288, Note_on_c, 0, 66, 0
1, 216443, Note_on_c, 0, 78, 0
1, 216450, Note_on_c, 0, 69, 0
1, 216450, Note_on_c, 0, 73, 59
1, 216450, Note_on_c, 0, 64, 59
1, 216453, Note_on_c, 0, 42, 48
1, 216456, Control_c, 0, 64, 0
1, 216542, Control_c, 0, 64, 127
1, 216611, Note_on_c, 0, 42, 0
1, 216611, Note_on_c, 0, 54, 40
1, 216771, Note_on_c, 0, 73, 0
1, 216771, Note_on_c, 0, 79, 63
1, 216771, Note_on_c, 0, 54, 0
1, 216774, Note_on_c, 0, 61, 43
1, 216928, Note_on_c, 0, 61, 0
1, 216928, Note_on_c, 0, 54, 39
1, 217084, Note_on_c, 0, 79, 0
1, 217084, Note_on_c, 0, 78, 55
1, 217084, Note_on_c, 0, 54, 0
1, 217087, Note_on_c, 0, 58, 48
1, 217244, Note_on_c, 0, 58, 0
1, 217403, Note_on_c, 0, 78, 0
1, 217403, Note_on_c, 0, 64, 0
1, 217403, Note_on_c, 0, 66, 43
1, 217406, Note_on_c, 0, 76, 58
1, 217406, Note_on_c, 0, 47, 46
1, 217416, Control_c, 0, 64, 0
1, 217463, Control_c, 0, 64, 127
1, 217561, Note_on_c, 0, 47, 0
1, 217561, Note_on_c, 0, 54, 35
1, 217717, Note_on_c, 0, 54, 0
1, 217717, Note_on_c, 0, 59, 38
1, 217872, Note_on_c, 0, 59, 0
1, 217872, Note_on_c, 0, 54, 36
1, 218028, Note_on_c, 0, 76, 0
1, 218028, Note_on_c, 0, 74, 55
1, 218028, Note_on_c, 0, 54, 0
1, 218031, Note_on_c, 0, 62, 41
1, 218186, Note_on_c, 0, 62, 0
1, 218338, Note_on_c, 0, 74, 0
1, 218345, Note_on_c, 0, 66, 0
1, 218345, Note_on_c, 0, 64, 43
1, 218345, Note_on_c, 0, 76, 50
1, 218348, Note_on_c, 0, 44, 46
1, 218352, Control_c, 0, 64, 0
1, 218426, Control_c, 0, 64, 127
1, 218499, Note_on_c, 0, 44, 0
1, 218499, Note_on_c, 0, 52, 37
1, 218653, Note_on_c, 0, 52, 0
1, 218653, Note_on_c, 0, 62, 39
1, 218807, Note_on_c, 0, 62, 0
1, 218807, Note_on_c, 0, 52, 37
1, 218961, Note_on_c, 0, 76, 0
1, 218961, Note_on_c, 0, 74, 44
1, 218961, Note_on_c, 0, 52, 0
1, 218964, Note_on_c, 0, 59, 45
1, 219121, Note_on_c, 0, 59, 0
1, 219274, Note_on_c, 0, 74, 0
1, 219281, Note_on_c, 0, 64, 0
1, 219281, Note_on_c, 0, 64, 43
1, 219281, Note_on_c, 0, 76, 50
1, 219284, Note_on_c, 0, 45, 43
1, 219284, Control_c, 0, 64, 0
1, 219344, Control_c, 0, 64, 127
1, 219435, Note_on_c, 0, 45, 0
1, 219435, Note_on_c, 0, 52, 38
1, 219589, Note_on_c, 0, 52, 0
1, 219589, Note_on_c, 0, 61, 39
1, 219743, Note_on_c, 0, 61, 0
1, 219743, Note_on_c, 0, 52, 38
1, 219897, Note_on_c, 0, 76, 0
1, 219897, Note_on_c, 0, 73, 44
1, 219897, Note_on_c, 0, 52, 0
1, 219900, Note_on_c, 0, 57, 46
1, 220057, Note_on_c, 0, 57, 0
1, 220211, Note_on_c, 0, 73, 0
1, 220218, Note_on_c, 0, 64, 0
1, 220218, Note_on_c, 0, 62, 43
1, 220218, Note_on_c, 0, 77, 61
1, 220221, Note_on_c, 0, 40, 43
1, 220221, Control_c, 0, 64, 0
1, 220315, Control_c, 0, 64, 127
1, 220375, Note_on_c, 0, 40, 0
1, 220375, Note_on_c, 0, 52, 39
1, 220532, Note_on_c, 0, 77, 0
1, 220532, Note_on_c, 0, 76, 46
1, 220532, Note_on_c, 0, 52, 0
1, 220535, Note_on_c, 0, 59, 39
1, 220689, Note_on_c, 0, 76, 0
1, 220689, Note_on_c, 0, 74, 41
1, 220689, Note_on_c, 0, 59, 0
1, 220692, Note_on_c, 0, 52, 39
1, 220847, Note_on_c, 0, 74, 0
1, 220847, Note_on_c, 0, 73, 45
1, 220847, Note_on_c, 0, 52, 0
1, 220850, Note_on_c, 0, 56, 46
1, 221007, Note_on_c, 0, 73, 0
1, 221007, Note_on_c, 0, 71, 39
1, 221007, Note_on_c, 0, 56, 0
1, 221167, Note_on_c, 0, 71, 0
1, 221167, Note_on_c, 0, 62, 0
1, 221167, Note_on_c, 0, 69, 45
1, 221170, Note_on_c, 0, 61, 38
1, 221170, Note_on_c, 0, 45, 43
1, 221175, Control_c, 0, 64, 0
1, 221252, Control_c, 0, 64, 127
1, 221329, Note_on_c, 0, 45, 0
1, 221329, Note_on_c, 0, 52, 36
1, 221491, Note_on_c, 0, 61, 0
1, 221491, Note_on_c, 0, 52, 0
1, 221491, Note_on_c, 0, 61, 36
1, 221652, Note_on_c, 0, 69, 0
1, 221652, Note_on_c, 0, 71, 48
1, 221652, Note_on_c, 0, 61, 0
1, 221655, Note_on_c, 0, 52, 36
1, 221814, Note_on_c, 0, 71, 0
1, 221814, Note_on_c, 0, 73, 53
1, 221814, Note_on_c, 0, 52, 0
1, 221817, Note_on_c, 0, 57, 40
1, 221975, Note_on_c, 0, 73, 0
1, 221975, Note_on_c, 0, 74, 56
1, 221975, Note_on_c, 0, 57, 0
1, 222137, Note_on_c, 0, 74, 0
1, 222137, Note_on_c, 0, 67, 64
1, 222137, Note_on_c, 0, 73, 64
1, 222140, Note_on_c, 0, 45, 54
1, 222146, Control_c, 0, 64, 0
1, 222231, Control_c, 0, 64, 127
1, 222296, Note_on_c, 0, 45, 0
1, 222296, Note_on_c, 0, 57, 46
1, 222456, Note_on_c, 0, 73, 0
1, 222456, Note_on_c, 0, 82, 69
1, 222456, Note_on_c, 0, 57, 0
1, 222459, Note_on_c, 0, 64, 48
1, 222612, Note_on_c, 0, 64, 0
1, 222612, Note_on_c, 0, 57, 46
1, 222769, Note_on_c, 0, 82, 0
1, 222769, Note_on_c, 0, 81, 64
1, 222769, Note_on_c, 0, 57, 0
1, 222772, Note_on_c, 0, 64, 54
1, 222928, Note_on_c, 0, 64, 0
1, 223088, Note_on_c, 0, 81, 0
1, 223088, Note_on_c, 0, 67, 0
1, 223088, Note_on_c, 0, 79, 62
1, 223091, Note_on_c, 0, 69, 62
1, 223091, Note_on_c, 0, 50, 49
1, 223100, Control_c, 0, 64, 0
1, 223170, Control_c, 0, 64, 127
1, 223244, Note_on_c, 0, 50, 0
1, 223244, Note_on_c, 0, 57, 36
1, 223401, Note_on_c, 0, 57, 0
1, 223401, Note_on_c, 0, 62, 36
1, 223556, Note_on_c, 0, 62, 0
1, 223556, Note_on_c, 0, 57, 36
1, 223712, Note_on_c, 0, 79, 0
1, 223712, Note_on_c, 0, 78, 59
1, 223712, Note_on_c, 0, 57, 0
1, 223715, Note_on_c, 0, 66, 41
1, 223874, Note_on_c, 0, 66, 0
1, 224029, Note_on_c, 0, 78, 0
1, 224036, Note_on_c, 0, 69, 0
1, 224036, Note_on_c, 0, 64, 60
1, 224036, Note_on_c, 0, 73, 60
1, 224039, Note_on_c, 0, 42, 50
1, 224045, Control_c, 0, 64, 0
1, 224112, Control_c, 0, 64, 127
1, 224197, Note_on_c, 0, 42, 0
1, 224197, Note_on_c, 0, 54, 40
1, 224357, Note_on_c, 0, 73, 0
1, 224357, Note_on_c, 0, 79, 66
1, 224357, Note_on_c, 0, 54, 0
1, 224360, Note_on_c, 0, 61, 46
1, 224514, Note_on_c, 0, 61, 0
1, 224514, Note_on_c, 0, 54, 39
1, 224670, Note_on_c, 0, 79, 0
1, 224670, Note_on_c, 0, 78, 61
1, 224670, Note_on_c, 0, 54, 0
1, 224673, Note_on_c, 0, 58, 48
1, 224829, Note_on_c, 0, 58, 0
1, 224989, Note_on_c, 0, 78, 0
1, 224989, Note_on_c, 0, 64, 0
1, 224989, Note_on_c, 0, 76, 58
1, 224992, Note_on_c, 0, 66, 43
1, 224992, Note_on_c, 0, 47, 46
1, 225002, Control_c, 0, 64, 0
1, 225079, Control_c, 0, 64, 127
1, 225147, Note_on_c, 0, 47, 0
1, 225147, Note_on_c, 0, 54, 36
1, 225302, Note_on_c, 0, 54, 0
1, 225302, Note_on_c, 0, 59, 36
1, 225458, Note_on_c, 0, 59, 0
1, 225458, Note_on_c, 0, 54, 36
1, 225613, Note_on_c, 0, 76, 0
1, 225613, Note_on_c, 0, 74, 55
1, 225613, Note_on_c, 0, 54, 0
1, 225616, Note_on_c, 0, 62, 41
1, 225774, Note_on_c, 0, 62, 0
1, 225929, Note_on_c, 0, 74, 0
1, 225935, Note_on_c, 0, 66, 0
1, 225935, Note_on_c, 0, 76, 53
1, 225935, Note_on_c, 0, 64, 53
1, 225938, Note_on_c, 0, 44, 46
1, 225942, Control_c, 0, 64, 0
1, 226017, Control_c, 0, 64, 127
1, 226089, Note_on_c, 0, 44, 0
1, 226089, Note_on_c, 0, 52, 37
1, 226243, Note_on_c, 0, 52, 0
1, 226243, Note_on_c, 0, 62, 38
1, 226397, Note_on_c, 0, 62, 0
1, 226397, Note_on_c, 0, 52, 38
1, 226551, Note_on_c, 0, 76, 0
1, 226551, Note_on_c, 0, 74, 46
1, 226551, Note_on_c, 0, 52, 0
1, 226554, Note_on_c, 0, 59, 45
1, 226711, Note_on_c, 0, 59, 0
1, 226865, Note_on_c, 0, 74, 0
1, 226871, Note_on_c, 0, 64, 0
1, 226871, Note_on_c, 0, 76, 53
1, 226871, Note_on_c, 0, 64, 53
1, 226874, Note_on_c, 0, 45, 43
1, 226880, Control_c, 0, 64, 0
1, 226935, Control_c, 0, 64, 127
1, 227025, Note_on_c, 0, 45, 0
1, 227025, Note_on_c, 0, 52, 37
1, 227179, Note_on_c, 0, 52, 0
1, 227179, Note_on_c, 0, 61, 39
1, 227333, Note_on_c, 0, 61, 0
1, 227333, Note_on_c, 0, 52, 36
1, 227487, Note_on_c, 0, 76, 0
1, 227487, Note_on_c, 0, 73, 44
1, 227487, Note_on_c, 0, 52, 0
1, 227490, Note_on_c, 0, 57, 46
1, 227648, Note_on_c, 0, 57, 0
1, 227802, Note_on_c, 0, 73, 0
1, 227808, Note_on_c, 0, 64, 0
1, 227808, Note_on_c, 0, 77, 61
1, 227808, Note_on_c, 0, 62, 43
1, 227811, Note_on_c, 0, 40, 43
1, 227816, Control_c, 0, 64, 0
1, 227915, Control_c, 0, 64, 127
1, 227968, Note_on_c, 0, 40, 0
1, 227968, Note_on_c, 0, 52, 36
1, 228128, Note_on_c, 0, 77, 0
1, 228128, Note_on_c, 0, 76, 46
1, 228128, Note_on_c, 0, 52, 0
1, 228131, Note_on_c, 0, 59, 39
1, 228289, Note_on_c, 0, 76, 0
1, 228289, Note_on_c, 0, 74, 41
1, 228289, Note_on_c, 0, 59, 0
1, 228292, Note_on_c, 0, 52, 37
1, 228451, Note_on_c, 0, 74, 0
1, 228451, Note_on_c, 0, 73, 45
1, 228451, Note_on_c, 0, 52, 0
1, 228454, Note_on_c, 0, 56, 46
1, 228613, Note_on_c, 0, 73, 0
1, 228613, Note_on_c, 0, 71, 39
1, 228613, Note_on_c, 0, 56, 0
1, 228776, Note_on_c, 0, 71, 0
1, 228776, Note_on_c, 0, 62, 0
1, 228776, Note_on_c, 0, 69, 45
1, 228779, Note_on_c, 0, 61, 41
1, 228779, Note_on_c, 0, 45, 43
1, 228790, Control_c, 0, 64, 0
1, 228847, Control_c, 0, 64, 127
1, 228941, Note_on_c, 0, 45, 0
1, 228941, Note_on_c, 0, 52, 33
1, 229105, Note_on_c, 0, 52, 0
1, 229105, Note_on_c, 0, 57, 36
1, 229269, Note_on_c, 0, 57, 0
1, 229269, Note_on_c, 0, 52, 33
1, 229434, Note_on_c, 0, 52, 0
1, 229434, Note_on_c, 0, 61, 33
1, 229606, Note_on_c, 0, 61, 0
1, 229778, Note_on_c, 0, 61, 0
1, 229778, Note_on_c, 0, 69, 0
1, 229778, Note_on_c, 0, 69, 99
1, 229781, Note_on_c, 0, 45, 82
1, 229781, Note_on_c, 0, 48, 82
1, 229781, Note_on_c, 0, 52, 82
1, 229784, Note_on_c, 0, 57, 95
1, 229784, Control_c, 0, 64, 0
1, 229837, Control_c, 0, 64, 127
1, 229923, Note_on_c, 0, 69, 0
1, 229923, Note_on_c, 0, 71, 93
1, 229996, Note_on_c, 0, 71, 0
1, 229996, Note_on_c, 0, 72, 85
1, 230069, Note_on_c, 0, 72, 0
1, 230069, Note_on_c, 0, 74, 86
1, 230141, Note_on_c, 0, 74, 0
1, 230141, Note_on_c, 0, 76, 88
1, 230214, Note_on_c, 0, 76, 0
1, 230214, Note_on_c, 0, 78, 90
1, 230287, Note_on_c, 0, 78, 0
1, 230287, Note_on_c, 0, 80, 92
1, 230360, Note_on_c, 0, 80, 0
1, 230360, Note_on_c, 0, 81, 93
1, 230434, Note_on_c, 0, 81, 0
1, 230434, Note_on_c, 0, 83, 95
1, 230508, Note_on_c, 0, 83, 0
1, 230508, Note_on_c, 0, 84, 97
1, 230582, Note_on_c, 0, 84, 0
1, 230582, Note_on_c, 0, 86, 98
1, 230657, Note_on_c, 0, 86, 0
1, 230657, Note_on_c, 0, 76, 91
1, 230657, Note_on_c, 0, 88, 106
1, 230660, Note_on_c, 0, 57, 0
1, 230660, Note_on_c, 0, 45, 0
1, 230660, Note_on_c, 0, 48, 0
1, 230663, Note_on_c, 0, 52, 0
1, 230663, Control_c, 0, 64, 0
1, 230663, Note_on_c, 0, 52, 72
1, 230666, Note_on_c, 0, 56, 84
1, 230729, Note_on_c, 0, 88, 0
1, 230729, Note_on_c, 0, 76, 0
1, 230729, Note_on_c, 0, 56, 0
1, 230732, Note_on_c, 0, 52, 0
1, 230802, Note_on_c, 0, 87, 95
1, 230802, Note_on_c, 0, 75, 82
1, 230802, Note_on_c, 0, 53, 65
1, 230805, Note_on_c, 0, 57, 75
1, 230877, Note_on_c, 0, 75, 0
1, 230877, Note_on_c, 0, 87, 0
1, 230877, Note_on_c, 0, 57, 0
1, 230880, Note_on_c, 0, 53, 0
1, 230951, Note_on_c, 0, 88, 102
1, 230951, Note_on_c, 0, 76, 88
1, 230951, Note_on_c, 0, 52, 70
1, 230954, Note_on_c, 0, 56, 81
1, 231024, Note_on_c, 0, 76, 0
1, 231024, Note_on_c, 0, 88, 0
1, 231024, Note_on_c, 0, 56, 0
1, 231027, Note_on_c, 0, 52, 0
1, 231096, Note_on_c, 0, 75, 82
1, 231096, Note_on_c, 0, 87, 95
1, 231096, Note_on_c, 0, 53, 65
1, 231099, Note_on_c, 0, 57, 75
1, 231171, Note_on_c, 0, 87, 0
1, 231171, Note_on_c, 0, 75, 0
1, 231171, Note_on_c, 0, 57, 0
1, 231174, Note_on_c, 0, 53, 0
1, 231246, Note_on_c, 0, 88, 104
1, 231246, Note_on_c, 0, 76, 89
1, 231246, Note_on_c, 0, 52, 72
1, 231249, Note_on_c, 0, 56, 84
1, 231332, Note_on_c, 0, 76, 0
1, 231332, Note_on_c, 0, 88, 0
1, 231332, Note_on_c, 0, 56, 0
1, 231335, Note_on_c, 0, 52, 0
1, 231593, Note_on_c, 0, 67, 99
1, 231593, Note_on_c, 0, 47, 82
1, 231593, Note_on_c, 0, 50, 82
1, 231596, Note_on_c, 0, 55, 95
1, 231596, Note_on_c, 0, 43, 82
1, 231596, Control_c, 0, 64, 127
1, 231738, Note_on_c, 0, 67, 0
1, 231738, Note_on_c, 0, 69, 93
1, 231811, Note_on_c, 0, 69, 0
1, 231811, Note_on_c, 0, 71, 85
1, 231883, Note_on_c, 0, 71, 0
1, 231883, Note_on_c, 0, 72, 86
1, 231956, Note_on_c, 0, 72, 0
1, 231956, Note_on_c, 0, 74, 88
1, 232029, Note_on_c, 0, 74, 0
1, 232029, Note_on_c, 0, 76, 90
1, 232102, Note_on_c, 0, 76, 0
1, 232102, Note_on_c, 0, 78, 92
1, 232175, Note_on_c, 0, 78, 0
1, 232175, Note_on_c, 0, 79, 93
1, 232249, Note_on_c, 0, 79, 0
1, 232249, Note_on_c, 0, 81, 95
1, 232322, Note_on_c, 0, 81, 0
1, 232322, Note_on_c, 0, 83, 97
1, 232397, Note_on_c, 0, 83, 0
1, 232397, Note_on_c, 0, 85, 98
1, 232471, Note_on_c, 0, 85, 0
1, 232471, Note_on_c, 0, 74, 90
1, 232471, Note_on_c, 0, 86, 105
1, 232474, Note_on_c, 0, 43, 0
1, 232474, Note_on_c, 0, 47, 0
1, 232474, Note_on_c, 0, 50, 0
1, 232477, Note_on_c, 0, 55, 0
1, 232477, Control_c, 0, 64, 0
1, 232477, Note_on_c, 0, 50, 73
1, 232480, Note_on_c, 0, 54, 85
1, 232544, Note_on_c, 0, 86, 0
1, 232544, Note_on_c, 0, 74, 0
1, 232544, Note_on_c, 0, 54, 0
1, 232547, Note_on_c, 0, 50, 0
1, 232616, Note_on_c, 0, 85, 96
1, 232616, Note_on_c, 0, 73, 83
1, 232616, Note_on_c, 0, 52, 65
1, 232619, Note_on_c, 0, 55, 75
1, 232691, Note_on_c, 0, 73, 0
1, 232691, Note_on_c, 0, 85, 0
1, 232691, Note_on_c, 0, 55, 0
1, 232694, Note_on_c, 0, 52, 0
1, 232766, Note_on_c, 0, 74, 88
1, 232766, Note_on_c, 0, 86, 102
1, 232766, Note_on_c, 0, 50, 71
1, 232769, Note_on_c, 0, 54, 82
1, 232838, Note_on_c, 0, 86, 0
1, 232838, Note_on_c, 0, 74, 0
1, 232838, Note_on_c, 0, 54, 0
1, 232841, Note_on_c, 0, 50, 0
1, 232911, Note_on_c, 0, 85, 95
1, 232911, Note_on_c, 0, 73, 82
1, 232911, Note_on_c, 0, 52, 64
1, 232914, Note_on_c, 0, 55, 74
1, 232986, Note_on_c, 0, 73, 0
1, 232986, Note_on_c, 0, 85, 0
1, 232986, Note_on_c, 0, 55, 0
1, 232989, Note_on_c, 0, 52, 0
1, 233060, Note_on_c, 0, 86, 105
1, 233060, Note_on_c, 0, 74, 90
1, 233060, Note_on_c, 0, 50, 72
1, 233063, Note_on_c, 0, 54, 84
1, 233147, Note_on_c, 0, 74, 0
1, 233147, Note_on_c, 0, 86, 0
1, 233147, Note_on_c, 0, 54, 0
1, 233150, Note_on_c, 0, 50, 0
1, 233407, Note_on_c, 0, 53, 78
1, 233407, Note_on_c, 0, 45, 67
1, 233407, Note_on_c, 0, 41, 67
1, 233410, Note_on_c, 0, 48, 67
1, 233461, Control_c, 0, 64, 127
1, 233490, Note_on_c, 0, 77, 87
1, 233572, Note_on_c, 0, 77, 0
1, 233572, Note_on_c, 0, 81, 87
1, 233654, Note_on_c, 0, 81, 0
1, 233654, Note_on_c, 0, 84, 91
1, 233736, Note_on_c, 0, 84, 0
1, 233736, Note_on_c, 0, 89, 97
1, 233819, Note_on_c, 0, 89, 0
1, 233819, Note_on_c, 0, 93, 90
1, 233901, Note_on_c, 0, 93, 0
1, 233901, Note_on_c, 0, 96, 89
1, 233983, Note_on_c, 0, 96, 0
1, 233983, Note_on_c, 0, 101, 85
1, 234066, Note_on_c, 0, 101, 0
1, 234066, Note_on_c, 0, 100, 99
1, 234066, Note_on_c, 0, 48, 0
1, 234069, Note_on_c, 0, 53, 0
1, 234069, Note_on_c, 0, 45, 0
1, 234069, Note_on_c, 0, 41, 0
1, 234072, Note_on_c, 0, 48, 65
1, 234072, Note_on_c, 0, 57, 75
1, 234072, Note_on_c, 0, 45, 65
1, 234075, Note_on_c, 0, 52, 65
1, 234075, Control_c, 0, 64, 0
1, 234148, Note_on_c, 0, 100, 0
1, 234230, Note_on_c, 0, 52, 0
1, 234230, Note_on_c, 0, 48, 0
1, 234230, Note_on_c, 0, 57, 0
1, 234233, Note_on_c, 0, 45, 0
1, 234404, Note_on_c, 0, 74, 100
1, 234404, Note_on_c, 0, 50, 68
1, 234404, Note_on_c, 0, 58, 79
1, 234407, Note_on_c, 0, 46, 68
1, 234407, Note_on_c, 0, 53, 68
1, 234447, Control_c, 0, 64, 127
1, 234487, Note_on_c, 0, 74, 0
1, 234487, Note_on_c, 0, 77, 91
1, 234569, Note_on_c, 0, 77, 0
1, 234569, Note_on_c, 0, 82, 91
1, 234569, Note_on_c, 0, 53, 0
1, 234572, Note_on_c, 0, 50, 0
1, 234572, Note_on_c, 0, 58, 0
1, 234572, Note_on_c, 0, 46, 0
1, 234652, Note_on_c, 0, 82, 0
1, 234652, Note_on_c, 0, 86, 91
1, 234735, Note_on_c, 0, 86, 0
1, 234735, Note_on_c, 0, 77, 100
1, 234735, Note_on_c, 0, 50, 66
1, 234738, Note_on_c, 0, 59, 77
1, 234738, Note_on_c, 0, 56, 66
1, 234738, Note_on_c, 0, 47, 66
1, 234741, Control_c, 0, 64, 0
1, 234818, Note_on_c, 0, 77, 0
1, 234818, Note_on_c, 0, 80, 91
1, 234818, Control_c, 0, 64, 127
1, 234901, Note_on_c, 0, 80, 0
1, 234901, Note_on_c, 0, 86, 91
1, 234901, Note_on_c, 0, 47, 0
1, 234904, Note_on_c, 0, 50, 0
1, 234904, Note_on_c, 0, 59, 0
1, 234904, Note_on_c, 0, 56, 0
1, 234984, Note_on_c, 0, 86, 0
1, 234984, Note_on_c, 0, 89, 91
1, 235067, Note_on_c, 0, 89, 0
1, 235067, Note_on_c, 0, 76, 100
1, 235067, Note_on_c, 0, 57, 64
1, 235070, Note_on_c, 0, 52, 64
1, 235070, Note_on_c, 0, 48, 64
1, 235070, Note_on_c, 0, 60, 74
1, 235077, Control_c, 0, 64, 0
1, 235150, Note_on_c, 0, 76, 0
1, 235150, Note_on_c, 0, 81, 89
1, 235150, Control_c, 0, 64, 127
1, 235233, Note_on_c, 0, 81, 0
1, 235233, Note_on_c, 0, 84, 89
1, 235233, Note_on_c, 0, 60, 0
1, 235236, Note_on_c, 0, 57, 0
1, 235236, Note_on_c, 0, 52, 0
1, 235236, Note_on_c, 0, 48, 0
1, 235320, Note_on_c, 0, 84, 0
1, 235320, Note_on_c, 0, 88, 89
1, 235407, Note_on_c, 0, 88, 0
1, 235407, Note_on_c, 0, 74, 98
1, 235407, Note_on_c, 0, 59, 66
1, 235410, Note_on_c, 0, 62, 77
1, 235410, Note_on_c, 0, 50, 66
1, 235410, Note_on_c, 0, 53, 66
1, 235417, Control_c, 0, 64, 0
1, 235471, Control_c, 0, 64, 127
1, 235491, Note_on_c, 0, 74, 0
1, 235491, Note_on_c, 0, 77, 88
1, 235576, Note_on_c, 0, 77, 0
1, 235576, Note_on_c, 0, 83, 88
1, 235576, Note_on_c, 0, 53, 0
1, 235579, Note_on_c, 0, 59, 0
1, 235579, Note_on_c, 0, 62, 0
1, 235579, Note_on_c, 0, 50, 0
1, 235660, Note_on_c, 0, 83, 0
1, 235660, Note_on_c, 0, 86, 88
1, 235744, Note_on_c, 0, 86, 0
1, 235744, Note_on_c, 0, 72, 95
1, 235744, Note_on_c, 0, 60, 62
1, 235747, Note_on_c, 0, 57, 62
1, 235747, Note_on_c, 0, 52, 62
1, 235747, Note_on_c, 0, 64, 72
1, 235757, Control_c, 0, 64, 0
1, 235818, Control_c, 0, 64, 127
1, 235831, Note_on_c, 0, 72, 0
1, 235831, Note_on_c, 0, 76, 86
1, 235917, Note_on_c, 0, 76, 0
1, 235917, Note_on_c, 0, 81, 86
1, 235917, Note_on_c, 0, 64, 0
1, 235920, Note_on_c, 0, 60, 0
1, 235920, Note_on_c, 0, 57, 0
1, 235920, Note_on_c, 0, 52, 0
1, 236003, Note_on_c, 0, 81, 0
1, 236003, Note_on_c, 0, 84, 86
1, 236089, Note_on_c, 0, 84, 0
1, 236089, Note_on_c, 0, 71, 96
1, 236089, Note_on_c, 0, 59, 62
1, 236092, Note_on_c, 0, 64, 72
1, 236092, Note_on_c, 0, 52, 62
1, 236092, Note_on_c, 0, 56, 62
1, 236098, Control_c, 0, 64, 0
1, 236140, Control_c, 0, 64, 127
1, 236178, Note_on_c, 0, 71, 0
1, 236178, Note_on_c, 0, 76, 85
1, 236268, Note_on_c, 0, 76, 0
1, 236268, Note_on_c, 0, 80, 86
1, 236268, Note_on_c, 0, 56, 0
1, 236271, Note_on_c, 0, 59, 0
1, 236271, Note_on_c, 0, 64, 0
1, 236271, Note_on_c, 0, 52, 0
1, 236357, Note_on_c, 0, 80, 0
1, 236357, Note_on_c, 0, 83, 86
1, 236447, Note_on_c, 0, 83, 0
1, 236447, Note_on_c, 0, 69, 88
1, 236447, Note_on_c, 0, 57, 76
1, 236450, Note_on_c, 0, 45, 69
1, 236454, Control_c, 0, 64, 0
1, 236546, Note_on_c, 0, 57, 0
1, 236546, Note_on_c, 0, 69, 0
1, 236546, Note_on_c, 0, 59, 69
1, 236549, Note_on_c, 0, 71, 80
1, 236596, Note_on_c, 0, 45, 0
1, 236646, Note_on_c, 0, 71, 0
1, 236646, Note_on_c, 0, 59, 0
1, 236646, Note_on_c, 0, 60, 68
1, 236649, Note_on_c, 0, 72, 79
1, 236746, Note_on_c, 0, 72, 0
1, 236746, Note_on_c, 0, 60, 0
1, 236746, Note_on_c, 0, 71, 87
1, 236749, Note_on_c, 0, 59, 75
1, 236845, Note_on_c, 0, 59, 0
1, 236845, Note_on_c, 0, 71, 0
1, 236845, Note_on_c, 0, 72, 81
1, 236848, Note_on_c, 0, 60, 70
1, 236945, Note_on_c, 0, 60, 0
1, 236945, Note_on_c, 0, 72, 0
1, 236945, Note_on_c, 0, 74, 82
1, 236948, Note_on_c, 0, 62, 71
1, 237051, Note_on_c, 0, 62, 0
1, 237051, Note_on_c, 0, 74, 0
1, 237051, Note_on_c, 0, 64, 84
1, 237054, Note_on_c, 0, 76, 98
1, 237054, Note_on_c, 0, 40, 61
1, 237054, Note_on_c, 0, 52, 71
1, 237083, Control_c, 0, 64, 127
1, 237151, Note_on_c, 0, 52, 0
1, 237151, Note_on_c, 0, 40, 0
1, 237151, Note_on_c, 0, 54, 66
1, 237154, Note_on_c, 0, 42, 57
1, 237250, Note_on_c, 0, 42, 0
1, 237250, Note_on_c, 0, 54, 0
1, 237250, Note_on_c, 0, 56, 66
1, 237253, Note_on_c, 0, 44, 57
1, 237352, Note_on_c, 0, 76, 0
1, 237352, Note_on_c, 0, 64, 0
1, 237352, Note_on_c, 0, 57, 76
1, 237355, Note_on_c, 0, 69, 88
1, 237355, Note_on_c, 0, 44, 0
1, 237355, Note_on_c, 0, 56, 0
1, 237358, Note_on_c, 0, 42, 60
1, 237358, Note_on_c, 0, 54, 69
1, 237358, Control_c, 0, 64, 0
1, 237451, Note_on_c, 0, 69, 0
1, 237451, Note_on_c, 0, 57, 0
1, 237451, Note_on_c, 0, 71, 80
1, 237454, Note_on_c, 0, 59, 69
1, 237454, Note_on_c, 0, 54, 0
1, 237454, Note_on_c, 0, 42, 0
1, 237457, Note_on_c, 0, 56, 71
1, 237457, Note_on_c, 0, 44, 61
1, 237551, Note_on_c, 0, 59, 0
1, 237551, Note_on_c, 0, 71, 0
1, 237551, Note_on_c, 0, 60, 68
1, 237554, Note_on_c, 0, 72, 79
1, 237554, Note_on_c, 0, 44, 0
1, 237554, Note_on_c, 0, 56, 0
1, 237557, Note_on_c, 0, 57, 63
1, 237557, Note_on_c, 0, 45, 55
1, 237650, Note_on_c, 0, 72, 0
1, 237650, Note_on_c, 0, 60, 0
1, 237650, Note_on_c, 0, 59, 75
1, 237653, Note_on_c, 0, 71, 87
1, 237653, Note_on_c, 0, 45, 0
1, 237653, Note_on_c, 0, 57, 0
1, 237656, Note_on_c, 0, 59, 76
1, 237656, Note_on_c, 0, 47, 66
1, 237749, Note_on_c, 0, 71, 0
1, 237749, Note_on_c, 0, 59, 0
1, 237749, Note_on_c, 0, 72, 81
1, 237752, Note_on_c, 0, 60, 70
1, 237848, Note_on_c, 0, 60, 0
1, 237848, Note_on_c, 0, 72, 0
1, 237848, Note_on_c, 0, 62, 71
1, 237851, Note_on_c, 0, 74, 82
1, 237954, Note_on_c, 0, 74, 0
1, 237954, Note_on_c, 0, 62, 0
1, 237954, Note_on_c, 0, 76, 98
1, 237957, Note_on_c, 0, 64, 84
1, 237957, Note_on_c, 0, 47, 0
1, 237957, Note_on_c, 0, 59, 0
1, 237960, Note_on_c, 0, 52, 71
1, 237960, Note_on_c, 0, 40, 61
1, 237986, Control_c, 0, 64, 127
1, 238054, Note_on_c, 0, 40, 0
1, 238054, Note_on_c, 0, 52, 0
1, 238054, Note_on_c, 0, 42, 57
1, 238057, Note_on_c, 0, 54, 66
1, 238153, Note_on_c, 0, 54, 0
1, 238153, Note_on_c, 0, 42, 0
1, 238153, Note_on_c, 0, 44, 57
1, 238156, Note_on_c, 0, 56, 66
1, 238256, Note_on_c, 0, 64, 0
1, 238256, Note_on_c, 0, 76, 0
1, 238256, Note_on_c, 0, 69, 81
1, 238259, Note_on_c, 0, 81, 94
1, 238259, Note_on_c, 0, 56, 0
1, 238259, Note_on_c, 0, 44, 0
1, 238262, Note_on_c, 0, 54, 69
1, 238262, Note_on_c, 0, 42, 60
1, 238262, Control_c, 0, 64, 0
1, 238355, Note_on_c, 0, 81, 0
1, 238355, Note_on_c, 0, 69, 0
1, 238355, Note_on_c, 0, 71, 74
1, 238358, Note_on_c, 0, 83, 86
1, 238358, Note_on_c, 0, 42, 0
1, 238358, Note_on_c, 0, 54, 0
1, 238361, Note_on_c, 0, 56, 71
1, 238361, Note_on_c, 0, 44, 61
1, 238454, Note_on_c, 0, 83, 0
1, 238454, Note_on_c, 0, 71, 0
1, 238454, Note_on_c, 0, 84, 86
1, 238457, Note_on_c, 0, 72, 74
1, 238457, Note_on_c, 0, 44, 0
1, 238457, Note_on_c, 0, 56, 0
1, 238460, Note_on_c, 0, 57, 63
1, 238460, Note_on_c, 0, 45, 55
1, 238553, Note_on_c, 0, 72, 0
1, 238553, Note_on_c, 0, 84, 0
1, 238553, Note_on_c, 0, 83, 95
1, 238556, Note_on_c, 0, 71, 82
1, 238556, Note_on_c, 0, 45, 0
1, 238556, Note_on_c, 0, 57, 0
1, 238559, Note_on_c, 0, 59, 80
1, 238559, Note_on_c, 0, 47, 69
1, 238652, Note_on_c, 0, 71, 0
1, 238652, Note_on_c, 0, 83, 0
1, 238652, Note_on_c, 0, 84, 87
1, 238655, Note_on_c, 0, 72, 75
1, 238752, Note_on_c, 0, 72, 0
1, 238752, Note_on_c, 0, 84, 0
1, 238752, Note_on_c, 0, 74, 75
1, 238755, Note_on_c, 0, 86, 87
1, 238857, Note_on_c, 0, 86, 0
1, 238857, Note_on_c, 0, 74, 0
1, 238857, Note_on_c, 0, 76, 90
1, 238860, Note_on_c, 0, 88, 105
1, 238860, Note_on_c, 0, 47, 0
1, 238860, Note_on_c, 0, 59, 0
1, 238863, Note_on_c, 0, 52, 71
1, 238863, Note_on_c, 0, 40, 61
1, 238889, Control_c, 0, 64, 127
1, 238957, Note_on_c, 0, 40, 0
1, 238957, Note_on_c, 0, 52, 0
1, 238957, Note_on_c, 0, 42, 57
1, 238960, Note_on_c, 0, 54, 66
1, 239057, Note_on_c, 0, 54, 0
1, 239057, Note_on_c, 0, 42, 0
1, 239057, Note_on_c, 0, 44, 57
1, 239060, Note_on_c, 0, 56, 66
1, 239159, Note_on_c, 0, 88, 0
1, 239159, Note_on_c, 0, 76, 0
1, 239159, Note_on_c, 0, 81, 94
1, 239162, Note_on_c, 0, 69, 81
1, 239162, Note_on_c, 0, 56, 0
1, 239162, Note_on_c, 0, 44, 0
1, 239165, Note_on_c, 0, 54, 69
1, 239165, Note_on_c, 0, 42, 60
1, 239165, Control_c, 0, 64, 0
1, 239258, Note_on_c, 0, 69, 0
1, 239258, Note_on_c, 0, 81, 0
1, 239258, Note_on_c, 0, 71, 74
1, 239261, Note_on_c, 0, 83, 86
1, 239261, Note_on_c, 0, 42, 0
1, 239261, Note_on_c, 0, 54, 0
1, 239264, Note_on_c, 0, 56, 71
1, 239264, Note_on_c, 0, 44, 61
1, 239357, Note_on_c, 0, 83, 0
1, 239357, Note_on_c, 0, 71, 0
1, 239357, Note_on_c, 0, 72, 74
1, 239360, Note_on_c, 0, 84, 86
1, 239360, Note_on_c, 0, 44, 0
1, 239360, Note_on_c, 0, 56, 0
1, 239363, Note_on_c, 0, 57, 63
1, 239363, Note_on_c, 0, 45, 55
1, 239456, Note_on_c, 0, 84, 0
1, 239456, Note_on_c, 0, 72, 0
1, 239456, Note_on_c, 0, 71, 82
1, 239459, Note_on_c, 0, 83, 95
1, 239459, Note_on_c, 0, 45, 0
1, 239459, Note_on_c, 0, 57, 0
1, 239462, Note_on_c, 0, 47, 69
1, 239462, Note_on_c, 0, 59, 80
1, 239555, Note_on_c, 0, 83, 0
1, 239555, Note_on_c, 0, 71, 0
1, 239555, Note_on_c, 0, 84, 87
1, 239558, Note_on_c, 0, 72, 75
1, 239654, Note_on_c, 0, 72, 0
1, 239654, Note_on_c, 0, 84, 0
1, 239654, Note_on_c, 0, 74, 75
1, 239657, Note_on_c, 0, 86, 87
1, 239759, Note_on_c, 0, 86, 0
1, 239759, Note_on_c, 0, 74, 0
1, 239759, Note_on_c, 0, 76, 90
1, 239762, Note_on_c, 0, 88, 105
1, 239762, Note_on_c, 0, 59, 0
1, 239762, Note_on_c, 0, 47, 0
1, 239765, Note_on_c, 0, 40, 67
1, 239765, Note_on_c, 0, 52, 78
1, 239792, Control_c, 0, 64, 127
1, 239860, Note_on_c, 0, 52, 0
1, 239860, Note_on_c, 0, 40, 0
1, 239860, Note_on_c, 0, 54, 69
1, 239863, Note_on_c, 0, 42, 60
1, 239962, Note_on_c, 0, 42, 0
1, 239962, Note_on_c, 0, 54, 0
1, 239962, Note_on_c, 0, 56, 67
1, 239965, Note_on_c, 0, 44, 58
1, 240067, Note_on_c, 0, 88, 0
1, 240067, Note_on_c, 0, 76, 0
1, 240067, Note_on_c, 0, 81, 90
1, 240070, Note_on_c, 0, 76, 90
1, 240070, Note_on_c, 0, 72, 90
1, 240070, Note_on_c, 0, 84, 105
1, 240073, Note_on_c, 0, 44, 0
1, 240073, Note_on_c, 0, 56, 0
1, 240073, Note_on_c, 0, 45, 66
1, 240076, Note_on_c, 0, 57, 77
1, 240076, Control_c, 0, 64, 0
1, 240098, Control_c, 0, 64, 127
1, 240168, Note_on_c, 0, 57, 0
1, 240168, Note_on_c, 0, 45, 0
1, 240168, Note_on_c, 0, 59, 68
1, 240171, Note_on_c, 0, 47, 59
1, 240218, Note_on_c, 0, 84, 0
1, 240218, Note_on_c, 0, 81, 0
1, 240218, Note_on_c, 0, 76, 0
1, 240221, Note_on_c, 0, 72, 0
1, 240221, Control_c, 0, 64, 0
1, 240268, Note_on_c, 0, 47, 0
1, 240268, Note_on_c, 0, 59, 0
1, 240268, Note_on_c, 0, 60, 68
1, 240271, Note_on_c, 0, 48, 59
1, 240368, Note_on_c, 0, 48, 0
1, 240368, Note_on_c, 0, 60, 0
1, 240368, Note_on_c, 0, 59, 76
1, 240371, Note_on_c, 0, 47, 66
1, 240471, Note_on_c, 0, 47, 0
1, 240471, Note_on_c, 0, 59, 0
1, 240471, Note_on_c, 0, 60, 69
1, 240474, Note_on_c, 0, 48, 60
1, 240573, Note_on_c, 0, 48, 0
1, 240573, Note_on_c, 0, 60, 0
1, 240573, Note_on_c, 0, 62, 69
1, 240576, Note_on_c, 0, 50, 60
1, 240676, Note_on_c, 0, 83, 101
1, 240676, Note_on_c, 0, 76, 87
1, 240676, Note_on_c, 0, 80, 87
1, 240679, Note_on_c, 0, 71, 87
1, 240679, Note_on_c, 0, 50, 0
1, 240679, Note_on_c, 0, 62, 0
1, 240682, Note_on_c, 0, 64, 80
1, 240682, Note_on_c, 0, 52, 69
1, 240727, Control_c, 0, 64, 127
1, 240834, Note_on_c, 0, 71, 0
1, 240834, Note_on_c, 0, 83, 0
1, 240834, Note_on_c, 0, 76, 0
1, 240837, Note_on_c, 0, 80, 0
1, 240837, Note_on_c, 0, 52, 0
1, 240837, Note_on_c, 0, 64, 0
1, 240991, Note_on_c, 0, 84, 105
1, 240991, Note_on_c, 0, 76, 90
1, 240991, Note_on_c, 0, 81, 90
1, 240994, Note_on_c, 0, 72, 90
1, 240994, Note_on_c, 0, 57, 77
1, 240994, Note_on_c, 0, 45, 66
1, 240998, Control_c, 0, 64, 0
1, 241022, Control_c, 0, 64, 127
1, 241092, Note_on_c, 0, 45, 0
1, 241092, Note_on_c, 0, 57, 0
1, 241092, Note_on_c, 0, 47, 59
1, 241095, Note_on_c, 0, 59, 68
1, 241143, Note_on_c, 0, 72, 0
1, 241143, Note_on_c, 0, 84, 0
1, 241143, Note_on_c, 0, 76, 0
1, 241146, Note_on_c, 0, 81, 0
1, 241152, Control_c, 0, 64, 0
1, 241193, Note_on_c, 0, 59, 0
1, 241193, Note_on_c, 0, 47, 0
1, 241193, Note_on_c, 0, 60, 68
1, 241196, Note_on_c, 0, 48, 59
1, 241294, Note_on_c, 0, 48, 0
1, 241294, Note_on_c, 0, 60, 0
1, 241294, Note_on_c, 0, 47, 66
1, 241297, Note_on_c, 0, 59, 76
1, 241397, Note_on_c, 0, 59, 0
1, 241397, Note_on_c, 0, 47, 0
1, 241397, Note_on_c, 0, 48, 60
1, 241400, Note_on_c, 0, 60, 69
1, 241499, Note_on_c, 0, 60, 0
1, 241499, Note_on_c, 0, 48, 0
1, 241499, Note_on_c, 0, 50, 60
1, 241502, Note_on_c, 0, 62, 69
1, 241602, Note_on_c, 0, 71, 87
1, 241602, Note_on_c, 0, 76, 87
1, 241602, Note_on_c, 0, 80, 87
1, 241605, Note_on_c, 0, 83, 101
1, 241605, Note_on_c, 0, 62, 0
1, 241605, Note_on_c, 0, 50, 0
1, 241608, Note_on_c, 0, 52, 69
1, 241608, Note_on_c, 0, 64, 80
1, 241644, Control_c, 0, 64, 127
1, 241759, Note_on_c, 0, 83, 0
1, 241759, Note_on_c, 0, 71, 0
1, 241759, Note_on_c, 0, 76, 0
1, 241762, Note_on_c, 0, 80, 0
1, 241762, Note_on_c, 0, 64, 0
1, 241762, Note_on_c, 0, 52, 0
1, 241917, Note_on_c, 0, 81, 90
1, 241917, Note_on_c, 0, 84, 105
1, 241917, Note_on_c, 0, 76, 90
1, 241920, Note_on_c, 0, 72, 90
1, 241920, Note_on_c, 0, 33, 66
1, 241920, Note_on_c, 0, 45, 77
1, 241923, Control_c, 0, 64, 0
1, 241975, Control_c, 0, 64, 127
1, 242018, Note_on_c, 0, 45, 0
1, 242018, Note_on_c, 0, 33, 0
1, 242018, Note_on_c, 0, 47, 68
1, 242021, Note_on_c, 0, 35, 59
1, 242069, Note_on_c, 0, 72, 0
1, 242069, Note_on_c, 0, 81, 0
1, 242069, Note_on_c, 0, 84, 0
1, 242072, Note_on_c, 0, 76, 0
1, 242072, Control_c, 0, 64, 0
1, 242120, Note_on_c, 0, 35, 0
1, 242120, Note_on_c, 0, 47, 0
1, 242120, Note_on_c, 0, 48, 68
1, 242123, Note_on_c, 0, 36, 59
1, 242221, Note_on_c, 0, 36, 0
1, 242221, Note_on_c, 0, 48, 0
1, 242221, Note_on_c, 0, 35, 66
1, 242224, Note_on_c, 0, 47, 76
1, 242322, Note_on_c, 0, 47, 0
1, 242322, Note_on_c, 0, 35, 0
1, 242322, Note_on_c, 0, 36, 60
1, 242325, Note_on_c, 0, 48, 69
1, 242424, Note_on_c, 0, 48, 0
1, 242424, Note_on_c, 0, 36, 0
1, 242424, Note_on_c, 0, 38, 60
1, 242427, Note_on_c, 0, 50, 69
1, 242525, Note_on_c, 0, 80, 101
1, 242525, Note_on_c, 0, 76, 87
1, 242525, Note_on_c, 0, 71, 87
1, 242528, Note_on_c, 0, 83, 101
1, 242528, Note_on_c, 0, 50, 0
1, 242528, Note_on_c, 0, 38, 0
1, 242531, Note_on_c, 0, 40, 69
1, 242531, Note_on_c, 0, 52, 80
1, 242563, Control_c, 0, 64, 127
1, 242686, Note_on_c, 0, 83, 0
1, 242686, Note_on_c, 0, 80, 0
1, 242686, Note_on_c, 0, 76, 0
1, 242689, Note_on_c, 0, 71, 0
1, 242689, Note_on_c, 0, 52, 0
1, 242689, Note_on_c, 0, 40, 0
1, 242847, Note_on_c, 0, 69, 90
1, 242847, Note_on_c, 0, 81, 105
1, 242847, Note_on_c, 0, 72, 90
1, 242850, Note_on_c, 0, 76, 90
1, 242850, Note_on_c, 0, 33, 71
1, 242850, Note_on_c, 0, 45, 82
1, 242855, Control_c, 0, 64, 0
1, 242941, Control_c, 0, 64, 127
1, 243007, Note_on_c, 0, 76, 0
1, 243007, Note_on_c, 0, 69, 0
1, 243007, Note_on_c, 0, 81, 0
1, 243010, Note_on_c, 0, 72, 0
1, 243010, Note_on_c, 0, 45, 0
1, 243010, Note_on_c, 0, 33, 0
1, 243149, Control_c, 0, 64, 0
1, 243800, Note_on_c, 0, 64, 82
1, 243800, Note_on_c, 0, 57, 82
1, 243800, Note_on_c, 0, 60, 82
1, 243803, Note_on_c, 0, 69, 95
1, 243803, Control_c, 0, 64, 127
1, 243803, Note_on_c, 0, 36, 59
1, 243806, Note_on_c, 0, 40, 59
1, 243806, Note_on_c, 0, 45, 68
1, 243806, Note_on_c, 0, 33, 59
1, 243955, Note_on_c, 0, 69, 0
1, 243955, Note_on_c, 0, 64, 0
1, 243955, Note_on_c, 0, 57, 0
1, 243958, Note_on_c, 0, 60, 0
1, 243958, Note_on_c, 0, 33, 0
1, 243958, Note_on_c, 0, 36, 0
1, 243961, Note_on_c, 0, 40, 0
1, 243961, Note_on_c, 0, 45, 0
1, 244109, Note_on_c, 0, 60, 84
1, 244109, Note_on_c, 0, 64, 84
1, 244109, Note_on_c, 0, 57, 84
1, 244112, Note_on_c, 0, 69, 98
1, 244112, Note_on_c, 0, 33, 62
1, 244112, Note_on_c, 0, 40, 62
1, 244115, Note_on_c, 0, 45, 72
1, 244115, Note_on_c, 0, 36, 62
1, 244269, Note_on_c, 0, 69, 0
1, 244269, Note_on_c, 0, 60, 0
1, 244269, Note_on_c, 0, 64, 0
1, 244272, Note_on_c, 0, 57, 0
1, 244272, Note_on_c, 0, 36, 0
1, 244272, Note_on_c, 0, 33, 0
1, 244275, Note_on_c, 0, 40, 0
1, 244275, Note_on_c, 0, 45, 0
1, 244428, Note_on_c, 0, 60, 86
1, 244428, Note_on_c, 0, 57, 86
1, 244428, Note_on_c, 0, 64, 86
1, 244431, Note_on_c, 0, 69, 100
1, 244431, Note_on_c, 0, 33, 66
1, 244431, Note_on_c, 0, 40, 66
1, 244434, Note_on_c, 0, 45, 77
1, 244434, Note_on_c, 0, 36, 66
1, 244600, Note_on_c, 0, 69, 0
1, 244600, Note_on_c, 0, 60, 0
1, 244600, Note_on_c, 0, 57, 0
1, 244603, Note_on_c, 0, 64, 0
1, 244603, Note_on_c, 0, 36, 0
1, 244603, Note_on_c, 0, 33, 0
1, 244606, Note_on_c, 0, 40, 0
1, 244606, Note_on_c, 0, 45, 0
1, 244773, Note_on_c, 0, 57, 87
1, 244773, Note_on_c, 0, 69, 101
1, 244773, Note_on_c, 0, 60, 87
1, 244776, Note_on_c, 0, 64, 87
1, 244776, Note_on_c, 0, 33, 67
1, 244776, Note_on_c, 0, 40, 67
1, 244779, Note_on_c, 0, 45, 78
1, 244779, Note_on_c, 0, 36, 67
1, 244945, Note_on_c, 0, 64, 0
1, 244945, Note_on_c, 0, 57, 0
1, 244945, Note_on_c, 0, 69, 0
1, 244948, Note_on_c, 0, 60, 0
1, 244948, Note_on_c, 0, 36, 0
1, 244948, Note_on_c, 0, 33, 0
1, 244951, Note_on_c, 0, 40, 0
1, 244951, Note_on_c, 0, 45, 0
1, 245118, Control_c, 0, 64, 0
1, 246616, End_track
0, 0, End_of_file
